0, 0, Header, 1, 17, 120
1, 0, Start_track
1, 0, Title_t, "Wicked Game"
1, 0, Title_t, "Chris Isaak"
1, 0, Text_t, "\012"
1, 0, MIDI_port, 0
1, 0, System_exclusive, 5, 126, 127, 9, 1, 247
1, 0, MIDI_port, 0
1, 0, System_exclusive, 8, 67, 16, 76, 0, 0, 126, 0, 247
1, 0, MIDI_port, 0
1, 0, Time_signature, 4, 2, 24, 8
1, 0, Key_signature, 0, "major"
1, 0, Tempo, 250000
1, 19680, Marker_t, "V1"
1, 35040, Marker_t, "C1"
1, 42720, Marker_t, "T1"
1, 46560, Marker_t, "V2"
1, 61920, Marker_t, "C3"
1, 69600, Marker_t, "T2"
1, 84960, Marker_t, "V3"
1, 108000, Marker_t, "F"
1, 108000, End_track
2, 0, Start_track
2, 0, MIDI_port, 0
2, 0, Title_t, "StdKit2"
2, 165, Control_c, 9, 0, 127
2, 166, Control_c, 9, 32, 0
2, 167, Program_c, 9, 1
2, 168, Control_c, 9, 7, 120
2, 168, Control_c, 9, 10, 64
2, 187, Control_c, 9, 91, 20
2, 480, Note_on_c, 9, 42, 100
2, 480, Note_on_c, 9, 36, 69
2, 495, Note_on_c, 9, 36, 0
2, 495, Note_on_c, 9, 42, 0
2, 600, Note_on_c, 9, 42, 100
2, 615, Note_on_c, 9, 42, 0
2, 720, Note_on_c, 9, 38, 90
2, 720, Note_on_c, 9, 42, 100
2, 735, Note_on_c, 9, 42, 0
2, 735, Note_on_c, 9, 38, 0
2, 840, Note_on_c, 9, 42, 100
2, 840, Note_on_c, 9, 36, 69
2, 855, Note_on_c, 9, 36, 0
2, 855, Note_on_c, 9, 42, 0
2, 960, Note_on_c, 9, 42, 100
2, 960, Note_on_c, 9, 36, 69
2, 975, Note_on_c, 9, 36, 0
2, 975, Note_on_c, 9, 42, 0
2, 1080, Note_on_c, 9, 42, 100
2, 1095, Note_on_c, 9, 42, 0
2, 1200, Note_on_c, 9, 42, 100
2, 1200, Note_on_c, 9, 38, 90
2, 1215, Note_on_c, 9, 38, 0
2, 1215, Note_on_c, 9, 42, 0
2, 1320, Note_on_c, 9, 42, 100
2, 1335, Note_on_c, 9, 42, 0
2, 1440, Note_on_c, 9, 42, 100
2, 1440, Note_on_c, 9, 36, 69
2, 1455, Note_on_c, 9, 36, 0
2, 1455, Note_on_c, 9, 42, 0
2, 1560, Note_on_c, 9, 42, 100
2, 1575, Note_on_c, 9, 42, 0
2, 1680, Note_on_c, 9, 38, 90
2, 1680, Note_on_c, 9, 42, 100
2, 1695, Note_on_c, 9, 42, 0
2, 1695, Note_on_c, 9, 38, 0
2, 1800, Note_on_c, 9, 42, 100
2, 1800, Note_on_c, 9, 36, 69
2, 1815, Note_on_c, 9, 36, 0
2, 1815, Note_on_c, 9, 42, 0
2, 1920, Note_on_c, 9, 42, 100
2, 1920, Note_on_c, 9, 36, 69
2, 1935, Note_on_c, 9, 36, 0
2, 1935, Note_on_c, 9, 42, 0
2, 2040, Note_on_c, 9, 42, 100
2, 2055, Note_on_c, 9, 42, 0
2, 2160, Note_on_c, 9, 42, 100
2, 2160, Note_on_c, 9, 38, 90
2, 2175, Note_on_c, 9, 38, 0
2, 2175, Note_on_c, 9, 42, 0
2, 2280, Note_on_c, 9, 42, 100
2, 2295, Note_on_c, 9, 42, 0
2, 2400, Note_on_c, 9, 42, 100
2, 2400, Note_on_c, 9, 36, 69
2, 2415, Note_on_c, 9, 36, 0
2, 2415, Note_on_c, 9, 42, 0
2, 2520, Note_on_c, 9, 42, 100
2, 2535, Note_on_c, 9, 42, 0
2, 2640, Note_on_c, 9, 38, 90
2, 2640, Note_on_c, 9, 42, 100
2, 2655, Note_on_c, 9, 42, 0
2, 2655, Note_on_c, 9, 38, 0
2, 2760, Note_on_c, 9, 42, 100
2, 2760, Note_on_c, 9, 36, 69
2, 2775, Note_on_c, 9, 36, 0
2, 2775, Note_on_c, 9, 42, 0
2, 2880, Note_on_c, 9, 42, 100
2, 2880, Note_on_c, 9, 36, 69
2, 2895, Note_on_c, 9, 36, 0
2, 2895, Note_on_c, 9, 42, 0
2, 3000, Note_on_c, 9, 42, 100
2, 3015, Note_on_c, 9, 42, 0
2, 3120, Note_on_c, 9, 42, 100
2, 3120, Note_on_c, 9, 38, 90
2, 3135, Note_on_c, 9, 38, 0
2, 3135, Note_on_c, 9, 42, 0
2, 3240, Note_on_c, 9, 42, 100
2, 3255, Note_on_c, 9, 42, 0
2, 3360, Note_on_c, 9, 42, 100
2, 3360, Note_on_c, 9, 36, 69
2, 3375, Note_on_c, 9, 36, 0
2, 3375, Note_on_c, 9, 42, 0
2, 3480, Note_on_c, 9, 42, 100
2, 3495, Note_on_c, 9, 42, 0
2, 3600, Note_on_c, 9, 38, 90
2, 3600, Note_on_c, 9, 42, 100
2, 3615, Note_on_c, 9, 42, 0
2, 3615, Note_on_c, 9, 38, 0
2, 3720, Note_on_c, 9, 42, 100
2, 3720, Note_on_c, 9, 36, 69
2, 3735, Note_on_c, 9, 36, 0
2, 3735, Note_on_c, 9, 42, 0
2, 3840, Note_on_c, 9, 42, 100
2, 3840, Note_on_c, 9, 36, 69
2, 3855, Note_on_c, 9, 36, 0
2, 3855, Note_on_c, 9, 42, 0
2, 3960, Note_on_c, 9, 42, 100
2, 3975, Note_on_c, 9, 42, 0
2, 4080, Note_on_c, 9, 42, 100
2, 4080, Note_on_c, 9, 38, 90
2, 4095, Note_on_c, 9, 38, 0
2, 4095, Note_on_c, 9, 42, 0
2, 4200, Note_on_c, 9, 42, 100
2, 4215, Note_on_c, 9, 42, 0
2, 4320, Note_on_c, 9, 42, 100
2, 4320, Note_on_c, 9, 36, 69
2, 4335, Note_on_c, 9, 36, 0
2, 4335, Note_on_c, 9, 42, 0
2, 4440, Note_on_c, 9, 42, 100
2, 4455, Note_on_c, 9, 42, 0
2, 4560, Note_on_c, 9, 38, 90
2, 4560, Note_on_c, 9, 42, 100
2, 4575, Note_on_c, 9, 42, 0
2, 4575, Note_on_c, 9, 38, 0
2, 4680, Note_on_c, 9, 42, 100
2, 4680, Note_on_c, 9, 36, 69
2, 4695, Note_on_c, 9, 36, 0
2, 4695, Note_on_c, 9, 42, 0
2, 4800, Note_on_c, 9, 42, 100
2, 4800, Note_on_c, 9, 36, 69
2, 4815, Note_on_c, 9, 36, 0
2, 4815, Note_on_c, 9, 42, 0
2, 4920, Note_on_c, 9, 42, 100
2, 4935, Note_on_c, 9, 42, 0
2, 5040, Note_on_c, 9, 42, 100
2, 5040, Note_on_c, 9, 38, 90
2, 5055, Note_on_c, 9, 38, 0
2, 5055, Note_on_c, 9, 42, 0
2, 5160, Note_on_c, 9, 42, 100
2, 5175, Note_on_c, 9, 42, 0
2, 5280, Note_on_c, 9, 42, 100
2, 5280, Note_on_c, 9, 36, 69
2, 5295, Note_on_c, 9, 36, 0
2, 5295, Note_on_c, 9, 42, 0
2, 5400, Note_on_c, 9, 42, 100
2, 5415, Note_on_c, 9, 42, 0
2, 5520, Note_on_c, 9, 38, 90
2, 5520, Note_on_c, 9, 42, 100
2, 5535, Note_on_c, 9, 42, 0
2, 5535, Note_on_c, 9, 38, 0
2, 5640, Note_on_c, 9, 42, 100
2, 5640, Note_on_c, 9, 36, 69
2, 5655, Note_on_c, 9, 36, 0
2, 5655, Note_on_c, 9, 42, 0
2, 5760, Note_on_c, 9, 42, 100
2, 5760, Note_on_c, 9, 36, 69
2, 5775, Note_on_c, 9, 36, 0
2, 5775, Note_on_c, 9, 42, 0
2, 5880, Note_on_c, 9, 42, 100
2, 5895, Note_on_c, 9, 42, 0
2, 6000, Note_on_c, 9, 42, 100
2, 6000, Note_on_c, 9, 38, 90
2, 6015, Note_on_c, 9, 38, 0
2, 6015, Note_on_c, 9, 42, 0
2, 6120, Note_on_c, 9, 42, 100
2, 6135, Note_on_c, 9, 42, 0
2, 6240, Note_on_c, 9, 42, 100
2, 6240, Note_on_c, 9, 36, 69
2, 6255, Note_on_c, 9, 36, 0
2, 6255, Note_on_c, 9, 42, 0
2, 6360, Note_on_c, 9, 42, 100
2, 6375, Note_on_c, 9, 42, 0
2, 6480, Note_on_c, 9, 38, 90
2, 6480, Note_on_c, 9, 42, 100
2, 6495, Note_on_c, 9, 42, 0
2, 6495, Note_on_c, 9, 38, 0
2, 6600, Note_on_c, 9, 42, 100
2, 6600, Note_on_c, 9, 36, 69
2, 6615, Note_on_c, 9, 36, 0
2, 6615, Note_on_c, 9, 42, 0
2, 6720, Note_on_c, 9, 42, 100
2, 6720, Note_on_c, 9, 36, 69
2, 6735, Note_on_c, 9, 36, 0
2, 6735, Note_on_c, 9, 42, 0
2, 6840, Note_on_c, 9, 42, 100
2, 6855, Note_on_c, 9, 42, 0
2, 6960, Note_on_c, 9, 42, 100
2, 6960, Note_on_c, 9, 38, 90
2, 6975, Note_on_c, 9, 38, 0
2, 6975, Note_on_c, 9, 42, 0
2, 7080, Note_on_c, 9, 42, 100
2, 7095, Note_on_c, 9, 42, 0
2, 7200, Note_on_c, 9, 42, 100
2, 7200, Note_on_c, 9, 36, 69
2, 7215, Note_on_c, 9, 36, 0
2, 7215, Note_on_c, 9, 42, 0
2, 7320, Note_on_c, 9, 42, 100
2, 7335, Note_on_c, 9, 42, 0
2, 7440, Note_on_c, 9, 38, 90
2, 7440, Note_on_c, 9, 42, 100
2, 7455, Note_on_c, 9, 42, 0
2, 7455, Note_on_c, 9, 38, 0
2, 7560, Note_on_c, 9, 42, 100
2, 7560, Note_on_c, 9, 36, 69
2, 7575, Note_on_c, 9, 36, 0
2, 7575, Note_on_c, 9, 42, 0
2, 7680, Note_on_c, 9, 42, 100
2, 7680, Note_on_c, 9, 36, 69
2, 7695, Note_on_c, 9, 36, 0
2, 7695, Note_on_c, 9, 42, 0
2, 7800, Note_on_c, 9, 42, 100
2, 7815, Note_on_c, 9, 42, 0
2, 7920, Note_on_c, 9, 42, 100
2, 7920, Note_on_c, 9, 38, 90
2, 7935, Note_on_c, 9, 38, 0
2, 7935, Note_on_c, 9, 42, 0
2, 8040, Note_on_c, 9, 42, 100
2, 8055, Note_on_c, 9, 42, 0
2, 8160, Note_on_c, 9, 42, 100
2, 8160, Note_on_c, 9, 36, 69
2, 8175, Note_on_c, 9, 36, 0
2, 8175, Note_on_c, 9, 42, 0
2, 8280, Note_on_c, 9, 42, 100
2, 8295, Note_on_c, 9, 42, 0
2, 8400, Note_on_c, 9, 38, 90
2, 8400, Note_on_c, 9, 42, 100
2, 8415, Note_on_c, 9, 42, 0
2, 8415, Note_on_c, 9, 38, 0
2, 8520, Note_on_c, 9, 42, 100
2, 8520, Note_on_c, 9, 36, 69
2, 8535, Note_on_c, 9, 36, 0
2, 8535, Note_on_c, 9, 42, 0
2, 8640, Note_on_c, 9, 42, 100
2, 8640, Note_on_c, 9, 36, 69
2, 8655, Note_on_c, 9, 36, 0
2, 8655, Note_on_c, 9, 42, 0
2, 8760, Note_on_c, 9, 42, 100
2, 8775, Note_on_c, 9, 42, 0
2, 8880, Note_on_c, 9, 42, 100
2, 8880, Note_on_c, 9, 38, 90
2, 8895, Note_on_c, 9, 38, 0
2, 8895, Note_on_c, 9, 42, 0
2, 9000, Note_on_c, 9, 42, 100
2, 9015, Note_on_c, 9, 42, 0
2, 9120, Note_on_c, 9, 42, 100
2, 9120, Note_on_c, 9, 36, 69
2, 9135, Note_on_c, 9, 36, 0
2, 9135, Note_on_c, 9, 42, 0
2, 9240, Note_on_c, 9, 42, 100
2, 9255, Note_on_c, 9, 42, 0
2, 9360, Note_on_c, 9, 38, 90
2, 9360, Note_on_c, 9, 42, 100
2, 9375, Note_on_c, 9, 42, 0
2, 9375, Note_on_c, 9, 38, 0
2, 9480, Note_on_c, 9, 42, 100
2, 9480, Note_on_c, 9, 36, 69
2, 9495, Note_on_c, 9, 36, 0
2, 9495, Note_on_c, 9, 42, 0
2, 9600, Note_on_c, 9, 42, 100
2, 9600, Note_on_c, 9, 36, 69
2, 9615, Note_on_c, 9, 36, 0
2, 9615, Note_on_c, 9, 42, 0
2, 9720, Note_on_c, 9, 42, 100
2, 9735, Note_on_c, 9, 42, 0
2, 9840, Note_on_c, 9, 42, 100
2, 9840, Note_on_c, 9, 38, 90
2, 9855, Note_on_c, 9, 38, 0
2, 9855, Note_on_c, 9, 42, 0
2, 9960, Note_on_c, 9, 42, 100
2, 9975, Note_on_c, 9, 42, 0
2, 10080, Note_on_c, 9, 42, 100
2, 10080, Note_on_c, 9, 36, 69
2, 10095, Note_on_c, 9, 36, 0
2, 10095, Note_on_c, 9, 42, 0
2, 10200, Note_on_c, 9, 42, 100
2, 10215, Note_on_c, 9, 42, 0
2, 10320, Note_on_c, 9, 38, 90
2, 10320, Note_on_c, 9, 42, 100
2, 10335, Note_on_c, 9, 42, 0
2, 10335, Note_on_c, 9, 38, 0
2, 10440, Note_on_c, 9, 42, 100
2, 10440, Note_on_c, 9, 36, 69
2, 10455, Note_on_c, 9, 36, 0
2, 10455, Note_on_c, 9, 42, 0
2, 10560, Note_on_c, 9, 42, 100
2, 10560, Note_on_c, 9, 36, 69
2, 10575, Note_on_c, 9, 36, 0
2, 10575, Note_on_c, 9, 42, 0
2, 10680, Note_on_c, 9, 42, 100
2, 10695, Note_on_c, 9, 42, 0
2, 10800, Note_on_c, 9, 42, 100
2, 10800, Note_on_c, 9, 38, 90
2, 10815, Note_on_c, 9, 38, 0
2, 10815, Note_on_c, 9, 42, 0
2, 10920, Note_on_c, 9, 42, 100
2, 10935, Note_on_c, 9, 42, 0
2, 11040, Note_on_c, 9, 42, 100
2, 11040, Note_on_c, 9, 36, 69
2, 11055, Note_on_c, 9, 36, 0
2, 11055, Note_on_c, 9, 42, 0
2, 11160, Note_on_c, 9, 42, 100
2, 11175, Note_on_c, 9, 42, 0
2, 11280, Note_on_c, 9, 38, 90
2, 11280, Note_on_c, 9, 42, 100
2, 11295, Note_on_c, 9, 42, 0
2, 11295, Note_on_c, 9, 38, 0
2, 11400, Note_on_c, 9, 42, 100
2, 11400, Note_on_c, 9, 36, 69
2, 11415, Note_on_c, 9, 36, 0
2, 11415, Note_on_c, 9, 42, 0
2, 11520, Note_on_c, 9, 42, 100
2, 11520, Note_on_c, 9, 36, 69
2, 11535, Note_on_c, 9, 36, 0
2, 11535, Note_on_c, 9, 42, 0
2, 11640, Note_on_c, 9, 42, 100
2, 11655, Note_on_c, 9, 42, 0
2, 11760, Note_on_c, 9, 42, 100
2, 11760, Note_on_c, 9, 38, 90
2, 11775, Note_on_c, 9, 38, 0
2, 11775, Note_on_c, 9, 42, 0
2, 11880, Note_on_c, 9, 42, 100
2, 11895, Note_on_c, 9, 42, 0
2, 12000, Note_on_c, 9, 42, 100
2, 12000, Note_on_c, 9, 36, 69
2, 12015, Note_on_c, 9, 36, 0
2, 12015, Note_on_c, 9, 42, 0
2, 12120, Note_on_c, 9, 42, 100
2, 12135, Note_on_c, 9, 42, 0
2, 12240, Note_on_c, 9, 38, 90
2, 12240, Note_on_c, 9, 42, 100
2, 12255, Note_on_c, 9, 42, 0
2, 12255, Note_on_c, 9, 38, 0
2, 12360, Note_on_c, 9, 42, 100
2, 12360, Note_on_c, 9, 36, 69
2, 12375, Note_on_c, 9, 36, 0
2, 12375, Note_on_c, 9, 42, 0
2, 12480, Note_on_c, 9, 42, 100
2, 12480, Note_on_c, 9, 36, 69
2, 12495, Note_on_c, 9, 36, 0
2, 12495, Note_on_c, 9, 42, 0
2, 12600, Note_on_c, 9, 42, 100
2, 12615, Note_on_c, 9, 42, 0
2, 12720, Note_on_c, 9, 42, 100
2, 12720, Note_on_c, 9, 38, 90
2, 12735, Note_on_c, 9, 38, 0
2, 12735, Note_on_c, 9, 42, 0
2, 12840, Note_on_c, 9, 42, 100
2, 12855, Note_on_c, 9, 42, 0
2, 12960, Note_on_c, 9, 42, 100
2, 12960, Note_on_c, 9, 36, 69
2, 12975, Note_on_c, 9, 36, 0
2, 12975, Note_on_c, 9, 42, 0
2, 13080, Note_on_c, 9, 42, 100
2, 13095, Note_on_c, 9, 42, 0
2, 13200, Note_on_c, 9, 38, 90
2, 13200, Note_on_c, 9, 42, 100
2, 13215, Note_on_c, 9, 42, 0
2, 13215, Note_on_c, 9, 38, 0
2, 13320, Note_on_c, 9, 42, 100
2, 13320, Note_on_c, 9, 36, 69
2, 13335, Note_on_c, 9, 36, 0
2, 13335, Note_on_c, 9, 42, 0
2, 13440, Note_on_c, 9, 42, 100
2, 13440, Note_on_c, 9, 36, 69
2, 13455, Note_on_c, 9, 36, 0
2, 13455, Note_on_c, 9, 42, 0
2, 13560, Note_on_c, 9, 42, 100
2, 13575, Note_on_c, 9, 42, 0
2, 13680, Note_on_c, 9, 42, 100
2, 13680, Note_on_c, 9, 38, 90
2, 13695, Note_on_c, 9, 38, 0
2, 13695, Note_on_c, 9, 42, 0
2, 13800, Note_on_c, 9, 42, 100
2, 13815, Note_on_c, 9, 42, 0
2, 13920, Note_on_c, 9, 42, 100
2, 13920, Note_on_c, 9, 36, 69
2, 13935, Note_on_c, 9, 36, 0
2, 13935, Note_on_c, 9, 42, 0
2, 14040, Note_on_c, 9, 42, 100
2, 14055, Note_on_c, 9, 42, 0
2, 14160, Note_on_c, 9, 38, 90
2, 14160, Note_on_c, 9, 42, 100
2, 14175, Note_on_c, 9, 42, 0
2, 14175, Note_on_c, 9, 38, 0
2, 14280, Note_on_c, 9, 42, 100
2, 14280, Note_on_c, 9, 36, 69
2, 14295, Note_on_c, 9, 36, 0
2, 14295, Note_on_c, 9, 42, 0
2, 14400, Note_on_c, 9, 42, 100
2, 14400, Note_on_c, 9, 36, 69
2, 14415, Note_on_c, 9, 36, 0
2, 14415, Note_on_c, 9, 42, 0
2, 14520, Note_on_c, 9, 42, 100
2, 14535, Note_on_c, 9, 42, 0
2, 14640, Note_on_c, 9, 42, 100
2, 14640, Note_on_c, 9, 38, 90
2, 14655, Note_on_c, 9, 38, 0
2, 14655, Note_on_c, 9, 42, 0
2, 14760, Note_on_c, 9, 42, 100
2, 14775, Note_on_c, 9, 42, 0
2, 14880, Note_on_c, 9, 42, 100
2, 14880, Note_on_c, 9, 36, 69
2, 14895, Note_on_c, 9, 36, 0
2, 14895, Note_on_c, 9, 42, 0
2, 15000, Note_on_c, 9, 42, 100
2, 15015, Note_on_c, 9, 42, 0
2, 15120, Note_on_c, 9, 38, 90
2, 15120, Note_on_c, 9, 42, 100
2, 15135, Note_on_c, 9, 42, 0
2, 15135, Note_on_c, 9, 38, 0
2, 15240, Note_on_c, 9, 42, 100
2, 15240, Note_on_c, 9, 36, 69
2, 15255, Note_on_c, 9, 36, 0
2, 15255, Note_on_c, 9, 42, 0
2, 15360, Note_on_c, 9, 42, 100
2, 15360, Note_on_c, 9, 36, 69
2, 15375, Note_on_c, 9, 36, 0
2, 15375, Note_on_c, 9, 42, 0
2, 15480, Note_on_c, 9, 42, 100
2, 15495, Note_on_c, 9, 42, 0
2, 15600, Note_on_c, 9, 42, 100
2, 15600, Note_on_c, 9, 38, 90
2, 15615, Note_on_c, 9, 38, 0
2, 15615, Note_on_c, 9, 42, 0
2, 15720, Note_on_c, 9, 42, 100
2, 15735, Note_on_c, 9, 42, 0
2, 15840, Note_on_c, 9, 42, 100
2, 15840, Note_on_c, 9, 36, 69
2, 15855, Note_on_c, 9, 36, 0
2, 15855, Note_on_c, 9, 42, 0
2, 15960, Note_on_c, 9, 42, 100
2, 15975, Note_on_c, 9, 42, 0
2, 16080, Note_on_c, 9, 38, 90
2, 16080, Note_on_c, 9, 42, 100
2, 16095, Note_on_c, 9, 42, 0
2, 16095, Note_on_c, 9, 38, 0
2, 16200, Note_on_c, 9, 42, 100
2, 16200, Note_on_c, 9, 36, 69
2, 16215, Note_on_c, 9, 36, 0
2, 16215, Note_on_c, 9, 42, 0
2, 16320, Note_on_c, 9, 42, 100
2, 16320, Note_on_c, 9, 36, 69
2, 16335, Note_on_c, 9, 36, 0
2, 16335, Note_on_c, 9, 42, 0
2, 16440, Note_on_c, 9, 42, 100
2, 16455, Note_on_c, 9, 42, 0
2, 16560, Note_on_c, 9, 42, 100
2, 16560, Note_on_c, 9, 38, 90
2, 16575, Note_on_c, 9, 38, 0
2, 16575, Note_on_c, 9, 42, 0
2, 16680, Note_on_c, 9, 42, 100
2, 16695, Note_on_c, 9, 42, 0
2, 16800, Note_on_c, 9, 42, 100
2, 16800, Note_on_c, 9, 36, 69
2, 16815, Note_on_c, 9, 36, 0
2, 16815, Note_on_c, 9, 42, 0
2, 16920, Note_on_c, 9, 42, 100
2, 16935, Note_on_c, 9, 42, 0
2, 17040, Note_on_c, 9, 38, 90
2, 17040, Note_on_c, 9, 42, 100
2, 17055, Note_on_c, 9, 42, 0
2, 17055, Note_on_c, 9, 38, 0
2, 17160, Note_on_c, 9, 42, 100
2, 17160, Note_on_c, 9, 36, 69
2, 17175, Note_on_c, 9, 36, 0
2, 17175, Note_on_c, 9, 42, 0
2, 17280, Note_on_c, 9, 42, 100
2, 17280, Note_on_c, 9, 36, 69
2, 17295, Note_on_c, 9, 36, 0
2, 17295, Note_on_c, 9, 42, 0
2, 17400, Note_on_c, 9, 42, 100
2, 17415, Note_on_c, 9, 42, 0
2, 17520, Note_on_c, 9, 42, 100
2, 17520, Note_on_c, 9, 38, 90
2, 17535, Note_on_c, 9, 38, 0
2, 17535, Note_on_c, 9, 42, 0
2, 17640, Note_on_c, 9, 42, 100
2, 17655, Note_on_c, 9, 42, 0
2, 17760, Note_on_c, 9, 42, 100
2, 17760, Note_on_c, 9, 36, 69
2, 17775, Note_on_c, 9, 36, 0
2, 17775, Note_on_c, 9, 42, 0
2, 17880, Note_on_c, 9, 42, 100
2, 17895, Note_on_c, 9, 42, 0
2, 18000, Note_on_c, 9, 38, 90
2, 18000, Note_on_c, 9, 42, 100
2, 18015, Note_on_c, 9, 42, 0
2, 18015, Note_on_c, 9, 38, 0
2, 18120, Note_on_c, 9, 42, 100
2, 18120, Note_on_c, 9, 36, 69
2, 18135, Note_on_c, 9, 36, 0
2, 18135, Note_on_c, 9, 42, 0
2, 18240, Note_on_c, 9, 42, 100
2, 18240, Note_on_c, 9, 36, 69
2, 18255, Note_on_c, 9, 36, 0
2, 18255, Note_on_c, 9, 42, 0
2, 18360, Note_on_c, 9, 42, 100
2, 18375, Note_on_c, 9, 42, 0
2, 18480, Note_on_c, 9, 42, 100
2, 18480, Note_on_c, 9, 38, 90
2, 18495, Note_on_c, 9, 38, 0
2, 18495, Note_on_c, 9, 42, 0
2, 18600, Note_on_c, 9, 42, 100
2, 18615, Note_on_c, 9, 42, 0
2, 18720, Note_on_c, 9, 42, 100
2, 18720, Note_on_c, 9, 36, 69
2, 18735, Note_on_c, 9, 36, 0
2, 18735, Note_on_c, 9, 42, 0
2, 18840, Note_on_c, 9, 42, 100
2, 18855, Note_on_c, 9, 42, 0
2, 18960, Note_on_c, 9, 38, 90
2, 18960, Note_on_c, 9, 42, 100
2, 18975, Note_on_c, 9, 42, 0
2, 18975, Note_on_c, 9, 38, 0
2, 19080, Note_on_c, 9, 42, 100
2, 19080, Note_on_c, 9, 36, 69
2, 19095, Note_on_c, 9, 36, 0
2, 19095, Note_on_c, 9, 42, 0
2, 19200, Note_on_c, 9, 42, 100
2, 19200, Note_on_c, 9, 36, 69
2, 19215, Note_on_c, 9, 36, 0
2, 19215, Note_on_c, 9, 42, 0
2, 19320, Note_on_c, 9, 42, 100
2, 19335, Note_on_c, 9, 42, 0
2, 19440, Note_on_c, 9, 42, 100
2, 19440, Note_on_c, 9, 38, 90
2, 19455, Note_on_c, 9, 38, 0
2, 19455, Note_on_c, 9, 42, 0
2, 19560, Note_on_c, 9, 42, 100
2, 19575, Note_on_c, 9, 42, 0
2, 19680, Note_on_c, 9, 42, 100
2, 19680, Note_on_c, 9, 36, 69
2, 19695, Note_on_c, 9, 36, 0
2, 19695, Note_on_c, 9, 42, 0
2, 19800, Note_on_c, 9, 42, 100
2, 19815, Note_on_c, 9, 42, 0
2, 19920, Note_on_c, 9, 38, 90
2, 19920, Note_on_c, 9, 42, 100
2, 19935, Note_on_c, 9, 42, 0
2, 19935, Note_on_c, 9, 38, 0
2, 20040, Note_on_c, 9, 42, 100
2, 20040, Note_on_c, 9, 36, 69
2, 20055, Note_on_c, 9, 36, 0
2, 20055, Note_on_c, 9, 42, 0
2, 20160, Note_on_c, 9, 42, 100
2, 20160, Note_on_c, 9, 36, 69
2, 20175, Note_on_c, 9, 36, 0
2, 20175, Note_on_c, 9, 42, 0
2, 20280, Note_on_c, 9, 42, 100
2, 20295, Note_on_c, 9, 42, 0
2, 20400, Note_on_c, 9, 42, 100
2, 20400, Note_on_c, 9, 38, 90
2, 20415, Note_on_c, 9, 38, 0
2, 20415, Note_on_c, 9, 42, 0
2, 20520, Note_on_c, 9, 42, 100
2, 20535, Note_on_c, 9, 42, 0
2, 20640, Note_on_c, 9, 42, 100
2, 20640, Note_on_c, 9, 36, 69
2, 20655, Note_on_c, 9, 36, 0
2, 20655, Note_on_c, 9, 42, 0
2, 20760, Note_on_c, 9, 42, 100
2, 20775, Note_on_c, 9, 42, 0
2, 20880, Note_on_c, 9, 38, 90
2, 20880, Note_on_c, 9, 42, 100
2, 20895, Note_on_c, 9, 42, 0
2, 20895, Note_on_c, 9, 38, 0
2, 21000, Note_on_c, 9, 42, 100
2, 21000, Note_on_c, 9, 36, 69
2, 21015, Note_on_c, 9, 36, 0
2, 21015, Note_on_c, 9, 42, 0
2, 21120, Note_on_c, 9, 42, 100
2, 21120, Note_on_c, 9, 36, 69
2, 21135, Note_on_c, 9, 36, 0
2, 21135, Note_on_c, 9, 42, 0
2, 21240, Note_on_c, 9, 42, 100
2, 21255, Note_on_c, 9, 42, 0
2, 21360, Note_on_c, 9, 42, 100
2, 21360, Note_on_c, 9, 38, 90
2, 21375, Note_on_c, 9, 38, 0
2, 21375, Note_on_c, 9, 42, 0
2, 21480, Note_on_c, 9, 42, 100
2, 21495, Note_on_c, 9, 42, 0
2, 21600, Note_on_c, 9, 42, 100
2, 21600, Note_on_c, 9, 36, 69
2, 21615, Note_on_c, 9, 36, 0
2, 21615, Note_on_c, 9, 42, 0
2, 21720, Note_on_c, 9, 42, 100
2, 21735, Note_on_c, 9, 42, 0
2, 21840, Note_on_c, 9, 38, 90
2, 21840, Note_on_c, 9, 42, 100
2, 21855, Note_on_c, 9, 42, 0
2, 21855, Note_on_c, 9, 38, 0
2, 21960, Note_on_c, 9, 42, 100
2, 21960, Note_on_c, 9, 36, 69
2, 21975, Note_on_c, 9, 36, 0
2, 21975, Note_on_c, 9, 42, 0
2, 22080, Note_on_c, 9, 42, 100
2, 22080, Note_on_c, 9, 36, 69
2, 22095, Note_on_c, 9, 36, 0
2, 22095, Note_on_c, 9, 42, 0
2, 22200, Note_on_c, 9, 42, 100
2, 22215, Note_on_c, 9, 42, 0
2, 22320, Note_on_c, 9, 42, 100
2, 22320, Note_on_c, 9, 38, 90
2, 22335, Note_on_c, 9, 38, 0
2, 22335, Note_on_c, 9, 42, 0
2, 22440, Note_on_c, 9, 42, 100
2, 22455, Note_on_c, 9, 42, 0
2, 22560, Note_on_c, 9, 42, 100
2, 22560, Note_on_c, 9, 36, 69
2, 22575, Note_on_c, 9, 36, 0
2, 22575, Note_on_c, 9, 42, 0
2, 22680, Note_on_c, 9, 42, 100
2, 22695, Note_on_c, 9, 42, 0
2, 22800, Note_on_c, 9, 38, 90
2, 22800, Note_on_c, 9, 42, 100
2, 22815, Note_on_c, 9, 42, 0
2, 22815, Note_on_c, 9, 38, 0
2, 22920, Note_on_c, 9, 42, 100
2, 22920, Note_on_c, 9, 36, 69
2, 22935, Note_on_c, 9, 36, 0
2, 22935, Note_on_c, 9, 42, 0
2, 23040, Note_on_c, 9, 42, 100
2, 23040, Note_on_c, 9, 36, 69
2, 23055, Note_on_c, 9, 36, 0
2, 23055, Note_on_c, 9, 42, 0
2, 23160, Note_on_c, 9, 42, 100
2, 23175, Note_on_c, 9, 42, 0
2, 23280, Note_on_c, 9, 42, 100
2, 23280, Note_on_c, 9, 38, 90
2, 23295, Note_on_c, 9, 38, 0
2, 23295, Note_on_c, 9, 42, 0
2, 23400, Note_on_c, 9, 42, 100
2, 23415, Note_on_c, 9, 42, 0
2, 23520, Note_on_c, 9, 42, 100
2, 23520, Note_on_c, 9, 36, 69
2, 23535, Note_on_c, 9, 36, 0
2, 23535, Note_on_c, 9, 42, 0
2, 23640, Note_on_c, 9, 42, 100
2, 23655, Note_on_c, 9, 42, 0
2, 23760, Note_on_c, 9, 38, 90
2, 23760, Note_on_c, 9, 42, 100
2, 23775, Note_on_c, 9, 42, 0
2, 23775, Note_on_c, 9, 38, 0
2, 23880, Note_on_c, 9, 42, 100
2, 23880, Note_on_c, 9, 36, 69
2, 23895, Note_on_c, 9, 36, 0
2, 23895, Note_on_c, 9, 42, 0
2, 24000, Note_on_c, 9, 42, 100
2, 24000, Note_on_c, 9, 36, 69
2, 24015, Note_on_c, 9, 36, 0
2, 24015, Note_on_c, 9, 42, 0
2, 24120, Note_on_c, 9, 42, 100
2, 24135, Note_on_c, 9, 42, 0
2, 24240, Note_on_c, 9, 42, 100
2, 24240, Note_on_c, 9, 38, 90
2, 24255, Note_on_c, 9, 38, 0
2, 24255, Note_on_c, 9, 42, 0
2, 24360, Note_on_c, 9, 42, 100
2, 24375, Note_on_c, 9, 42, 0
2, 24480, Note_on_c, 9, 42, 100
2, 24480, Note_on_c, 9, 36, 69
2, 24495, Note_on_c, 9, 36, 0
2, 24495, Note_on_c, 9, 42, 0
2, 24600, Note_on_c, 9, 42, 100
2, 24615, Note_on_c, 9, 42, 0
2, 24720, Note_on_c, 9, 38, 90
2, 24720, Note_on_c, 9, 42, 100
2, 24735, Note_on_c, 9, 42, 0
2, 24735, Note_on_c, 9, 38, 0
2, 24840, Note_on_c, 9, 42, 100
2, 24840, Note_on_c, 9, 36, 69
2, 24855, Note_on_c, 9, 36, 0
2, 24855, Note_on_c, 9, 42, 0
2, 24960, Note_on_c, 9, 42, 100
2, 24960, Note_on_c, 9, 36, 69
2, 24975, Note_on_c, 9, 36, 0
2, 24975, Note_on_c, 9, 42, 0
2, 25080, Note_on_c, 9, 42, 100
2, 25095, Note_on_c, 9, 42, 0
2, 25200, Note_on_c, 9, 42, 100
2, 25200, Note_on_c, 9, 38, 90
2, 25215, Note_on_c, 9, 38, 0
2, 25215, Note_on_c, 9, 42, 0
2, 25320, Note_on_c, 9, 42, 100
2, 25335, Note_on_c, 9, 42, 0
2, 25440, Note_on_c, 9, 42, 100
2, 25440, Note_on_c, 9, 36, 69
2, 25455, Note_on_c, 9, 36, 0
2, 25455, Note_on_c, 9, 42, 0
2, 25560, Note_on_c, 9, 42, 100
2, 25575, Note_on_c, 9, 42, 0
2, 25680, Note_on_c, 9, 38, 90
2, 25680, Note_on_c, 9, 42, 100
2, 25695, Note_on_c, 9, 42, 0
2, 25695, Note_on_c, 9, 38, 0
2, 25800, Note_on_c, 9, 42, 100
2, 25800, Note_on_c, 9, 36, 69
2, 25815, Note_on_c, 9, 36, 0
2, 25815, Note_on_c, 9, 42, 0
2, 25920, Note_on_c, 9, 42, 100
2, 25920, Note_on_c, 9, 36, 69
2, 25935, Note_on_c, 9, 36, 0
2, 25935, Note_on_c, 9, 42, 0
2, 26040, Note_on_c, 9, 42, 100
2, 26055, Note_on_c, 9, 42, 0
2, 26160, Note_on_c, 9, 42, 100
2, 26160, Note_on_c, 9, 38, 90
2, 26175, Note_on_c, 9, 38, 0
2, 26175, Note_on_c, 9, 42, 0
2, 26280, Note_on_c, 9, 42, 100
2, 26295, Note_on_c, 9, 42, 0
2, 26400, Note_on_c, 9, 42, 100
2, 26400, Note_on_c, 9, 36, 69
2, 26415, Note_on_c, 9, 36, 0
2, 26415, Note_on_c, 9, 42, 0
2, 26520, Note_on_c, 9, 42, 100
2, 26535, Note_on_c, 9, 42, 0
2, 26640, Note_on_c, 9, 38, 90
2, 26640, Note_on_c, 9, 42, 100
2, 26655, Note_on_c, 9, 42, 0
2, 26655, Note_on_c, 9, 38, 0
2, 26760, Note_on_c, 9, 42, 100
2, 26760, Note_on_c, 9, 36, 69
2, 26775, Note_on_c, 9, 36, 0
2, 26775, Note_on_c, 9, 42, 0
2, 26880, Note_on_c, 9, 42, 100
2, 26880, Note_on_c, 9, 36, 69
2, 26895, Note_on_c, 9, 36, 0
2, 26895, Note_on_c, 9, 42, 0
2, 27000, Note_on_c, 9, 42, 100
2, 27015, Note_on_c, 9, 42, 0
2, 27120, Note_on_c, 9, 42, 100
2, 27120, Note_on_c, 9, 38, 90
2, 27135, Note_on_c, 9, 38, 0
2, 27135, Note_on_c, 9, 42, 0
2, 27240, Note_on_c, 9, 42, 100
2, 27255, Note_on_c, 9, 42, 0
2, 27360, Note_on_c, 9, 42, 100
2, 27360, Note_on_c, 9, 36, 69
2, 27375, Note_on_c, 9, 36, 0
2, 27375, Note_on_c, 9, 42, 0
2, 27480, Note_on_c, 9, 42, 100
2, 27495, Note_on_c, 9, 42, 0
2, 27600, Note_on_c, 9, 38, 90
2, 27600, Note_on_c, 9, 42, 100
2, 27615, Note_on_c, 9, 42, 0
2, 27615, Note_on_c, 9, 38, 0
2, 27720, Note_on_c, 9, 42, 100
2, 27720, Note_on_c, 9, 36, 69
2, 27735, Note_on_c, 9, 36, 0
2, 27735, Note_on_c, 9, 42, 0
2, 27840, Note_on_c, 9, 42, 100
2, 27840, Note_on_c, 9, 36, 69
2, 27855, Note_on_c, 9, 36, 0
2, 27855, Note_on_c, 9, 42, 0
2, 27960, Note_on_c, 9, 42, 100
2, 27975, Note_on_c, 9, 42, 0
2, 28080, Note_on_c, 9, 42, 100
2, 28080, Note_on_c, 9, 38, 90
2, 28095, Note_on_c, 9, 38, 0
2, 28095, Note_on_c, 9, 42, 0
2, 28200, Note_on_c, 9, 42, 100
2, 28215, Note_on_c, 9, 42, 0
2, 28320, Note_on_c, 9, 42, 100
2, 28320, Note_on_c, 9, 36, 69
2, 28335, Note_on_c, 9, 36, 0
2, 28335, Note_on_c, 9, 42, 0
2, 28440, Note_on_c, 9, 42, 100
2, 28455, Note_on_c, 9, 42, 0
2, 28560, Note_on_c, 9, 38, 90
2, 28560, Note_on_c, 9, 42, 100
2, 28575, Note_on_c, 9, 42, 0
2, 28575, Note_on_c, 9, 38, 0
2, 28680, Note_on_c, 9, 42, 100
2, 28680, Note_on_c, 9, 36, 69
2, 28695, Note_on_c, 9, 36, 0
2, 28695, Note_on_c, 9, 42, 0
2, 28800, Note_on_c, 9, 42, 100
2, 28800, Note_on_c, 9, 36, 69
2, 28815, Note_on_c, 9, 36, 0
2, 28815, Note_on_c, 9, 42, 0
2, 28920, Note_on_c, 9, 42, 100
2, 28935, Note_on_c, 9, 42, 0
2, 29040, Note_on_c, 9, 42, 100
2, 29040, Note_on_c, 9, 38, 90
2, 29055, Note_on_c, 9, 38, 0
2, 29055, Note_on_c, 9, 42, 0
2, 29160, Note_on_c, 9, 42, 100
2, 29175, Note_on_c, 9, 42, 0
2, 29280, Note_on_c, 9, 42, 100
2, 29280, Note_on_c, 9, 36, 69
2, 29295, Note_on_c, 9, 36, 0
2, 29295, Note_on_c, 9, 42, 0
2, 29400, Note_on_c, 9, 42, 100
2, 29415, Note_on_c, 9, 42, 0
2, 29520, Note_on_c, 9, 38, 90
2, 29520, Note_on_c, 9, 42, 100
2, 29535, Note_on_c, 9, 42, 0
2, 29535, Note_on_c, 9, 38, 0
2, 29640, Note_on_c, 9, 42, 100
2, 29640, Note_on_c, 9, 36, 69
2, 29655, Note_on_c, 9, 36, 0
2, 29655, Note_on_c, 9, 42, 0
2, 29760, Note_on_c, 9, 42, 100
2, 29760, Note_on_c, 9, 36, 69
2, 29775, Note_on_c, 9, 36, 0
2, 29775, Note_on_c, 9, 42, 0
2, 29880, Note_on_c, 9, 42, 100
2, 29895, Note_on_c, 9, 42, 0
2, 30000, Note_on_c, 9, 42, 100
2, 30000, Note_on_c, 9, 38, 90
2, 30015, Note_on_c, 9, 38, 0
2, 30015, Note_on_c, 9, 42, 0
2, 30120, Note_on_c, 9, 42, 100
2, 30135, Note_on_c, 9, 42, 0
2, 30240, Note_on_c, 9, 42, 100
2, 30240, Note_on_c, 9, 36, 69
2, 30255, Note_on_c, 9, 36, 0
2, 30255, Note_on_c, 9, 42, 0
2, 30360, Note_on_c, 9, 42, 100
2, 30375, Note_on_c, 9, 42, 0
2, 30480, Note_on_c, 9, 38, 90
2, 30480, Note_on_c, 9, 42, 100
2, 30495, Note_on_c, 9, 42, 0
2, 30495, Note_on_c, 9, 38, 0
2, 30600, Note_on_c, 9, 42, 100
2, 30600, Note_on_c, 9, 36, 69
2, 30615, Note_on_c, 9, 36, 0
2, 30615, Note_on_c, 9, 42, 0
2, 30720, Note_on_c, 9, 42, 100
2, 30720, Note_on_c, 9, 36, 69
2, 30735, Note_on_c, 9, 36, 0
2, 30735, Note_on_c, 9, 42, 0
2, 30840, Note_on_c, 9, 42, 100
2, 30855, Note_on_c, 9, 42, 0
2, 30960, Note_on_c, 9, 42, 100
2, 30960, Note_on_c, 9, 38, 90
2, 30975, Note_on_c, 9, 38, 0
2, 30975, Note_on_c, 9, 42, 0
2, 31080, Note_on_c, 9, 42, 100
2, 31095, Note_on_c, 9, 42, 0
2, 31200, Note_on_c, 9, 42, 100
2, 31200, Note_on_c, 9, 36, 69
2, 31215, Note_on_c, 9, 36, 0
2, 31215, Note_on_c, 9, 42, 0
2, 31320, Note_on_c, 9, 42, 100
2, 31335, Note_on_c, 9, 42, 0
2, 31440, Note_on_c, 9, 38, 90
2, 31440, Note_on_c, 9, 42, 100
2, 31455, Note_on_c, 9, 42, 0
2, 31455, Note_on_c, 9, 38, 0
2, 31560, Note_on_c, 9, 42, 100
2, 31560, Note_on_c, 9, 36, 69
2, 31575, Note_on_c, 9, 36, 0
2, 31575, Note_on_c, 9, 42, 0
2, 31680, Note_on_c, 9, 42, 100
2, 31680, Note_on_c, 9, 36, 69
2, 31695, Note_on_c, 9, 36, 0
2, 31695, Note_on_c, 9, 42, 0
2, 31800, Note_on_c, 9, 42, 100
2, 31815, Note_on_c, 9, 42, 0
2, 31920, Note_on_c, 9, 42, 100
2, 31920, Note_on_c, 9, 38, 90
2, 31935, Note_on_c, 9, 38, 0
2, 31935, Note_on_c, 9, 42, 0
2, 32040, Note_on_c, 9, 42, 100
2, 32055, Note_on_c, 9, 42, 0
2, 32160, Note_on_c, 9, 42, 100
2, 32160, Note_on_c, 9, 36, 69
2, 32175, Note_on_c, 9, 36, 0
2, 32175, Note_on_c, 9, 42, 0
2, 32280, Note_on_c, 9, 42, 100
2, 32295, Note_on_c, 9, 42, 0
2, 32400, Note_on_c, 9, 38, 90
2, 32400, Note_on_c, 9, 42, 100
2, 32415, Note_on_c, 9, 42, 0
2, 32415, Note_on_c, 9, 38, 0
2, 32520, Note_on_c, 9, 42, 100
2, 32520, Note_on_c, 9, 36, 69
2, 32535, Note_on_c, 9, 36, 0
2, 32535, Note_on_c, 9, 42, 0
2, 32640, Note_on_c, 9, 42, 100
2, 32640, Note_on_c, 9, 36, 69
2, 32655, Note_on_c, 9, 36, 0
2, 32655, Note_on_c, 9, 42, 0
2, 32760, Note_on_c, 9, 42, 100
2, 32775, Note_on_c, 9, 42, 0
2, 32880, Note_on_c, 9, 42, 100
2, 32880, Note_on_c, 9, 38, 90
2, 32895, Note_on_c, 9, 38, 0
2, 32895, Note_on_c, 9, 42, 0
2, 33000, Note_on_c, 9, 42, 100
2, 33015, Note_on_c, 9, 42, 0
2, 33120, Note_on_c, 9, 42, 100
2, 33120, Note_on_c, 9, 36, 69
2, 33135, Note_on_c, 9, 36, 0
2, 33135, Note_on_c, 9, 42, 0
2, 33240, Note_on_c, 9, 42, 100
2, 33255, Note_on_c, 9, 42, 0
2, 33360, Note_on_c, 9, 38, 90
2, 33360, Note_on_c, 9, 42, 100
2, 33375, Note_on_c, 9, 42, 0
2, 33375, Note_on_c, 9, 38, 0
2, 33480, Note_on_c, 9, 42, 100
2, 33480, Note_on_c, 9, 36, 69
2, 33495, Note_on_c, 9, 36, 0
2, 33495, Note_on_c, 9, 42, 0
2, 33600, Note_on_c, 9, 42, 100
2, 33600, Note_on_c, 9, 36, 69
2, 33615, Note_on_c, 9, 36, 0
2, 33615, Note_on_c, 9, 42, 0
2, 33720, Note_on_c, 9, 42, 100
2, 33735, Note_on_c, 9, 42, 0
2, 33840, Note_on_c, 9, 42, 100
2, 33840, Note_on_c, 9, 38, 90
2, 33855, Note_on_c, 9, 38, 0
2, 33855, Note_on_c, 9, 42, 0
2, 33960, Note_on_c, 9, 42, 100
2, 33975, Note_on_c, 9, 42, 0
2, 34080, Note_on_c, 9, 42, 100
2, 34080, Note_on_c, 9, 36, 69
2, 34095, Note_on_c, 9, 36, 0
2, 34095, Note_on_c, 9, 42, 0
2, 34200, Note_on_c, 9, 42, 100
2, 34215, Note_on_c, 9, 42, 0
2, 34320, Note_on_c, 9, 38, 90
2, 34320, Note_on_c, 9, 42, 100
2, 34335, Note_on_c, 9, 42, 0
2, 34335, Note_on_c, 9, 38, 0
2, 34440, Note_on_c, 9, 42, 100
2, 34440, Note_on_c, 9, 36, 69
2, 34455, Note_on_c, 9, 36, 0
2, 34455, Note_on_c, 9, 42, 0
2, 34560, Note_on_c, 9, 42, 100
2, 34560, Note_on_c, 9, 36, 69
2, 34575, Note_on_c, 9, 36, 0
2, 34575, Note_on_c, 9, 42, 0
2, 34680, Note_on_c, 9, 42, 100
2, 34695, Note_on_c, 9, 42, 0
2, 34800, Note_on_c, 9, 42, 100
2, 34800, Note_on_c, 9, 38, 90
2, 34815, Note_on_c, 9, 38, 0
2, 34815, Note_on_c, 9, 42, 0
2, 34920, Note_on_c, 9, 42, 100
2, 34935, Note_on_c, 9, 42, 0
2, 35040, Note_on_c, 9, 42, 100
2, 35040, Note_on_c, 9, 36, 69
2, 35055, Note_on_c, 9, 36, 0
2, 35055, Note_on_c, 9, 42, 0
2, 35160, Note_on_c, 9, 42, 100
2, 35175, Note_on_c, 9, 42, 0
2, 35280, Note_on_c, 9, 38, 90
2, 35280, Note_on_c, 9, 42, 100
2, 35295, Note_on_c, 9, 42, 0
2, 35295, Note_on_c, 9, 38, 0
2, 35400, Note_on_c, 9, 42, 100
2, 35400, Note_on_c, 9, 36, 69
2, 35415, Note_on_c, 9, 36, 0
2, 35415, Note_on_c, 9, 42, 0
2, 35520, Note_on_c, 9, 42, 100
2, 35520, Note_on_c, 9, 36, 69
2, 35535, Note_on_c, 9, 36, 0
2, 35535, Note_on_c, 9, 42, 0
2, 35640, Note_on_c, 9, 42, 100
2, 35655, Note_on_c, 9, 42, 0
2, 35760, Note_on_c, 9, 42, 100
2, 35760, Note_on_c, 9, 38, 90
2, 35775, Note_on_c, 9, 38, 0
2, 35775, Note_on_c, 9, 42, 0
2, 35880, Note_on_c, 9, 42, 100
2, 35895, Note_on_c, 9, 42, 0
2, 36000, Note_on_c, 9, 42, 100
2, 36000, Note_on_c, 9, 36, 69
2, 36015, Note_on_c, 9, 36, 0
2, 36015, Note_on_c, 9, 42, 0
2, 36120, Note_on_c, 9, 42, 100
2, 36135, Note_on_c, 9, 42, 0
2, 36240, Note_on_c, 9, 38, 90
2, 36240, Note_on_c, 9, 42, 100
2, 36255, Note_on_c, 9, 42, 0
2, 36255, Note_on_c, 9, 38, 0
2, 36360, Note_on_c, 9, 42, 100
2, 36360, Note_on_c, 9, 36, 69
2, 36375, Note_on_c, 9, 36, 0
2, 36375, Note_on_c, 9, 42, 0
2, 36480, Note_on_c, 9, 42, 100
2, 36480, Note_on_c, 9, 36, 69
2, 36495, Note_on_c, 9, 36, 0
2, 36495, Note_on_c, 9, 42, 0
2, 36600, Note_on_c, 9, 42, 100
2, 36615, Note_on_c, 9, 42, 0
2, 36720, Note_on_c, 9, 42, 100
2, 36720, Note_on_c, 9, 38, 90
2, 36735, Note_on_c, 9, 38, 0
2, 36735, Note_on_c, 9, 42, 0
2, 36840, Note_on_c, 9, 42, 100
2, 36855, Note_on_c, 9, 42, 0
2, 36960, Note_on_c, 9, 42, 100
2, 36960, Note_on_c, 9, 36, 69
2, 36975, Note_on_c, 9, 36, 0
2, 36975, Note_on_c, 9, 42, 0
2, 37080, Note_on_c, 9, 42, 100
2, 37095, Note_on_c, 9, 42, 0
2, 37200, Note_on_c, 9, 38, 90
2, 37200, Note_on_c, 9, 42, 100
2, 37215, Note_on_c, 9, 42, 0
2, 37215, Note_on_c, 9, 38, 0
2, 37320, Note_on_c, 9, 42, 100
2, 37320, Note_on_c, 9, 36, 69
2, 37335, Note_on_c, 9, 36, 0
2, 37335, Note_on_c, 9, 42, 0
2, 37440, Note_on_c, 9, 42, 100
2, 37440, Note_on_c, 9, 36, 69
2, 37455, Note_on_c, 9, 36, 0
2, 37455, Note_on_c, 9, 42, 0
2, 37560, Note_on_c, 9, 42, 100
2, 37575, Note_on_c, 9, 42, 0
2, 37680, Note_on_c, 9, 42, 100
2, 37680, Note_on_c, 9, 38, 90
2, 37695, Note_on_c, 9, 38, 0
2, 37695, Note_on_c, 9, 42, 0
2, 37800, Note_on_c, 9, 42, 100
2, 37815, Note_on_c, 9, 42, 0
2, 37920, Note_on_c, 9, 42, 100
2, 37920, Note_on_c, 9, 36, 69
2, 37935, Note_on_c, 9, 36, 0
2, 37935, Note_on_c, 9, 42, 0
2, 38040, Note_on_c, 9, 42, 100
2, 38055, Note_on_c, 9, 42, 0
2, 38160, Note_on_c, 9, 38, 90
2, 38160, Note_on_c, 9, 42, 100
2, 38175, Note_on_c, 9, 42, 0
2, 38175, Note_on_c, 9, 38, 0
2, 38280, Note_on_c, 9, 42, 100
2, 38280, Note_on_c, 9, 36, 69
2, 38295, Note_on_c, 9, 36, 0
2, 38295, Note_on_c, 9, 42, 0
2, 38400, Note_on_c, 9, 42, 100
2, 38400, Note_on_c, 9, 36, 69
2, 38415, Note_on_c, 9, 36, 0
2, 38415, Note_on_c, 9, 42, 0
2, 38520, Note_on_c, 9, 42, 100
2, 38535, Note_on_c, 9, 42, 0
2, 38640, Note_on_c, 9, 42, 100
2, 38640, Note_on_c, 9, 38, 90
2, 38655, Note_on_c, 9, 38, 0
2, 38655, Note_on_c, 9, 42, 0
2, 38760, Note_on_c, 9, 42, 100
2, 38775, Note_on_c, 9, 42, 0
2, 38880, Note_on_c, 9, 42, 100
2, 38880, Note_on_c, 9, 36, 69
2, 38895, Note_on_c, 9, 36, 0
2, 38895, Note_on_c, 9, 42, 0
2, 39000, Note_on_c, 9, 42, 100
2, 39015, Note_on_c, 9, 42, 0
2, 39120, Note_on_c, 9, 38, 90
2, 39120, Note_on_c, 9, 42, 100
2, 39135, Note_on_c, 9, 42, 0
2, 39135, Note_on_c, 9, 38, 0
2, 39240, Note_on_c, 9, 42, 100
2, 39240, Note_on_c, 9, 36, 69
2, 39255, Note_on_c, 9, 36, 0
2, 39255, Note_on_c, 9, 42, 0
2, 39360, Note_on_c, 9, 42, 100
2, 39360, Note_on_c, 9, 36, 69
2, 39375, Note_on_c, 9, 36, 0
2, 39375, Note_on_c, 9, 42, 0
2, 39480, Note_on_c, 9, 42, 100
2, 39495, Note_on_c, 9, 42, 0
2, 39600, Note_on_c, 9, 42, 100
2, 39600, Note_on_c, 9, 38, 90
2, 39615, Note_on_c, 9, 38, 0
2, 39615, Note_on_c, 9, 42, 0
2, 39720, Note_on_c, 9, 42, 100
2, 39735, Note_on_c, 9, 42, 0
2, 39840, Note_on_c, 9, 42, 100
2, 39840, Note_on_c, 9, 36, 69
2, 39855, Note_on_c, 9, 36, 0
2, 39855, Note_on_c, 9, 42, 0
2, 39960, Note_on_c, 9, 42, 100
2, 39975, Note_on_c, 9, 42, 0
2, 40080, Note_on_c, 9, 38, 90
2, 40080, Note_on_c, 9, 42, 100
2, 40095, Note_on_c, 9, 42, 0
2, 40095, Note_on_c, 9, 38, 0
2, 40200, Note_on_c, 9, 42, 100
2, 40200, Note_on_c, 9, 36, 69
2, 40215, Note_on_c, 9, 36, 0
2, 40215, Note_on_c, 9, 42, 0
2, 40320, Note_on_c, 9, 42, 100
2, 40320, Note_on_c, 9, 36, 69
2, 40335, Note_on_c, 9, 36, 0
2, 40335, Note_on_c, 9, 42, 0
2, 40440, Note_on_c, 9, 42, 100
2, 40455, Note_on_c, 9, 42, 0
2, 40560, Note_on_c, 9, 42, 100
2, 40560, Note_on_c, 9, 38, 90
2, 40575, Note_on_c, 9, 38, 0
2, 40575, Note_on_c, 9, 42, 0
2, 40680, Note_on_c, 9, 42, 100
2, 40695, Note_on_c, 9, 42, 0
2, 40800, Note_on_c, 9, 42, 100
2, 40800, Note_on_c, 9, 36, 69
2, 40815, Note_on_c, 9, 36, 0
2, 40815, Note_on_c, 9, 42, 0
2, 40920, Note_on_c, 9, 42, 100
2, 40935, Note_on_c, 9, 42, 0
2, 41040, Note_on_c, 9, 38, 90
2, 41040, Note_on_c, 9, 42, 100
2, 41055, Note_on_c, 9, 42, 0
2, 41055, Note_on_c, 9, 38, 0
2, 41160, Note_on_c, 9, 42, 100
2, 41160, Note_on_c, 9, 36, 69
2, 41175, Note_on_c, 9, 36, 0
2, 41175, Note_on_c, 9, 42, 0
2, 41280, Note_on_c, 9, 42, 100
2, 41280, Note_on_c, 9, 36, 69
2, 41295, Note_on_c, 9, 36, 0
2, 41295, Note_on_c, 9, 42, 0
2, 41400, Note_on_c, 9, 42, 100
2, 41415, Note_on_c, 9, 42, 0
2, 41520, Note_on_c, 9, 42, 100
2, 41520, Note_on_c, 9, 38, 90
2, 41535, Note_on_c, 9, 38, 0
2, 41535, Note_on_c, 9, 42, 0
2, 41640, Note_on_c, 9, 42, 100
2, 41655, Note_on_c, 9, 42, 0
2, 41760, Note_on_c, 9, 42, 100
2, 41760, Note_on_c, 9, 36, 69
2, 41775, Note_on_c, 9, 36, 0
2, 41775, Note_on_c, 9, 42, 0
2, 41880, Note_on_c, 9, 42, 100
2, 41895, Note_on_c, 9, 42, 0
2, 42000, Note_on_c, 9, 38, 90
2, 42000, Note_on_c, 9, 42, 100
2, 42015, Note_on_c, 9, 42, 0
2, 42015, Note_on_c, 9, 38, 0
2, 42120, Note_on_c, 9, 42, 100
2, 42120, Note_on_c, 9, 36, 69
2, 42135, Note_on_c, 9, 36, 0
2, 42135, Note_on_c, 9, 42, 0
2, 42240, Note_on_c, 9, 42, 100
2, 42240, Note_on_c, 9, 36, 69
2, 42255, Note_on_c, 9, 36, 0
2, 42255, Note_on_c, 9, 42, 0
2, 42360, Note_on_c, 9, 42, 100
2, 42375, Note_on_c, 9, 42, 0
2, 42480, Note_on_c, 9, 42, 100
2, 42480, Note_on_c, 9, 38, 90
2, 42495, Note_on_c, 9, 38, 0
2, 42495, Note_on_c, 9, 42, 0
2, 42600, Note_on_c, 9, 42, 100
2, 42615, Note_on_c, 9, 42, 0
2, 42720, Note_on_c, 9, 42, 100
2, 42720, Note_on_c, 9, 36, 69
2, 42735, Note_on_c, 9, 36, 0
2, 42735, Note_on_c, 9, 42, 0
2, 42840, Note_on_c, 9, 42, 100
2, 42855, Note_on_c, 9, 42, 0
2, 42960, Note_on_c, 9, 38, 90
2, 42960, Note_on_c, 9, 42, 100
2, 42975, Note_on_c, 9, 42, 0
2, 42975, Note_on_c, 9, 38, 0
2, 43080, Note_on_c, 9, 42, 100
2, 43080, Note_on_c, 9, 36, 69
2, 43095, Note_on_c, 9, 36, 0
2, 43095, Note_on_c, 9, 42, 0
2, 43200, Note_on_c, 9, 42, 100
2, 43200, Note_on_c, 9, 36, 69
2, 43215, Note_on_c, 9, 36, 0
2, 43215, Note_on_c, 9, 42, 0
2, 43320, Note_on_c, 9, 42, 100
2, 43335, Note_on_c, 9, 42, 0
2, 43440, Note_on_c, 9, 42, 100
2, 43440, Note_on_c, 9, 38, 90
2, 43455, Note_on_c, 9, 38, 0
2, 43455, Note_on_c, 9, 42, 0
2, 43560, Note_on_c, 9, 42, 100
2, 43575, Note_on_c, 9, 42, 0
2, 43680, Note_on_c, 9, 42, 100
2, 43680, Note_on_c, 9, 36, 69
2, 43695, Note_on_c, 9, 36, 0
2, 43695, Note_on_c, 9, 42, 0
2, 43800, Note_on_c, 9, 42, 100
2, 43815, Note_on_c, 9, 42, 0
2, 43920, Note_on_c, 9, 38, 90
2, 43920, Note_on_c, 9, 42, 100
2, 43935, Note_on_c, 9, 42, 0
2, 43935, Note_on_c, 9, 38, 0
2, 44040, Note_on_c, 9, 42, 100
2, 44040, Note_on_c, 9, 36, 69
2, 44055, Note_on_c, 9, 36, 0
2, 44055, Note_on_c, 9, 42, 0
2, 44160, Note_on_c, 9, 42, 100
2, 44160, Note_on_c, 9, 36, 69
2, 44175, Note_on_c, 9, 36, 0
2, 44175, Note_on_c, 9, 42, 0
2, 44280, Note_on_c, 9, 42, 100
2, 44295, Note_on_c, 9, 42, 0
2, 44400, Note_on_c, 9, 42, 100
2, 44400, Note_on_c, 9, 38, 90
2, 44415, Note_on_c, 9, 38, 0
2, 44415, Note_on_c, 9, 42, 0
2, 44520, Note_on_c, 9, 42, 100
2, 44535, Note_on_c, 9, 42, 0
2, 44640, Note_on_c, 9, 42, 100
2, 44640, Note_on_c, 9, 36, 69
2, 44655, Note_on_c, 9, 36, 0
2, 44655, Note_on_c, 9, 42, 0
2, 44760, Note_on_c, 9, 42, 100
2, 44775, Note_on_c, 9, 42, 0
2, 44880, Note_on_c, 9, 38, 90
2, 44880, Note_on_c, 9, 42, 100
2, 44895, Note_on_c, 9, 42, 0
2, 44895, Note_on_c, 9, 38, 0
2, 45000, Note_on_c, 9, 42, 100
2, 45000, Note_on_c, 9, 36, 69
2, 45015, Note_on_c, 9, 36, 0
2, 45015, Note_on_c, 9, 42, 0
2, 45120, Note_on_c, 9, 42, 100
2, 45120, Note_on_c, 9, 36, 69
2, 45135, Note_on_c, 9, 36, 0
2, 45135, Note_on_c, 9, 42, 0
2, 45240, Note_on_c, 9, 42, 100
2, 45255, Note_on_c, 9, 42, 0
2, 45360, Note_on_c, 9, 42, 100
2, 45360, Note_on_c, 9, 38, 90
2, 45375, Note_on_c, 9, 38, 0
2, 45375, Note_on_c, 9, 42, 0
2, 45480, Note_on_c, 9, 42, 100
2, 45495, Note_on_c, 9, 42, 0
2, 45600, Note_on_c, 9, 42, 100
2, 45600, Note_on_c, 9, 36, 69
2, 45615, Note_on_c, 9, 36, 0
2, 45615, Note_on_c, 9, 42, 0
2, 45720, Note_on_c, 9, 42, 100
2, 45735, Note_on_c, 9, 42, 0
2, 45840, Note_on_c, 9, 38, 90
2, 45840, Note_on_c, 9, 42, 100
2, 45855, Note_on_c, 9, 42, 0
2, 45855, Note_on_c, 9, 38, 0
2, 45960, Note_on_c, 9, 42, 100
2, 45960, Note_on_c, 9, 36, 69
2, 45975, Note_on_c, 9, 36, 0
2, 45975, Note_on_c, 9, 42, 0
2, 46080, Note_on_c, 9, 42, 100
2, 46080, Note_on_c, 9, 36, 69
2, 46095, Note_on_c, 9, 36, 0
2, 46095, Note_on_c, 9, 42, 0
2, 46200, Note_on_c, 9, 42, 100
2, 46215, Note_on_c, 9, 42, 0
2, 46320, Note_on_c, 9, 42, 100
2, 46320, Note_on_c, 9, 38, 90
2, 46335, Note_on_c, 9, 38, 0
2, 46335, Note_on_c, 9, 42, 0
2, 46440, Note_on_c, 9, 42, 100
2, 46455, Note_on_c, 9, 42, 0
2, 46560, Note_on_c, 9, 42, 100
2, 46560, Note_on_c, 9, 36, 69
2, 46575, Note_on_c, 9, 36, 0
2, 46575, Note_on_c, 9, 42, 0
2, 46680, Note_on_c, 9, 42, 100
2, 46695, Note_on_c, 9, 42, 0
2, 46800, Note_on_c, 9, 38, 90
2, 46800, Note_on_c, 9, 42, 100
2, 46815, Note_on_c, 9, 42, 0
2, 46815, Note_on_c, 9, 38, 0
2, 46920, Note_on_c, 9, 42, 100
2, 46920, Note_on_c, 9, 36, 69
2, 46935, Note_on_c, 9, 36, 0
2, 46935, Note_on_c, 9, 42, 0
2, 47040, Note_on_c, 9, 42, 100
2, 47040, Note_on_c, 9, 36, 69
2, 47055, Note_on_c, 9, 36, 0
2, 47055, Note_on_c, 9, 42, 0
2, 47160, Note_on_c, 9, 42, 100
2, 47175, Note_on_c, 9, 42, 0
2, 47280, Note_on_c, 9, 42, 100
2, 47280, Note_on_c, 9, 38, 90
2, 47295, Note_on_c, 9, 38, 0
2, 47295, Note_on_c, 9, 42, 0
2, 47400, Note_on_c, 9, 42, 100
2, 47415, Note_on_c, 9, 42, 0
2, 47520, Note_on_c, 9, 42, 100
2, 47520, Note_on_c, 9, 36, 69
2, 47535, Note_on_c, 9, 36, 0
2, 47535, Note_on_c, 9, 42, 0
2, 47640, Note_on_c, 9, 42, 100
2, 47655, Note_on_c, 9, 42, 0
2, 47760, Note_on_c, 9, 38, 90
2, 47760, Note_on_c, 9, 42, 100
2, 47775, Note_on_c, 9, 42, 0
2, 47775, Note_on_c, 9, 38, 0
2, 47880, Note_on_c, 9, 42, 100
2, 47880, Note_on_c, 9, 36, 69
2, 47895, Note_on_c, 9, 36, 0
2, 47895, Note_on_c, 9, 42, 0
2, 48000, Note_on_c, 9, 42, 100
2, 48000, Note_on_c, 9, 36, 69
2, 48015, Note_on_c, 9, 36, 0
2, 48015, Note_on_c, 9, 42, 0
2, 48120, Note_on_c, 9, 42, 100
2, 48135, Note_on_c, 9, 42, 0
2, 48240, Note_on_c, 9, 42, 100
2, 48240, Note_on_c, 9, 38, 90
2, 48255, Note_on_c, 9, 38, 0
2, 48255, Note_on_c, 9, 42, 0
2, 48360, Note_on_c, 9, 42, 100
2, 48375, Note_on_c, 9, 42, 0
2, 48480, Note_on_c, 9, 42, 100
2, 48480, Note_on_c, 9, 36, 69
2, 48495, Note_on_c, 9, 36, 0
2, 48495, Note_on_c, 9, 42, 0
2, 48600, Note_on_c, 9, 42, 100
2, 48615, Note_on_c, 9, 42, 0
2, 48720, Note_on_c, 9, 38, 90
2, 48720, Note_on_c, 9, 42, 100
2, 48735, Note_on_c, 9, 42, 0
2, 48735, Note_on_c, 9, 38, 0
2, 48840, Note_on_c, 9, 42, 100
2, 48840, Note_on_c, 9, 36, 69
2, 48855, Note_on_c, 9, 36, 0
2, 48855, Note_on_c, 9, 42, 0
2, 48960, Note_on_c, 9, 42, 100
2, 48960, Note_on_c, 9, 36, 69
2, 48975, Note_on_c, 9, 36, 0
2, 48975, Note_on_c, 9, 42, 0
2, 49080, Note_on_c, 9, 42, 100
2, 49095, Note_on_c, 9, 42, 0
2, 49200, Note_on_c, 9, 42, 100
2, 49200, Note_on_c, 9, 38, 90
2, 49215, Note_on_c, 9, 38, 0
2, 49215, Note_on_c, 9, 42, 0
2, 49320, Note_on_c, 9, 42, 100
2, 49335, Note_on_c, 9, 42, 0
2, 49440, Note_on_c, 9, 42, 100
2, 49440, Note_on_c, 9, 36, 69
2, 49455, Note_on_c, 9, 36, 0
2, 49455, Note_on_c, 9, 42, 0
2, 49560, Note_on_c, 9, 42, 100
2, 49575, Note_on_c, 9, 42, 0
2, 49680, Note_on_c, 9, 38, 90
2, 49680, Note_on_c, 9, 42, 100
2, 49695, Note_on_c, 9, 42, 0
2, 49695, Note_on_c, 9, 38, 0
2, 49800, Note_on_c, 9, 42, 100
2, 49800, Note_on_c, 9, 36, 69
2, 49815, Note_on_c, 9, 36, 0
2, 49815, Note_on_c, 9, 42, 0
2, 49920, Note_on_c, 9, 42, 100
2, 49920, Note_on_c, 9, 36, 69
2, 49935, Note_on_c, 9, 36, 0
2, 49935, Note_on_c, 9, 42, 0
2, 50040, Note_on_c, 9, 42, 100
2, 50055, Note_on_c, 9, 42, 0
2, 50160, Note_on_c, 9, 42, 100
2, 50160, Note_on_c, 9, 38, 90
2, 50175, Note_on_c, 9, 38, 0
2, 50175, Note_on_c, 9, 42, 0
2, 50280, Note_on_c, 9, 42, 100
2, 50295, Note_on_c, 9, 42, 0
2, 50400, Note_on_c, 9, 42, 100
2, 50400, Note_on_c, 9, 36, 69
2, 50415, Note_on_c, 9, 36, 0
2, 50415, Note_on_c, 9, 42, 0
2, 50520, Note_on_c, 9, 42, 100
2, 50535, Note_on_c, 9, 42, 0
2, 50640, Note_on_c, 9, 38, 90
2, 50640, Note_on_c, 9, 42, 100
2, 50655, Note_on_c, 9, 42, 0
2, 50655, Note_on_c, 9, 38, 0
2, 50760, Note_on_c, 9, 42, 100
2, 50760, Note_on_c, 9, 36, 69
2, 50775, Note_on_c, 9, 36, 0
2, 50775, Note_on_c, 9, 42, 0
2, 50880, Note_on_c, 9, 42, 100
2, 50880, Note_on_c, 9, 36, 69
2, 50895, Note_on_c, 9, 36, 0
2, 50895, Note_on_c, 9, 42, 0
2, 51000, Note_on_c, 9, 42, 100
2, 51015, Note_on_c, 9, 42, 0
2, 51120, Note_on_c, 9, 42, 100
2, 51120, Note_on_c, 9, 38, 90
2, 51135, Note_on_c, 9, 38, 0
2, 51135, Note_on_c, 9, 42, 0
2, 51240, Note_on_c, 9, 42, 100
2, 51255, Note_on_c, 9, 42, 0
2, 51360, Note_on_c, 9, 42, 100
2, 51360, Note_on_c, 9, 36, 69
2, 51375, Note_on_c, 9, 36, 0
2, 51375, Note_on_c, 9, 42, 0
2, 51480, Note_on_c, 9, 42, 100
2, 51495, Note_on_c, 9, 42, 0
2, 51600, Note_on_c, 9, 38, 90
2, 51600, Note_on_c, 9, 42, 100
2, 51615, Note_on_c, 9, 42, 0
2, 51615, Note_on_c, 9, 38, 0
2, 51720, Note_on_c, 9, 42, 100
2, 51720, Note_on_c, 9, 36, 69
2, 51735, Note_on_c, 9, 36, 0
2, 51735, Note_on_c, 9, 42, 0
2, 51840, Note_on_c, 9, 42, 100
2, 51840, Note_on_c, 9, 36, 69
2, 51855, Note_on_c, 9, 36, 0
2, 51855, Note_on_c, 9, 42, 0
2, 51960, Note_on_c, 9, 42, 100
2, 51975, Note_on_c, 9, 42, 0
2, 52080, Note_on_c, 9, 42, 100
2, 52080, Note_on_c, 9, 38, 90
2, 52095, Note_on_c, 9, 38, 0
2, 52095, Note_on_c, 9, 42, 0
2, 52200, Note_on_c, 9, 42, 100
2, 52215, Note_on_c, 9, 42, 0
2, 52320, Note_on_c, 9, 42, 100
2, 52320, Note_on_c, 9, 36, 69
2, 52335, Note_on_c, 9, 36, 0
2, 52335, Note_on_c, 9, 42, 0
2, 52440, Note_on_c, 9, 42, 100
2, 52455, Note_on_c, 9, 42, 0
2, 52560, Note_on_c, 9, 38, 90
2, 52560, Note_on_c, 9, 42, 100
2, 52575, Note_on_c, 9, 42, 0
2, 52575, Note_on_c, 9, 38, 0
2, 52680, Note_on_c, 9, 42, 100
2, 52680, Note_on_c, 9, 36, 69
2, 52695, Note_on_c, 9, 36, 0
2, 52695, Note_on_c, 9, 42, 0
2, 52800, Note_on_c, 9, 42, 100
2, 52800, Note_on_c, 9, 36, 69
2, 52815, Note_on_c, 9, 36, 0
2, 52815, Note_on_c, 9, 42, 0
2, 52920, Note_on_c, 9, 42, 100
2, 52935, Note_on_c, 9, 42, 0
2, 53040, Note_on_c, 9, 42, 100
2, 53040, Note_on_c, 9, 38, 90
2, 53055, Note_on_c, 9, 38, 0
2, 53055, Note_on_c, 9, 42, 0
2, 53160, Note_on_c, 9, 42, 100
2, 53175, Note_on_c, 9, 42, 0
2, 53280, Note_on_c, 9, 42, 100
2, 53280, Note_on_c, 9, 36, 69
2, 53295, Note_on_c, 9, 36, 0
2, 53295, Note_on_c, 9, 42, 0
2, 53400, Note_on_c, 9, 42, 100
2, 53415, Note_on_c, 9, 42, 0
2, 53520, Note_on_c, 9, 38, 90
2, 53520, Note_on_c, 9, 42, 100
2, 53535, Note_on_c, 9, 42, 0
2, 53535, Note_on_c, 9, 38, 0
2, 53640, Note_on_c, 9, 42, 100
2, 53640, Note_on_c, 9, 36, 69
2, 53655, Note_on_c, 9, 36, 0
2, 53655, Note_on_c, 9, 42, 0
2, 53760, Note_on_c, 9, 42, 100
2, 53760, Note_on_c, 9, 36, 69
2, 53775, Note_on_c, 9, 36, 0
2, 53775, Note_on_c, 9, 42, 0
2, 53880, Note_on_c, 9, 42, 100
2, 53895, Note_on_c, 9, 42, 0
2, 54000, Note_on_c, 9, 42, 100
2, 54000, Note_on_c, 9, 38, 90
2, 54015, Note_on_c, 9, 38, 0
2, 54015, Note_on_c, 9, 42, 0
2, 54120, Note_on_c, 9, 42, 100
2, 54135, Note_on_c, 9, 42, 0
2, 54240, Note_on_c, 9, 42, 100
2, 54240, Note_on_c, 9, 36, 69
2, 54255, Note_on_c, 9, 36, 0
2, 54255, Note_on_c, 9, 42, 0
2, 54360, Note_on_c, 9, 42, 100
2, 54375, Note_on_c, 9, 42, 0
2, 54480, Note_on_c, 9, 38, 90
2, 54480, Note_on_c, 9, 42, 100
2, 54495, Note_on_c, 9, 42, 0
2, 54495, Note_on_c, 9, 38, 0
2, 54600, Note_on_c, 9, 42, 100
2, 54600, Note_on_c, 9, 36, 69
2, 54615, Note_on_c, 9, 36, 0
2, 54615, Note_on_c, 9, 42, 0
2, 54720, Note_on_c, 9, 42, 100
2, 54720, Note_on_c, 9, 36, 69
2, 54735, Note_on_c, 9, 36, 0
2, 54735, Note_on_c, 9, 42, 0
2, 54840, Note_on_c, 9, 42, 100
2, 54855, Note_on_c, 9, 42, 0
2, 54960, Note_on_c, 9, 42, 100
2, 54960, Note_on_c, 9, 38, 90
2, 54975, Note_on_c, 9, 38, 0
2, 54975, Note_on_c, 9, 42, 0
2, 55080, Note_on_c, 9, 42, 100
2, 55095, Note_on_c, 9, 42, 0
2, 55200, Note_on_c, 9, 42, 100
2, 55200, Note_on_c, 9, 36, 69
2, 55215, Note_on_c, 9, 36, 0
2, 55215, Note_on_c, 9, 42, 0
2, 55320, Note_on_c, 9, 42, 100
2, 55335, Note_on_c, 9, 42, 0
2, 55440, Note_on_c, 9, 38, 90
2, 55440, Note_on_c, 9, 42, 100
2, 55455, Note_on_c, 9, 42, 0
2, 55455, Note_on_c, 9, 38, 0
2, 55560, Note_on_c, 9, 42, 100
2, 55560, Note_on_c, 9, 36, 69
2, 55575, Note_on_c, 9, 36, 0
2, 55575, Note_on_c, 9, 42, 0
2, 55680, Note_on_c, 9, 42, 100
2, 55680, Note_on_c, 9, 36, 69
2, 55695, Note_on_c, 9, 36, 0
2, 55695, Note_on_c, 9, 42, 0
2, 55800, Note_on_c, 9, 42, 100
2, 55815, Note_on_c, 9, 42, 0
2, 55920, Note_on_c, 9, 42, 100
2, 55920, Note_on_c, 9, 38, 90
2, 55935, Note_on_c, 9, 38, 0
2, 55935, Note_on_c, 9, 42, 0
2, 56040, Note_on_c, 9, 42, 100
2, 56055, Note_on_c, 9, 42, 0
2, 56160, Note_on_c, 9, 42, 100
2, 56160, Note_on_c, 9, 36, 69
2, 56175, Note_on_c, 9, 36, 0
2, 56175, Note_on_c, 9, 42, 0
2, 56280, Note_on_c, 9, 42, 100
2, 56295, Note_on_c, 9, 42, 0
2, 56400, Note_on_c, 9, 38, 90
2, 56400, Note_on_c, 9, 42, 100
2, 56415, Note_on_c, 9, 42, 0
2, 56415, Note_on_c, 9, 38, 0
2, 56520, Note_on_c, 9, 42, 100
2, 56520, Note_on_c, 9, 36, 69
2, 56535, Note_on_c, 9, 36, 0
2, 56535, Note_on_c, 9, 42, 0
2, 56640, Note_on_c, 9, 42, 100
2, 56640, Note_on_c, 9, 36, 69
2, 56655, Note_on_c, 9, 36, 0
2, 56655, Note_on_c, 9, 42, 0
2, 56760, Note_on_c, 9, 42, 100
2, 56775, Note_on_c, 9, 42, 0
2, 56880, Note_on_c, 9, 42, 100
2, 56880, Note_on_c, 9, 38, 90
2, 56895, Note_on_c, 9, 38, 0
2, 56895, Note_on_c, 9, 42, 0
2, 57000, Note_on_c, 9, 42, 100
2, 57015, Note_on_c, 9, 42, 0
2, 57120, Note_on_c, 9, 42, 100
2, 57120, Note_on_c, 9, 36, 69
2, 57135, Note_on_c, 9, 36, 0
2, 57135, Note_on_c, 9, 42, 0
2, 57240, Note_on_c, 9, 42, 100
2, 57255, Note_on_c, 9, 42, 0
2, 57360, Note_on_c, 9, 38, 90
2, 57360, Note_on_c, 9, 42, 100
2, 57375, Note_on_c, 9, 42, 0
2, 57375, Note_on_c, 9, 38, 0
2, 57480, Note_on_c, 9, 42, 100
2, 57480, Note_on_c, 9, 36, 69
2, 57495, Note_on_c, 9, 36, 0
2, 57495, Note_on_c, 9, 42, 0
2, 57600, Note_on_c, 9, 42, 100
2, 57600, Note_on_c, 9, 36, 69
2, 57615, Note_on_c, 9, 36, 0
2, 57615, Note_on_c, 9, 42, 0
2, 57720, Note_on_c, 9, 42, 100
2, 57735, Note_on_c, 9, 42, 0
2, 57840, Note_on_c, 9, 42, 100
2, 57840, Note_on_c, 9, 38, 90
2, 57855, Note_on_c, 9, 38, 0
2, 57855, Note_on_c, 9, 42, 0
2, 57960, Note_on_c, 9, 42, 100
2, 57975, Note_on_c, 9, 42, 0
2, 58080, Note_on_c, 9, 42, 100
2, 58080, Note_on_c, 9, 36, 69
2, 58095, Note_on_c, 9, 36, 0
2, 58095, Note_on_c, 9, 42, 0
2, 58200, Note_on_c, 9, 42, 100
2, 58215, Note_on_c, 9, 42, 0
2, 58320, Note_on_c, 9, 38, 90
2, 58320, Note_on_c, 9, 42, 100
2, 58335, Note_on_c, 9, 42, 0
2, 58335, Note_on_c, 9, 38, 0
2, 58440, Note_on_c, 9, 42, 100
2, 58440, Note_on_c, 9, 36, 69
2, 58455, Note_on_c, 9, 36, 0
2, 58455, Note_on_c, 9, 42, 0
2, 58560, Note_on_c, 9, 42, 100
2, 58560, Note_on_c, 9, 36, 69
2, 58575, Note_on_c, 9, 36, 0
2, 58575, Note_on_c, 9, 42, 0
2, 58680, Note_on_c, 9, 42, 100
2, 58695, Note_on_c, 9, 42, 0
2, 58800, Note_on_c, 9, 42, 100
2, 58800, Note_on_c, 9, 38, 90
2, 58815, Note_on_c, 9, 38, 0
2, 58815, Note_on_c, 9, 42, 0
2, 58920, Note_on_c, 9, 42, 100
2, 58935, Note_on_c, 9, 42, 0
2, 59040, Note_on_c, 9, 42, 100
2, 59040, Note_on_c, 9, 36, 69
2, 59055, Note_on_c, 9, 36, 0
2, 59055, Note_on_c, 9, 42, 0
2, 59160, Note_on_c, 9, 42, 100
2, 59175, Note_on_c, 9, 42, 0
2, 59280, Note_on_c, 9, 38, 90
2, 59280, Note_on_c, 9, 42, 100
2, 59295, Note_on_c, 9, 42, 0
2, 59295, Note_on_c, 9, 38, 0
2, 59400, Note_on_c, 9, 42, 100
2, 59400, Note_on_c, 9, 36, 69
2, 59415, Note_on_c, 9, 36, 0
2, 59415, Note_on_c, 9, 42, 0
2, 59520, Note_on_c, 9, 42, 100
2, 59520, Note_on_c, 9, 36, 69
2, 59535, Note_on_c, 9, 36, 0
2, 59535, Note_on_c, 9, 42, 0
2, 59640, Note_on_c, 9, 42, 100
2, 59655, Note_on_c, 9, 42, 0
2, 59760, Note_on_c, 9, 42, 100
2, 59760, Note_on_c, 9, 38, 90
2, 59775, Note_on_c, 9, 38, 0
2, 59775, Note_on_c, 9, 42, 0
2, 59880, Note_on_c, 9, 42, 100
2, 59895, Note_on_c, 9, 42, 0
2, 60000, Note_on_c, 9, 42, 100
2, 60000, Note_on_c, 9, 36, 69
2, 60015, Note_on_c, 9, 36, 0
2, 60015, Note_on_c, 9, 42, 0
2, 60120, Note_on_c, 9, 42, 100
2, 60135, Note_on_c, 9, 42, 0
2, 60240, Note_on_c, 9, 38, 90
2, 60240, Note_on_c, 9, 42, 100
2, 60255, Note_on_c, 9, 42, 0
2, 60255, Note_on_c, 9, 38, 0
2, 60360, Note_on_c, 9, 42, 100
2, 60360, Note_on_c, 9, 36, 69
2, 60375, Note_on_c, 9, 36, 0
2, 60375, Note_on_c, 9, 42, 0
2, 60480, Note_on_c, 9, 42, 100
2, 60480, Note_on_c, 9, 36, 69
2, 60495, Note_on_c, 9, 36, 0
2, 60495, Note_on_c, 9, 42, 0
2, 60600, Note_on_c, 9, 42, 100
2, 60615, Note_on_c, 9, 42, 0
2, 60720, Note_on_c, 9, 42, 100
2, 60720, Note_on_c, 9, 38, 90
2, 60735, Note_on_c, 9, 38, 0
2, 60735, Note_on_c, 9, 42, 0
2, 60840, Note_on_c, 9, 42, 100
2, 60855, Note_on_c, 9, 42, 0
2, 60960, Note_on_c, 9, 42, 100
2, 60960, Note_on_c, 9, 36, 69
2, 60975, Note_on_c, 9, 36, 0
2, 60975, Note_on_c, 9, 42, 0
2, 61080, Note_on_c, 9, 42, 100
2, 61095, Note_on_c, 9, 42, 0
2, 61200, Note_on_c, 9, 38, 90
2, 61200, Note_on_c, 9, 42, 100
2, 61215, Note_on_c, 9, 42, 0
2, 61215, Note_on_c, 9, 38, 0
2, 61320, Note_on_c, 9, 42, 100
2, 61320, Note_on_c, 9, 36, 69
2, 61335, Note_on_c, 9, 36, 0
2, 61335, Note_on_c, 9, 42, 0
2, 61440, Note_on_c, 9, 42, 100
2, 61440, Note_on_c, 9, 36, 69
2, 61455, Note_on_c, 9, 36, 0
2, 61455, Note_on_c, 9, 42, 0
2, 61560, Note_on_c, 9, 42, 100
2, 61575, Note_on_c, 9, 42, 0
2, 61680, Note_on_c, 9, 42, 100
2, 61680, Note_on_c, 9, 38, 90
2, 61695, Note_on_c, 9, 38, 0
2, 61695, Note_on_c, 9, 42, 0
2, 61800, Note_on_c, 9, 42, 100
2, 61815, Note_on_c, 9, 42, 0
2, 61920, Note_on_c, 9, 42, 100
2, 61920, Note_on_c, 9, 36, 69
2, 61935, Note_on_c, 9, 36, 0
2, 61935, Note_on_c, 9, 42, 0
2, 62040, Note_on_c, 9, 42, 100
2, 62055, Note_on_c, 9, 42, 0
2, 62160, Note_on_c, 9, 38, 90
2, 62160, Note_on_c, 9, 42, 100
2, 62175, Note_on_c, 9, 42, 0
2, 62175, Note_on_c, 9, 38, 0
2, 62280, Note_on_c, 9, 42, 100
2, 62280, Note_on_c, 9, 36, 69
2, 62295, Note_on_c, 9, 36, 0
2, 62295, Note_on_c, 9, 42, 0
2, 62400, Note_on_c, 9, 42, 100
2, 62400, Note_on_c, 9, 36, 69
2, 62415, Note_on_c, 9, 36, 0
2, 62415, Note_on_c, 9, 42, 0
2, 62520, Note_on_c, 9, 42, 100
2, 62535, Note_on_c, 9, 42, 0
2, 62640, Note_on_c, 9, 42, 100
2, 62640, Note_on_c, 9, 38, 90
2, 62655, Note_on_c, 9, 38, 0
2, 62655, Note_on_c, 9, 42, 0
2, 62760, Note_on_c, 9, 42, 100
2, 62775, Note_on_c, 9, 42, 0
2, 62880, Note_on_c, 9, 42, 100
2, 62880, Note_on_c, 9, 36, 69
2, 62895, Note_on_c, 9, 36, 0
2, 62895, Note_on_c, 9, 42, 0
2, 63000, Note_on_c, 9, 42, 100
2, 63015, Note_on_c, 9, 42, 0
2, 63120, Note_on_c, 9, 38, 90
2, 63120, Note_on_c, 9, 42, 100
2, 63135, Note_on_c, 9, 42, 0
2, 63135, Note_on_c, 9, 38, 0
2, 63240, Note_on_c, 9, 42, 100
2, 63240, Note_on_c, 9, 36, 69
2, 63255, Note_on_c, 9, 36, 0
2, 63255, Note_on_c, 9, 42, 0
2, 63360, Note_on_c, 9, 42, 100
2, 63360, Note_on_c, 9, 36, 69
2, 63375, Note_on_c, 9, 36, 0
2, 63375, Note_on_c, 9, 42, 0
2, 63480, Note_on_c, 9, 42, 100
2, 63495, Note_on_c, 9, 42, 0
2, 63600, Note_on_c, 9, 42, 100
2, 63600, Note_on_c, 9, 38, 90
2, 63615, Note_on_c, 9, 38, 0
2, 63615, Note_on_c, 9, 42, 0
2, 63720, Note_on_c, 9, 42, 100
2, 63735, Note_on_c, 9, 42, 0
2, 63840, Note_on_c, 9, 42, 100
2, 63840, Note_on_c, 9, 36, 69
2, 63855, Note_on_c, 9, 36, 0
2, 63855, Note_on_c, 9, 42, 0
2, 63960, Note_on_c, 9, 42, 100
2, 63975, Note_on_c, 9, 42, 0
2, 64080, Note_on_c, 9, 38, 90
2, 64080, Note_on_c, 9, 42, 100
2, 64095, Note_on_c, 9, 42, 0
2, 64095, Note_on_c, 9, 38, 0
2, 64200, Note_on_c, 9, 42, 100
2, 64200, Note_on_c, 9, 36, 69
2, 64215, Note_on_c, 9, 36, 0
2, 64215, Note_on_c, 9, 42, 0
2, 64320, Note_on_c, 9, 42, 100
2, 64320, Note_on_c, 9, 36, 69
2, 64335, Note_on_c, 9, 36, 0
2, 64335, Note_on_c, 9, 42, 0
2, 64440, Note_on_c, 9, 42, 100
2, 64455, Note_on_c, 9, 42, 0
2, 64560, Note_on_c, 9, 42, 100
2, 64560, Note_on_c, 9, 38, 90
2, 64575, Note_on_c, 9, 38, 0
2, 64575, Note_on_c, 9, 42, 0
2, 64680, Note_on_c, 9, 42, 100
2, 64695, Note_on_c, 9, 42, 0
2, 64800, Note_on_c, 9, 42, 100
2, 64800, Note_on_c, 9, 36, 69
2, 64815, Note_on_c, 9, 36, 0
2, 64815, Note_on_c, 9, 42, 0
2, 64920, Note_on_c, 9, 42, 100
2, 64935, Note_on_c, 9, 42, 0
2, 65040, Note_on_c, 9, 38, 90
2, 65040, Note_on_c, 9, 42, 100
2, 65055, Note_on_c, 9, 42, 0
2, 65055, Note_on_c, 9, 38, 0
2, 65160, Note_on_c, 9, 42, 100
2, 65160, Note_on_c, 9, 36, 69
2, 65175, Note_on_c, 9, 36, 0
2, 65175, Note_on_c, 9, 42, 0
2, 65280, Note_on_c, 9, 42, 100
2, 65280, Note_on_c, 9, 36, 69
2, 65295, Note_on_c, 9, 36, 0
2, 65295, Note_on_c, 9, 42, 0
2, 65400, Note_on_c, 9, 42, 100
2, 65415, Note_on_c, 9, 42, 0
2, 65520, Note_on_c, 9, 42, 100
2, 65520, Note_on_c, 9, 38, 90
2, 65535, Note_on_c, 9, 38, 0
2, 65535, Note_on_c, 9, 42, 0
2, 65640, Note_on_c, 9, 42, 100
2, 65655, Note_on_c, 9, 42, 0
2, 65760, Note_on_c, 9, 42, 100
2, 65760, Note_on_c, 9, 36, 69
2, 65775, Note_on_c, 9, 36, 0
2, 65775, Note_on_c, 9, 42, 0
2, 65880, Note_on_c, 9, 42, 100
2, 65895, Note_on_c, 9, 42, 0
2, 66000, Note_on_c, 9, 38, 90
2, 66000, Note_on_c, 9, 42, 100
2, 66015, Note_on_c, 9, 42, 0
2, 66015, Note_on_c, 9, 38, 0
2, 66120, Note_on_c, 9, 42, 100
2, 66120, Note_on_c, 9, 36, 69
2, 66135, Note_on_c, 9, 36, 0
2, 66135, Note_on_c, 9, 42, 0
2, 66240, Note_on_c, 9, 42, 100
2, 66240, Note_on_c, 9, 36, 69
2, 66255, Note_on_c, 9, 36, 0
2, 66255, Note_on_c, 9, 42, 0
2, 66360, Note_on_c, 9, 42, 100
2, 66375, Note_on_c, 9, 42, 0
2, 66480, Note_on_c, 9, 42, 100
2, 66480, Note_on_c, 9, 38, 90
2, 66495, Note_on_c, 9, 38, 0
2, 66495, Note_on_c, 9, 42, 0
2, 66600, Note_on_c, 9, 42, 100
2, 66615, Note_on_c, 9, 42, 0
2, 66720, Note_on_c, 9, 42, 100
2, 66720, Note_on_c, 9, 36, 69
2, 66735, Note_on_c, 9, 36, 0
2, 66735, Note_on_c, 9, 42, 0
2, 66840, Note_on_c, 9, 42, 100
2, 66855, Note_on_c, 9, 42, 0
2, 66960, Note_on_c, 9, 38, 90
2, 66960, Note_on_c, 9, 42, 100
2, 66975, Note_on_c, 9, 42, 0
2, 66975, Note_on_c, 9, 38, 0
2, 67080, Note_on_c, 9, 42, 100
2, 67080, Note_on_c, 9, 36, 69
2, 67095, Note_on_c, 9, 36, 0
2, 67095, Note_on_c, 9, 42, 0
2, 67200, Note_on_c, 9, 42, 100
2, 67200, Note_on_c, 9, 36, 69
2, 67215, Note_on_c, 9, 36, 0
2, 67215, Note_on_c, 9, 42, 0
2, 67320, Note_on_c, 9, 42, 100
2, 67335, Note_on_c, 9, 42, 0
2, 67440, Note_on_c, 9, 42, 100
2, 67440, Note_on_c, 9, 38, 90
2, 67455, Note_on_c, 9, 38, 0
2, 67455, Note_on_c, 9, 42, 0
2, 67560, Note_on_c, 9, 42, 100
2, 67575, Note_on_c, 9, 42, 0
2, 67680, Note_on_c, 9, 42, 100
2, 67680, Note_on_c, 9, 36, 69
2, 67695, Note_on_c, 9, 36, 0
2, 67695, Note_on_c, 9, 42, 0
2, 67800, Note_on_c, 9, 42, 100
2, 67815, Note_on_c, 9, 42, 0
2, 67920, Note_on_c, 9, 38, 90
2, 67920, Note_on_c, 9, 42, 100
2, 67935, Note_on_c, 9, 42, 0
2, 67935, Note_on_c, 9, 38, 0
2, 68040, Note_on_c, 9, 42, 100
2, 68040, Note_on_c, 9, 36, 69
2, 68055, Note_on_c, 9, 36, 0
2, 68055, Note_on_c, 9, 42, 0
2, 68160, Note_on_c, 9, 42, 100
2, 68160, Note_on_c, 9, 36, 69
2, 68175, Note_on_c, 9, 36, 0
2, 68175, Note_on_c, 9, 42, 0
2, 68280, Note_on_c, 9, 42, 100
2, 68295, Note_on_c, 9, 42, 0
2, 68400, Note_on_c, 9, 42, 100
2, 68400, Note_on_c, 9, 38, 90
2, 68415, Note_on_c, 9, 38, 0
2, 68415, Note_on_c, 9, 42, 0
2, 68520, Note_on_c, 9, 42, 100
2, 68535, Note_on_c, 9, 42, 0
2, 68640, Note_on_c, 9, 42, 100
2, 68640, Note_on_c, 9, 36, 69
2, 68655, Note_on_c, 9, 36, 0
2, 68655, Note_on_c, 9, 42, 0
2, 68760, Note_on_c, 9, 42, 100
2, 68775, Note_on_c, 9, 42, 0
2, 68880, Note_on_c, 9, 38, 90
2, 68880, Note_on_c, 9, 42, 100
2, 68895, Note_on_c, 9, 42, 0
2, 68895, Note_on_c, 9, 38, 0
2, 69000, Note_on_c, 9, 42, 100
2, 69000, Note_on_c, 9, 36, 69
2, 69015, Note_on_c, 9, 36, 0
2, 69015, Note_on_c, 9, 42, 0
2, 69120, Note_on_c, 9, 42, 100
2, 69120, Note_on_c, 9, 36, 69
2, 69135, Note_on_c, 9, 36, 0
2, 69135, Note_on_c, 9, 42, 0
2, 69240, Note_on_c, 9, 42, 100
2, 69255, Note_on_c, 9, 42, 0
2, 69360, Note_on_c, 9, 42, 100
2, 69360, Note_on_c, 9, 38, 90
2, 69375, Note_on_c, 9, 38, 0
2, 69375, Note_on_c, 9, 42, 0
2, 69480, Note_on_c, 9, 42, 100
2, 69495, Note_on_c, 9, 42, 0
2, 69600, Note_on_c, 9, 42, 100
2, 69600, Note_on_c, 9, 36, 69
2, 69615, Note_on_c, 9, 36, 0
2, 69615, Note_on_c, 9, 42, 0
2, 69720, Note_on_c, 9, 42, 100
2, 69735, Note_on_c, 9, 42, 0
2, 69840, Note_on_c, 9, 38, 90
2, 69840, Note_on_c, 9, 42, 100
2, 69855, Note_on_c, 9, 42, 0
2, 69855, Note_on_c, 9, 38, 0
2, 69960, Note_on_c, 9, 42, 100
2, 69960, Note_on_c, 9, 36, 69
2, 69975, Note_on_c, 9, 36, 0
2, 69975, Note_on_c, 9, 42, 0
2, 70080, Note_on_c, 9, 42, 100
2, 70080, Note_on_c, 9, 36, 69
2, 70095, Note_on_c, 9, 36, 0
2, 70095, Note_on_c, 9, 42, 0
2, 70200, Note_on_c, 9, 42, 100
2, 70215, Note_on_c, 9, 42, 0
2, 70320, Note_on_c, 9, 42, 100
2, 70320, Note_on_c, 9, 38, 90
2, 70335, Note_on_c, 9, 38, 0
2, 70335, Note_on_c, 9, 42, 0
2, 70440, Note_on_c, 9, 42, 100
2, 70455, Note_on_c, 9, 42, 0
2, 70560, Note_on_c, 9, 42, 100
2, 70560, Note_on_c, 9, 36, 69
2, 70575, Note_on_c, 9, 36, 0
2, 70575, Note_on_c, 9, 42, 0
2, 70680, Note_on_c, 9, 42, 100
2, 70695, Note_on_c, 9, 42, 0
2, 70800, Note_on_c, 9, 38, 90
2, 70800, Note_on_c, 9, 42, 100
2, 70815, Note_on_c, 9, 42, 0
2, 70815, Note_on_c, 9, 38, 0
2, 70920, Note_on_c, 9, 42, 100
2, 70920, Note_on_c, 9, 36, 69
2, 70935, Note_on_c, 9, 36, 0
2, 70935, Note_on_c, 9, 42, 0
2, 71040, Note_on_c, 9, 42, 100
2, 71040, Note_on_c, 9, 36, 69
2, 71055, Note_on_c, 9, 36, 0
2, 71055, Note_on_c, 9, 42, 0
2, 71160, Note_on_c, 9, 42, 100
2, 71175, Note_on_c, 9, 42, 0
2, 71280, Note_on_c, 9, 42, 100
2, 71280, Note_on_c, 9, 38, 90
2, 71295, Note_on_c, 9, 38, 0
2, 71295, Note_on_c, 9, 42, 0
2, 71400, Note_on_c, 9, 42, 100
2, 71415, Note_on_c, 9, 42, 0
2, 71520, Note_on_c, 9, 42, 100
2, 71520, Note_on_c, 9, 36, 69
2, 71535, Note_on_c, 9, 36, 0
2, 71535, Note_on_c, 9, 42, 0
2, 71640, Note_on_c, 9, 42, 100
2, 71655, Note_on_c, 9, 42, 0
2, 71760, Note_on_c, 9, 38, 90
2, 71760, Note_on_c, 9, 42, 100
2, 71775, Note_on_c, 9, 42, 0
2, 71775, Note_on_c, 9, 38, 0
2, 71880, Note_on_c, 9, 42, 100
2, 71880, Note_on_c, 9, 36, 69
2, 71895, Note_on_c, 9, 36, 0
2, 71895, Note_on_c, 9, 42, 0
2, 72000, Note_on_c, 9, 42, 100
2, 72000, Note_on_c, 9, 36, 69
2, 72015, Note_on_c, 9, 36, 0
2, 72015, Note_on_c, 9, 42, 0
2, 72120, Note_on_c, 9, 42, 100
2, 72135, Note_on_c, 9, 42, 0
2, 72240, Note_on_c, 9, 42, 100
2, 72240, Note_on_c, 9, 38, 90
2, 72255, Note_on_c, 9, 38, 0
2, 72255, Note_on_c, 9, 42, 0
2, 72360, Note_on_c, 9, 42, 100
2, 72375, Note_on_c, 9, 42, 0
2, 72480, Note_on_c, 9, 42, 100
2, 72480, Note_on_c, 9, 36, 69
2, 72495, Note_on_c, 9, 36, 0
2, 72495, Note_on_c, 9, 42, 0
2, 72600, Note_on_c, 9, 42, 100
2, 72615, Note_on_c, 9, 42, 0
2, 72720, Note_on_c, 9, 38, 90
2, 72720, Note_on_c, 9, 42, 100
2, 72735, Note_on_c, 9, 42, 0
2, 72735, Note_on_c, 9, 38, 0
2, 72840, Note_on_c, 9, 42, 100
2, 72840, Note_on_c, 9, 36, 69
2, 72855, Note_on_c, 9, 36, 0
2, 72855, Note_on_c, 9, 42, 0
2, 72960, Note_on_c, 9, 42, 100
2, 72960, Note_on_c, 9, 36, 69
2, 72975, Note_on_c, 9, 36, 0
2, 72975, Note_on_c, 9, 42, 0
2, 73080, Note_on_c, 9, 42, 100
2, 73095, Note_on_c, 9, 42, 0
2, 73200, Note_on_c, 9, 42, 100
2, 73200, Note_on_c, 9, 38, 90
2, 73215, Note_on_c, 9, 38, 0
2, 73215, Note_on_c, 9, 42, 0
2, 73320, Note_on_c, 9, 42, 100
2, 73335, Note_on_c, 9, 42, 0
2, 73440, Note_on_c, 9, 42, 100
2, 73440, Note_on_c, 9, 36, 69
2, 73455, Note_on_c, 9, 36, 0
2, 73455, Note_on_c, 9, 42, 0
2, 73560, Note_on_c, 9, 42, 100
2, 73575, Note_on_c, 9, 42, 0
2, 73680, Note_on_c, 9, 38, 90
2, 73680, Note_on_c, 9, 42, 100
2, 73695, Note_on_c, 9, 42, 0
2, 73695, Note_on_c, 9, 38, 0
2, 73800, Note_on_c, 9, 42, 100
2, 73800, Note_on_c, 9, 36, 69
2, 73815, Note_on_c, 9, 36, 0
2, 73815, Note_on_c, 9, 42, 0
2, 73920, Note_on_c, 9, 42, 100
2, 73920, Note_on_c, 9, 36, 69
2, 73935, Note_on_c, 9, 36, 0
2, 73935, Note_on_c, 9, 42, 0
2, 74040, Note_on_c, 9, 42, 100
2, 74055, Note_on_c, 9, 42, 0
2, 74160, Note_on_c, 9, 42, 100
2, 74160, Note_on_c, 9, 38, 90
2, 74175, Note_on_c, 9, 38, 0
2, 74175, Note_on_c, 9, 42, 0
2, 74280, Note_on_c, 9, 42, 100
2, 74295, Note_on_c, 9, 42, 0
2, 74400, Note_on_c, 9, 42, 100
2, 74400, Note_on_c, 9, 36, 69
2, 74415, Note_on_c, 9, 36, 0
2, 74415, Note_on_c, 9, 42, 0
2, 74520, Note_on_c, 9, 42, 100
2, 74535, Note_on_c, 9, 42, 0
2, 74640, Note_on_c, 9, 38, 90
2, 74640, Note_on_c, 9, 42, 100
2, 74655, Note_on_c, 9, 42, 0
2, 74655, Note_on_c, 9, 38, 0
2, 74760, Note_on_c, 9, 42, 100
2, 74760, Note_on_c, 9, 36, 69
2, 74775, Note_on_c, 9, 36, 0
2, 74775, Note_on_c, 9, 42, 0
2, 74880, Note_on_c, 9, 42, 100
2, 74880, Note_on_c, 9, 36, 69
2, 74895, Note_on_c, 9, 36, 0
2, 74895, Note_on_c, 9, 42, 0
2, 75000, Note_on_c, 9, 42, 100
2, 75015, Note_on_c, 9, 42, 0
2, 75120, Note_on_c, 9, 42, 100
2, 75120, Note_on_c, 9, 38, 90
2, 75135, Note_on_c, 9, 38, 0
2, 75135, Note_on_c, 9, 42, 0
2, 75240, Note_on_c, 9, 42, 100
2, 75255, Note_on_c, 9, 42, 0
2, 75360, Note_on_c, 9, 42, 100
2, 75360, Note_on_c, 9, 36, 69
2, 75375, Note_on_c, 9, 36, 0
2, 75375, Note_on_c, 9, 42, 0
2, 75480, Note_on_c, 9, 42, 100
2, 75495, Note_on_c, 9, 42, 0
2, 75600, Note_on_c, 9, 38, 90
2, 75600, Note_on_c, 9, 42, 100
2, 75615, Note_on_c, 9, 42, 0
2, 75615, Note_on_c, 9, 38, 0
2, 75720, Note_on_c, 9, 42, 100
2, 75720, Note_on_c, 9, 36, 69
2, 75735, Note_on_c, 9, 36, 0
2, 75735, Note_on_c, 9, 42, 0
2, 75840, Note_on_c, 9, 42, 100
2, 75840, Note_on_c, 9, 36, 69
2, 75855, Note_on_c, 9, 36, 0
2, 75855, Note_on_c, 9, 42, 0
2, 75960, Note_on_c, 9, 42, 100
2, 75975, Note_on_c, 9, 42, 0
2, 76080, Note_on_c, 9, 42, 100
2, 76080, Note_on_c, 9, 38, 90
2, 76095, Note_on_c, 9, 38, 0
2, 76095, Note_on_c, 9, 42, 0
2, 76200, Note_on_c, 9, 42, 100
2, 76215, Note_on_c, 9, 42, 0
2, 76320, Note_on_c, 9, 42, 100
2, 76320, Note_on_c, 9, 36, 69
2, 76335, Note_on_c, 9, 36, 0
2, 76335, Note_on_c, 9, 42, 0
2, 76440, Note_on_c, 9, 42, 100
2, 76455, Note_on_c, 9, 42, 0
2, 76560, Note_on_c, 9, 38, 90
2, 76560, Note_on_c, 9, 42, 100
2, 76575, Note_on_c, 9, 42, 0
2, 76575, Note_on_c, 9, 38, 0
2, 76680, Note_on_c, 9, 42, 100
2, 76680, Note_on_c, 9, 36, 69
2, 76695, Note_on_c, 9, 36, 0
2, 76695, Note_on_c, 9, 42, 0
2, 76800, Note_on_c, 9, 42, 100
2, 76800, Note_on_c, 9, 36, 69
2, 76815, Note_on_c, 9, 36, 0
2, 76815, Note_on_c, 9, 42, 0
2, 76920, Note_on_c, 9, 42, 100
2, 76935, Note_on_c, 9, 42, 0
2, 77040, Note_on_c, 9, 42, 100
2, 77040, Note_on_c, 9, 38, 90
2, 77055, Note_on_c, 9, 38, 0
2, 77055, Note_on_c, 9, 42, 0
2, 77160, Note_on_c, 9, 42, 100
2, 77175, Note_on_c, 9, 42, 0
2, 77280, Note_on_c, 9, 42, 100
2, 77280, Note_on_c, 9, 36, 69
2, 77295, Note_on_c, 9, 36, 0
2, 77295, Note_on_c, 9, 42, 0
2, 77400, Note_on_c, 9, 42, 100
2, 77415, Note_on_c, 9, 42, 0
2, 77520, Note_on_c, 9, 38, 90
2, 77520, Note_on_c, 9, 42, 100
2, 77535, Note_on_c, 9, 42, 0
2, 77535, Note_on_c, 9, 38, 0
2, 77640, Note_on_c, 9, 42, 100
2, 77640, Note_on_c, 9, 36, 69
2, 77655, Note_on_c, 9, 36, 0
2, 77655, Note_on_c, 9, 42, 0
2, 77760, Note_on_c, 9, 42, 100
2, 77760, Note_on_c, 9, 36, 69
2, 77775, Note_on_c, 9, 36, 0
2, 77775, Note_on_c, 9, 42, 0
2, 77880, Note_on_c, 9, 42, 100
2, 77895, Note_on_c, 9, 42, 0
2, 78000, Note_on_c, 9, 42, 100
2, 78000, Note_on_c, 9, 38, 90
2, 78015, Note_on_c, 9, 38, 0
2, 78015, Note_on_c, 9, 42, 0
2, 78120, Note_on_c, 9, 42, 100
2, 78135, Note_on_c, 9, 42, 0
2, 78240, Note_on_c, 9, 42, 100
2, 78240, Note_on_c, 9, 36, 69
2, 78255, Note_on_c, 9, 36, 0
2, 78255, Note_on_c, 9, 42, 0
2, 78360, Note_on_c, 9, 42, 100
2, 78375, Note_on_c, 9, 42, 0
2, 78480, Note_on_c, 9, 38, 90
2, 78480, Note_on_c, 9, 42, 100
2, 78495, Note_on_c, 9, 42, 0
2, 78495, Note_on_c, 9, 38, 0
2, 78600, Note_on_c, 9, 42, 100
2, 78600, Note_on_c, 9, 36, 69
2, 78615, Note_on_c, 9, 36, 0
2, 78615, Note_on_c, 9, 42, 0
2, 78720, Note_on_c, 9, 42, 100
2, 78720, Note_on_c, 9, 36, 69
2, 78735, Note_on_c, 9, 36, 0
2, 78735, Note_on_c, 9, 42, 0
2, 78840, Note_on_c, 9, 42, 100
2, 78855, Note_on_c, 9, 42, 0
2, 78960, Note_on_c, 9, 42, 100
2, 78960, Note_on_c, 9, 38, 90
2, 78975, Note_on_c, 9, 38, 0
2, 78975, Note_on_c, 9, 42, 0
2, 79080, Note_on_c, 9, 42, 100
2, 79095, Note_on_c, 9, 42, 0
2, 79200, Note_on_c, 9, 42, 100
2, 79200, Note_on_c, 9, 36, 69
2, 79215, Note_on_c, 9, 36, 0
2, 79215, Note_on_c, 9, 42, 0
2, 79320, Note_on_c, 9, 42, 100
2, 79335, Note_on_c, 9, 42, 0
2, 79440, Note_on_c, 9, 38, 90
2, 79440, Note_on_c, 9, 42, 100
2, 79455, Note_on_c, 9, 42, 0
2, 79455, Note_on_c, 9, 38, 0
2, 79560, Note_on_c, 9, 42, 100
2, 79560, Note_on_c, 9, 36, 69
2, 79575, Note_on_c, 9, 36, 0
2, 79575, Note_on_c, 9, 42, 0
2, 79680, Note_on_c, 9, 42, 100
2, 79680, Note_on_c, 9, 36, 69
2, 79695, Note_on_c, 9, 36, 0
2, 79695, Note_on_c, 9, 42, 0
2, 79800, Note_on_c, 9, 42, 100
2, 79815, Note_on_c, 9, 42, 0
2, 79920, Note_on_c, 9, 42, 100
2, 79920, Note_on_c, 9, 38, 90
2, 79935, Note_on_c, 9, 38, 0
2, 79935, Note_on_c, 9, 42, 0
2, 80040, Note_on_c, 9, 42, 100
2, 80055, Note_on_c, 9, 42, 0
2, 80160, Note_on_c, 9, 42, 100
2, 80160, Note_on_c, 9, 36, 69
2, 80175, Note_on_c, 9, 36, 0
2, 80175, Note_on_c, 9, 42, 0
2, 80280, Note_on_c, 9, 42, 100
2, 80295, Note_on_c, 9, 42, 0
2, 80400, Note_on_c, 9, 38, 90
2, 80400, Note_on_c, 9, 42, 100
2, 80415, Note_on_c, 9, 42, 0
2, 80415, Note_on_c, 9, 38, 0
2, 80520, Note_on_c, 9, 42, 100
2, 80520, Note_on_c, 9, 36, 69
2, 80535, Note_on_c, 9, 36, 0
2, 80535, Note_on_c, 9, 42, 0
2, 80640, Note_on_c, 9, 42, 100
2, 80640, Note_on_c, 9, 36, 69
2, 80655, Note_on_c, 9, 36, 0
2, 80655, Note_on_c, 9, 42, 0
2, 80760, Note_on_c, 9, 42, 100
2, 80775, Note_on_c, 9, 42, 0
2, 80880, Note_on_c, 9, 42, 100
2, 80880, Note_on_c, 9, 38, 90
2, 80895, Note_on_c, 9, 38, 0
2, 80895, Note_on_c, 9, 42, 0
2, 81000, Note_on_c, 9, 42, 100
2, 81015, Note_on_c, 9, 42, 0
2, 81120, Note_on_c, 9, 42, 100
2, 81120, Note_on_c, 9, 36, 69
2, 81135, Note_on_c, 9, 36, 0
2, 81135, Note_on_c, 9, 42, 0
2, 81240, Note_on_c, 9, 42, 100
2, 81255, Note_on_c, 9, 42, 0
2, 81360, Note_on_c, 9, 38, 90
2, 81360, Note_on_c, 9, 42, 100
2, 81375, Note_on_c, 9, 42, 0
2, 81375, Note_on_c, 9, 38, 0
2, 81480, Note_on_c, 9, 42, 100
2, 81480, Note_on_c, 9, 36, 69
2, 81495, Note_on_c, 9, 36, 0
2, 81495, Note_on_c, 9, 42, 0
2, 81600, Note_on_c, 9, 42, 100
2, 81600, Note_on_c, 9, 36, 69
2, 81615, Note_on_c, 9, 36, 0
2, 81615, Note_on_c, 9, 42, 0
2, 81720, Note_on_c, 9, 42, 100
2, 81735, Note_on_c, 9, 42, 0
2, 81840, Note_on_c, 9, 42, 100
2, 81840, Note_on_c, 9, 38, 90
2, 81855, Note_on_c, 9, 38, 0
2, 81855, Note_on_c, 9, 42, 0
2, 81960, Note_on_c, 9, 42, 100
2, 81975, Note_on_c, 9, 42, 0
2, 82080, Note_on_c, 9, 42, 100
2, 82080, Note_on_c, 9, 36, 69
2, 82095, Note_on_c, 9, 36, 0
2, 82095, Note_on_c, 9, 42, 0
2, 82200, Note_on_c, 9, 42, 100
2, 82215, Note_on_c, 9, 42, 0
2, 82320, Note_on_c, 9, 38, 90
2, 82320, Note_on_c, 9, 42, 100
2, 82335, Note_on_c, 9, 42, 0
2, 82335, Note_on_c, 9, 38, 0
2, 82440, Note_on_c, 9, 42, 100
2, 82440, Note_on_c, 9, 36, 69
2, 82455, Note_on_c, 9, 36, 0
2, 82455, Note_on_c, 9, 42, 0
2, 82560, Note_on_c, 9, 42, 100
2, 82560, Note_on_c, 9, 36, 69
2, 82575, Note_on_c, 9, 36, 0
2, 82575, Note_on_c, 9, 42, 0
2, 82680, Note_on_c, 9, 42, 100
2, 82695, Note_on_c, 9, 42, 0
2, 82800, Note_on_c, 9, 42, 100
2, 82800, Note_on_c, 9, 38, 90
2, 82815, Note_on_c, 9, 38, 0
2, 82815, Note_on_c, 9, 42, 0
2, 82920, Note_on_c, 9, 42, 100
2, 82935, Note_on_c, 9, 42, 0
2, 83040, Note_on_c, 9, 42, 100
2, 83040, Note_on_c, 9, 36, 69
2, 83055, Note_on_c, 9, 36, 0
2, 83055, Note_on_c, 9, 42, 0
2, 83160, Note_on_c, 9, 42, 100
2, 83175, Note_on_c, 9, 42, 0
2, 83280, Note_on_c, 9, 38, 90
2, 83280, Note_on_c, 9, 42, 100
2, 83295, Note_on_c, 9, 42, 0
2, 83295, Note_on_c, 9, 38, 0
2, 83400, Note_on_c, 9, 42, 100
2, 83400, Note_on_c, 9, 36, 69
2, 83415, Note_on_c, 9, 36, 0
2, 83415, Note_on_c, 9, 42, 0
2, 83520, Note_on_c, 9, 42, 100
2, 83520, Note_on_c, 9, 36, 69
2, 83535, Note_on_c, 9, 36, 0
2, 83535, Note_on_c, 9, 42, 0
2, 83640, Note_on_c, 9, 42, 100
2, 83655, Note_on_c, 9, 42, 0
2, 83760, Note_on_c, 9, 42, 100
2, 83760, Note_on_c, 9, 38, 90
2, 83775, Note_on_c, 9, 38, 0
2, 83775, Note_on_c, 9, 42, 0
2, 83880, Note_on_c, 9, 42, 100
2, 83895, Note_on_c, 9, 42, 0
2, 84000, Note_on_c, 9, 42, 100
2, 84000, Note_on_c, 9, 36, 69
2, 84015, Note_on_c, 9, 36, 0
2, 84015, Note_on_c, 9, 42, 0
2, 84120, Note_on_c, 9, 42, 100
2, 84135, Note_on_c, 9, 42, 0
2, 84240, Note_on_c, 9, 38, 90
2, 84240, Note_on_c, 9, 42, 100
2, 84255, Note_on_c, 9, 42, 0
2, 84255, Note_on_c, 9, 38, 0
2, 84360, Note_on_c, 9, 42, 100
2, 84360, Note_on_c, 9, 36, 69
2, 84375, Note_on_c, 9, 36, 0
2, 84375, Note_on_c, 9, 42, 0
2, 84480, Note_on_c, 9, 42, 100
2, 84480, Note_on_c, 9, 36, 69
2, 84495, Note_on_c, 9, 36, 0
2, 84495, Note_on_c, 9, 42, 0
2, 84600, Note_on_c, 9, 42, 100
2, 84615, Note_on_c, 9, 42, 0
2, 84720, Note_on_c, 9, 42, 100
2, 84720, Note_on_c, 9, 38, 90
2, 84735, Note_on_c, 9, 38, 0
2, 84735, Note_on_c, 9, 42, 0
2, 84840, Note_on_c, 9, 42, 100
2, 84855, Note_on_c, 9, 42, 0
2, 84960, Note_on_c, 9, 42, 100
2, 84960, Note_on_c, 9, 36, 69
2, 84975, Note_on_c, 9, 36, 0
2, 84975, Note_on_c, 9, 42, 0
2, 85080, Note_on_c, 9, 42, 100
2, 85095, Note_on_c, 9, 42, 0
2, 85200, Note_on_c, 9, 38, 90
2, 85200, Note_on_c, 9, 42, 100
2, 85215, Note_on_c, 9, 42, 0
2, 85215, Note_on_c, 9, 38, 0
2, 85320, Note_on_c, 9, 42, 100
2, 85320, Note_on_c, 9, 36, 69
2, 85335, Note_on_c, 9, 36, 0
2, 85335, Note_on_c, 9, 42, 0
2, 85440, Note_on_c, 9, 42, 100
2, 85440, Note_on_c, 9, 36, 69
2, 85455, Note_on_c, 9, 36, 0
2, 85455, Note_on_c, 9, 42, 0
2, 85560, Note_on_c, 9, 42, 100
2, 85575, Note_on_c, 9, 42, 0
2, 85680, Note_on_c, 9, 42, 100
2, 85680, Note_on_c, 9, 38, 90
2, 85695, Note_on_c, 9, 38, 0
2, 85695, Note_on_c, 9, 42, 0
2, 85800, Note_on_c, 9, 42, 100
2, 85815, Note_on_c, 9, 42, 0
2, 85920, Note_on_c, 9, 42, 100
2, 85920, Note_on_c, 9, 36, 69
2, 85935, Note_on_c, 9, 36, 0
2, 85935, Note_on_c, 9, 42, 0
2, 86040, Note_on_c, 9, 42, 100
2, 86055, Note_on_c, 9, 42, 0
2, 86160, Note_on_c, 9, 38, 90
2, 86160, Note_on_c, 9, 42, 100
2, 86175, Note_on_c, 9, 42, 0
2, 86175, Note_on_c, 9, 38, 0
2, 86280, Note_on_c, 9, 42, 100
2, 86280, Note_on_c, 9, 36, 69
2, 86295, Note_on_c, 9, 36, 0
2, 86295, Note_on_c, 9, 42, 0
2, 86400, Note_on_c, 9, 42, 100
2, 86400, Note_on_c, 9, 36, 69
2, 86415, Note_on_c, 9, 36, 0
2, 86415, Note_on_c, 9, 42, 0
2, 86520, Note_on_c, 9, 42, 100
2, 86535, Note_on_c, 9, 42, 0
2, 86640, Note_on_c, 9, 42, 100
2, 86640, Note_on_c, 9, 38, 90
2, 86655, Note_on_c, 9, 38, 0
2, 86655, Note_on_c, 9, 42, 0
2, 86760, Note_on_c, 9, 42, 100
2, 86775, Note_on_c, 9, 42, 0
2, 86880, Note_on_c, 9, 42, 100
2, 86880, Note_on_c, 9, 36, 69
2, 86895, Note_on_c, 9, 36, 0
2, 86895, Note_on_c, 9, 42, 0
2, 87000, Note_on_c, 9, 42, 100
2, 87015, Note_on_c, 9, 42, 0
2, 87120, Note_on_c, 9, 38, 90
2, 87120, Note_on_c, 9, 42, 100
2, 87135, Note_on_c, 9, 42, 0
2, 87135, Note_on_c, 9, 38, 0
2, 87240, Note_on_c, 9, 42, 100
2, 87240, Note_on_c, 9, 36, 69
2, 87255, Note_on_c, 9, 36, 0
2, 87255, Note_on_c, 9, 42, 0
2, 87360, Note_on_c, 9, 42, 100
2, 87360, Note_on_c, 9, 36, 69
2, 87375, Note_on_c, 9, 36, 0
2, 87375, Note_on_c, 9, 42, 0
2, 87480, Note_on_c, 9, 42, 100
2, 87495, Note_on_c, 9, 42, 0
2, 87600, Note_on_c, 9, 42, 100
2, 87600, Note_on_c, 9, 38, 90
2, 87615, Note_on_c, 9, 38, 0
2, 87615, Note_on_c, 9, 42, 0
2, 87720, Note_on_c, 9, 42, 100
2, 87735, Note_on_c, 9, 42, 0
2, 87840, Note_on_c, 9, 42, 100
2, 87840, Note_on_c, 9, 36, 69
2, 87855, Note_on_c, 9, 36, 0
2, 87855, Note_on_c, 9, 42, 0
2, 87960, Note_on_c, 9, 42, 100
2, 87975, Note_on_c, 9, 42, 0
2, 88080, Note_on_c, 9, 38, 90
2, 88080, Note_on_c, 9, 42, 100
2, 88095, Note_on_c, 9, 42, 0
2, 88095, Note_on_c, 9, 38, 0
2, 88200, Note_on_c, 9, 42, 100
2, 88200, Note_on_c, 9, 36, 69
2, 88215, Note_on_c, 9, 36, 0
2, 88215, Note_on_c, 9, 42, 0
2, 88320, Note_on_c, 9, 42, 100
2, 88320, Note_on_c, 9, 36, 69
2, 88335, Note_on_c, 9, 36, 0
2, 88335, Note_on_c, 9, 42, 0
2, 88440, Note_on_c, 9, 42, 100
2, 88455, Note_on_c, 9, 42, 0
2, 88560, Note_on_c, 9, 42, 100
2, 88560, Note_on_c, 9, 38, 90
2, 88575, Note_on_c, 9, 38, 0
2, 88575, Note_on_c, 9, 42, 0
2, 88680, Note_on_c, 9, 42, 100
2, 88695, Note_on_c, 9, 42, 0
2, 88800, Note_on_c, 9, 42, 100
2, 88800, Note_on_c, 9, 36, 69
2, 88815, Note_on_c, 9, 36, 0
2, 88815, Note_on_c, 9, 42, 0
2, 88920, Note_on_c, 9, 42, 100
2, 88935, Note_on_c, 9, 42, 0
2, 89040, Note_on_c, 9, 38, 90
2, 89040, Note_on_c, 9, 42, 100
2, 89055, Note_on_c, 9, 42, 0
2, 89055, Note_on_c, 9, 38, 0
2, 89160, Note_on_c, 9, 42, 100
2, 89160, Note_on_c, 9, 36, 69
2, 89175, Note_on_c, 9, 36, 0
2, 89175, Note_on_c, 9, 42, 0
2, 89280, Note_on_c, 9, 42, 100
2, 89280, Note_on_c, 9, 36, 69
2, 89295, Note_on_c, 9, 36, 0
2, 89295, Note_on_c, 9, 42, 0
2, 89400, Note_on_c, 9, 42, 100
2, 89415, Note_on_c, 9, 42, 0
2, 89520, Note_on_c, 9, 42, 100
2, 89520, Note_on_c, 9, 38, 90
2, 89535, Note_on_c, 9, 38, 0
2, 89535, Note_on_c, 9, 42, 0
2, 89640, Note_on_c, 9, 42, 100
2, 89655, Note_on_c, 9, 42, 0
2, 89760, Note_on_c, 9, 42, 100
2, 89760, Note_on_c, 9, 36, 69
2, 89775, Note_on_c, 9, 36, 0
2, 89775, Note_on_c, 9, 42, 0
2, 89880, Note_on_c, 9, 42, 100
2, 89895, Note_on_c, 9, 42, 0
2, 90000, Note_on_c, 9, 38, 90
2, 90000, Note_on_c, 9, 42, 100
2, 90015, Note_on_c, 9, 42, 0
2, 90015, Note_on_c, 9, 38, 0
2, 90120, Note_on_c, 9, 42, 100
2, 90120, Note_on_c, 9, 36, 69
2, 90135, Note_on_c, 9, 36, 0
2, 90135, Note_on_c, 9, 42, 0
2, 90240, Note_on_c, 9, 42, 100
2, 90240, Note_on_c, 9, 36, 69
2, 90255, Note_on_c, 9, 36, 0
2, 90255, Note_on_c, 9, 42, 0
2, 90360, Note_on_c, 9, 42, 100
2, 90375, Note_on_c, 9, 42, 0
2, 90480, Note_on_c, 9, 42, 100
2, 90480, Note_on_c, 9, 38, 90
2, 90495, Note_on_c, 9, 38, 0
2, 90495, Note_on_c, 9, 42, 0
2, 90600, Note_on_c, 9, 42, 100
2, 90615, Note_on_c, 9, 42, 0
2, 90720, Note_on_c, 9, 42, 100
2, 90720, Note_on_c, 9, 36, 69
2, 90735, Note_on_c, 9, 36, 0
2, 90735, Note_on_c, 9, 42, 0
2, 90840, Note_on_c, 9, 42, 100
2, 90855, Note_on_c, 9, 42, 0
2, 90960, Note_on_c, 9, 38, 90
2, 90960, Note_on_c, 9, 42, 100
2, 90975, Note_on_c, 9, 42, 0
2, 90975, Note_on_c, 9, 38, 0
2, 91080, Note_on_c, 9, 42, 100
2, 91080, Note_on_c, 9, 36, 69
2, 91095, Note_on_c, 9, 36, 0
2, 91095, Note_on_c, 9, 42, 0
2, 91200, Note_on_c, 9, 42, 100
2, 91200, Note_on_c, 9, 36, 69
2, 91215, Note_on_c, 9, 36, 0
2, 91215, Note_on_c, 9, 42, 0
2, 91320, Note_on_c, 9, 42, 100
2, 91335, Note_on_c, 9, 42, 0
2, 91440, Note_on_c, 9, 42, 100
2, 91440, Note_on_c, 9, 38, 90
2, 91455, Note_on_c, 9, 38, 0
2, 91455, Note_on_c, 9, 42, 0
2, 91560, Note_on_c, 9, 42, 100
2, 91575, Note_on_c, 9, 42, 0
2, 91680, Note_on_c, 9, 42, 100
2, 91680, Note_on_c, 9, 36, 69
2, 91695, Note_on_c, 9, 36, 0
2, 91695, Note_on_c, 9, 42, 0
2, 91800, Note_on_c, 9, 42, 100
2, 91815, Note_on_c, 9, 42, 0
2, 91920, Note_on_c, 9, 38, 90
2, 91920, Note_on_c, 9, 42, 100
2, 91935, Note_on_c, 9, 42, 0
2, 91935, Note_on_c, 9, 38, 0
2, 92040, Note_on_c, 9, 42, 100
2, 92040, Note_on_c, 9, 36, 69
2, 92055, Note_on_c, 9, 36, 0
2, 92055, Note_on_c, 9, 42, 0
2, 92160, Note_on_c, 9, 42, 100
2, 92160, Note_on_c, 9, 36, 69
2, 92175, Note_on_c, 9, 36, 0
2, 92175, Note_on_c, 9, 42, 0
2, 92280, Note_on_c, 9, 42, 100
2, 92295, Note_on_c, 9, 42, 0
2, 92400, Note_on_c, 9, 42, 100
2, 92400, Note_on_c, 9, 38, 90
2, 92415, Note_on_c, 9, 38, 0
2, 92415, Note_on_c, 9, 42, 0
2, 92520, Note_on_c, 9, 42, 100
2, 92535, Note_on_c, 9, 42, 0
2, 92640, Note_on_c, 9, 42, 100
2, 92640, Note_on_c, 9, 36, 69
2, 92655, Note_on_c, 9, 36, 0
2, 92655, Note_on_c, 9, 42, 0
2, 92760, Note_on_c, 9, 42, 100
2, 92775, Note_on_c, 9, 42, 0
2, 92880, Note_on_c, 9, 38, 90
2, 92880, Note_on_c, 9, 42, 100
2, 92895, Note_on_c, 9, 42, 0
2, 92895, Note_on_c, 9, 38, 0
2, 93000, Note_on_c, 9, 42, 100
2, 93000, Note_on_c, 9, 36, 69
2, 93015, Note_on_c, 9, 36, 0
2, 93015, Note_on_c, 9, 42, 0
2, 93120, Note_on_c, 9, 42, 100
2, 93120, Note_on_c, 9, 36, 69
2, 93135, Note_on_c, 9, 36, 0
2, 93135, Note_on_c, 9, 42, 0
2, 93240, Note_on_c, 9, 42, 100
2, 93255, Note_on_c, 9, 42, 0
2, 93360, Note_on_c, 9, 42, 100
2, 93360, Note_on_c, 9, 38, 90
2, 93375, Note_on_c, 9, 38, 0
2, 93375, Note_on_c, 9, 42, 0
2, 93480, Note_on_c, 9, 42, 100
2, 93495, Note_on_c, 9, 42, 0
2, 93600, Note_on_c, 9, 42, 100
2, 93600, Note_on_c, 9, 36, 69
2, 93615, Note_on_c, 9, 36, 0
2, 93615, Note_on_c, 9, 42, 0
2, 93720, Note_on_c, 9, 42, 100
2, 93735, Note_on_c, 9, 42, 0
2, 93840, Note_on_c, 9, 38, 90
2, 93840, Note_on_c, 9, 42, 100
2, 93855, Note_on_c, 9, 42, 0
2, 93855, Note_on_c, 9, 38, 0
2, 93960, Note_on_c, 9, 42, 100
2, 93960, Note_on_c, 9, 36, 69
2, 93975, Note_on_c, 9, 36, 0
2, 93975, Note_on_c, 9, 42, 0
2, 94080, Note_on_c, 9, 42, 100
2, 94080, Note_on_c, 9, 36, 69
2, 94095, Note_on_c, 9, 36, 0
2, 94095, Note_on_c, 9, 42, 0
2, 94200, Note_on_c, 9, 42, 100
2, 94215, Note_on_c, 9, 42, 0
2, 94320, Note_on_c, 9, 42, 100
2, 94320, Note_on_c, 9, 38, 90
2, 94335, Note_on_c, 9, 38, 0
2, 94335, Note_on_c, 9, 42, 0
2, 94440, Note_on_c, 9, 42, 100
2, 94455, Note_on_c, 9, 42, 0
2, 94560, Note_on_c, 9, 42, 100
2, 94560, Note_on_c, 9, 36, 69
2, 94575, Note_on_c, 9, 36, 0
2, 94575, Note_on_c, 9, 42, 0
2, 94680, Note_on_c, 9, 42, 100
2, 94695, Note_on_c, 9, 42, 0
2, 94800, Note_on_c, 9, 38, 90
2, 94800, Note_on_c, 9, 42, 100
2, 94815, Note_on_c, 9, 42, 0
2, 94815, Note_on_c, 9, 38, 0
2, 94920, Note_on_c, 9, 42, 100
2, 94920, Note_on_c, 9, 36, 69
2, 94935, Note_on_c, 9, 36, 0
2, 94935, Note_on_c, 9, 42, 0
2, 95040, Note_on_c, 9, 42, 100
2, 95040, Note_on_c, 9, 36, 69
2, 95055, Note_on_c, 9, 36, 0
2, 95055, Note_on_c, 9, 42, 0
2, 95160, Note_on_c, 9, 42, 100
2, 95175, Note_on_c, 9, 42, 0
2, 95280, Note_on_c, 9, 42, 100
2, 95280, Note_on_c, 9, 38, 90
2, 95295, Note_on_c, 9, 38, 0
2, 95295, Note_on_c, 9, 42, 0
2, 95400, Note_on_c, 9, 42, 100
2, 95415, Note_on_c, 9, 42, 0
2, 95520, Note_on_c, 9, 42, 100
2, 95520, Note_on_c, 9, 36, 69
2, 95535, Note_on_c, 9, 36, 0
2, 95535, Note_on_c, 9, 42, 0
2, 95640, Note_on_c, 9, 42, 100
2, 95655, Note_on_c, 9, 42, 0
2, 95760, Note_on_c, 9, 38, 90
2, 95760, Note_on_c, 9, 42, 100
2, 95775, Note_on_c, 9, 42, 0
2, 95775, Note_on_c, 9, 38, 0
2, 95880, Note_on_c, 9, 42, 100
2, 95880, Note_on_c, 9, 36, 69
2, 95895, Note_on_c, 9, 36, 0
2, 95895, Note_on_c, 9, 42, 0
2, 96000, Note_on_c, 9, 42, 100
2, 96000, Note_on_c, 9, 36, 69
2, 96015, Note_on_c, 9, 36, 0
2, 96015, Note_on_c, 9, 42, 0
2, 96120, Note_on_c, 9, 42, 100
2, 96135, Note_on_c, 9, 42, 0
2, 96240, Note_on_c, 9, 42, 100
2, 96240, Note_on_c, 9, 38, 90
2, 96255, Note_on_c, 9, 38, 0
2, 96255, Note_on_c, 9, 42, 0
2, 96360, Note_on_c, 9, 42, 100
2, 96375, Note_on_c, 9, 42, 0
2, 96480, Note_on_c, 9, 42, 100
2, 96480, Note_on_c, 9, 36, 69
2, 96495, Note_on_c, 9, 36, 0
2, 96495, Note_on_c, 9, 42, 0
2, 96600, Note_on_c, 9, 42, 100
2, 96615, Note_on_c, 9, 42, 0
2, 96720, Note_on_c, 9, 38, 90
2, 96720, Note_on_c, 9, 42, 100
2, 96735, Note_on_c, 9, 42, 0
2, 96735, Note_on_c, 9, 38, 0
2, 96840, Note_on_c, 9, 42, 100
2, 96840, Note_on_c, 9, 36, 69
2, 96855, Note_on_c, 9, 36, 0
2, 96855, Note_on_c, 9, 42, 0
2, 96960, Note_on_c, 9, 42, 100
2, 96960, Note_on_c, 9, 36, 69
2, 96975, Note_on_c, 9, 36, 0
2, 96975, Note_on_c, 9, 42, 0
2, 97080, Note_on_c, 9, 42, 100
2, 97095, Note_on_c, 9, 42, 0
2, 97200, Note_on_c, 9, 42, 100
2, 97200, Note_on_c, 9, 38, 90
2, 97215, Note_on_c, 9, 38, 0
2, 97215, Note_on_c, 9, 42, 0
2, 97320, Note_on_c, 9, 42, 100
2, 97335, Note_on_c, 9, 42, 0
2, 97440, Note_on_c, 9, 42, 100
2, 97440, Note_on_c, 9, 36, 69
2, 97455, Note_on_c, 9, 36, 0
2, 97455, Note_on_c, 9, 42, 0
2, 97560, Note_on_c, 9, 42, 100
2, 97575, Note_on_c, 9, 42, 0
2, 97680, Note_on_c, 9, 38, 90
2, 97680, Note_on_c, 9, 42, 100
2, 97695, Note_on_c, 9, 42, 0
2, 97695, Note_on_c, 9, 38, 0
2, 97800, Note_on_c, 9, 42, 100
2, 97800, Note_on_c, 9, 36, 69
2, 97815, Note_on_c, 9, 36, 0
2, 97815, Note_on_c, 9, 42, 0
2, 97920, Note_on_c, 9, 42, 100
2, 97920, Note_on_c, 9, 36, 69
2, 97935, Note_on_c, 9, 36, 0
2, 97935, Note_on_c, 9, 42, 0
2, 98040, Note_on_c, 9, 42, 100
2, 98055, Note_on_c, 9, 42, 0
2, 98160, Note_on_c, 9, 42, 100
2, 98160, Note_on_c, 9, 38, 90
2, 98175, Note_on_c, 9, 38, 0
2, 98175, Note_on_c, 9, 42, 0
2, 98280, Note_on_c, 9, 42, 100
2, 98295, Note_on_c, 9, 42, 0
2, 98400, Note_on_c, 9, 42, 100
2, 98400, Note_on_c, 9, 36, 69
2, 98415, Note_on_c, 9, 36, 0
2, 98415, Note_on_c, 9, 42, 0
2, 98520, Note_on_c, 9, 42, 100
2, 98535, Note_on_c, 9, 42, 0
2, 98640, Note_on_c, 9, 38, 90
2, 98640, Note_on_c, 9, 42, 100
2, 98655, Note_on_c, 9, 42, 0
2, 98655, Note_on_c, 9, 38, 0
2, 98760, Note_on_c, 9, 42, 100
2, 98760, Note_on_c, 9, 36, 69
2, 98775, Note_on_c, 9, 36, 0
2, 98775, Note_on_c, 9, 42, 0
2, 98880, Note_on_c, 9, 42, 100
2, 98880, Note_on_c, 9, 36, 69
2, 98895, Note_on_c, 9, 36, 0
2, 98895, Note_on_c, 9, 42, 0
2, 99000, Note_on_c, 9, 42, 100
2, 99015, Note_on_c, 9, 42, 0
2, 99120, Note_on_c, 9, 42, 100
2, 99120, Note_on_c, 9, 38, 90
2, 99135, Note_on_c, 9, 38, 0
2, 99135, Note_on_c, 9, 42, 0
2, 99240, Note_on_c, 9, 42, 100
2, 99255, Note_on_c, 9, 42, 0
2, 99360, Note_on_c, 9, 42, 100
2, 99360, Note_on_c, 9, 36, 69
2, 99375, Note_on_c, 9, 36, 0
2, 99375, Note_on_c, 9, 42, 0
2, 99480, Note_on_c, 9, 42, 100
2, 99495, Note_on_c, 9, 42, 0
2, 99600, Note_on_c, 9, 38, 90
2, 99600, Note_on_c, 9, 42, 100
2, 99615, Note_on_c, 9, 42, 0
2, 99615, Note_on_c, 9, 38, 0
2, 99720, Note_on_c, 9, 42, 100
2, 99720, Note_on_c, 9, 36, 69
2, 99735, Note_on_c, 9, 36, 0
2, 99735, Note_on_c, 9, 42, 0
2, 99840, Note_on_c, 9, 42, 100
2, 99840, Note_on_c, 9, 36, 69
2, 99855, Note_on_c, 9, 36, 0
2, 99855, Note_on_c, 9, 42, 0
2, 99960, Note_on_c, 9, 42, 100
2, 99975, Note_on_c, 9, 42, 0
2, 100080, Note_on_c, 9, 42, 100
2, 100080, Note_on_c, 9, 38, 90
2, 100095, Note_on_c, 9, 38, 0
2, 100095, Note_on_c, 9, 42, 0
2, 100200, Note_on_c, 9, 42, 100
2, 100215, Note_on_c, 9, 42, 0
2, 100320, Note_on_c, 9, 42, 100
2, 100320, Note_on_c, 9, 36, 69
2, 100335, Note_on_c, 9, 36, 0
2, 100335, Note_on_c, 9, 42, 0
2, 100440, Note_on_c, 9, 42, 100
2, 100455, Note_on_c, 9, 42, 0
2, 100560, Note_on_c, 9, 38, 90
2, 100560, Note_on_c, 9, 42, 100
2, 100575, Note_on_c, 9, 42, 0
2, 100575, Note_on_c, 9, 38, 0
2, 100680, Note_on_c, 9, 42, 100
2, 100680, Note_on_c, 9, 36, 69
2, 100695, Note_on_c, 9, 36, 0
2, 100695, Note_on_c, 9, 42, 0
2, 100800, Note_on_c, 9, 42, 100
2, 100800, Note_on_c, 9, 36, 69
2, 100815, Note_on_c, 9, 36, 0
2, 100815, Note_on_c, 9, 42, 0
2, 100920, Note_on_c, 9, 42, 100
2, 100935, Note_on_c, 9, 42, 0
2, 101040, Note_on_c, 9, 42, 100
2, 101040, Note_on_c, 9, 38, 90
2, 101055, Note_on_c, 9, 38, 0
2, 101055, Note_on_c, 9, 42, 0
2, 101160, Note_on_c, 9, 42, 100
2, 101175, Note_on_c, 9, 42, 0
2, 101280, Note_on_c, 9, 42, 100
2, 101280, Note_on_c, 9, 36, 69
2, 101295, Note_on_c, 9, 36, 0
2, 101295, Note_on_c, 9, 42, 0
2, 101400, Note_on_c, 9, 42, 100
2, 101415, Note_on_c, 9, 42, 0
2, 101520, Note_on_c, 9, 38, 90
2, 101520, Note_on_c, 9, 42, 100
2, 101535, Note_on_c, 9, 42, 0
2, 101535, Note_on_c, 9, 38, 0
2, 101640, Note_on_c, 9, 42, 100
2, 101640, Note_on_c, 9, 36, 69
2, 101655, Note_on_c, 9, 36, 0
2, 101655, Note_on_c, 9, 42, 0
2, 101760, Note_on_c, 9, 42, 100
2, 101760, Note_on_c, 9, 36, 69
2, 101775, Note_on_c, 9, 36, 0
2, 101775, Note_on_c, 9, 42, 0
2, 101880, Note_on_c, 9, 42, 100
2, 101895, Note_on_c, 9, 42, 0
2, 102000, Note_on_c, 9, 42, 100
2, 102000, Note_on_c, 9, 38, 90
2, 102015, Note_on_c, 9, 38, 0
2, 102015, Note_on_c, 9, 42, 0
2, 102120, Note_on_c, 9, 42, 100
2, 102135, Note_on_c, 9, 42, 0
2, 102240, Note_on_c, 9, 42, 100
2, 102240, Note_on_c, 9, 36, 69
2, 102255, Note_on_c, 9, 36, 0
2, 102255, Note_on_c, 9, 42, 0
2, 102360, Note_on_c, 9, 42, 100
2, 102375, Note_on_c, 9, 42, 0
2, 102480, Note_on_c, 9, 38, 90
2, 102480, Note_on_c, 9, 42, 100
2, 102495, Note_on_c, 9, 42, 0
2, 102495, Note_on_c, 9, 38, 0
2, 102600, Note_on_c, 9, 42, 100
2, 102600, Note_on_c, 9, 36, 69
2, 102615, Note_on_c, 9, 36, 0
2, 102615, Note_on_c, 9, 42, 0
2, 102720, Note_on_c, 9, 42, 100
2, 102720, Note_on_c, 9, 36, 69
2, 102735, Note_on_c, 9, 36, 0
2, 102735, Note_on_c, 9, 42, 0
2, 102840, Note_on_c, 9, 42, 100
2, 102855, Note_on_c, 9, 42, 0
2, 102960, Note_on_c, 9, 42, 100
2, 102960, Note_on_c, 9, 38, 90
2, 102975, Note_on_c, 9, 38, 0
2, 102975, Note_on_c, 9, 42, 0
2, 103080, Note_on_c, 9, 42, 100
2, 103095, Note_on_c, 9, 42, 0
2, 103200, Note_on_c, 9, 42, 100
2, 103200, Note_on_c, 9, 36, 69
2, 103215, Note_on_c, 9, 36, 0
2, 103215, Note_on_c, 9, 42, 0
2, 103320, Note_on_c, 9, 42, 100
2, 103335, Note_on_c, 9, 42, 0
2, 103440, Note_on_c, 9, 38, 90
2, 103440, Note_on_c, 9, 42, 100
2, 103455, Note_on_c, 9, 42, 0
2, 103455, Note_on_c, 9, 38, 0
2, 103560, Note_on_c, 9, 42, 100
2, 103560, Note_on_c, 9, 36, 69
2, 103575, Note_on_c, 9, 36, 0
2, 103575, Note_on_c, 9, 42, 0
2, 103680, Note_on_c, 9, 42, 100
2, 103680, Note_on_c, 9, 36, 69
2, 103695, Note_on_c, 9, 36, 0
2, 103695, Note_on_c, 9, 42, 0
2, 103800, Note_on_c, 9, 42, 100
2, 103815, Note_on_c, 9, 42, 0
2, 103920, Note_on_c, 9, 42, 100
2, 103920, Note_on_c, 9, 38, 90
2, 103935, Note_on_c, 9, 38, 0
2, 103935, Note_on_c, 9, 42, 0
2, 104040, Note_on_c, 9, 42, 100
2, 104055, Note_on_c, 9, 42, 0
2, 104160, Note_on_c, 9, 42, 100
2, 104160, Note_on_c, 9, 36, 69
2, 104175, Note_on_c, 9, 36, 0
2, 104175, Note_on_c, 9, 42, 0
2, 104280, Note_on_c, 9, 42, 100
2, 104295, Note_on_c, 9, 42, 0
2, 104400, Note_on_c, 9, 38, 90
2, 104400, Note_on_c, 9, 42, 100
2, 104415, Note_on_c, 9, 42, 0
2, 104415, Note_on_c, 9, 38, 0
2, 104520, Note_on_c, 9, 42, 100
2, 104520, Note_on_c, 9, 36, 69
2, 104535, Note_on_c, 9, 36, 0
2, 104535, Note_on_c, 9, 42, 0
2, 104640, Note_on_c, 9, 42, 100
2, 104640, Note_on_c, 9, 36, 69
2, 104655, Note_on_c, 9, 36, 0
2, 104655, Note_on_c, 9, 42, 0
2, 104760, Note_on_c, 9, 42, 100
2, 104775, Note_on_c, 9, 42, 0
2, 104880, Note_on_c, 9, 42, 100
2, 104880, Note_on_c, 9, 38, 90
2, 104895, Note_on_c, 9, 38, 0
2, 104895, Note_on_c, 9, 42, 0
2, 105000, Note_on_c, 9, 42, 100
2, 105015, Note_on_c, 9, 42, 0
2, 105120, Note_on_c, 9, 42, 100
2, 105120, Note_on_c, 9, 36, 69
2, 105135, Note_on_c, 9, 36, 0
2, 105135, Note_on_c, 9, 42, 0
2, 105240, Note_on_c, 9, 42, 100
2, 105255, Note_on_c, 9, 42, 0
2, 105360, Note_on_c, 9, 38, 90
2, 105360, Note_on_c, 9, 42, 100
2, 105375, Note_on_c, 9, 42, 0
2, 105375, Note_on_c, 9, 38, 0
2, 105480, Note_on_c, 9, 42, 100
2, 105480, Note_on_c, 9, 36, 69
2, 105495, Note_on_c, 9, 36, 0
2, 105495, Note_on_c, 9, 42, 0
2, 105600, Note_on_c, 9, 42, 100
2, 105600, Note_on_c, 9, 36, 69
2, 105615, Note_on_c, 9, 36, 0
2, 105615, Note_on_c, 9, 42, 0
2, 105720, Note_on_c, 9, 42, 100
2, 105735, Note_on_c, 9, 42, 0
2, 105840, Note_on_c, 9, 42, 100
2, 105840, Note_on_c, 9, 38, 90
2, 105855, Note_on_c, 9, 38, 0
2, 105855, Note_on_c, 9, 42, 0
2, 105960, Note_on_c, 9, 42, 100
2, 105975, Note_on_c, 9, 42, 0
2, 106080, Note_on_c, 9, 42, 100
2, 106080, Note_on_c, 9, 36, 69
2, 106095, Note_on_c, 9, 36, 0
2, 106095, Note_on_c, 9, 42, 0
2, 106200, Note_on_c, 9, 42, 100
2, 106215, Note_on_c, 9, 42, 0
2, 106320, Note_on_c, 9, 38, 90
2, 106320, Note_on_c, 9, 42, 100
2, 106335, Note_on_c, 9, 42, 0
2, 106335, Note_on_c, 9, 38, 0
2, 106440, Note_on_c, 9, 42, 100
2, 106440, Note_on_c, 9, 36, 69
2, 106455, Note_on_c, 9, 36, 0
2, 106455, Note_on_c, 9, 42, 0
2, 106560, Note_on_c, 9, 42, 100
2, 106560, Note_on_c, 9, 36, 69
2, 106575, Note_on_c, 9, 36, 0
2, 106575, Note_on_c, 9, 42, 0
2, 106680, Note_on_c, 9, 42, 100
2, 106695, Note_on_c, 9, 42, 0
2, 106800, Note_on_c, 9, 42, 100
2, 106800, Note_on_c, 9, 38, 90
2, 106815, Note_on_c, 9, 38, 0
2, 106815, Note_on_c, 9, 42, 0
2, 106920, Note_on_c, 9, 42, 100
2, 106935, Note_on_c, 9, 42, 0
2, 107040, Note_on_c, 9, 42, 100
2, 107040, Note_on_c, 9, 36, 69
2, 107055, Note_on_c, 9, 36, 0
2, 107055, Note_on_c, 9, 42, 0
2, 107160, Note_on_c, 9, 42, 100
2, 107175, Note_on_c, 9, 42, 0
2, 107280, Note_on_c, 9, 38, 90
2, 107280, Note_on_c, 9, 42, 100
2, 107295, Note_on_c, 9, 42, 0
2, 107295, Note_on_c, 9, 38, 0
2, 107400, Note_on_c, 9, 42, 100
2, 107400, Note_on_c, 9, 36, 69
2, 107415, Note_on_c, 9, 36, 0
2, 107415, Note_on_c, 9, 42, 0
2, 107520, Note_on_c, 9, 42, 100
2, 107520, Note_on_c, 9, 36, 69
2, 107535, Note_on_c, 9, 36, 0
2, 107535, Note_on_c, 9, 42, 0
2, 107640, Note_on_c, 9, 42, 100
2, 107655, Note_on_c, 9, 42, 0
2, 107760, Note_on_c, 9, 42, 100
2, 107760, Note_on_c, 9, 38, 90
2, 107775, Note_on_c, 9, 38, 0
2, 107775, Note_on_c, 9, 42, 0
2, 107880, Note_on_c, 9, 42, 100
2, 107895, Note_on_c, 9, 42, 0
2, 108000, Note_on_c, 9, 42, 100
2, 108000, Note_on_c, 9, 36, 69
2, 108015, Note_on_c, 9, 36, 0
2, 108015, Note_on_c, 9, 42, 0
2, 108120, Note_on_c, 9, 42, 100
2, 108135, Note_on_c, 9, 42, 0
2, 108240, Note_on_c, 9, 38, 90
2, 108240, Note_on_c, 9, 42, 100
2, 108255, Note_on_c, 9, 42, 0
2, 108255, Note_on_c, 9, 38, 0
2, 108360, Note_on_c, 9, 42, 100
2, 108360, Note_on_c, 9, 36, 69
2, 108375, Note_on_c, 9, 36, 0
2, 108375, Note_on_c, 9, 42, 0
2, 108480, Note_on_c, 9, 42, 100
2, 108480, Note_on_c, 9, 36, 69
2, 108495, Note_on_c, 9, 36, 0
2, 108495, Note_on_c, 9, 42, 0
2, 108600, Note_on_c, 9, 42, 100
2, 108615, Note_on_c, 9, 42, 0
2, 108720, Note_on_c, 9, 42, 100
2, 108720, Note_on_c, 9, 38, 90
2, 108735, Note_on_c, 9, 38, 0
2, 108735, Note_on_c, 9, 42, 0
2, 108840, Note_on_c, 9, 42, 100
2, 108855, Note_on_c, 9, 42, 0
2, 108960, Note_on_c, 9, 42, 100
2, 108960, Note_on_c, 9, 36, 69
2, 108975, Note_on_c, 9, 36, 0
2, 108975, Note_on_c, 9, 42, 0
2, 109080, Note_on_c, 9, 42, 100
2, 109095, Note_on_c, 9, 42, 0
2, 109200, Note_on_c, 9, 38, 90
2, 109200, Note_on_c, 9, 42, 100
2, 109215, Note_on_c, 9, 42, 0
2, 109215, Note_on_c, 9, 38, 0
2, 109320, Note_on_c, 9, 42, 100
2, 109320, Note_on_c, 9, 36, 69
2, 109335, Note_on_c, 9, 36, 0
2, 109335, Note_on_c, 9, 42, 0
2, 109440, Note_on_c, 9, 42, 100
2, 109440, Note_on_c, 9, 36, 69
2, 109455, Note_on_c, 9, 36, 0
2, 109455, Note_on_c, 9, 42, 0
2, 109560, Note_on_c, 9, 42, 100
2, 109575, Note_on_c, 9, 42, 0
2, 109680, Note_on_c, 9, 42, 100
2, 109680, Note_on_c, 9, 38, 90
2, 109695, Note_on_c, 9, 38, 0
2, 109695, Note_on_c, 9, 42, 0
2, 109800, Note_on_c, 9, 42, 100
2, 109815, Note_on_c, 9, 42, 0
2, 109920, Note_on_c, 9, 42, 100
2, 109920, Note_on_c, 9, 36, 69
2, 109935, Note_on_c, 9, 36, 0
2, 109935, Note_on_c, 9, 42, 0
2, 110040, Note_on_c, 9, 42, 100
2, 110055, Note_on_c, 9, 42, 0
2, 110160, Note_on_c, 9, 38, 90
2, 110160, Note_on_c, 9, 42, 100
2, 110175, Note_on_c, 9, 42, 0
2, 110175, Note_on_c, 9, 38, 0
2, 110280, Note_on_c, 9, 42, 100
2, 110280, Note_on_c, 9, 36, 69
2, 110295, Note_on_c, 9, 36, 0
2, 110295, Note_on_c, 9, 42, 0
2, 110400, Note_on_c, 9, 42, 100
2, 110400, Note_on_c, 9, 36, 69
2, 110415, Note_on_c, 9, 36, 0
2, 110415, Note_on_c, 9, 42, 0
2, 110520, Note_on_c, 9, 42, 100
2, 110535, Note_on_c, 9, 42, 0
2, 110640, Note_on_c, 9, 42, 100
2, 110640, Note_on_c, 9, 38, 90
2, 110655, Note_on_c, 9, 38, 0
2, 110655, Note_on_c, 9, 42, 0
2, 110760, Note_on_c, 9, 42, 100
2, 110775, Note_on_c, 9, 42, 0
2, 110880, Note_on_c, 9, 42, 100
2, 110880, Note_on_c, 9, 36, 69
2, 110895, Note_on_c, 9, 36, 0
2, 110895, Note_on_c, 9, 42, 0
2, 111000, Note_on_c, 9, 42, 100
2, 111015, Note_on_c, 9, 42, 0
2, 111120, Note_on_c, 9, 38, 90
2, 111120, Note_on_c, 9, 42, 100
2, 111135, Note_on_c, 9, 42, 0
2, 111135, Note_on_c, 9, 38, 0
2, 111240, Note_on_c, 9, 42, 100
2, 111240, Note_on_c, 9, 36, 69
2, 111255, Note_on_c, 9, 36, 0
2, 111255, Note_on_c, 9, 42, 0
2, 111360, Note_on_c, 9, 42, 100
2, 111360, Note_on_c, 9, 36, 69
2, 111375, Note_on_c, 9, 36, 0
2, 111375, Note_on_c, 9, 42, 0
2, 111480, Note_on_c, 9, 42, 100
2, 111495, Note_on_c, 9, 42, 0
2, 111600, Note_on_c, 9, 42, 100
2, 111600, Note_on_c, 9, 38, 90
2, 111615, Note_on_c, 9, 38, 0
2, 111615, Note_on_c, 9, 42, 0
2, 111720, Note_on_c, 9, 42, 100
2, 111735, Note_on_c, 9, 42, 0
2, 111840, Note_on_c, 9, 42, 100
2, 111840, Note_on_c, 9, 36, 69
2, 111855, Note_on_c, 9, 36, 0
2, 111855, Note_on_c, 9, 42, 0
2, 111960, Note_on_c, 9, 42, 100
2, 111975, Note_on_c, 9, 42, 0
2, 112080, Note_on_c, 9, 38, 90
2, 112080, Note_on_c, 9, 42, 100
2, 112095, Note_on_c, 9, 42, 0
2, 112095, Note_on_c, 9, 38, 0
2, 112200, Note_on_c, 9, 42, 100
2, 112200, Note_on_c, 9, 36, 69
2, 112215, Note_on_c, 9, 36, 0
2, 112215, Note_on_c, 9, 42, 0
2, 112320, Note_on_c, 9, 42, 100
2, 112320, Note_on_c, 9, 36, 69
2, 112335, Note_on_c, 9, 36, 0
2, 112335, Note_on_c, 9, 42, 0
2, 112440, Note_on_c, 9, 42, 100
2, 112455, Note_on_c, 9, 42, 0
2, 112560, Note_on_c, 9, 42, 100
2, 112560, Note_on_c, 9, 38, 90
2, 112575, Note_on_c, 9, 38, 0
2, 112575, Note_on_c, 9, 42, 0
2, 112680, Note_on_c, 9, 42, 100
2, 112695, Note_on_c, 9, 42, 0
2, 112800, Note_on_c, 9, 42, 100
2, 112800, Note_on_c, 9, 36, 69
2, 112815, Note_on_c, 9, 36, 0
2, 112815, Note_on_c, 9, 42, 0
2, 112920, Note_on_c, 9, 42, 100
2, 112935, Note_on_c, 9, 42, 0
2, 113040, Note_on_c, 9, 38, 90
2, 113040, Note_on_c, 9, 42, 100
2, 113055, Note_on_c, 9, 42, 0
2, 113055, Note_on_c, 9, 38, 0
2, 113160, Note_on_c, 9, 42, 100
2, 113160, Note_on_c, 9, 36, 69
2, 113175, Note_on_c, 9, 36, 0
2, 113175, Note_on_c, 9, 42, 0
2, 113280, Note_on_c, 9, 42, 100
2, 113280, Note_on_c, 9, 36, 69
2, 113295, Note_on_c, 9, 36, 0
2, 113295, Note_on_c, 9, 42, 0
2, 113400, Note_on_c, 9, 42, 100
2, 113415, Note_on_c, 9, 42, 0
2, 113520, Note_on_c, 9, 42, 100
2, 113520, Note_on_c, 9, 38, 90
2, 113535, Note_on_c, 9, 38, 0
2, 113535, Note_on_c, 9, 42, 0
2, 113640, Note_on_c, 9, 42, 100
2, 113655, Note_on_c, 9, 42, 0
2, 113760, Note_on_c, 9, 42, 100
2, 113760, Note_on_c, 9, 36, 69
2, 113775, Note_on_c, 9, 36, 0
2, 113775, Note_on_c, 9, 42, 0
2, 113880, Note_on_c, 9, 42, 100
2, 113895, Note_on_c, 9, 42, 0
2, 114000, Note_on_c, 9, 38, 90
2, 114000, Note_on_c, 9, 42, 100
2, 114015, Note_on_c, 9, 42, 0
2, 114015, Note_on_c, 9, 38, 0
2, 114120, Note_on_c, 9, 42, 100
2, 114120, Note_on_c, 9, 36, 69
2, 114135, Note_on_c, 9, 36, 0
2, 114135, Note_on_c, 9, 42, 0
2, 114240, Note_on_c, 9, 42, 100
2, 114240, Note_on_c, 9, 36, 69
2, 114255, Note_on_c, 9, 36, 0
2, 114255, Note_on_c, 9, 42, 0
2, 114360, Note_on_c, 9, 42, 100
2, 114375, Note_on_c, 9, 42, 0
2, 114480, Note_on_c, 9, 42, 100
2, 114480, Note_on_c, 9, 38, 90
2, 114495, Note_on_c, 9, 38, 0
2, 114495, Note_on_c, 9, 42, 0
2, 114600, Note_on_c, 9, 42, 100
2, 114615, Note_on_c, 9, 42, 0
2, 114720, Note_on_c, 9, 42, 100
2, 114720, Note_on_c, 9, 36, 69
2, 114735, Note_on_c, 9, 36, 0
2, 114735, Note_on_c, 9, 42, 0
2, 114840, Note_on_c, 9, 42, 100
2, 114855, Note_on_c, 9, 42, 0
2, 114960, Note_on_c, 9, 38, 90
2, 114960, Note_on_c, 9, 42, 100
2, 114975, Note_on_c, 9, 42, 0
2, 114975, Note_on_c, 9, 38, 0
2, 115080, Note_on_c, 9, 42, 100
2, 115080, Note_on_c, 9, 36, 69
2, 115095, Note_on_c, 9, 36, 0
2, 115095, Note_on_c, 9, 42, 0
2, 115200, Note_on_c, 9, 42, 100
2, 115200, Note_on_c, 9, 36, 69
2, 115215, Note_on_c, 9, 36, 0
2, 115215, Note_on_c, 9, 42, 0
2, 115320, Note_on_c, 9, 42, 100
2, 115335, Note_on_c, 9, 42, 0
2, 115440, Note_on_c, 9, 42, 100
2, 115440, Note_on_c, 9, 38, 90
2, 115455, Note_on_c, 9, 38, 0
2, 115455, Note_on_c, 9, 42, 0
2, 115560, Note_on_c, 9, 42, 100
2, 115575, Note_on_c, 9, 42, 0
2, 115680, Note_on_c, 9, 42, 100
2, 115680, Note_on_c, 9, 36, 69
2, 115695, Note_on_c, 9, 36, 0
2, 115695, Note_on_c, 9, 42, 0
2, 115800, Note_on_c, 9, 42, 100
2, 115815, Note_on_c, 9, 42, 0
2, 115920, Note_on_c, 9, 38, 90
2, 115920, Note_on_c, 9, 42, 100
2, 115935, Note_on_c, 9, 42, 0
2, 115935, Note_on_c, 9, 38, 0
2, 116040, Note_on_c, 9, 42, 100
2, 116040, Note_on_c, 9, 36, 69
2, 116055, Note_on_c, 9, 36, 0
2, 116055, Note_on_c, 9, 42, 0
2, 116160, Note_on_c, 9, 42, 100
2, 116160, Note_on_c, 9, 36, 69
2, 116175, Note_on_c, 9, 36, 0
2, 116175, Note_on_c, 9, 42, 0
2, 116215, Control_c, 9, 7, 89
2, 116280, Note_on_c, 9, 42, 100
2, 116295, Note_on_c, 9, 42, 0
2, 116400, Note_on_c, 9, 42, 100
2, 116400, Note_on_c, 9, 38, 90
2, 116415, Note_on_c, 9, 38, 0
2, 116415, Note_on_c, 9, 42, 0
2, 116420, Control_c, 9, 7, 88
2, 116520, Note_on_c, 9, 42, 100
2, 116523, Control_c, 9, 7, 87
2, 116535, Note_on_c, 9, 42, 0
2, 116594, Control_c, 9, 7, 85
2, 116640, Note_on_c, 9, 42, 100
2, 116640, Note_on_c, 9, 36, 69
2, 116655, Note_on_c, 9, 36, 0
2, 116655, Note_on_c, 9, 42, 0
2, 116760, Note_on_c, 9, 42, 100
2, 116765, Control_c, 9, 7, 84
2, 116775, Note_on_c, 9, 42, 0
2, 116810, Control_c, 9, 7, 83
2, 116880, Note_on_c, 9, 38, 90
2, 116880, Note_on_c, 9, 42, 100
2, 116895, Note_on_c, 9, 42, 0
2, 116895, Note_on_c, 9, 38, 0
2, 116970, Control_c, 9, 7, 82
2, 117000, Note_on_c, 9, 42, 100
2, 117000, Note_on_c, 9, 36, 69
2, 117015, Note_on_c, 9, 36, 0
2, 117015, Note_on_c, 9, 42, 0
2, 117055, Control_c, 9, 7, 81
2, 117120, Note_on_c, 9, 42, 100
2, 117120, Note_on_c, 9, 36, 69
2, 117135, Note_on_c, 9, 36, 0
2, 117135, Note_on_c, 9, 42, 0
2, 117205, Control_c, 9, 7, 80
2, 117240, Note_on_c, 9, 42, 100
2, 117255, Note_on_c, 9, 42, 0
2, 117360, Note_on_c, 9, 42, 100
2, 117360, Note_on_c, 9, 38, 90
2, 117375, Note_on_c, 9, 38, 0
2, 117375, Note_on_c, 9, 42, 0
2, 117435, Control_c, 9, 7, 78
2, 117480, Note_on_c, 9, 42, 100
2, 117495, Note_on_c, 9, 42, 0
2, 117600, Note_on_c, 9, 42, 100
2, 117600, Note_on_c, 9, 36, 69
2, 117615, Note_on_c, 9, 36, 0
2, 117615, Note_on_c, 9, 42, 0
2, 117630, Control_c, 9, 7, 77
2, 117720, Note_on_c, 9, 42, 100
2, 117735, Note_on_c, 9, 42, 0
2, 117760, Control_c, 9, 7, 76
2, 117839, Control_c, 9, 7, 75
2, 117840, Note_on_c, 9, 38, 90
2, 117840, Note_on_c, 9, 42, 100
2, 117855, Note_on_c, 9, 42, 0
2, 117855, Note_on_c, 9, 38, 0
2, 117960, Note_on_c, 9, 42, 100
2, 117960, Note_on_c, 9, 36, 69
2, 117975, Note_on_c, 9, 36, 0
2, 117975, Note_on_c, 9, 42, 0
2, 118040, Control_c, 9, 7, 74
2, 118080, Note_on_c, 9, 42, 100
2, 118080, Note_on_c, 9, 36, 69
2, 118095, Note_on_c, 9, 36, 0
2, 118095, Note_on_c, 9, 42, 0
2, 118200, Note_on_c, 9, 42, 100
2, 118215, Note_on_c, 9, 42, 0
2, 118287, Control_c, 9, 7, 73
2, 118320, Note_on_c, 9, 42, 100
2, 118320, Note_on_c, 9, 38, 90
2, 118335, Note_on_c, 9, 38, 0
2, 118335, Note_on_c, 9, 42, 0
2, 118410, Control_c, 9, 7, 71
2, 118440, Note_on_c, 9, 42, 100
2, 118455, Note_on_c, 9, 42, 0
2, 118560, Note_on_c, 9, 42, 100
2, 118560, Note_on_c, 9, 36, 69
2, 118575, Note_on_c, 9, 36, 0
2, 118575, Note_on_c, 9, 42, 0
2, 118664, Control_c, 9, 7, 70
2, 118680, Note_on_c, 9, 42, 100
2, 118695, Note_on_c, 9, 42, 0
2, 118800, Note_on_c, 9, 38, 90
2, 118800, Note_on_c, 9, 42, 100
2, 118801, Control_c, 9, 7, 69
2, 118815, Note_on_c, 9, 42, 0
2, 118815, Note_on_c, 9, 38, 0
2, 118920, Note_on_c, 9, 42, 100
2, 118920, Note_on_c, 9, 36, 69
2, 118935, Note_on_c, 9, 36, 0
2, 118935, Note_on_c, 9, 42, 0
2, 118970, Control_c, 9, 7, 68
2, 119040, Note_on_c, 9, 42, 100
2, 119040, Note_on_c, 9, 36, 69
2, 119055, Note_on_c, 9, 36, 0
2, 119055, Note_on_c, 9, 42, 0
2, 119055, Control_c, 9, 7, 67
2, 119160, Note_on_c, 9, 42, 100
2, 119175, Note_on_c, 9, 42, 0
2, 119190, Control_c, 9, 7, 66
2, 119280, Note_on_c, 9, 42, 100
2, 119280, Note_on_c, 9, 38, 90
2, 119295, Note_on_c, 9, 38, 0
2, 119295, Note_on_c, 9, 42, 0
2, 119360, Control_c, 9, 7, 64
2, 119400, Note_on_c, 9, 42, 100
2, 119415, Note_on_c, 9, 42, 0
2, 119520, Note_on_c, 9, 42, 100
2, 119520, Note_on_c, 9, 36, 69
2, 119535, Note_on_c, 9, 36, 0
2, 119535, Note_on_c, 9, 42, 0
2, 119570, Control_c, 9, 7, 63
2, 119640, Note_on_c, 9, 42, 100
2, 119655, Note_on_c, 9, 42, 0
2, 119760, Note_on_c, 9, 38, 90
2, 119760, Note_on_c, 9, 42, 100
2, 119775, Note_on_c, 9, 42, 0
2, 119775, Note_on_c, 9, 38, 0
2, 119870, Control_c, 9, 7, 62
2, 119880, Note_on_c, 9, 42, 100
2, 119880, Note_on_c, 9, 36, 69
2, 119895, Note_on_c, 9, 36, 0
2, 119895, Note_on_c, 9, 42, 0
2, 120000, Note_on_c, 9, 42, 100
2, 120000, Note_on_c, 9, 36, 69
2, 120015, Note_on_c, 9, 36, 0
2, 120015, Note_on_c, 9, 42, 0
2, 120105, Control_c, 9, 7, 61
2, 120120, Note_on_c, 9, 42, 100
2, 120135, Note_on_c, 9, 42, 0
2, 120165, Control_c, 9, 7, 59
2, 120240, Note_on_c, 9, 42, 100
2, 120240, Note_on_c, 9, 38, 90
2, 120255, Note_on_c, 9, 38, 0
2, 120255, Note_on_c, 9, 42, 0
2, 120360, Note_on_c, 9, 42, 100
2, 120375, Note_on_c, 9, 42, 0
2, 120420, Control_c, 9, 7, 57
2, 120480, Note_on_c, 9, 42, 100
2, 120480, Note_on_c, 9, 36, 69
2, 120495, Note_on_c, 9, 36, 0
2, 120495, Note_on_c, 9, 42, 0
2, 120600, Note_on_c, 9, 42, 100
2, 120615, Note_on_c, 9, 42, 0
2, 120620, Control_c, 9, 7, 56
2, 120665, Control_c, 9, 7, 55
2, 120720, Note_on_c, 9, 38, 90
2, 120720, Note_on_c, 9, 42, 100
2, 120735, Note_on_c, 9, 42, 0
2, 120735, Note_on_c, 9, 38, 0
2, 120800, Control_c, 9, 7, 54
2, 120840, Note_on_c, 9, 42, 100
2, 120840, Note_on_c, 9, 36, 69
2, 120855, Note_on_c, 9, 36, 0
2, 120855, Note_on_c, 9, 42, 0
2, 120960, Note_on_c, 9, 42, 100
2, 120960, Note_on_c, 9, 36, 69
2, 120975, Note_on_c, 9, 36, 0
2, 120975, Note_on_c, 9, 42, 0
2, 120980, Control_c, 9, 7, 52
2, 121080, Note_on_c, 9, 42, 100
2, 121095, Note_on_c, 9, 42, 0
2, 121165, Control_c, 9, 7, 50
2, 121200, Note_on_c, 9, 42, 100
2, 121200, Note_on_c, 9, 38, 90
2, 121215, Note_on_c, 9, 38, 0
2, 121215, Note_on_c, 9, 42, 0
2, 121320, Note_on_c, 9, 42, 100
2, 121335, Note_on_c, 9, 42, 0
2, 121440, Note_on_c, 9, 42, 100
2, 121440, Note_on_c, 9, 36, 69
2, 121455, Note_on_c, 9, 36, 0
2, 121455, Note_on_c, 9, 42, 0
2, 121470, Control_c, 9, 7, 49
2, 121540, Control_c, 9, 7, 48
2, 121560, Note_on_c, 9, 42, 100
2, 121575, Note_on_c, 9, 42, 0
2, 121680, Note_on_c, 9, 38, 90
2, 121680, Note_on_c, 9, 42, 100
2, 121695, Note_on_c, 9, 42, 0
2, 121695, Note_on_c, 9, 38, 0
2, 121800, Note_on_c, 9, 42, 100
2, 121800, Note_on_c, 9, 36, 69
2, 121815, Note_on_c, 9, 36, 0
2, 121815, Note_on_c, 9, 42, 0
2, 121860, Control_c, 9, 7, 47
2, 121920, Note_on_c, 9, 42, 100
2, 121920, Note_on_c, 9, 36, 69
2, 121921, Control_c, 9, 7, 45
2, 121935, Note_on_c, 9, 36, 0
2, 121935, Note_on_c, 9, 42, 0
2, 122040, Note_on_c, 9, 42, 100
2, 122055, Note_on_c, 9, 42, 0
2, 122140, Control_c, 9, 7, 43
2, 122160, Note_on_c, 9, 42, 100
2, 122160, Note_on_c, 9, 38, 90
2, 122175, Note_on_c, 9, 38, 0
2, 122175, Note_on_c, 9, 42, 0
2, 122280, Note_on_c, 9, 42, 100
2, 122295, Note_on_c, 9, 42, 0
2, 122400, Note_on_c, 9, 42, 100
2, 122400, Note_on_c, 9, 36, 69
2, 122415, Note_on_c, 9, 36, 0
2, 122415, Note_on_c, 9, 42, 0
2, 122457, Control_c, 9, 7, 42
2, 122520, Note_on_c, 9, 42, 100
2, 122535, Note_on_c, 9, 42, 0
2, 122640, Note_on_c, 9, 38, 90
2, 122640, Note_on_c, 9, 42, 100
2, 122655, Note_on_c, 9, 42, 0
2, 122655, Note_on_c, 9, 38, 0
2, 122660, Control_c, 9, 7, 41
2, 122760, Note_on_c, 9, 42, 100
2, 122760, Note_on_c, 9, 36, 69
2, 122775, Note_on_c, 9, 36, 0
2, 122775, Note_on_c, 9, 42, 0
2, 122835, Control_c, 9, 7, 40
2, 122880, Note_on_c, 9, 42, 100
2, 122880, Note_on_c, 9, 36, 69
2, 122895, Note_on_c, 9, 36, 0
2, 122895, Note_on_c, 9, 42, 0
2, 123000, Note_on_c, 9, 42, 100
2, 123015, Note_on_c, 9, 42, 0
2, 123043, Control_c, 9, 7, 38
2, 123098, Control_c, 9, 7, 37
2, 123120, Note_on_c, 9, 42, 100
2, 123120, Note_on_c, 9, 38, 90
2, 123135, Note_on_c, 9, 38, 0
2, 123135, Note_on_c, 9, 42, 0
2, 123240, Note_on_c, 9, 42, 100
2, 123255, Note_on_c, 9, 42, 0
2, 123285, Control_c, 9, 7, 36
2, 123360, Note_on_c, 9, 42, 100
2, 123360, Note_on_c, 9, 36, 69
2, 123375, Note_on_c, 9, 36, 0
2, 123375, Note_on_c, 9, 42, 0
2, 123480, Control_c, 9, 7, 35
2, 123480, Note_on_c, 9, 42, 100
2, 123495, Note_on_c, 9, 42, 0
2, 123600, Note_on_c, 9, 38, 90
2, 123600, Note_on_c, 9, 42, 100
2, 123615, Note_on_c, 9, 42, 0
2, 123615, Note_on_c, 9, 38, 0
2, 123720, Note_on_c, 9, 42, 100
2, 123720, Note_on_c, 9, 36, 69
2, 123735, Note_on_c, 9, 36, 0
2, 123735, Note_on_c, 9, 42, 0
2, 123760, Control_c, 9, 7, 34
2, 123840, Note_on_c, 9, 42, 100
2, 123840, Note_on_c, 9, 36, 69
2, 123855, Note_on_c, 9, 36, 0
2, 123855, Note_on_c, 9, 42, 0
2, 123895, Control_c, 9, 7, 33
2, 123960, Note_on_c, 9, 42, 100
2, 123975, Note_on_c, 9, 42, 0
2, 124055, Control_c, 9, 7, 31
2, 124080, Note_on_c, 9, 42, 100
2, 124080, Note_on_c, 9, 38, 90
2, 124095, Note_on_c, 9, 38, 0
2, 124095, Note_on_c, 9, 42, 0
2, 124190, Control_c, 9, 7, 30
2, 124200, Note_on_c, 9, 42, 100
2, 124215, Note_on_c, 9, 42, 0
2, 124320, Note_on_c, 9, 42, 100
2, 124320, Note_on_c, 9, 36, 69
2, 124335, Note_on_c, 9, 36, 0
2, 124335, Note_on_c, 9, 42, 0
2, 124392, Control_c, 9, 7, 29
2, 124440, Note_on_c, 9, 42, 100
2, 124455, Note_on_c, 9, 42, 0
2, 124560, Note_on_c, 9, 38, 90
2, 124560, Note_on_c, 9, 42, 100
2, 124575, Note_on_c, 9, 42, 0
2, 124575, Note_on_c, 9, 38, 0
2, 124590, Control_c, 9, 7, 28
2, 124680, Note_on_c, 9, 42, 100
2, 124680, Note_on_c, 9, 36, 69
2, 124695, Note_on_c, 9, 36, 0
2, 124695, Note_on_c, 9, 42, 0
2, 124745, Control_c, 9, 7, 27
2, 124800, Note_on_c, 9, 42, 100
2, 124800, Note_on_c, 9, 36, 69
2, 124815, Note_on_c, 9, 36, 0
2, 124815, Note_on_c, 9, 42, 0
2, 124920, Note_on_c, 9, 42, 100
2, 124935, Note_on_c, 9, 42, 0
2, 124980, Control_c, 9, 7, 26
2, 125040, Note_on_c, 9, 42, 100
2, 125040, Note_on_c, 9, 38, 90
2, 125055, Note_on_c, 9, 38, 0
2, 125055, Note_on_c, 9, 42, 0
2, 125160, Note_on_c, 9, 42, 100
2, 125175, Note_on_c, 9, 42, 0
2, 125215, Control_c, 9, 7, 24
2, 125280, Note_on_c, 9, 42, 100
2, 125280, Note_on_c, 9, 36, 69
2, 125295, Note_on_c, 9, 36, 0
2, 125295, Note_on_c, 9, 42, 0
2, 125400, Note_on_c, 9, 42, 100
2, 125415, Note_on_c, 9, 42, 0
2, 125420, Control_c, 9, 7, 23
2, 125480, Control_c, 9, 7, 22
2, 125520, Note_on_c, 9, 38, 90
2, 125520, Note_on_c, 9, 42, 100
2, 125535, Note_on_c, 9, 42, 0
2, 125535, Note_on_c, 9, 38, 0
2, 125640, Note_on_c, 9, 42, 100
2, 125640, Note_on_c, 9, 36, 69
2, 125655, Note_on_c, 9, 36, 0
2, 125655, Note_on_c, 9, 42, 0
2, 125760, Note_on_c, 9, 42, 100
2, 125760, Note_on_c, 9, 36, 69
2, 125775, Note_on_c, 9, 36, 0
2, 125775, Note_on_c, 9, 42, 0
2, 125847, Control_c, 9, 7, 21
2, 125880, Note_on_c, 9, 42, 100
2, 125895, Note_on_c, 9, 42, 0
2, 125895, Control_c, 9, 7, 19
2, 126000, Note_on_c, 9, 42, 100
2, 126000, Note_on_c, 9, 38, 90
2, 126015, Note_on_c, 9, 38, 0
2, 126015, Note_on_c, 9, 42, 0
2, 126120, Note_on_c, 9, 42, 100
2, 126135, Note_on_c, 9, 42, 0
2, 126151, Control_c, 9, 7, 17
2, 126240, Note_on_c, 9, 42, 100
2, 126240, Note_on_c, 9, 36, 69
2, 126255, Note_on_c, 9, 36, 0
2, 126255, Note_on_c, 9, 42, 0
2, 126360, Note_on_c, 9, 42, 100
2, 126375, Note_on_c, 9, 42, 0
2, 126410, Control_c, 9, 7, 16
2, 126480, Note_on_c, 9, 38, 90
2, 126480, Note_on_c, 9, 42, 100
2, 126495, Note_on_c, 9, 42, 0
2, 126495, Note_on_c, 9, 38, 0
2, 126600, Note_on_c, 9, 42, 100
2, 126600, Note_on_c, 9, 36, 69
2, 126607, Control_c, 9, 7, 15
2, 126615, Note_on_c, 9, 36, 0
2, 126615, Note_on_c, 9, 42, 0
2, 126720, Note_on_c, 9, 42, 100
2, 126720, Note_on_c, 9, 36, 69
2, 126735, Note_on_c, 9, 36, 0
2, 126735, Note_on_c, 9, 42, 0
2, 126785, Control_c, 9, 7, 14
2, 126840, Note_on_c, 9, 42, 100
2, 126855, Note_on_c, 9, 42, 0
2, 126960, Note_on_c, 9, 42, 100
2, 126960, Note_on_c, 9, 38, 90
2, 126975, Note_on_c, 9, 38, 0
2, 126975, Note_on_c, 9, 42, 0
2, 127025, Control_c, 9, 7, 12
2, 127080, Note_on_c, 9, 42, 100
2, 127095, Note_on_c, 9, 42, 0
2, 127200, Note_on_c, 9, 42, 100
2, 127200, Note_on_c, 9, 36, 69
2, 127215, Note_on_c, 9, 36, 0
2, 127215, Note_on_c, 9, 42, 0
2, 127320, Note_on_c, 9, 42, 100
2, 127335, Note_on_c, 9, 42, 0
2, 127350, Control_c, 9, 7, 10
2, 127440, Note_on_c, 9, 38, 90
2, 127440, Note_on_c, 9, 42, 100
2, 127455, Note_on_c, 9, 42, 0
2, 127455, Note_on_c, 9, 38, 0
2, 127560, Note_on_c, 9, 42, 100
2, 127560, Note_on_c, 9, 36, 69
2, 127570, Control_c, 9, 7, 9
2, 127575, Note_on_c, 9, 36, 0
2, 127575, Note_on_c, 9, 42, 0
2, 127635, Control_c, 9, 7, 8
2, 127680, Note_on_c, 9, 42, 100
2, 127680, Note_on_c, 9, 36, 69
2, 127695, Note_on_c, 9, 36, 0
2, 127695, Note_on_c, 9, 42, 0
2, 127800, Note_on_c, 9, 42, 100
2, 127815, Note_on_c, 9, 42, 0
2, 127820, Control_c, 9, 7, 7
2, 127920, Note_on_c, 9, 42, 100
2, 127920, Note_on_c, 9, 38, 90
2, 127935, Note_on_c, 9, 38, 0
2, 127935, Note_on_c, 9, 42, 0
2, 128040, Note_on_c, 9, 42, 100
2, 128055, Note_on_c, 9, 42, 0
2, 128160, Note_on_c, 9, 42, 100
2, 128160, Note_on_c, 9, 36, 69
2, 128163, Control_c, 9, 7, 5
2, 128175, Note_on_c, 9, 36, 0
2, 128175, Note_on_c, 9, 42, 0
2, 128280, Note_on_c, 9, 42, 100
2, 128295, Note_on_c, 9, 42, 0
2, 128385, Control_c, 9, 7, 3
2, 128400, Note_on_c, 9, 38, 90
2, 128400, Note_on_c, 9, 42, 100
2, 128415, Note_on_c, 9, 42, 0
2, 128415, Note_on_c, 9, 38, 0
2, 128520, Note_on_c, 9, 42, 100
2, 128520, Note_on_c, 9, 36, 69
2, 128535, Note_on_c, 9, 36, 0
2, 128535, Note_on_c, 9, 42, 0
2, 128565, Control_c, 9, 7, 2
2, 128640, Note_on_c, 9, 42, 100
2, 128640, Note_on_c, 9, 36, 69
2, 128655, Note_on_c, 9, 36, 0
2, 128655, Note_on_c, 9, 42, 0
2, 128760, Note_on_c, 9, 42, 100
2, 128775, Note_on_c, 9, 42, 0
2, 128880, Note_on_c, 9, 42, 100
2, 128880, Note_on_c, 9, 38, 90
2, 128886, Control_c, 9, 7, 1
2, 128895, Note_on_c, 9, 38, 0
2, 128895, Note_on_c, 9, 42, 0
2, 128935, Control_c, 9, 7, 0
2, 129000, Note_on_c, 9, 42, 100
2, 129015, Note_on_c, 9, 42, 0
2, 129120, Note_on_c, 9, 42, 100
2, 129120, Note_on_c, 9, 36, 69
2, 129135, Note_on_c, 9, 36, 0
2, 129135, Note_on_c, 9, 42, 0
2, 129240, Note_on_c, 9, 42, 100
2, 129255, Note_on_c, 9, 42, 0
2, 129360, Note_on_c, 9, 38, 90
2, 129360, Note_on_c, 9, 42, 100
2, 129375, Note_on_c, 9, 42, 0
2, 129375, Note_on_c, 9, 38, 0
2, 129480, Note_on_c, 9, 42, 100
2, 129480, Note_on_c, 9, 36, 69
2, 129495, Note_on_c, 9, 36, 0
2, 129495, Note_on_c, 9, 42, 0
2, 129495, End_track
3, 0, Start_track
3, 0, MIDI_port, 0
3, 0, Title_t, "WarmPad"
3, 120, Control_c, 0, 0, 0
3, 121, Control_c, 0, 32, 0
3, 122, Program_c, 0, 89
3, 123, Control_c, 0, 7, 95
3, 123, Control_c, 0, 10, 27
3, 480, Note_on_c, 0, 60, 68
3, 480, Note_on_c, 0, 57, 68
3, 480, Note_on_c, 0, 64, 68
3, 1410, Note_on_c, 0, 64, 0
3, 1410, Note_on_c, 0, 57, 0
3, 1410, Note_on_c, 0, 60, 0
3, 1410, Note_on_c, 0, 62, 67
3, 1410, Note_on_c, 0, 59, 67
3, 1410, Note_on_c, 0, 55, 67
3, 2370, Note_on_c, 0, 55, 0
3, 2370, Note_on_c, 0, 59, 0
3, 2370, Note_on_c, 0, 62, 0
3, 2370, Note_on_c, 0, 62, 68
3, 2370, Note_on_c, 0, 57, 68
3, 2370, Note_on_c, 0, 54, 68
3, 4290, Note_on_c, 0, 54, 0
3, 4290, Note_on_c, 0, 57, 0
3, 4290, Note_on_c, 0, 62, 0
3, 4320, Note_on_c, 0, 60, 68
3, 4320, Note_on_c, 0, 57, 68
3, 4320, Note_on_c, 0, 64, 68
3, 5250, Note_on_c, 0, 64, 0
3, 5250, Note_on_c, 0, 57, 0
3, 5250, Note_on_c, 0, 60, 0
3, 5250, Note_on_c, 0, 62, 67
3, 5250, Note_on_c, 0, 59, 67
3, 5250, Note_on_c, 0, 55, 67
3, 6210, Note_on_c, 0, 55, 0
3, 6210, Note_on_c, 0, 59, 0
3, 6210, Note_on_c, 0, 62, 0
3, 6210, Note_on_c, 0, 62, 68
3, 6210, Note_on_c, 0, 57, 68
3, 6210, Note_on_c, 0, 54, 68
3, 8130, Note_on_c, 0, 54, 0
3, 8130, Note_on_c, 0, 57, 0
3, 8130, Note_on_c, 0, 62, 0
3, 8160, Note_on_c, 0, 60, 68
3, 8160, Note_on_c, 0, 57, 68
3, 8160, Note_on_c, 0, 64, 68
3, 9090, Note_on_c, 0, 64, 0
3, 9090, Note_on_c, 0, 57, 0
3, 9090, Note_on_c, 0, 60, 0
3, 9090, Note_on_c, 0, 62, 67
3, 9090, Note_on_c, 0, 59, 67
3, 9090, Note_on_c, 0, 55, 67
3, 10050, Note_on_c, 0, 55, 0
3, 10050, Note_on_c, 0, 59, 0
3, 10050, Note_on_c, 0, 62, 0
3, 10050, Note_on_c, 0, 62, 68
3, 10050, Note_on_c, 0, 57, 68
3, 10050, Note_on_c, 0, 54, 68
3, 11970, Note_on_c, 0, 54, 0
3, 11970, Note_on_c, 0, 57, 0
3, 11970, Note_on_c, 0, 62, 0
3, 12000, Note_on_c, 0, 60, 68
3, 12000, Note_on_c, 0, 57, 68
3, 12000, Note_on_c, 0, 64, 68
3, 12930, Note_on_c, 0, 64, 0
3, 12930, Note_on_c, 0, 57, 0
3, 12930, Note_on_c, 0, 60, 0
3, 12930, Note_on_c, 0, 62, 67
3, 12930, Note_on_c, 0, 59, 67
3, 12930, Note_on_c, 0, 55, 67
3, 13890, Note_on_c, 0, 55, 0
3, 13890, Note_on_c, 0, 59, 0
3, 13890, Note_on_c, 0, 62, 0
3, 13890, Note_on_c, 0, 62, 68
3, 13890, Note_on_c, 0, 57, 68
3, 13890, Note_on_c, 0, 54, 68
3, 15810, Note_on_c, 0, 54, 0
3, 15810, Note_on_c, 0, 57, 0
3, 15810, Note_on_c, 0, 62, 0
3, 15840, Note_on_c, 0, 60, 68
3, 15840, Note_on_c, 0, 57, 68
3, 15840, Note_on_c, 0, 64, 68
3, 16770, Note_on_c, 0, 64, 0
3, 16770, Note_on_c, 0, 57, 0
3, 16770, Note_on_c, 0, 60, 0
3, 16770, Note_on_c, 0, 62, 67
3, 16770, Note_on_c, 0, 59, 67
3, 16770, Note_on_c, 0, 55, 67
3, 17730, Note_on_c, 0, 55, 0
3, 17730, Note_on_c, 0, 59, 0
3, 17730, Note_on_c, 0, 62, 0
3, 17730, Note_on_c, 0, 62, 68
3, 17730, Note_on_c, 0, 57, 68
3, 17730, Note_on_c, 0, 54, 68
3, 19650, Note_on_c, 0, 54, 0
3, 19650, Note_on_c, 0, 57, 0
3, 19650, Note_on_c, 0, 62, 0
3, 19680, Note_on_c, 0, 60, 68
3, 19680, Note_on_c, 0, 57, 68
3, 19680, Note_on_c, 0, 64, 68
3, 20610, Note_on_c, 0, 64, 0
3, 20610, Note_on_c, 0, 57, 0
3, 20610, Note_on_c, 0, 60, 0
3, 20610, Note_on_c, 0, 62, 67
3, 20610, Note_on_c, 0, 59, 67
3, 20610, Note_on_c, 0, 55, 67
3, 21570, Note_on_c, 0, 55, 0
3, 21570, Note_on_c, 0, 59, 0
3, 21570, Note_on_c, 0, 62, 0
3, 21570, Note_on_c, 0, 62, 68
3, 21570, Note_on_c, 0, 57, 68
3, 21570, Note_on_c, 0, 54, 68
3, 23490, Note_on_c, 0, 54, 0
3, 23490, Note_on_c, 0, 57, 0
3, 23490, Note_on_c, 0, 62, 0
3, 23520, Note_on_c, 0, 60, 68
3, 23520, Note_on_c, 0, 57, 68
3, 23520, Note_on_c, 0, 64, 68
3, 24450, Note_on_c, 0, 64, 0
3, 24450, Note_on_c, 0, 57, 0
3, 24450, Note_on_c, 0, 60, 0
3, 24450, Note_on_c, 0, 62, 67
3, 24450, Note_on_c, 0, 59, 67
3, 24450, Note_on_c, 0, 55, 67
3, 25410, Note_on_c, 0, 55, 0
3, 25410, Note_on_c, 0, 59, 0
3, 25410, Note_on_c, 0, 62, 0
3, 25410, Note_on_c, 0, 62, 68
3, 25410, Note_on_c, 0, 57, 68
3, 25410, Note_on_c, 0, 54, 68
3, 27330, Note_on_c, 0, 54, 0
3, 27330, Note_on_c, 0, 57, 0
3, 27330, Note_on_c, 0, 62, 0
3, 27360, Note_on_c, 0, 60, 68
3, 27360, Note_on_c, 0, 57, 68
3, 27360, Note_on_c, 0, 64, 68
3, 28290, Note_on_c, 0, 64, 0
3, 28290, Note_on_c, 0, 57, 0
3, 28290, Note_on_c, 0, 60, 0
3, 28290, Note_on_c, 0, 62, 67
3, 28290, Note_on_c, 0, 59, 67
3, 28290, Note_on_c, 0, 55, 67
3, 29250, Note_on_c, 0, 55, 0
3, 29250, Note_on_c, 0, 59, 0
3, 29250, Note_on_c, 0, 62, 0
3, 29250, Note_on_c, 0, 62, 68
3, 29250, Note_on_c, 0, 57, 68
3, 29250, Note_on_c, 0, 54, 68
3, 31170, Note_on_c, 0, 54, 0
3, 31170, Note_on_c, 0, 57, 0
3, 31170, Note_on_c, 0, 62, 0
3, 31200, Note_on_c, 0, 60, 68
3, 31200, Note_on_c, 0, 57, 68
3, 31200, Note_on_c, 0, 64, 68
3, 32130, Note_on_c, 0, 64, 0
3, 32130, Note_on_c, 0, 57, 0
3, 32130, Note_on_c, 0, 60, 0
3, 32130, Note_on_c, 0, 62, 67
3, 32130, Note_on_c, 0, 59, 67
3, 32130, Note_on_c, 0, 55, 67
3, 33090, Note_on_c, 0, 55, 0
3, 33090, Note_on_c, 0, 59, 0
3, 33090, Note_on_c, 0, 62, 0
3, 33090, Note_on_c, 0, 62, 68
3, 33090, Note_on_c, 0, 57, 68
3, 33090, Note_on_c, 0, 54, 68
3, 35010, Note_on_c, 0, 54, 0
3, 35010, Note_on_c, 0, 57, 0
3, 35010, Note_on_c, 0, 62, 0
3, 35040, Note_on_c, 0, 60, 68
3, 35040, Note_on_c, 0, 57, 68
3, 35040, Note_on_c, 0, 64, 68
3, 35970, Note_on_c, 0, 64, 0
3, 35970, Note_on_c, 0, 57, 0
3, 35970, Note_on_c, 0, 60, 0
3, 35970, Note_on_c, 0, 62, 67
3, 35970, Note_on_c, 0, 59, 67
3, 35970, Note_on_c, 0, 55, 67
3, 36930, Note_on_c, 0, 55, 0
3, 36930, Note_on_c, 0, 59, 0
3, 36930, Note_on_c, 0, 62, 0
3, 36930, Note_on_c, 0, 62, 68
3, 36930, Note_on_c, 0, 57, 68
3, 36930, Note_on_c, 0, 54, 68
3, 38850, Note_on_c, 0, 54, 0
3, 38850, Note_on_c, 0, 57, 0
3, 38850, Note_on_c, 0, 62, 0
3, 38880, Note_on_c, 0, 60, 68
3, 38880, Note_on_c, 0, 57, 68
3, 38880, Note_on_c, 0, 64, 68
3, 39810, Note_on_c, 0, 64, 0
3, 39810, Note_on_c, 0, 57, 0
3, 39810, Note_on_c, 0, 60, 0
3, 39810, Note_on_c, 0, 62, 67
3, 39810, Note_on_c, 0, 59, 67
3, 39810, Note_on_c, 0, 55, 67
3, 40770, Note_on_c, 0, 55, 0
3, 40770, Note_on_c, 0, 59, 0
3, 40770, Note_on_c, 0, 62, 0
3, 40770, Note_on_c, 0, 62, 68
3, 40770, Note_on_c, 0, 57, 68
3, 40770, Note_on_c, 0, 54, 68
3, 42690, Note_on_c, 0, 54, 0
3, 42690, Note_on_c, 0, 57, 0
3, 42690, Note_on_c, 0, 62, 0
3, 42720, Note_on_c, 0, 60, 68
3, 42720, Note_on_c, 0, 57, 68
3, 42720, Note_on_c, 0, 64, 68
3, 43650, Note_on_c, 0, 64, 0
3, 43650, Note_on_c, 0, 57, 0
3, 43650, Note_on_c, 0, 60, 0
3, 43650, Note_on_c, 0, 62, 67
3, 43650, Note_on_c, 0, 59, 67
3, 43650, Note_on_c, 0, 55, 67
3, 44610, Note_on_c, 0, 55, 0
3, 44610, Note_on_c, 0, 59, 0
3, 44610, Note_on_c, 0, 62, 0
3, 44610, Note_on_c, 0, 62, 68
3, 44610, Note_on_c, 0, 57, 68
3, 44610, Note_on_c, 0, 54, 68
3, 46530, Note_on_c, 0, 54, 0
3, 46530, Note_on_c, 0, 57, 0
3, 46530, Note_on_c, 0, 62, 0
3, 46560, Note_on_c, 0, 60, 68
3, 46560, Note_on_c, 0, 57, 68
3, 46560, Note_on_c, 0, 64, 68
3, 47490, Note_on_c, 0, 64, 0
3, 47490, Note_on_c, 0, 57, 0
3, 47490, Note_on_c, 0, 60, 0
3, 47490, Note_on_c, 0, 62, 67
3, 47490, Note_on_c, 0, 59, 67
3, 47490, Note_on_c, 0, 55, 67
3, 48450, Note_on_c, 0, 55, 0
3, 48450, Note_on_c, 0, 59, 0
3, 48450, Note_on_c, 0, 62, 0
3, 48450, Note_on_c, 0, 62, 68
3, 48450, Note_on_c, 0, 57, 68
3, 48450, Note_on_c, 0, 54, 68
3, 50370, Note_on_c, 0, 54, 0
3, 50370, Note_on_c, 0, 57, 0
3, 50370, Note_on_c, 0, 62, 0
3, 50400, Note_on_c, 0, 60, 68
3, 50400, Note_on_c, 0, 57, 68
3, 50400, Note_on_c, 0, 64, 68
3, 51330, Note_on_c, 0, 64, 0
3, 51330, Note_on_c, 0, 57, 0
3, 51330, Note_on_c, 0, 60, 0
3, 51330, Note_on_c, 0, 62, 67
3, 51330, Note_on_c, 0, 59, 67
3, 51330, Note_on_c, 0, 55, 67
3, 52290, Note_on_c, 0, 55, 0
3, 52290, Note_on_c, 0, 59, 0
3, 52290, Note_on_c, 0, 62, 0
3, 52290, Note_on_c, 0, 62, 68
3, 52290, Note_on_c, 0, 57, 68
3, 52290, Note_on_c, 0, 54, 68
3, 54210, Note_on_c, 0, 54, 0
3, 54210, Note_on_c, 0, 57, 0
3, 54210, Note_on_c, 0, 62, 0
3, 54240, Note_on_c, 0, 60, 68
3, 54240, Note_on_c, 0, 57, 68
3, 54240, Note_on_c, 0, 64, 68
3, 55170, Note_on_c, 0, 64, 0
3, 55170, Note_on_c, 0, 57, 0
3, 55170, Note_on_c, 0, 60, 0
3, 55170, Note_on_c, 0, 62, 67
3, 55170, Note_on_c, 0, 59, 67
3, 55170, Note_on_c, 0, 55, 67
3, 56130, Note_on_c, 0, 55, 0
3, 56130, Note_on_c, 0, 59, 0
3, 56130, Note_on_c, 0, 62, 0
3, 56130, Note_on_c, 0, 62, 68
3, 56130, Note_on_c, 0, 57, 68
3, 56130, Note_on_c, 0, 54, 68
3, 58050, Note_on_c, 0, 54, 0
3, 58050, Note_on_c, 0, 57, 0
3, 58050, Note_on_c, 0, 62, 0
3, 58080, Note_on_c, 0, 60, 68
3, 58080, Note_on_c, 0, 57, 68
3, 58080, Note_on_c, 0, 64, 68
3, 59010, Note_on_c, 0, 64, 0
3, 59010, Note_on_c, 0, 57, 0
3, 59010, Note_on_c, 0, 60, 0
3, 59010, Note_on_c, 0, 62, 67
3, 59010, Note_on_c, 0, 59, 67
3, 59010, Note_on_c, 0, 55, 67
3, 59970, Note_on_c, 0, 55, 0
3, 59970, Note_on_c, 0, 59, 0
3, 59970, Note_on_c, 0, 62, 0
3, 59970, Note_on_c, 0, 62, 68
3, 59970, Note_on_c, 0, 57, 68
3, 59970, Note_on_c, 0, 54, 68
3, 61890, Note_on_c, 0, 54, 0
3, 61890, Note_on_c, 0, 57, 0
3, 61890, Note_on_c, 0, 62, 0
3, 61920, Note_on_c, 0, 60, 68
3, 61920, Note_on_c, 0, 57, 68
3, 61920, Note_on_c, 0, 64, 68
3, 62850, Note_on_c, 0, 64, 0
3, 62850, Note_on_c, 0, 57, 0
3, 62850, Note_on_c, 0, 60, 0
3, 62850, Note_on_c, 0, 62, 67
3, 62850, Note_on_c, 0, 59, 67
3, 62850, Note_on_c, 0, 55, 67
3, 63810, Note_on_c, 0, 55, 0
3, 63810, Note_on_c, 0, 59, 0
3, 63810, Note_on_c, 0, 62, 0
3, 63810, Note_on_c, 0, 62, 68
3, 63810, Note_on_c, 0, 57, 68
3, 63810, Note_on_c, 0, 54, 68
3, 65730, Note_on_c, 0, 54, 0
3, 65730, Note_on_c, 0, 57, 0
3, 65730, Note_on_c, 0, 62, 0
3, 65760, Note_on_c, 0, 60, 68
3, 65760, Note_on_c, 0, 57, 68
3, 65760, Note_on_c, 0, 64, 68
3, 66690, Note_on_c, 0, 64, 0
3, 66690, Note_on_c, 0, 57, 0
3, 66690, Note_on_c, 0, 60, 0
3, 66690, Note_on_c, 0, 62, 67
3, 66690, Note_on_c, 0, 59, 67
3, 66690, Note_on_c, 0, 55, 67
3, 67650, Note_on_c, 0, 55, 0
3, 67650, Note_on_c, 0, 59, 0
3, 67650, Note_on_c, 0, 62, 0
3, 67650, Note_on_c, 0, 62, 68
3, 67650, Note_on_c, 0, 57, 68
3, 67650, Note_on_c, 0, 54, 68
3, 69570, Note_on_c, 0, 54, 0
3, 69570, Note_on_c, 0, 57, 0
3, 69570, Note_on_c, 0, 62, 0
3, 69600, Note_on_c, 0, 60, 68
3, 69600, Note_on_c, 0, 57, 68
3, 69600, Note_on_c, 0, 64, 68
3, 70530, Note_on_c, 0, 64, 0
3, 70530, Note_on_c, 0, 57, 0
3, 70530, Note_on_c, 0, 60, 0
3, 70530, Note_on_c, 0, 62, 67
3, 70530, Note_on_c, 0, 59, 67
3, 70530, Note_on_c, 0, 55, 67
3, 71490, Note_on_c, 0, 55, 0
3, 71490, Note_on_c, 0, 59, 0
3, 71490, Note_on_c, 0, 62, 0
3, 71490, Note_on_c, 0, 62, 68
3, 71490, Note_on_c, 0, 57, 68
3, 71490, Note_on_c, 0, 54, 68
3, 73410, Note_on_c, 0, 54, 0
3, 73410, Note_on_c, 0, 57, 0
3, 73410, Note_on_c, 0, 62, 0
3, 73440, Note_on_c, 0, 60, 68
3, 73440, Note_on_c, 0, 57, 68
3, 73440, Note_on_c, 0, 64, 68
3, 74370, Note_on_c, 0, 64, 0
3, 74370, Note_on_c, 0, 57, 0
3, 74370, Note_on_c, 0, 60, 0
3, 74370, Note_on_c, 0, 62, 67
3, 74370, Note_on_c, 0, 59, 67
3, 74370, Note_on_c, 0, 55, 67
3, 75330, Note_on_c, 0, 55, 0
3, 75330, Note_on_c, 0, 59, 0
3, 75330, Note_on_c, 0, 62, 0
3, 75330, Note_on_c, 0, 62, 68
3, 75330, Note_on_c, 0, 57, 68
3, 75330, Note_on_c, 0, 54, 68
3, 77250, Note_on_c, 0, 54, 0
3, 77250, Note_on_c, 0, 57, 0
3, 77250, Note_on_c, 0, 62, 0
3, 77280, Note_on_c, 0, 60, 68
3, 77280, Note_on_c, 0, 57, 68
3, 77280, Note_on_c, 0, 64, 68
3, 78210, Note_on_c, 0, 64, 0
3, 78210, Note_on_c, 0, 57, 0
3, 78210, Note_on_c, 0, 60, 0
3, 78210, Note_on_c, 0, 62, 67
3, 78210, Note_on_c, 0, 59, 67
3, 78210, Note_on_c, 0, 55, 67
3, 79170, Note_on_c, 0, 55, 0
3, 79170, Note_on_c, 0, 59, 0
3, 79170, Note_on_c, 0, 62, 0
3, 79170, Note_on_c, 0, 62, 68
3, 79170, Note_on_c, 0, 57, 68
3, 79170, Note_on_c, 0, 54, 68
3, 81090, Note_on_c, 0, 54, 0
3, 81090, Note_on_c, 0, 57, 0
3, 81090, Note_on_c, 0, 62, 0
3, 81120, Note_on_c, 0, 60, 68
3, 81120, Note_on_c, 0, 57, 68
3, 81120, Note_on_c, 0, 64, 68
3, 82050, Note_on_c, 0, 64, 0
3, 82050, Note_on_c, 0, 57, 0
3, 82050, Note_on_c, 0, 60, 0
3, 82050, Note_on_c, 0, 62, 67
3, 82050, Note_on_c, 0, 59, 67
3, 82050, Note_on_c, 0, 55, 67
3, 83010, Note_on_c, 0, 55, 0
3, 83010, Note_on_c, 0, 59, 0
3, 83010, Note_on_c, 0, 62, 0
3, 83010, Note_on_c, 0, 62, 68
3, 83010, Note_on_c, 0, 57, 68
3, 83010, Note_on_c, 0, 54, 68
3, 84930, Note_on_c, 0, 54, 0
3, 84930, Note_on_c, 0, 57, 0
3, 84930, Note_on_c, 0, 62, 0
3, 84960, Note_on_c, 0, 60, 68
3, 84960, Note_on_c, 0, 57, 68
3, 84960, Note_on_c, 0, 64, 68
3, 85890, Note_on_c, 0, 64, 0
3, 85890, Note_on_c, 0, 57, 0
3, 85890, Note_on_c, 0, 60, 0
3, 85890, Note_on_c, 0, 62, 67
3, 85890, Note_on_c, 0, 59, 67
3, 85890, Note_on_c, 0, 55, 67
3, 86850, Note_on_c, 0, 55, 0
3, 86850, Note_on_c, 0, 59, 0
3, 86850, Note_on_c, 0, 62, 0
3, 86850, Note_on_c, 0, 62, 68
3, 86850, Note_on_c, 0, 57, 68
3, 86850, Note_on_c, 0, 54, 68
3, 88770, Note_on_c, 0, 54, 0
3, 88770, Note_on_c, 0, 57, 0
3, 88770, Note_on_c, 0, 62, 0
3, 88800, Note_on_c, 0, 60, 68
3, 88800, Note_on_c, 0, 57, 68
3, 88800, Note_on_c, 0, 64, 68
3, 89730, Note_on_c, 0, 64, 0
3, 89730, Note_on_c, 0, 57, 0
3, 89730, Note_on_c, 0, 60, 0
3, 89730, Note_on_c, 0, 62, 67
3, 89730, Note_on_c, 0, 59, 67
3, 89730, Note_on_c, 0, 55, 67
3, 90690, Note_on_c, 0, 55, 0
3, 90690, Note_on_c, 0, 59, 0
3, 90690, Note_on_c, 0, 62, 0
3, 90690, Note_on_c, 0, 62, 68
3, 90690, Note_on_c, 0, 57, 68
3, 90690, Note_on_c, 0, 54, 68
3, 92610, Note_on_c, 0, 54, 0
3, 92610, Note_on_c, 0, 57, 0
3, 92610, Note_on_c, 0, 62, 0
3, 92640, Note_on_c, 0, 60, 68
3, 92640, Note_on_c, 0, 57, 68
3, 92640, Note_on_c, 0, 64, 68
3, 93570, Note_on_c, 0, 64, 0
3, 93570, Note_on_c, 0, 57, 0
3, 93570, Note_on_c, 0, 60, 0
3, 93570, Note_on_c, 0, 62, 67
3, 93570, Note_on_c, 0, 59, 67
3, 93570, Note_on_c, 0, 55, 67
3, 94530, Note_on_c, 0, 55, 0
3, 94530, Note_on_c, 0, 59, 0
3, 94530, Note_on_c, 0, 62, 0
3, 94530, Note_on_c, 0, 62, 68
3, 94530, Note_on_c, 0, 57, 68
3, 94530, Note_on_c, 0, 54, 68
3, 96450, Note_on_c, 0, 54, 0
3, 96450, Note_on_c, 0, 57, 0
3, 96450, Note_on_c, 0, 62, 0
3, 96480, Note_on_c, 0, 60, 68
3, 96480, Note_on_c, 0, 57, 68
3, 96480, Note_on_c, 0, 64, 68
3, 97410, Note_on_c, 0, 64, 0
3, 97410, Note_on_c, 0, 57, 0
3, 97410, Note_on_c, 0, 60, 0
3, 97410, Note_on_c, 0, 62, 67
3, 97410, Note_on_c, 0, 59, 67
3, 97410, Note_on_c, 0, 55, 67
3, 98370, Note_on_c, 0, 55, 0
3, 98370, Note_on_c, 0, 59, 0
3, 98370, Note_on_c, 0, 62, 0
3, 98370, Note_on_c, 0, 62, 68
3, 98370, Note_on_c, 0, 57, 68
3, 98370, Note_on_c, 0, 54, 68
3, 100290, Note_on_c, 0, 54, 0
3, 100290, Note_on_c, 0, 57, 0
3, 100290, Note_on_c, 0, 62, 0
3, 100320, Note_on_c, 0, 60, 68
3, 100320, Note_on_c, 0, 57, 68
3, 100320, Note_on_c, 0, 64, 68
3, 101250, Note_on_c, 0, 64, 0
3, 101250, Note_on_c, 0, 57, 0
3, 101250, Note_on_c, 0, 60, 0
3, 101250, Note_on_c, 0, 62, 67
3, 101250, Note_on_c, 0, 59, 67
3, 101250, Note_on_c, 0, 55, 67
3, 102210, Note_on_c, 0, 55, 0
3, 102210, Note_on_c, 0, 59, 0
3, 102210, Note_on_c, 0, 62, 0
3, 102210, Note_on_c, 0, 62, 68
3, 102210, Note_on_c, 0, 57, 68
3, 102210, Note_on_c, 0, 54, 68
3, 104130, Note_on_c, 0, 54, 0
3, 104130, Note_on_c, 0, 57, 0
3, 104130, Note_on_c, 0, 62, 0
3, 104160, Note_on_c, 0, 60, 68
3, 104160, Note_on_c, 0, 57, 68
3, 104160, Note_on_c, 0, 64, 68
3, 105090, Note_on_c, 0, 64, 0
3, 105090, Note_on_c, 0, 57, 0
3, 105090, Note_on_c, 0, 60, 0
3, 105090, Note_on_c, 0, 62, 67
3, 105090, Note_on_c, 0, 59, 67
3, 105090, Note_on_c, 0, 55, 67
3, 106050, Note_on_c, 0, 55, 0
3, 106050, Note_on_c, 0, 59, 0
3, 106050, Note_on_c, 0, 62, 0
3, 106050, Note_on_c, 0, 62, 68
3, 106050, Note_on_c, 0, 57, 68
3, 106050, Note_on_c, 0, 54, 68
3, 107970, Note_on_c, 0, 54, 0
3, 107970, Note_on_c, 0, 57, 0
3, 107970, Note_on_c, 0, 62, 0
3, 108000, Note_on_c, 0, 60, 68
3, 108000, Note_on_c, 0, 57, 68
3, 108000, Note_on_c, 0, 64, 68
3, 108930, Note_on_c, 0, 64, 0
3, 108930, Note_on_c, 0, 57, 0
3, 108930, Note_on_c, 0, 60, 0
3, 108930, Note_on_c, 0, 62, 67
3, 108930, Note_on_c, 0, 59, 67
3, 108930, Note_on_c, 0, 55, 67
3, 109890, Note_on_c, 0, 55, 0
3, 109890, Note_on_c, 0, 59, 0
3, 109890, Note_on_c, 0, 62, 0
3, 109890, Note_on_c, 0, 62, 68
3, 109890, Note_on_c, 0, 57, 68
3, 109890, Note_on_c, 0, 54, 68
3, 111810, Note_on_c, 0, 54, 0
3, 111810, Note_on_c, 0, 57, 0
3, 111810, Note_on_c, 0, 62, 0
3, 111840, Note_on_c, 0, 60, 68
3, 111840, Note_on_c, 0, 57, 68
3, 111840, Note_on_c, 0, 64, 68
3, 112770, Note_on_c, 0, 64, 0
3, 112770, Note_on_c, 0, 57, 0
3, 112770, Note_on_c, 0, 60, 0
3, 112770, Note_on_c, 0, 62, 67
3, 112770, Note_on_c, 0, 59, 67
3, 112770, Note_on_c, 0, 55, 67
3, 113730, Note_on_c, 0, 55, 0
3, 113730, Note_on_c, 0, 59, 0
3, 113730, Note_on_c, 0, 62, 0
3, 113730, Note_on_c, 0, 62, 68
3, 113730, Note_on_c, 0, 57, 68
3, 113730, Note_on_c, 0, 54, 68
3, 115650, Note_on_c, 0, 54, 0
3, 115650, Note_on_c, 0, 57, 0
3, 115650, Note_on_c, 0, 62, 0
3, 115680, Note_on_c, 0, 60, 68
3, 115680, Note_on_c, 0, 57, 68
3, 115680, Note_on_c, 0, 64, 68
3, 116225, Control_c, 0, 7, 64
3, 116463, Control_c, 0, 7, 63
3, 116610, Note_on_c, 0, 64, 0
3, 116610, Note_on_c, 0, 57, 0
3, 116610, Note_on_c, 0, 60, 0
3, 116610, Note_on_c, 0, 62, 67
3, 116610, Note_on_c, 0, 59, 67
3, 116610, Note_on_c, 0, 55, 67
3, 116646, Control_c, 0, 7, 61
3, 116805, Control_c, 0, 7, 60
3, 117010, Control_c, 0, 7, 59
3, 117080, Control_c, 0, 7, 58
3, 117225, Control_c, 0, 7, 57
3, 117477, Control_c, 0, 7, 56
3, 117570, Note_on_c, 0, 55, 0
3, 117570, Note_on_c, 0, 59, 0
3, 117570, Note_on_c, 0, 62, 0
3, 117570, Note_on_c, 0, 62, 68
3, 117570, Note_on_c, 0, 57, 68
3, 117570, Note_on_c, 0, 54, 68
3, 117668, Control_c, 0, 7, 55
3, 117880, Control_c, 0, 7, 54
3, 118070, Control_c, 0, 7, 53
3, 118307, Control_c, 0, 7, 52
3, 118455, Control_c, 0, 7, 51
3, 118674, Control_c, 0, 7, 50
3, 118856, Control_c, 0, 7, 49
3, 119089, Control_c, 0, 7, 48
3, 119215, Control_c, 0, 7, 47
3, 119405, Control_c, 0, 7, 46
3, 119490, Note_on_c, 0, 54, 0
3, 119490, Note_on_c, 0, 57, 0
3, 119490, Note_on_c, 0, 62, 0
3, 119520, Note_on_c, 0, 60, 68
3, 119520, Note_on_c, 0, 57, 68
3, 119520, Note_on_c, 0, 64, 68
3, 119580, Control_c, 0, 7, 45
3, 119915, Control_c, 0, 7, 44
3, 120210, Control_c, 0, 7, 42
3, 120450, Note_on_c, 0, 64, 0
3, 120450, Note_on_c, 0, 57, 0
3, 120450, Note_on_c, 0, 60, 0
3, 120450, Note_on_c, 0, 62, 67
3, 120450, Note_on_c, 0, 59, 67
3, 120450, Note_on_c, 0, 55, 67
3, 120465, Control_c, 0, 7, 41
3, 120660, Control_c, 0, 7, 40
3, 120695, Control_c, 0, 7, 39
3, 121026, Control_c, 0, 7, 37
3, 121201, Control_c, 0, 7, 36
3, 121410, Note_on_c, 0, 55, 0
3, 121410, Note_on_c, 0, 59, 0
3, 121410, Note_on_c, 0, 62, 0
3, 121410, Note_on_c, 0, 62, 68
3, 121410, Note_on_c, 0, 57, 68
3, 121410, Note_on_c, 0, 54, 68
3, 121510, Control_c, 0, 7, 35
3, 121560, Control_c, 0, 7, 34
3, 121955, Control_c, 0, 7, 32
3, 122185, Control_c, 0, 7, 31
3, 122497, Control_c, 0, 7, 30
3, 122691, Control_c, 0, 7, 29
3, 122860, Control_c, 0, 7, 28
3, 123093, Control_c, 0, 7, 27
3, 123126, Control_c, 0, 7, 26
3, 123330, Note_on_c, 0, 54, 0
3, 123330, Note_on_c, 0, 57, 0
3, 123330, Note_on_c, 0, 62, 0
3, 123360, Note_on_c, 0, 60, 68
3, 123360, Note_on_c, 0, 57, 68
3, 123360, Note_on_c, 0, 64, 68
3, 123500, Control_c, 0, 7, 25
3, 123800, Control_c, 0, 7, 24
3, 123920, Control_c, 0, 7, 23
3, 124105, Control_c, 0, 7, 22
3, 124215, Control_c, 0, 7, 21
3, 124290, Note_on_c, 0, 64, 0
3, 124290, Note_on_c, 0, 57, 0
3, 124290, Note_on_c, 0, 60, 0
3, 124290, Note_on_c, 0, 62, 67
3, 124290, Note_on_c, 0, 59, 67
3, 124290, Note_on_c, 0, 55, 67
3, 124615, Control_c, 0, 7, 20
3, 124780, Control_c, 0, 7, 19
3, 124995, Control_c, 0, 7, 18
3, 125250, Note_on_c, 0, 55, 0
3, 125250, Note_on_c, 0, 59, 0
3, 125250, Note_on_c, 0, 62, 0
3, 125250, Note_on_c, 0, 62, 68
3, 125250, Note_on_c, 0, 57, 68
3, 125250, Note_on_c, 0, 54, 68
3, 125263, Control_c, 0, 7, 17
3, 125450, Control_c, 0, 7, 16
3, 125510, Control_c, 0, 7, 15
3, 125940, Control_c, 0, 7, 13
3, 126201, Control_c, 0, 7, 12
3, 126437, Control_c, 0, 7, 11
3, 126625, Control_c, 0, 7, 10
3, 127075, Control_c, 0, 7, 8
3, 127170, Note_on_c, 0, 54, 0
3, 127170, Note_on_c, 0, 57, 0
3, 127170, Note_on_c, 0, 62, 0
3, 127200, Note_on_c, 0, 60, 68
3, 127200, Note_on_c, 0, 57, 68
3, 127200, Note_on_c, 0, 64, 68
3, 127385, Control_c, 0, 7, 7
3, 127630, Control_c, 0, 7, 6
3, 127655, Control_c, 0, 7, 5
3, 128130, Note_on_c, 0, 64, 0
3, 128130, Note_on_c, 0, 57, 0
3, 128130, Note_on_c, 0, 60, 0
3, 128130, Note_on_c, 0, 62, 67
3, 128130, Note_on_c, 0, 59, 67
3, 128130, Note_on_c, 0, 55, 67
3, 128210, Control_c, 0, 7, 3
3, 128425, Control_c, 0, 7, 2
3, 128590, Control_c, 0, 7, 1
3, 128930, Control_c, 0, 7, 0
3, 129090, Note_on_c, 0, 55, 0
3, 129090, Note_on_c, 0, 59, 0
3, 129090, Note_on_c, 0, 62, 0
3, 129090, Note_on_c, 0, 62, 68
3, 129090, Note_on_c, 0, 57, 68
3, 129090, Note_on_c, 0, 54, 68
3, 131010, Note_on_c, 0, 54, 0
3, 131010, Note_on_c, 0, 57, 0
3, 131010, Note_on_c, 0, 62, 0
3, 131010, End_track
4, 0, Start_track
4, 0, MIDI_port, 0
4, 0, Title_t, "AcoBass"
4, 125, Control_c, 1, 0, 0
4, 126, Control_c, 1, 32, 0
4, 127, Program_c, 1, 32
4, 128, Control_c, 1, 7, 100
4, 128, Control_c, 1, 10, 60
4, 480, Note_on_c, 1, 33, 90
4, 750, Note_on_c, 1, 33, 0
4, 840, Note_on_c, 1, 33, 90
4, 900, Note_on_c, 1, 33, 0
4, 960, Note_on_c, 1, 33, 90
4, 1380, Note_on_c, 1, 33, 0
4, 1440, Note_on_c, 1, 31, 90
4, 1710, Note_on_c, 1, 31, 0
4, 1800, Note_on_c, 1, 31, 90
4, 1860, Note_on_c, 1, 31, 0
4, 1920, Note_on_c, 1, 31, 90
4, 2220, Note_on_c, 1, 31, 0
4, 2280, Note_on_c, 1, 36, 90
4, 2370, Note_on_c, 1, 36, 0
4, 2400, Note_on_c, 1, 38, 90
4, 2670, Note_on_c, 1, 38, 0
4, 2760, Note_on_c, 1, 38, 90
4, 2820, Note_on_c, 1, 38, 0
4, 2880, Note_on_c, 1, 38, 90
4, 3270, Note_on_c, 1, 38, 0
4, 3360, Note_on_c, 1, 38, 90
4, 3630, Note_on_c, 1, 38, 0
4, 3720, Note_on_c, 1, 38, 90
4, 3780, Note_on_c, 1, 38, 0
4, 3840, Note_on_c, 1, 38, 90
4, 4170, Note_on_c, 1, 38, 0
4, 4200, Note_on_c, 1, 31, 90
4, 4320, Note_on_c, 1, 31, 0
4, 4320, Note_on_c, 1, 33, 90
4, 4560, Note_on_c, 1, 33, 0
4, 4650, Note_on_c, 1, 33, 90
4, 4740, Note_on_c, 1, 33, 0
4, 4800, Note_on_c, 1, 33, 90
4, 5250, Note_on_c, 1, 33, 0
4, 5280, Note_on_c, 1, 31, 90
4, 5580, Note_on_c, 1, 31, 0
4, 5640, Note_on_c, 1, 31, 90
4, 5700, Note_on_c, 1, 31, 0
4, 5760, Note_on_c, 1, 31, 90
4, 6120, Note_on_c, 1, 31, 0
4, 6120, Note_on_c, 1, 36, 90
4, 6240, Note_on_c, 1, 36, 0
4, 6240, Note_on_c, 1, 38, 90
4, 6510, Note_on_c, 1, 38, 0
4, 6600, Note_on_c, 1, 38, 90
4, 6660, Note_on_c, 1, 38, 0
4, 6720, Note_on_c, 1, 38, 90
4, 7020, Note_on_c, 1, 38, 0
4, 7200, Note_on_c, 1, 38, 90
4, 7470, Note_on_c, 1, 38, 0
4, 7560, Note_on_c, 1, 38, 90
4, 7620, Note_on_c, 1, 38, 0
4, 7680, Note_on_c, 1, 38, 90
4, 7860, Note_on_c, 1, 38, 0
4, 7920, Note_on_c, 1, 38, 90
4, 8040, Note_on_c, 1, 38, 0
4, 8040, Note_on_c, 1, 31, 90
4, 8160, Note_on_c, 1, 31, 0
4, 8160, Note_on_c, 1, 33, 90
4, 8400, Note_on_c, 1, 33, 0
4, 8520, Note_on_c, 1, 33, 90
4, 8580, Note_on_c, 1, 33, 0
4, 8640, Note_on_c, 1, 33, 90
4, 9090, Note_on_c, 1, 33, 0
4, 9120, Note_on_c, 1, 31, 90
4, 9360, Note_on_c, 1, 31, 0
4, 9480, Note_on_c, 1, 31, 90
4, 9540, Note_on_c, 1, 31, 0
4, 9600, Note_on_c, 1, 31, 90
4, 9810, Note_on_c, 1, 31, 0
4, 9960, Note_on_c, 1, 36, 90
4, 10050, Note_on_c, 1, 36, 0
4, 10080, Note_on_c, 1, 38, 90
4, 10320, Note_on_c, 1, 38, 0
4, 10440, Note_on_c, 1, 38, 90
4, 10500, Note_on_c, 1, 38, 0
4, 10560, Note_on_c, 1, 38, 90
4, 10860, Note_on_c, 1, 38, 0
4, 10920, Note_on_c, 1, 38, 90
4, 10980, Note_on_c, 1, 38, 0
4, 11040, Note_on_c, 1, 38, 90
4, 11370, Note_on_c, 1, 38, 0
4, 11400, Note_on_c, 1, 33, 90
4, 11490, Note_on_c, 1, 33, 0
4, 11520, Note_on_c, 1, 38, 90
4, 11820, Note_on_c, 1, 38, 0
4, 11880, Note_on_c, 1, 31, 90
4, 11970, Note_on_c, 1, 31, 0
4, 12000, Note_on_c, 1, 33, 90
4, 12270, Note_on_c, 1, 33, 0
4, 12360, Note_on_c, 1, 33, 90
4, 12420, Note_on_c, 1, 33, 0
4, 12480, Note_on_c, 1, 33, 90
4, 12840, Note_on_c, 1, 33, 0
4, 12840, Note_on_c, 1, 38, 90
4, 12960, Note_on_c, 1, 38, 0
4, 12960, Note_on_c, 1, 31, 90
4, 13260, Note_on_c, 1, 31, 0
4, 13320, Note_on_c, 1, 31, 90
4, 13380, Note_on_c, 1, 31, 0
4, 13440, Note_on_c, 1, 31, 90
4, 13620, Note_on_c, 1, 31, 0
4, 13680, Note_on_c, 1, 31, 90
4, 13800, Note_on_c, 1, 31, 0
4, 13800, Note_on_c, 1, 36, 90
4, 13920, Note_on_c, 1, 36, 0
4, 13920, Note_on_c, 1, 38, 90
4, 14190, Note_on_c, 1, 38, 0
4, 14280, Note_on_c, 1, 38, 90
4, 14340, Note_on_c, 1, 38, 0
4, 14400, Note_on_c, 1, 38, 90
4, 14790, Note_on_c, 1, 38, 0
4, 14880, Note_on_c, 1, 38, 90
4, 15180, Note_on_c, 1, 38, 0
4, 15240, Note_on_c, 1, 38, 90
4, 15300, Note_on_c, 1, 38, 0
4, 15360, Note_on_c, 1, 38, 90
4, 15690, Note_on_c, 1, 38, 0
4, 15840, Note_on_c, 1, 33, 90
4, 16110, Note_on_c, 1, 33, 0
4, 16200, Note_on_c, 1, 33, 90
4, 16260, Note_on_c, 1, 33, 0
4, 16320, Note_on_c, 1, 33, 90
4, 16740, Note_on_c, 1, 33, 0
4, 16800, Note_on_c, 1, 31, 90
4, 17070, Note_on_c, 1, 31, 0
4, 17160, Note_on_c, 1, 31, 90
4, 17220, Note_on_c, 1, 31, 0
4, 17280, Note_on_c, 1, 31, 90
4, 17580, Note_on_c, 1, 31, 0
4, 17640, Note_on_c, 1, 36, 90
4, 17730, Note_on_c, 1, 36, 0
4, 17760, Note_on_c, 1, 38, 90
4, 18030, Note_on_c, 1, 38, 0
4, 18120, Note_on_c, 1, 38, 90
4, 18180, Note_on_c, 1, 38, 0
4, 18240, Note_on_c, 1, 38, 90
4, 18630, Note_on_c, 1, 38, 0
4, 18720, Note_on_c, 1, 38, 90
4, 18990, Note_on_c, 1, 38, 0
4, 19080, Note_on_c, 1, 38, 90
4, 19140, Note_on_c, 1, 38, 0
4, 19200, Note_on_c, 1, 38, 90
4, 19530, Note_on_c, 1, 38, 0
4, 19560, Note_on_c, 1, 31, 90
4, 19680, Note_on_c, 1, 31, 0
4, 19680, Note_on_c, 1, 33, 90
4, 19920, Note_on_c, 1, 33, 0
4, 20010, Note_on_c, 1, 33, 90
4, 20100, Note_on_c, 1, 33, 0
4, 20160, Note_on_c, 1, 33, 90
4, 20610, Note_on_c, 1, 33, 0
4, 20640, Note_on_c, 1, 31, 90
4, 20940, Note_on_c, 1, 31, 0
4, 21000, Note_on_c, 1, 31, 90
4, 21060, Note_on_c, 1, 31, 0
4, 21120, Note_on_c, 1, 31, 90
4, 21480, Note_on_c, 1, 31, 0
4, 21480, Note_on_c, 1, 36, 90
4, 21600, Note_on_c, 1, 36, 0
4, 21600, Note_on_c, 1, 38, 90
4, 21870, Note_on_c, 1, 38, 0
4, 21960, Note_on_c, 1, 38, 90
4, 22020, Note_on_c, 1, 38, 0
4, 22080, Note_on_c, 1, 38, 90
4, 22380, Note_on_c, 1, 38, 0
4, 22560, Note_on_c, 1, 38, 90
4, 22830, Note_on_c, 1, 38, 0
4, 22920, Note_on_c, 1, 38, 90
4, 22980, Note_on_c, 1, 38, 0
4, 23040, Note_on_c, 1, 38, 90
4, 23220, Note_on_c, 1, 38, 0
4, 23280, Note_on_c, 1, 38, 90
4, 23400, Note_on_c, 1, 38, 0
4, 23400, Note_on_c, 1, 31, 90
4, 23520, Note_on_c, 1, 31, 0
4, 23520, Note_on_c, 1, 33, 90
4, 23760, Note_on_c, 1, 33, 0
4, 23880, Note_on_c, 1, 33, 90
4, 23940, Note_on_c, 1, 33, 0
4, 24000, Note_on_c, 1, 33, 90
4, 24450, Note_on_c, 1, 33, 0
4, 24480, Note_on_c, 1, 31, 90
4, 24720, Note_on_c, 1, 31, 0
4, 24840, Note_on_c, 1, 31, 90
4, 24900, Note_on_c, 1, 31, 0
4, 24960, Note_on_c, 1, 31, 90
4, 25170, Note_on_c, 1, 31, 0
4, 25320, Note_on_c, 1, 36, 90
4, 25410, Note_on_c, 1, 36, 0
4, 25440, Note_on_c, 1, 38, 90
4, 25680, Note_on_c, 1, 38, 0
4, 25800, Note_on_c, 1, 38, 90
4, 25860, Note_on_c, 1, 38, 0
4, 25920, Note_on_c, 1, 38, 90
4, 26220, Note_on_c, 1, 38, 0
4, 26280, Note_on_c, 1, 38, 90
4, 26340, Note_on_c, 1, 38, 0
4, 26400, Note_on_c, 1, 38, 90
4, 26730, Note_on_c, 1, 38, 0
4, 26760, Note_on_c, 1, 33, 90
4, 26850, Note_on_c, 1, 33, 0
4, 26880, Note_on_c, 1, 38, 90
4, 27180, Note_on_c, 1, 38, 0
4, 27240, Note_on_c, 1, 31, 90
4, 27330, Note_on_c, 1, 31, 0
4, 27360, Note_on_c, 1, 33, 90
4, 27630, Note_on_c, 1, 33, 0
4, 27720, Note_on_c, 1, 33, 90
4, 27780, Note_on_c, 1, 33, 0
4, 27840, Note_on_c, 1, 33, 90
4, 28200, Note_on_c, 1, 33, 0
4, 28200, Note_on_c, 1, 38, 90
4, 28320, Note_on_c, 1, 38, 0
4, 28320, Note_on_c, 1, 31, 90
4, 28620, Note_on_c, 1, 31, 0
4, 28680, Note_on_c, 1, 31, 90
4, 28740, Note_on_c, 1, 31, 0
4, 28800, Note_on_c, 1, 31, 90
4, 28980, Note_on_c, 1, 31, 0
4, 29040, Note_on_c, 1, 31, 90
4, 29160, Note_on_c, 1, 31, 0
4, 29160, Note_on_c, 1, 36, 90
4, 29280, Note_on_c, 1, 36, 0
4, 29280, Note_on_c, 1, 38, 90
4, 29550, Note_on_c, 1, 38, 0
4, 29640, Note_on_c, 1, 38, 90
4, 29700, Note_on_c, 1, 38, 0
4, 29760, Note_on_c, 1, 38, 90
4, 30150, Note_on_c, 1, 38, 0
4, 30240, Note_on_c, 1, 38, 90
4, 30540, Note_on_c, 1, 38, 0
4, 30600, Note_on_c, 1, 38, 90
4, 30660, Note_on_c, 1, 38, 0
4, 30720, Note_on_c, 1, 38, 90
4, 31050, Note_on_c, 1, 38, 0
4, 31200, Note_on_c, 1, 33, 90
4, 31470, Note_on_c, 1, 33, 0
4, 31560, Note_on_c, 1, 33, 90
4, 31620, Note_on_c, 1, 33, 0
4, 31680, Note_on_c, 1, 33, 90
4, 32100, Note_on_c, 1, 33, 0
4, 32160, Note_on_c, 1, 31, 90
4, 32430, Note_on_c, 1, 31, 0
4, 32520, Note_on_c, 1, 31, 90
4, 32580, Note_on_c, 1, 31, 0
4, 32640, Note_on_c, 1, 31, 90
4, 32940, Note_on_c, 1, 31, 0
4, 33000, Note_on_c, 1, 36, 90
4, 33090, Note_on_c, 1, 36, 0
4, 33120, Note_on_c, 1, 38, 90
4, 33390, Note_on_c, 1, 38, 0
4, 33480, Note_on_c, 1, 38, 90
4, 33540, Note_on_c, 1, 38, 0
4, 33600, Note_on_c, 1, 38, 90
4, 33990, Note_on_c, 1, 38, 0
4, 34080, Note_on_c, 1, 38, 90
4, 34350, Note_on_c, 1, 38, 0
4, 34440, Note_on_c, 1, 38, 90
4, 34500, Note_on_c, 1, 38, 0
4, 34560, Note_on_c, 1, 38, 90
4, 34890, Note_on_c, 1, 38, 0
4, 34920, Note_on_c, 1, 31, 90
4, 35040, Note_on_c, 1, 31, 0
4, 35040, Note_on_c, 1, 33, 90
4, 35280, Note_on_c, 1, 33, 0
4, 35370, Note_on_c, 1, 33, 90
4, 35460, Note_on_c, 1, 33, 0
4, 35520, Note_on_c, 1, 33, 90
4, 35970, Note_on_c, 1, 33, 0
4, 36000, Note_on_c, 1, 31, 90
4, 36300, Note_on_c, 1, 31, 0
4, 36360, Note_on_c, 1, 31, 90
4, 36420, Note_on_c, 1, 31, 0
4, 36480, Note_on_c, 1, 31, 90
4, 36840, Note_on_c, 1, 31, 0
4, 36840, Note_on_c, 1, 36, 90
4, 36960, Note_on_c, 1, 36, 0
4, 36960, Note_on_c, 1, 38, 90
4, 37230, Note_on_c, 1, 38, 0
4, 37320, Note_on_c, 1, 38, 90
4, 37380, Note_on_c, 1, 38, 0
4, 37440, Note_on_c, 1, 38, 90
4, 37740, Note_on_c, 1, 38, 0
4, 37920, Note_on_c, 1, 38, 90
4, 38190, Note_on_c, 1, 38, 0
4, 38280, Note_on_c, 1, 38, 90
4, 38340, Note_on_c, 1, 38, 0
4, 38400, Note_on_c, 1, 38, 90
4, 38580, Note_on_c, 1, 38, 0
4, 38640, Note_on_c, 1, 38, 90
4, 38760, Note_on_c, 1, 38, 0
4, 38760, Note_on_c, 1, 31, 90
4, 38880, Note_on_c, 1, 31, 0
4, 38880, Note_on_c, 1, 33, 90
4, 39120, Note_on_c, 1, 33, 0
4, 39240, Note_on_c, 1, 33, 90
4, 39300, Note_on_c, 1, 33, 0
4, 39360, Note_on_c, 1, 33, 90
4, 39810, Note_on_c, 1, 33, 0
4, 39840, Note_on_c, 1, 31, 90
4, 40080, Note_on_c, 1, 31, 0
4, 40200, Note_on_c, 1, 31, 90
4, 40260, Note_on_c, 1, 31, 0
4, 40320, Note_on_c, 1, 31, 90
4, 40530, Note_on_c, 1, 31, 0
4, 40680, Note_on_c, 1, 36, 90
4, 40770, Note_on_c, 1, 36, 0
4, 40800, Note_on_c, 1, 38, 90
4, 41040, Note_on_c, 1, 38, 0
4, 41160, Note_on_c, 1, 38, 90
4, 41220, Note_on_c, 1, 38, 0
4, 41280, Note_on_c, 1, 38, 90
4, 41580, Note_on_c, 1, 38, 0
4, 41640, Note_on_c, 1, 38, 90
4, 41700, Note_on_c, 1, 38, 0
4, 41760, Note_on_c, 1, 38, 90
4, 42090, Note_on_c, 1, 38, 0
4, 42120, Note_on_c, 1, 33, 90
4, 42210, Note_on_c, 1, 33, 0
4, 42240, Note_on_c, 1, 38, 90
4, 42540, Note_on_c, 1, 38, 0
4, 42600, Note_on_c, 1, 31, 90
4, 42690, Note_on_c, 1, 31, 0
4, 42720, Note_on_c, 1, 33, 90
4, 42990, Note_on_c, 1, 33, 0
4, 43080, Note_on_c, 1, 33, 90
4, 43140, Note_on_c, 1, 33, 0
4, 43200, Note_on_c, 1, 33, 90
4, 43560, Note_on_c, 1, 33, 0
4, 43560, Note_on_c, 1, 38, 90
4, 43680, Note_on_c, 1, 38, 0
4, 43680, Note_on_c, 1, 31, 90
4, 43980, Note_on_c, 1, 31, 0
4, 44040, Note_on_c, 1, 31, 90
4, 44100, Note_on_c, 1, 31, 0
4, 44160, Note_on_c, 1, 31, 90
4, 44340, Note_on_c, 1, 31, 0
4, 44400, Note_on_c, 1, 31, 90
4, 44520, Note_on_c, 1, 31, 0
4, 44520, Note_on_c, 1, 36, 90
4, 44640, Note_on_c, 1, 36, 0
4, 44640, Note_on_c, 1, 38, 90
4, 44910, Note_on_c, 1, 38, 0
4, 45000, Note_on_c, 1, 38, 90
4, 45060, Note_on_c, 1, 38, 0
4, 45120, Note_on_c, 1, 38, 90
4, 45510, Note_on_c, 1, 38, 0
4, 45600, Note_on_c, 1, 38, 90
4, 45900, Note_on_c, 1, 38, 0
4, 45960, Note_on_c, 1, 38, 90
4, 46020, Note_on_c, 1, 38, 0
4, 46080, Note_on_c, 1, 38, 90
4, 46410, Note_on_c, 1, 38, 0
4, 46560, Note_on_c, 1, 33, 90
4, 46800, Note_on_c, 1, 33, 0
4, 46890, Note_on_c, 1, 33, 90
4, 46980, Note_on_c, 1, 33, 0
4, 47040, Note_on_c, 1, 33, 90
4, 47490, Note_on_c, 1, 33, 0
4, 47520, Note_on_c, 1, 31, 90
4, 47820, Note_on_c, 1, 31, 0
4, 47880, Note_on_c, 1, 31, 90
4, 47940, Note_on_c, 1, 31, 0
4, 48000, Note_on_c, 1, 31, 90
4, 48360, Note_on_c, 1, 31, 0
4, 48360, Note_on_c, 1, 36, 90
4, 48480, Note_on_c, 1, 36, 0
4, 48480, Note_on_c, 1, 38, 90
4, 48750, Note_on_c, 1, 38, 0
4, 48840, Note_on_c, 1, 38, 90
4, 48900, Note_on_c, 1, 38, 0
4, 48960, Note_on_c, 1, 38, 90
4, 49260, Note_on_c, 1, 38, 0
4, 49440, Note_on_c, 1, 38, 90
4, 49710, Note_on_c, 1, 38, 0
4, 49800, Note_on_c, 1, 38, 90
4, 49860, Note_on_c, 1, 38, 0
4, 49920, Note_on_c, 1, 38, 90
4, 50100, Note_on_c, 1, 38, 0
4, 50160, Note_on_c, 1, 38, 90
4, 50280, Note_on_c, 1, 38, 0
4, 50280, Note_on_c, 1, 31, 90
4, 50400, Note_on_c, 1, 31, 0
4, 50400, Note_on_c, 1, 33, 90
4, 50640, Note_on_c, 1, 33, 0
4, 50760, Note_on_c, 1, 33, 90
4, 50820, Note_on_c, 1, 33, 0
4, 50880, Note_on_c, 1, 33, 90
4, 51330, Note_on_c, 1, 33, 0
4, 51360, Note_on_c, 1, 31, 90
4, 51600, Note_on_c, 1, 31, 0
4, 51720, Note_on_c, 1, 31, 90
4, 51780, Note_on_c, 1, 31, 0
4, 51840, Note_on_c, 1, 31, 90
4, 52050, Note_on_c, 1, 31, 0
4, 52200, Note_on_c, 1, 36, 90
4, 52290, Note_on_c, 1, 36, 0
4, 52320, Note_on_c, 1, 38, 90
4, 52560, Note_on_c, 1, 38, 0
4, 52680, Note_on_c, 1, 38, 90
4, 52740, Note_on_c, 1, 38, 0
4, 52800, Note_on_c, 1, 38, 90
4, 53100, Note_on_c, 1, 38, 0
4, 53160, Note_on_c, 1, 38, 90
4, 53220, Note_on_c, 1, 38, 0
4, 53280, Note_on_c, 1, 38, 90
4, 53610, Note_on_c, 1, 38, 0
4, 53640, Note_on_c, 1, 33, 90
4, 53730, Note_on_c, 1, 33, 0
4, 53760, Note_on_c, 1, 38, 90
4, 54060, Note_on_c, 1, 38, 0
4, 54120, Note_on_c, 1, 31, 90
4, 54210, Note_on_c, 1, 31, 0
4, 54240, Note_on_c, 1, 33, 90
4, 54510, Note_on_c, 1, 33, 0
4, 54600, Note_on_c, 1, 33, 90
4, 54660, Note_on_c, 1, 33, 0
4, 54720, Note_on_c, 1, 33, 90
4, 55080, Note_on_c, 1, 33, 0
4, 55080, Note_on_c, 1, 38, 90
4, 55200, Note_on_c, 1, 38, 0
4, 55200, Note_on_c, 1, 31, 90
4, 55500, Note_on_c, 1, 31, 0
4, 55560, Note_on_c, 1, 31, 90
4, 55620, Note_on_c, 1, 31, 0
4, 55680, Note_on_c, 1, 31, 90
4, 55860, Note_on_c, 1, 31, 0
4, 55920, Note_on_c, 1, 31, 90
4, 56040, Note_on_c, 1, 31, 0
4, 56040, Note_on_c, 1, 36, 90
4, 56160, Note_on_c, 1, 36, 0
4, 56160, Note_on_c, 1, 38, 90
4, 56430, Note_on_c, 1, 38, 0
4, 56520, Note_on_c, 1, 38, 90
4, 56580, Note_on_c, 1, 38, 0
4, 56640, Note_on_c, 1, 38, 90
4, 57030, Note_on_c, 1, 38, 0
4, 57120, Note_on_c, 1, 38, 90
4, 57420, Note_on_c, 1, 38, 0
4, 57480, Note_on_c, 1, 38, 90
4, 57540, Note_on_c, 1, 38, 0
4, 57600, Note_on_c, 1, 38, 90
4, 57930, Note_on_c, 1, 38, 0
4, 58080, Note_on_c, 1, 33, 90
4, 58350, Note_on_c, 1, 33, 0
4, 58440, Note_on_c, 1, 33, 90
4, 58500, Note_on_c, 1, 33, 0
4, 58560, Note_on_c, 1, 33, 90
4, 58980, Note_on_c, 1, 33, 0
4, 59040, Note_on_c, 1, 31, 90
4, 59310, Note_on_c, 1, 31, 0
4, 59400, Note_on_c, 1, 31, 90
4, 59460, Note_on_c, 1, 31, 0
4, 59520, Note_on_c, 1, 31, 90
4, 59820, Note_on_c, 1, 31, 0
4, 59880, Note_on_c, 1, 36, 90
4, 59970, Note_on_c, 1, 36, 0
4, 60000, Note_on_c, 1, 38, 90
4, 60270, Note_on_c, 1, 38, 0
4, 60360, Note_on_c, 1, 38, 90
4, 60420, Note_on_c, 1, 38, 0
4, 60480, Note_on_c, 1, 38, 90
4, 60870, Note_on_c, 1, 38, 0
4, 60960, Note_on_c, 1, 38, 90
4, 61230, Note_on_c, 1, 38, 0
4, 61320, Note_on_c, 1, 38, 90
4, 61380, Note_on_c, 1, 38, 0
4, 61440, Note_on_c, 1, 38, 90
4, 61770, Note_on_c, 1, 38, 0
4, 61800, Note_on_c, 1, 31, 90
4, 61920, Note_on_c, 1, 31, 0
4, 61920, Note_on_c, 1, 33, 90
4, 62160, Note_on_c, 1, 33, 0
4, 62250, Note_on_c, 1, 33, 90
4, 62340, Note_on_c, 1, 33, 0
4, 62400, Note_on_c, 1, 33, 90
4, 62850, Note_on_c, 1, 33, 0
4, 62880, Note_on_c, 1, 31, 90
4, 63180, Note_on_c, 1, 31, 0
4, 63240, Note_on_c, 1, 31, 90
4, 63300, Note_on_c, 1, 31, 0
4, 63360, Note_on_c, 1, 31, 90
4, 63720, Note_on_c, 1, 31, 0
4, 63720, Note_on_c, 1, 36, 90
4, 63840, Note_on_c, 1, 36, 0
4, 63840, Note_on_c, 1, 38, 90
4, 64110, Note_on_c, 1, 38, 0
4, 64200, Note_on_c, 1, 38, 90
4, 64260, Note_on_c, 1, 38, 0
4, 64320, Note_on_c, 1, 38, 90
4, 64620, Note_on_c, 1, 38, 0
4, 64800, Note_on_c, 1, 38, 90
4, 65070, Note_on_c, 1, 38, 0
4, 65160, Note_on_c, 1, 38, 90
4, 65220, Note_on_c, 1, 38, 0
4, 65280, Note_on_c, 1, 38, 90
4, 65460, Note_on_c, 1, 38, 0
4, 65520, Note_on_c, 1, 38, 90
4, 65640, Note_on_c, 1, 38, 0
4, 65640, Note_on_c, 1, 31, 90
4, 65760, Note_on_c, 1, 31, 0
4, 65760, Note_on_c, 1, 33, 90
4, 66000, Note_on_c, 1, 33, 0
4, 66120, Note_on_c, 1, 33, 90
4, 66180, Note_on_c, 1, 33, 0
4, 66240, Note_on_c, 1, 33, 90
4, 66690, Note_on_c, 1, 33, 0
4, 66720, Note_on_c, 1, 31, 90
4, 66960, Note_on_c, 1, 31, 0
4, 67080, Note_on_c, 1, 31, 90
4, 67140, Note_on_c, 1, 31, 0
4, 67200, Note_on_c, 1, 31, 90
4, 67410, Note_on_c, 1, 31, 0
4, 67560, Note_on_c, 1, 36, 90
4, 67650, Note_on_c, 1, 36, 0
4, 67680, Note_on_c, 1, 38, 90
4, 67920, Note_on_c, 1, 38, 0
4, 68040, Note_on_c, 1, 38, 90
4, 68100, Note_on_c, 1, 38, 0
4, 68160, Note_on_c, 1, 38, 90
4, 68460, Note_on_c, 1, 38, 0
4, 68520, Note_on_c, 1, 38, 90
4, 68580, Note_on_c, 1, 38, 0
4, 68640, Note_on_c, 1, 38, 90
4, 68970, Note_on_c, 1, 38, 0
4, 69000, Note_on_c, 1, 33, 90
4, 69090, Note_on_c, 1, 33, 0
4, 69120, Note_on_c, 1, 38, 90
4, 69420, Note_on_c, 1, 38, 0
4, 69480, Note_on_c, 1, 31, 90
4, 69570, Note_on_c, 1, 31, 0
4, 69600, Note_on_c, 1, 33, 90
4, 69870, Note_on_c, 1, 33, 0
4, 69960, Note_on_c, 1, 33, 90
4, 70020, Note_on_c, 1, 33, 0
4, 70080, Note_on_c, 1, 33, 90
4, 70440, Note_on_c, 1, 33, 0
4, 70440, Note_on_c, 1, 38, 90
4, 70560, Note_on_c, 1, 38, 0
4, 70560, Note_on_c, 1, 31, 90
4, 70860, Note_on_c, 1, 31, 0
4, 70920, Note_on_c, 1, 31, 90
4, 70980, Note_on_c, 1, 31, 0
4, 71040, Note_on_c, 1, 31, 90
4, 71220, Note_on_c, 1, 31, 0
4, 71280, Note_on_c, 1, 31, 90
4, 71400, Note_on_c, 1, 31, 0
4, 71400, Note_on_c, 1, 36, 90
4, 71520, Note_on_c, 1, 36, 0
4, 71520, Note_on_c, 1, 38, 90
4, 71790, Note_on_c, 1, 38, 0
4, 71880, Note_on_c, 1, 38, 90
4, 71940, Note_on_c, 1, 38, 0
4, 72000, Note_on_c, 1, 38, 90
4, 72390, Note_on_c, 1, 38, 0
4, 72480, Note_on_c, 1, 38, 90
4, 72780, Note_on_c, 1, 38, 0
4, 72840, Note_on_c, 1, 38, 90
4, 72900, Note_on_c, 1, 38, 0
4, 72960, Note_on_c, 1, 38, 90
4, 73290, Note_on_c, 1, 38, 0
4, 73440, Note_on_c, 1, 33, 90
4, 73710, Note_on_c, 1, 33, 0
4, 73800, Note_on_c, 1, 33, 90
4, 73860, Note_on_c, 1, 33, 0
4, 73920, Note_on_c, 1, 33, 90
4, 74340, Note_on_c, 1, 33, 0
4, 74400, Note_on_c, 1, 31, 90
4, 74670, Note_on_c, 1, 31, 0
4, 74760, Note_on_c, 1, 31, 90
4, 74820, Note_on_c, 1, 31, 0
4, 74880, Note_on_c, 1, 31, 90
4, 75180, Note_on_c, 1, 31, 0
4, 75240, Note_on_c, 1, 36, 90
4, 75330, Note_on_c, 1, 36, 0
4, 75360, Note_on_c, 1, 38, 90
4, 75630, Note_on_c, 1, 38, 0
4, 75720, Note_on_c, 1, 38, 90
4, 75780, Note_on_c, 1, 38, 0
4, 75840, Note_on_c, 1, 38, 90
4, 76230, Note_on_c, 1, 38, 0
4, 76320, Note_on_c, 1, 38, 90
4, 76590, Note_on_c, 1, 38, 0
4, 76680, Note_on_c, 1, 38, 90
4, 76740, Note_on_c, 1, 38, 0
4, 76800, Note_on_c, 1, 38, 90
4, 77130, Note_on_c, 1, 38, 0
4, 77160, Note_on_c, 1, 31, 90
4, 77280, Note_on_c, 1, 31, 0
4, 77280, Note_on_c, 1, 33, 90
4, 77520, Note_on_c, 1, 33, 0
4, 77610, Note_on_c, 1, 33, 90
4, 77700, Note_on_c, 1, 33, 0
4, 77760, Note_on_c, 1, 33, 90
4, 78210, Note_on_c, 1, 33, 0
4, 78240, Note_on_c, 1, 31, 90
4, 78540, Note_on_c, 1, 31, 0
4, 78600, Note_on_c, 1, 31, 90
4, 78660, Note_on_c, 1, 31, 0
4, 78720, Note_on_c, 1, 31, 90
4, 79080, Note_on_c, 1, 31, 0
4, 79080, Note_on_c, 1, 36, 90
4, 79200, Note_on_c, 1, 36, 0
4, 79200, Note_on_c, 1, 38, 90
4, 79470, Note_on_c, 1, 38, 0
4, 79560, Note_on_c, 1, 38, 90
4, 79620, Note_on_c, 1, 38, 0
4, 79680, Note_on_c, 1, 38, 90
4, 79980, Note_on_c, 1, 38, 0
4, 80160, Note_on_c, 1, 38, 90
4, 80430, Note_on_c, 1, 38, 0
4, 80520, Note_on_c, 1, 38, 90
4, 80580, Note_on_c, 1, 38, 0
4, 80640, Note_on_c, 1, 38, 90
4, 80820, Note_on_c, 1, 38, 0
4, 80880, Note_on_c, 1, 38, 90
4, 81000, Note_on_c, 1, 38, 0
4, 81000, Note_on_c, 1, 31, 90
4, 81120, Note_on_c, 1, 31, 0
4, 81120, Note_on_c, 1, 33, 90
4, 81360, Note_on_c, 1, 33, 0
4, 81480, Note_on_c, 1, 33, 90
4, 81540, Note_on_c, 1, 33, 0
4, 81600, Note_on_c, 1, 33, 90
4, 82050, Note_on_c, 1, 33, 0
4, 82080, Note_on_c, 1, 31, 90
4, 82320, Note_on_c, 1, 31, 0
4, 82440, Note_on_c, 1, 31, 90
4, 82500, Note_on_c, 1, 31, 0
4, 82560, Note_on_c, 1, 31, 90
4, 82770, Note_on_c, 1, 31, 0
4, 82920, Note_on_c, 1, 36, 90
4, 83010, Note_on_c, 1, 36, 0
4, 83040, Note_on_c, 1, 38, 90
4, 83280, Note_on_c, 1, 38, 0
4, 83400, Note_on_c, 1, 38, 90
4, 83460, Note_on_c, 1, 38, 0
4, 83520, Note_on_c, 1, 38, 90
4, 83820, Note_on_c, 1, 38, 0
4, 83880, Note_on_c, 1, 38, 90
4, 83940, Note_on_c, 1, 38, 0
4, 84000, Note_on_c, 1, 38, 90
4, 84330, Note_on_c, 1, 38, 0
4, 84360, Note_on_c, 1, 33, 90
4, 84450, Note_on_c, 1, 33, 0
4, 84480, Note_on_c, 1, 38, 90
4, 84780, Note_on_c, 1, 38, 0
4, 84840, Note_on_c, 1, 31, 90
4, 84930, Note_on_c, 1, 31, 0
4, 84960, Note_on_c, 1, 33, 90
4, 85200, Note_on_c, 1, 33, 0
4, 85290, Note_on_c, 1, 33, 90
4, 85380, Note_on_c, 1, 33, 0
4, 85440, Note_on_c, 1, 33, 90
4, 85890, Note_on_c, 1, 33, 0
4, 85920, Note_on_c, 1, 31, 90
4, 86220, Note_on_c, 1, 31, 0
4, 86280, Note_on_c, 1, 31, 90
4, 86340, Note_on_c, 1, 31, 0
4, 86400, Note_on_c, 1, 31, 90
4, 86760, Note_on_c, 1, 31, 0
4, 86760, Note_on_c, 1, 36, 90
4, 86880, Note_on_c, 1, 36, 0
4, 86880, Note_on_c, 1, 38, 90
4, 87150, Note_on_c, 1, 38, 0
4, 87240, Note_on_c, 1, 38, 90
4, 87300, Note_on_c, 1, 38, 0
4, 87360, Note_on_c, 1, 38, 90
4, 87660, Note_on_c, 1, 38, 0
4, 87840, Note_on_c, 1, 38, 90
4, 88110, Note_on_c, 1, 38, 0
4, 88200, Note_on_c, 1, 38, 90
4, 88260, Note_on_c, 1, 38, 0
4, 88320, Note_on_c, 1, 38, 90
4, 88500, Note_on_c, 1, 38, 0
4, 88560, Note_on_c, 1, 38, 90
4, 88680, Note_on_c, 1, 38, 0
4, 88680, Note_on_c, 1, 31, 90
4, 88800, Note_on_c, 1, 31, 0
4, 88800, Note_on_c, 1, 33, 90
4, 89040, Note_on_c, 1, 33, 0
4, 89160, Note_on_c, 1, 33, 90
4, 89220, Note_on_c, 1, 33, 0
4, 89280, Note_on_c, 1, 33, 90
4, 89730, Note_on_c, 1, 33, 0
4, 89760, Note_on_c, 1, 31, 90
4, 90000, Note_on_c, 1, 31, 0
4, 90120, Note_on_c, 1, 31, 90
4, 90180, Note_on_c, 1, 31, 0
4, 90240, Note_on_c, 1, 31, 90
4, 90450, Note_on_c, 1, 31, 0
4, 90600, Note_on_c, 1, 36, 90
4, 90690, Note_on_c, 1, 36, 0
4, 90720, Note_on_c, 1, 38, 90
4, 90960, Note_on_c, 1, 38, 0
4, 91080, Note_on_c, 1, 38, 90
4, 91140, Note_on_c, 1, 38, 0
4, 91200, Note_on_c, 1, 38, 90
4, 91500, Note_on_c, 1, 38, 0
4, 91560, Note_on_c, 1, 38, 90
4, 91620, Note_on_c, 1, 38, 0
4, 91680, Note_on_c, 1, 38, 90
4, 92010, Note_on_c, 1, 38, 0
4, 92040, Note_on_c, 1, 33, 90
4, 92130, Note_on_c, 1, 33, 0
4, 92160, Note_on_c, 1, 38, 90
4, 92460, Note_on_c, 1, 38, 0
4, 92520, Note_on_c, 1, 31, 90
4, 92610, Note_on_c, 1, 31, 0
4, 92640, Note_on_c, 1, 33, 90
4, 92910, Note_on_c, 1, 33, 0
4, 93000, Note_on_c, 1, 33, 90
4, 93060, Note_on_c, 1, 33, 0
4, 93120, Note_on_c, 1, 33, 90
4, 93480, Note_on_c, 1, 33, 0
4, 93480, Note_on_c, 1, 38, 90
4, 93600, Note_on_c, 1, 38, 0
4, 93600, Note_on_c, 1, 31, 90
4, 93900, Note_on_c, 1, 31, 0
4, 93960, Note_on_c, 1, 31, 90
4, 94020, Note_on_c, 1, 31, 0
4, 94080, Note_on_c, 1, 31, 90
4, 94260, Note_on_c, 1, 31, 0
4, 94320, Note_on_c, 1, 31, 90
4, 94440, Note_on_c, 1, 31, 0
4, 94440, Note_on_c, 1, 36, 90
4, 94560, Note_on_c, 1, 36, 0
4, 94560, Note_on_c, 1, 38, 90
4, 94830, Note_on_c, 1, 38, 0
4, 94920, Note_on_c, 1, 38, 90
4, 94980, Note_on_c, 1, 38, 0
4, 95040, Note_on_c, 1, 38, 90
4, 95430, Note_on_c, 1, 38, 0
4, 95520, Note_on_c, 1, 38, 90
4, 95820, Note_on_c, 1, 38, 0
4, 95880, Note_on_c, 1, 38, 90
4, 95940, Note_on_c, 1, 38, 0
4, 96000, Note_on_c, 1, 38, 90
4, 96330, Note_on_c, 1, 38, 0
4, 96480, Note_on_c, 1, 33, 90
4, 96750, Note_on_c, 1, 33, 0
4, 96840, Note_on_c, 1, 33, 90
4, 96900, Note_on_c, 1, 33, 0
4, 96960, Note_on_c, 1, 33, 90
4, 97380, Note_on_c, 1, 33, 0
4, 97440, Note_on_c, 1, 31, 90
4, 97710, Note_on_c, 1, 31, 0
4, 97800, Note_on_c, 1, 31, 90
4, 97860, Note_on_c, 1, 31, 0
4, 97920, Note_on_c, 1, 31, 90
4, 98220, Note_on_c, 1, 31, 0
4, 98280, Note_on_c, 1, 36, 90
4, 98370, Note_on_c, 1, 36, 0
4, 98400, Note_on_c, 1, 38, 90
4, 98670, Note_on_c, 1, 38, 0
4, 98760, Note_on_c, 1, 38, 90
4, 98820, Note_on_c, 1, 38, 0
4, 98880, Note_on_c, 1, 38, 90
4, 99270, Note_on_c, 1, 38, 0
4, 99360, Note_on_c, 1, 38, 90
4, 99630, Note_on_c, 1, 38, 0
4, 99720, Note_on_c, 1, 38, 90
4, 99780, Note_on_c, 1, 38, 0
4, 99840, Note_on_c, 1, 38, 90
4, 100170, Note_on_c, 1, 38, 0
4, 100200, Note_on_c, 1, 31, 90
4, 100320, Note_on_c, 1, 31, 0
4, 100320, Note_on_c, 1, 33, 90
4, 100560, Note_on_c, 1, 33, 0
4, 100650, Note_on_c, 1, 33, 90
4, 100740, Note_on_c, 1, 33, 0
4, 100800, Note_on_c, 1, 33, 90
4, 101250, Note_on_c, 1, 33, 0
4, 101280, Note_on_c, 1, 31, 90
4, 101580, Note_on_c, 1, 31, 0
4, 101640, Note_on_c, 1, 31, 90
4, 101700, Note_on_c, 1, 31, 0
4, 101760, Note_on_c, 1, 31, 90
4, 102120, Note_on_c, 1, 31, 0
4, 102120, Note_on_c, 1, 36, 90
4, 102240, Note_on_c, 1, 36, 0
4, 102240, Note_on_c, 1, 38, 90
4, 102510, Note_on_c, 1, 38, 0
4, 102600, Note_on_c, 1, 38, 90
4, 102660, Note_on_c, 1, 38, 0
4, 102720, Note_on_c, 1, 38, 90
4, 103020, Note_on_c, 1, 38, 0
4, 103200, Note_on_c, 1, 38, 90
4, 103470, Note_on_c, 1, 38, 0
4, 103560, Note_on_c, 1, 38, 90
4, 103620, Note_on_c, 1, 38, 0
4, 103680, Note_on_c, 1, 38, 90
4, 103860, Note_on_c, 1, 38, 0
4, 103920, Note_on_c, 1, 38, 90
4, 104040, Note_on_c, 1, 38, 0
4, 104040, Note_on_c, 1, 31, 90
4, 104160, Note_on_c, 1, 31, 0
4, 104160, Note_on_c, 1, 33, 90
4, 104400, Note_on_c, 1, 33, 0
4, 104520, Note_on_c, 1, 33, 90
4, 104580, Note_on_c, 1, 33, 0
4, 104640, Note_on_c, 1, 33, 90
4, 105090, Note_on_c, 1, 33, 0
4, 105120, Note_on_c, 1, 31, 90
4, 105360, Note_on_c, 1, 31, 0
4, 105480, Note_on_c, 1, 31, 90
4, 105540, Note_on_c, 1, 31, 0
4, 105600, Note_on_c, 1, 31, 90
4, 105810, Note_on_c, 1, 31, 0
4, 105960, Note_on_c, 1, 36, 90
4, 106050, Note_on_c, 1, 36, 0
4, 106080, Note_on_c, 1, 38, 90
4, 106320, Note_on_c, 1, 38, 0
4, 106440, Note_on_c, 1, 38, 90
4, 106500, Note_on_c, 1, 38, 0
4, 106560, Note_on_c, 1, 38, 90
4, 106860, Note_on_c, 1, 38, 0
4, 106920, Note_on_c, 1, 38, 90
4, 106980, Note_on_c, 1, 38, 0
4, 107040, Note_on_c, 1, 38, 90
4, 107370, Note_on_c, 1, 38, 0
4, 107400, Note_on_c, 1, 33, 90
4, 107490, Note_on_c, 1, 33, 0
4, 107520, Note_on_c, 1, 38, 90
4, 107820, Note_on_c, 1, 38, 0
4, 107880, Note_on_c, 1, 31, 90
4, 107970, Note_on_c, 1, 31, 0
4, 108000, Note_on_c, 1, 33, 90
4, 108240, Note_on_c, 1, 33, 0
4, 108330, Note_on_c, 1, 33, 90
4, 108420, Note_on_c, 1, 33, 0
4, 108480, Note_on_c, 1, 33, 90
4, 108930, Note_on_c, 1, 33, 0
4, 108960, Note_on_c, 1, 31, 90
4, 109260, Note_on_c, 1, 31, 0
4, 109320, Note_on_c, 1, 31, 90
4, 109380, Note_on_c, 1, 31, 0
4, 109440, Note_on_c, 1, 31, 90
4, 109800, Note_on_c, 1, 31, 0
4, 109800, Note_on_c, 1, 36, 90
4, 109920, Note_on_c, 1, 36, 0
4, 109920, Note_on_c, 1, 38, 90
4, 110190, Note_on_c, 1, 38, 0
4, 110280, Note_on_c, 1, 38, 90
4, 110340, Note_on_c, 1, 38, 0
4, 110400, Note_on_c, 1, 38, 90
4, 110700, Note_on_c, 1, 38, 0
4, 110880, Note_on_c, 1, 38, 90
4, 111150, Note_on_c, 1, 38, 0
4, 111240, Note_on_c, 1, 38, 90
4, 111300, Note_on_c, 1, 38, 0
4, 111360, Note_on_c, 1, 38, 90
4, 111540, Note_on_c, 1, 38, 0
4, 111600, Note_on_c, 1, 38, 90
4, 111720, Note_on_c, 1, 38, 0
4, 111720, Note_on_c, 1, 31, 90
4, 111840, Note_on_c, 1, 31, 0
4, 111840, Note_on_c, 1, 33, 90
4, 112080, Note_on_c, 1, 33, 0
4, 112200, Note_on_c, 1, 33, 90
4, 112260, Note_on_c, 1, 33, 0
4, 112320, Note_on_c, 1, 33, 90
4, 112770, Note_on_c, 1, 33, 0
4, 112800, Note_on_c, 1, 31, 90
4, 113040, Note_on_c, 1, 31, 0
4, 113160, Note_on_c, 1, 31, 90
4, 113220, Note_on_c, 1, 31, 0
4, 113280, Note_on_c, 1, 31, 90
4, 113490, Note_on_c, 1, 31, 0
4, 113640, Note_on_c, 1, 36, 90
4, 113730, Note_on_c, 1, 36, 0
4, 113760, Note_on_c, 1, 38, 90
4, 114000, Note_on_c, 1, 38, 0
4, 114120, Note_on_c, 1, 38, 90
4, 114180, Note_on_c, 1, 38, 0
4, 114240, Note_on_c, 1, 38, 90
4, 114540, Note_on_c, 1, 38, 0
4, 114600, Note_on_c, 1, 38, 90
4, 114660, Note_on_c, 1, 38, 0
4, 114720, Note_on_c, 1, 38, 90
4, 115050, Note_on_c, 1, 38, 0
4, 115080, Note_on_c, 1, 33, 90
4, 115170, Note_on_c, 1, 33, 0
4, 115200, Note_on_c, 1, 38, 90
4, 115500, Note_on_c, 1, 38, 0
4, 115560, Note_on_c, 1, 31, 90
4, 115650, Note_on_c, 1, 31, 0
4, 115680, Note_on_c, 1, 33, 90
4, 115950, Note_on_c, 1, 33, 0
4, 116040, Note_on_c, 1, 33, 90
4, 116100, Note_on_c, 1, 33, 0
4, 116160, Note_on_c, 1, 33, 90
4, 116225, Control_c, 1, 7, 70
4, 116458, Control_c, 1, 7, 69
4, 116520, Note_on_c, 1, 33, 0
4, 116520, Note_on_c, 1, 38, 90
4, 116640, Note_on_c, 1, 38, 0
4, 116640, Control_c, 1, 7, 67
4, 116640, Note_on_c, 1, 31, 90
4, 116800, Control_c, 1, 7, 66
4, 116940, Note_on_c, 1, 31, 0
4, 117000, Note_on_c, 1, 31, 90
4, 117005, Control_c, 1, 7, 65
4, 117060, Note_on_c, 1, 31, 0
4, 117075, Control_c, 1, 7, 64
4, 117120, Note_on_c, 1, 31, 90
4, 117225, Control_c, 1, 7, 63
4, 117300, Note_on_c, 1, 31, 0
4, 117360, Note_on_c, 1, 31, 90
4, 117472, Control_c, 1, 7, 62
4, 117480, Note_on_c, 1, 31, 0
4, 117480, Note_on_c, 1, 36, 90
4, 117600, Note_on_c, 1, 36, 0
4, 117600, Note_on_c, 1, 38, 90
4, 117668, Control_c, 1, 7, 61
4, 117770, Control_c, 1, 7, 60
4, 117870, Note_on_c, 1, 38, 0
4, 117875, Control_c, 1, 7, 59
4, 117960, Note_on_c, 1, 38, 90
4, 118020, Note_on_c, 1, 38, 0
4, 118065, Control_c, 1, 7, 58
4, 118080, Note_on_c, 1, 38, 90
4, 118450, Control_c, 1, 7, 56
4, 118470, Note_on_c, 1, 38, 0
4, 118560, Note_on_c, 1, 38, 90
4, 118674, Control_c, 1, 7, 55
4, 118851, Control_c, 1, 7, 54
4, 118860, Note_on_c, 1, 38, 0
4, 118920, Note_on_c, 1, 38, 90
4, 118980, Note_on_c, 1, 38, 0
4, 119040, Note_on_c, 1, 38, 90
4, 119089, Control_c, 1, 7, 53
4, 119215, Control_c, 1, 7, 52
4, 119370, Note_on_c, 1, 38, 0
4, 119400, Control_c, 1, 7, 50
4, 119520, Note_on_c, 1, 33, 90
4, 119790, Note_on_c, 1, 33, 0
4, 119880, Note_on_c, 1, 33, 90
4, 119910, Control_c, 1, 7, 49
4, 119940, Note_on_c, 1, 33, 0
4, 120000, Note_on_c, 1, 33, 90
4, 120120, Control_c, 1, 7, 48
4, 120205, Control_c, 1, 7, 46
4, 120420, Note_on_c, 1, 33, 0
4, 120465, Control_c, 1, 7, 45
4, 120480, Note_on_c, 1, 31, 90
4, 120655, Control_c, 1, 7, 44
4, 120690, Control_c, 1, 7, 43
4, 120750, Note_on_c, 1, 31, 0
4, 120825, Control_c, 1, 7, 42
4, 120840, Note_on_c, 1, 31, 90
4, 120900, Note_on_c, 1, 31, 0
4, 120960, Note_on_c, 1, 31, 90
4, 121021, Control_c, 1, 7, 41
4, 121195, Control_c, 1, 7, 39
4, 121260, Note_on_c, 1, 31, 0
4, 121320, Note_on_c, 1, 36, 90
4, 121410, Note_on_c, 1, 36, 0
4, 121440, Note_on_c, 1, 38, 90
4, 121510, Control_c, 1, 7, 38
4, 121710, Note_on_c, 1, 38, 0
4, 121800, Note_on_c, 1, 38, 90
4, 121860, Note_on_c, 1, 38, 0
4, 121895, Control_c, 1, 7, 37
4, 121920, Note_on_c, 1, 38, 90
4, 121950, Control_c, 1, 7, 35
4, 122180, Control_c, 1, 7, 34
4, 122310, Note_on_c, 1, 38, 0
4, 122400, Note_on_c, 1, 38, 90
4, 122487, Control_c, 1, 7, 33
4, 122670, Note_on_c, 1, 38, 0
4, 122686, Control_c, 1, 7, 32
4, 122760, Note_on_c, 1, 38, 90
4, 122820, Note_on_c, 1, 38, 0
4, 122855, Control_c, 1, 7, 31
4, 122880, Note_on_c, 1, 38, 90
4, 123088, Control_c, 1, 7, 30
4, 123121, Control_c, 1, 7, 29
4, 123210, Note_on_c, 1, 38, 0
4, 123240, Note_on_c, 1, 31, 90
4, 123310, Control_c, 1, 7, 28
4, 123360, Note_on_c, 1, 31, 0
4, 123360, Note_on_c, 1, 33, 90
4, 123500, Control_c, 1, 7, 27
4, 123600, Note_on_c, 1, 33, 0
4, 123690, Note_on_c, 1, 33, 90
4, 123780, Note_on_c, 1, 33, 0
4, 123840, Note_on_c, 1, 33, 90
4, 123915, Control_c, 1, 7, 26
4, 124100, Control_c, 1, 7, 24
4, 124210, Control_c, 1, 7, 23
4, 124290, Note_on_c, 1, 33, 0
4, 124320, Note_on_c, 1, 31, 90
4, 124610, Control_c, 1, 7, 22
4, 124620, Note_on_c, 1, 31, 0
4, 124680, Note_on_c, 1, 31, 90
4, 124740, Note_on_c, 1, 31, 0
4, 124780, Control_c, 1, 7, 21
4, 124800, Note_on_c, 1, 31, 90
4, 124990, Control_c, 1, 7, 20
4, 125160, Note_on_c, 1, 31, 0
4, 125160, Note_on_c, 1, 36, 90
4, 125263, Control_c, 1, 7, 19
4, 125280, Note_on_c, 1, 36, 0
4, 125280, Note_on_c, 1, 38, 90
4, 125440, Control_c, 1, 7, 18
4, 125505, Control_c, 1, 7, 17
4, 125550, Note_on_c, 1, 38, 0
4, 125640, Note_on_c, 1, 38, 90
4, 125700, Note_on_c, 1, 38, 0
4, 125760, Note_on_c, 1, 38, 90
4, 125860, Control_c, 1, 7, 16
4, 125937, Control_c, 1, 7, 15
4, 126060, Note_on_c, 1, 38, 0
4, 126196, Control_c, 1, 7, 13
4, 126240, Note_on_c, 1, 38, 90
4, 126432, Control_c, 1, 7, 12
4, 126510, Note_on_c, 1, 38, 0
4, 126600, Note_on_c, 1, 38, 90
4, 126625, Control_c, 1, 7, 11
4, 126660, Note_on_c, 1, 38, 0
4, 126720, Note_on_c, 1, 38, 90
4, 126900, Note_on_c, 1, 38, 0
4, 126960, Note_on_c, 1, 38, 90
4, 127070, Control_c, 1, 7, 9
4, 127080, Note_on_c, 1, 38, 0
4, 127080, Note_on_c, 1, 31, 90
4, 127200, Note_on_c, 1, 31, 0
4, 127200, Note_on_c, 1, 33, 90
4, 127380, Control_c, 1, 7, 7
4, 127440, Note_on_c, 1, 33, 0
4, 127560, Note_on_c, 1, 33, 90
4, 127620, Note_on_c, 1, 33, 0
4, 127650, Control_c, 1, 7, 6
4, 127680, Note_on_c, 1, 33, 90
4, 127852, Control_c, 1, 7, 5
4, 128130, Note_on_c, 1, 33, 0
4, 128160, Note_on_c, 1, 31, 90
4, 128200, Control_c, 1, 7, 3
4, 128400, Note_on_c, 1, 31, 0
4, 128415, Control_c, 1, 7, 2
4, 128520, Note_on_c, 1, 31, 90
4, 128580, Note_on_c, 1, 31, 0
4, 128590, Control_c, 1, 7, 1
4, 128640, Note_on_c, 1, 31, 90
4, 128850, Note_on_c, 1, 31, 0
4, 128920, Control_c, 1, 7, 0
4, 129000, Note_on_c, 1, 36, 90
4, 129090, Note_on_c, 1, 36, 0
4, 129120, Note_on_c, 1, 38, 90
4, 129360, Note_on_c, 1, 38, 0
4, 129480, Note_on_c, 1, 38, 90
4, 129540, Note_on_c, 1, 38, 0
4, 129540, End_track
5, 0, Start_track
5, 0, MIDI_port, 0
5, 0, Title_t, "JazzGtr"
5, 130, Control_c, 2, 0, 0
5, 131, Control_c, 2, 32, 0
5, 132, Program_c, 2, 26
5, 133, Control_c, 2, 7, 90
5, 133, Control_c, 2, 10, 50
5, 310, Control_c, 2, 91, 88
5, 484, Note_on_c, 2, 64, 119
5, 781, Pitch_bend_c, 2, 7715
5, 781, Pitch_bend_c, 2, 7715
5, 782, Pitch_bend_c, 2, 7715
5, 794, Pitch_bend_c, 2, 7476
5, 795, Pitch_bend_c, 2, 7476
5, 796, Pitch_bend_c, 2, 7476
5, 824, Pitch_bend_c, 2, 7118
5, 824, Pitch_bend_c, 2, 7118
5, 825, Pitch_bend_c, 2, 7118
5, 851, Pitch_bend_c, 2, 6657
5, 852, Pitch_bend_c, 2, 6657
5, 853, Pitch_bend_c, 2, 6657
5, 872, Pitch_bend_c, 2, 6315
5, 872, Pitch_bend_c, 2, 6315
5, 873, Pitch_bend_c, 2, 6315
5, 943, Pitch_bend_c, 2, 5945
5, 944, Pitch_bend_c, 2, 5945
5, 945, Pitch_bend_c, 2, 5945
5, 969, Pitch_bend_c, 2, 5647
5, 969, Pitch_bend_c, 2, 5647
5, 970, Pitch_bend_c, 2, 5647
5, 1002, Pitch_bend_c, 2, 5428
5, 1003, Pitch_bend_c, 2, 5428
5, 1004, Pitch_bend_c, 2, 5428
5, 1075, Pitch_bend_c, 2, 5070
5, 1075, Pitch_bend_c, 2, 5070
5, 1076, Pitch_bend_c, 2, 5070
5, 1109, Pitch_bend_c, 2, 4609
5, 1109, Pitch_bend_c, 2, 4609
5, 1110, Pitch_bend_c, 2, 4609
5, 1161, Pitch_bend_c, 2, 4267
5, 1162, Pitch_bend_c, 2, 4267
5, 1163, Pitch_bend_c, 2, 4267
5, 1230, Pitch_bend_c, 2, 3858
5, 1231, Pitch_bend_c, 2, 3858
5, 1231, Pitch_bend_c, 2, 3858
5, 1287, Pitch_bend_c, 2, 3499
5, 1287, Pitch_bend_c, 2, 3499
5, 1288, Pitch_bend_c, 2, 3499
5, 1326, Pitch_bend_c, 2, 3300
5, 1327, Pitch_bend_c, 2, 3300
5, 1328, Pitch_bend_c, 2, 3300
5, 1379, Pitch_bend_c, 2, 3002
5, 1380, Pitch_bend_c, 2, 3002
5, 1380, Pitch_bend_c, 2, 3002
5, 1422, Pitch_bend_c, 2, 2561
5, 1422, Pitch_bend_c, 2, 2561
5, 1423, Pitch_bend_c, 2, 2561
5, 1461, Pitch_bend_c, 2, 2219
5, 1462, Pitch_bend_c, 2, 2219
5, 1462, Pitch_bend_c, 2, 2219
5, 1505, Pitch_bend_c, 2, 1810
5, 1505, Pitch_bend_c, 2, 1810
5, 1506, Pitch_bend_c, 2, 1810
5, 1534, Pitch_bend_c, 2, 1571
5, 1535, Pitch_bend_c, 2, 1571
5, 1536, Pitch_bend_c, 2, 1571
5, 1558, Pitch_bend_c, 2, 1213
5, 1558, Pitch_bend_c, 2, 1213
5, 1559, Pitch_bend_c, 2, 1213
5, 1597, Pitch_bend_c, 2, 712
5, 1598, Pitch_bend_c, 2, 712
5, 1598, Pitch_bend_c, 2, 712
5, 1660, Pitch_bend_c, 2, 285
5, 1660, Pitch_bend_c, 2, 285
5, 1661, Pitch_bend_c, 2, 285
5, 1669, Pitch_bend_c, 2, 0
5, 1670, Pitch_bend_c, 2, 0
5, 1670, Pitch_bend_c, 2, 0
5, 1690, Note_on_c, 2, 64, 0
5, 1743, Pitch_bend_c, 2, 570
5, 1743, Pitch_bend_c, 2, 570
5, 1744, Pitch_bend_c, 2, 570
5, 1747, Pitch_bend_c, 2, 1332
5, 1748, Pitch_bend_c, 2, 1332
5, 1748, Pitch_bend_c, 2, 1332
5, 1753, Pitch_bend_c, 2, 1929
5, 1753, Pitch_bend_c, 2, 1929
5, 1753, Pitch_bend_c, 2, 1929
5, 1757, Pitch_bend_c, 2, 3858
5, 1757, Pitch_bend_c, 2, 3858
5, 1758, Pitch_bend_c, 2, 3858
5, 1761, Pitch_bend_c, 2, 8192
5, 1762, Pitch_bend_c, 2, 8192
5, 1763, Pitch_bend_c, 2, 8192
5, 1766, Pitch_bend_c, 2, 10353
5, 1766, Pitch_bend_c, 2, 10353
5, 1767, Pitch_bend_c, 2, 10353
5, 1772, Pitch_bend_c, 2, 8192
5, 1773, Pitch_bend_c, 2, 8192
5, 1773, Pitch_bend_c, 2, 8192
5, 1887, Note_on_c, 2, 55, 73
5, 1925, Note_on_c, 2, 59, 57
5, 1932, Note_on_c, 2, 62, 115
5, 1937, Note_on_c, 2, 55, 0
5, 1958, Note_on_c, 2, 59, 0
5, 2100, Note_on_c, 2, 60, 115
5, 2111, Note_on_c, 2, 62, 0
5, 2243, Note_on_c, 2, 59, 94
5, 2251, Note_on_c, 2, 60, 0
5, 2387, Note_on_c, 2, 59, 0
5, 2387, Note_on_c, 2, 57, 88
5, 2467, Control_c, 2, 1, 85
5, 2730, Control_c, 2, 93, 3
5, 2735, Control_c, 2, 93, 1
5, 2790, Control_c, 2, 93, 0
5, 2825, Control_c, 2, 93, 2
5, 2860, Control_c, 2, 93, 5
5, 2875, Control_c, 2, 93, 8
5, 2891, Control_c, 2, 93, 12
5, 2900, Control_c, 2, 93, 16
5, 2910, Control_c, 2, 93, 21
5, 2935, Control_c, 2, 93, 25
5, 2945, Control_c, 2, 93, 29
5, 2960, Control_c, 2, 93, 33
5, 2970, Control_c, 2, 93, 37
5, 3005, Control_c, 2, 93, 39
5, 3055, Control_c, 2, 93, 42
5, 3120, Pitch_bend_c, 2, 8073
5, 3121, Pitch_bend_c, 2, 8073
5, 3122, Pitch_bend_c, 2, 8073
5, 3131, Pitch_bend_c, 2, 7715
5, 3131, Pitch_bend_c, 2, 7715
5, 3132, Pitch_bend_c, 2, 7715
5, 3144, Pitch_bend_c, 2, 7476
5, 3145, Pitch_bend_c, 2, 7476
5, 3146, Pitch_bend_c, 2, 7476
5, 3159, Pitch_bend_c, 2, 7118
5, 3159, Pitch_bend_c, 2, 7118
5, 3160, Pitch_bend_c, 2, 7118
5, 3169, Pitch_bend_c, 2, 6657
5, 3169, Pitch_bend_c, 2, 6657
5, 3170, Pitch_bend_c, 2, 6657
5, 3178, Pitch_bend_c, 2, 6315
5, 3179, Pitch_bend_c, 2, 6315
5, 3179, Pitch_bend_c, 2, 6315
5, 3199, Pitch_bend_c, 2, 7118
5, 3199, Pitch_bend_c, 2, 7118
5, 3200, Pitch_bend_c, 2, 7118
5, 3203, Pitch_bend_c, 2, 7595
5, 3204, Pitch_bend_c, 2, 7595
5, 3205, Pitch_bend_c, 2, 7595
5, 3209, Pitch_bend_c, 2, 8073
5, 3209, Pitch_bend_c, 2, 8073
5, 3210, Pitch_bend_c, 2, 8073
5, 3213, Pitch_bend_c, 2, 8192
5, 3213, Pitch_bend_c, 2, 8192
5, 3214, Pitch_bend_c, 2, 8192
5, 3290, Pitch_bend_c, 2, 7834
5, 3290, Pitch_bend_c, 2, 7834
5, 3291, Pitch_bend_c, 2, 7834
5, 3296, Pitch_bend_c, 2, 7595
5, 3297, Pitch_bend_c, 2, 7595
5, 3297, Pitch_bend_c, 2, 7595
5, 3368, Pitch_bend_c, 2, 7834
5, 3368, Pitch_bend_c, 2, 7834
5, 3369, Pitch_bend_c, 2, 7834
5, 3372, Pitch_bend_c, 2, 8192
5, 3373, Pitch_bend_c, 2, 8192
5, 3373, Pitch_bend_c, 2, 8192
5, 3416, Pitch_bend_c, 2, 7715
5, 3416, Pitch_bend_c, 2, 7715
5, 3417, Pitch_bend_c, 2, 7715
5, 3421, Pitch_bend_c, 2, 6998
5, 3422, Pitch_bend_c, 2, 6998
5, 3422, Pitch_bend_c, 2, 6998
5, 3425, Pitch_bend_c, 2, 6045
5, 3426, Pitch_bend_c, 2, 6045
5, 3426, Pitch_bend_c, 2, 6045
5, 3430, Pitch_bend_c, 2, 5746
5, 3430, Pitch_bend_c, 2, 5746
5, 3431, Pitch_bend_c, 2, 5746
5, 3459, Pitch_bend_c, 2, 6045
5, 3460, Pitch_bend_c, 2, 6045
5, 3461, Pitch_bend_c, 2, 6045
5, 3470, Pitch_bend_c, 2, 6486
5, 3470, Pitch_bend_c, 2, 6486
5, 3471, Pitch_bend_c, 2, 6486
5, 3479, Pitch_bend_c, 2, 7357
5, 3480, Pitch_bend_c, 2, 7357
5, 3482, Pitch_bend_c, 2, 7357
5, 3484, Pitch_bend_c, 2, 7595
5, 3484, Pitch_bend_c, 2, 7595
5, 3485, Pitch_bend_c, 2, 7595
5, 3488, Pitch_bend_c, 2, 7954
5, 3488, Pitch_bend_c, 2, 7954
5, 3489, Pitch_bend_c, 2, 7954
5, 3494, Pitch_bend_c, 2, 8192
5, 3495, Pitch_bend_c, 2, 8192
5, 3586, Pitch_bend_c, 2, 8192
5, 3639, Pitch_bend_c, 2, 8073
5, 3639, Pitch_bend_c, 2, 8073
5, 3639, Pitch_bend_c, 2, 8073
5, 3659, Pitch_bend_c, 2, 7715
5, 3660, Pitch_bend_c, 2, 7715
5, 3660, Pitch_bend_c, 2, 7715
5, 3682, Pitch_bend_c, 2, 8192
5, 3683, Pitch_bend_c, 2, 8192
5, 3683, Pitch_bend_c, 2, 8192
5, 3864, Note_on_c, 2, 57, 0
5, 3868, Control_c, 2, 1, 3
5, 4045, Control_c, 2, 93, 37
5, 4082, Note_on_c, 2, 57, 107
5, 4120, Control_c, 2, 93, 39
5, 4170, Control_c, 2, 93, 42
5, 4180, Control_c, 2, 93, 44
5, 4185, Pitch_bend_c, 2, 7715
5, 4186, Pitch_bend_c, 2, 7715
5, 4186, Pitch_bend_c, 2, 7715
5, 4199, Pitch_bend_c, 2, 7476
5, 4199, Pitch_bend_c, 2, 7476
5, 4201, Pitch_bend_c, 2, 7476
5, 4215, Pitch_bend_c, 2, 7118
5, 4215, Pitch_bend_c, 2, 7118
5, 4216, Pitch_bend_c, 2, 7118
5, 4221, Control_c, 2, 93, 47
5, 4224, Pitch_bend_c, 2, 6657
5, 4225, Pitch_bend_c, 2, 6657
5, 4226, Pitch_bend_c, 2, 6657
5, 4229, Pitch_bend_c, 2, 6315
5, 4229, Pitch_bend_c, 2, 6315
5, 4230, Pitch_bend_c, 2, 6315
5, 4234, Pitch_bend_c, 2, 5846
5, 4234, Pitch_bend_c, 2, 5846
5, 4235, Pitch_bend_c, 2, 5846
5, 4237, Pitch_bend_c, 2, 5647
5, 4238, Pitch_bend_c, 2, 5647
5, 4238, Pitch_bend_c, 2, 5647
5, 4242, Pitch_bend_c, 2, 5309
5, 4242, Pitch_bend_c, 2, 5309
5, 4243, Pitch_bend_c, 2, 5309
5, 4251, Pitch_bend_c, 2, 4780
5, 4252, Pitch_bend_c, 2, 4780
5, 4252, Pitch_bend_c, 2, 4780
5, 4264, Pitch_bend_c, 2, 4438
5, 4264, Pitch_bend_c, 2, 4438
5, 4265, Control_c, 2, 93, 52
5, 4265, Pitch_bend_c, 2, 4438
5, 4273, Pitch_bend_c, 2, 3858
5, 4273, Pitch_bend_c, 2, 3858
5, 4274, Pitch_bend_c, 2, 3858
5, 4281, Pitch_bend_c, 2, 3400
5, 4282, Pitch_bend_c, 2, 3400
5, 4282, Pitch_bend_c, 2, 3400
5, 4286, Pitch_bend_c, 2, 3002
5, 4286, Pitch_bend_c, 2, 3002
5, 4287, Pitch_bend_c, 2, 3002
5, 4291, Pitch_bend_c, 2, 2561
5, 4292, Pitch_bend_c, 2, 2561
5, 4292, Pitch_bend_c, 2, 2561
5, 4296, Pitch_bend_c, 2, 2219
5, 4296, Pitch_bend_c, 2, 2219
5, 4296, Pitch_bend_c, 2, 2219
5, 4299, Pitch_bend_c, 2, 1810
5, 4299, Pitch_bend_c, 2, 1810
5, 4300, Pitch_bend_c, 2, 1810
5, 4304, Pitch_bend_c, 2, 1571
5, 4305, Pitch_bend_c, 2, 1571
5, 4306, Pitch_bend_c, 2, 1571
5, 4309, Pitch_bend_c, 2, 1213
5, 4309, Pitch_bend_c, 2, 1213
5, 4310, Pitch_bend_c, 2, 1213
5, 4317, Note_on_c, 2, 57, 0
5, 4322, Note_on_c, 2, 62, 109
5, 4326, Pitch_bend_c, 2, 2219
5, 4327, Pitch_bend_c, 2, 2219
5, 4330, Pitch_bend_c, 2, 2219
5, 4331, Pitch_bend_c, 2, 4609
5, 4331, Pitch_bend_c, 2, 4609
5, 4332, Pitch_bend_c, 2, 4609
5, 4334, Pitch_bend_c, 2, 8328
5, 4334, Pitch_bend_c, 2, 8328
5, 4335, Pitch_bend_c, 2, 8328
5, 4340, Pitch_bend_c, 2, 9558
5, 4341, Pitch_bend_c, 2, 9558
5, 4341, Pitch_bend_c, 2, 9558
5, 4345, Pitch_bend_c, 2, 8073
5, 4346, Pitch_bend_c, 2, 8073
5, 4346, Pitch_bend_c, 2, 8073
5, 4348, Pitch_bend_c, 2, 8192
5, 4349, Pitch_bend_c, 2, 8192
5, 4349, Pitch_bend_c, 2, 8192
5, 4414, Pitch_bend_c, 2, 8601
5, 4414, Pitch_bend_c, 2, 8601
5, 4415, Pitch_bend_c, 2, 8601
5, 4427, Pitch_bend_c, 2, 8875
5, 4428, Pitch_bend_c, 2, 8875
5, 4428, Pitch_bend_c, 2, 8875
5, 4463, Pitch_bend_c, 2, 9284
5, 4463, Pitch_bend_c, 2, 9284
5, 4464, Pitch_bend_c, 2, 9284
5, 4515, Pitch_bend_c, 2, 9694
5, 4515, Pitch_bend_c, 2, 9694
5, 4516, Pitch_bend_c, 2, 9694
5, 4538, Pitch_bend_c, 2, 10103
5, 4539, Pitch_bend_c, 2, 10103
5, 4539, Pitch_bend_c, 2, 10103
5, 4572, Pitch_bend_c, 2, 10467
5, 4572, Pitch_bend_c, 2, 10467
5, 4573, Pitch_bend_c, 2, 10467
5, 4598, Pitch_bend_c, 2, 10695
5, 4599, Pitch_bend_c, 2, 10695
5, 4611, Pitch_bend_c, 2, 10695
5, 4612, Pitch_bend_c, 2, 11059
5, 4612, Pitch_bend_c, 2, 11059
5, 4612, Pitch_bend_c, 2, 11059
5, 4629, Pitch_bend_c, 2, 11469
5, 4630, Pitch_bend_c, 2, 11469
5, 4630, Pitch_bend_c, 2, 11469
5, 4651, Pitch_bend_c, 2, 11878
5, 4651, Pitch_bend_c, 2, 11878
5, 4652, Pitch_bend_c, 2, 11878
5, 4669, Pitch_bend_c, 2, 12288
5, 4670, Pitch_bend_c, 2, 12288
5, 4670, Pitch_bend_c, 2, 12288
5, 4687, Pitch_bend_c, 2, 12561
5, 4687, Pitch_bend_c, 2, 12561
5, 4688, Pitch_bend_c, 2, 12561
5, 4708, Pitch_bend_c, 2, 12971
5, 4709, Pitch_bend_c, 2, 12971
5, 4709, Pitch_bend_c, 2, 12971
5, 4727, Pitch_bend_c, 2, 13198
5, 4727, Pitch_bend_c, 2, 13198
5, 4728, Pitch_bend_c, 2, 13198
5, 4744, Pitch_bend_c, 2, 13540
5, 4744, Pitch_bend_c, 2, 13540
5, 4745, Pitch_bend_c, 2, 13540
5, 4770, Pitch_bend_c, 2, 13926
5, 4770, Pitch_bend_c, 2, 13926
5, 4770, Pitch_bend_c, 2, 13926
5, 4802, Pitch_bend_c, 2, 14199
5, 4803, Pitch_bend_c, 2, 14199
5, 4803, Pitch_bend_c, 2, 14199
5, 4824, Pitch_bend_c, 2, 14609
5, 4824, Pitch_bend_c, 2, 14609
5, 4825, Pitch_bend_c, 2, 14609
5, 4845, Pitch_bend_c, 2, 15019
5, 4846, Pitch_bend_c, 2, 15019
5, 4846, Pitch_bend_c, 2, 15019
5, 4881, Control_c, 2, 93, 55
5, 4884, Pitch_bend_c, 2, 15428
5, 4884, Pitch_bend_c, 2, 15428
5, 4885, Pitch_bend_c, 2, 15428
5, 4911, Pitch_bend_c, 2, 15815
5, 4912, Pitch_bend_c, 2, 15815
5, 4912, Pitch_bend_c, 2, 15815
5, 4933, Pitch_bend_c, 2, 16042
5, 4934, Pitch_bend_c, 2, 16042
5, 4934, Pitch_bend_c, 2, 16042
5, 4941, Pitch_bend_c, 2, 16269
5, 4942, Pitch_bend_c, 2, 16269
5, 4943, Pitch_bend_c, 2, 16269
5, 4953, Control_c, 2, 93, 59
5, 4969, Pitch_bend_c, 2, 16383
5, 4969, Pitch_bend_c, 2, 16383
5, 4970, Pitch_bend_c, 2, 16383
5, 5110, Control_c, 2, 93, 55
5, 5125, Control_c, 2, 93, 52
5, 5135, Control_c, 2, 93, 49
5, 5150, Control_c, 2, 93, 46
5, 5536, Note_on_c, 2, 62, 0
5, 5553, Pitch_bend_c, 2, 15292
5, 5553, Pitch_bend_c, 2, 15292
5, 5554, Pitch_bend_c, 2, 15292
5, 5557, Pitch_bend_c, 2, 9011
5, 5558, Pitch_bend_c, 2, 9011
5, 5558, Pitch_bend_c, 2, 9011
5, 5563, Pitch_bend_c, 2, 5309
5, 5563, Pitch_bend_c, 2, 5309
5, 5564, Pitch_bend_c, 2, 5309
5, 5566, Pitch_bend_c, 2, 8073
5, 5567, Pitch_bend_c, 2, 8073
5, 5567, Pitch_bend_c, 2, 8073
5, 5571, Pitch_bend_c, 2, 9694
5, 5571, Pitch_bend_c, 2, 9694
5, 5571, Pitch_bend_c, 2, 9694
5, 5574, Pitch_bend_c, 2, 8192
5, 5574, Pitch_bend_c, 2, 8192
5, 5575, Pitch_bend_c, 2, 8192
5, 5711, Note_on_c, 2, 55, 75
5, 5734, Note_on_c, 2, 59, 74
5, 5764, Note_on_c, 2, 62, 108
5, 5771, Note_on_c, 2, 55, 0
5, 5778, Note_on_c, 2, 59, 0
5, 5920, Note_on_c, 2, 60, 111
5, 5935, Note_on_c, 2, 62, 0
5, 6078, Note_on_c, 2, 59, 102
5, 6081, Note_on_c, 2, 60, 0
5, 6228, Note_on_c, 2, 57, 94
5, 6231, Note_on_c, 2, 59, 0
5, 6341, Control_c, 2, 1, 80
5, 6347, Control_c, 2, 1, 81
5, 6731, Control_c, 2, 93, 44
5, 6805, Control_c, 2, 93, 42
5, 6830, Control_c, 2, 93, 40
5, 6840, Control_c, 2, 93, 38
5, 6855, Note_on_c, 2, 50, 78
5, 6865, Note_on_c, 2, 57, 0
5, 6875, Control_c, 2, 93, 36
5, 6900, Control_c, 2, 93, 33
5, 6910, Control_c, 2, 1, 2
5, 6915, Control_c, 2, 93, 32
5, 6935, Control_c, 2, 93, 29
5, 6961, Control_c, 2, 93, 27
5, 6968, Note_on_c, 2, 55, 90
5, 6973, Note_on_c, 2, 50, 0
5, 6985, Control_c, 2, 93, 23
5, 7010, Control_c, 2, 93, 21
5, 7035, Control_c, 2, 93, 18
5, 7070, Control_c, 2, 93, 15
5, 7076, Note_on_c, 2, 50, 83
5, 7086, Note_on_c, 2, 55, 0
5, 7198, Note_on_c, 2, 54, 81
5, 7202, Note_on_c, 2, 50, 0
5, 7240, Control_c, 2, 93, 13
5, 7300, Control_c, 2, 93, 10
5, 7307, Control_c, 2, 1, 81
5, 7837, Control_c, 2, 1, 2
5, 7838, Note_on_c, 2, 54, 0
5, 7860, Control_c, 2, 1, 1
5, 7918, Note_on_c, 2, 57, 99
5, 8051, Pitch_bend_c, 2, 7954
5, 8051, Pitch_bend_c, 2, 7954
5, 8052, Pitch_bend_c, 2, 7954
5, 8059, Pitch_bend_c, 2, 7595
5, 8060, Pitch_bend_c, 2, 7595
5, 8060, Pitch_bend_c, 2, 7595
5, 8068, Pitch_bend_c, 2, 7237
5, 8069, Pitch_bend_c, 2, 7237
5, 8069, Pitch_bend_c, 2, 7237
5, 8078, Pitch_bend_c, 2, 6657
5, 8078, Pitch_bend_c, 2, 6657
5, 8079, Pitch_bend_c, 2, 6657
5, 8085, Pitch_bend_c, 2, 6045
5, 8086, Pitch_bend_c, 2, 6045
5, 8095, Pitch_bend_c, 2, 6045
5, 8095, Pitch_bend_c, 2, 5647
5, 8095, Pitch_bend_c, 2, 5647
5, 8095, Pitch_bend_c, 2, 5647
5, 8100, Pitch_bend_c, 2, 5309
5, 8101, Pitch_bend_c, 2, 5309
5, 8101, Pitch_bend_c, 2, 5309
5, 8104, Pitch_bend_c, 2, 4950
5, 8104, Pitch_bend_c, 2, 4950
5, 8108, Pitch_bend_c, 2, 4950
5, 8108, Pitch_bend_c, 2, 4609
5, 8108, Pitch_bend_c, 2, 4609
5, 8108, Pitch_bend_c, 2, 4609
5, 8111, Pitch_bend_c, 2, 4096
5, 8112, Pitch_bend_c, 2, 4096
5, 8113, Pitch_bend_c, 2, 4096
5, 8118, Pitch_bend_c, 2, 3738
5, 8118, Pitch_bend_c, 2, 3738
5, 8118, Pitch_bend_c, 2, 3738
5, 8126, Pitch_bend_c, 2, 3400
5, 8127, Pitch_bend_c, 2, 3400
5, 8127, Pitch_bend_c, 2, 3400
5, 8131, Pitch_bend_c, 2, 3002
5, 8131, Pitch_bend_c, 2, 3002
5, 8132, Pitch_bend_c, 2, 3002
5, 8139, Pitch_bend_c, 2, 2561
5, 8139, Pitch_bend_c, 2, 2561
5, 8140, Pitch_bend_c, 2, 2561
5, 8146, Pitch_bend_c, 2, 1810
5, 8147, Pitch_bend_c, 2, 1810
5, 8160, Note_on_c, 2, 62, 106
5, 8161, Note_on_c, 2, 57, 0
5, 8170, Pitch_bend_c, 2, 1810
5, 8170, Pitch_bend_c, 2, 2732
5, 8171, Pitch_bend_c, 2, 2732
5, 8171, Pitch_bend_c, 2, 2732
5, 8174, Pitch_bend_c, 2, 5070
5, 8175, Pitch_bend_c, 2, 5070
5, 8175, Pitch_bend_c, 2, 5070
5, 8178, Pitch_bend_c, 2, 8465
5, 8178, Pitch_bend_c, 2, 8465
5, 8178, Pitch_bend_c, 2, 8465
5, 8184, Pitch_bend_c, 2, 9284
5, 8184, Pitch_bend_c, 2, 9284
5, 8185, Pitch_bend_c, 2, 9284
5, 8188, Pitch_bend_c, 2, 8192
5, 8189, Pitch_bend_c, 2, 8192
5, 8190, Pitch_bend_c, 2, 8192
5, 8298, Pitch_bend_c, 2, 8601
5, 8299, Pitch_bend_c, 2, 8601
5, 8299, Pitch_bend_c, 2, 8601
5, 8329, Pitch_bend_c, 2, 8875
5, 8329, Pitch_bend_c, 2, 8875
5, 8330, Pitch_bend_c, 2, 8875
5, 8346, Pitch_bend_c, 2, 9284
5, 8347, Pitch_bend_c, 2, 9284
5, 8347, Pitch_bend_c, 2, 9284
5, 8363, Pitch_bend_c, 2, 9694
5, 8363, Pitch_bend_c, 2, 9694
5, 8363, Pitch_bend_c, 2, 9694
5, 8381, Pitch_bend_c, 2, 10103
5, 8382, Pitch_bend_c, 2, 10103
5, 8382, Pitch_bend_c, 2, 10103
5, 8399, Pitch_bend_c, 2, 10467
5, 8399, Pitch_bend_c, 2, 10467
5, 8399, Pitch_bend_c, 2, 10467
5, 8420, Pitch_bend_c, 2, 10695
5, 8420, Pitch_bend_c, 2, 10695
5, 8421, Pitch_bend_c, 2, 10695
5, 8438, Pitch_bend_c, 2, 11059
5, 8439, Pitch_bend_c, 2, 11059
5, 8439, Pitch_bend_c, 2, 11059
5, 8465, Pitch_bend_c, 2, 11469
5, 8466, Pitch_bend_c, 2, 11469
5, 8466, Pitch_bend_c, 2, 11469
5, 8482, Pitch_bend_c, 2, 11878
5, 8482, Pitch_bend_c, 2, 11878
5, 8483, Pitch_bend_c, 2, 11878
5, 8508, Pitch_bend_c, 2, 12288
5, 8509, Pitch_bend_c, 2, 12288
5, 8509, Pitch_bend_c, 2, 12288
5, 8517, Pitch_bend_c, 2, 12561
5, 8518, Pitch_bend_c, 2, 12561
5, 8518, Pitch_bend_c, 2, 12561
5, 8539, Pitch_bend_c, 2, 12971
5, 8540, Pitch_bend_c, 2, 12971
5, 8540, Pitch_bend_c, 2, 12971
5, 8566, Pitch_bend_c, 2, 13198
5, 8566, Pitch_bend_c, 2, 13198
5, 8567, Pitch_bend_c, 2, 13198
5, 8582, Pitch_bend_c, 2, 13540
5, 8583, Pitch_bend_c, 2, 13540
5, 8583, Pitch_bend_c, 2, 13540
5, 8606, Pitch_bend_c, 2, 13926
5, 8606, Pitch_bend_c, 2, 13926
5, 8607, Pitch_bend_c, 2, 13926
5, 8618, Pitch_bend_c, 2, 14336
5, 8619, Pitch_bend_c, 2, 14336
5, 8619, Pitch_bend_c, 2, 14336
5, 8640, Pitch_bend_c, 2, 14745
5, 8640, Pitch_bend_c, 2, 14745
5, 8642, Pitch_bend_c, 2, 14745
5, 8658, Pitch_bend_c, 2, 15155
5, 8659, Pitch_bend_c, 2, 15155
5, 8659, Pitch_bend_c, 2, 15155
5, 8676, Pitch_bend_c, 2, 15565
5, 8676, Pitch_bend_c, 2, 15565
5, 8677, Pitch_bend_c, 2, 15565
5, 8697, Pitch_bend_c, 2, 15929
5, 8698, Pitch_bend_c, 2, 15929
5, 8698, Pitch_bend_c, 2, 15929
5, 8716, Pitch_bend_c, 2, 16156
5, 8716, Pitch_bend_c, 2, 16156
5, 8717, Pitch_bend_c, 2, 16156
5, 8719, Pitch_bend_c, 2, 16269
5, 8719, Pitch_bend_c, 2, 16269
5, 8720, Pitch_bend_c, 2, 16269
5, 8737, Pitch_bend_c, 2, 16383
5, 8738, Pitch_bend_c, 2, 16383
5, 8739, Pitch_bend_c, 2, 16383
5, 9363, Note_on_c, 2, 62, 0
5, 9379, Pitch_bend_c, 2, 15929
5, 9379, Pitch_bend_c, 2, 15929
5, 9380, Pitch_bend_c, 2, 15929
5, 9384, Pitch_bend_c, 2, 12424
5, 9384, Pitch_bend_c, 2, 12424
5, 9384, Pitch_bend_c, 2, 12424
5, 9387, Pitch_bend_c, 2, 7595
5, 9388, Pitch_bend_c, 2, 7595
5, 9389, Pitch_bend_c, 2, 7595
5, 9392, Pitch_bend_c, 2, 6657
5, 9392, Pitch_bend_c, 2, 6657
5, 9393, Pitch_bend_c, 2, 6657
5, 9397, Pitch_bend_c, 2, 9011
5, 9397, Pitch_bend_c, 2, 9011
5, 9398, Pitch_bend_c, 2, 9011
5, 9400, Pitch_bend_c, 2, 8192
5, 9401, Pitch_bend_c, 2, 8192
5, 9402, Pitch_bend_c, 2, 8192
5, 9539, Note_on_c, 2, 55, 68
5, 9562, Note_on_c, 2, 59, 43
5, 9600, Note_on_c, 2, 62, 110
5, 9603, Note_on_c, 2, 55, 0
5, 9613, Note_on_c, 2, 59, 0
5, 9680, Note_on_c, 2, 62, 0
5, 9758, Note_on_c, 2, 60, 107
5, 9850, Note_on_c, 2, 60, 0
5, 9921, Note_on_c, 2, 59, 105
5, 10072, Note_on_c, 2, 57, 84
5, 10075, Note_on_c, 2, 59, 0
5, 10154, Control_c, 2, 1, 83
5, 10671, Note_on_c, 2, 57, 0
5, 10680, Note_on_c, 2, 50, 81
5, 10688, Control_c, 2, 1, 2
5, 10795, Note_on_c, 2, 54, 81
5, 10798, Note_on_c, 2, 50, 0
5, 10924, Note_on_c, 2, 55, 89
5, 10953, Note_on_c, 2, 54, 0
5, 11040, Note_on_c, 2, 57, 87
5, 11052, Note_on_c, 2, 55, 0
5, 11135, Control_c, 2, 1, 80
5, 11747, Control_c, 2, 1, 2
5, 11757, Note_on_c, 2, 57, 0
5, 12000, Note_on_c, 2, 57, 96
5, 12042, Control_c, 2, 64, 0
5, 12043, Control_c, 2, 64, 0
5, 12043, Control_c, 2, 64, 0
5, 12120, Note_on_c, 2, 64, 96
5, 12240, Note_on_c, 2, 60, 94
5, 12246, Control_c, 2, 64, 127
5, 12246, Control_c, 2, 64, 127
5, 12246, Control_c, 2, 64, 127
5, 12270, Note_on_c, 2, 57, 0
5, 12360, Note_on_c, 2, 64, 0
5, 12360, Note_on_c, 2, 57, 94
5, 12390, Note_on_c, 2, 60, 0
5, 12480, Note_on_c, 2, 62, 94
5, 12600, Note_on_c, 2, 57, 0
5, 12600, Note_on_c, 2, 60, 81
5, 12660, Note_on_c, 2, 62, 0
5, 12720, Note_on_c, 2, 60, 0
5, 12720, Note_on_c, 2, 57, 98
5, 12810, Note_on_c, 2, 57, 0
5, 12840, Note_on_c, 2, 59, 96
5, 12912, Control_c, 2, 64, 0
5, 12913, Control_c, 2, 64, 0
5, 12914, Control_c, 2, 64, 0
5, 12985, Control_c, 2, 64, 127
5, 12986, Control_c, 2, 64, 127
5, 12987, Control_c, 2, 64, 127
5, 13080, Note_on_c, 2, 55, 99
5, 13140, Note_on_c, 2, 59, 0
5, 13200, Note_on_c, 2, 60, 98
5, 13230, Note_on_c, 2, 55, 0
5, 13320, Note_on_c, 2, 55, 97
5, 13350, Note_on_c, 2, 60, 0
5, 13440, Note_on_c, 2, 59, 102
5, 13470, Note_on_c, 2, 55, 0
5, 13560, Note_on_c, 2, 59, 0
5, 13560, Note_on_c, 2, 55, 99
5, 13680, Note_on_c, 2, 57, 86
5, 13710, Note_on_c, 2, 55, 0
5, 13800, Note_on_c, 2, 57, 0
5, 13800, Note_on_c, 2, 55, 99
5, 13920, Note_on_c, 2, 54, 86
5, 13950, Note_on_c, 2, 55, 0
5, 13976, Control_c, 2, 64, 0
5, 13977, Control_c, 2, 64, 0
5, 13978, Control_c, 2, 64, 0
5, 14010, Control_c, 2, 1, 69
5, 14123, Control_c, 2, 64, 127
5, 14123, Control_c, 2, 64, 127
5, 14124, Control_c, 2, 64, 127
5, 14520, Note_on_c, 2, 50, 97
5, 14547, Control_c, 2, 1, 2
5, 14550, Note_on_c, 2, 54, 0
5, 14640, Note_on_c, 2, 54, 86
5, 14760, Note_on_c, 2, 55, 88
5, 14790, Note_on_c, 2, 54, 0
5, 14880, Note_on_c, 2, 55, 0
5, 14880, Note_on_c, 2, 57, 99
5, 14880, Note_on_c, 2, 54, 13
5, 14953, Control_c, 2, 64, 0
5, 14953, Control_c, 2, 64, 0
5, 14954, Control_c, 2, 64, 0
5, 15027, Control_c, 2, 64, 127
5, 15028, Control_c, 2, 64, 127
5, 15028, Control_c, 2, 64, 127
5, 15130, Pitch_bend_c, 2, 7595
5, 15130, Pitch_bend_c, 2, 7595
5, 15131, Pitch_bend_c, 2, 7595
5, 15147, Pitch_bend_c, 2, 7237
5, 15147, Pitch_bend_c, 2, 7237
5, 15148, Pitch_bend_c, 2, 7237
5, 15162, Pitch_bend_c, 2, 6828
5, 15163, Pitch_bend_c, 2, 6828
5, 15163, Pitch_bend_c, 2, 6828
5, 15170, Pitch_bend_c, 2, 6486
5, 15170, Pitch_bend_c, 2, 6486
5, 15171, Pitch_bend_c, 2, 6486
5, 15185, Pitch_bend_c, 2, 6045
5, 15186, Pitch_bend_c, 2, 6045
5, 15187, Pitch_bend_c, 2, 6045
5, 15227, Pitch_bend_c, 2, 5746
5, 15227, Pitch_bend_c, 2, 5746
5, 15228, Pitch_bend_c, 2, 5746
5, 15392, Pitch_bend_c, 2, 6045
5, 15393, Pitch_bend_c, 2, 6045
5, 15394, Pitch_bend_c, 2, 6045
5, 15425, Pitch_bend_c, 2, 6486
5, 15425, Pitch_bend_c, 2, 6486
5, 15426, Pitch_bend_c, 2, 6486
5, 15472, Pitch_bend_c, 2, 6828
5, 15473, Pitch_bend_c, 2, 6828
5, 15473, Pitch_bend_c, 2, 6828
5, 15524, Pitch_bend_c, 2, 7237
5, 15525, Pitch_bend_c, 2, 7237
5, 15525, Pitch_bend_c, 2, 7237
5, 15543, Pitch_bend_c, 2, 7595
5, 15543, Pitch_bend_c, 2, 7595
5, 15544, Pitch_bend_c, 2, 7595
5, 15570, Pitch_bend_c, 2, 7834
5, 15571, Pitch_bend_c, 2, 7834
5, 15571, Pitch_bend_c, 2, 7834
5, 15660, Note_on_c, 2, 54, 0
5, 15660, Note_on_c, 2, 50, 0
5, 15690, Note_on_c, 2, 57, 0
5, 15840, Note_on_c, 2, 57, 97
5, 15855, Control_c, 2, 64, 0
5, 15856, Control_c, 2, 64, 0
5, 15856, Control_c, 2, 64, 0
5, 15960, Note_on_c, 2, 64, 86
5, 15967, Control_c, 2, 64, 127
5, 15968, Control_c, 2, 64, 127
5, 15968, Control_c, 2, 64, 127
5, 16080, Note_on_c, 2, 60, 88
5, 16110, Note_on_c, 2, 57, 0
5, 16200, Note_on_c, 2, 60, 0
5, 16200, Note_on_c, 2, 57, 92
5, 16230, Note_on_c, 2, 64, 0
5, 16320, Note_on_c, 2, 62, 98
5, 16440, Note_on_c, 2, 60, 79
5, 16470, Note_on_c, 2, 57, 0
5, 16530, Note_on_c, 2, 62, 0
5, 16560, Note_on_c, 2, 57, 99
5, 16590, Note_on_c, 2, 60, 0
5, 16680, Note_on_c, 2, 57, 0
5, 16680, Note_on_c, 2, 59, 103
5, 16711, Control_c, 2, 64, 0
5, 16711, Control_c, 2, 64, 0
5, 16712, Control_c, 2, 64, 0
5, 16791, Control_c, 2, 64, 127
5, 16791, Control_c, 2, 64, 127
5, 16792, Control_c, 2, 64, 127
5, 16920, Note_on_c, 2, 60, 84
5, 16950, Note_on_c, 2, 59, 0
5, 17040, Note_on_c, 2, 59, 95
5, 17070, Note_on_c, 2, 60, 0
5, 17160, Note_on_c, 2, 55, 92
5, 17190, Note_on_c, 2, 59, 0
5, 17258, Control_c, 2, 64, 0
5, 17259, Control_c, 2, 64, 0
5, 17259, Control_c, 2, 64, 0
5, 17280, Note_on_c, 2, 60, 100
5, 17310, Note_on_c, 2, 55, 0
5, 17330, Control_c, 2, 64, 127
5, 17331, Control_c, 2, 64, 127
5, 17331, Control_c, 2, 64, 127
5, 17400, Note_on_c, 2, 59, 86
5, 17430, Note_on_c, 2, 60, 0
5, 17520, Note_on_c, 2, 55, 105
5, 17580, Note_on_c, 2, 59, 0
5, 17730, Note_on_c, 2, 55, 0
5, 17760, Note_on_c, 2, 50, 77
5, 17760, Note_on_c, 2, 54, 77
5, 17760, Note_on_c, 2, 57, 77
5, 17809, Control_c, 2, 64, 0
5, 17810, Control_c, 2, 64, 0
5, 17810, Control_c, 2, 64, 0
5, 17906, Control_c, 2, 64, 127
5, 17906, Control_c, 2, 64, 127
5, 17907, Control_c, 2, 64, 127
5, 18300, Note_on_c, 2, 50, 0
5, 18330, Note_on_c, 2, 57, 0
5, 18360, Note_on_c, 2, 54, 0
5, 18360, Note_on_c, 2, 50, 80
5, 18480, Note_on_c, 2, 54, 103
5, 18600, Note_on_c, 2, 55, 78
5, 18629, Control_c, 2, 64, 0
5, 18630, Control_c, 2, 64, 0
5, 18630, Control_c, 2, 64, 0
5, 18720, Note_on_c, 2, 54, 0
5, 18720, Note_on_c, 2, 54, 104
5, 18741, Control_c, 2, 64, 127
5, 18741, Control_c, 2, 64, 127
5, 18742, Control_c, 2, 64, 127
5, 18842, Control_c, 2, 64, 0
5, 18842, Control_c, 2, 64, 0
5, 18842, Control_c, 2, 64, 0
5, 18909, Control_c, 2, 64, 127
5, 18910, Control_c, 2, 64, 127
5, 18910, Control_c, 2, 64, 127
5, 18953, Pitch_bend_c, 2, 7595
5, 18954, Pitch_bend_c, 2, 7595
5, 18955, Pitch_bend_c, 2, 7595
5, 18971, Pitch_bend_c, 2, 7237
5, 18971, Pitch_bend_c, 2, 7237
5, 18972, Pitch_bend_c, 2, 7237
5, 18999, Pitch_bend_c, 2, 6828
5, 19000, Pitch_bend_c, 2, 6828
5, 19001, Pitch_bend_c, 2, 6828
5, 19013, Pitch_bend_c, 2, 6486
5, 19013, Pitch_bend_c, 2, 6486
5, 19014, Pitch_bend_c, 2, 6486
5, 19047, Pitch_bend_c, 2, 6045
5, 19048, Pitch_bend_c, 2, 6045
5, 19049, Pitch_bend_c, 2, 6045
5, 19065, Pitch_bend_c, 2, 5746
5, 19065, Pitch_bend_c, 2, 5746
5, 19066, Pitch_bend_c, 2, 5746
5, 19098, Pitch_bend_c, 2, 5547
5, 19099, Pitch_bend_c, 2, 5547
5, 19099, Pitch_bend_c, 2, 5547
5, 19107, Pitch_bend_c, 2, 5189
5, 19107, Pitch_bend_c, 2, 5189
5, 19108, Pitch_bend_c, 2, 5189
5, 19258, Control_c, 2, 64, 0
5, 19259, Control_c, 2, 64, 0
5, 19259, Control_c, 2, 64, 0
5, 19309, Pitch_bend_c, 2, 5547
5, 19310, Pitch_bend_c, 2, 5547
5, 19310, Pitch_bend_c, 2, 5547
5, 19332, Pitch_bend_c, 2, 5746
5, 19332, Pitch_bend_c, 2, 5746
5, 19333, Pitch_bend_c, 2, 5746
5, 19362, Pitch_bend_c, 2, 6045
5, 19362, Pitch_bend_c, 2, 6045
5, 19363, Pitch_bend_c, 2, 6045
5, 19407, Pitch_bend_c, 2, 6486
5, 19408, Pitch_bend_c, 2, 6486
5, 19408, Pitch_bend_c, 2, 6486
5, 19436, Pitch_bend_c, 2, 6828
5, 19436, Pitch_bend_c, 2, 6828
5, 19437, Pitch_bend_c, 2, 6828
5, 19458, Pitch_bend_c, 2, 7237
5, 19459, Pitch_bend_c, 2, 7237
5, 19459, Pitch_bend_c, 2, 7237
5, 19474, Pitch_bend_c, 2, 7595
5, 19474, Pitch_bend_c, 2, 7595
5, 19475, Pitch_bend_c, 2, 7595
5, 19491, Pitch_bend_c, 2, 7834
5, 19492, Pitch_bend_c, 2, 7834
5, 19492, Pitch_bend_c, 2, 7834
5, 19539, Pitch_bend_c, 2, 8192
5, 19540, Pitch_bend_c, 2, 8192
5, 19540, Pitch_bend_c, 2, 8192
5, 19620, Note_on_c, 2, 54, 0
5, 19620, Note_on_c, 2, 55, 0
5, 19620, Note_on_c, 2, 50, 0
5, 38250, Control_c, 2, 93, 18
5, 38275, Control_c, 2, 93, 15
5, 38300, Control_c, 2, 93, 13
5, 38310, Control_c, 2, 93, 10
5, 38325, Control_c, 2, 93, 6
5, 38335, Control_c, 2, 93, 4
5, 38345, Control_c, 2, 93, 2
5, 38360, Control_c, 2, 93, 1
5, 38380, Control_c, 2, 93, 0
5, 38513, Control_c, 2, 93, 127
5, 39092, Control_c, 2, 93, 119
5, 39122, Control_c, 2, 93, 121
5, 39135, Control_c, 2, 93, 124
5, 39143, Control_c, 2, 93, 127
5, 39218, Control_c, 2, 93, 0
5, 42720, Note_on_c, 2, 57, 102
5, 42840, Note_on_c, 2, 64, 105
5, 42958, Control_c, 2, 64, 127
5, 42958, Control_c, 2, 64, 127
5, 42959, Control_c, 2, 64, 127
5, 42960, Note_on_c, 2, 60, 90
5, 42990, Note_on_c, 2, 57, 0
5, 42992, Control_c, 2, 64, 0
5, 42993, Control_c, 2, 64, 0
5, 42994, Control_c, 2, 64, 0
5, 43073, Control_c, 2, 64, 127
5, 43073, Control_c, 2, 64, 127
5, 43074, Control_c, 2, 64, 127
5, 43080, Note_on_c, 2, 64, 0
5, 43080, Note_on_c, 2, 57, 99
5, 43110, Note_on_c, 2, 60, 0
5, 43200, Note_on_c, 2, 62, 99
5, 43320, Note_on_c, 2, 57, 0
5, 43320, Note_on_c, 2, 60, 79
5, 43410, Note_on_c, 2, 62, 0
5, 43440, Note_on_c, 2, 57, 102
5, 43470, Note_on_c, 2, 60, 0
5, 43500, Note_on_c, 2, 57, 0
5, 43560, Note_on_c, 2, 59, 105
5, 43560, Note_on_c, 2, 55, 63
5, 43590, Note_on_c, 2, 55, 0
5, 43596, Control_c, 2, 64, 0
5, 43597, Control_c, 2, 64, 0
5, 43674, Control_c, 2, 64, 0
5, 43696, Control_c, 2, 64, 127
5, 43697, Control_c, 2, 64, 127
5, 43697, Control_c, 2, 64, 127
5, 43800, Note_on_c, 2, 55, 94
5, 43920, Note_on_c, 2, 60, 77
5, 44070, Note_on_c, 2, 55, 0
5, 44070, Note_on_c, 2, 59, 0
5, 44100, Note_on_c, 2, 60, 0
5, 44160, Note_on_c, 2, 55, 65
5, 44160, Note_on_c, 2, 60, 102
5, 44280, Note_on_c, 2, 59, 109
5, 44310, Note_on_c, 2, 60, 0
5, 44340, Note_on_c, 2, 55, 0
5, 44400, Note_on_c, 2, 55, 99
5, 44430, Note_on_c, 2, 59, 0
5, 44520, Note_on_c, 2, 55, 0
5, 44640, Note_on_c, 2, 50, 80
5, 44640, Note_on_c, 2, 54, 80
5, 44659, Control_c, 2, 64, 0
5, 44660, Control_c, 2, 64, 0
5, 44661, Control_c, 2, 64, 0
5, 44670, Note_on_c, 2, 57, 65
5, 44748, Control_c, 2, 64, 127
5, 44748, Control_c, 2, 64, 127
5, 44749, Control_c, 2, 64, 127
5, 44881, Pitch_bend_c, 2, 7715
5, 44882, Pitch_bend_c, 2, 7715
5, 44882, Pitch_bend_c, 2, 7715
5, 44904, Pitch_bend_c, 2, 7357
5, 44904, Pitch_bend_c, 2, 7357
5, 44905, Pitch_bend_c, 2, 7357
5, 44914, Pitch_bend_c, 2, 6998
5, 44914, Pitch_bend_c, 2, 6998
5, 44915, Pitch_bend_c, 2, 6998
5, 44923, Pitch_bend_c, 2, 6486
5, 44924, Pitch_bend_c, 2, 6486
5, 44924, Pitch_bend_c, 2, 6486
5, 44984, Pitch_bend_c, 2, 6144
5, 44985, Pitch_bend_c, 2, 6144
5, 44985, Pitch_bend_c, 2, 6144
5, 45007, Pitch_bend_c, 2, 5846
5, 45008, Pitch_bend_c, 2, 5846
5, 45009, Pitch_bend_c, 2, 5846
5, 45121, Pitch_bend_c, 2, 6144
5, 45121, Pitch_bend_c, 2, 6144
5, 45121, Pitch_bend_c, 2, 6144
5, 45148, Pitch_bend_c, 2, 6486
5, 45149, Pitch_bend_c, 2, 6486
5, 45149, Pitch_bend_c, 2, 6486
5, 45173, Pitch_bend_c, 2, 6998
5, 45173, Pitch_bend_c, 2, 6998
5, 45174, Pitch_bend_c, 2, 6998
5, 45190, Pitch_bend_c, 2, 7357
5, 45191, Pitch_bend_c, 2, 7357
5, 45192, Pitch_bend_c, 2, 7357
5, 45229, Pitch_bend_c, 2, 7715
5, 45229, Pitch_bend_c, 2, 7715
5, 45229, Pitch_bend_c, 2, 7715
5, 45242, Pitch_bend_c, 2, 8073
5, 45243, Pitch_bend_c, 2, 8073
5, 45244, Pitch_bend_c, 2, 8073
5, 45270, Note_on_c, 2, 50, 0
5, 45300, Note_on_c, 2, 57, 0
5, 45300, Note_on_c, 2, 54, 0
5, 45360, Note_on_c, 2, 54, 99
5, 45416, Control_c, 2, 64, 0
5, 45416, Control_c, 2, 64, 0
5, 45416, Control_c, 2, 64, 0
5, 45480, Note_on_c, 2, 54, 0
5, 45480, Note_on_c, 2, 55, 114
5, 45511, Control_c, 2, 64, 127
5, 45511, Control_c, 2, 64, 127
5, 45511, Control_c, 2, 64, 127
5, 45600, Note_on_c, 2, 57, 90
5, 45707, Control_c, 2, 64, 0
5, 45708, Control_c, 2, 64, 0
5, 45708, Control_c, 2, 64, 0
5, 45801, Pitch_bend_c, 2, 7715
5, 45801, Pitch_bend_c, 2, 7715
5, 45802, Pitch_bend_c, 2, 7715
5, 45843, Control_c, 2, 64, 127
5, 45844, Control_c, 2, 64, 127
5, 45844, Control_c, 2, 64, 127
5, 45845, Pitch_bend_c, 2, 7476
5, 45845, Pitch_bend_c, 2, 7476
5, 45845, Pitch_bend_c, 2, 7476
5, 45890, Pitch_bend_c, 2, 7118
5, 45890, Pitch_bend_c, 2, 7118
5, 45891, Pitch_bend_c, 2, 7118
5, 45930, Note_on_c, 2, 55, 0
5, 45961, Pitch_bend_c, 2, 6657
5, 45961, Pitch_bend_c, 2, 6657
5, 45961, Pitch_bend_c, 2, 6657
5, 46008, Pitch_bend_c, 2, 7118
5, 46009, Pitch_bend_c, 2, 7118
5, 46009, Pitch_bend_c, 2, 7118
5, 46069, Pitch_bend_c, 2, 7476
5, 46070, Pitch_bend_c, 2, 7476
5, 46070, Pitch_bend_c, 2, 7476
5, 46078, Pitch_bend_c, 2, 7954
5, 46079, Pitch_bend_c, 2, 7954
5, 46079, Pitch_bend_c, 2, 7954
5, 46260, Note_on_c, 2, 57, 0
5, 46530, Control_c, 2, 64, 0
5, 46531, Control_c, 2, 64, 0
5, 46531, Control_c, 2, 64, 0
5, 69148, Control_c, 2, 1, 3
5, 69362, Note_on_c, 2, 57, 107
5, 69465, Pitch_bend_c, 2, 7715
5, 69466, Pitch_bend_c, 2, 7715
5, 69466, Pitch_bend_c, 2, 7715
5, 69479, Pitch_bend_c, 2, 7476
5, 69479, Pitch_bend_c, 2, 7476
5, 69481, Pitch_bend_c, 2, 7476
5, 69495, Pitch_bend_c, 2, 7118
5, 69495, Pitch_bend_c, 2, 7118
5, 69496, Pitch_bend_c, 2, 7118
5, 69504, Pitch_bend_c, 2, 6657
5, 69505, Pitch_bend_c, 2, 6657
5, 69506, Pitch_bend_c, 2, 6657
5, 69509, Pitch_bend_c, 2, 6315
5, 69509, Pitch_bend_c, 2, 6315
5, 69510, Pitch_bend_c, 2, 6315
5, 69514, Pitch_bend_c, 2, 5846
5, 69514, Pitch_bend_c, 2, 5846
5, 69515, Pitch_bend_c, 2, 5846
5, 69517, Pitch_bend_c, 2, 5647
5, 69518, Pitch_bend_c, 2, 5647
5, 69518, Pitch_bend_c, 2, 5647
5, 69522, Pitch_bend_c, 2, 5309
5, 69522, Pitch_bend_c, 2, 5309
5, 69523, Pitch_bend_c, 2, 5309
5, 69531, Pitch_bend_c, 2, 4780
5, 69532, Pitch_bend_c, 2, 4780
5, 69532, Pitch_bend_c, 2, 4780
5, 69544, Pitch_bend_c, 2, 4438
5, 69544, Pitch_bend_c, 2, 4438
5, 69545, Pitch_bend_c, 2, 4438
5, 69553, Pitch_bend_c, 2, 3858
5, 69553, Pitch_bend_c, 2, 3858
5, 69554, Pitch_bend_c, 2, 3858
5, 69561, Pitch_bend_c, 2, 3400
5, 69562, Pitch_bend_c, 2, 3400
5, 69562, Pitch_bend_c, 2, 3400
5, 69566, Pitch_bend_c, 2, 3002
5, 69566, Pitch_bend_c, 2, 3002
5, 69567, Pitch_bend_c, 2, 3002
5, 69571, Pitch_bend_c, 2, 2561
5, 69572, Pitch_bend_c, 2, 2561
5, 69572, Pitch_bend_c, 2, 2561
5, 69576, Pitch_bend_c, 2, 2219
5, 69576, Pitch_bend_c, 2, 2219
5, 69576, Pitch_bend_c, 2, 2219
5, 69579, Pitch_bend_c, 2, 1810
5, 69579, Pitch_bend_c, 2, 1810
5, 69580, Pitch_bend_c, 2, 1810
5, 69584, Pitch_bend_c, 2, 1571
5, 69585, Pitch_bend_c, 2, 1571
5, 69586, Pitch_bend_c, 2, 1571
5, 69589, Pitch_bend_c, 2, 1213
5, 69589, Pitch_bend_c, 2, 1213
5, 69590, Pitch_bend_c, 2, 1213
5, 69602, Note_on_c, 2, 62, 109
5, 69606, Pitch_bend_c, 2, 2219
5, 69607, Pitch_bend_c, 2, 2219
5, 69610, Pitch_bend_c, 2, 2219
5, 69611, Pitch_bend_c, 2, 4609
5, 69611, Pitch_bend_c, 2, 4609
5, 69612, Pitch_bend_c, 2, 4609
5, 69614, Pitch_bend_c, 2, 8328
5, 69614, Pitch_bend_c, 2, 8328
5, 69615, Pitch_bend_c, 2, 8328
5, 69616, Note_on_c, 2, 57, 0
5, 69620, Pitch_bend_c, 2, 9558
5, 69621, Pitch_bend_c, 2, 9558
5, 69621, Pitch_bend_c, 2, 9558
5, 69625, Pitch_bend_c, 2, 8073
5, 69626, Pitch_bend_c, 2, 8073
5, 69626, Pitch_bend_c, 2, 8073
5, 69628, Pitch_bend_c, 2, 8192
5, 69629, Pitch_bend_c, 2, 8192
5, 69629, Pitch_bend_c, 2, 8192
5, 69694, Pitch_bend_c, 2, 8601
5, 69694, Pitch_bend_c, 2, 8601
5, 69695, Pitch_bend_c, 2, 8601
5, 69707, Pitch_bend_c, 2, 8875
5, 69708, Pitch_bend_c, 2, 8875
5, 69708, Pitch_bend_c, 2, 8875
5, 69743, Pitch_bend_c, 2, 9284
5, 69743, Pitch_bend_c, 2, 9284
5, 69744, Pitch_bend_c, 2, 9284
5, 69795, Pitch_bend_c, 2, 9694
5, 69795, Pitch_bend_c, 2, 9694
5, 69796, Pitch_bend_c, 2, 9694
5, 69818, Pitch_bend_c, 2, 10103
5, 69819, Pitch_bend_c, 2, 10103
5, 69819, Pitch_bend_c, 2, 10103
5, 69852, Pitch_bend_c, 2, 10467
5, 69852, Pitch_bend_c, 2, 10467
5, 69853, Pitch_bend_c, 2, 10467
5, 69878, Pitch_bend_c, 2, 10695
5, 69879, Pitch_bend_c, 2, 10695
5, 69891, Pitch_bend_c, 2, 10695
5, 69892, Pitch_bend_c, 2, 11059
5, 69892, Pitch_bend_c, 2, 11059
5, 69892, Pitch_bend_c, 2, 11059
5, 69909, Pitch_bend_c, 2, 11469
5, 69910, Pitch_bend_c, 2, 11469
5, 69910, Pitch_bend_c, 2, 11469
5, 69931, Pitch_bend_c, 2, 11878
5, 69931, Pitch_bend_c, 2, 11878
5, 69932, Pitch_bend_c, 2, 11878
5, 69949, Pitch_bend_c, 2, 12288
5, 69950, Pitch_bend_c, 2, 12288
5, 69950, Pitch_bend_c, 2, 12288
5, 69967, Pitch_bend_c, 2, 12561
5, 69967, Pitch_bend_c, 2, 12561
5, 69968, Pitch_bend_c, 2, 12561
5, 69988, Pitch_bend_c, 2, 12971
5, 69989, Pitch_bend_c, 2, 12971
5, 69989, Pitch_bend_c, 2, 12971
5, 70007, Pitch_bend_c, 2, 13198
5, 70007, Pitch_bend_c, 2, 13198
5, 70008, Pitch_bend_c, 2, 13198
5, 70024, Pitch_bend_c, 2, 13540
5, 70024, Pitch_bend_c, 2, 13540
5, 70025, Pitch_bend_c, 2, 13540
5, 70050, Pitch_bend_c, 2, 13926
5, 70050, Pitch_bend_c, 2, 13926
5, 70050, Pitch_bend_c, 2, 13926
5, 70082, Pitch_bend_c, 2, 14199
5, 70083, Pitch_bend_c, 2, 14199
5, 70083, Pitch_bend_c, 2, 14199
5, 70104, Pitch_bend_c, 2, 14609
5, 70104, Pitch_bend_c, 2, 14609
5, 70105, Pitch_bend_c, 2, 14609
5, 70125, Pitch_bend_c, 2, 15019
5, 70126, Pitch_bend_c, 2, 15019
5, 70126, Pitch_bend_c, 2, 15019
5, 70164, Pitch_bend_c, 2, 15428
5, 70164, Pitch_bend_c, 2, 15428
5, 70165, Pitch_bend_c, 2, 15428
5, 70191, Pitch_bend_c, 2, 15815
5, 70192, Pitch_bend_c, 2, 15815
5, 70192, Pitch_bend_c, 2, 15815
5, 70213, Pitch_bend_c, 2, 16042
5, 70214, Pitch_bend_c, 2, 16042
5, 70214, Pitch_bend_c, 2, 16042
5, 70221, Pitch_bend_c, 2, 16269
5, 70222, Pitch_bend_c, 2, 16269
5, 70223, Pitch_bend_c, 2, 16269
5, 70249, Pitch_bend_c, 2, 16383
5, 70249, Pitch_bend_c, 2, 16383
5, 70250, Pitch_bend_c, 2, 16383
5, 70816, Note_on_c, 2, 62, 0
5, 70833, Pitch_bend_c, 2, 15292
5, 70833, Pitch_bend_c, 2, 15292
5, 70834, Pitch_bend_c, 2, 15292
5, 70837, Pitch_bend_c, 2, 9011
5, 70838, Pitch_bend_c, 2, 9011
5, 70838, Pitch_bend_c, 2, 9011
5, 70843, Pitch_bend_c, 2, 5309
5, 70843, Pitch_bend_c, 2, 5309
5, 70844, Pitch_bend_c, 2, 5309
5, 70846, Pitch_bend_c, 2, 8073
5, 70847, Pitch_bend_c, 2, 8073
5, 70847, Pitch_bend_c, 2, 8073
5, 70851, Pitch_bend_c, 2, 9694
5, 70851, Pitch_bend_c, 2, 9694
5, 70851, Pitch_bend_c, 2, 9694
5, 70854, Pitch_bend_c, 2, 8192
5, 70854, Pitch_bend_c, 2, 8192
5, 70855, Pitch_bend_c, 2, 8192
5, 70991, Note_on_c, 2, 55, 75
5, 71014, Note_on_c, 2, 59, 74
5, 71044, Note_on_c, 2, 62, 108
5, 71051, Note_on_c, 2, 55, 0
5, 71058, Note_on_c, 2, 59, 0
5, 71200, Note_on_c, 2, 60, 111
5, 71215, Note_on_c, 2, 62, 0
5, 71358, Note_on_c, 2, 59, 102
5, 71361, Note_on_c, 2, 60, 0
5, 71508, Note_on_c, 2, 57, 94
5, 71511, Note_on_c, 2, 59, 0
5, 71621, Control_c, 2, 1, 80
5, 71627, Control_c, 2, 1, 81
5, 72135, Note_on_c, 2, 50, 78
5, 72145, Note_on_c, 2, 57, 0
5, 72190, Control_c, 2, 1, 2
5, 72248, Note_on_c, 2, 55, 90
5, 72253, Note_on_c, 2, 50, 0
5, 72356, Note_on_c, 2, 50, 83
5, 72366, Note_on_c, 2, 55, 0
5, 72478, Note_on_c, 2, 54, 81
5, 72482, Note_on_c, 2, 50, 0
5, 72587, Control_c, 2, 1, 81
5, 73117, Control_c, 2, 1, 2
5, 73118, Note_on_c, 2, 54, 0
5, 73140, Control_c, 2, 1, 1
5, 73198, Note_on_c, 2, 57, 99
5, 73331, Pitch_bend_c, 2, 7954
5, 73331, Pitch_bend_c, 2, 7954
5, 73332, Pitch_bend_c, 2, 7954
5, 73339, Pitch_bend_c, 2, 7595
5, 73340, Pitch_bend_c, 2, 7595
5, 73340, Pitch_bend_c, 2, 7595
5, 73348, Pitch_bend_c, 2, 7237
5, 73349, Pitch_bend_c, 2, 7237
5, 73349, Pitch_bend_c, 2, 7237
5, 73358, Pitch_bend_c, 2, 6657
5, 73358, Pitch_bend_c, 2, 6657
5, 73359, Pitch_bend_c, 2, 6657
5, 73365, Pitch_bend_c, 2, 6045
5, 73366, Pitch_bend_c, 2, 6045
5, 73375, Pitch_bend_c, 2, 6045
5, 73375, Pitch_bend_c, 2, 5647
5, 73375, Pitch_bend_c, 2, 5647
5, 73375, Pitch_bend_c, 2, 5647
5, 73380, Pitch_bend_c, 2, 5309
5, 73381, Pitch_bend_c, 2, 5309
5, 73381, Pitch_bend_c, 2, 5309
5, 73384, Pitch_bend_c, 2, 4950
5, 73384, Pitch_bend_c, 2, 4950
5, 73388, Pitch_bend_c, 2, 4950
5, 73388, Pitch_bend_c, 2, 4609
5, 73388, Pitch_bend_c, 2, 4609
5, 73388, Pitch_bend_c, 2, 4609
5, 73391, Pitch_bend_c, 2, 4096
5, 73392, Pitch_bend_c, 2, 4096
5, 73393, Pitch_bend_c, 2, 4096
5, 73398, Pitch_bend_c, 2, 3738
5, 73398, Pitch_bend_c, 2, 3738
5, 73398, Pitch_bend_c, 2, 3738
5, 73406, Pitch_bend_c, 2, 3400
5, 73407, Pitch_bend_c, 2, 3400
5, 73407, Pitch_bend_c, 2, 3400
5, 73411, Pitch_bend_c, 2, 3002
5, 73411, Pitch_bend_c, 2, 3002
5, 73412, Pitch_bend_c, 2, 3002
5, 73417, Control_c, 2, 7, 61
5, 73419, Pitch_bend_c, 2, 2561
5, 73419, Pitch_bend_c, 2, 2561
5, 73420, Pitch_bend_c, 2, 2561
5, 73426, Pitch_bend_c, 2, 1810
5, 73427, Pitch_bend_c, 2, 1810
5, 73440, Note_on_c, 2, 62, 106
5, 73450, Pitch_bend_c, 2, 1810
5, 73450, Pitch_bend_c, 2, 2732
5, 73451, Pitch_bend_c, 2, 2732
5, 73451, Pitch_bend_c, 2, 2732
5, 73454, Pitch_bend_c, 2, 5070
5, 73455, Pitch_bend_c, 2, 5070
5, 73455, Pitch_bend_c, 2, 5070
5, 73458, Pitch_bend_c, 2, 8465
5, 73458, Pitch_bend_c, 2, 8465
5, 73458, Pitch_bend_c, 2, 8465
5, 73463, Note_on_c, 2, 57, 0
5, 73464, Pitch_bend_c, 2, 9284
5, 73464, Pitch_bend_c, 2, 9284
5, 73465, Pitch_bend_c, 2, 9284
5, 73468, Pitch_bend_c, 2, 8192
5, 73469, Pitch_bend_c, 2, 8192
5, 73470, Pitch_bend_c, 2, 8192
5, 73550, Control_c, 2, 7, 63
5, 73578, Pitch_bend_c, 2, 8601
5, 73579, Pitch_bend_c, 2, 8601
5, 73579, Pitch_bend_c, 2, 8601
5, 73584, Control_c, 2, 7, 64
5, 73609, Pitch_bend_c, 2, 8875
5, 73609, Pitch_bend_c, 2, 8875
5, 73610, Pitch_bend_c, 2, 8875
5, 73626, Pitch_bend_c, 2, 9284
5, 73627, Pitch_bend_c, 2, 9284
5, 73627, Pitch_bend_c, 2, 9284
5, 73643, Pitch_bend_c, 2, 9694
5, 73643, Pitch_bend_c, 2, 9694
5, 73643, Pitch_bend_c, 2, 9694
5, 73661, Pitch_bend_c, 2, 10103
5, 73662, Control_c, 2, 7, 65
5, 73662, Pitch_bend_c, 2, 10103
5, 73662, Pitch_bend_c, 2, 10103
5, 73679, Pitch_bend_c, 2, 10467
5, 73679, Pitch_bend_c, 2, 10467
5, 73679, Pitch_bend_c, 2, 10467
5, 73683, Control_c, 2, 7, 66
5, 73700, Pitch_bend_c, 2, 10695
5, 73700, Pitch_bend_c, 2, 10695
5, 73701, Pitch_bend_c, 2, 10695
5, 73718, Pitch_bend_c, 2, 11059
5, 73719, Pitch_bend_c, 2, 11059
5, 73719, Pitch_bend_c, 2, 11059
5, 73734, Control_c, 2, 7, 68
5, 73745, Pitch_bend_c, 2, 11469
5, 73746, Pitch_bend_c, 2, 11469
5, 73746, Pitch_bend_c, 2, 11469
5, 73762, Pitch_bend_c, 2, 11878
5, 73762, Pitch_bend_c, 2, 11878
5, 73763, Pitch_bend_c, 2, 11878
5, 73768, Control_c, 2, 7, 70
5, 73788, Pitch_bend_c, 2, 12288
5, 73789, Pitch_bend_c, 2, 12288
5, 73789, Pitch_bend_c, 2, 12288
5, 73797, Pitch_bend_c, 2, 12561
5, 73798, Pitch_bend_c, 2, 12561
5, 73798, Pitch_bend_c, 2, 12561
5, 73819, Pitch_bend_c, 2, 12971
5, 73820, Pitch_bend_c, 2, 12971
5, 73820, Pitch_bend_c, 2, 12971
5, 73830, Control_c, 2, 7, 71
5, 73846, Pitch_bend_c, 2, 13198
5, 73846, Pitch_bend_c, 2, 13198
5, 73847, Pitch_bend_c, 2, 13198
5, 73862, Pitch_bend_c, 2, 13540
5, 73863, Pitch_bend_c, 2, 13540
5, 73863, Pitch_bend_c, 2, 13540
5, 73878, Control_c, 2, 7, 72
5, 73886, Pitch_bend_c, 2, 13926
5, 73886, Pitch_bend_c, 2, 13926
5, 73887, Pitch_bend_c, 2, 13926
5, 73898, Pitch_bend_c, 2, 14336
5, 73899, Control_c, 2, 7, 73
5, 73899, Pitch_bend_c, 2, 14336
5, 73899, Pitch_bend_c, 2, 14336
5, 73920, Pitch_bend_c, 2, 14745
5, 73920, Pitch_bend_c, 2, 14745
5, 73922, Pitch_bend_c, 2, 14745
5, 73938, Pitch_bend_c, 2, 15155
5, 73939, Pitch_bend_c, 2, 15155
5, 73939, Pitch_bend_c, 2, 15155
5, 73956, Pitch_bend_c, 2, 15565
5, 73956, Pitch_bend_c, 2, 15565
5, 73957, Pitch_bend_c, 2, 15565
5, 73977, Pitch_bend_c, 2, 15929
5, 73978, Pitch_bend_c, 2, 15929
5, 73978, Pitch_bend_c, 2, 15929
5, 73996, Pitch_bend_c, 2, 16156
5, 73996, Pitch_bend_c, 2, 16156
5, 73997, Pitch_bend_c, 2, 16156
5, 73999, Pitch_bend_c, 2, 16269
5, 73999, Pitch_bend_c, 2, 16269
5, 74000, Pitch_bend_c, 2, 16269
5, 74017, Pitch_bend_c, 2, 16383
5, 74018, Pitch_bend_c, 2, 16383
5, 74019, Pitch_bend_c, 2, 16383
5, 74643, Note_on_c, 2, 62, 0
5, 74659, Pitch_bend_c, 2, 15929
5, 74659, Pitch_bend_c, 2, 15929
5, 74660, Pitch_bend_c, 2, 15929
5, 74664, Pitch_bend_c, 2, 12424
5, 74664, Pitch_bend_c, 2, 12424
5, 74664, Pitch_bend_c, 2, 12424
5, 74667, Pitch_bend_c, 2, 7595
5, 74668, Pitch_bend_c, 2, 7595
5, 74669, Pitch_bend_c, 2, 7595
5, 74672, Pitch_bend_c, 2, 6657
5, 74672, Pitch_bend_c, 2, 6657
5, 74673, Pitch_bend_c, 2, 6657
5, 74677, Pitch_bend_c, 2, 9011
5, 74677, Pitch_bend_c, 2, 9011
5, 74678, Pitch_bend_c, 2, 9011
5, 74680, Pitch_bend_c, 2, 8192
5, 74681, Pitch_bend_c, 2, 8192
5, 74682, Pitch_bend_c, 2, 8192
5, 74819, Note_on_c, 2, 55, 68
5, 74842, Note_on_c, 2, 59, 43
5, 74880, Note_on_c, 2, 62, 110
5, 74883, Note_on_c, 2, 55, 0
5, 74893, Note_on_c, 2, 59, 0
5, 74960, Note_on_c, 2, 62, 0
5, 75038, Note_on_c, 2, 60, 107
5, 75130, Note_on_c, 2, 60, 0
5, 75201, Note_on_c, 2, 59, 105
5, 75352, Note_on_c, 2, 57, 84
5, 75355, Note_on_c, 2, 59, 0
5, 75434, Control_c, 2, 1, 83
5, 75947, Note_on_c, 2, 50, 87
5, 75951, Note_on_c, 2, 57, 0
5, 75968, Control_c, 2, 1, 2
5, 76061, Note_on_c, 2, 55, 81
5, 76110, Note_on_c, 2, 50, 0
5, 76204, Note_on_c, 2, 50, 89
5, 76219, Note_on_c, 2, 55, 0
5, 76320, Note_on_c, 2, 54, 87
5, 76332, Note_on_c, 2, 50, 0
5, 76415, Control_c, 2, 1, 80
5, 77027, Control_c, 2, 1, 2
5, 77037, Note_on_c, 2, 54, 0
5, 77400, Note_on_c, 2, 64, 98
5, 77518, Control_c, 2, 64, 127
5, 77518, Control_c, 2, 64, 127
5, 77519, Control_c, 2, 64, 127
5, 77520, Note_on_c, 2, 60, 90
5, 77552, Control_c, 2, 64, 0
5, 77553, Control_c, 2, 64, 0
5, 77554, Control_c, 2, 64, 0
5, 77633, Control_c, 2, 64, 127
5, 77633, Control_c, 2, 64, 127
5, 77634, Control_c, 2, 64, 127
5, 77640, Note_on_c, 2, 64, 0
5, 77640, Note_on_c, 2, 57, 99
5, 77670, Note_on_c, 2, 60, 0
5, 77760, Note_on_c, 2, 62, 99
5, 77880, Note_on_c, 2, 57, 0
5, 77880, Note_on_c, 2, 60, 79
5, 77970, Note_on_c, 2, 62, 0
5, 78000, Note_on_c, 2, 57, 98
5, 78030, Note_on_c, 2, 60, 0
5, 78060, Note_on_c, 2, 57, 0
5, 78120, Note_on_c, 2, 59, 98
5, 78120, Note_on_c, 2, 55, 98
5, 78150, Note_on_c, 2, 55, 0
5, 78156, Control_c, 2, 64, 0
5, 78157, Control_c, 2, 64, 0
5, 78234, Control_c, 2, 64, 0
5, 78256, Control_c, 2, 64, 127
5, 78257, Control_c, 2, 64, 127
5, 78257, Control_c, 2, 64, 127
5, 78360, Note_on_c, 2, 55, 94
5, 78480, Note_on_c, 2, 60, 77
5, 78630, Note_on_c, 2, 55, 0
5, 78630, Note_on_c, 2, 59, 0
5, 78660, Note_on_c, 2, 60, 0
5, 78720, Note_on_c, 2, 60, 95
5, 78840, Note_on_c, 2, 59, 95
5, 78870, Note_on_c, 2, 60, 0
5, 78960, Note_on_c, 2, 55, 99
5, 78990, Note_on_c, 2, 59, 0
5, 79080, Note_on_c, 2, 55, 0
5, 79200, Note_on_c, 2, 50, 80
5, 79200, Note_on_c, 2, 54, 80
5, 79219, Control_c, 2, 64, 0
5, 79220, Control_c, 2, 64, 0
5, 79221, Control_c, 2, 64, 0
5, 79230, Note_on_c, 2, 57, 65
5, 79308, Control_c, 2, 64, 127
5, 79308, Control_c, 2, 64, 127
5, 79309, Control_c, 2, 64, 127
5, 79441, Pitch_bend_c, 2, 7715
5, 79442, Pitch_bend_c, 2, 7715
5, 79442, Pitch_bend_c, 2, 7715
5, 79464, Pitch_bend_c, 2, 7357
5, 79464, Pitch_bend_c, 2, 7357
5, 79465, Pitch_bend_c, 2, 7357
5, 79474, Pitch_bend_c, 2, 6998
5, 79474, Pitch_bend_c, 2, 6998
5, 79475, Pitch_bend_c, 2, 6998
5, 79483, Pitch_bend_c, 2, 6486
5, 79484, Pitch_bend_c, 2, 6486
5, 79484, Pitch_bend_c, 2, 6486
5, 79544, Pitch_bend_c, 2, 6144
5, 79545, Pitch_bend_c, 2, 6144
5, 79545, Pitch_bend_c, 2, 6144
5, 79567, Pitch_bend_c, 2, 5846
5, 79568, Pitch_bend_c, 2, 5846
5, 79569, Pitch_bend_c, 2, 5846
5, 79681, Pitch_bend_c, 2, 6144
5, 79681, Pitch_bend_c, 2, 6144
5, 79681, Pitch_bend_c, 2, 6144
5, 79708, Pitch_bend_c, 2, 6486
5, 79709, Pitch_bend_c, 2, 6486
5, 79709, Pitch_bend_c, 2, 6486
5, 79733, Pitch_bend_c, 2, 6998
5, 79733, Pitch_bend_c, 2, 6998
5, 79734, Pitch_bend_c, 2, 6998
5, 79750, Pitch_bend_c, 2, 7357
5, 79751, Pitch_bend_c, 2, 7357
5, 79752, Pitch_bend_c, 2, 7357
5, 79789, Pitch_bend_c, 2, 7715
5, 79789, Pitch_bend_c, 2, 7715
5, 79789, Pitch_bend_c, 2, 7715
5, 79802, Pitch_bend_c, 2, 8073
5, 79803, Pitch_bend_c, 2, 8073
5, 79804, Pitch_bend_c, 2, 8073
5, 79830, Note_on_c, 2, 50, 0
5, 79860, Note_on_c, 2, 57, 0
5, 79860, Note_on_c, 2, 54, 0
5, 79920, Note_on_c, 2, 54, 99
5, 79976, Control_c, 2, 64, 0
5, 79976, Control_c, 2, 64, 0
5, 79976, Control_c, 2, 64, 0
5, 80040, Note_on_c, 2, 54, 0
5, 80040, Note_on_c, 2, 55, 101
5, 80071, Control_c, 2, 64, 127
5, 80071, Control_c, 2, 64, 127
5, 80071, Control_c, 2, 64, 127
5, 80160, Note_on_c, 2, 57, 104
5, 80267, Control_c, 2, 64, 0
5, 80268, Control_c, 2, 64, 0
5, 80268, Control_c, 2, 64, 0
5, 80361, Pitch_bend_c, 2, 7715
5, 80361, Pitch_bend_c, 2, 7715
5, 80362, Pitch_bend_c, 2, 7715
5, 80403, Control_c, 2, 64, 127
5, 80404, Control_c, 2, 64, 127
5, 80404, Control_c, 2, 64, 127
5, 80405, Pitch_bend_c, 2, 7476
5, 80405, Pitch_bend_c, 2, 7476
5, 80405, Pitch_bend_c, 2, 7476
5, 80450, Pitch_bend_c, 2, 7118
5, 80450, Pitch_bend_c, 2, 7118
5, 80451, Pitch_bend_c, 2, 7118
5, 80490, Note_on_c, 2, 55, 0
5, 80521, Pitch_bend_c, 2, 6657
5, 80521, Pitch_bend_c, 2, 6657
5, 80521, Pitch_bend_c, 2, 6657
5, 80568, Pitch_bend_c, 2, 7118
5, 80569, Pitch_bend_c, 2, 7118
5, 80569, Pitch_bend_c, 2, 7118
5, 80629, Pitch_bend_c, 2, 7476
5, 80630, Pitch_bend_c, 2, 7476
5, 80630, Pitch_bend_c, 2, 7476
5, 80638, Pitch_bend_c, 2, 7954
5, 80639, Pitch_bend_c, 2, 7954
5, 80639, Pitch_bend_c, 2, 7954
5, 80820, Note_on_c, 2, 57, 0
5, 81090, Control_c, 2, 64, 0
5, 81091, Control_c, 2, 64, 0
5, 81091, Control_c, 2, 64, 0
5, 81120, Note_on_c, 2, 57, 103
5, 81240, Note_on_c, 2, 64, 79
5, 81246, Control_c, 2, 64, 127
5, 81247, Control_c, 2, 64, 127
5, 81247, Control_c, 2, 64, 127
5, 81300, Note_on_c, 2, 57, 0
5, 81360, Note_on_c, 2, 60, 76
5, 81480, Note_on_c, 2, 57, 97
5, 81510, Note_on_c, 2, 60, 0
5, 81510, Note_on_c, 2, 64, 0
5, 81600, Note_on_c, 2, 62, 95
5, 81660, Note_on_c, 2, 57, 0
5, 81720, Note_on_c, 2, 60, 78
5, 81840, Note_on_c, 2, 60, 0
5, 81840, Note_on_c, 2, 62, 0
5, 81840, Note_on_c, 2, 57, 102
5, 81890, Control_c, 2, 7, 73
5, 81960, Note_on_c, 2, 59, 104
5, 81999, Control_c, 2, 64, 0
5, 82000, Control_c, 2, 64, 0
5, 82000, Control_c, 2, 64, 0
5, 82080, Note_on_c, 2, 57, 0
5, 82083, Control_c, 2, 64, 127
5, 82083, Control_c, 2, 64, 127
5, 82083, Control_c, 2, 64, 127
5, 82094, Control_c, 2, 7, 71
5, 82125, Control_c, 2, 7, 70
5, 82200, Note_on_c, 2, 55, 97
5, 82320, Note_on_c, 2, 55, 0
5, 82320, Note_on_c, 2, 60, 92
5, 82410, Note_on_c, 2, 59, 0
5, 82560, Note_on_c, 2, 60, 0
5, 82560, Note_on_c, 2, 60, 96
5, 82680, Note_on_c, 2, 60, 0
5, 82680, Note_on_c, 2, 59, 99
5, 82800, Note_on_c, 2, 59, 0
5, 82800, Note_on_c, 2, 55, 93
5, 82920, Note_on_c, 2, 55, 0
5, 82920, Note_on_c, 2, 54, 83
5, 82920, Note_on_c, 2, 57, 83
5, 82920, Note_on_c, 2, 50, 83
5, 82982, Control_c, 2, 64, 0
5, 82983, Control_c, 2, 64, 0
5, 82983, Control_c, 2, 64, 0
5, 83087, Control_c, 2, 64, 127
5, 83087, Control_c, 2, 64, 127
5, 83088, Control_c, 2, 64, 127
5, 83368, Pitch_bend_c, 2, 7595
5, 83369, Pitch_bend_c, 2, 7595
5, 83369, Pitch_bend_c, 2, 7595
5, 83382, Pitch_bend_c, 2, 7357
5, 83382, Pitch_bend_c, 2, 7357
5, 83383, Pitch_bend_c, 2, 7357
5, 83410, Pitch_bend_c, 2, 6998
5, 83411, Pitch_bend_c, 2, 6998
5, 83411, Pitch_bend_c, 2, 6998
5, 83428, Pitch_bend_c, 2, 6486
5, 83429, Pitch_bend_c, 2, 6486
5, 83429, Pitch_bend_c, 2, 6486
5, 83443, Pitch_bend_c, 2, 5945
5, 83444, Pitch_bend_c, 2, 5945
5, 83444, Pitch_bend_c, 2, 5945
5, 83527, Pitch_bend_c, 2, 6315
5, 83528, Pitch_bend_c, 2, 6315
5, 83528, Pitch_bend_c, 2, 6315
5, 83537, Pitch_bend_c, 2, 6657
5, 83537, Pitch_bend_c, 2, 6657
5, 83538, Pitch_bend_c, 2, 6657
5, 83550, Pitch_bend_c, 2, 7118
5, 83551, Pitch_bend_c, 2, 7118
5, 83551, Pitch_bend_c, 2, 7118
5, 83580, Pitch_bend_c, 2, 7476
5, 83580, Pitch_bend_c, 2, 7476
5, 83580, Pitch_bend_c, 2, 7476
5, 83589, Pitch_bend_c, 2, 7834
5, 83590, Pitch_bend_c, 2, 7834
5, 83590, Pitch_bend_c, 2, 7834
5, 83640, Note_on_c, 2, 50, 0
5, 83640, Note_on_c, 2, 50, 75
5, 83670, Note_on_c, 2, 57, 0
5, 83670, Note_on_c, 2, 54, 0
5, 83760, Note_on_c, 2, 54, 90
5, 83880, Note_on_c, 2, 55, 86
5, 83957, Control_c, 2, 64, 0
5, 83957, Control_c, 2, 64, 0
5, 83958, Control_c, 2, 64, 0
5, 84000, Note_on_c, 2, 54, 0
5, 84000, Note_on_c, 2, 54, 90
5, 84062, Control_c, 2, 64, 127
5, 84062, Control_c, 2, 64, 127
5, 84063, Control_c, 2, 64, 127
5, 84690, Note_on_c, 2, 55, 0
5, 84720, Note_on_c, 2, 54, 0
5, 84720, Note_on_c, 2, 50, 0
5, 108000, Note_on_c, 2, 57, 96
5, 108120, Note_on_c, 2, 64, 98
5, 108238, Control_c, 2, 64, 127
5, 108238, Control_c, 2, 64, 127
5, 108239, Control_c, 2, 64, 127
5, 108240, Note_on_c, 2, 60, 90
5, 108270, Note_on_c, 2, 57, 0
5, 108272, Control_c, 2, 64, 0
5, 108273, Control_c, 2, 64, 0
5, 108274, Control_c, 2, 64, 0
5, 108353, Control_c, 2, 64, 127
5, 108353, Control_c, 2, 64, 127
5, 108354, Control_c, 2, 64, 127
5, 108360, Note_on_c, 2, 64, 0
5, 108360, Note_on_c, 2, 57, 99
5, 108390, Note_on_c, 2, 60, 0
5, 108480, Note_on_c, 2, 62, 99
5, 108600, Note_on_c, 2, 57, 0
5, 108600, Note_on_c, 2, 60, 79
5, 108690, Note_on_c, 2, 62, 0
5, 108720, Note_on_c, 2, 57, 98
5, 108750, Note_on_c, 2, 60, 0
5, 108780, Note_on_c, 2, 57, 0
5, 108840, Note_on_c, 2, 59, 98
5, 108840, Note_on_c, 2, 55, 98
5, 108870, Note_on_c, 2, 55, 0
5, 108876, Control_c, 2, 64, 0
5, 108877, Control_c, 2, 64, 0
5, 108954, Control_c, 2, 64, 0
5, 108976, Control_c, 2, 64, 127
5, 108977, Control_c, 2, 64, 127
5, 108977, Control_c, 2, 64, 127
5, 109080, Note_on_c, 2, 55, 94
5, 109200, Note_on_c, 2, 60, 77
5, 109350, Note_on_c, 2, 55, 0
5, 109350, Note_on_c, 2, 59, 0
5, 109380, Note_on_c, 2, 60, 0
5, 109440, Note_on_c, 2, 60, 95
5, 109560, Note_on_c, 2, 59, 95
5, 109590, Note_on_c, 2, 60, 0
5, 109680, Note_on_c, 2, 55, 99
5, 109710, Note_on_c, 2, 59, 0
5, 109800, Note_on_c, 2, 55, 0
5, 109800, Note_on_c, 2, 50, 75
5, 109800, Note_on_c, 2, 54, 75
5, 109830, Note_on_c, 2, 57, 66
5, 109939, Control_c, 2, 64, 0
5, 109940, Control_c, 2, 64, 0
5, 109941, Control_c, 2, 64, 0
5, 110028, Control_c, 2, 64, 127
5, 110028, Control_c, 2, 64, 127
5, 110029, Control_c, 2, 64, 127
5, 110161, Pitch_bend_c, 2, 7715
5, 110162, Pitch_bend_c, 2, 7715
5, 110162, Pitch_bend_c, 2, 7715
5, 110184, Pitch_bend_c, 2, 7357
5, 110184, Pitch_bend_c, 2, 7357
5, 110185, Pitch_bend_c, 2, 7357
5, 110194, Pitch_bend_c, 2, 6998
5, 110194, Pitch_bend_c, 2, 6998
5, 110195, Pitch_bend_c, 2, 6998
5, 110203, Pitch_bend_c, 2, 6486
5, 110204, Pitch_bend_c, 2, 6486
5, 110204, Pitch_bend_c, 2, 6486
5, 110264, Pitch_bend_c, 2, 6144
5, 110265, Pitch_bend_c, 2, 6144
5, 110265, Pitch_bend_c, 2, 6144
5, 110287, Pitch_bend_c, 2, 5846
5, 110288, Pitch_bend_c, 2, 5846
5, 110289, Pitch_bend_c, 2, 5846
5, 110401, Pitch_bend_c, 2, 6144
5, 110401, Pitch_bend_c, 2, 6144
5, 110401, Pitch_bend_c, 2, 6144
5, 110428, Pitch_bend_c, 2, 6486
5, 110429, Pitch_bend_c, 2, 6486
5, 110429, Pitch_bend_c, 2, 6486
5, 110453, Pitch_bend_c, 2, 6998
5, 110453, Pitch_bend_c, 2, 6998
5, 110454, Pitch_bend_c, 2, 6998
5, 110470, Pitch_bend_c, 2, 7357
5, 110471, Pitch_bend_c, 2, 7357
5, 110472, Pitch_bend_c, 2, 7357
5, 110490, Note_on_c, 2, 50, 0
5, 110509, Pitch_bend_c, 2, 7715
5, 110509, Pitch_bend_c, 2, 7715
5, 110509, Pitch_bend_c, 2, 7715
5, 110522, Pitch_bend_c, 2, 8073
5, 110523, Pitch_bend_c, 2, 8073
5, 110524, Pitch_bend_c, 2, 8073
5, 110580, Note_on_c, 2, 54, 0
5, 110610, Note_on_c, 2, 57, 0
5, 110640, Note_on_c, 2, 54, 99
5, 110696, Control_c, 2, 64, 0
5, 110696, Control_c, 2, 64, 0
5, 110696, Control_c, 2, 64, 0
5, 110760, Note_on_c, 2, 54, 0
5, 110760, Note_on_c, 2, 55, 101
5, 110791, Control_c, 2, 64, 127
5, 110791, Control_c, 2, 64, 127
5, 110791, Control_c, 2, 64, 127
5, 110880, Note_on_c, 2, 57, 99
5, 110987, Control_c, 2, 64, 0
5, 110988, Control_c, 2, 64, 0
5, 110988, Control_c, 2, 64, 0
5, 110994, Note_on_c, 2, 55, 0
5, 111081, Pitch_bend_c, 2, 7715
5, 111081, Pitch_bend_c, 2, 7715
5, 111082, Pitch_bend_c, 2, 7715
5, 111123, Control_c, 2, 64, 127
5, 111124, Control_c, 2, 64, 127
5, 111124, Control_c, 2, 64, 127
5, 111125, Pitch_bend_c, 2, 7476
5, 111125, Pitch_bend_c, 2, 7476
5, 111125, Pitch_bend_c, 2, 7476
5, 111170, Pitch_bend_c, 2, 7118
5, 111170, Pitch_bend_c, 2, 7118
5, 111171, Pitch_bend_c, 2, 7118
5, 111241, Pitch_bend_c, 2, 6657
5, 111241, Pitch_bend_c, 2, 6657
5, 111241, Pitch_bend_c, 2, 6657
5, 111288, Pitch_bend_c, 2, 7118
5, 111289, Pitch_bend_c, 2, 7118
5, 111289, Pitch_bend_c, 2, 7118
5, 111349, Pitch_bend_c, 2, 7476
5, 111350, Pitch_bend_c, 2, 7476
5, 111350, Pitch_bend_c, 2, 7476
5, 111358, Pitch_bend_c, 2, 7954
5, 111359, Pitch_bend_c, 2, 7954
5, 111359, Pitch_bend_c, 2, 7954
5, 111540, Note_on_c, 2, 57, 0
5, 111810, Control_c, 2, 64, 0
5, 111811, Control_c, 2, 64, 0
5, 111811, Control_c, 2, 64, 0
5, 111840, Note_on_c, 2, 57, 103
5, 111960, Note_on_c, 2, 64, 79
5, 111966, Control_c, 2, 64, 127
5, 111967, Control_c, 2, 64, 127
5, 111967, Control_c, 2, 64, 127
5, 112020, Note_on_c, 2, 57, 0
5, 112080, Note_on_c, 2, 60, 76
5, 112200, Note_on_c, 2, 57, 97
5, 112230, Note_on_c, 2, 60, 0
5, 112230, Note_on_c, 2, 64, 0
5, 112320, Note_on_c, 2, 62, 95
5, 112380, Note_on_c, 2, 57, 0
5, 112440, Note_on_c, 2, 60, 78
5, 112560, Note_on_c, 2, 60, 0
5, 112560, Note_on_c, 2, 62, 0
5, 112560, Note_on_c, 2, 57, 102
5, 112680, Note_on_c, 2, 59, 95
5, 112719, Control_c, 2, 64, 0
5, 112720, Control_c, 2, 64, 0
5, 112720, Control_c, 2, 64, 0
5, 112800, Note_on_c, 2, 57, 0
5, 112803, Control_c, 2, 64, 127
5, 112803, Control_c, 2, 64, 127
5, 112803, Control_c, 2, 64, 127
5, 112920, Note_on_c, 2, 55, 102
5, 113040, Note_on_c, 2, 60, 92
5, 113070, Note_on_c, 2, 55, 0
5, 113130, Note_on_c, 2, 59, 0
5, 113280, Note_on_c, 2, 60, 0
5, 113280, Note_on_c, 2, 60, 96
5, 113400, Note_on_c, 2, 60, 0
5, 113400, Note_on_c, 2, 59, 99
5, 113520, Note_on_c, 2, 59, 0
5, 113520, Note_on_c, 2, 55, 93
5, 113640, Note_on_c, 2, 55, 0
5, 113640, Note_on_c, 2, 54, 83
5, 113640, Note_on_c, 2, 57, 83
5, 113640, Note_on_c, 2, 50, 83
5, 113702, Control_c, 2, 64, 0
5, 113703, Control_c, 2, 64, 0
5, 113703, Control_c, 2, 64, 0
5, 113807, Control_c, 2, 64, 127
5, 113807, Control_c, 2, 64, 127
5, 113808, Control_c, 2, 64, 127
5, 114088, Pitch_bend_c, 2, 7595
5, 114089, Pitch_bend_c, 2, 7595
5, 114089, Pitch_bend_c, 2, 7595
5, 114102, Pitch_bend_c, 2, 7357
5, 114102, Pitch_bend_c, 2, 7357
5, 114103, Pitch_bend_c, 2, 7357
5, 114130, Pitch_bend_c, 2, 6998
5, 114131, Pitch_bend_c, 2, 6998
5, 114131, Pitch_bend_c, 2, 6998
5, 114148, Pitch_bend_c, 2, 6486
5, 114149, Pitch_bend_c, 2, 6486
5, 114149, Pitch_bend_c, 2, 6486
5, 114163, Pitch_bend_c, 2, 5945
5, 114164, Pitch_bend_c, 2, 5945
5, 114164, Pitch_bend_c, 2, 5945
5, 114247, Pitch_bend_c, 2, 6315
5, 114248, Pitch_bend_c, 2, 6315
5, 114248, Pitch_bend_c, 2, 6315
5, 114257, Pitch_bend_c, 2, 6657
5, 114257, Pitch_bend_c, 2, 6657
5, 114258, Pitch_bend_c, 2, 6657
5, 114270, Pitch_bend_c, 2, 7118
5, 114271, Pitch_bend_c, 2, 7118
5, 114271, Pitch_bend_c, 2, 7118
5, 114300, Pitch_bend_c, 2, 7476
5, 114300, Pitch_bend_c, 2, 7476
5, 114300, Pitch_bend_c, 2, 7476
5, 114309, Pitch_bend_c, 2, 7834
5, 114310, Pitch_bend_c, 2, 7834
5, 114310, Pitch_bend_c, 2, 7834
5, 114360, Note_on_c, 2, 50, 0
5, 114360, Note_on_c, 2, 50, 75
5, 114390, Note_on_c, 2, 57, 0
5, 114390, Note_on_c, 2, 54, 0
5, 114480, Note_on_c, 2, 54, 90
5, 114600, Note_on_c, 2, 55, 86
5, 114632, Note_on_c, 2, 54, 0
5, 114677, Control_c, 2, 64, 0
5, 114677, Control_c, 2, 64, 0
5, 114678, Control_c, 2, 64, 0
5, 114720, Note_on_c, 2, 54, 90
5, 114740, Note_on_c, 2, 55, 0
5, 114782, Control_c, 2, 64, 127
5, 114782, Control_c, 2, 64, 127
5, 114783, Control_c, 2, 64, 127
5, 114813, Control_c, 2, 1, 70
5, 115430, Control_c, 2, 1, 3
5, 115440, Note_on_c, 2, 54, 0
5, 115440, Note_on_c, 2, 50, 0
5, 115680, Note_on_c, 2, 57, 96
5, 115722, Control_c, 2, 64, 0
5, 115723, Control_c, 2, 64, 0
5, 115723, Control_c, 2, 64, 0
5, 115800, Note_on_c, 2, 64, 96
5, 115920, Note_on_c, 2, 60, 94
5, 115926, Control_c, 2, 64, 127
5, 115926, Control_c, 2, 64, 127
5, 115926, Control_c, 2, 64, 127
5, 115950, Note_on_c, 2, 57, 0
5, 116040, Note_on_c, 2, 64, 0
5, 116040, Note_on_c, 2, 57, 94
5, 116070, Note_on_c, 2, 60, 0
5, 116160, Note_on_c, 2, 62, 94
5, 116220, Control_c, 2, 7, 62
5, 116280, Note_on_c, 2, 57, 0
5, 116280, Note_on_c, 2, 60, 81
5, 116340, Note_on_c, 2, 62, 0
5, 116400, Note_on_c, 2, 60, 0
5, 116400, Note_on_c, 2, 57, 98
5, 116453, Control_c, 2, 7, 61
5, 116490, Note_on_c, 2, 57, 0
5, 116520, Note_on_c, 2, 59, 96
5, 116540, Control_c, 2, 7, 60
5, 116592, Control_c, 2, 64, 0
5, 116593, Control_c, 2, 64, 0
5, 116594, Control_c, 2, 64, 0
5, 116635, Control_c, 2, 7, 59
5, 116665, Control_c, 2, 64, 127
5, 116666, Control_c, 2, 64, 127
5, 116667, Control_c, 2, 64, 127
5, 116760, Note_on_c, 2, 55, 99
5, 116790, Control_c, 2, 7, 58
5, 116820, Note_on_c, 2, 59, 0
5, 116880, Note_on_c, 2, 60, 98
5, 116910, Note_on_c, 2, 55, 0
5, 117000, Note_on_c, 2, 55, 97
5, 117005, Control_c, 2, 7, 57
5, 117030, Note_on_c, 2, 60, 0
5, 117075, Control_c, 2, 7, 56
5, 117120, Note_on_c, 2, 59, 102
5, 117150, Note_on_c, 2, 55, 0
5, 117240, Note_on_c, 2, 59, 0
5, 117240, Note_on_c, 2, 55, 99
5, 117360, Note_on_c, 2, 57, 86
5, 117390, Note_on_c, 2, 55, 0
5, 117469, Control_c, 2, 7, 54
5, 117480, Note_on_c, 2, 57, 0
5, 117480, Note_on_c, 2, 55, 99
5, 117600, Note_on_c, 2, 54, 95
5, 117630, Note_on_c, 2, 55, 0
5, 117656, Control_c, 2, 64, 0
5, 117657, Control_c, 2, 64, 0
5, 117658, Control_c, 2, 64, 0
5, 117663, Control_c, 2, 7, 53
5, 117705, Control_c, 2, 1, 78
5, 117803, Control_c, 2, 64, 127
5, 117803, Control_c, 2, 64, 127
5, 117804, Control_c, 2, 64, 127
5, 117875, Control_c, 2, 7, 52
5, 118060, Control_c, 2, 7, 51
5, 118171, Control_c, 2, 1, 3
5, 118200, Note_on_c, 2, 50, 97
5, 118230, Note_on_c, 2, 54, 0
5, 118320, Note_on_c, 2, 54, 86
5, 118440, Note_on_c, 2, 55, 88
5, 118445, Control_c, 2, 7, 49
5, 118470, Note_on_c, 2, 54, 0
5, 118560, Note_on_c, 2, 55, 0
5, 118560, Note_on_c, 2, 57, 99
5, 118560, Note_on_c, 2, 54, 13
5, 118633, Control_c, 2, 64, 0
5, 118633, Control_c, 2, 64, 0
5, 118634, Control_c, 2, 64, 0
5, 118707, Control_c, 2, 64, 127
5, 118708, Control_c, 2, 64, 127
5, 118708, Control_c, 2, 64, 127
5, 118810, Pitch_bend_c, 2, 7595
5, 118810, Pitch_bend_c, 2, 7595
5, 118811, Pitch_bend_c, 2, 7595
5, 118827, Pitch_bend_c, 2, 7237
5, 118827, Pitch_bend_c, 2, 7237
5, 118828, Pitch_bend_c, 2, 7237
5, 118842, Pitch_bend_c, 2, 6828
5, 118843, Control_c, 2, 7, 48
5, 118843, Pitch_bend_c, 2, 6828
5, 118843, Pitch_bend_c, 2, 6828
5, 118850, Pitch_bend_c, 2, 6486
5, 118850, Pitch_bend_c, 2, 6486
5, 118851, Pitch_bend_c, 2, 6486
5, 118865, Pitch_bend_c, 2, 6045
5, 118866, Pitch_bend_c, 2, 6045
5, 118867, Pitch_bend_c, 2, 6045
5, 118907, Pitch_bend_c, 2, 5746
5, 118907, Pitch_bend_c, 2, 5746
5, 118908, Pitch_bend_c, 2, 5746
5, 118985, Control_c, 2, 7, 47
5, 119072, Pitch_bend_c, 2, 6045
5, 119073, Pitch_bend_c, 2, 6045
5, 119074, Pitch_bend_c, 2, 6045
5, 119079, Control_c, 2, 7, 46
5, 119105, Pitch_bend_c, 2, 6486
5, 119105, Pitch_bend_c, 2, 6486
5, 119106, Pitch_bend_c, 2, 6486
5, 119152, Pitch_bend_c, 2, 6828
5, 119153, Pitch_bend_c, 2, 6828
5, 119153, Pitch_bend_c, 2, 6828
5, 119204, Pitch_bend_c, 2, 7237
5, 119205, Pitch_bend_c, 2, 7237
5, 119205, Pitch_bend_c, 2, 7237
5, 119223, Pitch_bend_c, 2, 7595
5, 119223, Pitch_bend_c, 2, 7595
5, 119224, Pitch_bend_c, 2, 7595
5, 119250, Pitch_bend_c, 2, 7834
5, 119251, Pitch_bend_c, 2, 7834
5, 119251, Pitch_bend_c, 2, 7834
5, 119340, Note_on_c, 2, 54, 0
5, 119340, Note_on_c, 2, 50, 0
5, 119370, Note_on_c, 2, 57, 0
5, 119395, Control_c, 2, 7, 44
5, 119520, Note_on_c, 2, 57, 97
5, 119535, Control_c, 2, 64, 0
5, 119536, Control_c, 2, 64, 0
5, 119536, Control_c, 2, 64, 0
5, 119640, Note_on_c, 2, 64, 86
5, 119647, Control_c, 2, 64, 127
5, 119648, Control_c, 2, 64, 127
5, 119648, Control_c, 2, 64, 127
5, 119760, Note_on_c, 2, 60, 88
5, 119790, Note_on_c, 2, 57, 0
5, 119880, Note_on_c, 2, 60, 0
5, 119880, Note_on_c, 2, 57, 92
5, 119905, Control_c, 2, 7, 43
5, 119910, Note_on_c, 2, 64, 0
5, 120000, Note_on_c, 2, 62, 98
5, 120115, Control_c, 2, 7, 42
5, 120120, Note_on_c, 2, 60, 79
5, 120150, Note_on_c, 2, 57, 0
5, 120200, Control_c, 2, 7, 41
5, 120210, Note_on_c, 2, 62, 0
5, 120240, Note_on_c, 2, 57, 99
5, 120270, Note_on_c, 2, 60, 0
5, 120360, Note_on_c, 2, 57, 0
5, 120360, Note_on_c, 2, 59, 103
5, 120391, Control_c, 2, 64, 0
5, 120391, Control_c, 2, 64, 0
5, 120392, Control_c, 2, 64, 0
5, 120460, Control_c, 2, 7, 39
5, 120471, Control_c, 2, 64, 127
5, 120471, Control_c, 2, 64, 127
5, 120472, Control_c, 2, 64, 127
5, 120600, Note_on_c, 2, 60, 84
5, 120630, Note_on_c, 2, 59, 0
5, 120690, Control_c, 2, 7, 38
5, 120720, Note_on_c, 2, 59, 95
5, 120750, Note_on_c, 2, 60, 0
5, 120820, Control_c, 2, 7, 37
5, 120840, Note_on_c, 2, 55, 92
5, 120870, Note_on_c, 2, 59, 0
5, 120938, Control_c, 2, 64, 0
5, 120939, Control_c, 2, 64, 0
5, 120939, Control_c, 2, 64, 0
5, 120960, Note_on_c, 2, 60, 100
5, 120990, Note_on_c, 2, 55, 0
5, 121010, Control_c, 2, 64, 127
5, 121011, Control_c, 2, 64, 127
5, 121011, Control_c, 2, 64, 127
5, 121021, Control_c, 2, 7, 36
5, 121080, Note_on_c, 2, 59, 86
5, 121110, Note_on_c, 2, 60, 0
5, 121190, Control_c, 2, 7, 35
5, 121200, Note_on_c, 2, 55, 92
5, 121260, Note_on_c, 2, 59, 0
5, 121410, Note_on_c, 2, 55, 0
5, 121440, Note_on_c, 2, 50, 77
5, 121440, Note_on_c, 2, 54, 77
5, 121440, Note_on_c, 2, 57, 77
5, 121489, Control_c, 2, 64, 0
5, 121490, Control_c, 2, 64, 0
5, 121490, Control_c, 2, 64, 0
5, 121505, Control_c, 2, 7, 34
5, 121555, Control_c, 2, 7, 33
5, 121586, Control_c, 2, 64, 127
5, 121586, Control_c, 2, 64, 127
5, 121587, Control_c, 2, 64, 127
5, 121890, Control_c, 2, 7, 32
5, 121945, Control_c, 2, 7, 31
5, 121980, Note_on_c, 2, 50, 0
5, 122010, Note_on_c, 2, 57, 0
5, 122040, Note_on_c, 2, 54, 0
5, 122040, Note_on_c, 2, 50, 80
5, 122160, Note_on_c, 2, 54, 103
5, 122180, Control_c, 2, 7, 30
5, 122280, Note_on_c, 2, 55, 78
5, 122309, Control_c, 2, 64, 0
5, 122310, Control_c, 2, 64, 0
5, 122310, Control_c, 2, 64, 0
5, 122400, Note_on_c, 2, 54, 0
5, 122400, Note_on_c, 2, 54, 104
5, 122421, Control_c, 2, 64, 127
5, 122421, Control_c, 2, 64, 127
5, 122422, Control_c, 2, 64, 127
5, 122487, Control_c, 2, 7, 29
5, 122522, Control_c, 2, 64, 0
5, 122522, Control_c, 2, 64, 0
5, 122522, Control_c, 2, 64, 0
5, 122589, Control_c, 2, 64, 127
5, 122590, Control_c, 2, 64, 127
5, 122590, Control_c, 2, 64, 127
5, 122633, Pitch_bend_c, 2, 7595
5, 122634, Pitch_bend_c, 2, 7595
5, 122635, Pitch_bend_c, 2, 7595
5, 122651, Pitch_bend_c, 2, 7237
5, 122651, Pitch_bend_c, 2, 7237
5, 122652, Pitch_bend_c, 2, 7237
5, 122675, Control_c, 2, 7, 28
5, 122679, Pitch_bend_c, 2, 6828
5, 122680, Pitch_bend_c, 2, 6828
5, 122681, Pitch_bend_c, 2, 6828
5, 122693, Pitch_bend_c, 2, 6486
5, 122693, Pitch_bend_c, 2, 6486
5, 122694, Pitch_bend_c, 2, 6486
5, 122727, Pitch_bend_c, 2, 6045
5, 122728, Pitch_bend_c, 2, 6045
5, 122729, Pitch_bend_c, 2, 6045
5, 122745, Pitch_bend_c, 2, 5746
5, 122745, Pitch_bend_c, 2, 5746
5, 122746, Pitch_bend_c, 2, 5746
5, 122778, Pitch_bend_c, 2, 5547
5, 122779, Pitch_bend_c, 2, 5547
5, 122779, Pitch_bend_c, 2, 5547
5, 122787, Pitch_bend_c, 2, 5189
5, 122787, Pitch_bend_c, 2, 5189
5, 122788, Pitch_bend_c, 2, 5189
5, 122938, Control_c, 2, 64, 0
5, 122939, Control_c, 2, 64, 0
5, 122939, Control_c, 2, 64, 0
5, 122989, Pitch_bend_c, 2, 5547
5, 122990, Pitch_bend_c, 2, 5547
5, 122990, Pitch_bend_c, 2, 5547
5, 123012, Pitch_bend_c, 2, 5746
5, 123012, Pitch_bend_c, 2, 5746
5, 123013, Pitch_bend_c, 2, 5746
5, 123042, Pitch_bend_c, 2, 6045
5, 123042, Pitch_bend_c, 2, 6045
5, 123043, Pitch_bend_c, 2, 6045
5, 123083, Control_c, 2, 7, 26
5, 123087, Pitch_bend_c, 2, 6486
5, 123088, Pitch_bend_c, 2, 6486
5, 123088, Pitch_bend_c, 2, 6486
5, 123116, Pitch_bend_c, 2, 6828
5, 123116, Pitch_bend_c, 2, 6828
5, 123117, Pitch_bend_c, 2, 6828
5, 123121, Control_c, 2, 7, 25
5, 123138, Pitch_bend_c, 2, 7237
5, 123139, Pitch_bend_c, 2, 7237
5, 123139, Pitch_bend_c, 2, 7237
5, 123154, Pitch_bend_c, 2, 7595
5, 123154, Pitch_bend_c, 2, 7595
5, 123155, Pitch_bend_c, 2, 7595
5, 123171, Pitch_bend_c, 2, 7834
5, 123172, Pitch_bend_c, 2, 7834
5, 123172, Pitch_bend_c, 2, 7834
5, 123219, Pitch_bend_c, 2, 8192
5, 123220, Pitch_bend_c, 2, 8192
5, 123220, Pitch_bend_c, 2, 8192
5, 123300, Note_on_c, 2, 54, 0
5, 123300, Note_on_c, 2, 55, 0
5, 123300, Note_on_c, 2, 50, 0
5, 123360, Note_on_c, 2, 57, 96
5, 123480, Note_on_c, 2, 64, 98
5, 123495, Control_c, 2, 7, 24
5, 123598, Control_c, 2, 64, 127
5, 123598, Control_c, 2, 64, 127
5, 123599, Control_c, 2, 64, 127
5, 123600, Note_on_c, 2, 60, 90
5, 123630, Note_on_c, 2, 57, 0
5, 123632, Control_c, 2, 64, 0
5, 123633, Control_c, 2, 64, 0
5, 123634, Control_c, 2, 64, 0
5, 123713, Control_c, 2, 64, 127
5, 123713, Control_c, 2, 64, 127
5, 123714, Control_c, 2, 64, 127
5, 123720, Note_on_c, 2, 64, 0
5, 123720, Note_on_c, 2, 57, 99
5, 123750, Note_on_c, 2, 60, 0
5, 123795, Control_c, 2, 7, 23
5, 123840, Note_on_c, 2, 62, 99
5, 123960, Note_on_c, 2, 57, 0
5, 123960, Note_on_c, 2, 60, 79
5, 124050, Note_on_c, 2, 62, 0
5, 124080, Note_on_c, 2, 57, 98
5, 124095, Control_c, 2, 7, 21
5, 124110, Note_on_c, 2, 60, 0
5, 124140, Note_on_c, 2, 57, 0
5, 124200, Note_on_c, 2, 59, 98
5, 124200, Note_on_c, 2, 55, 98
5, 124230, Note_on_c, 2, 55, 0
5, 124236, Control_c, 2, 64, 0
5, 124237, Control_c, 2, 64, 0
5, 124314, Control_c, 2, 64, 0
5, 124336, Control_c, 2, 64, 127
5, 124337, Control_c, 2, 64, 127
5, 124337, Control_c, 2, 64, 127
5, 124412, Control_c, 2, 7, 20
5, 124440, Note_on_c, 2, 55, 94
5, 124560, Note_on_c, 2, 60, 77
5, 124610, Control_c, 2, 7, 19
5, 124710, Note_on_c, 2, 55, 0
5, 124710, Note_on_c, 2, 59, 0
5, 124740, Note_on_c, 2, 60, 0
5, 124775, Control_c, 2, 7, 18
5, 124800, Note_on_c, 2, 60, 95
5, 124920, Note_on_c, 2, 59, 95
5, 124950, Note_on_c, 2, 60, 0
5, 125040, Note_on_c, 2, 55, 99
5, 125070, Note_on_c, 2, 59, 0
5, 125160, Note_on_c, 2, 55, 0
5, 125160, Note_on_c, 2, 50, 80
5, 125160, Note_on_c, 2, 54, 80
5, 125190, Note_on_c, 2, 57, 65
5, 125258, Control_c, 2, 7, 16
5, 125299, Control_c, 2, 64, 0
5, 125300, Control_c, 2, 64, 0
5, 125301, Control_c, 2, 64, 0
5, 125388, Control_c, 2, 64, 127
5, 125388, Control_c, 2, 64, 127
5, 125389, Control_c, 2, 64, 127
5, 125505, Control_c, 2, 7, 15
5, 125521, Pitch_bend_c, 2, 7715
5, 125522, Pitch_bend_c, 2, 7715
5, 125522, Pitch_bend_c, 2, 7715
5, 125544, Pitch_bend_c, 2, 7357
5, 125544, Pitch_bend_c, 2, 7357
5, 125545, Pitch_bend_c, 2, 7357
5, 125554, Pitch_bend_c, 2, 6998
5, 125554, Pitch_bend_c, 2, 6998
5, 125555, Pitch_bend_c, 2, 6998
5, 125563, Pitch_bend_c, 2, 6486
5, 125564, Pitch_bend_c, 2, 6486
5, 125564, Pitch_bend_c, 2, 6486
5, 125624, Pitch_bend_c, 2, 6144
5, 125625, Pitch_bend_c, 2, 6144
5, 125625, Pitch_bend_c, 2, 6144
5, 125647, Pitch_bend_c, 2, 5846
5, 125648, Pitch_bend_c, 2, 5846
5, 125649, Pitch_bend_c, 2, 5846
5, 125761, Pitch_bend_c, 2, 6144
5, 125761, Pitch_bend_c, 2, 6144
5, 125761, Pitch_bend_c, 2, 6144
5, 125788, Pitch_bend_c, 2, 6486
5, 125789, Pitch_bend_c, 2, 6486
5, 125789, Pitch_bend_c, 2, 6486
5, 125813, Pitch_bend_c, 2, 6998
5, 125813, Pitch_bend_c, 2, 6998
5, 125814, Pitch_bend_c, 2, 6998
5, 125830, Pitch_bend_c, 2, 7357
5, 125831, Pitch_bend_c, 2, 7357
5, 125832, Pitch_bend_c, 2, 7357
5, 125850, Note_on_c, 2, 50, 0
5, 125855, Control_c, 2, 7, 14
5, 125869, Pitch_bend_c, 2, 7715
5, 125869, Pitch_bend_c, 2, 7715
5, 125869, Pitch_bend_c, 2, 7715
5, 125882, Pitch_bend_c, 2, 8073
5, 125883, Pitch_bend_c, 2, 8073
5, 125884, Pitch_bend_c, 2, 8073
5, 125930, Control_c, 2, 7, 13
5, 125940, Note_on_c, 2, 54, 0
5, 125970, Note_on_c, 2, 57, 0
5, 126000, Note_on_c, 2, 54, 99
5, 126056, Control_c, 2, 64, 0
5, 126056, Control_c, 2, 64, 0
5, 126056, Control_c, 2, 64, 0
5, 126120, Note_on_c, 2, 54, 0
5, 126120, Note_on_c, 2, 55, 101
5, 126151, Control_c, 2, 64, 127
5, 126151, Control_c, 2, 64, 127
5, 126151, Control_c, 2, 64, 127
5, 126191, Control_c, 2, 7, 11
5, 126240, Note_on_c, 2, 57, 104
5, 126347, Control_c, 2, 64, 0
5, 126348, Control_c, 2, 64, 0
5, 126348, Control_c, 2, 64, 0
5, 126441, Pitch_bend_c, 2, 7715
5, 126441, Pitch_bend_c, 2, 7715
5, 126442, Pitch_bend_c, 2, 7715
5, 126483, Control_c, 2, 64, 127
5, 126484, Control_c, 2, 64, 127
5, 126484, Control_c, 2, 64, 127
5, 126485, Pitch_bend_c, 2, 7476
5, 126485, Pitch_bend_c, 2, 7476
5, 126485, Pitch_bend_c, 2, 7476
5, 126530, Pitch_bend_c, 2, 7118
5, 126530, Pitch_bend_c, 2, 7118
5, 126531, Pitch_bend_c, 2, 7118
5, 126570, Note_on_c, 2, 55, 0
5, 126601, Pitch_bend_c, 2, 6657
5, 126601, Pitch_bend_c, 2, 6657
5, 126601, Pitch_bend_c, 2, 6657
5, 126620, Control_c, 2, 7, 10
5, 126648, Pitch_bend_c, 2, 7118
5, 126649, Pitch_bend_c, 2, 7118
5, 126649, Pitch_bend_c, 2, 7118
5, 126709, Pitch_bend_c, 2, 7476
5, 126710, Pitch_bend_c, 2, 7476
5, 126710, Pitch_bend_c, 2, 7476
5, 126718, Pitch_bend_c, 2, 7954
5, 126719, Pitch_bend_c, 2, 7954
5, 126719, Pitch_bend_c, 2, 7954
5, 126810, Control_c, 2, 7, 9
5, 126900, Note_on_c, 2, 57, 0
5, 127065, Control_c, 2, 7, 8
5, 127170, Control_c, 2, 64, 0
5, 127171, Control_c, 2, 64, 0
5, 127171, Control_c, 2, 64, 0
5, 127200, Note_on_c, 2, 57, 103
5, 127320, Note_on_c, 2, 64, 79
5, 127326, Control_c, 2, 64, 127
5, 127327, Control_c, 2, 64, 127
5, 127327, Control_c, 2, 64, 127
5, 127375, Control_c, 2, 7, 7
5, 127380, Note_on_c, 2, 57, 0
5, 127440, Note_on_c, 2, 60, 76
5, 127560, Note_on_c, 2, 57, 97
5, 127590, Note_on_c, 2, 60, 0
5, 127590, Note_on_c, 2, 64, 0
5, 127625, Control_c, 2, 7, 6
5, 127650, Control_c, 2, 7, 5
5, 127680, Note_on_c, 2, 62, 95
5, 127740, Note_on_c, 2, 57, 0
5, 127800, Note_on_c, 2, 60, 78
5, 127847, Control_c, 2, 7, 4
5, 127920, Note_on_c, 2, 60, 0
5, 127920, Note_on_c, 2, 62, 0
5, 127920, Note_on_c, 2, 57, 102
5, 128040, Note_on_c, 2, 59, 104
5, 128079, Control_c, 2, 64, 0
5, 128080, Control_c, 2, 64, 0
5, 128080, Control_c, 2, 64, 0
5, 128160, Note_on_c, 2, 57, 0
5, 128163, Control_c, 2, 64, 127
5, 128163, Control_c, 2, 64, 127
5, 128163, Control_c, 2, 64, 127
5, 128200, Control_c, 2, 7, 3
5, 128280, Note_on_c, 2, 55, 102
5, 128400, Note_on_c, 2, 60, 92
5, 128411, Control_c, 2, 7, 2
5, 128430, Note_on_c, 2, 55, 0
5, 128490, Note_on_c, 2, 59, 0
5, 128585, Control_c, 2, 7, 1
5, 128640, Note_on_c, 2, 60, 0
5, 128640, Note_on_c, 2, 60, 96
5, 128760, Note_on_c, 2, 60, 0
5, 128760, Note_on_c, 2, 59, 99
5, 128880, Note_on_c, 2, 59, 0
5, 128880, Note_on_c, 2, 55, 93
5, 128915, Control_c, 2, 7, 0
5, 129000, Note_on_c, 2, 55, 0
5, 129000, Note_on_c, 2, 54, 83
5, 129000, Note_on_c, 2, 57, 83
5, 129000, Note_on_c, 2, 50, 83
5, 129062, Control_c, 2, 64, 0
5, 129063, Control_c, 2, 64, 0
5, 129063, Control_c, 2, 64, 0
5, 129167, Control_c, 2, 64, 127
5, 129167, Control_c, 2, 64, 127
5, 129168, Control_c, 2, 64, 127
5, 129448, Pitch_bend_c, 2, 7595
5, 129449, Pitch_bend_c, 2, 7595
5, 129449, Pitch_bend_c, 2, 7595
5, 129462, Pitch_bend_c, 2, 7357
5, 129462, Pitch_bend_c, 2, 7357
5, 129463, Pitch_bend_c, 2, 7357
5, 129490, Pitch_bend_c, 2, 6998
5, 129491, Pitch_bend_c, 2, 6998
5, 129491, Pitch_bend_c, 2, 6998
5, 129508, Pitch_bend_c, 2, 6486
5, 129509, Pitch_bend_c, 2, 6486
5, 129509, Pitch_bend_c, 2, 6486
5, 129523, Pitch_bend_c, 2, 5945
5, 129524, Pitch_bend_c, 2, 5945
5, 129524, Pitch_bend_c, 2, 5945
5, 129720, Note_on_c, 2, 50, 0
5, 129750, Note_on_c, 2, 57, 0
5, 129750, Note_on_c, 2, 54, 0
5, 129750, End_track
6, 0, Start_track
6, 0, MIDI_port, 0
6, 0, Title_t, "Voice1"
6, 137, Program_c, 3, 26
6, 138, Control_c, 3, 7, 90
6, 138, Control_c, 3, 10, 37
6, 197, Control_c, 3, 91, 64
6, 19665, Note_on_c, 3, 56, 90
6, 19680, Note_on_c, 3, 56, 0
6, 19680, Note_on_c, 3, 57, 89
6, 19815, Note_on_c, 3, 57, 0
6, 19845, Note_on_c, 3, 59, 87
6, 19905, Note_on_c, 3, 59, 0
6, 20070, Note_on_c, 3, 60, 87
6, 20130, Note_on_c, 3, 60, 0
6, 20295, Note_on_c, 3, 62, 88
6, 20355, Note_on_c, 3, 62, 0
6, 20535, Note_on_c, 3, 63, 88
6, 20535, Note_on_c, 3, 64, 88
6, 20550, Note_on_c, 3, 63, 0
6, 20640, Note_on_c, 3, 64, 0
6, 20775, Note_on_c, 3, 62, 88
6, 20869, Control_c, 3, 1, 40
6, 21212, Control_c, 3, 1, 8
6, 21240, Note_on_c, 3, 62, 0
6, 21255, Note_on_c, 3, 60, 86
6, 21330, Note_on_c, 3, 60, 0
6, 21345, Note_on_c, 3, 59, 85
6, 21480, Note_on_c, 3, 57, 87
6, 21495, Note_on_c, 3, 59, 0
6, 21576, Control_c, 3, 1, 40
6, 22560, Note_on_c, 3, 57, 0
6, 22588, Control_c, 3, 1, 7
6, 23655, Note_on_c, 3, 56, 90
6, 23676, Control_c, 3, 93, 4
6, 23685, Note_on_c, 3, 56, 0
6, 23685, Note_on_c, 3, 57, 90
6, 23730, Note_on_c, 3, 57, 0
6, 23763, Control_c, 3, 93, 6
6, 23785, Control_c, 3, 93, 8
6, 23835, Control_c, 3, 93, 10
6, 23835, Note_on_c, 3, 59, 90
6, 23845, Control_c, 3, 93, 13
6, 23880, Control_c, 3, 93, 15
6, 23910, Note_on_c, 3, 59, 0
6, 23931, Control_c, 3, 93, 18
6, 24000, Note_on_c, 3, 60, 87
6, 24051, Control_c, 3, 93, 21
6, 24075, Note_on_c, 3, 60, 0
6, 24085, Control_c, 3, 93, 23
6, 24111, Control_c, 3, 93, 26
6, 24135, Control_c, 3, 93, 29
6, 24157, Control_c, 3, 93, 31
6, 24165, Note_on_c, 3, 62, 87
6, 24196, Control_c, 3, 93, 33
6, 24206, Control_c, 3, 93, 35
6, 24240, Note_on_c, 3, 62, 0
6, 24261, Control_c, 3, 93, 37
6, 24375, Note_on_c, 3, 63, 88
6, 24405, Note_on_c, 3, 63, 0
6, 24405, Note_on_c, 3, 64, 91
6, 24415, Control_c, 3, 93, 39
6, 24475, Control_c, 3, 93, 40
6, 24480, Note_on_c, 3, 64, 0
6, 24600, Note_on_c, 3, 62, 87
6, 24692, Control_c, 3, 1, 43
6, 24702, Control_c, 3, 93, 42
6, 24713, Control_c, 3, 93, 43
6, 25090, Control_c, 3, 1, 7
6, 25110, Note_on_c, 3, 62, 0
6, 25185, Note_on_c, 3, 60, 89
6, 25305, Note_on_c, 3, 60, 0
6, 25305, Note_on_c, 3, 59, 87
6, 25440, Note_on_c, 3, 57, 86
6, 25455, Note_on_c, 3, 59, 0
6, 25570, Control_c, 3, 1, 43
6, 27090, Note_on_c, 3, 57, 0
6, 27152, Control_c, 3, 1, 5
6, 27495, Note_on_c, 3, 72, 90
6, 27645, Note_on_c, 3, 72, 0
6, 27690, Note_on_c, 3, 72, 86
6, 27795, Note_on_c, 3, 72, 0
6, 27855, Note_on_c, 3, 72, 88
6, 27990, Note_on_c, 3, 72, 0
6, 28020, Note_on_c, 3, 71, 87
6, 28155, Note_on_c, 3, 71, 0
6, 28200, Note_on_c, 3, 69, 88
6, 28305, Note_on_c, 3, 69, 0
6, 28335, Note_on_c, 3, 71, 89
6, 28470, Note_on_c, 3, 71, 0
6, 28500, Note_on_c, 3, 69, 89
6, 28576, Control_c, 3, 1, 47
6, 28891, Control_c, 3, 1, 5
6, 28935, Note_on_c, 3, 67, 87
6, 28950, Note_on_c, 3, 69, 0
6, 29145, Note_on_c, 3, 67, 0
6, 29145, Note_on_c, 3, 71, 86
6, 29280, Note_on_c, 3, 71, 0
6, 29280, Note_on_c, 3, 69, 88
6, 29379, Control_c, 3, 1, 43
6, 30960, Note_on_c, 3, 69, 0
6, 31036, Control_c, 3, 1, 6
6, 31335, Note_on_c, 3, 71, 88
6, 31350, Note_on_c, 3, 72, 87
6, 31380, Note_on_c, 3, 71, 0
6, 31485, Note_on_c, 3, 72, 0
6, 31515, Note_on_c, 3, 72, 87
6, 31575, Note_on_c, 3, 72, 0
6, 31605, Note_on_c, 3, 72, 86
6, 31650, Note_on_c, 3, 72, 0
6, 31710, Note_on_c, 3, 72, 88
6, 31830, Note_on_c, 3, 72, 0
6, 31875, Note_on_c, 3, 71, 88
6, 31980, Note_on_c, 3, 71, 0
6, 32010, Note_on_c, 3, 69, 88
6, 32100, Note_on_c, 3, 69, 0
6, 32160, Note_on_c, 3, 71, 89
6, 32295, Note_on_c, 3, 71, 0
6, 32325, Note_on_c, 3, 69, 89
6, 32375, Control_c, 3, 1, 48
6, 32700, Note_on_c, 3, 69, 0
6, 32721, Control_c, 3, 1, 6
6, 32790, Note_on_c, 3, 67, 87
6, 33000, Note_on_c, 3, 67, 0
6, 33000, Note_on_c, 3, 71, 86
6, 33120, Note_on_c, 3, 71, 0
6, 33135, Note_on_c, 3, 69, 87
6, 33223, Control_c, 3, 1, 49
6, 34605, Note_on_c, 3, 69, 0
6, 34674, Control_c, 3, 1, 7
6, 34800, Note_on_c, 3, 69, 89
6, 35040, Note_on_c, 3, 69, 0
6, 35055, Note_on_c, 3, 76, 91
6, 36105, Note_on_c, 3, 76, 0
6, 36150, Note_on_c, 3, 74, 89
6, 36270, Note_on_c, 3, 74, 0
6, 36330, Note_on_c, 3, 72, 89
6, 36420, Note_on_c, 3, 72, 0
6, 36480, Note_on_c, 3, 74, 88
6, 36645, Note_on_c, 3, 74, 0
6, 36660, Note_on_c, 3, 71, 88
6, 36825, Note_on_c, 3, 71, 0
6, 36825, Note_on_c, 3, 69, 85
6, 36989, Control_c, 3, 1, 46
6, 38475, Note_on_c, 3, 69, 0
6, 38508, Control_c, 3, 1, 6
6, 38625, Note_on_c, 3, 69, 89
6, 38880, Note_on_c, 3, 69, 0
6, 38880, Note_on_c, 3, 76, 89
6, 39975, Note_on_c, 3, 76, 0
6, 39990, Note_on_c, 3, 74, 89
6, 40065, Note_on_c, 3, 74, 0
6, 40170, Note_on_c, 3, 72, 88
6, 40245, Note_on_c, 3, 72, 0
6, 40320, Note_on_c, 3, 74, 89
6, 40470, Note_on_c, 3, 74, 0
6, 40500, Note_on_c, 3, 72, 88
6, 40635, Note_on_c, 3, 72, 0
6, 40665, Note_on_c, 3, 71, 88
6, 40785, Note_on_c, 3, 71, 0
6, 40800, Note_on_c, 3, 69, 88
6, 40983, Control_c, 3, 1, 52
6, 42690, Note_on_c, 3, 69, 0
6, 42821, Control_c, 3, 1, 5
6, 46535, Note_on_c, 3, 68, 93
6, 46555, Note_on_c, 3, 69, 90
6, 46558, Note_on_c, 3, 68, 0
6, 46658, Note_on_c, 3, 69, 0
6, 46681, Note_on_c, 3, 71, 88
6, 46748, Note_on_c, 3, 71, 0
6, 46938, Note_on_c, 3, 72, 90
6, 46999, Note_on_c, 3, 72, 0
6, 47182, Note_on_c, 3, 74, 88
6, 47215, Note_on_c, 3, 74, 0
6, 47420, Note_on_c, 3, 75, 93
6, 47445, Note_on_c, 3, 75, 0
6, 47445, Note_on_c, 3, 76, 92
6, 47644, Note_on_c, 3, 76, 0
6, 47659, Note_on_c, 3, 74, 89
6, 47702, Control_c, 3, 1, 46
6, 48019, Note_on_c, 3, 74, 0
6, 48046, Control_c, 3, 1, 7
6, 48115, Note_on_c, 3, 71, 87
6, 48133, Note_on_c, 3, 72, 87
6, 48151, Note_on_c, 3, 71, 0
6, 48239, Note_on_c, 3, 71, 89
6, 48254, Note_on_c, 3, 72, 0
6, 48373, Note_on_c, 3, 71, 0
6, 48382, Note_on_c, 3, 69, 89
6, 48470, Control_c, 3, 1, 40
6, 49495, Note_on_c, 3, 69, 0
6, 49597, Control_c, 3, 1, 6
6, 50543, Note_on_c, 3, 75, 92
6, 50559, Note_on_c, 3, 76, 92
6, 50561, Note_on_c, 3, 75, 0
6, 50630, Note_on_c, 3, 76, 0
6, 50731, Control_c, 3, 93, 45
6, 50736, Note_on_c, 3, 75, 93
6, 50763, Note_on_c, 3, 75, 0
6, 50763, Note_on_c, 3, 76, 90
6, 50804, Control_c, 3, 93, 43
6, 50808, Note_on_c, 3, 76, 0
6, 50854, Control_c, 3, 93, 42
6, 50864, Control_c, 3, 93, 40
6, 50889, Control_c, 3, 93, 38
6, 50889, Note_on_c, 3, 75, 90
6, 50900, Control_c, 3, 93, 35
6, 50903, Note_on_c, 3, 76, 86
6, 50910, Note_on_c, 3, 75, 0
6, 50910, Control_c, 3, 93, 33
6, 50936, Control_c, 3, 93, 30
6, 50961, Control_c, 3, 93, 28
6, 50981, Control_c, 3, 93, 26
6, 51006, Control_c, 3, 93, 23
6, 51047, Control_c, 3, 93, 21
6, 51056, Note_on_c, 3, 74, 91
6, 51059, Note_on_c, 3, 76, 0
6, 51203, Note_on_c, 3, 74, 0
6, 51212, Note_on_c, 3, 72, 90
6, 51324, Note_on_c, 3, 72, 0
6, 51350, Note_on_c, 3, 73, 91
6, 51362, Note_on_c, 3, 73, 0
6, 51366, Note_on_c, 3, 74, 89
6, 51511, Note_on_c, 3, 74, 0
6, 51516, Note_on_c, 3, 72, 90
6, 51680, Note_on_c, 3, 72, 0
6, 51977, Note_on_c, 3, 71, 89
6, 52012, Note_on_c, 3, 72, 90
6, 52032, Note_on_c, 3, 71, 0
6, 52128, Note_on_c, 3, 72, 0
6, 52184, Note_on_c, 3, 71, 90
6, 52294, Note_on_c, 3, 71, 0
6, 52329, Note_on_c, 3, 69, 89
6, 52425, Control_c, 3, 1, 47
6, 54075, Note_on_c, 3, 69, 0
6, 54118, Control_c, 3, 1, 6
6, 54374, Note_on_c, 3, 71, 91
6, 54394, Note_on_c, 3, 72, 90
6, 54419, Note_on_c, 3, 71, 0
6, 54517, Note_on_c, 3, 72, 0
6, 54563, Note_on_c, 3, 72, 89
6, 54600, Note_on_c, 3, 72, 0
6, 54641, Note_on_c, 3, 72, 89
6, 54687, Note_on_c, 3, 72, 0
6, 54731, Note_on_c, 3, 72, 89
6, 54869, Note_on_c, 3, 72, 0
6, 54895, Note_on_c, 3, 71, 91
6, 55020, Note_on_c, 3, 71, 0
6, 55056, Note_on_c, 3, 69, 91
6, 55147, Note_on_c, 3, 69, 0
6, 55180, Note_on_c, 3, 71, 89
6, 55358, Note_on_c, 3, 71, 0
6, 55365, Note_on_c, 3, 69, 91
6, 55433, Control_c, 3, 1, 45
6, 55754, Note_on_c, 3, 69, 0
6, 55782, Control_c, 3, 1, 5
6, 55811, Note_on_c, 3, 67, 90
6, 55983, Note_on_c, 3, 67, 0
6, 56000, Note_on_c, 3, 71, 88
6, 56166, Note_on_c, 3, 71, 0
6, 56169, Note_on_c, 3, 69, 90
6, 56323, Control_c, 3, 1, 43
6, 56344, Pitch_bend_c, 3, 7954
6, 56344, Pitch_bend_c, 3, 7954
6, 56345, Pitch_bend_c, 3, 7954
6, 56357, Pitch_bend_c, 3, 7595
6, 56358, Pitch_bend_c, 3, 7595
6, 56358, Pitch_bend_c, 3, 7595
6, 56368, Pitch_bend_c, 3, 7118
6, 56368, Pitch_bend_c, 3, 7118
6, 56369, Pitch_bend_c, 3, 7118
6, 56375, Pitch_bend_c, 3, 6486
6, 56375, Pitch_bend_c, 3, 6486
6, 56376, Pitch_bend_c, 3, 6486
6, 56385, Pitch_bend_c, 3, 6045
6, 56386, Pitch_bend_c, 3, 6045
6, 56386, Pitch_bend_c, 3, 6045
6, 56395, Pitch_bend_c, 3, 5746
6, 56395, Pitch_bend_c, 3, 5746
6, 56396, Pitch_bend_c, 3, 5746
6, 56516, Pitch_bend_c, 3, 6045
6, 56516, Pitch_bend_c, 3, 6045
6, 56517, Pitch_bend_c, 3, 6045
6, 56526, Pitch_bend_c, 3, 6486
6, 56526, Pitch_bend_c, 3, 6486
6, 56526, Pitch_bend_c, 3, 6486
6, 56545, Pitch_bend_c, 3, 6828
6, 56545, Pitch_bend_c, 3, 6828
6, 56546, Pitch_bend_c, 3, 6828
6, 56568, Pitch_bend_c, 3, 7237
6, 56569, Pitch_bend_c, 3, 7237
6, 56570, Pitch_bend_c, 3, 7237
6, 56578, Pitch_bend_c, 3, 7595
6, 56578, Pitch_bend_c, 3, 7595
6, 56579, Pitch_bend_c, 3, 7595
6, 56591, Pitch_bend_c, 3, 7834
6, 56592, Pitch_bend_c, 3, 7834
6, 56592, Pitch_bend_c, 3, 7834
6, 56607, Pitch_bend_c, 3, 8192
6, 56607, Pitch_bend_c, 3, 8192
6, 56608, Pitch_bend_c, 3, 8192
6, 57858, Note_on_c, 3, 69, 0
6, 57952, Control_c, 3, 1, 6
6, 58227, Note_on_c, 3, 71, 89
6, 58246, Note_on_c, 3, 72, 90
6, 58271, Note_on_c, 3, 71, 0
6, 58374, Note_on_c, 3, 72, 0
6, 58409, Note_on_c, 3, 72, 89
6, 58455, Note_on_c, 3, 72, 0
6, 58498, Note_on_c, 3, 72, 90
6, 58546, Note_on_c, 3, 72, 0
6, 58592, Note_on_c, 3, 72, 89
6, 58709, Note_on_c, 3, 72, 0
6, 58741, Note_on_c, 3, 71, 89
6, 58847, Note_on_c, 3, 71, 0
6, 58893, Note_on_c, 3, 69, 88
6, 59013, Note_on_c, 3, 69, 0
6, 59040, Note_on_c, 3, 70, 94
6, 59062, Note_on_c, 3, 70, 0
6, 59062, Note_on_c, 3, 71, 94
6, 59201, Note_on_c, 3, 71, 0
6, 59206, Note_on_c, 3, 69, 89
6, 59275, Control_c, 3, 1, 46
6, 59631, Control_c, 3, 1, 6
6, 59648, Note_on_c, 3, 69, 0
6, 59670, Note_on_c, 3, 67, 90
6, 59857, Note_on_c, 3, 67, 0
6, 59860, Note_on_c, 3, 70, 89
6, 59877, Note_on_c, 3, 71, 90
6, 59879, Note_on_c, 3, 70, 0
6, 60018, Note_on_c, 3, 71, 0
6, 60023, Note_on_c, 3, 69, 92
6, 60155, Control_c, 3, 1, 49
6, 60412, Pitch_bend_c, 3, 7834
6, 60412, Pitch_bend_c, 3, 7834
6, 60413, Pitch_bend_c, 3, 7834
6, 60426, Pitch_bend_c, 3, 7476
6, 60426, Pitch_bend_c, 3, 7476
6, 60426, Pitch_bend_c, 3, 7476
6, 60463, Pitch_bend_c, 3, 7118
6, 60464, Pitch_bend_c, 3, 7118
6, 60464, Pitch_bend_c, 3, 7118
6, 60477, Pitch_bend_c, 3, 6657
6, 60477, Pitch_bend_c, 3, 6657
6, 60478, Pitch_bend_c, 3, 6657
6, 60585, Pitch_bend_c, 3, 7118
6, 60585, Pitch_bend_c, 3, 7118
6, 60585, Pitch_bend_c, 3, 7118
6, 60595, Pitch_bend_c, 3, 7476
6, 60595, Pitch_bend_c, 3, 7476
6, 60596, Pitch_bend_c, 3, 7476
6, 60655, Pitch_bend_c, 3, 7834
6, 60656, Pitch_bend_c, 3, 7834
6, 60656, Pitch_bend_c, 3, 7834
6, 60660, Pitch_bend_c, 3, 8192
6, 60660, Pitch_bend_c, 3, 8192
6, 60661, Pitch_bend_c, 3, 8192
6, 61547, Control_c, 3, 1, 6
6, 61563, Note_on_c, 3, 69, 0
6, 61686, Note_on_c, 3, 69, 92
6, 61912, Note_on_c, 3, 69, 0
6, 61924, Note_on_c, 3, 76, 90
6, 63024, Note_on_c, 3, 76, 0
6, 63039, Note_on_c, 3, 74, 91
6, 63128, Note_on_c, 3, 74, 0
6, 63234, Note_on_c, 3, 72, 90
6, 63320, Note_on_c, 3, 72, 0
6, 63383, Note_on_c, 3, 74, 90
6, 63530, Note_on_c, 3, 74, 0
6, 63571, Note_on_c, 3, 72, 91
6, 63696, Note_on_c, 3, 72, 0
6, 63713, Note_on_c, 3, 71, 88
6, 63859, Note_on_c, 3, 71, 0
6, 63859, Note_on_c, 3, 69, 90
6, 63941, Control_c, 3, 1, 44
6, 65341, Note_on_c, 3, 69, 0
6, 65390, Control_c, 3, 1, 6
6, 65517, Note_on_c, 3, 69, 92
6, 65761, Note_on_c, 3, 75, 93
6, 65764, Note_on_c, 3, 69, 0
6, 65791, Note_on_c, 3, 76, 94
6, 65793, Note_on_c, 3, 75, 0
6, 66864, Note_on_c, 3, 76, 0
6, 66890, Note_on_c, 3, 74, 90
6, 67037, Note_on_c, 3, 74, 0
6, 67080, Note_on_c, 3, 72, 90
6, 67177, Note_on_c, 3, 72, 0
6, 67232, Note_on_c, 3, 72, 91
6, 67426, Note_on_c, 3, 72, 0
6, 67448, Note_on_c, 3, 71, 88
6, 67564, Note_on_c, 3, 71, 0
6, 67584, Note_on_c, 3, 69, 90
6, 67638, Control_c, 3, 1, 46
6, 69578, Note_on_c, 3, 69, 0
6, 69653, Control_c, 3, 1, 6
6, 84955, Note_on_c, 3, 56, 46
6, 84982, Note_on_c, 3, 56, 0
6, 84985, Note_on_c, 3, 57, 89
6, 85095, Note_on_c, 3, 59, 73
6, 85101, Note_on_c, 3, 57, 0
6, 85206, Note_on_c, 3, 59, 0
6, 85316, Note_on_c, 3, 60, 66
6, 85435, Note_on_c, 3, 60, 0
6, 85586, Note_on_c, 3, 62, 83
6, 85697, Note_on_c, 3, 62, 0
6, 85815, Note_on_c, 3, 63, 77
6, 85840, Note_on_c, 3, 63, 0
6, 85842, Note_on_c, 3, 64, 94
6, 86019, Note_on_c, 3, 62, 88
6, 86026, Note_on_c, 3, 64, 0
6, 86415, Note_on_c, 3, 62, 0
6, 86523, Note_on_c, 3, 59, 50
6, 86548, Note_on_c, 3, 60, 75
6, 86562, Note_on_c, 3, 59, 0
6, 86654, Note_on_c, 3, 59, 69
6, 86676, Note_on_c, 3, 60, 0
6, 86775, Note_on_c, 3, 59, 0
6, 86779, Note_on_c, 3, 57, 73
6, 88219, Note_on_c, 3, 57, 0
6, 88943, Note_on_c, 3, 56, 66
6, 88974, Note_on_c, 3, 56, 0
6, 88980, Note_on_c, 3, 57, 61
6, 89129, Note_on_c, 3, 57, 0
6, 89140, Note_on_c, 3, 59, 66
6, 89265, Note_on_c, 3, 59, 0
6, 89281, Note_on_c, 3, 60, 73
6, 89453, Note_on_c, 3, 62, 83
6, 89456, Note_on_c, 3, 60, 0
6, 89605, Note_on_c, 3, 62, 0
6, 89632, Note_on_c, 3, 63, 66
6, 89678, Note_on_c, 3, 64, 85
6, 89686, Note_on_c, 3, 63, 0
6, 89840, Note_on_c, 3, 64, 0
6, 89869, Note_on_c, 3, 62, 77
6, 90299, Note_on_c, 3, 62, 0
6, 90373, Note_on_c, 3, 60, 83
6, 90556, Note_on_c, 3, 60, 0
6, 90565, Note_on_c, 3, 59, 72
6, 90738, Note_on_c, 3, 57, 69
6, 90743, Note_on_c, 3, 59, 0
6, 92371, Note_on_c, 3, 57, 0
6, 92783, Note_on_c, 3, 72, 88
6, 92914, Note_on_c, 3, 72, 0
6, 92960, Note_on_c, 3, 72, 83
6, 93008, Note_on_c, 3, 72, 0
6, 93049, Note_on_c, 3, 72, 74
6, 93097, Note_on_c, 3, 72, 0
6, 93151, Note_on_c, 3, 72, 78
6, 93316, Note_on_c, 3, 72, 0
6, 93320, Note_on_c, 3, 71, 69
6, 93451, Note_on_c, 3, 71, 0
6, 93456, Note_on_c, 3, 69, 81
6, 93579, Note_on_c, 3, 69, 0
6, 93601, Note_on_c, 3, 71, 81
6, 93762, Note_on_c, 3, 71, 0
6, 93765, Note_on_c, 3, 69, 88
6, 94227, Note_on_c, 3, 69, 0
6, 94234, Note_on_c, 3, 67, 88
6, 94420, Note_on_c, 3, 71, 74
6, 94425, Note_on_c, 3, 67, 0
6, 94561, Note_on_c, 3, 69, 79
6, 94569, Note_on_c, 3, 71, 0
6, 96523, Note_on_c, 3, 69, 0
6, 96590, Note_on_c, 3, 71, 72
6, 96617, Note_on_c, 3, 72, 66
6, 96642, Note_on_c, 3, 71, 0
6, 96763, Note_on_c, 3, 72, 0
6, 96800, Note_on_c, 3, 72, 92
6, 96857, Note_on_c, 3, 72, 0
6, 96899, Note_on_c, 3, 72, 83
6, 96962, Note_on_c, 3, 72, 0
6, 97008, Note_on_c, 3, 72, 70
6, 97156, Note_on_c, 3, 72, 0
6, 97170, Note_on_c, 3, 71, 90
6, 97295, Note_on_c, 3, 71, 0
6, 97307, Note_on_c, 3, 69, 90
6, 97432, Note_on_c, 3, 69, 0
6, 97454, Note_on_c, 3, 71, 84
6, 97615, Note_on_c, 3, 71, 0
6, 97619, Note_on_c, 3, 69, 88
6, 98035, Note_on_c, 3, 69, 0
6, 98073, Note_on_c, 3, 69, 78
6, 98261, Note_on_c, 3, 69, 0
6, 98266, Note_on_c, 3, 67, 79
6, 98399, Note_on_c, 3, 67, 0
6, 98405, Note_on_c, 3, 69, 90
6, 98697, Pitch_bend_c, 3, 8073
6, 98698, Pitch_bend_c, 3, 8073
6, 98698, Pitch_bend_c, 3, 8073
6, 98712, Pitch_bend_c, 3, 7595
6, 98713, Pitch_bend_c, 3, 7595
6, 98713, Pitch_bend_c, 3, 7595
6, 98726, Pitch_bend_c, 3, 7237
6, 98726, Pitch_bend_c, 3, 7237
6, 98727, Pitch_bend_c, 3, 7237
6, 98739, Pitch_bend_c, 3, 6828
6, 98740, Pitch_bend_c, 3, 6828
6, 98755, Pitch_bend_c, 3, 6828
6, 98755, Pitch_bend_c, 3, 6486
6, 98756, Pitch_bend_c, 3, 6486
6, 98756, Pitch_bend_c, 3, 6486
6, 98772, Pitch_bend_c, 3, 5945
6, 98773, Pitch_bend_c, 3, 5945
6, 98773, Pitch_bend_c, 3, 5945
6, 98782, Pitch_bend_c, 3, 5647
6, 98782, Pitch_bend_c, 3, 5647
6, 98782, Pitch_bend_c, 3, 5647
6, 98795, Pitch_bend_c, 3, 5309
6, 98795, Pitch_bend_c, 3, 5309
6, 98796, Pitch_bend_c, 3, 5309
6, 98805, Pitch_bend_c, 3, 4950
6, 98806, Pitch_bend_c, 3, 4950
6, 98806, Pitch_bend_c, 3, 4950
6, 98834, Pitch_bend_c, 3, 5309
6, 98834, Pitch_bend_c, 3, 5309
6, 98835, Pitch_bend_c, 3, 5309
6, 98843, Pitch_bend_c, 3, 5746
6, 98844, Pitch_bend_c, 3, 5746
6, 98845, Pitch_bend_c, 3, 5746
6, 98848, Pitch_bend_c, 3, 6045
6, 98848, Pitch_bend_c, 3, 6045
6, 98849, Pitch_bend_c, 3, 6045
6, 98857, Pitch_bend_c, 3, 6486
6, 98857, Pitch_bend_c, 3, 6486
6, 98858, Pitch_bend_c, 3, 6486
6, 98871, Pitch_bend_c, 3, 6828
6, 98871, Pitch_bend_c, 3, 6828
6, 98871, Pitch_bend_c, 3, 6828
6, 98885, Pitch_bend_c, 3, 7357
6, 98885, Pitch_bend_c, 3, 7357
6, 98886, Pitch_bend_c, 3, 7357
6, 98895, Pitch_bend_c, 3, 7595
6, 98895, Pitch_bend_c, 3, 7595
6, 98895, Pitch_bend_c, 3, 7595
6, 98899, Pitch_bend_c, 3, 7954
6, 98899, Pitch_bend_c, 3, 7954
6, 98900, Pitch_bend_c, 3, 7954
6, 98904, Pitch_bend_c, 3, 8192
6, 98905, Pitch_bend_c, 3, 8192
6, 98905, Pitch_bend_c, 3, 8192
6, 100022, Note_on_c, 3, 69, 0
6, 100081, Note_on_c, 3, 69, 102
6, 100328, Note_on_c, 3, 69, 0
6, 100328, Note_on_c, 3, 76, 90
6, 101348, Note_on_c, 3, 76, 0
6, 101454, Note_on_c, 3, 72, 79
6, 101634, Note_on_c, 3, 72, 0
6, 101651, Note_on_c, 3, 71, 88
6, 101743, Note_on_c, 3, 71, 0
6, 101794, Note_on_c, 3, 72, 66
6, 101944, Note_on_c, 3, 72, 0
6, 101979, Note_on_c, 3, 71, 86
6, 102138, Note_on_c, 3, 71, 0
6, 102147, Note_on_c, 3, 69, 62
6, 103854, Note_on_c, 3, 69, 0
6, 103908, Note_on_c, 3, 69, 81
6, 104152, Note_on_c, 3, 69, 0
6, 104168, Note_on_c, 3, 76, 99
6, 105248, Note_on_c, 3, 76, 0
6, 105288, Note_on_c, 3, 74, 88
6, 105412, Note_on_c, 3, 74, 0
6, 105477, Note_on_c, 3, 72, 62
6, 105598, Note_on_c, 3, 72, 0
6, 105653, Note_on_c, 3, 72, 77
6, 105794, Note_on_c, 3, 72, 0
6, 105830, Note_on_c, 3, 71, 65
6, 105971, Note_on_c, 3, 71, 0
6, 105988, Note_on_c, 3, 69, 63
6, 109688, Note_on_c, 3, 69, 0
6, 116220, Control_c, 3, 7, 48
6, 116448, Control_c, 3, 7, 47
6, 116630, Control_c, 3, 7, 46
6, 116785, Control_c, 3, 7, 45
6, 117000, Control_c, 3, 7, 44
6, 117220, Control_c, 3, 7, 43
6, 117459, Control_c, 3, 7, 42
6, 117658, Control_c, 3, 7, 41
6, 117870, Control_c, 3, 7, 40
6, 118302, Control_c, 3, 7, 39
6, 118440, Control_c, 3, 7, 38
6, 118838, Control_c, 3, 7, 37
6, 118980, Control_c, 3, 7, 36
6, 119210, Control_c, 3, 7, 35
6, 119390, Control_c, 3, 7, 34
6, 119900, Control_c, 3, 7, 33
6, 120195, Control_c, 3, 7, 32
6, 120455, Control_c, 3, 7, 30
6, 120685, Control_c, 3, 7, 29
6, 121016, Control_c, 3, 7, 28
6, 121185, Control_c, 3, 7, 27
6, 121500, Control_c, 3, 7, 26
6, 121885, Control_c, 3, 7, 25
6, 121940, Control_c, 3, 7, 24
6, 122171, Control_c, 3, 7, 23
6, 122482, Control_c, 3, 7, 22
6, 122855, Control_c, 3, 7, 21
6, 123078, Control_c, 3, 7, 20
6, 123305, Control_c, 3, 7, 19
6, 123790, Control_c, 3, 7, 18
6, 123910, Control_c, 3, 7, 17
6, 124086, Control_c, 3, 7, 16
6, 124407, Control_c, 3, 7, 15
6, 124765, Control_c, 3, 7, 14
6, 125253, Control_c, 3, 7, 13
6, 125440, Control_c, 3, 7, 12
6, 125500, Control_c, 3, 7, 11
6, 125925, Control_c, 3, 7, 10
6, 126186, Control_c, 3, 7, 9
6, 126427, Control_c, 3, 7, 8
6, 126805, Control_c, 3, 7, 7
6, 127060, Control_c, 3, 7, 6
6, 127370, Control_c, 3, 7, 5
6, 127620, Control_c, 3, 7, 4
6, 127847, Control_c, 3, 7, 3
6, 128195, Control_c, 3, 7, 2
6, 128406, Control_c, 3, 7, 1
6, 128910, Control_c, 3, 7, 0
6, 128910, End_track
7, 0, Start_track
7, 0, MIDI_port, 0
7, 0, Title_t, "Strings1"
7, 142, Program_c, 4, 48
7, 143, Control_c, 4, 7, 70
7, 143, Control_c, 4, 10, 115
7, 291, Control_c, 4, 91, 93
7, 46560, Note_on_c, 4, 69, 55
7, 46560, Note_on_c, 4, 72, 55
7, 47520, Note_on_c, 4, 72, 0
7, 47520, Note_on_c, 4, 69, 0
7, 47520, Note_on_c, 4, 67, 55
7, 47520, Note_on_c, 4, 71, 55
7, 48285, Control_c, 4, 93, 3
7, 48349, Control_c, 4, 93, 7
7, 48361, Control_c, 4, 93, 9
7, 48382, Control_c, 4, 93, 12
7, 48389, Control_c, 4, 93, 15
7, 48413, Control_c, 4, 93, 18
7, 48418, Control_c, 4, 93, 21
7, 48443, Control_c, 4, 93, 23
7, 48470, Control_c, 4, 93, 26
7, 48480, Note_on_c, 4, 71, 0
7, 48480, Note_on_c, 4, 67, 0
7, 48480, Note_on_c, 4, 69, 55
7, 48480, Note_on_c, 4, 66, 55
7, 48491, Control_c, 4, 93, 29
7, 48525, Control_c, 4, 93, 31
7, 48555, Control_c, 4, 93, 33
7, 48565, Control_c, 4, 93, 35
7, 48590, Control_c, 4, 93, 38
7, 48615, Control_c, 4, 93, 40
7, 48635, Control_c, 4, 93, 42
7, 48650, Control_c, 4, 93, 43
7, 48675, Control_c, 4, 93, 45
7, 48695, Control_c, 4, 93, 48
7, 48830, Control_c, 4, 93, 51
7, 48855, Control_c, 4, 93, 53
7, 48870, Control_c, 4, 93, 55
7, 48879, Control_c, 4, 93, 58
7, 50340, Note_on_c, 4, 66, 0
7, 50340, Note_on_c, 4, 69, 0
7, 50400, Note_on_c, 4, 72, 55
7, 50400, Note_on_c, 4, 69, 55
7, 51360, Note_on_c, 4, 69, 0
7, 51360, Note_on_c, 4, 72, 0
7, 51360, Note_on_c, 4, 71, 55
7, 51360, Note_on_c, 4, 67, 55
7, 52320, Note_on_c, 4, 67, 0
7, 52320, Note_on_c, 4, 71, 0
7, 52320, Note_on_c, 4, 69, 55
7, 52320, Note_on_c, 4, 66, 55
7, 54180, Note_on_c, 4, 66, 0
7, 54180, Note_on_c, 4, 69, 0
7, 54240, Note_on_c, 4, 69, 55
7, 54240, Note_on_c, 4, 72, 55
7, 55200, Note_on_c, 4, 72, 0
7, 55200, Note_on_c, 4, 69, 0
7, 55200, Note_on_c, 4, 71, 55
7, 55200, Note_on_c, 4, 67, 55
7, 56160, Note_on_c, 4, 67, 0
7, 56160, Note_on_c, 4, 71, 0
7, 56160, Note_on_c, 4, 66, 55
7, 56160, Note_on_c, 4, 69, 55
7, 58020, Note_on_c, 4, 69, 0
7, 58020, Note_on_c, 4, 66, 0
7, 58080, Note_on_c, 4, 69, 74
7, 58080, Note_on_c, 4, 72, 74
7, 59040, Note_on_c, 4, 72, 0
7, 59040, Note_on_c, 4, 69, 0
7, 59040, Note_on_c, 4, 71, 55
7, 59040, Note_on_c, 4, 67, 55
7, 60000, Note_on_c, 4, 67, 0
7, 60000, Note_on_c, 4, 71, 0
7, 60000, Note_on_c, 4, 66, 55
7, 60000, Note_on_c, 4, 69, 55
7, 61291, Control_c, 4, 93, 60
7, 61296, Control_c, 4, 93, 61
7, 61327, Control_c, 4, 93, 56
7, 61340, Control_c, 4, 93, 54
7, 61350, Control_c, 4, 93, 52
7, 61385, Control_c, 4, 93, 48
7, 61395, Control_c, 4, 93, 46
7, 61460, Control_c, 4, 93, 45
7, 61530, Control_c, 4, 93, 43
7, 61540, Control_c, 4, 93, 42
7, 61579, Control_c, 4, 93, 41
7, 61626, Control_c, 4, 93, 38
7, 61860, Note_on_c, 4, 69, 0
7, 61920, Note_on_c, 4, 66, 0
7, 61920, Note_on_c, 4, 69, 55
7, 61920, Note_on_c, 4, 72, 55
7, 62880, Note_on_c, 4, 72, 0
7, 62880, Note_on_c, 4, 69, 0
7, 62880, Note_on_c, 4, 71, 55
7, 62880, Note_on_c, 4, 67, 55
7, 63840, Note_on_c, 4, 67, 0
7, 63840, Note_on_c, 4, 71, 0
7, 63840, Note_on_c, 4, 66, 55
7, 63840, Note_on_c, 4, 69, 55
7, 64380, Note_on_c, 4, 69, 0
7, 64380, Note_on_c, 4, 69, 55
7, 64680, Note_on_c, 4, 69, 0
7, 64680, Note_on_c, 4, 71, 55
7, 64800, Note_on_c, 4, 71, 0
7, 64800, Note_on_c, 4, 69, 55
7, 65760, Note_on_c, 4, 69, 0
7, 65760, Note_on_c, 4, 66, 0
7, 65760, Note_on_c, 4, 69, 55
7, 65760, Note_on_c, 4, 72, 55
7, 66720, Note_on_c, 4, 72, 0
7, 66720, Note_on_c, 4, 69, 0
7, 66720, Note_on_c, 4, 67, 55
7, 66720, Note_on_c, 4, 71, 55
7, 67680, Note_on_c, 4, 71, 0
7, 67680, Note_on_c, 4, 67, 0
7, 67680, Note_on_c, 4, 69, 55
7, 67680, Note_on_c, 4, 66, 55
7, 69050, Control_c, 4, 10, 118
7, 69100, Control_c, 4, 10, 120
7, 69126, Control_c, 4, 10, 124
7, 69148, Control_c, 4, 10, 127
7, 69600, Note_on_c, 4, 66, 0
7, 69600, Note_on_c, 4, 69, 0
7, 72480, Note_on_c, 4, 64, 54
7, 75360, Note_on_c, 4, 64, 0
7, 75360, Note_on_c, 4, 62, 66
7, 77280, Note_on_c, 4, 62, 0
7, 77280, Note_on_c, 4, 64, 64
7, 78240, Note_on_c, 4, 64, 0
7, 78240, Note_on_c, 4, 62, 65
7, 79200, Note_on_c, 4, 62, 0
7, 79200, Note_on_c, 4, 62, 65
7, 81120, Note_on_c, 4, 62, 0
7, 81120, Note_on_c, 4, 69, 70
7, 82080, Note_on_c, 4, 69, 0
7, 82080, Note_on_c, 4, 71, 67
7, 83040, Note_on_c, 4, 71, 0
7, 83040, Note_on_c, 4, 74, 73
7, 84930, Note_on_c, 4, 74, 0
7, 84960, Note_on_c, 4, 69, 55
7, 84960, Note_on_c, 4, 72, 55
7, 85920, Note_on_c, 4, 72, 0
7, 85920, Note_on_c, 4, 69, 0
7, 85920, Note_on_c, 4, 67, 55
7, 85920, Note_on_c, 4, 71, 55
7, 86880, Note_on_c, 4, 71, 0
7, 86880, Note_on_c, 4, 67, 0
7, 86880, Note_on_c, 4, 69, 55
7, 86880, Note_on_c, 4, 66, 55
7, 88740, Note_on_c, 4, 66, 0
7, 88740, Note_on_c, 4, 69, 0
7, 88800, Note_on_c, 4, 72, 55
7, 88800, Note_on_c, 4, 69, 55
7, 89760, Note_on_c, 4, 69, 0
7, 89760, Note_on_c, 4, 72, 0
7, 89760, Note_on_c, 4, 71, 55
7, 89760, Note_on_c, 4, 67, 55
7, 90720, Note_on_c, 4, 67, 0
7, 90720, Note_on_c, 4, 71, 0
7, 90720, Note_on_c, 4, 69, 55
7, 90720, Note_on_c, 4, 66, 55
7, 92580, Note_on_c, 4, 66, 0
7, 92580, Note_on_c, 4, 69, 0
7, 92640, Note_on_c, 4, 69, 55
7, 92640, Note_on_c, 4, 72, 55
7, 93600, Note_on_c, 4, 72, 0
7, 93600, Note_on_c, 4, 69, 0
7, 93600, Note_on_c, 4, 71, 55
7, 93600, Note_on_c, 4, 67, 55
7, 94560, Note_on_c, 4, 67, 0
7, 94560, Note_on_c, 4, 71, 0
7, 94560, Note_on_c, 4, 66, 55
7, 94560, Note_on_c, 4, 69, 55
7, 96420, Note_on_c, 4, 69, 0
7, 96420, Note_on_c, 4, 66, 0
7, 96480, Note_on_c, 4, 69, 74
7, 96480, Note_on_c, 4, 72, 74
7, 97440, Note_on_c, 4, 72, 0
7, 97440, Note_on_c, 4, 69, 0
7, 97440, Note_on_c, 4, 71, 55
7, 97440, Note_on_c, 4, 67, 55
7, 98400, Note_on_c, 4, 67, 0
7, 98400, Note_on_c, 4, 71, 0
7, 98400, Note_on_c, 4, 66, 55
7, 98400, Note_on_c, 4, 69, 55
7, 100260, Note_on_c, 4, 69, 0
7, 100320, Note_on_c, 4, 66, 0
7, 100320, Note_on_c, 4, 69, 55
7, 100320, Note_on_c, 4, 72, 55
7, 101280, Note_on_c, 4, 72, 0
7, 101280, Note_on_c, 4, 69, 0
7, 101280, Note_on_c, 4, 71, 55
7, 101280, Note_on_c, 4, 67, 55
7, 102240, Note_on_c, 4, 67, 0
7, 102240, Note_on_c, 4, 71, 0
7, 102240, Note_on_c, 4, 66, 55
7, 102240, Note_on_c, 4, 69, 55
7, 102780, Note_on_c, 4, 69, 0
7, 102780, Note_on_c, 4, 69, 55
7, 103080, Note_on_c, 4, 69, 0
7, 103080, Note_on_c, 4, 71, 55
7, 103200, Note_on_c, 4, 71, 0
7, 103200, Note_on_c, 4, 69, 55
7, 104160, Note_on_c, 4, 69, 0
7, 104160, Note_on_c, 4, 66, 0
7, 104160, Note_on_c, 4, 69, 55
7, 104160, Note_on_c, 4, 72, 55
7, 105120, Note_on_c, 4, 72, 0
7, 105120, Note_on_c, 4, 69, 0
7, 105120, Note_on_c, 4, 67, 55
7, 105120, Note_on_c, 4, 71, 55
7, 106080, Note_on_c, 4, 71, 0
7, 106080, Note_on_c, 4, 67, 0
7, 106080, Note_on_c, 4, 69, 55
7, 106080, Note_on_c, 4, 66, 55
7, 108000, Note_on_c, 4, 66, 0
7, 108000, Note_on_c, 4, 69, 0
7, 116220, Control_c, 4, 7, 35
7, 116535, Control_c, 4, 7, 34
7, 116785, Control_c, 4, 7, 33
7, 116990, Control_c, 4, 7, 32
7, 117459, Control_c, 4, 7, 31
7, 117650, Control_c, 4, 7, 30
7, 118055, Control_c, 4, 7, 29
7, 118435, Control_c, 4, 7, 28
7, 118833, Control_c, 4, 7, 27
7, 119074, Control_c, 4, 7, 26
7, 119385, Control_c, 4, 7, 25
7, 119895, Control_c, 4, 7, 24
7, 120190, Control_c, 4, 7, 23
7, 120445, Control_c, 4, 7, 22
7, 120815, Control_c, 4, 7, 21
7, 121010, Control_c, 4, 7, 20
7, 121495, Control_c, 4, 7, 19
7, 121875, Control_c, 4, 7, 18
7, 122166, Control_c, 4, 7, 17
7, 122477, Control_c, 4, 7, 16
7, 123068, Control_c, 4, 7, 15
7, 123113, Control_c, 4, 7, 14
7, 123780, Control_c, 4, 7, 13
7, 124081, Control_c, 4, 7, 12
7, 124402, Control_c, 4, 7, 11
7, 124760, Control_c, 4, 7, 10
7, 125240, Control_c, 4, 7, 9
7, 125495, Control_c, 4, 7, 8
7, 125925, Control_c, 4, 7, 7
7, 126181, Control_c, 4, 7, 6
7, 126800, Control_c, 4, 7, 5
7, 127055, Control_c, 4, 7, 4
7, 127615, Control_c, 4, 7, 3
7, 127842, Control_c, 4, 7, 2
7, 128406, Control_c, 4, 7, 1
7, 128585, Control_c, 4, 7, 0
7, 128585, End_track
8, 0, Start_track
8, 0, MIDI_port, 0
8, 0, Title_t, "JazzGtr"
8, 145, Control_c, 5, 0, 0
8, 146, Control_c, 5, 32, 0
8, 147, Program_c, 5, 26
8, 148, Control_c, 5, 7, 64
8, 148, Control_c, 5, 10, 50
8, 164, Control_c, 5, 91, 89
8, 8040, Control_c, 5, 93, 52
8, 8065, Control_c, 5, 93, 50
8, 8074, Control_c, 5, 93, 46
8, 8086, Control_c, 5, 93, 45
8, 8104, Control_c, 5, 93, 43
8, 8113, Control_c, 5, 93, 41
8, 8140, Control_c, 5, 93, 38
8, 8152, Control_c, 5, 93, 37
8, 8166, Control_c, 5, 93, 35
8, 8189, Control_c, 5, 93, 33
8, 8195, Control_c, 5, 93, 32
8, 8205, Control_c, 5, 93, 30
8, 8230, Control_c, 5, 93, 28
8, 8255, Control_c, 5, 93, 27
8, 8270, Control_c, 5, 93, 25
8, 8280, Control_c, 5, 93, 23
8, 8295, Control_c, 5, 93, 22
8, 8304, Control_c, 5, 93, 21
8, 8330, Control_c, 5, 93, 19
8, 8340, Control_c, 5, 93, 18
8, 8411, Control_c, 5, 93, 17
8, 8431, Control_c, 5, 93, 15
8, 8449, Control_c, 5, 93, 16
8, 8476, Control_c, 5, 93, 14
8, 8498, Control_c, 5, 93, 13
8, 8692, Control_c, 5, 93, 12
8, 34796, Note_on_c, 5, 57, 88
8, 34872, Pitch_bend_c, 5, 7834
8, 34872, Pitch_bend_c, 5, 7834
8, 34873, Pitch_bend_c, 5, 7834
8, 34881, Pitch_bend_c, 5, 7595
8, 34882, Pitch_bend_c, 5, 7595
8, 34882, Pitch_bend_c, 5, 7595
8, 34896, Pitch_bend_c, 5, 7118
8, 34896, Pitch_bend_c, 5, 7118
8, 34896, Pitch_bend_c, 5, 7118
8, 34905, Pitch_bend_c, 5, 6657
8, 34906, Pitch_bend_c, 5, 6657
8, 34906, Pitch_bend_c, 5, 6657
8, 34914, Pitch_bend_c, 5, 6315
8, 34915, Pitch_bend_c, 5, 6315
8, 34916, Pitch_bend_c, 5, 6315
8, 34928, Pitch_bend_c, 5, 5945
8, 34928, Pitch_bend_c, 5, 5945
8, 34929, Pitch_bend_c, 5, 5945
8, 34938, Pitch_bend_c, 5, 5647
8, 34939, Pitch_bend_c, 5, 5647
8, 34940, Pitch_bend_c, 5, 5647
8, 34948, Pitch_bend_c, 5, 5428
8, 34948, Pitch_bend_c, 5, 5428
8, 34949, Pitch_bend_c, 5, 5428
8, 34956, Pitch_bend_c, 5, 5070
8, 34957, Pitch_bend_c, 5, 5070
8, 34957, Pitch_bend_c, 5, 5070
8, 34966, Pitch_bend_c, 5, 4609
8, 34966, Pitch_bend_c, 5, 4609
8, 34967, Pitch_bend_c, 5, 4609
8, 34979, Pitch_bend_c, 5, 4267
8, 34980, Pitch_bend_c, 5, 4267
8, 34980, Pitch_bend_c, 5, 4267
8, 34990, Pitch_bend_c, 5, 3858
8, 34990, Pitch_bend_c, 5, 3858
8, 34990, Pitch_bend_c, 5, 3858
8, 34999, Pitch_bend_c, 5, 3499
8, 34999, Pitch_bend_c, 5, 3499
8, 35000, Pitch_bend_c, 5, 3499
8, 35008, Pitch_bend_c, 5, 3300
8, 35009, Pitch_bend_c, 5, 3300
8, 35009, Pitch_bend_c, 5, 3300
8, 35040, Note_on_c, 5, 62, 84
8, 35047, Pitch_bend_c, 5, 3738
8, 35047, Pitch_bend_c, 5, 3738
8, 35048, Pitch_bend_c, 5, 3738
8, 35051, Pitch_bend_c, 5, 4950
8, 35052, Pitch_bend_c, 5, 4950
8, 35055, Note_on_c, 5, 57, 0
8, 35055, Pitch_bend_c, 5, 4950
8, 35056, Pitch_bend_c, 5, 5846
8, 35056, Pitch_bend_c, 5, 5846
8, 35056, Pitch_bend_c, 5, 5846
8, 35060, Pitch_bend_c, 5, 6828
8, 35061, Pitch_bend_c, 5, 6828
8, 35061, Pitch_bend_c, 5, 6828
8, 35064, Pitch_bend_c, 5, 7954
8, 35065, Pitch_bend_c, 5, 7954
8, 35066, Pitch_bend_c, 5, 7954
8, 35070, Pitch_bend_c, 5, 8192
8, 35070, Pitch_bend_c, 5, 8192
8, 35071, Pitch_bend_c, 5, 8192
8, 35083, Pitch_bend_c, 5, 8738
8, 35084, Pitch_bend_c, 5, 8738
8, 35084, Pitch_bend_c, 5, 8738
8, 35088, Pitch_bend_c, 5, 9011
8, 35088, Pitch_bend_c, 5, 9011
8, 35089, Pitch_bend_c, 5, 9011
8, 35092, Pitch_bend_c, 5, 9421
8, 35093, Pitch_bend_c, 5, 9421
8, 35093, Pitch_bend_c, 5, 9421
8, 35102, Pitch_bend_c, 5, 9830
8, 35102, Pitch_bend_c, 5, 9830
8, 35103, Pitch_bend_c, 5, 9830
8, 35112, Pitch_bend_c, 5, 10240
8, 35112, Pitch_bend_c, 5, 10240
8, 35113, Pitch_bend_c, 5, 10240
8, 35125, Pitch_bend_c, 5, 10581
8, 35126, Pitch_bend_c, 5, 10581
8, 35173, Pitch_bend_c, 5, 10581
8, 35173, Pitch_bend_c, 5, 10809
8, 35174, Pitch_bend_c, 5, 10809
8, 35175, Pitch_bend_c, 5, 10809
8, 35183, Pitch_bend_c, 5, 11196
8, 35183, Pitch_bend_c, 5, 11196
8, 35184, Pitch_bend_c, 5, 11196
8, 35200, Pitch_bend_c, 5, 11469
8, 35200, Pitch_bend_c, 5, 11469
8, 35201, Pitch_bend_c, 5, 11469
8, 35219, Pitch_bend_c, 5, 11878
8, 35220, Pitch_bend_c, 5, 11878
8, 35220, Pitch_bend_c, 5, 11878
8, 35229, Pitch_bend_c, 5, 12288
8, 35229, Pitch_bend_c, 5, 12288
8, 35230, Pitch_bend_c, 5, 12288
8, 35239, Pitch_bend_c, 5, 12697
8, 35240, Pitch_bend_c, 5, 12697
8, 35240, Pitch_bend_c, 5, 12697
8, 35253, Pitch_bend_c, 5, 13198
8, 35253, Pitch_bend_c, 5, 13198
8, 35254, Pitch_bend_c, 5, 13198
8, 35262, Pitch_bend_c, 5, 13426
8, 35263, Pitch_bend_c, 5, 13426
8, 35263, Pitch_bend_c, 5, 13426
8, 35272, Pitch_bend_c, 5, 13790
8, 35272, Pitch_bend_c, 5, 13790
8, 35273, Pitch_bend_c, 5, 13790
8, 35280, Pitch_bend_c, 5, 14199
8, 35282, Pitch_bend_c, 5, 14199
8, 35282, Pitch_bend_c, 5, 14199
8, 35289, Pitch_bend_c, 5, 14609
8, 35290, Pitch_bend_c, 5, 14609
8, 35300, Pitch_bend_c, 5, 14609
8, 35300, Pitch_bend_c, 5, 15019
8, 35301, Pitch_bend_c, 5, 15019
8, 35301, Pitch_bend_c, 5, 15019
8, 35313, Pitch_bend_c, 5, 15428
8, 35314, Pitch_bend_c, 5, 15428
8, 35329, Pitch_bend_c, 5, 15428
8, 35329, Pitch_bend_c, 5, 15815
8, 35329, Pitch_bend_c, 5, 15815
8, 35330, Pitch_bend_c, 5, 15815
8, 35342, Pitch_bend_c, 5, 16042
8, 35343, Pitch_bend_c, 5, 16042
8, 35343, Pitch_bend_c, 5, 16042
8, 35356, Pitch_bend_c, 5, 16269
8, 35356, Pitch_bend_c, 5, 16269
8, 35394, Pitch_bend_c, 5, 16269
8, 35394, Pitch_bend_c, 5, 16383
8, 35394, Pitch_bend_c, 5, 16383
8, 35395, Pitch_bend_c, 5, 16383
8, 36146, Pitch_bend_c, 5, 16156
8, 36147, Pitch_bend_c, 5, 16156
8, 36148, Pitch_bend_c, 5, 16156
8, 36154, Pitch_bend_c, 5, 15929
8, 36154, Pitch_bend_c, 5, 15929
8, 36155, Pitch_bend_c, 5, 15929
8, 36160, Pitch_bend_c, 5, 15565
8, 36160, Pitch_bend_c, 5, 15565
8, 36161, Pitch_bend_c, 5, 15565
8, 36167, Pitch_bend_c, 5, 15019
8, 36168, Pitch_bend_c, 5, 15019
8, 36168, Pitch_bend_c, 5, 15019
8, 36174, Pitch_bend_c, 5, 14745
8, 36174, Pitch_bend_c, 5, 14745
8, 36175, Pitch_bend_c, 5, 14745
8, 36178, Pitch_bend_c, 5, 14199
8, 36179, Pitch_bend_c, 5, 14199
8, 36179, Pitch_bend_c, 5, 14199
8, 36182, Pitch_bend_c, 5, 13790
8, 36182, Pitch_bend_c, 5, 13790
8, 36183, Pitch_bend_c, 5, 13790
8, 36188, Pitch_bend_c, 5, 13312
8, 36188, Pitch_bend_c, 5, 13312
8, 36189, Pitch_bend_c, 5, 13312
8, 36192, Pitch_bend_c, 5, 12971
8, 36193, Pitch_bend_c, 5, 12971
8, 36193, Pitch_bend_c, 5, 12971
8, 36196, Pitch_bend_c, 5, 12288
8, 36196, Pitch_bend_c, 5, 12288
8, 36197, Pitch_bend_c, 5, 12288
8, 36202, Pitch_bend_c, 5, 11606
8, 36203, Pitch_bend_c, 5, 11606
8, 36203, Pitch_bend_c, 5, 11606
8, 36207, Pitch_bend_c, 5, 11059
8, 36207, Pitch_bend_c, 5, 11059
8, 36208, Pitch_bend_c, 5, 11059
8, 36211, Pitch_bend_c, 5, 10581
8, 36211, Pitch_bend_c, 5, 10581
8, 36211, Pitch_bend_c, 5, 10581
8, 36216, Pitch_bend_c, 5, 9558
8, 36217, Pitch_bend_c, 5, 9558
8, 36217, Pitch_bend_c, 5, 9558
8, 36221, Pitch_bend_c, 5, 8192
8, 36221, Pitch_bend_c, 5, 8192
8, 36222, Pitch_bend_c, 5, 8192
8, 36228, Note_on_c, 5, 60, 59
8, 36237, Note_on_c, 5, 62, 0
8, 36566, Control_c, 5, 93, 53
8, 36591, Control_c, 5, 93, 51
8, 36605, Control_c, 5, 93, 48
8, 36622, Note_on_c, 5, 59, 70
8, 36627, Control_c, 5, 93, 47
8, 36633, Note_on_c, 5, 60, 0
8, 36638, Control_c, 5, 93, 45
8, 36650, Control_c, 5, 93, 40
8, 36666, Control_c, 5, 93, 35
8, 36676, Control_c, 5, 93, 31
8, 36691, Control_c, 5, 93, 26
8, 36701, Control_c, 5, 93, 24
8, 36711, Control_c, 5, 93, 22
8, 36726, Control_c, 5, 93, 19
8, 36735, Control_c, 5, 93, 16
8, 36750, Control_c, 5, 93, 12
8, 36760, Control_c, 5, 93, 11
8, 36775, Control_c, 5, 93, 8
8, 36797, Control_c, 5, 93, 7
8, 36807, Control_c, 5, 93, 6
8, 36814, Note_on_c, 5, 57, 72
8, 36824, Control_c, 5, 93, 5
8, 36836, Note_on_c, 5, 59, 0
8, 36836, Control_c, 5, 93, 3
8, 36846, Control_c, 5, 93, 2
8, 36860, Control_c, 5, 93, 0
8, 36925, Control_c, 5, 1, 80
8, 37528, Control_c, 5, 1, 2
8, 37561, Note_on_c, 5, 50, 65
8, 37594, Note_on_c, 5, 57, 0
8, 37681, Note_on_c, 5, 54, 79
8, 37721, Note_on_c, 5, 50, 0
8, 37800, Note_on_c, 5, 55, 69
8, 37832, Note_on_c, 5, 54, 0
8, 37920, Note_on_c, 5, 55, 0
8, 37920, Note_on_c, 5, 54, 78
8, 37998, Control_c, 5, 1, 77
8, 38441, Note_on_c, 5, 54, 0
8, 38475, Control_c, 5, 1, 1
8, 38640, Note_on_c, 5, 57, 74
8, 38723, Pitch_bend_c, 5, 7595
8, 38724, Pitch_bend_c, 5, 7595
8, 38724, Pitch_bend_c, 5, 7595
8, 38730, Pitch_bend_c, 5, 7357
8, 38730, Pitch_bend_c, 5, 7357
8, 38731, Pitch_bend_c, 5, 7357
8, 38733, Pitch_bend_c, 5, 6828
8, 38734, Pitch_bend_c, 5, 6828
8, 38734, Pitch_bend_c, 5, 6828
8, 38738, Pitch_bend_c, 5, 6486
8, 38738, Pitch_bend_c, 5, 6486
8, 38739, Pitch_bend_c, 5, 6486
8, 38748, Pitch_bend_c, 5, 5846
8, 38749, Pitch_bend_c, 5, 5846
8, 38749, Pitch_bend_c, 5, 5846
8, 38757, Pitch_bend_c, 5, 5547
8, 38758, Pitch_bend_c, 5, 5547
8, 38758, Pitch_bend_c, 5, 5547
8, 38765, Pitch_bend_c, 5, 5189
8, 38765, Pitch_bend_c, 5, 5189
8, 38766, Pitch_bend_c, 5, 5189
8, 38775, Pitch_bend_c, 5, 4780
8, 38776, Pitch_bend_c, 5, 4780
8, 38776, Pitch_bend_c, 5, 4780
8, 38785, Pitch_bend_c, 5, 4267
8, 38785, Pitch_bend_c, 5, 4267
8, 38785, Pitch_bend_c, 5, 4267
8, 38795, Pitch_bend_c, 5, 3858
8, 38796, Pitch_bend_c, 5, 3858
8, 38796, Pitch_bend_c, 5, 3858
8, 38804, Pitch_bend_c, 5, 3499
8, 38805, Pitch_bend_c, 5, 3499
8, 38805, Pitch_bend_c, 5, 3499
8, 38812, Pitch_bend_c, 5, 3101
8, 38812, Pitch_bend_c, 5, 3101
8, 38813, Pitch_bend_c, 5, 3101
8, 38822, Pitch_bend_c, 5, 2732
8, 38823, Pitch_bend_c, 5, 2732
8, 38824, Pitch_bend_c, 5, 2732
8, 38832, Pitch_bend_c, 5, 2048
8, 38832, Pitch_bend_c, 5, 2048
8, 38833, Pitch_bend_c, 5, 2048
8, 38842, Pitch_bend_c, 5, 1690
8, 38843, Pitch_bend_c, 5, 1690
8, 38843, Pitch_bend_c, 5, 1690
8, 38852, Pitch_bend_c, 5, 1332
8, 38852, Pitch_bend_c, 5, 1332
8, 38852, Pitch_bend_c, 5, 1332
8, 38865, Pitch_bend_c, 5, 974
8, 38865, Pitch_bend_c, 5, 974
8, 38866, Pitch_bend_c, 5, 974
8, 38878, Note_on_c, 5, 57, 0
8, 38880, Note_on_c, 5, 62, 83
8, 38888, Pitch_bend_c, 5, 1690
8, 38889, Pitch_bend_c, 5, 1690
8, 38889, Pitch_bend_c, 5, 1690
8, 38892, Pitch_bend_c, 5, 2561
8, 38893, Pitch_bend_c, 5, 2561
8, 38894, Pitch_bend_c, 5, 2561
8, 38899, Pitch_bend_c, 5, 3499
8, 38900, Pitch_bend_c, 5, 3499
8, 38900, Pitch_bend_c, 5, 3499
8, 38904, Pitch_bend_c, 5, 5428
8, 38904, Pitch_bend_c, 5, 5428
8, 38905, Pitch_bend_c, 5, 5428
8, 38907, Pitch_bend_c, 5, 8192
8, 38908, Pitch_bend_c, 5, 8192
8, 38908, Pitch_bend_c, 5, 8192
8, 38911, Pitch_bend_c, 5, 8601
8, 38912, Pitch_bend_c, 5, 8601
8, 38912, Pitch_bend_c, 5, 8601
8, 38916, Pitch_bend_c, 5, 8192
8, 38916, Pitch_bend_c, 5, 8192
8, 38917, Pitch_bend_c, 5, 8192
8, 39001, Pitch_bend_c, 5, 8465
8, 39001, Pitch_bend_c, 5, 8465
8, 39002, Pitch_bend_c, 5, 8465
8, 39020, Pitch_bend_c, 5, 9011
8, 39020, Pitch_bend_c, 5, 9011
8, 39021, Pitch_bend_c, 5, 9011
8, 39030, Pitch_bend_c, 5, 9558
8, 39031, Pitch_bend_c, 5, 9558
8, 39031, Pitch_bend_c, 5, 9558
8, 39038, Pitch_bend_c, 5, 9830
8, 39038, Pitch_bend_c, 5, 9830
8, 39039, Pitch_bend_c, 5, 9830
8, 39062, Pitch_bend_c, 5, 10240
8, 39063, Pitch_bend_c, 5, 10240
8, 39064, Pitch_bend_c, 5, 10240
8, 39080, Pitch_bend_c, 5, 10581
8, 39080, Pitch_bend_c, 5, 10581
8, 39081, Pitch_bend_c, 5, 10581
8, 39090, Pitch_bend_c, 5, 11059
8, 39091, Pitch_bend_c, 5, 11059
8, 39092, Pitch_bend_c, 5, 11059
8, 39100, Pitch_bend_c, 5, 11742
8, 39100, Pitch_bend_c, 5, 11742
8, 39101, Pitch_bend_c, 5, 11742
8, 39110, Pitch_bend_c, 5, 12424
8, 39110, Pitch_bend_c, 5, 12424
8, 39110, Pitch_bend_c, 5, 12424
8, 39119, Pitch_bend_c, 5, 12834
8, 39120, Pitch_bend_c, 5, 12834
8, 39122, Pitch_bend_c, 5, 12834
8, 39133, Pitch_bend_c, 5, 13198
8, 39133, Pitch_bend_c, 5, 13198
8, 39134, Pitch_bend_c, 5, 13198
8, 39142, Pitch_bend_c, 5, 13790
8, 39143, Pitch_bend_c, 5, 13790
8, 39143, Pitch_bend_c, 5, 13790
8, 39151, Pitch_bend_c, 5, 14199
8, 39151, Pitch_bend_c, 5, 14199
8, 39152, Pitch_bend_c, 5, 14199
8, 39156, Pitch_bend_c, 5, 14609
8, 39157, Pitch_bend_c, 5, 14609
8, 39158, Pitch_bend_c, 5, 14609
8, 39167, Pitch_bend_c, 5, 15019
8, 39167, Pitch_bend_c, 5, 15019
8, 39167, Pitch_bend_c, 5, 15019
8, 39208, Pitch_bend_c, 5, 15292
8, 39209, Pitch_bend_c, 5, 15292
8, 39210, Pitch_bend_c, 5, 15292
8, 39217, Pitch_bend_c, 5, 15702
8, 39217, Pitch_bend_c, 5, 15702
8, 39218, Pitch_bend_c, 5, 15702
8, 39226, Pitch_bend_c, 5, 16042
8, 39227, Pitch_bend_c, 5, 16042
8, 39227, Pitch_bend_c, 5, 16042
8, 39232, Pitch_bend_c, 5, 16383
8, 39233, Pitch_bend_c, 5, 16383
8, 39233, Pitch_bend_c, 5, 16383
8, 39752, Pitch_bend_c, 5, 16269
8, 39752, Pitch_bend_c, 5, 16269
8, 39753, Pitch_bend_c, 5, 16269
8, 39758, Pitch_bend_c, 5, 15929
8, 39759, Pitch_bend_c, 5, 15929
8, 39759, Pitch_bend_c, 5, 15929
8, 39767, Pitch_bend_c, 5, 15565
8, 39767, Pitch_bend_c, 5, 15565
8, 39767, Pitch_bend_c, 5, 15565
8, 39776, Pitch_bend_c, 5, 15019
8, 39776, Pitch_bend_c, 5, 15019
8, 39777, Pitch_bend_c, 5, 15019
8, 39785, Pitch_bend_c, 5, 14609
8, 39786, Pitch_bend_c, 5, 14609
8, 39786, Pitch_bend_c, 5, 14609
8, 39790, Pitch_bend_c, 5, 14199
8, 39790, Pitch_bend_c, 5, 14199
8, 39790, Pitch_bend_c, 5, 14199
8, 39799, Pitch_bend_c, 5, 13926
8, 39800, Pitch_bend_c, 5, 13926
8, 39801, Pitch_bend_c, 5, 13926
8, 39810, Pitch_bend_c, 5, 13426
8, 39810, Pitch_bend_c, 5, 13426
8, 39814, Pitch_bend_c, 5, 13426
8, 39819, Pitch_bend_c, 5, 13198
8, 39819, Pitch_bend_c, 5, 13198
8, 39820, Pitch_bend_c, 5, 13198
8, 39832, Pitch_bend_c, 5, 12834
8, 39833, Pitch_bend_c, 5, 12834
8, 39833, Pitch_bend_c, 5, 12834
8, 39846, Pitch_bend_c, 5, 12424
8, 39846, Pitch_bend_c, 5, 12424
8, 39847, Pitch_bend_c, 5, 12424
8, 39860, Pitch_bend_c, 5, 11878
8, 39861, Pitch_bend_c, 5, 11878
8, 39861, Pitch_bend_c, 5, 11878
8, 39876, Pitch_bend_c, 5, 11469
8, 39876, Pitch_bend_c, 5, 11469
8, 39877, Pitch_bend_c, 5, 11469
8, 39883, Pitch_bend_c, 5, 11196
8, 39884, Pitch_bend_c, 5, 11196
8, 39884, Pitch_bend_c, 5, 11196
8, 39893, Pitch_bend_c, 5, 10695
8, 39893, Pitch_bend_c, 5, 10695
8, 39894, Pitch_bend_c, 5, 10695
8, 39903, Pitch_bend_c, 5, 10353
8, 39903, Pitch_bend_c, 5, 10353
8, 39904, Pitch_bend_c, 5, 10353
8, 39912, Pitch_bend_c, 5, 9830
8, 39913, Pitch_bend_c, 5, 9830
8, 39913, Pitch_bend_c, 5, 9830
8, 39923, Pitch_bend_c, 5, 9558
8, 39923, Pitch_bend_c, 5, 9558
8, 39924, Pitch_bend_c, 5, 9558
8, 39930, Pitch_bend_c, 5, 9011
8, 39931, Pitch_bend_c, 5, 9011
8, 39932, Pitch_bend_c, 5, 9011
8, 39940, Pitch_bend_c, 5, 8601
8, 39940, Pitch_bend_c, 5, 8601
8, 39941, Pitch_bend_c, 5, 8601
8, 39950, Pitch_bend_c, 5, 8192
8, 39950, Pitch_bend_c, 5, 8192
8, 39951, Pitch_bend_c, 5, 8192
8, 40168, Note_on_c, 5, 62, 0
8, 40181, Note_on_c, 5, 60, 64
8, 40494, Note_on_c, 5, 59, 66
8, 40503, Note_on_c, 5, 60, 0
8, 40682, Note_on_c, 5, 57, 74
8, 40702, Note_on_c, 5, 59, 0
8, 41400, Note_on_c, 5, 50, 83
8, 41520, Note_on_c, 5, 50, 0
8, 41520, Note_on_c, 5, 54, 83
8, 41546, Note_on_c, 5, 57, 0
8, 41667, Note_on_c, 5, 54, 0
8, 41667, Note_on_c, 5, 55, 72
8, 41780, Note_on_c, 5, 54, 74
8, 41790, Note_on_c, 5, 55, 0
8, 41864, Control_c, 5, 1, 76
8, 42295, Pitch_bend_c, 5, 7834
8, 42295, Pitch_bend_c, 5, 7834
8, 42296, Pitch_bend_c, 5, 7834
8, 42299, Pitch_bend_c, 5, 7595
8, 42300, Pitch_bend_c, 5, 7595
8, 42300, Pitch_bend_c, 5, 7595
8, 42308, Pitch_bend_c, 5, 7118
8, 42309, Pitch_bend_c, 5, 7118
8, 42309, Pitch_bend_c, 5, 7118
8, 42336, Pitch_bend_c, 5, 7715
8, 42336, Pitch_bend_c, 5, 7715
8, 42336, Pitch_bend_c, 5, 7715
8, 42341, Pitch_bend_c, 5, 8192
8, 42342, Pitch_bend_c, 5, 8192
8, 42342, Pitch_bend_c, 5, 8192
8, 42561, Control_c, 5, 1, 0
8, 42572, Note_on_c, 5, 54, 0
8, 49075, Note_on_c, 5, 50, 88
8, 49192, Note_on_c, 5, 54, 79
8, 49203, Note_on_c, 5, 50, 0
8, 49316, Note_on_c, 5, 55, 81
8, 49325, Note_on_c, 5, 54, 0
8, 49438, Note_on_c, 5, 54, 79
8, 49467, Note_on_c, 5, 55, 0
8, 49594, Control_c, 5, 1, 73
8, 49778, Pitch_bend_c, 5, 7715
8, 49779, Pitch_bend_c, 5, 7715
8, 49779, Pitch_bend_c, 5, 7715
8, 49789, Pitch_bend_c, 5, 7476
8, 49789, Pitch_bend_c, 5, 7476
8, 49789, Pitch_bend_c, 5, 7476
8, 49799, Pitch_bend_c, 5, 7118
8, 49799, Pitch_bend_c, 5, 7118
8, 49799, Pitch_bend_c, 5, 7118
8, 49816, Pitch_bend_c, 5, 6657
8, 49817, Pitch_bend_c, 5, 6657
8, 49817, Pitch_bend_c, 5, 6657
8, 49842, Pitch_bend_c, 5, 6315
8, 49842, Pitch_bend_c, 5, 6315
8, 49843, Pitch_bend_c, 5, 6315
8, 49850, Pitch_bend_c, 5, 5945
8, 49851, Pitch_bend_c, 5, 5945
8, 49851, Pitch_bend_c, 5, 5945
8, 49861, Pitch_bend_c, 5, 5647
8, 49861, Pitch_bend_c, 5, 5647
8, 49861, Pitch_bend_c, 5, 5647
8, 49870, Pitch_bend_c, 5, 5428
8, 49871, Pitch_bend_c, 5, 5428
8, 49871, Pitch_bend_c, 5, 5428
8, 49920, Pitch_bend_c, 5, 5189
8, 49920, Pitch_bend_c, 5, 5189
8, 49921, Pitch_bend_c, 5, 5189
8, 49962, Pitch_bend_c, 5, 4780
8, 49963, Pitch_bend_c, 5, 4780
8, 49963, Pitch_bend_c, 5, 4780
8, 49977, Pitch_bend_c, 5, 4438
8, 49977, Pitch_bend_c, 5, 4438
8, 49978, Pitch_bend_c, 5, 4438
8, 49986, Pitch_bend_c, 5, 3858
8, 49987, Pitch_bend_c, 5, 3858
8, 49988, Pitch_bend_c, 5, 3858
8, 50026, Pitch_bend_c, 5, 3499
8, 50026, Pitch_bend_c, 5, 3499
8, 50026, Pitch_bend_c, 5, 3499
8, 50041, Pitch_bend_c, 5, 3300
8, 50041, Pitch_bend_c, 5, 3300
8, 50041, Pitch_bend_c, 5, 3300
8, 50060, Pitch_bend_c, 5, 3002
8, 50060, Pitch_bend_c, 5, 3002
8, 50061, Pitch_bend_c, 5, 3002
8, 50116, Pitch_bend_c, 5, 2561
8, 50117, Pitch_bend_c, 5, 2561
8, 50118, Pitch_bend_c, 5, 2561
8, 50171, Pitch_bend_c, 5, 3002
8, 50171, Pitch_bend_c, 5, 3002
8, 50172, Pitch_bend_c, 5, 3002
8, 50176, Pitch_bend_c, 5, 3499
8, 50176, Pitch_bend_c, 5, 3499
8, 50176, Pitch_bend_c, 5, 3499
8, 50180, Pitch_bend_c, 5, 3858
8, 50180, Pitch_bend_c, 5, 3858
8, 50181, Pitch_bend_c, 5, 3858
8, 50182, Note_on_c, 5, 54, 0
8, 50184, Pitch_bend_c, 5, 4609
8, 50185, Pitch_bend_c, 5, 4609
8, 50186, Pitch_bend_c, 5, 4609
8, 50191, Pitch_bend_c, 5, 5309
8, 50191, Pitch_bend_c, 5, 5309
8, 50192, Pitch_bend_c, 5, 5309
8, 50194, Control_c, 5, 1, 1
8, 50194, Pitch_bend_c, 5, 6045
8, 50195, Pitch_bend_c, 5, 6045
8, 50195, Pitch_bend_c, 5, 6045
8, 50199, Pitch_bend_c, 5, 7595
8, 50199, Pitch_bend_c, 5, 7595
8, 50200, Pitch_bend_c, 5, 7595
8, 50205, Pitch_bend_c, 5, 8192
8, 50205, Pitch_bend_c, 5, 8192
8, 50206, Pitch_bend_c, 5, 8192
8, 53649, Note_on_c, 5, 55, 88
8, 53772, Note_on_c, 5, 54, 90
8, 53779, Note_on_c, 5, 55, 0
8, 53884, Note_on_c, 5, 50, 68
8, 53906, Note_on_c, 5, 54, 0
8, 53985, Control_c, 5, 1, 76
8, 54588, Control_c, 5, 1, 2
8, 54604, Note_on_c, 5, 50, 0
8, 56406, Note_on_c, 5, 50, 53
8, 56454, Note_on_c, 5, 50, 0
8, 56769, Note_on_c, 5, 54, 119
8, 56772, Note_on_c, 5, 50, 53
8, 56801, Note_on_c, 5, 50, 0
8, 56806, Note_on_c, 5, 54, 0
8, 57129, Note_on_c, 5, 50, 77
8, 57134, Note_on_c, 5, 54, 92
8, 57187, Note_on_c, 5, 54, 0
8, 57189, Note_on_c, 5, 50, 0
8, 57244, Note_on_c, 5, 55, 74
8, 57248, Note_on_c, 5, 50, 73
8, 57301, Note_on_c, 5, 55, 0
8, 57317, Note_on_c, 5, 50, 0
8, 57453, Note_on_c, 5, 54, 84
8, 57457, Note_on_c, 5, 50, 84
8, 57654, Pitch_bend_c, 5, 8073
8, 57655, Pitch_bend_c, 5, 8073
8, 57656, Pitch_bend_c, 5, 8073
8, 57674, Pitch_bend_c, 5, 7595
8, 57674, Pitch_bend_c, 5, 7595
8, 57675, Pitch_bend_c, 5, 7595
8, 57694, Pitch_bend_c, 5, 7357
8, 57695, Pitch_bend_c, 5, 7357
8, 57695, Pitch_bend_c, 5, 7357
8, 57726, Pitch_bend_c, 5, 6998
8, 57727, Pitch_bend_c, 5, 6998
8, 57727, Pitch_bend_c, 5, 6998
8, 57737, Pitch_bend_c, 5, 6486
8, 57737, Pitch_bend_c, 5, 6486
8, 57738, Pitch_bend_c, 5, 6486
8, 57747, Pitch_bend_c, 5, 6045
8, 57748, Pitch_bend_c, 5, 6045
8, 57749, Pitch_bend_c, 5, 6045
8, 57756, Pitch_bend_c, 5, 5746
8, 57756, Pitch_bend_c, 5, 5746
8, 57756, Pitch_bend_c, 5, 5746
8, 57810, Pitch_bend_c, 5, 5547
8, 57810, Pitch_bend_c, 5, 5547
8, 57811, Pitch_bend_c, 5, 5547
8, 57852, Pitch_bend_c, 5, 5309
8, 57853, Pitch_bend_c, 5, 5309
8, 57853, Pitch_bend_c, 5, 5309
8, 57882, Pitch_bend_c, 5, 4950
8, 57882, Pitch_bend_c, 5, 4950
8, 57883, Pitch_bend_c, 5, 4950
8, 57906, Pitch_bend_c, 5, 5309
8, 57907, Pitch_bend_c, 5, 5309
8, 57907, Pitch_bend_c, 5, 5309
8, 57949, Pitch_bend_c, 5, 5547
8, 57949, Pitch_bend_c, 5, 5547
8, 57950, Pitch_bend_c, 5, 5547
8, 57959, Pitch_bend_c, 5, 5846
8, 57960, Pitch_bend_c, 5, 5846
8, 57960, Pitch_bend_c, 5, 5846
8, 57963, Pitch_bend_c, 5, 6144
8, 57964, Pitch_bend_c, 5, 6144
8, 57964, Pitch_bend_c, 5, 6144
8, 57969, Pitch_bend_c, 5, 6486
8, 57969, Pitch_bend_c, 5, 6486
8, 57970, Pitch_bend_c, 5, 6486
8, 57979, Pitch_bend_c, 5, 7118
8, 57980, Pitch_bend_c, 5, 7118
8, 57981, Pitch_bend_c, 5, 7118
8, 57988, Pitch_bend_c, 5, 7595
8, 57988, Pitch_bend_c, 5, 7595
8, 57988, Pitch_bend_c, 5, 7595
8, 57998, Pitch_bend_c, 5, 7954
8, 57998, Pitch_bend_c, 5, 7954
8, 57998, Pitch_bend_c, 5, 7954
8, 58017, Pitch_bend_c, 5, 8192
8, 58018, Pitch_bend_c, 5, 8192
8, 58018, Pitch_bend_c, 5, 8192
8, 58088, Note_on_c, 5, 50, 0
8, 58088, Note_on_c, 5, 54, 0
8, 60604, Note_on_c, 5, 50, 73
8, 60714, Note_on_c, 5, 54, 72
8, 60740, Note_on_c, 5, 50, 0
8, 60836, Note_on_c, 5, 55, 71
8, 60840, Note_on_c, 5, 54, 0
8, 60958, Note_on_c, 5, 54, 70
8, 60998, Note_on_c, 5, 55, 0
8, 61062, Control_c, 5, 1, 77
8, 61616, Control_c, 5, 1, 1
8, 61639, Note_on_c, 5, 54, 0
8, 61676, Note_on_c, 5, 57, 88
8, 61752, Pitch_bend_c, 5, 7834
8, 61752, Pitch_bend_c, 5, 7834
8, 61753, Pitch_bend_c, 5, 7834
8, 61761, Pitch_bend_c, 5, 7595
8, 61762, Pitch_bend_c, 5, 7595
8, 61762, Pitch_bend_c, 5, 7595
8, 61776, Pitch_bend_c, 5, 7118
8, 61776, Pitch_bend_c, 5, 7118
8, 61776, Pitch_bend_c, 5, 7118
8, 61785, Pitch_bend_c, 5, 6657
8, 61786, Pitch_bend_c, 5, 6657
8, 61786, Pitch_bend_c, 5, 6657
8, 61794, Pitch_bend_c, 5, 6315
8, 61795, Pitch_bend_c, 5, 6315
8, 61796, Pitch_bend_c, 5, 6315
8, 61808, Pitch_bend_c, 5, 5945
8, 61808, Pitch_bend_c, 5, 5945
8, 61809, Pitch_bend_c, 5, 5945
8, 61818, Pitch_bend_c, 5, 5647
8, 61819, Pitch_bend_c, 5, 5647
8, 61820, Pitch_bend_c, 5, 5647
8, 61828, Pitch_bend_c, 5, 5428
8, 61828, Pitch_bend_c, 5, 5428
8, 61829, Pitch_bend_c, 5, 5428
8, 61836, Pitch_bend_c, 5, 5070
8, 61837, Pitch_bend_c, 5, 5070
8, 61837, Pitch_bend_c, 5, 5070
8, 61846, Pitch_bend_c, 5, 4609
8, 61846, Pitch_bend_c, 5, 4609
8, 61847, Pitch_bend_c, 5, 4609
8, 61859, Pitch_bend_c, 5, 4267
8, 61860, Pitch_bend_c, 5, 4267
8, 61860, Pitch_bend_c, 5, 4267
8, 61870, Pitch_bend_c, 5, 3858
8, 61870, Pitch_bend_c, 5, 3858
8, 61870, Pitch_bend_c, 5, 3858
8, 61879, Pitch_bend_c, 5, 3499
8, 61879, Pitch_bend_c, 5, 3499
8, 61880, Pitch_bend_c, 5, 3499
8, 61888, Pitch_bend_c, 5, 3300
8, 61889, Pitch_bend_c, 5, 3300
8, 61889, Pitch_bend_c, 5, 3300
8, 61920, Note_on_c, 5, 62, 84
8, 61927, Pitch_bend_c, 5, 3738
8, 61927, Pitch_bend_c, 5, 3738
8, 61928, Pitch_bend_c, 5, 3738
8, 61931, Pitch_bend_c, 5, 4950
8, 61932, Pitch_bend_c, 5, 4950
8, 61935, Note_on_c, 5, 57, 0
8, 61935, Pitch_bend_c, 5, 4950
8, 61936, Pitch_bend_c, 5, 5846
8, 61936, Pitch_bend_c, 5, 5846
8, 61936, Pitch_bend_c, 5, 5846
8, 61940, Pitch_bend_c, 5, 6828
8, 61941, Pitch_bend_c, 5, 6828
8, 61941, Pitch_bend_c, 5, 6828
8, 61944, Pitch_bend_c, 5, 7954
8, 61945, Pitch_bend_c, 5, 7954
8, 61946, Pitch_bend_c, 5, 7954
8, 61950, Pitch_bend_c, 5, 8192
8, 61950, Pitch_bend_c, 5, 8192
8, 61951, Pitch_bend_c, 5, 8192
8, 61963, Pitch_bend_c, 5, 8738
8, 61964, Pitch_bend_c, 5, 8738
8, 61964, Pitch_bend_c, 5, 8738
8, 61968, Pitch_bend_c, 5, 9011
8, 61968, Pitch_bend_c, 5, 9011
8, 61969, Pitch_bend_c, 5, 9011
8, 61972, Pitch_bend_c, 5, 9421
8, 61973, Pitch_bend_c, 5, 9421
8, 61973, Pitch_bend_c, 5, 9421
8, 61982, Pitch_bend_c, 5, 9830
8, 61982, Pitch_bend_c, 5, 9830
8, 61983, Pitch_bend_c, 5, 9830
8, 61992, Pitch_bend_c, 5, 10240
8, 61992, Pitch_bend_c, 5, 10240
8, 61993, Pitch_bend_c, 5, 10240
8, 62005, Pitch_bend_c, 5, 10581
8, 62006, Pitch_bend_c, 5, 10581
8, 62053, Pitch_bend_c, 5, 10581
8, 62053, Pitch_bend_c, 5, 10809
8, 62054, Pitch_bend_c, 5, 10809
8, 62055, Pitch_bend_c, 5, 10809
8, 62063, Pitch_bend_c, 5, 11196
8, 62063, Pitch_bend_c, 5, 11196
8, 62064, Pitch_bend_c, 5, 11196
8, 62080, Pitch_bend_c, 5, 11469
8, 62080, Pitch_bend_c, 5, 11469
8, 62081, Pitch_bend_c, 5, 11469
8, 62099, Pitch_bend_c, 5, 11878
8, 62100, Pitch_bend_c, 5, 11878
8, 62100, Pitch_bend_c, 5, 11878
8, 62109, Pitch_bend_c, 5, 12288
8, 62109, Pitch_bend_c, 5, 12288
8, 62110, Pitch_bend_c, 5, 12288
8, 62119, Pitch_bend_c, 5, 12697
8, 62120, Pitch_bend_c, 5, 12697
8, 62120, Pitch_bend_c, 5, 12697
8, 62133, Pitch_bend_c, 5, 13198
8, 62133, Pitch_bend_c, 5, 13198
8, 62134, Pitch_bend_c, 5, 13198
8, 62142, Pitch_bend_c, 5, 13426
8, 62143, Pitch_bend_c, 5, 13426
8, 62143, Pitch_bend_c, 5, 13426
8, 62152, Pitch_bend_c, 5, 13790
8, 62152, Pitch_bend_c, 5, 13790
8, 62153, Pitch_bend_c, 5, 13790
8, 62160, Pitch_bend_c, 5, 14199
8, 62162, Pitch_bend_c, 5, 14199
8, 62162, Pitch_bend_c, 5, 14199
8, 62169, Pitch_bend_c, 5, 14609
8, 62170, Pitch_bend_c, 5, 14609
8, 62180, Pitch_bend_c, 5, 14609
8, 62180, Pitch_bend_c, 5, 15019
8, 62181, Pitch_bend_c, 5, 15019
8, 62181, Pitch_bend_c, 5, 15019
8, 62193, Pitch_bend_c, 5, 15428
8, 62194, Pitch_bend_c, 5, 15428
8, 62209, Pitch_bend_c, 5, 15428
8, 62209, Pitch_bend_c, 5, 15815
8, 62209, Pitch_bend_c, 5, 15815
8, 62210, Pitch_bend_c, 5, 15815
8, 62222, Pitch_bend_c, 5, 16042
8, 62223, Pitch_bend_c, 5, 16042
8, 62223, Pitch_bend_c, 5, 16042
8, 62236, Pitch_bend_c, 5, 16269
8, 62236, Pitch_bend_c, 5, 16269
8, 62274, Pitch_bend_c, 5, 16269
8, 62274, Pitch_bend_c, 5, 16383
8, 62274, Pitch_bend_c, 5, 16383
8, 62275, Pitch_bend_c, 5, 16383
8, 63026, Pitch_bend_c, 5, 16156
8, 63027, Pitch_bend_c, 5, 16156
8, 63028, Pitch_bend_c, 5, 16156
8, 63034, Pitch_bend_c, 5, 15929
8, 63034, Pitch_bend_c, 5, 15929
8, 63035, Pitch_bend_c, 5, 15929
8, 63040, Pitch_bend_c, 5, 15565
8, 63040, Pitch_bend_c, 5, 15565
8, 63041, Pitch_bend_c, 5, 15565
8, 63047, Pitch_bend_c, 5, 15019
8, 63048, Pitch_bend_c, 5, 15019
8, 63048, Pitch_bend_c, 5, 15019
8, 63054, Pitch_bend_c, 5, 14745
8, 63054, Pitch_bend_c, 5, 14745
8, 63055, Pitch_bend_c, 5, 14745
8, 63058, Pitch_bend_c, 5, 14199
8, 63059, Pitch_bend_c, 5, 14199
8, 63059, Pitch_bend_c, 5, 14199
8, 63062, Pitch_bend_c, 5, 13790
8, 63062, Pitch_bend_c, 5, 13790
8, 63063, Pitch_bend_c, 5, 13790
8, 63068, Pitch_bend_c, 5, 13312
8, 63068, Pitch_bend_c, 5, 13312
8, 63069, Pitch_bend_c, 5, 13312
8, 63072, Pitch_bend_c, 5, 12971
8, 63073, Pitch_bend_c, 5, 12971
8, 63073, Pitch_bend_c, 5, 12971
8, 63076, Pitch_bend_c, 5, 12288
8, 63076, Pitch_bend_c, 5, 12288
8, 63077, Pitch_bend_c, 5, 12288
8, 63082, Pitch_bend_c, 5, 11606
8, 63083, Pitch_bend_c, 5, 11606
8, 63083, Pitch_bend_c, 5, 11606
8, 63087, Pitch_bend_c, 5, 11059
8, 63087, Pitch_bend_c, 5, 11059
8, 63088, Pitch_bend_c, 5, 11059
8, 63091, Pitch_bend_c, 5, 10581
8, 63091, Pitch_bend_c, 5, 10581
8, 63091, Pitch_bend_c, 5, 10581
8, 63096, Pitch_bend_c, 5, 9558
8, 63097, Pitch_bend_c, 5, 9558
8, 63097, Pitch_bend_c, 5, 9558
8, 63101, Pitch_bend_c, 5, 8192
8, 63101, Pitch_bend_c, 5, 8192
8, 63102, Pitch_bend_c, 5, 8192
8, 63108, Note_on_c, 5, 60, 59
8, 63117, Note_on_c, 5, 62, 0
8, 63502, Note_on_c, 5, 59, 70
8, 63513, Note_on_c, 5, 60, 0
8, 63694, Note_on_c, 5, 57, 72
8, 63716, Note_on_c, 5, 59, 0
8, 64441, Note_on_c, 5, 50, 65
8, 64474, Note_on_c, 5, 57, 0
8, 64561, Note_on_c, 5, 54, 79
8, 64601, Note_on_c, 5, 50, 0
8, 64680, Note_on_c, 5, 55, 69
8, 64712, Note_on_c, 5, 54, 0
8, 64800, Note_on_c, 5, 55, 0
8, 64800, Note_on_c, 5, 54, 78
8, 64881, Control_c, 5, 1, 75
8, 65288, Control_c, 5, 1, 1
8, 65321, Note_on_c, 5, 54, 0
8, 65520, Note_on_c, 5, 57, 74
8, 65603, Pitch_bend_c, 5, 7595
8, 65604, Pitch_bend_c, 5, 7595
8, 65604, Pitch_bend_c, 5, 7595
8, 65610, Pitch_bend_c, 5, 7357
8, 65610, Pitch_bend_c, 5, 7357
8, 65611, Pitch_bend_c, 5, 7357
8, 65613, Pitch_bend_c, 5, 6828
8, 65614, Pitch_bend_c, 5, 6828
8, 65614, Pitch_bend_c, 5, 6828
8, 65618, Pitch_bend_c, 5, 6486
8, 65618, Pitch_bend_c, 5, 6486
8, 65619, Pitch_bend_c, 5, 6486
8, 65628, Pitch_bend_c, 5, 5846
8, 65629, Pitch_bend_c, 5, 5846
8, 65629, Pitch_bend_c, 5, 5846
8, 65637, Pitch_bend_c, 5, 5547
8, 65638, Pitch_bend_c, 5, 5547
8, 65638, Pitch_bend_c, 5, 5547
8, 65645, Pitch_bend_c, 5, 5189
8, 65645, Pitch_bend_c, 5, 5189
8, 65646, Pitch_bend_c, 5, 5189
8, 65655, Pitch_bend_c, 5, 4780
8, 65656, Pitch_bend_c, 5, 4780
8, 65656, Pitch_bend_c, 5, 4780
8, 65665, Pitch_bend_c, 5, 4267
8, 65665, Pitch_bend_c, 5, 4267
8, 65665, Pitch_bend_c, 5, 4267
8, 65675, Pitch_bend_c, 5, 3858
8, 65676, Pitch_bend_c, 5, 3858
8, 65676, Pitch_bend_c, 5, 3858
8, 65684, Pitch_bend_c, 5, 3499
8, 65685, Pitch_bend_c, 5, 3499
8, 65685, Pitch_bend_c, 5, 3499
8, 65692, Pitch_bend_c, 5, 3101
8, 65692, Pitch_bend_c, 5, 3101
8, 65693, Pitch_bend_c, 5, 3101
8, 65702, Pitch_bend_c, 5, 2732
8, 65703, Pitch_bend_c, 5, 2732
8, 65704, Pitch_bend_c, 5, 2732
8, 65712, Pitch_bend_c, 5, 2048
8, 65712, Pitch_bend_c, 5, 2048
8, 65713, Pitch_bend_c, 5, 2048
8, 65722, Pitch_bend_c, 5, 1690
8, 65723, Pitch_bend_c, 5, 1690
8, 65723, Pitch_bend_c, 5, 1690
8, 65732, Pitch_bend_c, 5, 1332
8, 65732, Pitch_bend_c, 5, 1332
8, 65732, Pitch_bend_c, 5, 1332
8, 65745, Pitch_bend_c, 5, 974
8, 65745, Pitch_bend_c, 5, 974
8, 65746, Pitch_bend_c, 5, 974
8, 65758, Note_on_c, 5, 57, 0
8, 65760, Note_on_c, 5, 62, 83
8, 65768, Pitch_bend_c, 5, 1690
8, 65769, Pitch_bend_c, 5, 1690
8, 65769, Pitch_bend_c, 5, 1690
8, 65772, Pitch_bend_c, 5, 2561
8, 65773, Pitch_bend_c, 5, 2561
8, 65774, Pitch_bend_c, 5, 2561
8, 65779, Pitch_bend_c, 5, 3499
8, 65780, Pitch_bend_c, 5, 3499
8, 65780, Pitch_bend_c, 5, 3499
8, 65784, Pitch_bend_c, 5, 5428
8, 65784, Pitch_bend_c, 5, 5428
8, 65785, Pitch_bend_c, 5, 5428
8, 65787, Pitch_bend_c, 5, 8192
8, 65788, Pitch_bend_c, 5, 8192
8, 65788, Pitch_bend_c, 5, 8192
8, 65791, Pitch_bend_c, 5, 8601
8, 65792, Pitch_bend_c, 5, 8601
8, 65792, Pitch_bend_c, 5, 8601
8, 65796, Pitch_bend_c, 5, 8192
8, 65796, Pitch_bend_c, 5, 8192
8, 65797, Pitch_bend_c, 5, 8192
8, 65881, Pitch_bend_c, 5, 8465
8, 65881, Pitch_bend_c, 5, 8465
8, 65882, Pitch_bend_c, 5, 8465
8, 65900, Pitch_bend_c, 5, 9011
8, 65900, Pitch_bend_c, 5, 9011
8, 65901, Pitch_bend_c, 5, 9011
8, 65910, Pitch_bend_c, 5, 9558
8, 65911, Pitch_bend_c, 5, 9558
8, 65911, Pitch_bend_c, 5, 9558
8, 65918, Pitch_bend_c, 5, 9830
8, 65918, Pitch_bend_c, 5, 9830
8, 65919, Pitch_bend_c, 5, 9830
8, 65942, Pitch_bend_c, 5, 10240
8, 65943, Pitch_bend_c, 5, 10240
8, 65944, Pitch_bend_c, 5, 10240
8, 65960, Pitch_bend_c, 5, 10581
8, 65960, Pitch_bend_c, 5, 10581
8, 65961, Pitch_bend_c, 5, 10581
8, 65970, Pitch_bend_c, 5, 11059
8, 65971, Pitch_bend_c, 5, 11059
8, 65972, Pitch_bend_c, 5, 11059
8, 65980, Pitch_bend_c, 5, 11742
8, 65980, Pitch_bend_c, 5, 11742
8, 65981, Pitch_bend_c, 5, 11742
8, 65990, Pitch_bend_c, 5, 12424
8, 65990, Pitch_bend_c, 5, 12424
8, 65990, Pitch_bend_c, 5, 12424
8, 65999, Pitch_bend_c, 5, 12834
8, 66000, Pitch_bend_c, 5, 12834
8, 66002, Pitch_bend_c, 5, 12834
8, 66013, Pitch_bend_c, 5, 13198
8, 66013, Pitch_bend_c, 5, 13198
8, 66014, Pitch_bend_c, 5, 13198
8, 66022, Pitch_bend_c, 5, 13790
8, 66023, Pitch_bend_c, 5, 13790
8, 66023, Pitch_bend_c, 5, 13790
8, 66031, Pitch_bend_c, 5, 14199
8, 66031, Pitch_bend_c, 5, 14199
8, 66032, Pitch_bend_c, 5, 14199
8, 66036, Pitch_bend_c, 5, 14609
8, 66037, Pitch_bend_c, 5, 14609
8, 66038, Pitch_bend_c, 5, 14609
8, 66047, Pitch_bend_c, 5, 15019
8, 66047, Pitch_bend_c, 5, 15019
8, 66047, Pitch_bend_c, 5, 15019
8, 66088, Pitch_bend_c, 5, 15292
8, 66089, Pitch_bend_c, 5, 15292
8, 66090, Pitch_bend_c, 5, 15292
8, 66097, Pitch_bend_c, 5, 15702
8, 66097, Pitch_bend_c, 5, 15702
8, 66098, Pitch_bend_c, 5, 15702
8, 66106, Pitch_bend_c, 5, 16042
8, 66107, Pitch_bend_c, 5, 16042
8, 66107, Pitch_bend_c, 5, 16042
8, 66112, Pitch_bend_c, 5, 16383
8, 66113, Pitch_bend_c, 5, 16383
8, 66113, Pitch_bend_c, 5, 16383
8, 66632, Pitch_bend_c, 5, 16269
8, 66632, Pitch_bend_c, 5, 16269
8, 66633, Pitch_bend_c, 5, 16269
8, 66638, Pitch_bend_c, 5, 15929
8, 66639, Pitch_bend_c, 5, 15929
8, 66639, Pitch_bend_c, 5, 15929
8, 66647, Pitch_bend_c, 5, 15565
8, 66647, Pitch_bend_c, 5, 15565
8, 66647, Pitch_bend_c, 5, 15565
8, 66656, Pitch_bend_c, 5, 15019
8, 66656, Pitch_bend_c, 5, 15019
8, 66657, Pitch_bend_c, 5, 15019
8, 66665, Pitch_bend_c, 5, 14609
8, 66666, Pitch_bend_c, 5, 14609
8, 66666, Pitch_bend_c, 5, 14609
8, 66670, Pitch_bend_c, 5, 14199
8, 66670, Pitch_bend_c, 5, 14199
8, 66670, Pitch_bend_c, 5, 14199
8, 66679, Pitch_bend_c, 5, 13926
8, 66680, Pitch_bend_c, 5, 13926
8, 66681, Pitch_bend_c, 5, 13926
8, 66690, Pitch_bend_c, 5, 13426
8, 66690, Pitch_bend_c, 5, 13426
8, 66694, Pitch_bend_c, 5, 13426
8, 66699, Pitch_bend_c, 5, 13198
8, 66699, Pitch_bend_c, 5, 13198
8, 66700, Pitch_bend_c, 5, 13198
8, 66712, Pitch_bend_c, 5, 12834
8, 66713, Pitch_bend_c, 5, 12834
8, 66713, Pitch_bend_c, 5, 12834
8, 66726, Pitch_bend_c, 5, 12424
8, 66726, Pitch_bend_c, 5, 12424
8, 66727, Pitch_bend_c, 5, 12424
8, 66740, Pitch_bend_c, 5, 11878
8, 66741, Pitch_bend_c, 5, 11878
8, 66741, Pitch_bend_c, 5, 11878
8, 66756, Pitch_bend_c, 5, 11469
8, 66756, Pitch_bend_c, 5, 11469
8, 66757, Pitch_bend_c, 5, 11469
8, 66763, Pitch_bend_c, 5, 11196
8, 66764, Pitch_bend_c, 5, 11196
8, 66764, Pitch_bend_c, 5, 11196
8, 66773, Pitch_bend_c, 5, 10695
8, 66773, Pitch_bend_c, 5, 10695
8, 66774, Pitch_bend_c, 5, 10695
8, 66783, Pitch_bend_c, 5, 10353
8, 66783, Pitch_bend_c, 5, 10353
8, 66784, Pitch_bend_c, 5, 10353
8, 66792, Pitch_bend_c, 5, 9830
8, 66793, Pitch_bend_c, 5, 9830
8, 66793, Pitch_bend_c, 5, 9830
8, 66803, Pitch_bend_c, 5, 9558
8, 66803, Pitch_bend_c, 5, 9558
8, 66804, Pitch_bend_c, 5, 9558
8, 66810, Pitch_bend_c, 5, 9011
8, 66811, Pitch_bend_c, 5, 9011
8, 66812, Pitch_bend_c, 5, 9011
8, 66820, Pitch_bend_c, 5, 8601
8, 66820, Pitch_bend_c, 5, 8601
8, 66821, Pitch_bend_c, 5, 8601
8, 66830, Pitch_bend_c, 5, 8192
8, 66830, Pitch_bend_c, 5, 8192
8, 66831, Pitch_bend_c, 5, 8192
8, 67048, Note_on_c, 5, 62, 0
8, 67061, Note_on_c, 5, 60, 64
8, 67374, Note_on_c, 5, 59, 66
8, 67383, Note_on_c, 5, 60, 0
8, 67562, Note_on_c, 5, 57, 74
8, 67582, Note_on_c, 5, 59, 0
8, 67658, Control_c, 5, 1, 77
8, 68254, Control_c, 5, 1, 3
8, 68280, Note_on_c, 5, 50, 83
8, 68400, Note_on_c, 5, 50, 0
8, 68400, Note_on_c, 5, 54, 83
8, 68426, Note_on_c, 5, 57, 0
8, 68520, Note_on_c, 5, 55, 72
8, 68547, Note_on_c, 5, 54, 0
8, 68640, Note_on_c, 5, 54, 74
8, 68643, Note_on_c, 5, 55, 0
8, 68740, Control_c, 5, 1, 83
8, 69175, Pitch_bend_c, 5, 7834
8, 69175, Pitch_bend_c, 5, 7834
8, 69176, Pitch_bend_c, 5, 7834
8, 69179, Pitch_bend_c, 5, 7595
8, 69180, Pitch_bend_c, 5, 7595
8, 69180, Pitch_bend_c, 5, 7595
8, 69188, Pitch_bend_c, 5, 7118
8, 69189, Pitch_bend_c, 5, 7118
8, 69189, Pitch_bend_c, 5, 7118
8, 69216, Pitch_bend_c, 5, 7715
8, 69216, Pitch_bend_c, 5, 7715
8, 69216, Pitch_bend_c, 5, 7715
8, 69221, Pitch_bend_c, 5, 8192
8, 69222, Pitch_bend_c, 5, 8192
8, 69222, Pitch_bend_c, 5, 8192
8, 69351, Control_c, 5, 1, 3
8, 69432, Note_on_c, 5, 54, 0
8, 100076, Note_on_c, 5, 57, 88
8, 100152, Pitch_bend_c, 5, 7834
8, 100152, Pitch_bend_c, 5, 7834
8, 100153, Pitch_bend_c, 5, 7834
8, 100161, Pitch_bend_c, 5, 7595
8, 100162, Pitch_bend_c, 5, 7595
8, 100162, Pitch_bend_c, 5, 7595
8, 100176, Pitch_bend_c, 5, 7118
8, 100176, Pitch_bend_c, 5, 7118
8, 100176, Pitch_bend_c, 5, 7118
8, 100185, Pitch_bend_c, 5, 6657
8, 100186, Pitch_bend_c, 5, 6657
8, 100186, Pitch_bend_c, 5, 6657
8, 100194, Pitch_bend_c, 5, 6315
8, 100195, Pitch_bend_c, 5, 6315
8, 100196, Pitch_bend_c, 5, 6315
8, 100208, Pitch_bend_c, 5, 5945
8, 100208, Pitch_bend_c, 5, 5945
8, 100209, Pitch_bend_c, 5, 5945
8, 100218, Pitch_bend_c, 5, 5647
8, 100219, Pitch_bend_c, 5, 5647
8, 100220, Pitch_bend_c, 5, 5647
8, 100228, Pitch_bend_c, 5, 5428
8, 100228, Pitch_bend_c, 5, 5428
8, 100229, Pitch_bend_c, 5, 5428
8, 100236, Pitch_bend_c, 5, 5070
8, 100237, Pitch_bend_c, 5, 5070
8, 100237, Pitch_bend_c, 5, 5070
8, 100246, Pitch_bend_c, 5, 4609
8, 100246, Pitch_bend_c, 5, 4609
8, 100247, Pitch_bend_c, 5, 4609
8, 100259, Pitch_bend_c, 5, 4267
8, 100260, Pitch_bend_c, 5, 4267
8, 100260, Pitch_bend_c, 5, 4267
8, 100270, Pitch_bend_c, 5, 3858
8, 100270, Pitch_bend_c, 5, 3858
8, 100270, Pitch_bend_c, 5, 3858
8, 100279, Pitch_bend_c, 5, 3499
8, 100279, Pitch_bend_c, 5, 3499
8, 100280, Pitch_bend_c, 5, 3499
8, 100288, Pitch_bend_c, 5, 3300
8, 100289, Pitch_bend_c, 5, 3300
8, 100289, Pitch_bend_c, 5, 3300
8, 100320, Note_on_c, 5, 62, 84
8, 100327, Pitch_bend_c, 5, 3738
8, 100327, Pitch_bend_c, 5, 3738
8, 100328, Pitch_bend_c, 5, 3738
8, 100331, Pitch_bend_c, 5, 4950
8, 100332, Pitch_bend_c, 5, 4950
8, 100335, Note_on_c, 5, 57, 0
8, 100335, Pitch_bend_c, 5, 4950
8, 100336, Pitch_bend_c, 5, 5846
8, 100336, Pitch_bend_c, 5, 5846
8, 100336, Pitch_bend_c, 5, 5846
8, 100340, Pitch_bend_c, 5, 6828
8, 100341, Pitch_bend_c, 5, 6828
8, 100341, Pitch_bend_c, 5, 6828
8, 100344, Pitch_bend_c, 5, 7954
8, 100345, Pitch_bend_c, 5, 7954
8, 100346, Pitch_bend_c, 5, 7954
8, 100350, Pitch_bend_c, 5, 8192
8, 100350, Pitch_bend_c, 5, 8192
8, 100351, Pitch_bend_c, 5, 8192
8, 100363, Pitch_bend_c, 5, 8738
8, 100364, Pitch_bend_c, 5, 8738
8, 100364, Pitch_bend_c, 5, 8738
8, 100368, Pitch_bend_c, 5, 9011
8, 100368, Pitch_bend_c, 5, 9011
8, 100369, Pitch_bend_c, 5, 9011
8, 100372, Pitch_bend_c, 5, 9421
8, 100373, Pitch_bend_c, 5, 9421
8, 100373, Pitch_bend_c, 5, 9421
8, 100382, Pitch_bend_c, 5, 9830
8, 100382, Pitch_bend_c, 5, 9830
8, 100383, Pitch_bend_c, 5, 9830
8, 100392, Pitch_bend_c, 5, 10240
8, 100392, Pitch_bend_c, 5, 10240
8, 100393, Pitch_bend_c, 5, 10240
8, 100405, Pitch_bend_c, 5, 10581
8, 100406, Pitch_bend_c, 5, 10581
8, 100453, Pitch_bend_c, 5, 10581
8, 100453, Pitch_bend_c, 5, 10809
8, 100454, Pitch_bend_c, 5, 10809
8, 100455, Pitch_bend_c, 5, 10809
8, 100463, Pitch_bend_c, 5, 11196
8, 100463, Pitch_bend_c, 5, 11196
8, 100464, Pitch_bend_c, 5, 11196
8, 100480, Pitch_bend_c, 5, 11469
8, 100480, Pitch_bend_c, 5, 11469
8, 100481, Pitch_bend_c, 5, 11469
8, 100499, Pitch_bend_c, 5, 11878
8, 100500, Pitch_bend_c, 5, 11878
8, 100500, Pitch_bend_c, 5, 11878
8, 100509, Pitch_bend_c, 5, 12288
8, 100509, Pitch_bend_c, 5, 12288
8, 100510, Pitch_bend_c, 5, 12288
8, 100519, Pitch_bend_c, 5, 12697
8, 100520, Pitch_bend_c, 5, 12697
8, 100520, Pitch_bend_c, 5, 12697
8, 100533, Pitch_bend_c, 5, 13198
8, 100533, Pitch_bend_c, 5, 13198
8, 100534, Pitch_bend_c, 5, 13198
8, 100542, Pitch_bend_c, 5, 13426
8, 100543, Pitch_bend_c, 5, 13426
8, 100543, Pitch_bend_c, 5, 13426
8, 100552, Pitch_bend_c, 5, 13790
8, 100552, Pitch_bend_c, 5, 13790
8, 100553, Pitch_bend_c, 5, 13790
8, 100560, Pitch_bend_c, 5, 14199
8, 100562, Pitch_bend_c, 5, 14199
8, 100562, Pitch_bend_c, 5, 14199
8, 100569, Pitch_bend_c, 5, 14609
8, 100570, Pitch_bend_c, 5, 14609
8, 100580, Pitch_bend_c, 5, 14609
8, 100580, Pitch_bend_c, 5, 15019
8, 100581, Pitch_bend_c, 5, 15019
8, 100581, Pitch_bend_c, 5, 15019
8, 100593, Pitch_bend_c, 5, 15428
8, 100594, Pitch_bend_c, 5, 15428
8, 100609, Pitch_bend_c, 5, 15428
8, 100609, Pitch_bend_c, 5, 15815
8, 100609, Pitch_bend_c, 5, 15815
8, 100610, Pitch_bend_c, 5, 15815
8, 100622, Pitch_bend_c, 5, 16042
8, 100623, Pitch_bend_c, 5, 16042
8, 100623, Pitch_bend_c, 5, 16042
8, 100636, Pitch_bend_c, 5, 16269
8, 100636, Pitch_bend_c, 5, 16269
8, 100674, Pitch_bend_c, 5, 16269
8, 100674, Pitch_bend_c, 5, 16383
8, 100674, Pitch_bend_c, 5, 16383
8, 100675, Pitch_bend_c, 5, 16383
8, 101426, Pitch_bend_c, 5, 16156
8, 101427, Pitch_bend_c, 5, 16156
8, 101428, Pitch_bend_c, 5, 16156
8, 101434, Pitch_bend_c, 5, 15929
8, 101434, Pitch_bend_c, 5, 15929
8, 101435, Pitch_bend_c, 5, 15929
8, 101440, Pitch_bend_c, 5, 15565
8, 101440, Pitch_bend_c, 5, 15565
8, 101441, Pitch_bend_c, 5, 15565
8, 101447, Pitch_bend_c, 5, 15019
8, 101448, Pitch_bend_c, 5, 15019
8, 101448, Pitch_bend_c, 5, 15019
8, 101454, Pitch_bend_c, 5, 14745
8, 101454, Pitch_bend_c, 5, 14745
8, 101455, Pitch_bend_c, 5, 14745
8, 101458, Pitch_bend_c, 5, 14199
8, 101459, Pitch_bend_c, 5, 14199
8, 101459, Pitch_bend_c, 5, 14199
8, 101462, Pitch_bend_c, 5, 13790
8, 101462, Pitch_bend_c, 5, 13790
8, 101463, Pitch_bend_c, 5, 13790
8, 101468, Pitch_bend_c, 5, 13312
8, 101468, Pitch_bend_c, 5, 13312
8, 101469, Pitch_bend_c, 5, 13312
8, 101472, Pitch_bend_c, 5, 12971
8, 101473, Pitch_bend_c, 5, 12971
8, 101473, Pitch_bend_c, 5, 12971
8, 101476, Pitch_bend_c, 5, 12288
8, 101476, Pitch_bend_c, 5, 12288
8, 101477, Pitch_bend_c, 5, 12288
8, 101482, Pitch_bend_c, 5, 11606
8, 101483, Pitch_bend_c, 5, 11606
8, 101483, Pitch_bend_c, 5, 11606
8, 101487, Pitch_bend_c, 5, 11059
8, 101487, Pitch_bend_c, 5, 11059
8, 101488, Pitch_bend_c, 5, 11059
8, 101491, Pitch_bend_c, 5, 10581
8, 101491, Pitch_bend_c, 5, 10581
8, 101491, Pitch_bend_c, 5, 10581
8, 101496, Pitch_bend_c, 5, 9558
8, 101497, Pitch_bend_c, 5, 9558
8, 101497, Pitch_bend_c, 5, 9558
8, 101501, Pitch_bend_c, 5, 8192
8, 101501, Pitch_bend_c, 5, 8192
8, 101502, Pitch_bend_c, 5, 8192
8, 101508, Note_on_c, 5, 60, 59
8, 101517, Note_on_c, 5, 62, 0
8, 101902, Note_on_c, 5, 59, 70
8, 101913, Note_on_c, 5, 60, 0
8, 102094, Note_on_c, 5, 57, 72
8, 102116, Note_on_c, 5, 59, 0
8, 102841, Note_on_c, 5, 50, 65
8, 102874, Note_on_c, 5, 57, 0
8, 102961, Note_on_c, 5, 54, 79
8, 103001, Note_on_c, 5, 50, 0
8, 103080, Note_on_c, 5, 55, 69
8, 103112, Note_on_c, 5, 54, 0
8, 103200, Note_on_c, 5, 55, 0
8, 103200, Note_on_c, 5, 54, 78
8, 103260, Control_c, 5, 1, 72
8, 103721, Note_on_c, 5, 54, 0
8, 103762, Control_c, 5, 1, 3
8, 103920, Note_on_c, 5, 57, 74
8, 104003, Pitch_bend_c, 5, 7595
8, 104004, Pitch_bend_c, 5, 7595
8, 104004, Pitch_bend_c, 5, 7595
8, 104010, Pitch_bend_c, 5, 7357
8, 104010, Pitch_bend_c, 5, 7357
8, 104011, Pitch_bend_c, 5, 7357
8, 104013, Pitch_bend_c, 5, 6828
8, 104014, Pitch_bend_c, 5, 6828
8, 104014, Pitch_bend_c, 5, 6828
8, 104018, Pitch_bend_c, 5, 6486
8, 104018, Pitch_bend_c, 5, 6486
8, 104019, Pitch_bend_c, 5, 6486
8, 104028, Pitch_bend_c, 5, 5846
8, 104029, Pitch_bend_c, 5, 5846
8, 104029, Pitch_bend_c, 5, 5846
8, 104037, Pitch_bend_c, 5, 5547
8, 104038, Pitch_bend_c, 5, 5547
8, 104038, Pitch_bend_c, 5, 5547
8, 104045, Pitch_bend_c, 5, 5189
8, 104045, Pitch_bend_c, 5, 5189
8, 104046, Pitch_bend_c, 5, 5189
8, 104055, Pitch_bend_c, 5, 4780
8, 104056, Pitch_bend_c, 5, 4780
8, 104056, Pitch_bend_c, 5, 4780
8, 104065, Pitch_bend_c, 5, 4267
8, 104065, Pitch_bend_c, 5, 4267
8, 104065, Pitch_bend_c, 5, 4267
8, 104075, Pitch_bend_c, 5, 3858
8, 104076, Pitch_bend_c, 5, 3858
8, 104076, Pitch_bend_c, 5, 3858
8, 104084, Pitch_bend_c, 5, 3499
8, 104085, Pitch_bend_c, 5, 3499
8, 104085, Pitch_bend_c, 5, 3499
8, 104092, Pitch_bend_c, 5, 3101
8, 104092, Pitch_bend_c, 5, 3101
8, 104093, Pitch_bend_c, 5, 3101
8, 104102, Pitch_bend_c, 5, 2732
8, 104103, Pitch_bend_c, 5, 2732
8, 104104, Pitch_bend_c, 5, 2732
8, 104112, Pitch_bend_c, 5, 2048
8, 104112, Pitch_bend_c, 5, 2048
8, 104113, Pitch_bend_c, 5, 2048
8, 104122, Pitch_bend_c, 5, 1690
8, 104123, Pitch_bend_c, 5, 1690
8, 104123, Pitch_bend_c, 5, 1690
8, 104132, Pitch_bend_c, 5, 1332
8, 104132, Pitch_bend_c, 5, 1332
8, 104132, Pitch_bend_c, 5, 1332
8, 104145, Pitch_bend_c, 5, 974
8, 104145, Pitch_bend_c, 5, 974
8, 104146, Pitch_bend_c, 5, 974
8, 104158, Note_on_c, 5, 57, 0
8, 104160, Note_on_c, 5, 62, 83
8, 104168, Pitch_bend_c, 5, 1690
8, 104169, Pitch_bend_c, 5, 1690
8, 104169, Pitch_bend_c, 5, 1690
8, 104172, Pitch_bend_c, 5, 2561
8, 104173, Pitch_bend_c, 5, 2561
8, 104174, Pitch_bend_c, 5, 2561
8, 104179, Pitch_bend_c, 5, 3499
8, 104180, Pitch_bend_c, 5, 3499
8, 104180, Pitch_bend_c, 5, 3499
8, 104184, Pitch_bend_c, 5, 5428
8, 104184, Pitch_bend_c, 5, 5428
8, 104185, Pitch_bend_c, 5, 5428
8, 104187, Pitch_bend_c, 5, 8192
8, 104188, Pitch_bend_c, 5, 8192
8, 104188, Pitch_bend_c, 5, 8192
8, 104191, Pitch_bend_c, 5, 8601
8, 104192, Pitch_bend_c, 5, 8601
8, 104192, Pitch_bend_c, 5, 8601
8, 104196, Pitch_bend_c, 5, 8192
8, 104196, Pitch_bend_c, 5, 8192
8, 104197, Pitch_bend_c, 5, 8192
8, 104281, Pitch_bend_c, 5, 8465
8, 104281, Pitch_bend_c, 5, 8465
8, 104282, Pitch_bend_c, 5, 8465
8, 104300, Pitch_bend_c, 5, 9011
8, 104300, Pitch_bend_c, 5, 9011
8, 104301, Pitch_bend_c, 5, 9011
8, 104310, Pitch_bend_c, 5, 9558
8, 104311, Pitch_bend_c, 5, 9558
8, 104311, Pitch_bend_c, 5, 9558
8, 104318, Pitch_bend_c, 5, 9830
8, 104318, Pitch_bend_c, 5, 9830
8, 104319, Pitch_bend_c, 5, 9830
8, 104342, Pitch_bend_c, 5, 10240
8, 104343, Pitch_bend_c, 5, 10240
8, 104344, Pitch_bend_c, 5, 10240
8, 104360, Pitch_bend_c, 5, 10581
8, 104360, Pitch_bend_c, 5, 10581
8, 104361, Pitch_bend_c, 5, 10581
8, 104370, Pitch_bend_c, 5, 11059
8, 104371, Pitch_bend_c, 5, 11059
8, 104372, Pitch_bend_c, 5, 11059
8, 104380, Pitch_bend_c, 5, 11742
8, 104380, Pitch_bend_c, 5, 11742
8, 104381, Pitch_bend_c, 5, 11742
8, 104390, Pitch_bend_c, 5, 12424
8, 104390, Pitch_bend_c, 5, 12424
8, 104390, Pitch_bend_c, 5, 12424
8, 104399, Pitch_bend_c, 5, 12834
8, 104400, Pitch_bend_c, 5, 12834
8, 104402, Pitch_bend_c, 5, 12834
8, 104413, Pitch_bend_c, 5, 13198
8, 104413, Pitch_bend_c, 5, 13198
8, 104414, Pitch_bend_c, 5, 13198
8, 104422, Pitch_bend_c, 5, 13790
8, 104423, Pitch_bend_c, 5, 13790
8, 104423, Pitch_bend_c, 5, 13790
8, 104431, Pitch_bend_c, 5, 14199
8, 104431, Pitch_bend_c, 5, 14199
8, 104432, Pitch_bend_c, 5, 14199
8, 104436, Pitch_bend_c, 5, 14609
8, 104437, Pitch_bend_c, 5, 14609
8, 104438, Pitch_bend_c, 5, 14609
8, 104447, Pitch_bend_c, 5, 15019
8, 104447, Pitch_bend_c, 5, 15019
8, 104447, Pitch_bend_c, 5, 15019
8, 104488, Pitch_bend_c, 5, 15292
8, 104489, Pitch_bend_c, 5, 15292
8, 104490, Pitch_bend_c, 5, 15292
8, 104497, Pitch_bend_c, 5, 15702
8, 104497, Pitch_bend_c, 5, 15702
8, 104498, Pitch_bend_c, 5, 15702
8, 104506, Pitch_bend_c, 5, 16042
8, 104507, Pitch_bend_c, 5, 16042
8, 104507, Pitch_bend_c, 5, 16042
8, 104512, Pitch_bend_c, 5, 16383
8, 104513, Pitch_bend_c, 5, 16383
8, 104513, Pitch_bend_c, 5, 16383
8, 105032, Pitch_bend_c, 5, 16269
8, 105032, Pitch_bend_c, 5, 16269
8, 105033, Pitch_bend_c, 5, 16269
8, 105038, Pitch_bend_c, 5, 15929
8, 105039, Pitch_bend_c, 5, 15929
8, 105039, Pitch_bend_c, 5, 15929
8, 105047, Pitch_bend_c, 5, 15565
8, 105047, Pitch_bend_c, 5, 15565
8, 105047, Pitch_bend_c, 5, 15565
8, 105056, Pitch_bend_c, 5, 15019
8, 105056, Pitch_bend_c, 5, 15019
8, 105057, Pitch_bend_c, 5, 15019
8, 105065, Pitch_bend_c, 5, 14609
8, 105066, Pitch_bend_c, 5, 14609
8, 105066, Pitch_bend_c, 5, 14609
8, 105070, Pitch_bend_c, 5, 14199
8, 105070, Pitch_bend_c, 5, 14199
8, 105070, Pitch_bend_c, 5, 14199
8, 105079, Pitch_bend_c, 5, 13926
8, 105080, Pitch_bend_c, 5, 13926
8, 105081, Pitch_bend_c, 5, 13926
8, 105090, Pitch_bend_c, 5, 13426
8, 105090, Pitch_bend_c, 5, 13426
8, 105094, Pitch_bend_c, 5, 13426
8, 105099, Pitch_bend_c, 5, 13198
8, 105099, Pitch_bend_c, 5, 13198
8, 105100, Pitch_bend_c, 5, 13198
8, 105112, Pitch_bend_c, 5, 12834
8, 105113, Pitch_bend_c, 5, 12834
8, 105113, Pitch_bend_c, 5, 12834
8, 105126, Pitch_bend_c, 5, 12424
8, 105126, Pitch_bend_c, 5, 12424
8, 105127, Pitch_bend_c, 5, 12424
8, 105140, Pitch_bend_c, 5, 11878
8, 105141, Pitch_bend_c, 5, 11878
8, 105141, Pitch_bend_c, 5, 11878
8, 105156, Pitch_bend_c, 5, 11469
8, 105156, Pitch_bend_c, 5, 11469
8, 105157, Pitch_bend_c, 5, 11469
8, 105163, Pitch_bend_c, 5, 11196
8, 105164, Pitch_bend_c, 5, 11196
8, 105164, Pitch_bend_c, 5, 11196
8, 105173, Pitch_bend_c, 5, 10695
8, 105173, Pitch_bend_c, 5, 10695
8, 105174, Pitch_bend_c, 5, 10695
8, 105183, Pitch_bend_c, 5, 10353
8, 105183, Pitch_bend_c, 5, 10353
8, 105184, Pitch_bend_c, 5, 10353
8, 105192, Pitch_bend_c, 5, 9830
8, 105193, Pitch_bend_c, 5, 9830
8, 105193, Pitch_bend_c, 5, 9830
8, 105203, Pitch_bend_c, 5, 9558
8, 105203, Pitch_bend_c, 5, 9558
8, 105204, Pitch_bend_c, 5, 9558
8, 105210, Pitch_bend_c, 5, 9011
8, 105211, Pitch_bend_c, 5, 9011
8, 105212, Pitch_bend_c, 5, 9011
8, 105220, Pitch_bend_c, 5, 8601
8, 105220, Pitch_bend_c, 5, 8601
8, 105221, Pitch_bend_c, 5, 8601
8, 105230, Pitch_bend_c, 5, 8192
8, 105230, Pitch_bend_c, 5, 8192
8, 105231, Pitch_bend_c, 5, 8192
8, 105448, Note_on_c, 5, 62, 0
8, 105461, Note_on_c, 5, 60, 64
8, 105774, Note_on_c, 5, 59, 66
8, 105783, Note_on_c, 5, 60, 0
8, 105962, Note_on_c, 5, 57, 74
8, 105982, Note_on_c, 5, 59, 0
8, 106044, Control_c, 5, 1, 81
8, 106645, Control_c, 5, 1, 2
8, 106680, Note_on_c, 5, 50, 83
8, 106800, Note_on_c, 5, 50, 0
8, 106800, Note_on_c, 5, 54, 83
8, 106826, Note_on_c, 5, 57, 0
8, 106920, Note_on_c, 5, 55, 72
8, 106947, Note_on_c, 5, 54, 0
8, 107040, Note_on_c, 5, 54, 74
8, 107043, Note_on_c, 5, 55, 0
8, 107141, Control_c, 5, 1, 82
8, 107575, Pitch_bend_c, 5, 7834
8, 107575, Pitch_bend_c, 5, 7834
8, 107576, Pitch_bend_c, 5, 7834
8, 107579, Pitch_bend_c, 5, 7595
8, 107580, Pitch_bend_c, 5, 7595
8, 107580, Pitch_bend_c, 5, 7595
8, 107588, Pitch_bend_c, 5, 7118
8, 107589, Pitch_bend_c, 5, 7118
8, 107589, Pitch_bend_c, 5, 7118
8, 107616, Pitch_bend_c, 5, 7715
8, 107616, Pitch_bend_c, 5, 7715
8, 107616, Pitch_bend_c, 5, 7715
8, 107621, Pitch_bend_c, 5, 8192
8, 107622, Pitch_bend_c, 5, 8192
8, 107622, Pitch_bend_c, 5, 8192
8, 107797, Control_c, 5, 1, 2
8, 107832, Note_on_c, 5, 54, 0
8, 116215, Control_c, 5, 7, 64
8, 116443, Control_c, 5, 7, 63
8, 116625, Control_c, 5, 7, 61
8, 116775, Control_c, 5, 7, 60
8, 116985, Control_c, 5, 7, 59
8, 117065, Control_c, 5, 7, 58
8, 117215, Control_c, 5, 7, 57
8, 117454, Control_c, 5, 7, 56
8, 117645, Control_c, 5, 7, 55
8, 117865, Control_c, 5, 7, 54
8, 118050, Control_c, 5, 7, 53
8, 118297, Control_c, 5, 7, 52
8, 118430, Control_c, 5, 7, 51
8, 118669, Control_c, 5, 7, 50
8, 118828, Control_c, 5, 7, 49
8, 119073, Control_c, 5, 7, 48
8, 119205, Control_c, 5, 7, 47
8, 119380, Control_c, 5, 7, 46
8, 119575, Control_c, 5, 7, 45
8, 119890, Control_c, 5, 7, 44
8, 120180, Control_c, 5, 7, 42
8, 120445, Control_c, 5, 7, 41
8, 120650, Control_c, 5, 7, 40
8, 120680, Control_c, 5, 7, 39
8, 121000, Control_c, 5, 7, 37
8, 121180, Control_c, 5, 7, 36
8, 121495, Control_c, 5, 7, 35
8, 121550, Control_c, 5, 7, 34
8, 121940, Control_c, 5, 7, 32
8, 122166, Control_c, 5, 7, 31
8, 122472, Control_c, 5, 7, 30
8, 122670, Control_c, 5, 7, 29
8, 122845, Control_c, 5, 7, 28
8, 123068, Control_c, 5, 7, 27
8, 123103, Control_c, 5, 7, 26
8, 123490, Control_c, 5, 7, 25
8, 123780, Control_c, 5, 7, 24
8, 123910, Control_c, 5, 7, 23
8, 124080, Control_c, 5, 7, 22
8, 124205, Control_c, 5, 7, 21
8, 124605, Control_c, 5, 7, 20
8, 124760, Control_c, 5, 7, 19
8, 124985, Control_c, 5, 7, 18
8, 125235, Control_c, 5, 7, 17
8, 125435, Control_c, 5, 7, 16
8, 125495, Control_c, 5, 7, 15
8, 125915, Control_c, 5, 7, 13
8, 126176, Control_c, 5, 7, 12
8, 126424, Control_c, 5, 7, 11
8, 126615, Control_c, 5, 7, 10
8, 127050, Control_c, 5, 7, 8
8, 127365, Control_c, 5, 7, 7
8, 127610, Control_c, 5, 7, 6
8, 127645, Control_c, 5, 7, 5
8, 128185, Control_c, 5, 7, 3
8, 128400, Control_c, 5, 7, 2
8, 128580, Control_c, 5, 7, 1
8, 128905, Control_c, 5, 7, 0
8, 128905, End_track
9, 0, Start_track
9, 0, MIDI_port, 0
9, 0, Title_t, "Strings2"
9, 152, Program_c, 6, 49
9, 153, Control_c, 6, 7, 70
9, 153, Control_c, 6, 10, 12
9, 291, Control_c, 6, 91, 93
9, 46560, Note_on_c, 6, 69, 55
9, 46560, Note_on_c, 6, 72, 55
9, 47520, Note_on_c, 6, 72, 0
9, 47520, Note_on_c, 6, 69, 0
9, 47520, Note_on_c, 6, 67, 55
9, 47520, Note_on_c, 6, 71, 55
9, 48480, Note_on_c, 6, 71, 0
9, 48480, Note_on_c, 6, 67, 0
9, 48480, Note_on_c, 6, 69, 55
9, 48480, Note_on_c, 6, 66, 55
9, 50340, Note_on_c, 6, 66, 0
9, 50340, Note_on_c, 6, 69, 0
9, 50400, Note_on_c, 6, 72, 55
9, 50400, Note_on_c, 6, 69, 55
9, 51360, Note_on_c, 6, 69, 0
9, 51360, Note_on_c, 6, 72, 0
9, 51360, Note_on_c, 6, 71, 55
9, 51360, Note_on_c, 6, 67, 55
9, 52320, Note_on_c, 6, 67, 0
9, 52320, Note_on_c, 6, 71, 0
9, 52320, Note_on_c, 6, 69, 55
9, 52320, Note_on_c, 6, 66, 55
9, 54180, Note_on_c, 6, 66, 0
9, 54180, Note_on_c, 6, 69, 0
9, 54240, Note_on_c, 6, 69, 55
9, 54240, Note_on_c, 6, 72, 55
9, 55200, Note_on_c, 6, 72, 0
9, 55200, Note_on_c, 6, 69, 0
9, 55200, Note_on_c, 6, 71, 55
9, 55200, Note_on_c, 6, 67, 55
9, 56160, Note_on_c, 6, 67, 0
9, 56160, Note_on_c, 6, 71, 0
9, 56160, Note_on_c, 6, 66, 55
9, 56160, Note_on_c, 6, 69, 55
9, 58020, Note_on_c, 6, 69, 0
9, 58020, Note_on_c, 6, 66, 0
9, 58080, Note_on_c, 6, 69, 74
9, 58080, Note_on_c, 6, 72, 74
9, 59040, Note_on_c, 6, 72, 0
9, 59040, Note_on_c, 6, 69, 0
9, 59040, Note_on_c, 6, 71, 55
9, 59040, Note_on_c, 6, 67, 55
9, 60000, Note_on_c, 6, 67, 0
9, 60000, Note_on_c, 6, 71, 0
9, 60000, Note_on_c, 6, 66, 55
9, 60000, Note_on_c, 6, 69, 55
9, 60221, Control_c, 6, 93, 5
9, 60286, Control_c, 6, 93, 7
9, 60309, Control_c, 6, 93, 9
9, 60319, Control_c, 6, 93, 12
9, 60344, Control_c, 6, 93, 15
9, 60370, Control_c, 6, 93, 18
9, 60380, Control_c, 6, 93, 21
9, 60390, Control_c, 6, 93, 23
9, 60418, Control_c, 6, 93, 26
9, 60442, Control_c, 6, 93, 29
9, 60491, Control_c, 6, 93, 31
9, 60585, Control_c, 6, 93, 33
9, 60612, Control_c, 6, 93, 35
9, 60636, Control_c, 6, 93, 37
9, 60672, Control_c, 6, 93, 39
9, 60707, Control_c, 6, 93, 40
9, 61860, Note_on_c, 6, 69, 0
9, 61920, Note_on_c, 6, 66, 0
9, 61920, Note_on_c, 6, 69, 55
9, 61920, Note_on_c, 6, 72, 55
9, 62560, Control_c, 6, 93, 31
9, 62630, Control_c, 6, 93, 29
9, 62880, Note_on_c, 6, 72, 0
9, 62880, Note_on_c, 6, 69, 0
9, 62880, Note_on_c, 6, 71, 55
9, 62880, Note_on_c, 6, 67, 55
9, 63140, Control_c, 6, 93, 29
9, 63250, Control_c, 6, 93, 31
9, 63310, Control_c, 6, 93, 33
9, 63840, Note_on_c, 6, 67, 0
9, 63840, Note_on_c, 6, 71, 0
9, 63840, Note_on_c, 6, 66, 55
9, 63840, Note_on_c, 6, 69, 55
9, 64380, Note_on_c, 6, 69, 0
9, 64380, Note_on_c, 6, 69, 55
9, 64680, Note_on_c, 6, 69, 0
9, 64680, Note_on_c, 6, 71, 55
9, 64800, Note_on_c, 6, 71, 0
9, 64800, Note_on_c, 6, 69, 55
9, 65760, Note_on_c, 6, 69, 0
9, 65760, Note_on_c, 6, 66, 0
9, 65760, Note_on_c, 6, 69, 55
9, 65760, Note_on_c, 6, 72, 55
9, 66550, Control_c, 6, 10, 18
9, 66595, Control_c, 6, 10, 15
9, 66610, Control_c, 6, 10, 13
9, 66620, Control_c, 6, 10, 10
9, 66633, Control_c, 6, 10, 9
9, 66647, Control_c, 6, 10, 7
9, 66662, Control_c, 6, 10, 5
9, 66700, Control_c, 6, 10, 1
9, 66720, Note_on_c, 6, 72, 0
9, 66720, Note_on_c, 6, 69, 0
9, 66720, Note_on_c, 6, 67, 55
9, 66720, Note_on_c, 6, 71, 55
9, 66746, Control_c, 6, 10, 0
9, 67680, Note_on_c, 6, 71, 0
9, 67680, Note_on_c, 6, 67, 0
9, 67680, Note_on_c, 6, 69, 55
9, 67680, Note_on_c, 6, 66, 55
9, 69600, Note_on_c, 6, 66, 0
9, 69600, Note_on_c, 6, 69, 0
9, 72480, Note_on_c, 6, 64, 54
9, 75360, Note_on_c, 6, 64, 0
9, 75360, Note_on_c, 6, 62, 66
9, 77280, Note_on_c, 6, 62, 0
9, 77280, Note_on_c, 6, 64, 64
9, 78240, Note_on_c, 6, 64, 0
9, 78240, Note_on_c, 6, 62, 65
9, 79200, Note_on_c, 6, 62, 0
9, 79200, Note_on_c, 6, 62, 65
9, 81120, Note_on_c, 6, 62, 0
9, 81120, Note_on_c, 6, 69, 70
9, 82080, Note_on_c, 6, 69, 0
9, 82080, Note_on_c, 6, 71, 67
9, 83040, Note_on_c, 6, 71, 0
9, 83040, Note_on_c, 6, 74, 73
9, 84930, Note_on_c, 6, 74, 0
9, 84960, Note_on_c, 6, 69, 55
9, 84960, Note_on_c, 6, 72, 55
9, 85920, Note_on_c, 6, 72, 0
9, 85920, Note_on_c, 6, 69, 0
9, 85920, Note_on_c, 6, 67, 55
9, 85920, Note_on_c, 6, 71, 55
9, 86880, Note_on_c, 6, 71, 0
9, 86880, Note_on_c, 6, 67, 0
9, 86880, Note_on_c, 6, 69, 55
9, 86880, Note_on_c, 6, 66, 55
9, 88740, Note_on_c, 6, 66, 0
9, 88740, Note_on_c, 6, 69, 0
9, 88800, Note_on_c, 6, 72, 55
9, 88800, Note_on_c, 6, 69, 55
9, 89760, Note_on_c, 6, 69, 0
9, 89760, Note_on_c, 6, 72, 0
9, 89760, Note_on_c, 6, 71, 55
9, 89760, Note_on_c, 6, 67, 55
9, 90720, Note_on_c, 6, 67, 0
9, 90720, Note_on_c, 6, 71, 0
9, 90720, Note_on_c, 6, 69, 55
9, 90720, Note_on_c, 6, 66, 55
9, 92580, Note_on_c, 6, 66, 0
9, 92580, Note_on_c, 6, 69, 0
9, 92640, Note_on_c, 6, 69, 55
9, 92640, Note_on_c, 6, 72, 55
9, 93600, Note_on_c, 6, 72, 0
9, 93600, Note_on_c, 6, 69, 0
9, 93600, Note_on_c, 6, 71, 55
9, 93600, Note_on_c, 6, 67, 55
9, 94560, Note_on_c, 6, 67, 0
9, 94560, Note_on_c, 6, 71, 0
9, 94560, Note_on_c, 6, 66, 55
9, 94560, Note_on_c, 6, 69, 55
9, 96420, Note_on_c, 6, 69, 0
9, 96420, Note_on_c, 6, 66, 0
9, 96480, Note_on_c, 6, 69, 74
9, 96480, Note_on_c, 6, 72, 74
9, 97440, Note_on_c, 6, 72, 0
9, 97440, Note_on_c, 6, 69, 0
9, 97440, Note_on_c, 6, 71, 55
9, 97440, Note_on_c, 6, 67, 55
9, 98400, Note_on_c, 6, 67, 0
9, 98400, Note_on_c, 6, 71, 0
9, 98400, Note_on_c, 6, 66, 55
9, 98400, Note_on_c, 6, 69, 55
9, 100260, Note_on_c, 6, 69, 0
9, 100320, Note_on_c, 6, 66, 0
9, 100320, Note_on_c, 6, 69, 55
9, 100320, Note_on_c, 6, 72, 55
9, 101280, Note_on_c, 6, 72, 0
9, 101280, Note_on_c, 6, 69, 0
9, 101280, Note_on_c, 6, 71, 55
9, 101280, Note_on_c, 6, 67, 55
9, 102240, Note_on_c, 6, 67, 0
9, 102240, Note_on_c, 6, 71, 0
9, 102240, Note_on_c, 6, 66, 55
9, 102240, Note_on_c, 6, 69, 55
9, 102780, Note_on_c, 6, 69, 0
9, 102780, Note_on_c, 6, 69, 55
9, 103080, Note_on_c, 6, 69, 0
9, 103080, Note_on_c, 6, 71, 55
9, 103200, Note_on_c, 6, 71, 0
9, 103200, Note_on_c, 6, 69, 55
9, 104160, Note_on_c, 6, 69, 0
9, 104160, Note_on_c, 6, 66, 0
9, 104160, Note_on_c, 6, 69, 55
9, 104160, Note_on_c, 6, 72, 55
9, 105120, Note_on_c, 6, 72, 0
9, 105120, Note_on_c, 6, 69, 0
9, 105120, Note_on_c, 6, 67, 55
9, 105120, Note_on_c, 6, 71, 55
9, 106080, Note_on_c, 6, 71, 0
9, 106080, Note_on_c, 6, 67, 0
9, 106080, Note_on_c, 6, 69, 55
9, 106080, Note_on_c, 6, 66, 55
9, 108000, Note_on_c, 6, 66, 0
9, 108000, Note_on_c, 6, 69, 0
9, 116215, Control_c, 6, 7, 34
9, 116438, Control_c, 6, 7, 33
9, 116615, Control_c, 6, 7, 32
9, 116985, Control_c, 6, 7, 31
9, 117210, Control_c, 6, 7, 30
9, 117645, Control_c, 6, 7, 29
9, 117855, Control_c, 6, 7, 28
9, 118425, Control_c, 6, 7, 27
9, 118825, Control_c, 6, 7, 26
9, 119065, Control_c, 6, 7, 25
9, 119375, Control_c, 6, 7, 24
9, 119885, Control_c, 6, 7, 23
9, 120180, Control_c, 6, 7, 22
9, 120440, Control_c, 6, 7, 21
9, 120805, Control_c, 6, 7, 20
9, 121180, Control_c, 6, 7, 19
9, 121485, Control_c, 6, 7, 18
9, 121931, Control_c, 6, 7, 17
9, 122161, Control_c, 6, 7, 16
9, 122665, Control_c, 6, 7, 15
9, 123063, Control_c, 6, 7, 14
9, 123300, Control_c, 6, 7, 13
9, 123900, Control_c, 6, 7, 12
9, 124075, Control_c, 6, 7, 11
9, 124600, Control_c, 6, 7, 10
9, 125230, Control_c, 6, 7, 9
9, 125430, Control_c, 6, 7, 8
9, 125910, Control_c, 6, 7, 7
9, 126171, Control_c, 6, 7, 6
9, 126615, Control_c, 6, 7, 5
9, 127045, Control_c, 6, 7, 4
9, 127360, Control_c, 6, 7, 3
9, 127832, Control_c, 6, 7, 2
9, 128180, Control_c, 6, 7, 1
9, 128575, Control_c, 6, 7, 0
9, 128575, End_track
10, 0, Start_track
10, 0, MIDI_port, 0
10, 0, Title_t, "E.Piano2"
10, 155, Control_c, 7, 0, 0
10, 156, Control_c, 7, 32, 0
10, 157, Program_c, 7, 4
10, 158, Control_c, 7, 7, 90
10, 158, Control_c, 7, 10, 100
10, 1082, Note_on_c, 7, 57, 60
10, 1082, Note_on_c, 7, 60, 63
10, 1082, Note_on_c, 7, 64, 63
10, 1169, Note_on_c, 7, 64, 0
10, 1171, Note_on_c, 7, 60, 0
10, 1176, Note_on_c, 7, 57, 0
10, 1318, Note_on_c, 7, 62, 62
10, 1318, Note_on_c, 7, 59, 62
10, 1319, Note_on_c, 7, 55, 61
10, 2013, Note_on_c, 7, 62, 0
10, 2015, Note_on_c, 7, 55, 0
10, 2015, Note_on_c, 7, 59, 0
10, 2043, Note_on_c, 7, 59, 60
10, 2043, Note_on_c, 7, 55, 59
10, 2044, Note_on_c, 7, 62, 59
10, 2103, Note_on_c, 7, 55, 0
10, 2103, Note_on_c, 7, 59, 0
10, 2104, Note_on_c, 7, 62, 0
10, 2282, Note_on_c, 7, 62, 59
10, 2282, Note_on_c, 7, 57, 61
10, 2284, Note_on_c, 7, 54, 60
10, 4139, Note_on_c, 7, 54, 0
10, 4141, Note_on_c, 7, 57, 0
10, 4162, Note_on_c, 7, 62, 0
10, 4558, Note_on_c, 7, 57, 60
10, 4558, Note_on_c, 7, 60, 59
10, 4559, Note_on_c, 7, 64, 60
10, 4654, Note_on_c, 7, 60, 0
10, 4654, Note_on_c, 7, 57, 0
10, 4656, Note_on_c, 7, 64, 0
10, 4922, Note_on_c, 7, 57, 61
10, 4922, Note_on_c, 7, 60, 60
10, 4923, Note_on_c, 7, 64, 61
10, 5010, Note_on_c, 7, 64, 0
10, 5011, Note_on_c, 7, 60, 0
10, 5013, Note_on_c, 7, 57, 0
10, 5161, Note_on_c, 7, 62, 59
10, 5161, Note_on_c, 7, 55, 59
10, 5162, Note_on_c, 7, 59, 60
10, 5843, Note_on_c, 7, 55, 0
10, 5843, Note_on_c, 7, 62, 0
10, 5844, Note_on_c, 7, 59, 0
10, 5882, Note_on_c, 7, 59, 61
10, 5883, Note_on_c, 7, 55, 59
10, 5883, Note_on_c, 7, 62, 61
10, 5995, Note_on_c, 7, 59, 0
10, 5996, Note_on_c, 7, 55, 0
10, 6005, Note_on_c, 7, 62, 0
10, 6121, Note_on_c, 7, 62, 59
10, 6121, Note_on_c, 7, 57, 63
10, 6121, Note_on_c, 7, 54, 61
10, 7923, Note_on_c, 7, 54, 0
10, 7944, Note_on_c, 7, 57, 0
10, 7950, Note_on_c, 7, 62, 0
10, 8401, Note_on_c, 7, 60, 62
10, 8401, Note_on_c, 7, 64, 61
10, 8401, Note_on_c, 7, 57, 62
10, 8523, Note_on_c, 7, 57, 0
10, 8524, Note_on_c, 7, 60, 0
10, 8525, Note_on_c, 7, 64, 0
10, 8759, Note_on_c, 7, 60, 65
10, 8761, Note_on_c, 7, 57, 62
10, 8761, Note_on_c, 7, 64, 64
10, 8824, Note_on_c, 7, 57, 0
10, 8842, Note_on_c, 7, 64, 0
10, 8843, Note_on_c, 7, 60, 0
10, 9001, Note_on_c, 7, 62, 61
10, 9001, Note_on_c, 7, 59, 62
10, 9002, Note_on_c, 7, 55, 59
10, 9682, Note_on_c, 7, 55, 0
10, 9682, Note_on_c, 7, 62, 0
10, 9684, Note_on_c, 7, 59, 0
10, 9722, Note_on_c, 7, 59, 59
10, 9723, Note_on_c, 7, 55, 59
10, 9723, Note_on_c, 7, 62, 59
10, 9809, Note_on_c, 7, 55, 0
10, 9813, Note_on_c, 7, 59, 0
10, 9833, Note_on_c, 7, 62, 0
10, 9959, Note_on_c, 7, 57, 61
10, 9961, Note_on_c, 7, 62, 59
10, 9961, Note_on_c, 7, 54, 60
10, 11785, Note_on_c, 7, 54, 0
10, 11787, Note_on_c, 7, 57, 0
10, 11794, Note_on_c, 7, 62, 0
10, 12002, Note_on_c, 7, 60, 60
10, 12002, Note_on_c, 7, 57, 60
10, 12003, Note_on_c, 7, 64, 59
10, 12537, Note_on_c, 7, 64, 0
10, 12540, Note_on_c, 7, 57, 0
10, 12540, Note_on_c, 7, 60, 0
10, 12602, Note_on_c, 7, 60, 61
10, 12603, Note_on_c, 7, 57, 61
10, 12603, Note_on_c, 7, 64, 61
10, 12681, Note_on_c, 7, 57, 0
10, 12682, Note_on_c, 7, 64, 0
10, 12682, Note_on_c, 7, 60, 0
10, 12842, Note_on_c, 7, 62, 59
10, 12842, Note_on_c, 7, 55, 59
10, 12843, Note_on_c, 7, 59, 61
10, 13535, Note_on_c, 7, 59, 0
10, 13535, Note_on_c, 7, 55, 0
10, 13536, Note_on_c, 7, 62, 0
10, 13586, Note_on_c, 7, 59, 60
10, 13587, Note_on_c, 7, 62, 58
10, 13587, Note_on_c, 7, 55, 59
10, 13675, Note_on_c, 7, 59, 0
10, 13676, Note_on_c, 7, 55, 0
10, 13680, Note_on_c, 7, 62, 0
10, 13803, Note_on_c, 7, 57, 61
10, 13804, Note_on_c, 7, 62, 59
10, 13805, Note_on_c, 7, 54, 59
10, 15549, Note_on_c, 7, 54, 0
10, 15565, Note_on_c, 7, 57, 0
10, 15569, Note_on_c, 7, 62, 0
10, 16080, Note_on_c, 7, 57, 58
10, 16082, Note_on_c, 7, 64, 58
10, 16084, Note_on_c, 7, 60, 58
10, 16122, Note_on_c, 7, 57, 0
10, 16144, Note_on_c, 7, 60, 0
10, 16144, Note_on_c, 7, 64, 0
10, 16443, Note_on_c, 7, 60, 65
10, 16443, Note_on_c, 7, 57, 63
10, 16444, Note_on_c, 7, 64, 64
10, 16504, Note_on_c, 7, 57, 0
10, 16504, Note_on_c, 7, 60, 0
10, 16521, Note_on_c, 7, 64, 0
10, 16679, Note_on_c, 7, 62, 62
10, 16679, Note_on_c, 7, 59, 62
10, 16683, Note_on_c, 7, 55, 60
10, 17249, Note_on_c, 7, 55, 0
10, 17341, Note_on_c, 7, 62, 0
10, 17342, Note_on_c, 7, 59, 0
10, 17400, Note_on_c, 7, 62, 64
10, 17400, Note_on_c, 7, 59, 65
10, 17400, Note_on_c, 7, 55, 63
10, 17437, Note_on_c, 7, 55, 0
10, 17437, Note_on_c, 7, 59, 0
10, 17442, Note_on_c, 7, 62, 0
10, 17641, Note_on_c, 7, 57, 62
10, 17641, Note_on_c, 7, 62, 59
10, 17641, Note_on_c, 7, 54, 60
10, 18324, Note_on_c, 7, 54, 0
10, 18324, Note_on_c, 7, 62, 0
10, 18324, Note_on_c, 7, 57, 0
10, 18361, Note_on_c, 7, 62, 65
10, 18363, Note_on_c, 7, 54, 64
10, 18363, Note_on_c, 7, 57, 66
10, 18396, Note_on_c, 7, 62, 0
10, 18411, Note_on_c, 7, 57, 0
10, 18411, Note_on_c, 7, 54, 0
10, 18596, Note_on_c, 7, 57, 62
10, 18597, Note_on_c, 7, 62, 59
10, 18598, Note_on_c, 7, 54, 60
10, 19442, Note_on_c, 7, 57, 0
10, 19443, Note_on_c, 7, 54, 0
10, 19466, Note_on_c, 7, 62, 0
10, 19682, Note_on_c, 7, 60, 60
10, 19683, Note_on_c, 7, 64, 60
10, 19683, Note_on_c, 7, 57, 58
10, 20432, Note_on_c, 7, 64, 0
10, 20456, Note_on_c, 7, 57, 0
10, 20460, Note_on_c, 7, 60, 0
10, 20520, Note_on_c, 7, 62, 60
10, 20520, Note_on_c, 7, 59, 60
10, 20523, Note_on_c, 7, 55, 60
10, 21480, Note_on_c, 7, 59, 0
10, 21507, Note_on_c, 7, 55, 0
10, 21510, Note_on_c, 7, 62, 0
10, 21600, Note_on_c, 7, 62, 57
10, 21600, Note_on_c, 7, 57, 59
10, 21600, Note_on_c, 7, 54, 60
10, 22138, Note_on_c, 7, 54, 0
10, 22138, Note_on_c, 7, 62, 0
10, 22139, Note_on_c, 7, 57, 0
10, 22200, Note_on_c, 7, 62, 62
10, 22203, Note_on_c, 7, 57, 64
10, 22203, Note_on_c, 7, 54, 62
10, 22233, Note_on_c, 7, 62, 0
10, 22251, Note_on_c, 7, 57, 0
10, 22253, Note_on_c, 7, 54, 0
10, 22439, Note_on_c, 7, 57, 61
10, 22440, Note_on_c, 7, 54, 59
10, 22441, Note_on_c, 7, 62, 59
10, 23377, Note_on_c, 7, 54, 0
10, 23377, Note_on_c, 7, 57, 0
10, 23402, Note_on_c, 7, 62, 0
10, 23761, Note_on_c, 7, 57, 55
10, 23762, Note_on_c, 7, 64, 56
10, 23763, Note_on_c, 7, 60, 55
10, 24057, Note_on_c, 7, 64, 0
10, 24060, Note_on_c, 7, 60, 0
10, 24061, Note_on_c, 7, 57, 0
10, 24146, Note_on_c, 7, 60, 60
10, 24147, Note_on_c, 7, 57, 60
10, 24147, Note_on_c, 7, 64, 60
10, 24185, Note_on_c, 7, 64, 0
10, 24186, Note_on_c, 7, 57, 0
10, 24186, Note_on_c, 7, 60, 0
10, 24360, Note_on_c, 7, 59, 60
10, 24360, Note_on_c, 7, 55, 59
10, 24363, Note_on_c, 7, 62, 61
10, 25416, Note_on_c, 7, 59, 0
10, 25420, Note_on_c, 7, 55, 0
10, 25442, Note_on_c, 7, 62, 0
10, 25679, Note_on_c, 7, 57, 62
10, 25681, Note_on_c, 7, 54, 60
10, 25682, Note_on_c, 7, 62, 59
10, 25716, Note_on_c, 7, 54, 0
10, 25716, Note_on_c, 7, 57, 0
10, 25734, Note_on_c, 7, 62, 0
10, 26041, Note_on_c, 7, 54, 60
10, 26042, Note_on_c, 7, 62, 62
10, 26042, Note_on_c, 7, 57, 62
10, 26092, Note_on_c, 7, 57, 0
10, 26094, Note_on_c, 7, 54, 0
10, 26096, Note_on_c, 7, 62, 0
10, 26280, Note_on_c, 7, 62, 61
10, 26281, Note_on_c, 7, 54, 60
10, 26281, Note_on_c, 7, 57, 61
10, 26966, Note_on_c, 7, 57, 0
10, 26966, Note_on_c, 7, 54, 0
10, 26968, Note_on_c, 7, 62, 0
10, 27026, Note_on_c, 7, 54, 59
10, 27027, Note_on_c, 7, 62, 59
10, 27027, Note_on_c, 7, 57, 59
10, 27063, Note_on_c, 7, 57, 0
10, 27066, Note_on_c, 7, 54, 0
10, 27088, Note_on_c, 7, 62, 0
10, 27599, Note_on_c, 7, 64, 58
10, 27601, Note_on_c, 7, 60, 57
10, 27602, Note_on_c, 7, 57, 57
10, 27904, Note_on_c, 7, 64, 0
10, 27922, Note_on_c, 7, 57, 0
10, 27925, Note_on_c, 7, 60, 0
10, 27963, Note_on_c, 7, 60, 59
10, 27963, Note_on_c, 7, 57, 59
10, 27964, Note_on_c, 7, 64, 61
10, 28017, Note_on_c, 7, 64, 0
10, 28017, Note_on_c, 7, 57, 0
10, 28017, Note_on_c, 7, 60, 0
10, 28199, Note_on_c, 7, 55, 58
10, 28199, Note_on_c, 7, 62, 60
10, 28201, Note_on_c, 7, 59, 59
10, 29130, Note_on_c, 7, 59, 0
10, 29130, Note_on_c, 7, 62, 0
10, 29137, Note_on_c, 7, 55, 0
10, 29522, Note_on_c, 7, 57, 63
10, 29523, Note_on_c, 7, 54, 60
10, 29523, Note_on_c, 7, 62, 60
10, 29580, Note_on_c, 7, 57, 0
10, 29581, Note_on_c, 7, 54, 0
10, 29583, Note_on_c, 7, 62, 0
10, 29881, Note_on_c, 7, 57, 63
10, 29882, Note_on_c, 7, 54, 60
10, 29882, Note_on_c, 7, 62, 60
10, 29916, Note_on_c, 7, 57, 0
10, 29932, Note_on_c, 7, 54, 0
10, 29934, Note_on_c, 7, 62, 0
10, 30266, Note_on_c, 7, 54, 60
10, 30267, Note_on_c, 7, 62, 60
10, 30267, Note_on_c, 7, 57, 60
10, 30303, Note_on_c, 7, 57, 0
10, 30307, Note_on_c, 7, 62, 0
10, 30308, Note_on_c, 7, 54, 0
10, 30599, Note_on_c, 7, 57, 63
10, 30601, Note_on_c, 7, 54, 61
10, 30601, Note_on_c, 7, 62, 60
10, 30658, Note_on_c, 7, 57, 0
10, 30660, Note_on_c, 7, 54, 0
10, 30662, Note_on_c, 7, 62, 0
10, 30962, Note_on_c, 7, 54, 61
10, 30962, Note_on_c, 7, 57, 62
10, 30962, Note_on_c, 7, 62, 61
10, 31176, Note_on_c, 7, 54, 0
10, 31193, Note_on_c, 7, 57, 0
10, 31197, Note_on_c, 7, 62, 0
10, 31439, Note_on_c, 7, 60, 61
10, 31441, Note_on_c, 7, 57, 58
10, 31441, Note_on_c, 7, 64, 61
10, 31975, Note_on_c, 7, 64, 0
10, 31985, Note_on_c, 7, 57, 0
10, 32003, Note_on_c, 7, 60, 0
10, 32068, Note_on_c, 7, 55, 60
10, 32068, Note_on_c, 7, 59, 61
10, 32070, Note_on_c, 7, 64, 57
10, 32554, Note_on_c, 7, 64, 0
10, 32646, Note_on_c, 7, 59, 0
10, 32670, Note_on_c, 7, 55, 0
10, 33363, Note_on_c, 7, 57, 64
10, 33363, Note_on_c, 7, 62, 62
10, 33364, Note_on_c, 7, 54, 60
10, 33414, Note_on_c, 7, 54, 0
10, 33416, Note_on_c, 7, 57, 0
10, 33419, Note_on_c, 7, 62, 0
10, 33722, Note_on_c, 7, 57, 63
10, 33723, Note_on_c, 7, 54, 61
10, 33723, Note_on_c, 7, 62, 61
10, 33774, Note_on_c, 7, 57, 0
10, 33775, Note_on_c, 7, 54, 0
10, 33779, Note_on_c, 7, 62, 0
10, 34081, Note_on_c, 7, 57, 62
10, 34083, Note_on_c, 7, 62, 60
10, 34083, Note_on_c, 7, 54, 59
10, 34114, Note_on_c, 7, 57, 0
10, 34115, Note_on_c, 7, 54, 0
10, 34132, Note_on_c, 7, 62, 0
10, 34203, Note_on_c, 7, 54, 59
10, 34203, Note_on_c, 7, 57, 59
10, 34204, Note_on_c, 7, 62, 58
10, 34254, Note_on_c, 7, 57, 0
10, 34256, Note_on_c, 7, 62, 0
10, 34256, Note_on_c, 7, 54, 0
10, 34320, Note_on_c, 7, 55, 59
10, 34373, Note_on_c, 7, 55, 0
10, 34442, Note_on_c, 7, 54, 61
10, 34442, Note_on_c, 7, 62, 60
10, 34442, Note_on_c, 7, 57, 61
10, 35032, Note_on_c, 7, 57, 0
10, 35033, Note_on_c, 7, 54, 0
10, 35130, Note_on_c, 7, 62, 0
10, 35280, Note_on_c, 7, 64, 57
10, 35280, Note_on_c, 7, 57, 56
10, 35281, Note_on_c, 7, 60, 61
10, 35317, Note_on_c, 7, 57, 0
10, 35320, Note_on_c, 7, 64, 0
10, 35344, Note_on_c, 7, 60, 0
10, 35638, Note_on_c, 7, 60, 63
10, 35639, Note_on_c, 7, 57, 60
10, 35639, Note_on_c, 7, 64, 61
10, 35675, Note_on_c, 7, 64, 0
10, 35676, Note_on_c, 7, 57, 0
10, 35677, Note_on_c, 7, 60, 0
10, 35881, Note_on_c, 7, 62, 59
10, 35882, Note_on_c, 7, 55, 58
10, 35882, Note_on_c, 7, 59, 59
10, 36778, Note_on_c, 7, 62, 0
10, 36780, Note_on_c, 7, 59, 0
10, 36782, Note_on_c, 7, 55, 0
10, 37201, Note_on_c, 7, 57, 62
10, 37202, Note_on_c, 7, 62, 60
10, 37202, Note_on_c, 7, 54, 61
10, 37235, Note_on_c, 7, 57, 0
10, 37252, Note_on_c, 7, 54, 0
10, 37254, Note_on_c, 7, 62, 0
10, 37559, Note_on_c, 7, 57, 60
10, 37560, Note_on_c, 7, 62, 59
10, 37560, Note_on_c, 7, 54, 59
10, 37582, Note_on_c, 7, 54, 0
10, 37593, Note_on_c, 7, 57, 0
10, 37595, Note_on_c, 7, 62, 0
10, 37920, Note_on_c, 7, 62, 59
10, 37920, Note_on_c, 7, 57, 60
10, 37920, Note_on_c, 7, 54, 58
10, 37951, Note_on_c, 7, 54, 0
10, 37953, Note_on_c, 7, 57, 0
10, 37955, Note_on_c, 7, 62, 0
10, 38040, Note_on_c, 7, 55, 60
10, 38040, Note_on_c, 7, 62, 58
10, 38043, Note_on_c, 7, 57, 61
10, 38075, Note_on_c, 7, 55, 0
10, 38076, Note_on_c, 7, 62, 0
10, 38093, Note_on_c, 7, 57, 0
10, 38280, Note_on_c, 7, 62, 60
10, 38280, Note_on_c, 7, 54, 60
10, 38284, Note_on_c, 7, 57, 62
10, 38825, Note_on_c, 7, 54, 0
10, 38844, Note_on_c, 7, 57, 0
10, 38944, Note_on_c, 7, 62, 0
10, 39151, Note_on_c, 7, 60, 59
10, 39151, Note_on_c, 7, 64, 58
10, 39151, Note_on_c, 7, 57, 58
10, 39185, Note_on_c, 7, 57, 0
10, 39187, Note_on_c, 7, 60, 0
10, 39203, Note_on_c, 7, 64, 0
10, 39478, Note_on_c, 7, 60, 63
10, 39479, Note_on_c, 7, 64, 62
10, 39479, Note_on_c, 7, 57, 60
10, 39515, Note_on_c, 7, 57, 0
10, 39534, Note_on_c, 7, 64, 0
10, 39534, Note_on_c, 7, 60, 0
10, 39724, Note_on_c, 7, 59, 60
10, 39746, Note_on_c, 7, 55, 59
10, 39746, Note_on_c, 7, 62, 59
10, 40710, Note_on_c, 7, 59, 0
10, 40717, Note_on_c, 7, 55, 0
10, 40740, Note_on_c, 7, 62, 0
10, 41043, Note_on_c, 7, 57, 62
10, 41044, Note_on_c, 7, 62, 60
10, 41044, Note_on_c, 7, 54, 60
10, 41096, Note_on_c, 7, 54, 0
10, 41096, Note_on_c, 7, 57, 0
10, 41098, Note_on_c, 7, 62, 0
10, 41399, Note_on_c, 7, 62, 60
10, 41400, Note_on_c, 7, 57, 62
10, 41401, Note_on_c, 7, 54, 60
10, 41435, Note_on_c, 7, 54, 0
10, 41435, Note_on_c, 7, 57, 0
10, 41437, Note_on_c, 7, 62, 0
10, 41759, Note_on_c, 7, 57, 62
10, 41761, Note_on_c, 7, 54, 60
10, 41761, Note_on_c, 7, 62, 60
10, 41793, Note_on_c, 7, 62, 0
10, 41793, Note_on_c, 7, 54, 0
10, 41793, Note_on_c, 7, 57, 0
10, 41883, Note_on_c, 7, 62, 58
10, 41883, Note_on_c, 7, 57, 59
10, 41883, Note_on_c, 7, 54, 59
10, 41934, Note_on_c, 7, 57, 0
10, 41935, Note_on_c, 7, 54, 0
10, 41937, Note_on_c, 7, 62, 0
10, 42123, Note_on_c, 7, 57, 61
10, 42123, Note_on_c, 7, 62, 61
10, 42124, Note_on_c, 7, 54, 61
10, 42690, Note_on_c, 7, 54, 0
10, 42713, Note_on_c, 7, 57, 0
10, 42718, Note_on_c, 7, 62, 0
10, 42957, Note_on_c, 7, 60, 60
10, 42958, Note_on_c, 7, 57, 58
10, 42959, Note_on_c, 7, 64, 58
10, 43292, Note_on_c, 7, 64, 0
10, 43294, Note_on_c, 7, 57, 0
10, 43295, Note_on_c, 7, 60, 0
10, 43347, Note_on_c, 7, 60, 58
10, 43347, Note_on_c, 7, 57, 59
10, 43347, Note_on_c, 7, 64, 60
10, 43382, Note_on_c, 7, 60, 0
10, 43383, Note_on_c, 7, 64, 0
10, 43383, Note_on_c, 7, 57, 0
10, 43559, Note_on_c, 7, 55, 58
10, 43559, Note_on_c, 7, 62, 59
10, 43559, Note_on_c, 7, 59, 60
10, 44368, Note_on_c, 7, 59, 0
10, 44463, Note_on_c, 7, 62, 0
10, 44464, Note_on_c, 7, 55, 0
10, 44666, Note_on_c, 7, 62, 59
10, 44666, Note_on_c, 7, 57, 60
10, 44667, Note_on_c, 7, 54, 61
10, 45206, Note_on_c, 7, 57, 0
10, 45208, Note_on_c, 7, 62, 0
10, 45209, Note_on_c, 7, 54, 0
10, 45239, Note_on_c, 7, 57, 60
10, 45241, Note_on_c, 7, 62, 59
10, 45241, Note_on_c, 7, 54, 60
10, 45272, Note_on_c, 7, 57, 0
10, 45275, Note_on_c, 7, 54, 0
10, 45275, Note_on_c, 7, 62, 0
10, 45479, Note_on_c, 7, 54, 59
10, 45479, Note_on_c, 7, 57, 59
10, 45480, Note_on_c, 7, 62, 58
10, 46345, Note_on_c, 7, 57, 0
10, 46345, Note_on_c, 7, 54, 0
10, 46374, Note_on_c, 7, 62, 0
10, 46827, Note_on_c, 7, 60, 60
10, 46827, Note_on_c, 7, 57, 59
10, 46827, Note_on_c, 7, 64, 59
10, 46864, Note_on_c, 7, 64, 0
10, 46865, Note_on_c, 7, 57, 0
10, 46865, Note_on_c, 7, 60, 0
10, 47161, Note_on_c, 7, 60, 61
10, 47162, Note_on_c, 7, 57, 59
10, 47162, Note_on_c, 7, 64, 61
10, 47217, Note_on_c, 7, 57, 0
10, 47218, Note_on_c, 7, 60, 0
10, 47220, Note_on_c, 7, 64, 0
10, 47400, Note_on_c, 7, 55, 60
10, 47403, Note_on_c, 7, 62, 61
10, 47403, Note_on_c, 7, 59, 62
10, 48339, Note_on_c, 7, 55, 0
10, 48352, Note_on_c, 7, 59, 0
10, 48361, Note_on_c, 7, 62, 0
10, 48479, Note_on_c, 7, 57, 59
10, 48482, Note_on_c, 7, 54, 58
10, 48482, Note_on_c, 7, 62, 57
10, 48754, Note_on_c, 7, 62, 0
10, 48755, Note_on_c, 7, 54, 0
10, 48755, Note_on_c, 7, 57, 0
10, 48841, Note_on_c, 7, 57, 61
10, 48842, Note_on_c, 7, 54, 60
10, 48842, Note_on_c, 7, 62, 59
10, 48872, Note_on_c, 7, 57, 0
10, 48874, Note_on_c, 7, 62, 0
10, 48874, Note_on_c, 7, 54, 0
10, 48962, Note_on_c, 7, 62, 57
10, 48962, Note_on_c, 7, 54, 58
10, 48963, Note_on_c, 7, 57, 57
10, 48989, Note_on_c, 7, 57, 0
10, 48990, Note_on_c, 7, 54, 0
10, 48990, Note_on_c, 7, 62, 0
10, 49083, Note_on_c, 7, 57, 62
10, 49106, Note_on_c, 7, 54, 62
10, 49106, Note_on_c, 7, 62, 60
10, 49137, Note_on_c, 7, 57, 0
10, 49145, Note_on_c, 7, 62, 0
10, 49146, Note_on_c, 7, 54, 0
10, 49439, Note_on_c, 7, 57, 63
10, 49439, Note_on_c, 7, 54, 61
10, 49440, Note_on_c, 7, 62, 61
10, 49472, Note_on_c, 7, 57, 0
10, 49474, Note_on_c, 7, 54, 0
10, 49475, Note_on_c, 7, 62, 0
10, 49564, Note_on_c, 7, 62, 59
10, 49564, Note_on_c, 7, 54, 60
10, 49564, Note_on_c, 7, 57, 61
10, 49612, Note_on_c, 7, 57, 0
10, 49613, Note_on_c, 7, 62, 0
10, 49614, Note_on_c, 7, 54, 0
10, 49799, Note_on_c, 7, 54, 60
10, 49800, Note_on_c, 7, 57, 61
10, 49801, Note_on_c, 7, 62, 59
10, 50393, Note_on_c, 7, 54, 0
10, 50395, Note_on_c, 7, 57, 0
10, 50403, Note_on_c, 7, 62, 0
10, 50640, Note_on_c, 7, 57, 56
10, 50642, Note_on_c, 7, 60, 58
10, 50644, Note_on_c, 7, 64, 57
10, 50675, Note_on_c, 7, 57, 0
10, 50695, Note_on_c, 7, 60, 0
10, 50696, Note_on_c, 7, 64, 0
10, 51001, Note_on_c, 7, 60, 60
10, 51001, Note_on_c, 7, 57, 59
10, 51001, Note_on_c, 7, 64, 60
10, 51037, Note_on_c, 7, 60, 0
10, 51053, Note_on_c, 7, 64, 0
10, 51054, Note_on_c, 7, 57, 0
10, 51602, Note_on_c, 7, 62, 61
10, 51603, Note_on_c, 7, 59, 63
10, 51604, Note_on_c, 7, 55, 59
10, 51654, Note_on_c, 7, 55, 0
10, 51654, Note_on_c, 7, 59, 0
10, 51658, Note_on_c, 7, 62, 0
10, 51957, Note_on_c, 7, 55, 60
10, 51957, Note_on_c, 7, 62, 62
10, 51957, Note_on_c, 7, 59, 61
10, 51992, Note_on_c, 7, 59, 0
10, 51994, Note_on_c, 7, 55, 0
10, 51995, Note_on_c, 7, 62, 0
10, 52802, Note_on_c, 7, 62, 60
10, 52803, Note_on_c, 7, 54, 58
10, 52803, Note_on_c, 7, 57, 58
10, 52829, Note_on_c, 7, 57, 0
10, 52830, Note_on_c, 7, 54, 0
10, 52836, Note_on_c, 7, 62, 0
10, 52920, Note_on_c, 7, 54, 60
10, 52923, Note_on_c, 7, 62, 60
10, 52924, Note_on_c, 7, 57, 60
10, 52955, Note_on_c, 7, 54, 0
10, 52972, Note_on_c, 7, 57, 0
10, 52978, Note_on_c, 7, 62, 0
10, 53280, Note_on_c, 7, 57, 61
10, 53282, Note_on_c, 7, 54, 59
10, 53282, Note_on_c, 7, 62, 59
10, 53310, Note_on_c, 7, 54, 0
10, 53313, Note_on_c, 7, 62, 0
10, 53313, Note_on_c, 7, 57, 0
10, 53401, Note_on_c, 7, 57, 61
10, 53401, Note_on_c, 7, 62, 58
10, 53403, Note_on_c, 7, 55, 59
10, 53454, Note_on_c, 7, 55, 0
10, 53454, Note_on_c, 7, 57, 0
10, 53456, Note_on_c, 7, 62, 0
10, 53641, Note_on_c, 7, 57, 62
10, 53642, Note_on_c, 7, 54, 60
10, 53642, Note_on_c, 7, 62, 59
10, 54203, Note_on_c, 7, 57, 0
10, 54206, Note_on_c, 7, 54, 0
10, 54213, Note_on_c, 7, 62, 0
10, 54841, Note_on_c, 7, 64, 61
10, 54842, Note_on_c, 7, 60, 60
10, 54842, Note_on_c, 7, 57, 59
10, 54875, Note_on_c, 7, 60, 0
10, 54892, Note_on_c, 7, 57, 0
10, 54893, Note_on_c, 7, 64, 0
10, 55198, Note_on_c, 7, 62, 61
10, 55199, Note_on_c, 7, 59, 61
10, 55199, Note_on_c, 7, 55, 59
10, 55232, Note_on_c, 7, 59, 0
10, 55234, Note_on_c, 7, 55, 0
10, 55236, Note_on_c, 7, 62, 0
10, 55801, Note_on_c, 7, 62, 62
10, 55801, Note_on_c, 7, 55, 61
10, 55801, Note_on_c, 7, 59, 61
10, 55833, Note_on_c, 7, 59, 0
10, 55835, Note_on_c, 7, 55, 0
10, 55836, Note_on_c, 7, 62, 0
10, 56042, Note_on_c, 7, 62, 58
10, 56043, Note_on_c, 7, 57, 58
10, 56043, Note_on_c, 7, 54, 58
10, 56092, Note_on_c, 7, 57, 0
10, 56093, Note_on_c, 7, 54, 0
10, 56095, Note_on_c, 7, 62, 0
10, 56401, Note_on_c, 7, 62, 59
10, 56401, Note_on_c, 7, 57, 60
10, 56401, Note_on_c, 7, 54, 59
10, 56432, Note_on_c, 7, 57, 0
10, 56432, Note_on_c, 7, 62, 0
10, 56433, Note_on_c, 7, 54, 0
10, 56639, Note_on_c, 7, 54, 60
10, 56639, Note_on_c, 7, 57, 60
10, 56641, Note_on_c, 7, 62, 59
10, 56670, Note_on_c, 7, 62, 0
10, 56672, Note_on_c, 7, 57, 0
10, 56672, Note_on_c, 7, 54, 0
10, 56764, Note_on_c, 7, 62, 59
10, 56764, Note_on_c, 7, 54, 60
10, 56764, Note_on_c, 7, 57, 60
10, 56794, Note_on_c, 7, 57, 0
10, 56811, Note_on_c, 7, 62, 0
10, 56812, Note_on_c, 7, 54, 0
10, 57117, Note_on_c, 7, 57, 63
10, 57117, Note_on_c, 7, 62, 61
10, 57118, Note_on_c, 7, 54, 60
10, 57151, Note_on_c, 7, 54, 0
10, 57153, Note_on_c, 7, 57, 0
10, 57157, Note_on_c, 7, 62, 0
10, 57239, Note_on_c, 7, 62, 60
10, 57240, Note_on_c, 7, 57, 62
10, 57241, Note_on_c, 7, 55, 61
10, 57302, Note_on_c, 7, 57, 0
10, 57303, Note_on_c, 7, 55, 0
10, 57306, Note_on_c, 7, 62, 0
10, 57476, Note_on_c, 7, 57, 61
10, 57477, Note_on_c, 7, 62, 58
10, 57477, Note_on_c, 7, 54, 60
10, 58075, Note_on_c, 7, 54, 0
10, 58080, Note_on_c, 7, 57, 0
10, 58176, Note_on_c, 7, 62, 0
10, 58348, Note_on_c, 7, 60, 63
10, 58348, Note_on_c, 7, 64, 62
10, 58348, Note_on_c, 7, 57, 60
10, 58384, Note_on_c, 7, 57, 0
10, 58386, Note_on_c, 7, 60, 0
10, 58387, Note_on_c, 7, 64, 0
10, 58680, Note_on_c, 7, 64, 63
10, 58684, Note_on_c, 7, 60, 65
10, 58684, Note_on_c, 7, 57, 63
10, 58718, Note_on_c, 7, 64, 0
10, 58734, Note_on_c, 7, 60, 0
10, 58736, Note_on_c, 7, 57, 0
10, 59041, Note_on_c, 7, 62, 60
10, 59042, Note_on_c, 7, 59, 60
10, 59042, Note_on_c, 7, 55, 59
10, 59097, Note_on_c, 7, 59, 0
10, 59100, Note_on_c, 7, 55, 0
10, 59103, Note_on_c, 7, 62, 0
10, 59403, Note_on_c, 7, 59, 63
10, 59403, Note_on_c, 7, 62, 63
10, 59404, Note_on_c, 7, 55, 60
10, 60002, Note_on_c, 7, 62, 0
10, 60002, Note_on_c, 7, 59, 0
10, 60005, Note_on_c, 7, 55, 0
10, 60239, Note_on_c, 7, 57, 61
10, 60239, Note_on_c, 7, 62, 63
10, 60239, Note_on_c, 7, 66, 63
10, 60274, Note_on_c, 7, 62, 0
10, 60276, Note_on_c, 7, 57, 0
10, 60294, Note_on_c, 7, 66, 0
10, 60599, Note_on_c, 7, 62, 64
10, 60601, Note_on_c, 7, 57, 62
10, 60601, Note_on_c, 7, 66, 63
10, 60636, Note_on_c, 7, 62, 0
10, 60653, Note_on_c, 7, 57, 0
10, 60655, Note_on_c, 7, 66, 0
10, 60961, Note_on_c, 7, 62, 65
10, 60961, Note_on_c, 7, 57, 62
10, 60962, Note_on_c, 7, 66, 62
10, 60995, Note_on_c, 7, 62, 0
10, 60996, Note_on_c, 7, 57, 0
10, 61012, Note_on_c, 7, 66, 0
10, 61079, Note_on_c, 7, 62, 60
10, 61081, Note_on_c, 7, 66, 58
10, 61081, Note_on_c, 7, 57, 57
10, 61113, Note_on_c, 7, 57, 0
10, 61117, Note_on_c, 7, 62, 0
10, 61134, Note_on_c, 7, 66, 0
10, 61198, Note_on_c, 7, 62, 62
10, 61199, Note_on_c, 7, 66, 59
10, 61199, Note_on_c, 7, 59, 60
10, 61233, Note_on_c, 7, 62, 0
10, 61235, Note_on_c, 7, 59, 0
10, 61236, Note_on_c, 7, 66, 0
10, 61321, Note_on_c, 7, 66, 59
10, 61321, Note_on_c, 7, 62, 64
10, 61322, Note_on_c, 7, 57, 62
10, 61860, Note_on_c, 7, 57, 0
10, 61865, Note_on_c, 7, 62, 0
10, 61884, Note_on_c, 7, 66, 0
10, 62186, Note_on_c, 7, 69, 66
10, 62187, Note_on_c, 7, 64, 63
10, 62187, Note_on_c, 7, 72, 67
10, 62224, Note_on_c, 7, 69, 0
10, 62225, Note_on_c, 7, 72, 0
10, 62226, Note_on_c, 7, 64, 0
10, 62517, Note_on_c, 7, 72, 62
10, 62517, Note_on_c, 7, 69, 65
10, 62518, Note_on_c, 7, 64, 61
10, 62554, Note_on_c, 7, 64, 0
10, 62555, Note_on_c, 7, 69, 0
10, 62555, Note_on_c, 7, 72, 0
10, 62879, Note_on_c, 7, 62, 58
10, 62879, Note_on_c, 7, 71, 60
10, 62879, Note_on_c, 7, 67, 59
10, 62911, Note_on_c, 7, 67, 0
10, 62913, Note_on_c, 7, 62, 0
10, 62914, Note_on_c, 7, 71, 0
10, 63000, Note_on_c, 7, 67, 60
10, 63001, Note_on_c, 7, 71, 60
10, 63002, Note_on_c, 7, 62, 58
10, 63036, Note_on_c, 7, 62, 0
10, 63037, Note_on_c, 7, 67, 0
10, 63052, Note_on_c, 7, 71, 0
10, 63242, Note_on_c, 7, 71, 62
10, 63242, Note_on_c, 7, 67, 62
10, 63242, Note_on_c, 7, 62, 59
10, 63807, Note_on_c, 7, 71, 0
10, 63816, Note_on_c, 7, 67, 0
10, 63837, Note_on_c, 7, 62, 0
10, 64080, Note_on_c, 7, 66, 61
10, 64081, Note_on_c, 7, 62, 59
10, 64081, Note_on_c, 7, 69, 60
10, 64133, Note_on_c, 7, 62, 0
10, 64133, Note_on_c, 7, 66, 0
10, 64134, Note_on_c, 7, 69, 0
10, 64319, Note_on_c, 7, 66, 62
10, 64321, Note_on_c, 7, 69, 60
10, 64322, Note_on_c, 7, 62, 57
10, 64352, Note_on_c, 7, 62, 0
10, 64352, Note_on_c, 7, 66, 0
10, 64354, Note_on_c, 7, 69, 0
10, 64442, Note_on_c, 7, 69, 61
10, 64442, Note_on_c, 7, 66, 62
10, 64442, Note_on_c, 7, 62, 59
10, 64494, Note_on_c, 7, 62, 0
10, 64494, Note_on_c, 7, 66, 0
10, 64495, Note_on_c, 7, 69, 0
10, 64802, Note_on_c, 7, 66, 65
10, 64803, Note_on_c, 7, 62, 59
10, 64804, Note_on_c, 7, 69, 59
10, 64854, Note_on_c, 7, 69, 0
10, 64856, Note_on_c, 7, 62, 0
10, 64857, Note_on_c, 7, 66, 0
10, 64922, Note_on_c, 7, 62, 58
10, 64923, Note_on_c, 7, 67, 63
10, 64946, Note_on_c, 7, 69, 56
10, 64984, Note_on_c, 7, 69, 0
10, 65009, Note_on_c, 7, 67, 0
10, 65039, Note_on_c, 7, 62, 0
10, 65160, Note_on_c, 7, 62, 60
10, 65161, Note_on_c, 7, 69, 62
10, 65162, Note_on_c, 7, 66, 62
10, 65693, Note_on_c, 7, 62, 0
10, 65696, Note_on_c, 7, 66, 0
10, 65698, Note_on_c, 7, 69, 0
10, 66001, Note_on_c, 7, 64, 62
10, 66001, Note_on_c, 7, 72, 66
10, 66002, Note_on_c, 7, 69, 64
10, 66034, Note_on_c, 7, 69, 0
10, 66053, Note_on_c, 7, 72, 0
10, 66054, Note_on_c, 7, 64, 0
10, 66362, Note_on_c, 7, 72, 65
10, 66362, Note_on_c, 7, 69, 65
10, 66362, Note_on_c, 7, 64, 61
10, 66413, Note_on_c, 7, 64, 0
10, 66413, Note_on_c, 7, 69, 0
10, 66414, Note_on_c, 7, 72, 0
10, 66722, Note_on_c, 7, 67, 63
10, 66722, Note_on_c, 7, 71, 63
10, 66723, Note_on_c, 7, 62, 60
10, 67530, Note_on_c, 7, 71, 0
10, 67531, Note_on_c, 7, 67, 0
10, 67555, Note_on_c, 7, 62, 0
10, 67919, Note_on_c, 7, 66, 60
10, 67919, Note_on_c, 7, 62, 57
10, 67919, Note_on_c, 7, 69, 59
10, 67954, Note_on_c, 7, 66, 0
10, 67955, Note_on_c, 7, 69, 0
10, 67955, Note_on_c, 7, 62, 0
10, 68041, Note_on_c, 7, 69, 59
10, 68042, Note_on_c, 7, 66, 59
10, 68043, Note_on_c, 7, 62, 56
10, 68071, Note_on_c, 7, 66, 0
10, 68072, Note_on_c, 7, 62, 0
10, 68077, Note_on_c, 7, 69, 0
10, 68160, Note_on_c, 7, 69, 61
10, 68160, Note_on_c, 7, 66, 61
10, 68162, Note_on_c, 7, 62, 57
10, 68193, Note_on_c, 7, 62, 0
10, 68193, Note_on_c, 7, 66, 0
10, 68195, Note_on_c, 7, 69, 0
10, 68283, Note_on_c, 7, 69, 61
10, 68283, Note_on_c, 7, 66, 62
10, 68284, Note_on_c, 7, 62, 60
10, 68332, Note_on_c, 7, 62, 0
10, 68332, Note_on_c, 7, 66, 0
10, 68333, Note_on_c, 7, 69, 0
10, 68638, Note_on_c, 7, 66, 64
10, 68639, Note_on_c, 7, 62, 59
10, 68642, Note_on_c, 7, 69, 59
10, 68670, Note_on_c, 7, 69, 0
10, 68676, Note_on_c, 7, 62, 0
10, 68678, Note_on_c, 7, 66, 0
10, 68761, Note_on_c, 7, 62, 61
10, 68763, Note_on_c, 7, 67, 65
10, 68811, Note_on_c, 7, 67, 0
10, 68819, Note_on_c, 7, 62, 0
10, 68997, Note_on_c, 7, 69, 63
10, 68997, Note_on_c, 7, 62, 59
10, 68998, Note_on_c, 7, 66, 64
10, 69390, Note_on_c, 7, 62, 0
10, 69394, Note_on_c, 7, 66, 0
10, 69415, Note_on_c, 7, 69, 0
10, 69866, Note_on_c, 7, 64, 61
10, 69866, Note_on_c, 7, 69, 66
10, 69866, Note_on_c, 7, 72, 66
10, 69901, Note_on_c, 7, 69, 0
10, 69902, Note_on_c, 7, 72, 0
10, 69903, Note_on_c, 7, 64, 0
10, 70199, Note_on_c, 7, 72, 62
10, 70199, Note_on_c, 7, 69, 65
10, 70200, Note_on_c, 7, 64, 61
10, 70221, Note_on_c, 7, 64, 0
10, 70234, Note_on_c, 7, 72, 0
10, 70235, Note_on_c, 7, 69, 0
10, 70561, Note_on_c, 7, 67, 64
10, 70561, Note_on_c, 7, 71, 62
10, 70562, Note_on_c, 7, 62, 58
10, 70594, Note_on_c, 7, 62, 0
10, 70595, Note_on_c, 7, 67, 0
10, 70612, Note_on_c, 7, 71, 0
10, 70921, Note_on_c, 7, 71, 60
10, 70921, Note_on_c, 7, 62, 58
10, 70922, Note_on_c, 7, 67, 59
10, 70950, Note_on_c, 7, 67, 0
10, 70953, Note_on_c, 7, 62, 0
10, 70955, Note_on_c, 7, 71, 0
10, 71187, Note_on_c, 7, 67, 63
10, 71187, Note_on_c, 7, 62, 60
10, 71188, Note_on_c, 7, 71, 61
10, 71221, Note_on_c, 7, 71, 0
10, 71221, Note_on_c, 7, 67, 0
10, 71222, Note_on_c, 7, 62, 0
10, 71761, Note_on_c, 7, 66, 62
10, 71762, Note_on_c, 7, 69, 61
10, 71762, Note_on_c, 7, 62, 60
10, 71813, Note_on_c, 7, 66, 0
10, 71814, Note_on_c, 7, 62, 0
10, 71816, Note_on_c, 7, 69, 0
10, 71998, Note_on_c, 7, 66, 60
10, 71999, Note_on_c, 7, 69, 58
10, 72000, Note_on_c, 7, 62, 57
10, 72029, Note_on_c, 7, 62, 0
10, 72029, Note_on_c, 7, 69, 0
10, 72029, Note_on_c, 7, 66, 0
10, 72122, Note_on_c, 7, 66, 62
10, 72122, Note_on_c, 7, 69, 61
10, 72122, Note_on_c, 7, 62, 61
10, 72155, Note_on_c, 7, 66, 0
10, 72172, Note_on_c, 7, 62, 0
10, 72172, Note_on_c, 7, 69, 0
10, 72480, Note_on_c, 7, 69, 59
10, 72483, Note_on_c, 7, 66, 62
10, 72483, Note_on_c, 7, 62, 59
10, 72514, Note_on_c, 7, 69, 0
10, 72533, Note_on_c, 7, 66, 0
10, 72534, Note_on_c, 7, 62, 0
10, 72603, Note_on_c, 7, 62, 58
10, 72604, Note_on_c, 7, 67, 63
10, 72654, Note_on_c, 7, 67, 0
10, 72657, Note_on_c, 7, 62, 0
10, 72843, Note_on_c, 7, 69, 62
10, 72843, Note_on_c, 7, 66, 63
10, 72844, Note_on_c, 7, 62, 60
10, 73409, Note_on_c, 7, 62, 0
10, 73410, Note_on_c, 7, 66, 0
10, 73431, Note_on_c, 7, 69, 0
10, 73682, Note_on_c, 7, 64, 59
10, 73682, Note_on_c, 7, 72, 60
10, 73683, Note_on_c, 7, 69, 58
10, 73712, Note_on_c, 7, 69, 0
10, 73734, Note_on_c, 7, 72, 0
10, 73734, Note_on_c, 7, 64, 0
10, 74040, Note_on_c, 7, 64, 60
10, 74043, Note_on_c, 7, 72, 63
10, 74043, Note_on_c, 7, 69, 63
10, 74075, Note_on_c, 7, 64, 0
10, 74091, Note_on_c, 7, 69, 0
10, 74093, Note_on_c, 7, 72, 0
10, 74400, Note_on_c, 7, 67, 63
10, 74402, Note_on_c, 7, 71, 62
10, 74402, Note_on_c, 7, 62, 59
10, 74435, Note_on_c, 7, 62, 0
10, 74436, Note_on_c, 7, 71, 0
10, 74436, Note_on_c, 7, 67, 0
10, 74761, Note_on_c, 7, 67, 61
10, 74761, Note_on_c, 7, 71, 61
10, 74761, Note_on_c, 7, 62, 60
10, 75306, Note_on_c, 7, 71, 0
10, 75323, Note_on_c, 7, 67, 0
10, 75333, Note_on_c, 7, 62, 0
10, 75598, Note_on_c, 7, 62, 59
10, 75599, Note_on_c, 7, 66, 61
10, 75599, Note_on_c, 7, 69, 61
10, 75634, Note_on_c, 7, 66, 0
10, 75636, Note_on_c, 7, 62, 0
10, 75637, Note_on_c, 7, 69, 0
10, 75841, Note_on_c, 7, 66, 56
10, 75841, Note_on_c, 7, 62, 55
10, 75867, Note_on_c, 7, 66, 0
10, 75868, Note_on_c, 7, 62, 0
10, 75962, Note_on_c, 7, 66, 62
10, 75962, Note_on_c, 7, 62, 60
10, 75962, Note_on_c, 7, 69, 61
10, 75995, Note_on_c, 7, 66, 0
10, 76011, Note_on_c, 7, 69, 0
10, 76013, Note_on_c, 7, 62, 0
10, 76319, Note_on_c, 7, 66, 61
10, 76321, Note_on_c, 7, 62, 59
10, 76322, Note_on_c, 7, 69, 57
10, 76350, Note_on_c, 7, 69, 0
10, 76354, Note_on_c, 7, 66, 0
10, 76356, Note_on_c, 7, 62, 0
10, 76441, Note_on_c, 7, 62, 60
10, 76443, Note_on_c, 7, 67, 61
10, 76497, Note_on_c, 7, 67, 0
10, 76498, Note_on_c, 7, 62, 0
10, 76681, Note_on_c, 7, 66, 63
10, 76681, Note_on_c, 7, 62, 61
10, 76681, Note_on_c, 7, 69, 62
10, 77285, Note_on_c, 7, 62, 0
10, 77305, Note_on_c, 7, 66, 0
10, 77308, Note_on_c, 7, 69, 0
10, 77546, Note_on_c, 7, 64, 59
10, 77546, Note_on_c, 7, 72, 64
10, 77547, Note_on_c, 7, 69, 62
10, 77581, Note_on_c, 7, 69, 0
10, 77582, Note_on_c, 7, 72, 0
10, 77584, Note_on_c, 7, 64, 0
10, 77882, Note_on_c, 7, 69, 63
10, 77882, Note_on_c, 7, 72, 61
10, 77882, Note_on_c, 7, 64, 60
10, 77914, Note_on_c, 7, 72, 0
10, 77914, Note_on_c, 7, 69, 0
10, 77932, Note_on_c, 7, 64, 0
10, 78239, Note_on_c, 7, 67, 62
10, 78239, Note_on_c, 7, 71, 61
10, 78241, Note_on_c, 7, 62, 59
10, 78275, Note_on_c, 7, 62, 0
10, 78275, Note_on_c, 7, 67, 0
10, 78293, Note_on_c, 7, 71, 0
10, 78601, Note_on_c, 7, 62, 61
10, 78601, Note_on_c, 7, 67, 60
10, 78601, Note_on_c, 7, 71, 60
10, 79173, Note_on_c, 7, 71, 0
10, 79177, Note_on_c, 7, 67, 0
10, 79200, Note_on_c, 7, 62, 0
10, 79440, Note_on_c, 7, 62, 60
10, 79443, Note_on_c, 7, 66, 62
10, 79443, Note_on_c, 7, 69, 61
10, 79475, Note_on_c, 7, 62, 0
10, 79493, Note_on_c, 7, 66, 0
10, 79495, Note_on_c, 7, 69, 0
10, 79681, Note_on_c, 7, 66, 58
10, 79683, Note_on_c, 7, 62, 55
10, 79709, Note_on_c, 7, 66, 0
10, 79799, Note_on_c, 7, 62, 0
10, 79802, Note_on_c, 7, 69, 61
10, 79802, Note_on_c, 7, 66, 63
10, 79802, Note_on_c, 7, 62, 61
10, 79852, Note_on_c, 7, 66, 0
10, 79853, Note_on_c, 7, 62, 0
10, 79855, Note_on_c, 7, 69, 0
10, 80158, Note_on_c, 7, 66, 63
10, 80158, Note_on_c, 7, 62, 59
10, 80159, Note_on_c, 7, 69, 59
10, 80193, Note_on_c, 7, 66, 0
10, 80194, Note_on_c, 7, 69, 0
10, 80194, Note_on_c, 7, 62, 0
10, 80279, Note_on_c, 7, 69, 60
10, 80281, Note_on_c, 7, 62, 59
10, 80281, Note_on_c, 7, 66, 60
10, 80317, Note_on_c, 7, 66, 0
10, 80333, Note_on_c, 7, 62, 0
10, 80335, Note_on_c, 7, 69, 0
10, 80523, Note_on_c, 7, 66, 63
10, 80523, Note_on_c, 7, 62, 61
10, 80523, Note_on_c, 7, 69, 62
10, 81056, Note_on_c, 7, 62, 0
10, 81059, Note_on_c, 7, 66, 0
10, 81064, Note_on_c, 7, 69, 0
10, 81360, Note_on_c, 7, 69, 58
10, 81363, Note_on_c, 7, 64, 60
10, 81363, Note_on_c, 7, 72, 59
10, 81395, Note_on_c, 7, 69, 0
10, 81416, Note_on_c, 7, 72, 0
10, 81417, Note_on_c, 7, 64, 0
10, 81722, Note_on_c, 7, 72, 64
10, 81723, Note_on_c, 7, 69, 65
10, 81723, Note_on_c, 7, 64, 61
10, 81773, Note_on_c, 7, 64, 0
10, 81773, Note_on_c, 7, 69, 0
10, 81774, Note_on_c, 7, 72, 0
10, 82080, Note_on_c, 7, 62, 58
10, 82084, Note_on_c, 7, 71, 61
10, 82084, Note_on_c, 7, 67, 60
10, 82115, Note_on_c, 7, 62, 0
10, 82134, Note_on_c, 7, 67, 0
10, 82140, Note_on_c, 7, 71, 0
10, 82322, Note_on_c, 7, 67, 56
10, 82322, Note_on_c, 7, 71, 55
10, 82347, Note_on_c, 7, 67, 0
10, 82348, Note_on_c, 7, 71, 0
10, 82442, Note_on_c, 7, 67, 61
10, 82442, Note_on_c, 7, 71, 63
10, 82442, Note_on_c, 7, 62, 61
10, 82800, Note_on_c, 7, 62, 0
10, 82806, Note_on_c, 7, 67, 0
10, 82825, Note_on_c, 7, 71, 0
10, 83279, Note_on_c, 7, 69, 62
10, 83279, Note_on_c, 7, 74, 61
10, 83280, Note_on_c, 7, 66, 60
10, 83315, Note_on_c, 7, 69, 0
10, 83333, Note_on_c, 7, 66, 0
10, 83333, Note_on_c, 7, 74, 0
10, 83639, Note_on_c, 7, 69, 64
10, 83639, Note_on_c, 7, 66, 62
10, 83639, Note_on_c, 7, 74, 64
10, 83697, Note_on_c, 7, 66, 0
10, 83697, Note_on_c, 7, 69, 0
10, 83701, Note_on_c, 7, 74, 0
10, 84001, Note_on_c, 7, 69, 63
10, 84001, Note_on_c, 7, 66, 61
10, 84002, Note_on_c, 7, 74, 63
10, 84035, Note_on_c, 7, 66, 0
10, 84035, Note_on_c, 7, 69, 0
10, 84036, Note_on_c, 7, 74, 0
10, 84122, Note_on_c, 7, 74, 61
10, 84122, Note_on_c, 7, 66, 61
10, 84123, Note_on_c, 7, 69, 63
10, 84173, Note_on_c, 7, 69, 0
10, 84174, Note_on_c, 7, 66, 0
10, 84175, Note_on_c, 7, 74, 0
10, 84362, Note_on_c, 7, 74, 66
10, 84363, Note_on_c, 7, 69, 66
10, 84363, Note_on_c, 7, 66, 63
10, 84959, Note_on_c, 7, 66, 0
10, 84959, Note_on_c, 7, 74, 0
10, 85051, Note_on_c, 7, 69, 0
10, 85200, Note_on_c, 7, 72, 61
10, 85200, Note_on_c, 7, 64, 60
10, 85203, Note_on_c, 7, 69, 62
10, 85238, Note_on_c, 7, 72, 0
10, 85240, Note_on_c, 7, 64, 0
10, 85259, Note_on_c, 7, 69, 0
10, 85561, Note_on_c, 7, 64, 58
10, 85562, Note_on_c, 7, 69, 59
10, 85562, Note_on_c, 7, 72, 58
10, 85595, Note_on_c, 7, 72, 0
10, 85596, Note_on_c, 7, 69, 0
10, 85613, Note_on_c, 7, 64, 0
10, 86282, Note_on_c, 7, 67, 60
10, 86283, Note_on_c, 7, 71, 60
10, 86284, Note_on_c, 7, 62, 57
10, 86316, Note_on_c, 7, 67, 0
10, 86331, Note_on_c, 7, 62, 0
10, 86335, Note_on_c, 7, 71, 0
10, 86636, Note_on_c, 7, 62, 58
10, 86637, Note_on_c, 7, 67, 59
10, 86637, Note_on_c, 7, 71, 60
10, 86669, Note_on_c, 7, 67, 0
10, 86671, Note_on_c, 7, 71, 0
10, 86672, Note_on_c, 7, 62, 0
10, 87478, Note_on_c, 7, 57, 60
10, 87478, Note_on_c, 7, 62, 59
10, 87479, Note_on_c, 7, 54, 57
10, 87513, Note_on_c, 7, 54, 0
10, 87515, Note_on_c, 7, 57, 0
10, 87517, Note_on_c, 7, 62, 0
10, 87841, Note_on_c, 7, 57, 60
10, 87842, Note_on_c, 7, 62, 59
10, 87842, Note_on_c, 7, 54, 59
10, 87874, Note_on_c, 7, 54, 0
10, 87874, Note_on_c, 7, 62, 0
10, 87874, Note_on_c, 7, 57, 0
10, 87962, Note_on_c, 7, 57, 61
10, 87963, Note_on_c, 7, 62, 60
10, 87964, Note_on_c, 7, 54, 60
10, 88011, Note_on_c, 7, 54, 0
10, 88011, Note_on_c, 7, 57, 0
10, 88013, Note_on_c, 7, 62, 0
10, 88199, Note_on_c, 7, 57, 61
10, 88199, Note_on_c, 7, 54, 59
10, 88200, Note_on_c, 7, 62, 59
10, 88684, Note_on_c, 7, 62, 0
10, 88765, Note_on_c, 7, 54, 0
10, 88766, Note_on_c, 7, 57, 0
10, 89043, Note_on_c, 7, 60, 59
10, 89043, Note_on_c, 7, 57, 58
10, 89068, Note_on_c, 7, 64, 55
10, 89550, Note_on_c, 7, 64, 0
10, 89555, Note_on_c, 7, 57, 0
10, 89571, Note_on_c, 7, 60, 0
10, 89641, Note_on_c, 7, 55, 58
10, 89643, Note_on_c, 7, 62, 60
10, 89643, Note_on_c, 7, 59, 60
10, 90593, Note_on_c, 7, 59, 0
10, 90594, Note_on_c, 7, 55, 0
10, 90595, Note_on_c, 7, 62, 0
10, 90720, Note_on_c, 7, 57, 56
10, 90720, Note_on_c, 7, 54, 57
10, 90721, Note_on_c, 7, 62, 56
10, 91160, Note_on_c, 7, 57, 0
10, 91161, Note_on_c, 7, 54, 0
10, 91256, Note_on_c, 7, 62, 0
10, 91319, Note_on_c, 7, 54, 59
10, 91321, Note_on_c, 7, 62, 58
10, 91321, Note_on_c, 7, 57, 60
10, 91373, Note_on_c, 7, 57, 0
10, 91374, Note_on_c, 7, 54, 0
10, 91376, Note_on_c, 7, 62, 0
10, 91678, Note_on_c, 7, 62, 59
10, 91678, Note_on_c, 7, 57, 61
10, 91679, Note_on_c, 7, 54, 60
10, 91715, Note_on_c, 7, 57, 0
10, 91717, Note_on_c, 7, 54, 0
10, 91734, Note_on_c, 7, 62, 0
10, 91799, Note_on_c, 7, 57, 59
10, 91799, Note_on_c, 7, 54, 58
10, 91799, Note_on_c, 7, 62, 57
10, 91835, Note_on_c, 7, 57, 0
10, 91837, Note_on_c, 7, 54, 0
10, 91855, Note_on_c, 7, 62, 0
10, 92037, Note_on_c, 7, 62, 61
10, 92037, Note_on_c, 7, 57, 62
10, 92038, Note_on_c, 7, 54, 60
10, 92615, Note_on_c, 7, 54, 0
10, 92617, Note_on_c, 7, 57, 0
10, 92636, Note_on_c, 7, 62, 0
10, 92880, Note_on_c, 7, 64, 59
10, 92880, Note_on_c, 7, 57, 59
10, 92884, Note_on_c, 7, 60, 59
10, 93370, Note_on_c, 7, 64, 0
10, 93393, Note_on_c, 7, 57, 0
10, 93419, Note_on_c, 7, 60, 0
10, 93479, Note_on_c, 7, 55, 59
10, 93482, Note_on_c, 7, 62, 59
10, 93482, Note_on_c, 7, 59, 58
10, 94383, Note_on_c, 7, 62, 0
10, 94403, Note_on_c, 7, 59, 0
10, 94407, Note_on_c, 7, 55, 0
10, 94801, Note_on_c, 7, 57, 58
10, 94801, Note_on_c, 7, 54, 57
10, 94802, Note_on_c, 7, 62, 57
10, 94837, Note_on_c, 7, 57, 0
10, 94853, Note_on_c, 7, 54, 0
10, 94855, Note_on_c, 7, 62, 0
10, 95160, Note_on_c, 7, 54, 58
10, 95160, Note_on_c, 7, 62, 57
10, 95163, Note_on_c, 7, 57, 60
10, 95200, Note_on_c, 7, 62, 0
10, 95200, Note_on_c, 7, 54, 0
10, 95219, Note_on_c, 7, 57, 0
10, 95519, Note_on_c, 7, 62, 56
10, 95520, Note_on_c, 7, 54, 63
10, 95547, Note_on_c, 7, 62, 0
10, 95576, Note_on_c, 7, 54, 0
10, 95637, Note_on_c, 7, 55, 61
10, 95641, Note_on_c, 7, 62, 32
10, 95668, Note_on_c, 7, 62, 0
10, 95765, Note_on_c, 7, 55, 0
10, 95876, Note_on_c, 7, 54, 61
10, 95876, Note_on_c, 7, 57, 60
10, 95877, Note_on_c, 7, 62, 57
10, 96481, Note_on_c, 7, 54, 0
10, 96489, Note_on_c, 7, 57, 0
10, 96504, Note_on_c, 7, 62, 0
10, 96747, Note_on_c, 7, 60, 59
10, 96747, Note_on_c, 7, 57, 59
10, 96749, Note_on_c, 7, 64, 59
10, 96786, Note_on_c, 7, 64, 0
10, 96789, Note_on_c, 7, 60, 0
10, 96805, Note_on_c, 7, 57, 0
10, 97078, Note_on_c, 7, 57, 60
10, 97078, Note_on_c, 7, 60, 60
10, 97078, Note_on_c, 7, 64, 61
10, 97113, Note_on_c, 7, 60, 0
10, 97114, Note_on_c, 7, 57, 0
10, 97115, Note_on_c, 7, 64, 0
10, 97441, Note_on_c, 7, 59, 58
10, 97441, Note_on_c, 7, 55, 57
10, 97441, Note_on_c, 7, 62, 58
10, 97736, Note_on_c, 7, 62, 0
10, 97736, Note_on_c, 7, 59, 0
10, 97738, Note_on_c, 7, 55, 0
10, 97799, Note_on_c, 7, 59, 60
10, 97801, Note_on_c, 7, 62, 59
10, 97801, Note_on_c, 7, 55, 59
10, 97834, Note_on_c, 7, 59, 0
10, 97835, Note_on_c, 7, 55, 0
10, 97853, Note_on_c, 7, 62, 0
10, 98157, Note_on_c, 7, 59, 62
10, 98157, Note_on_c, 7, 55, 58
10, 98158, Note_on_c, 7, 62, 61
10, 98349, Note_on_c, 7, 59, 0
10, 98365, Note_on_c, 7, 62, 0
10, 98371, Note_on_c, 7, 55, 0
10, 98641, Note_on_c, 7, 54, 59
10, 98642, Note_on_c, 7, 57, 59
10, 98642, Note_on_c, 7, 62, 57
10, 98692, Note_on_c, 7, 57, 0
10, 98694, Note_on_c, 7, 62, 0
10, 98695, Note_on_c, 7, 54, 0
10, 98997, Note_on_c, 7, 54, 62
10, 98998, Note_on_c, 7, 57, 63
10, 98998, Note_on_c, 7, 62, 61
10, 99032, Note_on_c, 7, 57, 0
10, 99033, Note_on_c, 7, 62, 0
10, 99034, Note_on_c, 7, 54, 0
10, 99356, Note_on_c, 7, 54, 61
10, 99357, Note_on_c, 7, 57, 61
10, 99358, Note_on_c, 7, 62, 59
10, 99392, Note_on_c, 7, 54, 0
10, 99393, Note_on_c, 7, 57, 0
10, 99397, Note_on_c, 7, 62, 0
10, 99478, Note_on_c, 7, 62, 58
10, 99479, Note_on_c, 7, 55, 60
10, 99567, Note_on_c, 7, 55, 0
10, 99568, Note_on_c, 7, 57, 59
10, 99572, Note_on_c, 7, 62, 0
10, 99593, Note_on_c, 7, 57, 0
10, 99721, Note_on_c, 7, 57, 62
10, 99721, Note_on_c, 7, 62, 60
10, 99721, Note_on_c, 7, 54, 61
10, 100282, Note_on_c, 7, 54, 0
10, 100287, Note_on_c, 7, 57, 0
10, 100312, Note_on_c, 7, 62, 0
10, 100588, Note_on_c, 7, 64, 60
10, 100588, Note_on_c, 7, 69, 62
10, 100588, Note_on_c, 7, 72, 59
10, 100621, Note_on_c, 7, 72, 0
10, 100622, Note_on_c, 7, 69, 0
10, 100624, Note_on_c, 7, 64, 0
10, 100919, Note_on_c, 7, 72, 65
10, 100919, Note_on_c, 7, 69, 68
10, 100919, Note_on_c, 7, 64, 62
10, 100954, Note_on_c, 7, 72, 0
10, 100955, Note_on_c, 7, 64, 0
10, 100956, Note_on_c, 7, 69, 0
10, 101279, Note_on_c, 7, 67, 59
10, 101279, Note_on_c, 7, 71, 60
10, 101280, Note_on_c, 7, 62, 55
10, 101280, Note_on_c, 7, 62, 0
10, 101309, Note_on_c, 7, 67, 0
10, 101312, Note_on_c, 7, 71, 0
10, 101401, Note_on_c, 7, 67, 63
10, 101402, Note_on_c, 7, 62, 59
10, 101402, Note_on_c, 7, 71, 61
10, 101434, Note_on_c, 7, 62, 0
10, 101434, Note_on_c, 7, 67, 0
10, 101436, Note_on_c, 7, 71, 0
10, 101641, Note_on_c, 7, 67, 63
10, 101642, Note_on_c, 7, 71, 63
10, 101643, Note_on_c, 7, 62, 63
10, 102233, Note_on_c, 7, 71, 0
10, 102239, Note_on_c, 7, 67, 0
10, 102265, Note_on_c, 7, 62, 0
10, 102479, Note_on_c, 7, 66, 60
10, 102481, Note_on_c, 7, 69, 57
10, 102481, Note_on_c, 7, 62, 57
10, 102515, Note_on_c, 7, 69, 0
10, 102515, Note_on_c, 7, 66, 0
10, 102516, Note_on_c, 7, 62, 0
10, 102600, Note_on_c, 7, 66, 61
10, 102601, Note_on_c, 7, 62, 58
10, 102602, Note_on_c, 7, 69, 58
10, 102633, Note_on_c, 7, 69, 0
10, 102633, Note_on_c, 7, 66, 0
10, 102634, Note_on_c, 7, 62, 0
10, 102720, Note_on_c, 7, 66, 61
10, 102720, Note_on_c, 7, 69, 59
10, 102722, Note_on_c, 7, 62, 58
10, 102754, Note_on_c, 7, 62, 0
10, 102754, Note_on_c, 7, 66, 0
10, 102773, Note_on_c, 7, 69, 0
10, 102839, Note_on_c, 7, 66, 61
10, 102839, Note_on_c, 7, 69, 61
10, 102841, Note_on_c, 7, 62, 58
10, 102872, Note_on_c, 7, 66, 0
10, 102873, Note_on_c, 7, 62, 0
10, 102875, Note_on_c, 7, 69, 0
10, 102960, Note_on_c, 7, 62, 59
10, 102960, Note_on_c, 7, 69, 60
10, 102961, Note_on_c, 7, 66, 61
10, 102995, Note_on_c, 7, 66, 0
10, 102995, Note_on_c, 7, 69, 0
10, 102995, Note_on_c, 7, 62, 0
10, 103200, Note_on_c, 7, 66, 65
10, 103202, Note_on_c, 7, 62, 61
10, 103202, Note_on_c, 7, 69, 62
10, 103252, Note_on_c, 7, 69, 0
10, 103252, Note_on_c, 7, 62, 0
10, 103255, Note_on_c, 7, 66, 0
10, 103320, Note_on_c, 7, 67, 64
10, 103323, Note_on_c, 7, 62, 62
10, 103359, Note_on_c, 7, 67, 0
10, 103382, Note_on_c, 7, 62, 0
10, 103562, Note_on_c, 7, 69, 63
10, 103562, Note_on_c, 7, 66, 63
10, 103563, Note_on_c, 7, 62, 62
10, 104125, Note_on_c, 7, 62, 0
10, 104131, Note_on_c, 7, 66, 0
10, 104135, Note_on_c, 7, 69, 0
10, 104429, Note_on_c, 7, 69, 65
10, 104429, Note_on_c, 7, 72, 65
10, 104431, Note_on_c, 7, 64, 61
10, 104462, Note_on_c, 7, 72, 0
10, 104464, Note_on_c, 7, 64, 0
10, 104464, Note_on_c, 7, 69, 0
10, 104548, Note_on_c, 7, 64, 29
10, 104578, Note_on_c, 7, 64, 0
10, 104758, Note_on_c, 7, 69, 70
10, 104759, Note_on_c, 7, 72, 68
10, 104759, Note_on_c, 7, 64, 63
10, 104791, Note_on_c, 7, 72, 0
10, 104793, Note_on_c, 7, 69, 0
10, 104794, Note_on_c, 7, 64, 0
10, 105122, Note_on_c, 7, 67, 62
10, 105122, Note_on_c, 7, 71, 62
10, 105122, Note_on_c, 7, 62, 59
10, 105150, Note_on_c, 7, 67, 0
10, 105154, Note_on_c, 7, 62, 0
10, 105154, Note_on_c, 7, 71, 0
10, 105241, Note_on_c, 7, 67, 61
10, 105242, Note_on_c, 7, 71, 59
10, 105242, Note_on_c, 7, 62, 57
10, 105270, Note_on_c, 7, 71, 0
10, 105271, Note_on_c, 7, 62, 0
10, 105273, Note_on_c, 7, 67, 0
10, 105479, Note_on_c, 7, 62, 63
10, 105479, Note_on_c, 7, 67, 65
10, 105479, Note_on_c, 7, 71, 64
10, 106082, Note_on_c, 7, 71, 0
10, 106087, Note_on_c, 7, 67, 0
10, 106104, Note_on_c, 7, 62, 0
10, 106438, Note_on_c, 7, 62, 58
10, 106468, Note_on_c, 7, 62, 0
10, 106557, Note_on_c, 7, 66, 63
10, 106558, Note_on_c, 7, 69, 62
10, 106558, Note_on_c, 7, 62, 58
10, 106588, Note_on_c, 7, 62, 0
10, 106589, Note_on_c, 7, 66, 0
10, 106590, Note_on_c, 7, 69, 0
10, 106682, Note_on_c, 7, 69, 65
10, 106682, Note_on_c, 7, 66, 65
10, 106683, Note_on_c, 7, 62, 62
10, 106714, Note_on_c, 7, 66, 0
10, 106731, Note_on_c, 7, 62, 0
10, 106732, Note_on_c, 7, 69, 0
10, 107042, Note_on_c, 7, 66, 62
10, 107042, Note_on_c, 7, 69, 62
10, 107044, Note_on_c, 7, 62, 58
10, 107072, Note_on_c, 7, 62, 0
10, 107074, Note_on_c, 7, 66, 0
10, 107075, Note_on_c, 7, 69, 0
10, 107163, Note_on_c, 7, 67, 64
10, 107163, Note_on_c, 7, 62, 62
10, 107164, Note_on_c, 7, 69, 62
10, 107214, Note_on_c, 7, 69, 0
10, 107214, Note_on_c, 7, 62, 0
10, 107214, Note_on_c, 7, 67, 0
10, 107402, Note_on_c, 7, 69, 64
10, 107402, Note_on_c, 7, 62, 63
10, 107403, Note_on_c, 7, 66, 64
10, 107996, Note_on_c, 7, 62, 0
10, 108093, Note_on_c, 7, 66, 0
10, 108094, Note_on_c, 7, 69, 0
10, 108241, Note_on_c, 7, 64, 62
10, 108241, Note_on_c, 7, 69, 64
10, 108242, Note_on_c, 7, 72, 62
10, 108773, Note_on_c, 7, 72, 0
10, 108776, Note_on_c, 7, 69, 0
10, 108777, Note_on_c, 7, 64, 0
10, 108841, Note_on_c, 7, 67, 60
10, 108842, Note_on_c, 7, 62, 59
10, 108842, Note_on_c, 7, 71, 60
10, 109625, Note_on_c, 7, 71, 0
10, 109646, Note_on_c, 7, 67, 0
10, 109653, Note_on_c, 7, 62, 0
10, 109920, Note_on_c, 7, 62, 57
10, 109920, Note_on_c, 7, 57, 57
10, 109920, Note_on_c, 7, 54, 57
10, 111518, Note_on_c, 7, 54, 0
10, 111519, Note_on_c, 7, 57, 0
10, 111539, Note_on_c, 7, 62, 0
10, 111931, Note_on_c, 7, 60, 58
10, 111931, Note_on_c, 7, 57, 58
10, 111931, Note_on_c, 7, 64, 59
10, 112613, Note_on_c, 7, 64, 0
10, 112627, Note_on_c, 7, 60, 0
10, 112643, Note_on_c, 7, 57, 0
10, 112802, Note_on_c, 7, 62, 60
10, 112802, Note_on_c, 7, 55, 59
10, 112802, Note_on_c, 7, 59, 60
10, 113543, Note_on_c, 7, 59, 0
10, 113547, Note_on_c, 7, 55, 0
10, 113550, Note_on_c, 7, 62, 0
10, 113637, Note_on_c, 7, 62, 58
10, 113638, Note_on_c, 7, 54, 59
10, 113640, Note_on_c, 7, 57, 59
10, 114744, Note_on_c, 7, 54, 0
10, 114747, Note_on_c, 7, 62, 0
10, 114766, Note_on_c, 7, 57, 0
10, 114841, Note_on_c, 7, 57, 62
10, 114842, Note_on_c, 7, 54, 60
10, 114842, Note_on_c, 7, 62, 61
10, 114892, Note_on_c, 7, 54, 0
10, 114893, Note_on_c, 7, 57, 0
10, 114895, Note_on_c, 7, 62, 0
10, 115082, Note_on_c, 7, 62, 60
10, 115082, Note_on_c, 7, 54, 59
10, 115082, Note_on_c, 7, 57, 59
10, 115672, Note_on_c, 7, 54, 0
10, 115673, Note_on_c, 7, 57, 0
10, 115677, Note_on_c, 7, 62, 0
10, 115916, Note_on_c, 7, 60, 58
10, 115918, Note_on_c, 7, 57, 57
10, 115918, Note_on_c, 7, 64, 59
10, 116215, Control_c, 7, 7, 75
10, 116432, Note_on_c, 7, 64, 0
10, 116432, Control_c, 7, 7, 74
10, 116436, Note_on_c, 7, 57, 0
10, 116438, Note_on_c, 7, 60, 0
10, 116522, Note_on_c, 7, 55, 61
10, 116522, Note_on_c, 7, 59, 60
10, 116523, Note_on_c, 7, 62, 59
10, 116528, Control_c, 7, 7, 73
10, 116604, Control_c, 7, 7, 72
10, 116770, Control_c, 7, 7, 71
10, 116815, Control_c, 7, 7, 70
10, 116980, Control_c, 7, 7, 69
10, 117060, Control_c, 7, 7, 68
10, 117445, Control_c, 7, 7, 66
10, 117451, Note_on_c, 7, 59, 0
10, 117454, Note_on_c, 7, 62, 0
10, 117472, Note_on_c, 7, 55, 0
10, 117626, Note_on_c, 7, 57, 61
10, 117626, Note_on_c, 7, 54, 61
10, 117627, Note_on_c, 7, 62, 59
10, 117640, Control_c, 7, 7, 65
10, 117765, Control_c, 7, 7, 64
10, 117851, Control_c, 7, 7, 63
10, 117903, Note_on_c, 7, 62, 0
10, 117905, Note_on_c, 7, 57, 0
10, 117908, Note_on_c, 7, 54, 0
10, 117962, Note_on_c, 7, 54, 57
10, 117963, Note_on_c, 7, 57, 57
10, 117963, Note_on_c, 7, 62, 56
10, 117991, Note_on_c, 7, 57, 0
10, 117992, Note_on_c, 7, 62, 0
10, 117995, Note_on_c, 7, 54, 0
10, 118045, Control_c, 7, 7, 62
10, 118082, Note_on_c, 7, 62, 58
10, 118082, Note_on_c, 7, 54, 59
10, 118083, Note_on_c, 7, 57, 58
10, 118115, Note_on_c, 7, 57, 0
10, 118132, Note_on_c, 7, 62, 0
10, 118133, Note_on_c, 7, 54, 0
10, 118203, Note_on_c, 7, 57, 61
10, 118203, Note_on_c, 7, 54, 59
10, 118204, Note_on_c, 7, 62, 58
10, 118259, Note_on_c, 7, 57, 0
10, 118261, Note_on_c, 7, 62, 0
10, 118262, Note_on_c, 7, 54, 0
10, 118420, Control_c, 7, 7, 60
10, 118563, Note_on_c, 7, 54, 56
10, 118563, Note_on_c, 7, 57, 57
10, 118563, Note_on_c, 7, 62, 55
10, 118591, Note_on_c, 7, 57, 0
10, 118592, Note_on_c, 7, 62, 0
10, 118592, Note_on_c, 7, 54, 0
10, 118669, Control_c, 7, 7, 59
10, 118683, Note_on_c, 7, 57, 60
10, 118683, Note_on_c, 7, 54, 59
10, 118683, Note_on_c, 7, 62, 59
10, 118741, Note_on_c, 7, 54, 0
10, 118741, Note_on_c, 7, 57, 0
10, 118763, Note_on_c, 7, 62, 0
10, 118815, Control_c, 7, 7, 58
10, 118922, Note_on_c, 7, 57, 60
10, 118922, Note_on_c, 7, 54, 59
10, 118923, Note_on_c, 7, 62, 59
10, 118975, Control_c, 7, 7, 57
10, 119060, Control_c, 7, 7, 56
10, 119370, Control_c, 7, 7, 54
10, 119545, Note_on_c, 7, 54, 0
10, 119547, Note_on_c, 7, 57, 0
10, 119550, Note_on_c, 7, 62, 0
10, 119575, Control_c, 7, 7, 53
10, 119762, Note_on_c, 7, 60, 59
10, 119763, Note_on_c, 7, 64, 58
10, 119763, Note_on_c, 7, 57, 57
10, 119880, Control_c, 7, 7, 52
10, 120110, Control_c, 7, 7, 51
10, 120175, Control_c, 7, 7, 50
10, 120296, Note_on_c, 7, 64, 0
10, 120303, Note_on_c, 7, 57, 0
10, 120305, Note_on_c, 7, 60, 0
10, 120435, Control_c, 7, 7, 48
10, 120482, Note_on_c, 7, 55, 59
10, 120482, Note_on_c, 7, 62, 60
10, 120482, Note_on_c, 7, 59, 60
10, 120625, Control_c, 7, 7, 47
10, 120675, Control_c, 7, 7, 46
10, 120800, Control_c, 7, 7, 45
10, 120995, Control_c, 7, 7, 44
10, 121175, Control_c, 7, 7, 42
10, 121384, Note_on_c, 7, 62, 0
10, 121404, Note_on_c, 7, 59, 0
10, 121407, Note_on_c, 7, 55, 0
10, 121480, Control_c, 7, 7, 41
10, 121545, Control_c, 7, 7, 40
10, 121677, Note_on_c, 7, 57, 60
10, 121678, Note_on_c, 7, 54, 58
10, 121678, Note_on_c, 7, 61, 59
10, 121715, Note_on_c, 7, 57, 0
10, 121716, Note_on_c, 7, 54, 0
10, 121718, Note_on_c, 7, 61, 0
10, 121870, Control_c, 7, 7, 39
10, 121931, Control_c, 7, 7, 38
10, 122037, Note_on_c, 7, 54, 59
10, 122037, Note_on_c, 7, 57, 62
10, 122038, Note_on_c, 7, 61, 61
10, 122075, Note_on_c, 7, 61, 0
10, 122075, Note_on_c, 7, 57, 0
10, 122075, Note_on_c, 7, 54, 0
10, 122150, Control_c, 7, 7, 36
10, 122467, Control_c, 7, 7, 35
10, 122523, Note_on_c, 7, 57, 62
10, 122546, Note_on_c, 7, 54, 60
10, 122573, Note_on_c, 7, 57, 0
10, 122581, Note_on_c, 7, 54, 0
10, 122665, Control_c, 7, 7, 34
10, 122761, Note_on_c, 7, 57, 63
10, 122761, Note_on_c, 7, 62, 61
10, 122762, Note_on_c, 7, 54, 61
10, 123058, Control_c, 7, 7, 32
10, 123098, Control_c, 7, 7, 31
10, 123295, Control_c, 7, 7, 30
10, 123331, Note_on_c, 7, 54, 0
10, 123334, Note_on_c, 7, 57, 0
10, 123355, Note_on_c, 7, 62, 0
10, 123485, Control_c, 7, 7, 29
10, 123599, Note_on_c, 7, 60, 60
10, 123601, Note_on_c, 7, 64, 61
10, 123602, Note_on_c, 7, 57, 59
10, 123775, Control_c, 7, 7, 28
10, 124065, Control_c, 7, 7, 26
10, 124086, Note_on_c, 7, 64, 0
10, 124108, Note_on_c, 7, 57, 0
10, 124114, Note_on_c, 7, 60, 0
10, 124195, Control_c, 7, 7, 25
10, 124197, Note_on_c, 7, 59, 64
10, 124197, Note_on_c, 7, 62, 62
10, 124198, Note_on_c, 7, 55, 61
10, 124397, Control_c, 7, 7, 24
10, 124595, Control_c, 7, 7, 23
10, 124755, Control_c, 7, 7, 22
10, 125225, Control_c, 7, 7, 20
10, 125246, Note_on_c, 7, 59, 0
10, 125252, Note_on_c, 7, 62, 0
10, 125253, Note_on_c, 7, 55, 0
10, 125425, Control_c, 7, 7, 19
10, 125490, Control_c, 7, 7, 18
10, 125519, Note_on_c, 7, 57, 61
10, 125521, Note_on_c, 7, 54, 60
10, 125521, Note_on_c, 7, 62, 59
10, 125555, Note_on_c, 7, 54, 0
10, 125555, Note_on_c, 7, 57, 0
10, 125557, Note_on_c, 7, 62, 0
10, 125759, Note_on_c, 7, 57, 59
10, 125759, Note_on_c, 7, 54, 59
10, 125759, Note_on_c, 7, 62, 58
10, 125790, Note_on_c, 7, 57, 0
10, 125792, Note_on_c, 7, 62, 0
10, 125792, Note_on_c, 7, 54, 0
10, 125850, Control_c, 7, 7, 17
10, 125881, Note_on_c, 7, 57, 60
10, 125882, Note_on_c, 7, 54, 60
10, 125882, Note_on_c, 7, 62, 58
10, 125905, Control_c, 7, 7, 16
10, 125934, Note_on_c, 7, 57, 0
10, 125935, Note_on_c, 7, 62, 0
10, 125937, Note_on_c, 7, 54, 0
10, 126166, Control_c, 7, 7, 14
10, 126214, Note_on_c, 7, 54, 60
10, 126214, Note_on_c, 7, 57, 61
10, 126236, Note_on_c, 7, 62, 59
10, 126265, Note_on_c, 7, 57, 0
10, 126265, Note_on_c, 7, 54, 0
10, 126274, Note_on_c, 7, 62, 0
10, 126359, Note_on_c, 7, 57, 60
10, 126361, Note_on_c, 7, 62, 57
10, 126361, Note_on_c, 7, 55, 60
10, 126415, Control_c, 7, 7, 13
10, 126424, Note_on_c, 7, 55, 0
10, 126427, Note_on_c, 7, 57, 0
10, 126443, Note_on_c, 7, 62, 0
10, 126602, Note_on_c, 7, 57, 60
10, 126602, Note_on_c, 7, 54, 61
10, 126602, Note_on_c, 7, 62, 60
10, 126612, Control_c, 7, 7, 12
10, 126795, Control_c, 7, 7, 11
10, 127040, Control_c, 7, 7, 10
10, 127197, Note_on_c, 7, 54, 0
10, 127224, Note_on_c, 7, 62, 0
10, 127224, Note_on_c, 7, 57, 0
10, 127355, Control_c, 7, 7, 8
10, 127441, Note_on_c, 7, 60, 59
10, 127442, Note_on_c, 7, 64, 61
10, 127443, Note_on_c, 7, 57, 57
10, 127585, Control_c, 7, 7, 7
10, 127640, Control_c, 7, 7, 6
10, 127776, Note_on_c, 7, 64, 0
10, 127793, Note_on_c, 7, 60, 0
10, 127795, Note_on_c, 7, 57, 0
10, 127827, Note_on_c, 7, 60, 60
10, 127827, Note_on_c, 7, 57, 61
10, 127827, Note_on_c, 7, 64, 61
10, 127832, Control_c, 7, 7, 5
10, 127861, Note_on_c, 7, 64, 0
10, 127862, Note_on_c, 7, 57, 0
10, 127862, Note_on_c, 7, 60, 0
10, 128040, Note_on_c, 7, 55, 62
10, 128044, Note_on_c, 7, 59, 64
10, 128044, Note_on_c, 7, 62, 64
10, 128180, Control_c, 7, 7, 4
10, 128390, Control_c, 7, 7, 2
10, 128570, Control_c, 7, 7, 1
10, 128707, Note_on_c, 7, 55, 0
10, 128726, Note_on_c, 7, 62, 0
10, 128726, Note_on_c, 7, 59, 0
10, 128787, Note_on_c, 7, 55, 58
10, 128788, Note_on_c, 7, 62, 58
10, 128788, Note_on_c, 7, 59, 60
10, 128845, Note_on_c, 7, 59, 0
10, 128845, Note_on_c, 7, 55, 0
10, 128848, Note_on_c, 7, 62, 0
10, 128895, Control_c, 7, 7, 0
10, 129002, Note_on_c, 7, 57, 61
10, 129002, Note_on_c, 7, 62, 61
10, 129004, Note_on_c, 7, 54, 60
10, 129455, Note_on_c, 7, 57, 0
10, 129472, Note_on_c, 7, 54, 0
10, 129502, Note_on_c, 7, 62, 0
10, 129502, End_track
11, 0, Start_track
11, 0, MIDI_port, 0
11, 0, Title_t, "Voice2"
11, 162, Program_c, 8, 54
11, 163, Control_c, 8, 7, 80
11, 163, Control_c, 8, 10, 90
11, 19225, Control_c, 8, 93, 37
11, 19681, Note_on_c, 8, 56, 90
11, 19696, Note_on_c, 8, 56, 0
11, 19696, Note_on_c, 8, 57, 89
11, 19831, Note_on_c, 8, 57, 0
11, 19861, Note_on_c, 8, 59, 87
11, 19921, Note_on_c, 8, 59, 0
11, 20086, Note_on_c, 8, 60, 87
11, 20146, Note_on_c, 8, 60, 0
11, 20311, Note_on_c, 8, 62, 88
11, 20371, Note_on_c, 8, 62, 0
11, 20551, Note_on_c, 8, 63, 88
11, 20551, Note_on_c, 8, 64, 88
11, 20566, Note_on_c, 8, 63, 0
11, 20656, Note_on_c, 8, 64, 0
11, 20791, Note_on_c, 8, 62, 88
11, 20821, Control_c, 8, 93, 34
11, 20885, Control_c, 8, 1, 40
11, 20905, Control_c, 8, 93, 37
11, 20930, Control_c, 8, 93, 38
11, 20945, Control_c, 8, 93, 40
11, 20955, Control_c, 8, 93, 42
11, 20970, Control_c, 8, 93, 44
11, 20980, Control_c, 8, 93, 48
11, 21015, Control_c, 8, 93, 51
11, 21040, Control_c, 8, 93, 53
11, 21135, Control_c, 8, 93, 56
11, 21228, Control_c, 8, 1, 8
11, 21256, Note_on_c, 8, 62, 0
11, 21271, Note_on_c, 8, 60, 86
11, 21346, Note_on_c, 8, 60, 0
11, 21361, Note_on_c, 8, 59, 85
11, 21496, Note_on_c, 8, 57, 87
11, 21511, Note_on_c, 8, 59, 0
11, 21592, Control_c, 8, 1, 40
11, 22576, Note_on_c, 8, 57, 0
11, 22604, Control_c, 8, 1, 7
11, 23671, Note_on_c, 8, 56, 90
11, 23701, Note_on_c, 8, 56, 0
11, 23701, Note_on_c, 8, 57, 90
11, 23746, Note_on_c, 8, 57, 0
11, 23851, Note_on_c, 8, 59, 90
11, 23926, Note_on_c, 8, 59, 0
11, 24016, Note_on_c, 8, 60, 87
11, 24091, Note_on_c, 8, 60, 0
11, 24181, Note_on_c, 8, 62, 87
11, 24256, Note_on_c, 8, 62, 0
11, 24391, Note_on_c, 8, 63, 88
11, 24421, Note_on_c, 8, 63, 0
11, 24421, Note_on_c, 8, 64, 91
11, 24496, Note_on_c, 8, 64, 0
11, 24616, Note_on_c, 8, 62, 87
11, 24708, Control_c, 8, 1, 43
11, 25106, Control_c, 8, 1, 7
11, 25126, Note_on_c, 8, 62, 0
11, 25201, Note_on_c, 8, 60, 89
11, 25321, Note_on_c, 8, 60, 0
11, 25321, Note_on_c, 8, 59, 87
11, 25456, Note_on_c, 8, 57, 86
11, 25471, Note_on_c, 8, 59, 0
11, 25586, Control_c, 8, 1, 43
11, 27106, Note_on_c, 8, 57, 0
11, 27168, Control_c, 8, 1, 5
11, 27511, Note_on_c, 8, 72, 90
11, 27661, Note_on_c, 8, 72, 0
11, 27706, Note_on_c, 8, 72, 86
11, 27811, Note_on_c, 8, 72, 0
11, 27871, Note_on_c, 8, 72, 88
11, 28006, Note_on_c, 8, 72, 0
11, 28036, Note_on_c, 8, 71, 87
11, 28171, Note_on_c, 8, 71, 0
11, 28216, Note_on_c, 8, 69, 88
11, 28321, Note_on_c, 8, 69, 0
11, 28351, Note_on_c, 8, 71, 89
11, 28486, Note_on_c, 8, 71, 0
11, 28516, Note_on_c, 8, 69, 89
11, 28592, Control_c, 8, 1, 47
11, 28907, Control_c, 8, 1, 5
11, 28951, Note_on_c, 8, 67, 87
11, 28966, Note_on_c, 8, 69, 0
11, 29161, Note_on_c, 8, 67, 0
11, 29161, Note_on_c, 8, 71, 86
11, 29296, Note_on_c, 8, 71, 0
11, 29296, Note_on_c, 8, 69, 88
11, 29395, Control_c, 8, 1, 43
11, 30976, Note_on_c, 8, 69, 0
11, 31052, Control_c, 8, 1, 6
11, 31351, Note_on_c, 8, 71, 88
11, 31366, Note_on_c, 8, 72, 87
11, 31396, Note_on_c, 8, 71, 0
11, 31501, Note_on_c, 8, 72, 0
11, 31531, Note_on_c, 8, 72, 87
11, 31591, Note_on_c, 8, 72, 0
11, 31621, Note_on_c, 8, 72, 86
11, 31666, Note_on_c, 8, 72, 0
11, 31726, Note_on_c, 8, 72, 88
11, 31846, Note_on_c, 8, 72, 0
11, 31891, Note_on_c, 8, 71, 88
11, 31996, Note_on_c, 8, 71, 0
11, 32026, Note_on_c, 8, 69, 88
11, 32116, Note_on_c, 8, 69, 0
11, 32176, Note_on_c, 8, 71, 89
11, 32311, Note_on_c, 8, 71, 0
11, 32341, Note_on_c, 8, 69, 89
11, 32391, Control_c, 8, 1, 48
11, 32716, Note_on_c, 8, 69, 0
11, 32737, Control_c, 8, 1, 6
11, 32806, Note_on_c, 8, 67, 87
11, 33016, Note_on_c, 8, 67, 0
11, 33016, Note_on_c, 8, 71, 86
11, 33136, Note_on_c, 8, 71, 0
11, 33151, Note_on_c, 8, 69, 87
11, 33239, Control_c, 8, 1, 49
11, 34621, Note_on_c, 8, 69, 0
11, 34690, Control_c, 8, 1, 7
11, 34816, Note_on_c, 8, 69, 89
11, 35056, Note_on_c, 8, 69, 0
11, 35071, Note_on_c, 8, 76, 91
11, 36121, Note_on_c, 8, 76, 0
11, 36166, Note_on_c, 8, 74, 89
11, 36286, Note_on_c, 8, 74, 0
11, 36346, Note_on_c, 8, 72, 89
11, 36436, Note_on_c, 8, 72, 0
11, 36496, Note_on_c, 8, 74, 88
11, 36661, Note_on_c, 8, 74, 0
11, 36676, Note_on_c, 8, 71, 88
11, 36841, Note_on_c, 8, 71, 0
11, 36841, Note_on_c, 8, 69, 85
11, 37005, Control_c, 8, 1, 46
11, 38491, Note_on_c, 8, 69, 0
11, 38524, Control_c, 8, 1, 6
11, 38641, Note_on_c, 8, 69, 89
11, 38896, Note_on_c, 8, 69, 0
11, 38896, Note_on_c, 8, 76, 89
11, 39991, Note_on_c, 8, 76, 0
11, 40006, Note_on_c, 8, 74, 89
11, 40081, Note_on_c, 8, 74, 0
11, 40186, Note_on_c, 8, 72, 88
11, 40261, Note_on_c, 8, 72, 0
11, 40336, Note_on_c, 8, 74, 89
11, 40486, Note_on_c, 8, 74, 0
11, 40516, Note_on_c, 8, 72, 88
11, 40651, Note_on_c, 8, 72, 0
11, 40681, Note_on_c, 8, 71, 88
11, 40801, Note_on_c, 8, 71, 0
11, 40816, Note_on_c, 8, 69, 88
11, 40999, Control_c, 8, 1, 52
11, 42706, Note_on_c, 8, 69, 0
11, 42760, Control_c, 8, 93, 58
11, 42795, Control_c, 8, 93, 55
11, 42810, Control_c, 8, 93, 53
11, 42831, Control_c, 8, 93, 51
11, 42837, Control_c, 8, 1, 5
11, 42845, Control_c, 8, 93, 48
11, 42870, Control_c, 8, 93, 47
11, 42905, Control_c, 8, 93, 45
11, 42980, Control_c, 8, 93, 43
11, 46551, Note_on_c, 8, 68, 93
11, 46571, Note_on_c, 8, 69, 90
11, 46574, Note_on_c, 8, 68, 0
11, 46674, Note_on_c, 8, 69, 0
11, 46697, Note_on_c, 8, 71, 88
11, 46764, Note_on_c, 8, 71, 0
11, 46954, Note_on_c, 8, 72, 90
11, 47015, Note_on_c, 8, 72, 0
11, 47198, Note_on_c, 8, 74, 88
11, 47231, Note_on_c, 8, 74, 0
11, 47436, Note_on_c, 8, 75, 93
11, 47461, Note_on_c, 8, 75, 0
11, 47461, Note_on_c, 8, 76, 92
11, 47660, Note_on_c, 8, 76, 0
11, 47675, Note_on_c, 8, 74, 89
11, 47718, Control_c, 8, 1, 46
11, 48035, Note_on_c, 8, 74, 0
11, 48062, Control_c, 8, 1, 7
11, 48131, Note_on_c, 8, 71, 87
11, 48149, Note_on_c, 8, 72, 87
11, 48167, Note_on_c, 8, 71, 0
11, 48255, Note_on_c, 8, 71, 89
11, 48270, Note_on_c, 8, 72, 0
11, 48389, Note_on_c, 8, 71, 0
11, 48398, Note_on_c, 8, 69, 89
11, 48486, Control_c, 8, 1, 40
11, 49511, Note_on_c, 8, 69, 0
11, 49613, Control_c, 8, 1, 6
11, 50559, Note_on_c, 8, 75, 92
11, 50575, Note_on_c, 8, 76, 92
11, 50577, Note_on_c, 8, 75, 0
11, 50646, Note_on_c, 8, 76, 0
11, 50752, Note_on_c, 8, 75, 93
11, 50779, Note_on_c, 8, 75, 0
11, 50779, Note_on_c, 8, 76, 90
11, 50824, Note_on_c, 8, 76, 0
11, 50905, Note_on_c, 8, 75, 90
11, 50919, Note_on_c, 8, 76, 86
11, 50926, Note_on_c, 8, 75, 0
11, 51072, Note_on_c, 8, 74, 91
11, 51075, Note_on_c, 8, 76, 0
11, 51219, Note_on_c, 8, 74, 0
11, 51228, Note_on_c, 8, 72, 90
11, 51340, Note_on_c, 8, 72, 0
11, 51366, Note_on_c, 8, 73, 91
11, 51378, Note_on_c, 8, 73, 0
11, 51382, Note_on_c, 8, 74, 89
11, 51527, Note_on_c, 8, 74, 0
11, 51532, Note_on_c, 8, 72, 90
11, 51696, Note_on_c, 8, 72, 0
11, 51993, Note_on_c, 8, 71, 89
11, 52028, Note_on_c, 8, 72, 90
11, 52048, Note_on_c, 8, 71, 0
11, 52144, Note_on_c, 8, 72, 0
11, 52200, Note_on_c, 8, 71, 90
11, 52215, Control_c, 8, 93, 43
11, 52255, Control_c, 8, 93, 42
11, 52294, Control_c, 8, 93, 40
11, 52310, Note_on_c, 8, 71, 0
11, 52345, Note_on_c, 8, 69, 89
11, 52350, Control_c, 8, 93, 38
11, 52355, Control_c, 8, 93, 37
11, 52375, Control_c, 8, 93, 34
11, 52385, Control_c, 8, 93, 31
11, 52410, Control_c, 8, 93, 29
11, 52435, Control_c, 8, 93, 27
11, 52441, Control_c, 8, 1, 47
11, 52446, Control_c, 8, 93, 24
11, 52460, Control_c, 8, 93, 23
11, 52485, Control_c, 8, 93, 21
11, 52510, Control_c, 8, 93, 19
11, 52555, Control_c, 8, 93, 17
11, 52571, Control_c, 8, 93, 16
11, 52605, Control_c, 8, 93, 14
11, 52665, Control_c, 8, 93, 13
11, 52690, Control_c, 8, 93, 12
11, 52725, Control_c, 8, 93, 10
11, 54091, Note_on_c, 8, 69, 0
11, 54134, Control_c, 8, 1, 6
11, 54375, Control_c, 8, 93, 16
11, 54390, Note_on_c, 8, 71, 91
11, 54410, Note_on_c, 8, 72, 90
11, 54435, Note_on_c, 8, 71, 0
11, 54533, Note_on_c, 8, 72, 0
11, 54579, Note_on_c, 8, 72, 89
11, 54616, Note_on_c, 8, 72, 0
11, 54616, Control_c, 8, 93, 18
11, 54657, Note_on_c, 8, 72, 89
11, 54660, Control_c, 8, 93, 21
11, 54703, Note_on_c, 8, 72, 0
11, 54747, Note_on_c, 8, 72, 89
11, 54885, Note_on_c, 8, 72, 0
11, 54911, Note_on_c, 8, 71, 91
11, 55036, Note_on_c, 8, 71, 0
11, 55072, Note_on_c, 8, 69, 91
11, 55163, Note_on_c, 8, 69, 0
11, 55196, Note_on_c, 8, 71, 89
11, 55374, Note_on_c, 8, 71, 0
11, 55381, Note_on_c, 8, 69, 91
11, 55449, Control_c, 8, 1, 45
11, 55770, Note_on_c, 8, 69, 0
11, 55798, Control_c, 8, 1, 5
11, 55827, Note_on_c, 8, 67, 90
11, 55999, Note_on_c, 8, 67, 0
11, 56016, Note_on_c, 8, 71, 88
11, 56182, Note_on_c, 8, 71, 0
11, 56185, Note_on_c, 8, 69, 90
11, 56339, Control_c, 8, 1, 43
11, 56360, Pitch_bend_c, 8, 7954
11, 56360, Pitch_bend_c, 8, 7954
11, 56361, Pitch_bend_c, 8, 7954
11, 56373, Pitch_bend_c, 8, 7595
11, 56374, Pitch_bend_c, 8, 7595
11, 56374, Pitch_bend_c, 8, 7595
11, 56384, Pitch_bend_c, 8, 7118
11, 56384, Pitch_bend_c, 8, 7118
11, 56385, Pitch_bend_c, 8, 7118
11, 56391, Pitch_bend_c, 8, 6486
11, 56391, Pitch_bend_c, 8, 6486
11, 56392, Pitch_bend_c, 8, 6486
11, 56401, Pitch_bend_c, 8, 6045
11, 56402, Pitch_bend_c, 8, 6045
11, 56402, Pitch_bend_c, 8, 6045
11, 56411, Pitch_bend_c, 8, 5746
11, 56411, Pitch_bend_c, 8, 5746
11, 56412, Pitch_bend_c, 8, 5746
11, 56532, Pitch_bend_c, 8, 6045
11, 56532, Pitch_bend_c, 8, 6045
11, 56533, Pitch_bend_c, 8, 6045
11, 56542, Pitch_bend_c, 8, 6486
11, 56542, Pitch_bend_c, 8, 6486
11, 56542, Pitch_bend_c, 8, 6486
11, 56561, Pitch_bend_c, 8, 6828
11, 56561, Pitch_bend_c, 8, 6828
11, 56562, Pitch_bend_c, 8, 6828
11, 56584, Pitch_bend_c, 8, 7237
11, 56585, Pitch_bend_c, 8, 7237
11, 56586, Pitch_bend_c, 8, 7237
11, 56594, Pitch_bend_c, 8, 7595
11, 56594, Pitch_bend_c, 8, 7595
11, 56595, Pitch_bend_c, 8, 7595
11, 56607, Pitch_bend_c, 8, 7834
11, 56608, Pitch_bend_c, 8, 7834
11, 56608, Pitch_bend_c, 8, 7834
11, 56623, Pitch_bend_c, 8, 8192
11, 56623, Pitch_bend_c, 8, 8192
11, 56624, Pitch_bend_c, 8, 8192
11, 57874, Note_on_c, 8, 69, 0
11, 57968, Control_c, 8, 1, 6
11, 58243, Note_on_c, 8, 71, 89
11, 58262, Note_on_c, 8, 72, 90
11, 58287, Note_on_c, 8, 71, 0
11, 58390, Note_on_c, 8, 72, 0
11, 58425, Note_on_c, 8, 72, 89
11, 58471, Note_on_c, 8, 72, 0
11, 58514, Note_on_c, 8, 72, 90
11, 58562, Note_on_c, 8, 72, 0
11, 58608, Note_on_c, 8, 72, 89
11, 58725, Note_on_c, 8, 72, 0
11, 58757, Note_on_c, 8, 71, 89
11, 58863, Note_on_c, 8, 71, 0
11, 58909, Note_on_c, 8, 69, 88
11, 59029, Note_on_c, 8, 69, 0
11, 59056, Note_on_c, 8, 70, 94
11, 59078, Note_on_c, 8, 70, 0
11, 59078, Note_on_c, 8, 71, 94
11, 59217, Note_on_c, 8, 71, 0
11, 59222, Note_on_c, 8, 69, 89
11, 59291, Control_c, 8, 1, 46
11, 59647, Control_c, 8, 1, 6
11, 59664, Note_on_c, 8, 69, 0
11, 59686, Note_on_c, 8, 67, 90
11, 59873, Note_on_c, 8, 67, 0
11, 59876, Note_on_c, 8, 70, 89
11, 59893, Note_on_c, 8, 71, 90
11, 59895, Note_on_c, 8, 70, 0
11, 60034, Note_on_c, 8, 71, 0
11, 60039, Note_on_c, 8, 69, 92
11, 60171, Control_c, 8, 1, 49
11, 60428, Pitch_bend_c, 8, 7834
11, 60428, Pitch_bend_c, 8, 7834
11, 60429, Pitch_bend_c, 8, 7834
11, 60442, Pitch_bend_c, 8, 7476
11, 60442, Pitch_bend_c, 8, 7476
11, 60442, Pitch_bend_c, 8, 7476
11, 60479, Pitch_bend_c, 8, 7118
11, 60480, Pitch_bend_c, 8, 7118
11, 60480, Pitch_bend_c, 8, 7118
11, 60493, Pitch_bend_c, 8, 6657
11, 60493, Pitch_bend_c, 8, 6657
11, 60494, Pitch_bend_c, 8, 6657
11, 60601, Pitch_bend_c, 8, 7118
11, 60601, Pitch_bend_c, 8, 7118
11, 60601, Pitch_bend_c, 8, 7118
11, 60611, Pitch_bend_c, 8, 7476
11, 60611, Pitch_bend_c, 8, 7476
11, 60612, Pitch_bend_c, 8, 7476
11, 60671, Pitch_bend_c, 8, 7834
11, 60672, Pitch_bend_c, 8, 7834
11, 60672, Pitch_bend_c, 8, 7834
11, 60676, Pitch_bend_c, 8, 8192
11, 60676, Pitch_bend_c, 8, 8192
11, 60677, Pitch_bend_c, 8, 8192
11, 61563, Control_c, 8, 1, 6
11, 61579, Note_on_c, 8, 69, 0
11, 61702, Note_on_c, 8, 69, 92
11, 61928, Note_on_c, 8, 69, 0
11, 61940, Note_on_c, 8, 76, 90
11, 63040, Note_on_c, 8, 76, 0
11, 63055, Note_on_c, 8, 74, 91
11, 63144, Note_on_c, 8, 74, 0
11, 63250, Note_on_c, 8, 72, 90
11, 63336, Note_on_c, 8, 72, 0
11, 63399, Note_on_c, 8, 74, 90
11, 63546, Note_on_c, 8, 74, 0
11, 63587, Note_on_c, 8, 72, 91
11, 63712, Note_on_c, 8, 72, 0
11, 63729, Note_on_c, 8, 71, 88
11, 63875, Note_on_c, 8, 71, 0
11, 63875, Note_on_c, 8, 69, 90
11, 63957, Control_c, 8, 1, 44
11, 65357, Note_on_c, 8, 69, 0
11, 65406, Control_c, 8, 1, 6
11, 65533, Note_on_c, 8, 69, 92
11, 65777, Note_on_c, 8, 75, 93
11, 65780, Note_on_c, 8, 69, 0
11, 65807, Note_on_c, 8, 76, 94
11, 65809, Note_on_c, 8, 75, 0
11, 66880, Note_on_c, 8, 76, 0
11, 66906, Note_on_c, 8, 74, 90
11, 67053, Note_on_c, 8, 74, 0
11, 67096, Note_on_c, 8, 72, 90
11, 67193, Note_on_c, 8, 72, 0
11, 67248, Note_on_c, 8, 72, 91
11, 67442, Note_on_c, 8, 72, 0
11, 67464, Note_on_c, 8, 71, 88
11, 67580, Note_on_c, 8, 71, 0
11, 67600, Note_on_c, 8, 69, 90
11, 67654, Control_c, 8, 1, 46
11, 69594, Note_on_c, 8, 69, 0
11, 69669, Control_c, 8, 1, 6
11, 84955, Note_on_c, 8, 56, 46
11, 84982, Note_on_c, 8, 56, 0
11, 84985, Note_on_c, 8, 57, 89
11, 85095, Note_on_c, 8, 59, 73
11, 85101, Note_on_c, 8, 57, 0
11, 85206, Note_on_c, 8, 59, 0
11, 85316, Note_on_c, 8, 60, 66
11, 85435, Note_on_c, 8, 60, 0
11, 85586, Note_on_c, 8, 62, 83
11, 85697, Note_on_c, 8, 62, 0
11, 85815, Note_on_c, 8, 63, 77
11, 85840, Note_on_c, 8, 63, 0
11, 85842, Note_on_c, 8, 64, 94
11, 86019, Note_on_c, 8, 62, 88
11, 86026, Note_on_c, 8, 64, 0
11, 86415, Note_on_c, 8, 62, 0
11, 86523, Note_on_c, 8, 59, 50
11, 86548, Note_on_c, 8, 60, 75
11, 86562, Note_on_c, 8, 59, 0
11, 86654, Note_on_c, 8, 59, 69
11, 86676, Note_on_c, 8, 60, 0
11, 86775, Note_on_c, 8, 59, 0
11, 86779, Note_on_c, 8, 57, 73
11, 88219, Note_on_c, 8, 57, 0
11, 88943, Note_on_c, 8, 56, 66
11, 88974, Note_on_c, 8, 56, 0
11, 88980, Note_on_c, 8, 57, 61
11, 89129, Note_on_c, 8, 57, 0
11, 89140, Note_on_c, 8, 59, 66
11, 89265, Note_on_c, 8, 59, 0
11, 89281, Note_on_c, 8, 60, 73
11, 89453, Note_on_c, 8, 62, 83
11, 89456, Note_on_c, 8, 60, 0
11, 89605, Note_on_c, 8, 62, 0
11, 89632, Note_on_c, 8, 63, 66
11, 89678, Note_on_c, 8, 64, 85
11, 89686, Note_on_c, 8, 63, 0
11, 89840, Note_on_c, 8, 64, 0
11, 89869, Note_on_c, 8, 62, 77
11, 90299, Note_on_c, 8, 62, 0
11, 90373, Note_on_c, 8, 60, 83
11, 90556, Note_on_c, 8, 60, 0
11, 90565, Note_on_c, 8, 59, 72
11, 90738, Note_on_c, 8, 57, 69
11, 90743, Note_on_c, 8, 59, 0
11, 92371, Note_on_c, 8, 57, 0
11, 92783, Note_on_c, 8, 72, 88
11, 92914, Note_on_c, 8, 72, 0
11, 92960, Note_on_c, 8, 72, 83
11, 93008, Note_on_c, 8, 72, 0
11, 93049, Note_on_c, 8, 72, 74
11, 93097, Note_on_c, 8, 72, 0
11, 93151, Note_on_c, 8, 72, 78
11, 93316, Note_on_c, 8, 72, 0
11, 93320, Note_on_c, 8, 71, 69
11, 93451, Note_on_c, 8, 71, 0
11, 93456, Note_on_c, 8, 69, 81
11, 93579, Note_on_c, 8, 69, 0
11, 93601, Note_on_c, 8, 71, 81
11, 93762, Note_on_c, 8, 71, 0
11, 93765, Note_on_c, 8, 69, 88
11, 94227, Note_on_c, 8, 69, 0
11, 94234, Note_on_c, 8, 67, 88
11, 94420, Note_on_c, 8, 71, 74
11, 94425, Note_on_c, 8, 67, 0
11, 94561, Note_on_c, 8, 69, 79
11, 94569, Note_on_c, 8, 71, 0
11, 96523, Note_on_c, 8, 69, 0
11, 96590, Note_on_c, 8, 71, 72
11, 96617, Note_on_c, 8, 72, 66
11, 96642, Note_on_c, 8, 71, 0
11, 96763, Note_on_c, 8, 72, 0
11, 96800, Note_on_c, 8, 72, 92
11, 96857, Note_on_c, 8, 72, 0
11, 96899, Note_on_c, 8, 72, 83
11, 96962, Note_on_c, 8, 72, 0
11, 97008, Note_on_c, 8, 72, 70
11, 97156, Note_on_c, 8, 72, 0
11, 97170, Note_on_c, 8, 71, 90
11, 97295, Note_on_c, 8, 71, 0
11, 97307, Note_on_c, 8, 69, 90
11, 97432, Note_on_c, 8, 69, 0
11, 97454, Note_on_c, 8, 71, 84
11, 97615, Note_on_c, 8, 71, 0
11, 97619, Note_on_c, 8, 69, 88
11, 98035, Note_on_c, 8, 69, 0
11, 98073, Note_on_c, 8, 69, 78
11, 98261, Note_on_c, 8, 69, 0
11, 98266, Note_on_c, 8, 67, 79
11, 98399, Note_on_c, 8, 67, 0
11, 98405, Note_on_c, 8, 69, 90
11, 98697, Pitch_bend_c, 8, 8073
11, 98698, Pitch_bend_c, 8, 8073
11, 98698, Pitch_bend_c, 8, 8073
11, 98712, Pitch_bend_c, 8, 7595
11, 98713, Pitch_bend_c, 8, 7595
11, 98713, Pitch_bend_c, 8, 7595
11, 98726, Pitch_bend_c, 8, 7237
11, 98726, Pitch_bend_c, 8, 7237
11, 98727, Pitch_bend_c, 8, 7237
11, 98739, Pitch_bend_c, 8, 6828
11, 98740, Pitch_bend_c, 8, 6828
11, 98755, Pitch_bend_c, 8, 6828
11, 98755, Pitch_bend_c, 8, 6486
11, 98756, Pitch_bend_c, 8, 6486
11, 98756, Pitch_bend_c, 8, 6486
11, 98772, Pitch_bend_c, 8, 5945
11, 98773, Pitch_bend_c, 8, 5945
11, 98773, Pitch_bend_c, 8, 5945
11, 98782, Pitch_bend_c, 8, 5647
11, 98782, Pitch_bend_c, 8, 5647
11, 98782, Pitch_bend_c, 8, 5647
11, 98795, Pitch_bend_c, 8, 5309
11, 98795, Pitch_bend_c, 8, 5309
11, 98796, Pitch_bend_c, 8, 5309
11, 98805, Pitch_bend_c, 8, 4950
11, 98806, Pitch_bend_c, 8, 4950
11, 98806, Pitch_bend_c, 8, 4950
11, 98834, Pitch_bend_c, 8, 5309
11, 98834, Pitch_bend_c, 8, 5309
11, 98835, Pitch_bend_c, 8, 5309
11, 98843, Pitch_bend_c, 8, 5746
11, 98844, Pitch_bend_c, 8, 5746
11, 98845, Pitch_bend_c, 8, 5746
11, 98848, Pitch_bend_c, 8, 6045
11, 98848, Pitch_bend_c, 8, 6045
11, 98849, Pitch_bend_c, 8, 6045
11, 98857, Pitch_bend_c, 8, 6486
11, 98857, Pitch_bend_c, 8, 6486
11, 98858, Pitch_bend_c, 8, 6486
11, 98871, Pitch_bend_c, 8, 6828
11, 98871, Pitch_bend_c, 8, 6828
11, 98871, Pitch_bend_c, 8, 6828
11, 98885, Pitch_bend_c, 8, 7357
11, 98885, Pitch_bend_c, 8, 7357
11, 98886, Pitch_bend_c, 8, 7357
11, 98895, Pitch_bend_c, 8, 7595
11, 98895, Pitch_bend_c, 8, 7595
11, 98895, Pitch_bend_c, 8, 7595
11, 98899, Pitch_bend_c, 8, 7954
11, 98899, Pitch_bend_c, 8, 7954
11, 98900, Pitch_bend_c, 8, 7954
11, 98904, Pitch_bend_c, 8, 8192
11, 98905, Pitch_bend_c, 8, 8192
11, 98905, Pitch_bend_c, 8, 8192
11, 100022, Note_on_c, 8, 69, 0
11, 100081, Note_on_c, 8, 69, 102
11, 100328, Note_on_c, 8, 69, 0
11, 100328, Note_on_c, 8, 76, 90
11, 101348, Note_on_c, 8, 76, 0
11, 101454, Note_on_c, 8, 72, 79
11, 101634, Note_on_c, 8, 72, 0
11, 101651, Note_on_c, 8, 71, 88
11, 101743, Note_on_c, 8, 71, 0
11, 101794, Note_on_c, 8, 72, 66
11, 101944, Note_on_c, 8, 72, 0
11, 101979, Note_on_c, 8, 71, 86
11, 102138, Note_on_c, 8, 71, 0
11, 102147, Note_on_c, 8, 69, 62
11, 103854, Note_on_c, 8, 69, 0
11, 103908, Note_on_c, 8, 69, 81
11, 104152, Note_on_c, 8, 69, 0
11, 104168, Note_on_c, 8, 76, 99
11, 105248, Note_on_c, 8, 76, 0
11, 105288, Note_on_c, 8, 74, 88
11, 105412, Note_on_c, 8, 74, 0
11, 105477, Note_on_c, 8, 72, 62
11, 105598, Note_on_c, 8, 72, 0
11, 105653, Note_on_c, 8, 72, 77
11, 105794, Note_on_c, 8, 72, 0
11, 105830, Note_on_c, 8, 71, 65
11, 105971, Note_on_c, 8, 71, 0
11, 105988, Note_on_c, 8, 69, 63
11, 108956, Note_on_c, 8, 69, 0
11, 116215, Control_c, 8, 7, 48
11, 116425, Control_c, 8, 7, 47
11, 116599, Control_c, 8, 7, 46
11, 116765, Control_c, 8, 7, 45
11, 116975, Control_c, 8, 7, 44
11, 117205, Control_c, 8, 7, 43
11, 117440, Control_c, 8, 7, 42
11, 117635, Control_c, 8, 7, 41
11, 117846, Control_c, 8, 7, 40
11, 118292, Control_c, 8, 7, 39
11, 118415, Control_c, 8, 7, 38
11, 118811, Control_c, 8, 7, 37
11, 118975, Control_c, 8, 7, 36
11, 119195, Control_c, 8, 7, 35
11, 119365, Control_c, 8, 7, 34
11, 119875, Control_c, 8, 7, 33
11, 120170, Control_c, 8, 7, 32
11, 120425, Control_c, 8, 7, 30
11, 120670, Control_c, 8, 7, 29
11, 120990, Control_c, 8, 7, 28
11, 121170, Control_c, 8, 7, 27
11, 121475, Control_c, 8, 7, 26
11, 121865, Control_c, 8, 7, 25
11, 121926, Control_c, 8, 7, 24
11, 122145, Control_c, 8, 7, 23
11, 122462, Control_c, 8, 7, 22
11, 122840, Control_c, 8, 7, 21
11, 123048, Control_c, 8, 7, 20
11, 123290, Control_c, 8, 7, 19
11, 123765, Control_c, 8, 7, 18
11, 123900, Control_c, 8, 7, 17
11, 124060, Control_c, 8, 7, 16
11, 124397, Control_c, 8, 7, 15
11, 124750, Control_c, 8, 7, 14
11, 125220, Control_c, 8, 7, 13
11, 125425, Control_c, 8, 7, 12
11, 125485, Control_c, 8, 7, 11
11, 125900, Control_c, 8, 7, 10
11, 126156, Control_c, 8, 7, 9
11, 126410, Control_c, 8, 7, 8
11, 126790, Control_c, 8, 7, 7
11, 127035, Control_c, 8, 7, 6
11, 127350, Control_c, 8, 7, 5
11, 127580, Control_c, 8, 7, 4
11, 127827, Control_c, 8, 7, 3
11, 128168, Control_c, 8, 7, 2
11, 128385, Control_c, 8, 7, 1
11, 128891, Control_c, 8, 7, 0
11, 128891, End_track
12, 0, Start_track
12, 0, MIDI_port, 0
12, 0, Title_t, "=================="
12, 0, End_track
13, 0, Start_track
13, 0, MIDI_port, 0
13, 0, Title_t, "Wicked Game"
13, 0, End_track
14, 0, Start_track
14, 0, MIDI_port, 0
14, 0, Title_t, "by Chris Issak"
14, 0, End_track
15, 0, Start_track
15, 0, MIDI_port, 0
15, 0, Title_t, "Seq by OnNTwo@aol.com"
15, 0, End_track
16, 0, Start_track
16, 0, MIDI_port, 0
16, 0, Title_t, "May 98' Dallas, TX, USA"
16, 0, End_track
17, 0, Start_track
17, 0, MIDI_port, 0
17, 0, Title_t, "==================="
17, 0, End_track
0, 0, End_of_file
