0,0,Header,1,2,480,
1,0,Start_track,,,,
1,0,Time_signature,4,2,24,8
1,0,Title_t,"""from model""",,,
1,0,End_track,,,,
2,0,Start_track,,,,
2,0,Note_on_c,9,36,127,
2,0,Note_on_c,9,37,127,
2,0,Note_on_c,9,38,127,
2,0,Note_on_c,9,39,127,
2,0,Note_on_c,9,41,127,
2,0,Note_on_c,9,42,127,
2,0,Note_on_c,9,43,127,
2,0,Note_on_c,9,45,127,
2,0,Note_on_c,9,48,127,
2,0,Note_on_c,9,51,127,
2,0,Note_on_c,9,53,127,
2,0,Note_on_c,9,80,127,
2,0,Note_on_c,9,81,127,
2,0,Note_on_c,9,82,127,
2,1,Note_off_c,9,36,0,
2,2,Note_on_c,9,36,127,
2,2,Note_on_c,9,37,127,
2,2,Note_on_c,9,38,127,
2,2,Note_on_c,9,39,127,
2,2,Note_on_c,9,41,127,
2,2,Note_on_c,9,42,127,
2,2,Note_on_c,9,43,127,
2,2,Note_on_c,9,45,127,
2,2,Note_on_c,9,48,127,
2,2,Note_on_c,9,51,127,
2,2,Note_on_c,9,53,127,
2,2,Note_on_c,9,80,127,
2,2,Note_on_c,9,81,127,
2,2,Note_on_c,9,82,127,
2,3,Note_off_c,9,36,0,
2,4,Note_on_c,9,36,127,
2,4,Note_on_c,9,37,127,
2,4,Note_on_c,9,38,127,
2,4,Note_on_c,9,39,127,
2,4,Note_on_c,9,41,127,
2,4,Note_on_c,9,42,127,
2,4,Note_on_c,9,43,127,
2,4,Note_on_c,9,45,127,
2,4,Note_on_c,9,48,127,
2,4,Note_on_c,9,51,127,
2,4,Note_on_c,9,53,127,
2,4,Note_on_c,9,80,127,
2,4,Note_on_c,9,81,127,
2,4,Note_on_c,9,82,127,
2,5,Note_off_c,9,36,0,
2,6,Note_on_c,9,36,127,
2,6,Note_on_c,9,37,127,
2,6,Note_on_c,9,38,127,
2,6,Note_on_c,9,39,127,
2,6,Note_on_c,9,41,127,
2,6,Note_on_c,9,42,127,
2,6,Note_on_c,9,43,127,
2,6,Note_on_c,9,45,127,
2,6,Note_on_c,9,48,127,
2,6,Note_on_c,9,51,127,
2,6,Note_on_c,9,53,127,
2,6,Note_on_c,9,80,127,
2,6,Note_on_c,9,81,127,
2,6,Note_on_c,9,82,127,
2,7,Note_off_c,9,36,0,
2,8,Note_on_c,9,36,127,
2,8,Note_on_c,9,37,127,
2,8,Note_on_c,9,38,127,
2,8,Note_on_c,9,39,127,
2,8,Note_on_c,9,41,127,
2,8,Note_on_c,9,42,127,
2,8,Note_on_c,9,43,127,
2,8,Note_on_c,9,45,127,
2,8,Note_on_c,9,48,127,
2,8,Note_on_c,9,51,127,
2,8,Note_on_c,9,53,127,
2,8,Note_on_c,9,80,127,
2,8,Note_on_c,9,81,127,
2,8,Note_on_c,9,82,127,
2,9,Note_off_c,9,36,0,
2,10,Note_on_c,9,36,127,
2,10,Note_on_c,9,37,127,
2,10,Note_on_c,9,38,127,
2,10,Note_on_c,9,39,127,
2,10,Note_on_c,9,41,127,
2,10,Note_on_c,9,42,127,
2,10,Note_on_c,9,43,127,
2,10,Note_on_c,9,45,127,
2,10,Note_on_c,9,48,127,
2,10,Note_on_c,9,51,127,
2,10,Note_on_c,9,53,127,
2,10,Note_on_c,9,80,127,
2,10,Note_on_c,9,81,127,
2,10,Note_on_c,9,82,127,
2,11,Note_off_c,9,36,0,
2,12,Note_on_c,9,36,127,
2,12,Note_on_c,9,37,127,
2,12,Note_on_c,9,38,127,
2,12,Note_on_c,9,39,127,
2,12,Note_on_c,9,41,127,
2,12,Note_on_c,9,42,127,
2,12,Note_on_c,9,43,127,
2,12,Note_on_c,9,45,127,
2,12,Note_on_c,9,48,127,
2,12,Note_on_c,9,51,127,
2,12,Note_on_c,9,53,127,
2,12,Note_on_c,9,80,127,
2,12,Note_on_c,9,81,127,
2,12,Note_on_c,9,82,127,
2,13,Note_off_c,9,36,0,
2,14,Note_on_c,9,36,127,
2,14,Note_on_c,9,37,127,
2,14,Note_on_c,9,38,127,
2,14,Note_on_c,9,39,127,
2,14,Note_on_c,9,41,127,
2,14,Note_on_c,9,42,127,
2,14,Note_on_c,9,43,127,
2,14,Note_on_c,9,45,127,
2,14,Note_on_c,9,48,127,
2,14,Note_on_c,9,51,127,
2,14,Note_on_c,9,53,127,
2,14,Note_on_c,9,80,127,
2,14,Note_on_c,9,81,127,
2,14,Note_on_c,9,82,127,
2,15,Note_off_c,9,36,0,
2,16,Note_on_c,9,36,127,
2,16,Note_on_c,9,37,127,
2,16,Note_on_c,9,38,127,
2,16,Note_on_c,9,39,127,
2,16,Note_on_c,9,41,127,
2,16,Note_on_c,9,42,127,
2,16,Note_on_c,9,43,127,
2,16,Note_on_c,9,45,127,
2,16,Note_on_c,9,48,127,
2,16,Note_on_c,9,51,127,
2,16,Note_on_c,9,53,127,
2,16,Note_on_c,9,80,127,
2,16,Note_on_c,9,81,127,
2,16,Note_on_c,9,82,127,
2,17,Note_off_c,9,36,0,
2,18,Note_on_c,9,36,127,
2,18,Note_on_c,9,37,127,
2,18,Note_on_c,9,38,127,
2,18,Note_on_c,9,39,127,
2,18,Note_on_c,9,41,127,
2,18,Note_on_c,9,42,127,
2,18,Note_on_c,9,43,127,
2,18,Note_on_c,9,45,127,
2,18,Note_on_c,9,48,127,
2,18,Note_on_c,9,51,127,
2,18,Note_on_c,9,53,127,
2,18,Note_on_c,9,80,127,
2,18,Note_on_c,9,81,127,
2,18,Note_on_c,9,82,127,
2,19,Note_off_c,9,36,0,
2,20,Note_on_c,9,36,127,
2,20,Note_on_c,9,37,127,
2,20,Note_on_c,9,38,127,
2,20,Note_on_c,9,39,127,
2,20,Note_on_c,9,41,127,
2,20,Note_on_c,9,42,127,
2,20,Note_on_c,9,43,127,
2,20,Note_on_c,9,45,127,
2,20,Note_on_c,9,48,127,
2,20,Note_on_c,9,51,127,
2,20,Note_on_c,9,53,127,
2,20,Note_on_c,9,80,127,
2,20,Note_on_c,9,81,127,
2,20,Note_on_c,9,82,127,
2,21,Note_off_c,9,36,0,
2,22,Note_on_c,9,36,127,
2,22,Note_on_c,9,37,127,
2,22,Note_on_c,9,38,127,
2,22,Note_on_c,9,39,127,
2,22,Note_on_c,9,41,127,
2,22,Note_on_c,9,42,127,
2,22,Note_on_c,9,43,127,
2,22,Note_on_c,9,45,127,
2,22,Note_on_c,9,48,127,
2,22,Note_on_c,9,51,127,
2,22,Note_on_c,9,53,127,
2,22,Note_on_c,9,80,127,
2,22,Note_on_c,9,81,127,
2,22,Note_on_c,9,82,127,
2,23,Note_off_c,9,36,0,
2,24,Note_on_c,9,36,127,
2,24,Note_on_c,9,37,127,
2,24,Note_on_c,9,38,127,
2,24,Note_on_c,9,39,127,
2,24,Note_on_c,9,41,127,
2,24,Note_on_c,9,42,127,
2,24,Note_on_c,9,43,127,
2,24,Note_on_c,9,45,127,
2,24,Note_on_c,9,48,127,
2,24,Note_on_c,9,51,127,
2,24,Note_on_c,9,53,127,
2,24,Note_on_c,9,80,127,
2,24,Note_on_c,9,81,127,
2,24,Note_on_c,9,82,127,
2,25,Note_off_c,9,36,0,
2,26,Note_on_c,9,36,127,
2,26,Note_on_c,9,37,127,
2,26,Note_on_c,9,38,127,
2,26,Note_on_c,9,39,127,
2,26,Note_on_c,9,41,127,
2,26,Note_on_c,9,42,127,
2,26,Note_on_c,9,43,127,
2,26,Note_on_c,9,45,127,
2,26,Note_on_c,9,48,127,
2,26,Note_on_c,9,51,127,
2,26,Note_on_c,9,53,127,
2,26,Note_on_c,9,80,127,
2,26,Note_on_c,9,81,127,
2,26,Note_on_c,9,82,127,
2,27,Note_off_c,9,36,0,
2,28,Note_on_c,9,36,127,
2,28,Note_on_c,9,37,127,
2,28,Note_on_c,9,38,127,
2,28,Note_on_c,9,39,127,
2,28,Note_on_c,9,41,127,
2,28,Note_on_c,9,42,127,
2,28,Note_on_c,9,43,127,
2,28,Note_on_c,9,45,127,
2,28,Note_on_c,9,48,127,
2,28,Note_on_c,9,51,127,
2,28,Note_on_c,9,53,127,
2,28,Note_on_c,9,80,127,
2,28,Note_on_c,9,81,127,
2,28,Note_on_c,9,82,127,
2,29,Note_off_c,9,36,0,
2,30,Note_on_c,9,36,127,
2,30,Note_on_c,9,37,127,
2,30,Note_on_c,9,38,127,
2,30,Note_on_c,9,39,127,
2,30,Note_on_c,9,41,127,
2,30,Note_on_c,9,42,127,
2,30,Note_on_c,9,43,127,
2,30,Note_on_c,9,45,127,
2,30,Note_on_c,9,48,127,
2,30,Note_on_c,9,51,127,
2,30,Note_on_c,9,53,127,
2,30,Note_on_c,9,80,127,
2,30,Note_on_c,9,81,127,
2,30,Note_on_c,9,82,127,
2,31,Note_off_c,9,36,0,
2,32,Note_on_c,9,36,127,
2,32,Note_on_c,9,37,127,
2,32,Note_on_c,9,38,127,
2,32,Note_on_c,9,39,127,
2,32,Note_on_c,9,41,127,
2,32,Note_on_c,9,42,127,
2,32,Note_on_c,9,43,127,
2,32,Note_on_c,9,45,127,
2,32,Note_on_c,9,48,127,
2,32,Note_on_c,9,51,127,
2,32,Note_on_c,9,53,127,
2,32,Note_on_c,9,80,127,
2,32,Note_on_c,9,81,127,
2,32,Note_on_c,9,82,127,
2,33,Note_off_c,9,36,0,
2,34,Note_on_c,9,36,127,
2,34,Note_on_c,9,37,127,
2,34,Note_on_c,9,38,127,
2,34,Note_on_c,9,39,127,
2,34,Note_on_c,9,41,127,
2,34,Note_on_c,9,42,127,
2,34,Note_on_c,9,43,127,
2,34,Note_on_c,9,45,127,
2,34,Note_on_c,9,48,127,
2,34,Note_on_c,9,51,127,
2,34,Note_on_c,9,53,127,
2,34,Note_on_c,9,80,127,
2,34,Note_on_c,9,81,127,
2,34,Note_on_c,9,82,127,
2,35,Note_off_c,9,36,0,
2,36,Note_on_c,9,36,127,
2,36,Note_on_c,9,37,127,
2,36,Note_on_c,9,38,127,
2,36,Note_on_c,9,39,127,
2,36,Note_on_c,9,41,127,
2,36,Note_on_c,9,42,127,
2,36,Note_on_c,9,43,127,
2,36,Note_on_c,9,45,127,
2,36,Note_on_c,9,48,127,
2,36,Note_on_c,9,51,127,
2,36,Note_on_c,9,53,127,
2,36,Note_on_c,9,80,127,
2,36,Note_on_c,9,81,127,
2,36,Note_on_c,9,82,127,
2,37,Note_off_c,9,36,0,
2,38,Note_on_c,9,36,127,
2,38,Note_on_c,9,37,127,
2,38,Note_on_c,9,38,127,
2,38,Note_on_c,9,39,127,
2,38,Note_on_c,9,41,127,
2,38,Note_on_c,9,42,127,
2,38,Note_on_c,9,43,127,
2,38,Note_on_c,9,45,127,
2,38,Note_on_c,9,48,127,
2,38,Note_on_c,9,51,127,
2,38,Note_on_c,9,53,127,
2,38,Note_on_c,9,80,127,
2,38,Note_on_c,9,81,127,
2,38,Note_on_c,9,82,127,
2,39,Note_off_c,9,36,0,
2,40,Note_on_c,9,36,127,
2,40,Note_on_c,9,37,127,
2,40,Note_on_c,9,38,127,
2,40,Note_on_c,9,39,127,
2,40,Note_on_c,9,41,127,
2,40,Note_on_c,9,42,127,
2,40,Note_on_c,9,43,127,
2,40,Note_on_c,9,45,127,
2,40,Note_on_c,9,48,127,
2,40,Note_on_c,9,51,127,
2,40,Note_on_c,9,53,127,
2,40,Note_on_c,9,80,127,
2,40,Note_on_c,9,81,127,
2,40,Note_on_c,9,82,127,
2,41,Note_off_c,9,36,0,
2,42,Note_on_c,9,36,127,
2,42,Note_on_c,9,37,127,
2,42,Note_on_c,9,38,127,
2,42,Note_on_c,9,39,127,
2,42,Note_on_c,9,41,127,
2,42,Note_on_c,9,42,127,
2,42,Note_on_c,9,43,127,
2,42,Note_on_c,9,45,127,
2,42,Note_on_c,9,48,127,
2,42,Note_on_c,9,51,127,
2,42,Note_on_c,9,53,127,
2,42,Note_on_c,9,80,127,
2,42,Note_on_c,9,81,127,
2,42,Note_on_c,9,82,127,
2,43,Note_off_c,9,36,0,
2,44,Note_on_c,9,36,127,
2,44,Note_on_c,9,37,127,
2,44,Note_on_c,9,38,127,
2,44,Note_on_c,9,39,127,
2,44,Note_on_c,9,41,127,
2,44,Note_on_c,9,42,127,
2,44,Note_on_c,9,43,127,
2,44,Note_on_c,9,45,127,
2,44,Note_on_c,9,48,127,
2,44,Note_on_c,9,51,127,
2,44,Note_on_c,9,53,127,
2,44,Note_on_c,9,80,127,
2,44,Note_on_c,9,81,127,
2,44,Note_on_c,9,82,127,
2,45,Note_off_c,9,36,0,
2,46,Note_on_c,9,36,127,
2,46,Note_on_c,9,37,127,
2,46,Note_on_c,9,38,127,
2,46,Note_on_c,9,39,127,
2,46,Note_on_c,9,41,127,
2,46,Note_on_c,9,42,127,
2,46,Note_on_c,9,43,127,
2,46,Note_on_c,9,45,127,
2,46,Note_on_c,9,48,127,
2,46,Note_on_c,9,51,127,
2,46,Note_on_c,9,53,127,
2,46,Note_on_c,9,80,127,
2,46,Note_on_c,9,81,127,
2,46,Note_on_c,9,82,127,
2,47,Note_off_c,9,36,0,
2,48,Note_on_c,9,36,127,
2,48,Note_on_c,9,37,127,
2,48,Note_on_c,9,38,127,
2,48,Note_on_c,9,39,127,
2,48,Note_on_c,9,41,127,
2,48,Note_on_c,9,42,127,
2,48,Note_on_c,9,43,127,
2,48,Note_on_c,9,45,127,
2,48,Note_on_c,9,48,127,
2,48,Note_on_c,9,51,127,
2,48,Note_on_c,9,53,127,
2,48,Note_on_c,9,80,127,
2,48,Note_on_c,9,81,127,
2,48,Note_on_c,9,82,127,
2,49,Note_off_c,9,36,0,
2,50,Note_on_c,9,36,127,
2,50,Note_on_c,9,37,127,
2,50,Note_on_c,9,38,127,
2,50,Note_on_c,9,39,127,
2,50,Note_on_c,9,41,127,
2,50,Note_on_c,9,42,127,
2,50,Note_on_c,9,43,127,
2,50,Note_on_c,9,45,127,
2,50,Note_on_c,9,48,127,
2,50,Note_on_c,9,51,127,
2,50,Note_on_c,9,53,127,
2,50,Note_on_c,9,80,127,
2,50,Note_on_c,9,81,127,
2,50,Note_on_c,9,82,127,
2,51,Note_off_c,9,36,0,
2,52,Note_on_c,9,36,127,
2,52,Note_on_c,9,37,127,
2,52,Note_on_c,9,38,127,
2,52,Note_on_c,9,39,127,
2,52,Note_on_c,9,41,127,
2,52,Note_on_c,9,42,127,
2,52,Note_on_c,9,43,127,
2,52,Note_on_c,9,45,127,
2,52,Note_on_c,9,48,127,
2,52,Note_on_c,9,51,127,
2,52,Note_on_c,9,53,127,
2,52,Note_on_c,9,80,127,
2,52,Note_on_c,9,81,127,
2,52,Note_on_c,9,82,127,
2,53,Note_off_c,9,36,0,
2,54,Note_on_c,9,36,127,
2,54,Note_on_c,9,37,127,
2,54,Note_on_c,9,38,127,
2,54,Note_on_c,9,39,127,
2,54,Note_on_c,9,41,127,
2,54,Note_on_c,9,42,127,
2,54,Note_on_c,9,43,127,
2,54,Note_on_c,9,45,127,
2,54,Note_on_c,9,48,127,
2,54,Note_on_c,9,51,127,
2,54,Note_on_c,9,53,127,
2,54,Note_on_c,9,80,127,
2,54,Note_on_c,9,81,127,
2,54,Note_on_c,9,82,127,
2,55,Note_off_c,9,36,0,
2,56,Note_on_c,9,36,127,
2,56,Note_on_c,9,37,127,
2,56,Note_on_c,9,38,127,
2,56,Note_on_c,9,39,127,
2,56,Note_on_c,9,41,127,
2,56,Note_on_c,9,42,127,
2,56,Note_on_c,9,43,127,
2,56,Note_on_c,9,45,127,
2,56,Note_on_c,9,48,127,
2,56,Note_on_c,9,51,127,
2,56,Note_on_c,9,53,127,
2,56,Note_on_c,9,80,127,
2,56,Note_on_c,9,81,127,
2,56,Note_on_c,9,82,127,
2,57,Note_off_c,9,36,0,
2,58,Note_on_c,9,36,127,
2,58,Note_on_c,9,37,127,
2,58,Note_on_c,9,38,127,
2,58,Note_on_c,9,39,127,
2,58,Note_on_c,9,41,127,
2,58,Note_on_c,9,42,127,
2,58,Note_on_c,9,43,127,
2,58,Note_on_c,9,45,127,
2,58,Note_on_c,9,48,127,
2,58,Note_on_c,9,51,127,
2,58,Note_on_c,9,53,127,
2,58,Note_on_c,9,80,127,
2,58,Note_on_c,9,81,127,
2,58,Note_on_c,9,82,127,
2,59,Note_off_c,9,36,0,
2,60,Note_on_c,9,36,127,
2,60,Note_on_c,9,37,127,
2,60,Note_on_c,9,38,127,
2,60,Note_on_c,9,39,127,
2,60,Note_on_c,9,41,127,
2,60,Note_on_c,9,42,127,
2,60,Note_on_c,9,43,127,
2,60,Note_on_c,9,45,127,
2,60,Note_on_c,9,48,127,
2,60,Note_on_c,9,51,127,
2,60,Note_on_c,9,53,127,
2,60,Note_on_c,9,80,127,
2,60,Note_on_c,9,81,127,
2,60,Note_on_c,9,82,127,
2,61,Note_off_c,9,36,0,
2,62,Note_on_c,9,36,127,
2,62,Note_on_c,9,37,127,
2,62,Note_on_c,9,38,127,
2,62,Note_on_c,9,39,127,
2,62,Note_on_c,9,41,127,
2,62,Note_on_c,9,42,127,
2,62,Note_on_c,9,43,127,
2,62,Note_on_c,9,45,127,
2,62,Note_on_c,9,48,127,
2,62,Note_on_c,9,51,127,
2,62,Note_on_c,9,53,127,
2,62,Note_on_c,9,80,127,
2,62,Note_on_c,9,81,127,
2,62,Note_on_c,9,82,127,
2,63,Note_off_c,9,36,0,
2,64,Note_on_c,9,36,127,
2,64,Note_on_c,9,37,127,
2,64,Note_on_c,9,38,127,
2,64,Note_on_c,9,39,127,
2,64,Note_on_c,9,41,127,
2,64,Note_on_c,9,42,127,
2,64,Note_on_c,9,43,127,
2,64,Note_on_c,9,45,127,
2,64,Note_on_c,9,48,127,
2,64,Note_on_c,9,51,127,
2,64,Note_on_c,9,53,127,
2,64,Note_on_c,9,80,127,
2,64,Note_on_c,9,81,127,
2,64,Note_on_c,9,82,127,
2,65,Note_off_c,9,36,0,
2,66,Note_on_c,9,36,127,
2,66,Note_on_c,9,37,127,
2,66,Note_on_c,9,38,127,
2,66,Note_on_c,9,39,127,
2,66,Note_on_c,9,41,127,
2,66,Note_on_c,9,42,127,
2,66,Note_on_c,9,43,127,
2,66,Note_on_c,9,45,127,
2,66,Note_on_c,9,48,127,
2,66,Note_on_c,9,51,127,
2,66,Note_on_c,9,53,127,
2,66,Note_on_c,9,80,127,
2,66,Note_on_c,9,81,127,
2,66,Note_on_c,9,82,127,
2,67,Note_off_c,9,36,0,
2,68,Note_on_c,9,36,127,
2,68,Note_on_c,9,37,127,
2,68,Note_on_c,9,38,127,
2,68,Note_on_c,9,39,127,
2,68,Note_on_c,9,41,127,
2,68,Note_on_c,9,42,127,
2,68,Note_on_c,9,43,127,
2,68,Note_on_c,9,45,127,
2,68,Note_on_c,9,48,127,
2,68,Note_on_c,9,51,127,
2,68,Note_on_c,9,53,127,
2,68,Note_on_c,9,80,127,
2,68,Note_on_c,9,81,127,
2,68,Note_on_c,9,82,127,
2,69,Note_off_c,9,36,0,
2,70,Note_on_c,9,36,127,
2,70,Note_on_c,9,37,127,
2,70,Note_on_c,9,38,127,
2,70,Note_on_c,9,39,127,
2,70,Note_on_c,9,41,127,
2,70,Note_on_c,9,42,127,
2,70,Note_on_c,9,43,127,
2,70,Note_on_c,9,45,127,
2,70,Note_on_c,9,48,127,
2,70,Note_on_c,9,51,127,
2,70,Note_on_c,9,53,127,
2,70,Note_on_c,9,80,127,
2,70,Note_on_c,9,81,127,
2,70,Note_on_c,9,82,127,
2,71,Note_off_c,9,36,0,
2,72,Note_on_c,9,36,127,
2,72,Note_on_c,9,37,127,
2,72,Note_on_c,9,38,127,
2,72,Note_on_c,9,39,127,
2,72,Note_on_c,9,41,127,
2,72,Note_on_c,9,42,127,
2,72,Note_on_c,9,43,127,
2,72,Note_on_c,9,45,127,
2,72,Note_on_c,9,48,127,
2,72,Note_on_c,9,51,127,
2,72,Note_on_c,9,53,127,
2,72,Note_on_c,9,80,127,
2,72,Note_on_c,9,81,127,
2,72,Note_on_c,9,82,127,
2,73,Note_off_c,9,36,0,
2,74,Note_on_c,9,36,127,
2,74,Note_on_c,9,37,127,
2,74,Note_on_c,9,38,127,
2,74,Note_on_c,9,39,127,
2,74,Note_on_c,9,41,127,
2,74,Note_on_c,9,42,127,
2,74,Note_on_c,9,43,127,
2,74,Note_on_c,9,45,127,
2,74,Note_on_c,9,48,127,
2,74,Note_on_c,9,51,127,
2,74,Note_on_c,9,53,127,
2,74,Note_on_c,9,80,127,
2,74,Note_on_c,9,81,127,
2,74,Note_on_c,9,82,127,
2,75,Note_off_c,9,36,0,
2,76,Note_on_c,9,36,127,
2,76,Note_on_c,9,37,127,
2,76,Note_on_c,9,38,127,
2,76,Note_on_c,9,39,127,
2,76,Note_on_c,9,41,127,
2,76,Note_on_c,9,42,127,
2,76,Note_on_c,9,43,127,
2,76,Note_on_c,9,45,127,
2,76,Note_on_c,9,48,127,
2,76,Note_on_c,9,51,127,
2,76,Note_on_c,9,53,127,
2,76,Note_on_c,9,80,127,
2,76,Note_on_c,9,81,127,
2,76,Note_on_c,9,82,127,
2,77,Note_off_c,9,36,0,
2,78,Note_on_c,9,36,127,
2,78,Note_on_c,9,37,127,
2,78,Note_on_c,9,38,127,
2,78,Note_on_c,9,39,127,
2,78,Note_on_c,9,41,127,
2,78,Note_on_c,9,42,127,
2,78,Note_on_c,9,43,127,
2,78,Note_on_c,9,45,127,
2,78,Note_on_c,9,48,127,
2,78,Note_on_c,9,51,127,
2,78,Note_on_c,9,53,127,
2,78,Note_on_c,9,80,127,
2,78,Note_on_c,9,81,127,
2,78,Note_on_c,9,82,127,
2,79,Note_off_c,9,36,0,
2,80,Note_on_c,9,36,127,
2,80,Note_on_c,9,37,127,
2,80,Note_on_c,9,38,127,
2,80,Note_on_c,9,39,127,
2,80,Note_on_c,9,41,127,
2,80,Note_on_c,9,42,127,
2,80,Note_on_c,9,43,127,
2,80,Note_on_c,9,45,127,
2,80,Note_on_c,9,48,127,
2,80,Note_on_c,9,51,127,
2,80,Note_on_c,9,53,127,
2,80,Note_on_c,9,80,127,
2,80,Note_on_c,9,81,127,
2,80,Note_on_c,9,82,127,
2,81,Note_off_c,9,36,0,
2,82,Note_on_c,9,36,127,
2,82,Note_on_c,9,37,127,
2,82,Note_on_c,9,38,127,
2,82,Note_on_c,9,39,127,
2,82,Note_on_c,9,41,127,
2,82,Note_on_c,9,42,127,
2,82,Note_on_c,9,43,127,
2,82,Note_on_c,9,45,127,
2,82,Note_on_c,9,48,127,
2,82,Note_on_c,9,51,127,
2,82,Note_on_c,9,53,127,
2,82,Note_on_c,9,80,127,
2,82,Note_on_c,9,81,127,
2,82,Note_on_c,9,82,127,
2,83,Note_off_c,9,36,0,
2,84,Note_on_c,9,36,127,
2,84,Note_on_c,9,37,127,
2,84,Note_on_c,9,38,127,
2,84,Note_on_c,9,39,127,
2,84,Note_on_c,9,41,127,
2,84,Note_on_c,9,42,127,
2,84,Note_on_c,9,43,127,
2,84,Note_on_c,9,45,127,
2,84,Note_on_c,9,48,127,
2,84,Note_on_c,9,51,127,
2,84,Note_on_c,9,53,127,
2,84,Note_on_c,9,80,127,
2,84,Note_on_c,9,81,127,
2,84,Note_on_c,9,82,127,
2,85,Note_off_c,9,36,0,
2,86,Note_on_c,9,36,127,
2,86,Note_on_c,9,37,127,
2,86,Note_on_c,9,38,127,
2,86,Note_on_c,9,39,127,
2,86,Note_on_c,9,41,127,
2,86,Note_on_c,9,42,127,
2,86,Note_on_c,9,43,127,
2,86,Note_on_c,9,45,127,
2,86,Note_on_c,9,48,127,
2,86,Note_on_c,9,51,127,
2,86,Note_on_c,9,53,127,
2,86,Note_on_c,9,80,127,
2,86,Note_on_c,9,81,127,
2,86,Note_on_c,9,82,127,
2,87,Note_off_c,9,36,0,
2,88,Note_on_c,9,36,127,
2,88,Note_on_c,9,37,127,
2,88,Note_on_c,9,38,127,
2,88,Note_on_c,9,39,127,
2,88,Note_on_c,9,41,127,
2,88,Note_on_c,9,42,127,
2,88,Note_on_c,9,43,127,
2,88,Note_on_c,9,45,127,
2,88,Note_on_c,9,48,127,
2,88,Note_on_c,9,51,127,
2,88,Note_on_c,9,53,127,
2,88,Note_on_c,9,80,127,
2,88,Note_on_c,9,81,127,
2,88,Note_on_c,9,82,127,
2,89,Note_off_c,9,36,0,
2,90,Note_on_c,9,36,127,
2,90,Note_on_c,9,37,127,
2,90,Note_on_c,9,38,127,
2,90,Note_on_c,9,39,127,
2,90,Note_on_c,9,41,127,
2,90,Note_on_c,9,42,127,
2,90,Note_on_c,9,43,127,
2,90,Note_on_c,9,45,127,
2,90,Note_on_c,9,48,127,
2,90,Note_on_c,9,51,127,
2,90,Note_on_c,9,53,127,
2,90,Note_on_c,9,80,127,
2,90,Note_on_c,9,81,127,
2,90,Note_on_c,9,82,127,
2,91,Note_off_c,9,36,0,
2,92,Note_on_c,9,36,127,
2,92,Note_on_c,9,37,127,
2,92,Note_on_c,9,38,127,
2,92,Note_on_c,9,39,127,
2,92,Note_on_c,9,41,127,
2,92,Note_on_c,9,42,127,
2,92,Note_on_c,9,43,127,
2,92,Note_on_c,9,45,127,
2,92,Note_on_c,9,48,127,
2,92,Note_on_c,9,51,127,
2,92,Note_on_c,9,53,127,
2,92,Note_on_c,9,80,127,
2,92,Note_on_c,9,81,127,
2,92,Note_on_c,9,82,127,
2,93,Note_off_c,9,36,0,
2,94,Note_on_c,9,36,127,
2,94,Note_on_c,9,37,127,
2,94,Note_on_c,9,38,127,
2,94,Note_on_c,9,39,127,
2,94,Note_on_c,9,41,127,
2,94,Note_on_c,9,42,127,
2,94,Note_on_c,9,43,127,
2,94,Note_on_c,9,45,127,
2,94,Note_on_c,9,48,127,
2,94,Note_on_c,9,51,127,
2,94,Note_on_c,9,53,127,
2,94,Note_on_c,9,80,127,
2,94,Note_on_c,9,81,127,
2,94,Note_on_c,9,82,127,
2,95,Note_off_c,9,36,0,
2,96,Note_on_c,9,36,127,
2,96,Note_on_c,9,37,127,
2,96,Note_on_c,9,38,127,
2,96,Note_on_c,9,39,127,
2,96,Note_on_c,9,41,127,
2,96,Note_on_c,9,42,127,
2,96,Note_on_c,9,43,127,
2,96,Note_on_c,9,45,127,
2,96,Note_on_c,9,48,127,
2,96,Note_on_c,9,51,127,
2,96,Note_on_c,9,53,127,
2,96,Note_on_c,9,80,127,
2,96,Note_on_c,9,81,127,
2,96,Note_on_c,9,82,127,
2,97,Note_off_c,9,36,0,
2,98,Note_on_c,9,36,127,
2,98,Note_on_c,9,37,127,
2,98,Note_on_c,9,38,127,
2,98,Note_on_c,9,39,127,
2,98,Note_on_c,9,41,127,
2,98,Note_on_c,9,42,127,
2,98,Note_on_c,9,43,127,
2,98,Note_on_c,9,45,127,
2,98,Note_on_c,9,48,127,
2,98,Note_on_c,9,51,127,
2,98,Note_on_c,9,53,127,
2,98,Note_on_c,9,80,127,
2,98,Note_on_c,9,81,127,
2,98,Note_on_c,9,82,127,
2,99,Note_off_c,9,36,0,
2,100,Note_on_c,9,36,127,
2,100,Note_on_c,9,37,127,
2,100,Note_on_c,9,38,127,
2,100,Note_on_c,9,39,127,
2,100,Note_on_c,9,41,127,
2,100,Note_on_c,9,42,127,
2,100,Note_on_c,9,43,127,
2,100,Note_on_c,9,45,127,
2,100,Note_on_c,9,48,127,
2,100,Note_on_c,9,51,127,
2,100,Note_on_c,9,53,127,
2,100,Note_on_c,9,80,127,
2,100,Note_on_c,9,81,127,
2,100,Note_on_c,9,82,127,
2,101,Note_off_c,9,36,0,
2,102,Note_on_c,9,36,127,
2,102,Note_on_c,9,37,127,
2,102,Note_on_c,9,38,127,
2,102,Note_on_c,9,39,127,
2,102,Note_on_c,9,41,127,
2,102,Note_on_c,9,42,127,
2,102,Note_on_c,9,43,127,
2,102,Note_on_c,9,45,127,
2,102,Note_on_c,9,48,127,
2,102,Note_on_c,9,51,127,
2,102,Note_on_c,9,53,127,
2,102,Note_on_c,9,80,127,
2,102,Note_on_c,9,81,127,
2,102,Note_on_c,9,82,127,
2,103,Note_off_c,9,36,0,
2,104,Note_on_c,9,36,127,
2,104,Note_on_c,9,37,127,
2,104,Note_on_c,9,38,127,
2,104,Note_on_c,9,39,127,
2,104,Note_on_c,9,41,127,
2,104,Note_on_c,9,42,127,
2,104,Note_on_c,9,43,127,
2,104,Note_on_c,9,45,127,
2,104,Note_on_c,9,48,127,
2,104,Note_on_c,9,51,127,
2,104,Note_on_c,9,53,127,
2,104,Note_on_c,9,80,127,
2,104,Note_on_c,9,81,127,
2,104,Note_on_c,9,82,127,
2,105,Note_off_c,9,36,0,
2,106,Note_on_c,9,36,127,
2,106,Note_on_c,9,37,127,
2,106,Note_on_c,9,38,127,
2,106,Note_on_c,9,39,127,
2,106,Note_on_c,9,41,127,
2,106,Note_on_c,9,42,127,
2,106,Note_on_c,9,43,127,
2,106,Note_on_c,9,45,127,
2,106,Note_on_c,9,48,127,
2,106,Note_on_c,9,51,127,
2,106,Note_on_c,9,53,127,
2,106,Note_on_c,9,80,127,
2,106,Note_on_c,9,81,127,
2,106,Note_on_c,9,82,127,
2,107,Note_off_c,9,36,0,
2,108,Note_on_c,9,36,127,
2,108,Note_on_c,9,37,127,
2,108,Note_on_c,9,38,127,
2,108,Note_on_c,9,39,127,
2,108,Note_on_c,9,41,127,
2,108,Note_on_c,9,42,127,
2,108,Note_on_c,9,43,127,
2,108,Note_on_c,9,45,127,
2,108,Note_on_c,9,48,127,
2,108,Note_on_c,9,51,127,
2,108,Note_on_c,9,53,127,
2,108,Note_on_c,9,80,127,
2,108,Note_on_c,9,81,127,
2,108,Note_on_c,9,82,127,
2,109,Note_off_c,9,36,0,
2,110,Note_on_c,9,36,127,
2,110,Note_on_c,9,37,127,
2,110,Note_on_c,9,38,127,
2,110,Note_on_c,9,39,127,
2,110,Note_on_c,9,41,127,
2,110,Note_on_c,9,42,127,
2,110,Note_on_c,9,43,127,
2,110,Note_on_c,9,45,127,
2,110,Note_on_c,9,48,127,
2,110,Note_on_c,9,51,127,
2,110,Note_on_c,9,53,127,
2,110,Note_on_c,9,80,127,
2,110,Note_on_c,9,81,127,
2,110,Note_on_c,9,82,127,
2,111,Note_off_c,9,36,0,
2,112,Note_on_c,9,36,127,
2,112,Note_on_c,9,37,127,
2,112,Note_on_c,9,38,127,
2,112,Note_on_c,9,39,127,
2,112,Note_on_c,9,41,127,
2,112,Note_on_c,9,42,127,
2,112,Note_on_c,9,43,127,
2,112,Note_on_c,9,45,127,
2,112,Note_on_c,9,48,127,
2,112,Note_on_c,9,51,127,
2,112,Note_on_c,9,53,127,
2,112,Note_on_c,9,80,127,
2,112,Note_on_c,9,81,127,
2,112,Note_on_c,9,82,127,
2,113,Note_off_c,9,36,0,
2,114,Note_on_c,9,36,127,
2,114,Note_on_c,9,37,127,
2,114,Note_on_c,9,38,127,
2,114,Note_on_c,9,39,127,
2,114,Note_on_c,9,41,127,
2,114,Note_on_c,9,42,127,
2,114,Note_on_c,9,43,127,
2,114,Note_on_c,9,45,127,
2,114,Note_on_c,9,48,127,
2,114,Note_on_c,9,51,127,
2,114,Note_on_c,9,53,127,
2,114,Note_on_c,9,80,127,
2,114,Note_on_c,9,81,127,
2,114,Note_on_c,9,82,127,
2,115,Note_off_c,9,36,0,
2,116,Note_on_c,9,36,127,
2,116,Note_on_c,9,37,127,
2,116,Note_on_c,9,38,127,
2,116,Note_on_c,9,39,127,
2,116,Note_on_c,9,41,127,
2,116,Note_on_c,9,42,127,
2,116,Note_on_c,9,43,127,
2,116,Note_on_c,9,45,127,
2,116,Note_on_c,9,48,127,
2,116,Note_on_c,9,51,127,
2,116,Note_on_c,9,53,127,
2,116,Note_on_c,9,80,127,
2,116,Note_on_c,9,81,127,
2,116,Note_on_c,9,82,127,
2,117,Note_off_c,9,36,0,
2,118,Note_on_c,9,36,127,
2,118,Note_on_c,9,37,127,
2,118,Note_on_c,9,38,127,
2,118,Note_on_c,9,39,127,
2,118,Note_on_c,9,41,127,
2,118,Note_on_c,9,42,127,
2,118,Note_on_c,9,43,127,
2,118,Note_on_c,9,45,127,
2,118,Note_on_c,9,48,127,
2,118,Note_on_c,9,51,127,
2,118,Note_on_c,9,53,127,
2,118,Note_on_c,9,80,127,
2,118,Note_on_c,9,81,127,
2,118,Note_on_c,9,82,127,
2,119,Note_off_c,9,36,0,
2,120,Note_on_c,9,36,127,
2,120,Note_on_c,9,37,127,
2,120,Note_on_c,9,38,127,
2,120,Note_on_c,9,39,127,
2,120,Note_on_c,9,41,127,
2,120,Note_on_c,9,42,127,
2,120,Note_on_c,9,43,127,
2,120,Note_on_c,9,45,127,
2,120,Note_on_c,9,48,127,
2,120,Note_on_c,9,51,127,
2,120,Note_on_c,9,53,127,
2,120,Note_on_c,9,80,127,
2,120,Note_on_c,9,81,127,
2,120,Note_on_c,9,82,127,
2,121,Note_off_c,9,36,0,
2,122,Note_on_c,9,36,127,
2,122,Note_on_c,9,37,127,
2,122,Note_on_c,9,38,127,
2,122,Note_on_c,9,39,127,
2,122,Note_on_c,9,41,127,
2,122,Note_on_c,9,42,127,
2,122,Note_on_c,9,43,127,
2,122,Note_on_c,9,45,127,
2,122,Note_on_c,9,48,127,
2,122,Note_on_c,9,51,127,
2,122,Note_on_c,9,53,127,
2,122,Note_on_c,9,80,127,
2,122,Note_on_c,9,81,127,
2,122,Note_on_c,9,82,127,
2,123,Note_off_c,9,36,0,
2,124,Note_on_c,9,36,127,
2,124,Note_on_c,9,37,127,
2,124,Note_on_c,9,38,127,
2,124,Note_on_c,9,39,127,
2,124,Note_on_c,9,41,127,
2,124,Note_on_c,9,42,127,
2,124,Note_on_c,9,43,127,
2,124,Note_on_c,9,45,127,
2,124,Note_on_c,9,48,127,
2,124,Note_on_c,9,51,127,
2,124,Note_on_c,9,53,127,
2,124,Note_on_c,9,80,127,
2,124,Note_on_c,9,81,127,
2,124,Note_on_c,9,82,127,
2,125,Note_off_c,9,36,0,
2,126,Note_on_c,9,36,127,
2,126,Note_on_c,9,37,127,
2,126,Note_on_c,9,38,127,
2,126,Note_on_c,9,39,127,
2,126,Note_on_c,9,41,127,
2,126,Note_on_c,9,42,127,
2,126,Note_on_c,9,43,127,
2,126,Note_on_c,9,45,127,
2,126,Note_on_c,9,48,127,
2,126,Note_on_c,9,51,127,
2,126,Note_on_c,9,53,127,
2,126,Note_on_c,9,80,127,
2,126,Note_on_c,9,81,127,
2,126,Note_on_c,9,82,127,
2,127,Note_off_c,9,36,0,
2,128,Note_on_c,9,36,127,
2,128,Note_on_c,9,37,127,
2,128,Note_on_c,9,38,127,
2,128,Note_on_c,9,39,127,
2,128,Note_on_c,9,41,127,
2,128,Note_on_c,9,42,127,
2,128,Note_on_c,9,43,127,
2,128,Note_on_c,9,45,127,
2,128,Note_on_c,9,48,127,
2,128,Note_on_c,9,51,127,
2,128,Note_on_c,9,53,127,
2,128,Note_on_c,9,80,127,
2,128,Note_on_c,9,81,127,
2,128,Note_on_c,9,82,127,
2,129,Note_off_c,9,36,0,
2,130,Note_on_c,9,36,127,
2,130,Note_on_c,9,37,127,
2,130,Note_on_c,9,38,127,
2,130,Note_on_c,9,39,127,
2,130,Note_on_c,9,41,127,
2,130,Note_on_c,9,42,127,
2,130,Note_on_c,9,43,127,
2,130,Note_on_c,9,45,127,
2,130,Note_on_c,9,48,127,
2,130,Note_on_c,9,51,127,
2,130,Note_on_c,9,53,127,
2,130,Note_on_c,9,80,127,
2,130,Note_on_c,9,81,127,
2,130,Note_on_c,9,82,127,
2,131,Note_off_c,9,36,0,
2,132,Note_on_c,9,36,127,
2,132,Note_on_c,9,37,127,
2,132,Note_on_c,9,38,127,
2,132,Note_on_c,9,39,127,
2,132,Note_on_c,9,41,127,
2,132,Note_on_c,9,42,127,
2,132,Note_on_c,9,43,127,
2,132,Note_on_c,9,45,127,
2,132,Note_on_c,9,48,127,
2,132,Note_on_c,9,51,127,
2,132,Note_on_c,9,53,127,
2,132,Note_on_c,9,80,127,
2,132,Note_on_c,9,81,127,
2,132,Note_on_c,9,82,127,
2,133,Note_off_c,9,36,0,
2,134,Note_on_c,9,36,127,
2,134,Note_on_c,9,37,127,
2,134,Note_on_c,9,38,127,
2,134,Note_on_c,9,39,127,
2,134,Note_on_c,9,41,127,
2,134,Note_on_c,9,42,127,
2,134,Note_on_c,9,43,127,
2,134,Note_on_c,9,45,127,
2,134,Note_on_c,9,48,127,
2,134,Note_on_c,9,51,127,
2,134,Note_on_c,9,53,127,
2,134,Note_on_c,9,80,127,
2,134,Note_on_c,9,81,127,
2,134,Note_on_c,9,82,127,
2,135,Note_off_c,9,36,0,
2,136,Note_on_c,9,36,127,
2,136,Note_on_c,9,37,127,
2,136,Note_on_c,9,38,127,
2,136,Note_on_c,9,39,127,
2,136,Note_on_c,9,41,127,
2,136,Note_on_c,9,42,127,
2,136,Note_on_c,9,43,127,
2,136,Note_on_c,9,45,127,
2,136,Note_on_c,9,48,127,
2,136,Note_on_c,9,51,127,
2,136,Note_on_c,9,53,127,
2,136,Note_on_c,9,80,127,
2,136,Note_on_c,9,81,127,
2,136,Note_on_c,9,82,127,
2,137,Note_off_c,9,36,0,
2,138,Note_on_c,9,36,127,
2,138,Note_on_c,9,37,127,
2,138,Note_on_c,9,38,127,
2,138,Note_on_c,9,39,127,
2,138,Note_on_c,9,41,127,
2,138,Note_on_c,9,42,127,
2,138,Note_on_c,9,43,127,
2,138,Note_on_c,9,45,127,
2,138,Note_on_c,9,48,127,
2,138,Note_on_c,9,51,127,
2,138,Note_on_c,9,53,127,
2,138,Note_on_c,9,80,127,
2,138,Note_on_c,9,81,127,
2,138,Note_on_c,9,82,127,
2,139,Note_off_c,9,36,0,
2,140,Note_on_c,9,36,127,
2,140,Note_on_c,9,37,127,
2,140,Note_on_c,9,38,127,
2,140,Note_on_c,9,39,127,
2,140,Note_on_c,9,41,127,
2,140,Note_on_c,9,42,127,
2,140,Note_on_c,9,43,127,
2,140,Note_on_c,9,45,127,
2,140,Note_on_c,9,48,127,
2,140,Note_on_c,9,51,127,
2,140,Note_on_c,9,53,127,
2,140,Note_on_c,9,80,127,
2,140,Note_on_c,9,81,127,
2,140,Note_on_c,9,82,127,
2,141,Note_off_c,9,36,0,
2,142,Note_on_c,9,36,127,
2,142,Note_on_c,9,37,127,
2,142,Note_on_c,9,38,127,
2,142,Note_on_c,9,39,127,
2,142,Note_on_c,9,41,127,
2,142,Note_on_c,9,42,127,
2,142,Note_on_c,9,43,127,
2,142,Note_on_c,9,45,127,
2,142,Note_on_c,9,48,127,
2,142,Note_on_c,9,51,127,
2,142,Note_on_c,9,53,127,
2,142,Note_on_c,9,80,127,
2,142,Note_on_c,9,81,127,
2,142,Note_on_c,9,82,127,
2,143,Note_off_c,9,36,0,
2,144,Note_on_c,9,36,127,
2,144,Note_on_c,9,37,127,
2,144,Note_on_c,9,38,127,
2,144,Note_on_c,9,39,127,
2,144,Note_on_c,9,41,127,
2,144,Note_on_c,9,42,127,
2,144,Note_on_c,9,43,127,
2,144,Note_on_c,9,45,127,
2,144,Note_on_c,9,48,127,
2,144,Note_on_c,9,51,127,
2,144,Note_on_c,9,53,127,
2,144,Note_on_c,9,80,127,
2,144,Note_on_c,9,81,127,
2,144,Note_on_c,9,82,127,
2,145,Note_off_c,9,36,0,
2,146,Note_on_c,9,36,127,
2,146,Note_on_c,9,37,127,
2,146,Note_on_c,9,38,127,
2,146,Note_on_c,9,39,127,
2,146,Note_on_c,9,41,127,
2,146,Note_on_c,9,42,127,
2,146,Note_on_c,9,43,127,
2,146,Note_on_c,9,45,127,
2,146,Note_on_c,9,48,127,
2,146,Note_on_c,9,51,127,
2,146,Note_on_c,9,53,127,
2,146,Note_on_c,9,80,127,
2,146,Note_on_c,9,81,127,
2,146,Note_on_c,9,82,127,
2,147,Note_off_c,9,36,0,
2,148,Note_on_c,9,36,127,
2,148,Note_on_c,9,37,127,
2,148,Note_on_c,9,38,127,
2,148,Note_on_c,9,39,127,
2,148,Note_on_c,9,41,127,
2,148,Note_on_c,9,42,127,
2,148,Note_on_c,9,43,127,
2,148,Note_on_c,9,45,127,
2,148,Note_on_c,9,48,127,
2,148,Note_on_c,9,51,127,
2,148,Note_on_c,9,53,127,
2,148,Note_on_c,9,80,127,
2,148,Note_on_c,9,81,127,
2,148,Note_on_c,9,82,127,
2,149,Note_off_c,9,36,0,
2,150,Note_on_c,9,36,127,
2,150,Note_on_c,9,37,127,
2,150,Note_on_c,9,38,127,
2,150,Note_on_c,9,39,127,
2,150,Note_on_c,9,41,127,
2,150,Note_on_c,9,42,127,
2,150,Note_on_c,9,43,127,
2,150,Note_on_c,9,45,127,
2,150,Note_on_c,9,48,127,
2,150,Note_on_c,9,51,127,
2,150,Note_on_c,9,53,127,
2,150,Note_on_c,9,80,127,
2,150,Note_on_c,9,81,127,
2,150,Note_on_c,9,82,127,
2,151,Note_off_c,9,36,0,
2,152,Note_on_c,9,36,127,
2,152,Note_on_c,9,37,127,
2,152,Note_on_c,9,38,127,
2,152,Note_on_c,9,39,127,
2,152,Note_on_c,9,41,127,
2,152,Note_on_c,9,42,127,
2,152,Note_on_c,9,43,127,
2,152,Note_on_c,9,45,127,
2,152,Note_on_c,9,48,127,
2,152,Note_on_c,9,51,127,
2,152,Note_on_c,9,53,127,
2,152,Note_on_c,9,80,127,
2,152,Note_on_c,9,81,127,
2,152,Note_on_c,9,82,127,
2,153,Note_off_c,9,36,0,
2,154,Note_on_c,9,36,127,
2,154,Note_on_c,9,37,127,
2,154,Note_on_c,9,38,127,
2,154,Note_on_c,9,39,127,
2,154,Note_on_c,9,41,127,
2,154,Note_on_c,9,42,127,
2,154,Note_on_c,9,43,127,
2,154,Note_on_c,9,45,127,
2,154,Note_on_c,9,48,127,
2,154,Note_on_c,9,51,127,
2,154,Note_on_c,9,53,127,
2,154,Note_on_c,9,80,127,
2,154,Note_on_c,9,81,127,
2,154,Note_on_c,9,82,127,
2,155,Note_off_c,9,36,0,
2,156,Note_on_c,9,36,127,
2,156,Note_on_c,9,37,127,
2,156,Note_on_c,9,38,127,
2,156,Note_on_c,9,39,127,
2,156,Note_on_c,9,41,127,
2,156,Note_on_c,9,42,127,
2,156,Note_on_c,9,43,127,
2,156,Note_on_c,9,45,127,
2,156,Note_on_c,9,48,127,
2,156,Note_on_c,9,51,127,
2,156,Note_on_c,9,53,127,
2,156,Note_on_c,9,80,127,
2,156,Note_on_c,9,81,127,
2,156,Note_on_c,9,82,127,
2,157,Note_off_c,9,36,0,
2,158,Note_on_c,9,36,127,
2,158,Note_on_c,9,37,127,
2,158,Note_on_c,9,38,127,
2,158,Note_on_c,9,39,127,
2,158,Note_on_c,9,41,127,
2,158,Note_on_c,9,42,127,
2,158,Note_on_c,9,43,127,
2,158,Note_on_c,9,45,127,
2,158,Note_on_c,9,48,127,
2,158,Note_on_c,9,51,127,
2,158,Note_on_c,9,53,127,
2,158,Note_on_c,9,80,127,
2,158,Note_on_c,9,81,127,
2,158,Note_on_c,9,82,127,
2,159,Note_off_c,9,36,0,
2,160,Note_on_c,9,36,127,
2,160,Note_on_c,9,37,127,
2,160,Note_on_c,9,38,127,
2,160,Note_on_c,9,39,127,
2,160,Note_on_c,9,41,127,
2,160,Note_on_c,9,42,127,
2,160,Note_on_c,9,43,127,
2,160,Note_on_c,9,45,127,
2,160,Note_on_c,9,48,127,
2,160,Note_on_c,9,51,127,
2,160,Note_on_c,9,53,127,
2,160,Note_on_c,9,80,127,
2,160,Note_on_c,9,81,127,
2,160,Note_on_c,9,82,127,
2,161,Note_off_c,9,36,0,
2,162,Note_on_c,9,36,127,
2,162,Note_on_c,9,37,127,
2,162,Note_on_c,9,38,127,
2,162,Note_on_c,9,39,127,
2,162,Note_on_c,9,41,127,
2,162,Note_on_c,9,42,127,
2,162,Note_on_c,9,43,127,
2,162,Note_on_c,9,45,127,
2,162,Note_on_c,9,48,127,
2,162,Note_on_c,9,51,127,
2,162,Note_on_c,9,53,127,
2,162,Note_on_c,9,80,127,
2,162,Note_on_c,9,81,127,
2,162,Note_on_c,9,82,127,
2,163,Note_off_c,9,36,0,
2,164,Note_on_c,9,36,127,
2,164,Note_on_c,9,37,127,
2,164,Note_on_c,9,38,127,
2,164,Note_on_c,9,39,127,
2,164,Note_on_c,9,41,127,
2,164,Note_on_c,9,42,127,
2,164,Note_on_c,9,43,127,
2,164,Note_on_c,9,45,127,
2,164,Note_on_c,9,48,127,
2,164,Note_on_c,9,51,127,
2,164,Note_on_c,9,53,127,
2,164,Note_on_c,9,80,127,
2,164,Note_on_c,9,81,127,
2,164,Note_on_c,9,82,127,
2,165,Note_off_c,9,36,0,
2,166,Note_on_c,9,36,127,
2,166,Note_on_c,9,37,127,
2,166,Note_on_c,9,38,127,
2,166,Note_on_c,9,39,127,
2,166,Note_on_c,9,41,127,
2,166,Note_on_c,9,42,127,
2,166,Note_on_c,9,43,127,
2,166,Note_on_c,9,45,127,
2,166,Note_on_c,9,48,127,
2,166,Note_on_c,9,51,127,
2,166,Note_on_c,9,53,127,
2,166,Note_on_c,9,80,127,
2,166,Note_on_c,9,81,127,
2,166,Note_on_c,9,82,127,
2,167,Note_off_c,9,36,0,
2,168,Note_on_c,9,36,127,
2,168,Note_on_c,9,37,127,
2,168,Note_on_c,9,38,127,
2,168,Note_on_c,9,39,127,
2,168,Note_on_c,9,41,127,
2,168,Note_on_c,9,42,127,
2,168,Note_on_c,9,43,127,
2,168,Note_on_c,9,45,127,
2,168,Note_on_c,9,48,127,
2,168,Note_on_c,9,51,127,
2,168,Note_on_c,9,53,127,
2,168,Note_on_c,9,80,127,
2,168,Note_on_c,9,81,127,
2,168,Note_on_c,9,82,127,
2,169,Note_off_c,9,36,0,
2,170,Note_on_c,9,36,127,
2,170,Note_on_c,9,37,127,
2,170,Note_on_c,9,38,127,
2,170,Note_on_c,9,39,127,
2,170,Note_on_c,9,41,127,
2,170,Note_on_c,9,42,127,
2,170,Note_on_c,9,43,127,
2,170,Note_on_c,9,45,127,
2,170,Note_on_c,9,48,127,
2,170,Note_on_c,9,51,127,
2,170,Note_on_c,9,53,127,
2,170,Note_on_c,9,80,127,
2,170,Note_on_c,9,81,127,
2,170,Note_on_c,9,82,127,
2,171,Note_off_c,9,36,0,
2,172,Note_on_c,9,36,127,
2,172,Note_on_c,9,37,127,
2,172,Note_on_c,9,38,127,
2,172,Note_on_c,9,39,127,
2,172,Note_on_c,9,41,127,
2,172,Note_on_c,9,42,127,
2,172,Note_on_c,9,43,127,
2,172,Note_on_c,9,45,127,
2,172,Note_on_c,9,48,127,
2,172,Note_on_c,9,51,127,
2,172,Note_on_c,9,53,127,
2,172,Note_on_c,9,80,127,
2,172,Note_on_c,9,81,127,
2,172,Note_on_c,9,82,127,
2,173,Note_off_c,9,36,0,
2,174,Note_on_c,9,36,127,
2,174,Note_on_c,9,37,127,
2,174,Note_on_c,9,38,127,
2,174,Note_on_c,9,39,127,
2,174,Note_on_c,9,41,127,
2,174,Note_on_c,9,42,127,
2,174,Note_on_c,9,43,127,
2,174,Note_on_c,9,45,127,
2,174,Note_on_c,9,48,127,
2,174,Note_on_c,9,51,127,
2,174,Note_on_c,9,53,127,
2,174,Note_on_c,9,80,127,
2,174,Note_on_c,9,81,127,
2,174,Note_on_c,9,82,127,
2,175,Note_off_c,9,36,0,
2,176,Note_on_c,9,36,127,
2,176,Note_on_c,9,37,127,
2,176,Note_on_c,9,38,127,
2,176,Note_on_c,9,39,127,
2,176,Note_on_c,9,41,127,
2,176,Note_on_c,9,42,127,
2,176,Note_on_c,9,43,127,
2,176,Note_on_c,9,45,127,
2,176,Note_on_c,9,48,127,
2,176,Note_on_c,9,51,127,
2,176,Note_on_c,9,53,127,
2,176,Note_on_c,9,80,127,
2,176,Note_on_c,9,81,127,
2,176,Note_on_c,9,82,127,
2,177,Note_off_c,9,36,0,
2,178,Note_on_c,9,36,127,
2,178,Note_on_c,9,37,127,
2,178,Note_on_c,9,38,127,
2,178,Note_on_c,9,39,127,
2,178,Note_on_c,9,41,127,
2,178,Note_on_c,9,42,127,
2,178,Note_on_c,9,43,127,
2,178,Note_on_c,9,45,127,
2,178,Note_on_c,9,48,127,
2,178,Note_on_c,9,51,127,
2,178,Note_on_c,9,53,127,
2,178,Note_on_c,9,80,127,
2,178,Note_on_c,9,81,127,
2,178,Note_on_c,9,82,127,
2,179,Note_off_c,9,36,0,
2,180,Note_on_c,9,36,127,
2,180,Note_on_c,9,37,127,
2,180,Note_on_c,9,38,127,
2,180,Note_on_c,9,39,127,
2,180,Note_on_c,9,41,127,
2,180,Note_on_c,9,42,127,
2,180,Note_on_c,9,43,127,
2,180,Note_on_c,9,45,127,
2,180,Note_on_c,9,48,127,
2,180,Note_on_c,9,51,127,
2,180,Note_on_c,9,53,127,
2,180,Note_on_c,9,80,127,
2,180,Note_on_c,9,81,127,
2,180,Note_on_c,9,82,127,
2,181,Note_off_c,9,36,0,
2,182,Note_on_c,9,36,127,
2,182,Note_on_c,9,37,127,
2,182,Note_on_c,9,38,127,
2,182,Note_on_c,9,39,127,
2,182,Note_on_c,9,41,127,
2,182,Note_on_c,9,42,127,
2,182,Note_on_c,9,43,127,
2,182,Note_on_c,9,45,127,
2,182,Note_on_c,9,48,127,
2,182,Note_on_c,9,51,127,
2,182,Note_on_c,9,53,127,
2,182,Note_on_c,9,80,127,
2,182,Note_on_c,9,81,127,
2,182,Note_on_c,9,82,127,
2,183,Note_off_c,9,36,0,
2,184,Note_on_c,9,36,127,
2,184,Note_on_c,9,37,127,
2,184,Note_on_c,9,38,127,
2,184,Note_on_c,9,39,127,
2,184,Note_on_c,9,41,127,
2,184,Note_on_c,9,42,127,
2,184,Note_on_c,9,43,127,
2,184,Note_on_c,9,45,127,
2,184,Note_on_c,9,48,127,
2,184,Note_on_c,9,51,127,
2,184,Note_on_c,9,53,127,
2,184,Note_on_c,9,80,127,
2,184,Note_on_c,9,81,127,
2,184,Note_on_c,9,82,127,
2,185,Note_off_c,9,36,0,
2,186,Note_on_c,9,36,127,
2,186,Note_on_c,9,37,127,
2,186,Note_on_c,9,38,127,
2,186,Note_on_c,9,39,127,
2,186,Note_on_c,9,41,127,
2,186,Note_on_c,9,42,127,
2,186,Note_on_c,9,43,127,
2,186,Note_on_c,9,45,127,
2,186,Note_on_c,9,48,127,
2,186,Note_on_c,9,51,127,
2,186,Note_on_c,9,53,127,
2,186,Note_on_c,9,80,127,
2,186,Note_on_c,9,81,127,
2,186,Note_on_c,9,82,127,
2,187,Note_off_c,9,36,0,
2,188,Note_on_c,9,36,127,
2,188,Note_on_c,9,37,127,
2,188,Note_on_c,9,38,127,
2,188,Note_on_c,9,39,127,
2,188,Note_on_c,9,41,127,
2,188,Note_on_c,9,42,127,
2,188,Note_on_c,9,43,127,
2,188,Note_on_c,9,45,127,
2,188,Note_on_c,9,48,127,
2,188,Note_on_c,9,51,127,
2,188,Note_on_c,9,53,127,
2,188,Note_on_c,9,80,127,
2,188,Note_on_c,9,81,127,
2,188,Note_on_c,9,82,127,
2,189,Note_off_c,9,36,0,
2,190,Note_on_c,9,36,127,
2,190,Note_on_c,9,37,127,
2,190,Note_on_c,9,38,127,
2,190,Note_on_c,9,39,127,
2,190,Note_on_c,9,41,127,
2,190,Note_on_c,9,42,127,
2,190,Note_on_c,9,43,127,
2,190,Note_on_c,9,45,127,
2,190,Note_on_c,9,48,127,
2,190,Note_on_c,9,51,127,
2,190,Note_on_c,9,53,127,
2,190,Note_on_c,9,80,127,
2,190,Note_on_c,9,81,127,
2,190,Note_on_c,9,82,127,
2,191,Note_off_c,9,36,0,
2,192,Note_on_c,9,36,127,
2,192,Note_on_c,9,37,127,
2,192,Note_on_c,9,38,127,
2,192,Note_on_c,9,39,127,
2,192,Note_on_c,9,41,127,
2,192,Note_on_c,9,42,127,
2,192,Note_on_c,9,43,127,
2,192,Note_on_c,9,45,127,
2,192,Note_on_c,9,48,127,
2,192,Note_on_c,9,51,127,
2,192,Note_on_c,9,53,127,
2,192,Note_on_c,9,80,127,
2,192,Note_on_c,9,81,127,
2,192,Note_on_c,9,82,127,
2,193,Note_off_c,9,36,0,
2,194,Note_on_c,9,36,127,
2,194,Note_on_c,9,37,127,
2,194,Note_on_c,9,38,127,
2,194,Note_on_c,9,39,127,
2,194,Note_on_c,9,41,127,
2,194,Note_on_c,9,42,127,
2,194,Note_on_c,9,43,127,
2,194,Note_on_c,9,45,127,
2,194,Note_on_c,9,48,127,
2,194,Note_on_c,9,51,127,
2,194,Note_on_c,9,53,127,
2,194,Note_on_c,9,80,127,
2,194,Note_on_c,9,81,127,
2,194,Note_on_c,9,82,127,
2,195,Note_off_c,9,36,0,
2,196,Note_on_c,9,36,127,
2,196,Note_on_c,9,37,127,
2,196,Note_on_c,9,38,127,
2,196,Note_on_c,9,39,127,
2,196,Note_on_c,9,41,127,
2,196,Note_on_c,9,42,127,
2,196,Note_on_c,9,43,127,
2,196,Note_on_c,9,45,127,
2,196,Note_on_c,9,48,127,
2,196,Note_on_c,9,51,127,
2,196,Note_on_c,9,53,127,
2,196,Note_on_c,9,80,127,
2,196,Note_on_c,9,81,127,
2,196,Note_on_c,9,82,127,
2,197,Note_off_c,9,36,0,
2,198,Note_on_c,9,36,127,
2,198,Note_on_c,9,37,127,
2,198,Note_on_c,9,38,127,
2,198,Note_on_c,9,39,127,
2,198,Note_on_c,9,41,127,
2,198,Note_on_c,9,42,127,
2,198,Note_on_c,9,43,127,
2,198,Note_on_c,9,45,127,
2,198,Note_on_c,9,48,127,
2,198,Note_on_c,9,51,127,
2,198,Note_on_c,9,53,127,
2,198,Note_on_c,9,80,127,
2,198,Note_on_c,9,81,127,
2,198,Note_on_c,9,82,127,
2,199,Note_off_c,9,36,0,
2,200,Note_on_c,9,36,127,
2,200,Note_on_c,9,37,127,
2,200,Note_on_c,9,38,127,
2,200,Note_on_c,9,39,127,
2,200,Note_on_c,9,41,127,
2,200,Note_on_c,9,42,127,
2,200,Note_on_c,9,43,127,
2,200,Note_on_c,9,45,127,
2,200,Note_on_c,9,48,127,
2,200,Note_on_c,9,51,127,
2,200,Note_on_c,9,53,127,
2,200,Note_on_c,9,80,127,
2,200,Note_on_c,9,81,127,
2,200,Note_on_c,9,82,127,
2,201,Note_off_c,9,36,0,
2,202,Note_on_c,9,36,127,
2,202,Note_on_c,9,37,127,
2,202,Note_on_c,9,38,127,
2,202,Note_on_c,9,39,127,
2,202,Note_on_c,9,41,127,
2,202,Note_on_c,9,42,127,
2,202,Note_on_c,9,43,127,
2,202,Note_on_c,9,45,127,
2,202,Note_on_c,9,48,127,
2,202,Note_on_c,9,51,127,
2,202,Note_on_c,9,53,127,
2,202,Note_on_c,9,80,127,
2,202,Note_on_c,9,81,127,
2,202,Note_on_c,9,82,127,
2,203,Note_off_c,9,36,0,
2,204,Note_on_c,9,36,127,
2,204,Note_on_c,9,37,127,
2,204,Note_on_c,9,38,127,
2,204,Note_on_c,9,39,127,
2,204,Note_on_c,9,41,127,
2,204,Note_on_c,9,42,127,
2,204,Note_on_c,9,43,127,
2,204,Note_on_c,9,45,127,
2,204,Note_on_c,9,48,127,
2,204,Note_on_c,9,51,127,
2,204,Note_on_c,9,53,127,
2,204,Note_on_c,9,80,127,
2,204,Note_on_c,9,81,127,
2,204,Note_on_c,9,82,127,
2,205,Note_off_c,9,36,0,
2,206,Note_on_c,9,36,127,
2,206,Note_on_c,9,37,127,
2,206,Note_on_c,9,38,127,
2,206,Note_on_c,9,39,127,
2,206,Note_on_c,9,41,127,
2,206,Note_on_c,9,42,127,
2,206,Note_on_c,9,43,127,
2,206,Note_on_c,9,45,127,
2,206,Note_on_c,9,48,127,
2,206,Note_on_c,9,51,127,
2,206,Note_on_c,9,53,127,
2,206,Note_on_c,9,80,127,
2,206,Note_on_c,9,81,127,
2,206,Note_on_c,9,82,127,
2,207,Note_off_c,9,36,0,
2,208,Note_on_c,9,36,127,
2,208,Note_on_c,9,37,127,
2,208,Note_on_c,9,38,127,
2,208,Note_on_c,9,39,127,
2,208,Note_on_c,9,41,127,
2,208,Note_on_c,9,42,127,
2,208,Note_on_c,9,43,127,
2,208,Note_on_c,9,45,127,
2,208,Note_on_c,9,48,127,
2,208,Note_on_c,9,51,127,
2,208,Note_on_c,9,53,127,
2,208,Note_on_c,9,80,127,
2,208,Note_on_c,9,81,127,
2,208,Note_on_c,9,82,127,
2,209,Note_off_c,9,36,0,
2,210,Note_on_c,9,36,127,
2,210,Note_on_c,9,37,127,
2,210,Note_on_c,9,38,127,
2,210,Note_on_c,9,39,127,
2,210,Note_on_c,9,41,127,
2,210,Note_on_c,9,42,127,
2,210,Note_on_c,9,43,127,
2,210,Note_on_c,9,45,127,
2,210,Note_on_c,9,48,127,
2,210,Note_on_c,9,51,127,
2,210,Note_on_c,9,53,127,
2,210,Note_on_c,9,80,127,
2,210,Note_on_c,9,81,127,
2,210,Note_on_c,9,82,127,
2,211,Note_off_c,9,36,0,
2,212,Note_on_c,9,36,127,
2,212,Note_on_c,9,37,127,
2,212,Note_on_c,9,38,127,
2,212,Note_on_c,9,39,127,
2,212,Note_on_c,9,41,127,
2,212,Note_on_c,9,42,127,
2,212,Note_on_c,9,43,127,
2,212,Note_on_c,9,45,127,
2,212,Note_on_c,9,48,127,
2,212,Note_on_c,9,51,127,
2,212,Note_on_c,9,53,127,
2,212,Note_on_c,9,80,127,
2,212,Note_on_c,9,81,127,
2,212,Note_on_c,9,82,127,
2,213,Note_off_c,9,36,0,
2,214,Note_on_c,9,36,127,
2,214,Note_on_c,9,37,127,
2,214,Note_on_c,9,38,127,
2,214,Note_on_c,9,39,127,
2,214,Note_on_c,9,41,127,
2,214,Note_on_c,9,42,127,
2,214,Note_on_c,9,43,127,
2,214,Note_on_c,9,45,127,
2,214,Note_on_c,9,48,127,
2,214,Note_on_c,9,51,127,
2,214,Note_on_c,9,53,127,
2,214,Note_on_c,9,80,127,
2,214,Note_on_c,9,81,127,
2,214,Note_on_c,9,82,127,
2,215,Note_off_c,9,36,0,
2,216,Note_on_c,9,36,127,
2,216,Note_on_c,9,37,127,
2,216,Note_on_c,9,38,127,
2,216,Note_on_c,9,39,127,
2,216,Note_on_c,9,41,127,
2,216,Note_on_c,9,42,127,
2,216,Note_on_c,9,43,127,
2,216,Note_on_c,9,45,127,
2,216,Note_on_c,9,48,127,
2,216,Note_on_c,9,51,127,
2,216,Note_on_c,9,53,127,
2,216,Note_on_c,9,80,127,
2,216,Note_on_c,9,81,127,
2,216,Note_on_c,9,82,127,
2,217,Note_off_c,9,36,0,
2,218,Note_on_c,9,36,127,
2,218,Note_on_c,9,37,127,
2,218,Note_on_c,9,38,127,
2,218,Note_on_c,9,39,127,
2,218,Note_on_c,9,41,127,
2,218,Note_on_c,9,42,127,
2,218,Note_on_c,9,43,127,
2,218,Note_on_c,9,45,127,
2,218,Note_on_c,9,48,127,
2,218,Note_on_c,9,51,127,
2,218,Note_on_c,9,53,127,
2,218,Note_on_c,9,80,127,
2,218,Note_on_c,9,81,127,
2,218,Note_on_c,9,82,127,
2,219,Note_off_c,9,36,0,
2,220,Note_on_c,9,36,127,
2,220,Note_on_c,9,37,127,
2,220,Note_on_c,9,38,127,
2,220,Note_on_c,9,39,127,
2,220,Note_on_c,9,41,127,
2,220,Note_on_c,9,42,127,
2,220,Note_on_c,9,43,127,
2,220,Note_on_c,9,45,127,
2,220,Note_on_c,9,48,127,
2,220,Note_on_c,9,51,127,
2,220,Note_on_c,9,53,127,
2,220,Note_on_c,9,80,127,
2,220,Note_on_c,9,81,127,
2,220,Note_on_c,9,82,127,
2,221,Note_off_c,9,36,0,
2,222,Note_on_c,9,36,127,
2,222,Note_on_c,9,37,127,
2,222,Note_on_c,9,38,127,
2,222,Note_on_c,9,39,127,
2,222,Note_on_c,9,41,127,
2,222,Note_on_c,9,42,127,
2,222,Note_on_c,9,43,127,
2,222,Note_on_c,9,45,127,
2,222,Note_on_c,9,48,127,
2,222,Note_on_c,9,51,127,
2,222,Note_on_c,9,53,127,
2,222,Note_on_c,9,80,127,
2,222,Note_on_c,9,81,127,
2,222,Note_on_c,9,82,127,
2,223,Note_off_c,9,36,0,
2,224,Note_on_c,9,36,127,
2,224,Note_on_c,9,37,127,
2,224,Note_on_c,9,38,127,
2,224,Note_on_c,9,39,127,
2,224,Note_on_c,9,41,127,
2,224,Note_on_c,9,42,127,
2,224,Note_on_c,9,43,127,
2,224,Note_on_c,9,45,127,
2,224,Note_on_c,9,48,127,
2,224,Note_on_c,9,51,127,
2,224,Note_on_c,9,53,127,
2,224,Note_on_c,9,80,127,
2,224,Note_on_c,9,81,127,
2,224,Note_on_c,9,82,127,
2,225,Note_off_c,9,36,0,
2,226,Note_on_c,9,36,127,
2,226,Note_on_c,9,37,127,
2,226,Note_on_c,9,38,127,
2,226,Note_on_c,9,39,127,
2,226,Note_on_c,9,41,127,
2,226,Note_on_c,9,42,127,
2,226,Note_on_c,9,43,127,
2,226,Note_on_c,9,45,127,
2,226,Note_on_c,9,48,127,
2,226,Note_on_c,9,51,127,
2,226,Note_on_c,9,53,127,
2,226,Note_on_c,9,80,127,
2,226,Note_on_c,9,81,127,
2,226,Note_on_c,9,82,127,
2,227,Note_off_c,9,36,0,
2,228,Note_on_c,9,36,127,
2,228,Note_on_c,9,37,127,
2,228,Note_on_c,9,38,127,
2,228,Note_on_c,9,39,127,
2,228,Note_on_c,9,41,127,
2,228,Note_on_c,9,42,127,
2,228,Note_on_c,9,43,127,
2,228,Note_on_c,9,45,127,
2,228,Note_on_c,9,48,127,
2,228,Note_on_c,9,51,127,
2,228,Note_on_c,9,53,127,
2,228,Note_on_c,9,80,127,
2,228,Note_on_c,9,81,127,
2,228,Note_on_c,9,82,127,
2,229,Note_off_c,9,36,0,
2,230,Note_on_c,9,36,127,
2,230,Note_on_c,9,37,127,
2,230,Note_on_c,9,38,127,
2,230,Note_on_c,9,39,127,
2,230,Note_on_c,9,41,127,
2,230,Note_on_c,9,42,127,
2,230,Note_on_c,9,43,127,
2,230,Note_on_c,9,45,127,
2,230,Note_on_c,9,48,127,
2,230,Note_on_c,9,51,127,
2,230,Note_on_c,9,53,127,
2,230,Note_on_c,9,80,127,
2,230,Note_on_c,9,81,127,
2,230,Note_on_c,9,82,127,
2,231,Note_off_c,9,36,0,
2,232,Note_on_c,9,36,127,
2,232,Note_on_c,9,37,127,
2,232,Note_on_c,9,38,127,
2,232,Note_on_c,9,39,127,
2,232,Note_on_c,9,41,127,
2,232,Note_on_c,9,42,127,
2,232,Note_on_c,9,43,127,
2,232,Note_on_c,9,45,127,
2,232,Note_on_c,9,48,127,
2,232,Note_on_c,9,51,127,
2,232,Note_on_c,9,53,127,
2,232,Note_on_c,9,80,127,
2,232,Note_on_c,9,81,127,
2,232,Note_on_c,9,82,127,
2,233,Note_off_c,9,36,0,
2,234,Note_on_c,9,36,127,
2,234,Note_on_c,9,37,127,
2,234,Note_on_c,9,38,127,
2,234,Note_on_c,9,39,127,
2,234,Note_on_c,9,41,127,
2,234,Note_on_c,9,42,127,
2,234,Note_on_c,9,43,127,
2,234,Note_on_c,9,45,127,
2,234,Note_on_c,9,48,127,
2,234,Note_on_c,9,51,127,
2,234,Note_on_c,9,53,127,
2,234,Note_on_c,9,80,127,
2,234,Note_on_c,9,81,127,
2,234,Note_on_c,9,82,127,
2,235,Note_off_c,9,36,0,
2,236,Note_on_c,9,36,127,
2,236,Note_on_c,9,37,127,
2,236,Note_on_c,9,38,127,
2,236,Note_on_c,9,39,127,
2,236,Note_on_c,9,41,127,
2,236,Note_on_c,9,42,127,
2,236,Note_on_c,9,43,127,
2,236,Note_on_c,9,45,127,
2,236,Note_on_c,9,48,127,
2,236,Note_on_c,9,51,127,
2,236,Note_on_c,9,53,127,
2,236,Note_on_c,9,80,127,
2,236,Note_on_c,9,81,127,
2,236,Note_on_c,9,82,127,
2,237,Note_off_c,9,36,0,
2,238,Note_on_c,9,36,127,
2,238,Note_on_c,9,37,127,
2,238,Note_on_c,9,38,127,
2,238,Note_on_c,9,39,127,
2,238,Note_on_c,9,41,127,
2,238,Note_on_c,9,42,127,
2,238,Note_on_c,9,43,127,
2,238,Note_on_c,9,45,127,
2,238,Note_on_c,9,48,127,
2,238,Note_on_c,9,51,127,
2,238,Note_on_c,9,53,127,
2,238,Note_on_c,9,80,127,
2,238,Note_on_c,9,81,127,
2,238,Note_on_c,9,82,127,
2,239,Note_off_c,9,36,0,
2,240,Note_on_c,9,36,127,
2,240,Note_on_c,9,37,127,
2,240,Note_on_c,9,38,127,
2,240,Note_on_c,9,39,127,
2,240,Note_on_c,9,41,127,
2,240,Note_on_c,9,42,127,
2,240,Note_on_c,9,43,127,
2,240,Note_on_c,9,45,127,
2,240,Note_on_c,9,48,127,
2,240,Note_on_c,9,51,127,
2,240,Note_on_c,9,53,127,
2,240,Note_on_c,9,80,127,
2,240,Note_on_c,9,81,127,
2,240,Note_on_c,9,82,127,
2,241,Note_off_c,9,36,0,
2,242,Note_on_c,9,36,127,
2,242,Note_on_c,9,37,127,
2,242,Note_on_c,9,38,127,
2,242,Note_on_c,9,39,127,
2,242,Note_on_c,9,41,127,
2,242,Note_on_c,9,42,127,
2,242,Note_on_c,9,43,127,
2,242,Note_on_c,9,45,127,
2,242,Note_on_c,9,48,127,
2,242,Note_on_c,9,51,127,
2,242,Note_on_c,9,53,127,
2,242,Note_on_c,9,80,127,
2,242,Note_on_c,9,81,127,
2,242,Note_on_c,9,82,127,
2,243,Note_off_c,9,36,0,
2,244,Note_on_c,9,36,127,
2,244,Note_on_c,9,37,127,
2,244,Note_on_c,9,38,127,
2,244,Note_on_c,9,39,127,
2,244,Note_on_c,9,41,127,
2,244,Note_on_c,9,42,127,
2,244,Note_on_c,9,43,127,
2,244,Note_on_c,9,45,127,
2,244,Note_on_c,9,48,127,
2,244,Note_on_c,9,51,127,
2,244,Note_on_c,9,53,127,
2,244,Note_on_c,9,80,127,
2,244,Note_on_c,9,81,127,
2,244,Note_on_c,9,82,127,
2,245,Note_off_c,9,36,0,
2,246,Note_on_c,9,36,127,
2,246,Note_on_c,9,37,127,
2,246,Note_on_c,9,38,127,
2,246,Note_on_c,9,39,127,
2,246,Note_on_c,9,41,127,
2,246,Note_on_c,9,42,127,
2,246,Note_on_c,9,43,127,
2,246,Note_on_c,9,45,127,
2,246,Note_on_c,9,48,127,
2,246,Note_on_c,9,51,127,
2,246,Note_on_c,9,53,127,
2,246,Note_on_c,9,80,127,
2,246,Note_on_c,9,81,127,
2,246,Note_on_c,9,82,127,
2,247,Note_off_c,9,36,0,
2,248,Note_on_c,9,36,127,
2,248,Note_on_c,9,37,127,
2,248,Note_on_c,9,38,127,
2,248,Note_on_c,9,39,127,
2,248,Note_on_c,9,41,127,
2,248,Note_on_c,9,42,127,
2,248,Note_on_c,9,43,127,
2,248,Note_on_c,9,45,127,
2,248,Note_on_c,9,48,127,
2,248,Note_on_c,9,51,127,
2,248,Note_on_c,9,53,127,
2,248,Note_on_c,9,80,127,
2,248,Note_on_c,9,81,127,
2,248,Note_on_c,9,82,127,
2,249,Note_off_c,9,36,0,
2,250,Note_on_c,9,36,127,
2,250,Note_on_c,9,37,127,
2,250,Note_on_c,9,38,127,
2,250,Note_on_c,9,39,127,
2,250,Note_on_c,9,41,127,
2,250,Note_on_c,9,42,127,
2,250,Note_on_c,9,43,127,
2,250,Note_on_c,9,45,127,
2,250,Note_on_c,9,48,127,
2,250,Note_on_c,9,51,127,
2,250,Note_on_c,9,53,127,
2,250,Note_on_c,9,80,127,
2,250,Note_on_c,9,81,127,
2,250,Note_on_c,9,82,127,
2,251,Note_off_c,9,36,0,
2,252,Note_on_c,9,36,127,
2,252,Note_on_c,9,37,127,
2,252,Note_on_c,9,38,127,
2,252,Note_on_c,9,39,127,
2,252,Note_on_c,9,41,127,
2,252,Note_on_c,9,42,127,
2,252,Note_on_c,9,43,127,
2,252,Note_on_c,9,45,127,
2,252,Note_on_c,9,48,127,
2,252,Note_on_c,9,51,127,
2,252,Note_on_c,9,53,127,
2,252,Note_on_c,9,80,127,
2,252,Note_on_c,9,81,127,
2,252,Note_on_c,9,82,127,
2,253,Note_off_c,9,36,0,
2,254,Note_on_c,9,36,127,
2,254,Note_on_c,9,37,127,
2,254,Note_on_c,9,38,127,
2,254,Note_on_c,9,39,127,
2,254,Note_on_c,9,41,127,
2,254,Note_on_c,9,42,127,
2,254,Note_on_c,9,43,127,
2,254,Note_on_c,9,45,127,
2,254,Note_on_c,9,48,127,
2,254,Note_on_c,9,51,127,
2,254,Note_on_c,9,53,127,
2,254,Note_on_c,9,80,127,
2,254,Note_on_c,9,81,127,
2,254,Note_on_c,9,82,127,
2,255,Note_off_c,9,36,0,
2,256,Note_on_c,9,36,127,
2,256,Note_on_c,9,37,127,
2,256,Note_on_c,9,38,127,
2,256,Note_on_c,9,39,127,
2,256,Note_on_c,9,41,127,
2,256,Note_on_c,9,42,127,
2,256,Note_on_c,9,43,127,
2,256,Note_on_c,9,45,127,
2,256,Note_on_c,9,48,127,
2,256,Note_on_c,9,51,127,
2,256,Note_on_c,9,53,127,
2,256,Note_on_c,9,80,127,
2,256,Note_on_c,9,81,127,
2,256,Note_on_c,9,82,127,
2,257,Note_off_c,9,36,0,
2,258,Note_on_c,9,36,127,
2,258,Note_on_c,9,37,127,
2,258,Note_on_c,9,38,127,
2,258,Note_on_c,9,39,127,
2,258,Note_on_c,9,41,127,
2,258,Note_on_c,9,42,127,
2,258,Note_on_c,9,43,127,
2,258,Note_on_c,9,45,127,
2,258,Note_on_c,9,48,127,
2,258,Note_on_c,9,51,127,
2,258,Note_on_c,9,53,127,
2,258,Note_on_c,9,80,127,
2,258,Note_on_c,9,81,127,
2,258,Note_on_c,9,82,127,
2,259,Note_off_c,9,36,0,
2,260,Note_on_c,9,36,127,
2,260,Note_on_c,9,37,127,
2,260,Note_on_c,9,38,127,
2,260,Note_on_c,9,39,127,
2,260,Note_on_c,9,41,127,
2,260,Note_on_c,9,42,127,
2,260,Note_on_c,9,43,127,
2,260,Note_on_c,9,45,127,
2,260,Note_on_c,9,48,127,
2,260,Note_on_c,9,51,127,
2,260,Note_on_c,9,53,127,
2,260,Note_on_c,9,80,127,
2,260,Note_on_c,9,81,127,
2,260,Note_on_c,9,82,127,
2,261,Note_off_c,9,36,0,
2,262,Note_on_c,9,36,127,
2,262,Note_on_c,9,37,127,
2,262,Note_on_c,9,38,127,
2,262,Note_on_c,9,39,127,
2,262,Note_on_c,9,41,127,
2,262,Note_on_c,9,42,127,
2,262,Note_on_c,9,43,127,
2,262,Note_on_c,9,45,127,
2,262,Note_on_c,9,48,127,
2,262,Note_on_c,9,51,127,
2,262,Note_on_c,9,53,127,
2,262,Note_on_c,9,80,127,
2,262,Note_on_c,9,81,127,
2,262,Note_on_c,9,82,127,
2,263,Note_off_c,9,36,0,
2,264,Note_on_c,9,36,127,
2,264,Note_on_c,9,37,127,
2,264,Note_on_c,9,38,127,
2,264,Note_on_c,9,39,127,
2,264,Note_on_c,9,41,127,
2,264,Note_on_c,9,42,127,
2,264,Note_on_c,9,43,127,
2,264,Note_on_c,9,45,127,
2,264,Note_on_c,9,48,127,
2,264,Note_on_c,9,51,127,
2,264,Note_on_c,9,53,127,
2,264,Note_on_c,9,80,127,
2,264,Note_on_c,9,81,127,
2,264,Note_on_c,9,82,127,
2,265,Note_off_c,9,36,0,
2,266,Note_on_c,9,36,127,
2,266,Note_on_c,9,37,127,
2,266,Note_on_c,9,38,127,
2,266,Note_on_c,9,39,127,
2,266,Note_on_c,9,41,127,
2,266,Note_on_c,9,42,127,
2,266,Note_on_c,9,43,127,
2,266,Note_on_c,9,45,127,
2,266,Note_on_c,9,48,127,
2,266,Note_on_c,9,51,127,
2,266,Note_on_c,9,53,127,
2,266,Note_on_c,9,80,127,
2,266,Note_on_c,9,81,127,
2,266,Note_on_c,9,82,127,
2,267,Note_off_c,9,36,0,
2,268,Note_on_c,9,36,127,
2,268,Note_on_c,9,37,127,
2,268,Note_on_c,9,38,127,
2,268,Note_on_c,9,39,127,
2,268,Note_on_c,9,41,127,
2,268,Note_on_c,9,42,127,
2,268,Note_on_c,9,43,127,
2,268,Note_on_c,9,45,127,
2,268,Note_on_c,9,48,127,
2,268,Note_on_c,9,51,127,
2,268,Note_on_c,9,53,127,
2,268,Note_on_c,9,80,127,
2,268,Note_on_c,9,81,127,
2,268,Note_on_c,9,82,127,
2,269,Note_off_c,9,36,0,
2,270,Note_on_c,9,36,127,
2,270,Note_on_c,9,37,127,
2,270,Note_on_c,9,38,127,
2,270,Note_on_c,9,39,127,
2,270,Note_on_c,9,41,127,
2,270,Note_on_c,9,42,127,
2,270,Note_on_c,9,43,127,
2,270,Note_on_c,9,45,127,
2,270,Note_on_c,9,48,127,
2,270,Note_on_c,9,51,127,
2,270,Note_on_c,9,53,127,
2,270,Note_on_c,9,80,127,
2,270,Note_on_c,9,81,127,
2,270,Note_on_c,9,82,127,
2,271,Note_off_c,9,36,0,
2,272,Note_on_c,9,36,127,
2,272,Note_on_c,9,37,127,
2,272,Note_on_c,9,38,127,
2,272,Note_on_c,9,39,127,
2,272,Note_on_c,9,41,127,
2,272,Note_on_c,9,42,127,
2,272,Note_on_c,9,43,127,
2,272,Note_on_c,9,45,127,
2,272,Note_on_c,9,48,127,
2,272,Note_on_c,9,51,127,
2,272,Note_on_c,9,53,127,
2,272,Note_on_c,9,80,127,
2,272,Note_on_c,9,81,127,
2,272,Note_on_c,9,82,127,
2,273,Note_off_c,9,36,0,
2,274,Note_on_c,9,36,127,
2,274,Note_on_c,9,37,127,
2,274,Note_on_c,9,38,127,
2,274,Note_on_c,9,39,127,
2,274,Note_on_c,9,41,127,
2,274,Note_on_c,9,42,127,
2,274,Note_on_c,9,43,127,
2,274,Note_on_c,9,45,127,
2,274,Note_on_c,9,48,127,
2,274,Note_on_c,9,51,127,
2,274,Note_on_c,9,53,127,
2,274,Note_on_c,9,80,127,
2,274,Note_on_c,9,81,127,
2,274,Note_on_c,9,82,127,
2,275,Note_off_c,9,36,0,
2,276,Note_on_c,9,36,127,
2,276,Note_on_c,9,37,127,
2,276,Note_on_c,9,38,127,
2,276,Note_on_c,9,39,127,
2,276,Note_on_c,9,41,127,
2,276,Note_on_c,9,42,127,
2,276,Note_on_c,9,43,127,
2,276,Note_on_c,9,45,127,
2,276,Note_on_c,9,48,127,
2,276,Note_on_c,9,51,127,
2,276,Note_on_c,9,53,127,
2,276,Note_on_c,9,80,127,
2,276,Note_on_c,9,81,127,
2,276,Note_on_c,9,82,127,
2,277,Note_off_c,9,36,0,
2,278,Note_on_c,9,36,127,
2,278,Note_on_c,9,37,127,
2,278,Note_on_c,9,38,127,
2,278,Note_on_c,9,39,127,
2,278,Note_on_c,9,41,127,
2,278,Note_on_c,9,42,127,
2,278,Note_on_c,9,43,127,
2,278,Note_on_c,9,45,127,
2,278,Note_on_c,9,48,127,
2,278,Note_on_c,9,51,127,
2,278,Note_on_c,9,53,127,
2,278,Note_on_c,9,80,127,
2,278,Note_on_c,9,81,127,
2,278,Note_on_c,9,82,127,
2,279,Note_off_c,9,36,0,
2,280,Note_on_c,9,36,127,
2,280,Note_on_c,9,37,127,
2,280,Note_on_c,9,38,127,
2,280,Note_on_c,9,39,127,
2,280,Note_on_c,9,41,127,
2,280,Note_on_c,9,42,127,
2,280,Note_on_c,9,43,127,
2,280,Note_on_c,9,45,127,
2,280,Note_on_c,9,48,127,
2,280,Note_on_c,9,51,127,
2,280,Note_on_c,9,53,127,
2,280,Note_on_c,9,80,127,
2,280,Note_on_c,9,81,127,
2,280,Note_on_c,9,82,127,
2,281,Note_off_c,9,36,0,
2,282,Note_on_c,9,36,127,
2,282,Note_on_c,9,37,127,
2,282,Note_on_c,9,38,127,
2,282,Note_on_c,9,39,127,
2,282,Note_on_c,9,41,127,
2,282,Note_on_c,9,42,127,
2,282,Note_on_c,9,43,127,
2,282,Note_on_c,9,45,127,
2,282,Note_on_c,9,48,127,
2,282,Note_on_c,9,51,127,
2,282,Note_on_c,9,53,127,
2,282,Note_on_c,9,80,127,
2,282,Note_on_c,9,81,127,
2,282,Note_on_c,9,82,127,
2,283,Note_off_c,9,36,0,
2,284,Note_on_c,9,36,127,
2,284,Note_on_c,9,37,127,
2,284,Note_on_c,9,38,127,
2,284,Note_on_c,9,39,127,
2,284,Note_on_c,9,41,127,
2,284,Note_on_c,9,42,127,
2,284,Note_on_c,9,43,127,
2,284,Note_on_c,9,45,127,
2,284,Note_on_c,9,48,127,
2,284,Note_on_c,9,51,127,
2,284,Note_on_c,9,53,127,
2,284,Note_on_c,9,80,127,
2,284,Note_on_c,9,81,127,
2,284,Note_on_c,9,82,127,
2,285,Note_off_c,9,36,0,
2,286,Note_on_c,9,36,127,
2,286,Note_on_c,9,37,127,
2,286,Note_on_c,9,38,127,
2,286,Note_on_c,9,39,127,
2,286,Note_on_c,9,41,127,
2,286,Note_on_c,9,42,127,
2,286,Note_on_c,9,43,127,
2,286,Note_on_c,9,45,127,
2,286,Note_on_c,9,48,127,
2,286,Note_on_c,9,51,127,
2,286,Note_on_c,9,53,127,
2,286,Note_on_c,9,80,127,
2,286,Note_on_c,9,81,127,
2,286,Note_on_c,9,82,127,
2,287,Note_off_c,9,36,0,
2,288,Note_on_c,9,36,127,
2,288,Note_on_c,9,37,127,
2,288,Note_on_c,9,38,127,
2,288,Note_on_c,9,39,127,
2,288,Note_on_c,9,41,127,
2,288,Note_on_c,9,42,127,
2,288,Note_on_c,9,43,127,
2,288,Note_on_c,9,45,127,
2,288,Note_on_c,9,48,127,
2,288,Note_on_c,9,51,127,
2,288,Note_on_c,9,53,127,
2,288,Note_on_c,9,80,127,
2,288,Note_on_c,9,81,127,
2,288,Note_on_c,9,82,127,
2,289,Note_off_c,9,36,0,
2,290,Note_on_c,9,36,127,
2,290,Note_on_c,9,37,127,
2,290,Note_on_c,9,38,127,
2,290,Note_on_c,9,39,127,
2,290,Note_on_c,9,41,127,
2,290,Note_on_c,9,42,127,
2,290,Note_on_c,9,43,127,
2,290,Note_on_c,9,45,127,
2,290,Note_on_c,9,48,127,
2,290,Note_on_c,9,51,127,
2,290,Note_on_c,9,53,127,
2,290,Note_on_c,9,80,127,
2,290,Note_on_c,9,81,127,
2,290,Note_on_c,9,82,127,
2,291,Note_off_c,9,36,0,
2,292,Note_on_c,9,36,127,
2,292,Note_on_c,9,37,127,
2,292,Note_on_c,9,38,127,
2,292,Note_on_c,9,39,127,
2,292,Note_on_c,9,41,127,
2,292,Note_on_c,9,42,127,
2,292,Note_on_c,9,43,127,
2,292,Note_on_c,9,45,127,
2,292,Note_on_c,9,48,127,
2,292,Note_on_c,9,51,127,
2,292,Note_on_c,9,53,127,
2,292,Note_on_c,9,80,127,
2,292,Note_on_c,9,81,127,
2,292,Note_on_c,9,82,127,
2,293,Note_off_c,9,36,0,
2,294,Note_on_c,9,36,127,
2,294,Note_on_c,9,37,127,
2,294,Note_on_c,9,38,127,
2,294,Note_on_c,9,39,127,
2,294,Note_on_c,9,41,127,
2,294,Note_on_c,9,42,127,
2,294,Note_on_c,9,43,127,
2,294,Note_on_c,9,45,127,
2,294,Note_on_c,9,48,127,
2,294,Note_on_c,9,51,127,
2,294,Note_on_c,9,53,127,
2,294,Note_on_c,9,80,127,
2,294,Note_on_c,9,81,127,
2,294,Note_on_c,9,82,127,
2,295,Note_off_c,9,36,0,
2,296,Note_on_c,9,36,127,
2,296,Note_on_c,9,37,127,
2,296,Note_on_c,9,38,127,
2,296,Note_on_c,9,39,127,
2,296,Note_on_c,9,41,127,
2,296,Note_on_c,9,42,127,
2,296,Note_on_c,9,43,127,
2,296,Note_on_c,9,45,127,
2,296,Note_on_c,9,48,127,
2,296,Note_on_c,9,51,127,
2,296,Note_on_c,9,53,127,
2,296,Note_on_c,9,80,127,
2,296,Note_on_c,9,81,127,
2,296,Note_on_c,9,82,127,
2,297,Note_off_c,9,36,0,
2,298,Note_on_c,9,36,127,
2,298,Note_on_c,9,37,127,
2,298,Note_on_c,9,38,127,
2,298,Note_on_c,9,39,127,
2,298,Note_on_c,9,41,127,
2,298,Note_on_c,9,42,127,
2,298,Note_on_c,9,43,127,
2,298,Note_on_c,9,45,127,
2,298,Note_on_c,9,48,127,
2,298,Note_on_c,9,51,127,
2,298,Note_on_c,9,53,127,
2,298,Note_on_c,9,80,127,
2,298,Note_on_c,9,81,127,
2,298,Note_on_c,9,82,127,
2,299,Note_off_c,9,36,0,
2,300,Note_on_c,9,36,127,
2,300,Note_on_c,9,37,127,
2,300,Note_on_c,9,38,127,
2,300,Note_on_c,9,39,127,
2,300,Note_on_c,9,41,127,
2,300,Note_on_c,9,42,127,
2,300,Note_on_c,9,43,127,
2,300,Note_on_c,9,45,127,
2,300,Note_on_c,9,48,127,
2,300,Note_on_c,9,51,127,
2,300,Note_on_c,9,53,127,
2,300,Note_on_c,9,80,127,
2,300,Note_on_c,9,81,127,
2,300,Note_on_c,9,82,127,
2,301,Note_off_c,9,36,0,
2,302,Note_on_c,9,36,127,
2,302,Note_on_c,9,37,127,
2,302,Note_on_c,9,38,127,
2,302,Note_on_c,9,39,127,
2,302,Note_on_c,9,41,127,
2,302,Note_on_c,9,42,127,
2,302,Note_on_c,9,43,127,
2,302,Note_on_c,9,45,127,
2,302,Note_on_c,9,48,127,
2,302,Note_on_c,9,51,127,
2,302,Note_on_c,9,53,127,
2,302,Note_on_c,9,80,127,
2,302,Note_on_c,9,81,127,
2,302,Note_on_c,9,82,127,
2,303,Note_off_c,9,36,0,
2,304,Note_on_c,9,36,127,
2,304,Note_on_c,9,37,127,
2,304,Note_on_c,9,38,127,
2,304,Note_on_c,9,39,127,
2,304,Note_on_c,9,41,127,
2,304,Note_on_c,9,42,127,
2,304,Note_on_c,9,43,127,
2,304,Note_on_c,9,45,127,
2,304,Note_on_c,9,48,127,
2,304,Note_on_c,9,51,127,
2,304,Note_on_c,9,53,127,
2,304,Note_on_c,9,80,127,
2,304,Note_on_c,9,81,127,
2,304,Note_on_c,9,82,127,
2,305,Note_off_c,9,36,0,
2,306,Note_on_c,9,36,127,
2,306,Note_on_c,9,37,127,
2,306,Note_on_c,9,38,127,
2,306,Note_on_c,9,39,127,
2,306,Note_on_c,9,41,127,
2,306,Note_on_c,9,42,127,
2,306,Note_on_c,9,43,127,
2,306,Note_on_c,9,45,127,
2,306,Note_on_c,9,48,127,
2,306,Note_on_c,9,51,127,
2,306,Note_on_c,9,53,127,
2,306,Note_on_c,9,80,127,
2,306,Note_on_c,9,81,127,
2,306,Note_on_c,9,82,127,
2,307,Note_off_c,9,36,0,
2,308,Note_on_c,9,36,127,
2,308,Note_on_c,9,37,127,
2,308,Note_on_c,9,38,127,
2,308,Note_on_c,9,39,127,
2,308,Note_on_c,9,41,127,
2,308,Note_on_c,9,42,127,
2,308,Note_on_c,9,43,127,
2,308,Note_on_c,9,45,127,
2,308,Note_on_c,9,48,127,
2,308,Note_on_c,9,51,127,
2,308,Note_on_c,9,53,127,
2,308,Note_on_c,9,80,127,
2,308,Note_on_c,9,81,127,
2,308,Note_on_c,9,82,127,
2,309,Note_off_c,9,36,0,
2,310,Note_on_c,9,36,127,
2,310,Note_on_c,9,37,127,
2,310,Note_on_c,9,38,127,
2,310,Note_on_c,9,39,127,
2,310,Note_on_c,9,41,127,
2,310,Note_on_c,9,42,127,
2,310,Note_on_c,9,43,127,
2,310,Note_on_c,9,45,127,
2,310,Note_on_c,9,48,127,
2,310,Note_on_c,9,51,127,
2,310,Note_on_c,9,53,127,
2,310,Note_on_c,9,80,127,
2,310,Note_on_c,9,81,127,
2,310,Note_on_c,9,82,127,
2,311,Note_off_c,9,36,0,
2,312,Note_on_c,9,36,127,
2,312,Note_on_c,9,37,127,
2,312,Note_on_c,9,38,127,
2,312,Note_on_c,9,39,127,
2,312,Note_on_c,9,41,127,
2,312,Note_on_c,9,42,127,
2,312,Note_on_c,9,43,127,
2,312,Note_on_c,9,45,127,
2,312,Note_on_c,9,48,127,
2,312,Note_on_c,9,51,127,
2,312,Note_on_c,9,53,127,
2,312,Note_on_c,9,80,127,
2,312,Note_on_c,9,81,127,
2,312,Note_on_c,9,82,127,
2,313,Note_off_c,9,36,0,
2,314,Note_on_c,9,36,127,
2,314,Note_on_c,9,37,127,
2,314,Note_on_c,9,38,127,
2,314,Note_on_c,9,39,127,
2,314,Note_on_c,9,41,127,
2,314,Note_on_c,9,42,127,
2,314,Note_on_c,9,43,127,
2,314,Note_on_c,9,45,127,
2,314,Note_on_c,9,48,127,
2,314,Note_on_c,9,51,127,
2,314,Note_on_c,9,53,127,
2,314,Note_on_c,9,80,127,
2,314,Note_on_c,9,81,127,
2,314,Note_on_c,9,82,127,
2,315,Note_off_c,9,36,0,
2,316,Note_on_c,9,36,127,
2,316,Note_on_c,9,37,127,
2,316,Note_on_c,9,38,127,
2,316,Note_on_c,9,39,127,
2,316,Note_on_c,9,41,127,
2,316,Note_on_c,9,42,127,
2,316,Note_on_c,9,43,127,
2,316,Note_on_c,9,45,127,
2,316,Note_on_c,9,48,127,
2,316,Note_on_c,9,51,127,
2,316,Note_on_c,9,53,127,
2,316,Note_on_c,9,80,127,
2,316,Note_on_c,9,81,127,
2,316,Note_on_c,9,82,127,
2,317,Note_off_c,9,36,0,
2,318,Note_on_c,9,36,127,
2,318,Note_on_c,9,37,127,
2,318,Note_on_c,9,38,127,
2,318,Note_on_c,9,39,127,
2,318,Note_on_c,9,41,127,
2,318,Note_on_c,9,42,127,
2,318,Note_on_c,9,43,127,
2,318,Note_on_c,9,45,127,
2,318,Note_on_c,9,48,127,
2,318,Note_on_c,9,51,127,
2,318,Note_on_c,9,53,127,
2,318,Note_on_c,9,80,127,
2,318,Note_on_c,9,81,127,
2,318,Note_on_c,9,82,127,
2,319,Note_off_c,9,36,0,
2,320,Note_on_c,9,36,127,
2,320,Note_on_c,9,37,127,
2,320,Note_on_c,9,38,127,
2,320,Note_on_c,9,39,127,
2,320,Note_on_c,9,41,127,
2,320,Note_on_c,9,42,127,
2,320,Note_on_c,9,43,127,
2,320,Note_on_c,9,45,127,
2,320,Note_on_c,9,48,127,
2,320,Note_on_c,9,51,127,
2,320,Note_on_c,9,53,127,
2,320,Note_on_c,9,80,127,
2,320,Note_on_c,9,81,127,
2,320,Note_on_c,9,82,127,
2,321,Note_off_c,9,36,0,
2,322,Note_on_c,9,36,127,
2,322,Note_on_c,9,37,127,
2,322,Note_on_c,9,38,127,
2,322,Note_on_c,9,39,127,
2,322,Note_on_c,9,41,127,
2,322,Note_on_c,9,42,127,
2,322,Note_on_c,9,43,127,
2,322,Note_on_c,9,45,127,
2,322,Note_on_c,9,48,127,
2,322,Note_on_c,9,51,127,
2,322,Note_on_c,9,53,127,
2,322,Note_on_c,9,80,127,
2,322,Note_on_c,9,81,127,
2,322,Note_on_c,9,82,127,
2,323,Note_off_c,9,36,0,
2,324,Note_on_c,9,36,127,
2,324,Note_on_c,9,37,127,
2,324,Note_on_c,9,38,127,
2,324,Note_on_c,9,39,127,
2,324,Note_on_c,9,41,127,
2,324,Note_on_c,9,42,127,
2,324,Note_on_c,9,43,127,
2,324,Note_on_c,9,45,127,
2,324,Note_on_c,9,48,127,
2,324,Note_on_c,9,51,127,
2,324,Note_on_c,9,53,127,
2,324,Note_on_c,9,80,127,
2,324,Note_on_c,9,81,127,
2,324,Note_on_c,9,82,127,
2,325,Note_off_c,9,36,0,
2,326,Note_on_c,9,36,127,
2,326,Note_on_c,9,37,127,
2,326,Note_on_c,9,38,127,
2,326,Note_on_c,9,39,127,
2,326,Note_on_c,9,41,127,
2,326,Note_on_c,9,42,127,
2,326,Note_on_c,9,43,127,
2,326,Note_on_c,9,45,127,
2,326,Note_on_c,9,48,127,
2,326,Note_on_c,9,51,127,
2,326,Note_on_c,9,53,127,
2,326,Note_on_c,9,80,127,
2,326,Note_on_c,9,81,127,
2,326,Note_on_c,9,82,127,
2,327,Note_off_c,9,36,0,
2,328,Note_on_c,9,36,127,
2,328,Note_on_c,9,37,127,
2,328,Note_on_c,9,38,127,
2,328,Note_on_c,9,39,127,
2,328,Note_on_c,9,41,127,
2,328,Note_on_c,9,42,127,
2,328,Note_on_c,9,43,127,
2,328,Note_on_c,9,45,127,
2,328,Note_on_c,9,48,127,
2,328,Note_on_c,9,51,127,
2,328,Note_on_c,9,53,127,
2,328,Note_on_c,9,80,127,
2,328,Note_on_c,9,81,127,
2,328,Note_on_c,9,82,127,
2,329,Note_off_c,9,36,0,
2,330,Note_on_c,9,36,127,
2,330,Note_on_c,9,37,127,
2,330,Note_on_c,9,38,127,
2,330,Note_on_c,9,39,127,
2,330,Note_on_c,9,41,127,
2,330,Note_on_c,9,42,127,
2,330,Note_on_c,9,43,127,
2,330,Note_on_c,9,45,127,
2,330,Note_on_c,9,48,127,
2,330,Note_on_c,9,51,127,
2,330,Note_on_c,9,53,127,
2,330,Note_on_c,9,80,127,
2,330,Note_on_c,9,81,127,
2,330,Note_on_c,9,82,127,
2,331,Note_off_c,9,36,0,
2,332,Note_on_c,9,36,127,
2,332,Note_on_c,9,37,127,
2,332,Note_on_c,9,38,127,
2,332,Note_on_c,9,39,127,
2,332,Note_on_c,9,41,127,
2,332,Note_on_c,9,42,127,
2,332,Note_on_c,9,43,127,
2,332,Note_on_c,9,45,127,
2,332,Note_on_c,9,48,127,
2,332,Note_on_c,9,51,127,
2,332,Note_on_c,9,53,127,
2,332,Note_on_c,9,80,127,
2,332,Note_on_c,9,81,127,
2,332,Note_on_c,9,82,127,
2,333,Note_off_c,9,36,0,
2,334,Note_on_c,9,36,127,
2,334,Note_on_c,9,37,127,
2,334,Note_on_c,9,38,127,
2,334,Note_on_c,9,39,127,
2,334,Note_on_c,9,41,127,
2,334,Note_on_c,9,42,127,
2,334,Note_on_c,9,43,127,
2,334,Note_on_c,9,45,127,
2,334,Note_on_c,9,48,127,
2,334,Note_on_c,9,51,127,
2,334,Note_on_c,9,53,127,
2,334,Note_on_c,9,80,127,
2,334,Note_on_c,9,81,127,
2,334,Note_on_c,9,82,127,
2,335,Note_off_c,9,36,0,
2,336,Note_on_c,9,36,127,
2,336,Note_on_c,9,37,127,
2,336,Note_on_c,9,38,127,
2,336,Note_on_c,9,39,127,
2,336,Note_on_c,9,41,127,
2,336,Note_on_c,9,42,127,
2,336,Note_on_c,9,43,127,
2,336,Note_on_c,9,45,127,
2,336,Note_on_c,9,48,127,
2,336,Note_on_c,9,51,127,
2,336,Note_on_c,9,53,127,
2,336,Note_on_c,9,80,127,
2,336,Note_on_c,9,81,127,
2,336,Note_on_c,9,82,127,
2,337,Note_off_c,9,36,0,
2,338,Note_on_c,9,36,127,
2,338,Note_on_c,9,37,127,
2,338,Note_on_c,9,38,127,
2,338,Note_on_c,9,39,127,
2,338,Note_on_c,9,41,127,
2,338,Note_on_c,9,42,127,
2,338,Note_on_c,9,43,127,
2,338,Note_on_c,9,45,127,
2,338,Note_on_c,9,48,127,
2,338,Note_on_c,9,51,127,
2,338,Note_on_c,9,53,127,
2,338,Note_on_c,9,80,127,
2,338,Note_on_c,9,81,127,
2,338,Note_on_c,9,82,127,
2,339,Note_off_c,9,36,0,
2,340,Note_on_c,9,36,127,
2,340,Note_on_c,9,37,127,
2,340,Note_on_c,9,38,127,
2,340,Note_on_c,9,39,127,
2,340,Note_on_c,9,41,127,
2,340,Note_on_c,9,42,127,
2,340,Note_on_c,9,43,127,
2,340,Note_on_c,9,45,127,
2,340,Note_on_c,9,48,127,
2,340,Note_on_c,9,51,127,
2,340,Note_on_c,9,53,127,
2,340,Note_on_c,9,80,127,
2,340,Note_on_c,9,81,127,
2,340,Note_on_c,9,82,127,
2,341,Note_off_c,9,36,0,
2,342,Note_on_c,9,36,127,
2,342,Note_on_c,9,37,127,
2,342,Note_on_c,9,38,127,
2,342,Note_on_c,9,39,127,
2,342,Note_on_c,9,41,127,
2,342,Note_on_c,9,42,127,
2,342,Note_on_c,9,43,127,
2,342,Note_on_c,9,45,127,
2,342,Note_on_c,9,48,127,
2,342,Note_on_c,9,51,127,
2,342,Note_on_c,9,53,127,
2,342,Note_on_c,9,80,127,
2,342,Note_on_c,9,81,127,
2,342,Note_on_c,9,82,127,
2,343,Note_off_c,9,36,0,
2,344,Note_on_c,9,36,127,
2,344,Note_on_c,9,37,127,
2,344,Note_on_c,9,38,127,
2,344,Note_on_c,9,39,127,
2,344,Note_on_c,9,41,127,
2,344,Note_on_c,9,42,127,
2,344,Note_on_c,9,43,127,
2,344,Note_on_c,9,45,127,
2,344,Note_on_c,9,48,127,
2,344,Note_on_c,9,51,127,
2,344,Note_on_c,9,53,127,
2,344,Note_on_c,9,80,127,
2,344,Note_on_c,9,81,127,
2,344,Note_on_c,9,82,127,
2,345,Note_off_c,9,36,0,
2,346,Note_on_c,9,36,127,
2,346,Note_on_c,9,37,127,
2,346,Note_on_c,9,38,127,
2,346,Note_on_c,9,39,127,
2,346,Note_on_c,9,41,127,
2,346,Note_on_c,9,42,127,
2,346,Note_on_c,9,43,127,
2,346,Note_on_c,9,45,127,
2,346,Note_on_c,9,48,127,
2,346,Note_on_c,9,51,127,
2,346,Note_on_c,9,53,127,
2,346,Note_on_c,9,80,127,
2,346,Note_on_c,9,81,127,
2,346,Note_on_c,9,82,127,
2,347,Note_off_c,9,36,0,
2,348,Note_on_c,9,36,127,
2,348,Note_on_c,9,37,127,
2,348,Note_on_c,9,38,127,
2,348,Note_on_c,9,39,127,
2,348,Note_on_c,9,41,127,
2,348,Note_on_c,9,42,127,
2,348,Note_on_c,9,43,127,
2,348,Note_on_c,9,45,127,
2,348,Note_on_c,9,48,127,
2,348,Note_on_c,9,51,127,
2,348,Note_on_c,9,53,127,
2,348,Note_on_c,9,80,127,
2,348,Note_on_c,9,81,127,
2,348,Note_on_c,9,82,127,
2,349,Note_off_c,9,36,0,
2,350,Note_on_c,9,36,127,
2,350,Note_on_c,9,37,127,
2,350,Note_on_c,9,38,127,
2,350,Note_on_c,9,39,127,
2,350,Note_on_c,9,41,127,
2,350,Note_on_c,9,42,127,
2,350,Note_on_c,9,43,127,
2,350,Note_on_c,9,45,127,
2,350,Note_on_c,9,48,127,
2,350,Note_on_c,9,51,127,
2,350,Note_on_c,9,53,127,
2,350,Note_on_c,9,80,127,
2,350,Note_on_c,9,81,127,
2,350,Note_on_c,9,82,127,
2,351,Note_off_c,9,36,0,
2,352,Note_on_c,9,36,127,
2,352,Note_on_c,9,37,127,
2,352,Note_on_c,9,38,127,
2,352,Note_on_c,9,39,127,
2,352,Note_on_c,9,41,127,
2,352,Note_on_c,9,42,127,
2,352,Note_on_c,9,43,127,
2,352,Note_on_c,9,45,127,
2,352,Note_on_c,9,48,127,
2,352,Note_on_c,9,51,127,
2,352,Note_on_c,9,53,127,
2,352,Note_on_c,9,80,127,
2,352,Note_on_c,9,81,127,
2,352,Note_on_c,9,82,127,
2,353,Note_off_c,9,36,0,
2,354,Note_on_c,9,36,127,
2,354,Note_on_c,9,37,127,
2,354,Note_on_c,9,38,127,
2,354,Note_on_c,9,39,127,
2,354,Note_on_c,9,41,127,
2,354,Note_on_c,9,42,127,
2,354,Note_on_c,9,43,127,
2,354,Note_on_c,9,45,127,
2,354,Note_on_c,9,48,127,
2,354,Note_on_c,9,51,127,
2,354,Note_on_c,9,53,127,
2,354,Note_on_c,9,80,127,
2,354,Note_on_c,9,81,127,
2,354,Note_on_c,9,82,127,
2,355,Note_off_c,9,36,0,
2,356,Note_on_c,9,36,127,
2,356,Note_on_c,9,37,127,
2,356,Note_on_c,9,38,127,
2,356,Note_on_c,9,39,127,
2,356,Note_on_c,9,41,127,
2,356,Note_on_c,9,42,127,
2,356,Note_on_c,9,43,127,
2,356,Note_on_c,9,45,127,
2,356,Note_on_c,9,48,127,
2,356,Note_on_c,9,51,127,
2,356,Note_on_c,9,53,127,
2,356,Note_on_c,9,80,127,
2,356,Note_on_c,9,81,127,
2,356,Note_on_c,9,82,127,
2,357,Note_off_c,9,36,0,
2,358,Note_on_c,9,36,127,
2,358,Note_on_c,9,37,127,
2,358,Note_on_c,9,38,127,
2,358,Note_on_c,9,39,127,
2,358,Note_on_c,9,41,127,
2,358,Note_on_c,9,42,127,
2,358,Note_on_c,9,43,127,
2,358,Note_on_c,9,45,127,
2,358,Note_on_c,9,48,127,
2,358,Note_on_c,9,51,127,
2,358,Note_on_c,9,53,127,
2,358,Note_on_c,9,80,127,
2,358,Note_on_c,9,81,127,
2,358,Note_on_c,9,82,127,
2,359,Note_off_c,9,36,0,
2,360,Note_on_c,9,36,127,
2,360,Note_on_c,9,37,127,
2,360,Note_on_c,9,38,127,
2,360,Note_on_c,9,39,127,
2,360,Note_on_c,9,41,127,
2,360,Note_on_c,9,42,127,
2,360,Note_on_c,9,43,127,
2,360,Note_on_c,9,45,127,
2,360,Note_on_c,9,48,127,
2,360,Note_on_c,9,51,127,
2,360,Note_on_c,9,53,127,
2,360,Note_on_c,9,80,127,
2,360,Note_on_c,9,81,127,
2,360,Note_on_c,9,82,127,
2,361,Note_off_c,9,36,0,
2,362,Note_on_c,9,36,127,
2,362,Note_on_c,9,37,127,
2,362,Note_on_c,9,38,127,
2,362,Note_on_c,9,39,127,
2,362,Note_on_c,9,41,127,
2,362,Note_on_c,9,42,127,
2,362,Note_on_c,9,43,127,
2,362,Note_on_c,9,45,127,
2,362,Note_on_c,9,48,127,
2,362,Note_on_c,9,51,127,
2,362,Note_on_c,9,53,127,
2,362,Note_on_c,9,80,127,
2,362,Note_on_c,9,81,127,
2,362,Note_on_c,9,82,127,
2,363,Note_off_c,9,36,0,
2,364,Note_on_c,9,36,127,
2,364,Note_on_c,9,37,127,
2,364,Note_on_c,9,38,127,
2,364,Note_on_c,9,39,127,
2,364,Note_on_c,9,41,127,
2,364,Note_on_c,9,42,127,
2,364,Note_on_c,9,43,127,
2,364,Note_on_c,9,45,127,
2,364,Note_on_c,9,48,127,
2,364,Note_on_c,9,51,127,
2,364,Note_on_c,9,53,127,
2,364,Note_on_c,9,80,127,
2,364,Note_on_c,9,81,127,
2,364,Note_on_c,9,82,127,
2,365,Note_off_c,9,36,0,
2,366,Note_on_c,9,36,127,
2,366,Note_on_c,9,37,127,
2,366,Note_on_c,9,38,127,
2,366,Note_on_c,9,39,127,
2,366,Note_on_c,9,41,127,
2,366,Note_on_c,9,42,127,
2,366,Note_on_c,9,43,127,
2,366,Note_on_c,9,45,127,
2,366,Note_on_c,9,48,127,
2,366,Note_on_c,9,51,127,
2,366,Note_on_c,9,53,127,
2,366,Note_on_c,9,80,127,
2,366,Note_on_c,9,81,127,
2,366,Note_on_c,9,82,127,
2,367,Note_off_c,9,36,0,
2,368,Note_on_c,9,36,127,
2,368,Note_on_c,9,37,127,
2,368,Note_on_c,9,38,127,
2,368,Note_on_c,9,39,127,
2,368,Note_on_c,9,41,127,
2,368,Note_on_c,9,42,127,
2,368,Note_on_c,9,43,127,
2,368,Note_on_c,9,45,127,
2,368,Note_on_c,9,48,127,
2,368,Note_on_c,9,51,127,
2,368,Note_on_c,9,53,127,
2,368,Note_on_c,9,80,127,
2,368,Note_on_c,9,81,127,
2,368,Note_on_c,9,82,127,
2,369,Note_off_c,9,36,0,
2,370,Note_on_c,9,36,127,
2,370,Note_on_c,9,37,127,
2,370,Note_on_c,9,38,127,
2,370,Note_on_c,9,39,127,
2,370,Note_on_c,9,41,127,
2,370,Note_on_c,9,42,127,
2,370,Note_on_c,9,43,127,
2,370,Note_on_c,9,45,127,
2,370,Note_on_c,9,48,127,
2,370,Note_on_c,9,51,127,
2,370,Note_on_c,9,53,127,
2,370,Note_on_c,9,80,127,
2,370,Note_on_c,9,81,127,
2,370,Note_on_c,9,82,127,
2,371,Note_off_c,9,36,0,
2,372,Note_on_c,9,36,127,
2,372,Note_on_c,9,37,127,
2,372,Note_on_c,9,38,127,
2,372,Note_on_c,9,39,127,
2,372,Note_on_c,9,41,127,
2,372,Note_on_c,9,42,127,
2,372,Note_on_c,9,43,127,
2,372,Note_on_c,9,45,127,
2,372,Note_on_c,9,48,127,
2,372,Note_on_c,9,51,127,
2,372,Note_on_c,9,53,127,
2,372,Note_on_c,9,80,127,
2,372,Note_on_c,9,81,127,
2,372,Note_on_c,9,82,127,
2,373,Note_off_c,9,36,0,
2,374,Note_on_c,9,36,127,
2,374,Note_on_c,9,37,127,
2,374,Note_on_c,9,38,127,
2,374,Note_on_c,9,39,127,
2,374,Note_on_c,9,41,127,
2,374,Note_on_c,9,42,127,
2,374,Note_on_c,9,43,127,
2,374,Note_on_c,9,45,127,
2,374,Note_on_c,9,48,127,
2,374,Note_on_c,9,51,127,
2,374,Note_on_c,9,53,127,
2,374,Note_on_c,9,80,127,
2,374,Note_on_c,9,81,127,
2,374,Note_on_c,9,82,127,
2,375,Note_off_c,9,36,0,
2,376,Note_on_c,9,36,127,
2,376,Note_on_c,9,37,127,
2,376,Note_on_c,9,38,127,
2,376,Note_on_c,9,39,127,
2,376,Note_on_c,9,41,127,
2,376,Note_on_c,9,42,127,
2,376,Note_on_c,9,43,127,
2,376,Note_on_c,9,45,127,
2,376,Note_on_c,9,48,127,
2,376,Note_on_c,9,51,127,
2,376,Note_on_c,9,53,127,
2,376,Note_on_c,9,80,127,
2,376,Note_on_c,9,81,127,
2,376,Note_on_c,9,82,127,
2,377,Note_off_c,9,36,0,
2,378,Note_on_c,9,36,127,
2,378,Note_on_c,9,37,127,
2,378,Note_on_c,9,38,127,
2,378,Note_on_c,9,39,127,
2,378,Note_on_c,9,41,127,
2,378,Note_on_c,9,42,127,
2,378,Note_on_c,9,43,127,
2,378,Note_on_c,9,45,127,
2,378,Note_on_c,9,48,127,
2,378,Note_on_c,9,51,127,
2,378,Note_on_c,9,53,127,
2,378,Note_on_c,9,80,127,
2,378,Note_on_c,9,81,127,
2,378,Note_on_c,9,82,127,
2,379,Note_off_c,9,36,0,
2,380,Note_on_c,9,36,127,
2,380,Note_on_c,9,37,127,
2,380,Note_on_c,9,38,127,
2,380,Note_on_c,9,39,127,
2,380,Note_on_c,9,41,127,
2,380,Note_on_c,9,42,127,
2,380,Note_on_c,9,43,127,
2,380,Note_on_c,9,45,127,
2,380,Note_on_c,9,48,127,
2,380,Note_on_c,9,51,127,
2,380,Note_on_c,9,53,127,
2,380,Note_on_c,9,80,127,
2,380,Note_on_c,9,81,127,
2,380,Note_on_c,9,82,127,
2,381,Note_off_c,9,36,0,
2,382,Note_on_c,9,36,127,
2,382,Note_on_c,9,37,127,
2,382,Note_on_c,9,38,127,
2,382,Note_on_c,9,39,127,
2,382,Note_on_c,9,41,127,
2,382,Note_on_c,9,42,127,
2,382,Note_on_c,9,43,127,
2,382,Note_on_c,9,45,127,
2,382,Note_on_c,9,48,127,
2,382,Note_on_c,9,51,127,
2,382,Note_on_c,9,53,127,
2,382,Note_on_c,9,80,127,
2,382,Note_on_c,9,81,127,
2,382,Note_on_c,9,82,127,
2,383,Note_off_c,9,36,0,
2,384,Note_on_c,9,36,127,
2,384,Note_on_c,9,37,127,
2,384,Note_on_c,9,38,127,
2,384,Note_on_c,9,39,127,
2,384,Note_on_c,9,41,127,
2,384,Note_on_c,9,42,127,
2,384,Note_on_c,9,43,127,
2,384,Note_on_c,9,45,127,
2,384,Note_on_c,9,48,127,
2,384,Note_on_c,9,51,127,
2,384,Note_on_c,9,53,127,
2,384,Note_on_c,9,80,127,
2,384,Note_on_c,9,81,127,
2,384,Note_on_c,9,82,127,
2,385,Note_off_c,9,36,0,
2,386,Note_on_c,9,36,127,
2,386,Note_on_c,9,37,127,
2,386,Note_on_c,9,38,127,
2,386,Note_on_c,9,39,127,
2,386,Note_on_c,9,41,127,
2,386,Note_on_c,9,42,127,
2,386,Note_on_c,9,43,127,
2,386,Note_on_c,9,45,127,
2,386,Note_on_c,9,48,127,
2,386,Note_on_c,9,51,127,
2,386,Note_on_c,9,53,127,
2,386,Note_on_c,9,80,127,
2,386,Note_on_c,9,81,127,
2,386,Note_on_c,9,82,127,
2,387,Note_off_c,9,36,0,
2,388,Note_on_c,9,36,127,
2,388,Note_on_c,9,37,127,
2,388,Note_on_c,9,38,127,
2,388,Note_on_c,9,39,127,
2,388,Note_on_c,9,41,127,
2,388,Note_on_c,9,42,127,
2,388,Note_on_c,9,43,127,
2,388,Note_on_c,9,45,127,
2,388,Note_on_c,9,48,127,
2,388,Note_on_c,9,51,127,
2,388,Note_on_c,9,53,127,
2,388,Note_on_c,9,80,127,
2,388,Note_on_c,9,81,127,
2,388,Note_on_c,9,82,127,
2,389,Note_off_c,9,36,0,
2,390,Note_on_c,9,36,127,
2,390,Note_on_c,9,37,127,
2,390,Note_on_c,9,38,127,
2,390,Note_on_c,9,39,127,
2,390,Note_on_c,9,41,127,
2,390,Note_on_c,9,42,127,
2,390,Note_on_c,9,43,127,
2,390,Note_on_c,9,45,127,
2,390,Note_on_c,9,48,127,
2,390,Note_on_c,9,51,127,
2,390,Note_on_c,9,53,127,
2,390,Note_on_c,9,80,127,
2,390,Note_on_c,9,81,127,
2,390,Note_on_c,9,82,127,
2,391,Note_off_c,9,36,0,
2,392,Note_on_c,9,36,127,
2,392,Note_on_c,9,37,127,
2,392,Note_on_c,9,38,127,
2,392,Note_on_c,9,39,127,
2,392,Note_on_c,9,41,127,
2,392,Note_on_c,9,42,127,
2,392,Note_on_c,9,43,127,
2,392,Note_on_c,9,45,127,
2,392,Note_on_c,9,48,127,
2,392,Note_on_c,9,51,127,
2,392,Note_on_c,9,53,127,
2,392,Note_on_c,9,80,127,
2,392,Note_on_c,9,81,127,
2,392,Note_on_c,9,82,127,
2,393,Note_off_c,9,36,0,
2,394,Note_on_c,9,36,127,
2,394,Note_on_c,9,37,127,
2,394,Note_on_c,9,38,127,
2,394,Note_on_c,9,39,127,
2,394,Note_on_c,9,41,127,
2,394,Note_on_c,9,42,127,
2,394,Note_on_c,9,43,127,
2,394,Note_on_c,9,45,127,
2,394,Note_on_c,9,48,127,
2,394,Note_on_c,9,51,127,
2,394,Note_on_c,9,53,127,
2,394,Note_on_c,9,80,127,
2,394,Note_on_c,9,81,127,
2,394,Note_on_c,9,82,127,
2,395,Note_off_c,9,36,0,
2,396,Note_on_c,9,36,127,
2,396,Note_on_c,9,37,127,
2,396,Note_on_c,9,38,127,
2,396,Note_on_c,9,39,127,
2,396,Note_on_c,9,41,127,
2,396,Note_on_c,9,42,127,
2,396,Note_on_c,9,43,127,
2,396,Note_on_c,9,45,127,
2,396,Note_on_c,9,48,127,
2,396,Note_on_c,9,51,127,
2,396,Note_on_c,9,53,127,
2,396,Note_on_c,9,80,127,
2,396,Note_on_c,9,81,127,
2,396,Note_on_c,9,82,127,
2,397,Note_off_c,9,36,0,
2,398,Note_on_c,9,36,127,
2,398,Note_on_c,9,37,127,
2,398,Note_on_c,9,38,127,
2,398,Note_on_c,9,39,127,
2,398,Note_on_c,9,41,127,
2,398,Note_on_c,9,42,127,
2,398,Note_on_c,9,43,127,
2,398,Note_on_c,9,45,127,
2,398,Note_on_c,9,48,127,
2,398,Note_on_c,9,51,127,
2,398,Note_on_c,9,53,127,
2,398,Note_on_c,9,80,127,
2,398,Note_on_c,9,81,127,
2,398,Note_on_c,9,82,127,
2,399,Note_off_c,9,36,0,
2,400,Note_on_c,9,36,127,
2,400,Note_on_c,9,37,127,
2,400,Note_on_c,9,38,127,
2,400,Note_on_c,9,39,127,
2,400,Note_on_c,9,41,127,
2,400,Note_on_c,9,42,127,
2,400,Note_on_c,9,43,127,
2,400,Note_on_c,9,45,127,
2,400,Note_on_c,9,48,127,
2,400,Note_on_c,9,51,127,
2,400,Note_on_c,9,53,127,
2,400,Note_on_c,9,80,127,
2,400,Note_on_c,9,81,127,
2,400,Note_on_c,9,82,127,
2,401,Note_off_c,9,36,0,
2,402,Note_on_c,9,36,127,
2,402,Note_on_c,9,37,127,
2,402,Note_on_c,9,38,127,
2,402,Note_on_c,9,39,127,
2,402,Note_on_c,9,41,127,
2,402,Note_on_c,9,42,127,
2,402,Note_on_c,9,43,127,
2,402,Note_on_c,9,45,127,
2,402,Note_on_c,9,48,127,
2,402,Note_on_c,9,51,127,
2,402,Note_on_c,9,53,127,
2,402,Note_on_c,9,80,127,
2,402,Note_on_c,9,81,127,
2,402,Note_on_c,9,82,127,
2,403,Note_off_c,9,36,0,
2,404,Note_on_c,9,36,127,
2,404,Note_on_c,9,37,127,
2,404,Note_on_c,9,38,127,
2,404,Note_on_c,9,39,127,
2,404,Note_on_c,9,41,127,
2,404,Note_on_c,9,42,127,
2,404,Note_on_c,9,43,127,
2,404,Note_on_c,9,45,127,
2,404,Note_on_c,9,48,127,
2,404,Note_on_c,9,51,127,
2,404,Note_on_c,9,53,127,
2,404,Note_on_c,9,80,127,
2,404,Note_on_c,9,81,127,
2,404,Note_on_c,9,82,127,
2,405,Note_off_c,9,36,0,
2,406,Note_on_c,9,36,127,
2,406,Note_on_c,9,37,127,
2,406,Note_on_c,9,38,127,
2,406,Note_on_c,9,39,127,
2,406,Note_on_c,9,41,127,
2,406,Note_on_c,9,42,127,
2,406,Note_on_c,9,43,127,
2,406,Note_on_c,9,45,127,
2,406,Note_on_c,9,48,127,
2,406,Note_on_c,9,51,127,
2,406,Note_on_c,9,53,127,
2,406,Note_on_c,9,80,127,
2,406,Note_on_c,9,81,127,
2,406,Note_on_c,9,82,127,
2,407,Note_off_c,9,36,0,
2,408,Note_on_c,9,36,127,
2,408,Note_on_c,9,37,127,
2,408,Note_on_c,9,38,127,
2,408,Note_on_c,9,39,127,
2,408,Note_on_c,9,41,127,
2,408,Note_on_c,9,42,127,
2,408,Note_on_c,9,43,127,
2,408,Note_on_c,9,45,127,
2,408,Note_on_c,9,48,127,
2,408,Note_on_c,9,51,127,
2,408,Note_on_c,9,53,127,
2,408,Note_on_c,9,80,127,
2,408,Note_on_c,9,81,127,
2,408,Note_on_c,9,82,127,
2,409,Note_off_c,9,36,0,
2,410,Note_on_c,9,36,127,
2,410,Note_on_c,9,37,127,
2,410,Note_on_c,9,38,127,
2,410,Note_on_c,9,39,127,
2,410,Note_on_c,9,41,127,
2,410,Note_on_c,9,42,127,
2,410,Note_on_c,9,43,127,
2,410,Note_on_c,9,45,127,
2,410,Note_on_c,9,48,127,
2,410,Note_on_c,9,51,127,
2,410,Note_on_c,9,53,127,
2,410,Note_on_c,9,80,127,
2,410,Note_on_c,9,81,127,
2,410,Note_on_c,9,82,127,
2,411,Note_off_c,9,36,0,
2,412,Note_on_c,9,36,127,
2,412,Note_on_c,9,37,127,
2,412,Note_on_c,9,38,127,
2,412,Note_on_c,9,39,127,
2,412,Note_on_c,9,41,127,
2,412,Note_on_c,9,42,127,
2,412,Note_on_c,9,43,127,
2,412,Note_on_c,9,45,127,
2,412,Note_on_c,9,48,127,
2,412,Note_on_c,9,51,127,
2,412,Note_on_c,9,53,127,
2,412,Note_on_c,9,80,127,
2,412,Note_on_c,9,81,127,
2,412,Note_on_c,9,82,127,
2,413,Note_off_c,9,36,0,
2,414,Note_on_c,9,36,127,
2,414,Note_on_c,9,37,127,
2,414,Note_on_c,9,38,127,
2,414,Note_on_c,9,39,127,
2,414,Note_on_c,9,41,127,
2,414,Note_on_c,9,42,127,
2,414,Note_on_c,9,43,127,
2,414,Note_on_c,9,45,127,
2,414,Note_on_c,9,48,127,
2,414,Note_on_c,9,51,127,
2,414,Note_on_c,9,53,127,
2,414,Note_on_c,9,80,127,
2,414,Note_on_c,9,81,127,
2,414,Note_on_c,9,82,127,
2,415,Note_off_c,9,36,0,
2,416,Note_on_c,9,36,127,
2,416,Note_on_c,9,37,127,
2,416,Note_on_c,9,38,127,
2,416,Note_on_c,9,39,127,
2,416,Note_on_c,9,41,127,
2,416,Note_on_c,9,42,127,
2,416,Note_on_c,9,43,127,
2,416,Note_on_c,9,45,127,
2,416,Note_on_c,9,48,127,
2,416,Note_on_c,9,51,127,
2,416,Note_on_c,9,53,127,
2,416,Note_on_c,9,80,127,
2,416,Note_on_c,9,81,127,
2,416,Note_on_c,9,82,127,
2,417,Note_off_c,9,36,0,
2,418,Note_on_c,9,36,127,
2,418,Note_on_c,9,37,127,
2,418,Note_on_c,9,38,127,
2,418,Note_on_c,9,39,127,
2,418,Note_on_c,9,41,127,
2,418,Note_on_c,9,42,127,
2,418,Note_on_c,9,43,127,
2,418,Note_on_c,9,45,127,
2,418,Note_on_c,9,48,127,
2,418,Note_on_c,9,51,127,
2,418,Note_on_c,9,53,127,
2,418,Note_on_c,9,80,127,
2,418,Note_on_c,9,81,127,
2,418,Note_on_c,9,82,127,
2,419,Note_off_c,9,36,0,
2,420,Note_on_c,9,36,127,
2,420,Note_on_c,9,37,127,
2,420,Note_on_c,9,38,127,
2,420,Note_on_c,9,39,127,
2,420,Note_on_c,9,41,127,
2,420,Note_on_c,9,42,127,
2,420,Note_on_c,9,43,127,
2,420,Note_on_c,9,45,127,
2,420,Note_on_c,9,48,127,
2,420,Note_on_c,9,51,127,
2,420,Note_on_c,9,53,127,
2,420,Note_on_c,9,80,127,
2,420,Note_on_c,9,81,127,
2,420,Note_on_c,9,82,127,
2,421,Note_off_c,9,36,0,
2,422,Note_on_c,9,36,127,
2,422,Note_on_c,9,37,127,
2,422,Note_on_c,9,38,127,
2,422,Note_on_c,9,39,127,
2,422,Note_on_c,9,41,127,
2,422,Note_on_c,9,42,127,
2,422,Note_on_c,9,43,127,
2,422,Note_on_c,9,45,127,
2,422,Note_on_c,9,48,127,
2,422,Note_on_c,9,51,127,
2,422,Note_on_c,9,53,127,
2,422,Note_on_c,9,80,127,
2,422,Note_on_c,9,81,127,
2,422,Note_on_c,9,82,127,
2,423,Note_off_c,9,36,0,
2,424,Note_on_c,9,36,127,
2,424,Note_on_c,9,37,127,
2,424,Note_on_c,9,38,127,
2,424,Note_on_c,9,39,127,
2,424,Note_on_c,9,41,127,
2,424,Note_on_c,9,42,127,
2,424,Note_on_c,9,43,127,
2,424,Note_on_c,9,45,127,
2,424,Note_on_c,9,48,127,
2,424,Note_on_c,9,51,127,
2,424,Note_on_c,9,53,127,
2,424,Note_on_c,9,80,127,
2,424,Note_on_c,9,81,127,
2,424,Note_on_c,9,82,127,
2,425,Note_off_c,9,36,0,
2,426,Note_on_c,9,36,127,
2,426,Note_on_c,9,37,127,
2,426,Note_on_c,9,38,127,
2,426,Note_on_c,9,39,127,
2,426,Note_on_c,9,41,127,
2,426,Note_on_c,9,42,127,
2,426,Note_on_c,9,43,127,
2,426,Note_on_c,9,45,127,
2,426,Note_on_c,9,48,127,
2,426,Note_on_c,9,51,127,
2,426,Note_on_c,9,53,127,
2,426,Note_on_c,9,80,127,
2,426,Note_on_c,9,81,127,
2,426,Note_on_c,9,82,127,
2,427,Note_off_c,9,36,0,
2,428,Note_on_c,9,36,127,
2,428,Note_on_c,9,37,127,
2,428,Note_on_c,9,38,127,
2,428,Note_on_c,9,39,127,
2,428,Note_on_c,9,41,127,
2,428,Note_on_c,9,42,127,
2,428,Note_on_c,9,43,127,
2,428,Note_on_c,9,45,127,
2,428,Note_on_c,9,48,127,
2,428,Note_on_c,9,51,127,
2,428,Note_on_c,9,53,127,
2,428,Note_on_c,9,80,127,
2,428,Note_on_c,9,81,127,
2,428,Note_on_c,9,82,127,
2,429,Note_off_c,9,36,0,
2,430,Note_on_c,9,36,127,
2,430,Note_on_c,9,37,127,
2,430,Note_on_c,9,38,127,
2,430,Note_on_c,9,39,127,
2,430,Note_on_c,9,41,127,
2,430,Note_on_c,9,42,127,
2,430,Note_on_c,9,43,127,
2,430,Note_on_c,9,45,127,
2,430,Note_on_c,9,48,127,
2,430,Note_on_c,9,51,127,
2,430,Note_on_c,9,53,127,
2,430,Note_on_c,9,80,127,
2,430,Note_on_c,9,81,127,
2,430,Note_on_c,9,82,127,
2,431,Note_off_c,9,36,0,
2,432,Note_on_c,9,36,127,
2,432,Note_on_c,9,37,127,
2,432,Note_on_c,9,38,127,
2,432,Note_on_c,9,39,127,
2,432,Note_on_c,9,41,127,
2,432,Note_on_c,9,42,127,
2,432,Note_on_c,9,43,127,
2,432,Note_on_c,9,45,127,
2,432,Note_on_c,9,48,127,
2,432,Note_on_c,9,51,127,
2,432,Note_on_c,9,53,127,
2,432,Note_on_c,9,80,127,
2,432,Note_on_c,9,81,127,
2,432,Note_on_c,9,82,127,
2,433,Note_off_c,9,36,0,
2,434,Note_on_c,9,36,127,
2,434,Note_on_c,9,37,127,
2,434,Note_on_c,9,38,127,
2,434,Note_on_c,9,39,127,
2,434,Note_on_c,9,41,127,
2,434,Note_on_c,9,42,127,
2,434,Note_on_c,9,43,127,
2,434,Note_on_c,9,45,127,
2,434,Note_on_c,9,48,127,
2,434,Note_on_c,9,51,127,
2,434,Note_on_c,9,53,127,
2,434,Note_on_c,9,80,127,
2,434,Note_on_c,9,81,127,
2,434,Note_on_c,9,82,127,
2,435,Note_off_c,9,36,0,
2,436,Note_on_c,9,36,127,
2,436,Note_on_c,9,37,127,
2,436,Note_on_c,9,38,127,
2,436,Note_on_c,9,39,127,
2,436,Note_on_c,9,41,127,
2,436,Note_on_c,9,42,127,
2,436,Note_on_c,9,43,127,
2,436,Note_on_c,9,45,127,
2,436,Note_on_c,9,48,127,
2,436,Note_on_c,9,51,127,
2,436,Note_on_c,9,53,127,
2,436,Note_on_c,9,80,127,
2,436,Note_on_c,9,81,127,
2,436,Note_on_c,9,82,127,
2,437,Note_off_c,9,36,0,
2,438,Note_on_c,9,36,127,
2,438,Note_on_c,9,37,127,
2,438,Note_on_c,9,38,127,
2,438,Note_on_c,9,39,127,
2,438,Note_on_c,9,41,127,
2,438,Note_on_c,9,42,127,
2,438,Note_on_c,9,43,127,
2,438,Note_on_c,9,45,127,
2,438,Note_on_c,9,48,127,
2,438,Note_on_c,9,51,127,
2,438,Note_on_c,9,53,127,
2,438,Note_on_c,9,80,127,
2,438,Note_on_c,9,81,127,
2,438,Note_on_c,9,82,127,
2,439,Note_off_c,9,36,0,
2,440,Note_on_c,9,36,127,
2,440,Note_on_c,9,37,127,
2,440,Note_on_c,9,38,127,
2,440,Note_on_c,9,39,127,
2,440,Note_on_c,9,41,127,
2,440,Note_on_c,9,42,127,
2,440,Note_on_c,9,43,127,
2,440,Note_on_c,9,45,127,
2,440,Note_on_c,9,48,127,
2,440,Note_on_c,9,51,127,
2,440,Note_on_c,9,53,127,
2,440,Note_on_c,9,80,127,
2,440,Note_on_c,9,81,127,
2,440,Note_on_c,9,82,127,
2,441,Note_off_c,9,36,0,
2,442,Note_on_c,9,36,127,
2,442,Note_on_c,9,37,127,
2,442,Note_on_c,9,38,127,
2,442,Note_on_c,9,39,127,
2,442,Note_on_c,9,41,127,
2,442,Note_on_c,9,42,127,
2,442,Note_on_c,9,43,127,
2,442,Note_on_c,9,45,127,
2,442,Note_on_c,9,48,127,
2,442,Note_on_c,9,51,127,
2,442,Note_on_c,9,53,127,
2,442,Note_on_c,9,80,127,
2,442,Note_on_c,9,81,127,
2,442,Note_on_c,9,82,127,
2,443,Note_off_c,9,36,0,
2,444,Note_on_c,9,36,127,
2,444,Note_on_c,9,37,127,
2,444,Note_on_c,9,38,127,
2,444,Note_on_c,9,39,127,
2,444,Note_on_c,9,41,127,
2,444,Note_on_c,9,42,127,
2,444,Note_on_c,9,43,127,
2,444,Note_on_c,9,45,127,
2,444,Note_on_c,9,48,127,
2,444,Note_on_c,9,51,127,
2,444,Note_on_c,9,53,127,
2,444,Note_on_c,9,80,127,
2,444,Note_on_c,9,81,127,
2,444,Note_on_c,9,82,127,
2,445,Note_off_c,9,36,0,
2,446,Note_on_c,9,36,127,
2,446,Note_on_c,9,37,127,
2,446,Note_on_c,9,38,127,
2,446,Note_on_c,9,39,127,
2,446,Note_on_c,9,41,127,
2,446,Note_on_c,9,42,127,
2,446,Note_on_c,9,43,127,
2,446,Note_on_c,9,45,127,
2,446,Note_on_c,9,48,127,
2,446,Note_on_c,9,51,127,
2,446,Note_on_c,9,53,127,
2,446,Note_on_c,9,80,127,
2,446,Note_on_c,9,81,127,
2,446,Note_on_c,9,82,127,
2,447,Note_off_c,9,36,0,
2,448,Note_on_c,9,36,127,
2,448,Note_on_c,9,37,127,
2,448,Note_on_c,9,38,127,
2,448,Note_on_c,9,39,127,
2,448,Note_on_c,9,41,127,
2,448,Note_on_c,9,42,127,
2,448,Note_on_c,9,43,127,
2,448,Note_on_c,9,45,127,
2,448,Note_on_c,9,48,127,
2,448,Note_on_c,9,51,127,
2,448,Note_on_c,9,53,127,
2,448,Note_on_c,9,80,127,
2,448,Note_on_c,9,81,127,
2,448,Note_on_c,9,82,127,
2,449,Note_off_c,9,36,0,
2,450,Note_on_c,9,36,127,
2,450,Note_on_c,9,37,127,
2,450,Note_on_c,9,38,127,
2,450,Note_on_c,9,39,127,
2,450,Note_on_c,9,41,127,
2,450,Note_on_c,9,42,127,
2,450,Note_on_c,9,43,127,
2,450,Note_on_c,9,45,127,
2,450,Note_on_c,9,48,127,
2,450,Note_on_c,9,51,127,
2,450,Note_on_c,9,53,127,
2,450,Note_on_c,9,80,127,
2,450,Note_on_c,9,81,127,
2,450,Note_on_c,9,82,127,
2,451,Note_off_c,9,36,0,
2,452,Note_on_c,9,36,127,
2,452,Note_on_c,9,37,127,
2,452,Note_on_c,9,38,127,
2,452,Note_on_c,9,39,127,
2,452,Note_on_c,9,41,127,
2,452,Note_on_c,9,42,127,
2,452,Note_on_c,9,43,127,
2,452,Note_on_c,9,45,127,
2,452,Note_on_c,9,48,127,
2,452,Note_on_c,9,51,127,
2,452,Note_on_c,9,53,127,
2,452,Note_on_c,9,80,127,
2,452,Note_on_c,9,81,127,
2,452,Note_on_c,9,82,127,
2,453,Note_off_c,9,36,0,
2,454,Note_on_c,9,36,127,
2,454,Note_on_c,9,37,127,
2,454,Note_on_c,9,38,127,
2,454,Note_on_c,9,39,127,
2,454,Note_on_c,9,41,127,
2,454,Note_on_c,9,42,127,
2,454,Note_on_c,9,43,127,
2,454,Note_on_c,9,45,127,
2,454,Note_on_c,9,48,127,
2,454,Note_on_c,9,51,127,
2,454,Note_on_c,9,53,127,
2,454,Note_on_c,9,80,127,
2,454,Note_on_c,9,81,127,
2,454,Note_on_c,9,82,127,
2,455,Note_off_c,9,36,0,
2,456,Note_on_c,9,36,127,
2,456,Note_on_c,9,37,127,
2,456,Note_on_c,9,38,127,
2,456,Note_on_c,9,39,127,
2,456,Note_on_c,9,41,127,
2,456,Note_on_c,9,42,127,
2,456,Note_on_c,9,43,127,
2,456,Note_on_c,9,45,127,
2,456,Note_on_c,9,48,127,
2,456,Note_on_c,9,51,127,
2,456,Note_on_c,9,53,127,
2,456,Note_on_c,9,80,127,
2,456,Note_on_c,9,81,127,
2,456,Note_on_c,9,82,127,
2,457,Note_off_c,9,36,0,
2,458,Note_on_c,9,36,127,
2,458,Note_on_c,9,37,127,
2,458,Note_on_c,9,38,127,
2,458,Note_on_c,9,39,127,
2,458,Note_on_c,9,41,127,
2,458,Note_on_c,9,42,127,
2,458,Note_on_c,9,43,127,
2,458,Note_on_c,9,45,127,
2,458,Note_on_c,9,48,127,
2,458,Note_on_c,9,51,127,
2,458,Note_on_c,9,53,127,
2,458,Note_on_c,9,80,127,
2,458,Note_on_c,9,81,127,
2,458,Note_on_c,9,82,127,
2,459,Note_off_c,9,36,0,
2,460,Note_on_c,9,36,127,
2,460,Note_on_c,9,37,127,
2,460,Note_on_c,9,38,127,
2,460,Note_on_c,9,39,127,
2,460,Note_on_c,9,41,127,
2,460,Note_on_c,9,42,127,
2,460,Note_on_c,9,43,127,
2,460,Note_on_c,9,45,127,
2,460,Note_on_c,9,48,127,
2,460,Note_on_c,9,51,127,
2,460,Note_on_c,9,53,127,
2,460,Note_on_c,9,80,127,
2,460,Note_on_c,9,81,127,
2,460,Note_on_c,9,82,127,
2,461,Note_off_c,9,36,0,
2,462,Note_on_c,9,36,127,
2,462,Note_on_c,9,37,127,
2,462,Note_on_c,9,38,127,
2,462,Note_on_c,9,39,127,
2,462,Note_on_c,9,41,127,
2,462,Note_on_c,9,42,127,
2,462,Note_on_c,9,43,127,
2,462,Note_on_c,9,45,127,
2,462,Note_on_c,9,48,127,
2,462,Note_on_c,9,51,127,
2,462,Note_on_c,9,53,127,
2,462,Note_on_c,9,80,127,
2,462,Note_on_c,9,81,127,
2,462,Note_on_c,9,82,127,
2,463,Note_off_c,9,36,0,
2,464,Note_on_c,9,36,127,
2,464,Note_on_c,9,37,127,
2,464,Note_on_c,9,38,127,
2,464,Note_on_c,9,39,127,
2,464,Note_on_c,9,41,127,
2,464,Note_on_c,9,42,127,
2,464,Note_on_c,9,43,127,
2,464,Note_on_c,9,45,127,
2,464,Note_on_c,9,48,127,
2,464,Note_on_c,9,51,127,
2,464,Note_on_c,9,53,127,
2,464,Note_on_c,9,80,127,
2,464,Note_on_c,9,81,127,
2,464,Note_on_c,9,82,127,
2,465,Note_off_c,9,36,0,
2,466,Note_on_c,9,36,127,
2,466,Note_on_c,9,37,127,
2,466,Note_on_c,9,38,127,
2,466,Note_on_c,9,39,127,
2,466,Note_on_c,9,41,127,
2,466,Note_on_c,9,42,127,
2,466,Note_on_c,9,43,127,
2,466,Note_on_c,9,45,127,
2,466,Note_on_c,9,48,127,
2,466,Note_on_c,9,51,127,
2,466,Note_on_c,9,53,127,
2,466,Note_on_c,9,80,127,
2,466,Note_on_c,9,81,127,
2,466,Note_on_c,9,82,127,
2,467,Note_off_c,9,36,0,
2,468,Note_on_c,9,36,127,
2,468,Note_on_c,9,37,127,
2,468,Note_on_c,9,38,127,
2,468,Note_on_c,9,39,127,
2,468,Note_on_c,9,41,127,
2,468,Note_on_c,9,42,127,
2,468,Note_on_c,9,43,127,
2,468,Note_on_c,9,45,127,
2,468,Note_on_c,9,48,127,
2,468,Note_on_c,9,51,127,
2,468,Note_on_c,9,53,127,
2,468,Note_on_c,9,80,127,
2,468,Note_on_c,9,81,127,
2,468,Note_on_c,9,82,127,
2,469,Note_off_c,9,36,0,
2,470,Note_on_c,9,36,127,
2,470,Note_on_c,9,37,127,
2,470,Note_on_c,9,38,127,
2,470,Note_on_c,9,39,127,
2,470,Note_on_c,9,41,127,
2,470,Note_on_c,9,42,127,
2,470,Note_on_c,9,43,127,
2,470,Note_on_c,9,45,127,
2,470,Note_on_c,9,48,127,
2,470,Note_on_c,9,51,127,
2,470,Note_on_c,9,53,127,
2,470,Note_on_c,9,80,127,
2,470,Note_on_c,9,81,127,
2,470,Note_on_c,9,82,127,
2,471,Note_off_c,9,36,0,
2,472,Note_on_c,9,36,127,
2,472,Note_on_c,9,37,127,
2,472,Note_on_c,9,38,127,
2,472,Note_on_c,9,39,127,
2,472,Note_on_c,9,41,127,
2,472,Note_on_c,9,42,127,
2,472,Note_on_c,9,43,127,
2,472,Note_on_c,9,45,127,
2,472,Note_on_c,9,48,127,
2,472,Note_on_c,9,51,127,
2,472,Note_on_c,9,53,127,
2,472,Note_on_c,9,80,127,
2,472,Note_on_c,9,81,127,
2,472,Note_on_c,9,82,127,
2,473,Note_off_c,9,36,0,
2,474,Note_on_c,9,36,127,
2,474,Note_on_c,9,37,127,
2,474,Note_on_c,9,38,127,
2,474,Note_on_c,9,39,127,
2,474,Note_on_c,9,41,127,
2,474,Note_on_c,9,42,127,
2,474,Note_on_c,9,43,127,
2,474,Note_on_c,9,45,127,
2,474,Note_on_c,9,48,127,
2,474,Note_on_c,9,51,127,
2,474,Note_on_c,9,53,127,
2,474,Note_on_c,9,80,127,
2,474,Note_on_c,9,81,127,
2,474,Note_on_c,9,82,127,
2,475,Note_off_c,9,36,0,
2,476,Note_on_c,9,36,127,
2,476,Note_on_c,9,37,127,
2,476,Note_on_c,9,38,127,
2,476,Note_on_c,9,39,127,
2,476,Note_on_c,9,41,127,
2,476,Note_on_c,9,42,127,
2,476,Note_on_c,9,43,127,
2,476,Note_on_c,9,45,127,
2,476,Note_on_c,9,48,127,
2,476,Note_on_c,9,51,127,
2,476,Note_on_c,9,53,127,
2,476,Note_on_c,9,80,127,
2,476,Note_on_c,9,81,127,
2,476,Note_on_c,9,82,127,
2,477,Note_off_c,9,36,0,
2,478,Note_on_c,9,36,127,
2,478,Note_on_c,9,37,127,
2,478,Note_on_c,9,38,127,
2,478,Note_on_c,9,39,127,
2,478,Note_on_c,9,41,127,
2,478,Note_on_c,9,42,127,
2,478,Note_on_c,9,43,127,
2,478,Note_on_c,9,45,127,
2,478,Note_on_c,9,48,127,
2,478,Note_on_c,9,51,127,
2,478,Note_on_c,9,53,127,
2,478,Note_on_c,9,80,127,
2,478,Note_on_c,9,81,127,
2,478,Note_on_c,9,82,127,
2,479,Note_off_c,9,36,0,
2,480,Note_on_c,9,36,127,
2,480,Note_on_c,9,37,127,
2,480,Note_on_c,9,38,127,
2,480,Note_on_c,9,39,127,
2,480,Note_on_c,9,41,127,
2,480,Note_on_c,9,42,127,
2,480,Note_on_c,9,43,127,
2,480,Note_on_c,9,45,127,
2,480,Note_on_c,9,48,127,
2,480,Note_on_c,9,51,127,
2,480,Note_on_c,9,53,127,
2,480,Note_on_c,9,80,127,
2,480,Note_on_c,9,81,127,
2,480,Note_on_c,9,82,127,
2,481,Note_off_c,9,36,0,
2,482,Note_on_c,9,36,127,
2,482,Note_on_c,9,37,127,
2,482,Note_on_c,9,38,127,
2,482,Note_on_c,9,39,127,
2,482,Note_on_c,9,41,127,
2,482,Note_on_c,9,42,127,
2,482,Note_on_c,9,43,127,
2,482,Note_on_c,9,45,127,
2,482,Note_on_c,9,48,127,
2,482,Note_on_c,9,51,127,
2,482,Note_on_c,9,53,127,
2,482,Note_on_c,9,80,127,
2,482,Note_on_c,9,81,127,
2,482,Note_on_c,9,82,127,
2,483,Note_off_c,9,36,0,
2,484,Note_on_c,9,36,127,
2,484,Note_on_c,9,37,127,
2,484,Note_on_c,9,38,127,
2,484,Note_on_c,9,39,127,
2,484,Note_on_c,9,41,127,
2,484,Note_on_c,9,42,127,
2,484,Note_on_c,9,43,127,
2,484,Note_on_c,9,45,127,
2,484,Note_on_c,9,48,127,
2,484,Note_on_c,9,51,127,
2,484,Note_on_c,9,53,127,
2,484,Note_on_c,9,80,127,
2,484,Note_on_c,9,81,127,
2,484,Note_on_c,9,82,127,
2,485,Note_off_c,9,36,0,
2,486,Note_on_c,9,36,127,
2,486,Note_on_c,9,37,127,
2,486,Note_on_c,9,38,127,
2,486,Note_on_c,9,39,127,
2,486,Note_on_c,9,41,127,
2,486,Note_on_c,9,42,127,
2,486,Note_on_c,9,43,127,
2,486,Note_on_c,9,45,127,
2,486,Note_on_c,9,48,127,
2,486,Note_on_c,9,51,127,
2,486,Note_on_c,9,53,127,
2,486,Note_on_c,9,80,127,
2,486,Note_on_c,9,81,127,
2,486,Note_on_c,9,82,127,
2,487,Note_off_c,9,36,0,
2,488,Note_on_c,9,36,127,
2,488,Note_on_c,9,37,127,
2,488,Note_on_c,9,38,127,
2,488,Note_on_c,9,39,127,
2,488,Note_on_c,9,41,127,
2,488,Note_on_c,9,42,127,
2,488,Note_on_c,9,43,127,
2,488,Note_on_c,9,45,127,
2,488,Note_on_c,9,48,127,
2,488,Note_on_c,9,51,127,
2,488,Note_on_c,9,53,127,
2,488,Note_on_c,9,80,127,
2,488,Note_on_c,9,81,127,
2,488,Note_on_c,9,82,127,
2,489,Note_off_c,9,36,0,
2,490,Note_on_c,9,36,127,
2,490,Note_on_c,9,37,127,
2,490,Note_on_c,9,38,127,
2,490,Note_on_c,9,39,127,
2,490,Note_on_c,9,41,127,
2,490,Note_on_c,9,42,127,
2,490,Note_on_c,9,43,127,
2,490,Note_on_c,9,45,127,
2,490,Note_on_c,9,48,127,
2,490,Note_on_c,9,51,127,
2,490,Note_on_c,9,53,127,
2,490,Note_on_c,9,80,127,
2,490,Note_on_c,9,81,127,
2,490,Note_on_c,9,82,127,
2,491,Note_off_c,9,36,0,
2,492,Note_on_c,9,36,127,
2,492,Note_on_c,9,37,127,
2,492,Note_on_c,9,38,127,
2,492,Note_on_c,9,39,127,
2,492,Note_on_c,9,41,127,
2,492,Note_on_c,9,42,127,
2,492,Note_on_c,9,43,127,
2,492,Note_on_c,9,45,127,
2,492,Note_on_c,9,48,127,
2,492,Note_on_c,9,51,127,
2,492,Note_on_c,9,53,127,
2,492,Note_on_c,9,80,127,
2,492,Note_on_c,9,81,127,
2,492,Note_on_c,9,82,127,
2,493,Note_off_c,9,36,0,
2,494,Note_on_c,9,36,127,
2,494,Note_on_c,9,37,127,
2,494,Note_on_c,9,38,127,
2,494,Note_on_c,9,39,127,
2,494,Note_on_c,9,41,127,
2,494,Note_on_c,9,42,127,
2,494,Note_on_c,9,43,127,
2,494,Note_on_c,9,45,127,
2,494,Note_on_c,9,48,127,
2,494,Note_on_c,9,51,127,
2,494,Note_on_c,9,53,127,
2,494,Note_on_c,9,80,127,
2,494,Note_on_c,9,81,127,
2,494,Note_on_c,9,82,127,
2,495,Note_off_c,9,36,0,
2,496,Note_on_c,9,36,127,
2,496,Note_on_c,9,37,127,
2,496,Note_on_c,9,38,127,
2,496,Note_on_c,9,39,127,
2,496,Note_on_c,9,41,127,
2,496,Note_on_c,9,42,127,
2,496,Note_on_c,9,43,127,
2,496,Note_on_c,9,45,127,
2,496,Note_on_c,9,48,127,
2,496,Note_on_c,9,51,127,
2,496,Note_on_c,9,53,127,
2,496,Note_on_c,9,80,127,
2,496,Note_on_c,9,81,127,
2,496,Note_on_c,9,82,127,
2,497,Note_off_c,9,36,0,
2,498,Note_on_c,9,36,127,
2,498,Note_on_c,9,37,127,
2,498,Note_on_c,9,38,127,
2,498,Note_on_c,9,39,127,
2,498,Note_on_c,9,41,127,
2,498,Note_on_c,9,42,127,
2,498,Note_on_c,9,43,127,
2,498,Note_on_c,9,45,127,
2,498,Note_on_c,9,48,127,
2,498,Note_on_c,9,51,127,
2,498,Note_on_c,9,53,127,
2,498,Note_on_c,9,80,127,
2,498,Note_on_c,9,81,127,
2,498,Note_on_c,9,82,127,
2,499,Note_off_c,9,36,0,
2,500,Note_on_c,9,36,127,
2,500,Note_on_c,9,37,127,
2,500,Note_on_c,9,38,127,
2,500,Note_on_c,9,39,127,
2,500,Note_on_c,9,41,127,
2,500,Note_on_c,9,42,127,
2,500,Note_on_c,9,43,127,
2,500,Note_on_c,9,45,127,
2,500,Note_on_c,9,48,127,
2,500,Note_on_c,9,51,127,
2,500,Note_on_c,9,53,127,
2,500,Note_on_c,9,80,127,
2,500,Note_on_c,9,81,127,
2,500,Note_on_c,9,82,127,
2,501,Note_off_c,9,36,0,
2,502,Note_on_c,9,36,127,
2,502,Note_on_c,9,37,127,
2,502,Note_on_c,9,38,127,
2,502,Note_on_c,9,39,127,
2,502,Note_on_c,9,41,127,
2,502,Note_on_c,9,42,127,
2,502,Note_on_c,9,43,127,
2,502,Note_on_c,9,45,127,
2,502,Note_on_c,9,48,127,
2,502,Note_on_c,9,51,127,
2,502,Note_on_c,9,53,127,
2,502,Note_on_c,9,80,127,
2,502,Note_on_c,9,81,127,
2,502,Note_on_c,9,82,127,
2,503,Note_off_c,9,36,0,
2,504,Note_on_c,9,36,127,
2,504,Note_on_c,9,37,127,
2,504,Note_on_c,9,38,127,
2,504,Note_on_c,9,39,127,
2,504,Note_on_c,9,41,127,
2,504,Note_on_c,9,42,127,
2,504,Note_on_c,9,43,127,
2,504,Note_on_c,9,45,127,
2,504,Note_on_c,9,48,127,
2,504,Note_on_c,9,51,127,
2,504,Note_on_c,9,53,127,
2,504,Note_on_c,9,80,127,
2,504,Note_on_c,9,81,127,
2,504,Note_on_c,9,82,127,
2,505,Note_off_c,9,36,0,
2,506,Note_on_c,9,36,127,
2,506,Note_on_c,9,37,127,
2,506,Note_on_c,9,38,127,
2,506,Note_on_c,9,39,127,
2,506,Note_on_c,9,41,127,
2,506,Note_on_c,9,42,127,
2,506,Note_on_c,9,43,127,
2,506,Note_on_c,9,45,127,
2,506,Note_on_c,9,48,127,
2,506,Note_on_c,9,51,127,
2,506,Note_on_c,9,53,127,
2,506,Note_on_c,9,80,127,
2,506,Note_on_c,9,81,127,
2,506,Note_on_c,9,82,127,
2,507,Note_off_c,9,36,0,
2,508,Note_on_c,9,36,127,
2,508,Note_on_c,9,37,127,
2,508,Note_on_c,9,38,127,
2,508,Note_on_c,9,39,127,
2,508,Note_on_c,9,41,127,
2,508,Note_on_c,9,42,127,
2,508,Note_on_c,9,43,127,
2,508,Note_on_c,9,45,127,
2,508,Note_on_c,9,48,127,
2,508,Note_on_c,9,51,127,
2,508,Note_on_c,9,53,127,
2,508,Note_on_c,9,80,127,
2,508,Note_on_c,9,81,127,
2,508,Note_on_c,9,82,127,
2,509,Note_off_c,9,36,0,
2,510,Note_on_c,9,36,127,
2,510,Note_on_c,9,37,127,
2,510,Note_on_c,9,38,127,
2,510,Note_on_c,9,39,127,
2,510,Note_on_c,9,41,127,
2,510,Note_on_c,9,42,127,
2,510,Note_on_c,9,43,127,
2,510,Note_on_c,9,45,127,
2,510,Note_on_c,9,48,127,
2,510,Note_on_c,9,51,127,
2,510,Note_on_c,9,53,127,
2,510,Note_on_c,9,80,127,
2,510,Note_on_c,9,81,127,
2,510,Note_on_c,9,82,127,
2,511,Note_off_c,9,36,0,
2,512,Note_on_c,9,36,127,
2,512,Note_on_c,9,37,127,
2,512,Note_on_c,9,38,127,
2,512,Note_on_c,9,39,127,
2,512,Note_on_c,9,41,127,
2,512,Note_on_c,9,42,127,
2,512,Note_on_c,9,43,127,
2,512,Note_on_c,9,45,127,
2,512,Note_on_c,9,48,127,
2,512,Note_on_c,9,51,127,
2,512,Note_on_c,9,53,127,
2,512,Note_on_c,9,80,127,
2,512,Note_on_c,9,81,127,
2,512,Note_on_c,9,82,127,
2,513,Note_off_c,9,36,0,
2,514,Note_on_c,9,36,127,
2,514,Note_on_c,9,37,127,
2,514,Note_on_c,9,38,127,
2,514,Note_on_c,9,39,127,
2,514,Note_on_c,9,41,127,
2,514,Note_on_c,9,42,127,
2,514,Note_on_c,9,43,127,
2,514,Note_on_c,9,45,127,
2,514,Note_on_c,9,48,127,
2,514,Note_on_c,9,51,127,
2,514,Note_on_c,9,53,127,
2,514,Note_on_c,9,80,127,
2,514,Note_on_c,9,81,127,
2,514,Note_on_c,9,82,127,
2,515,Note_off_c,9,36,0,
2,516,Note_on_c,9,36,127,
2,516,Note_on_c,9,37,127,
2,516,Note_on_c,9,38,127,
2,516,Note_on_c,9,39,127,
2,516,Note_on_c,9,41,127,
2,516,Note_on_c,9,42,127,
2,516,Note_on_c,9,43,127,
2,516,Note_on_c,9,45,127,
2,516,Note_on_c,9,48,127,
2,516,Note_on_c,9,51,127,
2,516,Note_on_c,9,53,127,
2,516,Note_on_c,9,80,127,
2,516,Note_on_c,9,81,127,
2,516,Note_on_c,9,82,127,
2,517,Note_off_c,9,36,0,
2,518,Note_on_c,9,36,127,
2,518,Note_on_c,9,37,127,
2,518,Note_on_c,9,38,127,
2,518,Note_on_c,9,39,127,
2,518,Note_on_c,9,41,127,
2,518,Note_on_c,9,42,127,
2,518,Note_on_c,9,43,127,
2,518,Note_on_c,9,45,127,
2,518,Note_on_c,9,48,127,
2,518,Note_on_c,9,51,127,
2,518,Note_on_c,9,53,127,
2,518,Note_on_c,9,80,127,
2,518,Note_on_c,9,81,127,
2,518,Note_on_c,9,82,127,
2,519,Note_off_c,9,36,0,
2,520,Note_on_c,9,36,127,
2,520,Note_on_c,9,37,127,
2,520,Note_on_c,9,38,127,
2,520,Note_on_c,9,39,127,
2,520,Note_on_c,9,41,127,
2,520,Note_on_c,9,42,127,
2,520,Note_on_c,9,43,127,
2,520,Note_on_c,9,45,127,
2,520,Note_on_c,9,48,127,
2,520,Note_on_c,9,51,127,
2,520,Note_on_c,9,53,127,
2,520,Note_on_c,9,80,127,
2,520,Note_on_c,9,81,127,
2,520,Note_on_c,9,82,127,
2,521,Note_off_c,9,36,0,
2,522,Note_on_c,9,36,127,
2,522,Note_on_c,9,37,127,
2,522,Note_on_c,9,38,127,
2,522,Note_on_c,9,39,127,
2,522,Note_on_c,9,41,127,
2,522,Note_on_c,9,42,127,
2,522,Note_on_c,9,43,127,
2,522,Note_on_c,9,45,127,
2,522,Note_on_c,9,48,127,
2,522,Note_on_c,9,51,127,
2,522,Note_on_c,9,53,127,
2,522,Note_on_c,9,80,127,
2,522,Note_on_c,9,81,127,
2,522,Note_on_c,9,82,127,
2,523,Note_off_c,9,36,0,
2,524,Note_on_c,9,36,127,
2,524,Note_on_c,9,37,127,
2,524,Note_on_c,9,38,127,
2,524,Note_on_c,9,39,127,
2,524,Note_on_c,9,41,127,
2,524,Note_on_c,9,42,127,
2,524,Note_on_c,9,43,127,
2,524,Note_on_c,9,45,127,
2,524,Note_on_c,9,48,127,
2,524,Note_on_c,9,51,127,
2,524,Note_on_c,9,53,127,
2,524,Note_on_c,9,80,127,
2,524,Note_on_c,9,81,127,
2,524,Note_on_c,9,82,127,
2,525,Note_off_c,9,36,0,
2,526,Note_on_c,9,36,127,
2,526,Note_on_c,9,37,127,
2,526,Note_on_c,9,38,127,
2,526,Note_on_c,9,39,127,
2,526,Note_on_c,9,41,127,
2,526,Note_on_c,9,42,127,
2,526,Note_on_c,9,43,127,
2,526,Note_on_c,9,45,127,
2,526,Note_on_c,9,48,127,
2,526,Note_on_c,9,51,127,
2,526,Note_on_c,9,53,127,
2,526,Note_on_c,9,80,127,
2,526,Note_on_c,9,81,127,
2,526,Note_on_c,9,82,127,
2,527,Note_off_c,9,36,0,
2,528,Note_on_c,9,36,127,
2,528,Note_on_c,9,37,127,
2,528,Note_on_c,9,38,127,
2,528,Note_on_c,9,39,127,
2,528,Note_on_c,9,41,127,
2,528,Note_on_c,9,42,127,
2,528,Note_on_c,9,43,127,
2,528,Note_on_c,9,45,127,
2,528,Note_on_c,9,48,127,
2,528,Note_on_c,9,51,127,
2,528,Note_on_c,9,53,127,
2,528,Note_on_c,9,80,127,
2,528,Note_on_c,9,81,127,
2,528,Note_on_c,9,82,127,
2,529,Note_off_c,9,36,0,
2,530,Note_on_c,9,36,127,
2,530,Note_on_c,9,37,127,
2,530,Note_on_c,9,38,127,
2,530,Note_on_c,9,39,127,
2,530,Note_on_c,9,41,127,
2,530,Note_on_c,9,42,127,
2,530,Note_on_c,9,43,127,
2,530,Note_on_c,9,45,127,
2,530,Note_on_c,9,48,127,
2,530,Note_on_c,9,51,127,
2,530,Note_on_c,9,53,127,
2,530,Note_on_c,9,80,127,
2,530,Note_on_c,9,81,127,
2,530,Note_on_c,9,82,127,
2,531,Note_off_c,9,36,0,
2,532,Note_on_c,9,36,127,
2,532,Note_on_c,9,37,127,
2,532,Note_on_c,9,38,127,
2,532,Note_on_c,9,39,127,
2,532,Note_on_c,9,41,127,
2,532,Note_on_c,9,42,127,
2,532,Note_on_c,9,43,127,
2,532,Note_on_c,9,45,127,
2,532,Note_on_c,9,48,127,
2,532,Note_on_c,9,51,127,
2,532,Note_on_c,9,53,127,
2,532,Note_on_c,9,80,127,
2,532,Note_on_c,9,81,127,
2,532,Note_on_c,9,82,127,
2,533,Note_off_c,9,36,0,
2,534,Note_on_c,9,36,127,
2,534,Note_on_c,9,37,127,
2,534,Note_on_c,9,38,127,
2,534,Note_on_c,9,39,127,
2,534,Note_on_c,9,41,127,
2,534,Note_on_c,9,42,127,
2,534,Note_on_c,9,43,127,
2,534,Note_on_c,9,45,127,
2,534,Note_on_c,9,48,127,
2,534,Note_on_c,9,51,127,
2,534,Note_on_c,9,53,127,
2,534,Note_on_c,9,80,127,
2,534,Note_on_c,9,81,127,
2,534,Note_on_c,9,82,127,
2,535,Note_off_c,9,36,0,
2,536,Note_on_c,9,36,127,
2,536,Note_on_c,9,37,127,
2,536,Note_on_c,9,38,127,
2,536,Note_on_c,9,39,127,
2,536,Note_on_c,9,41,127,
2,536,Note_on_c,9,42,127,
2,536,Note_on_c,9,43,127,
2,536,Note_on_c,9,45,127,
2,536,Note_on_c,9,48,127,
2,536,Note_on_c,9,51,127,
2,536,Note_on_c,9,53,127,
2,536,Note_on_c,9,80,127,
2,536,Note_on_c,9,81,127,
2,536,Note_on_c,9,82,127,
2,537,Note_off_c,9,36,0,
2,538,Note_on_c,9,36,127,
2,538,Note_on_c,9,37,127,
2,538,Note_on_c,9,38,127,
2,538,Note_on_c,9,39,127,
2,538,Note_on_c,9,41,127,
2,538,Note_on_c,9,42,127,
2,538,Note_on_c,9,43,127,
2,538,Note_on_c,9,45,127,
2,538,Note_on_c,9,48,127,
2,538,Note_on_c,9,51,127,
2,538,Note_on_c,9,53,127,
2,538,Note_on_c,9,80,127,
2,538,Note_on_c,9,81,127,
2,538,Note_on_c,9,82,127,
2,539,Note_off_c,9,36,0,
2,540,Note_on_c,9,36,127,
2,540,Note_on_c,9,37,127,
2,540,Note_on_c,9,38,127,
2,540,Note_on_c,9,39,127,
2,540,Note_on_c,9,41,127,
2,540,Note_on_c,9,42,127,
2,540,Note_on_c,9,43,127,
2,540,Note_on_c,9,45,127,
2,540,Note_on_c,9,48,127,
2,540,Note_on_c,9,51,127,
2,540,Note_on_c,9,53,127,
2,540,Note_on_c,9,80,127,
2,540,Note_on_c,9,81,127,
2,540,Note_on_c,9,82,127,
2,541,Note_off_c,9,36,0,
2,542,Note_on_c,9,36,127,
2,542,Note_on_c,9,37,127,
2,542,Note_on_c,9,38,127,
2,542,Note_on_c,9,39,127,
2,542,Note_on_c,9,41,127,
2,542,Note_on_c,9,42,127,
2,542,Note_on_c,9,43,127,
2,542,Note_on_c,9,45,127,
2,542,Note_on_c,9,48,127,
2,542,Note_on_c,9,51,127,
2,542,Note_on_c,9,53,127,
2,542,Note_on_c,9,80,127,
2,542,Note_on_c,9,81,127,
2,542,Note_on_c,9,82,127,
2,543,Note_off_c,9,36,0,
2,544,Note_on_c,9,36,127,
2,544,Note_on_c,9,37,127,
2,544,Note_on_c,9,38,127,
2,544,Note_on_c,9,39,127,
2,544,Note_on_c,9,41,127,
2,544,Note_on_c,9,42,127,
2,544,Note_on_c,9,43,127,
2,544,Note_on_c,9,45,127,
2,544,Note_on_c,9,48,127,
2,544,Note_on_c,9,51,127,
2,544,Note_on_c,9,53,127,
2,544,Note_on_c,9,80,127,
2,544,Note_on_c,9,81,127,
2,544,Note_on_c,9,82,127,
2,545,Note_off_c,9,36,0,
2,546,Note_on_c,9,36,127,
2,546,Note_on_c,9,37,127,
2,546,Note_on_c,9,38,127,
2,546,Note_on_c,9,39,127,
2,546,Note_on_c,9,41,127,
2,546,Note_on_c,9,42,127,
2,546,Note_on_c,9,43,127,
2,546,Note_on_c,9,45,127,
2,546,Note_on_c,9,48,127,
2,546,Note_on_c,9,51,127,
2,546,Note_on_c,9,53,127,
2,546,Note_on_c,9,80,127,
2,546,Note_on_c,9,81,127,
2,546,Note_on_c,9,82,127,
2,547,Note_off_c,9,36,0,
2,548,Note_on_c,9,36,127,
2,548,Note_on_c,9,37,127,
2,548,Note_on_c,9,38,127,
2,548,Note_on_c,9,39,127,
2,548,Note_on_c,9,41,127,
2,548,Note_on_c,9,42,127,
2,548,Note_on_c,9,43,127,
2,548,Note_on_c,9,45,127,
2,548,Note_on_c,9,48,127,
2,548,Note_on_c,9,51,127,
2,548,Note_on_c,9,53,127,
2,548,Note_on_c,9,80,127,
2,548,Note_on_c,9,81,127,
2,548,Note_on_c,9,82,127,
2,549,Note_off_c,9,36,0,
2,550,Note_on_c,9,36,127,
2,550,Note_on_c,9,37,127,
2,550,Note_on_c,9,38,127,
2,550,Note_on_c,9,39,127,
2,550,Note_on_c,9,41,127,
2,550,Note_on_c,9,42,127,
2,550,Note_on_c,9,43,127,
2,550,Note_on_c,9,45,127,
2,550,Note_on_c,9,48,127,
2,550,Note_on_c,9,51,127,
2,550,Note_on_c,9,53,127,
2,550,Note_on_c,9,80,127,
2,550,Note_on_c,9,81,127,
2,550,Note_on_c,9,82,127,
2,551,Note_off_c,9,36,0,
2,552,Note_on_c,9,36,127,
2,552,Note_on_c,9,37,127,
2,552,Note_on_c,9,38,127,
2,552,Note_on_c,9,39,127,
2,552,Note_on_c,9,41,127,
2,552,Note_on_c,9,42,127,
2,552,Note_on_c,9,43,127,
2,552,Note_on_c,9,45,127,
2,552,Note_on_c,9,48,127,
2,552,Note_on_c,9,51,127,
2,552,Note_on_c,9,53,127,
2,552,Note_on_c,9,80,127,
2,552,Note_on_c,9,81,127,
2,552,Note_on_c,9,82,127,
2,553,Note_off_c,9,36,0,
2,554,Note_on_c,9,36,127,
2,554,Note_on_c,9,37,127,
2,554,Note_on_c,9,38,127,
2,554,Note_on_c,9,39,127,
2,554,Note_on_c,9,41,127,
2,554,Note_on_c,9,42,127,
2,554,Note_on_c,9,43,127,
2,554,Note_on_c,9,45,127,
2,554,Note_on_c,9,48,127,
2,554,Note_on_c,9,51,127,
2,554,Note_on_c,9,53,127,
2,554,Note_on_c,9,80,127,
2,554,Note_on_c,9,81,127,
2,554,Note_on_c,9,82,127,
2,555,Note_off_c,9,36,0,
2,556,Note_on_c,9,36,127,
2,556,Note_on_c,9,37,127,
2,556,Note_on_c,9,38,127,
2,556,Note_on_c,9,39,127,
2,556,Note_on_c,9,41,127,
2,556,Note_on_c,9,42,127,
2,556,Note_on_c,9,43,127,
2,556,Note_on_c,9,45,127,
2,556,Note_on_c,9,48,127,
2,556,Note_on_c,9,51,127,
2,556,Note_on_c,9,53,127,
2,556,Note_on_c,9,80,127,
2,556,Note_on_c,9,81,127,
2,556,Note_on_c,9,82,127,
2,557,Note_off_c,9,36,0,
2,558,Note_on_c,9,36,127,
2,558,Note_on_c,9,37,127,
2,558,Note_on_c,9,38,127,
2,558,Note_on_c,9,39,127,
2,558,Note_on_c,9,41,127,
2,558,Note_on_c,9,42,127,
2,558,Note_on_c,9,43,127,
2,558,Note_on_c,9,45,127,
2,558,Note_on_c,9,48,127,
2,558,Note_on_c,9,51,127,
2,558,Note_on_c,9,53,127,
2,558,Note_on_c,9,80,127,
2,558,Note_on_c,9,81,127,
2,558,Note_on_c,9,82,127,
2,559,Note_off_c,9,36,0,
2,560,Note_on_c,9,36,127,
2,560,Note_on_c,9,37,127,
2,560,Note_on_c,9,38,127,
2,560,Note_on_c,9,39,127,
2,560,Note_on_c,9,41,127,
2,560,Note_on_c,9,42,127,
2,560,Note_on_c,9,43,127,
2,560,Note_on_c,9,45,127,
2,560,Note_on_c,9,48,127,
2,560,Note_on_c,9,51,127,
2,560,Note_on_c,9,53,127,
2,560,Note_on_c,9,80,127,
2,560,Note_on_c,9,81,127,
2,560,Note_on_c,9,82,127,
2,561,Note_off_c,9,36,0,
2,562,Note_on_c,9,36,127,
2,562,Note_on_c,9,37,127,
2,562,Note_on_c,9,38,127,
2,562,Note_on_c,9,39,127,
2,562,Note_on_c,9,41,127,
2,562,Note_on_c,9,42,127,
2,562,Note_on_c,9,43,127,
2,562,Note_on_c,9,45,127,
2,562,Note_on_c,9,48,127,
2,562,Note_on_c,9,51,127,
2,562,Note_on_c,9,53,127,
2,562,Note_on_c,9,80,127,
2,562,Note_on_c,9,81,127,
2,562,Note_on_c,9,82,127,
2,563,Note_off_c,9,36,0,
2,564,Note_on_c,9,36,127,
2,564,Note_on_c,9,37,127,
2,564,Note_on_c,9,38,127,
2,564,Note_on_c,9,39,127,
2,564,Note_on_c,9,41,127,
2,564,Note_on_c,9,42,127,
2,564,Note_on_c,9,43,127,
2,564,Note_on_c,9,45,127,
2,564,Note_on_c,9,48,127,
2,564,Note_on_c,9,51,127,
2,564,Note_on_c,9,53,127,
2,564,Note_on_c,9,80,127,
2,564,Note_on_c,9,81,127,
2,564,Note_on_c,9,82,127,
2,565,Note_off_c,9,36,0,
2,566,Note_on_c,9,36,127,
2,566,Note_on_c,9,37,127,
2,566,Note_on_c,9,38,127,
2,566,Note_on_c,9,39,127,
2,566,Note_on_c,9,41,127,
2,566,Note_on_c,9,42,127,
2,566,Note_on_c,9,43,127,
2,566,Note_on_c,9,45,127,
2,566,Note_on_c,9,48,127,
2,566,Note_on_c,9,51,127,
2,566,Note_on_c,9,53,127,
2,566,Note_on_c,9,80,127,
2,566,Note_on_c,9,81,127,
2,566,Note_on_c,9,82,127,
2,567,Note_off_c,9,36,0,
2,568,Note_on_c,9,36,127,
2,568,Note_on_c,9,37,127,
2,568,Note_on_c,9,38,127,
2,568,Note_on_c,9,39,127,
2,568,Note_on_c,9,41,127,
2,568,Note_on_c,9,42,127,
2,568,Note_on_c,9,43,127,
2,568,Note_on_c,9,45,127,
2,568,Note_on_c,9,48,127,
2,568,Note_on_c,9,51,127,
2,568,Note_on_c,9,53,127,
2,568,Note_on_c,9,80,127,
2,568,Note_on_c,9,81,127,
2,568,Note_on_c,9,82,127,
2,569,Note_off_c,9,36,0,
2,570,Note_on_c,9,36,127,
2,570,Note_on_c,9,37,127,
2,570,Note_on_c,9,38,127,
2,570,Note_on_c,9,39,127,
2,570,Note_on_c,9,41,127,
2,570,Note_on_c,9,42,127,
2,570,Note_on_c,9,43,127,
2,570,Note_on_c,9,45,127,
2,570,Note_on_c,9,48,127,
2,570,Note_on_c,9,51,127,
2,570,Note_on_c,9,53,127,
2,570,Note_on_c,9,80,127,
2,570,Note_on_c,9,81,127,
2,570,Note_on_c,9,82,127,
2,571,Note_off_c,9,36,0,
2,572,Note_on_c,9,36,127,
2,572,Note_on_c,9,37,127,
2,572,Note_on_c,9,38,127,
2,572,Note_on_c,9,39,127,
2,572,Note_on_c,9,41,127,
2,572,Note_on_c,9,42,127,
2,572,Note_on_c,9,43,127,
2,572,Note_on_c,9,45,127,
2,572,Note_on_c,9,48,127,
2,572,Note_on_c,9,51,127,
2,572,Note_on_c,9,53,127,
2,572,Note_on_c,9,80,127,
2,572,Note_on_c,9,81,127,
2,572,Note_on_c,9,82,127,
2,573,Note_off_c,9,36,0,
2,574,Note_on_c,9,36,127,
2,574,Note_on_c,9,37,127,
2,574,Note_on_c,9,38,127,
2,574,Note_on_c,9,39,127,
2,574,Note_on_c,9,41,127,
2,574,Note_on_c,9,42,127,
2,574,Note_on_c,9,43,127,
2,574,Note_on_c,9,45,127,
2,574,Note_on_c,9,48,127,
2,574,Note_on_c,9,51,127,
2,574,Note_on_c,9,53,127,
2,574,Note_on_c,9,80,127,
2,574,Note_on_c,9,81,127,
2,574,Note_on_c,9,82,127,
2,575,Note_off_c,9,36,0,
2,576,Note_on_c,9,36,127,
2,576,Note_on_c,9,37,127,
2,576,Note_on_c,9,38,127,
2,576,Note_on_c,9,39,127,
2,576,Note_on_c,9,41,127,
2,576,Note_on_c,9,42,127,
2,576,Note_on_c,9,43,127,
2,576,Note_on_c,9,45,127,
2,576,Note_on_c,9,48,127,
2,576,Note_on_c,9,51,127,
2,576,Note_on_c,9,53,127,
2,576,Note_on_c,9,80,127,
2,576,Note_on_c,9,81,127,
2,576,Note_on_c,9,82,127,
2,577,Note_off_c,9,36,0,
2,578,Note_on_c,9,36,127,
2,578,Note_on_c,9,37,127,
2,578,Note_on_c,9,38,127,
2,578,Note_on_c,9,39,127,
2,578,Note_on_c,9,41,127,
2,578,Note_on_c,9,42,127,
2,578,Note_on_c,9,43,127,
2,578,Note_on_c,9,45,127,
2,578,Note_on_c,9,48,127,
2,578,Note_on_c,9,51,127,
2,578,Note_on_c,9,53,127,
2,578,Note_on_c,9,80,127,
2,578,Note_on_c,9,81,127,
2,578,Note_on_c,9,82,127,
2,579,Note_off_c,9,36,0,
2,580,Note_on_c,9,36,127,
2,580,Note_on_c,9,37,127,
2,580,Note_on_c,9,38,127,
2,580,Note_on_c,9,39,127,
2,580,Note_on_c,9,41,127,
2,580,Note_on_c,9,42,127,
2,580,Note_on_c,9,43,127,
2,580,Note_on_c,9,45,127,
2,580,Note_on_c,9,48,127,
2,580,Note_on_c,9,51,127,
2,580,Note_on_c,9,53,127,
2,580,Note_on_c,9,80,127,
2,580,Note_on_c,9,81,127,
2,580,Note_on_c,9,82,127,
2,581,Note_off_c,9,36,0,
2,582,Note_on_c,9,36,127,
2,582,Note_on_c,9,37,127,
2,582,Note_on_c,9,38,127,
2,582,Note_on_c,9,39,127,
2,582,Note_on_c,9,41,127,
2,582,Note_on_c,9,42,127,
2,582,Note_on_c,9,43,127,
2,582,Note_on_c,9,45,127,
2,582,Note_on_c,9,48,127,
2,582,Note_on_c,9,51,127,
2,582,Note_on_c,9,53,127,
2,582,Note_on_c,9,80,127,
2,582,Note_on_c,9,81,127,
2,582,Note_on_c,9,82,127,
2,583,Note_off_c,9,36,0,
2,584,Note_on_c,9,36,127,
2,584,Note_on_c,9,37,127,
2,584,Note_on_c,9,38,127,
2,584,Note_on_c,9,39,127,
2,584,Note_on_c,9,41,127,
2,584,Note_on_c,9,42,127,
2,584,Note_on_c,9,43,127,
2,584,Note_on_c,9,45,127,
2,584,Note_on_c,9,48,127,
2,584,Note_on_c,9,51,127,
2,584,Note_on_c,9,53,127,
2,584,Note_on_c,9,80,127,
2,584,Note_on_c,9,81,127,
2,584,Note_on_c,9,82,127,
2,585,Note_off_c,9,36,0,
2,586,Note_on_c,9,36,127,
2,586,Note_on_c,9,37,127,
2,586,Note_on_c,9,38,127,
2,586,Note_on_c,9,39,127,
2,586,Note_on_c,9,41,127,
2,586,Note_on_c,9,42,127,
2,586,Note_on_c,9,43,127,
2,586,Note_on_c,9,45,127,
2,586,Note_on_c,9,48,127,
2,586,Note_on_c,9,51,127,
2,586,Note_on_c,9,53,127,
2,586,Note_on_c,9,80,127,
2,586,Note_on_c,9,81,127,
2,586,Note_on_c,9,82,127,
2,587,Note_off_c,9,36,0,
2,588,Note_on_c,9,36,127,
2,588,Note_on_c,9,37,127,
2,588,Note_on_c,9,38,127,
2,588,Note_on_c,9,39,127,
2,588,Note_on_c,9,41,127,
2,588,Note_on_c,9,42,127,
2,588,Note_on_c,9,43,127,
2,588,Note_on_c,9,45,127,
2,588,Note_on_c,9,48,127,
2,588,Note_on_c,9,51,127,
2,588,Note_on_c,9,53,127,
2,588,Note_on_c,9,80,127,
2,588,Note_on_c,9,81,127,
2,588,Note_on_c,9,82,127,
2,589,Note_off_c,9,36,0,
2,590,Note_on_c,9,36,127,
2,590,Note_on_c,9,37,127,
2,590,Note_on_c,9,38,127,
2,590,Note_on_c,9,39,127,
2,590,Note_on_c,9,41,127,
2,590,Note_on_c,9,42,127,
2,590,Note_on_c,9,43,127,
2,590,Note_on_c,9,45,127,
2,590,Note_on_c,9,48,127,
2,590,Note_on_c,9,51,127,
2,590,Note_on_c,9,53,127,
2,590,Note_on_c,9,80,127,
2,590,Note_on_c,9,81,127,
2,590,Note_on_c,9,82,127,
2,591,Note_off_c,9,36,0,
2,592,Note_on_c,9,36,127,
2,592,Note_on_c,9,37,127,
2,592,Note_on_c,9,38,127,
2,592,Note_on_c,9,39,127,
2,592,Note_on_c,9,41,127,
2,592,Note_on_c,9,42,127,
2,592,Note_on_c,9,43,127,
2,592,Note_on_c,9,45,127,
2,592,Note_on_c,9,48,127,
2,592,Note_on_c,9,51,127,
2,592,Note_on_c,9,53,127,
2,592,Note_on_c,9,80,127,
2,592,Note_on_c,9,81,127,
2,592,Note_on_c,9,82,127,
2,593,Note_off_c,9,36,0,
2,594,Note_on_c,9,36,127,
2,594,Note_on_c,9,37,127,
2,594,Note_on_c,9,38,127,
2,594,Note_on_c,9,39,127,
2,594,Note_on_c,9,41,127,
2,594,Note_on_c,9,42,127,
2,594,Note_on_c,9,43,127,
2,594,Note_on_c,9,45,127,
2,594,Note_on_c,9,48,127,
2,594,Note_on_c,9,51,127,
2,594,Note_on_c,9,53,127,
2,594,Note_on_c,9,80,127,
2,594,Note_on_c,9,81,127,
2,594,Note_on_c,9,82,127,
2,595,Note_off_c,9,36,0,
2,596,Note_on_c,9,36,127,
2,596,Note_on_c,9,37,127,
2,596,Note_on_c,9,38,127,
2,596,Note_on_c,9,39,127,
2,596,Note_on_c,9,41,127,
2,596,Note_on_c,9,42,127,
2,596,Note_on_c,9,43,127,
2,596,Note_on_c,9,45,127,
2,596,Note_on_c,9,48,127,
2,596,Note_on_c,9,51,127,
2,596,Note_on_c,9,53,127,
2,596,Note_on_c,9,80,127,
2,596,Note_on_c,9,81,127,
2,596,Note_on_c,9,82,127,
2,597,Note_off_c,9,36,0,
2,598,Note_on_c,9,36,127,
2,598,Note_on_c,9,37,127,
2,598,Note_on_c,9,38,127,
2,598,Note_on_c,9,39,127,
2,598,Note_on_c,9,41,127,
2,598,Note_on_c,9,42,127,
2,598,Note_on_c,9,43,127,
2,598,Note_on_c,9,45,127,
2,598,Note_on_c,9,48,127,
2,598,Note_on_c,9,51,127,
2,598,Note_on_c,9,53,127,
2,598,Note_on_c,9,80,127,
2,598,Note_on_c,9,81,127,
2,598,Note_on_c,9,82,127,
2,599,Note_off_c,9,36,0,
2,600,Note_on_c,9,36,127,
2,600,Note_on_c,9,37,127,
2,600,Note_on_c,9,38,127,
2,600,Note_on_c,9,39,127,
2,600,Note_on_c,9,41,127,
2,600,Note_on_c,9,42,127,
2,600,Note_on_c,9,43,127,
2,600,Note_on_c,9,45,127,
2,600,Note_on_c,9,48,127,
2,600,Note_on_c,9,51,127,
2,600,Note_on_c,9,53,127,
2,600,Note_on_c,9,80,127,
2,600,Note_on_c,9,81,127,
2,600,Note_on_c,9,82,127,
2,601,Note_off_c,9,36,0,
2,602,Note_on_c,9,36,127,
2,602,Note_on_c,9,37,127,
2,602,Note_on_c,9,38,127,
2,602,Note_on_c,9,39,127,
2,602,Note_on_c,9,41,127,
2,602,Note_on_c,9,42,127,
2,602,Note_on_c,9,43,127,
2,602,Note_on_c,9,45,127,
2,602,Note_on_c,9,48,127,
2,602,Note_on_c,9,51,127,
2,602,Note_on_c,9,53,127,
2,602,Note_on_c,9,80,127,
2,602,Note_on_c,9,81,127,
2,602,Note_on_c,9,82,127,
2,603,Note_off_c,9,36,0,
2,604,Note_on_c,9,36,127,
2,604,Note_on_c,9,37,127,
2,604,Note_on_c,9,38,127,
2,604,Note_on_c,9,39,127,
2,604,Note_on_c,9,41,127,
2,604,Note_on_c,9,42,127,
2,604,Note_on_c,9,43,127,
2,604,Note_on_c,9,45,127,
2,604,Note_on_c,9,48,127,
2,604,Note_on_c,9,51,127,
2,604,Note_on_c,9,53,127,
2,604,Note_on_c,9,80,127,
2,604,Note_on_c,9,81,127,
2,604,Note_on_c,9,82,127,
2,605,Note_off_c,9,36,0,
2,606,Note_on_c,9,36,127,
2,606,Note_on_c,9,37,127,
2,606,Note_on_c,9,38,127,
2,606,Note_on_c,9,39,127,
2,606,Note_on_c,9,41,127,
2,606,Note_on_c,9,42,127,
2,606,Note_on_c,9,43,127,
2,606,Note_on_c,9,45,127,
2,606,Note_on_c,9,48,127,
2,606,Note_on_c,9,51,127,
2,606,Note_on_c,9,53,127,
2,606,Note_on_c,9,80,127,
2,606,Note_on_c,9,81,127,
2,606,Note_on_c,9,82,127,
2,607,Note_off_c,9,36,0,
2,608,Note_on_c,9,36,127,
2,608,Note_on_c,9,37,127,
2,608,Note_on_c,9,38,127,
2,608,Note_on_c,9,39,127,
2,608,Note_on_c,9,41,127,
2,608,Note_on_c,9,42,127,
2,608,Note_on_c,9,43,127,
2,608,Note_on_c,9,45,127,
2,608,Note_on_c,9,48,127,
2,608,Note_on_c,9,51,127,
2,608,Note_on_c,9,53,127,
2,608,Note_on_c,9,80,127,
2,608,Note_on_c,9,81,127,
2,608,Note_on_c,9,82,127,
2,609,Note_off_c,9,36,0,
2,610,Note_on_c,9,36,127,
2,610,Note_on_c,9,37,127,
2,610,Note_on_c,9,38,127,
2,610,Note_on_c,9,39,127,
2,610,Note_on_c,9,41,127,
2,610,Note_on_c,9,42,127,
2,610,Note_on_c,9,43,127,
2,610,Note_on_c,9,45,127,
2,610,Note_on_c,9,48,127,
2,610,Note_on_c,9,51,127,
2,610,Note_on_c,9,53,127,
2,610,Note_on_c,9,80,127,
2,610,Note_on_c,9,81,127,
2,610,Note_on_c,9,82,127,
2,611,Note_off_c,9,36,0,
2,612,Note_on_c,9,36,127,
2,612,Note_on_c,9,37,127,
2,612,Note_on_c,9,38,127,
2,612,Note_on_c,9,39,127,
2,612,Note_on_c,9,41,127,
2,612,Note_on_c,9,42,127,
2,612,Note_on_c,9,43,127,
2,612,Note_on_c,9,45,127,
2,612,Note_on_c,9,48,127,
2,612,Note_on_c,9,51,127,
2,612,Note_on_c,9,53,127,
2,612,Note_on_c,9,80,127,
2,612,Note_on_c,9,81,127,
2,612,Note_on_c,9,82,127,
2,613,Note_off_c,9,36,0,
2,614,Note_on_c,9,36,127,
2,614,Note_on_c,9,37,127,
2,614,Note_on_c,9,38,127,
2,614,Note_on_c,9,39,127,
2,614,Note_on_c,9,41,127,
2,614,Note_on_c,9,42,127,
2,614,Note_on_c,9,43,127,
2,614,Note_on_c,9,45,127,
2,614,Note_on_c,9,48,127,
2,614,Note_on_c,9,51,127,
2,614,Note_on_c,9,53,127,
2,614,Note_on_c,9,80,127,
2,614,Note_on_c,9,81,127,
2,614,Note_on_c,9,82,127,
2,615,Note_off_c,9,36,0,
2,616,Note_on_c,9,36,127,
2,616,Note_on_c,9,37,127,
2,616,Note_on_c,9,38,127,
2,616,Note_on_c,9,39,127,
2,616,Note_on_c,9,41,127,
2,616,Note_on_c,9,42,127,
2,616,Note_on_c,9,43,127,
2,616,Note_on_c,9,45,127,
2,616,Note_on_c,9,48,127,
2,616,Note_on_c,9,51,127,
2,616,Note_on_c,9,53,127,
2,616,Note_on_c,9,80,127,
2,616,Note_on_c,9,81,127,
2,616,Note_on_c,9,82,127,
2,617,Note_off_c,9,36,0,
2,618,Note_on_c,9,36,127,
2,618,Note_on_c,9,37,127,
2,618,Note_on_c,9,38,127,
2,618,Note_on_c,9,39,127,
2,618,Note_on_c,9,41,127,
2,618,Note_on_c,9,42,127,
2,618,Note_on_c,9,43,127,
2,618,Note_on_c,9,45,127,
2,618,Note_on_c,9,48,127,
2,618,Note_on_c,9,51,127,
2,618,Note_on_c,9,53,127,
2,618,Note_on_c,9,80,127,
2,618,Note_on_c,9,81,127,
2,618,Note_on_c,9,82,127,
2,619,Note_off_c,9,36,0,
2,620,Note_on_c,9,36,127,
2,620,Note_on_c,9,37,127,
2,620,Note_on_c,9,38,127,
2,620,Note_on_c,9,39,127,
2,620,Note_on_c,9,41,127,
2,620,Note_on_c,9,42,127,
2,620,Note_on_c,9,43,127,
2,620,Note_on_c,9,45,127,
2,620,Note_on_c,9,48,127,
2,620,Note_on_c,9,51,127,
2,620,Note_on_c,9,53,127,
2,620,Note_on_c,9,80,127,
2,620,Note_on_c,9,81,127,
2,620,Note_on_c,9,82,127,
2,621,Note_off_c,9,36,0,
2,622,Note_on_c,9,36,127,
2,622,Note_on_c,9,37,127,
2,622,Note_on_c,9,38,127,
2,622,Note_on_c,9,39,127,
2,622,Note_on_c,9,41,127,
2,622,Note_on_c,9,42,127,
2,622,Note_on_c,9,43,127,
2,622,Note_on_c,9,45,127,
2,622,Note_on_c,9,48,127,
2,622,Note_on_c,9,51,127,
2,622,Note_on_c,9,53,127,
2,622,Note_on_c,9,80,127,
2,622,Note_on_c,9,81,127,
2,622,Note_on_c,9,82,127,
2,623,Note_off_c,9,36,0,
2,624,Note_on_c,9,36,127,
2,624,Note_on_c,9,37,127,
2,624,Note_on_c,9,38,127,
2,624,Note_on_c,9,39,127,
2,624,Note_on_c,9,41,127,
2,624,Note_on_c,9,42,127,
2,624,Note_on_c,9,43,127,
2,624,Note_on_c,9,45,127,
2,624,Note_on_c,9,48,127,
2,624,Note_on_c,9,51,127,
2,624,Note_on_c,9,53,127,
2,624,Note_on_c,9,80,127,
2,624,Note_on_c,9,81,127,
2,624,Note_on_c,9,82,127,
2,625,Note_off_c,9,36,0,
2,626,Note_on_c,9,36,127,
2,626,Note_on_c,9,37,127,
2,626,Note_on_c,9,38,127,
2,626,Note_on_c,9,39,127,
2,626,Note_on_c,9,41,127,
2,626,Note_on_c,9,42,127,
2,626,Note_on_c,9,43,127,
2,626,Note_on_c,9,45,127,
2,626,Note_on_c,9,48,127,
2,626,Note_on_c,9,51,127,
2,626,Note_on_c,9,53,127,
2,626,Note_on_c,9,80,127,
2,626,Note_on_c,9,81,127,
2,626,Note_on_c,9,82,127,
2,627,Note_off_c,9,36,0,
2,628,Note_on_c,9,36,127,
2,628,Note_on_c,9,37,127,
2,628,Note_on_c,9,38,127,
2,628,Note_on_c,9,39,127,
2,628,Note_on_c,9,41,127,
2,628,Note_on_c,9,42,127,
2,628,Note_on_c,9,43,127,
2,628,Note_on_c,9,45,127,
2,628,Note_on_c,9,48,127,
2,628,Note_on_c,9,51,127,
2,628,Note_on_c,9,53,127,
2,628,Note_on_c,9,80,127,
2,628,Note_on_c,9,81,127,
2,628,Note_on_c,9,82,127,
2,629,Note_off_c,9,36,0,
2,630,Note_on_c,9,36,127,
2,630,Note_on_c,9,37,127,
2,630,Note_on_c,9,38,127,
2,630,Note_on_c,9,39,127,
2,630,Note_on_c,9,41,127,
2,630,Note_on_c,9,42,127,
2,630,Note_on_c,9,43,127,
2,630,Note_on_c,9,45,127,
2,630,Note_on_c,9,48,127,
2,630,Note_on_c,9,51,127,
2,630,Note_on_c,9,53,127,
2,630,Note_on_c,9,80,127,
2,630,Note_on_c,9,81,127,
2,630,Note_on_c,9,82,127,
2,631,Note_off_c,9,36,0,
2,632,Note_on_c,9,36,127,
2,632,Note_on_c,9,37,127,
2,632,Note_on_c,9,38,127,
2,632,Note_on_c,9,39,127,
2,632,Note_on_c,9,41,127,
2,632,Note_on_c,9,42,127,
2,632,Note_on_c,9,43,127,
2,632,Note_on_c,9,45,127,
2,632,Note_on_c,9,48,127,
2,632,Note_on_c,9,51,127,
2,632,Note_on_c,9,53,127,
2,632,Note_on_c,9,80,127,
2,632,Note_on_c,9,81,127,
2,632,Note_on_c,9,82,127,
2,633,Note_off_c,9,36,0,
2,634,Note_on_c,9,36,127,
2,634,Note_on_c,9,37,127,
2,634,Note_on_c,9,38,127,
2,634,Note_on_c,9,39,127,
2,634,Note_on_c,9,41,127,
2,634,Note_on_c,9,42,127,
2,634,Note_on_c,9,43,127,
2,634,Note_on_c,9,45,127,
2,634,Note_on_c,9,48,127,
2,634,Note_on_c,9,51,127,
2,634,Note_on_c,9,53,127,
2,634,Note_on_c,9,80,127,
2,634,Note_on_c,9,81,127,
2,634,Note_on_c,9,82,127,
2,635,Note_off_c,9,36,0,
2,636,Note_on_c,9,36,127,
2,636,Note_on_c,9,37,127,
2,636,Note_on_c,9,38,127,
2,636,Note_on_c,9,39,127,
2,636,Note_on_c,9,41,127,
2,636,Note_on_c,9,42,127,
2,636,Note_on_c,9,43,127,
2,636,Note_on_c,9,45,127,
2,636,Note_on_c,9,48,127,
2,636,Note_on_c,9,51,127,
2,636,Note_on_c,9,53,127,
2,636,Note_on_c,9,80,127,
2,636,Note_on_c,9,81,127,
2,636,Note_on_c,9,82,127,
2,637,Note_off_c,9,36,0,
2,638,Note_on_c,9,36,127,
2,638,Note_on_c,9,37,127,
2,638,Note_on_c,9,38,127,
2,638,Note_on_c,9,39,127,
2,638,Note_on_c,9,41,127,
2,638,Note_on_c,9,42,127,
2,638,Note_on_c,9,43,127,
2,638,Note_on_c,9,45,127,
2,638,Note_on_c,9,48,127,
2,638,Note_on_c,9,51,127,
2,638,Note_on_c,9,53,127,
2,638,Note_on_c,9,80,127,
2,638,Note_on_c,9,81,127,
2,638,Note_on_c,9,82,127,
2,639,Note_off_c,9,36,0,
2,640,Note_on_c,9,36,127,
2,640,Note_on_c,9,37,127,
2,640,Note_on_c,9,38,127,
2,640,Note_on_c,9,39,127,
2,640,Note_on_c,9,41,127,
2,640,Note_on_c,9,42,127,
2,640,Note_on_c,9,43,127,
2,640,Note_on_c,9,45,127,
2,640,Note_on_c,9,48,127,
2,640,Note_on_c,9,51,127,
2,640,Note_on_c,9,53,127,
2,640,Note_on_c,9,80,127,
2,640,Note_on_c,9,81,127,
2,640,Note_on_c,9,82,127,
2,641,Note_off_c,9,36,0,
2,642,Note_on_c,9,36,127,
2,642,Note_on_c,9,37,127,
2,642,Note_on_c,9,38,127,
2,642,Note_on_c,9,39,127,
2,642,Note_on_c,9,41,127,
2,642,Note_on_c,9,42,127,
2,642,Note_on_c,9,43,127,
2,642,Note_on_c,9,45,127,
2,642,Note_on_c,9,48,127,
2,642,Note_on_c,9,51,127,
2,642,Note_on_c,9,53,127,
2,642,Note_on_c,9,80,127,
2,642,Note_on_c,9,81,127,
2,642,Note_on_c,9,82,127,
2,643,Note_off_c,9,36,0,
2,644,Note_on_c,9,36,127,
2,644,Note_on_c,9,37,127,
2,644,Note_on_c,9,38,127,
2,644,Note_on_c,9,39,127,
2,644,Note_on_c,9,41,127,
2,644,Note_on_c,9,42,127,
2,644,Note_on_c,9,43,127,
2,644,Note_on_c,9,45,127,
2,644,Note_on_c,9,48,127,
2,644,Note_on_c,9,51,127,
2,644,Note_on_c,9,53,127,
2,644,Note_on_c,9,80,127,
2,644,Note_on_c,9,81,127,
2,644,Note_on_c,9,82,127,
2,645,Note_off_c,9,36,0,
2,646,Note_on_c,9,36,127,
2,646,Note_on_c,9,37,127,
2,646,Note_on_c,9,38,127,
2,646,Note_on_c,9,39,127,
2,646,Note_on_c,9,41,127,
2,646,Note_on_c,9,42,127,
2,646,Note_on_c,9,43,127,
2,646,Note_on_c,9,45,127,
2,646,Note_on_c,9,48,127,
2,646,Note_on_c,9,51,127,
2,646,Note_on_c,9,53,127,
2,646,Note_on_c,9,80,127,
2,646,Note_on_c,9,81,127,
2,646,Note_on_c,9,82,127,
2,647,Note_off_c,9,36,0,
2,648,Note_on_c,9,36,127,
2,648,Note_on_c,9,37,127,
2,648,Note_on_c,9,38,127,
2,648,Note_on_c,9,39,127,
2,648,Note_on_c,9,41,127,
2,648,Note_on_c,9,42,127,
2,648,Note_on_c,9,43,127,
2,648,Note_on_c,9,45,127,
2,648,Note_on_c,9,48,127,
2,648,Note_on_c,9,51,127,
2,648,Note_on_c,9,53,127,
2,648,Note_on_c,9,80,127,
2,648,Note_on_c,9,81,127,
2,648,Note_on_c,9,82,127,
2,649,Note_off_c,9,36,0,
2,650,Note_on_c,9,36,127,
2,650,Note_on_c,9,37,127,
2,650,Note_on_c,9,38,127,
2,650,Note_on_c,9,39,127,
2,650,Note_on_c,9,41,127,
2,650,Note_on_c,9,42,127,
2,650,Note_on_c,9,43,127,
2,650,Note_on_c,9,45,127,
2,650,Note_on_c,9,48,127,
2,650,Note_on_c,9,51,127,
2,650,Note_on_c,9,53,127,
2,650,Note_on_c,9,80,127,
2,650,Note_on_c,9,81,127,
2,650,Note_on_c,9,82,127,
2,651,Note_off_c,9,36,0,
2,652,Note_on_c,9,36,127,
2,652,Note_on_c,9,37,127,
2,652,Note_on_c,9,38,127,
2,652,Note_on_c,9,39,127,
2,652,Note_on_c,9,41,127,
2,652,Note_on_c,9,42,127,
2,652,Note_on_c,9,43,127,
2,652,Note_on_c,9,45,127,
2,652,Note_on_c,9,48,127,
2,652,Note_on_c,9,51,127,
2,652,Note_on_c,9,53,127,
2,652,Note_on_c,9,80,127,
2,652,Note_on_c,9,81,127,
2,652,Note_on_c,9,82,127,
2,653,Note_off_c,9,36,0,
2,654,Note_on_c,9,36,127,
2,654,Note_on_c,9,37,127,
2,654,Note_on_c,9,38,127,
2,654,Note_on_c,9,39,127,
2,654,Note_on_c,9,41,127,
2,654,Note_on_c,9,42,127,
2,654,Note_on_c,9,43,127,
2,654,Note_on_c,9,45,127,
2,654,Note_on_c,9,48,127,
2,654,Note_on_c,9,51,127,
2,654,Note_on_c,9,53,127,
2,654,Note_on_c,9,80,127,
2,654,Note_on_c,9,81,127,
2,654,Note_on_c,9,82,127,
2,655,Note_off_c,9,36,0,
2,656,Note_on_c,9,36,127,
2,656,Note_on_c,9,37,127,
2,656,Note_on_c,9,38,127,
2,656,Note_on_c,9,39,127,
2,656,Note_on_c,9,41,127,
2,656,Note_on_c,9,42,127,
2,656,Note_on_c,9,43,127,
2,656,Note_on_c,9,45,127,
2,656,Note_on_c,9,48,127,
2,656,Note_on_c,9,51,127,
2,656,Note_on_c,9,53,127,
2,656,Note_on_c,9,80,127,
2,656,Note_on_c,9,81,127,
2,656,Note_on_c,9,82,127,
2,657,Note_off_c,9,36,0,
2,658,Note_on_c,9,36,127,
2,658,Note_on_c,9,37,127,
2,658,Note_on_c,9,38,127,
2,658,Note_on_c,9,39,127,
2,658,Note_on_c,9,41,127,
2,658,Note_on_c,9,42,127,
2,658,Note_on_c,9,43,127,
2,658,Note_on_c,9,45,127,
2,658,Note_on_c,9,48,127,
2,658,Note_on_c,9,51,127,
2,658,Note_on_c,9,53,127,
2,658,Note_on_c,9,80,127,
2,658,Note_on_c,9,81,127,
2,658,Note_on_c,9,82,127,
2,659,Note_off_c,9,36,0,
2,660,Note_on_c,9,36,127,
2,660,Note_on_c,9,37,127,
2,660,Note_on_c,9,38,127,
2,660,Note_on_c,9,39,127,
2,660,Note_on_c,9,41,127,
2,660,Note_on_c,9,42,127,
2,660,Note_on_c,9,43,127,
2,660,Note_on_c,9,45,127,
2,660,Note_on_c,9,48,127,
2,660,Note_on_c,9,51,127,
2,660,Note_on_c,9,53,127,
2,660,Note_on_c,9,80,127,
2,660,Note_on_c,9,81,127,
2,660,Note_on_c,9,82,127,
2,661,Note_off_c,9,36,0,
2,662,Note_on_c,9,36,127,
2,662,Note_on_c,9,37,127,
2,662,Note_on_c,9,38,127,
2,662,Note_on_c,9,39,127,
2,662,Note_on_c,9,41,127,
2,662,Note_on_c,9,42,127,
2,662,Note_on_c,9,43,127,
2,662,Note_on_c,9,45,127,
2,662,Note_on_c,9,48,127,
2,662,Note_on_c,9,51,127,
2,662,Note_on_c,9,53,127,
2,662,Note_on_c,9,80,127,
2,662,Note_on_c,9,81,127,
2,662,Note_on_c,9,82,127,
2,663,Note_off_c,9,36,0,
2,664,Note_on_c,9,36,127,
2,664,Note_on_c,9,37,127,
2,664,Note_on_c,9,38,127,
2,664,Note_on_c,9,39,127,
2,664,Note_on_c,9,41,127,
2,664,Note_on_c,9,42,127,
2,664,Note_on_c,9,43,127,
2,664,Note_on_c,9,45,127,
2,664,Note_on_c,9,48,127,
2,664,Note_on_c,9,51,127,
2,664,Note_on_c,9,53,127,
2,664,Note_on_c,9,80,127,
2,664,Note_on_c,9,81,127,
2,664,Note_on_c,9,82,127,
2,665,Note_off_c,9,36,0,
2,666,Note_on_c,9,36,127,
2,666,Note_on_c,9,37,127,
2,666,Note_on_c,9,38,127,
2,666,Note_on_c,9,39,127,
2,666,Note_on_c,9,41,127,
2,666,Note_on_c,9,42,127,
2,666,Note_on_c,9,43,127,
2,666,Note_on_c,9,45,127,
2,666,Note_on_c,9,48,127,
2,666,Note_on_c,9,51,127,
2,666,Note_on_c,9,53,127,
2,666,Note_on_c,9,80,127,
2,666,Note_on_c,9,81,127,
2,666,Note_on_c,9,82,127,
2,667,Note_off_c,9,36,0,
2,668,Note_on_c,9,36,127,
2,668,Note_on_c,9,37,127,
2,668,Note_on_c,9,38,127,
2,668,Note_on_c,9,39,127,
2,668,Note_on_c,9,41,127,
2,668,Note_on_c,9,42,127,
2,668,Note_on_c,9,43,127,
2,668,Note_on_c,9,45,127,
2,668,Note_on_c,9,48,127,
2,668,Note_on_c,9,51,127,
2,668,Note_on_c,9,53,127,
2,668,Note_on_c,9,80,127,
2,668,Note_on_c,9,81,127,
2,668,Note_on_c,9,82,127,
2,669,Note_off_c,9,36,0,
2,670,Note_on_c,9,36,127,
2,670,Note_on_c,9,37,127,
2,670,Note_on_c,9,38,127,
2,670,Note_on_c,9,39,127,
2,670,Note_on_c,9,41,127,
2,670,Note_on_c,9,42,127,
2,670,Note_on_c,9,43,127,
2,670,Note_on_c,9,45,127,
2,670,Note_on_c,9,48,127,
2,670,Note_on_c,9,51,127,
2,670,Note_on_c,9,53,127,
2,670,Note_on_c,9,80,127,
2,670,Note_on_c,9,81,127,
2,670,Note_on_c,9,82,127,
2,671,Note_off_c,9,36,0,
2,672,Note_on_c,9,36,127,
2,672,Note_on_c,9,37,127,
2,672,Note_on_c,9,38,127,
2,672,Note_on_c,9,39,127,
2,672,Note_on_c,9,41,127,
2,672,Note_on_c,9,42,127,
2,672,Note_on_c,9,43,127,
2,672,Note_on_c,9,45,127,
2,672,Note_on_c,9,48,127,
2,672,Note_on_c,9,51,127,
2,672,Note_on_c,9,53,127,
2,672,Note_on_c,9,80,127,
2,672,Note_on_c,9,81,127,
2,672,Note_on_c,9,82,127,
2,673,Note_off_c,9,36,0,
2,674,Note_on_c,9,36,127,
2,674,Note_on_c,9,37,127,
2,674,Note_on_c,9,38,127,
2,674,Note_on_c,9,39,127,
2,674,Note_on_c,9,41,127,
2,674,Note_on_c,9,42,127,
2,674,Note_on_c,9,43,127,
2,674,Note_on_c,9,45,127,
2,674,Note_on_c,9,48,127,
2,674,Note_on_c,9,51,127,
2,674,Note_on_c,9,53,127,
2,674,Note_on_c,9,80,127,
2,674,Note_on_c,9,81,127,
2,674,Note_on_c,9,82,127,
2,675,Note_off_c,9,36,0,
2,676,Note_on_c,9,36,127,
2,676,Note_on_c,9,37,127,
2,676,Note_on_c,9,38,127,
2,676,Note_on_c,9,39,127,
2,676,Note_on_c,9,41,127,
2,676,Note_on_c,9,42,127,
2,676,Note_on_c,9,43,127,
2,676,Note_on_c,9,45,127,
2,676,Note_on_c,9,48,127,
2,676,Note_on_c,9,51,127,
2,676,Note_on_c,9,53,127,
2,676,Note_on_c,9,80,127,
2,676,Note_on_c,9,81,127,
2,676,Note_on_c,9,82,127,
2,677,Note_off_c,9,36,0,
2,678,Note_on_c,9,36,127,
2,678,Note_on_c,9,37,127,
2,678,Note_on_c,9,38,127,
2,678,Note_on_c,9,39,127,
2,678,Note_on_c,9,41,127,
2,678,Note_on_c,9,42,127,
2,678,Note_on_c,9,43,127,
2,678,Note_on_c,9,45,127,
2,678,Note_on_c,9,48,127,
2,678,Note_on_c,9,51,127,
2,678,Note_on_c,9,53,127,
2,678,Note_on_c,9,80,127,
2,678,Note_on_c,9,81,127,
2,678,Note_on_c,9,82,127,
2,679,Note_off_c,9,36,0,
2,680,Note_on_c,9,36,127,
2,680,Note_on_c,9,37,127,
2,680,Note_on_c,9,38,127,
2,680,Note_on_c,9,39,127,
2,680,Note_on_c,9,41,127,
2,680,Note_on_c,9,42,127,
2,680,Note_on_c,9,43,127,
2,680,Note_on_c,9,45,127,
2,680,Note_on_c,9,48,127,
2,680,Note_on_c,9,51,127,
2,680,Note_on_c,9,53,127,
2,680,Note_on_c,9,80,127,
2,680,Note_on_c,9,81,127,
2,680,Note_on_c,9,82,127,
2,681,Note_off_c,9,36,0,
2,682,Note_on_c,9,36,127,
2,682,Note_on_c,9,37,127,
2,682,Note_on_c,9,38,127,
2,682,Note_on_c,9,39,127,
2,682,Note_on_c,9,41,127,
2,682,Note_on_c,9,42,127,
2,682,Note_on_c,9,43,127,
2,682,Note_on_c,9,45,127,
2,682,Note_on_c,9,48,127,
2,682,Note_on_c,9,51,127,
2,682,Note_on_c,9,53,127,
2,682,Note_on_c,9,80,127,
2,682,Note_on_c,9,81,127,
2,682,Note_on_c,9,82,127,
2,683,Note_off_c,9,36,0,
2,684,Note_on_c,9,36,127,
2,684,Note_on_c,9,37,127,
2,684,Note_on_c,9,38,127,
2,684,Note_on_c,9,39,127,
2,684,Note_on_c,9,41,127,
2,684,Note_on_c,9,42,127,
2,684,Note_on_c,9,43,127,
2,684,Note_on_c,9,45,127,
2,684,Note_on_c,9,48,127,
2,684,Note_on_c,9,51,127,
2,684,Note_on_c,9,53,127,
2,684,Note_on_c,9,80,127,
2,684,Note_on_c,9,81,127,
2,684,Note_on_c,9,82,127,
2,685,Note_off_c,9,36,0,
2,686,Note_on_c,9,36,127,
2,686,Note_on_c,9,37,127,
2,686,Note_on_c,9,38,127,
2,686,Note_on_c,9,39,127,
2,686,Note_on_c,9,41,127,
2,686,Note_on_c,9,42,127,
2,686,Note_on_c,9,43,127,
2,686,Note_on_c,9,45,127,
2,686,Note_on_c,9,48,127,
2,686,Note_on_c,9,51,127,
2,686,Note_on_c,9,53,127,
2,686,Note_on_c,9,80,127,
2,686,Note_on_c,9,81,127,
2,686,Note_on_c,9,82,127,
2,687,Note_off_c,9,36,0,
2,688,Note_on_c,9,36,127,
2,688,Note_on_c,9,37,127,
2,688,Note_on_c,9,38,127,
2,688,Note_on_c,9,39,127,
2,688,Note_on_c,9,41,127,
2,688,Note_on_c,9,42,127,
2,688,Note_on_c,9,43,127,
2,688,Note_on_c,9,45,127,
2,688,Note_on_c,9,48,127,
2,688,Note_on_c,9,51,127,
2,688,Note_on_c,9,53,127,
2,688,Note_on_c,9,80,127,
2,688,Note_on_c,9,81,127,
2,688,Note_on_c,9,82,127,
2,689,Note_off_c,9,36,0,
2,690,Note_on_c,9,36,127,
2,690,Note_on_c,9,37,127,
2,690,Note_on_c,9,38,127,
2,690,Note_on_c,9,39,127,
2,690,Note_on_c,9,41,127,
2,690,Note_on_c,9,42,127,
2,690,Note_on_c,9,43,127,
2,690,Note_on_c,9,45,127,
2,690,Note_on_c,9,48,127,
2,690,Note_on_c,9,51,127,
2,690,Note_on_c,9,53,127,
2,690,Note_on_c,9,80,127,
2,690,Note_on_c,9,81,127,
2,690,Note_on_c,9,82,127,
2,691,Note_off_c,9,36,0,
2,692,Note_on_c,9,36,127,
2,692,Note_on_c,9,37,127,
2,692,Note_on_c,9,38,127,
2,692,Note_on_c,9,39,127,
2,692,Note_on_c,9,41,127,
2,692,Note_on_c,9,42,127,
2,692,Note_on_c,9,43,127,
2,692,Note_on_c,9,45,127,
2,692,Note_on_c,9,48,127,
2,692,Note_on_c,9,51,127,
2,692,Note_on_c,9,53,127,
2,692,Note_on_c,9,80,127,
2,692,Note_on_c,9,81,127,
2,692,Note_on_c,9,82,127,
2,693,Note_off_c,9,36,0,
2,694,Note_on_c,9,36,127,
2,694,Note_on_c,9,37,127,
2,694,Note_on_c,9,38,127,
2,694,Note_on_c,9,39,127,
2,694,Note_on_c,9,41,127,
2,694,Note_on_c,9,42,127,
2,694,Note_on_c,9,43,127,
2,694,Note_on_c,9,45,127,
2,694,Note_on_c,9,48,127,
2,694,Note_on_c,9,51,127,
2,694,Note_on_c,9,53,127,
2,694,Note_on_c,9,80,127,
2,694,Note_on_c,9,81,127,
2,694,Note_on_c,9,82,127,
2,695,Note_off_c,9,36,0,
2,696,Note_on_c,9,36,127,
2,696,Note_on_c,9,37,127,
2,696,Note_on_c,9,38,127,
2,696,Note_on_c,9,39,127,
2,696,Note_on_c,9,41,127,
2,696,Note_on_c,9,42,127,
2,696,Note_on_c,9,43,127,
2,696,Note_on_c,9,45,127,
2,696,Note_on_c,9,48,127,
2,696,Note_on_c,9,51,127,
2,696,Note_on_c,9,53,127,
2,696,Note_on_c,9,80,127,
2,696,Note_on_c,9,81,127,
2,696,Note_on_c,9,82,127,
2,697,Note_off_c,9,36,0,
2,698,Note_on_c,9,36,127,
2,698,Note_on_c,9,37,127,
2,698,Note_on_c,9,38,127,
2,698,Note_on_c,9,39,127,
2,698,Note_on_c,9,41,127,
2,698,Note_on_c,9,42,127,
2,698,Note_on_c,9,43,127,
2,698,Note_on_c,9,45,127,
2,698,Note_on_c,9,48,127,
2,698,Note_on_c,9,51,127,
2,698,Note_on_c,9,53,127,
2,698,Note_on_c,9,80,127,
2,698,Note_on_c,9,81,127,
2,698,Note_on_c,9,82,127,
2,699,Note_off_c,9,36,0,
2,700,Note_on_c,9,36,127,
2,700,Note_on_c,9,37,127,
2,700,Note_on_c,9,38,127,
2,700,Note_on_c,9,39,127,
2,700,Note_on_c,9,41,127,
2,700,Note_on_c,9,42,127,
2,700,Note_on_c,9,43,127,
2,700,Note_on_c,9,45,127,
2,700,Note_on_c,9,48,127,
2,700,Note_on_c,9,51,127,
2,700,Note_on_c,9,53,127,
2,700,Note_on_c,9,80,127,
2,700,Note_on_c,9,81,127,
2,700,Note_on_c,9,82,127,
2,701,Note_off_c,9,36,0,
2,702,Note_on_c,9,36,127,
2,702,Note_on_c,9,37,127,
2,702,Note_on_c,9,38,127,
2,702,Note_on_c,9,39,127,
2,702,Note_on_c,9,41,127,
2,702,Note_on_c,9,42,127,
2,702,Note_on_c,9,43,127,
2,702,Note_on_c,9,45,127,
2,702,Note_on_c,9,48,127,
2,702,Note_on_c,9,51,127,
2,702,Note_on_c,9,53,127,
2,702,Note_on_c,9,80,127,
2,702,Note_on_c,9,81,127,
2,702,Note_on_c,9,82,127,
2,703,Note_off_c,9,36,0,
2,704,Note_on_c,9,36,127,
2,704,Note_on_c,9,37,127,
2,704,Note_on_c,9,38,127,
2,704,Note_on_c,9,39,127,
2,704,Note_on_c,9,41,127,
2,704,Note_on_c,9,42,127,
2,704,Note_on_c,9,43,127,
2,704,Note_on_c,9,45,127,
2,704,Note_on_c,9,48,127,
2,704,Note_on_c,9,51,127,
2,704,Note_on_c,9,53,127,
2,704,Note_on_c,9,80,127,
2,704,Note_on_c,9,81,127,
2,704,Note_on_c,9,82,127,
2,705,Note_off_c,9,36,0,
2,706,Note_on_c,9,36,127,
2,706,Note_on_c,9,37,127,
2,706,Note_on_c,9,38,127,
2,706,Note_on_c,9,39,127,
2,706,Note_on_c,9,41,127,
2,706,Note_on_c,9,42,127,
2,706,Note_on_c,9,43,127,
2,706,Note_on_c,9,45,127,
2,706,Note_on_c,9,48,127,
2,706,Note_on_c,9,51,127,
2,706,Note_on_c,9,53,127,
2,706,Note_on_c,9,80,127,
2,706,Note_on_c,9,81,127,
2,706,Note_on_c,9,82,127,
2,707,Note_off_c,9,36,0,
2,708,Note_on_c,9,36,127,
2,708,Note_on_c,9,37,127,
2,708,Note_on_c,9,38,127,
2,708,Note_on_c,9,39,127,
2,708,Note_on_c,9,41,127,
2,708,Note_on_c,9,42,127,
2,708,Note_on_c,9,43,127,
2,708,Note_on_c,9,45,127,
2,708,Note_on_c,9,48,127,
2,708,Note_on_c,9,51,127,
2,708,Note_on_c,9,53,127,
2,708,Note_on_c,9,80,127,
2,708,Note_on_c,9,81,127,
2,708,Note_on_c,9,82,127,
2,709,Note_off_c,9,36,0,
2,710,Note_on_c,9,36,127,
2,710,Note_on_c,9,37,127,
2,710,Note_on_c,9,38,127,
2,710,Note_on_c,9,39,127,
2,710,Note_on_c,9,41,127,
2,710,Note_on_c,9,42,127,
2,710,Note_on_c,9,43,127,
2,710,Note_on_c,9,45,127,
2,710,Note_on_c,9,48,127,
2,710,Note_on_c,9,51,127,
2,710,Note_on_c,9,53,127,
2,710,Note_on_c,9,80,127,
2,710,Note_on_c,9,81,127,
2,710,Note_on_c,9,82,127,
2,711,Note_off_c,9,36,0,
2,712,Note_on_c,9,36,127,
2,712,Note_on_c,9,37,127,
2,712,Note_on_c,9,38,127,
2,712,Note_on_c,9,39,127,
2,712,Note_on_c,9,41,127,
2,712,Note_on_c,9,42,127,
2,712,Note_on_c,9,43,127,
2,712,Note_on_c,9,45,127,
2,712,Note_on_c,9,48,127,
2,712,Note_on_c,9,51,127,
2,712,Note_on_c,9,53,127,
2,712,Note_on_c,9,80,127,
2,712,Note_on_c,9,81,127,
2,712,Note_on_c,9,82,127,
2,713,Note_off_c,9,36,0,
2,714,Note_on_c,9,36,127,
2,714,Note_on_c,9,37,127,
2,714,Note_on_c,9,38,127,
2,714,Note_on_c,9,39,127,
2,714,Note_on_c,9,41,127,
2,714,Note_on_c,9,42,127,
2,714,Note_on_c,9,43,127,
2,714,Note_on_c,9,45,127,
2,714,Note_on_c,9,48,127,
2,714,Note_on_c,9,51,127,
2,714,Note_on_c,9,53,127,
2,714,Note_on_c,9,80,127,
2,714,Note_on_c,9,81,127,
2,714,Note_on_c,9,82,127,
2,715,Note_off_c,9,36,0,
2,716,Note_on_c,9,36,127,
2,716,Note_on_c,9,37,127,
2,716,Note_on_c,9,38,127,
2,716,Note_on_c,9,39,127,
2,716,Note_on_c,9,41,127,
2,716,Note_on_c,9,42,127,
2,716,Note_on_c,9,43,127,
2,716,Note_on_c,9,45,127,
2,716,Note_on_c,9,48,127,
2,716,Note_on_c,9,51,127,
2,716,Note_on_c,9,53,127,
2,716,Note_on_c,9,80,127,
2,716,Note_on_c,9,81,127,
2,716,Note_on_c,9,82,127,
2,717,Note_off_c,9,36,0,
2,718,Note_on_c,9,36,127,
2,718,Note_on_c,9,37,127,
2,718,Note_on_c,9,38,127,
2,718,Note_on_c,9,39,127,
2,718,Note_on_c,9,41,127,
2,718,Note_on_c,9,42,127,
2,718,Note_on_c,9,43,127,
2,718,Note_on_c,9,45,127,
2,718,Note_on_c,9,48,127,
2,718,Note_on_c,9,51,127,
2,718,Note_on_c,9,53,127,
2,718,Note_on_c,9,80,127,
2,718,Note_on_c,9,81,127,
2,718,Note_on_c,9,82,127,
2,719,Note_off_c,9,36,0,
2,720,Note_on_c,9,36,127,
2,720,Note_on_c,9,37,127,
2,720,Note_on_c,9,38,127,
2,720,Note_on_c,9,39,127,
2,720,Note_on_c,9,41,127,
2,720,Note_on_c,9,42,127,
2,720,Note_on_c,9,43,127,
2,720,Note_on_c,9,45,127,
2,720,Note_on_c,9,48,127,
2,720,Note_on_c,9,51,127,
2,720,Note_on_c,9,53,127,
2,720,Note_on_c,9,80,127,
2,720,Note_on_c,9,81,127,
2,720,Note_on_c,9,82,127,
2,721,Note_off_c,9,36,0,
2,722,Note_on_c,9,36,127,
2,722,Note_on_c,9,37,127,
2,722,Note_on_c,9,38,127,
2,722,Note_on_c,9,39,127,
2,722,Note_on_c,9,41,127,
2,722,Note_on_c,9,42,127,
2,722,Note_on_c,9,43,127,
2,722,Note_on_c,9,45,127,
2,722,Note_on_c,9,48,127,
2,722,Note_on_c,9,51,127,
2,722,Note_on_c,9,53,127,
2,722,Note_on_c,9,80,127,
2,722,Note_on_c,9,81,127,
2,722,Note_on_c,9,82,127,
2,723,Note_off_c,9,36,0,
2,724,Note_on_c,9,36,127,
2,724,Note_on_c,9,37,127,
2,724,Note_on_c,9,38,127,
2,724,Note_on_c,9,39,127,
2,724,Note_on_c,9,41,127,
2,724,Note_on_c,9,42,127,
2,724,Note_on_c,9,43,127,
2,724,Note_on_c,9,45,127,
2,724,Note_on_c,9,48,127,
2,724,Note_on_c,9,51,127,
2,724,Note_on_c,9,53,127,
2,724,Note_on_c,9,80,127,
2,724,Note_on_c,9,81,127,
2,724,Note_on_c,9,82,127,
2,725,Note_off_c,9,36,0,
2,726,Note_on_c,9,36,127,
2,726,Note_on_c,9,37,127,
2,726,Note_on_c,9,38,127,
2,726,Note_on_c,9,39,127,
2,726,Note_on_c,9,41,127,
2,726,Note_on_c,9,42,127,
2,726,Note_on_c,9,43,127,
2,726,Note_on_c,9,45,127,
2,726,Note_on_c,9,48,127,
2,726,Note_on_c,9,51,127,
2,726,Note_on_c,9,53,127,
2,726,Note_on_c,9,80,127,
2,726,Note_on_c,9,81,127,
2,726,Note_on_c,9,82,127,
2,727,Note_off_c,9,36,0,
2,728,Note_on_c,9,36,127,
2,728,Note_on_c,9,37,127,
2,728,Note_on_c,9,38,127,
2,728,Note_on_c,9,39,127,
2,728,Note_on_c,9,41,127,
2,728,Note_on_c,9,42,127,
2,728,Note_on_c,9,43,127,
2,728,Note_on_c,9,45,127,
2,728,Note_on_c,9,48,127,
2,728,Note_on_c,9,51,127,
2,728,Note_on_c,9,53,127,
2,728,Note_on_c,9,80,127,
2,728,Note_on_c,9,81,127,
2,728,Note_on_c,9,82,127,
2,729,Note_off_c,9,36,0,
2,730,Note_on_c,9,36,127,
2,730,Note_on_c,9,37,127,
2,730,Note_on_c,9,38,127,
2,730,Note_on_c,9,39,127,
2,730,Note_on_c,9,41,127,
2,730,Note_on_c,9,42,127,
2,730,Note_on_c,9,43,127,
2,730,Note_on_c,9,45,127,
2,730,Note_on_c,9,48,127,
2,730,Note_on_c,9,51,127,
2,730,Note_on_c,9,53,127,
2,730,Note_on_c,9,80,127,
2,730,Note_on_c,9,81,127,
2,730,Note_on_c,9,82,127,
2,731,Note_off_c,9,36,0,
2,732,Note_on_c,9,36,127,
2,732,Note_on_c,9,37,127,
2,732,Note_on_c,9,38,127,
2,732,Note_on_c,9,39,127,
2,732,Note_on_c,9,41,127,
2,732,Note_on_c,9,42,127,
2,732,Note_on_c,9,43,127,
2,732,Note_on_c,9,45,127,
2,732,Note_on_c,9,48,127,
2,732,Note_on_c,9,51,127,
2,732,Note_on_c,9,53,127,
2,732,Note_on_c,9,80,127,
2,732,Note_on_c,9,81,127,
2,732,Note_on_c,9,82,127,
2,733,Note_off_c,9,36,0,
2,734,Note_on_c,9,36,127,
2,734,Note_on_c,9,37,127,
2,734,Note_on_c,9,38,127,
2,734,Note_on_c,9,39,127,
2,734,Note_on_c,9,41,127,
2,734,Note_on_c,9,42,127,
2,734,Note_on_c,9,43,127,
2,734,Note_on_c,9,45,127,
2,734,Note_on_c,9,48,127,
2,734,Note_on_c,9,51,127,
2,734,Note_on_c,9,53,127,
2,734,Note_on_c,9,80,127,
2,734,Note_on_c,9,81,127,
2,734,Note_on_c,9,82,127,
2,735,Note_off_c,9,36,0,
2,736,Note_on_c,9,36,127,
2,736,Note_on_c,9,37,127,
2,736,Note_on_c,9,38,127,
2,736,Note_on_c,9,39,127,
2,736,Note_on_c,9,41,127,
2,736,Note_on_c,9,42,127,
2,736,Note_on_c,9,43,127,
2,736,Note_on_c,9,45,127,
2,736,Note_on_c,9,48,127,
2,736,Note_on_c,9,51,127,
2,736,Note_on_c,9,53,127,
2,736,Note_on_c,9,80,127,
2,736,Note_on_c,9,81,127,
2,736,Note_on_c,9,82,127,
2,737,Note_off_c,9,36,0,
2,738,Note_on_c,9,36,127,
2,738,Note_on_c,9,37,127,
2,738,Note_on_c,9,38,127,
2,738,Note_on_c,9,39,127,
2,738,Note_on_c,9,41,127,
2,738,Note_on_c,9,42,127,
2,738,Note_on_c,9,43,127,
2,738,Note_on_c,9,45,127,
2,738,Note_on_c,9,48,127,
2,738,Note_on_c,9,51,127,
2,738,Note_on_c,9,53,127,
2,738,Note_on_c,9,80,127,
2,738,Note_on_c,9,81,127,
2,738,Note_on_c,9,82,127,
2,739,Note_off_c,9,36,0,
2,740,Note_on_c,9,36,127,
2,740,Note_on_c,9,37,127,
2,740,Note_on_c,9,38,127,
2,740,Note_on_c,9,39,127,
2,740,Note_on_c,9,41,127,
2,740,Note_on_c,9,42,127,
2,740,Note_on_c,9,43,127,
2,740,Note_on_c,9,45,127,
2,740,Note_on_c,9,48,127,
2,740,Note_on_c,9,51,127,
2,740,Note_on_c,9,53,127,
2,740,Note_on_c,9,80,127,
2,740,Note_on_c,9,81,127,
2,740,Note_on_c,9,82,127,
2,741,Note_off_c,9,36,0,
2,742,Note_on_c,9,36,127,
2,742,Note_on_c,9,37,127,
2,742,Note_on_c,9,38,127,
2,742,Note_on_c,9,39,127,
2,742,Note_on_c,9,41,127,
2,742,Note_on_c,9,42,127,
2,742,Note_on_c,9,43,127,
2,742,Note_on_c,9,45,127,
2,742,Note_on_c,9,48,127,
2,742,Note_on_c,9,51,127,
2,742,Note_on_c,9,53,127,
2,742,Note_on_c,9,80,127,
2,742,Note_on_c,9,81,127,
2,742,Note_on_c,9,82,127,
2,743,Note_off_c,9,36,0,
2,744,Note_on_c,9,36,127,
2,744,Note_on_c,9,37,127,
2,744,Note_on_c,9,38,127,
2,744,Note_on_c,9,39,127,
2,744,Note_on_c,9,41,127,
2,744,Note_on_c,9,42,127,
2,744,Note_on_c,9,43,127,
2,744,Note_on_c,9,45,127,
2,744,Note_on_c,9,48,127,
2,744,Note_on_c,9,51,127,
2,744,Note_on_c,9,53,127,
2,744,Note_on_c,9,80,127,
2,744,Note_on_c,9,81,127,
2,744,Note_on_c,9,82,127,
2,745,Note_off_c,9,36,0,
2,746,Note_on_c,9,36,127,
2,746,Note_on_c,9,37,127,
2,746,Note_on_c,9,38,127,
2,746,Note_on_c,9,39,127,
2,746,Note_on_c,9,41,127,
2,746,Note_on_c,9,42,127,
2,746,Note_on_c,9,43,127,
2,746,Note_on_c,9,45,127,
2,746,Note_on_c,9,48,127,
2,746,Note_on_c,9,51,127,
2,746,Note_on_c,9,53,127,
2,746,Note_on_c,9,80,127,
2,746,Note_on_c,9,81,127,
2,746,Note_on_c,9,82,127,
2,747,Note_off_c,9,36,0,
2,748,Note_on_c,9,36,127,
2,748,Note_on_c,9,37,127,
2,748,Note_on_c,9,38,127,
2,748,Note_on_c,9,39,127,
2,748,Note_on_c,9,41,127,
2,748,Note_on_c,9,42,127,
2,748,Note_on_c,9,43,127,
2,748,Note_on_c,9,45,127,
2,748,Note_on_c,9,48,127,
2,748,Note_on_c,9,51,127,
2,748,Note_on_c,9,53,127,
2,748,Note_on_c,9,80,127,
2,748,Note_on_c,9,81,127,
2,748,Note_on_c,9,82,127,
2,749,Note_off_c,9,36,0,
2,750,Note_on_c,9,36,127,
2,750,Note_on_c,9,37,127,
2,750,Note_on_c,9,38,127,
2,750,Note_on_c,9,39,127,
2,750,Note_on_c,9,41,127,
2,750,Note_on_c,9,42,127,
2,750,Note_on_c,9,43,127,
2,750,Note_on_c,9,45,127,
2,750,Note_on_c,9,48,127,
2,750,Note_on_c,9,51,127,
2,750,Note_on_c,9,53,127,
2,750,Note_on_c,9,80,127,
2,750,Note_on_c,9,81,127,
2,750,Note_on_c,9,82,127,
2,751,Note_off_c,9,36,0,
2,752,Note_on_c,9,36,127,
2,752,Note_on_c,9,37,127,
2,752,Note_on_c,9,38,127,
2,752,Note_on_c,9,39,127,
2,752,Note_on_c,9,41,127,
2,752,Note_on_c,9,42,127,
2,752,Note_on_c,9,43,127,
2,752,Note_on_c,9,45,127,
2,752,Note_on_c,9,48,127,
2,752,Note_on_c,9,51,127,
2,752,Note_on_c,9,53,127,
2,752,Note_on_c,9,80,127,
2,752,Note_on_c,9,81,127,
2,752,Note_on_c,9,82,127,
2,753,Note_off_c,9,36,0,
2,754,Note_on_c,9,36,127,
2,754,Note_on_c,9,37,127,
2,754,Note_on_c,9,38,127,
2,754,Note_on_c,9,39,127,
2,754,Note_on_c,9,41,127,
2,754,Note_on_c,9,42,127,
2,754,Note_on_c,9,43,127,
2,754,Note_on_c,9,45,127,
2,754,Note_on_c,9,48,127,
2,754,Note_on_c,9,51,127,
2,754,Note_on_c,9,53,127,
2,754,Note_on_c,9,80,127,
2,754,Note_on_c,9,81,127,
2,754,Note_on_c,9,82,127,
2,755,Note_off_c,9,36,0,
2,756,Note_on_c,9,36,127,
2,756,Note_on_c,9,37,127,
2,756,Note_on_c,9,38,127,
2,756,Note_on_c,9,39,127,
2,756,Note_on_c,9,41,127,
2,756,Note_on_c,9,42,127,
2,756,Note_on_c,9,43,127,
2,756,Note_on_c,9,45,127,
2,756,Note_on_c,9,48,127,
2,756,Note_on_c,9,51,127,
2,756,Note_on_c,9,53,127,
2,756,Note_on_c,9,80,127,
2,756,Note_on_c,9,81,127,
2,756,Note_on_c,9,82,127,
2,757,Note_off_c,9,36,0,
2,758,Note_on_c,9,36,127,
2,758,Note_on_c,9,37,127,
2,758,Note_on_c,9,38,127,
2,758,Note_on_c,9,39,127,
2,758,Note_on_c,9,41,127,
2,758,Note_on_c,9,42,127,
2,758,Note_on_c,9,43,127,
2,758,Note_on_c,9,45,127,
2,758,Note_on_c,9,48,127,
2,758,Note_on_c,9,51,127,
2,758,Note_on_c,9,53,127,
2,758,Note_on_c,9,80,127,
2,758,Note_on_c,9,81,127,
2,758,Note_on_c,9,82,127,
2,759,Note_off_c,9,36,0,
2,760,Note_on_c,9,36,127,
2,760,Note_on_c,9,37,127,
2,760,Note_on_c,9,38,127,
2,760,Note_on_c,9,39,127,
2,760,Note_on_c,9,41,127,
2,760,Note_on_c,9,42,127,
2,760,Note_on_c,9,43,127,
2,760,Note_on_c,9,45,127,
2,760,Note_on_c,9,48,127,
2,760,Note_on_c,9,51,127,
2,760,Note_on_c,9,53,127,
2,760,Note_on_c,9,80,127,
2,760,Note_on_c,9,81,127,
2,760,Note_on_c,9,82,127,
2,761,Note_off_c,9,36,0,
2,762,Note_on_c,9,36,127,
2,762,Note_on_c,9,37,127,
2,762,Note_on_c,9,38,127,
2,762,Note_on_c,9,39,127,
2,762,Note_on_c,9,41,127,
2,762,Note_on_c,9,42,127,
2,762,Note_on_c,9,43,127,
2,762,Note_on_c,9,45,127,
2,762,Note_on_c,9,48,127,
2,762,Note_on_c,9,51,127,
2,762,Note_on_c,9,53,127,
2,762,Note_on_c,9,80,127,
2,762,Note_on_c,9,81,127,
2,762,Note_on_c,9,82,127,
2,763,Note_off_c,9,36,0,
2,764,Note_on_c,9,36,127,
2,764,Note_on_c,9,37,127,
2,764,Note_on_c,9,38,127,
2,764,Note_on_c,9,39,127,
2,764,Note_on_c,9,41,127,
2,764,Note_on_c,9,42,127,
2,764,Note_on_c,9,43,127,
2,764,Note_on_c,9,45,127,
2,764,Note_on_c,9,48,127,
2,764,Note_on_c,9,51,127,
2,764,Note_on_c,9,53,127,
2,764,Note_on_c,9,80,127,
2,764,Note_on_c,9,81,127,
2,764,Note_on_c,9,82,127,
2,765,Note_off_c,9,36,0,
2,766,Note_on_c,9,36,127,
2,766,Note_on_c,9,37,127,
2,766,Note_on_c,9,38,127,
2,766,Note_on_c,9,39,127,
2,766,Note_on_c,9,41,127,
2,766,Note_on_c,9,42,127,
2,766,Note_on_c,9,43,127,
2,766,Note_on_c,9,45,127,
2,766,Note_on_c,9,48,127,
2,766,Note_on_c,9,51,127,
2,766,Note_on_c,9,53,127,
2,766,Note_on_c,9,80,127,
2,766,Note_on_c,9,81,127,
2,766,Note_on_c,9,82,127,
2,767,Note_off_c,9,36,0,
2,768,Note_on_c,9,36,127,
2,768,Note_on_c,9,37,127,
2,768,Note_on_c,9,38,127,
2,768,Note_on_c,9,39,127,
2,768,Note_on_c,9,41,127,
2,768,Note_on_c,9,42,127,
2,768,Note_on_c,9,43,127,
2,768,Note_on_c,9,45,127,
2,768,Note_on_c,9,48,127,
2,768,Note_on_c,9,51,127,
2,768,Note_on_c,9,53,127,
2,768,Note_on_c,9,80,127,
2,768,Note_on_c,9,81,127,
2,768,Note_on_c,9,82,127,
2,769,Note_off_c,9,36,0,
2,770,Note_on_c,9,36,127,
2,770,Note_on_c,9,37,127,
2,770,Note_on_c,9,38,127,
2,770,Note_on_c,9,39,127,
2,770,Note_on_c,9,41,127,
2,770,Note_on_c,9,42,127,
2,770,Note_on_c,9,43,127,
2,770,Note_on_c,9,45,127,
2,770,Note_on_c,9,48,127,
2,770,Note_on_c,9,51,127,
2,770,Note_on_c,9,53,127,
2,770,Note_on_c,9,80,127,
2,770,Note_on_c,9,81,127,
2,770,Note_on_c,9,82,127,
2,771,Note_off_c,9,36,0,
2,772,Note_on_c,9,36,127,
2,772,Note_on_c,9,37,127,
2,772,Note_on_c,9,38,127,
2,772,Note_on_c,9,39,127,
2,772,Note_on_c,9,41,127,
2,772,Note_on_c,9,42,127,
2,772,Note_on_c,9,43,127,
2,772,Note_on_c,9,45,127,
2,772,Note_on_c,9,48,127,
2,772,Note_on_c,9,51,127,
2,772,Note_on_c,9,53,127,
2,772,Note_on_c,9,80,127,
2,772,Note_on_c,9,81,127,
2,772,Note_on_c,9,82,127,
2,773,Note_off_c,9,36,0,
2,774,Note_on_c,9,36,127,
2,774,Note_on_c,9,37,127,
2,774,Note_on_c,9,38,127,
2,774,Note_on_c,9,39,127,
2,774,Note_on_c,9,41,127,
2,774,Note_on_c,9,42,127,
2,774,Note_on_c,9,43,127,
2,774,Note_on_c,9,45,127,
2,774,Note_on_c,9,48,127,
2,774,Note_on_c,9,51,127,
2,774,Note_on_c,9,53,127,
2,774,Note_on_c,9,80,127,
2,774,Note_on_c,9,81,127,
2,774,Note_on_c,9,82,127,
2,775,Note_off_c,9,36,0,
2,776,Note_on_c,9,36,127,
2,776,Note_on_c,9,37,127,
2,776,Note_on_c,9,38,127,
2,776,Note_on_c,9,39,127,
2,776,Note_on_c,9,41,127,
2,776,Note_on_c,9,42,127,
2,776,Note_on_c,9,43,127,
2,776,Note_on_c,9,45,127,
2,776,Note_on_c,9,48,127,
2,776,Note_on_c,9,51,127,
2,776,Note_on_c,9,53,127,
2,776,Note_on_c,9,80,127,
2,776,Note_on_c,9,81,127,
2,776,Note_on_c,9,82,127,
2,777,Note_off_c,9,36,0,
2,778,Note_on_c,9,36,127,
2,778,Note_on_c,9,37,127,
2,778,Note_on_c,9,38,127,
2,778,Note_on_c,9,39,127,
2,778,Note_on_c,9,41,127,
2,778,Note_on_c,9,42,127,
2,778,Note_on_c,9,43,127,
2,778,Note_on_c,9,45,127,
2,778,Note_on_c,9,48,127,
2,778,Note_on_c,9,51,127,
2,778,Note_on_c,9,53,127,
2,778,Note_on_c,9,80,127,
2,778,Note_on_c,9,81,127,
2,778,Note_on_c,9,82,127,
2,779,Note_off_c,9,36,0,
2,780,Note_on_c,9,36,127,
2,780,Note_on_c,9,37,127,
2,780,Note_on_c,9,38,127,
2,780,Note_on_c,9,39,127,
2,780,Note_on_c,9,41,127,
2,780,Note_on_c,9,42,127,
2,780,Note_on_c,9,43,127,
2,780,Note_on_c,9,45,127,
2,780,Note_on_c,9,48,127,
2,780,Note_on_c,9,51,127,
2,780,Note_on_c,9,53,127,
2,780,Note_on_c,9,80,127,
2,780,Note_on_c,9,81,127,
2,780,Note_on_c,9,82,127,
2,781,Note_off_c,9,36,0,
2,782,Note_on_c,9,36,127,
2,782,Note_on_c,9,37,127,
2,782,Note_on_c,9,38,127,
2,782,Note_on_c,9,39,127,
2,782,Note_on_c,9,41,127,
2,782,Note_on_c,9,42,127,
2,782,Note_on_c,9,43,127,
2,782,Note_on_c,9,45,127,
2,782,Note_on_c,9,48,127,
2,782,Note_on_c,9,51,127,
2,782,Note_on_c,9,53,127,
2,782,Note_on_c,9,80,127,
2,782,Note_on_c,9,81,127,
2,782,Note_on_c,9,82,127,
2,783,Note_off_c,9,36,0,
2,784,Note_on_c,9,36,127,
2,784,Note_on_c,9,37,127,
2,784,Note_on_c,9,38,127,
2,784,Note_on_c,9,39,127,
2,784,Note_on_c,9,41,127,
2,784,Note_on_c,9,42,127,
2,784,Note_on_c,9,43,127,
2,784,Note_on_c,9,45,127,
2,784,Note_on_c,9,48,127,
2,784,Note_on_c,9,51,127,
2,784,Note_on_c,9,53,127,
2,784,Note_on_c,9,80,127,
2,784,Note_on_c,9,81,127,
2,784,Note_on_c,9,82,127,
2,785,Note_off_c,9,36,0,
2,786,Note_on_c,9,36,127,
2,786,Note_on_c,9,37,127,
2,786,Note_on_c,9,38,127,
2,786,Note_on_c,9,39,127,
2,786,Note_on_c,9,41,127,
2,786,Note_on_c,9,42,127,
2,786,Note_on_c,9,43,127,
2,786,Note_on_c,9,45,127,
2,786,Note_on_c,9,48,127,
2,786,Note_on_c,9,51,127,
2,786,Note_on_c,9,53,127,
2,786,Note_on_c,9,80,127,
2,786,Note_on_c,9,81,127,
2,786,Note_on_c,9,82,127,
2,787,Note_off_c,9,36,0,
2,788,Note_on_c,9,36,127,
2,788,Note_on_c,9,37,127,
2,788,Note_on_c,9,38,127,
2,788,Note_on_c,9,39,127,
2,788,Note_on_c,9,41,127,
2,788,Note_on_c,9,42,127,
2,788,Note_on_c,9,43,127,
2,788,Note_on_c,9,45,127,
2,788,Note_on_c,9,48,127,
2,788,Note_on_c,9,51,127,
2,788,Note_on_c,9,53,127,
2,788,Note_on_c,9,80,127,
2,788,Note_on_c,9,81,127,
2,788,Note_on_c,9,82,127,
2,789,Note_off_c,9,36,0,
2,790,Note_on_c,9,36,127,
2,790,Note_on_c,9,37,127,
2,790,Note_on_c,9,38,127,
2,790,Note_on_c,9,39,127,
2,790,Note_on_c,9,41,127,
2,790,Note_on_c,9,42,127,
2,790,Note_on_c,9,43,127,
2,790,Note_on_c,9,45,127,
2,790,Note_on_c,9,48,127,
2,790,Note_on_c,9,51,127,
2,790,Note_on_c,9,53,127,
2,790,Note_on_c,9,80,127,
2,790,Note_on_c,9,81,127,
2,790,Note_on_c,9,82,127,
2,791,Note_off_c,9,36,0,
2,792,Note_on_c,9,36,127,
2,792,Note_on_c,9,37,127,
2,792,Note_on_c,9,38,127,
2,792,Note_on_c,9,39,127,
2,792,Note_on_c,9,41,127,
2,792,Note_on_c,9,42,127,
2,792,Note_on_c,9,43,127,
2,792,Note_on_c,9,45,127,
2,792,Note_on_c,9,48,127,
2,792,Note_on_c,9,51,127,
2,792,Note_on_c,9,53,127,
2,792,Note_on_c,9,80,127,
2,792,Note_on_c,9,81,127,
2,792,Note_on_c,9,82,127,
2,793,Note_off_c,9,36,0,
2,794,Note_on_c,9,36,127,
2,794,Note_on_c,9,37,127,
2,794,Note_on_c,9,38,127,
2,794,Note_on_c,9,39,127,
2,794,Note_on_c,9,41,127,
2,794,Note_on_c,9,42,127,
2,794,Note_on_c,9,43,127,
2,794,Note_on_c,9,45,127,
2,794,Note_on_c,9,48,127,
2,794,Note_on_c,9,51,127,
2,794,Note_on_c,9,53,127,
2,794,Note_on_c,9,80,127,
2,794,Note_on_c,9,81,127,
2,794,Note_on_c,9,82,127,
2,795,Note_off_c,9,36,0,
2,796,Note_on_c,9,36,127,
2,796,Note_on_c,9,37,127,
2,796,Note_on_c,9,38,127,
2,796,Note_on_c,9,39,127,
2,796,Note_on_c,9,41,127,
2,796,Note_on_c,9,42,127,
2,796,Note_on_c,9,43,127,
2,796,Note_on_c,9,45,127,
2,796,Note_on_c,9,48,127,
2,796,Note_on_c,9,51,127,
2,796,Note_on_c,9,53,127,
2,796,Note_on_c,9,80,127,
2,796,Note_on_c,9,81,127,
2,796,Note_on_c,9,82,127,
2,797,Note_off_c,9,36,0,
2,798,Note_on_c,9,36,127,
2,798,Note_on_c,9,37,127,
2,798,Note_on_c,9,38,127,
2,798,Note_on_c,9,39,127,
2,798,Note_on_c,9,41,127,
2,798,Note_on_c,9,42,127,
2,798,Note_on_c,9,43,127,
2,798,Note_on_c,9,45,127,
2,798,Note_on_c,9,48,127,
2,798,Note_on_c,9,51,127,
2,798,Note_on_c,9,53,127,
2,798,Note_on_c,9,80,127,
2,798,Note_on_c,9,81,127,
2,798,Note_on_c,9,82,127,
2,799,Note_off_c,9,36,0,
2,800,Note_on_c,9,36,127,
2,800,Note_on_c,9,37,127,
2,800,Note_on_c,9,38,127,
2,800,Note_on_c,9,39,127,
2,800,Note_on_c,9,41,127,
2,800,Note_on_c,9,42,127,
2,800,Note_on_c,9,43,127,
2,800,Note_on_c,9,45,127,
2,800,Note_on_c,9,48,127,
2,800,Note_on_c,9,51,127,
2,800,Note_on_c,9,53,127,
2,800,Note_on_c,9,80,127,
2,800,Note_on_c,9,81,127,
2,800,Note_on_c,9,82,127,
2,801,Note_off_c,9,36,0,
2,802,Note_on_c,9,36,127,
2,802,Note_on_c,9,37,127,
2,802,Note_on_c,9,38,127,
2,802,Note_on_c,9,39,127,
2,802,Note_on_c,9,41,127,
2,802,Note_on_c,9,42,127,
2,802,Note_on_c,9,43,127,
2,802,Note_on_c,9,45,127,
2,802,Note_on_c,9,48,127,
2,802,Note_on_c,9,51,127,
2,802,Note_on_c,9,53,127,
2,802,Note_on_c,9,80,127,
2,802,Note_on_c,9,81,127,
2,802,Note_on_c,9,82,127,
2,803,Note_off_c,9,36,0,
2,804,Note_on_c,9,36,127,
2,804,Note_on_c,9,37,127,
2,804,Note_on_c,9,38,127,
2,804,Note_on_c,9,39,127,
2,804,Note_on_c,9,41,127,
2,804,Note_on_c,9,42,127,
2,804,Note_on_c,9,43,127,
2,804,Note_on_c,9,45,127,
2,804,Note_on_c,9,48,127,
2,804,Note_on_c,9,51,127,
2,804,Note_on_c,9,53,127,
2,804,Note_on_c,9,80,127,
2,804,Note_on_c,9,81,127,
2,804,Note_on_c,9,82,127,
2,805,Note_off_c,9,36,0,
2,806,Note_on_c,9,36,127,
2,806,Note_on_c,9,37,127,
2,806,Note_on_c,9,38,127,
2,806,Note_on_c,9,39,127,
2,806,Note_on_c,9,41,127,
2,806,Note_on_c,9,42,127,
2,806,Note_on_c,9,43,127,
2,806,Note_on_c,9,45,127,
2,806,Note_on_c,9,48,127,
2,806,Note_on_c,9,51,127,
2,806,Note_on_c,9,53,127,
2,806,Note_on_c,9,80,127,
2,806,Note_on_c,9,81,127,
2,806,Note_on_c,9,82,127,
2,807,Note_off_c,9,36,0,
2,808,Note_on_c,9,36,127,
2,808,Note_on_c,9,37,127,
2,808,Note_on_c,9,38,127,
2,808,Note_on_c,9,39,127,
2,808,Note_on_c,9,41,127,
2,808,Note_on_c,9,42,127,
2,808,Note_on_c,9,43,127,
2,808,Note_on_c,9,45,127,
2,808,Note_on_c,9,48,127,
2,808,Note_on_c,9,51,127,
2,808,Note_on_c,9,53,127,
2,808,Note_on_c,9,80,127,
2,808,Note_on_c,9,81,127,
2,808,Note_on_c,9,82,127,
2,809,Note_off_c,9,36,0,
2,810,Note_on_c,9,36,127,
2,810,Note_on_c,9,37,127,
2,810,Note_on_c,9,38,127,
2,810,Note_on_c,9,39,127,
2,810,Note_on_c,9,41,127,
2,810,Note_on_c,9,42,127,
2,810,Note_on_c,9,43,127,
2,810,Note_on_c,9,45,127,
2,810,Note_on_c,9,48,127,
2,810,Note_on_c,9,51,127,
2,810,Note_on_c,9,53,127,
2,810,Note_on_c,9,80,127,
2,810,Note_on_c,9,81,127,
2,810,Note_on_c,9,82,127,
2,811,Note_off_c,9,36,0,
2,812,Note_on_c,9,36,127,
2,812,Note_on_c,9,37,127,
2,812,Note_on_c,9,38,127,
2,812,Note_on_c,9,39,127,
2,812,Note_on_c,9,41,127,
2,812,Note_on_c,9,42,127,
2,812,Note_on_c,9,43,127,
2,812,Note_on_c,9,45,127,
2,812,Note_on_c,9,48,127,
2,812,Note_on_c,9,51,127,
2,812,Note_on_c,9,53,127,
2,812,Note_on_c,9,80,127,
2,812,Note_on_c,9,81,127,
2,812,Note_on_c,9,82,127,
2,813,Note_off_c,9,36,0,
2,814,Note_on_c,9,36,127,
2,814,Note_on_c,9,37,127,
2,814,Note_on_c,9,38,127,
2,814,Note_on_c,9,39,127,
2,814,Note_on_c,9,41,127,
2,814,Note_on_c,9,42,127,
2,814,Note_on_c,9,43,127,
2,814,Note_on_c,9,45,127,
2,814,Note_on_c,9,48,127,
2,814,Note_on_c,9,51,127,
2,814,Note_on_c,9,53,127,
2,814,Note_on_c,9,80,127,
2,814,Note_on_c,9,81,127,
2,814,Note_on_c,9,82,127,
2,815,Note_off_c,9,36,0,
2,816,Note_on_c,9,36,127,
2,816,Note_on_c,9,37,127,
2,816,Note_on_c,9,38,127,
2,816,Note_on_c,9,39,127,
2,816,Note_on_c,9,41,127,
2,816,Note_on_c,9,42,127,
2,816,Note_on_c,9,43,127,
2,816,Note_on_c,9,45,127,
2,816,Note_on_c,9,48,127,
2,816,Note_on_c,9,51,127,
2,816,Note_on_c,9,53,127,
2,816,Note_on_c,9,80,127,
2,816,Note_on_c,9,81,127,
2,816,Note_on_c,9,82,127,
2,817,Note_off_c,9,36,0,
2,818,Note_on_c,9,36,127,
2,818,Note_on_c,9,37,127,
2,818,Note_on_c,9,38,127,
2,818,Note_on_c,9,39,127,
2,818,Note_on_c,9,41,127,
2,818,Note_on_c,9,42,127,
2,818,Note_on_c,9,43,127,
2,818,Note_on_c,9,45,127,
2,818,Note_on_c,9,48,127,
2,818,Note_on_c,9,51,127,
2,818,Note_on_c,9,53,127,
2,818,Note_on_c,9,80,127,
2,818,Note_on_c,9,81,127,
2,818,Note_on_c,9,82,127,
2,819,Note_off_c,9,36,0,
2,820,Note_on_c,9,36,127,
2,820,Note_on_c,9,37,127,
2,820,Note_on_c,9,38,127,
2,820,Note_on_c,9,39,127,
2,820,Note_on_c,9,41,127,
2,820,Note_on_c,9,42,127,
2,820,Note_on_c,9,43,127,
2,820,Note_on_c,9,45,127,
2,820,Note_on_c,9,48,127,
2,820,Note_on_c,9,51,127,
2,820,Note_on_c,9,53,127,
2,820,Note_on_c,9,80,127,
2,820,Note_on_c,9,81,127,
2,820,Note_on_c,9,82,127,
2,821,Note_off_c,9,36,0,
2,822,Note_on_c,9,36,127,
2,822,Note_on_c,9,37,127,
2,822,Note_on_c,9,38,127,
2,822,Note_on_c,9,39,127,
2,822,Note_on_c,9,41,127,
2,822,Note_on_c,9,42,127,
2,822,Note_on_c,9,43,127,
2,822,Note_on_c,9,45,127,
2,822,Note_on_c,9,48,127,
2,822,Note_on_c,9,51,127,
2,822,Note_on_c,9,53,127,
2,822,Note_on_c,9,80,127,
2,822,Note_on_c,9,81,127,
2,822,Note_on_c,9,82,127,
2,823,Note_off_c,9,36,0,
2,824,Note_on_c,9,36,127,
2,824,Note_on_c,9,37,127,
2,824,Note_on_c,9,38,127,
2,824,Note_on_c,9,39,127,
2,824,Note_on_c,9,41,127,
2,824,Note_on_c,9,42,127,
2,824,Note_on_c,9,43,127,
2,824,Note_on_c,9,45,127,
2,824,Note_on_c,9,48,127,
2,824,Note_on_c,9,51,127,
2,824,Note_on_c,9,53,127,
2,824,Note_on_c,9,80,127,
2,824,Note_on_c,9,81,127,
2,824,Note_on_c,9,82,127,
2,825,Note_off_c,9,36,0,
2,826,Note_on_c,9,36,127,
2,826,Note_on_c,9,37,127,
2,826,Note_on_c,9,38,127,
2,826,Note_on_c,9,39,127,
2,826,Note_on_c,9,41,127,
2,826,Note_on_c,9,42,127,
2,826,Note_on_c,9,43,127,
2,826,Note_on_c,9,45,127,
2,826,Note_on_c,9,48,127,
2,826,Note_on_c,9,51,127,
2,826,Note_on_c,9,53,127,
2,826,Note_on_c,9,80,127,
2,826,Note_on_c,9,81,127,
2,826,Note_on_c,9,82,127,
2,827,Note_off_c,9,36,0,
2,828,Note_on_c,9,36,127,
2,828,Note_on_c,9,37,127,
2,828,Note_on_c,9,38,127,
2,828,Note_on_c,9,39,127,
2,828,Note_on_c,9,41,127,
2,828,Note_on_c,9,42,127,
2,828,Note_on_c,9,43,127,
2,828,Note_on_c,9,45,127,
2,828,Note_on_c,9,48,127,
2,828,Note_on_c,9,51,127,
2,828,Note_on_c,9,53,127,
2,828,Note_on_c,9,80,127,
2,828,Note_on_c,9,81,127,
2,828,Note_on_c,9,82,127,
2,829,Note_off_c,9,36,0,
2,830,Note_on_c,9,36,127,
2,830,Note_on_c,9,37,127,
2,830,Note_on_c,9,38,127,
2,830,Note_on_c,9,39,127,
2,830,Note_on_c,9,41,127,
2,830,Note_on_c,9,42,127,
2,830,Note_on_c,9,43,127,
2,830,Note_on_c,9,45,127,
2,830,Note_on_c,9,48,127,
2,830,Note_on_c,9,51,127,
2,830,Note_on_c,9,53,127,
2,830,Note_on_c,9,80,127,
2,830,Note_on_c,9,81,127,
2,830,Note_on_c,9,82,127,
2,831,Note_off_c,9,36,0,
2,832,Note_on_c,9,36,127,
2,832,Note_on_c,9,37,127,
2,832,Note_on_c,9,38,127,
2,832,Note_on_c,9,39,127,
2,832,Note_on_c,9,41,127,
2,832,Note_on_c,9,42,127,
2,832,Note_on_c,9,43,127,
2,832,Note_on_c,9,45,127,
2,832,Note_on_c,9,48,127,
2,832,Note_on_c,9,51,127,
2,832,Note_on_c,9,53,127,
2,832,Note_on_c,9,80,127,
2,832,Note_on_c,9,81,127,
2,832,Note_on_c,9,82,127,
2,833,Note_off_c,9,36,0,
2,834,Note_on_c,9,36,127,
2,834,Note_on_c,9,37,127,
2,834,Note_on_c,9,38,127,
2,834,Note_on_c,9,39,127,
2,834,Note_on_c,9,41,127,
2,834,Note_on_c,9,42,127,
2,834,Note_on_c,9,43,127,
2,834,Note_on_c,9,45,127,
2,834,Note_on_c,9,48,127,
2,834,Note_on_c,9,51,127,
2,834,Note_on_c,9,53,127,
2,834,Note_on_c,9,80,127,
2,834,Note_on_c,9,81,127,
2,834,Note_on_c,9,82,127,
2,835,Note_off_c,9,36,0,
2,836,Note_on_c,9,36,127,
2,836,Note_on_c,9,37,127,
2,836,Note_on_c,9,38,127,
2,836,Note_on_c,9,39,127,
2,836,Note_on_c,9,41,127,
2,836,Note_on_c,9,42,127,
2,836,Note_on_c,9,43,127,
2,836,Note_on_c,9,45,127,
2,836,Note_on_c,9,48,127,
2,836,Note_on_c,9,51,127,
2,836,Note_on_c,9,53,127,
2,836,Note_on_c,9,80,127,
2,836,Note_on_c,9,81,127,
2,836,Note_on_c,9,82,127,
2,837,Note_off_c,9,36,0,
2,838,Note_on_c,9,36,127,
2,838,Note_on_c,9,37,127,
2,838,Note_on_c,9,38,127,
2,838,Note_on_c,9,39,127,
2,838,Note_on_c,9,41,127,
2,838,Note_on_c,9,42,127,
2,838,Note_on_c,9,43,127,
2,838,Note_on_c,9,45,127,
2,838,Note_on_c,9,48,127,
2,838,Note_on_c,9,51,127,
2,838,Note_on_c,9,53,127,
2,838,Note_on_c,9,80,127,
2,838,Note_on_c,9,81,127,
2,838,Note_on_c,9,82,127,
2,839,Note_off_c,9,36,0,
2,840,Note_on_c,9,36,127,
2,840,Note_on_c,9,37,127,
2,840,Note_on_c,9,38,127,
2,840,Note_on_c,9,39,127,
2,840,Note_on_c,9,41,127,
2,840,Note_on_c,9,42,127,
2,840,Note_on_c,9,43,127,
2,840,Note_on_c,9,45,127,
2,840,Note_on_c,9,48,127,
2,840,Note_on_c,9,51,127,
2,840,Note_on_c,9,53,127,
2,840,Note_on_c,9,80,127,
2,840,Note_on_c,9,81,127,
2,840,Note_on_c,9,82,127,
2,841,Note_off_c,9,36,0,
2,842,Note_on_c,9,36,127,
2,842,Note_on_c,9,37,127,
2,842,Note_on_c,9,38,127,
2,842,Note_on_c,9,39,127,
2,842,Note_on_c,9,41,127,
2,842,Note_on_c,9,42,127,
2,842,Note_on_c,9,43,127,
2,842,Note_on_c,9,45,127,
2,842,Note_on_c,9,48,127,
2,842,Note_on_c,9,51,127,
2,842,Note_on_c,9,53,127,
2,842,Note_on_c,9,80,127,
2,842,Note_on_c,9,81,127,
2,842,Note_on_c,9,82,127,
2,843,Note_off_c,9,36,0,
2,844,Note_on_c,9,36,127,
2,844,Note_on_c,9,37,127,
2,844,Note_on_c,9,38,127,
2,844,Note_on_c,9,39,127,
2,844,Note_on_c,9,41,127,
2,844,Note_on_c,9,42,127,
2,844,Note_on_c,9,43,127,
2,844,Note_on_c,9,45,127,
2,844,Note_on_c,9,48,127,
2,844,Note_on_c,9,51,127,
2,844,Note_on_c,9,53,127,
2,844,Note_on_c,9,80,127,
2,844,Note_on_c,9,81,127,
2,844,Note_on_c,9,82,127,
2,845,Note_off_c,9,36,0,
2,846,Note_on_c,9,36,127,
2,846,Note_on_c,9,37,127,
2,846,Note_on_c,9,38,127,
2,846,Note_on_c,9,39,127,
2,846,Note_on_c,9,41,127,
2,846,Note_on_c,9,42,127,
2,846,Note_on_c,9,43,127,
2,846,Note_on_c,9,45,127,
2,846,Note_on_c,9,48,127,
2,846,Note_on_c,9,51,127,
2,846,Note_on_c,9,53,127,
2,846,Note_on_c,9,80,127,
2,846,Note_on_c,9,81,127,
2,846,Note_on_c,9,82,127,
2,847,Note_off_c,9,36,0,
2,848,Note_on_c,9,36,127,
2,848,Note_on_c,9,37,127,
2,848,Note_on_c,9,38,127,
2,848,Note_on_c,9,39,127,
2,848,Note_on_c,9,41,127,
2,848,Note_on_c,9,42,127,
2,848,Note_on_c,9,43,127,
2,848,Note_on_c,9,45,127,
2,848,Note_on_c,9,48,127,
2,848,Note_on_c,9,51,127,
2,848,Note_on_c,9,53,127,
2,848,Note_on_c,9,80,127,
2,848,Note_on_c,9,81,127,
2,848,Note_on_c,9,82,127,
2,849,Note_off_c,9,36,0,
2,850,Note_on_c,9,36,127,
2,850,Note_on_c,9,37,127,
2,850,Note_on_c,9,38,127,
2,850,Note_on_c,9,39,127,
2,850,Note_on_c,9,41,127,
2,850,Note_on_c,9,42,127,
2,850,Note_on_c,9,43,127,
2,850,Note_on_c,9,45,127,
2,850,Note_on_c,9,48,127,
2,850,Note_on_c,9,51,127,
2,850,Note_on_c,9,53,127,
2,850,Note_on_c,9,80,127,
2,850,Note_on_c,9,81,127,
2,850,Note_on_c,9,82,127,
2,851,Note_off_c,9,36,0,
2,852,Note_on_c,9,36,127,
2,852,Note_on_c,9,37,127,
2,852,Note_on_c,9,38,127,
2,852,Note_on_c,9,39,127,
2,852,Note_on_c,9,41,127,
2,852,Note_on_c,9,42,127,
2,852,Note_on_c,9,43,127,
2,852,Note_on_c,9,45,127,
2,852,Note_on_c,9,48,127,
2,852,Note_on_c,9,51,127,
2,852,Note_on_c,9,53,127,
2,852,Note_on_c,9,80,127,
2,852,Note_on_c,9,81,127,
2,852,Note_on_c,9,82,127,
2,853,Note_off_c,9,36,0,
2,854,Note_on_c,9,36,127,
2,854,Note_on_c,9,37,127,
2,854,Note_on_c,9,38,127,
2,854,Note_on_c,9,39,127,
2,854,Note_on_c,9,41,127,
2,854,Note_on_c,9,42,127,
2,854,Note_on_c,9,43,127,
2,854,Note_on_c,9,45,127,
2,854,Note_on_c,9,48,127,
2,854,Note_on_c,9,51,127,
2,854,Note_on_c,9,53,127,
2,854,Note_on_c,9,80,127,
2,854,Note_on_c,9,81,127,
2,854,Note_on_c,9,82,127,
2,855,Note_off_c,9,36,0,
2,856,Note_on_c,9,36,127,
2,856,Note_on_c,9,37,127,
2,856,Note_on_c,9,38,127,
2,856,Note_on_c,9,39,127,
2,856,Note_on_c,9,41,127,
2,856,Note_on_c,9,42,127,
2,856,Note_on_c,9,43,127,
2,856,Note_on_c,9,45,127,
2,856,Note_on_c,9,48,127,
2,856,Note_on_c,9,51,127,
2,856,Note_on_c,9,53,127,
2,856,Note_on_c,9,80,127,
2,856,Note_on_c,9,81,127,
2,856,Note_on_c,9,82,127,
2,857,Note_off_c,9,36,0,
2,858,Note_on_c,9,36,127,
2,858,Note_on_c,9,37,127,
2,858,Note_on_c,9,38,127,
2,858,Note_on_c,9,39,127,
2,858,Note_on_c,9,41,127,
2,858,Note_on_c,9,42,127,
2,858,Note_on_c,9,43,127,
2,858,Note_on_c,9,45,127,
2,858,Note_on_c,9,48,127,
2,858,Note_on_c,9,51,127,
2,858,Note_on_c,9,53,127,
2,858,Note_on_c,9,80,127,
2,858,Note_on_c,9,81,127,
2,858,Note_on_c,9,82,127,
2,859,Note_off_c,9,36,0,
2,860,Note_on_c,9,36,127,
2,860,Note_on_c,9,37,127,
2,860,Note_on_c,9,38,127,
2,860,Note_on_c,9,39,127,
2,860,Note_on_c,9,41,127,
2,860,Note_on_c,9,42,127,
2,860,Note_on_c,9,43,127,
2,860,Note_on_c,9,45,127,
2,860,Note_on_c,9,48,127,
2,860,Note_on_c,9,51,127,
2,860,Note_on_c,9,53,127,
2,860,Note_on_c,9,80,127,
2,860,Note_on_c,9,81,127,
2,860,Note_on_c,9,82,127,
2,861,Note_off_c,9,36,0,
2,862,Note_on_c,9,36,127,
2,862,Note_on_c,9,37,127,
2,862,Note_on_c,9,38,127,
2,862,Note_on_c,9,39,127,
2,862,Note_on_c,9,41,127,
2,862,Note_on_c,9,42,127,
2,862,Note_on_c,9,43,127,
2,862,Note_on_c,9,45,127,
2,862,Note_on_c,9,48,127,
2,862,Note_on_c,9,51,127,
2,862,Note_on_c,9,53,127,
2,862,Note_on_c,9,80,127,
2,862,Note_on_c,9,81,127,
2,862,Note_on_c,9,82,127,
2,863,Note_off_c,9,36,0,
2,864,Note_on_c,9,36,127,
2,864,Note_on_c,9,37,127,
2,864,Note_on_c,9,38,127,
2,864,Note_on_c,9,39,127,
2,864,Note_on_c,9,41,127,
2,864,Note_on_c,9,42,127,
2,864,Note_on_c,9,43,127,
2,864,Note_on_c,9,45,127,
2,864,Note_on_c,9,48,127,
2,864,Note_on_c,9,51,127,
2,864,Note_on_c,9,53,127,
2,864,Note_on_c,9,80,127,
2,864,Note_on_c,9,81,127,
2,864,Note_on_c,9,82,127,
2,865,Note_off_c,9,36,0,
2,866,Note_on_c,9,36,127,
2,866,Note_on_c,9,37,127,
2,866,Note_on_c,9,38,127,
2,866,Note_on_c,9,39,127,
2,866,Note_on_c,9,41,127,
2,866,Note_on_c,9,42,127,
2,866,Note_on_c,9,43,127,
2,866,Note_on_c,9,45,127,
2,866,Note_on_c,9,48,127,
2,866,Note_on_c,9,51,127,
2,866,Note_on_c,9,53,127,
2,866,Note_on_c,9,80,127,
2,866,Note_on_c,9,81,127,
2,866,Note_on_c,9,82,127,
2,867,Note_off_c,9,36,0,
2,868,Note_on_c,9,36,127,
2,868,Note_on_c,9,37,127,
2,868,Note_on_c,9,38,127,
2,868,Note_on_c,9,39,127,
2,868,Note_on_c,9,41,127,
2,868,Note_on_c,9,42,127,
2,868,Note_on_c,9,43,127,
2,868,Note_on_c,9,45,127,
2,868,Note_on_c,9,48,127,
2,868,Note_on_c,9,51,127,
2,868,Note_on_c,9,53,127,
2,868,Note_on_c,9,80,127,
2,868,Note_on_c,9,81,127,
2,868,Note_on_c,9,82,127,
2,869,Note_off_c,9,36,0,
2,870,Note_on_c,9,36,127,
2,870,Note_on_c,9,37,127,
2,870,Note_on_c,9,38,127,
2,870,Note_on_c,9,39,127,
2,870,Note_on_c,9,41,127,
2,870,Note_on_c,9,42,127,
2,870,Note_on_c,9,43,127,
2,870,Note_on_c,9,45,127,
2,870,Note_on_c,9,48,127,
2,870,Note_on_c,9,51,127,
2,870,Note_on_c,9,53,127,
2,870,Note_on_c,9,80,127,
2,870,Note_on_c,9,81,127,
2,870,Note_on_c,9,82,127,
2,871,Note_off_c,9,36,0,
2,872,Note_on_c,9,36,127,
2,872,Note_on_c,9,37,127,
2,872,Note_on_c,9,38,127,
2,872,Note_on_c,9,39,127,
2,872,Note_on_c,9,41,127,
2,872,Note_on_c,9,42,127,
2,872,Note_on_c,9,43,127,
2,872,Note_on_c,9,45,127,
2,872,Note_on_c,9,48,127,
2,872,Note_on_c,9,51,127,
2,872,Note_on_c,9,53,127,
2,872,Note_on_c,9,80,127,
2,872,Note_on_c,9,81,127,
2,872,Note_on_c,9,82,127,
2,873,Note_off_c,9,36,0,
2,874,Note_on_c,9,36,127,
2,874,Note_on_c,9,37,127,
2,874,Note_on_c,9,38,127,
2,874,Note_on_c,9,39,127,
2,874,Note_on_c,9,41,127,
2,874,Note_on_c,9,42,127,
2,874,Note_on_c,9,43,127,
2,874,Note_on_c,9,45,127,
2,874,Note_on_c,9,48,127,
2,874,Note_on_c,9,51,127,
2,874,Note_on_c,9,53,127,
2,874,Note_on_c,9,80,127,
2,874,Note_on_c,9,81,127,
2,874,Note_on_c,9,82,127,
2,875,Note_off_c,9,36,0,
2,876,Note_on_c,9,36,127,
2,876,Note_on_c,9,37,127,
2,876,Note_on_c,9,38,127,
2,876,Note_on_c,9,39,127,
2,876,Note_on_c,9,41,127,
2,876,Note_on_c,9,42,127,
2,876,Note_on_c,9,43,127,
2,876,Note_on_c,9,45,127,
2,876,Note_on_c,9,48,127,
2,876,Note_on_c,9,51,127,
2,876,Note_on_c,9,53,127,
2,876,Note_on_c,9,80,127,
2,876,Note_on_c,9,81,127,
2,876,Note_on_c,9,82,127,
2,877,Note_off_c,9,36,0,
2,878,Note_on_c,9,36,127,
2,878,Note_on_c,9,37,127,
2,878,Note_on_c,9,38,127,
2,878,Note_on_c,9,39,127,
2,878,Note_on_c,9,41,127,
2,878,Note_on_c,9,42,127,
2,878,Note_on_c,9,43,127,
2,878,Note_on_c,9,45,127,
2,878,Note_on_c,9,48,127,
2,878,Note_on_c,9,51,127,
2,878,Note_on_c,9,53,127,
2,878,Note_on_c,9,80,127,
2,878,Note_on_c,9,81,127,
2,878,Note_on_c,9,82,127,
2,879,Note_off_c,9,36,0,
2,880,Note_on_c,9,36,127,
2,880,Note_on_c,9,37,127,
2,880,Note_on_c,9,38,127,
2,880,Note_on_c,9,39,127,
2,880,Note_on_c,9,41,127,
2,880,Note_on_c,9,42,127,
2,880,Note_on_c,9,43,127,
2,880,Note_on_c,9,45,127,
2,880,Note_on_c,9,48,127,
2,880,Note_on_c,9,51,127,
2,880,Note_on_c,9,53,127,
2,880,Note_on_c,9,80,127,
2,880,Note_on_c,9,81,127,
2,880,Note_on_c,9,82,127,
2,881,Note_off_c,9,36,0,
2,882,Note_on_c,9,36,127,
2,882,Note_on_c,9,37,127,
2,882,Note_on_c,9,38,127,
2,882,Note_on_c,9,39,127,
2,882,Note_on_c,9,41,127,
2,882,Note_on_c,9,42,127,
2,882,Note_on_c,9,43,127,
2,882,Note_on_c,9,45,127,
2,882,Note_on_c,9,48,127,
2,882,Note_on_c,9,51,127,
2,882,Note_on_c,9,53,127,
2,882,Note_on_c,9,80,127,
2,882,Note_on_c,9,81,127,
2,882,Note_on_c,9,82,127,
2,883,Note_off_c,9,36,0,
2,884,Note_on_c,9,36,127,
2,884,Note_on_c,9,37,127,
2,884,Note_on_c,9,38,127,
2,884,Note_on_c,9,39,127,
2,884,Note_on_c,9,41,127,
2,884,Note_on_c,9,42,127,
2,884,Note_on_c,9,43,127,
2,884,Note_on_c,9,45,127,
2,884,Note_on_c,9,48,127,
2,884,Note_on_c,9,51,127,
2,884,Note_on_c,9,53,127,
2,884,Note_on_c,9,80,127,
2,884,Note_on_c,9,81,127,
2,884,Note_on_c,9,82,127,
2,885,Note_off_c,9,36,0,
2,886,Note_on_c,9,36,127,
2,886,Note_on_c,9,37,127,
2,886,Note_on_c,9,38,127,
2,886,Note_on_c,9,39,127,
2,886,Note_on_c,9,41,127,
2,886,Note_on_c,9,42,127,
2,886,Note_on_c,9,43,127,
2,886,Note_on_c,9,45,127,
2,886,Note_on_c,9,48,127,
2,886,Note_on_c,9,51,127,
2,886,Note_on_c,9,53,127,
2,886,Note_on_c,9,80,127,
2,886,Note_on_c,9,81,127,
2,886,Note_on_c,9,82,127,
2,887,Note_off_c,9,36,0,
2,888,Note_on_c,9,36,127,
2,888,Note_on_c,9,37,127,
2,888,Note_on_c,9,38,127,
2,888,Note_on_c,9,39,127,
2,888,Note_on_c,9,41,127,
2,888,Note_on_c,9,42,127,
2,888,Note_on_c,9,43,127,
2,888,Note_on_c,9,45,127,
2,888,Note_on_c,9,48,127,
2,888,Note_on_c,9,51,127,
2,888,Note_on_c,9,53,127,
2,888,Note_on_c,9,80,127,
2,888,Note_on_c,9,81,127,
2,888,Note_on_c,9,82,127,
2,889,Note_off_c,9,36,0,
2,890,Note_on_c,9,36,127,
2,890,Note_on_c,9,37,127,
2,890,Note_on_c,9,38,127,
2,890,Note_on_c,9,39,127,
2,890,Note_on_c,9,41,127,
2,890,Note_on_c,9,42,127,
2,890,Note_on_c,9,43,127,
2,890,Note_on_c,9,45,127,
2,890,Note_on_c,9,48,127,
2,890,Note_on_c,9,51,127,
2,890,Note_on_c,9,53,127,
2,890,Note_on_c,9,80,127,
2,890,Note_on_c,9,81,127,
2,890,Note_on_c,9,82,127,
2,891,Note_off_c,9,36,0,
2,892,Note_on_c,9,36,127,
2,892,Note_on_c,9,37,127,
2,892,Note_on_c,9,38,127,
2,892,Note_on_c,9,39,127,
2,892,Note_on_c,9,41,127,
2,892,Note_on_c,9,42,127,
2,892,Note_on_c,9,43,127,
2,892,Note_on_c,9,45,127,
2,892,Note_on_c,9,48,127,
2,892,Note_on_c,9,51,127,
2,892,Note_on_c,9,53,127,
2,892,Note_on_c,9,80,127,
2,892,Note_on_c,9,81,127,
2,892,Note_on_c,9,82,127,
2,893,Note_off_c,9,36,0,
2,894,Note_on_c,9,36,127,
2,894,Note_on_c,9,37,127,
2,894,Note_on_c,9,38,127,
2,894,Note_on_c,9,39,127,
2,894,Note_on_c,9,41,127,
2,894,Note_on_c,9,42,127,
2,894,Note_on_c,9,43,127,
2,894,Note_on_c,9,45,127,
2,894,Note_on_c,9,48,127,
2,894,Note_on_c,9,51,127,
2,894,Note_on_c,9,53,127,
2,894,Note_on_c,9,80,127,
2,894,Note_on_c,9,81,127,
2,894,Note_on_c,9,82,127,
2,895,Note_off_c,9,36,0,
2,896,Note_on_c,9,36,127,
2,896,Note_on_c,9,37,127,
2,896,Note_on_c,9,38,127,
2,896,Note_on_c,9,39,127,
2,896,Note_on_c,9,41,127,
2,896,Note_on_c,9,42,127,
2,896,Note_on_c,9,43,127,
2,896,Note_on_c,9,45,127,
2,896,Note_on_c,9,48,127,
2,896,Note_on_c,9,51,127,
2,896,Note_on_c,9,53,127,
2,896,Note_on_c,9,80,127,
2,896,Note_on_c,9,81,127,
2,896,Note_on_c,9,82,127,
2,897,Note_off_c,9,36,0,
2,898,Note_on_c,9,36,127,
2,898,Note_on_c,9,37,127,
2,898,Note_on_c,9,38,127,
2,898,Note_on_c,9,39,127,
2,898,Note_on_c,9,41,127,
2,898,Note_on_c,9,42,127,
2,898,Note_on_c,9,43,127,
2,898,Note_on_c,9,45,127,
2,898,Note_on_c,9,48,127,
2,898,Note_on_c,9,51,127,
2,898,Note_on_c,9,53,127,
2,898,Note_on_c,9,80,127,
2,898,Note_on_c,9,81,127,
2,898,Note_on_c,9,82,127,
2,899,Note_off_c,9,36,0,
2,900,Note_on_c,9,36,127,
2,900,Note_on_c,9,37,127,
2,900,Note_on_c,9,38,127,
2,900,Note_on_c,9,39,127,
2,900,Note_on_c,9,41,127,
2,900,Note_on_c,9,42,127,
2,900,Note_on_c,9,43,127,
2,900,Note_on_c,9,45,127,
2,900,Note_on_c,9,48,127,
2,900,Note_on_c,9,51,127,
2,900,Note_on_c,9,53,127,
2,900,Note_on_c,9,80,127,
2,900,Note_on_c,9,81,127,
2,900,Note_on_c,9,82,127,
2,901,Note_off_c,9,36,0,
2,902,Note_on_c,9,36,127,
2,902,Note_on_c,9,37,127,
2,902,Note_on_c,9,38,127,
2,902,Note_on_c,9,39,127,
2,902,Note_on_c,9,41,127,
2,902,Note_on_c,9,42,127,
2,902,Note_on_c,9,43,127,
2,902,Note_on_c,9,45,127,
2,902,Note_on_c,9,48,127,
2,902,Note_on_c,9,51,127,
2,902,Note_on_c,9,53,127,
2,902,Note_on_c,9,80,127,
2,902,Note_on_c,9,81,127,
2,902,Note_on_c,9,82,127,
2,903,Note_off_c,9,36,0,
2,904,Note_on_c,9,36,127,
2,904,Note_on_c,9,37,127,
2,904,Note_on_c,9,38,127,
2,904,Note_on_c,9,39,127,
2,904,Note_on_c,9,41,127,
2,904,Note_on_c,9,42,127,
2,904,Note_on_c,9,43,127,
2,904,Note_on_c,9,45,127,
2,904,Note_on_c,9,48,127,
2,904,Note_on_c,9,51,127,
2,904,Note_on_c,9,53,127,
2,904,Note_on_c,9,80,127,
2,904,Note_on_c,9,81,127,
2,904,Note_on_c,9,82,127,
2,905,Note_off_c,9,36,0,
2,906,Note_on_c,9,36,127,
2,906,Note_on_c,9,37,127,
2,906,Note_on_c,9,38,127,
2,906,Note_on_c,9,39,127,
2,906,Note_on_c,9,41,127,
2,906,Note_on_c,9,42,127,
2,906,Note_on_c,9,43,127,
2,906,Note_on_c,9,45,127,
2,906,Note_on_c,9,48,127,
2,906,Note_on_c,9,51,127,
2,906,Note_on_c,9,53,127,
2,906,Note_on_c,9,80,127,
2,906,Note_on_c,9,81,127,
2,906,Note_on_c,9,82,127,
2,907,Note_off_c,9,36,0,
2,908,Note_on_c,9,36,127,
2,908,Note_on_c,9,37,127,
2,908,Note_on_c,9,38,127,
2,908,Note_on_c,9,39,127,
2,908,Note_on_c,9,41,127,
2,908,Note_on_c,9,42,127,
2,908,Note_on_c,9,43,127,
2,908,Note_on_c,9,45,127,
2,908,Note_on_c,9,48,127,
2,908,Note_on_c,9,51,127,
2,908,Note_on_c,9,53,127,
2,908,Note_on_c,9,80,127,
2,908,Note_on_c,9,81,127,
2,908,Note_on_c,9,82,127,
2,909,Note_off_c,9,36,0,
2,910,Note_on_c,9,36,127,
2,910,Note_on_c,9,37,127,
2,910,Note_on_c,9,38,127,
2,910,Note_on_c,9,39,127,
2,910,Note_on_c,9,41,127,
2,910,Note_on_c,9,42,127,
2,910,Note_on_c,9,43,127,
2,910,Note_on_c,9,45,127,
2,910,Note_on_c,9,48,127,
2,910,Note_on_c,9,51,127,
2,910,Note_on_c,9,53,127,
2,910,Note_on_c,9,80,127,
2,910,Note_on_c,9,81,127,
2,910,Note_on_c,9,82,127,
2,911,Note_off_c,9,36,0,
2,912,Note_on_c,9,36,127,
2,912,Note_on_c,9,37,127,
2,912,Note_on_c,9,38,127,
2,912,Note_on_c,9,39,127,
2,912,Note_on_c,9,41,127,
2,912,Note_on_c,9,42,127,
2,912,Note_on_c,9,43,127,
2,912,Note_on_c,9,45,127,
2,912,Note_on_c,9,48,127,
2,912,Note_on_c,9,51,127,
2,912,Note_on_c,9,53,127,
2,912,Note_on_c,9,80,127,
2,912,Note_on_c,9,81,127,
2,912,Note_on_c,9,82,127,
2,913,Note_off_c,9,36,0,
2,914,Note_on_c,9,36,127,
2,914,Note_on_c,9,37,127,
2,914,Note_on_c,9,38,127,
2,914,Note_on_c,9,39,127,
2,914,Note_on_c,9,41,127,
2,914,Note_on_c,9,42,127,
2,914,Note_on_c,9,43,127,
2,914,Note_on_c,9,45,127,
2,914,Note_on_c,9,48,127,
2,914,Note_on_c,9,51,127,
2,914,Note_on_c,9,53,127,
2,914,Note_on_c,9,80,127,
2,914,Note_on_c,9,81,127,
2,914,Note_on_c,9,82,127,
2,915,Note_off_c,9,36,0,
2,916,Note_on_c,9,36,127,
2,916,Note_on_c,9,37,127,
2,916,Note_on_c,9,38,127,
2,916,Note_on_c,9,39,127,
2,916,Note_on_c,9,41,127,
2,916,Note_on_c,9,42,127,
2,916,Note_on_c,9,43,127,
2,916,Note_on_c,9,45,127,
2,916,Note_on_c,9,48,127,
2,916,Note_on_c,9,51,127,
2,916,Note_on_c,9,53,127,
2,916,Note_on_c,9,80,127,
2,916,Note_on_c,9,81,127,
2,916,Note_on_c,9,82,127,
2,917,Note_off_c,9,36,0,
2,918,Note_on_c,9,36,127,
2,918,Note_on_c,9,37,127,
2,918,Note_on_c,9,38,127,
2,918,Note_on_c,9,39,127,
2,918,Note_on_c,9,41,127,
2,918,Note_on_c,9,42,127,
2,918,Note_on_c,9,43,127,
2,918,Note_on_c,9,45,127,
2,918,Note_on_c,9,48,127,
2,918,Note_on_c,9,51,127,
2,918,Note_on_c,9,53,127,
2,918,Note_on_c,9,80,127,
2,918,Note_on_c,9,81,127,
2,918,Note_on_c,9,82,127,
2,919,Note_off_c,9,36,0,
2,920,Note_on_c,9,36,127,
2,920,Note_on_c,9,37,127,
2,920,Note_on_c,9,38,127,
2,920,Note_on_c,9,39,127,
2,920,Note_on_c,9,41,127,
2,920,Note_on_c,9,42,127,
2,920,Note_on_c,9,43,127,
2,920,Note_on_c,9,45,127,
2,920,Note_on_c,9,48,127,
2,920,Note_on_c,9,51,127,
2,920,Note_on_c,9,53,127,
2,920,Note_on_c,9,80,127,
2,920,Note_on_c,9,81,127,
2,920,Note_on_c,9,82,127,
2,921,Note_off_c,9,36,0,
2,922,Note_on_c,9,36,127,
2,922,Note_on_c,9,37,127,
2,922,Note_on_c,9,38,127,
2,922,Note_on_c,9,39,127,
2,922,Note_on_c,9,41,127,
2,922,Note_on_c,9,42,127,
2,922,Note_on_c,9,43,127,
2,922,Note_on_c,9,45,127,
2,922,Note_on_c,9,48,127,
2,922,Note_on_c,9,51,127,
2,922,Note_on_c,9,53,127,
2,922,Note_on_c,9,80,127,
2,922,Note_on_c,9,81,127,
2,922,Note_on_c,9,82,127,
2,923,Note_off_c,9,36,0,
2,924,Note_on_c,9,36,127,
2,924,Note_on_c,9,37,127,
2,924,Note_on_c,9,38,127,
2,924,Note_on_c,9,39,127,
2,924,Note_on_c,9,41,127,
2,924,Note_on_c,9,42,127,
2,924,Note_on_c,9,43,127,
2,924,Note_on_c,9,45,127,
2,924,Note_on_c,9,48,127,
2,924,Note_on_c,9,51,127,
2,924,Note_on_c,9,53,127,
2,924,Note_on_c,9,80,127,
2,924,Note_on_c,9,81,127,
2,924,Note_on_c,9,82,127,
2,925,Note_off_c,9,36,0,
2,926,Note_on_c,9,36,127,
2,926,Note_on_c,9,37,127,
2,926,Note_on_c,9,38,127,
2,926,Note_on_c,9,39,127,
2,926,Note_on_c,9,41,127,
2,926,Note_on_c,9,42,127,
2,926,Note_on_c,9,43,127,
2,926,Note_on_c,9,45,127,
2,926,Note_on_c,9,48,127,
2,926,Note_on_c,9,51,127,
2,926,Note_on_c,9,53,127,
2,926,Note_on_c,9,80,127,
2,926,Note_on_c,9,81,127,
2,926,Note_on_c,9,82,127,
2,927,Note_off_c,9,36,0,
2,928,Note_on_c,9,36,127,
2,928,Note_on_c,9,37,127,
2,928,Note_on_c,9,38,127,
2,928,Note_on_c,9,39,127,
2,928,Note_on_c,9,41,127,
2,928,Note_on_c,9,42,127,
2,928,Note_on_c,9,43,127,
2,928,Note_on_c,9,45,127,
2,928,Note_on_c,9,48,127,
2,928,Note_on_c,9,51,127,
2,928,Note_on_c,9,53,127,
2,928,Note_on_c,9,80,127,
2,928,Note_on_c,9,81,127,
2,928,Note_on_c,9,82,127,
2,929,Note_off_c,9,36,0,
2,930,Note_on_c,9,36,127,
2,930,Note_on_c,9,37,127,
2,930,Note_on_c,9,38,127,
2,930,Note_on_c,9,39,127,
2,930,Note_on_c,9,41,127,
2,930,Note_on_c,9,42,127,
2,930,Note_on_c,9,43,127,
2,930,Note_on_c,9,45,127,
2,930,Note_on_c,9,48,127,
2,930,Note_on_c,9,51,127,
2,930,Note_on_c,9,53,127,
2,930,Note_on_c,9,80,127,
2,930,Note_on_c,9,81,127,
2,930,Note_on_c,9,82,127,
2,931,Note_off_c,9,36,0,
2,932,Note_on_c,9,36,127,
2,932,Note_on_c,9,37,127,
2,932,Note_on_c,9,38,127,
2,932,Note_on_c,9,39,127,
2,932,Note_on_c,9,41,127,
2,932,Note_on_c,9,42,127,
2,932,Note_on_c,9,43,127,
2,932,Note_on_c,9,45,127,
2,932,Note_on_c,9,48,127,
2,932,Note_on_c,9,51,127,
2,932,Note_on_c,9,53,127,
2,932,Note_on_c,9,80,127,
2,932,Note_on_c,9,81,127,
2,932,Note_on_c,9,82,127,
2,933,Note_off_c,9,36,0,
2,934,Note_on_c,9,36,127,
2,934,Note_on_c,9,37,127,
2,934,Note_on_c,9,38,127,
2,934,Note_on_c,9,39,127,
2,934,Note_on_c,9,41,127,
2,934,Note_on_c,9,42,127,
2,934,Note_on_c,9,43,127,
2,934,Note_on_c,9,45,127,
2,934,Note_on_c,9,48,127,
2,934,Note_on_c,9,51,127,
2,934,Note_on_c,9,53,127,
2,934,Note_on_c,9,80,127,
2,934,Note_on_c,9,81,127,
2,934,Note_on_c,9,82,127,
2,935,Note_off_c,9,36,0,
2,936,Note_on_c,9,36,127,
2,936,Note_on_c,9,37,127,
2,936,Note_on_c,9,38,127,
2,936,Note_on_c,9,39,127,
2,936,Note_on_c,9,41,127,
2,936,Note_on_c,9,42,127,
2,936,Note_on_c,9,43,127,
2,936,Note_on_c,9,45,127,
2,936,Note_on_c,9,48,127,
2,936,Note_on_c,9,51,127,
2,936,Note_on_c,9,53,127,
2,936,Note_on_c,9,80,127,
2,936,Note_on_c,9,81,127,
2,936,Note_on_c,9,82,127,
2,937,Note_off_c,9,36,0,
2,938,Note_on_c,9,36,127,
2,938,Note_on_c,9,37,127,
2,938,Note_on_c,9,38,127,
2,938,Note_on_c,9,39,127,
2,938,Note_on_c,9,41,127,
2,938,Note_on_c,9,42,127,
2,938,Note_on_c,9,43,127,
2,938,Note_on_c,9,45,127,
2,938,Note_on_c,9,48,127,
2,938,Note_on_c,9,51,127,
2,938,Note_on_c,9,53,127,
2,938,Note_on_c,9,80,127,
2,938,Note_on_c,9,81,127,
2,938,Note_on_c,9,82,127,
2,939,Note_off_c,9,36,0,
2,940,Note_on_c,9,36,127,
2,940,Note_on_c,9,37,127,
2,940,Note_on_c,9,38,127,
2,940,Note_on_c,9,39,127,
2,940,Note_on_c,9,41,127,
2,940,Note_on_c,9,42,127,
2,940,Note_on_c,9,43,127,
2,940,Note_on_c,9,45,127,
2,940,Note_on_c,9,48,127,
2,940,Note_on_c,9,51,127,
2,940,Note_on_c,9,53,127,
2,940,Note_on_c,9,80,127,
2,940,Note_on_c,9,81,127,
2,940,Note_on_c,9,82,127,
2,941,Note_off_c,9,36,0,
2,942,Note_on_c,9,36,127,
2,942,Note_on_c,9,37,127,
2,942,Note_on_c,9,38,127,
2,942,Note_on_c,9,39,127,
2,942,Note_on_c,9,41,127,
2,942,Note_on_c,9,42,127,
2,942,Note_on_c,9,43,127,
2,942,Note_on_c,9,45,127,
2,942,Note_on_c,9,48,127,
2,942,Note_on_c,9,51,127,
2,942,Note_on_c,9,53,127,
2,942,Note_on_c,9,80,127,
2,942,Note_on_c,9,81,127,
2,942,Note_on_c,9,82,127,
2,943,Note_off_c,9,36,0,
2,944,Note_on_c,9,36,127,
2,944,Note_on_c,9,37,127,
2,944,Note_on_c,9,38,127,
2,944,Note_on_c,9,39,127,
2,944,Note_on_c,9,41,127,
2,944,Note_on_c,9,42,127,
2,944,Note_on_c,9,43,127,
2,944,Note_on_c,9,45,127,
2,944,Note_on_c,9,48,127,
2,944,Note_on_c,9,51,127,
2,944,Note_on_c,9,53,127,
2,944,Note_on_c,9,80,127,
2,944,Note_on_c,9,81,127,
2,944,Note_on_c,9,82,127,
2,945,Note_off_c,9,36,0,
2,946,Note_on_c,9,36,127,
2,946,Note_on_c,9,37,127,
2,946,Note_on_c,9,38,127,
2,946,Note_on_c,9,39,127,
2,946,Note_on_c,9,41,127,
2,946,Note_on_c,9,42,127,
2,946,Note_on_c,9,43,127,
2,946,Note_on_c,9,45,127,
2,946,Note_on_c,9,48,127,
2,946,Note_on_c,9,51,127,
2,946,Note_on_c,9,53,127,
2,946,Note_on_c,9,80,127,
2,946,Note_on_c,9,81,127,
2,946,Note_on_c,9,82,127,
2,947,Note_off_c,9,36,0,
2,948,Note_on_c,9,36,127,
2,948,Note_on_c,9,37,127,
2,948,Note_on_c,9,38,127,
2,948,Note_on_c,9,39,127,
2,948,Note_on_c,9,41,127,
2,948,Note_on_c,9,42,127,
2,948,Note_on_c,9,43,127,
2,948,Note_on_c,9,45,127,
2,948,Note_on_c,9,48,127,
2,948,Note_on_c,9,51,127,
2,948,Note_on_c,9,53,127,
2,948,Note_on_c,9,80,127,
2,948,Note_on_c,9,81,127,
2,948,Note_on_c,9,82,127,
2,949,Note_off_c,9,36,0,
2,950,Note_on_c,9,36,127,
2,950,Note_on_c,9,37,127,
2,950,Note_on_c,9,38,127,
2,950,Note_on_c,9,39,127,
2,950,Note_on_c,9,41,127,
2,950,Note_on_c,9,42,127,
2,950,Note_on_c,9,43,127,
2,950,Note_on_c,9,45,127,
2,950,Note_on_c,9,48,127,
2,950,Note_on_c,9,51,127,
2,950,Note_on_c,9,53,127,
2,950,Note_on_c,9,80,127,
2,950,Note_on_c,9,81,127,
2,950,Note_on_c,9,82,127,
2,951,Note_off_c,9,36,0,
2,952,Note_on_c,9,36,127,
2,952,Note_on_c,9,37,127,
2,952,Note_on_c,9,38,127,
2,952,Note_on_c,9,39,127,
2,952,Note_on_c,9,41,127,
2,952,Note_on_c,9,42,127,
2,952,Note_on_c,9,43,127,
2,952,Note_on_c,9,45,127,
2,952,Note_on_c,9,48,127,
2,952,Note_on_c,9,51,127,
2,952,Note_on_c,9,53,127,
2,952,Note_on_c,9,80,127,
2,952,Note_on_c,9,81,127,
2,952,Note_on_c,9,82,127,
2,953,Note_off_c,9,36,0,
2,954,Note_on_c,9,36,127,
2,954,Note_on_c,9,37,127,
2,954,Note_on_c,9,38,127,
2,954,Note_on_c,9,39,127,
2,954,Note_on_c,9,41,127,
2,954,Note_on_c,9,42,127,
2,954,Note_on_c,9,43,127,
2,954,Note_on_c,9,45,127,
2,954,Note_on_c,9,48,127,
2,954,Note_on_c,9,51,127,
2,954,Note_on_c,9,53,127,
2,954,Note_on_c,9,80,127,
2,954,Note_on_c,9,81,127,
2,954,Note_on_c,9,82,127,
2,955,Note_off_c,9,36,0,
2,956,Note_on_c,9,36,127,
2,956,Note_on_c,9,37,127,
2,956,Note_on_c,9,38,127,
2,956,Note_on_c,9,39,127,
2,956,Note_on_c,9,41,127,
2,956,Note_on_c,9,42,127,
2,956,Note_on_c,9,43,127,
2,956,Note_on_c,9,45,127,
2,956,Note_on_c,9,48,127,
2,956,Note_on_c,9,51,127,
2,956,Note_on_c,9,53,127,
2,956,Note_on_c,9,80,127,
2,956,Note_on_c,9,81,127,
2,956,Note_on_c,9,82,127,
2,957,Note_off_c,9,36,0,
2,958,Note_on_c,9,36,127,
2,958,Note_on_c,9,37,127,
2,958,Note_on_c,9,38,127,
2,958,Note_on_c,9,39,127,
2,958,Note_on_c,9,41,127,
2,958,Note_on_c,9,42,127,
2,958,Note_on_c,9,43,127,
2,958,Note_on_c,9,45,127,
2,958,Note_on_c,9,48,127,
2,958,Note_on_c,9,51,127,
2,958,Note_on_c,9,53,127,
2,958,Note_on_c,9,80,127,
2,958,Note_on_c,9,81,127,
2,958,Note_on_c,9,82,127,
2,959,Note_off_c,9,36,0,
2,960,Note_on_c,9,36,127,
2,960,Note_on_c,9,37,127,
2,960,Note_on_c,9,38,127,
2,960,Note_on_c,9,39,127,
2,960,Note_on_c,9,41,127,
2,960,Note_on_c,9,42,127,
2,960,Note_on_c,9,43,127,
2,960,Note_on_c,9,45,127,
2,960,Note_on_c,9,48,127,
2,960,Note_on_c,9,51,127,
2,960,Note_on_c,9,53,127,
2,960,Note_on_c,9,80,127,
2,960,Note_on_c,9,81,127,
2,960,Note_on_c,9,82,127,
2,961,Note_off_c,9,36,0,
2,962,Note_on_c,9,36,127,
2,962,Note_on_c,9,37,127,
2,962,Note_on_c,9,38,127,
2,962,Note_on_c,9,39,127,
2,962,Note_on_c,9,41,127,
2,962,Note_on_c,9,42,127,
2,962,Note_on_c,9,43,127,
2,962,Note_on_c,9,45,127,
2,962,Note_on_c,9,48,127,
2,962,Note_on_c,9,51,127,
2,962,Note_on_c,9,53,127,
2,962,Note_on_c,9,80,127,
2,962,Note_on_c,9,81,127,
2,962,Note_on_c,9,82,127,
2,963,Note_off_c,9,36,0,
2,964,Note_on_c,9,36,127,
2,964,Note_on_c,9,37,127,
2,964,Note_on_c,9,38,127,
2,964,Note_on_c,9,39,127,
2,964,Note_on_c,9,41,127,
2,964,Note_on_c,9,42,127,
2,964,Note_on_c,9,43,127,
2,964,Note_on_c,9,45,127,
2,964,Note_on_c,9,48,127,
2,964,Note_on_c,9,51,127,
2,964,Note_on_c,9,53,127,
2,964,Note_on_c,9,80,127,
2,964,Note_on_c,9,81,127,
2,964,Note_on_c,9,82,127,
2,965,Note_off_c,9,36,0,
2,966,Note_on_c,9,36,127,
2,966,Note_on_c,9,37,127,
2,966,Note_on_c,9,38,127,
2,966,Note_on_c,9,39,127,
2,966,Note_on_c,9,41,127,
2,966,Note_on_c,9,42,127,
2,966,Note_on_c,9,43,127,
2,966,Note_on_c,9,45,127,
2,966,Note_on_c,9,48,127,
2,966,Note_on_c,9,51,127,
2,966,Note_on_c,9,53,127,
2,966,Note_on_c,9,80,127,
2,966,Note_on_c,9,81,127,
2,966,Note_on_c,9,82,127,
2,967,Note_off_c,9,36,0,
2,968,Note_on_c,9,36,127,
2,968,Note_on_c,9,37,127,
2,968,Note_on_c,9,38,127,
2,968,Note_on_c,9,39,127,
2,968,Note_on_c,9,41,127,
2,968,Note_on_c,9,42,127,
2,968,Note_on_c,9,43,127,
2,968,Note_on_c,9,45,127,
2,968,Note_on_c,9,48,127,
2,968,Note_on_c,9,51,127,
2,968,Note_on_c,9,53,127,
2,968,Note_on_c,9,80,127,
2,968,Note_on_c,9,81,127,
2,968,Note_on_c,9,82,127,
2,969,Note_off_c,9,36,0,
2,970,Note_on_c,9,36,127,
2,970,Note_on_c,9,37,127,
2,970,Note_on_c,9,38,127,
2,970,Note_on_c,9,39,127,
2,970,Note_on_c,9,41,127,
2,970,Note_on_c,9,42,127,
2,970,Note_on_c,9,43,127,
2,970,Note_on_c,9,45,127,
2,970,Note_on_c,9,48,127,
2,970,Note_on_c,9,51,127,
2,970,Note_on_c,9,53,127,
2,970,Note_on_c,9,80,127,
2,970,Note_on_c,9,81,127,
2,970,Note_on_c,9,82,127,
2,971,Note_off_c,9,36,0,
2,972,Note_on_c,9,36,127,
2,972,Note_on_c,9,37,127,
2,972,Note_on_c,9,38,127,
2,972,Note_on_c,9,39,127,
2,972,Note_on_c,9,41,127,
2,972,Note_on_c,9,42,127,
2,972,Note_on_c,9,43,127,
2,972,Note_on_c,9,45,127,
2,972,Note_on_c,9,48,127,
2,972,Note_on_c,9,51,127,
2,972,Note_on_c,9,53,127,
2,972,Note_on_c,9,80,127,
2,972,Note_on_c,9,81,127,
2,972,Note_on_c,9,82,127,
2,973,Note_off_c,9,36,0,
2,974,Note_on_c,9,36,127,
2,974,Note_on_c,9,37,127,
2,974,Note_on_c,9,38,127,
2,974,Note_on_c,9,39,127,
2,974,Note_on_c,9,41,127,
2,974,Note_on_c,9,42,127,
2,974,Note_on_c,9,43,127,
2,974,Note_on_c,9,45,127,
2,974,Note_on_c,9,48,127,
2,974,Note_on_c,9,51,127,
2,974,Note_on_c,9,53,127,
2,974,Note_on_c,9,80,127,
2,974,Note_on_c,9,81,127,
2,974,Note_on_c,9,82,127,
2,975,Note_off_c,9,36,0,
2,976,Note_on_c,9,36,127,
2,976,Note_on_c,9,37,127,
2,976,Note_on_c,9,38,127,
2,976,Note_on_c,9,39,127,
2,976,Note_on_c,9,41,127,
2,976,Note_on_c,9,42,127,
2,976,Note_on_c,9,43,127,
2,976,Note_on_c,9,45,127,
2,976,Note_on_c,9,48,127,
2,976,Note_on_c,9,51,127,
2,976,Note_on_c,9,53,127,
2,976,Note_on_c,9,80,127,
2,976,Note_on_c,9,81,127,
2,976,Note_on_c,9,82,127,
2,977,Note_off_c,9,36,0,
2,978,Note_on_c,9,36,127,
2,978,Note_on_c,9,37,127,
2,978,Note_on_c,9,38,127,
2,978,Note_on_c,9,39,127,
2,978,Note_on_c,9,41,127,
2,978,Note_on_c,9,42,127,
2,978,Note_on_c,9,43,127,
2,978,Note_on_c,9,45,127,
2,978,Note_on_c,9,48,127,
2,978,Note_on_c,9,51,127,
2,978,Note_on_c,9,53,127,
2,978,Note_on_c,9,80,127,
2,978,Note_on_c,9,81,127,
2,978,Note_on_c,9,82,127,
2,979,Note_off_c,9,36,0,
2,980,Note_on_c,9,36,127,
2,980,Note_on_c,9,37,127,
2,980,Note_on_c,9,38,127,
2,980,Note_on_c,9,39,127,
2,980,Note_on_c,9,41,127,
2,980,Note_on_c,9,42,127,
2,980,Note_on_c,9,43,127,
2,980,Note_on_c,9,45,127,
2,980,Note_on_c,9,48,127,
2,980,Note_on_c,9,51,127,
2,980,Note_on_c,9,53,127,
2,980,Note_on_c,9,80,127,
2,980,Note_on_c,9,81,127,
2,980,Note_on_c,9,82,127,
2,981,Note_off_c,9,36,0,
2,982,Note_on_c,9,36,127,
2,982,Note_on_c,9,37,127,
2,982,Note_on_c,9,38,127,
2,982,Note_on_c,9,39,127,
2,982,Note_on_c,9,41,127,
2,982,Note_on_c,9,42,127,
2,982,Note_on_c,9,43,127,
2,982,Note_on_c,9,45,127,
2,982,Note_on_c,9,48,127,
2,982,Note_on_c,9,51,127,
2,982,Note_on_c,9,53,127,
2,982,Note_on_c,9,80,127,
2,982,Note_on_c,9,81,127,
2,982,Note_on_c,9,82,127,
2,983,Note_off_c,9,36,0,
2,984,Note_on_c,9,36,127,
2,984,Note_on_c,9,37,127,
2,984,Note_on_c,9,38,127,
2,984,Note_on_c,9,39,127,
2,984,Note_on_c,9,41,127,
2,984,Note_on_c,9,42,127,
2,984,Note_on_c,9,43,127,
2,984,Note_on_c,9,45,127,
2,984,Note_on_c,9,48,127,
2,984,Note_on_c,9,51,127,
2,984,Note_on_c,9,53,127,
2,984,Note_on_c,9,80,127,
2,984,Note_on_c,9,81,127,
2,984,Note_on_c,9,82,127,
2,985,Note_off_c,9,36,0,
2,986,Note_on_c,9,36,127,
2,986,Note_on_c,9,37,127,
2,986,Note_on_c,9,38,127,
2,986,Note_on_c,9,39,127,
2,986,Note_on_c,9,41,127,
2,986,Note_on_c,9,42,127,
2,986,Note_on_c,9,43,127,
2,986,Note_on_c,9,45,127,
2,986,Note_on_c,9,48,127,
2,986,Note_on_c,9,51,127,
2,986,Note_on_c,9,53,127,
2,986,Note_on_c,9,80,127,
2,986,Note_on_c,9,81,127,
2,986,Note_on_c,9,82,127,
2,987,Note_off_c,9,36,0,
2,988,Note_on_c,9,36,127,
2,988,Note_on_c,9,37,127,
2,988,Note_on_c,9,38,127,
2,988,Note_on_c,9,39,127,
2,988,Note_on_c,9,41,127,
2,988,Note_on_c,9,42,127,
2,988,Note_on_c,9,43,127,
2,988,Note_on_c,9,45,127,
2,988,Note_on_c,9,48,127,
2,988,Note_on_c,9,51,127,
2,988,Note_on_c,9,53,127,
2,988,Note_on_c,9,80,127,
2,988,Note_on_c,9,81,127,
2,988,Note_on_c,9,82,127,
2,989,Note_off_c,9,36,0,
2,990,Note_on_c,9,36,127,
2,990,Note_on_c,9,37,127,
2,990,Note_on_c,9,38,127,
2,990,Note_on_c,9,39,127,
2,990,Note_on_c,9,41,127,
2,990,Note_on_c,9,42,127,
2,990,Note_on_c,9,43,127,
2,990,Note_on_c,9,45,127,
2,990,Note_on_c,9,48,127,
2,990,Note_on_c,9,51,127,
2,990,Note_on_c,9,53,127,
2,990,Note_on_c,9,80,127,
2,990,Note_on_c,9,81,127,
2,990,Note_on_c,9,82,127,
2,991,Note_off_c,9,36,0,
2,992,Note_on_c,9,36,127,
2,992,Note_on_c,9,37,127,
2,992,Note_on_c,9,38,127,
2,992,Note_on_c,9,39,127,
2,992,Note_on_c,9,41,127,
2,992,Note_on_c,9,42,127,
2,992,Note_on_c,9,43,127,
2,992,Note_on_c,9,45,127,
2,992,Note_on_c,9,48,127,
2,992,Note_on_c,9,51,127,
2,992,Note_on_c,9,53,127,
2,992,Note_on_c,9,80,127,
2,992,Note_on_c,9,81,127,
2,992,Note_on_c,9,82,127,
2,993,Note_off_c,9,36,0,
2,994,Note_on_c,9,36,127,
2,994,Note_on_c,9,37,127,
2,994,Note_on_c,9,38,127,
2,994,Note_on_c,9,39,127,
2,994,Note_on_c,9,41,127,
2,994,Note_on_c,9,42,127,
2,994,Note_on_c,9,43,127,
2,994,Note_on_c,9,45,127,
2,994,Note_on_c,9,48,127,
2,994,Note_on_c,9,51,127,
2,994,Note_on_c,9,53,127,
2,994,Note_on_c,9,80,127,
2,994,Note_on_c,9,81,127,
2,994,Note_on_c,9,82,127,
2,995,Note_off_c,9,36,0,
2,996,Note_on_c,9,36,127,
2,996,Note_on_c,9,37,127,
2,996,Note_on_c,9,38,127,
2,996,Note_on_c,9,39,127,
2,996,Note_on_c,9,41,127,
2,996,Note_on_c,9,42,127,
2,996,Note_on_c,9,43,127,
2,996,Note_on_c,9,45,127,
2,996,Note_on_c,9,48,127,
2,996,Note_on_c,9,51,127,
2,996,Note_on_c,9,53,127,
2,996,Note_on_c,9,80,127,
2,996,Note_on_c,9,81,127,
2,996,Note_on_c,9,82,127,
2,997,Note_off_c,9,36,0,
2,998,Note_on_c,9,36,127,
2,998,Note_on_c,9,37,127,
2,998,Note_on_c,9,38,127,
2,998,Note_on_c,9,39,127,
2,998,Note_on_c,9,41,127,
2,998,Note_on_c,9,42,127,
2,998,Note_on_c,9,43,127,
2,998,Note_on_c,9,45,127,
2,998,Note_on_c,9,48,127,
2,998,Note_on_c,9,51,127,
2,998,Note_on_c,9,53,127,
2,998,Note_on_c,9,80,127,
2,998,Note_on_c,9,81,127,
2,998,Note_on_c,9,82,127,
2,999,Note_off_c,9,36,0,
2,1000,Note_on_c,9,36,127,
2,1000,Note_on_c,9,37,127,
2,1000,Note_on_c,9,38,127,
2,1000,Note_on_c,9,39,127,
2,1000,Note_on_c,9,41,127,
2,1000,Note_on_c,9,42,127,
2,1000,Note_on_c,9,43,127,
2,1000,Note_on_c,9,45,127,
2,1000,Note_on_c,9,48,127,
2,1000,Note_on_c,9,51,127,
2,1000,Note_on_c,9,53,127,
2,1000,Note_on_c,9,80,127,
2,1000,Note_on_c,9,81,127,
2,1000,Note_on_c,9,82,127,
2,1001,Note_off_c,9,36,0,
2,1002,Note_on_c,9,36,127,
2,1002,Note_on_c,9,37,127,
2,1002,Note_on_c,9,38,127,
2,1002,Note_on_c,9,39,127,
2,1002,Note_on_c,9,41,127,
2,1002,Note_on_c,9,42,127,
2,1002,Note_on_c,9,43,127,
2,1002,Note_on_c,9,45,127,
2,1002,Note_on_c,9,48,127,
2,1002,Note_on_c,9,51,127,
2,1002,Note_on_c,9,53,127,
2,1002,Note_on_c,9,80,127,
2,1002,Note_on_c,9,81,127,
2,1002,Note_on_c,9,82,127,
2,1003,Note_off_c,9,36,0,
2,1004,Note_on_c,9,36,127,
2,1004,Note_on_c,9,37,127,
2,1004,Note_on_c,9,38,127,
2,1004,Note_on_c,9,39,127,
2,1004,Note_on_c,9,41,127,
2,1004,Note_on_c,9,42,127,
2,1004,Note_on_c,9,43,127,
2,1004,Note_on_c,9,45,127,
2,1004,Note_on_c,9,48,127,
2,1004,Note_on_c,9,51,127,
2,1004,Note_on_c,9,53,127,
2,1004,Note_on_c,9,80,127,
2,1004,Note_on_c,9,81,127,
2,1004,Note_on_c,9,82,127,
2,1005,Note_off_c,9,36,0,
2,1006,Note_on_c,9,36,127,
2,1006,Note_on_c,9,37,127,
2,1006,Note_on_c,9,38,127,
2,1006,Note_on_c,9,39,127,
2,1006,Note_on_c,9,41,127,
2,1006,Note_on_c,9,42,127,
2,1006,Note_on_c,9,43,127,
2,1006,Note_on_c,9,45,127,
2,1006,Note_on_c,9,48,127,
2,1006,Note_on_c,9,51,127,
2,1006,Note_on_c,9,53,127,
2,1006,Note_on_c,9,80,127,
2,1006,Note_on_c,9,81,127,
2,1006,Note_on_c,9,82,127,
2,1007,Note_off_c,9,36,0,
2,1008,Note_on_c,9,36,127,
2,1008,Note_on_c,9,37,127,
2,1008,Note_on_c,9,38,127,
2,1008,Note_on_c,9,39,127,
2,1008,Note_on_c,9,41,127,
2,1008,Note_on_c,9,42,127,
2,1008,Note_on_c,9,43,127,
2,1008,Note_on_c,9,45,127,
2,1008,Note_on_c,9,48,127,
2,1008,Note_on_c,9,51,127,
2,1008,Note_on_c,9,53,127,
2,1008,Note_on_c,9,80,127,
2,1008,Note_on_c,9,81,127,
2,1008,Note_on_c,9,82,127,
2,1009,Note_off_c,9,36,0,
2,1010,Note_on_c,9,36,127,
2,1010,Note_on_c,9,37,127,
2,1010,Note_on_c,9,38,127,
2,1010,Note_on_c,9,39,127,
2,1010,Note_on_c,9,41,127,
2,1010,Note_on_c,9,42,127,
2,1010,Note_on_c,9,43,127,
2,1010,Note_on_c,9,45,127,
2,1010,Note_on_c,9,48,127,
2,1010,Note_on_c,9,51,127,
2,1010,Note_on_c,9,53,127,
2,1010,Note_on_c,9,80,127,
2,1010,Note_on_c,9,81,127,
2,1010,Note_on_c,9,82,127,
2,1011,Note_off_c,9,36,0,
2,1012,Note_on_c,9,36,127,
2,1012,Note_on_c,9,37,127,
2,1012,Note_on_c,9,38,127,
2,1012,Note_on_c,9,39,127,
2,1012,Note_on_c,9,41,127,
2,1012,Note_on_c,9,42,127,
2,1012,Note_on_c,9,43,127,
2,1012,Note_on_c,9,45,127,
2,1012,Note_on_c,9,48,127,
2,1012,Note_on_c,9,51,127,
2,1012,Note_on_c,9,53,127,
2,1012,Note_on_c,9,80,127,
2,1012,Note_on_c,9,81,127,
2,1012,Note_on_c,9,82,127,
2,1013,Note_off_c,9,36,0,
2,1014,Note_on_c,9,36,127,
2,1014,Note_on_c,9,37,127,
2,1014,Note_on_c,9,38,127,
2,1014,Note_on_c,9,39,127,
2,1014,Note_on_c,9,41,127,
2,1014,Note_on_c,9,42,127,
2,1014,Note_on_c,9,43,127,
2,1014,Note_on_c,9,45,127,
2,1014,Note_on_c,9,48,127,
2,1014,Note_on_c,9,51,127,
2,1014,Note_on_c,9,53,127,
2,1014,Note_on_c,9,80,127,
2,1014,Note_on_c,9,81,127,
2,1014,Note_on_c,9,82,127,
2,1015,Note_off_c,9,36,0,
2,1016,Note_on_c,9,36,127,
2,1016,Note_on_c,9,37,127,
2,1016,Note_on_c,9,38,127,
2,1016,Note_on_c,9,39,127,
2,1016,Note_on_c,9,41,127,
2,1016,Note_on_c,9,42,127,
2,1016,Note_on_c,9,43,127,
2,1016,Note_on_c,9,45,127,
2,1016,Note_on_c,9,48,127,
2,1016,Note_on_c,9,51,127,
2,1016,Note_on_c,9,53,127,
2,1016,Note_on_c,9,80,127,
2,1016,Note_on_c,9,81,127,
2,1016,Note_on_c,9,82,127,
2,1017,Note_off_c,9,36,0,
2,1018,Note_on_c,9,36,127,
2,1018,Note_on_c,9,37,127,
2,1018,Note_on_c,9,38,127,
2,1018,Note_on_c,9,39,127,
2,1018,Note_on_c,9,41,127,
2,1018,Note_on_c,9,42,127,
2,1018,Note_on_c,9,43,127,
2,1018,Note_on_c,9,45,127,
2,1018,Note_on_c,9,48,127,
2,1018,Note_on_c,9,51,127,
2,1018,Note_on_c,9,53,127,
2,1018,Note_on_c,9,80,127,
2,1018,Note_on_c,9,81,127,
2,1018,Note_on_c,9,82,127,
2,1019,Note_off_c,9,36,0,
2,1020,Note_on_c,9,36,127,
2,1020,Note_on_c,9,37,127,
2,1020,Note_on_c,9,38,127,
2,1020,Note_on_c,9,39,127,
2,1020,Note_on_c,9,41,127,
2,1020,Note_on_c,9,42,127,
2,1020,Note_on_c,9,43,127,
2,1020,Note_on_c,9,45,127,
2,1020,Note_on_c,9,48,127,
2,1020,Note_on_c,9,51,127,
2,1020,Note_on_c,9,53,127,
2,1020,Note_on_c,9,80,127,
2,1020,Note_on_c,9,81,127,
2,1020,Note_on_c,9,82,127,
2,1021,Note_off_c,9,36,0,
2,1022,Note_on_c,9,36,127,
2,1022,Note_on_c,9,37,127,
2,1022,Note_on_c,9,38,127,
2,1022,Note_on_c,9,39,127,
2,1022,Note_on_c,9,41,127,
2,1022,Note_on_c,9,42,127,
2,1022,Note_on_c,9,43,127,
2,1022,Note_on_c,9,45,127,
2,1022,Note_on_c,9,48,127,
2,1022,Note_on_c,9,51,127,
2,1022,Note_on_c,9,53,127,
2,1022,Note_on_c,9,80,127,
2,1022,Note_on_c,9,81,127,
2,1022,Note_on_c,9,82,127,
2,1023,Note_off_c,9,36,0,
2,1024,Note_on_c,9,36,127,
2,1024,Note_on_c,9,37,127,
2,1024,Note_on_c,9,38,127,
2,1024,Note_on_c,9,39,127,
2,1024,Note_on_c,9,41,127,
2,1024,Note_on_c,9,42,127,
2,1024,Note_on_c,9,43,127,
2,1024,Note_on_c,9,45,127,
2,1024,Note_on_c,9,48,127,
2,1024,Note_on_c,9,51,127,
2,1024,Note_on_c,9,53,127,
2,1024,Note_on_c,9,80,127,
2,1024,Note_on_c,9,81,127,
2,1024,Note_on_c,9,82,127,
2,1025,Note_off_c,9,36,0,
2,1026,Note_on_c,9,36,127,
2,1026,Note_on_c,9,37,127,
2,1026,Note_on_c,9,38,127,
2,1026,Note_on_c,9,39,127,
2,1026,Note_on_c,9,41,127,
2,1026,Note_on_c,9,42,127,
2,1026,Note_on_c,9,43,127,
2,1026,Note_on_c,9,45,127,
2,1026,Note_on_c,9,48,127,
2,1026,Note_on_c,9,51,127,
2,1026,Note_on_c,9,53,127,
2,1026,Note_on_c,9,80,127,
2,1026,Note_on_c,9,81,127,
2,1026,Note_on_c,9,82,127,
2,1027,Note_off_c,9,36,0,
2,1028,Note_on_c,9,36,127,
2,1028,Note_on_c,9,37,127,
2,1028,Note_on_c,9,38,127,
2,1028,Note_on_c,9,39,127,
2,1028,Note_on_c,9,41,127,
2,1028,Note_on_c,9,42,127,
2,1028,Note_on_c,9,43,127,
2,1028,Note_on_c,9,45,127,
2,1028,Note_on_c,9,48,127,
2,1028,Note_on_c,9,51,127,
2,1028,Note_on_c,9,53,127,
2,1028,Note_on_c,9,80,127,
2,1028,Note_on_c,9,81,127,
2,1028,Note_on_c,9,82,127,
2,1029,Note_off_c,9,36,0,
2,1030,Note_on_c,9,36,127,
2,1030,Note_on_c,9,37,127,
2,1030,Note_on_c,9,38,127,
2,1030,Note_on_c,9,39,127,
2,1030,Note_on_c,9,41,127,
2,1030,Note_on_c,9,42,127,
2,1030,Note_on_c,9,43,127,
2,1030,Note_on_c,9,45,127,
2,1030,Note_on_c,9,48,127,
2,1030,Note_on_c,9,51,127,
2,1030,Note_on_c,9,53,127,
2,1030,Note_on_c,9,80,127,
2,1030,Note_on_c,9,81,127,
2,1030,Note_on_c,9,82,127,
2,1031,Note_off_c,9,36,0,
2,1032,Note_on_c,9,36,127,
2,1032,Note_on_c,9,37,127,
2,1032,Note_on_c,9,38,127,
2,1032,Note_on_c,9,39,127,
2,1032,Note_on_c,9,41,127,
2,1032,Note_on_c,9,42,127,
2,1032,Note_on_c,9,43,127,
2,1032,Note_on_c,9,45,127,
2,1032,Note_on_c,9,48,127,
2,1032,Note_on_c,9,51,127,
2,1032,Note_on_c,9,53,127,
2,1032,Note_on_c,9,80,127,
2,1032,Note_on_c,9,81,127,
2,1032,Note_on_c,9,82,127,
2,1033,Note_off_c,9,36,0,
2,1034,Note_on_c,9,36,127,
2,1034,Note_on_c,9,37,127,
2,1034,Note_on_c,9,38,127,
2,1034,Note_on_c,9,39,127,
2,1034,Note_on_c,9,41,127,
2,1034,Note_on_c,9,42,127,
2,1034,Note_on_c,9,43,127,
2,1034,Note_on_c,9,45,127,
2,1034,Note_on_c,9,48,127,
2,1034,Note_on_c,9,51,127,
2,1034,Note_on_c,9,53,127,
2,1034,Note_on_c,9,80,127,
2,1034,Note_on_c,9,81,127,
2,1034,Note_on_c,9,82,127,
2,1035,Note_off_c,9,36,0,
2,1036,Note_on_c,9,36,127,
2,1036,Note_on_c,9,37,127,
2,1036,Note_on_c,9,38,127,
2,1036,Note_on_c,9,39,127,
2,1036,Note_on_c,9,41,127,
2,1036,Note_on_c,9,42,127,
2,1036,Note_on_c,9,43,127,
2,1036,Note_on_c,9,45,127,
2,1036,Note_on_c,9,48,127,
2,1036,Note_on_c,9,51,127,
2,1036,Note_on_c,9,53,127,
2,1036,Note_on_c,9,80,127,
2,1036,Note_on_c,9,81,127,
2,1036,Note_on_c,9,82,127,
2,1037,Note_off_c,9,36,0,
2,1038,Note_on_c,9,36,127,
2,1038,Note_on_c,9,37,127,
2,1038,Note_on_c,9,38,127,
2,1038,Note_on_c,9,39,127,
2,1038,Note_on_c,9,41,127,
2,1038,Note_on_c,9,42,127,
2,1038,Note_on_c,9,43,127,
2,1038,Note_on_c,9,45,127,
2,1038,Note_on_c,9,48,127,
2,1038,Note_on_c,9,51,127,
2,1038,Note_on_c,9,53,127,
2,1038,Note_on_c,9,80,127,
2,1038,Note_on_c,9,81,127,
2,1038,Note_on_c,9,82,127,
2,1039,Note_off_c,9,36,0,
2,1040,Note_on_c,9,36,127,
2,1040,Note_on_c,9,37,127,
2,1040,Note_on_c,9,38,127,
2,1040,Note_on_c,9,39,127,
2,1040,Note_on_c,9,41,127,
2,1040,Note_on_c,9,42,127,
2,1040,Note_on_c,9,43,127,
2,1040,Note_on_c,9,45,127,
2,1040,Note_on_c,9,48,127,
2,1040,Note_on_c,9,51,127,
2,1040,Note_on_c,9,53,127,
2,1040,Note_on_c,9,80,127,
2,1040,Note_on_c,9,81,127,
2,1040,Note_on_c,9,82,127,
2,1041,Note_off_c,9,36,0,
2,1042,Note_on_c,9,36,127,
2,1042,Note_on_c,9,37,127,
2,1042,Note_on_c,9,38,127,
2,1042,Note_on_c,9,39,127,
2,1042,Note_on_c,9,41,127,
2,1042,Note_on_c,9,42,127,
2,1042,Note_on_c,9,43,127,
2,1042,Note_on_c,9,45,127,
2,1042,Note_on_c,9,48,127,
2,1042,Note_on_c,9,51,127,
2,1042,Note_on_c,9,53,127,
2,1042,Note_on_c,9,80,127,
2,1042,Note_on_c,9,81,127,
2,1042,Note_on_c,9,82,127,
2,1043,Note_off_c,9,36,0,
2,1044,Note_on_c,9,36,127,
2,1044,Note_on_c,9,37,127,
2,1044,Note_on_c,9,38,127,
2,1044,Note_on_c,9,39,127,
2,1044,Note_on_c,9,41,127,
2,1044,Note_on_c,9,42,127,
2,1044,Note_on_c,9,43,127,
2,1044,Note_on_c,9,45,127,
2,1044,Note_on_c,9,48,127,
2,1044,Note_on_c,9,51,127,
2,1044,Note_on_c,9,53,127,
2,1044,Note_on_c,9,80,127,
2,1044,Note_on_c,9,81,127,
2,1044,Note_on_c,9,82,127,
2,1045,Note_off_c,9,36,0,
2,1046,Note_on_c,9,36,127,
2,1046,Note_on_c,9,37,127,
2,1046,Note_on_c,9,38,127,
2,1046,Note_on_c,9,39,127,
2,1046,Note_on_c,9,41,127,
2,1046,Note_on_c,9,42,127,
2,1046,Note_on_c,9,43,127,
2,1046,Note_on_c,9,45,127,
2,1046,Note_on_c,9,48,127,
2,1046,Note_on_c,9,51,127,
2,1046,Note_on_c,9,53,127,
2,1046,Note_on_c,9,80,127,
2,1046,Note_on_c,9,81,127,
2,1046,Note_on_c,9,82,127,
2,1047,Note_off_c,9,36,0,
2,1048,Note_on_c,9,36,127,
2,1048,Note_on_c,9,37,127,
2,1048,Note_on_c,9,38,127,
2,1048,Note_on_c,9,39,127,
2,1048,Note_on_c,9,41,127,
2,1048,Note_on_c,9,42,127,
2,1048,Note_on_c,9,43,127,
2,1048,Note_on_c,9,45,127,
2,1048,Note_on_c,9,48,127,
2,1048,Note_on_c,9,51,127,
2,1048,Note_on_c,9,53,127,
2,1048,Note_on_c,9,80,127,
2,1048,Note_on_c,9,81,127,
2,1048,Note_on_c,9,82,127,
2,1049,Note_off_c,9,36,0,
2,1050,Note_on_c,9,36,127,
2,1050,Note_on_c,9,37,127,
2,1050,Note_on_c,9,38,127,
2,1050,Note_on_c,9,39,127,
2,1050,Note_on_c,9,41,127,
2,1050,Note_on_c,9,42,127,
2,1050,Note_on_c,9,43,127,
2,1050,Note_on_c,9,45,127,
2,1050,Note_on_c,9,48,127,
2,1050,Note_on_c,9,51,127,
2,1050,Note_on_c,9,53,127,
2,1050,Note_on_c,9,80,127,
2,1050,Note_on_c,9,81,127,
2,1050,Note_on_c,9,82,127,
2,1051,Note_off_c,9,36,0,
2,1052,Note_on_c,9,36,127,
2,1052,Note_on_c,9,37,127,
2,1052,Note_on_c,9,38,127,
2,1052,Note_on_c,9,39,127,
2,1052,Note_on_c,9,41,127,
2,1052,Note_on_c,9,42,127,
2,1052,Note_on_c,9,43,127,
2,1052,Note_on_c,9,45,127,
2,1052,Note_on_c,9,48,127,
2,1052,Note_on_c,9,51,127,
2,1052,Note_on_c,9,53,127,
2,1052,Note_on_c,9,80,127,
2,1052,Note_on_c,9,81,127,
2,1052,Note_on_c,9,82,127,
2,1053,Note_off_c,9,36,0,
2,1054,Note_on_c,9,36,127,
2,1054,Note_on_c,9,37,127,
2,1054,Note_on_c,9,38,127,
2,1054,Note_on_c,9,39,127,
2,1054,Note_on_c,9,41,127,
2,1054,Note_on_c,9,42,127,
2,1054,Note_on_c,9,43,127,
2,1054,Note_on_c,9,45,127,
2,1054,Note_on_c,9,48,127,
2,1054,Note_on_c,9,51,127,
2,1054,Note_on_c,9,53,127,
2,1054,Note_on_c,9,80,127,
2,1054,Note_on_c,9,81,127,
2,1054,Note_on_c,9,82,127,
2,1055,Note_off_c,9,36,0,
2,1056,Note_on_c,9,36,127,
2,1056,Note_on_c,9,37,127,
2,1056,Note_on_c,9,38,127,
2,1056,Note_on_c,9,39,127,
2,1056,Note_on_c,9,41,127,
2,1056,Note_on_c,9,42,127,
2,1056,Note_on_c,9,43,127,
2,1056,Note_on_c,9,45,127,
2,1056,Note_on_c,9,48,127,
2,1056,Note_on_c,9,51,127,
2,1056,Note_on_c,9,53,127,
2,1056,Note_on_c,9,80,127,
2,1056,Note_on_c,9,81,127,
2,1056,Note_on_c,9,82,127,
2,1057,Note_off_c,9,36,0,
2,1058,Note_on_c,9,36,127,
2,1058,Note_on_c,9,37,127,
2,1058,Note_on_c,9,38,127,
2,1058,Note_on_c,9,39,127,
2,1058,Note_on_c,9,41,127,
2,1058,Note_on_c,9,42,127,
2,1058,Note_on_c,9,43,127,
2,1058,Note_on_c,9,45,127,
2,1058,Note_on_c,9,48,127,
2,1058,Note_on_c,9,51,127,
2,1058,Note_on_c,9,53,127,
2,1058,Note_on_c,9,80,127,
2,1058,Note_on_c,9,81,127,
2,1058,Note_on_c,9,82,127,
2,1059,Note_off_c,9,36,0,
2,1060,Note_on_c,9,36,127,
2,1060,Note_on_c,9,37,127,
2,1060,Note_on_c,9,38,127,
2,1060,Note_on_c,9,39,127,
2,1060,Note_on_c,9,41,127,
2,1060,Note_on_c,9,42,127,
2,1060,Note_on_c,9,43,127,
2,1060,Note_on_c,9,45,127,
2,1060,Note_on_c,9,48,127,
2,1060,Note_on_c,9,51,127,
2,1060,Note_on_c,9,53,127,
2,1060,Note_on_c,9,80,127,
2,1060,Note_on_c,9,81,127,
2,1060,Note_on_c,9,82,127,
2,1061,Note_off_c,9,36,0,
2,1062,Note_on_c,9,36,127,
2,1062,Note_on_c,9,37,127,
2,1062,Note_on_c,9,38,127,
2,1062,Note_on_c,9,39,127,
2,1062,Note_on_c,9,41,127,
2,1062,Note_on_c,9,42,127,
2,1062,Note_on_c,9,43,127,
2,1062,Note_on_c,9,45,127,
2,1062,Note_on_c,9,48,127,
2,1062,Note_on_c,9,51,127,
2,1062,Note_on_c,9,53,127,
2,1062,Note_on_c,9,80,127,
2,1062,Note_on_c,9,81,127,
2,1062,Note_on_c,9,82,127,
2,1063,Note_off_c,9,36,0,
2,1064,Note_on_c,9,36,127,
2,1064,Note_on_c,9,37,127,
2,1064,Note_on_c,9,38,127,
2,1064,Note_on_c,9,39,127,
2,1064,Note_on_c,9,41,127,
2,1064,Note_on_c,9,42,127,
2,1064,Note_on_c,9,43,127,
2,1064,Note_on_c,9,45,127,
2,1064,Note_on_c,9,48,127,
2,1064,Note_on_c,9,51,127,
2,1064,Note_on_c,9,53,127,
2,1064,Note_on_c,9,80,127,
2,1064,Note_on_c,9,81,127,
2,1064,Note_on_c,9,82,127,
2,1065,Note_off_c,9,36,0,
2,1066,Note_on_c,9,36,127,
2,1066,Note_on_c,9,37,127,
2,1066,Note_on_c,9,38,127,
2,1066,Note_on_c,9,39,127,
2,1066,Note_on_c,9,41,127,
2,1066,Note_on_c,9,42,127,
2,1066,Note_on_c,9,43,127,
2,1066,Note_on_c,9,45,127,
2,1066,Note_on_c,9,48,127,
2,1066,Note_on_c,9,51,127,
2,1066,Note_on_c,9,53,127,
2,1066,Note_on_c,9,80,127,
2,1066,Note_on_c,9,81,127,
2,1066,Note_on_c,9,82,127,
2,1067,Note_off_c,9,36,0,
2,1068,Note_on_c,9,36,127,
2,1068,Note_on_c,9,37,127,
2,1068,Note_on_c,9,38,127,
2,1068,Note_on_c,9,39,127,
2,1068,Note_on_c,9,41,127,
2,1068,Note_on_c,9,42,127,
2,1068,Note_on_c,9,43,127,
2,1068,Note_on_c,9,45,127,
2,1068,Note_on_c,9,48,127,
2,1068,Note_on_c,9,51,127,
2,1068,Note_on_c,9,53,127,
2,1068,Note_on_c,9,80,127,
2,1068,Note_on_c,9,81,127,
2,1068,Note_on_c,9,82,127,
2,1069,Note_off_c,9,36,0,
2,1070,Note_on_c,9,36,127,
2,1070,Note_on_c,9,37,127,
2,1070,Note_on_c,9,38,127,
2,1070,Note_on_c,9,39,127,
2,1070,Note_on_c,9,41,127,
2,1070,Note_on_c,9,42,127,
2,1070,Note_on_c,9,43,127,
2,1070,Note_on_c,9,45,127,
2,1070,Note_on_c,9,48,127,
2,1070,Note_on_c,9,51,127,
2,1070,Note_on_c,9,53,127,
2,1070,Note_on_c,9,80,127,
2,1070,Note_on_c,9,81,127,
2,1070,Note_on_c,9,82,127,
2,1071,Note_off_c,9,36,0,
2,1072,Note_on_c,9,36,127,
2,1072,Note_on_c,9,37,127,
2,1072,Note_on_c,9,38,127,
2,1072,Note_on_c,9,39,127,
2,1072,Note_on_c,9,41,127,
2,1072,Note_on_c,9,42,127,
2,1072,Note_on_c,9,43,127,
2,1072,Note_on_c,9,45,127,
2,1072,Note_on_c,9,48,127,
2,1072,Note_on_c,9,51,127,
2,1072,Note_on_c,9,53,127,
2,1072,Note_on_c,9,80,127,
2,1072,Note_on_c,9,81,127,
2,1072,Note_on_c,9,82,127,
2,1073,Note_off_c,9,36,0,
2,1074,Note_on_c,9,36,127,
2,1074,Note_on_c,9,37,127,
2,1074,Note_on_c,9,38,127,
2,1074,Note_on_c,9,39,127,
2,1074,Note_on_c,9,41,127,
2,1074,Note_on_c,9,42,127,
2,1074,Note_on_c,9,43,127,
2,1074,Note_on_c,9,45,127,
2,1074,Note_on_c,9,48,127,
2,1074,Note_on_c,9,51,127,
2,1074,Note_on_c,9,53,127,
2,1074,Note_on_c,9,80,127,
2,1074,Note_on_c,9,81,127,
2,1074,Note_on_c,9,82,127,
2,1075,Note_off_c,9,36,0,
2,1076,Note_on_c,9,36,127,
2,1076,Note_on_c,9,37,127,
2,1076,Note_on_c,9,38,127,
2,1076,Note_on_c,9,39,127,
2,1076,Note_on_c,9,41,127,
2,1076,Note_on_c,9,42,127,
2,1076,Note_on_c,9,43,127,
2,1076,Note_on_c,9,45,127,
2,1076,Note_on_c,9,48,127,
2,1076,Note_on_c,9,51,127,
2,1076,Note_on_c,9,53,127,
2,1076,Note_on_c,9,80,127,
2,1076,Note_on_c,9,81,127,
2,1076,Note_on_c,9,82,127,
2,1077,Note_off_c,9,36,0,
2,1078,Note_on_c,9,36,127,
2,1078,Note_on_c,9,37,127,
2,1078,Note_on_c,9,38,127,
2,1078,Note_on_c,9,39,127,
2,1078,Note_on_c,9,41,127,
2,1078,Note_on_c,9,42,127,
2,1078,Note_on_c,9,43,127,
2,1078,Note_on_c,9,45,127,
2,1078,Note_on_c,9,48,127,
2,1078,Note_on_c,9,51,127,
2,1078,Note_on_c,9,53,127,
2,1078,Note_on_c,9,80,127,
2,1078,Note_on_c,9,81,127,
2,1078,Note_on_c,9,82,127,
2,1079,Note_off_c,9,36,0,
2,1080,Note_on_c,9,36,127,
2,1080,Note_on_c,9,37,127,
2,1080,Note_on_c,9,38,127,
2,1080,Note_on_c,9,39,127,
2,1080,Note_on_c,9,41,127,
2,1080,Note_on_c,9,42,127,
2,1080,Note_on_c,9,43,127,
2,1080,Note_on_c,9,45,127,
2,1080,Note_on_c,9,48,127,
2,1080,Note_on_c,9,51,127,
2,1080,Note_on_c,9,53,127,
2,1080,Note_on_c,9,80,127,
2,1080,Note_on_c,9,81,127,
2,1080,Note_on_c,9,82,127,
2,1081,Note_off_c,9,36,0,
2,1082,Note_on_c,9,36,127,
2,1082,Note_on_c,9,37,127,
2,1082,Note_on_c,9,38,127,
2,1082,Note_on_c,9,39,127,
2,1082,Note_on_c,9,41,127,
2,1082,Note_on_c,9,42,127,
2,1082,Note_on_c,9,43,127,
2,1082,Note_on_c,9,45,127,
2,1082,Note_on_c,9,48,127,
2,1082,Note_on_c,9,51,127,
2,1082,Note_on_c,9,53,127,
2,1082,Note_on_c,9,80,127,
2,1082,Note_on_c,9,81,127,
2,1082,Note_on_c,9,82,127,
2,1083,Note_off_c,9,36,0,
2,1084,Note_on_c,9,36,127,
2,1084,Note_on_c,9,37,127,
2,1084,Note_on_c,9,38,127,
2,1084,Note_on_c,9,39,127,
2,1084,Note_on_c,9,41,127,
2,1084,Note_on_c,9,42,127,
2,1084,Note_on_c,9,43,127,
2,1084,Note_on_c,9,45,127,
2,1084,Note_on_c,9,48,127,
2,1084,Note_on_c,9,51,127,
2,1084,Note_on_c,9,53,127,
2,1084,Note_on_c,9,80,127,
2,1084,Note_on_c,9,81,127,
2,1084,Note_on_c,9,82,127,
2,1085,Note_off_c,9,36,0,
2,1086,Note_on_c,9,36,127,
2,1086,Note_on_c,9,37,127,
2,1086,Note_on_c,9,38,127,
2,1086,Note_on_c,9,39,127,
2,1086,Note_on_c,9,41,127,
2,1086,Note_on_c,9,42,127,
2,1086,Note_on_c,9,43,127,
2,1086,Note_on_c,9,45,127,
2,1086,Note_on_c,9,48,127,
2,1086,Note_on_c,9,51,127,
2,1086,Note_on_c,9,53,127,
2,1086,Note_on_c,9,80,127,
2,1086,Note_on_c,9,81,127,
2,1086,Note_on_c,9,82,127,
2,1087,Note_off_c,9,36,0,
2,1088,Note_on_c,9,36,127,
2,1088,Note_on_c,9,37,127,
2,1088,Note_on_c,9,38,127,
2,1088,Note_on_c,9,39,127,
2,1088,Note_on_c,9,41,127,
2,1088,Note_on_c,9,42,127,
2,1088,Note_on_c,9,43,127,
2,1088,Note_on_c,9,45,127,
2,1088,Note_on_c,9,48,127,
2,1088,Note_on_c,9,51,127,
2,1088,Note_on_c,9,53,127,
2,1088,Note_on_c,9,80,127,
2,1088,Note_on_c,9,81,127,
2,1088,Note_on_c,9,82,127,
2,1089,Note_off_c,9,36,0,
2,1090,Note_on_c,9,36,127,
2,1090,Note_on_c,9,37,127,
2,1090,Note_on_c,9,38,127,
2,1090,Note_on_c,9,39,127,
2,1090,Note_on_c,9,41,127,
2,1090,Note_on_c,9,42,127,
2,1090,Note_on_c,9,43,127,
2,1090,Note_on_c,9,45,127,
2,1090,Note_on_c,9,48,127,
2,1090,Note_on_c,9,51,127,
2,1090,Note_on_c,9,53,127,
2,1090,Note_on_c,9,80,127,
2,1090,Note_on_c,9,81,127,
2,1090,Note_on_c,9,82,127,
2,1091,Note_off_c,9,36,0,
2,1092,Note_on_c,9,36,127,
2,1092,Note_on_c,9,37,127,
2,1092,Note_on_c,9,38,127,
2,1092,Note_on_c,9,39,127,
2,1092,Note_on_c,9,41,127,
2,1092,Note_on_c,9,42,127,
2,1092,Note_on_c,9,43,127,
2,1092,Note_on_c,9,45,127,
2,1092,Note_on_c,9,48,127,
2,1092,Note_on_c,9,51,127,
2,1092,Note_on_c,9,53,127,
2,1092,Note_on_c,9,80,127,
2,1092,Note_on_c,9,81,127,
2,1092,Note_on_c,9,82,127,
2,1093,Note_off_c,9,36,0,
2,1094,Note_on_c,9,36,127,
2,1094,Note_on_c,9,37,127,
2,1094,Note_on_c,9,38,127,
2,1094,Note_on_c,9,39,127,
2,1094,Note_on_c,9,41,127,
2,1094,Note_on_c,9,42,127,
2,1094,Note_on_c,9,43,127,
2,1094,Note_on_c,9,45,127,
2,1094,Note_on_c,9,48,127,
2,1094,Note_on_c,9,51,127,
2,1094,Note_on_c,9,53,127,
2,1094,Note_on_c,9,80,127,
2,1094,Note_on_c,9,81,127,
2,1094,Note_on_c,9,82,127,
2,1095,Note_off_c,9,36,0,
2,1096,Note_on_c,9,36,127,
2,1096,Note_on_c,9,37,127,
2,1096,Note_on_c,9,38,127,
2,1096,Note_on_c,9,39,127,
2,1096,Note_on_c,9,41,127,
2,1096,Note_on_c,9,42,127,
2,1096,Note_on_c,9,43,127,
2,1096,Note_on_c,9,45,127,
2,1096,Note_on_c,9,48,127,
2,1096,Note_on_c,9,51,127,
2,1096,Note_on_c,9,53,127,
2,1096,Note_on_c,9,80,127,
2,1096,Note_on_c,9,81,127,
2,1096,Note_on_c,9,82,127,
2,1097,Note_off_c,9,36,0,
2,1098,Note_on_c,9,36,127,
2,1098,Note_on_c,9,37,127,
2,1098,Note_on_c,9,38,127,
2,1098,Note_on_c,9,39,127,
2,1098,Note_on_c,9,41,127,
2,1098,Note_on_c,9,42,127,
2,1098,Note_on_c,9,43,127,
2,1098,Note_on_c,9,45,127,
2,1098,Note_on_c,9,48,127,
2,1098,Note_on_c,9,51,127,
2,1098,Note_on_c,9,53,127,
2,1098,Note_on_c,9,80,127,
2,1098,Note_on_c,9,81,127,
2,1098,Note_on_c,9,82,127,
2,1099,Note_off_c,9,36,0,
2,1100,Note_on_c,9,36,127,
2,1100,Note_on_c,9,37,127,
2,1100,Note_on_c,9,38,127,
2,1100,Note_on_c,9,39,127,
2,1100,Note_on_c,9,41,127,
2,1100,Note_on_c,9,42,127,
2,1100,Note_on_c,9,43,127,
2,1100,Note_on_c,9,45,127,
2,1100,Note_on_c,9,48,127,
2,1100,Note_on_c,9,51,127,
2,1100,Note_on_c,9,53,127,
2,1100,Note_on_c,9,80,127,
2,1100,Note_on_c,9,81,127,
2,1100,Note_on_c,9,82,127,
2,1101,Note_off_c,9,36,0,
2,1102,Note_on_c,9,36,127,
2,1102,Note_on_c,9,37,127,
2,1102,Note_on_c,9,38,127,
2,1102,Note_on_c,9,39,127,
2,1102,Note_on_c,9,41,127,
2,1102,Note_on_c,9,42,127,
2,1102,Note_on_c,9,43,127,
2,1102,Note_on_c,9,45,127,
2,1102,Note_on_c,9,48,127,
2,1102,Note_on_c,9,51,127,
2,1102,Note_on_c,9,53,127,
2,1102,Note_on_c,9,80,127,
2,1102,Note_on_c,9,81,127,
2,1102,Note_on_c,9,82,127,
2,1103,Note_off_c,9,36,0,
2,1104,Note_on_c,9,36,127,
2,1104,Note_on_c,9,37,127,
2,1104,Note_on_c,9,38,127,
2,1104,Note_on_c,9,39,127,
2,1104,Note_on_c,9,41,127,
2,1104,Note_on_c,9,42,127,
2,1104,Note_on_c,9,43,127,
2,1104,Note_on_c,9,45,127,
2,1104,Note_on_c,9,48,127,
2,1104,Note_on_c,9,51,127,
2,1104,Note_on_c,9,53,127,
2,1104,Note_on_c,9,80,127,
2,1104,Note_on_c,9,81,127,
2,1104,Note_on_c,9,82,127,
2,1105,Note_off_c,9,36,0,
2,1106,Note_on_c,9,36,127,
2,1106,Note_on_c,9,37,127,
2,1106,Note_on_c,9,38,127,
2,1106,Note_on_c,9,39,127,
2,1106,Note_on_c,9,41,127,
2,1106,Note_on_c,9,42,127,
2,1106,Note_on_c,9,43,127,
2,1106,Note_on_c,9,45,127,
2,1106,Note_on_c,9,48,127,
2,1106,Note_on_c,9,51,127,
2,1106,Note_on_c,9,53,127,
2,1106,Note_on_c,9,80,127,
2,1106,Note_on_c,9,81,127,
2,1106,Note_on_c,9,82,127,
2,1107,Note_off_c,9,36,0,
2,1108,Note_on_c,9,36,127,
2,1108,Note_on_c,9,37,127,
2,1108,Note_on_c,9,38,127,
2,1108,Note_on_c,9,39,127,
2,1108,Note_on_c,9,41,127,
2,1108,Note_on_c,9,42,127,
2,1108,Note_on_c,9,43,127,
2,1108,Note_on_c,9,45,127,
2,1108,Note_on_c,9,48,127,
2,1108,Note_on_c,9,51,127,
2,1108,Note_on_c,9,53,127,
2,1108,Note_on_c,9,80,127,
2,1108,Note_on_c,9,81,127,
2,1108,Note_on_c,9,82,127,
2,1109,Note_off_c,9,36,0,
2,1110,Note_on_c,9,36,127,
2,1110,Note_on_c,9,37,127,
2,1110,Note_on_c,9,38,127,
2,1110,Note_on_c,9,39,127,
2,1110,Note_on_c,9,41,127,
2,1110,Note_on_c,9,42,127,
2,1110,Note_on_c,9,43,127,
2,1110,Note_on_c,9,45,127,
2,1110,Note_on_c,9,48,127,
2,1110,Note_on_c,9,51,127,
2,1110,Note_on_c,9,53,127,
2,1110,Note_on_c,9,80,127,
2,1110,Note_on_c,9,81,127,
2,1110,Note_on_c,9,82,127,
2,1111,Note_off_c,9,36,0,
2,1112,Note_on_c,9,36,127,
2,1112,Note_on_c,9,37,127,
2,1112,Note_on_c,9,38,127,
2,1112,Note_on_c,9,39,127,
2,1112,Note_on_c,9,41,127,
2,1112,Note_on_c,9,42,127,
2,1112,Note_on_c,9,43,127,
2,1112,Note_on_c,9,45,127,
2,1112,Note_on_c,9,48,127,
2,1112,Note_on_c,9,51,127,
2,1112,Note_on_c,9,53,127,
2,1112,Note_on_c,9,80,127,
2,1112,Note_on_c,9,81,127,
2,1112,Note_on_c,9,82,127,
2,1113,Note_off_c,9,36,0,
2,1114,Note_on_c,9,36,127,
2,1114,Note_on_c,9,37,127,
2,1114,Note_on_c,9,38,127,
2,1114,Note_on_c,9,39,127,
2,1114,Note_on_c,9,41,127,
2,1114,Note_on_c,9,42,127,
2,1114,Note_on_c,9,43,127,
2,1114,Note_on_c,9,45,127,
2,1114,Note_on_c,9,48,127,
2,1114,Note_on_c,9,51,127,
2,1114,Note_on_c,9,53,127,
2,1114,Note_on_c,9,80,127,
2,1114,Note_on_c,9,81,127,
2,1114,Note_on_c,9,82,127,
2,1115,Note_off_c,9,36,0,
2,1116,Note_on_c,9,36,127,
2,1116,Note_on_c,9,37,127,
2,1116,Note_on_c,9,38,127,
2,1116,Note_on_c,9,39,127,
2,1116,Note_on_c,9,41,127,
2,1116,Note_on_c,9,42,127,
2,1116,Note_on_c,9,43,127,
2,1116,Note_on_c,9,45,127,
2,1116,Note_on_c,9,48,127,
2,1116,Note_on_c,9,51,127,
2,1116,Note_on_c,9,53,127,
2,1116,Note_on_c,9,80,127,
2,1116,Note_on_c,9,81,127,
2,1116,Note_on_c,9,82,127,
2,1117,Note_off_c,9,36,0,
2,1118,Note_on_c,9,36,127,
2,1118,Note_on_c,9,37,127,
2,1118,Note_on_c,9,38,127,
2,1118,Note_on_c,9,39,127,
2,1118,Note_on_c,9,41,127,
2,1118,Note_on_c,9,42,127,
2,1118,Note_on_c,9,43,127,
2,1118,Note_on_c,9,45,127,
2,1118,Note_on_c,9,48,127,
2,1118,Note_on_c,9,51,127,
2,1118,Note_on_c,9,53,127,
2,1118,Note_on_c,9,80,127,
2,1118,Note_on_c,9,81,127,
2,1118,Note_on_c,9,82,127,
2,1119,Note_off_c,9,36,0,
2,1120,Note_on_c,9,36,127,
2,1120,Note_on_c,9,37,127,
2,1120,Note_on_c,9,38,127,
2,1120,Note_on_c,9,39,127,
2,1120,Note_on_c,9,41,127,
2,1120,Note_on_c,9,42,127,
2,1120,Note_on_c,9,43,127,
2,1120,Note_on_c,9,45,127,
2,1120,Note_on_c,9,48,127,
2,1120,Note_on_c,9,51,127,
2,1120,Note_on_c,9,53,127,
2,1120,Note_on_c,9,80,127,
2,1120,Note_on_c,9,81,127,
2,1120,Note_on_c,9,82,127,
2,1121,Note_off_c,9,36,0,
2,1122,Note_on_c,9,36,127,
2,1122,Note_on_c,9,37,127,
2,1122,Note_on_c,9,38,127,
2,1122,Note_on_c,9,39,127,
2,1122,Note_on_c,9,41,127,
2,1122,Note_on_c,9,42,127,
2,1122,Note_on_c,9,43,127,
2,1122,Note_on_c,9,45,127,
2,1122,Note_on_c,9,48,127,
2,1122,Note_on_c,9,51,127,
2,1122,Note_on_c,9,53,127,
2,1122,Note_on_c,9,80,127,
2,1122,Note_on_c,9,81,127,
2,1122,Note_on_c,9,82,127,
2,1123,Note_off_c,9,36,0,
2,1124,Note_on_c,9,36,127,
2,1124,Note_on_c,9,37,127,
2,1124,Note_on_c,9,38,127,
2,1124,Note_on_c,9,39,127,
2,1124,Note_on_c,9,41,127,
2,1124,Note_on_c,9,42,127,
2,1124,Note_on_c,9,43,127,
2,1124,Note_on_c,9,45,127,
2,1124,Note_on_c,9,48,127,
2,1124,Note_on_c,9,51,127,
2,1124,Note_on_c,9,53,127,
2,1124,Note_on_c,9,80,127,
2,1124,Note_on_c,9,81,127,
2,1124,Note_on_c,9,82,127,
2,1125,Note_off_c,9,36,0,
2,1126,Note_on_c,9,36,127,
2,1126,Note_on_c,9,37,127,
2,1126,Note_on_c,9,38,127,
2,1126,Note_on_c,9,39,127,
2,1126,Note_on_c,9,41,127,
2,1126,Note_on_c,9,42,127,
2,1126,Note_on_c,9,43,127,
2,1126,Note_on_c,9,45,127,
2,1126,Note_on_c,9,48,127,
2,1126,Note_on_c,9,51,127,
2,1126,Note_on_c,9,53,127,
2,1126,Note_on_c,9,80,127,
2,1126,Note_on_c,9,81,127,
2,1126,Note_on_c,9,82,127,
2,1127,Note_off_c,9,36,0,
2,1128,Note_on_c,9,36,127,
2,1128,Note_on_c,9,37,127,
2,1128,Note_on_c,9,38,127,
2,1128,Note_on_c,9,39,127,
2,1128,Note_on_c,9,41,127,
2,1128,Note_on_c,9,42,127,
2,1128,Note_on_c,9,43,127,
2,1128,Note_on_c,9,45,127,
2,1128,Note_on_c,9,48,127,
2,1128,Note_on_c,9,51,127,
2,1128,Note_on_c,9,53,127,
2,1128,Note_on_c,9,80,127,
2,1128,Note_on_c,9,81,127,
2,1128,Note_on_c,9,82,127,
2,1129,Note_off_c,9,36,0,
2,1130,Note_on_c,9,36,127,
2,1130,Note_on_c,9,37,127,
2,1130,Note_on_c,9,38,127,
2,1130,Note_on_c,9,39,127,
2,1130,Note_on_c,9,41,127,
2,1130,Note_on_c,9,42,127,
2,1130,Note_on_c,9,43,127,
2,1130,Note_on_c,9,45,127,
2,1130,Note_on_c,9,48,127,
2,1130,Note_on_c,9,51,127,
2,1130,Note_on_c,9,53,127,
2,1130,Note_on_c,9,80,127,
2,1130,Note_on_c,9,81,127,
2,1130,Note_on_c,9,82,127,
2,1131,Note_off_c,9,36,0,
2,1132,Note_on_c,9,36,127,
2,1132,Note_on_c,9,37,127,
2,1132,Note_on_c,9,38,127,
2,1132,Note_on_c,9,39,127,
2,1132,Note_on_c,9,41,127,
2,1132,Note_on_c,9,42,127,
2,1132,Note_on_c,9,43,127,
2,1132,Note_on_c,9,45,127,
2,1132,Note_on_c,9,48,127,
2,1132,Note_on_c,9,51,127,
2,1132,Note_on_c,9,53,127,
2,1132,Note_on_c,9,80,127,
2,1132,Note_on_c,9,81,127,
2,1132,Note_on_c,9,82,127,
2,1133,Note_off_c,9,36,0,
2,1134,Note_on_c,9,36,127,
2,1134,Note_on_c,9,37,127,
2,1134,Note_on_c,9,38,127,
2,1134,Note_on_c,9,39,127,
2,1134,Note_on_c,9,41,127,
2,1134,Note_on_c,9,42,127,
2,1134,Note_on_c,9,43,127,
2,1134,Note_on_c,9,45,127,
2,1134,Note_on_c,9,48,127,
2,1134,Note_on_c,9,51,127,
2,1134,Note_on_c,9,53,127,
2,1134,Note_on_c,9,80,127,
2,1134,Note_on_c,9,81,127,
2,1134,Note_on_c,9,82,127,
2,1135,Note_off_c,9,36,0,
2,1136,Note_on_c,9,36,127,
2,1136,Note_on_c,9,37,127,
2,1136,Note_on_c,9,38,127,
2,1136,Note_on_c,9,39,127,
2,1136,Note_on_c,9,41,127,
2,1136,Note_on_c,9,42,127,
2,1136,Note_on_c,9,43,127,
2,1136,Note_on_c,9,45,127,
2,1136,Note_on_c,9,48,127,
2,1136,Note_on_c,9,51,127,
2,1136,Note_on_c,9,53,127,
2,1136,Note_on_c,9,80,127,
2,1136,Note_on_c,9,81,127,
2,1136,Note_on_c,9,82,127,
2,1137,Note_off_c,9,36,0,
2,1138,Note_on_c,9,36,127,
2,1138,Note_on_c,9,37,127,
2,1138,Note_on_c,9,38,127,
2,1138,Note_on_c,9,39,127,
2,1138,Note_on_c,9,41,127,
2,1138,Note_on_c,9,42,127,
2,1138,Note_on_c,9,43,127,
2,1138,Note_on_c,9,45,127,
2,1138,Note_on_c,9,48,127,
2,1138,Note_on_c,9,51,127,
2,1138,Note_on_c,9,53,127,
2,1138,Note_on_c,9,80,127,
2,1138,Note_on_c,9,81,127,
2,1138,Note_on_c,9,82,127,
2,1139,Note_off_c,9,36,0,
2,1140,Note_on_c,9,36,127,
2,1140,Note_on_c,9,37,127,
2,1140,Note_on_c,9,38,127,
2,1140,Note_on_c,9,39,127,
2,1140,Note_on_c,9,41,127,
2,1140,Note_on_c,9,42,127,
2,1140,Note_on_c,9,43,127,
2,1140,Note_on_c,9,45,127,
2,1140,Note_on_c,9,48,127,
2,1140,Note_on_c,9,51,127,
2,1140,Note_on_c,9,53,127,
2,1140,Note_on_c,9,80,127,
2,1140,Note_on_c,9,81,127,
2,1140,Note_on_c,9,82,127,
2,1141,Note_off_c,9,36,0,
2,1142,Note_on_c,9,36,127,
2,1142,Note_on_c,9,37,127,
2,1142,Note_on_c,9,38,127,
2,1142,Note_on_c,9,39,127,
2,1142,Note_on_c,9,41,127,
2,1142,Note_on_c,9,42,127,
2,1142,Note_on_c,9,43,127,
2,1142,Note_on_c,9,45,127,
2,1142,Note_on_c,9,48,127,
2,1142,Note_on_c,9,51,127,
2,1142,Note_on_c,9,53,127,
2,1142,Note_on_c,9,80,127,
2,1142,Note_on_c,9,81,127,
2,1142,Note_on_c,9,82,127,
2,1143,Note_off_c,9,36,0,
2,1144,Note_on_c,9,36,127,
2,1144,Note_on_c,9,37,127,
2,1144,Note_on_c,9,38,127,
2,1144,Note_on_c,9,39,127,
2,1144,Note_on_c,9,41,127,
2,1144,Note_on_c,9,42,127,
2,1144,Note_on_c,9,43,127,
2,1144,Note_on_c,9,45,127,
2,1144,Note_on_c,9,48,127,
2,1144,Note_on_c,9,51,127,
2,1144,Note_on_c,9,53,127,
2,1144,Note_on_c,9,80,127,
2,1144,Note_on_c,9,81,127,
2,1144,Note_on_c,9,82,127,
2,1145,Note_off_c,9,36,0,
2,1146,Note_on_c,9,36,127,
2,1146,Note_on_c,9,37,127,
2,1146,Note_on_c,9,38,127,
2,1146,Note_on_c,9,39,127,
2,1146,Note_on_c,9,41,127,
2,1146,Note_on_c,9,42,127,
2,1146,Note_on_c,9,43,127,
2,1146,Note_on_c,9,45,127,
2,1146,Note_on_c,9,48,127,
2,1146,Note_on_c,9,51,127,
2,1146,Note_on_c,9,53,127,
2,1146,Note_on_c,9,80,127,
2,1146,Note_on_c,9,81,127,
2,1146,Note_on_c,9,82,127,
2,1147,Note_off_c,9,36,0,
2,1148,Note_on_c,9,36,127,
2,1148,Note_on_c,9,37,127,
2,1148,Note_on_c,9,38,127,
2,1148,Note_on_c,9,39,127,
2,1148,Note_on_c,9,41,127,
2,1148,Note_on_c,9,42,127,
2,1148,Note_on_c,9,43,127,
2,1148,Note_on_c,9,45,127,
2,1148,Note_on_c,9,48,127,
2,1148,Note_on_c,9,51,127,
2,1148,Note_on_c,9,53,127,
2,1148,Note_on_c,9,80,127,
2,1148,Note_on_c,9,81,127,
2,1148,Note_on_c,9,82,127,
2,1149,Note_off_c,9,36,0,
2,1150,Note_on_c,9,36,127,
2,1150,Note_on_c,9,37,127,
2,1150,Note_on_c,9,38,127,
2,1150,Note_on_c,9,39,127,
2,1150,Note_on_c,9,41,127,
2,1150,Note_on_c,9,42,127,
2,1150,Note_on_c,9,43,127,
2,1150,Note_on_c,9,45,127,
2,1150,Note_on_c,9,48,127,
2,1150,Note_on_c,9,51,127,
2,1150,Note_on_c,9,53,127,
2,1150,Note_on_c,9,80,127,
2,1150,Note_on_c,9,81,127,
2,1150,Note_on_c,9,82,127,
2,1151,Note_off_c,9,36,0,
2,1152,Note_on_c,9,36,127,
2,1152,Note_on_c,9,37,127,
2,1152,Note_on_c,9,38,127,
2,1152,Note_on_c,9,39,127,
2,1152,Note_on_c,9,41,127,
2,1152,Note_on_c,9,42,127,
2,1152,Note_on_c,9,43,127,
2,1152,Note_on_c,9,45,127,
2,1152,Note_on_c,9,48,127,
2,1152,Note_on_c,9,51,127,
2,1152,Note_on_c,9,53,127,
2,1152,Note_on_c,9,80,127,
2,1152,Note_on_c,9,81,127,
2,1152,Note_on_c,9,82,127,
2,1153,Note_off_c,9,36,0,
2,1154,Note_on_c,9,36,127,
2,1154,Note_on_c,9,37,127,
2,1154,Note_on_c,9,38,127,
2,1154,Note_on_c,9,39,127,
2,1154,Note_on_c,9,41,127,
2,1154,Note_on_c,9,42,127,
2,1154,Note_on_c,9,43,127,
2,1154,Note_on_c,9,45,127,
2,1154,Note_on_c,9,48,127,
2,1154,Note_on_c,9,51,127,
2,1154,Note_on_c,9,53,127,
2,1154,Note_on_c,9,80,127,
2,1154,Note_on_c,9,81,127,
2,1154,Note_on_c,9,82,127,
2,1155,Note_off_c,9,36,0,
2,1156,Note_on_c,9,36,127,
2,1156,Note_on_c,9,37,127,
2,1156,Note_on_c,9,38,127,
2,1156,Note_on_c,9,39,127,
2,1156,Note_on_c,9,41,127,
2,1156,Note_on_c,9,42,127,
2,1156,Note_on_c,9,43,127,
2,1156,Note_on_c,9,45,127,
2,1156,Note_on_c,9,48,127,
2,1156,Note_on_c,9,51,127,
2,1156,Note_on_c,9,53,127,
2,1156,Note_on_c,9,80,127,
2,1156,Note_on_c,9,81,127,
2,1156,Note_on_c,9,82,127,
2,1157,Note_off_c,9,36,0,
2,1158,Note_on_c,9,36,127,
2,1158,Note_on_c,9,37,127,
2,1158,Note_on_c,9,38,127,
2,1158,Note_on_c,9,39,127,
2,1158,Note_on_c,9,41,127,
2,1158,Note_on_c,9,42,127,
2,1158,Note_on_c,9,43,127,
2,1158,Note_on_c,9,45,127,
2,1158,Note_on_c,9,48,127,
2,1158,Note_on_c,9,51,127,
2,1158,Note_on_c,9,53,127,
2,1158,Note_on_c,9,80,127,
2,1158,Note_on_c,9,81,127,
2,1158,Note_on_c,9,82,127,
2,1159,Note_off_c,9,36,0,
2,1160,Note_on_c,9,36,127,
2,1160,Note_on_c,9,37,127,
2,1160,Note_on_c,9,38,127,
2,1160,Note_on_c,9,39,127,
2,1160,Note_on_c,9,41,127,
2,1160,Note_on_c,9,42,127,
2,1160,Note_on_c,9,43,127,
2,1160,Note_on_c,9,45,127,
2,1160,Note_on_c,9,48,127,
2,1160,Note_on_c,9,51,127,
2,1160,Note_on_c,9,53,127,
2,1160,Note_on_c,9,80,127,
2,1160,Note_on_c,9,81,127,
2,1160,Note_on_c,9,82,127,
2,1161,Note_off_c,9,36,0,
2,1162,Note_on_c,9,36,127,
2,1162,Note_on_c,9,37,127,
2,1162,Note_on_c,9,38,127,
2,1162,Note_on_c,9,39,127,
2,1162,Note_on_c,9,41,127,
2,1162,Note_on_c,9,42,127,
2,1162,Note_on_c,9,43,127,
2,1162,Note_on_c,9,45,127,
2,1162,Note_on_c,9,48,127,
2,1162,Note_on_c,9,51,127,
2,1162,Note_on_c,9,53,127,
2,1162,Note_on_c,9,80,127,
2,1162,Note_on_c,9,81,127,
2,1162,Note_on_c,9,82,127,
2,1163,Note_off_c,9,36,0,
2,1164,Note_on_c,9,36,127,
2,1164,Note_on_c,9,37,127,
2,1164,Note_on_c,9,38,127,
2,1164,Note_on_c,9,39,127,
2,1164,Note_on_c,9,41,127,
2,1164,Note_on_c,9,42,127,
2,1164,Note_on_c,9,43,127,
2,1164,Note_on_c,9,45,127,
2,1164,Note_on_c,9,48,127,
2,1164,Note_on_c,9,51,127,
2,1164,Note_on_c,9,53,127,
2,1164,Note_on_c,9,80,127,
2,1164,Note_on_c,9,81,127,
2,1164,Note_on_c,9,82,127,
2,1165,Note_off_c,9,36,0,
2,1166,Note_on_c,9,36,127,
2,1166,Note_on_c,9,37,127,
2,1166,Note_on_c,9,38,127,
2,1166,Note_on_c,9,39,127,
2,1166,Note_on_c,9,41,127,
2,1166,Note_on_c,9,42,127,
2,1166,Note_on_c,9,43,127,
2,1166,Note_on_c,9,45,127,
2,1166,Note_on_c,9,48,127,
2,1166,Note_on_c,9,51,127,
2,1166,Note_on_c,9,53,127,
2,1166,Note_on_c,9,80,127,
2,1166,Note_on_c,9,81,127,
2,1166,Note_on_c,9,82,127,
2,1167,Note_off_c,9,36,0,
2,1168,Note_on_c,9,36,127,
2,1168,Note_on_c,9,37,127,
2,1168,Note_on_c,9,38,127,
2,1168,Note_on_c,9,39,127,
2,1168,Note_on_c,9,41,127,
2,1168,Note_on_c,9,42,127,
2,1168,Note_on_c,9,43,127,
2,1168,Note_on_c,9,45,127,
2,1168,Note_on_c,9,48,127,
2,1168,Note_on_c,9,51,127,
2,1168,Note_on_c,9,53,127,
2,1168,Note_on_c,9,80,127,
2,1168,Note_on_c,9,81,127,
2,1168,Note_on_c,9,82,127,
2,1169,Note_off_c,9,36,0,
2,1170,Note_on_c,9,36,127,
2,1170,Note_on_c,9,37,127,
2,1170,Note_on_c,9,38,127,
2,1170,Note_on_c,9,39,127,
2,1170,Note_on_c,9,41,127,
2,1170,Note_on_c,9,42,127,
2,1170,Note_on_c,9,43,127,
2,1170,Note_on_c,9,45,127,
2,1170,Note_on_c,9,48,127,
2,1170,Note_on_c,9,51,127,
2,1170,Note_on_c,9,53,127,
2,1170,Note_on_c,9,80,127,
2,1170,Note_on_c,9,81,127,
2,1170,Note_on_c,9,82,127,
2,1171,Note_off_c,9,36,0,
2,1172,Note_on_c,9,36,127,
2,1172,Note_on_c,9,37,127,
2,1172,Note_on_c,9,38,127,
2,1172,Note_on_c,9,39,127,
2,1172,Note_on_c,9,41,127,
2,1172,Note_on_c,9,42,127,
2,1172,Note_on_c,9,43,127,
2,1172,Note_on_c,9,45,127,
2,1172,Note_on_c,9,48,127,
2,1172,Note_on_c,9,51,127,
2,1172,Note_on_c,9,53,127,
2,1172,Note_on_c,9,80,127,
2,1172,Note_on_c,9,81,127,
2,1172,Note_on_c,9,82,127,
2,1173,Note_off_c,9,36,0,
2,1174,Note_on_c,9,36,127,
2,1174,Note_on_c,9,37,127,
2,1174,Note_on_c,9,38,127,
2,1174,Note_on_c,9,39,127,
2,1174,Note_on_c,9,41,127,
2,1174,Note_on_c,9,42,127,
2,1174,Note_on_c,9,43,127,
2,1174,Note_on_c,9,45,127,
2,1174,Note_on_c,9,48,127,
2,1174,Note_on_c,9,51,127,
2,1174,Note_on_c,9,53,127,
2,1174,Note_on_c,9,80,127,
2,1174,Note_on_c,9,81,127,
2,1174,Note_on_c,9,82,127,
2,1175,Note_off_c,9,36,0,
2,1176,Note_on_c,9,36,127,
2,1176,Note_on_c,9,37,127,
2,1176,Note_on_c,9,38,127,
2,1176,Note_on_c,9,39,127,
2,1176,Note_on_c,9,41,127,
2,1176,Note_on_c,9,42,127,
2,1176,Note_on_c,9,43,127,
2,1176,Note_on_c,9,45,127,
2,1176,Note_on_c,9,48,127,
2,1176,Note_on_c,9,51,127,
2,1176,Note_on_c,9,53,127,
2,1176,Note_on_c,9,80,127,
2,1176,Note_on_c,9,81,127,
2,1176,Note_on_c,9,82,127,
2,1177,Note_off_c,9,36,0,
2,1178,Note_on_c,9,36,127,
2,1178,Note_on_c,9,37,127,
2,1178,Note_on_c,9,38,127,
2,1178,Note_on_c,9,39,127,
2,1178,Note_on_c,9,41,127,
2,1178,Note_on_c,9,42,127,
2,1178,Note_on_c,9,43,127,
2,1178,Note_on_c,9,45,127,
2,1178,Note_on_c,9,48,127,
2,1178,Note_on_c,9,51,127,
2,1178,Note_on_c,9,53,127,
2,1178,Note_on_c,9,80,127,
2,1178,Note_on_c,9,81,127,
2,1178,Note_on_c,9,82,127,
2,1179,Note_off_c,9,36,0,
2,1180,Note_on_c,9,36,127,
2,1180,Note_on_c,9,37,127,
2,1180,Note_on_c,9,38,127,
2,1180,Note_on_c,9,39,127,
2,1180,Note_on_c,9,41,127,
2,1180,Note_on_c,9,42,127,
2,1180,Note_on_c,9,43,127,
2,1180,Note_on_c,9,45,127,
2,1180,Note_on_c,9,48,127,
2,1180,Note_on_c,9,51,127,
2,1180,Note_on_c,9,53,127,
2,1180,Note_on_c,9,80,127,
2,1180,Note_on_c,9,81,127,
2,1180,Note_on_c,9,82,127,
2,1181,Note_off_c,9,36,0,
2,1182,Note_on_c,9,36,127,
2,1182,Note_on_c,9,37,127,
2,1182,Note_on_c,9,38,127,
2,1182,Note_on_c,9,39,127,
2,1182,Note_on_c,9,41,127,
2,1182,Note_on_c,9,42,127,
2,1182,Note_on_c,9,43,127,
2,1182,Note_on_c,9,45,127,
2,1182,Note_on_c,9,48,127,
2,1182,Note_on_c,9,51,127,
2,1182,Note_on_c,9,53,127,
2,1182,Note_on_c,9,80,127,
2,1182,Note_on_c,9,81,127,
2,1182,Note_on_c,9,82,127,
2,1183,Note_off_c,9,36,0,
2,1184,Note_on_c,9,36,127,
2,1184,Note_on_c,9,37,127,
2,1184,Note_on_c,9,38,127,
2,1184,Note_on_c,9,39,127,
2,1184,Note_on_c,9,41,127,
2,1184,Note_on_c,9,42,127,
2,1184,Note_on_c,9,43,127,
2,1184,Note_on_c,9,45,127,
2,1184,Note_on_c,9,48,127,
2,1184,Note_on_c,9,51,127,
2,1184,Note_on_c,9,53,127,
2,1184,Note_on_c,9,80,127,
2,1184,Note_on_c,9,81,127,
2,1184,Note_on_c,9,82,127,
2,1185,Note_off_c,9,36,0,
2,1186,Note_on_c,9,36,127,
2,1186,Note_on_c,9,37,127,
2,1186,Note_on_c,9,38,127,
2,1186,Note_on_c,9,39,127,
2,1186,Note_on_c,9,41,127,
2,1186,Note_on_c,9,42,127,
2,1186,Note_on_c,9,43,127,
2,1186,Note_on_c,9,45,127,
2,1186,Note_on_c,9,48,127,
2,1186,Note_on_c,9,51,127,
2,1186,Note_on_c,9,53,127,
2,1186,Note_on_c,9,80,127,
2,1186,Note_on_c,9,81,127,
2,1186,Note_on_c,9,82,127,
2,1187,Note_off_c,9,36,0,
2,1188,Note_on_c,9,36,127,
2,1188,Note_on_c,9,37,127,
2,1188,Note_on_c,9,38,127,
2,1188,Note_on_c,9,39,127,
2,1188,Note_on_c,9,41,127,
2,1188,Note_on_c,9,42,127,
2,1188,Note_on_c,9,43,127,
2,1188,Note_on_c,9,45,127,
2,1188,Note_on_c,9,48,127,
2,1188,Note_on_c,9,51,127,
2,1188,Note_on_c,9,53,127,
2,1188,Note_on_c,9,80,127,
2,1188,Note_on_c,9,81,127,
2,1188,Note_on_c,9,82,127,
2,1189,Note_off_c,9,36,0,
2,1190,Note_on_c,9,36,127,
2,1190,Note_on_c,9,37,127,
2,1190,Note_on_c,9,38,127,
2,1190,Note_on_c,9,39,127,
2,1190,Note_on_c,9,41,127,
2,1190,Note_on_c,9,42,127,
2,1190,Note_on_c,9,43,127,
2,1190,Note_on_c,9,45,127,
2,1190,Note_on_c,9,48,127,
2,1190,Note_on_c,9,51,127,
2,1190,Note_on_c,9,53,127,
2,1190,Note_on_c,9,80,127,
2,1190,Note_on_c,9,81,127,
2,1190,Note_on_c,9,82,127,
2,1191,Note_off_c,9,36,0,
2,1192,Note_on_c,9,36,127,
2,1192,Note_on_c,9,37,127,
2,1192,Note_on_c,9,38,127,
2,1192,Note_on_c,9,39,127,
2,1192,Note_on_c,9,41,127,
2,1192,Note_on_c,9,42,127,
2,1192,Note_on_c,9,43,127,
2,1192,Note_on_c,9,45,127,
2,1192,Note_on_c,9,48,127,
2,1192,Note_on_c,9,51,127,
2,1192,Note_on_c,9,53,127,
2,1192,Note_on_c,9,80,127,
2,1192,Note_on_c,9,81,127,
2,1192,Note_on_c,9,82,127,
2,1193,Note_off_c,9,36,0,
2,1194,Note_on_c,9,36,127,
2,1194,Note_on_c,9,37,127,
2,1194,Note_on_c,9,38,127,
2,1194,Note_on_c,9,39,127,
2,1194,Note_on_c,9,41,127,
2,1194,Note_on_c,9,42,127,
2,1194,Note_on_c,9,43,127,
2,1194,Note_on_c,9,45,127,
2,1194,Note_on_c,9,48,127,
2,1194,Note_on_c,9,51,127,
2,1194,Note_on_c,9,53,127,
2,1194,Note_on_c,9,80,127,
2,1194,Note_on_c,9,81,127,
2,1194,Note_on_c,9,82,127,
2,1195,Note_off_c,9,36,0,
2,1196,Note_on_c,9,36,127,
2,1196,Note_on_c,9,37,127,
2,1196,Note_on_c,9,38,127,
2,1196,Note_on_c,9,39,127,
2,1196,Note_on_c,9,41,127,
2,1196,Note_on_c,9,42,127,
2,1196,Note_on_c,9,43,127,
2,1196,Note_on_c,9,45,127,
2,1196,Note_on_c,9,48,127,
2,1196,Note_on_c,9,51,127,
2,1196,Note_on_c,9,53,127,
2,1196,Note_on_c,9,80,127,
2,1196,Note_on_c,9,81,127,
2,1196,Note_on_c,9,82,127,
2,1197,Note_off_c,9,36,0,
2,1198,Note_on_c,9,36,127,
2,1198,Note_on_c,9,37,127,
2,1198,Note_on_c,9,38,127,
2,1198,Note_on_c,9,39,127,
2,1198,Note_on_c,9,41,127,
2,1198,Note_on_c,9,42,127,
2,1198,Note_on_c,9,43,127,
2,1198,Note_on_c,9,45,127,
2,1198,Note_on_c,9,48,127,
2,1198,Note_on_c,9,51,127,
2,1198,Note_on_c,9,53,127,
2,1198,Note_on_c,9,80,127,
2,1198,Note_on_c,9,81,127,
2,1198,Note_on_c,9,82,127,
2,1199,Note_off_c,9,36,0,
2,1200,Note_on_c,9,36,127,
2,1200,Note_on_c,9,37,127,
2,1200,Note_on_c,9,38,127,
2,1200,Note_on_c,9,39,127,
2,1200,Note_on_c,9,41,127,
2,1200,Note_on_c,9,42,127,
2,1200,Note_on_c,9,43,127,
2,1200,Note_on_c,9,45,127,
2,1200,Note_on_c,9,48,127,
2,1200,Note_on_c,9,51,127,
2,1200,Note_on_c,9,53,127,
2,1200,Note_on_c,9,80,127,
2,1200,Note_on_c,9,81,127,
2,1200,Note_on_c,9,82,127,
2,1201,Note_off_c,9,36,0,
2,1202,Note_on_c,9,36,127,
2,1202,Note_on_c,9,37,127,
2,1202,Note_on_c,9,38,127,
2,1202,Note_on_c,9,39,127,
2,1202,Note_on_c,9,41,127,
2,1202,Note_on_c,9,42,127,
2,1202,Note_on_c,9,43,127,
2,1202,Note_on_c,9,45,127,
2,1202,Note_on_c,9,48,127,
2,1202,Note_on_c,9,51,127,
2,1202,Note_on_c,9,53,127,
2,1202,Note_on_c,9,80,127,
2,1202,Note_on_c,9,81,127,
2,1202,Note_on_c,9,82,127,
2,1203,Note_off_c,9,36,0,
2,1204,Note_on_c,9,36,127,
2,1204,Note_on_c,9,37,127,
2,1204,Note_on_c,9,38,127,
2,1204,Note_on_c,9,39,127,
2,1204,Note_on_c,9,41,127,
2,1204,Note_on_c,9,42,127,
2,1204,Note_on_c,9,43,127,
2,1204,Note_on_c,9,45,127,
2,1204,Note_on_c,9,48,127,
2,1204,Note_on_c,9,51,127,
2,1204,Note_on_c,9,53,127,
2,1204,Note_on_c,9,80,127,
2,1204,Note_on_c,9,81,127,
2,1204,Note_on_c,9,82,127,
2,1205,Note_off_c,9,36,0,
2,1206,Note_on_c,9,36,127,
2,1206,Note_on_c,9,37,127,
2,1206,Note_on_c,9,38,127,
2,1206,Note_on_c,9,39,127,
2,1206,Note_on_c,9,41,127,
2,1206,Note_on_c,9,42,127,
2,1206,Note_on_c,9,43,127,
2,1206,Note_on_c,9,45,127,
2,1206,Note_on_c,9,48,127,
2,1206,Note_on_c,9,51,127,
2,1206,Note_on_c,9,53,127,
2,1206,Note_on_c,9,80,127,
2,1206,Note_on_c,9,81,127,
2,1206,Note_on_c,9,82,127,
2,1207,Note_off_c,9,36,0,
2,1208,Note_on_c,9,36,127,
2,1208,Note_on_c,9,37,127,
2,1208,Note_on_c,9,38,127,
2,1208,Note_on_c,9,39,127,
2,1208,Note_on_c,9,41,127,
2,1208,Note_on_c,9,42,127,
2,1208,Note_on_c,9,43,127,
2,1208,Note_on_c,9,45,127,
2,1208,Note_on_c,9,48,127,
2,1208,Note_on_c,9,51,127,
2,1208,Note_on_c,9,53,127,
2,1208,Note_on_c,9,80,127,
2,1208,Note_on_c,9,81,127,
2,1208,Note_on_c,9,82,127,
2,1209,Note_off_c,9,36,0,
2,1210,Note_on_c,9,36,127,
2,1210,Note_on_c,9,37,127,
2,1210,Note_on_c,9,38,127,
2,1210,Note_on_c,9,39,127,
2,1210,Note_on_c,9,41,127,
2,1210,Note_on_c,9,42,127,
2,1210,Note_on_c,9,43,127,
2,1210,Note_on_c,9,45,127,
2,1210,Note_on_c,9,48,127,
2,1210,Note_on_c,9,51,127,
2,1210,Note_on_c,9,53,127,
2,1210,Note_on_c,9,80,127,
2,1210,Note_on_c,9,81,127,
2,1210,Note_on_c,9,82,127,
2,1211,Note_off_c,9,36,0,
2,1212,Note_on_c,9,36,127,
2,1212,Note_on_c,9,37,127,
2,1212,Note_on_c,9,38,127,
2,1212,Note_on_c,9,39,127,
2,1212,Note_on_c,9,41,127,
2,1212,Note_on_c,9,42,127,
2,1212,Note_on_c,9,43,127,
2,1212,Note_on_c,9,45,127,
2,1212,Note_on_c,9,48,127,
2,1212,Note_on_c,9,51,127,
2,1212,Note_on_c,9,53,127,
2,1212,Note_on_c,9,80,127,
2,1212,Note_on_c,9,81,127,
2,1212,Note_on_c,9,82,127,
2,1213,Note_off_c,9,36,0,
2,1214,Note_on_c,9,36,127,
2,1214,Note_on_c,9,37,127,
2,1214,Note_on_c,9,38,127,
2,1214,Note_on_c,9,39,127,
2,1214,Note_on_c,9,41,127,
2,1214,Note_on_c,9,42,127,
2,1214,Note_on_c,9,43,127,
2,1214,Note_on_c,9,45,127,
2,1214,Note_on_c,9,48,127,
2,1214,Note_on_c,9,51,127,
2,1214,Note_on_c,9,53,127,
2,1214,Note_on_c,9,80,127,
2,1214,Note_on_c,9,81,127,
2,1214,Note_on_c,9,82,127,
2,1215,Note_off_c,9,36,0,
2,1216,Note_on_c,9,36,127,
2,1216,Note_on_c,9,37,127,
2,1216,Note_on_c,9,38,127,
2,1216,Note_on_c,9,39,127,
2,1216,Note_on_c,9,41,127,
2,1216,Note_on_c,9,42,127,
2,1216,Note_on_c,9,43,127,
2,1216,Note_on_c,9,45,127,
2,1216,Note_on_c,9,48,127,
2,1216,Note_on_c,9,51,127,
2,1216,Note_on_c,9,53,127,
2,1216,Note_on_c,9,80,127,
2,1216,Note_on_c,9,81,127,
2,1216,Note_on_c,9,82,127,
2,1217,Note_off_c,9,36,0,
2,1218,Note_on_c,9,36,127,
2,1218,Note_on_c,9,37,127,
2,1218,Note_on_c,9,38,127,
2,1218,Note_on_c,9,39,127,
2,1218,Note_on_c,9,41,127,
2,1218,Note_on_c,9,42,127,
2,1218,Note_on_c,9,43,127,
2,1218,Note_on_c,9,45,127,
2,1218,Note_on_c,9,48,127,
2,1218,Note_on_c,9,51,127,
2,1218,Note_on_c,9,53,127,
2,1218,Note_on_c,9,80,127,
2,1218,Note_on_c,9,81,127,
2,1218,Note_on_c,9,82,127,
2,1219,Note_off_c,9,36,0,
2,1220,Note_on_c,9,36,127,
2,1220,Note_on_c,9,37,127,
2,1220,Note_on_c,9,38,127,
2,1220,Note_on_c,9,39,127,
2,1220,Note_on_c,9,41,127,
2,1220,Note_on_c,9,42,127,
2,1220,Note_on_c,9,43,127,
2,1220,Note_on_c,9,45,127,
2,1220,Note_on_c,9,48,127,
2,1220,Note_on_c,9,51,127,
2,1220,Note_on_c,9,53,127,
2,1220,Note_on_c,9,80,127,
2,1220,Note_on_c,9,81,127,
2,1220,Note_on_c,9,82,127,
2,1221,Note_off_c,9,36,0,
2,1222,Note_on_c,9,36,127,
2,1222,Note_on_c,9,37,127,
2,1222,Note_on_c,9,38,127,
2,1222,Note_on_c,9,39,127,
2,1222,Note_on_c,9,41,127,
2,1222,Note_on_c,9,42,127,
2,1222,Note_on_c,9,43,127,
2,1222,Note_on_c,9,45,127,
2,1222,Note_on_c,9,48,127,
2,1222,Note_on_c,9,51,127,
2,1222,Note_on_c,9,53,127,
2,1222,Note_on_c,9,80,127,
2,1222,Note_on_c,9,81,127,
2,1222,Note_on_c,9,82,127,
2,1223,Note_off_c,9,36,0,
2,1224,Note_on_c,9,36,127,
2,1224,Note_on_c,9,37,127,
2,1224,Note_on_c,9,38,127,
2,1224,Note_on_c,9,39,127,
2,1224,Note_on_c,9,41,127,
2,1224,Note_on_c,9,42,127,
2,1224,Note_on_c,9,43,127,
2,1224,Note_on_c,9,45,127,
2,1224,Note_on_c,9,48,127,
2,1224,Note_on_c,9,51,127,
2,1224,Note_on_c,9,53,127,
2,1224,Note_on_c,9,80,127,
2,1224,Note_on_c,9,81,127,
2,1224,Note_on_c,9,82,127,
2,1225,Note_off_c,9,36,0,
2,1226,Note_on_c,9,36,127,
2,1226,Note_on_c,9,37,127,
2,1226,Note_on_c,9,38,127,
2,1226,Note_on_c,9,39,127,
2,1226,Note_on_c,9,41,127,
2,1226,Note_on_c,9,42,127,
2,1226,Note_on_c,9,43,127,
2,1226,Note_on_c,9,45,127,
2,1226,Note_on_c,9,48,127,
2,1226,Note_on_c,9,51,127,
2,1226,Note_on_c,9,53,127,
2,1226,Note_on_c,9,80,127,
2,1226,Note_on_c,9,81,127,
2,1226,Note_on_c,9,82,127,
2,1227,Note_off_c,9,36,0,
2,1228,Note_on_c,9,36,127,
2,1228,Note_on_c,9,37,127,
2,1228,Note_on_c,9,38,127,
2,1228,Note_on_c,9,39,127,
2,1228,Note_on_c,9,41,127,
2,1228,Note_on_c,9,42,127,
2,1228,Note_on_c,9,43,127,
2,1228,Note_on_c,9,45,127,
2,1228,Note_on_c,9,48,127,
2,1228,Note_on_c,9,51,127,
2,1228,Note_on_c,9,53,127,
2,1228,Note_on_c,9,80,127,
2,1228,Note_on_c,9,81,127,
2,1228,Note_on_c,9,82,127,
2,1229,Note_off_c,9,36,0,
2,1230,Note_on_c,9,36,127,
2,1230,Note_on_c,9,37,127,
2,1230,Note_on_c,9,38,127,
2,1230,Note_on_c,9,39,127,
2,1230,Note_on_c,9,41,127,
2,1230,Note_on_c,9,42,127,
2,1230,Note_on_c,9,43,127,
2,1230,Note_on_c,9,45,127,
2,1230,Note_on_c,9,48,127,
2,1230,Note_on_c,9,51,127,
2,1230,Note_on_c,9,53,127,
2,1230,Note_on_c,9,80,127,
2,1230,Note_on_c,9,81,127,
2,1230,Note_on_c,9,82,127,
2,1231,Note_off_c,9,36,0,
2,1232,Note_on_c,9,36,127,
2,1232,Note_on_c,9,37,127,
2,1232,Note_on_c,9,38,127,
2,1232,Note_on_c,9,39,127,
2,1232,Note_on_c,9,41,127,
2,1232,Note_on_c,9,42,127,
2,1232,Note_on_c,9,43,127,
2,1232,Note_on_c,9,45,127,
2,1232,Note_on_c,9,48,127,
2,1232,Note_on_c,9,51,127,
2,1232,Note_on_c,9,53,127,
2,1232,Note_on_c,9,80,127,
2,1232,Note_on_c,9,81,127,
2,1232,Note_on_c,9,82,127,
2,1233,Note_off_c,9,36,0,
2,1234,Note_on_c,9,36,127,
2,1234,Note_on_c,9,37,127,
2,1234,Note_on_c,9,38,127,
2,1234,Note_on_c,9,39,127,
2,1234,Note_on_c,9,41,127,
2,1234,Note_on_c,9,42,127,
2,1234,Note_on_c,9,43,127,
2,1234,Note_on_c,9,45,127,
2,1234,Note_on_c,9,48,127,
2,1234,Note_on_c,9,51,127,
2,1234,Note_on_c,9,53,127,
2,1234,Note_on_c,9,80,127,
2,1234,Note_on_c,9,81,127,
2,1234,Note_on_c,9,82,127,
2,1235,Note_off_c,9,36,0,
2,1236,Note_on_c,9,36,127,
2,1236,Note_on_c,9,37,127,
2,1236,Note_on_c,9,38,127,
2,1236,Note_on_c,9,39,127,
2,1236,Note_on_c,9,41,127,
2,1236,Note_on_c,9,42,127,
2,1236,Note_on_c,9,43,127,
2,1236,Note_on_c,9,45,127,
2,1236,Note_on_c,9,48,127,
2,1236,Note_on_c,9,51,127,
2,1236,Note_on_c,9,53,127,
2,1236,Note_on_c,9,80,127,
2,1236,Note_on_c,9,81,127,
2,1236,Note_on_c,9,82,127,
2,1237,Note_off_c,9,36,0,
2,1238,Note_on_c,9,36,127,
2,1238,Note_on_c,9,37,127,
2,1238,Note_on_c,9,38,127,
2,1238,Note_on_c,9,39,127,
2,1238,Note_on_c,9,41,127,
2,1238,Note_on_c,9,42,127,
2,1238,Note_on_c,9,43,127,
2,1238,Note_on_c,9,45,127,
2,1238,Note_on_c,9,48,127,
2,1238,Note_on_c,9,51,127,
2,1238,Note_on_c,9,53,127,
2,1238,Note_on_c,9,80,127,
2,1238,Note_on_c,9,81,127,
2,1238,Note_on_c,9,82,127,
2,1239,Note_off_c,9,36,0,
2,1240,Note_on_c,9,36,127,
2,1240,Note_on_c,9,37,127,
2,1240,Note_on_c,9,38,127,
2,1240,Note_on_c,9,39,127,
2,1240,Note_on_c,9,41,127,
2,1240,Note_on_c,9,42,127,
2,1240,Note_on_c,9,43,127,
2,1240,Note_on_c,9,45,127,
2,1240,Note_on_c,9,48,127,
2,1240,Note_on_c,9,51,127,
2,1240,Note_on_c,9,53,127,
2,1240,Note_on_c,9,80,127,
2,1240,Note_on_c,9,81,127,
2,1240,Note_on_c,9,82,127,
2,1241,Note_off_c,9,36,0,
2,1242,Note_on_c,9,36,127,
2,1242,Note_on_c,9,37,127,
2,1242,Note_on_c,9,38,127,
2,1242,Note_on_c,9,39,127,
2,1242,Note_on_c,9,41,127,
2,1242,Note_on_c,9,42,127,
2,1242,Note_on_c,9,43,127,
2,1242,Note_on_c,9,45,127,
2,1242,Note_on_c,9,48,127,
2,1242,Note_on_c,9,51,127,
2,1242,Note_on_c,9,53,127,
2,1242,Note_on_c,9,80,127,
2,1242,Note_on_c,9,81,127,
2,1242,Note_on_c,9,82,127,
2,1243,Note_off_c,9,36,0,
2,1244,Note_on_c,9,36,127,
2,1244,Note_on_c,9,37,127,
2,1244,Note_on_c,9,38,127,
2,1244,Note_on_c,9,39,127,
2,1244,Note_on_c,9,41,127,
2,1244,Note_on_c,9,42,127,
2,1244,Note_on_c,9,43,127,
2,1244,Note_on_c,9,45,127,
2,1244,Note_on_c,9,48,127,
2,1244,Note_on_c,9,51,127,
2,1244,Note_on_c,9,53,127,
2,1244,Note_on_c,9,80,127,
2,1244,Note_on_c,9,81,127,
2,1244,Note_on_c,9,82,127,
2,1245,Note_off_c,9,36,0,
2,1246,Note_on_c,9,36,127,
2,1246,Note_on_c,9,37,127,
2,1246,Note_on_c,9,38,127,
2,1246,Note_on_c,9,39,127,
2,1246,Note_on_c,9,41,127,
2,1246,Note_on_c,9,42,127,
2,1246,Note_on_c,9,43,127,
2,1246,Note_on_c,9,45,127,
2,1246,Note_on_c,9,48,127,
2,1246,Note_on_c,9,51,127,
2,1246,Note_on_c,9,53,127,
2,1246,Note_on_c,9,80,127,
2,1246,Note_on_c,9,81,127,
2,1246,Note_on_c,9,82,127,
2,1247,Note_off_c,9,36,0,
2,1248,Note_on_c,9,36,127,
2,1248,Note_on_c,9,37,127,
2,1248,Note_on_c,9,38,127,
2,1248,Note_on_c,9,39,127,
2,1248,Note_on_c,9,41,127,
2,1248,Note_on_c,9,42,127,
2,1248,Note_on_c,9,43,127,
2,1248,Note_on_c,9,45,127,
2,1248,Note_on_c,9,48,127,
2,1248,Note_on_c,9,51,127,
2,1248,Note_on_c,9,53,127,
2,1248,Note_on_c,9,80,127,
2,1248,Note_on_c,9,81,127,
2,1248,Note_on_c,9,82,127,
2,1249,Note_off_c,9,36,0,
2,1250,Note_on_c,9,36,127,
2,1250,Note_on_c,9,37,127,
2,1250,Note_on_c,9,38,127,
2,1250,Note_on_c,9,39,127,
2,1250,Note_on_c,9,41,127,
2,1250,Note_on_c,9,42,127,
2,1250,Note_on_c,9,43,127,
2,1250,Note_on_c,9,45,127,
2,1250,Note_on_c,9,48,127,
2,1250,Note_on_c,9,51,127,
2,1250,Note_on_c,9,53,127,
2,1250,Note_on_c,9,80,127,
2,1250,Note_on_c,9,81,127,
2,1250,Note_on_c,9,82,127,
2,1251,Note_off_c,9,36,0,
2,1252,Note_on_c,9,36,127,
2,1252,Note_on_c,9,37,127,
2,1252,Note_on_c,9,38,127,
2,1252,Note_on_c,9,39,127,
2,1252,Note_on_c,9,41,127,
2,1252,Note_on_c,9,42,127,
2,1252,Note_on_c,9,43,127,
2,1252,Note_on_c,9,45,127,
2,1252,Note_on_c,9,48,127,
2,1252,Note_on_c,9,51,127,
2,1252,Note_on_c,9,53,127,
2,1252,Note_on_c,9,80,127,
2,1252,Note_on_c,9,81,127,
2,1252,Note_on_c,9,82,127,
2,1253,Note_off_c,9,36,0,
2,1254,Note_on_c,9,36,127,
2,1254,Note_on_c,9,37,127,
2,1254,Note_on_c,9,38,127,
2,1254,Note_on_c,9,39,127,
2,1254,Note_on_c,9,41,127,
2,1254,Note_on_c,9,42,127,
2,1254,Note_on_c,9,43,127,
2,1254,Note_on_c,9,45,127,
2,1254,Note_on_c,9,48,127,
2,1254,Note_on_c,9,51,127,
2,1254,Note_on_c,9,53,127,
2,1254,Note_on_c,9,80,127,
2,1254,Note_on_c,9,81,127,
2,1254,Note_on_c,9,82,127,
2,1255,Note_off_c,9,36,0,
2,1256,Note_on_c,9,36,127,
2,1256,Note_on_c,9,37,127,
2,1256,Note_on_c,9,38,127,
2,1256,Note_on_c,9,39,127,
2,1256,Note_on_c,9,41,127,
2,1256,Note_on_c,9,42,127,
2,1256,Note_on_c,9,43,127,
2,1256,Note_on_c,9,45,127,
2,1256,Note_on_c,9,48,127,
2,1256,Note_on_c,9,51,127,
2,1256,Note_on_c,9,53,127,
2,1256,Note_on_c,9,80,127,
2,1256,Note_on_c,9,81,127,
2,1256,Note_on_c,9,82,127,
2,1257,Note_off_c,9,36,0,
2,1258,Note_on_c,9,36,127,
2,1258,Note_on_c,9,37,127,
2,1258,Note_on_c,9,38,127,
2,1258,Note_on_c,9,39,127,
2,1258,Note_on_c,9,41,127,
2,1258,Note_on_c,9,42,127,
2,1258,Note_on_c,9,43,127,
2,1258,Note_on_c,9,45,127,
2,1258,Note_on_c,9,48,127,
2,1258,Note_on_c,9,51,127,
2,1258,Note_on_c,9,53,127,
2,1258,Note_on_c,9,80,127,
2,1258,Note_on_c,9,81,127,
2,1258,Note_on_c,9,82,127,
2,1259,Note_off_c,9,36,0,
2,1260,Note_on_c,9,36,127,
2,1260,Note_on_c,9,37,127,
2,1260,Note_on_c,9,38,127,
2,1260,Note_on_c,9,39,127,
2,1260,Note_on_c,9,41,127,
2,1260,Note_on_c,9,42,127,
2,1260,Note_on_c,9,43,127,
2,1260,Note_on_c,9,45,127,
2,1260,Note_on_c,9,48,127,
2,1260,Note_on_c,9,51,127,
2,1260,Note_on_c,9,53,127,
2,1260,Note_on_c,9,80,127,
2,1260,Note_on_c,9,81,127,
2,1260,Note_on_c,9,82,127,
2,1261,Note_off_c,9,36,0,
2,1262,Note_on_c,9,36,127,
2,1262,Note_on_c,9,37,127,
2,1262,Note_on_c,9,38,127,
2,1262,Note_on_c,9,39,127,
2,1262,Note_on_c,9,41,127,
2,1262,Note_on_c,9,42,127,
2,1262,Note_on_c,9,43,127,
2,1262,Note_on_c,9,45,127,
2,1262,Note_on_c,9,48,127,
2,1262,Note_on_c,9,51,127,
2,1262,Note_on_c,9,53,127,
2,1262,Note_on_c,9,80,127,
2,1262,Note_on_c,9,81,127,
2,1262,Note_on_c,9,82,127,
2,1263,Note_off_c,9,36,0,
2,1264,Note_on_c,9,36,127,
2,1264,Note_on_c,9,37,127,
2,1264,Note_on_c,9,38,127,
2,1264,Note_on_c,9,39,127,
2,1264,Note_on_c,9,41,127,
2,1264,Note_on_c,9,42,127,
2,1264,Note_on_c,9,43,127,
2,1264,Note_on_c,9,45,127,
2,1264,Note_on_c,9,48,127,
2,1264,Note_on_c,9,51,127,
2,1264,Note_on_c,9,53,127,
2,1264,Note_on_c,9,80,127,
2,1264,Note_on_c,9,81,127,
2,1264,Note_on_c,9,82,127,
2,1265,Note_off_c,9,36,0,
2,1266,Note_on_c,9,36,127,
2,1266,Note_on_c,9,37,127,
2,1266,Note_on_c,9,38,127,
2,1266,Note_on_c,9,39,127,
2,1266,Note_on_c,9,41,127,
2,1266,Note_on_c,9,42,127,
2,1266,Note_on_c,9,43,127,
2,1266,Note_on_c,9,45,127,
2,1266,Note_on_c,9,48,127,
2,1266,Note_on_c,9,51,127,
2,1266,Note_on_c,9,53,127,
2,1266,Note_on_c,9,80,127,
2,1266,Note_on_c,9,81,127,
2,1266,Note_on_c,9,82,127,
2,1267,Note_off_c,9,36,0,
2,1268,Note_on_c,9,36,127,
2,1268,Note_on_c,9,37,127,
2,1268,Note_on_c,9,38,127,
2,1268,Note_on_c,9,39,127,
2,1268,Note_on_c,9,41,127,
2,1268,Note_on_c,9,42,127,
2,1268,Note_on_c,9,43,127,
2,1268,Note_on_c,9,45,127,
2,1268,Note_on_c,9,48,127,
2,1268,Note_on_c,9,51,127,
2,1268,Note_on_c,9,53,127,
2,1268,Note_on_c,9,80,127,
2,1268,Note_on_c,9,81,127,
2,1268,Note_on_c,9,82,127,
2,1269,Note_off_c,9,36,0,
2,1270,Note_on_c,9,36,127,
2,1270,Note_on_c,9,37,127,
2,1270,Note_on_c,9,38,127,
2,1270,Note_on_c,9,39,127,
2,1270,Note_on_c,9,41,127,
2,1270,Note_on_c,9,42,127,
2,1270,Note_on_c,9,43,127,
2,1270,Note_on_c,9,45,127,
2,1270,Note_on_c,9,48,127,
2,1270,Note_on_c,9,51,127,
2,1270,Note_on_c,9,53,127,
2,1270,Note_on_c,9,80,127,
2,1270,Note_on_c,9,81,127,
2,1270,Note_on_c,9,82,127,
2,1271,Note_off_c,9,36,0,
2,1272,Note_on_c,9,36,127,
2,1272,Note_on_c,9,37,127,
2,1272,Note_on_c,9,38,127,
2,1272,Note_on_c,9,39,127,
2,1272,Note_on_c,9,41,127,
2,1272,Note_on_c,9,42,127,
2,1272,Note_on_c,9,43,127,
2,1272,Note_on_c,9,45,127,
2,1272,Note_on_c,9,48,127,
2,1272,Note_on_c,9,51,127,
2,1272,Note_on_c,9,53,127,
2,1272,Note_on_c,9,80,127,
2,1272,Note_on_c,9,81,127,
2,1272,Note_on_c,9,82,127,
2,1273,Note_off_c,9,36,0,
2,1274,Note_on_c,9,36,127,
2,1274,Note_on_c,9,37,127,
2,1274,Note_on_c,9,38,127,
2,1274,Note_on_c,9,39,127,
2,1274,Note_on_c,9,41,127,
2,1274,Note_on_c,9,42,127,
2,1274,Note_on_c,9,43,127,
2,1274,Note_on_c,9,45,127,
2,1274,Note_on_c,9,48,127,
2,1274,Note_on_c,9,51,127,
2,1274,Note_on_c,9,53,127,
2,1274,Note_on_c,9,80,127,
2,1274,Note_on_c,9,81,127,
2,1274,Note_on_c,9,82,127,
2,1275,Note_off_c,9,36,0,
2,1276,Note_on_c,9,36,127,
2,1276,Note_on_c,9,37,127,
2,1276,Note_on_c,9,38,127,
2,1276,Note_on_c,9,39,127,
2,1276,Note_on_c,9,41,127,
2,1276,Note_on_c,9,42,127,
2,1276,Note_on_c,9,43,127,
2,1276,Note_on_c,9,45,127,
2,1276,Note_on_c,9,48,127,
2,1276,Note_on_c,9,51,127,
2,1276,Note_on_c,9,53,127,
2,1276,Note_on_c,9,80,127,
2,1276,Note_on_c,9,81,127,
2,1276,Note_on_c,9,82,127,
2,1277,Note_off_c,9,36,0,
2,1278,Note_on_c,9,36,127,
2,1278,Note_on_c,9,37,127,
2,1278,Note_on_c,9,38,127,
2,1278,Note_on_c,9,39,127,
2,1278,Note_on_c,9,41,127,
2,1278,Note_on_c,9,42,127,
2,1278,Note_on_c,9,43,127,
2,1278,Note_on_c,9,45,127,
2,1278,Note_on_c,9,48,127,
2,1278,Note_on_c,9,51,127,
2,1278,Note_on_c,9,53,127,
2,1278,Note_on_c,9,80,127,
2,1278,Note_on_c,9,81,127,
2,1278,Note_on_c,9,82,127,
2,1279,Note_off_c,9,36,0,
2,1280,Note_on_c,9,36,127,
2,1280,Note_on_c,9,37,127,
2,1280,Note_on_c,9,38,127,
2,1280,Note_on_c,9,39,127,
2,1280,Note_on_c,9,41,127,
2,1280,Note_on_c,9,42,127,
2,1280,Note_on_c,9,43,127,
2,1280,Note_on_c,9,45,127,
2,1280,Note_on_c,9,48,127,
2,1280,Note_on_c,9,51,127,
2,1280,Note_on_c,9,53,127,
2,1280,Note_on_c,9,80,127,
2,1280,Note_on_c,9,81,127,
2,1280,Note_on_c,9,82,127,
2,1281,Note_off_c,9,36,0,
2,1282,Note_on_c,9,36,127,
2,1282,Note_on_c,9,37,127,
2,1282,Note_on_c,9,38,127,
2,1282,Note_on_c,9,39,127,
2,1282,Note_on_c,9,41,127,
2,1282,Note_on_c,9,42,127,
2,1282,Note_on_c,9,43,127,
2,1282,Note_on_c,9,45,127,
2,1282,Note_on_c,9,48,127,
2,1282,Note_on_c,9,51,127,
2,1282,Note_on_c,9,53,127,
2,1282,Note_on_c,9,80,127,
2,1282,Note_on_c,9,81,127,
2,1282,Note_on_c,9,82,127,
2,1283,Note_off_c,9,36,0,
2,1284,Note_on_c,9,36,127,
2,1284,Note_on_c,9,37,127,
2,1284,Note_on_c,9,38,127,
2,1284,Note_on_c,9,39,127,
2,1284,Note_on_c,9,41,127,
2,1284,Note_on_c,9,42,127,
2,1284,Note_on_c,9,43,127,
2,1284,Note_on_c,9,45,127,
2,1284,Note_on_c,9,48,127,
2,1284,Note_on_c,9,51,127,
2,1284,Note_on_c,9,53,127,
2,1284,Note_on_c,9,80,127,
2,1284,Note_on_c,9,81,127,
2,1284,Note_on_c,9,82,127,
2,1285,Note_off_c,9,36,0,
2,1286,Note_on_c,9,36,127,
2,1286,Note_on_c,9,37,127,
2,1286,Note_on_c,9,38,127,
2,1286,Note_on_c,9,39,127,
2,1286,Note_on_c,9,41,127,
2,1286,Note_on_c,9,42,127,
2,1286,Note_on_c,9,43,127,
2,1286,Note_on_c,9,45,127,
2,1286,Note_on_c,9,48,127,
2,1286,Note_on_c,9,51,127,
2,1286,Note_on_c,9,53,127,
2,1286,Note_on_c,9,80,127,
2,1286,Note_on_c,9,81,127,
2,1286,Note_on_c,9,82,127,
2,1287,Note_off_c,9,36,0,
2,1288,Note_on_c,9,36,127,
2,1288,Note_on_c,9,37,127,
2,1288,Note_on_c,9,38,127,
2,1288,Note_on_c,9,39,127,
2,1288,Note_on_c,9,41,127,
2,1288,Note_on_c,9,42,127,
2,1288,Note_on_c,9,43,127,
2,1288,Note_on_c,9,45,127,
2,1288,Note_on_c,9,48,127,
2,1288,Note_on_c,9,51,127,
2,1288,Note_on_c,9,53,127,
2,1288,Note_on_c,9,80,127,
2,1288,Note_on_c,9,81,127,
2,1288,Note_on_c,9,82,127,
2,1289,Note_off_c,9,36,0,
2,1290,Note_on_c,9,36,127,
2,1290,Note_on_c,9,37,127,
2,1290,Note_on_c,9,38,127,
2,1290,Note_on_c,9,39,127,
2,1290,Note_on_c,9,41,127,
2,1290,Note_on_c,9,42,127,
2,1290,Note_on_c,9,43,127,
2,1290,Note_on_c,9,45,127,
2,1290,Note_on_c,9,48,127,
2,1290,Note_on_c,9,51,127,
2,1290,Note_on_c,9,53,127,
2,1290,Note_on_c,9,80,127,
2,1290,Note_on_c,9,81,127,
2,1290,Note_on_c,9,82,127,
2,1291,Note_off_c,9,36,0,
2,1292,Note_on_c,9,36,127,
2,1292,Note_on_c,9,37,127,
2,1292,Note_on_c,9,38,127,
2,1292,Note_on_c,9,39,127,
2,1292,Note_on_c,9,41,127,
2,1292,Note_on_c,9,42,127,
2,1292,Note_on_c,9,43,127,
2,1292,Note_on_c,9,45,127,
2,1292,Note_on_c,9,48,127,
2,1292,Note_on_c,9,51,127,
2,1292,Note_on_c,9,53,127,
2,1292,Note_on_c,9,80,127,
2,1292,Note_on_c,9,81,127,
2,1292,Note_on_c,9,82,127,
2,1293,Note_off_c,9,36,0,
2,1294,Note_on_c,9,36,127,
2,1294,Note_on_c,9,37,127,
2,1294,Note_on_c,9,38,127,
2,1294,Note_on_c,9,39,127,
2,1294,Note_on_c,9,41,127,
2,1294,Note_on_c,9,42,127,
2,1294,Note_on_c,9,43,127,
2,1294,Note_on_c,9,45,127,
2,1294,Note_on_c,9,48,127,
2,1294,Note_on_c,9,51,127,
2,1294,Note_on_c,9,53,127,
2,1294,Note_on_c,9,80,127,
2,1294,Note_on_c,9,81,127,
2,1294,Note_on_c,9,82,127,
2,1295,Note_off_c,9,36,0,
2,1296,Note_on_c,9,36,127,
2,1296,Note_on_c,9,37,127,
2,1296,Note_on_c,9,38,127,
2,1296,Note_on_c,9,39,127,
2,1296,Note_on_c,9,41,127,
2,1296,Note_on_c,9,42,127,
2,1296,Note_on_c,9,43,127,
2,1296,Note_on_c,9,45,127,
2,1296,Note_on_c,9,48,127,
2,1296,Note_on_c,9,51,127,
2,1296,Note_on_c,9,53,127,
2,1296,Note_on_c,9,80,127,
2,1296,Note_on_c,9,81,127,
2,1296,Note_on_c,9,82,127,
2,1297,Note_off_c,9,36,0,
2,1298,Note_on_c,9,36,127,
2,1298,Note_on_c,9,37,127,
2,1298,Note_on_c,9,38,127,
2,1298,Note_on_c,9,39,127,
2,1298,Note_on_c,9,41,127,
2,1298,Note_on_c,9,42,127,
2,1298,Note_on_c,9,43,127,
2,1298,Note_on_c,9,45,127,
2,1298,Note_on_c,9,48,127,
2,1298,Note_on_c,9,51,127,
2,1298,Note_on_c,9,53,127,
2,1298,Note_on_c,9,80,127,
2,1298,Note_on_c,9,81,127,
2,1298,Note_on_c,9,82,127,
2,1299,Note_off_c,9,36,0,
2,1300,Note_on_c,9,36,127,
2,1300,Note_on_c,9,37,127,
2,1300,Note_on_c,9,38,127,
2,1300,Note_on_c,9,39,127,
2,1300,Note_on_c,9,41,127,
2,1300,Note_on_c,9,42,127,
2,1300,Note_on_c,9,43,127,
2,1300,Note_on_c,9,45,127,
2,1300,Note_on_c,9,48,127,
2,1300,Note_on_c,9,51,127,
2,1300,Note_on_c,9,53,127,
2,1300,Note_on_c,9,80,127,
2,1300,Note_on_c,9,81,127,
2,1300,Note_on_c,9,82,127,
2,1301,Note_off_c,9,36,0,
2,1302,Note_on_c,9,36,127,
2,1302,Note_on_c,9,37,127,
2,1302,Note_on_c,9,38,127,
2,1302,Note_on_c,9,39,127,
2,1302,Note_on_c,9,41,127,
2,1302,Note_on_c,9,42,127,
2,1302,Note_on_c,9,43,127,
2,1302,Note_on_c,9,45,127,
2,1302,Note_on_c,9,48,127,
2,1302,Note_on_c,9,51,127,
2,1302,Note_on_c,9,53,127,
2,1302,Note_on_c,9,80,127,
2,1302,Note_on_c,9,81,127,
2,1302,Note_on_c,9,82,127,
2,1303,Note_off_c,9,36,0,
2,1304,Note_on_c,9,36,127,
2,1304,Note_on_c,9,37,127,
2,1304,Note_on_c,9,38,127,
2,1304,Note_on_c,9,39,127,
2,1304,Note_on_c,9,41,127,
2,1304,Note_on_c,9,42,127,
2,1304,Note_on_c,9,43,127,
2,1304,Note_on_c,9,45,127,
2,1304,Note_on_c,9,48,127,
2,1304,Note_on_c,9,51,127,
2,1304,Note_on_c,9,53,127,
2,1304,Note_on_c,9,80,127,
2,1304,Note_on_c,9,81,127,
2,1304,Note_on_c,9,82,127,
2,1305,Note_off_c,9,36,0,
2,1306,Note_on_c,9,36,127,
2,1306,Note_on_c,9,37,127,
2,1306,Note_on_c,9,38,127,
2,1306,Note_on_c,9,39,127,
2,1306,Note_on_c,9,41,127,
2,1306,Note_on_c,9,42,127,
2,1306,Note_on_c,9,43,127,
2,1306,Note_on_c,9,45,127,
2,1306,Note_on_c,9,48,127,
2,1306,Note_on_c,9,51,127,
2,1306,Note_on_c,9,53,127,
2,1306,Note_on_c,9,80,127,
2,1306,Note_on_c,9,81,127,
2,1306,Note_on_c,9,82,127,
2,1307,Note_off_c,9,36,0,
2,1308,Note_on_c,9,36,127,
2,1308,Note_on_c,9,37,127,
2,1308,Note_on_c,9,38,127,
2,1308,Note_on_c,9,39,127,
2,1308,Note_on_c,9,41,127,
2,1308,Note_on_c,9,42,127,
2,1308,Note_on_c,9,43,127,
2,1308,Note_on_c,9,45,127,
2,1308,Note_on_c,9,48,127,
2,1308,Note_on_c,9,51,127,
2,1308,Note_on_c,9,53,127,
2,1308,Note_on_c,9,80,127,
2,1308,Note_on_c,9,81,127,
2,1308,Note_on_c,9,82,127,
2,1309,Note_off_c,9,36,0,
2,1310,Note_on_c,9,36,127,
2,1310,Note_on_c,9,37,127,
2,1310,Note_on_c,9,38,127,
2,1310,Note_on_c,9,39,127,
2,1310,Note_on_c,9,41,127,
2,1310,Note_on_c,9,42,127,
2,1310,Note_on_c,9,43,127,
2,1310,Note_on_c,9,45,127,
2,1310,Note_on_c,9,48,127,
2,1310,Note_on_c,9,51,127,
2,1310,Note_on_c,9,53,127,
2,1310,Note_on_c,9,80,127,
2,1310,Note_on_c,9,81,127,
2,1310,Note_on_c,9,82,127,
2,1311,Note_off_c,9,36,0,
2,1312,Note_on_c,9,36,127,
2,1312,Note_on_c,9,37,127,
2,1312,Note_on_c,9,38,127,
2,1312,Note_on_c,9,39,127,
2,1312,Note_on_c,9,41,127,
2,1312,Note_on_c,9,42,127,
2,1312,Note_on_c,9,43,127,
2,1312,Note_on_c,9,45,127,
2,1312,Note_on_c,9,48,127,
2,1312,Note_on_c,9,51,127,
2,1312,Note_on_c,9,53,127,
2,1312,Note_on_c,9,80,127,
2,1312,Note_on_c,9,81,127,
2,1312,Note_on_c,9,82,127,
2,1313,Note_off_c,9,36,0,
2,1314,Note_on_c,9,36,127,
2,1314,Note_on_c,9,37,127,
2,1314,Note_on_c,9,38,127,
2,1314,Note_on_c,9,39,127,
2,1314,Note_on_c,9,41,127,
2,1314,Note_on_c,9,42,127,
2,1314,Note_on_c,9,43,127,
2,1314,Note_on_c,9,45,127,
2,1314,Note_on_c,9,48,127,
2,1314,Note_on_c,9,51,127,
2,1314,Note_on_c,9,53,127,
2,1314,Note_on_c,9,80,127,
2,1314,Note_on_c,9,81,127,
2,1314,Note_on_c,9,82,127,
2,1315,Note_off_c,9,36,0,
2,1316,Note_on_c,9,36,127,
2,1316,Note_on_c,9,37,127,
2,1316,Note_on_c,9,38,127,
2,1316,Note_on_c,9,39,127,
2,1316,Note_on_c,9,41,127,
2,1316,Note_on_c,9,42,127,
2,1316,Note_on_c,9,43,127,
2,1316,Note_on_c,9,45,127,
2,1316,Note_on_c,9,48,127,
2,1316,Note_on_c,9,51,127,
2,1316,Note_on_c,9,53,127,
2,1316,Note_on_c,9,80,127,
2,1316,Note_on_c,9,81,127,
2,1316,Note_on_c,9,82,127,
2,1317,Note_off_c,9,36,0,
2,1318,Note_on_c,9,36,127,
2,1318,Note_on_c,9,37,127,
2,1318,Note_on_c,9,38,127,
2,1318,Note_on_c,9,39,127,
2,1318,Note_on_c,9,41,127,
2,1318,Note_on_c,9,42,127,
2,1318,Note_on_c,9,43,127,
2,1318,Note_on_c,9,45,127,
2,1318,Note_on_c,9,48,127,
2,1318,Note_on_c,9,51,127,
2,1318,Note_on_c,9,53,127,
2,1318,Note_on_c,9,80,127,
2,1318,Note_on_c,9,81,127,
2,1318,Note_on_c,9,82,127,
2,1319,Note_off_c,9,36,0,
2,1320,Note_on_c,9,36,127,
2,1320,Note_on_c,9,37,127,
2,1320,Note_on_c,9,38,127,
2,1320,Note_on_c,9,39,127,
2,1320,Note_on_c,9,41,127,
2,1320,Note_on_c,9,42,127,
2,1320,Note_on_c,9,43,127,
2,1320,Note_on_c,9,45,127,
2,1320,Note_on_c,9,48,127,
2,1320,Note_on_c,9,51,127,
2,1320,Note_on_c,9,53,127,
2,1320,Note_on_c,9,80,127,
2,1320,Note_on_c,9,81,127,
2,1320,Note_on_c,9,82,127,
2,1321,Note_off_c,9,36,0,
2,1322,Note_on_c,9,36,127,
2,1322,Note_on_c,9,37,127,
2,1322,Note_on_c,9,38,127,
2,1322,Note_on_c,9,39,127,
2,1322,Note_on_c,9,41,127,
2,1322,Note_on_c,9,42,127,
2,1322,Note_on_c,9,43,127,
2,1322,Note_on_c,9,45,127,
2,1322,Note_on_c,9,48,127,
2,1322,Note_on_c,9,51,127,
2,1322,Note_on_c,9,53,127,
2,1322,Note_on_c,9,80,127,
2,1322,Note_on_c,9,81,127,
2,1322,Note_on_c,9,82,127,
2,1323,Note_off_c,9,36,0,
2,1324,Note_on_c,9,36,127,
2,1324,Note_on_c,9,37,127,
2,1324,Note_on_c,9,38,127,
2,1324,Note_on_c,9,39,127,
2,1324,Note_on_c,9,41,127,
2,1324,Note_on_c,9,42,127,
2,1324,Note_on_c,9,43,127,
2,1324,Note_on_c,9,45,127,
2,1324,Note_on_c,9,48,127,
2,1324,Note_on_c,9,51,127,
2,1324,Note_on_c,9,53,127,
2,1324,Note_on_c,9,80,127,
2,1324,Note_on_c,9,81,127,
2,1324,Note_on_c,9,82,127,
2,1325,Note_off_c,9,36,0,
2,1326,Note_on_c,9,36,127,
2,1326,Note_on_c,9,37,127,
2,1326,Note_on_c,9,38,127,
2,1326,Note_on_c,9,39,127,
2,1326,Note_on_c,9,41,127,
2,1326,Note_on_c,9,42,127,
2,1326,Note_on_c,9,43,127,
2,1326,Note_on_c,9,45,127,
2,1326,Note_on_c,9,48,127,
2,1326,Note_on_c,9,51,127,
2,1326,Note_on_c,9,53,127,
2,1326,Note_on_c,9,80,127,
2,1326,Note_on_c,9,81,127,
2,1326,Note_on_c,9,82,127,
2,1327,Note_off_c,9,36,0,
2,1328,Note_on_c,9,36,127,
2,1328,Note_on_c,9,37,127,
2,1328,Note_on_c,9,38,127,
2,1328,Note_on_c,9,39,127,
2,1328,Note_on_c,9,41,127,
2,1328,Note_on_c,9,42,127,
2,1328,Note_on_c,9,43,127,
2,1328,Note_on_c,9,45,127,
2,1328,Note_on_c,9,48,127,
2,1328,Note_on_c,9,51,127,
2,1328,Note_on_c,9,53,127,
2,1328,Note_on_c,9,80,127,
2,1328,Note_on_c,9,81,127,
2,1328,Note_on_c,9,82,127,
2,1329,Note_off_c,9,36,0,
2,1330,Note_on_c,9,36,127,
2,1330,Note_on_c,9,37,127,
2,1330,Note_on_c,9,38,127,
2,1330,Note_on_c,9,39,127,
2,1330,Note_on_c,9,41,127,
2,1330,Note_on_c,9,42,127,
2,1330,Note_on_c,9,43,127,
2,1330,Note_on_c,9,45,127,
2,1330,Note_on_c,9,48,127,
2,1330,Note_on_c,9,51,127,
2,1330,Note_on_c,9,53,127,
2,1330,Note_on_c,9,80,127,
2,1330,Note_on_c,9,81,127,
2,1330,Note_on_c,9,82,127,
2,1331,Note_off_c,9,36,0,
2,1332,Note_on_c,9,36,127,
2,1332,Note_on_c,9,37,127,
2,1332,Note_on_c,9,38,127,
2,1332,Note_on_c,9,39,127,
2,1332,Note_on_c,9,41,127,
2,1332,Note_on_c,9,42,127,
2,1332,Note_on_c,9,43,127,
2,1332,Note_on_c,9,45,127,
2,1332,Note_on_c,9,48,127,
2,1332,Note_on_c,9,51,127,
2,1332,Note_on_c,9,53,127,
2,1332,Note_on_c,9,80,127,
2,1332,Note_on_c,9,81,127,
2,1332,Note_on_c,9,82,127,
2,1333,Note_off_c,9,36,0,
2,1334,Note_on_c,9,36,127,
2,1334,Note_on_c,9,37,127,
2,1334,Note_on_c,9,38,127,
2,1334,Note_on_c,9,39,127,
2,1334,Note_on_c,9,41,127,
2,1334,Note_on_c,9,42,127,
2,1334,Note_on_c,9,43,127,
2,1334,Note_on_c,9,45,127,
2,1334,Note_on_c,9,48,127,
2,1334,Note_on_c,9,51,127,
2,1334,Note_on_c,9,53,127,
2,1334,Note_on_c,9,80,127,
2,1334,Note_on_c,9,81,127,
2,1334,Note_on_c,9,82,127,
2,1335,Note_off_c,9,36,0,
2,1336,Note_on_c,9,36,127,
2,1336,Note_on_c,9,37,127,
2,1336,Note_on_c,9,38,127,
2,1336,Note_on_c,9,39,127,
2,1336,Note_on_c,9,41,127,
2,1336,Note_on_c,9,42,127,
2,1336,Note_on_c,9,43,127,
2,1336,Note_on_c,9,45,127,
2,1336,Note_on_c,9,48,127,
2,1336,Note_on_c,9,51,127,
2,1336,Note_on_c,9,53,127,
2,1336,Note_on_c,9,80,127,
2,1336,Note_on_c,9,81,127,
2,1336,Note_on_c,9,82,127,
2,1337,Note_off_c,9,36,0,
2,1338,Note_on_c,9,36,127,
2,1338,Note_on_c,9,37,127,
2,1338,Note_on_c,9,38,127,
2,1338,Note_on_c,9,39,127,
2,1338,Note_on_c,9,41,127,
2,1338,Note_on_c,9,42,127,
2,1338,Note_on_c,9,43,127,
2,1338,Note_on_c,9,45,127,
2,1338,Note_on_c,9,48,127,
2,1338,Note_on_c,9,51,127,
2,1338,Note_on_c,9,53,127,
2,1338,Note_on_c,9,80,127,
2,1338,Note_on_c,9,81,127,
2,1338,Note_on_c,9,82,127,
2,1339,Note_off_c,9,36,0,
2,1340,Note_on_c,9,36,127,
2,1340,Note_on_c,9,37,127,
2,1340,Note_on_c,9,38,127,
2,1340,Note_on_c,9,39,127,
2,1340,Note_on_c,9,41,127,
2,1340,Note_on_c,9,42,127,
2,1340,Note_on_c,9,43,127,
2,1340,Note_on_c,9,45,127,
2,1340,Note_on_c,9,48,127,
2,1340,Note_on_c,9,51,127,
2,1340,Note_on_c,9,53,127,
2,1340,Note_on_c,9,80,127,
2,1340,Note_on_c,9,81,127,
2,1340,Note_on_c,9,82,127,
2,1341,Note_off_c,9,36,0,
2,1342,Note_on_c,9,36,127,
2,1342,Note_on_c,9,37,127,
2,1342,Note_on_c,9,38,127,
2,1342,Note_on_c,9,39,127,
2,1342,Note_on_c,9,41,127,
2,1342,Note_on_c,9,42,127,
2,1342,Note_on_c,9,43,127,
2,1342,Note_on_c,9,45,127,
2,1342,Note_on_c,9,48,127,
2,1342,Note_on_c,9,51,127,
2,1342,Note_on_c,9,53,127,
2,1342,Note_on_c,9,80,127,
2,1342,Note_on_c,9,81,127,
2,1342,Note_on_c,9,82,127,
2,1343,Note_off_c,9,36,0,
2,1344,Note_on_c,9,36,127,
2,1344,Note_on_c,9,37,127,
2,1344,Note_on_c,9,38,127,
2,1344,Note_on_c,9,39,127,
2,1344,Note_on_c,9,41,127,
2,1344,Note_on_c,9,42,127,
2,1344,Note_on_c,9,43,127,
2,1344,Note_on_c,9,45,127,
2,1344,Note_on_c,9,48,127,
2,1344,Note_on_c,9,51,127,
2,1344,Note_on_c,9,53,127,
2,1344,Note_on_c,9,80,127,
2,1344,Note_on_c,9,81,127,
2,1344,Note_on_c,9,82,127,
2,1345,Note_off_c,9,36,0,
2,1346,Note_on_c,9,36,127,
2,1346,Note_on_c,9,37,127,
2,1346,Note_on_c,9,38,127,
2,1346,Note_on_c,9,39,127,
2,1346,Note_on_c,9,41,127,
2,1346,Note_on_c,9,42,127,
2,1346,Note_on_c,9,43,127,
2,1346,Note_on_c,9,45,127,
2,1346,Note_on_c,9,48,127,
2,1346,Note_on_c,9,51,127,
2,1346,Note_on_c,9,53,127,
2,1346,Note_on_c,9,80,127,
2,1346,Note_on_c,9,81,127,
2,1346,Note_on_c,9,82,127,
2,1347,Note_off_c,9,36,0,
2,1348,Note_on_c,9,36,127,
2,1348,Note_on_c,9,37,127,
2,1348,Note_on_c,9,38,127,
2,1348,Note_on_c,9,39,127,
2,1348,Note_on_c,9,41,127,
2,1348,Note_on_c,9,42,127,
2,1348,Note_on_c,9,43,127,
2,1348,Note_on_c,9,45,127,
2,1348,Note_on_c,9,48,127,
2,1348,Note_on_c,9,51,127,
2,1348,Note_on_c,9,53,127,
2,1348,Note_on_c,9,80,127,
2,1348,Note_on_c,9,81,127,
2,1348,Note_on_c,9,82,127,
2,1349,Note_off_c,9,36,0,
2,1350,Note_on_c,9,36,127,
2,1350,Note_on_c,9,37,127,
2,1350,Note_on_c,9,38,127,
2,1350,Note_on_c,9,39,127,
2,1350,Note_on_c,9,41,127,
2,1350,Note_on_c,9,42,127,
2,1350,Note_on_c,9,43,127,
2,1350,Note_on_c,9,45,127,
2,1350,Note_on_c,9,48,127,
2,1350,Note_on_c,9,51,127,
2,1350,Note_on_c,9,53,127,
2,1350,Note_on_c,9,80,127,
2,1350,Note_on_c,9,81,127,
2,1350,Note_on_c,9,82,127,
2,1351,Note_off_c,9,36,0,
2,1352,Note_on_c,9,36,127,
2,1352,Note_on_c,9,37,127,
2,1352,Note_on_c,9,38,127,
2,1352,Note_on_c,9,39,127,
2,1352,Note_on_c,9,41,127,
2,1352,Note_on_c,9,42,127,
2,1352,Note_on_c,9,43,127,
2,1352,Note_on_c,9,45,127,
2,1352,Note_on_c,9,48,127,
2,1352,Note_on_c,9,51,127,
2,1352,Note_on_c,9,53,127,
2,1352,Note_on_c,9,80,127,
2,1352,Note_on_c,9,81,127,
2,1352,Note_on_c,9,82,127,
2,1353,Note_off_c,9,36,0,
2,1354,Note_on_c,9,36,127,
2,1354,Note_on_c,9,37,127,
2,1354,Note_on_c,9,38,127,
2,1354,Note_on_c,9,39,127,
2,1354,Note_on_c,9,41,127,
2,1354,Note_on_c,9,42,127,
2,1354,Note_on_c,9,43,127,
2,1354,Note_on_c,9,45,127,
2,1354,Note_on_c,9,48,127,
2,1354,Note_on_c,9,51,127,
2,1354,Note_on_c,9,53,127,
2,1354,Note_on_c,9,80,127,
2,1354,Note_on_c,9,81,127,
2,1354,Note_on_c,9,82,127,
2,1355,Note_off_c,9,36,0,
2,1356,Note_on_c,9,36,127,
2,1356,Note_on_c,9,37,127,
2,1356,Note_on_c,9,38,127,
2,1356,Note_on_c,9,39,127,
2,1356,Note_on_c,9,41,127,
2,1356,Note_on_c,9,42,127,
2,1356,Note_on_c,9,43,127,
2,1356,Note_on_c,9,45,127,
2,1356,Note_on_c,9,48,127,
2,1356,Note_on_c,9,51,127,
2,1356,Note_on_c,9,53,127,
2,1356,Note_on_c,9,80,127,
2,1356,Note_on_c,9,81,127,
2,1356,Note_on_c,9,82,127,
2,1357,Note_off_c,9,36,0,
2,1358,Note_on_c,9,36,127,
2,1358,Note_on_c,9,37,127,
2,1358,Note_on_c,9,38,127,
2,1358,Note_on_c,9,39,127,
2,1358,Note_on_c,9,41,127,
2,1358,Note_on_c,9,42,127,
2,1358,Note_on_c,9,43,127,
2,1358,Note_on_c,9,45,127,
2,1358,Note_on_c,9,48,127,
2,1358,Note_on_c,9,51,127,
2,1358,Note_on_c,9,53,127,
2,1358,Note_on_c,9,80,127,
2,1358,Note_on_c,9,81,127,
2,1358,Note_on_c,9,82,127,
2,1359,Note_off_c,9,36,0,
2,1360,Note_on_c,9,36,127,
2,1360,Note_on_c,9,37,127,
2,1360,Note_on_c,9,38,127,
2,1360,Note_on_c,9,39,127,
2,1360,Note_on_c,9,41,127,
2,1360,Note_on_c,9,42,127,
2,1360,Note_on_c,9,43,127,
2,1360,Note_on_c,9,45,127,
2,1360,Note_on_c,9,48,127,
2,1360,Note_on_c,9,51,127,
2,1360,Note_on_c,9,53,127,
2,1360,Note_on_c,9,80,127,
2,1360,Note_on_c,9,81,127,
2,1360,Note_on_c,9,82,127,
2,1361,Note_off_c,9,36,0,
2,1362,Note_on_c,9,36,127,
2,1362,Note_on_c,9,37,127,
2,1362,Note_on_c,9,38,127,
2,1362,Note_on_c,9,39,127,
2,1362,Note_on_c,9,41,127,
2,1362,Note_on_c,9,42,127,
2,1362,Note_on_c,9,43,127,
2,1362,Note_on_c,9,45,127,
2,1362,Note_on_c,9,48,127,
2,1362,Note_on_c,9,51,127,
2,1362,Note_on_c,9,53,127,
2,1362,Note_on_c,9,80,127,
2,1362,Note_on_c,9,81,127,
2,1362,Note_on_c,9,82,127,
2,1363,Note_off_c,9,36,0,
2,1364,Note_on_c,9,36,127,
2,1364,Note_on_c,9,37,127,
2,1364,Note_on_c,9,38,127,
2,1364,Note_on_c,9,39,127,
2,1364,Note_on_c,9,41,127,
2,1364,Note_on_c,9,42,127,
2,1364,Note_on_c,9,43,127,
2,1364,Note_on_c,9,45,127,
2,1364,Note_on_c,9,48,127,
2,1364,Note_on_c,9,51,127,
2,1364,Note_on_c,9,53,127,
2,1364,Note_on_c,9,80,127,
2,1364,Note_on_c,9,81,127,
2,1364,Note_on_c,9,82,127,
2,1365,Note_off_c,9,36,0,
2,1366,Note_on_c,9,36,127,
2,1366,Note_on_c,9,37,127,
2,1366,Note_on_c,9,38,127,
2,1366,Note_on_c,9,39,127,
2,1366,Note_on_c,9,41,127,
2,1366,Note_on_c,9,42,127,
2,1366,Note_on_c,9,43,127,
2,1366,Note_on_c,9,45,127,
2,1366,Note_on_c,9,48,127,
2,1366,Note_on_c,9,51,127,
2,1366,Note_on_c,9,53,127,
2,1366,Note_on_c,9,80,127,
2,1366,Note_on_c,9,81,127,
2,1366,Note_on_c,9,82,127,
2,1367,Note_off_c,9,36,0,
2,1368,Note_on_c,9,36,127,
2,1368,Note_on_c,9,37,127,
2,1368,Note_on_c,9,38,127,
2,1368,Note_on_c,9,39,127,
2,1368,Note_on_c,9,41,127,
2,1368,Note_on_c,9,42,127,
2,1368,Note_on_c,9,43,127,
2,1368,Note_on_c,9,45,127,
2,1368,Note_on_c,9,48,127,
2,1368,Note_on_c,9,51,127,
2,1368,Note_on_c,9,53,127,
2,1368,Note_on_c,9,80,127,
2,1368,Note_on_c,9,81,127,
2,1368,Note_on_c,9,82,127,
2,1369,Note_off_c,9,36,0,
2,1370,Note_on_c,9,36,127,
2,1370,Note_on_c,9,37,127,
2,1370,Note_on_c,9,38,127,
2,1370,Note_on_c,9,39,127,
2,1370,Note_on_c,9,41,127,
2,1370,Note_on_c,9,42,127,
2,1370,Note_on_c,9,43,127,
2,1370,Note_on_c,9,45,127,
2,1370,Note_on_c,9,48,127,
2,1370,Note_on_c,9,51,127,
2,1370,Note_on_c,9,53,127,
2,1370,Note_on_c,9,80,127,
2,1370,Note_on_c,9,81,127,
2,1370,Note_on_c,9,82,127,
2,1371,Note_off_c,9,36,0,
2,1372,Note_on_c,9,36,127,
2,1372,Note_on_c,9,37,127,
2,1372,Note_on_c,9,38,127,
2,1372,Note_on_c,9,39,127,
2,1372,Note_on_c,9,41,127,
2,1372,Note_on_c,9,42,127,
2,1372,Note_on_c,9,43,127,
2,1372,Note_on_c,9,45,127,
2,1372,Note_on_c,9,48,127,
2,1372,Note_on_c,9,51,127,
2,1372,Note_on_c,9,53,127,
2,1372,Note_on_c,9,80,127,
2,1372,Note_on_c,9,81,127,
2,1372,Note_on_c,9,82,127,
2,1373,Note_off_c,9,36,0,
2,1374,Note_on_c,9,36,127,
2,1374,Note_on_c,9,37,127,
2,1374,Note_on_c,9,38,127,
2,1374,Note_on_c,9,39,127,
2,1374,Note_on_c,9,41,127,
2,1374,Note_on_c,9,42,127,
2,1374,Note_on_c,9,43,127,
2,1374,Note_on_c,9,45,127,
2,1374,Note_on_c,9,48,127,
2,1374,Note_on_c,9,51,127,
2,1374,Note_on_c,9,53,127,
2,1374,Note_on_c,9,80,127,
2,1374,Note_on_c,9,81,127,
2,1374,Note_on_c,9,82,127,
2,1375,Note_off_c,9,36,0,
2,1376,Note_on_c,9,36,127,
2,1376,Note_on_c,9,37,127,
2,1376,Note_on_c,9,38,127,
2,1376,Note_on_c,9,39,127,
2,1376,Note_on_c,9,41,127,
2,1376,Note_on_c,9,42,127,
2,1376,Note_on_c,9,43,127,
2,1376,Note_on_c,9,45,127,
2,1376,Note_on_c,9,48,127,
2,1376,Note_on_c,9,51,127,
2,1376,Note_on_c,9,53,127,
2,1376,Note_on_c,9,80,127,
2,1376,Note_on_c,9,81,127,
2,1376,Note_on_c,9,82,127,
2,1377,Note_off_c,9,36,0,
2,1378,Note_on_c,9,36,127,
2,1378,Note_on_c,9,37,127,
2,1378,Note_on_c,9,38,127,
2,1378,Note_on_c,9,39,127,
2,1378,Note_on_c,9,41,127,
2,1378,Note_on_c,9,42,127,
2,1378,Note_on_c,9,43,127,
2,1378,Note_on_c,9,45,127,
2,1378,Note_on_c,9,48,127,
2,1378,Note_on_c,9,51,127,
2,1378,Note_on_c,9,53,127,
2,1378,Note_on_c,9,80,127,
2,1378,Note_on_c,9,81,127,
2,1378,Note_on_c,9,82,127,
2,1379,Note_off_c,9,36,0,
2,1380,Note_on_c,9,36,127,
2,1380,Note_on_c,9,37,127,
2,1380,Note_on_c,9,38,127,
2,1380,Note_on_c,9,39,127,
2,1380,Note_on_c,9,41,127,
2,1380,Note_on_c,9,42,127,
2,1380,Note_on_c,9,43,127,
2,1380,Note_on_c,9,45,127,
2,1380,Note_on_c,9,48,127,
2,1380,Note_on_c,9,51,127,
2,1380,Note_on_c,9,53,127,
2,1380,Note_on_c,9,80,127,
2,1380,Note_on_c,9,81,127,
2,1380,Note_on_c,9,82,127,
2,1381,Note_off_c,9,36,0,
2,1382,Note_on_c,9,36,127,
2,1382,Note_on_c,9,37,127,
2,1382,Note_on_c,9,38,127,
2,1382,Note_on_c,9,39,127,
2,1382,Note_on_c,9,41,127,
2,1382,Note_on_c,9,42,127,
2,1382,Note_on_c,9,43,127,
2,1382,Note_on_c,9,45,127,
2,1382,Note_on_c,9,48,127,
2,1382,Note_on_c,9,51,127,
2,1382,Note_on_c,9,53,127,
2,1382,Note_on_c,9,80,127,
2,1382,Note_on_c,9,81,127,
2,1382,Note_on_c,9,82,127,
2,1383,Note_off_c,9,36,0,
2,1384,Note_on_c,9,36,127,
2,1384,Note_on_c,9,37,127,
2,1384,Note_on_c,9,38,127,
2,1384,Note_on_c,9,39,127,
2,1384,Note_on_c,9,41,127,
2,1384,Note_on_c,9,42,127,
2,1384,Note_on_c,9,43,127,
2,1384,Note_on_c,9,45,127,
2,1384,Note_on_c,9,48,127,
2,1384,Note_on_c,9,51,127,
2,1384,Note_on_c,9,53,127,
2,1384,Note_on_c,9,80,127,
2,1384,Note_on_c,9,81,127,
2,1384,Note_on_c,9,82,127,
2,1385,Note_off_c,9,36,0,
2,1386,Note_on_c,9,36,127,
2,1386,Note_on_c,9,37,127,
2,1386,Note_on_c,9,38,127,
2,1386,Note_on_c,9,39,127,
2,1386,Note_on_c,9,41,127,
2,1386,Note_on_c,9,42,127,
2,1386,Note_on_c,9,43,127,
2,1386,Note_on_c,9,45,127,
2,1386,Note_on_c,9,48,127,
2,1386,Note_on_c,9,51,127,
2,1386,Note_on_c,9,53,127,
2,1386,Note_on_c,9,80,127,
2,1386,Note_on_c,9,81,127,
2,1386,Note_on_c,9,82,127,
2,1387,Note_off_c,9,36,0,
2,1388,Note_on_c,9,36,127,
2,1388,Note_on_c,9,37,127,
2,1388,Note_on_c,9,38,127,
2,1388,Note_on_c,9,39,127,
2,1388,Note_on_c,9,41,127,
2,1388,Note_on_c,9,42,127,
2,1388,Note_on_c,9,43,127,
2,1388,Note_on_c,9,45,127,
2,1388,Note_on_c,9,48,127,
2,1388,Note_on_c,9,51,127,
2,1388,Note_on_c,9,53,127,
2,1388,Note_on_c,9,80,127,
2,1388,Note_on_c,9,81,127,
2,1388,Note_on_c,9,82,127,
2,1389,Note_off_c,9,36,0,
2,1390,Note_on_c,9,36,127,
2,1390,Note_on_c,9,37,127,
2,1390,Note_on_c,9,38,127,
2,1390,Note_on_c,9,39,127,
2,1390,Note_on_c,9,41,127,
2,1390,Note_on_c,9,42,127,
2,1390,Note_on_c,9,43,127,
2,1390,Note_on_c,9,45,127,
2,1390,Note_on_c,9,48,127,
2,1390,Note_on_c,9,51,127,
2,1390,Note_on_c,9,53,127,
2,1390,Note_on_c,9,80,127,
2,1390,Note_on_c,9,81,127,
2,1390,Note_on_c,9,82,127,
2,1391,Note_off_c,9,36,0,
2,1392,Note_on_c,9,36,127,
2,1392,Note_on_c,9,37,127,
2,1392,Note_on_c,9,38,127,
2,1392,Note_on_c,9,39,127,
2,1392,Note_on_c,9,41,127,
2,1392,Note_on_c,9,42,127,
2,1392,Note_on_c,9,43,127,
2,1392,Note_on_c,9,45,127,
2,1392,Note_on_c,9,48,127,
2,1392,Note_on_c,9,51,127,
2,1392,Note_on_c,9,53,127,
2,1392,Note_on_c,9,80,127,
2,1392,Note_on_c,9,81,127,
2,1392,Note_on_c,9,82,127,
2,1393,Note_off_c,9,36,0,
2,1394,Note_on_c,9,36,127,
2,1394,Note_on_c,9,37,127,
2,1394,Note_on_c,9,38,127,
2,1394,Note_on_c,9,39,127,
2,1394,Note_on_c,9,41,127,
2,1394,Note_on_c,9,42,127,
2,1394,Note_on_c,9,43,127,
2,1394,Note_on_c,9,45,127,
2,1394,Note_on_c,9,48,127,
2,1394,Note_on_c,9,51,127,
2,1394,Note_on_c,9,53,127,
2,1394,Note_on_c,9,80,127,
2,1394,Note_on_c,9,81,127,
2,1394,Note_on_c,9,82,127,
2,1395,Note_off_c,9,36,0,
2,1396,Note_on_c,9,36,127,
2,1396,Note_on_c,9,37,127,
2,1396,Note_on_c,9,38,127,
2,1396,Note_on_c,9,39,127,
2,1396,Note_on_c,9,41,127,
2,1396,Note_on_c,9,42,127,
2,1396,Note_on_c,9,43,127,
2,1396,Note_on_c,9,45,127,
2,1396,Note_on_c,9,48,127,
2,1396,Note_on_c,9,51,127,
2,1396,Note_on_c,9,53,127,
2,1396,Note_on_c,9,80,127,
2,1396,Note_on_c,9,81,127,
2,1396,Note_on_c,9,82,127,
2,1397,Note_off_c,9,36,0,
2,1398,Note_on_c,9,36,127,
2,1398,Note_on_c,9,37,127,
2,1398,Note_on_c,9,38,127,
2,1398,Note_on_c,9,39,127,
2,1398,Note_on_c,9,41,127,
2,1398,Note_on_c,9,42,127,
2,1398,Note_on_c,9,43,127,
2,1398,Note_on_c,9,45,127,
2,1398,Note_on_c,9,48,127,
2,1398,Note_on_c,9,51,127,
2,1398,Note_on_c,9,53,127,
2,1398,Note_on_c,9,80,127,
2,1398,Note_on_c,9,81,127,
2,1398,Note_on_c,9,82,127,
2,1399,Note_off_c,9,36,0,
2,1400,Note_on_c,9,36,127,
2,1400,Note_on_c,9,37,127,
2,1400,Note_on_c,9,38,127,
2,1400,Note_on_c,9,39,127,
2,1400,Note_on_c,9,41,127,
2,1400,Note_on_c,9,42,127,
2,1400,Note_on_c,9,43,127,
2,1400,Note_on_c,9,45,127,
2,1400,Note_on_c,9,48,127,
2,1400,Note_on_c,9,51,127,
2,1400,Note_on_c,9,53,127,
2,1400,Note_on_c,9,80,127,
2,1400,Note_on_c,9,81,127,
2,1400,Note_on_c,9,82,127,
2,1401,Note_off_c,9,36,0,
2,1402,Note_on_c,9,36,127,
2,1402,Note_on_c,9,37,127,
2,1402,Note_on_c,9,38,127,
2,1402,Note_on_c,9,39,127,
2,1402,Note_on_c,9,41,127,
2,1402,Note_on_c,9,42,127,
2,1402,Note_on_c,9,43,127,
2,1402,Note_on_c,9,45,127,
2,1402,Note_on_c,9,48,127,
2,1402,Note_on_c,9,51,127,
2,1402,Note_on_c,9,53,127,
2,1402,Note_on_c,9,80,127,
2,1402,Note_on_c,9,81,127,
2,1402,Note_on_c,9,82,127,
2,1403,Note_off_c,9,36,0,
2,1404,Note_on_c,9,36,127,
2,1404,Note_on_c,9,37,127,
2,1404,Note_on_c,9,38,127,
2,1404,Note_on_c,9,39,127,
2,1404,Note_on_c,9,41,127,
2,1404,Note_on_c,9,42,127,
2,1404,Note_on_c,9,43,127,
2,1404,Note_on_c,9,45,127,
2,1404,Note_on_c,9,48,127,
2,1404,Note_on_c,9,51,127,
2,1404,Note_on_c,9,53,127,
2,1404,Note_on_c,9,80,127,
2,1404,Note_on_c,9,81,127,
2,1404,Note_on_c,9,82,127,
2,1405,Note_off_c,9,36,0,
2,1406,Note_on_c,9,36,127,
2,1406,Note_on_c,9,37,127,
2,1406,Note_on_c,9,38,127,
2,1406,Note_on_c,9,39,127,
2,1406,Note_on_c,9,41,127,
2,1406,Note_on_c,9,42,127,
2,1406,Note_on_c,9,43,127,
2,1406,Note_on_c,9,45,127,
2,1406,Note_on_c,9,48,127,
2,1406,Note_on_c,9,51,127,
2,1406,Note_on_c,9,53,127,
2,1406,Note_on_c,9,80,127,
2,1406,Note_on_c,9,81,127,
2,1406,Note_on_c,9,82,127,
2,1407,Note_off_c,9,36,0,
2,1408,Note_on_c,9,36,127,
2,1408,Note_on_c,9,37,127,
2,1408,Note_on_c,9,38,127,
2,1408,Note_on_c,9,39,127,
2,1408,Note_on_c,9,41,127,
2,1408,Note_on_c,9,42,127,
2,1408,Note_on_c,9,43,127,
2,1408,Note_on_c,9,45,127,
2,1408,Note_on_c,9,48,127,
2,1408,Note_on_c,9,51,127,
2,1408,Note_on_c,9,53,127,
2,1408,Note_on_c,9,80,127,
2,1408,Note_on_c,9,81,127,
2,1408,Note_on_c,9,82,127,
2,1409,Note_off_c,9,36,0,
2,1410,Note_on_c,9,36,127,
2,1410,Note_on_c,9,37,127,
2,1410,Note_on_c,9,38,127,
2,1410,Note_on_c,9,39,127,
2,1410,Note_on_c,9,41,127,
2,1410,Note_on_c,9,42,127,
2,1410,Note_on_c,9,43,127,
2,1410,Note_on_c,9,45,127,
2,1410,Note_on_c,9,48,127,
2,1410,Note_on_c,9,51,127,
2,1410,Note_on_c,9,53,127,
2,1410,Note_on_c,9,80,127,
2,1410,Note_on_c,9,81,127,
2,1410,Note_on_c,9,82,127,
2,1411,Note_off_c,9,36,0,
2,1412,Note_on_c,9,36,127,
2,1412,Note_on_c,9,37,127,
2,1412,Note_on_c,9,38,127,
2,1412,Note_on_c,9,39,127,
2,1412,Note_on_c,9,41,127,
2,1412,Note_on_c,9,42,127,
2,1412,Note_on_c,9,43,127,
2,1412,Note_on_c,9,45,127,
2,1412,Note_on_c,9,48,127,
2,1412,Note_on_c,9,51,127,
2,1412,Note_on_c,9,53,127,
2,1412,Note_on_c,9,80,127,
2,1412,Note_on_c,9,81,127,
2,1412,Note_on_c,9,82,127,
2,1413,Note_off_c,9,36,0,
2,1414,Note_on_c,9,36,127,
2,1414,Note_on_c,9,37,127,
2,1414,Note_on_c,9,38,127,
2,1414,Note_on_c,9,39,127,
2,1414,Note_on_c,9,41,127,
2,1414,Note_on_c,9,42,127,
2,1414,Note_on_c,9,43,127,
2,1414,Note_on_c,9,45,127,
2,1414,Note_on_c,9,48,127,
2,1414,Note_on_c,9,51,127,
2,1414,Note_on_c,9,53,127,
2,1414,Note_on_c,9,80,127,
2,1414,Note_on_c,9,81,127,
2,1414,Note_on_c,9,82,127,
2,1415,Note_off_c,9,36,0,
2,1416,Note_on_c,9,36,127,
2,1416,Note_on_c,9,37,127,
2,1416,Note_on_c,9,38,127,
2,1416,Note_on_c,9,39,127,
2,1416,Note_on_c,9,41,127,
2,1416,Note_on_c,9,42,127,
2,1416,Note_on_c,9,43,127,
2,1416,Note_on_c,9,45,127,
2,1416,Note_on_c,9,48,127,
2,1416,Note_on_c,9,51,127,
2,1416,Note_on_c,9,53,127,
2,1416,Note_on_c,9,80,127,
2,1416,Note_on_c,9,81,127,
2,1416,Note_on_c,9,82,127,
2,1417,Note_off_c,9,36,0,
2,1418,Note_on_c,9,36,127,
2,1418,Note_on_c,9,37,127,
2,1418,Note_on_c,9,38,127,
2,1418,Note_on_c,9,39,127,
2,1418,Note_on_c,9,41,127,
2,1418,Note_on_c,9,42,127,
2,1418,Note_on_c,9,43,127,
2,1418,Note_on_c,9,45,127,
2,1418,Note_on_c,9,48,127,
2,1418,Note_on_c,9,51,127,
2,1418,Note_on_c,9,53,127,
2,1418,Note_on_c,9,80,127,
2,1418,Note_on_c,9,81,127,
2,1418,Note_on_c,9,82,127,
2,1419,Note_off_c,9,36,0,
2,1420,Note_on_c,9,36,127,
2,1420,Note_on_c,9,37,127,
2,1420,Note_on_c,9,38,127,
2,1420,Note_on_c,9,39,127,
2,1420,Note_on_c,9,41,127,
2,1420,Note_on_c,9,42,127,
2,1420,Note_on_c,9,43,127,
2,1420,Note_on_c,9,45,127,
2,1420,Note_on_c,9,48,127,
2,1420,Note_on_c,9,51,127,
2,1420,Note_on_c,9,53,127,
2,1420,Note_on_c,9,80,127,
2,1420,Note_on_c,9,81,127,
2,1420,Note_on_c,9,82,127,
2,1421,Note_off_c,9,36,0,
2,1422,Note_on_c,9,36,127,
2,1422,Note_on_c,9,37,127,
2,1422,Note_on_c,9,38,127,
2,1422,Note_on_c,9,39,127,
2,1422,Note_on_c,9,41,127,
2,1422,Note_on_c,9,42,127,
2,1422,Note_on_c,9,43,127,
2,1422,Note_on_c,9,45,127,
2,1422,Note_on_c,9,48,127,
2,1422,Note_on_c,9,51,127,
2,1422,Note_on_c,9,53,127,
2,1422,Note_on_c,9,80,127,
2,1422,Note_on_c,9,81,127,
2,1422,Note_on_c,9,82,127,
2,1423,Note_off_c,9,36,0,
2,1424,Note_on_c,9,36,127,
2,1424,Note_on_c,9,37,127,
2,1424,Note_on_c,9,38,127,
2,1424,Note_on_c,9,39,127,
2,1424,Note_on_c,9,41,127,
2,1424,Note_on_c,9,42,127,
2,1424,Note_on_c,9,43,127,
2,1424,Note_on_c,9,45,127,
2,1424,Note_on_c,9,48,127,
2,1424,Note_on_c,9,51,127,
2,1424,Note_on_c,9,53,127,
2,1424,Note_on_c,9,80,127,
2,1424,Note_on_c,9,81,127,
2,1424,Note_on_c,9,82,127,
2,1425,Note_off_c,9,36,0,
2,1426,Note_on_c,9,36,127,
2,1426,Note_on_c,9,37,127,
2,1426,Note_on_c,9,38,127,
2,1426,Note_on_c,9,39,127,
2,1426,Note_on_c,9,41,127,
2,1426,Note_on_c,9,42,127,
2,1426,Note_on_c,9,43,127,
2,1426,Note_on_c,9,45,127,
2,1426,Note_on_c,9,48,127,
2,1426,Note_on_c,9,51,127,
2,1426,Note_on_c,9,53,127,
2,1426,Note_on_c,9,80,127,
2,1426,Note_on_c,9,81,127,
2,1426,Note_on_c,9,82,127,
2,1427,Note_off_c,9,36,0,
2,1428,Note_on_c,9,36,127,
2,1428,Note_on_c,9,37,127,
2,1428,Note_on_c,9,38,127,
2,1428,Note_on_c,9,39,127,
2,1428,Note_on_c,9,41,127,
2,1428,Note_on_c,9,42,127,
2,1428,Note_on_c,9,43,127,
2,1428,Note_on_c,9,45,127,
2,1428,Note_on_c,9,48,127,
2,1428,Note_on_c,9,51,127,
2,1428,Note_on_c,9,53,127,
2,1428,Note_on_c,9,80,127,
2,1428,Note_on_c,9,81,127,
2,1428,Note_on_c,9,82,127,
2,1429,Note_off_c,9,36,0,
2,1430,Note_on_c,9,36,127,
2,1430,Note_on_c,9,37,127,
2,1430,Note_on_c,9,38,127,
2,1430,Note_on_c,9,39,127,
2,1430,Note_on_c,9,41,127,
2,1430,Note_on_c,9,42,127,
2,1430,Note_on_c,9,43,127,
2,1430,Note_on_c,9,45,127,
2,1430,Note_on_c,9,48,127,
2,1430,Note_on_c,9,51,127,
2,1430,Note_on_c,9,53,127,
2,1430,Note_on_c,9,80,127,
2,1430,Note_on_c,9,81,127,
2,1430,Note_on_c,9,82,127,
2,1431,Note_off_c,9,36,0,
2,1432,Note_on_c,9,36,127,
2,1432,Note_on_c,9,37,127,
2,1432,Note_on_c,9,38,127,
2,1432,Note_on_c,9,39,127,
2,1432,Note_on_c,9,41,127,
2,1432,Note_on_c,9,42,127,
2,1432,Note_on_c,9,43,127,
2,1432,Note_on_c,9,45,127,
2,1432,Note_on_c,9,48,127,
2,1432,Note_on_c,9,51,127,
2,1432,Note_on_c,9,53,127,
2,1432,Note_on_c,9,80,127,
2,1432,Note_on_c,9,81,127,
2,1432,Note_on_c,9,82,127,
2,1433,Note_off_c,9,36,0,
2,1434,Note_on_c,9,36,127,
2,1434,Note_on_c,9,37,127,
2,1434,Note_on_c,9,38,127,
2,1434,Note_on_c,9,39,127,
2,1434,Note_on_c,9,41,127,
2,1434,Note_on_c,9,42,127,
2,1434,Note_on_c,9,43,127,
2,1434,Note_on_c,9,45,127,
2,1434,Note_on_c,9,48,127,
2,1434,Note_on_c,9,51,127,
2,1434,Note_on_c,9,53,127,
2,1434,Note_on_c,9,80,127,
2,1434,Note_on_c,9,81,127,
2,1434,Note_on_c,9,82,127,
2,1435,Note_off_c,9,36,0,
2,1436,Note_on_c,9,36,127,
2,1436,Note_on_c,9,37,127,
2,1436,Note_on_c,9,38,127,
2,1436,Note_on_c,9,39,127,
2,1436,Note_on_c,9,41,127,
2,1436,Note_on_c,9,42,127,
2,1436,Note_on_c,9,43,127,
2,1436,Note_on_c,9,45,127,
2,1436,Note_on_c,9,48,127,
2,1436,Note_on_c,9,51,127,
2,1436,Note_on_c,9,53,127,
2,1436,Note_on_c,9,80,127,
2,1436,Note_on_c,9,81,127,
2,1436,Note_on_c,9,82,127,
2,1437,Note_off_c,9,36,0,
2,1438,Note_on_c,9,36,127,
2,1438,Note_on_c,9,37,127,
2,1438,Note_on_c,9,38,127,
2,1438,Note_on_c,9,39,127,
2,1438,Note_on_c,9,41,127,
2,1438,Note_on_c,9,42,127,
2,1438,Note_on_c,9,43,127,
2,1438,Note_on_c,9,45,127,
2,1438,Note_on_c,9,48,127,
2,1438,Note_on_c,9,51,127,
2,1438,Note_on_c,9,53,127,
2,1438,Note_on_c,9,80,127,
2,1438,Note_on_c,9,81,127,
2,1438,Note_on_c,9,82,127,
2,1439,Note_off_c,9,36,0,
2,1440,Note_on_c,9,36,127,
2,1440,Note_on_c,9,37,127,
2,1440,Note_on_c,9,38,127,
2,1440,Note_on_c,9,39,127,
2,1440,Note_on_c,9,41,127,
2,1440,Note_on_c,9,42,127,
2,1440,Note_on_c,9,43,127,
2,1440,Note_on_c,9,45,127,
2,1440,Note_on_c,9,48,127,
2,1440,Note_on_c,9,51,127,
2,1440,Note_on_c,9,53,127,
2,1440,Note_on_c,9,80,127,
2,1440,Note_on_c,9,81,127,
2,1440,Note_on_c,9,82,127,
2,1441,Note_off_c,9,36,0,
2,1442,Note_on_c,9,36,127,
2,1442,Note_on_c,9,37,127,
2,1442,Note_on_c,9,38,127,
2,1442,Note_on_c,9,39,127,
2,1442,Note_on_c,9,41,127,
2,1442,Note_on_c,9,42,127,
2,1442,Note_on_c,9,43,127,
2,1442,Note_on_c,9,45,127,
2,1442,Note_on_c,9,48,127,
2,1442,Note_on_c,9,51,127,
2,1442,Note_on_c,9,53,127,
2,1442,Note_on_c,9,80,127,
2,1442,Note_on_c,9,81,127,
2,1442,Note_on_c,9,82,127,
2,1443,Note_off_c,9,36,0,
2,1444,Note_on_c,9,36,127,
2,1444,Note_on_c,9,37,127,
2,1444,Note_on_c,9,38,127,
2,1444,Note_on_c,9,39,127,
2,1444,Note_on_c,9,41,127,
2,1444,Note_on_c,9,42,127,
2,1444,Note_on_c,9,43,127,
2,1444,Note_on_c,9,45,127,
2,1444,Note_on_c,9,48,127,
2,1444,Note_on_c,9,51,127,
2,1444,Note_on_c,9,53,127,
2,1444,Note_on_c,9,80,127,
2,1444,Note_on_c,9,81,127,
2,1444,Note_on_c,9,82,127,
2,1445,Note_off_c,9,36,0,
2,1446,Note_on_c,9,36,127,
2,1446,Note_on_c,9,37,127,
2,1446,Note_on_c,9,38,127,
2,1446,Note_on_c,9,39,127,
2,1446,Note_on_c,9,41,127,
2,1446,Note_on_c,9,42,127,
2,1446,Note_on_c,9,43,127,
2,1446,Note_on_c,9,45,127,
2,1446,Note_on_c,9,48,127,
2,1446,Note_on_c,9,51,127,
2,1446,Note_on_c,9,53,127,
2,1446,Note_on_c,9,80,127,
2,1446,Note_on_c,9,81,127,
2,1446,Note_on_c,9,82,127,
2,1447,Note_off_c,9,36,0,
2,1448,Note_on_c,9,36,127,
2,1448,Note_on_c,9,37,127,
2,1448,Note_on_c,9,38,127,
2,1448,Note_on_c,9,39,127,
2,1448,Note_on_c,9,41,127,
2,1448,Note_on_c,9,42,127,
2,1448,Note_on_c,9,43,127,
2,1448,Note_on_c,9,45,127,
2,1448,Note_on_c,9,48,127,
2,1448,Note_on_c,9,51,127,
2,1448,Note_on_c,9,53,127,
2,1448,Note_on_c,9,80,127,
2,1448,Note_on_c,9,81,127,
2,1448,Note_on_c,9,82,127,
2,1449,Note_off_c,9,36,0,
2,1450,Note_on_c,9,36,127,
2,1450,Note_on_c,9,37,127,
2,1450,Note_on_c,9,38,127,
2,1450,Note_on_c,9,39,127,
2,1450,Note_on_c,9,41,127,
2,1450,Note_on_c,9,42,127,
2,1450,Note_on_c,9,43,127,
2,1450,Note_on_c,9,45,127,
2,1450,Note_on_c,9,48,127,
2,1450,Note_on_c,9,51,127,
2,1450,Note_on_c,9,53,127,
2,1450,Note_on_c,9,80,127,
2,1450,Note_on_c,9,81,127,
2,1450,Note_on_c,9,82,127,
2,1451,Note_off_c,9,36,0,
2,1452,Note_on_c,9,36,127,
2,1452,Note_on_c,9,37,127,
2,1452,Note_on_c,9,38,127,
2,1452,Note_on_c,9,39,127,
2,1452,Note_on_c,9,41,127,
2,1452,Note_on_c,9,42,127,
2,1452,Note_on_c,9,43,127,
2,1452,Note_on_c,9,45,127,
2,1452,Note_on_c,9,48,127,
2,1452,Note_on_c,9,51,127,
2,1452,Note_on_c,9,53,127,
2,1452,Note_on_c,9,80,127,
2,1452,Note_on_c,9,81,127,
2,1452,Note_on_c,9,82,127,
2,1453,Note_off_c,9,36,0,
2,1454,Note_on_c,9,36,127,
2,1454,Note_on_c,9,37,127,
2,1454,Note_on_c,9,38,127,
2,1454,Note_on_c,9,39,127,
2,1454,Note_on_c,9,41,127,
2,1454,Note_on_c,9,42,127,
2,1454,Note_on_c,9,43,127,
2,1454,Note_on_c,9,45,127,
2,1454,Note_on_c,9,48,127,
2,1454,Note_on_c,9,51,127,
2,1454,Note_on_c,9,53,127,
2,1454,Note_on_c,9,80,127,
2,1454,Note_on_c,9,81,127,
2,1454,Note_on_c,9,82,127,
2,1455,Note_off_c,9,36,0,
2,1456,Note_on_c,9,36,127,
2,1456,Note_on_c,9,37,127,
2,1456,Note_on_c,9,38,127,
2,1456,Note_on_c,9,39,127,
2,1456,Note_on_c,9,41,127,
2,1456,Note_on_c,9,42,127,
2,1456,Note_on_c,9,43,127,
2,1456,Note_on_c,9,45,127,
2,1456,Note_on_c,9,48,127,
2,1456,Note_on_c,9,51,127,
2,1456,Note_on_c,9,53,127,
2,1456,Note_on_c,9,80,127,
2,1456,Note_on_c,9,81,127,
2,1456,Note_on_c,9,82,127,
2,1457,Note_off_c,9,36,0,
2,1458,Note_on_c,9,36,127,
2,1458,Note_on_c,9,37,127,
2,1458,Note_on_c,9,38,127,
2,1458,Note_on_c,9,39,127,
2,1458,Note_on_c,9,41,127,
2,1458,Note_on_c,9,42,127,
2,1458,Note_on_c,9,43,127,
2,1458,Note_on_c,9,45,127,
2,1458,Note_on_c,9,48,127,
2,1458,Note_on_c,9,51,127,
2,1458,Note_on_c,9,53,127,
2,1458,Note_on_c,9,80,127,
2,1458,Note_on_c,9,81,127,
2,1458,Note_on_c,9,82,127,
2,1459,Note_off_c,9,36,0,
2,1460,Note_on_c,9,36,127,
2,1460,Note_on_c,9,37,127,
2,1460,Note_on_c,9,38,127,
2,1460,Note_on_c,9,39,127,
2,1460,Note_on_c,9,41,127,
2,1460,Note_on_c,9,42,127,
2,1460,Note_on_c,9,43,127,
2,1460,Note_on_c,9,45,127,
2,1460,Note_on_c,9,48,127,
2,1460,Note_on_c,9,51,127,
2,1460,Note_on_c,9,53,127,
2,1460,Note_on_c,9,80,127,
2,1460,Note_on_c,9,81,127,
2,1460,Note_on_c,9,82,127,
2,1461,Note_off_c,9,36,0,
2,1462,Note_on_c,9,36,127,
2,1462,Note_on_c,9,37,127,
2,1462,Note_on_c,9,38,127,
2,1462,Note_on_c,9,39,127,
2,1462,Note_on_c,9,41,127,
2,1462,Note_on_c,9,42,127,
2,1462,Note_on_c,9,43,127,
2,1462,Note_on_c,9,45,127,
2,1462,Note_on_c,9,48,127,
2,1462,Note_on_c,9,51,127,
2,1462,Note_on_c,9,53,127,
2,1462,Note_on_c,9,80,127,
2,1462,Note_on_c,9,81,127,
2,1462,Note_on_c,9,82,127,
2,1463,Note_off_c,9,36,0,
2,1464,Note_on_c,9,36,127,
2,1464,Note_on_c,9,37,127,
2,1464,Note_on_c,9,38,127,
2,1464,Note_on_c,9,39,127,
2,1464,Note_on_c,9,41,127,
2,1464,Note_on_c,9,42,127,
2,1464,Note_on_c,9,43,127,
2,1464,Note_on_c,9,45,127,
2,1464,Note_on_c,9,48,127,
2,1464,Note_on_c,9,51,127,
2,1464,Note_on_c,9,53,127,
2,1464,Note_on_c,9,80,127,
2,1464,Note_on_c,9,81,127,
2,1464,Note_on_c,9,82,127,
2,1465,Note_off_c,9,36,0,
2,1466,Note_on_c,9,36,127,
2,1466,Note_on_c,9,37,127,
2,1466,Note_on_c,9,38,127,
2,1466,Note_on_c,9,39,127,
2,1466,Note_on_c,9,41,127,
2,1466,Note_on_c,9,42,127,
2,1466,Note_on_c,9,43,127,
2,1466,Note_on_c,9,45,127,
2,1466,Note_on_c,9,48,127,
2,1466,Note_on_c,9,51,127,
2,1466,Note_on_c,9,53,127,
2,1466,Note_on_c,9,80,127,
2,1466,Note_on_c,9,81,127,
2,1466,Note_on_c,9,82,127,
2,1467,Note_off_c,9,36,0,
2,1468,Note_on_c,9,36,127,
2,1468,Note_on_c,9,37,127,
2,1468,Note_on_c,9,38,127,
2,1468,Note_on_c,9,39,127,
2,1468,Note_on_c,9,41,127,
2,1468,Note_on_c,9,42,127,
2,1468,Note_on_c,9,43,127,
2,1468,Note_on_c,9,45,127,
2,1468,Note_on_c,9,48,127,
2,1468,Note_on_c,9,51,127,
2,1468,Note_on_c,9,53,127,
2,1468,Note_on_c,9,80,127,
2,1468,Note_on_c,9,81,127,
2,1468,Note_on_c,9,82,127,
2,1469,Note_off_c,9,36,0,
2,1470,Note_on_c,9,36,127,
2,1470,Note_on_c,9,37,127,
2,1470,Note_on_c,9,38,127,
2,1470,Note_on_c,9,39,127,
2,1470,Note_on_c,9,41,127,
2,1470,Note_on_c,9,42,127,
2,1470,Note_on_c,9,43,127,
2,1470,Note_on_c,9,45,127,
2,1470,Note_on_c,9,48,127,
2,1470,Note_on_c,9,51,127,
2,1470,Note_on_c,9,53,127,
2,1470,Note_on_c,9,80,127,
2,1470,Note_on_c,9,81,127,
2,1470,Note_on_c,9,82,127,
2,1471,Note_off_c,9,36,0,
2,1472,Note_on_c,9,36,127,
2,1472,Note_on_c,9,37,127,
2,1472,Note_on_c,9,38,127,
2,1472,Note_on_c,9,39,127,
2,1472,Note_on_c,9,41,127,
2,1472,Note_on_c,9,42,127,
2,1472,Note_on_c,9,43,127,
2,1472,Note_on_c,9,45,127,
2,1472,Note_on_c,9,48,127,
2,1472,Note_on_c,9,51,127,
2,1472,Note_on_c,9,53,127,
2,1472,Note_on_c,9,80,127,
2,1472,Note_on_c,9,81,127,
2,1472,Note_on_c,9,82,127,
2,1473,Note_off_c,9,36,0,
2,1474,Note_on_c,9,36,127,
2,1474,Note_on_c,9,37,127,
2,1474,Note_on_c,9,38,127,
2,1474,Note_on_c,9,39,127,
2,1474,Note_on_c,9,41,127,
2,1474,Note_on_c,9,42,127,
2,1474,Note_on_c,9,43,127,
2,1474,Note_on_c,9,45,127,
2,1474,Note_on_c,9,48,127,
2,1474,Note_on_c,9,51,127,
2,1474,Note_on_c,9,53,127,
2,1474,Note_on_c,9,80,127,
2,1474,Note_on_c,9,81,127,
2,1474,Note_on_c,9,82,127,
2,1475,Note_off_c,9,36,0,
2,1476,Note_on_c,9,36,127,
2,1476,Note_on_c,9,37,127,
2,1476,Note_on_c,9,38,127,
2,1476,Note_on_c,9,39,127,
2,1476,Note_on_c,9,41,127,
2,1476,Note_on_c,9,42,127,
2,1476,Note_on_c,9,43,127,
2,1476,Note_on_c,9,45,127,
2,1476,Note_on_c,9,48,127,
2,1476,Note_on_c,9,51,127,
2,1476,Note_on_c,9,53,127,
2,1476,Note_on_c,9,80,127,
2,1476,Note_on_c,9,81,127,
2,1476,Note_on_c,9,82,127,
2,1477,Note_off_c,9,36,0,
2,1478,Note_on_c,9,36,127,
2,1478,Note_on_c,9,37,127,
2,1478,Note_on_c,9,38,127,
2,1478,Note_on_c,9,39,127,
2,1478,Note_on_c,9,41,127,
2,1478,Note_on_c,9,42,127,
2,1478,Note_on_c,9,43,127,
2,1478,Note_on_c,9,45,127,
2,1478,Note_on_c,9,48,127,
2,1478,Note_on_c,9,51,127,
2,1478,Note_on_c,9,53,127,
2,1478,Note_on_c,9,80,127,
2,1478,Note_on_c,9,81,127,
2,1478,Note_on_c,9,82,127,
2,1479,Note_off_c,9,36,0,
2,1480,Note_on_c,9,36,127,
2,1480,Note_on_c,9,37,127,
2,1480,Note_on_c,9,38,127,
2,1480,Note_on_c,9,39,127,
2,1480,Note_on_c,9,41,127,
2,1480,Note_on_c,9,42,127,
2,1480,Note_on_c,9,43,127,
2,1480,Note_on_c,9,45,127,
2,1480,Note_on_c,9,48,127,
2,1480,Note_on_c,9,51,127,
2,1480,Note_on_c,9,53,127,
2,1480,Note_on_c,9,80,127,
2,1480,Note_on_c,9,81,127,
2,1480,Note_on_c,9,82,127,
2,1481,Note_off_c,9,36,0,
2,1482,Note_on_c,9,36,127,
2,1482,Note_on_c,9,37,127,
2,1482,Note_on_c,9,38,127,
2,1482,Note_on_c,9,39,127,
2,1482,Note_on_c,9,41,127,
2,1482,Note_on_c,9,42,127,
2,1482,Note_on_c,9,43,127,
2,1482,Note_on_c,9,45,127,
2,1482,Note_on_c,9,48,127,
2,1482,Note_on_c,9,51,127,
2,1482,Note_on_c,9,53,127,
2,1482,Note_on_c,9,80,127,
2,1482,Note_on_c,9,81,127,
2,1482,Note_on_c,9,82,127,
2,1483,Note_off_c,9,36,0,
2,1484,Note_on_c,9,36,127,
2,1484,Note_on_c,9,37,127,
2,1484,Note_on_c,9,38,127,
2,1484,Note_on_c,9,39,127,
2,1484,Note_on_c,9,41,127,
2,1484,Note_on_c,9,42,127,
2,1484,Note_on_c,9,43,127,
2,1484,Note_on_c,9,45,127,
2,1484,Note_on_c,9,48,127,
2,1484,Note_on_c,9,51,127,
2,1484,Note_on_c,9,53,127,
2,1484,Note_on_c,9,80,127,
2,1484,Note_on_c,9,81,127,
2,1484,Note_on_c,9,82,127,
2,1485,Note_off_c,9,36,0,
2,1486,Note_on_c,9,36,127,
2,1486,Note_on_c,9,37,127,
2,1486,Note_on_c,9,38,127,
2,1486,Note_on_c,9,39,127,
2,1486,Note_on_c,9,41,127,
2,1486,Note_on_c,9,42,127,
2,1486,Note_on_c,9,43,127,
2,1486,Note_on_c,9,45,127,
2,1486,Note_on_c,9,48,127,
2,1486,Note_on_c,9,51,127,
2,1486,Note_on_c,9,53,127,
2,1486,Note_on_c,9,80,127,
2,1486,Note_on_c,9,81,127,
2,1486,Note_on_c,9,82,127,
2,1487,Note_off_c,9,36,0,
2,1488,Note_on_c,9,36,127,
2,1488,Note_on_c,9,37,127,
2,1488,Note_on_c,9,38,127,
2,1488,Note_on_c,9,39,127,
2,1488,Note_on_c,9,41,127,
2,1488,Note_on_c,9,42,127,
2,1488,Note_on_c,9,43,127,
2,1488,Note_on_c,9,45,127,
2,1488,Note_on_c,9,48,127,
2,1488,Note_on_c,9,51,127,
2,1488,Note_on_c,9,53,127,
2,1488,Note_on_c,9,80,127,
2,1488,Note_on_c,9,81,127,
2,1488,Note_on_c,9,82,127,
2,1489,Note_off_c,9,36,0,
2,1490,Note_on_c,9,36,127,
2,1490,Note_on_c,9,37,127,
2,1490,Note_on_c,9,38,127,
2,1490,Note_on_c,9,39,127,
2,1490,Note_on_c,9,41,127,
2,1490,Note_on_c,9,42,127,
2,1490,Note_on_c,9,43,127,
2,1490,Note_on_c,9,45,127,
2,1490,Note_on_c,9,48,127,
2,1490,Note_on_c,9,51,127,
2,1490,Note_on_c,9,53,127,
2,1490,Note_on_c,9,80,127,
2,1490,Note_on_c,9,81,127,
2,1490,Note_on_c,9,82,127,
2,1491,Note_off_c,9,36,0,
2,1492,Note_on_c,9,36,127,
2,1492,Note_on_c,9,37,127,
2,1492,Note_on_c,9,38,127,
2,1492,Note_on_c,9,39,127,
2,1492,Note_on_c,9,41,127,
2,1492,Note_on_c,9,42,127,
2,1492,Note_on_c,9,43,127,
2,1492,Note_on_c,9,45,127,
2,1492,Note_on_c,9,48,127,
2,1492,Note_on_c,9,51,127,
2,1492,Note_on_c,9,53,127,
2,1492,Note_on_c,9,80,127,
2,1492,Note_on_c,9,81,127,
2,1492,Note_on_c,9,82,127,
2,1493,Note_off_c,9,36,0,
2,1494,Note_on_c,9,36,127,
2,1494,Note_on_c,9,37,127,
2,1494,Note_on_c,9,38,127,
2,1494,Note_on_c,9,39,127,
2,1494,Note_on_c,9,41,127,
2,1494,Note_on_c,9,42,127,
2,1494,Note_on_c,9,43,127,
2,1494,Note_on_c,9,45,127,
2,1494,Note_on_c,9,48,127,
2,1494,Note_on_c,9,51,127,
2,1494,Note_on_c,9,53,127,
2,1494,Note_on_c,9,80,127,
2,1494,Note_on_c,9,81,127,
2,1494,Note_on_c,9,82,127,
2,1495,Note_off_c,9,36,0,
2,1496,Note_on_c,9,36,127,
2,1496,Note_on_c,9,37,127,
2,1496,Note_on_c,9,38,127,
2,1496,Note_on_c,9,39,127,
2,1496,Note_on_c,9,41,127,
2,1496,Note_on_c,9,42,127,
2,1496,Note_on_c,9,43,127,
2,1496,Note_on_c,9,45,127,
2,1496,Note_on_c,9,48,127,
2,1496,Note_on_c,9,51,127,
2,1496,Note_on_c,9,53,127,
2,1496,Note_on_c,9,80,127,
2,1496,Note_on_c,9,81,127,
2,1496,Note_on_c,9,82,127,
2,1497,Note_off_c,9,36,0,
2,1498,Note_on_c,9,36,127,
2,1498,Note_on_c,9,37,127,
2,1498,Note_on_c,9,38,127,
2,1498,Note_on_c,9,39,127,
2,1498,Note_on_c,9,41,127,
2,1498,Note_on_c,9,42,127,
2,1498,Note_on_c,9,43,127,
2,1498,Note_on_c,9,45,127,
2,1498,Note_on_c,9,48,127,
2,1498,Note_on_c,9,51,127,
2,1498,Note_on_c,9,53,127,
2,1498,Note_on_c,9,80,127,
2,1498,Note_on_c,9,81,127,
2,1498,Note_on_c,9,82,127,
2,1499,Note_off_c,9,36,0,
2,1500,Note_on_c,9,36,127,
2,1500,Note_on_c,9,37,127,
2,1500,Note_on_c,9,38,127,
2,1500,Note_on_c,9,39,127,
2,1500,Note_on_c,9,41,127,
2,1500,Note_on_c,9,42,127,
2,1500,Note_on_c,9,43,127,
2,1500,Note_on_c,9,45,127,
2,1500,Note_on_c,9,48,127,
2,1500,Note_on_c,9,51,127,
2,1500,Note_on_c,9,53,127,
2,1500,Note_on_c,9,80,127,
2,1500,Note_on_c,9,81,127,
2,1500,Note_on_c,9,82,127,
2,1501,Note_off_c,9,36,0,
2,1502,Note_on_c,9,36,127,
2,1502,Note_on_c,9,37,127,
2,1502,Note_on_c,9,38,127,
2,1502,Note_on_c,9,39,127,
2,1502,Note_on_c,9,41,127,
2,1502,Note_on_c,9,42,127,
2,1502,Note_on_c,9,43,127,
2,1502,Note_on_c,9,45,127,
2,1502,Note_on_c,9,48,127,
2,1502,Note_on_c,9,51,127,
2,1502,Note_on_c,9,53,127,
2,1502,Note_on_c,9,80,127,
2,1502,Note_on_c,9,81,127,
2,1502,Note_on_c,9,82,127,
2,1503,Note_off_c,9,36,0,
2,1504,Note_on_c,9,36,127,
2,1504,Note_on_c,9,37,127,
2,1504,Note_on_c,9,38,127,
2,1504,Note_on_c,9,39,127,
2,1504,Note_on_c,9,41,127,
2,1504,Note_on_c,9,42,127,
2,1504,Note_on_c,9,43,127,
2,1504,Note_on_c,9,45,127,
2,1504,Note_on_c,9,48,127,
2,1504,Note_on_c,9,51,127,
2,1504,Note_on_c,9,53,127,
2,1504,Note_on_c,9,80,127,
2,1504,Note_on_c,9,81,127,
2,1504,Note_on_c,9,82,127,
2,1505,Note_off_c,9,36,0,
2,1506,Note_on_c,9,36,127,
2,1506,Note_on_c,9,37,127,
2,1506,Note_on_c,9,38,127,
2,1506,Note_on_c,9,39,127,
2,1506,Note_on_c,9,41,127,
2,1506,Note_on_c,9,42,127,
2,1506,Note_on_c,9,43,127,
2,1506,Note_on_c,9,45,127,
2,1506,Note_on_c,9,48,127,
2,1506,Note_on_c,9,51,127,
2,1506,Note_on_c,9,53,127,
2,1506,Note_on_c,9,80,127,
2,1506,Note_on_c,9,81,127,
2,1506,Note_on_c,9,82,127,
2,1507,Note_off_c,9,36,0,
2,1508,Note_on_c,9,36,127,
2,1508,Note_on_c,9,37,127,
2,1508,Note_on_c,9,38,127,
2,1508,Note_on_c,9,39,127,
2,1508,Note_on_c,9,41,127,
2,1508,Note_on_c,9,42,127,
2,1508,Note_on_c,9,43,127,
2,1508,Note_on_c,9,45,127,
2,1508,Note_on_c,9,48,127,
2,1508,Note_on_c,9,51,127,
2,1508,Note_on_c,9,53,127,
2,1508,Note_on_c,9,80,127,
2,1508,Note_on_c,9,81,127,
2,1508,Note_on_c,9,82,127,
2,1509,Note_off_c,9,36,0,
2,1510,Note_on_c,9,36,127,
2,1510,Note_on_c,9,37,127,
2,1510,Note_on_c,9,38,127,
2,1510,Note_on_c,9,39,127,
2,1510,Note_on_c,9,41,127,
2,1510,Note_on_c,9,42,127,
2,1510,Note_on_c,9,43,127,
2,1510,Note_on_c,9,45,127,
2,1510,Note_on_c,9,48,127,
2,1510,Note_on_c,9,51,127,
2,1510,Note_on_c,9,53,127,
2,1510,Note_on_c,9,80,127,
2,1510,Note_on_c,9,81,127,
2,1510,Note_on_c,9,82,127,
2,1511,Note_off_c,9,36,0,
2,1512,Note_on_c,9,36,127,
2,1512,Note_on_c,9,37,127,
2,1512,Note_on_c,9,38,127,
2,1512,Note_on_c,9,39,127,
2,1512,Note_on_c,9,41,127,
2,1512,Note_on_c,9,42,127,
2,1512,Note_on_c,9,43,127,
2,1512,Note_on_c,9,45,127,
2,1512,Note_on_c,9,48,127,
2,1512,Note_on_c,9,51,127,
2,1512,Note_on_c,9,53,127,
2,1512,Note_on_c,9,80,127,
2,1512,Note_on_c,9,81,127,
2,1512,Note_on_c,9,82,127,
2,1513,Note_off_c,9,36,0,
2,1514,Note_on_c,9,36,127,
2,1514,Note_on_c,9,37,127,
2,1514,Note_on_c,9,38,127,
2,1514,Note_on_c,9,39,127,
2,1514,Note_on_c,9,41,127,
2,1514,Note_on_c,9,42,127,
2,1514,Note_on_c,9,43,127,
2,1514,Note_on_c,9,45,127,
2,1514,Note_on_c,9,48,127,
2,1514,Note_on_c,9,51,127,
2,1514,Note_on_c,9,53,127,
2,1514,Note_on_c,9,80,127,
2,1514,Note_on_c,9,81,127,
2,1514,Note_on_c,9,82,127,
2,1515,Note_off_c,9,36,0,
2,1516,Note_on_c,9,36,127,
2,1516,Note_on_c,9,37,127,
2,1516,Note_on_c,9,38,127,
2,1516,Note_on_c,9,39,127,
2,1516,Note_on_c,9,41,127,
2,1516,Note_on_c,9,42,127,
2,1516,Note_on_c,9,43,127,
2,1516,Note_on_c,9,45,127,
2,1516,Note_on_c,9,48,127,
2,1516,Note_on_c,9,51,127,
2,1516,Note_on_c,9,53,127,
2,1516,Note_on_c,9,80,127,
2,1516,Note_on_c,9,81,127,
2,1516,Note_on_c,9,82,127,
2,1517,Note_off_c,9,36,0,
2,1518,Note_on_c,9,36,127,
2,1518,Note_on_c,9,37,127,
2,1518,Note_on_c,9,38,127,
2,1518,Note_on_c,9,39,127,
2,1518,Note_on_c,9,41,127,
2,1518,Note_on_c,9,42,127,
2,1518,Note_on_c,9,43,127,
2,1518,Note_on_c,9,45,127,
2,1518,Note_on_c,9,48,127,
2,1518,Note_on_c,9,51,127,
2,1518,Note_on_c,9,53,127,
2,1518,Note_on_c,9,80,127,
2,1518,Note_on_c,9,81,127,
2,1518,Note_on_c,9,82,127,
2,1519,Note_off_c,9,36,0,
2,1520,Note_on_c,9,36,127,
2,1520,Note_on_c,9,37,127,
2,1520,Note_on_c,9,38,127,
2,1520,Note_on_c,9,39,127,
2,1520,Note_on_c,9,41,127,
2,1520,Note_on_c,9,42,127,
2,1520,Note_on_c,9,43,127,
2,1520,Note_on_c,9,45,127,
2,1520,Note_on_c,9,48,127,
2,1520,Note_on_c,9,51,127,
2,1520,Note_on_c,9,53,127,
2,1520,Note_on_c,9,80,127,
2,1520,Note_on_c,9,81,127,
2,1520,Note_on_c,9,82,127,
2,1521,Note_off_c,9,36,0,
2,1522,Note_on_c,9,36,127,
2,1522,Note_on_c,9,37,127,
2,1522,Note_on_c,9,38,127,
2,1522,Note_on_c,9,39,127,
2,1522,Note_on_c,9,41,127,
2,1522,Note_on_c,9,42,127,
2,1522,Note_on_c,9,43,127,
2,1522,Note_on_c,9,45,127,
2,1522,Note_on_c,9,48,127,
2,1522,Note_on_c,9,51,127,
2,1522,Note_on_c,9,53,127,
2,1522,Note_on_c,9,80,127,
2,1522,Note_on_c,9,81,127,
2,1522,Note_on_c,9,82,127,
2,1523,Note_off_c,9,36,0,
2,1524,Note_on_c,9,36,127,
2,1524,Note_on_c,9,37,127,
2,1524,Note_on_c,9,38,127,
2,1524,Note_on_c,9,39,127,
2,1524,Note_on_c,9,41,127,
2,1524,Note_on_c,9,42,127,
2,1524,Note_on_c,9,43,127,
2,1524,Note_on_c,9,45,127,
2,1524,Note_on_c,9,48,127,
2,1524,Note_on_c,9,51,127,
2,1524,Note_on_c,9,53,127,
2,1524,Note_on_c,9,80,127,
2,1524,Note_on_c,9,81,127,
2,1524,Note_on_c,9,82,127,
2,1525,Note_off_c,9,36,0,
2,1526,Note_on_c,9,36,127,
2,1526,Note_on_c,9,37,127,
2,1526,Note_on_c,9,38,127,
2,1526,Note_on_c,9,39,127,
2,1526,Note_on_c,9,41,127,
2,1526,Note_on_c,9,42,127,
2,1526,Note_on_c,9,43,127,
2,1526,Note_on_c,9,45,127,
2,1526,Note_on_c,9,48,127,
2,1526,Note_on_c,9,51,127,
2,1526,Note_on_c,9,53,127,
2,1526,Note_on_c,9,80,127,
2,1526,Note_on_c,9,81,127,
2,1526,Note_on_c,9,82,127,
2,1527,Note_off_c,9,36,0,
2,1528,Note_on_c,9,36,127,
2,1528,Note_on_c,9,37,127,
2,1528,Note_on_c,9,38,127,
2,1528,Note_on_c,9,39,127,
2,1528,Note_on_c,9,41,127,
2,1528,Note_on_c,9,42,127,
2,1528,Note_on_c,9,43,127,
2,1528,Note_on_c,9,45,127,
2,1528,Note_on_c,9,48,127,
2,1528,Note_on_c,9,51,127,
2,1528,Note_on_c,9,53,127,
2,1528,Note_on_c,9,80,127,
2,1528,Note_on_c,9,81,127,
2,1528,Note_on_c,9,82,127,
2,1529,Note_off_c,9,36,0,
2,1530,Note_on_c,9,36,127,
2,1530,Note_on_c,9,37,127,
2,1530,Note_on_c,9,38,127,
2,1530,Note_on_c,9,39,127,
2,1530,Note_on_c,9,41,127,
2,1530,Note_on_c,9,42,127,
2,1530,Note_on_c,9,43,127,
2,1530,Note_on_c,9,45,127,
2,1530,Note_on_c,9,48,127,
2,1530,Note_on_c,9,51,127,
2,1530,Note_on_c,9,53,127,
2,1530,Note_on_c,9,80,127,
2,1530,Note_on_c,9,81,127,
2,1530,Note_on_c,9,82,127,
2,1531,Note_off_c,9,36,0,
2,1532,Note_on_c,9,36,127,
2,1532,Note_on_c,9,37,127,
2,1532,Note_on_c,9,38,127,
2,1532,Note_on_c,9,39,127,
2,1532,Note_on_c,9,41,127,
2,1532,Note_on_c,9,42,127,
2,1532,Note_on_c,9,43,127,
2,1532,Note_on_c,9,45,127,
2,1532,Note_on_c,9,48,127,
2,1532,Note_on_c,9,51,127,
2,1532,Note_on_c,9,53,127,
2,1532,Note_on_c,9,80,127,
2,1532,Note_on_c,9,81,127,
2,1532,Note_on_c,9,82,127,
2,1533,Note_off_c,9,36,0,
2,1534,Note_on_c,9,36,127,
2,1534,Note_on_c,9,37,127,
2,1534,Note_on_c,9,38,127,
2,1534,Note_on_c,9,39,127,
2,1534,Note_on_c,9,41,127,
2,1534,Note_on_c,9,42,127,
2,1534,Note_on_c,9,43,127,
2,1534,Note_on_c,9,45,127,
2,1534,Note_on_c,9,48,127,
2,1534,Note_on_c,9,51,127,
2,1534,Note_on_c,9,53,127,
2,1534,Note_on_c,9,80,127,
2,1534,Note_on_c,9,81,127,
2,1534,Note_on_c,9,82,127,
2,1535,Note_off_c,9,36,0,
2,1536,Note_on_c,9,36,127,
2,1536,Note_on_c,9,37,127,
2,1536,Note_on_c,9,38,127,
2,1536,Note_on_c,9,39,127,
2,1536,Note_on_c,9,41,127,
2,1536,Note_on_c,9,42,127,
2,1536,Note_on_c,9,43,127,
2,1536,Note_on_c,9,45,127,
2,1536,Note_on_c,9,48,127,
2,1536,Note_on_c,9,51,127,
2,1536,Note_on_c,9,53,127,
2,1536,Note_on_c,9,80,127,
2,1536,Note_on_c,9,81,127,
2,1536,Note_on_c,9,82,127,
2,1537,Note_off_c,9,36,0,
2,1538,Note_on_c,9,36,127,
2,1538,Note_on_c,9,37,127,
2,1538,Note_on_c,9,38,127,
2,1538,Note_on_c,9,39,127,
2,1538,Note_on_c,9,41,127,
2,1538,Note_on_c,9,42,127,
2,1538,Note_on_c,9,43,127,
2,1538,Note_on_c,9,45,127,
2,1538,Note_on_c,9,48,127,
2,1538,Note_on_c,9,51,127,
2,1538,Note_on_c,9,53,127,
2,1538,Note_on_c,9,80,127,
2,1538,Note_on_c,9,81,127,
2,1538,Note_on_c,9,82,127,
2,1539,Note_off_c,9,36,0,
2,1540,Note_on_c,9,36,127,
2,1540,Note_on_c,9,37,127,
2,1540,Note_on_c,9,38,127,
2,1540,Note_on_c,9,39,127,
2,1540,Note_on_c,9,41,127,
2,1540,Note_on_c,9,42,127,
2,1540,Note_on_c,9,43,127,
2,1540,Note_on_c,9,45,127,
2,1540,Note_on_c,9,48,127,
2,1540,Note_on_c,9,51,127,
2,1540,Note_on_c,9,53,127,
2,1540,Note_on_c,9,80,127,
2,1540,Note_on_c,9,81,127,
2,1540,Note_on_c,9,82,127,
2,1541,Note_off_c,9,36,0,
2,1542,Note_on_c,9,36,127,
2,1542,Note_on_c,9,37,127,
2,1542,Note_on_c,9,38,127,
2,1542,Note_on_c,9,39,127,
2,1542,Note_on_c,9,41,127,
2,1542,Note_on_c,9,42,127,
2,1542,Note_on_c,9,43,127,
2,1542,Note_on_c,9,45,127,
2,1542,Note_on_c,9,48,127,
2,1542,Note_on_c,9,51,127,
2,1542,Note_on_c,9,53,127,
2,1542,Note_on_c,9,80,127,
2,1542,Note_on_c,9,81,127,
2,1542,Note_on_c,9,82,127,
2,1543,Note_off_c,9,36,0,
2,1544,Note_on_c,9,36,127,
2,1544,Note_on_c,9,37,127,
2,1544,Note_on_c,9,38,127,
2,1544,Note_on_c,9,39,127,
2,1544,Note_on_c,9,41,127,
2,1544,Note_on_c,9,42,127,
2,1544,Note_on_c,9,43,127,
2,1544,Note_on_c,9,45,127,
2,1544,Note_on_c,9,48,127,
2,1544,Note_on_c,9,51,127,
2,1544,Note_on_c,9,53,127,
2,1544,Note_on_c,9,80,127,
2,1544,Note_on_c,9,81,127,
2,1544,Note_on_c,9,82,127,
2,1545,Note_off_c,9,36,0,
2,1546,Note_on_c,9,36,127,
2,1546,Note_on_c,9,37,127,
2,1546,Note_on_c,9,38,127,
2,1546,Note_on_c,9,39,127,
2,1546,Note_on_c,9,41,127,
2,1546,Note_on_c,9,42,127,
2,1546,Note_on_c,9,43,127,
2,1546,Note_on_c,9,45,127,
2,1546,Note_on_c,9,48,127,
2,1546,Note_on_c,9,51,127,
2,1546,Note_on_c,9,53,127,
2,1546,Note_on_c,9,80,127,
2,1546,Note_on_c,9,81,127,
2,1546,Note_on_c,9,82,127,
2,1547,Note_off_c,9,36,0,
2,1548,Note_on_c,9,36,127,
2,1548,Note_on_c,9,37,127,
2,1548,Note_on_c,9,38,127,
2,1548,Note_on_c,9,39,127,
2,1548,Note_on_c,9,41,127,
2,1548,Note_on_c,9,42,127,
2,1548,Note_on_c,9,43,127,
2,1548,Note_on_c,9,45,127,
2,1548,Note_on_c,9,48,127,
2,1548,Note_on_c,9,51,127,
2,1548,Note_on_c,9,53,127,
2,1548,Note_on_c,9,80,127,
2,1548,Note_on_c,9,81,127,
2,1548,Note_on_c,9,82,127,
2,1549,Note_off_c,9,36,0,
2,1550,Note_on_c,9,36,127,
2,1550,Note_on_c,9,37,127,
2,1550,Note_on_c,9,38,127,
2,1550,Note_on_c,9,39,127,
2,1550,Note_on_c,9,41,127,
2,1550,Note_on_c,9,42,127,
2,1550,Note_on_c,9,43,127,
2,1550,Note_on_c,9,45,127,
2,1550,Note_on_c,9,48,127,
2,1550,Note_on_c,9,51,127,
2,1550,Note_on_c,9,53,127,
2,1550,Note_on_c,9,80,127,
2,1550,Note_on_c,9,81,127,
2,1550,Note_on_c,9,82,127,
2,1551,Note_off_c,9,36,0,
2,1552,Note_on_c,9,36,127,
2,1552,Note_on_c,9,37,127,
2,1552,Note_on_c,9,38,127,
2,1552,Note_on_c,9,39,127,
2,1552,Note_on_c,9,41,127,
2,1552,Note_on_c,9,42,127,
2,1552,Note_on_c,9,43,127,
2,1552,Note_on_c,9,45,127,
2,1552,Note_on_c,9,48,127,
2,1552,Note_on_c,9,51,127,
2,1552,Note_on_c,9,53,127,
2,1552,Note_on_c,9,80,127,
2,1552,Note_on_c,9,81,127,
2,1552,Note_on_c,9,82,127,
2,1553,Note_off_c,9,36,0,
2,1554,Note_on_c,9,36,127,
2,1554,Note_on_c,9,37,127,
2,1554,Note_on_c,9,38,127,
2,1554,Note_on_c,9,39,127,
2,1554,Note_on_c,9,41,127,
2,1554,Note_on_c,9,42,127,
2,1554,Note_on_c,9,43,127,
2,1554,Note_on_c,9,45,127,
2,1554,Note_on_c,9,48,127,
2,1554,Note_on_c,9,51,127,
2,1554,Note_on_c,9,53,127,
2,1554,Note_on_c,9,80,127,
2,1554,Note_on_c,9,81,127,
2,1554,Note_on_c,9,82,127,
2,1555,Note_off_c,9,36,0,
2,1556,Note_on_c,9,36,127,
2,1556,Note_on_c,9,37,127,
2,1556,Note_on_c,9,38,127,
2,1556,Note_on_c,9,39,127,
2,1556,Note_on_c,9,41,127,
2,1556,Note_on_c,9,42,127,
2,1556,Note_on_c,9,43,127,
2,1556,Note_on_c,9,45,127,
2,1556,Note_on_c,9,48,127,
2,1556,Note_on_c,9,51,127,
2,1556,Note_on_c,9,53,127,
2,1556,Note_on_c,9,80,127,
2,1556,Note_on_c,9,81,127,
2,1556,Note_on_c,9,82,127,
2,1557,Note_off_c,9,36,0,
2,1558,Note_on_c,9,36,127,
2,1558,Note_on_c,9,37,127,
2,1558,Note_on_c,9,38,127,
2,1558,Note_on_c,9,39,127,
2,1558,Note_on_c,9,41,127,
2,1558,Note_on_c,9,42,127,
2,1558,Note_on_c,9,43,127,
2,1558,Note_on_c,9,45,127,
2,1558,Note_on_c,9,48,127,
2,1558,Note_on_c,9,51,127,
2,1558,Note_on_c,9,53,127,
2,1558,Note_on_c,9,80,127,
2,1558,Note_on_c,9,81,127,
2,1558,Note_on_c,9,82,127,
2,1559,Note_off_c,9,36,0,
2,1560,Note_on_c,9,36,127,
2,1560,Note_on_c,9,37,127,
2,1560,Note_on_c,9,38,127,
2,1560,Note_on_c,9,39,127,
2,1560,Note_on_c,9,41,127,
2,1560,Note_on_c,9,42,127,
2,1560,Note_on_c,9,43,127,
2,1560,Note_on_c,9,45,127,
2,1560,Note_on_c,9,48,127,
2,1560,Note_on_c,9,51,127,
2,1560,Note_on_c,9,53,127,
2,1560,Note_on_c,9,80,127,
2,1560,Note_on_c,9,81,127,
2,1560,Note_on_c,9,82,127,
2,1561,Note_off_c,9,36,0,
2,1562,Note_on_c,9,36,127,
2,1562,Note_on_c,9,37,127,
2,1562,Note_on_c,9,38,127,
2,1562,Note_on_c,9,39,127,
2,1562,Note_on_c,9,41,127,
2,1562,Note_on_c,9,42,127,
2,1562,Note_on_c,9,43,127,
2,1562,Note_on_c,9,45,127,
2,1562,Note_on_c,9,48,127,
2,1562,Note_on_c,9,51,127,
2,1562,Note_on_c,9,53,127,
2,1562,Note_on_c,9,80,127,
2,1562,Note_on_c,9,81,127,
2,1562,Note_on_c,9,82,127,
2,1563,Note_off_c,9,36,0,
2,1564,Note_on_c,9,36,127,
2,1564,Note_on_c,9,37,127,
2,1564,Note_on_c,9,38,127,
2,1564,Note_on_c,9,39,127,
2,1564,Note_on_c,9,41,127,
2,1564,Note_on_c,9,42,127,
2,1564,Note_on_c,9,43,127,
2,1564,Note_on_c,9,45,127,
2,1564,Note_on_c,9,48,127,
2,1564,Note_on_c,9,51,127,
2,1564,Note_on_c,9,53,127,
2,1564,Note_on_c,9,80,127,
2,1564,Note_on_c,9,81,127,
2,1564,Note_on_c,9,82,127,
2,1565,Note_off_c,9,36,0,
2,1566,Note_on_c,9,36,127,
2,1566,Note_on_c,9,37,127,
2,1566,Note_on_c,9,38,127,
2,1566,Note_on_c,9,39,127,
2,1566,Note_on_c,9,41,127,
2,1566,Note_on_c,9,42,127,
2,1566,Note_on_c,9,43,127,
2,1566,Note_on_c,9,45,127,
2,1566,Note_on_c,9,48,127,
2,1566,Note_on_c,9,51,127,
2,1566,Note_on_c,9,53,127,
2,1566,Note_on_c,9,80,127,
2,1566,Note_on_c,9,81,127,
2,1566,Note_on_c,9,82,127,
2,1567,Note_off_c,9,36,0,
2,1568,Note_on_c,9,36,127,
2,1568,Note_on_c,9,37,127,
2,1568,Note_on_c,9,38,127,
2,1568,Note_on_c,9,39,127,
2,1568,Note_on_c,9,41,127,
2,1568,Note_on_c,9,42,127,
2,1568,Note_on_c,9,43,127,
2,1568,Note_on_c,9,45,127,
2,1568,Note_on_c,9,48,127,
2,1568,Note_on_c,9,51,127,
2,1568,Note_on_c,9,53,127,
2,1568,Note_on_c,9,80,127,
2,1568,Note_on_c,9,81,127,
2,1568,Note_on_c,9,82,127,
2,1569,Note_off_c,9,36,0,
2,1570,Note_on_c,9,36,127,
2,1570,Note_on_c,9,37,127,
2,1570,Note_on_c,9,38,127,
2,1570,Note_on_c,9,39,127,
2,1570,Note_on_c,9,41,127,
2,1570,Note_on_c,9,42,127,
2,1570,Note_on_c,9,43,127,
2,1570,Note_on_c,9,45,127,
2,1570,Note_on_c,9,48,127,
2,1570,Note_on_c,9,51,127,
2,1570,Note_on_c,9,53,127,
2,1570,Note_on_c,9,80,127,
2,1570,Note_on_c,9,81,127,
2,1570,Note_on_c,9,82,127,
2,1571,Note_off_c,9,36,0,
2,1572,Note_on_c,9,36,127,
2,1572,Note_on_c,9,37,127,
2,1572,Note_on_c,9,38,127,
2,1572,Note_on_c,9,39,127,
2,1572,Note_on_c,9,41,127,
2,1572,Note_on_c,9,42,127,
2,1572,Note_on_c,9,43,127,
2,1572,Note_on_c,9,45,127,
2,1572,Note_on_c,9,48,127,
2,1572,Note_on_c,9,51,127,
2,1572,Note_on_c,9,53,127,
2,1572,Note_on_c,9,80,127,
2,1572,Note_on_c,9,81,127,
2,1572,Note_on_c,9,82,127,
2,1573,Note_off_c,9,36,0,
2,1574,Note_on_c,9,36,127,
2,1574,Note_on_c,9,37,127,
2,1574,Note_on_c,9,38,127,
2,1574,Note_on_c,9,39,127,
2,1574,Note_on_c,9,41,127,
2,1574,Note_on_c,9,42,127,
2,1574,Note_on_c,9,43,127,
2,1574,Note_on_c,9,45,127,
2,1574,Note_on_c,9,48,127,
2,1574,Note_on_c,9,51,127,
2,1574,Note_on_c,9,53,127,
2,1574,Note_on_c,9,80,127,
2,1574,Note_on_c,9,81,127,
2,1574,Note_on_c,9,82,127,
2,1575,Note_off_c,9,36,0,
2,1576,Note_on_c,9,36,127,
2,1576,Note_on_c,9,37,127,
2,1576,Note_on_c,9,38,127,
2,1576,Note_on_c,9,39,127,
2,1576,Note_on_c,9,41,127,
2,1576,Note_on_c,9,42,127,
2,1576,Note_on_c,9,43,127,
2,1576,Note_on_c,9,45,127,
2,1576,Note_on_c,9,48,127,
2,1576,Note_on_c,9,51,127,
2,1576,Note_on_c,9,53,127,
2,1576,Note_on_c,9,80,127,
2,1576,Note_on_c,9,81,127,
2,1576,Note_on_c,9,82,127,
2,1577,Note_off_c,9,36,0,
2,1578,Note_on_c,9,36,127,
2,1578,Note_on_c,9,37,127,
2,1578,Note_on_c,9,38,127,
2,1578,Note_on_c,9,39,127,
2,1578,Note_on_c,9,41,127,
2,1578,Note_on_c,9,42,127,
2,1578,Note_on_c,9,43,127,
2,1578,Note_on_c,9,45,127,
2,1578,Note_on_c,9,48,127,
2,1578,Note_on_c,9,51,127,
2,1578,Note_on_c,9,53,127,
2,1578,Note_on_c,9,80,127,
2,1578,Note_on_c,9,81,127,
2,1578,Note_on_c,9,82,127,
2,1579,Note_off_c,9,36,0,
2,1580,Note_on_c,9,36,127,
2,1580,Note_on_c,9,37,127,
2,1580,Note_on_c,9,38,127,
2,1580,Note_on_c,9,39,127,
2,1580,Note_on_c,9,41,127,
2,1580,Note_on_c,9,42,127,
2,1580,Note_on_c,9,43,127,
2,1580,Note_on_c,9,45,127,
2,1580,Note_on_c,9,48,127,
2,1580,Note_on_c,9,51,127,
2,1580,Note_on_c,9,53,127,
2,1580,Note_on_c,9,80,127,
2,1580,Note_on_c,9,81,127,
2,1580,Note_on_c,9,82,127,
2,1581,Note_off_c,9,36,0,
2,1582,Note_on_c,9,36,127,
2,1582,Note_on_c,9,37,127,
2,1582,Note_on_c,9,38,127,
2,1582,Note_on_c,9,39,127,
2,1582,Note_on_c,9,41,127,
2,1582,Note_on_c,9,42,127,
2,1582,Note_on_c,9,43,127,
2,1582,Note_on_c,9,45,127,
2,1582,Note_on_c,9,48,127,
2,1582,Note_on_c,9,51,127,
2,1582,Note_on_c,9,53,127,
2,1582,Note_on_c,9,80,127,
2,1582,Note_on_c,9,81,127,
2,1582,Note_on_c,9,82,127,
2,1583,Note_off_c,9,36,0,
2,1584,Note_on_c,9,36,127,
2,1584,Note_on_c,9,37,127,
2,1584,Note_on_c,9,38,127,
2,1584,Note_on_c,9,39,127,
2,1584,Note_on_c,9,41,127,
2,1584,Note_on_c,9,42,127,
2,1584,Note_on_c,9,43,127,
2,1584,Note_on_c,9,45,127,
2,1584,Note_on_c,9,48,127,
2,1584,Note_on_c,9,51,127,
2,1584,Note_on_c,9,53,127,
2,1584,Note_on_c,9,80,127,
2,1584,Note_on_c,9,81,127,
2,1584,Note_on_c,9,82,127,
2,1585,Note_off_c,9,36,0,
2,1586,Note_on_c,9,36,127,
2,1586,Note_on_c,9,37,127,
2,1586,Note_on_c,9,38,127,
2,1586,Note_on_c,9,39,127,
2,1586,Note_on_c,9,41,127,
2,1586,Note_on_c,9,42,127,
2,1586,Note_on_c,9,43,127,
2,1586,Note_on_c,9,45,127,
2,1586,Note_on_c,9,48,127,
2,1586,Note_on_c,9,51,127,
2,1586,Note_on_c,9,53,127,
2,1586,Note_on_c,9,80,127,
2,1586,Note_on_c,9,81,127,
2,1586,Note_on_c,9,82,127,
2,1587,Note_off_c,9,36,0,
2,1588,Note_on_c,9,36,127,
2,1588,Note_on_c,9,37,127,
2,1588,Note_on_c,9,38,127,
2,1588,Note_on_c,9,39,127,
2,1588,Note_on_c,9,41,127,
2,1588,Note_on_c,9,42,127,
2,1588,Note_on_c,9,43,127,
2,1588,Note_on_c,9,45,127,
2,1588,Note_on_c,9,48,127,
2,1588,Note_on_c,9,51,127,
2,1588,Note_on_c,9,53,127,
2,1588,Note_on_c,9,80,127,
2,1588,Note_on_c,9,81,127,
2,1588,Note_on_c,9,82,127,
2,1589,Note_off_c,9,36,0,
2,1590,Note_on_c,9,36,127,
2,1590,Note_on_c,9,37,127,
2,1590,Note_on_c,9,38,127,
2,1590,Note_on_c,9,39,127,
2,1590,Note_on_c,9,41,127,
2,1590,Note_on_c,9,42,127,
2,1590,Note_on_c,9,43,127,
2,1590,Note_on_c,9,45,127,
2,1590,Note_on_c,9,48,127,
2,1590,Note_on_c,9,51,127,
2,1590,Note_on_c,9,53,127,
2,1590,Note_on_c,9,80,127,
2,1590,Note_on_c,9,81,127,
2,1590,Note_on_c,9,82,127,
2,1591,Note_off_c,9,36,0,
2,1592,Note_on_c,9,36,127,
2,1592,Note_on_c,9,37,127,
2,1592,Note_on_c,9,38,127,
2,1592,Note_on_c,9,39,127,
2,1592,Note_on_c,9,41,127,
2,1592,Note_on_c,9,42,127,
2,1592,Note_on_c,9,43,127,
2,1592,Note_on_c,9,45,127,
2,1592,Note_on_c,9,48,127,
2,1592,Note_on_c,9,51,127,
2,1592,Note_on_c,9,53,127,
2,1592,Note_on_c,9,80,127,
2,1592,Note_on_c,9,81,127,
2,1592,Note_on_c,9,82,127,
2,1593,Note_off_c,9,36,0,
2,1594,Note_on_c,9,36,127,
2,1594,Note_on_c,9,37,127,
2,1594,Note_on_c,9,38,127,
2,1594,Note_on_c,9,39,127,
2,1594,Note_on_c,9,41,127,
2,1594,Note_on_c,9,42,127,
2,1594,Note_on_c,9,43,127,
2,1594,Note_on_c,9,45,127,
2,1594,Note_on_c,9,48,127,
2,1594,Note_on_c,9,51,127,
2,1594,Note_on_c,9,53,127,
2,1594,Note_on_c,9,80,127,
2,1594,Note_on_c,9,81,127,
2,1594,Note_on_c,9,82,127,
2,1595,Note_off_c,9,36,0,
2,1596,Note_on_c,9,36,127,
2,1596,Note_on_c,9,37,127,
2,1596,Note_on_c,9,38,127,
2,1596,Note_on_c,9,39,127,
2,1596,Note_on_c,9,41,127,
2,1596,Note_on_c,9,42,127,
2,1596,Note_on_c,9,43,127,
2,1596,Note_on_c,9,45,127,
2,1596,Note_on_c,9,48,127,
2,1596,Note_on_c,9,51,127,
2,1596,Note_on_c,9,53,127,
2,1596,Note_on_c,9,80,127,
2,1596,Note_on_c,9,81,127,
2,1596,Note_on_c,9,82,127,
2,1597,Note_off_c,9,36,0,
2,1598,Note_on_c,9,36,127,
2,1598,Note_on_c,9,37,127,
2,1598,Note_on_c,9,38,127,
2,1598,Note_on_c,9,39,127,
2,1598,Note_on_c,9,41,127,
2,1598,Note_on_c,9,42,127,
2,1598,Note_on_c,9,43,127,
2,1598,Note_on_c,9,45,127,
2,1598,Note_on_c,9,48,127,
2,1598,Note_on_c,9,51,127,
2,1598,Note_on_c,9,53,127,
2,1598,Note_on_c,9,80,127,
2,1598,Note_on_c,9,81,127,
2,1598,Note_on_c,9,82,127,
2,1599,Note_off_c,9,36,0,
2,1600,Note_on_c,9,36,127,
2,1600,Note_on_c,9,37,127,
2,1600,Note_on_c,9,38,127,
2,1600,Note_on_c,9,39,127,
2,1600,Note_on_c,9,41,127,
2,1600,Note_on_c,9,42,127,
2,1600,Note_on_c,9,43,127,
2,1600,Note_on_c,9,45,127,
2,1600,Note_on_c,9,48,127,
2,1600,Note_on_c,9,51,127,
2,1600,Note_on_c,9,53,127,
2,1600,Note_on_c,9,80,127,
2,1600,Note_on_c,9,81,127,
2,1600,Note_on_c,9,82,127,
2,1601,Note_off_c,9,36,0,
2,1602,Note_on_c,9,36,127,
2,1602,Note_on_c,9,37,127,
2,1602,Note_on_c,9,38,127,
2,1602,Note_on_c,9,39,127,
2,1602,Note_on_c,9,41,127,
2,1602,Note_on_c,9,42,127,
2,1602,Note_on_c,9,43,127,
2,1602,Note_on_c,9,45,127,
2,1602,Note_on_c,9,48,127,
2,1602,Note_on_c,9,51,127,
2,1602,Note_on_c,9,53,127,
2,1602,Note_on_c,9,80,127,
2,1602,Note_on_c,9,81,127,
2,1602,Note_on_c,9,82,127,
2,1603,Note_off_c,9,36,0,
2,1604,Note_on_c,9,36,127,
2,1604,Note_on_c,9,37,127,
2,1604,Note_on_c,9,38,127,
2,1604,Note_on_c,9,39,127,
2,1604,Note_on_c,9,41,127,
2,1604,Note_on_c,9,42,127,
2,1604,Note_on_c,9,43,127,
2,1604,Note_on_c,9,45,127,
2,1604,Note_on_c,9,48,127,
2,1604,Note_on_c,9,51,127,
2,1604,Note_on_c,9,53,127,
2,1604,Note_on_c,9,80,127,
2,1604,Note_on_c,9,81,127,
2,1604,Note_on_c,9,82,127,
2,1605,Note_off_c,9,36,0,
2,1606,Note_on_c,9,36,127,
2,1606,Note_on_c,9,37,127,
2,1606,Note_on_c,9,38,127,
2,1606,Note_on_c,9,39,127,
2,1606,Note_on_c,9,41,127,
2,1606,Note_on_c,9,42,127,
2,1606,Note_on_c,9,43,127,
2,1606,Note_on_c,9,45,127,
2,1606,Note_on_c,9,48,127,
2,1606,Note_on_c,9,51,127,
2,1606,Note_on_c,9,53,127,
2,1606,Note_on_c,9,80,127,
2,1606,Note_on_c,9,81,127,
2,1606,Note_on_c,9,82,127,
2,1607,Note_off_c,9,36,0,
2,1608,Note_on_c,9,36,127,
2,1608,Note_on_c,9,37,127,
2,1608,Note_on_c,9,38,127,
2,1608,Note_on_c,9,39,127,
2,1608,Note_on_c,9,41,127,
2,1608,Note_on_c,9,42,127,
2,1608,Note_on_c,9,43,127,
2,1608,Note_on_c,9,45,127,
2,1608,Note_on_c,9,48,127,
2,1608,Note_on_c,9,51,127,
2,1608,Note_on_c,9,53,127,
2,1608,Note_on_c,9,80,127,
2,1608,Note_on_c,9,81,127,
2,1608,Note_on_c,9,82,127,
2,1609,Note_off_c,9,36,0,
2,1610,Note_on_c,9,36,127,
2,1610,Note_on_c,9,37,127,
2,1610,Note_on_c,9,38,127,
2,1610,Note_on_c,9,39,127,
2,1610,Note_on_c,9,41,127,
2,1610,Note_on_c,9,42,127,
2,1610,Note_on_c,9,43,127,
2,1610,Note_on_c,9,45,127,
2,1610,Note_on_c,9,48,127,
2,1610,Note_on_c,9,51,127,
2,1610,Note_on_c,9,53,127,
2,1610,Note_on_c,9,80,127,
2,1610,Note_on_c,9,81,127,
2,1610,Note_on_c,9,82,127,
2,1611,Note_off_c,9,36,0,
2,1612,Note_on_c,9,36,127,
2,1612,Note_on_c,9,37,127,
2,1612,Note_on_c,9,38,127,
2,1612,Note_on_c,9,39,127,
2,1612,Note_on_c,9,41,127,
2,1612,Note_on_c,9,42,127,
2,1612,Note_on_c,9,43,127,
2,1612,Note_on_c,9,45,127,
2,1612,Note_on_c,9,48,127,
2,1612,Note_on_c,9,51,127,
2,1612,Note_on_c,9,53,127,
2,1612,Note_on_c,9,80,127,
2,1612,Note_on_c,9,81,127,
2,1612,Note_on_c,9,82,127,
2,1613,Note_off_c,9,36,0,
2,1614,Note_on_c,9,36,127,
2,1614,Note_on_c,9,37,127,
2,1614,Note_on_c,9,38,127,
2,1614,Note_on_c,9,39,127,
2,1614,Note_on_c,9,41,127,
2,1614,Note_on_c,9,42,127,
2,1614,Note_on_c,9,43,127,
2,1614,Note_on_c,9,45,127,
2,1614,Note_on_c,9,48,127,
2,1614,Note_on_c,9,51,127,
2,1614,Note_on_c,9,53,127,
2,1614,Note_on_c,9,80,127,
2,1614,Note_on_c,9,81,127,
2,1614,Note_on_c,9,82,127,
2,1615,Note_off_c,9,36,0,
2,1616,Note_on_c,9,36,127,
2,1616,Note_on_c,9,37,127,
2,1616,Note_on_c,9,38,127,
2,1616,Note_on_c,9,39,127,
2,1616,Note_on_c,9,41,127,
2,1616,Note_on_c,9,42,127,
2,1616,Note_on_c,9,43,127,
2,1616,Note_on_c,9,45,127,
2,1616,Note_on_c,9,48,127,
2,1616,Note_on_c,9,51,127,
2,1616,Note_on_c,9,53,127,
2,1616,Note_on_c,9,80,127,
2,1616,Note_on_c,9,81,127,
2,1616,Note_on_c,9,82,127,
2,1617,Note_off_c,9,36,0,
2,1618,Note_on_c,9,36,127,
2,1618,Note_on_c,9,37,127,
2,1618,Note_on_c,9,38,127,
2,1618,Note_on_c,9,39,127,
2,1618,Note_on_c,9,41,127,
2,1618,Note_on_c,9,42,127,
2,1618,Note_on_c,9,43,127,
2,1618,Note_on_c,9,45,127,
2,1618,Note_on_c,9,48,127,
2,1618,Note_on_c,9,51,127,
2,1618,Note_on_c,9,53,127,
2,1618,Note_on_c,9,80,127,
2,1618,Note_on_c,9,81,127,
2,1618,Note_on_c,9,82,127,
2,1619,Note_off_c,9,36,0,
2,1620,Note_on_c,9,36,127,
2,1620,Note_on_c,9,37,127,
2,1620,Note_on_c,9,38,127,
2,1620,Note_on_c,9,39,127,
2,1620,Note_on_c,9,41,127,
2,1620,Note_on_c,9,42,127,
2,1620,Note_on_c,9,43,127,
2,1620,Note_on_c,9,45,127,
2,1620,Note_on_c,9,48,127,
2,1620,Note_on_c,9,51,127,
2,1620,Note_on_c,9,53,127,
2,1620,Note_on_c,9,80,127,
2,1620,Note_on_c,9,81,127,
2,1620,Note_on_c,9,82,127,
2,1621,Note_off_c,9,36,0,
2,1622,Note_on_c,9,36,127,
2,1622,Note_on_c,9,37,127,
2,1622,Note_on_c,9,38,127,
2,1622,Note_on_c,9,39,127,
2,1622,Note_on_c,9,41,127,
2,1622,Note_on_c,9,42,127,
2,1622,Note_on_c,9,43,127,
2,1622,Note_on_c,9,45,127,
2,1622,Note_on_c,9,48,127,
2,1622,Note_on_c,9,51,127,
2,1622,Note_on_c,9,53,127,
2,1622,Note_on_c,9,80,127,
2,1622,Note_on_c,9,81,127,
2,1622,Note_on_c,9,82,127,
2,1623,Note_off_c,9,36,0,
2,1624,Note_on_c,9,36,127,
2,1624,Note_on_c,9,37,127,
2,1624,Note_on_c,9,38,127,
2,1624,Note_on_c,9,39,127,
2,1624,Note_on_c,9,41,127,
2,1624,Note_on_c,9,42,127,
2,1624,Note_on_c,9,43,127,
2,1624,Note_on_c,9,45,127,
2,1624,Note_on_c,9,48,127,
2,1624,Note_on_c,9,51,127,
2,1624,Note_on_c,9,53,127,
2,1624,Note_on_c,9,80,127,
2,1624,Note_on_c,9,81,127,
2,1624,Note_on_c,9,82,127,
2,1625,Note_off_c,9,36,0,
2,1626,Note_on_c,9,36,127,
2,1626,Note_on_c,9,37,127,
2,1626,Note_on_c,9,38,127,
2,1626,Note_on_c,9,39,127,
2,1626,Note_on_c,9,41,127,
2,1626,Note_on_c,9,42,127,
2,1626,Note_on_c,9,43,127,
2,1626,Note_on_c,9,45,127,
2,1626,Note_on_c,9,48,127,
2,1626,Note_on_c,9,51,127,
2,1626,Note_on_c,9,53,127,
2,1626,Note_on_c,9,80,127,
2,1626,Note_on_c,9,81,127,
2,1626,Note_on_c,9,82,127,
2,1627,Note_off_c,9,36,0,
2,1628,Note_on_c,9,36,127,
2,1628,Note_on_c,9,37,127,
2,1628,Note_on_c,9,38,127,
2,1628,Note_on_c,9,39,127,
2,1628,Note_on_c,9,41,127,
2,1628,Note_on_c,9,42,127,
2,1628,Note_on_c,9,43,127,
2,1628,Note_on_c,9,45,127,
2,1628,Note_on_c,9,48,127,
2,1628,Note_on_c,9,51,127,
2,1628,Note_on_c,9,53,127,
2,1628,Note_on_c,9,80,127,
2,1628,Note_on_c,9,81,127,
2,1628,Note_on_c,9,82,127,
2,1629,Note_off_c,9,36,0,
2,1630,Note_on_c,9,36,127,
2,1630,Note_on_c,9,37,127,
2,1630,Note_on_c,9,38,127,
2,1630,Note_on_c,9,39,127,
2,1630,Note_on_c,9,41,127,
2,1630,Note_on_c,9,42,127,
2,1630,Note_on_c,9,43,127,
2,1630,Note_on_c,9,45,127,
2,1630,Note_on_c,9,48,127,
2,1630,Note_on_c,9,51,127,
2,1630,Note_on_c,9,53,127,
2,1630,Note_on_c,9,80,127,
2,1630,Note_on_c,9,81,127,
2,1630,Note_on_c,9,82,127,
2,1631,Note_off_c,9,36,0,
2,1632,Note_on_c,9,36,127,
2,1632,Note_on_c,9,37,127,
2,1632,Note_on_c,9,38,127,
2,1632,Note_on_c,9,39,127,
2,1632,Note_on_c,9,41,127,
2,1632,Note_on_c,9,42,127,
2,1632,Note_on_c,9,43,127,
2,1632,Note_on_c,9,45,127,
2,1632,Note_on_c,9,48,127,
2,1632,Note_on_c,9,51,127,
2,1632,Note_on_c,9,53,127,
2,1632,Note_on_c,9,80,127,
2,1632,Note_on_c,9,81,127,
2,1632,Note_on_c,9,82,127,
2,1633,Note_off_c,9,36,0,
2,1634,Note_on_c,9,36,127,
2,1634,Note_on_c,9,37,127,
2,1634,Note_on_c,9,38,127,
2,1634,Note_on_c,9,39,127,
2,1634,Note_on_c,9,41,127,
2,1634,Note_on_c,9,42,127,
2,1634,Note_on_c,9,43,127,
2,1634,Note_on_c,9,45,127,
2,1634,Note_on_c,9,48,127,
2,1634,Note_on_c,9,51,127,
2,1634,Note_on_c,9,53,127,
2,1634,Note_on_c,9,80,127,
2,1634,Note_on_c,9,81,127,
2,1634,Note_on_c,9,82,127,
2,1635,Note_off_c,9,36,0,
2,1636,Note_on_c,9,36,127,
2,1636,Note_on_c,9,37,127,
2,1636,Note_on_c,9,38,127,
2,1636,Note_on_c,9,39,127,
2,1636,Note_on_c,9,41,127,
2,1636,Note_on_c,9,42,127,
2,1636,Note_on_c,9,43,127,
2,1636,Note_on_c,9,45,127,
2,1636,Note_on_c,9,48,127,
2,1636,Note_on_c,9,51,127,
2,1636,Note_on_c,9,53,127,
2,1636,Note_on_c,9,80,127,
2,1636,Note_on_c,9,81,127,
2,1636,Note_on_c,9,82,127,
2,1637,Note_off_c,9,36,0,
2,1638,Note_on_c,9,36,127,
2,1638,Note_on_c,9,37,127,
2,1638,Note_on_c,9,38,127,
2,1638,Note_on_c,9,39,127,
2,1638,Note_on_c,9,41,127,
2,1638,Note_on_c,9,42,127,
2,1638,Note_on_c,9,43,127,
2,1638,Note_on_c,9,45,127,
2,1638,Note_on_c,9,48,127,
2,1638,Note_on_c,9,51,127,
2,1638,Note_on_c,9,53,127,
2,1638,Note_on_c,9,80,127,
2,1638,Note_on_c,9,81,127,
2,1638,Note_on_c,9,82,127,
2,1639,Note_off_c,9,36,0,
2,1640,Note_on_c,9,36,127,
2,1640,Note_on_c,9,37,127,
2,1640,Note_on_c,9,38,127,
2,1640,Note_on_c,9,39,127,
2,1640,Note_on_c,9,41,127,
2,1640,Note_on_c,9,42,127,
2,1640,Note_on_c,9,43,127,
2,1640,Note_on_c,9,45,127,
2,1640,Note_on_c,9,48,127,
2,1640,Note_on_c,9,51,127,
2,1640,Note_on_c,9,53,127,
2,1640,Note_on_c,9,80,127,
2,1640,Note_on_c,9,81,127,
2,1640,Note_on_c,9,82,127,
2,1641,Note_off_c,9,36,0,
2,1642,Note_on_c,9,36,127,
2,1642,Note_on_c,9,37,127,
2,1642,Note_on_c,9,38,127,
2,1642,Note_on_c,9,39,127,
2,1642,Note_on_c,9,41,127,
2,1642,Note_on_c,9,42,127,
2,1642,Note_on_c,9,43,127,
2,1642,Note_on_c,9,45,127,
2,1642,Note_on_c,9,48,127,
2,1642,Note_on_c,9,51,127,
2,1642,Note_on_c,9,53,127,
2,1642,Note_on_c,9,80,127,
2,1642,Note_on_c,9,81,127,
2,1642,Note_on_c,9,82,127,
2,1643,Note_off_c,9,36,0,
2,1644,Note_on_c,9,36,127,
2,1644,Note_on_c,9,37,127,
2,1644,Note_on_c,9,38,127,
2,1644,Note_on_c,9,39,127,
2,1644,Note_on_c,9,41,127,
2,1644,Note_on_c,9,42,127,
2,1644,Note_on_c,9,43,127,
2,1644,Note_on_c,9,45,127,
2,1644,Note_on_c,9,48,127,
2,1644,Note_on_c,9,51,127,
2,1644,Note_on_c,9,53,127,
2,1644,Note_on_c,9,80,127,
2,1644,Note_on_c,9,81,127,
2,1644,Note_on_c,9,82,127,
2,1645,Note_off_c,9,36,0,
2,1646,Note_on_c,9,36,127,
2,1646,Note_on_c,9,37,127,
2,1646,Note_on_c,9,38,127,
2,1646,Note_on_c,9,39,127,
2,1646,Note_on_c,9,41,127,
2,1646,Note_on_c,9,42,127,
2,1646,Note_on_c,9,43,127,
2,1646,Note_on_c,9,45,127,
2,1646,Note_on_c,9,48,127,
2,1646,Note_on_c,9,51,127,
2,1646,Note_on_c,9,53,127,
2,1646,Note_on_c,9,80,127,
2,1646,Note_on_c,9,81,127,
2,1646,Note_on_c,9,82,127,
2,1647,Note_off_c,9,36,0,
2,1648,Note_on_c,9,36,127,
2,1648,Note_on_c,9,37,127,
2,1648,Note_on_c,9,38,127,
2,1648,Note_on_c,9,39,127,
2,1648,Note_on_c,9,41,127,
2,1648,Note_on_c,9,42,127,
2,1648,Note_on_c,9,43,127,
2,1648,Note_on_c,9,45,127,
2,1648,Note_on_c,9,48,127,
2,1648,Note_on_c,9,51,127,
2,1648,Note_on_c,9,53,127,
2,1648,Note_on_c,9,80,127,
2,1648,Note_on_c,9,81,127,
2,1648,Note_on_c,9,82,127,
2,1649,Note_off_c,9,36,0,
2,1650,Note_on_c,9,36,127,
2,1650,Note_on_c,9,37,127,
2,1650,Note_on_c,9,38,127,
2,1650,Note_on_c,9,39,127,
2,1650,Note_on_c,9,41,127,
2,1650,Note_on_c,9,42,127,
2,1650,Note_on_c,9,43,127,
2,1650,Note_on_c,9,45,127,
2,1650,Note_on_c,9,48,127,
2,1650,Note_on_c,9,51,127,
2,1650,Note_on_c,9,53,127,
2,1650,Note_on_c,9,80,127,
2,1650,Note_on_c,9,81,127,
2,1650,Note_on_c,9,82,127,
2,1651,Note_off_c,9,36,0,
2,1652,Note_on_c,9,36,127,
2,1652,Note_on_c,9,37,127,
2,1652,Note_on_c,9,38,127,
2,1652,Note_on_c,9,39,127,
2,1652,Note_on_c,9,41,127,
2,1652,Note_on_c,9,42,127,
2,1652,Note_on_c,9,43,127,
2,1652,Note_on_c,9,45,127,
2,1652,Note_on_c,9,48,127,
2,1652,Note_on_c,9,51,127,
2,1652,Note_on_c,9,53,127,
2,1652,Note_on_c,9,80,127,
2,1652,Note_on_c,9,81,127,
2,1652,Note_on_c,9,82,127,
2,1653,Note_off_c,9,36,0,
2,1654,Note_on_c,9,36,127,
2,1654,Note_on_c,9,37,127,
2,1654,Note_on_c,9,38,127,
2,1654,Note_on_c,9,39,127,
2,1654,Note_on_c,9,41,127,
2,1654,Note_on_c,9,42,127,
2,1654,Note_on_c,9,43,127,
2,1654,Note_on_c,9,45,127,
2,1654,Note_on_c,9,48,127,
2,1654,Note_on_c,9,51,127,
2,1654,Note_on_c,9,53,127,
2,1654,Note_on_c,9,80,127,
2,1654,Note_on_c,9,81,127,
2,1654,Note_on_c,9,82,127,
2,1655,Note_off_c,9,36,0,
2,1656,Note_on_c,9,36,127,
2,1656,Note_on_c,9,37,127,
2,1656,Note_on_c,9,38,127,
2,1656,Note_on_c,9,39,127,
2,1656,Note_on_c,9,41,127,
2,1656,Note_on_c,9,42,127,
2,1656,Note_on_c,9,43,127,
2,1656,Note_on_c,9,45,127,
2,1656,Note_on_c,9,48,127,
2,1656,Note_on_c,9,51,127,
2,1656,Note_on_c,9,53,127,
2,1656,Note_on_c,9,80,127,
2,1656,Note_on_c,9,81,127,
2,1656,Note_on_c,9,82,127,
2,1657,Note_off_c,9,36,0,
2,1658,Note_on_c,9,36,127,
2,1658,Note_on_c,9,37,127,
2,1658,Note_on_c,9,38,127,
2,1658,Note_on_c,9,39,127,
2,1658,Note_on_c,9,41,127,
2,1658,Note_on_c,9,42,127,
2,1658,Note_on_c,9,43,127,
2,1658,Note_on_c,9,45,127,
2,1658,Note_on_c,9,48,127,
2,1658,Note_on_c,9,51,127,
2,1658,Note_on_c,9,53,127,
2,1658,Note_on_c,9,80,127,
2,1658,Note_on_c,9,81,127,
2,1658,Note_on_c,9,82,127,
2,1659,Note_off_c,9,36,0,
2,1660,Note_on_c,9,36,127,
2,1660,Note_on_c,9,37,127,
2,1660,Note_on_c,9,38,127,
2,1660,Note_on_c,9,39,127,
2,1660,Note_on_c,9,41,127,
2,1660,Note_on_c,9,42,127,
2,1660,Note_on_c,9,43,127,
2,1660,Note_on_c,9,45,127,
2,1660,Note_on_c,9,48,127,
2,1660,Note_on_c,9,51,127,
2,1660,Note_on_c,9,53,127,
2,1660,Note_on_c,9,80,127,
2,1660,Note_on_c,9,81,127,
2,1660,Note_on_c,9,82,127,
2,1661,Note_off_c,9,36,0,
2,1662,Note_on_c,9,36,127,
2,1662,Note_on_c,9,37,127,
2,1662,Note_on_c,9,38,127,
2,1662,Note_on_c,9,39,127,
2,1662,Note_on_c,9,41,127,
2,1662,Note_on_c,9,42,127,
2,1662,Note_on_c,9,43,127,
2,1662,Note_on_c,9,45,127,
2,1662,Note_on_c,9,48,127,
2,1662,Note_on_c,9,51,127,
2,1662,Note_on_c,9,53,127,
2,1662,Note_on_c,9,80,127,
2,1662,Note_on_c,9,81,127,
2,1662,Note_on_c,9,82,127,
2,1663,Note_off_c,9,36,0,
2,1664,Note_on_c,9,36,127,
2,1664,Note_on_c,9,37,127,
2,1664,Note_on_c,9,38,127,
2,1664,Note_on_c,9,39,127,
2,1664,Note_on_c,9,41,127,
2,1664,Note_on_c,9,42,127,
2,1664,Note_on_c,9,43,127,
2,1664,Note_on_c,9,45,127,
2,1664,Note_on_c,9,48,127,
2,1664,Note_on_c,9,51,127,
2,1664,Note_on_c,9,53,127,
2,1664,Note_on_c,9,80,127,
2,1664,Note_on_c,9,81,127,
2,1664,Note_on_c,9,82,127,
2,1665,Note_off_c,9,36,0,
2,1666,Note_on_c,9,36,127,
2,1666,Note_on_c,9,37,127,
2,1666,Note_on_c,9,38,127,
2,1666,Note_on_c,9,39,127,
2,1666,Note_on_c,9,41,127,
2,1666,Note_on_c,9,42,127,
2,1666,Note_on_c,9,43,127,
2,1666,Note_on_c,9,45,127,
2,1666,Note_on_c,9,48,127,
2,1666,Note_on_c,9,51,127,
2,1666,Note_on_c,9,53,127,
2,1666,Note_on_c,9,80,127,
2,1666,Note_on_c,9,81,127,
2,1666,Note_on_c,9,82,127,
2,1667,Note_off_c,9,36,0,
2,1668,Note_on_c,9,36,127,
2,1668,Note_on_c,9,37,127,
2,1668,Note_on_c,9,38,127,
2,1668,Note_on_c,9,39,127,
2,1668,Note_on_c,9,41,127,
2,1668,Note_on_c,9,42,127,
2,1668,Note_on_c,9,43,127,
2,1668,Note_on_c,9,45,127,
2,1668,Note_on_c,9,48,127,
2,1668,Note_on_c,9,51,127,
2,1668,Note_on_c,9,53,127,
2,1668,Note_on_c,9,80,127,
2,1668,Note_on_c,9,81,127,
2,1668,Note_on_c,9,82,127,
2,1669,Note_off_c,9,36,0,
2,1670,Note_on_c,9,36,127,
2,1670,Note_on_c,9,37,127,
2,1670,Note_on_c,9,38,127,
2,1670,Note_on_c,9,39,127,
2,1670,Note_on_c,9,41,127,
2,1670,Note_on_c,9,42,127,
2,1670,Note_on_c,9,43,127,
2,1670,Note_on_c,9,45,127,
2,1670,Note_on_c,9,48,127,
2,1670,Note_on_c,9,51,127,
2,1670,Note_on_c,9,53,127,
2,1670,Note_on_c,9,80,127,
2,1670,Note_on_c,9,81,127,
2,1670,Note_on_c,9,82,127,
2,1671,Note_off_c,9,36,0,
2,1672,Note_on_c,9,36,127,
2,1672,Note_on_c,9,37,127,
2,1672,Note_on_c,9,38,127,
2,1672,Note_on_c,9,39,127,
2,1672,Note_on_c,9,41,127,
2,1672,Note_on_c,9,42,127,
2,1672,Note_on_c,9,43,127,
2,1672,Note_on_c,9,45,127,
2,1672,Note_on_c,9,48,127,
2,1672,Note_on_c,9,51,127,
2,1672,Note_on_c,9,53,127,
2,1672,Note_on_c,9,80,127,
2,1672,Note_on_c,9,81,127,
2,1672,Note_on_c,9,82,127,
2,1673,Note_off_c,9,36,0,
2,1674,Note_on_c,9,36,127,
2,1674,Note_on_c,9,37,127,
2,1674,Note_on_c,9,38,127,
2,1674,Note_on_c,9,39,127,
2,1674,Note_on_c,9,41,127,
2,1674,Note_on_c,9,42,127,
2,1674,Note_on_c,9,43,127,
2,1674,Note_on_c,9,45,127,
2,1674,Note_on_c,9,48,127,
2,1674,Note_on_c,9,51,127,
2,1674,Note_on_c,9,53,127,
2,1674,Note_on_c,9,80,127,
2,1674,Note_on_c,9,81,127,
2,1674,Note_on_c,9,82,127,
2,1675,Note_off_c,9,36,0,
2,1676,Note_on_c,9,36,127,
2,1676,Note_on_c,9,37,127,
2,1676,Note_on_c,9,38,127,
2,1676,Note_on_c,9,39,127,
2,1676,Note_on_c,9,41,127,
2,1676,Note_on_c,9,42,127,
2,1676,Note_on_c,9,43,127,
2,1676,Note_on_c,9,45,127,
2,1676,Note_on_c,9,48,127,
2,1676,Note_on_c,9,51,127,
2,1676,Note_on_c,9,53,127,
2,1676,Note_on_c,9,80,127,
2,1676,Note_on_c,9,81,127,
2,1676,Note_on_c,9,82,127,
2,1677,Note_off_c,9,36,0,
2,1678,Note_on_c,9,36,127,
2,1678,Note_on_c,9,37,127,
2,1678,Note_on_c,9,38,127,
2,1678,Note_on_c,9,39,127,
2,1678,Note_on_c,9,41,127,
2,1678,Note_on_c,9,42,127,
2,1678,Note_on_c,9,43,127,
2,1678,Note_on_c,9,45,127,
2,1678,Note_on_c,9,48,127,
2,1678,Note_on_c,9,51,127,
2,1678,Note_on_c,9,53,127,
2,1678,Note_on_c,9,80,127,
2,1678,Note_on_c,9,81,127,
2,1678,Note_on_c,9,82,127,
2,1679,Note_off_c,9,36,0,
2,1680,Note_on_c,9,36,127,
2,1680,Note_on_c,9,37,127,
2,1680,Note_on_c,9,38,127,
2,1680,Note_on_c,9,39,127,
2,1680,Note_on_c,9,41,127,
2,1680,Note_on_c,9,42,127,
2,1680,Note_on_c,9,43,127,
2,1680,Note_on_c,9,45,127,
2,1680,Note_on_c,9,48,127,
2,1680,Note_on_c,9,51,127,
2,1680,Note_on_c,9,53,127,
2,1680,Note_on_c,9,80,127,
2,1680,Note_on_c,9,81,127,
2,1680,Note_on_c,9,82,127,
2,1681,Note_off_c,9,36,0,
2,1682,Note_on_c,9,36,127,
2,1682,Note_on_c,9,37,127,
2,1682,Note_on_c,9,38,127,
2,1682,Note_on_c,9,39,127,
2,1682,Note_on_c,9,41,127,
2,1682,Note_on_c,9,42,127,
2,1682,Note_on_c,9,43,127,
2,1682,Note_on_c,9,45,127,
2,1682,Note_on_c,9,48,127,
2,1682,Note_on_c,9,51,127,
2,1682,Note_on_c,9,53,127,
2,1682,Note_on_c,9,80,127,
2,1682,Note_on_c,9,81,127,
2,1682,Note_on_c,9,82,127,
2,1683,Note_off_c,9,36,0,
2,1684,Note_on_c,9,36,127,
2,1684,Note_on_c,9,37,127,
2,1684,Note_on_c,9,38,127,
2,1684,Note_on_c,9,39,127,
2,1684,Note_on_c,9,41,127,
2,1684,Note_on_c,9,42,127,
2,1684,Note_on_c,9,43,127,
2,1684,Note_on_c,9,45,127,
2,1684,Note_on_c,9,48,127,
2,1684,Note_on_c,9,51,127,
2,1684,Note_on_c,9,53,127,
2,1684,Note_on_c,9,80,127,
2,1684,Note_on_c,9,81,127,
2,1684,Note_on_c,9,82,127,
2,1685,Note_off_c,9,36,0,
2,1686,Note_on_c,9,36,127,
2,1686,Note_on_c,9,37,127,
2,1686,Note_on_c,9,38,127,
2,1686,Note_on_c,9,39,127,
2,1686,Note_on_c,9,41,127,
2,1686,Note_on_c,9,42,127,
2,1686,Note_on_c,9,43,127,
2,1686,Note_on_c,9,45,127,
2,1686,Note_on_c,9,48,127,
2,1686,Note_on_c,9,51,127,
2,1686,Note_on_c,9,53,127,
2,1686,Note_on_c,9,80,127,
2,1686,Note_on_c,9,81,127,
2,1686,Note_on_c,9,82,127,
2,1687,Note_off_c,9,36,0,
2,1688,Note_on_c,9,36,127,
2,1688,Note_on_c,9,37,127,
2,1688,Note_on_c,9,38,127,
2,1688,Note_on_c,9,39,127,
2,1688,Note_on_c,9,41,127,
2,1688,Note_on_c,9,42,127,
2,1688,Note_on_c,9,43,127,
2,1688,Note_on_c,9,45,127,
2,1688,Note_on_c,9,48,127,
2,1688,Note_on_c,9,51,127,
2,1688,Note_on_c,9,53,127,
2,1688,Note_on_c,9,80,127,
2,1688,Note_on_c,9,81,127,
2,1688,Note_on_c,9,82,127,
2,1689,Note_off_c,9,36,0,
2,1690,Note_on_c,9,36,127,
2,1690,Note_on_c,9,37,127,
2,1690,Note_on_c,9,38,127,
2,1690,Note_on_c,9,39,127,
2,1690,Note_on_c,9,41,127,
2,1690,Note_on_c,9,42,127,
2,1690,Note_on_c,9,43,127,
2,1690,Note_on_c,9,45,127,
2,1690,Note_on_c,9,48,127,
2,1690,Note_on_c,9,51,127,
2,1690,Note_on_c,9,53,127,
2,1690,Note_on_c,9,80,127,
2,1690,Note_on_c,9,81,127,
2,1690,Note_on_c,9,82,127,
2,1691,Note_off_c,9,36,0,
2,1692,Note_on_c,9,36,127,
2,1692,Note_on_c,9,37,127,
2,1692,Note_on_c,9,38,127,
2,1692,Note_on_c,9,39,127,
2,1692,Note_on_c,9,41,127,
2,1692,Note_on_c,9,42,127,
2,1692,Note_on_c,9,43,127,
2,1692,Note_on_c,9,45,127,
2,1692,Note_on_c,9,48,127,
2,1692,Note_on_c,9,51,127,
2,1692,Note_on_c,9,53,127,
2,1692,Note_on_c,9,80,127,
2,1692,Note_on_c,9,81,127,
2,1692,Note_on_c,9,82,127,
2,1693,Note_off_c,9,36,0,
2,1694,Note_on_c,9,36,127,
2,1694,Note_on_c,9,37,127,
2,1694,Note_on_c,9,38,127,
2,1694,Note_on_c,9,39,127,
2,1694,Note_on_c,9,41,127,
2,1694,Note_on_c,9,42,127,
2,1694,Note_on_c,9,43,127,
2,1694,Note_on_c,9,45,127,
2,1694,Note_on_c,9,48,127,
2,1694,Note_on_c,9,51,127,
2,1694,Note_on_c,9,53,127,
2,1694,Note_on_c,9,80,127,
2,1694,Note_on_c,9,81,127,
2,1694,Note_on_c,9,82,127,
2,1695,Note_off_c,9,36,0,
2,1696,Note_on_c,9,36,127,
2,1696,Note_on_c,9,37,127,
2,1696,Note_on_c,9,38,127,
2,1696,Note_on_c,9,39,127,
2,1696,Note_on_c,9,41,127,
2,1696,Note_on_c,9,42,127,
2,1696,Note_on_c,9,43,127,
2,1696,Note_on_c,9,45,127,
2,1696,Note_on_c,9,48,127,
2,1696,Note_on_c,9,51,127,
2,1696,Note_on_c,9,53,127,
2,1696,Note_on_c,9,80,127,
2,1696,Note_on_c,9,81,127,
2,1696,Note_on_c,9,82,127,
2,1697,Note_off_c,9,36,0,
2,1698,Note_on_c,9,36,127,
2,1698,Note_on_c,9,37,127,
2,1698,Note_on_c,9,38,127,
2,1698,Note_on_c,9,39,127,
2,1698,Note_on_c,9,41,127,
2,1698,Note_on_c,9,42,127,
2,1698,Note_on_c,9,43,127,
2,1698,Note_on_c,9,45,127,
2,1698,Note_on_c,9,48,127,
2,1698,Note_on_c,9,51,127,
2,1698,Note_on_c,9,53,127,
2,1698,Note_on_c,9,80,127,
2,1698,Note_on_c,9,81,127,
2,1698,Note_on_c,9,82,127,
2,1699,Note_off_c,9,36,0,
2,1700,Note_on_c,9,36,127,
2,1700,Note_on_c,9,37,127,
2,1700,Note_on_c,9,38,127,
2,1700,Note_on_c,9,39,127,
2,1700,Note_on_c,9,41,127,
2,1700,Note_on_c,9,42,127,
2,1700,Note_on_c,9,43,127,
2,1700,Note_on_c,9,45,127,
2,1700,Note_on_c,9,48,127,
2,1700,Note_on_c,9,51,127,
2,1700,Note_on_c,9,53,127,
2,1700,Note_on_c,9,80,127,
2,1700,Note_on_c,9,81,127,
2,1700,Note_on_c,9,82,127,
2,1701,Note_off_c,9,36,0,
2,1702,Note_on_c,9,36,127,
2,1702,Note_on_c,9,37,127,
2,1702,Note_on_c,9,38,127,
2,1702,Note_on_c,9,39,127,
2,1702,Note_on_c,9,41,127,
2,1702,Note_on_c,9,42,127,
2,1702,Note_on_c,9,43,127,
2,1702,Note_on_c,9,45,127,
2,1702,Note_on_c,9,48,127,
2,1702,Note_on_c,9,51,127,
2,1702,Note_on_c,9,53,127,
2,1702,Note_on_c,9,80,127,
2,1702,Note_on_c,9,81,127,
2,1702,Note_on_c,9,82,127,
2,1703,Note_off_c,9,36,0,
2,1704,Note_on_c,9,36,127,
2,1704,Note_on_c,9,37,127,
2,1704,Note_on_c,9,38,127,
2,1704,Note_on_c,9,39,127,
2,1704,Note_on_c,9,41,127,
2,1704,Note_on_c,9,42,127,
2,1704,Note_on_c,9,43,127,
2,1704,Note_on_c,9,45,127,
2,1704,Note_on_c,9,48,127,
2,1704,Note_on_c,9,51,127,
2,1704,Note_on_c,9,53,127,
2,1704,Note_on_c,9,80,127,
2,1704,Note_on_c,9,81,127,
2,1704,Note_on_c,9,82,127,
2,1705,Note_off_c,9,36,0,
2,1706,Note_on_c,9,36,127,
2,1706,Note_on_c,9,37,127,
2,1706,Note_on_c,9,38,127,
2,1706,Note_on_c,9,39,127,
2,1706,Note_on_c,9,41,127,
2,1706,Note_on_c,9,42,127,
2,1706,Note_on_c,9,43,127,
2,1706,Note_on_c,9,45,127,
2,1706,Note_on_c,9,48,127,
2,1706,Note_on_c,9,51,127,
2,1706,Note_on_c,9,53,127,
2,1706,Note_on_c,9,80,127,
2,1706,Note_on_c,9,81,127,
2,1706,Note_on_c,9,82,127,
2,1707,Note_off_c,9,36,0,
2,1708,Note_on_c,9,36,127,
2,1708,Note_on_c,9,37,127,
2,1708,Note_on_c,9,38,127,
2,1708,Note_on_c,9,39,127,
2,1708,Note_on_c,9,41,127,
2,1708,Note_on_c,9,42,127,
2,1708,Note_on_c,9,43,127,
2,1708,Note_on_c,9,45,127,
2,1708,Note_on_c,9,48,127,
2,1708,Note_on_c,9,51,127,
2,1708,Note_on_c,9,53,127,
2,1708,Note_on_c,9,80,127,
2,1708,Note_on_c,9,81,127,
2,1708,Note_on_c,9,82,127,
2,1709,Note_off_c,9,36,0,
2,1710,Note_on_c,9,36,127,
2,1710,Note_on_c,9,37,127,
2,1710,Note_on_c,9,38,127,
2,1710,Note_on_c,9,39,127,
2,1710,Note_on_c,9,41,127,
2,1710,Note_on_c,9,42,127,
2,1710,Note_on_c,9,43,127,
2,1710,Note_on_c,9,45,127,
2,1710,Note_on_c,9,48,127,
2,1710,Note_on_c,9,51,127,
2,1710,Note_on_c,9,53,127,
2,1710,Note_on_c,9,80,127,
2,1710,Note_on_c,9,81,127,
2,1710,Note_on_c,9,82,127,
2,1711,Note_off_c,9,36,0,
2,1712,Note_on_c,9,36,127,
2,1712,Note_on_c,9,37,127,
2,1712,Note_on_c,9,38,127,
2,1712,Note_on_c,9,39,127,
2,1712,Note_on_c,9,41,127,
2,1712,Note_on_c,9,42,127,
2,1712,Note_on_c,9,43,127,
2,1712,Note_on_c,9,45,127,
2,1712,Note_on_c,9,48,127,
2,1712,Note_on_c,9,51,127,
2,1712,Note_on_c,9,53,127,
2,1712,Note_on_c,9,80,127,
2,1712,Note_on_c,9,81,127,
2,1712,Note_on_c,9,82,127,
2,1713,Note_off_c,9,36,0,
2,1714,Note_on_c,9,36,127,
2,1714,Note_on_c,9,37,127,
2,1714,Note_on_c,9,38,127,
2,1714,Note_on_c,9,39,127,
2,1714,Note_on_c,9,41,127,
2,1714,Note_on_c,9,42,127,
2,1714,Note_on_c,9,43,127,
2,1714,Note_on_c,9,45,127,
2,1714,Note_on_c,9,48,127,
2,1714,Note_on_c,9,51,127,
2,1714,Note_on_c,9,53,127,
2,1714,Note_on_c,9,80,127,
2,1714,Note_on_c,9,81,127,
2,1714,Note_on_c,9,82,127,
2,1715,Note_off_c,9,36,0,
2,1716,Note_on_c,9,36,127,
2,1716,Note_on_c,9,37,127,
2,1716,Note_on_c,9,38,127,
2,1716,Note_on_c,9,39,127,
2,1716,Note_on_c,9,41,127,
2,1716,Note_on_c,9,42,127,
2,1716,Note_on_c,9,43,127,
2,1716,Note_on_c,9,45,127,
2,1716,Note_on_c,9,48,127,
2,1716,Note_on_c,9,51,127,
2,1716,Note_on_c,9,53,127,
2,1716,Note_on_c,9,80,127,
2,1716,Note_on_c,9,81,127,
2,1716,Note_on_c,9,82,127,
2,1717,Note_off_c,9,36,0,
2,1718,Note_on_c,9,36,127,
2,1718,Note_on_c,9,37,127,
2,1718,Note_on_c,9,38,127,
2,1718,Note_on_c,9,39,127,
2,1718,Note_on_c,9,41,127,
2,1718,Note_on_c,9,42,127,
2,1718,Note_on_c,9,43,127,
2,1718,Note_on_c,9,45,127,
2,1718,Note_on_c,9,48,127,
2,1718,Note_on_c,9,51,127,
2,1718,Note_on_c,9,53,127,
2,1718,Note_on_c,9,80,127,
2,1718,Note_on_c,9,81,127,
2,1718,Note_on_c,9,82,127,
2,1719,Note_off_c,9,36,0,
2,1720,Note_on_c,9,36,127,
2,1720,Note_on_c,9,37,127,
2,1720,Note_on_c,9,38,127,
2,1720,Note_on_c,9,39,127,
2,1720,Note_on_c,9,41,127,
2,1720,Note_on_c,9,42,127,
2,1720,Note_on_c,9,43,127,
2,1720,Note_on_c,9,45,127,
2,1720,Note_on_c,9,48,127,
2,1720,Note_on_c,9,51,127,
2,1720,Note_on_c,9,53,127,
2,1720,Note_on_c,9,80,127,
2,1720,Note_on_c,9,81,127,
2,1720,Note_on_c,9,82,127,
2,1721,Note_off_c,9,36,0,
2,1722,Note_on_c,9,36,127,
2,1722,Note_on_c,9,37,127,
2,1722,Note_on_c,9,38,127,
2,1722,Note_on_c,9,39,127,
2,1722,Note_on_c,9,41,127,
2,1722,Note_on_c,9,42,127,
2,1722,Note_on_c,9,43,127,
2,1722,Note_on_c,9,45,127,
2,1722,Note_on_c,9,48,127,
2,1722,Note_on_c,9,51,127,
2,1722,Note_on_c,9,53,127,
2,1722,Note_on_c,9,80,127,
2,1722,Note_on_c,9,81,127,
2,1722,Note_on_c,9,82,127,
2,1723,Note_off_c,9,36,0,
2,1724,Note_on_c,9,36,127,
2,1724,Note_on_c,9,37,127,
2,1724,Note_on_c,9,38,127,
2,1724,Note_on_c,9,39,127,
2,1724,Note_on_c,9,41,127,
2,1724,Note_on_c,9,42,127,
2,1724,Note_on_c,9,43,127,
2,1724,Note_on_c,9,45,127,
2,1724,Note_on_c,9,48,127,
2,1724,Note_on_c,9,51,127,
2,1724,Note_on_c,9,53,127,
2,1724,Note_on_c,9,80,127,
2,1724,Note_on_c,9,81,127,
2,1724,Note_on_c,9,82,127,
2,1725,Note_off_c,9,36,0,
2,1726,Note_on_c,9,36,127,
2,1726,Note_on_c,9,37,127,
2,1726,Note_on_c,9,38,127,
2,1726,Note_on_c,9,39,127,
2,1726,Note_on_c,9,41,127,
2,1726,Note_on_c,9,42,127,
2,1726,Note_on_c,9,43,127,
2,1726,Note_on_c,9,45,127,
2,1726,Note_on_c,9,48,127,
2,1726,Note_on_c,9,51,127,
2,1726,Note_on_c,9,53,127,
2,1726,Note_on_c,9,80,127,
2,1726,Note_on_c,9,81,127,
2,1726,Note_on_c,9,82,127,
2,1727,Note_off_c,9,36,0,
2,1728,Note_on_c,9,36,127,
2,1728,Note_on_c,9,37,127,
2,1728,Note_on_c,9,38,127,
2,1728,Note_on_c,9,39,127,
2,1728,Note_on_c,9,41,127,
2,1728,Note_on_c,9,42,127,
2,1728,Note_on_c,9,43,127,
2,1728,Note_on_c,9,45,127,
2,1728,Note_on_c,9,48,127,
2,1728,Note_on_c,9,51,127,
2,1728,Note_on_c,9,53,127,
2,1728,Note_on_c,9,80,127,
2,1728,Note_on_c,9,81,127,
2,1728,Note_on_c,9,82,127,
2,1729,Note_off_c,9,36,0,
2,1730,Note_on_c,9,36,127,
2,1730,Note_on_c,9,37,127,
2,1730,Note_on_c,9,38,127,
2,1730,Note_on_c,9,39,127,
2,1730,Note_on_c,9,41,127,
2,1730,Note_on_c,9,42,127,
2,1730,Note_on_c,9,43,127,
2,1730,Note_on_c,9,45,127,
2,1730,Note_on_c,9,48,127,
2,1730,Note_on_c,9,51,127,
2,1730,Note_on_c,9,53,127,
2,1730,Note_on_c,9,80,127,
2,1730,Note_on_c,9,81,127,
2,1730,Note_on_c,9,82,127,
2,1731,Note_off_c,9,36,0,
2,1732,Note_on_c,9,36,127,
2,1732,Note_on_c,9,37,127,
2,1732,Note_on_c,9,38,127,
2,1732,Note_on_c,9,39,127,
2,1732,Note_on_c,9,41,127,
2,1732,Note_on_c,9,42,127,
2,1732,Note_on_c,9,43,127,
2,1732,Note_on_c,9,45,127,
2,1732,Note_on_c,9,48,127,
2,1732,Note_on_c,9,51,127,
2,1732,Note_on_c,9,53,127,
2,1732,Note_on_c,9,80,127,
2,1732,Note_on_c,9,81,127,
2,1732,Note_on_c,9,82,127,
2,1733,Note_off_c,9,36,0,
2,1734,Note_on_c,9,36,127,
2,1734,Note_on_c,9,37,127,
2,1734,Note_on_c,9,38,127,
2,1734,Note_on_c,9,39,127,
2,1734,Note_on_c,9,41,127,
2,1734,Note_on_c,9,42,127,
2,1734,Note_on_c,9,43,127,
2,1734,Note_on_c,9,45,127,
2,1734,Note_on_c,9,48,127,
2,1734,Note_on_c,9,51,127,
2,1734,Note_on_c,9,53,127,
2,1734,Note_on_c,9,80,127,
2,1734,Note_on_c,9,81,127,
2,1734,Note_on_c,9,82,127,
2,1735,Note_off_c,9,36,0,
2,1736,Note_on_c,9,36,127,
2,1736,Note_on_c,9,37,127,
2,1736,Note_on_c,9,38,127,
2,1736,Note_on_c,9,39,127,
2,1736,Note_on_c,9,41,127,
2,1736,Note_on_c,9,42,127,
2,1736,Note_on_c,9,43,127,
2,1736,Note_on_c,9,45,127,
2,1736,Note_on_c,9,48,127,
2,1736,Note_on_c,9,51,127,
2,1736,Note_on_c,9,53,127,
2,1736,Note_on_c,9,80,127,
2,1736,Note_on_c,9,81,127,
2,1736,Note_on_c,9,82,127,
2,1737,Note_off_c,9,36,0,
2,1738,Note_on_c,9,36,127,
2,1738,Note_on_c,9,37,127,
2,1738,Note_on_c,9,38,127,
2,1738,Note_on_c,9,39,127,
2,1738,Note_on_c,9,41,127,
2,1738,Note_on_c,9,42,127,
2,1738,Note_on_c,9,43,127,
2,1738,Note_on_c,9,45,127,
2,1738,Note_on_c,9,48,127,
2,1738,Note_on_c,9,51,127,
2,1738,Note_on_c,9,53,127,
2,1738,Note_on_c,9,80,127,
2,1738,Note_on_c,9,81,127,
2,1738,Note_on_c,9,82,127,
2,1739,Note_off_c,9,36,0,
2,1740,Note_on_c,9,36,127,
2,1740,Note_on_c,9,37,127,
2,1740,Note_on_c,9,38,127,
2,1740,Note_on_c,9,39,127,
2,1740,Note_on_c,9,41,127,
2,1740,Note_on_c,9,42,127,
2,1740,Note_on_c,9,43,127,
2,1740,Note_on_c,9,45,127,
2,1740,Note_on_c,9,48,127,
2,1740,Note_on_c,9,51,127,
2,1740,Note_on_c,9,53,127,
2,1740,Note_on_c,9,80,127,
2,1740,Note_on_c,9,81,127,
2,1740,Note_on_c,9,82,127,
2,1741,Note_off_c,9,36,0,
2,1742,Note_on_c,9,36,127,
2,1742,Note_on_c,9,37,127,
2,1742,Note_on_c,9,38,127,
2,1742,Note_on_c,9,39,127,
2,1742,Note_on_c,9,41,127,
2,1742,Note_on_c,9,42,127,
2,1742,Note_on_c,9,43,127,
2,1742,Note_on_c,9,45,127,
2,1742,Note_on_c,9,48,127,
2,1742,Note_on_c,9,51,127,
2,1742,Note_on_c,9,53,127,
2,1742,Note_on_c,9,80,127,
2,1742,Note_on_c,9,81,127,
2,1742,Note_on_c,9,82,127,
2,1743,Note_off_c,9,36,0,
2,1744,Note_on_c,9,36,127,
2,1744,Note_on_c,9,37,127,
2,1744,Note_on_c,9,38,127,
2,1744,Note_on_c,9,39,127,
2,1744,Note_on_c,9,41,127,
2,1744,Note_on_c,9,42,127,
2,1744,Note_on_c,9,43,127,
2,1744,Note_on_c,9,45,127,
2,1744,Note_on_c,9,48,127,
2,1744,Note_on_c,9,51,127,
2,1744,Note_on_c,9,53,127,
2,1744,Note_on_c,9,80,127,
2,1744,Note_on_c,9,81,127,
2,1744,Note_on_c,9,82,127,
2,1745,Note_off_c,9,36,0,
2,1746,Note_on_c,9,36,127,
2,1746,Note_on_c,9,37,127,
2,1746,Note_on_c,9,38,127,
2,1746,Note_on_c,9,39,127,
2,1746,Note_on_c,9,41,127,
2,1746,Note_on_c,9,42,127,
2,1746,Note_on_c,9,43,127,
2,1746,Note_on_c,9,45,127,
2,1746,Note_on_c,9,48,127,
2,1746,Note_on_c,9,51,127,
2,1746,Note_on_c,9,53,127,
2,1746,Note_on_c,9,80,127,
2,1746,Note_on_c,9,81,127,
2,1746,Note_on_c,9,82,127,
2,1747,Note_off_c,9,36,0,
2,1748,Note_on_c,9,36,127,
2,1748,Note_on_c,9,37,127,
2,1748,Note_on_c,9,38,127,
2,1748,Note_on_c,9,39,127,
2,1748,Note_on_c,9,41,127,
2,1748,Note_on_c,9,42,127,
2,1748,Note_on_c,9,43,127,
2,1748,Note_on_c,9,45,127,
2,1748,Note_on_c,9,48,127,
2,1748,Note_on_c,9,51,127,
2,1748,Note_on_c,9,53,127,
2,1748,Note_on_c,9,80,127,
2,1748,Note_on_c,9,81,127,
2,1748,Note_on_c,9,82,127,
2,1749,Note_off_c,9,36,0,
2,1750,Note_on_c,9,36,127,
2,1750,Note_on_c,9,37,127,
2,1750,Note_on_c,9,38,127,
2,1750,Note_on_c,9,39,127,
2,1750,Note_on_c,9,41,127,
2,1750,Note_on_c,9,42,127,
2,1750,Note_on_c,9,43,127,
2,1750,Note_on_c,9,45,127,
2,1750,Note_on_c,9,48,127,
2,1750,Note_on_c,9,51,127,
2,1750,Note_on_c,9,53,127,
2,1750,Note_on_c,9,80,127,
2,1750,Note_on_c,9,81,127,
2,1750,Note_on_c,9,82,127,
2,1751,Note_off_c,9,36,0,
2,1752,Note_on_c,9,36,127,
2,1752,Note_on_c,9,37,127,
2,1752,Note_on_c,9,38,127,
2,1752,Note_on_c,9,39,127,
2,1752,Note_on_c,9,41,127,
2,1752,Note_on_c,9,42,127,
2,1752,Note_on_c,9,43,127,
2,1752,Note_on_c,9,45,127,
2,1752,Note_on_c,9,48,127,
2,1752,Note_on_c,9,51,127,
2,1752,Note_on_c,9,53,127,
2,1752,Note_on_c,9,80,127,
2,1752,Note_on_c,9,81,127,
2,1752,Note_on_c,9,82,127,
2,1753,Note_off_c,9,36,0,
2,1754,Note_on_c,9,36,127,
2,1754,Note_on_c,9,37,127,
2,1754,Note_on_c,9,38,127,
2,1754,Note_on_c,9,39,127,
2,1754,Note_on_c,9,41,127,
2,1754,Note_on_c,9,42,127,
2,1754,Note_on_c,9,43,127,
2,1754,Note_on_c,9,45,127,
2,1754,Note_on_c,9,48,127,
2,1754,Note_on_c,9,51,127,
2,1754,Note_on_c,9,53,127,
2,1754,Note_on_c,9,80,127,
2,1754,Note_on_c,9,81,127,
2,1754,Note_on_c,9,82,127,
2,1755,Note_off_c,9,36,0,
2,1756,Note_on_c,9,36,127,
2,1756,Note_on_c,9,37,127,
2,1756,Note_on_c,9,38,127,
2,1756,Note_on_c,9,39,127,
2,1756,Note_on_c,9,41,127,
2,1756,Note_on_c,9,42,127,
2,1756,Note_on_c,9,43,127,
2,1756,Note_on_c,9,45,127,
2,1756,Note_on_c,9,48,127,
2,1756,Note_on_c,9,51,127,
2,1756,Note_on_c,9,53,127,
2,1756,Note_on_c,9,80,127,
2,1756,Note_on_c,9,81,127,
2,1756,Note_on_c,9,82,127,
2,1757,Note_off_c,9,36,0,
2,1758,Note_on_c,9,36,127,
2,1758,Note_on_c,9,37,127,
2,1758,Note_on_c,9,38,127,
2,1758,Note_on_c,9,39,127,
2,1758,Note_on_c,9,41,127,
2,1758,Note_on_c,9,42,127,
2,1758,Note_on_c,9,43,127,
2,1758,Note_on_c,9,45,127,
2,1758,Note_on_c,9,48,127,
2,1758,Note_on_c,9,51,127,
2,1758,Note_on_c,9,53,127,
2,1758,Note_on_c,9,80,127,
2,1758,Note_on_c,9,81,127,
2,1758,Note_on_c,9,82,127,
2,1759,Note_off_c,9,36,0,
2,1760,Note_on_c,9,36,127,
2,1760,Note_on_c,9,37,127,
2,1760,Note_on_c,9,38,127,
2,1760,Note_on_c,9,39,127,
2,1760,Note_on_c,9,41,127,
2,1760,Note_on_c,9,42,127,
2,1760,Note_on_c,9,43,127,
2,1760,Note_on_c,9,45,127,
2,1760,Note_on_c,9,48,127,
2,1760,Note_on_c,9,51,127,
2,1760,Note_on_c,9,53,127,
2,1760,Note_on_c,9,80,127,
2,1760,Note_on_c,9,81,127,
2,1760,Note_on_c,9,82,127,
2,1761,Note_off_c,9,36,0,
2,1762,Note_on_c,9,36,127,
2,1762,Note_on_c,9,37,127,
2,1762,Note_on_c,9,38,127,
2,1762,Note_on_c,9,39,127,
2,1762,Note_on_c,9,41,127,
2,1762,Note_on_c,9,42,127,
2,1762,Note_on_c,9,43,127,
2,1762,Note_on_c,9,45,127,
2,1762,Note_on_c,9,48,127,
2,1762,Note_on_c,9,51,127,
2,1762,Note_on_c,9,53,127,
2,1762,Note_on_c,9,80,127,
2,1762,Note_on_c,9,81,127,
2,1762,Note_on_c,9,82,127,
2,1763,Note_off_c,9,36,0,
2,1764,Note_on_c,9,36,127,
2,1764,Note_on_c,9,37,127,
2,1764,Note_on_c,9,38,127,
2,1764,Note_on_c,9,39,127,
2,1764,Note_on_c,9,41,127,
2,1764,Note_on_c,9,42,127,
2,1764,Note_on_c,9,43,127,
2,1764,Note_on_c,9,45,127,
2,1764,Note_on_c,9,48,127,
2,1764,Note_on_c,9,51,127,
2,1764,Note_on_c,9,53,127,
2,1764,Note_on_c,9,80,127,
2,1764,Note_on_c,9,81,127,
2,1764,Note_on_c,9,82,127,
2,1765,Note_off_c,9,36,0,
2,1766,Note_on_c,9,36,127,
2,1766,Note_on_c,9,37,127,
2,1766,Note_on_c,9,38,127,
2,1766,Note_on_c,9,39,127,
2,1766,Note_on_c,9,41,127,
2,1766,Note_on_c,9,42,127,
2,1766,Note_on_c,9,43,127,
2,1766,Note_on_c,9,45,127,
2,1766,Note_on_c,9,48,127,
2,1766,Note_on_c,9,51,127,
2,1766,Note_on_c,9,53,127,
2,1766,Note_on_c,9,80,127,
2,1766,Note_on_c,9,81,127,
2,1766,Note_on_c,9,82,127,
2,1767,Note_off_c,9,36,0,
2,1768,Note_on_c,9,36,127,
2,1768,Note_on_c,9,37,127,
2,1768,Note_on_c,9,38,127,
2,1768,Note_on_c,9,39,127,
2,1768,Note_on_c,9,41,127,
2,1768,Note_on_c,9,42,127,
2,1768,Note_on_c,9,43,127,
2,1768,Note_on_c,9,45,127,
2,1768,Note_on_c,9,48,127,
2,1768,Note_on_c,9,51,127,
2,1768,Note_on_c,9,53,127,
2,1768,Note_on_c,9,80,127,
2,1768,Note_on_c,9,81,127,
2,1768,Note_on_c,9,82,127,
2,1769,Note_off_c,9,36,0,
2,1770,Note_on_c,9,36,127,
2,1770,Note_on_c,9,37,127,
2,1770,Note_on_c,9,38,127,
2,1770,Note_on_c,9,39,127,
2,1770,Note_on_c,9,41,127,
2,1770,Note_on_c,9,42,127,
2,1770,Note_on_c,9,43,127,
2,1770,Note_on_c,9,45,127,
2,1770,Note_on_c,9,48,127,
2,1770,Note_on_c,9,51,127,
2,1770,Note_on_c,9,53,127,
2,1770,Note_on_c,9,80,127,
2,1770,Note_on_c,9,81,127,
2,1770,Note_on_c,9,82,127,
2,1771,Note_off_c,9,36,0,
2,1772,Note_on_c,9,36,127,
2,1772,Note_on_c,9,37,127,
2,1772,Note_on_c,9,38,127,
2,1772,Note_on_c,9,39,127,
2,1772,Note_on_c,9,41,127,
2,1772,Note_on_c,9,42,127,
2,1772,Note_on_c,9,43,127,
2,1772,Note_on_c,9,45,127,
2,1772,Note_on_c,9,48,127,
2,1772,Note_on_c,9,51,127,
2,1772,Note_on_c,9,53,127,
2,1772,Note_on_c,9,80,127,
2,1772,Note_on_c,9,81,127,
2,1772,Note_on_c,9,82,127,
2,1773,Note_off_c,9,36,0,
2,1774,Note_on_c,9,36,127,
2,1774,Note_on_c,9,37,127,
2,1774,Note_on_c,9,38,127,
2,1774,Note_on_c,9,39,127,
2,1774,Note_on_c,9,41,127,
2,1774,Note_on_c,9,42,127,
2,1774,Note_on_c,9,43,127,
2,1774,Note_on_c,9,45,127,
2,1774,Note_on_c,9,48,127,
2,1774,Note_on_c,9,51,127,
2,1774,Note_on_c,9,53,127,
2,1774,Note_on_c,9,80,127,
2,1774,Note_on_c,9,81,127,
2,1774,Note_on_c,9,82,127,
2,1775,Note_off_c,9,36,0,
2,1776,Note_on_c,9,36,127,
2,1776,Note_on_c,9,37,127,
2,1776,Note_on_c,9,38,127,
2,1776,Note_on_c,9,39,127,
2,1776,Note_on_c,9,41,127,
2,1776,Note_on_c,9,42,127,
2,1776,Note_on_c,9,43,127,
2,1776,Note_on_c,9,45,127,
2,1776,Note_on_c,9,48,127,
2,1776,Note_on_c,9,51,127,
2,1776,Note_on_c,9,53,127,
2,1776,Note_on_c,9,80,127,
2,1776,Note_on_c,9,81,127,
2,1776,Note_on_c,9,82,127,
2,1777,Note_off_c,9,36,0,
2,1778,Note_on_c,9,36,127,
2,1778,Note_on_c,9,37,127,
2,1778,Note_on_c,9,38,127,
2,1778,Note_on_c,9,39,127,
2,1778,Note_on_c,9,41,127,
2,1778,Note_on_c,9,42,127,
2,1778,Note_on_c,9,43,127,
2,1778,Note_on_c,9,45,127,
2,1778,Note_on_c,9,48,127,
2,1778,Note_on_c,9,51,127,
2,1778,Note_on_c,9,53,127,
2,1778,Note_on_c,9,80,127,
2,1778,Note_on_c,9,81,127,
2,1778,Note_on_c,9,82,127,
2,1779,Note_off_c,9,36,0,
2,1780,Note_on_c,9,36,127,
2,1780,Note_on_c,9,37,127,
2,1780,Note_on_c,9,38,127,
2,1780,Note_on_c,9,39,127,
2,1780,Note_on_c,9,41,127,
2,1780,Note_on_c,9,42,127,
2,1780,Note_on_c,9,43,127,
2,1780,Note_on_c,9,45,127,
2,1780,Note_on_c,9,48,127,
2,1780,Note_on_c,9,51,127,
2,1780,Note_on_c,9,53,127,
2,1780,Note_on_c,9,80,127,
2,1780,Note_on_c,9,81,127,
2,1780,Note_on_c,9,82,127,
2,1781,Note_off_c,9,36,0,
2,1782,Note_on_c,9,36,127,
2,1782,Note_on_c,9,37,127,
2,1782,Note_on_c,9,38,127,
2,1782,Note_on_c,9,39,127,
2,1782,Note_on_c,9,41,127,
2,1782,Note_on_c,9,42,127,
2,1782,Note_on_c,9,43,127,
2,1782,Note_on_c,9,45,127,
2,1782,Note_on_c,9,48,127,
2,1782,Note_on_c,9,51,127,
2,1782,Note_on_c,9,53,127,
2,1782,Note_on_c,9,80,127,
2,1782,Note_on_c,9,81,127,
2,1782,Note_on_c,9,82,127,
2,1783,Note_off_c,9,36,0,
2,1784,Note_on_c,9,36,127,
2,1784,Note_on_c,9,37,127,
2,1784,Note_on_c,9,38,127,
2,1784,Note_on_c,9,39,127,
2,1784,Note_on_c,9,41,127,
2,1784,Note_on_c,9,42,127,
2,1784,Note_on_c,9,43,127,
2,1784,Note_on_c,9,45,127,
2,1784,Note_on_c,9,48,127,
2,1784,Note_on_c,9,51,127,
2,1784,Note_on_c,9,53,127,
2,1784,Note_on_c,9,80,127,
2,1784,Note_on_c,9,81,127,
2,1784,Note_on_c,9,82,127,
2,1785,Note_off_c,9,36,0,
2,1786,Note_on_c,9,36,127,
2,1786,Note_on_c,9,37,127,
2,1786,Note_on_c,9,38,127,
2,1786,Note_on_c,9,39,127,
2,1786,Note_on_c,9,41,127,
2,1786,Note_on_c,9,42,127,
2,1786,Note_on_c,9,43,127,
2,1786,Note_on_c,9,45,127,
2,1786,Note_on_c,9,48,127,
2,1786,Note_on_c,9,51,127,
2,1786,Note_on_c,9,53,127,
2,1786,Note_on_c,9,80,127,
2,1786,Note_on_c,9,81,127,
2,1786,Note_on_c,9,82,127,
2,1787,Note_off_c,9,36,0,
2,1788,Note_on_c,9,36,127,
2,1788,Note_on_c,9,37,127,
2,1788,Note_on_c,9,38,127,
2,1788,Note_on_c,9,39,127,
2,1788,Note_on_c,9,41,127,
2,1788,Note_on_c,9,42,127,
2,1788,Note_on_c,9,43,127,
2,1788,Note_on_c,9,45,127,
2,1788,Note_on_c,9,48,127,
2,1788,Note_on_c,9,51,127,
2,1788,Note_on_c,9,53,127,
2,1788,Note_on_c,9,80,127,
2,1788,Note_on_c,9,81,127,
2,1788,Note_on_c,9,82,127,
2,1789,Note_off_c,9,36,0,
2,1790,Note_on_c,9,36,127,
2,1790,Note_on_c,9,37,127,
2,1790,Note_on_c,9,38,127,
2,1790,Note_on_c,9,39,127,
2,1790,Note_on_c,9,41,127,
2,1790,Note_on_c,9,42,127,
2,1790,Note_on_c,9,43,127,
2,1790,Note_on_c,9,45,127,
2,1790,Note_on_c,9,48,127,
2,1790,Note_on_c,9,51,127,
2,1790,Note_on_c,9,53,127,
2,1790,Note_on_c,9,80,127,
2,1790,Note_on_c,9,81,127,
2,1790,Note_on_c,9,82,127,
2,1791,Note_off_c,9,36,0,
2,1792,Note_on_c,9,36,127,
2,1792,Note_on_c,9,37,127,
2,1792,Note_on_c,9,38,127,
2,1792,Note_on_c,9,39,127,
2,1792,Note_on_c,9,41,127,
2,1792,Note_on_c,9,42,127,
2,1792,Note_on_c,9,43,127,
2,1792,Note_on_c,9,45,127,
2,1792,Note_on_c,9,48,127,
2,1792,Note_on_c,9,51,127,
2,1792,Note_on_c,9,53,127,
2,1792,Note_on_c,9,80,127,
2,1792,Note_on_c,9,81,127,
2,1792,Note_on_c,9,82,127,
2,1793,Note_off_c,9,36,0,
2,1794,Note_on_c,9,36,127,
2,1794,Note_on_c,9,37,127,
2,1794,Note_on_c,9,38,127,
2,1794,Note_on_c,9,39,127,
2,1794,Note_on_c,9,41,127,
2,1794,Note_on_c,9,42,127,
2,1794,Note_on_c,9,43,127,
2,1794,Note_on_c,9,45,127,
2,1794,Note_on_c,9,48,127,
2,1794,Note_on_c,9,51,127,
2,1794,Note_on_c,9,53,127,
2,1794,Note_on_c,9,80,127,
2,1794,Note_on_c,9,81,127,
2,1794,Note_on_c,9,82,127,
2,1795,Note_off_c,9,36,0,
2,1796,Note_on_c,9,36,127,
2,1796,Note_on_c,9,37,127,
2,1796,Note_on_c,9,38,127,
2,1796,Note_on_c,9,39,127,
2,1796,Note_on_c,9,41,127,
2,1796,Note_on_c,9,42,127,
2,1796,Note_on_c,9,43,127,
2,1796,Note_on_c,9,45,127,
2,1796,Note_on_c,9,48,127,
2,1796,Note_on_c,9,51,127,
2,1796,Note_on_c,9,53,127,
2,1796,Note_on_c,9,80,127,
2,1796,Note_on_c,9,81,127,
2,1796,Note_on_c,9,82,127,
2,1797,Note_off_c,9,36,0,
2,1798,Note_on_c,9,36,127,
2,1798,Note_on_c,9,37,127,
2,1798,Note_on_c,9,38,127,
2,1798,Note_on_c,9,39,127,
2,1798,Note_on_c,9,41,127,
2,1798,Note_on_c,9,42,127,
2,1798,Note_on_c,9,43,127,
2,1798,Note_on_c,9,45,127,
2,1798,Note_on_c,9,48,127,
2,1798,Note_on_c,9,51,127,
2,1798,Note_on_c,9,53,127,
2,1798,Note_on_c,9,80,127,
2,1798,Note_on_c,9,81,127,
2,1798,Note_on_c,9,82,127,
2,1799,Note_off_c,9,36,0,
2,1800,Note_on_c,9,36,127,
2,1800,Note_on_c,9,37,127,
2,1800,Note_on_c,9,38,127,
2,1800,Note_on_c,9,39,127,
2,1800,Note_on_c,9,41,127,
2,1800,Note_on_c,9,42,127,
2,1800,Note_on_c,9,43,127,
2,1800,Note_on_c,9,45,127,
2,1800,Note_on_c,9,48,127,
2,1800,Note_on_c,9,51,127,
2,1800,Note_on_c,9,53,127,
2,1800,Note_on_c,9,80,127,
2,1800,Note_on_c,9,81,127,
2,1800,Note_on_c,9,82,127,
2,1801,Note_off_c,9,36,0,
2,1802,Note_on_c,9,36,127,
2,1802,Note_on_c,9,37,127,
2,1802,Note_on_c,9,38,127,
2,1802,Note_on_c,9,39,127,
2,1802,Note_on_c,9,41,127,
2,1802,Note_on_c,9,42,127,
2,1802,Note_on_c,9,43,127,
2,1802,Note_on_c,9,45,127,
2,1802,Note_on_c,9,48,127,
2,1802,Note_on_c,9,51,127,
2,1802,Note_on_c,9,53,127,
2,1802,Note_on_c,9,80,127,
2,1802,Note_on_c,9,81,127,
2,1802,Note_on_c,9,82,127,
2,1803,Note_off_c,9,36,0,
2,1804,Note_on_c,9,36,127,
2,1804,Note_on_c,9,37,127,
2,1804,Note_on_c,9,38,127,
2,1804,Note_on_c,9,39,127,
2,1804,Note_on_c,9,41,127,
2,1804,Note_on_c,9,42,127,
2,1804,Note_on_c,9,43,127,
2,1804,Note_on_c,9,45,127,
2,1804,Note_on_c,9,48,127,
2,1804,Note_on_c,9,51,127,
2,1804,Note_on_c,9,53,127,
2,1804,Note_on_c,9,80,127,
2,1804,Note_on_c,9,81,127,
2,1804,Note_on_c,9,82,127,
2,1805,Note_off_c,9,36,0,
2,1806,Note_on_c,9,36,127,
2,1806,Note_on_c,9,37,127,
2,1806,Note_on_c,9,38,127,
2,1806,Note_on_c,9,39,127,
2,1806,Note_on_c,9,41,127,
2,1806,Note_on_c,9,42,127,
2,1806,Note_on_c,9,43,127,
2,1806,Note_on_c,9,45,127,
2,1806,Note_on_c,9,48,127,
2,1806,Note_on_c,9,51,127,
2,1806,Note_on_c,9,53,127,
2,1806,Note_on_c,9,80,127,
2,1806,Note_on_c,9,81,127,
2,1806,Note_on_c,9,82,127,
2,1807,Note_off_c,9,36,0,
2,1808,Note_on_c,9,36,127,
2,1808,Note_on_c,9,37,127,
2,1808,Note_on_c,9,38,127,
2,1808,Note_on_c,9,39,127,
2,1808,Note_on_c,9,41,127,
2,1808,Note_on_c,9,42,127,
2,1808,Note_on_c,9,43,127,
2,1808,Note_on_c,9,45,127,
2,1808,Note_on_c,9,48,127,
2,1808,Note_on_c,9,51,127,
2,1808,Note_on_c,9,53,127,
2,1808,Note_on_c,9,80,127,
2,1808,Note_on_c,9,81,127,
2,1808,Note_on_c,9,82,127,
2,1809,Note_off_c,9,36,0,
2,1810,Note_on_c,9,36,127,
2,1810,Note_on_c,9,37,127,
2,1810,Note_on_c,9,38,127,
2,1810,Note_on_c,9,39,127,
2,1810,Note_on_c,9,41,127,
2,1810,Note_on_c,9,42,127,
2,1810,Note_on_c,9,43,127,
2,1810,Note_on_c,9,45,127,
2,1810,Note_on_c,9,48,127,
2,1810,Note_on_c,9,51,127,
2,1810,Note_on_c,9,53,127,
2,1810,Note_on_c,9,80,127,
2,1810,Note_on_c,9,81,127,
2,1810,Note_on_c,9,82,127,
2,1811,Note_off_c,9,36,0,
2,1812,Note_on_c,9,36,127,
2,1812,Note_on_c,9,37,127,
2,1812,Note_on_c,9,38,127,
2,1812,Note_on_c,9,39,127,
2,1812,Note_on_c,9,41,127,
2,1812,Note_on_c,9,42,127,
2,1812,Note_on_c,9,43,127,
2,1812,Note_on_c,9,45,127,
2,1812,Note_on_c,9,48,127,
2,1812,Note_on_c,9,51,127,
2,1812,Note_on_c,9,53,127,
2,1812,Note_on_c,9,80,127,
2,1812,Note_on_c,9,81,127,
2,1812,Note_on_c,9,82,127,
2,1813,Note_off_c,9,36,0,
2,1814,Note_on_c,9,36,127,
2,1814,Note_on_c,9,37,127,
2,1814,Note_on_c,9,38,127,
2,1814,Note_on_c,9,39,127,
2,1814,Note_on_c,9,41,127,
2,1814,Note_on_c,9,42,127,
2,1814,Note_on_c,9,43,127,
2,1814,Note_on_c,9,45,127,
2,1814,Note_on_c,9,48,127,
2,1814,Note_on_c,9,51,127,
2,1814,Note_on_c,9,53,127,
2,1814,Note_on_c,9,80,127,
2,1814,Note_on_c,9,81,127,
2,1814,Note_on_c,9,82,127,
2,1815,Note_off_c,9,36,0,
2,1816,Note_on_c,9,36,127,
2,1816,Note_on_c,9,37,127,
2,1816,Note_on_c,9,38,127,
2,1816,Note_on_c,9,39,127,
2,1816,Note_on_c,9,41,127,
2,1816,Note_on_c,9,42,127,
2,1816,Note_on_c,9,43,127,
2,1816,Note_on_c,9,45,127,
2,1816,Note_on_c,9,48,127,
2,1816,Note_on_c,9,51,127,
2,1816,Note_on_c,9,53,127,
2,1816,Note_on_c,9,80,127,
2,1816,Note_on_c,9,81,127,
2,1816,Note_on_c,9,82,127,
2,1817,Note_off_c,9,36,0,
2,1818,Note_on_c,9,36,127,
2,1818,Note_on_c,9,37,127,
2,1818,Note_on_c,9,38,127,
2,1818,Note_on_c,9,39,127,
2,1818,Note_on_c,9,41,127,
2,1818,Note_on_c,9,42,127,
2,1818,Note_on_c,9,43,127,
2,1818,Note_on_c,9,45,127,
2,1818,Note_on_c,9,48,127,
2,1818,Note_on_c,9,51,127,
2,1818,Note_on_c,9,53,127,
2,1818,Note_on_c,9,80,127,
2,1818,Note_on_c,9,81,127,
2,1818,Note_on_c,9,82,127,
2,1819,Note_off_c,9,36,0,
2,1820,Note_on_c,9,36,127,
2,1820,Note_on_c,9,37,127,
2,1820,Note_on_c,9,38,127,
2,1820,Note_on_c,9,39,127,
2,1820,Note_on_c,9,41,127,
2,1820,Note_on_c,9,42,127,
2,1820,Note_on_c,9,43,127,
2,1820,Note_on_c,9,45,127,
2,1820,Note_on_c,9,48,127,
2,1820,Note_on_c,9,51,127,
2,1820,Note_on_c,9,53,127,
2,1820,Note_on_c,9,80,127,
2,1820,Note_on_c,9,81,127,
2,1820,Note_on_c,9,82,127,
2,1821,Note_off_c,9,36,0,
2,1822,Note_on_c,9,36,127,
2,1822,Note_on_c,9,37,127,
2,1822,Note_on_c,9,38,127,
2,1822,Note_on_c,9,39,127,
2,1822,Note_on_c,9,41,127,
2,1822,Note_on_c,9,42,127,
2,1822,Note_on_c,9,43,127,
2,1822,Note_on_c,9,45,127,
2,1822,Note_on_c,9,48,127,
2,1822,Note_on_c,9,51,127,
2,1822,Note_on_c,9,53,127,
2,1822,Note_on_c,9,80,127,
2,1822,Note_on_c,9,81,127,
2,1822,Note_on_c,9,82,127,
2,1823,Note_off_c,9,36,0,
2,1824,Note_on_c,9,36,127,
2,1824,Note_on_c,9,37,127,
2,1824,Note_on_c,9,38,127,
2,1824,Note_on_c,9,39,127,
2,1824,Note_on_c,9,41,127,
2,1824,Note_on_c,9,42,127,
2,1824,Note_on_c,9,43,127,
2,1824,Note_on_c,9,45,127,
2,1824,Note_on_c,9,48,127,
2,1824,Note_on_c,9,51,127,
2,1824,Note_on_c,9,53,127,
2,1824,Note_on_c,9,80,127,
2,1824,Note_on_c,9,81,127,
2,1824,Note_on_c,9,82,127,
2,1825,Note_off_c,9,36,0,
2,1826,Note_on_c,9,36,127,
2,1826,Note_on_c,9,37,127,
2,1826,Note_on_c,9,38,127,
2,1826,Note_on_c,9,39,127,
2,1826,Note_on_c,9,41,127,
2,1826,Note_on_c,9,42,127,
2,1826,Note_on_c,9,43,127,
2,1826,Note_on_c,9,45,127,
2,1826,Note_on_c,9,48,127,
2,1826,Note_on_c,9,51,127,
2,1826,Note_on_c,9,53,127,
2,1826,Note_on_c,9,80,127,
2,1826,Note_on_c,9,81,127,
2,1826,Note_on_c,9,82,127,
2,1827,Note_off_c,9,36,0,
2,1828,Note_on_c,9,36,127,
2,1828,Note_on_c,9,37,127,
2,1828,Note_on_c,9,38,127,
2,1828,Note_on_c,9,39,127,
2,1828,Note_on_c,9,41,127,
2,1828,Note_on_c,9,42,127,
2,1828,Note_on_c,9,43,127,
2,1828,Note_on_c,9,45,127,
2,1828,Note_on_c,9,48,127,
2,1828,Note_on_c,9,51,127,
2,1828,Note_on_c,9,53,127,
2,1828,Note_on_c,9,80,127,
2,1828,Note_on_c,9,81,127,
2,1828,Note_on_c,9,82,127,
2,1829,Note_off_c,9,36,0,
2,1830,Note_on_c,9,36,127,
2,1830,Note_on_c,9,37,127,
2,1830,Note_on_c,9,38,127,
2,1830,Note_on_c,9,39,127,
2,1830,Note_on_c,9,41,127,
2,1830,Note_on_c,9,42,127,
2,1830,Note_on_c,9,43,127,
2,1830,Note_on_c,9,45,127,
2,1830,Note_on_c,9,48,127,
2,1830,Note_on_c,9,51,127,
2,1830,Note_on_c,9,53,127,
2,1830,Note_on_c,9,80,127,
2,1830,Note_on_c,9,81,127,
2,1830,Note_on_c,9,82,127,
2,1831,Note_off_c,9,36,0,
2,1832,Note_on_c,9,36,127,
2,1832,Note_on_c,9,37,127,
2,1832,Note_on_c,9,38,127,
2,1832,Note_on_c,9,39,127,
2,1832,Note_on_c,9,41,127,
2,1832,Note_on_c,9,42,127,
2,1832,Note_on_c,9,43,127,
2,1832,Note_on_c,9,45,127,
2,1832,Note_on_c,9,48,127,
2,1832,Note_on_c,9,51,127,
2,1832,Note_on_c,9,53,127,
2,1832,Note_on_c,9,80,127,
2,1832,Note_on_c,9,81,127,
2,1832,Note_on_c,9,82,127,
2,1833,Note_off_c,9,36,0,
2,1834,Note_on_c,9,36,127,
2,1834,Note_on_c,9,37,127,
2,1834,Note_on_c,9,38,127,
2,1834,Note_on_c,9,39,127,
2,1834,Note_on_c,9,41,127,
2,1834,Note_on_c,9,42,127,
2,1834,Note_on_c,9,43,127,
2,1834,Note_on_c,9,45,127,
2,1834,Note_on_c,9,48,127,
2,1834,Note_on_c,9,51,127,
2,1834,Note_on_c,9,53,127,
2,1834,Note_on_c,9,80,127,
2,1834,Note_on_c,9,81,127,
2,1834,Note_on_c,9,82,127,
2,1835,Note_off_c,9,36,0,
2,1836,Note_on_c,9,36,127,
2,1836,Note_on_c,9,37,127,
2,1836,Note_on_c,9,38,127,
2,1836,Note_on_c,9,39,127,
2,1836,Note_on_c,9,41,127,
2,1836,Note_on_c,9,42,127,
2,1836,Note_on_c,9,43,127,
2,1836,Note_on_c,9,45,127,
2,1836,Note_on_c,9,48,127,
2,1836,Note_on_c,9,51,127,
2,1836,Note_on_c,9,53,127,
2,1836,Note_on_c,9,80,127,
2,1836,Note_on_c,9,81,127,
2,1836,Note_on_c,9,82,127,
2,1837,Note_off_c,9,36,0,
2,1838,Note_on_c,9,36,127,
2,1838,Note_on_c,9,37,127,
2,1838,Note_on_c,9,38,127,
2,1838,Note_on_c,9,39,127,
2,1838,Note_on_c,9,41,127,
2,1838,Note_on_c,9,42,127,
2,1838,Note_on_c,9,43,127,
2,1838,Note_on_c,9,45,127,
2,1838,Note_on_c,9,48,127,
2,1838,Note_on_c,9,51,127,
2,1838,Note_on_c,9,53,127,
2,1838,Note_on_c,9,80,127,
2,1838,Note_on_c,9,81,127,
2,1838,Note_on_c,9,82,127,
2,1839,Note_off_c,9,36,0,
2,1840,Note_on_c,9,36,127,
2,1840,Note_on_c,9,37,127,
2,1840,Note_on_c,9,38,127,
2,1840,Note_on_c,9,39,127,
2,1840,Note_on_c,9,41,127,
2,1840,Note_on_c,9,42,127,
2,1840,Note_on_c,9,43,127,
2,1840,Note_on_c,9,45,127,
2,1840,Note_on_c,9,48,127,
2,1840,Note_on_c,9,51,127,
2,1840,Note_on_c,9,53,127,
2,1840,Note_on_c,9,80,127,
2,1840,Note_on_c,9,81,127,
2,1840,Note_on_c,9,82,127,
2,1841,Note_off_c,9,36,0,
2,1842,Note_on_c,9,36,127,
2,1842,Note_on_c,9,37,127,
2,1842,Note_on_c,9,38,127,
2,1842,Note_on_c,9,39,127,
2,1842,Note_on_c,9,41,127,
2,1842,Note_on_c,9,42,127,
2,1842,Note_on_c,9,43,127,
2,1842,Note_on_c,9,45,127,
2,1842,Note_on_c,9,48,127,
2,1842,Note_on_c,9,51,127,
2,1842,Note_on_c,9,53,127,
2,1842,Note_on_c,9,80,127,
2,1842,Note_on_c,9,81,127,
2,1842,Note_on_c,9,82,127,
2,1843,Note_off_c,9,36,0,
2,1844,Note_on_c,9,36,127,
2,1844,Note_on_c,9,37,127,
2,1844,Note_on_c,9,38,127,
2,1844,Note_on_c,9,39,127,
2,1844,Note_on_c,9,41,127,
2,1844,Note_on_c,9,42,127,
2,1844,Note_on_c,9,43,127,
2,1844,Note_on_c,9,45,127,
2,1844,Note_on_c,9,48,127,
2,1844,Note_on_c,9,51,127,
2,1844,Note_on_c,9,53,127,
2,1844,Note_on_c,9,80,127,
2,1844,Note_on_c,9,81,127,
2,1844,Note_on_c,9,82,127,
2,1845,Note_off_c,9,36,0,
2,1846,Note_on_c,9,36,127,
2,1846,Note_on_c,9,37,127,
2,1846,Note_on_c,9,38,127,
2,1846,Note_on_c,9,39,127,
2,1846,Note_on_c,9,41,127,
2,1846,Note_on_c,9,42,127,
2,1846,Note_on_c,9,43,127,
2,1846,Note_on_c,9,45,127,
2,1846,Note_on_c,9,48,127,
2,1846,Note_on_c,9,51,127,
2,1846,Note_on_c,9,53,127,
2,1846,Note_on_c,9,80,127,
2,1846,Note_on_c,9,81,127,
2,1846,Note_on_c,9,82,127,
2,1847,Note_off_c,9,36,0,
2,1848,Note_on_c,9,36,127,
2,1848,Note_on_c,9,37,127,
2,1848,Note_on_c,9,38,127,
2,1848,Note_on_c,9,39,127,
2,1848,Note_on_c,9,41,127,
2,1848,Note_on_c,9,42,127,
2,1848,Note_on_c,9,43,127,
2,1848,Note_on_c,9,45,127,
2,1848,Note_on_c,9,48,127,
2,1848,Note_on_c,9,51,127,
2,1848,Note_on_c,9,53,127,
2,1848,Note_on_c,9,80,127,
2,1848,Note_on_c,9,81,127,
2,1848,Note_on_c,9,82,127,
2,1849,Note_off_c,9,36,0,
2,1850,Note_on_c,9,36,127,
2,1850,Note_on_c,9,37,127,
2,1850,Note_on_c,9,38,127,
2,1850,Note_on_c,9,39,127,
2,1850,Note_on_c,9,41,127,
2,1850,Note_on_c,9,42,127,
2,1850,Note_on_c,9,43,127,
2,1850,Note_on_c,9,45,127,
2,1850,Note_on_c,9,48,127,
2,1850,Note_on_c,9,51,127,
2,1850,Note_on_c,9,53,127,
2,1850,Note_on_c,9,80,127,
2,1850,Note_on_c,9,81,127,
2,1850,Note_on_c,9,82,127,
2,1851,Note_off_c,9,36,0,
2,1852,Note_on_c,9,36,127,
2,1852,Note_on_c,9,37,127,
2,1852,Note_on_c,9,38,127,
2,1852,Note_on_c,9,39,127,
2,1852,Note_on_c,9,41,127,
2,1852,Note_on_c,9,42,127,
2,1852,Note_on_c,9,43,127,
2,1852,Note_on_c,9,45,127,
2,1852,Note_on_c,9,48,127,
2,1852,Note_on_c,9,51,127,
2,1852,Note_on_c,9,53,127,
2,1852,Note_on_c,9,80,127,
2,1852,Note_on_c,9,81,127,
2,1852,Note_on_c,9,82,127,
2,1853,Note_off_c,9,36,0,
2,1854,Note_on_c,9,36,127,
2,1854,Note_on_c,9,37,127,
2,1854,Note_on_c,9,38,127,
2,1854,Note_on_c,9,39,127,
2,1854,Note_on_c,9,41,127,
2,1854,Note_on_c,9,42,127,
2,1854,Note_on_c,9,43,127,
2,1854,Note_on_c,9,45,127,
2,1854,Note_on_c,9,48,127,
2,1854,Note_on_c,9,51,127,
2,1854,Note_on_c,9,53,127,
2,1854,Note_on_c,9,80,127,
2,1854,Note_on_c,9,81,127,
2,1854,Note_on_c,9,82,127,
2,1855,Note_off_c,9,36,0,
2,1856,Note_on_c,9,36,127,
2,1856,Note_on_c,9,37,127,
2,1856,Note_on_c,9,38,127,
2,1856,Note_on_c,9,39,127,
2,1856,Note_on_c,9,41,127,
2,1856,Note_on_c,9,42,127,
2,1856,Note_on_c,9,43,127,
2,1856,Note_on_c,9,45,127,
2,1856,Note_on_c,9,48,127,
2,1856,Note_on_c,9,51,127,
2,1856,Note_on_c,9,53,127,
2,1856,Note_on_c,9,80,127,
2,1856,Note_on_c,9,81,127,
2,1856,Note_on_c,9,82,127,
2,1857,Note_off_c,9,36,0,
2,1858,Note_on_c,9,36,127,
2,1858,Note_on_c,9,37,127,
2,1858,Note_on_c,9,38,127,
2,1858,Note_on_c,9,39,127,
2,1858,Note_on_c,9,41,127,
2,1858,Note_on_c,9,42,127,
2,1858,Note_on_c,9,43,127,
2,1858,Note_on_c,9,45,127,
2,1858,Note_on_c,9,48,127,
2,1858,Note_on_c,9,51,127,
2,1858,Note_on_c,9,53,127,
2,1858,Note_on_c,9,80,127,
2,1858,Note_on_c,9,81,127,
2,1858,Note_on_c,9,82,127,
2,1859,Note_off_c,9,36,0,
2,1860,Note_on_c,9,36,127,
2,1860,Note_on_c,9,37,127,
2,1860,Note_on_c,9,38,127,
2,1860,Note_on_c,9,39,127,
2,1860,Note_on_c,9,41,127,
2,1860,Note_on_c,9,42,127,
2,1860,Note_on_c,9,43,127,
2,1860,Note_on_c,9,45,127,
2,1860,Note_on_c,9,48,127,
2,1860,Note_on_c,9,51,127,
2,1860,Note_on_c,9,53,127,
2,1860,Note_on_c,9,80,127,
2,1860,Note_on_c,9,81,127,
2,1860,Note_on_c,9,82,127,
2,1861,Note_off_c,9,36,0,
2,1862,Note_on_c,9,36,127,
2,1862,Note_on_c,9,37,127,
2,1862,Note_on_c,9,38,127,
2,1862,Note_on_c,9,39,127,
2,1862,Note_on_c,9,41,127,
2,1862,Note_on_c,9,42,127,
2,1862,Note_on_c,9,43,127,
2,1862,Note_on_c,9,45,127,
2,1862,Note_on_c,9,48,127,
2,1862,Note_on_c,9,51,127,
2,1862,Note_on_c,9,53,127,
2,1862,Note_on_c,9,80,127,
2,1862,Note_on_c,9,81,127,
2,1862,Note_on_c,9,82,127,
2,1863,Note_off_c,9,36,0,
2,1864,Note_on_c,9,36,127,
2,1864,Note_on_c,9,37,127,
2,1864,Note_on_c,9,38,127,
2,1864,Note_on_c,9,39,127,
2,1864,Note_on_c,9,41,127,
2,1864,Note_on_c,9,42,127,
2,1864,Note_on_c,9,43,127,
2,1864,Note_on_c,9,45,127,
2,1864,Note_on_c,9,48,127,
2,1864,Note_on_c,9,51,127,
2,1864,Note_on_c,9,53,127,
2,1864,Note_on_c,9,80,127,
2,1864,Note_on_c,9,81,127,
2,1864,Note_on_c,9,82,127,
2,1865,Note_off_c,9,36,0,
2,1866,Note_on_c,9,36,127,
2,1866,Note_on_c,9,37,127,
2,1866,Note_on_c,9,38,127,
2,1866,Note_on_c,9,39,127,
2,1866,Note_on_c,9,41,127,
2,1866,Note_on_c,9,42,127,
2,1866,Note_on_c,9,43,127,
2,1866,Note_on_c,9,45,127,
2,1866,Note_on_c,9,48,127,
2,1866,Note_on_c,9,51,127,
2,1866,Note_on_c,9,53,127,
2,1866,Note_on_c,9,80,127,
2,1866,Note_on_c,9,81,127,
2,1866,Note_on_c,9,82,127,
2,1867,Note_off_c,9,36,0,
2,1868,Note_on_c,9,36,127,
2,1868,Note_on_c,9,37,127,
2,1868,Note_on_c,9,38,127,
2,1868,Note_on_c,9,39,127,
2,1868,Note_on_c,9,41,127,
2,1868,Note_on_c,9,42,127,
2,1868,Note_on_c,9,43,127,
2,1868,Note_on_c,9,45,127,
2,1868,Note_on_c,9,48,127,
2,1868,Note_on_c,9,51,127,
2,1868,Note_on_c,9,53,127,
2,1868,Note_on_c,9,80,127,
2,1868,Note_on_c,9,81,127,
2,1868,Note_on_c,9,82,127,
2,1869,Note_off_c,9,36,0,
2,1870,Note_on_c,9,36,127,
2,1870,Note_on_c,9,37,127,
2,1870,Note_on_c,9,38,127,
2,1870,Note_on_c,9,39,127,
2,1870,Note_on_c,9,41,127,
2,1870,Note_on_c,9,42,127,
2,1870,Note_on_c,9,43,127,
2,1870,Note_on_c,9,45,127,
2,1870,Note_on_c,9,48,127,
2,1870,Note_on_c,9,51,127,
2,1870,Note_on_c,9,53,127,
2,1870,Note_on_c,9,80,127,
2,1870,Note_on_c,9,81,127,
2,1870,Note_on_c,9,82,127,
2,1871,Note_off_c,9,36,0,
2,1872,Note_on_c,9,36,127,
2,1872,Note_on_c,9,37,127,
2,1872,Note_on_c,9,38,127,
2,1872,Note_on_c,9,39,127,
2,1872,Note_on_c,9,41,127,
2,1872,Note_on_c,9,42,127,
2,1872,Note_on_c,9,43,127,
2,1872,Note_on_c,9,45,127,
2,1872,Note_on_c,9,48,127,
2,1872,Note_on_c,9,51,127,
2,1872,Note_on_c,9,53,127,
2,1872,Note_on_c,9,80,127,
2,1872,Note_on_c,9,81,127,
2,1872,Note_on_c,9,82,127,
2,1873,Note_off_c,9,36,0,
2,1874,Note_on_c,9,36,127,
2,1874,Note_on_c,9,37,127,
2,1874,Note_on_c,9,38,127,
2,1874,Note_on_c,9,39,127,
2,1874,Note_on_c,9,41,127,
2,1874,Note_on_c,9,42,127,
2,1874,Note_on_c,9,43,127,
2,1874,Note_on_c,9,45,127,
2,1874,Note_on_c,9,48,127,
2,1874,Note_on_c,9,51,127,
2,1874,Note_on_c,9,53,127,
2,1874,Note_on_c,9,80,127,
2,1874,Note_on_c,9,81,127,
2,1874,Note_on_c,9,82,127,
2,1875,Note_off_c,9,36,0,
2,1876,Note_on_c,9,36,127,
2,1876,Note_on_c,9,37,127,
2,1876,Note_on_c,9,38,127,
2,1876,Note_on_c,9,39,127,
2,1876,Note_on_c,9,41,127,
2,1876,Note_on_c,9,42,127,
2,1876,Note_on_c,9,43,127,
2,1876,Note_on_c,9,45,127,
2,1876,Note_on_c,9,48,127,
2,1876,Note_on_c,9,51,127,
2,1876,Note_on_c,9,53,127,
2,1876,Note_on_c,9,80,127,
2,1876,Note_on_c,9,81,127,
2,1876,Note_on_c,9,82,127,
2,1877,Note_off_c,9,36,0,
2,1878,Note_on_c,9,36,127,
2,1878,Note_on_c,9,37,127,
2,1878,Note_on_c,9,38,127,
2,1878,Note_on_c,9,39,127,
2,1878,Note_on_c,9,41,127,
2,1878,Note_on_c,9,42,127,
2,1878,Note_on_c,9,43,127,
2,1878,Note_on_c,9,45,127,
2,1878,Note_on_c,9,48,127,
2,1878,Note_on_c,9,51,127,
2,1878,Note_on_c,9,53,127,
2,1878,Note_on_c,9,80,127,
2,1878,Note_on_c,9,81,127,
2,1878,Note_on_c,9,82,127,
2,1879,Note_off_c,9,36,0,
2,1880,Note_on_c,9,36,127,
2,1880,Note_on_c,9,37,127,
2,1880,Note_on_c,9,38,127,
2,1880,Note_on_c,9,39,127,
2,1880,Note_on_c,9,41,127,
2,1880,Note_on_c,9,42,127,
2,1880,Note_on_c,9,43,127,
2,1880,Note_on_c,9,45,127,
2,1880,Note_on_c,9,48,127,
2,1880,Note_on_c,9,51,127,
2,1880,Note_on_c,9,53,127,
2,1880,Note_on_c,9,80,127,
2,1880,Note_on_c,9,81,127,
2,1880,Note_on_c,9,82,127,
2,1881,Note_off_c,9,36,0,
2,1882,Note_on_c,9,36,127,
2,1882,Note_on_c,9,37,127,
2,1882,Note_on_c,9,38,127,
2,1882,Note_on_c,9,39,127,
2,1882,Note_on_c,9,41,127,
2,1882,Note_on_c,9,42,127,
2,1882,Note_on_c,9,43,127,
2,1882,Note_on_c,9,45,127,
2,1882,Note_on_c,9,48,127,
2,1882,Note_on_c,9,51,127,
2,1882,Note_on_c,9,53,127,
2,1882,Note_on_c,9,80,127,
2,1882,Note_on_c,9,81,127,
2,1882,Note_on_c,9,82,127,
2,1883,Note_off_c,9,36,0,
2,1884,Note_on_c,9,36,127,
2,1884,Note_on_c,9,37,127,
2,1884,Note_on_c,9,38,127,
2,1884,Note_on_c,9,39,127,
2,1884,Note_on_c,9,41,127,
2,1884,Note_on_c,9,42,127,
2,1884,Note_on_c,9,43,127,
2,1884,Note_on_c,9,45,127,
2,1884,Note_on_c,9,48,127,
2,1884,Note_on_c,9,51,127,
2,1884,Note_on_c,9,53,127,
2,1884,Note_on_c,9,80,127,
2,1884,Note_on_c,9,81,127,
2,1884,Note_on_c,9,82,127,
2,1885,Note_off_c,9,36,0,
2,1886,Note_on_c,9,36,127,
2,1886,Note_on_c,9,37,127,
2,1886,Note_on_c,9,38,127,
2,1886,Note_on_c,9,39,127,
2,1886,Note_on_c,9,41,127,
2,1886,Note_on_c,9,42,127,
2,1886,Note_on_c,9,43,127,
2,1886,Note_on_c,9,45,127,
2,1886,Note_on_c,9,48,127,
2,1886,Note_on_c,9,51,127,
2,1886,Note_on_c,9,53,127,
2,1886,Note_on_c,9,80,127,
2,1886,Note_on_c,9,81,127,
2,1886,Note_on_c,9,82,127,
2,1887,Note_off_c,9,36,0,
2,1888,Note_on_c,9,36,127,
2,1888,Note_on_c,9,37,127,
2,1888,Note_on_c,9,38,127,
2,1888,Note_on_c,9,39,127,
2,1888,Note_on_c,9,41,127,
2,1888,Note_on_c,9,42,127,
2,1888,Note_on_c,9,43,127,
2,1888,Note_on_c,9,45,127,
2,1888,Note_on_c,9,48,127,
2,1888,Note_on_c,9,51,127,
2,1888,Note_on_c,9,53,127,
2,1888,Note_on_c,9,80,127,
2,1888,Note_on_c,9,81,127,
2,1888,Note_on_c,9,82,127,
2,1889,Note_off_c,9,36,0,
2,1890,Note_on_c,9,36,127,
2,1890,Note_on_c,9,37,127,
2,1890,Note_on_c,9,38,127,
2,1890,Note_on_c,9,39,127,
2,1890,Note_on_c,9,41,127,
2,1890,Note_on_c,9,42,127,
2,1890,Note_on_c,9,43,127,
2,1890,Note_on_c,9,45,127,
2,1890,Note_on_c,9,48,127,
2,1890,Note_on_c,9,51,127,
2,1890,Note_on_c,9,53,127,
2,1890,Note_on_c,9,80,127,
2,1890,Note_on_c,9,81,127,
2,1890,Note_on_c,9,82,127,
2,1891,Note_off_c,9,36,0,
2,1892,Note_on_c,9,36,127,
2,1892,Note_on_c,9,37,127,
2,1892,Note_on_c,9,38,127,
2,1892,Note_on_c,9,39,127,
2,1892,Note_on_c,9,41,127,
2,1892,Note_on_c,9,42,127,
2,1892,Note_on_c,9,43,127,
2,1892,Note_on_c,9,45,127,
2,1892,Note_on_c,9,48,127,
2,1892,Note_on_c,9,51,127,
2,1892,Note_on_c,9,53,127,
2,1892,Note_on_c,9,80,127,
2,1892,Note_on_c,9,81,127,
2,1892,Note_on_c,9,82,127,
2,1893,Note_off_c,9,36,0,
2,1894,Note_on_c,9,36,127,
2,1894,Note_on_c,9,37,127,
2,1894,Note_on_c,9,38,127,
2,1894,Note_on_c,9,39,127,
2,1894,Note_on_c,9,41,127,
2,1894,Note_on_c,9,42,127,
2,1894,Note_on_c,9,43,127,
2,1894,Note_on_c,9,45,127,
2,1894,Note_on_c,9,48,127,
2,1894,Note_on_c,9,51,127,
2,1894,Note_on_c,9,53,127,
2,1894,Note_on_c,9,80,127,
2,1894,Note_on_c,9,81,127,
2,1894,Note_on_c,9,82,127,
2,1895,Note_off_c,9,36,0,
2,1896,Note_on_c,9,36,127,
2,1896,Note_on_c,9,37,127,
2,1896,Note_on_c,9,38,127,
2,1896,Note_on_c,9,39,127,
2,1896,Note_on_c,9,41,127,
2,1896,Note_on_c,9,42,127,
2,1896,Note_on_c,9,43,127,
2,1896,Note_on_c,9,45,127,
2,1896,Note_on_c,9,48,127,
2,1896,Note_on_c,9,51,127,
2,1896,Note_on_c,9,53,127,
2,1896,Note_on_c,9,80,127,
2,1896,Note_on_c,9,81,127,
2,1896,Note_on_c,9,82,127,
2,1897,Note_off_c,9,36,0,
2,1898,Note_on_c,9,36,127,
2,1898,Note_on_c,9,37,127,
2,1898,Note_on_c,9,38,127,
2,1898,Note_on_c,9,39,127,
2,1898,Note_on_c,9,41,127,
2,1898,Note_on_c,9,42,127,
2,1898,Note_on_c,9,43,127,
2,1898,Note_on_c,9,45,127,
2,1898,Note_on_c,9,48,127,
2,1898,Note_on_c,9,51,127,
2,1898,Note_on_c,9,53,127,
2,1898,Note_on_c,9,80,127,
2,1898,Note_on_c,9,81,127,
2,1898,Note_on_c,9,82,127,
2,1899,Note_off_c,9,36,0,
2,1900,Note_on_c,9,36,127,
2,1900,Note_on_c,9,37,127,
2,1900,Note_on_c,9,38,127,
2,1900,Note_on_c,9,39,127,
2,1900,Note_on_c,9,41,127,
2,1900,Note_on_c,9,42,127,
2,1900,Note_on_c,9,43,127,
2,1900,Note_on_c,9,45,127,
2,1900,Note_on_c,9,48,127,
2,1900,Note_on_c,9,51,127,
2,1900,Note_on_c,9,53,127,
2,1900,Note_on_c,9,80,127,
2,1900,Note_on_c,9,81,127,
2,1900,Note_on_c,9,82,127,
2,1901,Note_off_c,9,36,0,
2,1902,Note_on_c,9,36,127,
2,1902,Note_on_c,9,37,127,
2,1902,Note_on_c,9,38,127,
2,1902,Note_on_c,9,39,127,
2,1902,Note_on_c,9,41,127,
2,1902,Note_on_c,9,42,127,
2,1902,Note_on_c,9,43,127,
2,1902,Note_on_c,9,45,127,
2,1902,Note_on_c,9,48,127,
2,1902,Note_on_c,9,51,127,
2,1902,Note_on_c,9,53,127,
2,1902,Note_on_c,9,80,127,
2,1902,Note_on_c,9,81,127,
2,1902,Note_on_c,9,82,127,
2,1903,Note_off_c,9,36,0,
2,1904,Note_on_c,9,36,127,
2,1904,Note_on_c,9,37,127,
2,1904,Note_on_c,9,38,127,
2,1904,Note_on_c,9,39,127,
2,1904,Note_on_c,9,41,127,
2,1904,Note_on_c,9,42,127,
2,1904,Note_on_c,9,43,127,
2,1904,Note_on_c,9,45,127,
2,1904,Note_on_c,9,48,127,
2,1904,Note_on_c,9,51,127,
2,1904,Note_on_c,9,53,127,
2,1904,Note_on_c,9,80,127,
2,1904,Note_on_c,9,81,127,
2,1904,Note_on_c,9,82,127,
2,1905,Note_off_c,9,36,0,
2,1906,Note_on_c,9,36,127,
2,1906,Note_on_c,9,37,127,
2,1906,Note_on_c,9,38,127,
2,1906,Note_on_c,9,39,127,
2,1906,Note_on_c,9,41,127,
2,1906,Note_on_c,9,42,127,
2,1906,Note_on_c,9,43,127,
2,1906,Note_on_c,9,45,127,
2,1906,Note_on_c,9,48,127,
2,1906,Note_on_c,9,51,127,
2,1906,Note_on_c,9,53,127,
2,1906,Note_on_c,9,80,127,
2,1906,Note_on_c,9,81,127,
2,1906,Note_on_c,9,82,127,
2,1907,Note_off_c,9,36,0,
2,1908,Note_on_c,9,36,127,
2,1908,Note_on_c,9,37,127,
2,1908,Note_on_c,9,38,127,
2,1908,Note_on_c,9,39,127,
2,1908,Note_on_c,9,41,127,
2,1908,Note_on_c,9,42,127,
2,1908,Note_on_c,9,43,127,
2,1908,Note_on_c,9,45,127,
2,1908,Note_on_c,9,48,127,
2,1908,Note_on_c,9,51,127,
2,1908,Note_on_c,9,53,127,
2,1908,Note_on_c,9,80,127,
2,1908,Note_on_c,9,81,127,
2,1908,Note_on_c,9,82,127,
2,1909,Note_off_c,9,36,0,
2,1910,Note_on_c,9,36,127,
2,1910,Note_on_c,9,37,127,
2,1910,Note_on_c,9,38,127,
2,1910,Note_on_c,9,39,127,
2,1910,Note_on_c,9,41,127,
2,1910,Note_on_c,9,42,127,
2,1910,Note_on_c,9,43,127,
2,1910,Note_on_c,9,45,127,
2,1910,Note_on_c,9,48,127,
2,1910,Note_on_c,9,51,127,
2,1910,Note_on_c,9,53,127,
2,1910,Note_on_c,9,80,127,
2,1910,Note_on_c,9,81,127,
2,1910,Note_on_c,9,82,127,
2,1911,Note_off_c,9,36,0,
2,1912,Note_on_c,9,36,127,
2,1912,Note_on_c,9,37,127,
2,1912,Note_on_c,9,38,127,
2,1912,Note_on_c,9,39,127,
2,1912,Note_on_c,9,41,127,
2,1912,Note_on_c,9,42,127,
2,1912,Note_on_c,9,43,127,
2,1912,Note_on_c,9,45,127,
2,1912,Note_on_c,9,48,127,
2,1912,Note_on_c,9,51,127,
2,1912,Note_on_c,9,53,127,
2,1912,Note_on_c,9,80,127,
2,1912,Note_on_c,9,81,127,
2,1912,Note_on_c,9,82,127,
2,1913,Note_off_c,9,36,0,
2,1914,Note_on_c,9,36,127,
2,1914,Note_on_c,9,37,127,
2,1914,Note_on_c,9,38,127,
2,1914,Note_on_c,9,39,127,
2,1914,Note_on_c,9,41,127,
2,1914,Note_on_c,9,42,127,
2,1914,Note_on_c,9,43,127,
2,1914,Note_on_c,9,45,127,
2,1914,Note_on_c,9,48,127,
2,1914,Note_on_c,9,51,127,
2,1914,Note_on_c,9,53,127,
2,1914,Note_on_c,9,80,127,
2,1914,Note_on_c,9,81,127,
2,1914,Note_on_c,9,82,127,
2,1915,Note_off_c,9,36,0,
2,1916,Note_on_c,9,36,127,
2,1916,Note_on_c,9,37,127,
2,1916,Note_on_c,9,38,127,
2,1916,Note_on_c,9,39,127,
2,1916,Note_on_c,9,41,127,
2,1916,Note_on_c,9,42,127,
2,1916,Note_on_c,9,43,127,
2,1916,Note_on_c,9,45,127,
2,1916,Note_on_c,9,48,127,
2,1916,Note_on_c,9,51,127,
2,1916,Note_on_c,9,53,127,
2,1916,Note_on_c,9,80,127,
2,1916,Note_on_c,9,81,127,
2,1916,Note_on_c,9,82,127,
2,1917,Note_off_c,9,36,0,
2,1918,Note_on_c,9,36,127,
2,1918,Note_on_c,9,37,127,
2,1918,Note_on_c,9,38,127,
2,1918,Note_on_c,9,39,127,
2,1918,Note_on_c,9,41,127,
2,1918,Note_on_c,9,42,127,
2,1918,Note_on_c,9,43,127,
2,1918,Note_on_c,9,45,127,
2,1918,Note_on_c,9,48,127,
2,1918,Note_on_c,9,51,127,
2,1918,Note_on_c,9,53,127,
2,1918,Note_on_c,9,80,127,
2,1918,Note_on_c,9,81,127,
2,1918,Note_on_c,9,82,127,
2,1919,Note_off_c,9,36,0,
2,1920,Note_on_c,9,36,127,
2,1920,Note_on_c,9,37,127,
2,1920,Note_on_c,9,38,127,
2,1920,Note_on_c,9,39,127,
2,1920,Note_on_c,9,41,127,
2,1920,Note_on_c,9,42,127,
2,1920,Note_on_c,9,43,127,
2,1920,Note_on_c,9,45,127,
2,1920,Note_on_c,9,48,127,
2,1920,Note_on_c,9,51,127,
2,1920,Note_on_c,9,53,127,
2,1920,Note_on_c,9,80,127,
2,1920,Note_on_c,9,81,127,
2,1920,Note_on_c,9,82,127,
2,1921,Note_off_c,9,36,0,
2,1922,Note_on_c,9,36,127,
2,1922,Note_on_c,9,37,127,
2,1922,Note_on_c,9,38,127,
2,1922,Note_on_c,9,39,127,
2,1922,Note_on_c,9,41,127,
2,1922,Note_on_c,9,42,127,
2,1922,Note_on_c,9,43,127,
2,1922,Note_on_c,9,45,127,
2,1922,Note_on_c,9,48,127,
2,1922,Note_on_c,9,51,127,
2,1922,Note_on_c,9,53,127,
2,1922,Note_on_c,9,80,127,
2,1922,Note_on_c,9,81,127,
2,1922,Note_on_c,9,82,127,
2,1923,Note_off_c,9,36,0,
2,1924,Note_on_c,9,36,127,
2,1924,Note_on_c,9,37,127,
2,1924,Note_on_c,9,38,127,
2,1924,Note_on_c,9,39,127,
2,1924,Note_on_c,9,41,127,
2,1924,Note_on_c,9,42,127,
2,1924,Note_on_c,9,43,127,
2,1924,Note_on_c,9,45,127,
2,1924,Note_on_c,9,48,127,
2,1924,Note_on_c,9,51,127,
2,1924,Note_on_c,9,53,127,
2,1924,Note_on_c,9,80,127,
2,1924,Note_on_c,9,81,127,
2,1924,Note_on_c,9,82,127,
2,1925,Note_off_c,9,36,0,
2,1926,Note_on_c,9,36,127,
2,1926,Note_on_c,9,37,127,
2,1926,Note_on_c,9,38,127,
2,1926,Note_on_c,9,39,127,
2,1926,Note_on_c,9,41,127,
2,1926,Note_on_c,9,42,127,
2,1926,Note_on_c,9,43,127,
2,1926,Note_on_c,9,45,127,
2,1926,Note_on_c,9,48,127,
2,1926,Note_on_c,9,51,127,
2,1926,Note_on_c,9,53,127,
2,1926,Note_on_c,9,80,127,
2,1926,Note_on_c,9,81,127,
2,1926,Note_on_c,9,82,127,
2,1927,Note_off_c,9,36,0,
2,1928,Note_on_c,9,36,127,
2,1928,Note_on_c,9,37,127,
2,1928,Note_on_c,9,38,127,
2,1928,Note_on_c,9,39,127,
2,1928,Note_on_c,9,41,127,
2,1928,Note_on_c,9,42,127,
2,1928,Note_on_c,9,43,127,
2,1928,Note_on_c,9,45,127,
2,1928,Note_on_c,9,48,127,
2,1928,Note_on_c,9,51,127,
2,1928,Note_on_c,9,53,127,
2,1928,Note_on_c,9,80,127,
2,1928,Note_on_c,9,81,127,
2,1928,Note_on_c,9,82,127,
2,1929,Note_off_c,9,36,0,
2,1930,Note_on_c,9,36,127,
2,1930,Note_on_c,9,37,127,
2,1930,Note_on_c,9,38,127,
2,1930,Note_on_c,9,39,127,
2,1930,Note_on_c,9,41,127,
2,1930,Note_on_c,9,42,127,
2,1930,Note_on_c,9,43,127,
2,1930,Note_on_c,9,45,127,
2,1930,Note_on_c,9,48,127,
2,1930,Note_on_c,9,51,127,
2,1930,Note_on_c,9,53,127,
2,1930,Note_on_c,9,80,127,
2,1930,Note_on_c,9,81,127,
2,1930,Note_on_c,9,82,127,
2,1931,Note_off_c,9,36,0,
2,1932,Note_on_c,9,36,127,
2,1932,Note_on_c,9,37,127,
2,1932,Note_on_c,9,38,127,
2,1932,Note_on_c,9,39,127,
2,1932,Note_on_c,9,41,127,
2,1932,Note_on_c,9,42,127,
2,1932,Note_on_c,9,43,127,
2,1932,Note_on_c,9,45,127,
2,1932,Note_on_c,9,48,127,
2,1932,Note_on_c,9,51,127,
2,1932,Note_on_c,9,53,127,
2,1932,Note_on_c,9,80,127,
2,1932,Note_on_c,9,81,127,
2,1932,Note_on_c,9,82,127,
2,1933,Note_off_c,9,36,0,
2,1934,Note_on_c,9,36,127,
2,1934,Note_on_c,9,37,127,
2,1934,Note_on_c,9,38,127,
2,1934,Note_on_c,9,39,127,
2,1934,Note_on_c,9,41,127,
2,1934,Note_on_c,9,42,127,
2,1934,Note_on_c,9,43,127,
2,1934,Note_on_c,9,45,127,
2,1934,Note_on_c,9,48,127,
2,1934,Note_on_c,9,51,127,
2,1934,Note_on_c,9,53,127,
2,1934,Note_on_c,9,80,127,
2,1934,Note_on_c,9,81,127,
2,1934,Note_on_c,9,82,127,
2,1935,Note_off_c,9,36,0,
2,1936,Note_on_c,9,36,127,
2,1936,Note_on_c,9,37,127,
2,1936,Note_on_c,9,38,127,
2,1936,Note_on_c,9,39,127,
2,1936,Note_on_c,9,41,127,
2,1936,Note_on_c,9,42,127,
2,1936,Note_on_c,9,43,127,
2,1936,Note_on_c,9,45,127,
2,1936,Note_on_c,9,48,127,
2,1936,Note_on_c,9,51,127,
2,1936,Note_on_c,9,53,127,
2,1936,Note_on_c,9,80,127,
2,1936,Note_on_c,9,81,127,
2,1936,Note_on_c,9,82,127,
2,1937,Note_off_c,9,36,0,
2,1938,Note_on_c,9,36,127,
2,1938,Note_on_c,9,37,127,
2,1938,Note_on_c,9,38,127,
2,1938,Note_on_c,9,39,127,
2,1938,Note_on_c,9,41,127,
2,1938,Note_on_c,9,42,127,
2,1938,Note_on_c,9,43,127,
2,1938,Note_on_c,9,45,127,
2,1938,Note_on_c,9,48,127,
2,1938,Note_on_c,9,51,127,
2,1938,Note_on_c,9,53,127,
2,1938,Note_on_c,9,80,127,
2,1938,Note_on_c,9,81,127,
2,1938,Note_on_c,9,82,127,
2,1939,Note_off_c,9,36,0,
2,1940,Note_on_c,9,36,127,
2,1940,Note_on_c,9,37,127,
2,1940,Note_on_c,9,38,127,
2,1940,Note_on_c,9,39,127,
2,1940,Note_on_c,9,41,127,
2,1940,Note_on_c,9,42,127,
2,1940,Note_on_c,9,43,127,
2,1940,Note_on_c,9,45,127,
2,1940,Note_on_c,9,48,127,
2,1940,Note_on_c,9,51,127,
2,1940,Note_on_c,9,53,127,
2,1940,Note_on_c,9,80,127,
2,1940,Note_on_c,9,81,127,
2,1940,Note_on_c,9,82,127,
2,1941,Note_off_c,9,36,0,
2,1942,Note_on_c,9,36,127,
2,1942,Note_on_c,9,37,127,
2,1942,Note_on_c,9,38,127,
2,1942,Note_on_c,9,39,127,
2,1942,Note_on_c,9,41,127,
2,1942,Note_on_c,9,42,127,
2,1942,Note_on_c,9,43,127,
2,1942,Note_on_c,9,45,127,
2,1942,Note_on_c,9,48,127,
2,1942,Note_on_c,9,51,127,
2,1942,Note_on_c,9,53,127,
2,1942,Note_on_c,9,80,127,
2,1942,Note_on_c,9,81,127,
2,1942,Note_on_c,9,82,127,
2,1943,Note_off_c,9,36,0,
2,1944,Note_on_c,9,36,127,
2,1944,Note_on_c,9,37,127,
2,1944,Note_on_c,9,38,127,
2,1944,Note_on_c,9,39,127,
2,1944,Note_on_c,9,41,127,
2,1944,Note_on_c,9,42,127,
2,1944,Note_on_c,9,43,127,
2,1944,Note_on_c,9,45,127,
2,1944,Note_on_c,9,48,127,
2,1944,Note_on_c,9,51,127,
2,1944,Note_on_c,9,53,127,
2,1944,Note_on_c,9,80,127,
2,1944,Note_on_c,9,81,127,
2,1944,Note_on_c,9,82,127,
2,1945,Note_off_c,9,36,0,
2,1946,Note_on_c,9,36,127,
2,1946,Note_on_c,9,37,127,
2,1946,Note_on_c,9,38,127,
2,1946,Note_on_c,9,39,127,
2,1946,Note_on_c,9,41,127,
2,1946,Note_on_c,9,42,127,
2,1946,Note_on_c,9,43,127,
2,1946,Note_on_c,9,45,127,
2,1946,Note_on_c,9,48,127,
2,1946,Note_on_c,9,51,127,
2,1946,Note_on_c,9,53,127,
2,1946,Note_on_c,9,80,127,
2,1946,Note_on_c,9,81,127,
2,1946,Note_on_c,9,82,127,
2,1947,Note_off_c,9,36,0,
2,1948,Note_on_c,9,36,127,
2,1948,Note_on_c,9,37,127,
2,1948,Note_on_c,9,38,127,
2,1948,Note_on_c,9,39,127,
2,1948,Note_on_c,9,41,127,
2,1948,Note_on_c,9,42,127,
2,1948,Note_on_c,9,43,127,
2,1948,Note_on_c,9,45,127,
2,1948,Note_on_c,9,48,127,
2,1948,Note_on_c,9,51,127,
2,1948,Note_on_c,9,53,127,
2,1948,Note_on_c,9,80,127,
2,1948,Note_on_c,9,81,127,
2,1948,Note_on_c,9,82,127,
2,1949,Note_off_c,9,36,0,
2,1950,Note_on_c,9,36,127,
2,1950,Note_on_c,9,37,127,
2,1950,Note_on_c,9,38,127,
2,1950,Note_on_c,9,39,127,
2,1950,Note_on_c,9,41,127,
2,1950,Note_on_c,9,42,127,
2,1950,Note_on_c,9,43,127,
2,1950,Note_on_c,9,45,127,
2,1950,Note_on_c,9,48,127,
2,1950,Note_on_c,9,51,127,
2,1950,Note_on_c,9,53,127,
2,1950,Note_on_c,9,80,127,
2,1950,Note_on_c,9,81,127,
2,1950,Note_on_c,9,82,127,
2,1951,Note_off_c,9,36,0,
2,1952,Note_on_c,9,36,127,
2,1952,Note_on_c,9,37,127,
2,1952,Note_on_c,9,38,127,
2,1952,Note_on_c,9,39,127,
2,1952,Note_on_c,9,41,127,
2,1952,Note_on_c,9,42,127,
2,1952,Note_on_c,9,43,127,
2,1952,Note_on_c,9,45,127,
2,1952,Note_on_c,9,48,127,
2,1952,Note_on_c,9,51,127,
2,1952,Note_on_c,9,53,127,
2,1952,Note_on_c,9,80,127,
2,1952,Note_on_c,9,81,127,
2,1952,Note_on_c,9,82,127,
2,1953,Note_off_c,9,36,0,
2,1954,Note_on_c,9,36,127,
2,1954,Note_on_c,9,37,127,
2,1954,Note_on_c,9,38,127,
2,1954,Note_on_c,9,39,127,
2,1954,Note_on_c,9,41,127,
2,1954,Note_on_c,9,42,127,
2,1954,Note_on_c,9,43,127,
2,1954,Note_on_c,9,45,127,
2,1954,Note_on_c,9,48,127,
2,1954,Note_on_c,9,51,127,
2,1954,Note_on_c,9,53,127,
2,1954,Note_on_c,9,80,127,
2,1954,Note_on_c,9,81,127,
2,1954,Note_on_c,9,82,127,
2,1955,Note_off_c,9,36,0,
2,1956,Note_on_c,9,36,127,
2,1956,Note_on_c,9,37,127,
2,1956,Note_on_c,9,38,127,
2,1956,Note_on_c,9,39,127,
2,1956,Note_on_c,9,41,127,
2,1956,Note_on_c,9,42,127,
2,1956,Note_on_c,9,43,127,
2,1956,Note_on_c,9,45,127,
2,1956,Note_on_c,9,48,127,
2,1956,Note_on_c,9,51,127,
2,1956,Note_on_c,9,53,127,
2,1956,Note_on_c,9,80,127,
2,1956,Note_on_c,9,81,127,
2,1956,Note_on_c,9,82,127,
2,1957,Note_off_c,9,36,0,
2,1958,Note_on_c,9,36,127,
2,1958,Note_on_c,9,37,127,
2,1958,Note_on_c,9,38,127,
2,1958,Note_on_c,9,39,127,
2,1958,Note_on_c,9,41,127,
2,1958,Note_on_c,9,42,127,
2,1958,Note_on_c,9,43,127,
2,1958,Note_on_c,9,45,127,
2,1958,Note_on_c,9,48,127,
2,1958,Note_on_c,9,51,127,
2,1958,Note_on_c,9,53,127,
2,1958,Note_on_c,9,80,127,
2,1958,Note_on_c,9,81,127,
2,1958,Note_on_c,9,82,127,
2,1959,Note_off_c,9,36,0,
2,1960,Note_on_c,9,36,127,
2,1960,Note_on_c,9,37,127,
2,1960,Note_on_c,9,38,127,
2,1960,Note_on_c,9,39,127,
2,1960,Note_on_c,9,41,127,
2,1960,Note_on_c,9,42,127,
2,1960,Note_on_c,9,43,127,
2,1960,Note_on_c,9,45,127,
2,1960,Note_on_c,9,48,127,
2,1960,Note_on_c,9,51,127,
2,1960,Note_on_c,9,53,127,
2,1960,Note_on_c,9,80,127,
2,1960,Note_on_c,9,81,127,
2,1960,Note_on_c,9,82,127,
2,1961,Note_off_c,9,36,0,
2,1962,Note_on_c,9,36,127,
2,1962,Note_on_c,9,37,127,
2,1962,Note_on_c,9,38,127,
2,1962,Note_on_c,9,39,127,
2,1962,Note_on_c,9,41,127,
2,1962,Note_on_c,9,42,127,
2,1962,Note_on_c,9,43,127,
2,1962,Note_on_c,9,45,127,
2,1962,Note_on_c,9,48,127,
2,1962,Note_on_c,9,51,127,
2,1962,Note_on_c,9,53,127,
2,1962,Note_on_c,9,80,127,
2,1962,Note_on_c,9,81,127,
2,1962,Note_on_c,9,82,127,
2,1963,Note_off_c,9,36,0,
2,1964,Note_on_c,9,36,127,
2,1964,Note_on_c,9,37,127,
2,1964,Note_on_c,9,38,127,
2,1964,Note_on_c,9,39,127,
2,1964,Note_on_c,9,41,127,
2,1964,Note_on_c,9,42,127,
2,1964,Note_on_c,9,43,127,
2,1964,Note_on_c,9,45,127,
2,1964,Note_on_c,9,48,127,
2,1964,Note_on_c,9,51,127,
2,1964,Note_on_c,9,53,127,
2,1964,Note_on_c,9,80,127,
2,1964,Note_on_c,9,81,127,
2,1964,Note_on_c,9,82,127,
2,1965,Note_off_c,9,36,0,
2,1966,Note_on_c,9,36,127,
2,1966,Note_on_c,9,37,127,
2,1966,Note_on_c,9,38,127,
2,1966,Note_on_c,9,39,127,
2,1966,Note_on_c,9,41,127,
2,1966,Note_on_c,9,42,127,
2,1966,Note_on_c,9,43,127,
2,1966,Note_on_c,9,45,127,
2,1966,Note_on_c,9,48,127,
2,1966,Note_on_c,9,51,127,
2,1966,Note_on_c,9,53,127,
2,1966,Note_on_c,9,80,127,
2,1966,Note_on_c,9,81,127,
2,1966,Note_on_c,9,82,127,
2,1967,Note_off_c,9,36,0,
2,1968,Note_on_c,9,36,127,
2,1968,Note_on_c,9,37,127,
2,1968,Note_on_c,9,38,127,
2,1968,Note_on_c,9,39,127,
2,1968,Note_on_c,9,41,127,
2,1968,Note_on_c,9,42,127,
2,1968,Note_on_c,9,43,127,
2,1968,Note_on_c,9,45,127,
2,1968,Note_on_c,9,48,127,
2,1968,Note_on_c,9,51,127,
2,1968,Note_on_c,9,53,127,
2,1968,Note_on_c,9,80,127,
2,1968,Note_on_c,9,81,127,
2,1968,Note_on_c,9,82,127,
2,1969,Note_off_c,9,36,0,
2,1970,Note_on_c,9,36,127,
2,1970,Note_on_c,9,37,127,
2,1970,Note_on_c,9,38,127,
2,1970,Note_on_c,9,39,127,
2,1970,Note_on_c,9,41,127,
2,1970,Note_on_c,9,42,127,
2,1970,Note_on_c,9,43,127,
2,1970,Note_on_c,9,45,127,
2,1970,Note_on_c,9,48,127,
2,1970,Note_on_c,9,51,127,
2,1970,Note_on_c,9,53,127,
2,1970,Note_on_c,9,80,127,
2,1970,Note_on_c,9,81,127,
2,1970,Note_on_c,9,82,127,
2,1971,Note_off_c,9,36,0,
2,1972,Note_on_c,9,36,127,
2,1972,Note_on_c,9,37,127,
2,1972,Note_on_c,9,38,127,
2,1972,Note_on_c,9,39,127,
2,1972,Note_on_c,9,41,127,
2,1972,Note_on_c,9,42,127,
2,1972,Note_on_c,9,43,127,
2,1972,Note_on_c,9,45,127,
2,1972,Note_on_c,9,48,127,
2,1972,Note_on_c,9,51,127,
2,1972,Note_on_c,9,53,127,
2,1972,Note_on_c,9,80,127,
2,1972,Note_on_c,9,81,127,
2,1972,Note_on_c,9,82,127,
2,1973,Note_off_c,9,36,0,
2,1974,Note_on_c,9,36,127,
2,1974,Note_on_c,9,37,127,
2,1974,Note_on_c,9,38,127,
2,1974,Note_on_c,9,39,127,
2,1974,Note_on_c,9,41,127,
2,1974,Note_on_c,9,42,127,
2,1974,Note_on_c,9,43,127,
2,1974,Note_on_c,9,45,127,
2,1974,Note_on_c,9,48,127,
2,1974,Note_on_c,9,51,127,
2,1974,Note_on_c,9,53,127,
2,1974,Note_on_c,9,80,127,
2,1974,Note_on_c,9,81,127,
2,1974,Note_on_c,9,82,127,
2,1975,Note_off_c,9,36,0,
2,1976,Note_on_c,9,36,127,
2,1976,Note_on_c,9,37,127,
2,1976,Note_on_c,9,38,127,
2,1976,Note_on_c,9,39,127,
2,1976,Note_on_c,9,41,127,
2,1976,Note_on_c,9,42,127,
2,1976,Note_on_c,9,43,127,
2,1976,Note_on_c,9,45,127,
2,1976,Note_on_c,9,48,127,
2,1976,Note_on_c,9,51,127,
2,1976,Note_on_c,9,53,127,
2,1976,Note_on_c,9,80,127,
2,1976,Note_on_c,9,81,127,
2,1976,Note_on_c,9,82,127,
2,1977,Note_off_c,9,36,0,
2,1978,Note_on_c,9,36,127,
2,1978,Note_on_c,9,37,127,
2,1978,Note_on_c,9,38,127,
2,1978,Note_on_c,9,39,127,
2,1978,Note_on_c,9,41,127,
2,1978,Note_on_c,9,42,127,
2,1978,Note_on_c,9,43,127,
2,1978,Note_on_c,9,45,127,
2,1978,Note_on_c,9,48,127,
2,1978,Note_on_c,9,51,127,
2,1978,Note_on_c,9,53,127,
2,1978,Note_on_c,9,80,127,
2,1978,Note_on_c,9,81,127,
2,1978,Note_on_c,9,82,127,
2,1979,Note_off_c,9,36,0,
2,1980,Note_on_c,9,36,127,
2,1980,Note_on_c,9,37,127,
2,1980,Note_on_c,9,38,127,
2,1980,Note_on_c,9,39,127,
2,1980,Note_on_c,9,41,127,
2,1980,Note_on_c,9,42,127,
2,1980,Note_on_c,9,43,127,
2,1980,Note_on_c,9,45,127,
2,1980,Note_on_c,9,48,127,
2,1980,Note_on_c,9,51,127,
2,1980,Note_on_c,9,53,127,
2,1980,Note_on_c,9,80,127,
2,1980,Note_on_c,9,81,127,
2,1980,Note_on_c,9,82,127,
2,1981,Note_off_c,9,36,0,
2,1982,Note_on_c,9,36,127,
2,1982,Note_on_c,9,37,127,
2,1982,Note_on_c,9,38,127,
2,1982,Note_on_c,9,39,127,
2,1982,Note_on_c,9,41,127,
2,1982,Note_on_c,9,42,127,
2,1982,Note_on_c,9,43,127,
2,1982,Note_on_c,9,45,127,
2,1982,Note_on_c,9,48,127,
2,1982,Note_on_c,9,51,127,
2,1982,Note_on_c,9,53,127,
2,1982,Note_on_c,9,80,127,
2,1982,Note_on_c,9,81,127,
2,1982,Note_on_c,9,82,127,
2,1983,Note_off_c,9,36,0,
2,1984,Note_on_c,9,36,127,
2,1984,Note_on_c,9,37,127,
2,1984,Note_on_c,9,38,127,
2,1984,Note_on_c,9,39,127,
2,1984,Note_on_c,9,41,127,
2,1984,Note_on_c,9,42,127,
2,1984,Note_on_c,9,43,127,
2,1984,Note_on_c,9,45,127,
2,1984,Note_on_c,9,48,127,
2,1984,Note_on_c,9,51,127,
2,1984,Note_on_c,9,53,127,
2,1984,Note_on_c,9,80,127,
2,1984,Note_on_c,9,81,127,
2,1984,Note_on_c,9,82,127,
2,1985,Note_off_c,9,36,0,
2,1986,Note_on_c,9,36,127,
2,1986,Note_on_c,9,37,127,
2,1986,Note_on_c,9,38,127,
2,1986,Note_on_c,9,39,127,
2,1986,Note_on_c,9,41,127,
2,1986,Note_on_c,9,42,127,
2,1986,Note_on_c,9,43,127,
2,1986,Note_on_c,9,45,127,
2,1986,Note_on_c,9,48,127,
2,1986,Note_on_c,9,51,127,
2,1986,Note_on_c,9,53,127,
2,1986,Note_on_c,9,80,127,
2,1986,Note_on_c,9,81,127,
2,1986,Note_on_c,9,82,127,
2,1987,Note_off_c,9,36,0,
2,1988,Note_on_c,9,36,127,
2,1988,Note_on_c,9,37,127,
2,1988,Note_on_c,9,38,127,
2,1988,Note_on_c,9,39,127,
2,1988,Note_on_c,9,41,127,
2,1988,Note_on_c,9,42,127,
2,1988,Note_on_c,9,43,127,
2,1988,Note_on_c,9,45,127,
2,1988,Note_on_c,9,48,127,
2,1988,Note_on_c,9,51,127,
2,1988,Note_on_c,9,53,127,
2,1988,Note_on_c,9,80,127,
2,1988,Note_on_c,9,81,127,
2,1988,Note_on_c,9,82,127,
2,1989,Note_off_c,9,36,0,
2,1990,Note_on_c,9,36,127,
2,1990,Note_on_c,9,37,127,
2,1990,Note_on_c,9,38,127,
2,1990,Note_on_c,9,39,127,
2,1990,Note_on_c,9,41,127,
2,1990,Note_on_c,9,42,127,
2,1990,Note_on_c,9,43,127,
2,1990,Note_on_c,9,45,127,
2,1990,Note_on_c,9,48,127,
2,1990,Note_on_c,9,51,127,
2,1990,Note_on_c,9,53,127,
2,1990,Note_on_c,9,80,127,
2,1990,Note_on_c,9,81,127,
2,1990,Note_on_c,9,82,127,
2,1991,Note_off_c,9,36,0,
2,1992,Note_on_c,9,36,127,
2,1992,Note_on_c,9,37,127,
2,1992,Note_on_c,9,38,127,
2,1992,Note_on_c,9,39,127,
2,1992,Note_on_c,9,41,127,
2,1992,Note_on_c,9,42,127,
2,1992,Note_on_c,9,43,127,
2,1992,Note_on_c,9,45,127,
2,1992,Note_on_c,9,48,127,
2,1992,Note_on_c,9,51,127,
2,1992,Note_on_c,9,53,127,
2,1992,Note_on_c,9,80,127,
2,1992,Note_on_c,9,81,127,
2,1992,Note_on_c,9,82,127,
2,1993,Note_off_c,9,36,0,
2,1994,Note_on_c,9,36,127,
2,1994,Note_on_c,9,37,127,
2,1994,Note_on_c,9,38,127,
2,1994,Note_on_c,9,39,127,
2,1994,Note_on_c,9,41,127,
2,1994,Note_on_c,9,42,127,
2,1994,Note_on_c,9,43,127,
2,1994,Note_on_c,9,45,127,
2,1994,Note_on_c,9,48,127,
2,1994,Note_on_c,9,51,127,
2,1994,Note_on_c,9,53,127,
2,1994,Note_on_c,9,80,127,
2,1994,Note_on_c,9,81,127,
2,1994,Note_on_c,9,82,127,
2,1995,Note_off_c,9,36,0,
2,1996,Note_on_c,9,36,127,
2,1996,Note_on_c,9,37,127,
2,1996,Note_on_c,9,38,127,
2,1996,Note_on_c,9,39,127,
2,1996,Note_on_c,9,41,127,
2,1996,Note_on_c,9,42,127,
2,1996,Note_on_c,9,43,127,
2,1996,Note_on_c,9,45,127,
2,1996,Note_on_c,9,48,127,
2,1996,Note_on_c,9,51,127,
2,1996,Note_on_c,9,53,127,
2,1996,Note_on_c,9,80,127,
2,1996,Note_on_c,9,81,127,
2,1996,Note_on_c,9,82,127,
2,1997,Note_off_c,9,36,0,
2,1998,Note_on_c,9,36,127,
2,1998,Note_on_c,9,37,127,
2,1998,Note_on_c,9,38,127,
2,1998,Note_on_c,9,39,127,
2,1998,Note_on_c,9,41,127,
2,1998,Note_on_c,9,42,127,
2,1998,Note_on_c,9,43,127,
2,1998,Note_on_c,9,45,127,
2,1998,Note_on_c,9,48,127,
2,1998,Note_on_c,9,51,127,
2,1998,Note_on_c,9,53,127,
2,1998,Note_on_c,9,80,127,
2,1998,Note_on_c,9,81,127,
2,1998,Note_on_c,9,82,127,
2,1999,Note_off_c,9,36,0,
2,2000,Note_on_c,9,36,127,
2,2000,Note_on_c,9,37,127,
2,2000,Note_on_c,9,38,127,
2,2000,Note_on_c,9,39,127,
2,2000,Note_on_c,9,41,127,
2,2000,Note_on_c,9,42,127,
2,2000,Note_on_c,9,43,127,
2,2000,Note_on_c,9,45,127,
2,2000,Note_on_c,9,48,127,
2,2000,Note_on_c,9,51,127,
2,2000,Note_on_c,9,53,127,
2,2000,Note_on_c,9,80,127,
2,2000,Note_on_c,9,81,127,
2,2000,Note_on_c,9,82,127,
2,2001,Note_off_c,9,36,0,
2,2002,Note_on_c,9,36,127,
2,2002,Note_on_c,9,37,127,
2,2002,Note_on_c,9,38,127,
2,2002,Note_on_c,9,39,127,
2,2002,Note_on_c,9,41,127,
2,2002,Note_on_c,9,42,127,
2,2002,Note_on_c,9,43,127,
2,2002,Note_on_c,9,45,127,
2,2002,Note_on_c,9,48,127,
2,2002,Note_on_c,9,51,127,
2,2002,Note_on_c,9,53,127,
2,2002,Note_on_c,9,80,127,
2,2002,Note_on_c,9,81,127,
2,2002,Note_on_c,9,82,127,
2,2003,Note_off_c,9,36,0,
2,2004,Note_on_c,9,36,127,
2,2004,Note_on_c,9,37,127,
2,2004,Note_on_c,9,38,127,
2,2004,Note_on_c,9,39,127,
2,2004,Note_on_c,9,41,127,
2,2004,Note_on_c,9,42,127,
2,2004,Note_on_c,9,43,127,
2,2004,Note_on_c,9,45,127,
2,2004,Note_on_c,9,48,127,
2,2004,Note_on_c,9,51,127,
2,2004,Note_on_c,9,53,127,
2,2004,Note_on_c,9,80,127,
2,2004,Note_on_c,9,81,127,
2,2004,Note_on_c,9,82,127,
2,2005,Note_off_c,9,36,0,
2,2006,Note_on_c,9,36,127,
2,2006,Note_on_c,9,37,127,
2,2006,Note_on_c,9,38,127,
2,2006,Note_on_c,9,39,127,
2,2006,Note_on_c,9,41,127,
2,2006,Note_on_c,9,42,127,
2,2006,Note_on_c,9,43,127,
2,2006,Note_on_c,9,45,127,
2,2006,Note_on_c,9,48,127,
2,2006,Note_on_c,9,51,127,
2,2006,Note_on_c,9,53,127,
2,2006,Note_on_c,9,80,127,
2,2006,Note_on_c,9,81,127,
2,2006,Note_on_c,9,82,127,
2,2007,Note_off_c,9,36,0,
2,2008,Note_on_c,9,36,127,
2,2008,Note_on_c,9,37,127,
2,2008,Note_on_c,9,38,127,
2,2008,Note_on_c,9,39,127,
2,2008,Note_on_c,9,41,127,
2,2008,Note_on_c,9,42,127,
2,2008,Note_on_c,9,43,127,
2,2008,Note_on_c,9,45,127,
2,2008,Note_on_c,9,48,127,
2,2008,Note_on_c,9,51,127,
2,2008,Note_on_c,9,53,127,
2,2008,Note_on_c,9,80,127,
2,2008,Note_on_c,9,81,127,
2,2008,Note_on_c,9,82,127,
2,2009,Note_off_c,9,36,0,
2,2010,Note_on_c,9,36,127,
2,2010,Note_on_c,9,37,127,
2,2010,Note_on_c,9,38,127,
2,2010,Note_on_c,9,39,127,
2,2010,Note_on_c,9,41,127,
2,2010,Note_on_c,9,42,127,
2,2010,Note_on_c,9,43,127,
2,2010,Note_on_c,9,45,127,
2,2010,Note_on_c,9,48,127,
2,2010,Note_on_c,9,51,127,
2,2010,Note_on_c,9,53,127,
2,2010,Note_on_c,9,80,127,
2,2010,Note_on_c,9,81,127,
2,2010,Note_on_c,9,82,127,
2,2011,Note_off_c,9,36,0,
2,2012,Note_on_c,9,36,127,
2,2012,Note_on_c,9,37,127,
2,2012,Note_on_c,9,38,127,
2,2012,Note_on_c,9,39,127,
2,2012,Note_on_c,9,41,127,
2,2012,Note_on_c,9,42,127,
2,2012,Note_on_c,9,43,127,
2,2012,Note_on_c,9,45,127,
2,2012,Note_on_c,9,48,127,
2,2012,Note_on_c,9,51,127,
2,2012,Note_on_c,9,53,127,
2,2012,Note_on_c,9,80,127,
2,2012,Note_on_c,9,81,127,
2,2012,Note_on_c,9,82,127,
2,2013,Note_off_c,9,36,0,
2,2014,Note_on_c,9,36,127,
2,2014,Note_on_c,9,37,127,
2,2014,Note_on_c,9,38,127,
2,2014,Note_on_c,9,39,127,
2,2014,Note_on_c,9,41,127,
2,2014,Note_on_c,9,42,127,
2,2014,Note_on_c,9,43,127,
2,2014,Note_on_c,9,45,127,
2,2014,Note_on_c,9,48,127,
2,2014,Note_on_c,9,51,127,
2,2014,Note_on_c,9,53,127,
2,2014,Note_on_c,9,80,127,
2,2014,Note_on_c,9,81,127,
2,2014,Note_on_c,9,82,127,
2,2015,Note_off_c,9,36,0,
2,2016,Note_on_c,9,36,127,
2,2016,Note_on_c,9,37,127,
2,2016,Note_on_c,9,38,127,
2,2016,Note_on_c,9,39,127,
2,2016,Note_on_c,9,41,127,
2,2016,Note_on_c,9,42,127,
2,2016,Note_on_c,9,43,127,
2,2016,Note_on_c,9,45,127,
2,2016,Note_on_c,9,48,127,
2,2016,Note_on_c,9,51,127,
2,2016,Note_on_c,9,53,127,
2,2016,Note_on_c,9,80,127,
2,2016,Note_on_c,9,81,127,
2,2016,Note_on_c,9,82,127,
2,2017,Note_off_c,9,36,0,
2,2018,Note_on_c,9,36,127,
2,2018,Note_on_c,9,37,127,
2,2018,Note_on_c,9,38,127,
2,2018,Note_on_c,9,39,127,
2,2018,Note_on_c,9,41,127,
2,2018,Note_on_c,9,42,127,
2,2018,Note_on_c,9,43,127,
2,2018,Note_on_c,9,45,127,
2,2018,Note_on_c,9,48,127,
2,2018,Note_on_c,9,51,127,
2,2018,Note_on_c,9,53,127,
2,2018,Note_on_c,9,80,127,
2,2018,Note_on_c,9,81,127,
2,2018,Note_on_c,9,82,127,
2,2019,Note_off_c,9,36,0,
2,2020,Note_on_c,9,36,127,
2,2020,Note_on_c,9,37,127,
2,2020,Note_on_c,9,38,127,
2,2020,Note_on_c,9,39,127,
2,2020,Note_on_c,9,41,127,
2,2020,Note_on_c,9,42,127,
2,2020,Note_on_c,9,43,127,
2,2020,Note_on_c,9,45,127,
2,2020,Note_on_c,9,48,127,
2,2020,Note_on_c,9,51,127,
2,2020,Note_on_c,9,53,127,
2,2020,Note_on_c,9,80,127,
2,2020,Note_on_c,9,81,127,
2,2020,Note_on_c,9,82,127,
2,2021,Note_off_c,9,36,0,
2,2022,Note_on_c,9,36,127,
2,2022,Note_on_c,9,37,127,
2,2022,Note_on_c,9,38,127,
2,2022,Note_on_c,9,39,127,
2,2022,Note_on_c,9,41,127,
2,2022,Note_on_c,9,42,127,
2,2022,Note_on_c,9,43,127,
2,2022,Note_on_c,9,45,127,
2,2022,Note_on_c,9,48,127,
2,2022,Note_on_c,9,51,127,
2,2022,Note_on_c,9,53,127,
2,2022,Note_on_c,9,80,127,
2,2022,Note_on_c,9,81,127,
2,2022,Note_on_c,9,82,127,
2,2023,Note_off_c,9,36,0,
2,2024,Note_on_c,9,36,127,
2,2024,Note_on_c,9,37,127,
2,2024,Note_on_c,9,38,127,
2,2024,Note_on_c,9,39,127,
2,2024,Note_on_c,9,41,127,
2,2024,Note_on_c,9,42,127,
2,2024,Note_on_c,9,43,127,
2,2024,Note_on_c,9,45,127,
2,2024,Note_on_c,9,48,127,
2,2024,Note_on_c,9,51,127,
2,2024,Note_on_c,9,53,127,
2,2024,Note_on_c,9,80,127,
2,2024,Note_on_c,9,81,127,
2,2024,Note_on_c,9,82,127,
2,2025,Note_off_c,9,36,0,
2,2026,Note_on_c,9,36,127,
2,2026,Note_on_c,9,37,127,
2,2026,Note_on_c,9,38,127,
2,2026,Note_on_c,9,39,127,
2,2026,Note_on_c,9,41,127,
2,2026,Note_on_c,9,42,127,
2,2026,Note_on_c,9,43,127,
2,2026,Note_on_c,9,45,127,
2,2026,Note_on_c,9,48,127,
2,2026,Note_on_c,9,51,127,
2,2026,Note_on_c,9,53,127,
2,2026,Note_on_c,9,80,127,
2,2026,Note_on_c,9,81,127,
2,2026,Note_on_c,9,82,127,
2,2027,Note_off_c,9,36,0,
2,2028,Note_on_c,9,36,127,
2,2028,Note_on_c,9,37,127,
2,2028,Note_on_c,9,38,127,
2,2028,Note_on_c,9,39,127,
2,2028,Note_on_c,9,41,127,
2,2028,Note_on_c,9,42,127,
2,2028,Note_on_c,9,43,127,
2,2028,Note_on_c,9,45,127,
2,2028,Note_on_c,9,48,127,
2,2028,Note_on_c,9,51,127,
2,2028,Note_on_c,9,53,127,
2,2028,Note_on_c,9,80,127,
2,2028,Note_on_c,9,81,127,
2,2028,Note_on_c,9,82,127,
2,2029,Note_off_c,9,36,0,
2,2030,Note_on_c,9,36,127,
2,2030,Note_on_c,9,37,127,
2,2030,Note_on_c,9,38,127,
2,2030,Note_on_c,9,39,127,
2,2030,Note_on_c,9,41,127,
2,2030,Note_on_c,9,42,127,
2,2030,Note_on_c,9,43,127,
2,2030,Note_on_c,9,45,127,
2,2030,Note_on_c,9,48,127,
2,2030,Note_on_c,9,51,127,
2,2030,Note_on_c,9,53,127,
2,2030,Note_on_c,9,80,127,
2,2030,Note_on_c,9,81,127,
2,2030,Note_on_c,9,82,127,
2,2031,Note_off_c,9,36,0,
2,2032,Note_on_c,9,36,127,
2,2032,Note_on_c,9,37,127,
2,2032,Note_on_c,9,38,127,
2,2032,Note_on_c,9,39,127,
2,2032,Note_on_c,9,41,127,
2,2032,Note_on_c,9,42,127,
2,2032,Note_on_c,9,43,127,
2,2032,Note_on_c,9,45,127,
2,2032,Note_on_c,9,48,127,
2,2032,Note_on_c,9,51,127,
2,2032,Note_on_c,9,53,127,
2,2032,Note_on_c,9,80,127,
2,2032,Note_on_c,9,81,127,
2,2032,Note_on_c,9,82,127,
2,2033,Note_off_c,9,36,0,
2,2034,Note_on_c,9,36,127,
2,2034,Note_on_c,9,37,127,
2,2034,Note_on_c,9,38,127,
2,2034,Note_on_c,9,39,127,
2,2034,Note_on_c,9,41,127,
2,2034,Note_on_c,9,42,127,
2,2034,Note_on_c,9,43,127,
2,2034,Note_on_c,9,45,127,
2,2034,Note_on_c,9,48,127,
2,2034,Note_on_c,9,51,127,
2,2034,Note_on_c,9,53,127,
2,2034,Note_on_c,9,80,127,
2,2034,Note_on_c,9,81,127,
2,2034,Note_on_c,9,82,127,
2,2035,Note_off_c,9,36,0,
2,2036,Note_on_c,9,36,127,
2,2036,Note_on_c,9,37,127,
2,2036,Note_on_c,9,38,127,
2,2036,Note_on_c,9,39,127,
2,2036,Note_on_c,9,41,127,
2,2036,Note_on_c,9,42,127,
2,2036,Note_on_c,9,43,127,
2,2036,Note_on_c,9,45,127,
2,2036,Note_on_c,9,48,127,
2,2036,Note_on_c,9,51,127,
2,2036,Note_on_c,9,53,127,
2,2036,Note_on_c,9,80,127,
2,2036,Note_on_c,9,81,127,
2,2036,Note_on_c,9,82,127,
2,2037,Note_off_c,9,36,0,
2,2038,Note_on_c,9,36,127,
2,2038,Note_on_c,9,37,127,
2,2038,Note_on_c,9,38,127,
2,2038,Note_on_c,9,39,127,
2,2038,Note_on_c,9,41,127,
2,2038,Note_on_c,9,42,127,
2,2038,Note_on_c,9,43,127,
2,2038,Note_on_c,9,45,127,
2,2038,Note_on_c,9,48,127,
2,2038,Note_on_c,9,51,127,
2,2038,Note_on_c,9,53,127,
2,2038,Note_on_c,9,80,127,
2,2038,Note_on_c,9,81,127,
2,2038,Note_on_c,9,82,127,
2,2039,Note_off_c,9,36,0,
2,2040,Note_on_c,9,36,127,
2,2040,Note_on_c,9,37,127,
2,2040,Note_on_c,9,38,127,
2,2040,Note_on_c,9,39,127,
2,2040,Note_on_c,9,41,127,
2,2040,Note_on_c,9,42,127,
2,2040,Note_on_c,9,43,127,
2,2040,Note_on_c,9,45,127,
2,2040,Note_on_c,9,48,127,
2,2040,Note_on_c,9,51,127,
2,2040,Note_on_c,9,53,127,
2,2040,Note_on_c,9,80,127,
2,2040,Note_on_c,9,81,127,
2,2040,Note_on_c,9,82,127,
2,2041,Note_off_c,9,36,0,
2,2042,Note_on_c,9,36,127,
2,2042,Note_on_c,9,37,127,
2,2042,Note_on_c,9,38,127,
2,2042,Note_on_c,9,39,127,
2,2042,Note_on_c,9,41,127,
2,2042,Note_on_c,9,42,127,
2,2042,Note_on_c,9,43,127,
2,2042,Note_on_c,9,45,127,
2,2042,Note_on_c,9,48,127,
2,2042,Note_on_c,9,51,127,
2,2042,Note_on_c,9,53,127,
2,2042,Note_on_c,9,80,127,
2,2042,Note_on_c,9,81,127,
2,2042,Note_on_c,9,82,127,
2,2043,Note_off_c,9,36,0,
2,2044,Note_on_c,9,36,127,
2,2044,Note_on_c,9,37,127,
2,2044,Note_on_c,9,38,127,
2,2044,Note_on_c,9,39,127,
2,2044,Note_on_c,9,41,127,
2,2044,Note_on_c,9,42,127,
2,2044,Note_on_c,9,43,127,
2,2044,Note_on_c,9,45,127,
2,2044,Note_on_c,9,48,127,
2,2044,Note_on_c,9,51,127,
2,2044,Note_on_c,9,53,127,
2,2044,Note_on_c,9,80,127,
2,2044,Note_on_c,9,81,127,
2,2044,Note_on_c,9,82,127,
2,2045,Note_off_c,9,36,0,
2,2046,Note_on_c,9,36,127,
2,2046,Note_on_c,9,37,127,
2,2046,Note_on_c,9,38,127,
2,2046,Note_on_c,9,39,127,
2,2046,Note_on_c,9,41,127,
2,2046,Note_on_c,9,42,127,
2,2046,Note_on_c,9,43,127,
2,2046,Note_on_c,9,45,127,
2,2046,Note_on_c,9,48,127,
2,2046,Note_on_c,9,51,127,
2,2046,Note_on_c,9,53,127,
2,2046,Note_on_c,9,80,127,
2,2046,Note_on_c,9,81,127,
2,2046,Note_on_c,9,82,127,
2,2047,Note_off_c,9,36,0,
2,2048,Note_on_c,9,36,127,
2,2048,Note_on_c,9,37,127,
2,2048,Note_on_c,9,38,127,
2,2048,Note_on_c,9,39,127,
2,2048,Note_on_c,9,41,127,
2,2048,Note_on_c,9,42,127,
2,2048,Note_on_c,9,43,127,
2,2048,Note_on_c,9,45,127,
2,2048,Note_on_c,9,48,127,
2,2048,Note_on_c,9,51,127,
2,2048,Note_on_c,9,53,127,
2,2048,Note_on_c,9,80,127,
2,2048,Note_on_c,9,81,127,
2,2048,Note_on_c,9,82,127,
2,2049,Note_off_c,9,36,0,
2,2050,Note_on_c,9,36,127,
2,2050,Note_on_c,9,37,127,
2,2050,Note_on_c,9,38,127,
2,2050,Note_on_c,9,39,127,
2,2050,Note_on_c,9,41,127,
2,2050,Note_on_c,9,42,127,
2,2050,Note_on_c,9,43,127,
2,2050,Note_on_c,9,45,127,
2,2050,Note_on_c,9,48,127,
2,2050,Note_on_c,9,51,127,
2,2050,Note_on_c,9,53,127,
2,2050,Note_on_c,9,80,127,
2,2050,Note_on_c,9,81,127,
2,2050,Note_on_c,9,82,127,
2,2051,Note_off_c,9,36,0,
2,2052,Note_on_c,9,36,127,
2,2052,Note_on_c,9,37,127,
2,2052,Note_on_c,9,38,127,
2,2052,Note_on_c,9,39,127,
2,2052,Note_on_c,9,41,127,
2,2052,Note_on_c,9,42,127,
2,2052,Note_on_c,9,43,127,
2,2052,Note_on_c,9,45,127,
2,2052,Note_on_c,9,48,127,
2,2052,Note_on_c,9,51,127,
2,2052,Note_on_c,9,53,127,
2,2052,Note_on_c,9,80,127,
2,2052,Note_on_c,9,81,127,
2,2052,Note_on_c,9,82,127,
2,2053,Note_off_c,9,36,0,
2,2054,Note_on_c,9,36,127,
2,2054,Note_on_c,9,37,127,
2,2054,Note_on_c,9,38,127,
2,2054,Note_on_c,9,39,127,
2,2054,Note_on_c,9,41,127,
2,2054,Note_on_c,9,42,127,
2,2054,Note_on_c,9,43,127,
2,2054,Note_on_c,9,45,127,
2,2054,Note_on_c,9,48,127,
2,2054,Note_on_c,9,51,127,
2,2054,Note_on_c,9,53,127,
2,2054,Note_on_c,9,80,127,
2,2054,Note_on_c,9,81,127,
2,2054,Note_on_c,9,82,127,
2,2055,Note_off_c,9,36,0,
2,2056,Note_on_c,9,36,127,
2,2056,Note_on_c,9,37,127,
2,2056,Note_on_c,9,38,127,
2,2056,Note_on_c,9,39,127,
2,2056,Note_on_c,9,41,127,
2,2056,Note_on_c,9,42,127,
2,2056,Note_on_c,9,43,127,
2,2056,Note_on_c,9,45,127,
2,2056,Note_on_c,9,48,127,
2,2056,Note_on_c,9,51,127,
2,2056,Note_on_c,9,53,127,
2,2056,Note_on_c,9,80,127,
2,2056,Note_on_c,9,81,127,
2,2056,Note_on_c,9,82,127,
2,2057,Note_off_c,9,36,0,
2,2058,Note_on_c,9,36,127,
2,2058,Note_on_c,9,37,127,
2,2058,Note_on_c,9,38,127,
2,2058,Note_on_c,9,39,127,
2,2058,Note_on_c,9,41,127,
2,2058,Note_on_c,9,42,127,
2,2058,Note_on_c,9,43,127,
2,2058,Note_on_c,9,45,127,
2,2058,Note_on_c,9,48,127,
2,2058,Note_on_c,9,51,127,
2,2058,Note_on_c,9,53,127,
2,2058,Note_on_c,9,80,127,
2,2058,Note_on_c,9,81,127,
2,2058,Note_on_c,9,82,127,
2,2059,Note_off_c,9,36,0,
2,2060,Note_on_c,9,36,127,
2,2060,Note_on_c,9,37,127,
2,2060,Note_on_c,9,38,127,
2,2060,Note_on_c,9,39,127,
2,2060,Note_on_c,9,41,127,
2,2060,Note_on_c,9,42,127,
2,2060,Note_on_c,9,43,127,
2,2060,Note_on_c,9,45,127,
2,2060,Note_on_c,9,48,127,
2,2060,Note_on_c,9,51,127,
2,2060,Note_on_c,9,53,127,
2,2060,Note_on_c,9,80,127,
2,2060,Note_on_c,9,81,127,
2,2060,Note_on_c,9,82,127,
2,2061,Note_off_c,9,36,0,
2,2062,Note_on_c,9,36,127,
2,2062,Note_on_c,9,37,127,
2,2062,Note_on_c,9,38,127,
2,2062,Note_on_c,9,39,127,
2,2062,Note_on_c,9,41,127,
2,2062,Note_on_c,9,42,127,
2,2062,Note_on_c,9,43,127,
2,2062,Note_on_c,9,45,127,
2,2062,Note_on_c,9,48,127,
2,2062,Note_on_c,9,51,127,
2,2062,Note_on_c,9,53,127,
2,2062,Note_on_c,9,80,127,
2,2062,Note_on_c,9,81,127,
2,2062,Note_on_c,9,82,127,
2,2063,Note_off_c,9,36,0,
2,2064,Note_on_c,9,36,127,
2,2064,Note_on_c,9,37,127,
2,2064,Note_on_c,9,38,127,
2,2064,Note_on_c,9,39,127,
2,2064,Note_on_c,9,41,127,
2,2064,Note_on_c,9,42,127,
2,2064,Note_on_c,9,43,127,
2,2064,Note_on_c,9,45,127,
2,2064,Note_on_c,9,48,127,
2,2064,Note_on_c,9,51,127,
2,2064,Note_on_c,9,53,127,
2,2064,Note_on_c,9,80,127,
2,2064,Note_on_c,9,81,127,
2,2064,Note_on_c,9,82,127,
2,2065,Note_off_c,9,36,0,
2,2066,Note_on_c,9,36,127,
2,2066,Note_on_c,9,37,127,
2,2066,Note_on_c,9,38,127,
2,2066,Note_on_c,9,39,127,
2,2066,Note_on_c,9,41,127,
2,2066,Note_on_c,9,42,127,
2,2066,Note_on_c,9,43,127,
2,2066,Note_on_c,9,45,127,
2,2066,Note_on_c,9,48,127,
2,2066,Note_on_c,9,51,127,
2,2066,Note_on_c,9,53,127,
2,2066,Note_on_c,9,80,127,
2,2066,Note_on_c,9,81,127,
2,2066,Note_on_c,9,82,127,
2,2067,Note_off_c,9,36,0,
2,2068,Note_on_c,9,36,127,
2,2068,Note_on_c,9,37,127,
2,2068,Note_on_c,9,38,127,
2,2068,Note_on_c,9,39,127,
2,2068,Note_on_c,9,41,127,
2,2068,Note_on_c,9,42,127,
2,2068,Note_on_c,9,43,127,
2,2068,Note_on_c,9,45,127,
2,2068,Note_on_c,9,48,127,
2,2068,Note_on_c,9,51,127,
2,2068,Note_on_c,9,53,127,
2,2068,Note_on_c,9,80,127,
2,2068,Note_on_c,9,81,127,
2,2068,Note_on_c,9,82,127,
2,2069,Note_off_c,9,36,0,
2,2070,Note_on_c,9,36,127,
2,2070,Note_on_c,9,37,127,
2,2070,Note_on_c,9,38,127,
2,2070,Note_on_c,9,39,127,
2,2070,Note_on_c,9,41,127,
2,2070,Note_on_c,9,42,127,
2,2070,Note_on_c,9,43,127,
2,2070,Note_on_c,9,45,127,
2,2070,Note_on_c,9,48,127,
2,2070,Note_on_c,9,51,127,
2,2070,Note_on_c,9,53,127,
2,2070,Note_on_c,9,80,127,
2,2070,Note_on_c,9,81,127,
2,2070,Note_on_c,9,82,127,
2,2071,Note_off_c,9,36,0,
2,2072,Note_on_c,9,36,127,
2,2072,Note_on_c,9,37,127,
2,2072,Note_on_c,9,38,127,
2,2072,Note_on_c,9,39,127,
2,2072,Note_on_c,9,41,127,
2,2072,Note_on_c,9,42,127,
2,2072,Note_on_c,9,43,127,
2,2072,Note_on_c,9,45,127,
2,2072,Note_on_c,9,48,127,
2,2072,Note_on_c,9,51,127,
2,2072,Note_on_c,9,53,127,
2,2072,Note_on_c,9,80,127,
2,2072,Note_on_c,9,81,127,
2,2072,Note_on_c,9,82,127,
2,2073,Note_off_c,9,36,0,
2,2074,Note_on_c,9,36,127,
2,2074,Note_on_c,9,37,127,
2,2074,Note_on_c,9,38,127,
2,2074,Note_on_c,9,39,127,
2,2074,Note_on_c,9,41,127,
2,2074,Note_on_c,9,42,127,
2,2074,Note_on_c,9,43,127,
2,2074,Note_on_c,9,45,127,
2,2074,Note_on_c,9,48,127,
2,2074,Note_on_c,9,51,127,
2,2074,Note_on_c,9,53,127,
2,2074,Note_on_c,9,80,127,
2,2074,Note_on_c,9,81,127,
2,2074,Note_on_c,9,82,127,
2,2075,Note_off_c,9,36,0,
2,2076,Note_on_c,9,36,127,
2,2076,Note_on_c,9,37,127,
2,2076,Note_on_c,9,38,127,
2,2076,Note_on_c,9,39,127,
2,2076,Note_on_c,9,41,127,
2,2076,Note_on_c,9,42,127,
2,2076,Note_on_c,9,43,127,
2,2076,Note_on_c,9,45,127,
2,2076,Note_on_c,9,48,127,
2,2076,Note_on_c,9,51,127,
2,2076,Note_on_c,9,53,127,
2,2076,Note_on_c,9,80,127,
2,2076,Note_on_c,9,81,127,
2,2076,Note_on_c,9,82,127,
2,2077,Note_off_c,9,36,0,
2,2078,Note_on_c,9,36,127,
2,2078,Note_on_c,9,37,127,
2,2078,Note_on_c,9,38,127,
2,2078,Note_on_c,9,39,127,
2,2078,Note_on_c,9,41,127,
2,2078,Note_on_c,9,42,127,
2,2078,Note_on_c,9,43,127,
2,2078,Note_on_c,9,45,127,
2,2078,Note_on_c,9,48,127,
2,2078,Note_on_c,9,51,127,
2,2078,Note_on_c,9,53,127,
2,2078,Note_on_c,9,80,127,
2,2078,Note_on_c,9,81,127,
2,2078,Note_on_c,9,82,127,
2,2079,Note_off_c,9,36,0,
2,2080,Note_on_c,9,36,127,
2,2080,Note_on_c,9,37,127,
2,2080,Note_on_c,9,38,127,
2,2080,Note_on_c,9,39,127,
2,2080,Note_on_c,9,41,127,
2,2080,Note_on_c,9,42,127,
2,2080,Note_on_c,9,43,127,
2,2080,Note_on_c,9,45,127,
2,2080,Note_on_c,9,48,127,
2,2080,Note_on_c,9,51,127,
2,2080,Note_on_c,9,53,127,
2,2080,Note_on_c,9,80,127,
2,2080,Note_on_c,9,81,127,
2,2080,Note_on_c,9,82,127,
2,2081,Note_off_c,9,36,0,
2,2082,Note_on_c,9,36,127,
2,2082,Note_on_c,9,37,127,
2,2082,Note_on_c,9,38,127,
2,2082,Note_on_c,9,39,127,
2,2082,Note_on_c,9,41,127,
2,2082,Note_on_c,9,42,127,
2,2082,Note_on_c,9,43,127,
2,2082,Note_on_c,9,45,127,
2,2082,Note_on_c,9,48,127,
2,2082,Note_on_c,9,51,127,
2,2082,Note_on_c,9,53,127,
2,2082,Note_on_c,9,80,127,
2,2082,Note_on_c,9,81,127,
2,2082,Note_on_c,9,82,127,
2,2083,Note_off_c,9,36,0,
2,2084,Note_on_c,9,36,127,
2,2084,Note_on_c,9,37,127,
2,2084,Note_on_c,9,38,127,
2,2084,Note_on_c,9,39,127,
2,2084,Note_on_c,9,41,127,
2,2084,Note_on_c,9,42,127,
2,2084,Note_on_c,9,43,127,
2,2084,Note_on_c,9,45,127,
2,2084,Note_on_c,9,48,127,
2,2084,Note_on_c,9,51,127,
2,2084,Note_on_c,9,53,127,
2,2084,Note_on_c,9,80,127,
2,2084,Note_on_c,9,81,127,
2,2084,Note_on_c,9,82,127,
2,2085,Note_off_c,9,36,0,
2,2086,Note_on_c,9,36,127,
2,2086,Note_on_c,9,37,127,
2,2086,Note_on_c,9,38,127,
2,2086,Note_on_c,9,39,127,
2,2086,Note_on_c,9,41,127,
2,2086,Note_on_c,9,42,127,
2,2086,Note_on_c,9,43,127,
2,2086,Note_on_c,9,45,127,
2,2086,Note_on_c,9,48,127,
2,2086,Note_on_c,9,51,127,
2,2086,Note_on_c,9,53,127,
2,2086,Note_on_c,9,80,127,
2,2086,Note_on_c,9,81,127,
2,2086,Note_on_c,9,82,127,
2,2087,Note_off_c,9,36,0,
2,2088,Note_on_c,9,36,127,
2,2088,Note_on_c,9,37,127,
2,2088,Note_on_c,9,38,127,
2,2088,Note_on_c,9,39,127,
2,2088,Note_on_c,9,41,127,
2,2088,Note_on_c,9,42,127,
2,2088,Note_on_c,9,43,127,
2,2088,Note_on_c,9,45,127,
2,2088,Note_on_c,9,48,127,
2,2088,Note_on_c,9,51,127,
2,2088,Note_on_c,9,53,127,
2,2088,Note_on_c,9,80,127,
2,2088,Note_on_c,9,81,127,
2,2088,Note_on_c,9,82,127,
2,2089,Note_off_c,9,36,0,
2,2090,Note_on_c,9,36,127,
2,2090,Note_on_c,9,37,127,
2,2090,Note_on_c,9,38,127,
2,2090,Note_on_c,9,39,127,
2,2090,Note_on_c,9,41,127,
2,2090,Note_on_c,9,42,127,
2,2090,Note_on_c,9,43,127,
2,2090,Note_on_c,9,45,127,
2,2090,Note_on_c,9,48,127,
2,2090,Note_on_c,9,51,127,
2,2090,Note_on_c,9,53,127,
2,2090,Note_on_c,9,80,127,
2,2090,Note_on_c,9,81,127,
2,2090,Note_on_c,9,82,127,
2,2091,Note_off_c,9,36,0,
2,2092,Note_on_c,9,36,127,
2,2092,Note_on_c,9,37,127,
2,2092,Note_on_c,9,38,127,
2,2092,Note_on_c,9,39,127,
2,2092,Note_on_c,9,41,127,
2,2092,Note_on_c,9,42,127,
2,2092,Note_on_c,9,43,127,
2,2092,Note_on_c,9,45,127,
2,2092,Note_on_c,9,48,127,
2,2092,Note_on_c,9,51,127,
2,2092,Note_on_c,9,53,127,
2,2092,Note_on_c,9,80,127,
2,2092,Note_on_c,9,81,127,
2,2092,Note_on_c,9,82,127,
2,2093,Note_off_c,9,36,0,
2,2094,Note_on_c,9,36,127,
2,2094,Note_on_c,9,37,127,
2,2094,Note_on_c,9,38,127,
2,2094,Note_on_c,9,39,127,
2,2094,Note_on_c,9,41,127,
2,2094,Note_on_c,9,42,127,
2,2094,Note_on_c,9,43,127,
2,2094,Note_on_c,9,45,127,
2,2094,Note_on_c,9,48,127,
2,2094,Note_on_c,9,51,127,
2,2094,Note_on_c,9,53,127,
2,2094,Note_on_c,9,80,127,
2,2094,Note_on_c,9,81,127,
2,2094,Note_on_c,9,82,127,
2,2095,Note_off_c,9,36,0,
2,2096,Note_on_c,9,36,127,
2,2096,Note_on_c,9,37,127,
2,2096,Note_on_c,9,38,127,
2,2096,Note_on_c,9,39,127,
2,2096,Note_on_c,9,41,127,
2,2096,Note_on_c,9,42,127,
2,2096,Note_on_c,9,43,127,
2,2096,Note_on_c,9,45,127,
2,2096,Note_on_c,9,48,127,
2,2096,Note_on_c,9,51,127,
2,2096,Note_on_c,9,53,127,
2,2096,Note_on_c,9,80,127,
2,2096,Note_on_c,9,81,127,
2,2096,Note_on_c,9,82,127,
2,2097,Note_off_c,9,36,0,
2,2098,Note_on_c,9,36,127,
2,2098,Note_on_c,9,37,127,
2,2098,Note_on_c,9,38,127,
2,2098,Note_on_c,9,39,127,
2,2098,Note_on_c,9,41,127,
2,2098,Note_on_c,9,42,127,
2,2098,Note_on_c,9,43,127,
2,2098,Note_on_c,9,45,127,
2,2098,Note_on_c,9,48,127,
2,2098,Note_on_c,9,51,127,
2,2098,Note_on_c,9,53,127,
2,2098,Note_on_c,9,80,127,
2,2098,Note_on_c,9,81,127,
2,2098,Note_on_c,9,82,127,
2,2099,Note_off_c,9,36,0,
2,2100,Note_on_c,9,36,127,
2,2100,Note_on_c,9,37,127,
2,2100,Note_on_c,9,38,127,
2,2100,Note_on_c,9,39,127,
2,2100,Note_on_c,9,41,127,
2,2100,Note_on_c,9,42,127,
2,2100,Note_on_c,9,43,127,
2,2100,Note_on_c,9,45,127,
2,2100,Note_on_c,9,48,127,
2,2100,Note_on_c,9,51,127,
2,2100,Note_on_c,9,53,127,
2,2100,Note_on_c,9,80,127,
2,2100,Note_on_c,9,81,127,
2,2100,Note_on_c,9,82,127,
2,2101,Note_off_c,9,36,0,
2,2102,Note_on_c,9,36,127,
2,2102,Note_on_c,9,37,127,
2,2102,Note_on_c,9,38,127,
2,2102,Note_on_c,9,39,127,
2,2102,Note_on_c,9,41,127,
2,2102,Note_on_c,9,42,127,
2,2102,Note_on_c,9,43,127,
2,2102,Note_on_c,9,45,127,
2,2102,Note_on_c,9,48,127,
2,2102,Note_on_c,9,51,127,
2,2102,Note_on_c,9,53,127,
2,2102,Note_on_c,9,80,127,
2,2102,Note_on_c,9,81,127,
2,2102,Note_on_c,9,82,127,
2,2103,Note_off_c,9,36,0,
2,2104,Note_on_c,9,36,127,
2,2104,Note_on_c,9,37,127,
2,2104,Note_on_c,9,38,127,
2,2104,Note_on_c,9,39,127,
2,2104,Note_on_c,9,41,127,
2,2104,Note_on_c,9,42,127,
2,2104,Note_on_c,9,43,127,
2,2104,Note_on_c,9,45,127,
2,2104,Note_on_c,9,48,127,
2,2104,Note_on_c,9,51,127,
2,2104,Note_on_c,9,53,127,
2,2104,Note_on_c,9,80,127,
2,2104,Note_on_c,9,81,127,
2,2104,Note_on_c,9,82,127,
2,2105,Note_off_c,9,36,0,
2,2106,Note_on_c,9,36,127,
2,2106,Note_on_c,9,37,127,
2,2106,Note_on_c,9,38,127,
2,2106,Note_on_c,9,39,127,
2,2106,Note_on_c,9,41,127,
2,2106,Note_on_c,9,42,127,
2,2106,Note_on_c,9,43,127,
2,2106,Note_on_c,9,45,127,
2,2106,Note_on_c,9,48,127,
2,2106,Note_on_c,9,51,127,
2,2106,Note_on_c,9,53,127,
2,2106,Note_on_c,9,80,127,
2,2106,Note_on_c,9,81,127,
2,2106,Note_on_c,9,82,127,
2,2107,Note_off_c,9,36,0,
2,2108,Note_on_c,9,36,127,
2,2108,Note_on_c,9,37,127,
2,2108,Note_on_c,9,38,127,
2,2108,Note_on_c,9,39,127,
2,2108,Note_on_c,9,41,127,
2,2108,Note_on_c,9,42,127,
2,2108,Note_on_c,9,43,127,
2,2108,Note_on_c,9,45,127,
2,2108,Note_on_c,9,48,127,
2,2108,Note_on_c,9,51,127,
2,2108,Note_on_c,9,53,127,
2,2108,Note_on_c,9,80,127,
2,2108,Note_on_c,9,81,127,
2,2108,Note_on_c,9,82,127,
2,2109,Note_off_c,9,36,0,
2,2110,Note_on_c,9,36,127,
2,2110,Note_on_c,9,37,127,
2,2110,Note_on_c,9,38,127,
2,2110,Note_on_c,9,39,127,
2,2110,Note_on_c,9,41,127,
2,2110,Note_on_c,9,42,127,
2,2110,Note_on_c,9,43,127,
2,2110,Note_on_c,9,45,127,
2,2110,Note_on_c,9,48,127,
2,2110,Note_on_c,9,51,127,
2,2110,Note_on_c,9,53,127,
2,2110,Note_on_c,9,80,127,
2,2110,Note_on_c,9,81,127,
2,2110,Note_on_c,9,82,127,
2,2111,Note_off_c,9,36,0,
2,2112,Note_on_c,9,36,127,
2,2112,Note_on_c,9,37,127,
2,2112,Note_on_c,9,38,127,
2,2112,Note_on_c,9,39,127,
2,2112,Note_on_c,9,41,127,
2,2112,Note_on_c,9,42,127,
2,2112,Note_on_c,9,43,127,
2,2112,Note_on_c,9,45,127,
2,2112,Note_on_c,9,48,127,
2,2112,Note_on_c,9,51,127,
2,2112,Note_on_c,9,53,127,
2,2112,Note_on_c,9,80,127,
2,2112,Note_on_c,9,81,127,
2,2112,Note_on_c,9,82,127,
2,2113,Note_off_c,9,36,0,
2,2114,Note_on_c,9,36,127,
2,2114,Note_on_c,9,37,127,
2,2114,Note_on_c,9,38,127,
2,2114,Note_on_c,9,39,127,
2,2114,Note_on_c,9,41,127,
2,2114,Note_on_c,9,42,127,
2,2114,Note_on_c,9,43,127,
2,2114,Note_on_c,9,45,127,
2,2114,Note_on_c,9,48,127,
2,2114,Note_on_c,9,51,127,
2,2114,Note_on_c,9,53,127,
2,2114,Note_on_c,9,80,127,
2,2114,Note_on_c,9,81,127,
2,2114,Note_on_c,9,82,127,
2,2115,Note_off_c,9,36,0,
2,2116,Note_on_c,9,36,127,
2,2116,Note_on_c,9,37,127,
2,2116,Note_on_c,9,38,127,
2,2116,Note_on_c,9,39,127,
2,2116,Note_on_c,9,41,127,
2,2116,Note_on_c,9,42,127,
2,2116,Note_on_c,9,43,127,
2,2116,Note_on_c,9,45,127,
2,2116,Note_on_c,9,48,127,
2,2116,Note_on_c,9,51,127,
2,2116,Note_on_c,9,53,127,
2,2116,Note_on_c,9,80,127,
2,2116,Note_on_c,9,81,127,
2,2116,Note_on_c,9,82,127,
2,2117,Note_off_c,9,36,0,
2,2118,Note_on_c,9,36,127,
2,2118,Note_on_c,9,37,127,
2,2118,Note_on_c,9,38,127,
2,2118,Note_on_c,9,39,127,
2,2118,Note_on_c,9,41,127,
2,2118,Note_on_c,9,42,127,
2,2118,Note_on_c,9,43,127,
2,2118,Note_on_c,9,45,127,
2,2118,Note_on_c,9,48,127,
2,2118,Note_on_c,9,51,127,
2,2118,Note_on_c,9,53,127,
2,2118,Note_on_c,9,80,127,
2,2118,Note_on_c,9,81,127,
2,2118,Note_on_c,9,82,127,
2,2119,Note_off_c,9,36,0,
2,2120,Note_on_c,9,36,127,
2,2120,Note_on_c,9,37,127,
2,2120,Note_on_c,9,38,127,
2,2120,Note_on_c,9,39,127,
2,2120,Note_on_c,9,41,127,
2,2120,Note_on_c,9,42,127,
2,2120,Note_on_c,9,43,127,
2,2120,Note_on_c,9,45,127,
2,2120,Note_on_c,9,48,127,
2,2120,Note_on_c,9,51,127,
2,2120,Note_on_c,9,53,127,
2,2120,Note_on_c,9,80,127,
2,2120,Note_on_c,9,81,127,
2,2120,Note_on_c,9,82,127,
2,2121,Note_off_c,9,36,0,
2,2122,Note_on_c,9,36,127,
2,2122,Note_on_c,9,37,127,
2,2122,Note_on_c,9,38,127,
2,2122,Note_on_c,9,39,127,
2,2122,Note_on_c,9,41,127,
2,2122,Note_on_c,9,42,127,
2,2122,Note_on_c,9,43,127,
2,2122,Note_on_c,9,45,127,
2,2122,Note_on_c,9,48,127,
2,2122,Note_on_c,9,51,127,
2,2122,Note_on_c,9,53,127,
2,2122,Note_on_c,9,80,127,
2,2122,Note_on_c,9,81,127,
2,2122,Note_on_c,9,82,127,
2,2123,Note_off_c,9,36,0,
2,2124,Note_on_c,9,36,127,
2,2124,Note_on_c,9,37,127,
2,2124,Note_on_c,9,38,127,
2,2124,Note_on_c,9,39,127,
2,2124,Note_on_c,9,41,127,
2,2124,Note_on_c,9,42,127,
2,2124,Note_on_c,9,43,127,
2,2124,Note_on_c,9,45,127,
2,2124,Note_on_c,9,48,127,
2,2124,Note_on_c,9,51,127,
2,2124,Note_on_c,9,53,127,
2,2124,Note_on_c,9,80,127,
2,2124,Note_on_c,9,81,127,
2,2124,Note_on_c,9,82,127,
2,2125,Note_off_c,9,36,0,
2,2126,Note_on_c,9,36,127,
2,2126,Note_on_c,9,37,127,
2,2126,Note_on_c,9,38,127,
2,2126,Note_on_c,9,39,127,
2,2126,Note_on_c,9,41,127,
2,2126,Note_on_c,9,42,127,
2,2126,Note_on_c,9,43,127,
2,2126,Note_on_c,9,45,127,
2,2126,Note_on_c,9,48,127,
2,2126,Note_on_c,9,51,127,
2,2126,Note_on_c,9,53,127,
2,2126,Note_on_c,9,80,127,
2,2126,Note_on_c,9,81,127,
2,2126,Note_on_c,9,82,127,
2,2127,Note_off_c,9,36,0,
2,2128,Note_on_c,9,36,127,
2,2128,Note_on_c,9,37,127,
2,2128,Note_on_c,9,38,127,
2,2128,Note_on_c,9,39,127,
2,2128,Note_on_c,9,41,127,
2,2128,Note_on_c,9,42,127,
2,2128,Note_on_c,9,43,127,
2,2128,Note_on_c,9,45,127,
2,2128,Note_on_c,9,48,127,
2,2128,Note_on_c,9,51,127,
2,2128,Note_on_c,9,53,127,
2,2128,Note_on_c,9,80,127,
2,2128,Note_on_c,9,81,127,
2,2128,Note_on_c,9,82,127,
2,2129,Note_off_c,9,36,0,
2,2130,Note_on_c,9,36,127,
2,2130,Note_on_c,9,37,127,
2,2130,Note_on_c,9,38,127,
2,2130,Note_on_c,9,39,127,
2,2130,Note_on_c,9,41,127,
2,2130,Note_on_c,9,42,127,
2,2130,Note_on_c,9,43,127,
2,2130,Note_on_c,9,45,127,
2,2130,Note_on_c,9,48,127,
2,2130,Note_on_c,9,51,127,
2,2130,Note_on_c,9,53,127,
2,2130,Note_on_c,9,80,127,
2,2130,Note_on_c,9,81,127,
2,2130,Note_on_c,9,82,127,
2,2131,Note_off_c,9,36,0,
2,2132,Note_on_c,9,36,127,
2,2132,Note_on_c,9,37,127,
2,2132,Note_on_c,9,38,127,
2,2132,Note_on_c,9,39,127,
2,2132,Note_on_c,9,41,127,
2,2132,Note_on_c,9,42,127,
2,2132,Note_on_c,9,43,127,
2,2132,Note_on_c,9,45,127,
2,2132,Note_on_c,9,48,127,
2,2132,Note_on_c,9,51,127,
2,2132,Note_on_c,9,53,127,
2,2132,Note_on_c,9,80,127,
2,2132,Note_on_c,9,81,127,
2,2132,Note_on_c,9,82,127,
2,2133,Note_off_c,9,36,0,
2,2134,Note_on_c,9,36,127,
2,2134,Note_on_c,9,37,127,
2,2134,Note_on_c,9,38,127,
2,2134,Note_on_c,9,39,127,
2,2134,Note_on_c,9,41,127,
2,2134,Note_on_c,9,42,127,
2,2134,Note_on_c,9,43,127,
2,2134,Note_on_c,9,45,127,
2,2134,Note_on_c,9,48,127,
2,2134,Note_on_c,9,51,127,
2,2134,Note_on_c,9,53,127,
2,2134,Note_on_c,9,80,127,
2,2134,Note_on_c,9,81,127,
2,2134,Note_on_c,9,82,127,
2,2135,Note_off_c,9,36,0,
2,2136,Note_on_c,9,36,127,
2,2136,Note_on_c,9,37,127,
2,2136,Note_on_c,9,38,127,
2,2136,Note_on_c,9,39,127,
2,2136,Note_on_c,9,41,127,
2,2136,Note_on_c,9,42,127,
2,2136,Note_on_c,9,43,127,
2,2136,Note_on_c,9,45,127,
2,2136,Note_on_c,9,48,127,
2,2136,Note_on_c,9,51,127,
2,2136,Note_on_c,9,53,127,
2,2136,Note_on_c,9,80,127,
2,2136,Note_on_c,9,81,127,
2,2136,Note_on_c,9,82,127,
2,2137,Note_off_c,9,36,0,
2,2138,Note_on_c,9,36,127,
2,2138,Note_on_c,9,37,127,
2,2138,Note_on_c,9,38,127,
2,2138,Note_on_c,9,39,127,
2,2138,Note_on_c,9,41,127,
2,2138,Note_on_c,9,42,127,
2,2138,Note_on_c,9,43,127,
2,2138,Note_on_c,9,45,127,
2,2138,Note_on_c,9,48,127,
2,2138,Note_on_c,9,51,127,
2,2138,Note_on_c,9,53,127,
2,2138,Note_on_c,9,80,127,
2,2138,Note_on_c,9,81,127,
2,2138,Note_on_c,9,82,127,
2,2139,Note_off_c,9,36,0,
2,2140,Note_on_c,9,36,127,
2,2140,Note_on_c,9,37,127,
2,2140,Note_on_c,9,38,127,
2,2140,Note_on_c,9,39,127,
2,2140,Note_on_c,9,41,127,
2,2140,Note_on_c,9,42,127,
2,2140,Note_on_c,9,43,127,
2,2140,Note_on_c,9,45,127,
2,2140,Note_on_c,9,48,127,
2,2140,Note_on_c,9,51,127,
2,2140,Note_on_c,9,53,127,
2,2140,Note_on_c,9,80,127,
2,2140,Note_on_c,9,81,127,
2,2140,Note_on_c,9,82,127,
2,2141,Note_off_c,9,36,0,
2,2142,Note_on_c,9,36,127,
2,2142,Note_on_c,9,37,127,
2,2142,Note_on_c,9,38,127,
2,2142,Note_on_c,9,39,127,
2,2142,Note_on_c,9,41,127,
2,2142,Note_on_c,9,42,127,
2,2142,Note_on_c,9,43,127,
2,2142,Note_on_c,9,45,127,
2,2142,Note_on_c,9,48,127,
2,2142,Note_on_c,9,51,127,
2,2142,Note_on_c,9,53,127,
2,2142,Note_on_c,9,80,127,
2,2142,Note_on_c,9,81,127,
2,2142,Note_on_c,9,82,127,
2,2143,Note_off_c,9,36,0,
2,2144,Note_on_c,9,36,127,
2,2144,Note_on_c,9,37,127,
2,2144,Note_on_c,9,38,127,
2,2144,Note_on_c,9,39,127,
2,2144,Note_on_c,9,41,127,
2,2144,Note_on_c,9,42,127,
2,2144,Note_on_c,9,43,127,
2,2144,Note_on_c,9,45,127,
2,2144,Note_on_c,9,48,127,
2,2144,Note_on_c,9,51,127,
2,2144,Note_on_c,9,53,127,
2,2144,Note_on_c,9,80,127,
2,2144,Note_on_c,9,81,127,
2,2144,Note_on_c,9,82,127,
2,2145,Note_off_c,9,36,0,
2,2146,Note_on_c,9,36,127,
2,2146,Note_on_c,9,37,127,
2,2146,Note_on_c,9,38,127,
2,2146,Note_on_c,9,39,127,
2,2146,Note_on_c,9,41,127,
2,2146,Note_on_c,9,42,127,
2,2146,Note_on_c,9,43,127,
2,2146,Note_on_c,9,45,127,
2,2146,Note_on_c,9,48,127,
2,2146,Note_on_c,9,51,127,
2,2146,Note_on_c,9,53,127,
2,2146,Note_on_c,9,80,127,
2,2146,Note_on_c,9,81,127,
2,2146,Note_on_c,9,82,127,
2,2147,Note_off_c,9,36,0,
2,2148,Note_on_c,9,36,127,
2,2148,Note_on_c,9,37,127,
2,2148,Note_on_c,9,38,127,
2,2148,Note_on_c,9,39,127,
2,2148,Note_on_c,9,41,127,
2,2148,Note_on_c,9,42,127,
2,2148,Note_on_c,9,43,127,
2,2148,Note_on_c,9,45,127,
2,2148,Note_on_c,9,48,127,
2,2148,Note_on_c,9,51,127,
2,2148,Note_on_c,9,53,127,
2,2148,Note_on_c,9,80,127,
2,2148,Note_on_c,9,81,127,
2,2148,Note_on_c,9,82,127,
2,2149,Note_off_c,9,36,0,
2,2150,Note_on_c,9,36,127,
2,2150,Note_on_c,9,37,127,
2,2150,Note_on_c,9,38,127,
2,2150,Note_on_c,9,39,127,
2,2150,Note_on_c,9,41,127,
2,2150,Note_on_c,9,42,127,
2,2150,Note_on_c,9,43,127,
2,2150,Note_on_c,9,45,127,
2,2150,Note_on_c,9,48,127,
2,2150,Note_on_c,9,51,127,
2,2150,Note_on_c,9,53,127,
2,2150,Note_on_c,9,80,127,
2,2150,Note_on_c,9,81,127,
2,2150,Note_on_c,9,82,127,
2,2151,Note_off_c,9,36,0,
2,2152,Note_on_c,9,36,127,
2,2152,Note_on_c,9,37,127,
2,2152,Note_on_c,9,38,127,
2,2152,Note_on_c,9,39,127,
2,2152,Note_on_c,9,41,127,
2,2152,Note_on_c,9,42,127,
2,2152,Note_on_c,9,43,127,
2,2152,Note_on_c,9,45,127,
2,2152,Note_on_c,9,48,127,
2,2152,Note_on_c,9,51,127,
2,2152,Note_on_c,9,53,127,
2,2152,Note_on_c,9,80,127,
2,2152,Note_on_c,9,81,127,
2,2152,Note_on_c,9,82,127,
2,2153,Note_off_c,9,36,0,
2,2154,Note_on_c,9,36,127,
2,2154,Note_on_c,9,37,127,
2,2154,Note_on_c,9,38,127,
2,2154,Note_on_c,9,39,127,
2,2154,Note_on_c,9,41,127,
2,2154,Note_on_c,9,42,127,
2,2154,Note_on_c,9,43,127,
2,2154,Note_on_c,9,45,127,
2,2154,Note_on_c,9,48,127,
2,2154,Note_on_c,9,51,127,
2,2154,Note_on_c,9,53,127,
2,2154,Note_on_c,9,80,127,
2,2154,Note_on_c,9,81,127,
2,2154,Note_on_c,9,82,127,
2,2155,Note_off_c,9,36,0,
2,2156,Note_on_c,9,36,127,
2,2156,Note_on_c,9,37,127,
2,2156,Note_on_c,9,38,127,
2,2156,Note_on_c,9,39,127,
2,2156,Note_on_c,9,41,127,
2,2156,Note_on_c,9,42,127,
2,2156,Note_on_c,9,43,127,
2,2156,Note_on_c,9,45,127,
2,2156,Note_on_c,9,48,127,
2,2156,Note_on_c,9,51,127,
2,2156,Note_on_c,9,53,127,
2,2156,Note_on_c,9,80,127,
2,2156,Note_on_c,9,81,127,
2,2156,Note_on_c,9,82,127,
2,2157,Note_off_c,9,36,0,
2,2158,Note_on_c,9,36,127,
2,2158,Note_on_c,9,37,127,
2,2158,Note_on_c,9,38,127,
2,2158,Note_on_c,9,39,127,
2,2158,Note_on_c,9,41,127,
2,2158,Note_on_c,9,42,127,
2,2158,Note_on_c,9,43,127,
2,2158,Note_on_c,9,45,127,
2,2158,Note_on_c,9,48,127,
2,2158,Note_on_c,9,51,127,
2,2158,Note_on_c,9,53,127,
2,2158,Note_on_c,9,80,127,
2,2158,Note_on_c,9,81,127,
2,2158,Note_on_c,9,82,127,
2,2159,Note_off_c,9,36,0,
2,2160,Note_on_c,9,36,127,
2,2160,Note_on_c,9,37,127,
2,2160,Note_on_c,9,38,127,
2,2160,Note_on_c,9,39,127,
2,2160,Note_on_c,9,41,127,
2,2160,Note_on_c,9,42,127,
2,2160,Note_on_c,9,43,127,
2,2160,Note_on_c,9,45,127,
2,2160,Note_on_c,9,48,127,
2,2160,Note_on_c,9,51,127,
2,2160,Note_on_c,9,53,127,
2,2160,Note_on_c,9,80,127,
2,2160,Note_on_c,9,81,127,
2,2160,Note_on_c,9,82,127,
2,2161,Note_off_c,9,36,0,
2,2162,Note_on_c,9,36,127,
2,2162,Note_on_c,9,37,127,
2,2162,Note_on_c,9,38,127,
2,2162,Note_on_c,9,39,127,
2,2162,Note_on_c,9,41,127,
2,2162,Note_on_c,9,42,127,
2,2162,Note_on_c,9,43,127,
2,2162,Note_on_c,9,45,127,
2,2162,Note_on_c,9,48,127,
2,2162,Note_on_c,9,51,127,
2,2162,Note_on_c,9,53,127,
2,2162,Note_on_c,9,80,127,
2,2162,Note_on_c,9,81,127,
2,2162,Note_on_c,9,82,127,
2,2163,Note_off_c,9,36,0,
2,2164,Note_on_c,9,36,127,
2,2164,Note_on_c,9,37,127,
2,2164,Note_on_c,9,38,127,
2,2164,Note_on_c,9,39,127,
2,2164,Note_on_c,9,41,127,
2,2164,Note_on_c,9,42,127,
2,2164,Note_on_c,9,43,127,
2,2164,Note_on_c,9,45,127,
2,2164,Note_on_c,9,48,127,
2,2164,Note_on_c,9,51,127,
2,2164,Note_on_c,9,53,127,
2,2164,Note_on_c,9,80,127,
2,2164,Note_on_c,9,81,127,
2,2164,Note_on_c,9,82,127,
2,2165,Note_off_c,9,36,0,
2,2166,Note_on_c,9,36,127,
2,2166,Note_on_c,9,37,127,
2,2166,Note_on_c,9,38,127,
2,2166,Note_on_c,9,39,127,
2,2166,Note_on_c,9,41,127,
2,2166,Note_on_c,9,42,127,
2,2166,Note_on_c,9,43,127,
2,2166,Note_on_c,9,45,127,
2,2166,Note_on_c,9,48,127,
2,2166,Note_on_c,9,51,127,
2,2166,Note_on_c,9,53,127,
2,2166,Note_on_c,9,80,127,
2,2166,Note_on_c,9,81,127,
2,2166,Note_on_c,9,82,127,
2,2167,Note_off_c,9,36,0,
2,2168,Note_on_c,9,36,127,
2,2168,Note_on_c,9,37,127,
2,2168,Note_on_c,9,38,127,
2,2168,Note_on_c,9,39,127,
2,2168,Note_on_c,9,41,127,
2,2168,Note_on_c,9,42,127,
2,2168,Note_on_c,9,43,127,
2,2168,Note_on_c,9,45,127,
2,2168,Note_on_c,9,48,127,
2,2168,Note_on_c,9,51,127,
2,2168,Note_on_c,9,53,127,
2,2168,Note_on_c,9,80,127,
2,2168,Note_on_c,9,81,127,
2,2168,Note_on_c,9,82,127,
2,2169,Note_off_c,9,36,0,
2,2170,Note_on_c,9,36,127,
2,2170,Note_on_c,9,37,127,
2,2170,Note_on_c,9,38,127,
2,2170,Note_on_c,9,39,127,
2,2170,Note_on_c,9,41,127,
2,2170,Note_on_c,9,42,127,
2,2170,Note_on_c,9,43,127,
2,2170,Note_on_c,9,45,127,
2,2170,Note_on_c,9,48,127,
2,2170,Note_on_c,9,51,127,
2,2170,Note_on_c,9,53,127,
2,2170,Note_on_c,9,80,127,
2,2170,Note_on_c,9,81,127,
2,2170,Note_on_c,9,82,127,
2,2171,Note_off_c,9,36,0,
2,2172,Note_on_c,9,36,127,
2,2172,Note_on_c,9,37,127,
2,2172,Note_on_c,9,38,127,
2,2172,Note_on_c,9,39,127,
2,2172,Note_on_c,9,41,127,
2,2172,Note_on_c,9,42,127,
2,2172,Note_on_c,9,43,127,
2,2172,Note_on_c,9,45,127,
2,2172,Note_on_c,9,48,127,
2,2172,Note_on_c,9,51,127,
2,2172,Note_on_c,9,53,127,
2,2172,Note_on_c,9,80,127,
2,2172,Note_on_c,9,81,127,
2,2172,Note_on_c,9,82,127,
2,2173,Note_off_c,9,36,0,
2,2174,Note_on_c,9,36,127,
2,2174,Note_on_c,9,37,127,
2,2174,Note_on_c,9,38,127,
2,2174,Note_on_c,9,39,127,
2,2174,Note_on_c,9,41,127,
2,2174,Note_on_c,9,42,127,
2,2174,Note_on_c,9,43,127,
2,2174,Note_on_c,9,45,127,
2,2174,Note_on_c,9,48,127,
2,2174,Note_on_c,9,51,127,
2,2174,Note_on_c,9,53,127,
2,2174,Note_on_c,9,80,127,
2,2174,Note_on_c,9,81,127,
2,2174,Note_on_c,9,82,127,
2,2175,Note_off_c,9,36,0,
2,2176,Note_on_c,9,36,127,
2,2176,Note_on_c,9,37,127,
2,2176,Note_on_c,9,38,127,
2,2176,Note_on_c,9,39,127,
2,2176,Note_on_c,9,41,127,
2,2176,Note_on_c,9,42,127,
2,2176,Note_on_c,9,43,127,
2,2176,Note_on_c,9,45,127,
2,2176,Note_on_c,9,48,127,
2,2176,Note_on_c,9,51,127,
2,2176,Note_on_c,9,53,127,
2,2176,Note_on_c,9,80,127,
2,2176,Note_on_c,9,81,127,
2,2176,Note_on_c,9,82,127,
2,2177,Note_off_c,9,36,0,
2,2178,Note_on_c,9,36,127,
2,2178,Note_on_c,9,37,127,
2,2178,Note_on_c,9,38,127,
2,2178,Note_on_c,9,39,127,
2,2178,Note_on_c,9,41,127,
2,2178,Note_on_c,9,42,127,
2,2178,Note_on_c,9,43,127,
2,2178,Note_on_c,9,45,127,
2,2178,Note_on_c,9,48,127,
2,2178,Note_on_c,9,51,127,
2,2178,Note_on_c,9,53,127,
2,2178,Note_on_c,9,80,127,
2,2178,Note_on_c,9,81,127,
2,2178,Note_on_c,9,82,127,
2,2179,Note_off_c,9,36,0,
2,2180,Note_on_c,9,36,127,
2,2180,Note_on_c,9,37,127,
2,2180,Note_on_c,9,38,127,
2,2180,Note_on_c,9,39,127,
2,2180,Note_on_c,9,41,127,
2,2180,Note_on_c,9,42,127,
2,2180,Note_on_c,9,43,127,
2,2180,Note_on_c,9,45,127,
2,2180,Note_on_c,9,48,127,
2,2180,Note_on_c,9,51,127,
2,2180,Note_on_c,9,53,127,
2,2180,Note_on_c,9,80,127,
2,2180,Note_on_c,9,81,127,
2,2180,Note_on_c,9,82,127,
2,2181,Note_off_c,9,36,0,
2,2182,Note_on_c,9,36,127,
2,2182,Note_on_c,9,37,127,
2,2182,Note_on_c,9,38,127,
2,2182,Note_on_c,9,39,127,
2,2182,Note_on_c,9,41,127,
2,2182,Note_on_c,9,42,127,
2,2182,Note_on_c,9,43,127,
2,2182,Note_on_c,9,45,127,
2,2182,Note_on_c,9,48,127,
2,2182,Note_on_c,9,51,127,
2,2182,Note_on_c,9,53,127,
2,2182,Note_on_c,9,80,127,
2,2182,Note_on_c,9,81,127,
2,2182,Note_on_c,9,82,127,
2,2183,Note_off_c,9,36,0,
2,2184,Note_on_c,9,36,127,
2,2184,Note_on_c,9,37,127,
2,2184,Note_on_c,9,38,127,
2,2184,Note_on_c,9,39,127,
2,2184,Note_on_c,9,41,127,
2,2184,Note_on_c,9,42,127,
2,2184,Note_on_c,9,43,127,
2,2184,Note_on_c,9,45,127,
2,2184,Note_on_c,9,48,127,
2,2184,Note_on_c,9,51,127,
2,2184,Note_on_c,9,53,127,
2,2184,Note_on_c,9,80,127,
2,2184,Note_on_c,9,81,127,
2,2184,Note_on_c,9,82,127,
2,2185,Note_off_c,9,36,0,
2,2186,Note_on_c,9,36,127,
2,2186,Note_on_c,9,37,127,
2,2186,Note_on_c,9,38,127,
2,2186,Note_on_c,9,39,127,
2,2186,Note_on_c,9,41,127,
2,2186,Note_on_c,9,42,127,
2,2186,Note_on_c,9,43,127,
2,2186,Note_on_c,9,45,127,
2,2186,Note_on_c,9,48,127,
2,2186,Note_on_c,9,51,127,
2,2186,Note_on_c,9,53,127,
2,2186,Note_on_c,9,80,127,
2,2186,Note_on_c,9,81,127,
2,2186,Note_on_c,9,82,127,
2,2187,Note_off_c,9,36,0,
2,2188,Note_on_c,9,36,127,
2,2188,Note_on_c,9,37,127,
2,2188,Note_on_c,9,38,127,
2,2188,Note_on_c,9,39,127,
2,2188,Note_on_c,9,41,127,
2,2188,Note_on_c,9,42,127,
2,2188,Note_on_c,9,43,127,
2,2188,Note_on_c,9,45,127,
2,2188,Note_on_c,9,48,127,
2,2188,Note_on_c,9,51,127,
2,2188,Note_on_c,9,53,127,
2,2188,Note_on_c,9,80,127,
2,2188,Note_on_c,9,81,127,
2,2188,Note_on_c,9,82,127,
2,2189,Note_off_c,9,36,0,
2,2190,Note_on_c,9,36,127,
2,2190,Note_on_c,9,37,127,
2,2190,Note_on_c,9,38,127,
2,2190,Note_on_c,9,39,127,
2,2190,Note_on_c,9,41,127,
2,2190,Note_on_c,9,42,127,
2,2190,Note_on_c,9,43,127,
2,2190,Note_on_c,9,45,127,
2,2190,Note_on_c,9,48,127,
2,2190,Note_on_c,9,51,127,
2,2190,Note_on_c,9,53,127,
2,2190,Note_on_c,9,80,127,
2,2190,Note_on_c,9,81,127,
2,2190,Note_on_c,9,82,127,
2,2191,Note_off_c,9,36,0,
2,2192,Note_on_c,9,36,127,
2,2192,Note_on_c,9,37,127,
2,2192,Note_on_c,9,38,127,
2,2192,Note_on_c,9,39,127,
2,2192,Note_on_c,9,41,127,
2,2192,Note_on_c,9,42,127,
2,2192,Note_on_c,9,43,127,
2,2192,Note_on_c,9,45,127,
2,2192,Note_on_c,9,48,127,
2,2192,Note_on_c,9,51,127,
2,2192,Note_on_c,9,53,127,
2,2192,Note_on_c,9,80,127,
2,2192,Note_on_c,9,81,127,
2,2192,Note_on_c,9,82,127,
2,2193,Note_off_c,9,36,0,
2,2194,Note_on_c,9,36,127,
2,2194,Note_on_c,9,37,127,
2,2194,Note_on_c,9,38,127,
2,2194,Note_on_c,9,39,127,
2,2194,Note_on_c,9,41,127,
2,2194,Note_on_c,9,42,127,
2,2194,Note_on_c,9,43,127,
2,2194,Note_on_c,9,45,127,
2,2194,Note_on_c,9,48,127,
2,2194,Note_on_c,9,51,127,
2,2194,Note_on_c,9,53,127,
2,2194,Note_on_c,9,80,127,
2,2194,Note_on_c,9,81,127,
2,2194,Note_on_c,9,82,127,
2,2195,Note_off_c,9,36,0,
2,2196,Note_on_c,9,36,127,
2,2196,Note_on_c,9,37,127,
2,2196,Note_on_c,9,38,127,
2,2196,Note_on_c,9,39,127,
2,2196,Note_on_c,9,41,127,
2,2196,Note_on_c,9,42,127,
2,2196,Note_on_c,9,43,127,
2,2196,Note_on_c,9,45,127,
2,2196,Note_on_c,9,48,127,
2,2196,Note_on_c,9,51,127,
2,2196,Note_on_c,9,53,127,
2,2196,Note_on_c,9,80,127,
2,2196,Note_on_c,9,81,127,
2,2196,Note_on_c,9,82,127,
2,2197,Note_off_c,9,36,0,
2,2198,Note_on_c,9,36,127,
2,2198,Note_on_c,9,37,127,
2,2198,Note_on_c,9,38,127,
2,2198,Note_on_c,9,39,127,
2,2198,Note_on_c,9,41,127,
2,2198,Note_on_c,9,42,127,
2,2198,Note_on_c,9,43,127,
2,2198,Note_on_c,9,45,127,
2,2198,Note_on_c,9,48,127,
2,2198,Note_on_c,9,51,127,
2,2198,Note_on_c,9,53,127,
2,2198,Note_on_c,9,80,127,
2,2198,Note_on_c,9,81,127,
2,2198,Note_on_c,9,82,127,
2,2199,Note_off_c,9,36,0,
2,2200,Note_on_c,9,36,127,
2,2200,Note_on_c,9,37,127,
2,2200,Note_on_c,9,38,127,
2,2200,Note_on_c,9,39,127,
2,2200,Note_on_c,9,41,127,
2,2200,Note_on_c,9,42,127,
2,2200,Note_on_c,9,43,127,
2,2200,Note_on_c,9,45,127,
2,2200,Note_on_c,9,48,127,
2,2200,Note_on_c,9,51,127,
2,2200,Note_on_c,9,53,127,
2,2200,Note_on_c,9,80,127,
2,2200,Note_on_c,9,81,127,
2,2200,Note_on_c,9,82,127,
2,2201,Note_off_c,9,36,0,
2,2202,Note_on_c,9,36,127,
2,2202,Note_on_c,9,37,127,
2,2202,Note_on_c,9,38,127,
2,2202,Note_on_c,9,39,127,
2,2202,Note_on_c,9,41,127,
2,2202,Note_on_c,9,42,127,
2,2202,Note_on_c,9,43,127,
2,2202,Note_on_c,9,45,127,
2,2202,Note_on_c,9,48,127,
2,2202,Note_on_c,9,51,127,
2,2202,Note_on_c,9,53,127,
2,2202,Note_on_c,9,80,127,
2,2202,Note_on_c,9,81,127,
2,2202,Note_on_c,9,82,127,
2,2203,Note_off_c,9,36,0,
2,2204,Note_on_c,9,36,127,
2,2204,Note_on_c,9,37,127,
2,2204,Note_on_c,9,38,127,
2,2204,Note_on_c,9,39,127,
2,2204,Note_on_c,9,41,127,
2,2204,Note_on_c,9,42,127,
2,2204,Note_on_c,9,43,127,
2,2204,Note_on_c,9,45,127,
2,2204,Note_on_c,9,48,127,
2,2204,Note_on_c,9,51,127,
2,2204,Note_on_c,9,53,127,
2,2204,Note_on_c,9,80,127,
2,2204,Note_on_c,9,81,127,
2,2204,Note_on_c,9,82,127,
2,2205,Note_off_c,9,36,0,
2,2206,Note_on_c,9,36,127,
2,2206,Note_on_c,9,37,127,
2,2206,Note_on_c,9,38,127,
2,2206,Note_on_c,9,39,127,
2,2206,Note_on_c,9,41,127,
2,2206,Note_on_c,9,42,127,
2,2206,Note_on_c,9,43,127,
2,2206,Note_on_c,9,45,127,
2,2206,Note_on_c,9,48,127,
2,2206,Note_on_c,9,51,127,
2,2206,Note_on_c,9,53,127,
2,2206,Note_on_c,9,80,127,
2,2206,Note_on_c,9,81,127,
2,2206,Note_on_c,9,82,127,
2,2207,Note_off_c,9,36,0,
2,2208,Note_on_c,9,36,127,
2,2208,Note_on_c,9,37,127,
2,2208,Note_on_c,9,38,127,
2,2208,Note_on_c,9,39,127,
2,2208,Note_on_c,9,41,127,
2,2208,Note_on_c,9,42,127,
2,2208,Note_on_c,9,43,127,
2,2208,Note_on_c,9,45,127,
2,2208,Note_on_c,9,48,127,
2,2208,Note_on_c,9,51,127,
2,2208,Note_on_c,9,53,127,
2,2208,Note_on_c,9,80,127,
2,2208,Note_on_c,9,81,127,
2,2208,Note_on_c,9,82,127,
2,2209,Note_off_c,9,36,0,
2,2210,Note_on_c,9,36,127,
2,2210,Note_on_c,9,37,127,
2,2210,Note_on_c,9,38,127,
2,2210,Note_on_c,9,39,127,
2,2210,Note_on_c,9,41,127,
2,2210,Note_on_c,9,42,127,
2,2210,Note_on_c,9,43,127,
2,2210,Note_on_c,9,45,127,
2,2210,Note_on_c,9,48,127,
2,2210,Note_on_c,9,51,127,
2,2210,Note_on_c,9,53,127,
2,2210,Note_on_c,9,80,127,
2,2210,Note_on_c,9,81,127,
2,2210,Note_on_c,9,82,127,
2,2211,Note_off_c,9,36,0,
2,2212,Note_on_c,9,36,127,
2,2212,Note_on_c,9,37,127,
2,2212,Note_on_c,9,38,127,
2,2212,Note_on_c,9,39,127,
2,2212,Note_on_c,9,41,127,
2,2212,Note_on_c,9,42,127,
2,2212,Note_on_c,9,43,127,
2,2212,Note_on_c,9,45,127,
2,2212,Note_on_c,9,48,127,
2,2212,Note_on_c,9,51,127,
2,2212,Note_on_c,9,53,127,
2,2212,Note_on_c,9,80,127,
2,2212,Note_on_c,9,81,127,
2,2212,Note_on_c,9,82,127,
2,2213,Note_off_c,9,36,0,
2,2214,Note_on_c,9,36,127,
2,2214,Note_on_c,9,37,127,
2,2214,Note_on_c,9,38,127,
2,2214,Note_on_c,9,39,127,
2,2214,Note_on_c,9,41,127,
2,2214,Note_on_c,9,42,127,
2,2214,Note_on_c,9,43,127,
2,2214,Note_on_c,9,45,127,
2,2214,Note_on_c,9,48,127,
2,2214,Note_on_c,9,51,127,
2,2214,Note_on_c,9,53,127,
2,2214,Note_on_c,9,80,127,
2,2214,Note_on_c,9,81,127,
2,2214,Note_on_c,9,82,127,
2,2215,Note_off_c,9,36,0,
2,2216,Note_on_c,9,36,127,
2,2216,Note_on_c,9,37,127,
2,2216,Note_on_c,9,38,127,
2,2216,Note_on_c,9,39,127,
2,2216,Note_on_c,9,41,127,
2,2216,Note_on_c,9,42,127,
2,2216,Note_on_c,9,43,127,
2,2216,Note_on_c,9,45,127,
2,2216,Note_on_c,9,48,127,
2,2216,Note_on_c,9,51,127,
2,2216,Note_on_c,9,53,127,
2,2216,Note_on_c,9,80,127,
2,2216,Note_on_c,9,81,127,
2,2216,Note_on_c,9,82,127,
2,2217,Note_off_c,9,36,0,
2,2218,Note_on_c,9,36,127,
2,2218,Note_on_c,9,37,127,
2,2218,Note_on_c,9,38,127,
2,2218,Note_on_c,9,39,127,
2,2218,Note_on_c,9,41,127,
2,2218,Note_on_c,9,42,127,
2,2218,Note_on_c,9,43,127,
2,2218,Note_on_c,9,45,127,
2,2218,Note_on_c,9,48,127,
2,2218,Note_on_c,9,51,127,
2,2218,Note_on_c,9,53,127,
2,2218,Note_on_c,9,80,127,
2,2218,Note_on_c,9,81,127,
2,2218,Note_on_c,9,82,127,
2,2219,Note_off_c,9,36,0,
2,2220,Note_on_c,9,36,127,
2,2220,Note_on_c,9,37,127,
2,2220,Note_on_c,9,38,127,
2,2220,Note_on_c,9,39,127,
2,2220,Note_on_c,9,41,127,
2,2220,Note_on_c,9,42,127,
2,2220,Note_on_c,9,43,127,
2,2220,Note_on_c,9,45,127,
2,2220,Note_on_c,9,48,127,
2,2220,Note_on_c,9,51,127,
2,2220,Note_on_c,9,53,127,
2,2220,Note_on_c,9,80,127,
2,2220,Note_on_c,9,81,127,
2,2220,Note_on_c,9,82,127,
2,2221,Note_off_c,9,36,0,
2,2222,Note_on_c,9,36,127,
2,2222,Note_on_c,9,37,127,
2,2222,Note_on_c,9,38,127,
2,2222,Note_on_c,9,39,127,
2,2222,Note_on_c,9,41,127,
2,2222,Note_on_c,9,42,127,
2,2222,Note_on_c,9,43,127,
2,2222,Note_on_c,9,45,127,
2,2222,Note_on_c,9,48,127,
2,2222,Note_on_c,9,51,127,
2,2222,Note_on_c,9,53,127,
2,2222,Note_on_c,9,80,127,
2,2222,Note_on_c,9,81,127,
2,2222,Note_on_c,9,82,127,
2,2223,Note_off_c,9,36,0,
2,2224,Note_on_c,9,36,127,
2,2224,Note_on_c,9,37,127,
2,2224,Note_on_c,9,38,127,
2,2224,Note_on_c,9,39,127,
2,2224,Note_on_c,9,41,127,
2,2224,Note_on_c,9,42,127,
2,2224,Note_on_c,9,43,127,
2,2224,Note_on_c,9,45,127,
2,2224,Note_on_c,9,48,127,
2,2224,Note_on_c,9,51,127,
2,2224,Note_on_c,9,53,127,
2,2224,Note_on_c,9,80,127,
2,2224,Note_on_c,9,81,127,
2,2224,Note_on_c,9,82,127,
2,2225,Note_off_c,9,36,0,
2,2226,Note_on_c,9,36,127,
2,2226,Note_on_c,9,37,127,
2,2226,Note_on_c,9,38,127,
2,2226,Note_on_c,9,39,127,
2,2226,Note_on_c,9,41,127,
2,2226,Note_on_c,9,42,127,
2,2226,Note_on_c,9,43,127,
2,2226,Note_on_c,9,45,127,
2,2226,Note_on_c,9,48,127,
2,2226,Note_on_c,9,51,127,
2,2226,Note_on_c,9,53,127,
2,2226,Note_on_c,9,80,127,
2,2226,Note_on_c,9,81,127,
2,2226,Note_on_c,9,82,127,
2,2227,Note_off_c,9,36,0,
2,2228,Note_on_c,9,36,127,
2,2228,Note_on_c,9,37,127,
2,2228,Note_on_c,9,38,127,
2,2228,Note_on_c,9,39,127,
2,2228,Note_on_c,9,41,127,
2,2228,Note_on_c,9,42,127,
2,2228,Note_on_c,9,43,127,
2,2228,Note_on_c,9,45,127,
2,2228,Note_on_c,9,48,127,
2,2228,Note_on_c,9,51,127,
2,2228,Note_on_c,9,53,127,
2,2228,Note_on_c,9,80,127,
2,2228,Note_on_c,9,81,127,
2,2228,Note_on_c,9,82,127,
2,2229,Note_off_c,9,36,0,
2,2230,Note_on_c,9,36,127,
2,2230,Note_on_c,9,37,127,
2,2230,Note_on_c,9,38,127,
2,2230,Note_on_c,9,39,127,
2,2230,Note_on_c,9,41,127,
2,2230,Note_on_c,9,42,127,
2,2230,Note_on_c,9,43,127,
2,2230,Note_on_c,9,45,127,
2,2230,Note_on_c,9,48,127,
2,2230,Note_on_c,9,51,127,
2,2230,Note_on_c,9,53,127,
2,2230,Note_on_c,9,80,127,
2,2230,Note_on_c,9,81,127,
2,2230,Note_on_c,9,82,127,
2,2231,Note_off_c,9,36,0,
2,2232,Note_on_c,9,36,127,
2,2232,Note_on_c,9,37,127,
2,2232,Note_on_c,9,38,127,
2,2232,Note_on_c,9,39,127,
2,2232,Note_on_c,9,41,127,
2,2232,Note_on_c,9,42,127,
2,2232,Note_on_c,9,43,127,
2,2232,Note_on_c,9,45,127,
2,2232,Note_on_c,9,48,127,
2,2232,Note_on_c,9,51,127,
2,2232,Note_on_c,9,53,127,
2,2232,Note_on_c,9,80,127,
2,2232,Note_on_c,9,81,127,
2,2232,Note_on_c,9,82,127,
2,2233,Note_off_c,9,36,0,
2,2234,Note_on_c,9,36,127,
2,2234,Note_on_c,9,37,127,
2,2234,Note_on_c,9,38,127,
2,2234,Note_on_c,9,39,127,
2,2234,Note_on_c,9,41,127,
2,2234,Note_on_c,9,42,127,
2,2234,Note_on_c,9,43,127,
2,2234,Note_on_c,9,45,127,
2,2234,Note_on_c,9,48,127,
2,2234,Note_on_c,9,51,127,
2,2234,Note_on_c,9,53,127,
2,2234,Note_on_c,9,80,127,
2,2234,Note_on_c,9,81,127,
2,2234,Note_on_c,9,82,127,
2,2235,Note_off_c,9,36,0,
2,2236,Note_on_c,9,36,127,
2,2236,Note_on_c,9,37,127,
2,2236,Note_on_c,9,38,127,
2,2236,Note_on_c,9,39,127,
2,2236,Note_on_c,9,41,127,
2,2236,Note_on_c,9,42,127,
2,2236,Note_on_c,9,43,127,
2,2236,Note_on_c,9,45,127,
2,2236,Note_on_c,9,48,127,
2,2236,Note_on_c,9,51,127,
2,2236,Note_on_c,9,53,127,
2,2236,Note_on_c,9,80,127,
2,2236,Note_on_c,9,81,127,
2,2236,Note_on_c,9,82,127,
2,2237,Note_off_c,9,36,0,
2,2238,Note_on_c,9,36,127,
2,2238,Note_on_c,9,37,127,
2,2238,Note_on_c,9,38,127,
2,2238,Note_on_c,9,39,127,
2,2238,Note_on_c,9,41,127,
2,2238,Note_on_c,9,42,127,
2,2238,Note_on_c,9,43,127,
2,2238,Note_on_c,9,45,127,
2,2238,Note_on_c,9,48,127,
2,2238,Note_on_c,9,51,127,
2,2238,Note_on_c,9,53,127,
2,2238,Note_on_c,9,80,127,
2,2238,Note_on_c,9,81,127,
2,2238,Note_on_c,9,82,127,
2,2239,Note_off_c,9,36,0,
2,2240,Note_on_c,9,36,127,
2,2240,Note_on_c,9,37,127,
2,2240,Note_on_c,9,38,127,
2,2240,Note_on_c,9,39,127,
2,2240,Note_on_c,9,41,127,
2,2240,Note_on_c,9,42,127,
2,2240,Note_on_c,9,43,127,
2,2240,Note_on_c,9,45,127,
2,2240,Note_on_c,9,48,127,
2,2240,Note_on_c,9,51,127,
2,2240,Note_on_c,9,53,127,
2,2240,Note_on_c,9,80,127,
2,2240,Note_on_c,9,81,127,
2,2240,Note_on_c,9,82,127,
2,2241,Note_off_c,9,36,0,
2,2242,Note_on_c,9,36,127,
2,2242,Note_on_c,9,37,127,
2,2242,Note_on_c,9,38,127,
2,2242,Note_on_c,9,39,127,
2,2242,Note_on_c,9,41,127,
2,2242,Note_on_c,9,42,127,
2,2242,Note_on_c,9,43,127,
2,2242,Note_on_c,9,45,127,
2,2242,Note_on_c,9,48,127,
2,2242,Note_on_c,9,51,127,
2,2242,Note_on_c,9,53,127,
2,2242,Note_on_c,9,80,127,
2,2242,Note_on_c,9,81,127,
2,2242,Note_on_c,9,82,127,
2,2243,Note_off_c,9,36,0,
2,2244,Note_on_c,9,36,127,
2,2244,Note_on_c,9,37,127,
2,2244,Note_on_c,9,38,127,
2,2244,Note_on_c,9,39,127,
2,2244,Note_on_c,9,41,127,
2,2244,Note_on_c,9,42,127,
2,2244,Note_on_c,9,43,127,
2,2244,Note_on_c,9,45,127,
2,2244,Note_on_c,9,48,127,
2,2244,Note_on_c,9,51,127,
2,2244,Note_on_c,9,53,127,
2,2244,Note_on_c,9,80,127,
2,2244,Note_on_c,9,81,127,
2,2244,Note_on_c,9,82,127,
2,2245,Note_off_c,9,36,0,
2,2246,Note_on_c,9,36,127,
2,2246,Note_on_c,9,37,127,
2,2246,Note_on_c,9,38,127,
2,2246,Note_on_c,9,39,127,
2,2246,Note_on_c,9,41,127,
2,2246,Note_on_c,9,42,127,
2,2246,Note_on_c,9,43,127,
2,2246,Note_on_c,9,45,127,
2,2246,Note_on_c,9,48,127,
2,2246,Note_on_c,9,51,127,
2,2246,Note_on_c,9,53,127,
2,2246,Note_on_c,9,80,127,
2,2246,Note_on_c,9,81,127,
2,2246,Note_on_c,9,82,127,
2,2247,Note_off_c,9,36,0,
2,2248,Note_on_c,9,36,127,
2,2248,Note_on_c,9,37,127,
2,2248,Note_on_c,9,38,127,
2,2248,Note_on_c,9,39,127,
2,2248,Note_on_c,9,41,127,
2,2248,Note_on_c,9,42,127,
2,2248,Note_on_c,9,43,127,
2,2248,Note_on_c,9,45,127,
2,2248,Note_on_c,9,48,127,
2,2248,Note_on_c,9,51,127,
2,2248,Note_on_c,9,53,127,
2,2248,Note_on_c,9,80,127,
2,2248,Note_on_c,9,81,127,
2,2248,Note_on_c,9,82,127,
2,2249,Note_off_c,9,36,0,
2,2250,Note_on_c,9,36,127,
2,2250,Note_on_c,9,37,127,
2,2250,Note_on_c,9,38,127,
2,2250,Note_on_c,9,39,127,
2,2250,Note_on_c,9,41,127,
2,2250,Note_on_c,9,42,127,
2,2250,Note_on_c,9,43,127,
2,2250,Note_on_c,9,45,127,
2,2250,Note_on_c,9,48,127,
2,2250,Note_on_c,9,51,127,
2,2250,Note_on_c,9,53,127,
2,2250,Note_on_c,9,80,127,
2,2250,Note_on_c,9,81,127,
2,2250,Note_on_c,9,82,127,
2,2251,Note_off_c,9,36,0,
2,2252,Note_on_c,9,36,127,
2,2252,Note_on_c,9,37,127,
2,2252,Note_on_c,9,38,127,
2,2252,Note_on_c,9,39,127,
2,2252,Note_on_c,9,41,127,
2,2252,Note_on_c,9,42,127,
2,2252,Note_on_c,9,43,127,
2,2252,Note_on_c,9,45,127,
2,2252,Note_on_c,9,48,127,
2,2252,Note_on_c,9,51,127,
2,2252,Note_on_c,9,53,127,
2,2252,Note_on_c,9,80,127,
2,2252,Note_on_c,9,81,127,
2,2252,Note_on_c,9,82,127,
2,2253,Note_off_c,9,36,0,
2,2254,Note_on_c,9,36,127,
2,2254,Note_on_c,9,37,127,
2,2254,Note_on_c,9,38,127,
2,2254,Note_on_c,9,39,127,
2,2254,Note_on_c,9,41,127,
2,2254,Note_on_c,9,42,127,
2,2254,Note_on_c,9,43,127,
2,2254,Note_on_c,9,45,127,
2,2254,Note_on_c,9,48,127,
2,2254,Note_on_c,9,51,127,
2,2254,Note_on_c,9,53,127,
2,2254,Note_on_c,9,80,127,
2,2254,Note_on_c,9,81,127,
2,2254,Note_on_c,9,82,127,
2,2255,Note_off_c,9,36,0,
2,2256,Note_on_c,9,36,127,
2,2256,Note_on_c,9,37,127,
2,2256,Note_on_c,9,38,127,
2,2256,Note_on_c,9,39,127,
2,2256,Note_on_c,9,41,127,
2,2256,Note_on_c,9,42,127,
2,2256,Note_on_c,9,43,127,
2,2256,Note_on_c,9,45,127,
2,2256,Note_on_c,9,48,127,
2,2256,Note_on_c,9,51,127,
2,2256,Note_on_c,9,53,127,
2,2256,Note_on_c,9,80,127,
2,2256,Note_on_c,9,81,127,
2,2256,Note_on_c,9,82,127,
2,2257,Note_off_c,9,36,0,
2,2258,Note_on_c,9,36,127,
2,2258,Note_on_c,9,37,127,
2,2258,Note_on_c,9,38,127,
2,2258,Note_on_c,9,39,127,
2,2258,Note_on_c,9,41,127,
2,2258,Note_on_c,9,42,127,
2,2258,Note_on_c,9,43,127,
2,2258,Note_on_c,9,45,127,
2,2258,Note_on_c,9,48,127,
2,2258,Note_on_c,9,51,127,
2,2258,Note_on_c,9,53,127,
2,2258,Note_on_c,9,80,127,
2,2258,Note_on_c,9,81,127,
2,2258,Note_on_c,9,82,127,
2,2259,Note_off_c,9,36,0,
2,2260,Note_on_c,9,36,127,
2,2260,Note_on_c,9,37,127,
2,2260,Note_on_c,9,38,127,
2,2260,Note_on_c,9,39,127,
2,2260,Note_on_c,9,41,127,
2,2260,Note_on_c,9,42,127,
2,2260,Note_on_c,9,43,127,
2,2260,Note_on_c,9,45,127,
2,2260,Note_on_c,9,48,127,
2,2260,Note_on_c,9,51,127,
2,2260,Note_on_c,9,53,127,
2,2260,Note_on_c,9,80,127,
2,2260,Note_on_c,9,81,127,
2,2260,Note_on_c,9,82,127,
2,2261,Note_off_c,9,36,0,
2,2262,Note_on_c,9,36,127,
2,2262,Note_on_c,9,37,127,
2,2262,Note_on_c,9,38,127,
2,2262,Note_on_c,9,39,127,
2,2262,Note_on_c,9,41,127,
2,2262,Note_on_c,9,42,127,
2,2262,Note_on_c,9,43,127,
2,2262,Note_on_c,9,45,127,
2,2262,Note_on_c,9,48,127,
2,2262,Note_on_c,9,51,127,
2,2262,Note_on_c,9,53,127,
2,2262,Note_on_c,9,80,127,
2,2262,Note_on_c,9,81,127,
2,2262,Note_on_c,9,82,127,
2,2263,Note_off_c,9,36,0,
2,2264,Note_on_c,9,36,127,
2,2264,Note_on_c,9,37,127,
2,2264,Note_on_c,9,38,127,
2,2264,Note_on_c,9,39,127,
2,2264,Note_on_c,9,41,127,
2,2264,Note_on_c,9,42,127,
2,2264,Note_on_c,9,43,127,
2,2264,Note_on_c,9,45,127,
2,2264,Note_on_c,9,48,127,
2,2264,Note_on_c,9,51,127,
2,2264,Note_on_c,9,53,127,
2,2264,Note_on_c,9,80,127,
2,2264,Note_on_c,9,81,127,
2,2264,Note_on_c,9,82,127,
2,2265,Note_off_c,9,36,0,
2,2266,Note_on_c,9,36,127,
2,2266,Note_on_c,9,37,127,
2,2266,Note_on_c,9,38,127,
2,2266,Note_on_c,9,39,127,
2,2266,Note_on_c,9,41,127,
2,2266,Note_on_c,9,42,127,
2,2266,Note_on_c,9,43,127,
2,2266,Note_on_c,9,45,127,
2,2266,Note_on_c,9,48,127,
2,2266,Note_on_c,9,51,127,
2,2266,Note_on_c,9,53,127,
2,2266,Note_on_c,9,80,127,
2,2266,Note_on_c,9,81,127,
2,2266,Note_on_c,9,82,127,
2,2267,Note_off_c,9,36,0,
2,2268,Note_on_c,9,36,127,
2,2268,Note_on_c,9,37,127,
2,2268,Note_on_c,9,38,127,
2,2268,Note_on_c,9,39,127,
2,2268,Note_on_c,9,41,127,
2,2268,Note_on_c,9,42,127,
2,2268,Note_on_c,9,43,127,
2,2268,Note_on_c,9,45,127,
2,2268,Note_on_c,9,48,127,
2,2268,Note_on_c,9,51,127,
2,2268,Note_on_c,9,53,127,
2,2268,Note_on_c,9,80,127,
2,2268,Note_on_c,9,81,127,
2,2268,Note_on_c,9,82,127,
2,2269,Note_off_c,9,36,0,
2,2270,Note_on_c,9,36,127,
2,2270,Note_on_c,9,37,127,
2,2270,Note_on_c,9,38,127,
2,2270,Note_on_c,9,39,127,
2,2270,Note_on_c,9,41,127,
2,2270,Note_on_c,9,42,127,
2,2270,Note_on_c,9,43,127,
2,2270,Note_on_c,9,45,127,
2,2270,Note_on_c,9,48,127,
2,2270,Note_on_c,9,51,127,
2,2270,Note_on_c,9,53,127,
2,2270,Note_on_c,9,80,127,
2,2270,Note_on_c,9,81,127,
2,2270,Note_on_c,9,82,127,
2,2271,Note_off_c,9,36,0,
2,2272,Note_on_c,9,36,127,
2,2272,Note_on_c,9,37,127,
2,2272,Note_on_c,9,38,127,
2,2272,Note_on_c,9,39,127,
2,2272,Note_on_c,9,41,127,
2,2272,Note_on_c,9,42,127,
2,2272,Note_on_c,9,43,127,
2,2272,Note_on_c,9,45,127,
2,2272,Note_on_c,9,48,127,
2,2272,Note_on_c,9,51,127,
2,2272,Note_on_c,9,53,127,
2,2272,Note_on_c,9,80,127,
2,2272,Note_on_c,9,81,127,
2,2272,Note_on_c,9,82,127,
2,2273,Note_off_c,9,36,0,
2,2274,Note_on_c,9,36,127,
2,2274,Note_on_c,9,37,127,
2,2274,Note_on_c,9,38,127,
2,2274,Note_on_c,9,39,127,
2,2274,Note_on_c,9,41,127,
2,2274,Note_on_c,9,42,127,
2,2274,Note_on_c,9,43,127,
2,2274,Note_on_c,9,45,127,
2,2274,Note_on_c,9,48,127,
2,2274,Note_on_c,9,51,127,
2,2274,Note_on_c,9,53,127,
2,2274,Note_on_c,9,80,127,
2,2274,Note_on_c,9,81,127,
2,2274,Note_on_c,9,82,127,
2,2275,Note_off_c,9,36,0,
2,2276,Note_on_c,9,36,127,
2,2276,Note_on_c,9,37,127,
2,2276,Note_on_c,9,38,127,
2,2276,Note_on_c,9,39,127,
2,2276,Note_on_c,9,41,127,
2,2276,Note_on_c,9,42,127,
2,2276,Note_on_c,9,43,127,
2,2276,Note_on_c,9,45,127,
2,2276,Note_on_c,9,48,127,
2,2276,Note_on_c,9,51,127,
2,2276,Note_on_c,9,53,127,
2,2276,Note_on_c,9,80,127,
2,2276,Note_on_c,9,81,127,
2,2276,Note_on_c,9,82,127,
2,2277,Note_off_c,9,36,0,
2,2278,Note_on_c,9,36,127,
2,2278,Note_on_c,9,37,127,
2,2278,Note_on_c,9,38,127,
2,2278,Note_on_c,9,39,127,
2,2278,Note_on_c,9,41,127,
2,2278,Note_on_c,9,42,127,
2,2278,Note_on_c,9,43,127,
2,2278,Note_on_c,9,45,127,
2,2278,Note_on_c,9,48,127,
2,2278,Note_on_c,9,51,127,
2,2278,Note_on_c,9,53,127,
2,2278,Note_on_c,9,80,127,
2,2278,Note_on_c,9,81,127,
2,2278,Note_on_c,9,82,127,
2,2279,Note_off_c,9,36,0,
2,2280,Note_on_c,9,36,127,
2,2280,Note_on_c,9,37,127,
2,2280,Note_on_c,9,38,127,
2,2280,Note_on_c,9,39,127,
2,2280,Note_on_c,9,41,127,
2,2280,Note_on_c,9,42,127,
2,2280,Note_on_c,9,43,127,
2,2280,Note_on_c,9,45,127,
2,2280,Note_on_c,9,48,127,
2,2280,Note_on_c,9,51,127,
2,2280,Note_on_c,9,53,127,
2,2280,Note_on_c,9,80,127,
2,2280,Note_on_c,9,81,127,
2,2280,Note_on_c,9,82,127,
2,2281,Note_off_c,9,36,0,
2,2282,Note_on_c,9,36,127,
2,2282,Note_on_c,9,37,127,
2,2282,Note_on_c,9,38,127,
2,2282,Note_on_c,9,39,127,
2,2282,Note_on_c,9,41,127,
2,2282,Note_on_c,9,42,127,
2,2282,Note_on_c,9,43,127,
2,2282,Note_on_c,9,45,127,
2,2282,Note_on_c,9,48,127,
2,2282,Note_on_c,9,51,127,
2,2282,Note_on_c,9,53,127,
2,2282,Note_on_c,9,80,127,
2,2282,Note_on_c,9,81,127,
2,2282,Note_on_c,9,82,127,
2,2283,Note_off_c,9,36,0,
2,2284,Note_on_c,9,36,127,
2,2284,Note_on_c,9,37,127,
2,2284,Note_on_c,9,38,127,
2,2284,Note_on_c,9,39,127,
2,2284,Note_on_c,9,41,127,
2,2284,Note_on_c,9,42,127,
2,2284,Note_on_c,9,43,127,
2,2284,Note_on_c,9,45,127,
2,2284,Note_on_c,9,48,127,
2,2284,Note_on_c,9,51,127,
2,2284,Note_on_c,9,53,127,
2,2284,Note_on_c,9,80,127,
2,2284,Note_on_c,9,81,127,
2,2284,Note_on_c,9,82,127,
2,2285,Note_off_c,9,36,0,
2,2286,Note_on_c,9,36,127,
2,2286,Note_on_c,9,37,127,
2,2286,Note_on_c,9,38,127,
2,2286,Note_on_c,9,39,127,
2,2286,Note_on_c,9,41,127,
2,2286,Note_on_c,9,42,127,
2,2286,Note_on_c,9,43,127,
2,2286,Note_on_c,9,45,127,
2,2286,Note_on_c,9,48,127,
2,2286,Note_on_c,9,51,127,
2,2286,Note_on_c,9,53,127,
2,2286,Note_on_c,9,80,127,
2,2286,Note_on_c,9,81,127,
2,2286,Note_on_c,9,82,127,
2,2287,Note_off_c,9,36,0,
2,2288,Note_on_c,9,36,127,
2,2288,Note_on_c,9,37,127,
2,2288,Note_on_c,9,38,127,
2,2288,Note_on_c,9,39,127,
2,2288,Note_on_c,9,41,127,
2,2288,Note_on_c,9,42,127,
2,2288,Note_on_c,9,43,127,
2,2288,Note_on_c,9,45,127,
2,2288,Note_on_c,9,48,127,
2,2288,Note_on_c,9,51,127,
2,2288,Note_on_c,9,53,127,
2,2288,Note_on_c,9,80,127,
2,2288,Note_on_c,9,81,127,
2,2288,Note_on_c,9,82,127,
2,2289,Note_off_c,9,36,0,
2,2290,Note_on_c,9,36,127,
2,2290,Note_on_c,9,37,127,
2,2290,Note_on_c,9,38,127,
2,2290,Note_on_c,9,39,127,
2,2290,Note_on_c,9,41,127,
2,2290,Note_on_c,9,42,127,
2,2290,Note_on_c,9,43,127,
2,2290,Note_on_c,9,45,127,
2,2290,Note_on_c,9,48,127,
2,2290,Note_on_c,9,51,127,
2,2290,Note_on_c,9,53,127,
2,2290,Note_on_c,9,80,127,
2,2290,Note_on_c,9,81,127,
2,2290,Note_on_c,9,82,127,
2,2291,Note_off_c,9,36,0,
2,2292,Note_on_c,9,36,127,
2,2292,Note_on_c,9,37,127,
2,2292,Note_on_c,9,38,127,
2,2292,Note_on_c,9,39,127,
2,2292,Note_on_c,9,41,127,
2,2292,Note_on_c,9,42,127,
2,2292,Note_on_c,9,43,127,
2,2292,Note_on_c,9,45,127,
2,2292,Note_on_c,9,48,127,
2,2292,Note_on_c,9,51,127,
2,2292,Note_on_c,9,53,127,
2,2292,Note_on_c,9,80,127,
2,2292,Note_on_c,9,81,127,
2,2292,Note_on_c,9,82,127,
2,2293,Note_off_c,9,36,0,
2,2294,Note_on_c,9,36,127,
2,2294,Note_on_c,9,37,127,
2,2294,Note_on_c,9,38,127,
2,2294,Note_on_c,9,39,127,
2,2294,Note_on_c,9,41,127,
2,2294,Note_on_c,9,42,127,
2,2294,Note_on_c,9,43,127,
2,2294,Note_on_c,9,45,127,
2,2294,Note_on_c,9,48,127,
2,2294,Note_on_c,9,51,127,
2,2294,Note_on_c,9,53,127,
2,2294,Note_on_c,9,80,127,
2,2294,Note_on_c,9,81,127,
2,2294,Note_on_c,9,82,127,
2,2295,Note_off_c,9,36,0,
2,2296,Note_on_c,9,36,127,
2,2296,Note_on_c,9,37,127,
2,2296,Note_on_c,9,38,127,
2,2296,Note_on_c,9,39,127,
2,2296,Note_on_c,9,41,127,
2,2296,Note_on_c,9,42,127,
2,2296,Note_on_c,9,43,127,
2,2296,Note_on_c,9,45,127,
2,2296,Note_on_c,9,48,127,
2,2296,Note_on_c,9,51,127,
2,2296,Note_on_c,9,53,127,
2,2296,Note_on_c,9,80,127,
2,2296,Note_on_c,9,81,127,
2,2296,Note_on_c,9,82,127,
2,2297,Note_off_c,9,36,0,
2,2298,Note_on_c,9,36,127,
2,2298,Note_on_c,9,37,127,
2,2298,Note_on_c,9,38,127,
2,2298,Note_on_c,9,39,127,
2,2298,Note_on_c,9,41,127,
2,2298,Note_on_c,9,42,127,
2,2298,Note_on_c,9,43,127,
2,2298,Note_on_c,9,45,127,
2,2298,Note_on_c,9,48,127,
2,2298,Note_on_c,9,51,127,
2,2298,Note_on_c,9,53,127,
2,2298,Note_on_c,9,80,127,
2,2298,Note_on_c,9,81,127,
2,2298,Note_on_c,9,82,127,
2,2299,Note_off_c,9,36,0,
2,2300,Note_on_c,9,36,127,
2,2300,Note_on_c,9,37,127,
2,2300,Note_on_c,9,38,127,
2,2300,Note_on_c,9,39,127,
2,2300,Note_on_c,9,41,127,
2,2300,Note_on_c,9,42,127,
2,2300,Note_on_c,9,43,127,
2,2300,Note_on_c,9,45,127,
2,2300,Note_on_c,9,48,127,
2,2300,Note_on_c,9,51,127,
2,2300,Note_on_c,9,53,127,
2,2300,Note_on_c,9,80,127,
2,2300,Note_on_c,9,81,127,
2,2300,Note_on_c,9,82,127,
2,2301,Note_off_c,9,36,0,
2,2302,Note_on_c,9,36,127,
2,2302,Note_on_c,9,37,127,
2,2302,Note_on_c,9,38,127,
2,2302,Note_on_c,9,39,127,
2,2302,Note_on_c,9,41,127,
2,2302,Note_on_c,9,42,127,
2,2302,Note_on_c,9,43,127,
2,2302,Note_on_c,9,45,127,
2,2302,Note_on_c,9,48,127,
2,2302,Note_on_c,9,51,127,
2,2302,Note_on_c,9,53,127,
2,2302,Note_on_c,9,80,127,
2,2302,Note_on_c,9,81,127,
2,2302,Note_on_c,9,82,127,
2,2303,Note_off_c,9,36,0,
2,2304,Note_on_c,9,36,127,
2,2304,Note_on_c,9,37,127,
2,2304,Note_on_c,9,38,127,
2,2304,Note_on_c,9,39,127,
2,2304,Note_on_c,9,41,127,
2,2304,Note_on_c,9,42,127,
2,2304,Note_on_c,9,43,127,
2,2304,Note_on_c,9,45,127,
2,2304,Note_on_c,9,48,127,
2,2304,Note_on_c,9,51,127,
2,2304,Note_on_c,9,53,127,
2,2304,Note_on_c,9,80,127,
2,2304,Note_on_c,9,81,127,
2,2304,Note_on_c,9,82,127,
2,2305,Note_off_c,9,36,0,
2,2306,Note_on_c,9,36,127,
2,2306,Note_on_c,9,37,127,
2,2306,Note_on_c,9,38,127,
2,2306,Note_on_c,9,39,127,
2,2306,Note_on_c,9,41,127,
2,2306,Note_on_c,9,42,127,
2,2306,Note_on_c,9,43,127,
2,2306,Note_on_c,9,45,127,
2,2306,Note_on_c,9,48,127,
2,2306,Note_on_c,9,51,127,
2,2306,Note_on_c,9,53,127,
2,2306,Note_on_c,9,80,127,
2,2306,Note_on_c,9,81,127,
2,2306,Note_on_c,9,82,127,
2,2307,Note_off_c,9,36,0,
2,2308,Note_on_c,9,36,127,
2,2308,Note_on_c,9,37,127,
2,2308,Note_on_c,9,38,127,
2,2308,Note_on_c,9,39,127,
2,2308,Note_on_c,9,41,127,
2,2308,Note_on_c,9,42,127,
2,2308,Note_on_c,9,43,127,
2,2308,Note_on_c,9,45,127,
2,2308,Note_on_c,9,48,127,
2,2308,Note_on_c,9,51,127,
2,2308,Note_on_c,9,53,127,
2,2308,Note_on_c,9,80,127,
2,2308,Note_on_c,9,81,127,
2,2308,Note_on_c,9,82,127,
2,2309,Note_off_c,9,36,0,
2,2310,Note_on_c,9,36,127,
2,2310,Note_on_c,9,37,127,
2,2310,Note_on_c,9,38,127,
2,2310,Note_on_c,9,39,127,
2,2310,Note_on_c,9,41,127,
2,2310,Note_on_c,9,42,127,
2,2310,Note_on_c,9,43,127,
2,2310,Note_on_c,9,45,127,
2,2310,Note_on_c,9,48,127,
2,2310,Note_on_c,9,51,127,
2,2310,Note_on_c,9,53,127,
2,2310,Note_on_c,9,80,127,
2,2310,Note_on_c,9,81,127,
2,2310,Note_on_c,9,82,127,
2,2311,Note_off_c,9,36,0,
2,2312,Note_on_c,9,36,127,
2,2312,Note_on_c,9,37,127,
2,2312,Note_on_c,9,38,127,
2,2312,Note_on_c,9,39,127,
2,2312,Note_on_c,9,41,127,
2,2312,Note_on_c,9,42,127,
2,2312,Note_on_c,9,43,127,
2,2312,Note_on_c,9,45,127,
2,2312,Note_on_c,9,48,127,
2,2312,Note_on_c,9,51,127,
2,2312,Note_on_c,9,53,127,
2,2312,Note_on_c,9,80,127,
2,2312,Note_on_c,9,81,127,
2,2312,Note_on_c,9,82,127,
2,2313,Note_off_c,9,36,0,
2,2314,Note_on_c,9,36,127,
2,2314,Note_on_c,9,37,127,
2,2314,Note_on_c,9,38,127,
2,2314,Note_on_c,9,39,127,
2,2314,Note_on_c,9,41,127,
2,2314,Note_on_c,9,42,127,
2,2314,Note_on_c,9,43,127,
2,2314,Note_on_c,9,45,127,
2,2314,Note_on_c,9,48,127,
2,2314,Note_on_c,9,51,127,
2,2314,Note_on_c,9,53,127,
2,2314,Note_on_c,9,80,127,
2,2314,Note_on_c,9,81,127,
2,2314,Note_on_c,9,82,127,
2,2315,Note_off_c,9,36,0,
2,2316,Note_on_c,9,36,127,
2,2316,Note_on_c,9,37,127,
2,2316,Note_on_c,9,38,127,
2,2316,Note_on_c,9,39,127,
2,2316,Note_on_c,9,41,127,
2,2316,Note_on_c,9,42,127,
2,2316,Note_on_c,9,43,127,
2,2316,Note_on_c,9,45,127,
2,2316,Note_on_c,9,48,127,
2,2316,Note_on_c,9,51,127,
2,2316,Note_on_c,9,53,127,
2,2316,Note_on_c,9,80,127,
2,2316,Note_on_c,9,81,127,
2,2316,Note_on_c,9,82,127,
2,2317,Note_off_c,9,36,0,
2,2318,Note_on_c,9,36,127,
2,2318,Note_on_c,9,37,127,
2,2318,Note_on_c,9,38,127,
2,2318,Note_on_c,9,39,127,
2,2318,Note_on_c,9,41,127,
2,2318,Note_on_c,9,42,127,
2,2318,Note_on_c,9,43,127,
2,2318,Note_on_c,9,45,127,
2,2318,Note_on_c,9,48,127,
2,2318,Note_on_c,9,51,127,
2,2318,Note_on_c,9,53,127,
2,2318,Note_on_c,9,80,127,
2,2318,Note_on_c,9,81,127,
2,2318,Note_on_c,9,82,127,
2,2319,Note_off_c,9,36,0,
2,2320,Note_on_c,9,36,127,
2,2320,Note_on_c,9,37,127,
2,2320,Note_on_c,9,38,127,
2,2320,Note_on_c,9,39,127,
2,2320,Note_on_c,9,41,127,
2,2320,Note_on_c,9,42,127,
2,2320,Note_on_c,9,43,127,
2,2320,Note_on_c,9,45,127,
2,2320,Note_on_c,9,48,127,
2,2320,Note_on_c,9,51,127,
2,2320,Note_on_c,9,53,127,
2,2320,Note_on_c,9,80,127,
2,2320,Note_on_c,9,81,127,
2,2320,Note_on_c,9,82,127,
2,2321,Note_off_c,9,36,0,
2,2322,Note_on_c,9,36,127,
2,2322,Note_on_c,9,37,127,
2,2322,Note_on_c,9,38,127,
2,2322,Note_on_c,9,39,127,
2,2322,Note_on_c,9,41,127,
2,2322,Note_on_c,9,42,127,
2,2322,Note_on_c,9,43,127,
2,2322,Note_on_c,9,45,127,
2,2322,Note_on_c,9,48,127,
2,2322,Note_on_c,9,51,127,
2,2322,Note_on_c,9,53,127,
2,2322,Note_on_c,9,80,127,
2,2322,Note_on_c,9,81,127,
2,2322,Note_on_c,9,82,127,
2,2323,Note_off_c,9,36,0,
2,2324,Note_on_c,9,36,127,
2,2324,Note_on_c,9,37,127,
2,2324,Note_on_c,9,38,127,
2,2324,Note_on_c,9,39,127,
2,2324,Note_on_c,9,41,127,
2,2324,Note_on_c,9,42,127,
2,2324,Note_on_c,9,43,127,
2,2324,Note_on_c,9,45,127,
2,2324,Note_on_c,9,48,127,
2,2324,Note_on_c,9,51,127,
2,2324,Note_on_c,9,53,127,
2,2324,Note_on_c,9,80,127,
2,2324,Note_on_c,9,81,127,
2,2324,Note_on_c,9,82,127,
2,2325,Note_off_c,9,36,0,
2,2326,Note_on_c,9,36,127,
2,2326,Note_on_c,9,37,127,
2,2326,Note_on_c,9,38,127,
2,2326,Note_on_c,9,39,127,
2,2326,Note_on_c,9,41,127,
2,2326,Note_on_c,9,42,127,
2,2326,Note_on_c,9,43,127,
2,2326,Note_on_c,9,45,127,
2,2326,Note_on_c,9,48,127,
2,2326,Note_on_c,9,51,127,
2,2326,Note_on_c,9,53,127,
2,2326,Note_on_c,9,80,127,
2,2326,Note_on_c,9,81,127,
2,2326,Note_on_c,9,82,127,
2,2327,Note_off_c,9,36,0,
2,2328,Note_on_c,9,36,127,
2,2328,Note_on_c,9,37,127,
2,2328,Note_on_c,9,38,127,
2,2328,Note_on_c,9,39,127,
2,2328,Note_on_c,9,41,127,
2,2328,Note_on_c,9,42,127,
2,2328,Note_on_c,9,43,127,
2,2328,Note_on_c,9,45,127,
2,2328,Note_on_c,9,48,127,
2,2328,Note_on_c,9,51,127,
2,2328,Note_on_c,9,53,127,
2,2328,Note_on_c,9,80,127,
2,2328,Note_on_c,9,81,127,
2,2328,Note_on_c,9,82,127,
2,2329,Note_off_c,9,36,0,
2,2330,Note_on_c,9,36,127,
2,2330,Note_on_c,9,37,127,
2,2330,Note_on_c,9,38,127,
2,2330,Note_on_c,9,39,127,
2,2330,Note_on_c,9,41,127,
2,2330,Note_on_c,9,42,127,
2,2330,Note_on_c,9,43,127,
2,2330,Note_on_c,9,45,127,
2,2330,Note_on_c,9,48,127,
2,2330,Note_on_c,9,51,127,
2,2330,Note_on_c,9,53,127,
2,2330,Note_on_c,9,80,127,
2,2330,Note_on_c,9,81,127,
2,2330,Note_on_c,9,82,127,
2,2331,Note_off_c,9,36,0,
2,2332,Note_on_c,9,36,127,
2,2332,Note_on_c,9,37,127,
2,2332,Note_on_c,9,38,127,
2,2332,Note_on_c,9,39,127,
2,2332,Note_on_c,9,41,127,
2,2332,Note_on_c,9,42,127,
2,2332,Note_on_c,9,43,127,
2,2332,Note_on_c,9,45,127,
2,2332,Note_on_c,9,48,127,
2,2332,Note_on_c,9,51,127,
2,2332,Note_on_c,9,53,127,
2,2332,Note_on_c,9,80,127,
2,2332,Note_on_c,9,81,127,
2,2332,Note_on_c,9,82,127,
2,2333,Note_off_c,9,36,0,
2,2334,Note_on_c,9,36,127,
2,2334,Note_on_c,9,37,127,
2,2334,Note_on_c,9,38,127,
2,2334,Note_on_c,9,39,127,
2,2334,Note_on_c,9,41,127,
2,2334,Note_on_c,9,42,127,
2,2334,Note_on_c,9,43,127,
2,2334,Note_on_c,9,45,127,
2,2334,Note_on_c,9,48,127,
2,2334,Note_on_c,9,51,127,
2,2334,Note_on_c,9,53,127,
2,2334,Note_on_c,9,80,127,
2,2334,Note_on_c,9,81,127,
2,2334,Note_on_c,9,82,127,
2,2335,Note_off_c,9,36,0,
2,2336,Note_on_c,9,36,127,
2,2336,Note_on_c,9,37,127,
2,2336,Note_on_c,9,38,127,
2,2336,Note_on_c,9,39,127,
2,2336,Note_on_c,9,41,127,
2,2336,Note_on_c,9,42,127,
2,2336,Note_on_c,9,43,127,
2,2336,Note_on_c,9,45,127,
2,2336,Note_on_c,9,48,127,
2,2336,Note_on_c,9,51,127,
2,2336,Note_on_c,9,53,127,
2,2336,Note_on_c,9,80,127,
2,2336,Note_on_c,9,81,127,
2,2336,Note_on_c,9,82,127,
2,2337,Note_off_c,9,36,0,
2,2338,Note_on_c,9,36,127,
2,2338,Note_on_c,9,37,127,
2,2338,Note_on_c,9,38,127,
2,2338,Note_on_c,9,39,127,
2,2338,Note_on_c,9,41,127,
2,2338,Note_on_c,9,42,127,
2,2338,Note_on_c,9,43,127,
2,2338,Note_on_c,9,45,127,
2,2338,Note_on_c,9,48,127,
2,2338,Note_on_c,9,51,127,
2,2338,Note_on_c,9,53,127,
2,2338,Note_on_c,9,80,127,
2,2338,Note_on_c,9,81,127,
2,2338,Note_on_c,9,82,127,
2,2339,Note_off_c,9,36,0,
2,2340,Note_on_c,9,36,127,
2,2340,Note_on_c,9,37,127,
2,2340,Note_on_c,9,38,127,
2,2340,Note_on_c,9,39,127,
2,2340,Note_on_c,9,41,127,
2,2340,Note_on_c,9,42,127,
2,2340,Note_on_c,9,43,127,
2,2340,Note_on_c,9,45,127,
2,2340,Note_on_c,9,48,127,
2,2340,Note_on_c,9,51,127,
2,2340,Note_on_c,9,53,127,
2,2340,Note_on_c,9,80,127,
2,2340,Note_on_c,9,81,127,
2,2340,Note_on_c,9,82,127,
2,2341,Note_off_c,9,36,0,
2,2342,Note_on_c,9,36,127,
2,2342,Note_on_c,9,37,127,
2,2342,Note_on_c,9,38,127,
2,2342,Note_on_c,9,39,127,
2,2342,Note_on_c,9,41,127,
2,2342,Note_on_c,9,42,127,
2,2342,Note_on_c,9,43,127,
2,2342,Note_on_c,9,45,127,
2,2342,Note_on_c,9,48,127,
2,2342,Note_on_c,9,51,127,
2,2342,Note_on_c,9,53,127,
2,2342,Note_on_c,9,80,127,
2,2342,Note_on_c,9,81,127,
2,2342,Note_on_c,9,82,127,
2,2343,Note_off_c,9,36,0,
2,2344,Note_on_c,9,36,127,
2,2344,Note_on_c,9,37,127,
2,2344,Note_on_c,9,38,127,
2,2344,Note_on_c,9,39,127,
2,2344,Note_on_c,9,41,127,
2,2344,Note_on_c,9,42,127,
2,2344,Note_on_c,9,43,127,
2,2344,Note_on_c,9,45,127,
2,2344,Note_on_c,9,48,127,
2,2344,Note_on_c,9,51,127,
2,2344,Note_on_c,9,53,127,
2,2344,Note_on_c,9,80,127,
2,2344,Note_on_c,9,81,127,
2,2344,Note_on_c,9,82,127,
2,2345,Note_off_c,9,36,0,
2,2346,Note_on_c,9,36,127,
2,2346,Note_on_c,9,37,127,
2,2346,Note_on_c,9,38,127,
2,2346,Note_on_c,9,39,127,
2,2346,Note_on_c,9,41,127,
2,2346,Note_on_c,9,42,127,
2,2346,Note_on_c,9,43,127,
2,2346,Note_on_c,9,45,127,
2,2346,Note_on_c,9,48,127,
2,2346,Note_on_c,9,51,127,
2,2346,Note_on_c,9,53,127,
2,2346,Note_on_c,9,80,127,
2,2346,Note_on_c,9,81,127,
2,2346,Note_on_c,9,82,127,
2,2347,Note_off_c,9,36,0,
2,2348,Note_on_c,9,36,127,
2,2348,Note_on_c,9,37,127,
2,2348,Note_on_c,9,38,127,
2,2348,Note_on_c,9,39,127,
2,2348,Note_on_c,9,41,127,
2,2348,Note_on_c,9,42,127,
2,2348,Note_on_c,9,43,127,
2,2348,Note_on_c,9,45,127,
2,2348,Note_on_c,9,48,127,
2,2348,Note_on_c,9,51,127,
2,2348,Note_on_c,9,53,127,
2,2348,Note_on_c,9,80,127,
2,2348,Note_on_c,9,81,127,
2,2348,Note_on_c,9,82,127,
2,2349,Note_off_c,9,36,0,
2,2350,Note_on_c,9,36,127,
2,2350,Note_on_c,9,37,127,
2,2350,Note_on_c,9,38,127,
2,2350,Note_on_c,9,39,127,
2,2350,Note_on_c,9,41,127,
2,2350,Note_on_c,9,42,127,
2,2350,Note_on_c,9,43,127,
2,2350,Note_on_c,9,45,127,
2,2350,Note_on_c,9,48,127,
2,2350,Note_on_c,9,51,127,
2,2350,Note_on_c,9,53,127,
2,2350,Note_on_c,9,80,127,
2,2350,Note_on_c,9,81,127,
2,2350,Note_on_c,9,82,127,
2,2351,Note_off_c,9,36,0,
2,2352,Note_on_c,9,36,127,
2,2352,Note_on_c,9,37,127,
2,2352,Note_on_c,9,38,127,
2,2352,Note_on_c,9,39,127,
2,2352,Note_on_c,9,41,127,
2,2352,Note_on_c,9,42,127,
2,2352,Note_on_c,9,43,127,
2,2352,Note_on_c,9,45,127,
2,2352,Note_on_c,9,48,127,
2,2352,Note_on_c,9,51,127,
2,2352,Note_on_c,9,53,127,
2,2352,Note_on_c,9,80,127,
2,2352,Note_on_c,9,81,127,
2,2352,Note_on_c,9,82,127,
2,2353,Note_off_c,9,36,0,
2,2354,Note_on_c,9,36,127,
2,2354,Note_on_c,9,37,127,
2,2354,Note_on_c,9,38,127,
2,2354,Note_on_c,9,39,127,
2,2354,Note_on_c,9,41,127,
2,2354,Note_on_c,9,42,127,
2,2354,Note_on_c,9,43,127,
2,2354,Note_on_c,9,45,127,
2,2354,Note_on_c,9,48,127,
2,2354,Note_on_c,9,51,127,
2,2354,Note_on_c,9,53,127,
2,2354,Note_on_c,9,80,127,
2,2354,Note_on_c,9,81,127,
2,2354,Note_on_c,9,82,127,
2,2355,Note_off_c,9,36,0,
2,2356,Note_on_c,9,36,127,
2,2356,Note_on_c,9,37,127,
2,2356,Note_on_c,9,38,127,
2,2356,Note_on_c,9,39,127,
2,2356,Note_on_c,9,41,127,
2,2356,Note_on_c,9,42,127,
2,2356,Note_on_c,9,43,127,
2,2356,Note_on_c,9,45,127,
2,2356,Note_on_c,9,48,127,
2,2356,Note_on_c,9,51,127,
2,2356,Note_on_c,9,53,127,
2,2356,Note_on_c,9,80,127,
2,2356,Note_on_c,9,81,127,
2,2356,Note_on_c,9,82,127,
2,2357,Note_off_c,9,36,0,
2,2358,Note_on_c,9,36,127,
2,2358,Note_on_c,9,37,127,
2,2358,Note_on_c,9,38,127,
2,2358,Note_on_c,9,39,127,
2,2358,Note_on_c,9,41,127,
2,2358,Note_on_c,9,42,127,
2,2358,Note_on_c,9,43,127,
2,2358,Note_on_c,9,45,127,
2,2358,Note_on_c,9,48,127,
2,2358,Note_on_c,9,51,127,
2,2358,Note_on_c,9,53,127,
2,2358,Note_on_c,9,80,127,
2,2358,Note_on_c,9,81,127,
2,2358,Note_on_c,9,82,127,
2,2359,Note_off_c,9,36,0,
2,2360,Note_on_c,9,36,127,
2,2360,Note_on_c,9,37,127,
2,2360,Note_on_c,9,38,127,
2,2360,Note_on_c,9,39,127,
2,2360,Note_on_c,9,41,127,
2,2360,Note_on_c,9,42,127,
2,2360,Note_on_c,9,43,127,
2,2360,Note_on_c,9,45,127,
2,2360,Note_on_c,9,48,127,
2,2360,Note_on_c,9,51,127,
2,2360,Note_on_c,9,53,127,
2,2360,Note_on_c,9,80,127,
2,2360,Note_on_c,9,81,127,
2,2360,Note_on_c,9,82,127,
2,2361,Note_off_c,9,36,0,
2,2362,Note_on_c,9,36,127,
2,2362,Note_on_c,9,37,127,
2,2362,Note_on_c,9,38,127,
2,2362,Note_on_c,9,39,127,
2,2362,Note_on_c,9,41,127,
2,2362,Note_on_c,9,42,127,
2,2362,Note_on_c,9,43,127,
2,2362,Note_on_c,9,45,127,
2,2362,Note_on_c,9,48,127,
2,2362,Note_on_c,9,51,127,
2,2362,Note_on_c,9,53,127,
2,2362,Note_on_c,9,80,127,
2,2362,Note_on_c,9,81,127,
2,2362,Note_on_c,9,82,127,
2,2363,Note_off_c,9,36,0,
2,2364,Note_on_c,9,36,127,
2,2364,Note_on_c,9,37,127,
2,2364,Note_on_c,9,38,127,
2,2364,Note_on_c,9,39,127,
2,2364,Note_on_c,9,41,127,
2,2364,Note_on_c,9,42,127,
2,2364,Note_on_c,9,43,127,
2,2364,Note_on_c,9,45,127,
2,2364,Note_on_c,9,48,127,
2,2364,Note_on_c,9,51,127,
2,2364,Note_on_c,9,53,127,
2,2364,Note_on_c,9,80,127,
2,2364,Note_on_c,9,81,127,
2,2364,Note_on_c,9,82,127,
2,2365,Note_off_c,9,36,0,
2,2366,Note_on_c,9,36,127,
2,2366,Note_on_c,9,37,127,
2,2366,Note_on_c,9,38,127,
2,2366,Note_on_c,9,39,127,
2,2366,Note_on_c,9,41,127,
2,2366,Note_on_c,9,42,127,
2,2366,Note_on_c,9,43,127,
2,2366,Note_on_c,9,45,127,
2,2366,Note_on_c,9,48,127,
2,2366,Note_on_c,9,51,127,
2,2366,Note_on_c,9,53,127,
2,2366,Note_on_c,9,80,127,
2,2366,Note_on_c,9,81,127,
2,2366,Note_on_c,9,82,127,
2,2367,Note_off_c,9,36,0,
2,2368,Note_on_c,9,36,127,
2,2368,Note_on_c,9,37,127,
2,2368,Note_on_c,9,38,127,
2,2368,Note_on_c,9,39,127,
2,2368,Note_on_c,9,41,127,
2,2368,Note_on_c,9,42,127,
2,2368,Note_on_c,9,43,127,
2,2368,Note_on_c,9,45,127,
2,2368,Note_on_c,9,48,127,
2,2368,Note_on_c,9,51,127,
2,2368,Note_on_c,9,53,127,
2,2368,Note_on_c,9,80,127,
2,2368,Note_on_c,9,81,127,
2,2368,Note_on_c,9,82,127,
2,2369,Note_off_c,9,36,0,
2,2370,Note_on_c,9,36,127,
2,2370,Note_on_c,9,37,127,
2,2370,Note_on_c,9,38,127,
2,2370,Note_on_c,9,39,127,
2,2370,Note_on_c,9,41,127,
2,2370,Note_on_c,9,42,127,
2,2370,Note_on_c,9,43,127,
2,2370,Note_on_c,9,45,127,
2,2370,Note_on_c,9,48,127,
2,2370,Note_on_c,9,51,127,
2,2370,Note_on_c,9,53,127,
2,2370,Note_on_c,9,80,127,
2,2370,Note_on_c,9,81,127,
2,2370,Note_on_c,9,82,127,
2,2371,Note_off_c,9,36,0,
2,2372,Note_on_c,9,36,127,
2,2372,Note_on_c,9,37,127,
2,2372,Note_on_c,9,38,127,
2,2372,Note_on_c,9,39,127,
2,2372,Note_on_c,9,41,127,
2,2372,Note_on_c,9,42,127,
2,2372,Note_on_c,9,43,127,
2,2372,Note_on_c,9,45,127,
2,2372,Note_on_c,9,48,127,
2,2372,Note_on_c,9,51,127,
2,2372,Note_on_c,9,53,127,
2,2372,Note_on_c,9,80,127,
2,2372,Note_on_c,9,81,127,
2,2372,Note_on_c,9,82,127,
2,2373,Note_off_c,9,36,0,
2,2374,Note_on_c,9,36,127,
2,2374,Note_on_c,9,37,127,
2,2374,Note_on_c,9,38,127,
2,2374,Note_on_c,9,39,127,
2,2374,Note_on_c,9,41,127,
2,2374,Note_on_c,9,42,127,
2,2374,Note_on_c,9,43,127,
2,2374,Note_on_c,9,45,127,
2,2374,Note_on_c,9,48,127,
2,2374,Note_on_c,9,51,127,
2,2374,Note_on_c,9,53,127,
2,2374,Note_on_c,9,80,127,
2,2374,Note_on_c,9,81,127,
2,2374,Note_on_c,9,82,127,
2,2375,Note_off_c,9,36,0,
2,2376,Note_on_c,9,36,127,
2,2376,Note_on_c,9,37,127,
2,2376,Note_on_c,9,38,127,
2,2376,Note_on_c,9,39,127,
2,2376,Note_on_c,9,41,127,
2,2376,Note_on_c,9,42,127,
2,2376,Note_on_c,9,43,127,
2,2376,Note_on_c,9,45,127,
2,2376,Note_on_c,9,48,127,
2,2376,Note_on_c,9,51,127,
2,2376,Note_on_c,9,53,127,
2,2376,Note_on_c,9,80,127,
2,2376,Note_on_c,9,81,127,
2,2376,Note_on_c,9,82,127,
2,2377,Note_off_c,9,36,0,
2,2378,Note_on_c,9,36,127,
2,2378,Note_on_c,9,37,127,
2,2378,Note_on_c,9,38,127,
2,2378,Note_on_c,9,39,127,
2,2378,Note_on_c,9,41,127,
2,2378,Note_on_c,9,42,127,
2,2378,Note_on_c,9,43,127,
2,2378,Note_on_c,9,45,127,
2,2378,Note_on_c,9,48,127,
2,2378,Note_on_c,9,51,127,
2,2378,Note_on_c,9,53,127,
2,2378,Note_on_c,9,80,127,
2,2378,Note_on_c,9,81,127,
2,2378,Note_on_c,9,82,127,
2,2379,Note_off_c,9,36,0,
2,2380,Note_on_c,9,36,127,
2,2380,Note_on_c,9,37,127,
2,2380,Note_on_c,9,38,127,
2,2380,Note_on_c,9,39,127,
2,2380,Note_on_c,9,41,127,
2,2380,Note_on_c,9,42,127,
2,2380,Note_on_c,9,43,127,
2,2380,Note_on_c,9,45,127,
2,2380,Note_on_c,9,48,127,
2,2380,Note_on_c,9,51,127,
2,2380,Note_on_c,9,53,127,
2,2380,Note_on_c,9,80,127,
2,2380,Note_on_c,9,81,127,
2,2380,Note_on_c,9,82,127,
2,2381,Note_off_c,9,36,0,
2,2382,Note_on_c,9,36,127,
2,2382,Note_on_c,9,37,127,
2,2382,Note_on_c,9,38,127,
2,2382,Note_on_c,9,39,127,
2,2382,Note_on_c,9,41,127,
2,2382,Note_on_c,9,42,127,
2,2382,Note_on_c,9,43,127,
2,2382,Note_on_c,9,45,127,
2,2382,Note_on_c,9,48,127,
2,2382,Note_on_c,9,51,127,
2,2382,Note_on_c,9,53,127,
2,2382,Note_on_c,9,80,127,
2,2382,Note_on_c,9,81,127,
2,2382,Note_on_c,9,82,127,
2,2383,Note_off_c,9,36,0,
2,2384,Note_on_c,9,36,127,
2,2384,Note_on_c,9,37,127,
2,2384,Note_on_c,9,38,127,
2,2384,Note_on_c,9,39,127,
2,2384,Note_on_c,9,41,127,
2,2384,Note_on_c,9,42,127,
2,2384,Note_on_c,9,43,127,
2,2384,Note_on_c,9,45,127,
2,2384,Note_on_c,9,48,127,
2,2384,Note_on_c,9,51,127,
2,2384,Note_on_c,9,53,127,
2,2384,Note_on_c,9,80,127,
2,2384,Note_on_c,9,81,127,
2,2384,Note_on_c,9,82,127,
2,2385,Note_off_c,9,36,0,
2,2386,Note_on_c,9,36,127,
2,2386,Note_on_c,9,37,127,
2,2386,Note_on_c,9,38,127,
2,2386,Note_on_c,9,39,127,
2,2386,Note_on_c,9,41,127,
2,2386,Note_on_c,9,42,127,
2,2386,Note_on_c,9,43,127,
2,2386,Note_on_c,9,45,127,
2,2386,Note_on_c,9,48,127,
2,2386,Note_on_c,9,51,127,
2,2386,Note_on_c,9,53,127,
2,2386,Note_on_c,9,80,127,
2,2386,Note_on_c,9,81,127,
2,2386,Note_on_c,9,82,127,
2,2387,Note_off_c,9,36,0,
2,2388,Note_on_c,9,36,127,
2,2388,Note_on_c,9,37,127,
2,2388,Note_on_c,9,38,127,
2,2388,Note_on_c,9,39,127,
2,2388,Note_on_c,9,41,127,
2,2388,Note_on_c,9,42,127,
2,2388,Note_on_c,9,43,127,
2,2388,Note_on_c,9,45,127,
2,2388,Note_on_c,9,48,127,
2,2388,Note_on_c,9,51,127,
2,2388,Note_on_c,9,53,127,
2,2388,Note_on_c,9,80,127,
2,2388,Note_on_c,9,81,127,
2,2388,Note_on_c,9,82,127,
2,2389,Note_off_c,9,36,0,
2,2390,Note_on_c,9,36,127,
2,2390,Note_on_c,9,37,127,
2,2390,Note_on_c,9,38,127,
2,2390,Note_on_c,9,39,127,
2,2390,Note_on_c,9,41,127,
2,2390,Note_on_c,9,42,127,
2,2390,Note_on_c,9,43,127,
2,2390,Note_on_c,9,45,127,
2,2390,Note_on_c,9,48,127,
2,2390,Note_on_c,9,51,127,
2,2390,Note_on_c,9,53,127,
2,2390,Note_on_c,9,80,127,
2,2390,Note_on_c,9,81,127,
2,2390,Note_on_c,9,82,127,
2,2391,Note_off_c,9,36,0,
2,2392,Note_on_c,9,36,127,
2,2392,Note_on_c,9,37,127,
2,2392,Note_on_c,9,38,127,
2,2392,Note_on_c,9,39,127,
2,2392,Note_on_c,9,41,127,
2,2392,Note_on_c,9,42,127,
2,2392,Note_on_c,9,43,127,
2,2392,Note_on_c,9,45,127,
2,2392,Note_on_c,9,48,127,
2,2392,Note_on_c,9,51,127,
2,2392,Note_on_c,9,53,127,
2,2392,Note_on_c,9,80,127,
2,2392,Note_on_c,9,81,127,
2,2392,Note_on_c,9,82,127,
2,2393,Note_off_c,9,36,0,
2,2394,Note_on_c,9,36,127,
2,2394,Note_on_c,9,37,127,
2,2394,Note_on_c,9,38,127,
2,2394,Note_on_c,9,39,127,
2,2394,Note_on_c,9,41,127,
2,2394,Note_on_c,9,42,127,
2,2394,Note_on_c,9,43,127,
2,2394,Note_on_c,9,45,127,
2,2394,Note_on_c,9,48,127,
2,2394,Note_on_c,9,51,127,
2,2394,Note_on_c,9,53,127,
2,2394,Note_on_c,9,80,127,
2,2394,Note_on_c,9,81,127,
2,2394,Note_on_c,9,82,127,
2,2395,Note_off_c,9,36,0,
2,2396,Note_on_c,9,36,127,
2,2396,Note_on_c,9,37,127,
2,2396,Note_on_c,9,38,127,
2,2396,Note_on_c,9,39,127,
2,2396,Note_on_c,9,41,127,
2,2396,Note_on_c,9,42,127,
2,2396,Note_on_c,9,43,127,
2,2396,Note_on_c,9,45,127,
2,2396,Note_on_c,9,48,127,
2,2396,Note_on_c,9,51,127,
2,2396,Note_on_c,9,53,127,
2,2396,Note_on_c,9,80,127,
2,2396,Note_on_c,9,81,127,
2,2396,Note_on_c,9,82,127,
2,2397,Note_off_c,9,36,0,
2,2398,Note_on_c,9,36,127,
2,2398,Note_on_c,9,37,127,
2,2398,Note_on_c,9,38,127,
2,2398,Note_on_c,9,39,127,
2,2398,Note_on_c,9,41,127,
2,2398,Note_on_c,9,42,127,
2,2398,Note_on_c,9,43,127,
2,2398,Note_on_c,9,45,127,
2,2398,Note_on_c,9,48,127,
2,2398,Note_on_c,9,51,127,
2,2398,Note_on_c,9,53,127,
2,2398,Note_on_c,9,80,127,
2,2398,Note_on_c,9,81,127,
2,2398,Note_on_c,9,82,127,
2,2399,Note_off_c,9,36,0,
2,2400,Note_on_c,9,36,127,
2,2400,Note_on_c,9,37,127,
2,2400,Note_on_c,9,38,127,
2,2400,Note_on_c,9,39,127,
2,2400,Note_on_c,9,41,127,
2,2400,Note_on_c,9,42,127,
2,2400,Note_on_c,9,43,127,
2,2400,Note_on_c,9,45,127,
2,2400,Note_on_c,9,48,127,
2,2400,Note_on_c,9,51,127,
2,2400,Note_on_c,9,53,127,
2,2400,Note_on_c,9,80,127,
2,2400,Note_on_c,9,81,127,
2,2400,Note_on_c,9,82,127,
2,2401,Note_off_c,9,36,0,
2,2402,Note_on_c,9,36,127,
2,2402,Note_on_c,9,37,127,
2,2402,Note_on_c,9,38,127,
2,2402,Note_on_c,9,39,127,
2,2402,Note_on_c,9,41,127,
2,2402,Note_on_c,9,42,127,
2,2402,Note_on_c,9,43,127,
2,2402,Note_on_c,9,45,127,
2,2402,Note_on_c,9,48,127,
2,2402,Note_on_c,9,51,127,
2,2402,Note_on_c,9,53,127,
2,2402,Note_on_c,9,80,127,
2,2402,Note_on_c,9,81,127,
2,2402,Note_on_c,9,82,127,
2,2403,Note_off_c,9,36,0,
2,2404,Note_on_c,9,36,127,
2,2404,Note_on_c,9,37,127,
2,2404,Note_on_c,9,38,127,
2,2404,Note_on_c,9,39,127,
2,2404,Note_on_c,9,41,127,
2,2404,Note_on_c,9,42,127,
2,2404,Note_on_c,9,43,127,
2,2404,Note_on_c,9,45,127,
2,2404,Note_on_c,9,48,127,
2,2404,Note_on_c,9,51,127,
2,2404,Note_on_c,9,53,127,
2,2404,Note_on_c,9,80,127,
2,2404,Note_on_c,9,81,127,
2,2404,Note_on_c,9,82,127,
2,2405,Note_off_c,9,36,0,
2,2406,Note_on_c,9,36,127,
2,2406,Note_on_c,9,37,127,
2,2406,Note_on_c,9,38,127,
2,2406,Note_on_c,9,39,127,
2,2406,Note_on_c,9,41,127,
2,2406,Note_on_c,9,42,127,
2,2406,Note_on_c,9,43,127,
2,2406,Note_on_c,9,45,127,
2,2406,Note_on_c,9,48,127,
2,2406,Note_on_c,9,51,127,
2,2406,Note_on_c,9,53,127,
2,2406,Note_on_c,9,80,127,
2,2406,Note_on_c,9,81,127,
2,2406,Note_on_c,9,82,127,
2,2407,Note_off_c,9,36,0,
2,2408,Note_on_c,9,36,127,
2,2408,Note_on_c,9,37,127,
2,2408,Note_on_c,9,38,127,
2,2408,Note_on_c,9,39,127,
2,2408,Note_on_c,9,41,127,
2,2408,Note_on_c,9,42,127,
2,2408,Note_on_c,9,43,127,
2,2408,Note_on_c,9,45,127,
2,2408,Note_on_c,9,48,127,
2,2408,Note_on_c,9,51,127,
2,2408,Note_on_c,9,53,127,
2,2408,Note_on_c,9,80,127,
2,2408,Note_on_c,9,81,127,
2,2408,Note_on_c,9,82,127,
2,2409,Note_off_c,9,36,0,
2,2410,Note_on_c,9,36,127,
2,2410,Note_on_c,9,37,127,
2,2410,Note_on_c,9,38,127,
2,2410,Note_on_c,9,39,127,
2,2410,Note_on_c,9,41,127,
2,2410,Note_on_c,9,42,127,
2,2410,Note_on_c,9,43,127,
2,2410,Note_on_c,9,45,127,
2,2410,Note_on_c,9,48,127,
2,2410,Note_on_c,9,51,127,
2,2410,Note_on_c,9,53,127,
2,2410,Note_on_c,9,80,127,
2,2410,Note_on_c,9,81,127,
2,2410,Note_on_c,9,82,127,
2,2411,Note_off_c,9,36,0,
2,2412,Note_on_c,9,36,127,
2,2412,Note_on_c,9,37,127,
2,2412,Note_on_c,9,38,127,
2,2412,Note_on_c,9,39,127,
2,2412,Note_on_c,9,41,127,
2,2412,Note_on_c,9,42,127,
2,2412,Note_on_c,9,43,127,
2,2412,Note_on_c,9,45,127,
2,2412,Note_on_c,9,48,127,
2,2412,Note_on_c,9,51,127,
2,2412,Note_on_c,9,53,127,
2,2412,Note_on_c,9,80,127,
2,2412,Note_on_c,9,81,127,
2,2412,Note_on_c,9,82,127,
2,2413,Note_off_c,9,36,0,
2,2414,Note_on_c,9,36,127,
2,2414,Note_on_c,9,37,127,
2,2414,Note_on_c,9,38,127,
2,2414,Note_on_c,9,39,127,
2,2414,Note_on_c,9,41,127,
2,2414,Note_on_c,9,42,127,
2,2414,Note_on_c,9,43,127,
2,2414,Note_on_c,9,45,127,
2,2414,Note_on_c,9,48,127,
2,2414,Note_on_c,9,51,127,
2,2414,Note_on_c,9,53,127,
2,2414,Note_on_c,9,80,127,
2,2414,Note_on_c,9,81,127,
2,2414,Note_on_c,9,82,127,
2,2415,Note_off_c,9,36,0,
2,2416,Note_on_c,9,36,127,
2,2416,Note_on_c,9,37,127,
2,2416,Note_on_c,9,38,127,
2,2416,Note_on_c,9,39,127,
2,2416,Note_on_c,9,41,127,
2,2416,Note_on_c,9,42,127,
2,2416,Note_on_c,9,43,127,
2,2416,Note_on_c,9,45,127,
2,2416,Note_on_c,9,48,127,
2,2416,Note_on_c,9,51,127,
2,2416,Note_on_c,9,53,127,
2,2416,Note_on_c,9,80,127,
2,2416,Note_on_c,9,81,127,
2,2416,Note_on_c,9,82,127,
2,2417,Note_off_c,9,36,0,
2,2418,Note_on_c,9,36,127,
2,2418,Note_on_c,9,37,127,
2,2418,Note_on_c,9,38,127,
2,2418,Note_on_c,9,39,127,
2,2418,Note_on_c,9,41,127,
2,2418,Note_on_c,9,42,127,
2,2418,Note_on_c,9,43,127,
2,2418,Note_on_c,9,45,127,
2,2418,Note_on_c,9,48,127,
2,2418,Note_on_c,9,51,127,
2,2418,Note_on_c,9,53,127,
2,2418,Note_on_c,9,80,127,
2,2418,Note_on_c,9,81,127,
2,2418,Note_on_c,9,82,127,
2,2419,Note_off_c,9,36,0,
2,2420,Note_on_c,9,36,127,
2,2420,Note_on_c,9,37,127,
2,2420,Note_on_c,9,38,127,
2,2420,Note_on_c,9,39,127,
2,2420,Note_on_c,9,41,127,
2,2420,Note_on_c,9,42,127,
2,2420,Note_on_c,9,43,127,
2,2420,Note_on_c,9,45,127,
2,2420,Note_on_c,9,48,127,
2,2420,Note_on_c,9,51,127,
2,2420,Note_on_c,9,53,127,
2,2420,Note_on_c,9,80,127,
2,2420,Note_on_c,9,81,127,
2,2420,Note_on_c,9,82,127,
2,2421,Note_off_c,9,36,0,
2,2422,Note_on_c,9,36,127,
2,2422,Note_on_c,9,37,127,
2,2422,Note_on_c,9,38,127,
2,2422,Note_on_c,9,39,127,
2,2422,Note_on_c,9,41,127,
2,2422,Note_on_c,9,42,127,
2,2422,Note_on_c,9,43,127,
2,2422,Note_on_c,9,45,127,
2,2422,Note_on_c,9,48,127,
2,2422,Note_on_c,9,51,127,
2,2422,Note_on_c,9,53,127,
2,2422,Note_on_c,9,80,127,
2,2422,Note_on_c,9,81,127,
2,2422,Note_on_c,9,82,127,
2,2423,Note_off_c,9,36,0,
2,2424,Note_on_c,9,36,127,
2,2424,Note_on_c,9,37,127,
2,2424,Note_on_c,9,38,127,
2,2424,Note_on_c,9,39,127,
2,2424,Note_on_c,9,41,127,
2,2424,Note_on_c,9,42,127,
2,2424,Note_on_c,9,43,127,
2,2424,Note_on_c,9,45,127,
2,2424,Note_on_c,9,48,127,
2,2424,Note_on_c,9,51,127,
2,2424,Note_on_c,9,53,127,
2,2424,Note_on_c,9,80,127,
2,2424,Note_on_c,9,81,127,
2,2424,Note_on_c,9,82,127,
2,2425,Note_off_c,9,36,0,
2,2426,Note_on_c,9,36,127,
2,2426,Note_on_c,9,37,127,
2,2426,Note_on_c,9,38,127,
2,2426,Note_on_c,9,39,127,
2,2426,Note_on_c,9,41,127,
2,2426,Note_on_c,9,42,127,
2,2426,Note_on_c,9,43,127,
2,2426,Note_on_c,9,45,127,
2,2426,Note_on_c,9,48,127,
2,2426,Note_on_c,9,51,127,
2,2426,Note_on_c,9,53,127,
2,2426,Note_on_c,9,80,127,
2,2426,Note_on_c,9,81,127,
2,2426,Note_on_c,9,82,127,
2,2427,Note_off_c,9,36,0,
2,2428,Note_on_c,9,36,127,
2,2428,Note_on_c,9,37,127,
2,2428,Note_on_c,9,38,127,
2,2428,Note_on_c,9,39,127,
2,2428,Note_on_c,9,41,127,
2,2428,Note_on_c,9,42,127,
2,2428,Note_on_c,9,43,127,
2,2428,Note_on_c,9,45,127,
2,2428,Note_on_c,9,48,127,
2,2428,Note_on_c,9,51,127,
2,2428,Note_on_c,9,53,127,
2,2428,Note_on_c,9,80,127,
2,2428,Note_on_c,9,81,127,
2,2428,Note_on_c,9,82,127,
2,2429,Note_off_c,9,36,0,
2,2430,Note_on_c,9,36,127,
2,2430,Note_on_c,9,37,127,
2,2430,Note_on_c,9,38,127,
2,2430,Note_on_c,9,39,127,
2,2430,Note_on_c,9,41,127,
2,2430,Note_on_c,9,42,127,
2,2430,Note_on_c,9,43,127,
2,2430,Note_on_c,9,45,127,
2,2430,Note_on_c,9,48,127,
2,2430,Note_on_c,9,51,127,
2,2430,Note_on_c,9,53,127,
2,2430,Note_on_c,9,80,127,
2,2430,Note_on_c,9,81,127,
2,2430,Note_on_c,9,82,127,
2,2431,Note_off_c,9,36,0,
2,2432,Note_on_c,9,36,127,
2,2432,Note_on_c,9,37,127,
2,2432,Note_on_c,9,38,127,
2,2432,Note_on_c,9,39,127,
2,2432,Note_on_c,9,41,127,
2,2432,Note_on_c,9,42,127,
2,2432,Note_on_c,9,43,127,
2,2432,Note_on_c,9,45,127,
2,2432,Note_on_c,9,48,127,
2,2432,Note_on_c,9,51,127,
2,2432,Note_on_c,9,53,127,
2,2432,Note_on_c,9,80,127,
2,2432,Note_on_c,9,81,127,
2,2432,Note_on_c,9,82,127,
2,2433,Note_off_c,9,36,0,
2,2434,Note_on_c,9,36,127,
2,2434,Note_on_c,9,37,127,
2,2434,Note_on_c,9,38,127,
2,2434,Note_on_c,9,39,127,
2,2434,Note_on_c,9,41,127,
2,2434,Note_on_c,9,42,127,
2,2434,Note_on_c,9,43,127,
2,2434,Note_on_c,9,45,127,
2,2434,Note_on_c,9,48,127,
2,2434,Note_on_c,9,51,127,
2,2434,Note_on_c,9,53,127,
2,2434,Note_on_c,9,80,127,
2,2434,Note_on_c,9,81,127,
2,2434,Note_on_c,9,82,127,
2,2435,Note_off_c,9,36,0,
2,2436,Note_on_c,9,36,127,
2,2436,Note_on_c,9,37,127,
2,2436,Note_on_c,9,38,127,
2,2436,Note_on_c,9,39,127,
2,2436,Note_on_c,9,41,127,
2,2436,Note_on_c,9,42,127,
2,2436,Note_on_c,9,43,127,
2,2436,Note_on_c,9,45,127,
2,2436,Note_on_c,9,48,127,
2,2436,Note_on_c,9,51,127,
2,2436,Note_on_c,9,53,127,
2,2436,Note_on_c,9,80,127,
2,2436,Note_on_c,9,81,127,
2,2436,Note_on_c,9,82,127,
2,2437,Note_off_c,9,36,0,
2,2438,Note_on_c,9,36,127,
2,2438,Note_on_c,9,37,127,
2,2438,Note_on_c,9,38,127,
2,2438,Note_on_c,9,39,127,
2,2438,Note_on_c,9,41,127,
2,2438,Note_on_c,9,42,127,
2,2438,Note_on_c,9,43,127,
2,2438,Note_on_c,9,45,127,
2,2438,Note_on_c,9,48,127,
2,2438,Note_on_c,9,51,127,
2,2438,Note_on_c,9,53,127,
2,2438,Note_on_c,9,80,127,
2,2438,Note_on_c,9,81,127,
2,2438,Note_on_c,9,82,127,
2,2439,Note_off_c,9,36,0,
2,2440,Note_on_c,9,36,127,
2,2440,Note_on_c,9,37,127,
2,2440,Note_on_c,9,38,127,
2,2440,Note_on_c,9,39,127,
2,2440,Note_on_c,9,41,127,
2,2440,Note_on_c,9,42,127,
2,2440,Note_on_c,9,43,127,
2,2440,Note_on_c,9,45,127,
2,2440,Note_on_c,9,48,127,
2,2440,Note_on_c,9,51,127,
2,2440,Note_on_c,9,53,127,
2,2440,Note_on_c,9,80,127,
2,2440,Note_on_c,9,81,127,
2,2440,Note_on_c,9,82,127,
2,2441,Note_off_c,9,36,0,
2,2442,Note_on_c,9,36,127,
2,2442,Note_on_c,9,37,127,
2,2442,Note_on_c,9,38,127,
2,2442,Note_on_c,9,39,127,
2,2442,Note_on_c,9,41,127,
2,2442,Note_on_c,9,42,127,
2,2442,Note_on_c,9,43,127,
2,2442,Note_on_c,9,45,127,
2,2442,Note_on_c,9,48,127,
2,2442,Note_on_c,9,51,127,
2,2442,Note_on_c,9,53,127,
2,2442,Note_on_c,9,80,127,
2,2442,Note_on_c,9,81,127,
2,2442,Note_on_c,9,82,127,
2,2443,Note_off_c,9,36,0,
2,2444,Note_on_c,9,36,127,
2,2444,Note_on_c,9,37,127,
2,2444,Note_on_c,9,38,127,
2,2444,Note_on_c,9,39,127,
2,2444,Note_on_c,9,41,127,
2,2444,Note_on_c,9,42,127,
2,2444,Note_on_c,9,43,127,
2,2444,Note_on_c,9,45,127,
2,2444,Note_on_c,9,48,127,
2,2444,Note_on_c,9,51,127,
2,2444,Note_on_c,9,53,127,
2,2444,Note_on_c,9,80,127,
2,2444,Note_on_c,9,81,127,
2,2444,Note_on_c,9,82,127,
2,2445,Note_off_c,9,36,0,
2,2446,Note_on_c,9,36,127,
2,2446,Note_on_c,9,37,127,
2,2446,Note_on_c,9,38,127,
2,2446,Note_on_c,9,39,127,
2,2446,Note_on_c,9,41,127,
2,2446,Note_on_c,9,42,127,
2,2446,Note_on_c,9,43,127,
2,2446,Note_on_c,9,45,127,
2,2446,Note_on_c,9,48,127,
2,2446,Note_on_c,9,51,127,
2,2446,Note_on_c,9,53,127,
2,2446,Note_on_c,9,80,127,
2,2446,Note_on_c,9,81,127,
2,2446,Note_on_c,9,82,127,
2,2447,Note_off_c,9,36,0,
2,2448,Note_on_c,9,36,127,
2,2448,Note_on_c,9,37,127,
2,2448,Note_on_c,9,38,127,
2,2448,Note_on_c,9,39,127,
2,2448,Note_on_c,9,41,127,
2,2448,Note_on_c,9,42,127,
2,2448,Note_on_c,9,43,127,
2,2448,Note_on_c,9,45,127,
2,2448,Note_on_c,9,48,127,
2,2448,Note_on_c,9,51,127,
2,2448,Note_on_c,9,53,127,
2,2448,Note_on_c,9,80,127,
2,2448,Note_on_c,9,81,127,
2,2448,Note_on_c,9,82,127,
2,2449,Note_off_c,9,36,0,
2,2450,Note_on_c,9,36,127,
2,2450,Note_on_c,9,37,127,
2,2450,Note_on_c,9,38,127,
2,2450,Note_on_c,9,39,127,
2,2450,Note_on_c,9,41,127,
2,2450,Note_on_c,9,42,127,
2,2450,Note_on_c,9,43,127,
2,2450,Note_on_c,9,45,127,
2,2450,Note_on_c,9,48,127,
2,2450,Note_on_c,9,51,127,
2,2450,Note_on_c,9,53,127,
2,2450,Note_on_c,9,80,127,
2,2450,Note_on_c,9,81,127,
2,2450,Note_on_c,9,82,127,
2,2451,Note_off_c,9,36,0,
2,2452,Note_on_c,9,36,127,
2,2452,Note_on_c,9,37,127,
2,2452,Note_on_c,9,38,127,
2,2452,Note_on_c,9,39,127,
2,2452,Note_on_c,9,41,127,
2,2452,Note_on_c,9,42,127,
2,2452,Note_on_c,9,43,127,
2,2452,Note_on_c,9,45,127,
2,2452,Note_on_c,9,48,127,
2,2452,Note_on_c,9,51,127,
2,2452,Note_on_c,9,53,127,
2,2452,Note_on_c,9,80,127,
2,2452,Note_on_c,9,81,127,
2,2452,Note_on_c,9,82,127,
2,2453,Note_off_c,9,36,0,
2,2454,Note_on_c,9,36,127,
2,2454,Note_on_c,9,37,127,
2,2454,Note_on_c,9,38,127,
2,2454,Note_on_c,9,39,127,
2,2454,Note_on_c,9,41,127,
2,2454,Note_on_c,9,42,127,
2,2454,Note_on_c,9,43,127,
2,2454,Note_on_c,9,45,127,
2,2454,Note_on_c,9,48,127,
2,2454,Note_on_c,9,51,127,
2,2454,Note_on_c,9,53,127,
2,2454,Note_on_c,9,80,127,
2,2454,Note_on_c,9,81,127,
2,2454,Note_on_c,9,82,127,
2,2455,Note_off_c,9,36,0,
2,2456,Note_on_c,9,36,127,
2,2456,Note_on_c,9,37,127,
2,2456,Note_on_c,9,38,127,
2,2456,Note_on_c,9,39,127,
2,2456,Note_on_c,9,41,127,
2,2456,Note_on_c,9,42,127,
2,2456,Note_on_c,9,43,127,
2,2456,Note_on_c,9,45,127,
2,2456,Note_on_c,9,48,127,
2,2456,Note_on_c,9,51,127,
2,2456,Note_on_c,9,53,127,
2,2456,Note_on_c,9,80,127,
2,2456,Note_on_c,9,81,127,
2,2456,Note_on_c,9,82,127,
2,2457,Note_off_c,9,36,0,
2,2458,Note_on_c,9,36,127,
2,2458,Note_on_c,9,37,127,
2,2458,Note_on_c,9,38,127,
2,2458,Note_on_c,9,39,127,
2,2458,Note_on_c,9,41,127,
2,2458,Note_on_c,9,42,127,
2,2458,Note_on_c,9,43,127,
2,2458,Note_on_c,9,45,127,
2,2458,Note_on_c,9,48,127,
2,2458,Note_on_c,9,51,127,
2,2458,Note_on_c,9,53,127,
2,2458,Note_on_c,9,80,127,
2,2458,Note_on_c,9,81,127,
2,2458,Note_on_c,9,82,127,
2,2459,Note_off_c,9,36,0,
2,2460,Note_on_c,9,36,127,
2,2460,Note_on_c,9,37,127,
2,2460,Note_on_c,9,38,127,
2,2460,Note_on_c,9,39,127,
2,2460,Note_on_c,9,41,127,
2,2460,Note_on_c,9,42,127,
2,2460,Note_on_c,9,43,127,
2,2460,Note_on_c,9,45,127,
2,2460,Note_on_c,9,48,127,
2,2460,Note_on_c,9,51,127,
2,2460,Note_on_c,9,53,127,
2,2460,Note_on_c,9,80,127,
2,2460,Note_on_c,9,81,127,
2,2460,Note_on_c,9,82,127,
2,2461,Note_off_c,9,36,0,
2,2462,Note_on_c,9,36,127,
2,2462,Note_on_c,9,37,127,
2,2462,Note_on_c,9,38,127,
2,2462,Note_on_c,9,39,127,
2,2462,Note_on_c,9,41,127,
2,2462,Note_on_c,9,42,127,
2,2462,Note_on_c,9,43,127,
2,2462,Note_on_c,9,45,127,
2,2462,Note_on_c,9,48,127,
2,2462,Note_on_c,9,51,127,
2,2462,Note_on_c,9,53,127,
2,2462,Note_on_c,9,80,127,
2,2462,Note_on_c,9,81,127,
2,2462,Note_on_c,9,82,127,
2,2463,Note_off_c,9,36,0,
2,2464,Note_on_c,9,36,127,
2,2464,Note_on_c,9,37,127,
2,2464,Note_on_c,9,38,127,
2,2464,Note_on_c,9,39,127,
2,2464,Note_on_c,9,41,127,
2,2464,Note_on_c,9,42,127,
2,2464,Note_on_c,9,43,127,
2,2464,Note_on_c,9,45,127,
2,2464,Note_on_c,9,48,127,
2,2464,Note_on_c,9,51,127,
2,2464,Note_on_c,9,53,127,
2,2464,Note_on_c,9,80,127,
2,2464,Note_on_c,9,81,127,
2,2464,Note_on_c,9,82,127,
2,2465,Note_off_c,9,36,0,
2,2466,Note_on_c,9,36,127,
2,2466,Note_on_c,9,37,127,
2,2466,Note_on_c,9,38,127,
2,2466,Note_on_c,9,39,127,
2,2466,Note_on_c,9,41,127,
2,2466,Note_on_c,9,42,127,
2,2466,Note_on_c,9,43,127,
2,2466,Note_on_c,9,45,127,
2,2466,Note_on_c,9,48,127,
2,2466,Note_on_c,9,51,127,
2,2466,Note_on_c,9,53,127,
2,2466,Note_on_c,9,80,127,
2,2466,Note_on_c,9,81,127,
2,2466,Note_on_c,9,82,127,
2,2467,Note_off_c,9,36,0,
2,2468,Note_on_c,9,36,127,
2,2468,Note_on_c,9,37,127,
2,2468,Note_on_c,9,38,127,
2,2468,Note_on_c,9,39,127,
2,2468,Note_on_c,9,41,127,
2,2468,Note_on_c,9,42,127,
2,2468,Note_on_c,9,43,127,
2,2468,Note_on_c,9,45,127,
2,2468,Note_on_c,9,48,127,
2,2468,Note_on_c,9,51,127,
2,2468,Note_on_c,9,53,127,
2,2468,Note_on_c,9,80,127,
2,2468,Note_on_c,9,81,127,
2,2468,Note_on_c,9,82,127,
2,2469,Note_off_c,9,36,0,
2,2470,Note_on_c,9,36,127,
2,2470,Note_on_c,9,37,127,
2,2470,Note_on_c,9,38,127,
2,2470,Note_on_c,9,39,127,
2,2470,Note_on_c,9,41,127,
2,2470,Note_on_c,9,42,127,
2,2470,Note_on_c,9,43,127,
2,2470,Note_on_c,9,45,127,
2,2470,Note_on_c,9,48,127,
2,2470,Note_on_c,9,51,127,
2,2470,Note_on_c,9,53,127,
2,2470,Note_on_c,9,80,127,
2,2470,Note_on_c,9,81,127,
2,2470,Note_on_c,9,82,127,
2,2471,Note_off_c,9,36,0,
2,2472,Note_on_c,9,36,127,
2,2472,Note_on_c,9,37,127,
2,2472,Note_on_c,9,38,127,
2,2472,Note_on_c,9,39,127,
2,2472,Note_on_c,9,41,127,
2,2472,Note_on_c,9,42,127,
2,2472,Note_on_c,9,43,127,
2,2472,Note_on_c,9,45,127,
2,2472,Note_on_c,9,48,127,
2,2472,Note_on_c,9,51,127,
2,2472,Note_on_c,9,53,127,
2,2472,Note_on_c,9,80,127,
2,2472,Note_on_c,9,81,127,
2,2472,Note_on_c,9,82,127,
2,2473,Note_off_c,9,36,0,
2,2474,Note_on_c,9,36,127,
2,2474,Note_on_c,9,37,127,
2,2474,Note_on_c,9,38,127,
2,2474,Note_on_c,9,39,127,
2,2474,Note_on_c,9,41,127,
2,2474,Note_on_c,9,42,127,
2,2474,Note_on_c,9,43,127,
2,2474,Note_on_c,9,45,127,
2,2474,Note_on_c,9,48,127,
2,2474,Note_on_c,9,51,127,
2,2474,Note_on_c,9,53,127,
2,2474,Note_on_c,9,80,127,
2,2474,Note_on_c,9,81,127,
2,2474,Note_on_c,9,82,127,
2,2475,Note_off_c,9,36,0,
2,2476,Note_on_c,9,36,127,
2,2476,Note_on_c,9,37,127,
2,2476,Note_on_c,9,38,127,
2,2476,Note_on_c,9,39,127,
2,2476,Note_on_c,9,41,127,
2,2476,Note_on_c,9,42,127,
2,2476,Note_on_c,9,43,127,
2,2476,Note_on_c,9,45,127,
2,2476,Note_on_c,9,48,127,
2,2476,Note_on_c,9,51,127,
2,2476,Note_on_c,9,53,127,
2,2476,Note_on_c,9,80,127,
2,2476,Note_on_c,9,81,127,
2,2476,Note_on_c,9,82,127,
2,2477,Note_off_c,9,36,0,
2,2478,Note_on_c,9,36,127,
2,2478,Note_on_c,9,37,127,
2,2478,Note_on_c,9,38,127,
2,2478,Note_on_c,9,39,127,
2,2478,Note_on_c,9,41,127,
2,2478,Note_on_c,9,42,127,
2,2478,Note_on_c,9,43,127,
2,2478,Note_on_c,9,45,127,
2,2478,Note_on_c,9,48,127,
2,2478,Note_on_c,9,51,127,
2,2478,Note_on_c,9,53,127,
2,2478,Note_on_c,9,80,127,
2,2478,Note_on_c,9,81,127,
2,2478,Note_on_c,9,82,127,
2,2479,Note_off_c,9,36,0,
2,2480,Note_on_c,9,36,127,
2,2480,Note_on_c,9,37,127,
2,2480,Note_on_c,9,38,127,
2,2480,Note_on_c,9,39,127,
2,2480,Note_on_c,9,41,127,
2,2480,Note_on_c,9,42,127,
2,2480,Note_on_c,9,43,127,
2,2480,Note_on_c,9,45,127,
2,2480,Note_on_c,9,48,127,
2,2480,Note_on_c,9,51,127,
2,2480,Note_on_c,9,53,127,
2,2480,Note_on_c,9,80,127,
2,2480,Note_on_c,9,81,127,
2,2480,Note_on_c,9,82,127,
2,2481,Note_off_c,9,36,0,
2,2482,Note_on_c,9,36,127,
2,2482,Note_on_c,9,37,127,
2,2482,Note_on_c,9,38,127,
2,2482,Note_on_c,9,39,127,
2,2482,Note_on_c,9,41,127,
2,2482,Note_on_c,9,42,127,
2,2482,Note_on_c,9,43,127,
2,2482,Note_on_c,9,45,127,
2,2482,Note_on_c,9,48,127,
2,2482,Note_on_c,9,51,127,
2,2482,Note_on_c,9,53,127,
2,2482,Note_on_c,9,80,127,
2,2482,Note_on_c,9,81,127,
2,2482,Note_on_c,9,82,127,
2,2483,Note_off_c,9,36,0,
2,2484,Note_on_c,9,36,127,
2,2484,Note_on_c,9,37,127,
2,2484,Note_on_c,9,38,127,
2,2484,Note_on_c,9,39,127,
2,2484,Note_on_c,9,41,127,
2,2484,Note_on_c,9,42,127,
2,2484,Note_on_c,9,43,127,
2,2484,Note_on_c,9,45,127,
2,2484,Note_on_c,9,48,127,
2,2484,Note_on_c,9,51,127,
2,2484,Note_on_c,9,53,127,
2,2484,Note_on_c,9,80,127,
2,2484,Note_on_c,9,81,127,
2,2484,Note_on_c,9,82,127,
2,2485,Note_off_c,9,36,0,
2,2486,Note_on_c,9,36,127,
2,2486,Note_on_c,9,37,127,
2,2486,Note_on_c,9,38,127,
2,2486,Note_on_c,9,39,127,
2,2486,Note_on_c,9,41,127,
2,2486,Note_on_c,9,42,127,
2,2486,Note_on_c,9,43,127,
2,2486,Note_on_c,9,45,127,
2,2486,Note_on_c,9,48,127,
2,2486,Note_on_c,9,51,127,
2,2486,Note_on_c,9,53,127,
2,2486,Note_on_c,9,80,127,
2,2486,Note_on_c,9,81,127,
2,2486,Note_on_c,9,82,127,
2,2487,Note_off_c,9,36,0,
2,2488,Note_on_c,9,36,127,
2,2488,Note_on_c,9,37,127,
2,2488,Note_on_c,9,38,127,
2,2488,Note_on_c,9,39,127,
2,2488,Note_on_c,9,41,127,
2,2488,Note_on_c,9,42,127,
2,2488,Note_on_c,9,43,127,
2,2488,Note_on_c,9,45,127,
2,2488,Note_on_c,9,48,127,
2,2488,Note_on_c,9,51,127,
2,2488,Note_on_c,9,53,127,
2,2488,Note_on_c,9,80,127,
2,2488,Note_on_c,9,81,127,
2,2488,Note_on_c,9,82,127,
2,2489,Note_off_c,9,36,0,
2,2490,Note_on_c,9,36,127,
2,2490,Note_on_c,9,37,127,
2,2490,Note_on_c,9,38,127,
2,2490,Note_on_c,9,39,127,
2,2490,Note_on_c,9,41,127,
2,2490,Note_on_c,9,42,127,
2,2490,Note_on_c,9,43,127,
2,2490,Note_on_c,9,45,127,
2,2490,Note_on_c,9,48,127,
2,2490,Note_on_c,9,51,127,
2,2490,Note_on_c,9,53,127,
2,2490,Note_on_c,9,80,127,
2,2490,Note_on_c,9,81,127,
2,2490,Note_on_c,9,82,127,
2,2491,Note_off_c,9,36,0,
2,2492,Note_on_c,9,36,127,
2,2492,Note_on_c,9,37,127,
2,2492,Note_on_c,9,38,127,
2,2492,Note_on_c,9,39,127,
2,2492,Note_on_c,9,41,127,
2,2492,Note_on_c,9,42,127,
2,2492,Note_on_c,9,43,127,
2,2492,Note_on_c,9,45,127,
2,2492,Note_on_c,9,48,127,
2,2492,Note_on_c,9,51,127,
2,2492,Note_on_c,9,53,127,
2,2492,Note_on_c,9,80,127,
2,2492,Note_on_c,9,81,127,
2,2492,Note_on_c,9,82,127,
2,2493,Note_off_c,9,36,0,
2,2494,Note_on_c,9,36,127,
2,2494,Note_on_c,9,37,127,
2,2494,Note_on_c,9,38,127,
2,2494,Note_on_c,9,39,127,
2,2494,Note_on_c,9,41,127,
2,2494,Note_on_c,9,42,127,
2,2494,Note_on_c,9,43,127,
2,2494,Note_on_c,9,45,127,
2,2494,Note_on_c,9,48,127,
2,2494,Note_on_c,9,51,127,
2,2494,Note_on_c,9,53,127,
2,2494,Note_on_c,9,80,127,
2,2494,Note_on_c,9,81,127,
2,2494,Note_on_c,9,82,127,
2,2495,Note_off_c,9,36,0,
2,2496,Note_on_c,9,36,127,
2,2496,Note_on_c,9,37,127,
2,2496,Note_on_c,9,38,127,
2,2496,Note_on_c,9,39,127,
2,2496,Note_on_c,9,41,127,
2,2496,Note_on_c,9,42,127,
2,2496,Note_on_c,9,43,127,
2,2496,Note_on_c,9,45,127,
2,2496,Note_on_c,9,48,127,
2,2496,Note_on_c,9,51,127,
2,2496,Note_on_c,9,53,127,
2,2496,Note_on_c,9,80,127,
2,2496,Note_on_c,9,81,127,
2,2496,Note_on_c,9,82,127,
2,2497,Note_off_c,9,36,0,
2,2498,Note_on_c,9,36,127,
2,2498,Note_on_c,9,37,127,
2,2498,Note_on_c,9,38,127,
2,2498,Note_on_c,9,39,127,
2,2498,Note_on_c,9,41,127,
2,2498,Note_on_c,9,42,127,
2,2498,Note_on_c,9,43,127,
2,2498,Note_on_c,9,45,127,
2,2498,Note_on_c,9,48,127,
2,2498,Note_on_c,9,51,127,
2,2498,Note_on_c,9,53,127,
2,2498,Note_on_c,9,80,127,
2,2498,Note_on_c,9,81,127,
2,2498,Note_on_c,9,82,127,
2,2499,Note_off_c,9,36,0,
2,2500,Note_on_c,9,36,127,
2,2500,Note_on_c,9,37,127,
2,2500,Note_on_c,9,38,127,
2,2500,Note_on_c,9,39,127,
2,2500,Note_on_c,9,41,127,
2,2500,Note_on_c,9,42,127,
2,2500,Note_on_c,9,43,127,
2,2500,Note_on_c,9,45,127,
2,2500,Note_on_c,9,48,127,
2,2500,Note_on_c,9,51,127,
2,2500,Note_on_c,9,53,127,
2,2500,Note_on_c,9,80,127,
2,2500,Note_on_c,9,81,127,
2,2500,Note_on_c,9,82,127,
2,2501,Note_off_c,9,36,0,
2,2502,Note_on_c,9,36,127,
2,2502,Note_on_c,9,37,127,
2,2502,Note_on_c,9,38,127,
2,2502,Note_on_c,9,39,127,
2,2502,Note_on_c,9,41,127,
2,2502,Note_on_c,9,42,127,
2,2502,Note_on_c,9,43,127,
2,2502,Note_on_c,9,45,127,
2,2502,Note_on_c,9,48,127,
2,2502,Note_on_c,9,51,127,
2,2502,Note_on_c,9,53,127,
2,2502,Note_on_c,9,80,127,
2,2502,Note_on_c,9,81,127,
2,2502,Note_on_c,9,82,127,
2,2503,Note_off_c,9,36,0,
2,2504,Note_on_c,9,36,127,
2,2504,Note_on_c,9,37,127,
2,2504,Note_on_c,9,38,127,
2,2504,Note_on_c,9,39,127,
2,2504,Note_on_c,9,41,127,
2,2504,Note_on_c,9,42,127,
2,2504,Note_on_c,9,43,127,
2,2504,Note_on_c,9,45,127,
2,2504,Note_on_c,9,48,127,
2,2504,Note_on_c,9,51,127,
2,2504,Note_on_c,9,53,127,
2,2504,Note_on_c,9,80,127,
2,2504,Note_on_c,9,81,127,
2,2504,Note_on_c,9,82,127,
2,2505,Note_off_c,9,36,0,
2,2506,Note_on_c,9,36,127,
2,2506,Note_on_c,9,37,127,
2,2506,Note_on_c,9,38,127,
2,2506,Note_on_c,9,39,127,
2,2506,Note_on_c,9,41,127,
2,2506,Note_on_c,9,42,127,
2,2506,Note_on_c,9,43,127,
2,2506,Note_on_c,9,45,127,
2,2506,Note_on_c,9,48,127,
2,2506,Note_on_c,9,51,127,
2,2506,Note_on_c,9,53,127,
2,2506,Note_on_c,9,80,127,
2,2506,Note_on_c,9,81,127,
2,2506,Note_on_c,9,82,127,
2,2507,Note_off_c,9,36,0,
2,2508,Note_on_c,9,36,127,
2,2508,Note_on_c,9,37,127,
2,2508,Note_on_c,9,38,127,
2,2508,Note_on_c,9,39,127,
2,2508,Note_on_c,9,41,127,
2,2508,Note_on_c,9,42,127,
2,2508,Note_on_c,9,43,127,
2,2508,Note_on_c,9,45,127,
2,2508,Note_on_c,9,48,127,
2,2508,Note_on_c,9,51,127,
2,2508,Note_on_c,9,53,127,
2,2508,Note_on_c,9,80,127,
2,2508,Note_on_c,9,81,127,
2,2508,Note_on_c,9,82,127,
2,2509,Note_off_c,9,36,0,
2,2510,Note_on_c,9,36,127,
2,2510,Note_on_c,9,37,127,
2,2510,Note_on_c,9,38,127,
2,2510,Note_on_c,9,39,127,
2,2510,Note_on_c,9,41,127,
2,2510,Note_on_c,9,42,127,
2,2510,Note_on_c,9,43,127,
2,2510,Note_on_c,9,45,127,
2,2510,Note_on_c,9,48,127,
2,2510,Note_on_c,9,51,127,
2,2510,Note_on_c,9,53,127,
2,2510,Note_on_c,9,80,127,
2,2510,Note_on_c,9,81,127,
2,2510,Note_on_c,9,82,127,
2,2511,Note_off_c,9,36,0,
2,2512,Note_on_c,9,36,127,
2,2512,Note_on_c,9,37,127,
2,2512,Note_on_c,9,38,127,
2,2512,Note_on_c,9,39,127,
2,2512,Note_on_c,9,41,127,
2,2512,Note_on_c,9,42,127,
2,2512,Note_on_c,9,43,127,
2,2512,Note_on_c,9,45,127,
2,2512,Note_on_c,9,48,127,
2,2512,Note_on_c,9,51,127,
2,2512,Note_on_c,9,53,127,
2,2512,Note_on_c,9,80,127,
2,2512,Note_on_c,9,81,127,
2,2512,Note_on_c,9,82,127,
2,2513,Note_off_c,9,36,0,
2,2514,Note_on_c,9,36,127,
2,2514,Note_on_c,9,37,127,
2,2514,Note_on_c,9,38,127,
2,2514,Note_on_c,9,39,127,
2,2514,Note_on_c,9,41,127,
2,2514,Note_on_c,9,42,127,
2,2514,Note_on_c,9,43,127,
2,2514,Note_on_c,9,45,127,
2,2514,Note_on_c,9,48,127,
2,2514,Note_on_c,9,51,127,
2,2514,Note_on_c,9,53,127,
2,2514,Note_on_c,9,80,127,
2,2514,Note_on_c,9,81,127,
2,2514,Note_on_c,9,82,127,
2,2515,Note_off_c,9,36,0,
2,2516,Note_on_c,9,36,127,
2,2516,Note_on_c,9,37,127,
2,2516,Note_on_c,9,38,127,
2,2516,Note_on_c,9,39,127,
2,2516,Note_on_c,9,41,127,
2,2516,Note_on_c,9,42,127,
2,2516,Note_on_c,9,43,127,
2,2516,Note_on_c,9,45,127,
2,2516,Note_on_c,9,48,127,
2,2516,Note_on_c,9,51,127,
2,2516,Note_on_c,9,53,127,
2,2516,Note_on_c,9,80,127,
2,2516,Note_on_c,9,81,127,
2,2516,Note_on_c,9,82,127,
2,2517,Note_off_c,9,36,0,
2,2518,Note_on_c,9,36,127,
2,2518,Note_on_c,9,37,127,
2,2518,Note_on_c,9,38,127,
2,2518,Note_on_c,9,39,127,
2,2518,Note_on_c,9,41,127,
2,2518,Note_on_c,9,42,127,
2,2518,Note_on_c,9,43,127,
2,2518,Note_on_c,9,45,127,
2,2518,Note_on_c,9,48,127,
2,2518,Note_on_c,9,51,127,
2,2518,Note_on_c,9,53,127,
2,2518,Note_on_c,9,80,127,
2,2518,Note_on_c,9,81,127,
2,2518,Note_on_c,9,82,127,
2,2519,Note_off_c,9,36,0,
2,2520,Note_on_c,9,36,127,
2,2520,Note_on_c,9,37,127,
2,2520,Note_on_c,9,38,127,
2,2520,Note_on_c,9,39,127,
2,2520,Note_on_c,9,41,127,
2,2520,Note_on_c,9,42,127,
2,2520,Note_on_c,9,43,127,
2,2520,Note_on_c,9,45,127,
2,2520,Note_on_c,9,48,127,
2,2520,Note_on_c,9,51,127,
2,2520,Note_on_c,9,53,127,
2,2520,Note_on_c,9,80,127,
2,2520,Note_on_c,9,81,127,
2,2520,Note_on_c,9,82,127,
2,2521,Note_off_c,9,36,0,
2,2522,Note_on_c,9,36,127,
2,2522,Note_on_c,9,37,127,
2,2522,Note_on_c,9,38,127,
2,2522,Note_on_c,9,39,127,
2,2522,Note_on_c,9,41,127,
2,2522,Note_on_c,9,42,127,
2,2522,Note_on_c,9,43,127,
2,2522,Note_on_c,9,45,127,
2,2522,Note_on_c,9,48,127,
2,2522,Note_on_c,9,51,127,
2,2522,Note_on_c,9,53,127,
2,2522,Note_on_c,9,80,127,
2,2522,Note_on_c,9,81,127,
2,2522,Note_on_c,9,82,127,
2,2523,Note_off_c,9,36,0,
2,2524,Note_on_c,9,36,127,
2,2524,Note_on_c,9,37,127,
2,2524,Note_on_c,9,38,127,
2,2524,Note_on_c,9,39,127,
2,2524,Note_on_c,9,41,127,
2,2524,Note_on_c,9,42,127,
2,2524,Note_on_c,9,43,127,
2,2524,Note_on_c,9,45,127,
2,2524,Note_on_c,9,48,127,
2,2524,Note_on_c,9,51,127,
2,2524,Note_on_c,9,53,127,
2,2524,Note_on_c,9,80,127,
2,2524,Note_on_c,9,81,127,
2,2524,Note_on_c,9,82,127,
2,2525,Note_off_c,9,36,0,
2,2526,Note_on_c,9,36,127,
2,2526,Note_on_c,9,37,127,
2,2526,Note_on_c,9,38,127,
2,2526,Note_on_c,9,39,127,
2,2526,Note_on_c,9,41,127,
2,2526,Note_on_c,9,42,127,
2,2526,Note_on_c,9,43,127,
2,2526,Note_on_c,9,45,127,
2,2526,Note_on_c,9,48,127,
2,2526,Note_on_c,9,51,127,
2,2526,Note_on_c,9,53,127,
2,2526,Note_on_c,9,80,127,
2,2526,Note_on_c,9,81,127,
2,2526,Note_on_c,9,82,127,
2,2527,Note_off_c,9,36,0,
2,2528,Note_on_c,9,36,127,
2,2528,Note_on_c,9,37,127,
2,2528,Note_on_c,9,38,127,
2,2528,Note_on_c,9,39,127,
2,2528,Note_on_c,9,41,127,
2,2528,Note_on_c,9,42,127,
2,2528,Note_on_c,9,43,127,
2,2528,Note_on_c,9,45,127,
2,2528,Note_on_c,9,48,127,
2,2528,Note_on_c,9,51,127,
2,2528,Note_on_c,9,53,127,
2,2528,Note_on_c,9,80,127,
2,2528,Note_on_c,9,81,127,
2,2528,Note_on_c,9,82,127,
2,2529,Note_off_c,9,36,0,
2,2530,Note_on_c,9,36,127,
2,2530,Note_on_c,9,37,127,
2,2530,Note_on_c,9,38,127,
2,2530,Note_on_c,9,39,127,
2,2530,Note_on_c,9,41,127,
2,2530,Note_on_c,9,42,127,
2,2530,Note_on_c,9,43,127,
2,2530,Note_on_c,9,45,127,
2,2530,Note_on_c,9,48,127,
2,2530,Note_on_c,9,51,127,
2,2530,Note_on_c,9,53,127,
2,2530,Note_on_c,9,80,127,
2,2530,Note_on_c,9,81,127,
2,2530,Note_on_c,9,82,127,
2,2531,Note_off_c,9,36,0,
2,2532,Note_on_c,9,36,127,
2,2532,Note_on_c,9,37,127,
2,2532,Note_on_c,9,38,127,
2,2532,Note_on_c,9,39,127,
2,2532,Note_on_c,9,41,127,
2,2532,Note_on_c,9,42,127,
2,2532,Note_on_c,9,43,127,
2,2532,Note_on_c,9,45,127,
2,2532,Note_on_c,9,48,127,
2,2532,Note_on_c,9,51,127,
2,2532,Note_on_c,9,53,127,
2,2532,Note_on_c,9,80,127,
2,2532,Note_on_c,9,81,127,
2,2532,Note_on_c,9,82,127,
2,2533,Note_off_c,9,36,0,
2,2534,Note_on_c,9,36,127,
2,2534,Note_on_c,9,37,127,
2,2534,Note_on_c,9,38,127,
2,2534,Note_on_c,9,39,127,
2,2534,Note_on_c,9,41,127,
2,2534,Note_on_c,9,42,127,
2,2534,Note_on_c,9,43,127,
2,2534,Note_on_c,9,45,127,
2,2534,Note_on_c,9,48,127,
2,2534,Note_on_c,9,51,127,
2,2534,Note_on_c,9,53,127,
2,2534,Note_on_c,9,80,127,
2,2534,Note_on_c,9,81,127,
2,2534,Note_on_c,9,82,127,
2,2535,Note_off_c,9,36,0,
2,2536,Note_on_c,9,36,127,
2,2536,Note_on_c,9,37,127,
2,2536,Note_on_c,9,38,127,
2,2536,Note_on_c,9,39,127,
2,2536,Note_on_c,9,41,127,
2,2536,Note_on_c,9,42,127,
2,2536,Note_on_c,9,43,127,
2,2536,Note_on_c,9,45,127,
2,2536,Note_on_c,9,48,127,
2,2536,Note_on_c,9,51,127,
2,2536,Note_on_c,9,53,127,
2,2536,Note_on_c,9,80,127,
2,2536,Note_on_c,9,81,127,
2,2536,Note_on_c,9,82,127,
2,2537,Note_off_c,9,36,0,
2,2538,Note_on_c,9,36,127,
2,2538,Note_on_c,9,37,127,
2,2538,Note_on_c,9,38,127,
2,2538,Note_on_c,9,39,127,
2,2538,Note_on_c,9,41,127,
2,2538,Note_on_c,9,42,127,
2,2538,Note_on_c,9,43,127,
2,2538,Note_on_c,9,45,127,
2,2538,Note_on_c,9,48,127,
2,2538,Note_on_c,9,51,127,
2,2538,Note_on_c,9,53,127,
2,2538,Note_on_c,9,80,127,
2,2538,Note_on_c,9,81,127,
2,2538,Note_on_c,9,82,127,
2,2539,Note_off_c,9,36,0,
2,2540,Note_on_c,9,36,127,
2,2540,Note_on_c,9,37,127,
2,2540,Note_on_c,9,38,127,
2,2540,Note_on_c,9,39,127,
2,2540,Note_on_c,9,41,127,
2,2540,Note_on_c,9,42,127,
2,2540,Note_on_c,9,43,127,
2,2540,Note_on_c,9,45,127,
2,2540,Note_on_c,9,48,127,
2,2540,Note_on_c,9,51,127,
2,2540,Note_on_c,9,53,127,
2,2540,Note_on_c,9,80,127,
2,2540,Note_on_c,9,81,127,
2,2540,Note_on_c,9,82,127,
2,2541,Note_off_c,9,36,0,
2,2542,Note_on_c,9,36,127,
2,2542,Note_on_c,9,37,127,
2,2542,Note_on_c,9,38,127,
2,2542,Note_on_c,9,39,127,
2,2542,Note_on_c,9,41,127,
2,2542,Note_on_c,9,42,127,
2,2542,Note_on_c,9,43,127,
2,2542,Note_on_c,9,45,127,
2,2542,Note_on_c,9,48,127,
2,2542,Note_on_c,9,51,127,
2,2542,Note_on_c,9,53,127,
2,2542,Note_on_c,9,80,127,
2,2542,Note_on_c,9,81,127,
2,2542,Note_on_c,9,82,127,
2,2543,Note_off_c,9,36,0,
2,2544,Note_on_c,9,36,127,
2,2544,Note_on_c,9,37,127,
2,2544,Note_on_c,9,38,127,
2,2544,Note_on_c,9,39,127,
2,2544,Note_on_c,9,41,127,
2,2544,Note_on_c,9,42,127,
2,2544,Note_on_c,9,43,127,
2,2544,Note_on_c,9,45,127,
2,2544,Note_on_c,9,48,127,
2,2544,Note_on_c,9,51,127,
2,2544,Note_on_c,9,53,127,
2,2544,Note_on_c,9,80,127,
2,2544,Note_on_c,9,81,127,
2,2544,Note_on_c,9,82,127,
2,2545,Note_off_c,9,36,0,
2,2546,Note_on_c,9,36,127,
2,2546,Note_on_c,9,37,127,
2,2546,Note_on_c,9,38,127,
2,2546,Note_on_c,9,39,127,
2,2546,Note_on_c,9,41,127,
2,2546,Note_on_c,9,42,127,
2,2546,Note_on_c,9,43,127,
2,2546,Note_on_c,9,45,127,
2,2546,Note_on_c,9,48,127,
2,2546,Note_on_c,9,51,127,
2,2546,Note_on_c,9,53,127,
2,2546,Note_on_c,9,80,127,
2,2546,Note_on_c,9,81,127,
2,2546,Note_on_c,9,82,127,
2,2547,Note_off_c,9,36,0,
2,2548,Note_on_c,9,36,127,
2,2548,Note_on_c,9,37,127,
2,2548,Note_on_c,9,38,127,
2,2548,Note_on_c,9,39,127,
2,2548,Note_on_c,9,41,127,
2,2548,Note_on_c,9,42,127,
2,2548,Note_on_c,9,43,127,
2,2548,Note_on_c,9,45,127,
2,2548,Note_on_c,9,48,127,
2,2548,Note_on_c,9,51,127,
2,2548,Note_on_c,9,53,127,
2,2548,Note_on_c,9,80,127,
2,2548,Note_on_c,9,81,127,
2,2548,Note_on_c,9,82,127,
2,2549,Note_off_c,9,36,0,
2,2550,Note_on_c,9,36,127,
2,2550,Note_on_c,9,37,127,
2,2550,Note_on_c,9,38,127,
2,2550,Note_on_c,9,39,127,
2,2550,Note_on_c,9,41,127,
2,2550,Note_on_c,9,42,127,
2,2550,Note_on_c,9,43,127,
2,2550,Note_on_c,9,45,127,
2,2550,Note_on_c,9,48,127,
2,2550,Note_on_c,9,51,127,
2,2550,Note_on_c,9,53,127,
2,2550,Note_on_c,9,80,127,
2,2550,Note_on_c,9,81,127,
2,2550,Note_on_c,9,82,127,
2,2551,Note_off_c,9,36,0,
2,2552,Note_on_c,9,36,127,
2,2552,Note_on_c,9,37,127,
2,2552,Note_on_c,9,38,127,
2,2552,Note_on_c,9,39,127,
2,2552,Note_on_c,9,41,127,
2,2552,Note_on_c,9,42,127,
2,2552,Note_on_c,9,43,127,
2,2552,Note_on_c,9,45,127,
2,2552,Note_on_c,9,48,127,
2,2552,Note_on_c,9,51,127,
2,2552,Note_on_c,9,53,127,
2,2552,Note_on_c,9,80,127,
2,2552,Note_on_c,9,81,127,
2,2552,Note_on_c,9,82,127,
2,2553,Note_off_c,9,36,0,
2,2554,Note_on_c,9,36,127,
2,2554,Note_on_c,9,37,127,
2,2554,Note_on_c,9,38,127,
2,2554,Note_on_c,9,39,127,
2,2554,Note_on_c,9,41,127,
2,2554,Note_on_c,9,42,127,
2,2554,Note_on_c,9,43,127,
2,2554,Note_on_c,9,45,127,
2,2554,Note_on_c,9,48,127,
2,2554,Note_on_c,9,51,127,
2,2554,Note_on_c,9,53,127,
2,2554,Note_on_c,9,80,127,
2,2554,Note_on_c,9,81,127,
2,2554,Note_on_c,9,82,127,
2,2555,Note_off_c,9,36,0,
2,2556,Note_on_c,9,36,127,
2,2556,Note_on_c,9,37,127,
2,2556,Note_on_c,9,38,127,
2,2556,Note_on_c,9,39,127,
2,2556,Note_on_c,9,41,127,
2,2556,Note_on_c,9,42,127,
2,2556,Note_on_c,9,43,127,
2,2556,Note_on_c,9,45,127,
2,2556,Note_on_c,9,48,127,
2,2556,Note_on_c,9,51,127,
2,2556,Note_on_c,9,53,127,
2,2556,Note_on_c,9,80,127,
2,2556,Note_on_c,9,81,127,
2,2556,Note_on_c,9,82,127,
2,2557,Note_off_c,9,36,0,
2,2558,Note_on_c,9,36,127,
2,2558,Note_on_c,9,37,127,
2,2558,Note_on_c,9,38,127,
2,2558,Note_on_c,9,39,127,
2,2558,Note_on_c,9,41,127,
2,2558,Note_on_c,9,42,127,
2,2558,Note_on_c,9,43,127,
2,2558,Note_on_c,9,45,127,
2,2558,Note_on_c,9,48,127,
2,2558,Note_on_c,9,51,127,
2,2558,Note_on_c,9,53,127,
2,2558,Note_on_c,9,80,127,
2,2558,Note_on_c,9,81,127,
2,2558,Note_on_c,9,82,127,
2,2559,Note_off_c,9,36,0,
2,2560,Note_on_c,9,36,127,
2,2560,Note_on_c,9,37,127,
2,2560,Note_on_c,9,38,127,
2,2560,Note_on_c,9,39,127,
2,2560,Note_on_c,9,41,127,
2,2560,Note_on_c,9,42,127,
2,2560,Note_on_c,9,43,127,
2,2560,Note_on_c,9,45,127,
2,2560,Note_on_c,9,48,127,
2,2560,Note_on_c,9,51,127,
2,2560,Note_on_c,9,53,127,
2,2560,Note_on_c,9,80,127,
2,2560,Note_on_c,9,81,127,
2,2560,Note_on_c,9,82,127,
2,2561,Note_off_c,9,36,0,
2,2562,Note_on_c,9,36,127,
2,2562,Note_on_c,9,37,127,
2,2562,Note_on_c,9,38,127,
2,2562,Note_on_c,9,39,127,
2,2562,Note_on_c,9,41,127,
2,2562,Note_on_c,9,42,127,
2,2562,Note_on_c,9,43,127,
2,2562,Note_on_c,9,45,127,
2,2562,Note_on_c,9,48,127,
2,2562,Note_on_c,9,51,127,
2,2562,Note_on_c,9,53,127,
2,2562,Note_on_c,9,80,127,
2,2562,Note_on_c,9,81,127,
2,2562,Note_on_c,9,82,127,
2,2563,Note_off_c,9,36,0,
2,2564,Note_on_c,9,36,127,
2,2564,Note_on_c,9,37,127,
2,2564,Note_on_c,9,38,127,
2,2564,Note_on_c,9,39,127,
2,2564,Note_on_c,9,41,127,
2,2564,Note_on_c,9,42,127,
2,2564,Note_on_c,9,43,127,
2,2564,Note_on_c,9,45,127,
2,2564,Note_on_c,9,48,127,
2,2564,Note_on_c,9,51,127,
2,2564,Note_on_c,9,53,127,
2,2564,Note_on_c,9,80,127,
2,2564,Note_on_c,9,81,127,
2,2564,Note_on_c,9,82,127,
2,2565,Note_off_c,9,36,0,
2,2566,Note_on_c,9,36,127,
2,2566,Note_on_c,9,37,127,
2,2566,Note_on_c,9,38,127,
2,2566,Note_on_c,9,39,127,
2,2566,Note_on_c,9,41,127,
2,2566,Note_on_c,9,42,127,
2,2566,Note_on_c,9,43,127,
2,2566,Note_on_c,9,45,127,
2,2566,Note_on_c,9,48,127,
2,2566,Note_on_c,9,51,127,
2,2566,Note_on_c,9,53,127,
2,2566,Note_on_c,9,80,127,
2,2566,Note_on_c,9,81,127,
2,2566,Note_on_c,9,82,127,
2,2567,Note_off_c,9,36,0,
2,2568,Note_on_c,9,36,127,
2,2568,Note_on_c,9,37,127,
2,2568,Note_on_c,9,38,127,
2,2568,Note_on_c,9,39,127,
2,2568,Note_on_c,9,41,127,
2,2568,Note_on_c,9,42,127,
2,2568,Note_on_c,9,43,127,
2,2568,Note_on_c,9,45,127,
2,2568,Note_on_c,9,48,127,
2,2568,Note_on_c,9,51,127,
2,2568,Note_on_c,9,53,127,
2,2568,Note_on_c,9,80,127,
2,2568,Note_on_c,9,81,127,
2,2568,Note_on_c,9,82,127,
2,2569,Note_off_c,9,36,0,
2,2570,Note_on_c,9,36,127,
2,2570,Note_on_c,9,37,127,
2,2570,Note_on_c,9,38,127,
2,2570,Note_on_c,9,39,127,
2,2570,Note_on_c,9,41,127,
2,2570,Note_on_c,9,42,127,
2,2570,Note_on_c,9,43,127,
2,2570,Note_on_c,9,45,127,
2,2570,Note_on_c,9,48,127,
2,2570,Note_on_c,9,51,127,
2,2570,Note_on_c,9,53,127,
2,2570,Note_on_c,9,80,127,
2,2570,Note_on_c,9,81,127,
2,2570,Note_on_c,9,82,127,
2,2571,Note_off_c,9,36,0,
2,2572,Note_on_c,9,36,127,
2,2572,Note_on_c,9,37,127,
2,2572,Note_on_c,9,38,127,
2,2572,Note_on_c,9,39,127,
2,2572,Note_on_c,9,41,127,
2,2572,Note_on_c,9,42,127,
2,2572,Note_on_c,9,43,127,
2,2572,Note_on_c,9,45,127,
2,2572,Note_on_c,9,48,127,
2,2572,Note_on_c,9,51,127,
2,2572,Note_on_c,9,53,127,
2,2572,Note_on_c,9,80,127,
2,2572,Note_on_c,9,81,127,
2,2572,Note_on_c,9,82,127,
2,2573,Note_off_c,9,36,0,
2,2574,Note_on_c,9,36,127,
2,2574,Note_on_c,9,37,127,
2,2574,Note_on_c,9,38,127,
2,2574,Note_on_c,9,39,127,
2,2574,Note_on_c,9,41,127,
2,2574,Note_on_c,9,42,127,
2,2574,Note_on_c,9,43,127,
2,2574,Note_on_c,9,45,127,
2,2574,Note_on_c,9,48,127,
2,2574,Note_on_c,9,51,127,
2,2574,Note_on_c,9,53,127,
2,2574,Note_on_c,9,80,127,
2,2574,Note_on_c,9,81,127,
2,2574,Note_on_c,9,82,127,
2,2575,Note_off_c,9,36,0,
2,2576,Note_on_c,9,36,127,
2,2576,Note_on_c,9,37,127,
2,2576,Note_on_c,9,38,127,
2,2576,Note_on_c,9,39,127,
2,2576,Note_on_c,9,41,127,
2,2576,Note_on_c,9,42,127,
2,2576,Note_on_c,9,43,127,
2,2576,Note_on_c,9,45,127,
2,2576,Note_on_c,9,48,127,
2,2576,Note_on_c,9,51,127,
2,2576,Note_on_c,9,53,127,
2,2576,Note_on_c,9,80,127,
2,2576,Note_on_c,9,81,127,
2,2576,Note_on_c,9,82,127,
2,2577,Note_off_c,9,36,0,
2,2578,Note_on_c,9,36,127,
2,2578,Note_on_c,9,37,127,
2,2578,Note_on_c,9,38,127,
2,2578,Note_on_c,9,39,127,
2,2578,Note_on_c,9,41,127,
2,2578,Note_on_c,9,42,127,
2,2578,Note_on_c,9,43,127,
2,2578,Note_on_c,9,45,127,
2,2578,Note_on_c,9,48,127,
2,2578,Note_on_c,9,51,127,
2,2578,Note_on_c,9,53,127,
2,2578,Note_on_c,9,80,127,
2,2578,Note_on_c,9,81,127,
2,2578,Note_on_c,9,82,127,
2,2579,Note_off_c,9,36,0,
2,2580,Note_on_c,9,36,127,
2,2580,Note_on_c,9,37,127,
2,2580,Note_on_c,9,38,127,
2,2580,Note_on_c,9,39,127,
2,2580,Note_on_c,9,41,127,
2,2580,Note_on_c,9,42,127,
2,2580,Note_on_c,9,43,127,
2,2580,Note_on_c,9,45,127,
2,2580,Note_on_c,9,48,127,
2,2580,Note_on_c,9,51,127,
2,2580,Note_on_c,9,53,127,
2,2580,Note_on_c,9,80,127,
2,2580,Note_on_c,9,81,127,
2,2580,Note_on_c,9,82,127,
2,2581,Note_off_c,9,36,0,
2,2582,Note_on_c,9,36,127,
2,2582,Note_on_c,9,37,127,
2,2582,Note_on_c,9,38,127,
2,2582,Note_on_c,9,39,127,
2,2582,Note_on_c,9,41,127,
2,2582,Note_on_c,9,42,127,
2,2582,Note_on_c,9,43,127,
2,2582,Note_on_c,9,45,127,
2,2582,Note_on_c,9,48,127,
2,2582,Note_on_c,9,51,127,
2,2582,Note_on_c,9,53,127,
2,2582,Note_on_c,9,80,127,
2,2582,Note_on_c,9,81,127,
2,2582,Note_on_c,9,82,127,
2,2583,Note_off_c,9,36,0,
2,2584,Note_on_c,9,36,127,
2,2584,Note_on_c,9,37,127,
2,2584,Note_on_c,9,38,127,
2,2584,Note_on_c,9,39,127,
2,2584,Note_on_c,9,41,127,
2,2584,Note_on_c,9,42,127,
2,2584,Note_on_c,9,43,127,
2,2584,Note_on_c,9,45,127,
2,2584,Note_on_c,9,48,127,
2,2584,Note_on_c,9,51,127,
2,2584,Note_on_c,9,53,127,
2,2584,Note_on_c,9,80,127,
2,2584,Note_on_c,9,81,127,
2,2584,Note_on_c,9,82,127,
2,2585,Note_off_c,9,36,0,
2,2586,Note_on_c,9,36,127,
2,2586,Note_on_c,9,37,127,
2,2586,Note_on_c,9,38,127,
2,2586,Note_on_c,9,39,127,
2,2586,Note_on_c,9,41,127,
2,2586,Note_on_c,9,42,127,
2,2586,Note_on_c,9,43,127,
2,2586,Note_on_c,9,45,127,
2,2586,Note_on_c,9,48,127,
2,2586,Note_on_c,9,51,127,
2,2586,Note_on_c,9,53,127,
2,2586,Note_on_c,9,80,127,
2,2586,Note_on_c,9,81,127,
2,2586,Note_on_c,9,82,127,
2,2587,Note_off_c,9,36,0,
2,2588,Note_on_c,9,36,127,
2,2588,Note_on_c,9,37,127,
2,2588,Note_on_c,9,38,127,
2,2588,Note_on_c,9,39,127,
2,2588,Note_on_c,9,41,127,
2,2588,Note_on_c,9,42,127,
2,2588,Note_on_c,9,43,127,
2,2588,Note_on_c,9,45,127,
2,2588,Note_on_c,9,48,127,
2,2588,Note_on_c,9,51,127,
2,2588,Note_on_c,9,53,127,
2,2588,Note_on_c,9,80,127,
2,2588,Note_on_c,9,81,127,
2,2588,Note_on_c,9,82,127,
2,2589,Note_off_c,9,36,0,
2,2590,Note_on_c,9,36,127,
2,2590,Note_on_c,9,37,127,
2,2590,Note_on_c,9,38,127,
2,2590,Note_on_c,9,39,127,
2,2590,Note_on_c,9,41,127,
2,2590,Note_on_c,9,42,127,
2,2590,Note_on_c,9,43,127,
2,2590,Note_on_c,9,45,127,
2,2590,Note_on_c,9,48,127,
2,2590,Note_on_c,9,51,127,
2,2590,Note_on_c,9,53,127,
2,2590,Note_on_c,9,80,127,
2,2590,Note_on_c,9,81,127,
2,2590,Note_on_c,9,82,127,
2,2591,Note_off_c,9,36,0,
2,2592,Note_on_c,9,36,127,
2,2592,Note_on_c,9,37,127,
2,2592,Note_on_c,9,38,127,
2,2592,Note_on_c,9,39,127,
2,2592,Note_on_c,9,41,127,
2,2592,Note_on_c,9,42,127,
2,2592,Note_on_c,9,43,127,
2,2592,Note_on_c,9,45,127,
2,2592,Note_on_c,9,48,127,
2,2592,Note_on_c,9,51,127,
2,2592,Note_on_c,9,53,127,
2,2592,Note_on_c,9,80,127,
2,2592,Note_on_c,9,81,127,
2,2592,Note_on_c,9,82,127,
2,2593,Note_off_c,9,36,0,
2,2594,Note_on_c,9,36,127,
2,2594,Note_on_c,9,37,127,
2,2594,Note_on_c,9,38,127,
2,2594,Note_on_c,9,39,127,
2,2594,Note_on_c,9,41,127,
2,2594,Note_on_c,9,42,127,
2,2594,Note_on_c,9,43,127,
2,2594,Note_on_c,9,45,127,
2,2594,Note_on_c,9,48,127,
2,2594,Note_on_c,9,51,127,
2,2594,Note_on_c,9,53,127,
2,2594,Note_on_c,9,80,127,
2,2594,Note_on_c,9,81,127,
2,2594,Note_on_c,9,82,127,
2,2595,Note_off_c,9,36,0,
2,2596,Note_on_c,9,36,127,
2,2596,Note_on_c,9,37,127,
2,2596,Note_on_c,9,38,127,
2,2596,Note_on_c,9,39,127,
2,2596,Note_on_c,9,41,127,
2,2596,Note_on_c,9,42,127,
2,2596,Note_on_c,9,43,127,
2,2596,Note_on_c,9,45,127,
2,2596,Note_on_c,9,48,127,
2,2596,Note_on_c,9,51,127,
2,2596,Note_on_c,9,53,127,
2,2596,Note_on_c,9,80,127,
2,2596,Note_on_c,9,81,127,
2,2596,Note_on_c,9,82,127,
2,2597,Note_off_c,9,36,0,
2,2598,Note_on_c,9,36,127,
2,2598,Note_on_c,9,37,127,
2,2598,Note_on_c,9,38,127,
2,2598,Note_on_c,9,39,127,
2,2598,Note_on_c,9,41,127,
2,2598,Note_on_c,9,42,127,
2,2598,Note_on_c,9,43,127,
2,2598,Note_on_c,9,45,127,
2,2598,Note_on_c,9,48,127,
2,2598,Note_on_c,9,51,127,
2,2598,Note_on_c,9,53,127,
2,2598,Note_on_c,9,80,127,
2,2598,Note_on_c,9,81,127,
2,2598,Note_on_c,9,82,127,
2,2599,Note_off_c,9,36,0,
2,2600,Note_on_c,9,36,127,
2,2600,Note_on_c,9,37,127,
2,2600,Note_on_c,9,38,127,
2,2600,Note_on_c,9,39,127,
2,2600,Note_on_c,9,41,127,
2,2600,Note_on_c,9,42,127,
2,2600,Note_on_c,9,43,127,
2,2600,Note_on_c,9,45,127,
2,2600,Note_on_c,9,48,127,
2,2600,Note_on_c,9,51,127,
2,2600,Note_on_c,9,53,127,
2,2600,Note_on_c,9,80,127,
2,2600,Note_on_c,9,81,127,
2,2600,Note_on_c,9,82,127,
2,2601,Note_off_c,9,36,0,
2,2602,Note_on_c,9,36,127,
2,2602,Note_on_c,9,37,127,
2,2602,Note_on_c,9,38,127,
2,2602,Note_on_c,9,39,127,
2,2602,Note_on_c,9,41,127,
2,2602,Note_on_c,9,42,127,
2,2602,Note_on_c,9,43,127,
2,2602,Note_on_c,9,45,127,
2,2602,Note_on_c,9,48,127,
2,2602,Note_on_c,9,51,127,
2,2602,Note_on_c,9,53,127,
2,2602,Note_on_c,9,80,127,
2,2602,Note_on_c,9,81,127,
2,2602,Note_on_c,9,82,127,
2,2603,Note_off_c,9,36,0,
2,2604,Note_on_c,9,36,127,
2,2604,Note_on_c,9,37,127,
2,2604,Note_on_c,9,38,127,
2,2604,Note_on_c,9,39,127,
2,2604,Note_on_c,9,41,127,
2,2604,Note_on_c,9,42,127,
2,2604,Note_on_c,9,43,127,
2,2604,Note_on_c,9,45,127,
2,2604,Note_on_c,9,48,127,
2,2604,Note_on_c,9,51,127,
2,2604,Note_on_c,9,53,127,
2,2604,Note_on_c,9,80,127,
2,2604,Note_on_c,9,81,127,
2,2604,Note_on_c,9,82,127,
2,2605,Note_off_c,9,36,0,
2,2606,Note_on_c,9,36,127,
2,2606,Note_on_c,9,37,127,
2,2606,Note_on_c,9,38,127,
2,2606,Note_on_c,9,39,127,
2,2606,Note_on_c,9,41,127,
2,2606,Note_on_c,9,42,127,
2,2606,Note_on_c,9,43,127,
2,2606,Note_on_c,9,45,127,
2,2606,Note_on_c,9,48,127,
2,2606,Note_on_c,9,51,127,
2,2606,Note_on_c,9,53,127,
2,2606,Note_on_c,9,80,127,
2,2606,Note_on_c,9,81,127,
2,2606,Note_on_c,9,82,127,
2,2607,Note_off_c,9,36,0,
2,2608,Note_on_c,9,36,127,
2,2608,Note_on_c,9,37,127,
2,2608,Note_on_c,9,38,127,
2,2608,Note_on_c,9,39,127,
2,2608,Note_on_c,9,41,127,
2,2608,Note_on_c,9,42,127,
2,2608,Note_on_c,9,43,127,
2,2608,Note_on_c,9,45,127,
2,2608,Note_on_c,9,48,127,
2,2608,Note_on_c,9,51,127,
2,2608,Note_on_c,9,53,127,
2,2608,Note_on_c,9,80,127,
2,2608,Note_on_c,9,81,127,
2,2608,Note_on_c,9,82,127,
2,2609,Note_off_c,9,36,0,
2,2610,Note_on_c,9,36,127,
2,2610,Note_on_c,9,37,127,
2,2610,Note_on_c,9,38,127,
2,2610,Note_on_c,9,39,127,
2,2610,Note_on_c,9,41,127,
2,2610,Note_on_c,9,42,127,
2,2610,Note_on_c,9,43,127,
2,2610,Note_on_c,9,45,127,
2,2610,Note_on_c,9,48,127,
2,2610,Note_on_c,9,51,127,
2,2610,Note_on_c,9,53,127,
2,2610,Note_on_c,9,80,127,
2,2610,Note_on_c,9,81,127,
2,2610,Note_on_c,9,82,127,
2,2611,Note_off_c,9,36,0,
2,2612,Note_on_c,9,36,127,
2,2612,Note_on_c,9,37,127,
2,2612,Note_on_c,9,38,127,
2,2612,Note_on_c,9,39,127,
2,2612,Note_on_c,9,41,127,
2,2612,Note_on_c,9,42,127,
2,2612,Note_on_c,9,43,127,
2,2612,Note_on_c,9,45,127,
2,2612,Note_on_c,9,48,127,
2,2612,Note_on_c,9,51,127,
2,2612,Note_on_c,9,53,127,
2,2612,Note_on_c,9,80,127,
2,2612,Note_on_c,9,81,127,
2,2612,Note_on_c,9,82,127,
2,2613,Note_off_c,9,36,0,
2,2614,Note_on_c,9,36,127,
2,2614,Note_on_c,9,37,127,
2,2614,Note_on_c,9,38,127,
2,2614,Note_on_c,9,39,127,
2,2614,Note_on_c,9,41,127,
2,2614,Note_on_c,9,42,127,
2,2614,Note_on_c,9,43,127,
2,2614,Note_on_c,9,45,127,
2,2614,Note_on_c,9,48,127,
2,2614,Note_on_c,9,51,127,
2,2614,Note_on_c,9,53,127,
2,2614,Note_on_c,9,80,127,
2,2614,Note_on_c,9,81,127,
2,2614,Note_on_c,9,82,127,
2,2615,Note_off_c,9,36,0,
2,2616,Note_on_c,9,36,127,
2,2616,Note_on_c,9,37,127,
2,2616,Note_on_c,9,38,127,
2,2616,Note_on_c,9,39,127,
2,2616,Note_on_c,9,41,127,
2,2616,Note_on_c,9,42,127,
2,2616,Note_on_c,9,43,127,
2,2616,Note_on_c,9,45,127,
2,2616,Note_on_c,9,48,127,
2,2616,Note_on_c,9,51,127,
2,2616,Note_on_c,9,53,127,
2,2616,Note_on_c,9,80,127,
2,2616,Note_on_c,9,81,127,
2,2616,Note_on_c,9,82,127,
2,2617,Note_off_c,9,36,0,
2,2618,Note_on_c,9,36,127,
2,2618,Note_on_c,9,37,127,
2,2618,Note_on_c,9,38,127,
2,2618,Note_on_c,9,39,127,
2,2618,Note_on_c,9,41,127,
2,2618,Note_on_c,9,42,127,
2,2618,Note_on_c,9,43,127,
2,2618,Note_on_c,9,45,127,
2,2618,Note_on_c,9,48,127,
2,2618,Note_on_c,9,51,127,
2,2618,Note_on_c,9,53,127,
2,2618,Note_on_c,9,80,127,
2,2618,Note_on_c,9,81,127,
2,2618,Note_on_c,9,82,127,
2,2619,Note_off_c,9,36,0,
2,2620,Note_on_c,9,36,127,
2,2620,Note_on_c,9,37,127,
2,2620,Note_on_c,9,38,127,
2,2620,Note_on_c,9,39,127,
2,2620,Note_on_c,9,41,127,
2,2620,Note_on_c,9,42,127,
2,2620,Note_on_c,9,43,127,
2,2620,Note_on_c,9,45,127,
2,2620,Note_on_c,9,48,127,
2,2620,Note_on_c,9,51,127,
2,2620,Note_on_c,9,53,127,
2,2620,Note_on_c,9,80,127,
2,2620,Note_on_c,9,81,127,
2,2620,Note_on_c,9,82,127,
2,2621,Note_off_c,9,36,0,
2,2622,Note_on_c,9,36,127,
2,2622,Note_on_c,9,37,127,
2,2622,Note_on_c,9,38,127,
2,2622,Note_on_c,9,39,127,
2,2622,Note_on_c,9,41,127,
2,2622,Note_on_c,9,42,127,
2,2622,Note_on_c,9,43,127,
2,2622,Note_on_c,9,45,127,
2,2622,Note_on_c,9,48,127,
2,2622,Note_on_c,9,51,127,
2,2622,Note_on_c,9,53,127,
2,2622,Note_on_c,9,80,127,
2,2622,Note_on_c,9,81,127,
2,2622,Note_on_c,9,82,127,
2,2623,Note_off_c,9,36,0,
2,2624,Note_on_c,9,36,127,
2,2624,Note_on_c,9,37,127,
2,2624,Note_on_c,9,38,127,
2,2624,Note_on_c,9,39,127,
2,2624,Note_on_c,9,41,127,
2,2624,Note_on_c,9,42,127,
2,2624,Note_on_c,9,43,127,
2,2624,Note_on_c,9,45,127,
2,2624,Note_on_c,9,48,127,
2,2624,Note_on_c,9,51,127,
2,2624,Note_on_c,9,53,127,
2,2624,Note_on_c,9,80,127,
2,2624,Note_on_c,9,81,127,
2,2624,Note_on_c,9,82,127,
2,2625,Note_off_c,9,36,0,
2,2626,Note_on_c,9,36,127,
2,2626,Note_on_c,9,37,127,
2,2626,Note_on_c,9,38,127,
2,2626,Note_on_c,9,39,127,
2,2626,Note_on_c,9,41,127,
2,2626,Note_on_c,9,42,127,
2,2626,Note_on_c,9,43,127,
2,2626,Note_on_c,9,45,127,
2,2626,Note_on_c,9,48,127,
2,2626,Note_on_c,9,51,127,
2,2626,Note_on_c,9,53,127,
2,2626,Note_on_c,9,80,127,
2,2626,Note_on_c,9,81,127,
2,2626,Note_on_c,9,82,127,
2,2627,Note_off_c,9,36,0,
2,2628,Note_on_c,9,36,127,
2,2628,Note_on_c,9,37,127,
2,2628,Note_on_c,9,38,127,
2,2628,Note_on_c,9,39,127,
2,2628,Note_on_c,9,41,127,
2,2628,Note_on_c,9,42,127,
2,2628,Note_on_c,9,43,127,
2,2628,Note_on_c,9,45,127,
2,2628,Note_on_c,9,48,127,
2,2628,Note_on_c,9,51,127,
2,2628,Note_on_c,9,53,127,
2,2628,Note_on_c,9,80,127,
2,2628,Note_on_c,9,81,127,
2,2628,Note_on_c,9,82,127,
2,2629,Note_off_c,9,36,0,
2,2630,Note_on_c,9,36,127,
2,2630,Note_on_c,9,37,127,
2,2630,Note_on_c,9,38,127,
2,2630,Note_on_c,9,39,127,
2,2630,Note_on_c,9,41,127,
2,2630,Note_on_c,9,42,127,
2,2630,Note_on_c,9,43,127,
2,2630,Note_on_c,9,45,127,
2,2630,Note_on_c,9,48,127,
2,2630,Note_on_c,9,51,127,
2,2630,Note_on_c,9,53,127,
2,2630,Note_on_c,9,80,127,
2,2630,Note_on_c,9,81,127,
2,2630,Note_on_c,9,82,127,
2,2631,Note_off_c,9,36,0,
2,2632,Note_on_c,9,36,127,
2,2632,Note_on_c,9,37,127,
2,2632,Note_on_c,9,38,127,
2,2632,Note_on_c,9,39,127,
2,2632,Note_on_c,9,41,127,
2,2632,Note_on_c,9,42,127,
2,2632,Note_on_c,9,43,127,
2,2632,Note_on_c,9,45,127,
2,2632,Note_on_c,9,48,127,
2,2632,Note_on_c,9,51,127,
2,2632,Note_on_c,9,53,127,
2,2632,Note_on_c,9,80,127,
2,2632,Note_on_c,9,81,127,
2,2632,Note_on_c,9,82,127,
2,2633,Note_off_c,9,36,0,
2,2634,Note_on_c,9,36,127,
2,2634,Note_on_c,9,37,127,
2,2634,Note_on_c,9,38,127,
2,2634,Note_on_c,9,39,127,
2,2634,Note_on_c,9,41,127,
2,2634,Note_on_c,9,42,127,
2,2634,Note_on_c,9,43,127,
2,2634,Note_on_c,9,45,127,
2,2634,Note_on_c,9,48,127,
2,2634,Note_on_c,9,51,127,
2,2634,Note_on_c,9,53,127,
2,2634,Note_on_c,9,80,127,
2,2634,Note_on_c,9,81,127,
2,2634,Note_on_c,9,82,127,
2,2635,Note_off_c,9,36,0,
2,2636,Note_on_c,9,36,127,
2,2636,Note_on_c,9,37,127,
2,2636,Note_on_c,9,38,127,
2,2636,Note_on_c,9,39,127,
2,2636,Note_on_c,9,41,127,
2,2636,Note_on_c,9,42,127,
2,2636,Note_on_c,9,43,127,
2,2636,Note_on_c,9,45,127,
2,2636,Note_on_c,9,48,127,
2,2636,Note_on_c,9,51,127,
2,2636,Note_on_c,9,53,127,
2,2636,Note_on_c,9,80,127,
2,2636,Note_on_c,9,81,127,
2,2636,Note_on_c,9,82,127,
2,2637,Note_off_c,9,36,0,
2,2638,Note_on_c,9,36,127,
2,2638,Note_on_c,9,37,127,
2,2638,Note_on_c,9,38,127,
2,2638,Note_on_c,9,39,127,
2,2638,Note_on_c,9,41,127,
2,2638,Note_on_c,9,42,127,
2,2638,Note_on_c,9,43,127,
2,2638,Note_on_c,9,45,127,
2,2638,Note_on_c,9,48,127,
2,2638,Note_on_c,9,51,127,
2,2638,Note_on_c,9,53,127,
2,2638,Note_on_c,9,80,127,
2,2638,Note_on_c,9,81,127,
2,2638,Note_on_c,9,82,127,
2,2639,Note_off_c,9,36,0,
2,2640,Note_on_c,9,36,127,
2,2640,Note_on_c,9,37,127,
2,2640,Note_on_c,9,38,127,
2,2640,Note_on_c,9,39,127,
2,2640,Note_on_c,9,41,127,
2,2640,Note_on_c,9,42,127,
2,2640,Note_on_c,9,43,127,
2,2640,Note_on_c,9,45,127,
2,2640,Note_on_c,9,48,127,
2,2640,Note_on_c,9,51,127,
2,2640,Note_on_c,9,53,127,
2,2640,Note_on_c,9,80,127,
2,2640,Note_on_c,9,81,127,
2,2640,Note_on_c,9,82,127,
2,2641,Note_off_c,9,36,0,
2,2642,Note_on_c,9,36,127,
2,2642,Note_on_c,9,37,127,
2,2642,Note_on_c,9,38,127,
2,2642,Note_on_c,9,39,127,
2,2642,Note_on_c,9,41,127,
2,2642,Note_on_c,9,42,127,
2,2642,Note_on_c,9,43,127,
2,2642,Note_on_c,9,45,127,
2,2642,Note_on_c,9,48,127,
2,2642,Note_on_c,9,51,127,
2,2642,Note_on_c,9,53,127,
2,2642,Note_on_c,9,80,127,
2,2642,Note_on_c,9,81,127,
2,2642,Note_on_c,9,82,127,
2,2643,Note_off_c,9,36,0,
2,2644,Note_on_c,9,36,127,
2,2644,Note_on_c,9,37,127,
2,2644,Note_on_c,9,38,127,
2,2644,Note_on_c,9,39,127,
2,2644,Note_on_c,9,41,127,
2,2644,Note_on_c,9,42,127,
2,2644,Note_on_c,9,43,127,
2,2644,Note_on_c,9,45,127,
2,2644,Note_on_c,9,48,127,
2,2644,Note_on_c,9,51,127,
2,2644,Note_on_c,9,53,127,
2,2644,Note_on_c,9,80,127,
2,2644,Note_on_c,9,81,127,
2,2644,Note_on_c,9,82,127,
2,2645,Note_off_c,9,36,0,
2,2646,Note_on_c,9,36,127,
2,2646,Note_on_c,9,37,127,
2,2646,Note_on_c,9,38,127,
2,2646,Note_on_c,9,39,127,
2,2646,Note_on_c,9,41,127,
2,2646,Note_on_c,9,42,127,
2,2646,Note_on_c,9,43,127,
2,2646,Note_on_c,9,45,127,
2,2646,Note_on_c,9,48,127,
2,2646,Note_on_c,9,51,127,
2,2646,Note_on_c,9,53,127,
2,2646,Note_on_c,9,80,127,
2,2646,Note_on_c,9,81,127,
2,2646,Note_on_c,9,82,127,
2,2647,Note_off_c,9,36,0,
2,2648,Note_on_c,9,36,127,
2,2648,Note_on_c,9,37,127,
2,2648,Note_on_c,9,38,127,
2,2648,Note_on_c,9,39,127,
2,2648,Note_on_c,9,41,127,
2,2648,Note_on_c,9,42,127,
2,2648,Note_on_c,9,43,127,
2,2648,Note_on_c,9,45,127,
2,2648,Note_on_c,9,48,127,
2,2648,Note_on_c,9,51,127,
2,2648,Note_on_c,9,53,127,
2,2648,Note_on_c,9,80,127,
2,2648,Note_on_c,9,81,127,
2,2648,Note_on_c,9,82,127,
2,2649,Note_off_c,9,36,0,
2,2650,Note_on_c,9,36,127,
2,2650,Note_on_c,9,37,127,
2,2650,Note_on_c,9,38,127,
2,2650,Note_on_c,9,39,127,
2,2650,Note_on_c,9,41,127,
2,2650,Note_on_c,9,42,127,
2,2650,Note_on_c,9,43,127,
2,2650,Note_on_c,9,45,127,
2,2650,Note_on_c,9,48,127,
2,2650,Note_on_c,9,51,127,
2,2650,Note_on_c,9,53,127,
2,2650,Note_on_c,9,80,127,
2,2650,Note_on_c,9,81,127,
2,2650,Note_on_c,9,82,127,
2,2651,Note_off_c,9,36,0,
2,2652,Note_on_c,9,36,127,
2,2652,Note_on_c,9,37,127,
2,2652,Note_on_c,9,38,127,
2,2652,Note_on_c,9,39,127,
2,2652,Note_on_c,9,41,127,
2,2652,Note_on_c,9,42,127,
2,2652,Note_on_c,9,43,127,
2,2652,Note_on_c,9,45,127,
2,2652,Note_on_c,9,48,127,
2,2652,Note_on_c,9,51,127,
2,2652,Note_on_c,9,53,127,
2,2652,Note_on_c,9,80,127,
2,2652,Note_on_c,9,81,127,
2,2652,Note_on_c,9,82,127,
2,2653,Note_off_c,9,36,0,
2,2654,Note_on_c,9,36,127,
2,2654,Note_on_c,9,37,127,
2,2654,Note_on_c,9,38,127,
2,2654,Note_on_c,9,39,127,
2,2654,Note_on_c,9,41,127,
2,2654,Note_on_c,9,42,127,
2,2654,Note_on_c,9,43,127,
2,2654,Note_on_c,9,45,127,
2,2654,Note_on_c,9,48,127,
2,2654,Note_on_c,9,51,127,
2,2654,Note_on_c,9,53,127,
2,2654,Note_on_c,9,80,127,
2,2654,Note_on_c,9,81,127,
2,2654,Note_on_c,9,82,127,
2,2655,Note_off_c,9,36,0,
2,2656,Note_on_c,9,36,127,
2,2656,Note_on_c,9,37,127,
2,2656,Note_on_c,9,38,127,
2,2656,Note_on_c,9,39,127,
2,2656,Note_on_c,9,41,127,
2,2656,Note_on_c,9,42,127,
2,2656,Note_on_c,9,43,127,
2,2656,Note_on_c,9,45,127,
2,2656,Note_on_c,9,48,127,
2,2656,Note_on_c,9,51,127,
2,2656,Note_on_c,9,53,127,
2,2656,Note_on_c,9,80,127,
2,2656,Note_on_c,9,81,127,
2,2656,Note_on_c,9,82,127,
2,2657,Note_off_c,9,36,0,
2,2658,Note_on_c,9,36,127,
2,2658,Note_on_c,9,37,127,
2,2658,Note_on_c,9,38,127,
2,2658,Note_on_c,9,39,127,
2,2658,Note_on_c,9,41,127,
2,2658,Note_on_c,9,42,127,
2,2658,Note_on_c,9,43,127,
2,2658,Note_on_c,9,45,127,
2,2658,Note_on_c,9,48,127,
2,2658,Note_on_c,9,51,127,
2,2658,Note_on_c,9,53,127,
2,2658,Note_on_c,9,80,127,
2,2658,Note_on_c,9,81,127,
2,2658,Note_on_c,9,82,127,
2,2659,Note_off_c,9,36,0,
2,2660,Note_on_c,9,36,127,
2,2660,Note_on_c,9,37,127,
2,2660,Note_on_c,9,38,127,
2,2660,Note_on_c,9,39,127,
2,2660,Note_on_c,9,41,127,
2,2660,Note_on_c,9,42,127,
2,2660,Note_on_c,9,43,127,
2,2660,Note_on_c,9,45,127,
2,2660,Note_on_c,9,48,127,
2,2660,Note_on_c,9,51,127,
2,2660,Note_on_c,9,53,127,
2,2660,Note_on_c,9,80,127,
2,2660,Note_on_c,9,81,127,
2,2660,Note_on_c,9,82,127,
2,2661,Note_off_c,9,36,0,
2,2662,Note_on_c,9,36,127,
2,2662,Note_on_c,9,37,127,
2,2662,Note_on_c,9,38,127,
2,2662,Note_on_c,9,39,127,
2,2662,Note_on_c,9,41,127,
2,2662,Note_on_c,9,42,127,
2,2662,Note_on_c,9,43,127,
2,2662,Note_on_c,9,45,127,
2,2662,Note_on_c,9,48,127,
2,2662,Note_on_c,9,51,127,
2,2662,Note_on_c,9,53,127,
2,2662,Note_on_c,9,80,127,
2,2662,Note_on_c,9,81,127,
2,2662,Note_on_c,9,82,127,
2,2663,Note_off_c,9,36,0,
2,2664,Note_on_c,9,36,127,
2,2664,Note_on_c,9,37,127,
2,2664,Note_on_c,9,38,127,
2,2664,Note_on_c,9,39,127,
2,2664,Note_on_c,9,41,127,
2,2664,Note_on_c,9,42,127,
2,2664,Note_on_c,9,43,127,
2,2664,Note_on_c,9,45,127,
2,2664,Note_on_c,9,48,127,
2,2664,Note_on_c,9,51,127,
2,2664,Note_on_c,9,53,127,
2,2664,Note_on_c,9,80,127,
2,2664,Note_on_c,9,81,127,
2,2664,Note_on_c,9,82,127,
2,2665,Note_off_c,9,36,0,
2,2666,Note_on_c,9,36,127,
2,2666,Note_on_c,9,37,127,
2,2666,Note_on_c,9,38,127,
2,2666,Note_on_c,9,39,127,
2,2666,Note_on_c,9,41,127,
2,2666,Note_on_c,9,42,127,
2,2666,Note_on_c,9,43,127,
2,2666,Note_on_c,9,45,127,
2,2666,Note_on_c,9,48,127,
2,2666,Note_on_c,9,51,127,
2,2666,Note_on_c,9,53,127,
2,2666,Note_on_c,9,80,127,
2,2666,Note_on_c,9,81,127,
2,2666,Note_on_c,9,82,127,
2,2667,Note_off_c,9,36,0,
2,2668,Note_on_c,9,36,127,
2,2668,Note_on_c,9,37,127,
2,2668,Note_on_c,9,38,127,
2,2668,Note_on_c,9,39,127,
2,2668,Note_on_c,9,41,127,
2,2668,Note_on_c,9,42,127,
2,2668,Note_on_c,9,43,127,
2,2668,Note_on_c,9,45,127,
2,2668,Note_on_c,9,48,127,
2,2668,Note_on_c,9,51,127,
2,2668,Note_on_c,9,53,127,
2,2668,Note_on_c,9,80,127,
2,2668,Note_on_c,9,81,127,
2,2668,Note_on_c,9,82,127,
2,2669,Note_off_c,9,36,0,
2,2670,Note_on_c,9,36,127,
2,2670,Note_on_c,9,37,127,
2,2670,Note_on_c,9,38,127,
2,2670,Note_on_c,9,39,127,
2,2670,Note_on_c,9,41,127,
2,2670,Note_on_c,9,42,127,
2,2670,Note_on_c,9,43,127,
2,2670,Note_on_c,9,45,127,
2,2670,Note_on_c,9,48,127,
2,2670,Note_on_c,9,51,127,
2,2670,Note_on_c,9,53,127,
2,2670,Note_on_c,9,80,127,
2,2670,Note_on_c,9,81,127,
2,2670,Note_on_c,9,82,127,
2,2671,Note_off_c,9,36,0,
2,2672,Note_on_c,9,36,127,
2,2672,Note_on_c,9,37,127,
2,2672,Note_on_c,9,38,127,
2,2672,Note_on_c,9,39,127,
2,2672,Note_on_c,9,41,127,
2,2672,Note_on_c,9,42,127,
2,2672,Note_on_c,9,43,127,
2,2672,Note_on_c,9,45,127,
2,2672,Note_on_c,9,48,127,
2,2672,Note_on_c,9,51,127,
2,2672,Note_on_c,9,53,127,
2,2672,Note_on_c,9,80,127,
2,2672,Note_on_c,9,81,127,
2,2672,Note_on_c,9,82,127,
2,2673,Note_off_c,9,36,0,
2,2674,Note_on_c,9,36,127,
2,2674,Note_on_c,9,37,127,
2,2674,Note_on_c,9,38,127,
2,2674,Note_on_c,9,39,127,
2,2674,Note_on_c,9,41,127,
2,2674,Note_on_c,9,42,127,
2,2674,Note_on_c,9,43,127,
2,2674,Note_on_c,9,45,127,
2,2674,Note_on_c,9,48,127,
2,2674,Note_on_c,9,51,127,
2,2674,Note_on_c,9,53,127,
2,2674,Note_on_c,9,80,127,
2,2674,Note_on_c,9,81,127,
2,2674,Note_on_c,9,82,127,
2,2675,Note_off_c,9,36,0,
2,2676,Note_on_c,9,36,127,
2,2676,Note_on_c,9,37,127,
2,2676,Note_on_c,9,38,127,
2,2676,Note_on_c,9,39,127,
2,2676,Note_on_c,9,41,127,
2,2676,Note_on_c,9,42,127,
2,2676,Note_on_c,9,43,127,
2,2676,Note_on_c,9,45,127,
2,2676,Note_on_c,9,48,127,
2,2676,Note_on_c,9,51,127,
2,2676,Note_on_c,9,53,127,
2,2676,Note_on_c,9,80,127,
2,2676,Note_on_c,9,81,127,
2,2676,Note_on_c,9,82,127,
2,2677,Note_off_c,9,36,0,
2,2678,Note_on_c,9,36,127,
2,2678,Note_on_c,9,37,127,
2,2678,Note_on_c,9,38,127,
2,2678,Note_on_c,9,39,127,
2,2678,Note_on_c,9,41,127,
2,2678,Note_on_c,9,42,127,
2,2678,Note_on_c,9,43,127,
2,2678,Note_on_c,9,45,127,
2,2678,Note_on_c,9,48,127,
2,2678,Note_on_c,9,51,127,
2,2678,Note_on_c,9,53,127,
2,2678,Note_on_c,9,80,127,
2,2678,Note_on_c,9,81,127,
2,2678,Note_on_c,9,82,127,
2,2679,Note_off_c,9,36,0,
2,2680,Note_on_c,9,36,127,
2,2680,Note_on_c,9,37,127,
2,2680,Note_on_c,9,38,127,
2,2680,Note_on_c,9,39,127,
2,2680,Note_on_c,9,41,127,
2,2680,Note_on_c,9,42,127,
2,2680,Note_on_c,9,43,127,
2,2680,Note_on_c,9,45,127,
2,2680,Note_on_c,9,48,127,
2,2680,Note_on_c,9,51,127,
2,2680,Note_on_c,9,53,127,
2,2680,Note_on_c,9,80,127,
2,2680,Note_on_c,9,81,127,
2,2680,Note_on_c,9,82,127,
2,2681,Note_off_c,9,36,0,
2,2682,Note_on_c,9,36,127,
2,2682,Note_on_c,9,37,127,
2,2682,Note_on_c,9,38,127,
2,2682,Note_on_c,9,39,127,
2,2682,Note_on_c,9,41,127,
2,2682,Note_on_c,9,42,127,
2,2682,Note_on_c,9,43,127,
2,2682,Note_on_c,9,45,127,
2,2682,Note_on_c,9,48,127,
2,2682,Note_on_c,9,51,127,
2,2682,Note_on_c,9,53,127,
2,2682,Note_on_c,9,80,127,
2,2682,Note_on_c,9,81,127,
2,2682,Note_on_c,9,82,127,
2,2683,Note_off_c,9,36,0,
2,2684,Note_on_c,9,36,127,
2,2684,Note_on_c,9,37,127,
2,2684,Note_on_c,9,38,127,
2,2684,Note_on_c,9,39,127,
2,2684,Note_on_c,9,41,127,
2,2684,Note_on_c,9,42,127,
2,2684,Note_on_c,9,43,127,
2,2684,Note_on_c,9,45,127,
2,2684,Note_on_c,9,48,127,
2,2684,Note_on_c,9,51,127,
2,2684,Note_on_c,9,53,127,
2,2684,Note_on_c,9,80,127,
2,2684,Note_on_c,9,81,127,
2,2684,Note_on_c,9,82,127,
2,2685,Note_off_c,9,36,0,
2,2686,Note_on_c,9,36,127,
2,2686,Note_on_c,9,37,127,
2,2686,Note_on_c,9,38,127,
2,2686,Note_on_c,9,39,127,
2,2686,Note_on_c,9,41,127,
2,2686,Note_on_c,9,42,127,
2,2686,Note_on_c,9,43,127,
2,2686,Note_on_c,9,45,127,
2,2686,Note_on_c,9,48,127,
2,2686,Note_on_c,9,51,127,
2,2686,Note_on_c,9,53,127,
2,2686,Note_on_c,9,80,127,
2,2686,Note_on_c,9,81,127,
2,2686,Note_on_c,9,82,127,
2,2687,Note_off_c,9,36,0,
2,2688,Note_on_c,9,36,127,
2,2688,Note_on_c,9,37,127,
2,2688,Note_on_c,9,38,127,
2,2688,Note_on_c,9,39,127,
2,2688,Note_on_c,9,41,127,
2,2688,Note_on_c,9,42,127,
2,2688,Note_on_c,9,43,127,
2,2688,Note_on_c,9,45,127,
2,2688,Note_on_c,9,48,127,
2,2688,Note_on_c,9,51,127,
2,2688,Note_on_c,9,53,127,
2,2688,Note_on_c,9,80,127,
2,2688,Note_on_c,9,81,127,
2,2688,Note_on_c,9,82,127,
2,2689,Note_off_c,9,36,0,
2,2690,Note_on_c,9,36,127,
2,2690,Note_on_c,9,37,127,
2,2690,Note_on_c,9,38,127,
2,2690,Note_on_c,9,39,127,
2,2690,Note_on_c,9,41,127,
2,2690,Note_on_c,9,42,127,
2,2690,Note_on_c,9,43,127,
2,2690,Note_on_c,9,45,127,
2,2690,Note_on_c,9,48,127,
2,2690,Note_on_c,9,51,127,
2,2690,Note_on_c,9,53,127,
2,2690,Note_on_c,9,80,127,
2,2690,Note_on_c,9,81,127,
2,2690,Note_on_c,9,82,127,
2,2691,Note_off_c,9,36,0,
2,2692,Note_on_c,9,36,127,
2,2692,Note_on_c,9,37,127,
2,2692,Note_on_c,9,38,127,
2,2692,Note_on_c,9,39,127,
2,2692,Note_on_c,9,41,127,
2,2692,Note_on_c,9,42,127,
2,2692,Note_on_c,9,43,127,
2,2692,Note_on_c,9,45,127,
2,2692,Note_on_c,9,48,127,
2,2692,Note_on_c,9,51,127,
2,2692,Note_on_c,9,53,127,
2,2692,Note_on_c,9,80,127,
2,2692,Note_on_c,9,81,127,
2,2692,Note_on_c,9,82,127,
2,2693,Note_off_c,9,36,0,
2,2694,Note_on_c,9,36,127,
2,2694,Note_on_c,9,37,127,
2,2694,Note_on_c,9,38,127,
2,2694,Note_on_c,9,39,127,
2,2694,Note_on_c,9,41,127,
2,2694,Note_on_c,9,42,127,
2,2694,Note_on_c,9,43,127,
2,2694,Note_on_c,9,45,127,
2,2694,Note_on_c,9,48,127,
2,2694,Note_on_c,9,51,127,
2,2694,Note_on_c,9,53,127,
2,2694,Note_on_c,9,80,127,
2,2694,Note_on_c,9,81,127,
2,2694,Note_on_c,9,82,127,
2,2695,Note_off_c,9,36,0,
2,2696,Note_on_c,9,36,127,
2,2696,Note_on_c,9,37,127,
2,2696,Note_on_c,9,38,127,
2,2696,Note_on_c,9,39,127,
2,2696,Note_on_c,9,41,127,
2,2696,Note_on_c,9,42,127,
2,2696,Note_on_c,9,43,127,
2,2696,Note_on_c,9,45,127,
2,2696,Note_on_c,9,48,127,
2,2696,Note_on_c,9,51,127,
2,2696,Note_on_c,9,53,127,
2,2696,Note_on_c,9,80,127,
2,2696,Note_on_c,9,81,127,
2,2696,Note_on_c,9,82,127,
2,2697,Note_off_c,9,36,0,
2,2698,Note_on_c,9,36,127,
2,2698,Note_on_c,9,37,127,
2,2698,Note_on_c,9,38,127,
2,2698,Note_on_c,9,39,127,
2,2698,Note_on_c,9,41,127,
2,2698,Note_on_c,9,42,127,
2,2698,Note_on_c,9,43,127,
2,2698,Note_on_c,9,45,127,
2,2698,Note_on_c,9,48,127,
2,2698,Note_on_c,9,51,127,
2,2698,Note_on_c,9,53,127,
2,2698,Note_on_c,9,80,127,
2,2698,Note_on_c,9,81,127,
2,2698,Note_on_c,9,82,127,
2,2699,Note_off_c,9,36,0,
2,2700,Note_on_c,9,36,127,
2,2700,Note_on_c,9,37,127,
2,2700,Note_on_c,9,38,127,
2,2700,Note_on_c,9,39,127,
2,2700,Note_on_c,9,41,127,
2,2700,Note_on_c,9,42,127,
2,2700,Note_on_c,9,43,127,
2,2700,Note_on_c,9,45,127,
2,2700,Note_on_c,9,48,127,
2,2700,Note_on_c,9,51,127,
2,2700,Note_on_c,9,53,127,
2,2700,Note_on_c,9,80,127,
2,2700,Note_on_c,9,81,127,
2,2700,Note_on_c,9,82,127,
2,2701,Note_off_c,9,36,0,
2,2702,Note_on_c,9,36,127,
2,2702,Note_on_c,9,37,127,
2,2702,Note_on_c,9,38,127,
2,2702,Note_on_c,9,39,127,
2,2702,Note_on_c,9,41,127,
2,2702,Note_on_c,9,42,127,
2,2702,Note_on_c,9,43,127,
2,2702,Note_on_c,9,45,127,
2,2702,Note_on_c,9,48,127,
2,2702,Note_on_c,9,51,127,
2,2702,Note_on_c,9,53,127,
2,2702,Note_on_c,9,80,127,
2,2702,Note_on_c,9,81,127,
2,2702,Note_on_c,9,82,127,
2,2703,Note_off_c,9,36,0,
2,2704,Note_on_c,9,36,127,
2,2704,Note_on_c,9,37,127,
2,2704,Note_on_c,9,38,127,
2,2704,Note_on_c,9,39,127,
2,2704,Note_on_c,9,41,127,
2,2704,Note_on_c,9,42,127,
2,2704,Note_on_c,9,43,127,
2,2704,Note_on_c,9,45,127,
2,2704,Note_on_c,9,48,127,
2,2704,Note_on_c,9,51,127,
2,2704,Note_on_c,9,53,127,
2,2704,Note_on_c,9,80,127,
2,2704,Note_on_c,9,81,127,
2,2704,Note_on_c,9,82,127,
2,2705,Note_off_c,9,36,0,
2,2706,Note_on_c,9,36,127,
2,2706,Note_on_c,9,37,127,
2,2706,Note_on_c,9,38,127,
2,2706,Note_on_c,9,39,127,
2,2706,Note_on_c,9,41,127,
2,2706,Note_on_c,9,42,127,
2,2706,Note_on_c,9,43,127,
2,2706,Note_on_c,9,45,127,
2,2706,Note_on_c,9,48,127,
2,2706,Note_on_c,9,51,127,
2,2706,Note_on_c,9,53,127,
2,2706,Note_on_c,9,80,127,
2,2706,Note_on_c,9,81,127,
2,2706,Note_on_c,9,82,127,
2,2707,Note_off_c,9,36,0,
2,2708,Note_on_c,9,36,127,
2,2708,Note_on_c,9,37,127,
2,2708,Note_on_c,9,38,127,
2,2708,Note_on_c,9,39,127,
2,2708,Note_on_c,9,41,127,
2,2708,Note_on_c,9,42,127,
2,2708,Note_on_c,9,43,127,
2,2708,Note_on_c,9,45,127,
2,2708,Note_on_c,9,48,127,
2,2708,Note_on_c,9,51,127,
2,2708,Note_on_c,9,53,127,
2,2708,Note_on_c,9,80,127,
2,2708,Note_on_c,9,81,127,
2,2708,Note_on_c,9,82,127,
2,2709,Note_off_c,9,36,0,
2,2710,Note_on_c,9,36,127,
2,2710,Note_on_c,9,37,127,
2,2710,Note_on_c,9,38,127,
2,2710,Note_on_c,9,39,127,
2,2710,Note_on_c,9,41,127,
2,2710,Note_on_c,9,42,127,
2,2710,Note_on_c,9,43,127,
2,2710,Note_on_c,9,45,127,
2,2710,Note_on_c,9,48,127,
2,2710,Note_on_c,9,51,127,
2,2710,Note_on_c,9,53,127,
2,2710,Note_on_c,9,80,127,
2,2710,Note_on_c,9,81,127,
2,2710,Note_on_c,9,82,127,
2,2711,Note_off_c,9,36,0,
2,2712,Note_on_c,9,36,127,
2,2712,Note_on_c,9,37,127,
2,2712,Note_on_c,9,38,127,
2,2712,Note_on_c,9,39,127,
2,2712,Note_on_c,9,41,127,
2,2712,Note_on_c,9,42,127,
2,2712,Note_on_c,9,43,127,
2,2712,Note_on_c,9,45,127,
2,2712,Note_on_c,9,48,127,
2,2712,Note_on_c,9,51,127,
2,2712,Note_on_c,9,53,127,
2,2712,Note_on_c,9,80,127,
2,2712,Note_on_c,9,81,127,
2,2712,Note_on_c,9,82,127,
2,2713,Note_off_c,9,36,0,
2,2714,Note_on_c,9,36,127,
2,2714,Note_on_c,9,37,127,
2,2714,Note_on_c,9,38,127,
2,2714,Note_on_c,9,39,127,
2,2714,Note_on_c,9,41,127,
2,2714,Note_on_c,9,42,127,
2,2714,Note_on_c,9,43,127,
2,2714,Note_on_c,9,45,127,
2,2714,Note_on_c,9,48,127,
2,2714,Note_on_c,9,51,127,
2,2714,Note_on_c,9,53,127,
2,2714,Note_on_c,9,80,127,
2,2714,Note_on_c,9,81,127,
2,2714,Note_on_c,9,82,127,
2,2715,Note_off_c,9,36,0,
2,2716,Note_on_c,9,36,127,
2,2716,Note_on_c,9,37,127,
2,2716,Note_on_c,9,38,127,
2,2716,Note_on_c,9,39,127,
2,2716,Note_on_c,9,41,127,
2,2716,Note_on_c,9,42,127,
2,2716,Note_on_c,9,43,127,
2,2716,Note_on_c,9,45,127,
2,2716,Note_on_c,9,48,127,
2,2716,Note_on_c,9,51,127,
2,2716,Note_on_c,9,53,127,
2,2716,Note_on_c,9,80,127,
2,2716,Note_on_c,9,81,127,
2,2716,Note_on_c,9,82,127,
2,2717,Note_off_c,9,36,0,
2,2718,Note_on_c,9,36,127,
2,2718,Note_on_c,9,37,127,
2,2718,Note_on_c,9,38,127,
2,2718,Note_on_c,9,39,127,
2,2718,Note_on_c,9,41,127,
2,2718,Note_on_c,9,42,127,
2,2718,Note_on_c,9,43,127,
2,2718,Note_on_c,9,45,127,
2,2718,Note_on_c,9,48,127,
2,2718,Note_on_c,9,51,127,
2,2718,Note_on_c,9,53,127,
2,2718,Note_on_c,9,80,127,
2,2718,Note_on_c,9,81,127,
2,2718,Note_on_c,9,82,127,
2,2719,Note_off_c,9,36,0,
2,2720,Note_on_c,9,36,127,
2,2720,Note_on_c,9,37,127,
2,2720,Note_on_c,9,38,127,
2,2720,Note_on_c,9,39,127,
2,2720,Note_on_c,9,41,127,
2,2720,Note_on_c,9,42,127,
2,2720,Note_on_c,9,43,127,
2,2720,Note_on_c,9,45,127,
2,2720,Note_on_c,9,48,127,
2,2720,Note_on_c,9,51,127,
2,2720,Note_on_c,9,53,127,
2,2720,Note_on_c,9,80,127,
2,2720,Note_on_c,9,81,127,
2,2720,Note_on_c,9,82,127,
2,2721,Note_off_c,9,36,0,
2,2722,Note_on_c,9,36,127,
2,2722,Note_on_c,9,37,127,
2,2722,Note_on_c,9,38,127,
2,2722,Note_on_c,9,39,127,
2,2722,Note_on_c,9,41,127,
2,2722,Note_on_c,9,42,127,
2,2722,Note_on_c,9,43,127,
2,2722,Note_on_c,9,45,127,
2,2722,Note_on_c,9,48,127,
2,2722,Note_on_c,9,51,127,
2,2722,Note_on_c,9,53,127,
2,2722,Note_on_c,9,80,127,
2,2722,Note_on_c,9,81,127,
2,2722,Note_on_c,9,82,127,
2,2723,Note_off_c,9,36,0,
2,2724,Note_on_c,9,36,127,
2,2724,Note_on_c,9,37,127,
2,2724,Note_on_c,9,38,127,
2,2724,Note_on_c,9,39,127,
2,2724,Note_on_c,9,41,127,
2,2724,Note_on_c,9,42,127,
2,2724,Note_on_c,9,43,127,
2,2724,Note_on_c,9,45,127,
2,2724,Note_on_c,9,48,127,
2,2724,Note_on_c,9,51,127,
2,2724,Note_on_c,9,53,127,
2,2724,Note_on_c,9,80,127,
2,2724,Note_on_c,9,81,127,
2,2724,Note_on_c,9,82,127,
2,2725,Note_off_c,9,36,0,
2,2726,Note_on_c,9,36,127,
2,2726,Note_on_c,9,37,127,
2,2726,Note_on_c,9,38,127,
2,2726,Note_on_c,9,39,127,
2,2726,Note_on_c,9,41,127,
2,2726,Note_on_c,9,42,127,
2,2726,Note_on_c,9,43,127,
2,2726,Note_on_c,9,45,127,
2,2726,Note_on_c,9,48,127,
2,2726,Note_on_c,9,51,127,
2,2726,Note_on_c,9,53,127,
2,2726,Note_on_c,9,80,127,
2,2726,Note_on_c,9,81,127,
2,2726,Note_on_c,9,82,127,
2,2727,Note_off_c,9,36,0,
2,2728,Note_on_c,9,36,127,
2,2728,Note_on_c,9,37,127,
2,2728,Note_on_c,9,38,127,
2,2728,Note_on_c,9,39,127,
2,2728,Note_on_c,9,41,127,
2,2728,Note_on_c,9,42,127,
2,2728,Note_on_c,9,43,127,
2,2728,Note_on_c,9,45,127,
2,2728,Note_on_c,9,48,127,
2,2728,Note_on_c,9,51,127,
2,2728,Note_on_c,9,53,127,
2,2728,Note_on_c,9,80,127,
2,2728,Note_on_c,9,81,127,
2,2728,Note_on_c,9,82,127,
2,2729,Note_off_c,9,36,0,
2,2730,Note_on_c,9,36,127,
2,2730,Note_on_c,9,37,127,
2,2730,Note_on_c,9,38,127,
2,2730,Note_on_c,9,39,127,
2,2730,Note_on_c,9,41,127,
2,2730,Note_on_c,9,42,127,
2,2730,Note_on_c,9,43,127,
2,2730,Note_on_c,9,45,127,
2,2730,Note_on_c,9,48,127,
2,2730,Note_on_c,9,51,127,
2,2730,Note_on_c,9,53,127,
2,2730,Note_on_c,9,80,127,
2,2730,Note_on_c,9,81,127,
2,2730,Note_on_c,9,82,127,
2,2731,Note_off_c,9,36,0,
2,2732,Note_on_c,9,36,127,
2,2732,Note_on_c,9,37,127,
2,2732,Note_on_c,9,38,127,
2,2732,Note_on_c,9,39,127,
2,2732,Note_on_c,9,41,127,
2,2732,Note_on_c,9,42,127,
2,2732,Note_on_c,9,43,127,
2,2732,Note_on_c,9,45,127,
2,2732,Note_on_c,9,48,127,
2,2732,Note_on_c,9,51,127,
2,2732,Note_on_c,9,53,127,
2,2732,Note_on_c,9,80,127,
2,2732,Note_on_c,9,81,127,
2,2732,Note_on_c,9,82,127,
2,2733,Note_off_c,9,36,0,
2,2734,Note_on_c,9,36,127,
2,2734,Note_on_c,9,37,127,
2,2734,Note_on_c,9,38,127,
2,2734,Note_on_c,9,39,127,
2,2734,Note_on_c,9,41,127,
2,2734,Note_on_c,9,42,127,
2,2734,Note_on_c,9,43,127,
2,2734,Note_on_c,9,45,127,
2,2734,Note_on_c,9,48,127,
2,2734,Note_on_c,9,51,127,
2,2734,Note_on_c,9,53,127,
2,2734,Note_on_c,9,80,127,
2,2734,Note_on_c,9,81,127,
2,2734,Note_on_c,9,82,127,
2,2735,Note_off_c,9,36,0,
2,2736,Note_on_c,9,36,127,
2,2736,Note_on_c,9,37,127,
2,2736,Note_on_c,9,38,127,
2,2736,Note_on_c,9,39,127,
2,2736,Note_on_c,9,41,127,
2,2736,Note_on_c,9,42,127,
2,2736,Note_on_c,9,43,127,
2,2736,Note_on_c,9,45,127,
2,2736,Note_on_c,9,48,127,
2,2736,Note_on_c,9,51,127,
2,2736,Note_on_c,9,53,127,
2,2736,Note_on_c,9,80,127,
2,2736,Note_on_c,9,81,127,
2,2736,Note_on_c,9,82,127,
2,2737,Note_off_c,9,36,0,
2,2738,Note_on_c,9,36,127,
2,2738,Note_on_c,9,37,127,
2,2738,Note_on_c,9,38,127,
2,2738,Note_on_c,9,39,127,
2,2738,Note_on_c,9,41,127,
2,2738,Note_on_c,9,42,127,
2,2738,Note_on_c,9,43,127,
2,2738,Note_on_c,9,45,127,
2,2738,Note_on_c,9,48,127,
2,2738,Note_on_c,9,51,127,
2,2738,Note_on_c,9,53,127,
2,2738,Note_on_c,9,80,127,
2,2738,Note_on_c,9,81,127,
2,2738,Note_on_c,9,82,127,
2,2739,Note_off_c,9,36,0,
2,2740,Note_on_c,9,36,127,
2,2740,Note_on_c,9,37,127,
2,2740,Note_on_c,9,38,127,
2,2740,Note_on_c,9,39,127,
2,2740,Note_on_c,9,41,127,
2,2740,Note_on_c,9,42,127,
2,2740,Note_on_c,9,43,127,
2,2740,Note_on_c,9,45,127,
2,2740,Note_on_c,9,48,127,
2,2740,Note_on_c,9,51,127,
2,2740,Note_on_c,9,53,127,
2,2740,Note_on_c,9,80,127,
2,2740,Note_on_c,9,81,127,
2,2740,Note_on_c,9,82,127,
2,2741,Note_off_c,9,36,0,
2,2742,Note_on_c,9,36,127,
2,2742,Note_on_c,9,37,127,
2,2742,Note_on_c,9,38,127,
2,2742,Note_on_c,9,39,127,
2,2742,Note_on_c,9,41,127,
2,2742,Note_on_c,9,42,127,
2,2742,Note_on_c,9,43,127,
2,2742,Note_on_c,9,45,127,
2,2742,Note_on_c,9,48,127,
2,2742,Note_on_c,9,51,127,
2,2742,Note_on_c,9,53,127,
2,2742,Note_on_c,9,80,127,
2,2742,Note_on_c,9,81,127,
2,2742,Note_on_c,9,82,127,
2,2743,Note_off_c,9,36,0,
2,2744,Note_on_c,9,36,127,
2,2744,Note_on_c,9,37,127,
2,2744,Note_on_c,9,38,127,
2,2744,Note_on_c,9,39,127,
2,2744,Note_on_c,9,41,127,
2,2744,Note_on_c,9,42,127,
2,2744,Note_on_c,9,43,127,
2,2744,Note_on_c,9,45,127,
2,2744,Note_on_c,9,48,127,
2,2744,Note_on_c,9,51,127,
2,2744,Note_on_c,9,53,127,
2,2744,Note_on_c,9,80,127,
2,2744,Note_on_c,9,81,127,
2,2744,Note_on_c,9,82,127,
2,2745,Note_off_c,9,36,0,
2,2746,Note_on_c,9,36,127,
2,2746,Note_on_c,9,37,127,
2,2746,Note_on_c,9,38,127,
2,2746,Note_on_c,9,39,127,
2,2746,Note_on_c,9,41,127,
2,2746,Note_on_c,9,42,127,
2,2746,Note_on_c,9,43,127,
2,2746,Note_on_c,9,45,127,
2,2746,Note_on_c,9,48,127,
2,2746,Note_on_c,9,51,127,
2,2746,Note_on_c,9,53,127,
2,2746,Note_on_c,9,80,127,
2,2746,Note_on_c,9,81,127,
2,2746,Note_on_c,9,82,127,
2,2747,Note_off_c,9,36,0,
2,2748,Note_on_c,9,36,127,
2,2748,Note_on_c,9,37,127,
2,2748,Note_on_c,9,38,127,
2,2748,Note_on_c,9,39,127,
2,2748,Note_on_c,9,41,127,
2,2748,Note_on_c,9,42,127,
2,2748,Note_on_c,9,43,127,
2,2748,Note_on_c,9,45,127,
2,2748,Note_on_c,9,48,127,
2,2748,Note_on_c,9,51,127,
2,2748,Note_on_c,9,53,127,
2,2748,Note_on_c,9,80,127,
2,2748,Note_on_c,9,81,127,
2,2748,Note_on_c,9,82,127,
2,2749,Note_off_c,9,36,0,
2,2750,Note_on_c,9,36,127,
2,2750,Note_on_c,9,37,127,
2,2750,Note_on_c,9,38,127,
2,2750,Note_on_c,9,39,127,
2,2750,Note_on_c,9,41,127,
2,2750,Note_on_c,9,42,127,
2,2750,Note_on_c,9,43,127,
2,2750,Note_on_c,9,45,127,
2,2750,Note_on_c,9,48,127,
2,2750,Note_on_c,9,51,127,
2,2750,Note_on_c,9,53,127,
2,2750,Note_on_c,9,80,127,
2,2750,Note_on_c,9,81,127,
2,2750,Note_on_c,9,82,127,
2,2751,Note_off_c,9,36,0,
2,2752,Note_on_c,9,36,127,
2,2752,Note_on_c,9,37,127,
2,2752,Note_on_c,9,38,127,
2,2752,Note_on_c,9,39,127,
2,2752,Note_on_c,9,41,127,
2,2752,Note_on_c,9,42,127,
2,2752,Note_on_c,9,43,127,
2,2752,Note_on_c,9,45,127,
2,2752,Note_on_c,9,48,127,
2,2752,Note_on_c,9,51,127,
2,2752,Note_on_c,9,53,127,
2,2752,Note_on_c,9,80,127,
2,2752,Note_on_c,9,81,127,
2,2752,Note_on_c,9,82,127,
2,2753,Note_off_c,9,36,0,
2,2754,Note_on_c,9,36,127,
2,2754,Note_on_c,9,37,127,
2,2754,Note_on_c,9,38,127,
2,2754,Note_on_c,9,39,127,
2,2754,Note_on_c,9,41,127,
2,2754,Note_on_c,9,42,127,
2,2754,Note_on_c,9,43,127,
2,2754,Note_on_c,9,45,127,
2,2754,Note_on_c,9,48,127,
2,2754,Note_on_c,9,51,127,
2,2754,Note_on_c,9,53,127,
2,2754,Note_on_c,9,80,127,
2,2754,Note_on_c,9,81,127,
2,2754,Note_on_c,9,82,127,
2,2755,Note_off_c,9,36,0,
2,2756,Note_on_c,9,36,127,
2,2756,Note_on_c,9,37,127,
2,2756,Note_on_c,9,38,127,
2,2756,Note_on_c,9,39,127,
2,2756,Note_on_c,9,41,127,
2,2756,Note_on_c,9,42,127,
2,2756,Note_on_c,9,43,127,
2,2756,Note_on_c,9,45,127,
2,2756,Note_on_c,9,48,127,
2,2756,Note_on_c,9,51,127,
2,2756,Note_on_c,9,53,127,
2,2756,Note_on_c,9,80,127,
2,2756,Note_on_c,9,81,127,
2,2756,Note_on_c,9,82,127,
2,2757,Note_off_c,9,36,0,
2,2758,Note_on_c,9,36,127,
2,2758,Note_on_c,9,37,127,
2,2758,Note_on_c,9,38,127,
2,2758,Note_on_c,9,39,127,
2,2758,Note_on_c,9,41,127,
2,2758,Note_on_c,9,42,127,
2,2758,Note_on_c,9,43,127,
2,2758,Note_on_c,9,45,127,
2,2758,Note_on_c,9,48,127,
2,2758,Note_on_c,9,51,127,
2,2758,Note_on_c,9,53,127,
2,2758,Note_on_c,9,80,127,
2,2758,Note_on_c,9,81,127,
2,2758,Note_on_c,9,82,127,
2,2759,Note_off_c,9,36,0,
2,2760,Note_on_c,9,36,127,
2,2760,Note_on_c,9,37,127,
2,2760,Note_on_c,9,38,127,
2,2760,Note_on_c,9,39,127,
2,2760,Note_on_c,9,41,127,
2,2760,Note_on_c,9,42,127,
2,2760,Note_on_c,9,43,127,
2,2760,Note_on_c,9,45,127,
2,2760,Note_on_c,9,48,127,
2,2760,Note_on_c,9,51,127,
2,2760,Note_on_c,9,53,127,
2,2760,Note_on_c,9,80,127,
2,2760,Note_on_c,9,81,127,
2,2760,Note_on_c,9,82,127,
2,2761,Note_off_c,9,36,0,
2,2762,Note_on_c,9,36,127,
2,2762,Note_on_c,9,37,127,
2,2762,Note_on_c,9,38,127,
2,2762,Note_on_c,9,39,127,
2,2762,Note_on_c,9,41,127,
2,2762,Note_on_c,9,42,127,
2,2762,Note_on_c,9,43,127,
2,2762,Note_on_c,9,45,127,
2,2762,Note_on_c,9,48,127,
2,2762,Note_on_c,9,51,127,
2,2762,Note_on_c,9,53,127,
2,2762,Note_on_c,9,80,127,
2,2762,Note_on_c,9,81,127,
2,2762,Note_on_c,9,82,127,
2,2763,Note_off_c,9,36,0,
2,2764,Note_on_c,9,36,127,
2,2764,Note_on_c,9,37,127,
2,2764,Note_on_c,9,38,127,
2,2764,Note_on_c,9,39,127,
2,2764,Note_on_c,9,41,127,
2,2764,Note_on_c,9,42,127,
2,2764,Note_on_c,9,43,127,
2,2764,Note_on_c,9,45,127,
2,2764,Note_on_c,9,48,127,
2,2764,Note_on_c,9,51,127,
2,2764,Note_on_c,9,53,127,
2,2764,Note_on_c,9,80,127,
2,2764,Note_on_c,9,81,127,
2,2764,Note_on_c,9,82,127,
2,2765,Note_off_c,9,36,0,
2,2766,Note_on_c,9,36,127,
2,2766,Note_on_c,9,37,127,
2,2766,Note_on_c,9,38,127,
2,2766,Note_on_c,9,39,127,
2,2766,Note_on_c,9,41,127,
2,2766,Note_on_c,9,42,127,
2,2766,Note_on_c,9,43,127,
2,2766,Note_on_c,9,45,127,
2,2766,Note_on_c,9,48,127,
2,2766,Note_on_c,9,51,127,
2,2766,Note_on_c,9,53,127,
2,2766,Note_on_c,9,80,127,
2,2766,Note_on_c,9,81,127,
2,2766,Note_on_c,9,82,127,
2,2767,Note_off_c,9,36,0,
2,2768,Note_on_c,9,36,127,
2,2768,Note_on_c,9,37,127,
2,2768,Note_on_c,9,38,127,
2,2768,Note_on_c,9,39,127,
2,2768,Note_on_c,9,41,127,
2,2768,Note_on_c,9,42,127,
2,2768,Note_on_c,9,43,127,
2,2768,Note_on_c,9,45,127,
2,2768,Note_on_c,9,48,127,
2,2768,Note_on_c,9,51,127,
2,2768,Note_on_c,9,53,127,
2,2768,Note_on_c,9,80,127,
2,2768,Note_on_c,9,81,127,
2,2768,Note_on_c,9,82,127,
2,2769,Note_off_c,9,36,0,
2,2770,Note_on_c,9,36,127,
2,2770,Note_on_c,9,37,127,
2,2770,Note_on_c,9,38,127,
2,2770,Note_on_c,9,39,127,
2,2770,Note_on_c,9,41,127,
2,2770,Note_on_c,9,42,127,
2,2770,Note_on_c,9,43,127,
2,2770,Note_on_c,9,45,127,
2,2770,Note_on_c,9,48,127,
2,2770,Note_on_c,9,51,127,
2,2770,Note_on_c,9,53,127,
2,2770,Note_on_c,9,80,127,
2,2770,Note_on_c,9,81,127,
2,2770,Note_on_c,9,82,127,
2,2771,Note_off_c,9,36,0,
2,2772,Note_on_c,9,36,127,
2,2772,Note_on_c,9,37,127,
2,2772,Note_on_c,9,38,127,
2,2772,Note_on_c,9,39,127,
2,2772,Note_on_c,9,41,127,
2,2772,Note_on_c,9,42,127,
2,2772,Note_on_c,9,43,127,
2,2772,Note_on_c,9,45,127,
2,2772,Note_on_c,9,48,127,
2,2772,Note_on_c,9,51,127,
2,2772,Note_on_c,9,53,127,
2,2772,Note_on_c,9,80,127,
2,2772,Note_on_c,9,81,127,
2,2772,Note_on_c,9,82,127,
2,2773,Note_off_c,9,36,0,
2,2774,Note_on_c,9,36,127,
2,2774,Note_on_c,9,37,127,
2,2774,Note_on_c,9,38,127,
2,2774,Note_on_c,9,39,127,
2,2774,Note_on_c,9,41,127,
2,2774,Note_on_c,9,42,127,
2,2774,Note_on_c,9,43,127,
2,2774,Note_on_c,9,45,127,
2,2774,Note_on_c,9,48,127,
2,2774,Note_on_c,9,51,127,
2,2774,Note_on_c,9,53,127,
2,2774,Note_on_c,9,80,127,
2,2774,Note_on_c,9,81,127,
2,2774,Note_on_c,9,82,127,
2,2775,Note_off_c,9,36,0,
2,2776,Note_on_c,9,36,127,
2,2776,Note_on_c,9,37,127,
2,2776,Note_on_c,9,38,127,
2,2776,Note_on_c,9,39,127,
2,2776,Note_on_c,9,41,127,
2,2776,Note_on_c,9,42,127,
2,2776,Note_on_c,9,43,127,
2,2776,Note_on_c,9,45,127,
2,2776,Note_on_c,9,48,127,
2,2776,Note_on_c,9,51,127,
2,2776,Note_on_c,9,53,127,
2,2776,Note_on_c,9,80,127,
2,2776,Note_on_c,9,81,127,
2,2776,Note_on_c,9,82,127,
2,2777,Note_off_c,9,36,0,
2,2778,Note_on_c,9,36,127,
2,2778,Note_on_c,9,37,127,
2,2778,Note_on_c,9,38,127,
2,2778,Note_on_c,9,39,127,
2,2778,Note_on_c,9,41,127,
2,2778,Note_on_c,9,42,127,
2,2778,Note_on_c,9,43,127,
2,2778,Note_on_c,9,45,127,
2,2778,Note_on_c,9,48,127,
2,2778,Note_on_c,9,51,127,
2,2778,Note_on_c,9,53,127,
2,2778,Note_on_c,9,80,127,
2,2778,Note_on_c,9,81,127,
2,2778,Note_on_c,9,82,127,
2,2779,Note_off_c,9,36,0,
2,2780,Note_on_c,9,36,127,
2,2780,Note_on_c,9,37,127,
2,2780,Note_on_c,9,38,127,
2,2780,Note_on_c,9,39,127,
2,2780,Note_on_c,9,41,127,
2,2780,Note_on_c,9,42,127,
2,2780,Note_on_c,9,43,127,
2,2780,Note_on_c,9,45,127,
2,2780,Note_on_c,9,48,127,
2,2780,Note_on_c,9,51,127,
2,2780,Note_on_c,9,53,127,
2,2780,Note_on_c,9,80,127,
2,2780,Note_on_c,9,81,127,
2,2780,Note_on_c,9,82,127,
2,2781,Note_off_c,9,36,0,
2,2782,Note_on_c,9,36,127,
2,2782,Note_on_c,9,37,127,
2,2782,Note_on_c,9,38,127,
2,2782,Note_on_c,9,39,127,
2,2782,Note_on_c,9,41,127,
2,2782,Note_on_c,9,42,127,
2,2782,Note_on_c,9,43,127,
2,2782,Note_on_c,9,45,127,
2,2782,Note_on_c,9,48,127,
2,2782,Note_on_c,9,51,127,
2,2782,Note_on_c,9,53,127,
2,2782,Note_on_c,9,80,127,
2,2782,Note_on_c,9,81,127,
2,2782,Note_on_c,9,82,127,
2,2783,Note_off_c,9,36,0,
2,2784,Note_on_c,9,36,127,
2,2784,Note_on_c,9,37,127,
2,2784,Note_on_c,9,38,127,
2,2784,Note_on_c,9,39,127,
2,2784,Note_on_c,9,41,127,
2,2784,Note_on_c,9,42,127,
2,2784,Note_on_c,9,43,127,
2,2784,Note_on_c,9,45,127,
2,2784,Note_on_c,9,48,127,
2,2784,Note_on_c,9,51,127,
2,2784,Note_on_c,9,53,127,
2,2784,Note_on_c,9,80,127,
2,2784,Note_on_c,9,81,127,
2,2784,Note_on_c,9,82,127,
2,2785,Note_off_c,9,36,0,
2,2786,Note_on_c,9,36,127,
2,2786,Note_on_c,9,37,127,
2,2786,Note_on_c,9,38,127,
2,2786,Note_on_c,9,39,127,
2,2786,Note_on_c,9,41,127,
2,2786,Note_on_c,9,42,127,
2,2786,Note_on_c,9,43,127,
2,2786,Note_on_c,9,45,127,
2,2786,Note_on_c,9,48,127,
2,2786,Note_on_c,9,51,127,
2,2786,Note_on_c,9,53,127,
2,2786,Note_on_c,9,80,127,
2,2786,Note_on_c,9,81,127,
2,2786,Note_on_c,9,82,127,
2,2787,Note_off_c,9,36,0,
2,2788,Note_on_c,9,36,127,
2,2788,Note_on_c,9,37,127,
2,2788,Note_on_c,9,38,127,
2,2788,Note_on_c,9,39,127,
2,2788,Note_on_c,9,41,127,
2,2788,Note_on_c,9,42,127,
2,2788,Note_on_c,9,43,127,
2,2788,Note_on_c,9,45,127,
2,2788,Note_on_c,9,48,127,
2,2788,Note_on_c,9,51,127,
2,2788,Note_on_c,9,53,127,
2,2788,Note_on_c,9,80,127,
2,2788,Note_on_c,9,81,127,
2,2788,Note_on_c,9,82,127,
2,2789,Note_off_c,9,36,0,
2,2790,Note_on_c,9,36,127,
2,2790,Note_on_c,9,37,127,
2,2790,Note_on_c,9,38,127,
2,2790,Note_on_c,9,39,127,
2,2790,Note_on_c,9,41,127,
2,2790,Note_on_c,9,42,127,
2,2790,Note_on_c,9,43,127,
2,2790,Note_on_c,9,45,127,
2,2790,Note_on_c,9,48,127,
2,2790,Note_on_c,9,51,127,
2,2790,Note_on_c,9,53,127,
2,2790,Note_on_c,9,80,127,
2,2790,Note_on_c,9,81,127,
2,2790,Note_on_c,9,82,127,
2,2791,Note_off_c,9,36,0,
2,2792,Note_on_c,9,36,127,
2,2792,Note_on_c,9,37,127,
2,2792,Note_on_c,9,38,127,
2,2792,Note_on_c,9,39,127,
2,2792,Note_on_c,9,41,127,
2,2792,Note_on_c,9,42,127,
2,2792,Note_on_c,9,43,127,
2,2792,Note_on_c,9,45,127,
2,2792,Note_on_c,9,48,127,
2,2792,Note_on_c,9,51,127,
2,2792,Note_on_c,9,53,127,
2,2792,Note_on_c,9,80,127,
2,2792,Note_on_c,9,81,127,
2,2792,Note_on_c,9,82,127,
2,2793,Note_off_c,9,36,0,
2,2794,Note_on_c,9,36,127,
2,2794,Note_on_c,9,37,127,
2,2794,Note_on_c,9,38,127,
2,2794,Note_on_c,9,39,127,
2,2794,Note_on_c,9,41,127,
2,2794,Note_on_c,9,42,127,
2,2794,Note_on_c,9,43,127,
2,2794,Note_on_c,9,45,127,
2,2794,Note_on_c,9,48,127,
2,2794,Note_on_c,9,51,127,
2,2794,Note_on_c,9,53,127,
2,2794,Note_on_c,9,80,127,
2,2794,Note_on_c,9,81,127,
2,2794,Note_on_c,9,82,127,
2,2795,Note_off_c,9,36,0,
2,2796,Note_on_c,9,36,127,
2,2796,Note_on_c,9,37,127,
2,2796,Note_on_c,9,38,127,
2,2796,Note_on_c,9,39,127,
2,2796,Note_on_c,9,41,127,
2,2796,Note_on_c,9,42,127,
2,2796,Note_on_c,9,43,127,
2,2796,Note_on_c,9,45,127,
2,2796,Note_on_c,9,48,127,
2,2796,Note_on_c,9,51,127,
2,2796,Note_on_c,9,53,127,
2,2796,Note_on_c,9,80,127,
2,2796,Note_on_c,9,81,127,
2,2796,Note_on_c,9,82,127,
2,2797,Note_off_c,9,36,0,
2,2798,Note_on_c,9,36,127,
2,2798,Note_on_c,9,37,127,
2,2798,Note_on_c,9,38,127,
2,2798,Note_on_c,9,39,127,
2,2798,Note_on_c,9,41,127,
2,2798,Note_on_c,9,42,127,
2,2798,Note_on_c,9,43,127,
2,2798,Note_on_c,9,45,127,
2,2798,Note_on_c,9,48,127,
2,2798,Note_on_c,9,51,127,
2,2798,Note_on_c,9,53,127,
2,2798,Note_on_c,9,80,127,
2,2798,Note_on_c,9,81,127,
2,2798,Note_on_c,9,82,127,
2,2799,Note_off_c,9,36,0,
2,2800,Note_on_c,9,36,127,
2,2800,Note_on_c,9,37,127,
2,2800,Note_on_c,9,38,127,
2,2800,Note_on_c,9,39,127,
2,2800,Note_on_c,9,41,127,
2,2800,Note_on_c,9,42,127,
2,2800,Note_on_c,9,43,127,
2,2800,Note_on_c,9,45,127,
2,2800,Note_on_c,9,48,127,
2,2800,Note_on_c,9,51,127,
2,2800,Note_on_c,9,53,127,
2,2800,Note_on_c,9,80,127,
2,2800,Note_on_c,9,81,127,
2,2800,Note_on_c,9,82,127,
2,2801,Note_off_c,9,36,0,
2,2802,Note_on_c,9,36,127,
2,2802,Note_on_c,9,37,127,
2,2802,Note_on_c,9,38,127,
2,2802,Note_on_c,9,39,127,
2,2802,Note_on_c,9,41,127,
2,2802,Note_on_c,9,42,127,
2,2802,Note_on_c,9,43,127,
2,2802,Note_on_c,9,45,127,
2,2802,Note_on_c,9,48,127,
2,2802,Note_on_c,9,51,127,
2,2802,Note_on_c,9,53,127,
2,2802,Note_on_c,9,80,127,
2,2802,Note_on_c,9,81,127,
2,2802,Note_on_c,9,82,127,
2,2803,Note_off_c,9,36,0,
2,2804,Note_on_c,9,36,127,
2,2804,Note_on_c,9,37,127,
2,2804,Note_on_c,9,38,127,
2,2804,Note_on_c,9,39,127,
2,2804,Note_on_c,9,41,127,
2,2804,Note_on_c,9,42,127,
2,2804,Note_on_c,9,43,127,
2,2804,Note_on_c,9,45,127,
2,2804,Note_on_c,9,48,127,
2,2804,Note_on_c,9,51,127,
2,2804,Note_on_c,9,53,127,
2,2804,Note_on_c,9,80,127,
2,2804,Note_on_c,9,81,127,
2,2804,Note_on_c,9,82,127,
2,2805,Note_off_c,9,36,0,
2,2806,Note_on_c,9,36,127,
2,2806,Note_on_c,9,37,127,
2,2806,Note_on_c,9,38,127,
2,2806,Note_on_c,9,39,127,
2,2806,Note_on_c,9,41,127,
2,2806,Note_on_c,9,42,127,
2,2806,Note_on_c,9,43,127,
2,2806,Note_on_c,9,45,127,
2,2806,Note_on_c,9,48,127,
2,2806,Note_on_c,9,51,127,
2,2806,Note_on_c,9,53,127,
2,2806,Note_on_c,9,80,127,
2,2806,Note_on_c,9,81,127,
2,2806,Note_on_c,9,82,127,
2,2807,Note_off_c,9,36,0,
2,2808,Note_on_c,9,36,127,
2,2808,Note_on_c,9,37,127,
2,2808,Note_on_c,9,38,127,
2,2808,Note_on_c,9,39,127,
2,2808,Note_on_c,9,41,127,
2,2808,Note_on_c,9,42,127,
2,2808,Note_on_c,9,43,127,
2,2808,Note_on_c,9,45,127,
2,2808,Note_on_c,9,48,127,
2,2808,Note_on_c,9,51,127,
2,2808,Note_on_c,9,53,127,
2,2808,Note_on_c,9,80,127,
2,2808,Note_on_c,9,81,127,
2,2808,Note_on_c,9,82,127,
2,2809,Note_off_c,9,36,0,
2,2810,Note_on_c,9,36,127,
2,2810,Note_on_c,9,37,127,
2,2810,Note_on_c,9,38,127,
2,2810,Note_on_c,9,39,127,
2,2810,Note_on_c,9,41,127,
2,2810,Note_on_c,9,42,127,
2,2810,Note_on_c,9,43,127,
2,2810,Note_on_c,9,45,127,
2,2810,Note_on_c,9,48,127,
2,2810,Note_on_c,9,51,127,
2,2810,Note_on_c,9,53,127,
2,2810,Note_on_c,9,80,127,
2,2810,Note_on_c,9,81,127,
2,2810,Note_on_c,9,82,127,
2,2811,Note_off_c,9,36,0,
2,2812,Note_on_c,9,36,127,
2,2812,Note_on_c,9,37,127,
2,2812,Note_on_c,9,38,127,
2,2812,Note_on_c,9,39,127,
2,2812,Note_on_c,9,41,127,
2,2812,Note_on_c,9,42,127,
2,2812,Note_on_c,9,43,127,
2,2812,Note_on_c,9,45,127,
2,2812,Note_on_c,9,48,127,
2,2812,Note_on_c,9,51,127,
2,2812,Note_on_c,9,53,127,
2,2812,Note_on_c,9,80,127,
2,2812,Note_on_c,9,81,127,
2,2812,Note_on_c,9,82,127,
2,2813,Note_off_c,9,36,0,
2,2814,Note_on_c,9,36,127,
2,2814,Note_on_c,9,37,127,
2,2814,Note_on_c,9,38,127,
2,2814,Note_on_c,9,39,127,
2,2814,Note_on_c,9,41,127,
2,2814,Note_on_c,9,42,127,
2,2814,Note_on_c,9,43,127,
2,2814,Note_on_c,9,45,127,
2,2814,Note_on_c,9,48,127,
2,2814,Note_on_c,9,51,127,
2,2814,Note_on_c,9,53,127,
2,2814,Note_on_c,9,80,127,
2,2814,Note_on_c,9,81,127,
2,2814,Note_on_c,9,82,127,
2,2815,Note_off_c,9,36,0,
2,2816,Note_on_c,9,36,127,
2,2816,Note_on_c,9,37,127,
2,2816,Note_on_c,9,38,127,
2,2816,Note_on_c,9,39,127,
2,2816,Note_on_c,9,41,127,
2,2816,Note_on_c,9,42,127,
2,2816,Note_on_c,9,43,127,
2,2816,Note_on_c,9,45,127,
2,2816,Note_on_c,9,48,127,
2,2816,Note_on_c,9,51,127,
2,2816,Note_on_c,9,53,127,
2,2816,Note_on_c,9,80,127,
2,2816,Note_on_c,9,81,127,
2,2816,Note_on_c,9,82,127,
2,2817,Note_off_c,9,36,0,
2,2818,Note_on_c,9,36,127,
2,2818,Note_on_c,9,37,127,
2,2818,Note_on_c,9,38,127,
2,2818,Note_on_c,9,39,127,
2,2818,Note_on_c,9,41,127,
2,2818,Note_on_c,9,42,127,
2,2818,Note_on_c,9,43,127,
2,2818,Note_on_c,9,45,127,
2,2818,Note_on_c,9,48,127,
2,2818,Note_on_c,9,51,127,
2,2818,Note_on_c,9,53,127,
2,2818,Note_on_c,9,80,127,
2,2818,Note_on_c,9,81,127,
2,2818,Note_on_c,9,82,127,
2,2819,Note_off_c,9,36,0,
2,2820,Note_on_c,9,36,127,
2,2820,Note_on_c,9,37,127,
2,2820,Note_on_c,9,38,127,
2,2820,Note_on_c,9,39,127,
2,2820,Note_on_c,9,41,127,
2,2820,Note_on_c,9,42,127,
2,2820,Note_on_c,9,43,127,
2,2820,Note_on_c,9,45,127,
2,2820,Note_on_c,9,48,127,
2,2820,Note_on_c,9,51,127,
2,2820,Note_on_c,9,53,127,
2,2820,Note_on_c,9,80,127,
2,2820,Note_on_c,9,81,127,
2,2820,Note_on_c,9,82,127,
2,2821,Note_off_c,9,36,0,
2,2822,Note_on_c,9,36,127,
2,2822,Note_on_c,9,37,127,
2,2822,Note_on_c,9,38,127,
2,2822,Note_on_c,9,39,127,
2,2822,Note_on_c,9,41,127,
2,2822,Note_on_c,9,42,127,
2,2822,Note_on_c,9,43,127,
2,2822,Note_on_c,9,45,127,
2,2822,Note_on_c,9,48,127,
2,2822,Note_on_c,9,51,127,
2,2822,Note_on_c,9,53,127,
2,2822,Note_on_c,9,80,127,
2,2822,Note_on_c,9,81,127,
2,2822,Note_on_c,9,82,127,
2,2823,Note_off_c,9,36,0,
2,2824,Note_on_c,9,36,127,
2,2824,Note_on_c,9,37,127,
2,2824,Note_on_c,9,38,127,
2,2824,Note_on_c,9,39,127,
2,2824,Note_on_c,9,41,127,
2,2824,Note_on_c,9,42,127,
2,2824,Note_on_c,9,43,127,
2,2824,Note_on_c,9,45,127,
2,2824,Note_on_c,9,48,127,
2,2824,Note_on_c,9,51,127,
2,2824,Note_on_c,9,53,127,
2,2824,Note_on_c,9,80,127,
2,2824,Note_on_c,9,81,127,
2,2824,Note_on_c,9,82,127,
2,2825,Note_off_c,9,36,0,
2,2826,Note_on_c,9,36,127,
2,2826,Note_on_c,9,37,127,
2,2826,Note_on_c,9,38,127,
2,2826,Note_on_c,9,39,127,
2,2826,Note_on_c,9,41,127,
2,2826,Note_on_c,9,42,127,
2,2826,Note_on_c,9,43,127,
2,2826,Note_on_c,9,45,127,
2,2826,Note_on_c,9,48,127,
2,2826,Note_on_c,9,51,127,
2,2826,Note_on_c,9,53,127,
2,2826,Note_on_c,9,80,127,
2,2826,Note_on_c,9,81,127,
2,2826,Note_on_c,9,82,127,
2,2827,Note_off_c,9,36,0,
2,2828,Note_on_c,9,36,127,
2,2828,Note_on_c,9,37,127,
2,2828,Note_on_c,9,38,127,
2,2828,Note_on_c,9,39,127,
2,2828,Note_on_c,9,41,127,
2,2828,Note_on_c,9,42,127,
2,2828,Note_on_c,9,43,127,
2,2828,Note_on_c,9,45,127,
2,2828,Note_on_c,9,48,127,
2,2828,Note_on_c,9,51,127,
2,2828,Note_on_c,9,53,127,
2,2828,Note_on_c,9,80,127,
2,2828,Note_on_c,9,81,127,
2,2828,Note_on_c,9,82,127,
2,2829,Note_off_c,9,36,0,
2,2830,Note_on_c,9,36,127,
2,2830,Note_on_c,9,37,127,
2,2830,Note_on_c,9,38,127,
2,2830,Note_on_c,9,39,127,
2,2830,Note_on_c,9,41,127,
2,2830,Note_on_c,9,42,127,
2,2830,Note_on_c,9,43,127,
2,2830,Note_on_c,9,45,127,
2,2830,Note_on_c,9,48,127,
2,2830,Note_on_c,9,51,127,
2,2830,Note_on_c,9,53,127,
2,2830,Note_on_c,9,80,127,
2,2830,Note_on_c,9,81,127,
2,2830,Note_on_c,9,82,127,
2,2831,Note_off_c,9,36,0,
2,2832,Note_on_c,9,36,127,
2,2832,Note_on_c,9,37,127,
2,2832,Note_on_c,9,38,127,
2,2832,Note_on_c,9,39,127,
2,2832,Note_on_c,9,41,127,
2,2832,Note_on_c,9,42,127,
2,2832,Note_on_c,9,43,127,
2,2832,Note_on_c,9,45,127,
2,2832,Note_on_c,9,48,127,
2,2832,Note_on_c,9,51,127,
2,2832,Note_on_c,9,53,127,
2,2832,Note_on_c,9,80,127,
2,2832,Note_on_c,9,81,127,
2,2832,Note_on_c,9,82,127,
2,2833,Note_off_c,9,36,0,
2,2834,Note_on_c,9,36,127,
2,2834,Note_on_c,9,37,127,
2,2834,Note_on_c,9,38,127,
2,2834,Note_on_c,9,39,127,
2,2834,Note_on_c,9,41,127,
2,2834,Note_on_c,9,42,127,
2,2834,Note_on_c,9,43,127,
2,2834,Note_on_c,9,45,127,
2,2834,Note_on_c,9,48,127,
2,2834,Note_on_c,9,51,127,
2,2834,Note_on_c,9,53,127,
2,2834,Note_on_c,9,80,127,
2,2834,Note_on_c,9,81,127,
2,2834,Note_on_c,9,82,127,
2,2835,Note_off_c,9,36,0,
2,2836,Note_on_c,9,36,127,
2,2836,Note_on_c,9,37,127,
2,2836,Note_on_c,9,38,127,
2,2836,Note_on_c,9,39,127,
2,2836,Note_on_c,9,41,127,
2,2836,Note_on_c,9,42,127,
2,2836,Note_on_c,9,43,127,
2,2836,Note_on_c,9,45,127,
2,2836,Note_on_c,9,48,127,
2,2836,Note_on_c,9,51,127,
2,2836,Note_on_c,9,53,127,
2,2836,Note_on_c,9,80,127,
2,2836,Note_on_c,9,81,127,
2,2836,Note_on_c,9,82,127,
2,2837,Note_off_c,9,36,0,
2,2838,Note_on_c,9,36,127,
2,2838,Note_on_c,9,37,127,
2,2838,Note_on_c,9,38,127,
2,2838,Note_on_c,9,39,127,
2,2838,Note_on_c,9,41,127,
2,2838,Note_on_c,9,42,127,
2,2838,Note_on_c,9,43,127,
2,2838,Note_on_c,9,45,127,
2,2838,Note_on_c,9,48,127,
2,2838,Note_on_c,9,51,127,
2,2838,Note_on_c,9,53,127,
2,2838,Note_on_c,9,80,127,
2,2838,Note_on_c,9,81,127,
2,2838,Note_on_c,9,82,127,
2,2839,Note_off_c,9,36,0,
2,2840,Note_on_c,9,36,127,
2,2840,Note_on_c,9,37,127,
2,2840,Note_on_c,9,38,127,
2,2840,Note_on_c,9,39,127,
2,2840,Note_on_c,9,41,127,
2,2840,Note_on_c,9,42,127,
2,2840,Note_on_c,9,43,127,
2,2840,Note_on_c,9,45,127,
2,2840,Note_on_c,9,48,127,
2,2840,Note_on_c,9,51,127,
2,2840,Note_on_c,9,53,127,
2,2840,Note_on_c,9,80,127,
2,2840,Note_on_c,9,81,127,
2,2840,Note_on_c,9,82,127,
2,2841,Note_off_c,9,36,0,
2,2842,Note_on_c,9,36,127,
2,2842,Note_on_c,9,37,127,
2,2842,Note_on_c,9,38,127,
2,2842,Note_on_c,9,39,127,
2,2842,Note_on_c,9,41,127,
2,2842,Note_on_c,9,42,127,
2,2842,Note_on_c,9,43,127,
2,2842,Note_on_c,9,45,127,
2,2842,Note_on_c,9,48,127,
2,2842,Note_on_c,9,51,127,
2,2842,Note_on_c,9,53,127,
2,2842,Note_on_c,9,80,127,
2,2842,Note_on_c,9,81,127,
2,2842,Note_on_c,9,82,127,
2,2843,Note_off_c,9,36,0,
2,2844,Note_on_c,9,36,127,
2,2844,Note_on_c,9,37,127,
2,2844,Note_on_c,9,38,127,
2,2844,Note_on_c,9,39,127,
2,2844,Note_on_c,9,41,127,
2,2844,Note_on_c,9,42,127,
2,2844,Note_on_c,9,43,127,
2,2844,Note_on_c,9,45,127,
2,2844,Note_on_c,9,48,127,
2,2844,Note_on_c,9,51,127,
2,2844,Note_on_c,9,53,127,
2,2844,Note_on_c,9,80,127,
2,2844,Note_on_c,9,81,127,
2,2844,Note_on_c,9,82,127,
2,2845,Note_off_c,9,36,0,
2,2846,Note_on_c,9,36,127,
2,2846,Note_on_c,9,37,127,
2,2846,Note_on_c,9,38,127,
2,2846,Note_on_c,9,39,127,
2,2846,Note_on_c,9,41,127,
2,2846,Note_on_c,9,42,127,
2,2846,Note_on_c,9,43,127,
2,2846,Note_on_c,9,45,127,
2,2846,Note_on_c,9,48,127,
2,2846,Note_on_c,9,51,127,
2,2846,Note_on_c,9,53,127,
2,2846,Note_on_c,9,80,127,
2,2846,Note_on_c,9,81,127,
2,2846,Note_on_c,9,82,127,
2,2847,Note_off_c,9,36,0,
2,2848,Note_on_c,9,36,127,
2,2848,Note_on_c,9,37,127,
2,2848,Note_on_c,9,38,127,
2,2848,Note_on_c,9,39,127,
2,2848,Note_on_c,9,41,127,
2,2848,Note_on_c,9,42,127,
2,2848,Note_on_c,9,43,127,
2,2848,Note_on_c,9,45,127,
2,2848,Note_on_c,9,48,127,
2,2848,Note_on_c,9,51,127,
2,2848,Note_on_c,9,53,127,
2,2848,Note_on_c,9,80,127,
2,2848,Note_on_c,9,81,127,
2,2848,Note_on_c,9,82,127,
2,2849,Note_off_c,9,36,0,
2,2850,Note_on_c,9,36,127,
2,2850,Note_on_c,9,37,127,
2,2850,Note_on_c,9,38,127,
2,2850,Note_on_c,9,39,127,
2,2850,Note_on_c,9,41,127,
2,2850,Note_on_c,9,42,127,
2,2850,Note_on_c,9,43,127,
2,2850,Note_on_c,9,45,127,
2,2850,Note_on_c,9,48,127,
2,2850,Note_on_c,9,51,127,
2,2850,Note_on_c,9,53,127,
2,2850,Note_on_c,9,80,127,
2,2850,Note_on_c,9,81,127,
2,2850,Note_on_c,9,82,127,
2,2851,Note_off_c,9,36,0,
2,2852,Note_on_c,9,36,127,
2,2852,Note_on_c,9,37,127,
2,2852,Note_on_c,9,38,127,
2,2852,Note_on_c,9,39,127,
2,2852,Note_on_c,9,41,127,
2,2852,Note_on_c,9,42,127,
2,2852,Note_on_c,9,43,127,
2,2852,Note_on_c,9,45,127,
2,2852,Note_on_c,9,48,127,
2,2852,Note_on_c,9,51,127,
2,2852,Note_on_c,9,53,127,
2,2852,Note_on_c,9,80,127,
2,2852,Note_on_c,9,81,127,
2,2852,Note_on_c,9,82,127,
2,2853,Note_off_c,9,36,0,
2,2854,Note_on_c,9,36,127,
2,2854,Note_on_c,9,37,127,
2,2854,Note_on_c,9,38,127,
2,2854,Note_on_c,9,39,127,
2,2854,Note_on_c,9,41,127,
2,2854,Note_on_c,9,42,127,
2,2854,Note_on_c,9,43,127,
2,2854,Note_on_c,9,45,127,
2,2854,Note_on_c,9,48,127,
2,2854,Note_on_c,9,51,127,
2,2854,Note_on_c,9,53,127,
2,2854,Note_on_c,9,80,127,
2,2854,Note_on_c,9,81,127,
2,2854,Note_on_c,9,82,127,
2,2855,Note_off_c,9,36,0,
2,2856,Note_on_c,9,36,127,
2,2856,Note_on_c,9,37,127,
2,2856,Note_on_c,9,38,127,
2,2856,Note_on_c,9,39,127,
2,2856,Note_on_c,9,41,127,
2,2856,Note_on_c,9,42,127,
2,2856,Note_on_c,9,43,127,
2,2856,Note_on_c,9,45,127,
2,2856,Note_on_c,9,48,127,
2,2856,Note_on_c,9,51,127,
2,2856,Note_on_c,9,53,127,
2,2856,Note_on_c,9,80,127,
2,2856,Note_on_c,9,81,127,
2,2856,Note_on_c,9,82,127,
2,2857,Note_off_c,9,36,0,
2,2858,Note_on_c,9,36,127,
2,2858,Note_on_c,9,37,127,
2,2858,Note_on_c,9,38,127,
2,2858,Note_on_c,9,39,127,
2,2858,Note_on_c,9,41,127,
2,2858,Note_on_c,9,42,127,
2,2858,Note_on_c,9,43,127,
2,2858,Note_on_c,9,45,127,
2,2858,Note_on_c,9,48,127,
2,2858,Note_on_c,9,51,127,
2,2858,Note_on_c,9,53,127,
2,2858,Note_on_c,9,80,127,
2,2858,Note_on_c,9,81,127,
2,2858,Note_on_c,9,82,127,
2,2859,Note_off_c,9,36,0,
2,2860,Note_on_c,9,36,127,
2,2860,Note_on_c,9,37,127,
2,2860,Note_on_c,9,38,127,
2,2860,Note_on_c,9,39,127,
2,2860,Note_on_c,9,41,127,
2,2860,Note_on_c,9,42,127,
2,2860,Note_on_c,9,43,127,
2,2860,Note_on_c,9,45,127,
2,2860,Note_on_c,9,48,127,
2,2860,Note_on_c,9,51,127,
2,2860,Note_on_c,9,53,127,
2,2860,Note_on_c,9,80,127,
2,2860,Note_on_c,9,81,127,
2,2860,Note_on_c,9,82,127,
2,2861,Note_off_c,9,36,0,
2,2862,Note_on_c,9,36,127,
2,2862,Note_on_c,9,37,127,
2,2862,Note_on_c,9,38,127,
2,2862,Note_on_c,9,39,127,
2,2862,Note_on_c,9,41,127,
2,2862,Note_on_c,9,42,127,
2,2862,Note_on_c,9,43,127,
2,2862,Note_on_c,9,45,127,
2,2862,Note_on_c,9,48,127,
2,2862,Note_on_c,9,51,127,
2,2862,Note_on_c,9,53,127,
2,2862,Note_on_c,9,80,127,
2,2862,Note_on_c,9,81,127,
2,2862,Note_on_c,9,82,127,
2,2863,Note_off_c,9,36,0,
2,2864,Note_on_c,9,36,127,
2,2864,Note_on_c,9,37,127,
2,2864,Note_on_c,9,38,127,
2,2864,Note_on_c,9,39,127,
2,2864,Note_on_c,9,41,127,
2,2864,Note_on_c,9,42,127,
2,2864,Note_on_c,9,43,127,
2,2864,Note_on_c,9,45,127,
2,2864,Note_on_c,9,48,127,
2,2864,Note_on_c,9,51,127,
2,2864,Note_on_c,9,53,127,
2,2864,Note_on_c,9,80,127,
2,2864,Note_on_c,9,81,127,
2,2864,Note_on_c,9,82,127,
2,2865,Note_off_c,9,36,0,
2,2866,Note_on_c,9,36,127,
2,2866,Note_on_c,9,37,127,
2,2866,Note_on_c,9,38,127,
2,2866,Note_on_c,9,39,127,
2,2866,Note_on_c,9,41,127,
2,2866,Note_on_c,9,42,127,
2,2866,Note_on_c,9,43,127,
2,2866,Note_on_c,9,45,127,
2,2866,Note_on_c,9,48,127,
2,2866,Note_on_c,9,51,127,
2,2866,Note_on_c,9,53,127,
2,2866,Note_on_c,9,80,127,
2,2866,Note_on_c,9,81,127,
2,2866,Note_on_c,9,82,127,
2,2867,Note_off_c,9,36,0,
2,2868,Note_on_c,9,36,127,
2,2868,Note_on_c,9,37,127,
2,2868,Note_on_c,9,38,127,
2,2868,Note_on_c,9,39,127,
2,2868,Note_on_c,9,41,127,
2,2868,Note_on_c,9,42,127,
2,2868,Note_on_c,9,43,127,
2,2868,Note_on_c,9,45,127,
2,2868,Note_on_c,9,48,127,
2,2868,Note_on_c,9,51,127,
2,2868,Note_on_c,9,53,127,
2,2868,Note_on_c,9,80,127,
2,2868,Note_on_c,9,81,127,
2,2868,Note_on_c,9,82,127,
2,2869,Note_off_c,9,36,0,
2,2870,Note_on_c,9,36,127,
2,2870,Note_on_c,9,37,127,
2,2870,Note_on_c,9,38,127,
2,2870,Note_on_c,9,39,127,
2,2870,Note_on_c,9,41,127,
2,2870,Note_on_c,9,42,127,
2,2870,Note_on_c,9,43,127,
2,2870,Note_on_c,9,45,127,
2,2870,Note_on_c,9,48,127,
2,2870,Note_on_c,9,51,127,
2,2870,Note_on_c,9,53,127,
2,2870,Note_on_c,9,80,127,
2,2870,Note_on_c,9,81,127,
2,2870,Note_on_c,9,82,127,
2,2871,Note_off_c,9,36,0,
2,2872,Note_on_c,9,36,127,
2,2872,Note_on_c,9,37,127,
2,2872,Note_on_c,9,38,127,
2,2872,Note_on_c,9,39,127,
2,2872,Note_on_c,9,41,127,
2,2872,Note_on_c,9,42,127,
2,2872,Note_on_c,9,43,127,
2,2872,Note_on_c,9,45,127,
2,2872,Note_on_c,9,48,127,
2,2872,Note_on_c,9,51,127,
2,2872,Note_on_c,9,53,127,
2,2872,Note_on_c,9,80,127,
2,2872,Note_on_c,9,81,127,
2,2872,Note_on_c,9,82,127,
2,2873,Note_off_c,9,36,0,
2,2874,Note_on_c,9,36,127,
2,2874,Note_on_c,9,37,127,
2,2874,Note_on_c,9,38,127,
2,2874,Note_on_c,9,39,127,
2,2874,Note_on_c,9,41,127,
2,2874,Note_on_c,9,42,127,
2,2874,Note_on_c,9,43,127,
2,2874,Note_on_c,9,45,127,
2,2874,Note_on_c,9,48,127,
2,2874,Note_on_c,9,51,127,
2,2874,Note_on_c,9,53,127,
2,2874,Note_on_c,9,80,127,
2,2874,Note_on_c,9,81,127,
2,2874,Note_on_c,9,82,127,
2,2875,Note_off_c,9,36,0,
2,2876,Note_on_c,9,36,127,
2,2876,Note_on_c,9,37,127,
2,2876,Note_on_c,9,38,127,
2,2876,Note_on_c,9,39,127,
2,2876,Note_on_c,9,41,127,
2,2876,Note_on_c,9,42,127,
2,2876,Note_on_c,9,43,127,
2,2876,Note_on_c,9,45,127,
2,2876,Note_on_c,9,48,127,
2,2876,Note_on_c,9,51,127,
2,2876,Note_on_c,9,53,127,
2,2876,Note_on_c,9,80,127,
2,2876,Note_on_c,9,81,127,
2,2876,Note_on_c,9,82,127,
2,2877,Note_off_c,9,36,0,
2,2878,Note_on_c,9,36,127,
2,2878,Note_on_c,9,37,127,
2,2878,Note_on_c,9,38,127,
2,2878,Note_on_c,9,39,127,
2,2878,Note_on_c,9,41,127,
2,2878,Note_on_c,9,42,127,
2,2878,Note_on_c,9,43,127,
2,2878,Note_on_c,9,45,127,
2,2878,Note_on_c,9,48,127,
2,2878,Note_on_c,9,51,127,
2,2878,Note_on_c,9,53,127,
2,2878,Note_on_c,9,80,127,
2,2878,Note_on_c,9,81,127,
2,2878,Note_on_c,9,82,127,
2,2879,Note_off_c,9,36,0,
2,2880,Note_on_c,9,36,127,
2,2880,Note_on_c,9,37,127,
2,2880,Note_on_c,9,38,127,
2,2880,Note_on_c,9,39,127,
2,2880,Note_on_c,9,41,127,
2,2880,Note_on_c,9,42,127,
2,2880,Note_on_c,9,43,127,
2,2880,Note_on_c,9,45,127,
2,2880,Note_on_c,9,48,127,
2,2880,Note_on_c,9,51,127,
2,2880,Note_on_c,9,53,127,
2,2880,Note_on_c,9,80,127,
2,2880,Note_on_c,9,81,127,
2,2880,Note_on_c,9,82,127,
2,2881,Note_off_c,9,36,0,
2,2882,Note_on_c,9,36,127,
2,2882,Note_on_c,9,37,127,
2,2882,Note_on_c,9,38,127,
2,2882,Note_on_c,9,39,127,
2,2882,Note_on_c,9,41,127,
2,2882,Note_on_c,9,42,127,
2,2882,Note_on_c,9,43,127,
2,2882,Note_on_c,9,45,127,
2,2882,Note_on_c,9,48,127,
2,2882,Note_on_c,9,51,127,
2,2882,Note_on_c,9,53,127,
2,2882,Note_on_c,9,80,127,
2,2882,Note_on_c,9,81,127,
2,2882,Note_on_c,9,82,127,
2,2883,Note_off_c,9,36,0,
2,2884,Note_on_c,9,36,127,
2,2884,Note_on_c,9,37,127,
2,2884,Note_on_c,9,38,127,
2,2884,Note_on_c,9,39,127,
2,2884,Note_on_c,9,41,127,
2,2884,Note_on_c,9,42,127,
2,2884,Note_on_c,9,43,127,
2,2884,Note_on_c,9,45,127,
2,2884,Note_on_c,9,48,127,
2,2884,Note_on_c,9,51,127,
2,2884,Note_on_c,9,53,127,
2,2884,Note_on_c,9,80,127,
2,2884,Note_on_c,9,81,127,
2,2884,Note_on_c,9,82,127,
2,2885,Note_off_c,9,36,0,
2,2886,Note_on_c,9,36,127,
2,2886,Note_on_c,9,37,127,
2,2886,Note_on_c,9,38,127,
2,2886,Note_on_c,9,39,127,
2,2886,Note_on_c,9,41,127,
2,2886,Note_on_c,9,42,127,
2,2886,Note_on_c,9,43,127,
2,2886,Note_on_c,9,45,127,
2,2886,Note_on_c,9,48,127,
2,2886,Note_on_c,9,51,127,
2,2886,Note_on_c,9,53,127,
2,2886,Note_on_c,9,80,127,
2,2886,Note_on_c,9,81,127,
2,2886,Note_on_c,9,82,127,
2,2887,Note_off_c,9,36,0,
2,2888,Note_on_c,9,36,127,
2,2888,Note_on_c,9,37,127,
2,2888,Note_on_c,9,38,127,
2,2888,Note_on_c,9,39,127,
2,2888,Note_on_c,9,41,127,
2,2888,Note_on_c,9,42,127,
2,2888,Note_on_c,9,43,127,
2,2888,Note_on_c,9,45,127,
2,2888,Note_on_c,9,48,127,
2,2888,Note_on_c,9,51,127,
2,2888,Note_on_c,9,53,127,
2,2888,Note_on_c,9,80,127,
2,2888,Note_on_c,9,81,127,
2,2888,Note_on_c,9,82,127,
2,2889,Note_off_c,9,36,0,
2,2890,Note_on_c,9,36,127,
2,2890,Note_on_c,9,37,127,
2,2890,Note_on_c,9,38,127,
2,2890,Note_on_c,9,39,127,
2,2890,Note_on_c,9,41,127,
2,2890,Note_on_c,9,42,127,
2,2890,Note_on_c,9,43,127,
2,2890,Note_on_c,9,45,127,
2,2890,Note_on_c,9,48,127,
2,2890,Note_on_c,9,51,127,
2,2890,Note_on_c,9,53,127,
2,2890,Note_on_c,9,80,127,
2,2890,Note_on_c,9,81,127,
2,2890,Note_on_c,9,82,127,
2,2891,Note_off_c,9,36,0,
2,2892,Note_on_c,9,36,127,
2,2892,Note_on_c,9,37,127,
2,2892,Note_on_c,9,38,127,
2,2892,Note_on_c,9,39,127,
2,2892,Note_on_c,9,41,127,
2,2892,Note_on_c,9,42,127,
2,2892,Note_on_c,9,43,127,
2,2892,Note_on_c,9,45,127,
2,2892,Note_on_c,9,48,127,
2,2892,Note_on_c,9,51,127,
2,2892,Note_on_c,9,53,127,
2,2892,Note_on_c,9,80,127,
2,2892,Note_on_c,9,81,127,
2,2892,Note_on_c,9,82,127,
2,2893,Note_off_c,9,36,0,
2,2894,Note_on_c,9,36,127,
2,2894,Note_on_c,9,37,127,
2,2894,Note_on_c,9,38,127,
2,2894,Note_on_c,9,39,127,
2,2894,Note_on_c,9,41,127,
2,2894,Note_on_c,9,42,127,
2,2894,Note_on_c,9,43,127,
2,2894,Note_on_c,9,45,127,
2,2894,Note_on_c,9,48,127,
2,2894,Note_on_c,9,51,127,
2,2894,Note_on_c,9,53,127,
2,2894,Note_on_c,9,80,127,
2,2894,Note_on_c,9,81,127,
2,2894,Note_on_c,9,82,127,
2,2895,Note_off_c,9,36,0,
2,2896,Note_on_c,9,36,127,
2,2896,Note_on_c,9,37,127,
2,2896,Note_on_c,9,38,127,
2,2896,Note_on_c,9,39,127,
2,2896,Note_on_c,9,41,127,
2,2896,Note_on_c,9,42,127,
2,2896,Note_on_c,9,43,127,
2,2896,Note_on_c,9,45,127,
2,2896,Note_on_c,9,48,127,
2,2896,Note_on_c,9,51,127,
2,2896,Note_on_c,9,53,127,
2,2896,Note_on_c,9,80,127,
2,2896,Note_on_c,9,81,127,
2,2896,Note_on_c,9,82,127,
2,2897,Note_off_c,9,36,0,
2,2898,Note_on_c,9,36,127,
2,2898,Note_on_c,9,37,127,
2,2898,Note_on_c,9,38,127,
2,2898,Note_on_c,9,39,127,
2,2898,Note_on_c,9,41,127,
2,2898,Note_on_c,9,42,127,
2,2898,Note_on_c,9,43,127,
2,2898,Note_on_c,9,45,127,
2,2898,Note_on_c,9,48,127,
2,2898,Note_on_c,9,51,127,
2,2898,Note_on_c,9,53,127,
2,2898,Note_on_c,9,80,127,
2,2898,Note_on_c,9,81,127,
2,2898,Note_on_c,9,82,127,
2,2899,Note_off_c,9,36,0,
2,2900,Note_on_c,9,36,127,
2,2900,Note_on_c,9,37,127,
2,2900,Note_on_c,9,38,127,
2,2900,Note_on_c,9,39,127,
2,2900,Note_on_c,9,41,127,
2,2900,Note_on_c,9,42,127,
2,2900,Note_on_c,9,43,127,
2,2900,Note_on_c,9,45,127,
2,2900,Note_on_c,9,48,127,
2,2900,Note_on_c,9,51,127,
2,2900,Note_on_c,9,53,127,
2,2900,Note_on_c,9,80,127,
2,2900,Note_on_c,9,81,127,
2,2900,Note_on_c,9,82,127,
2,2901,Note_off_c,9,36,0,
2,2902,Note_on_c,9,36,127,
2,2902,Note_on_c,9,37,127,
2,2902,Note_on_c,9,38,127,
2,2902,Note_on_c,9,39,127,
2,2902,Note_on_c,9,41,127,
2,2902,Note_on_c,9,42,127,
2,2902,Note_on_c,9,43,127,
2,2902,Note_on_c,9,45,127,
2,2902,Note_on_c,9,48,127,
2,2902,Note_on_c,9,51,127,
2,2902,Note_on_c,9,53,127,
2,2902,Note_on_c,9,80,127,
2,2902,Note_on_c,9,81,127,
2,2902,Note_on_c,9,82,127,
2,2903,Note_off_c,9,36,0,
2,2904,Note_on_c,9,36,127,
2,2904,Note_on_c,9,37,127,
2,2904,Note_on_c,9,38,127,
2,2904,Note_on_c,9,39,127,
2,2904,Note_on_c,9,41,127,
2,2904,Note_on_c,9,42,127,
2,2904,Note_on_c,9,43,127,
2,2904,Note_on_c,9,45,127,
2,2904,Note_on_c,9,48,127,
2,2904,Note_on_c,9,51,127,
2,2904,Note_on_c,9,53,127,
2,2904,Note_on_c,9,80,127,
2,2904,Note_on_c,9,81,127,
2,2904,Note_on_c,9,82,127,
2,2905,Note_off_c,9,36,0,
2,2906,Note_on_c,9,36,127,
2,2906,Note_on_c,9,37,127,
2,2906,Note_on_c,9,38,127,
2,2906,Note_on_c,9,39,127,
2,2906,Note_on_c,9,41,127,
2,2906,Note_on_c,9,42,127,
2,2906,Note_on_c,9,43,127,
2,2906,Note_on_c,9,45,127,
2,2906,Note_on_c,9,48,127,
2,2906,Note_on_c,9,51,127,
2,2906,Note_on_c,9,53,127,
2,2906,Note_on_c,9,80,127,
2,2906,Note_on_c,9,81,127,
2,2906,Note_on_c,9,82,127,
2,2907,Note_off_c,9,36,0,
2,2908,Note_on_c,9,36,127,
2,2908,Note_on_c,9,37,127,
2,2908,Note_on_c,9,38,127,
2,2908,Note_on_c,9,39,127,
2,2908,Note_on_c,9,41,127,
2,2908,Note_on_c,9,42,127,
2,2908,Note_on_c,9,43,127,
2,2908,Note_on_c,9,45,127,
2,2908,Note_on_c,9,48,127,
2,2908,Note_on_c,9,51,127,
2,2908,Note_on_c,9,53,127,
2,2908,Note_on_c,9,80,127,
2,2908,Note_on_c,9,81,127,
2,2908,Note_on_c,9,82,127,
2,2909,Note_off_c,9,36,0,
2,2910,Note_on_c,9,36,127,
2,2910,Note_on_c,9,37,127,
2,2910,Note_on_c,9,38,127,
2,2910,Note_on_c,9,39,127,
2,2910,Note_on_c,9,41,127,
2,2910,Note_on_c,9,42,127,
2,2910,Note_on_c,9,43,127,
2,2910,Note_on_c,9,45,127,
2,2910,Note_on_c,9,48,127,
2,2910,Note_on_c,9,51,127,
2,2910,Note_on_c,9,53,127,
2,2910,Note_on_c,9,80,127,
2,2910,Note_on_c,9,81,127,
2,2910,Note_on_c,9,82,127,
2,2911,Note_off_c,9,36,0,
2,2912,Note_on_c,9,36,127,
2,2912,Note_on_c,9,37,127,
2,2912,Note_on_c,9,38,127,
2,2912,Note_on_c,9,39,127,
2,2912,Note_on_c,9,41,127,
2,2912,Note_on_c,9,42,127,
2,2912,Note_on_c,9,43,127,
2,2912,Note_on_c,9,45,127,
2,2912,Note_on_c,9,48,127,
2,2912,Note_on_c,9,51,127,
2,2912,Note_on_c,9,53,127,
2,2912,Note_on_c,9,80,127,
2,2912,Note_on_c,9,81,127,
2,2912,Note_on_c,9,82,127,
2,2913,Note_off_c,9,36,0,
2,2914,Note_on_c,9,36,127,
2,2914,Note_on_c,9,37,127,
2,2914,Note_on_c,9,38,127,
2,2914,Note_on_c,9,39,127,
2,2914,Note_on_c,9,41,127,
2,2914,Note_on_c,9,42,127,
2,2914,Note_on_c,9,43,127,
2,2914,Note_on_c,9,45,127,
2,2914,Note_on_c,9,48,127,
2,2914,Note_on_c,9,51,127,
2,2914,Note_on_c,9,53,127,
2,2914,Note_on_c,9,80,127,
2,2914,Note_on_c,9,81,127,
2,2914,Note_on_c,9,82,127,
2,2915,Note_off_c,9,36,0,
2,2916,Note_on_c,9,36,127,
2,2916,Note_on_c,9,37,127,
2,2916,Note_on_c,9,38,127,
2,2916,Note_on_c,9,39,127,
2,2916,Note_on_c,9,41,127,
2,2916,Note_on_c,9,42,127,
2,2916,Note_on_c,9,43,127,
2,2916,Note_on_c,9,45,127,
2,2916,Note_on_c,9,48,127,
2,2916,Note_on_c,9,51,127,
2,2916,Note_on_c,9,53,127,
2,2916,Note_on_c,9,80,127,
2,2916,Note_on_c,9,81,127,
2,2916,Note_on_c,9,82,127,
2,2917,Note_off_c,9,36,0,
2,2918,Note_on_c,9,36,127,
2,2918,Note_on_c,9,37,127,
2,2918,Note_on_c,9,38,127,
2,2918,Note_on_c,9,39,127,
2,2918,Note_on_c,9,41,127,
2,2918,Note_on_c,9,42,127,
2,2918,Note_on_c,9,43,127,
2,2918,Note_on_c,9,45,127,
2,2918,Note_on_c,9,48,127,
2,2918,Note_on_c,9,51,127,
2,2918,Note_on_c,9,53,127,
2,2918,Note_on_c,9,80,127,
2,2918,Note_on_c,9,81,127,
2,2918,Note_on_c,9,82,127,
2,2919,Note_off_c,9,36,0,
2,2920,Note_on_c,9,36,127,
2,2920,Note_on_c,9,37,127,
2,2920,Note_on_c,9,38,127,
2,2920,Note_on_c,9,39,127,
2,2920,Note_on_c,9,41,127,
2,2920,Note_on_c,9,42,127,
2,2920,Note_on_c,9,43,127,
2,2920,Note_on_c,9,45,127,
2,2920,Note_on_c,9,48,127,
2,2920,Note_on_c,9,51,127,
2,2920,Note_on_c,9,53,127,
2,2920,Note_on_c,9,80,127,
2,2920,Note_on_c,9,81,127,
2,2920,Note_on_c,9,82,127,
2,2921,Note_off_c,9,36,0,
2,2922,Note_on_c,9,36,127,
2,2922,Note_on_c,9,37,127,
2,2922,Note_on_c,9,38,127,
2,2922,Note_on_c,9,39,127,
2,2922,Note_on_c,9,41,127,
2,2922,Note_on_c,9,42,127,
2,2922,Note_on_c,9,43,127,
2,2922,Note_on_c,9,45,127,
2,2922,Note_on_c,9,48,127,
2,2922,Note_on_c,9,51,127,
2,2922,Note_on_c,9,53,127,
2,2922,Note_on_c,9,80,127,
2,2922,Note_on_c,9,81,127,
2,2922,Note_on_c,9,82,127,
2,2923,Note_off_c,9,36,0,
2,2924,Note_on_c,9,36,127,
2,2924,Note_on_c,9,37,127,
2,2924,Note_on_c,9,38,127,
2,2924,Note_on_c,9,39,127,
2,2924,Note_on_c,9,41,127,
2,2924,Note_on_c,9,42,127,
2,2924,Note_on_c,9,43,127,
2,2924,Note_on_c,9,45,127,
2,2924,Note_on_c,9,48,127,
2,2924,Note_on_c,9,51,127,
2,2924,Note_on_c,9,53,127,
2,2924,Note_on_c,9,80,127,
2,2924,Note_on_c,9,81,127,
2,2924,Note_on_c,9,82,127,
2,2925,Note_off_c,9,36,0,
2,2926,Note_on_c,9,36,127,
2,2926,Note_on_c,9,37,127,
2,2926,Note_on_c,9,38,127,
2,2926,Note_on_c,9,39,127,
2,2926,Note_on_c,9,41,127,
2,2926,Note_on_c,9,42,127,
2,2926,Note_on_c,9,43,127,
2,2926,Note_on_c,9,45,127,
2,2926,Note_on_c,9,48,127,
2,2926,Note_on_c,9,51,127,
2,2926,Note_on_c,9,53,127,
2,2926,Note_on_c,9,80,127,
2,2926,Note_on_c,9,81,127,
2,2926,Note_on_c,9,82,127,
2,2927,Note_off_c,9,36,0,
2,2928,Note_on_c,9,36,127,
2,2928,Note_on_c,9,37,127,
2,2928,Note_on_c,9,38,127,
2,2928,Note_on_c,9,39,127,
2,2928,Note_on_c,9,41,127,
2,2928,Note_on_c,9,42,127,
2,2928,Note_on_c,9,43,127,
2,2928,Note_on_c,9,45,127,
2,2928,Note_on_c,9,48,127,
2,2928,Note_on_c,9,51,127,
2,2928,Note_on_c,9,53,127,
2,2928,Note_on_c,9,80,127,
2,2928,Note_on_c,9,81,127,
2,2928,Note_on_c,9,82,127,
2,2929,Note_off_c,9,36,0,
2,2930,Note_on_c,9,36,127,
2,2930,Note_on_c,9,37,127,
2,2930,Note_on_c,9,38,127,
2,2930,Note_on_c,9,39,127,
2,2930,Note_on_c,9,41,127,
2,2930,Note_on_c,9,42,127,
2,2930,Note_on_c,9,43,127,
2,2930,Note_on_c,9,45,127,
2,2930,Note_on_c,9,48,127,
2,2930,Note_on_c,9,51,127,
2,2930,Note_on_c,9,53,127,
2,2930,Note_on_c,9,80,127,
2,2930,Note_on_c,9,81,127,
2,2930,Note_on_c,9,82,127,
2,2931,Note_off_c,9,36,0,
2,2932,Note_on_c,9,36,127,
2,2932,Note_on_c,9,37,127,
2,2932,Note_on_c,9,38,127,
2,2932,Note_on_c,9,39,127,
2,2932,Note_on_c,9,41,127,
2,2932,Note_on_c,9,42,127,
2,2932,Note_on_c,9,43,127,
2,2932,Note_on_c,9,45,127,
2,2932,Note_on_c,9,48,127,
2,2932,Note_on_c,9,51,127,
2,2932,Note_on_c,9,53,127,
2,2932,Note_on_c,9,80,127,
2,2932,Note_on_c,9,81,127,
2,2932,Note_on_c,9,82,127,
2,2933,Note_off_c,9,36,0,
2,2934,Note_on_c,9,36,127,
2,2934,Note_on_c,9,37,127,
2,2934,Note_on_c,9,38,127,
2,2934,Note_on_c,9,39,127,
2,2934,Note_on_c,9,41,127,
2,2934,Note_on_c,9,42,127,
2,2934,Note_on_c,9,43,127,
2,2934,Note_on_c,9,45,127,
2,2934,Note_on_c,9,48,127,
2,2934,Note_on_c,9,51,127,
2,2934,Note_on_c,9,53,127,
2,2934,Note_on_c,9,80,127,
2,2934,Note_on_c,9,81,127,
2,2934,Note_on_c,9,82,127,
2,2935,Note_off_c,9,36,0,
2,2936,Note_on_c,9,36,127,
2,2936,Note_on_c,9,37,127,
2,2936,Note_on_c,9,38,127,
2,2936,Note_on_c,9,39,127,
2,2936,Note_on_c,9,41,127,
2,2936,Note_on_c,9,42,127,
2,2936,Note_on_c,9,43,127,
2,2936,Note_on_c,9,45,127,
2,2936,Note_on_c,9,48,127,
2,2936,Note_on_c,9,51,127,
2,2936,Note_on_c,9,53,127,
2,2936,Note_on_c,9,80,127,
2,2936,Note_on_c,9,81,127,
2,2936,Note_on_c,9,82,127,
2,2937,Note_off_c,9,36,0,
2,2938,Note_on_c,9,36,127,
2,2938,Note_on_c,9,37,127,
2,2938,Note_on_c,9,38,127,
2,2938,Note_on_c,9,39,127,
2,2938,Note_on_c,9,41,127,
2,2938,Note_on_c,9,42,127,
2,2938,Note_on_c,9,43,127,
2,2938,Note_on_c,9,45,127,
2,2938,Note_on_c,9,48,127,
2,2938,Note_on_c,9,51,127,
2,2938,Note_on_c,9,53,127,
2,2938,Note_on_c,9,80,127,
2,2938,Note_on_c,9,81,127,
2,2938,Note_on_c,9,82,127,
2,2939,Note_off_c,9,36,0,
2,2940,Note_on_c,9,36,127,
2,2940,Note_on_c,9,37,127,
2,2940,Note_on_c,9,38,127,
2,2940,Note_on_c,9,39,127,
2,2940,Note_on_c,9,41,127,
2,2940,Note_on_c,9,42,127,
2,2940,Note_on_c,9,43,127,
2,2940,Note_on_c,9,45,127,
2,2940,Note_on_c,9,48,127,
2,2940,Note_on_c,9,51,127,
2,2940,Note_on_c,9,53,127,
2,2940,Note_on_c,9,80,127,
2,2940,Note_on_c,9,81,127,
2,2940,Note_on_c,9,82,127,
2,2941,Note_off_c,9,36,0,
2,2942,Note_on_c,9,36,127,
2,2942,Note_on_c,9,37,127,
2,2942,Note_on_c,9,38,127,
2,2942,Note_on_c,9,39,127,
2,2942,Note_on_c,9,41,127,
2,2942,Note_on_c,9,42,127,
2,2942,Note_on_c,9,43,127,
2,2942,Note_on_c,9,45,127,
2,2942,Note_on_c,9,48,127,
2,2942,Note_on_c,9,51,127,
2,2942,Note_on_c,9,53,127,
2,2942,Note_on_c,9,80,127,
2,2942,Note_on_c,9,81,127,
2,2942,Note_on_c,9,82,127,
2,2943,Note_off_c,9,36,0,
2,2944,Note_on_c,9,36,127,
2,2944,Note_on_c,9,37,127,
2,2944,Note_on_c,9,38,127,
2,2944,Note_on_c,9,39,127,
2,2944,Note_on_c,9,41,127,
2,2944,Note_on_c,9,42,127,
2,2944,Note_on_c,9,43,127,
2,2944,Note_on_c,9,45,127,
2,2944,Note_on_c,9,48,127,
2,2944,Note_on_c,9,51,127,
2,2944,Note_on_c,9,53,127,
2,2944,Note_on_c,9,80,127,
2,2944,Note_on_c,9,81,127,
2,2944,Note_on_c,9,82,127,
2,2945,Note_off_c,9,36,0,
2,2946,Note_on_c,9,36,127,
2,2946,Note_on_c,9,37,127,
2,2946,Note_on_c,9,38,127,
2,2946,Note_on_c,9,39,127,
2,2946,Note_on_c,9,41,127,
2,2946,Note_on_c,9,42,127,
2,2946,Note_on_c,9,43,127,
2,2946,Note_on_c,9,45,127,
2,2946,Note_on_c,9,48,127,
2,2946,Note_on_c,9,51,127,
2,2946,Note_on_c,9,53,127,
2,2946,Note_on_c,9,80,127,
2,2946,Note_on_c,9,81,127,
2,2946,Note_on_c,9,82,127,
2,2947,Note_off_c,9,36,0,
2,2948,Note_on_c,9,36,127,
2,2948,Note_on_c,9,37,127,
2,2948,Note_on_c,9,38,127,
2,2948,Note_on_c,9,39,127,
2,2948,Note_on_c,9,41,127,
2,2948,Note_on_c,9,42,127,
2,2948,Note_on_c,9,43,127,
2,2948,Note_on_c,9,45,127,
2,2948,Note_on_c,9,48,127,
2,2948,Note_on_c,9,51,127,
2,2948,Note_on_c,9,53,127,
2,2948,Note_on_c,9,80,127,
2,2948,Note_on_c,9,81,127,
2,2948,Note_on_c,9,82,127,
2,2949,Note_off_c,9,36,0,
2,2950,Note_on_c,9,36,127,
2,2950,Note_on_c,9,37,127,
2,2950,Note_on_c,9,38,127,
2,2950,Note_on_c,9,39,127,
2,2950,Note_on_c,9,41,127,
2,2950,Note_on_c,9,42,127,
2,2950,Note_on_c,9,43,127,
2,2950,Note_on_c,9,45,127,
2,2950,Note_on_c,9,48,127,
2,2950,Note_on_c,9,51,127,
2,2950,Note_on_c,9,53,127,
2,2950,Note_on_c,9,80,127,
2,2950,Note_on_c,9,81,127,
2,2950,Note_on_c,9,82,127,
2,2951,Note_off_c,9,36,0,
2,2952,Note_on_c,9,36,127,
2,2952,Note_on_c,9,37,127,
2,2952,Note_on_c,9,38,127,
2,2952,Note_on_c,9,39,127,
2,2952,Note_on_c,9,41,127,
2,2952,Note_on_c,9,42,127,
2,2952,Note_on_c,9,43,127,
2,2952,Note_on_c,9,45,127,
2,2952,Note_on_c,9,48,127,
2,2952,Note_on_c,9,51,127,
2,2952,Note_on_c,9,53,127,
2,2952,Note_on_c,9,80,127,
2,2952,Note_on_c,9,81,127,
2,2952,Note_on_c,9,82,127,
2,2953,Note_off_c,9,36,0,
2,2954,Note_on_c,9,36,127,
2,2954,Note_on_c,9,37,127,
2,2954,Note_on_c,9,38,127,
2,2954,Note_on_c,9,39,127,
2,2954,Note_on_c,9,41,127,
2,2954,Note_on_c,9,42,127,
2,2954,Note_on_c,9,43,127,
2,2954,Note_on_c,9,45,127,
2,2954,Note_on_c,9,48,127,
2,2954,Note_on_c,9,51,127,
2,2954,Note_on_c,9,53,127,
2,2954,Note_on_c,9,80,127,
2,2954,Note_on_c,9,81,127,
2,2954,Note_on_c,9,82,127,
2,2955,Note_off_c,9,36,0,
2,2956,Note_on_c,9,36,127,
2,2956,Note_on_c,9,37,127,
2,2956,Note_on_c,9,38,127,
2,2956,Note_on_c,9,39,127,
2,2956,Note_on_c,9,41,127,
2,2956,Note_on_c,9,42,127,
2,2956,Note_on_c,9,43,127,
2,2956,Note_on_c,9,45,127,
2,2956,Note_on_c,9,48,127,
2,2956,Note_on_c,9,51,127,
2,2956,Note_on_c,9,53,127,
2,2956,Note_on_c,9,80,127,
2,2956,Note_on_c,9,81,127,
2,2956,Note_on_c,9,82,127,
2,2957,Note_off_c,9,36,0,
2,2958,Note_on_c,9,36,127,
2,2958,Note_on_c,9,37,127,
2,2958,Note_on_c,9,38,127,
2,2958,Note_on_c,9,39,127,
2,2958,Note_on_c,9,41,127,
2,2958,Note_on_c,9,42,127,
2,2958,Note_on_c,9,43,127,
2,2958,Note_on_c,9,45,127,
2,2958,Note_on_c,9,48,127,
2,2958,Note_on_c,9,51,127,
2,2958,Note_on_c,9,53,127,
2,2958,Note_on_c,9,80,127,
2,2958,Note_on_c,9,81,127,
2,2958,Note_on_c,9,82,127,
2,2959,Note_off_c,9,36,0,
2,2960,Note_on_c,9,36,127,
2,2960,Note_on_c,9,37,127,
2,2960,Note_on_c,9,38,127,
2,2960,Note_on_c,9,39,127,
2,2960,Note_on_c,9,41,127,
2,2960,Note_on_c,9,42,127,
2,2960,Note_on_c,9,43,127,
2,2960,Note_on_c,9,45,127,
2,2960,Note_on_c,9,48,127,
2,2960,Note_on_c,9,51,127,
2,2960,Note_on_c,9,53,127,
2,2960,Note_on_c,9,80,127,
2,2960,Note_on_c,9,81,127,
2,2960,Note_on_c,9,82,127,
2,2961,Note_off_c,9,36,0,
2,2962,Note_on_c,9,36,127,
2,2962,Note_on_c,9,37,127,
2,2962,Note_on_c,9,38,127,
2,2962,Note_on_c,9,39,127,
2,2962,Note_on_c,9,41,127,
2,2962,Note_on_c,9,42,127,
2,2962,Note_on_c,9,43,127,
2,2962,Note_on_c,9,45,127,
2,2962,Note_on_c,9,48,127,
2,2962,Note_on_c,9,51,127,
2,2962,Note_on_c,9,53,127,
2,2962,Note_on_c,9,80,127,
2,2962,Note_on_c,9,81,127,
2,2962,Note_on_c,9,82,127,
2,2963,Note_off_c,9,36,0,
2,2964,Note_on_c,9,36,127,
2,2964,Note_on_c,9,37,127,
2,2964,Note_on_c,9,38,127,
2,2964,Note_on_c,9,39,127,
2,2964,Note_on_c,9,41,127,
2,2964,Note_on_c,9,42,127,
2,2964,Note_on_c,9,43,127,
2,2964,Note_on_c,9,45,127,
2,2964,Note_on_c,9,48,127,
2,2964,Note_on_c,9,51,127,
2,2964,Note_on_c,9,53,127,
2,2964,Note_on_c,9,80,127,
2,2964,Note_on_c,9,81,127,
2,2964,Note_on_c,9,82,127,
2,2965,Note_off_c,9,36,0,
2,2966,Note_on_c,9,36,127,
2,2966,Note_on_c,9,37,127,
2,2966,Note_on_c,9,38,127,
2,2966,Note_on_c,9,39,127,
2,2966,Note_on_c,9,41,127,
2,2966,Note_on_c,9,42,127,
2,2966,Note_on_c,9,43,127,
2,2966,Note_on_c,9,45,127,
2,2966,Note_on_c,9,48,127,
2,2966,Note_on_c,9,51,127,
2,2966,Note_on_c,9,53,127,
2,2966,Note_on_c,9,80,127,
2,2966,Note_on_c,9,81,127,
2,2966,Note_on_c,9,82,127,
2,2967,Note_off_c,9,36,0,
2,2968,Note_on_c,9,36,127,
2,2968,Note_on_c,9,37,127,
2,2968,Note_on_c,9,38,127,
2,2968,Note_on_c,9,39,127,
2,2968,Note_on_c,9,41,127,
2,2968,Note_on_c,9,42,127,
2,2968,Note_on_c,9,43,127,
2,2968,Note_on_c,9,45,127,
2,2968,Note_on_c,9,48,127,
2,2968,Note_on_c,9,51,127,
2,2968,Note_on_c,9,53,127,
2,2968,Note_on_c,9,80,127,
2,2968,Note_on_c,9,81,127,
2,2968,Note_on_c,9,82,127,
2,2969,Note_off_c,9,36,0,
2,2970,Note_on_c,9,36,127,
2,2970,Note_on_c,9,37,127,
2,2970,Note_on_c,9,38,127,
2,2970,Note_on_c,9,39,127,
2,2970,Note_on_c,9,41,127,
2,2970,Note_on_c,9,42,127,
2,2970,Note_on_c,9,43,127,
2,2970,Note_on_c,9,45,127,
2,2970,Note_on_c,9,48,127,
2,2970,Note_on_c,9,51,127,
2,2970,Note_on_c,9,53,127,
2,2970,Note_on_c,9,80,127,
2,2970,Note_on_c,9,81,127,
2,2970,Note_on_c,9,82,127,
2,2971,Note_off_c,9,36,0,
2,2972,Note_on_c,9,36,127,
2,2972,Note_on_c,9,37,127,
2,2972,Note_on_c,9,38,127,
2,2972,Note_on_c,9,39,127,
2,2972,Note_on_c,9,41,127,
2,2972,Note_on_c,9,42,127,
2,2972,Note_on_c,9,43,127,
2,2972,Note_on_c,9,45,127,
2,2972,Note_on_c,9,48,127,
2,2972,Note_on_c,9,51,127,
2,2972,Note_on_c,9,53,127,
2,2972,Note_on_c,9,80,127,
2,2972,Note_on_c,9,81,127,
2,2972,Note_on_c,9,82,127,
2,2973,Note_off_c,9,36,0,
2,2974,Note_on_c,9,36,127,
2,2974,Note_on_c,9,37,127,
2,2974,Note_on_c,9,38,127,
2,2974,Note_on_c,9,39,127,
2,2974,Note_on_c,9,41,127,
2,2974,Note_on_c,9,42,127,
2,2974,Note_on_c,9,43,127,
2,2974,Note_on_c,9,45,127,
2,2974,Note_on_c,9,48,127,
2,2974,Note_on_c,9,51,127,
2,2974,Note_on_c,9,53,127,
2,2974,Note_on_c,9,80,127,
2,2974,Note_on_c,9,81,127,
2,2974,Note_on_c,9,82,127,
2,2975,Note_off_c,9,36,0,
2,2976,Note_on_c,9,36,127,
2,2976,Note_on_c,9,37,127,
2,2976,Note_on_c,9,38,127,
2,2976,Note_on_c,9,39,127,
2,2976,Note_on_c,9,41,127,
2,2976,Note_on_c,9,42,127,
2,2976,Note_on_c,9,43,127,
2,2976,Note_on_c,9,45,127,
2,2976,Note_on_c,9,48,127,
2,2976,Note_on_c,9,51,127,
2,2976,Note_on_c,9,53,127,
2,2976,Note_on_c,9,80,127,
2,2976,Note_on_c,9,81,127,
2,2976,Note_on_c,9,82,127,
2,2977,Note_off_c,9,36,0,
2,2978,Note_on_c,9,36,127,
2,2978,Note_on_c,9,37,127,
2,2978,Note_on_c,9,38,127,
2,2978,Note_on_c,9,39,127,
2,2978,Note_on_c,9,41,127,
2,2978,Note_on_c,9,42,127,
2,2978,Note_on_c,9,43,127,
2,2978,Note_on_c,9,45,127,
2,2978,Note_on_c,9,48,127,
2,2978,Note_on_c,9,51,127,
2,2978,Note_on_c,9,53,127,
2,2978,Note_on_c,9,80,127,
2,2978,Note_on_c,9,81,127,
2,2978,Note_on_c,9,82,127,
2,2979,Note_off_c,9,36,0,
2,2980,Note_on_c,9,36,127,
2,2980,Note_on_c,9,37,127,
2,2980,Note_on_c,9,38,127,
2,2980,Note_on_c,9,39,127,
2,2980,Note_on_c,9,41,127,
2,2980,Note_on_c,9,42,127,
2,2980,Note_on_c,9,43,127,
2,2980,Note_on_c,9,45,127,
2,2980,Note_on_c,9,48,127,
2,2980,Note_on_c,9,51,127,
2,2980,Note_on_c,9,53,127,
2,2980,Note_on_c,9,80,127,
2,2980,Note_on_c,9,81,127,
2,2980,Note_on_c,9,82,127,
2,2981,Note_off_c,9,36,0,
2,2982,Note_on_c,9,36,127,
2,2982,Note_on_c,9,37,127,
2,2982,Note_on_c,9,38,127,
2,2982,Note_on_c,9,39,127,
2,2982,Note_on_c,9,41,127,
2,2982,Note_on_c,9,42,127,
2,2982,Note_on_c,9,43,127,
2,2982,Note_on_c,9,45,127,
2,2982,Note_on_c,9,48,127,
2,2982,Note_on_c,9,51,127,
2,2982,Note_on_c,9,53,127,
2,2982,Note_on_c,9,80,127,
2,2982,Note_on_c,9,81,127,
2,2982,Note_on_c,9,82,127,
2,2983,Note_off_c,9,36,0,
2,2984,Note_on_c,9,36,127,
2,2984,Note_on_c,9,37,127,
2,2984,Note_on_c,9,38,127,
2,2984,Note_on_c,9,39,127,
2,2984,Note_on_c,9,41,127,
2,2984,Note_on_c,9,42,127,
2,2984,Note_on_c,9,43,127,
2,2984,Note_on_c,9,45,127,
2,2984,Note_on_c,9,48,127,
2,2984,Note_on_c,9,51,127,
2,2984,Note_on_c,9,53,127,
2,2984,Note_on_c,9,80,127,
2,2984,Note_on_c,9,81,127,
2,2984,Note_on_c,9,82,127,
2,2985,Note_off_c,9,36,0,
2,2986,Note_on_c,9,36,127,
2,2986,Note_on_c,9,37,127,
2,2986,Note_on_c,9,38,127,
2,2986,Note_on_c,9,39,127,
2,2986,Note_on_c,9,41,127,
2,2986,Note_on_c,9,42,127,
2,2986,Note_on_c,9,43,127,
2,2986,Note_on_c,9,45,127,
2,2986,Note_on_c,9,48,127,
2,2986,Note_on_c,9,51,127,
2,2986,Note_on_c,9,53,127,
2,2986,Note_on_c,9,80,127,
2,2986,Note_on_c,9,81,127,
2,2986,Note_on_c,9,82,127,
2,2987,Note_off_c,9,36,0,
2,2988,Note_on_c,9,36,127,
2,2988,Note_on_c,9,37,127,
2,2988,Note_on_c,9,38,127,
2,2988,Note_on_c,9,39,127,
2,2988,Note_on_c,9,41,127,
2,2988,Note_on_c,9,42,127,
2,2988,Note_on_c,9,43,127,
2,2988,Note_on_c,9,45,127,
2,2988,Note_on_c,9,48,127,
2,2988,Note_on_c,9,51,127,
2,2988,Note_on_c,9,53,127,
2,2988,Note_on_c,9,80,127,
2,2988,Note_on_c,9,81,127,
2,2988,Note_on_c,9,82,127,
2,2989,Note_off_c,9,36,0,
2,2990,Note_on_c,9,36,127,
2,2990,Note_on_c,9,37,127,
2,2990,Note_on_c,9,38,127,
2,2990,Note_on_c,9,39,127,
2,2990,Note_on_c,9,41,127,
2,2990,Note_on_c,9,42,127,
2,2990,Note_on_c,9,43,127,
2,2990,Note_on_c,9,45,127,
2,2990,Note_on_c,9,48,127,
2,2990,Note_on_c,9,51,127,
2,2990,Note_on_c,9,53,127,
2,2990,Note_on_c,9,80,127,
2,2990,Note_on_c,9,81,127,
2,2990,Note_on_c,9,82,127,
2,2991,Note_off_c,9,36,0,
2,2992,Note_on_c,9,36,127,
2,2992,Note_on_c,9,37,127,
2,2992,Note_on_c,9,38,127,
2,2992,Note_on_c,9,39,127,
2,2992,Note_on_c,9,41,127,
2,2992,Note_on_c,9,42,127,
2,2992,Note_on_c,9,43,127,
2,2992,Note_on_c,9,45,127,
2,2992,Note_on_c,9,48,127,
2,2992,Note_on_c,9,51,127,
2,2992,Note_on_c,9,53,127,
2,2992,Note_on_c,9,80,127,
2,2992,Note_on_c,9,81,127,
2,2992,Note_on_c,9,82,127,
2,2993,Note_off_c,9,36,0,
2,2994,Note_on_c,9,36,127,
2,2994,Note_on_c,9,37,127,
2,2994,Note_on_c,9,38,127,
2,2994,Note_on_c,9,39,127,
2,2994,Note_on_c,9,41,127,
2,2994,Note_on_c,9,42,127,
2,2994,Note_on_c,9,43,127,
2,2994,Note_on_c,9,45,127,
2,2994,Note_on_c,9,48,127,
2,2994,Note_on_c,9,51,127,
2,2994,Note_on_c,9,53,127,
2,2994,Note_on_c,9,80,127,
2,2994,Note_on_c,9,81,127,
2,2994,Note_on_c,9,82,127,
2,2995,Note_off_c,9,36,0,
2,2996,Note_on_c,9,36,127,
2,2996,Note_on_c,9,37,127,
2,2996,Note_on_c,9,38,127,
2,2996,Note_on_c,9,39,127,
2,2996,Note_on_c,9,41,127,
2,2996,Note_on_c,9,42,127,
2,2996,Note_on_c,9,43,127,
2,2996,Note_on_c,9,45,127,
2,2996,Note_on_c,9,48,127,
2,2996,Note_on_c,9,51,127,
2,2996,Note_on_c,9,53,127,
2,2996,Note_on_c,9,80,127,
2,2996,Note_on_c,9,81,127,
2,2996,Note_on_c,9,82,127,
2,2997,Note_off_c,9,36,0,
2,2998,Note_on_c,9,36,127,
2,2998,Note_on_c,9,37,127,
2,2998,Note_on_c,9,38,127,
2,2998,Note_on_c,9,39,127,
2,2998,Note_on_c,9,41,127,
2,2998,Note_on_c,9,42,127,
2,2998,Note_on_c,9,43,127,
2,2998,Note_on_c,9,45,127,
2,2998,Note_on_c,9,48,127,
2,2998,Note_on_c,9,51,127,
2,2998,Note_on_c,9,53,127,
2,2998,Note_on_c,9,80,127,
2,2998,Note_on_c,9,81,127,
2,2998,Note_on_c,9,82,127,
2,2999,Note_off_c,9,36,0,
2,3000,Note_on_c,9,36,127,
2,3000,Note_on_c,9,37,127,
2,3000,Note_on_c,9,38,127,
2,3000,Note_on_c,9,39,127,
2,3000,Note_on_c,9,41,127,
2,3000,Note_on_c,9,42,127,
2,3000,Note_on_c,9,43,127,
2,3000,Note_on_c,9,45,127,
2,3000,Note_on_c,9,48,127,
2,3000,Note_on_c,9,51,127,
2,3000,Note_on_c,9,53,127,
2,3000,Note_on_c,9,80,127,
2,3000,Note_on_c,9,81,127,
2,3000,Note_on_c,9,82,127,
2,3001,Note_off_c,9,36,0,
2,3002,Note_on_c,9,36,127,
2,3002,Note_on_c,9,37,127,
2,3002,Note_on_c,9,38,127,
2,3002,Note_on_c,9,39,127,
2,3002,Note_on_c,9,41,127,
2,3002,Note_on_c,9,42,127,
2,3002,Note_on_c,9,43,127,
2,3002,Note_on_c,9,45,127,
2,3002,Note_on_c,9,48,127,
2,3002,Note_on_c,9,51,127,
2,3002,Note_on_c,9,53,127,
2,3002,Note_on_c,9,80,127,
2,3002,Note_on_c,9,81,127,
2,3002,Note_on_c,9,82,127,
2,3003,Note_off_c,9,36,0,
2,3004,Note_on_c,9,36,127,
2,3004,Note_on_c,9,37,127,
2,3004,Note_on_c,9,38,127,
2,3004,Note_on_c,9,39,127,
2,3004,Note_on_c,9,41,127,
2,3004,Note_on_c,9,42,127,
2,3004,Note_on_c,9,43,127,
2,3004,Note_on_c,9,45,127,
2,3004,Note_on_c,9,48,127,
2,3004,Note_on_c,9,51,127,
2,3004,Note_on_c,9,53,127,
2,3004,Note_on_c,9,80,127,
2,3004,Note_on_c,9,81,127,
2,3004,Note_on_c,9,82,127,
2,3005,Note_off_c,9,36,0,
2,3006,Note_on_c,9,36,127,
2,3006,Note_on_c,9,37,127,
2,3006,Note_on_c,9,38,127,
2,3006,Note_on_c,9,39,127,
2,3006,Note_on_c,9,41,127,
2,3006,Note_on_c,9,42,127,
2,3006,Note_on_c,9,43,127,
2,3006,Note_on_c,9,45,127,
2,3006,Note_on_c,9,48,127,
2,3006,Note_on_c,9,51,127,
2,3006,Note_on_c,9,53,127,
2,3006,Note_on_c,9,80,127,
2,3006,Note_on_c,9,81,127,
2,3006,Note_on_c,9,82,127,
2,3007,Note_off_c,9,36,0,
2,3008,Note_on_c,9,36,127,
2,3008,Note_on_c,9,37,127,
2,3008,Note_on_c,9,38,127,
2,3008,Note_on_c,9,39,127,
2,3008,Note_on_c,9,41,127,
2,3008,Note_on_c,9,42,127,
2,3008,Note_on_c,9,43,127,
2,3008,Note_on_c,9,45,127,
2,3008,Note_on_c,9,48,127,
2,3008,Note_on_c,9,51,127,
2,3008,Note_on_c,9,53,127,
2,3008,Note_on_c,9,80,127,
2,3008,Note_on_c,9,81,127,
2,3008,Note_on_c,9,82,127,
2,3009,Note_off_c,9,36,0,
2,3010,Note_on_c,9,36,127,
2,3010,Note_on_c,9,37,127,
2,3010,Note_on_c,9,38,127,
2,3010,Note_on_c,9,39,127,
2,3010,Note_on_c,9,41,127,
2,3010,Note_on_c,9,42,127,
2,3010,Note_on_c,9,43,127,
2,3010,Note_on_c,9,45,127,
2,3010,Note_on_c,9,48,127,
2,3010,Note_on_c,9,51,127,
2,3010,Note_on_c,9,53,127,
2,3010,Note_on_c,9,80,127,
2,3010,Note_on_c,9,81,127,
2,3010,Note_on_c,9,82,127,
2,3011,Note_off_c,9,36,0,
2,3012,Note_on_c,9,36,127,
2,3012,Note_on_c,9,37,127,
2,3012,Note_on_c,9,38,127,
2,3012,Note_on_c,9,39,127,
2,3012,Note_on_c,9,41,127,
2,3012,Note_on_c,9,42,127,
2,3012,Note_on_c,9,43,127,
2,3012,Note_on_c,9,45,127,
2,3012,Note_on_c,9,48,127,
2,3012,Note_on_c,9,51,127,
2,3012,Note_on_c,9,53,127,
2,3012,Note_on_c,9,80,127,
2,3012,Note_on_c,9,81,127,
2,3012,Note_on_c,9,82,127,
2,3013,Note_off_c,9,36,0,
2,3014,Note_on_c,9,36,127,
2,3014,Note_on_c,9,37,127,
2,3014,Note_on_c,9,38,127,
2,3014,Note_on_c,9,39,127,
2,3014,Note_on_c,9,41,127,
2,3014,Note_on_c,9,42,127,
2,3014,Note_on_c,9,43,127,
2,3014,Note_on_c,9,45,127,
2,3014,Note_on_c,9,48,127,
2,3014,Note_on_c,9,51,127,
2,3014,Note_on_c,9,53,127,
2,3014,Note_on_c,9,80,127,
2,3014,Note_on_c,9,81,127,
2,3014,Note_on_c,9,82,127,
2,3015,Note_off_c,9,36,0,
2,3016,Note_on_c,9,36,127,
2,3016,Note_on_c,9,37,127,
2,3016,Note_on_c,9,38,127,
2,3016,Note_on_c,9,39,127,
2,3016,Note_on_c,9,41,127,
2,3016,Note_on_c,9,42,127,
2,3016,Note_on_c,9,43,127,
2,3016,Note_on_c,9,45,127,
2,3016,Note_on_c,9,48,127,
2,3016,Note_on_c,9,51,127,
2,3016,Note_on_c,9,53,127,
2,3016,Note_on_c,9,80,127,
2,3016,Note_on_c,9,81,127,
2,3016,Note_on_c,9,82,127,
2,3017,Note_off_c,9,36,0,
2,3018,Note_on_c,9,36,127,
2,3018,Note_on_c,9,37,127,
2,3018,Note_on_c,9,38,127,
2,3018,Note_on_c,9,39,127,
2,3018,Note_on_c,9,41,127,
2,3018,Note_on_c,9,42,127,
2,3018,Note_on_c,9,43,127,
2,3018,Note_on_c,9,45,127,
2,3018,Note_on_c,9,48,127,
2,3018,Note_on_c,9,51,127,
2,3018,Note_on_c,9,53,127,
2,3018,Note_on_c,9,80,127,
2,3018,Note_on_c,9,81,127,
2,3018,Note_on_c,9,82,127,
2,3019,Note_off_c,9,36,0,
2,3020,Note_on_c,9,36,127,
2,3020,Note_on_c,9,37,127,
2,3020,Note_on_c,9,38,127,
2,3020,Note_on_c,9,39,127,
2,3020,Note_on_c,9,41,127,
2,3020,Note_on_c,9,42,127,
2,3020,Note_on_c,9,43,127,
2,3020,Note_on_c,9,45,127,
2,3020,Note_on_c,9,48,127,
2,3020,Note_on_c,9,51,127,
2,3020,Note_on_c,9,53,127,
2,3020,Note_on_c,9,80,127,
2,3020,Note_on_c,9,81,127,
2,3020,Note_on_c,9,82,127,
2,3021,Note_off_c,9,36,0,
2,3022,Note_on_c,9,36,127,
2,3022,Note_on_c,9,37,127,
2,3022,Note_on_c,9,38,127,
2,3022,Note_on_c,9,39,127,
2,3022,Note_on_c,9,41,127,
2,3022,Note_on_c,9,42,127,
2,3022,Note_on_c,9,43,127,
2,3022,Note_on_c,9,45,127,
2,3022,Note_on_c,9,48,127,
2,3022,Note_on_c,9,51,127,
2,3022,Note_on_c,9,53,127,
2,3022,Note_on_c,9,80,127,
2,3022,Note_on_c,9,81,127,
2,3022,Note_on_c,9,82,127,
2,3023,Note_off_c,9,36,0,
2,3024,Note_on_c,9,36,127,
2,3024,Note_on_c,9,37,127,
2,3024,Note_on_c,9,38,127,
2,3024,Note_on_c,9,39,127,
2,3024,Note_on_c,9,41,127,
2,3024,Note_on_c,9,42,127,
2,3024,Note_on_c,9,43,127,
2,3024,Note_on_c,9,45,127,
2,3024,Note_on_c,9,48,127,
2,3024,Note_on_c,9,51,127,
2,3024,Note_on_c,9,53,127,
2,3024,Note_on_c,9,80,127,
2,3024,Note_on_c,9,81,127,
2,3024,Note_on_c,9,82,127,
2,3025,Note_off_c,9,36,0,
2,3026,Note_on_c,9,36,127,
2,3026,Note_on_c,9,37,127,
2,3026,Note_on_c,9,38,127,
2,3026,Note_on_c,9,39,127,
2,3026,Note_on_c,9,41,127,
2,3026,Note_on_c,9,42,127,
2,3026,Note_on_c,9,43,127,
2,3026,Note_on_c,9,45,127,
2,3026,Note_on_c,9,48,127,
2,3026,Note_on_c,9,51,127,
2,3026,Note_on_c,9,53,127,
2,3026,Note_on_c,9,80,127,
2,3026,Note_on_c,9,81,127,
2,3026,Note_on_c,9,82,127,
2,3027,Note_off_c,9,36,0,
2,3028,Note_on_c,9,36,127,
2,3028,Note_on_c,9,37,127,
2,3028,Note_on_c,9,38,127,
2,3028,Note_on_c,9,39,127,
2,3028,Note_on_c,9,41,127,
2,3028,Note_on_c,9,42,127,
2,3028,Note_on_c,9,43,127,
2,3028,Note_on_c,9,45,127,
2,3028,Note_on_c,9,48,127,
2,3028,Note_on_c,9,51,127,
2,3028,Note_on_c,9,53,127,
2,3028,Note_on_c,9,80,127,
2,3028,Note_on_c,9,81,127,
2,3028,Note_on_c,9,82,127,
2,3029,Note_off_c,9,36,0,
2,3030,Note_on_c,9,36,127,
2,3030,Note_on_c,9,37,127,
2,3030,Note_on_c,9,38,127,
2,3030,Note_on_c,9,39,127,
2,3030,Note_on_c,9,41,127,
2,3030,Note_on_c,9,42,127,
2,3030,Note_on_c,9,43,127,
2,3030,Note_on_c,9,45,127,
2,3030,Note_on_c,9,48,127,
2,3030,Note_on_c,9,51,127,
2,3030,Note_on_c,9,53,127,
2,3030,Note_on_c,9,80,127,
2,3030,Note_on_c,9,81,127,
2,3030,Note_on_c,9,82,127,
2,3031,Note_off_c,9,36,0,
2,3032,Note_on_c,9,36,127,
2,3032,Note_on_c,9,37,127,
2,3032,Note_on_c,9,38,127,
2,3032,Note_on_c,9,39,127,
2,3032,Note_on_c,9,41,127,
2,3032,Note_on_c,9,42,127,
2,3032,Note_on_c,9,43,127,
2,3032,Note_on_c,9,45,127,
2,3032,Note_on_c,9,48,127,
2,3032,Note_on_c,9,51,127,
2,3032,Note_on_c,9,53,127,
2,3032,Note_on_c,9,80,127,
2,3032,Note_on_c,9,81,127,
2,3032,Note_on_c,9,82,127,
2,3033,Note_off_c,9,36,0,
2,3034,Note_on_c,9,36,127,
2,3034,Note_on_c,9,37,127,
2,3034,Note_on_c,9,38,127,
2,3034,Note_on_c,9,39,127,
2,3034,Note_on_c,9,41,127,
2,3034,Note_on_c,9,42,127,
2,3034,Note_on_c,9,43,127,
2,3034,Note_on_c,9,45,127,
2,3034,Note_on_c,9,48,127,
2,3034,Note_on_c,9,51,127,
2,3034,Note_on_c,9,53,127,
2,3034,Note_on_c,9,80,127,
2,3034,Note_on_c,9,81,127,
2,3034,Note_on_c,9,82,127,
2,3035,Note_off_c,9,36,0,
2,3036,Note_on_c,9,36,127,
2,3036,Note_on_c,9,37,127,
2,3036,Note_on_c,9,38,127,
2,3036,Note_on_c,9,39,127,
2,3036,Note_on_c,9,41,127,
2,3036,Note_on_c,9,42,127,
2,3036,Note_on_c,9,43,127,
2,3036,Note_on_c,9,45,127,
2,3036,Note_on_c,9,48,127,
2,3036,Note_on_c,9,51,127,
2,3036,Note_on_c,9,53,127,
2,3036,Note_on_c,9,80,127,
2,3036,Note_on_c,9,81,127,
2,3036,Note_on_c,9,82,127,
2,3037,Note_off_c,9,36,0,
2,3038,Note_on_c,9,36,127,
2,3038,Note_on_c,9,37,127,
2,3038,Note_on_c,9,38,127,
2,3038,Note_on_c,9,39,127,
2,3038,Note_on_c,9,41,127,
2,3038,Note_on_c,9,42,127,
2,3038,Note_on_c,9,43,127,
2,3038,Note_on_c,9,45,127,
2,3038,Note_on_c,9,48,127,
2,3038,Note_on_c,9,51,127,
2,3038,Note_on_c,9,53,127,
2,3038,Note_on_c,9,80,127,
2,3038,Note_on_c,9,81,127,
2,3038,Note_on_c,9,82,127,
2,3039,Note_off_c,9,36,0,
2,3040,Note_on_c,9,36,127,
2,3040,Note_on_c,9,37,127,
2,3040,Note_on_c,9,38,127,
2,3040,Note_on_c,9,39,127,
2,3040,Note_on_c,9,41,127,
2,3040,Note_on_c,9,42,127,
2,3040,Note_on_c,9,43,127,
2,3040,Note_on_c,9,45,127,
2,3040,Note_on_c,9,48,127,
2,3040,Note_on_c,9,51,127,
2,3040,Note_on_c,9,53,127,
2,3040,Note_on_c,9,80,127,
2,3040,Note_on_c,9,81,127,
2,3040,Note_on_c,9,82,127,
2,3041,Note_off_c,9,36,0,
2,3042,Note_on_c,9,36,127,
2,3042,Note_on_c,9,37,127,
2,3042,Note_on_c,9,38,127,
2,3042,Note_on_c,9,39,127,
2,3042,Note_on_c,9,41,127,
2,3042,Note_on_c,9,42,127,
2,3042,Note_on_c,9,43,127,
2,3042,Note_on_c,9,45,127,
2,3042,Note_on_c,9,48,127,
2,3042,Note_on_c,9,51,127,
2,3042,Note_on_c,9,53,127,
2,3042,Note_on_c,9,80,127,
2,3042,Note_on_c,9,81,127,
2,3042,Note_on_c,9,82,127,
2,3043,Note_off_c,9,36,0,
2,3044,Note_on_c,9,36,127,
2,3044,Note_on_c,9,37,127,
2,3044,Note_on_c,9,38,127,
2,3044,Note_on_c,9,39,127,
2,3044,Note_on_c,9,41,127,
2,3044,Note_on_c,9,42,127,
2,3044,Note_on_c,9,43,127,
2,3044,Note_on_c,9,45,127,
2,3044,Note_on_c,9,48,127,
2,3044,Note_on_c,9,51,127,
2,3044,Note_on_c,9,53,127,
2,3044,Note_on_c,9,80,127,
2,3044,Note_on_c,9,81,127,
2,3044,Note_on_c,9,82,127,
2,3045,Note_off_c,9,36,0,
2,3046,Note_on_c,9,36,127,
2,3046,Note_on_c,9,37,127,
2,3046,Note_on_c,9,38,127,
2,3046,Note_on_c,9,39,127,
2,3046,Note_on_c,9,41,127,
2,3046,Note_on_c,9,42,127,
2,3046,Note_on_c,9,43,127,
2,3046,Note_on_c,9,45,127,
2,3046,Note_on_c,9,48,127,
2,3046,Note_on_c,9,51,127,
2,3046,Note_on_c,9,53,127,
2,3046,Note_on_c,9,80,127,
2,3046,Note_on_c,9,81,127,
2,3046,Note_on_c,9,82,127,
2,3047,Note_off_c,9,36,0,
2,3048,Note_on_c,9,36,127,
2,3048,Note_on_c,9,37,127,
2,3048,Note_on_c,9,38,127,
2,3048,Note_on_c,9,39,127,
2,3048,Note_on_c,9,41,127,
2,3048,Note_on_c,9,42,127,
2,3048,Note_on_c,9,43,127,
2,3048,Note_on_c,9,45,127,
2,3048,Note_on_c,9,48,127,
2,3048,Note_on_c,9,51,127,
2,3048,Note_on_c,9,53,127,
2,3048,Note_on_c,9,80,127,
2,3048,Note_on_c,9,81,127,
2,3048,Note_on_c,9,82,127,
2,3049,Note_off_c,9,36,0,
2,3050,Note_on_c,9,36,127,
2,3050,Note_on_c,9,37,127,
2,3050,Note_on_c,9,38,127,
2,3050,Note_on_c,9,39,127,
2,3050,Note_on_c,9,41,127,
2,3050,Note_on_c,9,42,127,
2,3050,Note_on_c,9,43,127,
2,3050,Note_on_c,9,45,127,
2,3050,Note_on_c,9,48,127,
2,3050,Note_on_c,9,51,127,
2,3050,Note_on_c,9,53,127,
2,3050,Note_on_c,9,80,127,
2,3050,Note_on_c,9,81,127,
2,3050,Note_on_c,9,82,127,
2,3051,Note_off_c,9,36,0,
2,3052,Note_on_c,9,36,127,
2,3052,Note_on_c,9,37,127,
2,3052,Note_on_c,9,38,127,
2,3052,Note_on_c,9,39,127,
2,3052,Note_on_c,9,41,127,
2,3052,Note_on_c,9,42,127,
2,3052,Note_on_c,9,43,127,
2,3052,Note_on_c,9,45,127,
2,3052,Note_on_c,9,48,127,
2,3052,Note_on_c,9,51,127,
2,3052,Note_on_c,9,53,127,
2,3052,Note_on_c,9,80,127,
2,3052,Note_on_c,9,81,127,
2,3052,Note_on_c,9,82,127,
2,3053,Note_off_c,9,36,0,
2,3054,Note_on_c,9,36,127,
2,3054,Note_on_c,9,37,127,
2,3054,Note_on_c,9,38,127,
2,3054,Note_on_c,9,39,127,
2,3054,Note_on_c,9,41,127,
2,3054,Note_on_c,9,42,127,
2,3054,Note_on_c,9,43,127,
2,3054,Note_on_c,9,45,127,
2,3054,Note_on_c,9,48,127,
2,3054,Note_on_c,9,51,127,
2,3054,Note_on_c,9,53,127,
2,3054,Note_on_c,9,80,127,
2,3054,Note_on_c,9,81,127,
2,3054,Note_on_c,9,82,127,
2,3055,Note_off_c,9,36,0,
2,3056,Note_on_c,9,36,127,
2,3056,Note_on_c,9,37,127,
2,3056,Note_on_c,9,38,127,
2,3056,Note_on_c,9,39,127,
2,3056,Note_on_c,9,41,127,
2,3056,Note_on_c,9,42,127,
2,3056,Note_on_c,9,43,127,
2,3056,Note_on_c,9,45,127,
2,3056,Note_on_c,9,48,127,
2,3056,Note_on_c,9,51,127,
2,3056,Note_on_c,9,53,127,
2,3056,Note_on_c,9,80,127,
2,3056,Note_on_c,9,81,127,
2,3056,Note_on_c,9,82,127,
2,3057,Note_off_c,9,36,0,
2,3058,Note_on_c,9,36,127,
2,3058,Note_on_c,9,37,127,
2,3058,Note_on_c,9,38,127,
2,3058,Note_on_c,9,39,127,
2,3058,Note_on_c,9,41,127,
2,3058,Note_on_c,9,42,127,
2,3058,Note_on_c,9,43,127,
2,3058,Note_on_c,9,45,127,
2,3058,Note_on_c,9,48,127,
2,3058,Note_on_c,9,51,127,
2,3058,Note_on_c,9,53,127,
2,3058,Note_on_c,9,80,127,
2,3058,Note_on_c,9,81,127,
2,3058,Note_on_c,9,82,127,
2,3059,Note_off_c,9,36,0,
2,3060,Note_on_c,9,36,127,
2,3060,Note_on_c,9,37,127,
2,3060,Note_on_c,9,38,127,
2,3060,Note_on_c,9,39,127,
2,3060,Note_on_c,9,41,127,
2,3060,Note_on_c,9,42,127,
2,3060,Note_on_c,9,43,127,
2,3060,Note_on_c,9,45,127,
2,3060,Note_on_c,9,48,127,
2,3060,Note_on_c,9,51,127,
2,3060,Note_on_c,9,53,127,
2,3060,Note_on_c,9,80,127,
2,3060,Note_on_c,9,81,127,
2,3060,Note_on_c,9,82,127,
2,3061,Note_off_c,9,36,0,
2,3062,Note_on_c,9,36,127,
2,3062,Note_on_c,9,37,127,
2,3062,Note_on_c,9,38,127,
2,3062,Note_on_c,9,39,127,
2,3062,Note_on_c,9,41,127,
2,3062,Note_on_c,9,42,127,
2,3062,Note_on_c,9,43,127,
2,3062,Note_on_c,9,45,127,
2,3062,Note_on_c,9,48,127,
2,3062,Note_on_c,9,51,127,
2,3062,Note_on_c,9,53,127,
2,3062,Note_on_c,9,80,127,
2,3062,Note_on_c,9,81,127,
2,3062,Note_on_c,9,82,127,
2,3063,Note_off_c,9,36,0,
2,3064,Note_on_c,9,36,127,
2,3064,Note_on_c,9,37,127,
2,3064,Note_on_c,9,38,127,
2,3064,Note_on_c,9,39,127,
2,3064,Note_on_c,9,41,127,
2,3064,Note_on_c,9,42,127,
2,3064,Note_on_c,9,43,127,
2,3064,Note_on_c,9,45,127,
2,3064,Note_on_c,9,48,127,
2,3064,Note_on_c,9,51,127,
2,3064,Note_on_c,9,53,127,
2,3064,Note_on_c,9,80,127,
2,3064,Note_on_c,9,81,127,
2,3064,Note_on_c,9,82,127,
2,3065,Note_off_c,9,36,0,
2,3066,Note_on_c,9,36,127,
2,3066,Note_on_c,9,37,127,
2,3066,Note_on_c,9,38,127,
2,3066,Note_on_c,9,39,127,
2,3066,Note_on_c,9,41,127,
2,3066,Note_on_c,9,42,127,
2,3066,Note_on_c,9,43,127,
2,3066,Note_on_c,9,45,127,
2,3066,Note_on_c,9,48,127,
2,3066,Note_on_c,9,51,127,
2,3066,Note_on_c,9,53,127,
2,3066,Note_on_c,9,80,127,
2,3066,Note_on_c,9,81,127,
2,3066,Note_on_c,9,82,127,
2,3067,Note_off_c,9,36,0,
2,3068,Note_on_c,9,36,127,
2,3068,Note_on_c,9,37,127,
2,3068,Note_on_c,9,38,127,
2,3068,Note_on_c,9,39,127,
2,3068,Note_on_c,9,41,127,
2,3068,Note_on_c,9,42,127,
2,3068,Note_on_c,9,43,127,
2,3068,Note_on_c,9,45,127,
2,3068,Note_on_c,9,48,127,
2,3068,Note_on_c,9,51,127,
2,3068,Note_on_c,9,53,127,
2,3068,Note_on_c,9,80,127,
2,3068,Note_on_c,9,81,127,
2,3068,Note_on_c,9,82,127,
2,3069,Note_off_c,9,36,0,
2,3070,Note_on_c,9,36,127,
2,3070,Note_on_c,9,37,127,
2,3070,Note_on_c,9,38,127,
2,3070,Note_on_c,9,39,127,
2,3070,Note_on_c,9,41,127,
2,3070,Note_on_c,9,42,127,
2,3070,Note_on_c,9,43,127,
2,3070,Note_on_c,9,45,127,
2,3070,Note_on_c,9,48,127,
2,3070,Note_on_c,9,51,127,
2,3070,Note_on_c,9,53,127,
2,3070,Note_on_c,9,80,127,
2,3070,Note_on_c,9,81,127,
2,3070,Note_on_c,9,82,127,
2,3071,Note_off_c,9,36,0,
2,3072,Note_on_c,9,36,127,
2,3072,Note_on_c,9,37,127,
2,3072,Note_on_c,9,38,127,
2,3072,Note_on_c,9,39,127,
2,3072,Note_on_c,9,41,127,
2,3072,Note_on_c,9,42,127,
2,3072,Note_on_c,9,43,127,
2,3072,Note_on_c,9,45,127,
2,3072,Note_on_c,9,48,127,
2,3072,Note_on_c,9,51,127,
2,3072,Note_on_c,9,53,127,
2,3072,Note_on_c,9,80,127,
2,3072,Note_on_c,9,81,127,
2,3072,Note_on_c,9,82,127,
2,3073,Note_off_c,9,36,0,
2,3074,Note_on_c,9,36,127,
2,3074,Note_on_c,9,37,127,
2,3074,Note_on_c,9,38,127,
2,3074,Note_on_c,9,39,127,
2,3074,Note_on_c,9,41,127,
2,3074,Note_on_c,9,42,127,
2,3074,Note_on_c,9,43,127,
2,3074,Note_on_c,9,45,127,
2,3074,Note_on_c,9,48,127,
2,3074,Note_on_c,9,51,127,
2,3074,Note_on_c,9,53,127,
2,3074,Note_on_c,9,80,127,
2,3074,Note_on_c,9,81,127,
2,3074,Note_on_c,9,82,127,
2,3075,Note_off_c,9,36,0,
2,3076,Note_on_c,9,36,127,
2,3076,Note_on_c,9,37,127,
2,3076,Note_on_c,9,38,127,
2,3076,Note_on_c,9,39,127,
2,3076,Note_on_c,9,41,127,
2,3076,Note_on_c,9,42,127,
2,3076,Note_on_c,9,43,127,
2,3076,Note_on_c,9,45,127,
2,3076,Note_on_c,9,48,127,
2,3076,Note_on_c,9,51,127,
2,3076,Note_on_c,9,53,127,
2,3076,Note_on_c,9,80,127,
2,3076,Note_on_c,9,81,127,
2,3076,Note_on_c,9,82,127,
2,3077,Note_off_c,9,36,0,
2,3078,Note_on_c,9,36,127,
2,3078,Note_on_c,9,37,127,
2,3078,Note_on_c,9,38,127,
2,3078,Note_on_c,9,39,127,
2,3078,Note_on_c,9,41,127,
2,3078,Note_on_c,9,42,127,
2,3078,Note_on_c,9,43,127,
2,3078,Note_on_c,9,45,127,
2,3078,Note_on_c,9,48,127,
2,3078,Note_on_c,9,51,127,
2,3078,Note_on_c,9,53,127,
2,3078,Note_on_c,9,80,127,
2,3078,Note_on_c,9,81,127,
2,3078,Note_on_c,9,82,127,
2,3079,Note_off_c,9,36,0,
2,3080,Note_on_c,9,36,127,
2,3080,Note_on_c,9,37,127,
2,3080,Note_on_c,9,38,127,
2,3080,Note_on_c,9,39,127,
2,3080,Note_on_c,9,41,127,
2,3080,Note_on_c,9,42,127,
2,3080,Note_on_c,9,43,127,
2,3080,Note_on_c,9,45,127,
2,3080,Note_on_c,9,48,127,
2,3080,Note_on_c,9,51,127,
2,3080,Note_on_c,9,53,127,
2,3080,Note_on_c,9,80,127,
2,3080,Note_on_c,9,81,127,
2,3080,Note_on_c,9,82,127,
2,3081,Note_off_c,9,36,0,
2,3082,Note_on_c,9,36,127,
2,3082,Note_on_c,9,37,127,
2,3082,Note_on_c,9,38,127,
2,3082,Note_on_c,9,39,127,
2,3082,Note_on_c,9,41,127,
2,3082,Note_on_c,9,42,127,
2,3082,Note_on_c,9,43,127,
2,3082,Note_on_c,9,45,127,
2,3082,Note_on_c,9,48,127,
2,3082,Note_on_c,9,51,127,
2,3082,Note_on_c,9,53,127,
2,3082,Note_on_c,9,80,127,
2,3082,Note_on_c,9,81,127,
2,3082,Note_on_c,9,82,127,
2,3083,Note_off_c,9,36,0,
2,3084,Note_on_c,9,36,127,
2,3084,Note_on_c,9,37,127,
2,3084,Note_on_c,9,38,127,
2,3084,Note_on_c,9,39,127,
2,3084,Note_on_c,9,41,127,
2,3084,Note_on_c,9,42,127,
2,3084,Note_on_c,9,43,127,
2,3084,Note_on_c,9,45,127,
2,3084,Note_on_c,9,48,127,
2,3084,Note_on_c,9,51,127,
2,3084,Note_on_c,9,53,127,
2,3084,Note_on_c,9,80,127,
2,3084,Note_on_c,9,81,127,
2,3084,Note_on_c,9,82,127,
2,3085,Note_off_c,9,36,0,
2,3086,Note_on_c,9,36,127,
2,3086,Note_on_c,9,37,127,
2,3086,Note_on_c,9,38,127,
2,3086,Note_on_c,9,39,127,
2,3086,Note_on_c,9,41,127,
2,3086,Note_on_c,9,42,127,
2,3086,Note_on_c,9,43,127,
2,3086,Note_on_c,9,45,127,
2,3086,Note_on_c,9,48,127,
2,3086,Note_on_c,9,51,127,
2,3086,Note_on_c,9,53,127,
2,3086,Note_on_c,9,80,127,
2,3086,Note_on_c,9,81,127,
2,3086,Note_on_c,9,82,127,
2,3087,Note_off_c,9,36,0,
2,3088,Note_on_c,9,36,127,
2,3088,Note_on_c,9,37,127,
2,3088,Note_on_c,9,38,127,
2,3088,Note_on_c,9,39,127,
2,3088,Note_on_c,9,41,127,
2,3088,Note_on_c,9,42,127,
2,3088,Note_on_c,9,43,127,
2,3088,Note_on_c,9,45,127,
2,3088,Note_on_c,9,48,127,
2,3088,Note_on_c,9,51,127,
2,3088,Note_on_c,9,53,127,
2,3088,Note_on_c,9,80,127,
2,3088,Note_on_c,9,81,127,
2,3088,Note_on_c,9,82,127,
2,3089,Note_off_c,9,36,0,
2,3090,Note_on_c,9,36,127,
2,3090,Note_on_c,9,37,127,
2,3090,Note_on_c,9,38,127,
2,3090,Note_on_c,9,39,127,
2,3090,Note_on_c,9,41,127,
2,3090,Note_on_c,9,42,127,
2,3090,Note_on_c,9,43,127,
2,3090,Note_on_c,9,45,127,
2,3090,Note_on_c,9,48,127,
2,3090,Note_on_c,9,51,127,
2,3090,Note_on_c,9,53,127,
2,3090,Note_on_c,9,80,127,
2,3090,Note_on_c,9,81,127,
2,3090,Note_on_c,9,82,127,
2,3091,Note_off_c,9,36,0,
2,3092,Note_on_c,9,36,127,
2,3092,Note_on_c,9,37,127,
2,3092,Note_on_c,9,38,127,
2,3092,Note_on_c,9,39,127,
2,3092,Note_on_c,9,41,127,
2,3092,Note_on_c,9,42,127,
2,3092,Note_on_c,9,43,127,
2,3092,Note_on_c,9,45,127,
2,3092,Note_on_c,9,48,127,
2,3092,Note_on_c,9,51,127,
2,3092,Note_on_c,9,53,127,
2,3092,Note_on_c,9,80,127,
2,3092,Note_on_c,9,81,127,
2,3092,Note_on_c,9,82,127,
2,3093,Note_off_c,9,36,0,
2,3094,Note_on_c,9,36,127,
2,3094,Note_on_c,9,37,127,
2,3094,Note_on_c,9,38,127,
2,3094,Note_on_c,9,39,127,
2,3094,Note_on_c,9,41,127,
2,3094,Note_on_c,9,42,127,
2,3094,Note_on_c,9,43,127,
2,3094,Note_on_c,9,45,127,
2,3094,Note_on_c,9,48,127,
2,3094,Note_on_c,9,51,127,
2,3094,Note_on_c,9,53,127,
2,3094,Note_on_c,9,80,127,
2,3094,Note_on_c,9,81,127,
2,3094,Note_on_c,9,82,127,
2,3095,Note_off_c,9,36,0,
2,3096,Note_on_c,9,36,127,
2,3096,Note_on_c,9,37,127,
2,3096,Note_on_c,9,38,127,
2,3096,Note_on_c,9,39,127,
2,3096,Note_on_c,9,41,127,
2,3096,Note_on_c,9,42,127,
2,3096,Note_on_c,9,43,127,
2,3096,Note_on_c,9,45,127,
2,3096,Note_on_c,9,48,127,
2,3096,Note_on_c,9,51,127,
2,3096,Note_on_c,9,53,127,
2,3096,Note_on_c,9,80,127,
2,3096,Note_on_c,9,81,127,
2,3096,Note_on_c,9,82,127,
2,3097,Note_off_c,9,36,0,
2,3098,Note_on_c,9,36,127,
2,3098,Note_on_c,9,37,127,
2,3098,Note_on_c,9,38,127,
2,3098,Note_on_c,9,39,127,
2,3098,Note_on_c,9,41,127,
2,3098,Note_on_c,9,42,127,
2,3098,Note_on_c,9,43,127,
2,3098,Note_on_c,9,45,127,
2,3098,Note_on_c,9,48,127,
2,3098,Note_on_c,9,51,127,
2,3098,Note_on_c,9,53,127,
2,3098,Note_on_c,9,80,127,
2,3098,Note_on_c,9,81,127,
2,3098,Note_on_c,9,82,127,
2,3099,Note_off_c,9,36,0,
2,3100,Note_on_c,9,36,127,
2,3100,Note_on_c,9,37,127,
2,3100,Note_on_c,9,38,127,
2,3100,Note_on_c,9,39,127,
2,3100,Note_on_c,9,41,127,
2,3100,Note_on_c,9,42,127,
2,3100,Note_on_c,9,43,127,
2,3100,Note_on_c,9,45,127,
2,3100,Note_on_c,9,48,127,
2,3100,Note_on_c,9,51,127,
2,3100,Note_on_c,9,53,127,
2,3100,Note_on_c,9,80,127,
2,3100,Note_on_c,9,81,127,
2,3100,Note_on_c,9,82,127,
2,3101,Note_off_c,9,36,0,
2,3102,Note_on_c,9,36,127,
2,3102,Note_on_c,9,37,127,
2,3102,Note_on_c,9,38,127,
2,3102,Note_on_c,9,39,127,
2,3102,Note_on_c,9,41,127,
2,3102,Note_on_c,9,42,127,
2,3102,Note_on_c,9,43,127,
2,3102,Note_on_c,9,45,127,
2,3102,Note_on_c,9,48,127,
2,3102,Note_on_c,9,51,127,
2,3102,Note_on_c,9,53,127,
2,3102,Note_on_c,9,80,127,
2,3102,Note_on_c,9,81,127,
2,3102,Note_on_c,9,82,127,
2,3103,Note_off_c,9,36,0,
2,3104,Note_on_c,9,36,127,
2,3104,Note_on_c,9,37,127,
2,3104,Note_on_c,9,38,127,
2,3104,Note_on_c,9,39,127,
2,3104,Note_on_c,9,41,127,
2,3104,Note_on_c,9,42,127,
2,3104,Note_on_c,9,43,127,
2,3104,Note_on_c,9,45,127,
2,3104,Note_on_c,9,48,127,
2,3104,Note_on_c,9,51,127,
2,3104,Note_on_c,9,53,127,
2,3104,Note_on_c,9,80,127,
2,3104,Note_on_c,9,81,127,
2,3104,Note_on_c,9,82,127,
2,3105,Note_off_c,9,36,0,
2,3106,Note_on_c,9,36,127,
2,3106,Note_on_c,9,37,127,
2,3106,Note_on_c,9,38,127,
2,3106,Note_on_c,9,39,127,
2,3106,Note_on_c,9,41,127,
2,3106,Note_on_c,9,42,127,
2,3106,Note_on_c,9,43,127,
2,3106,Note_on_c,9,45,127,
2,3106,Note_on_c,9,48,127,
2,3106,Note_on_c,9,51,127,
2,3106,Note_on_c,9,53,127,
2,3106,Note_on_c,9,80,127,
2,3106,Note_on_c,9,81,127,
2,3106,Note_on_c,9,82,127,
2,3107,Note_off_c,9,36,0,
2,3108,Note_on_c,9,36,127,
2,3108,Note_on_c,9,37,127,
2,3108,Note_on_c,9,38,127,
2,3108,Note_on_c,9,39,127,
2,3108,Note_on_c,9,41,127,
2,3108,Note_on_c,9,42,127,
2,3108,Note_on_c,9,43,127,
2,3108,Note_on_c,9,45,127,
2,3108,Note_on_c,9,48,127,
2,3108,Note_on_c,9,51,127,
2,3108,Note_on_c,9,53,127,
2,3108,Note_on_c,9,80,127,
2,3108,Note_on_c,9,81,127,
2,3108,Note_on_c,9,82,127,
2,3109,Note_off_c,9,36,0,
2,3110,Note_on_c,9,36,127,
2,3110,Note_on_c,9,37,127,
2,3110,Note_on_c,9,38,127,
2,3110,Note_on_c,9,39,127,
2,3110,Note_on_c,9,41,127,
2,3110,Note_on_c,9,42,127,
2,3110,Note_on_c,9,43,127,
2,3110,Note_on_c,9,45,127,
2,3110,Note_on_c,9,48,127,
2,3110,Note_on_c,9,51,127,
2,3110,Note_on_c,9,53,127,
2,3110,Note_on_c,9,80,127,
2,3110,Note_on_c,9,81,127,
2,3110,Note_on_c,9,82,127,
2,3111,Note_off_c,9,36,0,
2,3112,Note_on_c,9,36,127,
2,3112,Note_on_c,9,37,127,
2,3112,Note_on_c,9,38,127,
2,3112,Note_on_c,9,39,127,
2,3112,Note_on_c,9,41,127,
2,3112,Note_on_c,9,42,127,
2,3112,Note_on_c,9,43,127,
2,3112,Note_on_c,9,45,127,
2,3112,Note_on_c,9,48,127,
2,3112,Note_on_c,9,51,127,
2,3112,Note_on_c,9,53,127,
2,3112,Note_on_c,9,80,127,
2,3112,Note_on_c,9,81,127,
2,3112,Note_on_c,9,82,127,
2,3113,Note_off_c,9,36,0,
2,3114,Note_on_c,9,36,127,
2,3114,Note_on_c,9,37,127,
2,3114,Note_on_c,9,38,127,
2,3114,Note_on_c,9,39,127,
2,3114,Note_on_c,9,41,127,
2,3114,Note_on_c,9,42,127,
2,3114,Note_on_c,9,43,127,
2,3114,Note_on_c,9,45,127,
2,3114,Note_on_c,9,48,127,
2,3114,Note_on_c,9,51,127,
2,3114,Note_on_c,9,53,127,
2,3114,Note_on_c,9,80,127,
2,3114,Note_on_c,9,81,127,
2,3114,Note_on_c,9,82,127,
2,3115,Note_off_c,9,36,0,
2,3116,Note_on_c,9,36,127,
2,3116,Note_on_c,9,37,127,
2,3116,Note_on_c,9,38,127,
2,3116,Note_on_c,9,39,127,
2,3116,Note_on_c,9,41,127,
2,3116,Note_on_c,9,42,127,
2,3116,Note_on_c,9,43,127,
2,3116,Note_on_c,9,45,127,
2,3116,Note_on_c,9,48,127,
2,3116,Note_on_c,9,51,127,
2,3116,Note_on_c,9,53,127,
2,3116,Note_on_c,9,80,127,
2,3116,Note_on_c,9,81,127,
2,3116,Note_on_c,9,82,127,
2,3117,Note_off_c,9,36,0,
2,3118,Note_on_c,9,36,127,
2,3118,Note_on_c,9,37,127,
2,3118,Note_on_c,9,38,127,
2,3118,Note_on_c,9,39,127,
2,3118,Note_on_c,9,41,127,
2,3118,Note_on_c,9,42,127,
2,3118,Note_on_c,9,43,127,
2,3118,Note_on_c,9,45,127,
2,3118,Note_on_c,9,48,127,
2,3118,Note_on_c,9,51,127,
2,3118,Note_on_c,9,53,127,
2,3118,Note_on_c,9,80,127,
2,3118,Note_on_c,9,81,127,
2,3118,Note_on_c,9,82,127,
2,3119,Note_off_c,9,36,0,
2,3120,Note_on_c,9,36,127,
2,3120,Note_on_c,9,37,127,
2,3120,Note_on_c,9,38,127,
2,3120,Note_on_c,9,39,127,
2,3120,Note_on_c,9,41,127,
2,3120,Note_on_c,9,42,127,
2,3120,Note_on_c,9,43,127,
2,3120,Note_on_c,9,45,127,
2,3120,Note_on_c,9,48,127,
2,3120,Note_on_c,9,51,127,
2,3120,Note_on_c,9,53,127,
2,3120,Note_on_c,9,80,127,
2,3120,Note_on_c,9,81,127,
2,3120,Note_on_c,9,82,127,
2,3121,Note_off_c,9,36,0,
2,3122,Note_on_c,9,36,127,
2,3122,Note_on_c,9,37,127,
2,3122,Note_on_c,9,38,127,
2,3122,Note_on_c,9,39,127,
2,3122,Note_on_c,9,41,127,
2,3122,Note_on_c,9,42,127,
2,3122,Note_on_c,9,43,127,
2,3122,Note_on_c,9,45,127,
2,3122,Note_on_c,9,48,127,
2,3122,Note_on_c,9,51,127,
2,3122,Note_on_c,9,53,127,
2,3122,Note_on_c,9,80,127,
2,3122,Note_on_c,9,81,127,
2,3122,Note_on_c,9,82,127,
2,3123,Note_off_c,9,36,0,
2,3124,Note_on_c,9,36,127,
2,3124,Note_on_c,9,37,127,
2,3124,Note_on_c,9,38,127,
2,3124,Note_on_c,9,39,127,
2,3124,Note_on_c,9,41,127,
2,3124,Note_on_c,9,42,127,
2,3124,Note_on_c,9,43,127,
2,3124,Note_on_c,9,45,127,
2,3124,Note_on_c,9,48,127,
2,3124,Note_on_c,9,51,127,
2,3124,Note_on_c,9,53,127,
2,3124,Note_on_c,9,80,127,
2,3124,Note_on_c,9,81,127,
2,3124,Note_on_c,9,82,127,
2,3125,Note_off_c,9,36,0,
2,3126,Note_on_c,9,36,127,
2,3126,Note_on_c,9,37,127,
2,3126,Note_on_c,9,38,127,
2,3126,Note_on_c,9,39,127,
2,3126,Note_on_c,9,41,127,
2,3126,Note_on_c,9,42,127,
2,3126,Note_on_c,9,43,127,
2,3126,Note_on_c,9,45,127,
2,3126,Note_on_c,9,48,127,
2,3126,Note_on_c,9,51,127,
2,3126,Note_on_c,9,53,127,
2,3126,Note_on_c,9,80,127,
2,3126,Note_on_c,9,81,127,
2,3126,Note_on_c,9,82,127,
2,3127,Note_off_c,9,36,0,
2,3128,Note_on_c,9,36,127,
2,3128,Note_on_c,9,37,127,
2,3128,Note_on_c,9,38,127,
2,3128,Note_on_c,9,39,127,
2,3128,Note_on_c,9,41,127,
2,3128,Note_on_c,9,42,127,
2,3128,Note_on_c,9,43,127,
2,3128,Note_on_c,9,45,127,
2,3128,Note_on_c,9,48,127,
2,3128,Note_on_c,9,51,127,
2,3128,Note_on_c,9,53,127,
2,3128,Note_on_c,9,80,127,
2,3128,Note_on_c,9,81,127,
2,3128,Note_on_c,9,82,127,
2,3129,Note_off_c,9,36,0,
2,3130,Note_on_c,9,36,127,
2,3130,Note_on_c,9,37,127,
2,3130,Note_on_c,9,38,127,
2,3130,Note_on_c,9,39,127,
2,3130,Note_on_c,9,41,127,
2,3130,Note_on_c,9,42,127,
2,3130,Note_on_c,9,43,127,
2,3130,Note_on_c,9,45,127,
2,3130,Note_on_c,9,48,127,
2,3130,Note_on_c,9,51,127,
2,3130,Note_on_c,9,53,127,
2,3130,Note_on_c,9,80,127,
2,3130,Note_on_c,9,81,127,
2,3130,Note_on_c,9,82,127,
2,3131,Note_off_c,9,36,0,
2,3132,Note_on_c,9,36,127,
2,3132,Note_on_c,9,37,127,
2,3132,Note_on_c,9,38,127,
2,3132,Note_on_c,9,39,127,
2,3132,Note_on_c,9,41,127,
2,3132,Note_on_c,9,42,127,
2,3132,Note_on_c,9,43,127,
2,3132,Note_on_c,9,45,127,
2,3132,Note_on_c,9,48,127,
2,3132,Note_on_c,9,51,127,
2,3132,Note_on_c,9,53,127,
2,3132,Note_on_c,9,80,127,
2,3132,Note_on_c,9,81,127,
2,3132,Note_on_c,9,82,127,
2,3133,Note_off_c,9,36,0,
2,3134,Note_on_c,9,36,127,
2,3134,Note_on_c,9,37,127,
2,3134,Note_on_c,9,38,127,
2,3134,Note_on_c,9,39,127,
2,3134,Note_on_c,9,41,127,
2,3134,Note_on_c,9,42,127,
2,3134,Note_on_c,9,43,127,
2,3134,Note_on_c,9,45,127,
2,3134,Note_on_c,9,48,127,
2,3134,Note_on_c,9,51,127,
2,3134,Note_on_c,9,53,127,
2,3134,Note_on_c,9,80,127,
2,3134,Note_on_c,9,81,127,
2,3134,Note_on_c,9,82,127,
2,3135,Note_off_c,9,36,0,
2,3136,Note_on_c,9,36,127,
2,3136,Note_on_c,9,37,127,
2,3136,Note_on_c,9,38,127,
2,3136,Note_on_c,9,39,127,
2,3136,Note_on_c,9,41,127,
2,3136,Note_on_c,9,42,127,
2,3136,Note_on_c,9,43,127,
2,3136,Note_on_c,9,45,127,
2,3136,Note_on_c,9,48,127,
2,3136,Note_on_c,9,51,127,
2,3136,Note_on_c,9,53,127,
2,3136,Note_on_c,9,80,127,
2,3136,Note_on_c,9,81,127,
2,3136,Note_on_c,9,82,127,
2,3137,Note_off_c,9,36,0,
2,3138,Note_on_c,9,36,127,
2,3138,Note_on_c,9,37,127,
2,3138,Note_on_c,9,38,127,
2,3138,Note_on_c,9,39,127,
2,3138,Note_on_c,9,41,127,
2,3138,Note_on_c,9,42,127,
2,3138,Note_on_c,9,43,127,
2,3138,Note_on_c,9,45,127,
2,3138,Note_on_c,9,48,127,
2,3138,Note_on_c,9,51,127,
2,3138,Note_on_c,9,53,127,
2,3138,Note_on_c,9,80,127,
2,3138,Note_on_c,9,81,127,
2,3138,Note_on_c,9,82,127,
2,3139,Note_off_c,9,36,0,
2,3140,Note_on_c,9,36,127,
2,3140,Note_on_c,9,37,127,
2,3140,Note_on_c,9,38,127,
2,3140,Note_on_c,9,39,127,
2,3140,Note_on_c,9,41,127,
2,3140,Note_on_c,9,42,127,
2,3140,Note_on_c,9,43,127,
2,3140,Note_on_c,9,45,127,
2,3140,Note_on_c,9,48,127,
2,3140,Note_on_c,9,51,127,
2,3140,Note_on_c,9,53,127,
2,3140,Note_on_c,9,80,127,
2,3140,Note_on_c,9,81,127,
2,3140,Note_on_c,9,82,127,
2,3141,Note_off_c,9,36,0,
2,3142,Note_on_c,9,36,127,
2,3142,Note_on_c,9,37,127,
2,3142,Note_on_c,9,38,127,
2,3142,Note_on_c,9,39,127,
2,3142,Note_on_c,9,41,127,
2,3142,Note_on_c,9,42,127,
2,3142,Note_on_c,9,43,127,
2,3142,Note_on_c,9,45,127,
2,3142,Note_on_c,9,48,127,
2,3142,Note_on_c,9,51,127,
2,3142,Note_on_c,9,53,127,
2,3142,Note_on_c,9,80,127,
2,3142,Note_on_c,9,81,127,
2,3142,Note_on_c,9,82,127,
2,3143,Note_off_c,9,36,0,
2,3144,Note_on_c,9,36,127,
2,3144,Note_on_c,9,37,127,
2,3144,Note_on_c,9,38,127,
2,3144,Note_on_c,9,39,127,
2,3144,Note_on_c,9,41,127,
2,3144,Note_on_c,9,42,127,
2,3144,Note_on_c,9,43,127,
2,3144,Note_on_c,9,45,127,
2,3144,Note_on_c,9,48,127,
2,3144,Note_on_c,9,51,127,
2,3144,Note_on_c,9,53,127,
2,3144,Note_on_c,9,80,127,
2,3144,Note_on_c,9,81,127,
2,3144,Note_on_c,9,82,127,
2,3145,Note_off_c,9,36,0,
2,3146,Note_on_c,9,36,127,
2,3146,Note_on_c,9,37,127,
2,3146,Note_on_c,9,38,127,
2,3146,Note_on_c,9,39,127,
2,3146,Note_on_c,9,41,127,
2,3146,Note_on_c,9,42,127,
2,3146,Note_on_c,9,43,127,
2,3146,Note_on_c,9,45,127,
2,3146,Note_on_c,9,48,127,
2,3146,Note_on_c,9,51,127,
2,3146,Note_on_c,9,53,127,
2,3146,Note_on_c,9,80,127,
2,3146,Note_on_c,9,81,127,
2,3146,Note_on_c,9,82,127,
2,3147,Note_off_c,9,36,0,
2,3148,Note_on_c,9,36,127,
2,3148,Note_on_c,9,37,127,
2,3148,Note_on_c,9,38,127,
2,3148,Note_on_c,9,39,127,
2,3148,Note_on_c,9,41,127,
2,3148,Note_on_c,9,42,127,
2,3148,Note_on_c,9,43,127,
2,3148,Note_on_c,9,45,127,
2,3148,Note_on_c,9,48,127,
2,3148,Note_on_c,9,51,127,
2,3148,Note_on_c,9,53,127,
2,3148,Note_on_c,9,80,127,
2,3148,Note_on_c,9,81,127,
2,3148,Note_on_c,9,82,127,
2,3149,Note_off_c,9,36,0,
2,3150,Note_on_c,9,36,127,
2,3150,Note_on_c,9,37,127,
2,3150,Note_on_c,9,38,127,
2,3150,Note_on_c,9,39,127,
2,3150,Note_on_c,9,41,127,
2,3150,Note_on_c,9,42,127,
2,3150,Note_on_c,9,43,127,
2,3150,Note_on_c,9,45,127,
2,3150,Note_on_c,9,48,127,
2,3150,Note_on_c,9,51,127,
2,3150,Note_on_c,9,53,127,
2,3150,Note_on_c,9,80,127,
2,3150,Note_on_c,9,81,127,
2,3150,Note_on_c,9,82,127,
2,3151,Note_off_c,9,36,0,
2,3152,Note_on_c,9,36,127,
2,3152,Note_on_c,9,37,127,
2,3152,Note_on_c,9,38,127,
2,3152,Note_on_c,9,39,127,
2,3152,Note_on_c,9,41,127,
2,3152,Note_on_c,9,42,127,
2,3152,Note_on_c,9,43,127,
2,3152,Note_on_c,9,45,127,
2,3152,Note_on_c,9,48,127,
2,3152,Note_on_c,9,51,127,
2,3152,Note_on_c,9,53,127,
2,3152,Note_on_c,9,80,127,
2,3152,Note_on_c,9,81,127,
2,3152,Note_on_c,9,82,127,
2,3153,Note_off_c,9,36,0,
2,3154,Note_on_c,9,36,127,
2,3154,Note_on_c,9,37,127,
2,3154,Note_on_c,9,38,127,
2,3154,Note_on_c,9,39,127,
2,3154,Note_on_c,9,41,127,
2,3154,Note_on_c,9,42,127,
2,3154,Note_on_c,9,43,127,
2,3154,Note_on_c,9,45,127,
2,3154,Note_on_c,9,48,127,
2,3154,Note_on_c,9,51,127,
2,3154,Note_on_c,9,53,127,
2,3154,Note_on_c,9,80,127,
2,3154,Note_on_c,9,81,127,
2,3154,Note_on_c,9,82,127,
2,3155,Note_off_c,9,36,0,
2,3156,Note_on_c,9,36,127,
2,3156,Note_on_c,9,37,127,
2,3156,Note_on_c,9,38,127,
2,3156,Note_on_c,9,39,127,
2,3156,Note_on_c,9,41,127,
2,3156,Note_on_c,9,42,127,
2,3156,Note_on_c,9,43,127,
2,3156,Note_on_c,9,45,127,
2,3156,Note_on_c,9,48,127,
2,3156,Note_on_c,9,51,127,
2,3156,Note_on_c,9,53,127,
2,3156,Note_on_c,9,80,127,
2,3156,Note_on_c,9,81,127,
2,3156,Note_on_c,9,82,127,
2,3157,Note_off_c,9,36,0,
2,3158,Note_on_c,9,36,127,
2,3158,Note_on_c,9,37,127,
2,3158,Note_on_c,9,38,127,
2,3158,Note_on_c,9,39,127,
2,3158,Note_on_c,9,41,127,
2,3158,Note_on_c,9,42,127,
2,3158,Note_on_c,9,43,127,
2,3158,Note_on_c,9,45,127,
2,3158,Note_on_c,9,48,127,
2,3158,Note_on_c,9,51,127,
2,3158,Note_on_c,9,53,127,
2,3158,Note_on_c,9,80,127,
2,3158,Note_on_c,9,81,127,
2,3158,Note_on_c,9,82,127,
2,3159,Note_off_c,9,36,0,
2,3160,Note_on_c,9,36,127,
2,3160,Note_on_c,9,37,127,
2,3160,Note_on_c,9,38,127,
2,3160,Note_on_c,9,39,127,
2,3160,Note_on_c,9,41,127,
2,3160,Note_on_c,9,42,127,
2,3160,Note_on_c,9,43,127,
2,3160,Note_on_c,9,45,127,
2,3160,Note_on_c,9,48,127,
2,3160,Note_on_c,9,51,127,
2,3160,Note_on_c,9,53,127,
2,3160,Note_on_c,9,80,127,
2,3160,Note_on_c,9,81,127,
2,3160,Note_on_c,9,82,127,
2,3161,Note_off_c,9,36,0,
2,3162,Note_on_c,9,36,127,
2,3162,Note_on_c,9,37,127,
2,3162,Note_on_c,9,38,127,
2,3162,Note_on_c,9,39,127,
2,3162,Note_on_c,9,41,127,
2,3162,Note_on_c,9,42,127,
2,3162,Note_on_c,9,43,127,
2,3162,Note_on_c,9,45,127,
2,3162,Note_on_c,9,48,127,
2,3162,Note_on_c,9,51,127,
2,3162,Note_on_c,9,53,127,
2,3162,Note_on_c,9,80,127,
2,3162,Note_on_c,9,81,127,
2,3162,Note_on_c,9,82,127,
2,3163,Note_off_c,9,36,0,
2,3164,Note_on_c,9,36,127,
2,3164,Note_on_c,9,37,127,
2,3164,Note_on_c,9,38,127,
2,3164,Note_on_c,9,39,127,
2,3164,Note_on_c,9,41,127,
2,3164,Note_on_c,9,42,127,
2,3164,Note_on_c,9,43,127,
2,3164,Note_on_c,9,45,127,
2,3164,Note_on_c,9,48,127,
2,3164,Note_on_c,9,51,127,
2,3164,Note_on_c,9,53,127,
2,3164,Note_on_c,9,80,127,
2,3164,Note_on_c,9,81,127,
2,3164,Note_on_c,9,82,127,
2,3165,Note_off_c,9,36,0,
2,3166,Note_on_c,9,36,127,
2,3166,Note_on_c,9,37,127,
2,3166,Note_on_c,9,38,127,
2,3166,Note_on_c,9,39,127,
2,3166,Note_on_c,9,41,127,
2,3166,Note_on_c,9,42,127,
2,3166,Note_on_c,9,43,127,
2,3166,Note_on_c,9,45,127,
2,3166,Note_on_c,9,48,127,
2,3166,Note_on_c,9,51,127,
2,3166,Note_on_c,9,53,127,
2,3166,Note_on_c,9,80,127,
2,3166,Note_on_c,9,81,127,
2,3166,Note_on_c,9,82,127,
2,3167,Note_off_c,9,36,0,
2,3168,Note_on_c,9,36,127,
2,3168,Note_on_c,9,37,127,
2,3168,Note_on_c,9,38,127,
2,3168,Note_on_c,9,39,127,
2,3168,Note_on_c,9,41,127,
2,3168,Note_on_c,9,42,127,
2,3168,Note_on_c,9,43,127,
2,3168,Note_on_c,9,45,127,
2,3168,Note_on_c,9,48,127,
2,3168,Note_on_c,9,51,127,
2,3168,Note_on_c,9,53,127,
2,3168,Note_on_c,9,80,127,
2,3168,Note_on_c,9,81,127,
2,3168,Note_on_c,9,82,127,
2,3169,Note_off_c,9,36,0,
2,3170,Note_on_c,9,36,127,
2,3170,Note_on_c,9,37,127,
2,3170,Note_on_c,9,38,127,
2,3170,Note_on_c,9,39,127,
2,3170,Note_on_c,9,41,127,
2,3170,Note_on_c,9,42,127,
2,3170,Note_on_c,9,43,127,
2,3170,Note_on_c,9,45,127,
2,3170,Note_on_c,9,48,127,
2,3170,Note_on_c,9,51,127,
2,3170,Note_on_c,9,53,127,
2,3170,Note_on_c,9,80,127,
2,3170,Note_on_c,9,81,127,
2,3170,Note_on_c,9,82,127,
2,3171,Note_off_c,9,36,0,
2,3172,Note_on_c,9,36,127,
2,3172,Note_on_c,9,37,127,
2,3172,Note_on_c,9,38,127,
2,3172,Note_on_c,9,39,127,
2,3172,Note_on_c,9,41,127,
2,3172,Note_on_c,9,42,127,
2,3172,Note_on_c,9,43,127,
2,3172,Note_on_c,9,45,127,
2,3172,Note_on_c,9,48,127,
2,3172,Note_on_c,9,51,127,
2,3172,Note_on_c,9,53,127,
2,3172,Note_on_c,9,80,127,
2,3172,Note_on_c,9,81,127,
2,3172,Note_on_c,9,82,127,
2,3173,Note_off_c,9,36,0,
2,3174,Note_on_c,9,36,127,
2,3174,Note_on_c,9,37,127,
2,3174,Note_on_c,9,38,127,
2,3174,Note_on_c,9,39,127,
2,3174,Note_on_c,9,41,127,
2,3174,Note_on_c,9,42,127,
2,3174,Note_on_c,9,43,127,
2,3174,Note_on_c,9,45,127,
2,3174,Note_on_c,9,48,127,
2,3174,Note_on_c,9,51,127,
2,3174,Note_on_c,9,53,127,
2,3174,Note_on_c,9,80,127,
2,3174,Note_on_c,9,81,127,
2,3174,Note_on_c,9,82,127,
2,3175,Note_off_c,9,36,0,
2,3176,Note_on_c,9,36,127,
2,3176,Note_on_c,9,37,127,
2,3176,Note_on_c,9,38,127,
2,3176,Note_on_c,9,39,127,
2,3176,Note_on_c,9,41,127,
2,3176,Note_on_c,9,42,127,
2,3176,Note_on_c,9,43,127,
2,3176,Note_on_c,9,45,127,
2,3176,Note_on_c,9,48,127,
2,3176,Note_on_c,9,51,127,
2,3176,Note_on_c,9,53,127,
2,3176,Note_on_c,9,80,127,
2,3176,Note_on_c,9,81,127,
2,3176,Note_on_c,9,82,127,
2,3177,Note_off_c,9,36,0,
2,3178,Note_on_c,9,36,127,
2,3178,Note_on_c,9,37,127,
2,3178,Note_on_c,9,38,127,
2,3178,Note_on_c,9,39,127,
2,3178,Note_on_c,9,41,127,
2,3178,Note_on_c,9,42,127,
2,3178,Note_on_c,9,43,127,
2,3178,Note_on_c,9,45,127,
2,3178,Note_on_c,9,48,127,
2,3178,Note_on_c,9,51,127,
2,3178,Note_on_c,9,53,127,
2,3178,Note_on_c,9,80,127,
2,3178,Note_on_c,9,81,127,
2,3178,Note_on_c,9,82,127,
2,3179,Note_off_c,9,36,0,
2,3180,Note_on_c,9,36,127,
2,3180,Note_on_c,9,37,127,
2,3180,Note_on_c,9,38,127,
2,3180,Note_on_c,9,39,127,
2,3180,Note_on_c,9,41,127,
2,3180,Note_on_c,9,42,127,
2,3180,Note_on_c,9,43,127,
2,3180,Note_on_c,9,45,127,
2,3180,Note_on_c,9,48,127,
2,3180,Note_on_c,9,51,127,
2,3180,Note_on_c,9,53,127,
2,3180,Note_on_c,9,80,127,
2,3180,Note_on_c,9,81,127,
2,3180,Note_on_c,9,82,127,
2,3181,Note_off_c,9,36,0,
2,3182,Note_on_c,9,36,127,
2,3182,Note_on_c,9,37,127,
2,3182,Note_on_c,9,38,127,
2,3182,Note_on_c,9,39,127,
2,3182,Note_on_c,9,41,127,
2,3182,Note_on_c,9,42,127,
2,3182,Note_on_c,9,43,127,
2,3182,Note_on_c,9,45,127,
2,3182,Note_on_c,9,48,127,
2,3182,Note_on_c,9,51,127,
2,3182,Note_on_c,9,53,127,
2,3182,Note_on_c,9,80,127,
2,3182,Note_on_c,9,81,127,
2,3182,Note_on_c,9,82,127,
2,3183,Note_off_c,9,36,0,
2,3184,Note_on_c,9,36,127,
2,3184,Note_on_c,9,37,127,
2,3184,Note_on_c,9,38,127,
2,3184,Note_on_c,9,39,127,
2,3184,Note_on_c,9,41,127,
2,3184,Note_on_c,9,42,127,
2,3184,Note_on_c,9,43,127,
2,3184,Note_on_c,9,45,127,
2,3184,Note_on_c,9,48,127,
2,3184,Note_on_c,9,51,127,
2,3184,Note_on_c,9,53,127,
2,3184,Note_on_c,9,80,127,
2,3184,Note_on_c,9,81,127,
2,3184,Note_on_c,9,82,127,
2,3185,Note_off_c,9,36,0,
2,3186,Note_on_c,9,36,127,
2,3186,Note_on_c,9,37,127,
2,3186,Note_on_c,9,38,127,
2,3186,Note_on_c,9,39,127,
2,3186,Note_on_c,9,41,127,
2,3186,Note_on_c,9,42,127,
2,3186,Note_on_c,9,43,127,
2,3186,Note_on_c,9,45,127,
2,3186,Note_on_c,9,48,127,
2,3186,Note_on_c,9,51,127,
2,3186,Note_on_c,9,53,127,
2,3186,Note_on_c,9,80,127,
2,3186,Note_on_c,9,81,127,
2,3186,Note_on_c,9,82,127,
2,3187,Note_off_c,9,36,0,
2,3188,Note_on_c,9,36,127,
2,3188,Note_on_c,9,37,127,
2,3188,Note_on_c,9,38,127,
2,3188,Note_on_c,9,39,127,
2,3188,Note_on_c,9,41,127,
2,3188,Note_on_c,9,42,127,
2,3188,Note_on_c,9,43,127,
2,3188,Note_on_c,9,45,127,
2,3188,Note_on_c,9,48,127,
2,3188,Note_on_c,9,51,127,
2,3188,Note_on_c,9,53,127,
2,3188,Note_on_c,9,80,127,
2,3188,Note_on_c,9,81,127,
2,3188,Note_on_c,9,82,127,
2,3189,Note_off_c,9,36,0,
2,3190,Note_on_c,9,36,127,
2,3190,Note_on_c,9,37,127,
2,3190,Note_on_c,9,38,127,
2,3190,Note_on_c,9,39,127,
2,3190,Note_on_c,9,41,127,
2,3190,Note_on_c,9,42,127,
2,3190,Note_on_c,9,43,127,
2,3190,Note_on_c,9,45,127,
2,3190,Note_on_c,9,48,127,
2,3190,Note_on_c,9,51,127,
2,3190,Note_on_c,9,53,127,
2,3190,Note_on_c,9,80,127,
2,3190,Note_on_c,9,81,127,
2,3190,Note_on_c,9,82,127,
2,3191,Note_off_c,9,36,0,
2,3192,Note_on_c,9,36,127,
2,3192,Note_on_c,9,37,127,
2,3192,Note_on_c,9,38,127,
2,3192,Note_on_c,9,39,127,
2,3192,Note_on_c,9,41,127,
2,3192,Note_on_c,9,42,127,
2,3192,Note_on_c,9,43,127,
2,3192,Note_on_c,9,45,127,
2,3192,Note_on_c,9,48,127,
2,3192,Note_on_c,9,51,127,
2,3192,Note_on_c,9,53,127,
2,3192,Note_on_c,9,80,127,
2,3192,Note_on_c,9,81,127,
2,3192,Note_on_c,9,82,127,
2,3193,Note_off_c,9,36,0,
2,3194,Note_on_c,9,36,127,
2,3194,Note_on_c,9,37,127,
2,3194,Note_on_c,9,38,127,
2,3194,Note_on_c,9,39,127,
2,3194,Note_on_c,9,41,127,
2,3194,Note_on_c,9,42,127,
2,3194,Note_on_c,9,43,127,
2,3194,Note_on_c,9,45,127,
2,3194,Note_on_c,9,48,127,
2,3194,Note_on_c,9,51,127,
2,3194,Note_on_c,9,53,127,
2,3194,Note_on_c,9,80,127,
2,3194,Note_on_c,9,81,127,
2,3194,Note_on_c,9,82,127,
2,3195,Note_off_c,9,36,0,
2,3196,Note_on_c,9,36,127,
2,3196,Note_on_c,9,37,127,
2,3196,Note_on_c,9,38,127,
2,3196,Note_on_c,9,39,127,
2,3196,Note_on_c,9,41,127,
2,3196,Note_on_c,9,42,127,
2,3196,Note_on_c,9,43,127,
2,3196,Note_on_c,9,45,127,
2,3196,Note_on_c,9,48,127,
2,3196,Note_on_c,9,51,127,
2,3196,Note_on_c,9,53,127,
2,3196,Note_on_c,9,80,127,
2,3196,Note_on_c,9,81,127,
2,3196,Note_on_c,9,82,127,
2,3197,Note_off_c,9,36,0,
2,3198,Note_on_c,9,36,127,
2,3198,Note_on_c,9,37,127,
2,3198,Note_on_c,9,38,127,
2,3198,Note_on_c,9,39,127,
2,3198,Note_on_c,9,41,127,
2,3198,Note_on_c,9,42,127,
2,3198,Note_on_c,9,43,127,
2,3198,Note_on_c,9,45,127,
2,3198,Note_on_c,9,48,127,
2,3198,Note_on_c,9,51,127,
2,3198,Note_on_c,9,53,127,
2,3198,Note_on_c,9,80,127,
2,3198,Note_on_c,9,81,127,
2,3198,Note_on_c,9,82,127,
2,3199,Note_off_c,9,36,0,
2,3200,Note_on_c,9,36,127,
2,3200,Note_on_c,9,37,127,
2,3200,Note_on_c,9,38,127,
2,3200,Note_on_c,9,39,127,
2,3200,Note_on_c,9,41,127,
2,3200,Note_on_c,9,42,127,
2,3200,Note_on_c,9,43,127,
2,3200,Note_on_c,9,45,127,
2,3200,Note_on_c,9,48,127,
2,3200,Note_on_c,9,51,127,
2,3200,Note_on_c,9,53,127,
2,3200,Note_on_c,9,80,127,
2,3200,Note_on_c,9,81,127,
2,3200,Note_on_c,9,82,127,
2,3201,Note_off_c,9,36,0,
2,3202,Note_on_c,9,36,127,
2,3202,Note_on_c,9,37,127,
2,3202,Note_on_c,9,38,127,
2,3202,Note_on_c,9,39,127,
2,3202,Note_on_c,9,41,127,
2,3202,Note_on_c,9,42,127,
2,3202,Note_on_c,9,43,127,
2,3202,Note_on_c,9,45,127,
2,3202,Note_on_c,9,48,127,
2,3202,Note_on_c,9,51,127,
2,3202,Note_on_c,9,53,127,
2,3202,Note_on_c,9,80,127,
2,3202,Note_on_c,9,81,127,
2,3202,Note_on_c,9,82,127,
2,3203,Note_off_c,9,36,0,
2,3204,Note_on_c,9,36,127,
2,3204,Note_on_c,9,37,127,
2,3204,Note_on_c,9,38,127,
2,3204,Note_on_c,9,39,127,
2,3204,Note_on_c,9,41,127,
2,3204,Note_on_c,9,42,127,
2,3204,Note_on_c,9,43,127,
2,3204,Note_on_c,9,45,127,
2,3204,Note_on_c,9,48,127,
2,3204,Note_on_c,9,51,127,
2,3204,Note_on_c,9,53,127,
2,3204,Note_on_c,9,80,127,
2,3204,Note_on_c,9,81,127,
2,3204,Note_on_c,9,82,127,
2,3205,Note_off_c,9,36,0,
2,3206,Note_on_c,9,36,127,
2,3206,Note_on_c,9,37,127,
2,3206,Note_on_c,9,38,127,
2,3206,Note_on_c,9,39,127,
2,3206,Note_on_c,9,41,127,
2,3206,Note_on_c,9,42,127,
2,3206,Note_on_c,9,43,127,
2,3206,Note_on_c,9,45,127,
2,3206,Note_on_c,9,48,127,
2,3206,Note_on_c,9,51,127,
2,3206,Note_on_c,9,53,127,
2,3206,Note_on_c,9,80,127,
2,3206,Note_on_c,9,81,127,
2,3206,Note_on_c,9,82,127,
2,3207,Note_off_c,9,36,0,
2,3208,Note_on_c,9,36,127,
2,3208,Note_on_c,9,37,127,
2,3208,Note_on_c,9,38,127,
2,3208,Note_on_c,9,39,127,
2,3208,Note_on_c,9,41,127,
2,3208,Note_on_c,9,42,127,
2,3208,Note_on_c,9,43,127,
2,3208,Note_on_c,9,45,127,
2,3208,Note_on_c,9,48,127,
2,3208,Note_on_c,9,51,127,
2,3208,Note_on_c,9,53,127,
2,3208,Note_on_c,9,80,127,
2,3208,Note_on_c,9,81,127,
2,3208,Note_on_c,9,82,127,
2,3209,Note_off_c,9,36,0,
2,3210,Note_on_c,9,36,127,
2,3210,Note_on_c,9,37,127,
2,3210,Note_on_c,9,38,127,
2,3210,Note_on_c,9,39,127,
2,3210,Note_on_c,9,41,127,
2,3210,Note_on_c,9,42,127,
2,3210,Note_on_c,9,43,127,
2,3210,Note_on_c,9,45,127,
2,3210,Note_on_c,9,48,127,
2,3210,Note_on_c,9,51,127,
2,3210,Note_on_c,9,53,127,
2,3210,Note_on_c,9,80,127,
2,3210,Note_on_c,9,81,127,
2,3210,Note_on_c,9,82,127,
2,3211,Note_off_c,9,36,0,
2,3212,Note_on_c,9,36,127,
2,3212,Note_on_c,9,37,127,
2,3212,Note_on_c,9,38,127,
2,3212,Note_on_c,9,39,127,
2,3212,Note_on_c,9,41,127,
2,3212,Note_on_c,9,42,127,
2,3212,Note_on_c,9,43,127,
2,3212,Note_on_c,9,45,127,
2,3212,Note_on_c,9,48,127,
2,3212,Note_on_c,9,51,127,
2,3212,Note_on_c,9,53,127,
2,3212,Note_on_c,9,80,127,
2,3212,Note_on_c,9,81,127,
2,3212,Note_on_c,9,82,127,
2,3213,Note_off_c,9,36,0,
2,3214,Note_on_c,9,36,127,
2,3214,Note_on_c,9,37,127,
2,3214,Note_on_c,9,38,127,
2,3214,Note_on_c,9,39,127,
2,3214,Note_on_c,9,41,127,
2,3214,Note_on_c,9,42,127,
2,3214,Note_on_c,9,43,127,
2,3214,Note_on_c,9,45,127,
2,3214,Note_on_c,9,48,127,
2,3214,Note_on_c,9,51,127,
2,3214,Note_on_c,9,53,127,
2,3214,Note_on_c,9,80,127,
2,3214,Note_on_c,9,81,127,
2,3214,Note_on_c,9,82,127,
2,3215,Note_off_c,9,36,0,
2,3216,Note_on_c,9,36,127,
2,3216,Note_on_c,9,37,127,
2,3216,Note_on_c,9,38,127,
2,3216,Note_on_c,9,39,127,
2,3216,Note_on_c,9,41,127,
2,3216,Note_on_c,9,42,127,
2,3216,Note_on_c,9,43,127,
2,3216,Note_on_c,9,45,127,
2,3216,Note_on_c,9,48,127,
2,3216,Note_on_c,9,51,127,
2,3216,Note_on_c,9,53,127,
2,3216,Note_on_c,9,80,127,
2,3216,Note_on_c,9,81,127,
2,3216,Note_on_c,9,82,127,
2,3217,Note_off_c,9,36,0,
2,3218,Note_on_c,9,36,127,
2,3218,Note_on_c,9,37,127,
2,3218,Note_on_c,9,38,127,
2,3218,Note_on_c,9,39,127,
2,3218,Note_on_c,9,41,127,
2,3218,Note_on_c,9,42,127,
2,3218,Note_on_c,9,43,127,
2,3218,Note_on_c,9,45,127,
2,3218,Note_on_c,9,48,127,
2,3218,Note_on_c,9,51,127,
2,3218,Note_on_c,9,53,127,
2,3218,Note_on_c,9,80,127,
2,3218,Note_on_c,9,81,127,
2,3218,Note_on_c,9,82,127,
2,3219,Note_off_c,9,36,0,
2,3220,Note_on_c,9,36,127,
2,3220,Note_on_c,9,37,127,
2,3220,Note_on_c,9,38,127,
2,3220,Note_on_c,9,39,127,
2,3220,Note_on_c,9,41,127,
2,3220,Note_on_c,9,42,127,
2,3220,Note_on_c,9,43,127,
2,3220,Note_on_c,9,45,127,
2,3220,Note_on_c,9,48,127,
2,3220,Note_on_c,9,51,127,
2,3220,Note_on_c,9,53,127,
2,3220,Note_on_c,9,80,127,
2,3220,Note_on_c,9,81,127,
2,3220,Note_on_c,9,82,127,
2,3221,Note_off_c,9,36,0,
2,3222,Note_on_c,9,36,127,
2,3222,Note_on_c,9,37,127,
2,3222,Note_on_c,9,38,127,
2,3222,Note_on_c,9,39,127,
2,3222,Note_on_c,9,41,127,
2,3222,Note_on_c,9,42,127,
2,3222,Note_on_c,9,43,127,
2,3222,Note_on_c,9,45,127,
2,3222,Note_on_c,9,48,127,
2,3222,Note_on_c,9,51,127,
2,3222,Note_on_c,9,53,127,
2,3222,Note_on_c,9,80,127,
2,3222,Note_on_c,9,81,127,
2,3222,Note_on_c,9,82,127,
2,3223,Note_off_c,9,36,0,
2,3224,Note_on_c,9,36,127,
2,3224,Note_on_c,9,37,127,
2,3224,Note_on_c,9,38,127,
2,3224,Note_on_c,9,39,127,
2,3224,Note_on_c,9,41,127,
2,3224,Note_on_c,9,42,127,
2,3224,Note_on_c,9,43,127,
2,3224,Note_on_c,9,45,127,
2,3224,Note_on_c,9,48,127,
2,3224,Note_on_c,9,51,127,
2,3224,Note_on_c,9,53,127,
2,3224,Note_on_c,9,80,127,
2,3224,Note_on_c,9,81,127,
2,3224,Note_on_c,9,82,127,
2,3225,Note_off_c,9,36,0,
2,3226,Note_on_c,9,36,127,
2,3226,Note_on_c,9,37,127,
2,3226,Note_on_c,9,38,127,
2,3226,Note_on_c,9,39,127,
2,3226,Note_on_c,9,41,127,
2,3226,Note_on_c,9,42,127,
2,3226,Note_on_c,9,43,127,
2,3226,Note_on_c,9,45,127,
2,3226,Note_on_c,9,48,127,
2,3226,Note_on_c,9,51,127,
2,3226,Note_on_c,9,53,127,
2,3226,Note_on_c,9,80,127,
2,3226,Note_on_c,9,81,127,
2,3226,Note_on_c,9,82,127,
2,3227,Note_off_c,9,36,0,
2,3228,Note_on_c,9,36,127,
2,3228,Note_on_c,9,37,127,
2,3228,Note_on_c,9,38,127,
2,3228,Note_on_c,9,39,127,
2,3228,Note_on_c,9,41,127,
2,3228,Note_on_c,9,42,127,
2,3228,Note_on_c,9,43,127,
2,3228,Note_on_c,9,45,127,
2,3228,Note_on_c,9,48,127,
2,3228,Note_on_c,9,51,127,
2,3228,Note_on_c,9,53,127,
2,3228,Note_on_c,9,80,127,
2,3228,Note_on_c,9,81,127,
2,3228,Note_on_c,9,82,127,
2,3229,Note_off_c,9,36,0,
2,3230,Note_on_c,9,36,127,
2,3230,Note_on_c,9,37,127,
2,3230,Note_on_c,9,38,127,
2,3230,Note_on_c,9,39,127,
2,3230,Note_on_c,9,41,127,
2,3230,Note_on_c,9,42,127,
2,3230,Note_on_c,9,43,127,
2,3230,Note_on_c,9,45,127,
2,3230,Note_on_c,9,48,127,
2,3230,Note_on_c,9,51,127,
2,3230,Note_on_c,9,53,127,
2,3230,Note_on_c,9,80,127,
2,3230,Note_on_c,9,81,127,
2,3230,Note_on_c,9,82,127,
2,3231,Note_off_c,9,36,0,
2,3232,Note_on_c,9,36,127,
2,3232,Note_on_c,9,37,127,
2,3232,Note_on_c,9,38,127,
2,3232,Note_on_c,9,39,127,
2,3232,Note_on_c,9,41,127,
2,3232,Note_on_c,9,42,127,
2,3232,Note_on_c,9,43,127,
2,3232,Note_on_c,9,45,127,
2,3232,Note_on_c,9,48,127,
2,3232,Note_on_c,9,51,127,
2,3232,Note_on_c,9,53,127,
2,3232,Note_on_c,9,80,127,
2,3232,Note_on_c,9,81,127,
2,3232,Note_on_c,9,82,127,
2,3233,Note_off_c,9,36,0,
2,3234,Note_on_c,9,36,127,
2,3234,Note_on_c,9,37,127,
2,3234,Note_on_c,9,38,127,
2,3234,Note_on_c,9,39,127,
2,3234,Note_on_c,9,41,127,
2,3234,Note_on_c,9,42,127,
2,3234,Note_on_c,9,43,127,
2,3234,Note_on_c,9,45,127,
2,3234,Note_on_c,9,48,127,
2,3234,Note_on_c,9,51,127,
2,3234,Note_on_c,9,53,127,
2,3234,Note_on_c,9,80,127,
2,3234,Note_on_c,9,81,127,
2,3234,Note_on_c,9,82,127,
2,3235,Note_off_c,9,36,0,
2,3236,Note_on_c,9,36,127,
2,3236,Note_on_c,9,37,127,
2,3236,Note_on_c,9,38,127,
2,3236,Note_on_c,9,39,127,
2,3236,Note_on_c,9,41,127,
2,3236,Note_on_c,9,42,127,
2,3236,Note_on_c,9,43,127,
2,3236,Note_on_c,9,45,127,
2,3236,Note_on_c,9,48,127,
2,3236,Note_on_c,9,51,127,
2,3236,Note_on_c,9,53,127,
2,3236,Note_on_c,9,80,127,
2,3236,Note_on_c,9,81,127,
2,3236,Note_on_c,9,82,127,
2,3237,Note_off_c,9,36,0,
2,3238,Note_on_c,9,36,127,
2,3238,Note_on_c,9,37,127,
2,3238,Note_on_c,9,38,127,
2,3238,Note_on_c,9,39,127,
2,3238,Note_on_c,9,41,127,
2,3238,Note_on_c,9,42,127,
2,3238,Note_on_c,9,43,127,
2,3238,Note_on_c,9,45,127,
2,3238,Note_on_c,9,48,127,
2,3238,Note_on_c,9,51,127,
2,3238,Note_on_c,9,53,127,
2,3238,Note_on_c,9,80,127,
2,3238,Note_on_c,9,81,127,
2,3238,Note_on_c,9,82,127,
2,3239,Note_off_c,9,36,0,
2,3240,Note_on_c,9,36,127,
2,3240,Note_on_c,9,37,127,
2,3240,Note_on_c,9,38,127,
2,3240,Note_on_c,9,39,127,
2,3240,Note_on_c,9,41,127,
2,3240,Note_on_c,9,42,127,
2,3240,Note_on_c,9,43,127,
2,3240,Note_on_c,9,45,127,
2,3240,Note_on_c,9,48,127,
2,3240,Note_on_c,9,51,127,
2,3240,Note_on_c,9,53,127,
2,3240,Note_on_c,9,80,127,
2,3240,Note_on_c,9,81,127,
2,3240,Note_on_c,9,82,127,
2,3241,Note_off_c,9,36,0,
2,3242,Note_on_c,9,36,127,
2,3242,Note_on_c,9,37,127,
2,3242,Note_on_c,9,38,127,
2,3242,Note_on_c,9,39,127,
2,3242,Note_on_c,9,41,127,
2,3242,Note_on_c,9,42,127,
2,3242,Note_on_c,9,43,127,
2,3242,Note_on_c,9,45,127,
2,3242,Note_on_c,9,48,127,
2,3242,Note_on_c,9,51,127,
2,3242,Note_on_c,9,53,127,
2,3242,Note_on_c,9,80,127,
2,3242,Note_on_c,9,81,127,
2,3242,Note_on_c,9,82,127,
2,3243,Note_off_c,9,36,0,
2,3244,Note_on_c,9,36,127,
2,3244,Note_on_c,9,37,127,
2,3244,Note_on_c,9,38,127,
2,3244,Note_on_c,9,39,127,
2,3244,Note_on_c,9,41,127,
2,3244,Note_on_c,9,42,127,
2,3244,Note_on_c,9,43,127,
2,3244,Note_on_c,9,45,127,
2,3244,Note_on_c,9,48,127,
2,3244,Note_on_c,9,51,127,
2,3244,Note_on_c,9,53,127,
2,3244,Note_on_c,9,80,127,
2,3244,Note_on_c,9,81,127,
2,3244,Note_on_c,9,82,127,
2,3245,Note_off_c,9,36,0,
2,3246,Note_on_c,9,36,127,
2,3246,Note_on_c,9,37,127,
2,3246,Note_on_c,9,38,127,
2,3246,Note_on_c,9,39,127,
2,3246,Note_on_c,9,41,127,
2,3246,Note_on_c,9,42,127,
2,3246,Note_on_c,9,43,127,
2,3246,Note_on_c,9,45,127,
2,3246,Note_on_c,9,48,127,
2,3246,Note_on_c,9,51,127,
2,3246,Note_on_c,9,53,127,
2,3246,Note_on_c,9,80,127,
2,3246,Note_on_c,9,81,127,
2,3246,Note_on_c,9,82,127,
2,3247,Note_off_c,9,36,0,
2,3248,Note_on_c,9,36,127,
2,3248,Note_on_c,9,37,127,
2,3248,Note_on_c,9,38,127,
2,3248,Note_on_c,9,39,127,
2,3248,Note_on_c,9,41,127,
2,3248,Note_on_c,9,42,127,
2,3248,Note_on_c,9,43,127,
2,3248,Note_on_c,9,45,127,
2,3248,Note_on_c,9,48,127,
2,3248,Note_on_c,9,51,127,
2,3248,Note_on_c,9,53,127,
2,3248,Note_on_c,9,80,127,
2,3248,Note_on_c,9,81,127,
2,3248,Note_on_c,9,82,127,
2,3249,Note_off_c,9,36,0,
2,3250,Note_on_c,9,36,127,
2,3250,Note_on_c,9,37,127,
2,3250,Note_on_c,9,38,127,
2,3250,Note_on_c,9,39,127,
2,3250,Note_on_c,9,41,127,
2,3250,Note_on_c,9,42,127,
2,3250,Note_on_c,9,43,127,
2,3250,Note_on_c,9,45,127,
2,3250,Note_on_c,9,48,127,
2,3250,Note_on_c,9,51,127,
2,3250,Note_on_c,9,53,127,
2,3250,Note_on_c,9,80,127,
2,3250,Note_on_c,9,81,127,
2,3250,Note_on_c,9,82,127,
2,3251,Note_off_c,9,36,0,
2,3252,Note_on_c,9,36,127,
2,3252,Note_on_c,9,37,127,
2,3252,Note_on_c,9,38,127,
2,3252,Note_on_c,9,39,127,
2,3252,Note_on_c,9,41,127,
2,3252,Note_on_c,9,42,127,
2,3252,Note_on_c,9,43,127,
2,3252,Note_on_c,9,45,127,
2,3252,Note_on_c,9,48,127,
2,3252,Note_on_c,9,51,127,
2,3252,Note_on_c,9,53,127,
2,3252,Note_on_c,9,80,127,
2,3252,Note_on_c,9,81,127,
2,3252,Note_on_c,9,82,127,
2,3253,Note_off_c,9,36,0,
2,3254,Note_on_c,9,36,127,
2,3254,Note_on_c,9,37,127,
2,3254,Note_on_c,9,38,127,
2,3254,Note_on_c,9,39,127,
2,3254,Note_on_c,9,41,127,
2,3254,Note_on_c,9,42,127,
2,3254,Note_on_c,9,43,127,
2,3254,Note_on_c,9,45,127,
2,3254,Note_on_c,9,48,127,
2,3254,Note_on_c,9,51,127,
2,3254,Note_on_c,9,53,127,
2,3254,Note_on_c,9,80,127,
2,3254,Note_on_c,9,81,127,
2,3254,Note_on_c,9,82,127,
2,3255,Note_off_c,9,36,0,
2,3256,Note_on_c,9,36,127,
2,3256,Note_on_c,9,37,127,
2,3256,Note_on_c,9,38,127,
2,3256,Note_on_c,9,39,127,
2,3256,Note_on_c,9,41,127,
2,3256,Note_on_c,9,42,127,
2,3256,Note_on_c,9,43,127,
2,3256,Note_on_c,9,45,127,
2,3256,Note_on_c,9,48,127,
2,3256,Note_on_c,9,51,127,
2,3256,Note_on_c,9,53,127,
2,3256,Note_on_c,9,80,127,
2,3256,Note_on_c,9,81,127,
2,3256,Note_on_c,9,82,127,
2,3257,Note_off_c,9,36,0,
2,3258,Note_on_c,9,36,127,
2,3258,Note_on_c,9,37,127,
2,3258,Note_on_c,9,38,127,
2,3258,Note_on_c,9,39,127,
2,3258,Note_on_c,9,41,127,
2,3258,Note_on_c,9,42,127,
2,3258,Note_on_c,9,43,127,
2,3258,Note_on_c,9,45,127,
2,3258,Note_on_c,9,48,127,
2,3258,Note_on_c,9,51,127,
2,3258,Note_on_c,9,53,127,
2,3258,Note_on_c,9,80,127,
2,3258,Note_on_c,9,81,127,
2,3258,Note_on_c,9,82,127,
2,3259,Note_off_c,9,36,0,
2,3260,Note_on_c,9,36,127,
2,3260,Note_on_c,9,37,127,
2,3260,Note_on_c,9,38,127,
2,3260,Note_on_c,9,39,127,
2,3260,Note_on_c,9,41,127,
2,3260,Note_on_c,9,42,127,
2,3260,Note_on_c,9,43,127,
2,3260,Note_on_c,9,45,127,
2,3260,Note_on_c,9,48,127,
2,3260,Note_on_c,9,51,127,
2,3260,Note_on_c,9,53,127,
2,3260,Note_on_c,9,80,127,
2,3260,Note_on_c,9,81,127,
2,3260,Note_on_c,9,82,127,
2,3261,Note_off_c,9,36,0,
2,3262,Note_on_c,9,36,127,
2,3262,Note_on_c,9,37,127,
2,3262,Note_on_c,9,38,127,
2,3262,Note_on_c,9,39,127,
2,3262,Note_on_c,9,41,127,
2,3262,Note_on_c,9,42,127,
2,3262,Note_on_c,9,43,127,
2,3262,Note_on_c,9,45,127,
2,3262,Note_on_c,9,48,127,
2,3262,Note_on_c,9,51,127,
2,3262,Note_on_c,9,53,127,
2,3262,Note_on_c,9,80,127,
2,3262,Note_on_c,9,81,127,
2,3262,Note_on_c,9,82,127,
2,3263,Note_off_c,9,36,0,
2,3264,Note_on_c,9,36,127,
2,3264,Note_on_c,9,37,127,
2,3264,Note_on_c,9,38,127,
2,3264,Note_on_c,9,39,127,
2,3264,Note_on_c,9,41,127,
2,3264,Note_on_c,9,42,127,
2,3264,Note_on_c,9,43,127,
2,3264,Note_on_c,9,45,127,
2,3264,Note_on_c,9,48,127,
2,3264,Note_on_c,9,51,127,
2,3264,Note_on_c,9,53,127,
2,3264,Note_on_c,9,80,127,
2,3264,Note_on_c,9,81,127,
2,3264,Note_on_c,9,82,127,
2,3265,Note_off_c,9,36,0,
2,3266,Note_on_c,9,36,127,
2,3266,Note_on_c,9,37,127,
2,3266,Note_on_c,9,38,127,
2,3266,Note_on_c,9,39,127,
2,3266,Note_on_c,9,41,127,
2,3266,Note_on_c,9,42,127,
2,3266,Note_on_c,9,43,127,
2,3266,Note_on_c,9,45,127,
2,3266,Note_on_c,9,48,127,
2,3266,Note_on_c,9,51,127,
2,3266,Note_on_c,9,53,127,
2,3266,Note_on_c,9,80,127,
2,3266,Note_on_c,9,81,127,
2,3266,Note_on_c,9,82,127,
2,3267,Note_off_c,9,36,0,
2,3268,Note_on_c,9,36,127,
2,3268,Note_on_c,9,37,127,
2,3268,Note_on_c,9,38,127,
2,3268,Note_on_c,9,39,127,
2,3268,Note_on_c,9,41,127,
2,3268,Note_on_c,9,42,127,
2,3268,Note_on_c,9,43,127,
2,3268,Note_on_c,9,45,127,
2,3268,Note_on_c,9,48,127,
2,3268,Note_on_c,9,51,127,
2,3268,Note_on_c,9,53,127,
2,3268,Note_on_c,9,80,127,
2,3268,Note_on_c,9,81,127,
2,3268,Note_on_c,9,82,127,
2,3269,Note_off_c,9,36,0,
2,3270,Note_on_c,9,36,127,
2,3270,Note_on_c,9,37,127,
2,3270,Note_on_c,9,38,127,
2,3270,Note_on_c,9,39,127,
2,3270,Note_on_c,9,41,127,
2,3270,Note_on_c,9,42,127,
2,3270,Note_on_c,9,43,127,
2,3270,Note_on_c,9,45,127,
2,3270,Note_on_c,9,48,127,
2,3270,Note_on_c,9,51,127,
2,3270,Note_on_c,9,53,127,
2,3270,Note_on_c,9,80,127,
2,3270,Note_on_c,9,81,127,
2,3270,Note_on_c,9,82,127,
2,3271,Note_off_c,9,36,0,
2,3272,Note_on_c,9,36,127,
2,3272,Note_on_c,9,37,127,
2,3272,Note_on_c,9,38,127,
2,3272,Note_on_c,9,39,127,
2,3272,Note_on_c,9,41,127,
2,3272,Note_on_c,9,42,127,
2,3272,Note_on_c,9,43,127,
2,3272,Note_on_c,9,45,127,
2,3272,Note_on_c,9,48,127,
2,3272,Note_on_c,9,51,127,
2,3272,Note_on_c,9,53,127,
2,3272,Note_on_c,9,80,127,
2,3272,Note_on_c,9,81,127,
2,3272,Note_on_c,9,82,127,
2,3273,Note_off_c,9,36,0,
2,3274,Note_on_c,9,36,127,
2,3274,Note_on_c,9,37,127,
2,3274,Note_on_c,9,38,127,
2,3274,Note_on_c,9,39,127,
2,3274,Note_on_c,9,41,127,
2,3274,Note_on_c,9,42,127,
2,3274,Note_on_c,9,43,127,
2,3274,Note_on_c,9,45,127,
2,3274,Note_on_c,9,48,127,
2,3274,Note_on_c,9,51,127,
2,3274,Note_on_c,9,53,127,
2,3274,Note_on_c,9,80,127,
2,3274,Note_on_c,9,81,127,
2,3274,Note_on_c,9,82,127,
2,3275,Note_off_c,9,36,0,
2,3276,Note_on_c,9,36,127,
2,3276,Note_on_c,9,37,127,
2,3276,Note_on_c,9,38,127,
2,3276,Note_on_c,9,39,127,
2,3276,Note_on_c,9,41,127,
2,3276,Note_on_c,9,42,127,
2,3276,Note_on_c,9,43,127,
2,3276,Note_on_c,9,45,127,
2,3276,Note_on_c,9,48,127,
2,3276,Note_on_c,9,51,127,
2,3276,Note_on_c,9,53,127,
2,3276,Note_on_c,9,80,127,
2,3276,Note_on_c,9,81,127,
2,3276,Note_on_c,9,82,127,
2,3277,Note_off_c,9,36,0,
2,3278,Note_on_c,9,36,127,
2,3278,Note_on_c,9,37,127,
2,3278,Note_on_c,9,38,127,
2,3278,Note_on_c,9,39,127,
2,3278,Note_on_c,9,41,127,
2,3278,Note_on_c,9,42,127,
2,3278,Note_on_c,9,43,127,
2,3278,Note_on_c,9,45,127,
2,3278,Note_on_c,9,48,127,
2,3278,Note_on_c,9,51,127,
2,3278,Note_on_c,9,53,127,
2,3278,Note_on_c,9,80,127,
2,3278,Note_on_c,9,81,127,
2,3278,Note_on_c,9,82,127,
2,3279,Note_off_c,9,36,0,
2,3280,Note_on_c,9,36,127,
2,3280,Note_on_c,9,37,127,
2,3280,Note_on_c,9,38,127,
2,3280,Note_on_c,9,39,127,
2,3280,Note_on_c,9,41,127,
2,3280,Note_on_c,9,42,127,
2,3280,Note_on_c,9,43,127,
2,3280,Note_on_c,9,45,127,
2,3280,Note_on_c,9,48,127,
2,3280,Note_on_c,9,51,127,
2,3280,Note_on_c,9,53,127,
2,3280,Note_on_c,9,80,127,
2,3280,Note_on_c,9,81,127,
2,3280,Note_on_c,9,82,127,
2,3281,Note_off_c,9,36,0,
2,3282,Note_on_c,9,36,127,
2,3282,Note_on_c,9,37,127,
2,3282,Note_on_c,9,38,127,
2,3282,Note_on_c,9,39,127,
2,3282,Note_on_c,9,41,127,
2,3282,Note_on_c,9,42,127,
2,3282,Note_on_c,9,43,127,
2,3282,Note_on_c,9,45,127,
2,3282,Note_on_c,9,48,127,
2,3282,Note_on_c,9,51,127,
2,3282,Note_on_c,9,53,127,
2,3282,Note_on_c,9,80,127,
2,3282,Note_on_c,9,81,127,
2,3282,Note_on_c,9,82,127,
2,3283,Note_off_c,9,36,0,
2,3284,Note_on_c,9,36,127,
2,3284,Note_on_c,9,37,127,
2,3284,Note_on_c,9,38,127,
2,3284,Note_on_c,9,39,127,
2,3284,Note_on_c,9,41,127,
2,3284,Note_on_c,9,42,127,
2,3284,Note_on_c,9,43,127,
2,3284,Note_on_c,9,45,127,
2,3284,Note_on_c,9,48,127,
2,3284,Note_on_c,9,51,127,
2,3284,Note_on_c,9,53,127,
2,3284,Note_on_c,9,80,127,
2,3284,Note_on_c,9,81,127,
2,3284,Note_on_c,9,82,127,
2,3285,Note_off_c,9,36,0,
2,3286,Note_on_c,9,36,127,
2,3286,Note_on_c,9,37,127,
2,3286,Note_on_c,9,38,127,
2,3286,Note_on_c,9,39,127,
2,3286,Note_on_c,9,41,127,
2,3286,Note_on_c,9,42,127,
2,3286,Note_on_c,9,43,127,
2,3286,Note_on_c,9,45,127,
2,3286,Note_on_c,9,48,127,
2,3286,Note_on_c,9,51,127,
2,3286,Note_on_c,9,53,127,
2,3286,Note_on_c,9,80,127,
2,3286,Note_on_c,9,81,127,
2,3286,Note_on_c,9,82,127,
2,3287,Note_off_c,9,36,0,
2,3288,Note_on_c,9,36,127,
2,3288,Note_on_c,9,37,127,
2,3288,Note_on_c,9,38,127,
2,3288,Note_on_c,9,39,127,
2,3288,Note_on_c,9,41,127,
2,3288,Note_on_c,9,42,127,
2,3288,Note_on_c,9,43,127,
2,3288,Note_on_c,9,45,127,
2,3288,Note_on_c,9,48,127,
2,3288,Note_on_c,9,51,127,
2,3288,Note_on_c,9,53,127,
2,3288,Note_on_c,9,80,127,
2,3288,Note_on_c,9,81,127,
2,3288,Note_on_c,9,82,127,
2,3289,Note_off_c,9,36,0,
2,3290,Note_on_c,9,36,127,
2,3290,Note_on_c,9,37,127,
2,3290,Note_on_c,9,38,127,
2,3290,Note_on_c,9,39,127,
2,3290,Note_on_c,9,41,127,
2,3290,Note_on_c,9,42,127,
2,3290,Note_on_c,9,43,127,
2,3290,Note_on_c,9,45,127,
2,3290,Note_on_c,9,48,127,
2,3290,Note_on_c,9,51,127,
2,3290,Note_on_c,9,53,127,
2,3290,Note_on_c,9,80,127,
2,3290,Note_on_c,9,81,127,
2,3290,Note_on_c,9,82,127,
2,3291,Note_off_c,9,36,0,
2,3292,Note_on_c,9,36,127,
2,3292,Note_on_c,9,37,127,
2,3292,Note_on_c,9,38,127,
2,3292,Note_on_c,9,39,127,
2,3292,Note_on_c,9,41,127,
2,3292,Note_on_c,9,42,127,
2,3292,Note_on_c,9,43,127,
2,3292,Note_on_c,9,45,127,
2,3292,Note_on_c,9,48,127,
2,3292,Note_on_c,9,51,127,
2,3292,Note_on_c,9,53,127,
2,3292,Note_on_c,9,80,127,
2,3292,Note_on_c,9,81,127,
2,3292,Note_on_c,9,82,127,
2,3293,Note_off_c,9,36,0,
2,3294,Note_on_c,9,36,127,
2,3294,Note_on_c,9,37,127,
2,3294,Note_on_c,9,38,127,
2,3294,Note_on_c,9,39,127,
2,3294,Note_on_c,9,41,127,
2,3294,Note_on_c,9,42,127,
2,3294,Note_on_c,9,43,127,
2,3294,Note_on_c,9,45,127,
2,3294,Note_on_c,9,48,127,
2,3294,Note_on_c,9,51,127,
2,3294,Note_on_c,9,53,127,
2,3294,Note_on_c,9,80,127,
2,3294,Note_on_c,9,81,127,
2,3294,Note_on_c,9,82,127,
2,3295,Note_off_c,9,36,0,
2,3296,Note_on_c,9,36,127,
2,3296,Note_on_c,9,37,127,
2,3296,Note_on_c,9,38,127,
2,3296,Note_on_c,9,39,127,
2,3296,Note_on_c,9,41,127,
2,3296,Note_on_c,9,42,127,
2,3296,Note_on_c,9,43,127,
2,3296,Note_on_c,9,45,127,
2,3296,Note_on_c,9,48,127,
2,3296,Note_on_c,9,51,127,
2,3296,Note_on_c,9,53,127,
2,3296,Note_on_c,9,80,127,
2,3296,Note_on_c,9,81,127,
2,3296,Note_on_c,9,82,127,
2,3297,Note_off_c,9,36,0,
2,3298,Note_on_c,9,36,127,
2,3298,Note_on_c,9,37,127,
2,3298,Note_on_c,9,38,127,
2,3298,Note_on_c,9,39,127,
2,3298,Note_on_c,9,41,127,
2,3298,Note_on_c,9,42,127,
2,3298,Note_on_c,9,43,127,
2,3298,Note_on_c,9,45,127,
2,3298,Note_on_c,9,48,127,
2,3298,Note_on_c,9,51,127,
2,3298,Note_on_c,9,53,127,
2,3298,Note_on_c,9,80,127,
2,3298,Note_on_c,9,81,127,
2,3298,Note_on_c,9,82,127,
2,3299,Note_off_c,9,36,0,
2,3300,Note_on_c,9,36,127,
2,3300,Note_on_c,9,37,127,
2,3300,Note_on_c,9,38,127,
2,3300,Note_on_c,9,39,127,
2,3300,Note_on_c,9,41,127,
2,3300,Note_on_c,9,42,127,
2,3300,Note_on_c,9,43,127,
2,3300,Note_on_c,9,45,127,
2,3300,Note_on_c,9,48,127,
2,3300,Note_on_c,9,51,127,
2,3300,Note_on_c,9,53,127,
2,3300,Note_on_c,9,80,127,
2,3300,Note_on_c,9,81,127,
2,3300,Note_on_c,9,82,127,
2,3301,Note_off_c,9,36,0,
2,3302,Note_on_c,9,36,127,
2,3302,Note_on_c,9,37,127,
2,3302,Note_on_c,9,38,127,
2,3302,Note_on_c,9,39,127,
2,3302,Note_on_c,9,41,127,
2,3302,Note_on_c,9,42,127,
2,3302,Note_on_c,9,43,127,
2,3302,Note_on_c,9,45,127,
2,3302,Note_on_c,9,48,127,
2,3302,Note_on_c,9,51,127,
2,3302,Note_on_c,9,53,127,
2,3302,Note_on_c,9,80,127,
2,3302,Note_on_c,9,81,127,
2,3302,Note_on_c,9,82,127,
2,3303,Note_off_c,9,36,0,
2,3304,Note_on_c,9,36,127,
2,3304,Note_on_c,9,37,127,
2,3304,Note_on_c,9,38,127,
2,3304,Note_on_c,9,39,127,
2,3304,Note_on_c,9,41,127,
2,3304,Note_on_c,9,42,127,
2,3304,Note_on_c,9,43,127,
2,3304,Note_on_c,9,45,127,
2,3304,Note_on_c,9,48,127,
2,3304,Note_on_c,9,51,127,
2,3304,Note_on_c,9,53,127,
2,3304,Note_on_c,9,80,127,
2,3304,Note_on_c,9,81,127,
2,3304,Note_on_c,9,82,127,
2,3305,Note_off_c,9,36,0,
2,3306,Note_on_c,9,36,127,
2,3306,Note_on_c,9,37,127,
2,3306,Note_on_c,9,38,127,
2,3306,Note_on_c,9,39,127,
2,3306,Note_on_c,9,41,127,
2,3306,Note_on_c,9,42,127,
2,3306,Note_on_c,9,43,127,
2,3306,Note_on_c,9,45,127,
2,3306,Note_on_c,9,48,127,
2,3306,Note_on_c,9,51,127,
2,3306,Note_on_c,9,53,127,
2,3306,Note_on_c,9,80,127,
2,3306,Note_on_c,9,81,127,
2,3306,Note_on_c,9,82,127,
2,3307,Note_off_c,9,36,0,
2,3308,Note_on_c,9,36,127,
2,3308,Note_on_c,9,37,127,
2,3308,Note_on_c,9,38,127,
2,3308,Note_on_c,9,39,127,
2,3308,Note_on_c,9,41,127,
2,3308,Note_on_c,9,42,127,
2,3308,Note_on_c,9,43,127,
2,3308,Note_on_c,9,45,127,
2,3308,Note_on_c,9,48,127,
2,3308,Note_on_c,9,51,127,
2,3308,Note_on_c,9,53,127,
2,3308,Note_on_c,9,80,127,
2,3308,Note_on_c,9,81,127,
2,3308,Note_on_c,9,82,127,
2,3309,Note_off_c,9,36,0,
2,3310,Note_on_c,9,36,127,
2,3310,Note_on_c,9,37,127,
2,3310,Note_on_c,9,38,127,
2,3310,Note_on_c,9,39,127,
2,3310,Note_on_c,9,41,127,
2,3310,Note_on_c,9,42,127,
2,3310,Note_on_c,9,43,127,
2,3310,Note_on_c,9,45,127,
2,3310,Note_on_c,9,48,127,
2,3310,Note_on_c,9,51,127,
2,3310,Note_on_c,9,53,127,
2,3310,Note_on_c,9,80,127,
2,3310,Note_on_c,9,81,127,
2,3310,Note_on_c,9,82,127,
2,3311,Note_off_c,9,36,0,
2,3312,Note_on_c,9,36,127,
2,3312,Note_on_c,9,37,127,
2,3312,Note_on_c,9,38,127,
2,3312,Note_on_c,9,39,127,
2,3312,Note_on_c,9,41,127,
2,3312,Note_on_c,9,42,127,
2,3312,Note_on_c,9,43,127,
2,3312,Note_on_c,9,45,127,
2,3312,Note_on_c,9,48,127,
2,3312,Note_on_c,9,51,127,
2,3312,Note_on_c,9,53,127,
2,3312,Note_on_c,9,80,127,
2,3312,Note_on_c,9,81,127,
2,3312,Note_on_c,9,82,127,
2,3313,Note_off_c,9,36,0,
2,3314,Note_on_c,9,36,127,
2,3314,Note_on_c,9,37,127,
2,3314,Note_on_c,9,38,127,
2,3314,Note_on_c,9,39,127,
2,3314,Note_on_c,9,41,127,
2,3314,Note_on_c,9,42,127,
2,3314,Note_on_c,9,43,127,
2,3314,Note_on_c,9,45,127,
2,3314,Note_on_c,9,48,127,
2,3314,Note_on_c,9,51,127,
2,3314,Note_on_c,9,53,127,
2,3314,Note_on_c,9,80,127,
2,3314,Note_on_c,9,81,127,
2,3314,Note_on_c,9,82,127,
2,3315,Note_off_c,9,36,0,
2,3316,Note_on_c,9,36,127,
2,3316,Note_on_c,9,37,127,
2,3316,Note_on_c,9,38,127,
2,3316,Note_on_c,9,39,127,
2,3316,Note_on_c,9,41,127,
2,3316,Note_on_c,9,42,127,
2,3316,Note_on_c,9,43,127,
2,3316,Note_on_c,9,45,127,
2,3316,Note_on_c,9,48,127,
2,3316,Note_on_c,9,51,127,
2,3316,Note_on_c,9,53,127,
2,3316,Note_on_c,9,80,127,
2,3316,Note_on_c,9,81,127,
2,3316,Note_on_c,9,82,127,
2,3317,Note_off_c,9,36,0,
2,3318,Note_on_c,9,36,127,
2,3318,Note_on_c,9,37,127,
2,3318,Note_on_c,9,38,127,
2,3318,Note_on_c,9,39,127,
2,3318,Note_on_c,9,41,127,
2,3318,Note_on_c,9,42,127,
2,3318,Note_on_c,9,43,127,
2,3318,Note_on_c,9,45,127,
2,3318,Note_on_c,9,48,127,
2,3318,Note_on_c,9,51,127,
2,3318,Note_on_c,9,53,127,
2,3318,Note_on_c,9,80,127,
2,3318,Note_on_c,9,81,127,
2,3318,Note_on_c,9,82,127,
2,3319,Note_off_c,9,36,0,
2,3320,Note_on_c,9,36,127,
2,3320,Note_on_c,9,37,127,
2,3320,Note_on_c,9,38,127,
2,3320,Note_on_c,9,39,127,
2,3320,Note_on_c,9,41,127,
2,3320,Note_on_c,9,42,127,
2,3320,Note_on_c,9,43,127,
2,3320,Note_on_c,9,45,127,
2,3320,Note_on_c,9,48,127,
2,3320,Note_on_c,9,51,127,
2,3320,Note_on_c,9,53,127,
2,3320,Note_on_c,9,80,127,
2,3320,Note_on_c,9,81,127,
2,3320,Note_on_c,9,82,127,
2,3321,Note_off_c,9,36,0,
2,3322,Note_on_c,9,36,127,
2,3322,Note_on_c,9,37,127,
2,3322,Note_on_c,9,38,127,
2,3322,Note_on_c,9,39,127,
2,3322,Note_on_c,9,41,127,
2,3322,Note_on_c,9,42,127,
2,3322,Note_on_c,9,43,127,
2,3322,Note_on_c,9,45,127,
2,3322,Note_on_c,9,48,127,
2,3322,Note_on_c,9,51,127,
2,3322,Note_on_c,9,53,127,
2,3322,Note_on_c,9,80,127,
2,3322,Note_on_c,9,81,127,
2,3322,Note_on_c,9,82,127,
2,3323,Note_off_c,9,36,0,
2,3324,Note_on_c,9,36,127,
2,3324,Note_on_c,9,37,127,
2,3324,Note_on_c,9,38,127,
2,3324,Note_on_c,9,39,127,
2,3324,Note_on_c,9,41,127,
2,3324,Note_on_c,9,42,127,
2,3324,Note_on_c,9,43,127,
2,3324,Note_on_c,9,45,127,
2,3324,Note_on_c,9,48,127,
2,3324,Note_on_c,9,51,127,
2,3324,Note_on_c,9,53,127,
2,3324,Note_on_c,9,80,127,
2,3324,Note_on_c,9,81,127,
2,3324,Note_on_c,9,82,127,
2,3325,Note_off_c,9,36,0,
2,3326,Note_on_c,9,36,127,
2,3326,Note_on_c,9,37,127,
2,3326,Note_on_c,9,38,127,
2,3326,Note_on_c,9,39,127,
2,3326,Note_on_c,9,41,127,
2,3326,Note_on_c,9,42,127,
2,3326,Note_on_c,9,43,127,
2,3326,Note_on_c,9,45,127,
2,3326,Note_on_c,9,48,127,
2,3326,Note_on_c,9,51,127,
2,3326,Note_on_c,9,53,127,
2,3326,Note_on_c,9,80,127,
2,3326,Note_on_c,9,81,127,
2,3326,Note_on_c,9,82,127,
2,3327,Note_off_c,9,36,0,
2,3328,Note_on_c,9,36,127,
2,3328,Note_on_c,9,37,127,
2,3328,Note_on_c,9,38,127,
2,3328,Note_on_c,9,39,127,
2,3328,Note_on_c,9,41,127,
2,3328,Note_on_c,9,42,127,
2,3328,Note_on_c,9,43,127,
2,3328,Note_on_c,9,45,127,
2,3328,Note_on_c,9,48,127,
2,3328,Note_on_c,9,51,127,
2,3328,Note_on_c,9,53,127,
2,3328,Note_on_c,9,80,127,
2,3328,Note_on_c,9,81,127,
2,3328,Note_on_c,9,82,127,
2,3329,Note_off_c,9,36,0,
2,3330,Note_on_c,9,36,127,
2,3330,Note_on_c,9,37,127,
2,3330,Note_on_c,9,38,127,
2,3330,Note_on_c,9,39,127,
2,3330,Note_on_c,9,41,127,
2,3330,Note_on_c,9,42,127,
2,3330,Note_on_c,9,43,127,
2,3330,Note_on_c,9,45,127,
2,3330,Note_on_c,9,48,127,
2,3330,Note_on_c,9,51,127,
2,3330,Note_on_c,9,53,127,
2,3330,Note_on_c,9,80,127,
2,3330,Note_on_c,9,81,127,
2,3330,Note_on_c,9,82,127,
2,3331,Note_off_c,9,36,0,
2,3332,Note_on_c,9,36,127,
2,3332,Note_on_c,9,37,127,
2,3332,Note_on_c,9,38,127,
2,3332,Note_on_c,9,39,127,
2,3332,Note_on_c,9,41,127,
2,3332,Note_on_c,9,42,127,
2,3332,Note_on_c,9,43,127,
2,3332,Note_on_c,9,45,127,
2,3332,Note_on_c,9,48,127,
2,3332,Note_on_c,9,51,127,
2,3332,Note_on_c,9,53,127,
2,3332,Note_on_c,9,80,127,
2,3332,Note_on_c,9,81,127,
2,3332,Note_on_c,9,82,127,
2,3333,Note_off_c,9,36,0,
2,3334,Note_on_c,9,36,127,
2,3334,Note_on_c,9,37,127,
2,3334,Note_on_c,9,38,127,
2,3334,Note_on_c,9,39,127,
2,3334,Note_on_c,9,41,127,
2,3334,Note_on_c,9,42,127,
2,3334,Note_on_c,9,43,127,
2,3334,Note_on_c,9,45,127,
2,3334,Note_on_c,9,48,127,
2,3334,Note_on_c,9,51,127,
2,3334,Note_on_c,9,53,127,
2,3334,Note_on_c,9,80,127,
2,3334,Note_on_c,9,81,127,
2,3334,Note_on_c,9,82,127,
2,3335,Note_off_c,9,36,0,
2,3336,Note_on_c,9,36,127,
2,3336,Note_on_c,9,37,127,
2,3336,Note_on_c,9,38,127,
2,3336,Note_on_c,9,39,127,
2,3336,Note_on_c,9,41,127,
2,3336,Note_on_c,9,42,127,
2,3336,Note_on_c,9,43,127,
2,3336,Note_on_c,9,45,127,
2,3336,Note_on_c,9,48,127,
2,3336,Note_on_c,9,51,127,
2,3336,Note_on_c,9,53,127,
2,3336,Note_on_c,9,80,127,
2,3336,Note_on_c,9,81,127,
2,3336,Note_on_c,9,82,127,
2,3337,Note_off_c,9,36,0,
2,3338,Note_on_c,9,36,127,
2,3338,Note_on_c,9,37,127,
2,3338,Note_on_c,9,38,127,
2,3338,Note_on_c,9,39,127,
2,3338,Note_on_c,9,41,127,
2,3338,Note_on_c,9,42,127,
2,3338,Note_on_c,9,43,127,
2,3338,Note_on_c,9,45,127,
2,3338,Note_on_c,9,48,127,
2,3338,Note_on_c,9,51,127,
2,3338,Note_on_c,9,53,127,
2,3338,Note_on_c,9,80,127,
2,3338,Note_on_c,9,81,127,
2,3338,Note_on_c,9,82,127,
2,3339,Note_off_c,9,36,0,
2,3340,Note_on_c,9,36,127,
2,3340,Note_on_c,9,37,127,
2,3340,Note_on_c,9,38,127,
2,3340,Note_on_c,9,39,127,
2,3340,Note_on_c,9,41,127,
2,3340,Note_on_c,9,42,127,
2,3340,Note_on_c,9,43,127,
2,3340,Note_on_c,9,45,127,
2,3340,Note_on_c,9,48,127,
2,3340,Note_on_c,9,51,127,
2,3340,Note_on_c,9,53,127,
2,3340,Note_on_c,9,80,127,
2,3340,Note_on_c,9,81,127,
2,3340,Note_on_c,9,82,127,
2,3341,Note_off_c,9,36,0,
2,3342,Note_on_c,9,36,127,
2,3342,Note_on_c,9,37,127,
2,3342,Note_on_c,9,38,127,
2,3342,Note_on_c,9,39,127,
2,3342,Note_on_c,9,41,127,
2,3342,Note_on_c,9,42,127,
2,3342,Note_on_c,9,43,127,
2,3342,Note_on_c,9,45,127,
2,3342,Note_on_c,9,48,127,
2,3342,Note_on_c,9,51,127,
2,3342,Note_on_c,9,53,127,
2,3342,Note_on_c,9,80,127,
2,3342,Note_on_c,9,81,127,
2,3342,Note_on_c,9,82,127,
2,3343,Note_off_c,9,36,0,
2,3344,Note_on_c,9,36,127,
2,3344,Note_on_c,9,37,127,
2,3344,Note_on_c,9,38,127,
2,3344,Note_on_c,9,39,127,
2,3344,Note_on_c,9,41,127,
2,3344,Note_on_c,9,42,127,
2,3344,Note_on_c,9,43,127,
2,3344,Note_on_c,9,45,127,
2,3344,Note_on_c,9,48,127,
2,3344,Note_on_c,9,51,127,
2,3344,Note_on_c,9,53,127,
2,3344,Note_on_c,9,80,127,
2,3344,Note_on_c,9,81,127,
2,3344,Note_on_c,9,82,127,
2,3345,Note_off_c,9,36,0,
2,3346,Note_on_c,9,36,127,
2,3346,Note_on_c,9,37,127,
2,3346,Note_on_c,9,38,127,
2,3346,Note_on_c,9,39,127,
2,3346,Note_on_c,9,41,127,
2,3346,Note_on_c,9,42,127,
2,3346,Note_on_c,9,43,127,
2,3346,Note_on_c,9,45,127,
2,3346,Note_on_c,9,48,127,
2,3346,Note_on_c,9,51,127,
2,3346,Note_on_c,9,53,127,
2,3346,Note_on_c,9,80,127,
2,3346,Note_on_c,9,81,127,
2,3346,Note_on_c,9,82,127,
2,3347,Note_off_c,9,36,0,
2,3348,Note_on_c,9,36,127,
2,3348,Note_on_c,9,37,127,
2,3348,Note_on_c,9,38,127,
2,3348,Note_on_c,9,39,127,
2,3348,Note_on_c,9,41,127,
2,3348,Note_on_c,9,42,127,
2,3348,Note_on_c,9,43,127,
2,3348,Note_on_c,9,45,127,
2,3348,Note_on_c,9,48,127,
2,3348,Note_on_c,9,51,127,
2,3348,Note_on_c,9,53,127,
2,3348,Note_on_c,9,80,127,
2,3348,Note_on_c,9,81,127,
2,3348,Note_on_c,9,82,127,
2,3349,Note_off_c,9,36,0,
2,3350,Note_on_c,9,36,127,
2,3350,Note_on_c,9,37,127,
2,3350,Note_on_c,9,38,127,
2,3350,Note_on_c,9,39,127,
2,3350,Note_on_c,9,41,127,
2,3350,Note_on_c,9,42,127,
2,3350,Note_on_c,9,43,127,
2,3350,Note_on_c,9,45,127,
2,3350,Note_on_c,9,48,127,
2,3350,Note_on_c,9,51,127,
2,3350,Note_on_c,9,53,127,
2,3350,Note_on_c,9,80,127,
2,3350,Note_on_c,9,81,127,
2,3350,Note_on_c,9,82,127,
2,3351,Note_off_c,9,36,0,
2,3352,Note_on_c,9,36,127,
2,3352,Note_on_c,9,37,127,
2,3352,Note_on_c,9,38,127,
2,3352,Note_on_c,9,39,127,
2,3352,Note_on_c,9,41,127,
2,3352,Note_on_c,9,42,127,
2,3352,Note_on_c,9,43,127,
2,3352,Note_on_c,9,45,127,
2,3352,Note_on_c,9,48,127,
2,3352,Note_on_c,9,51,127,
2,3352,Note_on_c,9,53,127,
2,3352,Note_on_c,9,80,127,
2,3352,Note_on_c,9,81,127,
2,3352,Note_on_c,9,82,127,
2,3353,Note_off_c,9,36,0,
2,3354,Note_on_c,9,36,127,
2,3354,Note_on_c,9,37,127,
2,3354,Note_on_c,9,38,127,
2,3354,Note_on_c,9,39,127,
2,3354,Note_on_c,9,41,127,
2,3354,Note_on_c,9,42,127,
2,3354,Note_on_c,9,43,127,
2,3354,Note_on_c,9,45,127,
2,3354,Note_on_c,9,48,127,
2,3354,Note_on_c,9,51,127,
2,3354,Note_on_c,9,53,127,
2,3354,Note_on_c,9,80,127,
2,3354,Note_on_c,9,81,127,
2,3354,Note_on_c,9,82,127,
2,3355,Note_off_c,9,36,0,
2,3356,Note_on_c,9,36,127,
2,3356,Note_on_c,9,37,127,
2,3356,Note_on_c,9,38,127,
2,3356,Note_on_c,9,39,127,
2,3356,Note_on_c,9,41,127,
2,3356,Note_on_c,9,42,127,
2,3356,Note_on_c,9,43,127,
2,3356,Note_on_c,9,45,127,
2,3356,Note_on_c,9,48,127,
2,3356,Note_on_c,9,51,127,
2,3356,Note_on_c,9,53,127,
2,3356,Note_on_c,9,80,127,
2,3356,Note_on_c,9,81,127,
2,3356,Note_on_c,9,82,127,
2,3357,Note_off_c,9,36,0,
2,3358,Note_on_c,9,36,127,
2,3358,Note_on_c,9,37,127,
2,3358,Note_on_c,9,38,127,
2,3358,Note_on_c,9,39,127,
2,3358,Note_on_c,9,41,127,
2,3358,Note_on_c,9,42,127,
2,3358,Note_on_c,9,43,127,
2,3358,Note_on_c,9,45,127,
2,3358,Note_on_c,9,48,127,
2,3358,Note_on_c,9,51,127,
2,3358,Note_on_c,9,53,127,
2,3358,Note_on_c,9,80,127,
2,3358,Note_on_c,9,81,127,
2,3358,Note_on_c,9,82,127,
2,3359,Note_off_c,9,36,0,
2,3360,Note_on_c,9,36,127,
2,3360,Note_on_c,9,37,127,
2,3360,Note_on_c,9,38,127,
2,3360,Note_on_c,9,39,127,
2,3360,Note_on_c,9,41,127,
2,3360,Note_on_c,9,42,127,
2,3360,Note_on_c,9,43,127,
2,3360,Note_on_c,9,45,127,
2,3360,Note_on_c,9,48,127,
2,3360,Note_on_c,9,51,127,
2,3360,Note_on_c,9,53,127,
2,3360,Note_on_c,9,80,127,
2,3360,Note_on_c,9,81,127,
2,3360,Note_on_c,9,82,127,
2,3361,Note_off_c,9,36,0,
2,3362,Note_on_c,9,36,127,
2,3362,Note_on_c,9,37,127,
2,3362,Note_on_c,9,38,127,
2,3362,Note_on_c,9,39,127,
2,3362,Note_on_c,9,41,127,
2,3362,Note_on_c,9,42,127,
2,3362,Note_on_c,9,43,127,
2,3362,Note_on_c,9,45,127,
2,3362,Note_on_c,9,48,127,
2,3362,Note_on_c,9,51,127,
2,3362,Note_on_c,9,53,127,
2,3362,Note_on_c,9,80,127,
2,3362,Note_on_c,9,81,127,
2,3362,Note_on_c,9,82,127,
2,3363,Note_off_c,9,36,0,
2,3364,Note_on_c,9,36,127,
2,3364,Note_on_c,9,37,127,
2,3364,Note_on_c,9,38,127,
2,3364,Note_on_c,9,39,127,
2,3364,Note_on_c,9,41,127,
2,3364,Note_on_c,9,42,127,
2,3364,Note_on_c,9,43,127,
2,3364,Note_on_c,9,45,127,
2,3364,Note_on_c,9,48,127,
2,3364,Note_on_c,9,51,127,
2,3364,Note_on_c,9,53,127,
2,3364,Note_on_c,9,80,127,
2,3364,Note_on_c,9,81,127,
2,3364,Note_on_c,9,82,127,
2,3365,Note_off_c,9,36,0,
2,3366,Note_on_c,9,36,127,
2,3366,Note_on_c,9,37,127,
2,3366,Note_on_c,9,38,127,
2,3366,Note_on_c,9,39,127,
2,3366,Note_on_c,9,41,127,
2,3366,Note_on_c,9,42,127,
2,3366,Note_on_c,9,43,127,
2,3366,Note_on_c,9,45,127,
2,3366,Note_on_c,9,48,127,
2,3366,Note_on_c,9,51,127,
2,3366,Note_on_c,9,53,127,
2,3366,Note_on_c,9,80,127,
2,3366,Note_on_c,9,81,127,
2,3366,Note_on_c,9,82,127,
2,3367,Note_off_c,9,36,0,
2,3368,Note_on_c,9,36,127,
2,3368,Note_on_c,9,37,127,
2,3368,Note_on_c,9,38,127,
2,3368,Note_on_c,9,39,127,
2,3368,Note_on_c,9,41,127,
2,3368,Note_on_c,9,42,127,
2,3368,Note_on_c,9,43,127,
2,3368,Note_on_c,9,45,127,
2,3368,Note_on_c,9,48,127,
2,3368,Note_on_c,9,51,127,
2,3368,Note_on_c,9,53,127,
2,3368,Note_on_c,9,80,127,
2,3368,Note_on_c,9,81,127,
2,3368,Note_on_c,9,82,127,
2,3369,Note_off_c,9,36,0,
2,3370,Note_on_c,9,36,127,
2,3370,Note_on_c,9,37,127,
2,3370,Note_on_c,9,38,127,
2,3370,Note_on_c,9,39,127,
2,3370,Note_on_c,9,41,127,
2,3370,Note_on_c,9,42,127,
2,3370,Note_on_c,9,43,127,
2,3370,Note_on_c,9,45,127,
2,3370,Note_on_c,9,48,127,
2,3370,Note_on_c,9,51,127,
2,3370,Note_on_c,9,53,127,
2,3370,Note_on_c,9,80,127,
2,3370,Note_on_c,9,81,127,
2,3370,Note_on_c,9,82,127,
2,3371,Note_off_c,9,36,0,
2,3372,Note_on_c,9,36,127,
2,3372,Note_on_c,9,37,127,
2,3372,Note_on_c,9,38,127,
2,3372,Note_on_c,9,39,127,
2,3372,Note_on_c,9,41,127,
2,3372,Note_on_c,9,42,127,
2,3372,Note_on_c,9,43,127,
2,3372,Note_on_c,9,45,127,
2,3372,Note_on_c,9,48,127,
2,3372,Note_on_c,9,51,127,
2,3372,Note_on_c,9,53,127,
2,3372,Note_on_c,9,80,127,
2,3372,Note_on_c,9,81,127,
2,3372,Note_on_c,9,82,127,
2,3373,Note_off_c,9,36,0,
2,3374,Note_on_c,9,36,127,
2,3374,Note_on_c,9,37,127,
2,3374,Note_on_c,9,38,127,
2,3374,Note_on_c,9,39,127,
2,3374,Note_on_c,9,41,127,
2,3374,Note_on_c,9,42,127,
2,3374,Note_on_c,9,43,127,
2,3374,Note_on_c,9,45,127,
2,3374,Note_on_c,9,48,127,
2,3374,Note_on_c,9,51,127,
2,3374,Note_on_c,9,53,127,
2,3374,Note_on_c,9,80,127,
2,3374,Note_on_c,9,81,127,
2,3374,Note_on_c,9,82,127,
2,3375,Note_off_c,9,36,0,
2,3376,Note_on_c,9,36,127,
2,3376,Note_on_c,9,37,127,
2,3376,Note_on_c,9,38,127,
2,3376,Note_on_c,9,39,127,
2,3376,Note_on_c,9,41,127,
2,3376,Note_on_c,9,42,127,
2,3376,Note_on_c,9,43,127,
2,3376,Note_on_c,9,45,127,
2,3376,Note_on_c,9,48,127,
2,3376,Note_on_c,9,51,127,
2,3376,Note_on_c,9,53,127,
2,3376,Note_on_c,9,80,127,
2,3376,Note_on_c,9,81,127,
2,3376,Note_on_c,9,82,127,
2,3377,Note_off_c,9,36,0,
2,3378,Note_on_c,9,36,127,
2,3378,Note_on_c,9,37,127,
2,3378,Note_on_c,9,38,127,
2,3378,Note_on_c,9,39,127,
2,3378,Note_on_c,9,41,127,
2,3378,Note_on_c,9,42,127,
2,3378,Note_on_c,9,43,127,
2,3378,Note_on_c,9,45,127,
2,3378,Note_on_c,9,48,127,
2,3378,Note_on_c,9,51,127,
2,3378,Note_on_c,9,53,127,
2,3378,Note_on_c,9,80,127,
2,3378,Note_on_c,9,81,127,
2,3378,Note_on_c,9,82,127,
2,3379,Note_off_c,9,36,0,
2,3380,Note_on_c,9,36,127,
2,3380,Note_on_c,9,37,127,
2,3380,Note_on_c,9,38,127,
2,3380,Note_on_c,9,39,127,
2,3380,Note_on_c,9,41,127,
2,3380,Note_on_c,9,42,127,
2,3380,Note_on_c,9,43,127,
2,3380,Note_on_c,9,45,127,
2,3380,Note_on_c,9,48,127,
2,3380,Note_on_c,9,51,127,
2,3380,Note_on_c,9,53,127,
2,3380,Note_on_c,9,80,127,
2,3380,Note_on_c,9,81,127,
2,3380,Note_on_c,9,82,127,
2,3381,Note_off_c,9,36,0,
2,3382,Note_on_c,9,36,127,
2,3382,Note_on_c,9,37,127,
2,3382,Note_on_c,9,38,127,
2,3382,Note_on_c,9,39,127,
2,3382,Note_on_c,9,41,127,
2,3382,Note_on_c,9,42,127,
2,3382,Note_on_c,9,43,127,
2,3382,Note_on_c,9,45,127,
2,3382,Note_on_c,9,48,127,
2,3382,Note_on_c,9,51,127,
2,3382,Note_on_c,9,53,127,
2,3382,Note_on_c,9,80,127,
2,3382,Note_on_c,9,81,127,
2,3382,Note_on_c,9,82,127,
2,3383,Note_off_c,9,36,0,
2,3384,Note_on_c,9,36,127,
2,3384,Note_on_c,9,37,127,
2,3384,Note_on_c,9,38,127,
2,3384,Note_on_c,9,39,127,
2,3384,Note_on_c,9,41,127,
2,3384,Note_on_c,9,42,127,
2,3384,Note_on_c,9,43,127,
2,3384,Note_on_c,9,45,127,
2,3384,Note_on_c,9,48,127,
2,3384,Note_on_c,9,51,127,
2,3384,Note_on_c,9,53,127,
2,3384,Note_on_c,9,80,127,
2,3384,Note_on_c,9,81,127,
2,3384,Note_on_c,9,82,127,
2,3385,Note_off_c,9,36,0,
2,3386,Note_on_c,9,36,127,
2,3386,Note_on_c,9,37,127,
2,3386,Note_on_c,9,38,127,
2,3386,Note_on_c,9,39,127,
2,3386,Note_on_c,9,41,127,
2,3386,Note_on_c,9,42,127,
2,3386,Note_on_c,9,43,127,
2,3386,Note_on_c,9,45,127,
2,3386,Note_on_c,9,48,127,
2,3386,Note_on_c,9,51,127,
2,3386,Note_on_c,9,53,127,
2,3386,Note_on_c,9,80,127,
2,3386,Note_on_c,9,81,127,
2,3386,Note_on_c,9,82,127,
2,3387,Note_off_c,9,36,0,
2,3388,Note_on_c,9,36,127,
2,3388,Note_on_c,9,37,127,
2,3388,Note_on_c,9,38,127,
2,3388,Note_on_c,9,39,127,
2,3388,Note_on_c,9,41,127,
2,3388,Note_on_c,9,42,127,
2,3388,Note_on_c,9,43,127,
2,3388,Note_on_c,9,45,127,
2,3388,Note_on_c,9,48,127,
2,3388,Note_on_c,9,51,127,
2,3388,Note_on_c,9,53,127,
2,3388,Note_on_c,9,80,127,
2,3388,Note_on_c,9,81,127,
2,3388,Note_on_c,9,82,127,
2,3389,Note_off_c,9,36,0,
2,3390,Note_on_c,9,36,127,
2,3390,Note_on_c,9,37,127,
2,3390,Note_on_c,9,38,127,
2,3390,Note_on_c,9,39,127,
2,3390,Note_on_c,9,41,127,
2,3390,Note_on_c,9,42,127,
2,3390,Note_on_c,9,43,127,
2,3390,Note_on_c,9,45,127,
2,3390,Note_on_c,9,48,127,
2,3390,Note_on_c,9,51,127,
2,3390,Note_on_c,9,53,127,
2,3390,Note_on_c,9,80,127,
2,3390,Note_on_c,9,81,127,
2,3390,Note_on_c,9,82,127,
2,3391,Note_off_c,9,36,0,
2,3392,Note_on_c,9,36,127,
2,3392,Note_on_c,9,37,127,
2,3392,Note_on_c,9,38,127,
2,3392,Note_on_c,9,39,127,
2,3392,Note_on_c,9,41,127,
2,3392,Note_on_c,9,42,127,
2,3392,Note_on_c,9,43,127,
2,3392,Note_on_c,9,45,127,
2,3392,Note_on_c,9,48,127,
2,3392,Note_on_c,9,51,127,
2,3392,Note_on_c,9,53,127,
2,3392,Note_on_c,9,80,127,
2,3392,Note_on_c,9,81,127,
2,3392,Note_on_c,9,82,127,
2,3393,Note_off_c,9,36,0,
2,3394,Note_on_c,9,36,127,
2,3394,Note_on_c,9,37,127,
2,3394,Note_on_c,9,38,127,
2,3394,Note_on_c,9,39,127,
2,3394,Note_on_c,9,41,127,
2,3394,Note_on_c,9,42,127,
2,3394,Note_on_c,9,43,127,
2,3394,Note_on_c,9,45,127,
2,3394,Note_on_c,9,48,127,
2,3394,Note_on_c,9,51,127,
2,3394,Note_on_c,9,53,127,
2,3394,Note_on_c,9,80,127,
2,3394,Note_on_c,9,81,127,
2,3394,Note_on_c,9,82,127,
2,3395,Note_off_c,9,36,0,
2,3396,Note_on_c,9,36,127,
2,3396,Note_on_c,9,37,127,
2,3396,Note_on_c,9,38,127,
2,3396,Note_on_c,9,39,127,
2,3396,Note_on_c,9,41,127,
2,3396,Note_on_c,9,42,127,
2,3396,Note_on_c,9,43,127,
2,3396,Note_on_c,9,45,127,
2,3396,Note_on_c,9,48,127,
2,3396,Note_on_c,9,51,127,
2,3396,Note_on_c,9,53,127,
2,3396,Note_on_c,9,80,127,
2,3396,Note_on_c,9,81,127,
2,3396,Note_on_c,9,82,127,
2,3397,Note_off_c,9,36,0,
2,3398,Note_on_c,9,36,127,
2,3398,Note_on_c,9,37,127,
2,3398,Note_on_c,9,38,127,
2,3398,Note_on_c,9,39,127,
2,3398,Note_on_c,9,41,127,
2,3398,Note_on_c,9,42,127,
2,3398,Note_on_c,9,43,127,
2,3398,Note_on_c,9,45,127,
2,3398,Note_on_c,9,48,127,
2,3398,Note_on_c,9,51,127,
2,3398,Note_on_c,9,53,127,
2,3398,Note_on_c,9,80,127,
2,3398,Note_on_c,9,81,127,
2,3398,Note_on_c,9,82,127,
2,3399,Note_off_c,9,36,0,
2,3400,Note_on_c,9,36,127,
2,3400,Note_on_c,9,37,127,
2,3400,Note_on_c,9,38,127,
2,3400,Note_on_c,9,39,127,
2,3400,Note_on_c,9,41,127,
2,3400,Note_on_c,9,42,127,
2,3400,Note_on_c,9,43,127,
2,3400,Note_on_c,9,45,127,
2,3400,Note_on_c,9,48,127,
2,3400,Note_on_c,9,51,127,
2,3400,Note_on_c,9,53,127,
2,3400,Note_on_c,9,80,127,
2,3400,Note_on_c,9,81,127,
2,3400,Note_on_c,9,82,127,
2,3401,Note_off_c,9,36,0,
2,3402,Note_on_c,9,36,127,
2,3402,Note_on_c,9,37,127,
2,3402,Note_on_c,9,38,127,
2,3402,Note_on_c,9,39,127,
2,3402,Note_on_c,9,41,127,
2,3402,Note_on_c,9,42,127,
2,3402,Note_on_c,9,43,127,
2,3402,Note_on_c,9,45,127,
2,3402,Note_on_c,9,48,127,
2,3402,Note_on_c,9,51,127,
2,3402,Note_on_c,9,53,127,
2,3402,Note_on_c,9,80,127,
2,3402,Note_on_c,9,81,127,
2,3402,Note_on_c,9,82,127,
2,3403,Note_off_c,9,36,0,
2,3404,Note_on_c,9,36,127,
2,3404,Note_on_c,9,37,127,
2,3404,Note_on_c,9,38,127,
2,3404,Note_on_c,9,39,127,
2,3404,Note_on_c,9,41,127,
2,3404,Note_on_c,9,42,127,
2,3404,Note_on_c,9,43,127,
2,3404,Note_on_c,9,45,127,
2,3404,Note_on_c,9,48,127,
2,3404,Note_on_c,9,51,127,
2,3404,Note_on_c,9,53,127,
2,3404,Note_on_c,9,80,127,
2,3404,Note_on_c,9,81,127,
2,3404,Note_on_c,9,82,127,
2,3405,Note_off_c,9,36,0,
2,3406,Note_on_c,9,36,127,
2,3406,Note_on_c,9,37,127,
2,3406,Note_on_c,9,38,127,
2,3406,Note_on_c,9,39,127,
2,3406,Note_on_c,9,41,127,
2,3406,Note_on_c,9,42,127,
2,3406,Note_on_c,9,43,127,
2,3406,Note_on_c,9,45,127,
2,3406,Note_on_c,9,48,127,
2,3406,Note_on_c,9,51,127,
2,3406,Note_on_c,9,53,127,
2,3406,Note_on_c,9,80,127,
2,3406,Note_on_c,9,81,127,
2,3406,Note_on_c,9,82,127,
2,3407,Note_off_c,9,36,0,
2,3408,Note_on_c,9,36,127,
2,3408,Note_on_c,9,37,127,
2,3408,Note_on_c,9,38,127,
2,3408,Note_on_c,9,39,127,
2,3408,Note_on_c,9,41,127,
2,3408,Note_on_c,9,42,127,
2,3408,Note_on_c,9,43,127,
2,3408,Note_on_c,9,45,127,
2,3408,Note_on_c,9,48,127,
2,3408,Note_on_c,9,51,127,
2,3408,Note_on_c,9,53,127,
2,3408,Note_on_c,9,80,127,
2,3408,Note_on_c,9,81,127,
2,3408,Note_on_c,9,82,127,
2,3409,Note_off_c,9,36,0,
2,3410,Note_on_c,9,36,127,
2,3410,Note_on_c,9,37,127,
2,3410,Note_on_c,9,38,127,
2,3410,Note_on_c,9,39,127,
2,3410,Note_on_c,9,41,127,
2,3410,Note_on_c,9,42,127,
2,3410,Note_on_c,9,43,127,
2,3410,Note_on_c,9,45,127,
2,3410,Note_on_c,9,48,127,
2,3410,Note_on_c,9,51,127,
2,3410,Note_on_c,9,53,127,
2,3410,Note_on_c,9,80,127,
2,3410,Note_on_c,9,81,127,
2,3410,Note_on_c,9,82,127,
2,3411,Note_off_c,9,36,0,
2,3412,Note_on_c,9,36,127,
2,3412,Note_on_c,9,37,127,
2,3412,Note_on_c,9,38,127,
2,3412,Note_on_c,9,39,127,
2,3412,Note_on_c,9,41,127,
2,3412,Note_on_c,9,42,127,
2,3412,Note_on_c,9,43,127,
2,3412,Note_on_c,9,45,127,
2,3412,Note_on_c,9,48,127,
2,3412,Note_on_c,9,51,127,
2,3412,Note_on_c,9,53,127,
2,3412,Note_on_c,9,80,127,
2,3412,Note_on_c,9,81,127,
2,3412,Note_on_c,9,82,127,
2,3413,Note_off_c,9,36,0,
2,3414,Note_on_c,9,36,127,
2,3414,Note_on_c,9,37,127,
2,3414,Note_on_c,9,38,127,
2,3414,Note_on_c,9,39,127,
2,3414,Note_on_c,9,41,127,
2,3414,Note_on_c,9,42,127,
2,3414,Note_on_c,9,43,127,
2,3414,Note_on_c,9,45,127,
2,3414,Note_on_c,9,48,127,
2,3414,Note_on_c,9,51,127,
2,3414,Note_on_c,9,53,127,
2,3414,Note_on_c,9,80,127,
2,3414,Note_on_c,9,81,127,
2,3414,Note_on_c,9,82,127,
2,3415,Note_off_c,9,36,0,
2,3416,Note_on_c,9,36,127,
2,3416,Note_on_c,9,37,127,
2,3416,Note_on_c,9,38,127,
2,3416,Note_on_c,9,39,127,
2,3416,Note_on_c,9,41,127,
2,3416,Note_on_c,9,42,127,
2,3416,Note_on_c,9,43,127,
2,3416,Note_on_c,9,45,127,
2,3416,Note_on_c,9,48,127,
2,3416,Note_on_c,9,51,127,
2,3416,Note_on_c,9,53,127,
2,3416,Note_on_c,9,80,127,
2,3416,Note_on_c,9,81,127,
2,3416,Note_on_c,9,82,127,
2,3417,Note_off_c,9,36,0,
2,3418,Note_on_c,9,36,127,
2,3418,Note_on_c,9,37,127,
2,3418,Note_on_c,9,38,127,
2,3418,Note_on_c,9,39,127,
2,3418,Note_on_c,9,41,127,
2,3418,Note_on_c,9,42,127,
2,3418,Note_on_c,9,43,127,
2,3418,Note_on_c,9,45,127,
2,3418,Note_on_c,9,48,127,
2,3418,Note_on_c,9,51,127,
2,3418,Note_on_c,9,53,127,
2,3418,Note_on_c,9,80,127,
2,3418,Note_on_c,9,81,127,
2,3418,Note_on_c,9,82,127,
2,3419,Note_off_c,9,36,0,
2,3420,Note_on_c,9,36,127,
2,3420,Note_on_c,9,37,127,
2,3420,Note_on_c,9,38,127,
2,3420,Note_on_c,9,39,127,
2,3420,Note_on_c,9,41,127,
2,3420,Note_on_c,9,42,127,
2,3420,Note_on_c,9,43,127,
2,3420,Note_on_c,9,45,127,
2,3420,Note_on_c,9,48,127,
2,3420,Note_on_c,9,51,127,
2,3420,Note_on_c,9,53,127,
2,3420,Note_on_c,9,80,127,
2,3420,Note_on_c,9,81,127,
2,3420,Note_on_c,9,82,127,
2,3421,Note_off_c,9,36,0,
2,3422,Note_on_c,9,36,127,
2,3422,Note_on_c,9,37,127,
2,3422,Note_on_c,9,38,127,
2,3422,Note_on_c,9,39,127,
2,3422,Note_on_c,9,41,127,
2,3422,Note_on_c,9,42,127,
2,3422,Note_on_c,9,43,127,
2,3422,Note_on_c,9,45,127,
2,3422,Note_on_c,9,48,127,
2,3422,Note_on_c,9,51,127,
2,3422,Note_on_c,9,53,127,
2,3422,Note_on_c,9,80,127,
2,3422,Note_on_c,9,81,127,
2,3422,Note_on_c,9,82,127,
2,3423,Note_off_c,9,36,0,
2,3424,Note_on_c,9,36,127,
2,3424,Note_on_c,9,37,127,
2,3424,Note_on_c,9,38,127,
2,3424,Note_on_c,9,39,127,
2,3424,Note_on_c,9,41,127,
2,3424,Note_on_c,9,42,127,
2,3424,Note_on_c,9,43,127,
2,3424,Note_on_c,9,45,127,
2,3424,Note_on_c,9,48,127,
2,3424,Note_on_c,9,51,127,
2,3424,Note_on_c,9,53,127,
2,3424,Note_on_c,9,80,127,
2,3424,Note_on_c,9,81,127,
2,3424,Note_on_c,9,82,127,
2,3425,Note_off_c,9,36,0,
2,3426,Note_on_c,9,36,127,
2,3426,Note_on_c,9,37,127,
2,3426,Note_on_c,9,38,127,
2,3426,Note_on_c,9,39,127,
2,3426,Note_on_c,9,41,127,
2,3426,Note_on_c,9,42,127,
2,3426,Note_on_c,9,43,127,
2,3426,Note_on_c,9,45,127,
2,3426,Note_on_c,9,48,127,
2,3426,Note_on_c,9,51,127,
2,3426,Note_on_c,9,53,127,
2,3426,Note_on_c,9,80,127,
2,3426,Note_on_c,9,81,127,
2,3426,Note_on_c,9,82,127,
2,3427,Note_off_c,9,36,0,
2,3428,Note_on_c,9,36,127,
2,3428,Note_on_c,9,37,127,
2,3428,Note_on_c,9,38,127,
2,3428,Note_on_c,9,39,127,
2,3428,Note_on_c,9,41,127,
2,3428,Note_on_c,9,42,127,
2,3428,Note_on_c,9,43,127,
2,3428,Note_on_c,9,45,127,
2,3428,Note_on_c,9,48,127,
2,3428,Note_on_c,9,51,127,
2,3428,Note_on_c,9,53,127,
2,3428,Note_on_c,9,80,127,
2,3428,Note_on_c,9,81,127,
2,3428,Note_on_c,9,82,127,
2,3429,Note_off_c,9,36,0,
2,3430,Note_on_c,9,36,127,
2,3430,Note_on_c,9,37,127,
2,3430,Note_on_c,9,38,127,
2,3430,Note_on_c,9,39,127,
2,3430,Note_on_c,9,41,127,
2,3430,Note_on_c,9,42,127,
2,3430,Note_on_c,9,43,127,
2,3430,Note_on_c,9,45,127,
2,3430,Note_on_c,9,48,127,
2,3430,Note_on_c,9,51,127,
2,3430,Note_on_c,9,53,127,
2,3430,Note_on_c,9,80,127,
2,3430,Note_on_c,9,81,127,
2,3430,Note_on_c,9,82,127,
2,3431,Note_off_c,9,36,0,
2,3432,Note_on_c,9,36,127,
2,3432,Note_on_c,9,37,127,
2,3432,Note_on_c,9,38,127,
2,3432,Note_on_c,9,39,127,
2,3432,Note_on_c,9,41,127,
2,3432,Note_on_c,9,42,127,
2,3432,Note_on_c,9,43,127,
2,3432,Note_on_c,9,45,127,
2,3432,Note_on_c,9,48,127,
2,3432,Note_on_c,9,51,127,
2,3432,Note_on_c,9,53,127,
2,3432,Note_on_c,9,80,127,
2,3432,Note_on_c,9,81,127,
2,3432,Note_on_c,9,82,127,
2,3433,Note_off_c,9,36,0,
2,3434,Note_on_c,9,36,127,
2,3434,Note_on_c,9,37,127,
2,3434,Note_on_c,9,38,127,
2,3434,Note_on_c,9,39,127,
2,3434,Note_on_c,9,41,127,
2,3434,Note_on_c,9,42,127,
2,3434,Note_on_c,9,43,127,
2,3434,Note_on_c,9,45,127,
2,3434,Note_on_c,9,48,127,
2,3434,Note_on_c,9,51,127,
2,3434,Note_on_c,9,53,127,
2,3434,Note_on_c,9,80,127,
2,3434,Note_on_c,9,81,127,
2,3434,Note_on_c,9,82,127,
2,3435,Note_off_c,9,36,0,
2,3436,Note_on_c,9,36,127,
2,3436,Note_on_c,9,37,127,
2,3436,Note_on_c,9,38,127,
2,3436,Note_on_c,9,39,127,
2,3436,Note_on_c,9,41,127,
2,3436,Note_on_c,9,42,127,
2,3436,Note_on_c,9,43,127,
2,3436,Note_on_c,9,45,127,
2,3436,Note_on_c,9,48,127,
2,3436,Note_on_c,9,51,127,
2,3436,Note_on_c,9,53,127,
2,3436,Note_on_c,9,80,127,
2,3436,Note_on_c,9,81,127,
2,3436,Note_on_c,9,82,127,
2,3437,Note_off_c,9,36,0,
2,3438,Note_on_c,9,36,127,
2,3438,Note_on_c,9,37,127,
2,3438,Note_on_c,9,38,127,
2,3438,Note_on_c,9,39,127,
2,3438,Note_on_c,9,41,127,
2,3438,Note_on_c,9,42,127,
2,3438,Note_on_c,9,43,127,
2,3438,Note_on_c,9,45,127,
2,3438,Note_on_c,9,48,127,
2,3438,Note_on_c,9,51,127,
2,3438,Note_on_c,9,53,127,
2,3438,Note_on_c,9,80,127,
2,3438,Note_on_c,9,81,127,
2,3438,Note_on_c,9,82,127,
2,3439,Note_off_c,9,36,0,
2,3440,Note_on_c,9,36,127,
2,3440,Note_on_c,9,37,127,
2,3440,Note_on_c,9,38,127,
2,3440,Note_on_c,9,39,127,
2,3440,Note_on_c,9,41,127,
2,3440,Note_on_c,9,42,127,
2,3440,Note_on_c,9,43,127,
2,3440,Note_on_c,9,45,127,
2,3440,Note_on_c,9,48,127,
2,3440,Note_on_c,9,51,127,
2,3440,Note_on_c,9,53,127,
2,3440,Note_on_c,9,80,127,
2,3440,Note_on_c,9,81,127,
2,3440,Note_on_c,9,82,127,
2,3441,Note_off_c,9,36,0,
2,3442,Note_on_c,9,36,127,
2,3442,Note_on_c,9,37,127,
2,3442,Note_on_c,9,38,127,
2,3442,Note_on_c,9,39,127,
2,3442,Note_on_c,9,41,127,
2,3442,Note_on_c,9,42,127,
2,3442,Note_on_c,9,43,127,
2,3442,Note_on_c,9,45,127,
2,3442,Note_on_c,9,48,127,
2,3442,Note_on_c,9,51,127,
2,3442,Note_on_c,9,53,127,
2,3442,Note_on_c,9,80,127,
2,3442,Note_on_c,9,81,127,
2,3442,Note_on_c,9,82,127,
2,3443,Note_off_c,9,36,0,
2,3444,Note_on_c,9,36,127,
2,3444,Note_on_c,9,37,127,
2,3444,Note_on_c,9,38,127,
2,3444,Note_on_c,9,39,127,
2,3444,Note_on_c,9,41,127,
2,3444,Note_on_c,9,42,127,
2,3444,Note_on_c,9,43,127,
2,3444,Note_on_c,9,45,127,
2,3444,Note_on_c,9,48,127,
2,3444,Note_on_c,9,51,127,
2,3444,Note_on_c,9,53,127,
2,3444,Note_on_c,9,80,127,
2,3444,Note_on_c,9,81,127,
2,3444,Note_on_c,9,82,127,
2,3445,Note_off_c,9,36,0,
2,3446,Note_on_c,9,36,127,
2,3446,Note_on_c,9,37,127,
2,3446,Note_on_c,9,38,127,
2,3446,Note_on_c,9,39,127,
2,3446,Note_on_c,9,41,127,
2,3446,Note_on_c,9,42,127,
2,3446,Note_on_c,9,43,127,
2,3446,Note_on_c,9,45,127,
2,3446,Note_on_c,9,48,127,
2,3446,Note_on_c,9,51,127,
2,3446,Note_on_c,9,53,127,
2,3446,Note_on_c,9,80,127,
2,3446,Note_on_c,9,81,127,
2,3446,Note_on_c,9,82,127,
2,3447,Note_off_c,9,36,0,
2,3448,Note_on_c,9,36,127,
2,3448,Note_on_c,9,37,127,
2,3448,Note_on_c,9,38,127,
2,3448,Note_on_c,9,39,127,
2,3448,Note_on_c,9,41,127,
2,3448,Note_on_c,9,42,127,
2,3448,Note_on_c,9,43,127,
2,3448,Note_on_c,9,45,127,
2,3448,Note_on_c,9,48,127,
2,3448,Note_on_c,9,51,127,
2,3448,Note_on_c,9,53,127,
2,3448,Note_on_c,9,80,127,
2,3448,Note_on_c,9,81,127,
2,3448,Note_on_c,9,82,127,
2,3449,Note_off_c,9,36,0,
2,3450,Note_on_c,9,36,127,
2,3450,Note_on_c,9,37,127,
2,3450,Note_on_c,9,38,127,
2,3450,Note_on_c,9,39,127,
2,3450,Note_on_c,9,41,127,
2,3450,Note_on_c,9,42,127,
2,3450,Note_on_c,9,43,127,
2,3450,Note_on_c,9,45,127,
2,3450,Note_on_c,9,48,127,
2,3450,Note_on_c,9,51,127,
2,3450,Note_on_c,9,53,127,
2,3450,Note_on_c,9,80,127,
2,3450,Note_on_c,9,81,127,
2,3450,Note_on_c,9,82,127,
2,3451,Note_off_c,9,36,0,
2,3452,Note_on_c,9,36,127,
2,3452,Note_on_c,9,37,127,
2,3452,Note_on_c,9,38,127,
2,3452,Note_on_c,9,39,127,
2,3452,Note_on_c,9,41,127,
2,3452,Note_on_c,9,42,127,
2,3452,Note_on_c,9,43,127,
2,3452,Note_on_c,9,45,127,
2,3452,Note_on_c,9,48,127,
2,3452,Note_on_c,9,51,127,
2,3452,Note_on_c,9,53,127,
2,3452,Note_on_c,9,80,127,
2,3452,Note_on_c,9,81,127,
2,3452,Note_on_c,9,82,127,
2,3453,Note_off_c,9,36,0,
2,3454,Note_on_c,9,36,127,
2,3454,Note_on_c,9,37,127,
2,3454,Note_on_c,9,38,127,
2,3454,Note_on_c,9,39,127,
2,3454,Note_on_c,9,41,127,
2,3454,Note_on_c,9,42,127,
2,3454,Note_on_c,9,43,127,
2,3454,Note_on_c,9,45,127,
2,3454,Note_on_c,9,48,127,
2,3454,Note_on_c,9,51,127,
2,3454,Note_on_c,9,53,127,
2,3454,Note_on_c,9,80,127,
2,3454,Note_on_c,9,81,127,
2,3454,Note_on_c,9,82,127,
2,3455,Note_off_c,9,36,0,
2,3456,Note_on_c,9,36,127,
2,3456,Note_on_c,9,37,127,
2,3456,Note_on_c,9,38,127,
2,3456,Note_on_c,9,39,127,
2,3456,Note_on_c,9,41,127,
2,3456,Note_on_c,9,42,127,
2,3456,Note_on_c,9,43,127,
2,3456,Note_on_c,9,45,127,
2,3456,Note_on_c,9,48,127,
2,3456,Note_on_c,9,51,127,
2,3456,Note_on_c,9,53,127,
2,3456,Note_on_c,9,80,127,
2,3456,Note_on_c,9,81,127,
2,3456,Note_on_c,9,82,127,
2,3457,Note_off_c,9,36,0,
2,3458,Note_on_c,9,36,127,
2,3458,Note_on_c,9,37,127,
2,3458,Note_on_c,9,38,127,
2,3458,Note_on_c,9,39,127,
2,3458,Note_on_c,9,41,127,
2,3458,Note_on_c,9,42,127,
2,3458,Note_on_c,9,43,127,
2,3458,Note_on_c,9,45,127,
2,3458,Note_on_c,9,48,127,
2,3458,Note_on_c,9,51,127,
2,3458,Note_on_c,9,53,127,
2,3458,Note_on_c,9,80,127,
2,3458,Note_on_c,9,81,127,
2,3458,Note_on_c,9,82,127,
2,3459,Note_off_c,9,36,0,
2,3460,Note_on_c,9,36,127,
2,3460,Note_on_c,9,37,127,
2,3460,Note_on_c,9,38,127,
2,3460,Note_on_c,9,39,127,
2,3460,Note_on_c,9,41,127,
2,3460,Note_on_c,9,42,127,
2,3460,Note_on_c,9,43,127,
2,3460,Note_on_c,9,45,127,
2,3460,Note_on_c,9,48,127,
2,3460,Note_on_c,9,51,127,
2,3460,Note_on_c,9,53,127,
2,3460,Note_on_c,9,80,127,
2,3460,Note_on_c,9,81,127,
2,3460,Note_on_c,9,82,127,
2,3461,Note_off_c,9,36,0,
2,3462,Note_on_c,9,36,127,
2,3462,Note_on_c,9,37,127,
2,3462,Note_on_c,9,38,127,
2,3462,Note_on_c,9,39,127,
2,3462,Note_on_c,9,41,127,
2,3462,Note_on_c,9,42,127,
2,3462,Note_on_c,9,43,127,
2,3462,Note_on_c,9,45,127,
2,3462,Note_on_c,9,48,127,
2,3462,Note_on_c,9,51,127,
2,3462,Note_on_c,9,53,127,
2,3462,Note_on_c,9,80,127,
2,3462,Note_on_c,9,81,127,
2,3462,Note_on_c,9,82,127,
2,3463,Note_off_c,9,36,0,
2,3464,Note_on_c,9,36,127,
2,3464,Note_on_c,9,37,127,
2,3464,Note_on_c,9,38,127,
2,3464,Note_on_c,9,39,127,
2,3464,Note_on_c,9,41,127,
2,3464,Note_on_c,9,42,127,
2,3464,Note_on_c,9,43,127,
2,3464,Note_on_c,9,45,127,
2,3464,Note_on_c,9,48,127,
2,3464,Note_on_c,9,51,127,
2,3464,Note_on_c,9,53,127,
2,3464,Note_on_c,9,80,127,
2,3464,Note_on_c,9,81,127,
2,3464,Note_on_c,9,82,127,
2,3465,Note_off_c,9,36,0,
2,3466,Note_on_c,9,36,127,
2,3466,Note_on_c,9,37,127,
2,3466,Note_on_c,9,38,127,
2,3466,Note_on_c,9,39,127,
2,3466,Note_on_c,9,41,127,
2,3466,Note_on_c,9,42,127,
2,3466,Note_on_c,9,43,127,
2,3466,Note_on_c,9,45,127,
2,3466,Note_on_c,9,48,127,
2,3466,Note_on_c,9,51,127,
2,3466,Note_on_c,9,53,127,
2,3466,Note_on_c,9,80,127,
2,3466,Note_on_c,9,81,127,
2,3466,Note_on_c,9,82,127,
2,3467,Note_off_c,9,36,0,
2,3468,Note_on_c,9,36,127,
2,3468,Note_on_c,9,37,127,
2,3468,Note_on_c,9,38,127,
2,3468,Note_on_c,9,39,127,
2,3468,Note_on_c,9,41,127,
2,3468,Note_on_c,9,42,127,
2,3468,Note_on_c,9,43,127,
2,3468,Note_on_c,9,45,127,
2,3468,Note_on_c,9,48,127,
2,3468,Note_on_c,9,51,127,
2,3468,Note_on_c,9,53,127,
2,3468,Note_on_c,9,80,127,
2,3468,Note_on_c,9,81,127,
2,3468,Note_on_c,9,82,127,
2,3469,Note_off_c,9,36,0,
2,3470,Note_on_c,9,36,127,
2,3470,Note_on_c,9,37,127,
2,3470,Note_on_c,9,38,127,
2,3470,Note_on_c,9,39,127,
2,3470,Note_on_c,9,41,127,
2,3470,Note_on_c,9,42,127,
2,3470,Note_on_c,9,43,127,
2,3470,Note_on_c,9,45,127,
2,3470,Note_on_c,9,48,127,
2,3470,Note_on_c,9,51,127,
2,3470,Note_on_c,9,53,127,
2,3470,Note_on_c,9,80,127,
2,3470,Note_on_c,9,81,127,
2,3470,Note_on_c,9,82,127,
2,3471,Note_off_c,9,36,0,
2,3472,Note_on_c,9,36,127,
2,3472,Note_on_c,9,37,127,
2,3472,Note_on_c,9,38,127,
2,3472,Note_on_c,9,39,127,
2,3472,Note_on_c,9,41,127,
2,3472,Note_on_c,9,42,127,
2,3472,Note_on_c,9,43,127,
2,3472,Note_on_c,9,45,127,
2,3472,Note_on_c,9,48,127,
2,3472,Note_on_c,9,51,127,
2,3472,Note_on_c,9,53,127,
2,3472,Note_on_c,9,80,127,
2,3472,Note_on_c,9,81,127,
2,3472,Note_on_c,9,82,127,
2,3473,Note_off_c,9,36,0,
2,3474,Note_on_c,9,36,127,
2,3474,Note_on_c,9,37,127,
2,3474,Note_on_c,9,38,127,
2,3474,Note_on_c,9,39,127,
2,3474,Note_on_c,9,41,127,
2,3474,Note_on_c,9,42,127,
2,3474,Note_on_c,9,43,127,
2,3474,Note_on_c,9,45,127,
2,3474,Note_on_c,9,48,127,
2,3474,Note_on_c,9,51,127,
2,3474,Note_on_c,9,53,127,
2,3474,Note_on_c,9,80,127,
2,3474,Note_on_c,9,81,127,
2,3474,Note_on_c,9,82,127,
2,3475,Note_off_c,9,36,0,
2,3476,Note_on_c,9,36,127,
2,3476,Note_on_c,9,37,127,
2,3476,Note_on_c,9,38,127,
2,3476,Note_on_c,9,39,127,
2,3476,Note_on_c,9,41,127,
2,3476,Note_on_c,9,42,127,
2,3476,Note_on_c,9,43,127,
2,3476,Note_on_c,9,45,127,
2,3476,Note_on_c,9,48,127,
2,3476,Note_on_c,9,51,127,
2,3476,Note_on_c,9,53,127,
2,3476,Note_on_c,9,80,127,
2,3476,Note_on_c,9,81,127,
2,3476,Note_on_c,9,82,127,
2,3477,Note_off_c,9,36,0,
2,3478,Note_on_c,9,36,127,
2,3478,Note_on_c,9,37,127,
2,3478,Note_on_c,9,38,127,
2,3478,Note_on_c,9,39,127,
2,3478,Note_on_c,9,41,127,
2,3478,Note_on_c,9,42,127,
2,3478,Note_on_c,9,43,127,
2,3478,Note_on_c,9,45,127,
2,3478,Note_on_c,9,48,127,
2,3478,Note_on_c,9,51,127,
2,3478,Note_on_c,9,53,127,
2,3478,Note_on_c,9,80,127,
2,3478,Note_on_c,9,81,127,
2,3478,Note_on_c,9,82,127,
2,3479,Note_off_c,9,36,0,
2,3480,Note_on_c,9,36,127,
2,3480,Note_on_c,9,37,127,
2,3480,Note_on_c,9,38,127,
2,3480,Note_on_c,9,39,127,
2,3480,Note_on_c,9,41,127,
2,3480,Note_on_c,9,42,127,
2,3480,Note_on_c,9,43,127,
2,3480,Note_on_c,9,45,127,
2,3480,Note_on_c,9,48,127,
2,3480,Note_on_c,9,51,127,
2,3480,Note_on_c,9,53,127,
2,3480,Note_on_c,9,80,127,
2,3480,Note_on_c,9,81,127,
2,3480,Note_on_c,9,82,127,
2,3481,Note_off_c,9,36,0,
2,3482,Note_on_c,9,36,127,
2,3482,Note_on_c,9,37,127,
2,3482,Note_on_c,9,38,127,
2,3482,Note_on_c,9,39,127,
2,3482,Note_on_c,9,41,127,
2,3482,Note_on_c,9,42,127,
2,3482,Note_on_c,9,43,127,
2,3482,Note_on_c,9,45,127,
2,3482,Note_on_c,9,48,127,
2,3482,Note_on_c,9,51,127,
2,3482,Note_on_c,9,53,127,
2,3482,Note_on_c,9,80,127,
2,3482,Note_on_c,9,81,127,
2,3482,Note_on_c,9,82,127,
2,3483,Note_off_c,9,36,0,
2,3484,Note_on_c,9,36,127,
2,3484,Note_on_c,9,37,127,
2,3484,Note_on_c,9,38,127,
2,3484,Note_on_c,9,39,127,
2,3484,Note_on_c,9,41,127,
2,3484,Note_on_c,9,42,127,
2,3484,Note_on_c,9,43,127,
2,3484,Note_on_c,9,45,127,
2,3484,Note_on_c,9,48,127,
2,3484,Note_on_c,9,51,127,
2,3484,Note_on_c,9,53,127,
2,3484,Note_on_c,9,80,127,
2,3484,Note_on_c,9,81,127,
2,3484,Note_on_c,9,82,127,
2,3485,Note_off_c,9,36,0,
2,3486,Note_on_c,9,36,127,
2,3486,Note_on_c,9,37,127,
2,3486,Note_on_c,9,38,127,
2,3486,Note_on_c,9,39,127,
2,3486,Note_on_c,9,41,127,
2,3486,Note_on_c,9,42,127,
2,3486,Note_on_c,9,43,127,
2,3486,Note_on_c,9,45,127,
2,3486,Note_on_c,9,48,127,
2,3486,Note_on_c,9,51,127,
2,3486,Note_on_c,9,53,127,
2,3486,Note_on_c,9,80,127,
2,3486,Note_on_c,9,81,127,
2,3486,Note_on_c,9,82,127,
2,3487,Note_off_c,9,36,0,
2,3488,Note_on_c,9,36,127,
2,3488,Note_on_c,9,37,127,
2,3488,Note_on_c,9,38,127,
2,3488,Note_on_c,9,39,127,
2,3488,Note_on_c,9,41,127,
2,3488,Note_on_c,9,42,127,
2,3488,Note_on_c,9,43,127,
2,3488,Note_on_c,9,45,127,
2,3488,Note_on_c,9,48,127,
2,3488,Note_on_c,9,51,127,
2,3488,Note_on_c,9,53,127,
2,3488,Note_on_c,9,80,127,
2,3488,Note_on_c,9,81,127,
2,3488,Note_on_c,9,82,127,
2,3489,Note_off_c,9,36,0,
2,3490,Note_on_c,9,36,127,
2,3490,Note_on_c,9,37,127,
2,3490,Note_on_c,9,38,127,
2,3490,Note_on_c,9,39,127,
2,3490,Note_on_c,9,41,127,
2,3490,Note_on_c,9,42,127,
2,3490,Note_on_c,9,43,127,
2,3490,Note_on_c,9,45,127,
2,3490,Note_on_c,9,48,127,
2,3490,Note_on_c,9,51,127,
2,3490,Note_on_c,9,53,127,
2,3490,Note_on_c,9,80,127,
2,3490,Note_on_c,9,81,127,
2,3490,Note_on_c,9,82,127,
2,3491,Note_off_c,9,36,0,
2,3492,Note_on_c,9,36,127,
2,3492,Note_on_c,9,37,127,
2,3492,Note_on_c,9,38,127,
2,3492,Note_on_c,9,39,127,
2,3492,Note_on_c,9,41,127,
2,3492,Note_on_c,9,42,127,
2,3492,Note_on_c,9,43,127,
2,3492,Note_on_c,9,45,127,
2,3492,Note_on_c,9,48,127,
2,3492,Note_on_c,9,51,127,
2,3492,Note_on_c,9,53,127,
2,3492,Note_on_c,9,80,127,
2,3492,Note_on_c,9,81,127,
2,3492,Note_on_c,9,82,127,
2,3493,Note_off_c,9,36,0,
2,3494,Note_on_c,9,36,127,
2,3494,Note_on_c,9,37,127,
2,3494,Note_on_c,9,38,127,
2,3494,Note_on_c,9,39,127,
2,3494,Note_on_c,9,41,127,
2,3494,Note_on_c,9,42,127,
2,3494,Note_on_c,9,43,127,
2,3494,Note_on_c,9,45,127,
2,3494,Note_on_c,9,48,127,
2,3494,Note_on_c,9,51,127,
2,3494,Note_on_c,9,53,127,
2,3494,Note_on_c,9,80,127,
2,3494,Note_on_c,9,81,127,
2,3494,Note_on_c,9,82,127,
2,3495,Note_off_c,9,36,0,
2,3496,Note_on_c,9,36,127,
2,3496,Note_on_c,9,37,127,
2,3496,Note_on_c,9,38,127,
2,3496,Note_on_c,9,39,127,
2,3496,Note_on_c,9,41,127,
2,3496,Note_on_c,9,42,127,
2,3496,Note_on_c,9,43,127,
2,3496,Note_on_c,9,45,127,
2,3496,Note_on_c,9,48,127,
2,3496,Note_on_c,9,51,127,
2,3496,Note_on_c,9,53,127,
2,3496,Note_on_c,9,80,127,
2,3496,Note_on_c,9,81,127,
2,3496,Note_on_c,9,82,127,
2,3497,Note_off_c,9,36,0,
2,3498,Note_on_c,9,36,127,
2,3498,Note_on_c,9,37,127,
2,3498,Note_on_c,9,38,127,
2,3498,Note_on_c,9,39,127,
2,3498,Note_on_c,9,41,127,
2,3498,Note_on_c,9,42,127,
2,3498,Note_on_c,9,43,127,
2,3498,Note_on_c,9,45,127,
2,3498,Note_on_c,9,48,127,
2,3498,Note_on_c,9,51,127,
2,3498,Note_on_c,9,53,127,
2,3498,Note_on_c,9,80,127,
2,3498,Note_on_c,9,81,127,
2,3498,Note_on_c,9,82,127,
2,3499,Note_off_c,9,36,0,
2,3500,Note_on_c,9,36,127,
2,3500,Note_on_c,9,37,127,
2,3500,Note_on_c,9,38,127,
2,3500,Note_on_c,9,39,127,
2,3500,Note_on_c,9,41,127,
2,3500,Note_on_c,9,42,127,
2,3500,Note_on_c,9,43,127,
2,3500,Note_on_c,9,45,127,
2,3500,Note_on_c,9,48,127,
2,3500,Note_on_c,9,51,127,
2,3500,Note_on_c,9,53,127,
2,3500,Note_on_c,9,80,127,
2,3500,Note_on_c,9,81,127,
2,3500,Note_on_c,9,82,127,
2,3501,Note_off_c,9,36,0,
2,3502,Note_on_c,9,36,127,
2,3502,Note_on_c,9,37,127,
2,3502,Note_on_c,9,38,127,
2,3502,Note_on_c,9,39,127,
2,3502,Note_on_c,9,41,127,
2,3502,Note_on_c,9,42,127,
2,3502,Note_on_c,9,43,127,
2,3502,Note_on_c,9,45,127,
2,3502,Note_on_c,9,48,127,
2,3502,Note_on_c,9,51,127,
2,3502,Note_on_c,9,53,127,
2,3502,Note_on_c,9,80,127,
2,3502,Note_on_c,9,81,127,
2,3502,Note_on_c,9,82,127,
2,3503,Note_off_c,9,36,0,
2,3504,Note_on_c,9,36,127,
2,3504,Note_on_c,9,37,127,
2,3504,Note_on_c,9,38,127,
2,3504,Note_on_c,9,39,127,
2,3504,Note_on_c,9,41,127,
2,3504,Note_on_c,9,42,127,
2,3504,Note_on_c,9,43,127,
2,3504,Note_on_c,9,45,127,
2,3504,Note_on_c,9,48,127,
2,3504,Note_on_c,9,51,127,
2,3504,Note_on_c,9,53,127,
2,3504,Note_on_c,9,80,127,
2,3504,Note_on_c,9,81,127,
2,3504,Note_on_c,9,82,127,
2,3505,Note_off_c,9,36,0,
2,3506,Note_on_c,9,36,127,
2,3506,Note_on_c,9,37,127,
2,3506,Note_on_c,9,38,127,
2,3506,Note_on_c,9,39,127,
2,3506,Note_on_c,9,41,127,
2,3506,Note_on_c,9,42,127,
2,3506,Note_on_c,9,43,127,
2,3506,Note_on_c,9,45,127,
2,3506,Note_on_c,9,48,127,
2,3506,Note_on_c,9,51,127,
2,3506,Note_on_c,9,53,127,
2,3506,Note_on_c,9,80,127,
2,3506,Note_on_c,9,81,127,
2,3506,Note_on_c,9,82,127,
2,3507,Note_off_c,9,36,0,
2,3508,Note_on_c,9,36,127,
2,3508,Note_on_c,9,37,127,
2,3508,Note_on_c,9,38,127,
2,3508,Note_on_c,9,39,127,
2,3508,Note_on_c,9,41,127,
2,3508,Note_on_c,9,42,127,
2,3508,Note_on_c,9,43,127,
2,3508,Note_on_c,9,45,127,
2,3508,Note_on_c,9,48,127,
2,3508,Note_on_c,9,51,127,
2,3508,Note_on_c,9,53,127,
2,3508,Note_on_c,9,80,127,
2,3508,Note_on_c,9,81,127,
2,3508,Note_on_c,9,82,127,
2,3509,Note_off_c,9,36,0,
2,3510,Note_on_c,9,36,127,
2,3510,Note_on_c,9,37,127,
2,3510,Note_on_c,9,38,127,
2,3510,Note_on_c,9,39,127,
2,3510,Note_on_c,9,41,127,
2,3510,Note_on_c,9,42,127,
2,3510,Note_on_c,9,43,127,
2,3510,Note_on_c,9,45,127,
2,3510,Note_on_c,9,48,127,
2,3510,Note_on_c,9,51,127,
2,3510,Note_on_c,9,53,127,
2,3510,Note_on_c,9,80,127,
2,3510,Note_on_c,9,81,127,
2,3510,Note_on_c,9,82,127,
2,3511,Note_off_c,9,36,0,
2,3512,Note_on_c,9,36,127,
2,3512,Note_on_c,9,37,127,
2,3512,Note_on_c,9,38,127,
2,3512,Note_on_c,9,39,127,
2,3512,Note_on_c,9,41,127,
2,3512,Note_on_c,9,42,127,
2,3512,Note_on_c,9,43,127,
2,3512,Note_on_c,9,45,127,
2,3512,Note_on_c,9,48,127,
2,3512,Note_on_c,9,51,127,
2,3512,Note_on_c,9,53,127,
2,3512,Note_on_c,9,80,127,
2,3512,Note_on_c,9,81,127,
2,3512,Note_on_c,9,82,127,
2,3513,Note_off_c,9,36,0,
2,3514,Note_on_c,9,36,127,
2,3514,Note_on_c,9,37,127,
2,3514,Note_on_c,9,38,127,
2,3514,Note_on_c,9,39,127,
2,3514,Note_on_c,9,41,127,
2,3514,Note_on_c,9,42,127,
2,3514,Note_on_c,9,43,127,
2,3514,Note_on_c,9,45,127,
2,3514,Note_on_c,9,48,127,
2,3514,Note_on_c,9,51,127,
2,3514,Note_on_c,9,53,127,
2,3514,Note_on_c,9,80,127,
2,3514,Note_on_c,9,81,127,
2,3514,Note_on_c,9,82,127,
2,3515,Note_off_c,9,36,0,
2,3516,Note_on_c,9,36,127,
2,3516,Note_on_c,9,37,127,
2,3516,Note_on_c,9,38,127,
2,3516,Note_on_c,9,39,127,
2,3516,Note_on_c,9,41,127,
2,3516,Note_on_c,9,42,127,
2,3516,Note_on_c,9,43,127,
2,3516,Note_on_c,9,45,127,
2,3516,Note_on_c,9,48,127,
2,3516,Note_on_c,9,51,127,
2,3516,Note_on_c,9,53,127,
2,3516,Note_on_c,9,80,127,
2,3516,Note_on_c,9,81,127,
2,3516,Note_on_c,9,82,127,
2,3517,Note_off_c,9,36,0,
2,3518,Note_on_c,9,36,127,
2,3518,Note_on_c,9,37,127,
2,3518,Note_on_c,9,38,127,
2,3518,Note_on_c,9,39,127,
2,3518,Note_on_c,9,41,127,
2,3518,Note_on_c,9,42,127,
2,3518,Note_on_c,9,43,127,
2,3518,Note_on_c,9,45,127,
2,3518,Note_on_c,9,48,127,
2,3518,Note_on_c,9,51,127,
2,3518,Note_on_c,9,53,127,
2,3518,Note_on_c,9,80,127,
2,3518,Note_on_c,9,81,127,
2,3518,Note_on_c,9,82,127,
2,3519,Note_off_c,9,36,0,
2,3520,Note_on_c,9,36,127,
2,3520,Note_on_c,9,37,127,
2,3520,Note_on_c,9,38,127,
2,3520,Note_on_c,9,39,127,
2,3520,Note_on_c,9,41,127,
2,3520,Note_on_c,9,42,127,
2,3520,Note_on_c,9,43,127,
2,3520,Note_on_c,9,45,127,
2,3520,Note_on_c,9,48,127,
2,3520,Note_on_c,9,51,127,
2,3520,Note_on_c,9,53,127,
2,3520,Note_on_c,9,80,127,
2,3520,Note_on_c,9,81,127,
2,3520,Note_on_c,9,82,127,
2,3521,Note_off_c,9,36,0,
2,3522,Note_on_c,9,36,127,
2,3522,Note_on_c,9,37,127,
2,3522,Note_on_c,9,38,127,
2,3522,Note_on_c,9,39,127,
2,3522,Note_on_c,9,41,127,
2,3522,Note_on_c,9,42,127,
2,3522,Note_on_c,9,43,127,
2,3522,Note_on_c,9,45,127,
2,3522,Note_on_c,9,48,127,
2,3522,Note_on_c,9,51,127,
2,3522,Note_on_c,9,53,127,
2,3522,Note_on_c,9,80,127,
2,3522,Note_on_c,9,81,127,
2,3522,Note_on_c,9,82,127,
2,3523,Note_off_c,9,36,0,
2,3524,Note_on_c,9,36,127,
2,3524,Note_on_c,9,37,127,
2,3524,Note_on_c,9,38,127,
2,3524,Note_on_c,9,39,127,
2,3524,Note_on_c,9,41,127,
2,3524,Note_on_c,9,42,127,
2,3524,Note_on_c,9,43,127,
2,3524,Note_on_c,9,45,127,
2,3524,Note_on_c,9,48,127,
2,3524,Note_on_c,9,51,127,
2,3524,Note_on_c,9,53,127,
2,3524,Note_on_c,9,80,127,
2,3524,Note_on_c,9,81,127,
2,3524,Note_on_c,9,82,127,
2,3525,Note_off_c,9,36,0,
2,3526,Note_on_c,9,36,127,
2,3526,Note_on_c,9,37,127,
2,3526,Note_on_c,9,38,127,
2,3526,Note_on_c,9,39,127,
2,3526,Note_on_c,9,41,127,
2,3526,Note_on_c,9,42,127,
2,3526,Note_on_c,9,43,127,
2,3526,Note_on_c,9,45,127,
2,3526,Note_on_c,9,48,127,
2,3526,Note_on_c,9,51,127,
2,3526,Note_on_c,9,53,127,
2,3526,Note_on_c,9,80,127,
2,3526,Note_on_c,9,81,127,
2,3526,Note_on_c,9,82,127,
2,3527,Note_off_c,9,36,0,
2,3528,Note_on_c,9,36,127,
2,3528,Note_on_c,9,37,127,
2,3528,Note_on_c,9,38,127,
2,3528,Note_on_c,9,39,127,
2,3528,Note_on_c,9,41,127,
2,3528,Note_on_c,9,42,127,
2,3528,Note_on_c,9,43,127,
2,3528,Note_on_c,9,45,127,
2,3528,Note_on_c,9,48,127,
2,3528,Note_on_c,9,51,127,
2,3528,Note_on_c,9,53,127,
2,3528,Note_on_c,9,80,127,
2,3528,Note_on_c,9,81,127,
2,3528,Note_on_c,9,82,127,
2,3529,Note_off_c,9,36,0,
2,3530,Note_on_c,9,36,127,
2,3530,Note_on_c,9,37,127,
2,3530,Note_on_c,9,38,127,
2,3530,Note_on_c,9,39,127,
2,3530,Note_on_c,9,41,127,
2,3530,Note_on_c,9,42,127,
2,3530,Note_on_c,9,43,127,
2,3530,Note_on_c,9,45,127,
2,3530,Note_on_c,9,48,127,
2,3530,Note_on_c,9,51,127,
2,3530,Note_on_c,9,53,127,
2,3530,Note_on_c,9,80,127,
2,3530,Note_on_c,9,81,127,
2,3530,Note_on_c,9,82,127,
2,3531,Note_off_c,9,36,0,
2,3532,Note_on_c,9,36,127,
2,3532,Note_on_c,9,37,127,
2,3532,Note_on_c,9,38,127,
2,3532,Note_on_c,9,39,127,
2,3532,Note_on_c,9,41,127,
2,3532,Note_on_c,9,42,127,
2,3532,Note_on_c,9,43,127,
2,3532,Note_on_c,9,45,127,
2,3532,Note_on_c,9,48,127,
2,3532,Note_on_c,9,51,127,
2,3532,Note_on_c,9,53,127,
2,3532,Note_on_c,9,80,127,
2,3532,Note_on_c,9,81,127,
2,3532,Note_on_c,9,82,127,
2,3533,Note_off_c,9,36,0,
2,3534,Note_on_c,9,36,127,
2,3534,Note_on_c,9,37,127,
2,3534,Note_on_c,9,38,127,
2,3534,Note_on_c,9,39,127,
2,3534,Note_on_c,9,41,127,
2,3534,Note_on_c,9,42,127,
2,3534,Note_on_c,9,43,127,
2,3534,Note_on_c,9,45,127,
2,3534,Note_on_c,9,48,127,
2,3534,Note_on_c,9,51,127,
2,3534,Note_on_c,9,53,127,
2,3534,Note_on_c,9,80,127,
2,3534,Note_on_c,9,81,127,
2,3534,Note_on_c,9,82,127,
2,3535,Note_off_c,9,36,0,
2,3536,Note_on_c,9,36,127,
2,3536,Note_on_c,9,37,127,
2,3536,Note_on_c,9,38,127,
2,3536,Note_on_c,9,39,127,
2,3536,Note_on_c,9,41,127,
2,3536,Note_on_c,9,42,127,
2,3536,Note_on_c,9,43,127,
2,3536,Note_on_c,9,45,127,
2,3536,Note_on_c,9,48,127,
2,3536,Note_on_c,9,51,127,
2,3536,Note_on_c,9,53,127,
2,3536,Note_on_c,9,80,127,
2,3536,Note_on_c,9,81,127,
2,3536,Note_on_c,9,82,127,
2,3537,Note_off_c,9,36,0,
2,3538,Note_on_c,9,36,127,
2,3538,Note_on_c,9,37,127,
2,3538,Note_on_c,9,38,127,
2,3538,Note_on_c,9,39,127,
2,3538,Note_on_c,9,41,127,
2,3538,Note_on_c,9,42,127,
2,3538,Note_on_c,9,43,127,
2,3538,Note_on_c,9,45,127,
2,3538,Note_on_c,9,48,127,
2,3538,Note_on_c,9,51,127,
2,3538,Note_on_c,9,53,127,
2,3538,Note_on_c,9,80,127,
2,3538,Note_on_c,9,81,127,
2,3538,Note_on_c,9,82,127,
2,3539,Note_off_c,9,36,0,
2,3540,Note_on_c,9,36,127,
2,3540,Note_on_c,9,37,127,
2,3540,Note_on_c,9,38,127,
2,3540,Note_on_c,9,39,127,
2,3540,Note_on_c,9,41,127,
2,3540,Note_on_c,9,42,127,
2,3540,Note_on_c,9,43,127,
2,3540,Note_on_c,9,45,127,
2,3540,Note_on_c,9,48,127,
2,3540,Note_on_c,9,51,127,
2,3540,Note_on_c,9,53,127,
2,3540,Note_on_c,9,80,127,
2,3540,Note_on_c,9,81,127,
2,3540,Note_on_c,9,82,127,
2,3541,Note_off_c,9,36,0,
2,3542,Note_on_c,9,36,127,
2,3542,Note_on_c,9,37,127,
2,3542,Note_on_c,9,38,127,
2,3542,Note_on_c,9,39,127,
2,3542,Note_on_c,9,41,127,
2,3542,Note_on_c,9,42,127,
2,3542,Note_on_c,9,43,127,
2,3542,Note_on_c,9,45,127,
2,3542,Note_on_c,9,48,127,
2,3542,Note_on_c,9,51,127,
2,3542,Note_on_c,9,53,127,
2,3542,Note_on_c,9,80,127,
2,3542,Note_on_c,9,81,127,
2,3542,Note_on_c,9,82,127,
2,3543,Note_off_c,9,36,0,
2,3544,Note_on_c,9,36,127,
2,3544,Note_on_c,9,37,127,
2,3544,Note_on_c,9,38,127,
2,3544,Note_on_c,9,39,127,
2,3544,Note_on_c,9,41,127,
2,3544,Note_on_c,9,42,127,
2,3544,Note_on_c,9,43,127,
2,3544,Note_on_c,9,45,127,
2,3544,Note_on_c,9,48,127,
2,3544,Note_on_c,9,51,127,
2,3544,Note_on_c,9,53,127,
2,3544,Note_on_c,9,80,127,
2,3544,Note_on_c,9,81,127,
2,3544,Note_on_c,9,82,127,
2,3545,Note_off_c,9,36,0,
2,3546,Note_on_c,9,36,127,
2,3546,Note_on_c,9,37,127,
2,3546,Note_on_c,9,38,127,
2,3546,Note_on_c,9,39,127,
2,3546,Note_on_c,9,41,127,
2,3546,Note_on_c,9,42,127,
2,3546,Note_on_c,9,43,127,
2,3546,Note_on_c,9,45,127,
2,3546,Note_on_c,9,48,127,
2,3546,Note_on_c,9,51,127,
2,3546,Note_on_c,9,53,127,
2,3546,Note_on_c,9,80,127,
2,3546,Note_on_c,9,81,127,
2,3546,Note_on_c,9,82,127,
2,3547,Note_off_c,9,36,0,
2,3548,Note_on_c,9,36,127,
2,3548,Note_on_c,9,37,127,
2,3548,Note_on_c,9,38,127,
2,3548,Note_on_c,9,39,127,
2,3548,Note_on_c,9,41,127,
2,3548,Note_on_c,9,42,127,
2,3548,Note_on_c,9,43,127,
2,3548,Note_on_c,9,45,127,
2,3548,Note_on_c,9,48,127,
2,3548,Note_on_c,9,51,127,
2,3548,Note_on_c,9,53,127,
2,3548,Note_on_c,9,80,127,
2,3548,Note_on_c,9,81,127,
2,3548,Note_on_c,9,82,127,
2,3549,Note_off_c,9,36,0,
2,3550,Note_on_c,9,36,127,
2,3550,Note_on_c,9,37,127,
2,3550,Note_on_c,9,38,127,
2,3550,Note_on_c,9,39,127,
2,3550,Note_on_c,9,41,127,
2,3550,Note_on_c,9,42,127,
2,3550,Note_on_c,9,43,127,
2,3550,Note_on_c,9,45,127,
2,3550,Note_on_c,9,48,127,
2,3550,Note_on_c,9,51,127,
2,3550,Note_on_c,9,53,127,
2,3550,Note_on_c,9,80,127,
2,3550,Note_on_c,9,81,127,
2,3550,Note_on_c,9,82,127,
2,3551,Note_off_c,9,36,0,
2,3552,Note_on_c,9,36,127,
2,3552,Note_on_c,9,37,127,
2,3552,Note_on_c,9,38,127,
2,3552,Note_on_c,9,39,127,
2,3552,Note_on_c,9,41,127,
2,3552,Note_on_c,9,42,127,
2,3552,Note_on_c,9,43,127,
2,3552,Note_on_c,9,45,127,
2,3552,Note_on_c,9,48,127,
2,3552,Note_on_c,9,51,127,
2,3552,Note_on_c,9,53,127,
2,3552,Note_on_c,9,80,127,
2,3552,Note_on_c,9,81,127,
2,3552,Note_on_c,9,82,127,
2,3553,Note_off_c,9,36,0,
2,3554,Note_on_c,9,36,127,
2,3554,Note_on_c,9,37,127,
2,3554,Note_on_c,9,38,127,
2,3554,Note_on_c,9,39,127,
2,3554,Note_on_c,9,41,127,
2,3554,Note_on_c,9,42,127,
2,3554,Note_on_c,9,43,127,
2,3554,Note_on_c,9,45,127,
2,3554,Note_on_c,9,48,127,
2,3554,Note_on_c,9,51,127,
2,3554,Note_on_c,9,53,127,
2,3554,Note_on_c,9,80,127,
2,3554,Note_on_c,9,81,127,
2,3554,Note_on_c,9,82,127,
2,3555,Note_off_c,9,36,0,
2,3556,Note_on_c,9,36,127,
2,3556,Note_on_c,9,37,127,
2,3556,Note_on_c,9,38,127,
2,3556,Note_on_c,9,39,127,
2,3556,Note_on_c,9,41,127,
2,3556,Note_on_c,9,42,127,
2,3556,Note_on_c,9,43,127,
2,3556,Note_on_c,9,45,127,
2,3556,Note_on_c,9,48,127,
2,3556,Note_on_c,9,51,127,
2,3556,Note_on_c,9,53,127,
2,3556,Note_on_c,9,80,127,
2,3556,Note_on_c,9,81,127,
2,3556,Note_on_c,9,82,127,
2,3557,Note_off_c,9,36,0,
2,3558,Note_on_c,9,36,127,
2,3558,Note_on_c,9,37,127,
2,3558,Note_on_c,9,38,127,
2,3558,Note_on_c,9,39,127,
2,3558,Note_on_c,9,41,127,
2,3558,Note_on_c,9,42,127,
2,3558,Note_on_c,9,43,127,
2,3558,Note_on_c,9,45,127,
2,3558,Note_on_c,9,48,127,
2,3558,Note_on_c,9,51,127,
2,3558,Note_on_c,9,53,127,
2,3558,Note_on_c,9,80,127,
2,3558,Note_on_c,9,81,127,
2,3558,Note_on_c,9,82,127,
2,3559,Note_off_c,9,36,0,
2,3560,Note_on_c,9,36,127,
2,3560,Note_on_c,9,37,127,
2,3560,Note_on_c,9,38,127,
2,3560,Note_on_c,9,39,127,
2,3560,Note_on_c,9,41,127,
2,3560,Note_on_c,9,42,127,
2,3560,Note_on_c,9,43,127,
2,3560,Note_on_c,9,45,127,
2,3560,Note_on_c,9,48,127,
2,3560,Note_on_c,9,51,127,
2,3560,Note_on_c,9,53,127,
2,3560,Note_on_c,9,80,127,
2,3560,Note_on_c,9,81,127,
2,3560,Note_on_c,9,82,127,
2,3561,Note_off_c,9,36,0,
2,3562,Note_on_c,9,36,127,
2,3562,Note_on_c,9,37,127,
2,3562,Note_on_c,9,38,127,
2,3562,Note_on_c,9,39,127,
2,3562,Note_on_c,9,41,127,
2,3562,Note_on_c,9,42,127,
2,3562,Note_on_c,9,43,127,
2,3562,Note_on_c,9,45,127,
2,3562,Note_on_c,9,48,127,
2,3562,Note_on_c,9,51,127,
2,3562,Note_on_c,9,53,127,
2,3562,Note_on_c,9,80,127,
2,3562,Note_on_c,9,81,127,
2,3562,Note_on_c,9,82,127,
2,3563,Note_off_c,9,36,0,
2,3564,Note_on_c,9,36,127,
2,3564,Note_on_c,9,37,127,
2,3564,Note_on_c,9,38,127,
2,3564,Note_on_c,9,39,127,
2,3564,Note_on_c,9,41,127,
2,3564,Note_on_c,9,42,127,
2,3564,Note_on_c,9,43,127,
2,3564,Note_on_c,9,45,127,
2,3564,Note_on_c,9,48,127,
2,3564,Note_on_c,9,51,127,
2,3564,Note_on_c,9,53,127,
2,3564,Note_on_c,9,80,127,
2,3564,Note_on_c,9,81,127,
2,3564,Note_on_c,9,82,127,
2,3565,Note_off_c,9,36,0,
2,3566,Note_on_c,9,36,127,
2,3566,Note_on_c,9,37,127,
2,3566,Note_on_c,9,38,127,
2,3566,Note_on_c,9,39,127,
2,3566,Note_on_c,9,41,127,
2,3566,Note_on_c,9,42,127,
2,3566,Note_on_c,9,43,127,
2,3566,Note_on_c,9,45,127,
2,3566,Note_on_c,9,48,127,
2,3566,Note_on_c,9,51,127,
2,3566,Note_on_c,9,53,127,
2,3566,Note_on_c,9,80,127,
2,3566,Note_on_c,9,81,127,
2,3566,Note_on_c,9,82,127,
2,3567,Note_off_c,9,36,0,
2,3568,Note_on_c,9,36,127,
2,3568,Note_on_c,9,37,127,
2,3568,Note_on_c,9,38,127,
2,3568,Note_on_c,9,39,127,
2,3568,Note_on_c,9,41,127,
2,3568,Note_on_c,9,42,127,
2,3568,Note_on_c,9,43,127,
2,3568,Note_on_c,9,45,127,
2,3568,Note_on_c,9,48,127,
2,3568,Note_on_c,9,51,127,
2,3568,Note_on_c,9,53,127,
2,3568,Note_on_c,9,80,127,
2,3568,Note_on_c,9,81,127,
2,3568,Note_on_c,9,82,127,
2,3569,Note_off_c,9,36,0,
2,3570,Note_on_c,9,36,127,
2,3570,Note_on_c,9,37,127,
2,3570,Note_on_c,9,38,127,
2,3570,Note_on_c,9,39,127,
2,3570,Note_on_c,9,41,127,
2,3570,Note_on_c,9,42,127,
2,3570,Note_on_c,9,43,127,
2,3570,Note_on_c,9,45,127,
2,3570,Note_on_c,9,48,127,
2,3570,Note_on_c,9,51,127,
2,3570,Note_on_c,9,53,127,
2,3570,Note_on_c,9,80,127,
2,3570,Note_on_c,9,81,127,
2,3570,Note_on_c,9,82,127,
2,3571,Note_off_c,9,36,0,
2,3572,Note_on_c,9,36,127,
2,3572,Note_on_c,9,37,127,
2,3572,Note_on_c,9,38,127,
2,3572,Note_on_c,9,39,127,
2,3572,Note_on_c,9,41,127,
2,3572,Note_on_c,9,42,127,
2,3572,Note_on_c,9,43,127,
2,3572,Note_on_c,9,45,127,
2,3572,Note_on_c,9,48,127,
2,3572,Note_on_c,9,51,127,
2,3572,Note_on_c,9,53,127,
2,3572,Note_on_c,9,80,127,
2,3572,Note_on_c,9,81,127,
2,3572,Note_on_c,9,82,127,
2,3573,Note_off_c,9,36,0,
2,3574,Note_on_c,9,36,127,
2,3574,Note_on_c,9,37,127,
2,3574,Note_on_c,9,38,127,
2,3574,Note_on_c,9,39,127,
2,3574,Note_on_c,9,41,127,
2,3574,Note_on_c,9,42,127,
2,3574,Note_on_c,9,43,127,
2,3574,Note_on_c,9,45,127,
2,3574,Note_on_c,9,48,127,
2,3574,Note_on_c,9,51,127,
2,3574,Note_on_c,9,53,127,
2,3574,Note_on_c,9,80,127,
2,3574,Note_on_c,9,81,127,
2,3574,Note_on_c,9,82,127,
2,3575,Note_off_c,9,36,0,
2,3576,Note_on_c,9,36,127,
2,3576,Note_on_c,9,37,127,
2,3576,Note_on_c,9,38,127,
2,3576,Note_on_c,9,39,127,
2,3576,Note_on_c,9,41,127,
2,3576,Note_on_c,9,42,127,
2,3576,Note_on_c,9,43,127,
2,3576,Note_on_c,9,45,127,
2,3576,Note_on_c,9,48,127,
2,3576,Note_on_c,9,51,127,
2,3576,Note_on_c,9,53,127,
2,3576,Note_on_c,9,80,127,
2,3576,Note_on_c,9,81,127,
2,3576,Note_on_c,9,82,127,
2,3577,Note_off_c,9,36,0,
2,3578,Note_on_c,9,36,127,
2,3578,Note_on_c,9,37,127,
2,3578,Note_on_c,9,38,127,
2,3578,Note_on_c,9,39,127,
2,3578,Note_on_c,9,41,127,
2,3578,Note_on_c,9,42,127,
2,3578,Note_on_c,9,43,127,
2,3578,Note_on_c,9,45,127,
2,3578,Note_on_c,9,48,127,
2,3578,Note_on_c,9,51,127,
2,3578,Note_on_c,9,53,127,
2,3578,Note_on_c,9,80,127,
2,3578,Note_on_c,9,81,127,
2,3578,Note_on_c,9,82,127,
2,3579,Note_off_c,9,36,0,
2,3580,Note_on_c,9,36,127,
2,3580,Note_on_c,9,37,127,
2,3580,Note_on_c,9,38,127,
2,3580,Note_on_c,9,39,127,
2,3580,Note_on_c,9,41,127,
2,3580,Note_on_c,9,42,127,
2,3580,Note_on_c,9,43,127,
2,3580,Note_on_c,9,45,127,
2,3580,Note_on_c,9,48,127,
2,3580,Note_on_c,9,51,127,
2,3580,Note_on_c,9,53,127,
2,3580,Note_on_c,9,80,127,
2,3580,Note_on_c,9,81,127,
2,3580,Note_on_c,9,82,127,
2,3581,Note_off_c,9,36,0,
2,3582,Note_on_c,9,36,127,
2,3582,Note_on_c,9,37,127,
2,3582,Note_on_c,9,38,127,
2,3582,Note_on_c,9,39,127,
2,3582,Note_on_c,9,41,127,
2,3582,Note_on_c,9,42,127,
2,3582,Note_on_c,9,43,127,
2,3582,Note_on_c,9,45,127,
2,3582,Note_on_c,9,48,127,
2,3582,Note_on_c,9,51,127,
2,3582,Note_on_c,9,53,127,
2,3582,Note_on_c,9,80,127,
2,3582,Note_on_c,9,81,127,
2,3582,Note_on_c,9,82,127,
2,3583,Note_off_c,9,36,0,
2,3584,Note_on_c,9,36,127,
2,3584,Note_on_c,9,37,127,
2,3584,Note_on_c,9,38,127,
2,3584,Note_on_c,9,39,127,
2,3584,Note_on_c,9,41,127,
2,3584,Note_on_c,9,42,127,
2,3584,Note_on_c,9,43,127,
2,3584,Note_on_c,9,45,127,
2,3584,Note_on_c,9,48,127,
2,3584,Note_on_c,9,51,127,
2,3584,Note_on_c,9,53,127,
2,3584,Note_on_c,9,80,127,
2,3584,Note_on_c,9,81,127,
2,3584,Note_on_c,9,82,127,
2,3585,Note_off_c,9,36,0,
2,3586,Note_on_c,9,36,127,
2,3586,Note_on_c,9,37,127,
2,3586,Note_on_c,9,38,127,
2,3586,Note_on_c,9,39,127,
2,3586,Note_on_c,9,41,127,
2,3586,Note_on_c,9,42,127,
2,3586,Note_on_c,9,43,127,
2,3586,Note_on_c,9,45,127,
2,3586,Note_on_c,9,48,127,
2,3586,Note_on_c,9,51,127,
2,3586,Note_on_c,9,53,127,
2,3586,Note_on_c,9,80,127,
2,3586,Note_on_c,9,81,127,
2,3586,Note_on_c,9,82,127,
2,3587,Note_off_c,9,36,0,
2,3588,Note_on_c,9,36,127,
2,3588,Note_on_c,9,37,127,
2,3588,Note_on_c,9,38,127,
2,3588,Note_on_c,9,39,127,
2,3588,Note_on_c,9,41,127,
2,3588,Note_on_c,9,42,127,
2,3588,Note_on_c,9,43,127,
2,3588,Note_on_c,9,45,127,
2,3588,Note_on_c,9,48,127,
2,3588,Note_on_c,9,51,127,
2,3588,Note_on_c,9,53,127,
2,3588,Note_on_c,9,80,127,
2,3588,Note_on_c,9,81,127,
2,3588,Note_on_c,9,82,127,
2,3589,Note_off_c,9,36,0,
2,3590,Note_on_c,9,36,127,
2,3590,Note_on_c,9,37,127,
2,3590,Note_on_c,9,38,127,
2,3590,Note_on_c,9,39,127,
2,3590,Note_on_c,9,41,127,
2,3590,Note_on_c,9,42,127,
2,3590,Note_on_c,9,43,127,
2,3590,Note_on_c,9,45,127,
2,3590,Note_on_c,9,48,127,
2,3590,Note_on_c,9,51,127,
2,3590,Note_on_c,9,53,127,
2,3590,Note_on_c,9,80,127,
2,3590,Note_on_c,9,81,127,
2,3590,Note_on_c,9,82,127,
2,3591,Note_off_c,9,36,0,
2,3592,Note_on_c,9,36,127,
2,3592,Note_on_c,9,37,127,
2,3592,Note_on_c,9,38,127,
2,3592,Note_on_c,9,39,127,
2,3592,Note_on_c,9,41,127,
2,3592,Note_on_c,9,42,127,
2,3592,Note_on_c,9,43,127,
2,3592,Note_on_c,9,45,127,
2,3592,Note_on_c,9,48,127,
2,3592,Note_on_c,9,51,127,
2,3592,Note_on_c,9,53,127,
2,3592,Note_on_c,9,80,127,
2,3592,Note_on_c,9,81,127,
2,3592,Note_on_c,9,82,127,
2,3593,Note_off_c,9,36,0,
2,3594,Note_on_c,9,36,127,
2,3594,Note_on_c,9,37,127,
2,3594,Note_on_c,9,38,127,
2,3594,Note_on_c,9,39,127,
2,3594,Note_on_c,9,41,127,
2,3594,Note_on_c,9,42,127,
2,3594,Note_on_c,9,43,127,
2,3594,Note_on_c,9,45,127,
2,3594,Note_on_c,9,48,127,
2,3594,Note_on_c,9,51,127,
2,3594,Note_on_c,9,53,127,
2,3594,Note_on_c,9,80,127,
2,3594,Note_on_c,9,81,127,
2,3594,Note_on_c,9,82,127,
2,3595,Note_off_c,9,36,0,
2,3596,Note_on_c,9,36,127,
2,3596,Note_on_c,9,37,127,
2,3596,Note_on_c,9,38,127,
2,3596,Note_on_c,9,39,127,
2,3596,Note_on_c,9,41,127,
2,3596,Note_on_c,9,42,127,
2,3596,Note_on_c,9,43,127,
2,3596,Note_on_c,9,45,127,
2,3596,Note_on_c,9,48,127,
2,3596,Note_on_c,9,51,127,
2,3596,Note_on_c,9,53,127,
2,3596,Note_on_c,9,80,127,
2,3596,Note_on_c,9,81,127,
2,3596,Note_on_c,9,82,127,
2,3597,Note_off_c,9,36,0,
2,3598,Note_on_c,9,36,127,
2,3598,Note_on_c,9,37,127,
2,3598,Note_on_c,9,38,127,
2,3598,Note_on_c,9,39,127,
2,3598,Note_on_c,9,41,127,
2,3598,Note_on_c,9,42,127,
2,3598,Note_on_c,9,43,127,
2,3598,Note_on_c,9,45,127,
2,3598,Note_on_c,9,48,127,
2,3598,Note_on_c,9,51,127,
2,3598,Note_on_c,9,53,127,
2,3598,Note_on_c,9,80,127,
2,3598,Note_on_c,9,81,127,
2,3598,Note_on_c,9,82,127,
2,3599,Note_off_c,9,36,0,
2,3600,Note_on_c,9,36,127,
2,3600,Note_on_c,9,37,127,
2,3600,Note_on_c,9,38,127,
2,3600,Note_on_c,9,39,127,
2,3600,Note_on_c,9,41,127,
2,3600,Note_on_c,9,42,127,
2,3600,Note_on_c,9,43,127,
2,3600,Note_on_c,9,45,127,
2,3600,Note_on_c,9,48,127,
2,3600,Note_on_c,9,51,127,
2,3600,Note_on_c,9,53,127,
2,3600,Note_on_c,9,80,127,
2,3600,Note_on_c,9,81,127,
2,3600,Note_on_c,9,82,127,
2,3601,Note_off_c,9,36,0,
2,3602,Note_on_c,9,36,127,
2,3602,Note_on_c,9,37,127,
2,3602,Note_on_c,9,38,127,
2,3602,Note_on_c,9,39,127,
2,3602,Note_on_c,9,41,127,
2,3602,Note_on_c,9,42,127,
2,3602,Note_on_c,9,43,127,
2,3602,Note_on_c,9,45,127,
2,3602,Note_on_c,9,48,127,
2,3602,Note_on_c,9,51,127,
2,3602,Note_on_c,9,53,127,
2,3602,Note_on_c,9,80,127,
2,3602,Note_on_c,9,81,127,
2,3602,Note_on_c,9,82,127,
2,3603,Note_off_c,9,36,0,
2,3604,Note_on_c,9,36,127,
2,3604,Note_on_c,9,37,127,
2,3604,Note_on_c,9,38,127,
2,3604,Note_on_c,9,39,127,
2,3604,Note_on_c,9,41,127,
2,3604,Note_on_c,9,42,127,
2,3604,Note_on_c,9,43,127,
2,3604,Note_on_c,9,45,127,
2,3604,Note_on_c,9,48,127,
2,3604,Note_on_c,9,51,127,
2,3604,Note_on_c,9,53,127,
2,3604,Note_on_c,9,80,127,
2,3604,Note_on_c,9,81,127,
2,3604,Note_on_c,9,82,127,
2,3605,Note_off_c,9,36,0,
2,3606,Note_on_c,9,36,127,
2,3606,Note_on_c,9,37,127,
2,3606,Note_on_c,9,38,127,
2,3606,Note_on_c,9,39,127,
2,3606,Note_on_c,9,41,127,
2,3606,Note_on_c,9,42,127,
2,3606,Note_on_c,9,43,127,
2,3606,Note_on_c,9,45,127,
2,3606,Note_on_c,9,48,127,
2,3606,Note_on_c,9,51,127,
2,3606,Note_on_c,9,53,127,
2,3606,Note_on_c,9,80,127,
2,3606,Note_on_c,9,81,127,
2,3606,Note_on_c,9,82,127,
2,3607,Note_off_c,9,36,0,
2,3608,Note_on_c,9,36,127,
2,3608,Note_on_c,9,37,127,
2,3608,Note_on_c,9,38,127,
2,3608,Note_on_c,9,39,127,
2,3608,Note_on_c,9,41,127,
2,3608,Note_on_c,9,42,127,
2,3608,Note_on_c,9,43,127,
2,3608,Note_on_c,9,45,127,
2,3608,Note_on_c,9,48,127,
2,3608,Note_on_c,9,51,127,
2,3608,Note_on_c,9,53,127,
2,3608,Note_on_c,9,80,127,
2,3608,Note_on_c,9,81,127,
2,3608,Note_on_c,9,82,127,
2,3609,Note_off_c,9,36,0,
2,3610,Note_on_c,9,36,127,
2,3610,Note_on_c,9,37,127,
2,3610,Note_on_c,9,38,127,
2,3610,Note_on_c,9,39,127,
2,3610,Note_on_c,9,41,127,
2,3610,Note_on_c,9,42,127,
2,3610,Note_on_c,9,43,127,
2,3610,Note_on_c,9,45,127,
2,3610,Note_on_c,9,48,127,
2,3610,Note_on_c,9,51,127,
2,3610,Note_on_c,9,53,127,
2,3610,Note_on_c,9,80,127,
2,3610,Note_on_c,9,81,127,
2,3610,Note_on_c,9,82,127,
2,3611,Note_off_c,9,36,0,
2,3612,Note_on_c,9,36,127,
2,3612,Note_on_c,9,37,127,
2,3612,Note_on_c,9,38,127,
2,3612,Note_on_c,9,39,127,
2,3612,Note_on_c,9,41,127,
2,3612,Note_on_c,9,42,127,
2,3612,Note_on_c,9,43,127,
2,3612,Note_on_c,9,45,127,
2,3612,Note_on_c,9,48,127,
2,3612,Note_on_c,9,51,127,
2,3612,Note_on_c,9,53,127,
2,3612,Note_on_c,9,80,127,
2,3612,Note_on_c,9,81,127,
2,3612,Note_on_c,9,82,127,
2,3613,Note_off_c,9,36,0,
2,3614,Note_on_c,9,36,127,
2,3614,Note_on_c,9,37,127,
2,3614,Note_on_c,9,38,127,
2,3614,Note_on_c,9,39,127,
2,3614,Note_on_c,9,41,127,
2,3614,Note_on_c,9,42,127,
2,3614,Note_on_c,9,43,127,
2,3614,Note_on_c,9,45,127,
2,3614,Note_on_c,9,48,127,
2,3614,Note_on_c,9,51,127,
2,3614,Note_on_c,9,53,127,
2,3614,Note_on_c,9,80,127,
2,3614,Note_on_c,9,81,127,
2,3614,Note_on_c,9,82,127,
2,3615,Note_off_c,9,36,0,
2,3616,Note_on_c,9,36,127,
2,3616,Note_on_c,9,37,127,
2,3616,Note_on_c,9,38,127,
2,3616,Note_on_c,9,39,127,
2,3616,Note_on_c,9,41,127,
2,3616,Note_on_c,9,42,127,
2,3616,Note_on_c,9,43,127,
2,3616,Note_on_c,9,45,127,
2,3616,Note_on_c,9,48,127,
2,3616,Note_on_c,9,51,127,
2,3616,Note_on_c,9,53,127,
2,3616,Note_on_c,9,80,127,
2,3616,Note_on_c,9,81,127,
2,3616,Note_on_c,9,82,127,
2,3617,Note_off_c,9,36,0,
2,3618,Note_on_c,9,36,127,
2,3618,Note_on_c,9,37,127,
2,3618,Note_on_c,9,38,127,
2,3618,Note_on_c,9,39,127,
2,3618,Note_on_c,9,41,127,
2,3618,Note_on_c,9,42,127,
2,3618,Note_on_c,9,43,127,
2,3618,Note_on_c,9,45,127,
2,3618,Note_on_c,9,48,127,
2,3618,Note_on_c,9,51,127,
2,3618,Note_on_c,9,53,127,
2,3618,Note_on_c,9,80,127,
2,3618,Note_on_c,9,81,127,
2,3618,Note_on_c,9,82,127,
2,3619,Note_off_c,9,36,0,
2,3620,Note_on_c,9,36,127,
2,3620,Note_on_c,9,37,127,
2,3620,Note_on_c,9,38,127,
2,3620,Note_on_c,9,39,127,
2,3620,Note_on_c,9,41,127,
2,3620,Note_on_c,9,42,127,
2,3620,Note_on_c,9,43,127,
2,3620,Note_on_c,9,45,127,
2,3620,Note_on_c,9,48,127,
2,3620,Note_on_c,9,51,127,
2,3620,Note_on_c,9,53,127,
2,3620,Note_on_c,9,80,127,
2,3620,Note_on_c,9,81,127,
2,3620,Note_on_c,9,82,127,
2,3621,Note_off_c,9,36,0,
2,3622,Note_on_c,9,36,127,
2,3622,Note_on_c,9,37,127,
2,3622,Note_on_c,9,38,127,
2,3622,Note_on_c,9,39,127,
2,3622,Note_on_c,9,41,127,
2,3622,Note_on_c,9,42,127,
2,3622,Note_on_c,9,43,127,
2,3622,Note_on_c,9,45,127,
2,3622,Note_on_c,9,48,127,
2,3622,Note_on_c,9,51,127,
2,3622,Note_on_c,9,53,127,
2,3622,Note_on_c,9,80,127,
2,3622,Note_on_c,9,81,127,
2,3622,Note_on_c,9,82,127,
2,3623,Note_off_c,9,36,0,
2,3624,Note_on_c,9,36,127,
2,3624,Note_on_c,9,37,127,
2,3624,Note_on_c,9,38,127,
2,3624,Note_on_c,9,39,127,
2,3624,Note_on_c,9,41,127,
2,3624,Note_on_c,9,42,127,
2,3624,Note_on_c,9,43,127,
2,3624,Note_on_c,9,45,127,
2,3624,Note_on_c,9,48,127,
2,3624,Note_on_c,9,51,127,
2,3624,Note_on_c,9,53,127,
2,3624,Note_on_c,9,80,127,
2,3624,Note_on_c,9,81,127,
2,3624,Note_on_c,9,82,127,
2,3625,Note_off_c,9,36,0,
2,3626,Note_on_c,9,36,127,
2,3626,Note_on_c,9,37,127,
2,3626,Note_on_c,9,38,127,
2,3626,Note_on_c,9,39,127,
2,3626,Note_on_c,9,41,127,
2,3626,Note_on_c,9,42,127,
2,3626,Note_on_c,9,43,127,
2,3626,Note_on_c,9,45,127,
2,3626,Note_on_c,9,48,127,
2,3626,Note_on_c,9,51,127,
2,3626,Note_on_c,9,53,127,
2,3626,Note_on_c,9,80,127,
2,3626,Note_on_c,9,81,127,
2,3626,Note_on_c,9,82,127,
2,3627,Note_off_c,9,36,0,
2,3628,Note_on_c,9,36,127,
2,3628,Note_on_c,9,37,127,
2,3628,Note_on_c,9,38,127,
2,3628,Note_on_c,9,39,127,
2,3628,Note_on_c,9,41,127,
2,3628,Note_on_c,9,42,127,
2,3628,Note_on_c,9,43,127,
2,3628,Note_on_c,9,45,127,
2,3628,Note_on_c,9,48,127,
2,3628,Note_on_c,9,51,127,
2,3628,Note_on_c,9,53,127,
2,3628,Note_on_c,9,80,127,
2,3628,Note_on_c,9,81,127,
2,3628,Note_on_c,9,82,127,
2,3629,Note_off_c,9,36,0,
2,3630,Note_on_c,9,36,127,
2,3630,Note_on_c,9,37,127,
2,3630,Note_on_c,9,38,127,
2,3630,Note_on_c,9,39,127,
2,3630,Note_on_c,9,41,127,
2,3630,Note_on_c,9,42,127,
2,3630,Note_on_c,9,43,127,
2,3630,Note_on_c,9,45,127,
2,3630,Note_on_c,9,48,127,
2,3630,Note_on_c,9,51,127,
2,3630,Note_on_c,9,53,127,
2,3630,Note_on_c,9,80,127,
2,3630,Note_on_c,9,81,127,
2,3630,Note_on_c,9,82,127,
2,3631,Note_off_c,9,36,0,
2,3632,Note_on_c,9,36,127,
2,3632,Note_on_c,9,37,127,
2,3632,Note_on_c,9,38,127,
2,3632,Note_on_c,9,39,127,
2,3632,Note_on_c,9,41,127,
2,3632,Note_on_c,9,42,127,
2,3632,Note_on_c,9,43,127,
2,3632,Note_on_c,9,45,127,
2,3632,Note_on_c,9,48,127,
2,3632,Note_on_c,9,51,127,
2,3632,Note_on_c,9,53,127,
2,3632,Note_on_c,9,80,127,
2,3632,Note_on_c,9,81,127,
2,3632,Note_on_c,9,82,127,
2,3633,Note_off_c,9,36,0,
2,3634,Note_on_c,9,36,127,
2,3634,Note_on_c,9,37,127,
2,3634,Note_on_c,9,38,127,
2,3634,Note_on_c,9,39,127,
2,3634,Note_on_c,9,41,127,
2,3634,Note_on_c,9,42,127,
2,3634,Note_on_c,9,43,127,
2,3634,Note_on_c,9,45,127,
2,3634,Note_on_c,9,48,127,
2,3634,Note_on_c,9,51,127,
2,3634,Note_on_c,9,53,127,
2,3634,Note_on_c,9,80,127,
2,3634,Note_on_c,9,81,127,
2,3634,Note_on_c,9,82,127,
2,3635,Note_off_c,9,36,0,
2,3636,Note_on_c,9,36,127,
2,3636,Note_on_c,9,37,127,
2,3636,Note_on_c,9,38,127,
2,3636,Note_on_c,9,39,127,
2,3636,Note_on_c,9,41,127,
2,3636,Note_on_c,9,42,127,
2,3636,Note_on_c,9,43,127,
2,3636,Note_on_c,9,45,127,
2,3636,Note_on_c,9,48,127,
2,3636,Note_on_c,9,51,127,
2,3636,Note_on_c,9,53,127,
2,3636,Note_on_c,9,80,127,
2,3636,Note_on_c,9,81,127,
2,3636,Note_on_c,9,82,127,
2,3637,Note_off_c,9,36,0,
2,3638,Note_on_c,9,36,127,
2,3638,Note_on_c,9,37,127,
2,3638,Note_on_c,9,38,127,
2,3638,Note_on_c,9,39,127,
2,3638,Note_on_c,9,41,127,
2,3638,Note_on_c,9,42,127,
2,3638,Note_on_c,9,43,127,
2,3638,Note_on_c,9,45,127,
2,3638,Note_on_c,9,48,127,
2,3638,Note_on_c,9,51,127,
2,3638,Note_on_c,9,53,127,
2,3638,Note_on_c,9,80,127,
2,3638,Note_on_c,9,81,127,
2,3638,Note_on_c,9,82,127,
2,3639,Note_off_c,9,36,0,
2,3640,Note_on_c,9,36,127,
2,3640,Note_on_c,9,37,127,
2,3640,Note_on_c,9,38,127,
2,3640,Note_on_c,9,39,127,
2,3640,Note_on_c,9,41,127,
2,3640,Note_on_c,9,42,127,
2,3640,Note_on_c,9,43,127,
2,3640,Note_on_c,9,45,127,
2,3640,Note_on_c,9,48,127,
2,3640,Note_on_c,9,51,127,
2,3640,Note_on_c,9,53,127,
2,3640,Note_on_c,9,80,127,
2,3640,Note_on_c,9,81,127,
2,3640,Note_on_c,9,82,127,
2,3641,Note_off_c,9,36,0,
2,3642,Note_on_c,9,36,127,
2,3642,Note_on_c,9,37,127,
2,3642,Note_on_c,9,38,127,
2,3642,Note_on_c,9,39,127,
2,3642,Note_on_c,9,41,127,
2,3642,Note_on_c,9,42,127,
2,3642,Note_on_c,9,43,127,
2,3642,Note_on_c,9,45,127,
2,3642,Note_on_c,9,48,127,
2,3642,Note_on_c,9,51,127,
2,3642,Note_on_c,9,53,127,
2,3642,Note_on_c,9,80,127,
2,3642,Note_on_c,9,81,127,
2,3642,Note_on_c,9,82,127,
2,3643,Note_off_c,9,36,0,
2,3644,Note_on_c,9,36,127,
2,3644,Note_on_c,9,37,127,
2,3644,Note_on_c,9,38,127,
2,3644,Note_on_c,9,39,127,
2,3644,Note_on_c,9,41,127,
2,3644,Note_on_c,9,42,127,
2,3644,Note_on_c,9,43,127,
2,3644,Note_on_c,9,45,127,
2,3644,Note_on_c,9,48,127,
2,3644,Note_on_c,9,51,127,
2,3644,Note_on_c,9,53,127,
2,3644,Note_on_c,9,80,127,
2,3644,Note_on_c,9,81,127,
2,3644,Note_on_c,9,82,127,
2,3645,Note_off_c,9,36,0,
2,3646,Note_on_c,9,36,127,
2,3646,Note_on_c,9,37,127,
2,3646,Note_on_c,9,38,127,
2,3646,Note_on_c,9,39,127,
2,3646,Note_on_c,9,41,127,
2,3646,Note_on_c,9,42,127,
2,3646,Note_on_c,9,43,127,
2,3646,Note_on_c,9,45,127,
2,3646,Note_on_c,9,48,127,
2,3646,Note_on_c,9,51,127,
2,3646,Note_on_c,9,53,127,
2,3646,Note_on_c,9,80,127,
2,3646,Note_on_c,9,81,127,
2,3646,Note_on_c,9,82,127,
2,3647,Note_off_c,9,36,0,
2,3648,Note_on_c,9,36,127,
2,3648,Note_on_c,9,37,127,
2,3648,Note_on_c,9,38,127,
2,3648,Note_on_c,9,39,127,
2,3648,Note_on_c,9,41,127,
2,3648,Note_on_c,9,42,127,
2,3648,Note_on_c,9,43,127,
2,3648,Note_on_c,9,45,127,
2,3648,Note_on_c,9,48,127,
2,3648,Note_on_c,9,51,127,
2,3648,Note_on_c,9,53,127,
2,3648,Note_on_c,9,80,127,
2,3648,Note_on_c,9,81,127,
2,3648,Note_on_c,9,82,127,
2,3649,Note_off_c,9,36,0,
2,3650,Note_on_c,9,36,127,
2,3650,Note_on_c,9,37,127,
2,3650,Note_on_c,9,38,127,
2,3650,Note_on_c,9,39,127,
2,3650,Note_on_c,9,41,127,
2,3650,Note_on_c,9,42,127,
2,3650,Note_on_c,9,43,127,
2,3650,Note_on_c,9,45,127,
2,3650,Note_on_c,9,48,127,
2,3650,Note_on_c,9,51,127,
2,3650,Note_on_c,9,53,127,
2,3650,Note_on_c,9,80,127,
2,3650,Note_on_c,9,81,127,
2,3650,Note_on_c,9,82,127,
2,3651,Note_off_c,9,36,0,
2,3652,Note_on_c,9,36,127,
2,3652,Note_on_c,9,37,127,
2,3652,Note_on_c,9,38,127,
2,3652,Note_on_c,9,39,127,
2,3652,Note_on_c,9,41,127,
2,3652,Note_on_c,9,42,127,
2,3652,Note_on_c,9,43,127,
2,3652,Note_on_c,9,45,127,
2,3652,Note_on_c,9,48,127,
2,3652,Note_on_c,9,51,127,
2,3652,Note_on_c,9,53,127,
2,3652,Note_on_c,9,80,127,
2,3652,Note_on_c,9,81,127,
2,3652,Note_on_c,9,82,127,
2,3653,Note_off_c,9,36,0,
2,3654,Note_on_c,9,36,127,
2,3654,Note_on_c,9,37,127,
2,3654,Note_on_c,9,38,127,
2,3654,Note_on_c,9,39,127,
2,3654,Note_on_c,9,41,127,
2,3654,Note_on_c,9,42,127,
2,3654,Note_on_c,9,43,127,
2,3654,Note_on_c,9,45,127,
2,3654,Note_on_c,9,48,127,
2,3654,Note_on_c,9,51,127,
2,3654,Note_on_c,9,53,127,
2,3654,Note_on_c,9,80,127,
2,3654,Note_on_c,9,81,127,
2,3654,Note_on_c,9,82,127,
2,3655,Note_off_c,9,36,0,
2,3656,Note_on_c,9,36,127,
2,3656,Note_on_c,9,37,127,
2,3656,Note_on_c,9,38,127,
2,3656,Note_on_c,9,39,127,
2,3656,Note_on_c,9,41,127,
2,3656,Note_on_c,9,42,127,
2,3656,Note_on_c,9,43,127,
2,3656,Note_on_c,9,45,127,
2,3656,Note_on_c,9,48,127,
2,3656,Note_on_c,9,51,127,
2,3656,Note_on_c,9,53,127,
2,3656,Note_on_c,9,80,127,
2,3656,Note_on_c,9,81,127,
2,3656,Note_on_c,9,82,127,
2,3657,Note_off_c,9,36,0,
2,3658,Note_on_c,9,36,127,
2,3658,Note_on_c,9,37,127,
2,3658,Note_on_c,9,38,127,
2,3658,Note_on_c,9,39,127,
2,3658,Note_on_c,9,41,127,
2,3658,Note_on_c,9,42,127,
2,3658,Note_on_c,9,43,127,
2,3658,Note_on_c,9,45,127,
2,3658,Note_on_c,9,48,127,
2,3658,Note_on_c,9,51,127,
2,3658,Note_on_c,9,53,127,
2,3658,Note_on_c,9,80,127,
2,3658,Note_on_c,9,81,127,
2,3658,Note_on_c,9,82,127,
2,3659,Note_off_c,9,36,0,
2,3660,Note_on_c,9,36,127,
2,3660,Note_on_c,9,37,127,
2,3660,Note_on_c,9,38,127,
2,3660,Note_on_c,9,39,127,
2,3660,Note_on_c,9,41,127,
2,3660,Note_on_c,9,42,127,
2,3660,Note_on_c,9,43,127,
2,3660,Note_on_c,9,45,127,
2,3660,Note_on_c,9,48,127,
2,3660,Note_on_c,9,51,127,
2,3660,Note_on_c,9,53,127,
2,3660,Note_on_c,9,80,127,
2,3660,Note_on_c,9,81,127,
2,3660,Note_on_c,9,82,127,
2,3661,Note_off_c,9,36,0,
2,3662,Note_on_c,9,36,127,
2,3662,Note_on_c,9,37,127,
2,3662,Note_on_c,9,38,127,
2,3662,Note_on_c,9,39,127,
2,3662,Note_on_c,9,41,127,
2,3662,Note_on_c,9,42,127,
2,3662,Note_on_c,9,43,127,
2,3662,Note_on_c,9,45,127,
2,3662,Note_on_c,9,48,127,
2,3662,Note_on_c,9,51,127,
2,3662,Note_on_c,9,53,127,
2,3662,Note_on_c,9,80,127,
2,3662,Note_on_c,9,81,127,
2,3662,Note_on_c,9,82,127,
2,3663,Note_off_c,9,36,0,
2,3664,Note_on_c,9,36,127,
2,3664,Note_on_c,9,37,127,
2,3664,Note_on_c,9,38,127,
2,3664,Note_on_c,9,39,127,
2,3664,Note_on_c,9,41,127,
2,3664,Note_on_c,9,42,127,
2,3664,Note_on_c,9,43,127,
2,3664,Note_on_c,9,45,127,
2,3664,Note_on_c,9,48,127,
2,3664,Note_on_c,9,51,127,
2,3664,Note_on_c,9,53,127,
2,3664,Note_on_c,9,80,127,
2,3664,Note_on_c,9,81,127,
2,3664,Note_on_c,9,82,127,
2,3665,Note_off_c,9,36,0,
2,3666,Note_on_c,9,36,127,
2,3666,Note_on_c,9,37,127,
2,3666,Note_on_c,9,38,127,
2,3666,Note_on_c,9,39,127,
2,3666,Note_on_c,9,41,127,
2,3666,Note_on_c,9,42,127,
2,3666,Note_on_c,9,43,127,
2,3666,Note_on_c,9,45,127,
2,3666,Note_on_c,9,48,127,
2,3666,Note_on_c,9,51,127,
2,3666,Note_on_c,9,53,127,
2,3666,Note_on_c,9,80,127,
2,3666,Note_on_c,9,81,127,
2,3666,Note_on_c,9,82,127,
2,3667,Note_off_c,9,36,0,
2,3668,Note_on_c,9,36,127,
2,3668,Note_on_c,9,37,127,
2,3668,Note_on_c,9,38,127,
2,3668,Note_on_c,9,39,127,
2,3668,Note_on_c,9,41,127,
2,3668,Note_on_c,9,42,127,
2,3668,Note_on_c,9,43,127,
2,3668,Note_on_c,9,45,127,
2,3668,Note_on_c,9,48,127,
2,3668,Note_on_c,9,51,127,
2,3668,Note_on_c,9,53,127,
2,3668,Note_on_c,9,80,127,
2,3668,Note_on_c,9,81,127,
2,3668,Note_on_c,9,82,127,
2,3669,Note_off_c,9,36,0,
2,3670,Note_on_c,9,36,127,
2,3670,Note_on_c,9,37,127,
2,3670,Note_on_c,9,38,127,
2,3670,Note_on_c,9,39,127,
2,3670,Note_on_c,9,41,127,
2,3670,Note_on_c,9,42,127,
2,3670,Note_on_c,9,43,127,
2,3670,Note_on_c,9,45,127,
2,3670,Note_on_c,9,48,127,
2,3670,Note_on_c,9,51,127,
2,3670,Note_on_c,9,53,127,
2,3670,Note_on_c,9,80,127,
2,3670,Note_on_c,9,81,127,
2,3670,Note_on_c,9,82,127,
2,3671,Note_off_c,9,36,0,
2,3672,Note_on_c,9,36,127,
2,3672,Note_on_c,9,37,127,
2,3672,Note_on_c,9,38,127,
2,3672,Note_on_c,9,39,127,
2,3672,Note_on_c,9,41,127,
2,3672,Note_on_c,9,42,127,
2,3672,Note_on_c,9,43,127,
2,3672,Note_on_c,9,45,127,
2,3672,Note_on_c,9,48,127,
2,3672,Note_on_c,9,51,127,
2,3672,Note_on_c,9,53,127,
2,3672,Note_on_c,9,80,127,
2,3672,Note_on_c,9,81,127,
2,3672,Note_on_c,9,82,127,
2,3673,Note_off_c,9,36,0,
2,3674,Note_on_c,9,36,127,
2,3674,Note_on_c,9,37,127,
2,3674,Note_on_c,9,38,127,
2,3674,Note_on_c,9,39,127,
2,3674,Note_on_c,9,41,127,
2,3674,Note_on_c,9,42,127,
2,3674,Note_on_c,9,43,127,
2,3674,Note_on_c,9,45,127,
2,3674,Note_on_c,9,48,127,
2,3674,Note_on_c,9,51,127,
2,3674,Note_on_c,9,53,127,
2,3674,Note_on_c,9,80,127,
2,3674,Note_on_c,9,81,127,
2,3674,Note_on_c,9,82,127,
2,3675,Note_off_c,9,36,0,
2,3676,Note_on_c,9,36,127,
2,3676,Note_on_c,9,37,127,
2,3676,Note_on_c,9,38,127,
2,3676,Note_on_c,9,39,127,
2,3676,Note_on_c,9,41,127,
2,3676,Note_on_c,9,42,127,
2,3676,Note_on_c,9,43,127,
2,3676,Note_on_c,9,45,127,
2,3676,Note_on_c,9,48,127,
2,3676,Note_on_c,9,51,127,
2,3676,Note_on_c,9,53,127,
2,3676,Note_on_c,9,80,127,
2,3676,Note_on_c,9,81,127,
2,3676,Note_on_c,9,82,127,
2,3677,Note_off_c,9,36,0,
2,3678,Note_on_c,9,36,127,
2,3678,Note_on_c,9,37,127,
2,3678,Note_on_c,9,38,127,
2,3678,Note_on_c,9,39,127,
2,3678,Note_on_c,9,41,127,
2,3678,Note_on_c,9,42,127,
2,3678,Note_on_c,9,43,127,
2,3678,Note_on_c,9,45,127,
2,3678,Note_on_c,9,48,127,
2,3678,Note_on_c,9,51,127,
2,3678,Note_on_c,9,53,127,
2,3678,Note_on_c,9,80,127,
2,3678,Note_on_c,9,81,127,
2,3678,Note_on_c,9,82,127,
2,3679,Note_off_c,9,36,0,
2,3680,Note_on_c,9,36,127,
2,3680,Note_on_c,9,37,127,
2,3680,Note_on_c,9,38,127,
2,3680,Note_on_c,9,39,127,
2,3680,Note_on_c,9,41,127,
2,3680,Note_on_c,9,42,127,
2,3680,Note_on_c,9,43,127,
2,3680,Note_on_c,9,45,127,
2,3680,Note_on_c,9,48,127,
2,3680,Note_on_c,9,51,127,
2,3680,Note_on_c,9,53,127,
2,3680,Note_on_c,9,80,127,
2,3680,Note_on_c,9,81,127,
2,3680,Note_on_c,9,82,127,
2,3681,Note_off_c,9,36,0,
2,3682,Note_on_c,9,36,127,
2,3682,Note_on_c,9,37,127,
2,3682,Note_on_c,9,38,127,
2,3682,Note_on_c,9,39,127,
2,3682,Note_on_c,9,41,127,
2,3682,Note_on_c,9,42,127,
2,3682,Note_on_c,9,43,127,
2,3682,Note_on_c,9,45,127,
2,3682,Note_on_c,9,48,127,
2,3682,Note_on_c,9,51,127,
2,3682,Note_on_c,9,53,127,
2,3682,Note_on_c,9,80,127,
2,3682,Note_on_c,9,81,127,
2,3682,Note_on_c,9,82,127,
2,3683,Note_off_c,9,36,0,
2,3684,Note_on_c,9,36,127,
2,3684,Note_on_c,9,37,127,
2,3684,Note_on_c,9,38,127,
2,3684,Note_on_c,9,39,127,
2,3684,Note_on_c,9,41,127,
2,3684,Note_on_c,9,42,127,
2,3684,Note_on_c,9,43,127,
2,3684,Note_on_c,9,45,127,
2,3684,Note_on_c,9,48,127,
2,3684,Note_on_c,9,51,127,
2,3684,Note_on_c,9,53,127,
2,3684,Note_on_c,9,80,127,
2,3684,Note_on_c,9,81,127,
2,3684,Note_on_c,9,82,127,
2,3685,Note_off_c,9,36,0,
2,3686,Note_on_c,9,36,127,
2,3686,Note_on_c,9,37,127,
2,3686,Note_on_c,9,38,127,
2,3686,Note_on_c,9,39,127,
2,3686,Note_on_c,9,41,127,
2,3686,Note_on_c,9,42,127,
2,3686,Note_on_c,9,43,127,
2,3686,Note_on_c,9,45,127,
2,3686,Note_on_c,9,48,127,
2,3686,Note_on_c,9,51,127,
2,3686,Note_on_c,9,53,127,
2,3686,Note_on_c,9,80,127,
2,3686,Note_on_c,9,81,127,
2,3686,Note_on_c,9,82,127,
2,3687,Note_off_c,9,36,0,
2,3688,Note_on_c,9,36,127,
2,3688,Note_on_c,9,37,127,
2,3688,Note_on_c,9,38,127,
2,3688,Note_on_c,9,39,127,
2,3688,Note_on_c,9,41,127,
2,3688,Note_on_c,9,42,127,
2,3688,Note_on_c,9,43,127,
2,3688,Note_on_c,9,45,127,
2,3688,Note_on_c,9,48,127,
2,3688,Note_on_c,9,51,127,
2,3688,Note_on_c,9,53,127,
2,3688,Note_on_c,9,80,127,
2,3688,Note_on_c,9,81,127,
2,3688,Note_on_c,9,82,127,
2,3689,Note_off_c,9,36,0,
2,3690,Note_on_c,9,36,127,
2,3690,Note_on_c,9,37,127,
2,3690,Note_on_c,9,38,127,
2,3690,Note_on_c,9,39,127,
2,3690,Note_on_c,9,41,127,
2,3690,Note_on_c,9,42,127,
2,3690,Note_on_c,9,43,127,
2,3690,Note_on_c,9,45,127,
2,3690,Note_on_c,9,48,127,
2,3690,Note_on_c,9,51,127,
2,3690,Note_on_c,9,53,127,
2,3690,Note_on_c,9,80,127,
2,3690,Note_on_c,9,81,127,
2,3690,Note_on_c,9,82,127,
2,3691,Note_off_c,9,36,0,
2,3692,Note_on_c,9,36,127,
2,3692,Note_on_c,9,37,127,
2,3692,Note_on_c,9,38,127,
2,3692,Note_on_c,9,39,127,
2,3692,Note_on_c,9,41,127,
2,3692,Note_on_c,9,42,127,
2,3692,Note_on_c,9,43,127,
2,3692,Note_on_c,9,45,127,
2,3692,Note_on_c,9,48,127,
2,3692,Note_on_c,9,51,127,
2,3692,Note_on_c,9,53,127,
2,3692,Note_on_c,9,80,127,
2,3692,Note_on_c,9,81,127,
2,3692,Note_on_c,9,82,127,
2,3693,Note_off_c,9,36,0,
2,3694,Note_on_c,9,36,127,
2,3694,Note_on_c,9,37,127,
2,3694,Note_on_c,9,38,127,
2,3694,Note_on_c,9,39,127,
2,3694,Note_on_c,9,41,127,
2,3694,Note_on_c,9,42,127,
2,3694,Note_on_c,9,43,127,
2,3694,Note_on_c,9,45,127,
2,3694,Note_on_c,9,48,127,
2,3694,Note_on_c,9,51,127,
2,3694,Note_on_c,9,53,127,
2,3694,Note_on_c,9,80,127,
2,3694,Note_on_c,9,81,127,
2,3694,Note_on_c,9,82,127,
2,3695,Note_off_c,9,36,0,
2,3696,Note_on_c,9,36,127,
2,3696,Note_on_c,9,37,127,
2,3696,Note_on_c,9,38,127,
2,3696,Note_on_c,9,39,127,
2,3696,Note_on_c,9,41,127,
2,3696,Note_on_c,9,42,127,
2,3696,Note_on_c,9,43,127,
2,3696,Note_on_c,9,45,127,
2,3696,Note_on_c,9,48,127,
2,3696,Note_on_c,9,51,127,
2,3696,Note_on_c,9,53,127,
2,3696,Note_on_c,9,80,127,
2,3696,Note_on_c,9,81,127,
2,3696,Note_on_c,9,82,127,
2,3697,Note_off_c,9,36,0,
2,3698,Note_on_c,9,36,127,
2,3698,Note_on_c,9,37,127,
2,3698,Note_on_c,9,38,127,
2,3698,Note_on_c,9,39,127,
2,3698,Note_on_c,9,41,127,
2,3698,Note_on_c,9,42,127,
2,3698,Note_on_c,9,43,127,
2,3698,Note_on_c,9,45,127,
2,3698,Note_on_c,9,48,127,
2,3698,Note_on_c,9,51,127,
2,3698,Note_on_c,9,53,127,
2,3698,Note_on_c,9,80,127,
2,3698,Note_on_c,9,81,127,
2,3698,Note_on_c,9,82,127,
2,3699,Note_off_c,9,36,0,
2,3700,Note_on_c,9,36,127,
2,3700,Note_on_c,9,37,127,
2,3700,Note_on_c,9,38,127,
2,3700,Note_on_c,9,39,127,
2,3700,Note_on_c,9,41,127,
2,3700,Note_on_c,9,42,127,
2,3700,Note_on_c,9,43,127,
2,3700,Note_on_c,9,45,127,
2,3700,Note_on_c,9,48,127,
2,3700,Note_on_c,9,51,127,
2,3700,Note_on_c,9,53,127,
2,3700,Note_on_c,9,80,127,
2,3700,Note_on_c,9,81,127,
2,3700,Note_on_c,9,82,127,
2,3701,Note_off_c,9,36,0,
2,3702,Note_on_c,9,36,127,
2,3702,Note_on_c,9,37,127,
2,3702,Note_on_c,9,38,127,
2,3702,Note_on_c,9,39,127,
2,3702,Note_on_c,9,41,127,
2,3702,Note_on_c,9,42,127,
2,3702,Note_on_c,9,43,127,
2,3702,Note_on_c,9,45,127,
2,3702,Note_on_c,9,48,127,
2,3702,Note_on_c,9,51,127,
2,3702,Note_on_c,9,53,127,
2,3702,Note_on_c,9,80,127,
2,3702,Note_on_c,9,81,127,
2,3702,Note_on_c,9,82,127,
2,3703,Note_off_c,9,36,0,
2,3704,Note_on_c,9,36,127,
2,3704,Note_on_c,9,37,127,
2,3704,Note_on_c,9,38,127,
2,3704,Note_on_c,9,39,127,
2,3704,Note_on_c,9,41,127,
2,3704,Note_on_c,9,42,127,
2,3704,Note_on_c,9,43,127,
2,3704,Note_on_c,9,45,127,
2,3704,Note_on_c,9,48,127,
2,3704,Note_on_c,9,51,127,
2,3704,Note_on_c,9,53,127,
2,3704,Note_on_c,9,80,127,
2,3704,Note_on_c,9,81,127,
2,3704,Note_on_c,9,82,127,
2,3705,Note_off_c,9,36,0,
2,3706,Note_on_c,9,36,127,
2,3706,Note_on_c,9,37,127,
2,3706,Note_on_c,9,38,127,
2,3706,Note_on_c,9,39,127,
2,3706,Note_on_c,9,41,127,
2,3706,Note_on_c,9,42,127,
2,3706,Note_on_c,9,43,127,
2,3706,Note_on_c,9,45,127,
2,3706,Note_on_c,9,48,127,
2,3706,Note_on_c,9,51,127,
2,3706,Note_on_c,9,53,127,
2,3706,Note_on_c,9,80,127,
2,3706,Note_on_c,9,81,127,
2,3706,Note_on_c,9,82,127,
2,3707,Note_off_c,9,36,0,
2,3708,Note_on_c,9,36,127,
2,3708,Note_on_c,9,37,127,
2,3708,Note_on_c,9,38,127,
2,3708,Note_on_c,9,39,127,
2,3708,Note_on_c,9,41,127,
2,3708,Note_on_c,9,42,127,
2,3708,Note_on_c,9,43,127,
2,3708,Note_on_c,9,45,127,
2,3708,Note_on_c,9,48,127,
2,3708,Note_on_c,9,51,127,
2,3708,Note_on_c,9,53,127,
2,3708,Note_on_c,9,80,127,
2,3708,Note_on_c,9,81,127,
2,3708,Note_on_c,9,82,127,
2,3709,Note_off_c,9,36,0,
2,3710,Note_on_c,9,36,127,
2,3710,Note_on_c,9,37,127,
2,3710,Note_on_c,9,38,127,
2,3710,Note_on_c,9,39,127,
2,3710,Note_on_c,9,41,127,
2,3710,Note_on_c,9,42,127,
2,3710,Note_on_c,9,43,127,
2,3710,Note_on_c,9,45,127,
2,3710,Note_on_c,9,48,127,
2,3710,Note_on_c,9,51,127,
2,3710,Note_on_c,9,53,127,
2,3710,Note_on_c,9,80,127,
2,3710,Note_on_c,9,81,127,
2,3710,Note_on_c,9,82,127,
2,3711,Note_off_c,9,36,0,
2,3712,Note_on_c,9,36,127,
2,3712,Note_on_c,9,37,127,
2,3712,Note_on_c,9,38,127,
2,3712,Note_on_c,9,39,127,
2,3712,Note_on_c,9,41,127,
2,3712,Note_on_c,9,42,127,
2,3712,Note_on_c,9,43,127,
2,3712,Note_on_c,9,45,127,
2,3712,Note_on_c,9,48,127,
2,3712,Note_on_c,9,51,127,
2,3712,Note_on_c,9,53,127,
2,3712,Note_on_c,9,80,127,
2,3712,Note_on_c,9,81,127,
2,3712,Note_on_c,9,82,127,
2,3713,Note_off_c,9,36,0,
2,3714,Note_on_c,9,36,127,
2,3714,Note_on_c,9,37,127,
2,3714,Note_on_c,9,38,127,
2,3714,Note_on_c,9,39,127,
2,3714,Note_on_c,9,41,127,
2,3714,Note_on_c,9,42,127,
2,3714,Note_on_c,9,43,127,
2,3714,Note_on_c,9,45,127,
2,3714,Note_on_c,9,48,127,
2,3714,Note_on_c,9,51,127,
2,3714,Note_on_c,9,53,127,
2,3714,Note_on_c,9,80,127,
2,3714,Note_on_c,9,81,127,
2,3714,Note_on_c,9,82,127,
2,3715,Note_off_c,9,36,0,
2,3716,Note_on_c,9,36,127,
2,3716,Note_on_c,9,37,127,
2,3716,Note_on_c,9,38,127,
2,3716,Note_on_c,9,39,127,
2,3716,Note_on_c,9,41,127,
2,3716,Note_on_c,9,42,127,
2,3716,Note_on_c,9,43,127,
2,3716,Note_on_c,9,45,127,
2,3716,Note_on_c,9,48,127,
2,3716,Note_on_c,9,51,127,
2,3716,Note_on_c,9,53,127,
2,3716,Note_on_c,9,80,127,
2,3716,Note_on_c,9,81,127,
2,3716,Note_on_c,9,82,127,
2,3717,Note_off_c,9,36,0,
2,3718,Note_on_c,9,36,127,
2,3718,Note_on_c,9,37,127,
2,3718,Note_on_c,9,38,127,
2,3718,Note_on_c,9,39,127,
2,3718,Note_on_c,9,41,127,
2,3718,Note_on_c,9,42,127,
2,3718,Note_on_c,9,43,127,
2,3718,Note_on_c,9,45,127,
2,3718,Note_on_c,9,48,127,
2,3718,Note_on_c,9,51,127,
2,3718,Note_on_c,9,53,127,
2,3718,Note_on_c,9,80,127,
2,3718,Note_on_c,9,81,127,
2,3718,Note_on_c,9,82,127,
2,3719,Note_off_c,9,36,0,
2,3720,Note_on_c,9,36,127,
2,3720,Note_on_c,9,37,127,
2,3720,Note_on_c,9,38,127,
2,3720,Note_on_c,9,39,127,
2,3720,Note_on_c,9,41,127,
2,3720,Note_on_c,9,42,127,
2,3720,Note_on_c,9,43,127,
2,3720,Note_on_c,9,45,127,
2,3720,Note_on_c,9,48,127,
2,3720,Note_on_c,9,51,127,
2,3720,Note_on_c,9,53,127,
2,3720,Note_on_c,9,80,127,
2,3720,Note_on_c,9,81,127,
2,3720,Note_on_c,9,82,127,
2,3721,Note_off_c,9,36,0,
2,3722,Note_on_c,9,36,127,
2,3722,Note_on_c,9,37,127,
2,3722,Note_on_c,9,38,127,
2,3722,Note_on_c,9,39,127,
2,3722,Note_on_c,9,41,127,
2,3722,Note_on_c,9,42,127,
2,3722,Note_on_c,9,43,127,
2,3722,Note_on_c,9,45,127,
2,3722,Note_on_c,9,48,127,
2,3722,Note_on_c,9,51,127,
2,3722,Note_on_c,9,53,127,
2,3722,Note_on_c,9,80,127,
2,3722,Note_on_c,9,81,127,
2,3722,Note_on_c,9,82,127,
2,3723,Note_off_c,9,36,0,
2,3724,Note_on_c,9,36,127,
2,3724,Note_on_c,9,37,127,
2,3724,Note_on_c,9,38,127,
2,3724,Note_on_c,9,39,127,
2,3724,Note_on_c,9,41,127,
2,3724,Note_on_c,9,42,127,
2,3724,Note_on_c,9,43,127,
2,3724,Note_on_c,9,45,127,
2,3724,Note_on_c,9,48,127,
2,3724,Note_on_c,9,51,127,
2,3724,Note_on_c,9,53,127,
2,3724,Note_on_c,9,80,127,
2,3724,Note_on_c,9,81,127,
2,3724,Note_on_c,9,82,127,
2,3725,Note_off_c,9,36,0,
2,3726,Note_on_c,9,36,127,
2,3726,Note_on_c,9,37,127,
2,3726,Note_on_c,9,38,127,
2,3726,Note_on_c,9,39,127,
2,3726,Note_on_c,9,41,127,
2,3726,Note_on_c,9,42,127,
2,3726,Note_on_c,9,43,127,
2,3726,Note_on_c,9,45,127,
2,3726,Note_on_c,9,48,127,
2,3726,Note_on_c,9,51,127,
2,3726,Note_on_c,9,53,127,
2,3726,Note_on_c,9,80,127,
2,3726,Note_on_c,9,81,127,
2,3726,Note_on_c,9,82,127,
2,3727,Note_off_c,9,36,0,
2,3728,Note_on_c,9,36,127,
2,3728,Note_on_c,9,37,127,
2,3728,Note_on_c,9,38,127,
2,3728,Note_on_c,9,39,127,
2,3728,Note_on_c,9,41,127,
2,3728,Note_on_c,9,42,127,
2,3728,Note_on_c,9,43,127,
2,3728,Note_on_c,9,45,127,
2,3728,Note_on_c,9,48,127,
2,3728,Note_on_c,9,51,127,
2,3728,Note_on_c,9,53,127,
2,3728,Note_on_c,9,80,127,
2,3728,Note_on_c,9,81,127,
2,3728,Note_on_c,9,82,127,
2,3729,Note_off_c,9,36,0,
2,3730,Note_on_c,9,36,127,
2,3730,Note_on_c,9,37,127,
2,3730,Note_on_c,9,38,127,
2,3730,Note_on_c,9,39,127,
2,3730,Note_on_c,9,41,127,
2,3730,Note_on_c,9,42,127,
2,3730,Note_on_c,9,43,127,
2,3730,Note_on_c,9,45,127,
2,3730,Note_on_c,9,48,127,
2,3730,Note_on_c,9,51,127,
2,3730,Note_on_c,9,53,127,
2,3730,Note_on_c,9,80,127,
2,3730,Note_on_c,9,81,127,
2,3730,Note_on_c,9,82,127,
2,3731,Note_off_c,9,36,0,
2,3732,Note_on_c,9,36,127,
2,3732,Note_on_c,9,37,127,
2,3732,Note_on_c,9,38,127,
2,3732,Note_on_c,9,39,127,
2,3732,Note_on_c,9,41,127,
2,3732,Note_on_c,9,42,127,
2,3732,Note_on_c,9,43,127,
2,3732,Note_on_c,9,45,127,
2,3732,Note_on_c,9,48,127,
2,3732,Note_on_c,9,51,127,
2,3732,Note_on_c,9,53,127,
2,3732,Note_on_c,9,80,127,
2,3732,Note_on_c,9,81,127,
2,3732,Note_on_c,9,82,127,
2,3733,Note_off_c,9,36,0,
2,3734,Note_on_c,9,36,127,
2,3734,Note_on_c,9,37,127,
2,3734,Note_on_c,9,38,127,
2,3734,Note_on_c,9,39,127,
2,3734,Note_on_c,9,41,127,
2,3734,Note_on_c,9,42,127,
2,3734,Note_on_c,9,43,127,
2,3734,Note_on_c,9,45,127,
2,3734,Note_on_c,9,48,127,
2,3734,Note_on_c,9,51,127,
2,3734,Note_on_c,9,53,127,
2,3734,Note_on_c,9,80,127,
2,3734,Note_on_c,9,81,127,
2,3734,Note_on_c,9,82,127,
2,3735,Note_off_c,9,36,0,
2,3736,Note_on_c,9,36,127,
2,3736,Note_on_c,9,37,127,
2,3736,Note_on_c,9,38,127,
2,3736,Note_on_c,9,39,127,
2,3736,Note_on_c,9,41,127,
2,3736,Note_on_c,9,42,127,
2,3736,Note_on_c,9,43,127,
2,3736,Note_on_c,9,45,127,
2,3736,Note_on_c,9,48,127,
2,3736,Note_on_c,9,51,127,
2,3736,Note_on_c,9,53,127,
2,3736,Note_on_c,9,80,127,
2,3736,Note_on_c,9,81,127,
2,3736,Note_on_c,9,82,127,
2,3737,Note_off_c,9,36,0,
2,3738,Note_on_c,9,36,127,
2,3738,Note_on_c,9,37,127,
2,3738,Note_on_c,9,38,127,
2,3738,Note_on_c,9,39,127,
2,3738,Note_on_c,9,41,127,
2,3738,Note_on_c,9,42,127,
2,3738,Note_on_c,9,43,127,
2,3738,Note_on_c,9,45,127,
2,3738,Note_on_c,9,48,127,
2,3738,Note_on_c,9,51,127,
2,3738,Note_on_c,9,53,127,
2,3738,Note_on_c,9,80,127,
2,3738,Note_on_c,9,81,127,
2,3738,Note_on_c,9,82,127,
2,3739,Note_off_c,9,36,0,
2,3740,Note_on_c,9,36,127,
2,3740,Note_on_c,9,37,127,
2,3740,Note_on_c,9,38,127,
2,3740,Note_on_c,9,39,127,
2,3740,Note_on_c,9,41,127,
2,3740,Note_on_c,9,42,127,
2,3740,Note_on_c,9,43,127,
2,3740,Note_on_c,9,45,127,
2,3740,Note_on_c,9,48,127,
2,3740,Note_on_c,9,51,127,
2,3740,Note_on_c,9,53,127,
2,3740,Note_on_c,9,80,127,
2,3740,Note_on_c,9,81,127,
2,3740,Note_on_c,9,82,127,
2,3741,Note_off_c,9,36,0,
2,3742,Note_on_c,9,36,127,
2,3742,Note_on_c,9,37,127,
2,3742,Note_on_c,9,38,127,
2,3742,Note_on_c,9,39,127,
2,3742,Note_on_c,9,41,127,
2,3742,Note_on_c,9,42,127,
2,3742,Note_on_c,9,43,127,
2,3742,Note_on_c,9,45,127,
2,3742,Note_on_c,9,48,127,
2,3742,Note_on_c,9,51,127,
2,3742,Note_on_c,9,53,127,
2,3742,Note_on_c,9,80,127,
2,3742,Note_on_c,9,81,127,
2,3742,Note_on_c,9,82,127,
2,3743,Note_off_c,9,36,0,
2,3744,Note_on_c,9,36,127,
2,3744,Note_on_c,9,37,127,
2,3744,Note_on_c,9,38,127,
2,3744,Note_on_c,9,39,127,
2,3744,Note_on_c,9,41,127,
2,3744,Note_on_c,9,42,127,
2,3744,Note_on_c,9,43,127,
2,3744,Note_on_c,9,45,127,
2,3744,Note_on_c,9,48,127,
2,3744,Note_on_c,9,51,127,
2,3744,Note_on_c,9,53,127,
2,3744,Note_on_c,9,80,127,
2,3744,Note_on_c,9,81,127,
2,3744,Note_on_c,9,82,127,
2,3745,Note_off_c,9,36,0,
2,3746,Note_on_c,9,36,127,
2,3746,Note_on_c,9,37,127,
2,3746,Note_on_c,9,38,127,
2,3746,Note_on_c,9,39,127,
2,3746,Note_on_c,9,41,127,
2,3746,Note_on_c,9,42,127,
2,3746,Note_on_c,9,43,127,
2,3746,Note_on_c,9,45,127,
2,3746,Note_on_c,9,48,127,
2,3746,Note_on_c,9,51,127,
2,3746,Note_on_c,9,53,127,
2,3746,Note_on_c,9,80,127,
2,3746,Note_on_c,9,81,127,
2,3746,Note_on_c,9,82,127,
2,3747,Note_off_c,9,36,0,
2,3748,Note_on_c,9,36,127,
2,3748,Note_on_c,9,37,127,
2,3748,Note_on_c,9,38,127,
2,3748,Note_on_c,9,39,127,
2,3748,Note_on_c,9,41,127,
2,3748,Note_on_c,9,42,127,
2,3748,Note_on_c,9,43,127,
2,3748,Note_on_c,9,45,127,
2,3748,Note_on_c,9,48,127,
2,3748,Note_on_c,9,51,127,
2,3748,Note_on_c,9,53,127,
2,3748,Note_on_c,9,80,127,
2,3748,Note_on_c,9,81,127,
2,3748,Note_on_c,9,82,127,
2,3749,Note_off_c,9,36,0,
2,3750,Note_on_c,9,36,127,
2,3750,Note_on_c,9,37,127,
2,3750,Note_on_c,9,38,127,
2,3750,Note_on_c,9,39,127,
2,3750,Note_on_c,9,41,127,
2,3750,Note_on_c,9,42,127,
2,3750,Note_on_c,9,43,127,
2,3750,Note_on_c,9,45,127,
2,3750,Note_on_c,9,48,127,
2,3750,Note_on_c,9,51,127,
2,3750,Note_on_c,9,53,127,
2,3750,Note_on_c,9,80,127,
2,3750,Note_on_c,9,81,127,
2,3750,Note_on_c,9,82,127,
2,3751,Note_off_c,9,36,0,
2,3752,Note_on_c,9,36,127,
2,3752,Note_on_c,9,37,127,
2,3752,Note_on_c,9,38,127,
2,3752,Note_on_c,9,39,127,
2,3752,Note_on_c,9,41,127,
2,3752,Note_on_c,9,42,127,
2,3752,Note_on_c,9,43,127,
2,3752,Note_on_c,9,45,127,
2,3752,Note_on_c,9,48,127,
2,3752,Note_on_c,9,51,127,
2,3752,Note_on_c,9,53,127,
2,3752,Note_on_c,9,80,127,
2,3752,Note_on_c,9,81,127,
2,3752,Note_on_c,9,82,127,
2,3753,Note_off_c,9,36,0,
2,3754,Note_on_c,9,36,127,
2,3754,Note_on_c,9,37,127,
2,3754,Note_on_c,9,38,127,
2,3754,Note_on_c,9,39,127,
2,3754,Note_on_c,9,41,127,
2,3754,Note_on_c,9,42,127,
2,3754,Note_on_c,9,43,127,
2,3754,Note_on_c,9,45,127,
2,3754,Note_on_c,9,48,127,
2,3754,Note_on_c,9,51,127,
2,3754,Note_on_c,9,53,127,
2,3754,Note_on_c,9,80,127,
2,3754,Note_on_c,9,81,127,
2,3754,Note_on_c,9,82,127,
2,3755,Note_off_c,9,36,0,
2,3756,Note_on_c,9,36,127,
2,3756,Note_on_c,9,37,127,
2,3756,Note_on_c,9,38,127,
2,3756,Note_on_c,9,39,127,
2,3756,Note_on_c,9,41,127,
2,3756,Note_on_c,9,42,127,
2,3756,Note_on_c,9,43,127,
2,3756,Note_on_c,9,45,127,
2,3756,Note_on_c,9,48,127,
2,3756,Note_on_c,9,51,127,
2,3756,Note_on_c,9,53,127,
2,3756,Note_on_c,9,80,127,
2,3756,Note_on_c,9,81,127,
2,3756,Note_on_c,9,82,127,
2,3757,Note_off_c,9,36,0,
2,3758,Note_on_c,9,36,127,
2,3758,Note_on_c,9,37,127,
2,3758,Note_on_c,9,38,127,
2,3758,Note_on_c,9,39,127,
2,3758,Note_on_c,9,41,127,
2,3758,Note_on_c,9,42,127,
2,3758,Note_on_c,9,43,127,
2,3758,Note_on_c,9,45,127,
2,3758,Note_on_c,9,48,127,
2,3758,Note_on_c,9,51,127,
2,3758,Note_on_c,9,53,127,
2,3758,Note_on_c,9,80,127,
2,3758,Note_on_c,9,81,127,
2,3758,Note_on_c,9,82,127,
2,3759,Note_off_c,9,36,0,
2,3760,Note_on_c,9,36,127,
2,3760,Note_on_c,9,37,127,
2,3760,Note_on_c,9,38,127,
2,3760,Note_on_c,9,39,127,
2,3760,Note_on_c,9,41,127,
2,3760,Note_on_c,9,42,127,
2,3760,Note_on_c,9,43,127,
2,3760,Note_on_c,9,45,127,
2,3760,Note_on_c,9,48,127,
2,3760,Note_on_c,9,51,127,
2,3760,Note_on_c,9,53,127,
2,3760,Note_on_c,9,80,127,
2,3760,Note_on_c,9,81,127,
2,3760,Note_on_c,9,82,127,
2,3761,Note_off_c,9,36,0,
2,3762,Note_on_c,9,36,127,
2,3762,Note_on_c,9,37,127,
2,3762,Note_on_c,9,38,127,
2,3762,Note_on_c,9,39,127,
2,3762,Note_on_c,9,41,127,
2,3762,Note_on_c,9,42,127,
2,3762,Note_on_c,9,43,127,
2,3762,Note_on_c,9,45,127,
2,3762,Note_on_c,9,48,127,
2,3762,Note_on_c,9,51,127,
2,3762,Note_on_c,9,53,127,
2,3762,Note_on_c,9,80,127,
2,3762,Note_on_c,9,81,127,
2,3762,Note_on_c,9,82,127,
2,3763,Note_off_c,9,36,0,
2,3764,Note_on_c,9,36,127,
2,3764,Note_on_c,9,37,127,
2,3764,Note_on_c,9,38,127,
2,3764,Note_on_c,9,39,127,
2,3764,Note_on_c,9,41,127,
2,3764,Note_on_c,9,42,127,
2,3764,Note_on_c,9,43,127,
2,3764,Note_on_c,9,45,127,
2,3764,Note_on_c,9,48,127,
2,3764,Note_on_c,9,51,127,
2,3764,Note_on_c,9,53,127,
2,3764,Note_on_c,9,80,127,
2,3764,Note_on_c,9,81,127,
2,3764,Note_on_c,9,82,127,
2,3765,Note_off_c,9,36,0,
2,3766,Note_on_c,9,36,127,
2,3766,Note_on_c,9,37,127,
2,3766,Note_on_c,9,38,127,
2,3766,Note_on_c,9,39,127,
2,3766,Note_on_c,9,41,127,
2,3766,Note_on_c,9,42,127,
2,3766,Note_on_c,9,43,127,
2,3766,Note_on_c,9,45,127,
2,3766,Note_on_c,9,48,127,
2,3766,Note_on_c,9,51,127,
2,3766,Note_on_c,9,53,127,
2,3766,Note_on_c,9,80,127,
2,3766,Note_on_c,9,81,127,
2,3766,Note_on_c,9,82,127,
2,3767,Note_off_c,9,36,0,
2,3768,Note_on_c,9,36,127,
2,3768,Note_on_c,9,37,127,
2,3768,Note_on_c,9,38,127,
2,3768,Note_on_c,9,39,127,
2,3768,Note_on_c,9,41,127,
2,3768,Note_on_c,9,42,127,
2,3768,Note_on_c,9,43,127,
2,3768,Note_on_c,9,45,127,
2,3768,Note_on_c,9,48,127,
2,3768,Note_on_c,9,51,127,
2,3768,Note_on_c,9,53,127,
2,3768,Note_on_c,9,80,127,
2,3768,Note_on_c,9,81,127,
2,3768,Note_on_c,9,82,127,
2,3769,Note_off_c,9,36,0,
2,3770,Note_on_c,9,36,127,
2,3770,Note_on_c,9,37,127,
2,3770,Note_on_c,9,38,127,
2,3770,Note_on_c,9,39,127,
2,3770,Note_on_c,9,41,127,
2,3770,Note_on_c,9,42,127,
2,3770,Note_on_c,9,43,127,
2,3770,Note_on_c,9,45,127,
2,3770,Note_on_c,9,48,127,
2,3770,Note_on_c,9,51,127,
2,3770,Note_on_c,9,53,127,
2,3770,Note_on_c,9,80,127,
2,3770,Note_on_c,9,81,127,
2,3770,Note_on_c,9,82,127,
2,3771,Note_off_c,9,36,0,
2,3772,Note_on_c,9,36,127,
2,3772,Note_on_c,9,37,127,
2,3772,Note_on_c,9,38,127,
2,3772,Note_on_c,9,39,127,
2,3772,Note_on_c,9,41,127,
2,3772,Note_on_c,9,42,127,
2,3772,Note_on_c,9,43,127,
2,3772,Note_on_c,9,45,127,
2,3772,Note_on_c,9,48,127,
2,3772,Note_on_c,9,51,127,
2,3772,Note_on_c,9,53,127,
2,3772,Note_on_c,9,80,127,
2,3772,Note_on_c,9,81,127,
2,3772,Note_on_c,9,82,127,
2,3773,Note_off_c,9,36,0,
2,3774,Note_on_c,9,36,127,
2,3774,Note_on_c,9,37,127,
2,3774,Note_on_c,9,38,127,
2,3774,Note_on_c,9,39,127,
2,3774,Note_on_c,9,41,127,
2,3774,Note_on_c,9,42,127,
2,3774,Note_on_c,9,43,127,
2,3774,Note_on_c,9,45,127,
2,3774,Note_on_c,9,48,127,
2,3774,Note_on_c,9,51,127,
2,3774,Note_on_c,9,53,127,
2,3774,Note_on_c,9,80,127,
2,3774,Note_on_c,9,81,127,
2,3774,Note_on_c,9,82,127,
2,3775,Note_off_c,9,36,0,
2,3776,Note_on_c,9,36,127,
2,3776,Note_on_c,9,37,127,
2,3776,Note_on_c,9,38,127,
2,3776,Note_on_c,9,39,127,
2,3776,Note_on_c,9,41,127,
2,3776,Note_on_c,9,42,127,
2,3776,Note_on_c,9,43,127,
2,3776,Note_on_c,9,45,127,
2,3776,Note_on_c,9,48,127,
2,3776,Note_on_c,9,51,127,
2,3776,Note_on_c,9,53,127,
2,3776,Note_on_c,9,80,127,
2,3776,Note_on_c,9,81,127,
2,3776,Note_on_c,9,82,127,
2,3777,Note_off_c,9,36,0,
2,3778,Note_on_c,9,36,127,
2,3778,Note_on_c,9,37,127,
2,3778,Note_on_c,9,38,127,
2,3778,Note_on_c,9,39,127,
2,3778,Note_on_c,9,41,127,
2,3778,Note_on_c,9,42,127,
2,3778,Note_on_c,9,43,127,
2,3778,Note_on_c,9,45,127,
2,3778,Note_on_c,9,48,127,
2,3778,Note_on_c,9,51,127,
2,3778,Note_on_c,9,53,127,
2,3778,Note_on_c,9,80,127,
2,3778,Note_on_c,9,81,127,
2,3778,Note_on_c,9,82,127,
2,3779,Note_off_c,9,36,0,
2,3780,Note_on_c,9,36,127,
2,3780,Note_on_c,9,37,127,
2,3780,Note_on_c,9,38,127,
2,3780,Note_on_c,9,39,127,
2,3780,Note_on_c,9,41,127,
2,3780,Note_on_c,9,42,127,
2,3780,Note_on_c,9,43,127,
2,3780,Note_on_c,9,45,127,
2,3780,Note_on_c,9,48,127,
2,3780,Note_on_c,9,51,127,
2,3780,Note_on_c,9,53,127,
2,3780,Note_on_c,9,80,127,
2,3780,Note_on_c,9,81,127,
2,3780,Note_on_c,9,82,127,
2,3781,Note_off_c,9,36,0,
2,3782,Note_on_c,9,36,127,
2,3782,Note_on_c,9,37,127,
2,3782,Note_on_c,9,38,127,
2,3782,Note_on_c,9,39,127,
2,3782,Note_on_c,9,41,127,
2,3782,Note_on_c,9,42,127,
2,3782,Note_on_c,9,43,127,
2,3782,Note_on_c,9,45,127,
2,3782,Note_on_c,9,48,127,
2,3782,Note_on_c,9,51,127,
2,3782,Note_on_c,9,53,127,
2,3782,Note_on_c,9,80,127,
2,3782,Note_on_c,9,81,127,
2,3782,Note_on_c,9,82,127,
2,3783,Note_off_c,9,36,0,
2,3784,Note_on_c,9,36,127,
2,3784,Note_on_c,9,37,127,
2,3784,Note_on_c,9,38,127,
2,3784,Note_on_c,9,39,127,
2,3784,Note_on_c,9,41,127,
2,3784,Note_on_c,9,42,127,
2,3784,Note_on_c,9,43,127,
2,3784,Note_on_c,9,45,127,
2,3784,Note_on_c,9,48,127,
2,3784,Note_on_c,9,51,127,
2,3784,Note_on_c,9,53,127,
2,3784,Note_on_c,9,80,127,
2,3784,Note_on_c,9,81,127,
2,3784,Note_on_c,9,82,127,
2,3785,Note_off_c,9,36,0,
2,3786,Note_on_c,9,36,127,
2,3786,Note_on_c,9,37,127,
2,3786,Note_on_c,9,38,127,
2,3786,Note_on_c,9,39,127,
2,3786,Note_on_c,9,41,127,
2,3786,Note_on_c,9,42,127,
2,3786,Note_on_c,9,43,127,
2,3786,Note_on_c,9,45,127,
2,3786,Note_on_c,9,48,127,
2,3786,Note_on_c,9,51,127,
2,3786,Note_on_c,9,53,127,
2,3786,Note_on_c,9,80,127,
2,3786,Note_on_c,9,81,127,
2,3786,Note_on_c,9,82,127,
2,3787,Note_off_c,9,36,0,
2,3788,Note_on_c,9,36,127,
2,3788,Note_on_c,9,37,127,
2,3788,Note_on_c,9,38,127,
2,3788,Note_on_c,9,39,127,
2,3788,Note_on_c,9,41,127,
2,3788,Note_on_c,9,42,127,
2,3788,Note_on_c,9,43,127,
2,3788,Note_on_c,9,45,127,
2,3788,Note_on_c,9,48,127,
2,3788,Note_on_c,9,51,127,
2,3788,Note_on_c,9,53,127,
2,3788,Note_on_c,9,80,127,
2,3788,Note_on_c,9,81,127,
2,3788,Note_on_c,9,82,127,
2,3789,Note_off_c,9,36,0,
2,3790,Note_on_c,9,36,127,
2,3790,Note_on_c,9,37,127,
2,3790,Note_on_c,9,38,127,
2,3790,Note_on_c,9,39,127,
2,3790,Note_on_c,9,41,127,
2,3790,Note_on_c,9,42,127,
2,3790,Note_on_c,9,43,127,
2,3790,Note_on_c,9,45,127,
2,3790,Note_on_c,9,48,127,
2,3790,Note_on_c,9,51,127,
2,3790,Note_on_c,9,53,127,
2,3790,Note_on_c,9,80,127,
2,3790,Note_on_c,9,81,127,
2,3790,Note_on_c,9,82,127,
2,3791,Note_off_c,9,36,0,
2,3792,Note_on_c,9,36,127,
2,3792,Note_on_c,9,37,127,
2,3792,Note_on_c,9,38,127,
2,3792,Note_on_c,9,39,127,
2,3792,Note_on_c,9,41,127,
2,3792,Note_on_c,9,42,127,
2,3792,Note_on_c,9,43,127,
2,3792,Note_on_c,9,45,127,
2,3792,Note_on_c,9,48,127,
2,3792,Note_on_c,9,51,127,
2,3792,Note_on_c,9,53,127,
2,3792,Note_on_c,9,80,127,
2,3792,Note_on_c,9,81,127,
2,3792,Note_on_c,9,82,127,
2,3793,Note_off_c,9,36,0,
2,3794,Note_on_c,9,36,127,
2,3794,Note_on_c,9,37,127,
2,3794,Note_on_c,9,38,127,
2,3794,Note_on_c,9,39,127,
2,3794,Note_on_c,9,41,127,
2,3794,Note_on_c,9,42,127,
2,3794,Note_on_c,9,43,127,
2,3794,Note_on_c,9,45,127,
2,3794,Note_on_c,9,48,127,
2,3794,Note_on_c,9,51,127,
2,3794,Note_on_c,9,53,127,
2,3794,Note_on_c,9,80,127,
2,3794,Note_on_c,9,81,127,
2,3794,Note_on_c,9,82,127,
2,3795,Note_off_c,9,36,0,
2,3796,Note_on_c,9,36,127,
2,3796,Note_on_c,9,37,127,
2,3796,Note_on_c,9,38,127,
2,3796,Note_on_c,9,39,127,
2,3796,Note_on_c,9,41,127,
2,3796,Note_on_c,9,42,127,
2,3796,Note_on_c,9,43,127,
2,3796,Note_on_c,9,45,127,
2,3796,Note_on_c,9,48,127,
2,3796,Note_on_c,9,51,127,
2,3796,Note_on_c,9,53,127,
2,3796,Note_on_c,9,80,127,
2,3796,Note_on_c,9,81,127,
2,3796,Note_on_c,9,82,127,
2,3797,Note_off_c,9,36,0,
2,3798,Note_on_c,9,36,127,
2,3798,Note_on_c,9,37,127,
2,3798,Note_on_c,9,38,127,
2,3798,Note_on_c,9,39,127,
2,3798,Note_on_c,9,41,127,
2,3798,Note_on_c,9,42,127,
2,3798,Note_on_c,9,43,127,
2,3798,Note_on_c,9,45,127,
2,3798,Note_on_c,9,48,127,
2,3798,Note_on_c,9,51,127,
2,3798,Note_on_c,9,53,127,
2,3798,Note_on_c,9,80,127,
2,3798,Note_on_c,9,81,127,
2,3798,Note_on_c,9,82,127,
2,3799,Note_off_c,9,36,0,
2,3800,Note_on_c,9,36,127,
2,3800,Note_on_c,9,37,127,
2,3800,Note_on_c,9,38,127,
2,3800,Note_on_c,9,39,127,
2,3800,Note_on_c,9,41,127,
2,3800,Note_on_c,9,42,127,
2,3800,Note_on_c,9,43,127,
2,3800,Note_on_c,9,45,127,
2,3800,Note_on_c,9,48,127,
2,3800,Note_on_c,9,51,127,
2,3800,Note_on_c,9,53,127,
2,3800,Note_on_c,9,80,127,
2,3800,Note_on_c,9,81,127,
2,3800,Note_on_c,9,82,127,
2,3801,Note_off_c,9,36,0,
2,3802,Note_on_c,9,36,127,
2,3802,Note_on_c,9,37,127,
2,3802,Note_on_c,9,38,127,
2,3802,Note_on_c,9,39,127,
2,3802,Note_on_c,9,41,127,
2,3802,Note_on_c,9,42,127,
2,3802,Note_on_c,9,43,127,
2,3802,Note_on_c,9,45,127,
2,3802,Note_on_c,9,48,127,
2,3802,Note_on_c,9,51,127,
2,3802,Note_on_c,9,53,127,
2,3802,Note_on_c,9,80,127,
2,3802,Note_on_c,9,81,127,
2,3802,Note_on_c,9,82,127,
2,3803,Note_off_c,9,36,0,
2,3804,Note_on_c,9,36,127,
2,3804,Note_on_c,9,37,127,
2,3804,Note_on_c,9,38,127,
2,3804,Note_on_c,9,39,127,
2,3804,Note_on_c,9,41,127,
2,3804,Note_on_c,9,42,127,
2,3804,Note_on_c,9,43,127,
2,3804,Note_on_c,9,45,127,
2,3804,Note_on_c,9,48,127,
2,3804,Note_on_c,9,51,127,
2,3804,Note_on_c,9,53,127,
2,3804,Note_on_c,9,80,127,
2,3804,Note_on_c,9,81,127,
2,3804,Note_on_c,9,82,127,
2,3805,Note_off_c,9,36,0,
2,3806,Note_on_c,9,36,127,
2,3806,Note_on_c,9,37,127,
2,3806,Note_on_c,9,38,127,
2,3806,Note_on_c,9,39,127,
2,3806,Note_on_c,9,41,127,
2,3806,Note_on_c,9,42,127,
2,3806,Note_on_c,9,43,127,
2,3806,Note_on_c,9,45,127,
2,3806,Note_on_c,9,48,127,
2,3806,Note_on_c,9,51,127,
2,3806,Note_on_c,9,53,127,
2,3806,Note_on_c,9,80,127,
2,3806,Note_on_c,9,81,127,
2,3806,Note_on_c,9,82,127,
2,3807,Note_off_c,9,36,0,
2,3808,Note_on_c,9,36,127,
2,3808,Note_on_c,9,37,127,
2,3808,Note_on_c,9,38,127,
2,3808,Note_on_c,9,39,127,
2,3808,Note_on_c,9,41,127,
2,3808,Note_on_c,9,42,127,
2,3808,Note_on_c,9,43,127,
2,3808,Note_on_c,9,45,127,
2,3808,Note_on_c,9,48,127,
2,3808,Note_on_c,9,51,127,
2,3808,Note_on_c,9,53,127,
2,3808,Note_on_c,9,80,127,
2,3808,Note_on_c,9,81,127,
2,3808,Note_on_c,9,82,127,
2,3809,Note_off_c,9,36,0,
2,3810,Note_on_c,9,36,127,
2,3810,Note_on_c,9,37,127,
2,3810,Note_on_c,9,38,127,
2,3810,Note_on_c,9,39,127,
2,3810,Note_on_c,9,41,127,
2,3810,Note_on_c,9,42,127,
2,3810,Note_on_c,9,43,127,
2,3810,Note_on_c,9,45,127,
2,3810,Note_on_c,9,48,127,
2,3810,Note_on_c,9,51,127,
2,3810,Note_on_c,9,53,127,
2,3810,Note_on_c,9,80,127,
2,3810,Note_on_c,9,81,127,
2,3810,Note_on_c,9,82,127,
2,3811,Note_off_c,9,36,0,
2,3812,Note_on_c,9,36,127,
2,3812,Note_on_c,9,37,127,
2,3812,Note_on_c,9,38,127,
2,3812,Note_on_c,9,39,127,
2,3812,Note_on_c,9,41,127,
2,3812,Note_on_c,9,42,127,
2,3812,Note_on_c,9,43,127,
2,3812,Note_on_c,9,45,127,
2,3812,Note_on_c,9,48,127,
2,3812,Note_on_c,9,51,127,
2,3812,Note_on_c,9,53,127,
2,3812,Note_on_c,9,80,127,
2,3812,Note_on_c,9,81,127,
2,3812,Note_on_c,9,82,127,
2,3813,Note_off_c,9,36,0,
2,3814,Note_on_c,9,36,127,
2,3814,Note_on_c,9,37,127,
2,3814,Note_on_c,9,38,127,
2,3814,Note_on_c,9,39,127,
2,3814,Note_on_c,9,41,127,
2,3814,Note_on_c,9,42,127,
2,3814,Note_on_c,9,43,127,
2,3814,Note_on_c,9,45,127,
2,3814,Note_on_c,9,48,127,
2,3814,Note_on_c,9,51,127,
2,3814,Note_on_c,9,53,127,
2,3814,Note_on_c,9,80,127,
2,3814,Note_on_c,9,81,127,
2,3814,Note_on_c,9,82,127,
2,3815,Note_off_c,9,36,0,
2,3816,Note_on_c,9,36,127,
2,3816,Note_on_c,9,37,127,
2,3816,Note_on_c,9,38,127,
2,3816,Note_on_c,9,39,127,
2,3816,Note_on_c,9,41,127,
2,3816,Note_on_c,9,42,127,
2,3816,Note_on_c,9,43,127,
2,3816,Note_on_c,9,45,127,
2,3816,Note_on_c,9,48,127,
2,3816,Note_on_c,9,51,127,
2,3816,Note_on_c,9,53,127,
2,3816,Note_on_c,9,80,127,
2,3816,Note_on_c,9,81,127,
2,3816,Note_on_c,9,82,127,
2,3817,Note_off_c,9,36,0,
2,3818,Note_on_c,9,36,127,
2,3818,Note_on_c,9,37,127,
2,3818,Note_on_c,9,38,127,
2,3818,Note_on_c,9,39,127,
2,3818,Note_on_c,9,41,127,
2,3818,Note_on_c,9,42,127,
2,3818,Note_on_c,9,43,127,
2,3818,Note_on_c,9,45,127,
2,3818,Note_on_c,9,48,127,
2,3818,Note_on_c,9,51,127,
2,3818,Note_on_c,9,53,127,
2,3818,Note_on_c,9,80,127,
2,3818,Note_on_c,9,81,127,
2,3818,Note_on_c,9,82,127,
2,3819,Note_off_c,9,36,0,
2,3820,Note_on_c,9,36,127,
2,3820,Note_on_c,9,37,127,
2,3820,Note_on_c,9,38,127,
2,3820,Note_on_c,9,39,127,
2,3820,Note_on_c,9,41,127,
2,3820,Note_on_c,9,42,127,
2,3820,Note_on_c,9,43,127,
2,3820,Note_on_c,9,45,127,
2,3820,Note_on_c,9,48,127,
2,3820,Note_on_c,9,51,127,
2,3820,Note_on_c,9,53,127,
2,3820,Note_on_c,9,80,127,
2,3820,Note_on_c,9,81,127,
2,3820,Note_on_c,9,82,127,
2,3821,Note_off_c,9,36,0,
2,3822,Note_on_c,9,36,127,
2,3822,Note_on_c,9,37,127,
2,3822,Note_on_c,9,38,127,
2,3822,Note_on_c,9,39,127,
2,3822,Note_on_c,9,41,127,
2,3822,Note_on_c,9,42,127,
2,3822,Note_on_c,9,43,127,
2,3822,Note_on_c,9,45,127,
2,3822,Note_on_c,9,48,127,
2,3822,Note_on_c,9,51,127,
2,3822,Note_on_c,9,53,127,
2,3822,Note_on_c,9,80,127,
2,3822,Note_on_c,9,81,127,
2,3822,Note_on_c,9,82,127,
2,3823,Note_off_c,9,36,0,
2,3824,Note_on_c,9,36,127,
2,3824,Note_on_c,9,37,127,
2,3824,Note_on_c,9,38,127,
2,3824,Note_on_c,9,39,127,
2,3824,Note_on_c,9,41,127,
2,3824,Note_on_c,9,42,127,
2,3824,Note_on_c,9,43,127,
2,3824,Note_on_c,9,45,127,
2,3824,Note_on_c,9,48,127,
2,3824,Note_on_c,9,51,127,
2,3824,Note_on_c,9,53,127,
2,3824,Note_on_c,9,80,127,
2,3824,Note_on_c,9,81,127,
2,3824,Note_on_c,9,82,127,
2,3825,Note_off_c,9,36,0,
2,3826,Note_on_c,9,36,127,
2,3826,Note_on_c,9,37,127,
2,3826,Note_on_c,9,38,127,
2,3826,Note_on_c,9,39,127,
2,3826,Note_on_c,9,41,127,
2,3826,Note_on_c,9,42,127,
2,3826,Note_on_c,9,43,127,
2,3826,Note_on_c,9,45,127,
2,3826,Note_on_c,9,48,127,
2,3826,Note_on_c,9,51,127,
2,3826,Note_on_c,9,53,127,
2,3826,Note_on_c,9,80,127,
2,3826,Note_on_c,9,81,127,
2,3826,Note_on_c,9,82,127,
2,3827,Note_off_c,9,36,0,
2,3828,Note_on_c,9,36,127,
2,3828,Note_on_c,9,37,127,
2,3828,Note_on_c,9,38,127,
2,3828,Note_on_c,9,39,127,
2,3828,Note_on_c,9,41,127,
2,3828,Note_on_c,9,42,127,
2,3828,Note_on_c,9,43,127,
2,3828,Note_on_c,9,45,127,
2,3828,Note_on_c,9,48,127,
2,3828,Note_on_c,9,51,127,
2,3828,Note_on_c,9,53,127,
2,3828,Note_on_c,9,80,127,
2,3828,Note_on_c,9,81,127,
2,3828,Note_on_c,9,82,127,
2,3829,Note_off_c,9,36,0,
2,3830,Note_on_c,9,36,127,
2,3830,Note_on_c,9,37,127,
2,3830,Note_on_c,9,38,127,
2,3830,Note_on_c,9,39,127,
2,3830,Note_on_c,9,41,127,
2,3830,Note_on_c,9,42,127,
2,3830,Note_on_c,9,43,127,
2,3830,Note_on_c,9,45,127,
2,3830,Note_on_c,9,48,127,
2,3830,Note_on_c,9,51,127,
2,3830,Note_on_c,9,53,127,
2,3830,Note_on_c,9,80,127,
2,3830,Note_on_c,9,81,127,
2,3830,Note_on_c,9,82,127,
2,3831,Note_off_c,9,36,0,
2,3832,Note_on_c,9,36,127,
2,3832,Note_on_c,9,37,127,
2,3832,Note_on_c,9,38,127,
2,3832,Note_on_c,9,39,127,
2,3832,Note_on_c,9,41,127,
2,3832,Note_on_c,9,42,127,
2,3832,Note_on_c,9,43,127,
2,3832,Note_on_c,9,45,127,
2,3832,Note_on_c,9,48,127,
2,3832,Note_on_c,9,51,127,
2,3832,Note_on_c,9,53,127,
2,3832,Note_on_c,9,80,127,
2,3832,Note_on_c,9,81,127,
2,3832,Note_on_c,9,82,127,
2,3833,Note_off_c,9,36,0,
2,3834,Note_on_c,9,36,127,
2,3834,Note_on_c,9,37,127,
2,3834,Note_on_c,9,38,127,
2,3834,Note_on_c,9,39,127,
2,3834,Note_on_c,9,41,127,
2,3834,Note_on_c,9,42,127,
2,3834,Note_on_c,9,43,127,
2,3834,Note_on_c,9,45,127,
2,3834,Note_on_c,9,48,127,
2,3834,Note_on_c,9,51,127,
2,3834,Note_on_c,9,53,127,
2,3834,Note_on_c,9,80,127,
2,3834,Note_on_c,9,81,127,
2,3834,Note_on_c,9,82,127,
2,3835,Note_off_c,9,36,0,
2,3836,Note_on_c,9,36,127,
2,3836,Note_on_c,9,37,127,
2,3836,Note_on_c,9,38,127,
2,3836,Note_on_c,9,39,127,
2,3836,Note_on_c,9,41,127,
2,3836,Note_on_c,9,42,127,
2,3836,Note_on_c,9,43,127,
2,3836,Note_on_c,9,45,127,
2,3836,Note_on_c,9,48,127,
2,3836,Note_on_c,9,51,127,
2,3836,Note_on_c,9,53,127,
2,3836,Note_on_c,9,80,127,
2,3836,Note_on_c,9,81,127,
2,3836,Note_on_c,9,82,127,
2,3837,Note_off_c,9,36,0,
2,3838,Note_on_c,9,36,127,
2,3838,Note_on_c,9,37,127,
2,3838,Note_on_c,9,38,127,
2,3838,Note_on_c,9,39,127,
2,3838,Note_on_c,9,41,127,
2,3838,Note_on_c,9,42,127,
2,3838,Note_on_c,9,43,127,
2,3838,Note_on_c,9,45,127,
2,3838,Note_on_c,9,48,127,
2,3838,Note_on_c,9,51,127,
2,3838,Note_on_c,9,53,127,
2,3838,Note_on_c,9,80,127,
2,3838,Note_on_c,9,81,127,
2,3838,Note_on_c,9,82,127,
2,3839,Note_off_c,9,36,0,
2,3840,Note_on_c,9,36,127,
2,3840,Note_on_c,9,37,127,
2,3840,Note_on_c,9,38,127,
2,3840,Note_on_c,9,39,127,
2,3840,Note_on_c,9,41,127,
2,3840,Note_on_c,9,42,127,
2,3840,Note_on_c,9,43,127,
2,3840,Note_on_c,9,45,127,
2,3840,Note_on_c,9,48,127,
2,3840,Note_on_c,9,51,127,
2,3840,Note_on_c,9,53,127,
2,3840,Note_on_c,9,80,127,
2,3840,Note_on_c,9,81,127,
2,3840,Note_on_c,9,82,127,
2,3841,Note_off_c,9,36,0,
2,3842,Note_on_c,9,36,127,
2,3842,Note_on_c,9,37,127,
2,3842,Note_on_c,9,38,127,
2,3842,Note_on_c,9,39,127,
2,3842,Note_on_c,9,41,127,
2,3842,Note_on_c,9,42,127,
2,3842,Note_on_c,9,43,127,
2,3842,Note_on_c,9,45,127,
2,3842,Note_on_c,9,48,127,
2,3842,Note_on_c,9,51,127,
2,3842,Note_on_c,9,53,127,
2,3842,Note_on_c,9,80,127,
2,3842,Note_on_c,9,81,127,
2,3842,Note_on_c,9,82,127,
2,3843,Note_off_c,9,36,0,
2,3844,Note_on_c,9,36,127,
2,3844,Note_on_c,9,37,127,
2,3844,Note_on_c,9,38,127,
2,3844,Note_on_c,9,39,127,
2,3844,Note_on_c,9,41,127,
2,3844,Note_on_c,9,42,127,
2,3844,Note_on_c,9,43,127,
2,3844,Note_on_c,9,45,127,
2,3844,Note_on_c,9,48,127,
2,3844,Note_on_c,9,51,127,
2,3844,Note_on_c,9,53,127,
2,3844,Note_on_c,9,80,127,
2,3844,Note_on_c,9,81,127,
2,3844,Note_on_c,9,82,127,
2,3845,Note_off_c,9,36,0,
2,3846,Note_on_c,9,36,127,
2,3846,Note_on_c,9,37,127,
2,3846,Note_on_c,9,38,127,
2,3846,Note_on_c,9,39,127,
2,3846,Note_on_c,9,41,127,
2,3846,Note_on_c,9,42,127,
2,3846,Note_on_c,9,43,127,
2,3846,Note_on_c,9,45,127,
2,3846,Note_on_c,9,48,127,
2,3846,Note_on_c,9,51,127,
2,3846,Note_on_c,9,53,127,
2,3846,Note_on_c,9,80,127,
2,3846,Note_on_c,9,81,127,
2,3846,Note_on_c,9,82,127,
2,3847,Note_off_c,9,36,0,
2,3848,Note_on_c,9,36,127,
2,3848,Note_on_c,9,37,127,
2,3848,Note_on_c,9,38,127,
2,3848,Note_on_c,9,39,127,
2,3848,Note_on_c,9,41,127,
2,3848,Note_on_c,9,42,127,
2,3848,Note_on_c,9,43,127,
2,3848,Note_on_c,9,45,127,
2,3848,Note_on_c,9,48,127,
2,3848,Note_on_c,9,51,127,
2,3848,Note_on_c,9,53,127,
2,3848,Note_on_c,9,80,127,
2,3848,Note_on_c,9,81,127,
2,3848,Note_on_c,9,82,127,
2,3849,Note_off_c,9,36,0,
2,3850,Note_on_c,9,36,127,
2,3850,Note_on_c,9,37,127,
2,3850,Note_on_c,9,38,127,
2,3850,Note_on_c,9,39,127,
2,3850,Note_on_c,9,41,127,
2,3850,Note_on_c,9,42,127,
2,3850,Note_on_c,9,43,127,
2,3850,Note_on_c,9,45,127,
2,3850,Note_on_c,9,48,127,
2,3850,Note_on_c,9,51,127,
2,3850,Note_on_c,9,53,127,
2,3850,Note_on_c,9,80,127,
2,3850,Note_on_c,9,81,127,
2,3850,Note_on_c,9,82,127,
2,3851,Note_off_c,9,36,0,
2,3852,Note_on_c,9,36,127,
2,3852,Note_on_c,9,37,127,
2,3852,Note_on_c,9,38,127,
2,3852,Note_on_c,9,39,127,
2,3852,Note_on_c,9,41,127,
2,3852,Note_on_c,9,42,127,
2,3852,Note_on_c,9,43,127,
2,3852,Note_on_c,9,45,127,
2,3852,Note_on_c,9,48,127,
2,3852,Note_on_c,9,51,127,
2,3852,Note_on_c,9,53,127,
2,3852,Note_on_c,9,80,127,
2,3852,Note_on_c,9,81,127,
2,3852,Note_on_c,9,82,127,
2,3853,Note_off_c,9,36,0,
2,3854,Note_on_c,9,36,127,
2,3854,Note_on_c,9,37,127,
2,3854,Note_on_c,9,38,127,
2,3854,Note_on_c,9,39,127,
2,3854,Note_on_c,9,41,127,
2,3854,Note_on_c,9,42,127,
2,3854,Note_on_c,9,43,127,
2,3854,Note_on_c,9,45,127,
2,3854,Note_on_c,9,48,127,
2,3854,Note_on_c,9,51,127,
2,3854,Note_on_c,9,53,127,
2,3854,Note_on_c,9,80,127,
2,3854,Note_on_c,9,81,127,
2,3854,Note_on_c,9,82,127,
2,3855,Note_off_c,9,36,0,
2,3856,Note_on_c,9,36,127,
2,3856,Note_on_c,9,37,127,
2,3856,Note_on_c,9,38,127,
2,3856,Note_on_c,9,39,127,
2,3856,Note_on_c,9,41,127,
2,3856,Note_on_c,9,42,127,
2,3856,Note_on_c,9,43,127,
2,3856,Note_on_c,9,45,127,
2,3856,Note_on_c,9,48,127,
2,3856,Note_on_c,9,51,127,
2,3856,Note_on_c,9,53,127,
2,3856,Note_on_c,9,80,127,
2,3856,Note_on_c,9,81,127,
2,3856,Note_on_c,9,82,127,
2,3857,Note_off_c,9,36,0,
2,3858,Note_on_c,9,36,127,
2,3858,Note_on_c,9,37,127,
2,3858,Note_on_c,9,38,127,
2,3858,Note_on_c,9,39,127,
2,3858,Note_on_c,9,41,127,
2,3858,Note_on_c,9,42,127,
2,3858,Note_on_c,9,43,127,
2,3858,Note_on_c,9,45,127,
2,3858,Note_on_c,9,48,127,
2,3858,Note_on_c,9,51,127,
2,3858,Note_on_c,9,53,127,
2,3858,Note_on_c,9,80,127,
2,3858,Note_on_c,9,81,127,
2,3858,Note_on_c,9,82,127,
2,3859,Note_off_c,9,36,0,
2,3860,Note_on_c,9,36,127,
2,3860,Note_on_c,9,37,127,
2,3860,Note_on_c,9,38,127,
2,3860,Note_on_c,9,39,127,
2,3860,Note_on_c,9,41,127,
2,3860,Note_on_c,9,42,127,
2,3860,Note_on_c,9,43,127,
2,3860,Note_on_c,9,45,127,
2,3860,Note_on_c,9,48,127,
2,3860,Note_on_c,9,51,127,
2,3860,Note_on_c,9,53,127,
2,3860,Note_on_c,9,80,127,
2,3860,Note_on_c,9,81,127,
2,3860,Note_on_c,9,82,127,
2,3861,Note_off_c,9,36,0,
2,3862,Note_on_c,9,36,127,
2,3862,Note_on_c,9,37,127,
2,3862,Note_on_c,9,38,127,
2,3862,Note_on_c,9,39,127,
2,3862,Note_on_c,9,41,127,
2,3862,Note_on_c,9,42,127,
2,3862,Note_on_c,9,43,127,
2,3862,Note_on_c,9,45,127,
2,3862,Note_on_c,9,48,127,
2,3862,Note_on_c,9,51,127,
2,3862,Note_on_c,9,53,127,
2,3862,Note_on_c,9,80,127,
2,3862,Note_on_c,9,81,127,
2,3862,Note_on_c,9,82,127,
2,3863,Note_off_c,9,36,0,
2,3864,Note_on_c,9,36,127,
2,3864,Note_on_c,9,37,127,
2,3864,Note_on_c,9,38,127,
2,3864,Note_on_c,9,39,127,
2,3864,Note_on_c,9,41,127,
2,3864,Note_on_c,9,42,127,
2,3864,Note_on_c,9,43,127,
2,3864,Note_on_c,9,45,127,
2,3864,Note_on_c,9,48,127,
2,3864,Note_on_c,9,51,127,
2,3864,Note_on_c,9,53,127,
2,3864,Note_on_c,9,80,127,
2,3864,Note_on_c,9,81,127,
2,3864,Note_on_c,9,82,127,
2,3865,Note_off_c,9,36,0,
2,3866,Note_on_c,9,36,127,
2,3866,Note_on_c,9,37,127,
2,3866,Note_on_c,9,38,127,
2,3866,Note_on_c,9,39,127,
2,3866,Note_on_c,9,41,127,
2,3866,Note_on_c,9,42,127,
2,3866,Note_on_c,9,43,127,
2,3866,Note_on_c,9,45,127,
2,3866,Note_on_c,9,48,127,
2,3866,Note_on_c,9,51,127,
2,3866,Note_on_c,9,53,127,
2,3866,Note_on_c,9,80,127,
2,3866,Note_on_c,9,81,127,
2,3866,Note_on_c,9,82,127,
2,3867,Note_off_c,9,36,0,
2,3868,Note_on_c,9,36,127,
2,3868,Note_on_c,9,37,127,
2,3868,Note_on_c,9,38,127,
2,3868,Note_on_c,9,39,127,
2,3868,Note_on_c,9,41,127,
2,3868,Note_on_c,9,42,127,
2,3868,Note_on_c,9,43,127,
2,3868,Note_on_c,9,45,127,
2,3868,Note_on_c,9,48,127,
2,3868,Note_on_c,9,51,127,
2,3868,Note_on_c,9,53,127,
2,3868,Note_on_c,9,80,127,
2,3868,Note_on_c,9,81,127,
2,3868,Note_on_c,9,82,127,
2,3869,Note_off_c,9,36,0,
2,3870,Note_on_c,9,36,127,
2,3870,Note_on_c,9,37,127,
2,3870,Note_on_c,9,38,127,
2,3870,Note_on_c,9,39,127,
2,3870,Note_on_c,9,41,127,
2,3870,Note_on_c,9,42,127,
2,3870,Note_on_c,9,43,127,
2,3870,Note_on_c,9,45,127,
2,3870,Note_on_c,9,48,127,
2,3870,Note_on_c,9,51,127,
2,3870,Note_on_c,9,53,127,
2,3870,Note_on_c,9,80,127,
2,3870,Note_on_c,9,81,127,
2,3870,Note_on_c,9,82,127,
2,3871,Note_off_c,9,36,0,
2,3872,Note_on_c,9,36,127,
2,3872,Note_on_c,9,37,127,
2,3872,Note_on_c,9,38,127,
2,3872,Note_on_c,9,39,127,
2,3872,Note_on_c,9,41,127,
2,3872,Note_on_c,9,42,127,
2,3872,Note_on_c,9,43,127,
2,3872,Note_on_c,9,45,127,
2,3872,Note_on_c,9,48,127,
2,3872,Note_on_c,9,51,127,
2,3872,Note_on_c,9,53,127,
2,3872,Note_on_c,9,80,127,
2,3872,Note_on_c,9,81,127,
2,3872,Note_on_c,9,82,127,
2,3873,Note_off_c,9,36,0,
2,3874,Note_on_c,9,36,127,
2,3874,Note_on_c,9,37,127,
2,3874,Note_on_c,9,38,127,
2,3874,Note_on_c,9,39,127,
2,3874,Note_on_c,9,41,127,
2,3874,Note_on_c,9,42,127,
2,3874,Note_on_c,9,43,127,
2,3874,Note_on_c,9,45,127,
2,3874,Note_on_c,9,48,127,
2,3874,Note_on_c,9,51,127,
2,3874,Note_on_c,9,53,127,
2,3874,Note_on_c,9,80,127,
2,3874,Note_on_c,9,81,127,
2,3874,Note_on_c,9,82,127,
2,3875,Note_off_c,9,36,0,
2,3876,Note_on_c,9,36,127,
2,3876,Note_on_c,9,37,127,
2,3876,Note_on_c,9,38,127,
2,3876,Note_on_c,9,39,127,
2,3876,Note_on_c,9,41,127,
2,3876,Note_on_c,9,42,127,
2,3876,Note_on_c,9,43,127,
2,3876,Note_on_c,9,45,127,
2,3876,Note_on_c,9,48,127,
2,3876,Note_on_c,9,51,127,
2,3876,Note_on_c,9,53,127,
2,3876,Note_on_c,9,80,127,
2,3876,Note_on_c,9,81,127,
2,3876,Note_on_c,9,82,127,
2,3877,Note_off_c,9,36,0,
2,3878,Note_on_c,9,36,127,
2,3878,Note_on_c,9,37,127,
2,3878,Note_on_c,9,38,127,
2,3878,Note_on_c,9,39,127,
2,3878,Note_on_c,9,41,127,
2,3878,Note_on_c,9,42,127,
2,3878,Note_on_c,9,43,127,
2,3878,Note_on_c,9,45,127,
2,3878,Note_on_c,9,48,127,
2,3878,Note_on_c,9,51,127,
2,3878,Note_on_c,9,53,127,
2,3878,Note_on_c,9,80,127,
2,3878,Note_on_c,9,81,127,
2,3878,Note_on_c,9,82,127,
2,3879,Note_off_c,9,36,0,
2,3880,Note_on_c,9,36,127,
2,3880,Note_on_c,9,37,127,
2,3880,Note_on_c,9,38,127,
2,3880,Note_on_c,9,39,127,
2,3880,Note_on_c,9,41,127,
2,3880,Note_on_c,9,42,127,
2,3880,Note_on_c,9,43,127,
2,3880,Note_on_c,9,45,127,
2,3880,Note_on_c,9,48,127,
2,3880,Note_on_c,9,51,127,
2,3880,Note_on_c,9,53,127,
2,3880,Note_on_c,9,80,127,
2,3880,Note_on_c,9,81,127,
2,3880,Note_on_c,9,82,127,
2,3881,Note_off_c,9,36,0,
2,3882,Note_on_c,9,36,127,
2,3882,Note_on_c,9,37,127,
2,3882,Note_on_c,9,38,127,
2,3882,Note_on_c,9,39,127,
2,3882,Note_on_c,9,41,127,
2,3882,Note_on_c,9,42,127,
2,3882,Note_on_c,9,43,127,
2,3882,Note_on_c,9,45,127,
2,3882,Note_on_c,9,48,127,
2,3882,Note_on_c,9,51,127,
2,3882,Note_on_c,9,53,127,
2,3882,Note_on_c,9,80,127,
2,3882,Note_on_c,9,81,127,
2,3882,Note_on_c,9,82,127,
2,3883,Note_off_c,9,36,0,
2,3884,Note_on_c,9,36,127,
2,3884,Note_on_c,9,37,127,
2,3884,Note_on_c,9,38,127,
2,3884,Note_on_c,9,39,127,
2,3884,Note_on_c,9,41,127,
2,3884,Note_on_c,9,42,127,
2,3884,Note_on_c,9,43,127,
2,3884,Note_on_c,9,45,127,
2,3884,Note_on_c,9,48,127,
2,3884,Note_on_c,9,51,127,
2,3884,Note_on_c,9,53,127,
2,3884,Note_on_c,9,80,127,
2,3884,Note_on_c,9,81,127,
2,3884,Note_on_c,9,82,127,
2,3885,Note_off_c,9,36,0,
2,3886,Note_on_c,9,36,127,
2,3886,Note_on_c,9,37,127,
2,3886,Note_on_c,9,38,127,
2,3886,Note_on_c,9,39,127,
2,3886,Note_on_c,9,41,127,
2,3886,Note_on_c,9,42,127,
2,3886,Note_on_c,9,43,127,
2,3886,Note_on_c,9,45,127,
2,3886,Note_on_c,9,48,127,
2,3886,Note_on_c,9,51,127,
2,3886,Note_on_c,9,53,127,
2,3886,Note_on_c,9,80,127,
2,3886,Note_on_c,9,81,127,
2,3886,Note_on_c,9,82,127,
2,3887,Note_off_c,9,36,0,
2,3888,Note_on_c,9,36,127,
2,3888,Note_on_c,9,37,127,
2,3888,Note_on_c,9,38,127,
2,3888,Note_on_c,9,39,127,
2,3888,Note_on_c,9,41,127,
2,3888,Note_on_c,9,42,127,
2,3888,Note_on_c,9,43,127,
2,3888,Note_on_c,9,45,127,
2,3888,Note_on_c,9,48,127,
2,3888,Note_on_c,9,51,127,
2,3888,Note_on_c,9,53,127,
2,3888,Note_on_c,9,80,127,
2,3888,Note_on_c,9,81,127,
2,3888,Note_on_c,9,82,127,
2,3889,Note_off_c,9,36,0,
2,3890,Note_on_c,9,36,127,
2,3890,Note_on_c,9,37,127,
2,3890,Note_on_c,9,38,127,
2,3890,Note_on_c,9,39,127,
2,3890,Note_on_c,9,41,127,
2,3890,Note_on_c,9,42,127,
2,3890,Note_on_c,9,43,127,
2,3890,Note_on_c,9,45,127,
2,3890,Note_on_c,9,48,127,
2,3890,Note_on_c,9,51,127,
2,3890,Note_on_c,9,53,127,
2,3890,Note_on_c,9,80,127,
2,3890,Note_on_c,9,81,127,
2,3890,Note_on_c,9,82,127,
2,3891,Note_off_c,9,36,0,
2,3892,Note_on_c,9,36,127,
2,3892,Note_on_c,9,37,127,
2,3892,Note_on_c,9,38,127,
2,3892,Note_on_c,9,39,127,
2,3892,Note_on_c,9,41,127,
2,3892,Note_on_c,9,42,127,
2,3892,Note_on_c,9,43,127,
2,3892,Note_on_c,9,45,127,
2,3892,Note_on_c,9,48,127,
2,3892,Note_on_c,9,51,127,
2,3892,Note_on_c,9,53,127,
2,3892,Note_on_c,9,80,127,
2,3892,Note_on_c,9,81,127,
2,3892,Note_on_c,9,82,127,
2,3893,Note_off_c,9,36,0,
2,3894,Note_on_c,9,36,127,
2,3894,Note_on_c,9,37,127,
2,3894,Note_on_c,9,38,127,
2,3894,Note_on_c,9,39,127,
2,3894,Note_on_c,9,41,127,
2,3894,Note_on_c,9,42,127,
2,3894,Note_on_c,9,43,127,
2,3894,Note_on_c,9,45,127,
2,3894,Note_on_c,9,48,127,
2,3894,Note_on_c,9,51,127,
2,3894,Note_on_c,9,53,127,
2,3894,Note_on_c,9,80,127,
2,3894,Note_on_c,9,81,127,
2,3894,Note_on_c,9,82,127,
2,3895,Note_off_c,9,36,0,
2,3896,Note_on_c,9,36,127,
2,3896,Note_on_c,9,37,127,
2,3896,Note_on_c,9,38,127,
2,3896,Note_on_c,9,39,127,
2,3896,Note_on_c,9,41,127,
2,3896,Note_on_c,9,42,127,
2,3896,Note_on_c,9,43,127,
2,3896,Note_on_c,9,45,127,
2,3896,Note_on_c,9,48,127,
2,3896,Note_on_c,9,51,127,
2,3896,Note_on_c,9,53,127,
2,3896,Note_on_c,9,80,127,
2,3896,Note_on_c,9,81,127,
2,3896,Note_on_c,9,82,127,
2,3897,Note_off_c,9,36,0,
2,3898,Note_on_c,9,36,127,
2,3898,Note_on_c,9,37,127,
2,3898,Note_on_c,9,38,127,
2,3898,Note_on_c,9,39,127,
2,3898,Note_on_c,9,41,127,
2,3898,Note_on_c,9,42,127,
2,3898,Note_on_c,9,43,127,
2,3898,Note_on_c,9,45,127,
2,3898,Note_on_c,9,48,127,
2,3898,Note_on_c,9,51,127,
2,3898,Note_on_c,9,53,127,
2,3898,Note_on_c,9,80,127,
2,3898,Note_on_c,9,81,127,
2,3898,Note_on_c,9,82,127,
2,3899,Note_off_c,9,36,0,
2,3900,Note_on_c,9,36,127,
2,3900,Note_on_c,9,37,127,
2,3900,Note_on_c,9,38,127,
2,3900,Note_on_c,9,39,127,
2,3900,Note_on_c,9,41,127,
2,3900,Note_on_c,9,42,127,
2,3900,Note_on_c,9,43,127,
2,3900,Note_on_c,9,45,127,
2,3900,Note_on_c,9,48,127,
2,3900,Note_on_c,9,51,127,
2,3900,Note_on_c,9,53,127,
2,3900,Note_on_c,9,80,127,
2,3900,Note_on_c,9,81,127,
2,3900,Note_on_c,9,82,127,
2,3901,Note_off_c,9,36,0,
2,3902,Note_on_c,9,36,127,
2,3902,Note_on_c,9,37,127,
2,3902,Note_on_c,9,38,127,
2,3902,Note_on_c,9,39,127,
2,3902,Note_on_c,9,41,127,
2,3902,Note_on_c,9,42,127,
2,3902,Note_on_c,9,43,127,
2,3902,Note_on_c,9,45,127,
2,3902,Note_on_c,9,48,127,
2,3902,Note_on_c,9,51,127,
2,3902,Note_on_c,9,53,127,
2,3902,Note_on_c,9,80,127,
2,3902,Note_on_c,9,81,127,
2,3902,Note_on_c,9,82,127,
2,3903,Note_off_c,9,36,0,
2,3904,Note_on_c,9,36,127,
2,3904,Note_on_c,9,37,127,
2,3904,Note_on_c,9,38,127,
2,3904,Note_on_c,9,39,127,
2,3904,Note_on_c,9,41,127,
2,3904,Note_on_c,9,42,127,
2,3904,Note_on_c,9,43,127,
2,3904,Note_on_c,9,45,127,
2,3904,Note_on_c,9,48,127,
2,3904,Note_on_c,9,51,127,
2,3904,Note_on_c,9,53,127,
2,3904,Note_on_c,9,80,127,
2,3904,Note_on_c,9,81,127,
2,3904,Note_on_c,9,82,127,
2,3905,Note_off_c,9,36,0,
2,3906,Note_on_c,9,36,127,
2,3906,Note_on_c,9,37,127,
2,3906,Note_on_c,9,38,127,
2,3906,Note_on_c,9,39,127,
2,3906,Note_on_c,9,41,127,
2,3906,Note_on_c,9,42,127,
2,3906,Note_on_c,9,43,127,
2,3906,Note_on_c,9,45,127,
2,3906,Note_on_c,9,48,127,
2,3906,Note_on_c,9,51,127,
2,3906,Note_on_c,9,53,127,
2,3906,Note_on_c,9,80,127,
2,3906,Note_on_c,9,81,127,
2,3906,Note_on_c,9,82,127,
2,3907,Note_off_c,9,36,0,
2,3908,Note_on_c,9,36,127,
2,3908,Note_on_c,9,37,127,
2,3908,Note_on_c,9,38,127,
2,3908,Note_on_c,9,39,127,
2,3908,Note_on_c,9,41,127,
2,3908,Note_on_c,9,42,127,
2,3908,Note_on_c,9,43,127,
2,3908,Note_on_c,9,45,127,
2,3908,Note_on_c,9,48,127,
2,3908,Note_on_c,9,51,127,
2,3908,Note_on_c,9,53,127,
2,3908,Note_on_c,9,80,127,
2,3908,Note_on_c,9,81,127,
2,3908,Note_on_c,9,82,127,
2,3909,Note_off_c,9,36,0,
2,3910,Note_on_c,9,36,127,
2,3910,Note_on_c,9,37,127,
2,3910,Note_on_c,9,38,127,
2,3910,Note_on_c,9,39,127,
2,3910,Note_on_c,9,41,127,
2,3910,Note_on_c,9,42,127,
2,3910,Note_on_c,9,43,127,
2,3910,Note_on_c,9,45,127,
2,3910,Note_on_c,9,48,127,
2,3910,Note_on_c,9,51,127,
2,3910,Note_on_c,9,53,127,
2,3910,Note_on_c,9,80,127,
2,3910,Note_on_c,9,81,127,
2,3910,Note_on_c,9,82,127,
2,3911,Note_off_c,9,36,0,
2,3912,Note_on_c,9,36,127,
2,3912,Note_on_c,9,37,127,
2,3912,Note_on_c,9,38,127,
2,3912,Note_on_c,9,39,127,
2,3912,Note_on_c,9,41,127,
2,3912,Note_on_c,9,42,127,
2,3912,Note_on_c,9,43,127,
2,3912,Note_on_c,9,45,127,
2,3912,Note_on_c,9,48,127,
2,3912,Note_on_c,9,51,127,
2,3912,Note_on_c,9,53,127,
2,3912,Note_on_c,9,80,127,
2,3912,Note_on_c,9,81,127,
2,3912,Note_on_c,9,82,127,
2,3913,Note_off_c,9,36,0,
2,3914,Note_on_c,9,36,127,
2,3914,Note_on_c,9,37,127,
2,3914,Note_on_c,9,38,127,
2,3914,Note_on_c,9,39,127,
2,3914,Note_on_c,9,41,127,
2,3914,Note_on_c,9,42,127,
2,3914,Note_on_c,9,43,127,
2,3914,Note_on_c,9,45,127,
2,3914,Note_on_c,9,48,127,
2,3914,Note_on_c,9,51,127,
2,3914,Note_on_c,9,53,127,
2,3914,Note_on_c,9,80,127,
2,3914,Note_on_c,9,81,127,
2,3914,Note_on_c,9,82,127,
2,3915,Note_off_c,9,36,0,
2,3916,Note_on_c,9,36,127,
2,3916,Note_on_c,9,37,127,
2,3916,Note_on_c,9,38,127,
2,3916,Note_on_c,9,39,127,
2,3916,Note_on_c,9,41,127,
2,3916,Note_on_c,9,42,127,
2,3916,Note_on_c,9,43,127,
2,3916,Note_on_c,9,45,127,
2,3916,Note_on_c,9,48,127,
2,3916,Note_on_c,9,51,127,
2,3916,Note_on_c,9,53,127,
2,3916,Note_on_c,9,80,127,
2,3916,Note_on_c,9,81,127,
2,3916,Note_on_c,9,82,127,
2,3917,Note_off_c,9,36,0,
2,3918,Note_on_c,9,36,127,
2,3918,Note_on_c,9,37,127,
2,3918,Note_on_c,9,38,127,
2,3918,Note_on_c,9,39,127,
2,3918,Note_on_c,9,41,127,
2,3918,Note_on_c,9,42,127,
2,3918,Note_on_c,9,43,127,
2,3918,Note_on_c,9,45,127,
2,3918,Note_on_c,9,48,127,
2,3918,Note_on_c,9,51,127,
2,3918,Note_on_c,9,53,127,
2,3918,Note_on_c,9,80,127,
2,3918,Note_on_c,9,81,127,
2,3918,Note_on_c,9,82,127,
2,3919,Note_off_c,9,36,0,
2,3920,Note_on_c,9,36,127,
2,3920,Note_on_c,9,37,127,
2,3920,Note_on_c,9,38,127,
2,3920,Note_on_c,9,39,127,
2,3920,Note_on_c,9,41,127,
2,3920,Note_on_c,9,42,127,
2,3920,Note_on_c,9,43,127,
2,3920,Note_on_c,9,45,127,
2,3920,Note_on_c,9,48,127,
2,3920,Note_on_c,9,51,127,
2,3920,Note_on_c,9,53,127,
2,3920,Note_on_c,9,80,127,
2,3920,Note_on_c,9,81,127,
2,3920,Note_on_c,9,82,127,
2,3921,Note_off_c,9,36,0,
2,3922,Note_on_c,9,36,127,
2,3922,Note_on_c,9,37,127,
2,3922,Note_on_c,9,38,127,
2,3922,Note_on_c,9,39,127,
2,3922,Note_on_c,9,41,127,
2,3922,Note_on_c,9,42,127,
2,3922,Note_on_c,9,43,127,
2,3922,Note_on_c,9,45,127,
2,3922,Note_on_c,9,48,127,
2,3922,Note_on_c,9,51,127,
2,3922,Note_on_c,9,53,127,
2,3922,Note_on_c,9,80,127,
2,3922,Note_on_c,9,81,127,
2,3922,Note_on_c,9,82,127,
2,3923,Note_off_c,9,36,0,
2,3924,Note_on_c,9,36,127,
2,3924,Note_on_c,9,37,127,
2,3924,Note_on_c,9,38,127,
2,3924,Note_on_c,9,39,127,
2,3924,Note_on_c,9,41,127,
2,3924,Note_on_c,9,42,127,
2,3924,Note_on_c,9,43,127,
2,3924,Note_on_c,9,45,127,
2,3924,Note_on_c,9,48,127,
2,3924,Note_on_c,9,51,127,
2,3924,Note_on_c,9,53,127,
2,3924,Note_on_c,9,80,127,
2,3924,Note_on_c,9,81,127,
2,3924,Note_on_c,9,82,127,
2,3925,Note_off_c,9,36,0,
2,3926,Note_on_c,9,36,127,
2,3926,Note_on_c,9,37,127,
2,3926,Note_on_c,9,38,127,
2,3926,Note_on_c,9,39,127,
2,3926,Note_on_c,9,41,127,
2,3926,Note_on_c,9,42,127,
2,3926,Note_on_c,9,43,127,
2,3926,Note_on_c,9,45,127,
2,3926,Note_on_c,9,48,127,
2,3926,Note_on_c,9,51,127,
2,3926,Note_on_c,9,53,127,
2,3926,Note_on_c,9,80,127,
2,3926,Note_on_c,9,81,127,
2,3926,Note_on_c,9,82,127,
2,3927,Note_off_c,9,36,0,
2,3928,Note_on_c,9,36,127,
2,3928,Note_on_c,9,37,127,
2,3928,Note_on_c,9,38,127,
2,3928,Note_on_c,9,39,127,
2,3928,Note_on_c,9,41,127,
2,3928,Note_on_c,9,42,127,
2,3928,Note_on_c,9,43,127,
2,3928,Note_on_c,9,45,127,
2,3928,Note_on_c,9,48,127,
2,3928,Note_on_c,9,51,127,
2,3928,Note_on_c,9,53,127,
2,3928,Note_on_c,9,80,127,
2,3928,Note_on_c,9,81,127,
2,3928,Note_on_c,9,82,127,
2,3929,Note_off_c,9,36,0,
2,3930,Note_on_c,9,36,127,
2,3930,Note_on_c,9,37,127,
2,3930,Note_on_c,9,38,127,
2,3930,Note_on_c,9,39,127,
2,3930,Note_on_c,9,41,127,
2,3930,Note_on_c,9,42,127,
2,3930,Note_on_c,9,43,127,
2,3930,Note_on_c,9,45,127,
2,3930,Note_on_c,9,48,127,
2,3930,Note_on_c,9,51,127,
2,3930,Note_on_c,9,53,127,
2,3930,Note_on_c,9,80,127,
2,3930,Note_on_c,9,81,127,
2,3930,Note_on_c,9,82,127,
2,3931,Note_off_c,9,36,0,
2,3932,Note_on_c,9,36,127,
2,3932,Note_on_c,9,37,127,
2,3932,Note_on_c,9,38,127,
2,3932,Note_on_c,9,39,127,
2,3932,Note_on_c,9,41,127,
2,3932,Note_on_c,9,42,127,
2,3932,Note_on_c,9,43,127,
2,3932,Note_on_c,9,45,127,
2,3932,Note_on_c,9,48,127,
2,3932,Note_on_c,9,51,127,
2,3932,Note_on_c,9,53,127,
2,3932,Note_on_c,9,80,127,
2,3932,Note_on_c,9,81,127,
2,3932,Note_on_c,9,82,127,
2,3933,Note_off_c,9,36,0,
2,3934,Note_on_c,9,36,127,
2,3934,Note_on_c,9,37,127,
2,3934,Note_on_c,9,38,127,
2,3934,Note_on_c,9,39,127,
2,3934,Note_on_c,9,41,127,
2,3934,Note_on_c,9,42,127,
2,3934,Note_on_c,9,43,127,
2,3934,Note_on_c,9,45,127,
2,3934,Note_on_c,9,48,127,
2,3934,Note_on_c,9,51,127,
2,3934,Note_on_c,9,53,127,
2,3934,Note_on_c,9,80,127,
2,3934,Note_on_c,9,81,127,
2,3934,Note_on_c,9,82,127,
2,3935,Note_off_c,9,36,0,
2,3936,Note_on_c,9,36,127,
2,3936,Note_on_c,9,37,127,
2,3936,Note_on_c,9,38,127,
2,3936,Note_on_c,9,39,127,
2,3936,Note_on_c,9,41,127,
2,3936,Note_on_c,9,42,127,
2,3936,Note_on_c,9,43,127,
2,3936,Note_on_c,9,45,127,
2,3936,Note_on_c,9,48,127,
2,3936,Note_on_c,9,51,127,
2,3936,Note_on_c,9,53,127,
2,3936,Note_on_c,9,80,127,
2,3936,Note_on_c,9,81,127,
2,3936,Note_on_c,9,82,127,
2,3937,Note_off_c,9,36,0,
2,3938,Note_on_c,9,36,127,
2,3938,Note_on_c,9,37,127,
2,3938,Note_on_c,9,38,127,
2,3938,Note_on_c,9,39,127,
2,3938,Note_on_c,9,41,127,
2,3938,Note_on_c,9,42,127,
2,3938,Note_on_c,9,43,127,
2,3938,Note_on_c,9,45,127,
2,3938,Note_on_c,9,48,127,
2,3938,Note_on_c,9,51,127,
2,3938,Note_on_c,9,53,127,
2,3938,Note_on_c,9,80,127,
2,3938,Note_on_c,9,81,127,
2,3938,Note_on_c,9,82,127,
2,3939,Note_off_c,9,36,0,
2,3940,Note_on_c,9,36,127,
2,3940,Note_on_c,9,37,127,
2,3940,Note_on_c,9,38,127,
2,3940,Note_on_c,9,39,127,
2,3940,Note_on_c,9,41,127,
2,3940,Note_on_c,9,42,127,
2,3940,Note_on_c,9,43,127,
2,3940,Note_on_c,9,45,127,
2,3940,Note_on_c,9,48,127,
2,3940,Note_on_c,9,51,127,
2,3940,Note_on_c,9,53,127,
2,3940,Note_on_c,9,80,127,
2,3940,Note_on_c,9,81,127,
2,3940,Note_on_c,9,82,127,
2,3941,Note_off_c,9,36,0,
2,3942,Note_on_c,9,36,127,
2,3942,Note_on_c,9,37,127,
2,3942,Note_on_c,9,38,127,
2,3942,Note_on_c,9,39,127,
2,3942,Note_on_c,9,41,127,
2,3942,Note_on_c,9,42,127,
2,3942,Note_on_c,9,43,127,
2,3942,Note_on_c,9,45,127,
2,3942,Note_on_c,9,48,127,
2,3942,Note_on_c,9,51,127,
2,3942,Note_on_c,9,53,127,
2,3942,Note_on_c,9,80,127,
2,3942,Note_on_c,9,81,127,
2,3942,Note_on_c,9,82,127,
2,3943,Note_off_c,9,36,0,
2,3944,Note_on_c,9,36,127,
2,3944,Note_on_c,9,37,127,
2,3944,Note_on_c,9,38,127,
2,3944,Note_on_c,9,39,127,
2,3944,Note_on_c,9,41,127,
2,3944,Note_on_c,9,42,127,
2,3944,Note_on_c,9,43,127,
2,3944,Note_on_c,9,45,127,
2,3944,Note_on_c,9,48,127,
2,3944,Note_on_c,9,51,127,
2,3944,Note_on_c,9,53,127,
2,3944,Note_on_c,9,80,127,
2,3944,Note_on_c,9,81,127,
2,3944,Note_on_c,9,82,127,
2,3945,Note_off_c,9,36,0,
2,3946,Note_on_c,9,36,127,
2,3946,Note_on_c,9,37,127,
2,3946,Note_on_c,9,38,127,
2,3946,Note_on_c,9,39,127,
2,3946,Note_on_c,9,41,127,
2,3946,Note_on_c,9,42,127,
2,3946,Note_on_c,9,43,127,
2,3946,Note_on_c,9,45,127,
2,3946,Note_on_c,9,48,127,
2,3946,Note_on_c,9,51,127,
2,3946,Note_on_c,9,53,127,
2,3946,Note_on_c,9,80,127,
2,3946,Note_on_c,9,81,127,
2,3946,Note_on_c,9,82,127,
2,3947,Note_off_c,9,36,0,
2,3948,Note_on_c,9,36,127,
2,3948,Note_on_c,9,37,127,
2,3948,Note_on_c,9,38,127,
2,3948,Note_on_c,9,39,127,
2,3948,Note_on_c,9,41,127,
2,3948,Note_on_c,9,42,127,
2,3948,Note_on_c,9,43,127,
2,3948,Note_on_c,9,45,127,
2,3948,Note_on_c,9,48,127,
2,3948,Note_on_c,9,51,127,
2,3948,Note_on_c,9,53,127,
2,3948,Note_on_c,9,80,127,
2,3948,Note_on_c,9,81,127,
2,3948,Note_on_c,9,82,127,
2,3949,Note_off_c,9,36,0,
2,3950,Note_on_c,9,36,127,
2,3950,Note_on_c,9,37,127,
2,3950,Note_on_c,9,38,127,
2,3950,Note_on_c,9,39,127,
2,3950,Note_on_c,9,41,127,
2,3950,Note_on_c,9,42,127,
2,3950,Note_on_c,9,43,127,
2,3950,Note_on_c,9,45,127,
2,3950,Note_on_c,9,48,127,
2,3950,Note_on_c,9,51,127,
2,3950,Note_on_c,9,53,127,
2,3950,Note_on_c,9,80,127,
2,3950,Note_on_c,9,81,127,
2,3950,Note_on_c,9,82,127,
2,3951,Note_off_c,9,36,0,
2,3952,Note_on_c,9,36,127,
2,3952,Note_on_c,9,37,127,
2,3952,Note_on_c,9,38,127,
2,3952,Note_on_c,9,39,127,
2,3952,Note_on_c,9,41,127,
2,3952,Note_on_c,9,42,127,
2,3952,Note_on_c,9,43,127,
2,3952,Note_on_c,9,45,127,
2,3952,Note_on_c,9,48,127,
2,3952,Note_on_c,9,51,127,
2,3952,Note_on_c,9,53,127,
2,3952,Note_on_c,9,80,127,
2,3952,Note_on_c,9,81,127,
2,3952,Note_on_c,9,82,127,
2,3953,Note_off_c,9,36,0,
2,3954,Note_on_c,9,36,127,
2,3954,Note_on_c,9,37,127,
2,3954,Note_on_c,9,38,127,
2,3954,Note_on_c,9,39,127,
2,3954,Note_on_c,9,41,127,
2,3954,Note_on_c,9,42,127,
2,3954,Note_on_c,9,43,127,
2,3954,Note_on_c,9,45,127,
2,3954,Note_on_c,9,48,127,
2,3954,Note_on_c,9,51,127,
2,3954,Note_on_c,9,53,127,
2,3954,Note_on_c,9,80,127,
2,3954,Note_on_c,9,81,127,
2,3954,Note_on_c,9,82,127,
2,3955,Note_off_c,9,36,0,
2,3956,Note_on_c,9,36,127,
2,3956,Note_on_c,9,37,127,
2,3956,Note_on_c,9,38,127,
2,3956,Note_on_c,9,39,127,
2,3956,Note_on_c,9,41,127,
2,3956,Note_on_c,9,42,127,
2,3956,Note_on_c,9,43,127,
2,3956,Note_on_c,9,45,127,
2,3956,Note_on_c,9,48,127,
2,3956,Note_on_c,9,51,127,
2,3956,Note_on_c,9,53,127,
2,3956,Note_on_c,9,80,127,
2,3956,Note_on_c,9,81,127,
2,3956,Note_on_c,9,82,127,
2,3957,Note_off_c,9,36,0,
2,3958,Note_on_c,9,36,127,
2,3958,Note_on_c,9,37,127,
2,3958,Note_on_c,9,38,127,
2,3958,Note_on_c,9,39,127,
2,3958,Note_on_c,9,41,127,
2,3958,Note_on_c,9,42,127,
2,3958,Note_on_c,9,43,127,
2,3958,Note_on_c,9,45,127,
2,3958,Note_on_c,9,48,127,
2,3958,Note_on_c,9,51,127,
2,3958,Note_on_c,9,53,127,
2,3958,Note_on_c,9,80,127,
2,3958,Note_on_c,9,81,127,
2,3958,Note_on_c,9,82,127,
2,3959,Note_off_c,9,36,0,
2,3960,Note_on_c,9,36,127,
2,3960,Note_on_c,9,37,127,
2,3960,Note_on_c,9,38,127,
2,3960,Note_on_c,9,39,127,
2,3960,Note_on_c,9,41,127,
2,3960,Note_on_c,9,42,127,
2,3960,Note_on_c,9,43,127,
2,3960,Note_on_c,9,45,127,
2,3960,Note_on_c,9,48,127,
2,3960,Note_on_c,9,51,127,
2,3960,Note_on_c,9,53,127,
2,3960,Note_on_c,9,80,127,
2,3960,Note_on_c,9,81,127,
2,3960,Note_on_c,9,82,127,
2,3961,Note_off_c,9,36,0,
2,3962,Note_on_c,9,36,127,
2,3962,Note_on_c,9,37,127,
2,3962,Note_on_c,9,38,127,
2,3962,Note_on_c,9,39,127,
2,3962,Note_on_c,9,41,127,
2,3962,Note_on_c,9,42,127,
2,3962,Note_on_c,9,43,127,
2,3962,Note_on_c,9,45,127,
2,3962,Note_on_c,9,48,127,
2,3962,Note_on_c,9,51,127,
2,3962,Note_on_c,9,53,127,
2,3962,Note_on_c,9,80,127,
2,3962,Note_on_c,9,81,127,
2,3962,Note_on_c,9,82,127,
2,3963,Note_off_c,9,36,0,
2,3964,Note_on_c,9,36,127,
2,3964,Note_on_c,9,37,127,
2,3964,Note_on_c,9,38,127,
2,3964,Note_on_c,9,39,127,
2,3964,Note_on_c,9,41,127,
2,3964,Note_on_c,9,42,127,
2,3964,Note_on_c,9,43,127,
2,3964,Note_on_c,9,45,127,
2,3964,Note_on_c,9,48,127,
2,3964,Note_on_c,9,51,127,
2,3964,Note_on_c,9,53,127,
2,3964,Note_on_c,9,80,127,
2,3964,Note_on_c,9,81,127,
2,3964,Note_on_c,9,82,127,
2,3965,Note_off_c,9,36,0,
2,3966,Note_on_c,9,36,127,
2,3966,Note_on_c,9,37,127,
2,3966,Note_on_c,9,38,127,
2,3966,Note_on_c,9,39,127,
2,3966,Note_on_c,9,41,127,
2,3966,Note_on_c,9,42,127,
2,3966,Note_on_c,9,43,127,
2,3966,Note_on_c,9,45,127,
2,3966,Note_on_c,9,48,127,
2,3966,Note_on_c,9,51,127,
2,3966,Note_on_c,9,53,127,
2,3966,Note_on_c,9,80,127,
2,3966,Note_on_c,9,81,127,
2,3966,Note_on_c,9,82,127,
2,3967,Note_off_c,9,36,0,
2,3968,Note_on_c,9,36,127,
2,3968,Note_on_c,9,37,127,
2,3968,Note_on_c,9,38,127,
2,3968,Note_on_c,9,39,127,
2,3968,Note_on_c,9,41,127,
2,3968,Note_on_c,9,42,127,
2,3968,Note_on_c,9,43,127,
2,3968,Note_on_c,9,45,127,
2,3968,Note_on_c,9,48,127,
2,3968,Note_on_c,9,51,127,
2,3968,Note_on_c,9,53,127,
2,3968,Note_on_c,9,80,127,
2,3968,Note_on_c,9,81,127,
2,3968,Note_on_c,9,82,127,
2,3969,Note_off_c,9,36,0,
2,3970,Note_on_c,9,36,127,
2,3970,Note_on_c,9,37,127,
2,3970,Note_on_c,9,38,127,
2,3970,Note_on_c,9,39,127,
2,3970,Note_on_c,9,41,127,
2,3970,Note_on_c,9,42,127,
2,3970,Note_on_c,9,43,127,
2,3970,Note_on_c,9,45,127,
2,3970,Note_on_c,9,48,127,
2,3970,Note_on_c,9,51,127,
2,3970,Note_on_c,9,53,127,
2,3970,Note_on_c,9,80,127,
2,3970,Note_on_c,9,81,127,
2,3970,Note_on_c,9,82,127,
2,3971,Note_off_c,9,36,0,
2,3972,Note_on_c,9,36,127,
2,3972,Note_on_c,9,37,127,
2,3972,Note_on_c,9,38,127,
2,3972,Note_on_c,9,39,127,
2,3972,Note_on_c,9,41,127,
2,3972,Note_on_c,9,42,127,
2,3972,Note_on_c,9,43,127,
2,3972,Note_on_c,9,45,127,
2,3972,Note_on_c,9,48,127,
2,3972,Note_on_c,9,51,127,
2,3972,Note_on_c,9,53,127,
2,3972,Note_on_c,9,80,127,
2,3972,Note_on_c,9,81,127,
2,3972,Note_on_c,9,82,127,
2,3973,Note_off_c,9,36,0,
2,3974,Note_on_c,9,36,127,
2,3974,Note_on_c,9,37,127,
2,3974,Note_on_c,9,38,127,
2,3974,Note_on_c,9,39,127,
2,3974,Note_on_c,9,41,127,
2,3974,Note_on_c,9,42,127,
2,3974,Note_on_c,9,43,127,
2,3974,Note_on_c,9,45,127,
2,3974,Note_on_c,9,48,127,
2,3974,Note_on_c,9,51,127,
2,3974,Note_on_c,9,53,127,
2,3974,Note_on_c,9,80,127,
2,3974,Note_on_c,9,81,127,
2,3974,Note_on_c,9,82,127,
2,3975,Note_off_c,9,36,0,
2,3976,Note_on_c,9,36,127,
2,3976,Note_on_c,9,37,127,
2,3976,Note_on_c,9,38,127,
2,3976,Note_on_c,9,39,127,
2,3976,Note_on_c,9,41,127,
2,3976,Note_on_c,9,42,127,
2,3976,Note_on_c,9,43,127,
2,3976,Note_on_c,9,45,127,
2,3976,Note_on_c,9,48,127,
2,3976,Note_on_c,9,51,127,
2,3976,Note_on_c,9,53,127,
2,3976,Note_on_c,9,80,127,
2,3976,Note_on_c,9,81,127,
2,3976,Note_on_c,9,82,127,
2,3977,Note_off_c,9,36,0,
2,3978,Note_on_c,9,36,127,
2,3978,Note_on_c,9,37,127,
2,3978,Note_on_c,9,38,127,
2,3978,Note_on_c,9,39,127,
2,3978,Note_on_c,9,41,127,
2,3978,Note_on_c,9,42,127,
2,3978,Note_on_c,9,43,127,
2,3978,Note_on_c,9,45,127,
2,3978,Note_on_c,9,48,127,
2,3978,Note_on_c,9,51,127,
2,3978,Note_on_c,9,53,127,
2,3978,Note_on_c,9,80,127,
2,3978,Note_on_c,9,81,127,
2,3978,Note_on_c,9,82,127,
2,3979,Note_off_c,9,36,0,
2,3980,Note_on_c,9,36,127,
2,3980,Note_on_c,9,37,127,
2,3980,Note_on_c,9,38,127,
2,3980,Note_on_c,9,39,127,
2,3980,Note_on_c,9,41,127,
2,3980,Note_on_c,9,42,127,
2,3980,Note_on_c,9,43,127,
2,3980,Note_on_c,9,45,127,
2,3980,Note_on_c,9,48,127,
2,3980,Note_on_c,9,51,127,
2,3980,Note_on_c,9,53,127,
2,3980,Note_on_c,9,80,127,
2,3980,Note_on_c,9,81,127,
2,3980,Note_on_c,9,82,127,
2,3981,Note_off_c,9,36,0,
2,3982,Note_on_c,9,36,127,
2,3982,Note_on_c,9,37,127,
2,3982,Note_on_c,9,38,127,
2,3982,Note_on_c,9,39,127,
2,3982,Note_on_c,9,41,127,
2,3982,Note_on_c,9,42,127,
2,3982,Note_on_c,9,43,127,
2,3982,Note_on_c,9,45,127,
2,3982,Note_on_c,9,48,127,
2,3982,Note_on_c,9,51,127,
2,3982,Note_on_c,9,53,127,
2,3982,Note_on_c,9,80,127,
2,3982,Note_on_c,9,81,127,
2,3982,Note_on_c,9,82,127,
2,3983,Note_off_c,9,36,0,
2,3984,Note_on_c,9,36,127,
2,3984,Note_on_c,9,37,127,
2,3984,Note_on_c,9,38,127,
2,3984,Note_on_c,9,39,127,
2,3984,Note_on_c,9,41,127,
2,3984,Note_on_c,9,42,127,
2,3984,Note_on_c,9,43,127,
2,3984,Note_on_c,9,45,127,
2,3984,Note_on_c,9,48,127,
2,3984,Note_on_c,9,51,127,
2,3984,Note_on_c,9,53,127,
2,3984,Note_on_c,9,80,127,
2,3984,Note_on_c,9,81,127,
2,3984,Note_on_c,9,82,127,
2,3985,Note_off_c,9,36,0,
2,3986,Note_on_c,9,36,127,
2,3986,Note_on_c,9,37,127,
2,3986,Note_on_c,9,38,127,
2,3986,Note_on_c,9,39,127,
2,3986,Note_on_c,9,41,127,
2,3986,Note_on_c,9,42,127,
2,3986,Note_on_c,9,43,127,
2,3986,Note_on_c,9,45,127,
2,3986,Note_on_c,9,48,127,
2,3986,Note_on_c,9,51,127,
2,3986,Note_on_c,9,53,127,
2,3986,Note_on_c,9,80,127,
2,3986,Note_on_c,9,81,127,
2,3986,Note_on_c,9,82,127,
2,3987,Note_off_c,9,36,0,
2,3988,Note_on_c,9,36,127,
2,3988,Note_on_c,9,37,127,
2,3988,Note_on_c,9,38,127,
2,3988,Note_on_c,9,39,127,
2,3988,Note_on_c,9,41,127,
2,3988,Note_on_c,9,42,127,
2,3988,Note_on_c,9,43,127,
2,3988,Note_on_c,9,45,127,
2,3988,Note_on_c,9,48,127,
2,3988,Note_on_c,9,51,127,
2,3988,Note_on_c,9,53,127,
2,3988,Note_on_c,9,80,127,
2,3988,Note_on_c,9,81,127,
2,3988,Note_on_c,9,82,127,
2,3989,Note_off_c,9,36,0,
2,3990,Note_on_c,9,36,127,
2,3990,Note_on_c,9,37,127,
2,3990,Note_on_c,9,38,127,
2,3990,Note_on_c,9,39,127,
2,3990,Note_on_c,9,41,127,
2,3990,Note_on_c,9,42,127,
2,3990,Note_on_c,9,43,127,
2,3990,Note_on_c,9,45,127,
2,3990,Note_on_c,9,48,127,
2,3990,Note_on_c,9,51,127,
2,3990,Note_on_c,9,53,127,
2,3990,Note_on_c,9,80,127,
2,3990,Note_on_c,9,81,127,
2,3990,Note_on_c,9,82,127,
2,3991,Note_off_c,9,36,0,
2,3992,Note_on_c,9,36,127,
2,3992,Note_on_c,9,37,127,
2,3992,Note_on_c,9,38,127,
2,3992,Note_on_c,9,39,127,
2,3992,Note_on_c,9,41,127,
2,3992,Note_on_c,9,42,127,
2,3992,Note_on_c,9,43,127,
2,3992,Note_on_c,9,45,127,
2,3992,Note_on_c,9,48,127,
2,3992,Note_on_c,9,51,127,
2,3992,Note_on_c,9,53,127,
2,3992,Note_on_c,9,80,127,
2,3992,Note_on_c,9,81,127,
2,3992,Note_on_c,9,82,127,
2,3993,Note_off_c,9,36,0,
2,3994,Note_on_c,9,36,127,
2,3994,Note_on_c,9,37,127,
2,3994,Note_on_c,9,38,127,
2,3994,Note_on_c,9,39,127,
2,3994,Note_on_c,9,41,127,
2,3994,Note_on_c,9,42,127,
2,3994,Note_on_c,9,43,127,
2,3994,Note_on_c,9,45,127,
2,3994,Note_on_c,9,48,127,
2,3994,Note_on_c,9,51,127,
2,3994,Note_on_c,9,53,127,
2,3994,Note_on_c,9,80,127,
2,3994,Note_on_c,9,81,127,
2,3994,Note_on_c,9,82,127,
2,3995,Note_off_c,9,36,0,
2,3996,Note_on_c,9,36,127,
2,3996,Note_on_c,9,37,127,
2,3996,Note_on_c,9,38,127,
2,3996,Note_on_c,9,39,127,
2,3996,Note_on_c,9,41,127,
2,3996,Note_on_c,9,42,127,
2,3996,Note_on_c,9,43,127,
2,3996,Note_on_c,9,45,127,
2,3996,Note_on_c,9,48,127,
2,3996,Note_on_c,9,51,127,
2,3996,Note_on_c,9,53,127,
2,3996,Note_on_c,9,80,127,
2,3996,Note_on_c,9,81,127,
2,3996,Note_on_c,9,82,127,
2,3997,Note_off_c,9,36,0,
2,3998,Note_on_c,9,36,127,
2,3998,Note_on_c,9,37,127,
2,3998,Note_on_c,9,38,127,
2,3998,Note_on_c,9,39,127,
2,3998,Note_on_c,9,41,127,
2,3998,Note_on_c,9,42,127,
2,3998,Note_on_c,9,43,127,
2,3998,Note_on_c,9,45,127,
2,3998,Note_on_c,9,48,127,
2,3998,Note_on_c,9,51,127,
2,3998,Note_on_c,9,53,127,
2,3998,Note_on_c,9,80,127,
2,3998,Note_on_c,9,81,127,
2,3998,Note_on_c,9,82,127,
2,3999,Note_off_c,9,36,0,
2,4000,Note_on_c,9,36,127,
2,4000,Note_on_c,9,37,127,
2,4000,Note_on_c,9,38,127,
2,4000,Note_on_c,9,39,127,
2,4000,Note_on_c,9,41,127,
2,4000,Note_on_c,9,42,127,
2,4000,Note_on_c,9,43,127,
2,4000,Note_on_c,9,45,127,
2,4000,Note_on_c,9,48,127,
2,4000,Note_on_c,9,51,127,
2,4000,Note_on_c,9,53,127,
2,4000,Note_on_c,9,80,127,
2,4000,Note_on_c,9,81,127,
2,4000,Note_on_c,9,82,127,
2,4001,Note_off_c,9,36,0,
2,4002,Note_on_c,9,36,127,
2,4002,Note_on_c,9,37,127,
2,4002,Note_on_c,9,38,127,
2,4002,Note_on_c,9,39,127,
2,4002,Note_on_c,9,41,127,
2,4002,Note_on_c,9,42,127,
2,4002,Note_on_c,9,43,127,
2,4002,Note_on_c,9,45,127,
2,4002,Note_on_c,9,48,127,
2,4002,Note_on_c,9,51,127,
2,4002,Note_on_c,9,53,127,
2,4002,Note_on_c,9,80,127,
2,4002,Note_on_c,9,81,127,
2,4002,Note_on_c,9,82,127,
2,4003,Note_off_c,9,36,0,
2,4004,Note_on_c,9,36,127,
2,4004,Note_on_c,9,37,127,
2,4004,Note_on_c,9,38,127,
2,4004,Note_on_c,9,39,127,
2,4004,Note_on_c,9,41,127,
2,4004,Note_on_c,9,42,127,
2,4004,Note_on_c,9,43,127,
2,4004,Note_on_c,9,45,127,
2,4004,Note_on_c,9,48,127,
2,4004,Note_on_c,9,51,127,
2,4004,Note_on_c,9,53,127,
2,4004,Note_on_c,9,80,127,
2,4004,Note_on_c,9,81,127,
2,4004,Note_on_c,9,82,127,
2,4005,Note_off_c,9,36,0,
2,4006,Note_on_c,9,36,127,
2,4006,Note_on_c,9,37,127,
2,4006,Note_on_c,9,38,127,
2,4006,Note_on_c,9,39,127,
2,4006,Note_on_c,9,41,127,
2,4006,Note_on_c,9,42,127,
2,4006,Note_on_c,9,43,127,
2,4006,Note_on_c,9,45,127,
2,4006,Note_on_c,9,48,127,
2,4006,Note_on_c,9,51,127,
2,4006,Note_on_c,9,53,127,
2,4006,Note_on_c,9,80,127,
2,4006,Note_on_c,9,81,127,
2,4006,Note_on_c,9,82,127,
2,4007,Note_off_c,9,36,0,
2,4008,Note_on_c,9,36,127,
2,4008,Note_on_c,9,37,127,
2,4008,Note_on_c,9,38,127,
2,4008,Note_on_c,9,39,127,
2,4008,Note_on_c,9,41,127,
2,4008,Note_on_c,9,42,127,
2,4008,Note_on_c,9,43,127,
2,4008,Note_on_c,9,45,127,
2,4008,Note_on_c,9,48,127,
2,4008,Note_on_c,9,51,127,
2,4008,Note_on_c,9,53,127,
2,4008,Note_on_c,9,80,127,
2,4008,Note_on_c,9,81,127,
2,4008,Note_on_c,9,82,127,
2,4009,Note_off_c,9,36,0,
2,4010,Note_on_c,9,36,127,
2,4010,Note_on_c,9,37,127,
2,4010,Note_on_c,9,38,127,
2,4010,Note_on_c,9,39,127,
2,4010,Note_on_c,9,41,127,
2,4010,Note_on_c,9,42,127,
2,4010,Note_on_c,9,43,127,
2,4010,Note_on_c,9,45,127,
2,4010,Note_on_c,9,48,127,
2,4010,Note_on_c,9,51,127,
2,4010,Note_on_c,9,53,127,
2,4010,Note_on_c,9,80,127,
2,4010,Note_on_c,9,81,127,
2,4010,Note_on_c,9,82,127,
2,4011,Note_off_c,9,36,0,
2,4012,Note_on_c,9,36,127,
2,4012,Note_on_c,9,37,127,
2,4012,Note_on_c,9,38,127,
2,4012,Note_on_c,9,39,127,
2,4012,Note_on_c,9,41,127,
2,4012,Note_on_c,9,42,127,
2,4012,Note_on_c,9,43,127,
2,4012,Note_on_c,9,45,127,
2,4012,Note_on_c,9,48,127,
2,4012,Note_on_c,9,51,127,
2,4012,Note_on_c,9,53,127,
2,4012,Note_on_c,9,80,127,
2,4012,Note_on_c,9,81,127,
2,4012,Note_on_c,9,82,127,
2,4013,Note_off_c,9,36,0,
2,4014,Note_on_c,9,36,127,
2,4014,Note_on_c,9,37,127,
2,4014,Note_on_c,9,38,127,
2,4014,Note_on_c,9,39,127,
2,4014,Note_on_c,9,41,127,
2,4014,Note_on_c,9,42,127,
2,4014,Note_on_c,9,43,127,
2,4014,Note_on_c,9,45,127,
2,4014,Note_on_c,9,48,127,
2,4014,Note_on_c,9,51,127,
2,4014,Note_on_c,9,53,127,
2,4014,Note_on_c,9,80,127,
2,4014,Note_on_c,9,81,127,
2,4014,Note_on_c,9,82,127,
2,4015,Note_off_c,9,36,0,
2,4016,Note_on_c,9,36,127,
2,4016,Note_on_c,9,37,127,
2,4016,Note_on_c,9,38,127,
2,4016,Note_on_c,9,39,127,
2,4016,Note_on_c,9,41,127,
2,4016,Note_on_c,9,42,127,
2,4016,Note_on_c,9,43,127,
2,4016,Note_on_c,9,45,127,
2,4016,Note_on_c,9,48,127,
2,4016,Note_on_c,9,51,127,
2,4016,Note_on_c,9,53,127,
2,4016,Note_on_c,9,80,127,
2,4016,Note_on_c,9,81,127,
2,4016,Note_on_c,9,82,127,
2,4017,Note_off_c,9,36,0,
2,4018,Note_on_c,9,36,127,
2,4018,Note_on_c,9,37,127,
2,4018,Note_on_c,9,38,127,
2,4018,Note_on_c,9,39,127,
2,4018,Note_on_c,9,41,127,
2,4018,Note_on_c,9,42,127,
2,4018,Note_on_c,9,43,127,
2,4018,Note_on_c,9,45,127,
2,4018,Note_on_c,9,48,127,
2,4018,Note_on_c,9,51,127,
2,4018,Note_on_c,9,53,127,
2,4018,Note_on_c,9,80,127,
2,4018,Note_on_c,9,81,127,
2,4018,Note_on_c,9,82,127,
2,4019,Note_off_c,9,36,0,
2,4020,Note_on_c,9,36,127,
2,4020,Note_on_c,9,37,127,
2,4020,Note_on_c,9,38,127,
2,4020,Note_on_c,9,39,127,
2,4020,Note_on_c,9,41,127,
2,4020,Note_on_c,9,42,127,
2,4020,Note_on_c,9,43,127,
2,4020,Note_on_c,9,45,127,
2,4020,Note_on_c,9,48,127,
2,4020,Note_on_c,9,51,127,
2,4020,Note_on_c,9,53,127,
2,4020,Note_on_c,9,80,127,
2,4020,Note_on_c,9,81,127,
2,4020,Note_on_c,9,82,127,
2,4021,Note_off_c,9,36,0,
2,4022,Note_on_c,9,36,127,
2,4022,Note_on_c,9,37,127,
2,4022,Note_on_c,9,38,127,
2,4022,Note_on_c,9,39,127,
2,4022,Note_on_c,9,41,127,
2,4022,Note_on_c,9,42,127,
2,4022,Note_on_c,9,43,127,
2,4022,Note_on_c,9,45,127,
2,4022,Note_on_c,9,48,127,
2,4022,Note_on_c,9,51,127,
2,4022,Note_on_c,9,53,127,
2,4022,Note_on_c,9,80,127,
2,4022,Note_on_c,9,81,127,
2,4022,Note_on_c,9,82,127,
2,4023,Note_off_c,9,36,0,
2,4024,Note_on_c,9,36,127,
2,4024,Note_on_c,9,37,127,
2,4024,Note_on_c,9,38,127,
2,4024,Note_on_c,9,39,127,
2,4024,Note_on_c,9,41,127,
2,4024,Note_on_c,9,42,127,
2,4024,Note_on_c,9,43,127,
2,4024,Note_on_c,9,45,127,
2,4024,Note_on_c,9,48,127,
2,4024,Note_on_c,9,51,127,
2,4024,Note_on_c,9,53,127,
2,4024,Note_on_c,9,80,127,
2,4024,Note_on_c,9,81,127,
2,4024,Note_on_c,9,82,127,
2,4025,Note_off_c,9,36,0,
2,4026,Note_on_c,9,36,127,
2,4026,Note_on_c,9,37,127,
2,4026,Note_on_c,9,38,127,
2,4026,Note_on_c,9,39,127,
2,4026,Note_on_c,9,41,127,
2,4026,Note_on_c,9,42,127,
2,4026,Note_on_c,9,43,127,
2,4026,Note_on_c,9,45,127,
2,4026,Note_on_c,9,48,127,
2,4026,Note_on_c,9,51,127,
2,4026,Note_on_c,9,53,127,
2,4026,Note_on_c,9,80,127,
2,4026,Note_on_c,9,81,127,
2,4026,Note_on_c,9,82,127,
2,4027,Note_off_c,9,36,0,
2,4028,Note_on_c,9,36,127,
2,4028,Note_on_c,9,37,127,
2,4028,Note_on_c,9,38,127,
2,4028,Note_on_c,9,39,127,
2,4028,Note_on_c,9,41,127,
2,4028,Note_on_c,9,42,127,
2,4028,Note_on_c,9,43,127,
2,4028,Note_on_c,9,45,127,
2,4028,Note_on_c,9,48,127,
2,4028,Note_on_c,9,51,127,
2,4028,Note_on_c,9,53,127,
2,4028,Note_on_c,9,80,127,
2,4028,Note_on_c,9,81,127,
2,4028,Note_on_c,9,82,127,
2,4029,Note_off_c,9,36,0,
2,4030,Note_on_c,9,36,127,
2,4030,Note_on_c,9,37,127,
2,4030,Note_on_c,9,38,127,
2,4030,Note_on_c,9,39,127,
2,4030,Note_on_c,9,41,127,
2,4030,Note_on_c,9,42,127,
2,4030,Note_on_c,9,43,127,
2,4030,Note_on_c,9,45,127,
2,4030,Note_on_c,9,48,127,
2,4030,Note_on_c,9,51,127,
2,4030,Note_on_c,9,53,127,
2,4030,Note_on_c,9,80,127,
2,4030,Note_on_c,9,81,127,
2,4030,Note_on_c,9,82,127,
2,4031,Note_off_c,9,36,0,
2,4032,Note_on_c,9,36,127,
2,4032,Note_on_c,9,37,127,
2,4032,Note_on_c,9,38,127,
2,4032,Note_on_c,9,39,127,
2,4032,Note_on_c,9,41,127,
2,4032,Note_on_c,9,42,127,
2,4032,Note_on_c,9,43,127,
2,4032,Note_on_c,9,45,127,
2,4032,Note_on_c,9,48,127,
2,4032,Note_on_c,9,51,127,
2,4032,Note_on_c,9,53,127,
2,4032,Note_on_c,9,80,127,
2,4032,Note_on_c,9,81,127,
2,4032,Note_on_c,9,82,127,
2,4033,Note_off_c,9,36,0,
2,4034,Note_on_c,9,36,127,
2,4034,Note_on_c,9,37,127,
2,4034,Note_on_c,9,38,127,
2,4034,Note_on_c,9,39,127,
2,4034,Note_on_c,9,41,127,
2,4034,Note_on_c,9,42,127,
2,4034,Note_on_c,9,43,127,
2,4034,Note_on_c,9,45,127,
2,4034,Note_on_c,9,48,127,
2,4034,Note_on_c,9,51,127,
2,4034,Note_on_c,9,53,127,
2,4034,Note_on_c,9,80,127,
2,4034,Note_on_c,9,81,127,
2,4034,Note_on_c,9,82,127,
2,4035,Note_off_c,9,36,0,
2,4036,Note_on_c,9,36,127,
2,4036,Note_on_c,9,37,127,
2,4036,Note_on_c,9,38,127,
2,4036,Note_on_c,9,39,127,
2,4036,Note_on_c,9,41,127,
2,4036,Note_on_c,9,42,127,
2,4036,Note_on_c,9,43,127,
2,4036,Note_on_c,9,45,127,
2,4036,Note_on_c,9,48,127,
2,4036,Note_on_c,9,51,127,
2,4036,Note_on_c,9,53,127,
2,4036,Note_on_c,9,80,127,
2,4036,Note_on_c,9,81,127,
2,4036,Note_on_c,9,82,127,
2,4037,Note_off_c,9,36,0,
2,4038,Note_on_c,9,36,127,
2,4038,Note_on_c,9,37,127,
2,4038,Note_on_c,9,38,127,
2,4038,Note_on_c,9,39,127,
2,4038,Note_on_c,9,41,127,
2,4038,Note_on_c,9,42,127,
2,4038,Note_on_c,9,43,127,
2,4038,Note_on_c,9,45,127,
2,4038,Note_on_c,9,48,127,
2,4038,Note_on_c,9,51,127,
2,4038,Note_on_c,9,53,127,
2,4038,Note_on_c,9,80,127,
2,4038,Note_on_c,9,81,127,
2,4038,Note_on_c,9,82,127,
2,4039,Note_off_c,9,36,0,
2,4040,Note_on_c,9,36,127,
2,4040,Note_on_c,9,37,127,
2,4040,Note_on_c,9,38,127,
2,4040,Note_on_c,9,39,127,
2,4040,Note_on_c,9,41,127,
2,4040,Note_on_c,9,42,127,
2,4040,Note_on_c,9,43,127,
2,4040,Note_on_c,9,45,127,
2,4040,Note_on_c,9,48,127,
2,4040,Note_on_c,9,51,127,
2,4040,Note_on_c,9,53,127,
2,4040,Note_on_c,9,80,127,
2,4040,Note_on_c,9,81,127,
2,4040,Note_on_c,9,82,127,
2,4041,Note_off_c,9,36,0,
2,4042,Note_on_c,9,36,127,
2,4042,Note_on_c,9,37,127,
2,4042,Note_on_c,9,38,127,
2,4042,Note_on_c,9,39,127,
2,4042,Note_on_c,9,41,127,
2,4042,Note_on_c,9,42,127,
2,4042,Note_on_c,9,43,127,
2,4042,Note_on_c,9,45,127,
2,4042,Note_on_c,9,48,127,
2,4042,Note_on_c,9,51,127,
2,4042,Note_on_c,9,53,127,
2,4042,Note_on_c,9,80,127,
2,4042,Note_on_c,9,81,127,
2,4042,Note_on_c,9,82,127,
2,4043,Note_off_c,9,36,0,
2,4044,Note_on_c,9,36,127,
2,4044,Note_on_c,9,37,127,
2,4044,Note_on_c,9,38,127,
2,4044,Note_on_c,9,39,127,
2,4044,Note_on_c,9,41,127,
2,4044,Note_on_c,9,42,127,
2,4044,Note_on_c,9,43,127,
2,4044,Note_on_c,9,45,127,
2,4044,Note_on_c,9,48,127,
2,4044,Note_on_c,9,51,127,
2,4044,Note_on_c,9,53,127,
2,4044,Note_on_c,9,80,127,
2,4044,Note_on_c,9,81,127,
2,4044,Note_on_c,9,82,127,
2,4045,Note_off_c,9,36,0,
2,4046,Note_on_c,9,36,127,
2,4046,Note_on_c,9,37,127,
2,4046,Note_on_c,9,38,127,
2,4046,Note_on_c,9,39,127,
2,4046,Note_on_c,9,41,127,
2,4046,Note_on_c,9,42,127,
2,4046,Note_on_c,9,43,127,
2,4046,Note_on_c,9,45,127,
2,4046,Note_on_c,9,48,127,
2,4046,Note_on_c,9,51,127,
2,4046,Note_on_c,9,53,127,
2,4046,Note_on_c,9,80,127,
2,4046,Note_on_c,9,81,127,
2,4046,Note_on_c,9,82,127,
2,4047,Note_off_c,9,36,0,
2,4048,Note_on_c,9,36,127,
2,4048,Note_on_c,9,37,127,
2,4048,Note_on_c,9,38,127,
2,4048,Note_on_c,9,39,127,
2,4048,Note_on_c,9,41,127,
2,4048,Note_on_c,9,42,127,
2,4048,Note_on_c,9,43,127,
2,4048,Note_on_c,9,45,127,
2,4048,Note_on_c,9,48,127,
2,4048,Note_on_c,9,51,127,
2,4048,Note_on_c,9,53,127,
2,4048,Note_on_c,9,80,127,
2,4048,Note_on_c,9,81,127,
2,4048,Note_on_c,9,82,127,
2,4049,Note_off_c,9,36,0,
2,4050,Note_on_c,9,36,127,
2,4050,Note_on_c,9,37,127,
2,4050,Note_on_c,9,38,127,
2,4050,Note_on_c,9,39,127,
2,4050,Note_on_c,9,41,127,
2,4050,Note_on_c,9,42,127,
2,4050,Note_on_c,9,43,127,
2,4050,Note_on_c,9,45,127,
2,4050,Note_on_c,9,48,127,
2,4050,Note_on_c,9,51,127,
2,4050,Note_on_c,9,53,127,
2,4050,Note_on_c,9,80,127,
2,4050,Note_on_c,9,81,127,
2,4050,Note_on_c,9,82,127,
2,4051,Note_off_c,9,36,0,
2,4052,Note_on_c,9,36,127,
2,4052,Note_on_c,9,37,127,
2,4052,Note_on_c,9,38,127,
2,4052,Note_on_c,9,39,127,
2,4052,Note_on_c,9,41,127,
2,4052,Note_on_c,9,42,127,
2,4052,Note_on_c,9,43,127,
2,4052,Note_on_c,9,45,127,
2,4052,Note_on_c,9,48,127,
2,4052,Note_on_c,9,51,127,
2,4052,Note_on_c,9,53,127,
2,4052,Note_on_c,9,80,127,
2,4052,Note_on_c,9,81,127,
2,4052,Note_on_c,9,82,127,
2,4053,Note_off_c,9,36,0,
2,4054,Note_on_c,9,36,127,
2,4054,Note_on_c,9,37,127,
2,4054,Note_on_c,9,38,127,
2,4054,Note_on_c,9,39,127,
2,4054,Note_on_c,9,41,127,
2,4054,Note_on_c,9,42,127,
2,4054,Note_on_c,9,43,127,
2,4054,Note_on_c,9,45,127,
2,4054,Note_on_c,9,48,127,
2,4054,Note_on_c,9,51,127,
2,4054,Note_on_c,9,53,127,
2,4054,Note_on_c,9,80,127,
2,4054,Note_on_c,9,81,127,
2,4054,Note_on_c,9,82,127,
2,4055,Note_off_c,9,36,0,
2,4056,Note_on_c,9,36,127,
2,4056,Note_on_c,9,37,127,
2,4056,Note_on_c,9,38,127,
2,4056,Note_on_c,9,39,127,
2,4056,Note_on_c,9,41,127,
2,4056,Note_on_c,9,42,127,
2,4056,Note_on_c,9,43,127,
2,4056,Note_on_c,9,45,127,
2,4056,Note_on_c,9,48,127,
2,4056,Note_on_c,9,51,127,
2,4056,Note_on_c,9,53,127,
2,4056,Note_on_c,9,80,127,
2,4056,Note_on_c,9,81,127,
2,4056,Note_on_c,9,82,127,
2,4057,Note_off_c,9,36,0,
2,4058,Note_on_c,9,36,127,
2,4058,Note_on_c,9,37,127,
2,4058,Note_on_c,9,38,127,
2,4058,Note_on_c,9,39,127,
2,4058,Note_on_c,9,41,127,
2,4058,Note_on_c,9,42,127,
2,4058,Note_on_c,9,43,127,
2,4058,Note_on_c,9,45,127,
2,4058,Note_on_c,9,48,127,
2,4058,Note_on_c,9,51,127,
2,4058,Note_on_c,9,53,127,
2,4058,Note_on_c,9,80,127,
2,4058,Note_on_c,9,81,127,
2,4058,Note_on_c,9,82,127,
2,4059,Note_off_c,9,36,0,
2,4060,Note_on_c,9,36,127,
2,4060,Note_on_c,9,37,127,
2,4060,Note_on_c,9,38,127,
2,4060,Note_on_c,9,39,127,
2,4060,Note_on_c,9,41,127,
2,4060,Note_on_c,9,42,127,
2,4060,Note_on_c,9,43,127,
2,4060,Note_on_c,9,45,127,
2,4060,Note_on_c,9,48,127,
2,4060,Note_on_c,9,51,127,
2,4060,Note_on_c,9,53,127,
2,4060,Note_on_c,9,80,127,
2,4060,Note_on_c,9,81,127,
2,4060,Note_on_c,9,82,127,
2,4061,Note_off_c,9,36,0,
2,4062,Note_on_c,9,36,127,
2,4062,Note_on_c,9,37,127,
2,4062,Note_on_c,9,38,127,
2,4062,Note_on_c,9,39,127,
2,4062,Note_on_c,9,41,127,
2,4062,Note_on_c,9,42,127,
2,4062,Note_on_c,9,43,127,
2,4062,Note_on_c,9,45,127,
2,4062,Note_on_c,9,48,127,
2,4062,Note_on_c,9,51,127,
2,4062,Note_on_c,9,53,127,
2,4062,Note_on_c,9,80,127,
2,4062,Note_on_c,9,81,127,
2,4062,Note_on_c,9,82,127,
2,4063,Note_off_c,9,36,0,
2,4064,Note_on_c,9,36,127,
2,4064,Note_on_c,9,37,127,
2,4064,Note_on_c,9,38,127,
2,4064,Note_on_c,9,39,127,
2,4064,Note_on_c,9,41,127,
2,4064,Note_on_c,9,42,127,
2,4064,Note_on_c,9,43,127,
2,4064,Note_on_c,9,45,127,
2,4064,Note_on_c,9,48,127,
2,4064,Note_on_c,9,51,127,
2,4064,Note_on_c,9,53,127,
2,4064,Note_on_c,9,80,127,
2,4064,Note_on_c,9,81,127,
2,4064,Note_on_c,9,82,127,
2,4065,Note_off_c,9,36,0,
2,4066,Note_on_c,9,36,127,
2,4066,Note_on_c,9,37,127,
2,4066,Note_on_c,9,38,127,
2,4066,Note_on_c,9,39,127,
2,4066,Note_on_c,9,41,127,
2,4066,Note_on_c,9,42,127,
2,4066,Note_on_c,9,43,127,
2,4066,Note_on_c,9,45,127,
2,4066,Note_on_c,9,48,127,
2,4066,Note_on_c,9,51,127,
2,4066,Note_on_c,9,53,127,
2,4066,Note_on_c,9,80,127,
2,4066,Note_on_c,9,81,127,
2,4066,Note_on_c,9,82,127,
2,4067,Note_off_c,9,36,0,
2,4068,Note_on_c,9,36,127,
2,4068,Note_on_c,9,37,127,
2,4068,Note_on_c,9,38,127,
2,4068,Note_on_c,9,39,127,
2,4068,Note_on_c,9,41,127,
2,4068,Note_on_c,9,42,127,
2,4068,Note_on_c,9,43,127,
2,4068,Note_on_c,9,45,127,
2,4068,Note_on_c,9,48,127,
2,4068,Note_on_c,9,51,127,
2,4068,Note_on_c,9,53,127,
2,4068,Note_on_c,9,80,127,
2,4068,Note_on_c,9,81,127,
2,4068,Note_on_c,9,82,127,
2,4069,Note_off_c,9,36,0,
2,4070,Note_on_c,9,36,127,
2,4070,Note_on_c,9,37,127,
2,4070,Note_on_c,9,38,127,
2,4070,Note_on_c,9,39,127,
2,4070,Note_on_c,9,41,127,
2,4070,Note_on_c,9,42,127,
2,4070,Note_on_c,9,43,127,
2,4070,Note_on_c,9,45,127,
2,4070,Note_on_c,9,48,127,
2,4070,Note_on_c,9,51,127,
2,4070,Note_on_c,9,53,127,
2,4070,Note_on_c,9,80,127,
2,4070,Note_on_c,9,81,127,
2,4070,Note_on_c,9,82,127,
2,4071,Note_off_c,9,36,0,
2,4072,Note_on_c,9,36,127,
2,4072,Note_on_c,9,37,127,
2,4072,Note_on_c,9,38,127,
2,4072,Note_on_c,9,39,127,
2,4072,Note_on_c,9,41,127,
2,4072,Note_on_c,9,42,127,
2,4072,Note_on_c,9,43,127,
2,4072,Note_on_c,9,45,127,
2,4072,Note_on_c,9,48,127,
2,4072,Note_on_c,9,51,127,
2,4072,Note_on_c,9,53,127,
2,4072,Note_on_c,9,80,127,
2,4072,Note_on_c,9,81,127,
2,4072,Note_on_c,9,82,127,
2,4073,Note_off_c,9,36,0,
2,4074,Note_on_c,9,36,127,
2,4074,Note_on_c,9,37,127,
2,4074,Note_on_c,9,38,127,
2,4074,Note_on_c,9,39,127,
2,4074,Note_on_c,9,41,127,
2,4074,Note_on_c,9,42,127,
2,4074,Note_on_c,9,43,127,
2,4074,Note_on_c,9,45,127,
2,4074,Note_on_c,9,48,127,
2,4074,Note_on_c,9,51,127,
2,4074,Note_on_c,9,53,127,
2,4074,Note_on_c,9,80,127,
2,4074,Note_on_c,9,81,127,
2,4074,Note_on_c,9,82,127,
2,4075,Note_off_c,9,36,0,
2,4076,Note_on_c,9,36,127,
2,4076,Note_on_c,9,37,127,
2,4076,Note_on_c,9,38,127,
2,4076,Note_on_c,9,39,127,
2,4076,Note_on_c,9,41,127,
2,4076,Note_on_c,9,42,127,
2,4076,Note_on_c,9,43,127,
2,4076,Note_on_c,9,45,127,
2,4076,Note_on_c,9,48,127,
2,4076,Note_on_c,9,51,127,
2,4076,Note_on_c,9,53,127,
2,4076,Note_on_c,9,80,127,
2,4076,Note_on_c,9,81,127,
2,4076,Note_on_c,9,82,127,
2,4077,Note_off_c,9,36,0,
2,4078,Note_on_c,9,36,127,
2,4078,Note_on_c,9,37,127,
2,4078,Note_on_c,9,38,127,
2,4078,Note_on_c,9,39,127,
2,4078,Note_on_c,9,41,127,
2,4078,Note_on_c,9,42,127,
2,4078,Note_on_c,9,43,127,
2,4078,Note_on_c,9,45,127,
2,4078,Note_on_c,9,48,127,
2,4078,Note_on_c,9,51,127,
2,4078,Note_on_c,9,53,127,
2,4078,Note_on_c,9,80,127,
2,4078,Note_on_c,9,81,127,
2,4078,Note_on_c,9,82,127,
2,4079,Note_off_c,9,36,0,
2,4080,Note_on_c,9,36,127,
2,4080,Note_on_c,9,37,127,
2,4080,Note_on_c,9,38,127,
2,4080,Note_on_c,9,39,127,
2,4080,Note_on_c,9,41,127,
2,4080,Note_on_c,9,42,127,
2,4080,Note_on_c,9,43,127,
2,4080,Note_on_c,9,45,127,
2,4080,Note_on_c,9,48,127,
2,4080,Note_on_c,9,51,127,
2,4080,Note_on_c,9,53,127,
2,4080,Note_on_c,9,80,127,
2,4080,Note_on_c,9,81,127,
2,4080,Note_on_c,9,82,127,
2,4081,Note_off_c,9,36,0,
2,4082,Note_on_c,9,36,127,
2,4082,Note_on_c,9,37,127,
2,4082,Note_on_c,9,38,127,
2,4082,Note_on_c,9,39,127,
2,4082,Note_on_c,9,41,127,
2,4082,Note_on_c,9,42,127,
2,4082,Note_on_c,9,43,127,
2,4082,Note_on_c,9,45,127,
2,4082,Note_on_c,9,48,127,
2,4082,Note_on_c,9,51,127,
2,4082,Note_on_c,9,53,127,
2,4082,Note_on_c,9,80,127,
2,4082,Note_on_c,9,81,127,
2,4082,Note_on_c,9,82,127,
2,4083,Note_off_c,9,36,0,
2,4084,Note_on_c,9,36,127,
2,4084,Note_on_c,9,37,127,
2,4084,Note_on_c,9,38,127,
2,4084,Note_on_c,9,39,127,
2,4084,Note_on_c,9,41,127,
2,4084,Note_on_c,9,42,127,
2,4084,Note_on_c,9,43,127,
2,4084,Note_on_c,9,45,127,
2,4084,Note_on_c,9,48,127,
2,4084,Note_on_c,9,51,127,
2,4084,Note_on_c,9,53,127,
2,4084,Note_on_c,9,80,127,
2,4084,Note_on_c,9,81,127,
2,4084,Note_on_c,9,82,127,
2,4085,Note_off_c,9,36,0,
2,4086,Note_on_c,9,36,127,
2,4086,Note_on_c,9,37,127,
2,4086,Note_on_c,9,38,127,
2,4086,Note_on_c,9,39,127,
2,4086,Note_on_c,9,41,127,
2,4086,Note_on_c,9,42,127,
2,4086,Note_on_c,9,43,127,
2,4086,Note_on_c,9,45,127,
2,4086,Note_on_c,9,48,127,
2,4086,Note_on_c,9,51,127,
2,4086,Note_on_c,9,53,127,
2,4086,Note_on_c,9,80,127,
2,4086,Note_on_c,9,81,127,
2,4086,Note_on_c,9,82,127,
2,4087,Note_off_c,9,36,0,
2,4088,Note_on_c,9,36,127,
2,4088,Note_on_c,9,37,127,
2,4088,Note_on_c,9,38,127,
2,4088,Note_on_c,9,39,127,
2,4088,Note_on_c,9,41,127,
2,4088,Note_on_c,9,42,127,
2,4088,Note_on_c,9,43,127,
2,4088,Note_on_c,9,45,127,
2,4088,Note_on_c,9,48,127,
2,4088,Note_on_c,9,51,127,
2,4088,Note_on_c,9,53,127,
2,4088,Note_on_c,9,80,127,
2,4088,Note_on_c,9,81,127,
2,4088,Note_on_c,9,82,127,
2,4089,Note_off_c,9,36,0,
2,4090,Note_on_c,9,36,127,
2,4090,Note_on_c,9,37,127,
2,4090,Note_on_c,9,38,127,
2,4090,Note_on_c,9,39,127,
2,4090,Note_on_c,9,41,127,
2,4090,Note_on_c,9,42,127,
2,4090,Note_on_c,9,43,127,
2,4090,Note_on_c,9,45,127,
2,4090,Note_on_c,9,48,127,
2,4090,Note_on_c,9,51,127,
2,4090,Note_on_c,9,53,127,
2,4090,Note_on_c,9,80,127,
2,4090,Note_on_c,9,81,127,
2,4090,Note_on_c,9,82,127,
2,4091,Note_off_c,9,36,0,
2,4092,Note_on_c,9,36,127,
2,4092,Note_on_c,9,37,127,
2,4092,Note_on_c,9,38,127,
2,4092,Note_on_c,9,39,127,
2,4092,Note_on_c,9,41,127,
2,4092,Note_on_c,9,42,127,
2,4092,Note_on_c,9,43,127,
2,4092,Note_on_c,9,45,127,
2,4092,Note_on_c,9,48,127,
2,4092,Note_on_c,9,51,127,
2,4092,Note_on_c,9,53,127,
2,4092,Note_on_c,9,80,127,
2,4092,Note_on_c,9,81,127,
2,4092,Note_on_c,9,82,127,
2,4093,Note_off_c,9,36,0,
2,4094,Note_on_c,9,36,127,
2,4094,Note_on_c,9,37,127,
2,4094,Note_on_c,9,38,127,
2,4094,Note_on_c,9,39,127,
2,4094,Note_on_c,9,41,127,
2,4094,Note_on_c,9,42,127,
2,4094,Note_on_c,9,43,127,
2,4094,Note_on_c,9,45,127,
2,4094,Note_on_c,9,48,127,
2,4094,Note_on_c,9,51,127,
2,4094,Note_on_c,9,53,127,
2,4094,Note_on_c,9,80,127,
2,4094,Note_on_c,9,81,127,
2,4094,Note_on_c,9,82,127,
2,4095,Note_off_c,9,36,0,
2,4096,Note_on_c,9,36,127,
2,4096,Note_on_c,9,37,127,
2,4096,Note_on_c,9,38,127,
2,4096,Note_on_c,9,39,127,
2,4096,Note_on_c,9,41,127,
2,4096,Note_on_c,9,42,127,
2,4096,Note_on_c,9,43,127,
2,4096,Note_on_c,9,45,127,
2,4096,Note_on_c,9,48,127,
2,4096,Note_on_c,9,51,127,
2,4096,Note_on_c,9,53,127,
2,4096,Note_on_c,9,80,127,
2,4096,Note_on_c,9,81,127,
2,4096,Note_on_c,9,82,127,
2,4097,Note_off_c,9,36,0,
2,4098,Note_on_c,9,36,127,
2,4098,Note_on_c,9,37,127,
2,4098,Note_on_c,9,38,127,
2,4098,Note_on_c,9,39,127,
2,4098,Note_on_c,9,41,127,
2,4098,Note_on_c,9,42,127,
2,4098,Note_on_c,9,43,127,
2,4098,Note_on_c,9,45,127,
2,4098,Note_on_c,9,48,127,
2,4098,Note_on_c,9,51,127,
2,4098,Note_on_c,9,53,127,
2,4098,Note_on_c,9,80,127,
2,4098,Note_on_c,9,81,127,
2,4098,Note_on_c,9,82,127,
2,4099,Note_off_c,9,36,0,
2,4100,Note_on_c,9,36,127,
2,4100,Note_on_c,9,37,127,
2,4100,Note_on_c,9,38,127,
2,4100,Note_on_c,9,39,127,
2,4100,Note_on_c,9,41,127,
2,4100,Note_on_c,9,42,127,
2,4100,Note_on_c,9,43,127,
2,4100,Note_on_c,9,45,127,
2,4100,Note_on_c,9,48,127,
2,4100,Note_on_c,9,51,127,
2,4100,Note_on_c,9,53,127,
2,4100,Note_on_c,9,80,127,
2,4100,Note_on_c,9,81,127,
2,4100,Note_on_c,9,82,127,
2,4101,Note_off_c,9,36,0,
2,4102,Note_on_c,9,36,127,
2,4102,Note_on_c,9,37,127,
2,4102,Note_on_c,9,38,127,
2,4102,Note_on_c,9,39,127,
2,4102,Note_on_c,9,41,127,
2,4102,Note_on_c,9,42,127,
2,4102,Note_on_c,9,43,127,
2,4102,Note_on_c,9,45,127,
2,4102,Note_on_c,9,48,127,
2,4102,Note_on_c,9,51,127,
2,4102,Note_on_c,9,53,127,
2,4102,Note_on_c,9,80,127,
2,4102,Note_on_c,9,81,127,
2,4102,Note_on_c,9,82,127,
2,4103,Note_off_c,9,36,0,
2,4104,Note_on_c,9,36,127,
2,4104,Note_on_c,9,37,127,
2,4104,Note_on_c,9,38,127,
2,4104,Note_on_c,9,39,127,
2,4104,Note_on_c,9,41,127,
2,4104,Note_on_c,9,42,127,
2,4104,Note_on_c,9,43,127,
2,4104,Note_on_c,9,45,127,
2,4104,Note_on_c,9,48,127,
2,4104,Note_on_c,9,51,127,
2,4104,Note_on_c,9,53,127,
2,4104,Note_on_c,9,80,127,
2,4104,Note_on_c,9,81,127,
2,4104,Note_on_c,9,82,127,
2,4105,Note_off_c,9,36,0,
2,4106,Note_on_c,9,36,127,
2,4106,Note_on_c,9,37,127,
2,4106,Note_on_c,9,38,127,
2,4106,Note_on_c,9,39,127,
2,4106,Note_on_c,9,41,127,
2,4106,Note_on_c,9,42,127,
2,4106,Note_on_c,9,43,127,
2,4106,Note_on_c,9,45,127,
2,4106,Note_on_c,9,48,127,
2,4106,Note_on_c,9,51,127,
2,4106,Note_on_c,9,53,127,
2,4106,Note_on_c,9,80,127,
2,4106,Note_on_c,9,81,127,
2,4106,Note_on_c,9,82,127,
2,4107,Note_off_c,9,36,0,
2,4108,Note_on_c,9,36,127,
2,4108,Note_on_c,9,37,127,
2,4108,Note_on_c,9,38,127,
2,4108,Note_on_c,9,39,127,
2,4108,Note_on_c,9,41,127,
2,4108,Note_on_c,9,42,127,
2,4108,Note_on_c,9,43,127,
2,4108,Note_on_c,9,45,127,
2,4108,Note_on_c,9,48,127,
2,4108,Note_on_c,9,51,127,
2,4108,Note_on_c,9,53,127,
2,4108,Note_on_c,9,80,127,
2,4108,Note_on_c,9,81,127,
2,4108,Note_on_c,9,82,127,
2,4109,Note_off_c,9,36,0,
2,4110,Note_on_c,9,36,127,
2,4110,Note_on_c,9,37,127,
2,4110,Note_on_c,9,38,127,
2,4110,Note_on_c,9,39,127,
2,4110,Note_on_c,9,41,127,
2,4110,Note_on_c,9,42,127,
2,4110,Note_on_c,9,43,127,
2,4110,Note_on_c,9,45,127,
2,4110,Note_on_c,9,48,127,
2,4110,Note_on_c,9,51,127,
2,4110,Note_on_c,9,53,127,
2,4110,Note_on_c,9,80,127,
2,4110,Note_on_c,9,81,127,
2,4110,Note_on_c,9,82,127,
2,4111,Note_off_c,9,36,0,
2,4112,Note_on_c,9,36,127,
2,4112,Note_on_c,9,37,127,
2,4112,Note_on_c,9,38,127,
2,4112,Note_on_c,9,39,127,
2,4112,Note_on_c,9,41,127,
2,4112,Note_on_c,9,42,127,
2,4112,Note_on_c,9,43,127,
2,4112,Note_on_c,9,45,127,
2,4112,Note_on_c,9,48,127,
2,4112,Note_on_c,9,51,127,
2,4112,Note_on_c,9,53,127,
2,4112,Note_on_c,9,80,127,
2,4112,Note_on_c,9,81,127,
2,4112,Note_on_c,9,82,127,
2,4113,Note_off_c,9,36,0,
2,4114,Note_on_c,9,36,127,
2,4114,Note_on_c,9,37,127,
2,4114,Note_on_c,9,38,127,
2,4114,Note_on_c,9,39,127,
2,4114,Note_on_c,9,41,127,
2,4114,Note_on_c,9,42,127,
2,4114,Note_on_c,9,43,127,
2,4114,Note_on_c,9,45,127,
2,4114,Note_on_c,9,48,127,
2,4114,Note_on_c,9,51,127,
2,4114,Note_on_c,9,53,127,
2,4114,Note_on_c,9,80,127,
2,4114,Note_on_c,9,81,127,
2,4114,Note_on_c,9,82,127,
2,4115,Note_off_c,9,36,0,
2,4116,Note_on_c,9,36,127,
2,4116,Note_on_c,9,37,127,
2,4116,Note_on_c,9,38,127,
2,4116,Note_on_c,9,39,127,
2,4116,Note_on_c,9,41,127,
2,4116,Note_on_c,9,42,127,
2,4116,Note_on_c,9,43,127,
2,4116,Note_on_c,9,45,127,
2,4116,Note_on_c,9,48,127,
2,4116,Note_on_c,9,51,127,
2,4116,Note_on_c,9,53,127,
2,4116,Note_on_c,9,80,127,
2,4116,Note_on_c,9,81,127,
2,4116,Note_on_c,9,82,127,
2,4117,Note_off_c,9,36,0,
2,4118,Note_on_c,9,36,127,
2,4118,Note_on_c,9,37,127,
2,4118,Note_on_c,9,38,127,
2,4118,Note_on_c,9,39,127,
2,4118,Note_on_c,9,41,127,
2,4118,Note_on_c,9,42,127,
2,4118,Note_on_c,9,43,127,
2,4118,Note_on_c,9,45,127,
2,4118,Note_on_c,9,48,127,
2,4118,Note_on_c,9,51,127,
2,4118,Note_on_c,9,53,127,
2,4118,Note_on_c,9,80,127,
2,4118,Note_on_c,9,81,127,
2,4118,Note_on_c,9,82,127,
2,4119,Note_off_c,9,36,0,
2,4120,Note_on_c,9,36,127,
2,4120,Note_on_c,9,37,127,
2,4120,Note_on_c,9,38,127,
2,4120,Note_on_c,9,39,127,
2,4120,Note_on_c,9,41,127,
2,4120,Note_on_c,9,42,127,
2,4120,Note_on_c,9,43,127,
2,4120,Note_on_c,9,45,127,
2,4120,Note_on_c,9,48,127,
2,4120,Note_on_c,9,51,127,
2,4120,Note_on_c,9,53,127,
2,4120,Note_on_c,9,80,127,
2,4120,Note_on_c,9,81,127,
2,4120,Note_on_c,9,82,127,
2,4121,Note_off_c,9,36,0,
2,4122,Note_on_c,9,36,127,
2,4122,Note_on_c,9,37,127,
2,4122,Note_on_c,9,38,127,
2,4122,Note_on_c,9,39,127,
2,4122,Note_on_c,9,41,127,
2,4122,Note_on_c,9,42,127,
2,4122,Note_on_c,9,43,127,
2,4122,Note_on_c,9,45,127,
2,4122,Note_on_c,9,48,127,
2,4122,Note_on_c,9,51,127,
2,4122,Note_on_c,9,53,127,
2,4122,Note_on_c,9,80,127,
2,4122,Note_on_c,9,81,127,
2,4122,Note_on_c,9,82,127,
2,4123,Note_off_c,9,36,0,
2,4124,Note_on_c,9,36,127,
2,4124,Note_on_c,9,37,127,
2,4124,Note_on_c,9,38,127,
2,4124,Note_on_c,9,39,127,
2,4124,Note_on_c,9,41,127,
2,4124,Note_on_c,9,42,127,
2,4124,Note_on_c,9,43,127,
2,4124,Note_on_c,9,45,127,
2,4124,Note_on_c,9,48,127,
2,4124,Note_on_c,9,51,127,
2,4124,Note_on_c,9,53,127,
2,4124,Note_on_c,9,80,127,
2,4124,Note_on_c,9,81,127,
2,4124,Note_on_c,9,82,127,
2,4125,Note_off_c,9,36,0,
2,4126,Note_on_c,9,36,127,
2,4126,Note_on_c,9,37,127,
2,4126,Note_on_c,9,38,127,
2,4126,Note_on_c,9,39,127,
2,4126,Note_on_c,9,41,127,
2,4126,Note_on_c,9,42,127,
2,4126,Note_on_c,9,43,127,
2,4126,Note_on_c,9,45,127,
2,4126,Note_on_c,9,48,127,
2,4126,Note_on_c,9,51,127,
2,4126,Note_on_c,9,53,127,
2,4126,Note_on_c,9,80,127,
2,4126,Note_on_c,9,81,127,
2,4126,Note_on_c,9,82,127,
2,4127,Note_off_c,9,36,0,
2,4128,Note_on_c,9,36,127,
2,4128,Note_on_c,9,37,127,
2,4128,Note_on_c,9,38,127,
2,4128,Note_on_c,9,39,127,
2,4128,Note_on_c,9,41,127,
2,4128,Note_on_c,9,42,127,
2,4128,Note_on_c,9,43,127,
2,4128,Note_on_c,9,45,127,
2,4128,Note_on_c,9,48,127,
2,4128,Note_on_c,9,51,127,
2,4128,Note_on_c,9,53,127,
2,4128,Note_on_c,9,80,127,
2,4128,Note_on_c,9,81,127,
2,4128,Note_on_c,9,82,127,
2,4129,Note_off_c,9,36,0,
2,4130,Note_on_c,9,36,127,
2,4130,Note_on_c,9,37,127,
2,4130,Note_on_c,9,38,127,
2,4130,Note_on_c,9,39,127,
2,4130,Note_on_c,9,41,127,
2,4130,Note_on_c,9,42,127,
2,4130,Note_on_c,9,43,127,
2,4130,Note_on_c,9,45,127,
2,4130,Note_on_c,9,48,127,
2,4130,Note_on_c,9,51,127,
2,4130,Note_on_c,9,53,127,
2,4130,Note_on_c,9,80,127,
2,4130,Note_on_c,9,81,127,
2,4130,Note_on_c,9,82,127,
2,4131,Note_off_c,9,36,0,
2,4132,Note_on_c,9,36,127,
2,4132,Note_on_c,9,37,127,
2,4132,Note_on_c,9,38,127,
2,4132,Note_on_c,9,39,127,
2,4132,Note_on_c,9,41,127,
2,4132,Note_on_c,9,42,127,
2,4132,Note_on_c,9,43,127,
2,4132,Note_on_c,9,45,127,
2,4132,Note_on_c,9,48,127,
2,4132,Note_on_c,9,51,127,
2,4132,Note_on_c,9,53,127,
2,4132,Note_on_c,9,80,127,
2,4132,Note_on_c,9,81,127,
2,4132,Note_on_c,9,82,127,
2,4133,Note_off_c,9,36,0,
2,4134,Note_on_c,9,36,127,
2,4134,Note_on_c,9,37,127,
2,4134,Note_on_c,9,38,127,
2,4134,Note_on_c,9,39,127,
2,4134,Note_on_c,9,41,127,
2,4134,Note_on_c,9,42,127,
2,4134,Note_on_c,9,43,127,
2,4134,Note_on_c,9,45,127,
2,4134,Note_on_c,9,48,127,
2,4134,Note_on_c,9,51,127,
2,4134,Note_on_c,9,53,127,
2,4134,Note_on_c,9,80,127,
2,4134,Note_on_c,9,81,127,
2,4134,Note_on_c,9,82,127,
2,4135,Note_off_c,9,36,0,
2,4136,Note_on_c,9,36,127,
2,4136,Note_on_c,9,37,127,
2,4136,Note_on_c,9,38,127,
2,4136,Note_on_c,9,39,127,
2,4136,Note_on_c,9,41,127,
2,4136,Note_on_c,9,42,127,
2,4136,Note_on_c,9,43,127,
2,4136,Note_on_c,9,45,127,
2,4136,Note_on_c,9,48,127,
2,4136,Note_on_c,9,51,127,
2,4136,Note_on_c,9,53,127,
2,4136,Note_on_c,9,80,127,
2,4136,Note_on_c,9,81,127,
2,4136,Note_on_c,9,82,127,
2,4137,Note_off_c,9,36,0,
2,4138,Note_on_c,9,36,127,
2,4138,Note_on_c,9,37,127,
2,4138,Note_on_c,9,38,127,
2,4138,Note_on_c,9,39,127,
2,4138,Note_on_c,9,41,127,
2,4138,Note_on_c,9,42,127,
2,4138,Note_on_c,9,43,127,
2,4138,Note_on_c,9,45,127,
2,4138,Note_on_c,9,48,127,
2,4138,Note_on_c,9,51,127,
2,4138,Note_on_c,9,53,127,
2,4138,Note_on_c,9,80,127,
2,4138,Note_on_c,9,81,127,
2,4138,Note_on_c,9,82,127,
2,4139,Note_off_c,9,36,0,
2,4140,Note_on_c,9,36,127,
2,4140,Note_on_c,9,37,127,
2,4140,Note_on_c,9,38,127,
2,4140,Note_on_c,9,39,127,
2,4140,Note_on_c,9,41,127,
2,4140,Note_on_c,9,42,127,
2,4140,Note_on_c,9,43,127,
2,4140,Note_on_c,9,45,127,
2,4140,Note_on_c,9,48,127,
2,4140,Note_on_c,9,51,127,
2,4140,Note_on_c,9,53,127,
2,4140,Note_on_c,9,80,127,
2,4140,Note_on_c,9,81,127,
2,4140,Note_on_c,9,82,127,
2,4141,Note_off_c,9,36,0,
2,4142,Note_on_c,9,36,127,
2,4142,Note_on_c,9,37,127,
2,4142,Note_on_c,9,38,127,
2,4142,Note_on_c,9,39,127,
2,4142,Note_on_c,9,41,127,
2,4142,Note_on_c,9,42,127,
2,4142,Note_on_c,9,43,127,
2,4142,Note_on_c,9,45,127,
2,4142,Note_on_c,9,48,127,
2,4142,Note_on_c,9,51,127,
2,4142,Note_on_c,9,53,127,
2,4142,Note_on_c,9,80,127,
2,4142,Note_on_c,9,81,127,
2,4142,Note_on_c,9,82,127,
2,4143,Note_off_c,9,36,0,
2,4144,Note_on_c,9,36,127,
2,4144,Note_on_c,9,37,127,
2,4144,Note_on_c,9,38,127,
2,4144,Note_on_c,9,39,127,
2,4144,Note_on_c,9,41,127,
2,4144,Note_on_c,9,42,127,
2,4144,Note_on_c,9,43,127,
2,4144,Note_on_c,9,45,127,
2,4144,Note_on_c,9,48,127,
2,4144,Note_on_c,9,51,127,
2,4144,Note_on_c,9,53,127,
2,4144,Note_on_c,9,80,127,
2,4144,Note_on_c,9,81,127,
2,4144,Note_on_c,9,82,127,
2,4145,Note_off_c,9,36,0,
2,4146,Note_on_c,9,36,127,
2,4146,Note_on_c,9,37,127,
2,4146,Note_on_c,9,38,127,
2,4146,Note_on_c,9,39,127,
2,4146,Note_on_c,9,41,127,
2,4146,Note_on_c,9,42,127,
2,4146,Note_on_c,9,43,127,
2,4146,Note_on_c,9,45,127,
2,4146,Note_on_c,9,48,127,
2,4146,Note_on_c,9,51,127,
2,4146,Note_on_c,9,53,127,
2,4146,Note_on_c,9,80,127,
2,4146,Note_on_c,9,81,127,
2,4146,Note_on_c,9,82,127,
2,4147,Note_off_c,9,36,0,
2,4148,Note_on_c,9,36,127,
2,4148,Note_on_c,9,37,127,
2,4148,Note_on_c,9,38,127,
2,4148,Note_on_c,9,39,127,
2,4148,Note_on_c,9,41,127,
2,4148,Note_on_c,9,42,127,
2,4148,Note_on_c,9,43,127,
2,4148,Note_on_c,9,45,127,
2,4148,Note_on_c,9,48,127,
2,4148,Note_on_c,9,51,127,
2,4148,Note_on_c,9,53,127,
2,4148,Note_on_c,9,80,127,
2,4148,Note_on_c,9,81,127,
2,4148,Note_on_c,9,82,127,
2,4149,Note_off_c,9,36,0,
2,4150,Note_on_c,9,36,127,
2,4150,Note_on_c,9,37,127,
2,4150,Note_on_c,9,38,127,
2,4150,Note_on_c,9,39,127,
2,4150,Note_on_c,9,41,127,
2,4150,Note_on_c,9,42,127,
2,4150,Note_on_c,9,43,127,
2,4150,Note_on_c,9,45,127,
2,4150,Note_on_c,9,48,127,
2,4150,Note_on_c,9,51,127,
2,4150,Note_on_c,9,53,127,
2,4150,Note_on_c,9,80,127,
2,4150,Note_on_c,9,81,127,
2,4150,Note_on_c,9,82,127,
2,4151,Note_off_c,9,36,0,
2,4152,Note_on_c,9,36,127,
2,4152,Note_on_c,9,37,127,
2,4152,Note_on_c,9,38,127,
2,4152,Note_on_c,9,39,127,
2,4152,Note_on_c,9,41,127,
2,4152,Note_on_c,9,42,127,
2,4152,Note_on_c,9,43,127,
2,4152,Note_on_c,9,45,127,
2,4152,Note_on_c,9,48,127,
2,4152,Note_on_c,9,51,127,
2,4152,Note_on_c,9,53,127,
2,4152,Note_on_c,9,80,127,
2,4152,Note_on_c,9,81,127,
2,4152,Note_on_c,9,82,127,
2,4153,Note_off_c,9,36,0,
2,4154,Note_on_c,9,36,127,
2,4154,Note_on_c,9,37,127,
2,4154,Note_on_c,9,38,127,
2,4154,Note_on_c,9,39,127,
2,4154,Note_on_c,9,41,127,
2,4154,Note_on_c,9,42,127,
2,4154,Note_on_c,9,43,127,
2,4154,Note_on_c,9,45,127,
2,4154,Note_on_c,9,48,127,
2,4154,Note_on_c,9,51,127,
2,4154,Note_on_c,9,53,127,
2,4154,Note_on_c,9,80,127,
2,4154,Note_on_c,9,81,127,
2,4154,Note_on_c,9,82,127,
2,4155,Note_off_c,9,36,0,
2,4156,Note_on_c,9,36,127,
2,4156,Note_on_c,9,37,127,
2,4156,Note_on_c,9,38,127,
2,4156,Note_on_c,9,39,127,
2,4156,Note_on_c,9,41,127,
2,4156,Note_on_c,9,42,127,
2,4156,Note_on_c,9,43,127,
2,4156,Note_on_c,9,45,127,
2,4156,Note_on_c,9,48,127,
2,4156,Note_on_c,9,51,127,
2,4156,Note_on_c,9,53,127,
2,4156,Note_on_c,9,80,127,
2,4156,Note_on_c,9,81,127,
2,4156,Note_on_c,9,82,127,
2,4157,Note_off_c,9,36,0,
2,4158,Note_on_c,9,36,127,
2,4158,Note_on_c,9,37,127,
2,4158,Note_on_c,9,38,127,
2,4158,Note_on_c,9,39,127,
2,4158,Note_on_c,9,41,127,
2,4158,Note_on_c,9,42,127,
2,4158,Note_on_c,9,43,127,
2,4158,Note_on_c,9,45,127,
2,4158,Note_on_c,9,48,127,
2,4158,Note_on_c,9,51,127,
2,4158,Note_on_c,9,53,127,
2,4158,Note_on_c,9,80,127,
2,4158,Note_on_c,9,81,127,
2,4158,Note_on_c,9,82,127,
2,4159,Note_off_c,9,36,0,
2,4160,Note_on_c,9,36,127,
2,4160,Note_on_c,9,37,127,
2,4160,Note_on_c,9,38,127,
2,4160,Note_on_c,9,39,127,
2,4160,Note_on_c,9,41,127,
2,4160,Note_on_c,9,42,127,
2,4160,Note_on_c,9,43,127,
2,4160,Note_on_c,9,45,127,
2,4160,Note_on_c,9,48,127,
2,4160,Note_on_c,9,51,127,
2,4160,Note_on_c,9,53,127,
2,4160,Note_on_c,9,80,127,
2,4160,Note_on_c,9,81,127,
2,4160,Note_on_c,9,82,127,
2,4161,Note_off_c,9,36,0,
2,4162,Note_on_c,9,36,127,
2,4162,Note_on_c,9,37,127,
2,4162,Note_on_c,9,38,127,
2,4162,Note_on_c,9,39,127,
2,4162,Note_on_c,9,41,127,
2,4162,Note_on_c,9,42,127,
2,4162,Note_on_c,9,43,127,
2,4162,Note_on_c,9,45,127,
2,4162,Note_on_c,9,48,127,
2,4162,Note_on_c,9,51,127,
2,4162,Note_on_c,9,53,127,
2,4162,Note_on_c,9,80,127,
2,4162,Note_on_c,9,81,127,
2,4162,Note_on_c,9,82,127,
2,4163,Note_off_c,9,36,0,
2,4164,Note_on_c,9,36,127,
2,4164,Note_on_c,9,37,127,
2,4164,Note_on_c,9,38,127,
2,4164,Note_on_c,9,39,127,
2,4164,Note_on_c,9,41,127,
2,4164,Note_on_c,9,42,127,
2,4164,Note_on_c,9,43,127,
2,4164,Note_on_c,9,45,127,
2,4164,Note_on_c,9,48,127,
2,4164,Note_on_c,9,51,127,
2,4164,Note_on_c,9,53,127,
2,4164,Note_on_c,9,80,127,
2,4164,Note_on_c,9,81,127,
2,4164,Note_on_c,9,82,127,
2,4165,Note_off_c,9,36,0,
2,4166,Note_on_c,9,36,127,
2,4166,Note_on_c,9,37,127,
2,4166,Note_on_c,9,38,127,
2,4166,Note_on_c,9,39,127,
2,4166,Note_on_c,9,41,127,
2,4166,Note_on_c,9,42,127,
2,4166,Note_on_c,9,43,127,
2,4166,Note_on_c,9,45,127,
2,4166,Note_on_c,9,48,127,
2,4166,Note_on_c,9,51,127,
2,4166,Note_on_c,9,53,127,
2,4166,Note_on_c,9,80,127,
2,4166,Note_on_c,9,81,127,
2,4166,Note_on_c,9,82,127,
2,4167,Note_off_c,9,36,0,
2,4168,Note_on_c,9,36,127,
2,4168,Note_on_c,9,37,127,
2,4168,Note_on_c,9,38,127,
2,4168,Note_on_c,9,39,127,
2,4168,Note_on_c,9,41,127,
2,4168,Note_on_c,9,42,127,
2,4168,Note_on_c,9,43,127,
2,4168,Note_on_c,9,45,127,
2,4168,Note_on_c,9,48,127,
2,4168,Note_on_c,9,51,127,
2,4168,Note_on_c,9,53,127,
2,4168,Note_on_c,9,80,127,
2,4168,Note_on_c,9,81,127,
2,4168,Note_on_c,9,82,127,
2,4169,Note_off_c,9,36,0,
2,4170,Note_on_c,9,36,127,
2,4170,Note_on_c,9,37,127,
2,4170,Note_on_c,9,38,127,
2,4170,Note_on_c,9,39,127,
2,4170,Note_on_c,9,41,127,
2,4170,Note_on_c,9,42,127,
2,4170,Note_on_c,9,43,127,
2,4170,Note_on_c,9,45,127,
2,4170,Note_on_c,9,48,127,
2,4170,Note_on_c,9,51,127,
2,4170,Note_on_c,9,53,127,
2,4170,Note_on_c,9,80,127,
2,4170,Note_on_c,9,81,127,
2,4170,Note_on_c,9,82,127,
2,4171,Note_off_c,9,36,0,
2,4172,Note_on_c,9,36,127,
2,4172,Note_on_c,9,37,127,
2,4172,Note_on_c,9,38,127,
2,4172,Note_on_c,9,39,127,
2,4172,Note_on_c,9,41,127,
2,4172,Note_on_c,9,42,127,
2,4172,Note_on_c,9,43,127,
2,4172,Note_on_c,9,45,127,
2,4172,Note_on_c,9,48,127,
2,4172,Note_on_c,9,51,127,
2,4172,Note_on_c,9,53,127,
2,4172,Note_on_c,9,80,127,
2,4172,Note_on_c,9,81,127,
2,4172,Note_on_c,9,82,127,
2,4173,Note_off_c,9,36,0,
2,4174,Note_on_c,9,36,127,
2,4174,Note_on_c,9,37,127,
2,4174,Note_on_c,9,38,127,
2,4174,Note_on_c,9,39,127,
2,4174,Note_on_c,9,41,127,
2,4174,Note_on_c,9,42,127,
2,4174,Note_on_c,9,43,127,
2,4174,Note_on_c,9,45,127,
2,4174,Note_on_c,9,48,127,
2,4174,Note_on_c,9,51,127,
2,4174,Note_on_c,9,53,127,
2,4174,Note_on_c,9,80,127,
2,4174,Note_on_c,9,81,127,
2,4174,Note_on_c,9,82,127,
2,4175,Note_off_c,9,36,0,
2,4176,Note_on_c,9,36,127,
2,4176,Note_on_c,9,37,127,
2,4176,Note_on_c,9,38,127,
2,4176,Note_on_c,9,39,127,
2,4176,Note_on_c,9,41,127,
2,4176,Note_on_c,9,42,127,
2,4176,Note_on_c,9,43,127,
2,4176,Note_on_c,9,45,127,
2,4176,Note_on_c,9,48,127,
2,4176,Note_on_c,9,51,127,
2,4176,Note_on_c,9,53,127,
2,4176,Note_on_c,9,80,127,
2,4176,Note_on_c,9,81,127,
2,4176,Note_on_c,9,82,127,
2,4177,Note_off_c,9,36,0,
2,4178,Note_on_c,9,36,127,
2,4178,Note_on_c,9,37,127,
2,4178,Note_on_c,9,38,127,
2,4178,Note_on_c,9,39,127,
2,4178,Note_on_c,9,41,127,
2,4178,Note_on_c,9,42,127,
2,4178,Note_on_c,9,43,127,
2,4178,Note_on_c,9,45,127,
2,4178,Note_on_c,9,48,127,
2,4178,Note_on_c,9,51,127,
2,4178,Note_on_c,9,53,127,
2,4178,Note_on_c,9,80,127,
2,4178,Note_on_c,9,81,127,
2,4178,Note_on_c,9,82,127,
2,4179,Note_off_c,9,36,0,
2,4180,Note_on_c,9,36,127,
2,4180,Note_on_c,9,37,127,
2,4180,Note_on_c,9,38,127,
2,4180,Note_on_c,9,39,127,
2,4180,Note_on_c,9,41,127,
2,4180,Note_on_c,9,42,127,
2,4180,Note_on_c,9,43,127,
2,4180,Note_on_c,9,45,127,
2,4180,Note_on_c,9,48,127,
2,4180,Note_on_c,9,51,127,
2,4180,Note_on_c,9,53,127,
2,4180,Note_on_c,9,80,127,
2,4180,Note_on_c,9,81,127,
2,4180,Note_on_c,9,82,127,
2,4181,Note_off_c,9,36,0,
2,4182,Note_on_c,9,36,127,
2,4182,Note_on_c,9,37,127,
2,4182,Note_on_c,9,38,127,
2,4182,Note_on_c,9,39,127,
2,4182,Note_on_c,9,41,127,
2,4182,Note_on_c,9,42,127,
2,4182,Note_on_c,9,43,127,
2,4182,Note_on_c,9,45,127,
2,4182,Note_on_c,9,48,127,
2,4182,Note_on_c,9,51,127,
2,4182,Note_on_c,9,53,127,
2,4182,Note_on_c,9,80,127,
2,4182,Note_on_c,9,81,127,
2,4182,Note_on_c,9,82,127,
2,4183,Note_off_c,9,36,0,
2,4184,Note_on_c,9,36,127,
2,4184,Note_on_c,9,37,127,
2,4184,Note_on_c,9,38,127,
2,4184,Note_on_c,9,39,127,
2,4184,Note_on_c,9,41,127,
2,4184,Note_on_c,9,42,127,
2,4184,Note_on_c,9,43,127,
2,4184,Note_on_c,9,45,127,
2,4184,Note_on_c,9,48,127,
2,4184,Note_on_c,9,51,127,
2,4184,Note_on_c,9,53,127,
2,4184,Note_on_c,9,80,127,
2,4184,Note_on_c,9,81,127,
2,4184,Note_on_c,9,82,127,
2,4185,Note_off_c,9,36,0,
2,4186,Note_on_c,9,36,127,
2,4186,Note_on_c,9,37,127,
2,4186,Note_on_c,9,38,127,
2,4186,Note_on_c,9,39,127,
2,4186,Note_on_c,9,41,127,
2,4186,Note_on_c,9,42,127,
2,4186,Note_on_c,9,43,127,
2,4186,Note_on_c,9,45,127,
2,4186,Note_on_c,9,48,127,
2,4186,Note_on_c,9,51,127,
2,4186,Note_on_c,9,53,127,
2,4186,Note_on_c,9,80,127,
2,4186,Note_on_c,9,81,127,
2,4186,Note_on_c,9,82,127,
2,4187,Note_off_c,9,36,0,
2,4188,Note_on_c,9,36,127,
2,4188,Note_on_c,9,37,127,
2,4188,Note_on_c,9,38,127,
2,4188,Note_on_c,9,39,127,
2,4188,Note_on_c,9,41,127,
2,4188,Note_on_c,9,42,127,
2,4188,Note_on_c,9,43,127,
2,4188,Note_on_c,9,45,127,
2,4188,Note_on_c,9,48,127,
2,4188,Note_on_c,9,51,127,
2,4188,Note_on_c,9,53,127,
2,4188,Note_on_c,9,80,127,
2,4188,Note_on_c,9,81,127,
2,4188,Note_on_c,9,82,127,
2,4189,Note_off_c,9,36,0,
2,4190,Note_on_c,9,36,127,
2,4190,Note_on_c,9,37,127,
2,4190,Note_on_c,9,38,127,
2,4190,Note_on_c,9,39,127,
2,4190,Note_on_c,9,41,127,
2,4190,Note_on_c,9,42,127,
2,4190,Note_on_c,9,43,127,
2,4190,Note_on_c,9,45,127,
2,4190,Note_on_c,9,48,127,
2,4190,Note_on_c,9,51,127,
2,4190,Note_on_c,9,53,127,
2,4190,Note_on_c,9,80,127,
2,4190,Note_on_c,9,81,127,
2,4190,Note_on_c,9,82,127,
2,4191,Note_off_c,9,36,0,
2,4192,Note_on_c,9,36,127,
2,4192,Note_on_c,9,37,127,
2,4192,Note_on_c,9,38,127,
2,4192,Note_on_c,9,39,127,
2,4192,Note_on_c,9,41,127,
2,4192,Note_on_c,9,42,127,
2,4192,Note_on_c,9,43,127,
2,4192,Note_on_c,9,45,127,
2,4192,Note_on_c,9,48,127,
2,4192,Note_on_c,9,51,127,
2,4192,Note_on_c,9,53,127,
2,4192,Note_on_c,9,80,127,
2,4192,Note_on_c,9,81,127,
2,4192,Note_on_c,9,82,127,
2,4193,Note_off_c,9,36,0,
2,4194,Note_on_c,9,36,127,
2,4194,Note_on_c,9,37,127,
2,4194,Note_on_c,9,38,127,
2,4194,Note_on_c,9,39,127,
2,4194,Note_on_c,9,41,127,
2,4194,Note_on_c,9,42,127,
2,4194,Note_on_c,9,43,127,
2,4194,Note_on_c,9,45,127,
2,4194,Note_on_c,9,48,127,
2,4194,Note_on_c,9,51,127,
2,4194,Note_on_c,9,53,127,
2,4194,Note_on_c,9,80,127,
2,4194,Note_on_c,9,81,127,
2,4194,Note_on_c,9,82,127,
2,4195,Note_off_c,9,36,0,
2,4196,Note_on_c,9,36,127,
2,4196,Note_on_c,9,37,127,
2,4196,Note_on_c,9,38,127,
2,4196,Note_on_c,9,39,127,
2,4196,Note_on_c,9,41,127,
2,4196,Note_on_c,9,42,127,
2,4196,Note_on_c,9,43,127,
2,4196,Note_on_c,9,45,127,
2,4196,Note_on_c,9,48,127,
2,4196,Note_on_c,9,51,127,
2,4196,Note_on_c,9,53,127,
2,4196,Note_on_c,9,80,127,
2,4196,Note_on_c,9,81,127,
2,4196,Note_on_c,9,82,127,
2,4197,Note_off_c,9,36,0,
2,4198,Note_on_c,9,36,127,
2,4198,Note_on_c,9,37,127,
2,4198,Note_on_c,9,38,127,
2,4198,Note_on_c,9,39,127,
2,4198,Note_on_c,9,41,127,
2,4198,Note_on_c,9,42,127,
2,4198,Note_on_c,9,43,127,
2,4198,Note_on_c,9,45,127,
2,4198,Note_on_c,9,48,127,
2,4198,Note_on_c,9,51,127,
2,4198,Note_on_c,9,53,127,
2,4198,Note_on_c,9,80,127,
2,4198,Note_on_c,9,81,127,
2,4198,Note_on_c,9,82,127,
2,4199,Note_off_c,9,36,0,
2,4200,Note_on_c,9,36,127,
2,4200,Note_on_c,9,37,127,
2,4200,Note_on_c,9,38,127,
2,4200,Note_on_c,9,39,127,
2,4200,Note_on_c,9,41,127,
2,4200,Note_on_c,9,42,127,
2,4200,Note_on_c,9,43,127,
2,4200,Note_on_c,9,45,127,
2,4200,Note_on_c,9,48,127,
2,4200,Note_on_c,9,51,127,
2,4200,Note_on_c,9,53,127,
2,4200,Note_on_c,9,80,127,
2,4200,Note_on_c,9,81,127,
2,4200,Note_on_c,9,82,127,
2,4201,Note_off_c,9,36,0,
2,4202,Note_on_c,9,36,127,
2,4202,Note_on_c,9,37,127,
2,4202,Note_on_c,9,38,127,
2,4202,Note_on_c,9,39,127,
2,4202,Note_on_c,9,41,127,
2,4202,Note_on_c,9,42,127,
2,4202,Note_on_c,9,43,127,
2,4202,Note_on_c,9,45,127,
2,4202,Note_on_c,9,48,127,
2,4202,Note_on_c,9,51,127,
2,4202,Note_on_c,9,53,127,
2,4202,Note_on_c,9,80,127,
2,4202,Note_on_c,9,81,127,
2,4202,Note_on_c,9,82,127,
2,4203,Note_off_c,9,36,0,
2,4204,Note_on_c,9,36,127,
2,4204,Note_on_c,9,37,127,
2,4204,Note_on_c,9,38,127,
2,4204,Note_on_c,9,39,127,
2,4204,Note_on_c,9,41,127,
2,4204,Note_on_c,9,42,127,
2,4204,Note_on_c,9,43,127,
2,4204,Note_on_c,9,45,127,
2,4204,Note_on_c,9,48,127,
2,4204,Note_on_c,9,51,127,
2,4204,Note_on_c,9,53,127,
2,4204,Note_on_c,9,80,127,
2,4204,Note_on_c,9,81,127,
2,4204,Note_on_c,9,82,127,
2,4205,Note_off_c,9,36,0,
2,4206,Note_on_c,9,36,127,
2,4206,Note_on_c,9,37,127,
2,4206,Note_on_c,9,38,127,
2,4206,Note_on_c,9,39,127,
2,4206,Note_on_c,9,41,127,
2,4206,Note_on_c,9,42,127,
2,4206,Note_on_c,9,43,127,
2,4206,Note_on_c,9,45,127,
2,4206,Note_on_c,9,48,127,
2,4206,Note_on_c,9,51,127,
2,4206,Note_on_c,9,53,127,
2,4206,Note_on_c,9,80,127,
2,4206,Note_on_c,9,81,127,
2,4206,Note_on_c,9,82,127,
2,4207,Note_off_c,9,36,0,
2,4208,Note_on_c,9,36,127,
2,4208,Note_on_c,9,37,127,
2,4208,Note_on_c,9,38,127,
2,4208,Note_on_c,9,39,127,
2,4208,Note_on_c,9,41,127,
2,4208,Note_on_c,9,42,127,
2,4208,Note_on_c,9,43,127,
2,4208,Note_on_c,9,45,127,
2,4208,Note_on_c,9,48,127,
2,4208,Note_on_c,9,51,127,
2,4208,Note_on_c,9,53,127,
2,4208,Note_on_c,9,80,127,
2,4208,Note_on_c,9,81,127,
2,4208,Note_on_c,9,82,127,
2,4209,Note_off_c,9,36,0,
2,4210,Note_on_c,9,36,127,
2,4210,Note_on_c,9,37,127,
2,4210,Note_on_c,9,38,127,
2,4210,Note_on_c,9,39,127,
2,4210,Note_on_c,9,41,127,
2,4210,Note_on_c,9,42,127,
2,4210,Note_on_c,9,43,127,
2,4210,Note_on_c,9,45,127,
2,4210,Note_on_c,9,48,127,
2,4210,Note_on_c,9,51,127,
2,4210,Note_on_c,9,53,127,
2,4210,Note_on_c,9,80,127,
2,4210,Note_on_c,9,81,127,
2,4210,Note_on_c,9,82,127,
2,4211,Note_off_c,9,36,0,
2,4212,Note_on_c,9,36,127,
2,4212,Note_on_c,9,37,127,
2,4212,Note_on_c,9,38,127,
2,4212,Note_on_c,9,39,127,
2,4212,Note_on_c,9,41,127,
2,4212,Note_on_c,9,42,127,
2,4212,Note_on_c,9,43,127,
2,4212,Note_on_c,9,45,127,
2,4212,Note_on_c,9,48,127,
2,4212,Note_on_c,9,51,127,
2,4212,Note_on_c,9,53,127,
2,4212,Note_on_c,9,80,127,
2,4212,Note_on_c,9,81,127,
2,4212,Note_on_c,9,82,127,
2,4213,Note_off_c,9,36,0,
2,4214,Note_on_c,9,36,127,
2,4214,Note_on_c,9,37,127,
2,4214,Note_on_c,9,38,127,
2,4214,Note_on_c,9,39,127,
2,4214,Note_on_c,9,41,127,
2,4214,Note_on_c,9,42,127,
2,4214,Note_on_c,9,43,127,
2,4214,Note_on_c,9,45,127,
2,4214,Note_on_c,9,48,127,
2,4214,Note_on_c,9,51,127,
2,4214,Note_on_c,9,53,127,
2,4214,Note_on_c,9,80,127,
2,4214,Note_on_c,9,81,127,
2,4214,Note_on_c,9,82,127,
2,4215,Note_off_c,9,36,0,
2,4216,Note_on_c,9,36,127,
2,4216,Note_on_c,9,37,127,
2,4216,Note_on_c,9,38,127,
2,4216,Note_on_c,9,39,127,
2,4216,Note_on_c,9,41,127,
2,4216,Note_on_c,9,42,127,
2,4216,Note_on_c,9,43,127,
2,4216,Note_on_c,9,45,127,
2,4216,Note_on_c,9,48,127,
2,4216,Note_on_c,9,51,127,
2,4216,Note_on_c,9,53,127,
2,4216,Note_on_c,9,80,127,
2,4216,Note_on_c,9,81,127,
2,4216,Note_on_c,9,82,127,
2,4217,Note_off_c,9,36,0,
2,4218,Note_on_c,9,36,127,
2,4218,Note_on_c,9,37,127,
2,4218,Note_on_c,9,38,127,
2,4218,Note_on_c,9,39,127,
2,4218,Note_on_c,9,41,127,
2,4218,Note_on_c,9,42,127,
2,4218,Note_on_c,9,43,127,
2,4218,Note_on_c,9,45,127,
2,4218,Note_on_c,9,48,127,
2,4218,Note_on_c,9,51,127,
2,4218,Note_on_c,9,53,127,
2,4218,Note_on_c,9,80,127,
2,4218,Note_on_c,9,81,127,
2,4218,Note_on_c,9,82,127,
2,4219,Note_off_c,9,36,0,
2,4220,Note_on_c,9,36,127,
2,4220,Note_on_c,9,37,127,
2,4220,Note_on_c,9,38,127,
2,4220,Note_on_c,9,39,127,
2,4220,Note_on_c,9,41,127,
2,4220,Note_on_c,9,42,127,
2,4220,Note_on_c,9,43,127,
2,4220,Note_on_c,9,45,127,
2,4220,Note_on_c,9,48,127,
2,4220,Note_on_c,9,51,127,
2,4220,Note_on_c,9,53,127,
2,4220,Note_on_c,9,80,127,
2,4220,Note_on_c,9,81,127,
2,4220,Note_on_c,9,82,127,
2,4221,Note_off_c,9,36,0,
2,4222,Note_on_c,9,36,127,
2,4222,Note_on_c,9,37,127,
2,4222,Note_on_c,9,38,127,
2,4222,Note_on_c,9,39,127,
2,4222,Note_on_c,9,41,127,
2,4222,Note_on_c,9,42,127,
2,4222,Note_on_c,9,43,127,
2,4222,Note_on_c,9,45,127,
2,4222,Note_on_c,9,48,127,
2,4222,Note_on_c,9,51,127,
2,4222,Note_on_c,9,53,127,
2,4222,Note_on_c,9,80,127,
2,4222,Note_on_c,9,81,127,
2,4222,Note_on_c,9,82,127,
2,4223,Note_off_c,9,36,0,
2,4224,Note_on_c,9,36,127,
2,4224,Note_on_c,9,37,127,
2,4224,Note_on_c,9,38,127,
2,4224,Note_on_c,9,39,127,
2,4224,Note_on_c,9,41,127,
2,4224,Note_on_c,9,42,127,
2,4224,Note_on_c,9,43,127,
2,4224,Note_on_c,9,45,127,
2,4224,Note_on_c,9,48,127,
2,4224,Note_on_c,9,51,127,
2,4224,Note_on_c,9,53,127,
2,4224,Note_on_c,9,80,127,
2,4224,Note_on_c,9,81,127,
2,4224,Note_on_c,9,82,127,
2,4225,Note_off_c,9,36,0,
2,4226,Note_on_c,9,36,127,
2,4226,Note_on_c,9,37,127,
2,4226,Note_on_c,9,38,127,
2,4226,Note_on_c,9,39,127,
2,4226,Note_on_c,9,41,127,
2,4226,Note_on_c,9,42,127,
2,4226,Note_on_c,9,43,127,
2,4226,Note_on_c,9,45,127,
2,4226,Note_on_c,9,48,127,
2,4226,Note_on_c,9,51,127,
2,4226,Note_on_c,9,53,127,
2,4226,Note_on_c,9,80,127,
2,4226,Note_on_c,9,81,127,
2,4226,Note_on_c,9,82,127,
2,4227,Note_off_c,9,36,0,
2,4228,Note_on_c,9,36,127,
2,4228,Note_on_c,9,37,127,
2,4228,Note_on_c,9,38,127,
2,4228,Note_on_c,9,39,127,
2,4228,Note_on_c,9,41,127,
2,4228,Note_on_c,9,42,127,
2,4228,Note_on_c,9,43,127,
2,4228,Note_on_c,9,45,127,
2,4228,Note_on_c,9,48,127,
2,4228,Note_on_c,9,51,127,
2,4228,Note_on_c,9,53,127,
2,4228,Note_on_c,9,80,127,
2,4228,Note_on_c,9,81,127,
2,4228,Note_on_c,9,82,127,
2,4229,Note_off_c,9,36,0,
2,4230,Note_on_c,9,36,127,
2,4230,Note_on_c,9,37,127,
2,4230,Note_on_c,9,38,127,
2,4230,Note_on_c,9,39,127,
2,4230,Note_on_c,9,41,127,
2,4230,Note_on_c,9,42,127,
2,4230,Note_on_c,9,43,127,
2,4230,Note_on_c,9,45,127,
2,4230,Note_on_c,9,48,127,
2,4230,Note_on_c,9,51,127,
2,4230,Note_on_c,9,53,127,
2,4230,Note_on_c,9,80,127,
2,4230,Note_on_c,9,81,127,
2,4230,Note_on_c,9,82,127,
2,4231,Note_off_c,9,36,0,
2,4232,Note_on_c,9,36,127,
2,4232,Note_on_c,9,37,127,
2,4232,Note_on_c,9,38,127,
2,4232,Note_on_c,9,39,127,
2,4232,Note_on_c,9,41,127,
2,4232,Note_on_c,9,42,127,
2,4232,Note_on_c,9,43,127,
2,4232,Note_on_c,9,45,127,
2,4232,Note_on_c,9,48,127,
2,4232,Note_on_c,9,51,127,
2,4232,Note_on_c,9,53,127,
2,4232,Note_on_c,9,80,127,
2,4232,Note_on_c,9,81,127,
2,4232,Note_on_c,9,82,127,
2,4233,Note_off_c,9,36,0,
2,4234,Note_on_c,9,36,127,
2,4234,Note_on_c,9,37,127,
2,4234,Note_on_c,9,38,127,
2,4234,Note_on_c,9,39,127,
2,4234,Note_on_c,9,41,127,
2,4234,Note_on_c,9,42,127,
2,4234,Note_on_c,9,43,127,
2,4234,Note_on_c,9,45,127,
2,4234,Note_on_c,9,48,127,
2,4234,Note_on_c,9,51,127,
2,4234,Note_on_c,9,53,127,
2,4234,Note_on_c,9,80,127,
2,4234,Note_on_c,9,81,127,
2,4234,Note_on_c,9,82,127,
2,4235,Note_off_c,9,36,0,
2,4236,Note_on_c,9,36,127,
2,4236,Note_on_c,9,37,127,
2,4236,Note_on_c,9,38,127,
2,4236,Note_on_c,9,39,127,
2,4236,Note_on_c,9,41,127,
2,4236,Note_on_c,9,42,127,
2,4236,Note_on_c,9,43,127,
2,4236,Note_on_c,9,45,127,
2,4236,Note_on_c,9,48,127,
2,4236,Note_on_c,9,51,127,
2,4236,Note_on_c,9,53,127,
2,4236,Note_on_c,9,80,127,
2,4236,Note_on_c,9,81,127,
2,4236,Note_on_c,9,82,127,
2,4237,Note_off_c,9,36,0,
2,4238,Note_on_c,9,36,127,
2,4238,Note_on_c,9,37,127,
2,4238,Note_on_c,9,38,127,
2,4238,Note_on_c,9,39,127,
2,4238,Note_on_c,9,41,127,
2,4238,Note_on_c,9,42,127,
2,4238,Note_on_c,9,43,127,
2,4238,Note_on_c,9,45,127,
2,4238,Note_on_c,9,48,127,
2,4238,Note_on_c,9,51,127,
2,4238,Note_on_c,9,53,127,
2,4238,Note_on_c,9,80,127,
2,4238,Note_on_c,9,81,127,
2,4238,Note_on_c,9,82,127,
2,4239,Note_off_c,9,36,0,
2,4240,Note_on_c,9,36,127,
2,4240,Note_on_c,9,37,127,
2,4240,Note_on_c,9,38,127,
2,4240,Note_on_c,9,39,127,
2,4240,Note_on_c,9,41,127,
2,4240,Note_on_c,9,42,127,
2,4240,Note_on_c,9,43,127,
2,4240,Note_on_c,9,45,127,
2,4240,Note_on_c,9,48,127,
2,4240,Note_on_c,9,51,127,
2,4240,Note_on_c,9,53,127,
2,4240,Note_on_c,9,80,127,
2,4240,Note_on_c,9,81,127,
2,4240,Note_on_c,9,82,127,
2,4241,Note_off_c,9,36,0,
2,4242,Note_on_c,9,36,127,
2,4242,Note_on_c,9,37,127,
2,4242,Note_on_c,9,38,127,
2,4242,Note_on_c,9,39,127,
2,4242,Note_on_c,9,41,127,
2,4242,Note_on_c,9,42,127,
2,4242,Note_on_c,9,43,127,
2,4242,Note_on_c,9,45,127,
2,4242,Note_on_c,9,48,127,
2,4242,Note_on_c,9,51,127,
2,4242,Note_on_c,9,53,127,
2,4242,Note_on_c,9,80,127,
2,4242,Note_on_c,9,81,127,
2,4242,Note_on_c,9,82,127,
2,4243,Note_off_c,9,36,0,
2,4244,Note_on_c,9,36,127,
2,4244,Note_on_c,9,37,127,
2,4244,Note_on_c,9,38,127,
2,4244,Note_on_c,9,39,127,
2,4244,Note_on_c,9,41,127,
2,4244,Note_on_c,9,42,127,
2,4244,Note_on_c,9,43,127,
2,4244,Note_on_c,9,45,127,
2,4244,Note_on_c,9,48,127,
2,4244,Note_on_c,9,51,127,
2,4244,Note_on_c,9,53,127,
2,4244,Note_on_c,9,80,127,
2,4244,Note_on_c,9,81,127,
2,4244,Note_on_c,9,82,127,
2,4245,Note_off_c,9,36,0,
2,4246,Note_on_c,9,36,127,
2,4246,Note_on_c,9,37,127,
2,4246,Note_on_c,9,38,127,
2,4246,Note_on_c,9,39,127,
2,4246,Note_on_c,9,41,127,
2,4246,Note_on_c,9,42,127,
2,4246,Note_on_c,9,43,127,
2,4246,Note_on_c,9,45,127,
2,4246,Note_on_c,9,48,127,
2,4246,Note_on_c,9,51,127,
2,4246,Note_on_c,9,53,127,
2,4246,Note_on_c,9,80,127,
2,4246,Note_on_c,9,81,127,
2,4246,Note_on_c,9,82,127,
2,4247,Note_off_c,9,36,0,
2,4248,Note_on_c,9,36,127,
2,4248,Note_on_c,9,37,127,
2,4248,Note_on_c,9,38,127,
2,4248,Note_on_c,9,39,127,
2,4248,Note_on_c,9,41,127,
2,4248,Note_on_c,9,42,127,
2,4248,Note_on_c,9,43,127,
2,4248,Note_on_c,9,45,127,
2,4248,Note_on_c,9,48,127,
2,4248,Note_on_c,9,51,127,
2,4248,Note_on_c,9,53,127,
2,4248,Note_on_c,9,80,127,
2,4248,Note_on_c,9,81,127,
2,4248,Note_on_c,9,82,127,
2,4249,Note_off_c,9,36,0,
2,4250,Note_on_c,9,36,127,
2,4250,Note_on_c,9,37,127,
2,4250,Note_on_c,9,38,127,
2,4250,Note_on_c,9,39,127,
2,4250,Note_on_c,9,41,127,
2,4250,Note_on_c,9,42,127,
2,4250,Note_on_c,9,43,127,
2,4250,Note_on_c,9,45,127,
2,4250,Note_on_c,9,48,127,
2,4250,Note_on_c,9,51,127,
2,4250,Note_on_c,9,53,127,
2,4250,Note_on_c,9,80,127,
2,4250,Note_on_c,9,81,127,
2,4250,Note_on_c,9,82,127,
2,4251,Note_off_c,9,36,0,
2,4252,Note_on_c,9,36,127,
2,4252,Note_on_c,9,37,127,
2,4252,Note_on_c,9,38,127,
2,4252,Note_on_c,9,39,127,
2,4252,Note_on_c,9,41,127,
2,4252,Note_on_c,9,42,127,
2,4252,Note_on_c,9,43,127,
2,4252,Note_on_c,9,45,127,
2,4252,Note_on_c,9,48,127,
2,4252,Note_on_c,9,51,127,
2,4252,Note_on_c,9,53,127,
2,4252,Note_on_c,9,80,127,
2,4252,Note_on_c,9,81,127,
2,4252,Note_on_c,9,82,127,
2,4253,Note_off_c,9,36,0,
2,4254,Note_on_c,9,36,127,
2,4254,Note_on_c,9,37,127,
2,4254,Note_on_c,9,38,127,
2,4254,Note_on_c,9,39,127,
2,4254,Note_on_c,9,41,127,
2,4254,Note_on_c,9,42,127,
2,4254,Note_on_c,9,43,127,
2,4254,Note_on_c,9,45,127,
2,4254,Note_on_c,9,48,127,
2,4254,Note_on_c,9,51,127,
2,4254,Note_on_c,9,53,127,
2,4254,Note_on_c,9,80,127,
2,4254,Note_on_c,9,81,127,
2,4254,Note_on_c,9,82,127,
2,4255,Note_off_c,9,36,0,
2,4256,Note_on_c,9,36,127,
2,4256,Note_on_c,9,37,127,
2,4256,Note_on_c,9,38,127,
2,4256,Note_on_c,9,39,127,
2,4256,Note_on_c,9,41,127,
2,4256,Note_on_c,9,42,127,
2,4256,Note_on_c,9,43,127,
2,4256,Note_on_c,9,45,127,
2,4256,Note_on_c,9,48,127,
2,4256,Note_on_c,9,51,127,
2,4256,Note_on_c,9,53,127,
2,4256,Note_on_c,9,80,127,
2,4256,Note_on_c,9,81,127,
2,4256,Note_on_c,9,82,127,
2,4257,Note_off_c,9,36,0,
2,4258,Note_on_c,9,36,127,
2,4258,Note_on_c,9,37,127,
2,4258,Note_on_c,9,38,127,
2,4258,Note_on_c,9,39,127,
2,4258,Note_on_c,9,41,127,
2,4258,Note_on_c,9,42,127,
2,4258,Note_on_c,9,43,127,
2,4258,Note_on_c,9,45,127,
2,4258,Note_on_c,9,48,127,
2,4258,Note_on_c,9,51,127,
2,4258,Note_on_c,9,53,127,
2,4258,Note_on_c,9,80,127,
2,4258,Note_on_c,9,81,127,
2,4258,Note_on_c,9,82,127,
2,4259,Note_off_c,9,36,0,
2,4260,Note_on_c,9,36,127,
2,4260,Note_on_c,9,37,127,
2,4260,Note_on_c,9,38,127,
2,4260,Note_on_c,9,39,127,
2,4260,Note_on_c,9,41,127,
2,4260,Note_on_c,9,42,127,
2,4260,Note_on_c,9,43,127,
2,4260,Note_on_c,9,45,127,
2,4260,Note_on_c,9,48,127,
2,4260,Note_on_c,9,51,127,
2,4260,Note_on_c,9,53,127,
2,4260,Note_on_c,9,80,127,
2,4260,Note_on_c,9,81,127,
2,4260,Note_on_c,9,82,127,
2,4261,Note_off_c,9,36,0,
2,4262,Note_on_c,9,36,127,
2,4262,Note_on_c,9,37,127,
2,4262,Note_on_c,9,38,127,
2,4262,Note_on_c,9,39,127,
2,4262,Note_on_c,9,41,127,
2,4262,Note_on_c,9,42,127,
2,4262,Note_on_c,9,43,127,
2,4262,Note_on_c,9,45,127,
2,4262,Note_on_c,9,48,127,
2,4262,Note_on_c,9,51,127,
2,4262,Note_on_c,9,53,127,
2,4262,Note_on_c,9,80,127,
2,4262,Note_on_c,9,81,127,
2,4262,Note_on_c,9,82,127,
2,4263,Note_off_c,9,36,0,
2,4264,Note_on_c,9,36,127,
2,4264,Note_on_c,9,37,127,
2,4264,Note_on_c,9,38,127,
2,4264,Note_on_c,9,39,127,
2,4264,Note_on_c,9,41,127,
2,4264,Note_on_c,9,42,127,
2,4264,Note_on_c,9,43,127,
2,4264,Note_on_c,9,45,127,
2,4264,Note_on_c,9,48,127,
2,4264,Note_on_c,9,51,127,
2,4264,Note_on_c,9,53,127,
2,4264,Note_on_c,9,80,127,
2,4264,Note_on_c,9,81,127,
2,4264,Note_on_c,9,82,127,
2,4265,Note_off_c,9,36,0,
2,4266,Note_on_c,9,36,127,
2,4266,Note_on_c,9,37,127,
2,4266,Note_on_c,9,38,127,
2,4266,Note_on_c,9,39,127,
2,4266,Note_on_c,9,41,127,
2,4266,Note_on_c,9,42,127,
2,4266,Note_on_c,9,43,127,
2,4266,Note_on_c,9,45,127,
2,4266,Note_on_c,9,48,127,
2,4266,Note_on_c,9,51,127,
2,4266,Note_on_c,9,53,127,
2,4266,Note_on_c,9,80,127,
2,4266,Note_on_c,9,81,127,
2,4266,Note_on_c,9,82,127,
2,4267,Note_off_c,9,36,0,
2,4268,Note_on_c,9,36,127,
2,4268,Note_on_c,9,37,127,
2,4268,Note_on_c,9,38,127,
2,4268,Note_on_c,9,39,127,
2,4268,Note_on_c,9,41,127,
2,4268,Note_on_c,9,42,127,
2,4268,Note_on_c,9,43,127,
2,4268,Note_on_c,9,45,127,
2,4268,Note_on_c,9,48,127,
2,4268,Note_on_c,9,51,127,
2,4268,Note_on_c,9,53,127,
2,4268,Note_on_c,9,80,127,
2,4268,Note_on_c,9,81,127,
2,4268,Note_on_c,9,82,127,
2,4269,Note_off_c,9,36,0,
2,4270,Note_on_c,9,36,127,
2,4270,Note_on_c,9,37,127,
2,4270,Note_on_c,9,38,127,
2,4270,Note_on_c,9,39,127,
2,4270,Note_on_c,9,41,127,
2,4270,Note_on_c,9,42,127,
2,4270,Note_on_c,9,43,127,
2,4270,Note_on_c,9,45,127,
2,4270,Note_on_c,9,48,127,
2,4270,Note_on_c,9,51,127,
2,4270,Note_on_c,9,53,127,
2,4270,Note_on_c,9,80,127,
2,4270,Note_on_c,9,81,127,
2,4270,Note_on_c,9,82,127,
2,4271,Note_off_c,9,36,0,
2,4272,Note_on_c,9,36,127,
2,4272,Note_on_c,9,37,127,
2,4272,Note_on_c,9,38,127,
2,4272,Note_on_c,9,39,127,
2,4272,Note_on_c,9,41,127,
2,4272,Note_on_c,9,42,127,
2,4272,Note_on_c,9,43,127,
2,4272,Note_on_c,9,45,127,
2,4272,Note_on_c,9,48,127,
2,4272,Note_on_c,9,51,127,
2,4272,Note_on_c,9,53,127,
2,4272,Note_on_c,9,80,127,
2,4272,Note_on_c,9,81,127,
2,4272,Note_on_c,9,82,127,
2,4273,Note_off_c,9,36,0,
2,4274,Note_on_c,9,36,127,
2,4274,Note_on_c,9,37,127,
2,4274,Note_on_c,9,38,127,
2,4274,Note_on_c,9,39,127,
2,4274,Note_on_c,9,41,127,
2,4274,Note_on_c,9,42,127,
2,4274,Note_on_c,9,43,127,
2,4274,Note_on_c,9,45,127,
2,4274,Note_on_c,9,48,127,
2,4274,Note_on_c,9,51,127,
2,4274,Note_on_c,9,53,127,
2,4274,Note_on_c,9,80,127,
2,4274,Note_on_c,9,81,127,
2,4274,Note_on_c,9,82,127,
2,4275,Note_off_c,9,36,0,
2,4276,Note_on_c,9,36,127,
2,4276,Note_on_c,9,37,127,
2,4276,Note_on_c,9,38,127,
2,4276,Note_on_c,9,39,127,
2,4276,Note_on_c,9,41,127,
2,4276,Note_on_c,9,42,127,
2,4276,Note_on_c,9,43,127,
2,4276,Note_on_c,9,45,127,
2,4276,Note_on_c,9,48,127,
2,4276,Note_on_c,9,51,127,
2,4276,Note_on_c,9,53,127,
2,4276,Note_on_c,9,80,127,
2,4276,Note_on_c,9,81,127,
2,4276,Note_on_c,9,82,127,
2,4277,Note_off_c,9,36,0,
2,4278,Note_on_c,9,36,127,
2,4278,Note_on_c,9,37,127,
2,4278,Note_on_c,9,38,127,
2,4278,Note_on_c,9,39,127,
2,4278,Note_on_c,9,41,127,
2,4278,Note_on_c,9,42,127,
2,4278,Note_on_c,9,43,127,
2,4278,Note_on_c,9,45,127,
2,4278,Note_on_c,9,48,127,
2,4278,Note_on_c,9,51,127,
2,4278,Note_on_c,9,53,127,
2,4278,Note_on_c,9,80,127,
2,4278,Note_on_c,9,81,127,
2,4278,Note_on_c,9,82,127,
2,4279,Note_off_c,9,36,0,
2,4280,Note_on_c,9,36,127,
2,4280,Note_on_c,9,37,127,
2,4280,Note_on_c,9,38,127,
2,4280,Note_on_c,9,39,127,
2,4280,Note_on_c,9,41,127,
2,4280,Note_on_c,9,42,127,
2,4280,Note_on_c,9,43,127,
2,4280,Note_on_c,9,45,127,
2,4280,Note_on_c,9,48,127,
2,4280,Note_on_c,9,51,127,
2,4280,Note_on_c,9,53,127,
2,4280,Note_on_c,9,80,127,
2,4280,Note_on_c,9,81,127,
2,4280,Note_on_c,9,82,127,
2,4281,Note_off_c,9,36,0,
2,4282,Note_on_c,9,36,127,
2,4282,Note_on_c,9,37,127,
2,4282,Note_on_c,9,38,127,
2,4282,Note_on_c,9,39,127,
2,4282,Note_on_c,9,41,127,
2,4282,Note_on_c,9,42,127,
2,4282,Note_on_c,9,43,127,
2,4282,Note_on_c,9,45,127,
2,4282,Note_on_c,9,48,127,
2,4282,Note_on_c,9,51,127,
2,4282,Note_on_c,9,53,127,
2,4282,Note_on_c,9,80,127,
2,4282,Note_on_c,9,81,127,
2,4282,Note_on_c,9,82,127,
2,4283,Note_off_c,9,36,0,
2,4284,Note_on_c,9,36,127,
2,4284,Note_on_c,9,37,127,
2,4284,Note_on_c,9,38,127,
2,4284,Note_on_c,9,39,127,
2,4284,Note_on_c,9,41,127,
2,4284,Note_on_c,9,42,127,
2,4284,Note_on_c,9,43,127,
2,4284,Note_on_c,9,45,127,
2,4284,Note_on_c,9,48,127,
2,4284,Note_on_c,9,51,127,
2,4284,Note_on_c,9,53,127,
2,4284,Note_on_c,9,80,127,
2,4284,Note_on_c,9,81,127,
2,4284,Note_on_c,9,82,127,
2,4285,Note_off_c,9,36,0,
2,4286,Note_on_c,9,36,127,
2,4286,Note_on_c,9,37,127,
2,4286,Note_on_c,9,38,127,
2,4286,Note_on_c,9,39,127,
2,4286,Note_on_c,9,41,127,
2,4286,Note_on_c,9,42,127,
2,4286,Note_on_c,9,43,127,
2,4286,Note_on_c,9,45,127,
2,4286,Note_on_c,9,48,127,
2,4286,Note_on_c,9,51,127,
2,4286,Note_on_c,9,53,127,
2,4286,Note_on_c,9,80,127,
2,4286,Note_on_c,9,81,127,
2,4286,Note_on_c,9,82,127,
2,4287,Note_off_c,9,36,0,
2,4288,Note_on_c,9,36,127,
2,4288,Note_on_c,9,37,127,
2,4288,Note_on_c,9,38,127,
2,4288,Note_on_c,9,39,127,
2,4288,Note_on_c,9,41,127,
2,4288,Note_on_c,9,42,127,
2,4288,Note_on_c,9,43,127,
2,4288,Note_on_c,9,45,127,
2,4288,Note_on_c,9,48,127,
2,4288,Note_on_c,9,51,127,
2,4288,Note_on_c,9,53,127,
2,4288,Note_on_c,9,80,127,
2,4288,Note_on_c,9,81,127,
2,4288,Note_on_c,9,82,127,
2,4289,Note_off_c,9,36,0,
2,4290,Note_on_c,9,36,127,
2,4290,Note_on_c,9,37,127,
2,4290,Note_on_c,9,38,127,
2,4290,Note_on_c,9,39,127,
2,4290,Note_on_c,9,41,127,
2,4290,Note_on_c,9,42,127,
2,4290,Note_on_c,9,43,127,
2,4290,Note_on_c,9,45,127,
2,4290,Note_on_c,9,48,127,
2,4290,Note_on_c,9,51,127,
2,4290,Note_on_c,9,53,127,
2,4290,Note_on_c,9,80,127,
2,4290,Note_on_c,9,81,127,
2,4290,Note_on_c,9,82,127,
2,4291,Note_off_c,9,36,0,
2,4292,Note_on_c,9,36,127,
2,4292,Note_on_c,9,37,127,
2,4292,Note_on_c,9,38,127,
2,4292,Note_on_c,9,39,127,
2,4292,Note_on_c,9,41,127,
2,4292,Note_on_c,9,42,127,
2,4292,Note_on_c,9,43,127,
2,4292,Note_on_c,9,45,127,
2,4292,Note_on_c,9,48,127,
2,4292,Note_on_c,9,51,127,
2,4292,Note_on_c,9,53,127,
2,4292,Note_on_c,9,80,127,
2,4292,Note_on_c,9,81,127,
2,4292,Note_on_c,9,82,127,
2,4293,Note_off_c,9,36,0,
2,4294,Note_on_c,9,36,127,
2,4294,Note_on_c,9,37,127,
2,4294,Note_on_c,9,38,127,
2,4294,Note_on_c,9,39,127,
2,4294,Note_on_c,9,41,127,
2,4294,Note_on_c,9,42,127,
2,4294,Note_on_c,9,43,127,
2,4294,Note_on_c,9,45,127,
2,4294,Note_on_c,9,48,127,
2,4294,Note_on_c,9,51,127,
2,4294,Note_on_c,9,53,127,
2,4294,Note_on_c,9,80,127,
2,4294,Note_on_c,9,81,127,
2,4294,Note_on_c,9,82,127,
2,4295,Note_off_c,9,36,0,
2,4296,Note_on_c,9,36,127,
2,4296,Note_on_c,9,37,127,
2,4296,Note_on_c,9,38,127,
2,4296,Note_on_c,9,39,127,
2,4296,Note_on_c,9,41,127,
2,4296,Note_on_c,9,42,127,
2,4296,Note_on_c,9,43,127,
2,4296,Note_on_c,9,45,127,
2,4296,Note_on_c,9,48,127,
2,4296,Note_on_c,9,51,127,
2,4296,Note_on_c,9,53,127,
2,4296,Note_on_c,9,80,127,
2,4296,Note_on_c,9,81,127,
2,4296,Note_on_c,9,82,127,
2,4297,Note_off_c,9,36,0,
2,4298,Note_on_c,9,36,127,
2,4298,Note_on_c,9,37,127,
2,4298,Note_on_c,9,38,127,
2,4298,Note_on_c,9,39,127,
2,4298,Note_on_c,9,41,127,
2,4298,Note_on_c,9,42,127,
2,4298,Note_on_c,9,43,127,
2,4298,Note_on_c,9,45,127,
2,4298,Note_on_c,9,48,127,
2,4298,Note_on_c,9,51,127,
2,4298,Note_on_c,9,53,127,
2,4298,Note_on_c,9,80,127,
2,4298,Note_on_c,9,81,127,
2,4298,Note_on_c,9,82,127,
2,4299,Note_off_c,9,36,0,
2,4300,Note_on_c,9,36,127,
2,4300,Note_on_c,9,37,127,
2,4300,Note_on_c,9,38,127,
2,4300,Note_on_c,9,39,127,
2,4300,Note_on_c,9,41,127,
2,4300,Note_on_c,9,42,127,
2,4300,Note_on_c,9,43,127,
2,4300,Note_on_c,9,45,127,
2,4300,Note_on_c,9,48,127,
2,4300,Note_on_c,9,51,127,
2,4300,Note_on_c,9,53,127,
2,4300,Note_on_c,9,80,127,
2,4300,Note_on_c,9,81,127,
2,4300,Note_on_c,9,82,127,
2,4301,Note_off_c,9,36,0,
2,4302,Note_on_c,9,36,127,
2,4302,Note_on_c,9,37,127,
2,4302,Note_on_c,9,38,127,
2,4302,Note_on_c,9,39,127,
2,4302,Note_on_c,9,41,127,
2,4302,Note_on_c,9,42,127,
2,4302,Note_on_c,9,43,127,
2,4302,Note_on_c,9,45,127,
2,4302,Note_on_c,9,48,127,
2,4302,Note_on_c,9,51,127,
2,4302,Note_on_c,9,53,127,
2,4302,Note_on_c,9,80,127,
2,4302,Note_on_c,9,81,127,
2,4302,Note_on_c,9,82,127,
2,4303,Note_off_c,9,36,0,
2,4304,Note_on_c,9,36,127,
2,4304,Note_on_c,9,37,127,
2,4304,Note_on_c,9,38,127,
2,4304,Note_on_c,9,39,127,
2,4304,Note_on_c,9,41,127,
2,4304,Note_on_c,9,42,127,
2,4304,Note_on_c,9,43,127,
2,4304,Note_on_c,9,45,127,
2,4304,Note_on_c,9,48,127,
2,4304,Note_on_c,9,51,127,
2,4304,Note_on_c,9,53,127,
2,4304,Note_on_c,9,80,127,
2,4304,Note_on_c,9,81,127,
2,4304,Note_on_c,9,82,127,
2,4305,Note_off_c,9,36,0,
2,4306,Note_on_c,9,36,127,
2,4306,Note_on_c,9,37,127,
2,4306,Note_on_c,9,38,127,
2,4306,Note_on_c,9,39,127,
2,4306,Note_on_c,9,41,127,
2,4306,Note_on_c,9,42,127,
2,4306,Note_on_c,9,43,127,
2,4306,Note_on_c,9,45,127,
2,4306,Note_on_c,9,48,127,
2,4306,Note_on_c,9,51,127,
2,4306,Note_on_c,9,53,127,
2,4306,Note_on_c,9,80,127,
2,4306,Note_on_c,9,81,127,
2,4306,Note_on_c,9,82,127,
2,4307,Note_off_c,9,36,0,
2,4308,Note_on_c,9,36,127,
2,4308,Note_on_c,9,37,127,
2,4308,Note_on_c,9,38,127,
2,4308,Note_on_c,9,39,127,
2,4308,Note_on_c,9,41,127,
2,4308,Note_on_c,9,42,127,
2,4308,Note_on_c,9,43,127,
2,4308,Note_on_c,9,45,127,
2,4308,Note_on_c,9,48,127,
2,4308,Note_on_c,9,51,127,
2,4308,Note_on_c,9,53,127,
2,4308,Note_on_c,9,80,127,
2,4308,Note_on_c,9,81,127,
2,4308,Note_on_c,9,82,127,
2,4309,Note_off_c,9,36,0,
2,4310,Note_on_c,9,36,127,
2,4310,Note_on_c,9,37,127,
2,4310,Note_on_c,9,38,127,
2,4310,Note_on_c,9,39,127,
2,4310,Note_on_c,9,41,127,
2,4310,Note_on_c,9,42,127,
2,4310,Note_on_c,9,43,127,
2,4310,Note_on_c,9,45,127,
2,4310,Note_on_c,9,48,127,
2,4310,Note_on_c,9,51,127,
2,4310,Note_on_c,9,53,127,
2,4310,Note_on_c,9,80,127,
2,4310,Note_on_c,9,81,127,
2,4310,Note_on_c,9,82,127,
2,4311,Note_off_c,9,36,0,
2,4312,Note_on_c,9,36,127,
2,4312,Note_on_c,9,37,127,
2,4312,Note_on_c,9,38,127,
2,4312,Note_on_c,9,39,127,
2,4312,Note_on_c,9,41,127,
2,4312,Note_on_c,9,42,127,
2,4312,Note_on_c,9,43,127,
2,4312,Note_on_c,9,45,127,
2,4312,Note_on_c,9,48,127,
2,4312,Note_on_c,9,51,127,
2,4312,Note_on_c,9,53,127,
2,4312,Note_on_c,9,80,127,
2,4312,Note_on_c,9,81,127,
2,4312,Note_on_c,9,82,127,
2,4313,Note_off_c,9,36,0,
2,4314,Note_on_c,9,36,127,
2,4314,Note_on_c,9,37,127,
2,4314,Note_on_c,9,38,127,
2,4314,Note_on_c,9,39,127,
2,4314,Note_on_c,9,41,127,
2,4314,Note_on_c,9,42,127,
2,4314,Note_on_c,9,43,127,
2,4314,Note_on_c,9,45,127,
2,4314,Note_on_c,9,48,127,
2,4314,Note_on_c,9,51,127,
2,4314,Note_on_c,9,53,127,
2,4314,Note_on_c,9,80,127,
2,4314,Note_on_c,9,81,127,
2,4314,Note_on_c,9,82,127,
2,4315,Note_off_c,9,36,0,
2,4316,Note_on_c,9,36,127,
2,4316,Note_on_c,9,37,127,
2,4316,Note_on_c,9,38,127,
2,4316,Note_on_c,9,39,127,
2,4316,Note_on_c,9,41,127,
2,4316,Note_on_c,9,42,127,
2,4316,Note_on_c,9,43,127,
2,4316,Note_on_c,9,45,127,
2,4316,Note_on_c,9,48,127,
2,4316,Note_on_c,9,51,127,
2,4316,Note_on_c,9,53,127,
2,4316,Note_on_c,9,80,127,
2,4316,Note_on_c,9,81,127,
2,4316,Note_on_c,9,82,127,
2,4317,Note_off_c,9,36,0,
2,4318,Note_on_c,9,36,127,
2,4318,Note_on_c,9,37,127,
2,4318,Note_on_c,9,38,127,
2,4318,Note_on_c,9,39,127,
2,4318,Note_on_c,9,41,127,
2,4318,Note_on_c,9,42,127,
2,4318,Note_on_c,9,43,127,
2,4318,Note_on_c,9,45,127,
2,4318,Note_on_c,9,48,127,
2,4318,Note_on_c,9,51,127,
2,4318,Note_on_c,9,53,127,
2,4318,Note_on_c,9,80,127,
2,4318,Note_on_c,9,81,127,
2,4318,Note_on_c,9,82,127,
2,4319,Note_off_c,9,36,0,
2,4320,Note_on_c,9,36,127,
2,4320,Note_on_c,9,37,127,
2,4320,Note_on_c,9,38,127,
2,4320,Note_on_c,9,39,127,
2,4320,Note_on_c,9,41,127,
2,4320,Note_on_c,9,42,127,
2,4320,Note_on_c,9,43,127,
2,4320,Note_on_c,9,45,127,
2,4320,Note_on_c,9,48,127,
2,4320,Note_on_c,9,51,127,
2,4320,Note_on_c,9,53,127,
2,4320,Note_on_c,9,80,127,
2,4320,Note_on_c,9,81,127,
2,4320,Note_on_c,9,82,127,
2,4321,Note_off_c,9,36,0,
2,4322,Note_on_c,9,36,127,
2,4322,Note_on_c,9,37,127,
2,4322,Note_on_c,9,38,127,
2,4322,Note_on_c,9,39,127,
2,4322,Note_on_c,9,41,127,
2,4322,Note_on_c,9,42,127,
2,4322,Note_on_c,9,43,127,
2,4322,Note_on_c,9,45,127,
2,4322,Note_on_c,9,48,127,
2,4322,Note_on_c,9,51,127,
2,4322,Note_on_c,9,53,127,
2,4322,Note_on_c,9,80,127,
2,4322,Note_on_c,9,81,127,
2,4322,Note_on_c,9,82,127,
2,4323,Note_off_c,9,36,0,
2,4324,Note_on_c,9,36,127,
2,4324,Note_on_c,9,37,127,
2,4324,Note_on_c,9,38,127,
2,4324,Note_on_c,9,39,127,
2,4324,Note_on_c,9,41,127,
2,4324,Note_on_c,9,42,127,
2,4324,Note_on_c,9,43,127,
2,4324,Note_on_c,9,45,127,
2,4324,Note_on_c,9,48,127,
2,4324,Note_on_c,9,51,127,
2,4324,Note_on_c,9,53,127,
2,4324,Note_on_c,9,80,127,
2,4324,Note_on_c,9,81,127,
2,4324,Note_on_c,9,82,127,
2,4325,Note_off_c,9,36,0,
2,4326,Note_on_c,9,36,127,
2,4326,Note_on_c,9,37,127,
2,4326,Note_on_c,9,38,127,
2,4326,Note_on_c,9,39,127,
2,4326,Note_on_c,9,41,127,
2,4326,Note_on_c,9,42,127,
2,4326,Note_on_c,9,43,127,
2,4326,Note_on_c,9,45,127,
2,4326,Note_on_c,9,48,127,
2,4326,Note_on_c,9,51,127,
2,4326,Note_on_c,9,53,127,
2,4326,Note_on_c,9,80,127,
2,4326,Note_on_c,9,81,127,
2,4326,Note_on_c,9,82,127,
2,4327,Note_off_c,9,36,0,
2,4328,Note_on_c,9,36,127,
2,4328,Note_on_c,9,37,127,
2,4328,Note_on_c,9,38,127,
2,4328,Note_on_c,9,39,127,
2,4328,Note_on_c,9,41,127,
2,4328,Note_on_c,9,42,127,
2,4328,Note_on_c,9,43,127,
2,4328,Note_on_c,9,45,127,
2,4328,Note_on_c,9,48,127,
2,4328,Note_on_c,9,51,127,
2,4328,Note_on_c,9,53,127,
2,4328,Note_on_c,9,80,127,
2,4328,Note_on_c,9,81,127,
2,4328,Note_on_c,9,82,127,
2,4329,Note_off_c,9,36,0,
2,4330,Note_on_c,9,36,127,
2,4330,Note_on_c,9,37,127,
2,4330,Note_on_c,9,38,127,
2,4330,Note_on_c,9,39,127,
2,4330,Note_on_c,9,41,127,
2,4330,Note_on_c,9,42,127,
2,4330,Note_on_c,9,43,127,
2,4330,Note_on_c,9,45,127,
2,4330,Note_on_c,9,48,127,
2,4330,Note_on_c,9,51,127,
2,4330,Note_on_c,9,53,127,
2,4330,Note_on_c,9,80,127,
2,4330,Note_on_c,9,81,127,
2,4330,Note_on_c,9,82,127,
2,4331,Note_off_c,9,36,0,
2,4332,Note_on_c,9,36,127,
2,4332,Note_on_c,9,37,127,
2,4332,Note_on_c,9,38,127,
2,4332,Note_on_c,9,39,127,
2,4332,Note_on_c,9,41,127,
2,4332,Note_on_c,9,42,127,
2,4332,Note_on_c,9,43,127,
2,4332,Note_on_c,9,45,127,
2,4332,Note_on_c,9,48,127,
2,4332,Note_on_c,9,51,127,
2,4332,Note_on_c,9,53,127,
2,4332,Note_on_c,9,80,127,
2,4332,Note_on_c,9,81,127,
2,4332,Note_on_c,9,82,127,
2,4333,Note_off_c,9,36,0,
2,4334,Note_on_c,9,36,127,
2,4334,Note_on_c,9,37,127,
2,4334,Note_on_c,9,38,127,
2,4334,Note_on_c,9,39,127,
2,4334,Note_on_c,9,41,127,
2,4334,Note_on_c,9,42,127,
2,4334,Note_on_c,9,43,127,
2,4334,Note_on_c,9,45,127,
2,4334,Note_on_c,9,48,127,
2,4334,Note_on_c,9,51,127,
2,4334,Note_on_c,9,53,127,
2,4334,Note_on_c,9,80,127,
2,4334,Note_on_c,9,81,127,
2,4334,Note_on_c,9,82,127,
2,4335,Note_off_c,9,36,0,
2,4336,Note_on_c,9,36,127,
2,4336,Note_on_c,9,37,127,
2,4336,Note_on_c,9,38,127,
2,4336,Note_on_c,9,39,127,
2,4336,Note_on_c,9,41,127,
2,4336,Note_on_c,9,42,127,
2,4336,Note_on_c,9,43,127,
2,4336,Note_on_c,9,45,127,
2,4336,Note_on_c,9,48,127,
2,4336,Note_on_c,9,51,127,
2,4336,Note_on_c,9,53,127,
2,4336,Note_on_c,9,80,127,
2,4336,Note_on_c,9,81,127,
2,4336,Note_on_c,9,82,127,
2,4337,Note_off_c,9,36,0,
2,4338,Note_on_c,9,36,127,
2,4338,Note_on_c,9,37,127,
2,4338,Note_on_c,9,38,127,
2,4338,Note_on_c,9,39,127,
2,4338,Note_on_c,9,41,127,
2,4338,Note_on_c,9,42,127,
2,4338,Note_on_c,9,43,127,
2,4338,Note_on_c,9,45,127,
2,4338,Note_on_c,9,48,127,
2,4338,Note_on_c,9,51,127,
2,4338,Note_on_c,9,53,127,
2,4338,Note_on_c,9,80,127,
2,4338,Note_on_c,9,81,127,
2,4338,Note_on_c,9,82,127,
2,4339,Note_off_c,9,36,0,
2,4340,Note_on_c,9,36,127,
2,4340,Note_on_c,9,37,127,
2,4340,Note_on_c,9,38,127,
2,4340,Note_on_c,9,39,127,
2,4340,Note_on_c,9,41,127,
2,4340,Note_on_c,9,42,127,
2,4340,Note_on_c,9,43,127,
2,4340,Note_on_c,9,45,127,
2,4340,Note_on_c,9,48,127,
2,4340,Note_on_c,9,51,127,
2,4340,Note_on_c,9,53,127,
2,4340,Note_on_c,9,80,127,
2,4340,Note_on_c,9,81,127,
2,4340,Note_on_c,9,82,127,
2,4341,Note_off_c,9,36,0,
2,4342,Note_on_c,9,36,127,
2,4342,Note_on_c,9,37,127,
2,4342,Note_on_c,9,38,127,
2,4342,Note_on_c,9,39,127,
2,4342,Note_on_c,9,41,127,
2,4342,Note_on_c,9,42,127,
2,4342,Note_on_c,9,43,127,
2,4342,Note_on_c,9,45,127,
2,4342,Note_on_c,9,48,127,
2,4342,Note_on_c,9,51,127,
2,4342,Note_on_c,9,53,127,
2,4342,Note_on_c,9,80,127,
2,4342,Note_on_c,9,81,127,
2,4342,Note_on_c,9,82,127,
2,4343,Note_off_c,9,36,0,
2,4344,Note_on_c,9,36,127,
2,4344,Note_on_c,9,37,127,
2,4344,Note_on_c,9,38,127,
2,4344,Note_on_c,9,39,127,
2,4344,Note_on_c,9,41,127,
2,4344,Note_on_c,9,42,127,
2,4344,Note_on_c,9,43,127,
2,4344,Note_on_c,9,45,127,
2,4344,Note_on_c,9,48,127,
2,4344,Note_on_c,9,51,127,
2,4344,Note_on_c,9,53,127,
2,4344,Note_on_c,9,80,127,
2,4344,Note_on_c,9,81,127,
2,4344,Note_on_c,9,82,127,
2,4345,Note_off_c,9,36,0,
2,4346,Note_on_c,9,36,127,
2,4346,Note_on_c,9,37,127,
2,4346,Note_on_c,9,38,127,
2,4346,Note_on_c,9,39,127,
2,4346,Note_on_c,9,41,127,
2,4346,Note_on_c,9,42,127,
2,4346,Note_on_c,9,43,127,
2,4346,Note_on_c,9,45,127,
2,4346,Note_on_c,9,48,127,
2,4346,Note_on_c,9,51,127,
2,4346,Note_on_c,9,53,127,
2,4346,Note_on_c,9,80,127,
2,4346,Note_on_c,9,81,127,
2,4346,Note_on_c,9,82,127,
2,4347,Note_off_c,9,36,0,
2,4348,Note_on_c,9,36,127,
2,4348,Note_on_c,9,37,127,
2,4348,Note_on_c,9,38,127,
2,4348,Note_on_c,9,39,127,
2,4348,Note_on_c,9,41,127,
2,4348,Note_on_c,9,42,127,
2,4348,Note_on_c,9,43,127,
2,4348,Note_on_c,9,45,127,
2,4348,Note_on_c,9,48,127,
2,4348,Note_on_c,9,51,127,
2,4348,Note_on_c,9,53,127,
2,4348,Note_on_c,9,80,127,
2,4348,Note_on_c,9,81,127,
2,4348,Note_on_c,9,82,127,
2,4349,Note_off_c,9,36,0,
2,4350,Note_on_c,9,36,127,
2,4350,Note_on_c,9,37,127,
2,4350,Note_on_c,9,38,127,
2,4350,Note_on_c,9,39,127,
2,4350,Note_on_c,9,41,127,
2,4350,Note_on_c,9,42,127,
2,4350,Note_on_c,9,43,127,
2,4350,Note_on_c,9,45,127,
2,4350,Note_on_c,9,48,127,
2,4350,Note_on_c,9,51,127,
2,4350,Note_on_c,9,53,127,
2,4350,Note_on_c,9,80,127,
2,4350,Note_on_c,9,81,127,
2,4350,Note_on_c,9,82,127,
2,4351,Note_off_c,9,36,0,
2,4352,Note_on_c,9,36,127,
2,4352,Note_on_c,9,37,127,
2,4352,Note_on_c,9,38,127,
2,4352,Note_on_c,9,39,127,
2,4352,Note_on_c,9,41,127,
2,4352,Note_on_c,9,42,127,
2,4352,Note_on_c,9,43,127,
2,4352,Note_on_c,9,45,127,
2,4352,Note_on_c,9,48,127,
2,4352,Note_on_c,9,51,127,
2,4352,Note_on_c,9,53,127,
2,4352,Note_on_c,9,80,127,
2,4352,Note_on_c,9,81,127,
2,4352,Note_on_c,9,82,127,
2,4353,Note_off_c,9,36,0,
2,4354,Note_on_c,9,36,127,
2,4354,Note_on_c,9,37,127,
2,4354,Note_on_c,9,38,127,
2,4354,Note_on_c,9,39,127,
2,4354,Note_on_c,9,41,127,
2,4354,Note_on_c,9,42,127,
2,4354,Note_on_c,9,43,127,
2,4354,Note_on_c,9,45,127,
2,4354,Note_on_c,9,48,127,
2,4354,Note_on_c,9,51,127,
2,4354,Note_on_c,9,53,127,
2,4354,Note_on_c,9,80,127,
2,4354,Note_on_c,9,81,127,
2,4354,Note_on_c,9,82,127,
2,4355,Note_off_c,9,36,0,
2,4356,Note_on_c,9,36,127,
2,4356,Note_on_c,9,37,127,
2,4356,Note_on_c,9,38,127,
2,4356,Note_on_c,9,39,127,
2,4356,Note_on_c,9,41,127,
2,4356,Note_on_c,9,42,127,
2,4356,Note_on_c,9,43,127,
2,4356,Note_on_c,9,45,127,
2,4356,Note_on_c,9,48,127,
2,4356,Note_on_c,9,51,127,
2,4356,Note_on_c,9,53,127,
2,4356,Note_on_c,9,80,127,
2,4356,Note_on_c,9,81,127,
2,4356,Note_on_c,9,82,127,
2,4357,Note_off_c,9,36,0,
2,4358,Note_on_c,9,36,127,
2,4358,Note_on_c,9,37,127,
2,4358,Note_on_c,9,38,127,
2,4358,Note_on_c,9,39,127,
2,4358,Note_on_c,9,41,127,
2,4358,Note_on_c,9,42,127,
2,4358,Note_on_c,9,43,127,
2,4358,Note_on_c,9,45,127,
2,4358,Note_on_c,9,48,127,
2,4358,Note_on_c,9,51,127,
2,4358,Note_on_c,9,53,127,
2,4358,Note_on_c,9,80,127,
2,4358,Note_on_c,9,81,127,
2,4358,Note_on_c,9,82,127,
2,4359,Note_off_c,9,36,0,
2,4360,Note_on_c,9,36,127,
2,4360,Note_on_c,9,37,127,
2,4360,Note_on_c,9,38,127,
2,4360,Note_on_c,9,39,127,
2,4360,Note_on_c,9,41,127,
2,4360,Note_on_c,9,42,127,
2,4360,Note_on_c,9,43,127,
2,4360,Note_on_c,9,45,127,
2,4360,Note_on_c,9,48,127,
2,4360,Note_on_c,9,51,127,
2,4360,Note_on_c,9,53,127,
2,4360,Note_on_c,9,80,127,
2,4360,Note_on_c,9,81,127,
2,4360,Note_on_c,9,82,127,
2,4361,Note_off_c,9,36,0,
2,4362,Note_on_c,9,36,127,
2,4362,Note_on_c,9,37,127,
2,4362,Note_on_c,9,38,127,
2,4362,Note_on_c,9,39,127,
2,4362,Note_on_c,9,41,127,
2,4362,Note_on_c,9,42,127,
2,4362,Note_on_c,9,43,127,
2,4362,Note_on_c,9,45,127,
2,4362,Note_on_c,9,48,127,
2,4362,Note_on_c,9,51,127,
2,4362,Note_on_c,9,53,127,
2,4362,Note_on_c,9,80,127,
2,4362,Note_on_c,9,81,127,
2,4362,Note_on_c,9,82,127,
2,4363,Note_off_c,9,36,0,
2,4364,Note_on_c,9,36,127,
2,4364,Note_on_c,9,37,127,
2,4364,Note_on_c,9,38,127,
2,4364,Note_on_c,9,39,127,
2,4364,Note_on_c,9,41,127,
2,4364,Note_on_c,9,42,127,
2,4364,Note_on_c,9,43,127,
2,4364,Note_on_c,9,45,127,
2,4364,Note_on_c,9,48,127,
2,4364,Note_on_c,9,51,127,
2,4364,Note_on_c,9,53,127,
2,4364,Note_on_c,9,80,127,
2,4364,Note_on_c,9,81,127,
2,4364,Note_on_c,9,82,127,
2,4365,Note_off_c,9,36,0,
2,4366,Note_on_c,9,36,127,
2,4366,Note_on_c,9,37,127,
2,4366,Note_on_c,9,38,127,
2,4366,Note_on_c,9,39,127,
2,4366,Note_on_c,9,41,127,
2,4366,Note_on_c,9,42,127,
2,4366,Note_on_c,9,43,127,
2,4366,Note_on_c,9,45,127,
2,4366,Note_on_c,9,48,127,
2,4366,Note_on_c,9,51,127,
2,4366,Note_on_c,9,53,127,
2,4366,Note_on_c,9,80,127,
2,4366,Note_on_c,9,81,127,
2,4366,Note_on_c,9,82,127,
2,4367,Note_off_c,9,36,0,
2,4368,Note_on_c,9,36,127,
2,4368,Note_on_c,9,37,127,
2,4368,Note_on_c,9,38,127,
2,4368,Note_on_c,9,39,127,
2,4368,Note_on_c,9,41,127,
2,4368,Note_on_c,9,42,127,
2,4368,Note_on_c,9,43,127,
2,4368,Note_on_c,9,45,127,
2,4368,Note_on_c,9,48,127,
2,4368,Note_on_c,9,51,127,
2,4368,Note_on_c,9,53,127,
2,4368,Note_on_c,9,80,127,
2,4368,Note_on_c,9,81,127,
2,4368,Note_on_c,9,82,127,
2,4369,Note_off_c,9,36,0,
2,4370,Note_on_c,9,36,127,
2,4370,Note_on_c,9,37,127,
2,4370,Note_on_c,9,38,127,
2,4370,Note_on_c,9,39,127,
2,4370,Note_on_c,9,41,127,
2,4370,Note_on_c,9,42,127,
2,4370,Note_on_c,9,43,127,
2,4370,Note_on_c,9,45,127,
2,4370,Note_on_c,9,48,127,
2,4370,Note_on_c,9,51,127,
2,4370,Note_on_c,9,53,127,
2,4370,Note_on_c,9,80,127,
2,4370,Note_on_c,9,81,127,
2,4370,Note_on_c,9,82,127,
2,4371,Note_off_c,9,36,0,
2,4372,Note_on_c,9,36,127,
2,4372,Note_on_c,9,37,127,
2,4372,Note_on_c,9,38,127,
2,4372,Note_on_c,9,39,127,
2,4372,Note_on_c,9,41,127,
2,4372,Note_on_c,9,42,127,
2,4372,Note_on_c,9,43,127,
2,4372,Note_on_c,9,45,127,
2,4372,Note_on_c,9,48,127,
2,4372,Note_on_c,9,51,127,
2,4372,Note_on_c,9,53,127,
2,4372,Note_on_c,9,80,127,
2,4372,Note_on_c,9,81,127,
2,4372,Note_on_c,9,82,127,
2,4373,Note_off_c,9,36,0,
2,4374,Note_on_c,9,36,127,
2,4374,Note_on_c,9,37,127,
2,4374,Note_on_c,9,38,127,
2,4374,Note_on_c,9,39,127,
2,4374,Note_on_c,9,41,127,
2,4374,Note_on_c,9,42,127,
2,4374,Note_on_c,9,43,127,
2,4374,Note_on_c,9,45,127,
2,4374,Note_on_c,9,48,127,
2,4374,Note_on_c,9,51,127,
2,4374,Note_on_c,9,53,127,
2,4374,Note_on_c,9,80,127,
2,4374,Note_on_c,9,81,127,
2,4374,Note_on_c,9,82,127,
2,4375,Note_off_c,9,36,0,
2,4376,Note_on_c,9,36,127,
2,4376,Note_on_c,9,37,127,
2,4376,Note_on_c,9,38,127,
2,4376,Note_on_c,9,39,127,
2,4376,Note_on_c,9,41,127,
2,4376,Note_on_c,9,42,127,
2,4376,Note_on_c,9,43,127,
2,4376,Note_on_c,9,45,127,
2,4376,Note_on_c,9,48,127,
2,4376,Note_on_c,9,51,127,
2,4376,Note_on_c,9,53,127,
2,4376,Note_on_c,9,80,127,
2,4376,Note_on_c,9,81,127,
2,4376,Note_on_c,9,82,127,
2,4377,Note_off_c,9,36,0,
2,4378,Note_on_c,9,36,127,
2,4378,Note_on_c,9,37,127,
2,4378,Note_on_c,9,38,127,
2,4378,Note_on_c,9,39,127,
2,4378,Note_on_c,9,41,127,
2,4378,Note_on_c,9,42,127,
2,4378,Note_on_c,9,43,127,
2,4378,Note_on_c,9,45,127,
2,4378,Note_on_c,9,48,127,
2,4378,Note_on_c,9,51,127,
2,4378,Note_on_c,9,53,127,
2,4378,Note_on_c,9,80,127,
2,4378,Note_on_c,9,81,127,
2,4378,Note_on_c,9,82,127,
2,4379,Note_off_c,9,36,0,
2,4380,Note_on_c,9,36,127,
2,4380,Note_on_c,9,37,127,
2,4380,Note_on_c,9,38,127,
2,4380,Note_on_c,9,39,127,
2,4380,Note_on_c,9,41,127,
2,4380,Note_on_c,9,42,127,
2,4380,Note_on_c,9,43,127,
2,4380,Note_on_c,9,45,127,
2,4380,Note_on_c,9,48,127,
2,4380,Note_on_c,9,51,127,
2,4380,Note_on_c,9,53,127,
2,4380,Note_on_c,9,80,127,
2,4380,Note_on_c,9,81,127,
2,4380,Note_on_c,9,82,127,
2,4381,Note_off_c,9,36,0,
2,4382,Note_on_c,9,36,127,
2,4382,Note_on_c,9,37,127,
2,4382,Note_on_c,9,38,127,
2,4382,Note_on_c,9,39,127,
2,4382,Note_on_c,9,41,127,
2,4382,Note_on_c,9,42,127,
2,4382,Note_on_c,9,43,127,
2,4382,Note_on_c,9,45,127,
2,4382,Note_on_c,9,48,127,
2,4382,Note_on_c,9,51,127,
2,4382,Note_on_c,9,53,127,
2,4382,Note_on_c,9,80,127,
2,4382,Note_on_c,9,81,127,
2,4382,Note_on_c,9,82,127,
2,4383,Note_off_c,9,36,0,
2,4384,Note_on_c,9,36,127,
2,4384,Note_on_c,9,37,127,
2,4384,Note_on_c,9,38,127,
2,4384,Note_on_c,9,39,127,
2,4384,Note_on_c,9,41,127,
2,4384,Note_on_c,9,42,127,
2,4384,Note_on_c,9,43,127,
2,4384,Note_on_c,9,45,127,
2,4384,Note_on_c,9,48,127,
2,4384,Note_on_c,9,51,127,
2,4384,Note_on_c,9,53,127,
2,4384,Note_on_c,9,80,127,
2,4384,Note_on_c,9,81,127,
2,4384,Note_on_c,9,82,127,
2,4385,Note_off_c,9,36,0,
2,4386,Note_on_c,9,36,127,
2,4386,Note_on_c,9,37,127,
2,4386,Note_on_c,9,38,127,
2,4386,Note_on_c,9,39,127,
2,4386,Note_on_c,9,41,127,
2,4386,Note_on_c,9,42,127,
2,4386,Note_on_c,9,43,127,
2,4386,Note_on_c,9,45,127,
2,4386,Note_on_c,9,48,127,
2,4386,Note_on_c,9,51,127,
2,4386,Note_on_c,9,53,127,
2,4386,Note_on_c,9,80,127,
2,4386,Note_on_c,9,81,127,
2,4386,Note_on_c,9,82,127,
2,4387,Note_off_c,9,36,0,
2,4388,Note_on_c,9,36,127,
2,4388,Note_on_c,9,37,127,
2,4388,Note_on_c,9,38,127,
2,4388,Note_on_c,9,39,127,
2,4388,Note_on_c,9,41,127,
2,4388,Note_on_c,9,42,127,
2,4388,Note_on_c,9,43,127,
2,4388,Note_on_c,9,45,127,
2,4388,Note_on_c,9,48,127,
2,4388,Note_on_c,9,51,127,
2,4388,Note_on_c,9,53,127,
2,4388,Note_on_c,9,80,127,
2,4388,Note_on_c,9,81,127,
2,4388,Note_on_c,9,82,127,
2,4389,Note_off_c,9,36,0,
2,4390,Note_on_c,9,36,127,
2,4390,Note_on_c,9,37,127,
2,4390,Note_on_c,9,38,127,
2,4390,Note_on_c,9,39,127,
2,4390,Note_on_c,9,41,127,
2,4390,Note_on_c,9,42,127,
2,4390,Note_on_c,9,43,127,
2,4390,Note_on_c,9,45,127,
2,4390,Note_on_c,9,48,127,
2,4390,Note_on_c,9,51,127,
2,4390,Note_on_c,9,53,127,
2,4390,Note_on_c,9,80,127,
2,4390,Note_on_c,9,81,127,
2,4390,Note_on_c,9,82,127,
2,4391,Note_off_c,9,36,0,
2,4392,Note_on_c,9,36,127,
2,4392,Note_on_c,9,37,127,
2,4392,Note_on_c,9,38,127,
2,4392,Note_on_c,9,39,127,
2,4392,Note_on_c,9,41,127,
2,4392,Note_on_c,9,42,127,
2,4392,Note_on_c,9,43,127,
2,4392,Note_on_c,9,45,127,
2,4392,Note_on_c,9,48,127,
2,4392,Note_on_c,9,51,127,
2,4392,Note_on_c,9,53,127,
2,4392,Note_on_c,9,80,127,
2,4392,Note_on_c,9,81,127,
2,4392,Note_on_c,9,82,127,
2,4393,Note_off_c,9,36,0,
2,4394,Note_on_c,9,36,127,
2,4394,Note_on_c,9,37,127,
2,4394,Note_on_c,9,38,127,
2,4394,Note_on_c,9,39,127,
2,4394,Note_on_c,9,41,127,
2,4394,Note_on_c,9,42,127,
2,4394,Note_on_c,9,43,127,
2,4394,Note_on_c,9,45,127,
2,4394,Note_on_c,9,48,127,
2,4394,Note_on_c,9,51,127,
2,4394,Note_on_c,9,53,127,
2,4394,Note_on_c,9,80,127,
2,4394,Note_on_c,9,81,127,
2,4394,Note_on_c,9,82,127,
2,4395,Note_off_c,9,36,0,
2,4396,Note_on_c,9,36,127,
2,4396,Note_on_c,9,37,127,
2,4396,Note_on_c,9,38,127,
2,4396,Note_on_c,9,39,127,
2,4396,Note_on_c,9,41,127,
2,4396,Note_on_c,9,42,127,
2,4396,Note_on_c,9,43,127,
2,4396,Note_on_c,9,45,127,
2,4396,Note_on_c,9,48,127,
2,4396,Note_on_c,9,51,127,
2,4396,Note_on_c,9,53,127,
2,4396,Note_on_c,9,80,127,
2,4396,Note_on_c,9,81,127,
2,4396,Note_on_c,9,82,127,
2,4397,Note_off_c,9,36,0,
2,4398,Note_on_c,9,36,127,
2,4398,Note_on_c,9,37,127,
2,4398,Note_on_c,9,38,127,
2,4398,Note_on_c,9,39,127,
2,4398,Note_on_c,9,41,127,
2,4398,Note_on_c,9,42,127,
2,4398,Note_on_c,9,43,127,
2,4398,Note_on_c,9,45,127,
2,4398,Note_on_c,9,48,127,
2,4398,Note_on_c,9,51,127,
2,4398,Note_on_c,9,53,127,
2,4398,Note_on_c,9,80,127,
2,4398,Note_on_c,9,81,127,
2,4398,Note_on_c,9,82,127,
2,4399,Note_off_c,9,36,0,
2,4400,Note_on_c,9,36,127,
2,4400,Note_on_c,9,37,127,
2,4400,Note_on_c,9,38,127,
2,4400,Note_on_c,9,39,127,
2,4400,Note_on_c,9,41,127,
2,4400,Note_on_c,9,42,127,
2,4400,Note_on_c,9,43,127,
2,4400,Note_on_c,9,45,127,
2,4400,Note_on_c,9,48,127,
2,4400,Note_on_c,9,51,127,
2,4400,Note_on_c,9,53,127,
2,4400,Note_on_c,9,80,127,
2,4400,Note_on_c,9,81,127,
2,4400,Note_on_c,9,82,127,
2,4401,Note_off_c,9,36,0,
2,4402,Note_on_c,9,36,127,
2,4402,Note_on_c,9,37,127,
2,4402,Note_on_c,9,38,127,
2,4402,Note_on_c,9,39,127,
2,4402,Note_on_c,9,41,127,
2,4402,Note_on_c,9,42,127,
2,4402,Note_on_c,9,43,127,
2,4402,Note_on_c,9,45,127,
2,4402,Note_on_c,9,48,127,
2,4402,Note_on_c,9,51,127,
2,4402,Note_on_c,9,53,127,
2,4402,Note_on_c,9,80,127,
2,4402,Note_on_c,9,81,127,
2,4402,Note_on_c,9,82,127,
2,4403,Note_off_c,9,36,0,
2,4404,Note_on_c,9,36,127,
2,4404,Note_on_c,9,37,127,
2,4404,Note_on_c,9,38,127,
2,4404,Note_on_c,9,39,127,
2,4404,Note_on_c,9,41,127,
2,4404,Note_on_c,9,42,127,
2,4404,Note_on_c,9,43,127,
2,4404,Note_on_c,9,45,127,
2,4404,Note_on_c,9,48,127,
2,4404,Note_on_c,9,51,127,
2,4404,Note_on_c,9,53,127,
2,4404,Note_on_c,9,80,127,
2,4404,Note_on_c,9,81,127,
2,4404,Note_on_c,9,82,127,
2,4405,Note_off_c,9,36,0,
2,4406,Note_on_c,9,36,127,
2,4406,Note_on_c,9,37,127,
2,4406,Note_on_c,9,38,127,
2,4406,Note_on_c,9,39,127,
2,4406,Note_on_c,9,41,127,
2,4406,Note_on_c,9,42,127,
2,4406,Note_on_c,9,43,127,
2,4406,Note_on_c,9,45,127,
2,4406,Note_on_c,9,48,127,
2,4406,Note_on_c,9,51,127,
2,4406,Note_on_c,9,53,127,
2,4406,Note_on_c,9,80,127,
2,4406,Note_on_c,9,81,127,
2,4406,Note_on_c,9,82,127,
2,4407,Note_off_c,9,36,0,
2,4408,Note_on_c,9,36,127,
2,4408,Note_on_c,9,37,127,
2,4408,Note_on_c,9,38,127,
2,4408,Note_on_c,9,39,127,
2,4408,Note_on_c,9,41,127,
2,4408,Note_on_c,9,42,127,
2,4408,Note_on_c,9,43,127,
2,4408,Note_on_c,9,45,127,
2,4408,Note_on_c,9,48,127,
2,4408,Note_on_c,9,51,127,
2,4408,Note_on_c,9,53,127,
2,4408,Note_on_c,9,80,127,
2,4408,Note_on_c,9,81,127,
2,4408,Note_on_c,9,82,127,
2,4409,Note_off_c,9,36,0,
2,4410,Note_on_c,9,36,127,
2,4410,Note_on_c,9,37,127,
2,4410,Note_on_c,9,38,127,
2,4410,Note_on_c,9,39,127,
2,4410,Note_on_c,9,41,127,
2,4410,Note_on_c,9,42,127,
2,4410,Note_on_c,9,43,127,
2,4410,Note_on_c,9,45,127,
2,4410,Note_on_c,9,48,127,
2,4410,Note_on_c,9,51,127,
2,4410,Note_on_c,9,53,127,
2,4410,Note_on_c,9,80,127,
2,4410,Note_on_c,9,81,127,
2,4410,Note_on_c,9,82,127,
2,4411,Note_off_c,9,36,0,
2,4412,Note_on_c,9,36,127,
2,4412,Note_on_c,9,37,127,
2,4412,Note_on_c,9,38,127,
2,4412,Note_on_c,9,39,127,
2,4412,Note_on_c,9,41,127,
2,4412,Note_on_c,9,42,127,
2,4412,Note_on_c,9,43,127,
2,4412,Note_on_c,9,45,127,
2,4412,Note_on_c,9,48,127,
2,4412,Note_on_c,9,51,127,
2,4412,Note_on_c,9,53,127,
2,4412,Note_on_c,9,80,127,
2,4412,Note_on_c,9,81,127,
2,4412,Note_on_c,9,82,127,
2,4413,Note_off_c,9,36,0,
2,4414,Note_on_c,9,36,127,
2,4414,Note_on_c,9,37,127,
2,4414,Note_on_c,9,38,127,
2,4414,Note_on_c,9,39,127,
2,4414,Note_on_c,9,41,127,
2,4414,Note_on_c,9,42,127,
2,4414,Note_on_c,9,43,127,
2,4414,Note_on_c,9,45,127,
2,4414,Note_on_c,9,48,127,
2,4414,Note_on_c,9,51,127,
2,4414,Note_on_c,9,53,127,
2,4414,Note_on_c,9,80,127,
2,4414,Note_on_c,9,81,127,
2,4414,Note_on_c,9,82,127,
2,4415,Note_off_c,9,36,0,
2,4416,Note_on_c,9,36,127,
2,4416,Note_on_c,9,37,127,
2,4416,Note_on_c,9,38,127,
2,4416,Note_on_c,9,39,127,
2,4416,Note_on_c,9,41,127,
2,4416,Note_on_c,9,42,127,
2,4416,Note_on_c,9,43,127,
2,4416,Note_on_c,9,45,127,
2,4416,Note_on_c,9,48,127,
2,4416,Note_on_c,9,51,127,
2,4416,Note_on_c,9,53,127,
2,4416,Note_on_c,9,80,127,
2,4416,Note_on_c,9,81,127,
2,4416,Note_on_c,9,82,127,
2,4417,Note_off_c,9,36,0,
2,4418,Note_on_c,9,36,127,
2,4418,Note_on_c,9,37,127,
2,4418,Note_on_c,9,38,127,
2,4418,Note_on_c,9,39,127,
2,4418,Note_on_c,9,41,127,
2,4418,Note_on_c,9,42,127,
2,4418,Note_on_c,9,43,127,
2,4418,Note_on_c,9,45,127,
2,4418,Note_on_c,9,48,127,
2,4418,Note_on_c,9,51,127,
2,4418,Note_on_c,9,53,127,
2,4418,Note_on_c,9,80,127,
2,4418,Note_on_c,9,81,127,
2,4418,Note_on_c,9,82,127,
2,4419,Note_off_c,9,36,0,
2,4420,Note_on_c,9,36,127,
2,4420,Note_on_c,9,37,127,
2,4420,Note_on_c,9,38,127,
2,4420,Note_on_c,9,39,127,
2,4420,Note_on_c,9,41,127,
2,4420,Note_on_c,9,42,127,
2,4420,Note_on_c,9,43,127,
2,4420,Note_on_c,9,45,127,
2,4420,Note_on_c,9,48,127,
2,4420,Note_on_c,9,51,127,
2,4420,Note_on_c,9,53,127,
2,4420,Note_on_c,9,80,127,
2,4420,Note_on_c,9,81,127,
2,4420,Note_on_c,9,82,127,
2,4421,Note_off_c,9,36,0,
2,4422,Note_on_c,9,36,127,
2,4422,Note_on_c,9,37,127,
2,4422,Note_on_c,9,38,127,
2,4422,Note_on_c,9,39,127,
2,4422,Note_on_c,9,41,127,
2,4422,Note_on_c,9,42,127,
2,4422,Note_on_c,9,43,127,
2,4422,Note_on_c,9,45,127,
2,4422,Note_on_c,9,48,127,
2,4422,Note_on_c,9,51,127,
2,4422,Note_on_c,9,53,127,
2,4422,Note_on_c,9,80,127,
2,4422,Note_on_c,9,81,127,
2,4422,Note_on_c,9,82,127,
2,4423,Note_off_c,9,36,0,
2,4424,Note_on_c,9,36,127,
2,4424,Note_on_c,9,37,127,
2,4424,Note_on_c,9,38,127,
2,4424,Note_on_c,9,39,127,
2,4424,Note_on_c,9,41,127,
2,4424,Note_on_c,9,42,127,
2,4424,Note_on_c,9,43,127,
2,4424,Note_on_c,9,45,127,
2,4424,Note_on_c,9,48,127,
2,4424,Note_on_c,9,51,127,
2,4424,Note_on_c,9,53,127,
2,4424,Note_on_c,9,80,127,
2,4424,Note_on_c,9,81,127,
2,4424,Note_on_c,9,82,127,
2,4425,Note_off_c,9,36,0,
2,4426,Note_on_c,9,36,127,
2,4426,Note_on_c,9,37,127,
2,4426,Note_on_c,9,38,127,
2,4426,Note_on_c,9,39,127,
2,4426,Note_on_c,9,41,127,
2,4426,Note_on_c,9,42,127,
2,4426,Note_on_c,9,43,127,
2,4426,Note_on_c,9,45,127,
2,4426,Note_on_c,9,48,127,
2,4426,Note_on_c,9,51,127,
2,4426,Note_on_c,9,53,127,
2,4426,Note_on_c,9,80,127,
2,4426,Note_on_c,9,81,127,
2,4426,Note_on_c,9,82,127,
2,4427,Note_off_c,9,36,0,
2,4428,Note_on_c,9,36,127,
2,4428,Note_on_c,9,37,127,
2,4428,Note_on_c,9,38,127,
2,4428,Note_on_c,9,39,127,
2,4428,Note_on_c,9,41,127,
2,4428,Note_on_c,9,42,127,
2,4428,Note_on_c,9,43,127,
2,4428,Note_on_c,9,45,127,
2,4428,Note_on_c,9,48,127,
2,4428,Note_on_c,9,51,127,
2,4428,Note_on_c,9,53,127,
2,4428,Note_on_c,9,80,127,
2,4428,Note_on_c,9,81,127,
2,4428,Note_on_c,9,82,127,
2,4429,Note_off_c,9,36,0,
2,4430,Note_on_c,9,36,127,
2,4430,Note_on_c,9,37,127,
2,4430,Note_on_c,9,38,127,
2,4430,Note_on_c,9,39,127,
2,4430,Note_on_c,9,41,127,
2,4430,Note_on_c,9,42,127,
2,4430,Note_on_c,9,43,127,
2,4430,Note_on_c,9,45,127,
2,4430,Note_on_c,9,48,127,
2,4430,Note_on_c,9,51,127,
2,4430,Note_on_c,9,53,127,
2,4430,Note_on_c,9,80,127,
2,4430,Note_on_c,9,81,127,
2,4430,Note_on_c,9,82,127,
2,4431,Note_off_c,9,36,0,
2,4432,Note_on_c,9,36,127,
2,4432,Note_on_c,9,37,127,
2,4432,Note_on_c,9,38,127,
2,4432,Note_on_c,9,39,127,
2,4432,Note_on_c,9,41,127,
2,4432,Note_on_c,9,42,127,
2,4432,Note_on_c,9,43,127,
2,4432,Note_on_c,9,45,127,
2,4432,Note_on_c,9,48,127,
2,4432,Note_on_c,9,51,127,
2,4432,Note_on_c,9,53,127,
2,4432,Note_on_c,9,80,127,
2,4432,Note_on_c,9,81,127,
2,4432,Note_on_c,9,82,127,
2,4433,Note_off_c,9,36,0,
2,4434,Note_on_c,9,36,127,
2,4434,Note_on_c,9,37,127,
2,4434,Note_on_c,9,38,127,
2,4434,Note_on_c,9,39,127,
2,4434,Note_on_c,9,41,127,
2,4434,Note_on_c,9,42,127,
2,4434,Note_on_c,9,43,127,
2,4434,Note_on_c,9,45,127,
2,4434,Note_on_c,9,48,127,
2,4434,Note_on_c,9,51,127,
2,4434,Note_on_c,9,53,127,
2,4434,Note_on_c,9,80,127,
2,4434,Note_on_c,9,81,127,
2,4434,Note_on_c,9,82,127,
2,4435,Note_off_c,9,36,0,
2,4436,Note_on_c,9,36,127,
2,4436,Note_on_c,9,37,127,
2,4436,Note_on_c,9,38,127,
2,4436,Note_on_c,9,39,127,
2,4436,Note_on_c,9,41,127,
2,4436,Note_on_c,9,42,127,
2,4436,Note_on_c,9,43,127,
2,4436,Note_on_c,9,45,127,
2,4436,Note_on_c,9,48,127,
2,4436,Note_on_c,9,51,127,
2,4436,Note_on_c,9,53,127,
2,4436,Note_on_c,9,80,127,
2,4436,Note_on_c,9,81,127,
2,4436,Note_on_c,9,82,127,
2,4437,Note_off_c,9,36,0,
2,4438,Note_on_c,9,36,127,
2,4438,Note_on_c,9,37,127,
2,4438,Note_on_c,9,38,127,
2,4438,Note_on_c,9,39,127,
2,4438,Note_on_c,9,41,127,
2,4438,Note_on_c,9,42,127,
2,4438,Note_on_c,9,43,127,
2,4438,Note_on_c,9,45,127,
2,4438,Note_on_c,9,48,127,
2,4438,Note_on_c,9,51,127,
2,4438,Note_on_c,9,53,127,
2,4438,Note_on_c,9,80,127,
2,4438,Note_on_c,9,81,127,
2,4438,Note_on_c,9,82,127,
2,4439,Note_off_c,9,36,0,
2,4440,Note_on_c,9,36,127,
2,4440,Note_on_c,9,37,127,
2,4440,Note_on_c,9,38,127,
2,4440,Note_on_c,9,39,127,
2,4440,Note_on_c,9,41,127,
2,4440,Note_on_c,9,42,127,
2,4440,Note_on_c,9,43,127,
2,4440,Note_on_c,9,45,127,
2,4440,Note_on_c,9,48,127,
2,4440,Note_on_c,9,51,127,
2,4440,Note_on_c,9,53,127,
2,4440,Note_on_c,9,80,127,
2,4440,Note_on_c,9,81,127,
2,4440,Note_on_c,9,82,127,
2,4441,Note_off_c,9,36,0,
2,4442,Note_on_c,9,36,127,
2,4442,Note_on_c,9,37,127,
2,4442,Note_on_c,9,38,127,
2,4442,Note_on_c,9,39,127,
2,4442,Note_on_c,9,41,127,
2,4442,Note_on_c,9,42,127,
2,4442,Note_on_c,9,43,127,
2,4442,Note_on_c,9,45,127,
2,4442,Note_on_c,9,48,127,
2,4442,Note_on_c,9,51,127,
2,4442,Note_on_c,9,53,127,
2,4442,Note_on_c,9,80,127,
2,4442,Note_on_c,9,81,127,
2,4442,Note_on_c,9,82,127,
2,4443,Note_off_c,9,36,0,
2,4444,Note_on_c,9,36,127,
2,4444,Note_on_c,9,37,127,
2,4444,Note_on_c,9,38,127,
2,4444,Note_on_c,9,39,127,
2,4444,Note_on_c,9,41,127,
2,4444,Note_on_c,9,42,127,
2,4444,Note_on_c,9,43,127,
2,4444,Note_on_c,9,45,127,
2,4444,Note_on_c,9,48,127,
2,4444,Note_on_c,9,51,127,
2,4444,Note_on_c,9,53,127,
2,4444,Note_on_c,9,80,127,
2,4444,Note_on_c,9,81,127,
2,4444,Note_on_c,9,82,127,
2,4445,Note_off_c,9,36,0,
2,4446,Note_on_c,9,36,127,
2,4446,Note_on_c,9,37,127,
2,4446,Note_on_c,9,38,127,
2,4446,Note_on_c,9,39,127,
2,4446,Note_on_c,9,41,127,
2,4446,Note_on_c,9,42,127,
2,4446,Note_on_c,9,43,127,
2,4446,Note_on_c,9,45,127,
2,4446,Note_on_c,9,48,127,
2,4446,Note_on_c,9,51,127,
2,4446,Note_on_c,9,53,127,
2,4446,Note_on_c,9,80,127,
2,4446,Note_on_c,9,81,127,
2,4446,Note_on_c,9,82,127,
2,4447,Note_off_c,9,36,0,
2,4448,Note_on_c,9,36,127,
2,4448,Note_on_c,9,37,127,
2,4448,Note_on_c,9,38,127,
2,4448,Note_on_c,9,39,127,
2,4448,Note_on_c,9,41,127,
2,4448,Note_on_c,9,42,127,
2,4448,Note_on_c,9,43,127,
2,4448,Note_on_c,9,45,127,
2,4448,Note_on_c,9,48,127,
2,4448,Note_on_c,9,51,127,
2,4448,Note_on_c,9,53,127,
2,4448,Note_on_c,9,80,127,
2,4448,Note_on_c,9,81,127,
2,4448,Note_on_c,9,82,127,
2,4449,Note_off_c,9,36,0,
2,4450,Note_on_c,9,36,127,
2,4450,Note_on_c,9,37,127,
2,4450,Note_on_c,9,38,127,
2,4450,Note_on_c,9,39,127,
2,4450,Note_on_c,9,41,127,
2,4450,Note_on_c,9,42,127,
2,4450,Note_on_c,9,43,127,
2,4450,Note_on_c,9,45,127,
2,4450,Note_on_c,9,48,127,
2,4450,Note_on_c,9,51,127,
2,4450,Note_on_c,9,53,127,
2,4450,Note_on_c,9,80,127,
2,4450,Note_on_c,9,81,127,
2,4450,Note_on_c,9,82,127,
2,4451,Note_off_c,9,36,0,
2,4452,Note_on_c,9,36,127,
2,4452,Note_on_c,9,37,127,
2,4452,Note_on_c,9,38,127,
2,4452,Note_on_c,9,39,127,
2,4452,Note_on_c,9,41,127,
2,4452,Note_on_c,9,42,127,
2,4452,Note_on_c,9,43,127,
2,4452,Note_on_c,9,45,127,
2,4452,Note_on_c,9,48,127,
2,4452,Note_on_c,9,51,127,
2,4452,Note_on_c,9,53,127,
2,4452,Note_on_c,9,80,127,
2,4452,Note_on_c,9,81,127,
2,4452,Note_on_c,9,82,127,
2,4453,Note_off_c,9,36,0,
2,4454,Note_on_c,9,36,127,
2,4454,Note_on_c,9,37,127,
2,4454,Note_on_c,9,38,127,
2,4454,Note_on_c,9,39,127,
2,4454,Note_on_c,9,41,127,
2,4454,Note_on_c,9,42,127,
2,4454,Note_on_c,9,43,127,
2,4454,Note_on_c,9,45,127,
2,4454,Note_on_c,9,48,127,
2,4454,Note_on_c,9,51,127,
2,4454,Note_on_c,9,53,127,
2,4454,Note_on_c,9,80,127,
2,4454,Note_on_c,9,81,127,
2,4454,Note_on_c,9,82,127,
2,4455,Note_off_c,9,36,0,
2,4456,Note_on_c,9,36,127,
2,4456,Note_on_c,9,37,127,
2,4456,Note_on_c,9,38,127,
2,4456,Note_on_c,9,39,127,
2,4456,Note_on_c,9,41,127,
2,4456,Note_on_c,9,42,127,
2,4456,Note_on_c,9,43,127,
2,4456,Note_on_c,9,45,127,
2,4456,Note_on_c,9,48,127,
2,4456,Note_on_c,9,51,127,
2,4456,Note_on_c,9,53,127,
2,4456,Note_on_c,9,80,127,
2,4456,Note_on_c,9,81,127,
2,4456,Note_on_c,9,82,127,
2,4457,Note_off_c,9,36,0,
2,4458,Note_on_c,9,36,127,
2,4458,Note_on_c,9,37,127,
2,4458,Note_on_c,9,38,127,
2,4458,Note_on_c,9,39,127,
2,4458,Note_on_c,9,41,127,
2,4458,Note_on_c,9,42,127,
2,4458,Note_on_c,9,43,127,
2,4458,Note_on_c,9,45,127,
2,4458,Note_on_c,9,48,127,
2,4458,Note_on_c,9,51,127,
2,4458,Note_on_c,9,53,127,
2,4458,Note_on_c,9,80,127,
2,4458,Note_on_c,9,81,127,
2,4458,Note_on_c,9,82,127,
2,4459,Note_off_c,9,36,0,
2,4460,Note_on_c,9,36,127,
2,4460,Note_on_c,9,37,127,
2,4460,Note_on_c,9,38,127,
2,4460,Note_on_c,9,39,127,
2,4460,Note_on_c,9,41,127,
2,4460,Note_on_c,9,42,127,
2,4460,Note_on_c,9,43,127,
2,4460,Note_on_c,9,45,127,
2,4460,Note_on_c,9,48,127,
2,4460,Note_on_c,9,51,127,
2,4460,Note_on_c,9,53,127,
2,4460,Note_on_c,9,80,127,
2,4460,Note_on_c,9,81,127,
2,4460,Note_on_c,9,82,127,
2,4461,Note_off_c,9,36,0,
2,4462,Note_on_c,9,36,127,
2,4462,Note_on_c,9,37,127,
2,4462,Note_on_c,9,38,127,
2,4462,Note_on_c,9,39,127,
2,4462,Note_on_c,9,41,127,
2,4462,Note_on_c,9,42,127,
2,4462,Note_on_c,9,43,127,
2,4462,Note_on_c,9,45,127,
2,4462,Note_on_c,9,48,127,
2,4462,Note_on_c,9,51,127,
2,4462,Note_on_c,9,53,127,
2,4462,Note_on_c,9,80,127,
2,4462,Note_on_c,9,81,127,
2,4462,Note_on_c,9,82,127,
2,4463,Note_off_c,9,36,0,
2,4464,Note_on_c,9,36,127,
2,4464,Note_on_c,9,37,127,
2,4464,Note_on_c,9,38,127,
2,4464,Note_on_c,9,39,127,
2,4464,Note_on_c,9,41,127,
2,4464,Note_on_c,9,42,127,
2,4464,Note_on_c,9,43,127,
2,4464,Note_on_c,9,45,127,
2,4464,Note_on_c,9,48,127,
2,4464,Note_on_c,9,51,127,
2,4464,Note_on_c,9,53,127,
2,4464,Note_on_c,9,80,127,
2,4464,Note_on_c,9,81,127,
2,4464,Note_on_c,9,82,127,
2,4465,Note_off_c,9,36,0,
2,4466,Note_on_c,9,36,127,
2,4466,Note_on_c,9,37,127,
2,4466,Note_on_c,9,38,127,
2,4466,Note_on_c,9,39,127,
2,4466,Note_on_c,9,41,127,
2,4466,Note_on_c,9,42,127,
2,4466,Note_on_c,9,43,127,
2,4466,Note_on_c,9,45,127,
2,4466,Note_on_c,9,48,127,
2,4466,Note_on_c,9,51,127,
2,4466,Note_on_c,9,53,127,
2,4466,Note_on_c,9,80,127,
2,4466,Note_on_c,9,81,127,
2,4466,Note_on_c,9,82,127,
2,4467,Note_off_c,9,36,0,
2,4468,Note_on_c,9,36,127,
2,4468,Note_on_c,9,37,127,
2,4468,Note_on_c,9,38,127,
2,4468,Note_on_c,9,39,127,
2,4468,Note_on_c,9,41,127,
2,4468,Note_on_c,9,42,127,
2,4468,Note_on_c,9,43,127,
2,4468,Note_on_c,9,45,127,
2,4468,Note_on_c,9,48,127,
2,4468,Note_on_c,9,51,127,
2,4468,Note_on_c,9,53,127,
2,4468,Note_on_c,9,80,127,
2,4468,Note_on_c,9,81,127,
2,4468,Note_on_c,9,82,127,
2,4469,Note_off_c,9,36,0,
2,4470,Note_on_c,9,36,127,
2,4470,Note_on_c,9,37,127,
2,4470,Note_on_c,9,38,127,
2,4470,Note_on_c,9,39,127,
2,4470,Note_on_c,9,41,127,
2,4470,Note_on_c,9,42,127,
2,4470,Note_on_c,9,43,127,
2,4470,Note_on_c,9,45,127,
2,4470,Note_on_c,9,48,127,
2,4470,Note_on_c,9,51,127,
2,4470,Note_on_c,9,53,127,
2,4470,Note_on_c,9,80,127,
2,4470,Note_on_c,9,81,127,
2,4470,Note_on_c,9,82,127,
2,4471,Note_off_c,9,36,0,
2,4472,Note_on_c,9,36,127,
2,4472,Note_on_c,9,37,127,
2,4472,Note_on_c,9,38,127,
2,4472,Note_on_c,9,39,127,
2,4472,Note_on_c,9,41,127,
2,4472,Note_on_c,9,42,127,
2,4472,Note_on_c,9,43,127,
2,4472,Note_on_c,9,45,127,
2,4472,Note_on_c,9,48,127,
2,4472,Note_on_c,9,51,127,
2,4472,Note_on_c,9,53,127,
2,4472,Note_on_c,9,80,127,
2,4472,Note_on_c,9,81,127,
2,4472,Note_on_c,9,82,127,
2,4473,Note_off_c,9,36,0,
2,4474,Note_on_c,9,36,127,
2,4474,Note_on_c,9,37,127,
2,4474,Note_on_c,9,38,127,
2,4474,Note_on_c,9,39,127,
2,4474,Note_on_c,9,41,127,
2,4474,Note_on_c,9,42,127,
2,4474,Note_on_c,9,43,127,
2,4474,Note_on_c,9,45,127,
2,4474,Note_on_c,9,48,127,
2,4474,Note_on_c,9,51,127,
2,4474,Note_on_c,9,53,127,
2,4474,Note_on_c,9,80,127,
2,4474,Note_on_c,9,81,127,
2,4474,Note_on_c,9,82,127,
2,4475,Note_off_c,9,36,0,
2,4476,Note_on_c,9,36,127,
2,4476,Note_on_c,9,37,127,
2,4476,Note_on_c,9,38,127,
2,4476,Note_on_c,9,39,127,
2,4476,Note_on_c,9,41,127,
2,4476,Note_on_c,9,42,127,
2,4476,Note_on_c,9,43,127,
2,4476,Note_on_c,9,45,127,
2,4476,Note_on_c,9,48,127,
2,4476,Note_on_c,9,51,127,
2,4476,Note_on_c,9,53,127,
2,4476,Note_on_c,9,80,127,
2,4476,Note_on_c,9,81,127,
2,4476,Note_on_c,9,82,127,
2,4477,Note_off_c,9,36,0,
2,4478,Note_on_c,9,36,127,
2,4478,Note_on_c,9,37,127,
2,4478,Note_on_c,9,38,127,
2,4478,Note_on_c,9,39,127,
2,4478,Note_on_c,9,41,127,
2,4478,Note_on_c,9,42,127,
2,4478,Note_on_c,9,43,127,
2,4478,Note_on_c,9,45,127,
2,4478,Note_on_c,9,48,127,
2,4478,Note_on_c,9,51,127,
2,4478,Note_on_c,9,53,127,
2,4478,Note_on_c,9,80,127,
2,4478,Note_on_c,9,81,127,
2,4478,Note_on_c,9,82,127,
2,4479,Note_off_c,9,36,0,
2,4480,Note_on_c,9,36,127,
2,4480,Note_on_c,9,37,127,
2,4480,Note_on_c,9,38,127,
2,4480,Note_on_c,9,39,127,
2,4480,Note_on_c,9,41,127,
2,4480,Note_on_c,9,42,127,
2,4480,Note_on_c,9,43,127,
2,4480,Note_on_c,9,45,127,
2,4480,Note_on_c,9,48,127,
2,4480,Note_on_c,9,51,127,
2,4480,Note_on_c,9,53,127,
2,4480,Note_on_c,9,80,127,
2,4480,Note_on_c,9,81,127,
2,4480,Note_on_c,9,82,127,
2,4481,Note_off_c,9,36,0,
2,4482,Note_on_c,9,36,127,
2,4482,Note_on_c,9,37,127,
2,4482,Note_on_c,9,38,127,
2,4482,Note_on_c,9,39,127,
2,4482,Note_on_c,9,41,127,
2,4482,Note_on_c,9,42,127,
2,4482,Note_on_c,9,43,127,
2,4482,Note_on_c,9,45,127,
2,4482,Note_on_c,9,48,127,
2,4482,Note_on_c,9,51,127,
2,4482,Note_on_c,9,53,127,
2,4482,Note_on_c,9,80,127,
2,4482,Note_on_c,9,81,127,
2,4482,Note_on_c,9,82,127,
2,4483,Note_off_c,9,36,0,
2,4484,Note_on_c,9,36,127,
2,4484,Note_on_c,9,37,127,
2,4484,Note_on_c,9,38,127,
2,4484,Note_on_c,9,39,127,
2,4484,Note_on_c,9,41,127,
2,4484,Note_on_c,9,42,127,
2,4484,Note_on_c,9,43,127,
2,4484,Note_on_c,9,45,127,
2,4484,Note_on_c,9,48,127,
2,4484,Note_on_c,9,51,127,
2,4484,Note_on_c,9,53,127,
2,4484,Note_on_c,9,80,127,
2,4484,Note_on_c,9,81,127,
2,4484,Note_on_c,9,82,127,
2,4485,Note_off_c,9,36,0,
2,4486,Note_on_c,9,36,127,
2,4486,Note_on_c,9,37,127,
2,4486,Note_on_c,9,38,127,
2,4486,Note_on_c,9,39,127,
2,4486,Note_on_c,9,41,127,
2,4486,Note_on_c,9,42,127,
2,4486,Note_on_c,9,43,127,
2,4486,Note_on_c,9,45,127,
2,4486,Note_on_c,9,48,127,
2,4486,Note_on_c,9,51,127,
2,4486,Note_on_c,9,53,127,
2,4486,Note_on_c,9,80,127,
2,4486,Note_on_c,9,81,127,
2,4486,Note_on_c,9,82,127,
2,4487,Note_off_c,9,36,0,
2,4488,Note_on_c,9,36,127,
2,4488,Note_on_c,9,37,127,
2,4488,Note_on_c,9,38,127,
2,4488,Note_on_c,9,39,127,
2,4488,Note_on_c,9,41,127,
2,4488,Note_on_c,9,42,127,
2,4488,Note_on_c,9,43,127,
2,4488,Note_on_c,9,45,127,
2,4488,Note_on_c,9,48,127,
2,4488,Note_on_c,9,51,127,
2,4488,Note_on_c,9,53,127,
2,4488,Note_on_c,9,80,127,
2,4488,Note_on_c,9,81,127,
2,4488,Note_on_c,9,82,127,
2,4489,Note_off_c,9,36,0,
2,4490,Note_on_c,9,36,127,
2,4490,Note_on_c,9,37,127,
2,4490,Note_on_c,9,38,127,
2,4490,Note_on_c,9,39,127,
2,4490,Note_on_c,9,41,127,
2,4490,Note_on_c,9,42,127,
2,4490,Note_on_c,9,43,127,
2,4490,Note_on_c,9,45,127,
2,4490,Note_on_c,9,48,127,
2,4490,Note_on_c,9,51,127,
2,4490,Note_on_c,9,53,127,
2,4490,Note_on_c,9,80,127,
2,4490,Note_on_c,9,81,127,
2,4490,Note_on_c,9,82,127,
2,4491,Note_off_c,9,36,0,
2,4492,Note_on_c,9,36,127,
2,4492,Note_on_c,9,37,127,
2,4492,Note_on_c,9,38,127,
2,4492,Note_on_c,9,39,127,
2,4492,Note_on_c,9,41,127,
2,4492,Note_on_c,9,42,127,
2,4492,Note_on_c,9,43,127,
2,4492,Note_on_c,9,45,127,
2,4492,Note_on_c,9,48,127,
2,4492,Note_on_c,9,51,127,
2,4492,Note_on_c,9,53,127,
2,4492,Note_on_c,9,80,127,
2,4492,Note_on_c,9,81,127,
2,4492,Note_on_c,9,82,127,
2,4493,Note_off_c,9,36,0,
2,4494,Note_on_c,9,36,127,
2,4494,Note_on_c,9,37,127,
2,4494,Note_on_c,9,38,127,
2,4494,Note_on_c,9,39,127,
2,4494,Note_on_c,9,41,127,
2,4494,Note_on_c,9,42,127,
2,4494,Note_on_c,9,43,127,
2,4494,Note_on_c,9,45,127,
2,4494,Note_on_c,9,48,127,
2,4494,Note_on_c,9,51,127,
2,4494,Note_on_c,9,53,127,
2,4494,Note_on_c,9,80,127,
2,4494,Note_on_c,9,81,127,
2,4494,Note_on_c,9,82,127,
2,4495,Note_off_c,9,36,0,
2,4496,Note_on_c,9,36,127,
2,4496,Note_on_c,9,37,127,
2,4496,Note_on_c,9,38,127,
2,4496,Note_on_c,9,39,127,
2,4496,Note_on_c,9,41,127,
2,4496,Note_on_c,9,42,127,
2,4496,Note_on_c,9,43,127,
2,4496,Note_on_c,9,45,127,
2,4496,Note_on_c,9,48,127,
2,4496,Note_on_c,9,51,127,
2,4496,Note_on_c,9,53,127,
2,4496,Note_on_c,9,80,127,
2,4496,Note_on_c,9,81,127,
2,4496,Note_on_c,9,82,127,
2,4497,Note_off_c,9,36,0,
2,4498,Note_on_c,9,36,127,
2,4498,Note_on_c,9,37,127,
2,4498,Note_on_c,9,38,127,
2,4498,Note_on_c,9,39,127,
2,4498,Note_on_c,9,41,127,
2,4498,Note_on_c,9,42,127,
2,4498,Note_on_c,9,43,127,
2,4498,Note_on_c,9,45,127,
2,4498,Note_on_c,9,48,127,
2,4498,Note_on_c,9,51,127,
2,4498,Note_on_c,9,53,127,
2,4498,Note_on_c,9,80,127,
2,4498,Note_on_c,9,81,127,
2,4498,Note_on_c,9,82,127,
2,4499,Note_off_c,9,36,0,
2,4500,Note_on_c,9,36,127,
2,4500,Note_on_c,9,37,127,
2,4500,Note_on_c,9,38,127,
2,4500,Note_on_c,9,39,127,
2,4500,Note_on_c,9,41,127,
2,4500,Note_on_c,9,42,127,
2,4500,Note_on_c,9,43,127,
2,4500,Note_on_c,9,45,127,
2,4500,Note_on_c,9,48,127,
2,4500,Note_on_c,9,51,127,
2,4500,Note_on_c,9,53,127,
2,4500,Note_on_c,9,80,127,
2,4500,Note_on_c,9,81,127,
2,4500,Note_on_c,9,82,127,
2,4501,Note_off_c,9,36,0,
2,4502,Note_on_c,9,36,127,
2,4502,Note_on_c,9,37,127,
2,4502,Note_on_c,9,38,127,
2,4502,Note_on_c,9,39,127,
2,4502,Note_on_c,9,41,127,
2,4502,Note_on_c,9,42,127,
2,4502,Note_on_c,9,43,127,
2,4502,Note_on_c,9,45,127,
2,4502,Note_on_c,9,48,127,
2,4502,Note_on_c,9,51,127,
2,4502,Note_on_c,9,53,127,
2,4502,Note_on_c,9,80,127,
2,4502,Note_on_c,9,81,127,
2,4502,Note_on_c,9,82,127,
2,4503,Note_off_c,9,36,0,
2,4504,Note_on_c,9,36,127,
2,4504,Note_on_c,9,37,127,
2,4504,Note_on_c,9,38,127,
2,4504,Note_on_c,9,39,127,
2,4504,Note_on_c,9,41,127,
2,4504,Note_on_c,9,42,127,
2,4504,Note_on_c,9,43,127,
2,4504,Note_on_c,9,45,127,
2,4504,Note_on_c,9,48,127,
2,4504,Note_on_c,9,51,127,
2,4504,Note_on_c,9,53,127,
2,4504,Note_on_c,9,80,127,
2,4504,Note_on_c,9,81,127,
2,4504,Note_on_c,9,82,127,
2,4505,Note_off_c,9,36,0,
2,4506,Note_on_c,9,36,127,
2,4506,Note_on_c,9,37,127,
2,4506,Note_on_c,9,38,127,
2,4506,Note_on_c,9,39,127,
2,4506,Note_on_c,9,41,127,
2,4506,Note_on_c,9,42,127,
2,4506,Note_on_c,9,43,127,
2,4506,Note_on_c,9,45,127,
2,4506,Note_on_c,9,48,127,
2,4506,Note_on_c,9,51,127,
2,4506,Note_on_c,9,53,127,
2,4506,Note_on_c,9,80,127,
2,4506,Note_on_c,9,81,127,
2,4506,Note_on_c,9,82,127,
2,4507,Note_off_c,9,36,0,
2,4508,Note_on_c,9,36,127,
2,4508,Note_on_c,9,37,127,
2,4508,Note_on_c,9,38,127,
2,4508,Note_on_c,9,39,127,
2,4508,Note_on_c,9,41,127,
2,4508,Note_on_c,9,42,127,
2,4508,Note_on_c,9,43,127,
2,4508,Note_on_c,9,45,127,
2,4508,Note_on_c,9,48,127,
2,4508,Note_on_c,9,51,127,
2,4508,Note_on_c,9,53,127,
2,4508,Note_on_c,9,80,127,
2,4508,Note_on_c,9,81,127,
2,4508,Note_on_c,9,82,127,
2,4509,Note_off_c,9,36,0,
2,4510,Note_on_c,9,36,127,
2,4510,Note_on_c,9,37,127,
2,4510,Note_on_c,9,38,127,
2,4510,Note_on_c,9,39,127,
2,4510,Note_on_c,9,41,127,
2,4510,Note_on_c,9,42,127,
2,4510,Note_on_c,9,43,127,
2,4510,Note_on_c,9,45,127,
2,4510,Note_on_c,9,48,127,
2,4510,Note_on_c,9,51,127,
2,4510,Note_on_c,9,53,127,
2,4510,Note_on_c,9,80,127,
2,4510,Note_on_c,9,81,127,
2,4510,Note_on_c,9,82,127,
2,4511,Note_off_c,9,36,0,
2,4512,Note_on_c,9,36,127,
2,4512,Note_on_c,9,37,127,
2,4512,Note_on_c,9,38,127,
2,4512,Note_on_c,9,39,127,
2,4512,Note_on_c,9,41,127,
2,4512,Note_on_c,9,42,127,
2,4512,Note_on_c,9,43,127,
2,4512,Note_on_c,9,45,127,
2,4512,Note_on_c,9,48,127,
2,4512,Note_on_c,9,51,127,
2,4512,Note_on_c,9,53,127,
2,4512,Note_on_c,9,80,127,
2,4512,Note_on_c,9,81,127,
2,4512,Note_on_c,9,82,127,
2,4513,Note_off_c,9,36,0,
2,4514,Note_on_c,9,36,127,
2,4514,Note_on_c,9,37,127,
2,4514,Note_on_c,9,38,127,
2,4514,Note_on_c,9,39,127,
2,4514,Note_on_c,9,41,127,
2,4514,Note_on_c,9,42,127,
2,4514,Note_on_c,9,43,127,
2,4514,Note_on_c,9,45,127,
2,4514,Note_on_c,9,48,127,
2,4514,Note_on_c,9,51,127,
2,4514,Note_on_c,9,53,127,
2,4514,Note_on_c,9,80,127,
2,4514,Note_on_c,9,81,127,
2,4514,Note_on_c,9,82,127,
2,4515,Note_off_c,9,36,0,
2,4516,Note_on_c,9,36,127,
2,4516,Note_on_c,9,37,127,
2,4516,Note_on_c,9,38,127,
2,4516,Note_on_c,9,39,127,
2,4516,Note_on_c,9,41,127,
2,4516,Note_on_c,9,42,127,
2,4516,Note_on_c,9,43,127,
2,4516,Note_on_c,9,45,127,
2,4516,Note_on_c,9,48,127,
2,4516,Note_on_c,9,51,127,
2,4516,Note_on_c,9,53,127,
2,4516,Note_on_c,9,80,127,
2,4516,Note_on_c,9,81,127,
2,4516,Note_on_c,9,82,127,
2,4517,Note_off_c,9,36,0,
2,4518,Note_on_c,9,36,127,
2,4518,Note_on_c,9,37,127,
2,4518,Note_on_c,9,38,127,
2,4518,Note_on_c,9,39,127,
2,4518,Note_on_c,9,41,127,
2,4518,Note_on_c,9,42,127,
2,4518,Note_on_c,9,43,127,
2,4518,Note_on_c,9,45,127,
2,4518,Note_on_c,9,48,127,
2,4518,Note_on_c,9,51,127,
2,4518,Note_on_c,9,53,127,
2,4518,Note_on_c,9,80,127,
2,4518,Note_on_c,9,81,127,
2,4518,Note_on_c,9,82,127,
2,4519,Note_off_c,9,36,0,
2,4520,Note_on_c,9,36,127,
2,4520,Note_on_c,9,37,127,
2,4520,Note_on_c,9,38,127,
2,4520,Note_on_c,9,39,127,
2,4520,Note_on_c,9,41,127,
2,4520,Note_on_c,9,42,127,
2,4520,Note_on_c,9,43,127,
2,4520,Note_on_c,9,45,127,
2,4520,Note_on_c,9,48,127,
2,4520,Note_on_c,9,51,127,
2,4520,Note_on_c,9,53,127,
2,4520,Note_on_c,9,80,127,
2,4520,Note_on_c,9,81,127,
2,4520,Note_on_c,9,82,127,
2,4521,Note_off_c,9,36,0,
2,4522,Note_on_c,9,36,127,
2,4522,Note_on_c,9,37,127,
2,4522,Note_on_c,9,38,127,
2,4522,Note_on_c,9,39,127,
2,4522,Note_on_c,9,41,127,
2,4522,Note_on_c,9,42,127,
2,4522,Note_on_c,9,43,127,
2,4522,Note_on_c,9,45,127,
2,4522,Note_on_c,9,48,127,
2,4522,Note_on_c,9,51,127,
2,4522,Note_on_c,9,53,127,
2,4522,Note_on_c,9,80,127,
2,4522,Note_on_c,9,81,127,
2,4522,Note_on_c,9,82,127,
2,4523,Note_off_c,9,36,0,
2,4524,Note_on_c,9,36,127,
2,4524,Note_on_c,9,37,127,
2,4524,Note_on_c,9,38,127,
2,4524,Note_on_c,9,39,127,
2,4524,Note_on_c,9,41,127,
2,4524,Note_on_c,9,42,127,
2,4524,Note_on_c,9,43,127,
2,4524,Note_on_c,9,45,127,
2,4524,Note_on_c,9,48,127,
2,4524,Note_on_c,9,51,127,
2,4524,Note_on_c,9,53,127,
2,4524,Note_on_c,9,80,127,
2,4524,Note_on_c,9,81,127,
2,4524,Note_on_c,9,82,127,
2,4525,Note_off_c,9,36,0,
2,4526,Note_on_c,9,36,127,
2,4526,Note_on_c,9,37,127,
2,4526,Note_on_c,9,38,127,
2,4526,Note_on_c,9,39,127,
2,4526,Note_on_c,9,41,127,
2,4526,Note_on_c,9,42,127,
2,4526,Note_on_c,9,43,127,
2,4526,Note_on_c,9,45,127,
2,4526,Note_on_c,9,48,127,
2,4526,Note_on_c,9,51,127,
2,4526,Note_on_c,9,53,127,
2,4526,Note_on_c,9,80,127,
2,4526,Note_on_c,9,81,127,
2,4526,Note_on_c,9,82,127,
2,4527,Note_off_c,9,36,0,
2,4528,Note_on_c,9,36,127,
2,4528,Note_on_c,9,37,127,
2,4528,Note_on_c,9,38,127,
2,4528,Note_on_c,9,39,127,
2,4528,Note_on_c,9,41,127,
2,4528,Note_on_c,9,42,127,
2,4528,Note_on_c,9,43,127,
2,4528,Note_on_c,9,45,127,
2,4528,Note_on_c,9,48,127,
2,4528,Note_on_c,9,51,127,
2,4528,Note_on_c,9,53,127,
2,4528,Note_on_c,9,80,127,
2,4528,Note_on_c,9,81,127,
2,4528,Note_on_c,9,82,127,
2,4529,Note_off_c,9,36,0,
2,4530,Note_on_c,9,36,127,
2,4530,Note_on_c,9,37,127,
2,4530,Note_on_c,9,38,127,
2,4530,Note_on_c,9,39,127,
2,4530,Note_on_c,9,41,127,
2,4530,Note_on_c,9,42,127,
2,4530,Note_on_c,9,43,127,
2,4530,Note_on_c,9,45,127,
2,4530,Note_on_c,9,48,127,
2,4530,Note_on_c,9,51,127,
2,4530,Note_on_c,9,53,127,
2,4530,Note_on_c,9,80,127,
2,4530,Note_on_c,9,81,127,
2,4530,Note_on_c,9,82,127,
2,4531,Note_off_c,9,36,0,
2,4532,Note_on_c,9,36,127,
2,4532,Note_on_c,9,37,127,
2,4532,Note_on_c,9,38,127,
2,4532,Note_on_c,9,39,127,
2,4532,Note_on_c,9,41,127,
2,4532,Note_on_c,9,42,127,
2,4532,Note_on_c,9,43,127,
2,4532,Note_on_c,9,45,127,
2,4532,Note_on_c,9,48,127,
2,4532,Note_on_c,9,51,127,
2,4532,Note_on_c,9,53,127,
2,4532,Note_on_c,9,80,127,
2,4532,Note_on_c,9,81,127,
2,4532,Note_on_c,9,82,127,
2,4533,Note_off_c,9,36,0,
2,4534,Note_on_c,9,36,127,
2,4534,Note_on_c,9,37,127,
2,4534,Note_on_c,9,38,127,
2,4534,Note_on_c,9,39,127,
2,4534,Note_on_c,9,41,127,
2,4534,Note_on_c,9,42,127,
2,4534,Note_on_c,9,43,127,
2,4534,Note_on_c,9,45,127,
2,4534,Note_on_c,9,48,127,
2,4534,Note_on_c,9,51,127,
2,4534,Note_on_c,9,53,127,
2,4534,Note_on_c,9,80,127,
2,4534,Note_on_c,9,81,127,
2,4534,Note_on_c,9,82,127,
2,4535,Note_off_c,9,36,0,
2,4536,Note_on_c,9,36,127,
2,4536,Note_on_c,9,37,127,
2,4536,Note_on_c,9,38,127,
2,4536,Note_on_c,9,39,127,
2,4536,Note_on_c,9,41,127,
2,4536,Note_on_c,9,42,127,
2,4536,Note_on_c,9,43,127,
2,4536,Note_on_c,9,45,127,
2,4536,Note_on_c,9,48,127,
2,4536,Note_on_c,9,51,127,
2,4536,Note_on_c,9,53,127,
2,4536,Note_on_c,9,80,127,
2,4536,Note_on_c,9,81,127,
2,4536,Note_on_c,9,82,127,
2,4537,Note_off_c,9,36,0,
2,4538,Note_on_c,9,36,127,
2,4538,Note_on_c,9,37,127,
2,4538,Note_on_c,9,38,127,
2,4538,Note_on_c,9,39,127,
2,4538,Note_on_c,9,41,127,
2,4538,Note_on_c,9,42,127,
2,4538,Note_on_c,9,43,127,
2,4538,Note_on_c,9,45,127,
2,4538,Note_on_c,9,48,127,
2,4538,Note_on_c,9,51,127,
2,4538,Note_on_c,9,53,127,
2,4538,Note_on_c,9,80,127,
2,4538,Note_on_c,9,81,127,
2,4538,Note_on_c,9,82,127,
2,4539,Note_off_c,9,36,0,
2,4540,Note_on_c,9,36,127,
2,4540,Note_on_c,9,37,127,
2,4540,Note_on_c,9,38,127,
2,4540,Note_on_c,9,39,127,
2,4540,Note_on_c,9,41,127,
2,4540,Note_on_c,9,42,127,
2,4540,Note_on_c,9,43,127,
2,4540,Note_on_c,9,45,127,
2,4540,Note_on_c,9,48,127,
2,4540,Note_on_c,9,51,127,
2,4540,Note_on_c,9,53,127,
2,4540,Note_on_c,9,80,127,
2,4540,Note_on_c,9,81,127,
2,4540,Note_on_c,9,82,127,
2,4541,Note_off_c,9,36,0,
2,4542,Note_on_c,9,36,127,
2,4542,Note_on_c,9,37,127,
2,4542,Note_on_c,9,38,127,
2,4542,Note_on_c,9,39,127,
2,4542,Note_on_c,9,41,127,
2,4542,Note_on_c,9,42,127,
2,4542,Note_on_c,9,43,127,
2,4542,Note_on_c,9,45,127,
2,4542,Note_on_c,9,48,127,
2,4542,Note_on_c,9,51,127,
2,4542,Note_on_c,9,53,127,
2,4542,Note_on_c,9,80,127,
2,4542,Note_on_c,9,81,127,
2,4542,Note_on_c,9,82,127,
2,4543,Note_off_c,9,36,0,
2,4544,Note_on_c,9,36,127,
2,4544,Note_on_c,9,37,127,
2,4544,Note_on_c,9,38,127,
2,4544,Note_on_c,9,39,127,
2,4544,Note_on_c,9,41,127,
2,4544,Note_on_c,9,42,127,
2,4544,Note_on_c,9,43,127,
2,4544,Note_on_c,9,45,127,
2,4544,Note_on_c,9,48,127,
2,4544,Note_on_c,9,51,127,
2,4544,Note_on_c,9,53,127,
2,4544,Note_on_c,9,80,127,
2,4544,Note_on_c,9,81,127,
2,4544,Note_on_c,9,82,127,
2,4545,Note_off_c,9,36,0,
2,4546,Note_on_c,9,36,127,
2,4546,Note_on_c,9,37,127,
2,4546,Note_on_c,9,38,127,
2,4546,Note_on_c,9,39,127,
2,4546,Note_on_c,9,41,127,
2,4546,Note_on_c,9,42,127,
2,4546,Note_on_c,9,43,127,
2,4546,Note_on_c,9,45,127,
2,4546,Note_on_c,9,48,127,
2,4546,Note_on_c,9,51,127,
2,4546,Note_on_c,9,53,127,
2,4546,Note_on_c,9,80,127,
2,4546,Note_on_c,9,81,127,
2,4546,Note_on_c,9,82,127,
2,4547,Note_off_c,9,36,0,
2,4548,Note_on_c,9,36,127,
2,4548,Note_on_c,9,37,127,
2,4548,Note_on_c,9,38,127,
2,4548,Note_on_c,9,39,127,
2,4548,Note_on_c,9,41,127,
2,4548,Note_on_c,9,42,127,
2,4548,Note_on_c,9,43,127,
2,4548,Note_on_c,9,45,127,
2,4548,Note_on_c,9,48,127,
2,4548,Note_on_c,9,51,127,
2,4548,Note_on_c,9,53,127,
2,4548,Note_on_c,9,80,127,
2,4548,Note_on_c,9,81,127,
2,4548,Note_on_c,9,82,127,
2,4549,Note_off_c,9,36,0,
2,4550,Note_on_c,9,36,127,
2,4550,Note_on_c,9,37,127,
2,4550,Note_on_c,9,38,127,
2,4550,Note_on_c,9,39,127,
2,4550,Note_on_c,9,41,127,
2,4550,Note_on_c,9,42,127,
2,4550,Note_on_c,9,43,127,
2,4550,Note_on_c,9,45,127,
2,4550,Note_on_c,9,48,127,
2,4550,Note_on_c,9,51,127,
2,4550,Note_on_c,9,53,127,
2,4550,Note_on_c,9,80,127,
2,4550,Note_on_c,9,81,127,
2,4550,Note_on_c,9,82,127,
2,4551,Note_off_c,9,36,0,
2,4552,Note_on_c,9,36,127,
2,4552,Note_on_c,9,37,127,
2,4552,Note_on_c,9,38,127,
2,4552,Note_on_c,9,39,127,
2,4552,Note_on_c,9,41,127,
2,4552,Note_on_c,9,42,127,
2,4552,Note_on_c,9,43,127,
2,4552,Note_on_c,9,45,127,
2,4552,Note_on_c,9,48,127,
2,4552,Note_on_c,9,51,127,
2,4552,Note_on_c,9,53,127,
2,4552,Note_on_c,9,80,127,
2,4552,Note_on_c,9,81,127,
2,4552,Note_on_c,9,82,127,
2,4553,Note_off_c,9,36,0,
2,4554,Note_on_c,9,36,127,
2,4554,Note_on_c,9,37,127,
2,4554,Note_on_c,9,38,127,
2,4554,Note_on_c,9,39,127,
2,4554,Note_on_c,9,41,127,
2,4554,Note_on_c,9,42,127,
2,4554,Note_on_c,9,43,127,
2,4554,Note_on_c,9,45,127,
2,4554,Note_on_c,9,48,127,
2,4554,Note_on_c,9,51,127,
2,4554,Note_on_c,9,53,127,
2,4554,Note_on_c,9,80,127,
2,4554,Note_on_c,9,81,127,
2,4554,Note_on_c,9,82,127,
2,4555,Note_off_c,9,36,0,
2,4556,Note_on_c,9,36,127,
2,4556,Note_on_c,9,37,127,
2,4556,Note_on_c,9,38,127,
2,4556,Note_on_c,9,39,127,
2,4556,Note_on_c,9,41,127,
2,4556,Note_on_c,9,42,127,
2,4556,Note_on_c,9,43,127,
2,4556,Note_on_c,9,45,127,
2,4556,Note_on_c,9,48,127,
2,4556,Note_on_c,9,51,127,
2,4556,Note_on_c,9,53,127,
2,4556,Note_on_c,9,80,127,
2,4556,Note_on_c,9,81,127,
2,4556,Note_on_c,9,82,127,
2,4557,Note_off_c,9,36,0,
2,4558,Note_on_c,9,36,127,
2,4558,Note_on_c,9,37,127,
2,4558,Note_on_c,9,38,127,
2,4558,Note_on_c,9,39,127,
2,4558,Note_on_c,9,41,127,
2,4558,Note_on_c,9,42,127,
2,4558,Note_on_c,9,43,127,
2,4558,Note_on_c,9,45,127,
2,4558,Note_on_c,9,48,127,
2,4558,Note_on_c,9,51,127,
2,4558,Note_on_c,9,53,127,
2,4558,Note_on_c,9,80,127,
2,4558,Note_on_c,9,81,127,
2,4558,Note_on_c,9,82,127,
2,4559,Note_off_c,9,36,0,
2,4560,Note_on_c,9,36,127,
2,4560,Note_on_c,9,37,127,
2,4560,Note_on_c,9,38,127,
2,4560,Note_on_c,9,39,127,
2,4560,Note_on_c,9,41,127,
2,4560,Note_on_c,9,42,127,
2,4560,Note_on_c,9,43,127,
2,4560,Note_on_c,9,45,127,
2,4560,Note_on_c,9,48,127,
2,4560,Note_on_c,9,51,127,
2,4560,Note_on_c,9,53,127,
2,4560,Note_on_c,9,80,127,
2,4560,Note_on_c,9,81,127,
2,4560,Note_on_c,9,82,127,
2,4561,Note_off_c,9,36,0,
2,4562,Note_on_c,9,36,127,
2,4562,Note_on_c,9,37,127,
2,4562,Note_on_c,9,38,127,
2,4562,Note_on_c,9,39,127,
2,4562,Note_on_c,9,41,127,
2,4562,Note_on_c,9,42,127,
2,4562,Note_on_c,9,43,127,
2,4562,Note_on_c,9,45,127,
2,4562,Note_on_c,9,48,127,
2,4562,Note_on_c,9,51,127,
2,4562,Note_on_c,9,53,127,
2,4562,Note_on_c,9,80,127,
2,4562,Note_on_c,9,81,127,
2,4562,Note_on_c,9,82,127,
2,4563,Note_off_c,9,36,0,
2,4564,Note_on_c,9,36,127,
2,4564,Note_on_c,9,37,127,
2,4564,Note_on_c,9,38,127,
2,4564,Note_on_c,9,39,127,
2,4564,Note_on_c,9,41,127,
2,4564,Note_on_c,9,42,127,
2,4564,Note_on_c,9,43,127,
2,4564,Note_on_c,9,45,127,
2,4564,Note_on_c,9,48,127,
2,4564,Note_on_c,9,51,127,
2,4564,Note_on_c,9,53,127,
2,4564,Note_on_c,9,80,127,
2,4564,Note_on_c,9,81,127,
2,4564,Note_on_c,9,82,127,
2,4565,Note_off_c,9,36,0,
2,4566,Note_on_c,9,36,127,
2,4566,Note_on_c,9,37,127,
2,4566,Note_on_c,9,38,127,
2,4566,Note_on_c,9,39,127,
2,4566,Note_on_c,9,41,127,
2,4566,Note_on_c,9,42,127,
2,4566,Note_on_c,9,43,127,
2,4566,Note_on_c,9,45,127,
2,4566,Note_on_c,9,48,127,
2,4566,Note_on_c,9,51,127,
2,4566,Note_on_c,9,53,127,
2,4566,Note_on_c,9,80,127,
2,4566,Note_on_c,9,81,127,
2,4566,Note_on_c,9,82,127,
2,4567,Note_off_c,9,36,0,
2,4568,Note_on_c,9,36,127,
2,4568,Note_on_c,9,37,127,
2,4568,Note_on_c,9,38,127,
2,4568,Note_on_c,9,39,127,
2,4568,Note_on_c,9,41,127,
2,4568,Note_on_c,9,42,127,
2,4568,Note_on_c,9,43,127,
2,4568,Note_on_c,9,45,127,
2,4568,Note_on_c,9,48,127,
2,4568,Note_on_c,9,51,127,
2,4568,Note_on_c,9,53,127,
2,4568,Note_on_c,9,80,127,
2,4568,Note_on_c,9,81,127,
2,4568,Note_on_c,9,82,127,
2,4569,Note_off_c,9,36,0,
2,4570,Note_on_c,9,36,127,
2,4570,Note_on_c,9,37,127,
2,4570,Note_on_c,9,38,127,
2,4570,Note_on_c,9,39,127,
2,4570,Note_on_c,9,41,127,
2,4570,Note_on_c,9,42,127,
2,4570,Note_on_c,9,43,127,
2,4570,Note_on_c,9,45,127,
2,4570,Note_on_c,9,48,127,
2,4570,Note_on_c,9,51,127,
2,4570,Note_on_c,9,53,127,
2,4570,Note_on_c,9,80,127,
2,4570,Note_on_c,9,81,127,
2,4570,Note_on_c,9,82,127,
2,4571,Note_off_c,9,36,0,
2,4572,Note_on_c,9,36,127,
2,4572,Note_on_c,9,37,127,
2,4572,Note_on_c,9,38,127,
2,4572,Note_on_c,9,39,127,
2,4572,Note_on_c,9,41,127,
2,4572,Note_on_c,9,42,127,
2,4572,Note_on_c,9,43,127,
2,4572,Note_on_c,9,45,127,
2,4572,Note_on_c,9,48,127,
2,4572,Note_on_c,9,51,127,
2,4572,Note_on_c,9,53,127,
2,4572,Note_on_c,9,80,127,
2,4572,Note_on_c,9,81,127,
2,4572,Note_on_c,9,82,127,
2,4573,Note_off_c,9,36,0,
2,4574,Note_on_c,9,36,127,
2,4574,Note_on_c,9,37,127,
2,4574,Note_on_c,9,38,127,
2,4574,Note_on_c,9,39,127,
2,4574,Note_on_c,9,41,127,
2,4574,Note_on_c,9,42,127,
2,4574,Note_on_c,9,43,127,
2,4574,Note_on_c,9,45,127,
2,4574,Note_on_c,9,48,127,
2,4574,Note_on_c,9,51,127,
2,4574,Note_on_c,9,53,127,
2,4574,Note_on_c,9,80,127,
2,4574,Note_on_c,9,81,127,
2,4574,Note_on_c,9,82,127,
2,4575,Note_off_c,9,36,0,
2,4576,Note_on_c,9,36,127,
2,4576,Note_on_c,9,37,127,
2,4576,Note_on_c,9,38,127,
2,4576,Note_on_c,9,39,127,
2,4576,Note_on_c,9,41,127,
2,4576,Note_on_c,9,42,127,
2,4576,Note_on_c,9,43,127,
2,4576,Note_on_c,9,45,127,
2,4576,Note_on_c,9,48,127,
2,4576,Note_on_c,9,51,127,
2,4576,Note_on_c,9,53,127,
2,4576,Note_on_c,9,80,127,
2,4576,Note_on_c,9,81,127,
2,4576,Note_on_c,9,82,127,
2,4577,Note_off_c,9,36,0,
2,4578,Note_on_c,9,36,127,
2,4578,Note_on_c,9,37,127,
2,4578,Note_on_c,9,38,127,
2,4578,Note_on_c,9,39,127,
2,4578,Note_on_c,9,41,127,
2,4578,Note_on_c,9,42,127,
2,4578,Note_on_c,9,43,127,
2,4578,Note_on_c,9,45,127,
2,4578,Note_on_c,9,48,127,
2,4578,Note_on_c,9,51,127,
2,4578,Note_on_c,9,53,127,
2,4578,Note_on_c,9,80,127,
2,4578,Note_on_c,9,81,127,
2,4578,Note_on_c,9,82,127,
2,4579,Note_off_c,9,36,0,
2,4580,Note_on_c,9,36,127,
2,4580,Note_on_c,9,37,127,
2,4580,Note_on_c,9,38,127,
2,4580,Note_on_c,9,39,127,
2,4580,Note_on_c,9,41,127,
2,4580,Note_on_c,9,42,127,
2,4580,Note_on_c,9,43,127,
2,4580,Note_on_c,9,45,127,
2,4580,Note_on_c,9,48,127,
2,4580,Note_on_c,9,51,127,
2,4580,Note_on_c,9,53,127,
2,4580,Note_on_c,9,80,127,
2,4580,Note_on_c,9,81,127,
2,4580,Note_on_c,9,82,127,
2,4581,Note_off_c,9,36,0,
2,4582,Note_on_c,9,36,127,
2,4582,Note_on_c,9,37,127,
2,4582,Note_on_c,9,38,127,
2,4582,Note_on_c,9,39,127,
2,4582,Note_on_c,9,41,127,
2,4582,Note_on_c,9,42,127,
2,4582,Note_on_c,9,43,127,
2,4582,Note_on_c,9,45,127,
2,4582,Note_on_c,9,48,127,
2,4582,Note_on_c,9,51,127,
2,4582,Note_on_c,9,53,127,
2,4582,Note_on_c,9,80,127,
2,4582,Note_on_c,9,81,127,
2,4582,Note_on_c,9,82,127,
2,4583,Note_off_c,9,36,0,
2,4584,Note_on_c,9,36,127,
2,4584,Note_on_c,9,37,127,
2,4584,Note_on_c,9,38,127,
2,4584,Note_on_c,9,39,127,
2,4584,Note_on_c,9,41,127,
2,4584,Note_on_c,9,42,127,
2,4584,Note_on_c,9,43,127,
2,4584,Note_on_c,9,45,127,
2,4584,Note_on_c,9,48,127,
2,4584,Note_on_c,9,51,127,
2,4584,Note_on_c,9,53,127,
2,4584,Note_on_c,9,80,127,
2,4584,Note_on_c,9,81,127,
2,4584,Note_on_c,9,82,127,
2,4585,Note_off_c,9,36,0,
2,4586,Note_on_c,9,36,127,
2,4586,Note_on_c,9,37,127,
2,4586,Note_on_c,9,38,127,
2,4586,Note_on_c,9,39,127,
2,4586,Note_on_c,9,41,127,
2,4586,Note_on_c,9,42,127,
2,4586,Note_on_c,9,43,127,
2,4586,Note_on_c,9,45,127,
2,4586,Note_on_c,9,48,127,
2,4586,Note_on_c,9,51,127,
2,4586,Note_on_c,9,53,127,
2,4586,Note_on_c,9,80,127,
2,4586,Note_on_c,9,81,127,
2,4586,Note_on_c,9,82,127,
2,4587,Note_off_c,9,36,0,
2,4588,Note_on_c,9,36,127,
2,4588,Note_on_c,9,37,127,
2,4588,Note_on_c,9,38,127,
2,4588,Note_on_c,9,39,127,
2,4588,Note_on_c,9,41,127,
2,4588,Note_on_c,9,42,127,
2,4588,Note_on_c,9,43,127,
2,4588,Note_on_c,9,45,127,
2,4588,Note_on_c,9,48,127,
2,4588,Note_on_c,9,51,127,
2,4588,Note_on_c,9,53,127,
2,4588,Note_on_c,9,80,127,
2,4588,Note_on_c,9,81,127,
2,4588,Note_on_c,9,82,127,
2,4589,Note_off_c,9,36,0,
2,4590,Note_on_c,9,36,127,
2,4590,Note_on_c,9,37,127,
2,4590,Note_on_c,9,38,127,
2,4590,Note_on_c,9,39,127,
2,4590,Note_on_c,9,41,127,
2,4590,Note_on_c,9,42,127,
2,4590,Note_on_c,9,43,127,
2,4590,Note_on_c,9,45,127,
2,4590,Note_on_c,9,48,127,
2,4590,Note_on_c,9,51,127,
2,4590,Note_on_c,9,53,127,
2,4590,Note_on_c,9,80,127,
2,4590,Note_on_c,9,81,127,
2,4590,Note_on_c,9,82,127,
2,4591,Note_off_c,9,36,0,
2,4592,Note_on_c,9,36,127,
2,4592,Note_on_c,9,37,127,
2,4592,Note_on_c,9,38,127,
2,4592,Note_on_c,9,39,127,
2,4592,Note_on_c,9,41,127,
2,4592,Note_on_c,9,42,127,
2,4592,Note_on_c,9,43,127,
2,4592,Note_on_c,9,45,127,
2,4592,Note_on_c,9,48,127,
2,4592,Note_on_c,9,51,127,
2,4592,Note_on_c,9,53,127,
2,4592,Note_on_c,9,80,127,
2,4592,Note_on_c,9,81,127,
2,4592,Note_on_c,9,82,127,
2,4593,Note_off_c,9,36,0,
2,4594,Note_on_c,9,36,127,
2,4594,Note_on_c,9,37,127,
2,4594,Note_on_c,9,38,127,
2,4594,Note_on_c,9,39,127,
2,4594,Note_on_c,9,41,127,
2,4594,Note_on_c,9,42,127,
2,4594,Note_on_c,9,43,127,
2,4594,Note_on_c,9,45,127,
2,4594,Note_on_c,9,48,127,
2,4594,Note_on_c,9,51,127,
2,4594,Note_on_c,9,53,127,
2,4594,Note_on_c,9,80,127,
2,4594,Note_on_c,9,81,127,
2,4594,Note_on_c,9,82,127,
2,4595,Note_off_c,9,36,0,
2,4596,Note_on_c,9,36,127,
2,4596,Note_on_c,9,37,127,
2,4596,Note_on_c,9,38,127,
2,4596,Note_on_c,9,39,127,
2,4596,Note_on_c,9,41,127,
2,4596,Note_on_c,9,42,127,
2,4596,Note_on_c,9,43,127,
2,4596,Note_on_c,9,45,127,
2,4596,Note_on_c,9,48,127,
2,4596,Note_on_c,9,51,127,
2,4596,Note_on_c,9,53,127,
2,4596,Note_on_c,9,80,127,
2,4596,Note_on_c,9,81,127,
2,4596,Note_on_c,9,82,127,
2,4597,Note_off_c,9,36,0,
2,4598,Note_on_c,9,36,127,
2,4598,Note_on_c,9,37,127,
2,4598,Note_on_c,9,38,127,
2,4598,Note_on_c,9,39,127,
2,4598,Note_on_c,9,41,127,
2,4598,Note_on_c,9,42,127,
2,4598,Note_on_c,9,43,127,
2,4598,Note_on_c,9,45,127,
2,4598,Note_on_c,9,48,127,
2,4598,Note_on_c,9,51,127,
2,4598,Note_on_c,9,53,127,
2,4598,Note_on_c,9,80,127,
2,4598,Note_on_c,9,81,127,
2,4598,Note_on_c,9,82,127,
2,4599,Note_off_c,9,36,0,
2,4600,Note_on_c,9,36,127,
2,4600,Note_on_c,9,37,127,
2,4600,Note_on_c,9,38,127,
2,4600,Note_on_c,9,39,127,
2,4600,Note_on_c,9,41,127,
2,4600,Note_on_c,9,42,127,
2,4600,Note_on_c,9,43,127,
2,4600,Note_on_c,9,45,127,
2,4600,Note_on_c,9,48,127,
2,4600,Note_on_c,9,51,127,
2,4600,Note_on_c,9,53,127,
2,4600,Note_on_c,9,80,127,
2,4600,Note_on_c,9,81,127,
2,4600,Note_on_c,9,82,127,
2,4601,Note_off_c,9,36,0,
2,4602,Note_on_c,9,36,127,
2,4602,Note_on_c,9,37,127,
2,4602,Note_on_c,9,38,127,
2,4602,Note_on_c,9,39,127,
2,4602,Note_on_c,9,41,127,
2,4602,Note_on_c,9,42,127,
2,4602,Note_on_c,9,43,127,
2,4602,Note_on_c,9,45,127,
2,4602,Note_on_c,9,48,127,
2,4602,Note_on_c,9,51,127,
2,4602,Note_on_c,9,53,127,
2,4602,Note_on_c,9,80,127,
2,4602,Note_on_c,9,81,127,
2,4602,Note_on_c,9,82,127,
2,4603,Note_off_c,9,36,0,
2,4604,Note_on_c,9,36,127,
2,4604,Note_on_c,9,37,127,
2,4604,Note_on_c,9,38,127,
2,4604,Note_on_c,9,39,127,
2,4604,Note_on_c,9,41,127,
2,4604,Note_on_c,9,42,127,
2,4604,Note_on_c,9,43,127,
2,4604,Note_on_c,9,45,127,
2,4604,Note_on_c,9,48,127,
2,4604,Note_on_c,9,51,127,
2,4604,Note_on_c,9,53,127,
2,4604,Note_on_c,9,80,127,
2,4604,Note_on_c,9,81,127,
2,4604,Note_on_c,9,82,127,
2,4605,Note_off_c,9,36,0,
2,4606,Note_on_c,9,36,127,
2,4606,Note_on_c,9,37,127,
2,4606,Note_on_c,9,38,127,
2,4606,Note_on_c,9,39,127,
2,4606,Note_on_c,9,41,127,
2,4606,Note_on_c,9,42,127,
2,4606,Note_on_c,9,43,127,
2,4606,Note_on_c,9,45,127,
2,4606,Note_on_c,9,48,127,
2,4606,Note_on_c,9,51,127,
2,4606,Note_on_c,9,53,127,
2,4606,Note_on_c,9,80,127,
2,4606,Note_on_c,9,81,127,
2,4606,Note_on_c,9,82,127,
2,4607,Note_off_c,9,36,0,
2,4608,Note_on_c,9,36,127,
2,4608,Note_on_c,9,37,127,
2,4608,Note_on_c,9,38,127,
2,4608,Note_on_c,9,39,127,
2,4608,Note_on_c,9,41,127,
2,4608,Note_on_c,9,42,127,
2,4608,Note_on_c,9,43,127,
2,4608,Note_on_c,9,45,127,
2,4608,Note_on_c,9,48,127,
2,4608,Note_on_c,9,51,127,
2,4608,Note_on_c,9,53,127,
2,4608,Note_on_c,9,80,127,
2,4608,Note_on_c,9,81,127,
2,4608,Note_on_c,9,82,127,
2,4609,Note_off_c,9,36,0,
2,4610,Note_on_c,9,36,127,
2,4610,Note_on_c,9,37,127,
2,4610,Note_on_c,9,38,127,
2,4610,Note_on_c,9,39,127,
2,4610,Note_on_c,9,41,127,
2,4610,Note_on_c,9,42,127,
2,4610,Note_on_c,9,43,127,
2,4610,Note_on_c,9,45,127,
2,4610,Note_on_c,9,48,127,
2,4610,Note_on_c,9,51,127,
2,4610,Note_on_c,9,53,127,
2,4610,Note_on_c,9,80,127,
2,4610,Note_on_c,9,81,127,
2,4610,Note_on_c,9,82,127,
2,4611,Note_off_c,9,36,0,
2,4612,Note_on_c,9,36,127,
2,4612,Note_on_c,9,37,127,
2,4612,Note_on_c,9,38,127,
2,4612,Note_on_c,9,39,127,
2,4612,Note_on_c,9,41,127,
2,4612,Note_on_c,9,42,127,
2,4612,Note_on_c,9,43,127,
2,4612,Note_on_c,9,45,127,
2,4612,Note_on_c,9,48,127,
2,4612,Note_on_c,9,51,127,
2,4612,Note_on_c,9,53,127,
2,4612,Note_on_c,9,80,127,
2,4612,Note_on_c,9,81,127,
2,4612,Note_on_c,9,82,127,
2,4613,Note_off_c,9,36,0,
2,4614,Note_on_c,9,36,127,
2,4614,Note_on_c,9,37,127,
2,4614,Note_on_c,9,38,127,
2,4614,Note_on_c,9,39,127,
2,4614,Note_on_c,9,41,127,
2,4614,Note_on_c,9,42,127,
2,4614,Note_on_c,9,43,127,
2,4614,Note_on_c,9,45,127,
2,4614,Note_on_c,9,48,127,
2,4614,Note_on_c,9,51,127,
2,4614,Note_on_c,9,53,127,
2,4614,Note_on_c,9,80,127,
2,4614,Note_on_c,9,81,127,
2,4614,Note_on_c,9,82,127,
2,4615,Note_off_c,9,36,0,
2,4616,Note_on_c,9,36,127,
2,4616,Note_on_c,9,37,127,
2,4616,Note_on_c,9,38,127,
2,4616,Note_on_c,9,39,127,
2,4616,Note_on_c,9,41,127,
2,4616,Note_on_c,9,42,127,
2,4616,Note_on_c,9,43,127,
2,4616,Note_on_c,9,45,127,
2,4616,Note_on_c,9,48,127,
2,4616,Note_on_c,9,51,127,
2,4616,Note_on_c,9,53,127,
2,4616,Note_on_c,9,80,127,
2,4616,Note_on_c,9,81,127,
2,4616,Note_on_c,9,82,127,
2,4617,Note_off_c,9,36,0,
2,4618,Note_on_c,9,36,127,
2,4618,Note_on_c,9,37,127,
2,4618,Note_on_c,9,38,127,
2,4618,Note_on_c,9,39,127,
2,4618,Note_on_c,9,41,127,
2,4618,Note_on_c,9,42,127,
2,4618,Note_on_c,9,43,127,
2,4618,Note_on_c,9,45,127,
2,4618,Note_on_c,9,48,127,
2,4618,Note_on_c,9,51,127,
2,4618,Note_on_c,9,53,127,
2,4618,Note_on_c,9,80,127,
2,4618,Note_on_c,9,81,127,
2,4618,Note_on_c,9,82,127,
2,4619,Note_off_c,9,36,0,
2,4620,Note_on_c,9,36,127,
2,4620,Note_on_c,9,37,127,
2,4620,Note_on_c,9,38,127,
2,4620,Note_on_c,9,39,127,
2,4620,Note_on_c,9,41,127,
2,4620,Note_on_c,9,42,127,
2,4620,Note_on_c,9,43,127,
2,4620,Note_on_c,9,45,127,
2,4620,Note_on_c,9,48,127,
2,4620,Note_on_c,9,51,127,
2,4620,Note_on_c,9,53,127,
2,4620,Note_on_c,9,80,127,
2,4620,Note_on_c,9,81,127,
2,4620,Note_on_c,9,82,127,
2,4621,Note_off_c,9,36,0,
2,4622,Note_on_c,9,36,127,
2,4622,Note_on_c,9,37,127,
2,4622,Note_on_c,9,38,127,
2,4622,Note_on_c,9,39,127,
2,4622,Note_on_c,9,41,127,
2,4622,Note_on_c,9,42,127,
2,4622,Note_on_c,9,43,127,
2,4622,Note_on_c,9,45,127,
2,4622,Note_on_c,9,48,127,
2,4622,Note_on_c,9,51,127,
2,4622,Note_on_c,9,53,127,
2,4622,Note_on_c,9,80,127,
2,4622,Note_on_c,9,81,127,
2,4622,Note_on_c,9,82,127,
2,4623,Note_off_c,9,36,0,
2,4624,Note_on_c,9,36,127,
2,4624,Note_on_c,9,37,127,
2,4624,Note_on_c,9,38,127,
2,4624,Note_on_c,9,39,127,
2,4624,Note_on_c,9,41,127,
2,4624,Note_on_c,9,42,127,
2,4624,Note_on_c,9,43,127,
2,4624,Note_on_c,9,45,127,
2,4624,Note_on_c,9,48,127,
2,4624,Note_on_c,9,51,127,
2,4624,Note_on_c,9,53,127,
2,4624,Note_on_c,9,80,127,
2,4624,Note_on_c,9,81,127,
2,4624,Note_on_c,9,82,127,
2,4625,Note_off_c,9,36,0,
2,4626,Note_on_c,9,36,127,
2,4626,Note_on_c,9,37,127,
2,4626,Note_on_c,9,38,127,
2,4626,Note_on_c,9,39,127,
2,4626,Note_on_c,9,41,127,
2,4626,Note_on_c,9,42,127,
2,4626,Note_on_c,9,43,127,
2,4626,Note_on_c,9,45,127,
2,4626,Note_on_c,9,48,127,
2,4626,Note_on_c,9,51,127,
2,4626,Note_on_c,9,53,127,
2,4626,Note_on_c,9,80,127,
2,4626,Note_on_c,9,81,127,
2,4626,Note_on_c,9,82,127,
2,4627,Note_off_c,9,36,0,
2,4628,Note_on_c,9,36,127,
2,4628,Note_on_c,9,37,127,
2,4628,Note_on_c,9,38,127,
2,4628,Note_on_c,9,39,127,
2,4628,Note_on_c,9,41,127,
2,4628,Note_on_c,9,42,127,
2,4628,Note_on_c,9,43,127,
2,4628,Note_on_c,9,45,127,
2,4628,Note_on_c,9,48,127,
2,4628,Note_on_c,9,51,127,
2,4628,Note_on_c,9,53,127,
2,4628,Note_on_c,9,80,127,
2,4628,Note_on_c,9,81,127,
2,4628,Note_on_c,9,82,127,
2,4629,Note_off_c,9,36,0,
2,4630,Note_on_c,9,36,127,
2,4630,Note_on_c,9,37,127,
2,4630,Note_on_c,9,38,127,
2,4630,Note_on_c,9,39,127,
2,4630,Note_on_c,9,41,127,
2,4630,Note_on_c,9,42,127,
2,4630,Note_on_c,9,43,127,
2,4630,Note_on_c,9,45,127,
2,4630,Note_on_c,9,48,127,
2,4630,Note_on_c,9,51,127,
2,4630,Note_on_c,9,53,127,
2,4630,Note_on_c,9,80,127,
2,4630,Note_on_c,9,81,127,
2,4630,Note_on_c,9,82,127,
2,4631,Note_off_c,9,36,0,
2,4632,Note_on_c,9,36,127,
2,4632,Note_on_c,9,37,127,
2,4632,Note_on_c,9,38,127,
2,4632,Note_on_c,9,39,127,
2,4632,Note_on_c,9,41,127,
2,4632,Note_on_c,9,42,127,
2,4632,Note_on_c,9,43,127,
2,4632,Note_on_c,9,45,127,
2,4632,Note_on_c,9,48,127,
2,4632,Note_on_c,9,51,127,
2,4632,Note_on_c,9,53,127,
2,4632,Note_on_c,9,80,127,
2,4632,Note_on_c,9,81,127,
2,4632,Note_on_c,9,82,127,
2,4633,Note_off_c,9,36,0,
2,4634,Note_on_c,9,36,127,
2,4634,Note_on_c,9,37,127,
2,4634,Note_on_c,9,38,127,
2,4634,Note_on_c,9,39,127,
2,4634,Note_on_c,9,41,127,
2,4634,Note_on_c,9,42,127,
2,4634,Note_on_c,9,43,127,
2,4634,Note_on_c,9,45,127,
2,4634,Note_on_c,9,48,127,
2,4634,Note_on_c,9,51,127,
2,4634,Note_on_c,9,53,127,
2,4634,Note_on_c,9,80,127,
2,4634,Note_on_c,9,81,127,
2,4634,Note_on_c,9,82,127,
2,4635,Note_off_c,9,36,0,
2,4636,Note_on_c,9,36,127,
2,4636,Note_on_c,9,37,127,
2,4636,Note_on_c,9,38,127,
2,4636,Note_on_c,9,39,127,
2,4636,Note_on_c,9,41,127,
2,4636,Note_on_c,9,42,127,
2,4636,Note_on_c,9,43,127,
2,4636,Note_on_c,9,45,127,
2,4636,Note_on_c,9,48,127,
2,4636,Note_on_c,9,51,127,
2,4636,Note_on_c,9,53,127,
2,4636,Note_on_c,9,80,127,
2,4636,Note_on_c,9,81,127,
2,4636,Note_on_c,9,82,127,
2,4637,Note_off_c,9,36,0,
2,4638,Note_on_c,9,36,127,
2,4638,Note_on_c,9,37,127,
2,4638,Note_on_c,9,38,127,
2,4638,Note_on_c,9,39,127,
2,4638,Note_on_c,9,41,127,
2,4638,Note_on_c,9,42,127,
2,4638,Note_on_c,9,43,127,
2,4638,Note_on_c,9,45,127,
2,4638,Note_on_c,9,48,127,
2,4638,Note_on_c,9,51,127,
2,4638,Note_on_c,9,53,127,
2,4638,Note_on_c,9,80,127,
2,4638,Note_on_c,9,81,127,
2,4638,Note_on_c,9,82,127,
2,4639,Note_off_c,9,36,0,
2,4640,Note_on_c,9,36,127,
2,4640,Note_on_c,9,37,127,
2,4640,Note_on_c,9,38,127,
2,4640,Note_on_c,9,39,127,
2,4640,Note_on_c,9,41,127,
2,4640,Note_on_c,9,42,127,
2,4640,Note_on_c,9,43,127,
2,4640,Note_on_c,9,45,127,
2,4640,Note_on_c,9,48,127,
2,4640,Note_on_c,9,51,127,
2,4640,Note_on_c,9,53,127,
2,4640,Note_on_c,9,80,127,
2,4640,Note_on_c,9,81,127,
2,4640,Note_on_c,9,82,127,
2,4641,Note_off_c,9,36,0,
2,4642,Note_on_c,9,36,127,
2,4642,Note_on_c,9,37,127,
2,4642,Note_on_c,9,38,127,
2,4642,Note_on_c,9,39,127,
2,4642,Note_on_c,9,41,127,
2,4642,Note_on_c,9,42,127,
2,4642,Note_on_c,9,43,127,
2,4642,Note_on_c,9,45,127,
2,4642,Note_on_c,9,48,127,
2,4642,Note_on_c,9,51,127,
2,4642,Note_on_c,9,53,127,
2,4642,Note_on_c,9,80,127,
2,4642,Note_on_c,9,81,127,
2,4642,Note_on_c,9,82,127,
2,4643,Note_off_c,9,36,0,
2,4644,Note_on_c,9,36,127,
2,4644,Note_on_c,9,37,127,
2,4644,Note_on_c,9,38,127,
2,4644,Note_on_c,9,39,127,
2,4644,Note_on_c,9,41,127,
2,4644,Note_on_c,9,42,127,
2,4644,Note_on_c,9,43,127,
2,4644,Note_on_c,9,45,127,
2,4644,Note_on_c,9,48,127,
2,4644,Note_on_c,9,51,127,
2,4644,Note_on_c,9,53,127,
2,4644,Note_on_c,9,80,127,
2,4644,Note_on_c,9,81,127,
2,4644,Note_on_c,9,82,127,
2,4645,Note_off_c,9,36,0,
2,4646,Note_on_c,9,36,127,
2,4646,Note_on_c,9,37,127,
2,4646,Note_on_c,9,38,127,
2,4646,Note_on_c,9,39,127,
2,4646,Note_on_c,9,41,127,
2,4646,Note_on_c,9,42,127,
2,4646,Note_on_c,9,43,127,
2,4646,Note_on_c,9,45,127,
2,4646,Note_on_c,9,48,127,
2,4646,Note_on_c,9,51,127,
2,4646,Note_on_c,9,53,127,
2,4646,Note_on_c,9,80,127,
2,4646,Note_on_c,9,81,127,
2,4646,Note_on_c,9,82,127,
2,4647,Note_off_c,9,36,0,
2,4648,Note_on_c,9,36,127,
2,4648,Note_on_c,9,37,127,
2,4648,Note_on_c,9,38,127,
2,4648,Note_on_c,9,39,127,
2,4648,Note_on_c,9,41,127,
2,4648,Note_on_c,9,42,127,
2,4648,Note_on_c,9,43,127,
2,4648,Note_on_c,9,45,127,
2,4648,Note_on_c,9,48,127,
2,4648,Note_on_c,9,51,127,
2,4648,Note_on_c,9,53,127,
2,4648,Note_on_c,9,80,127,
2,4648,Note_on_c,9,81,127,
2,4648,Note_on_c,9,82,127,
2,4649,Note_off_c,9,36,0,
2,4650,Note_on_c,9,36,127,
2,4650,Note_on_c,9,37,127,
2,4650,Note_on_c,9,38,127,
2,4650,Note_on_c,9,39,127,
2,4650,Note_on_c,9,41,127,
2,4650,Note_on_c,9,42,127,
2,4650,Note_on_c,9,43,127,
2,4650,Note_on_c,9,45,127,
2,4650,Note_on_c,9,48,127,
2,4650,Note_on_c,9,51,127,
2,4650,Note_on_c,9,53,127,
2,4650,Note_on_c,9,80,127,
2,4650,Note_on_c,9,81,127,
2,4650,Note_on_c,9,82,127,
2,4651,Note_off_c,9,36,0,
2,4652,Note_on_c,9,36,127,
2,4652,Note_on_c,9,37,127,
2,4652,Note_on_c,9,38,127,
2,4652,Note_on_c,9,39,127,
2,4652,Note_on_c,9,41,127,
2,4652,Note_on_c,9,42,127,
2,4652,Note_on_c,9,43,127,
2,4652,Note_on_c,9,45,127,
2,4652,Note_on_c,9,48,127,
2,4652,Note_on_c,9,51,127,
2,4652,Note_on_c,9,53,127,
2,4652,Note_on_c,9,80,127,
2,4652,Note_on_c,9,81,127,
2,4652,Note_on_c,9,82,127,
2,4653,Note_off_c,9,36,0,
2,4654,Note_on_c,9,36,127,
2,4654,Note_on_c,9,37,127,
2,4654,Note_on_c,9,38,127,
2,4654,Note_on_c,9,39,127,
2,4654,Note_on_c,9,41,127,
2,4654,Note_on_c,9,42,127,
2,4654,Note_on_c,9,43,127,
2,4654,Note_on_c,9,45,127,
2,4654,Note_on_c,9,48,127,
2,4654,Note_on_c,9,51,127,
2,4654,Note_on_c,9,53,127,
2,4654,Note_on_c,9,80,127,
2,4654,Note_on_c,9,81,127,
2,4654,Note_on_c,9,82,127,
2,4655,Note_off_c,9,36,0,
2,4656,Note_on_c,9,36,127,
2,4656,Note_on_c,9,37,127,
2,4656,Note_on_c,9,38,127,
2,4656,Note_on_c,9,39,127,
2,4656,Note_on_c,9,41,127,
2,4656,Note_on_c,9,42,127,
2,4656,Note_on_c,9,43,127,
2,4656,Note_on_c,9,45,127,
2,4656,Note_on_c,9,48,127,
2,4656,Note_on_c,9,51,127,
2,4656,Note_on_c,9,53,127,
2,4656,Note_on_c,9,80,127,
2,4656,Note_on_c,9,81,127,
2,4656,Note_on_c,9,82,127,
2,4657,Note_off_c,9,36,0,
2,4658,Note_on_c,9,36,127,
2,4658,Note_on_c,9,37,127,
2,4658,Note_on_c,9,38,127,
2,4658,Note_on_c,9,39,127,
2,4658,Note_on_c,9,41,127,
2,4658,Note_on_c,9,42,127,
2,4658,Note_on_c,9,43,127,
2,4658,Note_on_c,9,45,127,
2,4658,Note_on_c,9,48,127,
2,4658,Note_on_c,9,51,127,
2,4658,Note_on_c,9,53,127,
2,4658,Note_on_c,9,80,127,
2,4658,Note_on_c,9,81,127,
2,4658,Note_on_c,9,82,127,
2,4659,Note_off_c,9,36,0,
2,4660,Note_on_c,9,36,127,
2,4660,Note_on_c,9,37,127,
2,4660,Note_on_c,9,38,127,
2,4660,Note_on_c,9,39,127,
2,4660,Note_on_c,9,41,127,
2,4660,Note_on_c,9,42,127,
2,4660,Note_on_c,9,43,127,
2,4660,Note_on_c,9,45,127,
2,4660,Note_on_c,9,48,127,
2,4660,Note_on_c,9,51,127,
2,4660,Note_on_c,9,53,127,
2,4660,Note_on_c,9,80,127,
2,4660,Note_on_c,9,81,127,
2,4660,Note_on_c,9,82,127,
2,4661,Note_off_c,9,36,0,
2,4662,Note_on_c,9,36,127,
2,4662,Note_on_c,9,37,127,
2,4662,Note_on_c,9,38,127,
2,4662,Note_on_c,9,39,127,
2,4662,Note_on_c,9,41,127,
2,4662,Note_on_c,9,42,127,
2,4662,Note_on_c,9,43,127,
2,4662,Note_on_c,9,45,127,
2,4662,Note_on_c,9,48,127,
2,4662,Note_on_c,9,51,127,
2,4662,Note_on_c,9,53,127,
2,4662,Note_on_c,9,80,127,
2,4662,Note_on_c,9,81,127,
2,4662,Note_on_c,9,82,127,
2,4663,Note_off_c,9,36,0,
2,4664,Note_on_c,9,36,127,
2,4664,Note_on_c,9,37,127,
2,4664,Note_on_c,9,38,127,
2,4664,Note_on_c,9,39,127,
2,4664,Note_on_c,9,41,127,
2,4664,Note_on_c,9,42,127,
2,4664,Note_on_c,9,43,127,
2,4664,Note_on_c,9,45,127,
2,4664,Note_on_c,9,48,127,
2,4664,Note_on_c,9,51,127,
2,4664,Note_on_c,9,53,127,
2,4664,Note_on_c,9,80,127,
2,4664,Note_on_c,9,81,127,
2,4664,Note_on_c,9,82,127,
2,4665,Note_off_c,9,36,0,
2,4666,Note_on_c,9,36,127,
2,4666,Note_on_c,9,37,127,
2,4666,Note_on_c,9,38,127,
2,4666,Note_on_c,9,39,127,
2,4666,Note_on_c,9,41,127,
2,4666,Note_on_c,9,42,127,
2,4666,Note_on_c,9,43,127,
2,4666,Note_on_c,9,45,127,
2,4666,Note_on_c,9,48,127,
2,4666,Note_on_c,9,51,127,
2,4666,Note_on_c,9,53,127,
2,4666,Note_on_c,9,80,127,
2,4666,Note_on_c,9,81,127,
2,4666,Note_on_c,9,82,127,
2,4667,Note_off_c,9,36,0,
2,4668,Note_on_c,9,36,127,
2,4668,Note_on_c,9,37,127,
2,4668,Note_on_c,9,38,127,
2,4668,Note_on_c,9,39,127,
2,4668,Note_on_c,9,41,127,
2,4668,Note_on_c,9,42,127,
2,4668,Note_on_c,9,43,127,
2,4668,Note_on_c,9,45,127,
2,4668,Note_on_c,9,48,127,
2,4668,Note_on_c,9,51,127,
2,4668,Note_on_c,9,53,127,
2,4668,Note_on_c,9,80,127,
2,4668,Note_on_c,9,81,127,
2,4668,Note_on_c,9,82,127,
2,4669,Note_off_c,9,36,0,
2,4670,Note_on_c,9,36,127,
2,4670,Note_on_c,9,37,127,
2,4670,Note_on_c,9,38,127,
2,4670,Note_on_c,9,39,127,
2,4670,Note_on_c,9,41,127,
2,4670,Note_on_c,9,42,127,
2,4670,Note_on_c,9,43,127,
2,4670,Note_on_c,9,45,127,
2,4670,Note_on_c,9,48,127,
2,4670,Note_on_c,9,51,127,
2,4670,Note_on_c,9,53,127,
2,4670,Note_on_c,9,80,127,
2,4670,Note_on_c,9,81,127,
2,4670,Note_on_c,9,82,127,
2,4671,Note_off_c,9,36,0,
2,4672,Note_on_c,9,36,127,
2,4672,Note_on_c,9,37,127,
2,4672,Note_on_c,9,38,127,
2,4672,Note_on_c,9,39,127,
2,4672,Note_on_c,9,41,127,
2,4672,Note_on_c,9,42,127,
2,4672,Note_on_c,9,43,127,
2,4672,Note_on_c,9,45,127,
2,4672,Note_on_c,9,48,127,
2,4672,Note_on_c,9,51,127,
2,4672,Note_on_c,9,53,127,
2,4672,Note_on_c,9,80,127,
2,4672,Note_on_c,9,81,127,
2,4672,Note_on_c,9,82,127,
2,4673,Note_off_c,9,36,0,
2,4674,Note_on_c,9,36,127,
2,4674,Note_on_c,9,37,127,
2,4674,Note_on_c,9,38,127,
2,4674,Note_on_c,9,39,127,
2,4674,Note_on_c,9,41,127,
2,4674,Note_on_c,9,42,127,
2,4674,Note_on_c,9,43,127,
2,4674,Note_on_c,9,45,127,
2,4674,Note_on_c,9,48,127,
2,4674,Note_on_c,9,51,127,
2,4674,Note_on_c,9,53,127,
2,4674,Note_on_c,9,80,127,
2,4674,Note_on_c,9,81,127,
2,4674,Note_on_c,9,82,127,
2,4675,Note_off_c,9,36,0,
2,4676,Note_on_c,9,36,127,
2,4676,Note_on_c,9,37,127,
2,4676,Note_on_c,9,38,127,
2,4676,Note_on_c,9,39,127,
2,4676,Note_on_c,9,41,127,
2,4676,Note_on_c,9,42,127,
2,4676,Note_on_c,9,43,127,
2,4676,Note_on_c,9,45,127,
2,4676,Note_on_c,9,48,127,
2,4676,Note_on_c,9,51,127,
2,4676,Note_on_c,9,53,127,
2,4676,Note_on_c,9,80,127,
2,4676,Note_on_c,9,81,127,
2,4676,Note_on_c,9,82,127,
2,4677,Note_off_c,9,36,0,
2,4678,Note_on_c,9,36,127,
2,4678,Note_on_c,9,37,127,
2,4678,Note_on_c,9,38,127,
2,4678,Note_on_c,9,39,127,
2,4678,Note_on_c,9,41,127,
2,4678,Note_on_c,9,42,127,
2,4678,Note_on_c,9,43,127,
2,4678,Note_on_c,9,45,127,
2,4678,Note_on_c,9,48,127,
2,4678,Note_on_c,9,51,127,
2,4678,Note_on_c,9,53,127,
2,4678,Note_on_c,9,80,127,
2,4678,Note_on_c,9,81,127,
2,4678,Note_on_c,9,82,127,
2,4679,Note_off_c,9,36,0,
2,4680,Note_on_c,9,36,127,
2,4680,Note_on_c,9,37,127,
2,4680,Note_on_c,9,38,127,
2,4680,Note_on_c,9,39,127,
2,4680,Note_on_c,9,41,127,
2,4680,Note_on_c,9,42,127,
2,4680,Note_on_c,9,43,127,
2,4680,Note_on_c,9,45,127,
2,4680,Note_on_c,9,48,127,
2,4680,Note_on_c,9,51,127,
2,4680,Note_on_c,9,53,127,
2,4680,Note_on_c,9,80,127,
2,4680,Note_on_c,9,81,127,
2,4680,Note_on_c,9,82,127,
2,4681,Note_off_c,9,36,0,
2,4682,Note_on_c,9,36,127,
2,4682,Note_on_c,9,37,127,
2,4682,Note_on_c,9,38,127,
2,4682,Note_on_c,9,39,127,
2,4682,Note_on_c,9,41,127,
2,4682,Note_on_c,9,42,127,
2,4682,Note_on_c,9,43,127,
2,4682,Note_on_c,9,45,127,
2,4682,Note_on_c,9,48,127,
2,4682,Note_on_c,9,51,127,
2,4682,Note_on_c,9,53,127,
2,4682,Note_on_c,9,80,127,
2,4682,Note_on_c,9,81,127,
2,4682,Note_on_c,9,82,127,
2,4683,Note_off_c,9,36,0,
2,4684,Note_on_c,9,36,127,
2,4684,Note_on_c,9,37,127,
2,4684,Note_on_c,9,38,127,
2,4684,Note_on_c,9,39,127,
2,4684,Note_on_c,9,41,127,
2,4684,Note_on_c,9,42,127,
2,4684,Note_on_c,9,43,127,
2,4684,Note_on_c,9,45,127,
2,4684,Note_on_c,9,48,127,
2,4684,Note_on_c,9,51,127,
2,4684,Note_on_c,9,53,127,
2,4684,Note_on_c,9,80,127,
2,4684,Note_on_c,9,81,127,
2,4684,Note_on_c,9,82,127,
2,4685,Note_off_c,9,36,0,
2,4686,Note_on_c,9,36,127,
2,4686,Note_on_c,9,37,127,
2,4686,Note_on_c,9,38,127,
2,4686,Note_on_c,9,39,127,
2,4686,Note_on_c,9,41,127,
2,4686,Note_on_c,9,42,127,
2,4686,Note_on_c,9,43,127,
2,4686,Note_on_c,9,45,127,
2,4686,Note_on_c,9,48,127,
2,4686,Note_on_c,9,51,127,
2,4686,Note_on_c,9,53,127,
2,4686,Note_on_c,9,80,127,
2,4686,Note_on_c,9,81,127,
2,4686,Note_on_c,9,82,127,
2,4687,Note_off_c,9,36,0,
2,4688,Note_on_c,9,36,127,
2,4688,Note_on_c,9,37,127,
2,4688,Note_on_c,9,38,127,
2,4688,Note_on_c,9,39,127,
2,4688,Note_on_c,9,41,127,
2,4688,Note_on_c,9,42,127,
2,4688,Note_on_c,9,43,127,
2,4688,Note_on_c,9,45,127,
2,4688,Note_on_c,9,48,127,
2,4688,Note_on_c,9,51,127,
2,4688,Note_on_c,9,53,127,
2,4688,Note_on_c,9,80,127,
2,4688,Note_on_c,9,81,127,
2,4688,Note_on_c,9,82,127,
2,4689,Note_off_c,9,36,0,
2,4690,Note_on_c,9,36,127,
2,4690,Note_on_c,9,37,127,
2,4690,Note_on_c,9,38,127,
2,4690,Note_on_c,9,39,127,
2,4690,Note_on_c,9,41,127,
2,4690,Note_on_c,9,42,127,
2,4690,Note_on_c,9,43,127,
2,4690,Note_on_c,9,45,127,
2,4690,Note_on_c,9,48,127,
2,4690,Note_on_c,9,51,127,
2,4690,Note_on_c,9,53,127,
2,4690,Note_on_c,9,80,127,
2,4690,Note_on_c,9,81,127,
2,4690,Note_on_c,9,82,127,
2,4691,Note_off_c,9,36,0,
2,4692,Note_on_c,9,36,127,
2,4692,Note_on_c,9,37,127,
2,4692,Note_on_c,9,38,127,
2,4692,Note_on_c,9,39,127,
2,4692,Note_on_c,9,41,127,
2,4692,Note_on_c,9,42,127,
2,4692,Note_on_c,9,43,127,
2,4692,Note_on_c,9,45,127,
2,4692,Note_on_c,9,48,127,
2,4692,Note_on_c,9,51,127,
2,4692,Note_on_c,9,53,127,
2,4692,Note_on_c,9,80,127,
2,4692,Note_on_c,9,81,127,
2,4692,Note_on_c,9,82,127,
2,4693,Note_off_c,9,36,0,
2,4694,Note_on_c,9,36,127,
2,4694,Note_on_c,9,37,127,
2,4694,Note_on_c,9,38,127,
2,4694,Note_on_c,9,39,127,
2,4694,Note_on_c,9,41,127,
2,4694,Note_on_c,9,42,127,
2,4694,Note_on_c,9,43,127,
2,4694,Note_on_c,9,45,127,
2,4694,Note_on_c,9,48,127,
2,4694,Note_on_c,9,51,127,
2,4694,Note_on_c,9,53,127,
2,4694,Note_on_c,9,80,127,
2,4694,Note_on_c,9,81,127,
2,4694,Note_on_c,9,82,127,
2,4695,Note_off_c,9,36,0,
2,4696,Note_on_c,9,36,127,
2,4696,Note_on_c,9,37,127,
2,4696,Note_on_c,9,38,127,
2,4696,Note_on_c,9,39,127,
2,4696,Note_on_c,9,41,127,
2,4696,Note_on_c,9,42,127,
2,4696,Note_on_c,9,43,127,
2,4696,Note_on_c,9,45,127,
2,4696,Note_on_c,9,48,127,
2,4696,Note_on_c,9,51,127,
2,4696,Note_on_c,9,53,127,
2,4696,Note_on_c,9,80,127,
2,4696,Note_on_c,9,81,127,
2,4696,Note_on_c,9,82,127,
2,4697,Note_off_c,9,36,0,
2,4698,Note_on_c,9,36,127,
2,4698,Note_on_c,9,37,127,
2,4698,Note_on_c,9,38,127,
2,4698,Note_on_c,9,39,127,
2,4698,Note_on_c,9,41,127,
2,4698,Note_on_c,9,42,127,
2,4698,Note_on_c,9,43,127,
2,4698,Note_on_c,9,45,127,
2,4698,Note_on_c,9,48,127,
2,4698,Note_on_c,9,51,127,
2,4698,Note_on_c,9,53,127,
2,4698,Note_on_c,9,80,127,
2,4698,Note_on_c,9,81,127,
2,4698,Note_on_c,9,82,127,
2,4699,Note_off_c,9,36,0,
2,4700,Note_on_c,9,36,127,
2,4700,Note_on_c,9,37,127,
2,4700,Note_on_c,9,38,127,
2,4700,Note_on_c,9,39,127,
2,4700,Note_on_c,9,41,127,
2,4700,Note_on_c,9,42,127,
2,4700,Note_on_c,9,43,127,
2,4700,Note_on_c,9,45,127,
2,4700,Note_on_c,9,48,127,
2,4700,Note_on_c,9,51,127,
2,4700,Note_on_c,9,53,127,
2,4700,Note_on_c,9,80,127,
2,4700,Note_on_c,9,81,127,
2,4700,Note_on_c,9,82,127,
2,4701,Note_off_c,9,36,0,
2,4702,Note_on_c,9,36,127,
2,4702,Note_on_c,9,37,127,
2,4702,Note_on_c,9,38,127,
2,4702,Note_on_c,9,39,127,
2,4702,Note_on_c,9,41,127,
2,4702,Note_on_c,9,42,127,
2,4702,Note_on_c,9,43,127,
2,4702,Note_on_c,9,45,127,
2,4702,Note_on_c,9,48,127,
2,4702,Note_on_c,9,51,127,
2,4702,Note_on_c,9,53,127,
2,4702,Note_on_c,9,80,127,
2,4702,Note_on_c,9,81,127,
2,4702,Note_on_c,9,82,127,
2,4703,Note_off_c,9,36,0,
2,4704,Note_on_c,9,36,127,
2,4704,Note_on_c,9,37,127,
2,4704,Note_on_c,9,38,127,
2,4704,Note_on_c,9,39,127,
2,4704,Note_on_c,9,41,127,
2,4704,Note_on_c,9,42,127,
2,4704,Note_on_c,9,43,127,
2,4704,Note_on_c,9,45,127,
2,4704,Note_on_c,9,48,127,
2,4704,Note_on_c,9,51,127,
2,4704,Note_on_c,9,53,127,
2,4704,Note_on_c,9,80,127,
2,4704,Note_on_c,9,81,127,
2,4704,Note_on_c,9,82,127,
2,4705,Note_off_c,9,36,0,
2,4706,Note_on_c,9,36,127,
2,4706,Note_on_c,9,37,127,
2,4706,Note_on_c,9,38,127,
2,4706,Note_on_c,9,39,127,
2,4706,Note_on_c,9,41,127,
2,4706,Note_on_c,9,42,127,
2,4706,Note_on_c,9,43,127,
2,4706,Note_on_c,9,45,127,
2,4706,Note_on_c,9,48,127,
2,4706,Note_on_c,9,51,127,
2,4706,Note_on_c,9,53,127,
2,4706,Note_on_c,9,80,127,
2,4706,Note_on_c,9,81,127,
2,4706,Note_on_c,9,82,127,
2,4707,Note_off_c,9,36,0,
2,4708,Note_on_c,9,36,127,
2,4708,Note_on_c,9,37,127,
2,4708,Note_on_c,9,38,127,
2,4708,Note_on_c,9,39,127,
2,4708,Note_on_c,9,41,127,
2,4708,Note_on_c,9,42,127,
2,4708,Note_on_c,9,43,127,
2,4708,Note_on_c,9,45,127,
2,4708,Note_on_c,9,48,127,
2,4708,Note_on_c,9,51,127,
2,4708,Note_on_c,9,53,127,
2,4708,Note_on_c,9,80,127,
2,4708,Note_on_c,9,81,127,
2,4708,Note_on_c,9,82,127,
2,4709,Note_off_c,9,36,0,
2,4710,Note_on_c,9,36,127,
2,4710,Note_on_c,9,37,127,
2,4710,Note_on_c,9,38,127,
2,4710,Note_on_c,9,39,127,
2,4710,Note_on_c,9,41,127,
2,4710,Note_on_c,9,42,127,
2,4710,Note_on_c,9,43,127,
2,4710,Note_on_c,9,45,127,
2,4710,Note_on_c,9,48,127,
2,4710,Note_on_c,9,51,127,
2,4710,Note_on_c,9,53,127,
2,4710,Note_on_c,9,80,127,
2,4710,Note_on_c,9,81,127,
2,4710,Note_on_c,9,82,127,
2,4711,Note_off_c,9,36,0,
2,4712,Note_on_c,9,36,127,
2,4712,Note_on_c,9,37,127,
2,4712,Note_on_c,9,38,127,
2,4712,Note_on_c,9,39,127,
2,4712,Note_on_c,9,41,127,
2,4712,Note_on_c,9,42,127,
2,4712,Note_on_c,9,43,127,
2,4712,Note_on_c,9,45,127,
2,4712,Note_on_c,9,48,127,
2,4712,Note_on_c,9,51,127,
2,4712,Note_on_c,9,53,127,
2,4712,Note_on_c,9,80,127,
2,4712,Note_on_c,9,81,127,
2,4712,Note_on_c,9,82,127,
2,4713,Note_off_c,9,36,0,
2,4714,Note_on_c,9,36,127,
2,4714,Note_on_c,9,37,127,
2,4714,Note_on_c,9,38,127,
2,4714,Note_on_c,9,39,127,
2,4714,Note_on_c,9,41,127,
2,4714,Note_on_c,9,42,127,
2,4714,Note_on_c,9,43,127,
2,4714,Note_on_c,9,45,127,
2,4714,Note_on_c,9,48,127,
2,4714,Note_on_c,9,51,127,
2,4714,Note_on_c,9,53,127,
2,4714,Note_on_c,9,80,127,
2,4714,Note_on_c,9,81,127,
2,4714,Note_on_c,9,82,127,
2,4715,Note_off_c,9,36,0,
2,4716,Note_on_c,9,36,127,
2,4716,Note_on_c,9,37,127,
2,4716,Note_on_c,9,38,127,
2,4716,Note_on_c,9,39,127,
2,4716,Note_on_c,9,41,127,
2,4716,Note_on_c,9,42,127,
2,4716,Note_on_c,9,43,127,
2,4716,Note_on_c,9,45,127,
2,4716,Note_on_c,9,48,127,
2,4716,Note_on_c,9,51,127,
2,4716,Note_on_c,9,53,127,
2,4716,Note_on_c,9,80,127,
2,4716,Note_on_c,9,81,127,
2,4716,Note_on_c,9,82,127,
2,4717,Note_off_c,9,36,0,
2,4718,Note_on_c,9,36,127,
2,4718,Note_on_c,9,37,127,
2,4718,Note_on_c,9,38,127,
2,4718,Note_on_c,9,39,127,
2,4718,Note_on_c,9,41,127,
2,4718,Note_on_c,9,42,127,
2,4718,Note_on_c,9,43,127,
2,4718,Note_on_c,9,45,127,
2,4718,Note_on_c,9,48,127,
2,4718,Note_on_c,9,51,127,
2,4718,Note_on_c,9,53,127,
2,4718,Note_on_c,9,80,127,
2,4718,Note_on_c,9,81,127,
2,4718,Note_on_c,9,82,127,
2,4719,Note_off_c,9,36,0,
2,4720,Note_on_c,9,36,127,
2,4720,Note_on_c,9,37,127,
2,4720,Note_on_c,9,38,127,
2,4720,Note_on_c,9,39,127,
2,4720,Note_on_c,9,41,127,
2,4720,Note_on_c,9,42,127,
2,4720,Note_on_c,9,43,127,
2,4720,Note_on_c,9,45,127,
2,4720,Note_on_c,9,48,127,
2,4720,Note_on_c,9,51,127,
2,4720,Note_on_c,9,53,127,
2,4720,Note_on_c,9,80,127,
2,4720,Note_on_c,9,81,127,
2,4720,Note_on_c,9,82,127,
2,4721,Note_off_c,9,36,0,
2,4722,Note_on_c,9,36,127,
2,4722,Note_on_c,9,37,127,
2,4722,Note_on_c,9,38,127,
2,4722,Note_on_c,9,39,127,
2,4722,Note_on_c,9,41,127,
2,4722,Note_on_c,9,42,127,
2,4722,Note_on_c,9,43,127,
2,4722,Note_on_c,9,45,127,
2,4722,Note_on_c,9,48,127,
2,4722,Note_on_c,9,51,127,
2,4722,Note_on_c,9,53,127,
2,4722,Note_on_c,9,80,127,
2,4722,Note_on_c,9,81,127,
2,4722,Note_on_c,9,82,127,
2,4723,Note_off_c,9,36,0,
2,4724,Note_on_c,9,36,127,
2,4724,Note_on_c,9,37,127,
2,4724,Note_on_c,9,38,127,
2,4724,Note_on_c,9,39,127,
2,4724,Note_on_c,9,41,127,
2,4724,Note_on_c,9,42,127,
2,4724,Note_on_c,9,43,127,
2,4724,Note_on_c,9,45,127,
2,4724,Note_on_c,9,48,127,
2,4724,Note_on_c,9,51,127,
2,4724,Note_on_c,9,53,127,
2,4724,Note_on_c,9,80,127,
2,4724,Note_on_c,9,81,127,
2,4724,Note_on_c,9,82,127,
2,4725,Note_off_c,9,36,0,
2,4726,Note_on_c,9,36,127,
2,4726,Note_on_c,9,37,127,
2,4726,Note_on_c,9,38,127,
2,4726,Note_on_c,9,39,127,
2,4726,Note_on_c,9,41,127,
2,4726,Note_on_c,9,42,127,
2,4726,Note_on_c,9,43,127,
2,4726,Note_on_c,9,45,127,
2,4726,Note_on_c,9,48,127,
2,4726,Note_on_c,9,51,127,
2,4726,Note_on_c,9,53,127,
2,4726,Note_on_c,9,80,127,
2,4726,Note_on_c,9,81,127,
2,4726,Note_on_c,9,82,127,
2,4727,Note_off_c,9,36,0,
2,4728,Note_on_c,9,36,127,
2,4728,Note_on_c,9,37,127,
2,4728,Note_on_c,9,38,127,
2,4728,Note_on_c,9,39,127,
2,4728,Note_on_c,9,41,127,
2,4728,Note_on_c,9,42,127,
2,4728,Note_on_c,9,43,127,
2,4728,Note_on_c,9,45,127,
2,4728,Note_on_c,9,48,127,
2,4728,Note_on_c,9,51,127,
2,4728,Note_on_c,9,53,127,
2,4728,Note_on_c,9,80,127,
2,4728,Note_on_c,9,81,127,
2,4728,Note_on_c,9,82,127,
2,4729,Note_off_c,9,36,0,
2,4730,Note_on_c,9,36,127,
2,4730,Note_on_c,9,37,127,
2,4730,Note_on_c,9,38,127,
2,4730,Note_on_c,9,39,127,
2,4730,Note_on_c,9,41,127,
2,4730,Note_on_c,9,42,127,
2,4730,Note_on_c,9,43,127,
2,4730,Note_on_c,9,45,127,
2,4730,Note_on_c,9,48,127,
2,4730,Note_on_c,9,51,127,
2,4730,Note_on_c,9,53,127,
2,4730,Note_on_c,9,80,127,
2,4730,Note_on_c,9,81,127,
2,4730,Note_on_c,9,82,127,
2,4731,Note_off_c,9,36,0,
2,4732,Note_on_c,9,36,127,
2,4732,Note_on_c,9,37,127,
2,4732,Note_on_c,9,38,127,
2,4732,Note_on_c,9,39,127,
2,4732,Note_on_c,9,41,127,
2,4732,Note_on_c,9,42,127,
2,4732,Note_on_c,9,43,127,
2,4732,Note_on_c,9,45,127,
2,4732,Note_on_c,9,48,127,
2,4732,Note_on_c,9,51,127,
2,4732,Note_on_c,9,53,127,
2,4732,Note_on_c,9,80,127,
2,4732,Note_on_c,9,81,127,
2,4732,Note_on_c,9,82,127,
2,4733,Note_off_c,9,36,0,
2,4734,Note_on_c,9,36,127,
2,4734,Note_on_c,9,37,127,
2,4734,Note_on_c,9,38,127,
2,4734,Note_on_c,9,39,127,
2,4734,Note_on_c,9,41,127,
2,4734,Note_on_c,9,42,127,
2,4734,Note_on_c,9,43,127,
2,4734,Note_on_c,9,45,127,
2,4734,Note_on_c,9,48,127,
2,4734,Note_on_c,9,51,127,
2,4734,Note_on_c,9,53,127,
2,4734,Note_on_c,9,80,127,
2,4734,Note_on_c,9,81,127,
2,4734,Note_on_c,9,82,127,
2,4735,Note_off_c,9,36,0,
2,4736,Note_on_c,9,36,127,
2,4736,Note_on_c,9,37,127,
2,4736,Note_on_c,9,38,127,
2,4736,Note_on_c,9,39,127,
2,4736,Note_on_c,9,41,127,
2,4736,Note_on_c,9,42,127,
2,4736,Note_on_c,9,43,127,
2,4736,Note_on_c,9,45,127,
2,4736,Note_on_c,9,48,127,
2,4736,Note_on_c,9,51,127,
2,4736,Note_on_c,9,53,127,
2,4736,Note_on_c,9,80,127,
2,4736,Note_on_c,9,81,127,
2,4736,Note_on_c,9,82,127,
2,4737,Note_off_c,9,36,0,
2,4738,Note_on_c,9,36,127,
2,4738,Note_on_c,9,37,127,
2,4738,Note_on_c,9,38,127,
2,4738,Note_on_c,9,39,127,
2,4738,Note_on_c,9,41,127,
2,4738,Note_on_c,9,42,127,
2,4738,Note_on_c,9,43,127,
2,4738,Note_on_c,9,45,127,
2,4738,Note_on_c,9,48,127,
2,4738,Note_on_c,9,51,127,
2,4738,Note_on_c,9,53,127,
2,4738,Note_on_c,9,80,127,
2,4738,Note_on_c,9,81,127,
2,4738,Note_on_c,9,82,127,
2,4739,Note_off_c,9,36,0,
2,4740,Note_on_c,9,36,127,
2,4740,Note_on_c,9,37,127,
2,4740,Note_on_c,9,38,127,
2,4740,Note_on_c,9,39,127,
2,4740,Note_on_c,9,41,127,
2,4740,Note_on_c,9,42,127,
2,4740,Note_on_c,9,43,127,
2,4740,Note_on_c,9,45,127,
2,4740,Note_on_c,9,48,127,
2,4740,Note_on_c,9,51,127,
2,4740,Note_on_c,9,53,127,
2,4740,Note_on_c,9,80,127,
2,4740,Note_on_c,9,81,127,
2,4740,Note_on_c,9,82,127,
2,4741,Note_off_c,9,36,0,
2,4742,Note_on_c,9,36,127,
2,4742,Note_on_c,9,37,127,
2,4742,Note_on_c,9,38,127,
2,4742,Note_on_c,9,39,127,
2,4742,Note_on_c,9,41,127,
2,4742,Note_on_c,9,42,127,
2,4742,Note_on_c,9,43,127,
2,4742,Note_on_c,9,45,127,
2,4742,Note_on_c,9,48,127,
2,4742,Note_on_c,9,51,127,
2,4742,Note_on_c,9,53,127,
2,4742,Note_on_c,9,80,127,
2,4742,Note_on_c,9,81,127,
2,4742,Note_on_c,9,82,127,
2,4743,Note_off_c,9,36,0,
2,4744,Note_on_c,9,36,127,
2,4744,Note_on_c,9,37,127,
2,4744,Note_on_c,9,38,127,
2,4744,Note_on_c,9,39,127,
2,4744,Note_on_c,9,41,127,
2,4744,Note_on_c,9,42,127,
2,4744,Note_on_c,9,43,127,
2,4744,Note_on_c,9,45,127,
2,4744,Note_on_c,9,48,127,
2,4744,Note_on_c,9,51,127,
2,4744,Note_on_c,9,53,127,
2,4744,Note_on_c,9,80,127,
2,4744,Note_on_c,9,81,127,
2,4744,Note_on_c,9,82,127,
2,4745,Note_off_c,9,36,0,
2,4746,Note_on_c,9,36,127,
2,4746,Note_on_c,9,37,127,
2,4746,Note_on_c,9,38,127,
2,4746,Note_on_c,9,39,127,
2,4746,Note_on_c,9,41,127,
2,4746,Note_on_c,9,42,127,
2,4746,Note_on_c,9,43,127,
2,4746,Note_on_c,9,45,127,
2,4746,Note_on_c,9,48,127,
2,4746,Note_on_c,9,51,127,
2,4746,Note_on_c,9,53,127,
2,4746,Note_on_c,9,80,127,
2,4746,Note_on_c,9,81,127,
2,4746,Note_on_c,9,82,127,
2,4747,Note_off_c,9,36,0,
2,4748,Note_on_c,9,36,127,
2,4748,Note_on_c,9,37,127,
2,4748,Note_on_c,9,38,127,
2,4748,Note_on_c,9,39,127,
2,4748,Note_on_c,9,41,127,
2,4748,Note_on_c,9,42,127,
2,4748,Note_on_c,9,43,127,
2,4748,Note_on_c,9,45,127,
2,4748,Note_on_c,9,48,127,
2,4748,Note_on_c,9,51,127,
2,4748,Note_on_c,9,53,127,
2,4748,Note_on_c,9,80,127,
2,4748,Note_on_c,9,81,127,
2,4748,Note_on_c,9,82,127,
2,4749,Note_off_c,9,36,0,
2,4750,Note_on_c,9,36,127,
2,4750,Note_on_c,9,37,127,
2,4750,Note_on_c,9,38,127,
2,4750,Note_on_c,9,39,127,
2,4750,Note_on_c,9,41,127,
2,4750,Note_on_c,9,42,127,
2,4750,Note_on_c,9,43,127,
2,4750,Note_on_c,9,45,127,
2,4750,Note_on_c,9,48,127,
2,4750,Note_on_c,9,51,127,
2,4750,Note_on_c,9,53,127,
2,4750,Note_on_c,9,80,127,
2,4750,Note_on_c,9,81,127,
2,4750,Note_on_c,9,82,127,
2,4751,Note_off_c,9,36,0,
2,4752,Note_on_c,9,36,127,
2,4752,Note_on_c,9,37,127,
2,4752,Note_on_c,9,38,127,
2,4752,Note_on_c,9,39,127,
2,4752,Note_on_c,9,41,127,
2,4752,Note_on_c,9,42,127,
2,4752,Note_on_c,9,43,127,
2,4752,Note_on_c,9,45,127,
2,4752,Note_on_c,9,48,127,
2,4752,Note_on_c,9,51,127,
2,4752,Note_on_c,9,53,127,
2,4752,Note_on_c,9,80,127,
2,4752,Note_on_c,9,81,127,
2,4752,Note_on_c,9,82,127,
2,4753,Note_off_c,9,36,0,
2,4754,Note_on_c,9,36,127,
2,4754,Note_on_c,9,37,127,
2,4754,Note_on_c,9,38,127,
2,4754,Note_on_c,9,39,127,
2,4754,Note_on_c,9,41,127,
2,4754,Note_on_c,9,42,127,
2,4754,Note_on_c,9,43,127,
2,4754,Note_on_c,9,45,127,
2,4754,Note_on_c,9,48,127,
2,4754,Note_on_c,9,51,127,
2,4754,Note_on_c,9,53,127,
2,4754,Note_on_c,9,80,127,
2,4754,Note_on_c,9,81,127,
2,4754,Note_on_c,9,82,127,
2,4755,Note_off_c,9,36,0,
2,4756,Note_on_c,9,36,127,
2,4756,Note_on_c,9,37,127,
2,4756,Note_on_c,9,38,127,
2,4756,Note_on_c,9,39,127,
2,4756,Note_on_c,9,41,127,
2,4756,Note_on_c,9,42,127,
2,4756,Note_on_c,9,43,127,
2,4756,Note_on_c,9,45,127,
2,4756,Note_on_c,9,48,127,
2,4756,Note_on_c,9,51,127,
2,4756,Note_on_c,9,53,127,
2,4756,Note_on_c,9,80,127,
2,4756,Note_on_c,9,81,127,
2,4756,Note_on_c,9,82,127,
2,4757,Note_off_c,9,36,0,
2,4758,Note_on_c,9,36,127,
2,4758,Note_on_c,9,37,127,
2,4758,Note_on_c,9,38,127,
2,4758,Note_on_c,9,39,127,
2,4758,Note_on_c,9,41,127,
2,4758,Note_on_c,9,42,127,
2,4758,Note_on_c,9,43,127,
2,4758,Note_on_c,9,45,127,
2,4758,Note_on_c,9,48,127,
2,4758,Note_on_c,9,51,127,
2,4758,Note_on_c,9,53,127,
2,4758,Note_on_c,9,80,127,
2,4758,Note_on_c,9,81,127,
2,4758,Note_on_c,9,82,127,
2,4759,Note_off_c,9,36,0,
2,4760,Note_on_c,9,36,127,
2,4760,Note_on_c,9,37,127,
2,4760,Note_on_c,9,38,127,
2,4760,Note_on_c,9,39,127,
2,4760,Note_on_c,9,41,127,
2,4760,Note_on_c,9,42,127,
2,4760,Note_on_c,9,43,127,
2,4760,Note_on_c,9,45,127,
2,4760,Note_on_c,9,48,127,
2,4760,Note_on_c,9,51,127,
2,4760,Note_on_c,9,53,127,
2,4760,Note_on_c,9,80,127,
2,4760,Note_on_c,9,81,127,
2,4760,Note_on_c,9,82,127,
2,4761,Note_off_c,9,36,0,
2,4762,Note_on_c,9,36,127,
2,4762,Note_on_c,9,37,127,
2,4762,Note_on_c,9,38,127,
2,4762,Note_on_c,9,39,127,
2,4762,Note_on_c,9,41,127,
2,4762,Note_on_c,9,42,127,
2,4762,Note_on_c,9,43,127,
2,4762,Note_on_c,9,45,127,
2,4762,Note_on_c,9,48,127,
2,4762,Note_on_c,9,51,127,
2,4762,Note_on_c,9,53,127,
2,4762,Note_on_c,9,80,127,
2,4762,Note_on_c,9,81,127,
2,4762,Note_on_c,9,82,127,
2,4763,Note_off_c,9,36,0,
2,4764,Note_on_c,9,36,127,
2,4764,Note_on_c,9,37,127,
2,4764,Note_on_c,9,38,127,
2,4764,Note_on_c,9,39,127,
2,4764,Note_on_c,9,41,127,
2,4764,Note_on_c,9,42,127,
2,4764,Note_on_c,9,43,127,
2,4764,Note_on_c,9,45,127,
2,4764,Note_on_c,9,48,127,
2,4764,Note_on_c,9,51,127,
2,4764,Note_on_c,9,53,127,
2,4764,Note_on_c,9,80,127,
2,4764,Note_on_c,9,81,127,
2,4764,Note_on_c,9,82,127,
2,4765,Note_off_c,9,36,0,
2,4766,Note_on_c,9,36,127,
2,4766,Note_on_c,9,37,127,
2,4766,Note_on_c,9,38,127,
2,4766,Note_on_c,9,39,127,
2,4766,Note_on_c,9,41,127,
2,4766,Note_on_c,9,42,127,
2,4766,Note_on_c,9,43,127,
2,4766,Note_on_c,9,45,127,
2,4766,Note_on_c,9,48,127,
2,4766,Note_on_c,9,51,127,
2,4766,Note_on_c,9,53,127,
2,4766,Note_on_c,9,80,127,
2,4766,Note_on_c,9,81,127,
2,4766,Note_on_c,9,82,127,
2,4767,Note_off_c,9,36,0,
2,4768,Note_on_c,9,36,127,
2,4768,Note_on_c,9,37,127,
2,4768,Note_on_c,9,38,127,
2,4768,Note_on_c,9,39,127,
2,4768,Note_on_c,9,41,127,
2,4768,Note_on_c,9,42,127,
2,4768,Note_on_c,9,43,127,
2,4768,Note_on_c,9,45,127,
2,4768,Note_on_c,9,48,127,
2,4768,Note_on_c,9,51,127,
2,4768,Note_on_c,9,53,127,
2,4768,Note_on_c,9,80,127,
2,4768,Note_on_c,9,81,127,
2,4768,Note_on_c,9,82,127,
2,4769,Note_off_c,9,36,0,
2,4770,Note_on_c,9,36,127,
2,4770,Note_on_c,9,37,127,
2,4770,Note_on_c,9,38,127,
2,4770,Note_on_c,9,39,127,
2,4770,Note_on_c,9,41,127,
2,4770,Note_on_c,9,42,127,
2,4770,Note_on_c,9,43,127,
2,4770,Note_on_c,9,45,127,
2,4770,Note_on_c,9,48,127,
2,4770,Note_on_c,9,51,127,
2,4770,Note_on_c,9,53,127,
2,4770,Note_on_c,9,80,127,
2,4770,Note_on_c,9,81,127,
2,4770,Note_on_c,9,82,127,
2,4771,Note_off_c,9,36,0,
2,4772,Note_on_c,9,36,127,
2,4772,Note_on_c,9,37,127,
2,4772,Note_on_c,9,38,127,
2,4772,Note_on_c,9,39,127,
2,4772,Note_on_c,9,41,127,
2,4772,Note_on_c,9,42,127,
2,4772,Note_on_c,9,43,127,
2,4772,Note_on_c,9,45,127,
2,4772,Note_on_c,9,48,127,
2,4772,Note_on_c,9,51,127,
2,4772,Note_on_c,9,53,127,
2,4772,Note_on_c,9,80,127,
2,4772,Note_on_c,9,81,127,
2,4772,Note_on_c,9,82,127,
2,4773,Note_off_c,9,36,0,
2,4774,Note_on_c,9,36,127,
2,4774,Note_on_c,9,37,127,
2,4774,Note_on_c,9,38,127,
2,4774,Note_on_c,9,39,127,
2,4774,Note_on_c,9,41,127,
2,4774,Note_on_c,9,42,127,
2,4774,Note_on_c,9,43,127,
2,4774,Note_on_c,9,45,127,
2,4774,Note_on_c,9,48,127,
2,4774,Note_on_c,9,51,127,
2,4774,Note_on_c,9,53,127,
2,4774,Note_on_c,9,80,127,
2,4774,Note_on_c,9,81,127,
2,4774,Note_on_c,9,82,127,
2,4775,Note_off_c,9,36,0,
2,4776,Note_on_c,9,36,127,
2,4776,Note_on_c,9,37,127,
2,4776,Note_on_c,9,38,127,
2,4776,Note_on_c,9,39,127,
2,4776,Note_on_c,9,41,127,
2,4776,Note_on_c,9,42,127,
2,4776,Note_on_c,9,43,127,
2,4776,Note_on_c,9,45,127,
2,4776,Note_on_c,9,48,127,
2,4776,Note_on_c,9,51,127,
2,4776,Note_on_c,9,53,127,
2,4776,Note_on_c,9,80,127,
2,4776,Note_on_c,9,81,127,
2,4776,Note_on_c,9,82,127,
2,4777,Note_off_c,9,36,0,
2,4778,Note_on_c,9,36,127,
2,4778,Note_on_c,9,37,127,
2,4778,Note_on_c,9,38,127,
2,4778,Note_on_c,9,39,127,
2,4778,Note_on_c,9,41,127,
2,4778,Note_on_c,9,42,127,
2,4778,Note_on_c,9,43,127,
2,4778,Note_on_c,9,45,127,
2,4778,Note_on_c,9,48,127,
2,4778,Note_on_c,9,51,127,
2,4778,Note_on_c,9,53,127,
2,4778,Note_on_c,9,80,127,
2,4778,Note_on_c,9,81,127,
2,4778,Note_on_c,9,82,127,
2,4779,Note_off_c,9,36,0,
2,4780,Note_on_c,9,36,127,
2,4780,Note_on_c,9,37,127,
2,4780,Note_on_c,9,38,127,
2,4780,Note_on_c,9,39,127,
2,4780,Note_on_c,9,41,127,
2,4780,Note_on_c,9,42,127,
2,4780,Note_on_c,9,43,127,
2,4780,Note_on_c,9,45,127,
2,4780,Note_on_c,9,48,127,
2,4780,Note_on_c,9,51,127,
2,4780,Note_on_c,9,53,127,
2,4780,Note_on_c,9,80,127,
2,4780,Note_on_c,9,81,127,
2,4780,Note_on_c,9,82,127,
2,4781,Note_off_c,9,36,0,
2,4782,Note_on_c,9,36,127,
2,4782,Note_on_c,9,37,127,
2,4782,Note_on_c,9,38,127,
2,4782,Note_on_c,9,39,127,
2,4782,Note_on_c,9,41,127,
2,4782,Note_on_c,9,42,127,
2,4782,Note_on_c,9,43,127,
2,4782,Note_on_c,9,45,127,
2,4782,Note_on_c,9,48,127,
2,4782,Note_on_c,9,51,127,
2,4782,Note_on_c,9,53,127,
2,4782,Note_on_c,9,80,127,
2,4782,Note_on_c,9,81,127,
2,4782,Note_on_c,9,82,127,
2,4783,Note_off_c,9,36,0,
2,4784,Note_on_c,9,36,127,
2,4784,Note_on_c,9,37,127,
2,4784,Note_on_c,9,38,127,
2,4784,Note_on_c,9,39,127,
2,4784,Note_on_c,9,41,127,
2,4784,Note_on_c,9,42,127,
2,4784,Note_on_c,9,43,127,
2,4784,Note_on_c,9,45,127,
2,4784,Note_on_c,9,48,127,
2,4784,Note_on_c,9,51,127,
2,4784,Note_on_c,9,53,127,
2,4784,Note_on_c,9,80,127,
2,4784,Note_on_c,9,81,127,
2,4784,Note_on_c,9,82,127,
2,4785,Note_off_c,9,36,0,
2,4786,Note_on_c,9,36,127,
2,4786,Note_on_c,9,37,127,
2,4786,Note_on_c,9,38,127,
2,4786,Note_on_c,9,39,127,
2,4786,Note_on_c,9,41,127,
2,4786,Note_on_c,9,42,127,
2,4786,Note_on_c,9,43,127,
2,4786,Note_on_c,9,45,127,
2,4786,Note_on_c,9,48,127,
2,4786,Note_on_c,9,51,127,
2,4786,Note_on_c,9,53,127,
2,4786,Note_on_c,9,80,127,
2,4786,Note_on_c,9,81,127,
2,4786,Note_on_c,9,82,127,
2,4787,Note_off_c,9,36,0,
2,4788,Note_on_c,9,36,127,
2,4788,Note_on_c,9,37,127,
2,4788,Note_on_c,9,38,127,
2,4788,Note_on_c,9,39,127,
2,4788,Note_on_c,9,41,127,
2,4788,Note_on_c,9,42,127,
2,4788,Note_on_c,9,43,127,
2,4788,Note_on_c,9,45,127,
2,4788,Note_on_c,9,48,127,
2,4788,Note_on_c,9,51,127,
2,4788,Note_on_c,9,53,127,
2,4788,Note_on_c,9,80,127,
2,4788,Note_on_c,9,81,127,
2,4788,Note_on_c,9,82,127,
2,4789,Note_off_c,9,36,0,
2,4790,Note_on_c,9,36,127,
2,4790,Note_on_c,9,37,127,
2,4790,Note_on_c,9,38,127,
2,4790,Note_on_c,9,39,127,
2,4790,Note_on_c,9,41,127,
2,4790,Note_on_c,9,42,127,
2,4790,Note_on_c,9,43,127,
2,4790,Note_on_c,9,45,127,
2,4790,Note_on_c,9,48,127,
2,4790,Note_on_c,9,51,127,
2,4790,Note_on_c,9,53,127,
2,4790,Note_on_c,9,80,127,
2,4790,Note_on_c,9,81,127,
2,4790,Note_on_c,9,82,127,
2,4791,Note_off_c,9,36,0,
2,4792,Note_on_c,9,36,127,
2,4792,Note_on_c,9,37,127,
2,4792,Note_on_c,9,38,127,
2,4792,Note_on_c,9,39,127,
2,4792,Note_on_c,9,41,127,
2,4792,Note_on_c,9,42,127,
2,4792,Note_on_c,9,43,127,
2,4792,Note_on_c,9,45,127,
2,4792,Note_on_c,9,48,127,
2,4792,Note_on_c,9,51,127,
2,4792,Note_on_c,9,53,127,
2,4792,Note_on_c,9,80,127,
2,4792,Note_on_c,9,81,127,
2,4792,Note_on_c,9,82,127,
2,4793,Note_off_c,9,36,0,
2,4794,Note_on_c,9,36,127,
2,4794,Note_on_c,9,37,127,
2,4794,Note_on_c,9,38,127,
2,4794,Note_on_c,9,39,127,
2,4794,Note_on_c,9,41,127,
2,4794,Note_on_c,9,42,127,
2,4794,Note_on_c,9,43,127,
2,4794,Note_on_c,9,45,127,
2,4794,Note_on_c,9,48,127,
2,4794,Note_on_c,9,51,127,
2,4794,Note_on_c,9,53,127,
2,4794,Note_on_c,9,80,127,
2,4794,Note_on_c,9,81,127,
2,4794,Note_on_c,9,82,127,
2,4795,Note_off_c,9,36,0,
2,4796,Note_on_c,9,36,127,
2,4796,Note_on_c,9,37,127,
2,4796,Note_on_c,9,38,127,
2,4796,Note_on_c,9,39,127,
2,4796,Note_on_c,9,41,127,
2,4796,Note_on_c,9,42,127,
2,4796,Note_on_c,9,43,127,
2,4796,Note_on_c,9,45,127,
2,4796,Note_on_c,9,48,127,
2,4796,Note_on_c,9,51,127,
2,4796,Note_on_c,9,53,127,
2,4796,Note_on_c,9,80,127,
2,4796,Note_on_c,9,81,127,
2,4796,Note_on_c,9,82,127,
2,4797,Note_off_c,9,36,0,
2,4798,Note_on_c,9,36,127,
2,4798,Note_on_c,9,37,127,
2,4798,Note_on_c,9,38,127,
2,4798,Note_on_c,9,39,127,
2,4798,Note_on_c,9,41,127,
2,4798,Note_on_c,9,42,127,
2,4798,Note_on_c,9,43,127,
2,4798,Note_on_c,9,45,127,
2,4798,Note_on_c,9,48,127,
2,4798,Note_on_c,9,51,127,
2,4798,Note_on_c,9,53,127,
2,4798,Note_on_c,9,80,127,
2,4798,Note_on_c,9,81,127,
2,4798,Note_on_c,9,82,127,
2,4799,Note_off_c,9,36,0,
2,4800,Note_on_c,9,36,127,
2,4800,Note_on_c,9,37,127,
2,4800,Note_on_c,9,38,127,
2,4800,Note_on_c,9,39,127,
2,4800,Note_on_c,9,41,127,
2,4800,Note_on_c,9,42,127,
2,4800,Note_on_c,9,43,127,
2,4800,Note_on_c,9,45,127,
2,4800,Note_on_c,9,48,127,
2,4800,Note_on_c,9,51,127,
2,4800,Note_on_c,9,53,127,
2,4800,Note_on_c,9,80,127,
2,4800,Note_on_c,9,81,127,
2,4800,Note_on_c,9,82,127,
2,4801,Note_off_c,9,36,0,
2,4802,Note_on_c,9,36,127,
2,4802,Note_on_c,9,37,127,
2,4802,Note_on_c,9,38,127,
2,4802,Note_on_c,9,39,127,
2,4802,Note_on_c,9,41,127,
2,4802,Note_on_c,9,42,127,
2,4802,Note_on_c,9,43,127,
2,4802,Note_on_c,9,45,127,
2,4802,Note_on_c,9,48,127,
2,4802,Note_on_c,9,51,127,
2,4802,Note_on_c,9,53,127,
2,4802,Note_on_c,9,80,127,
2,4802,Note_on_c,9,81,127,
2,4802,Note_on_c,9,82,127,
2,4803,Note_off_c,9,36,0,
2,4804,Note_on_c,9,36,127,
2,4804,Note_on_c,9,37,127,
2,4804,Note_on_c,9,38,127,
2,4804,Note_on_c,9,39,127,
2,4804,Note_on_c,9,41,127,
2,4804,Note_on_c,9,42,127,
2,4804,Note_on_c,9,43,127,
2,4804,Note_on_c,9,45,127,
2,4804,Note_on_c,9,48,127,
2,4804,Note_on_c,9,51,127,
2,4804,Note_on_c,9,53,127,
2,4804,Note_on_c,9,80,127,
2,4804,Note_on_c,9,81,127,
2,4804,Note_on_c,9,82,127,
2,4805,Note_off_c,9,36,0,
2,4806,Note_on_c,9,36,127,
2,4806,Note_on_c,9,37,127,
2,4806,Note_on_c,9,38,127,
2,4806,Note_on_c,9,39,127,
2,4806,Note_on_c,9,41,127,
2,4806,Note_on_c,9,42,127,
2,4806,Note_on_c,9,43,127,
2,4806,Note_on_c,9,45,127,
2,4806,Note_on_c,9,48,127,
2,4806,Note_on_c,9,51,127,
2,4806,Note_on_c,9,53,127,
2,4806,Note_on_c,9,80,127,
2,4806,Note_on_c,9,81,127,
2,4806,Note_on_c,9,82,127,
2,4807,Note_off_c,9,36,0,
2,4808,Note_on_c,9,36,127,
2,4808,Note_on_c,9,37,127,
2,4808,Note_on_c,9,38,127,
2,4808,Note_on_c,9,39,127,
2,4808,Note_on_c,9,41,127,
2,4808,Note_on_c,9,42,127,
2,4808,Note_on_c,9,43,127,
2,4808,Note_on_c,9,45,127,
2,4808,Note_on_c,9,48,127,
2,4808,Note_on_c,9,51,127,
2,4808,Note_on_c,9,53,127,
2,4808,Note_on_c,9,80,127,
2,4808,Note_on_c,9,81,127,
2,4808,Note_on_c,9,82,127,
2,4809,Note_off_c,9,36,0,
2,4810,Note_on_c,9,36,127,
2,4810,Note_on_c,9,37,127,
2,4810,Note_on_c,9,38,127,
2,4810,Note_on_c,9,39,127,
2,4810,Note_on_c,9,41,127,
2,4810,Note_on_c,9,42,127,
2,4810,Note_on_c,9,43,127,
2,4810,Note_on_c,9,45,127,
2,4810,Note_on_c,9,48,127,
2,4810,Note_on_c,9,51,127,
2,4810,Note_on_c,9,53,127,
2,4810,Note_on_c,9,80,127,
2,4810,Note_on_c,9,81,127,
2,4810,Note_on_c,9,82,127,
2,4811,Note_off_c,9,36,0,
2,4812,Note_on_c,9,36,127,
2,4812,Note_on_c,9,37,127,
2,4812,Note_on_c,9,38,127,
2,4812,Note_on_c,9,39,127,
2,4812,Note_on_c,9,41,127,
2,4812,Note_on_c,9,42,127,
2,4812,Note_on_c,9,43,127,
2,4812,Note_on_c,9,45,127,
2,4812,Note_on_c,9,48,127,
2,4812,Note_on_c,9,51,127,
2,4812,Note_on_c,9,53,127,
2,4812,Note_on_c,9,80,127,
2,4812,Note_on_c,9,81,127,
2,4812,Note_on_c,9,82,127,
2,4813,Note_off_c,9,36,0,
2,4814,Note_on_c,9,36,127,
2,4814,Note_on_c,9,37,127,
2,4814,Note_on_c,9,38,127,
2,4814,Note_on_c,9,39,127,
2,4814,Note_on_c,9,41,127,
2,4814,Note_on_c,9,42,127,
2,4814,Note_on_c,9,43,127,
2,4814,Note_on_c,9,45,127,
2,4814,Note_on_c,9,48,127,
2,4814,Note_on_c,9,51,127,
2,4814,Note_on_c,9,53,127,
2,4814,Note_on_c,9,80,127,
2,4814,Note_on_c,9,81,127,
2,4814,Note_on_c,9,82,127,
2,4815,Note_off_c,9,36,0,
2,4816,Note_on_c,9,36,127,
2,4816,Note_on_c,9,37,127,
2,4816,Note_on_c,9,38,127,
2,4816,Note_on_c,9,39,127,
2,4816,Note_on_c,9,41,127,
2,4816,Note_on_c,9,42,127,
2,4816,Note_on_c,9,43,127,
2,4816,Note_on_c,9,45,127,
2,4816,Note_on_c,9,48,127,
2,4816,Note_on_c,9,51,127,
2,4816,Note_on_c,9,53,127,
2,4816,Note_on_c,9,80,127,
2,4816,Note_on_c,9,81,127,
2,4816,Note_on_c,9,82,127,
2,4817,Note_off_c,9,36,0,
2,4818,Note_on_c,9,36,127,
2,4818,Note_on_c,9,37,127,
2,4818,Note_on_c,9,38,127,
2,4818,Note_on_c,9,39,127,
2,4818,Note_on_c,9,41,127,
2,4818,Note_on_c,9,42,127,
2,4818,Note_on_c,9,43,127,
2,4818,Note_on_c,9,45,127,
2,4818,Note_on_c,9,48,127,
2,4818,Note_on_c,9,51,127,
2,4818,Note_on_c,9,53,127,
2,4818,Note_on_c,9,80,127,
2,4818,Note_on_c,9,81,127,
2,4818,Note_on_c,9,82,127,
2,4819,Note_off_c,9,36,0,
2,4820,Note_on_c,9,36,127,
2,4820,Note_on_c,9,37,127,
2,4820,Note_on_c,9,38,127,
2,4820,Note_on_c,9,39,127,
2,4820,Note_on_c,9,41,127,
2,4820,Note_on_c,9,42,127,
2,4820,Note_on_c,9,43,127,
2,4820,Note_on_c,9,45,127,
2,4820,Note_on_c,9,48,127,
2,4820,Note_on_c,9,51,127,
2,4820,Note_on_c,9,53,127,
2,4820,Note_on_c,9,80,127,
2,4820,Note_on_c,9,81,127,
2,4820,Note_on_c,9,82,127,
2,4821,Note_off_c,9,36,0,
2,4822,Note_on_c,9,36,127,
2,4822,Note_on_c,9,37,127,
2,4822,Note_on_c,9,38,127,
2,4822,Note_on_c,9,39,127,
2,4822,Note_on_c,9,41,127,
2,4822,Note_on_c,9,42,127,
2,4822,Note_on_c,9,43,127,
2,4822,Note_on_c,9,45,127,
2,4822,Note_on_c,9,48,127,
2,4822,Note_on_c,9,51,127,
2,4822,Note_on_c,9,53,127,
2,4822,Note_on_c,9,80,127,
2,4822,Note_on_c,9,81,127,
2,4822,Note_on_c,9,82,127,
2,4823,Note_off_c,9,36,0,
2,4824,Note_on_c,9,36,127,
2,4824,Note_on_c,9,37,127,
2,4824,Note_on_c,9,38,127,
2,4824,Note_on_c,9,39,127,
2,4824,Note_on_c,9,41,127,
2,4824,Note_on_c,9,42,127,
2,4824,Note_on_c,9,43,127,
2,4824,Note_on_c,9,45,127,
2,4824,Note_on_c,9,48,127,
2,4824,Note_on_c,9,51,127,
2,4824,Note_on_c,9,53,127,
2,4824,Note_on_c,9,80,127,
2,4824,Note_on_c,9,81,127,
2,4824,Note_on_c,9,82,127,
2,4825,Note_off_c,9,36,0,
2,4826,Note_on_c,9,36,127,
2,4826,Note_on_c,9,37,127,
2,4826,Note_on_c,9,38,127,
2,4826,Note_on_c,9,39,127,
2,4826,Note_on_c,9,41,127,
2,4826,Note_on_c,9,42,127,
2,4826,Note_on_c,9,43,127,
2,4826,Note_on_c,9,45,127,
2,4826,Note_on_c,9,48,127,
2,4826,Note_on_c,9,51,127,
2,4826,Note_on_c,9,53,127,
2,4826,Note_on_c,9,80,127,
2,4826,Note_on_c,9,81,127,
2,4826,Note_on_c,9,82,127,
2,4827,Note_off_c,9,36,0,
2,4828,Note_on_c,9,36,127,
2,4828,Note_on_c,9,37,127,
2,4828,Note_on_c,9,38,127,
2,4828,Note_on_c,9,39,127,
2,4828,Note_on_c,9,41,127,
2,4828,Note_on_c,9,42,127,
2,4828,Note_on_c,9,43,127,
2,4828,Note_on_c,9,45,127,
2,4828,Note_on_c,9,48,127,
2,4828,Note_on_c,9,51,127,
2,4828,Note_on_c,9,53,127,
2,4828,Note_on_c,9,80,127,
2,4828,Note_on_c,9,81,127,
2,4828,Note_on_c,9,82,127,
2,4829,Note_off_c,9,36,0,
2,4830,Note_on_c,9,36,127,
2,4830,Note_on_c,9,37,127,
2,4830,Note_on_c,9,38,127,
2,4830,Note_on_c,9,39,127,
2,4830,Note_on_c,9,41,127,
2,4830,Note_on_c,9,42,127,
2,4830,Note_on_c,9,43,127,
2,4830,Note_on_c,9,45,127,
2,4830,Note_on_c,9,48,127,
2,4830,Note_on_c,9,51,127,
2,4830,Note_on_c,9,53,127,
2,4830,Note_on_c,9,80,127,
2,4830,Note_on_c,9,81,127,
2,4830,Note_on_c,9,82,127,
2,4831,Note_off_c,9,36,0,
2,4832,Note_on_c,9,36,127,
2,4832,Note_on_c,9,37,127,
2,4832,Note_on_c,9,38,127,
2,4832,Note_on_c,9,39,127,
2,4832,Note_on_c,9,41,127,
2,4832,Note_on_c,9,42,127,
2,4832,Note_on_c,9,43,127,
2,4832,Note_on_c,9,45,127,
2,4832,Note_on_c,9,48,127,
2,4832,Note_on_c,9,51,127,
2,4832,Note_on_c,9,53,127,
2,4832,Note_on_c,9,80,127,
2,4832,Note_on_c,9,81,127,
2,4832,Note_on_c,9,82,127,
2,4833,Note_off_c,9,36,0,
2,4834,Note_on_c,9,36,127,
2,4834,Note_on_c,9,37,127,
2,4834,Note_on_c,9,38,127,
2,4834,Note_on_c,9,39,127,
2,4834,Note_on_c,9,41,127,
2,4834,Note_on_c,9,42,127,
2,4834,Note_on_c,9,43,127,
2,4834,Note_on_c,9,45,127,
2,4834,Note_on_c,9,48,127,
2,4834,Note_on_c,9,51,127,
2,4834,Note_on_c,9,53,127,
2,4834,Note_on_c,9,80,127,
2,4834,Note_on_c,9,81,127,
2,4834,Note_on_c,9,82,127,
2,4835,Note_off_c,9,36,0,
2,4836,Note_on_c,9,36,127,
2,4836,Note_on_c,9,37,127,
2,4836,Note_on_c,9,38,127,
2,4836,Note_on_c,9,39,127,
2,4836,Note_on_c,9,41,127,
2,4836,Note_on_c,9,42,127,
2,4836,Note_on_c,9,43,127,
2,4836,Note_on_c,9,45,127,
2,4836,Note_on_c,9,48,127,
2,4836,Note_on_c,9,51,127,
2,4836,Note_on_c,9,53,127,
2,4836,Note_on_c,9,80,127,
2,4836,Note_on_c,9,81,127,
2,4836,Note_on_c,9,82,127,
2,4837,Note_off_c,9,36,0,
2,4838,Note_on_c,9,36,127,
2,4838,Note_on_c,9,37,127,
2,4838,Note_on_c,9,38,127,
2,4838,Note_on_c,9,39,127,
2,4838,Note_on_c,9,41,127,
2,4838,Note_on_c,9,42,127,
2,4838,Note_on_c,9,43,127,
2,4838,Note_on_c,9,45,127,
2,4838,Note_on_c,9,48,127,
2,4838,Note_on_c,9,51,127,
2,4838,Note_on_c,9,53,127,
2,4838,Note_on_c,9,80,127,
2,4838,Note_on_c,9,81,127,
2,4838,Note_on_c,9,82,127,
2,4839,Note_off_c,9,36,0,
2,4840,Note_on_c,9,36,127,
2,4840,Note_on_c,9,37,127,
2,4840,Note_on_c,9,38,127,
2,4840,Note_on_c,9,39,127,
2,4840,Note_on_c,9,41,127,
2,4840,Note_on_c,9,42,127,
2,4840,Note_on_c,9,43,127,
2,4840,Note_on_c,9,45,127,
2,4840,Note_on_c,9,48,127,
2,4840,Note_on_c,9,51,127,
2,4840,Note_on_c,9,53,127,
2,4840,Note_on_c,9,80,127,
2,4840,Note_on_c,9,81,127,
2,4840,Note_on_c,9,82,127,
2,4841,Note_off_c,9,36,0,
2,4842,Note_on_c,9,36,127,
2,4842,Note_on_c,9,37,127,
2,4842,Note_on_c,9,38,127,
2,4842,Note_on_c,9,39,127,
2,4842,Note_on_c,9,41,127,
2,4842,Note_on_c,9,42,127,
2,4842,Note_on_c,9,43,127,
2,4842,Note_on_c,9,45,127,
2,4842,Note_on_c,9,48,127,
2,4842,Note_on_c,9,51,127,
2,4842,Note_on_c,9,53,127,
2,4842,Note_on_c,9,80,127,
2,4842,Note_on_c,9,81,127,
2,4842,Note_on_c,9,82,127,
2,4843,Note_off_c,9,36,0,
2,4844,Note_on_c,9,36,127,
2,4844,Note_on_c,9,37,127,
2,4844,Note_on_c,9,38,127,
2,4844,Note_on_c,9,39,127,
2,4844,Note_on_c,9,41,127,
2,4844,Note_on_c,9,42,127,
2,4844,Note_on_c,9,43,127,
2,4844,Note_on_c,9,45,127,
2,4844,Note_on_c,9,48,127,
2,4844,Note_on_c,9,51,127,
2,4844,Note_on_c,9,53,127,
2,4844,Note_on_c,9,80,127,
2,4844,Note_on_c,9,81,127,
2,4844,Note_on_c,9,82,127,
2,4845,Note_off_c,9,36,0,
2,4846,Note_on_c,9,36,127,
2,4846,Note_on_c,9,37,127,
2,4846,Note_on_c,9,38,127,
2,4846,Note_on_c,9,39,127,
2,4846,Note_on_c,9,41,127,
2,4846,Note_on_c,9,42,127,
2,4846,Note_on_c,9,43,127,
2,4846,Note_on_c,9,45,127,
2,4846,Note_on_c,9,48,127,
2,4846,Note_on_c,9,51,127,
2,4846,Note_on_c,9,53,127,
2,4846,Note_on_c,9,80,127,
2,4846,Note_on_c,9,81,127,
2,4846,Note_on_c,9,82,127,
2,4847,Note_off_c,9,36,0,
2,4848,Note_on_c,9,36,127,
2,4848,Note_on_c,9,37,127,
2,4848,Note_on_c,9,38,127,
2,4848,Note_on_c,9,39,127,
2,4848,Note_on_c,9,41,127,
2,4848,Note_on_c,9,42,127,
2,4848,Note_on_c,9,43,127,
2,4848,Note_on_c,9,45,127,
2,4848,Note_on_c,9,48,127,
2,4848,Note_on_c,9,51,127,
2,4848,Note_on_c,9,53,127,
2,4848,Note_on_c,9,80,127,
2,4848,Note_on_c,9,81,127,
2,4848,Note_on_c,9,82,127,
2,4849,Note_off_c,9,36,0,
2,4850,Note_on_c,9,36,127,
2,4850,Note_on_c,9,37,127,
2,4850,Note_on_c,9,38,127,
2,4850,Note_on_c,9,39,127,
2,4850,Note_on_c,9,41,127,
2,4850,Note_on_c,9,42,127,
2,4850,Note_on_c,9,43,127,
2,4850,Note_on_c,9,45,127,
2,4850,Note_on_c,9,48,127,
2,4850,Note_on_c,9,51,127,
2,4850,Note_on_c,9,53,127,
2,4850,Note_on_c,9,80,127,
2,4850,Note_on_c,9,81,127,
2,4850,Note_on_c,9,82,127,
2,4851,Note_off_c,9,36,0,
2,4852,Note_on_c,9,36,127,
2,4852,Note_on_c,9,37,127,
2,4852,Note_on_c,9,38,127,
2,4852,Note_on_c,9,39,127,
2,4852,Note_on_c,9,41,127,
2,4852,Note_on_c,9,42,127,
2,4852,Note_on_c,9,43,127,
2,4852,Note_on_c,9,45,127,
2,4852,Note_on_c,9,48,127,
2,4852,Note_on_c,9,51,127,
2,4852,Note_on_c,9,53,127,
2,4852,Note_on_c,9,80,127,
2,4852,Note_on_c,9,81,127,
2,4852,Note_on_c,9,82,127,
2,4853,Note_off_c,9,36,0,
2,4854,Note_on_c,9,36,127,
2,4854,Note_on_c,9,37,127,
2,4854,Note_on_c,9,38,127,
2,4854,Note_on_c,9,39,127,
2,4854,Note_on_c,9,41,127,
2,4854,Note_on_c,9,42,127,
2,4854,Note_on_c,9,43,127,
2,4854,Note_on_c,9,45,127,
2,4854,Note_on_c,9,48,127,
2,4854,Note_on_c,9,51,127,
2,4854,Note_on_c,9,53,127,
2,4854,Note_on_c,9,80,127,
2,4854,Note_on_c,9,81,127,
2,4854,Note_on_c,9,82,127,
2,4855,Note_off_c,9,36,0,
2,4856,Note_on_c,9,36,127,
2,4856,Note_on_c,9,37,127,
2,4856,Note_on_c,9,38,127,
2,4856,Note_on_c,9,39,127,
2,4856,Note_on_c,9,41,127,
2,4856,Note_on_c,9,42,127,
2,4856,Note_on_c,9,43,127,
2,4856,Note_on_c,9,45,127,
2,4856,Note_on_c,9,48,127,
2,4856,Note_on_c,9,51,127,
2,4856,Note_on_c,9,53,127,
2,4856,Note_on_c,9,80,127,
2,4856,Note_on_c,9,81,127,
2,4856,Note_on_c,9,82,127,
2,4857,Note_off_c,9,36,0,
2,4858,Note_on_c,9,36,127,
2,4858,Note_on_c,9,37,127,
2,4858,Note_on_c,9,38,127,
2,4858,Note_on_c,9,39,127,
2,4858,Note_on_c,9,41,127,
2,4858,Note_on_c,9,42,127,
2,4858,Note_on_c,9,43,127,
2,4858,Note_on_c,9,45,127,
2,4858,Note_on_c,9,48,127,
2,4858,Note_on_c,9,51,127,
2,4858,Note_on_c,9,53,127,
2,4858,Note_on_c,9,80,127,
2,4858,Note_on_c,9,81,127,
2,4858,Note_on_c,9,82,127,
2,4859,Note_off_c,9,36,0,
2,4860,Note_on_c,9,36,127,
2,4860,Note_on_c,9,37,127,
2,4860,Note_on_c,9,38,127,
2,4860,Note_on_c,9,39,127,
2,4860,Note_on_c,9,41,127,
2,4860,Note_on_c,9,42,127,
2,4860,Note_on_c,9,43,127,
2,4860,Note_on_c,9,45,127,
2,4860,Note_on_c,9,48,127,
2,4860,Note_on_c,9,51,127,
2,4860,Note_on_c,9,53,127,
2,4860,Note_on_c,9,80,127,
2,4860,Note_on_c,9,81,127,
2,4860,Note_on_c,9,82,127,
2,4861,Note_off_c,9,36,0,
2,4862,Note_on_c,9,36,127,
2,4862,Note_on_c,9,37,127,
2,4862,Note_on_c,9,38,127,
2,4862,Note_on_c,9,39,127,
2,4862,Note_on_c,9,41,127,
2,4862,Note_on_c,9,42,127,
2,4862,Note_on_c,9,43,127,
2,4862,Note_on_c,9,45,127,
2,4862,Note_on_c,9,48,127,
2,4862,Note_on_c,9,51,127,
2,4862,Note_on_c,9,53,127,
2,4862,Note_on_c,9,80,127,
2,4862,Note_on_c,9,81,127,
2,4862,Note_on_c,9,82,127,
2,4863,Note_off_c,9,36,0,
2,4864,Note_on_c,9,36,127,
2,4864,Note_on_c,9,37,127,
2,4864,Note_on_c,9,38,127,
2,4864,Note_on_c,9,39,127,
2,4864,Note_on_c,9,41,127,
2,4864,Note_on_c,9,42,127,
2,4864,Note_on_c,9,43,127,
2,4864,Note_on_c,9,45,127,
2,4864,Note_on_c,9,48,127,
2,4864,Note_on_c,9,51,127,
2,4864,Note_on_c,9,53,127,
2,4864,Note_on_c,9,80,127,
2,4864,Note_on_c,9,81,127,
2,4864,Note_on_c,9,82,127,
2,4865,Note_off_c,9,36,0,
2,4866,Note_on_c,9,36,127,
2,4866,Note_on_c,9,37,127,
2,4866,Note_on_c,9,38,127,
2,4866,Note_on_c,9,39,127,
2,4866,Note_on_c,9,41,127,
2,4866,Note_on_c,9,42,127,
2,4866,Note_on_c,9,43,127,
2,4866,Note_on_c,9,45,127,
2,4866,Note_on_c,9,48,127,
2,4866,Note_on_c,9,51,127,
2,4866,Note_on_c,9,53,127,
2,4866,Note_on_c,9,80,127,
2,4866,Note_on_c,9,81,127,
2,4866,Note_on_c,9,82,127,
2,4867,Note_off_c,9,36,0,
2,4868,Note_on_c,9,36,127,
2,4868,Note_on_c,9,37,127,
2,4868,Note_on_c,9,38,127,
2,4868,Note_on_c,9,39,127,
2,4868,Note_on_c,9,41,127,
2,4868,Note_on_c,9,42,127,
2,4868,Note_on_c,9,43,127,
2,4868,Note_on_c,9,45,127,
2,4868,Note_on_c,9,48,127,
2,4868,Note_on_c,9,51,127,
2,4868,Note_on_c,9,53,127,
2,4868,Note_on_c,9,80,127,
2,4868,Note_on_c,9,81,127,
2,4868,Note_on_c,9,82,127,
2,4869,Note_off_c,9,36,0,
2,4870,Note_on_c,9,36,127,
2,4870,Note_on_c,9,37,127,
2,4870,Note_on_c,9,38,127,
2,4870,Note_on_c,9,39,127,
2,4870,Note_on_c,9,41,127,
2,4870,Note_on_c,9,42,127,
2,4870,Note_on_c,9,43,127,
2,4870,Note_on_c,9,45,127,
2,4870,Note_on_c,9,48,127,
2,4870,Note_on_c,9,51,127,
2,4870,Note_on_c,9,53,127,
2,4870,Note_on_c,9,80,127,
2,4870,Note_on_c,9,81,127,
2,4870,Note_on_c,9,82,127,
2,4871,Note_off_c,9,36,0,
2,4872,Note_on_c,9,36,127,
2,4872,Note_on_c,9,37,127,
2,4872,Note_on_c,9,38,127,
2,4872,Note_on_c,9,39,127,
2,4872,Note_on_c,9,41,127,
2,4872,Note_on_c,9,42,127,
2,4872,Note_on_c,9,43,127,
2,4872,Note_on_c,9,45,127,
2,4872,Note_on_c,9,48,127,
2,4872,Note_on_c,9,51,127,
2,4872,Note_on_c,9,53,127,
2,4872,Note_on_c,9,80,127,
2,4872,Note_on_c,9,81,127,
2,4872,Note_on_c,9,82,127,
2,4873,Note_off_c,9,36,0,
2,4874,Note_on_c,9,36,127,
2,4874,Note_on_c,9,37,127,
2,4874,Note_on_c,9,38,127,
2,4874,Note_on_c,9,39,127,
2,4874,Note_on_c,9,41,127,
2,4874,Note_on_c,9,42,127,
2,4874,Note_on_c,9,43,127,
2,4874,Note_on_c,9,45,127,
2,4874,Note_on_c,9,48,127,
2,4874,Note_on_c,9,51,127,
2,4874,Note_on_c,9,53,127,
2,4874,Note_on_c,9,80,127,
2,4874,Note_on_c,9,81,127,
2,4874,Note_on_c,9,82,127,
2,4875,Note_off_c,9,36,0,
2,4876,Note_on_c,9,36,127,
2,4876,Note_on_c,9,37,127,
2,4876,Note_on_c,9,38,127,
2,4876,Note_on_c,9,39,127,
2,4876,Note_on_c,9,41,127,
2,4876,Note_on_c,9,42,127,
2,4876,Note_on_c,9,43,127,
2,4876,Note_on_c,9,45,127,
2,4876,Note_on_c,9,48,127,
2,4876,Note_on_c,9,51,127,
2,4876,Note_on_c,9,53,127,
2,4876,Note_on_c,9,80,127,
2,4876,Note_on_c,9,81,127,
2,4876,Note_on_c,9,82,127,
2,4877,Note_off_c,9,36,0,
2,4878,Note_on_c,9,36,127,
2,4878,Note_on_c,9,37,127,
2,4878,Note_on_c,9,38,127,
2,4878,Note_on_c,9,39,127,
2,4878,Note_on_c,9,41,127,
2,4878,Note_on_c,9,42,127,
2,4878,Note_on_c,9,43,127,
2,4878,Note_on_c,9,45,127,
2,4878,Note_on_c,9,48,127,
2,4878,Note_on_c,9,51,127,
2,4878,Note_on_c,9,53,127,
2,4878,Note_on_c,9,80,127,
2,4878,Note_on_c,9,81,127,
2,4878,Note_on_c,9,82,127,
2,4879,Note_off_c,9,36,0,
2,4880,Note_on_c,9,36,127,
2,4880,Note_on_c,9,37,127,
2,4880,Note_on_c,9,38,127,
2,4880,Note_on_c,9,39,127,
2,4880,Note_on_c,9,41,127,
2,4880,Note_on_c,9,42,127,
2,4880,Note_on_c,9,43,127,
2,4880,Note_on_c,9,45,127,
2,4880,Note_on_c,9,48,127,
2,4880,Note_on_c,9,51,127,
2,4880,Note_on_c,9,53,127,
2,4880,Note_on_c,9,80,127,
2,4880,Note_on_c,9,81,127,
2,4880,Note_on_c,9,82,127,
2,4881,Note_off_c,9,36,0,
2,4882,Note_on_c,9,36,127,
2,4882,Note_on_c,9,37,127,
2,4882,Note_on_c,9,38,127,
2,4882,Note_on_c,9,39,127,
2,4882,Note_on_c,9,41,127,
2,4882,Note_on_c,9,42,127,
2,4882,Note_on_c,9,43,127,
2,4882,Note_on_c,9,45,127,
2,4882,Note_on_c,9,48,127,
2,4882,Note_on_c,9,51,127,
2,4882,Note_on_c,9,53,127,
2,4882,Note_on_c,9,80,127,
2,4882,Note_on_c,9,81,127,
2,4882,Note_on_c,9,82,127,
2,4883,Note_off_c,9,36,0,
2,4884,Note_on_c,9,36,127,
2,4884,Note_on_c,9,37,127,
2,4884,Note_on_c,9,38,127,
2,4884,Note_on_c,9,39,127,
2,4884,Note_on_c,9,41,127,
2,4884,Note_on_c,9,42,127,
2,4884,Note_on_c,9,43,127,
2,4884,Note_on_c,9,45,127,
2,4884,Note_on_c,9,48,127,
2,4884,Note_on_c,9,51,127,
2,4884,Note_on_c,9,53,127,
2,4884,Note_on_c,9,80,127,
2,4884,Note_on_c,9,81,127,
2,4884,Note_on_c,9,82,127,
2,4885,Note_off_c,9,36,0,
2,4886,Note_on_c,9,36,127,
2,4886,Note_on_c,9,37,127,
2,4886,Note_on_c,9,38,127,
2,4886,Note_on_c,9,39,127,
2,4886,Note_on_c,9,41,127,
2,4886,Note_on_c,9,42,127,
2,4886,Note_on_c,9,43,127,
2,4886,Note_on_c,9,45,127,
2,4886,Note_on_c,9,48,127,
2,4886,Note_on_c,9,51,127,
2,4886,Note_on_c,9,53,127,
2,4886,Note_on_c,9,80,127,
2,4886,Note_on_c,9,81,127,
2,4886,Note_on_c,9,82,127,
2,4887,Note_off_c,9,36,0,
2,4888,Note_on_c,9,36,127,
2,4888,Note_on_c,9,37,127,
2,4888,Note_on_c,9,38,127,
2,4888,Note_on_c,9,39,127,
2,4888,Note_on_c,9,41,127,
2,4888,Note_on_c,9,42,127,
2,4888,Note_on_c,9,43,127,
2,4888,Note_on_c,9,45,127,
2,4888,Note_on_c,9,48,127,
2,4888,Note_on_c,9,51,127,
2,4888,Note_on_c,9,53,127,
2,4888,Note_on_c,9,80,127,
2,4888,Note_on_c,9,81,127,
2,4888,Note_on_c,9,82,127,
2,4889,Note_off_c,9,36,0,
2,4890,Note_on_c,9,36,127,
2,4890,Note_on_c,9,37,127,
2,4890,Note_on_c,9,38,127,
2,4890,Note_on_c,9,39,127,
2,4890,Note_on_c,9,41,127,
2,4890,Note_on_c,9,42,127,
2,4890,Note_on_c,9,43,127,
2,4890,Note_on_c,9,45,127,
2,4890,Note_on_c,9,48,127,
2,4890,Note_on_c,9,51,127,
2,4890,Note_on_c,9,53,127,
2,4890,Note_on_c,9,80,127,
2,4890,Note_on_c,9,81,127,
2,4890,Note_on_c,9,82,127,
2,4891,Note_off_c,9,36,0,
2,4892,Note_on_c,9,36,127,
2,4892,Note_on_c,9,37,127,
2,4892,Note_on_c,9,38,127,
2,4892,Note_on_c,9,39,127,
2,4892,Note_on_c,9,41,127,
2,4892,Note_on_c,9,42,127,
2,4892,Note_on_c,9,43,127,
2,4892,Note_on_c,9,45,127,
2,4892,Note_on_c,9,48,127,
2,4892,Note_on_c,9,51,127,
2,4892,Note_on_c,9,53,127,
2,4892,Note_on_c,9,80,127,
2,4892,Note_on_c,9,81,127,
2,4892,Note_on_c,9,82,127,
2,4893,Note_off_c,9,36,0,
2,4894,Note_on_c,9,36,127,
2,4894,Note_on_c,9,37,127,
2,4894,Note_on_c,9,38,127,
2,4894,Note_on_c,9,39,127,
2,4894,Note_on_c,9,41,127,
2,4894,Note_on_c,9,42,127,
2,4894,Note_on_c,9,43,127,
2,4894,Note_on_c,9,45,127,
2,4894,Note_on_c,9,48,127,
2,4894,Note_on_c,9,51,127,
2,4894,Note_on_c,9,53,127,
2,4894,Note_on_c,9,80,127,
2,4894,Note_on_c,9,81,127,
2,4894,Note_on_c,9,82,127,
2,4895,Note_off_c,9,36,0,
2,4896,Note_on_c,9,36,127,
2,4896,Note_on_c,9,37,127,
2,4896,Note_on_c,9,38,127,
2,4896,Note_on_c,9,39,127,
2,4896,Note_on_c,9,41,127,
2,4896,Note_on_c,9,42,127,
2,4896,Note_on_c,9,43,127,
2,4896,Note_on_c,9,45,127,
2,4896,Note_on_c,9,48,127,
2,4896,Note_on_c,9,51,127,
2,4896,Note_on_c,9,53,127,
2,4896,Note_on_c,9,80,127,
2,4896,Note_on_c,9,81,127,
2,4896,Note_on_c,9,82,127,
2,4897,Note_off_c,9,36,0,
2,4898,Note_on_c,9,36,127,
2,4898,Note_on_c,9,37,127,
2,4898,Note_on_c,9,38,127,
2,4898,Note_on_c,9,39,127,
2,4898,Note_on_c,9,41,127,
2,4898,Note_on_c,9,42,127,
2,4898,Note_on_c,9,43,127,
2,4898,Note_on_c,9,45,127,
2,4898,Note_on_c,9,48,127,
2,4898,Note_on_c,9,51,127,
2,4898,Note_on_c,9,53,127,
2,4898,Note_on_c,9,80,127,
2,4898,Note_on_c,9,81,127,
2,4898,Note_on_c,9,82,127,
2,4899,Note_off_c,9,36,0,
2,4900,Note_on_c,9,36,127,
2,4900,Note_on_c,9,37,127,
2,4900,Note_on_c,9,38,127,
2,4900,Note_on_c,9,39,127,
2,4900,Note_on_c,9,41,127,
2,4900,Note_on_c,9,42,127,
2,4900,Note_on_c,9,43,127,
2,4900,Note_on_c,9,45,127,
2,4900,Note_on_c,9,48,127,
2,4900,Note_on_c,9,51,127,
2,4900,Note_on_c,9,53,127,
2,4900,Note_on_c,9,80,127,
2,4900,Note_on_c,9,81,127,
2,4900,Note_on_c,9,82,127,
2,4901,Note_off_c,9,36,0,
2,4902,Note_on_c,9,36,127,
2,4902,Note_on_c,9,37,127,
2,4902,Note_on_c,9,38,127,
2,4902,Note_on_c,9,39,127,
2,4902,Note_on_c,9,41,127,
2,4902,Note_on_c,9,42,127,
2,4902,Note_on_c,9,43,127,
2,4902,Note_on_c,9,45,127,
2,4902,Note_on_c,9,48,127,
2,4902,Note_on_c,9,51,127,
2,4902,Note_on_c,9,53,127,
2,4902,Note_on_c,9,80,127,
2,4902,Note_on_c,9,81,127,
2,4902,Note_on_c,9,82,127,
2,4903,Note_off_c,9,36,0,
2,4904,Note_on_c,9,36,127,
2,4904,Note_on_c,9,37,127,
2,4904,Note_on_c,9,38,127,
2,4904,Note_on_c,9,39,127,
2,4904,Note_on_c,9,41,127,
2,4904,Note_on_c,9,42,127,
2,4904,Note_on_c,9,43,127,
2,4904,Note_on_c,9,45,127,
2,4904,Note_on_c,9,48,127,
2,4904,Note_on_c,9,51,127,
2,4904,Note_on_c,9,53,127,
2,4904,Note_on_c,9,80,127,
2,4904,Note_on_c,9,81,127,
2,4904,Note_on_c,9,82,127,
2,4905,Note_off_c,9,36,0,
2,4906,Note_on_c,9,36,127,
2,4906,Note_on_c,9,37,127,
2,4906,Note_on_c,9,38,127,
2,4906,Note_on_c,9,39,127,
2,4906,Note_on_c,9,41,127,
2,4906,Note_on_c,9,42,127,
2,4906,Note_on_c,9,43,127,
2,4906,Note_on_c,9,45,127,
2,4906,Note_on_c,9,48,127,
2,4906,Note_on_c,9,51,127,
2,4906,Note_on_c,9,53,127,
2,4906,Note_on_c,9,80,127,
2,4906,Note_on_c,9,81,127,
2,4906,Note_on_c,9,82,127,
2,4907,Note_off_c,9,36,0,
2,4908,Note_on_c,9,36,127,
2,4908,Note_on_c,9,37,127,
2,4908,Note_on_c,9,38,127,
2,4908,Note_on_c,9,39,127,
2,4908,Note_on_c,9,41,127,
2,4908,Note_on_c,9,42,127,
2,4908,Note_on_c,9,43,127,
2,4908,Note_on_c,9,45,127,
2,4908,Note_on_c,9,48,127,
2,4908,Note_on_c,9,51,127,
2,4908,Note_on_c,9,53,127,
2,4908,Note_on_c,9,80,127,
2,4908,Note_on_c,9,81,127,
2,4908,Note_on_c,9,82,127,
2,4909,Note_off_c,9,36,0,
2,4910,Note_on_c,9,36,127,
2,4910,Note_on_c,9,37,127,
2,4910,Note_on_c,9,38,127,
2,4910,Note_on_c,9,39,127,
2,4910,Note_on_c,9,41,127,
2,4910,Note_on_c,9,42,127,
2,4910,Note_on_c,9,43,127,
2,4910,Note_on_c,9,45,127,
2,4910,Note_on_c,9,48,127,
2,4910,Note_on_c,9,51,127,
2,4910,Note_on_c,9,53,127,
2,4910,Note_on_c,9,80,127,
2,4910,Note_on_c,9,81,127,
2,4910,Note_on_c,9,82,127,
2,4911,Note_off_c,9,36,0,
2,4912,Note_on_c,9,36,127,
2,4912,Note_on_c,9,37,127,
2,4912,Note_on_c,9,38,127,
2,4912,Note_on_c,9,39,127,
2,4912,Note_on_c,9,41,127,
2,4912,Note_on_c,9,42,127,
2,4912,Note_on_c,9,43,127,
2,4912,Note_on_c,9,45,127,
2,4912,Note_on_c,9,48,127,
2,4912,Note_on_c,9,51,127,
2,4912,Note_on_c,9,53,127,
2,4912,Note_on_c,9,80,127,
2,4912,Note_on_c,9,81,127,
2,4912,Note_on_c,9,82,127,
2,4913,Note_off_c,9,36,0,
2,4914,Note_on_c,9,36,127,
2,4914,Note_on_c,9,37,127,
2,4914,Note_on_c,9,38,127,
2,4914,Note_on_c,9,39,127,
2,4914,Note_on_c,9,41,127,
2,4914,Note_on_c,9,42,127,
2,4914,Note_on_c,9,43,127,
2,4914,Note_on_c,9,45,127,
2,4914,Note_on_c,9,48,127,
2,4914,Note_on_c,9,51,127,
2,4914,Note_on_c,9,53,127,
2,4914,Note_on_c,9,80,127,
2,4914,Note_on_c,9,81,127,
2,4914,Note_on_c,9,82,127,
2,4915,Note_off_c,9,36,0,
2,4916,Note_on_c,9,36,127,
2,4916,Note_on_c,9,37,127,
2,4916,Note_on_c,9,38,127,
2,4916,Note_on_c,9,39,127,
2,4916,Note_on_c,9,41,127,
2,4916,Note_on_c,9,42,127,
2,4916,Note_on_c,9,43,127,
2,4916,Note_on_c,9,45,127,
2,4916,Note_on_c,9,48,127,
2,4916,Note_on_c,9,51,127,
2,4916,Note_on_c,9,53,127,
2,4916,Note_on_c,9,80,127,
2,4916,Note_on_c,9,81,127,
2,4916,Note_on_c,9,82,127,
2,4917,Note_off_c,9,36,0,
2,4918,Note_on_c,9,36,127,
2,4918,Note_on_c,9,37,127,
2,4918,Note_on_c,9,38,127,
2,4918,Note_on_c,9,39,127,
2,4918,Note_on_c,9,41,127,
2,4918,Note_on_c,9,42,127,
2,4918,Note_on_c,9,43,127,
2,4918,Note_on_c,9,45,127,
2,4918,Note_on_c,9,48,127,
2,4918,Note_on_c,9,51,127,
2,4918,Note_on_c,9,53,127,
2,4918,Note_on_c,9,80,127,
2,4918,Note_on_c,9,81,127,
2,4918,Note_on_c,9,82,127,
2,4919,Note_off_c,9,36,0,
2,4920,Note_on_c,9,36,127,
2,4920,Note_on_c,9,37,127,
2,4920,Note_on_c,9,38,127,
2,4920,Note_on_c,9,39,127,
2,4920,Note_on_c,9,41,127,
2,4920,Note_on_c,9,42,127,
2,4920,Note_on_c,9,43,127,
2,4920,Note_on_c,9,45,127,
2,4920,Note_on_c,9,48,127,
2,4920,Note_on_c,9,51,127,
2,4920,Note_on_c,9,53,127,
2,4920,Note_on_c,9,80,127,
2,4920,Note_on_c,9,81,127,
2,4920,Note_on_c,9,82,127,
2,4921,Note_off_c,9,36,0,
2,4922,Note_on_c,9,36,127,
2,4922,Note_on_c,9,37,127,
2,4922,Note_on_c,9,38,127,
2,4922,Note_on_c,9,39,127,
2,4922,Note_on_c,9,41,127,
2,4922,Note_on_c,9,42,127,
2,4922,Note_on_c,9,43,127,
2,4922,Note_on_c,9,45,127,
2,4922,Note_on_c,9,48,127,
2,4922,Note_on_c,9,51,127,
2,4922,Note_on_c,9,53,127,
2,4922,Note_on_c,9,80,127,
2,4922,Note_on_c,9,81,127,
2,4922,Note_on_c,9,82,127,
2,4923,Note_off_c,9,36,0,
2,4924,Note_on_c,9,36,127,
2,4924,Note_on_c,9,37,127,
2,4924,Note_on_c,9,38,127,
2,4924,Note_on_c,9,39,127,
2,4924,Note_on_c,9,41,127,
2,4924,Note_on_c,9,42,127,
2,4924,Note_on_c,9,43,127,
2,4924,Note_on_c,9,45,127,
2,4924,Note_on_c,9,48,127,
2,4924,Note_on_c,9,51,127,
2,4924,Note_on_c,9,53,127,
2,4924,Note_on_c,9,80,127,
2,4924,Note_on_c,9,81,127,
2,4924,Note_on_c,9,82,127,
2,4925,Note_off_c,9,36,0,
2,4926,Note_on_c,9,36,127,
2,4926,Note_on_c,9,37,127,
2,4926,Note_on_c,9,38,127,
2,4926,Note_on_c,9,39,127,
2,4926,Note_on_c,9,41,127,
2,4926,Note_on_c,9,42,127,
2,4926,Note_on_c,9,43,127,
2,4926,Note_on_c,9,45,127,
2,4926,Note_on_c,9,48,127,
2,4926,Note_on_c,9,51,127,
2,4926,Note_on_c,9,53,127,
2,4926,Note_on_c,9,80,127,
2,4926,Note_on_c,9,81,127,
2,4926,Note_on_c,9,82,127,
2,4927,Note_off_c,9,36,0,
2,4928,Note_on_c,9,36,127,
2,4928,Note_on_c,9,37,127,
2,4928,Note_on_c,9,38,127,
2,4928,Note_on_c,9,39,127,
2,4928,Note_on_c,9,41,127,
2,4928,Note_on_c,9,42,127,
2,4928,Note_on_c,9,43,127,
2,4928,Note_on_c,9,45,127,
2,4928,Note_on_c,9,48,127,
2,4928,Note_on_c,9,51,127,
2,4928,Note_on_c,9,53,127,
2,4928,Note_on_c,9,80,127,
2,4928,Note_on_c,9,81,127,
2,4928,Note_on_c,9,82,127,
2,4929,Note_off_c,9,36,0,
2,4930,Note_on_c,9,36,127,
2,4930,Note_on_c,9,37,127,
2,4930,Note_on_c,9,38,127,
2,4930,Note_on_c,9,39,127,
2,4930,Note_on_c,9,41,127,
2,4930,Note_on_c,9,42,127,
2,4930,Note_on_c,9,43,127,
2,4930,Note_on_c,9,45,127,
2,4930,Note_on_c,9,48,127,
2,4930,Note_on_c,9,51,127,
2,4930,Note_on_c,9,53,127,
2,4930,Note_on_c,9,80,127,
2,4930,Note_on_c,9,81,127,
2,4930,Note_on_c,9,82,127,
2,4931,Note_off_c,9,36,0,
2,4932,Note_on_c,9,36,127,
2,4932,Note_on_c,9,37,127,
2,4932,Note_on_c,9,38,127,
2,4932,Note_on_c,9,39,127,
2,4932,Note_on_c,9,41,127,
2,4932,Note_on_c,9,42,127,
2,4932,Note_on_c,9,43,127,
2,4932,Note_on_c,9,45,127,
2,4932,Note_on_c,9,48,127,
2,4932,Note_on_c,9,51,127,
2,4932,Note_on_c,9,53,127,
2,4932,Note_on_c,9,80,127,
2,4932,Note_on_c,9,81,127,
2,4932,Note_on_c,9,82,127,
2,4933,Note_off_c,9,36,0,
2,4934,Note_on_c,9,36,127,
2,4934,Note_on_c,9,37,127,
2,4934,Note_on_c,9,38,127,
2,4934,Note_on_c,9,39,127,
2,4934,Note_on_c,9,41,127,
2,4934,Note_on_c,9,42,127,
2,4934,Note_on_c,9,43,127,
2,4934,Note_on_c,9,45,127,
2,4934,Note_on_c,9,48,127,
2,4934,Note_on_c,9,51,127,
2,4934,Note_on_c,9,53,127,
2,4934,Note_on_c,9,80,127,
2,4934,Note_on_c,9,81,127,
2,4934,Note_on_c,9,82,127,
2,4935,Note_off_c,9,36,0,
2,4936,Note_on_c,9,36,127,
2,4936,Note_on_c,9,37,127,
2,4936,Note_on_c,9,38,127,
2,4936,Note_on_c,9,39,127,
2,4936,Note_on_c,9,41,127,
2,4936,Note_on_c,9,42,127,
2,4936,Note_on_c,9,43,127,
2,4936,Note_on_c,9,45,127,
2,4936,Note_on_c,9,48,127,
2,4936,Note_on_c,9,51,127,
2,4936,Note_on_c,9,53,127,
2,4936,Note_on_c,9,80,127,
2,4936,Note_on_c,9,81,127,
2,4936,Note_on_c,9,82,127,
2,4937,Note_off_c,9,36,0,
2,4938,Note_on_c,9,36,127,
2,4938,Note_on_c,9,37,127,
2,4938,Note_on_c,9,38,127,
2,4938,Note_on_c,9,39,127,
2,4938,Note_on_c,9,41,127,
2,4938,Note_on_c,9,42,127,
2,4938,Note_on_c,9,43,127,
2,4938,Note_on_c,9,45,127,
2,4938,Note_on_c,9,48,127,
2,4938,Note_on_c,9,51,127,
2,4938,Note_on_c,9,53,127,
2,4938,Note_on_c,9,80,127,
2,4938,Note_on_c,9,81,127,
2,4938,Note_on_c,9,82,127,
2,4939,Note_off_c,9,36,0,
2,4940,Note_on_c,9,36,127,
2,4940,Note_on_c,9,37,127,
2,4940,Note_on_c,9,38,127,
2,4940,Note_on_c,9,39,127,
2,4940,Note_on_c,9,41,127,
2,4940,Note_on_c,9,42,127,
2,4940,Note_on_c,9,43,127,
2,4940,Note_on_c,9,45,127,
2,4940,Note_on_c,9,48,127,
2,4940,Note_on_c,9,51,127,
2,4940,Note_on_c,9,53,127,
2,4940,Note_on_c,9,80,127,
2,4940,Note_on_c,9,81,127,
2,4940,Note_on_c,9,82,127,
2,4941,Note_off_c,9,36,0,
2,4942,Note_on_c,9,36,127,
2,4942,Note_on_c,9,37,127,
2,4942,Note_on_c,9,38,127,
2,4942,Note_on_c,9,39,127,
2,4942,Note_on_c,9,41,127,
2,4942,Note_on_c,9,42,127,
2,4942,Note_on_c,9,43,127,
2,4942,Note_on_c,9,45,127,
2,4942,Note_on_c,9,48,127,
2,4942,Note_on_c,9,51,127,
2,4942,Note_on_c,9,53,127,
2,4942,Note_on_c,9,80,127,
2,4942,Note_on_c,9,81,127,
2,4942,Note_on_c,9,82,127,
2,4943,Note_off_c,9,36,0,
2,4944,Note_on_c,9,36,127,
2,4944,Note_on_c,9,37,127,
2,4944,Note_on_c,9,38,127,
2,4944,Note_on_c,9,39,127,
2,4944,Note_on_c,9,41,127,
2,4944,Note_on_c,9,42,127,
2,4944,Note_on_c,9,43,127,
2,4944,Note_on_c,9,45,127,
2,4944,Note_on_c,9,48,127,
2,4944,Note_on_c,9,51,127,
2,4944,Note_on_c,9,53,127,
2,4944,Note_on_c,9,80,127,
2,4944,Note_on_c,9,81,127,
2,4944,Note_on_c,9,82,127,
2,4945,Note_off_c,9,36,0,
2,4946,Note_on_c,9,36,127,
2,4946,Note_on_c,9,37,127,
2,4946,Note_on_c,9,38,127,
2,4946,Note_on_c,9,39,127,
2,4946,Note_on_c,9,41,127,
2,4946,Note_on_c,9,42,127,
2,4946,Note_on_c,9,43,127,
2,4946,Note_on_c,9,45,127,
2,4946,Note_on_c,9,48,127,
2,4946,Note_on_c,9,51,127,
2,4946,Note_on_c,9,53,127,
2,4946,Note_on_c,9,80,127,
2,4946,Note_on_c,9,81,127,
2,4946,Note_on_c,9,82,127,
2,4947,Note_off_c,9,36,0,
2,4948,Note_on_c,9,36,127,
2,4948,Note_on_c,9,37,127,
2,4948,Note_on_c,9,38,127,
2,4948,Note_on_c,9,39,127,
2,4948,Note_on_c,9,41,127,
2,4948,Note_on_c,9,42,127,
2,4948,Note_on_c,9,43,127,
2,4948,Note_on_c,9,45,127,
2,4948,Note_on_c,9,48,127,
2,4948,Note_on_c,9,51,127,
2,4948,Note_on_c,9,53,127,
2,4948,Note_on_c,9,80,127,
2,4948,Note_on_c,9,81,127,
2,4948,Note_on_c,9,82,127,
2,4949,Note_off_c,9,36,0,
2,4950,Note_on_c,9,36,127,
2,4950,Note_on_c,9,37,127,
2,4950,Note_on_c,9,38,127,
2,4950,Note_on_c,9,39,127,
2,4950,Note_on_c,9,41,127,
2,4950,Note_on_c,9,42,127,
2,4950,Note_on_c,9,43,127,
2,4950,Note_on_c,9,45,127,
2,4950,Note_on_c,9,48,127,
2,4950,Note_on_c,9,51,127,
2,4950,Note_on_c,9,53,127,
2,4950,Note_on_c,9,80,127,
2,4950,Note_on_c,9,81,127,
2,4950,Note_on_c,9,82,127,
2,4951,Note_off_c,9,36,0,
2,4952,Note_on_c,9,36,127,
2,4952,Note_on_c,9,37,127,
2,4952,Note_on_c,9,38,127,
2,4952,Note_on_c,9,39,127,
2,4952,Note_on_c,9,41,127,
2,4952,Note_on_c,9,42,127,
2,4952,Note_on_c,9,43,127,
2,4952,Note_on_c,9,45,127,
2,4952,Note_on_c,9,48,127,
2,4952,Note_on_c,9,51,127,
2,4952,Note_on_c,9,53,127,
2,4952,Note_on_c,9,80,127,
2,4952,Note_on_c,9,81,127,
2,4952,Note_on_c,9,82,127,
2,4953,Note_off_c,9,36,0,
2,4954,Note_on_c,9,36,127,
2,4954,Note_on_c,9,37,127,
2,4954,Note_on_c,9,38,127,
2,4954,Note_on_c,9,39,127,
2,4954,Note_on_c,9,41,127,
2,4954,Note_on_c,9,42,127,
2,4954,Note_on_c,9,43,127,
2,4954,Note_on_c,9,45,127,
2,4954,Note_on_c,9,48,127,
2,4954,Note_on_c,9,51,127,
2,4954,Note_on_c,9,53,127,
2,4954,Note_on_c,9,80,127,
2,4954,Note_on_c,9,81,127,
2,4954,Note_on_c,9,82,127,
2,4955,Note_off_c,9,36,0,
2,4956,Note_on_c,9,36,127,
2,4956,Note_on_c,9,37,127,
2,4956,Note_on_c,9,38,127,
2,4956,Note_on_c,9,39,127,
2,4956,Note_on_c,9,41,127,
2,4956,Note_on_c,9,42,127,
2,4956,Note_on_c,9,43,127,
2,4956,Note_on_c,9,45,127,
2,4956,Note_on_c,9,48,127,
2,4956,Note_on_c,9,51,127,
2,4956,Note_on_c,9,53,127,
2,4956,Note_on_c,9,80,127,
2,4956,Note_on_c,9,81,127,
2,4956,Note_on_c,9,82,127,
2,4957,Note_off_c,9,36,0,
2,4958,Note_on_c,9,36,127,
2,4958,Note_on_c,9,37,127,
2,4958,Note_on_c,9,38,127,
2,4958,Note_on_c,9,39,127,
2,4958,Note_on_c,9,41,127,
2,4958,Note_on_c,9,42,127,
2,4958,Note_on_c,9,43,127,
2,4958,Note_on_c,9,45,127,
2,4958,Note_on_c,9,48,127,
2,4958,Note_on_c,9,51,127,
2,4958,Note_on_c,9,53,127,
2,4958,Note_on_c,9,80,127,
2,4958,Note_on_c,9,81,127,
2,4958,Note_on_c,9,82,127,
2,4959,Note_off_c,9,36,0,
2,4960,Note_on_c,9,36,127,
2,4960,Note_on_c,9,37,127,
2,4960,Note_on_c,9,38,127,
2,4960,Note_on_c,9,39,127,
2,4960,Note_on_c,9,41,127,
2,4960,Note_on_c,9,42,127,
2,4960,Note_on_c,9,43,127,
2,4960,Note_on_c,9,45,127,
2,4960,Note_on_c,9,48,127,
2,4960,Note_on_c,9,51,127,
2,4960,Note_on_c,9,53,127,
2,4960,Note_on_c,9,80,127,
2,4960,Note_on_c,9,81,127,
2,4960,Note_on_c,9,82,127,
2,4961,Note_off_c,9,36,0,
2,4962,Note_on_c,9,36,127,
2,4962,Note_on_c,9,37,127,
2,4962,Note_on_c,9,38,127,
2,4962,Note_on_c,9,39,127,
2,4962,Note_on_c,9,41,127,
2,4962,Note_on_c,9,42,127,
2,4962,Note_on_c,9,43,127,
2,4962,Note_on_c,9,45,127,
2,4962,Note_on_c,9,48,127,
2,4962,Note_on_c,9,51,127,
2,4962,Note_on_c,9,53,127,
2,4962,Note_on_c,9,80,127,
2,4962,Note_on_c,9,81,127,
2,4962,Note_on_c,9,82,127,
2,4963,Note_off_c,9,36,0,
2,4964,Note_on_c,9,36,127,
2,4964,Note_on_c,9,37,127,
2,4964,Note_on_c,9,38,127,
2,4964,Note_on_c,9,39,127,
2,4964,Note_on_c,9,41,127,
2,4964,Note_on_c,9,42,127,
2,4964,Note_on_c,9,43,127,
2,4964,Note_on_c,9,45,127,
2,4964,Note_on_c,9,48,127,
2,4964,Note_on_c,9,51,127,
2,4964,Note_on_c,9,53,127,
2,4964,Note_on_c,9,80,127,
2,4964,Note_on_c,9,81,127,
2,4964,Note_on_c,9,82,127,
2,4965,Note_off_c,9,36,0,
2,4966,Note_on_c,9,36,127,
2,4966,Note_on_c,9,37,127,
2,4966,Note_on_c,9,38,127,
2,4966,Note_on_c,9,39,127,
2,4966,Note_on_c,9,41,127,
2,4966,Note_on_c,9,42,127,
2,4966,Note_on_c,9,43,127,
2,4966,Note_on_c,9,45,127,
2,4966,Note_on_c,9,48,127,
2,4966,Note_on_c,9,51,127,
2,4966,Note_on_c,9,53,127,
2,4966,Note_on_c,9,80,127,
2,4966,Note_on_c,9,81,127,
2,4966,Note_on_c,9,82,127,
2,4967,Note_off_c,9,36,0,
2,4968,Note_on_c,9,36,127,
2,4968,Note_on_c,9,37,127,
2,4968,Note_on_c,9,38,127,
2,4968,Note_on_c,9,39,127,
2,4968,Note_on_c,9,41,127,
2,4968,Note_on_c,9,42,127,
2,4968,Note_on_c,9,43,127,
2,4968,Note_on_c,9,45,127,
2,4968,Note_on_c,9,48,127,
2,4968,Note_on_c,9,51,127,
2,4968,Note_on_c,9,53,127,
2,4968,Note_on_c,9,80,127,
2,4968,Note_on_c,9,81,127,
2,4968,Note_on_c,9,82,127,
2,4969,Note_off_c,9,36,0,
2,4970,Note_on_c,9,36,127,
2,4970,Note_on_c,9,37,127,
2,4970,Note_on_c,9,38,127,
2,4970,Note_on_c,9,39,127,
2,4970,Note_on_c,9,41,127,
2,4970,Note_on_c,9,42,127,
2,4970,Note_on_c,9,43,127,
2,4970,Note_on_c,9,45,127,
2,4970,Note_on_c,9,48,127,
2,4970,Note_on_c,9,51,127,
2,4970,Note_on_c,9,53,127,
2,4970,Note_on_c,9,80,127,
2,4970,Note_on_c,9,81,127,
2,4970,Note_on_c,9,82,127,
2,4971,Note_off_c,9,36,0,
2,4972,Note_on_c,9,36,127,
2,4972,Note_on_c,9,37,127,
2,4972,Note_on_c,9,38,127,
2,4972,Note_on_c,9,39,127,
2,4972,Note_on_c,9,41,127,
2,4972,Note_on_c,9,42,127,
2,4972,Note_on_c,9,43,127,
2,4972,Note_on_c,9,45,127,
2,4972,Note_on_c,9,48,127,
2,4972,Note_on_c,9,51,127,
2,4972,Note_on_c,9,53,127,
2,4972,Note_on_c,9,80,127,
2,4972,Note_on_c,9,81,127,
2,4972,Note_on_c,9,82,127,
2,4973,Note_off_c,9,36,0,
2,4974,Note_on_c,9,36,127,
2,4974,Note_on_c,9,37,127,
2,4974,Note_on_c,9,38,127,
2,4974,Note_on_c,9,39,127,
2,4974,Note_on_c,9,41,127,
2,4974,Note_on_c,9,42,127,
2,4974,Note_on_c,9,43,127,
2,4974,Note_on_c,9,45,127,
2,4974,Note_on_c,9,48,127,
2,4974,Note_on_c,9,51,127,
2,4974,Note_on_c,9,53,127,
2,4974,Note_on_c,9,80,127,
2,4974,Note_on_c,9,81,127,
2,4974,Note_on_c,9,82,127,
2,4975,Note_off_c,9,36,0,
2,4976,Note_on_c,9,36,127,
2,4976,Note_on_c,9,37,127,
2,4976,Note_on_c,9,38,127,
2,4976,Note_on_c,9,39,127,
2,4976,Note_on_c,9,41,127,
2,4976,Note_on_c,9,42,127,
2,4976,Note_on_c,9,43,127,
2,4976,Note_on_c,9,45,127,
2,4976,Note_on_c,9,48,127,
2,4976,Note_on_c,9,51,127,
2,4976,Note_on_c,9,53,127,
2,4976,Note_on_c,9,80,127,
2,4976,Note_on_c,9,81,127,
2,4976,Note_on_c,9,82,127,
2,4977,Note_off_c,9,36,0,
2,4978,Note_on_c,9,36,127,
2,4978,Note_on_c,9,37,127,
2,4978,Note_on_c,9,38,127,
2,4978,Note_on_c,9,39,127,
2,4978,Note_on_c,9,41,127,
2,4978,Note_on_c,9,42,127,
2,4978,Note_on_c,9,43,127,
2,4978,Note_on_c,9,45,127,
2,4978,Note_on_c,9,48,127,
2,4978,Note_on_c,9,51,127,
2,4978,Note_on_c,9,53,127,
2,4978,Note_on_c,9,80,127,
2,4978,Note_on_c,9,81,127,
2,4978,Note_on_c,9,82,127,
2,4979,Note_off_c,9,36,0,
2,4980,Note_on_c,9,36,127,
2,4980,Note_on_c,9,37,127,
2,4980,Note_on_c,9,38,127,
2,4980,Note_on_c,9,39,127,
2,4980,Note_on_c,9,41,127,
2,4980,Note_on_c,9,42,127,
2,4980,Note_on_c,9,43,127,
2,4980,Note_on_c,9,45,127,
2,4980,Note_on_c,9,48,127,
2,4980,Note_on_c,9,51,127,
2,4980,Note_on_c,9,53,127,
2,4980,Note_on_c,9,80,127,
2,4980,Note_on_c,9,81,127,
2,4980,Note_on_c,9,82,127,
2,4981,Note_off_c,9,36,0,
2,4982,Note_on_c,9,36,127,
2,4982,Note_on_c,9,37,127,
2,4982,Note_on_c,9,38,127,
2,4982,Note_on_c,9,39,127,
2,4982,Note_on_c,9,41,127,
2,4982,Note_on_c,9,42,127,
2,4982,Note_on_c,9,43,127,
2,4982,Note_on_c,9,45,127,
2,4982,Note_on_c,9,48,127,
2,4982,Note_on_c,9,51,127,
2,4982,Note_on_c,9,53,127,
2,4982,Note_on_c,9,80,127,
2,4982,Note_on_c,9,81,127,
2,4982,Note_on_c,9,82,127,
2,4983,Note_off_c,9,36,0,
2,4984,Note_on_c,9,36,127,
2,4984,Note_on_c,9,37,127,
2,4984,Note_on_c,9,38,127,
2,4984,Note_on_c,9,39,127,
2,4984,Note_on_c,9,41,127,
2,4984,Note_on_c,9,42,127,
2,4984,Note_on_c,9,43,127,
2,4984,Note_on_c,9,45,127,
2,4984,Note_on_c,9,48,127,
2,4984,Note_on_c,9,51,127,
2,4984,Note_on_c,9,53,127,
2,4984,Note_on_c,9,80,127,
2,4984,Note_on_c,9,81,127,
2,4984,Note_on_c,9,82,127,
2,4985,Note_off_c,9,36,0,
2,4986,Note_on_c,9,36,127,
2,4986,Note_on_c,9,37,127,
2,4986,Note_on_c,9,38,127,
2,4986,Note_on_c,9,39,127,
2,4986,Note_on_c,9,41,127,
2,4986,Note_on_c,9,42,127,
2,4986,Note_on_c,9,43,127,
2,4986,Note_on_c,9,45,127,
2,4986,Note_on_c,9,48,127,
2,4986,Note_on_c,9,51,127,
2,4986,Note_on_c,9,53,127,
2,4986,Note_on_c,9,80,127,
2,4986,Note_on_c,9,81,127,
2,4986,Note_on_c,9,82,127,
2,4987,Note_off_c,9,36,0,
2,4988,Note_on_c,9,36,127,
2,4988,Note_on_c,9,37,127,
2,4988,Note_on_c,9,38,127,
2,4988,Note_on_c,9,39,127,
2,4988,Note_on_c,9,41,127,
2,4988,Note_on_c,9,42,127,
2,4988,Note_on_c,9,43,127,
2,4988,Note_on_c,9,45,127,
2,4988,Note_on_c,9,48,127,
2,4988,Note_on_c,9,51,127,
2,4988,Note_on_c,9,53,127,
2,4988,Note_on_c,9,80,127,
2,4988,Note_on_c,9,81,127,
2,4988,Note_on_c,9,82,127,
2,4989,Note_off_c,9,36,0,
2,4990,Note_on_c,9,36,127,
2,4990,Note_on_c,9,37,127,
2,4990,Note_on_c,9,38,127,
2,4990,Note_on_c,9,39,127,
2,4990,Note_on_c,9,41,127,
2,4990,Note_on_c,9,42,127,
2,4990,Note_on_c,9,43,127,
2,4990,Note_on_c,9,45,127,
2,4990,Note_on_c,9,48,127,
2,4990,Note_on_c,9,51,127,
2,4990,Note_on_c,9,53,127,
2,4990,Note_on_c,9,80,127,
2,4990,Note_on_c,9,81,127,
2,4990,Note_on_c,9,82,127,
2,4991,Note_off_c,9,36,0,
2,4992,Note_on_c,9,36,127,
2,4992,Note_on_c,9,37,127,
2,4992,Note_on_c,9,38,127,
2,4992,Note_on_c,9,39,127,
2,4992,Note_on_c,9,41,127,
2,4992,Note_on_c,9,42,127,
2,4992,Note_on_c,9,43,127,
2,4992,Note_on_c,9,45,127,
2,4992,Note_on_c,9,48,127,
2,4992,Note_on_c,9,51,127,
2,4992,Note_on_c,9,53,127,
2,4992,Note_on_c,9,80,127,
2,4992,Note_on_c,9,81,127,
2,4992,Note_on_c,9,82,127,
2,4993,Note_off_c,9,36,0,
2,4994,Note_on_c,9,36,127,
2,4994,Note_on_c,9,37,127,
2,4994,Note_on_c,9,38,127,
2,4994,Note_on_c,9,39,127,
2,4994,Note_on_c,9,41,127,
2,4994,Note_on_c,9,42,127,
2,4994,Note_on_c,9,43,127,
2,4994,Note_on_c,9,45,127,
2,4994,Note_on_c,9,48,127,
2,4994,Note_on_c,9,51,127,
2,4994,Note_on_c,9,53,127,
2,4994,Note_on_c,9,80,127,
2,4994,Note_on_c,9,81,127,
2,4994,Note_on_c,9,82,127,
2,4995,Note_off_c,9,36,0,
2,4996,Note_on_c,9,36,127,
2,4996,Note_on_c,9,37,127,
2,4996,Note_on_c,9,38,127,
2,4996,Note_on_c,9,39,127,
2,4996,Note_on_c,9,41,127,
2,4996,Note_on_c,9,42,127,
2,4996,Note_on_c,9,43,127,
2,4996,Note_on_c,9,45,127,
2,4996,Note_on_c,9,48,127,
2,4996,Note_on_c,9,51,127,
2,4996,Note_on_c,9,53,127,
2,4996,Note_on_c,9,80,127,
2,4996,Note_on_c,9,81,127,
2,4996,Note_on_c,9,82,127,
2,4997,Note_off_c,9,36,0,
2,4998,Note_on_c,9,36,127,
2,4998,Note_on_c,9,37,127,
2,4998,Note_on_c,9,38,127,
2,4998,Note_on_c,9,39,127,
2,4998,Note_on_c,9,41,127,
2,4998,Note_on_c,9,42,127,
2,4998,Note_on_c,9,43,127,
2,4998,Note_on_c,9,45,127,
2,4998,Note_on_c,9,48,127,
2,4998,Note_on_c,9,51,127,
2,4998,Note_on_c,9,53,127,
2,4998,Note_on_c,9,80,127,
2,4998,Note_on_c,9,81,127,
2,4998,Note_on_c,9,82,127,
2,4999,Note_off_c,9,36,0,
2,5009,End_track,,,,
0,0,End_of_file,,,,
