0,0,Header,1,2,480,
1,0,Start_track,,,,
1,0,Time_signature,4,2,24,8
1,0,Title_t,"""from model""",,,
1,0,End_track,,,,
2,0,Start_track,,,,
2,0,Note_on_c,9,35,63,
2,0,Note_on_c,9,36,63,
2,0,Note_on_c,9,37,62,
2,0,Note_on_c,9,38,63,
2,0,Note_on_c,9,39,62,
2,0,Note_on_c,9,40,62,
2,0,Note_on_c,9,41,62,
2,0,Note_on_c,9,42,62,
2,0,Note_on_c,9,43,62,
2,0,Note_on_c,9,44,62,
2,0,Note_on_c,9,45,62,
2,0,Note_on_c,9,46,60,
2,0,Note_on_c,9,47,62,
2,0,Note_on_c,9,48,62,
2,0,Note_on_c,9,49,62,
2,0,Note_on_c,9,50,62,
2,0,Note_on_c,9,51,62,
2,0,Note_on_c,9,56,62,
2,0,Note_on_c,9,57,62,
2,0,Note_on_c,9,59,62,
2,0,Note_on_c,9,60,62,
2,0,Note_on_c,9,61,62,
2,0,Note_on_c,9,63,62,
2,0,Note_on_c,9,68,62,
2,0,Note_on_c,9,69,62,
2,0,Note_on_c,9,70,61,
2,0,Note_on_c,9,76,62,
2,0,Note_on_c,9,80,62,
2,0,Note_on_c,9,81,62,
2,0,Note_on_c,9,82,62,
2,0,Note_on_c,9,87,62,
2,0,Note_on_c,9,88,62,
2,0,Note_on_c,9,89,62,
2,0,Note_on_c,9,91,61,
2,0,Note_on_c,9,93,62,
2,30,Note_on_c,9,35,11,
2,30,Note_on_c,9,36,2,
2,30,Note_off_c,9,37,0,
2,30,Note_on_c,9,38,6,
2,30,Note_off_c,9,39,0,
2,30,Note_off_c,9,40,0,
2,30,Note_off_c,9,41,0,
2,30,Note_off_c,9,42,0,
2,30,Note_off_c,9,43,0,
2,30,Note_off_c,9,44,0,
2,30,Note_off_c,9,45,0,
2,30,Note_off_c,9,46,0,
2,30,Note_off_c,9,47,0,
2,30,Note_off_c,9,48,0,
2,30,Note_off_c,9,49,0,
2,30,Note_off_c,9,50,0,
2,30,Note_off_c,9,51,0,
2,30,Note_off_c,9,56,0,
2,30,Note_off_c,9,57,0,
2,30,Note_off_c,9,59,0,
2,30,Note_off_c,9,60,0,
2,30,Note_off_c,9,61,0,
2,30,Note_off_c,9,63,0,
2,30,Note_off_c,9,68,0,
2,30,Note_off_c,9,69,0,
2,30,Note_off_c,9,70,0,
2,30,Note_off_c,9,76,0,
2,30,Note_off_c,9,80,0,
2,30,Note_off_c,9,81,0,
2,30,Note_off_c,9,82,0,
2,30,Note_off_c,9,87,0,
2,30,Note_off_c,9,88,0,
2,30,Note_off_c,9,89,0,
2,30,Note_off_c,9,91,0,
2,30,Note_off_c,9,93,0,
2,60,Note_on_c,9,35,7,
2,60,Note_off_c,9,36,0,
2,60,Note_off_c,9,37,0,
2,60,Note_on_c,9,38,3,
2,60,Note_off_c,9,39,0,
2,60,Note_off_c,9,40,0,
2,60,Note_off_c,9,41,0,
2,60,Note_off_c,9,42,0,
2,60,Note_off_c,9,43,0,
2,60,Note_off_c,9,44,0,
2,60,Note_off_c,9,45,0,
2,60,Note_off_c,9,46,0,
2,60,Note_off_c,9,47,0,
2,60,Note_off_c,9,48,0,
2,60,Note_off_c,9,49,0,
2,60,Note_off_c,9,50,0,
2,60,Note_off_c,9,51,0,
2,60,Note_off_c,9,56,0,
2,60,Note_off_c,9,57,0,
2,60,Note_off_c,9,59,0,
2,60,Note_off_c,9,60,0,
2,60,Note_off_c,9,61,0,
2,60,Note_off_c,9,63,0,
2,60,Note_off_c,9,68,0,
2,60,Note_off_c,9,69,0,
2,60,Note_off_c,9,70,0,
2,60,Note_off_c,9,76,0,
2,60,Note_off_c,9,80,0,
2,60,Note_off_c,9,81,0,
2,60,Note_off_c,9,82,0,
2,60,Note_off_c,9,87,0,
2,60,Note_off_c,9,88,0,
2,60,Note_off_c,9,89,0,
2,60,Note_off_c,9,91,0,
2,60,Note_off_c,9,93,0,
2,90,Note_on_c,9,35,7,
2,90,Note_off_c,9,36,0,
2,90,Note_off_c,9,37,0,
2,90,Note_on_c,9,38,3,
2,90,Note_off_c,9,39,0,
2,90,Note_off_c,9,40,0,
2,90,Note_off_c,9,41,0,
2,90,Note_off_c,9,42,0,
2,90,Note_off_c,9,43,0,
2,90,Note_off_c,9,44,0,
2,90,Note_off_c,9,45,0,
2,90,Note_off_c,9,46,0,
2,90,Note_off_c,9,47,0,
2,90,Note_off_c,9,48,0,
2,90,Note_off_c,9,49,0,
2,90,Note_off_c,9,50,0,
2,90,Note_off_c,9,51,0,
2,90,Note_off_c,9,56,0,
2,90,Note_off_c,9,57,0,
2,90,Note_off_c,9,59,0,
2,90,Note_off_c,9,60,0,
2,90,Note_off_c,9,61,0,
2,90,Note_off_c,9,63,0,
2,90,Note_off_c,9,68,0,
2,90,Note_off_c,9,69,0,
2,90,Note_off_c,9,70,0,
2,90,Note_off_c,9,76,0,
2,90,Note_off_c,9,80,0,
2,90,Note_off_c,9,81,0,
2,90,Note_off_c,9,82,0,
2,90,Note_off_c,9,87,0,
2,90,Note_off_c,9,88,0,
2,90,Note_off_c,9,89,0,
2,90,Note_off_c,9,91,0,
2,90,Note_off_c,9,93,0,
2,120,Note_on_c,9,35,7,
2,120,Note_off_c,9,36,0,
2,120,Note_off_c,9,37,0,
2,120,Note_on_c,9,38,3,
2,120,Note_off_c,9,39,0,
2,120,Note_off_c,9,40,0,
2,120,Note_off_c,9,41,0,
2,120,Note_off_c,9,42,0,
2,120,Note_off_c,9,43,0,
2,120,Note_off_c,9,44,0,
2,120,Note_off_c,9,45,0,
2,120,Note_off_c,9,46,0,
2,120,Note_off_c,9,47,0,
2,120,Note_off_c,9,48,0,
2,120,Note_off_c,9,49,0,
2,120,Note_off_c,9,50,0,
2,120,Note_off_c,9,51,0,
2,120,Note_off_c,9,56,0,
2,120,Note_off_c,9,57,0,
2,120,Note_off_c,9,59,0,
2,120,Note_off_c,9,60,0,
2,120,Note_off_c,9,61,0,
2,120,Note_off_c,9,63,0,
2,120,Note_off_c,9,68,0,
2,120,Note_off_c,9,69,0,
2,120,Note_off_c,9,70,0,
2,120,Note_off_c,9,76,0,
2,120,Note_off_c,9,80,0,
2,120,Note_off_c,9,81,0,
2,120,Note_off_c,9,82,0,
2,120,Note_off_c,9,87,0,
2,120,Note_off_c,9,88,0,
2,120,Note_off_c,9,89,0,
2,120,Note_off_c,9,91,0,
2,120,Note_off_c,9,93,0,
2,150,Note_on_c,9,35,7,
2,150,Note_off_c,9,36,0,
2,150,Note_off_c,9,37,0,
2,150,Note_on_c,9,38,3,
2,150,Note_off_c,9,39,0,
2,150,Note_off_c,9,40,0,
2,150,Note_off_c,9,41,0,
2,150,Note_off_c,9,42,0,
2,150,Note_off_c,9,43,0,
2,150,Note_off_c,9,44,0,
2,150,Note_off_c,9,45,0,
2,150,Note_off_c,9,46,0,
2,150,Note_off_c,9,47,0,
2,150,Note_off_c,9,48,0,
2,150,Note_off_c,9,49,0,
2,150,Note_off_c,9,50,0,
2,150,Note_off_c,9,51,0,
2,150,Note_off_c,9,56,0,
2,150,Note_off_c,9,57,0,
2,150,Note_off_c,9,59,0,
2,150,Note_off_c,9,60,0,
2,150,Note_off_c,9,61,0,
2,150,Note_off_c,9,63,0,
2,150,Note_off_c,9,68,0,
2,150,Note_off_c,9,69,0,
2,150,Note_off_c,9,70,0,
2,150,Note_off_c,9,76,0,
2,150,Note_off_c,9,80,0,
2,150,Note_off_c,9,81,0,
2,150,Note_off_c,9,82,0,
2,150,Note_off_c,9,87,0,
2,150,Note_off_c,9,88,0,
2,150,Note_off_c,9,89,0,
2,150,Note_off_c,9,91,0,
2,150,Note_off_c,9,93,0,
2,180,Note_on_c,9,35,7,
2,180,Note_off_c,9,36,0,
2,180,Note_off_c,9,37,0,
2,180,Note_on_c,9,38,3,
2,180,Note_off_c,9,39,0,
2,180,Note_off_c,9,40,0,
2,180,Note_off_c,9,41,0,
2,180,Note_off_c,9,42,0,
2,180,Note_off_c,9,43,0,
2,180,Note_off_c,9,44,0,
2,180,Note_off_c,9,45,0,
2,180,Note_off_c,9,46,0,
2,180,Note_off_c,9,47,0,
2,180,Note_off_c,9,48,0,
2,180,Note_off_c,9,49,0,
2,180,Note_off_c,9,50,0,
2,180,Note_off_c,9,51,0,
2,180,Note_off_c,9,56,0,
2,180,Note_off_c,9,57,0,
2,180,Note_off_c,9,59,0,
2,180,Note_off_c,9,60,0,
2,180,Note_off_c,9,61,0,
2,180,Note_off_c,9,63,0,
2,180,Note_off_c,9,68,0,
2,180,Note_off_c,9,69,0,
2,180,Note_off_c,9,70,0,
2,180,Note_off_c,9,76,0,
2,180,Note_off_c,9,80,0,
2,180,Note_off_c,9,81,0,
2,180,Note_off_c,9,82,0,
2,180,Note_off_c,9,87,0,
2,180,Note_off_c,9,88,0,
2,180,Note_off_c,9,89,0,
2,180,Note_off_c,9,91,0,
2,180,Note_off_c,9,93,0,
2,210,Note_on_c,9,35,7,
2,210,Note_off_c,9,36,0,
2,210,Note_off_c,9,37,0,
2,210,Note_on_c,9,38,3,
2,210,Note_off_c,9,39,0,
2,210,Note_off_c,9,40,0,
2,210,Note_off_c,9,41,0,
2,210,Note_off_c,9,42,0,
2,210,Note_off_c,9,43,0,
2,210,Note_off_c,9,44,0,
2,210,Note_off_c,9,45,0,
2,210,Note_off_c,9,46,0,
2,210,Note_off_c,9,47,0,
2,210,Note_off_c,9,48,0,
2,210,Note_off_c,9,49,0,
2,210,Note_off_c,9,50,0,
2,210,Note_off_c,9,51,0,
2,210,Note_off_c,9,56,0,
2,210,Note_off_c,9,57,0,
2,210,Note_off_c,9,59,0,
2,210,Note_off_c,9,60,0,
2,210,Note_off_c,9,61,0,
2,210,Note_off_c,9,63,0,
2,210,Note_off_c,9,68,0,
2,210,Note_off_c,9,69,0,
2,210,Note_off_c,9,70,0,
2,210,Note_off_c,9,76,0,
2,210,Note_off_c,9,80,0,
2,210,Note_off_c,9,81,0,
2,210,Note_off_c,9,82,0,
2,210,Note_off_c,9,87,0,
2,210,Note_off_c,9,88,0,
2,210,Note_off_c,9,89,0,
2,210,Note_off_c,9,91,0,
2,210,Note_off_c,9,93,0,
2,240,Note_on_c,9,35,7,
2,240,Note_off_c,9,36,0,
2,240,Note_off_c,9,37,0,
2,240,Note_on_c,9,38,3,
2,240,Note_off_c,9,39,0,
2,240,Note_off_c,9,40,0,
2,240,Note_off_c,9,41,0,
2,240,Note_off_c,9,42,0,
2,240,Note_off_c,9,43,0,
2,240,Note_off_c,9,44,0,
2,240,Note_off_c,9,45,0,
2,240,Note_off_c,9,46,0,
2,240,Note_off_c,9,47,0,
2,240,Note_off_c,9,48,0,
2,240,Note_off_c,9,49,0,
2,240,Note_off_c,9,50,0,
2,240,Note_off_c,9,51,0,
2,240,Note_off_c,9,56,0,
2,240,Note_off_c,9,57,0,
2,240,Note_off_c,9,59,0,
2,240,Note_off_c,9,60,0,
2,240,Note_off_c,9,61,0,
2,240,Note_off_c,9,63,0,
2,240,Note_off_c,9,68,0,
2,240,Note_off_c,9,69,0,
2,240,Note_off_c,9,70,0,
2,240,Note_off_c,9,76,0,
2,240,Note_off_c,9,80,0,
2,240,Note_off_c,9,81,0,
2,240,Note_off_c,9,82,0,
2,240,Note_off_c,9,87,0,
2,240,Note_off_c,9,88,0,
2,240,Note_off_c,9,89,0,
2,240,Note_off_c,9,91,0,
2,240,Note_off_c,9,93,0,
2,270,Note_on_c,9,35,7,
2,270,Note_off_c,9,36,0,
2,270,Note_off_c,9,37,0,
2,270,Note_on_c,9,38,3,
2,270,Note_off_c,9,39,0,
2,270,Note_off_c,9,40,0,
2,270,Note_off_c,9,41,0,
2,270,Note_off_c,9,42,0,
2,270,Note_off_c,9,43,0,
2,270,Note_off_c,9,44,0,
2,270,Note_off_c,9,45,0,
2,270,Note_off_c,9,46,0,
2,270,Note_off_c,9,47,0,
2,270,Note_off_c,9,48,0,
2,270,Note_off_c,9,49,0,
2,270,Note_off_c,9,50,0,
2,270,Note_off_c,9,51,0,
2,270,Note_off_c,9,56,0,
2,270,Note_off_c,9,57,0,
2,270,Note_off_c,9,59,0,
2,270,Note_off_c,9,60,0,
2,270,Note_off_c,9,61,0,
2,270,Note_off_c,9,63,0,
2,270,Note_off_c,9,68,0,
2,270,Note_off_c,9,69,0,
2,270,Note_off_c,9,70,0,
2,270,Note_off_c,9,76,0,
2,270,Note_off_c,9,80,0,
2,270,Note_off_c,9,81,0,
2,270,Note_off_c,9,82,0,
2,270,Note_off_c,9,87,0,
2,270,Note_off_c,9,88,0,
2,270,Note_off_c,9,89,0,
2,270,Note_off_c,9,91,0,
2,270,Note_off_c,9,93,0,
2,300,Note_on_c,9,35,7,
2,300,Note_off_c,9,36,0,
2,300,Note_off_c,9,37,0,
2,300,Note_on_c,9,38,3,
2,300,Note_off_c,9,39,0,
2,300,Note_off_c,9,40,0,
2,300,Note_off_c,9,41,0,
2,300,Note_off_c,9,42,0,
2,300,Note_off_c,9,43,0,
2,300,Note_off_c,9,44,0,
2,300,Note_off_c,9,45,0,
2,300,Note_off_c,9,46,0,
2,300,Note_off_c,9,47,0,
2,300,Note_off_c,9,48,0,
2,300,Note_off_c,9,49,0,
2,300,Note_off_c,9,50,0,
2,300,Note_off_c,9,51,0,
2,300,Note_off_c,9,56,0,
2,300,Note_off_c,9,57,0,
2,300,Note_off_c,9,59,0,
2,300,Note_off_c,9,60,0,
2,300,Note_off_c,9,61,0,
2,300,Note_off_c,9,63,0,
2,300,Note_off_c,9,68,0,
2,300,Note_off_c,9,69,0,
2,300,Note_off_c,9,70,0,
2,300,Note_off_c,9,76,0,
2,300,Note_off_c,9,80,0,
2,300,Note_off_c,9,81,0,
2,300,Note_off_c,9,82,0,
2,300,Note_off_c,9,87,0,
2,300,Note_off_c,9,88,0,
2,300,Note_off_c,9,89,0,
2,300,Note_off_c,9,91,0,
2,300,Note_off_c,9,93,0,
2,330,Note_on_c,9,35,7,
2,330,Note_off_c,9,36,0,
2,330,Note_off_c,9,37,0,
2,330,Note_on_c,9,38,3,
2,330,Note_off_c,9,39,0,
2,330,Note_off_c,9,40,0,
2,330,Note_off_c,9,41,0,
2,330,Note_off_c,9,42,0,
2,330,Note_off_c,9,43,0,
2,330,Note_off_c,9,44,0,
2,330,Note_off_c,9,45,0,
2,330,Note_off_c,9,46,0,
2,330,Note_off_c,9,47,0,
2,330,Note_off_c,9,48,0,
2,330,Note_off_c,9,49,0,
2,330,Note_off_c,9,50,0,
2,330,Note_off_c,9,51,0,
2,330,Note_off_c,9,56,0,
2,330,Note_off_c,9,57,0,
2,330,Note_off_c,9,59,0,
2,330,Note_off_c,9,60,0,
2,330,Note_off_c,9,61,0,
2,330,Note_off_c,9,63,0,
2,330,Note_off_c,9,68,0,
2,330,Note_off_c,9,69,0,
2,330,Note_off_c,9,70,0,
2,330,Note_off_c,9,76,0,
2,330,Note_off_c,9,80,0,
2,330,Note_off_c,9,81,0,
2,330,Note_off_c,9,82,0,
2,330,Note_off_c,9,87,0,
2,330,Note_off_c,9,88,0,
2,330,Note_off_c,9,89,0,
2,330,Note_off_c,9,91,0,
2,330,Note_off_c,9,93,0,
2,360,Note_on_c,9,35,7,
2,360,Note_off_c,9,36,0,
2,360,Note_off_c,9,37,0,
2,360,Note_on_c,9,38,3,
2,360,Note_off_c,9,39,0,
2,360,Note_off_c,9,40,0,
2,360,Note_off_c,9,41,0,
2,360,Note_off_c,9,42,0,
2,360,Note_off_c,9,43,0,
2,360,Note_off_c,9,44,0,
2,360,Note_off_c,9,45,0,
2,360,Note_off_c,9,46,0,
2,360,Note_off_c,9,47,0,
2,360,Note_off_c,9,48,0,
2,360,Note_off_c,9,49,0,
2,360,Note_off_c,9,50,0,
2,360,Note_off_c,9,51,0,
2,360,Note_off_c,9,56,0,
2,360,Note_off_c,9,57,0,
2,360,Note_off_c,9,59,0,
2,360,Note_off_c,9,60,0,
2,360,Note_off_c,9,61,0,
2,360,Note_off_c,9,63,0,
2,360,Note_off_c,9,68,0,
2,360,Note_off_c,9,69,0,
2,360,Note_off_c,9,70,0,
2,360,Note_off_c,9,76,0,
2,360,Note_off_c,9,80,0,
2,360,Note_off_c,9,81,0,
2,360,Note_off_c,9,82,0,
2,360,Note_off_c,9,87,0,
2,360,Note_off_c,9,88,0,
2,360,Note_off_c,9,89,0,
2,360,Note_off_c,9,91,0,
2,360,Note_off_c,9,93,0,
2,390,Note_on_c,9,35,7,
2,390,Note_off_c,9,36,0,
2,390,Note_off_c,9,37,0,
2,390,Note_on_c,9,38,3,
2,390,Note_off_c,9,39,0,
2,390,Note_off_c,9,40,0,
2,390,Note_off_c,9,41,0,
2,390,Note_off_c,9,42,0,
2,390,Note_off_c,9,43,0,
2,390,Note_off_c,9,44,0,
2,390,Note_off_c,9,45,0,
2,390,Note_off_c,9,46,0,
2,390,Note_off_c,9,47,0,
2,390,Note_off_c,9,48,0,
2,390,Note_off_c,9,49,0,
2,390,Note_off_c,9,50,0,
2,390,Note_off_c,9,51,0,
2,390,Note_off_c,9,56,0,
2,390,Note_off_c,9,57,0,
2,390,Note_off_c,9,59,0,
2,390,Note_off_c,9,60,0,
2,390,Note_off_c,9,61,0,
2,390,Note_off_c,9,63,0,
2,390,Note_off_c,9,68,0,
2,390,Note_off_c,9,69,0,
2,390,Note_off_c,9,70,0,
2,390,Note_off_c,9,76,0,
2,390,Note_off_c,9,80,0,
2,390,Note_off_c,9,81,0,
2,390,Note_off_c,9,82,0,
2,390,Note_off_c,9,87,0,
2,390,Note_off_c,9,88,0,
2,390,Note_off_c,9,89,0,
2,390,Note_off_c,9,91,0,
2,390,Note_off_c,9,93,0,
2,420,Note_on_c,9,35,7,
2,420,Note_off_c,9,36,0,
2,420,Note_off_c,9,37,0,
2,420,Note_on_c,9,38,3,
2,420,Note_off_c,9,39,0,
2,420,Note_off_c,9,40,0,
2,420,Note_off_c,9,41,0,
2,420,Note_off_c,9,42,0,
2,420,Note_off_c,9,43,0,
2,420,Note_off_c,9,44,0,
2,420,Note_off_c,9,45,0,
2,420,Note_off_c,9,46,0,
2,420,Note_off_c,9,47,0,
2,420,Note_off_c,9,48,0,
2,420,Note_off_c,9,49,0,
2,420,Note_off_c,9,50,0,
2,420,Note_off_c,9,51,0,
2,420,Note_off_c,9,56,0,
2,420,Note_off_c,9,57,0,
2,420,Note_off_c,9,59,0,
2,420,Note_off_c,9,60,0,
2,420,Note_off_c,9,61,0,
2,420,Note_off_c,9,63,0,
2,420,Note_off_c,9,68,0,
2,420,Note_off_c,9,69,0,
2,420,Note_off_c,9,70,0,
2,420,Note_off_c,9,76,0,
2,420,Note_off_c,9,80,0,
2,420,Note_off_c,9,81,0,
2,420,Note_off_c,9,82,0,
2,420,Note_off_c,9,87,0,
2,420,Note_off_c,9,88,0,
2,420,Note_off_c,9,89,0,
2,420,Note_off_c,9,91,0,
2,420,Note_off_c,9,93,0,
2,450,Note_on_c,9,35,7,
2,450,Note_off_c,9,36,0,
2,450,Note_off_c,9,37,0,
2,450,Note_on_c,9,38,3,
2,450,Note_off_c,9,39,0,
2,450,Note_off_c,9,40,0,
2,450,Note_off_c,9,41,0,
2,450,Note_off_c,9,42,0,
2,450,Note_off_c,9,43,0,
2,450,Note_off_c,9,44,0,
2,450,Note_off_c,9,45,0,
2,450,Note_off_c,9,46,0,
2,450,Note_off_c,9,47,0,
2,450,Note_off_c,9,48,0,
2,450,Note_off_c,9,49,0,
2,450,Note_off_c,9,50,0,
2,450,Note_off_c,9,51,0,
2,450,Note_off_c,9,56,0,
2,450,Note_off_c,9,57,0,
2,450,Note_off_c,9,59,0,
2,450,Note_off_c,9,60,0,
2,450,Note_off_c,9,61,0,
2,450,Note_off_c,9,63,0,
2,450,Note_off_c,9,68,0,
2,450,Note_off_c,9,69,0,
2,450,Note_off_c,9,70,0,
2,450,Note_off_c,9,76,0,
2,450,Note_off_c,9,80,0,
2,450,Note_off_c,9,81,0,
2,450,Note_off_c,9,82,0,
2,450,Note_off_c,9,87,0,
2,450,Note_off_c,9,88,0,
2,450,Note_off_c,9,89,0,
2,450,Note_off_c,9,91,0,
2,450,Note_off_c,9,93,0,
2,480,Note_on_c,9,35,7,
2,480,Note_off_c,9,36,0,
2,480,Note_off_c,9,37,0,
2,480,Note_on_c,9,38,3,
2,480,Note_off_c,9,39,0,
2,480,Note_off_c,9,40,0,
2,480,Note_off_c,9,41,0,
2,480,Note_off_c,9,42,0,
2,480,Note_off_c,9,43,0,
2,480,Note_off_c,9,44,0,
2,480,Note_off_c,9,45,0,
2,480,Note_off_c,9,46,0,
2,480,Note_off_c,9,47,0,
2,480,Note_off_c,9,48,0,
2,480,Note_off_c,9,49,0,
2,480,Note_off_c,9,50,0,
2,480,Note_off_c,9,51,0,
2,480,Note_off_c,9,56,0,
2,480,Note_off_c,9,57,0,
2,480,Note_off_c,9,59,0,
2,480,Note_off_c,9,60,0,
2,480,Note_off_c,9,61,0,
2,480,Note_off_c,9,63,0,
2,480,Note_off_c,9,68,0,
2,480,Note_off_c,9,69,0,
2,480,Note_off_c,9,70,0,
2,480,Note_off_c,9,76,0,
2,480,Note_off_c,9,80,0,
2,480,Note_off_c,9,81,0,
2,480,Note_off_c,9,82,0,
2,480,Note_off_c,9,87,0,
2,480,Note_off_c,9,88,0,
2,480,Note_off_c,9,89,0,
2,480,Note_off_c,9,91,0,
2,480,Note_off_c,9,93,0,
2,510,Note_on_c,9,35,7,
2,510,Note_off_c,9,36,0,
2,510,Note_off_c,9,37,0,
2,510,Note_on_c,9,38,3,
2,510,Note_off_c,9,39,0,
2,510,Note_off_c,9,40,0,
2,510,Note_off_c,9,41,0,
2,510,Note_off_c,9,42,0,
2,510,Note_off_c,9,43,0,
2,510,Note_off_c,9,44,0,
2,510,Note_off_c,9,45,0,
2,510,Note_off_c,9,46,0,
2,510,Note_off_c,9,47,0,
2,510,Note_off_c,9,48,0,
2,510,Note_off_c,9,49,0,
2,510,Note_off_c,9,50,0,
2,510,Note_off_c,9,51,0,
2,510,Note_off_c,9,56,0,
2,510,Note_off_c,9,57,0,
2,510,Note_off_c,9,59,0,
2,510,Note_off_c,9,60,0,
2,510,Note_off_c,9,61,0,
2,510,Note_off_c,9,63,0,
2,510,Note_off_c,9,68,0,
2,510,Note_off_c,9,69,0,
2,510,Note_off_c,9,70,0,
2,510,Note_off_c,9,76,0,
2,510,Note_off_c,9,80,0,
2,510,Note_off_c,9,81,0,
2,510,Note_off_c,9,82,0,
2,510,Note_off_c,9,87,0,
2,510,Note_off_c,9,88,0,
2,510,Note_off_c,9,89,0,
2,510,Note_off_c,9,91,0,
2,510,Note_off_c,9,93,0,
2,540,Note_on_c,9,35,7,
2,540,Note_off_c,9,36,0,
2,540,Note_off_c,9,37,0,
2,540,Note_on_c,9,38,3,
2,540,Note_off_c,9,39,0,
2,540,Note_off_c,9,40,0,
2,540,Note_off_c,9,41,0,
2,540,Note_off_c,9,42,0,
2,540,Note_off_c,9,43,0,
2,540,Note_off_c,9,44,0,
2,540,Note_off_c,9,45,0,
2,540,Note_off_c,9,46,0,
2,540,Note_off_c,9,47,0,
2,540,Note_off_c,9,48,0,
2,540,Note_off_c,9,49,0,
2,540,Note_off_c,9,50,0,
2,540,Note_off_c,9,51,0,
2,540,Note_off_c,9,56,0,
2,540,Note_off_c,9,57,0,
2,540,Note_off_c,9,59,0,
2,540,Note_off_c,9,60,0,
2,540,Note_off_c,9,61,0,
2,540,Note_off_c,9,63,0,
2,540,Note_off_c,9,68,0,
2,540,Note_off_c,9,69,0,
2,540,Note_off_c,9,70,0,
2,540,Note_off_c,9,76,0,
2,540,Note_off_c,9,80,0,
2,540,Note_off_c,9,81,0,
2,540,Note_off_c,9,82,0,
2,540,Note_off_c,9,87,0,
2,540,Note_off_c,9,88,0,
2,540,Note_off_c,9,89,0,
2,540,Note_off_c,9,91,0,
2,540,Note_off_c,9,93,0,
2,570,Note_on_c,9,35,7,
2,570,Note_off_c,9,36,0,
2,570,Note_off_c,9,37,0,
2,570,Note_on_c,9,38,3,
2,570,Note_off_c,9,39,0,
2,570,Note_off_c,9,40,0,
2,570,Note_off_c,9,41,0,
2,570,Note_off_c,9,42,0,
2,570,Note_off_c,9,43,0,
2,570,Note_off_c,9,44,0,
2,570,Note_off_c,9,45,0,
2,570,Note_off_c,9,46,0,
2,570,Note_off_c,9,47,0,
2,570,Note_off_c,9,48,0,
2,570,Note_off_c,9,49,0,
2,570,Note_off_c,9,50,0,
2,570,Note_off_c,9,51,0,
2,570,Note_off_c,9,56,0,
2,570,Note_off_c,9,57,0,
2,570,Note_off_c,9,59,0,
2,570,Note_off_c,9,60,0,
2,570,Note_off_c,9,61,0,
2,570,Note_off_c,9,63,0,
2,570,Note_off_c,9,68,0,
2,570,Note_off_c,9,69,0,
2,570,Note_off_c,9,70,0,
2,570,Note_off_c,9,76,0,
2,570,Note_off_c,9,80,0,
2,570,Note_off_c,9,81,0,
2,570,Note_off_c,9,82,0,
2,570,Note_off_c,9,87,0,
2,570,Note_off_c,9,88,0,
2,570,Note_off_c,9,89,0,
2,570,Note_off_c,9,91,0,
2,570,Note_off_c,9,93,0,
2,600,Note_on_c,9,35,7,
2,600,Note_off_c,9,36,0,
2,600,Note_off_c,9,37,0,
2,600,Note_on_c,9,38,3,
2,600,Note_off_c,9,39,0,
2,600,Note_off_c,9,40,0,
2,600,Note_off_c,9,41,0,
2,600,Note_off_c,9,42,0,
2,600,Note_off_c,9,43,0,
2,600,Note_off_c,9,44,0,
2,600,Note_off_c,9,45,0,
2,600,Note_off_c,9,46,0,
2,600,Note_off_c,9,47,0,
2,600,Note_off_c,9,48,0,
2,600,Note_off_c,9,49,0,
2,600,Note_off_c,9,50,0,
2,600,Note_off_c,9,51,0,
2,600,Note_off_c,9,56,0,
2,600,Note_off_c,9,57,0,
2,600,Note_off_c,9,59,0,
2,600,Note_off_c,9,60,0,
2,600,Note_off_c,9,61,0,
2,600,Note_off_c,9,63,0,
2,600,Note_off_c,9,68,0,
2,600,Note_off_c,9,69,0,
2,600,Note_off_c,9,70,0,
2,600,Note_off_c,9,76,0,
2,600,Note_off_c,9,80,0,
2,600,Note_off_c,9,81,0,
2,600,Note_off_c,9,82,0,
2,600,Note_off_c,9,87,0,
2,600,Note_off_c,9,88,0,
2,600,Note_off_c,9,89,0,
2,600,Note_off_c,9,91,0,
2,600,Note_off_c,9,93,0,
2,630,Note_on_c,9,35,7,
2,630,Note_off_c,9,36,0,
2,630,Note_off_c,9,37,0,
2,630,Note_on_c,9,38,3,
2,630,Note_off_c,9,39,0,
2,630,Note_off_c,9,40,0,
2,630,Note_off_c,9,41,0,
2,630,Note_off_c,9,42,0,
2,630,Note_off_c,9,43,0,
2,630,Note_off_c,9,44,0,
2,630,Note_off_c,9,45,0,
2,630,Note_off_c,9,46,0,
2,630,Note_off_c,9,47,0,
2,630,Note_off_c,9,48,0,
2,630,Note_off_c,9,49,0,
2,630,Note_off_c,9,50,0,
2,630,Note_off_c,9,51,0,
2,630,Note_off_c,9,56,0,
2,630,Note_off_c,9,57,0,
2,630,Note_off_c,9,59,0,
2,630,Note_off_c,9,60,0,
2,630,Note_off_c,9,61,0,
2,630,Note_off_c,9,63,0,
2,630,Note_off_c,9,68,0,
2,630,Note_off_c,9,69,0,
2,630,Note_off_c,9,70,0,
2,630,Note_off_c,9,76,0,
2,630,Note_off_c,9,80,0,
2,630,Note_off_c,9,81,0,
2,630,Note_off_c,9,82,0,
2,630,Note_off_c,9,87,0,
2,630,Note_off_c,9,88,0,
2,630,Note_off_c,9,89,0,
2,630,Note_off_c,9,91,0,
2,630,Note_off_c,9,93,0,
2,660,Note_on_c,9,35,7,
2,660,Note_off_c,9,36,0,
2,660,Note_off_c,9,37,0,
2,660,Note_on_c,9,38,3,
2,660,Note_off_c,9,39,0,
2,660,Note_off_c,9,40,0,
2,660,Note_off_c,9,41,0,
2,660,Note_off_c,9,42,0,
2,660,Note_off_c,9,43,0,
2,660,Note_off_c,9,44,0,
2,660,Note_off_c,9,45,0,
2,660,Note_off_c,9,46,0,
2,660,Note_off_c,9,47,0,
2,660,Note_off_c,9,48,0,
2,660,Note_off_c,9,49,0,
2,660,Note_off_c,9,50,0,
2,660,Note_off_c,9,51,0,
2,660,Note_off_c,9,56,0,
2,660,Note_off_c,9,57,0,
2,660,Note_off_c,9,59,0,
2,660,Note_off_c,9,60,0,
2,660,Note_off_c,9,61,0,
2,660,Note_off_c,9,63,0,
2,660,Note_off_c,9,68,0,
2,660,Note_off_c,9,69,0,
2,660,Note_off_c,9,70,0,
2,660,Note_off_c,9,76,0,
2,660,Note_off_c,9,80,0,
2,660,Note_off_c,9,81,0,
2,660,Note_off_c,9,82,0,
2,660,Note_off_c,9,87,0,
2,660,Note_off_c,9,88,0,
2,660,Note_off_c,9,89,0,
2,660,Note_off_c,9,91,0,
2,660,Note_off_c,9,93,0,
2,690,Note_on_c,9,35,7,
2,690,Note_off_c,9,36,0,
2,690,Note_off_c,9,37,0,
2,690,Note_on_c,9,38,3,
2,690,Note_off_c,9,39,0,
2,690,Note_off_c,9,40,0,
2,690,Note_off_c,9,41,0,
2,690,Note_off_c,9,42,0,
2,690,Note_off_c,9,43,0,
2,690,Note_off_c,9,44,0,
2,690,Note_off_c,9,45,0,
2,690,Note_off_c,9,46,0,
2,690,Note_off_c,9,47,0,
2,690,Note_off_c,9,48,0,
2,690,Note_off_c,9,49,0,
2,690,Note_off_c,9,50,0,
2,690,Note_off_c,9,51,0,
2,690,Note_off_c,9,56,0,
2,690,Note_off_c,9,57,0,
2,690,Note_off_c,9,59,0,
2,690,Note_off_c,9,60,0,
2,690,Note_off_c,9,61,0,
2,690,Note_off_c,9,63,0,
2,690,Note_off_c,9,68,0,
2,690,Note_off_c,9,69,0,
2,690,Note_off_c,9,70,0,
2,690,Note_off_c,9,76,0,
2,690,Note_off_c,9,80,0,
2,690,Note_off_c,9,81,0,
2,690,Note_off_c,9,82,0,
2,690,Note_off_c,9,87,0,
2,690,Note_off_c,9,88,0,
2,690,Note_off_c,9,89,0,
2,690,Note_off_c,9,91,0,
2,690,Note_off_c,9,93,0,
2,720,Note_on_c,9,35,7,
2,720,Note_off_c,9,36,0,
2,720,Note_off_c,9,37,0,
2,720,Note_on_c,9,38,3,
2,720,Note_off_c,9,39,0,
2,720,Note_off_c,9,40,0,
2,720,Note_off_c,9,41,0,
2,720,Note_off_c,9,42,0,
2,720,Note_off_c,9,43,0,
2,720,Note_off_c,9,44,0,
2,720,Note_off_c,9,45,0,
2,720,Note_off_c,9,46,0,
2,720,Note_off_c,9,47,0,
2,720,Note_off_c,9,48,0,
2,720,Note_off_c,9,49,0,
2,720,Note_off_c,9,50,0,
2,720,Note_off_c,9,51,0,
2,720,Note_off_c,9,56,0,
2,720,Note_off_c,9,57,0,
2,720,Note_off_c,9,59,0,
2,720,Note_off_c,9,60,0,
2,720,Note_off_c,9,61,0,
2,720,Note_off_c,9,63,0,
2,720,Note_off_c,9,68,0,
2,720,Note_off_c,9,69,0,
2,720,Note_off_c,9,70,0,
2,720,Note_off_c,9,76,0,
2,720,Note_off_c,9,80,0,
2,720,Note_off_c,9,81,0,
2,720,Note_off_c,9,82,0,
2,720,Note_off_c,9,87,0,
2,720,Note_off_c,9,88,0,
2,720,Note_off_c,9,89,0,
2,720,Note_off_c,9,91,0,
2,720,Note_off_c,9,93,0,
2,750,Note_on_c,9,35,7,
2,750,Note_off_c,9,36,0,
2,750,Note_off_c,9,37,0,
2,750,Note_on_c,9,38,3,
2,750,Note_off_c,9,39,0,
2,750,Note_off_c,9,40,0,
2,750,Note_off_c,9,41,0,
2,750,Note_off_c,9,42,0,
2,750,Note_off_c,9,43,0,
2,750,Note_off_c,9,44,0,
2,750,Note_off_c,9,45,0,
2,750,Note_off_c,9,46,0,
2,750,Note_off_c,9,47,0,
2,750,Note_off_c,9,48,0,
2,750,Note_off_c,9,49,0,
2,750,Note_off_c,9,50,0,
2,750,Note_off_c,9,51,0,
2,750,Note_off_c,9,56,0,
2,750,Note_off_c,9,57,0,
2,750,Note_off_c,9,59,0,
2,750,Note_off_c,9,60,0,
2,750,Note_off_c,9,61,0,
2,750,Note_off_c,9,63,0,
2,750,Note_off_c,9,68,0,
2,750,Note_off_c,9,69,0,
2,750,Note_off_c,9,70,0,
2,750,Note_off_c,9,76,0,
2,750,Note_off_c,9,80,0,
2,750,Note_off_c,9,81,0,
2,750,Note_off_c,9,82,0,
2,750,Note_off_c,9,87,0,
2,750,Note_off_c,9,88,0,
2,750,Note_off_c,9,89,0,
2,750,Note_off_c,9,91,0,
2,750,Note_off_c,9,93,0,
2,780,Note_on_c,9,35,7,
2,780,Note_off_c,9,36,0,
2,780,Note_off_c,9,37,0,
2,780,Note_on_c,9,38,3,
2,780,Note_off_c,9,39,0,
2,780,Note_off_c,9,40,0,
2,780,Note_off_c,9,41,0,
2,780,Note_off_c,9,42,0,
2,780,Note_off_c,9,43,0,
2,780,Note_off_c,9,44,0,
2,780,Note_off_c,9,45,0,
2,780,Note_off_c,9,46,0,
2,780,Note_off_c,9,47,0,
2,780,Note_off_c,9,48,0,
2,780,Note_off_c,9,49,0,
2,780,Note_off_c,9,50,0,
2,780,Note_off_c,9,51,0,
2,780,Note_off_c,9,56,0,
2,780,Note_off_c,9,57,0,
2,780,Note_off_c,9,59,0,
2,780,Note_off_c,9,60,0,
2,780,Note_off_c,9,61,0,
2,780,Note_off_c,9,63,0,
2,780,Note_off_c,9,68,0,
2,780,Note_off_c,9,69,0,
2,780,Note_off_c,9,70,0,
2,780,Note_off_c,9,76,0,
2,780,Note_off_c,9,80,0,
2,780,Note_off_c,9,81,0,
2,780,Note_off_c,9,82,0,
2,780,Note_off_c,9,87,0,
2,780,Note_off_c,9,88,0,
2,780,Note_off_c,9,89,0,
2,780,Note_off_c,9,91,0,
2,780,Note_off_c,9,93,0,
2,810,Note_on_c,9,35,7,
2,810,Note_off_c,9,36,0,
2,810,Note_off_c,9,37,0,
2,810,Note_on_c,9,38,3,
2,810,Note_off_c,9,39,0,
2,810,Note_off_c,9,40,0,
2,810,Note_off_c,9,41,0,
2,810,Note_off_c,9,42,0,
2,810,Note_off_c,9,43,0,
2,810,Note_off_c,9,44,0,
2,810,Note_off_c,9,45,0,
2,810,Note_off_c,9,46,0,
2,810,Note_off_c,9,47,0,
2,810,Note_off_c,9,48,0,
2,810,Note_off_c,9,49,0,
2,810,Note_off_c,9,50,0,
2,810,Note_off_c,9,51,0,
2,810,Note_off_c,9,56,0,
2,810,Note_off_c,9,57,0,
2,810,Note_off_c,9,59,0,
2,810,Note_off_c,9,60,0,
2,810,Note_off_c,9,61,0,
2,810,Note_off_c,9,63,0,
2,810,Note_off_c,9,68,0,
2,810,Note_off_c,9,69,0,
2,810,Note_off_c,9,70,0,
2,810,Note_off_c,9,76,0,
2,810,Note_off_c,9,80,0,
2,810,Note_off_c,9,81,0,
2,810,Note_off_c,9,82,0,
2,810,Note_off_c,9,87,0,
2,810,Note_off_c,9,88,0,
2,810,Note_off_c,9,89,0,
2,810,Note_off_c,9,91,0,
2,810,Note_off_c,9,93,0,
2,840,Note_on_c,9,35,7,
2,840,Note_off_c,9,36,0,
2,840,Note_off_c,9,37,0,
2,840,Note_on_c,9,38,3,
2,840,Note_off_c,9,39,0,
2,840,Note_off_c,9,40,0,
2,840,Note_off_c,9,41,0,
2,840,Note_off_c,9,42,0,
2,840,Note_off_c,9,43,0,
2,840,Note_off_c,9,44,0,
2,840,Note_off_c,9,45,0,
2,840,Note_off_c,9,46,0,
2,840,Note_off_c,9,47,0,
2,840,Note_off_c,9,48,0,
2,840,Note_off_c,9,49,0,
2,840,Note_off_c,9,50,0,
2,840,Note_off_c,9,51,0,
2,840,Note_off_c,9,56,0,
2,840,Note_off_c,9,57,0,
2,840,Note_off_c,9,59,0,
2,840,Note_off_c,9,60,0,
2,840,Note_off_c,9,61,0,
2,840,Note_off_c,9,63,0,
2,840,Note_off_c,9,68,0,
2,840,Note_off_c,9,69,0,
2,840,Note_off_c,9,70,0,
2,840,Note_off_c,9,76,0,
2,840,Note_off_c,9,80,0,
2,840,Note_off_c,9,81,0,
2,840,Note_off_c,9,82,0,
2,840,Note_off_c,9,87,0,
2,840,Note_off_c,9,88,0,
2,840,Note_off_c,9,89,0,
2,840,Note_off_c,9,91,0,
2,840,Note_off_c,9,93,0,
2,870,Note_on_c,9,35,7,
2,870,Note_off_c,9,36,0,
2,870,Note_off_c,9,37,0,
2,870,Note_on_c,9,38,3,
2,870,Note_off_c,9,39,0,
2,870,Note_off_c,9,40,0,
2,870,Note_off_c,9,41,0,
2,870,Note_off_c,9,42,0,
2,870,Note_off_c,9,43,0,
2,870,Note_off_c,9,44,0,
2,870,Note_off_c,9,45,0,
2,870,Note_off_c,9,46,0,
2,870,Note_off_c,9,47,0,
2,870,Note_off_c,9,48,0,
2,870,Note_off_c,9,49,0,
2,870,Note_off_c,9,50,0,
2,870,Note_off_c,9,51,0,
2,870,Note_off_c,9,56,0,
2,870,Note_off_c,9,57,0,
2,870,Note_off_c,9,59,0,
2,870,Note_off_c,9,60,0,
2,870,Note_off_c,9,61,0,
2,870,Note_off_c,9,63,0,
2,870,Note_off_c,9,68,0,
2,870,Note_off_c,9,69,0,
2,870,Note_off_c,9,70,0,
2,870,Note_off_c,9,76,0,
2,870,Note_off_c,9,80,0,
2,870,Note_off_c,9,81,0,
2,870,Note_off_c,9,82,0,
2,870,Note_off_c,9,87,0,
2,870,Note_off_c,9,88,0,
2,870,Note_off_c,9,89,0,
2,870,Note_off_c,9,91,0,
2,870,Note_off_c,9,93,0,
2,900,Note_on_c,9,35,7,
2,900,Note_off_c,9,36,0,
2,900,Note_off_c,9,37,0,
2,900,Note_on_c,9,38,3,
2,900,Note_off_c,9,39,0,
2,900,Note_off_c,9,40,0,
2,900,Note_off_c,9,41,0,
2,900,Note_off_c,9,42,0,
2,900,Note_off_c,9,43,0,
2,900,Note_off_c,9,44,0,
2,900,Note_off_c,9,45,0,
2,900,Note_off_c,9,46,0,
2,900,Note_off_c,9,47,0,
2,900,Note_off_c,9,48,0,
2,900,Note_off_c,9,49,0,
2,900,Note_off_c,9,50,0,
2,900,Note_off_c,9,51,0,
2,900,Note_off_c,9,56,0,
2,900,Note_off_c,9,57,0,
2,900,Note_off_c,9,59,0,
2,900,Note_off_c,9,60,0,
2,900,Note_off_c,9,61,0,
2,900,Note_off_c,9,63,0,
2,900,Note_off_c,9,68,0,
2,900,Note_off_c,9,69,0,
2,900,Note_off_c,9,70,0,
2,900,Note_off_c,9,76,0,
2,900,Note_off_c,9,80,0,
2,900,Note_off_c,9,81,0,
2,900,Note_off_c,9,82,0,
2,900,Note_off_c,9,87,0,
2,900,Note_off_c,9,88,0,
2,900,Note_off_c,9,89,0,
2,900,Note_off_c,9,91,0,
2,900,Note_off_c,9,93,0,
2,930,Note_on_c,9,35,7,
2,930,Note_off_c,9,36,0,
2,930,Note_off_c,9,37,0,
2,930,Note_on_c,9,38,3,
2,930,Note_off_c,9,39,0,
2,930,Note_off_c,9,40,0,
2,930,Note_off_c,9,41,0,
2,930,Note_off_c,9,42,0,
2,930,Note_off_c,9,43,0,
2,930,Note_off_c,9,44,0,
2,930,Note_off_c,9,45,0,
2,930,Note_off_c,9,46,0,
2,930,Note_off_c,9,47,0,
2,930,Note_off_c,9,48,0,
2,930,Note_off_c,9,49,0,
2,930,Note_off_c,9,50,0,
2,930,Note_off_c,9,51,0,
2,930,Note_off_c,9,56,0,
2,930,Note_off_c,9,57,0,
2,930,Note_off_c,9,59,0,
2,930,Note_off_c,9,60,0,
2,930,Note_off_c,9,61,0,
2,930,Note_off_c,9,63,0,
2,930,Note_off_c,9,68,0,
2,930,Note_off_c,9,69,0,
2,930,Note_off_c,9,70,0,
2,930,Note_off_c,9,76,0,
2,930,Note_off_c,9,80,0,
2,930,Note_off_c,9,81,0,
2,930,Note_off_c,9,82,0,
2,930,Note_off_c,9,87,0,
2,930,Note_off_c,9,88,0,
2,930,Note_off_c,9,89,0,
2,930,Note_off_c,9,91,0,
2,930,Note_off_c,9,93,0,
2,960,Note_on_c,9,35,7,
2,960,Note_off_c,9,36,0,
2,960,Note_off_c,9,37,0,
2,960,Note_on_c,9,38,3,
2,960,Note_off_c,9,39,0,
2,960,Note_off_c,9,40,0,
2,960,Note_off_c,9,41,0,
2,960,Note_off_c,9,42,0,
2,960,Note_off_c,9,43,0,
2,960,Note_off_c,9,44,0,
2,960,Note_off_c,9,45,0,
2,960,Note_off_c,9,46,0,
2,960,Note_off_c,9,47,0,
2,960,Note_off_c,9,48,0,
2,960,Note_off_c,9,49,0,
2,960,Note_off_c,9,50,0,
2,960,Note_off_c,9,51,0,
2,960,Note_off_c,9,56,0,
2,960,Note_off_c,9,57,0,
2,960,Note_off_c,9,59,0,
2,960,Note_off_c,9,60,0,
2,960,Note_off_c,9,61,0,
2,960,Note_off_c,9,63,0,
2,960,Note_off_c,9,68,0,
2,960,Note_off_c,9,69,0,
2,960,Note_off_c,9,70,0,
2,960,Note_off_c,9,76,0,
2,960,Note_off_c,9,80,0,
2,960,Note_off_c,9,81,0,
2,960,Note_off_c,9,82,0,
2,960,Note_off_c,9,87,0,
2,960,Note_off_c,9,88,0,
2,960,Note_off_c,9,89,0,
2,960,Note_off_c,9,91,0,
2,960,Note_off_c,9,93,0,
2,990,Note_on_c,9,35,7,
2,990,Note_off_c,9,36,0,
2,990,Note_off_c,9,37,0,
2,990,Note_on_c,9,38,3,
2,990,Note_off_c,9,39,0,
2,990,Note_off_c,9,40,0,
2,990,Note_off_c,9,41,0,
2,990,Note_off_c,9,42,0,
2,990,Note_off_c,9,43,0,
2,990,Note_off_c,9,44,0,
2,990,Note_off_c,9,45,0,
2,990,Note_off_c,9,46,0,
2,990,Note_off_c,9,47,0,
2,990,Note_off_c,9,48,0,
2,990,Note_off_c,9,49,0,
2,990,Note_off_c,9,50,0,
2,990,Note_off_c,9,51,0,
2,990,Note_off_c,9,56,0,
2,990,Note_off_c,9,57,0,
2,990,Note_off_c,9,59,0,
2,990,Note_off_c,9,60,0,
2,990,Note_off_c,9,61,0,
2,990,Note_off_c,9,63,0,
2,990,Note_off_c,9,68,0,
2,990,Note_off_c,9,69,0,
2,990,Note_off_c,9,70,0,
2,990,Note_off_c,9,76,0,
2,990,Note_off_c,9,80,0,
2,990,Note_off_c,9,81,0,
2,990,Note_off_c,9,82,0,
2,990,Note_off_c,9,87,0,
2,990,Note_off_c,9,88,0,
2,990,Note_off_c,9,89,0,
2,990,Note_off_c,9,91,0,
2,990,Note_off_c,9,93,0,
2,1020,Note_on_c,9,35,7,
2,1020,Note_off_c,9,36,0,
2,1020,Note_off_c,9,37,0,
2,1020,Note_on_c,9,38,3,
2,1020,Note_off_c,9,39,0,
2,1020,Note_off_c,9,40,0,
2,1020,Note_off_c,9,41,0,
2,1020,Note_off_c,9,42,0,
2,1020,Note_off_c,9,43,0,
2,1020,Note_off_c,9,44,0,
2,1020,Note_off_c,9,45,0,
2,1020,Note_off_c,9,46,0,
2,1020,Note_off_c,9,47,0,
2,1020,Note_off_c,9,48,0,
2,1020,Note_off_c,9,49,0,
2,1020,Note_off_c,9,50,0,
2,1020,Note_off_c,9,51,0,
2,1020,Note_off_c,9,56,0,
2,1020,Note_off_c,9,57,0,
2,1020,Note_off_c,9,59,0,
2,1020,Note_off_c,9,60,0,
2,1020,Note_off_c,9,61,0,
2,1020,Note_off_c,9,63,0,
2,1020,Note_off_c,9,68,0,
2,1020,Note_off_c,9,69,0,
2,1020,Note_off_c,9,70,0,
2,1020,Note_off_c,9,76,0,
2,1020,Note_off_c,9,80,0,
2,1020,Note_off_c,9,81,0,
2,1020,Note_off_c,9,82,0,
2,1020,Note_off_c,9,87,0,
2,1020,Note_off_c,9,88,0,
2,1020,Note_off_c,9,89,0,
2,1020,Note_off_c,9,91,0,
2,1020,Note_off_c,9,93,0,
2,1050,Note_on_c,9,35,7,
2,1050,Note_off_c,9,36,0,
2,1050,Note_off_c,9,37,0,
2,1050,Note_on_c,9,38,3,
2,1050,Note_off_c,9,39,0,
2,1050,Note_off_c,9,40,0,
2,1050,Note_off_c,9,41,0,
2,1050,Note_off_c,9,42,0,
2,1050,Note_off_c,9,43,0,
2,1050,Note_off_c,9,44,0,
2,1050,Note_off_c,9,45,0,
2,1050,Note_off_c,9,46,0,
2,1050,Note_off_c,9,47,0,
2,1050,Note_off_c,9,48,0,
2,1050,Note_off_c,9,49,0,
2,1050,Note_off_c,9,50,0,
2,1050,Note_off_c,9,51,0,
2,1050,Note_off_c,9,56,0,
2,1050,Note_off_c,9,57,0,
2,1050,Note_off_c,9,59,0,
2,1050,Note_off_c,9,60,0,
2,1050,Note_off_c,9,61,0,
2,1050,Note_off_c,9,63,0,
2,1050,Note_off_c,9,68,0,
2,1050,Note_off_c,9,69,0,
2,1050,Note_off_c,9,70,0,
2,1050,Note_off_c,9,76,0,
2,1050,Note_off_c,9,80,0,
2,1050,Note_off_c,9,81,0,
2,1050,Note_off_c,9,82,0,
2,1050,Note_off_c,9,87,0,
2,1050,Note_off_c,9,88,0,
2,1050,Note_off_c,9,89,0,
2,1050,Note_off_c,9,91,0,
2,1050,Note_off_c,9,93,0,
2,1080,Note_on_c,9,35,7,
2,1080,Note_off_c,9,36,0,
2,1080,Note_off_c,9,37,0,
2,1080,Note_on_c,9,38,3,
2,1080,Note_off_c,9,39,0,
2,1080,Note_off_c,9,40,0,
2,1080,Note_off_c,9,41,0,
2,1080,Note_off_c,9,42,0,
2,1080,Note_off_c,9,43,0,
2,1080,Note_off_c,9,44,0,
2,1080,Note_off_c,9,45,0,
2,1080,Note_off_c,9,46,0,
2,1080,Note_off_c,9,47,0,
2,1080,Note_off_c,9,48,0,
2,1080,Note_off_c,9,49,0,
2,1080,Note_off_c,9,50,0,
2,1080,Note_off_c,9,51,0,
2,1080,Note_off_c,9,56,0,
2,1080,Note_off_c,9,57,0,
2,1080,Note_off_c,9,59,0,
2,1080,Note_off_c,9,60,0,
2,1080,Note_off_c,9,61,0,
2,1080,Note_off_c,9,63,0,
2,1080,Note_off_c,9,68,0,
2,1080,Note_off_c,9,69,0,
2,1080,Note_off_c,9,70,0,
2,1080,Note_off_c,9,76,0,
2,1080,Note_off_c,9,80,0,
2,1080,Note_off_c,9,81,0,
2,1080,Note_off_c,9,82,0,
2,1080,Note_off_c,9,87,0,
2,1080,Note_off_c,9,88,0,
2,1080,Note_off_c,9,89,0,
2,1080,Note_off_c,9,91,0,
2,1080,Note_off_c,9,93,0,
2,1110,Note_on_c,9,35,7,
2,1110,Note_off_c,9,36,0,
2,1110,Note_off_c,9,37,0,
2,1110,Note_on_c,9,38,3,
2,1110,Note_off_c,9,39,0,
2,1110,Note_off_c,9,40,0,
2,1110,Note_off_c,9,41,0,
2,1110,Note_off_c,9,42,0,
2,1110,Note_off_c,9,43,0,
2,1110,Note_off_c,9,44,0,
2,1110,Note_off_c,9,45,0,
2,1110,Note_off_c,9,46,0,
2,1110,Note_off_c,9,47,0,
2,1110,Note_off_c,9,48,0,
2,1110,Note_off_c,9,49,0,
2,1110,Note_off_c,9,50,0,
2,1110,Note_off_c,9,51,0,
2,1110,Note_off_c,9,56,0,
2,1110,Note_off_c,9,57,0,
2,1110,Note_off_c,9,59,0,
2,1110,Note_off_c,9,60,0,
2,1110,Note_off_c,9,61,0,
2,1110,Note_off_c,9,63,0,
2,1110,Note_off_c,9,68,0,
2,1110,Note_off_c,9,69,0,
2,1110,Note_off_c,9,70,0,
2,1110,Note_off_c,9,76,0,
2,1110,Note_off_c,9,80,0,
2,1110,Note_off_c,9,81,0,
2,1110,Note_off_c,9,82,0,
2,1110,Note_off_c,9,87,0,
2,1110,Note_off_c,9,88,0,
2,1110,Note_off_c,9,89,0,
2,1110,Note_off_c,9,91,0,
2,1110,Note_off_c,9,93,0,
2,1140,Note_on_c,9,35,7,
2,1140,Note_off_c,9,36,0,
2,1140,Note_off_c,9,37,0,
2,1140,Note_on_c,9,38,3,
2,1140,Note_off_c,9,39,0,
2,1140,Note_off_c,9,40,0,
2,1140,Note_off_c,9,41,0,
2,1140,Note_off_c,9,42,0,
2,1140,Note_off_c,9,43,0,
2,1140,Note_off_c,9,44,0,
2,1140,Note_off_c,9,45,0,
2,1140,Note_off_c,9,46,0,
2,1140,Note_off_c,9,47,0,
2,1140,Note_off_c,9,48,0,
2,1140,Note_off_c,9,49,0,
2,1140,Note_off_c,9,50,0,
2,1140,Note_off_c,9,51,0,
2,1140,Note_off_c,9,56,0,
2,1140,Note_off_c,9,57,0,
2,1140,Note_off_c,9,59,0,
2,1140,Note_off_c,9,60,0,
2,1140,Note_off_c,9,61,0,
2,1140,Note_off_c,9,63,0,
2,1140,Note_off_c,9,68,0,
2,1140,Note_off_c,9,69,0,
2,1140,Note_off_c,9,70,0,
2,1140,Note_off_c,9,76,0,
2,1140,Note_off_c,9,80,0,
2,1140,Note_off_c,9,81,0,
2,1140,Note_off_c,9,82,0,
2,1140,Note_off_c,9,87,0,
2,1140,Note_off_c,9,88,0,
2,1140,Note_off_c,9,89,0,
2,1140,Note_off_c,9,91,0,
2,1140,Note_off_c,9,93,0,
2,1170,Note_on_c,9,35,7,
2,1170,Note_off_c,9,36,0,
2,1170,Note_off_c,9,37,0,
2,1170,Note_on_c,9,38,3,
2,1170,Note_off_c,9,39,0,
2,1170,Note_off_c,9,40,0,
2,1170,Note_off_c,9,41,0,
2,1170,Note_off_c,9,42,0,
2,1170,Note_off_c,9,43,0,
2,1170,Note_off_c,9,44,0,
2,1170,Note_off_c,9,45,0,
2,1170,Note_off_c,9,46,0,
2,1170,Note_off_c,9,47,0,
2,1170,Note_off_c,9,48,0,
2,1170,Note_off_c,9,49,0,
2,1170,Note_off_c,9,50,0,
2,1170,Note_off_c,9,51,0,
2,1170,Note_off_c,9,56,0,
2,1170,Note_off_c,9,57,0,
2,1170,Note_off_c,9,59,0,
2,1170,Note_off_c,9,60,0,
2,1170,Note_off_c,9,61,0,
2,1170,Note_off_c,9,63,0,
2,1170,Note_off_c,9,68,0,
2,1170,Note_off_c,9,69,0,
2,1170,Note_off_c,9,70,0,
2,1170,Note_off_c,9,76,0,
2,1170,Note_off_c,9,80,0,
2,1170,Note_off_c,9,81,0,
2,1170,Note_off_c,9,82,0,
2,1170,Note_off_c,9,87,0,
2,1170,Note_off_c,9,88,0,
2,1170,Note_off_c,9,89,0,
2,1170,Note_off_c,9,91,0,
2,1170,Note_off_c,9,93,0,
2,1200,Note_on_c,9,35,7,
2,1200,Note_off_c,9,36,0,
2,1200,Note_off_c,9,37,0,
2,1200,Note_on_c,9,38,3,
2,1200,Note_off_c,9,39,0,
2,1200,Note_off_c,9,40,0,
2,1200,Note_off_c,9,41,0,
2,1200,Note_off_c,9,42,0,
2,1200,Note_off_c,9,43,0,
2,1200,Note_off_c,9,44,0,
2,1200,Note_off_c,9,45,0,
2,1200,Note_off_c,9,46,0,
2,1200,Note_off_c,9,47,0,
2,1200,Note_off_c,9,48,0,
2,1200,Note_off_c,9,49,0,
2,1200,Note_off_c,9,50,0,
2,1200,Note_off_c,9,51,0,
2,1200,Note_off_c,9,56,0,
2,1200,Note_off_c,9,57,0,
2,1200,Note_off_c,9,59,0,
2,1200,Note_off_c,9,60,0,
2,1200,Note_off_c,9,61,0,
2,1200,Note_off_c,9,63,0,
2,1200,Note_off_c,9,68,0,
2,1200,Note_off_c,9,69,0,
2,1200,Note_off_c,9,70,0,
2,1200,Note_off_c,9,76,0,
2,1200,Note_off_c,9,80,0,
2,1200,Note_off_c,9,81,0,
2,1200,Note_off_c,9,82,0,
2,1200,Note_off_c,9,87,0,
2,1200,Note_off_c,9,88,0,
2,1200,Note_off_c,9,89,0,
2,1200,Note_off_c,9,91,0,
2,1200,Note_off_c,9,93,0,
2,1230,Note_on_c,9,35,7,
2,1230,Note_off_c,9,36,0,
2,1230,Note_off_c,9,37,0,
2,1230,Note_on_c,9,38,3,
2,1230,Note_off_c,9,39,0,
2,1230,Note_off_c,9,40,0,
2,1230,Note_off_c,9,41,0,
2,1230,Note_off_c,9,42,0,
2,1230,Note_off_c,9,43,0,
2,1230,Note_off_c,9,44,0,
2,1230,Note_off_c,9,45,0,
2,1230,Note_off_c,9,46,0,
2,1230,Note_off_c,9,47,0,
2,1230,Note_off_c,9,48,0,
2,1230,Note_off_c,9,49,0,
2,1230,Note_off_c,9,50,0,
2,1230,Note_off_c,9,51,0,
2,1230,Note_off_c,9,56,0,
2,1230,Note_off_c,9,57,0,
2,1230,Note_off_c,9,59,0,
2,1230,Note_off_c,9,60,0,
2,1230,Note_off_c,9,61,0,
2,1230,Note_off_c,9,63,0,
2,1230,Note_off_c,9,68,0,
2,1230,Note_off_c,9,69,0,
2,1230,Note_off_c,9,70,0,
2,1230,Note_off_c,9,76,0,
2,1230,Note_off_c,9,80,0,
2,1230,Note_off_c,9,81,0,
2,1230,Note_off_c,9,82,0,
2,1230,Note_off_c,9,87,0,
2,1230,Note_off_c,9,88,0,
2,1230,Note_off_c,9,89,0,
2,1230,Note_off_c,9,91,0,
2,1230,Note_off_c,9,93,0,
2,1260,Note_on_c,9,35,7,
2,1260,Note_off_c,9,36,0,
2,1260,Note_off_c,9,37,0,
2,1260,Note_on_c,9,38,3,
2,1260,Note_off_c,9,39,0,
2,1260,Note_off_c,9,40,0,
2,1260,Note_off_c,9,41,0,
2,1260,Note_off_c,9,42,0,
2,1260,Note_off_c,9,43,0,
2,1260,Note_off_c,9,44,0,
2,1260,Note_off_c,9,45,0,
2,1260,Note_off_c,9,46,0,
2,1260,Note_off_c,9,47,0,
2,1260,Note_off_c,9,48,0,
2,1260,Note_off_c,9,49,0,
2,1260,Note_off_c,9,50,0,
2,1260,Note_off_c,9,51,0,
2,1260,Note_off_c,9,56,0,
2,1260,Note_off_c,9,57,0,
2,1260,Note_off_c,9,59,0,
2,1260,Note_off_c,9,60,0,
2,1260,Note_off_c,9,61,0,
2,1260,Note_off_c,9,63,0,
2,1260,Note_off_c,9,68,0,
2,1260,Note_off_c,9,69,0,
2,1260,Note_off_c,9,70,0,
2,1260,Note_off_c,9,76,0,
2,1260,Note_off_c,9,80,0,
2,1260,Note_off_c,9,81,0,
2,1260,Note_off_c,9,82,0,
2,1260,Note_off_c,9,87,0,
2,1260,Note_off_c,9,88,0,
2,1260,Note_off_c,9,89,0,
2,1260,Note_off_c,9,91,0,
2,1260,Note_off_c,9,93,0,
2,1290,Note_on_c,9,35,7,
2,1290,Note_off_c,9,36,0,
2,1290,Note_off_c,9,37,0,
2,1290,Note_on_c,9,38,3,
2,1290,Note_off_c,9,39,0,
2,1290,Note_off_c,9,40,0,
2,1290,Note_off_c,9,41,0,
2,1290,Note_off_c,9,42,0,
2,1290,Note_off_c,9,43,0,
2,1290,Note_off_c,9,44,0,
2,1290,Note_off_c,9,45,0,
2,1290,Note_off_c,9,46,0,
2,1290,Note_off_c,9,47,0,
2,1290,Note_off_c,9,48,0,
2,1290,Note_off_c,9,49,0,
2,1290,Note_off_c,9,50,0,
2,1290,Note_off_c,9,51,0,
2,1290,Note_off_c,9,56,0,
2,1290,Note_off_c,9,57,0,
2,1290,Note_off_c,9,59,0,
2,1290,Note_off_c,9,60,0,
2,1290,Note_off_c,9,61,0,
2,1290,Note_off_c,9,63,0,
2,1290,Note_off_c,9,68,0,
2,1290,Note_off_c,9,69,0,
2,1290,Note_off_c,9,70,0,
2,1290,Note_off_c,9,76,0,
2,1290,Note_off_c,9,80,0,
2,1290,Note_off_c,9,81,0,
2,1290,Note_off_c,9,82,0,
2,1290,Note_off_c,9,87,0,
2,1290,Note_off_c,9,88,0,
2,1290,Note_off_c,9,89,0,
2,1290,Note_off_c,9,91,0,
2,1290,Note_off_c,9,93,0,
2,1320,Note_on_c,9,35,7,
2,1320,Note_off_c,9,36,0,
2,1320,Note_off_c,9,37,0,
2,1320,Note_on_c,9,38,3,
2,1320,Note_off_c,9,39,0,
2,1320,Note_off_c,9,40,0,
2,1320,Note_off_c,9,41,0,
2,1320,Note_off_c,9,42,0,
2,1320,Note_off_c,9,43,0,
2,1320,Note_off_c,9,44,0,
2,1320,Note_off_c,9,45,0,
2,1320,Note_off_c,9,46,0,
2,1320,Note_off_c,9,47,0,
2,1320,Note_off_c,9,48,0,
2,1320,Note_off_c,9,49,0,
2,1320,Note_off_c,9,50,0,
2,1320,Note_off_c,9,51,0,
2,1320,Note_off_c,9,56,0,
2,1320,Note_off_c,9,57,0,
2,1320,Note_off_c,9,59,0,
2,1320,Note_off_c,9,60,0,
2,1320,Note_off_c,9,61,0,
2,1320,Note_off_c,9,63,0,
2,1320,Note_off_c,9,68,0,
2,1320,Note_off_c,9,69,0,
2,1320,Note_off_c,9,70,0,
2,1320,Note_off_c,9,76,0,
2,1320,Note_off_c,9,80,0,
2,1320,Note_off_c,9,81,0,
2,1320,Note_off_c,9,82,0,
2,1320,Note_off_c,9,87,0,
2,1320,Note_off_c,9,88,0,
2,1320,Note_off_c,9,89,0,
2,1320,Note_off_c,9,91,0,
2,1320,Note_off_c,9,93,0,
2,1350,Note_on_c,9,35,7,
2,1350,Note_off_c,9,36,0,
2,1350,Note_off_c,9,37,0,
2,1350,Note_on_c,9,38,3,
2,1350,Note_off_c,9,39,0,
2,1350,Note_off_c,9,40,0,
2,1350,Note_off_c,9,41,0,
2,1350,Note_off_c,9,42,0,
2,1350,Note_off_c,9,43,0,
2,1350,Note_off_c,9,44,0,
2,1350,Note_off_c,9,45,0,
2,1350,Note_off_c,9,46,0,
2,1350,Note_off_c,9,47,0,
2,1350,Note_off_c,9,48,0,
2,1350,Note_off_c,9,49,0,
2,1350,Note_off_c,9,50,0,
2,1350,Note_off_c,9,51,0,
2,1350,Note_off_c,9,56,0,
2,1350,Note_off_c,9,57,0,
2,1350,Note_off_c,9,59,0,
2,1350,Note_off_c,9,60,0,
2,1350,Note_off_c,9,61,0,
2,1350,Note_off_c,9,63,0,
2,1350,Note_off_c,9,68,0,
2,1350,Note_off_c,9,69,0,
2,1350,Note_off_c,9,70,0,
2,1350,Note_off_c,9,76,0,
2,1350,Note_off_c,9,80,0,
2,1350,Note_off_c,9,81,0,
2,1350,Note_off_c,9,82,0,
2,1350,Note_off_c,9,87,0,
2,1350,Note_off_c,9,88,0,
2,1350,Note_off_c,9,89,0,
2,1350,Note_off_c,9,91,0,
2,1350,Note_off_c,9,93,0,
2,1380,Note_on_c,9,35,7,
2,1380,Note_off_c,9,36,0,
2,1380,Note_off_c,9,37,0,
2,1380,Note_on_c,9,38,3,
2,1380,Note_off_c,9,39,0,
2,1380,Note_off_c,9,40,0,
2,1380,Note_off_c,9,41,0,
2,1380,Note_off_c,9,42,0,
2,1380,Note_off_c,9,43,0,
2,1380,Note_off_c,9,44,0,
2,1380,Note_off_c,9,45,0,
2,1380,Note_off_c,9,46,0,
2,1380,Note_off_c,9,47,0,
2,1380,Note_off_c,9,48,0,
2,1380,Note_off_c,9,49,0,
2,1380,Note_off_c,9,50,0,
2,1380,Note_off_c,9,51,0,
2,1380,Note_off_c,9,56,0,
2,1380,Note_off_c,9,57,0,
2,1380,Note_off_c,9,59,0,
2,1380,Note_off_c,9,60,0,
2,1380,Note_off_c,9,61,0,
2,1380,Note_off_c,9,63,0,
2,1380,Note_off_c,9,68,0,
2,1380,Note_off_c,9,69,0,
2,1380,Note_off_c,9,70,0,
2,1380,Note_off_c,9,76,0,
2,1380,Note_off_c,9,80,0,
2,1380,Note_off_c,9,81,0,
2,1380,Note_off_c,9,82,0,
2,1380,Note_off_c,9,87,0,
2,1380,Note_off_c,9,88,0,
2,1380,Note_off_c,9,89,0,
2,1380,Note_off_c,9,91,0,
2,1380,Note_off_c,9,93,0,
2,1410,Note_on_c,9,35,7,
2,1410,Note_off_c,9,36,0,
2,1410,Note_off_c,9,37,0,
2,1410,Note_on_c,9,38,3,
2,1410,Note_off_c,9,39,0,
2,1410,Note_off_c,9,40,0,
2,1410,Note_off_c,9,41,0,
2,1410,Note_off_c,9,42,0,
2,1410,Note_off_c,9,43,0,
2,1410,Note_off_c,9,44,0,
2,1410,Note_off_c,9,45,0,
2,1410,Note_off_c,9,46,0,
2,1410,Note_off_c,9,47,0,
2,1410,Note_off_c,9,48,0,
2,1410,Note_off_c,9,49,0,
2,1410,Note_off_c,9,50,0,
2,1410,Note_off_c,9,51,0,
2,1410,Note_off_c,9,56,0,
2,1410,Note_off_c,9,57,0,
2,1410,Note_off_c,9,59,0,
2,1410,Note_off_c,9,60,0,
2,1410,Note_off_c,9,61,0,
2,1410,Note_off_c,9,63,0,
2,1410,Note_off_c,9,68,0,
2,1410,Note_off_c,9,69,0,
2,1410,Note_off_c,9,70,0,
2,1410,Note_off_c,9,76,0,
2,1410,Note_off_c,9,80,0,
2,1410,Note_off_c,9,81,0,
2,1410,Note_off_c,9,82,0,
2,1410,Note_off_c,9,87,0,
2,1410,Note_off_c,9,88,0,
2,1410,Note_off_c,9,89,0,
2,1410,Note_off_c,9,91,0,
2,1410,Note_off_c,9,93,0,
2,1440,Note_on_c,9,35,7,
2,1440,Note_off_c,9,36,0,
2,1440,Note_off_c,9,37,0,
2,1440,Note_on_c,9,38,3,
2,1440,Note_off_c,9,39,0,
2,1440,Note_off_c,9,40,0,
2,1440,Note_off_c,9,41,0,
2,1440,Note_off_c,9,42,0,
2,1440,Note_off_c,9,43,0,
2,1440,Note_off_c,9,44,0,
2,1440,Note_off_c,9,45,0,
2,1440,Note_off_c,9,46,0,
2,1440,Note_off_c,9,47,0,
2,1440,Note_off_c,9,48,0,
2,1440,Note_off_c,9,49,0,
2,1440,Note_off_c,9,50,0,
2,1440,Note_off_c,9,51,0,
2,1440,Note_off_c,9,56,0,
2,1440,Note_off_c,9,57,0,
2,1440,Note_off_c,9,59,0,
2,1440,Note_off_c,9,60,0,
2,1440,Note_off_c,9,61,0,
2,1440,Note_off_c,9,63,0,
2,1440,Note_off_c,9,68,0,
2,1440,Note_off_c,9,69,0,
2,1440,Note_off_c,9,70,0,
2,1440,Note_off_c,9,76,0,
2,1440,Note_off_c,9,80,0,
2,1440,Note_off_c,9,81,0,
2,1440,Note_off_c,9,82,0,
2,1440,Note_off_c,9,87,0,
2,1440,Note_off_c,9,88,0,
2,1440,Note_off_c,9,89,0,
2,1440,Note_off_c,9,91,0,
2,1440,Note_off_c,9,93,0,
2,1470,Note_on_c,9,35,7,
2,1470,Note_off_c,9,36,0,
2,1470,Note_off_c,9,37,0,
2,1470,Note_on_c,9,38,3,
2,1470,Note_off_c,9,39,0,
2,1470,Note_off_c,9,40,0,
2,1470,Note_off_c,9,41,0,
2,1470,Note_off_c,9,42,0,
2,1470,Note_off_c,9,43,0,
2,1470,Note_off_c,9,44,0,
2,1470,Note_off_c,9,45,0,
2,1470,Note_off_c,9,46,0,
2,1470,Note_off_c,9,47,0,
2,1470,Note_off_c,9,48,0,
2,1470,Note_off_c,9,49,0,
2,1470,Note_off_c,9,50,0,
2,1470,Note_off_c,9,51,0,
2,1470,Note_off_c,9,56,0,
2,1470,Note_off_c,9,57,0,
2,1470,Note_off_c,9,59,0,
2,1470,Note_off_c,9,60,0,
2,1470,Note_off_c,9,61,0,
2,1470,Note_off_c,9,63,0,
2,1470,Note_off_c,9,68,0,
2,1470,Note_off_c,9,69,0,
2,1470,Note_off_c,9,70,0,
2,1470,Note_off_c,9,76,0,
2,1470,Note_off_c,9,80,0,
2,1470,Note_off_c,9,81,0,
2,1470,Note_off_c,9,82,0,
2,1470,Note_off_c,9,87,0,
2,1470,Note_off_c,9,88,0,
2,1470,Note_off_c,9,89,0,
2,1470,Note_off_c,9,91,0,
2,1470,Note_off_c,9,93,0,
2,1500,Note_on_c,9,35,7,
2,1500,Note_off_c,9,36,0,
2,1500,Note_off_c,9,37,0,
2,1500,Note_on_c,9,38,3,
2,1500,Note_off_c,9,39,0,
2,1500,Note_off_c,9,40,0,
2,1500,Note_off_c,9,41,0,
2,1500,Note_off_c,9,42,0,
2,1500,Note_off_c,9,43,0,
2,1500,Note_off_c,9,44,0,
2,1500,Note_off_c,9,45,0,
2,1500,Note_off_c,9,46,0,
2,1500,Note_off_c,9,47,0,
2,1500,Note_off_c,9,48,0,
2,1500,Note_off_c,9,49,0,
2,1500,Note_off_c,9,50,0,
2,1500,Note_off_c,9,51,0,
2,1500,Note_off_c,9,56,0,
2,1500,Note_off_c,9,57,0,
2,1500,Note_off_c,9,59,0,
2,1500,Note_off_c,9,60,0,
2,1500,Note_off_c,9,61,0,
2,1500,Note_off_c,9,63,0,
2,1500,Note_off_c,9,68,0,
2,1500,Note_off_c,9,69,0,
2,1500,Note_off_c,9,70,0,
2,1500,Note_off_c,9,76,0,
2,1500,Note_off_c,9,80,0,
2,1500,Note_off_c,9,81,0,
2,1500,Note_off_c,9,82,0,
2,1500,Note_off_c,9,87,0,
2,1500,Note_off_c,9,88,0,
2,1500,Note_off_c,9,89,0,
2,1500,Note_off_c,9,91,0,
2,1500,Note_off_c,9,93,0,
2,1530,Note_on_c,9,35,7,
2,1530,Note_off_c,9,36,0,
2,1530,Note_off_c,9,37,0,
2,1530,Note_on_c,9,38,3,
2,1530,Note_off_c,9,39,0,
2,1530,Note_off_c,9,40,0,
2,1530,Note_off_c,9,41,0,
2,1530,Note_off_c,9,42,0,
2,1530,Note_off_c,9,43,0,
2,1530,Note_off_c,9,44,0,
2,1530,Note_off_c,9,45,0,
2,1530,Note_off_c,9,46,0,
2,1530,Note_off_c,9,47,0,
2,1530,Note_off_c,9,48,0,
2,1530,Note_off_c,9,49,0,
2,1530,Note_off_c,9,50,0,
2,1530,Note_off_c,9,51,0,
2,1530,Note_off_c,9,56,0,
2,1530,Note_off_c,9,57,0,
2,1530,Note_off_c,9,59,0,
2,1530,Note_off_c,9,60,0,
2,1530,Note_off_c,9,61,0,
2,1530,Note_off_c,9,63,0,
2,1530,Note_off_c,9,68,0,
2,1530,Note_off_c,9,69,0,
2,1530,Note_off_c,9,70,0,
2,1530,Note_off_c,9,76,0,
2,1530,Note_off_c,9,80,0,
2,1530,Note_off_c,9,81,0,
2,1530,Note_off_c,9,82,0,
2,1530,Note_off_c,9,87,0,
2,1530,Note_off_c,9,88,0,
2,1530,Note_off_c,9,89,0,
2,1530,Note_off_c,9,91,0,
2,1530,Note_off_c,9,93,0,
2,1560,Note_on_c,9,35,7,
2,1560,Note_off_c,9,36,0,
2,1560,Note_off_c,9,37,0,
2,1560,Note_on_c,9,38,3,
2,1560,Note_off_c,9,39,0,
2,1560,Note_off_c,9,40,0,
2,1560,Note_off_c,9,41,0,
2,1560,Note_off_c,9,42,0,
2,1560,Note_off_c,9,43,0,
2,1560,Note_off_c,9,44,0,
2,1560,Note_off_c,9,45,0,
2,1560,Note_off_c,9,46,0,
2,1560,Note_off_c,9,47,0,
2,1560,Note_off_c,9,48,0,
2,1560,Note_off_c,9,49,0,
2,1560,Note_off_c,9,50,0,
2,1560,Note_off_c,9,51,0,
2,1560,Note_off_c,9,56,0,
2,1560,Note_off_c,9,57,0,
2,1560,Note_off_c,9,59,0,
2,1560,Note_off_c,9,60,0,
2,1560,Note_off_c,9,61,0,
2,1560,Note_off_c,9,63,0,
2,1560,Note_off_c,9,68,0,
2,1560,Note_off_c,9,69,0,
2,1560,Note_off_c,9,70,0,
2,1560,Note_off_c,9,76,0,
2,1560,Note_off_c,9,80,0,
2,1560,Note_off_c,9,81,0,
2,1560,Note_off_c,9,82,0,
2,1560,Note_off_c,9,87,0,
2,1560,Note_off_c,9,88,0,
2,1560,Note_off_c,9,89,0,
2,1560,Note_off_c,9,91,0,
2,1560,Note_off_c,9,93,0,
2,1590,Note_on_c,9,35,7,
2,1590,Note_off_c,9,36,0,
2,1590,Note_off_c,9,37,0,
2,1590,Note_on_c,9,38,3,
2,1590,Note_off_c,9,39,0,
2,1590,Note_off_c,9,40,0,
2,1590,Note_off_c,9,41,0,
2,1590,Note_off_c,9,42,0,
2,1590,Note_off_c,9,43,0,
2,1590,Note_off_c,9,44,0,
2,1590,Note_off_c,9,45,0,
2,1590,Note_off_c,9,46,0,
2,1590,Note_off_c,9,47,0,
2,1590,Note_off_c,9,48,0,
2,1590,Note_off_c,9,49,0,
2,1590,Note_off_c,9,50,0,
2,1590,Note_off_c,9,51,0,
2,1590,Note_off_c,9,56,0,
2,1590,Note_off_c,9,57,0,
2,1590,Note_off_c,9,59,0,
2,1590,Note_off_c,9,60,0,
2,1590,Note_off_c,9,61,0,
2,1590,Note_off_c,9,63,0,
2,1590,Note_off_c,9,68,0,
2,1590,Note_off_c,9,69,0,
2,1590,Note_off_c,9,70,0,
2,1590,Note_off_c,9,76,0,
2,1590,Note_off_c,9,80,0,
2,1590,Note_off_c,9,81,0,
2,1590,Note_off_c,9,82,0,
2,1590,Note_off_c,9,87,0,
2,1590,Note_off_c,9,88,0,
2,1590,Note_off_c,9,89,0,
2,1590,Note_off_c,9,91,0,
2,1590,Note_off_c,9,93,0,
2,1620,Note_on_c,9,35,7,
2,1620,Note_off_c,9,36,0,
2,1620,Note_off_c,9,37,0,
2,1620,Note_on_c,9,38,3,
2,1620,Note_off_c,9,39,0,
2,1620,Note_off_c,9,40,0,
2,1620,Note_off_c,9,41,0,
2,1620,Note_off_c,9,42,0,
2,1620,Note_off_c,9,43,0,
2,1620,Note_off_c,9,44,0,
2,1620,Note_off_c,9,45,0,
2,1620,Note_off_c,9,46,0,
2,1620,Note_off_c,9,47,0,
2,1620,Note_off_c,9,48,0,
2,1620,Note_off_c,9,49,0,
2,1620,Note_off_c,9,50,0,
2,1620,Note_off_c,9,51,0,
2,1620,Note_off_c,9,56,0,
2,1620,Note_off_c,9,57,0,
2,1620,Note_off_c,9,59,0,
2,1620,Note_off_c,9,60,0,
2,1620,Note_off_c,9,61,0,
2,1620,Note_off_c,9,63,0,
2,1620,Note_off_c,9,68,0,
2,1620,Note_off_c,9,69,0,
2,1620,Note_off_c,9,70,0,
2,1620,Note_off_c,9,76,0,
2,1620,Note_off_c,9,80,0,
2,1620,Note_off_c,9,81,0,
2,1620,Note_off_c,9,82,0,
2,1620,Note_off_c,9,87,0,
2,1620,Note_off_c,9,88,0,
2,1620,Note_off_c,9,89,0,
2,1620,Note_off_c,9,91,0,
2,1620,Note_off_c,9,93,0,
2,1650,Note_on_c,9,35,7,
2,1650,Note_off_c,9,36,0,
2,1650,Note_off_c,9,37,0,
2,1650,Note_on_c,9,38,3,
2,1650,Note_off_c,9,39,0,
2,1650,Note_off_c,9,40,0,
2,1650,Note_off_c,9,41,0,
2,1650,Note_off_c,9,42,0,
2,1650,Note_off_c,9,43,0,
2,1650,Note_off_c,9,44,0,
2,1650,Note_off_c,9,45,0,
2,1650,Note_off_c,9,46,0,
2,1650,Note_off_c,9,47,0,
2,1650,Note_off_c,9,48,0,
2,1650,Note_off_c,9,49,0,
2,1650,Note_off_c,9,50,0,
2,1650,Note_off_c,9,51,0,
2,1650,Note_off_c,9,56,0,
2,1650,Note_off_c,9,57,0,
2,1650,Note_off_c,9,59,0,
2,1650,Note_off_c,9,60,0,
2,1650,Note_off_c,9,61,0,
2,1650,Note_off_c,9,63,0,
2,1650,Note_off_c,9,68,0,
2,1650,Note_off_c,9,69,0,
2,1650,Note_off_c,9,70,0,
2,1650,Note_off_c,9,76,0,
2,1650,Note_off_c,9,80,0,
2,1650,Note_off_c,9,81,0,
2,1650,Note_off_c,9,82,0,
2,1650,Note_off_c,9,87,0,
2,1650,Note_off_c,9,88,0,
2,1650,Note_off_c,9,89,0,
2,1650,Note_off_c,9,91,0,
2,1650,Note_off_c,9,93,0,
2,1680,Note_on_c,9,35,7,
2,1680,Note_off_c,9,36,0,
2,1680,Note_off_c,9,37,0,
2,1680,Note_on_c,9,38,3,
2,1680,Note_off_c,9,39,0,
2,1680,Note_off_c,9,40,0,
2,1680,Note_off_c,9,41,0,
2,1680,Note_off_c,9,42,0,
2,1680,Note_off_c,9,43,0,
2,1680,Note_off_c,9,44,0,
2,1680,Note_off_c,9,45,0,
2,1680,Note_off_c,9,46,0,
2,1680,Note_off_c,9,47,0,
2,1680,Note_off_c,9,48,0,
2,1680,Note_off_c,9,49,0,
2,1680,Note_off_c,9,50,0,
2,1680,Note_off_c,9,51,0,
2,1680,Note_off_c,9,56,0,
2,1680,Note_off_c,9,57,0,
2,1680,Note_off_c,9,59,0,
2,1680,Note_off_c,9,60,0,
2,1680,Note_off_c,9,61,0,
2,1680,Note_off_c,9,63,0,
2,1680,Note_off_c,9,68,0,
2,1680,Note_off_c,9,69,0,
2,1680,Note_off_c,9,70,0,
2,1680,Note_off_c,9,76,0,
2,1680,Note_off_c,9,80,0,
2,1680,Note_off_c,9,81,0,
2,1680,Note_off_c,9,82,0,
2,1680,Note_off_c,9,87,0,
2,1680,Note_off_c,9,88,0,
2,1680,Note_off_c,9,89,0,
2,1680,Note_off_c,9,91,0,
2,1680,Note_off_c,9,93,0,
2,1710,Note_on_c,9,35,7,
2,1710,Note_off_c,9,36,0,
2,1710,Note_off_c,9,37,0,
2,1710,Note_on_c,9,38,3,
2,1710,Note_off_c,9,39,0,
2,1710,Note_off_c,9,40,0,
2,1710,Note_off_c,9,41,0,
2,1710,Note_off_c,9,42,0,
2,1710,Note_off_c,9,43,0,
2,1710,Note_off_c,9,44,0,
2,1710,Note_off_c,9,45,0,
2,1710,Note_off_c,9,46,0,
2,1710,Note_off_c,9,47,0,
2,1710,Note_off_c,9,48,0,
2,1710,Note_off_c,9,49,0,
2,1710,Note_off_c,9,50,0,
2,1710,Note_off_c,9,51,0,
2,1710,Note_off_c,9,56,0,
2,1710,Note_off_c,9,57,0,
2,1710,Note_off_c,9,59,0,
2,1710,Note_off_c,9,60,0,
2,1710,Note_off_c,9,61,0,
2,1710,Note_off_c,9,63,0,
2,1710,Note_off_c,9,68,0,
2,1710,Note_off_c,9,69,0,
2,1710,Note_off_c,9,70,0,
2,1710,Note_off_c,9,76,0,
2,1710,Note_off_c,9,80,0,
2,1710,Note_off_c,9,81,0,
2,1710,Note_off_c,9,82,0,
2,1710,Note_off_c,9,87,0,
2,1710,Note_off_c,9,88,0,
2,1710,Note_off_c,9,89,0,
2,1710,Note_off_c,9,91,0,
2,1710,Note_off_c,9,93,0,
2,1740,Note_on_c,9,35,7,
2,1740,Note_off_c,9,36,0,
2,1740,Note_off_c,9,37,0,
2,1740,Note_on_c,9,38,3,
2,1740,Note_off_c,9,39,0,
2,1740,Note_off_c,9,40,0,
2,1740,Note_off_c,9,41,0,
2,1740,Note_off_c,9,42,0,
2,1740,Note_off_c,9,43,0,
2,1740,Note_off_c,9,44,0,
2,1740,Note_off_c,9,45,0,
2,1740,Note_off_c,9,46,0,
2,1740,Note_off_c,9,47,0,
2,1740,Note_off_c,9,48,0,
2,1740,Note_off_c,9,49,0,
2,1740,Note_off_c,9,50,0,
2,1740,Note_off_c,9,51,0,
2,1740,Note_off_c,9,56,0,
2,1740,Note_off_c,9,57,0,
2,1740,Note_off_c,9,59,0,
2,1740,Note_off_c,9,60,0,
2,1740,Note_off_c,9,61,0,
2,1740,Note_off_c,9,63,0,
2,1740,Note_off_c,9,68,0,
2,1740,Note_off_c,9,69,0,
2,1740,Note_off_c,9,70,0,
2,1740,Note_off_c,9,76,0,
2,1740,Note_off_c,9,80,0,
2,1740,Note_off_c,9,81,0,
2,1740,Note_off_c,9,82,0,
2,1740,Note_off_c,9,87,0,
2,1740,Note_off_c,9,88,0,
2,1740,Note_off_c,9,89,0,
2,1740,Note_off_c,9,91,0,
2,1740,Note_off_c,9,93,0,
2,1770,Note_on_c,9,35,7,
2,1770,Note_off_c,9,36,0,
2,1770,Note_off_c,9,37,0,
2,1770,Note_on_c,9,38,3,
2,1770,Note_off_c,9,39,0,
2,1770,Note_off_c,9,40,0,
2,1770,Note_off_c,9,41,0,
2,1770,Note_off_c,9,42,0,
2,1770,Note_off_c,9,43,0,
2,1770,Note_off_c,9,44,0,
2,1770,Note_off_c,9,45,0,
2,1770,Note_off_c,9,46,0,
2,1770,Note_off_c,9,47,0,
2,1770,Note_off_c,9,48,0,
2,1770,Note_off_c,9,49,0,
2,1770,Note_off_c,9,50,0,
2,1770,Note_off_c,9,51,0,
2,1770,Note_off_c,9,56,0,
2,1770,Note_off_c,9,57,0,
2,1770,Note_off_c,9,59,0,
2,1770,Note_off_c,9,60,0,
2,1770,Note_off_c,9,61,0,
2,1770,Note_off_c,9,63,0,
2,1770,Note_off_c,9,68,0,
2,1770,Note_off_c,9,69,0,
2,1770,Note_off_c,9,70,0,
2,1770,Note_off_c,9,76,0,
2,1770,Note_off_c,9,80,0,
2,1770,Note_off_c,9,81,0,
2,1770,Note_off_c,9,82,0,
2,1770,Note_off_c,9,87,0,
2,1770,Note_off_c,9,88,0,
2,1770,Note_off_c,9,89,0,
2,1770,Note_off_c,9,91,0,
2,1770,Note_off_c,9,93,0,
2,1800,Note_on_c,9,35,7,
2,1800,Note_off_c,9,36,0,
2,1800,Note_off_c,9,37,0,
2,1800,Note_on_c,9,38,3,
2,1800,Note_off_c,9,39,0,
2,1800,Note_off_c,9,40,0,
2,1800,Note_off_c,9,41,0,
2,1800,Note_off_c,9,42,0,
2,1800,Note_off_c,9,43,0,
2,1800,Note_off_c,9,44,0,
2,1800,Note_off_c,9,45,0,
2,1800,Note_off_c,9,46,0,
2,1800,Note_off_c,9,47,0,
2,1800,Note_off_c,9,48,0,
2,1800,Note_off_c,9,49,0,
2,1800,Note_off_c,9,50,0,
2,1800,Note_off_c,9,51,0,
2,1800,Note_off_c,9,56,0,
2,1800,Note_off_c,9,57,0,
2,1800,Note_off_c,9,59,0,
2,1800,Note_off_c,9,60,0,
2,1800,Note_off_c,9,61,0,
2,1800,Note_off_c,9,63,0,
2,1800,Note_off_c,9,68,0,
2,1800,Note_off_c,9,69,0,
2,1800,Note_off_c,9,70,0,
2,1800,Note_off_c,9,76,0,
2,1800,Note_off_c,9,80,0,
2,1800,Note_off_c,9,81,0,
2,1800,Note_off_c,9,82,0,
2,1800,Note_off_c,9,87,0,
2,1800,Note_off_c,9,88,0,
2,1800,Note_off_c,9,89,0,
2,1800,Note_off_c,9,91,0,
2,1800,Note_off_c,9,93,0,
2,1830,Note_on_c,9,35,7,
2,1830,Note_off_c,9,36,0,
2,1830,Note_off_c,9,37,0,
2,1830,Note_on_c,9,38,3,
2,1830,Note_off_c,9,39,0,
2,1830,Note_off_c,9,40,0,
2,1830,Note_off_c,9,41,0,
2,1830,Note_off_c,9,42,0,
2,1830,Note_off_c,9,43,0,
2,1830,Note_off_c,9,44,0,
2,1830,Note_off_c,9,45,0,
2,1830,Note_off_c,9,46,0,
2,1830,Note_off_c,9,47,0,
2,1830,Note_off_c,9,48,0,
2,1830,Note_off_c,9,49,0,
2,1830,Note_off_c,9,50,0,
2,1830,Note_off_c,9,51,0,
2,1830,Note_off_c,9,56,0,
2,1830,Note_off_c,9,57,0,
2,1830,Note_off_c,9,59,0,
2,1830,Note_off_c,9,60,0,
2,1830,Note_off_c,9,61,0,
2,1830,Note_off_c,9,63,0,
2,1830,Note_off_c,9,68,0,
2,1830,Note_off_c,9,69,0,
2,1830,Note_off_c,9,70,0,
2,1830,Note_off_c,9,76,0,
2,1830,Note_off_c,9,80,0,
2,1830,Note_off_c,9,81,0,
2,1830,Note_off_c,9,82,0,
2,1830,Note_off_c,9,87,0,
2,1830,Note_off_c,9,88,0,
2,1830,Note_off_c,9,89,0,
2,1830,Note_off_c,9,91,0,
2,1830,Note_off_c,9,93,0,
2,1860,Note_on_c,9,35,7,
2,1860,Note_off_c,9,36,0,
2,1860,Note_off_c,9,37,0,
2,1860,Note_on_c,9,38,3,
2,1860,Note_off_c,9,39,0,
2,1860,Note_off_c,9,40,0,
2,1860,Note_off_c,9,41,0,
2,1860,Note_off_c,9,42,0,
2,1860,Note_off_c,9,43,0,
2,1860,Note_off_c,9,44,0,
2,1860,Note_off_c,9,45,0,
2,1860,Note_off_c,9,46,0,
2,1860,Note_off_c,9,47,0,
2,1860,Note_off_c,9,48,0,
2,1860,Note_off_c,9,49,0,
2,1860,Note_off_c,9,50,0,
2,1860,Note_off_c,9,51,0,
2,1860,Note_off_c,9,56,0,
2,1860,Note_off_c,9,57,0,
2,1860,Note_off_c,9,59,0,
2,1860,Note_off_c,9,60,0,
2,1860,Note_off_c,9,61,0,
2,1860,Note_off_c,9,63,0,
2,1860,Note_off_c,9,68,0,
2,1860,Note_off_c,9,69,0,
2,1860,Note_off_c,9,70,0,
2,1860,Note_off_c,9,76,0,
2,1860,Note_off_c,9,80,0,
2,1860,Note_off_c,9,81,0,
2,1860,Note_off_c,9,82,0,
2,1860,Note_off_c,9,87,0,
2,1860,Note_off_c,9,88,0,
2,1860,Note_off_c,9,89,0,
2,1860,Note_off_c,9,91,0,
2,1860,Note_off_c,9,93,0,
2,1890,Note_on_c,9,35,7,
2,1890,Note_off_c,9,36,0,
2,1890,Note_off_c,9,37,0,
2,1890,Note_on_c,9,38,3,
2,1890,Note_off_c,9,39,0,
2,1890,Note_off_c,9,40,0,
2,1890,Note_off_c,9,41,0,
2,1890,Note_off_c,9,42,0,
2,1890,Note_off_c,9,43,0,
2,1890,Note_off_c,9,44,0,
2,1890,Note_off_c,9,45,0,
2,1890,Note_off_c,9,46,0,
2,1890,Note_off_c,9,47,0,
2,1890,Note_off_c,9,48,0,
2,1890,Note_off_c,9,49,0,
2,1890,Note_off_c,9,50,0,
2,1890,Note_off_c,9,51,0,
2,1890,Note_off_c,9,56,0,
2,1890,Note_off_c,9,57,0,
2,1890,Note_off_c,9,59,0,
2,1890,Note_off_c,9,60,0,
2,1890,Note_off_c,9,61,0,
2,1890,Note_off_c,9,63,0,
2,1890,Note_off_c,9,68,0,
2,1890,Note_off_c,9,69,0,
2,1890,Note_off_c,9,70,0,
2,1890,Note_off_c,9,76,0,
2,1890,Note_off_c,9,80,0,
2,1890,Note_off_c,9,81,0,
2,1890,Note_off_c,9,82,0,
2,1890,Note_off_c,9,87,0,
2,1890,Note_off_c,9,88,0,
2,1890,Note_off_c,9,89,0,
2,1890,Note_off_c,9,91,0,
2,1890,Note_off_c,9,93,0,
2,1920,Note_on_c,9,35,7,
2,1920,Note_off_c,9,36,0,
2,1920,Note_off_c,9,37,0,
2,1920,Note_on_c,9,38,3,
2,1920,Note_off_c,9,39,0,
2,1920,Note_off_c,9,40,0,
2,1920,Note_off_c,9,41,0,
2,1920,Note_off_c,9,42,0,
2,1920,Note_off_c,9,43,0,
2,1920,Note_off_c,9,44,0,
2,1920,Note_off_c,9,45,0,
2,1920,Note_off_c,9,46,0,
2,1920,Note_off_c,9,47,0,
2,1920,Note_off_c,9,48,0,
2,1920,Note_off_c,9,49,0,
2,1920,Note_off_c,9,50,0,
2,1920,Note_off_c,9,51,0,
2,1920,Note_off_c,9,56,0,
2,1920,Note_off_c,9,57,0,
2,1920,Note_off_c,9,59,0,
2,1920,Note_off_c,9,60,0,
2,1920,Note_off_c,9,61,0,
2,1920,Note_off_c,9,63,0,
2,1920,Note_off_c,9,68,0,
2,1920,Note_off_c,9,69,0,
2,1920,Note_off_c,9,70,0,
2,1920,Note_off_c,9,76,0,
2,1920,Note_off_c,9,80,0,
2,1920,Note_off_c,9,81,0,
2,1920,Note_off_c,9,82,0,
2,1920,Note_off_c,9,87,0,
2,1920,Note_off_c,9,88,0,
2,1920,Note_off_c,9,89,0,
2,1920,Note_off_c,9,91,0,
2,1920,Note_off_c,9,93,0,
2,1950,Note_on_c,9,35,7,
2,1950,Note_off_c,9,36,0,
2,1950,Note_off_c,9,37,0,
2,1950,Note_on_c,9,38,3,
2,1950,Note_off_c,9,39,0,
2,1950,Note_off_c,9,40,0,
2,1950,Note_off_c,9,41,0,
2,1950,Note_off_c,9,42,0,
2,1950,Note_off_c,9,43,0,
2,1950,Note_off_c,9,44,0,
2,1950,Note_off_c,9,45,0,
2,1950,Note_off_c,9,46,0,
2,1950,Note_off_c,9,47,0,
2,1950,Note_off_c,9,48,0,
2,1950,Note_off_c,9,49,0,
2,1950,Note_off_c,9,50,0,
2,1950,Note_off_c,9,51,0,
2,1950,Note_off_c,9,56,0,
2,1950,Note_off_c,9,57,0,
2,1950,Note_off_c,9,59,0,
2,1950,Note_off_c,9,60,0,
2,1950,Note_off_c,9,61,0,
2,1950,Note_off_c,9,63,0,
2,1950,Note_off_c,9,68,0,
2,1950,Note_off_c,9,69,0,
2,1950,Note_off_c,9,70,0,
2,1950,Note_off_c,9,76,0,
2,1950,Note_off_c,9,80,0,
2,1950,Note_off_c,9,81,0,
2,1950,Note_off_c,9,82,0,
2,1950,Note_off_c,9,87,0,
2,1950,Note_off_c,9,88,0,
2,1950,Note_off_c,9,89,0,
2,1950,Note_off_c,9,91,0,
2,1950,Note_off_c,9,93,0,
2,1980,Note_on_c,9,35,7,
2,1980,Note_off_c,9,36,0,
2,1980,Note_off_c,9,37,0,
2,1980,Note_on_c,9,38,3,
2,1980,Note_off_c,9,39,0,
2,1980,Note_off_c,9,40,0,
2,1980,Note_off_c,9,41,0,
2,1980,Note_off_c,9,42,0,
2,1980,Note_off_c,9,43,0,
2,1980,Note_off_c,9,44,0,
2,1980,Note_off_c,9,45,0,
2,1980,Note_off_c,9,46,0,
2,1980,Note_off_c,9,47,0,
2,1980,Note_off_c,9,48,0,
2,1980,Note_off_c,9,49,0,
2,1980,Note_off_c,9,50,0,
2,1980,Note_off_c,9,51,0,
2,1980,Note_off_c,9,56,0,
2,1980,Note_off_c,9,57,0,
2,1980,Note_off_c,9,59,0,
2,1980,Note_off_c,9,60,0,
2,1980,Note_off_c,9,61,0,
2,1980,Note_off_c,9,63,0,
2,1980,Note_off_c,9,68,0,
2,1980,Note_off_c,9,69,0,
2,1980,Note_off_c,9,70,0,
2,1980,Note_off_c,9,76,0,
2,1980,Note_off_c,9,80,0,
2,1980,Note_off_c,9,81,0,
2,1980,Note_off_c,9,82,0,
2,1980,Note_off_c,9,87,0,
2,1980,Note_off_c,9,88,0,
2,1980,Note_off_c,9,89,0,
2,1980,Note_off_c,9,91,0,
2,1980,Note_off_c,9,93,0,
2,2010,Note_on_c,9,35,7,
2,2010,Note_off_c,9,36,0,
2,2010,Note_off_c,9,37,0,
2,2010,Note_on_c,9,38,3,
2,2010,Note_off_c,9,39,0,
2,2010,Note_off_c,9,40,0,
2,2010,Note_off_c,9,41,0,
2,2010,Note_off_c,9,42,0,
2,2010,Note_off_c,9,43,0,
2,2010,Note_off_c,9,44,0,
2,2010,Note_off_c,9,45,0,
2,2010,Note_off_c,9,46,0,
2,2010,Note_off_c,9,47,0,
2,2010,Note_off_c,9,48,0,
2,2010,Note_off_c,9,49,0,
2,2010,Note_off_c,9,50,0,
2,2010,Note_off_c,9,51,0,
2,2010,Note_off_c,9,56,0,
2,2010,Note_off_c,9,57,0,
2,2010,Note_off_c,9,59,0,
2,2010,Note_off_c,9,60,0,
2,2010,Note_off_c,9,61,0,
2,2010,Note_off_c,9,63,0,
2,2010,Note_off_c,9,68,0,
2,2010,Note_off_c,9,69,0,
2,2010,Note_off_c,9,70,0,
2,2010,Note_off_c,9,76,0,
2,2010,Note_off_c,9,80,0,
2,2010,Note_off_c,9,81,0,
2,2010,Note_off_c,9,82,0,
2,2010,Note_off_c,9,87,0,
2,2010,Note_off_c,9,88,0,
2,2010,Note_off_c,9,89,0,
2,2010,Note_off_c,9,91,0,
2,2010,Note_off_c,9,93,0,
2,2040,Note_on_c,9,35,7,
2,2040,Note_off_c,9,36,0,
2,2040,Note_off_c,9,37,0,
2,2040,Note_on_c,9,38,3,
2,2040,Note_off_c,9,39,0,
2,2040,Note_off_c,9,40,0,
2,2040,Note_off_c,9,41,0,
2,2040,Note_off_c,9,42,0,
2,2040,Note_off_c,9,43,0,
2,2040,Note_off_c,9,44,0,
2,2040,Note_off_c,9,45,0,
2,2040,Note_off_c,9,46,0,
2,2040,Note_off_c,9,47,0,
2,2040,Note_off_c,9,48,0,
2,2040,Note_off_c,9,49,0,
2,2040,Note_off_c,9,50,0,
2,2040,Note_off_c,9,51,0,
2,2040,Note_off_c,9,56,0,
2,2040,Note_off_c,9,57,0,
2,2040,Note_off_c,9,59,0,
2,2040,Note_off_c,9,60,0,
2,2040,Note_off_c,9,61,0,
2,2040,Note_off_c,9,63,0,
2,2040,Note_off_c,9,68,0,
2,2040,Note_off_c,9,69,0,
2,2040,Note_off_c,9,70,0,
2,2040,Note_off_c,9,76,0,
2,2040,Note_off_c,9,80,0,
2,2040,Note_off_c,9,81,0,
2,2040,Note_off_c,9,82,0,
2,2040,Note_off_c,9,87,0,
2,2040,Note_off_c,9,88,0,
2,2040,Note_off_c,9,89,0,
2,2040,Note_off_c,9,91,0,
2,2040,Note_off_c,9,93,0,
2,2070,Note_on_c,9,35,7,
2,2070,Note_off_c,9,36,0,
2,2070,Note_off_c,9,37,0,
2,2070,Note_on_c,9,38,3,
2,2070,Note_off_c,9,39,0,
2,2070,Note_off_c,9,40,0,
2,2070,Note_off_c,9,41,0,
2,2070,Note_off_c,9,42,0,
2,2070,Note_off_c,9,43,0,
2,2070,Note_off_c,9,44,0,
2,2070,Note_off_c,9,45,0,
2,2070,Note_off_c,9,46,0,
2,2070,Note_off_c,9,47,0,
2,2070,Note_off_c,9,48,0,
2,2070,Note_off_c,9,49,0,
2,2070,Note_off_c,9,50,0,
2,2070,Note_off_c,9,51,0,
2,2070,Note_off_c,9,56,0,
2,2070,Note_off_c,9,57,0,
2,2070,Note_off_c,9,59,0,
2,2070,Note_off_c,9,60,0,
2,2070,Note_off_c,9,61,0,
2,2070,Note_off_c,9,63,0,
2,2070,Note_off_c,9,68,0,
2,2070,Note_off_c,9,69,0,
2,2070,Note_off_c,9,70,0,
2,2070,Note_off_c,9,76,0,
2,2070,Note_off_c,9,80,0,
2,2070,Note_off_c,9,81,0,
2,2070,Note_off_c,9,82,0,
2,2070,Note_off_c,9,87,0,
2,2070,Note_off_c,9,88,0,
2,2070,Note_off_c,9,89,0,
2,2070,Note_off_c,9,91,0,
2,2070,Note_off_c,9,93,0,
2,2100,Note_on_c,9,35,7,
2,2100,Note_off_c,9,36,0,
2,2100,Note_off_c,9,37,0,
2,2100,Note_on_c,9,38,3,
2,2100,Note_off_c,9,39,0,
2,2100,Note_off_c,9,40,0,
2,2100,Note_off_c,9,41,0,
2,2100,Note_off_c,9,42,0,
2,2100,Note_off_c,9,43,0,
2,2100,Note_off_c,9,44,0,
2,2100,Note_off_c,9,45,0,
2,2100,Note_off_c,9,46,0,
2,2100,Note_off_c,9,47,0,
2,2100,Note_off_c,9,48,0,
2,2100,Note_off_c,9,49,0,
2,2100,Note_off_c,9,50,0,
2,2100,Note_off_c,9,51,0,
2,2100,Note_off_c,9,56,0,
2,2100,Note_off_c,9,57,0,
2,2100,Note_off_c,9,59,0,
2,2100,Note_off_c,9,60,0,
2,2100,Note_off_c,9,61,0,
2,2100,Note_off_c,9,63,0,
2,2100,Note_off_c,9,68,0,
2,2100,Note_off_c,9,69,0,
2,2100,Note_off_c,9,70,0,
2,2100,Note_off_c,9,76,0,
2,2100,Note_off_c,9,80,0,
2,2100,Note_off_c,9,81,0,
2,2100,Note_off_c,9,82,0,
2,2100,Note_off_c,9,87,0,
2,2100,Note_off_c,9,88,0,
2,2100,Note_off_c,9,89,0,
2,2100,Note_off_c,9,91,0,
2,2100,Note_off_c,9,93,0,
2,2130,Note_on_c,9,35,7,
2,2130,Note_off_c,9,36,0,
2,2130,Note_off_c,9,37,0,
2,2130,Note_on_c,9,38,3,
2,2130,Note_off_c,9,39,0,
2,2130,Note_off_c,9,40,0,
2,2130,Note_off_c,9,41,0,
2,2130,Note_off_c,9,42,0,
2,2130,Note_off_c,9,43,0,
2,2130,Note_off_c,9,44,0,
2,2130,Note_off_c,9,45,0,
2,2130,Note_off_c,9,46,0,
2,2130,Note_off_c,9,47,0,
2,2130,Note_off_c,9,48,0,
2,2130,Note_off_c,9,49,0,
2,2130,Note_off_c,9,50,0,
2,2130,Note_off_c,9,51,0,
2,2130,Note_off_c,9,56,0,
2,2130,Note_off_c,9,57,0,
2,2130,Note_off_c,9,59,0,
2,2130,Note_off_c,9,60,0,
2,2130,Note_off_c,9,61,0,
2,2130,Note_off_c,9,63,0,
2,2130,Note_off_c,9,68,0,
2,2130,Note_off_c,9,69,0,
2,2130,Note_off_c,9,70,0,
2,2130,Note_off_c,9,76,0,
2,2130,Note_off_c,9,80,0,
2,2130,Note_off_c,9,81,0,
2,2130,Note_off_c,9,82,0,
2,2130,Note_off_c,9,87,0,
2,2130,Note_off_c,9,88,0,
2,2130,Note_off_c,9,89,0,
2,2130,Note_off_c,9,91,0,
2,2130,Note_off_c,9,93,0,
2,2160,Note_on_c,9,35,7,
2,2160,Note_off_c,9,36,0,
2,2160,Note_off_c,9,37,0,
2,2160,Note_on_c,9,38,3,
2,2160,Note_off_c,9,39,0,
2,2160,Note_off_c,9,40,0,
2,2160,Note_off_c,9,41,0,
2,2160,Note_off_c,9,42,0,
2,2160,Note_off_c,9,43,0,
2,2160,Note_off_c,9,44,0,
2,2160,Note_off_c,9,45,0,
2,2160,Note_off_c,9,46,0,
2,2160,Note_off_c,9,47,0,
2,2160,Note_off_c,9,48,0,
2,2160,Note_off_c,9,49,0,
2,2160,Note_off_c,9,50,0,
2,2160,Note_off_c,9,51,0,
2,2160,Note_off_c,9,56,0,
2,2160,Note_off_c,9,57,0,
2,2160,Note_off_c,9,59,0,
2,2160,Note_off_c,9,60,0,
2,2160,Note_off_c,9,61,0,
2,2160,Note_off_c,9,63,0,
2,2160,Note_off_c,9,68,0,
2,2160,Note_off_c,9,69,0,
2,2160,Note_off_c,9,70,0,
2,2160,Note_off_c,9,76,0,
2,2160,Note_off_c,9,80,0,
2,2160,Note_off_c,9,81,0,
2,2160,Note_off_c,9,82,0,
2,2160,Note_off_c,9,87,0,
2,2160,Note_off_c,9,88,0,
2,2160,Note_off_c,9,89,0,
2,2160,Note_off_c,9,91,0,
2,2160,Note_off_c,9,93,0,
2,2190,Note_on_c,9,35,7,
2,2190,Note_off_c,9,36,0,
2,2190,Note_off_c,9,37,0,
2,2190,Note_on_c,9,38,3,
2,2190,Note_off_c,9,39,0,
2,2190,Note_off_c,9,40,0,
2,2190,Note_off_c,9,41,0,
2,2190,Note_off_c,9,42,0,
2,2190,Note_off_c,9,43,0,
2,2190,Note_off_c,9,44,0,
2,2190,Note_off_c,9,45,0,
2,2190,Note_off_c,9,46,0,
2,2190,Note_off_c,9,47,0,
2,2190,Note_off_c,9,48,0,
2,2190,Note_off_c,9,49,0,
2,2190,Note_off_c,9,50,0,
2,2190,Note_off_c,9,51,0,
2,2190,Note_off_c,9,56,0,
2,2190,Note_off_c,9,57,0,
2,2190,Note_off_c,9,59,0,
2,2190,Note_off_c,9,60,0,
2,2190,Note_off_c,9,61,0,
2,2190,Note_off_c,9,63,0,
2,2190,Note_off_c,9,68,0,
2,2190,Note_off_c,9,69,0,
2,2190,Note_off_c,9,70,0,
2,2190,Note_off_c,9,76,0,
2,2190,Note_off_c,9,80,0,
2,2190,Note_off_c,9,81,0,
2,2190,Note_off_c,9,82,0,
2,2190,Note_off_c,9,87,0,
2,2190,Note_off_c,9,88,0,
2,2190,Note_off_c,9,89,0,
2,2190,Note_off_c,9,91,0,
2,2190,Note_off_c,9,93,0,
2,2220,Note_on_c,9,35,7,
2,2220,Note_off_c,9,36,0,
2,2220,Note_off_c,9,37,0,
2,2220,Note_on_c,9,38,3,
2,2220,Note_off_c,9,39,0,
2,2220,Note_off_c,9,40,0,
2,2220,Note_off_c,9,41,0,
2,2220,Note_off_c,9,42,0,
2,2220,Note_off_c,9,43,0,
2,2220,Note_off_c,9,44,0,
2,2220,Note_off_c,9,45,0,
2,2220,Note_off_c,9,46,0,
2,2220,Note_off_c,9,47,0,
2,2220,Note_off_c,9,48,0,
2,2220,Note_off_c,9,49,0,
2,2220,Note_off_c,9,50,0,
2,2220,Note_off_c,9,51,0,
2,2220,Note_off_c,9,56,0,
2,2220,Note_off_c,9,57,0,
2,2220,Note_off_c,9,59,0,
2,2220,Note_off_c,9,60,0,
2,2220,Note_off_c,9,61,0,
2,2220,Note_off_c,9,63,0,
2,2220,Note_off_c,9,68,0,
2,2220,Note_off_c,9,69,0,
2,2220,Note_off_c,9,70,0,
2,2220,Note_off_c,9,76,0,
2,2220,Note_off_c,9,80,0,
2,2220,Note_off_c,9,81,0,
2,2220,Note_off_c,9,82,0,
2,2220,Note_off_c,9,87,0,
2,2220,Note_off_c,9,88,0,
2,2220,Note_off_c,9,89,0,
2,2220,Note_off_c,9,91,0,
2,2220,Note_off_c,9,93,0,
2,2250,Note_on_c,9,35,7,
2,2250,Note_off_c,9,36,0,
2,2250,Note_off_c,9,37,0,
2,2250,Note_on_c,9,38,3,
2,2250,Note_off_c,9,39,0,
2,2250,Note_off_c,9,40,0,
2,2250,Note_off_c,9,41,0,
2,2250,Note_off_c,9,42,0,
2,2250,Note_off_c,9,43,0,
2,2250,Note_off_c,9,44,0,
2,2250,Note_off_c,9,45,0,
2,2250,Note_off_c,9,46,0,
2,2250,Note_off_c,9,47,0,
2,2250,Note_off_c,9,48,0,
2,2250,Note_off_c,9,49,0,
2,2250,Note_off_c,9,50,0,
2,2250,Note_off_c,9,51,0,
2,2250,Note_off_c,9,56,0,
2,2250,Note_off_c,9,57,0,
2,2250,Note_off_c,9,59,0,
2,2250,Note_off_c,9,60,0,
2,2250,Note_off_c,9,61,0,
2,2250,Note_off_c,9,63,0,
2,2250,Note_off_c,9,68,0,
2,2250,Note_off_c,9,69,0,
2,2250,Note_off_c,9,70,0,
2,2250,Note_off_c,9,76,0,
2,2250,Note_off_c,9,80,0,
2,2250,Note_off_c,9,81,0,
2,2250,Note_off_c,9,82,0,
2,2250,Note_off_c,9,87,0,
2,2250,Note_off_c,9,88,0,
2,2250,Note_off_c,9,89,0,
2,2250,Note_off_c,9,91,0,
2,2250,Note_off_c,9,93,0,
2,2280,Note_on_c,9,35,7,
2,2280,Note_off_c,9,36,0,
2,2280,Note_off_c,9,37,0,
2,2280,Note_on_c,9,38,3,
2,2280,Note_off_c,9,39,0,
2,2280,Note_off_c,9,40,0,
2,2280,Note_off_c,9,41,0,
2,2280,Note_off_c,9,42,0,
2,2280,Note_off_c,9,43,0,
2,2280,Note_off_c,9,44,0,
2,2280,Note_off_c,9,45,0,
2,2280,Note_off_c,9,46,0,
2,2280,Note_off_c,9,47,0,
2,2280,Note_off_c,9,48,0,
2,2280,Note_off_c,9,49,0,
2,2280,Note_off_c,9,50,0,
2,2280,Note_off_c,9,51,0,
2,2280,Note_off_c,9,56,0,
2,2280,Note_off_c,9,57,0,
2,2280,Note_off_c,9,59,0,
2,2280,Note_off_c,9,60,0,
2,2280,Note_off_c,9,61,0,
2,2280,Note_off_c,9,63,0,
2,2280,Note_off_c,9,68,0,
2,2280,Note_off_c,9,69,0,
2,2280,Note_off_c,9,70,0,
2,2280,Note_off_c,9,76,0,
2,2280,Note_off_c,9,80,0,
2,2280,Note_off_c,9,81,0,
2,2280,Note_off_c,9,82,0,
2,2280,Note_off_c,9,87,0,
2,2280,Note_off_c,9,88,0,
2,2280,Note_off_c,9,89,0,
2,2280,Note_off_c,9,91,0,
2,2280,Note_off_c,9,93,0,
2,2310,Note_on_c,9,35,7,
2,2310,Note_off_c,9,36,0,
2,2310,Note_off_c,9,37,0,
2,2310,Note_on_c,9,38,3,
2,2310,Note_off_c,9,39,0,
2,2310,Note_off_c,9,40,0,
2,2310,Note_off_c,9,41,0,
2,2310,Note_off_c,9,42,0,
2,2310,Note_off_c,9,43,0,
2,2310,Note_off_c,9,44,0,
2,2310,Note_off_c,9,45,0,
2,2310,Note_off_c,9,46,0,
2,2310,Note_off_c,9,47,0,
2,2310,Note_off_c,9,48,0,
2,2310,Note_off_c,9,49,0,
2,2310,Note_off_c,9,50,0,
2,2310,Note_off_c,9,51,0,
2,2310,Note_off_c,9,56,0,
2,2310,Note_off_c,9,57,0,
2,2310,Note_off_c,9,59,0,
2,2310,Note_off_c,9,60,0,
2,2310,Note_off_c,9,61,0,
2,2310,Note_off_c,9,63,0,
2,2310,Note_off_c,9,68,0,
2,2310,Note_off_c,9,69,0,
2,2310,Note_off_c,9,70,0,
2,2310,Note_off_c,9,76,0,
2,2310,Note_off_c,9,80,0,
2,2310,Note_off_c,9,81,0,
2,2310,Note_off_c,9,82,0,
2,2310,Note_off_c,9,87,0,
2,2310,Note_off_c,9,88,0,
2,2310,Note_off_c,9,89,0,
2,2310,Note_off_c,9,91,0,
2,2310,Note_off_c,9,93,0,
2,2340,Note_on_c,9,35,7,
2,2340,Note_off_c,9,36,0,
2,2340,Note_off_c,9,37,0,
2,2340,Note_on_c,9,38,3,
2,2340,Note_off_c,9,39,0,
2,2340,Note_off_c,9,40,0,
2,2340,Note_off_c,9,41,0,
2,2340,Note_off_c,9,42,0,
2,2340,Note_off_c,9,43,0,
2,2340,Note_off_c,9,44,0,
2,2340,Note_off_c,9,45,0,
2,2340,Note_off_c,9,46,0,
2,2340,Note_off_c,9,47,0,
2,2340,Note_off_c,9,48,0,
2,2340,Note_off_c,9,49,0,
2,2340,Note_off_c,9,50,0,
2,2340,Note_off_c,9,51,0,
2,2340,Note_off_c,9,56,0,
2,2340,Note_off_c,9,57,0,
2,2340,Note_off_c,9,59,0,
2,2340,Note_off_c,9,60,0,
2,2340,Note_off_c,9,61,0,
2,2340,Note_off_c,9,63,0,
2,2340,Note_off_c,9,68,0,
2,2340,Note_off_c,9,69,0,
2,2340,Note_off_c,9,70,0,
2,2340,Note_off_c,9,76,0,
2,2340,Note_off_c,9,80,0,
2,2340,Note_off_c,9,81,0,
2,2340,Note_off_c,9,82,0,
2,2340,Note_off_c,9,87,0,
2,2340,Note_off_c,9,88,0,
2,2340,Note_off_c,9,89,0,
2,2340,Note_off_c,9,91,0,
2,2340,Note_off_c,9,93,0,
2,2370,Note_on_c,9,35,7,
2,2370,Note_off_c,9,36,0,
2,2370,Note_off_c,9,37,0,
2,2370,Note_on_c,9,38,3,
2,2370,Note_off_c,9,39,0,
2,2370,Note_off_c,9,40,0,
2,2370,Note_off_c,9,41,0,
2,2370,Note_off_c,9,42,0,
2,2370,Note_off_c,9,43,0,
2,2370,Note_off_c,9,44,0,
2,2370,Note_off_c,9,45,0,
2,2370,Note_off_c,9,46,0,
2,2370,Note_off_c,9,47,0,
2,2370,Note_off_c,9,48,0,
2,2370,Note_off_c,9,49,0,
2,2370,Note_off_c,9,50,0,
2,2370,Note_off_c,9,51,0,
2,2370,Note_off_c,9,56,0,
2,2370,Note_off_c,9,57,0,
2,2370,Note_off_c,9,59,0,
2,2370,Note_off_c,9,60,0,
2,2370,Note_off_c,9,61,0,
2,2370,Note_off_c,9,63,0,
2,2370,Note_off_c,9,68,0,
2,2370,Note_off_c,9,69,0,
2,2370,Note_off_c,9,70,0,
2,2370,Note_off_c,9,76,0,
2,2370,Note_off_c,9,80,0,
2,2370,Note_off_c,9,81,0,
2,2370,Note_off_c,9,82,0,
2,2370,Note_off_c,9,87,0,
2,2370,Note_off_c,9,88,0,
2,2370,Note_off_c,9,89,0,
2,2370,Note_off_c,9,91,0,
2,2370,Note_off_c,9,93,0,
2,2400,Note_on_c,9,35,7,
2,2400,Note_off_c,9,36,0,
2,2400,Note_off_c,9,37,0,
2,2400,Note_on_c,9,38,3,
2,2400,Note_off_c,9,39,0,
2,2400,Note_off_c,9,40,0,
2,2400,Note_off_c,9,41,0,
2,2400,Note_off_c,9,42,0,
2,2400,Note_off_c,9,43,0,
2,2400,Note_off_c,9,44,0,
2,2400,Note_off_c,9,45,0,
2,2400,Note_off_c,9,46,0,
2,2400,Note_off_c,9,47,0,
2,2400,Note_off_c,9,48,0,
2,2400,Note_off_c,9,49,0,
2,2400,Note_off_c,9,50,0,
2,2400,Note_off_c,9,51,0,
2,2400,Note_off_c,9,56,0,
2,2400,Note_off_c,9,57,0,
2,2400,Note_off_c,9,59,0,
2,2400,Note_off_c,9,60,0,
2,2400,Note_off_c,9,61,0,
2,2400,Note_off_c,9,63,0,
2,2400,Note_off_c,9,68,0,
2,2400,Note_off_c,9,69,0,
2,2400,Note_off_c,9,70,0,
2,2400,Note_off_c,9,76,0,
2,2400,Note_off_c,9,80,0,
2,2400,Note_off_c,9,81,0,
2,2400,Note_off_c,9,82,0,
2,2400,Note_off_c,9,87,0,
2,2400,Note_off_c,9,88,0,
2,2400,Note_off_c,9,89,0,
2,2400,Note_off_c,9,91,0,
2,2400,Note_off_c,9,93,0,
2,2430,Note_on_c,9,35,7,
2,2430,Note_off_c,9,36,0,
2,2430,Note_off_c,9,37,0,
2,2430,Note_on_c,9,38,3,
2,2430,Note_off_c,9,39,0,
2,2430,Note_off_c,9,40,0,
2,2430,Note_off_c,9,41,0,
2,2430,Note_off_c,9,42,0,
2,2430,Note_off_c,9,43,0,
2,2430,Note_off_c,9,44,0,
2,2430,Note_off_c,9,45,0,
2,2430,Note_off_c,9,46,0,
2,2430,Note_off_c,9,47,0,
2,2430,Note_off_c,9,48,0,
2,2430,Note_off_c,9,49,0,
2,2430,Note_off_c,9,50,0,
2,2430,Note_off_c,9,51,0,
2,2430,Note_off_c,9,56,0,
2,2430,Note_off_c,9,57,0,
2,2430,Note_off_c,9,59,0,
2,2430,Note_off_c,9,60,0,
2,2430,Note_off_c,9,61,0,
2,2430,Note_off_c,9,63,0,
2,2430,Note_off_c,9,68,0,
2,2430,Note_off_c,9,69,0,
2,2430,Note_off_c,9,70,0,
2,2430,Note_off_c,9,76,0,
2,2430,Note_off_c,9,80,0,
2,2430,Note_off_c,9,81,0,
2,2430,Note_off_c,9,82,0,
2,2430,Note_off_c,9,87,0,
2,2430,Note_off_c,9,88,0,
2,2430,Note_off_c,9,89,0,
2,2430,Note_off_c,9,91,0,
2,2430,Note_off_c,9,93,0,
2,2460,Note_on_c,9,35,7,
2,2460,Note_off_c,9,36,0,
2,2460,Note_off_c,9,37,0,
2,2460,Note_on_c,9,38,3,
2,2460,Note_off_c,9,39,0,
2,2460,Note_off_c,9,40,0,
2,2460,Note_off_c,9,41,0,
2,2460,Note_off_c,9,42,0,
2,2460,Note_off_c,9,43,0,
2,2460,Note_off_c,9,44,0,
2,2460,Note_off_c,9,45,0,
2,2460,Note_off_c,9,46,0,
2,2460,Note_off_c,9,47,0,
2,2460,Note_off_c,9,48,0,
2,2460,Note_off_c,9,49,0,
2,2460,Note_off_c,9,50,0,
2,2460,Note_off_c,9,51,0,
2,2460,Note_off_c,9,56,0,
2,2460,Note_off_c,9,57,0,
2,2460,Note_off_c,9,59,0,
2,2460,Note_off_c,9,60,0,
2,2460,Note_off_c,9,61,0,
2,2460,Note_off_c,9,63,0,
2,2460,Note_off_c,9,68,0,
2,2460,Note_off_c,9,69,0,
2,2460,Note_off_c,9,70,0,
2,2460,Note_off_c,9,76,0,
2,2460,Note_off_c,9,80,0,
2,2460,Note_off_c,9,81,0,
2,2460,Note_off_c,9,82,0,
2,2460,Note_off_c,9,87,0,
2,2460,Note_off_c,9,88,0,
2,2460,Note_off_c,9,89,0,
2,2460,Note_off_c,9,91,0,
2,2460,Note_off_c,9,93,0,
2,2490,Note_on_c,9,35,7,
2,2490,Note_off_c,9,36,0,
2,2490,Note_off_c,9,37,0,
2,2490,Note_on_c,9,38,3,
2,2490,Note_off_c,9,39,0,
2,2490,Note_off_c,9,40,0,
2,2490,Note_off_c,9,41,0,
2,2490,Note_off_c,9,42,0,
2,2490,Note_off_c,9,43,0,
2,2490,Note_off_c,9,44,0,
2,2490,Note_off_c,9,45,0,
2,2490,Note_off_c,9,46,0,
2,2490,Note_off_c,9,47,0,
2,2490,Note_off_c,9,48,0,
2,2490,Note_off_c,9,49,0,
2,2490,Note_off_c,9,50,0,
2,2490,Note_off_c,9,51,0,
2,2490,Note_off_c,9,56,0,
2,2490,Note_off_c,9,57,0,
2,2490,Note_off_c,9,59,0,
2,2490,Note_off_c,9,60,0,
2,2490,Note_off_c,9,61,0,
2,2490,Note_off_c,9,63,0,
2,2490,Note_off_c,9,68,0,
2,2490,Note_off_c,9,69,0,
2,2490,Note_off_c,9,70,0,
2,2490,Note_off_c,9,76,0,
2,2490,Note_off_c,9,80,0,
2,2490,Note_off_c,9,81,0,
2,2490,Note_off_c,9,82,0,
2,2490,Note_off_c,9,87,0,
2,2490,Note_off_c,9,88,0,
2,2490,Note_off_c,9,89,0,
2,2490,Note_off_c,9,91,0,
2,2490,Note_off_c,9,93,0,
2,2520,Note_on_c,9,35,7,
2,2520,Note_off_c,9,36,0,
2,2520,Note_off_c,9,37,0,
2,2520,Note_on_c,9,38,3,
2,2520,Note_off_c,9,39,0,
2,2520,Note_off_c,9,40,0,
2,2520,Note_off_c,9,41,0,
2,2520,Note_off_c,9,42,0,
2,2520,Note_off_c,9,43,0,
2,2520,Note_off_c,9,44,0,
2,2520,Note_off_c,9,45,0,
2,2520,Note_off_c,9,46,0,
2,2520,Note_off_c,9,47,0,
2,2520,Note_off_c,9,48,0,
2,2520,Note_off_c,9,49,0,
2,2520,Note_off_c,9,50,0,
2,2520,Note_off_c,9,51,0,
2,2520,Note_off_c,9,56,0,
2,2520,Note_off_c,9,57,0,
2,2520,Note_off_c,9,59,0,
2,2520,Note_off_c,9,60,0,
2,2520,Note_off_c,9,61,0,
2,2520,Note_off_c,9,63,0,
2,2520,Note_off_c,9,68,0,
2,2520,Note_off_c,9,69,0,
2,2520,Note_off_c,9,70,0,
2,2520,Note_off_c,9,76,0,
2,2520,Note_off_c,9,80,0,
2,2520,Note_off_c,9,81,0,
2,2520,Note_off_c,9,82,0,
2,2520,Note_off_c,9,87,0,
2,2520,Note_off_c,9,88,0,
2,2520,Note_off_c,9,89,0,
2,2520,Note_off_c,9,91,0,
2,2520,Note_off_c,9,93,0,
2,2550,Note_on_c,9,35,7,
2,2550,Note_off_c,9,36,0,
2,2550,Note_off_c,9,37,0,
2,2550,Note_on_c,9,38,3,
2,2550,Note_off_c,9,39,0,
2,2550,Note_off_c,9,40,0,
2,2550,Note_off_c,9,41,0,
2,2550,Note_off_c,9,42,0,
2,2550,Note_off_c,9,43,0,
2,2550,Note_off_c,9,44,0,
2,2550,Note_off_c,9,45,0,
2,2550,Note_off_c,9,46,0,
2,2550,Note_off_c,9,47,0,
2,2550,Note_off_c,9,48,0,
2,2550,Note_off_c,9,49,0,
2,2550,Note_off_c,9,50,0,
2,2550,Note_off_c,9,51,0,
2,2550,Note_off_c,9,56,0,
2,2550,Note_off_c,9,57,0,
2,2550,Note_off_c,9,59,0,
2,2550,Note_off_c,9,60,0,
2,2550,Note_off_c,9,61,0,
2,2550,Note_off_c,9,63,0,
2,2550,Note_off_c,9,68,0,
2,2550,Note_off_c,9,69,0,
2,2550,Note_off_c,9,70,0,
2,2550,Note_off_c,9,76,0,
2,2550,Note_off_c,9,80,0,
2,2550,Note_off_c,9,81,0,
2,2550,Note_off_c,9,82,0,
2,2550,Note_off_c,9,87,0,
2,2550,Note_off_c,9,88,0,
2,2550,Note_off_c,9,89,0,
2,2550,Note_off_c,9,91,0,
2,2550,Note_off_c,9,93,0,
2,2580,Note_on_c,9,35,7,
2,2580,Note_off_c,9,36,0,
2,2580,Note_off_c,9,37,0,
2,2580,Note_on_c,9,38,3,
2,2580,Note_off_c,9,39,0,
2,2580,Note_off_c,9,40,0,
2,2580,Note_off_c,9,41,0,
2,2580,Note_off_c,9,42,0,
2,2580,Note_off_c,9,43,0,
2,2580,Note_off_c,9,44,0,
2,2580,Note_off_c,9,45,0,
2,2580,Note_off_c,9,46,0,
2,2580,Note_off_c,9,47,0,
2,2580,Note_off_c,9,48,0,
2,2580,Note_off_c,9,49,0,
2,2580,Note_off_c,9,50,0,
2,2580,Note_off_c,9,51,0,
2,2580,Note_off_c,9,56,0,
2,2580,Note_off_c,9,57,0,
2,2580,Note_off_c,9,59,0,
2,2580,Note_off_c,9,60,0,
2,2580,Note_off_c,9,61,0,
2,2580,Note_off_c,9,63,0,
2,2580,Note_off_c,9,68,0,
2,2580,Note_off_c,9,69,0,
2,2580,Note_off_c,9,70,0,
2,2580,Note_off_c,9,76,0,
2,2580,Note_off_c,9,80,0,
2,2580,Note_off_c,9,81,0,
2,2580,Note_off_c,9,82,0,
2,2580,Note_off_c,9,87,0,
2,2580,Note_off_c,9,88,0,
2,2580,Note_off_c,9,89,0,
2,2580,Note_off_c,9,91,0,
2,2580,Note_off_c,9,93,0,
2,2610,Note_on_c,9,35,7,
2,2610,Note_off_c,9,36,0,
2,2610,Note_off_c,9,37,0,
2,2610,Note_on_c,9,38,3,
2,2610,Note_off_c,9,39,0,
2,2610,Note_off_c,9,40,0,
2,2610,Note_off_c,9,41,0,
2,2610,Note_off_c,9,42,0,
2,2610,Note_off_c,9,43,0,
2,2610,Note_off_c,9,44,0,
2,2610,Note_off_c,9,45,0,
2,2610,Note_off_c,9,46,0,
2,2610,Note_off_c,9,47,0,
2,2610,Note_off_c,9,48,0,
2,2610,Note_off_c,9,49,0,
2,2610,Note_off_c,9,50,0,
2,2610,Note_off_c,9,51,0,
2,2610,Note_off_c,9,56,0,
2,2610,Note_off_c,9,57,0,
2,2610,Note_off_c,9,59,0,
2,2610,Note_off_c,9,60,0,
2,2610,Note_off_c,9,61,0,
2,2610,Note_off_c,9,63,0,
2,2610,Note_off_c,9,68,0,
2,2610,Note_off_c,9,69,0,
2,2610,Note_off_c,9,70,0,
2,2610,Note_off_c,9,76,0,
2,2610,Note_off_c,9,80,0,
2,2610,Note_off_c,9,81,0,
2,2610,Note_off_c,9,82,0,
2,2610,Note_off_c,9,87,0,
2,2610,Note_off_c,9,88,0,
2,2610,Note_off_c,9,89,0,
2,2610,Note_off_c,9,91,0,
2,2610,Note_off_c,9,93,0,
2,2640,Note_on_c,9,35,7,
2,2640,Note_off_c,9,36,0,
2,2640,Note_off_c,9,37,0,
2,2640,Note_on_c,9,38,3,
2,2640,Note_off_c,9,39,0,
2,2640,Note_off_c,9,40,0,
2,2640,Note_off_c,9,41,0,
2,2640,Note_off_c,9,42,0,
2,2640,Note_off_c,9,43,0,
2,2640,Note_off_c,9,44,0,
2,2640,Note_off_c,9,45,0,
2,2640,Note_off_c,9,46,0,
2,2640,Note_off_c,9,47,0,
2,2640,Note_off_c,9,48,0,
2,2640,Note_off_c,9,49,0,
2,2640,Note_off_c,9,50,0,
2,2640,Note_off_c,9,51,0,
2,2640,Note_off_c,9,56,0,
2,2640,Note_off_c,9,57,0,
2,2640,Note_off_c,9,59,0,
2,2640,Note_off_c,9,60,0,
2,2640,Note_off_c,9,61,0,
2,2640,Note_off_c,9,63,0,
2,2640,Note_off_c,9,68,0,
2,2640,Note_off_c,9,69,0,
2,2640,Note_off_c,9,70,0,
2,2640,Note_off_c,9,76,0,
2,2640,Note_off_c,9,80,0,
2,2640,Note_off_c,9,81,0,
2,2640,Note_off_c,9,82,0,
2,2640,Note_off_c,9,87,0,
2,2640,Note_off_c,9,88,0,
2,2640,Note_off_c,9,89,0,
2,2640,Note_off_c,9,91,0,
2,2640,Note_off_c,9,93,0,
2,2670,Note_on_c,9,35,7,
2,2670,Note_off_c,9,36,0,
2,2670,Note_off_c,9,37,0,
2,2670,Note_on_c,9,38,3,
2,2670,Note_off_c,9,39,0,
2,2670,Note_off_c,9,40,0,
2,2670,Note_off_c,9,41,0,
2,2670,Note_off_c,9,42,0,
2,2670,Note_off_c,9,43,0,
2,2670,Note_off_c,9,44,0,
2,2670,Note_off_c,9,45,0,
2,2670,Note_off_c,9,46,0,
2,2670,Note_off_c,9,47,0,
2,2670,Note_off_c,9,48,0,
2,2670,Note_off_c,9,49,0,
2,2670,Note_off_c,9,50,0,
2,2670,Note_off_c,9,51,0,
2,2670,Note_off_c,9,56,0,
2,2670,Note_off_c,9,57,0,
2,2670,Note_off_c,9,59,0,
2,2670,Note_off_c,9,60,0,
2,2670,Note_off_c,9,61,0,
2,2670,Note_off_c,9,63,0,
2,2670,Note_off_c,9,68,0,
2,2670,Note_off_c,9,69,0,
2,2670,Note_off_c,9,70,0,
2,2670,Note_off_c,9,76,0,
2,2670,Note_off_c,9,80,0,
2,2670,Note_off_c,9,81,0,
2,2670,Note_off_c,9,82,0,
2,2670,Note_off_c,9,87,0,
2,2670,Note_off_c,9,88,0,
2,2670,Note_off_c,9,89,0,
2,2670,Note_off_c,9,91,0,
2,2670,Note_off_c,9,93,0,
2,2700,Note_on_c,9,35,7,
2,2700,Note_off_c,9,36,0,
2,2700,Note_off_c,9,37,0,
2,2700,Note_on_c,9,38,3,
2,2700,Note_off_c,9,39,0,
2,2700,Note_off_c,9,40,0,
2,2700,Note_off_c,9,41,0,
2,2700,Note_off_c,9,42,0,
2,2700,Note_off_c,9,43,0,
2,2700,Note_off_c,9,44,0,
2,2700,Note_off_c,9,45,0,
2,2700,Note_off_c,9,46,0,
2,2700,Note_off_c,9,47,0,
2,2700,Note_off_c,9,48,0,
2,2700,Note_off_c,9,49,0,
2,2700,Note_off_c,9,50,0,
2,2700,Note_off_c,9,51,0,
2,2700,Note_off_c,9,56,0,
2,2700,Note_off_c,9,57,0,
2,2700,Note_off_c,9,59,0,
2,2700,Note_off_c,9,60,0,
2,2700,Note_off_c,9,61,0,
2,2700,Note_off_c,9,63,0,
2,2700,Note_off_c,9,68,0,
2,2700,Note_off_c,9,69,0,
2,2700,Note_off_c,9,70,0,
2,2700,Note_off_c,9,76,0,
2,2700,Note_off_c,9,80,0,
2,2700,Note_off_c,9,81,0,
2,2700,Note_off_c,9,82,0,
2,2700,Note_off_c,9,87,0,
2,2700,Note_off_c,9,88,0,
2,2700,Note_off_c,9,89,0,
2,2700,Note_off_c,9,91,0,
2,2700,Note_off_c,9,93,0,
2,2730,Note_on_c,9,35,7,
2,2730,Note_off_c,9,36,0,
2,2730,Note_off_c,9,37,0,
2,2730,Note_on_c,9,38,3,
2,2730,Note_off_c,9,39,0,
2,2730,Note_off_c,9,40,0,
2,2730,Note_off_c,9,41,0,
2,2730,Note_off_c,9,42,0,
2,2730,Note_off_c,9,43,0,
2,2730,Note_off_c,9,44,0,
2,2730,Note_off_c,9,45,0,
2,2730,Note_off_c,9,46,0,
2,2730,Note_off_c,9,47,0,
2,2730,Note_off_c,9,48,0,
2,2730,Note_off_c,9,49,0,
2,2730,Note_off_c,9,50,0,
2,2730,Note_off_c,9,51,0,
2,2730,Note_off_c,9,56,0,
2,2730,Note_off_c,9,57,0,
2,2730,Note_off_c,9,59,0,
2,2730,Note_off_c,9,60,0,
2,2730,Note_off_c,9,61,0,
2,2730,Note_off_c,9,63,0,
2,2730,Note_off_c,9,68,0,
2,2730,Note_off_c,9,69,0,
2,2730,Note_off_c,9,70,0,
2,2730,Note_off_c,9,76,0,
2,2730,Note_off_c,9,80,0,
2,2730,Note_off_c,9,81,0,
2,2730,Note_off_c,9,82,0,
2,2730,Note_off_c,9,87,0,
2,2730,Note_off_c,9,88,0,
2,2730,Note_off_c,9,89,0,
2,2730,Note_off_c,9,91,0,
2,2730,Note_off_c,9,93,0,
2,2760,Note_on_c,9,35,7,
2,2760,Note_off_c,9,36,0,
2,2760,Note_off_c,9,37,0,
2,2760,Note_on_c,9,38,3,
2,2760,Note_off_c,9,39,0,
2,2760,Note_off_c,9,40,0,
2,2760,Note_off_c,9,41,0,
2,2760,Note_off_c,9,42,0,
2,2760,Note_off_c,9,43,0,
2,2760,Note_off_c,9,44,0,
2,2760,Note_off_c,9,45,0,
2,2760,Note_off_c,9,46,0,
2,2760,Note_off_c,9,47,0,
2,2760,Note_off_c,9,48,0,
2,2760,Note_off_c,9,49,0,
2,2760,Note_off_c,9,50,0,
2,2760,Note_off_c,9,51,0,
2,2760,Note_off_c,9,56,0,
2,2760,Note_off_c,9,57,0,
2,2760,Note_off_c,9,59,0,
2,2760,Note_off_c,9,60,0,
2,2760,Note_off_c,9,61,0,
2,2760,Note_off_c,9,63,0,
2,2760,Note_off_c,9,68,0,
2,2760,Note_off_c,9,69,0,
2,2760,Note_off_c,9,70,0,
2,2760,Note_off_c,9,76,0,
2,2760,Note_off_c,9,80,0,
2,2760,Note_off_c,9,81,0,
2,2760,Note_off_c,9,82,0,
2,2760,Note_off_c,9,87,0,
2,2760,Note_off_c,9,88,0,
2,2760,Note_off_c,9,89,0,
2,2760,Note_off_c,9,91,0,
2,2760,Note_off_c,9,93,0,
2,2790,Note_on_c,9,35,7,
2,2790,Note_off_c,9,36,0,
2,2790,Note_off_c,9,37,0,
2,2790,Note_on_c,9,38,3,
2,2790,Note_off_c,9,39,0,
2,2790,Note_off_c,9,40,0,
2,2790,Note_off_c,9,41,0,
2,2790,Note_off_c,9,42,0,
2,2790,Note_off_c,9,43,0,
2,2790,Note_off_c,9,44,0,
2,2790,Note_off_c,9,45,0,
2,2790,Note_off_c,9,46,0,
2,2790,Note_off_c,9,47,0,
2,2790,Note_off_c,9,48,0,
2,2790,Note_off_c,9,49,0,
2,2790,Note_off_c,9,50,0,
2,2790,Note_off_c,9,51,0,
2,2790,Note_off_c,9,56,0,
2,2790,Note_off_c,9,57,0,
2,2790,Note_off_c,9,59,0,
2,2790,Note_off_c,9,60,0,
2,2790,Note_off_c,9,61,0,
2,2790,Note_off_c,9,63,0,
2,2790,Note_off_c,9,68,0,
2,2790,Note_off_c,9,69,0,
2,2790,Note_off_c,9,70,0,
2,2790,Note_off_c,9,76,0,
2,2790,Note_off_c,9,80,0,
2,2790,Note_off_c,9,81,0,
2,2790,Note_off_c,9,82,0,
2,2790,Note_off_c,9,87,0,
2,2790,Note_off_c,9,88,0,
2,2790,Note_off_c,9,89,0,
2,2790,Note_off_c,9,91,0,
2,2790,Note_off_c,9,93,0,
2,2820,Note_on_c,9,35,7,
2,2820,Note_off_c,9,36,0,
2,2820,Note_off_c,9,37,0,
2,2820,Note_on_c,9,38,3,
2,2820,Note_off_c,9,39,0,
2,2820,Note_off_c,9,40,0,
2,2820,Note_off_c,9,41,0,
2,2820,Note_off_c,9,42,0,
2,2820,Note_off_c,9,43,0,
2,2820,Note_off_c,9,44,0,
2,2820,Note_off_c,9,45,0,
2,2820,Note_off_c,9,46,0,
2,2820,Note_off_c,9,47,0,
2,2820,Note_off_c,9,48,0,
2,2820,Note_off_c,9,49,0,
2,2820,Note_off_c,9,50,0,
2,2820,Note_off_c,9,51,0,
2,2820,Note_off_c,9,56,0,
2,2820,Note_off_c,9,57,0,
2,2820,Note_off_c,9,59,0,
2,2820,Note_off_c,9,60,0,
2,2820,Note_off_c,9,61,0,
2,2820,Note_off_c,9,63,0,
2,2820,Note_off_c,9,68,0,
2,2820,Note_off_c,9,69,0,
2,2820,Note_off_c,9,70,0,
2,2820,Note_off_c,9,76,0,
2,2820,Note_off_c,9,80,0,
2,2820,Note_off_c,9,81,0,
2,2820,Note_off_c,9,82,0,
2,2820,Note_off_c,9,87,0,
2,2820,Note_off_c,9,88,0,
2,2820,Note_off_c,9,89,0,
2,2820,Note_off_c,9,91,0,
2,2820,Note_off_c,9,93,0,
2,2850,Note_on_c,9,35,7,
2,2850,Note_off_c,9,36,0,
2,2850,Note_off_c,9,37,0,
2,2850,Note_on_c,9,38,3,
2,2850,Note_off_c,9,39,0,
2,2850,Note_off_c,9,40,0,
2,2850,Note_off_c,9,41,0,
2,2850,Note_off_c,9,42,0,
2,2850,Note_off_c,9,43,0,
2,2850,Note_off_c,9,44,0,
2,2850,Note_off_c,9,45,0,
2,2850,Note_off_c,9,46,0,
2,2850,Note_off_c,9,47,0,
2,2850,Note_off_c,9,48,0,
2,2850,Note_off_c,9,49,0,
2,2850,Note_off_c,9,50,0,
2,2850,Note_off_c,9,51,0,
2,2850,Note_off_c,9,56,0,
2,2850,Note_off_c,9,57,0,
2,2850,Note_off_c,9,59,0,
2,2850,Note_off_c,9,60,0,
2,2850,Note_off_c,9,61,0,
2,2850,Note_off_c,9,63,0,
2,2850,Note_off_c,9,68,0,
2,2850,Note_off_c,9,69,0,
2,2850,Note_off_c,9,70,0,
2,2850,Note_off_c,9,76,0,
2,2850,Note_off_c,9,80,0,
2,2850,Note_off_c,9,81,0,
2,2850,Note_off_c,9,82,0,
2,2850,Note_off_c,9,87,0,
2,2850,Note_off_c,9,88,0,
2,2850,Note_off_c,9,89,0,
2,2850,Note_off_c,9,91,0,
2,2850,Note_off_c,9,93,0,
2,2880,Note_on_c,9,35,7,
2,2880,Note_off_c,9,36,0,
2,2880,Note_off_c,9,37,0,
2,2880,Note_on_c,9,38,3,
2,2880,Note_off_c,9,39,0,
2,2880,Note_off_c,9,40,0,
2,2880,Note_off_c,9,41,0,
2,2880,Note_off_c,9,42,0,
2,2880,Note_off_c,9,43,0,
2,2880,Note_off_c,9,44,0,
2,2880,Note_off_c,9,45,0,
2,2880,Note_off_c,9,46,0,
2,2880,Note_off_c,9,47,0,
2,2880,Note_off_c,9,48,0,
2,2880,Note_off_c,9,49,0,
2,2880,Note_off_c,9,50,0,
2,2880,Note_off_c,9,51,0,
2,2880,Note_off_c,9,56,0,
2,2880,Note_off_c,9,57,0,
2,2880,Note_off_c,9,59,0,
2,2880,Note_off_c,9,60,0,
2,2880,Note_off_c,9,61,0,
2,2880,Note_off_c,9,63,0,
2,2880,Note_off_c,9,68,0,
2,2880,Note_off_c,9,69,0,
2,2880,Note_off_c,9,70,0,
2,2880,Note_off_c,9,76,0,
2,2880,Note_off_c,9,80,0,
2,2880,Note_off_c,9,81,0,
2,2880,Note_off_c,9,82,0,
2,2880,Note_off_c,9,87,0,
2,2880,Note_off_c,9,88,0,
2,2880,Note_off_c,9,89,0,
2,2880,Note_off_c,9,91,0,
2,2880,Note_off_c,9,93,0,
2,2910,Note_on_c,9,35,7,
2,2910,Note_off_c,9,36,0,
2,2910,Note_off_c,9,37,0,
2,2910,Note_on_c,9,38,3,
2,2910,Note_off_c,9,39,0,
2,2910,Note_off_c,9,40,0,
2,2910,Note_off_c,9,41,0,
2,2910,Note_off_c,9,42,0,
2,2910,Note_off_c,9,43,0,
2,2910,Note_off_c,9,44,0,
2,2910,Note_off_c,9,45,0,
2,2910,Note_off_c,9,46,0,
2,2910,Note_off_c,9,47,0,
2,2910,Note_off_c,9,48,0,
2,2910,Note_off_c,9,49,0,
2,2910,Note_off_c,9,50,0,
2,2910,Note_off_c,9,51,0,
2,2910,Note_off_c,9,56,0,
2,2910,Note_off_c,9,57,0,
2,2910,Note_off_c,9,59,0,
2,2910,Note_off_c,9,60,0,
2,2910,Note_off_c,9,61,0,
2,2910,Note_off_c,9,63,0,
2,2910,Note_off_c,9,68,0,
2,2910,Note_off_c,9,69,0,
2,2910,Note_off_c,9,70,0,
2,2910,Note_off_c,9,76,0,
2,2910,Note_off_c,9,80,0,
2,2910,Note_off_c,9,81,0,
2,2910,Note_off_c,9,82,0,
2,2910,Note_off_c,9,87,0,
2,2910,Note_off_c,9,88,0,
2,2910,Note_off_c,9,89,0,
2,2910,Note_off_c,9,91,0,
2,2910,Note_off_c,9,93,0,
2,2940,Note_on_c,9,35,7,
2,2940,Note_off_c,9,36,0,
2,2940,Note_off_c,9,37,0,
2,2940,Note_on_c,9,38,3,
2,2940,Note_off_c,9,39,0,
2,2940,Note_off_c,9,40,0,
2,2940,Note_off_c,9,41,0,
2,2940,Note_off_c,9,42,0,
2,2940,Note_off_c,9,43,0,
2,2940,Note_off_c,9,44,0,
2,2940,Note_off_c,9,45,0,
2,2940,Note_off_c,9,46,0,
2,2940,Note_off_c,9,47,0,
2,2940,Note_off_c,9,48,0,
2,2940,Note_off_c,9,49,0,
2,2940,Note_off_c,9,50,0,
2,2940,Note_off_c,9,51,0,
2,2940,Note_off_c,9,56,0,
2,2940,Note_off_c,9,57,0,
2,2940,Note_off_c,9,59,0,
2,2940,Note_off_c,9,60,0,
2,2940,Note_off_c,9,61,0,
2,2940,Note_off_c,9,63,0,
2,2940,Note_off_c,9,68,0,
2,2940,Note_off_c,9,69,0,
2,2940,Note_off_c,9,70,0,
2,2940,Note_off_c,9,76,0,
2,2940,Note_off_c,9,80,0,
2,2940,Note_off_c,9,81,0,
2,2940,Note_off_c,9,82,0,
2,2940,Note_off_c,9,87,0,
2,2940,Note_off_c,9,88,0,
2,2940,Note_off_c,9,89,0,
2,2940,Note_off_c,9,91,0,
2,2940,Note_off_c,9,93,0,
2,2970,Note_on_c,9,35,7,
2,2970,Note_off_c,9,36,0,
2,2970,Note_off_c,9,37,0,
2,2970,Note_on_c,9,38,3,
2,2970,Note_off_c,9,39,0,
2,2970,Note_off_c,9,40,0,
2,2970,Note_off_c,9,41,0,
2,2970,Note_off_c,9,42,0,
2,2970,Note_off_c,9,43,0,
2,2970,Note_off_c,9,44,0,
2,2970,Note_off_c,9,45,0,
2,2970,Note_off_c,9,46,0,
2,2970,Note_off_c,9,47,0,
2,2970,Note_off_c,9,48,0,
2,2970,Note_off_c,9,49,0,
2,2970,Note_off_c,9,50,0,
2,2970,Note_off_c,9,51,0,
2,2970,Note_off_c,9,56,0,
2,2970,Note_off_c,9,57,0,
2,2970,Note_off_c,9,59,0,
2,2970,Note_off_c,9,60,0,
2,2970,Note_off_c,9,61,0,
2,2970,Note_off_c,9,63,0,
2,2970,Note_off_c,9,68,0,
2,2970,Note_off_c,9,69,0,
2,2970,Note_off_c,9,70,0,
2,2970,Note_off_c,9,76,0,
2,2970,Note_off_c,9,80,0,
2,2970,Note_off_c,9,81,0,
2,2970,Note_off_c,9,82,0,
2,2970,Note_off_c,9,87,0,
2,2970,Note_off_c,9,88,0,
2,2970,Note_off_c,9,89,0,
2,2970,Note_off_c,9,91,0,
2,2970,Note_off_c,9,93,0,
2,2980,End_track,,,,
0,0,End_of_file,,,,
