0,0,Header,1,2,480,
1,0,Start_track,,,,
1,0,Time_signature,4,2,24,8
1,0,Title_t,"""from model""",,,
1,0,End_track,,,,
2,0,Start_track,,,,
2,0,Note_on_c,9,35,63,
2,0,Note_on_c,9,36,63,
2,0,Note_on_c,9,37,62,
2,0,Note_on_c,9,38,63,
2,0,Note_on_c,9,39,62,
2,0,Note_on_c,9,40,62,
2,0,Note_on_c,9,41,62,
2,0,Note_on_c,9,42,62,
2,0,Note_on_c,9,43,62,
2,0,Note_on_c,9,44,62,
2,0,Note_on_c,9,45,62,
2,0,Note_on_c,9,46,60,
2,0,Note_on_c,9,47,62,
2,0,Note_on_c,9,48,62,
2,0,Note_on_c,9,49,62,
2,0,Note_on_c,9,50,62,
2,0,Note_on_c,9,51,62,
2,0,Note_on_c,9,56,62,
2,0,Note_on_c,9,57,62,
2,0,Note_on_c,9,59,62,
2,0,Note_on_c,9,60,62,
2,0,Note_on_c,9,61,62,
2,0,Note_on_c,9,63,62,
2,0,Note_on_c,9,68,62,
2,0,Note_on_c,9,69,62,
2,0,Note_on_c,9,70,61,
2,0,Note_on_c,9,76,62,
2,0,Note_on_c,9,80,62,
2,0,Note_on_c,9,81,62,
2,0,Note_on_c,9,82,62,
2,0,Note_on_c,9,87,62,
2,0,Note_on_c,9,88,62,
2,0,Note_on_c,9,89,62,
2,0,Note_on_c,9,91,61,
2,0,Note_on_c,9,93,62,
2,20,Note_on_c,9,35,37,
2,20,Note_on_c,9,36,22,
2,20,Note_on_c,9,37,14,
2,20,Note_on_c,9,38,30,
2,20,Note_on_c,9,39,11,
2,20,Note_on_c,9,40,7,
2,20,Note_on_c,9,41,14,
2,20,Note_off_c,9,42,0,
2,20,Note_on_c,9,43,10,
2,20,Note_on_c,9,44,14,
2,20,Note_on_c,9,45,14,
2,20,Note_off_c,9,46,0,
2,20,Note_on_c,9,47,6,
2,20,Note_on_c,9,48,3,
2,20,Note_on_c,9,49,15,
2,20,Note_on_c,9,50,5,
2,20,Note_on_c,9,51,14,
2,20,Note_on_c,9,56,14,
2,20,Note_on_c,9,57,6,
2,20,Note_on_c,9,59,14,
2,20,Note_on_c,9,60,14,
2,20,Note_on_c,9,61,14,
2,20,Note_on_c,9,63,1,
2,20,Note_on_c,9,68,14,
2,20,Note_on_c,9,69,2,
2,20,Note_off_c,9,70,0,
2,20,Note_on_c,9,76,14,
2,20,Note_on_c,9,80,13,
2,20,Note_on_c,9,81,13,
2,20,Note_on_c,9,82,14,
2,20,Note_on_c,9,87,14,
2,20,Note_on_c,9,88,14,
2,20,Note_on_c,9,89,14,
2,20,Note_off_c,9,91,0,
2,20,Note_on_c,9,93,14,
2,40,Note_on_c,9,35,7,
2,40,Note_on_c,9,36,1,
2,40,Note_off_c,9,37,0,
2,40,Note_on_c,9,38,3,
2,40,Note_off_c,9,39,0,
2,40,Note_off_c,9,40,0,
2,40,Note_off_c,9,41,0,
2,40,Note_off_c,9,42,0,
2,40,Note_off_c,9,43,0,
2,40,Note_off_c,9,44,0,
2,40,Note_off_c,9,45,0,
2,40,Note_off_c,9,46,0,
2,40,Note_off_c,9,47,0,
2,40,Note_off_c,9,48,0,
2,40,Note_off_c,9,49,0,
2,40,Note_off_c,9,50,0,
2,40,Note_off_c,9,51,0,
2,40,Note_off_c,9,56,0,
2,40,Note_off_c,9,57,0,
2,40,Note_off_c,9,59,0,
2,40,Note_off_c,9,60,0,
2,40,Note_off_c,9,61,0,
2,40,Note_off_c,9,63,0,
2,40,Note_off_c,9,68,0,
2,40,Note_off_c,9,69,0,
2,40,Note_off_c,9,70,0,
2,40,Note_off_c,9,76,0,
2,40,Note_off_c,9,80,0,
2,40,Note_off_c,9,81,0,
2,40,Note_off_c,9,82,0,
2,40,Note_off_c,9,87,0,
2,40,Note_off_c,9,88,0,
2,40,Note_off_c,9,89,0,
2,40,Note_off_c,9,91,0,
2,40,Note_off_c,9,93,0,
2,60,Note_on_c,9,35,7,
2,60,Note_off_c,9,36,0,
2,60,Note_off_c,9,37,0,
2,60,Note_on_c,9,38,3,
2,60,Note_off_c,9,39,0,
2,60,Note_off_c,9,40,0,
2,60,Note_off_c,9,41,0,
2,60,Note_off_c,9,42,0,
2,60,Note_off_c,9,43,0,
2,60,Note_off_c,9,44,0,
2,60,Note_off_c,9,45,0,
2,60,Note_off_c,9,46,0,
2,60,Note_off_c,9,47,0,
2,60,Note_off_c,9,48,0,
2,60,Note_off_c,9,49,0,
2,60,Note_off_c,9,50,0,
2,60,Note_off_c,9,51,0,
2,60,Note_off_c,9,56,0,
2,60,Note_off_c,9,57,0,
2,60,Note_off_c,9,59,0,
2,60,Note_off_c,9,60,0,
2,60,Note_off_c,9,61,0,
2,60,Note_off_c,9,63,0,
2,60,Note_off_c,9,68,0,
2,60,Note_off_c,9,69,0,
2,60,Note_off_c,9,70,0,
2,60,Note_off_c,9,76,0,
2,60,Note_off_c,9,80,0,
2,60,Note_off_c,9,81,0,
2,60,Note_off_c,9,82,0,
2,60,Note_off_c,9,87,0,
2,60,Note_off_c,9,88,0,
2,60,Note_off_c,9,89,0,
2,60,Note_off_c,9,91,0,
2,60,Note_off_c,9,93,0,
2,80,Note_on_c,9,35,7,
2,80,Note_off_c,9,36,0,
2,80,Note_off_c,9,37,0,
2,80,Note_on_c,9,38,3,
2,80,Note_off_c,9,39,0,
2,80,Note_off_c,9,40,0,
2,80,Note_off_c,9,41,0,
2,80,Note_off_c,9,42,0,
2,80,Note_off_c,9,43,0,
2,80,Note_off_c,9,44,0,
2,80,Note_off_c,9,45,0,
2,80,Note_off_c,9,46,0,
2,80,Note_off_c,9,47,0,
2,80,Note_off_c,9,48,0,
2,80,Note_off_c,9,49,0,
2,80,Note_off_c,9,50,0,
2,80,Note_off_c,9,51,0,
2,80,Note_off_c,9,56,0,
2,80,Note_off_c,9,57,0,
2,80,Note_off_c,9,59,0,
2,80,Note_off_c,9,60,0,
2,80,Note_off_c,9,61,0,
2,80,Note_off_c,9,63,0,
2,80,Note_off_c,9,68,0,
2,80,Note_off_c,9,69,0,
2,80,Note_off_c,9,70,0,
2,80,Note_off_c,9,76,0,
2,80,Note_off_c,9,80,0,
2,80,Note_off_c,9,81,0,
2,80,Note_off_c,9,82,0,
2,80,Note_off_c,9,87,0,
2,80,Note_off_c,9,88,0,
2,80,Note_off_c,9,89,0,
2,80,Note_off_c,9,91,0,
2,80,Note_off_c,9,93,0,
2,100,Note_on_c,9,35,7,
2,100,Note_off_c,9,36,0,
2,100,Note_off_c,9,37,0,
2,100,Note_on_c,9,38,3,
2,100,Note_off_c,9,39,0,
2,100,Note_off_c,9,40,0,
2,100,Note_off_c,9,41,0,
2,100,Note_off_c,9,42,0,
2,100,Note_off_c,9,43,0,
2,100,Note_off_c,9,44,0,
2,100,Note_off_c,9,45,0,
2,100,Note_off_c,9,46,0,
2,100,Note_off_c,9,47,0,
2,100,Note_off_c,9,48,0,
2,100,Note_off_c,9,49,0,
2,100,Note_off_c,9,50,0,
2,100,Note_off_c,9,51,0,
2,100,Note_off_c,9,56,0,
2,100,Note_off_c,9,57,0,
2,100,Note_off_c,9,59,0,
2,100,Note_off_c,9,60,0,
2,100,Note_off_c,9,61,0,
2,100,Note_off_c,9,63,0,
2,100,Note_off_c,9,68,0,
2,100,Note_off_c,9,69,0,
2,100,Note_off_c,9,70,0,
2,100,Note_off_c,9,76,0,
2,100,Note_off_c,9,80,0,
2,100,Note_off_c,9,81,0,
2,100,Note_off_c,9,82,0,
2,100,Note_off_c,9,87,0,
2,100,Note_off_c,9,88,0,
2,100,Note_off_c,9,89,0,
2,100,Note_off_c,9,91,0,
2,100,Note_off_c,9,93,0,
2,120,Note_on_c,9,35,7,
2,120,Note_off_c,9,36,0,
2,120,Note_off_c,9,37,0,
2,120,Note_on_c,9,38,3,
2,120,Note_off_c,9,39,0,
2,120,Note_off_c,9,40,0,
2,120,Note_off_c,9,41,0,
2,120,Note_off_c,9,42,0,
2,120,Note_off_c,9,43,0,
2,120,Note_off_c,9,44,0,
2,120,Note_off_c,9,45,0,
2,120,Note_off_c,9,46,0,
2,120,Note_off_c,9,47,0,
2,120,Note_off_c,9,48,0,
2,120,Note_off_c,9,49,0,
2,120,Note_off_c,9,50,0,
2,120,Note_off_c,9,51,0,
2,120,Note_off_c,9,56,0,
2,120,Note_off_c,9,57,0,
2,120,Note_off_c,9,59,0,
2,120,Note_off_c,9,60,0,
2,120,Note_off_c,9,61,0,
2,120,Note_off_c,9,63,0,
2,120,Note_off_c,9,68,0,
2,120,Note_off_c,9,69,0,
2,120,Note_off_c,9,70,0,
2,120,Note_off_c,9,76,0,
2,120,Note_off_c,9,80,0,
2,120,Note_off_c,9,81,0,
2,120,Note_off_c,9,82,0,
2,120,Note_off_c,9,87,0,
2,120,Note_off_c,9,88,0,
2,120,Note_off_c,9,89,0,
2,120,Note_off_c,9,91,0,
2,120,Note_off_c,9,93,0,
2,140,Note_on_c,9,35,7,
2,140,Note_off_c,9,36,0,
2,140,Note_off_c,9,37,0,
2,140,Note_on_c,9,38,3,
2,140,Note_off_c,9,39,0,
2,140,Note_off_c,9,40,0,
2,140,Note_off_c,9,41,0,
2,140,Note_off_c,9,42,0,
2,140,Note_off_c,9,43,0,
2,140,Note_off_c,9,44,0,
2,140,Note_off_c,9,45,0,
2,140,Note_off_c,9,46,0,
2,140,Note_off_c,9,47,0,
2,140,Note_off_c,9,48,0,
2,140,Note_off_c,9,49,0,
2,140,Note_off_c,9,50,0,
2,140,Note_off_c,9,51,0,
2,140,Note_off_c,9,56,0,
2,140,Note_off_c,9,57,0,
2,140,Note_off_c,9,59,0,
2,140,Note_off_c,9,60,0,
2,140,Note_off_c,9,61,0,
2,140,Note_off_c,9,63,0,
2,140,Note_off_c,9,68,0,
2,140,Note_off_c,9,69,0,
2,140,Note_off_c,9,70,0,
2,140,Note_off_c,9,76,0,
2,140,Note_off_c,9,80,0,
2,140,Note_off_c,9,81,0,
2,140,Note_off_c,9,82,0,
2,140,Note_off_c,9,87,0,
2,140,Note_off_c,9,88,0,
2,140,Note_off_c,9,89,0,
2,140,Note_off_c,9,91,0,
2,140,Note_off_c,9,93,0,
2,160,Note_on_c,9,35,7,
2,160,Note_off_c,9,36,0,
2,160,Note_off_c,9,37,0,
2,160,Note_on_c,9,38,3,
2,160,Note_off_c,9,39,0,
2,160,Note_off_c,9,40,0,
2,160,Note_off_c,9,41,0,
2,160,Note_off_c,9,42,0,
2,160,Note_off_c,9,43,0,
2,160,Note_off_c,9,44,0,
2,160,Note_off_c,9,45,0,
2,160,Note_off_c,9,46,0,
2,160,Note_off_c,9,47,0,
2,160,Note_off_c,9,48,0,
2,160,Note_off_c,9,49,0,
2,160,Note_off_c,9,50,0,
2,160,Note_off_c,9,51,0,
2,160,Note_off_c,9,56,0,
2,160,Note_off_c,9,57,0,
2,160,Note_off_c,9,59,0,
2,160,Note_off_c,9,60,0,
2,160,Note_off_c,9,61,0,
2,160,Note_off_c,9,63,0,
2,160,Note_off_c,9,68,0,
2,160,Note_off_c,9,69,0,
2,160,Note_off_c,9,70,0,
2,160,Note_off_c,9,76,0,
2,160,Note_off_c,9,80,0,
2,160,Note_off_c,9,81,0,
2,160,Note_off_c,9,82,0,
2,160,Note_off_c,9,87,0,
2,160,Note_off_c,9,88,0,
2,160,Note_off_c,9,89,0,
2,160,Note_off_c,9,91,0,
2,160,Note_off_c,9,93,0,
2,180,Note_on_c,9,35,7,
2,180,Note_off_c,9,36,0,
2,180,Note_off_c,9,37,0,
2,180,Note_on_c,9,38,3,
2,180,Note_off_c,9,39,0,
2,180,Note_off_c,9,40,0,
2,180,Note_off_c,9,41,0,
2,180,Note_off_c,9,42,0,
2,180,Note_off_c,9,43,0,
2,180,Note_off_c,9,44,0,
2,180,Note_off_c,9,45,0,
2,180,Note_off_c,9,46,0,
2,180,Note_off_c,9,47,0,
2,180,Note_off_c,9,48,0,
2,180,Note_off_c,9,49,0,
2,180,Note_off_c,9,50,0,
2,180,Note_off_c,9,51,0,
2,180,Note_off_c,9,56,0,
2,180,Note_off_c,9,57,0,
2,180,Note_off_c,9,59,0,
2,180,Note_off_c,9,60,0,
2,180,Note_off_c,9,61,0,
2,180,Note_off_c,9,63,0,
2,180,Note_off_c,9,68,0,
2,180,Note_off_c,9,69,0,
2,180,Note_off_c,9,70,0,
2,180,Note_off_c,9,76,0,
2,180,Note_off_c,9,80,0,
2,180,Note_off_c,9,81,0,
2,180,Note_off_c,9,82,0,
2,180,Note_off_c,9,87,0,
2,180,Note_off_c,9,88,0,
2,180,Note_off_c,9,89,0,
2,180,Note_off_c,9,91,0,
2,180,Note_off_c,9,93,0,
2,200,Note_on_c,9,35,7,
2,200,Note_off_c,9,36,0,
2,200,Note_off_c,9,37,0,
2,200,Note_on_c,9,38,3,
2,200,Note_off_c,9,39,0,
2,200,Note_off_c,9,40,0,
2,200,Note_off_c,9,41,0,
2,200,Note_off_c,9,42,0,
2,200,Note_off_c,9,43,0,
2,200,Note_off_c,9,44,0,
2,200,Note_off_c,9,45,0,
2,200,Note_off_c,9,46,0,
2,200,Note_off_c,9,47,0,
2,200,Note_off_c,9,48,0,
2,200,Note_off_c,9,49,0,
2,200,Note_off_c,9,50,0,
2,200,Note_off_c,9,51,0,
2,200,Note_off_c,9,56,0,
2,200,Note_off_c,9,57,0,
2,200,Note_off_c,9,59,0,
2,200,Note_off_c,9,60,0,
2,200,Note_off_c,9,61,0,
2,200,Note_off_c,9,63,0,
2,200,Note_off_c,9,68,0,
2,200,Note_off_c,9,69,0,
2,200,Note_off_c,9,70,0,
2,200,Note_off_c,9,76,0,
2,200,Note_off_c,9,80,0,
2,200,Note_off_c,9,81,0,
2,200,Note_off_c,9,82,0,
2,200,Note_off_c,9,87,0,
2,200,Note_off_c,9,88,0,
2,200,Note_off_c,9,89,0,
2,200,Note_off_c,9,91,0,
2,200,Note_off_c,9,93,0,
2,220,Note_on_c,9,35,7,
2,220,Note_off_c,9,36,0,
2,220,Note_off_c,9,37,0,
2,220,Note_on_c,9,38,3,
2,220,Note_off_c,9,39,0,
2,220,Note_off_c,9,40,0,
2,220,Note_off_c,9,41,0,
2,220,Note_off_c,9,42,0,
2,220,Note_off_c,9,43,0,
2,220,Note_off_c,9,44,0,
2,220,Note_off_c,9,45,0,
2,220,Note_off_c,9,46,0,
2,220,Note_off_c,9,47,0,
2,220,Note_off_c,9,48,0,
2,220,Note_off_c,9,49,0,
2,220,Note_off_c,9,50,0,
2,220,Note_off_c,9,51,0,
2,220,Note_off_c,9,56,0,
2,220,Note_off_c,9,57,0,
2,220,Note_off_c,9,59,0,
2,220,Note_off_c,9,60,0,
2,220,Note_off_c,9,61,0,
2,220,Note_off_c,9,63,0,
2,220,Note_off_c,9,68,0,
2,220,Note_off_c,9,69,0,
2,220,Note_off_c,9,70,0,
2,220,Note_off_c,9,76,0,
2,220,Note_off_c,9,80,0,
2,220,Note_off_c,9,81,0,
2,220,Note_off_c,9,82,0,
2,220,Note_off_c,9,87,0,
2,220,Note_off_c,9,88,0,
2,220,Note_off_c,9,89,0,
2,220,Note_off_c,9,91,0,
2,220,Note_off_c,9,93,0,
2,240,Note_on_c,9,35,7,
2,240,Note_off_c,9,36,0,
2,240,Note_off_c,9,37,0,
2,240,Note_on_c,9,38,3,
2,240,Note_off_c,9,39,0,
2,240,Note_off_c,9,40,0,
2,240,Note_off_c,9,41,0,
2,240,Note_off_c,9,42,0,
2,240,Note_off_c,9,43,0,
2,240,Note_off_c,9,44,0,
2,240,Note_off_c,9,45,0,
2,240,Note_off_c,9,46,0,
2,240,Note_off_c,9,47,0,
2,240,Note_off_c,9,48,0,
2,240,Note_off_c,9,49,0,
2,240,Note_off_c,9,50,0,
2,240,Note_off_c,9,51,0,
2,240,Note_off_c,9,56,0,
2,240,Note_off_c,9,57,0,
2,240,Note_off_c,9,59,0,
2,240,Note_off_c,9,60,0,
2,240,Note_off_c,9,61,0,
2,240,Note_off_c,9,63,0,
2,240,Note_off_c,9,68,0,
2,240,Note_off_c,9,69,0,
2,240,Note_off_c,9,70,0,
2,240,Note_off_c,9,76,0,
2,240,Note_off_c,9,80,0,
2,240,Note_off_c,9,81,0,
2,240,Note_off_c,9,82,0,
2,240,Note_off_c,9,87,0,
2,240,Note_off_c,9,88,0,
2,240,Note_off_c,9,89,0,
2,240,Note_off_c,9,91,0,
2,240,Note_off_c,9,93,0,
2,260,Note_on_c,9,35,7,
2,260,Note_off_c,9,36,0,
2,260,Note_off_c,9,37,0,
2,260,Note_on_c,9,38,3,
2,260,Note_off_c,9,39,0,
2,260,Note_off_c,9,40,0,
2,260,Note_off_c,9,41,0,
2,260,Note_off_c,9,42,0,
2,260,Note_off_c,9,43,0,
2,260,Note_off_c,9,44,0,
2,260,Note_off_c,9,45,0,
2,260,Note_off_c,9,46,0,
2,260,Note_off_c,9,47,0,
2,260,Note_off_c,9,48,0,
2,260,Note_off_c,9,49,0,
2,260,Note_off_c,9,50,0,
2,260,Note_off_c,9,51,0,
2,260,Note_off_c,9,56,0,
2,260,Note_off_c,9,57,0,
2,260,Note_off_c,9,59,0,
2,260,Note_off_c,9,60,0,
2,260,Note_off_c,9,61,0,
2,260,Note_off_c,9,63,0,
2,260,Note_off_c,9,68,0,
2,260,Note_off_c,9,69,0,
2,260,Note_off_c,9,70,0,
2,260,Note_off_c,9,76,0,
2,260,Note_off_c,9,80,0,
2,260,Note_off_c,9,81,0,
2,260,Note_off_c,9,82,0,
2,260,Note_off_c,9,87,0,
2,260,Note_off_c,9,88,0,
2,260,Note_off_c,9,89,0,
2,260,Note_off_c,9,91,0,
2,260,Note_off_c,9,93,0,
2,280,Note_on_c,9,35,7,
2,280,Note_off_c,9,36,0,
2,280,Note_off_c,9,37,0,
2,280,Note_on_c,9,38,3,
2,280,Note_off_c,9,39,0,
2,280,Note_off_c,9,40,0,
2,280,Note_off_c,9,41,0,
2,280,Note_off_c,9,42,0,
2,280,Note_off_c,9,43,0,
2,280,Note_off_c,9,44,0,
2,280,Note_off_c,9,45,0,
2,280,Note_off_c,9,46,0,
2,280,Note_off_c,9,47,0,
2,280,Note_off_c,9,48,0,
2,280,Note_off_c,9,49,0,
2,280,Note_off_c,9,50,0,
2,280,Note_off_c,9,51,0,
2,280,Note_off_c,9,56,0,
2,280,Note_off_c,9,57,0,
2,280,Note_off_c,9,59,0,
2,280,Note_off_c,9,60,0,
2,280,Note_off_c,9,61,0,
2,280,Note_off_c,9,63,0,
2,280,Note_off_c,9,68,0,
2,280,Note_off_c,9,69,0,
2,280,Note_off_c,9,70,0,
2,280,Note_off_c,9,76,0,
2,280,Note_off_c,9,80,0,
2,280,Note_off_c,9,81,0,
2,280,Note_off_c,9,82,0,
2,280,Note_off_c,9,87,0,
2,280,Note_off_c,9,88,0,
2,280,Note_off_c,9,89,0,
2,280,Note_off_c,9,91,0,
2,280,Note_off_c,9,93,0,
2,300,Note_on_c,9,35,7,
2,300,Note_off_c,9,36,0,
2,300,Note_off_c,9,37,0,
2,300,Note_on_c,9,38,3,
2,300,Note_off_c,9,39,0,
2,300,Note_off_c,9,40,0,
2,300,Note_off_c,9,41,0,
2,300,Note_off_c,9,42,0,
2,300,Note_off_c,9,43,0,
2,300,Note_off_c,9,44,0,
2,300,Note_off_c,9,45,0,
2,300,Note_off_c,9,46,0,
2,300,Note_off_c,9,47,0,
2,300,Note_off_c,9,48,0,
2,300,Note_off_c,9,49,0,
2,300,Note_off_c,9,50,0,
2,300,Note_off_c,9,51,0,
2,300,Note_off_c,9,56,0,
2,300,Note_off_c,9,57,0,
2,300,Note_off_c,9,59,0,
2,300,Note_off_c,9,60,0,
2,300,Note_off_c,9,61,0,
2,300,Note_off_c,9,63,0,
2,300,Note_off_c,9,68,0,
2,300,Note_off_c,9,69,0,
2,300,Note_off_c,9,70,0,
2,300,Note_off_c,9,76,0,
2,300,Note_off_c,9,80,0,
2,300,Note_off_c,9,81,0,
2,300,Note_off_c,9,82,0,
2,300,Note_off_c,9,87,0,
2,300,Note_off_c,9,88,0,
2,300,Note_off_c,9,89,0,
2,300,Note_off_c,9,91,0,
2,300,Note_off_c,9,93,0,
2,320,Note_on_c,9,35,7,
2,320,Note_off_c,9,36,0,
2,320,Note_off_c,9,37,0,
2,320,Note_on_c,9,38,3,
2,320,Note_off_c,9,39,0,
2,320,Note_off_c,9,40,0,
2,320,Note_off_c,9,41,0,
2,320,Note_off_c,9,42,0,
2,320,Note_off_c,9,43,0,
2,320,Note_off_c,9,44,0,
2,320,Note_off_c,9,45,0,
2,320,Note_off_c,9,46,0,
2,320,Note_off_c,9,47,0,
2,320,Note_off_c,9,48,0,
2,320,Note_off_c,9,49,0,
2,320,Note_off_c,9,50,0,
2,320,Note_off_c,9,51,0,
2,320,Note_off_c,9,56,0,
2,320,Note_off_c,9,57,0,
2,320,Note_off_c,9,59,0,
2,320,Note_off_c,9,60,0,
2,320,Note_off_c,9,61,0,
2,320,Note_off_c,9,63,0,
2,320,Note_off_c,9,68,0,
2,320,Note_off_c,9,69,0,
2,320,Note_off_c,9,70,0,
2,320,Note_off_c,9,76,0,
2,320,Note_off_c,9,80,0,
2,320,Note_off_c,9,81,0,
2,320,Note_off_c,9,82,0,
2,320,Note_off_c,9,87,0,
2,320,Note_off_c,9,88,0,
2,320,Note_off_c,9,89,0,
2,320,Note_off_c,9,91,0,
2,320,Note_off_c,9,93,0,
2,340,Note_on_c,9,35,7,
2,340,Note_off_c,9,36,0,
2,340,Note_off_c,9,37,0,
2,340,Note_on_c,9,38,3,
2,340,Note_off_c,9,39,0,
2,340,Note_off_c,9,40,0,
2,340,Note_off_c,9,41,0,
2,340,Note_off_c,9,42,0,
2,340,Note_off_c,9,43,0,
2,340,Note_off_c,9,44,0,
2,340,Note_off_c,9,45,0,
2,340,Note_off_c,9,46,0,
2,340,Note_off_c,9,47,0,
2,340,Note_off_c,9,48,0,
2,340,Note_off_c,9,49,0,
2,340,Note_off_c,9,50,0,
2,340,Note_off_c,9,51,0,
2,340,Note_off_c,9,56,0,
2,340,Note_off_c,9,57,0,
2,340,Note_off_c,9,59,0,
2,340,Note_off_c,9,60,0,
2,340,Note_off_c,9,61,0,
2,340,Note_off_c,9,63,0,
2,340,Note_off_c,9,68,0,
2,340,Note_off_c,9,69,0,
2,340,Note_off_c,9,70,0,
2,340,Note_off_c,9,76,0,
2,340,Note_off_c,9,80,0,
2,340,Note_off_c,9,81,0,
2,340,Note_off_c,9,82,0,
2,340,Note_off_c,9,87,0,
2,340,Note_off_c,9,88,0,
2,340,Note_off_c,9,89,0,
2,340,Note_off_c,9,91,0,
2,340,Note_off_c,9,93,0,
2,360,Note_on_c,9,35,7,
2,360,Note_off_c,9,36,0,
2,360,Note_off_c,9,37,0,
2,360,Note_on_c,9,38,3,
2,360,Note_off_c,9,39,0,
2,360,Note_off_c,9,40,0,
2,360,Note_off_c,9,41,0,
2,360,Note_off_c,9,42,0,
2,360,Note_off_c,9,43,0,
2,360,Note_off_c,9,44,0,
2,360,Note_off_c,9,45,0,
2,360,Note_off_c,9,46,0,
2,360,Note_off_c,9,47,0,
2,360,Note_off_c,9,48,0,
2,360,Note_off_c,9,49,0,
2,360,Note_off_c,9,50,0,
2,360,Note_off_c,9,51,0,
2,360,Note_off_c,9,56,0,
2,360,Note_off_c,9,57,0,
2,360,Note_off_c,9,59,0,
2,360,Note_off_c,9,60,0,
2,360,Note_off_c,9,61,0,
2,360,Note_off_c,9,63,0,
2,360,Note_off_c,9,68,0,
2,360,Note_off_c,9,69,0,
2,360,Note_off_c,9,70,0,
2,360,Note_off_c,9,76,0,
2,360,Note_off_c,9,80,0,
2,360,Note_off_c,9,81,0,
2,360,Note_off_c,9,82,0,
2,360,Note_off_c,9,87,0,
2,360,Note_off_c,9,88,0,
2,360,Note_off_c,9,89,0,
2,360,Note_off_c,9,91,0,
2,360,Note_off_c,9,93,0,
2,380,Note_on_c,9,35,7,
2,380,Note_off_c,9,36,0,
2,380,Note_off_c,9,37,0,
2,380,Note_on_c,9,38,3,
2,380,Note_off_c,9,39,0,
2,380,Note_off_c,9,40,0,
2,380,Note_off_c,9,41,0,
2,380,Note_off_c,9,42,0,
2,380,Note_off_c,9,43,0,
2,380,Note_off_c,9,44,0,
2,380,Note_off_c,9,45,0,
2,380,Note_off_c,9,46,0,
2,380,Note_off_c,9,47,0,
2,380,Note_off_c,9,48,0,
2,380,Note_off_c,9,49,0,
2,380,Note_off_c,9,50,0,
2,380,Note_off_c,9,51,0,
2,380,Note_off_c,9,56,0,
2,380,Note_off_c,9,57,0,
2,380,Note_off_c,9,59,0,
2,380,Note_off_c,9,60,0,
2,380,Note_off_c,9,61,0,
2,380,Note_off_c,9,63,0,
2,380,Note_off_c,9,68,0,
2,380,Note_off_c,9,69,0,
2,380,Note_off_c,9,70,0,
2,380,Note_off_c,9,76,0,
2,380,Note_off_c,9,80,0,
2,380,Note_off_c,9,81,0,
2,380,Note_off_c,9,82,0,
2,380,Note_off_c,9,87,0,
2,380,Note_off_c,9,88,0,
2,380,Note_off_c,9,89,0,
2,380,Note_off_c,9,91,0,
2,380,Note_off_c,9,93,0,
2,400,Note_on_c,9,35,7,
2,400,Note_off_c,9,36,0,
2,400,Note_off_c,9,37,0,
2,400,Note_on_c,9,38,3,
2,400,Note_off_c,9,39,0,
2,400,Note_off_c,9,40,0,
2,400,Note_off_c,9,41,0,
2,400,Note_off_c,9,42,0,
2,400,Note_off_c,9,43,0,
2,400,Note_off_c,9,44,0,
2,400,Note_off_c,9,45,0,
2,400,Note_off_c,9,46,0,
2,400,Note_off_c,9,47,0,
2,400,Note_off_c,9,48,0,
2,400,Note_off_c,9,49,0,
2,400,Note_off_c,9,50,0,
2,400,Note_off_c,9,51,0,
2,400,Note_off_c,9,56,0,
2,400,Note_off_c,9,57,0,
2,400,Note_off_c,9,59,0,
2,400,Note_off_c,9,60,0,
2,400,Note_off_c,9,61,0,
2,400,Note_off_c,9,63,0,
2,400,Note_off_c,9,68,0,
2,400,Note_off_c,9,69,0,
2,400,Note_off_c,9,70,0,
2,400,Note_off_c,9,76,0,
2,400,Note_off_c,9,80,0,
2,400,Note_off_c,9,81,0,
2,400,Note_off_c,9,82,0,
2,400,Note_off_c,9,87,0,
2,400,Note_off_c,9,88,0,
2,400,Note_off_c,9,89,0,
2,400,Note_off_c,9,91,0,
2,400,Note_off_c,9,93,0,
2,420,Note_on_c,9,35,7,
2,420,Note_off_c,9,36,0,
2,420,Note_off_c,9,37,0,
2,420,Note_on_c,9,38,3,
2,420,Note_off_c,9,39,0,
2,420,Note_off_c,9,40,0,
2,420,Note_off_c,9,41,0,
2,420,Note_off_c,9,42,0,
2,420,Note_off_c,9,43,0,
2,420,Note_off_c,9,44,0,
2,420,Note_off_c,9,45,0,
2,420,Note_off_c,9,46,0,
2,420,Note_off_c,9,47,0,
2,420,Note_off_c,9,48,0,
2,420,Note_off_c,9,49,0,
2,420,Note_off_c,9,50,0,
2,420,Note_off_c,9,51,0,
2,420,Note_off_c,9,56,0,
2,420,Note_off_c,9,57,0,
2,420,Note_off_c,9,59,0,
2,420,Note_off_c,9,60,0,
2,420,Note_off_c,9,61,0,
2,420,Note_off_c,9,63,0,
2,420,Note_off_c,9,68,0,
2,420,Note_off_c,9,69,0,
2,420,Note_off_c,9,70,0,
2,420,Note_off_c,9,76,0,
2,420,Note_off_c,9,80,0,
2,420,Note_off_c,9,81,0,
2,420,Note_off_c,9,82,0,
2,420,Note_off_c,9,87,0,
2,420,Note_off_c,9,88,0,
2,420,Note_off_c,9,89,0,
2,420,Note_off_c,9,91,0,
2,420,Note_off_c,9,93,0,
2,440,Note_on_c,9,35,7,
2,440,Note_off_c,9,36,0,
2,440,Note_off_c,9,37,0,
2,440,Note_on_c,9,38,3,
2,440,Note_off_c,9,39,0,
2,440,Note_off_c,9,40,0,
2,440,Note_off_c,9,41,0,
2,440,Note_off_c,9,42,0,
2,440,Note_off_c,9,43,0,
2,440,Note_off_c,9,44,0,
2,440,Note_off_c,9,45,0,
2,440,Note_off_c,9,46,0,
2,440,Note_off_c,9,47,0,
2,440,Note_off_c,9,48,0,
2,440,Note_off_c,9,49,0,
2,440,Note_off_c,9,50,0,
2,440,Note_off_c,9,51,0,
2,440,Note_off_c,9,56,0,
2,440,Note_off_c,9,57,0,
2,440,Note_off_c,9,59,0,
2,440,Note_off_c,9,60,0,
2,440,Note_off_c,9,61,0,
2,440,Note_off_c,9,63,0,
2,440,Note_off_c,9,68,0,
2,440,Note_off_c,9,69,0,
2,440,Note_off_c,9,70,0,
2,440,Note_off_c,9,76,0,
2,440,Note_off_c,9,80,0,
2,440,Note_off_c,9,81,0,
2,440,Note_off_c,9,82,0,
2,440,Note_off_c,9,87,0,
2,440,Note_off_c,9,88,0,
2,440,Note_off_c,9,89,0,
2,440,Note_off_c,9,91,0,
2,440,Note_off_c,9,93,0,
2,460,Note_on_c,9,35,7,
2,460,Note_off_c,9,36,0,
2,460,Note_off_c,9,37,0,
2,460,Note_on_c,9,38,3,
2,460,Note_off_c,9,39,0,
2,460,Note_off_c,9,40,0,
2,460,Note_off_c,9,41,0,
2,460,Note_off_c,9,42,0,
2,460,Note_off_c,9,43,0,
2,460,Note_off_c,9,44,0,
2,460,Note_off_c,9,45,0,
2,460,Note_off_c,9,46,0,
2,460,Note_off_c,9,47,0,
2,460,Note_off_c,9,48,0,
2,460,Note_off_c,9,49,0,
2,460,Note_off_c,9,50,0,
2,460,Note_off_c,9,51,0,
2,460,Note_off_c,9,56,0,
2,460,Note_off_c,9,57,0,
2,460,Note_off_c,9,59,0,
2,460,Note_off_c,9,60,0,
2,460,Note_off_c,9,61,0,
2,460,Note_off_c,9,63,0,
2,460,Note_off_c,9,68,0,
2,460,Note_off_c,9,69,0,
2,460,Note_off_c,9,70,0,
2,460,Note_off_c,9,76,0,
2,460,Note_off_c,9,80,0,
2,460,Note_off_c,9,81,0,
2,460,Note_off_c,9,82,0,
2,460,Note_off_c,9,87,0,
2,460,Note_off_c,9,88,0,
2,460,Note_off_c,9,89,0,
2,460,Note_off_c,9,91,0,
2,460,Note_off_c,9,93,0,
2,480,Note_on_c,9,35,7,
2,480,Note_off_c,9,36,0,
2,480,Note_off_c,9,37,0,
2,480,Note_on_c,9,38,3,
2,480,Note_off_c,9,39,0,
2,480,Note_off_c,9,40,0,
2,480,Note_off_c,9,41,0,
2,480,Note_off_c,9,42,0,
2,480,Note_off_c,9,43,0,
2,480,Note_off_c,9,44,0,
2,480,Note_off_c,9,45,0,
2,480,Note_off_c,9,46,0,
2,480,Note_off_c,9,47,0,
2,480,Note_off_c,9,48,0,
2,480,Note_off_c,9,49,0,
2,480,Note_off_c,9,50,0,
2,480,Note_off_c,9,51,0,
2,480,Note_off_c,9,56,0,
2,480,Note_off_c,9,57,0,
2,480,Note_off_c,9,59,0,
2,480,Note_off_c,9,60,0,
2,480,Note_off_c,9,61,0,
2,480,Note_off_c,9,63,0,
2,480,Note_off_c,9,68,0,
2,480,Note_off_c,9,69,0,
2,480,Note_off_c,9,70,0,
2,480,Note_off_c,9,76,0,
2,480,Note_off_c,9,80,0,
2,480,Note_off_c,9,81,0,
2,480,Note_off_c,9,82,0,
2,480,Note_off_c,9,87,0,
2,480,Note_off_c,9,88,0,
2,480,Note_off_c,9,89,0,
2,480,Note_off_c,9,91,0,
2,480,Note_off_c,9,93,0,
2,500,Note_on_c,9,35,7,
2,500,Note_off_c,9,36,0,
2,500,Note_off_c,9,37,0,
2,500,Note_on_c,9,38,3,
2,500,Note_off_c,9,39,0,
2,500,Note_off_c,9,40,0,
2,500,Note_off_c,9,41,0,
2,500,Note_off_c,9,42,0,
2,500,Note_off_c,9,43,0,
2,500,Note_off_c,9,44,0,
2,500,Note_off_c,9,45,0,
2,500,Note_off_c,9,46,0,
2,500,Note_off_c,9,47,0,
2,500,Note_off_c,9,48,0,
2,500,Note_off_c,9,49,0,
2,500,Note_off_c,9,50,0,
2,500,Note_off_c,9,51,0,
2,500,Note_off_c,9,56,0,
2,500,Note_off_c,9,57,0,
2,500,Note_off_c,9,59,0,
2,500,Note_off_c,9,60,0,
2,500,Note_off_c,9,61,0,
2,500,Note_off_c,9,63,0,
2,500,Note_off_c,9,68,0,
2,500,Note_off_c,9,69,0,
2,500,Note_off_c,9,70,0,
2,500,Note_off_c,9,76,0,
2,500,Note_off_c,9,80,0,
2,500,Note_off_c,9,81,0,
2,500,Note_off_c,9,82,0,
2,500,Note_off_c,9,87,0,
2,500,Note_off_c,9,88,0,
2,500,Note_off_c,9,89,0,
2,500,Note_off_c,9,91,0,
2,500,Note_off_c,9,93,0,
2,520,Note_on_c,9,35,7,
2,520,Note_off_c,9,36,0,
2,520,Note_off_c,9,37,0,
2,520,Note_on_c,9,38,3,
2,520,Note_off_c,9,39,0,
2,520,Note_off_c,9,40,0,
2,520,Note_off_c,9,41,0,
2,520,Note_off_c,9,42,0,
2,520,Note_off_c,9,43,0,
2,520,Note_off_c,9,44,0,
2,520,Note_off_c,9,45,0,
2,520,Note_off_c,9,46,0,
2,520,Note_off_c,9,47,0,
2,520,Note_off_c,9,48,0,
2,520,Note_off_c,9,49,0,
2,520,Note_off_c,9,50,0,
2,520,Note_off_c,9,51,0,
2,520,Note_off_c,9,56,0,
2,520,Note_off_c,9,57,0,
2,520,Note_off_c,9,59,0,
2,520,Note_off_c,9,60,0,
2,520,Note_off_c,9,61,0,
2,520,Note_off_c,9,63,0,
2,520,Note_off_c,9,68,0,
2,520,Note_off_c,9,69,0,
2,520,Note_off_c,9,70,0,
2,520,Note_off_c,9,76,0,
2,520,Note_off_c,9,80,0,
2,520,Note_off_c,9,81,0,
2,520,Note_off_c,9,82,0,
2,520,Note_off_c,9,87,0,
2,520,Note_off_c,9,88,0,
2,520,Note_off_c,9,89,0,
2,520,Note_off_c,9,91,0,
2,520,Note_off_c,9,93,0,
2,540,Note_on_c,9,35,7,
2,540,Note_off_c,9,36,0,
2,540,Note_off_c,9,37,0,
2,540,Note_on_c,9,38,3,
2,540,Note_off_c,9,39,0,
2,540,Note_off_c,9,40,0,
2,540,Note_off_c,9,41,0,
2,540,Note_off_c,9,42,0,
2,540,Note_off_c,9,43,0,
2,540,Note_off_c,9,44,0,
2,540,Note_off_c,9,45,0,
2,540,Note_off_c,9,46,0,
2,540,Note_off_c,9,47,0,
2,540,Note_off_c,9,48,0,
2,540,Note_off_c,9,49,0,
2,540,Note_off_c,9,50,0,
2,540,Note_off_c,9,51,0,
2,540,Note_off_c,9,56,0,
2,540,Note_off_c,9,57,0,
2,540,Note_off_c,9,59,0,
2,540,Note_off_c,9,60,0,
2,540,Note_off_c,9,61,0,
2,540,Note_off_c,9,63,0,
2,540,Note_off_c,9,68,0,
2,540,Note_off_c,9,69,0,
2,540,Note_off_c,9,70,0,
2,540,Note_off_c,9,76,0,
2,540,Note_off_c,9,80,0,
2,540,Note_off_c,9,81,0,
2,540,Note_off_c,9,82,0,
2,540,Note_off_c,9,87,0,
2,540,Note_off_c,9,88,0,
2,540,Note_off_c,9,89,0,
2,540,Note_off_c,9,91,0,
2,540,Note_off_c,9,93,0,
2,560,Note_on_c,9,35,7,
2,560,Note_off_c,9,36,0,
2,560,Note_off_c,9,37,0,
2,560,Note_on_c,9,38,3,
2,560,Note_off_c,9,39,0,
2,560,Note_off_c,9,40,0,
2,560,Note_off_c,9,41,0,
2,560,Note_off_c,9,42,0,
2,560,Note_off_c,9,43,0,
2,560,Note_off_c,9,44,0,
2,560,Note_off_c,9,45,0,
2,560,Note_off_c,9,46,0,
2,560,Note_off_c,9,47,0,
2,560,Note_off_c,9,48,0,
2,560,Note_off_c,9,49,0,
2,560,Note_off_c,9,50,0,
2,560,Note_off_c,9,51,0,
2,560,Note_off_c,9,56,0,
2,560,Note_off_c,9,57,0,
2,560,Note_off_c,9,59,0,
2,560,Note_off_c,9,60,0,
2,560,Note_off_c,9,61,0,
2,560,Note_off_c,9,63,0,
2,560,Note_off_c,9,68,0,
2,560,Note_off_c,9,69,0,
2,560,Note_off_c,9,70,0,
2,560,Note_off_c,9,76,0,
2,560,Note_off_c,9,80,0,
2,560,Note_off_c,9,81,0,
2,560,Note_off_c,9,82,0,
2,560,Note_off_c,9,87,0,
2,560,Note_off_c,9,88,0,
2,560,Note_off_c,9,89,0,
2,560,Note_off_c,9,91,0,
2,560,Note_off_c,9,93,0,
2,580,Note_on_c,9,35,7,
2,580,Note_off_c,9,36,0,
2,580,Note_off_c,9,37,0,
2,580,Note_on_c,9,38,3,
2,580,Note_off_c,9,39,0,
2,580,Note_off_c,9,40,0,
2,580,Note_off_c,9,41,0,
2,580,Note_off_c,9,42,0,
2,580,Note_off_c,9,43,0,
2,580,Note_off_c,9,44,0,
2,580,Note_off_c,9,45,0,
2,580,Note_off_c,9,46,0,
2,580,Note_off_c,9,47,0,
2,580,Note_off_c,9,48,0,
2,580,Note_off_c,9,49,0,
2,580,Note_off_c,9,50,0,
2,580,Note_off_c,9,51,0,
2,580,Note_off_c,9,56,0,
2,580,Note_off_c,9,57,0,
2,580,Note_off_c,9,59,0,
2,580,Note_off_c,9,60,0,
2,580,Note_off_c,9,61,0,
2,580,Note_off_c,9,63,0,
2,580,Note_off_c,9,68,0,
2,580,Note_off_c,9,69,0,
2,580,Note_off_c,9,70,0,
2,580,Note_off_c,9,76,0,
2,580,Note_off_c,9,80,0,
2,580,Note_off_c,9,81,0,
2,580,Note_off_c,9,82,0,
2,580,Note_off_c,9,87,0,
2,580,Note_off_c,9,88,0,
2,580,Note_off_c,9,89,0,
2,580,Note_off_c,9,91,0,
2,580,Note_off_c,9,93,0,
2,600,Note_on_c,9,35,7,
2,600,Note_off_c,9,36,0,
2,600,Note_off_c,9,37,0,
2,600,Note_on_c,9,38,3,
2,600,Note_off_c,9,39,0,
2,600,Note_off_c,9,40,0,
2,600,Note_off_c,9,41,0,
2,600,Note_off_c,9,42,0,
2,600,Note_off_c,9,43,0,
2,600,Note_off_c,9,44,0,
2,600,Note_off_c,9,45,0,
2,600,Note_off_c,9,46,0,
2,600,Note_off_c,9,47,0,
2,600,Note_off_c,9,48,0,
2,600,Note_off_c,9,49,0,
2,600,Note_off_c,9,50,0,
2,600,Note_off_c,9,51,0,
2,600,Note_off_c,9,56,0,
2,600,Note_off_c,9,57,0,
2,600,Note_off_c,9,59,0,
2,600,Note_off_c,9,60,0,
2,600,Note_off_c,9,61,0,
2,600,Note_off_c,9,63,0,
2,600,Note_off_c,9,68,0,
2,600,Note_off_c,9,69,0,
2,600,Note_off_c,9,70,0,
2,600,Note_off_c,9,76,0,
2,600,Note_off_c,9,80,0,
2,600,Note_off_c,9,81,0,
2,600,Note_off_c,9,82,0,
2,600,Note_off_c,9,87,0,
2,600,Note_off_c,9,88,0,
2,600,Note_off_c,9,89,0,
2,600,Note_off_c,9,91,0,
2,600,Note_off_c,9,93,0,
2,620,Note_on_c,9,35,7,
2,620,Note_off_c,9,36,0,
2,620,Note_off_c,9,37,0,
2,620,Note_on_c,9,38,3,
2,620,Note_off_c,9,39,0,
2,620,Note_off_c,9,40,0,
2,620,Note_off_c,9,41,0,
2,620,Note_off_c,9,42,0,
2,620,Note_off_c,9,43,0,
2,620,Note_off_c,9,44,0,
2,620,Note_off_c,9,45,0,
2,620,Note_off_c,9,46,0,
2,620,Note_off_c,9,47,0,
2,620,Note_off_c,9,48,0,
2,620,Note_off_c,9,49,0,
2,620,Note_off_c,9,50,0,
2,620,Note_off_c,9,51,0,
2,620,Note_off_c,9,56,0,
2,620,Note_off_c,9,57,0,
2,620,Note_off_c,9,59,0,
2,620,Note_off_c,9,60,0,
2,620,Note_off_c,9,61,0,
2,620,Note_off_c,9,63,0,
2,620,Note_off_c,9,68,0,
2,620,Note_off_c,9,69,0,
2,620,Note_off_c,9,70,0,
2,620,Note_off_c,9,76,0,
2,620,Note_off_c,9,80,0,
2,620,Note_off_c,9,81,0,
2,620,Note_off_c,9,82,0,
2,620,Note_off_c,9,87,0,
2,620,Note_off_c,9,88,0,
2,620,Note_off_c,9,89,0,
2,620,Note_off_c,9,91,0,
2,620,Note_off_c,9,93,0,
2,640,Note_on_c,9,35,7,
2,640,Note_off_c,9,36,0,
2,640,Note_off_c,9,37,0,
2,640,Note_on_c,9,38,3,
2,640,Note_off_c,9,39,0,
2,640,Note_off_c,9,40,0,
2,640,Note_off_c,9,41,0,
2,640,Note_off_c,9,42,0,
2,640,Note_off_c,9,43,0,
2,640,Note_off_c,9,44,0,
2,640,Note_off_c,9,45,0,
2,640,Note_off_c,9,46,0,
2,640,Note_off_c,9,47,0,
2,640,Note_off_c,9,48,0,
2,640,Note_off_c,9,49,0,
2,640,Note_off_c,9,50,0,
2,640,Note_off_c,9,51,0,
2,640,Note_off_c,9,56,0,
2,640,Note_off_c,9,57,0,
2,640,Note_off_c,9,59,0,
2,640,Note_off_c,9,60,0,
2,640,Note_off_c,9,61,0,
2,640,Note_off_c,9,63,0,
2,640,Note_off_c,9,68,0,
2,640,Note_off_c,9,69,0,
2,640,Note_off_c,9,70,0,
2,640,Note_off_c,9,76,0,
2,640,Note_off_c,9,80,0,
2,640,Note_off_c,9,81,0,
2,640,Note_off_c,9,82,0,
2,640,Note_off_c,9,87,0,
2,640,Note_off_c,9,88,0,
2,640,Note_off_c,9,89,0,
2,640,Note_off_c,9,91,0,
2,640,Note_off_c,9,93,0,
2,660,Note_on_c,9,35,7,
2,660,Note_off_c,9,36,0,
2,660,Note_off_c,9,37,0,
2,660,Note_on_c,9,38,3,
2,660,Note_off_c,9,39,0,
2,660,Note_off_c,9,40,0,
2,660,Note_off_c,9,41,0,
2,660,Note_off_c,9,42,0,
2,660,Note_off_c,9,43,0,
2,660,Note_off_c,9,44,0,
2,660,Note_off_c,9,45,0,
2,660,Note_off_c,9,46,0,
2,660,Note_off_c,9,47,0,
2,660,Note_off_c,9,48,0,
2,660,Note_off_c,9,49,0,
2,660,Note_off_c,9,50,0,
2,660,Note_off_c,9,51,0,
2,660,Note_off_c,9,56,0,
2,660,Note_off_c,9,57,0,
2,660,Note_off_c,9,59,0,
2,660,Note_off_c,9,60,0,
2,660,Note_off_c,9,61,0,
2,660,Note_off_c,9,63,0,
2,660,Note_off_c,9,68,0,
2,660,Note_off_c,9,69,0,
2,660,Note_off_c,9,70,0,
2,660,Note_off_c,9,76,0,
2,660,Note_off_c,9,80,0,
2,660,Note_off_c,9,81,0,
2,660,Note_off_c,9,82,0,
2,660,Note_off_c,9,87,0,
2,660,Note_off_c,9,88,0,
2,660,Note_off_c,9,89,0,
2,660,Note_off_c,9,91,0,
2,660,Note_off_c,9,93,0,
2,680,Note_on_c,9,35,7,
2,680,Note_off_c,9,36,0,
2,680,Note_off_c,9,37,0,
2,680,Note_on_c,9,38,3,
2,680,Note_off_c,9,39,0,
2,680,Note_off_c,9,40,0,
2,680,Note_off_c,9,41,0,
2,680,Note_off_c,9,42,0,
2,680,Note_off_c,9,43,0,
2,680,Note_off_c,9,44,0,
2,680,Note_off_c,9,45,0,
2,680,Note_off_c,9,46,0,
2,680,Note_off_c,9,47,0,
2,680,Note_off_c,9,48,0,
2,680,Note_off_c,9,49,0,
2,680,Note_off_c,9,50,0,
2,680,Note_off_c,9,51,0,
2,680,Note_off_c,9,56,0,
2,680,Note_off_c,9,57,0,
2,680,Note_off_c,9,59,0,
2,680,Note_off_c,9,60,0,
2,680,Note_off_c,9,61,0,
2,680,Note_off_c,9,63,0,
2,680,Note_off_c,9,68,0,
2,680,Note_off_c,9,69,0,
2,680,Note_off_c,9,70,0,
2,680,Note_off_c,9,76,0,
2,680,Note_off_c,9,80,0,
2,680,Note_off_c,9,81,0,
2,680,Note_off_c,9,82,0,
2,680,Note_off_c,9,87,0,
2,680,Note_off_c,9,88,0,
2,680,Note_off_c,9,89,0,
2,680,Note_off_c,9,91,0,
2,680,Note_off_c,9,93,0,
2,700,Note_on_c,9,35,7,
2,700,Note_off_c,9,36,0,
2,700,Note_off_c,9,37,0,
2,700,Note_on_c,9,38,3,
2,700,Note_off_c,9,39,0,
2,700,Note_off_c,9,40,0,
2,700,Note_off_c,9,41,0,
2,700,Note_off_c,9,42,0,
2,700,Note_off_c,9,43,0,
2,700,Note_off_c,9,44,0,
2,700,Note_off_c,9,45,0,
2,700,Note_off_c,9,46,0,
2,700,Note_off_c,9,47,0,
2,700,Note_off_c,9,48,0,
2,700,Note_off_c,9,49,0,
2,700,Note_off_c,9,50,0,
2,700,Note_off_c,9,51,0,
2,700,Note_off_c,9,56,0,
2,700,Note_off_c,9,57,0,
2,700,Note_off_c,9,59,0,
2,700,Note_off_c,9,60,0,
2,700,Note_off_c,9,61,0,
2,700,Note_off_c,9,63,0,
2,700,Note_off_c,9,68,0,
2,700,Note_off_c,9,69,0,
2,700,Note_off_c,9,70,0,
2,700,Note_off_c,9,76,0,
2,700,Note_off_c,9,80,0,
2,700,Note_off_c,9,81,0,
2,700,Note_off_c,9,82,0,
2,700,Note_off_c,9,87,0,
2,700,Note_off_c,9,88,0,
2,700,Note_off_c,9,89,0,
2,700,Note_off_c,9,91,0,
2,700,Note_off_c,9,93,0,
2,720,Note_on_c,9,35,7,
2,720,Note_off_c,9,36,0,
2,720,Note_off_c,9,37,0,
2,720,Note_on_c,9,38,3,
2,720,Note_off_c,9,39,0,
2,720,Note_off_c,9,40,0,
2,720,Note_off_c,9,41,0,
2,720,Note_off_c,9,42,0,
2,720,Note_off_c,9,43,0,
2,720,Note_off_c,9,44,0,
2,720,Note_off_c,9,45,0,
2,720,Note_off_c,9,46,0,
2,720,Note_off_c,9,47,0,
2,720,Note_off_c,9,48,0,
2,720,Note_off_c,9,49,0,
2,720,Note_off_c,9,50,0,
2,720,Note_off_c,9,51,0,
2,720,Note_off_c,9,56,0,
2,720,Note_off_c,9,57,0,
2,720,Note_off_c,9,59,0,
2,720,Note_off_c,9,60,0,
2,720,Note_off_c,9,61,0,
2,720,Note_off_c,9,63,0,
2,720,Note_off_c,9,68,0,
2,720,Note_off_c,9,69,0,
2,720,Note_off_c,9,70,0,
2,720,Note_off_c,9,76,0,
2,720,Note_off_c,9,80,0,
2,720,Note_off_c,9,81,0,
2,720,Note_off_c,9,82,0,
2,720,Note_off_c,9,87,0,
2,720,Note_off_c,9,88,0,
2,720,Note_off_c,9,89,0,
2,720,Note_off_c,9,91,0,
2,720,Note_off_c,9,93,0,
2,740,Note_on_c,9,35,7,
2,740,Note_off_c,9,36,0,
2,740,Note_off_c,9,37,0,
2,740,Note_on_c,9,38,3,
2,740,Note_off_c,9,39,0,
2,740,Note_off_c,9,40,0,
2,740,Note_off_c,9,41,0,
2,740,Note_off_c,9,42,0,
2,740,Note_off_c,9,43,0,
2,740,Note_off_c,9,44,0,
2,740,Note_off_c,9,45,0,
2,740,Note_off_c,9,46,0,
2,740,Note_off_c,9,47,0,
2,740,Note_off_c,9,48,0,
2,740,Note_off_c,9,49,0,
2,740,Note_off_c,9,50,0,
2,740,Note_off_c,9,51,0,
2,740,Note_off_c,9,56,0,
2,740,Note_off_c,9,57,0,
2,740,Note_off_c,9,59,0,
2,740,Note_off_c,9,60,0,
2,740,Note_off_c,9,61,0,
2,740,Note_off_c,9,63,0,
2,740,Note_off_c,9,68,0,
2,740,Note_off_c,9,69,0,
2,740,Note_off_c,9,70,0,
2,740,Note_off_c,9,76,0,
2,740,Note_off_c,9,80,0,
2,740,Note_off_c,9,81,0,
2,740,Note_off_c,9,82,0,
2,740,Note_off_c,9,87,0,
2,740,Note_off_c,9,88,0,
2,740,Note_off_c,9,89,0,
2,740,Note_off_c,9,91,0,
2,740,Note_off_c,9,93,0,
2,760,Note_on_c,9,35,7,
2,760,Note_off_c,9,36,0,
2,760,Note_off_c,9,37,0,
2,760,Note_on_c,9,38,3,
2,760,Note_off_c,9,39,0,
2,760,Note_off_c,9,40,0,
2,760,Note_off_c,9,41,0,
2,760,Note_off_c,9,42,0,
2,760,Note_off_c,9,43,0,
2,760,Note_off_c,9,44,0,
2,760,Note_off_c,9,45,0,
2,760,Note_off_c,9,46,0,
2,760,Note_off_c,9,47,0,
2,760,Note_off_c,9,48,0,
2,760,Note_off_c,9,49,0,
2,760,Note_off_c,9,50,0,
2,760,Note_off_c,9,51,0,
2,760,Note_off_c,9,56,0,
2,760,Note_off_c,9,57,0,
2,760,Note_off_c,9,59,0,
2,760,Note_off_c,9,60,0,
2,760,Note_off_c,9,61,0,
2,760,Note_off_c,9,63,0,
2,760,Note_off_c,9,68,0,
2,760,Note_off_c,9,69,0,
2,760,Note_off_c,9,70,0,
2,760,Note_off_c,9,76,0,
2,760,Note_off_c,9,80,0,
2,760,Note_off_c,9,81,0,
2,760,Note_off_c,9,82,0,
2,760,Note_off_c,9,87,0,
2,760,Note_off_c,9,88,0,
2,760,Note_off_c,9,89,0,
2,760,Note_off_c,9,91,0,
2,760,Note_off_c,9,93,0,
2,780,Note_on_c,9,35,7,
2,780,Note_off_c,9,36,0,
2,780,Note_off_c,9,37,0,
2,780,Note_on_c,9,38,3,
2,780,Note_off_c,9,39,0,
2,780,Note_off_c,9,40,0,
2,780,Note_off_c,9,41,0,
2,780,Note_off_c,9,42,0,
2,780,Note_off_c,9,43,0,
2,780,Note_off_c,9,44,0,
2,780,Note_off_c,9,45,0,
2,780,Note_off_c,9,46,0,
2,780,Note_off_c,9,47,0,
2,780,Note_off_c,9,48,0,
2,780,Note_off_c,9,49,0,
2,780,Note_off_c,9,50,0,
2,780,Note_off_c,9,51,0,
2,780,Note_off_c,9,56,0,
2,780,Note_off_c,9,57,0,
2,780,Note_off_c,9,59,0,
2,780,Note_off_c,9,60,0,
2,780,Note_off_c,9,61,0,
2,780,Note_off_c,9,63,0,
2,780,Note_off_c,9,68,0,
2,780,Note_off_c,9,69,0,
2,780,Note_off_c,9,70,0,
2,780,Note_off_c,9,76,0,
2,780,Note_off_c,9,80,0,
2,780,Note_off_c,9,81,0,
2,780,Note_off_c,9,82,0,
2,780,Note_off_c,9,87,0,
2,780,Note_off_c,9,88,0,
2,780,Note_off_c,9,89,0,
2,780,Note_off_c,9,91,0,
2,780,Note_off_c,9,93,0,
2,800,Note_on_c,9,35,7,
2,800,Note_off_c,9,36,0,
2,800,Note_off_c,9,37,0,
2,800,Note_on_c,9,38,3,
2,800,Note_off_c,9,39,0,
2,800,Note_off_c,9,40,0,
2,800,Note_off_c,9,41,0,
2,800,Note_off_c,9,42,0,
2,800,Note_off_c,9,43,0,
2,800,Note_off_c,9,44,0,
2,800,Note_off_c,9,45,0,
2,800,Note_off_c,9,46,0,
2,800,Note_off_c,9,47,0,
2,800,Note_off_c,9,48,0,
2,800,Note_off_c,9,49,0,
2,800,Note_off_c,9,50,0,
2,800,Note_off_c,9,51,0,
2,800,Note_off_c,9,56,0,
2,800,Note_off_c,9,57,0,
2,800,Note_off_c,9,59,0,
2,800,Note_off_c,9,60,0,
2,800,Note_off_c,9,61,0,
2,800,Note_off_c,9,63,0,
2,800,Note_off_c,9,68,0,
2,800,Note_off_c,9,69,0,
2,800,Note_off_c,9,70,0,
2,800,Note_off_c,9,76,0,
2,800,Note_off_c,9,80,0,
2,800,Note_off_c,9,81,0,
2,800,Note_off_c,9,82,0,
2,800,Note_off_c,9,87,0,
2,800,Note_off_c,9,88,0,
2,800,Note_off_c,9,89,0,
2,800,Note_off_c,9,91,0,
2,800,Note_off_c,9,93,0,
2,820,Note_on_c,9,35,7,
2,820,Note_off_c,9,36,0,
2,820,Note_off_c,9,37,0,
2,820,Note_on_c,9,38,3,
2,820,Note_off_c,9,39,0,
2,820,Note_off_c,9,40,0,
2,820,Note_off_c,9,41,0,
2,820,Note_off_c,9,42,0,
2,820,Note_off_c,9,43,0,
2,820,Note_off_c,9,44,0,
2,820,Note_off_c,9,45,0,
2,820,Note_off_c,9,46,0,
2,820,Note_off_c,9,47,0,
2,820,Note_off_c,9,48,0,
2,820,Note_off_c,9,49,0,
2,820,Note_off_c,9,50,0,
2,820,Note_off_c,9,51,0,
2,820,Note_off_c,9,56,0,
2,820,Note_off_c,9,57,0,
2,820,Note_off_c,9,59,0,
2,820,Note_off_c,9,60,0,
2,820,Note_off_c,9,61,0,
2,820,Note_off_c,9,63,0,
2,820,Note_off_c,9,68,0,
2,820,Note_off_c,9,69,0,
2,820,Note_off_c,9,70,0,
2,820,Note_off_c,9,76,0,
2,820,Note_off_c,9,80,0,
2,820,Note_off_c,9,81,0,
2,820,Note_off_c,9,82,0,
2,820,Note_off_c,9,87,0,
2,820,Note_off_c,9,88,0,
2,820,Note_off_c,9,89,0,
2,820,Note_off_c,9,91,0,
2,820,Note_off_c,9,93,0,
2,840,Note_on_c,9,35,7,
2,840,Note_off_c,9,36,0,
2,840,Note_off_c,9,37,0,
2,840,Note_on_c,9,38,3,
2,840,Note_off_c,9,39,0,
2,840,Note_off_c,9,40,0,
2,840,Note_off_c,9,41,0,
2,840,Note_off_c,9,42,0,
2,840,Note_off_c,9,43,0,
2,840,Note_off_c,9,44,0,
2,840,Note_off_c,9,45,0,
2,840,Note_off_c,9,46,0,
2,840,Note_off_c,9,47,0,
2,840,Note_off_c,9,48,0,
2,840,Note_off_c,9,49,0,
2,840,Note_off_c,9,50,0,
2,840,Note_off_c,9,51,0,
2,840,Note_off_c,9,56,0,
2,840,Note_off_c,9,57,0,
2,840,Note_off_c,9,59,0,
2,840,Note_off_c,9,60,0,
2,840,Note_off_c,9,61,0,
2,840,Note_off_c,9,63,0,
2,840,Note_off_c,9,68,0,
2,840,Note_off_c,9,69,0,
2,840,Note_off_c,9,70,0,
2,840,Note_off_c,9,76,0,
2,840,Note_off_c,9,80,0,
2,840,Note_off_c,9,81,0,
2,840,Note_off_c,9,82,0,
2,840,Note_off_c,9,87,0,
2,840,Note_off_c,9,88,0,
2,840,Note_off_c,9,89,0,
2,840,Note_off_c,9,91,0,
2,840,Note_off_c,9,93,0,
2,860,Note_on_c,9,35,7,
2,860,Note_off_c,9,36,0,
2,860,Note_off_c,9,37,0,
2,860,Note_on_c,9,38,3,
2,860,Note_off_c,9,39,0,
2,860,Note_off_c,9,40,0,
2,860,Note_off_c,9,41,0,
2,860,Note_off_c,9,42,0,
2,860,Note_off_c,9,43,0,
2,860,Note_off_c,9,44,0,
2,860,Note_off_c,9,45,0,
2,860,Note_off_c,9,46,0,
2,860,Note_off_c,9,47,0,
2,860,Note_off_c,9,48,0,
2,860,Note_off_c,9,49,0,
2,860,Note_off_c,9,50,0,
2,860,Note_off_c,9,51,0,
2,860,Note_off_c,9,56,0,
2,860,Note_off_c,9,57,0,
2,860,Note_off_c,9,59,0,
2,860,Note_off_c,9,60,0,
2,860,Note_off_c,9,61,0,
2,860,Note_off_c,9,63,0,
2,860,Note_off_c,9,68,0,
2,860,Note_off_c,9,69,0,
2,860,Note_off_c,9,70,0,
2,860,Note_off_c,9,76,0,
2,860,Note_off_c,9,80,0,
2,860,Note_off_c,9,81,0,
2,860,Note_off_c,9,82,0,
2,860,Note_off_c,9,87,0,
2,860,Note_off_c,9,88,0,
2,860,Note_off_c,9,89,0,
2,860,Note_off_c,9,91,0,
2,860,Note_off_c,9,93,0,
2,880,Note_on_c,9,35,7,
2,880,Note_off_c,9,36,0,
2,880,Note_off_c,9,37,0,
2,880,Note_on_c,9,38,3,
2,880,Note_off_c,9,39,0,
2,880,Note_off_c,9,40,0,
2,880,Note_off_c,9,41,0,
2,880,Note_off_c,9,42,0,
2,880,Note_off_c,9,43,0,
2,880,Note_off_c,9,44,0,
2,880,Note_off_c,9,45,0,
2,880,Note_off_c,9,46,0,
2,880,Note_off_c,9,47,0,
2,880,Note_off_c,9,48,0,
2,880,Note_off_c,9,49,0,
2,880,Note_off_c,9,50,0,
2,880,Note_off_c,9,51,0,
2,880,Note_off_c,9,56,0,
2,880,Note_off_c,9,57,0,
2,880,Note_off_c,9,59,0,
2,880,Note_off_c,9,60,0,
2,880,Note_off_c,9,61,0,
2,880,Note_off_c,9,63,0,
2,880,Note_off_c,9,68,0,
2,880,Note_off_c,9,69,0,
2,880,Note_off_c,9,70,0,
2,880,Note_off_c,9,76,0,
2,880,Note_off_c,9,80,0,
2,880,Note_off_c,9,81,0,
2,880,Note_off_c,9,82,0,
2,880,Note_off_c,9,87,0,
2,880,Note_off_c,9,88,0,
2,880,Note_off_c,9,89,0,
2,880,Note_off_c,9,91,0,
2,880,Note_off_c,9,93,0,
2,900,Note_on_c,9,35,7,
2,900,Note_off_c,9,36,0,
2,900,Note_off_c,9,37,0,
2,900,Note_on_c,9,38,3,
2,900,Note_off_c,9,39,0,
2,900,Note_off_c,9,40,0,
2,900,Note_off_c,9,41,0,
2,900,Note_off_c,9,42,0,
2,900,Note_off_c,9,43,0,
2,900,Note_off_c,9,44,0,
2,900,Note_off_c,9,45,0,
2,900,Note_off_c,9,46,0,
2,900,Note_off_c,9,47,0,
2,900,Note_off_c,9,48,0,
2,900,Note_off_c,9,49,0,
2,900,Note_off_c,9,50,0,
2,900,Note_off_c,9,51,0,
2,900,Note_off_c,9,56,0,
2,900,Note_off_c,9,57,0,
2,900,Note_off_c,9,59,0,
2,900,Note_off_c,9,60,0,
2,900,Note_off_c,9,61,0,
2,900,Note_off_c,9,63,0,
2,900,Note_off_c,9,68,0,
2,900,Note_off_c,9,69,0,
2,900,Note_off_c,9,70,0,
2,900,Note_off_c,9,76,0,
2,900,Note_off_c,9,80,0,
2,900,Note_off_c,9,81,0,
2,900,Note_off_c,9,82,0,
2,900,Note_off_c,9,87,0,
2,900,Note_off_c,9,88,0,
2,900,Note_off_c,9,89,0,
2,900,Note_off_c,9,91,0,
2,900,Note_off_c,9,93,0,
2,920,Note_on_c,9,35,7,
2,920,Note_off_c,9,36,0,
2,920,Note_off_c,9,37,0,
2,920,Note_on_c,9,38,3,
2,920,Note_off_c,9,39,0,
2,920,Note_off_c,9,40,0,
2,920,Note_off_c,9,41,0,
2,920,Note_off_c,9,42,0,
2,920,Note_off_c,9,43,0,
2,920,Note_off_c,9,44,0,
2,920,Note_off_c,9,45,0,
2,920,Note_off_c,9,46,0,
2,920,Note_off_c,9,47,0,
2,920,Note_off_c,9,48,0,
2,920,Note_off_c,9,49,0,
2,920,Note_off_c,9,50,0,
2,920,Note_off_c,9,51,0,
2,920,Note_off_c,9,56,0,
2,920,Note_off_c,9,57,0,
2,920,Note_off_c,9,59,0,
2,920,Note_off_c,9,60,0,
2,920,Note_off_c,9,61,0,
2,920,Note_off_c,9,63,0,
2,920,Note_off_c,9,68,0,
2,920,Note_off_c,9,69,0,
2,920,Note_off_c,9,70,0,
2,920,Note_off_c,9,76,0,
2,920,Note_off_c,9,80,0,
2,920,Note_off_c,9,81,0,
2,920,Note_off_c,9,82,0,
2,920,Note_off_c,9,87,0,
2,920,Note_off_c,9,88,0,
2,920,Note_off_c,9,89,0,
2,920,Note_off_c,9,91,0,
2,920,Note_off_c,9,93,0,
2,940,Note_on_c,9,35,7,
2,940,Note_off_c,9,36,0,
2,940,Note_off_c,9,37,0,
2,940,Note_on_c,9,38,3,
2,940,Note_off_c,9,39,0,
2,940,Note_off_c,9,40,0,
2,940,Note_off_c,9,41,0,
2,940,Note_off_c,9,42,0,
2,940,Note_off_c,9,43,0,
2,940,Note_off_c,9,44,0,
2,940,Note_off_c,9,45,0,
2,940,Note_off_c,9,46,0,
2,940,Note_off_c,9,47,0,
2,940,Note_off_c,9,48,0,
2,940,Note_off_c,9,49,0,
2,940,Note_off_c,9,50,0,
2,940,Note_off_c,9,51,0,
2,940,Note_off_c,9,56,0,
2,940,Note_off_c,9,57,0,
2,940,Note_off_c,9,59,0,
2,940,Note_off_c,9,60,0,
2,940,Note_off_c,9,61,0,
2,940,Note_off_c,9,63,0,
2,940,Note_off_c,9,68,0,
2,940,Note_off_c,9,69,0,
2,940,Note_off_c,9,70,0,
2,940,Note_off_c,9,76,0,
2,940,Note_off_c,9,80,0,
2,940,Note_off_c,9,81,0,
2,940,Note_off_c,9,82,0,
2,940,Note_off_c,9,87,0,
2,940,Note_off_c,9,88,0,
2,940,Note_off_c,9,89,0,
2,940,Note_off_c,9,91,0,
2,940,Note_off_c,9,93,0,
2,960,Note_on_c,9,35,7,
2,960,Note_off_c,9,36,0,
2,960,Note_off_c,9,37,0,
2,960,Note_on_c,9,38,3,
2,960,Note_off_c,9,39,0,
2,960,Note_off_c,9,40,0,
2,960,Note_off_c,9,41,0,
2,960,Note_off_c,9,42,0,
2,960,Note_off_c,9,43,0,
2,960,Note_off_c,9,44,0,
2,960,Note_off_c,9,45,0,
2,960,Note_off_c,9,46,0,
2,960,Note_off_c,9,47,0,
2,960,Note_off_c,9,48,0,
2,960,Note_off_c,9,49,0,
2,960,Note_off_c,9,50,0,
2,960,Note_off_c,9,51,0,
2,960,Note_off_c,9,56,0,
2,960,Note_off_c,9,57,0,
2,960,Note_off_c,9,59,0,
2,960,Note_off_c,9,60,0,
2,960,Note_off_c,9,61,0,
2,960,Note_off_c,9,63,0,
2,960,Note_off_c,9,68,0,
2,960,Note_off_c,9,69,0,
2,960,Note_off_c,9,70,0,
2,960,Note_off_c,9,76,0,
2,960,Note_off_c,9,80,0,
2,960,Note_off_c,9,81,0,
2,960,Note_off_c,9,82,0,
2,960,Note_off_c,9,87,0,
2,960,Note_off_c,9,88,0,
2,960,Note_off_c,9,89,0,
2,960,Note_off_c,9,91,0,
2,960,Note_off_c,9,93,0,
2,980,Note_on_c,9,35,7,
2,980,Note_off_c,9,36,0,
2,980,Note_off_c,9,37,0,
2,980,Note_on_c,9,38,3,
2,980,Note_off_c,9,39,0,
2,980,Note_off_c,9,40,0,
2,980,Note_off_c,9,41,0,
2,980,Note_off_c,9,42,0,
2,980,Note_off_c,9,43,0,
2,980,Note_off_c,9,44,0,
2,980,Note_off_c,9,45,0,
2,980,Note_off_c,9,46,0,
2,980,Note_off_c,9,47,0,
2,980,Note_off_c,9,48,0,
2,980,Note_off_c,9,49,0,
2,980,Note_off_c,9,50,0,
2,980,Note_off_c,9,51,0,
2,980,Note_off_c,9,56,0,
2,980,Note_off_c,9,57,0,
2,980,Note_off_c,9,59,0,
2,980,Note_off_c,9,60,0,
2,980,Note_off_c,9,61,0,
2,980,Note_off_c,9,63,0,
2,980,Note_off_c,9,68,0,
2,980,Note_off_c,9,69,0,
2,980,Note_off_c,9,70,0,
2,980,Note_off_c,9,76,0,
2,980,Note_off_c,9,80,0,
2,980,Note_off_c,9,81,0,
2,980,Note_off_c,9,82,0,
2,980,Note_off_c,9,87,0,
2,980,Note_off_c,9,88,0,
2,980,Note_off_c,9,89,0,
2,980,Note_off_c,9,91,0,
2,980,Note_off_c,9,93,0,
2,1000,Note_on_c,9,35,7,
2,1000,Note_off_c,9,36,0,
2,1000,Note_off_c,9,37,0,
2,1000,Note_on_c,9,38,3,
2,1000,Note_off_c,9,39,0,
2,1000,Note_off_c,9,40,0,
2,1000,Note_off_c,9,41,0,
2,1000,Note_off_c,9,42,0,
2,1000,Note_off_c,9,43,0,
2,1000,Note_off_c,9,44,0,
2,1000,Note_off_c,9,45,0,
2,1000,Note_off_c,9,46,0,
2,1000,Note_off_c,9,47,0,
2,1000,Note_off_c,9,48,0,
2,1000,Note_off_c,9,49,0,
2,1000,Note_off_c,9,50,0,
2,1000,Note_off_c,9,51,0,
2,1000,Note_off_c,9,56,0,
2,1000,Note_off_c,9,57,0,
2,1000,Note_off_c,9,59,0,
2,1000,Note_off_c,9,60,0,
2,1000,Note_off_c,9,61,0,
2,1000,Note_off_c,9,63,0,
2,1000,Note_off_c,9,68,0,
2,1000,Note_off_c,9,69,0,
2,1000,Note_off_c,9,70,0,
2,1000,Note_off_c,9,76,0,
2,1000,Note_off_c,9,80,0,
2,1000,Note_off_c,9,81,0,
2,1000,Note_off_c,9,82,0,
2,1000,Note_off_c,9,87,0,
2,1000,Note_off_c,9,88,0,
2,1000,Note_off_c,9,89,0,
2,1000,Note_off_c,9,91,0,
2,1000,Note_off_c,9,93,0,
2,1020,Note_on_c,9,35,7,
2,1020,Note_off_c,9,36,0,
2,1020,Note_off_c,9,37,0,
2,1020,Note_on_c,9,38,3,
2,1020,Note_off_c,9,39,0,
2,1020,Note_off_c,9,40,0,
2,1020,Note_off_c,9,41,0,
2,1020,Note_off_c,9,42,0,
2,1020,Note_off_c,9,43,0,
2,1020,Note_off_c,9,44,0,
2,1020,Note_off_c,9,45,0,
2,1020,Note_off_c,9,46,0,
2,1020,Note_off_c,9,47,0,
2,1020,Note_off_c,9,48,0,
2,1020,Note_off_c,9,49,0,
2,1020,Note_off_c,9,50,0,
2,1020,Note_off_c,9,51,0,
2,1020,Note_off_c,9,56,0,
2,1020,Note_off_c,9,57,0,
2,1020,Note_off_c,9,59,0,
2,1020,Note_off_c,9,60,0,
2,1020,Note_off_c,9,61,0,
2,1020,Note_off_c,9,63,0,
2,1020,Note_off_c,9,68,0,
2,1020,Note_off_c,9,69,0,
2,1020,Note_off_c,9,70,0,
2,1020,Note_off_c,9,76,0,
2,1020,Note_off_c,9,80,0,
2,1020,Note_off_c,9,81,0,
2,1020,Note_off_c,9,82,0,
2,1020,Note_off_c,9,87,0,
2,1020,Note_off_c,9,88,0,
2,1020,Note_off_c,9,89,0,
2,1020,Note_off_c,9,91,0,
2,1020,Note_off_c,9,93,0,
2,1040,Note_on_c,9,35,7,
2,1040,Note_off_c,9,36,0,
2,1040,Note_off_c,9,37,0,
2,1040,Note_on_c,9,38,3,
2,1040,Note_off_c,9,39,0,
2,1040,Note_off_c,9,40,0,
2,1040,Note_off_c,9,41,0,
2,1040,Note_off_c,9,42,0,
2,1040,Note_off_c,9,43,0,
2,1040,Note_off_c,9,44,0,
2,1040,Note_off_c,9,45,0,
2,1040,Note_off_c,9,46,0,
2,1040,Note_off_c,9,47,0,
2,1040,Note_off_c,9,48,0,
2,1040,Note_off_c,9,49,0,
2,1040,Note_off_c,9,50,0,
2,1040,Note_off_c,9,51,0,
2,1040,Note_off_c,9,56,0,
2,1040,Note_off_c,9,57,0,
2,1040,Note_off_c,9,59,0,
2,1040,Note_off_c,9,60,0,
2,1040,Note_off_c,9,61,0,
2,1040,Note_off_c,9,63,0,
2,1040,Note_off_c,9,68,0,
2,1040,Note_off_c,9,69,0,
2,1040,Note_off_c,9,70,0,
2,1040,Note_off_c,9,76,0,
2,1040,Note_off_c,9,80,0,
2,1040,Note_off_c,9,81,0,
2,1040,Note_off_c,9,82,0,
2,1040,Note_off_c,9,87,0,
2,1040,Note_off_c,9,88,0,
2,1040,Note_off_c,9,89,0,
2,1040,Note_off_c,9,91,0,
2,1040,Note_off_c,9,93,0,
2,1060,Note_on_c,9,35,7,
2,1060,Note_off_c,9,36,0,
2,1060,Note_off_c,9,37,0,
2,1060,Note_on_c,9,38,3,
2,1060,Note_off_c,9,39,0,
2,1060,Note_off_c,9,40,0,
2,1060,Note_off_c,9,41,0,
2,1060,Note_off_c,9,42,0,
2,1060,Note_off_c,9,43,0,
2,1060,Note_off_c,9,44,0,
2,1060,Note_off_c,9,45,0,
2,1060,Note_off_c,9,46,0,
2,1060,Note_off_c,9,47,0,
2,1060,Note_off_c,9,48,0,
2,1060,Note_off_c,9,49,0,
2,1060,Note_off_c,9,50,0,
2,1060,Note_off_c,9,51,0,
2,1060,Note_off_c,9,56,0,
2,1060,Note_off_c,9,57,0,
2,1060,Note_off_c,9,59,0,
2,1060,Note_off_c,9,60,0,
2,1060,Note_off_c,9,61,0,
2,1060,Note_off_c,9,63,0,
2,1060,Note_off_c,9,68,0,
2,1060,Note_off_c,9,69,0,
2,1060,Note_off_c,9,70,0,
2,1060,Note_off_c,9,76,0,
2,1060,Note_off_c,9,80,0,
2,1060,Note_off_c,9,81,0,
2,1060,Note_off_c,9,82,0,
2,1060,Note_off_c,9,87,0,
2,1060,Note_off_c,9,88,0,
2,1060,Note_off_c,9,89,0,
2,1060,Note_off_c,9,91,0,
2,1060,Note_off_c,9,93,0,
2,1080,Note_on_c,9,35,7,
2,1080,Note_off_c,9,36,0,
2,1080,Note_off_c,9,37,0,
2,1080,Note_on_c,9,38,3,
2,1080,Note_off_c,9,39,0,
2,1080,Note_off_c,9,40,0,
2,1080,Note_off_c,9,41,0,
2,1080,Note_off_c,9,42,0,
2,1080,Note_off_c,9,43,0,
2,1080,Note_off_c,9,44,0,
2,1080,Note_off_c,9,45,0,
2,1080,Note_off_c,9,46,0,
2,1080,Note_off_c,9,47,0,
2,1080,Note_off_c,9,48,0,
2,1080,Note_off_c,9,49,0,
2,1080,Note_off_c,9,50,0,
2,1080,Note_off_c,9,51,0,
2,1080,Note_off_c,9,56,0,
2,1080,Note_off_c,9,57,0,
2,1080,Note_off_c,9,59,0,
2,1080,Note_off_c,9,60,0,
2,1080,Note_off_c,9,61,0,
2,1080,Note_off_c,9,63,0,
2,1080,Note_off_c,9,68,0,
2,1080,Note_off_c,9,69,0,
2,1080,Note_off_c,9,70,0,
2,1080,Note_off_c,9,76,0,
2,1080,Note_off_c,9,80,0,
2,1080,Note_off_c,9,81,0,
2,1080,Note_off_c,9,82,0,
2,1080,Note_off_c,9,87,0,
2,1080,Note_off_c,9,88,0,
2,1080,Note_off_c,9,89,0,
2,1080,Note_off_c,9,91,0,
2,1080,Note_off_c,9,93,0,
2,1100,Note_on_c,9,35,7,
2,1100,Note_off_c,9,36,0,
2,1100,Note_off_c,9,37,0,
2,1100,Note_on_c,9,38,3,
2,1100,Note_off_c,9,39,0,
2,1100,Note_off_c,9,40,0,
2,1100,Note_off_c,9,41,0,
2,1100,Note_off_c,9,42,0,
2,1100,Note_off_c,9,43,0,
2,1100,Note_off_c,9,44,0,
2,1100,Note_off_c,9,45,0,
2,1100,Note_off_c,9,46,0,
2,1100,Note_off_c,9,47,0,
2,1100,Note_off_c,9,48,0,
2,1100,Note_off_c,9,49,0,
2,1100,Note_off_c,9,50,0,
2,1100,Note_off_c,9,51,0,
2,1100,Note_off_c,9,56,0,
2,1100,Note_off_c,9,57,0,
2,1100,Note_off_c,9,59,0,
2,1100,Note_off_c,9,60,0,
2,1100,Note_off_c,9,61,0,
2,1100,Note_off_c,9,63,0,
2,1100,Note_off_c,9,68,0,
2,1100,Note_off_c,9,69,0,
2,1100,Note_off_c,9,70,0,
2,1100,Note_off_c,9,76,0,
2,1100,Note_off_c,9,80,0,
2,1100,Note_off_c,9,81,0,
2,1100,Note_off_c,9,82,0,
2,1100,Note_off_c,9,87,0,
2,1100,Note_off_c,9,88,0,
2,1100,Note_off_c,9,89,0,
2,1100,Note_off_c,9,91,0,
2,1100,Note_off_c,9,93,0,
2,1120,Note_on_c,9,35,7,
2,1120,Note_off_c,9,36,0,
2,1120,Note_off_c,9,37,0,
2,1120,Note_on_c,9,38,3,
2,1120,Note_off_c,9,39,0,
2,1120,Note_off_c,9,40,0,
2,1120,Note_off_c,9,41,0,
2,1120,Note_off_c,9,42,0,
2,1120,Note_off_c,9,43,0,
2,1120,Note_off_c,9,44,0,
2,1120,Note_off_c,9,45,0,
2,1120,Note_off_c,9,46,0,
2,1120,Note_off_c,9,47,0,
2,1120,Note_off_c,9,48,0,
2,1120,Note_off_c,9,49,0,
2,1120,Note_off_c,9,50,0,
2,1120,Note_off_c,9,51,0,
2,1120,Note_off_c,9,56,0,
2,1120,Note_off_c,9,57,0,
2,1120,Note_off_c,9,59,0,
2,1120,Note_off_c,9,60,0,
2,1120,Note_off_c,9,61,0,
2,1120,Note_off_c,9,63,0,
2,1120,Note_off_c,9,68,0,
2,1120,Note_off_c,9,69,0,
2,1120,Note_off_c,9,70,0,
2,1120,Note_off_c,9,76,0,
2,1120,Note_off_c,9,80,0,
2,1120,Note_off_c,9,81,0,
2,1120,Note_off_c,9,82,0,
2,1120,Note_off_c,9,87,0,
2,1120,Note_off_c,9,88,0,
2,1120,Note_off_c,9,89,0,
2,1120,Note_off_c,9,91,0,
2,1120,Note_off_c,9,93,0,
2,1140,Note_on_c,9,35,7,
2,1140,Note_off_c,9,36,0,
2,1140,Note_off_c,9,37,0,
2,1140,Note_on_c,9,38,3,
2,1140,Note_off_c,9,39,0,
2,1140,Note_off_c,9,40,0,
2,1140,Note_off_c,9,41,0,
2,1140,Note_off_c,9,42,0,
2,1140,Note_off_c,9,43,0,
2,1140,Note_off_c,9,44,0,
2,1140,Note_off_c,9,45,0,
2,1140,Note_off_c,9,46,0,
2,1140,Note_off_c,9,47,0,
2,1140,Note_off_c,9,48,0,
2,1140,Note_off_c,9,49,0,
2,1140,Note_off_c,9,50,0,
2,1140,Note_off_c,9,51,0,
2,1140,Note_off_c,9,56,0,
2,1140,Note_off_c,9,57,0,
2,1140,Note_off_c,9,59,0,
2,1140,Note_off_c,9,60,0,
2,1140,Note_off_c,9,61,0,
2,1140,Note_off_c,9,63,0,
2,1140,Note_off_c,9,68,0,
2,1140,Note_off_c,9,69,0,
2,1140,Note_off_c,9,70,0,
2,1140,Note_off_c,9,76,0,
2,1140,Note_off_c,9,80,0,
2,1140,Note_off_c,9,81,0,
2,1140,Note_off_c,9,82,0,
2,1140,Note_off_c,9,87,0,
2,1140,Note_off_c,9,88,0,
2,1140,Note_off_c,9,89,0,
2,1140,Note_off_c,9,91,0,
2,1140,Note_off_c,9,93,0,
2,1160,Note_on_c,9,35,7,
2,1160,Note_off_c,9,36,0,
2,1160,Note_off_c,9,37,0,
2,1160,Note_on_c,9,38,3,
2,1160,Note_off_c,9,39,0,
2,1160,Note_off_c,9,40,0,
2,1160,Note_off_c,9,41,0,
2,1160,Note_off_c,9,42,0,
2,1160,Note_off_c,9,43,0,
2,1160,Note_off_c,9,44,0,
2,1160,Note_off_c,9,45,0,
2,1160,Note_off_c,9,46,0,
2,1160,Note_off_c,9,47,0,
2,1160,Note_off_c,9,48,0,
2,1160,Note_off_c,9,49,0,
2,1160,Note_off_c,9,50,0,
2,1160,Note_off_c,9,51,0,
2,1160,Note_off_c,9,56,0,
2,1160,Note_off_c,9,57,0,
2,1160,Note_off_c,9,59,0,
2,1160,Note_off_c,9,60,0,
2,1160,Note_off_c,9,61,0,
2,1160,Note_off_c,9,63,0,
2,1160,Note_off_c,9,68,0,
2,1160,Note_off_c,9,69,0,
2,1160,Note_off_c,9,70,0,
2,1160,Note_off_c,9,76,0,
2,1160,Note_off_c,9,80,0,
2,1160,Note_off_c,9,81,0,
2,1160,Note_off_c,9,82,0,
2,1160,Note_off_c,9,87,0,
2,1160,Note_off_c,9,88,0,
2,1160,Note_off_c,9,89,0,
2,1160,Note_off_c,9,91,0,
2,1160,Note_off_c,9,93,0,
2,1180,Note_on_c,9,35,7,
2,1180,Note_off_c,9,36,0,
2,1180,Note_off_c,9,37,0,
2,1180,Note_on_c,9,38,3,
2,1180,Note_off_c,9,39,0,
2,1180,Note_off_c,9,40,0,
2,1180,Note_off_c,9,41,0,
2,1180,Note_off_c,9,42,0,
2,1180,Note_off_c,9,43,0,
2,1180,Note_off_c,9,44,0,
2,1180,Note_off_c,9,45,0,
2,1180,Note_off_c,9,46,0,
2,1180,Note_off_c,9,47,0,
2,1180,Note_off_c,9,48,0,
2,1180,Note_off_c,9,49,0,
2,1180,Note_off_c,9,50,0,
2,1180,Note_off_c,9,51,0,
2,1180,Note_off_c,9,56,0,
2,1180,Note_off_c,9,57,0,
2,1180,Note_off_c,9,59,0,
2,1180,Note_off_c,9,60,0,
2,1180,Note_off_c,9,61,0,
2,1180,Note_off_c,9,63,0,
2,1180,Note_off_c,9,68,0,
2,1180,Note_off_c,9,69,0,
2,1180,Note_off_c,9,70,0,
2,1180,Note_off_c,9,76,0,
2,1180,Note_off_c,9,80,0,
2,1180,Note_off_c,9,81,0,
2,1180,Note_off_c,9,82,0,
2,1180,Note_off_c,9,87,0,
2,1180,Note_off_c,9,88,0,
2,1180,Note_off_c,9,89,0,
2,1180,Note_off_c,9,91,0,
2,1180,Note_off_c,9,93,0,
2,1200,Note_on_c,9,35,7,
2,1200,Note_off_c,9,36,0,
2,1200,Note_off_c,9,37,0,
2,1200,Note_on_c,9,38,3,
2,1200,Note_off_c,9,39,0,
2,1200,Note_off_c,9,40,0,
2,1200,Note_off_c,9,41,0,
2,1200,Note_off_c,9,42,0,
2,1200,Note_off_c,9,43,0,
2,1200,Note_off_c,9,44,0,
2,1200,Note_off_c,9,45,0,
2,1200,Note_off_c,9,46,0,
2,1200,Note_off_c,9,47,0,
2,1200,Note_off_c,9,48,0,
2,1200,Note_off_c,9,49,0,
2,1200,Note_off_c,9,50,0,
2,1200,Note_off_c,9,51,0,
2,1200,Note_off_c,9,56,0,
2,1200,Note_off_c,9,57,0,
2,1200,Note_off_c,9,59,0,
2,1200,Note_off_c,9,60,0,
2,1200,Note_off_c,9,61,0,
2,1200,Note_off_c,9,63,0,
2,1200,Note_off_c,9,68,0,
2,1200,Note_off_c,9,69,0,
2,1200,Note_off_c,9,70,0,
2,1200,Note_off_c,9,76,0,
2,1200,Note_off_c,9,80,0,
2,1200,Note_off_c,9,81,0,
2,1200,Note_off_c,9,82,0,
2,1200,Note_off_c,9,87,0,
2,1200,Note_off_c,9,88,0,
2,1200,Note_off_c,9,89,0,
2,1200,Note_off_c,9,91,0,
2,1200,Note_off_c,9,93,0,
2,1220,Note_on_c,9,35,7,
2,1220,Note_off_c,9,36,0,
2,1220,Note_off_c,9,37,0,
2,1220,Note_on_c,9,38,3,
2,1220,Note_off_c,9,39,0,
2,1220,Note_off_c,9,40,0,
2,1220,Note_off_c,9,41,0,
2,1220,Note_off_c,9,42,0,
2,1220,Note_off_c,9,43,0,
2,1220,Note_off_c,9,44,0,
2,1220,Note_off_c,9,45,0,
2,1220,Note_off_c,9,46,0,
2,1220,Note_off_c,9,47,0,
2,1220,Note_off_c,9,48,0,
2,1220,Note_off_c,9,49,0,
2,1220,Note_off_c,9,50,0,
2,1220,Note_off_c,9,51,0,
2,1220,Note_off_c,9,56,0,
2,1220,Note_off_c,9,57,0,
2,1220,Note_off_c,9,59,0,
2,1220,Note_off_c,9,60,0,
2,1220,Note_off_c,9,61,0,
2,1220,Note_off_c,9,63,0,
2,1220,Note_off_c,9,68,0,
2,1220,Note_off_c,9,69,0,
2,1220,Note_off_c,9,70,0,
2,1220,Note_off_c,9,76,0,
2,1220,Note_off_c,9,80,0,
2,1220,Note_off_c,9,81,0,
2,1220,Note_off_c,9,82,0,
2,1220,Note_off_c,9,87,0,
2,1220,Note_off_c,9,88,0,
2,1220,Note_off_c,9,89,0,
2,1220,Note_off_c,9,91,0,
2,1220,Note_off_c,9,93,0,
2,1240,Note_on_c,9,35,7,
2,1240,Note_off_c,9,36,0,
2,1240,Note_off_c,9,37,0,
2,1240,Note_on_c,9,38,3,
2,1240,Note_off_c,9,39,0,
2,1240,Note_off_c,9,40,0,
2,1240,Note_off_c,9,41,0,
2,1240,Note_off_c,9,42,0,
2,1240,Note_off_c,9,43,0,
2,1240,Note_off_c,9,44,0,
2,1240,Note_off_c,9,45,0,
2,1240,Note_off_c,9,46,0,
2,1240,Note_off_c,9,47,0,
2,1240,Note_off_c,9,48,0,
2,1240,Note_off_c,9,49,0,
2,1240,Note_off_c,9,50,0,
2,1240,Note_off_c,9,51,0,
2,1240,Note_off_c,9,56,0,
2,1240,Note_off_c,9,57,0,
2,1240,Note_off_c,9,59,0,
2,1240,Note_off_c,9,60,0,
2,1240,Note_off_c,9,61,0,
2,1240,Note_off_c,9,63,0,
2,1240,Note_off_c,9,68,0,
2,1240,Note_off_c,9,69,0,
2,1240,Note_off_c,9,70,0,
2,1240,Note_off_c,9,76,0,
2,1240,Note_off_c,9,80,0,
2,1240,Note_off_c,9,81,0,
2,1240,Note_off_c,9,82,0,
2,1240,Note_off_c,9,87,0,
2,1240,Note_off_c,9,88,0,
2,1240,Note_off_c,9,89,0,
2,1240,Note_off_c,9,91,0,
2,1240,Note_off_c,9,93,0,
2,1260,Note_on_c,9,35,7,
2,1260,Note_off_c,9,36,0,
2,1260,Note_off_c,9,37,0,
2,1260,Note_on_c,9,38,3,
2,1260,Note_off_c,9,39,0,
2,1260,Note_off_c,9,40,0,
2,1260,Note_off_c,9,41,0,
2,1260,Note_off_c,9,42,0,
2,1260,Note_off_c,9,43,0,
2,1260,Note_off_c,9,44,0,
2,1260,Note_off_c,9,45,0,
2,1260,Note_off_c,9,46,0,
2,1260,Note_off_c,9,47,0,
2,1260,Note_off_c,9,48,0,
2,1260,Note_off_c,9,49,0,
2,1260,Note_off_c,9,50,0,
2,1260,Note_off_c,9,51,0,
2,1260,Note_off_c,9,56,0,
2,1260,Note_off_c,9,57,0,
2,1260,Note_off_c,9,59,0,
2,1260,Note_off_c,9,60,0,
2,1260,Note_off_c,9,61,0,
2,1260,Note_off_c,9,63,0,
2,1260,Note_off_c,9,68,0,
2,1260,Note_off_c,9,69,0,
2,1260,Note_off_c,9,70,0,
2,1260,Note_off_c,9,76,0,
2,1260,Note_off_c,9,80,0,
2,1260,Note_off_c,9,81,0,
2,1260,Note_off_c,9,82,0,
2,1260,Note_off_c,9,87,0,
2,1260,Note_off_c,9,88,0,
2,1260,Note_off_c,9,89,0,
2,1260,Note_off_c,9,91,0,
2,1260,Note_off_c,9,93,0,
2,1280,Note_on_c,9,35,7,
2,1280,Note_off_c,9,36,0,
2,1280,Note_off_c,9,37,0,
2,1280,Note_on_c,9,38,3,
2,1280,Note_off_c,9,39,0,
2,1280,Note_off_c,9,40,0,
2,1280,Note_off_c,9,41,0,
2,1280,Note_off_c,9,42,0,
2,1280,Note_off_c,9,43,0,
2,1280,Note_off_c,9,44,0,
2,1280,Note_off_c,9,45,0,
2,1280,Note_off_c,9,46,0,
2,1280,Note_off_c,9,47,0,
2,1280,Note_off_c,9,48,0,
2,1280,Note_off_c,9,49,0,
2,1280,Note_off_c,9,50,0,
2,1280,Note_off_c,9,51,0,
2,1280,Note_off_c,9,56,0,
2,1280,Note_off_c,9,57,0,
2,1280,Note_off_c,9,59,0,
2,1280,Note_off_c,9,60,0,
2,1280,Note_off_c,9,61,0,
2,1280,Note_off_c,9,63,0,
2,1280,Note_off_c,9,68,0,
2,1280,Note_off_c,9,69,0,
2,1280,Note_off_c,9,70,0,
2,1280,Note_off_c,9,76,0,
2,1280,Note_off_c,9,80,0,
2,1280,Note_off_c,9,81,0,
2,1280,Note_off_c,9,82,0,
2,1280,Note_off_c,9,87,0,
2,1280,Note_off_c,9,88,0,
2,1280,Note_off_c,9,89,0,
2,1280,Note_off_c,9,91,0,
2,1280,Note_off_c,9,93,0,
2,1300,Note_on_c,9,35,7,
2,1300,Note_off_c,9,36,0,
2,1300,Note_off_c,9,37,0,
2,1300,Note_on_c,9,38,3,
2,1300,Note_off_c,9,39,0,
2,1300,Note_off_c,9,40,0,
2,1300,Note_off_c,9,41,0,
2,1300,Note_off_c,9,42,0,
2,1300,Note_off_c,9,43,0,
2,1300,Note_off_c,9,44,0,
2,1300,Note_off_c,9,45,0,
2,1300,Note_off_c,9,46,0,
2,1300,Note_off_c,9,47,0,
2,1300,Note_off_c,9,48,0,
2,1300,Note_off_c,9,49,0,
2,1300,Note_off_c,9,50,0,
2,1300,Note_off_c,9,51,0,
2,1300,Note_off_c,9,56,0,
2,1300,Note_off_c,9,57,0,
2,1300,Note_off_c,9,59,0,
2,1300,Note_off_c,9,60,0,
2,1300,Note_off_c,9,61,0,
2,1300,Note_off_c,9,63,0,
2,1300,Note_off_c,9,68,0,
2,1300,Note_off_c,9,69,0,
2,1300,Note_off_c,9,70,0,
2,1300,Note_off_c,9,76,0,
2,1300,Note_off_c,9,80,0,
2,1300,Note_off_c,9,81,0,
2,1300,Note_off_c,9,82,0,
2,1300,Note_off_c,9,87,0,
2,1300,Note_off_c,9,88,0,
2,1300,Note_off_c,9,89,0,
2,1300,Note_off_c,9,91,0,
2,1300,Note_off_c,9,93,0,
2,1320,Note_on_c,9,35,7,
2,1320,Note_off_c,9,36,0,
2,1320,Note_off_c,9,37,0,
2,1320,Note_on_c,9,38,3,
2,1320,Note_off_c,9,39,0,
2,1320,Note_off_c,9,40,0,
2,1320,Note_off_c,9,41,0,
2,1320,Note_off_c,9,42,0,
2,1320,Note_off_c,9,43,0,
2,1320,Note_off_c,9,44,0,
2,1320,Note_off_c,9,45,0,
2,1320,Note_off_c,9,46,0,
2,1320,Note_off_c,9,47,0,
2,1320,Note_off_c,9,48,0,
2,1320,Note_off_c,9,49,0,
2,1320,Note_off_c,9,50,0,
2,1320,Note_off_c,9,51,0,
2,1320,Note_off_c,9,56,0,
2,1320,Note_off_c,9,57,0,
2,1320,Note_off_c,9,59,0,
2,1320,Note_off_c,9,60,0,
2,1320,Note_off_c,9,61,0,
2,1320,Note_off_c,9,63,0,
2,1320,Note_off_c,9,68,0,
2,1320,Note_off_c,9,69,0,
2,1320,Note_off_c,9,70,0,
2,1320,Note_off_c,9,76,0,
2,1320,Note_off_c,9,80,0,
2,1320,Note_off_c,9,81,0,
2,1320,Note_off_c,9,82,0,
2,1320,Note_off_c,9,87,0,
2,1320,Note_off_c,9,88,0,
2,1320,Note_off_c,9,89,0,
2,1320,Note_off_c,9,91,0,
2,1320,Note_off_c,9,93,0,
2,1340,Note_on_c,9,35,7,
2,1340,Note_off_c,9,36,0,
2,1340,Note_off_c,9,37,0,
2,1340,Note_on_c,9,38,3,
2,1340,Note_off_c,9,39,0,
2,1340,Note_off_c,9,40,0,
2,1340,Note_off_c,9,41,0,
2,1340,Note_off_c,9,42,0,
2,1340,Note_off_c,9,43,0,
2,1340,Note_off_c,9,44,0,
2,1340,Note_off_c,9,45,0,
2,1340,Note_off_c,9,46,0,
2,1340,Note_off_c,9,47,0,
2,1340,Note_off_c,9,48,0,
2,1340,Note_off_c,9,49,0,
2,1340,Note_off_c,9,50,0,
2,1340,Note_off_c,9,51,0,
2,1340,Note_off_c,9,56,0,
2,1340,Note_off_c,9,57,0,
2,1340,Note_off_c,9,59,0,
2,1340,Note_off_c,9,60,0,
2,1340,Note_off_c,9,61,0,
2,1340,Note_off_c,9,63,0,
2,1340,Note_off_c,9,68,0,
2,1340,Note_off_c,9,69,0,
2,1340,Note_off_c,9,70,0,
2,1340,Note_off_c,9,76,0,
2,1340,Note_off_c,9,80,0,
2,1340,Note_off_c,9,81,0,
2,1340,Note_off_c,9,82,0,
2,1340,Note_off_c,9,87,0,
2,1340,Note_off_c,9,88,0,
2,1340,Note_off_c,9,89,0,
2,1340,Note_off_c,9,91,0,
2,1340,Note_off_c,9,93,0,
2,1360,Note_on_c,9,35,7,
2,1360,Note_off_c,9,36,0,
2,1360,Note_off_c,9,37,0,
2,1360,Note_on_c,9,38,3,
2,1360,Note_off_c,9,39,0,
2,1360,Note_off_c,9,40,0,
2,1360,Note_off_c,9,41,0,
2,1360,Note_off_c,9,42,0,
2,1360,Note_off_c,9,43,0,
2,1360,Note_off_c,9,44,0,
2,1360,Note_off_c,9,45,0,
2,1360,Note_off_c,9,46,0,
2,1360,Note_off_c,9,47,0,
2,1360,Note_off_c,9,48,0,
2,1360,Note_off_c,9,49,0,
2,1360,Note_off_c,9,50,0,
2,1360,Note_off_c,9,51,0,
2,1360,Note_off_c,9,56,0,
2,1360,Note_off_c,9,57,0,
2,1360,Note_off_c,9,59,0,
2,1360,Note_off_c,9,60,0,
2,1360,Note_off_c,9,61,0,
2,1360,Note_off_c,9,63,0,
2,1360,Note_off_c,9,68,0,
2,1360,Note_off_c,9,69,0,
2,1360,Note_off_c,9,70,0,
2,1360,Note_off_c,9,76,0,
2,1360,Note_off_c,9,80,0,
2,1360,Note_off_c,9,81,0,
2,1360,Note_off_c,9,82,0,
2,1360,Note_off_c,9,87,0,
2,1360,Note_off_c,9,88,0,
2,1360,Note_off_c,9,89,0,
2,1360,Note_off_c,9,91,0,
2,1360,Note_off_c,9,93,0,
2,1380,Note_on_c,9,35,7,
2,1380,Note_off_c,9,36,0,
2,1380,Note_off_c,9,37,0,
2,1380,Note_on_c,9,38,3,
2,1380,Note_off_c,9,39,0,
2,1380,Note_off_c,9,40,0,
2,1380,Note_off_c,9,41,0,
2,1380,Note_off_c,9,42,0,
2,1380,Note_off_c,9,43,0,
2,1380,Note_off_c,9,44,0,
2,1380,Note_off_c,9,45,0,
2,1380,Note_off_c,9,46,0,
2,1380,Note_off_c,9,47,0,
2,1380,Note_off_c,9,48,0,
2,1380,Note_off_c,9,49,0,
2,1380,Note_off_c,9,50,0,
2,1380,Note_off_c,9,51,0,
2,1380,Note_off_c,9,56,0,
2,1380,Note_off_c,9,57,0,
2,1380,Note_off_c,9,59,0,
2,1380,Note_off_c,9,60,0,
2,1380,Note_off_c,9,61,0,
2,1380,Note_off_c,9,63,0,
2,1380,Note_off_c,9,68,0,
2,1380,Note_off_c,9,69,0,
2,1380,Note_off_c,9,70,0,
2,1380,Note_off_c,9,76,0,
2,1380,Note_off_c,9,80,0,
2,1380,Note_off_c,9,81,0,
2,1380,Note_off_c,9,82,0,
2,1380,Note_off_c,9,87,0,
2,1380,Note_off_c,9,88,0,
2,1380,Note_off_c,9,89,0,
2,1380,Note_off_c,9,91,0,
2,1380,Note_off_c,9,93,0,
2,1400,Note_on_c,9,35,7,
2,1400,Note_off_c,9,36,0,
2,1400,Note_off_c,9,37,0,
2,1400,Note_on_c,9,38,3,
2,1400,Note_off_c,9,39,0,
2,1400,Note_off_c,9,40,0,
2,1400,Note_off_c,9,41,0,
2,1400,Note_off_c,9,42,0,
2,1400,Note_off_c,9,43,0,
2,1400,Note_off_c,9,44,0,
2,1400,Note_off_c,9,45,0,
2,1400,Note_off_c,9,46,0,
2,1400,Note_off_c,9,47,0,
2,1400,Note_off_c,9,48,0,
2,1400,Note_off_c,9,49,0,
2,1400,Note_off_c,9,50,0,
2,1400,Note_off_c,9,51,0,
2,1400,Note_off_c,9,56,0,
2,1400,Note_off_c,9,57,0,
2,1400,Note_off_c,9,59,0,
2,1400,Note_off_c,9,60,0,
2,1400,Note_off_c,9,61,0,
2,1400,Note_off_c,9,63,0,
2,1400,Note_off_c,9,68,0,
2,1400,Note_off_c,9,69,0,
2,1400,Note_off_c,9,70,0,
2,1400,Note_off_c,9,76,0,
2,1400,Note_off_c,9,80,0,
2,1400,Note_off_c,9,81,0,
2,1400,Note_off_c,9,82,0,
2,1400,Note_off_c,9,87,0,
2,1400,Note_off_c,9,88,0,
2,1400,Note_off_c,9,89,0,
2,1400,Note_off_c,9,91,0,
2,1400,Note_off_c,9,93,0,
2,1420,Note_on_c,9,35,7,
2,1420,Note_off_c,9,36,0,
2,1420,Note_off_c,9,37,0,
2,1420,Note_on_c,9,38,3,
2,1420,Note_off_c,9,39,0,
2,1420,Note_off_c,9,40,0,
2,1420,Note_off_c,9,41,0,
2,1420,Note_off_c,9,42,0,
2,1420,Note_off_c,9,43,0,
2,1420,Note_off_c,9,44,0,
2,1420,Note_off_c,9,45,0,
2,1420,Note_off_c,9,46,0,
2,1420,Note_off_c,9,47,0,
2,1420,Note_off_c,9,48,0,
2,1420,Note_off_c,9,49,0,
2,1420,Note_off_c,9,50,0,
2,1420,Note_off_c,9,51,0,
2,1420,Note_off_c,9,56,0,
2,1420,Note_off_c,9,57,0,
2,1420,Note_off_c,9,59,0,
2,1420,Note_off_c,9,60,0,
2,1420,Note_off_c,9,61,0,
2,1420,Note_off_c,9,63,0,
2,1420,Note_off_c,9,68,0,
2,1420,Note_off_c,9,69,0,
2,1420,Note_off_c,9,70,0,
2,1420,Note_off_c,9,76,0,
2,1420,Note_off_c,9,80,0,
2,1420,Note_off_c,9,81,0,
2,1420,Note_off_c,9,82,0,
2,1420,Note_off_c,9,87,0,
2,1420,Note_off_c,9,88,0,
2,1420,Note_off_c,9,89,0,
2,1420,Note_off_c,9,91,0,
2,1420,Note_off_c,9,93,0,
2,1440,Note_on_c,9,35,7,
2,1440,Note_off_c,9,36,0,
2,1440,Note_off_c,9,37,0,
2,1440,Note_on_c,9,38,3,
2,1440,Note_off_c,9,39,0,
2,1440,Note_off_c,9,40,0,
2,1440,Note_off_c,9,41,0,
2,1440,Note_off_c,9,42,0,
2,1440,Note_off_c,9,43,0,
2,1440,Note_off_c,9,44,0,
2,1440,Note_off_c,9,45,0,
2,1440,Note_off_c,9,46,0,
2,1440,Note_off_c,9,47,0,
2,1440,Note_off_c,9,48,0,
2,1440,Note_off_c,9,49,0,
2,1440,Note_off_c,9,50,0,
2,1440,Note_off_c,9,51,0,
2,1440,Note_off_c,9,56,0,
2,1440,Note_off_c,9,57,0,
2,1440,Note_off_c,9,59,0,
2,1440,Note_off_c,9,60,0,
2,1440,Note_off_c,9,61,0,
2,1440,Note_off_c,9,63,0,
2,1440,Note_off_c,9,68,0,
2,1440,Note_off_c,9,69,0,
2,1440,Note_off_c,9,70,0,
2,1440,Note_off_c,9,76,0,
2,1440,Note_off_c,9,80,0,
2,1440,Note_off_c,9,81,0,
2,1440,Note_off_c,9,82,0,
2,1440,Note_off_c,9,87,0,
2,1440,Note_off_c,9,88,0,
2,1440,Note_off_c,9,89,0,
2,1440,Note_off_c,9,91,0,
2,1440,Note_off_c,9,93,0,
2,1460,Note_on_c,9,35,7,
2,1460,Note_off_c,9,36,0,
2,1460,Note_off_c,9,37,0,
2,1460,Note_on_c,9,38,3,
2,1460,Note_off_c,9,39,0,
2,1460,Note_off_c,9,40,0,
2,1460,Note_off_c,9,41,0,
2,1460,Note_off_c,9,42,0,
2,1460,Note_off_c,9,43,0,
2,1460,Note_off_c,9,44,0,
2,1460,Note_off_c,9,45,0,
2,1460,Note_off_c,9,46,0,
2,1460,Note_off_c,9,47,0,
2,1460,Note_off_c,9,48,0,
2,1460,Note_off_c,9,49,0,
2,1460,Note_off_c,9,50,0,
2,1460,Note_off_c,9,51,0,
2,1460,Note_off_c,9,56,0,
2,1460,Note_off_c,9,57,0,
2,1460,Note_off_c,9,59,0,
2,1460,Note_off_c,9,60,0,
2,1460,Note_off_c,9,61,0,
2,1460,Note_off_c,9,63,0,
2,1460,Note_off_c,9,68,0,
2,1460,Note_off_c,9,69,0,
2,1460,Note_off_c,9,70,0,
2,1460,Note_off_c,9,76,0,
2,1460,Note_off_c,9,80,0,
2,1460,Note_off_c,9,81,0,
2,1460,Note_off_c,9,82,0,
2,1460,Note_off_c,9,87,0,
2,1460,Note_off_c,9,88,0,
2,1460,Note_off_c,9,89,0,
2,1460,Note_off_c,9,91,0,
2,1460,Note_off_c,9,93,0,
2,1480,Note_on_c,9,35,7,
2,1480,Note_off_c,9,36,0,
2,1480,Note_off_c,9,37,0,
2,1480,Note_on_c,9,38,3,
2,1480,Note_off_c,9,39,0,
2,1480,Note_off_c,9,40,0,
2,1480,Note_off_c,9,41,0,
2,1480,Note_off_c,9,42,0,
2,1480,Note_off_c,9,43,0,
2,1480,Note_off_c,9,44,0,
2,1480,Note_off_c,9,45,0,
2,1480,Note_off_c,9,46,0,
2,1480,Note_off_c,9,47,0,
2,1480,Note_off_c,9,48,0,
2,1480,Note_off_c,9,49,0,
2,1480,Note_off_c,9,50,0,
2,1480,Note_off_c,9,51,0,
2,1480,Note_off_c,9,56,0,
2,1480,Note_off_c,9,57,0,
2,1480,Note_off_c,9,59,0,
2,1480,Note_off_c,9,60,0,
2,1480,Note_off_c,9,61,0,
2,1480,Note_off_c,9,63,0,
2,1480,Note_off_c,9,68,0,
2,1480,Note_off_c,9,69,0,
2,1480,Note_off_c,9,70,0,
2,1480,Note_off_c,9,76,0,
2,1480,Note_off_c,9,80,0,
2,1480,Note_off_c,9,81,0,
2,1480,Note_off_c,9,82,0,
2,1480,Note_off_c,9,87,0,
2,1480,Note_off_c,9,88,0,
2,1480,Note_off_c,9,89,0,
2,1480,Note_off_c,9,91,0,
2,1480,Note_off_c,9,93,0,
2,1500,Note_on_c,9,35,7,
2,1500,Note_off_c,9,36,0,
2,1500,Note_off_c,9,37,0,
2,1500,Note_on_c,9,38,3,
2,1500,Note_off_c,9,39,0,
2,1500,Note_off_c,9,40,0,
2,1500,Note_off_c,9,41,0,
2,1500,Note_off_c,9,42,0,
2,1500,Note_off_c,9,43,0,
2,1500,Note_off_c,9,44,0,
2,1500,Note_off_c,9,45,0,
2,1500,Note_off_c,9,46,0,
2,1500,Note_off_c,9,47,0,
2,1500,Note_off_c,9,48,0,
2,1500,Note_off_c,9,49,0,
2,1500,Note_off_c,9,50,0,
2,1500,Note_off_c,9,51,0,
2,1500,Note_off_c,9,56,0,
2,1500,Note_off_c,9,57,0,
2,1500,Note_off_c,9,59,0,
2,1500,Note_off_c,9,60,0,
2,1500,Note_off_c,9,61,0,
2,1500,Note_off_c,9,63,0,
2,1500,Note_off_c,9,68,0,
2,1500,Note_off_c,9,69,0,
2,1500,Note_off_c,9,70,0,
2,1500,Note_off_c,9,76,0,
2,1500,Note_off_c,9,80,0,
2,1500,Note_off_c,9,81,0,
2,1500,Note_off_c,9,82,0,
2,1500,Note_off_c,9,87,0,
2,1500,Note_off_c,9,88,0,
2,1500,Note_off_c,9,89,0,
2,1500,Note_off_c,9,91,0,
2,1500,Note_off_c,9,93,0,
2,1520,Note_on_c,9,35,7,
2,1520,Note_off_c,9,36,0,
2,1520,Note_off_c,9,37,0,
2,1520,Note_on_c,9,38,3,
2,1520,Note_off_c,9,39,0,
2,1520,Note_off_c,9,40,0,
2,1520,Note_off_c,9,41,0,
2,1520,Note_off_c,9,42,0,
2,1520,Note_off_c,9,43,0,
2,1520,Note_off_c,9,44,0,
2,1520,Note_off_c,9,45,0,
2,1520,Note_off_c,9,46,0,
2,1520,Note_off_c,9,47,0,
2,1520,Note_off_c,9,48,0,
2,1520,Note_off_c,9,49,0,
2,1520,Note_off_c,9,50,0,
2,1520,Note_off_c,9,51,0,
2,1520,Note_off_c,9,56,0,
2,1520,Note_off_c,9,57,0,
2,1520,Note_off_c,9,59,0,
2,1520,Note_off_c,9,60,0,
2,1520,Note_off_c,9,61,0,
2,1520,Note_off_c,9,63,0,
2,1520,Note_off_c,9,68,0,
2,1520,Note_off_c,9,69,0,
2,1520,Note_off_c,9,70,0,
2,1520,Note_off_c,9,76,0,
2,1520,Note_off_c,9,80,0,
2,1520,Note_off_c,9,81,0,
2,1520,Note_off_c,9,82,0,
2,1520,Note_off_c,9,87,0,
2,1520,Note_off_c,9,88,0,
2,1520,Note_off_c,9,89,0,
2,1520,Note_off_c,9,91,0,
2,1520,Note_off_c,9,93,0,
2,1540,Note_on_c,9,35,7,
2,1540,Note_off_c,9,36,0,
2,1540,Note_off_c,9,37,0,
2,1540,Note_on_c,9,38,3,
2,1540,Note_off_c,9,39,0,
2,1540,Note_off_c,9,40,0,
2,1540,Note_off_c,9,41,0,
2,1540,Note_off_c,9,42,0,
2,1540,Note_off_c,9,43,0,
2,1540,Note_off_c,9,44,0,
2,1540,Note_off_c,9,45,0,
2,1540,Note_off_c,9,46,0,
2,1540,Note_off_c,9,47,0,
2,1540,Note_off_c,9,48,0,
2,1540,Note_off_c,9,49,0,
2,1540,Note_off_c,9,50,0,
2,1540,Note_off_c,9,51,0,
2,1540,Note_off_c,9,56,0,
2,1540,Note_off_c,9,57,0,
2,1540,Note_off_c,9,59,0,
2,1540,Note_off_c,9,60,0,
2,1540,Note_off_c,9,61,0,
2,1540,Note_off_c,9,63,0,
2,1540,Note_off_c,9,68,0,
2,1540,Note_off_c,9,69,0,
2,1540,Note_off_c,9,70,0,
2,1540,Note_off_c,9,76,0,
2,1540,Note_off_c,9,80,0,
2,1540,Note_off_c,9,81,0,
2,1540,Note_off_c,9,82,0,
2,1540,Note_off_c,9,87,0,
2,1540,Note_off_c,9,88,0,
2,1540,Note_off_c,9,89,0,
2,1540,Note_off_c,9,91,0,
2,1540,Note_off_c,9,93,0,
2,1560,Note_on_c,9,35,7,
2,1560,Note_off_c,9,36,0,
2,1560,Note_off_c,9,37,0,
2,1560,Note_on_c,9,38,3,
2,1560,Note_off_c,9,39,0,
2,1560,Note_off_c,9,40,0,
2,1560,Note_off_c,9,41,0,
2,1560,Note_off_c,9,42,0,
2,1560,Note_off_c,9,43,0,
2,1560,Note_off_c,9,44,0,
2,1560,Note_off_c,9,45,0,
2,1560,Note_off_c,9,46,0,
2,1560,Note_off_c,9,47,0,
2,1560,Note_off_c,9,48,0,
2,1560,Note_off_c,9,49,0,
2,1560,Note_off_c,9,50,0,
2,1560,Note_off_c,9,51,0,
2,1560,Note_off_c,9,56,0,
2,1560,Note_off_c,9,57,0,
2,1560,Note_off_c,9,59,0,
2,1560,Note_off_c,9,60,0,
2,1560,Note_off_c,9,61,0,
2,1560,Note_off_c,9,63,0,
2,1560,Note_off_c,9,68,0,
2,1560,Note_off_c,9,69,0,
2,1560,Note_off_c,9,70,0,
2,1560,Note_off_c,9,76,0,
2,1560,Note_off_c,9,80,0,
2,1560,Note_off_c,9,81,0,
2,1560,Note_off_c,9,82,0,
2,1560,Note_off_c,9,87,0,
2,1560,Note_off_c,9,88,0,
2,1560,Note_off_c,9,89,0,
2,1560,Note_off_c,9,91,0,
2,1560,Note_off_c,9,93,0,
2,1580,Note_on_c,9,35,7,
2,1580,Note_off_c,9,36,0,
2,1580,Note_off_c,9,37,0,
2,1580,Note_on_c,9,38,3,
2,1580,Note_off_c,9,39,0,
2,1580,Note_off_c,9,40,0,
2,1580,Note_off_c,9,41,0,
2,1580,Note_off_c,9,42,0,
2,1580,Note_off_c,9,43,0,
2,1580,Note_off_c,9,44,0,
2,1580,Note_off_c,9,45,0,
2,1580,Note_off_c,9,46,0,
2,1580,Note_off_c,9,47,0,
2,1580,Note_off_c,9,48,0,
2,1580,Note_off_c,9,49,0,
2,1580,Note_off_c,9,50,0,
2,1580,Note_off_c,9,51,0,
2,1580,Note_off_c,9,56,0,
2,1580,Note_off_c,9,57,0,
2,1580,Note_off_c,9,59,0,
2,1580,Note_off_c,9,60,0,
2,1580,Note_off_c,9,61,0,
2,1580,Note_off_c,9,63,0,
2,1580,Note_off_c,9,68,0,
2,1580,Note_off_c,9,69,0,
2,1580,Note_off_c,9,70,0,
2,1580,Note_off_c,9,76,0,
2,1580,Note_off_c,9,80,0,
2,1580,Note_off_c,9,81,0,
2,1580,Note_off_c,9,82,0,
2,1580,Note_off_c,9,87,0,
2,1580,Note_off_c,9,88,0,
2,1580,Note_off_c,9,89,0,
2,1580,Note_off_c,9,91,0,
2,1580,Note_off_c,9,93,0,
2,1600,Note_on_c,9,35,7,
2,1600,Note_off_c,9,36,0,
2,1600,Note_off_c,9,37,0,
2,1600,Note_on_c,9,38,3,
2,1600,Note_off_c,9,39,0,
2,1600,Note_off_c,9,40,0,
2,1600,Note_off_c,9,41,0,
2,1600,Note_off_c,9,42,0,
2,1600,Note_off_c,9,43,0,
2,1600,Note_off_c,9,44,0,
2,1600,Note_off_c,9,45,0,
2,1600,Note_off_c,9,46,0,
2,1600,Note_off_c,9,47,0,
2,1600,Note_off_c,9,48,0,
2,1600,Note_off_c,9,49,0,
2,1600,Note_off_c,9,50,0,
2,1600,Note_off_c,9,51,0,
2,1600,Note_off_c,9,56,0,
2,1600,Note_off_c,9,57,0,
2,1600,Note_off_c,9,59,0,
2,1600,Note_off_c,9,60,0,
2,1600,Note_off_c,9,61,0,
2,1600,Note_off_c,9,63,0,
2,1600,Note_off_c,9,68,0,
2,1600,Note_off_c,9,69,0,
2,1600,Note_off_c,9,70,0,
2,1600,Note_off_c,9,76,0,
2,1600,Note_off_c,9,80,0,
2,1600,Note_off_c,9,81,0,
2,1600,Note_off_c,9,82,0,
2,1600,Note_off_c,9,87,0,
2,1600,Note_off_c,9,88,0,
2,1600,Note_off_c,9,89,0,
2,1600,Note_off_c,9,91,0,
2,1600,Note_off_c,9,93,0,
2,1620,Note_on_c,9,35,7,
2,1620,Note_off_c,9,36,0,
2,1620,Note_off_c,9,37,0,
2,1620,Note_on_c,9,38,3,
2,1620,Note_off_c,9,39,0,
2,1620,Note_off_c,9,40,0,
2,1620,Note_off_c,9,41,0,
2,1620,Note_off_c,9,42,0,
2,1620,Note_off_c,9,43,0,
2,1620,Note_off_c,9,44,0,
2,1620,Note_off_c,9,45,0,
2,1620,Note_off_c,9,46,0,
2,1620,Note_off_c,9,47,0,
2,1620,Note_off_c,9,48,0,
2,1620,Note_off_c,9,49,0,
2,1620,Note_off_c,9,50,0,
2,1620,Note_off_c,9,51,0,
2,1620,Note_off_c,9,56,0,
2,1620,Note_off_c,9,57,0,
2,1620,Note_off_c,9,59,0,
2,1620,Note_off_c,9,60,0,
2,1620,Note_off_c,9,61,0,
2,1620,Note_off_c,9,63,0,
2,1620,Note_off_c,9,68,0,
2,1620,Note_off_c,9,69,0,
2,1620,Note_off_c,9,70,0,
2,1620,Note_off_c,9,76,0,
2,1620,Note_off_c,9,80,0,
2,1620,Note_off_c,9,81,0,
2,1620,Note_off_c,9,82,0,
2,1620,Note_off_c,9,87,0,
2,1620,Note_off_c,9,88,0,
2,1620,Note_off_c,9,89,0,
2,1620,Note_off_c,9,91,0,
2,1620,Note_off_c,9,93,0,
2,1640,Note_on_c,9,35,7,
2,1640,Note_off_c,9,36,0,
2,1640,Note_off_c,9,37,0,
2,1640,Note_on_c,9,38,3,
2,1640,Note_off_c,9,39,0,
2,1640,Note_off_c,9,40,0,
2,1640,Note_off_c,9,41,0,
2,1640,Note_off_c,9,42,0,
2,1640,Note_off_c,9,43,0,
2,1640,Note_off_c,9,44,0,
2,1640,Note_off_c,9,45,0,
2,1640,Note_off_c,9,46,0,
2,1640,Note_off_c,9,47,0,
2,1640,Note_off_c,9,48,0,
2,1640,Note_off_c,9,49,0,
2,1640,Note_off_c,9,50,0,
2,1640,Note_off_c,9,51,0,
2,1640,Note_off_c,9,56,0,
2,1640,Note_off_c,9,57,0,
2,1640,Note_off_c,9,59,0,
2,1640,Note_off_c,9,60,0,
2,1640,Note_off_c,9,61,0,
2,1640,Note_off_c,9,63,0,
2,1640,Note_off_c,9,68,0,
2,1640,Note_off_c,9,69,0,
2,1640,Note_off_c,9,70,0,
2,1640,Note_off_c,9,76,0,
2,1640,Note_off_c,9,80,0,
2,1640,Note_off_c,9,81,0,
2,1640,Note_off_c,9,82,0,
2,1640,Note_off_c,9,87,0,
2,1640,Note_off_c,9,88,0,
2,1640,Note_off_c,9,89,0,
2,1640,Note_off_c,9,91,0,
2,1640,Note_off_c,9,93,0,
2,1660,Note_on_c,9,35,7,
2,1660,Note_off_c,9,36,0,
2,1660,Note_off_c,9,37,0,
2,1660,Note_on_c,9,38,3,
2,1660,Note_off_c,9,39,0,
2,1660,Note_off_c,9,40,0,
2,1660,Note_off_c,9,41,0,
2,1660,Note_off_c,9,42,0,
2,1660,Note_off_c,9,43,0,
2,1660,Note_off_c,9,44,0,
2,1660,Note_off_c,9,45,0,
2,1660,Note_off_c,9,46,0,
2,1660,Note_off_c,9,47,0,
2,1660,Note_off_c,9,48,0,
2,1660,Note_off_c,9,49,0,
2,1660,Note_off_c,9,50,0,
2,1660,Note_off_c,9,51,0,
2,1660,Note_off_c,9,56,0,
2,1660,Note_off_c,9,57,0,
2,1660,Note_off_c,9,59,0,
2,1660,Note_off_c,9,60,0,
2,1660,Note_off_c,9,61,0,
2,1660,Note_off_c,9,63,0,
2,1660,Note_off_c,9,68,0,
2,1660,Note_off_c,9,69,0,
2,1660,Note_off_c,9,70,0,
2,1660,Note_off_c,9,76,0,
2,1660,Note_off_c,9,80,0,
2,1660,Note_off_c,9,81,0,
2,1660,Note_off_c,9,82,0,
2,1660,Note_off_c,9,87,0,
2,1660,Note_off_c,9,88,0,
2,1660,Note_off_c,9,89,0,
2,1660,Note_off_c,9,91,0,
2,1660,Note_off_c,9,93,0,
2,1680,Note_on_c,9,35,7,
2,1680,Note_off_c,9,36,0,
2,1680,Note_off_c,9,37,0,
2,1680,Note_on_c,9,38,3,
2,1680,Note_off_c,9,39,0,
2,1680,Note_off_c,9,40,0,
2,1680,Note_off_c,9,41,0,
2,1680,Note_off_c,9,42,0,
2,1680,Note_off_c,9,43,0,
2,1680,Note_off_c,9,44,0,
2,1680,Note_off_c,9,45,0,
2,1680,Note_off_c,9,46,0,
2,1680,Note_off_c,9,47,0,
2,1680,Note_off_c,9,48,0,
2,1680,Note_off_c,9,49,0,
2,1680,Note_off_c,9,50,0,
2,1680,Note_off_c,9,51,0,
2,1680,Note_off_c,9,56,0,
2,1680,Note_off_c,9,57,0,
2,1680,Note_off_c,9,59,0,
2,1680,Note_off_c,9,60,0,
2,1680,Note_off_c,9,61,0,
2,1680,Note_off_c,9,63,0,
2,1680,Note_off_c,9,68,0,
2,1680,Note_off_c,9,69,0,
2,1680,Note_off_c,9,70,0,
2,1680,Note_off_c,9,76,0,
2,1680,Note_off_c,9,80,0,
2,1680,Note_off_c,9,81,0,
2,1680,Note_off_c,9,82,0,
2,1680,Note_off_c,9,87,0,
2,1680,Note_off_c,9,88,0,
2,1680,Note_off_c,9,89,0,
2,1680,Note_off_c,9,91,0,
2,1680,Note_off_c,9,93,0,
2,1700,Note_on_c,9,35,7,
2,1700,Note_off_c,9,36,0,
2,1700,Note_off_c,9,37,0,
2,1700,Note_on_c,9,38,3,
2,1700,Note_off_c,9,39,0,
2,1700,Note_off_c,9,40,0,
2,1700,Note_off_c,9,41,0,
2,1700,Note_off_c,9,42,0,
2,1700,Note_off_c,9,43,0,
2,1700,Note_off_c,9,44,0,
2,1700,Note_off_c,9,45,0,
2,1700,Note_off_c,9,46,0,
2,1700,Note_off_c,9,47,0,
2,1700,Note_off_c,9,48,0,
2,1700,Note_off_c,9,49,0,
2,1700,Note_off_c,9,50,0,
2,1700,Note_off_c,9,51,0,
2,1700,Note_off_c,9,56,0,
2,1700,Note_off_c,9,57,0,
2,1700,Note_off_c,9,59,0,
2,1700,Note_off_c,9,60,0,
2,1700,Note_off_c,9,61,0,
2,1700,Note_off_c,9,63,0,
2,1700,Note_off_c,9,68,0,
2,1700,Note_off_c,9,69,0,
2,1700,Note_off_c,9,70,0,
2,1700,Note_off_c,9,76,0,
2,1700,Note_off_c,9,80,0,
2,1700,Note_off_c,9,81,0,
2,1700,Note_off_c,9,82,0,
2,1700,Note_off_c,9,87,0,
2,1700,Note_off_c,9,88,0,
2,1700,Note_off_c,9,89,0,
2,1700,Note_off_c,9,91,0,
2,1700,Note_off_c,9,93,0,
2,1720,Note_on_c,9,35,7,
2,1720,Note_off_c,9,36,0,
2,1720,Note_off_c,9,37,0,
2,1720,Note_on_c,9,38,3,
2,1720,Note_off_c,9,39,0,
2,1720,Note_off_c,9,40,0,
2,1720,Note_off_c,9,41,0,
2,1720,Note_off_c,9,42,0,
2,1720,Note_off_c,9,43,0,
2,1720,Note_off_c,9,44,0,
2,1720,Note_off_c,9,45,0,
2,1720,Note_off_c,9,46,0,
2,1720,Note_off_c,9,47,0,
2,1720,Note_off_c,9,48,0,
2,1720,Note_off_c,9,49,0,
2,1720,Note_off_c,9,50,0,
2,1720,Note_off_c,9,51,0,
2,1720,Note_off_c,9,56,0,
2,1720,Note_off_c,9,57,0,
2,1720,Note_off_c,9,59,0,
2,1720,Note_off_c,9,60,0,
2,1720,Note_off_c,9,61,0,
2,1720,Note_off_c,9,63,0,
2,1720,Note_off_c,9,68,0,
2,1720,Note_off_c,9,69,0,
2,1720,Note_off_c,9,70,0,
2,1720,Note_off_c,9,76,0,
2,1720,Note_off_c,9,80,0,
2,1720,Note_off_c,9,81,0,
2,1720,Note_off_c,9,82,0,
2,1720,Note_off_c,9,87,0,
2,1720,Note_off_c,9,88,0,
2,1720,Note_off_c,9,89,0,
2,1720,Note_off_c,9,91,0,
2,1720,Note_off_c,9,93,0,
2,1740,Note_on_c,9,35,7,
2,1740,Note_off_c,9,36,0,
2,1740,Note_off_c,9,37,0,
2,1740,Note_on_c,9,38,3,
2,1740,Note_off_c,9,39,0,
2,1740,Note_off_c,9,40,0,
2,1740,Note_off_c,9,41,0,
2,1740,Note_off_c,9,42,0,
2,1740,Note_off_c,9,43,0,
2,1740,Note_off_c,9,44,0,
2,1740,Note_off_c,9,45,0,
2,1740,Note_off_c,9,46,0,
2,1740,Note_off_c,9,47,0,
2,1740,Note_off_c,9,48,0,
2,1740,Note_off_c,9,49,0,
2,1740,Note_off_c,9,50,0,
2,1740,Note_off_c,9,51,0,
2,1740,Note_off_c,9,56,0,
2,1740,Note_off_c,9,57,0,
2,1740,Note_off_c,9,59,0,
2,1740,Note_off_c,9,60,0,
2,1740,Note_off_c,9,61,0,
2,1740,Note_off_c,9,63,0,
2,1740,Note_off_c,9,68,0,
2,1740,Note_off_c,9,69,0,
2,1740,Note_off_c,9,70,0,
2,1740,Note_off_c,9,76,0,
2,1740,Note_off_c,9,80,0,
2,1740,Note_off_c,9,81,0,
2,1740,Note_off_c,9,82,0,
2,1740,Note_off_c,9,87,0,
2,1740,Note_off_c,9,88,0,
2,1740,Note_off_c,9,89,0,
2,1740,Note_off_c,9,91,0,
2,1740,Note_off_c,9,93,0,
2,1760,Note_on_c,9,35,7,
2,1760,Note_off_c,9,36,0,
2,1760,Note_off_c,9,37,0,
2,1760,Note_on_c,9,38,3,
2,1760,Note_off_c,9,39,0,
2,1760,Note_off_c,9,40,0,
2,1760,Note_off_c,9,41,0,
2,1760,Note_off_c,9,42,0,
2,1760,Note_off_c,9,43,0,
2,1760,Note_off_c,9,44,0,
2,1760,Note_off_c,9,45,0,
2,1760,Note_off_c,9,46,0,
2,1760,Note_off_c,9,47,0,
2,1760,Note_off_c,9,48,0,
2,1760,Note_off_c,9,49,0,
2,1760,Note_off_c,9,50,0,
2,1760,Note_off_c,9,51,0,
2,1760,Note_off_c,9,56,0,
2,1760,Note_off_c,9,57,0,
2,1760,Note_off_c,9,59,0,
2,1760,Note_off_c,9,60,0,
2,1760,Note_off_c,9,61,0,
2,1760,Note_off_c,9,63,0,
2,1760,Note_off_c,9,68,0,
2,1760,Note_off_c,9,69,0,
2,1760,Note_off_c,9,70,0,
2,1760,Note_off_c,9,76,0,
2,1760,Note_off_c,9,80,0,
2,1760,Note_off_c,9,81,0,
2,1760,Note_off_c,9,82,0,
2,1760,Note_off_c,9,87,0,
2,1760,Note_off_c,9,88,0,
2,1760,Note_off_c,9,89,0,
2,1760,Note_off_c,9,91,0,
2,1760,Note_off_c,9,93,0,
2,1780,Note_on_c,9,35,7,
2,1780,Note_off_c,9,36,0,
2,1780,Note_off_c,9,37,0,
2,1780,Note_on_c,9,38,3,
2,1780,Note_off_c,9,39,0,
2,1780,Note_off_c,9,40,0,
2,1780,Note_off_c,9,41,0,
2,1780,Note_off_c,9,42,0,
2,1780,Note_off_c,9,43,0,
2,1780,Note_off_c,9,44,0,
2,1780,Note_off_c,9,45,0,
2,1780,Note_off_c,9,46,0,
2,1780,Note_off_c,9,47,0,
2,1780,Note_off_c,9,48,0,
2,1780,Note_off_c,9,49,0,
2,1780,Note_off_c,9,50,0,
2,1780,Note_off_c,9,51,0,
2,1780,Note_off_c,9,56,0,
2,1780,Note_off_c,9,57,0,
2,1780,Note_off_c,9,59,0,
2,1780,Note_off_c,9,60,0,
2,1780,Note_off_c,9,61,0,
2,1780,Note_off_c,9,63,0,
2,1780,Note_off_c,9,68,0,
2,1780,Note_off_c,9,69,0,
2,1780,Note_off_c,9,70,0,
2,1780,Note_off_c,9,76,0,
2,1780,Note_off_c,9,80,0,
2,1780,Note_off_c,9,81,0,
2,1780,Note_off_c,9,82,0,
2,1780,Note_off_c,9,87,0,
2,1780,Note_off_c,9,88,0,
2,1780,Note_off_c,9,89,0,
2,1780,Note_off_c,9,91,0,
2,1780,Note_off_c,9,93,0,
2,1800,Note_on_c,9,35,7,
2,1800,Note_off_c,9,36,0,
2,1800,Note_off_c,9,37,0,
2,1800,Note_on_c,9,38,3,
2,1800,Note_off_c,9,39,0,
2,1800,Note_off_c,9,40,0,
2,1800,Note_off_c,9,41,0,
2,1800,Note_off_c,9,42,0,
2,1800,Note_off_c,9,43,0,
2,1800,Note_off_c,9,44,0,
2,1800,Note_off_c,9,45,0,
2,1800,Note_off_c,9,46,0,
2,1800,Note_off_c,9,47,0,
2,1800,Note_off_c,9,48,0,
2,1800,Note_off_c,9,49,0,
2,1800,Note_off_c,9,50,0,
2,1800,Note_off_c,9,51,0,
2,1800,Note_off_c,9,56,0,
2,1800,Note_off_c,9,57,0,
2,1800,Note_off_c,9,59,0,
2,1800,Note_off_c,9,60,0,
2,1800,Note_off_c,9,61,0,
2,1800,Note_off_c,9,63,0,
2,1800,Note_off_c,9,68,0,
2,1800,Note_off_c,9,69,0,
2,1800,Note_off_c,9,70,0,
2,1800,Note_off_c,9,76,0,
2,1800,Note_off_c,9,80,0,
2,1800,Note_off_c,9,81,0,
2,1800,Note_off_c,9,82,0,
2,1800,Note_off_c,9,87,0,
2,1800,Note_off_c,9,88,0,
2,1800,Note_off_c,9,89,0,
2,1800,Note_off_c,9,91,0,
2,1800,Note_off_c,9,93,0,
2,1820,Note_on_c,9,35,7,
2,1820,Note_off_c,9,36,0,
2,1820,Note_off_c,9,37,0,
2,1820,Note_on_c,9,38,3,
2,1820,Note_off_c,9,39,0,
2,1820,Note_off_c,9,40,0,
2,1820,Note_off_c,9,41,0,
2,1820,Note_off_c,9,42,0,
2,1820,Note_off_c,9,43,0,
2,1820,Note_off_c,9,44,0,
2,1820,Note_off_c,9,45,0,
2,1820,Note_off_c,9,46,0,
2,1820,Note_off_c,9,47,0,
2,1820,Note_off_c,9,48,0,
2,1820,Note_off_c,9,49,0,
2,1820,Note_off_c,9,50,0,
2,1820,Note_off_c,9,51,0,
2,1820,Note_off_c,9,56,0,
2,1820,Note_off_c,9,57,0,
2,1820,Note_off_c,9,59,0,
2,1820,Note_off_c,9,60,0,
2,1820,Note_off_c,9,61,0,
2,1820,Note_off_c,9,63,0,
2,1820,Note_off_c,9,68,0,
2,1820,Note_off_c,9,69,0,
2,1820,Note_off_c,9,70,0,
2,1820,Note_off_c,9,76,0,
2,1820,Note_off_c,9,80,0,
2,1820,Note_off_c,9,81,0,
2,1820,Note_off_c,9,82,0,
2,1820,Note_off_c,9,87,0,
2,1820,Note_off_c,9,88,0,
2,1820,Note_off_c,9,89,0,
2,1820,Note_off_c,9,91,0,
2,1820,Note_off_c,9,93,0,
2,1840,Note_on_c,9,35,7,
2,1840,Note_off_c,9,36,0,
2,1840,Note_off_c,9,37,0,
2,1840,Note_on_c,9,38,3,
2,1840,Note_off_c,9,39,0,
2,1840,Note_off_c,9,40,0,
2,1840,Note_off_c,9,41,0,
2,1840,Note_off_c,9,42,0,
2,1840,Note_off_c,9,43,0,
2,1840,Note_off_c,9,44,0,
2,1840,Note_off_c,9,45,0,
2,1840,Note_off_c,9,46,0,
2,1840,Note_off_c,9,47,0,
2,1840,Note_off_c,9,48,0,
2,1840,Note_off_c,9,49,0,
2,1840,Note_off_c,9,50,0,
2,1840,Note_off_c,9,51,0,
2,1840,Note_off_c,9,56,0,
2,1840,Note_off_c,9,57,0,
2,1840,Note_off_c,9,59,0,
2,1840,Note_off_c,9,60,0,
2,1840,Note_off_c,9,61,0,
2,1840,Note_off_c,9,63,0,
2,1840,Note_off_c,9,68,0,
2,1840,Note_off_c,9,69,0,
2,1840,Note_off_c,9,70,0,
2,1840,Note_off_c,9,76,0,
2,1840,Note_off_c,9,80,0,
2,1840,Note_off_c,9,81,0,
2,1840,Note_off_c,9,82,0,
2,1840,Note_off_c,9,87,0,
2,1840,Note_off_c,9,88,0,
2,1840,Note_off_c,9,89,0,
2,1840,Note_off_c,9,91,0,
2,1840,Note_off_c,9,93,0,
2,1860,Note_on_c,9,35,7,
2,1860,Note_off_c,9,36,0,
2,1860,Note_off_c,9,37,0,
2,1860,Note_on_c,9,38,3,
2,1860,Note_off_c,9,39,0,
2,1860,Note_off_c,9,40,0,
2,1860,Note_off_c,9,41,0,
2,1860,Note_off_c,9,42,0,
2,1860,Note_off_c,9,43,0,
2,1860,Note_off_c,9,44,0,
2,1860,Note_off_c,9,45,0,
2,1860,Note_off_c,9,46,0,
2,1860,Note_off_c,9,47,0,
2,1860,Note_off_c,9,48,0,
2,1860,Note_off_c,9,49,0,
2,1860,Note_off_c,9,50,0,
2,1860,Note_off_c,9,51,0,
2,1860,Note_off_c,9,56,0,
2,1860,Note_off_c,9,57,0,
2,1860,Note_off_c,9,59,0,
2,1860,Note_off_c,9,60,0,
2,1860,Note_off_c,9,61,0,
2,1860,Note_off_c,9,63,0,
2,1860,Note_off_c,9,68,0,
2,1860,Note_off_c,9,69,0,
2,1860,Note_off_c,9,70,0,
2,1860,Note_off_c,9,76,0,
2,1860,Note_off_c,9,80,0,
2,1860,Note_off_c,9,81,0,
2,1860,Note_off_c,9,82,0,
2,1860,Note_off_c,9,87,0,
2,1860,Note_off_c,9,88,0,
2,1860,Note_off_c,9,89,0,
2,1860,Note_off_c,9,91,0,
2,1860,Note_off_c,9,93,0,
2,1880,Note_on_c,9,35,7,
2,1880,Note_off_c,9,36,0,
2,1880,Note_off_c,9,37,0,
2,1880,Note_on_c,9,38,3,
2,1880,Note_off_c,9,39,0,
2,1880,Note_off_c,9,40,0,
2,1880,Note_off_c,9,41,0,
2,1880,Note_off_c,9,42,0,
2,1880,Note_off_c,9,43,0,
2,1880,Note_off_c,9,44,0,
2,1880,Note_off_c,9,45,0,
2,1880,Note_off_c,9,46,0,
2,1880,Note_off_c,9,47,0,
2,1880,Note_off_c,9,48,0,
2,1880,Note_off_c,9,49,0,
2,1880,Note_off_c,9,50,0,
2,1880,Note_off_c,9,51,0,
2,1880,Note_off_c,9,56,0,
2,1880,Note_off_c,9,57,0,
2,1880,Note_off_c,9,59,0,
2,1880,Note_off_c,9,60,0,
2,1880,Note_off_c,9,61,0,
2,1880,Note_off_c,9,63,0,
2,1880,Note_off_c,9,68,0,
2,1880,Note_off_c,9,69,0,
2,1880,Note_off_c,9,70,0,
2,1880,Note_off_c,9,76,0,
2,1880,Note_off_c,9,80,0,
2,1880,Note_off_c,9,81,0,
2,1880,Note_off_c,9,82,0,
2,1880,Note_off_c,9,87,0,
2,1880,Note_off_c,9,88,0,
2,1880,Note_off_c,9,89,0,
2,1880,Note_off_c,9,91,0,
2,1880,Note_off_c,9,93,0,
2,1900,Note_on_c,9,35,7,
2,1900,Note_off_c,9,36,0,
2,1900,Note_off_c,9,37,0,
2,1900,Note_on_c,9,38,3,
2,1900,Note_off_c,9,39,0,
2,1900,Note_off_c,9,40,0,
2,1900,Note_off_c,9,41,0,
2,1900,Note_off_c,9,42,0,
2,1900,Note_off_c,9,43,0,
2,1900,Note_off_c,9,44,0,
2,1900,Note_off_c,9,45,0,
2,1900,Note_off_c,9,46,0,
2,1900,Note_off_c,9,47,0,
2,1900,Note_off_c,9,48,0,
2,1900,Note_off_c,9,49,0,
2,1900,Note_off_c,9,50,0,
2,1900,Note_off_c,9,51,0,
2,1900,Note_off_c,9,56,0,
2,1900,Note_off_c,9,57,0,
2,1900,Note_off_c,9,59,0,
2,1900,Note_off_c,9,60,0,
2,1900,Note_off_c,9,61,0,
2,1900,Note_off_c,9,63,0,
2,1900,Note_off_c,9,68,0,
2,1900,Note_off_c,9,69,0,
2,1900,Note_off_c,9,70,0,
2,1900,Note_off_c,9,76,0,
2,1900,Note_off_c,9,80,0,
2,1900,Note_off_c,9,81,0,
2,1900,Note_off_c,9,82,0,
2,1900,Note_off_c,9,87,0,
2,1900,Note_off_c,9,88,0,
2,1900,Note_off_c,9,89,0,
2,1900,Note_off_c,9,91,0,
2,1900,Note_off_c,9,93,0,
2,1920,Note_on_c,9,35,7,
2,1920,Note_off_c,9,36,0,
2,1920,Note_off_c,9,37,0,
2,1920,Note_on_c,9,38,3,
2,1920,Note_off_c,9,39,0,
2,1920,Note_off_c,9,40,0,
2,1920,Note_off_c,9,41,0,
2,1920,Note_off_c,9,42,0,
2,1920,Note_off_c,9,43,0,
2,1920,Note_off_c,9,44,0,
2,1920,Note_off_c,9,45,0,
2,1920,Note_off_c,9,46,0,
2,1920,Note_off_c,9,47,0,
2,1920,Note_off_c,9,48,0,
2,1920,Note_off_c,9,49,0,
2,1920,Note_off_c,9,50,0,
2,1920,Note_off_c,9,51,0,
2,1920,Note_off_c,9,56,0,
2,1920,Note_off_c,9,57,0,
2,1920,Note_off_c,9,59,0,
2,1920,Note_off_c,9,60,0,
2,1920,Note_off_c,9,61,0,
2,1920,Note_off_c,9,63,0,
2,1920,Note_off_c,9,68,0,
2,1920,Note_off_c,9,69,0,
2,1920,Note_off_c,9,70,0,
2,1920,Note_off_c,9,76,0,
2,1920,Note_off_c,9,80,0,
2,1920,Note_off_c,9,81,0,
2,1920,Note_off_c,9,82,0,
2,1920,Note_off_c,9,87,0,
2,1920,Note_off_c,9,88,0,
2,1920,Note_off_c,9,89,0,
2,1920,Note_off_c,9,91,0,
2,1920,Note_off_c,9,93,0,
2,1940,Note_on_c,9,35,7,
2,1940,Note_off_c,9,36,0,
2,1940,Note_off_c,9,37,0,
2,1940,Note_on_c,9,38,3,
2,1940,Note_off_c,9,39,0,
2,1940,Note_off_c,9,40,0,
2,1940,Note_off_c,9,41,0,
2,1940,Note_off_c,9,42,0,
2,1940,Note_off_c,9,43,0,
2,1940,Note_off_c,9,44,0,
2,1940,Note_off_c,9,45,0,
2,1940,Note_off_c,9,46,0,
2,1940,Note_off_c,9,47,0,
2,1940,Note_off_c,9,48,0,
2,1940,Note_off_c,9,49,0,
2,1940,Note_off_c,9,50,0,
2,1940,Note_off_c,9,51,0,
2,1940,Note_off_c,9,56,0,
2,1940,Note_off_c,9,57,0,
2,1940,Note_off_c,9,59,0,
2,1940,Note_off_c,9,60,0,
2,1940,Note_off_c,9,61,0,
2,1940,Note_off_c,9,63,0,
2,1940,Note_off_c,9,68,0,
2,1940,Note_off_c,9,69,0,
2,1940,Note_off_c,9,70,0,
2,1940,Note_off_c,9,76,0,
2,1940,Note_off_c,9,80,0,
2,1940,Note_off_c,9,81,0,
2,1940,Note_off_c,9,82,0,
2,1940,Note_off_c,9,87,0,
2,1940,Note_off_c,9,88,0,
2,1940,Note_off_c,9,89,0,
2,1940,Note_off_c,9,91,0,
2,1940,Note_off_c,9,93,0,
2,1960,Note_on_c,9,35,7,
2,1960,Note_off_c,9,36,0,
2,1960,Note_off_c,9,37,0,
2,1960,Note_on_c,9,38,3,
2,1960,Note_off_c,9,39,0,
2,1960,Note_off_c,9,40,0,
2,1960,Note_off_c,9,41,0,
2,1960,Note_off_c,9,42,0,
2,1960,Note_off_c,9,43,0,
2,1960,Note_off_c,9,44,0,
2,1960,Note_off_c,9,45,0,
2,1960,Note_off_c,9,46,0,
2,1960,Note_off_c,9,47,0,
2,1960,Note_off_c,9,48,0,
2,1960,Note_off_c,9,49,0,
2,1960,Note_off_c,9,50,0,
2,1960,Note_off_c,9,51,0,
2,1960,Note_off_c,9,56,0,
2,1960,Note_off_c,9,57,0,
2,1960,Note_off_c,9,59,0,
2,1960,Note_off_c,9,60,0,
2,1960,Note_off_c,9,61,0,
2,1960,Note_off_c,9,63,0,
2,1960,Note_off_c,9,68,0,
2,1960,Note_off_c,9,69,0,
2,1960,Note_off_c,9,70,0,
2,1960,Note_off_c,9,76,0,
2,1960,Note_off_c,9,80,0,
2,1960,Note_off_c,9,81,0,
2,1960,Note_off_c,9,82,0,
2,1960,Note_off_c,9,87,0,
2,1960,Note_off_c,9,88,0,
2,1960,Note_off_c,9,89,0,
2,1960,Note_off_c,9,91,0,
2,1960,Note_off_c,9,93,0,
2,1980,Note_on_c,9,35,7,
2,1980,Note_off_c,9,36,0,
2,1980,Note_off_c,9,37,0,
2,1980,Note_on_c,9,38,3,
2,1980,Note_off_c,9,39,0,
2,1980,Note_off_c,9,40,0,
2,1980,Note_off_c,9,41,0,
2,1980,Note_off_c,9,42,0,
2,1980,Note_off_c,9,43,0,
2,1980,Note_off_c,9,44,0,
2,1980,Note_off_c,9,45,0,
2,1980,Note_off_c,9,46,0,
2,1980,Note_off_c,9,47,0,
2,1980,Note_off_c,9,48,0,
2,1980,Note_off_c,9,49,0,
2,1980,Note_off_c,9,50,0,
2,1980,Note_off_c,9,51,0,
2,1980,Note_off_c,9,56,0,
2,1980,Note_off_c,9,57,0,
2,1980,Note_off_c,9,59,0,
2,1980,Note_off_c,9,60,0,
2,1980,Note_off_c,9,61,0,
2,1980,Note_off_c,9,63,0,
2,1980,Note_off_c,9,68,0,
2,1980,Note_off_c,9,69,0,
2,1980,Note_off_c,9,70,0,
2,1980,Note_off_c,9,76,0,
2,1980,Note_off_c,9,80,0,
2,1980,Note_off_c,9,81,0,
2,1980,Note_off_c,9,82,0,
2,1980,Note_off_c,9,87,0,
2,1980,Note_off_c,9,88,0,
2,1980,Note_off_c,9,89,0,
2,1980,Note_off_c,9,91,0,
2,1980,Note_off_c,9,93,0,
2,2000,Note_on_c,9,35,7,
2,2000,Note_off_c,9,36,0,
2,2000,Note_off_c,9,37,0,
2,2000,Note_on_c,9,38,3,
2,2000,Note_off_c,9,39,0,
2,2000,Note_off_c,9,40,0,
2,2000,Note_off_c,9,41,0,
2,2000,Note_off_c,9,42,0,
2,2000,Note_off_c,9,43,0,
2,2000,Note_off_c,9,44,0,
2,2000,Note_off_c,9,45,0,
2,2000,Note_off_c,9,46,0,
2,2000,Note_off_c,9,47,0,
2,2000,Note_off_c,9,48,0,
2,2000,Note_off_c,9,49,0,
2,2000,Note_off_c,9,50,0,
2,2000,Note_off_c,9,51,0,
2,2000,Note_off_c,9,56,0,
2,2000,Note_off_c,9,57,0,
2,2000,Note_off_c,9,59,0,
2,2000,Note_off_c,9,60,0,
2,2000,Note_off_c,9,61,0,
2,2000,Note_off_c,9,63,0,
2,2000,Note_off_c,9,68,0,
2,2000,Note_off_c,9,69,0,
2,2000,Note_off_c,9,70,0,
2,2000,Note_off_c,9,76,0,
2,2000,Note_off_c,9,80,0,
2,2000,Note_off_c,9,81,0,
2,2000,Note_off_c,9,82,0,
2,2000,Note_off_c,9,87,0,
2,2000,Note_off_c,9,88,0,
2,2000,Note_off_c,9,89,0,
2,2000,Note_off_c,9,91,0,
2,2000,Note_off_c,9,93,0,
2,2020,Note_on_c,9,35,7,
2,2020,Note_off_c,9,36,0,
2,2020,Note_off_c,9,37,0,
2,2020,Note_on_c,9,38,3,
2,2020,Note_off_c,9,39,0,
2,2020,Note_off_c,9,40,0,
2,2020,Note_off_c,9,41,0,
2,2020,Note_off_c,9,42,0,
2,2020,Note_off_c,9,43,0,
2,2020,Note_off_c,9,44,0,
2,2020,Note_off_c,9,45,0,
2,2020,Note_off_c,9,46,0,
2,2020,Note_off_c,9,47,0,
2,2020,Note_off_c,9,48,0,
2,2020,Note_off_c,9,49,0,
2,2020,Note_off_c,9,50,0,
2,2020,Note_off_c,9,51,0,
2,2020,Note_off_c,9,56,0,
2,2020,Note_off_c,9,57,0,
2,2020,Note_off_c,9,59,0,
2,2020,Note_off_c,9,60,0,
2,2020,Note_off_c,9,61,0,
2,2020,Note_off_c,9,63,0,
2,2020,Note_off_c,9,68,0,
2,2020,Note_off_c,9,69,0,
2,2020,Note_off_c,9,70,0,
2,2020,Note_off_c,9,76,0,
2,2020,Note_off_c,9,80,0,
2,2020,Note_off_c,9,81,0,
2,2020,Note_off_c,9,82,0,
2,2020,Note_off_c,9,87,0,
2,2020,Note_off_c,9,88,0,
2,2020,Note_off_c,9,89,0,
2,2020,Note_off_c,9,91,0,
2,2020,Note_off_c,9,93,0,
2,2040,Note_on_c,9,35,7,
2,2040,Note_off_c,9,36,0,
2,2040,Note_off_c,9,37,0,
2,2040,Note_on_c,9,38,3,
2,2040,Note_off_c,9,39,0,
2,2040,Note_off_c,9,40,0,
2,2040,Note_off_c,9,41,0,
2,2040,Note_off_c,9,42,0,
2,2040,Note_off_c,9,43,0,
2,2040,Note_off_c,9,44,0,
2,2040,Note_off_c,9,45,0,
2,2040,Note_off_c,9,46,0,
2,2040,Note_off_c,9,47,0,
2,2040,Note_off_c,9,48,0,
2,2040,Note_off_c,9,49,0,
2,2040,Note_off_c,9,50,0,
2,2040,Note_off_c,9,51,0,
2,2040,Note_off_c,9,56,0,
2,2040,Note_off_c,9,57,0,
2,2040,Note_off_c,9,59,0,
2,2040,Note_off_c,9,60,0,
2,2040,Note_off_c,9,61,0,
2,2040,Note_off_c,9,63,0,
2,2040,Note_off_c,9,68,0,
2,2040,Note_off_c,9,69,0,
2,2040,Note_off_c,9,70,0,
2,2040,Note_off_c,9,76,0,
2,2040,Note_off_c,9,80,0,
2,2040,Note_off_c,9,81,0,
2,2040,Note_off_c,9,82,0,
2,2040,Note_off_c,9,87,0,
2,2040,Note_off_c,9,88,0,
2,2040,Note_off_c,9,89,0,
2,2040,Note_off_c,9,91,0,
2,2040,Note_off_c,9,93,0,
2,2060,Note_on_c,9,35,7,
2,2060,Note_off_c,9,36,0,
2,2060,Note_off_c,9,37,0,
2,2060,Note_on_c,9,38,3,
2,2060,Note_off_c,9,39,0,
2,2060,Note_off_c,9,40,0,
2,2060,Note_off_c,9,41,0,
2,2060,Note_off_c,9,42,0,
2,2060,Note_off_c,9,43,0,
2,2060,Note_off_c,9,44,0,
2,2060,Note_off_c,9,45,0,
2,2060,Note_off_c,9,46,0,
2,2060,Note_off_c,9,47,0,
2,2060,Note_off_c,9,48,0,
2,2060,Note_off_c,9,49,0,
2,2060,Note_off_c,9,50,0,
2,2060,Note_off_c,9,51,0,
2,2060,Note_off_c,9,56,0,
2,2060,Note_off_c,9,57,0,
2,2060,Note_off_c,9,59,0,
2,2060,Note_off_c,9,60,0,
2,2060,Note_off_c,9,61,0,
2,2060,Note_off_c,9,63,0,
2,2060,Note_off_c,9,68,0,
2,2060,Note_off_c,9,69,0,
2,2060,Note_off_c,9,70,0,
2,2060,Note_off_c,9,76,0,
2,2060,Note_off_c,9,80,0,
2,2060,Note_off_c,9,81,0,
2,2060,Note_off_c,9,82,0,
2,2060,Note_off_c,9,87,0,
2,2060,Note_off_c,9,88,0,
2,2060,Note_off_c,9,89,0,
2,2060,Note_off_c,9,91,0,
2,2060,Note_off_c,9,93,0,
2,2080,Note_on_c,9,35,7,
2,2080,Note_off_c,9,36,0,
2,2080,Note_off_c,9,37,0,
2,2080,Note_on_c,9,38,3,
2,2080,Note_off_c,9,39,0,
2,2080,Note_off_c,9,40,0,
2,2080,Note_off_c,9,41,0,
2,2080,Note_off_c,9,42,0,
2,2080,Note_off_c,9,43,0,
2,2080,Note_off_c,9,44,0,
2,2080,Note_off_c,9,45,0,
2,2080,Note_off_c,9,46,0,
2,2080,Note_off_c,9,47,0,
2,2080,Note_off_c,9,48,0,
2,2080,Note_off_c,9,49,0,
2,2080,Note_off_c,9,50,0,
2,2080,Note_off_c,9,51,0,
2,2080,Note_off_c,9,56,0,
2,2080,Note_off_c,9,57,0,
2,2080,Note_off_c,9,59,0,
2,2080,Note_off_c,9,60,0,
2,2080,Note_off_c,9,61,0,
2,2080,Note_off_c,9,63,0,
2,2080,Note_off_c,9,68,0,
2,2080,Note_off_c,9,69,0,
2,2080,Note_off_c,9,70,0,
2,2080,Note_off_c,9,76,0,
2,2080,Note_off_c,9,80,0,
2,2080,Note_off_c,9,81,0,
2,2080,Note_off_c,9,82,0,
2,2080,Note_off_c,9,87,0,
2,2080,Note_off_c,9,88,0,
2,2080,Note_off_c,9,89,0,
2,2080,Note_off_c,9,91,0,
2,2080,Note_off_c,9,93,0,
2,2100,Note_on_c,9,35,7,
2,2100,Note_off_c,9,36,0,
2,2100,Note_off_c,9,37,0,
2,2100,Note_on_c,9,38,3,
2,2100,Note_off_c,9,39,0,
2,2100,Note_off_c,9,40,0,
2,2100,Note_off_c,9,41,0,
2,2100,Note_off_c,9,42,0,
2,2100,Note_off_c,9,43,0,
2,2100,Note_off_c,9,44,0,
2,2100,Note_off_c,9,45,0,
2,2100,Note_off_c,9,46,0,
2,2100,Note_off_c,9,47,0,
2,2100,Note_off_c,9,48,0,
2,2100,Note_off_c,9,49,0,
2,2100,Note_off_c,9,50,0,
2,2100,Note_off_c,9,51,0,
2,2100,Note_off_c,9,56,0,
2,2100,Note_off_c,9,57,0,
2,2100,Note_off_c,9,59,0,
2,2100,Note_off_c,9,60,0,
2,2100,Note_off_c,9,61,0,
2,2100,Note_off_c,9,63,0,
2,2100,Note_off_c,9,68,0,
2,2100,Note_off_c,9,69,0,
2,2100,Note_off_c,9,70,0,
2,2100,Note_off_c,9,76,0,
2,2100,Note_off_c,9,80,0,
2,2100,Note_off_c,9,81,0,
2,2100,Note_off_c,9,82,0,
2,2100,Note_off_c,9,87,0,
2,2100,Note_off_c,9,88,0,
2,2100,Note_off_c,9,89,0,
2,2100,Note_off_c,9,91,0,
2,2100,Note_off_c,9,93,0,
2,2120,Note_on_c,9,35,7,
2,2120,Note_off_c,9,36,0,
2,2120,Note_off_c,9,37,0,
2,2120,Note_on_c,9,38,3,
2,2120,Note_off_c,9,39,0,
2,2120,Note_off_c,9,40,0,
2,2120,Note_off_c,9,41,0,
2,2120,Note_off_c,9,42,0,
2,2120,Note_off_c,9,43,0,
2,2120,Note_off_c,9,44,0,
2,2120,Note_off_c,9,45,0,
2,2120,Note_off_c,9,46,0,
2,2120,Note_off_c,9,47,0,
2,2120,Note_off_c,9,48,0,
2,2120,Note_off_c,9,49,0,
2,2120,Note_off_c,9,50,0,
2,2120,Note_off_c,9,51,0,
2,2120,Note_off_c,9,56,0,
2,2120,Note_off_c,9,57,0,
2,2120,Note_off_c,9,59,0,
2,2120,Note_off_c,9,60,0,
2,2120,Note_off_c,9,61,0,
2,2120,Note_off_c,9,63,0,
2,2120,Note_off_c,9,68,0,
2,2120,Note_off_c,9,69,0,
2,2120,Note_off_c,9,70,0,
2,2120,Note_off_c,9,76,0,
2,2120,Note_off_c,9,80,0,
2,2120,Note_off_c,9,81,0,
2,2120,Note_off_c,9,82,0,
2,2120,Note_off_c,9,87,0,
2,2120,Note_off_c,9,88,0,
2,2120,Note_off_c,9,89,0,
2,2120,Note_off_c,9,91,0,
2,2120,Note_off_c,9,93,0,
2,2140,Note_on_c,9,35,7,
2,2140,Note_off_c,9,36,0,
2,2140,Note_off_c,9,37,0,
2,2140,Note_on_c,9,38,3,
2,2140,Note_off_c,9,39,0,
2,2140,Note_off_c,9,40,0,
2,2140,Note_off_c,9,41,0,
2,2140,Note_off_c,9,42,0,
2,2140,Note_off_c,9,43,0,
2,2140,Note_off_c,9,44,0,
2,2140,Note_off_c,9,45,0,
2,2140,Note_off_c,9,46,0,
2,2140,Note_off_c,9,47,0,
2,2140,Note_off_c,9,48,0,
2,2140,Note_off_c,9,49,0,
2,2140,Note_off_c,9,50,0,
2,2140,Note_off_c,9,51,0,
2,2140,Note_off_c,9,56,0,
2,2140,Note_off_c,9,57,0,
2,2140,Note_off_c,9,59,0,
2,2140,Note_off_c,9,60,0,
2,2140,Note_off_c,9,61,0,
2,2140,Note_off_c,9,63,0,
2,2140,Note_off_c,9,68,0,
2,2140,Note_off_c,9,69,0,
2,2140,Note_off_c,9,70,0,
2,2140,Note_off_c,9,76,0,
2,2140,Note_off_c,9,80,0,
2,2140,Note_off_c,9,81,0,
2,2140,Note_off_c,9,82,0,
2,2140,Note_off_c,9,87,0,
2,2140,Note_off_c,9,88,0,
2,2140,Note_off_c,9,89,0,
2,2140,Note_off_c,9,91,0,
2,2140,Note_off_c,9,93,0,
2,2160,Note_on_c,9,35,7,
2,2160,Note_off_c,9,36,0,
2,2160,Note_off_c,9,37,0,
2,2160,Note_on_c,9,38,3,
2,2160,Note_off_c,9,39,0,
2,2160,Note_off_c,9,40,0,
2,2160,Note_off_c,9,41,0,
2,2160,Note_off_c,9,42,0,
2,2160,Note_off_c,9,43,0,
2,2160,Note_off_c,9,44,0,
2,2160,Note_off_c,9,45,0,
2,2160,Note_off_c,9,46,0,
2,2160,Note_off_c,9,47,0,
2,2160,Note_off_c,9,48,0,
2,2160,Note_off_c,9,49,0,
2,2160,Note_off_c,9,50,0,
2,2160,Note_off_c,9,51,0,
2,2160,Note_off_c,9,56,0,
2,2160,Note_off_c,9,57,0,
2,2160,Note_off_c,9,59,0,
2,2160,Note_off_c,9,60,0,
2,2160,Note_off_c,9,61,0,
2,2160,Note_off_c,9,63,0,
2,2160,Note_off_c,9,68,0,
2,2160,Note_off_c,9,69,0,
2,2160,Note_off_c,9,70,0,
2,2160,Note_off_c,9,76,0,
2,2160,Note_off_c,9,80,0,
2,2160,Note_off_c,9,81,0,
2,2160,Note_off_c,9,82,0,
2,2160,Note_off_c,9,87,0,
2,2160,Note_off_c,9,88,0,
2,2160,Note_off_c,9,89,0,
2,2160,Note_off_c,9,91,0,
2,2160,Note_off_c,9,93,0,
2,2180,Note_on_c,9,35,7,
2,2180,Note_off_c,9,36,0,
2,2180,Note_off_c,9,37,0,
2,2180,Note_on_c,9,38,3,
2,2180,Note_off_c,9,39,0,
2,2180,Note_off_c,9,40,0,
2,2180,Note_off_c,9,41,0,
2,2180,Note_off_c,9,42,0,
2,2180,Note_off_c,9,43,0,
2,2180,Note_off_c,9,44,0,
2,2180,Note_off_c,9,45,0,
2,2180,Note_off_c,9,46,0,
2,2180,Note_off_c,9,47,0,
2,2180,Note_off_c,9,48,0,
2,2180,Note_off_c,9,49,0,
2,2180,Note_off_c,9,50,0,
2,2180,Note_off_c,9,51,0,
2,2180,Note_off_c,9,56,0,
2,2180,Note_off_c,9,57,0,
2,2180,Note_off_c,9,59,0,
2,2180,Note_off_c,9,60,0,
2,2180,Note_off_c,9,61,0,
2,2180,Note_off_c,9,63,0,
2,2180,Note_off_c,9,68,0,
2,2180,Note_off_c,9,69,0,
2,2180,Note_off_c,9,70,0,
2,2180,Note_off_c,9,76,0,
2,2180,Note_off_c,9,80,0,
2,2180,Note_off_c,9,81,0,
2,2180,Note_off_c,9,82,0,
2,2180,Note_off_c,9,87,0,
2,2180,Note_off_c,9,88,0,
2,2180,Note_off_c,9,89,0,
2,2180,Note_off_c,9,91,0,
2,2180,Note_off_c,9,93,0,
2,2200,Note_on_c,9,35,7,
2,2200,Note_off_c,9,36,0,
2,2200,Note_off_c,9,37,0,
2,2200,Note_on_c,9,38,3,
2,2200,Note_off_c,9,39,0,
2,2200,Note_off_c,9,40,0,
2,2200,Note_off_c,9,41,0,
2,2200,Note_off_c,9,42,0,
2,2200,Note_off_c,9,43,0,
2,2200,Note_off_c,9,44,0,
2,2200,Note_off_c,9,45,0,
2,2200,Note_off_c,9,46,0,
2,2200,Note_off_c,9,47,0,
2,2200,Note_off_c,9,48,0,
2,2200,Note_off_c,9,49,0,
2,2200,Note_off_c,9,50,0,
2,2200,Note_off_c,9,51,0,
2,2200,Note_off_c,9,56,0,
2,2200,Note_off_c,9,57,0,
2,2200,Note_off_c,9,59,0,
2,2200,Note_off_c,9,60,0,
2,2200,Note_off_c,9,61,0,
2,2200,Note_off_c,9,63,0,
2,2200,Note_off_c,9,68,0,
2,2200,Note_off_c,9,69,0,
2,2200,Note_off_c,9,70,0,
2,2200,Note_off_c,9,76,0,
2,2200,Note_off_c,9,80,0,
2,2200,Note_off_c,9,81,0,
2,2200,Note_off_c,9,82,0,
2,2200,Note_off_c,9,87,0,
2,2200,Note_off_c,9,88,0,
2,2200,Note_off_c,9,89,0,
2,2200,Note_off_c,9,91,0,
2,2200,Note_off_c,9,93,0,
2,2220,Note_on_c,9,35,7,
2,2220,Note_off_c,9,36,0,
2,2220,Note_off_c,9,37,0,
2,2220,Note_on_c,9,38,3,
2,2220,Note_off_c,9,39,0,
2,2220,Note_off_c,9,40,0,
2,2220,Note_off_c,9,41,0,
2,2220,Note_off_c,9,42,0,
2,2220,Note_off_c,9,43,0,
2,2220,Note_off_c,9,44,0,
2,2220,Note_off_c,9,45,0,
2,2220,Note_off_c,9,46,0,
2,2220,Note_off_c,9,47,0,
2,2220,Note_off_c,9,48,0,
2,2220,Note_off_c,9,49,0,
2,2220,Note_off_c,9,50,0,
2,2220,Note_off_c,9,51,0,
2,2220,Note_off_c,9,56,0,
2,2220,Note_off_c,9,57,0,
2,2220,Note_off_c,9,59,0,
2,2220,Note_off_c,9,60,0,
2,2220,Note_off_c,9,61,0,
2,2220,Note_off_c,9,63,0,
2,2220,Note_off_c,9,68,0,
2,2220,Note_off_c,9,69,0,
2,2220,Note_off_c,9,70,0,
2,2220,Note_off_c,9,76,0,
2,2220,Note_off_c,9,80,0,
2,2220,Note_off_c,9,81,0,
2,2220,Note_off_c,9,82,0,
2,2220,Note_off_c,9,87,0,
2,2220,Note_off_c,9,88,0,
2,2220,Note_off_c,9,89,0,
2,2220,Note_off_c,9,91,0,
2,2220,Note_off_c,9,93,0,
2,2240,Note_on_c,9,35,7,
2,2240,Note_off_c,9,36,0,
2,2240,Note_off_c,9,37,0,
2,2240,Note_on_c,9,38,3,
2,2240,Note_off_c,9,39,0,
2,2240,Note_off_c,9,40,0,
2,2240,Note_off_c,9,41,0,
2,2240,Note_off_c,9,42,0,
2,2240,Note_off_c,9,43,0,
2,2240,Note_off_c,9,44,0,
2,2240,Note_off_c,9,45,0,
2,2240,Note_off_c,9,46,0,
2,2240,Note_off_c,9,47,0,
2,2240,Note_off_c,9,48,0,
2,2240,Note_off_c,9,49,0,
2,2240,Note_off_c,9,50,0,
2,2240,Note_off_c,9,51,0,
2,2240,Note_off_c,9,56,0,
2,2240,Note_off_c,9,57,0,
2,2240,Note_off_c,9,59,0,
2,2240,Note_off_c,9,60,0,
2,2240,Note_off_c,9,61,0,
2,2240,Note_off_c,9,63,0,
2,2240,Note_off_c,9,68,0,
2,2240,Note_off_c,9,69,0,
2,2240,Note_off_c,9,70,0,
2,2240,Note_off_c,9,76,0,
2,2240,Note_off_c,9,80,0,
2,2240,Note_off_c,9,81,0,
2,2240,Note_off_c,9,82,0,
2,2240,Note_off_c,9,87,0,
2,2240,Note_off_c,9,88,0,
2,2240,Note_off_c,9,89,0,
2,2240,Note_off_c,9,91,0,
2,2240,Note_off_c,9,93,0,
2,2260,Note_on_c,9,35,7,
2,2260,Note_off_c,9,36,0,
2,2260,Note_off_c,9,37,0,
2,2260,Note_on_c,9,38,3,
2,2260,Note_off_c,9,39,0,
2,2260,Note_off_c,9,40,0,
2,2260,Note_off_c,9,41,0,
2,2260,Note_off_c,9,42,0,
2,2260,Note_off_c,9,43,0,
2,2260,Note_off_c,9,44,0,
2,2260,Note_off_c,9,45,0,
2,2260,Note_off_c,9,46,0,
2,2260,Note_off_c,9,47,0,
2,2260,Note_off_c,9,48,0,
2,2260,Note_off_c,9,49,0,
2,2260,Note_off_c,9,50,0,
2,2260,Note_off_c,9,51,0,
2,2260,Note_off_c,9,56,0,
2,2260,Note_off_c,9,57,0,
2,2260,Note_off_c,9,59,0,
2,2260,Note_off_c,9,60,0,
2,2260,Note_off_c,9,61,0,
2,2260,Note_off_c,9,63,0,
2,2260,Note_off_c,9,68,0,
2,2260,Note_off_c,9,69,0,
2,2260,Note_off_c,9,70,0,
2,2260,Note_off_c,9,76,0,
2,2260,Note_off_c,9,80,0,
2,2260,Note_off_c,9,81,0,
2,2260,Note_off_c,9,82,0,
2,2260,Note_off_c,9,87,0,
2,2260,Note_off_c,9,88,0,
2,2260,Note_off_c,9,89,0,
2,2260,Note_off_c,9,91,0,
2,2260,Note_off_c,9,93,0,
2,2280,Note_on_c,9,35,7,
2,2280,Note_off_c,9,36,0,
2,2280,Note_off_c,9,37,0,
2,2280,Note_on_c,9,38,3,
2,2280,Note_off_c,9,39,0,
2,2280,Note_off_c,9,40,0,
2,2280,Note_off_c,9,41,0,
2,2280,Note_off_c,9,42,0,
2,2280,Note_off_c,9,43,0,
2,2280,Note_off_c,9,44,0,
2,2280,Note_off_c,9,45,0,
2,2280,Note_off_c,9,46,0,
2,2280,Note_off_c,9,47,0,
2,2280,Note_off_c,9,48,0,
2,2280,Note_off_c,9,49,0,
2,2280,Note_off_c,9,50,0,
2,2280,Note_off_c,9,51,0,
2,2280,Note_off_c,9,56,0,
2,2280,Note_off_c,9,57,0,
2,2280,Note_off_c,9,59,0,
2,2280,Note_off_c,9,60,0,
2,2280,Note_off_c,9,61,0,
2,2280,Note_off_c,9,63,0,
2,2280,Note_off_c,9,68,0,
2,2280,Note_off_c,9,69,0,
2,2280,Note_off_c,9,70,0,
2,2280,Note_off_c,9,76,0,
2,2280,Note_off_c,9,80,0,
2,2280,Note_off_c,9,81,0,
2,2280,Note_off_c,9,82,0,
2,2280,Note_off_c,9,87,0,
2,2280,Note_off_c,9,88,0,
2,2280,Note_off_c,9,89,0,
2,2280,Note_off_c,9,91,0,
2,2280,Note_off_c,9,93,0,
2,2300,Note_on_c,9,35,7,
2,2300,Note_off_c,9,36,0,
2,2300,Note_off_c,9,37,0,
2,2300,Note_on_c,9,38,3,
2,2300,Note_off_c,9,39,0,
2,2300,Note_off_c,9,40,0,
2,2300,Note_off_c,9,41,0,
2,2300,Note_off_c,9,42,0,
2,2300,Note_off_c,9,43,0,
2,2300,Note_off_c,9,44,0,
2,2300,Note_off_c,9,45,0,
2,2300,Note_off_c,9,46,0,
2,2300,Note_off_c,9,47,0,
2,2300,Note_off_c,9,48,0,
2,2300,Note_off_c,9,49,0,
2,2300,Note_off_c,9,50,0,
2,2300,Note_off_c,9,51,0,
2,2300,Note_off_c,9,56,0,
2,2300,Note_off_c,9,57,0,
2,2300,Note_off_c,9,59,0,
2,2300,Note_off_c,9,60,0,
2,2300,Note_off_c,9,61,0,
2,2300,Note_off_c,9,63,0,
2,2300,Note_off_c,9,68,0,
2,2300,Note_off_c,9,69,0,
2,2300,Note_off_c,9,70,0,
2,2300,Note_off_c,9,76,0,
2,2300,Note_off_c,9,80,0,
2,2300,Note_off_c,9,81,0,
2,2300,Note_off_c,9,82,0,
2,2300,Note_off_c,9,87,0,
2,2300,Note_off_c,9,88,0,
2,2300,Note_off_c,9,89,0,
2,2300,Note_off_c,9,91,0,
2,2300,Note_off_c,9,93,0,
2,2320,Note_on_c,9,35,7,
2,2320,Note_off_c,9,36,0,
2,2320,Note_off_c,9,37,0,
2,2320,Note_on_c,9,38,3,
2,2320,Note_off_c,9,39,0,
2,2320,Note_off_c,9,40,0,
2,2320,Note_off_c,9,41,0,
2,2320,Note_off_c,9,42,0,
2,2320,Note_off_c,9,43,0,
2,2320,Note_off_c,9,44,0,
2,2320,Note_off_c,9,45,0,
2,2320,Note_off_c,9,46,0,
2,2320,Note_off_c,9,47,0,
2,2320,Note_off_c,9,48,0,
2,2320,Note_off_c,9,49,0,
2,2320,Note_off_c,9,50,0,
2,2320,Note_off_c,9,51,0,
2,2320,Note_off_c,9,56,0,
2,2320,Note_off_c,9,57,0,
2,2320,Note_off_c,9,59,0,
2,2320,Note_off_c,9,60,0,
2,2320,Note_off_c,9,61,0,
2,2320,Note_off_c,9,63,0,
2,2320,Note_off_c,9,68,0,
2,2320,Note_off_c,9,69,0,
2,2320,Note_off_c,9,70,0,
2,2320,Note_off_c,9,76,0,
2,2320,Note_off_c,9,80,0,
2,2320,Note_off_c,9,81,0,
2,2320,Note_off_c,9,82,0,
2,2320,Note_off_c,9,87,0,
2,2320,Note_off_c,9,88,0,
2,2320,Note_off_c,9,89,0,
2,2320,Note_off_c,9,91,0,
2,2320,Note_off_c,9,93,0,
2,2340,Note_on_c,9,35,7,
2,2340,Note_off_c,9,36,0,
2,2340,Note_off_c,9,37,0,
2,2340,Note_on_c,9,38,3,
2,2340,Note_off_c,9,39,0,
2,2340,Note_off_c,9,40,0,
2,2340,Note_off_c,9,41,0,
2,2340,Note_off_c,9,42,0,
2,2340,Note_off_c,9,43,0,
2,2340,Note_off_c,9,44,0,
2,2340,Note_off_c,9,45,0,
2,2340,Note_off_c,9,46,0,
2,2340,Note_off_c,9,47,0,
2,2340,Note_off_c,9,48,0,
2,2340,Note_off_c,9,49,0,
2,2340,Note_off_c,9,50,0,
2,2340,Note_off_c,9,51,0,
2,2340,Note_off_c,9,56,0,
2,2340,Note_off_c,9,57,0,
2,2340,Note_off_c,9,59,0,
2,2340,Note_off_c,9,60,0,
2,2340,Note_off_c,9,61,0,
2,2340,Note_off_c,9,63,0,
2,2340,Note_off_c,9,68,0,
2,2340,Note_off_c,9,69,0,
2,2340,Note_off_c,9,70,0,
2,2340,Note_off_c,9,76,0,
2,2340,Note_off_c,9,80,0,
2,2340,Note_off_c,9,81,0,
2,2340,Note_off_c,9,82,0,
2,2340,Note_off_c,9,87,0,
2,2340,Note_off_c,9,88,0,
2,2340,Note_off_c,9,89,0,
2,2340,Note_off_c,9,91,0,
2,2340,Note_off_c,9,93,0,
2,2360,Note_on_c,9,35,7,
2,2360,Note_off_c,9,36,0,
2,2360,Note_off_c,9,37,0,
2,2360,Note_on_c,9,38,3,
2,2360,Note_off_c,9,39,0,
2,2360,Note_off_c,9,40,0,
2,2360,Note_off_c,9,41,0,
2,2360,Note_off_c,9,42,0,
2,2360,Note_off_c,9,43,0,
2,2360,Note_off_c,9,44,0,
2,2360,Note_off_c,9,45,0,
2,2360,Note_off_c,9,46,0,
2,2360,Note_off_c,9,47,0,
2,2360,Note_off_c,9,48,0,
2,2360,Note_off_c,9,49,0,
2,2360,Note_off_c,9,50,0,
2,2360,Note_off_c,9,51,0,
2,2360,Note_off_c,9,56,0,
2,2360,Note_off_c,9,57,0,
2,2360,Note_off_c,9,59,0,
2,2360,Note_off_c,9,60,0,
2,2360,Note_off_c,9,61,0,
2,2360,Note_off_c,9,63,0,
2,2360,Note_off_c,9,68,0,
2,2360,Note_off_c,9,69,0,
2,2360,Note_off_c,9,70,0,
2,2360,Note_off_c,9,76,0,
2,2360,Note_off_c,9,80,0,
2,2360,Note_off_c,9,81,0,
2,2360,Note_off_c,9,82,0,
2,2360,Note_off_c,9,87,0,
2,2360,Note_off_c,9,88,0,
2,2360,Note_off_c,9,89,0,
2,2360,Note_off_c,9,91,0,
2,2360,Note_off_c,9,93,0,
2,2380,Note_on_c,9,35,7,
2,2380,Note_off_c,9,36,0,
2,2380,Note_off_c,9,37,0,
2,2380,Note_on_c,9,38,3,
2,2380,Note_off_c,9,39,0,
2,2380,Note_off_c,9,40,0,
2,2380,Note_off_c,9,41,0,
2,2380,Note_off_c,9,42,0,
2,2380,Note_off_c,9,43,0,
2,2380,Note_off_c,9,44,0,
2,2380,Note_off_c,9,45,0,
2,2380,Note_off_c,9,46,0,
2,2380,Note_off_c,9,47,0,
2,2380,Note_off_c,9,48,0,
2,2380,Note_off_c,9,49,0,
2,2380,Note_off_c,9,50,0,
2,2380,Note_off_c,9,51,0,
2,2380,Note_off_c,9,56,0,
2,2380,Note_off_c,9,57,0,
2,2380,Note_off_c,9,59,0,
2,2380,Note_off_c,9,60,0,
2,2380,Note_off_c,9,61,0,
2,2380,Note_off_c,9,63,0,
2,2380,Note_off_c,9,68,0,
2,2380,Note_off_c,9,69,0,
2,2380,Note_off_c,9,70,0,
2,2380,Note_off_c,9,76,0,
2,2380,Note_off_c,9,80,0,
2,2380,Note_off_c,9,81,0,
2,2380,Note_off_c,9,82,0,
2,2380,Note_off_c,9,87,0,
2,2380,Note_off_c,9,88,0,
2,2380,Note_off_c,9,89,0,
2,2380,Note_off_c,9,91,0,
2,2380,Note_off_c,9,93,0,
2,2400,Note_on_c,9,35,7,
2,2400,Note_off_c,9,36,0,
2,2400,Note_off_c,9,37,0,
2,2400,Note_on_c,9,38,3,
2,2400,Note_off_c,9,39,0,
2,2400,Note_off_c,9,40,0,
2,2400,Note_off_c,9,41,0,
2,2400,Note_off_c,9,42,0,
2,2400,Note_off_c,9,43,0,
2,2400,Note_off_c,9,44,0,
2,2400,Note_off_c,9,45,0,
2,2400,Note_off_c,9,46,0,
2,2400,Note_off_c,9,47,0,
2,2400,Note_off_c,9,48,0,
2,2400,Note_off_c,9,49,0,
2,2400,Note_off_c,9,50,0,
2,2400,Note_off_c,9,51,0,
2,2400,Note_off_c,9,56,0,
2,2400,Note_off_c,9,57,0,
2,2400,Note_off_c,9,59,0,
2,2400,Note_off_c,9,60,0,
2,2400,Note_off_c,9,61,0,
2,2400,Note_off_c,9,63,0,
2,2400,Note_off_c,9,68,0,
2,2400,Note_off_c,9,69,0,
2,2400,Note_off_c,9,70,0,
2,2400,Note_off_c,9,76,0,
2,2400,Note_off_c,9,80,0,
2,2400,Note_off_c,9,81,0,
2,2400,Note_off_c,9,82,0,
2,2400,Note_off_c,9,87,0,
2,2400,Note_off_c,9,88,0,
2,2400,Note_off_c,9,89,0,
2,2400,Note_off_c,9,91,0,
2,2400,Note_off_c,9,93,0,
2,2420,Note_on_c,9,35,7,
2,2420,Note_off_c,9,36,0,
2,2420,Note_off_c,9,37,0,
2,2420,Note_on_c,9,38,3,
2,2420,Note_off_c,9,39,0,
2,2420,Note_off_c,9,40,0,
2,2420,Note_off_c,9,41,0,
2,2420,Note_off_c,9,42,0,
2,2420,Note_off_c,9,43,0,
2,2420,Note_off_c,9,44,0,
2,2420,Note_off_c,9,45,0,
2,2420,Note_off_c,9,46,0,
2,2420,Note_off_c,9,47,0,
2,2420,Note_off_c,9,48,0,
2,2420,Note_off_c,9,49,0,
2,2420,Note_off_c,9,50,0,
2,2420,Note_off_c,9,51,0,
2,2420,Note_off_c,9,56,0,
2,2420,Note_off_c,9,57,0,
2,2420,Note_off_c,9,59,0,
2,2420,Note_off_c,9,60,0,
2,2420,Note_off_c,9,61,0,
2,2420,Note_off_c,9,63,0,
2,2420,Note_off_c,9,68,0,
2,2420,Note_off_c,9,69,0,
2,2420,Note_off_c,9,70,0,
2,2420,Note_off_c,9,76,0,
2,2420,Note_off_c,9,80,0,
2,2420,Note_off_c,9,81,0,
2,2420,Note_off_c,9,82,0,
2,2420,Note_off_c,9,87,0,
2,2420,Note_off_c,9,88,0,
2,2420,Note_off_c,9,89,0,
2,2420,Note_off_c,9,91,0,
2,2420,Note_off_c,9,93,0,
2,2440,Note_on_c,9,35,7,
2,2440,Note_off_c,9,36,0,
2,2440,Note_off_c,9,37,0,
2,2440,Note_on_c,9,38,3,
2,2440,Note_off_c,9,39,0,
2,2440,Note_off_c,9,40,0,
2,2440,Note_off_c,9,41,0,
2,2440,Note_off_c,9,42,0,
2,2440,Note_off_c,9,43,0,
2,2440,Note_off_c,9,44,0,
2,2440,Note_off_c,9,45,0,
2,2440,Note_off_c,9,46,0,
2,2440,Note_off_c,9,47,0,
2,2440,Note_off_c,9,48,0,
2,2440,Note_off_c,9,49,0,
2,2440,Note_off_c,9,50,0,
2,2440,Note_off_c,9,51,0,
2,2440,Note_off_c,9,56,0,
2,2440,Note_off_c,9,57,0,
2,2440,Note_off_c,9,59,0,
2,2440,Note_off_c,9,60,0,
2,2440,Note_off_c,9,61,0,
2,2440,Note_off_c,9,63,0,
2,2440,Note_off_c,9,68,0,
2,2440,Note_off_c,9,69,0,
2,2440,Note_off_c,9,70,0,
2,2440,Note_off_c,9,76,0,
2,2440,Note_off_c,9,80,0,
2,2440,Note_off_c,9,81,0,
2,2440,Note_off_c,9,82,0,
2,2440,Note_off_c,9,87,0,
2,2440,Note_off_c,9,88,0,
2,2440,Note_off_c,9,89,0,
2,2440,Note_off_c,9,91,0,
2,2440,Note_off_c,9,93,0,
2,2460,Note_on_c,9,35,7,
2,2460,Note_off_c,9,36,0,
2,2460,Note_off_c,9,37,0,
2,2460,Note_on_c,9,38,3,
2,2460,Note_off_c,9,39,0,
2,2460,Note_off_c,9,40,0,
2,2460,Note_off_c,9,41,0,
2,2460,Note_off_c,9,42,0,
2,2460,Note_off_c,9,43,0,
2,2460,Note_off_c,9,44,0,
2,2460,Note_off_c,9,45,0,
2,2460,Note_off_c,9,46,0,
2,2460,Note_off_c,9,47,0,
2,2460,Note_off_c,9,48,0,
2,2460,Note_off_c,9,49,0,
2,2460,Note_off_c,9,50,0,
2,2460,Note_off_c,9,51,0,
2,2460,Note_off_c,9,56,0,
2,2460,Note_off_c,9,57,0,
2,2460,Note_off_c,9,59,0,
2,2460,Note_off_c,9,60,0,
2,2460,Note_off_c,9,61,0,
2,2460,Note_off_c,9,63,0,
2,2460,Note_off_c,9,68,0,
2,2460,Note_off_c,9,69,0,
2,2460,Note_off_c,9,70,0,
2,2460,Note_off_c,9,76,0,
2,2460,Note_off_c,9,80,0,
2,2460,Note_off_c,9,81,0,
2,2460,Note_off_c,9,82,0,
2,2460,Note_off_c,9,87,0,
2,2460,Note_off_c,9,88,0,
2,2460,Note_off_c,9,89,0,
2,2460,Note_off_c,9,91,0,
2,2460,Note_off_c,9,93,0,
2,2480,Note_on_c,9,35,7,
2,2480,Note_off_c,9,36,0,
2,2480,Note_off_c,9,37,0,
2,2480,Note_on_c,9,38,3,
2,2480,Note_off_c,9,39,0,
2,2480,Note_off_c,9,40,0,
2,2480,Note_off_c,9,41,0,
2,2480,Note_off_c,9,42,0,
2,2480,Note_off_c,9,43,0,
2,2480,Note_off_c,9,44,0,
2,2480,Note_off_c,9,45,0,
2,2480,Note_off_c,9,46,0,
2,2480,Note_off_c,9,47,0,
2,2480,Note_off_c,9,48,0,
2,2480,Note_off_c,9,49,0,
2,2480,Note_off_c,9,50,0,
2,2480,Note_off_c,9,51,0,
2,2480,Note_off_c,9,56,0,
2,2480,Note_off_c,9,57,0,
2,2480,Note_off_c,9,59,0,
2,2480,Note_off_c,9,60,0,
2,2480,Note_off_c,9,61,0,
2,2480,Note_off_c,9,63,0,
2,2480,Note_off_c,9,68,0,
2,2480,Note_off_c,9,69,0,
2,2480,Note_off_c,9,70,0,
2,2480,Note_off_c,9,76,0,
2,2480,Note_off_c,9,80,0,
2,2480,Note_off_c,9,81,0,
2,2480,Note_off_c,9,82,0,
2,2480,Note_off_c,9,87,0,
2,2480,Note_off_c,9,88,0,
2,2480,Note_off_c,9,89,0,
2,2480,Note_off_c,9,91,0,
2,2480,Note_off_c,9,93,0,
2,2500,Note_on_c,9,35,7,
2,2500,Note_off_c,9,36,0,
2,2500,Note_off_c,9,37,0,
2,2500,Note_on_c,9,38,3,
2,2500,Note_off_c,9,39,0,
2,2500,Note_off_c,9,40,0,
2,2500,Note_off_c,9,41,0,
2,2500,Note_off_c,9,42,0,
2,2500,Note_off_c,9,43,0,
2,2500,Note_off_c,9,44,0,
2,2500,Note_off_c,9,45,0,
2,2500,Note_off_c,9,46,0,
2,2500,Note_off_c,9,47,0,
2,2500,Note_off_c,9,48,0,
2,2500,Note_off_c,9,49,0,
2,2500,Note_off_c,9,50,0,
2,2500,Note_off_c,9,51,0,
2,2500,Note_off_c,9,56,0,
2,2500,Note_off_c,9,57,0,
2,2500,Note_off_c,9,59,0,
2,2500,Note_off_c,9,60,0,
2,2500,Note_off_c,9,61,0,
2,2500,Note_off_c,9,63,0,
2,2500,Note_off_c,9,68,0,
2,2500,Note_off_c,9,69,0,
2,2500,Note_off_c,9,70,0,
2,2500,Note_off_c,9,76,0,
2,2500,Note_off_c,9,80,0,
2,2500,Note_off_c,9,81,0,
2,2500,Note_off_c,9,82,0,
2,2500,Note_off_c,9,87,0,
2,2500,Note_off_c,9,88,0,
2,2500,Note_off_c,9,89,0,
2,2500,Note_off_c,9,91,0,
2,2500,Note_off_c,9,93,0,
2,2520,Note_on_c,9,35,7,
2,2520,Note_off_c,9,36,0,
2,2520,Note_off_c,9,37,0,
2,2520,Note_on_c,9,38,3,
2,2520,Note_off_c,9,39,0,
2,2520,Note_off_c,9,40,0,
2,2520,Note_off_c,9,41,0,
2,2520,Note_off_c,9,42,0,
2,2520,Note_off_c,9,43,0,
2,2520,Note_off_c,9,44,0,
2,2520,Note_off_c,9,45,0,
2,2520,Note_off_c,9,46,0,
2,2520,Note_off_c,9,47,0,
2,2520,Note_off_c,9,48,0,
2,2520,Note_off_c,9,49,0,
2,2520,Note_off_c,9,50,0,
2,2520,Note_off_c,9,51,0,
2,2520,Note_off_c,9,56,0,
2,2520,Note_off_c,9,57,0,
2,2520,Note_off_c,9,59,0,
2,2520,Note_off_c,9,60,0,
2,2520,Note_off_c,9,61,0,
2,2520,Note_off_c,9,63,0,
2,2520,Note_off_c,9,68,0,
2,2520,Note_off_c,9,69,0,
2,2520,Note_off_c,9,70,0,
2,2520,Note_off_c,9,76,0,
2,2520,Note_off_c,9,80,0,
2,2520,Note_off_c,9,81,0,
2,2520,Note_off_c,9,82,0,
2,2520,Note_off_c,9,87,0,
2,2520,Note_off_c,9,88,0,
2,2520,Note_off_c,9,89,0,
2,2520,Note_off_c,9,91,0,
2,2520,Note_off_c,9,93,0,
2,2540,Note_on_c,9,35,7,
2,2540,Note_off_c,9,36,0,
2,2540,Note_off_c,9,37,0,
2,2540,Note_on_c,9,38,3,
2,2540,Note_off_c,9,39,0,
2,2540,Note_off_c,9,40,0,
2,2540,Note_off_c,9,41,0,
2,2540,Note_off_c,9,42,0,
2,2540,Note_off_c,9,43,0,
2,2540,Note_off_c,9,44,0,
2,2540,Note_off_c,9,45,0,
2,2540,Note_off_c,9,46,0,
2,2540,Note_off_c,9,47,0,
2,2540,Note_off_c,9,48,0,
2,2540,Note_off_c,9,49,0,
2,2540,Note_off_c,9,50,0,
2,2540,Note_off_c,9,51,0,
2,2540,Note_off_c,9,56,0,
2,2540,Note_off_c,9,57,0,
2,2540,Note_off_c,9,59,0,
2,2540,Note_off_c,9,60,0,
2,2540,Note_off_c,9,61,0,
2,2540,Note_off_c,9,63,0,
2,2540,Note_off_c,9,68,0,
2,2540,Note_off_c,9,69,0,
2,2540,Note_off_c,9,70,0,
2,2540,Note_off_c,9,76,0,
2,2540,Note_off_c,9,80,0,
2,2540,Note_off_c,9,81,0,
2,2540,Note_off_c,9,82,0,
2,2540,Note_off_c,9,87,0,
2,2540,Note_off_c,9,88,0,
2,2540,Note_off_c,9,89,0,
2,2540,Note_off_c,9,91,0,
2,2540,Note_off_c,9,93,0,
2,2560,Note_on_c,9,35,7,
2,2560,Note_off_c,9,36,0,
2,2560,Note_off_c,9,37,0,
2,2560,Note_on_c,9,38,3,
2,2560,Note_off_c,9,39,0,
2,2560,Note_off_c,9,40,0,
2,2560,Note_off_c,9,41,0,
2,2560,Note_off_c,9,42,0,
2,2560,Note_off_c,9,43,0,
2,2560,Note_off_c,9,44,0,
2,2560,Note_off_c,9,45,0,
2,2560,Note_off_c,9,46,0,
2,2560,Note_off_c,9,47,0,
2,2560,Note_off_c,9,48,0,
2,2560,Note_off_c,9,49,0,
2,2560,Note_off_c,9,50,0,
2,2560,Note_off_c,9,51,0,
2,2560,Note_off_c,9,56,0,
2,2560,Note_off_c,9,57,0,
2,2560,Note_off_c,9,59,0,
2,2560,Note_off_c,9,60,0,
2,2560,Note_off_c,9,61,0,
2,2560,Note_off_c,9,63,0,
2,2560,Note_off_c,9,68,0,
2,2560,Note_off_c,9,69,0,
2,2560,Note_off_c,9,70,0,
2,2560,Note_off_c,9,76,0,
2,2560,Note_off_c,9,80,0,
2,2560,Note_off_c,9,81,0,
2,2560,Note_off_c,9,82,0,
2,2560,Note_off_c,9,87,0,
2,2560,Note_off_c,9,88,0,
2,2560,Note_off_c,9,89,0,
2,2560,Note_off_c,9,91,0,
2,2560,Note_off_c,9,93,0,
2,2580,Note_on_c,9,35,7,
2,2580,Note_off_c,9,36,0,
2,2580,Note_off_c,9,37,0,
2,2580,Note_on_c,9,38,3,
2,2580,Note_off_c,9,39,0,
2,2580,Note_off_c,9,40,0,
2,2580,Note_off_c,9,41,0,
2,2580,Note_off_c,9,42,0,
2,2580,Note_off_c,9,43,0,
2,2580,Note_off_c,9,44,0,
2,2580,Note_off_c,9,45,0,
2,2580,Note_off_c,9,46,0,
2,2580,Note_off_c,9,47,0,
2,2580,Note_off_c,9,48,0,
2,2580,Note_off_c,9,49,0,
2,2580,Note_off_c,9,50,0,
2,2580,Note_off_c,9,51,0,
2,2580,Note_off_c,9,56,0,
2,2580,Note_off_c,9,57,0,
2,2580,Note_off_c,9,59,0,
2,2580,Note_off_c,9,60,0,
2,2580,Note_off_c,9,61,0,
2,2580,Note_off_c,9,63,0,
2,2580,Note_off_c,9,68,0,
2,2580,Note_off_c,9,69,0,
2,2580,Note_off_c,9,70,0,
2,2580,Note_off_c,9,76,0,
2,2580,Note_off_c,9,80,0,
2,2580,Note_off_c,9,81,0,
2,2580,Note_off_c,9,82,0,
2,2580,Note_off_c,9,87,0,
2,2580,Note_off_c,9,88,0,
2,2580,Note_off_c,9,89,0,
2,2580,Note_off_c,9,91,0,
2,2580,Note_off_c,9,93,0,
2,2600,Note_on_c,9,35,7,
2,2600,Note_off_c,9,36,0,
2,2600,Note_off_c,9,37,0,
2,2600,Note_on_c,9,38,3,
2,2600,Note_off_c,9,39,0,
2,2600,Note_off_c,9,40,0,
2,2600,Note_off_c,9,41,0,
2,2600,Note_off_c,9,42,0,
2,2600,Note_off_c,9,43,0,
2,2600,Note_off_c,9,44,0,
2,2600,Note_off_c,9,45,0,
2,2600,Note_off_c,9,46,0,
2,2600,Note_off_c,9,47,0,
2,2600,Note_off_c,9,48,0,
2,2600,Note_off_c,9,49,0,
2,2600,Note_off_c,9,50,0,
2,2600,Note_off_c,9,51,0,
2,2600,Note_off_c,9,56,0,
2,2600,Note_off_c,9,57,0,
2,2600,Note_off_c,9,59,0,
2,2600,Note_off_c,9,60,0,
2,2600,Note_off_c,9,61,0,
2,2600,Note_off_c,9,63,0,
2,2600,Note_off_c,9,68,0,
2,2600,Note_off_c,9,69,0,
2,2600,Note_off_c,9,70,0,
2,2600,Note_off_c,9,76,0,
2,2600,Note_off_c,9,80,0,
2,2600,Note_off_c,9,81,0,
2,2600,Note_off_c,9,82,0,
2,2600,Note_off_c,9,87,0,
2,2600,Note_off_c,9,88,0,
2,2600,Note_off_c,9,89,0,
2,2600,Note_off_c,9,91,0,
2,2600,Note_off_c,9,93,0,
2,2620,Note_on_c,9,35,7,
2,2620,Note_off_c,9,36,0,
2,2620,Note_off_c,9,37,0,
2,2620,Note_on_c,9,38,3,
2,2620,Note_off_c,9,39,0,
2,2620,Note_off_c,9,40,0,
2,2620,Note_off_c,9,41,0,
2,2620,Note_off_c,9,42,0,
2,2620,Note_off_c,9,43,0,
2,2620,Note_off_c,9,44,0,
2,2620,Note_off_c,9,45,0,
2,2620,Note_off_c,9,46,0,
2,2620,Note_off_c,9,47,0,
2,2620,Note_off_c,9,48,0,
2,2620,Note_off_c,9,49,0,
2,2620,Note_off_c,9,50,0,
2,2620,Note_off_c,9,51,0,
2,2620,Note_off_c,9,56,0,
2,2620,Note_off_c,9,57,0,
2,2620,Note_off_c,9,59,0,
2,2620,Note_off_c,9,60,0,
2,2620,Note_off_c,9,61,0,
2,2620,Note_off_c,9,63,0,
2,2620,Note_off_c,9,68,0,
2,2620,Note_off_c,9,69,0,
2,2620,Note_off_c,9,70,0,
2,2620,Note_off_c,9,76,0,
2,2620,Note_off_c,9,80,0,
2,2620,Note_off_c,9,81,0,
2,2620,Note_off_c,9,82,0,
2,2620,Note_off_c,9,87,0,
2,2620,Note_off_c,9,88,0,
2,2620,Note_off_c,9,89,0,
2,2620,Note_off_c,9,91,0,
2,2620,Note_off_c,9,93,0,
2,2640,Note_on_c,9,35,7,
2,2640,Note_off_c,9,36,0,
2,2640,Note_off_c,9,37,0,
2,2640,Note_on_c,9,38,3,
2,2640,Note_off_c,9,39,0,
2,2640,Note_off_c,9,40,0,
2,2640,Note_off_c,9,41,0,
2,2640,Note_off_c,9,42,0,
2,2640,Note_off_c,9,43,0,
2,2640,Note_off_c,9,44,0,
2,2640,Note_off_c,9,45,0,
2,2640,Note_off_c,9,46,0,
2,2640,Note_off_c,9,47,0,
2,2640,Note_off_c,9,48,0,
2,2640,Note_off_c,9,49,0,
2,2640,Note_off_c,9,50,0,
2,2640,Note_off_c,9,51,0,
2,2640,Note_off_c,9,56,0,
2,2640,Note_off_c,9,57,0,
2,2640,Note_off_c,9,59,0,
2,2640,Note_off_c,9,60,0,
2,2640,Note_off_c,9,61,0,
2,2640,Note_off_c,9,63,0,
2,2640,Note_off_c,9,68,0,
2,2640,Note_off_c,9,69,0,
2,2640,Note_off_c,9,70,0,
2,2640,Note_off_c,9,76,0,
2,2640,Note_off_c,9,80,0,
2,2640,Note_off_c,9,81,0,
2,2640,Note_off_c,9,82,0,
2,2640,Note_off_c,9,87,0,
2,2640,Note_off_c,9,88,0,
2,2640,Note_off_c,9,89,0,
2,2640,Note_off_c,9,91,0,
2,2640,Note_off_c,9,93,0,
2,2660,Note_on_c,9,35,7,
2,2660,Note_off_c,9,36,0,
2,2660,Note_off_c,9,37,0,
2,2660,Note_on_c,9,38,3,
2,2660,Note_off_c,9,39,0,
2,2660,Note_off_c,9,40,0,
2,2660,Note_off_c,9,41,0,
2,2660,Note_off_c,9,42,0,
2,2660,Note_off_c,9,43,0,
2,2660,Note_off_c,9,44,0,
2,2660,Note_off_c,9,45,0,
2,2660,Note_off_c,9,46,0,
2,2660,Note_off_c,9,47,0,
2,2660,Note_off_c,9,48,0,
2,2660,Note_off_c,9,49,0,
2,2660,Note_off_c,9,50,0,
2,2660,Note_off_c,9,51,0,
2,2660,Note_off_c,9,56,0,
2,2660,Note_off_c,9,57,0,
2,2660,Note_off_c,9,59,0,
2,2660,Note_off_c,9,60,0,
2,2660,Note_off_c,9,61,0,
2,2660,Note_off_c,9,63,0,
2,2660,Note_off_c,9,68,0,
2,2660,Note_off_c,9,69,0,
2,2660,Note_off_c,9,70,0,
2,2660,Note_off_c,9,76,0,
2,2660,Note_off_c,9,80,0,
2,2660,Note_off_c,9,81,0,
2,2660,Note_off_c,9,82,0,
2,2660,Note_off_c,9,87,0,
2,2660,Note_off_c,9,88,0,
2,2660,Note_off_c,9,89,0,
2,2660,Note_off_c,9,91,0,
2,2660,Note_off_c,9,93,0,
2,2680,Note_on_c,9,35,7,
2,2680,Note_off_c,9,36,0,
2,2680,Note_off_c,9,37,0,
2,2680,Note_on_c,9,38,3,
2,2680,Note_off_c,9,39,0,
2,2680,Note_off_c,9,40,0,
2,2680,Note_off_c,9,41,0,
2,2680,Note_off_c,9,42,0,
2,2680,Note_off_c,9,43,0,
2,2680,Note_off_c,9,44,0,
2,2680,Note_off_c,9,45,0,
2,2680,Note_off_c,9,46,0,
2,2680,Note_off_c,9,47,0,
2,2680,Note_off_c,9,48,0,
2,2680,Note_off_c,9,49,0,
2,2680,Note_off_c,9,50,0,
2,2680,Note_off_c,9,51,0,
2,2680,Note_off_c,9,56,0,
2,2680,Note_off_c,9,57,0,
2,2680,Note_off_c,9,59,0,
2,2680,Note_off_c,9,60,0,
2,2680,Note_off_c,9,61,0,
2,2680,Note_off_c,9,63,0,
2,2680,Note_off_c,9,68,0,
2,2680,Note_off_c,9,69,0,
2,2680,Note_off_c,9,70,0,
2,2680,Note_off_c,9,76,0,
2,2680,Note_off_c,9,80,0,
2,2680,Note_off_c,9,81,0,
2,2680,Note_off_c,9,82,0,
2,2680,Note_off_c,9,87,0,
2,2680,Note_off_c,9,88,0,
2,2680,Note_off_c,9,89,0,
2,2680,Note_off_c,9,91,0,
2,2680,Note_off_c,9,93,0,
2,2700,Note_on_c,9,35,7,
2,2700,Note_off_c,9,36,0,
2,2700,Note_off_c,9,37,0,
2,2700,Note_on_c,9,38,3,
2,2700,Note_off_c,9,39,0,
2,2700,Note_off_c,9,40,0,
2,2700,Note_off_c,9,41,0,
2,2700,Note_off_c,9,42,0,
2,2700,Note_off_c,9,43,0,
2,2700,Note_off_c,9,44,0,
2,2700,Note_off_c,9,45,0,
2,2700,Note_off_c,9,46,0,
2,2700,Note_off_c,9,47,0,
2,2700,Note_off_c,9,48,0,
2,2700,Note_off_c,9,49,0,
2,2700,Note_off_c,9,50,0,
2,2700,Note_off_c,9,51,0,
2,2700,Note_off_c,9,56,0,
2,2700,Note_off_c,9,57,0,
2,2700,Note_off_c,9,59,0,
2,2700,Note_off_c,9,60,0,
2,2700,Note_off_c,9,61,0,
2,2700,Note_off_c,9,63,0,
2,2700,Note_off_c,9,68,0,
2,2700,Note_off_c,9,69,0,
2,2700,Note_off_c,9,70,0,
2,2700,Note_off_c,9,76,0,
2,2700,Note_off_c,9,80,0,
2,2700,Note_off_c,9,81,0,
2,2700,Note_off_c,9,82,0,
2,2700,Note_off_c,9,87,0,
2,2700,Note_off_c,9,88,0,
2,2700,Note_off_c,9,89,0,
2,2700,Note_off_c,9,91,0,
2,2700,Note_off_c,9,93,0,
2,2720,Note_on_c,9,35,7,
2,2720,Note_off_c,9,36,0,
2,2720,Note_off_c,9,37,0,
2,2720,Note_on_c,9,38,3,
2,2720,Note_off_c,9,39,0,
2,2720,Note_off_c,9,40,0,
2,2720,Note_off_c,9,41,0,
2,2720,Note_off_c,9,42,0,
2,2720,Note_off_c,9,43,0,
2,2720,Note_off_c,9,44,0,
2,2720,Note_off_c,9,45,0,
2,2720,Note_off_c,9,46,0,
2,2720,Note_off_c,9,47,0,
2,2720,Note_off_c,9,48,0,
2,2720,Note_off_c,9,49,0,
2,2720,Note_off_c,9,50,0,
2,2720,Note_off_c,9,51,0,
2,2720,Note_off_c,9,56,0,
2,2720,Note_off_c,9,57,0,
2,2720,Note_off_c,9,59,0,
2,2720,Note_off_c,9,60,0,
2,2720,Note_off_c,9,61,0,
2,2720,Note_off_c,9,63,0,
2,2720,Note_off_c,9,68,0,
2,2720,Note_off_c,9,69,0,
2,2720,Note_off_c,9,70,0,
2,2720,Note_off_c,9,76,0,
2,2720,Note_off_c,9,80,0,
2,2720,Note_off_c,9,81,0,
2,2720,Note_off_c,9,82,0,
2,2720,Note_off_c,9,87,0,
2,2720,Note_off_c,9,88,0,
2,2720,Note_off_c,9,89,0,
2,2720,Note_off_c,9,91,0,
2,2720,Note_off_c,9,93,0,
2,2740,Note_on_c,9,35,7,
2,2740,Note_off_c,9,36,0,
2,2740,Note_off_c,9,37,0,
2,2740,Note_on_c,9,38,3,
2,2740,Note_off_c,9,39,0,
2,2740,Note_off_c,9,40,0,
2,2740,Note_off_c,9,41,0,
2,2740,Note_off_c,9,42,0,
2,2740,Note_off_c,9,43,0,
2,2740,Note_off_c,9,44,0,
2,2740,Note_off_c,9,45,0,
2,2740,Note_off_c,9,46,0,
2,2740,Note_off_c,9,47,0,
2,2740,Note_off_c,9,48,0,
2,2740,Note_off_c,9,49,0,
2,2740,Note_off_c,9,50,0,
2,2740,Note_off_c,9,51,0,
2,2740,Note_off_c,9,56,0,
2,2740,Note_off_c,9,57,0,
2,2740,Note_off_c,9,59,0,
2,2740,Note_off_c,9,60,0,
2,2740,Note_off_c,9,61,0,
2,2740,Note_off_c,9,63,0,
2,2740,Note_off_c,9,68,0,
2,2740,Note_off_c,9,69,0,
2,2740,Note_off_c,9,70,0,
2,2740,Note_off_c,9,76,0,
2,2740,Note_off_c,9,80,0,
2,2740,Note_off_c,9,81,0,
2,2740,Note_off_c,9,82,0,
2,2740,Note_off_c,9,87,0,
2,2740,Note_off_c,9,88,0,
2,2740,Note_off_c,9,89,0,
2,2740,Note_off_c,9,91,0,
2,2740,Note_off_c,9,93,0,
2,2760,Note_on_c,9,35,7,
2,2760,Note_off_c,9,36,0,
2,2760,Note_off_c,9,37,0,
2,2760,Note_on_c,9,38,3,
2,2760,Note_off_c,9,39,0,
2,2760,Note_off_c,9,40,0,
2,2760,Note_off_c,9,41,0,
2,2760,Note_off_c,9,42,0,
2,2760,Note_off_c,9,43,0,
2,2760,Note_off_c,9,44,0,
2,2760,Note_off_c,9,45,0,
2,2760,Note_off_c,9,46,0,
2,2760,Note_off_c,9,47,0,
2,2760,Note_off_c,9,48,0,
2,2760,Note_off_c,9,49,0,
2,2760,Note_off_c,9,50,0,
2,2760,Note_off_c,9,51,0,
2,2760,Note_off_c,9,56,0,
2,2760,Note_off_c,9,57,0,
2,2760,Note_off_c,9,59,0,
2,2760,Note_off_c,9,60,0,
2,2760,Note_off_c,9,61,0,
2,2760,Note_off_c,9,63,0,
2,2760,Note_off_c,9,68,0,
2,2760,Note_off_c,9,69,0,
2,2760,Note_off_c,9,70,0,
2,2760,Note_off_c,9,76,0,
2,2760,Note_off_c,9,80,0,
2,2760,Note_off_c,9,81,0,
2,2760,Note_off_c,9,82,0,
2,2760,Note_off_c,9,87,0,
2,2760,Note_off_c,9,88,0,
2,2760,Note_off_c,9,89,0,
2,2760,Note_off_c,9,91,0,
2,2760,Note_off_c,9,93,0,
2,2780,Note_on_c,9,35,7,
2,2780,Note_off_c,9,36,0,
2,2780,Note_off_c,9,37,0,
2,2780,Note_on_c,9,38,3,
2,2780,Note_off_c,9,39,0,
2,2780,Note_off_c,9,40,0,
2,2780,Note_off_c,9,41,0,
2,2780,Note_off_c,9,42,0,
2,2780,Note_off_c,9,43,0,
2,2780,Note_off_c,9,44,0,
2,2780,Note_off_c,9,45,0,
2,2780,Note_off_c,9,46,0,
2,2780,Note_off_c,9,47,0,
2,2780,Note_off_c,9,48,0,
2,2780,Note_off_c,9,49,0,
2,2780,Note_off_c,9,50,0,
2,2780,Note_off_c,9,51,0,
2,2780,Note_off_c,9,56,0,
2,2780,Note_off_c,9,57,0,
2,2780,Note_off_c,9,59,0,
2,2780,Note_off_c,9,60,0,
2,2780,Note_off_c,9,61,0,
2,2780,Note_off_c,9,63,0,
2,2780,Note_off_c,9,68,0,
2,2780,Note_off_c,9,69,0,
2,2780,Note_off_c,9,70,0,
2,2780,Note_off_c,9,76,0,
2,2780,Note_off_c,9,80,0,
2,2780,Note_off_c,9,81,0,
2,2780,Note_off_c,9,82,0,
2,2780,Note_off_c,9,87,0,
2,2780,Note_off_c,9,88,0,
2,2780,Note_off_c,9,89,0,
2,2780,Note_off_c,9,91,0,
2,2780,Note_off_c,9,93,0,
2,2800,Note_on_c,9,35,7,
2,2800,Note_off_c,9,36,0,
2,2800,Note_off_c,9,37,0,
2,2800,Note_on_c,9,38,3,
2,2800,Note_off_c,9,39,0,
2,2800,Note_off_c,9,40,0,
2,2800,Note_off_c,9,41,0,
2,2800,Note_off_c,9,42,0,
2,2800,Note_off_c,9,43,0,
2,2800,Note_off_c,9,44,0,
2,2800,Note_off_c,9,45,0,
2,2800,Note_off_c,9,46,0,
2,2800,Note_off_c,9,47,0,
2,2800,Note_off_c,9,48,0,
2,2800,Note_off_c,9,49,0,
2,2800,Note_off_c,9,50,0,
2,2800,Note_off_c,9,51,0,
2,2800,Note_off_c,9,56,0,
2,2800,Note_off_c,9,57,0,
2,2800,Note_off_c,9,59,0,
2,2800,Note_off_c,9,60,0,
2,2800,Note_off_c,9,61,0,
2,2800,Note_off_c,9,63,0,
2,2800,Note_off_c,9,68,0,
2,2800,Note_off_c,9,69,0,
2,2800,Note_off_c,9,70,0,
2,2800,Note_off_c,9,76,0,
2,2800,Note_off_c,9,80,0,
2,2800,Note_off_c,9,81,0,
2,2800,Note_off_c,9,82,0,
2,2800,Note_off_c,9,87,0,
2,2800,Note_off_c,9,88,0,
2,2800,Note_off_c,9,89,0,
2,2800,Note_off_c,9,91,0,
2,2800,Note_off_c,9,93,0,
2,2820,Note_on_c,9,35,7,
2,2820,Note_off_c,9,36,0,
2,2820,Note_off_c,9,37,0,
2,2820,Note_on_c,9,38,3,
2,2820,Note_off_c,9,39,0,
2,2820,Note_off_c,9,40,0,
2,2820,Note_off_c,9,41,0,
2,2820,Note_off_c,9,42,0,
2,2820,Note_off_c,9,43,0,
2,2820,Note_off_c,9,44,0,
2,2820,Note_off_c,9,45,0,
2,2820,Note_off_c,9,46,0,
2,2820,Note_off_c,9,47,0,
2,2820,Note_off_c,9,48,0,
2,2820,Note_off_c,9,49,0,
2,2820,Note_off_c,9,50,0,
2,2820,Note_off_c,9,51,0,
2,2820,Note_off_c,9,56,0,
2,2820,Note_off_c,9,57,0,
2,2820,Note_off_c,9,59,0,
2,2820,Note_off_c,9,60,0,
2,2820,Note_off_c,9,61,0,
2,2820,Note_off_c,9,63,0,
2,2820,Note_off_c,9,68,0,
2,2820,Note_off_c,9,69,0,
2,2820,Note_off_c,9,70,0,
2,2820,Note_off_c,9,76,0,
2,2820,Note_off_c,9,80,0,
2,2820,Note_off_c,9,81,0,
2,2820,Note_off_c,9,82,0,
2,2820,Note_off_c,9,87,0,
2,2820,Note_off_c,9,88,0,
2,2820,Note_off_c,9,89,0,
2,2820,Note_off_c,9,91,0,
2,2820,Note_off_c,9,93,0,
2,2840,Note_on_c,9,35,7,
2,2840,Note_off_c,9,36,0,
2,2840,Note_off_c,9,37,0,
2,2840,Note_on_c,9,38,3,
2,2840,Note_off_c,9,39,0,
2,2840,Note_off_c,9,40,0,
2,2840,Note_off_c,9,41,0,
2,2840,Note_off_c,9,42,0,
2,2840,Note_off_c,9,43,0,
2,2840,Note_off_c,9,44,0,
2,2840,Note_off_c,9,45,0,
2,2840,Note_off_c,9,46,0,
2,2840,Note_off_c,9,47,0,
2,2840,Note_off_c,9,48,0,
2,2840,Note_off_c,9,49,0,
2,2840,Note_off_c,9,50,0,
2,2840,Note_off_c,9,51,0,
2,2840,Note_off_c,9,56,0,
2,2840,Note_off_c,9,57,0,
2,2840,Note_off_c,9,59,0,
2,2840,Note_off_c,9,60,0,
2,2840,Note_off_c,9,61,0,
2,2840,Note_off_c,9,63,0,
2,2840,Note_off_c,9,68,0,
2,2840,Note_off_c,9,69,0,
2,2840,Note_off_c,9,70,0,
2,2840,Note_off_c,9,76,0,
2,2840,Note_off_c,9,80,0,
2,2840,Note_off_c,9,81,0,
2,2840,Note_off_c,9,82,0,
2,2840,Note_off_c,9,87,0,
2,2840,Note_off_c,9,88,0,
2,2840,Note_off_c,9,89,0,
2,2840,Note_off_c,9,91,0,
2,2840,Note_off_c,9,93,0,
2,2860,Note_on_c,9,35,7,
2,2860,Note_off_c,9,36,0,
2,2860,Note_off_c,9,37,0,
2,2860,Note_on_c,9,38,3,
2,2860,Note_off_c,9,39,0,
2,2860,Note_off_c,9,40,0,
2,2860,Note_off_c,9,41,0,
2,2860,Note_off_c,9,42,0,
2,2860,Note_off_c,9,43,0,
2,2860,Note_off_c,9,44,0,
2,2860,Note_off_c,9,45,0,
2,2860,Note_off_c,9,46,0,
2,2860,Note_off_c,9,47,0,
2,2860,Note_off_c,9,48,0,
2,2860,Note_off_c,9,49,0,
2,2860,Note_off_c,9,50,0,
2,2860,Note_off_c,9,51,0,
2,2860,Note_off_c,9,56,0,
2,2860,Note_off_c,9,57,0,
2,2860,Note_off_c,9,59,0,
2,2860,Note_off_c,9,60,0,
2,2860,Note_off_c,9,61,0,
2,2860,Note_off_c,9,63,0,
2,2860,Note_off_c,9,68,0,
2,2860,Note_off_c,9,69,0,
2,2860,Note_off_c,9,70,0,
2,2860,Note_off_c,9,76,0,
2,2860,Note_off_c,9,80,0,
2,2860,Note_off_c,9,81,0,
2,2860,Note_off_c,9,82,0,
2,2860,Note_off_c,9,87,0,
2,2860,Note_off_c,9,88,0,
2,2860,Note_off_c,9,89,0,
2,2860,Note_off_c,9,91,0,
2,2860,Note_off_c,9,93,0,
2,2880,Note_on_c,9,35,7,
2,2880,Note_off_c,9,36,0,
2,2880,Note_off_c,9,37,0,
2,2880,Note_on_c,9,38,3,
2,2880,Note_off_c,9,39,0,
2,2880,Note_off_c,9,40,0,
2,2880,Note_off_c,9,41,0,
2,2880,Note_off_c,9,42,0,
2,2880,Note_off_c,9,43,0,
2,2880,Note_off_c,9,44,0,
2,2880,Note_off_c,9,45,0,
2,2880,Note_off_c,9,46,0,
2,2880,Note_off_c,9,47,0,
2,2880,Note_off_c,9,48,0,
2,2880,Note_off_c,9,49,0,
2,2880,Note_off_c,9,50,0,
2,2880,Note_off_c,9,51,0,
2,2880,Note_off_c,9,56,0,
2,2880,Note_off_c,9,57,0,
2,2880,Note_off_c,9,59,0,
2,2880,Note_off_c,9,60,0,
2,2880,Note_off_c,9,61,0,
2,2880,Note_off_c,9,63,0,
2,2880,Note_off_c,9,68,0,
2,2880,Note_off_c,9,69,0,
2,2880,Note_off_c,9,70,0,
2,2880,Note_off_c,9,76,0,
2,2880,Note_off_c,9,80,0,
2,2880,Note_off_c,9,81,0,
2,2880,Note_off_c,9,82,0,
2,2880,Note_off_c,9,87,0,
2,2880,Note_off_c,9,88,0,
2,2880,Note_off_c,9,89,0,
2,2880,Note_off_c,9,91,0,
2,2880,Note_off_c,9,93,0,
2,2900,Note_on_c,9,35,7,
2,2900,Note_off_c,9,36,0,
2,2900,Note_off_c,9,37,0,
2,2900,Note_on_c,9,38,3,
2,2900,Note_off_c,9,39,0,
2,2900,Note_off_c,9,40,0,
2,2900,Note_off_c,9,41,0,
2,2900,Note_off_c,9,42,0,
2,2900,Note_off_c,9,43,0,
2,2900,Note_off_c,9,44,0,
2,2900,Note_off_c,9,45,0,
2,2900,Note_off_c,9,46,0,
2,2900,Note_off_c,9,47,0,
2,2900,Note_off_c,9,48,0,
2,2900,Note_off_c,9,49,0,
2,2900,Note_off_c,9,50,0,
2,2900,Note_off_c,9,51,0,
2,2900,Note_off_c,9,56,0,
2,2900,Note_off_c,9,57,0,
2,2900,Note_off_c,9,59,0,
2,2900,Note_off_c,9,60,0,
2,2900,Note_off_c,9,61,0,
2,2900,Note_off_c,9,63,0,
2,2900,Note_off_c,9,68,0,
2,2900,Note_off_c,9,69,0,
2,2900,Note_off_c,9,70,0,
2,2900,Note_off_c,9,76,0,
2,2900,Note_off_c,9,80,0,
2,2900,Note_off_c,9,81,0,
2,2900,Note_off_c,9,82,0,
2,2900,Note_off_c,9,87,0,
2,2900,Note_off_c,9,88,0,
2,2900,Note_off_c,9,89,0,
2,2900,Note_off_c,9,91,0,
2,2900,Note_off_c,9,93,0,
2,2920,Note_on_c,9,35,7,
2,2920,Note_off_c,9,36,0,
2,2920,Note_off_c,9,37,0,
2,2920,Note_on_c,9,38,3,
2,2920,Note_off_c,9,39,0,
2,2920,Note_off_c,9,40,0,
2,2920,Note_off_c,9,41,0,
2,2920,Note_off_c,9,42,0,
2,2920,Note_off_c,9,43,0,
2,2920,Note_off_c,9,44,0,
2,2920,Note_off_c,9,45,0,
2,2920,Note_off_c,9,46,0,
2,2920,Note_off_c,9,47,0,
2,2920,Note_off_c,9,48,0,
2,2920,Note_off_c,9,49,0,
2,2920,Note_off_c,9,50,0,
2,2920,Note_off_c,9,51,0,
2,2920,Note_off_c,9,56,0,
2,2920,Note_off_c,9,57,0,
2,2920,Note_off_c,9,59,0,
2,2920,Note_off_c,9,60,0,
2,2920,Note_off_c,9,61,0,
2,2920,Note_off_c,9,63,0,
2,2920,Note_off_c,9,68,0,
2,2920,Note_off_c,9,69,0,
2,2920,Note_off_c,9,70,0,
2,2920,Note_off_c,9,76,0,
2,2920,Note_off_c,9,80,0,
2,2920,Note_off_c,9,81,0,
2,2920,Note_off_c,9,82,0,
2,2920,Note_off_c,9,87,0,
2,2920,Note_off_c,9,88,0,
2,2920,Note_off_c,9,89,0,
2,2920,Note_off_c,9,91,0,
2,2920,Note_off_c,9,93,0,
2,2940,Note_on_c,9,35,7,
2,2940,Note_off_c,9,36,0,
2,2940,Note_off_c,9,37,0,
2,2940,Note_on_c,9,38,3,
2,2940,Note_off_c,9,39,0,
2,2940,Note_off_c,9,40,0,
2,2940,Note_off_c,9,41,0,
2,2940,Note_off_c,9,42,0,
2,2940,Note_off_c,9,43,0,
2,2940,Note_off_c,9,44,0,
2,2940,Note_off_c,9,45,0,
2,2940,Note_off_c,9,46,0,
2,2940,Note_off_c,9,47,0,
2,2940,Note_off_c,9,48,0,
2,2940,Note_off_c,9,49,0,
2,2940,Note_off_c,9,50,0,
2,2940,Note_off_c,9,51,0,
2,2940,Note_off_c,9,56,0,
2,2940,Note_off_c,9,57,0,
2,2940,Note_off_c,9,59,0,
2,2940,Note_off_c,9,60,0,
2,2940,Note_off_c,9,61,0,
2,2940,Note_off_c,9,63,0,
2,2940,Note_off_c,9,68,0,
2,2940,Note_off_c,9,69,0,
2,2940,Note_off_c,9,70,0,
2,2940,Note_off_c,9,76,0,
2,2940,Note_off_c,9,80,0,
2,2940,Note_off_c,9,81,0,
2,2940,Note_off_c,9,82,0,
2,2940,Note_off_c,9,87,0,
2,2940,Note_off_c,9,88,0,
2,2940,Note_off_c,9,89,0,
2,2940,Note_off_c,9,91,0,
2,2940,Note_off_c,9,93,0,
2,2960,Note_on_c,9,35,7,
2,2960,Note_off_c,9,36,0,
2,2960,Note_off_c,9,37,0,
2,2960,Note_on_c,9,38,3,
2,2960,Note_off_c,9,39,0,
2,2960,Note_off_c,9,40,0,
2,2960,Note_off_c,9,41,0,
2,2960,Note_off_c,9,42,0,
2,2960,Note_off_c,9,43,0,
2,2960,Note_off_c,9,44,0,
2,2960,Note_off_c,9,45,0,
2,2960,Note_off_c,9,46,0,
2,2960,Note_off_c,9,47,0,
2,2960,Note_off_c,9,48,0,
2,2960,Note_off_c,9,49,0,
2,2960,Note_off_c,9,50,0,
2,2960,Note_off_c,9,51,0,
2,2960,Note_off_c,9,56,0,
2,2960,Note_off_c,9,57,0,
2,2960,Note_off_c,9,59,0,
2,2960,Note_off_c,9,60,0,
2,2960,Note_off_c,9,61,0,
2,2960,Note_off_c,9,63,0,
2,2960,Note_off_c,9,68,0,
2,2960,Note_off_c,9,69,0,
2,2960,Note_off_c,9,70,0,
2,2960,Note_off_c,9,76,0,
2,2960,Note_off_c,9,80,0,
2,2960,Note_off_c,9,81,0,
2,2960,Note_off_c,9,82,0,
2,2960,Note_off_c,9,87,0,
2,2960,Note_off_c,9,88,0,
2,2960,Note_off_c,9,89,0,
2,2960,Note_off_c,9,91,0,
2,2960,Note_off_c,9,93,0,
2,2980,Note_on_c,9,35,7,
2,2980,Note_off_c,9,36,0,
2,2980,Note_off_c,9,37,0,
2,2980,Note_on_c,9,38,3,
2,2980,Note_off_c,9,39,0,
2,2980,Note_off_c,9,40,0,
2,2980,Note_off_c,9,41,0,
2,2980,Note_off_c,9,42,0,
2,2980,Note_off_c,9,43,0,
2,2980,Note_off_c,9,44,0,
2,2980,Note_off_c,9,45,0,
2,2980,Note_off_c,9,46,0,
2,2980,Note_off_c,9,47,0,
2,2980,Note_off_c,9,48,0,
2,2980,Note_off_c,9,49,0,
2,2980,Note_off_c,9,50,0,
2,2980,Note_off_c,9,51,0,
2,2980,Note_off_c,9,56,0,
2,2980,Note_off_c,9,57,0,
2,2980,Note_off_c,9,59,0,
2,2980,Note_off_c,9,60,0,
2,2980,Note_off_c,9,61,0,
2,2980,Note_off_c,9,63,0,
2,2980,Note_off_c,9,68,0,
2,2980,Note_off_c,9,69,0,
2,2980,Note_off_c,9,70,0,
2,2980,Note_off_c,9,76,0,
2,2980,Note_off_c,9,80,0,
2,2980,Note_off_c,9,81,0,
2,2980,Note_off_c,9,82,0,
2,2980,Note_off_c,9,87,0,
2,2980,Note_off_c,9,88,0,
2,2980,Note_off_c,9,89,0,
2,2980,Note_off_c,9,91,0,
2,2980,Note_off_c,9,93,0,
2,3000,Note_on_c,9,35,7,
2,3000,Note_off_c,9,36,0,
2,3000,Note_off_c,9,37,0,
2,3000,Note_on_c,9,38,3,
2,3000,Note_off_c,9,39,0,
2,3000,Note_off_c,9,40,0,
2,3000,Note_off_c,9,41,0,
2,3000,Note_off_c,9,42,0,
2,3000,Note_off_c,9,43,0,
2,3000,Note_off_c,9,44,0,
2,3000,Note_off_c,9,45,0,
2,3000,Note_off_c,9,46,0,
2,3000,Note_off_c,9,47,0,
2,3000,Note_off_c,9,48,0,
2,3000,Note_off_c,9,49,0,
2,3000,Note_off_c,9,50,0,
2,3000,Note_off_c,9,51,0,
2,3000,Note_off_c,9,56,0,
2,3000,Note_off_c,9,57,0,
2,3000,Note_off_c,9,59,0,
2,3000,Note_off_c,9,60,0,
2,3000,Note_off_c,9,61,0,
2,3000,Note_off_c,9,63,0,
2,3000,Note_off_c,9,68,0,
2,3000,Note_off_c,9,69,0,
2,3000,Note_off_c,9,70,0,
2,3000,Note_off_c,9,76,0,
2,3000,Note_off_c,9,80,0,
2,3000,Note_off_c,9,81,0,
2,3000,Note_off_c,9,82,0,
2,3000,Note_off_c,9,87,0,
2,3000,Note_off_c,9,88,0,
2,3000,Note_off_c,9,89,0,
2,3000,Note_off_c,9,91,0,
2,3000,Note_off_c,9,93,0,
2,3020,Note_on_c,9,35,7,
2,3020,Note_off_c,9,36,0,
2,3020,Note_off_c,9,37,0,
2,3020,Note_on_c,9,38,3,
2,3020,Note_off_c,9,39,0,
2,3020,Note_off_c,9,40,0,
2,3020,Note_off_c,9,41,0,
2,3020,Note_off_c,9,42,0,
2,3020,Note_off_c,9,43,0,
2,3020,Note_off_c,9,44,0,
2,3020,Note_off_c,9,45,0,
2,3020,Note_off_c,9,46,0,
2,3020,Note_off_c,9,47,0,
2,3020,Note_off_c,9,48,0,
2,3020,Note_off_c,9,49,0,
2,3020,Note_off_c,9,50,0,
2,3020,Note_off_c,9,51,0,
2,3020,Note_off_c,9,56,0,
2,3020,Note_off_c,9,57,0,
2,3020,Note_off_c,9,59,0,
2,3020,Note_off_c,9,60,0,
2,3020,Note_off_c,9,61,0,
2,3020,Note_off_c,9,63,0,
2,3020,Note_off_c,9,68,0,
2,3020,Note_off_c,9,69,0,
2,3020,Note_off_c,9,70,0,
2,3020,Note_off_c,9,76,0,
2,3020,Note_off_c,9,80,0,
2,3020,Note_off_c,9,81,0,
2,3020,Note_off_c,9,82,0,
2,3020,Note_off_c,9,87,0,
2,3020,Note_off_c,9,88,0,
2,3020,Note_off_c,9,89,0,
2,3020,Note_off_c,9,91,0,
2,3020,Note_off_c,9,93,0,
2,3040,Note_on_c,9,35,7,
2,3040,Note_off_c,9,36,0,
2,3040,Note_off_c,9,37,0,
2,3040,Note_on_c,9,38,3,
2,3040,Note_off_c,9,39,0,
2,3040,Note_off_c,9,40,0,
2,3040,Note_off_c,9,41,0,
2,3040,Note_off_c,9,42,0,
2,3040,Note_off_c,9,43,0,
2,3040,Note_off_c,9,44,0,
2,3040,Note_off_c,9,45,0,
2,3040,Note_off_c,9,46,0,
2,3040,Note_off_c,9,47,0,
2,3040,Note_off_c,9,48,0,
2,3040,Note_off_c,9,49,0,
2,3040,Note_off_c,9,50,0,
2,3040,Note_off_c,9,51,0,
2,3040,Note_off_c,9,56,0,
2,3040,Note_off_c,9,57,0,
2,3040,Note_off_c,9,59,0,
2,3040,Note_off_c,9,60,0,
2,3040,Note_off_c,9,61,0,
2,3040,Note_off_c,9,63,0,
2,3040,Note_off_c,9,68,0,
2,3040,Note_off_c,9,69,0,
2,3040,Note_off_c,9,70,0,
2,3040,Note_off_c,9,76,0,
2,3040,Note_off_c,9,80,0,
2,3040,Note_off_c,9,81,0,
2,3040,Note_off_c,9,82,0,
2,3040,Note_off_c,9,87,0,
2,3040,Note_off_c,9,88,0,
2,3040,Note_off_c,9,89,0,
2,3040,Note_off_c,9,91,0,
2,3040,Note_off_c,9,93,0,
2,3060,Note_on_c,9,35,7,
2,3060,Note_off_c,9,36,0,
2,3060,Note_off_c,9,37,0,
2,3060,Note_on_c,9,38,3,
2,3060,Note_off_c,9,39,0,
2,3060,Note_off_c,9,40,0,
2,3060,Note_off_c,9,41,0,
2,3060,Note_off_c,9,42,0,
2,3060,Note_off_c,9,43,0,
2,3060,Note_off_c,9,44,0,
2,3060,Note_off_c,9,45,0,
2,3060,Note_off_c,9,46,0,
2,3060,Note_off_c,9,47,0,
2,3060,Note_off_c,9,48,0,
2,3060,Note_off_c,9,49,0,
2,3060,Note_off_c,9,50,0,
2,3060,Note_off_c,9,51,0,
2,3060,Note_off_c,9,56,0,
2,3060,Note_off_c,9,57,0,
2,3060,Note_off_c,9,59,0,
2,3060,Note_off_c,9,60,0,
2,3060,Note_off_c,9,61,0,
2,3060,Note_off_c,9,63,0,
2,3060,Note_off_c,9,68,0,
2,3060,Note_off_c,9,69,0,
2,3060,Note_off_c,9,70,0,
2,3060,Note_off_c,9,76,0,
2,3060,Note_off_c,9,80,0,
2,3060,Note_off_c,9,81,0,
2,3060,Note_off_c,9,82,0,
2,3060,Note_off_c,9,87,0,
2,3060,Note_off_c,9,88,0,
2,3060,Note_off_c,9,89,0,
2,3060,Note_off_c,9,91,0,
2,3060,Note_off_c,9,93,0,
2,3080,Note_on_c,9,35,7,
2,3080,Note_off_c,9,36,0,
2,3080,Note_off_c,9,37,0,
2,3080,Note_on_c,9,38,3,
2,3080,Note_off_c,9,39,0,
2,3080,Note_off_c,9,40,0,
2,3080,Note_off_c,9,41,0,
2,3080,Note_off_c,9,42,0,
2,3080,Note_off_c,9,43,0,
2,3080,Note_off_c,9,44,0,
2,3080,Note_off_c,9,45,0,
2,3080,Note_off_c,9,46,0,
2,3080,Note_off_c,9,47,0,
2,3080,Note_off_c,9,48,0,
2,3080,Note_off_c,9,49,0,
2,3080,Note_off_c,9,50,0,
2,3080,Note_off_c,9,51,0,
2,3080,Note_off_c,9,56,0,
2,3080,Note_off_c,9,57,0,
2,3080,Note_off_c,9,59,0,
2,3080,Note_off_c,9,60,0,
2,3080,Note_off_c,9,61,0,
2,3080,Note_off_c,9,63,0,
2,3080,Note_off_c,9,68,0,
2,3080,Note_off_c,9,69,0,
2,3080,Note_off_c,9,70,0,
2,3080,Note_off_c,9,76,0,
2,3080,Note_off_c,9,80,0,
2,3080,Note_off_c,9,81,0,
2,3080,Note_off_c,9,82,0,
2,3080,Note_off_c,9,87,0,
2,3080,Note_off_c,9,88,0,
2,3080,Note_off_c,9,89,0,
2,3080,Note_off_c,9,91,0,
2,3080,Note_off_c,9,93,0,
2,3100,Note_on_c,9,35,7,
2,3100,Note_off_c,9,36,0,
2,3100,Note_off_c,9,37,0,
2,3100,Note_on_c,9,38,3,
2,3100,Note_off_c,9,39,0,
2,3100,Note_off_c,9,40,0,
2,3100,Note_off_c,9,41,0,
2,3100,Note_off_c,9,42,0,
2,3100,Note_off_c,9,43,0,
2,3100,Note_off_c,9,44,0,
2,3100,Note_off_c,9,45,0,
2,3100,Note_off_c,9,46,0,
2,3100,Note_off_c,9,47,0,
2,3100,Note_off_c,9,48,0,
2,3100,Note_off_c,9,49,0,
2,3100,Note_off_c,9,50,0,
2,3100,Note_off_c,9,51,0,
2,3100,Note_off_c,9,56,0,
2,3100,Note_off_c,9,57,0,
2,3100,Note_off_c,9,59,0,
2,3100,Note_off_c,9,60,0,
2,3100,Note_off_c,9,61,0,
2,3100,Note_off_c,9,63,0,
2,3100,Note_off_c,9,68,0,
2,3100,Note_off_c,9,69,0,
2,3100,Note_off_c,9,70,0,
2,3100,Note_off_c,9,76,0,
2,3100,Note_off_c,9,80,0,
2,3100,Note_off_c,9,81,0,
2,3100,Note_off_c,9,82,0,
2,3100,Note_off_c,9,87,0,
2,3100,Note_off_c,9,88,0,
2,3100,Note_off_c,9,89,0,
2,3100,Note_off_c,9,91,0,
2,3100,Note_off_c,9,93,0,
2,3120,Note_on_c,9,35,7,
2,3120,Note_off_c,9,36,0,
2,3120,Note_off_c,9,37,0,
2,3120,Note_on_c,9,38,3,
2,3120,Note_off_c,9,39,0,
2,3120,Note_off_c,9,40,0,
2,3120,Note_off_c,9,41,0,
2,3120,Note_off_c,9,42,0,
2,3120,Note_off_c,9,43,0,
2,3120,Note_off_c,9,44,0,
2,3120,Note_off_c,9,45,0,
2,3120,Note_off_c,9,46,0,
2,3120,Note_off_c,9,47,0,
2,3120,Note_off_c,9,48,0,
2,3120,Note_off_c,9,49,0,
2,3120,Note_off_c,9,50,0,
2,3120,Note_off_c,9,51,0,
2,3120,Note_off_c,9,56,0,
2,3120,Note_off_c,9,57,0,
2,3120,Note_off_c,9,59,0,
2,3120,Note_off_c,9,60,0,
2,3120,Note_off_c,9,61,0,
2,3120,Note_off_c,9,63,0,
2,3120,Note_off_c,9,68,0,
2,3120,Note_off_c,9,69,0,
2,3120,Note_off_c,9,70,0,
2,3120,Note_off_c,9,76,0,
2,3120,Note_off_c,9,80,0,
2,3120,Note_off_c,9,81,0,
2,3120,Note_off_c,9,82,0,
2,3120,Note_off_c,9,87,0,
2,3120,Note_off_c,9,88,0,
2,3120,Note_off_c,9,89,0,
2,3120,Note_off_c,9,91,0,
2,3120,Note_off_c,9,93,0,
2,3140,Note_on_c,9,35,7,
2,3140,Note_off_c,9,36,0,
2,3140,Note_off_c,9,37,0,
2,3140,Note_on_c,9,38,3,
2,3140,Note_off_c,9,39,0,
2,3140,Note_off_c,9,40,0,
2,3140,Note_off_c,9,41,0,
2,3140,Note_off_c,9,42,0,
2,3140,Note_off_c,9,43,0,
2,3140,Note_off_c,9,44,0,
2,3140,Note_off_c,9,45,0,
2,3140,Note_off_c,9,46,0,
2,3140,Note_off_c,9,47,0,
2,3140,Note_off_c,9,48,0,
2,3140,Note_off_c,9,49,0,
2,3140,Note_off_c,9,50,0,
2,3140,Note_off_c,9,51,0,
2,3140,Note_off_c,9,56,0,
2,3140,Note_off_c,9,57,0,
2,3140,Note_off_c,9,59,0,
2,3140,Note_off_c,9,60,0,
2,3140,Note_off_c,9,61,0,
2,3140,Note_off_c,9,63,0,
2,3140,Note_off_c,9,68,0,
2,3140,Note_off_c,9,69,0,
2,3140,Note_off_c,9,70,0,
2,3140,Note_off_c,9,76,0,
2,3140,Note_off_c,9,80,0,
2,3140,Note_off_c,9,81,0,
2,3140,Note_off_c,9,82,0,
2,3140,Note_off_c,9,87,0,
2,3140,Note_off_c,9,88,0,
2,3140,Note_off_c,9,89,0,
2,3140,Note_off_c,9,91,0,
2,3140,Note_off_c,9,93,0,
2,3160,Note_on_c,9,35,7,
2,3160,Note_off_c,9,36,0,
2,3160,Note_off_c,9,37,0,
2,3160,Note_on_c,9,38,3,
2,3160,Note_off_c,9,39,0,
2,3160,Note_off_c,9,40,0,
2,3160,Note_off_c,9,41,0,
2,3160,Note_off_c,9,42,0,
2,3160,Note_off_c,9,43,0,
2,3160,Note_off_c,9,44,0,
2,3160,Note_off_c,9,45,0,
2,3160,Note_off_c,9,46,0,
2,3160,Note_off_c,9,47,0,
2,3160,Note_off_c,9,48,0,
2,3160,Note_off_c,9,49,0,
2,3160,Note_off_c,9,50,0,
2,3160,Note_off_c,9,51,0,
2,3160,Note_off_c,9,56,0,
2,3160,Note_off_c,9,57,0,
2,3160,Note_off_c,9,59,0,
2,3160,Note_off_c,9,60,0,
2,3160,Note_off_c,9,61,0,
2,3160,Note_off_c,9,63,0,
2,3160,Note_off_c,9,68,0,
2,3160,Note_off_c,9,69,0,
2,3160,Note_off_c,9,70,0,
2,3160,Note_off_c,9,76,0,
2,3160,Note_off_c,9,80,0,
2,3160,Note_off_c,9,81,0,
2,3160,Note_off_c,9,82,0,
2,3160,Note_off_c,9,87,0,
2,3160,Note_off_c,9,88,0,
2,3160,Note_off_c,9,89,0,
2,3160,Note_off_c,9,91,0,
2,3160,Note_off_c,9,93,0,
2,3180,Note_on_c,9,35,7,
2,3180,Note_off_c,9,36,0,
2,3180,Note_off_c,9,37,0,
2,3180,Note_on_c,9,38,3,
2,3180,Note_off_c,9,39,0,
2,3180,Note_off_c,9,40,0,
2,3180,Note_off_c,9,41,0,
2,3180,Note_off_c,9,42,0,
2,3180,Note_off_c,9,43,0,
2,3180,Note_off_c,9,44,0,
2,3180,Note_off_c,9,45,0,
2,3180,Note_off_c,9,46,0,
2,3180,Note_off_c,9,47,0,
2,3180,Note_off_c,9,48,0,
2,3180,Note_off_c,9,49,0,
2,3180,Note_off_c,9,50,0,
2,3180,Note_off_c,9,51,0,
2,3180,Note_off_c,9,56,0,
2,3180,Note_off_c,9,57,0,
2,3180,Note_off_c,9,59,0,
2,3180,Note_off_c,9,60,0,
2,3180,Note_off_c,9,61,0,
2,3180,Note_off_c,9,63,0,
2,3180,Note_off_c,9,68,0,
2,3180,Note_off_c,9,69,0,
2,3180,Note_off_c,9,70,0,
2,3180,Note_off_c,9,76,0,
2,3180,Note_off_c,9,80,0,
2,3180,Note_off_c,9,81,0,
2,3180,Note_off_c,9,82,0,
2,3180,Note_off_c,9,87,0,
2,3180,Note_off_c,9,88,0,
2,3180,Note_off_c,9,89,0,
2,3180,Note_off_c,9,91,0,
2,3180,Note_off_c,9,93,0,
2,3200,Note_on_c,9,35,7,
2,3200,Note_off_c,9,36,0,
2,3200,Note_off_c,9,37,0,
2,3200,Note_on_c,9,38,3,
2,3200,Note_off_c,9,39,0,
2,3200,Note_off_c,9,40,0,
2,3200,Note_off_c,9,41,0,
2,3200,Note_off_c,9,42,0,
2,3200,Note_off_c,9,43,0,
2,3200,Note_off_c,9,44,0,
2,3200,Note_off_c,9,45,0,
2,3200,Note_off_c,9,46,0,
2,3200,Note_off_c,9,47,0,
2,3200,Note_off_c,9,48,0,
2,3200,Note_off_c,9,49,0,
2,3200,Note_off_c,9,50,0,
2,3200,Note_off_c,9,51,0,
2,3200,Note_off_c,9,56,0,
2,3200,Note_off_c,9,57,0,
2,3200,Note_off_c,9,59,0,
2,3200,Note_off_c,9,60,0,
2,3200,Note_off_c,9,61,0,
2,3200,Note_off_c,9,63,0,
2,3200,Note_off_c,9,68,0,
2,3200,Note_off_c,9,69,0,
2,3200,Note_off_c,9,70,0,
2,3200,Note_off_c,9,76,0,
2,3200,Note_off_c,9,80,0,
2,3200,Note_off_c,9,81,0,
2,3200,Note_off_c,9,82,0,
2,3200,Note_off_c,9,87,0,
2,3200,Note_off_c,9,88,0,
2,3200,Note_off_c,9,89,0,
2,3200,Note_off_c,9,91,0,
2,3200,Note_off_c,9,93,0,
2,3220,Note_on_c,9,35,7,
2,3220,Note_off_c,9,36,0,
2,3220,Note_off_c,9,37,0,
2,3220,Note_on_c,9,38,3,
2,3220,Note_off_c,9,39,0,
2,3220,Note_off_c,9,40,0,
2,3220,Note_off_c,9,41,0,
2,3220,Note_off_c,9,42,0,
2,3220,Note_off_c,9,43,0,
2,3220,Note_off_c,9,44,0,
2,3220,Note_off_c,9,45,0,
2,3220,Note_off_c,9,46,0,
2,3220,Note_off_c,9,47,0,
2,3220,Note_off_c,9,48,0,
2,3220,Note_off_c,9,49,0,
2,3220,Note_off_c,9,50,0,
2,3220,Note_off_c,9,51,0,
2,3220,Note_off_c,9,56,0,
2,3220,Note_off_c,9,57,0,
2,3220,Note_off_c,9,59,0,
2,3220,Note_off_c,9,60,0,
2,3220,Note_off_c,9,61,0,
2,3220,Note_off_c,9,63,0,
2,3220,Note_off_c,9,68,0,
2,3220,Note_off_c,9,69,0,
2,3220,Note_off_c,9,70,0,
2,3220,Note_off_c,9,76,0,
2,3220,Note_off_c,9,80,0,
2,3220,Note_off_c,9,81,0,
2,3220,Note_off_c,9,82,0,
2,3220,Note_off_c,9,87,0,
2,3220,Note_off_c,9,88,0,
2,3220,Note_off_c,9,89,0,
2,3220,Note_off_c,9,91,0,
2,3220,Note_off_c,9,93,0,
2,3240,Note_on_c,9,35,7,
2,3240,Note_off_c,9,36,0,
2,3240,Note_off_c,9,37,0,
2,3240,Note_on_c,9,38,3,
2,3240,Note_off_c,9,39,0,
2,3240,Note_off_c,9,40,0,
2,3240,Note_off_c,9,41,0,
2,3240,Note_off_c,9,42,0,
2,3240,Note_off_c,9,43,0,
2,3240,Note_off_c,9,44,0,
2,3240,Note_off_c,9,45,0,
2,3240,Note_off_c,9,46,0,
2,3240,Note_off_c,9,47,0,
2,3240,Note_off_c,9,48,0,
2,3240,Note_off_c,9,49,0,
2,3240,Note_off_c,9,50,0,
2,3240,Note_off_c,9,51,0,
2,3240,Note_off_c,9,56,0,
2,3240,Note_off_c,9,57,0,
2,3240,Note_off_c,9,59,0,
2,3240,Note_off_c,9,60,0,
2,3240,Note_off_c,9,61,0,
2,3240,Note_off_c,9,63,0,
2,3240,Note_off_c,9,68,0,
2,3240,Note_off_c,9,69,0,
2,3240,Note_off_c,9,70,0,
2,3240,Note_off_c,9,76,0,
2,3240,Note_off_c,9,80,0,
2,3240,Note_off_c,9,81,0,
2,3240,Note_off_c,9,82,0,
2,3240,Note_off_c,9,87,0,
2,3240,Note_off_c,9,88,0,
2,3240,Note_off_c,9,89,0,
2,3240,Note_off_c,9,91,0,
2,3240,Note_off_c,9,93,0,
2,3260,Note_on_c,9,35,7,
2,3260,Note_off_c,9,36,0,
2,3260,Note_off_c,9,37,0,
2,3260,Note_on_c,9,38,3,
2,3260,Note_off_c,9,39,0,
2,3260,Note_off_c,9,40,0,
2,3260,Note_off_c,9,41,0,
2,3260,Note_off_c,9,42,0,
2,3260,Note_off_c,9,43,0,
2,3260,Note_off_c,9,44,0,
2,3260,Note_off_c,9,45,0,
2,3260,Note_off_c,9,46,0,
2,3260,Note_off_c,9,47,0,
2,3260,Note_off_c,9,48,0,
2,3260,Note_off_c,9,49,0,
2,3260,Note_off_c,9,50,0,
2,3260,Note_off_c,9,51,0,
2,3260,Note_off_c,9,56,0,
2,3260,Note_off_c,9,57,0,
2,3260,Note_off_c,9,59,0,
2,3260,Note_off_c,9,60,0,
2,3260,Note_off_c,9,61,0,
2,3260,Note_off_c,9,63,0,
2,3260,Note_off_c,9,68,0,
2,3260,Note_off_c,9,69,0,
2,3260,Note_off_c,9,70,0,
2,3260,Note_off_c,9,76,0,
2,3260,Note_off_c,9,80,0,
2,3260,Note_off_c,9,81,0,
2,3260,Note_off_c,9,82,0,
2,3260,Note_off_c,9,87,0,
2,3260,Note_off_c,9,88,0,
2,3260,Note_off_c,9,89,0,
2,3260,Note_off_c,9,91,0,
2,3260,Note_off_c,9,93,0,
2,3280,Note_on_c,9,35,7,
2,3280,Note_off_c,9,36,0,
2,3280,Note_off_c,9,37,0,
2,3280,Note_on_c,9,38,3,
2,3280,Note_off_c,9,39,0,
2,3280,Note_off_c,9,40,0,
2,3280,Note_off_c,9,41,0,
2,3280,Note_off_c,9,42,0,
2,3280,Note_off_c,9,43,0,
2,3280,Note_off_c,9,44,0,
2,3280,Note_off_c,9,45,0,
2,3280,Note_off_c,9,46,0,
2,3280,Note_off_c,9,47,0,
2,3280,Note_off_c,9,48,0,
2,3280,Note_off_c,9,49,0,
2,3280,Note_off_c,9,50,0,
2,3280,Note_off_c,9,51,0,
2,3280,Note_off_c,9,56,0,
2,3280,Note_off_c,9,57,0,
2,3280,Note_off_c,9,59,0,
2,3280,Note_off_c,9,60,0,
2,3280,Note_off_c,9,61,0,
2,3280,Note_off_c,9,63,0,
2,3280,Note_off_c,9,68,0,
2,3280,Note_off_c,9,69,0,
2,3280,Note_off_c,9,70,0,
2,3280,Note_off_c,9,76,0,
2,3280,Note_off_c,9,80,0,
2,3280,Note_off_c,9,81,0,
2,3280,Note_off_c,9,82,0,
2,3280,Note_off_c,9,87,0,
2,3280,Note_off_c,9,88,0,
2,3280,Note_off_c,9,89,0,
2,3280,Note_off_c,9,91,0,
2,3280,Note_off_c,9,93,0,
2,3300,Note_on_c,9,35,7,
2,3300,Note_off_c,9,36,0,
2,3300,Note_off_c,9,37,0,
2,3300,Note_on_c,9,38,3,
2,3300,Note_off_c,9,39,0,
2,3300,Note_off_c,9,40,0,
2,3300,Note_off_c,9,41,0,
2,3300,Note_off_c,9,42,0,
2,3300,Note_off_c,9,43,0,
2,3300,Note_off_c,9,44,0,
2,3300,Note_off_c,9,45,0,
2,3300,Note_off_c,9,46,0,
2,3300,Note_off_c,9,47,0,
2,3300,Note_off_c,9,48,0,
2,3300,Note_off_c,9,49,0,
2,3300,Note_off_c,9,50,0,
2,3300,Note_off_c,9,51,0,
2,3300,Note_off_c,9,56,0,
2,3300,Note_off_c,9,57,0,
2,3300,Note_off_c,9,59,0,
2,3300,Note_off_c,9,60,0,
2,3300,Note_off_c,9,61,0,
2,3300,Note_off_c,9,63,0,
2,3300,Note_off_c,9,68,0,
2,3300,Note_off_c,9,69,0,
2,3300,Note_off_c,9,70,0,
2,3300,Note_off_c,9,76,0,
2,3300,Note_off_c,9,80,0,
2,3300,Note_off_c,9,81,0,
2,3300,Note_off_c,9,82,0,
2,3300,Note_off_c,9,87,0,
2,3300,Note_off_c,9,88,0,
2,3300,Note_off_c,9,89,0,
2,3300,Note_off_c,9,91,0,
2,3300,Note_off_c,9,93,0,
2,3320,Note_on_c,9,35,7,
2,3320,Note_off_c,9,36,0,
2,3320,Note_off_c,9,37,0,
2,3320,Note_on_c,9,38,3,
2,3320,Note_off_c,9,39,0,
2,3320,Note_off_c,9,40,0,
2,3320,Note_off_c,9,41,0,
2,3320,Note_off_c,9,42,0,
2,3320,Note_off_c,9,43,0,
2,3320,Note_off_c,9,44,0,
2,3320,Note_off_c,9,45,0,
2,3320,Note_off_c,9,46,0,
2,3320,Note_off_c,9,47,0,
2,3320,Note_off_c,9,48,0,
2,3320,Note_off_c,9,49,0,
2,3320,Note_off_c,9,50,0,
2,3320,Note_off_c,9,51,0,
2,3320,Note_off_c,9,56,0,
2,3320,Note_off_c,9,57,0,
2,3320,Note_off_c,9,59,0,
2,3320,Note_off_c,9,60,0,
2,3320,Note_off_c,9,61,0,
2,3320,Note_off_c,9,63,0,
2,3320,Note_off_c,9,68,0,
2,3320,Note_off_c,9,69,0,
2,3320,Note_off_c,9,70,0,
2,3320,Note_off_c,9,76,0,
2,3320,Note_off_c,9,80,0,
2,3320,Note_off_c,9,81,0,
2,3320,Note_off_c,9,82,0,
2,3320,Note_off_c,9,87,0,
2,3320,Note_off_c,9,88,0,
2,3320,Note_off_c,9,89,0,
2,3320,Note_off_c,9,91,0,
2,3320,Note_off_c,9,93,0,
2,3340,Note_on_c,9,35,7,
2,3340,Note_off_c,9,36,0,
2,3340,Note_off_c,9,37,0,
2,3340,Note_on_c,9,38,3,
2,3340,Note_off_c,9,39,0,
2,3340,Note_off_c,9,40,0,
2,3340,Note_off_c,9,41,0,
2,3340,Note_off_c,9,42,0,
2,3340,Note_off_c,9,43,0,
2,3340,Note_off_c,9,44,0,
2,3340,Note_off_c,9,45,0,
2,3340,Note_off_c,9,46,0,
2,3340,Note_off_c,9,47,0,
2,3340,Note_off_c,9,48,0,
2,3340,Note_off_c,9,49,0,
2,3340,Note_off_c,9,50,0,
2,3340,Note_off_c,9,51,0,
2,3340,Note_off_c,9,56,0,
2,3340,Note_off_c,9,57,0,
2,3340,Note_off_c,9,59,0,
2,3340,Note_off_c,9,60,0,
2,3340,Note_off_c,9,61,0,
2,3340,Note_off_c,9,63,0,
2,3340,Note_off_c,9,68,0,
2,3340,Note_off_c,9,69,0,
2,3340,Note_off_c,9,70,0,
2,3340,Note_off_c,9,76,0,
2,3340,Note_off_c,9,80,0,
2,3340,Note_off_c,9,81,0,
2,3340,Note_off_c,9,82,0,
2,3340,Note_off_c,9,87,0,
2,3340,Note_off_c,9,88,0,
2,3340,Note_off_c,9,89,0,
2,3340,Note_off_c,9,91,0,
2,3340,Note_off_c,9,93,0,
2,3360,Note_on_c,9,35,7,
2,3360,Note_off_c,9,36,0,
2,3360,Note_off_c,9,37,0,
2,3360,Note_on_c,9,38,3,
2,3360,Note_off_c,9,39,0,
2,3360,Note_off_c,9,40,0,
2,3360,Note_off_c,9,41,0,
2,3360,Note_off_c,9,42,0,
2,3360,Note_off_c,9,43,0,
2,3360,Note_off_c,9,44,0,
2,3360,Note_off_c,9,45,0,
2,3360,Note_off_c,9,46,0,
2,3360,Note_off_c,9,47,0,
2,3360,Note_off_c,9,48,0,
2,3360,Note_off_c,9,49,0,
2,3360,Note_off_c,9,50,0,
2,3360,Note_off_c,9,51,0,
2,3360,Note_off_c,9,56,0,
2,3360,Note_off_c,9,57,0,
2,3360,Note_off_c,9,59,0,
2,3360,Note_off_c,9,60,0,
2,3360,Note_off_c,9,61,0,
2,3360,Note_off_c,9,63,0,
2,3360,Note_off_c,9,68,0,
2,3360,Note_off_c,9,69,0,
2,3360,Note_off_c,9,70,0,
2,3360,Note_off_c,9,76,0,
2,3360,Note_off_c,9,80,0,
2,3360,Note_off_c,9,81,0,
2,3360,Note_off_c,9,82,0,
2,3360,Note_off_c,9,87,0,
2,3360,Note_off_c,9,88,0,
2,3360,Note_off_c,9,89,0,
2,3360,Note_off_c,9,91,0,
2,3360,Note_off_c,9,93,0,
2,3380,Note_on_c,9,35,7,
2,3380,Note_off_c,9,36,0,
2,3380,Note_off_c,9,37,0,
2,3380,Note_on_c,9,38,3,
2,3380,Note_off_c,9,39,0,
2,3380,Note_off_c,9,40,0,
2,3380,Note_off_c,9,41,0,
2,3380,Note_off_c,9,42,0,
2,3380,Note_off_c,9,43,0,
2,3380,Note_off_c,9,44,0,
2,3380,Note_off_c,9,45,0,
2,3380,Note_off_c,9,46,0,
2,3380,Note_off_c,9,47,0,
2,3380,Note_off_c,9,48,0,
2,3380,Note_off_c,9,49,0,
2,3380,Note_off_c,9,50,0,
2,3380,Note_off_c,9,51,0,
2,3380,Note_off_c,9,56,0,
2,3380,Note_off_c,9,57,0,
2,3380,Note_off_c,9,59,0,
2,3380,Note_off_c,9,60,0,
2,3380,Note_off_c,9,61,0,
2,3380,Note_off_c,9,63,0,
2,3380,Note_off_c,9,68,0,
2,3380,Note_off_c,9,69,0,
2,3380,Note_off_c,9,70,0,
2,3380,Note_off_c,9,76,0,
2,3380,Note_off_c,9,80,0,
2,3380,Note_off_c,9,81,0,
2,3380,Note_off_c,9,82,0,
2,3380,Note_off_c,9,87,0,
2,3380,Note_off_c,9,88,0,
2,3380,Note_off_c,9,89,0,
2,3380,Note_off_c,9,91,0,
2,3380,Note_off_c,9,93,0,
2,3400,Note_on_c,9,35,7,
2,3400,Note_off_c,9,36,0,
2,3400,Note_off_c,9,37,0,
2,3400,Note_on_c,9,38,3,
2,3400,Note_off_c,9,39,0,
2,3400,Note_off_c,9,40,0,
2,3400,Note_off_c,9,41,0,
2,3400,Note_off_c,9,42,0,
2,3400,Note_off_c,9,43,0,
2,3400,Note_off_c,9,44,0,
2,3400,Note_off_c,9,45,0,
2,3400,Note_off_c,9,46,0,
2,3400,Note_off_c,9,47,0,
2,3400,Note_off_c,9,48,0,
2,3400,Note_off_c,9,49,0,
2,3400,Note_off_c,9,50,0,
2,3400,Note_off_c,9,51,0,
2,3400,Note_off_c,9,56,0,
2,3400,Note_off_c,9,57,0,
2,3400,Note_off_c,9,59,0,
2,3400,Note_off_c,9,60,0,
2,3400,Note_off_c,9,61,0,
2,3400,Note_off_c,9,63,0,
2,3400,Note_off_c,9,68,0,
2,3400,Note_off_c,9,69,0,
2,3400,Note_off_c,9,70,0,
2,3400,Note_off_c,9,76,0,
2,3400,Note_off_c,9,80,0,
2,3400,Note_off_c,9,81,0,
2,3400,Note_off_c,9,82,0,
2,3400,Note_off_c,9,87,0,
2,3400,Note_off_c,9,88,0,
2,3400,Note_off_c,9,89,0,
2,3400,Note_off_c,9,91,0,
2,3400,Note_off_c,9,93,0,
2,3420,Note_on_c,9,35,7,
2,3420,Note_off_c,9,36,0,
2,3420,Note_off_c,9,37,0,
2,3420,Note_on_c,9,38,3,
2,3420,Note_off_c,9,39,0,
2,3420,Note_off_c,9,40,0,
2,3420,Note_off_c,9,41,0,
2,3420,Note_off_c,9,42,0,
2,3420,Note_off_c,9,43,0,
2,3420,Note_off_c,9,44,0,
2,3420,Note_off_c,9,45,0,
2,3420,Note_off_c,9,46,0,
2,3420,Note_off_c,9,47,0,
2,3420,Note_off_c,9,48,0,
2,3420,Note_off_c,9,49,0,
2,3420,Note_off_c,9,50,0,
2,3420,Note_off_c,9,51,0,
2,3420,Note_off_c,9,56,0,
2,3420,Note_off_c,9,57,0,
2,3420,Note_off_c,9,59,0,
2,3420,Note_off_c,9,60,0,
2,3420,Note_off_c,9,61,0,
2,3420,Note_off_c,9,63,0,
2,3420,Note_off_c,9,68,0,
2,3420,Note_off_c,9,69,0,
2,3420,Note_off_c,9,70,0,
2,3420,Note_off_c,9,76,0,
2,3420,Note_off_c,9,80,0,
2,3420,Note_off_c,9,81,0,
2,3420,Note_off_c,9,82,0,
2,3420,Note_off_c,9,87,0,
2,3420,Note_off_c,9,88,0,
2,3420,Note_off_c,9,89,0,
2,3420,Note_off_c,9,91,0,
2,3420,Note_off_c,9,93,0,
2,3440,Note_on_c,9,35,7,
2,3440,Note_off_c,9,36,0,
2,3440,Note_off_c,9,37,0,
2,3440,Note_on_c,9,38,3,
2,3440,Note_off_c,9,39,0,
2,3440,Note_off_c,9,40,0,
2,3440,Note_off_c,9,41,0,
2,3440,Note_off_c,9,42,0,
2,3440,Note_off_c,9,43,0,
2,3440,Note_off_c,9,44,0,
2,3440,Note_off_c,9,45,0,
2,3440,Note_off_c,9,46,0,
2,3440,Note_off_c,9,47,0,
2,3440,Note_off_c,9,48,0,
2,3440,Note_off_c,9,49,0,
2,3440,Note_off_c,9,50,0,
2,3440,Note_off_c,9,51,0,
2,3440,Note_off_c,9,56,0,
2,3440,Note_off_c,9,57,0,
2,3440,Note_off_c,9,59,0,
2,3440,Note_off_c,9,60,0,
2,3440,Note_off_c,9,61,0,
2,3440,Note_off_c,9,63,0,
2,3440,Note_off_c,9,68,0,
2,3440,Note_off_c,9,69,0,
2,3440,Note_off_c,9,70,0,
2,3440,Note_off_c,9,76,0,
2,3440,Note_off_c,9,80,0,
2,3440,Note_off_c,9,81,0,
2,3440,Note_off_c,9,82,0,
2,3440,Note_off_c,9,87,0,
2,3440,Note_off_c,9,88,0,
2,3440,Note_off_c,9,89,0,
2,3440,Note_off_c,9,91,0,
2,3440,Note_off_c,9,93,0,
2,3460,Note_on_c,9,35,7,
2,3460,Note_off_c,9,36,0,
2,3460,Note_off_c,9,37,0,
2,3460,Note_on_c,9,38,3,
2,3460,Note_off_c,9,39,0,
2,3460,Note_off_c,9,40,0,
2,3460,Note_off_c,9,41,0,
2,3460,Note_off_c,9,42,0,
2,3460,Note_off_c,9,43,0,
2,3460,Note_off_c,9,44,0,
2,3460,Note_off_c,9,45,0,
2,3460,Note_off_c,9,46,0,
2,3460,Note_off_c,9,47,0,
2,3460,Note_off_c,9,48,0,
2,3460,Note_off_c,9,49,0,
2,3460,Note_off_c,9,50,0,
2,3460,Note_off_c,9,51,0,
2,3460,Note_off_c,9,56,0,
2,3460,Note_off_c,9,57,0,
2,3460,Note_off_c,9,59,0,
2,3460,Note_off_c,9,60,0,
2,3460,Note_off_c,9,61,0,
2,3460,Note_off_c,9,63,0,
2,3460,Note_off_c,9,68,0,
2,3460,Note_off_c,9,69,0,
2,3460,Note_off_c,9,70,0,
2,3460,Note_off_c,9,76,0,
2,3460,Note_off_c,9,80,0,
2,3460,Note_off_c,9,81,0,
2,3460,Note_off_c,9,82,0,
2,3460,Note_off_c,9,87,0,
2,3460,Note_off_c,9,88,0,
2,3460,Note_off_c,9,89,0,
2,3460,Note_off_c,9,91,0,
2,3460,Note_off_c,9,93,0,
2,3480,Note_on_c,9,35,7,
2,3480,Note_off_c,9,36,0,
2,3480,Note_off_c,9,37,0,
2,3480,Note_on_c,9,38,3,
2,3480,Note_off_c,9,39,0,
2,3480,Note_off_c,9,40,0,
2,3480,Note_off_c,9,41,0,
2,3480,Note_off_c,9,42,0,
2,3480,Note_off_c,9,43,0,
2,3480,Note_off_c,9,44,0,
2,3480,Note_off_c,9,45,0,
2,3480,Note_off_c,9,46,0,
2,3480,Note_off_c,9,47,0,
2,3480,Note_off_c,9,48,0,
2,3480,Note_off_c,9,49,0,
2,3480,Note_off_c,9,50,0,
2,3480,Note_off_c,9,51,0,
2,3480,Note_off_c,9,56,0,
2,3480,Note_off_c,9,57,0,
2,3480,Note_off_c,9,59,0,
2,3480,Note_off_c,9,60,0,
2,3480,Note_off_c,9,61,0,
2,3480,Note_off_c,9,63,0,
2,3480,Note_off_c,9,68,0,
2,3480,Note_off_c,9,69,0,
2,3480,Note_off_c,9,70,0,
2,3480,Note_off_c,9,76,0,
2,3480,Note_off_c,9,80,0,
2,3480,Note_off_c,9,81,0,
2,3480,Note_off_c,9,82,0,
2,3480,Note_off_c,9,87,0,
2,3480,Note_off_c,9,88,0,
2,3480,Note_off_c,9,89,0,
2,3480,Note_off_c,9,91,0,
2,3480,Note_off_c,9,93,0,
2,3500,Note_on_c,9,35,7,
2,3500,Note_off_c,9,36,0,
2,3500,Note_off_c,9,37,0,
2,3500,Note_on_c,9,38,3,
2,3500,Note_off_c,9,39,0,
2,3500,Note_off_c,9,40,0,
2,3500,Note_off_c,9,41,0,
2,3500,Note_off_c,9,42,0,
2,3500,Note_off_c,9,43,0,
2,3500,Note_off_c,9,44,0,
2,3500,Note_off_c,9,45,0,
2,3500,Note_off_c,9,46,0,
2,3500,Note_off_c,9,47,0,
2,3500,Note_off_c,9,48,0,
2,3500,Note_off_c,9,49,0,
2,3500,Note_off_c,9,50,0,
2,3500,Note_off_c,9,51,0,
2,3500,Note_off_c,9,56,0,
2,3500,Note_off_c,9,57,0,
2,3500,Note_off_c,9,59,0,
2,3500,Note_off_c,9,60,0,
2,3500,Note_off_c,9,61,0,
2,3500,Note_off_c,9,63,0,
2,3500,Note_off_c,9,68,0,
2,3500,Note_off_c,9,69,0,
2,3500,Note_off_c,9,70,0,
2,3500,Note_off_c,9,76,0,
2,3500,Note_off_c,9,80,0,
2,3500,Note_off_c,9,81,0,
2,3500,Note_off_c,9,82,0,
2,3500,Note_off_c,9,87,0,
2,3500,Note_off_c,9,88,0,
2,3500,Note_off_c,9,89,0,
2,3500,Note_off_c,9,91,0,
2,3500,Note_off_c,9,93,0,
2,3520,Note_on_c,9,35,7,
2,3520,Note_off_c,9,36,0,
2,3520,Note_off_c,9,37,0,
2,3520,Note_on_c,9,38,3,
2,3520,Note_off_c,9,39,0,
2,3520,Note_off_c,9,40,0,
2,3520,Note_off_c,9,41,0,
2,3520,Note_off_c,9,42,0,
2,3520,Note_off_c,9,43,0,
2,3520,Note_off_c,9,44,0,
2,3520,Note_off_c,9,45,0,
2,3520,Note_off_c,9,46,0,
2,3520,Note_off_c,9,47,0,
2,3520,Note_off_c,9,48,0,
2,3520,Note_off_c,9,49,0,
2,3520,Note_off_c,9,50,0,
2,3520,Note_off_c,9,51,0,
2,3520,Note_off_c,9,56,0,
2,3520,Note_off_c,9,57,0,
2,3520,Note_off_c,9,59,0,
2,3520,Note_off_c,9,60,0,
2,3520,Note_off_c,9,61,0,
2,3520,Note_off_c,9,63,0,
2,3520,Note_off_c,9,68,0,
2,3520,Note_off_c,9,69,0,
2,3520,Note_off_c,9,70,0,
2,3520,Note_off_c,9,76,0,
2,3520,Note_off_c,9,80,0,
2,3520,Note_off_c,9,81,0,
2,3520,Note_off_c,9,82,0,
2,3520,Note_off_c,9,87,0,
2,3520,Note_off_c,9,88,0,
2,3520,Note_off_c,9,89,0,
2,3520,Note_off_c,9,91,0,
2,3520,Note_off_c,9,93,0,
2,3540,Note_on_c,9,35,7,
2,3540,Note_off_c,9,36,0,
2,3540,Note_off_c,9,37,0,
2,3540,Note_on_c,9,38,3,
2,3540,Note_off_c,9,39,0,
2,3540,Note_off_c,9,40,0,
2,3540,Note_off_c,9,41,0,
2,3540,Note_off_c,9,42,0,
2,3540,Note_off_c,9,43,0,
2,3540,Note_off_c,9,44,0,
2,3540,Note_off_c,9,45,0,
2,3540,Note_off_c,9,46,0,
2,3540,Note_off_c,9,47,0,
2,3540,Note_off_c,9,48,0,
2,3540,Note_off_c,9,49,0,
2,3540,Note_off_c,9,50,0,
2,3540,Note_off_c,9,51,0,
2,3540,Note_off_c,9,56,0,
2,3540,Note_off_c,9,57,0,
2,3540,Note_off_c,9,59,0,
2,3540,Note_off_c,9,60,0,
2,3540,Note_off_c,9,61,0,
2,3540,Note_off_c,9,63,0,
2,3540,Note_off_c,9,68,0,
2,3540,Note_off_c,9,69,0,
2,3540,Note_off_c,9,70,0,
2,3540,Note_off_c,9,76,0,
2,3540,Note_off_c,9,80,0,
2,3540,Note_off_c,9,81,0,
2,3540,Note_off_c,9,82,0,
2,3540,Note_off_c,9,87,0,
2,3540,Note_off_c,9,88,0,
2,3540,Note_off_c,9,89,0,
2,3540,Note_off_c,9,91,0,
2,3540,Note_off_c,9,93,0,
2,3560,Note_on_c,9,35,7,
2,3560,Note_off_c,9,36,0,
2,3560,Note_off_c,9,37,0,
2,3560,Note_on_c,9,38,3,
2,3560,Note_off_c,9,39,0,
2,3560,Note_off_c,9,40,0,
2,3560,Note_off_c,9,41,0,
2,3560,Note_off_c,9,42,0,
2,3560,Note_off_c,9,43,0,
2,3560,Note_off_c,9,44,0,
2,3560,Note_off_c,9,45,0,
2,3560,Note_off_c,9,46,0,
2,3560,Note_off_c,9,47,0,
2,3560,Note_off_c,9,48,0,
2,3560,Note_off_c,9,49,0,
2,3560,Note_off_c,9,50,0,
2,3560,Note_off_c,9,51,0,
2,3560,Note_off_c,9,56,0,
2,3560,Note_off_c,9,57,0,
2,3560,Note_off_c,9,59,0,
2,3560,Note_off_c,9,60,0,
2,3560,Note_off_c,9,61,0,
2,3560,Note_off_c,9,63,0,
2,3560,Note_off_c,9,68,0,
2,3560,Note_off_c,9,69,0,
2,3560,Note_off_c,9,70,0,
2,3560,Note_off_c,9,76,0,
2,3560,Note_off_c,9,80,0,
2,3560,Note_off_c,9,81,0,
2,3560,Note_off_c,9,82,0,
2,3560,Note_off_c,9,87,0,
2,3560,Note_off_c,9,88,0,
2,3560,Note_off_c,9,89,0,
2,3560,Note_off_c,9,91,0,
2,3560,Note_off_c,9,93,0,
2,3580,Note_on_c,9,35,7,
2,3580,Note_off_c,9,36,0,
2,3580,Note_off_c,9,37,0,
2,3580,Note_on_c,9,38,3,
2,3580,Note_off_c,9,39,0,
2,3580,Note_off_c,9,40,0,
2,3580,Note_off_c,9,41,0,
2,3580,Note_off_c,9,42,0,
2,3580,Note_off_c,9,43,0,
2,3580,Note_off_c,9,44,0,
2,3580,Note_off_c,9,45,0,
2,3580,Note_off_c,9,46,0,
2,3580,Note_off_c,9,47,0,
2,3580,Note_off_c,9,48,0,
2,3580,Note_off_c,9,49,0,
2,3580,Note_off_c,9,50,0,
2,3580,Note_off_c,9,51,0,
2,3580,Note_off_c,9,56,0,
2,3580,Note_off_c,9,57,0,
2,3580,Note_off_c,9,59,0,
2,3580,Note_off_c,9,60,0,
2,3580,Note_off_c,9,61,0,
2,3580,Note_off_c,9,63,0,
2,3580,Note_off_c,9,68,0,
2,3580,Note_off_c,9,69,0,
2,3580,Note_off_c,9,70,0,
2,3580,Note_off_c,9,76,0,
2,3580,Note_off_c,9,80,0,
2,3580,Note_off_c,9,81,0,
2,3580,Note_off_c,9,82,0,
2,3580,Note_off_c,9,87,0,
2,3580,Note_off_c,9,88,0,
2,3580,Note_off_c,9,89,0,
2,3580,Note_off_c,9,91,0,
2,3580,Note_off_c,9,93,0,
2,3600,Note_on_c,9,35,7,
2,3600,Note_off_c,9,36,0,
2,3600,Note_off_c,9,37,0,
2,3600,Note_on_c,9,38,3,
2,3600,Note_off_c,9,39,0,
2,3600,Note_off_c,9,40,0,
2,3600,Note_off_c,9,41,0,
2,3600,Note_off_c,9,42,0,
2,3600,Note_off_c,9,43,0,
2,3600,Note_off_c,9,44,0,
2,3600,Note_off_c,9,45,0,
2,3600,Note_off_c,9,46,0,
2,3600,Note_off_c,9,47,0,
2,3600,Note_off_c,9,48,0,
2,3600,Note_off_c,9,49,0,
2,3600,Note_off_c,9,50,0,
2,3600,Note_off_c,9,51,0,
2,3600,Note_off_c,9,56,0,
2,3600,Note_off_c,9,57,0,
2,3600,Note_off_c,9,59,0,
2,3600,Note_off_c,9,60,0,
2,3600,Note_off_c,9,61,0,
2,3600,Note_off_c,9,63,0,
2,3600,Note_off_c,9,68,0,
2,3600,Note_off_c,9,69,0,
2,3600,Note_off_c,9,70,0,
2,3600,Note_off_c,9,76,0,
2,3600,Note_off_c,9,80,0,
2,3600,Note_off_c,9,81,0,
2,3600,Note_off_c,9,82,0,
2,3600,Note_off_c,9,87,0,
2,3600,Note_off_c,9,88,0,
2,3600,Note_off_c,9,89,0,
2,3600,Note_off_c,9,91,0,
2,3600,Note_off_c,9,93,0,
2,3620,Note_on_c,9,35,7,
2,3620,Note_off_c,9,36,0,
2,3620,Note_off_c,9,37,0,
2,3620,Note_on_c,9,38,3,
2,3620,Note_off_c,9,39,0,
2,3620,Note_off_c,9,40,0,
2,3620,Note_off_c,9,41,0,
2,3620,Note_off_c,9,42,0,
2,3620,Note_off_c,9,43,0,
2,3620,Note_off_c,9,44,0,
2,3620,Note_off_c,9,45,0,
2,3620,Note_off_c,9,46,0,
2,3620,Note_off_c,9,47,0,
2,3620,Note_off_c,9,48,0,
2,3620,Note_off_c,9,49,0,
2,3620,Note_off_c,9,50,0,
2,3620,Note_off_c,9,51,0,
2,3620,Note_off_c,9,56,0,
2,3620,Note_off_c,9,57,0,
2,3620,Note_off_c,9,59,0,
2,3620,Note_off_c,9,60,0,
2,3620,Note_off_c,9,61,0,
2,3620,Note_off_c,9,63,0,
2,3620,Note_off_c,9,68,0,
2,3620,Note_off_c,9,69,0,
2,3620,Note_off_c,9,70,0,
2,3620,Note_off_c,9,76,0,
2,3620,Note_off_c,9,80,0,
2,3620,Note_off_c,9,81,0,
2,3620,Note_off_c,9,82,0,
2,3620,Note_off_c,9,87,0,
2,3620,Note_off_c,9,88,0,
2,3620,Note_off_c,9,89,0,
2,3620,Note_off_c,9,91,0,
2,3620,Note_off_c,9,93,0,
2,3640,Note_on_c,9,35,7,
2,3640,Note_off_c,9,36,0,
2,3640,Note_off_c,9,37,0,
2,3640,Note_on_c,9,38,3,
2,3640,Note_off_c,9,39,0,
2,3640,Note_off_c,9,40,0,
2,3640,Note_off_c,9,41,0,
2,3640,Note_off_c,9,42,0,
2,3640,Note_off_c,9,43,0,
2,3640,Note_off_c,9,44,0,
2,3640,Note_off_c,9,45,0,
2,3640,Note_off_c,9,46,0,
2,3640,Note_off_c,9,47,0,
2,3640,Note_off_c,9,48,0,
2,3640,Note_off_c,9,49,0,
2,3640,Note_off_c,9,50,0,
2,3640,Note_off_c,9,51,0,
2,3640,Note_off_c,9,56,0,
2,3640,Note_off_c,9,57,0,
2,3640,Note_off_c,9,59,0,
2,3640,Note_off_c,9,60,0,
2,3640,Note_off_c,9,61,0,
2,3640,Note_off_c,9,63,0,
2,3640,Note_off_c,9,68,0,
2,3640,Note_off_c,9,69,0,
2,3640,Note_off_c,9,70,0,
2,3640,Note_off_c,9,76,0,
2,3640,Note_off_c,9,80,0,
2,3640,Note_off_c,9,81,0,
2,3640,Note_off_c,9,82,0,
2,3640,Note_off_c,9,87,0,
2,3640,Note_off_c,9,88,0,
2,3640,Note_off_c,9,89,0,
2,3640,Note_off_c,9,91,0,
2,3640,Note_off_c,9,93,0,
2,3660,Note_on_c,9,35,7,
2,3660,Note_off_c,9,36,0,
2,3660,Note_off_c,9,37,0,
2,3660,Note_on_c,9,38,3,
2,3660,Note_off_c,9,39,0,
2,3660,Note_off_c,9,40,0,
2,3660,Note_off_c,9,41,0,
2,3660,Note_off_c,9,42,0,
2,3660,Note_off_c,9,43,0,
2,3660,Note_off_c,9,44,0,
2,3660,Note_off_c,9,45,0,
2,3660,Note_off_c,9,46,0,
2,3660,Note_off_c,9,47,0,
2,3660,Note_off_c,9,48,0,
2,3660,Note_off_c,9,49,0,
2,3660,Note_off_c,9,50,0,
2,3660,Note_off_c,9,51,0,
2,3660,Note_off_c,9,56,0,
2,3660,Note_off_c,9,57,0,
2,3660,Note_off_c,9,59,0,
2,3660,Note_off_c,9,60,0,
2,3660,Note_off_c,9,61,0,
2,3660,Note_off_c,9,63,0,
2,3660,Note_off_c,9,68,0,
2,3660,Note_off_c,9,69,0,
2,3660,Note_off_c,9,70,0,
2,3660,Note_off_c,9,76,0,
2,3660,Note_off_c,9,80,0,
2,3660,Note_off_c,9,81,0,
2,3660,Note_off_c,9,82,0,
2,3660,Note_off_c,9,87,0,
2,3660,Note_off_c,9,88,0,
2,3660,Note_off_c,9,89,0,
2,3660,Note_off_c,9,91,0,
2,3660,Note_off_c,9,93,0,
2,3680,Note_on_c,9,35,7,
2,3680,Note_off_c,9,36,0,
2,3680,Note_off_c,9,37,0,
2,3680,Note_on_c,9,38,3,
2,3680,Note_off_c,9,39,0,
2,3680,Note_off_c,9,40,0,
2,3680,Note_off_c,9,41,0,
2,3680,Note_off_c,9,42,0,
2,3680,Note_off_c,9,43,0,
2,3680,Note_off_c,9,44,0,
2,3680,Note_off_c,9,45,0,
2,3680,Note_off_c,9,46,0,
2,3680,Note_off_c,9,47,0,
2,3680,Note_off_c,9,48,0,
2,3680,Note_off_c,9,49,0,
2,3680,Note_off_c,9,50,0,
2,3680,Note_off_c,9,51,0,
2,3680,Note_off_c,9,56,0,
2,3680,Note_off_c,9,57,0,
2,3680,Note_off_c,9,59,0,
2,3680,Note_off_c,9,60,0,
2,3680,Note_off_c,9,61,0,
2,3680,Note_off_c,9,63,0,
2,3680,Note_off_c,9,68,0,
2,3680,Note_off_c,9,69,0,
2,3680,Note_off_c,9,70,0,
2,3680,Note_off_c,9,76,0,
2,3680,Note_off_c,9,80,0,
2,3680,Note_off_c,9,81,0,
2,3680,Note_off_c,9,82,0,
2,3680,Note_off_c,9,87,0,
2,3680,Note_off_c,9,88,0,
2,3680,Note_off_c,9,89,0,
2,3680,Note_off_c,9,91,0,
2,3680,Note_off_c,9,93,0,
2,3700,Note_on_c,9,35,7,
2,3700,Note_off_c,9,36,0,
2,3700,Note_off_c,9,37,0,
2,3700,Note_on_c,9,38,3,
2,3700,Note_off_c,9,39,0,
2,3700,Note_off_c,9,40,0,
2,3700,Note_off_c,9,41,0,
2,3700,Note_off_c,9,42,0,
2,3700,Note_off_c,9,43,0,
2,3700,Note_off_c,9,44,0,
2,3700,Note_off_c,9,45,0,
2,3700,Note_off_c,9,46,0,
2,3700,Note_off_c,9,47,0,
2,3700,Note_off_c,9,48,0,
2,3700,Note_off_c,9,49,0,
2,3700,Note_off_c,9,50,0,
2,3700,Note_off_c,9,51,0,
2,3700,Note_off_c,9,56,0,
2,3700,Note_off_c,9,57,0,
2,3700,Note_off_c,9,59,0,
2,3700,Note_off_c,9,60,0,
2,3700,Note_off_c,9,61,0,
2,3700,Note_off_c,9,63,0,
2,3700,Note_off_c,9,68,0,
2,3700,Note_off_c,9,69,0,
2,3700,Note_off_c,9,70,0,
2,3700,Note_off_c,9,76,0,
2,3700,Note_off_c,9,80,0,
2,3700,Note_off_c,9,81,0,
2,3700,Note_off_c,9,82,0,
2,3700,Note_off_c,9,87,0,
2,3700,Note_off_c,9,88,0,
2,3700,Note_off_c,9,89,0,
2,3700,Note_off_c,9,91,0,
2,3700,Note_off_c,9,93,0,
2,3720,Note_on_c,9,35,7,
2,3720,Note_off_c,9,36,0,
2,3720,Note_off_c,9,37,0,
2,3720,Note_on_c,9,38,3,
2,3720,Note_off_c,9,39,0,
2,3720,Note_off_c,9,40,0,
2,3720,Note_off_c,9,41,0,
2,3720,Note_off_c,9,42,0,
2,3720,Note_off_c,9,43,0,
2,3720,Note_off_c,9,44,0,
2,3720,Note_off_c,9,45,0,
2,3720,Note_off_c,9,46,0,
2,3720,Note_off_c,9,47,0,
2,3720,Note_off_c,9,48,0,
2,3720,Note_off_c,9,49,0,
2,3720,Note_off_c,9,50,0,
2,3720,Note_off_c,9,51,0,
2,3720,Note_off_c,9,56,0,
2,3720,Note_off_c,9,57,0,
2,3720,Note_off_c,9,59,0,
2,3720,Note_off_c,9,60,0,
2,3720,Note_off_c,9,61,0,
2,3720,Note_off_c,9,63,0,
2,3720,Note_off_c,9,68,0,
2,3720,Note_off_c,9,69,0,
2,3720,Note_off_c,9,70,0,
2,3720,Note_off_c,9,76,0,
2,3720,Note_off_c,9,80,0,
2,3720,Note_off_c,9,81,0,
2,3720,Note_off_c,9,82,0,
2,3720,Note_off_c,9,87,0,
2,3720,Note_off_c,9,88,0,
2,3720,Note_off_c,9,89,0,
2,3720,Note_off_c,9,91,0,
2,3720,Note_off_c,9,93,0,
2,3740,Note_on_c,9,35,7,
2,3740,Note_off_c,9,36,0,
2,3740,Note_off_c,9,37,0,
2,3740,Note_on_c,9,38,3,
2,3740,Note_off_c,9,39,0,
2,3740,Note_off_c,9,40,0,
2,3740,Note_off_c,9,41,0,
2,3740,Note_off_c,9,42,0,
2,3740,Note_off_c,9,43,0,
2,3740,Note_off_c,9,44,0,
2,3740,Note_off_c,9,45,0,
2,3740,Note_off_c,9,46,0,
2,3740,Note_off_c,9,47,0,
2,3740,Note_off_c,9,48,0,
2,3740,Note_off_c,9,49,0,
2,3740,Note_off_c,9,50,0,
2,3740,Note_off_c,9,51,0,
2,3740,Note_off_c,9,56,0,
2,3740,Note_off_c,9,57,0,
2,3740,Note_off_c,9,59,0,
2,3740,Note_off_c,9,60,0,
2,3740,Note_off_c,9,61,0,
2,3740,Note_off_c,9,63,0,
2,3740,Note_off_c,9,68,0,
2,3740,Note_off_c,9,69,0,
2,3740,Note_off_c,9,70,0,
2,3740,Note_off_c,9,76,0,
2,3740,Note_off_c,9,80,0,
2,3740,Note_off_c,9,81,0,
2,3740,Note_off_c,9,82,0,
2,3740,Note_off_c,9,87,0,
2,3740,Note_off_c,9,88,0,
2,3740,Note_off_c,9,89,0,
2,3740,Note_off_c,9,91,0,
2,3740,Note_off_c,9,93,0,
2,3760,Note_on_c,9,35,7,
2,3760,Note_off_c,9,36,0,
2,3760,Note_off_c,9,37,0,
2,3760,Note_on_c,9,38,3,
2,3760,Note_off_c,9,39,0,
2,3760,Note_off_c,9,40,0,
2,3760,Note_off_c,9,41,0,
2,3760,Note_off_c,9,42,0,
2,3760,Note_off_c,9,43,0,
2,3760,Note_off_c,9,44,0,
2,3760,Note_off_c,9,45,0,
2,3760,Note_off_c,9,46,0,
2,3760,Note_off_c,9,47,0,
2,3760,Note_off_c,9,48,0,
2,3760,Note_off_c,9,49,0,
2,3760,Note_off_c,9,50,0,
2,3760,Note_off_c,9,51,0,
2,3760,Note_off_c,9,56,0,
2,3760,Note_off_c,9,57,0,
2,3760,Note_off_c,9,59,0,
2,3760,Note_off_c,9,60,0,
2,3760,Note_off_c,9,61,0,
2,3760,Note_off_c,9,63,0,
2,3760,Note_off_c,9,68,0,
2,3760,Note_off_c,9,69,0,
2,3760,Note_off_c,9,70,0,
2,3760,Note_off_c,9,76,0,
2,3760,Note_off_c,9,80,0,
2,3760,Note_off_c,9,81,0,
2,3760,Note_off_c,9,82,0,
2,3760,Note_off_c,9,87,0,
2,3760,Note_off_c,9,88,0,
2,3760,Note_off_c,9,89,0,
2,3760,Note_off_c,9,91,0,
2,3760,Note_off_c,9,93,0,
2,3780,Note_on_c,9,35,7,
2,3780,Note_off_c,9,36,0,
2,3780,Note_off_c,9,37,0,
2,3780,Note_on_c,9,38,3,
2,3780,Note_off_c,9,39,0,
2,3780,Note_off_c,9,40,0,
2,3780,Note_off_c,9,41,0,
2,3780,Note_off_c,9,42,0,
2,3780,Note_off_c,9,43,0,
2,3780,Note_off_c,9,44,0,
2,3780,Note_off_c,9,45,0,
2,3780,Note_off_c,9,46,0,
2,3780,Note_off_c,9,47,0,
2,3780,Note_off_c,9,48,0,
2,3780,Note_off_c,9,49,0,
2,3780,Note_off_c,9,50,0,
2,3780,Note_off_c,9,51,0,
2,3780,Note_off_c,9,56,0,
2,3780,Note_off_c,9,57,0,
2,3780,Note_off_c,9,59,0,
2,3780,Note_off_c,9,60,0,
2,3780,Note_off_c,9,61,0,
2,3780,Note_off_c,9,63,0,
2,3780,Note_off_c,9,68,0,
2,3780,Note_off_c,9,69,0,
2,3780,Note_off_c,9,70,0,
2,3780,Note_off_c,9,76,0,
2,3780,Note_off_c,9,80,0,
2,3780,Note_off_c,9,81,0,
2,3780,Note_off_c,9,82,0,
2,3780,Note_off_c,9,87,0,
2,3780,Note_off_c,9,88,0,
2,3780,Note_off_c,9,89,0,
2,3780,Note_off_c,9,91,0,
2,3780,Note_off_c,9,93,0,
2,3800,Note_on_c,9,35,7,
2,3800,Note_off_c,9,36,0,
2,3800,Note_off_c,9,37,0,
2,3800,Note_on_c,9,38,3,
2,3800,Note_off_c,9,39,0,
2,3800,Note_off_c,9,40,0,
2,3800,Note_off_c,9,41,0,
2,3800,Note_off_c,9,42,0,
2,3800,Note_off_c,9,43,0,
2,3800,Note_off_c,9,44,0,
2,3800,Note_off_c,9,45,0,
2,3800,Note_off_c,9,46,0,
2,3800,Note_off_c,9,47,0,
2,3800,Note_off_c,9,48,0,
2,3800,Note_off_c,9,49,0,
2,3800,Note_off_c,9,50,0,
2,3800,Note_off_c,9,51,0,
2,3800,Note_off_c,9,56,0,
2,3800,Note_off_c,9,57,0,
2,3800,Note_off_c,9,59,0,
2,3800,Note_off_c,9,60,0,
2,3800,Note_off_c,9,61,0,
2,3800,Note_off_c,9,63,0,
2,3800,Note_off_c,9,68,0,
2,3800,Note_off_c,9,69,0,
2,3800,Note_off_c,9,70,0,
2,3800,Note_off_c,9,76,0,
2,3800,Note_off_c,9,80,0,
2,3800,Note_off_c,9,81,0,
2,3800,Note_off_c,9,82,0,
2,3800,Note_off_c,9,87,0,
2,3800,Note_off_c,9,88,0,
2,3800,Note_off_c,9,89,0,
2,3800,Note_off_c,9,91,0,
2,3800,Note_off_c,9,93,0,
2,3820,Note_on_c,9,35,7,
2,3820,Note_off_c,9,36,0,
2,3820,Note_off_c,9,37,0,
2,3820,Note_on_c,9,38,3,
2,3820,Note_off_c,9,39,0,
2,3820,Note_off_c,9,40,0,
2,3820,Note_off_c,9,41,0,
2,3820,Note_off_c,9,42,0,
2,3820,Note_off_c,9,43,0,
2,3820,Note_off_c,9,44,0,
2,3820,Note_off_c,9,45,0,
2,3820,Note_off_c,9,46,0,
2,3820,Note_off_c,9,47,0,
2,3820,Note_off_c,9,48,0,
2,3820,Note_off_c,9,49,0,
2,3820,Note_off_c,9,50,0,
2,3820,Note_off_c,9,51,0,
2,3820,Note_off_c,9,56,0,
2,3820,Note_off_c,9,57,0,
2,3820,Note_off_c,9,59,0,
2,3820,Note_off_c,9,60,0,
2,3820,Note_off_c,9,61,0,
2,3820,Note_off_c,9,63,0,
2,3820,Note_off_c,9,68,0,
2,3820,Note_off_c,9,69,0,
2,3820,Note_off_c,9,70,0,
2,3820,Note_off_c,9,76,0,
2,3820,Note_off_c,9,80,0,
2,3820,Note_off_c,9,81,0,
2,3820,Note_off_c,9,82,0,
2,3820,Note_off_c,9,87,0,
2,3820,Note_off_c,9,88,0,
2,3820,Note_off_c,9,89,0,
2,3820,Note_off_c,9,91,0,
2,3820,Note_off_c,9,93,0,
2,3840,Note_on_c,9,35,7,
2,3840,Note_off_c,9,36,0,
2,3840,Note_off_c,9,37,0,
2,3840,Note_on_c,9,38,3,
2,3840,Note_off_c,9,39,0,
2,3840,Note_off_c,9,40,0,
2,3840,Note_off_c,9,41,0,
2,3840,Note_off_c,9,42,0,
2,3840,Note_off_c,9,43,0,
2,3840,Note_off_c,9,44,0,
2,3840,Note_off_c,9,45,0,
2,3840,Note_off_c,9,46,0,
2,3840,Note_off_c,9,47,0,
2,3840,Note_off_c,9,48,0,
2,3840,Note_off_c,9,49,0,
2,3840,Note_off_c,9,50,0,
2,3840,Note_off_c,9,51,0,
2,3840,Note_off_c,9,56,0,
2,3840,Note_off_c,9,57,0,
2,3840,Note_off_c,9,59,0,
2,3840,Note_off_c,9,60,0,
2,3840,Note_off_c,9,61,0,
2,3840,Note_off_c,9,63,0,
2,3840,Note_off_c,9,68,0,
2,3840,Note_off_c,9,69,0,
2,3840,Note_off_c,9,70,0,
2,3840,Note_off_c,9,76,0,
2,3840,Note_off_c,9,80,0,
2,3840,Note_off_c,9,81,0,
2,3840,Note_off_c,9,82,0,
2,3840,Note_off_c,9,87,0,
2,3840,Note_off_c,9,88,0,
2,3840,Note_off_c,9,89,0,
2,3840,Note_off_c,9,91,0,
2,3840,Note_off_c,9,93,0,
2,3860,Note_on_c,9,35,7,
2,3860,Note_off_c,9,36,0,
2,3860,Note_off_c,9,37,0,
2,3860,Note_on_c,9,38,3,
2,3860,Note_off_c,9,39,0,
2,3860,Note_off_c,9,40,0,
2,3860,Note_off_c,9,41,0,
2,3860,Note_off_c,9,42,0,
2,3860,Note_off_c,9,43,0,
2,3860,Note_off_c,9,44,0,
2,3860,Note_off_c,9,45,0,
2,3860,Note_off_c,9,46,0,
2,3860,Note_off_c,9,47,0,
2,3860,Note_off_c,9,48,0,
2,3860,Note_off_c,9,49,0,
2,3860,Note_off_c,9,50,0,
2,3860,Note_off_c,9,51,0,
2,3860,Note_off_c,9,56,0,
2,3860,Note_off_c,9,57,0,
2,3860,Note_off_c,9,59,0,
2,3860,Note_off_c,9,60,0,
2,3860,Note_off_c,9,61,0,
2,3860,Note_off_c,9,63,0,
2,3860,Note_off_c,9,68,0,
2,3860,Note_off_c,9,69,0,
2,3860,Note_off_c,9,70,0,
2,3860,Note_off_c,9,76,0,
2,3860,Note_off_c,9,80,0,
2,3860,Note_off_c,9,81,0,
2,3860,Note_off_c,9,82,0,
2,3860,Note_off_c,9,87,0,
2,3860,Note_off_c,9,88,0,
2,3860,Note_off_c,9,89,0,
2,3860,Note_off_c,9,91,0,
2,3860,Note_off_c,9,93,0,
2,3880,Note_on_c,9,35,7,
2,3880,Note_off_c,9,36,0,
2,3880,Note_off_c,9,37,0,
2,3880,Note_on_c,9,38,3,
2,3880,Note_off_c,9,39,0,
2,3880,Note_off_c,9,40,0,
2,3880,Note_off_c,9,41,0,
2,3880,Note_off_c,9,42,0,
2,3880,Note_off_c,9,43,0,
2,3880,Note_off_c,9,44,0,
2,3880,Note_off_c,9,45,0,
2,3880,Note_off_c,9,46,0,
2,3880,Note_off_c,9,47,0,
2,3880,Note_off_c,9,48,0,
2,3880,Note_off_c,9,49,0,
2,3880,Note_off_c,9,50,0,
2,3880,Note_off_c,9,51,0,
2,3880,Note_off_c,9,56,0,
2,3880,Note_off_c,9,57,0,
2,3880,Note_off_c,9,59,0,
2,3880,Note_off_c,9,60,0,
2,3880,Note_off_c,9,61,0,
2,3880,Note_off_c,9,63,0,
2,3880,Note_off_c,9,68,0,
2,3880,Note_off_c,9,69,0,
2,3880,Note_off_c,9,70,0,
2,3880,Note_off_c,9,76,0,
2,3880,Note_off_c,9,80,0,
2,3880,Note_off_c,9,81,0,
2,3880,Note_off_c,9,82,0,
2,3880,Note_off_c,9,87,0,
2,3880,Note_off_c,9,88,0,
2,3880,Note_off_c,9,89,0,
2,3880,Note_off_c,9,91,0,
2,3880,Note_off_c,9,93,0,
2,3900,Note_on_c,9,35,7,
2,3900,Note_off_c,9,36,0,
2,3900,Note_off_c,9,37,0,
2,3900,Note_on_c,9,38,3,
2,3900,Note_off_c,9,39,0,
2,3900,Note_off_c,9,40,0,
2,3900,Note_off_c,9,41,0,
2,3900,Note_off_c,9,42,0,
2,3900,Note_off_c,9,43,0,
2,3900,Note_off_c,9,44,0,
2,3900,Note_off_c,9,45,0,
2,3900,Note_off_c,9,46,0,
2,3900,Note_off_c,9,47,0,
2,3900,Note_off_c,9,48,0,
2,3900,Note_off_c,9,49,0,
2,3900,Note_off_c,9,50,0,
2,3900,Note_off_c,9,51,0,
2,3900,Note_off_c,9,56,0,
2,3900,Note_off_c,9,57,0,
2,3900,Note_off_c,9,59,0,
2,3900,Note_off_c,9,60,0,
2,3900,Note_off_c,9,61,0,
2,3900,Note_off_c,9,63,0,
2,3900,Note_off_c,9,68,0,
2,3900,Note_off_c,9,69,0,
2,3900,Note_off_c,9,70,0,
2,3900,Note_off_c,9,76,0,
2,3900,Note_off_c,9,80,0,
2,3900,Note_off_c,9,81,0,
2,3900,Note_off_c,9,82,0,
2,3900,Note_off_c,9,87,0,
2,3900,Note_off_c,9,88,0,
2,3900,Note_off_c,9,89,0,
2,3900,Note_off_c,9,91,0,
2,3900,Note_off_c,9,93,0,
2,3920,Note_on_c,9,35,7,
2,3920,Note_off_c,9,36,0,
2,3920,Note_off_c,9,37,0,
2,3920,Note_on_c,9,38,3,
2,3920,Note_off_c,9,39,0,
2,3920,Note_off_c,9,40,0,
2,3920,Note_off_c,9,41,0,
2,3920,Note_off_c,9,42,0,
2,3920,Note_off_c,9,43,0,
2,3920,Note_off_c,9,44,0,
2,3920,Note_off_c,9,45,0,
2,3920,Note_off_c,9,46,0,
2,3920,Note_off_c,9,47,0,
2,3920,Note_off_c,9,48,0,
2,3920,Note_off_c,9,49,0,
2,3920,Note_off_c,9,50,0,
2,3920,Note_off_c,9,51,0,
2,3920,Note_off_c,9,56,0,
2,3920,Note_off_c,9,57,0,
2,3920,Note_off_c,9,59,0,
2,3920,Note_off_c,9,60,0,
2,3920,Note_off_c,9,61,0,
2,3920,Note_off_c,9,63,0,
2,3920,Note_off_c,9,68,0,
2,3920,Note_off_c,9,69,0,
2,3920,Note_off_c,9,70,0,
2,3920,Note_off_c,9,76,0,
2,3920,Note_off_c,9,80,0,
2,3920,Note_off_c,9,81,0,
2,3920,Note_off_c,9,82,0,
2,3920,Note_off_c,9,87,0,
2,3920,Note_off_c,9,88,0,
2,3920,Note_off_c,9,89,0,
2,3920,Note_off_c,9,91,0,
2,3920,Note_off_c,9,93,0,
2,3940,Note_on_c,9,35,7,
2,3940,Note_off_c,9,36,0,
2,3940,Note_off_c,9,37,0,
2,3940,Note_on_c,9,38,3,
2,3940,Note_off_c,9,39,0,
2,3940,Note_off_c,9,40,0,
2,3940,Note_off_c,9,41,0,
2,3940,Note_off_c,9,42,0,
2,3940,Note_off_c,9,43,0,
2,3940,Note_off_c,9,44,0,
2,3940,Note_off_c,9,45,0,
2,3940,Note_off_c,9,46,0,
2,3940,Note_off_c,9,47,0,
2,3940,Note_off_c,9,48,0,
2,3940,Note_off_c,9,49,0,
2,3940,Note_off_c,9,50,0,
2,3940,Note_off_c,9,51,0,
2,3940,Note_off_c,9,56,0,
2,3940,Note_off_c,9,57,0,
2,3940,Note_off_c,9,59,0,
2,3940,Note_off_c,9,60,0,
2,3940,Note_off_c,9,61,0,
2,3940,Note_off_c,9,63,0,
2,3940,Note_off_c,9,68,0,
2,3940,Note_off_c,9,69,0,
2,3940,Note_off_c,9,70,0,
2,3940,Note_off_c,9,76,0,
2,3940,Note_off_c,9,80,0,
2,3940,Note_off_c,9,81,0,
2,3940,Note_off_c,9,82,0,
2,3940,Note_off_c,9,87,0,
2,3940,Note_off_c,9,88,0,
2,3940,Note_off_c,9,89,0,
2,3940,Note_off_c,9,91,0,
2,3940,Note_off_c,9,93,0,
2,3960,Note_on_c,9,35,7,
2,3960,Note_off_c,9,36,0,
2,3960,Note_off_c,9,37,0,
2,3960,Note_on_c,9,38,3,
2,3960,Note_off_c,9,39,0,
2,3960,Note_off_c,9,40,0,
2,3960,Note_off_c,9,41,0,
2,3960,Note_off_c,9,42,0,
2,3960,Note_off_c,9,43,0,
2,3960,Note_off_c,9,44,0,
2,3960,Note_off_c,9,45,0,
2,3960,Note_off_c,9,46,0,
2,3960,Note_off_c,9,47,0,
2,3960,Note_off_c,9,48,0,
2,3960,Note_off_c,9,49,0,
2,3960,Note_off_c,9,50,0,
2,3960,Note_off_c,9,51,0,
2,3960,Note_off_c,9,56,0,
2,3960,Note_off_c,9,57,0,
2,3960,Note_off_c,9,59,0,
2,3960,Note_off_c,9,60,0,
2,3960,Note_off_c,9,61,0,
2,3960,Note_off_c,9,63,0,
2,3960,Note_off_c,9,68,0,
2,3960,Note_off_c,9,69,0,
2,3960,Note_off_c,9,70,0,
2,3960,Note_off_c,9,76,0,
2,3960,Note_off_c,9,80,0,
2,3960,Note_off_c,9,81,0,
2,3960,Note_off_c,9,82,0,
2,3960,Note_off_c,9,87,0,
2,3960,Note_off_c,9,88,0,
2,3960,Note_off_c,9,89,0,
2,3960,Note_off_c,9,91,0,
2,3960,Note_off_c,9,93,0,
2,3980,Note_on_c,9,35,7,
2,3980,Note_off_c,9,36,0,
2,3980,Note_off_c,9,37,0,
2,3980,Note_on_c,9,38,3,
2,3980,Note_off_c,9,39,0,
2,3980,Note_off_c,9,40,0,
2,3980,Note_off_c,9,41,0,
2,3980,Note_off_c,9,42,0,
2,3980,Note_off_c,9,43,0,
2,3980,Note_off_c,9,44,0,
2,3980,Note_off_c,9,45,0,
2,3980,Note_off_c,9,46,0,
2,3980,Note_off_c,9,47,0,
2,3980,Note_off_c,9,48,0,
2,3980,Note_off_c,9,49,0,
2,3980,Note_off_c,9,50,0,
2,3980,Note_off_c,9,51,0,
2,3980,Note_off_c,9,56,0,
2,3980,Note_off_c,9,57,0,
2,3980,Note_off_c,9,59,0,
2,3980,Note_off_c,9,60,0,
2,3980,Note_off_c,9,61,0,
2,3980,Note_off_c,9,63,0,
2,3980,Note_off_c,9,68,0,
2,3980,Note_off_c,9,69,0,
2,3980,Note_off_c,9,70,0,
2,3980,Note_off_c,9,76,0,
2,3980,Note_off_c,9,80,0,
2,3980,Note_off_c,9,81,0,
2,3980,Note_off_c,9,82,0,
2,3980,Note_off_c,9,87,0,
2,3980,Note_off_c,9,88,0,
2,3980,Note_off_c,9,89,0,
2,3980,Note_off_c,9,91,0,
2,3980,Note_off_c,9,93,0,
2,3990,End_track,,,,
0,0,End_of_file,,,,
