0,0,Header,1,2,480,
1,0,Start_track,,,,
1,0,Time_signature,4,2,24,8
1,0,Title_t,"""from model""",,,
1,0,End_track,,,,
2,0,Start_track,,,,
2,0,Note_on_c,9,35,61,
2,0,Note_on_c,9,36,61,
2,0,Note_on_c,9,37,61,
2,0,Note_on_c,9,38,61,
2,0,Note_on_c,9,39,60,
2,0,Note_on_c,9,40,61,
2,0,Note_on_c,9,41,62,
2,0,Note_on_c,9,42,61,
2,0,Note_on_c,9,43,60,
2,0,Note_on_c,9,44,61,
2,0,Note_on_c,9,45,62,
2,0,Note_on_c,9,46,50,
2,0,Note_on_c,9,47,59,
2,0,Note_on_c,9,48,58,
2,0,Note_on_c,9,49,61,
2,0,Note_on_c,9,50,59,
2,0,Note_on_c,9,51,62,
2,0,Note_on_c,9,56,61,
2,0,Note_on_c,9,57,59,
2,0,Note_on_c,9,59,62,
2,0,Note_on_c,9,60,61,
2,0,Note_on_c,9,61,61,
2,0,Note_on_c,9,63,61,
2,0,Note_on_c,9,68,60,
2,0,Note_on_c,9,69,57,
2,0,Note_on_c,9,70,55,
2,0,Note_on_c,9,76,62,
2,0,Note_on_c,9,80,61,
2,0,Note_on_c,9,81,61,
2,0,Note_on_c,9,82,62,
2,0,Note_on_c,9,87,62,
2,0,Note_on_c,9,88,62,
2,0,Note_on_c,9,89,62,
2,0,Note_on_c,9,91,55,
2,0,Note_on_c,9,93,61,
2,30,Note_off_c,9,35,0,
2,30,Note_off_c,9,36,0,
2,30,Note_off_c,9,37,0,
2,30,Note_off_c,9,38,0,
2,30,Note_off_c,9,39,0,
2,30,Note_off_c,9,40,0,
2,30,Note_off_c,9,41,0,
2,30,Note_off_c,9,42,0,
2,30,Note_off_c,9,43,0,
2,30,Note_off_c,9,44,0,
2,30,Note_off_c,9,45,0,
2,30,Note_off_c,9,46,0,
2,30,Note_off_c,9,47,0,
2,30,Note_off_c,9,48,0,
2,30,Note_off_c,9,49,0,
2,30,Note_off_c,9,50,0,
2,30,Note_off_c,9,51,0,
2,30,Note_off_c,9,56,0,
2,30,Note_off_c,9,57,0,
2,30,Note_off_c,9,59,0,
2,30,Note_off_c,9,60,0,
2,30,Note_off_c,9,61,0,
2,30,Note_off_c,9,63,0,
2,30,Note_off_c,9,68,0,
2,30,Note_off_c,9,69,0,
2,30,Note_off_c,9,70,0,
2,30,Note_off_c,9,76,0,
2,30,Note_off_c,9,80,0,
2,30,Note_off_c,9,81,0,
2,30,Note_off_c,9,82,0,
2,30,Note_off_c,9,87,0,
2,30,Note_off_c,9,88,0,
2,30,Note_off_c,9,89,0,
2,30,Note_off_c,9,91,0,
2,30,Note_off_c,9,93,0,
2,60,Note_off_c,9,35,0,
2,60,Note_off_c,9,36,0,
2,60,Note_off_c,9,37,0,
2,60,Note_off_c,9,38,0,
2,60,Note_off_c,9,39,0,
2,60,Note_off_c,9,40,0,
2,60,Note_off_c,9,41,0,
2,60,Note_off_c,9,42,0,
2,60,Note_off_c,9,43,0,
2,60,Note_off_c,9,44,0,
2,60,Note_off_c,9,45,0,
2,60,Note_off_c,9,46,0,
2,60,Note_off_c,9,47,0,
2,60,Note_off_c,9,48,0,
2,60,Note_off_c,9,49,0,
2,60,Note_off_c,9,50,0,
2,60,Note_off_c,9,51,0,
2,60,Note_off_c,9,56,0,
2,60,Note_off_c,9,57,0,
2,60,Note_off_c,9,59,0,
2,60,Note_off_c,9,60,0,
2,60,Note_off_c,9,61,0,
2,60,Note_off_c,9,63,0,
2,60,Note_off_c,9,68,0,
2,60,Note_off_c,9,69,0,
2,60,Note_off_c,9,70,0,
2,60,Note_off_c,9,76,0,
2,60,Note_off_c,9,80,0,
2,60,Note_off_c,9,81,0,
2,60,Note_off_c,9,82,0,
2,60,Note_off_c,9,87,0,
2,60,Note_off_c,9,88,0,
2,60,Note_off_c,9,89,0,
2,60,Note_off_c,9,91,0,
2,60,Note_off_c,9,93,0,
2,90,Note_off_c,9,35,0,
2,90,Note_off_c,9,36,0,
2,90,Note_off_c,9,37,0,
2,90,Note_off_c,9,38,0,
2,90,Note_off_c,9,39,0,
2,90,Note_off_c,9,40,0,
2,90,Note_off_c,9,41,0,
2,90,Note_off_c,9,42,0,
2,90,Note_off_c,9,43,0,
2,90,Note_off_c,9,44,0,
2,90,Note_off_c,9,45,0,
2,90,Note_off_c,9,46,0,
2,90,Note_off_c,9,47,0,
2,90,Note_off_c,9,48,0,
2,90,Note_off_c,9,49,0,
2,90,Note_off_c,9,50,0,
2,90,Note_off_c,9,51,0,
2,90,Note_off_c,9,56,0,
2,90,Note_off_c,9,57,0,
2,90,Note_off_c,9,59,0,
2,90,Note_off_c,9,60,0,
2,90,Note_off_c,9,61,0,
2,90,Note_off_c,9,63,0,
2,90,Note_off_c,9,68,0,
2,90,Note_off_c,9,69,0,
2,90,Note_off_c,9,70,0,
2,90,Note_off_c,9,76,0,
2,90,Note_off_c,9,80,0,
2,90,Note_off_c,9,81,0,
2,90,Note_off_c,9,82,0,
2,90,Note_off_c,9,87,0,
2,90,Note_off_c,9,88,0,
2,90,Note_off_c,9,89,0,
2,90,Note_off_c,9,91,0,
2,90,Note_off_c,9,93,0,
2,120,Note_off_c,9,35,0,
2,120,Note_off_c,9,36,0,
2,120,Note_off_c,9,37,0,
2,120,Note_off_c,9,38,0,
2,120,Note_off_c,9,39,0,
2,120,Note_off_c,9,40,0,
2,120,Note_off_c,9,41,0,
2,120,Note_off_c,9,42,0,
2,120,Note_off_c,9,43,0,
2,120,Note_off_c,9,44,0,
2,120,Note_off_c,9,45,0,
2,120,Note_off_c,9,46,0,
2,120,Note_off_c,9,47,0,
2,120,Note_off_c,9,48,0,
2,120,Note_off_c,9,49,0,
2,120,Note_off_c,9,50,0,
2,120,Note_off_c,9,51,0,
2,120,Note_off_c,9,56,0,
2,120,Note_off_c,9,57,0,
2,120,Note_off_c,9,59,0,
2,120,Note_off_c,9,60,0,
2,120,Note_off_c,9,61,0,
2,120,Note_off_c,9,63,0,
2,120,Note_off_c,9,68,0,
2,120,Note_off_c,9,69,0,
2,120,Note_off_c,9,70,0,
2,120,Note_off_c,9,76,0,
2,120,Note_off_c,9,80,0,
2,120,Note_off_c,9,81,0,
2,120,Note_off_c,9,82,0,
2,120,Note_off_c,9,87,0,
2,120,Note_off_c,9,88,0,
2,120,Note_off_c,9,89,0,
2,120,Note_off_c,9,91,0,
2,120,Note_off_c,9,93,0,
2,150,Note_off_c,9,35,0,
2,150,Note_off_c,9,36,0,
2,150,Note_off_c,9,37,0,
2,150,Note_off_c,9,38,0,
2,150,Note_off_c,9,39,0,
2,150,Note_off_c,9,40,0,
2,150,Note_off_c,9,41,0,
2,150,Note_off_c,9,42,0,
2,150,Note_off_c,9,43,0,
2,150,Note_off_c,9,44,0,
2,150,Note_off_c,9,45,0,
2,150,Note_off_c,9,46,0,
2,150,Note_off_c,9,47,0,
2,150,Note_off_c,9,48,0,
2,150,Note_off_c,9,49,0,
2,150,Note_off_c,9,50,0,
2,150,Note_off_c,9,51,0,
2,150,Note_off_c,9,56,0,
2,150,Note_off_c,9,57,0,
2,150,Note_off_c,9,59,0,
2,150,Note_off_c,9,60,0,
2,150,Note_off_c,9,61,0,
2,150,Note_off_c,9,63,0,
2,150,Note_off_c,9,68,0,
2,150,Note_off_c,9,69,0,
2,150,Note_off_c,9,70,0,
2,150,Note_off_c,9,76,0,
2,150,Note_off_c,9,80,0,
2,150,Note_off_c,9,81,0,
2,150,Note_off_c,9,82,0,
2,150,Note_off_c,9,87,0,
2,150,Note_off_c,9,88,0,
2,150,Note_off_c,9,89,0,
2,150,Note_off_c,9,91,0,
2,150,Note_off_c,9,93,0,
2,180,Note_off_c,9,35,0,
2,180,Note_off_c,9,36,0,
2,180,Note_off_c,9,37,0,
2,180,Note_off_c,9,38,0,
2,180,Note_off_c,9,39,0,
2,180,Note_off_c,9,40,0,
2,180,Note_off_c,9,41,0,
2,180,Note_off_c,9,42,0,
2,180,Note_off_c,9,43,0,
2,180,Note_off_c,9,44,0,
2,180,Note_off_c,9,45,0,
2,180,Note_off_c,9,46,0,
2,180,Note_off_c,9,47,0,
2,180,Note_off_c,9,48,0,
2,180,Note_off_c,9,49,0,
2,180,Note_off_c,9,50,0,
2,180,Note_off_c,9,51,0,
2,180,Note_off_c,9,56,0,
2,180,Note_off_c,9,57,0,
2,180,Note_off_c,9,59,0,
2,180,Note_off_c,9,60,0,
2,180,Note_off_c,9,61,0,
2,180,Note_off_c,9,63,0,
2,180,Note_off_c,9,68,0,
2,180,Note_off_c,9,69,0,
2,180,Note_off_c,9,70,0,
2,180,Note_off_c,9,76,0,
2,180,Note_off_c,9,80,0,
2,180,Note_off_c,9,81,0,
2,180,Note_off_c,9,82,0,
2,180,Note_off_c,9,87,0,
2,180,Note_off_c,9,88,0,
2,180,Note_off_c,9,89,0,
2,180,Note_off_c,9,91,0,
2,180,Note_off_c,9,93,0,
2,210,Note_off_c,9,35,0,
2,210,Note_off_c,9,36,0,
2,210,Note_off_c,9,37,0,
2,210,Note_off_c,9,38,0,
2,210,Note_off_c,9,39,0,
2,210,Note_off_c,9,40,0,
2,210,Note_off_c,9,41,0,
2,210,Note_off_c,9,42,0,
2,210,Note_off_c,9,43,0,
2,210,Note_off_c,9,44,0,
2,210,Note_off_c,9,45,0,
2,210,Note_off_c,9,46,0,
2,210,Note_off_c,9,47,0,
2,210,Note_off_c,9,48,0,
2,210,Note_off_c,9,49,0,
2,210,Note_off_c,9,50,0,
2,210,Note_off_c,9,51,0,
2,210,Note_off_c,9,56,0,
2,210,Note_off_c,9,57,0,
2,210,Note_off_c,9,59,0,
2,210,Note_off_c,9,60,0,
2,210,Note_off_c,9,61,0,
2,210,Note_off_c,9,63,0,
2,210,Note_off_c,9,68,0,
2,210,Note_off_c,9,69,0,
2,210,Note_off_c,9,70,0,
2,210,Note_off_c,9,76,0,
2,210,Note_off_c,9,80,0,
2,210,Note_off_c,9,81,0,
2,210,Note_off_c,9,82,0,
2,210,Note_off_c,9,87,0,
2,210,Note_off_c,9,88,0,
2,210,Note_off_c,9,89,0,
2,210,Note_off_c,9,91,0,
2,210,Note_off_c,9,93,0,
2,240,Note_off_c,9,35,0,
2,240,Note_off_c,9,36,0,
2,240,Note_off_c,9,37,0,
2,240,Note_off_c,9,38,0,
2,240,Note_off_c,9,39,0,
2,240,Note_off_c,9,40,0,
2,240,Note_off_c,9,41,0,
2,240,Note_off_c,9,42,0,
2,240,Note_off_c,9,43,0,
2,240,Note_off_c,9,44,0,
2,240,Note_off_c,9,45,0,
2,240,Note_off_c,9,46,0,
2,240,Note_off_c,9,47,0,
2,240,Note_off_c,9,48,0,
2,240,Note_off_c,9,49,0,
2,240,Note_off_c,9,50,0,
2,240,Note_off_c,9,51,0,
2,240,Note_off_c,9,56,0,
2,240,Note_off_c,9,57,0,
2,240,Note_off_c,9,59,0,
2,240,Note_off_c,9,60,0,
2,240,Note_off_c,9,61,0,
2,240,Note_off_c,9,63,0,
2,240,Note_off_c,9,68,0,
2,240,Note_off_c,9,69,0,
2,240,Note_off_c,9,70,0,
2,240,Note_off_c,9,76,0,
2,240,Note_off_c,9,80,0,
2,240,Note_off_c,9,81,0,
2,240,Note_off_c,9,82,0,
2,240,Note_off_c,9,87,0,
2,240,Note_off_c,9,88,0,
2,240,Note_off_c,9,89,0,
2,240,Note_off_c,9,91,0,
2,240,Note_off_c,9,93,0,
2,270,Note_off_c,9,35,0,
2,270,Note_off_c,9,36,0,
2,270,Note_off_c,9,37,0,
2,270,Note_off_c,9,38,0,
2,270,Note_off_c,9,39,0,
2,270,Note_off_c,9,40,0,
2,270,Note_off_c,9,41,0,
2,270,Note_off_c,9,42,0,
2,270,Note_off_c,9,43,0,
2,270,Note_off_c,9,44,0,
2,270,Note_off_c,9,45,0,
2,270,Note_off_c,9,46,0,
2,270,Note_off_c,9,47,0,
2,270,Note_off_c,9,48,0,
2,270,Note_off_c,9,49,0,
2,270,Note_off_c,9,50,0,
2,270,Note_off_c,9,51,0,
2,270,Note_off_c,9,56,0,
2,270,Note_off_c,9,57,0,
2,270,Note_off_c,9,59,0,
2,270,Note_off_c,9,60,0,
2,270,Note_off_c,9,61,0,
2,270,Note_off_c,9,63,0,
2,270,Note_off_c,9,68,0,
2,270,Note_off_c,9,69,0,
2,270,Note_off_c,9,70,0,
2,270,Note_off_c,9,76,0,
2,270,Note_off_c,9,80,0,
2,270,Note_off_c,9,81,0,
2,270,Note_off_c,9,82,0,
2,270,Note_off_c,9,87,0,
2,270,Note_off_c,9,88,0,
2,270,Note_off_c,9,89,0,
2,270,Note_off_c,9,91,0,
2,270,Note_off_c,9,93,0,
2,300,Note_off_c,9,35,0,
2,300,Note_off_c,9,36,0,
2,300,Note_off_c,9,37,0,
2,300,Note_off_c,9,38,0,
2,300,Note_off_c,9,39,0,
2,300,Note_off_c,9,40,0,
2,300,Note_off_c,9,41,0,
2,300,Note_off_c,9,42,0,
2,300,Note_off_c,9,43,0,
2,300,Note_off_c,9,44,0,
2,300,Note_off_c,9,45,0,
2,300,Note_off_c,9,46,0,
2,300,Note_off_c,9,47,0,
2,300,Note_off_c,9,48,0,
2,300,Note_off_c,9,49,0,
2,300,Note_off_c,9,50,0,
2,300,Note_off_c,9,51,0,
2,300,Note_off_c,9,56,0,
2,300,Note_off_c,9,57,0,
2,300,Note_off_c,9,59,0,
2,300,Note_off_c,9,60,0,
2,300,Note_off_c,9,61,0,
2,300,Note_off_c,9,63,0,
2,300,Note_off_c,9,68,0,
2,300,Note_off_c,9,69,0,
2,300,Note_off_c,9,70,0,
2,300,Note_off_c,9,76,0,
2,300,Note_off_c,9,80,0,
2,300,Note_off_c,9,81,0,
2,300,Note_off_c,9,82,0,
2,300,Note_off_c,9,87,0,
2,300,Note_off_c,9,88,0,
2,300,Note_off_c,9,89,0,
2,300,Note_off_c,9,91,0,
2,300,Note_off_c,9,93,0,
2,330,Note_off_c,9,35,0,
2,330,Note_off_c,9,36,0,
2,330,Note_off_c,9,37,0,
2,330,Note_off_c,9,38,0,
2,330,Note_off_c,9,39,0,
2,330,Note_off_c,9,40,0,
2,330,Note_off_c,9,41,0,
2,330,Note_off_c,9,42,0,
2,330,Note_off_c,9,43,0,
2,330,Note_off_c,9,44,0,
2,330,Note_off_c,9,45,0,
2,330,Note_off_c,9,46,0,
2,330,Note_off_c,9,47,0,
2,330,Note_off_c,9,48,0,
2,330,Note_off_c,9,49,0,
2,330,Note_off_c,9,50,0,
2,330,Note_off_c,9,51,0,
2,330,Note_off_c,9,56,0,
2,330,Note_off_c,9,57,0,
2,330,Note_off_c,9,59,0,
2,330,Note_off_c,9,60,0,
2,330,Note_off_c,9,61,0,
2,330,Note_off_c,9,63,0,
2,330,Note_off_c,9,68,0,
2,330,Note_off_c,9,69,0,
2,330,Note_off_c,9,70,0,
2,330,Note_off_c,9,76,0,
2,330,Note_off_c,9,80,0,
2,330,Note_off_c,9,81,0,
2,330,Note_off_c,9,82,0,
2,330,Note_off_c,9,87,0,
2,330,Note_off_c,9,88,0,
2,330,Note_off_c,9,89,0,
2,330,Note_off_c,9,91,0,
2,330,Note_off_c,9,93,0,
2,360,Note_off_c,9,35,0,
2,360,Note_off_c,9,36,0,
2,360,Note_off_c,9,37,0,
2,360,Note_off_c,9,38,0,
2,360,Note_off_c,9,39,0,
2,360,Note_off_c,9,40,0,
2,360,Note_off_c,9,41,0,
2,360,Note_off_c,9,42,0,
2,360,Note_off_c,9,43,0,
2,360,Note_off_c,9,44,0,
2,360,Note_off_c,9,45,0,
2,360,Note_off_c,9,46,0,
2,360,Note_off_c,9,47,0,
2,360,Note_off_c,9,48,0,
2,360,Note_off_c,9,49,0,
2,360,Note_off_c,9,50,0,
2,360,Note_off_c,9,51,0,
2,360,Note_off_c,9,56,0,
2,360,Note_off_c,9,57,0,
2,360,Note_off_c,9,59,0,
2,360,Note_off_c,9,60,0,
2,360,Note_off_c,9,61,0,
2,360,Note_off_c,9,63,0,
2,360,Note_off_c,9,68,0,
2,360,Note_off_c,9,69,0,
2,360,Note_off_c,9,70,0,
2,360,Note_off_c,9,76,0,
2,360,Note_off_c,9,80,0,
2,360,Note_off_c,9,81,0,
2,360,Note_off_c,9,82,0,
2,360,Note_off_c,9,87,0,
2,360,Note_off_c,9,88,0,
2,360,Note_off_c,9,89,0,
2,360,Note_off_c,9,91,0,
2,360,Note_off_c,9,93,0,
2,390,Note_off_c,9,35,0,
2,390,Note_off_c,9,36,0,
2,390,Note_off_c,9,37,0,
2,390,Note_off_c,9,38,0,
2,390,Note_off_c,9,39,0,
2,390,Note_off_c,9,40,0,
2,390,Note_off_c,9,41,0,
2,390,Note_off_c,9,42,0,
2,390,Note_off_c,9,43,0,
2,390,Note_off_c,9,44,0,
2,390,Note_off_c,9,45,0,
2,390,Note_off_c,9,46,0,
2,390,Note_off_c,9,47,0,
2,390,Note_off_c,9,48,0,
2,390,Note_off_c,9,49,0,
2,390,Note_off_c,9,50,0,
2,390,Note_off_c,9,51,0,
2,390,Note_off_c,9,56,0,
2,390,Note_off_c,9,57,0,
2,390,Note_off_c,9,59,0,
2,390,Note_off_c,9,60,0,
2,390,Note_off_c,9,61,0,
2,390,Note_off_c,9,63,0,
2,390,Note_off_c,9,68,0,
2,390,Note_off_c,9,69,0,
2,390,Note_off_c,9,70,0,
2,390,Note_off_c,9,76,0,
2,390,Note_off_c,9,80,0,
2,390,Note_off_c,9,81,0,
2,390,Note_off_c,9,82,0,
2,390,Note_off_c,9,87,0,
2,390,Note_off_c,9,88,0,
2,390,Note_off_c,9,89,0,
2,390,Note_off_c,9,91,0,
2,390,Note_off_c,9,93,0,
2,420,Note_off_c,9,35,0,
2,420,Note_off_c,9,36,0,
2,420,Note_off_c,9,37,0,
2,420,Note_off_c,9,38,0,
2,420,Note_off_c,9,39,0,
2,420,Note_off_c,9,40,0,
2,420,Note_off_c,9,41,0,
2,420,Note_off_c,9,42,0,
2,420,Note_off_c,9,43,0,
2,420,Note_off_c,9,44,0,
2,420,Note_off_c,9,45,0,
2,420,Note_off_c,9,46,0,
2,420,Note_off_c,9,47,0,
2,420,Note_off_c,9,48,0,
2,420,Note_off_c,9,49,0,
2,420,Note_off_c,9,50,0,
2,420,Note_off_c,9,51,0,
2,420,Note_off_c,9,56,0,
2,420,Note_off_c,9,57,0,
2,420,Note_off_c,9,59,0,
2,420,Note_off_c,9,60,0,
2,420,Note_off_c,9,61,0,
2,420,Note_off_c,9,63,0,
2,420,Note_off_c,9,68,0,
2,420,Note_off_c,9,69,0,
2,420,Note_off_c,9,70,0,
2,420,Note_off_c,9,76,0,
2,420,Note_off_c,9,80,0,
2,420,Note_off_c,9,81,0,
2,420,Note_off_c,9,82,0,
2,420,Note_off_c,9,87,0,
2,420,Note_off_c,9,88,0,
2,420,Note_off_c,9,89,0,
2,420,Note_off_c,9,91,0,
2,420,Note_off_c,9,93,0,
2,450,Note_off_c,9,35,0,
2,450,Note_off_c,9,36,0,
2,450,Note_off_c,9,37,0,
2,450,Note_off_c,9,38,0,
2,450,Note_off_c,9,39,0,
2,450,Note_off_c,9,40,0,
2,450,Note_off_c,9,41,0,
2,450,Note_off_c,9,42,0,
2,450,Note_off_c,9,43,0,
2,450,Note_off_c,9,44,0,
2,450,Note_off_c,9,45,0,
2,450,Note_off_c,9,46,0,
2,450,Note_off_c,9,47,0,
2,450,Note_off_c,9,48,0,
2,450,Note_off_c,9,49,0,
2,450,Note_off_c,9,50,0,
2,450,Note_off_c,9,51,0,
2,450,Note_off_c,9,56,0,
2,450,Note_off_c,9,57,0,
2,450,Note_off_c,9,59,0,
2,450,Note_off_c,9,60,0,
2,450,Note_off_c,9,61,0,
2,450,Note_off_c,9,63,0,
2,450,Note_off_c,9,68,0,
2,450,Note_off_c,9,69,0,
2,450,Note_off_c,9,70,0,
2,450,Note_off_c,9,76,0,
2,450,Note_off_c,9,80,0,
2,450,Note_off_c,9,81,0,
2,450,Note_off_c,9,82,0,
2,450,Note_off_c,9,87,0,
2,450,Note_off_c,9,88,0,
2,450,Note_off_c,9,89,0,
2,450,Note_off_c,9,91,0,
2,450,Note_off_c,9,93,0,
2,480,Note_off_c,9,35,0,
2,480,Note_off_c,9,36,0,
2,480,Note_off_c,9,37,0,
2,480,Note_off_c,9,38,0,
2,480,Note_off_c,9,39,0,
2,480,Note_off_c,9,40,0,
2,480,Note_off_c,9,41,0,
2,480,Note_off_c,9,42,0,
2,480,Note_off_c,9,43,0,
2,480,Note_off_c,9,44,0,
2,480,Note_off_c,9,45,0,
2,480,Note_off_c,9,46,0,
2,480,Note_off_c,9,47,0,
2,480,Note_off_c,9,48,0,
2,480,Note_off_c,9,49,0,
2,480,Note_off_c,9,50,0,
2,480,Note_off_c,9,51,0,
2,480,Note_off_c,9,56,0,
2,480,Note_off_c,9,57,0,
2,480,Note_off_c,9,59,0,
2,480,Note_off_c,9,60,0,
2,480,Note_off_c,9,61,0,
2,480,Note_off_c,9,63,0,
2,480,Note_off_c,9,68,0,
2,480,Note_off_c,9,69,0,
2,480,Note_off_c,9,70,0,
2,480,Note_off_c,9,76,0,
2,480,Note_off_c,9,80,0,
2,480,Note_off_c,9,81,0,
2,480,Note_off_c,9,82,0,
2,480,Note_off_c,9,87,0,
2,480,Note_off_c,9,88,0,
2,480,Note_off_c,9,89,0,
2,480,Note_off_c,9,91,0,
2,480,Note_off_c,9,93,0,
2,510,Note_off_c,9,35,0,
2,510,Note_off_c,9,36,0,
2,510,Note_off_c,9,37,0,
2,510,Note_off_c,9,38,0,
2,510,Note_off_c,9,39,0,
2,510,Note_off_c,9,40,0,
2,510,Note_off_c,9,41,0,
2,510,Note_off_c,9,42,0,
2,510,Note_off_c,9,43,0,
2,510,Note_off_c,9,44,0,
2,510,Note_off_c,9,45,0,
2,510,Note_off_c,9,46,0,
2,510,Note_off_c,9,47,0,
2,510,Note_off_c,9,48,0,
2,510,Note_off_c,9,49,0,
2,510,Note_off_c,9,50,0,
2,510,Note_off_c,9,51,0,
2,510,Note_off_c,9,56,0,
2,510,Note_off_c,9,57,0,
2,510,Note_off_c,9,59,0,
2,510,Note_off_c,9,60,0,
2,510,Note_off_c,9,61,0,
2,510,Note_off_c,9,63,0,
2,510,Note_off_c,9,68,0,
2,510,Note_off_c,9,69,0,
2,510,Note_off_c,9,70,0,
2,510,Note_off_c,9,76,0,
2,510,Note_off_c,9,80,0,
2,510,Note_off_c,9,81,0,
2,510,Note_off_c,9,82,0,
2,510,Note_off_c,9,87,0,
2,510,Note_off_c,9,88,0,
2,510,Note_off_c,9,89,0,
2,510,Note_off_c,9,91,0,
2,510,Note_off_c,9,93,0,
2,540,Note_off_c,9,35,0,
2,540,Note_off_c,9,36,0,
2,540,Note_off_c,9,37,0,
2,540,Note_off_c,9,38,0,
2,540,Note_off_c,9,39,0,
2,540,Note_off_c,9,40,0,
2,540,Note_off_c,9,41,0,
2,540,Note_off_c,9,42,0,
2,540,Note_off_c,9,43,0,
2,540,Note_off_c,9,44,0,
2,540,Note_off_c,9,45,0,
2,540,Note_off_c,9,46,0,
2,540,Note_off_c,9,47,0,
2,540,Note_off_c,9,48,0,
2,540,Note_off_c,9,49,0,
2,540,Note_off_c,9,50,0,
2,540,Note_off_c,9,51,0,
2,540,Note_off_c,9,56,0,
2,540,Note_off_c,9,57,0,
2,540,Note_off_c,9,59,0,
2,540,Note_off_c,9,60,0,
2,540,Note_off_c,9,61,0,
2,540,Note_off_c,9,63,0,
2,540,Note_off_c,9,68,0,
2,540,Note_off_c,9,69,0,
2,540,Note_off_c,9,70,0,
2,540,Note_off_c,9,76,0,
2,540,Note_off_c,9,80,0,
2,540,Note_off_c,9,81,0,
2,540,Note_off_c,9,82,0,
2,540,Note_off_c,9,87,0,
2,540,Note_off_c,9,88,0,
2,540,Note_off_c,9,89,0,
2,540,Note_off_c,9,91,0,
2,540,Note_off_c,9,93,0,
2,570,Note_off_c,9,35,0,
2,570,Note_off_c,9,36,0,
2,570,Note_off_c,9,37,0,
2,570,Note_off_c,9,38,0,
2,570,Note_off_c,9,39,0,
2,570,Note_off_c,9,40,0,
2,570,Note_off_c,9,41,0,
2,570,Note_off_c,9,42,0,
2,570,Note_off_c,9,43,0,
2,570,Note_off_c,9,44,0,
2,570,Note_off_c,9,45,0,
2,570,Note_off_c,9,46,0,
2,570,Note_off_c,9,47,0,
2,570,Note_off_c,9,48,0,
2,570,Note_off_c,9,49,0,
2,570,Note_off_c,9,50,0,
2,570,Note_off_c,9,51,0,
2,570,Note_off_c,9,56,0,
2,570,Note_off_c,9,57,0,
2,570,Note_off_c,9,59,0,
2,570,Note_off_c,9,60,0,
2,570,Note_off_c,9,61,0,
2,570,Note_off_c,9,63,0,
2,570,Note_off_c,9,68,0,
2,570,Note_off_c,9,69,0,
2,570,Note_off_c,9,70,0,
2,570,Note_off_c,9,76,0,
2,570,Note_off_c,9,80,0,
2,570,Note_off_c,9,81,0,
2,570,Note_off_c,9,82,0,
2,570,Note_off_c,9,87,0,
2,570,Note_off_c,9,88,0,
2,570,Note_off_c,9,89,0,
2,570,Note_off_c,9,91,0,
2,570,Note_off_c,9,93,0,
2,600,Note_off_c,9,35,0,
2,600,Note_off_c,9,36,0,
2,600,Note_off_c,9,37,0,
2,600,Note_off_c,9,38,0,
2,600,Note_off_c,9,39,0,
2,600,Note_off_c,9,40,0,
2,600,Note_off_c,9,41,0,
2,600,Note_off_c,9,42,0,
2,600,Note_off_c,9,43,0,
2,600,Note_off_c,9,44,0,
2,600,Note_off_c,9,45,0,
2,600,Note_off_c,9,46,0,
2,600,Note_off_c,9,47,0,
2,600,Note_off_c,9,48,0,
2,600,Note_off_c,9,49,0,
2,600,Note_off_c,9,50,0,
2,600,Note_off_c,9,51,0,
2,600,Note_off_c,9,56,0,
2,600,Note_off_c,9,57,0,
2,600,Note_off_c,9,59,0,
2,600,Note_off_c,9,60,0,
2,600,Note_off_c,9,61,0,
2,600,Note_off_c,9,63,0,
2,600,Note_off_c,9,68,0,
2,600,Note_off_c,9,69,0,
2,600,Note_off_c,9,70,0,
2,600,Note_off_c,9,76,0,
2,600,Note_off_c,9,80,0,
2,600,Note_off_c,9,81,0,
2,600,Note_off_c,9,82,0,
2,600,Note_off_c,9,87,0,
2,600,Note_off_c,9,88,0,
2,600,Note_off_c,9,89,0,
2,600,Note_off_c,9,91,0,
2,600,Note_off_c,9,93,0,
2,630,Note_off_c,9,35,0,
2,630,Note_off_c,9,36,0,
2,630,Note_off_c,9,37,0,
2,630,Note_off_c,9,38,0,
2,630,Note_off_c,9,39,0,
2,630,Note_off_c,9,40,0,
2,630,Note_off_c,9,41,0,
2,630,Note_off_c,9,42,0,
2,630,Note_off_c,9,43,0,
2,630,Note_off_c,9,44,0,
2,630,Note_off_c,9,45,0,
2,630,Note_off_c,9,46,0,
2,630,Note_off_c,9,47,0,
2,630,Note_off_c,9,48,0,
2,630,Note_off_c,9,49,0,
2,630,Note_off_c,9,50,0,
2,630,Note_off_c,9,51,0,
2,630,Note_off_c,9,56,0,
2,630,Note_off_c,9,57,0,
2,630,Note_off_c,9,59,0,
2,630,Note_off_c,9,60,0,
2,630,Note_off_c,9,61,0,
2,630,Note_off_c,9,63,0,
2,630,Note_off_c,9,68,0,
2,630,Note_off_c,9,69,0,
2,630,Note_off_c,9,70,0,
2,630,Note_off_c,9,76,0,
2,630,Note_off_c,9,80,0,
2,630,Note_off_c,9,81,0,
2,630,Note_off_c,9,82,0,
2,630,Note_off_c,9,87,0,
2,630,Note_off_c,9,88,0,
2,630,Note_off_c,9,89,0,
2,630,Note_off_c,9,91,0,
2,630,Note_off_c,9,93,0,
2,660,Note_off_c,9,35,0,
2,660,Note_off_c,9,36,0,
2,660,Note_off_c,9,37,0,
2,660,Note_off_c,9,38,0,
2,660,Note_off_c,9,39,0,
2,660,Note_off_c,9,40,0,
2,660,Note_off_c,9,41,0,
2,660,Note_off_c,9,42,0,
2,660,Note_off_c,9,43,0,
2,660,Note_off_c,9,44,0,
2,660,Note_off_c,9,45,0,
2,660,Note_off_c,9,46,0,
2,660,Note_off_c,9,47,0,
2,660,Note_off_c,9,48,0,
2,660,Note_off_c,9,49,0,
2,660,Note_off_c,9,50,0,
2,660,Note_off_c,9,51,0,
2,660,Note_off_c,9,56,0,
2,660,Note_off_c,9,57,0,
2,660,Note_off_c,9,59,0,
2,660,Note_off_c,9,60,0,
2,660,Note_off_c,9,61,0,
2,660,Note_off_c,9,63,0,
2,660,Note_off_c,9,68,0,
2,660,Note_off_c,9,69,0,
2,660,Note_off_c,9,70,0,
2,660,Note_off_c,9,76,0,
2,660,Note_off_c,9,80,0,
2,660,Note_off_c,9,81,0,
2,660,Note_off_c,9,82,0,
2,660,Note_off_c,9,87,0,
2,660,Note_off_c,9,88,0,
2,660,Note_off_c,9,89,0,
2,660,Note_off_c,9,91,0,
2,660,Note_off_c,9,93,0,
2,690,Note_off_c,9,35,0,
2,690,Note_off_c,9,36,0,
2,690,Note_off_c,9,37,0,
2,690,Note_off_c,9,38,0,
2,690,Note_off_c,9,39,0,
2,690,Note_off_c,9,40,0,
2,690,Note_off_c,9,41,0,
2,690,Note_off_c,9,42,0,
2,690,Note_off_c,9,43,0,
2,690,Note_off_c,9,44,0,
2,690,Note_off_c,9,45,0,
2,690,Note_off_c,9,46,0,
2,690,Note_off_c,9,47,0,
2,690,Note_off_c,9,48,0,
2,690,Note_off_c,9,49,0,
2,690,Note_off_c,9,50,0,
2,690,Note_off_c,9,51,0,
2,690,Note_off_c,9,56,0,
2,690,Note_off_c,9,57,0,
2,690,Note_off_c,9,59,0,
2,690,Note_off_c,9,60,0,
2,690,Note_off_c,9,61,0,
2,690,Note_off_c,9,63,0,
2,690,Note_off_c,9,68,0,
2,690,Note_off_c,9,69,0,
2,690,Note_off_c,9,70,0,
2,690,Note_off_c,9,76,0,
2,690,Note_off_c,9,80,0,
2,690,Note_off_c,9,81,0,
2,690,Note_off_c,9,82,0,
2,690,Note_off_c,9,87,0,
2,690,Note_off_c,9,88,0,
2,690,Note_off_c,9,89,0,
2,690,Note_off_c,9,91,0,
2,690,Note_off_c,9,93,0,
2,720,Note_off_c,9,35,0,
2,720,Note_off_c,9,36,0,
2,720,Note_off_c,9,37,0,
2,720,Note_off_c,9,38,0,
2,720,Note_off_c,9,39,0,
2,720,Note_off_c,9,40,0,
2,720,Note_off_c,9,41,0,
2,720,Note_off_c,9,42,0,
2,720,Note_off_c,9,43,0,
2,720,Note_off_c,9,44,0,
2,720,Note_off_c,9,45,0,
2,720,Note_off_c,9,46,0,
2,720,Note_off_c,9,47,0,
2,720,Note_off_c,9,48,0,
2,720,Note_off_c,9,49,0,
2,720,Note_off_c,9,50,0,
2,720,Note_off_c,9,51,0,
2,720,Note_off_c,9,56,0,
2,720,Note_off_c,9,57,0,
2,720,Note_off_c,9,59,0,
2,720,Note_off_c,9,60,0,
2,720,Note_off_c,9,61,0,
2,720,Note_off_c,9,63,0,
2,720,Note_off_c,9,68,0,
2,720,Note_off_c,9,69,0,
2,720,Note_off_c,9,70,0,
2,720,Note_off_c,9,76,0,
2,720,Note_off_c,9,80,0,
2,720,Note_off_c,9,81,0,
2,720,Note_off_c,9,82,0,
2,720,Note_off_c,9,87,0,
2,720,Note_off_c,9,88,0,
2,720,Note_off_c,9,89,0,
2,720,Note_off_c,9,91,0,
2,720,Note_off_c,9,93,0,
2,750,Note_off_c,9,35,0,
2,750,Note_off_c,9,36,0,
2,750,Note_off_c,9,37,0,
2,750,Note_off_c,9,38,0,
2,750,Note_off_c,9,39,0,
2,750,Note_off_c,9,40,0,
2,750,Note_off_c,9,41,0,
2,750,Note_off_c,9,42,0,
2,750,Note_off_c,9,43,0,
2,750,Note_off_c,9,44,0,
2,750,Note_off_c,9,45,0,
2,750,Note_off_c,9,46,0,
2,750,Note_off_c,9,47,0,
2,750,Note_off_c,9,48,0,
2,750,Note_off_c,9,49,0,
2,750,Note_off_c,9,50,0,
2,750,Note_off_c,9,51,0,
2,750,Note_off_c,9,56,0,
2,750,Note_off_c,9,57,0,
2,750,Note_off_c,9,59,0,
2,750,Note_off_c,9,60,0,
2,750,Note_off_c,9,61,0,
2,750,Note_off_c,9,63,0,
2,750,Note_off_c,9,68,0,
2,750,Note_off_c,9,69,0,
2,750,Note_off_c,9,70,0,
2,750,Note_off_c,9,76,0,
2,750,Note_off_c,9,80,0,
2,750,Note_off_c,9,81,0,
2,750,Note_off_c,9,82,0,
2,750,Note_off_c,9,87,0,
2,750,Note_off_c,9,88,0,
2,750,Note_off_c,9,89,0,
2,750,Note_off_c,9,91,0,
2,750,Note_off_c,9,93,0,
2,780,Note_off_c,9,35,0,
2,780,Note_off_c,9,36,0,
2,780,Note_off_c,9,37,0,
2,780,Note_off_c,9,38,0,
2,780,Note_off_c,9,39,0,
2,780,Note_off_c,9,40,0,
2,780,Note_off_c,9,41,0,
2,780,Note_off_c,9,42,0,
2,780,Note_off_c,9,43,0,
2,780,Note_off_c,9,44,0,
2,780,Note_off_c,9,45,0,
2,780,Note_off_c,9,46,0,
2,780,Note_off_c,9,47,0,
2,780,Note_off_c,9,48,0,
2,780,Note_off_c,9,49,0,
2,780,Note_off_c,9,50,0,
2,780,Note_off_c,9,51,0,
2,780,Note_off_c,9,56,0,
2,780,Note_off_c,9,57,0,
2,780,Note_off_c,9,59,0,
2,780,Note_off_c,9,60,0,
2,780,Note_off_c,9,61,0,
2,780,Note_off_c,9,63,0,
2,780,Note_off_c,9,68,0,
2,780,Note_off_c,9,69,0,
2,780,Note_off_c,9,70,0,
2,780,Note_off_c,9,76,0,
2,780,Note_off_c,9,80,0,
2,780,Note_off_c,9,81,0,
2,780,Note_off_c,9,82,0,
2,780,Note_off_c,9,87,0,
2,780,Note_off_c,9,88,0,
2,780,Note_off_c,9,89,0,
2,780,Note_off_c,9,91,0,
2,780,Note_off_c,9,93,0,
2,810,Note_off_c,9,35,0,
2,810,Note_off_c,9,36,0,
2,810,Note_off_c,9,37,0,
2,810,Note_off_c,9,38,0,
2,810,Note_off_c,9,39,0,
2,810,Note_off_c,9,40,0,
2,810,Note_off_c,9,41,0,
2,810,Note_off_c,9,42,0,
2,810,Note_off_c,9,43,0,
2,810,Note_off_c,9,44,0,
2,810,Note_off_c,9,45,0,
2,810,Note_off_c,9,46,0,
2,810,Note_off_c,9,47,0,
2,810,Note_off_c,9,48,0,
2,810,Note_off_c,9,49,0,
2,810,Note_off_c,9,50,0,
2,810,Note_off_c,9,51,0,
2,810,Note_off_c,9,56,0,
2,810,Note_off_c,9,57,0,
2,810,Note_off_c,9,59,0,
2,810,Note_off_c,9,60,0,
2,810,Note_off_c,9,61,0,
2,810,Note_off_c,9,63,0,
2,810,Note_off_c,9,68,0,
2,810,Note_off_c,9,69,0,
2,810,Note_off_c,9,70,0,
2,810,Note_off_c,9,76,0,
2,810,Note_off_c,9,80,0,
2,810,Note_off_c,9,81,0,
2,810,Note_off_c,9,82,0,
2,810,Note_off_c,9,87,0,
2,810,Note_off_c,9,88,0,
2,810,Note_off_c,9,89,0,
2,810,Note_off_c,9,91,0,
2,810,Note_off_c,9,93,0,
2,840,Note_off_c,9,35,0,
2,840,Note_off_c,9,36,0,
2,840,Note_off_c,9,37,0,
2,840,Note_off_c,9,38,0,
2,840,Note_off_c,9,39,0,
2,840,Note_off_c,9,40,0,
2,840,Note_off_c,9,41,0,
2,840,Note_off_c,9,42,0,
2,840,Note_off_c,9,43,0,
2,840,Note_off_c,9,44,0,
2,840,Note_off_c,9,45,0,
2,840,Note_off_c,9,46,0,
2,840,Note_off_c,9,47,0,
2,840,Note_off_c,9,48,0,
2,840,Note_off_c,9,49,0,
2,840,Note_off_c,9,50,0,
2,840,Note_off_c,9,51,0,
2,840,Note_off_c,9,56,0,
2,840,Note_off_c,9,57,0,
2,840,Note_off_c,9,59,0,
2,840,Note_off_c,9,60,0,
2,840,Note_off_c,9,61,0,
2,840,Note_off_c,9,63,0,
2,840,Note_off_c,9,68,0,
2,840,Note_off_c,9,69,0,
2,840,Note_off_c,9,70,0,
2,840,Note_off_c,9,76,0,
2,840,Note_off_c,9,80,0,
2,840,Note_off_c,9,81,0,
2,840,Note_off_c,9,82,0,
2,840,Note_off_c,9,87,0,
2,840,Note_off_c,9,88,0,
2,840,Note_off_c,9,89,0,
2,840,Note_off_c,9,91,0,
2,840,Note_off_c,9,93,0,
2,870,Note_off_c,9,35,0,
2,870,Note_off_c,9,36,0,
2,870,Note_off_c,9,37,0,
2,870,Note_off_c,9,38,0,
2,870,Note_off_c,9,39,0,
2,870,Note_off_c,9,40,0,
2,870,Note_off_c,9,41,0,
2,870,Note_off_c,9,42,0,
2,870,Note_off_c,9,43,0,
2,870,Note_off_c,9,44,0,
2,870,Note_off_c,9,45,0,
2,870,Note_off_c,9,46,0,
2,870,Note_off_c,9,47,0,
2,870,Note_off_c,9,48,0,
2,870,Note_off_c,9,49,0,
2,870,Note_off_c,9,50,0,
2,870,Note_off_c,9,51,0,
2,870,Note_off_c,9,56,0,
2,870,Note_off_c,9,57,0,
2,870,Note_off_c,9,59,0,
2,870,Note_off_c,9,60,0,
2,870,Note_off_c,9,61,0,
2,870,Note_off_c,9,63,0,
2,870,Note_off_c,9,68,0,
2,870,Note_off_c,9,69,0,
2,870,Note_off_c,9,70,0,
2,870,Note_off_c,9,76,0,
2,870,Note_off_c,9,80,0,
2,870,Note_off_c,9,81,0,
2,870,Note_off_c,9,82,0,
2,870,Note_off_c,9,87,0,
2,870,Note_off_c,9,88,0,
2,870,Note_off_c,9,89,0,
2,870,Note_off_c,9,91,0,
2,870,Note_off_c,9,93,0,
2,900,Note_off_c,9,35,0,
2,900,Note_off_c,9,36,0,
2,900,Note_off_c,9,37,0,
2,900,Note_off_c,9,38,0,
2,900,Note_off_c,9,39,0,
2,900,Note_off_c,9,40,0,
2,900,Note_off_c,9,41,0,
2,900,Note_off_c,9,42,0,
2,900,Note_off_c,9,43,0,
2,900,Note_off_c,9,44,0,
2,900,Note_off_c,9,45,0,
2,900,Note_off_c,9,46,0,
2,900,Note_off_c,9,47,0,
2,900,Note_off_c,9,48,0,
2,900,Note_off_c,9,49,0,
2,900,Note_off_c,9,50,0,
2,900,Note_off_c,9,51,0,
2,900,Note_off_c,9,56,0,
2,900,Note_off_c,9,57,0,
2,900,Note_off_c,9,59,0,
2,900,Note_off_c,9,60,0,
2,900,Note_off_c,9,61,0,
2,900,Note_off_c,9,63,0,
2,900,Note_off_c,9,68,0,
2,900,Note_off_c,9,69,0,
2,900,Note_off_c,9,70,0,
2,900,Note_off_c,9,76,0,
2,900,Note_off_c,9,80,0,
2,900,Note_off_c,9,81,0,
2,900,Note_off_c,9,82,0,
2,900,Note_off_c,9,87,0,
2,900,Note_off_c,9,88,0,
2,900,Note_off_c,9,89,0,
2,900,Note_off_c,9,91,0,
2,900,Note_off_c,9,93,0,
2,930,Note_off_c,9,35,0,
2,930,Note_off_c,9,36,0,
2,930,Note_off_c,9,37,0,
2,930,Note_off_c,9,38,0,
2,930,Note_off_c,9,39,0,
2,930,Note_off_c,9,40,0,
2,930,Note_off_c,9,41,0,
2,930,Note_off_c,9,42,0,
2,930,Note_off_c,9,43,0,
2,930,Note_off_c,9,44,0,
2,930,Note_off_c,9,45,0,
2,930,Note_off_c,9,46,0,
2,930,Note_off_c,9,47,0,
2,930,Note_off_c,9,48,0,
2,930,Note_off_c,9,49,0,
2,930,Note_off_c,9,50,0,
2,930,Note_off_c,9,51,0,
2,930,Note_off_c,9,56,0,
2,930,Note_off_c,9,57,0,
2,930,Note_off_c,9,59,0,
2,930,Note_off_c,9,60,0,
2,930,Note_off_c,9,61,0,
2,930,Note_off_c,9,63,0,
2,930,Note_off_c,9,68,0,
2,930,Note_off_c,9,69,0,
2,930,Note_off_c,9,70,0,
2,930,Note_off_c,9,76,0,
2,930,Note_off_c,9,80,0,
2,930,Note_off_c,9,81,0,
2,930,Note_off_c,9,82,0,
2,930,Note_off_c,9,87,0,
2,930,Note_off_c,9,88,0,
2,930,Note_off_c,9,89,0,
2,930,Note_off_c,9,91,0,
2,930,Note_off_c,9,93,0,
2,960,Note_off_c,9,35,0,
2,960,Note_off_c,9,36,0,
2,960,Note_off_c,9,37,0,
2,960,Note_off_c,9,38,0,
2,960,Note_off_c,9,39,0,
2,960,Note_off_c,9,40,0,
2,960,Note_off_c,9,41,0,
2,960,Note_off_c,9,42,0,
2,960,Note_off_c,9,43,0,
2,960,Note_off_c,9,44,0,
2,960,Note_off_c,9,45,0,
2,960,Note_off_c,9,46,0,
2,960,Note_off_c,9,47,0,
2,960,Note_off_c,9,48,0,
2,960,Note_off_c,9,49,0,
2,960,Note_off_c,9,50,0,
2,960,Note_off_c,9,51,0,
2,960,Note_off_c,9,56,0,
2,960,Note_off_c,9,57,0,
2,960,Note_off_c,9,59,0,
2,960,Note_off_c,9,60,0,
2,960,Note_off_c,9,61,0,
2,960,Note_off_c,9,63,0,
2,960,Note_off_c,9,68,0,
2,960,Note_off_c,9,69,0,
2,960,Note_off_c,9,70,0,
2,960,Note_off_c,9,76,0,
2,960,Note_off_c,9,80,0,
2,960,Note_off_c,9,81,0,
2,960,Note_off_c,9,82,0,
2,960,Note_off_c,9,87,0,
2,960,Note_off_c,9,88,0,
2,960,Note_off_c,9,89,0,
2,960,Note_off_c,9,91,0,
2,960,Note_off_c,9,93,0,
2,990,Note_off_c,9,35,0,
2,990,Note_off_c,9,36,0,
2,990,Note_off_c,9,37,0,
2,990,Note_off_c,9,38,0,
2,990,Note_off_c,9,39,0,
2,990,Note_off_c,9,40,0,
2,990,Note_off_c,9,41,0,
2,990,Note_off_c,9,42,0,
2,990,Note_off_c,9,43,0,
2,990,Note_off_c,9,44,0,
2,990,Note_off_c,9,45,0,
2,990,Note_off_c,9,46,0,
2,990,Note_off_c,9,47,0,
2,990,Note_off_c,9,48,0,
2,990,Note_off_c,9,49,0,
2,990,Note_off_c,9,50,0,
2,990,Note_off_c,9,51,0,
2,990,Note_off_c,9,56,0,
2,990,Note_off_c,9,57,0,
2,990,Note_off_c,9,59,0,
2,990,Note_off_c,9,60,0,
2,990,Note_off_c,9,61,0,
2,990,Note_off_c,9,63,0,
2,990,Note_off_c,9,68,0,
2,990,Note_off_c,9,69,0,
2,990,Note_off_c,9,70,0,
2,990,Note_off_c,9,76,0,
2,990,Note_off_c,9,80,0,
2,990,Note_off_c,9,81,0,
2,990,Note_off_c,9,82,0,
2,990,Note_off_c,9,87,0,
2,990,Note_off_c,9,88,0,
2,990,Note_off_c,9,89,0,
2,990,Note_off_c,9,91,0,
2,990,Note_off_c,9,93,0,
2,1020,Note_off_c,9,35,0,
2,1020,Note_off_c,9,36,0,
2,1020,Note_off_c,9,37,0,
2,1020,Note_off_c,9,38,0,
2,1020,Note_off_c,9,39,0,
2,1020,Note_off_c,9,40,0,
2,1020,Note_off_c,9,41,0,
2,1020,Note_off_c,9,42,0,
2,1020,Note_off_c,9,43,0,
2,1020,Note_off_c,9,44,0,
2,1020,Note_off_c,9,45,0,
2,1020,Note_off_c,9,46,0,
2,1020,Note_off_c,9,47,0,
2,1020,Note_off_c,9,48,0,
2,1020,Note_off_c,9,49,0,
2,1020,Note_off_c,9,50,0,
2,1020,Note_off_c,9,51,0,
2,1020,Note_off_c,9,56,0,
2,1020,Note_off_c,9,57,0,
2,1020,Note_off_c,9,59,0,
2,1020,Note_off_c,9,60,0,
2,1020,Note_off_c,9,61,0,
2,1020,Note_off_c,9,63,0,
2,1020,Note_off_c,9,68,0,
2,1020,Note_off_c,9,69,0,
2,1020,Note_off_c,9,70,0,
2,1020,Note_off_c,9,76,0,
2,1020,Note_off_c,9,80,0,
2,1020,Note_off_c,9,81,0,
2,1020,Note_off_c,9,82,0,
2,1020,Note_off_c,9,87,0,
2,1020,Note_off_c,9,88,0,
2,1020,Note_off_c,9,89,0,
2,1020,Note_off_c,9,91,0,
2,1020,Note_off_c,9,93,0,
2,1050,Note_off_c,9,35,0,
2,1050,Note_off_c,9,36,0,
2,1050,Note_off_c,9,37,0,
2,1050,Note_off_c,9,38,0,
2,1050,Note_off_c,9,39,0,
2,1050,Note_off_c,9,40,0,
2,1050,Note_off_c,9,41,0,
2,1050,Note_off_c,9,42,0,
2,1050,Note_off_c,9,43,0,
2,1050,Note_off_c,9,44,0,
2,1050,Note_off_c,9,45,0,
2,1050,Note_off_c,9,46,0,
2,1050,Note_off_c,9,47,0,
2,1050,Note_off_c,9,48,0,
2,1050,Note_off_c,9,49,0,
2,1050,Note_off_c,9,50,0,
2,1050,Note_off_c,9,51,0,
2,1050,Note_off_c,9,56,0,
2,1050,Note_off_c,9,57,0,
2,1050,Note_off_c,9,59,0,
2,1050,Note_off_c,9,60,0,
2,1050,Note_off_c,9,61,0,
2,1050,Note_off_c,9,63,0,
2,1050,Note_off_c,9,68,0,
2,1050,Note_off_c,9,69,0,
2,1050,Note_off_c,9,70,0,
2,1050,Note_off_c,9,76,0,
2,1050,Note_off_c,9,80,0,
2,1050,Note_off_c,9,81,0,
2,1050,Note_off_c,9,82,0,
2,1050,Note_off_c,9,87,0,
2,1050,Note_off_c,9,88,0,
2,1050,Note_off_c,9,89,0,
2,1050,Note_off_c,9,91,0,
2,1050,Note_off_c,9,93,0,
2,1080,Note_off_c,9,35,0,
2,1080,Note_off_c,9,36,0,
2,1080,Note_off_c,9,37,0,
2,1080,Note_off_c,9,38,0,
2,1080,Note_off_c,9,39,0,
2,1080,Note_off_c,9,40,0,
2,1080,Note_off_c,9,41,0,
2,1080,Note_off_c,9,42,0,
2,1080,Note_off_c,9,43,0,
2,1080,Note_off_c,9,44,0,
2,1080,Note_off_c,9,45,0,
2,1080,Note_off_c,9,46,0,
2,1080,Note_off_c,9,47,0,
2,1080,Note_off_c,9,48,0,
2,1080,Note_off_c,9,49,0,
2,1080,Note_off_c,9,50,0,
2,1080,Note_off_c,9,51,0,
2,1080,Note_off_c,9,56,0,
2,1080,Note_off_c,9,57,0,
2,1080,Note_off_c,9,59,0,
2,1080,Note_off_c,9,60,0,
2,1080,Note_off_c,9,61,0,
2,1080,Note_off_c,9,63,0,
2,1080,Note_off_c,9,68,0,
2,1080,Note_off_c,9,69,0,
2,1080,Note_off_c,9,70,0,
2,1080,Note_off_c,9,76,0,
2,1080,Note_off_c,9,80,0,
2,1080,Note_off_c,9,81,0,
2,1080,Note_off_c,9,82,0,
2,1080,Note_off_c,9,87,0,
2,1080,Note_off_c,9,88,0,
2,1080,Note_off_c,9,89,0,
2,1080,Note_off_c,9,91,0,
2,1080,Note_off_c,9,93,0,
2,1110,Note_off_c,9,35,0,
2,1110,Note_off_c,9,36,0,
2,1110,Note_off_c,9,37,0,
2,1110,Note_off_c,9,38,0,
2,1110,Note_off_c,9,39,0,
2,1110,Note_off_c,9,40,0,
2,1110,Note_off_c,9,41,0,
2,1110,Note_off_c,9,42,0,
2,1110,Note_off_c,9,43,0,
2,1110,Note_off_c,9,44,0,
2,1110,Note_off_c,9,45,0,
2,1110,Note_off_c,9,46,0,
2,1110,Note_off_c,9,47,0,
2,1110,Note_off_c,9,48,0,
2,1110,Note_off_c,9,49,0,
2,1110,Note_off_c,9,50,0,
2,1110,Note_off_c,9,51,0,
2,1110,Note_off_c,9,56,0,
2,1110,Note_off_c,9,57,0,
2,1110,Note_off_c,9,59,0,
2,1110,Note_off_c,9,60,0,
2,1110,Note_off_c,9,61,0,
2,1110,Note_off_c,9,63,0,
2,1110,Note_off_c,9,68,0,
2,1110,Note_off_c,9,69,0,
2,1110,Note_off_c,9,70,0,
2,1110,Note_off_c,9,76,0,
2,1110,Note_off_c,9,80,0,
2,1110,Note_off_c,9,81,0,
2,1110,Note_off_c,9,82,0,
2,1110,Note_off_c,9,87,0,
2,1110,Note_off_c,9,88,0,
2,1110,Note_off_c,9,89,0,
2,1110,Note_off_c,9,91,0,
2,1110,Note_off_c,9,93,0,
2,1140,Note_off_c,9,35,0,
2,1140,Note_off_c,9,36,0,
2,1140,Note_off_c,9,37,0,
2,1140,Note_off_c,9,38,0,
2,1140,Note_off_c,9,39,0,
2,1140,Note_off_c,9,40,0,
2,1140,Note_off_c,9,41,0,
2,1140,Note_off_c,9,42,0,
2,1140,Note_off_c,9,43,0,
2,1140,Note_off_c,9,44,0,
2,1140,Note_off_c,9,45,0,
2,1140,Note_off_c,9,46,0,
2,1140,Note_off_c,9,47,0,
2,1140,Note_off_c,9,48,0,
2,1140,Note_off_c,9,49,0,
2,1140,Note_off_c,9,50,0,
2,1140,Note_off_c,9,51,0,
2,1140,Note_off_c,9,56,0,
2,1140,Note_off_c,9,57,0,
2,1140,Note_off_c,9,59,0,
2,1140,Note_off_c,9,60,0,
2,1140,Note_off_c,9,61,0,
2,1140,Note_off_c,9,63,0,
2,1140,Note_off_c,9,68,0,
2,1140,Note_off_c,9,69,0,
2,1140,Note_off_c,9,70,0,
2,1140,Note_off_c,9,76,0,
2,1140,Note_off_c,9,80,0,
2,1140,Note_off_c,9,81,0,
2,1140,Note_off_c,9,82,0,
2,1140,Note_off_c,9,87,0,
2,1140,Note_off_c,9,88,0,
2,1140,Note_off_c,9,89,0,
2,1140,Note_off_c,9,91,0,
2,1140,Note_off_c,9,93,0,
2,1170,Note_off_c,9,35,0,
2,1170,Note_off_c,9,36,0,
2,1170,Note_off_c,9,37,0,
2,1170,Note_off_c,9,38,0,
2,1170,Note_off_c,9,39,0,
2,1170,Note_off_c,9,40,0,
2,1170,Note_off_c,9,41,0,
2,1170,Note_off_c,9,42,0,
2,1170,Note_off_c,9,43,0,
2,1170,Note_off_c,9,44,0,
2,1170,Note_off_c,9,45,0,
2,1170,Note_off_c,9,46,0,
2,1170,Note_off_c,9,47,0,
2,1170,Note_off_c,9,48,0,
2,1170,Note_off_c,9,49,0,
2,1170,Note_off_c,9,50,0,
2,1170,Note_off_c,9,51,0,
2,1170,Note_off_c,9,56,0,
2,1170,Note_off_c,9,57,0,
2,1170,Note_off_c,9,59,0,
2,1170,Note_off_c,9,60,0,
2,1170,Note_off_c,9,61,0,
2,1170,Note_off_c,9,63,0,
2,1170,Note_off_c,9,68,0,
2,1170,Note_off_c,9,69,0,
2,1170,Note_off_c,9,70,0,
2,1170,Note_off_c,9,76,0,
2,1170,Note_off_c,9,80,0,
2,1170,Note_off_c,9,81,0,
2,1170,Note_off_c,9,82,0,
2,1170,Note_off_c,9,87,0,
2,1170,Note_off_c,9,88,0,
2,1170,Note_off_c,9,89,0,
2,1170,Note_off_c,9,91,0,
2,1170,Note_off_c,9,93,0,
2,1200,Note_off_c,9,35,0,
2,1200,Note_off_c,9,36,0,
2,1200,Note_off_c,9,37,0,
2,1200,Note_off_c,9,38,0,
2,1200,Note_off_c,9,39,0,
2,1200,Note_off_c,9,40,0,
2,1200,Note_off_c,9,41,0,
2,1200,Note_off_c,9,42,0,
2,1200,Note_off_c,9,43,0,
2,1200,Note_off_c,9,44,0,
2,1200,Note_off_c,9,45,0,
2,1200,Note_off_c,9,46,0,
2,1200,Note_off_c,9,47,0,
2,1200,Note_off_c,9,48,0,
2,1200,Note_off_c,9,49,0,
2,1200,Note_off_c,9,50,0,
2,1200,Note_off_c,9,51,0,
2,1200,Note_off_c,9,56,0,
2,1200,Note_off_c,9,57,0,
2,1200,Note_off_c,9,59,0,
2,1200,Note_off_c,9,60,0,
2,1200,Note_off_c,9,61,0,
2,1200,Note_off_c,9,63,0,
2,1200,Note_off_c,9,68,0,
2,1200,Note_off_c,9,69,0,
2,1200,Note_off_c,9,70,0,
2,1200,Note_off_c,9,76,0,
2,1200,Note_off_c,9,80,0,
2,1200,Note_off_c,9,81,0,
2,1200,Note_off_c,9,82,0,
2,1200,Note_off_c,9,87,0,
2,1200,Note_off_c,9,88,0,
2,1200,Note_off_c,9,89,0,
2,1200,Note_off_c,9,91,0,
2,1200,Note_off_c,9,93,0,
2,1230,Note_off_c,9,35,0,
2,1230,Note_off_c,9,36,0,
2,1230,Note_off_c,9,37,0,
2,1230,Note_off_c,9,38,0,
2,1230,Note_off_c,9,39,0,
2,1230,Note_off_c,9,40,0,
2,1230,Note_off_c,9,41,0,
2,1230,Note_off_c,9,42,0,
2,1230,Note_off_c,9,43,0,
2,1230,Note_off_c,9,44,0,
2,1230,Note_off_c,9,45,0,
2,1230,Note_off_c,9,46,0,
2,1230,Note_off_c,9,47,0,
2,1230,Note_off_c,9,48,0,
2,1230,Note_off_c,9,49,0,
2,1230,Note_off_c,9,50,0,
2,1230,Note_off_c,9,51,0,
2,1230,Note_off_c,9,56,0,
2,1230,Note_off_c,9,57,0,
2,1230,Note_off_c,9,59,0,
2,1230,Note_off_c,9,60,0,
2,1230,Note_off_c,9,61,0,
2,1230,Note_off_c,9,63,0,
2,1230,Note_off_c,9,68,0,
2,1230,Note_off_c,9,69,0,
2,1230,Note_off_c,9,70,0,
2,1230,Note_off_c,9,76,0,
2,1230,Note_off_c,9,80,0,
2,1230,Note_off_c,9,81,0,
2,1230,Note_off_c,9,82,0,
2,1230,Note_off_c,9,87,0,
2,1230,Note_off_c,9,88,0,
2,1230,Note_off_c,9,89,0,
2,1230,Note_off_c,9,91,0,
2,1230,Note_off_c,9,93,0,
2,1260,Note_off_c,9,35,0,
2,1260,Note_off_c,9,36,0,
2,1260,Note_off_c,9,37,0,
2,1260,Note_off_c,9,38,0,
2,1260,Note_off_c,9,39,0,
2,1260,Note_off_c,9,40,0,
2,1260,Note_off_c,9,41,0,
2,1260,Note_off_c,9,42,0,
2,1260,Note_off_c,9,43,0,
2,1260,Note_off_c,9,44,0,
2,1260,Note_off_c,9,45,0,
2,1260,Note_off_c,9,46,0,
2,1260,Note_off_c,9,47,0,
2,1260,Note_off_c,9,48,0,
2,1260,Note_off_c,9,49,0,
2,1260,Note_off_c,9,50,0,
2,1260,Note_off_c,9,51,0,
2,1260,Note_off_c,9,56,0,
2,1260,Note_off_c,9,57,0,
2,1260,Note_off_c,9,59,0,
2,1260,Note_off_c,9,60,0,
2,1260,Note_off_c,9,61,0,
2,1260,Note_off_c,9,63,0,
2,1260,Note_off_c,9,68,0,
2,1260,Note_off_c,9,69,0,
2,1260,Note_off_c,9,70,0,
2,1260,Note_off_c,9,76,0,
2,1260,Note_off_c,9,80,0,
2,1260,Note_off_c,9,81,0,
2,1260,Note_off_c,9,82,0,
2,1260,Note_off_c,9,87,0,
2,1260,Note_off_c,9,88,0,
2,1260,Note_off_c,9,89,0,
2,1260,Note_off_c,9,91,0,
2,1260,Note_off_c,9,93,0,
2,1290,Note_off_c,9,35,0,
2,1290,Note_off_c,9,36,0,
2,1290,Note_off_c,9,37,0,
2,1290,Note_off_c,9,38,0,
2,1290,Note_off_c,9,39,0,
2,1290,Note_off_c,9,40,0,
2,1290,Note_off_c,9,41,0,
2,1290,Note_off_c,9,42,0,
2,1290,Note_off_c,9,43,0,
2,1290,Note_off_c,9,44,0,
2,1290,Note_off_c,9,45,0,
2,1290,Note_off_c,9,46,0,
2,1290,Note_off_c,9,47,0,
2,1290,Note_off_c,9,48,0,
2,1290,Note_off_c,9,49,0,
2,1290,Note_off_c,9,50,0,
2,1290,Note_off_c,9,51,0,
2,1290,Note_off_c,9,56,0,
2,1290,Note_off_c,9,57,0,
2,1290,Note_off_c,9,59,0,
2,1290,Note_off_c,9,60,0,
2,1290,Note_off_c,9,61,0,
2,1290,Note_off_c,9,63,0,
2,1290,Note_off_c,9,68,0,
2,1290,Note_off_c,9,69,0,
2,1290,Note_off_c,9,70,0,
2,1290,Note_off_c,9,76,0,
2,1290,Note_off_c,9,80,0,
2,1290,Note_off_c,9,81,0,
2,1290,Note_off_c,9,82,0,
2,1290,Note_off_c,9,87,0,
2,1290,Note_off_c,9,88,0,
2,1290,Note_off_c,9,89,0,
2,1290,Note_off_c,9,91,0,
2,1290,Note_off_c,9,93,0,
2,1320,Note_off_c,9,35,0,
2,1320,Note_off_c,9,36,0,
2,1320,Note_off_c,9,37,0,
2,1320,Note_off_c,9,38,0,
2,1320,Note_off_c,9,39,0,
2,1320,Note_off_c,9,40,0,
2,1320,Note_off_c,9,41,0,
2,1320,Note_off_c,9,42,0,
2,1320,Note_off_c,9,43,0,
2,1320,Note_off_c,9,44,0,
2,1320,Note_off_c,9,45,0,
2,1320,Note_off_c,9,46,0,
2,1320,Note_off_c,9,47,0,
2,1320,Note_off_c,9,48,0,
2,1320,Note_off_c,9,49,0,
2,1320,Note_off_c,9,50,0,
2,1320,Note_off_c,9,51,0,
2,1320,Note_off_c,9,56,0,
2,1320,Note_off_c,9,57,0,
2,1320,Note_off_c,9,59,0,
2,1320,Note_off_c,9,60,0,
2,1320,Note_off_c,9,61,0,
2,1320,Note_off_c,9,63,0,
2,1320,Note_off_c,9,68,0,
2,1320,Note_off_c,9,69,0,
2,1320,Note_off_c,9,70,0,
2,1320,Note_off_c,9,76,0,
2,1320,Note_off_c,9,80,0,
2,1320,Note_off_c,9,81,0,
2,1320,Note_off_c,9,82,0,
2,1320,Note_off_c,9,87,0,
2,1320,Note_off_c,9,88,0,
2,1320,Note_off_c,9,89,0,
2,1320,Note_off_c,9,91,0,
2,1320,Note_off_c,9,93,0,
2,1350,Note_off_c,9,35,0,
2,1350,Note_off_c,9,36,0,
2,1350,Note_off_c,9,37,0,
2,1350,Note_off_c,9,38,0,
2,1350,Note_off_c,9,39,0,
2,1350,Note_off_c,9,40,0,
2,1350,Note_off_c,9,41,0,
2,1350,Note_off_c,9,42,0,
2,1350,Note_off_c,9,43,0,
2,1350,Note_off_c,9,44,0,
2,1350,Note_off_c,9,45,0,
2,1350,Note_off_c,9,46,0,
2,1350,Note_off_c,9,47,0,
2,1350,Note_off_c,9,48,0,
2,1350,Note_off_c,9,49,0,
2,1350,Note_off_c,9,50,0,
2,1350,Note_off_c,9,51,0,
2,1350,Note_off_c,9,56,0,
2,1350,Note_off_c,9,57,0,
2,1350,Note_off_c,9,59,0,
2,1350,Note_off_c,9,60,0,
2,1350,Note_off_c,9,61,0,
2,1350,Note_off_c,9,63,0,
2,1350,Note_off_c,9,68,0,
2,1350,Note_off_c,9,69,0,
2,1350,Note_off_c,9,70,0,
2,1350,Note_off_c,9,76,0,
2,1350,Note_off_c,9,80,0,
2,1350,Note_off_c,9,81,0,
2,1350,Note_off_c,9,82,0,
2,1350,Note_off_c,9,87,0,
2,1350,Note_off_c,9,88,0,
2,1350,Note_off_c,9,89,0,
2,1350,Note_off_c,9,91,0,
2,1350,Note_off_c,9,93,0,
2,1380,Note_off_c,9,35,0,
2,1380,Note_off_c,9,36,0,
2,1380,Note_off_c,9,37,0,
2,1380,Note_off_c,9,38,0,
2,1380,Note_off_c,9,39,0,
2,1380,Note_off_c,9,40,0,
2,1380,Note_off_c,9,41,0,
2,1380,Note_off_c,9,42,0,
2,1380,Note_off_c,9,43,0,
2,1380,Note_off_c,9,44,0,
2,1380,Note_off_c,9,45,0,
2,1380,Note_off_c,9,46,0,
2,1380,Note_off_c,9,47,0,
2,1380,Note_off_c,9,48,0,
2,1380,Note_off_c,9,49,0,
2,1380,Note_off_c,9,50,0,
2,1380,Note_off_c,9,51,0,
2,1380,Note_off_c,9,56,0,
2,1380,Note_off_c,9,57,0,
2,1380,Note_off_c,9,59,0,
2,1380,Note_off_c,9,60,0,
2,1380,Note_off_c,9,61,0,
2,1380,Note_off_c,9,63,0,
2,1380,Note_off_c,9,68,0,
2,1380,Note_off_c,9,69,0,
2,1380,Note_off_c,9,70,0,
2,1380,Note_off_c,9,76,0,
2,1380,Note_off_c,9,80,0,
2,1380,Note_off_c,9,81,0,
2,1380,Note_off_c,9,82,0,
2,1380,Note_off_c,9,87,0,
2,1380,Note_off_c,9,88,0,
2,1380,Note_off_c,9,89,0,
2,1380,Note_off_c,9,91,0,
2,1380,Note_off_c,9,93,0,
2,1410,Note_off_c,9,35,0,
2,1410,Note_off_c,9,36,0,
2,1410,Note_off_c,9,37,0,
2,1410,Note_off_c,9,38,0,
2,1410,Note_off_c,9,39,0,
2,1410,Note_off_c,9,40,0,
2,1410,Note_off_c,9,41,0,
2,1410,Note_off_c,9,42,0,
2,1410,Note_off_c,9,43,0,
2,1410,Note_off_c,9,44,0,
2,1410,Note_off_c,9,45,0,
2,1410,Note_off_c,9,46,0,
2,1410,Note_off_c,9,47,0,
2,1410,Note_off_c,9,48,0,
2,1410,Note_off_c,9,49,0,
2,1410,Note_off_c,9,50,0,
2,1410,Note_off_c,9,51,0,
2,1410,Note_off_c,9,56,0,
2,1410,Note_off_c,9,57,0,
2,1410,Note_off_c,9,59,0,
2,1410,Note_off_c,9,60,0,
2,1410,Note_off_c,9,61,0,
2,1410,Note_off_c,9,63,0,
2,1410,Note_off_c,9,68,0,
2,1410,Note_off_c,9,69,0,
2,1410,Note_off_c,9,70,0,
2,1410,Note_off_c,9,76,0,
2,1410,Note_off_c,9,80,0,
2,1410,Note_off_c,9,81,0,
2,1410,Note_off_c,9,82,0,
2,1410,Note_off_c,9,87,0,
2,1410,Note_off_c,9,88,0,
2,1410,Note_off_c,9,89,0,
2,1410,Note_off_c,9,91,0,
2,1410,Note_off_c,9,93,0,
2,1440,Note_off_c,9,35,0,
2,1440,Note_off_c,9,36,0,
2,1440,Note_off_c,9,37,0,
2,1440,Note_off_c,9,38,0,
2,1440,Note_off_c,9,39,0,
2,1440,Note_off_c,9,40,0,
2,1440,Note_off_c,9,41,0,
2,1440,Note_off_c,9,42,0,
2,1440,Note_off_c,9,43,0,
2,1440,Note_off_c,9,44,0,
2,1440,Note_off_c,9,45,0,
2,1440,Note_off_c,9,46,0,
2,1440,Note_off_c,9,47,0,
2,1440,Note_off_c,9,48,0,
2,1440,Note_off_c,9,49,0,
2,1440,Note_off_c,9,50,0,
2,1440,Note_off_c,9,51,0,
2,1440,Note_off_c,9,56,0,
2,1440,Note_off_c,9,57,0,
2,1440,Note_off_c,9,59,0,
2,1440,Note_off_c,9,60,0,
2,1440,Note_off_c,9,61,0,
2,1440,Note_off_c,9,63,0,
2,1440,Note_off_c,9,68,0,
2,1440,Note_off_c,9,69,0,
2,1440,Note_off_c,9,70,0,
2,1440,Note_off_c,9,76,0,
2,1440,Note_off_c,9,80,0,
2,1440,Note_off_c,9,81,0,
2,1440,Note_off_c,9,82,0,
2,1440,Note_off_c,9,87,0,
2,1440,Note_off_c,9,88,0,
2,1440,Note_off_c,9,89,0,
2,1440,Note_off_c,9,91,0,
2,1440,Note_off_c,9,93,0,
2,1470,Note_off_c,9,35,0,
2,1470,Note_off_c,9,36,0,
2,1470,Note_off_c,9,37,0,
2,1470,Note_off_c,9,38,0,
2,1470,Note_off_c,9,39,0,
2,1470,Note_off_c,9,40,0,
2,1470,Note_off_c,9,41,0,
2,1470,Note_off_c,9,42,0,
2,1470,Note_off_c,9,43,0,
2,1470,Note_off_c,9,44,0,
2,1470,Note_off_c,9,45,0,
2,1470,Note_off_c,9,46,0,
2,1470,Note_off_c,9,47,0,
2,1470,Note_off_c,9,48,0,
2,1470,Note_off_c,9,49,0,
2,1470,Note_off_c,9,50,0,
2,1470,Note_off_c,9,51,0,
2,1470,Note_off_c,9,56,0,
2,1470,Note_off_c,9,57,0,
2,1470,Note_off_c,9,59,0,
2,1470,Note_off_c,9,60,0,
2,1470,Note_off_c,9,61,0,
2,1470,Note_off_c,9,63,0,
2,1470,Note_off_c,9,68,0,
2,1470,Note_off_c,9,69,0,
2,1470,Note_off_c,9,70,0,
2,1470,Note_off_c,9,76,0,
2,1470,Note_off_c,9,80,0,
2,1470,Note_off_c,9,81,0,
2,1470,Note_off_c,9,82,0,
2,1470,Note_off_c,9,87,0,
2,1470,Note_off_c,9,88,0,
2,1470,Note_off_c,9,89,0,
2,1470,Note_off_c,9,91,0,
2,1470,Note_off_c,9,93,0,
2,1500,Note_off_c,9,35,0,
2,1500,Note_off_c,9,36,0,
2,1500,Note_off_c,9,37,0,
2,1500,Note_off_c,9,38,0,
2,1500,Note_off_c,9,39,0,
2,1500,Note_off_c,9,40,0,
2,1500,Note_off_c,9,41,0,
2,1500,Note_off_c,9,42,0,
2,1500,Note_off_c,9,43,0,
2,1500,Note_off_c,9,44,0,
2,1500,Note_off_c,9,45,0,
2,1500,Note_off_c,9,46,0,
2,1500,Note_off_c,9,47,0,
2,1500,Note_off_c,9,48,0,
2,1500,Note_off_c,9,49,0,
2,1500,Note_off_c,9,50,0,
2,1500,Note_off_c,9,51,0,
2,1500,Note_off_c,9,56,0,
2,1500,Note_off_c,9,57,0,
2,1500,Note_off_c,9,59,0,
2,1500,Note_off_c,9,60,0,
2,1500,Note_off_c,9,61,0,
2,1500,Note_off_c,9,63,0,
2,1500,Note_off_c,9,68,0,
2,1500,Note_off_c,9,69,0,
2,1500,Note_off_c,9,70,0,
2,1500,Note_off_c,9,76,0,
2,1500,Note_off_c,9,80,0,
2,1500,Note_off_c,9,81,0,
2,1500,Note_off_c,9,82,0,
2,1500,Note_off_c,9,87,0,
2,1500,Note_off_c,9,88,0,
2,1500,Note_off_c,9,89,0,
2,1500,Note_off_c,9,91,0,
2,1500,Note_off_c,9,93,0,
2,1530,Note_off_c,9,35,0,
2,1530,Note_off_c,9,36,0,
2,1530,Note_off_c,9,37,0,
2,1530,Note_off_c,9,38,0,
2,1530,Note_off_c,9,39,0,
2,1530,Note_off_c,9,40,0,
2,1530,Note_off_c,9,41,0,
2,1530,Note_off_c,9,42,0,
2,1530,Note_off_c,9,43,0,
2,1530,Note_off_c,9,44,0,
2,1530,Note_off_c,9,45,0,
2,1530,Note_off_c,9,46,0,
2,1530,Note_off_c,9,47,0,
2,1530,Note_off_c,9,48,0,
2,1530,Note_off_c,9,49,0,
2,1530,Note_off_c,9,50,0,
2,1530,Note_off_c,9,51,0,
2,1530,Note_off_c,9,56,0,
2,1530,Note_off_c,9,57,0,
2,1530,Note_off_c,9,59,0,
2,1530,Note_off_c,9,60,0,
2,1530,Note_off_c,9,61,0,
2,1530,Note_off_c,9,63,0,
2,1530,Note_off_c,9,68,0,
2,1530,Note_off_c,9,69,0,
2,1530,Note_off_c,9,70,0,
2,1530,Note_off_c,9,76,0,
2,1530,Note_off_c,9,80,0,
2,1530,Note_off_c,9,81,0,
2,1530,Note_off_c,9,82,0,
2,1530,Note_off_c,9,87,0,
2,1530,Note_off_c,9,88,0,
2,1530,Note_off_c,9,89,0,
2,1530,Note_off_c,9,91,0,
2,1530,Note_off_c,9,93,0,
2,1560,Note_off_c,9,35,0,
2,1560,Note_off_c,9,36,0,
2,1560,Note_off_c,9,37,0,
2,1560,Note_off_c,9,38,0,
2,1560,Note_off_c,9,39,0,
2,1560,Note_off_c,9,40,0,
2,1560,Note_off_c,9,41,0,
2,1560,Note_off_c,9,42,0,
2,1560,Note_off_c,9,43,0,
2,1560,Note_off_c,9,44,0,
2,1560,Note_off_c,9,45,0,
2,1560,Note_off_c,9,46,0,
2,1560,Note_off_c,9,47,0,
2,1560,Note_off_c,9,48,0,
2,1560,Note_off_c,9,49,0,
2,1560,Note_off_c,9,50,0,
2,1560,Note_off_c,9,51,0,
2,1560,Note_off_c,9,56,0,
2,1560,Note_off_c,9,57,0,
2,1560,Note_off_c,9,59,0,
2,1560,Note_off_c,9,60,0,
2,1560,Note_off_c,9,61,0,
2,1560,Note_off_c,9,63,0,
2,1560,Note_off_c,9,68,0,
2,1560,Note_off_c,9,69,0,
2,1560,Note_off_c,9,70,0,
2,1560,Note_off_c,9,76,0,
2,1560,Note_off_c,9,80,0,
2,1560,Note_off_c,9,81,0,
2,1560,Note_off_c,9,82,0,
2,1560,Note_off_c,9,87,0,
2,1560,Note_off_c,9,88,0,
2,1560,Note_off_c,9,89,0,
2,1560,Note_off_c,9,91,0,
2,1560,Note_off_c,9,93,0,
2,1590,Note_off_c,9,35,0,
2,1590,Note_off_c,9,36,0,
2,1590,Note_off_c,9,37,0,
2,1590,Note_off_c,9,38,0,
2,1590,Note_off_c,9,39,0,
2,1590,Note_off_c,9,40,0,
2,1590,Note_off_c,9,41,0,
2,1590,Note_off_c,9,42,0,
2,1590,Note_off_c,9,43,0,
2,1590,Note_off_c,9,44,0,
2,1590,Note_off_c,9,45,0,
2,1590,Note_off_c,9,46,0,
2,1590,Note_off_c,9,47,0,
2,1590,Note_off_c,9,48,0,
2,1590,Note_off_c,9,49,0,
2,1590,Note_off_c,9,50,0,
2,1590,Note_off_c,9,51,0,
2,1590,Note_off_c,9,56,0,
2,1590,Note_off_c,9,57,0,
2,1590,Note_off_c,9,59,0,
2,1590,Note_off_c,9,60,0,
2,1590,Note_off_c,9,61,0,
2,1590,Note_off_c,9,63,0,
2,1590,Note_off_c,9,68,0,
2,1590,Note_off_c,9,69,0,
2,1590,Note_off_c,9,70,0,
2,1590,Note_off_c,9,76,0,
2,1590,Note_off_c,9,80,0,
2,1590,Note_off_c,9,81,0,
2,1590,Note_off_c,9,82,0,
2,1590,Note_off_c,9,87,0,
2,1590,Note_off_c,9,88,0,
2,1590,Note_off_c,9,89,0,
2,1590,Note_off_c,9,91,0,
2,1590,Note_off_c,9,93,0,
2,1620,Note_off_c,9,35,0,
2,1620,Note_off_c,9,36,0,
2,1620,Note_off_c,9,37,0,
2,1620,Note_off_c,9,38,0,
2,1620,Note_off_c,9,39,0,
2,1620,Note_off_c,9,40,0,
2,1620,Note_off_c,9,41,0,
2,1620,Note_off_c,9,42,0,
2,1620,Note_off_c,9,43,0,
2,1620,Note_off_c,9,44,0,
2,1620,Note_off_c,9,45,0,
2,1620,Note_off_c,9,46,0,
2,1620,Note_off_c,9,47,0,
2,1620,Note_off_c,9,48,0,
2,1620,Note_off_c,9,49,0,
2,1620,Note_off_c,9,50,0,
2,1620,Note_off_c,9,51,0,
2,1620,Note_off_c,9,56,0,
2,1620,Note_off_c,9,57,0,
2,1620,Note_off_c,9,59,0,
2,1620,Note_off_c,9,60,0,
2,1620,Note_off_c,9,61,0,
2,1620,Note_off_c,9,63,0,
2,1620,Note_off_c,9,68,0,
2,1620,Note_off_c,9,69,0,
2,1620,Note_off_c,9,70,0,
2,1620,Note_off_c,9,76,0,
2,1620,Note_off_c,9,80,0,
2,1620,Note_off_c,9,81,0,
2,1620,Note_off_c,9,82,0,
2,1620,Note_off_c,9,87,0,
2,1620,Note_off_c,9,88,0,
2,1620,Note_off_c,9,89,0,
2,1620,Note_off_c,9,91,0,
2,1620,Note_off_c,9,93,0,
2,1650,Note_off_c,9,35,0,
2,1650,Note_off_c,9,36,0,
2,1650,Note_off_c,9,37,0,
2,1650,Note_off_c,9,38,0,
2,1650,Note_off_c,9,39,0,
2,1650,Note_off_c,9,40,0,
2,1650,Note_off_c,9,41,0,
2,1650,Note_off_c,9,42,0,
2,1650,Note_off_c,9,43,0,
2,1650,Note_off_c,9,44,0,
2,1650,Note_off_c,9,45,0,
2,1650,Note_off_c,9,46,0,
2,1650,Note_off_c,9,47,0,
2,1650,Note_off_c,9,48,0,
2,1650,Note_off_c,9,49,0,
2,1650,Note_off_c,9,50,0,
2,1650,Note_off_c,9,51,0,
2,1650,Note_off_c,9,56,0,
2,1650,Note_off_c,9,57,0,
2,1650,Note_off_c,9,59,0,
2,1650,Note_off_c,9,60,0,
2,1650,Note_off_c,9,61,0,
2,1650,Note_off_c,9,63,0,
2,1650,Note_off_c,9,68,0,
2,1650,Note_off_c,9,69,0,
2,1650,Note_off_c,9,70,0,
2,1650,Note_off_c,9,76,0,
2,1650,Note_off_c,9,80,0,
2,1650,Note_off_c,9,81,0,
2,1650,Note_off_c,9,82,0,
2,1650,Note_off_c,9,87,0,
2,1650,Note_off_c,9,88,0,
2,1650,Note_off_c,9,89,0,
2,1650,Note_off_c,9,91,0,
2,1650,Note_off_c,9,93,0,
2,1680,Note_off_c,9,35,0,
2,1680,Note_off_c,9,36,0,
2,1680,Note_off_c,9,37,0,
2,1680,Note_off_c,9,38,0,
2,1680,Note_off_c,9,39,0,
2,1680,Note_off_c,9,40,0,
2,1680,Note_off_c,9,41,0,
2,1680,Note_off_c,9,42,0,
2,1680,Note_off_c,9,43,0,
2,1680,Note_off_c,9,44,0,
2,1680,Note_off_c,9,45,0,
2,1680,Note_off_c,9,46,0,
2,1680,Note_off_c,9,47,0,
2,1680,Note_off_c,9,48,0,
2,1680,Note_off_c,9,49,0,
2,1680,Note_off_c,9,50,0,
2,1680,Note_off_c,9,51,0,
2,1680,Note_off_c,9,56,0,
2,1680,Note_off_c,9,57,0,
2,1680,Note_off_c,9,59,0,
2,1680,Note_off_c,9,60,0,
2,1680,Note_off_c,9,61,0,
2,1680,Note_off_c,9,63,0,
2,1680,Note_off_c,9,68,0,
2,1680,Note_off_c,9,69,0,
2,1680,Note_off_c,9,70,0,
2,1680,Note_off_c,9,76,0,
2,1680,Note_off_c,9,80,0,
2,1680,Note_off_c,9,81,0,
2,1680,Note_off_c,9,82,0,
2,1680,Note_off_c,9,87,0,
2,1680,Note_off_c,9,88,0,
2,1680,Note_off_c,9,89,0,
2,1680,Note_off_c,9,91,0,
2,1680,Note_off_c,9,93,0,
2,1710,Note_off_c,9,35,0,
2,1710,Note_off_c,9,36,0,
2,1710,Note_off_c,9,37,0,
2,1710,Note_off_c,9,38,0,
2,1710,Note_off_c,9,39,0,
2,1710,Note_off_c,9,40,0,
2,1710,Note_off_c,9,41,0,
2,1710,Note_off_c,9,42,0,
2,1710,Note_off_c,9,43,0,
2,1710,Note_off_c,9,44,0,
2,1710,Note_off_c,9,45,0,
2,1710,Note_off_c,9,46,0,
2,1710,Note_off_c,9,47,0,
2,1710,Note_off_c,9,48,0,
2,1710,Note_off_c,9,49,0,
2,1710,Note_off_c,9,50,0,
2,1710,Note_off_c,9,51,0,
2,1710,Note_off_c,9,56,0,
2,1710,Note_off_c,9,57,0,
2,1710,Note_off_c,9,59,0,
2,1710,Note_off_c,9,60,0,
2,1710,Note_off_c,9,61,0,
2,1710,Note_off_c,9,63,0,
2,1710,Note_off_c,9,68,0,
2,1710,Note_off_c,9,69,0,
2,1710,Note_off_c,9,70,0,
2,1710,Note_off_c,9,76,0,
2,1710,Note_off_c,9,80,0,
2,1710,Note_off_c,9,81,0,
2,1710,Note_off_c,9,82,0,
2,1710,Note_off_c,9,87,0,
2,1710,Note_off_c,9,88,0,
2,1710,Note_off_c,9,89,0,
2,1710,Note_off_c,9,91,0,
2,1710,Note_off_c,9,93,0,
2,1740,Note_off_c,9,35,0,
2,1740,Note_off_c,9,36,0,
2,1740,Note_off_c,9,37,0,
2,1740,Note_off_c,9,38,0,
2,1740,Note_off_c,9,39,0,
2,1740,Note_off_c,9,40,0,
2,1740,Note_off_c,9,41,0,
2,1740,Note_off_c,9,42,0,
2,1740,Note_off_c,9,43,0,
2,1740,Note_off_c,9,44,0,
2,1740,Note_off_c,9,45,0,
2,1740,Note_off_c,9,46,0,
2,1740,Note_off_c,9,47,0,
2,1740,Note_off_c,9,48,0,
2,1740,Note_off_c,9,49,0,
2,1740,Note_off_c,9,50,0,
2,1740,Note_off_c,9,51,0,
2,1740,Note_off_c,9,56,0,
2,1740,Note_off_c,9,57,0,
2,1740,Note_off_c,9,59,0,
2,1740,Note_off_c,9,60,0,
2,1740,Note_off_c,9,61,0,
2,1740,Note_off_c,9,63,0,
2,1740,Note_off_c,9,68,0,
2,1740,Note_off_c,9,69,0,
2,1740,Note_off_c,9,70,0,
2,1740,Note_off_c,9,76,0,
2,1740,Note_off_c,9,80,0,
2,1740,Note_off_c,9,81,0,
2,1740,Note_off_c,9,82,0,
2,1740,Note_off_c,9,87,0,
2,1740,Note_off_c,9,88,0,
2,1740,Note_off_c,9,89,0,
2,1740,Note_off_c,9,91,0,
2,1740,Note_off_c,9,93,0,
2,1770,Note_off_c,9,35,0,
2,1770,Note_off_c,9,36,0,
2,1770,Note_off_c,9,37,0,
2,1770,Note_off_c,9,38,0,
2,1770,Note_off_c,9,39,0,
2,1770,Note_off_c,9,40,0,
2,1770,Note_off_c,9,41,0,
2,1770,Note_off_c,9,42,0,
2,1770,Note_off_c,9,43,0,
2,1770,Note_off_c,9,44,0,
2,1770,Note_off_c,9,45,0,
2,1770,Note_off_c,9,46,0,
2,1770,Note_off_c,9,47,0,
2,1770,Note_off_c,9,48,0,
2,1770,Note_off_c,9,49,0,
2,1770,Note_off_c,9,50,0,
2,1770,Note_off_c,9,51,0,
2,1770,Note_off_c,9,56,0,
2,1770,Note_off_c,9,57,0,
2,1770,Note_off_c,9,59,0,
2,1770,Note_off_c,9,60,0,
2,1770,Note_off_c,9,61,0,
2,1770,Note_off_c,9,63,0,
2,1770,Note_off_c,9,68,0,
2,1770,Note_off_c,9,69,0,
2,1770,Note_off_c,9,70,0,
2,1770,Note_off_c,9,76,0,
2,1770,Note_off_c,9,80,0,
2,1770,Note_off_c,9,81,0,
2,1770,Note_off_c,9,82,0,
2,1770,Note_off_c,9,87,0,
2,1770,Note_off_c,9,88,0,
2,1770,Note_off_c,9,89,0,
2,1770,Note_off_c,9,91,0,
2,1770,Note_off_c,9,93,0,
2,1800,Note_off_c,9,35,0,
2,1800,Note_off_c,9,36,0,
2,1800,Note_off_c,9,37,0,
2,1800,Note_off_c,9,38,0,
2,1800,Note_off_c,9,39,0,
2,1800,Note_off_c,9,40,0,
2,1800,Note_off_c,9,41,0,
2,1800,Note_off_c,9,42,0,
2,1800,Note_off_c,9,43,0,
2,1800,Note_off_c,9,44,0,
2,1800,Note_off_c,9,45,0,
2,1800,Note_off_c,9,46,0,
2,1800,Note_off_c,9,47,0,
2,1800,Note_off_c,9,48,0,
2,1800,Note_off_c,9,49,0,
2,1800,Note_off_c,9,50,0,
2,1800,Note_off_c,9,51,0,
2,1800,Note_off_c,9,56,0,
2,1800,Note_off_c,9,57,0,
2,1800,Note_off_c,9,59,0,
2,1800,Note_off_c,9,60,0,
2,1800,Note_off_c,9,61,0,
2,1800,Note_off_c,9,63,0,
2,1800,Note_off_c,9,68,0,
2,1800,Note_off_c,9,69,0,
2,1800,Note_off_c,9,70,0,
2,1800,Note_off_c,9,76,0,
2,1800,Note_off_c,9,80,0,
2,1800,Note_off_c,9,81,0,
2,1800,Note_off_c,9,82,0,
2,1800,Note_off_c,9,87,0,
2,1800,Note_off_c,9,88,0,
2,1800,Note_off_c,9,89,0,
2,1800,Note_off_c,9,91,0,
2,1800,Note_off_c,9,93,0,
2,1830,Note_off_c,9,35,0,
2,1830,Note_off_c,9,36,0,
2,1830,Note_off_c,9,37,0,
2,1830,Note_off_c,9,38,0,
2,1830,Note_off_c,9,39,0,
2,1830,Note_off_c,9,40,0,
2,1830,Note_off_c,9,41,0,
2,1830,Note_off_c,9,42,0,
2,1830,Note_off_c,9,43,0,
2,1830,Note_off_c,9,44,0,
2,1830,Note_off_c,9,45,0,
2,1830,Note_off_c,9,46,0,
2,1830,Note_off_c,9,47,0,
2,1830,Note_off_c,9,48,0,
2,1830,Note_off_c,9,49,0,
2,1830,Note_off_c,9,50,0,
2,1830,Note_off_c,9,51,0,
2,1830,Note_off_c,9,56,0,
2,1830,Note_off_c,9,57,0,
2,1830,Note_off_c,9,59,0,
2,1830,Note_off_c,9,60,0,
2,1830,Note_off_c,9,61,0,
2,1830,Note_off_c,9,63,0,
2,1830,Note_off_c,9,68,0,
2,1830,Note_off_c,9,69,0,
2,1830,Note_off_c,9,70,0,
2,1830,Note_off_c,9,76,0,
2,1830,Note_off_c,9,80,0,
2,1830,Note_off_c,9,81,0,
2,1830,Note_off_c,9,82,0,
2,1830,Note_off_c,9,87,0,
2,1830,Note_off_c,9,88,0,
2,1830,Note_off_c,9,89,0,
2,1830,Note_off_c,9,91,0,
2,1830,Note_off_c,9,93,0,
2,1860,Note_off_c,9,35,0,
2,1860,Note_off_c,9,36,0,
2,1860,Note_off_c,9,37,0,
2,1860,Note_off_c,9,38,0,
2,1860,Note_off_c,9,39,0,
2,1860,Note_off_c,9,40,0,
2,1860,Note_off_c,9,41,0,
2,1860,Note_off_c,9,42,0,
2,1860,Note_off_c,9,43,0,
2,1860,Note_off_c,9,44,0,
2,1860,Note_off_c,9,45,0,
2,1860,Note_off_c,9,46,0,
2,1860,Note_off_c,9,47,0,
2,1860,Note_off_c,9,48,0,
2,1860,Note_off_c,9,49,0,
2,1860,Note_off_c,9,50,0,
2,1860,Note_off_c,9,51,0,
2,1860,Note_off_c,9,56,0,
2,1860,Note_off_c,9,57,0,
2,1860,Note_off_c,9,59,0,
2,1860,Note_off_c,9,60,0,
2,1860,Note_off_c,9,61,0,
2,1860,Note_off_c,9,63,0,
2,1860,Note_off_c,9,68,0,
2,1860,Note_off_c,9,69,0,
2,1860,Note_off_c,9,70,0,
2,1860,Note_off_c,9,76,0,
2,1860,Note_off_c,9,80,0,
2,1860,Note_off_c,9,81,0,
2,1860,Note_off_c,9,82,0,
2,1860,Note_off_c,9,87,0,
2,1860,Note_off_c,9,88,0,
2,1860,Note_off_c,9,89,0,
2,1860,Note_off_c,9,91,0,
2,1860,Note_off_c,9,93,0,
2,1890,Note_off_c,9,35,0,
2,1890,Note_off_c,9,36,0,
2,1890,Note_off_c,9,37,0,
2,1890,Note_off_c,9,38,0,
2,1890,Note_off_c,9,39,0,
2,1890,Note_off_c,9,40,0,
2,1890,Note_off_c,9,41,0,
2,1890,Note_off_c,9,42,0,
2,1890,Note_off_c,9,43,0,
2,1890,Note_off_c,9,44,0,
2,1890,Note_off_c,9,45,0,
2,1890,Note_off_c,9,46,0,
2,1890,Note_off_c,9,47,0,
2,1890,Note_off_c,9,48,0,
2,1890,Note_off_c,9,49,0,
2,1890,Note_off_c,9,50,0,
2,1890,Note_off_c,9,51,0,
2,1890,Note_off_c,9,56,0,
2,1890,Note_off_c,9,57,0,
2,1890,Note_off_c,9,59,0,
2,1890,Note_off_c,9,60,0,
2,1890,Note_off_c,9,61,0,
2,1890,Note_off_c,9,63,0,
2,1890,Note_off_c,9,68,0,
2,1890,Note_off_c,9,69,0,
2,1890,Note_off_c,9,70,0,
2,1890,Note_off_c,9,76,0,
2,1890,Note_off_c,9,80,0,
2,1890,Note_off_c,9,81,0,
2,1890,Note_off_c,9,82,0,
2,1890,Note_off_c,9,87,0,
2,1890,Note_off_c,9,88,0,
2,1890,Note_off_c,9,89,0,
2,1890,Note_off_c,9,91,0,
2,1890,Note_off_c,9,93,0,
2,1920,Note_off_c,9,35,0,
2,1920,Note_off_c,9,36,0,
2,1920,Note_off_c,9,37,0,
2,1920,Note_off_c,9,38,0,
2,1920,Note_off_c,9,39,0,
2,1920,Note_off_c,9,40,0,
2,1920,Note_off_c,9,41,0,
2,1920,Note_off_c,9,42,0,
2,1920,Note_off_c,9,43,0,
2,1920,Note_off_c,9,44,0,
2,1920,Note_off_c,9,45,0,
2,1920,Note_off_c,9,46,0,
2,1920,Note_off_c,9,47,0,
2,1920,Note_off_c,9,48,0,
2,1920,Note_off_c,9,49,0,
2,1920,Note_off_c,9,50,0,
2,1920,Note_off_c,9,51,0,
2,1920,Note_off_c,9,56,0,
2,1920,Note_off_c,9,57,0,
2,1920,Note_off_c,9,59,0,
2,1920,Note_off_c,9,60,0,
2,1920,Note_off_c,9,61,0,
2,1920,Note_off_c,9,63,0,
2,1920,Note_off_c,9,68,0,
2,1920,Note_off_c,9,69,0,
2,1920,Note_off_c,9,70,0,
2,1920,Note_off_c,9,76,0,
2,1920,Note_off_c,9,80,0,
2,1920,Note_off_c,9,81,0,
2,1920,Note_off_c,9,82,0,
2,1920,Note_off_c,9,87,0,
2,1920,Note_off_c,9,88,0,
2,1920,Note_off_c,9,89,0,
2,1920,Note_off_c,9,91,0,
2,1920,Note_off_c,9,93,0,
2,1950,Note_off_c,9,35,0,
2,1950,Note_off_c,9,36,0,
2,1950,Note_off_c,9,37,0,
2,1950,Note_off_c,9,38,0,
2,1950,Note_off_c,9,39,0,
2,1950,Note_off_c,9,40,0,
2,1950,Note_off_c,9,41,0,
2,1950,Note_off_c,9,42,0,
2,1950,Note_off_c,9,43,0,
2,1950,Note_off_c,9,44,0,
2,1950,Note_off_c,9,45,0,
2,1950,Note_off_c,9,46,0,
2,1950,Note_off_c,9,47,0,
2,1950,Note_off_c,9,48,0,
2,1950,Note_off_c,9,49,0,
2,1950,Note_off_c,9,50,0,
2,1950,Note_off_c,9,51,0,
2,1950,Note_off_c,9,56,0,
2,1950,Note_off_c,9,57,0,
2,1950,Note_off_c,9,59,0,
2,1950,Note_off_c,9,60,0,
2,1950,Note_off_c,9,61,0,
2,1950,Note_off_c,9,63,0,
2,1950,Note_off_c,9,68,0,
2,1950,Note_off_c,9,69,0,
2,1950,Note_off_c,9,70,0,
2,1950,Note_off_c,9,76,0,
2,1950,Note_off_c,9,80,0,
2,1950,Note_off_c,9,81,0,
2,1950,Note_off_c,9,82,0,
2,1950,Note_off_c,9,87,0,
2,1950,Note_off_c,9,88,0,
2,1950,Note_off_c,9,89,0,
2,1950,Note_off_c,9,91,0,
2,1950,Note_off_c,9,93,0,
2,1980,Note_off_c,9,35,0,
2,1980,Note_off_c,9,36,0,
2,1980,Note_off_c,9,37,0,
2,1980,Note_off_c,9,38,0,
2,1980,Note_off_c,9,39,0,
2,1980,Note_off_c,9,40,0,
2,1980,Note_off_c,9,41,0,
2,1980,Note_off_c,9,42,0,
2,1980,Note_off_c,9,43,0,
2,1980,Note_off_c,9,44,0,
2,1980,Note_off_c,9,45,0,
2,1980,Note_off_c,9,46,0,
2,1980,Note_off_c,9,47,0,
2,1980,Note_off_c,9,48,0,
2,1980,Note_off_c,9,49,0,
2,1980,Note_off_c,9,50,0,
2,1980,Note_off_c,9,51,0,
2,1980,Note_off_c,9,56,0,
2,1980,Note_off_c,9,57,0,
2,1980,Note_off_c,9,59,0,
2,1980,Note_off_c,9,60,0,
2,1980,Note_off_c,9,61,0,
2,1980,Note_off_c,9,63,0,
2,1980,Note_off_c,9,68,0,
2,1980,Note_off_c,9,69,0,
2,1980,Note_off_c,9,70,0,
2,1980,Note_off_c,9,76,0,
2,1980,Note_off_c,9,80,0,
2,1980,Note_off_c,9,81,0,
2,1980,Note_off_c,9,82,0,
2,1980,Note_off_c,9,87,0,
2,1980,Note_off_c,9,88,0,
2,1980,Note_off_c,9,89,0,
2,1980,Note_off_c,9,91,0,
2,1980,Note_off_c,9,93,0,
2,2010,Note_off_c,9,35,0,
2,2010,Note_off_c,9,36,0,
2,2010,Note_off_c,9,37,0,
2,2010,Note_off_c,9,38,0,
2,2010,Note_off_c,9,39,0,
2,2010,Note_off_c,9,40,0,
2,2010,Note_off_c,9,41,0,
2,2010,Note_off_c,9,42,0,
2,2010,Note_off_c,9,43,0,
2,2010,Note_off_c,9,44,0,
2,2010,Note_off_c,9,45,0,
2,2010,Note_off_c,9,46,0,
2,2010,Note_off_c,9,47,0,
2,2010,Note_off_c,9,48,0,
2,2010,Note_off_c,9,49,0,
2,2010,Note_off_c,9,50,0,
2,2010,Note_off_c,9,51,0,
2,2010,Note_off_c,9,56,0,
2,2010,Note_off_c,9,57,0,
2,2010,Note_off_c,9,59,0,
2,2010,Note_off_c,9,60,0,
2,2010,Note_off_c,9,61,0,
2,2010,Note_off_c,9,63,0,
2,2010,Note_off_c,9,68,0,
2,2010,Note_off_c,9,69,0,
2,2010,Note_off_c,9,70,0,
2,2010,Note_off_c,9,76,0,
2,2010,Note_off_c,9,80,0,
2,2010,Note_off_c,9,81,0,
2,2010,Note_off_c,9,82,0,
2,2010,Note_off_c,9,87,0,
2,2010,Note_off_c,9,88,0,
2,2010,Note_off_c,9,89,0,
2,2010,Note_off_c,9,91,0,
2,2010,Note_off_c,9,93,0,
2,2040,Note_off_c,9,35,0,
2,2040,Note_off_c,9,36,0,
2,2040,Note_off_c,9,37,0,
2,2040,Note_off_c,9,38,0,
2,2040,Note_off_c,9,39,0,
2,2040,Note_off_c,9,40,0,
2,2040,Note_off_c,9,41,0,
2,2040,Note_off_c,9,42,0,
2,2040,Note_off_c,9,43,0,
2,2040,Note_off_c,9,44,0,
2,2040,Note_off_c,9,45,0,
2,2040,Note_off_c,9,46,0,
2,2040,Note_off_c,9,47,0,
2,2040,Note_off_c,9,48,0,
2,2040,Note_off_c,9,49,0,
2,2040,Note_off_c,9,50,0,
2,2040,Note_off_c,9,51,0,
2,2040,Note_off_c,9,56,0,
2,2040,Note_off_c,9,57,0,
2,2040,Note_off_c,9,59,0,
2,2040,Note_off_c,9,60,0,
2,2040,Note_off_c,9,61,0,
2,2040,Note_off_c,9,63,0,
2,2040,Note_off_c,9,68,0,
2,2040,Note_off_c,9,69,0,
2,2040,Note_off_c,9,70,0,
2,2040,Note_off_c,9,76,0,
2,2040,Note_off_c,9,80,0,
2,2040,Note_off_c,9,81,0,
2,2040,Note_off_c,9,82,0,
2,2040,Note_off_c,9,87,0,
2,2040,Note_off_c,9,88,0,
2,2040,Note_off_c,9,89,0,
2,2040,Note_off_c,9,91,0,
2,2040,Note_off_c,9,93,0,
2,2070,Note_off_c,9,35,0,
2,2070,Note_off_c,9,36,0,
2,2070,Note_off_c,9,37,0,
2,2070,Note_off_c,9,38,0,
2,2070,Note_off_c,9,39,0,
2,2070,Note_off_c,9,40,0,
2,2070,Note_off_c,9,41,0,
2,2070,Note_off_c,9,42,0,
2,2070,Note_off_c,9,43,0,
2,2070,Note_off_c,9,44,0,
2,2070,Note_off_c,9,45,0,
2,2070,Note_off_c,9,46,0,
2,2070,Note_off_c,9,47,0,
2,2070,Note_off_c,9,48,0,
2,2070,Note_off_c,9,49,0,
2,2070,Note_off_c,9,50,0,
2,2070,Note_off_c,9,51,0,
2,2070,Note_off_c,9,56,0,
2,2070,Note_off_c,9,57,0,
2,2070,Note_off_c,9,59,0,
2,2070,Note_off_c,9,60,0,
2,2070,Note_off_c,9,61,0,
2,2070,Note_off_c,9,63,0,
2,2070,Note_off_c,9,68,0,
2,2070,Note_off_c,9,69,0,
2,2070,Note_off_c,9,70,0,
2,2070,Note_off_c,9,76,0,
2,2070,Note_off_c,9,80,0,
2,2070,Note_off_c,9,81,0,
2,2070,Note_off_c,9,82,0,
2,2070,Note_off_c,9,87,0,
2,2070,Note_off_c,9,88,0,
2,2070,Note_off_c,9,89,0,
2,2070,Note_off_c,9,91,0,
2,2070,Note_off_c,9,93,0,
2,2100,Note_off_c,9,35,0,
2,2100,Note_off_c,9,36,0,
2,2100,Note_off_c,9,37,0,
2,2100,Note_off_c,9,38,0,
2,2100,Note_off_c,9,39,0,
2,2100,Note_off_c,9,40,0,
2,2100,Note_off_c,9,41,0,
2,2100,Note_off_c,9,42,0,
2,2100,Note_off_c,9,43,0,
2,2100,Note_off_c,9,44,0,
2,2100,Note_off_c,9,45,0,
2,2100,Note_off_c,9,46,0,
2,2100,Note_off_c,9,47,0,
2,2100,Note_off_c,9,48,0,
2,2100,Note_off_c,9,49,0,
2,2100,Note_off_c,9,50,0,
2,2100,Note_off_c,9,51,0,
2,2100,Note_off_c,9,56,0,
2,2100,Note_off_c,9,57,0,
2,2100,Note_off_c,9,59,0,
2,2100,Note_off_c,9,60,0,
2,2100,Note_off_c,9,61,0,
2,2100,Note_off_c,9,63,0,
2,2100,Note_off_c,9,68,0,
2,2100,Note_off_c,9,69,0,
2,2100,Note_off_c,9,70,0,
2,2100,Note_off_c,9,76,0,
2,2100,Note_off_c,9,80,0,
2,2100,Note_off_c,9,81,0,
2,2100,Note_off_c,9,82,0,
2,2100,Note_off_c,9,87,0,
2,2100,Note_off_c,9,88,0,
2,2100,Note_off_c,9,89,0,
2,2100,Note_off_c,9,91,0,
2,2100,Note_off_c,9,93,0,
2,2130,Note_off_c,9,35,0,
2,2130,Note_off_c,9,36,0,
2,2130,Note_off_c,9,37,0,
2,2130,Note_off_c,9,38,0,
2,2130,Note_off_c,9,39,0,
2,2130,Note_off_c,9,40,0,
2,2130,Note_off_c,9,41,0,
2,2130,Note_off_c,9,42,0,
2,2130,Note_off_c,9,43,0,
2,2130,Note_off_c,9,44,0,
2,2130,Note_off_c,9,45,0,
2,2130,Note_off_c,9,46,0,
2,2130,Note_off_c,9,47,0,
2,2130,Note_off_c,9,48,0,
2,2130,Note_off_c,9,49,0,
2,2130,Note_off_c,9,50,0,
2,2130,Note_off_c,9,51,0,
2,2130,Note_off_c,9,56,0,
2,2130,Note_off_c,9,57,0,
2,2130,Note_off_c,9,59,0,
2,2130,Note_off_c,9,60,0,
2,2130,Note_off_c,9,61,0,
2,2130,Note_off_c,9,63,0,
2,2130,Note_off_c,9,68,0,
2,2130,Note_off_c,9,69,0,
2,2130,Note_off_c,9,70,0,
2,2130,Note_off_c,9,76,0,
2,2130,Note_off_c,9,80,0,
2,2130,Note_off_c,9,81,0,
2,2130,Note_off_c,9,82,0,
2,2130,Note_off_c,9,87,0,
2,2130,Note_off_c,9,88,0,
2,2130,Note_off_c,9,89,0,
2,2130,Note_off_c,9,91,0,
2,2130,Note_off_c,9,93,0,
2,2160,Note_off_c,9,35,0,
2,2160,Note_off_c,9,36,0,
2,2160,Note_off_c,9,37,0,
2,2160,Note_off_c,9,38,0,
2,2160,Note_off_c,9,39,0,
2,2160,Note_off_c,9,40,0,
2,2160,Note_off_c,9,41,0,
2,2160,Note_off_c,9,42,0,
2,2160,Note_off_c,9,43,0,
2,2160,Note_off_c,9,44,0,
2,2160,Note_off_c,9,45,0,
2,2160,Note_off_c,9,46,0,
2,2160,Note_off_c,9,47,0,
2,2160,Note_off_c,9,48,0,
2,2160,Note_off_c,9,49,0,
2,2160,Note_off_c,9,50,0,
2,2160,Note_off_c,9,51,0,
2,2160,Note_off_c,9,56,0,
2,2160,Note_off_c,9,57,0,
2,2160,Note_off_c,9,59,0,
2,2160,Note_off_c,9,60,0,
2,2160,Note_off_c,9,61,0,
2,2160,Note_off_c,9,63,0,
2,2160,Note_off_c,9,68,0,
2,2160,Note_off_c,9,69,0,
2,2160,Note_off_c,9,70,0,
2,2160,Note_off_c,9,76,0,
2,2160,Note_off_c,9,80,0,
2,2160,Note_off_c,9,81,0,
2,2160,Note_off_c,9,82,0,
2,2160,Note_off_c,9,87,0,
2,2160,Note_off_c,9,88,0,
2,2160,Note_off_c,9,89,0,
2,2160,Note_off_c,9,91,0,
2,2160,Note_off_c,9,93,0,
2,2190,Note_off_c,9,35,0,
2,2190,Note_off_c,9,36,0,
2,2190,Note_off_c,9,37,0,
2,2190,Note_off_c,9,38,0,
2,2190,Note_off_c,9,39,0,
2,2190,Note_off_c,9,40,0,
2,2190,Note_off_c,9,41,0,
2,2190,Note_off_c,9,42,0,
2,2190,Note_off_c,9,43,0,
2,2190,Note_off_c,9,44,0,
2,2190,Note_off_c,9,45,0,
2,2190,Note_off_c,9,46,0,
2,2190,Note_off_c,9,47,0,
2,2190,Note_off_c,9,48,0,
2,2190,Note_off_c,9,49,0,
2,2190,Note_off_c,9,50,0,
2,2190,Note_off_c,9,51,0,
2,2190,Note_off_c,9,56,0,
2,2190,Note_off_c,9,57,0,
2,2190,Note_off_c,9,59,0,
2,2190,Note_off_c,9,60,0,
2,2190,Note_off_c,9,61,0,
2,2190,Note_off_c,9,63,0,
2,2190,Note_off_c,9,68,0,
2,2190,Note_off_c,9,69,0,
2,2190,Note_off_c,9,70,0,
2,2190,Note_off_c,9,76,0,
2,2190,Note_off_c,9,80,0,
2,2190,Note_off_c,9,81,0,
2,2190,Note_off_c,9,82,0,
2,2190,Note_off_c,9,87,0,
2,2190,Note_off_c,9,88,0,
2,2190,Note_off_c,9,89,0,
2,2190,Note_off_c,9,91,0,
2,2190,Note_off_c,9,93,0,
2,2220,Note_off_c,9,35,0,
2,2220,Note_off_c,9,36,0,
2,2220,Note_off_c,9,37,0,
2,2220,Note_off_c,9,38,0,
2,2220,Note_off_c,9,39,0,
2,2220,Note_off_c,9,40,0,
2,2220,Note_off_c,9,41,0,
2,2220,Note_off_c,9,42,0,
2,2220,Note_off_c,9,43,0,
2,2220,Note_off_c,9,44,0,
2,2220,Note_off_c,9,45,0,
2,2220,Note_off_c,9,46,0,
2,2220,Note_off_c,9,47,0,
2,2220,Note_off_c,9,48,0,
2,2220,Note_off_c,9,49,0,
2,2220,Note_off_c,9,50,0,
2,2220,Note_off_c,9,51,0,
2,2220,Note_off_c,9,56,0,
2,2220,Note_off_c,9,57,0,
2,2220,Note_off_c,9,59,0,
2,2220,Note_off_c,9,60,0,
2,2220,Note_off_c,9,61,0,
2,2220,Note_off_c,9,63,0,
2,2220,Note_off_c,9,68,0,
2,2220,Note_off_c,9,69,0,
2,2220,Note_off_c,9,70,0,
2,2220,Note_off_c,9,76,0,
2,2220,Note_off_c,9,80,0,
2,2220,Note_off_c,9,81,0,
2,2220,Note_off_c,9,82,0,
2,2220,Note_off_c,9,87,0,
2,2220,Note_off_c,9,88,0,
2,2220,Note_off_c,9,89,0,
2,2220,Note_off_c,9,91,0,
2,2220,Note_off_c,9,93,0,
2,2250,Note_off_c,9,35,0,
2,2250,Note_off_c,9,36,0,
2,2250,Note_off_c,9,37,0,
2,2250,Note_off_c,9,38,0,
2,2250,Note_off_c,9,39,0,
2,2250,Note_off_c,9,40,0,
2,2250,Note_off_c,9,41,0,
2,2250,Note_off_c,9,42,0,
2,2250,Note_off_c,9,43,0,
2,2250,Note_off_c,9,44,0,
2,2250,Note_off_c,9,45,0,
2,2250,Note_off_c,9,46,0,
2,2250,Note_off_c,9,47,0,
2,2250,Note_off_c,9,48,0,
2,2250,Note_off_c,9,49,0,
2,2250,Note_off_c,9,50,0,
2,2250,Note_off_c,9,51,0,
2,2250,Note_off_c,9,56,0,
2,2250,Note_off_c,9,57,0,
2,2250,Note_off_c,9,59,0,
2,2250,Note_off_c,9,60,0,
2,2250,Note_off_c,9,61,0,
2,2250,Note_off_c,9,63,0,
2,2250,Note_off_c,9,68,0,
2,2250,Note_off_c,9,69,0,
2,2250,Note_off_c,9,70,0,
2,2250,Note_off_c,9,76,0,
2,2250,Note_off_c,9,80,0,
2,2250,Note_off_c,9,81,0,
2,2250,Note_off_c,9,82,0,
2,2250,Note_off_c,9,87,0,
2,2250,Note_off_c,9,88,0,
2,2250,Note_off_c,9,89,0,
2,2250,Note_off_c,9,91,0,
2,2250,Note_off_c,9,93,0,
2,2280,Note_off_c,9,35,0,
2,2280,Note_off_c,9,36,0,
2,2280,Note_off_c,9,37,0,
2,2280,Note_off_c,9,38,0,
2,2280,Note_off_c,9,39,0,
2,2280,Note_off_c,9,40,0,
2,2280,Note_off_c,9,41,0,
2,2280,Note_off_c,9,42,0,
2,2280,Note_off_c,9,43,0,
2,2280,Note_off_c,9,44,0,
2,2280,Note_off_c,9,45,0,
2,2280,Note_off_c,9,46,0,
2,2280,Note_off_c,9,47,0,
2,2280,Note_off_c,9,48,0,
2,2280,Note_off_c,9,49,0,
2,2280,Note_off_c,9,50,0,
2,2280,Note_off_c,9,51,0,
2,2280,Note_off_c,9,56,0,
2,2280,Note_off_c,9,57,0,
2,2280,Note_off_c,9,59,0,
2,2280,Note_off_c,9,60,0,
2,2280,Note_off_c,9,61,0,
2,2280,Note_off_c,9,63,0,
2,2280,Note_off_c,9,68,0,
2,2280,Note_off_c,9,69,0,
2,2280,Note_off_c,9,70,0,
2,2280,Note_off_c,9,76,0,
2,2280,Note_off_c,9,80,0,
2,2280,Note_off_c,9,81,0,
2,2280,Note_off_c,9,82,0,
2,2280,Note_off_c,9,87,0,
2,2280,Note_off_c,9,88,0,
2,2280,Note_off_c,9,89,0,
2,2280,Note_off_c,9,91,0,
2,2280,Note_off_c,9,93,0,
2,2310,Note_off_c,9,35,0,
2,2310,Note_off_c,9,36,0,
2,2310,Note_off_c,9,37,0,
2,2310,Note_off_c,9,38,0,
2,2310,Note_off_c,9,39,0,
2,2310,Note_off_c,9,40,0,
2,2310,Note_off_c,9,41,0,
2,2310,Note_off_c,9,42,0,
2,2310,Note_off_c,9,43,0,
2,2310,Note_off_c,9,44,0,
2,2310,Note_off_c,9,45,0,
2,2310,Note_off_c,9,46,0,
2,2310,Note_off_c,9,47,0,
2,2310,Note_off_c,9,48,0,
2,2310,Note_off_c,9,49,0,
2,2310,Note_off_c,9,50,0,
2,2310,Note_off_c,9,51,0,
2,2310,Note_off_c,9,56,0,
2,2310,Note_off_c,9,57,0,
2,2310,Note_off_c,9,59,0,
2,2310,Note_off_c,9,60,0,
2,2310,Note_off_c,9,61,0,
2,2310,Note_off_c,9,63,0,
2,2310,Note_off_c,9,68,0,
2,2310,Note_off_c,9,69,0,
2,2310,Note_off_c,9,70,0,
2,2310,Note_off_c,9,76,0,
2,2310,Note_off_c,9,80,0,
2,2310,Note_off_c,9,81,0,
2,2310,Note_off_c,9,82,0,
2,2310,Note_off_c,9,87,0,
2,2310,Note_off_c,9,88,0,
2,2310,Note_off_c,9,89,0,
2,2310,Note_off_c,9,91,0,
2,2310,Note_off_c,9,93,0,
2,2340,Note_off_c,9,35,0,
2,2340,Note_off_c,9,36,0,
2,2340,Note_off_c,9,37,0,
2,2340,Note_off_c,9,38,0,
2,2340,Note_off_c,9,39,0,
2,2340,Note_off_c,9,40,0,
2,2340,Note_off_c,9,41,0,
2,2340,Note_off_c,9,42,0,
2,2340,Note_off_c,9,43,0,
2,2340,Note_off_c,9,44,0,
2,2340,Note_off_c,9,45,0,
2,2340,Note_off_c,9,46,0,
2,2340,Note_off_c,9,47,0,
2,2340,Note_off_c,9,48,0,
2,2340,Note_off_c,9,49,0,
2,2340,Note_off_c,9,50,0,
2,2340,Note_off_c,9,51,0,
2,2340,Note_off_c,9,56,0,
2,2340,Note_off_c,9,57,0,
2,2340,Note_off_c,9,59,0,
2,2340,Note_off_c,9,60,0,
2,2340,Note_off_c,9,61,0,
2,2340,Note_off_c,9,63,0,
2,2340,Note_off_c,9,68,0,
2,2340,Note_off_c,9,69,0,
2,2340,Note_off_c,9,70,0,
2,2340,Note_off_c,9,76,0,
2,2340,Note_off_c,9,80,0,
2,2340,Note_off_c,9,81,0,
2,2340,Note_off_c,9,82,0,
2,2340,Note_off_c,9,87,0,
2,2340,Note_off_c,9,88,0,
2,2340,Note_off_c,9,89,0,
2,2340,Note_off_c,9,91,0,
2,2340,Note_off_c,9,93,0,
2,2370,Note_off_c,9,35,0,
2,2370,Note_off_c,9,36,0,
2,2370,Note_off_c,9,37,0,
2,2370,Note_off_c,9,38,0,
2,2370,Note_off_c,9,39,0,
2,2370,Note_off_c,9,40,0,
2,2370,Note_off_c,9,41,0,
2,2370,Note_off_c,9,42,0,
2,2370,Note_off_c,9,43,0,
2,2370,Note_off_c,9,44,0,
2,2370,Note_off_c,9,45,0,
2,2370,Note_off_c,9,46,0,
2,2370,Note_off_c,9,47,0,
2,2370,Note_off_c,9,48,0,
2,2370,Note_off_c,9,49,0,
2,2370,Note_off_c,9,50,0,
2,2370,Note_off_c,9,51,0,
2,2370,Note_off_c,9,56,0,
2,2370,Note_off_c,9,57,0,
2,2370,Note_off_c,9,59,0,
2,2370,Note_off_c,9,60,0,
2,2370,Note_off_c,9,61,0,
2,2370,Note_off_c,9,63,0,
2,2370,Note_off_c,9,68,0,
2,2370,Note_off_c,9,69,0,
2,2370,Note_off_c,9,70,0,
2,2370,Note_off_c,9,76,0,
2,2370,Note_off_c,9,80,0,
2,2370,Note_off_c,9,81,0,
2,2370,Note_off_c,9,82,0,
2,2370,Note_off_c,9,87,0,
2,2370,Note_off_c,9,88,0,
2,2370,Note_off_c,9,89,0,
2,2370,Note_off_c,9,91,0,
2,2370,Note_off_c,9,93,0,
2,2400,Note_off_c,9,35,0,
2,2400,Note_off_c,9,36,0,
2,2400,Note_off_c,9,37,0,
2,2400,Note_off_c,9,38,0,
2,2400,Note_off_c,9,39,0,
2,2400,Note_off_c,9,40,0,
2,2400,Note_off_c,9,41,0,
2,2400,Note_off_c,9,42,0,
2,2400,Note_off_c,9,43,0,
2,2400,Note_off_c,9,44,0,
2,2400,Note_off_c,9,45,0,
2,2400,Note_off_c,9,46,0,
2,2400,Note_off_c,9,47,0,
2,2400,Note_off_c,9,48,0,
2,2400,Note_off_c,9,49,0,
2,2400,Note_off_c,9,50,0,
2,2400,Note_off_c,9,51,0,
2,2400,Note_off_c,9,56,0,
2,2400,Note_off_c,9,57,0,
2,2400,Note_off_c,9,59,0,
2,2400,Note_off_c,9,60,0,
2,2400,Note_off_c,9,61,0,
2,2400,Note_off_c,9,63,0,
2,2400,Note_off_c,9,68,0,
2,2400,Note_off_c,9,69,0,
2,2400,Note_off_c,9,70,0,
2,2400,Note_off_c,9,76,0,
2,2400,Note_off_c,9,80,0,
2,2400,Note_off_c,9,81,0,
2,2400,Note_off_c,9,82,0,
2,2400,Note_off_c,9,87,0,
2,2400,Note_off_c,9,88,0,
2,2400,Note_off_c,9,89,0,
2,2400,Note_off_c,9,91,0,
2,2400,Note_off_c,9,93,0,
2,2430,Note_off_c,9,35,0,
2,2430,Note_off_c,9,36,0,
2,2430,Note_off_c,9,37,0,
2,2430,Note_off_c,9,38,0,
2,2430,Note_off_c,9,39,0,
2,2430,Note_off_c,9,40,0,
2,2430,Note_off_c,9,41,0,
2,2430,Note_off_c,9,42,0,
2,2430,Note_off_c,9,43,0,
2,2430,Note_off_c,9,44,0,
2,2430,Note_off_c,9,45,0,
2,2430,Note_off_c,9,46,0,
2,2430,Note_off_c,9,47,0,
2,2430,Note_off_c,9,48,0,
2,2430,Note_off_c,9,49,0,
2,2430,Note_off_c,9,50,0,
2,2430,Note_off_c,9,51,0,
2,2430,Note_off_c,9,56,0,
2,2430,Note_off_c,9,57,0,
2,2430,Note_off_c,9,59,0,
2,2430,Note_off_c,9,60,0,
2,2430,Note_off_c,9,61,0,
2,2430,Note_off_c,9,63,0,
2,2430,Note_off_c,9,68,0,
2,2430,Note_off_c,9,69,0,
2,2430,Note_off_c,9,70,0,
2,2430,Note_off_c,9,76,0,
2,2430,Note_off_c,9,80,0,
2,2430,Note_off_c,9,81,0,
2,2430,Note_off_c,9,82,0,
2,2430,Note_off_c,9,87,0,
2,2430,Note_off_c,9,88,0,
2,2430,Note_off_c,9,89,0,
2,2430,Note_off_c,9,91,0,
2,2430,Note_off_c,9,93,0,
2,2460,Note_off_c,9,35,0,
2,2460,Note_off_c,9,36,0,
2,2460,Note_off_c,9,37,0,
2,2460,Note_off_c,9,38,0,
2,2460,Note_off_c,9,39,0,
2,2460,Note_off_c,9,40,0,
2,2460,Note_off_c,9,41,0,
2,2460,Note_off_c,9,42,0,
2,2460,Note_off_c,9,43,0,
2,2460,Note_off_c,9,44,0,
2,2460,Note_off_c,9,45,0,
2,2460,Note_off_c,9,46,0,
2,2460,Note_off_c,9,47,0,
2,2460,Note_off_c,9,48,0,
2,2460,Note_off_c,9,49,0,
2,2460,Note_off_c,9,50,0,
2,2460,Note_off_c,9,51,0,
2,2460,Note_off_c,9,56,0,
2,2460,Note_off_c,9,57,0,
2,2460,Note_off_c,9,59,0,
2,2460,Note_off_c,9,60,0,
2,2460,Note_off_c,9,61,0,
2,2460,Note_off_c,9,63,0,
2,2460,Note_off_c,9,68,0,
2,2460,Note_off_c,9,69,0,
2,2460,Note_off_c,9,70,0,
2,2460,Note_off_c,9,76,0,
2,2460,Note_off_c,9,80,0,
2,2460,Note_off_c,9,81,0,
2,2460,Note_off_c,9,82,0,
2,2460,Note_off_c,9,87,0,
2,2460,Note_off_c,9,88,0,
2,2460,Note_off_c,9,89,0,
2,2460,Note_off_c,9,91,0,
2,2460,Note_off_c,9,93,0,
2,2490,Note_off_c,9,35,0,
2,2490,Note_off_c,9,36,0,
2,2490,Note_off_c,9,37,0,
2,2490,Note_off_c,9,38,0,
2,2490,Note_off_c,9,39,0,
2,2490,Note_off_c,9,40,0,
2,2490,Note_off_c,9,41,0,
2,2490,Note_off_c,9,42,0,
2,2490,Note_off_c,9,43,0,
2,2490,Note_off_c,9,44,0,
2,2490,Note_off_c,9,45,0,
2,2490,Note_off_c,9,46,0,
2,2490,Note_off_c,9,47,0,
2,2490,Note_off_c,9,48,0,
2,2490,Note_off_c,9,49,0,
2,2490,Note_off_c,9,50,0,
2,2490,Note_off_c,9,51,0,
2,2490,Note_off_c,9,56,0,
2,2490,Note_off_c,9,57,0,
2,2490,Note_off_c,9,59,0,
2,2490,Note_off_c,9,60,0,
2,2490,Note_off_c,9,61,0,
2,2490,Note_off_c,9,63,0,
2,2490,Note_off_c,9,68,0,
2,2490,Note_off_c,9,69,0,
2,2490,Note_off_c,9,70,0,
2,2490,Note_off_c,9,76,0,
2,2490,Note_off_c,9,80,0,
2,2490,Note_off_c,9,81,0,
2,2490,Note_off_c,9,82,0,
2,2490,Note_off_c,9,87,0,
2,2490,Note_off_c,9,88,0,
2,2490,Note_off_c,9,89,0,
2,2490,Note_off_c,9,91,0,
2,2490,Note_off_c,9,93,0,
2,2520,Note_off_c,9,35,0,
2,2520,Note_off_c,9,36,0,
2,2520,Note_off_c,9,37,0,
2,2520,Note_off_c,9,38,0,
2,2520,Note_off_c,9,39,0,
2,2520,Note_off_c,9,40,0,
2,2520,Note_off_c,9,41,0,
2,2520,Note_off_c,9,42,0,
2,2520,Note_off_c,9,43,0,
2,2520,Note_off_c,9,44,0,
2,2520,Note_off_c,9,45,0,
2,2520,Note_off_c,9,46,0,
2,2520,Note_off_c,9,47,0,
2,2520,Note_off_c,9,48,0,
2,2520,Note_off_c,9,49,0,
2,2520,Note_off_c,9,50,0,
2,2520,Note_off_c,9,51,0,
2,2520,Note_off_c,9,56,0,
2,2520,Note_off_c,9,57,0,
2,2520,Note_off_c,9,59,0,
2,2520,Note_off_c,9,60,0,
2,2520,Note_off_c,9,61,0,
2,2520,Note_off_c,9,63,0,
2,2520,Note_off_c,9,68,0,
2,2520,Note_off_c,9,69,0,
2,2520,Note_off_c,9,70,0,
2,2520,Note_off_c,9,76,0,
2,2520,Note_off_c,9,80,0,
2,2520,Note_off_c,9,81,0,
2,2520,Note_off_c,9,82,0,
2,2520,Note_off_c,9,87,0,
2,2520,Note_off_c,9,88,0,
2,2520,Note_off_c,9,89,0,
2,2520,Note_off_c,9,91,0,
2,2520,Note_off_c,9,93,0,
2,2550,Note_off_c,9,35,0,
2,2550,Note_off_c,9,36,0,
2,2550,Note_off_c,9,37,0,
2,2550,Note_off_c,9,38,0,
2,2550,Note_off_c,9,39,0,
2,2550,Note_off_c,9,40,0,
2,2550,Note_off_c,9,41,0,
2,2550,Note_off_c,9,42,0,
2,2550,Note_off_c,9,43,0,
2,2550,Note_off_c,9,44,0,
2,2550,Note_off_c,9,45,0,
2,2550,Note_off_c,9,46,0,
2,2550,Note_off_c,9,47,0,
2,2550,Note_off_c,9,48,0,
2,2550,Note_off_c,9,49,0,
2,2550,Note_off_c,9,50,0,
2,2550,Note_off_c,9,51,0,
2,2550,Note_off_c,9,56,0,
2,2550,Note_off_c,9,57,0,
2,2550,Note_off_c,9,59,0,
2,2550,Note_off_c,9,60,0,
2,2550,Note_off_c,9,61,0,
2,2550,Note_off_c,9,63,0,
2,2550,Note_off_c,9,68,0,
2,2550,Note_off_c,9,69,0,
2,2550,Note_off_c,9,70,0,
2,2550,Note_off_c,9,76,0,
2,2550,Note_off_c,9,80,0,
2,2550,Note_off_c,9,81,0,
2,2550,Note_off_c,9,82,0,
2,2550,Note_off_c,9,87,0,
2,2550,Note_off_c,9,88,0,
2,2550,Note_off_c,9,89,0,
2,2550,Note_off_c,9,91,0,
2,2550,Note_off_c,9,93,0,
2,2580,Note_off_c,9,35,0,
2,2580,Note_off_c,9,36,0,
2,2580,Note_off_c,9,37,0,
2,2580,Note_off_c,9,38,0,
2,2580,Note_off_c,9,39,0,
2,2580,Note_off_c,9,40,0,
2,2580,Note_off_c,9,41,0,
2,2580,Note_off_c,9,42,0,
2,2580,Note_off_c,9,43,0,
2,2580,Note_off_c,9,44,0,
2,2580,Note_off_c,9,45,0,
2,2580,Note_off_c,9,46,0,
2,2580,Note_off_c,9,47,0,
2,2580,Note_off_c,9,48,0,
2,2580,Note_off_c,9,49,0,
2,2580,Note_off_c,9,50,0,
2,2580,Note_off_c,9,51,0,
2,2580,Note_off_c,9,56,0,
2,2580,Note_off_c,9,57,0,
2,2580,Note_off_c,9,59,0,
2,2580,Note_off_c,9,60,0,
2,2580,Note_off_c,9,61,0,
2,2580,Note_off_c,9,63,0,
2,2580,Note_off_c,9,68,0,
2,2580,Note_off_c,9,69,0,
2,2580,Note_off_c,9,70,0,
2,2580,Note_off_c,9,76,0,
2,2580,Note_off_c,9,80,0,
2,2580,Note_off_c,9,81,0,
2,2580,Note_off_c,9,82,0,
2,2580,Note_off_c,9,87,0,
2,2580,Note_off_c,9,88,0,
2,2580,Note_off_c,9,89,0,
2,2580,Note_off_c,9,91,0,
2,2580,Note_off_c,9,93,0,
2,2610,Note_off_c,9,35,0,
2,2610,Note_off_c,9,36,0,
2,2610,Note_off_c,9,37,0,
2,2610,Note_off_c,9,38,0,
2,2610,Note_off_c,9,39,0,
2,2610,Note_off_c,9,40,0,
2,2610,Note_off_c,9,41,0,
2,2610,Note_off_c,9,42,0,
2,2610,Note_off_c,9,43,0,
2,2610,Note_off_c,9,44,0,
2,2610,Note_off_c,9,45,0,
2,2610,Note_off_c,9,46,0,
2,2610,Note_off_c,9,47,0,
2,2610,Note_off_c,9,48,0,
2,2610,Note_off_c,9,49,0,
2,2610,Note_off_c,9,50,0,
2,2610,Note_off_c,9,51,0,
2,2610,Note_off_c,9,56,0,
2,2610,Note_off_c,9,57,0,
2,2610,Note_off_c,9,59,0,
2,2610,Note_off_c,9,60,0,
2,2610,Note_off_c,9,61,0,
2,2610,Note_off_c,9,63,0,
2,2610,Note_off_c,9,68,0,
2,2610,Note_off_c,9,69,0,
2,2610,Note_off_c,9,70,0,
2,2610,Note_off_c,9,76,0,
2,2610,Note_off_c,9,80,0,
2,2610,Note_off_c,9,81,0,
2,2610,Note_off_c,9,82,0,
2,2610,Note_off_c,9,87,0,
2,2610,Note_off_c,9,88,0,
2,2610,Note_off_c,9,89,0,
2,2610,Note_off_c,9,91,0,
2,2610,Note_off_c,9,93,0,
2,2640,Note_off_c,9,35,0,
2,2640,Note_off_c,9,36,0,
2,2640,Note_off_c,9,37,0,
2,2640,Note_off_c,9,38,0,
2,2640,Note_off_c,9,39,0,
2,2640,Note_off_c,9,40,0,
2,2640,Note_off_c,9,41,0,
2,2640,Note_off_c,9,42,0,
2,2640,Note_off_c,9,43,0,
2,2640,Note_off_c,9,44,0,
2,2640,Note_off_c,9,45,0,
2,2640,Note_off_c,9,46,0,
2,2640,Note_off_c,9,47,0,
2,2640,Note_off_c,9,48,0,
2,2640,Note_off_c,9,49,0,
2,2640,Note_off_c,9,50,0,
2,2640,Note_off_c,9,51,0,
2,2640,Note_off_c,9,56,0,
2,2640,Note_off_c,9,57,0,
2,2640,Note_off_c,9,59,0,
2,2640,Note_off_c,9,60,0,
2,2640,Note_off_c,9,61,0,
2,2640,Note_off_c,9,63,0,
2,2640,Note_off_c,9,68,0,
2,2640,Note_off_c,9,69,0,
2,2640,Note_off_c,9,70,0,
2,2640,Note_off_c,9,76,0,
2,2640,Note_off_c,9,80,0,
2,2640,Note_off_c,9,81,0,
2,2640,Note_off_c,9,82,0,
2,2640,Note_off_c,9,87,0,
2,2640,Note_off_c,9,88,0,
2,2640,Note_off_c,9,89,0,
2,2640,Note_off_c,9,91,0,
2,2640,Note_off_c,9,93,0,
2,2670,Note_off_c,9,35,0,
2,2670,Note_off_c,9,36,0,
2,2670,Note_off_c,9,37,0,
2,2670,Note_off_c,9,38,0,
2,2670,Note_off_c,9,39,0,
2,2670,Note_off_c,9,40,0,
2,2670,Note_off_c,9,41,0,
2,2670,Note_off_c,9,42,0,
2,2670,Note_off_c,9,43,0,
2,2670,Note_off_c,9,44,0,
2,2670,Note_off_c,9,45,0,
2,2670,Note_off_c,9,46,0,
2,2670,Note_off_c,9,47,0,
2,2670,Note_off_c,9,48,0,
2,2670,Note_off_c,9,49,0,
2,2670,Note_off_c,9,50,0,
2,2670,Note_off_c,9,51,0,
2,2670,Note_off_c,9,56,0,
2,2670,Note_off_c,9,57,0,
2,2670,Note_off_c,9,59,0,
2,2670,Note_off_c,9,60,0,
2,2670,Note_off_c,9,61,0,
2,2670,Note_off_c,9,63,0,
2,2670,Note_off_c,9,68,0,
2,2670,Note_off_c,9,69,0,
2,2670,Note_off_c,9,70,0,
2,2670,Note_off_c,9,76,0,
2,2670,Note_off_c,9,80,0,
2,2670,Note_off_c,9,81,0,
2,2670,Note_off_c,9,82,0,
2,2670,Note_off_c,9,87,0,
2,2670,Note_off_c,9,88,0,
2,2670,Note_off_c,9,89,0,
2,2670,Note_off_c,9,91,0,
2,2670,Note_off_c,9,93,0,
2,2700,Note_off_c,9,35,0,
2,2700,Note_off_c,9,36,0,
2,2700,Note_off_c,9,37,0,
2,2700,Note_off_c,9,38,0,
2,2700,Note_off_c,9,39,0,
2,2700,Note_off_c,9,40,0,
2,2700,Note_off_c,9,41,0,
2,2700,Note_off_c,9,42,0,
2,2700,Note_off_c,9,43,0,
2,2700,Note_off_c,9,44,0,
2,2700,Note_off_c,9,45,0,
2,2700,Note_off_c,9,46,0,
2,2700,Note_off_c,9,47,0,
2,2700,Note_off_c,9,48,0,
2,2700,Note_off_c,9,49,0,
2,2700,Note_off_c,9,50,0,
2,2700,Note_off_c,9,51,0,
2,2700,Note_off_c,9,56,0,
2,2700,Note_off_c,9,57,0,
2,2700,Note_off_c,9,59,0,
2,2700,Note_off_c,9,60,0,
2,2700,Note_off_c,9,61,0,
2,2700,Note_off_c,9,63,0,
2,2700,Note_off_c,9,68,0,
2,2700,Note_off_c,9,69,0,
2,2700,Note_off_c,9,70,0,
2,2700,Note_off_c,9,76,0,
2,2700,Note_off_c,9,80,0,
2,2700,Note_off_c,9,81,0,
2,2700,Note_off_c,9,82,0,
2,2700,Note_off_c,9,87,0,
2,2700,Note_off_c,9,88,0,
2,2700,Note_off_c,9,89,0,
2,2700,Note_off_c,9,91,0,
2,2700,Note_off_c,9,93,0,
2,2730,Note_off_c,9,35,0,
2,2730,Note_off_c,9,36,0,
2,2730,Note_off_c,9,37,0,
2,2730,Note_off_c,9,38,0,
2,2730,Note_off_c,9,39,0,
2,2730,Note_off_c,9,40,0,
2,2730,Note_off_c,9,41,0,
2,2730,Note_off_c,9,42,0,
2,2730,Note_off_c,9,43,0,
2,2730,Note_off_c,9,44,0,
2,2730,Note_off_c,9,45,0,
2,2730,Note_off_c,9,46,0,
2,2730,Note_off_c,9,47,0,
2,2730,Note_off_c,9,48,0,
2,2730,Note_off_c,9,49,0,
2,2730,Note_off_c,9,50,0,
2,2730,Note_off_c,9,51,0,
2,2730,Note_off_c,9,56,0,
2,2730,Note_off_c,9,57,0,
2,2730,Note_off_c,9,59,0,
2,2730,Note_off_c,9,60,0,
2,2730,Note_off_c,9,61,0,
2,2730,Note_off_c,9,63,0,
2,2730,Note_off_c,9,68,0,
2,2730,Note_off_c,9,69,0,
2,2730,Note_off_c,9,70,0,
2,2730,Note_off_c,9,76,0,
2,2730,Note_off_c,9,80,0,
2,2730,Note_off_c,9,81,0,
2,2730,Note_off_c,9,82,0,
2,2730,Note_off_c,9,87,0,
2,2730,Note_off_c,9,88,0,
2,2730,Note_off_c,9,89,0,
2,2730,Note_off_c,9,91,0,
2,2730,Note_off_c,9,93,0,
2,2760,Note_off_c,9,35,0,
2,2760,Note_off_c,9,36,0,
2,2760,Note_off_c,9,37,0,
2,2760,Note_off_c,9,38,0,
2,2760,Note_off_c,9,39,0,
2,2760,Note_off_c,9,40,0,
2,2760,Note_off_c,9,41,0,
2,2760,Note_off_c,9,42,0,
2,2760,Note_off_c,9,43,0,
2,2760,Note_off_c,9,44,0,
2,2760,Note_off_c,9,45,0,
2,2760,Note_off_c,9,46,0,
2,2760,Note_off_c,9,47,0,
2,2760,Note_off_c,9,48,0,
2,2760,Note_off_c,9,49,0,
2,2760,Note_off_c,9,50,0,
2,2760,Note_off_c,9,51,0,
2,2760,Note_off_c,9,56,0,
2,2760,Note_off_c,9,57,0,
2,2760,Note_off_c,9,59,0,
2,2760,Note_off_c,9,60,0,
2,2760,Note_off_c,9,61,0,
2,2760,Note_off_c,9,63,0,
2,2760,Note_off_c,9,68,0,
2,2760,Note_off_c,9,69,0,
2,2760,Note_off_c,9,70,0,
2,2760,Note_off_c,9,76,0,
2,2760,Note_off_c,9,80,0,
2,2760,Note_off_c,9,81,0,
2,2760,Note_off_c,9,82,0,
2,2760,Note_off_c,9,87,0,
2,2760,Note_off_c,9,88,0,
2,2760,Note_off_c,9,89,0,
2,2760,Note_off_c,9,91,0,
2,2760,Note_off_c,9,93,0,
2,2790,Note_off_c,9,35,0,
2,2790,Note_off_c,9,36,0,
2,2790,Note_off_c,9,37,0,
2,2790,Note_off_c,9,38,0,
2,2790,Note_off_c,9,39,0,
2,2790,Note_off_c,9,40,0,
2,2790,Note_off_c,9,41,0,
2,2790,Note_off_c,9,42,0,
2,2790,Note_off_c,9,43,0,
2,2790,Note_off_c,9,44,0,
2,2790,Note_off_c,9,45,0,
2,2790,Note_off_c,9,46,0,
2,2790,Note_off_c,9,47,0,
2,2790,Note_off_c,9,48,0,
2,2790,Note_off_c,9,49,0,
2,2790,Note_off_c,9,50,0,
2,2790,Note_off_c,9,51,0,
2,2790,Note_off_c,9,56,0,
2,2790,Note_off_c,9,57,0,
2,2790,Note_off_c,9,59,0,
2,2790,Note_off_c,9,60,0,
2,2790,Note_off_c,9,61,0,
2,2790,Note_off_c,9,63,0,
2,2790,Note_off_c,9,68,0,
2,2790,Note_off_c,9,69,0,
2,2790,Note_off_c,9,70,0,
2,2790,Note_off_c,9,76,0,
2,2790,Note_off_c,9,80,0,
2,2790,Note_off_c,9,81,0,
2,2790,Note_off_c,9,82,0,
2,2790,Note_off_c,9,87,0,
2,2790,Note_off_c,9,88,0,
2,2790,Note_off_c,9,89,0,
2,2790,Note_off_c,9,91,0,
2,2790,Note_off_c,9,93,0,
2,2820,Note_off_c,9,35,0,
2,2820,Note_off_c,9,36,0,
2,2820,Note_off_c,9,37,0,
2,2820,Note_off_c,9,38,0,
2,2820,Note_off_c,9,39,0,
2,2820,Note_off_c,9,40,0,
2,2820,Note_off_c,9,41,0,
2,2820,Note_off_c,9,42,0,
2,2820,Note_off_c,9,43,0,
2,2820,Note_off_c,9,44,0,
2,2820,Note_off_c,9,45,0,
2,2820,Note_off_c,9,46,0,
2,2820,Note_off_c,9,47,0,
2,2820,Note_off_c,9,48,0,
2,2820,Note_off_c,9,49,0,
2,2820,Note_off_c,9,50,0,
2,2820,Note_off_c,9,51,0,
2,2820,Note_off_c,9,56,0,
2,2820,Note_off_c,9,57,0,
2,2820,Note_off_c,9,59,0,
2,2820,Note_off_c,9,60,0,
2,2820,Note_off_c,9,61,0,
2,2820,Note_off_c,9,63,0,
2,2820,Note_off_c,9,68,0,
2,2820,Note_off_c,9,69,0,
2,2820,Note_off_c,9,70,0,
2,2820,Note_off_c,9,76,0,
2,2820,Note_off_c,9,80,0,
2,2820,Note_off_c,9,81,0,
2,2820,Note_off_c,9,82,0,
2,2820,Note_off_c,9,87,0,
2,2820,Note_off_c,9,88,0,
2,2820,Note_off_c,9,89,0,
2,2820,Note_off_c,9,91,0,
2,2820,Note_off_c,9,93,0,
2,2850,Note_off_c,9,35,0,
2,2850,Note_off_c,9,36,0,
2,2850,Note_off_c,9,37,0,
2,2850,Note_off_c,9,38,0,
2,2850,Note_off_c,9,39,0,
2,2850,Note_off_c,9,40,0,
2,2850,Note_off_c,9,41,0,
2,2850,Note_off_c,9,42,0,
2,2850,Note_off_c,9,43,0,
2,2850,Note_off_c,9,44,0,
2,2850,Note_off_c,9,45,0,
2,2850,Note_off_c,9,46,0,
2,2850,Note_off_c,9,47,0,
2,2850,Note_off_c,9,48,0,
2,2850,Note_off_c,9,49,0,
2,2850,Note_off_c,9,50,0,
2,2850,Note_off_c,9,51,0,
2,2850,Note_off_c,9,56,0,
2,2850,Note_off_c,9,57,0,
2,2850,Note_off_c,9,59,0,
2,2850,Note_off_c,9,60,0,
2,2850,Note_off_c,9,61,0,
2,2850,Note_off_c,9,63,0,
2,2850,Note_off_c,9,68,0,
2,2850,Note_off_c,9,69,0,
2,2850,Note_off_c,9,70,0,
2,2850,Note_off_c,9,76,0,
2,2850,Note_off_c,9,80,0,
2,2850,Note_off_c,9,81,0,
2,2850,Note_off_c,9,82,0,
2,2850,Note_off_c,9,87,0,
2,2850,Note_off_c,9,88,0,
2,2850,Note_off_c,9,89,0,
2,2850,Note_off_c,9,91,0,
2,2850,Note_off_c,9,93,0,
2,2880,Note_off_c,9,35,0,
2,2880,Note_off_c,9,36,0,
2,2880,Note_off_c,9,37,0,
2,2880,Note_off_c,9,38,0,
2,2880,Note_off_c,9,39,0,
2,2880,Note_off_c,9,40,0,
2,2880,Note_off_c,9,41,0,
2,2880,Note_off_c,9,42,0,
2,2880,Note_off_c,9,43,0,
2,2880,Note_off_c,9,44,0,
2,2880,Note_off_c,9,45,0,
2,2880,Note_off_c,9,46,0,
2,2880,Note_off_c,9,47,0,
2,2880,Note_off_c,9,48,0,
2,2880,Note_off_c,9,49,0,
2,2880,Note_off_c,9,50,0,
2,2880,Note_off_c,9,51,0,
2,2880,Note_off_c,9,56,0,
2,2880,Note_off_c,9,57,0,
2,2880,Note_off_c,9,59,0,
2,2880,Note_off_c,9,60,0,
2,2880,Note_off_c,9,61,0,
2,2880,Note_off_c,9,63,0,
2,2880,Note_off_c,9,68,0,
2,2880,Note_off_c,9,69,0,
2,2880,Note_off_c,9,70,0,
2,2880,Note_off_c,9,76,0,
2,2880,Note_off_c,9,80,0,
2,2880,Note_off_c,9,81,0,
2,2880,Note_off_c,9,82,0,
2,2880,Note_off_c,9,87,0,
2,2880,Note_off_c,9,88,0,
2,2880,Note_off_c,9,89,0,
2,2880,Note_off_c,9,91,0,
2,2880,Note_off_c,9,93,0,
2,2910,Note_off_c,9,35,0,
2,2910,Note_off_c,9,36,0,
2,2910,Note_off_c,9,37,0,
2,2910,Note_off_c,9,38,0,
2,2910,Note_off_c,9,39,0,
2,2910,Note_off_c,9,40,0,
2,2910,Note_off_c,9,41,0,
2,2910,Note_off_c,9,42,0,
2,2910,Note_off_c,9,43,0,
2,2910,Note_off_c,9,44,0,
2,2910,Note_off_c,9,45,0,
2,2910,Note_off_c,9,46,0,
2,2910,Note_off_c,9,47,0,
2,2910,Note_off_c,9,48,0,
2,2910,Note_off_c,9,49,0,
2,2910,Note_off_c,9,50,0,
2,2910,Note_off_c,9,51,0,
2,2910,Note_off_c,9,56,0,
2,2910,Note_off_c,9,57,0,
2,2910,Note_off_c,9,59,0,
2,2910,Note_off_c,9,60,0,
2,2910,Note_off_c,9,61,0,
2,2910,Note_off_c,9,63,0,
2,2910,Note_off_c,9,68,0,
2,2910,Note_off_c,9,69,0,
2,2910,Note_off_c,9,70,0,
2,2910,Note_off_c,9,76,0,
2,2910,Note_off_c,9,80,0,
2,2910,Note_off_c,9,81,0,
2,2910,Note_off_c,9,82,0,
2,2910,Note_off_c,9,87,0,
2,2910,Note_off_c,9,88,0,
2,2910,Note_off_c,9,89,0,
2,2910,Note_off_c,9,91,0,
2,2910,Note_off_c,9,93,0,
2,2940,Note_off_c,9,35,0,
2,2940,Note_off_c,9,36,0,
2,2940,Note_off_c,9,37,0,
2,2940,Note_off_c,9,38,0,
2,2940,Note_off_c,9,39,0,
2,2940,Note_off_c,9,40,0,
2,2940,Note_off_c,9,41,0,
2,2940,Note_off_c,9,42,0,
2,2940,Note_off_c,9,43,0,
2,2940,Note_off_c,9,44,0,
2,2940,Note_off_c,9,45,0,
2,2940,Note_off_c,9,46,0,
2,2940,Note_off_c,9,47,0,
2,2940,Note_off_c,9,48,0,
2,2940,Note_off_c,9,49,0,
2,2940,Note_off_c,9,50,0,
2,2940,Note_off_c,9,51,0,
2,2940,Note_off_c,9,56,0,
2,2940,Note_off_c,9,57,0,
2,2940,Note_off_c,9,59,0,
2,2940,Note_off_c,9,60,0,
2,2940,Note_off_c,9,61,0,
2,2940,Note_off_c,9,63,0,
2,2940,Note_off_c,9,68,0,
2,2940,Note_off_c,9,69,0,
2,2940,Note_off_c,9,70,0,
2,2940,Note_off_c,9,76,0,
2,2940,Note_off_c,9,80,0,
2,2940,Note_off_c,9,81,0,
2,2940,Note_off_c,9,82,0,
2,2940,Note_off_c,9,87,0,
2,2940,Note_off_c,9,88,0,
2,2940,Note_off_c,9,89,0,
2,2940,Note_off_c,9,91,0,
2,2940,Note_off_c,9,93,0,
2,2970,Note_off_c,9,35,0,
2,2970,Note_off_c,9,36,0,
2,2970,Note_off_c,9,37,0,
2,2970,Note_off_c,9,38,0,
2,2970,Note_off_c,9,39,0,
2,2970,Note_off_c,9,40,0,
2,2970,Note_off_c,9,41,0,
2,2970,Note_off_c,9,42,0,
2,2970,Note_off_c,9,43,0,
2,2970,Note_off_c,9,44,0,
2,2970,Note_off_c,9,45,0,
2,2970,Note_off_c,9,46,0,
2,2970,Note_off_c,9,47,0,
2,2970,Note_off_c,9,48,0,
2,2970,Note_off_c,9,49,0,
2,2970,Note_off_c,9,50,0,
2,2970,Note_off_c,9,51,0,
2,2970,Note_off_c,9,56,0,
2,2970,Note_off_c,9,57,0,
2,2970,Note_off_c,9,59,0,
2,2970,Note_off_c,9,60,0,
2,2970,Note_off_c,9,61,0,
2,2970,Note_off_c,9,63,0,
2,2970,Note_off_c,9,68,0,
2,2970,Note_off_c,9,69,0,
2,2970,Note_off_c,9,70,0,
2,2970,Note_off_c,9,76,0,
2,2970,Note_off_c,9,80,0,
2,2970,Note_off_c,9,81,0,
2,2970,Note_off_c,9,82,0,
2,2970,Note_off_c,9,87,0,
2,2970,Note_off_c,9,88,0,
2,2970,Note_off_c,9,89,0,
2,2970,Note_off_c,9,91,0,
2,2970,Note_off_c,9,93,0,
2,3000,Note_off_c,9,35,0,
2,3000,Note_off_c,9,36,0,
2,3000,Note_off_c,9,37,0,
2,3000,Note_off_c,9,38,0,
2,3000,Note_off_c,9,39,0,
2,3000,Note_off_c,9,40,0,
2,3000,Note_off_c,9,41,0,
2,3000,Note_off_c,9,42,0,
2,3000,Note_off_c,9,43,0,
2,3000,Note_off_c,9,44,0,
2,3000,Note_off_c,9,45,0,
2,3000,Note_off_c,9,46,0,
2,3000,Note_off_c,9,47,0,
2,3000,Note_off_c,9,48,0,
2,3000,Note_off_c,9,49,0,
2,3000,Note_off_c,9,50,0,
2,3000,Note_off_c,9,51,0,
2,3000,Note_off_c,9,56,0,
2,3000,Note_off_c,9,57,0,
2,3000,Note_off_c,9,59,0,
2,3000,Note_off_c,9,60,0,
2,3000,Note_off_c,9,61,0,
2,3000,Note_off_c,9,63,0,
2,3000,Note_off_c,9,68,0,
2,3000,Note_off_c,9,69,0,
2,3000,Note_off_c,9,70,0,
2,3000,Note_off_c,9,76,0,
2,3000,Note_off_c,9,80,0,
2,3000,Note_off_c,9,81,0,
2,3000,Note_off_c,9,82,0,
2,3000,Note_off_c,9,87,0,
2,3000,Note_off_c,9,88,0,
2,3000,Note_off_c,9,89,0,
2,3000,Note_off_c,9,91,0,
2,3000,Note_off_c,9,93,0,
2,3030,Note_off_c,9,35,0,
2,3030,Note_off_c,9,36,0,
2,3030,Note_off_c,9,37,0,
2,3030,Note_off_c,9,38,0,
2,3030,Note_off_c,9,39,0,
2,3030,Note_off_c,9,40,0,
2,3030,Note_off_c,9,41,0,
2,3030,Note_off_c,9,42,0,
2,3030,Note_off_c,9,43,0,
2,3030,Note_off_c,9,44,0,
2,3030,Note_off_c,9,45,0,
2,3030,Note_off_c,9,46,0,
2,3030,Note_off_c,9,47,0,
2,3030,Note_off_c,9,48,0,
2,3030,Note_off_c,9,49,0,
2,3030,Note_off_c,9,50,0,
2,3030,Note_off_c,9,51,0,
2,3030,Note_off_c,9,56,0,
2,3030,Note_off_c,9,57,0,
2,3030,Note_off_c,9,59,0,
2,3030,Note_off_c,9,60,0,
2,3030,Note_off_c,9,61,0,
2,3030,Note_off_c,9,63,0,
2,3030,Note_off_c,9,68,0,
2,3030,Note_off_c,9,69,0,
2,3030,Note_off_c,9,70,0,
2,3030,Note_off_c,9,76,0,
2,3030,Note_off_c,9,80,0,
2,3030,Note_off_c,9,81,0,
2,3030,Note_off_c,9,82,0,
2,3030,Note_off_c,9,87,0,
2,3030,Note_off_c,9,88,0,
2,3030,Note_off_c,9,89,0,
2,3030,Note_off_c,9,91,0,
2,3030,Note_off_c,9,93,0,
2,3060,Note_off_c,9,35,0,
2,3060,Note_off_c,9,36,0,
2,3060,Note_off_c,9,37,0,
2,3060,Note_off_c,9,38,0,
2,3060,Note_off_c,9,39,0,
2,3060,Note_off_c,9,40,0,
2,3060,Note_off_c,9,41,0,
2,3060,Note_off_c,9,42,0,
2,3060,Note_off_c,9,43,0,
2,3060,Note_off_c,9,44,0,
2,3060,Note_off_c,9,45,0,
2,3060,Note_off_c,9,46,0,
2,3060,Note_off_c,9,47,0,
2,3060,Note_off_c,9,48,0,
2,3060,Note_off_c,9,49,0,
2,3060,Note_off_c,9,50,0,
2,3060,Note_off_c,9,51,0,
2,3060,Note_off_c,9,56,0,
2,3060,Note_off_c,9,57,0,
2,3060,Note_off_c,9,59,0,
2,3060,Note_off_c,9,60,0,
2,3060,Note_off_c,9,61,0,
2,3060,Note_off_c,9,63,0,
2,3060,Note_off_c,9,68,0,
2,3060,Note_off_c,9,69,0,
2,3060,Note_off_c,9,70,0,
2,3060,Note_off_c,9,76,0,
2,3060,Note_off_c,9,80,0,
2,3060,Note_off_c,9,81,0,
2,3060,Note_off_c,9,82,0,
2,3060,Note_off_c,9,87,0,
2,3060,Note_off_c,9,88,0,
2,3060,Note_off_c,9,89,0,
2,3060,Note_off_c,9,91,0,
2,3060,Note_off_c,9,93,0,
2,3090,Note_off_c,9,35,0,
2,3090,Note_off_c,9,36,0,
2,3090,Note_off_c,9,37,0,
2,3090,Note_off_c,9,38,0,
2,3090,Note_off_c,9,39,0,
2,3090,Note_off_c,9,40,0,
2,3090,Note_off_c,9,41,0,
2,3090,Note_off_c,9,42,0,
2,3090,Note_off_c,9,43,0,
2,3090,Note_off_c,9,44,0,
2,3090,Note_off_c,9,45,0,
2,3090,Note_off_c,9,46,0,
2,3090,Note_off_c,9,47,0,
2,3090,Note_off_c,9,48,0,
2,3090,Note_off_c,9,49,0,
2,3090,Note_off_c,9,50,0,
2,3090,Note_off_c,9,51,0,
2,3090,Note_off_c,9,56,0,
2,3090,Note_off_c,9,57,0,
2,3090,Note_off_c,9,59,0,
2,3090,Note_off_c,9,60,0,
2,3090,Note_off_c,9,61,0,
2,3090,Note_off_c,9,63,0,
2,3090,Note_off_c,9,68,0,
2,3090,Note_off_c,9,69,0,
2,3090,Note_off_c,9,70,0,
2,3090,Note_off_c,9,76,0,
2,3090,Note_off_c,9,80,0,
2,3090,Note_off_c,9,81,0,
2,3090,Note_off_c,9,82,0,
2,3090,Note_off_c,9,87,0,
2,3090,Note_off_c,9,88,0,
2,3090,Note_off_c,9,89,0,
2,3090,Note_off_c,9,91,0,
2,3090,Note_off_c,9,93,0,
2,3120,Note_off_c,9,35,0,
2,3120,Note_off_c,9,36,0,
2,3120,Note_off_c,9,37,0,
2,3120,Note_off_c,9,38,0,
2,3120,Note_off_c,9,39,0,
2,3120,Note_off_c,9,40,0,
2,3120,Note_off_c,9,41,0,
2,3120,Note_off_c,9,42,0,
2,3120,Note_off_c,9,43,0,
2,3120,Note_off_c,9,44,0,
2,3120,Note_off_c,9,45,0,
2,3120,Note_off_c,9,46,0,
2,3120,Note_off_c,9,47,0,
2,3120,Note_off_c,9,48,0,
2,3120,Note_off_c,9,49,0,
2,3120,Note_off_c,9,50,0,
2,3120,Note_off_c,9,51,0,
2,3120,Note_off_c,9,56,0,
2,3120,Note_off_c,9,57,0,
2,3120,Note_off_c,9,59,0,
2,3120,Note_off_c,9,60,0,
2,3120,Note_off_c,9,61,0,
2,3120,Note_off_c,9,63,0,
2,3120,Note_off_c,9,68,0,
2,3120,Note_off_c,9,69,0,
2,3120,Note_off_c,9,70,0,
2,3120,Note_off_c,9,76,0,
2,3120,Note_off_c,9,80,0,
2,3120,Note_off_c,9,81,0,
2,3120,Note_off_c,9,82,0,
2,3120,Note_off_c,9,87,0,
2,3120,Note_off_c,9,88,0,
2,3120,Note_off_c,9,89,0,
2,3120,Note_off_c,9,91,0,
2,3120,Note_off_c,9,93,0,
2,3150,Note_off_c,9,35,0,
2,3150,Note_off_c,9,36,0,
2,3150,Note_off_c,9,37,0,
2,3150,Note_off_c,9,38,0,
2,3150,Note_off_c,9,39,0,
2,3150,Note_off_c,9,40,0,
2,3150,Note_off_c,9,41,0,
2,3150,Note_off_c,9,42,0,
2,3150,Note_off_c,9,43,0,
2,3150,Note_off_c,9,44,0,
2,3150,Note_off_c,9,45,0,
2,3150,Note_off_c,9,46,0,
2,3150,Note_off_c,9,47,0,
2,3150,Note_off_c,9,48,0,
2,3150,Note_off_c,9,49,0,
2,3150,Note_off_c,9,50,0,
2,3150,Note_off_c,9,51,0,
2,3150,Note_off_c,9,56,0,
2,3150,Note_off_c,9,57,0,
2,3150,Note_off_c,9,59,0,
2,3150,Note_off_c,9,60,0,
2,3150,Note_off_c,9,61,0,
2,3150,Note_off_c,9,63,0,
2,3150,Note_off_c,9,68,0,
2,3150,Note_off_c,9,69,0,
2,3150,Note_off_c,9,70,0,
2,3150,Note_off_c,9,76,0,
2,3150,Note_off_c,9,80,0,
2,3150,Note_off_c,9,81,0,
2,3150,Note_off_c,9,82,0,
2,3150,Note_off_c,9,87,0,
2,3150,Note_off_c,9,88,0,
2,3150,Note_off_c,9,89,0,
2,3150,Note_off_c,9,91,0,
2,3150,Note_off_c,9,93,0,
2,3180,Note_off_c,9,35,0,
2,3180,Note_off_c,9,36,0,
2,3180,Note_off_c,9,37,0,
2,3180,Note_off_c,9,38,0,
2,3180,Note_off_c,9,39,0,
2,3180,Note_off_c,9,40,0,
2,3180,Note_off_c,9,41,0,
2,3180,Note_off_c,9,42,0,
2,3180,Note_off_c,9,43,0,
2,3180,Note_off_c,9,44,0,
2,3180,Note_off_c,9,45,0,
2,3180,Note_off_c,9,46,0,
2,3180,Note_off_c,9,47,0,
2,3180,Note_off_c,9,48,0,
2,3180,Note_off_c,9,49,0,
2,3180,Note_off_c,9,50,0,
2,3180,Note_off_c,9,51,0,
2,3180,Note_off_c,9,56,0,
2,3180,Note_off_c,9,57,0,
2,3180,Note_off_c,9,59,0,
2,3180,Note_off_c,9,60,0,
2,3180,Note_off_c,9,61,0,
2,3180,Note_off_c,9,63,0,
2,3180,Note_off_c,9,68,0,
2,3180,Note_off_c,9,69,0,
2,3180,Note_off_c,9,70,0,
2,3180,Note_off_c,9,76,0,
2,3180,Note_off_c,9,80,0,
2,3180,Note_off_c,9,81,0,
2,3180,Note_off_c,9,82,0,
2,3180,Note_off_c,9,87,0,
2,3180,Note_off_c,9,88,0,
2,3180,Note_off_c,9,89,0,
2,3180,Note_off_c,9,91,0,
2,3180,Note_off_c,9,93,0,
2,3210,Note_off_c,9,35,0,
2,3210,Note_off_c,9,36,0,
2,3210,Note_off_c,9,37,0,
2,3210,Note_off_c,9,38,0,
2,3210,Note_off_c,9,39,0,
2,3210,Note_off_c,9,40,0,
2,3210,Note_off_c,9,41,0,
2,3210,Note_off_c,9,42,0,
2,3210,Note_off_c,9,43,0,
2,3210,Note_off_c,9,44,0,
2,3210,Note_off_c,9,45,0,
2,3210,Note_off_c,9,46,0,
2,3210,Note_off_c,9,47,0,
2,3210,Note_off_c,9,48,0,
2,3210,Note_off_c,9,49,0,
2,3210,Note_off_c,9,50,0,
2,3210,Note_off_c,9,51,0,
2,3210,Note_off_c,9,56,0,
2,3210,Note_off_c,9,57,0,
2,3210,Note_off_c,9,59,0,
2,3210,Note_off_c,9,60,0,
2,3210,Note_off_c,9,61,0,
2,3210,Note_off_c,9,63,0,
2,3210,Note_off_c,9,68,0,
2,3210,Note_off_c,9,69,0,
2,3210,Note_off_c,9,70,0,
2,3210,Note_off_c,9,76,0,
2,3210,Note_off_c,9,80,0,
2,3210,Note_off_c,9,81,0,
2,3210,Note_off_c,9,82,0,
2,3210,Note_off_c,9,87,0,
2,3210,Note_off_c,9,88,0,
2,3210,Note_off_c,9,89,0,
2,3210,Note_off_c,9,91,0,
2,3210,Note_off_c,9,93,0,
2,3240,Note_off_c,9,35,0,
2,3240,Note_off_c,9,36,0,
2,3240,Note_off_c,9,37,0,
2,3240,Note_off_c,9,38,0,
2,3240,Note_off_c,9,39,0,
2,3240,Note_off_c,9,40,0,
2,3240,Note_off_c,9,41,0,
2,3240,Note_off_c,9,42,0,
2,3240,Note_off_c,9,43,0,
2,3240,Note_off_c,9,44,0,
2,3240,Note_off_c,9,45,0,
2,3240,Note_off_c,9,46,0,
2,3240,Note_off_c,9,47,0,
2,3240,Note_off_c,9,48,0,
2,3240,Note_off_c,9,49,0,
2,3240,Note_off_c,9,50,0,
2,3240,Note_off_c,9,51,0,
2,3240,Note_off_c,9,56,0,
2,3240,Note_off_c,9,57,0,
2,3240,Note_off_c,9,59,0,
2,3240,Note_off_c,9,60,0,
2,3240,Note_off_c,9,61,0,
2,3240,Note_off_c,9,63,0,
2,3240,Note_off_c,9,68,0,
2,3240,Note_off_c,9,69,0,
2,3240,Note_off_c,9,70,0,
2,3240,Note_off_c,9,76,0,
2,3240,Note_off_c,9,80,0,
2,3240,Note_off_c,9,81,0,
2,3240,Note_off_c,9,82,0,
2,3240,Note_off_c,9,87,0,
2,3240,Note_off_c,9,88,0,
2,3240,Note_off_c,9,89,0,
2,3240,Note_off_c,9,91,0,
2,3240,Note_off_c,9,93,0,
2,3270,Note_off_c,9,35,0,
2,3270,Note_off_c,9,36,0,
2,3270,Note_off_c,9,37,0,
2,3270,Note_off_c,9,38,0,
2,3270,Note_off_c,9,39,0,
2,3270,Note_off_c,9,40,0,
2,3270,Note_off_c,9,41,0,
2,3270,Note_off_c,9,42,0,
2,3270,Note_off_c,9,43,0,
2,3270,Note_off_c,9,44,0,
2,3270,Note_off_c,9,45,0,
2,3270,Note_off_c,9,46,0,
2,3270,Note_off_c,9,47,0,
2,3270,Note_off_c,9,48,0,
2,3270,Note_off_c,9,49,0,
2,3270,Note_off_c,9,50,0,
2,3270,Note_off_c,9,51,0,
2,3270,Note_off_c,9,56,0,
2,3270,Note_off_c,9,57,0,
2,3270,Note_off_c,9,59,0,
2,3270,Note_off_c,9,60,0,
2,3270,Note_off_c,9,61,0,
2,3270,Note_off_c,9,63,0,
2,3270,Note_off_c,9,68,0,
2,3270,Note_off_c,9,69,0,
2,3270,Note_off_c,9,70,0,
2,3270,Note_off_c,9,76,0,
2,3270,Note_off_c,9,80,0,
2,3270,Note_off_c,9,81,0,
2,3270,Note_off_c,9,82,0,
2,3270,Note_off_c,9,87,0,
2,3270,Note_off_c,9,88,0,
2,3270,Note_off_c,9,89,0,
2,3270,Note_off_c,9,91,0,
2,3270,Note_off_c,9,93,0,
2,3300,Note_off_c,9,35,0,
2,3300,Note_off_c,9,36,0,
2,3300,Note_off_c,9,37,0,
2,3300,Note_off_c,9,38,0,
2,3300,Note_off_c,9,39,0,
2,3300,Note_off_c,9,40,0,
2,3300,Note_off_c,9,41,0,
2,3300,Note_off_c,9,42,0,
2,3300,Note_off_c,9,43,0,
2,3300,Note_off_c,9,44,0,
2,3300,Note_off_c,9,45,0,
2,3300,Note_off_c,9,46,0,
2,3300,Note_off_c,9,47,0,
2,3300,Note_off_c,9,48,0,
2,3300,Note_off_c,9,49,0,
2,3300,Note_off_c,9,50,0,
2,3300,Note_off_c,9,51,0,
2,3300,Note_off_c,9,56,0,
2,3300,Note_off_c,9,57,0,
2,3300,Note_off_c,9,59,0,
2,3300,Note_off_c,9,60,0,
2,3300,Note_off_c,9,61,0,
2,3300,Note_off_c,9,63,0,
2,3300,Note_off_c,9,68,0,
2,3300,Note_off_c,9,69,0,
2,3300,Note_off_c,9,70,0,
2,3300,Note_off_c,9,76,0,
2,3300,Note_off_c,9,80,0,
2,3300,Note_off_c,9,81,0,
2,3300,Note_off_c,9,82,0,
2,3300,Note_off_c,9,87,0,
2,3300,Note_off_c,9,88,0,
2,3300,Note_off_c,9,89,0,
2,3300,Note_off_c,9,91,0,
2,3300,Note_off_c,9,93,0,
2,3330,Note_off_c,9,35,0,
2,3330,Note_off_c,9,36,0,
2,3330,Note_off_c,9,37,0,
2,3330,Note_off_c,9,38,0,
2,3330,Note_off_c,9,39,0,
2,3330,Note_off_c,9,40,0,
2,3330,Note_off_c,9,41,0,
2,3330,Note_off_c,9,42,0,
2,3330,Note_off_c,9,43,0,
2,3330,Note_off_c,9,44,0,
2,3330,Note_off_c,9,45,0,
2,3330,Note_off_c,9,46,0,
2,3330,Note_off_c,9,47,0,
2,3330,Note_off_c,9,48,0,
2,3330,Note_off_c,9,49,0,
2,3330,Note_off_c,9,50,0,
2,3330,Note_off_c,9,51,0,
2,3330,Note_off_c,9,56,0,
2,3330,Note_off_c,9,57,0,
2,3330,Note_off_c,9,59,0,
2,3330,Note_off_c,9,60,0,
2,3330,Note_off_c,9,61,0,
2,3330,Note_off_c,9,63,0,
2,3330,Note_off_c,9,68,0,
2,3330,Note_off_c,9,69,0,
2,3330,Note_off_c,9,70,0,
2,3330,Note_off_c,9,76,0,
2,3330,Note_off_c,9,80,0,
2,3330,Note_off_c,9,81,0,
2,3330,Note_off_c,9,82,0,
2,3330,Note_off_c,9,87,0,
2,3330,Note_off_c,9,88,0,
2,3330,Note_off_c,9,89,0,
2,3330,Note_off_c,9,91,0,
2,3330,Note_off_c,9,93,0,
2,3360,Note_off_c,9,35,0,
2,3360,Note_off_c,9,36,0,
2,3360,Note_off_c,9,37,0,
2,3360,Note_off_c,9,38,0,
2,3360,Note_off_c,9,39,0,
2,3360,Note_off_c,9,40,0,
2,3360,Note_off_c,9,41,0,
2,3360,Note_off_c,9,42,0,
2,3360,Note_off_c,9,43,0,
2,3360,Note_off_c,9,44,0,
2,3360,Note_off_c,9,45,0,
2,3360,Note_off_c,9,46,0,
2,3360,Note_off_c,9,47,0,
2,3360,Note_off_c,9,48,0,
2,3360,Note_off_c,9,49,0,
2,3360,Note_off_c,9,50,0,
2,3360,Note_off_c,9,51,0,
2,3360,Note_off_c,9,56,0,
2,3360,Note_off_c,9,57,0,
2,3360,Note_off_c,9,59,0,
2,3360,Note_off_c,9,60,0,
2,3360,Note_off_c,9,61,0,
2,3360,Note_off_c,9,63,0,
2,3360,Note_off_c,9,68,0,
2,3360,Note_off_c,9,69,0,
2,3360,Note_off_c,9,70,0,
2,3360,Note_off_c,9,76,0,
2,3360,Note_off_c,9,80,0,
2,3360,Note_off_c,9,81,0,
2,3360,Note_off_c,9,82,0,
2,3360,Note_off_c,9,87,0,
2,3360,Note_off_c,9,88,0,
2,3360,Note_off_c,9,89,0,
2,3360,Note_off_c,9,91,0,
2,3360,Note_off_c,9,93,0,
2,3390,Note_off_c,9,35,0,
2,3390,Note_off_c,9,36,0,
2,3390,Note_off_c,9,37,0,
2,3390,Note_off_c,9,38,0,
2,3390,Note_off_c,9,39,0,
2,3390,Note_off_c,9,40,0,
2,3390,Note_off_c,9,41,0,
2,3390,Note_off_c,9,42,0,
2,3390,Note_off_c,9,43,0,
2,3390,Note_off_c,9,44,0,
2,3390,Note_off_c,9,45,0,
2,3390,Note_off_c,9,46,0,
2,3390,Note_off_c,9,47,0,
2,3390,Note_off_c,9,48,0,
2,3390,Note_off_c,9,49,0,
2,3390,Note_off_c,9,50,0,
2,3390,Note_off_c,9,51,0,
2,3390,Note_off_c,9,56,0,
2,3390,Note_off_c,9,57,0,
2,3390,Note_off_c,9,59,0,
2,3390,Note_off_c,9,60,0,
2,3390,Note_off_c,9,61,0,
2,3390,Note_off_c,9,63,0,
2,3390,Note_off_c,9,68,0,
2,3390,Note_off_c,9,69,0,
2,3390,Note_off_c,9,70,0,
2,3390,Note_off_c,9,76,0,
2,3390,Note_off_c,9,80,0,
2,3390,Note_off_c,9,81,0,
2,3390,Note_off_c,9,82,0,
2,3390,Note_off_c,9,87,0,
2,3390,Note_off_c,9,88,0,
2,3390,Note_off_c,9,89,0,
2,3390,Note_off_c,9,91,0,
2,3390,Note_off_c,9,93,0,
2,3420,Note_off_c,9,35,0,
2,3420,Note_off_c,9,36,0,
2,3420,Note_off_c,9,37,0,
2,3420,Note_off_c,9,38,0,
2,3420,Note_off_c,9,39,0,
2,3420,Note_off_c,9,40,0,
2,3420,Note_off_c,9,41,0,
2,3420,Note_off_c,9,42,0,
2,3420,Note_off_c,9,43,0,
2,3420,Note_off_c,9,44,0,
2,3420,Note_off_c,9,45,0,
2,3420,Note_off_c,9,46,0,
2,3420,Note_off_c,9,47,0,
2,3420,Note_off_c,9,48,0,
2,3420,Note_off_c,9,49,0,
2,3420,Note_off_c,9,50,0,
2,3420,Note_off_c,9,51,0,
2,3420,Note_off_c,9,56,0,
2,3420,Note_off_c,9,57,0,
2,3420,Note_off_c,9,59,0,
2,3420,Note_off_c,9,60,0,
2,3420,Note_off_c,9,61,0,
2,3420,Note_off_c,9,63,0,
2,3420,Note_off_c,9,68,0,
2,3420,Note_off_c,9,69,0,
2,3420,Note_off_c,9,70,0,
2,3420,Note_off_c,9,76,0,
2,3420,Note_off_c,9,80,0,
2,3420,Note_off_c,9,81,0,
2,3420,Note_off_c,9,82,0,
2,3420,Note_off_c,9,87,0,
2,3420,Note_off_c,9,88,0,
2,3420,Note_off_c,9,89,0,
2,3420,Note_off_c,9,91,0,
2,3420,Note_off_c,9,93,0,
2,3450,Note_off_c,9,35,0,
2,3450,Note_off_c,9,36,0,
2,3450,Note_off_c,9,37,0,
2,3450,Note_off_c,9,38,0,
2,3450,Note_off_c,9,39,0,
2,3450,Note_off_c,9,40,0,
2,3450,Note_off_c,9,41,0,
2,3450,Note_off_c,9,42,0,
2,3450,Note_off_c,9,43,0,
2,3450,Note_off_c,9,44,0,
2,3450,Note_off_c,9,45,0,
2,3450,Note_off_c,9,46,0,
2,3450,Note_off_c,9,47,0,
2,3450,Note_off_c,9,48,0,
2,3450,Note_off_c,9,49,0,
2,3450,Note_off_c,9,50,0,
2,3450,Note_off_c,9,51,0,
2,3450,Note_off_c,9,56,0,
2,3450,Note_off_c,9,57,0,
2,3450,Note_off_c,9,59,0,
2,3450,Note_off_c,9,60,0,
2,3450,Note_off_c,9,61,0,
2,3450,Note_off_c,9,63,0,
2,3450,Note_off_c,9,68,0,
2,3450,Note_off_c,9,69,0,
2,3450,Note_off_c,9,70,0,
2,3450,Note_off_c,9,76,0,
2,3450,Note_off_c,9,80,0,
2,3450,Note_off_c,9,81,0,
2,3450,Note_off_c,9,82,0,
2,3450,Note_off_c,9,87,0,
2,3450,Note_off_c,9,88,0,
2,3450,Note_off_c,9,89,0,
2,3450,Note_off_c,9,91,0,
2,3450,Note_off_c,9,93,0,
2,3480,Note_off_c,9,35,0,
2,3480,Note_off_c,9,36,0,
2,3480,Note_off_c,9,37,0,
2,3480,Note_off_c,9,38,0,
2,3480,Note_off_c,9,39,0,
2,3480,Note_off_c,9,40,0,
2,3480,Note_off_c,9,41,0,
2,3480,Note_off_c,9,42,0,
2,3480,Note_off_c,9,43,0,
2,3480,Note_off_c,9,44,0,
2,3480,Note_off_c,9,45,0,
2,3480,Note_off_c,9,46,0,
2,3480,Note_off_c,9,47,0,
2,3480,Note_off_c,9,48,0,
2,3480,Note_off_c,9,49,0,
2,3480,Note_off_c,9,50,0,
2,3480,Note_off_c,9,51,0,
2,3480,Note_off_c,9,56,0,
2,3480,Note_off_c,9,57,0,
2,3480,Note_off_c,9,59,0,
2,3480,Note_off_c,9,60,0,
2,3480,Note_off_c,9,61,0,
2,3480,Note_off_c,9,63,0,
2,3480,Note_off_c,9,68,0,
2,3480,Note_off_c,9,69,0,
2,3480,Note_off_c,9,70,0,
2,3480,Note_off_c,9,76,0,
2,3480,Note_off_c,9,80,0,
2,3480,Note_off_c,9,81,0,
2,3480,Note_off_c,9,82,0,
2,3480,Note_off_c,9,87,0,
2,3480,Note_off_c,9,88,0,
2,3480,Note_off_c,9,89,0,
2,3480,Note_off_c,9,91,0,
2,3480,Note_off_c,9,93,0,
2,3510,Note_off_c,9,35,0,
2,3510,Note_off_c,9,36,0,
2,3510,Note_off_c,9,37,0,
2,3510,Note_off_c,9,38,0,
2,3510,Note_off_c,9,39,0,
2,3510,Note_off_c,9,40,0,
2,3510,Note_off_c,9,41,0,
2,3510,Note_off_c,9,42,0,
2,3510,Note_off_c,9,43,0,
2,3510,Note_off_c,9,44,0,
2,3510,Note_off_c,9,45,0,
2,3510,Note_off_c,9,46,0,
2,3510,Note_off_c,9,47,0,
2,3510,Note_off_c,9,48,0,
2,3510,Note_off_c,9,49,0,
2,3510,Note_off_c,9,50,0,
2,3510,Note_off_c,9,51,0,
2,3510,Note_off_c,9,56,0,
2,3510,Note_off_c,9,57,0,
2,3510,Note_off_c,9,59,0,
2,3510,Note_off_c,9,60,0,
2,3510,Note_off_c,9,61,0,
2,3510,Note_off_c,9,63,0,
2,3510,Note_off_c,9,68,0,
2,3510,Note_off_c,9,69,0,
2,3510,Note_off_c,9,70,0,
2,3510,Note_off_c,9,76,0,
2,3510,Note_off_c,9,80,0,
2,3510,Note_off_c,9,81,0,
2,3510,Note_off_c,9,82,0,
2,3510,Note_off_c,9,87,0,
2,3510,Note_off_c,9,88,0,
2,3510,Note_off_c,9,89,0,
2,3510,Note_off_c,9,91,0,
2,3510,Note_off_c,9,93,0,
2,3540,Note_off_c,9,35,0,
2,3540,Note_off_c,9,36,0,
2,3540,Note_off_c,9,37,0,
2,3540,Note_off_c,9,38,0,
2,3540,Note_off_c,9,39,0,
2,3540,Note_off_c,9,40,0,
2,3540,Note_off_c,9,41,0,
2,3540,Note_off_c,9,42,0,
2,3540,Note_off_c,9,43,0,
2,3540,Note_off_c,9,44,0,
2,3540,Note_off_c,9,45,0,
2,3540,Note_off_c,9,46,0,
2,3540,Note_off_c,9,47,0,
2,3540,Note_off_c,9,48,0,
2,3540,Note_off_c,9,49,0,
2,3540,Note_off_c,9,50,0,
2,3540,Note_off_c,9,51,0,
2,3540,Note_off_c,9,56,0,
2,3540,Note_off_c,9,57,0,
2,3540,Note_off_c,9,59,0,
2,3540,Note_off_c,9,60,0,
2,3540,Note_off_c,9,61,0,
2,3540,Note_off_c,9,63,0,
2,3540,Note_off_c,9,68,0,
2,3540,Note_off_c,9,69,0,
2,3540,Note_off_c,9,70,0,
2,3540,Note_off_c,9,76,0,
2,3540,Note_off_c,9,80,0,
2,3540,Note_off_c,9,81,0,
2,3540,Note_off_c,9,82,0,
2,3540,Note_off_c,9,87,0,
2,3540,Note_off_c,9,88,0,
2,3540,Note_off_c,9,89,0,
2,3540,Note_off_c,9,91,0,
2,3540,Note_off_c,9,93,0,
2,3570,Note_off_c,9,35,0,
2,3570,Note_off_c,9,36,0,
2,3570,Note_off_c,9,37,0,
2,3570,Note_off_c,9,38,0,
2,3570,Note_off_c,9,39,0,
2,3570,Note_off_c,9,40,0,
2,3570,Note_off_c,9,41,0,
2,3570,Note_off_c,9,42,0,
2,3570,Note_off_c,9,43,0,
2,3570,Note_off_c,9,44,0,
2,3570,Note_off_c,9,45,0,
2,3570,Note_off_c,9,46,0,
2,3570,Note_off_c,9,47,0,
2,3570,Note_off_c,9,48,0,
2,3570,Note_off_c,9,49,0,
2,3570,Note_off_c,9,50,0,
2,3570,Note_off_c,9,51,0,
2,3570,Note_off_c,9,56,0,
2,3570,Note_off_c,9,57,0,
2,3570,Note_off_c,9,59,0,
2,3570,Note_off_c,9,60,0,
2,3570,Note_off_c,9,61,0,
2,3570,Note_off_c,9,63,0,
2,3570,Note_off_c,9,68,0,
2,3570,Note_off_c,9,69,0,
2,3570,Note_off_c,9,70,0,
2,3570,Note_off_c,9,76,0,
2,3570,Note_off_c,9,80,0,
2,3570,Note_off_c,9,81,0,
2,3570,Note_off_c,9,82,0,
2,3570,Note_off_c,9,87,0,
2,3570,Note_off_c,9,88,0,
2,3570,Note_off_c,9,89,0,
2,3570,Note_off_c,9,91,0,
2,3570,Note_off_c,9,93,0,
2,3600,Note_off_c,9,35,0,
2,3600,Note_off_c,9,36,0,
2,3600,Note_off_c,9,37,0,
2,3600,Note_off_c,9,38,0,
2,3600,Note_off_c,9,39,0,
2,3600,Note_off_c,9,40,0,
2,3600,Note_off_c,9,41,0,
2,3600,Note_off_c,9,42,0,
2,3600,Note_off_c,9,43,0,
2,3600,Note_off_c,9,44,0,
2,3600,Note_off_c,9,45,0,
2,3600,Note_off_c,9,46,0,
2,3600,Note_off_c,9,47,0,
2,3600,Note_off_c,9,48,0,
2,3600,Note_off_c,9,49,0,
2,3600,Note_off_c,9,50,0,
2,3600,Note_off_c,9,51,0,
2,3600,Note_off_c,9,56,0,
2,3600,Note_off_c,9,57,0,
2,3600,Note_off_c,9,59,0,
2,3600,Note_off_c,9,60,0,
2,3600,Note_off_c,9,61,0,
2,3600,Note_off_c,9,63,0,
2,3600,Note_off_c,9,68,0,
2,3600,Note_off_c,9,69,0,
2,3600,Note_off_c,9,70,0,
2,3600,Note_off_c,9,76,0,
2,3600,Note_off_c,9,80,0,
2,3600,Note_off_c,9,81,0,
2,3600,Note_off_c,9,82,0,
2,3600,Note_off_c,9,87,0,
2,3600,Note_off_c,9,88,0,
2,3600,Note_off_c,9,89,0,
2,3600,Note_off_c,9,91,0,
2,3600,Note_off_c,9,93,0,
2,3630,Note_off_c,9,35,0,
2,3630,Note_off_c,9,36,0,
2,3630,Note_off_c,9,37,0,
2,3630,Note_off_c,9,38,0,
2,3630,Note_off_c,9,39,0,
2,3630,Note_off_c,9,40,0,
2,3630,Note_off_c,9,41,0,
2,3630,Note_off_c,9,42,0,
2,3630,Note_off_c,9,43,0,
2,3630,Note_off_c,9,44,0,
2,3630,Note_off_c,9,45,0,
2,3630,Note_off_c,9,46,0,
2,3630,Note_off_c,9,47,0,
2,3630,Note_off_c,9,48,0,
2,3630,Note_off_c,9,49,0,
2,3630,Note_off_c,9,50,0,
2,3630,Note_off_c,9,51,0,
2,3630,Note_off_c,9,56,0,
2,3630,Note_off_c,9,57,0,
2,3630,Note_off_c,9,59,0,
2,3630,Note_off_c,9,60,0,
2,3630,Note_off_c,9,61,0,
2,3630,Note_off_c,9,63,0,
2,3630,Note_off_c,9,68,0,
2,3630,Note_off_c,9,69,0,
2,3630,Note_off_c,9,70,0,
2,3630,Note_off_c,9,76,0,
2,3630,Note_off_c,9,80,0,
2,3630,Note_off_c,9,81,0,
2,3630,Note_off_c,9,82,0,
2,3630,Note_off_c,9,87,0,
2,3630,Note_off_c,9,88,0,
2,3630,Note_off_c,9,89,0,
2,3630,Note_off_c,9,91,0,
2,3630,Note_off_c,9,93,0,
2,3660,Note_off_c,9,35,0,
2,3660,Note_off_c,9,36,0,
2,3660,Note_off_c,9,37,0,
2,3660,Note_off_c,9,38,0,
2,3660,Note_off_c,9,39,0,
2,3660,Note_off_c,9,40,0,
2,3660,Note_off_c,9,41,0,
2,3660,Note_off_c,9,42,0,
2,3660,Note_off_c,9,43,0,
2,3660,Note_off_c,9,44,0,
2,3660,Note_off_c,9,45,0,
2,3660,Note_off_c,9,46,0,
2,3660,Note_off_c,9,47,0,
2,3660,Note_off_c,9,48,0,
2,3660,Note_off_c,9,49,0,
2,3660,Note_off_c,9,50,0,
2,3660,Note_off_c,9,51,0,
2,3660,Note_off_c,9,56,0,
2,3660,Note_off_c,9,57,0,
2,3660,Note_off_c,9,59,0,
2,3660,Note_off_c,9,60,0,
2,3660,Note_off_c,9,61,0,
2,3660,Note_off_c,9,63,0,
2,3660,Note_off_c,9,68,0,
2,3660,Note_off_c,9,69,0,
2,3660,Note_off_c,9,70,0,
2,3660,Note_off_c,9,76,0,
2,3660,Note_off_c,9,80,0,
2,3660,Note_off_c,9,81,0,
2,3660,Note_off_c,9,82,0,
2,3660,Note_off_c,9,87,0,
2,3660,Note_off_c,9,88,0,
2,3660,Note_off_c,9,89,0,
2,3660,Note_off_c,9,91,0,
2,3660,Note_off_c,9,93,0,
2,3690,Note_off_c,9,35,0,
2,3690,Note_off_c,9,36,0,
2,3690,Note_off_c,9,37,0,
2,3690,Note_off_c,9,38,0,
2,3690,Note_off_c,9,39,0,
2,3690,Note_off_c,9,40,0,
2,3690,Note_off_c,9,41,0,
2,3690,Note_off_c,9,42,0,
2,3690,Note_off_c,9,43,0,
2,3690,Note_off_c,9,44,0,
2,3690,Note_off_c,9,45,0,
2,3690,Note_off_c,9,46,0,
2,3690,Note_off_c,9,47,0,
2,3690,Note_off_c,9,48,0,
2,3690,Note_off_c,9,49,0,
2,3690,Note_off_c,9,50,0,
2,3690,Note_off_c,9,51,0,
2,3690,Note_off_c,9,56,0,
2,3690,Note_off_c,9,57,0,
2,3690,Note_off_c,9,59,0,
2,3690,Note_off_c,9,60,0,
2,3690,Note_off_c,9,61,0,
2,3690,Note_off_c,9,63,0,
2,3690,Note_off_c,9,68,0,
2,3690,Note_off_c,9,69,0,
2,3690,Note_off_c,9,70,0,
2,3690,Note_off_c,9,76,0,
2,3690,Note_off_c,9,80,0,
2,3690,Note_off_c,9,81,0,
2,3690,Note_off_c,9,82,0,
2,3690,Note_off_c,9,87,0,
2,3690,Note_off_c,9,88,0,
2,3690,Note_off_c,9,89,0,
2,3690,Note_off_c,9,91,0,
2,3690,Note_off_c,9,93,0,
2,3720,Note_off_c,9,35,0,
2,3720,Note_off_c,9,36,0,
2,3720,Note_off_c,9,37,0,
2,3720,Note_off_c,9,38,0,
2,3720,Note_off_c,9,39,0,
2,3720,Note_off_c,9,40,0,
2,3720,Note_off_c,9,41,0,
2,3720,Note_off_c,9,42,0,
2,3720,Note_off_c,9,43,0,
2,3720,Note_off_c,9,44,0,
2,3720,Note_off_c,9,45,0,
2,3720,Note_off_c,9,46,0,
2,3720,Note_off_c,9,47,0,
2,3720,Note_off_c,9,48,0,
2,3720,Note_off_c,9,49,0,
2,3720,Note_off_c,9,50,0,
2,3720,Note_off_c,9,51,0,
2,3720,Note_off_c,9,56,0,
2,3720,Note_off_c,9,57,0,
2,3720,Note_off_c,9,59,0,
2,3720,Note_off_c,9,60,0,
2,3720,Note_off_c,9,61,0,
2,3720,Note_off_c,9,63,0,
2,3720,Note_off_c,9,68,0,
2,3720,Note_off_c,9,69,0,
2,3720,Note_off_c,9,70,0,
2,3720,Note_off_c,9,76,0,
2,3720,Note_off_c,9,80,0,
2,3720,Note_off_c,9,81,0,
2,3720,Note_off_c,9,82,0,
2,3720,Note_off_c,9,87,0,
2,3720,Note_off_c,9,88,0,
2,3720,Note_off_c,9,89,0,
2,3720,Note_off_c,9,91,0,
2,3720,Note_off_c,9,93,0,
2,3750,Note_off_c,9,35,0,
2,3750,Note_off_c,9,36,0,
2,3750,Note_off_c,9,37,0,
2,3750,Note_off_c,9,38,0,
2,3750,Note_off_c,9,39,0,
2,3750,Note_off_c,9,40,0,
2,3750,Note_off_c,9,41,0,
2,3750,Note_off_c,9,42,0,
2,3750,Note_off_c,9,43,0,
2,3750,Note_off_c,9,44,0,
2,3750,Note_off_c,9,45,0,
2,3750,Note_off_c,9,46,0,
2,3750,Note_off_c,9,47,0,
2,3750,Note_off_c,9,48,0,
2,3750,Note_off_c,9,49,0,
2,3750,Note_off_c,9,50,0,
2,3750,Note_off_c,9,51,0,
2,3750,Note_off_c,9,56,0,
2,3750,Note_off_c,9,57,0,
2,3750,Note_off_c,9,59,0,
2,3750,Note_off_c,9,60,0,
2,3750,Note_off_c,9,61,0,
2,3750,Note_off_c,9,63,0,
2,3750,Note_off_c,9,68,0,
2,3750,Note_off_c,9,69,0,
2,3750,Note_off_c,9,70,0,
2,3750,Note_off_c,9,76,0,
2,3750,Note_off_c,9,80,0,
2,3750,Note_off_c,9,81,0,
2,3750,Note_off_c,9,82,0,
2,3750,Note_off_c,9,87,0,
2,3750,Note_off_c,9,88,0,
2,3750,Note_off_c,9,89,0,
2,3750,Note_off_c,9,91,0,
2,3750,Note_off_c,9,93,0,
2,3780,Note_off_c,9,35,0,
2,3780,Note_off_c,9,36,0,
2,3780,Note_off_c,9,37,0,
2,3780,Note_off_c,9,38,0,
2,3780,Note_off_c,9,39,0,
2,3780,Note_off_c,9,40,0,
2,3780,Note_off_c,9,41,0,
2,3780,Note_off_c,9,42,0,
2,3780,Note_off_c,9,43,0,
2,3780,Note_off_c,9,44,0,
2,3780,Note_off_c,9,45,0,
2,3780,Note_off_c,9,46,0,
2,3780,Note_off_c,9,47,0,
2,3780,Note_off_c,9,48,0,
2,3780,Note_off_c,9,49,0,
2,3780,Note_off_c,9,50,0,
2,3780,Note_off_c,9,51,0,
2,3780,Note_off_c,9,56,0,
2,3780,Note_off_c,9,57,0,
2,3780,Note_off_c,9,59,0,
2,3780,Note_off_c,9,60,0,
2,3780,Note_off_c,9,61,0,
2,3780,Note_off_c,9,63,0,
2,3780,Note_off_c,9,68,0,
2,3780,Note_off_c,9,69,0,
2,3780,Note_off_c,9,70,0,
2,3780,Note_off_c,9,76,0,
2,3780,Note_off_c,9,80,0,
2,3780,Note_off_c,9,81,0,
2,3780,Note_off_c,9,82,0,
2,3780,Note_off_c,9,87,0,
2,3780,Note_off_c,9,88,0,
2,3780,Note_off_c,9,89,0,
2,3780,Note_off_c,9,91,0,
2,3780,Note_off_c,9,93,0,
2,3810,Note_off_c,9,35,0,
2,3810,Note_off_c,9,36,0,
2,3810,Note_off_c,9,37,0,
2,3810,Note_off_c,9,38,0,
2,3810,Note_off_c,9,39,0,
2,3810,Note_off_c,9,40,0,
2,3810,Note_off_c,9,41,0,
2,3810,Note_off_c,9,42,0,
2,3810,Note_off_c,9,43,0,
2,3810,Note_off_c,9,44,0,
2,3810,Note_off_c,9,45,0,
2,3810,Note_off_c,9,46,0,
2,3810,Note_off_c,9,47,0,
2,3810,Note_off_c,9,48,0,
2,3810,Note_off_c,9,49,0,
2,3810,Note_off_c,9,50,0,
2,3810,Note_off_c,9,51,0,
2,3810,Note_off_c,9,56,0,
2,3810,Note_off_c,9,57,0,
2,3810,Note_off_c,9,59,0,
2,3810,Note_off_c,9,60,0,
2,3810,Note_off_c,9,61,0,
2,3810,Note_off_c,9,63,0,
2,3810,Note_off_c,9,68,0,
2,3810,Note_off_c,9,69,0,
2,3810,Note_off_c,9,70,0,
2,3810,Note_off_c,9,76,0,
2,3810,Note_off_c,9,80,0,
2,3810,Note_off_c,9,81,0,
2,3810,Note_off_c,9,82,0,
2,3810,Note_off_c,9,87,0,
2,3810,Note_off_c,9,88,0,
2,3810,Note_off_c,9,89,0,
2,3810,Note_off_c,9,91,0,
2,3810,Note_off_c,9,93,0,
2,3840,Note_off_c,9,35,0,
2,3840,Note_off_c,9,36,0,
2,3840,Note_off_c,9,37,0,
2,3840,Note_off_c,9,38,0,
2,3840,Note_off_c,9,39,0,
2,3840,Note_off_c,9,40,0,
2,3840,Note_off_c,9,41,0,
2,3840,Note_off_c,9,42,0,
2,3840,Note_off_c,9,43,0,
2,3840,Note_off_c,9,44,0,
2,3840,Note_off_c,9,45,0,
2,3840,Note_off_c,9,46,0,
2,3840,Note_off_c,9,47,0,
2,3840,Note_off_c,9,48,0,
2,3840,Note_off_c,9,49,0,
2,3840,Note_off_c,9,50,0,
2,3840,Note_off_c,9,51,0,
2,3840,Note_off_c,9,56,0,
2,3840,Note_off_c,9,57,0,
2,3840,Note_off_c,9,59,0,
2,3840,Note_off_c,9,60,0,
2,3840,Note_off_c,9,61,0,
2,3840,Note_off_c,9,63,0,
2,3840,Note_off_c,9,68,0,
2,3840,Note_off_c,9,69,0,
2,3840,Note_off_c,9,70,0,
2,3840,Note_off_c,9,76,0,
2,3840,Note_off_c,9,80,0,
2,3840,Note_off_c,9,81,0,
2,3840,Note_off_c,9,82,0,
2,3840,Note_off_c,9,87,0,
2,3840,Note_off_c,9,88,0,
2,3840,Note_off_c,9,89,0,
2,3840,Note_off_c,9,91,0,
2,3840,Note_off_c,9,93,0,
2,3870,Note_off_c,9,35,0,
2,3870,Note_off_c,9,36,0,
2,3870,Note_off_c,9,37,0,
2,3870,Note_off_c,9,38,0,
2,3870,Note_off_c,9,39,0,
2,3870,Note_off_c,9,40,0,
2,3870,Note_off_c,9,41,0,
2,3870,Note_off_c,9,42,0,
2,3870,Note_off_c,9,43,0,
2,3870,Note_off_c,9,44,0,
2,3870,Note_off_c,9,45,0,
2,3870,Note_off_c,9,46,0,
2,3870,Note_off_c,9,47,0,
2,3870,Note_off_c,9,48,0,
2,3870,Note_off_c,9,49,0,
2,3870,Note_off_c,9,50,0,
2,3870,Note_off_c,9,51,0,
2,3870,Note_off_c,9,56,0,
2,3870,Note_off_c,9,57,0,
2,3870,Note_off_c,9,59,0,
2,3870,Note_off_c,9,60,0,
2,3870,Note_off_c,9,61,0,
2,3870,Note_off_c,9,63,0,
2,3870,Note_off_c,9,68,0,
2,3870,Note_off_c,9,69,0,
2,3870,Note_off_c,9,70,0,
2,3870,Note_off_c,9,76,0,
2,3870,Note_off_c,9,80,0,
2,3870,Note_off_c,9,81,0,
2,3870,Note_off_c,9,82,0,
2,3870,Note_off_c,9,87,0,
2,3870,Note_off_c,9,88,0,
2,3870,Note_off_c,9,89,0,
2,3870,Note_off_c,9,91,0,
2,3870,Note_off_c,9,93,0,
2,3900,Note_off_c,9,35,0,
2,3900,Note_off_c,9,36,0,
2,3900,Note_off_c,9,37,0,
2,3900,Note_off_c,9,38,0,
2,3900,Note_off_c,9,39,0,
2,3900,Note_off_c,9,40,0,
2,3900,Note_off_c,9,41,0,
2,3900,Note_off_c,9,42,0,
2,3900,Note_off_c,9,43,0,
2,3900,Note_off_c,9,44,0,
2,3900,Note_off_c,9,45,0,
2,3900,Note_off_c,9,46,0,
2,3900,Note_off_c,9,47,0,
2,3900,Note_off_c,9,48,0,
2,3900,Note_off_c,9,49,0,
2,3900,Note_off_c,9,50,0,
2,3900,Note_off_c,9,51,0,
2,3900,Note_off_c,9,56,0,
2,3900,Note_off_c,9,57,0,
2,3900,Note_off_c,9,59,0,
2,3900,Note_off_c,9,60,0,
2,3900,Note_off_c,9,61,0,
2,3900,Note_off_c,9,63,0,
2,3900,Note_off_c,9,68,0,
2,3900,Note_off_c,9,69,0,
2,3900,Note_off_c,9,70,0,
2,3900,Note_off_c,9,76,0,
2,3900,Note_off_c,9,80,0,
2,3900,Note_off_c,9,81,0,
2,3900,Note_off_c,9,82,0,
2,3900,Note_off_c,9,87,0,
2,3900,Note_off_c,9,88,0,
2,3900,Note_off_c,9,89,0,
2,3900,Note_off_c,9,91,0,
2,3900,Note_off_c,9,93,0,
2,3930,Note_off_c,9,35,0,
2,3930,Note_off_c,9,36,0,
2,3930,Note_off_c,9,37,0,
2,3930,Note_off_c,9,38,0,
2,3930,Note_off_c,9,39,0,
2,3930,Note_off_c,9,40,0,
2,3930,Note_off_c,9,41,0,
2,3930,Note_off_c,9,42,0,
2,3930,Note_off_c,9,43,0,
2,3930,Note_off_c,9,44,0,
2,3930,Note_off_c,9,45,0,
2,3930,Note_off_c,9,46,0,
2,3930,Note_off_c,9,47,0,
2,3930,Note_off_c,9,48,0,
2,3930,Note_off_c,9,49,0,
2,3930,Note_off_c,9,50,0,
2,3930,Note_off_c,9,51,0,
2,3930,Note_off_c,9,56,0,
2,3930,Note_off_c,9,57,0,
2,3930,Note_off_c,9,59,0,
2,3930,Note_off_c,9,60,0,
2,3930,Note_off_c,9,61,0,
2,3930,Note_off_c,9,63,0,
2,3930,Note_off_c,9,68,0,
2,3930,Note_off_c,9,69,0,
2,3930,Note_off_c,9,70,0,
2,3930,Note_off_c,9,76,0,
2,3930,Note_off_c,9,80,0,
2,3930,Note_off_c,9,81,0,
2,3930,Note_off_c,9,82,0,
2,3930,Note_off_c,9,87,0,
2,3930,Note_off_c,9,88,0,
2,3930,Note_off_c,9,89,0,
2,3930,Note_off_c,9,91,0,
2,3930,Note_off_c,9,93,0,
2,3960,Note_off_c,9,35,0,
2,3960,Note_off_c,9,36,0,
2,3960,Note_off_c,9,37,0,
2,3960,Note_off_c,9,38,0,
2,3960,Note_off_c,9,39,0,
2,3960,Note_off_c,9,40,0,
2,3960,Note_off_c,9,41,0,
2,3960,Note_off_c,9,42,0,
2,3960,Note_off_c,9,43,0,
2,3960,Note_off_c,9,44,0,
2,3960,Note_off_c,9,45,0,
2,3960,Note_off_c,9,46,0,
2,3960,Note_off_c,9,47,0,
2,3960,Note_off_c,9,48,0,
2,3960,Note_off_c,9,49,0,
2,3960,Note_off_c,9,50,0,
2,3960,Note_off_c,9,51,0,
2,3960,Note_off_c,9,56,0,
2,3960,Note_off_c,9,57,0,
2,3960,Note_off_c,9,59,0,
2,3960,Note_off_c,9,60,0,
2,3960,Note_off_c,9,61,0,
2,3960,Note_off_c,9,63,0,
2,3960,Note_off_c,9,68,0,
2,3960,Note_off_c,9,69,0,
2,3960,Note_off_c,9,70,0,
2,3960,Note_off_c,9,76,0,
2,3960,Note_off_c,9,80,0,
2,3960,Note_off_c,9,81,0,
2,3960,Note_off_c,9,82,0,
2,3960,Note_off_c,9,87,0,
2,3960,Note_off_c,9,88,0,
2,3960,Note_off_c,9,89,0,
2,3960,Note_off_c,9,91,0,
2,3960,Note_off_c,9,93,0,
2,3990,Note_off_c,9,35,0,
2,3990,Note_off_c,9,36,0,
2,3990,Note_off_c,9,37,0,
2,3990,Note_off_c,9,38,0,
2,3990,Note_off_c,9,39,0,
2,3990,Note_off_c,9,40,0,
2,3990,Note_off_c,9,41,0,
2,3990,Note_off_c,9,42,0,
2,3990,Note_off_c,9,43,0,
2,3990,Note_off_c,9,44,0,
2,3990,Note_off_c,9,45,0,
2,3990,Note_off_c,9,46,0,
2,3990,Note_off_c,9,47,0,
2,3990,Note_off_c,9,48,0,
2,3990,Note_off_c,9,49,0,
2,3990,Note_off_c,9,50,0,
2,3990,Note_off_c,9,51,0,
2,3990,Note_off_c,9,56,0,
2,3990,Note_off_c,9,57,0,
2,3990,Note_off_c,9,59,0,
2,3990,Note_off_c,9,60,0,
2,3990,Note_off_c,9,61,0,
2,3990,Note_off_c,9,63,0,
2,3990,Note_off_c,9,68,0,
2,3990,Note_off_c,9,69,0,
2,3990,Note_off_c,9,70,0,
2,3990,Note_off_c,9,76,0,
2,3990,Note_off_c,9,80,0,
2,3990,Note_off_c,9,81,0,
2,3990,Note_off_c,9,82,0,
2,3990,Note_off_c,9,87,0,
2,3990,Note_off_c,9,88,0,
2,3990,Note_off_c,9,89,0,
2,3990,Note_off_c,9,91,0,
2,3990,Note_off_c,9,93,0,
2,4020,Note_off_c,9,35,0,
2,4020,Note_off_c,9,36,0,
2,4020,Note_off_c,9,37,0,
2,4020,Note_off_c,9,38,0,
2,4020,Note_off_c,9,39,0,
2,4020,Note_off_c,9,40,0,
2,4020,Note_off_c,9,41,0,
2,4020,Note_off_c,9,42,0,
2,4020,Note_off_c,9,43,0,
2,4020,Note_off_c,9,44,0,
2,4020,Note_off_c,9,45,0,
2,4020,Note_off_c,9,46,0,
2,4020,Note_off_c,9,47,0,
2,4020,Note_off_c,9,48,0,
2,4020,Note_off_c,9,49,0,
2,4020,Note_off_c,9,50,0,
2,4020,Note_off_c,9,51,0,
2,4020,Note_off_c,9,56,0,
2,4020,Note_off_c,9,57,0,
2,4020,Note_off_c,9,59,0,
2,4020,Note_off_c,9,60,0,
2,4020,Note_off_c,9,61,0,
2,4020,Note_off_c,9,63,0,
2,4020,Note_off_c,9,68,0,
2,4020,Note_off_c,9,69,0,
2,4020,Note_off_c,9,70,0,
2,4020,Note_off_c,9,76,0,
2,4020,Note_off_c,9,80,0,
2,4020,Note_off_c,9,81,0,
2,4020,Note_off_c,9,82,0,
2,4020,Note_off_c,9,87,0,
2,4020,Note_off_c,9,88,0,
2,4020,Note_off_c,9,89,0,
2,4020,Note_off_c,9,91,0,
2,4020,Note_off_c,9,93,0,
2,4050,Note_off_c,9,35,0,
2,4050,Note_off_c,9,36,0,
2,4050,Note_off_c,9,37,0,
2,4050,Note_off_c,9,38,0,
2,4050,Note_off_c,9,39,0,
2,4050,Note_off_c,9,40,0,
2,4050,Note_off_c,9,41,0,
2,4050,Note_off_c,9,42,0,
2,4050,Note_off_c,9,43,0,
2,4050,Note_off_c,9,44,0,
2,4050,Note_off_c,9,45,0,
2,4050,Note_off_c,9,46,0,
2,4050,Note_off_c,9,47,0,
2,4050,Note_off_c,9,48,0,
2,4050,Note_off_c,9,49,0,
2,4050,Note_off_c,9,50,0,
2,4050,Note_off_c,9,51,0,
2,4050,Note_off_c,9,56,0,
2,4050,Note_off_c,9,57,0,
2,4050,Note_off_c,9,59,0,
2,4050,Note_off_c,9,60,0,
2,4050,Note_off_c,9,61,0,
2,4050,Note_off_c,9,63,0,
2,4050,Note_off_c,9,68,0,
2,4050,Note_off_c,9,69,0,
2,4050,Note_off_c,9,70,0,
2,4050,Note_off_c,9,76,0,
2,4050,Note_off_c,9,80,0,
2,4050,Note_off_c,9,81,0,
2,4050,Note_off_c,9,82,0,
2,4050,Note_off_c,9,87,0,
2,4050,Note_off_c,9,88,0,
2,4050,Note_off_c,9,89,0,
2,4050,Note_off_c,9,91,0,
2,4050,Note_off_c,9,93,0,
2,4080,Note_off_c,9,35,0,
2,4080,Note_off_c,9,36,0,
2,4080,Note_off_c,9,37,0,
2,4080,Note_off_c,9,38,0,
2,4080,Note_off_c,9,39,0,
2,4080,Note_off_c,9,40,0,
2,4080,Note_off_c,9,41,0,
2,4080,Note_off_c,9,42,0,
2,4080,Note_off_c,9,43,0,
2,4080,Note_off_c,9,44,0,
2,4080,Note_off_c,9,45,0,
2,4080,Note_off_c,9,46,0,
2,4080,Note_off_c,9,47,0,
2,4080,Note_off_c,9,48,0,
2,4080,Note_off_c,9,49,0,
2,4080,Note_off_c,9,50,0,
2,4080,Note_off_c,9,51,0,
2,4080,Note_off_c,9,56,0,
2,4080,Note_off_c,9,57,0,
2,4080,Note_off_c,9,59,0,
2,4080,Note_off_c,9,60,0,
2,4080,Note_off_c,9,61,0,
2,4080,Note_off_c,9,63,0,
2,4080,Note_off_c,9,68,0,
2,4080,Note_off_c,9,69,0,
2,4080,Note_off_c,9,70,0,
2,4080,Note_off_c,9,76,0,
2,4080,Note_off_c,9,80,0,
2,4080,Note_off_c,9,81,0,
2,4080,Note_off_c,9,82,0,
2,4080,Note_off_c,9,87,0,
2,4080,Note_off_c,9,88,0,
2,4080,Note_off_c,9,89,0,
2,4080,Note_off_c,9,91,0,
2,4080,Note_off_c,9,93,0,
2,4110,Note_off_c,9,35,0,
2,4110,Note_off_c,9,36,0,
2,4110,Note_off_c,9,37,0,
2,4110,Note_off_c,9,38,0,
2,4110,Note_off_c,9,39,0,
2,4110,Note_off_c,9,40,0,
2,4110,Note_off_c,9,41,0,
2,4110,Note_off_c,9,42,0,
2,4110,Note_off_c,9,43,0,
2,4110,Note_off_c,9,44,0,
2,4110,Note_off_c,9,45,0,
2,4110,Note_off_c,9,46,0,
2,4110,Note_off_c,9,47,0,
2,4110,Note_off_c,9,48,0,
2,4110,Note_off_c,9,49,0,
2,4110,Note_off_c,9,50,0,
2,4110,Note_off_c,9,51,0,
2,4110,Note_off_c,9,56,0,
2,4110,Note_off_c,9,57,0,
2,4110,Note_off_c,9,59,0,
2,4110,Note_off_c,9,60,0,
2,4110,Note_off_c,9,61,0,
2,4110,Note_off_c,9,63,0,
2,4110,Note_off_c,9,68,0,
2,4110,Note_off_c,9,69,0,
2,4110,Note_off_c,9,70,0,
2,4110,Note_off_c,9,76,0,
2,4110,Note_off_c,9,80,0,
2,4110,Note_off_c,9,81,0,
2,4110,Note_off_c,9,82,0,
2,4110,Note_off_c,9,87,0,
2,4110,Note_off_c,9,88,0,
2,4110,Note_off_c,9,89,0,
2,4110,Note_off_c,9,91,0,
2,4110,Note_off_c,9,93,0,
2,4140,Note_off_c,9,35,0,
2,4140,Note_off_c,9,36,0,
2,4140,Note_off_c,9,37,0,
2,4140,Note_off_c,9,38,0,
2,4140,Note_off_c,9,39,0,
2,4140,Note_off_c,9,40,0,
2,4140,Note_off_c,9,41,0,
2,4140,Note_off_c,9,42,0,
2,4140,Note_off_c,9,43,0,
2,4140,Note_off_c,9,44,0,
2,4140,Note_off_c,9,45,0,
2,4140,Note_off_c,9,46,0,
2,4140,Note_off_c,9,47,0,
2,4140,Note_off_c,9,48,0,
2,4140,Note_off_c,9,49,0,
2,4140,Note_off_c,9,50,0,
2,4140,Note_off_c,9,51,0,
2,4140,Note_off_c,9,56,0,
2,4140,Note_off_c,9,57,0,
2,4140,Note_off_c,9,59,0,
2,4140,Note_off_c,9,60,0,
2,4140,Note_off_c,9,61,0,
2,4140,Note_off_c,9,63,0,
2,4140,Note_off_c,9,68,0,
2,4140,Note_off_c,9,69,0,
2,4140,Note_off_c,9,70,0,
2,4140,Note_off_c,9,76,0,
2,4140,Note_off_c,9,80,0,
2,4140,Note_off_c,9,81,0,
2,4140,Note_off_c,9,82,0,
2,4140,Note_off_c,9,87,0,
2,4140,Note_off_c,9,88,0,
2,4140,Note_off_c,9,89,0,
2,4140,Note_off_c,9,91,0,
2,4140,Note_off_c,9,93,0,
2,4170,Note_off_c,9,35,0,
2,4170,Note_off_c,9,36,0,
2,4170,Note_off_c,9,37,0,
2,4170,Note_off_c,9,38,0,
2,4170,Note_off_c,9,39,0,
2,4170,Note_off_c,9,40,0,
2,4170,Note_off_c,9,41,0,
2,4170,Note_off_c,9,42,0,
2,4170,Note_off_c,9,43,0,
2,4170,Note_off_c,9,44,0,
2,4170,Note_off_c,9,45,0,
2,4170,Note_off_c,9,46,0,
2,4170,Note_off_c,9,47,0,
2,4170,Note_off_c,9,48,0,
2,4170,Note_off_c,9,49,0,
2,4170,Note_off_c,9,50,0,
2,4170,Note_off_c,9,51,0,
2,4170,Note_off_c,9,56,0,
2,4170,Note_off_c,9,57,0,
2,4170,Note_off_c,9,59,0,
2,4170,Note_off_c,9,60,0,
2,4170,Note_off_c,9,61,0,
2,4170,Note_off_c,9,63,0,
2,4170,Note_off_c,9,68,0,
2,4170,Note_off_c,9,69,0,
2,4170,Note_off_c,9,70,0,
2,4170,Note_off_c,9,76,0,
2,4170,Note_off_c,9,80,0,
2,4170,Note_off_c,9,81,0,
2,4170,Note_off_c,9,82,0,
2,4170,Note_off_c,9,87,0,
2,4170,Note_off_c,9,88,0,
2,4170,Note_off_c,9,89,0,
2,4170,Note_off_c,9,91,0,
2,4170,Note_off_c,9,93,0,
2,4200,Note_off_c,9,35,0,
2,4200,Note_off_c,9,36,0,
2,4200,Note_off_c,9,37,0,
2,4200,Note_off_c,9,38,0,
2,4200,Note_off_c,9,39,0,
2,4200,Note_off_c,9,40,0,
2,4200,Note_off_c,9,41,0,
2,4200,Note_off_c,9,42,0,
2,4200,Note_off_c,9,43,0,
2,4200,Note_off_c,9,44,0,
2,4200,Note_off_c,9,45,0,
2,4200,Note_off_c,9,46,0,
2,4200,Note_off_c,9,47,0,
2,4200,Note_off_c,9,48,0,
2,4200,Note_off_c,9,49,0,
2,4200,Note_off_c,9,50,0,
2,4200,Note_off_c,9,51,0,
2,4200,Note_off_c,9,56,0,
2,4200,Note_off_c,9,57,0,
2,4200,Note_off_c,9,59,0,
2,4200,Note_off_c,9,60,0,
2,4200,Note_off_c,9,61,0,
2,4200,Note_off_c,9,63,0,
2,4200,Note_off_c,9,68,0,
2,4200,Note_off_c,9,69,0,
2,4200,Note_off_c,9,70,0,
2,4200,Note_off_c,9,76,0,
2,4200,Note_off_c,9,80,0,
2,4200,Note_off_c,9,81,0,
2,4200,Note_off_c,9,82,0,
2,4200,Note_off_c,9,87,0,
2,4200,Note_off_c,9,88,0,
2,4200,Note_off_c,9,89,0,
2,4200,Note_off_c,9,91,0,
2,4200,Note_off_c,9,93,0,
2,4230,Note_off_c,9,35,0,
2,4230,Note_off_c,9,36,0,
2,4230,Note_off_c,9,37,0,
2,4230,Note_off_c,9,38,0,
2,4230,Note_off_c,9,39,0,
2,4230,Note_off_c,9,40,0,
2,4230,Note_off_c,9,41,0,
2,4230,Note_off_c,9,42,0,
2,4230,Note_off_c,9,43,0,
2,4230,Note_off_c,9,44,0,
2,4230,Note_off_c,9,45,0,
2,4230,Note_off_c,9,46,0,
2,4230,Note_off_c,9,47,0,
2,4230,Note_off_c,9,48,0,
2,4230,Note_off_c,9,49,0,
2,4230,Note_off_c,9,50,0,
2,4230,Note_off_c,9,51,0,
2,4230,Note_off_c,9,56,0,
2,4230,Note_off_c,9,57,0,
2,4230,Note_off_c,9,59,0,
2,4230,Note_off_c,9,60,0,
2,4230,Note_off_c,9,61,0,
2,4230,Note_off_c,9,63,0,
2,4230,Note_off_c,9,68,0,
2,4230,Note_off_c,9,69,0,
2,4230,Note_off_c,9,70,0,
2,4230,Note_off_c,9,76,0,
2,4230,Note_off_c,9,80,0,
2,4230,Note_off_c,9,81,0,
2,4230,Note_off_c,9,82,0,
2,4230,Note_off_c,9,87,0,
2,4230,Note_off_c,9,88,0,
2,4230,Note_off_c,9,89,0,
2,4230,Note_off_c,9,91,0,
2,4230,Note_off_c,9,93,0,
2,4260,Note_off_c,9,35,0,
2,4260,Note_off_c,9,36,0,
2,4260,Note_off_c,9,37,0,
2,4260,Note_off_c,9,38,0,
2,4260,Note_off_c,9,39,0,
2,4260,Note_off_c,9,40,0,
2,4260,Note_off_c,9,41,0,
2,4260,Note_off_c,9,42,0,
2,4260,Note_off_c,9,43,0,
2,4260,Note_off_c,9,44,0,
2,4260,Note_off_c,9,45,0,
2,4260,Note_off_c,9,46,0,
2,4260,Note_off_c,9,47,0,
2,4260,Note_off_c,9,48,0,
2,4260,Note_off_c,9,49,0,
2,4260,Note_off_c,9,50,0,
2,4260,Note_off_c,9,51,0,
2,4260,Note_off_c,9,56,0,
2,4260,Note_off_c,9,57,0,
2,4260,Note_off_c,9,59,0,
2,4260,Note_off_c,9,60,0,
2,4260,Note_off_c,9,61,0,
2,4260,Note_off_c,9,63,0,
2,4260,Note_off_c,9,68,0,
2,4260,Note_off_c,9,69,0,
2,4260,Note_off_c,9,70,0,
2,4260,Note_off_c,9,76,0,
2,4260,Note_off_c,9,80,0,
2,4260,Note_off_c,9,81,0,
2,4260,Note_off_c,9,82,0,
2,4260,Note_off_c,9,87,0,
2,4260,Note_off_c,9,88,0,
2,4260,Note_off_c,9,89,0,
2,4260,Note_off_c,9,91,0,
2,4260,Note_off_c,9,93,0,
2,4290,Note_off_c,9,35,0,
2,4290,Note_off_c,9,36,0,
2,4290,Note_off_c,9,37,0,
2,4290,Note_off_c,9,38,0,
2,4290,Note_off_c,9,39,0,
2,4290,Note_off_c,9,40,0,
2,4290,Note_off_c,9,41,0,
2,4290,Note_off_c,9,42,0,
2,4290,Note_off_c,9,43,0,
2,4290,Note_off_c,9,44,0,
2,4290,Note_off_c,9,45,0,
2,4290,Note_off_c,9,46,0,
2,4290,Note_off_c,9,47,0,
2,4290,Note_off_c,9,48,0,
2,4290,Note_off_c,9,49,0,
2,4290,Note_off_c,9,50,0,
2,4290,Note_off_c,9,51,0,
2,4290,Note_off_c,9,56,0,
2,4290,Note_off_c,9,57,0,
2,4290,Note_off_c,9,59,0,
2,4290,Note_off_c,9,60,0,
2,4290,Note_off_c,9,61,0,
2,4290,Note_off_c,9,63,0,
2,4290,Note_off_c,9,68,0,
2,4290,Note_off_c,9,69,0,
2,4290,Note_off_c,9,70,0,
2,4290,Note_off_c,9,76,0,
2,4290,Note_off_c,9,80,0,
2,4290,Note_off_c,9,81,0,
2,4290,Note_off_c,9,82,0,
2,4290,Note_off_c,9,87,0,
2,4290,Note_off_c,9,88,0,
2,4290,Note_off_c,9,89,0,
2,4290,Note_off_c,9,91,0,
2,4290,Note_off_c,9,93,0,
2,4320,Note_off_c,9,35,0,
2,4320,Note_off_c,9,36,0,
2,4320,Note_off_c,9,37,0,
2,4320,Note_off_c,9,38,0,
2,4320,Note_off_c,9,39,0,
2,4320,Note_off_c,9,40,0,
2,4320,Note_off_c,9,41,0,
2,4320,Note_off_c,9,42,0,
2,4320,Note_off_c,9,43,0,
2,4320,Note_off_c,9,44,0,
2,4320,Note_off_c,9,45,0,
2,4320,Note_off_c,9,46,0,
2,4320,Note_off_c,9,47,0,
2,4320,Note_off_c,9,48,0,
2,4320,Note_off_c,9,49,0,
2,4320,Note_off_c,9,50,0,
2,4320,Note_off_c,9,51,0,
2,4320,Note_off_c,9,56,0,
2,4320,Note_off_c,9,57,0,
2,4320,Note_off_c,9,59,0,
2,4320,Note_off_c,9,60,0,
2,4320,Note_off_c,9,61,0,
2,4320,Note_off_c,9,63,0,
2,4320,Note_off_c,9,68,0,
2,4320,Note_off_c,9,69,0,
2,4320,Note_off_c,9,70,0,
2,4320,Note_off_c,9,76,0,
2,4320,Note_off_c,9,80,0,
2,4320,Note_off_c,9,81,0,
2,4320,Note_off_c,9,82,0,
2,4320,Note_off_c,9,87,0,
2,4320,Note_off_c,9,88,0,
2,4320,Note_off_c,9,89,0,
2,4320,Note_off_c,9,91,0,
2,4320,Note_off_c,9,93,0,
2,4350,Note_off_c,9,35,0,
2,4350,Note_off_c,9,36,0,
2,4350,Note_off_c,9,37,0,
2,4350,Note_off_c,9,38,0,
2,4350,Note_off_c,9,39,0,
2,4350,Note_off_c,9,40,0,
2,4350,Note_off_c,9,41,0,
2,4350,Note_off_c,9,42,0,
2,4350,Note_off_c,9,43,0,
2,4350,Note_off_c,9,44,0,
2,4350,Note_off_c,9,45,0,
2,4350,Note_off_c,9,46,0,
2,4350,Note_off_c,9,47,0,
2,4350,Note_off_c,9,48,0,
2,4350,Note_off_c,9,49,0,
2,4350,Note_off_c,9,50,0,
2,4350,Note_off_c,9,51,0,
2,4350,Note_off_c,9,56,0,
2,4350,Note_off_c,9,57,0,
2,4350,Note_off_c,9,59,0,
2,4350,Note_off_c,9,60,0,
2,4350,Note_off_c,9,61,0,
2,4350,Note_off_c,9,63,0,
2,4350,Note_off_c,9,68,0,
2,4350,Note_off_c,9,69,0,
2,4350,Note_off_c,9,70,0,
2,4350,Note_off_c,9,76,0,
2,4350,Note_off_c,9,80,0,
2,4350,Note_off_c,9,81,0,
2,4350,Note_off_c,9,82,0,
2,4350,Note_off_c,9,87,0,
2,4350,Note_off_c,9,88,0,
2,4350,Note_off_c,9,89,0,
2,4350,Note_off_c,9,91,0,
2,4350,Note_off_c,9,93,0,
2,4380,Note_off_c,9,35,0,
2,4380,Note_off_c,9,36,0,
2,4380,Note_off_c,9,37,0,
2,4380,Note_off_c,9,38,0,
2,4380,Note_off_c,9,39,0,
2,4380,Note_off_c,9,40,0,
2,4380,Note_off_c,9,41,0,
2,4380,Note_off_c,9,42,0,
2,4380,Note_off_c,9,43,0,
2,4380,Note_off_c,9,44,0,
2,4380,Note_off_c,9,45,0,
2,4380,Note_off_c,9,46,0,
2,4380,Note_off_c,9,47,0,
2,4380,Note_off_c,9,48,0,
2,4380,Note_off_c,9,49,0,
2,4380,Note_off_c,9,50,0,
2,4380,Note_off_c,9,51,0,
2,4380,Note_off_c,9,56,0,
2,4380,Note_off_c,9,57,0,
2,4380,Note_off_c,9,59,0,
2,4380,Note_off_c,9,60,0,
2,4380,Note_off_c,9,61,0,
2,4380,Note_off_c,9,63,0,
2,4380,Note_off_c,9,68,0,
2,4380,Note_off_c,9,69,0,
2,4380,Note_off_c,9,70,0,
2,4380,Note_off_c,9,76,0,
2,4380,Note_off_c,9,80,0,
2,4380,Note_off_c,9,81,0,
2,4380,Note_off_c,9,82,0,
2,4380,Note_off_c,9,87,0,
2,4380,Note_off_c,9,88,0,
2,4380,Note_off_c,9,89,0,
2,4380,Note_off_c,9,91,0,
2,4380,Note_off_c,9,93,0,
2,4410,Note_off_c,9,35,0,
2,4410,Note_off_c,9,36,0,
2,4410,Note_off_c,9,37,0,
2,4410,Note_off_c,9,38,0,
2,4410,Note_off_c,9,39,0,
2,4410,Note_off_c,9,40,0,
2,4410,Note_off_c,9,41,0,
2,4410,Note_off_c,9,42,0,
2,4410,Note_off_c,9,43,0,
2,4410,Note_off_c,9,44,0,
2,4410,Note_off_c,9,45,0,
2,4410,Note_off_c,9,46,0,
2,4410,Note_off_c,9,47,0,
2,4410,Note_off_c,9,48,0,
2,4410,Note_off_c,9,49,0,
2,4410,Note_off_c,9,50,0,
2,4410,Note_off_c,9,51,0,
2,4410,Note_off_c,9,56,0,
2,4410,Note_off_c,9,57,0,
2,4410,Note_off_c,9,59,0,
2,4410,Note_off_c,9,60,0,
2,4410,Note_off_c,9,61,0,
2,4410,Note_off_c,9,63,0,
2,4410,Note_off_c,9,68,0,
2,4410,Note_off_c,9,69,0,
2,4410,Note_off_c,9,70,0,
2,4410,Note_off_c,9,76,0,
2,4410,Note_off_c,9,80,0,
2,4410,Note_off_c,9,81,0,
2,4410,Note_off_c,9,82,0,
2,4410,Note_off_c,9,87,0,
2,4410,Note_off_c,9,88,0,
2,4410,Note_off_c,9,89,0,
2,4410,Note_off_c,9,91,0,
2,4410,Note_off_c,9,93,0,
2,4440,Note_off_c,9,35,0,
2,4440,Note_off_c,9,36,0,
2,4440,Note_off_c,9,37,0,
2,4440,Note_off_c,9,38,0,
2,4440,Note_off_c,9,39,0,
2,4440,Note_off_c,9,40,0,
2,4440,Note_off_c,9,41,0,
2,4440,Note_off_c,9,42,0,
2,4440,Note_off_c,9,43,0,
2,4440,Note_off_c,9,44,0,
2,4440,Note_off_c,9,45,0,
2,4440,Note_off_c,9,46,0,
2,4440,Note_off_c,9,47,0,
2,4440,Note_off_c,9,48,0,
2,4440,Note_off_c,9,49,0,
2,4440,Note_off_c,9,50,0,
2,4440,Note_off_c,9,51,0,
2,4440,Note_off_c,9,56,0,
2,4440,Note_off_c,9,57,0,
2,4440,Note_off_c,9,59,0,
2,4440,Note_off_c,9,60,0,
2,4440,Note_off_c,9,61,0,
2,4440,Note_off_c,9,63,0,
2,4440,Note_off_c,9,68,0,
2,4440,Note_off_c,9,69,0,
2,4440,Note_off_c,9,70,0,
2,4440,Note_off_c,9,76,0,
2,4440,Note_off_c,9,80,0,
2,4440,Note_off_c,9,81,0,
2,4440,Note_off_c,9,82,0,
2,4440,Note_off_c,9,87,0,
2,4440,Note_off_c,9,88,0,
2,4440,Note_off_c,9,89,0,
2,4440,Note_off_c,9,91,0,
2,4440,Note_off_c,9,93,0,
2,4470,Note_off_c,9,35,0,
2,4470,Note_off_c,9,36,0,
2,4470,Note_off_c,9,37,0,
2,4470,Note_off_c,9,38,0,
2,4470,Note_off_c,9,39,0,
2,4470,Note_off_c,9,40,0,
2,4470,Note_off_c,9,41,0,
2,4470,Note_off_c,9,42,0,
2,4470,Note_off_c,9,43,0,
2,4470,Note_off_c,9,44,0,
2,4470,Note_off_c,9,45,0,
2,4470,Note_off_c,9,46,0,
2,4470,Note_off_c,9,47,0,
2,4470,Note_off_c,9,48,0,
2,4470,Note_off_c,9,49,0,
2,4470,Note_off_c,9,50,0,
2,4470,Note_off_c,9,51,0,
2,4470,Note_off_c,9,56,0,
2,4470,Note_off_c,9,57,0,
2,4470,Note_off_c,9,59,0,
2,4470,Note_off_c,9,60,0,
2,4470,Note_off_c,9,61,0,
2,4470,Note_off_c,9,63,0,
2,4470,Note_off_c,9,68,0,
2,4470,Note_off_c,9,69,0,
2,4470,Note_off_c,9,70,0,
2,4470,Note_off_c,9,76,0,
2,4470,Note_off_c,9,80,0,
2,4470,Note_off_c,9,81,0,
2,4470,Note_off_c,9,82,0,
2,4470,Note_off_c,9,87,0,
2,4470,Note_off_c,9,88,0,
2,4470,Note_off_c,9,89,0,
2,4470,Note_off_c,9,91,0,
2,4470,Note_off_c,9,93,0,
2,4500,Note_off_c,9,35,0,
2,4500,Note_off_c,9,36,0,
2,4500,Note_off_c,9,37,0,
2,4500,Note_off_c,9,38,0,
2,4500,Note_off_c,9,39,0,
2,4500,Note_off_c,9,40,0,
2,4500,Note_off_c,9,41,0,
2,4500,Note_off_c,9,42,0,
2,4500,Note_off_c,9,43,0,
2,4500,Note_off_c,9,44,0,
2,4500,Note_off_c,9,45,0,
2,4500,Note_off_c,9,46,0,
2,4500,Note_off_c,9,47,0,
2,4500,Note_off_c,9,48,0,
2,4500,Note_off_c,9,49,0,
2,4500,Note_off_c,9,50,0,
2,4500,Note_off_c,9,51,0,
2,4500,Note_off_c,9,56,0,
2,4500,Note_off_c,9,57,0,
2,4500,Note_off_c,9,59,0,
2,4500,Note_off_c,9,60,0,
2,4500,Note_off_c,9,61,0,
2,4500,Note_off_c,9,63,0,
2,4500,Note_off_c,9,68,0,
2,4500,Note_off_c,9,69,0,
2,4500,Note_off_c,9,70,0,
2,4500,Note_off_c,9,76,0,
2,4500,Note_off_c,9,80,0,
2,4500,Note_off_c,9,81,0,
2,4500,Note_off_c,9,82,0,
2,4500,Note_off_c,9,87,0,
2,4500,Note_off_c,9,88,0,
2,4500,Note_off_c,9,89,0,
2,4500,Note_off_c,9,91,0,
2,4500,Note_off_c,9,93,0,
2,4530,Note_off_c,9,35,0,
2,4530,Note_off_c,9,36,0,
2,4530,Note_off_c,9,37,0,
2,4530,Note_off_c,9,38,0,
2,4530,Note_off_c,9,39,0,
2,4530,Note_off_c,9,40,0,
2,4530,Note_off_c,9,41,0,
2,4530,Note_off_c,9,42,0,
2,4530,Note_off_c,9,43,0,
2,4530,Note_off_c,9,44,0,
2,4530,Note_off_c,9,45,0,
2,4530,Note_off_c,9,46,0,
2,4530,Note_off_c,9,47,0,
2,4530,Note_off_c,9,48,0,
2,4530,Note_off_c,9,49,0,
2,4530,Note_off_c,9,50,0,
2,4530,Note_off_c,9,51,0,
2,4530,Note_off_c,9,56,0,
2,4530,Note_off_c,9,57,0,
2,4530,Note_off_c,9,59,0,
2,4530,Note_off_c,9,60,0,
2,4530,Note_off_c,9,61,0,
2,4530,Note_off_c,9,63,0,
2,4530,Note_off_c,9,68,0,
2,4530,Note_off_c,9,69,0,
2,4530,Note_off_c,9,70,0,
2,4530,Note_off_c,9,76,0,
2,4530,Note_off_c,9,80,0,
2,4530,Note_off_c,9,81,0,
2,4530,Note_off_c,9,82,0,
2,4530,Note_off_c,9,87,0,
2,4530,Note_off_c,9,88,0,
2,4530,Note_off_c,9,89,0,
2,4530,Note_off_c,9,91,0,
2,4530,Note_off_c,9,93,0,
2,4560,Note_off_c,9,35,0,
2,4560,Note_off_c,9,36,0,
2,4560,Note_off_c,9,37,0,
2,4560,Note_off_c,9,38,0,
2,4560,Note_off_c,9,39,0,
2,4560,Note_off_c,9,40,0,
2,4560,Note_off_c,9,41,0,
2,4560,Note_off_c,9,42,0,
2,4560,Note_off_c,9,43,0,
2,4560,Note_off_c,9,44,0,
2,4560,Note_off_c,9,45,0,
2,4560,Note_off_c,9,46,0,
2,4560,Note_off_c,9,47,0,
2,4560,Note_off_c,9,48,0,
2,4560,Note_off_c,9,49,0,
2,4560,Note_off_c,9,50,0,
2,4560,Note_off_c,9,51,0,
2,4560,Note_off_c,9,56,0,
2,4560,Note_off_c,9,57,0,
2,4560,Note_off_c,9,59,0,
2,4560,Note_off_c,9,60,0,
2,4560,Note_off_c,9,61,0,
2,4560,Note_off_c,9,63,0,
2,4560,Note_off_c,9,68,0,
2,4560,Note_off_c,9,69,0,
2,4560,Note_off_c,9,70,0,
2,4560,Note_off_c,9,76,0,
2,4560,Note_off_c,9,80,0,
2,4560,Note_off_c,9,81,0,
2,4560,Note_off_c,9,82,0,
2,4560,Note_off_c,9,87,0,
2,4560,Note_off_c,9,88,0,
2,4560,Note_off_c,9,89,0,
2,4560,Note_off_c,9,91,0,
2,4560,Note_off_c,9,93,0,
2,4590,Note_off_c,9,35,0,
2,4590,Note_off_c,9,36,0,
2,4590,Note_off_c,9,37,0,
2,4590,Note_off_c,9,38,0,
2,4590,Note_off_c,9,39,0,
2,4590,Note_off_c,9,40,0,
2,4590,Note_off_c,9,41,0,
2,4590,Note_off_c,9,42,0,
2,4590,Note_off_c,9,43,0,
2,4590,Note_off_c,9,44,0,
2,4590,Note_off_c,9,45,0,
2,4590,Note_off_c,9,46,0,
2,4590,Note_off_c,9,47,0,
2,4590,Note_off_c,9,48,0,
2,4590,Note_off_c,9,49,0,
2,4590,Note_off_c,9,50,0,
2,4590,Note_off_c,9,51,0,
2,4590,Note_off_c,9,56,0,
2,4590,Note_off_c,9,57,0,
2,4590,Note_off_c,9,59,0,
2,4590,Note_off_c,9,60,0,
2,4590,Note_off_c,9,61,0,
2,4590,Note_off_c,9,63,0,
2,4590,Note_off_c,9,68,0,
2,4590,Note_off_c,9,69,0,
2,4590,Note_off_c,9,70,0,
2,4590,Note_off_c,9,76,0,
2,4590,Note_off_c,9,80,0,
2,4590,Note_off_c,9,81,0,
2,4590,Note_off_c,9,82,0,
2,4590,Note_off_c,9,87,0,
2,4590,Note_off_c,9,88,0,
2,4590,Note_off_c,9,89,0,
2,4590,Note_off_c,9,91,0,
2,4590,Note_off_c,9,93,0,
2,4620,Note_off_c,9,35,0,
2,4620,Note_off_c,9,36,0,
2,4620,Note_off_c,9,37,0,
2,4620,Note_off_c,9,38,0,
2,4620,Note_off_c,9,39,0,
2,4620,Note_off_c,9,40,0,
2,4620,Note_off_c,9,41,0,
2,4620,Note_off_c,9,42,0,
2,4620,Note_off_c,9,43,0,
2,4620,Note_off_c,9,44,0,
2,4620,Note_off_c,9,45,0,
2,4620,Note_off_c,9,46,0,
2,4620,Note_off_c,9,47,0,
2,4620,Note_off_c,9,48,0,
2,4620,Note_off_c,9,49,0,
2,4620,Note_off_c,9,50,0,
2,4620,Note_off_c,9,51,0,
2,4620,Note_off_c,9,56,0,
2,4620,Note_off_c,9,57,0,
2,4620,Note_off_c,9,59,0,
2,4620,Note_off_c,9,60,0,
2,4620,Note_off_c,9,61,0,
2,4620,Note_off_c,9,63,0,
2,4620,Note_off_c,9,68,0,
2,4620,Note_off_c,9,69,0,
2,4620,Note_off_c,9,70,0,
2,4620,Note_off_c,9,76,0,
2,4620,Note_off_c,9,80,0,
2,4620,Note_off_c,9,81,0,
2,4620,Note_off_c,9,82,0,
2,4620,Note_off_c,9,87,0,
2,4620,Note_off_c,9,88,0,
2,4620,Note_off_c,9,89,0,
2,4620,Note_off_c,9,91,0,
2,4620,Note_off_c,9,93,0,
2,4650,Note_off_c,9,35,0,
2,4650,Note_off_c,9,36,0,
2,4650,Note_off_c,9,37,0,
2,4650,Note_off_c,9,38,0,
2,4650,Note_off_c,9,39,0,
2,4650,Note_off_c,9,40,0,
2,4650,Note_off_c,9,41,0,
2,4650,Note_off_c,9,42,0,
2,4650,Note_off_c,9,43,0,
2,4650,Note_off_c,9,44,0,
2,4650,Note_off_c,9,45,0,
2,4650,Note_off_c,9,46,0,
2,4650,Note_off_c,9,47,0,
2,4650,Note_off_c,9,48,0,
2,4650,Note_off_c,9,49,0,
2,4650,Note_off_c,9,50,0,
2,4650,Note_off_c,9,51,0,
2,4650,Note_off_c,9,56,0,
2,4650,Note_off_c,9,57,0,
2,4650,Note_off_c,9,59,0,
2,4650,Note_off_c,9,60,0,
2,4650,Note_off_c,9,61,0,
2,4650,Note_off_c,9,63,0,
2,4650,Note_off_c,9,68,0,
2,4650,Note_off_c,9,69,0,
2,4650,Note_off_c,9,70,0,
2,4650,Note_off_c,9,76,0,
2,4650,Note_off_c,9,80,0,
2,4650,Note_off_c,9,81,0,
2,4650,Note_off_c,9,82,0,
2,4650,Note_off_c,9,87,0,
2,4650,Note_off_c,9,88,0,
2,4650,Note_off_c,9,89,0,
2,4650,Note_off_c,9,91,0,
2,4650,Note_off_c,9,93,0,
2,4680,Note_off_c,9,35,0,
2,4680,Note_off_c,9,36,0,
2,4680,Note_off_c,9,37,0,
2,4680,Note_off_c,9,38,0,
2,4680,Note_off_c,9,39,0,
2,4680,Note_off_c,9,40,0,
2,4680,Note_off_c,9,41,0,
2,4680,Note_off_c,9,42,0,
2,4680,Note_off_c,9,43,0,
2,4680,Note_off_c,9,44,0,
2,4680,Note_off_c,9,45,0,
2,4680,Note_off_c,9,46,0,
2,4680,Note_off_c,9,47,0,
2,4680,Note_off_c,9,48,0,
2,4680,Note_off_c,9,49,0,
2,4680,Note_off_c,9,50,0,
2,4680,Note_off_c,9,51,0,
2,4680,Note_off_c,9,56,0,
2,4680,Note_off_c,9,57,0,
2,4680,Note_off_c,9,59,0,
2,4680,Note_off_c,9,60,0,
2,4680,Note_off_c,9,61,0,
2,4680,Note_off_c,9,63,0,
2,4680,Note_off_c,9,68,0,
2,4680,Note_off_c,9,69,0,
2,4680,Note_off_c,9,70,0,
2,4680,Note_off_c,9,76,0,
2,4680,Note_off_c,9,80,0,
2,4680,Note_off_c,9,81,0,
2,4680,Note_off_c,9,82,0,
2,4680,Note_off_c,9,87,0,
2,4680,Note_off_c,9,88,0,
2,4680,Note_off_c,9,89,0,
2,4680,Note_off_c,9,91,0,
2,4680,Note_off_c,9,93,0,
2,4710,Note_off_c,9,35,0,
2,4710,Note_off_c,9,36,0,
2,4710,Note_off_c,9,37,0,
2,4710,Note_off_c,9,38,0,
2,4710,Note_off_c,9,39,0,
2,4710,Note_off_c,9,40,0,
2,4710,Note_off_c,9,41,0,
2,4710,Note_off_c,9,42,0,
2,4710,Note_off_c,9,43,0,
2,4710,Note_off_c,9,44,0,
2,4710,Note_off_c,9,45,0,
2,4710,Note_off_c,9,46,0,
2,4710,Note_off_c,9,47,0,
2,4710,Note_off_c,9,48,0,
2,4710,Note_off_c,9,49,0,
2,4710,Note_off_c,9,50,0,
2,4710,Note_off_c,9,51,0,
2,4710,Note_off_c,9,56,0,
2,4710,Note_off_c,9,57,0,
2,4710,Note_off_c,9,59,0,
2,4710,Note_off_c,9,60,0,
2,4710,Note_off_c,9,61,0,
2,4710,Note_off_c,9,63,0,
2,4710,Note_off_c,9,68,0,
2,4710,Note_off_c,9,69,0,
2,4710,Note_off_c,9,70,0,
2,4710,Note_off_c,9,76,0,
2,4710,Note_off_c,9,80,0,
2,4710,Note_off_c,9,81,0,
2,4710,Note_off_c,9,82,0,
2,4710,Note_off_c,9,87,0,
2,4710,Note_off_c,9,88,0,
2,4710,Note_off_c,9,89,0,
2,4710,Note_off_c,9,91,0,
2,4710,Note_off_c,9,93,0,
2,4740,Note_off_c,9,35,0,
2,4740,Note_off_c,9,36,0,
2,4740,Note_off_c,9,37,0,
2,4740,Note_off_c,9,38,0,
2,4740,Note_off_c,9,39,0,
2,4740,Note_off_c,9,40,0,
2,4740,Note_off_c,9,41,0,
2,4740,Note_off_c,9,42,0,
2,4740,Note_off_c,9,43,0,
2,4740,Note_off_c,9,44,0,
2,4740,Note_off_c,9,45,0,
2,4740,Note_off_c,9,46,0,
2,4740,Note_off_c,9,47,0,
2,4740,Note_off_c,9,48,0,
2,4740,Note_off_c,9,49,0,
2,4740,Note_off_c,9,50,0,
2,4740,Note_off_c,9,51,0,
2,4740,Note_off_c,9,56,0,
2,4740,Note_off_c,9,57,0,
2,4740,Note_off_c,9,59,0,
2,4740,Note_off_c,9,60,0,
2,4740,Note_off_c,9,61,0,
2,4740,Note_off_c,9,63,0,
2,4740,Note_off_c,9,68,0,
2,4740,Note_off_c,9,69,0,
2,4740,Note_off_c,9,70,0,
2,4740,Note_off_c,9,76,0,
2,4740,Note_off_c,9,80,0,
2,4740,Note_off_c,9,81,0,
2,4740,Note_off_c,9,82,0,
2,4740,Note_off_c,9,87,0,
2,4740,Note_off_c,9,88,0,
2,4740,Note_off_c,9,89,0,
2,4740,Note_off_c,9,91,0,
2,4740,Note_off_c,9,93,0,
2,4770,Note_off_c,9,35,0,
2,4770,Note_off_c,9,36,0,
2,4770,Note_off_c,9,37,0,
2,4770,Note_off_c,9,38,0,
2,4770,Note_off_c,9,39,0,
2,4770,Note_off_c,9,40,0,
2,4770,Note_off_c,9,41,0,
2,4770,Note_off_c,9,42,0,
2,4770,Note_off_c,9,43,0,
2,4770,Note_off_c,9,44,0,
2,4770,Note_off_c,9,45,0,
2,4770,Note_off_c,9,46,0,
2,4770,Note_off_c,9,47,0,
2,4770,Note_off_c,9,48,0,
2,4770,Note_off_c,9,49,0,
2,4770,Note_off_c,9,50,0,
2,4770,Note_off_c,9,51,0,
2,4770,Note_off_c,9,56,0,
2,4770,Note_off_c,9,57,0,
2,4770,Note_off_c,9,59,0,
2,4770,Note_off_c,9,60,0,
2,4770,Note_off_c,9,61,0,
2,4770,Note_off_c,9,63,0,
2,4770,Note_off_c,9,68,0,
2,4770,Note_off_c,9,69,0,
2,4770,Note_off_c,9,70,0,
2,4770,Note_off_c,9,76,0,
2,4770,Note_off_c,9,80,0,
2,4770,Note_off_c,9,81,0,
2,4770,Note_off_c,9,82,0,
2,4770,Note_off_c,9,87,0,
2,4770,Note_off_c,9,88,0,
2,4770,Note_off_c,9,89,0,
2,4770,Note_off_c,9,91,0,
2,4770,Note_off_c,9,93,0,
2,4800,Note_off_c,9,35,0,
2,4800,Note_off_c,9,36,0,
2,4800,Note_off_c,9,37,0,
2,4800,Note_off_c,9,38,0,
2,4800,Note_off_c,9,39,0,
2,4800,Note_off_c,9,40,0,
2,4800,Note_off_c,9,41,0,
2,4800,Note_off_c,9,42,0,
2,4800,Note_off_c,9,43,0,
2,4800,Note_off_c,9,44,0,
2,4800,Note_off_c,9,45,0,
2,4800,Note_off_c,9,46,0,
2,4800,Note_off_c,9,47,0,
2,4800,Note_off_c,9,48,0,
2,4800,Note_off_c,9,49,0,
2,4800,Note_off_c,9,50,0,
2,4800,Note_off_c,9,51,0,
2,4800,Note_off_c,9,56,0,
2,4800,Note_off_c,9,57,0,
2,4800,Note_off_c,9,59,0,
2,4800,Note_off_c,9,60,0,
2,4800,Note_off_c,9,61,0,
2,4800,Note_off_c,9,63,0,
2,4800,Note_off_c,9,68,0,
2,4800,Note_off_c,9,69,0,
2,4800,Note_off_c,9,70,0,
2,4800,Note_off_c,9,76,0,
2,4800,Note_off_c,9,80,0,
2,4800,Note_off_c,9,81,0,
2,4800,Note_off_c,9,82,0,
2,4800,Note_off_c,9,87,0,
2,4800,Note_off_c,9,88,0,
2,4800,Note_off_c,9,89,0,
2,4800,Note_off_c,9,91,0,
2,4800,Note_off_c,9,93,0,
2,4830,Note_off_c,9,35,0,
2,4830,Note_off_c,9,36,0,
2,4830,Note_off_c,9,37,0,
2,4830,Note_off_c,9,38,0,
2,4830,Note_off_c,9,39,0,
2,4830,Note_off_c,9,40,0,
2,4830,Note_off_c,9,41,0,
2,4830,Note_off_c,9,42,0,
2,4830,Note_off_c,9,43,0,
2,4830,Note_off_c,9,44,0,
2,4830,Note_off_c,9,45,0,
2,4830,Note_off_c,9,46,0,
2,4830,Note_off_c,9,47,0,
2,4830,Note_off_c,9,48,0,
2,4830,Note_off_c,9,49,0,
2,4830,Note_off_c,9,50,0,
2,4830,Note_off_c,9,51,0,
2,4830,Note_off_c,9,56,0,
2,4830,Note_off_c,9,57,0,
2,4830,Note_off_c,9,59,0,
2,4830,Note_off_c,9,60,0,
2,4830,Note_off_c,9,61,0,
2,4830,Note_off_c,9,63,0,
2,4830,Note_off_c,9,68,0,
2,4830,Note_off_c,9,69,0,
2,4830,Note_off_c,9,70,0,
2,4830,Note_off_c,9,76,0,
2,4830,Note_off_c,9,80,0,
2,4830,Note_off_c,9,81,0,
2,4830,Note_off_c,9,82,0,
2,4830,Note_off_c,9,87,0,
2,4830,Note_off_c,9,88,0,
2,4830,Note_off_c,9,89,0,
2,4830,Note_off_c,9,91,0,
2,4830,Note_off_c,9,93,0,
2,4860,Note_off_c,9,35,0,
2,4860,Note_off_c,9,36,0,
2,4860,Note_off_c,9,37,0,
2,4860,Note_off_c,9,38,0,
2,4860,Note_off_c,9,39,0,
2,4860,Note_off_c,9,40,0,
2,4860,Note_off_c,9,41,0,
2,4860,Note_off_c,9,42,0,
2,4860,Note_off_c,9,43,0,
2,4860,Note_off_c,9,44,0,
2,4860,Note_off_c,9,45,0,
2,4860,Note_off_c,9,46,0,
2,4860,Note_off_c,9,47,0,
2,4860,Note_off_c,9,48,0,
2,4860,Note_off_c,9,49,0,
2,4860,Note_off_c,9,50,0,
2,4860,Note_off_c,9,51,0,
2,4860,Note_off_c,9,56,0,
2,4860,Note_off_c,9,57,0,
2,4860,Note_off_c,9,59,0,
2,4860,Note_off_c,9,60,0,
2,4860,Note_off_c,9,61,0,
2,4860,Note_off_c,9,63,0,
2,4860,Note_off_c,9,68,0,
2,4860,Note_off_c,9,69,0,
2,4860,Note_off_c,9,70,0,
2,4860,Note_off_c,9,76,0,
2,4860,Note_off_c,9,80,0,
2,4860,Note_off_c,9,81,0,
2,4860,Note_off_c,9,82,0,
2,4860,Note_off_c,9,87,0,
2,4860,Note_off_c,9,88,0,
2,4860,Note_off_c,9,89,0,
2,4860,Note_off_c,9,91,0,
2,4860,Note_off_c,9,93,0,
2,4890,Note_off_c,9,35,0,
2,4890,Note_off_c,9,36,0,
2,4890,Note_off_c,9,37,0,
2,4890,Note_off_c,9,38,0,
2,4890,Note_off_c,9,39,0,
2,4890,Note_off_c,9,40,0,
2,4890,Note_off_c,9,41,0,
2,4890,Note_off_c,9,42,0,
2,4890,Note_off_c,9,43,0,
2,4890,Note_off_c,9,44,0,
2,4890,Note_off_c,9,45,0,
2,4890,Note_off_c,9,46,0,
2,4890,Note_off_c,9,47,0,
2,4890,Note_off_c,9,48,0,
2,4890,Note_off_c,9,49,0,
2,4890,Note_off_c,9,50,0,
2,4890,Note_off_c,9,51,0,
2,4890,Note_off_c,9,56,0,
2,4890,Note_off_c,9,57,0,
2,4890,Note_off_c,9,59,0,
2,4890,Note_off_c,9,60,0,
2,4890,Note_off_c,9,61,0,
2,4890,Note_off_c,9,63,0,
2,4890,Note_off_c,9,68,0,
2,4890,Note_off_c,9,69,0,
2,4890,Note_off_c,9,70,0,
2,4890,Note_off_c,9,76,0,
2,4890,Note_off_c,9,80,0,
2,4890,Note_off_c,9,81,0,
2,4890,Note_off_c,9,82,0,
2,4890,Note_off_c,9,87,0,
2,4890,Note_off_c,9,88,0,
2,4890,Note_off_c,9,89,0,
2,4890,Note_off_c,9,91,0,
2,4890,Note_off_c,9,93,0,
2,4920,Note_off_c,9,35,0,
2,4920,Note_off_c,9,36,0,
2,4920,Note_off_c,9,37,0,
2,4920,Note_off_c,9,38,0,
2,4920,Note_off_c,9,39,0,
2,4920,Note_off_c,9,40,0,
2,4920,Note_off_c,9,41,0,
2,4920,Note_off_c,9,42,0,
2,4920,Note_off_c,9,43,0,
2,4920,Note_off_c,9,44,0,
2,4920,Note_off_c,9,45,0,
2,4920,Note_off_c,9,46,0,
2,4920,Note_off_c,9,47,0,
2,4920,Note_off_c,9,48,0,
2,4920,Note_off_c,9,49,0,
2,4920,Note_off_c,9,50,0,
2,4920,Note_off_c,9,51,0,
2,4920,Note_off_c,9,56,0,
2,4920,Note_off_c,9,57,0,
2,4920,Note_off_c,9,59,0,
2,4920,Note_off_c,9,60,0,
2,4920,Note_off_c,9,61,0,
2,4920,Note_off_c,9,63,0,
2,4920,Note_off_c,9,68,0,
2,4920,Note_off_c,9,69,0,
2,4920,Note_off_c,9,70,0,
2,4920,Note_off_c,9,76,0,
2,4920,Note_off_c,9,80,0,
2,4920,Note_off_c,9,81,0,
2,4920,Note_off_c,9,82,0,
2,4920,Note_off_c,9,87,0,
2,4920,Note_off_c,9,88,0,
2,4920,Note_off_c,9,89,0,
2,4920,Note_off_c,9,91,0,
2,4920,Note_off_c,9,93,0,
2,4950,Note_off_c,9,35,0,
2,4950,Note_off_c,9,36,0,
2,4950,Note_off_c,9,37,0,
2,4950,Note_off_c,9,38,0,
2,4950,Note_off_c,9,39,0,
2,4950,Note_off_c,9,40,0,
2,4950,Note_off_c,9,41,0,
2,4950,Note_off_c,9,42,0,
2,4950,Note_off_c,9,43,0,
2,4950,Note_off_c,9,44,0,
2,4950,Note_off_c,9,45,0,
2,4950,Note_off_c,9,46,0,
2,4950,Note_off_c,9,47,0,
2,4950,Note_off_c,9,48,0,
2,4950,Note_off_c,9,49,0,
2,4950,Note_off_c,9,50,0,
2,4950,Note_off_c,9,51,0,
2,4950,Note_off_c,9,56,0,
2,4950,Note_off_c,9,57,0,
2,4950,Note_off_c,9,59,0,
2,4950,Note_off_c,9,60,0,
2,4950,Note_off_c,9,61,0,
2,4950,Note_off_c,9,63,0,
2,4950,Note_off_c,9,68,0,
2,4950,Note_off_c,9,69,0,
2,4950,Note_off_c,9,70,0,
2,4950,Note_off_c,9,76,0,
2,4950,Note_off_c,9,80,0,
2,4950,Note_off_c,9,81,0,
2,4950,Note_off_c,9,82,0,
2,4950,Note_off_c,9,87,0,
2,4950,Note_off_c,9,88,0,
2,4950,Note_off_c,9,89,0,
2,4950,Note_off_c,9,91,0,
2,4950,Note_off_c,9,93,0,
2,4980,Note_off_c,9,35,0,
2,4980,Note_off_c,9,36,0,
2,4980,Note_off_c,9,37,0,
2,4980,Note_off_c,9,38,0,
2,4980,Note_off_c,9,39,0,
2,4980,Note_off_c,9,40,0,
2,4980,Note_off_c,9,41,0,
2,4980,Note_off_c,9,42,0,
2,4980,Note_off_c,9,43,0,
2,4980,Note_off_c,9,44,0,
2,4980,Note_off_c,9,45,0,
2,4980,Note_off_c,9,46,0,
2,4980,Note_off_c,9,47,0,
2,4980,Note_off_c,9,48,0,
2,4980,Note_off_c,9,49,0,
2,4980,Note_off_c,9,50,0,
2,4980,Note_off_c,9,51,0,
2,4980,Note_off_c,9,56,0,
2,4980,Note_off_c,9,57,0,
2,4980,Note_off_c,9,59,0,
2,4980,Note_off_c,9,60,0,
2,4980,Note_off_c,9,61,0,
2,4980,Note_off_c,9,63,0,
2,4980,Note_off_c,9,68,0,
2,4980,Note_off_c,9,69,0,
2,4980,Note_off_c,9,70,0,
2,4980,Note_off_c,9,76,0,
2,4980,Note_off_c,9,80,0,
2,4980,Note_off_c,9,81,0,
2,4980,Note_off_c,9,82,0,
2,4980,Note_off_c,9,87,0,
2,4980,Note_off_c,9,88,0,
2,4980,Note_off_c,9,89,0,
2,4980,Note_off_c,9,91,0,
2,4980,Note_off_c,9,93,0,
2,5010,Note_off_c,9,35,0,
2,5010,Note_off_c,9,36,0,
2,5010,Note_off_c,9,37,0,
2,5010,Note_off_c,9,38,0,
2,5010,Note_off_c,9,39,0,
2,5010,Note_off_c,9,40,0,
2,5010,Note_off_c,9,41,0,
2,5010,Note_off_c,9,42,0,
2,5010,Note_off_c,9,43,0,
2,5010,Note_off_c,9,44,0,
2,5010,Note_off_c,9,45,0,
2,5010,Note_off_c,9,46,0,
2,5010,Note_off_c,9,47,0,
2,5010,Note_off_c,9,48,0,
2,5010,Note_off_c,9,49,0,
2,5010,Note_off_c,9,50,0,
2,5010,Note_off_c,9,51,0,
2,5010,Note_off_c,9,56,0,
2,5010,Note_off_c,9,57,0,
2,5010,Note_off_c,9,59,0,
2,5010,Note_off_c,9,60,0,
2,5010,Note_off_c,9,61,0,
2,5010,Note_off_c,9,63,0,
2,5010,Note_off_c,9,68,0,
2,5010,Note_off_c,9,69,0,
2,5010,Note_off_c,9,70,0,
2,5010,Note_off_c,9,76,0,
2,5010,Note_off_c,9,80,0,
2,5010,Note_off_c,9,81,0,
2,5010,Note_off_c,9,82,0,
2,5010,Note_off_c,9,87,0,
2,5010,Note_off_c,9,88,0,
2,5010,Note_off_c,9,89,0,
2,5010,Note_off_c,9,91,0,
2,5010,Note_off_c,9,93,0,
2,5040,Note_off_c,9,35,0,
2,5040,Note_off_c,9,36,0,
2,5040,Note_off_c,9,37,0,
2,5040,Note_off_c,9,38,0,
2,5040,Note_off_c,9,39,0,
2,5040,Note_off_c,9,40,0,
2,5040,Note_off_c,9,41,0,
2,5040,Note_off_c,9,42,0,
2,5040,Note_off_c,9,43,0,
2,5040,Note_off_c,9,44,0,
2,5040,Note_off_c,9,45,0,
2,5040,Note_off_c,9,46,0,
2,5040,Note_off_c,9,47,0,
2,5040,Note_off_c,9,48,0,
2,5040,Note_off_c,9,49,0,
2,5040,Note_off_c,9,50,0,
2,5040,Note_off_c,9,51,0,
2,5040,Note_off_c,9,56,0,
2,5040,Note_off_c,9,57,0,
2,5040,Note_off_c,9,59,0,
2,5040,Note_off_c,9,60,0,
2,5040,Note_off_c,9,61,0,
2,5040,Note_off_c,9,63,0,
2,5040,Note_off_c,9,68,0,
2,5040,Note_off_c,9,69,0,
2,5040,Note_off_c,9,70,0,
2,5040,Note_off_c,9,76,0,
2,5040,Note_off_c,9,80,0,
2,5040,Note_off_c,9,81,0,
2,5040,Note_off_c,9,82,0,
2,5040,Note_off_c,9,87,0,
2,5040,Note_off_c,9,88,0,
2,5040,Note_off_c,9,89,0,
2,5040,Note_off_c,9,91,0,
2,5040,Note_off_c,9,93,0,
2,5070,Note_off_c,9,35,0,
2,5070,Note_off_c,9,36,0,
2,5070,Note_off_c,9,37,0,
2,5070,Note_off_c,9,38,0,
2,5070,Note_off_c,9,39,0,
2,5070,Note_off_c,9,40,0,
2,5070,Note_off_c,9,41,0,
2,5070,Note_off_c,9,42,0,
2,5070,Note_off_c,9,43,0,
2,5070,Note_off_c,9,44,0,
2,5070,Note_off_c,9,45,0,
2,5070,Note_off_c,9,46,0,
2,5070,Note_off_c,9,47,0,
2,5070,Note_off_c,9,48,0,
2,5070,Note_off_c,9,49,0,
2,5070,Note_off_c,9,50,0,
2,5070,Note_off_c,9,51,0,
2,5070,Note_off_c,9,56,0,
2,5070,Note_off_c,9,57,0,
2,5070,Note_off_c,9,59,0,
2,5070,Note_off_c,9,60,0,
2,5070,Note_off_c,9,61,0,
2,5070,Note_off_c,9,63,0,
2,5070,Note_off_c,9,68,0,
2,5070,Note_off_c,9,69,0,
2,5070,Note_off_c,9,70,0,
2,5070,Note_off_c,9,76,0,
2,5070,Note_off_c,9,80,0,
2,5070,Note_off_c,9,81,0,
2,5070,Note_off_c,9,82,0,
2,5070,Note_off_c,9,87,0,
2,5070,Note_off_c,9,88,0,
2,5070,Note_off_c,9,89,0,
2,5070,Note_off_c,9,91,0,
2,5070,Note_off_c,9,93,0,
2,5100,Note_off_c,9,35,0,
2,5100,Note_off_c,9,36,0,
2,5100,Note_off_c,9,37,0,
2,5100,Note_off_c,9,38,0,
2,5100,Note_off_c,9,39,0,
2,5100,Note_off_c,9,40,0,
2,5100,Note_off_c,9,41,0,
2,5100,Note_off_c,9,42,0,
2,5100,Note_off_c,9,43,0,
2,5100,Note_off_c,9,44,0,
2,5100,Note_off_c,9,45,0,
2,5100,Note_off_c,9,46,0,
2,5100,Note_off_c,9,47,0,
2,5100,Note_off_c,9,48,0,
2,5100,Note_off_c,9,49,0,
2,5100,Note_off_c,9,50,0,
2,5100,Note_off_c,9,51,0,
2,5100,Note_off_c,9,56,0,
2,5100,Note_off_c,9,57,0,
2,5100,Note_off_c,9,59,0,
2,5100,Note_off_c,9,60,0,
2,5100,Note_off_c,9,61,0,
2,5100,Note_off_c,9,63,0,
2,5100,Note_off_c,9,68,0,
2,5100,Note_off_c,9,69,0,
2,5100,Note_off_c,9,70,0,
2,5100,Note_off_c,9,76,0,
2,5100,Note_off_c,9,80,0,
2,5100,Note_off_c,9,81,0,
2,5100,Note_off_c,9,82,0,
2,5100,Note_off_c,9,87,0,
2,5100,Note_off_c,9,88,0,
2,5100,Note_off_c,9,89,0,
2,5100,Note_off_c,9,91,0,
2,5100,Note_off_c,9,93,0,
2,5130,Note_off_c,9,35,0,
2,5130,Note_off_c,9,36,0,
2,5130,Note_off_c,9,37,0,
2,5130,Note_off_c,9,38,0,
2,5130,Note_off_c,9,39,0,
2,5130,Note_off_c,9,40,0,
2,5130,Note_off_c,9,41,0,
2,5130,Note_off_c,9,42,0,
2,5130,Note_off_c,9,43,0,
2,5130,Note_off_c,9,44,0,
2,5130,Note_off_c,9,45,0,
2,5130,Note_off_c,9,46,0,
2,5130,Note_off_c,9,47,0,
2,5130,Note_off_c,9,48,0,
2,5130,Note_off_c,9,49,0,
2,5130,Note_off_c,9,50,0,
2,5130,Note_off_c,9,51,0,
2,5130,Note_off_c,9,56,0,
2,5130,Note_off_c,9,57,0,
2,5130,Note_off_c,9,59,0,
2,5130,Note_off_c,9,60,0,
2,5130,Note_off_c,9,61,0,
2,5130,Note_off_c,9,63,0,
2,5130,Note_off_c,9,68,0,
2,5130,Note_off_c,9,69,0,
2,5130,Note_off_c,9,70,0,
2,5130,Note_off_c,9,76,0,
2,5130,Note_off_c,9,80,0,
2,5130,Note_off_c,9,81,0,
2,5130,Note_off_c,9,82,0,
2,5130,Note_off_c,9,87,0,
2,5130,Note_off_c,9,88,0,
2,5130,Note_off_c,9,89,0,
2,5130,Note_off_c,9,91,0,
2,5130,Note_off_c,9,93,0,
2,5160,Note_off_c,9,35,0,
2,5160,Note_off_c,9,36,0,
2,5160,Note_off_c,9,37,0,
2,5160,Note_off_c,9,38,0,
2,5160,Note_off_c,9,39,0,
2,5160,Note_off_c,9,40,0,
2,5160,Note_off_c,9,41,0,
2,5160,Note_off_c,9,42,0,
2,5160,Note_off_c,9,43,0,
2,5160,Note_off_c,9,44,0,
2,5160,Note_off_c,9,45,0,
2,5160,Note_off_c,9,46,0,
2,5160,Note_off_c,9,47,0,
2,5160,Note_off_c,9,48,0,
2,5160,Note_off_c,9,49,0,
2,5160,Note_off_c,9,50,0,
2,5160,Note_off_c,9,51,0,
2,5160,Note_off_c,9,56,0,
2,5160,Note_off_c,9,57,0,
2,5160,Note_off_c,9,59,0,
2,5160,Note_off_c,9,60,0,
2,5160,Note_off_c,9,61,0,
2,5160,Note_off_c,9,63,0,
2,5160,Note_off_c,9,68,0,
2,5160,Note_off_c,9,69,0,
2,5160,Note_off_c,9,70,0,
2,5160,Note_off_c,9,76,0,
2,5160,Note_off_c,9,80,0,
2,5160,Note_off_c,9,81,0,
2,5160,Note_off_c,9,82,0,
2,5160,Note_off_c,9,87,0,
2,5160,Note_off_c,9,88,0,
2,5160,Note_off_c,9,89,0,
2,5160,Note_off_c,9,91,0,
2,5160,Note_off_c,9,93,0,
2,5190,Note_off_c,9,35,0,
2,5190,Note_off_c,9,36,0,
2,5190,Note_off_c,9,37,0,
2,5190,Note_off_c,9,38,0,
2,5190,Note_off_c,9,39,0,
2,5190,Note_off_c,9,40,0,
2,5190,Note_off_c,9,41,0,
2,5190,Note_off_c,9,42,0,
2,5190,Note_off_c,9,43,0,
2,5190,Note_off_c,9,44,0,
2,5190,Note_off_c,9,45,0,
2,5190,Note_off_c,9,46,0,
2,5190,Note_off_c,9,47,0,
2,5190,Note_off_c,9,48,0,
2,5190,Note_off_c,9,49,0,
2,5190,Note_off_c,9,50,0,
2,5190,Note_off_c,9,51,0,
2,5190,Note_off_c,9,56,0,
2,5190,Note_off_c,9,57,0,
2,5190,Note_off_c,9,59,0,
2,5190,Note_off_c,9,60,0,
2,5190,Note_off_c,9,61,0,
2,5190,Note_off_c,9,63,0,
2,5190,Note_off_c,9,68,0,
2,5190,Note_off_c,9,69,0,
2,5190,Note_off_c,9,70,0,
2,5190,Note_off_c,9,76,0,
2,5190,Note_off_c,9,80,0,
2,5190,Note_off_c,9,81,0,
2,5190,Note_off_c,9,82,0,
2,5190,Note_off_c,9,87,0,
2,5190,Note_off_c,9,88,0,
2,5190,Note_off_c,9,89,0,
2,5190,Note_off_c,9,91,0,
2,5190,Note_off_c,9,93,0,
2,5220,Note_off_c,9,35,0,
2,5220,Note_off_c,9,36,0,
2,5220,Note_off_c,9,37,0,
2,5220,Note_off_c,9,38,0,
2,5220,Note_off_c,9,39,0,
2,5220,Note_off_c,9,40,0,
2,5220,Note_off_c,9,41,0,
2,5220,Note_off_c,9,42,0,
2,5220,Note_off_c,9,43,0,
2,5220,Note_off_c,9,44,0,
2,5220,Note_off_c,9,45,0,
2,5220,Note_off_c,9,46,0,
2,5220,Note_off_c,9,47,0,
2,5220,Note_off_c,9,48,0,
2,5220,Note_off_c,9,49,0,
2,5220,Note_off_c,9,50,0,
2,5220,Note_off_c,9,51,0,
2,5220,Note_off_c,9,56,0,
2,5220,Note_off_c,9,57,0,
2,5220,Note_off_c,9,59,0,
2,5220,Note_off_c,9,60,0,
2,5220,Note_off_c,9,61,0,
2,5220,Note_off_c,9,63,0,
2,5220,Note_off_c,9,68,0,
2,5220,Note_off_c,9,69,0,
2,5220,Note_off_c,9,70,0,
2,5220,Note_off_c,9,76,0,
2,5220,Note_off_c,9,80,0,
2,5220,Note_off_c,9,81,0,
2,5220,Note_off_c,9,82,0,
2,5220,Note_off_c,9,87,0,
2,5220,Note_off_c,9,88,0,
2,5220,Note_off_c,9,89,0,
2,5220,Note_off_c,9,91,0,
2,5220,Note_off_c,9,93,0,
2,5250,Note_off_c,9,35,0,
2,5250,Note_off_c,9,36,0,
2,5250,Note_off_c,9,37,0,
2,5250,Note_off_c,9,38,0,
2,5250,Note_off_c,9,39,0,
2,5250,Note_off_c,9,40,0,
2,5250,Note_off_c,9,41,0,
2,5250,Note_off_c,9,42,0,
2,5250,Note_off_c,9,43,0,
2,5250,Note_off_c,9,44,0,
2,5250,Note_off_c,9,45,0,
2,5250,Note_off_c,9,46,0,
2,5250,Note_off_c,9,47,0,
2,5250,Note_off_c,9,48,0,
2,5250,Note_off_c,9,49,0,
2,5250,Note_off_c,9,50,0,
2,5250,Note_off_c,9,51,0,
2,5250,Note_off_c,9,56,0,
2,5250,Note_off_c,9,57,0,
2,5250,Note_off_c,9,59,0,
2,5250,Note_off_c,9,60,0,
2,5250,Note_off_c,9,61,0,
2,5250,Note_off_c,9,63,0,
2,5250,Note_off_c,9,68,0,
2,5250,Note_off_c,9,69,0,
2,5250,Note_off_c,9,70,0,
2,5250,Note_off_c,9,76,0,
2,5250,Note_off_c,9,80,0,
2,5250,Note_off_c,9,81,0,
2,5250,Note_off_c,9,82,0,
2,5250,Note_off_c,9,87,0,
2,5250,Note_off_c,9,88,0,
2,5250,Note_off_c,9,89,0,
2,5250,Note_off_c,9,91,0,
2,5250,Note_off_c,9,93,0,
2,5280,Note_off_c,9,35,0,
2,5280,Note_off_c,9,36,0,
2,5280,Note_off_c,9,37,0,
2,5280,Note_off_c,9,38,0,
2,5280,Note_off_c,9,39,0,
2,5280,Note_off_c,9,40,0,
2,5280,Note_off_c,9,41,0,
2,5280,Note_off_c,9,42,0,
2,5280,Note_off_c,9,43,0,
2,5280,Note_off_c,9,44,0,
2,5280,Note_off_c,9,45,0,
2,5280,Note_off_c,9,46,0,
2,5280,Note_off_c,9,47,0,
2,5280,Note_off_c,9,48,0,
2,5280,Note_off_c,9,49,0,
2,5280,Note_off_c,9,50,0,
2,5280,Note_off_c,9,51,0,
2,5280,Note_off_c,9,56,0,
2,5280,Note_off_c,9,57,0,
2,5280,Note_off_c,9,59,0,
2,5280,Note_off_c,9,60,0,
2,5280,Note_off_c,9,61,0,
2,5280,Note_off_c,9,63,0,
2,5280,Note_off_c,9,68,0,
2,5280,Note_off_c,9,69,0,
2,5280,Note_off_c,9,70,0,
2,5280,Note_off_c,9,76,0,
2,5280,Note_off_c,9,80,0,
2,5280,Note_off_c,9,81,0,
2,5280,Note_off_c,9,82,0,
2,5280,Note_off_c,9,87,0,
2,5280,Note_off_c,9,88,0,
2,5280,Note_off_c,9,89,0,
2,5280,Note_off_c,9,91,0,
2,5280,Note_off_c,9,93,0,
2,5310,Note_off_c,9,35,0,
2,5310,Note_off_c,9,36,0,
2,5310,Note_off_c,9,37,0,
2,5310,Note_off_c,9,38,0,
2,5310,Note_off_c,9,39,0,
2,5310,Note_off_c,9,40,0,
2,5310,Note_off_c,9,41,0,
2,5310,Note_off_c,9,42,0,
2,5310,Note_off_c,9,43,0,
2,5310,Note_off_c,9,44,0,
2,5310,Note_off_c,9,45,0,
2,5310,Note_off_c,9,46,0,
2,5310,Note_off_c,9,47,0,
2,5310,Note_off_c,9,48,0,
2,5310,Note_off_c,9,49,0,
2,5310,Note_off_c,9,50,0,
2,5310,Note_off_c,9,51,0,
2,5310,Note_off_c,9,56,0,
2,5310,Note_off_c,9,57,0,
2,5310,Note_off_c,9,59,0,
2,5310,Note_off_c,9,60,0,
2,5310,Note_off_c,9,61,0,
2,5310,Note_off_c,9,63,0,
2,5310,Note_off_c,9,68,0,
2,5310,Note_off_c,9,69,0,
2,5310,Note_off_c,9,70,0,
2,5310,Note_off_c,9,76,0,
2,5310,Note_off_c,9,80,0,
2,5310,Note_off_c,9,81,0,
2,5310,Note_off_c,9,82,0,
2,5310,Note_off_c,9,87,0,
2,5310,Note_off_c,9,88,0,
2,5310,Note_off_c,9,89,0,
2,5310,Note_off_c,9,91,0,
2,5310,Note_off_c,9,93,0,
2,5340,Note_off_c,9,35,0,
2,5340,Note_off_c,9,36,0,
2,5340,Note_off_c,9,37,0,
2,5340,Note_off_c,9,38,0,
2,5340,Note_off_c,9,39,0,
2,5340,Note_off_c,9,40,0,
2,5340,Note_off_c,9,41,0,
2,5340,Note_off_c,9,42,0,
2,5340,Note_off_c,9,43,0,
2,5340,Note_off_c,9,44,0,
2,5340,Note_off_c,9,45,0,
2,5340,Note_off_c,9,46,0,
2,5340,Note_off_c,9,47,0,
2,5340,Note_off_c,9,48,0,
2,5340,Note_off_c,9,49,0,
2,5340,Note_off_c,9,50,0,
2,5340,Note_off_c,9,51,0,
2,5340,Note_off_c,9,56,0,
2,5340,Note_off_c,9,57,0,
2,5340,Note_off_c,9,59,0,
2,5340,Note_off_c,9,60,0,
2,5340,Note_off_c,9,61,0,
2,5340,Note_off_c,9,63,0,
2,5340,Note_off_c,9,68,0,
2,5340,Note_off_c,9,69,0,
2,5340,Note_off_c,9,70,0,
2,5340,Note_off_c,9,76,0,
2,5340,Note_off_c,9,80,0,
2,5340,Note_off_c,9,81,0,
2,5340,Note_off_c,9,82,0,
2,5340,Note_off_c,9,87,0,
2,5340,Note_off_c,9,88,0,
2,5340,Note_off_c,9,89,0,
2,5340,Note_off_c,9,91,0,
2,5340,Note_off_c,9,93,0,
2,5370,Note_off_c,9,35,0,
2,5370,Note_off_c,9,36,0,
2,5370,Note_off_c,9,37,0,
2,5370,Note_off_c,9,38,0,
2,5370,Note_off_c,9,39,0,
2,5370,Note_off_c,9,40,0,
2,5370,Note_off_c,9,41,0,
2,5370,Note_off_c,9,42,0,
2,5370,Note_off_c,9,43,0,
2,5370,Note_off_c,9,44,0,
2,5370,Note_off_c,9,45,0,
2,5370,Note_off_c,9,46,0,
2,5370,Note_off_c,9,47,0,
2,5370,Note_off_c,9,48,0,
2,5370,Note_off_c,9,49,0,
2,5370,Note_off_c,9,50,0,
2,5370,Note_off_c,9,51,0,
2,5370,Note_off_c,9,56,0,
2,5370,Note_off_c,9,57,0,
2,5370,Note_off_c,9,59,0,
2,5370,Note_off_c,9,60,0,
2,5370,Note_off_c,9,61,0,
2,5370,Note_off_c,9,63,0,
2,5370,Note_off_c,9,68,0,
2,5370,Note_off_c,9,69,0,
2,5370,Note_off_c,9,70,0,
2,5370,Note_off_c,9,76,0,
2,5370,Note_off_c,9,80,0,
2,5370,Note_off_c,9,81,0,
2,5370,Note_off_c,9,82,0,
2,5370,Note_off_c,9,87,0,
2,5370,Note_off_c,9,88,0,
2,5370,Note_off_c,9,89,0,
2,5370,Note_off_c,9,91,0,
2,5370,Note_off_c,9,93,0,
2,5400,Note_off_c,9,35,0,
2,5400,Note_off_c,9,36,0,
2,5400,Note_off_c,9,37,0,
2,5400,Note_off_c,9,38,0,
2,5400,Note_off_c,9,39,0,
2,5400,Note_off_c,9,40,0,
2,5400,Note_off_c,9,41,0,
2,5400,Note_off_c,9,42,0,
2,5400,Note_off_c,9,43,0,
2,5400,Note_off_c,9,44,0,
2,5400,Note_off_c,9,45,0,
2,5400,Note_off_c,9,46,0,
2,5400,Note_off_c,9,47,0,
2,5400,Note_off_c,9,48,0,
2,5400,Note_off_c,9,49,0,
2,5400,Note_off_c,9,50,0,
2,5400,Note_off_c,9,51,0,
2,5400,Note_off_c,9,56,0,
2,5400,Note_off_c,9,57,0,
2,5400,Note_off_c,9,59,0,
2,5400,Note_off_c,9,60,0,
2,5400,Note_off_c,9,61,0,
2,5400,Note_off_c,9,63,0,
2,5400,Note_off_c,9,68,0,
2,5400,Note_off_c,9,69,0,
2,5400,Note_off_c,9,70,0,
2,5400,Note_off_c,9,76,0,
2,5400,Note_off_c,9,80,0,
2,5400,Note_off_c,9,81,0,
2,5400,Note_off_c,9,82,0,
2,5400,Note_off_c,9,87,0,
2,5400,Note_off_c,9,88,0,
2,5400,Note_off_c,9,89,0,
2,5400,Note_off_c,9,91,0,
2,5400,Note_off_c,9,93,0,
2,5430,Note_off_c,9,35,0,
2,5430,Note_off_c,9,36,0,
2,5430,Note_off_c,9,37,0,
2,5430,Note_off_c,9,38,0,
2,5430,Note_off_c,9,39,0,
2,5430,Note_off_c,9,40,0,
2,5430,Note_off_c,9,41,0,
2,5430,Note_off_c,9,42,0,
2,5430,Note_off_c,9,43,0,
2,5430,Note_off_c,9,44,0,
2,5430,Note_off_c,9,45,0,
2,5430,Note_off_c,9,46,0,
2,5430,Note_off_c,9,47,0,
2,5430,Note_off_c,9,48,0,
2,5430,Note_off_c,9,49,0,
2,5430,Note_off_c,9,50,0,
2,5430,Note_off_c,9,51,0,
2,5430,Note_off_c,9,56,0,
2,5430,Note_off_c,9,57,0,
2,5430,Note_off_c,9,59,0,
2,5430,Note_off_c,9,60,0,
2,5430,Note_off_c,9,61,0,
2,5430,Note_off_c,9,63,0,
2,5430,Note_off_c,9,68,0,
2,5430,Note_off_c,9,69,0,
2,5430,Note_off_c,9,70,0,
2,5430,Note_off_c,9,76,0,
2,5430,Note_off_c,9,80,0,
2,5430,Note_off_c,9,81,0,
2,5430,Note_off_c,9,82,0,
2,5430,Note_off_c,9,87,0,
2,5430,Note_off_c,9,88,0,
2,5430,Note_off_c,9,89,0,
2,5430,Note_off_c,9,91,0,
2,5430,Note_off_c,9,93,0,
2,5460,Note_off_c,9,35,0,
2,5460,Note_off_c,9,36,0,
2,5460,Note_off_c,9,37,0,
2,5460,Note_off_c,9,38,0,
2,5460,Note_off_c,9,39,0,
2,5460,Note_off_c,9,40,0,
2,5460,Note_off_c,9,41,0,
2,5460,Note_off_c,9,42,0,
2,5460,Note_off_c,9,43,0,
2,5460,Note_off_c,9,44,0,
2,5460,Note_off_c,9,45,0,
2,5460,Note_off_c,9,46,0,
2,5460,Note_off_c,9,47,0,
2,5460,Note_off_c,9,48,0,
2,5460,Note_off_c,9,49,0,
2,5460,Note_off_c,9,50,0,
2,5460,Note_off_c,9,51,0,
2,5460,Note_off_c,9,56,0,
2,5460,Note_off_c,9,57,0,
2,5460,Note_off_c,9,59,0,
2,5460,Note_off_c,9,60,0,
2,5460,Note_off_c,9,61,0,
2,5460,Note_off_c,9,63,0,
2,5460,Note_off_c,9,68,0,
2,5460,Note_off_c,9,69,0,
2,5460,Note_off_c,9,70,0,
2,5460,Note_off_c,9,76,0,
2,5460,Note_off_c,9,80,0,
2,5460,Note_off_c,9,81,0,
2,5460,Note_off_c,9,82,0,
2,5460,Note_off_c,9,87,0,
2,5460,Note_off_c,9,88,0,
2,5460,Note_off_c,9,89,0,
2,5460,Note_off_c,9,91,0,
2,5460,Note_off_c,9,93,0,
2,5490,Note_off_c,9,35,0,
2,5490,Note_off_c,9,36,0,
2,5490,Note_off_c,9,37,0,
2,5490,Note_off_c,9,38,0,
2,5490,Note_off_c,9,39,0,
2,5490,Note_off_c,9,40,0,
2,5490,Note_off_c,9,41,0,
2,5490,Note_off_c,9,42,0,
2,5490,Note_off_c,9,43,0,
2,5490,Note_off_c,9,44,0,
2,5490,Note_off_c,9,45,0,
2,5490,Note_off_c,9,46,0,
2,5490,Note_off_c,9,47,0,
2,5490,Note_off_c,9,48,0,
2,5490,Note_off_c,9,49,0,
2,5490,Note_off_c,9,50,0,
2,5490,Note_off_c,9,51,0,
2,5490,Note_off_c,9,56,0,
2,5490,Note_off_c,9,57,0,
2,5490,Note_off_c,9,59,0,
2,5490,Note_off_c,9,60,0,
2,5490,Note_off_c,9,61,0,
2,5490,Note_off_c,9,63,0,
2,5490,Note_off_c,9,68,0,
2,5490,Note_off_c,9,69,0,
2,5490,Note_off_c,9,70,0,
2,5490,Note_off_c,9,76,0,
2,5490,Note_off_c,9,80,0,
2,5490,Note_off_c,9,81,0,
2,5490,Note_off_c,9,82,0,
2,5490,Note_off_c,9,87,0,
2,5490,Note_off_c,9,88,0,
2,5490,Note_off_c,9,89,0,
2,5490,Note_off_c,9,91,0,
2,5490,Note_off_c,9,93,0,
2,5520,Note_off_c,9,35,0,
2,5520,Note_off_c,9,36,0,
2,5520,Note_off_c,9,37,0,
2,5520,Note_off_c,9,38,0,
2,5520,Note_off_c,9,39,0,
2,5520,Note_off_c,9,40,0,
2,5520,Note_off_c,9,41,0,
2,5520,Note_off_c,9,42,0,
2,5520,Note_off_c,9,43,0,
2,5520,Note_off_c,9,44,0,
2,5520,Note_off_c,9,45,0,
2,5520,Note_off_c,9,46,0,
2,5520,Note_off_c,9,47,0,
2,5520,Note_off_c,9,48,0,
2,5520,Note_off_c,9,49,0,
2,5520,Note_off_c,9,50,0,
2,5520,Note_off_c,9,51,0,
2,5520,Note_off_c,9,56,0,
2,5520,Note_off_c,9,57,0,
2,5520,Note_off_c,9,59,0,
2,5520,Note_off_c,9,60,0,
2,5520,Note_off_c,9,61,0,
2,5520,Note_off_c,9,63,0,
2,5520,Note_off_c,9,68,0,
2,5520,Note_off_c,9,69,0,
2,5520,Note_off_c,9,70,0,
2,5520,Note_off_c,9,76,0,
2,5520,Note_off_c,9,80,0,
2,5520,Note_off_c,9,81,0,
2,5520,Note_off_c,9,82,0,
2,5520,Note_off_c,9,87,0,
2,5520,Note_off_c,9,88,0,
2,5520,Note_off_c,9,89,0,
2,5520,Note_off_c,9,91,0,
2,5520,Note_off_c,9,93,0,
2,5550,Note_off_c,9,35,0,
2,5550,Note_off_c,9,36,0,
2,5550,Note_off_c,9,37,0,
2,5550,Note_off_c,9,38,0,
2,5550,Note_off_c,9,39,0,
2,5550,Note_off_c,9,40,0,
2,5550,Note_off_c,9,41,0,
2,5550,Note_off_c,9,42,0,
2,5550,Note_off_c,9,43,0,
2,5550,Note_off_c,9,44,0,
2,5550,Note_off_c,9,45,0,
2,5550,Note_off_c,9,46,0,
2,5550,Note_off_c,9,47,0,
2,5550,Note_off_c,9,48,0,
2,5550,Note_off_c,9,49,0,
2,5550,Note_off_c,9,50,0,
2,5550,Note_off_c,9,51,0,
2,5550,Note_off_c,9,56,0,
2,5550,Note_off_c,9,57,0,
2,5550,Note_off_c,9,59,0,
2,5550,Note_off_c,9,60,0,
2,5550,Note_off_c,9,61,0,
2,5550,Note_off_c,9,63,0,
2,5550,Note_off_c,9,68,0,
2,5550,Note_off_c,9,69,0,
2,5550,Note_off_c,9,70,0,
2,5550,Note_off_c,9,76,0,
2,5550,Note_off_c,9,80,0,
2,5550,Note_off_c,9,81,0,
2,5550,Note_off_c,9,82,0,
2,5550,Note_off_c,9,87,0,
2,5550,Note_off_c,9,88,0,
2,5550,Note_off_c,9,89,0,
2,5550,Note_off_c,9,91,0,
2,5550,Note_off_c,9,93,0,
2,5580,Note_off_c,9,35,0,
2,5580,Note_off_c,9,36,0,
2,5580,Note_off_c,9,37,0,
2,5580,Note_off_c,9,38,0,
2,5580,Note_off_c,9,39,0,
2,5580,Note_off_c,9,40,0,
2,5580,Note_off_c,9,41,0,
2,5580,Note_off_c,9,42,0,
2,5580,Note_off_c,9,43,0,
2,5580,Note_off_c,9,44,0,
2,5580,Note_off_c,9,45,0,
2,5580,Note_off_c,9,46,0,
2,5580,Note_off_c,9,47,0,
2,5580,Note_off_c,9,48,0,
2,5580,Note_off_c,9,49,0,
2,5580,Note_off_c,9,50,0,
2,5580,Note_off_c,9,51,0,
2,5580,Note_off_c,9,56,0,
2,5580,Note_off_c,9,57,0,
2,5580,Note_off_c,9,59,0,
2,5580,Note_off_c,9,60,0,
2,5580,Note_off_c,9,61,0,
2,5580,Note_off_c,9,63,0,
2,5580,Note_off_c,9,68,0,
2,5580,Note_off_c,9,69,0,
2,5580,Note_off_c,9,70,0,
2,5580,Note_off_c,9,76,0,
2,5580,Note_off_c,9,80,0,
2,5580,Note_off_c,9,81,0,
2,5580,Note_off_c,9,82,0,
2,5580,Note_off_c,9,87,0,
2,5580,Note_off_c,9,88,0,
2,5580,Note_off_c,9,89,0,
2,5580,Note_off_c,9,91,0,
2,5580,Note_off_c,9,93,0,
2,5610,Note_off_c,9,35,0,
2,5610,Note_off_c,9,36,0,
2,5610,Note_off_c,9,37,0,
2,5610,Note_off_c,9,38,0,
2,5610,Note_off_c,9,39,0,
2,5610,Note_off_c,9,40,0,
2,5610,Note_off_c,9,41,0,
2,5610,Note_off_c,9,42,0,
2,5610,Note_off_c,9,43,0,
2,5610,Note_off_c,9,44,0,
2,5610,Note_off_c,9,45,0,
2,5610,Note_off_c,9,46,0,
2,5610,Note_off_c,9,47,0,
2,5610,Note_off_c,9,48,0,
2,5610,Note_off_c,9,49,0,
2,5610,Note_off_c,9,50,0,
2,5610,Note_off_c,9,51,0,
2,5610,Note_off_c,9,56,0,
2,5610,Note_off_c,9,57,0,
2,5610,Note_off_c,9,59,0,
2,5610,Note_off_c,9,60,0,
2,5610,Note_off_c,9,61,0,
2,5610,Note_off_c,9,63,0,
2,5610,Note_off_c,9,68,0,
2,5610,Note_off_c,9,69,0,
2,5610,Note_off_c,9,70,0,
2,5610,Note_off_c,9,76,0,
2,5610,Note_off_c,9,80,0,
2,5610,Note_off_c,9,81,0,
2,5610,Note_off_c,9,82,0,
2,5610,Note_off_c,9,87,0,
2,5610,Note_off_c,9,88,0,
2,5610,Note_off_c,9,89,0,
2,5610,Note_off_c,9,91,0,
2,5610,Note_off_c,9,93,0,
2,5640,Note_off_c,9,35,0,
2,5640,Note_off_c,9,36,0,
2,5640,Note_off_c,9,37,0,
2,5640,Note_off_c,9,38,0,
2,5640,Note_off_c,9,39,0,
2,5640,Note_off_c,9,40,0,
2,5640,Note_off_c,9,41,0,
2,5640,Note_off_c,9,42,0,
2,5640,Note_off_c,9,43,0,
2,5640,Note_off_c,9,44,0,
2,5640,Note_off_c,9,45,0,
2,5640,Note_off_c,9,46,0,
2,5640,Note_off_c,9,47,0,
2,5640,Note_off_c,9,48,0,
2,5640,Note_off_c,9,49,0,
2,5640,Note_off_c,9,50,0,
2,5640,Note_off_c,9,51,0,
2,5640,Note_off_c,9,56,0,
2,5640,Note_off_c,9,57,0,
2,5640,Note_off_c,9,59,0,
2,5640,Note_off_c,9,60,0,
2,5640,Note_off_c,9,61,0,
2,5640,Note_off_c,9,63,0,
2,5640,Note_off_c,9,68,0,
2,5640,Note_off_c,9,69,0,
2,5640,Note_off_c,9,70,0,
2,5640,Note_off_c,9,76,0,
2,5640,Note_off_c,9,80,0,
2,5640,Note_off_c,9,81,0,
2,5640,Note_off_c,9,82,0,
2,5640,Note_off_c,9,87,0,
2,5640,Note_off_c,9,88,0,
2,5640,Note_off_c,9,89,0,
2,5640,Note_off_c,9,91,0,
2,5640,Note_off_c,9,93,0,
2,5670,Note_off_c,9,35,0,
2,5670,Note_off_c,9,36,0,
2,5670,Note_off_c,9,37,0,
2,5670,Note_off_c,9,38,0,
2,5670,Note_off_c,9,39,0,
2,5670,Note_off_c,9,40,0,
2,5670,Note_off_c,9,41,0,
2,5670,Note_off_c,9,42,0,
2,5670,Note_off_c,9,43,0,
2,5670,Note_off_c,9,44,0,
2,5670,Note_off_c,9,45,0,
2,5670,Note_off_c,9,46,0,
2,5670,Note_off_c,9,47,0,
2,5670,Note_off_c,9,48,0,
2,5670,Note_off_c,9,49,0,
2,5670,Note_off_c,9,50,0,
2,5670,Note_off_c,9,51,0,
2,5670,Note_off_c,9,56,0,
2,5670,Note_off_c,9,57,0,
2,5670,Note_off_c,9,59,0,
2,5670,Note_off_c,9,60,0,
2,5670,Note_off_c,9,61,0,
2,5670,Note_off_c,9,63,0,
2,5670,Note_off_c,9,68,0,
2,5670,Note_off_c,9,69,0,
2,5670,Note_off_c,9,70,0,
2,5670,Note_off_c,9,76,0,
2,5670,Note_off_c,9,80,0,
2,5670,Note_off_c,9,81,0,
2,5670,Note_off_c,9,82,0,
2,5670,Note_off_c,9,87,0,
2,5670,Note_off_c,9,88,0,
2,5670,Note_off_c,9,89,0,
2,5670,Note_off_c,9,91,0,
2,5670,Note_off_c,9,93,0,
2,5700,Note_off_c,9,35,0,
2,5700,Note_off_c,9,36,0,
2,5700,Note_off_c,9,37,0,
2,5700,Note_off_c,9,38,0,
2,5700,Note_off_c,9,39,0,
2,5700,Note_off_c,9,40,0,
2,5700,Note_off_c,9,41,0,
2,5700,Note_off_c,9,42,0,
2,5700,Note_off_c,9,43,0,
2,5700,Note_off_c,9,44,0,
2,5700,Note_off_c,9,45,0,
2,5700,Note_off_c,9,46,0,
2,5700,Note_off_c,9,47,0,
2,5700,Note_off_c,9,48,0,
2,5700,Note_off_c,9,49,0,
2,5700,Note_off_c,9,50,0,
2,5700,Note_off_c,9,51,0,
2,5700,Note_off_c,9,56,0,
2,5700,Note_off_c,9,57,0,
2,5700,Note_off_c,9,59,0,
2,5700,Note_off_c,9,60,0,
2,5700,Note_off_c,9,61,0,
2,5700,Note_off_c,9,63,0,
2,5700,Note_off_c,9,68,0,
2,5700,Note_off_c,9,69,0,
2,5700,Note_off_c,9,70,0,
2,5700,Note_off_c,9,76,0,
2,5700,Note_off_c,9,80,0,
2,5700,Note_off_c,9,81,0,
2,5700,Note_off_c,9,82,0,
2,5700,Note_off_c,9,87,0,
2,5700,Note_off_c,9,88,0,
2,5700,Note_off_c,9,89,0,
2,5700,Note_off_c,9,91,0,
2,5700,Note_off_c,9,93,0,
2,5730,Note_off_c,9,35,0,
2,5730,Note_off_c,9,36,0,
2,5730,Note_off_c,9,37,0,
2,5730,Note_off_c,9,38,0,
2,5730,Note_off_c,9,39,0,
2,5730,Note_off_c,9,40,0,
2,5730,Note_off_c,9,41,0,
2,5730,Note_off_c,9,42,0,
2,5730,Note_off_c,9,43,0,
2,5730,Note_off_c,9,44,0,
2,5730,Note_off_c,9,45,0,
2,5730,Note_off_c,9,46,0,
2,5730,Note_off_c,9,47,0,
2,5730,Note_off_c,9,48,0,
2,5730,Note_off_c,9,49,0,
2,5730,Note_off_c,9,50,0,
2,5730,Note_off_c,9,51,0,
2,5730,Note_off_c,9,56,0,
2,5730,Note_off_c,9,57,0,
2,5730,Note_off_c,9,59,0,
2,5730,Note_off_c,9,60,0,
2,5730,Note_off_c,9,61,0,
2,5730,Note_off_c,9,63,0,
2,5730,Note_off_c,9,68,0,
2,5730,Note_off_c,9,69,0,
2,5730,Note_off_c,9,70,0,
2,5730,Note_off_c,9,76,0,
2,5730,Note_off_c,9,80,0,
2,5730,Note_off_c,9,81,0,
2,5730,Note_off_c,9,82,0,
2,5730,Note_off_c,9,87,0,
2,5730,Note_off_c,9,88,0,
2,5730,Note_off_c,9,89,0,
2,5730,Note_off_c,9,91,0,
2,5730,Note_off_c,9,93,0,
2,5760,Note_off_c,9,35,0,
2,5760,Note_off_c,9,36,0,
2,5760,Note_off_c,9,37,0,
2,5760,Note_off_c,9,38,0,
2,5760,Note_off_c,9,39,0,
2,5760,Note_off_c,9,40,0,
2,5760,Note_off_c,9,41,0,
2,5760,Note_off_c,9,42,0,
2,5760,Note_off_c,9,43,0,
2,5760,Note_off_c,9,44,0,
2,5760,Note_off_c,9,45,0,
2,5760,Note_off_c,9,46,0,
2,5760,Note_off_c,9,47,0,
2,5760,Note_off_c,9,48,0,
2,5760,Note_off_c,9,49,0,
2,5760,Note_off_c,9,50,0,
2,5760,Note_off_c,9,51,0,
2,5760,Note_off_c,9,56,0,
2,5760,Note_off_c,9,57,0,
2,5760,Note_off_c,9,59,0,
2,5760,Note_off_c,9,60,0,
2,5760,Note_off_c,9,61,0,
2,5760,Note_off_c,9,63,0,
2,5760,Note_off_c,9,68,0,
2,5760,Note_off_c,9,69,0,
2,5760,Note_off_c,9,70,0,
2,5760,Note_off_c,9,76,0,
2,5760,Note_off_c,9,80,0,
2,5760,Note_off_c,9,81,0,
2,5760,Note_off_c,9,82,0,
2,5760,Note_off_c,9,87,0,
2,5760,Note_off_c,9,88,0,
2,5760,Note_off_c,9,89,0,
2,5760,Note_off_c,9,91,0,
2,5760,Note_off_c,9,93,0,
2,5790,Note_off_c,9,35,0,
2,5790,Note_off_c,9,36,0,
2,5790,Note_off_c,9,37,0,
2,5790,Note_off_c,9,38,0,
2,5790,Note_off_c,9,39,0,
2,5790,Note_off_c,9,40,0,
2,5790,Note_off_c,9,41,0,
2,5790,Note_off_c,9,42,0,
2,5790,Note_off_c,9,43,0,
2,5790,Note_off_c,9,44,0,
2,5790,Note_off_c,9,45,0,
2,5790,Note_off_c,9,46,0,
2,5790,Note_off_c,9,47,0,
2,5790,Note_off_c,9,48,0,
2,5790,Note_off_c,9,49,0,
2,5790,Note_off_c,9,50,0,
2,5790,Note_off_c,9,51,0,
2,5790,Note_off_c,9,56,0,
2,5790,Note_off_c,9,57,0,
2,5790,Note_off_c,9,59,0,
2,5790,Note_off_c,9,60,0,
2,5790,Note_off_c,9,61,0,
2,5790,Note_off_c,9,63,0,
2,5790,Note_off_c,9,68,0,
2,5790,Note_off_c,9,69,0,
2,5790,Note_off_c,9,70,0,
2,5790,Note_off_c,9,76,0,
2,5790,Note_off_c,9,80,0,
2,5790,Note_off_c,9,81,0,
2,5790,Note_off_c,9,82,0,
2,5790,Note_off_c,9,87,0,
2,5790,Note_off_c,9,88,0,
2,5790,Note_off_c,9,89,0,
2,5790,Note_off_c,9,91,0,
2,5790,Note_off_c,9,93,0,
2,5820,Note_off_c,9,35,0,
2,5820,Note_off_c,9,36,0,
2,5820,Note_off_c,9,37,0,
2,5820,Note_off_c,9,38,0,
2,5820,Note_off_c,9,39,0,
2,5820,Note_off_c,9,40,0,
2,5820,Note_off_c,9,41,0,
2,5820,Note_off_c,9,42,0,
2,5820,Note_off_c,9,43,0,
2,5820,Note_off_c,9,44,0,
2,5820,Note_off_c,9,45,0,
2,5820,Note_off_c,9,46,0,
2,5820,Note_off_c,9,47,0,
2,5820,Note_off_c,9,48,0,
2,5820,Note_off_c,9,49,0,
2,5820,Note_off_c,9,50,0,
2,5820,Note_off_c,9,51,0,
2,5820,Note_off_c,9,56,0,
2,5820,Note_off_c,9,57,0,
2,5820,Note_off_c,9,59,0,
2,5820,Note_off_c,9,60,0,
2,5820,Note_off_c,9,61,0,
2,5820,Note_off_c,9,63,0,
2,5820,Note_off_c,9,68,0,
2,5820,Note_off_c,9,69,0,
2,5820,Note_off_c,9,70,0,
2,5820,Note_off_c,9,76,0,
2,5820,Note_off_c,9,80,0,
2,5820,Note_off_c,9,81,0,
2,5820,Note_off_c,9,82,0,
2,5820,Note_off_c,9,87,0,
2,5820,Note_off_c,9,88,0,
2,5820,Note_off_c,9,89,0,
2,5820,Note_off_c,9,91,0,
2,5820,Note_off_c,9,93,0,
2,5850,Note_off_c,9,35,0,
2,5850,Note_off_c,9,36,0,
2,5850,Note_off_c,9,37,0,
2,5850,Note_off_c,9,38,0,
2,5850,Note_off_c,9,39,0,
2,5850,Note_off_c,9,40,0,
2,5850,Note_off_c,9,41,0,
2,5850,Note_off_c,9,42,0,
2,5850,Note_off_c,9,43,0,
2,5850,Note_off_c,9,44,0,
2,5850,Note_off_c,9,45,0,
2,5850,Note_off_c,9,46,0,
2,5850,Note_off_c,9,47,0,
2,5850,Note_off_c,9,48,0,
2,5850,Note_off_c,9,49,0,
2,5850,Note_off_c,9,50,0,
2,5850,Note_off_c,9,51,0,
2,5850,Note_off_c,9,56,0,
2,5850,Note_off_c,9,57,0,
2,5850,Note_off_c,9,59,0,
2,5850,Note_off_c,9,60,0,
2,5850,Note_off_c,9,61,0,
2,5850,Note_off_c,9,63,0,
2,5850,Note_off_c,9,68,0,
2,5850,Note_off_c,9,69,0,
2,5850,Note_off_c,9,70,0,
2,5850,Note_off_c,9,76,0,
2,5850,Note_off_c,9,80,0,
2,5850,Note_off_c,9,81,0,
2,5850,Note_off_c,9,82,0,
2,5850,Note_off_c,9,87,0,
2,5850,Note_off_c,9,88,0,
2,5850,Note_off_c,9,89,0,
2,5850,Note_off_c,9,91,0,
2,5850,Note_off_c,9,93,0,
2,5880,Note_off_c,9,35,0,
2,5880,Note_off_c,9,36,0,
2,5880,Note_off_c,9,37,0,
2,5880,Note_off_c,9,38,0,
2,5880,Note_off_c,9,39,0,
2,5880,Note_off_c,9,40,0,
2,5880,Note_off_c,9,41,0,
2,5880,Note_off_c,9,42,0,
2,5880,Note_off_c,9,43,0,
2,5880,Note_off_c,9,44,0,
2,5880,Note_off_c,9,45,0,
2,5880,Note_off_c,9,46,0,
2,5880,Note_off_c,9,47,0,
2,5880,Note_off_c,9,48,0,
2,5880,Note_off_c,9,49,0,
2,5880,Note_off_c,9,50,0,
2,5880,Note_off_c,9,51,0,
2,5880,Note_off_c,9,56,0,
2,5880,Note_off_c,9,57,0,
2,5880,Note_off_c,9,59,0,
2,5880,Note_off_c,9,60,0,
2,5880,Note_off_c,9,61,0,
2,5880,Note_off_c,9,63,0,
2,5880,Note_off_c,9,68,0,
2,5880,Note_off_c,9,69,0,
2,5880,Note_off_c,9,70,0,
2,5880,Note_off_c,9,76,0,
2,5880,Note_off_c,9,80,0,
2,5880,Note_off_c,9,81,0,
2,5880,Note_off_c,9,82,0,
2,5880,Note_off_c,9,87,0,
2,5880,Note_off_c,9,88,0,
2,5880,Note_off_c,9,89,0,
2,5880,Note_off_c,9,91,0,
2,5880,Note_off_c,9,93,0,
2,5910,Note_off_c,9,35,0,
2,5910,Note_off_c,9,36,0,
2,5910,Note_off_c,9,37,0,
2,5910,Note_off_c,9,38,0,
2,5910,Note_off_c,9,39,0,
2,5910,Note_off_c,9,40,0,
2,5910,Note_off_c,9,41,0,
2,5910,Note_off_c,9,42,0,
2,5910,Note_off_c,9,43,0,
2,5910,Note_off_c,9,44,0,
2,5910,Note_off_c,9,45,0,
2,5910,Note_off_c,9,46,0,
2,5910,Note_off_c,9,47,0,
2,5910,Note_off_c,9,48,0,
2,5910,Note_off_c,9,49,0,
2,5910,Note_off_c,9,50,0,
2,5910,Note_off_c,9,51,0,
2,5910,Note_off_c,9,56,0,
2,5910,Note_off_c,9,57,0,
2,5910,Note_off_c,9,59,0,
2,5910,Note_off_c,9,60,0,
2,5910,Note_off_c,9,61,0,
2,5910,Note_off_c,9,63,0,
2,5910,Note_off_c,9,68,0,
2,5910,Note_off_c,9,69,0,
2,5910,Note_off_c,9,70,0,
2,5910,Note_off_c,9,76,0,
2,5910,Note_off_c,9,80,0,
2,5910,Note_off_c,9,81,0,
2,5910,Note_off_c,9,82,0,
2,5910,Note_off_c,9,87,0,
2,5910,Note_off_c,9,88,0,
2,5910,Note_off_c,9,89,0,
2,5910,Note_off_c,9,91,0,
2,5910,Note_off_c,9,93,0,
2,5940,Note_off_c,9,35,0,
2,5940,Note_off_c,9,36,0,
2,5940,Note_off_c,9,37,0,
2,5940,Note_off_c,9,38,0,
2,5940,Note_off_c,9,39,0,
2,5940,Note_off_c,9,40,0,
2,5940,Note_off_c,9,41,0,
2,5940,Note_off_c,9,42,0,
2,5940,Note_off_c,9,43,0,
2,5940,Note_off_c,9,44,0,
2,5940,Note_off_c,9,45,0,
2,5940,Note_off_c,9,46,0,
2,5940,Note_off_c,9,47,0,
2,5940,Note_off_c,9,48,0,
2,5940,Note_off_c,9,49,0,
2,5940,Note_off_c,9,50,0,
2,5940,Note_off_c,9,51,0,
2,5940,Note_off_c,9,56,0,
2,5940,Note_off_c,9,57,0,
2,5940,Note_off_c,9,59,0,
2,5940,Note_off_c,9,60,0,
2,5940,Note_off_c,9,61,0,
2,5940,Note_off_c,9,63,0,
2,5940,Note_off_c,9,68,0,
2,5940,Note_off_c,9,69,0,
2,5940,Note_off_c,9,70,0,
2,5940,Note_off_c,9,76,0,
2,5940,Note_off_c,9,80,0,
2,5940,Note_off_c,9,81,0,
2,5940,Note_off_c,9,82,0,
2,5940,Note_off_c,9,87,0,
2,5940,Note_off_c,9,88,0,
2,5940,Note_off_c,9,89,0,
2,5940,Note_off_c,9,91,0,
2,5940,Note_off_c,9,93,0,
2,5970,Note_off_c,9,35,0,
2,5970,Note_off_c,9,36,0,
2,5970,Note_off_c,9,37,0,
2,5970,Note_off_c,9,38,0,
2,5970,Note_off_c,9,39,0,
2,5970,Note_off_c,9,40,0,
2,5970,Note_off_c,9,41,0,
2,5970,Note_off_c,9,42,0,
2,5970,Note_off_c,9,43,0,
2,5970,Note_off_c,9,44,0,
2,5970,Note_off_c,9,45,0,
2,5970,Note_off_c,9,46,0,
2,5970,Note_off_c,9,47,0,
2,5970,Note_off_c,9,48,0,
2,5970,Note_off_c,9,49,0,
2,5970,Note_off_c,9,50,0,
2,5970,Note_off_c,9,51,0,
2,5970,Note_off_c,9,56,0,
2,5970,Note_off_c,9,57,0,
2,5970,Note_off_c,9,59,0,
2,5970,Note_off_c,9,60,0,
2,5970,Note_off_c,9,61,0,
2,5970,Note_off_c,9,63,0,
2,5970,Note_off_c,9,68,0,
2,5970,Note_off_c,9,69,0,
2,5970,Note_off_c,9,70,0,
2,5970,Note_off_c,9,76,0,
2,5970,Note_off_c,9,80,0,
2,5970,Note_off_c,9,81,0,
2,5970,Note_off_c,9,82,0,
2,5970,Note_off_c,9,87,0,
2,5970,Note_off_c,9,88,0,
2,5970,Note_off_c,9,89,0,
2,5970,Note_off_c,9,91,0,
2,5970,Note_off_c,9,93,0,
2,6000,Note_off_c,9,35,0,
2,6000,Note_off_c,9,36,0,
2,6000,Note_off_c,9,37,0,
2,6000,Note_off_c,9,38,0,
2,6000,Note_off_c,9,39,0,
2,6000,Note_off_c,9,40,0,
2,6000,Note_off_c,9,41,0,
2,6000,Note_off_c,9,42,0,
2,6000,Note_off_c,9,43,0,
2,6000,Note_off_c,9,44,0,
2,6000,Note_off_c,9,45,0,
2,6000,Note_off_c,9,46,0,
2,6000,Note_off_c,9,47,0,
2,6000,Note_off_c,9,48,0,
2,6000,Note_off_c,9,49,0,
2,6000,Note_off_c,9,50,0,
2,6000,Note_off_c,9,51,0,
2,6000,Note_off_c,9,56,0,
2,6000,Note_off_c,9,57,0,
2,6000,Note_off_c,9,59,0,
2,6000,Note_off_c,9,60,0,
2,6000,Note_off_c,9,61,0,
2,6000,Note_off_c,9,63,0,
2,6000,Note_off_c,9,68,0,
2,6000,Note_off_c,9,69,0,
2,6000,Note_off_c,9,70,0,
2,6000,Note_off_c,9,76,0,
2,6000,Note_off_c,9,80,0,
2,6000,Note_off_c,9,81,0,
2,6000,Note_off_c,9,82,0,
2,6000,Note_off_c,9,87,0,
2,6000,Note_off_c,9,88,0,
2,6000,Note_off_c,9,89,0,
2,6000,Note_off_c,9,91,0,
2,6000,Note_off_c,9,93,0,
2,6030,Note_off_c,9,35,0,
2,6030,Note_off_c,9,36,0,
2,6030,Note_off_c,9,37,0,
2,6030,Note_off_c,9,38,0,
2,6030,Note_off_c,9,39,0,
2,6030,Note_off_c,9,40,0,
2,6030,Note_off_c,9,41,0,
2,6030,Note_off_c,9,42,0,
2,6030,Note_off_c,9,43,0,
2,6030,Note_off_c,9,44,0,
2,6030,Note_off_c,9,45,0,
2,6030,Note_off_c,9,46,0,
2,6030,Note_off_c,9,47,0,
2,6030,Note_off_c,9,48,0,
2,6030,Note_off_c,9,49,0,
2,6030,Note_off_c,9,50,0,
2,6030,Note_off_c,9,51,0,
2,6030,Note_off_c,9,56,0,
2,6030,Note_off_c,9,57,0,
2,6030,Note_off_c,9,59,0,
2,6030,Note_off_c,9,60,0,
2,6030,Note_off_c,9,61,0,
2,6030,Note_off_c,9,63,0,
2,6030,Note_off_c,9,68,0,
2,6030,Note_off_c,9,69,0,
2,6030,Note_off_c,9,70,0,
2,6030,Note_off_c,9,76,0,
2,6030,Note_off_c,9,80,0,
2,6030,Note_off_c,9,81,0,
2,6030,Note_off_c,9,82,0,
2,6030,Note_off_c,9,87,0,
2,6030,Note_off_c,9,88,0,
2,6030,Note_off_c,9,89,0,
2,6030,Note_off_c,9,91,0,
2,6030,Note_off_c,9,93,0,
2,6060,Note_off_c,9,35,0,
2,6060,Note_off_c,9,36,0,
2,6060,Note_off_c,9,37,0,
2,6060,Note_off_c,9,38,0,
2,6060,Note_off_c,9,39,0,
2,6060,Note_off_c,9,40,0,
2,6060,Note_off_c,9,41,0,
2,6060,Note_off_c,9,42,0,
2,6060,Note_off_c,9,43,0,
2,6060,Note_off_c,9,44,0,
2,6060,Note_off_c,9,45,0,
2,6060,Note_off_c,9,46,0,
2,6060,Note_off_c,9,47,0,
2,6060,Note_off_c,9,48,0,
2,6060,Note_off_c,9,49,0,
2,6060,Note_off_c,9,50,0,
2,6060,Note_off_c,9,51,0,
2,6060,Note_off_c,9,56,0,
2,6060,Note_off_c,9,57,0,
2,6060,Note_off_c,9,59,0,
2,6060,Note_off_c,9,60,0,
2,6060,Note_off_c,9,61,0,
2,6060,Note_off_c,9,63,0,
2,6060,Note_off_c,9,68,0,
2,6060,Note_off_c,9,69,0,
2,6060,Note_off_c,9,70,0,
2,6060,Note_off_c,9,76,0,
2,6060,Note_off_c,9,80,0,
2,6060,Note_off_c,9,81,0,
2,6060,Note_off_c,9,82,0,
2,6060,Note_off_c,9,87,0,
2,6060,Note_off_c,9,88,0,
2,6060,Note_off_c,9,89,0,
2,6060,Note_off_c,9,91,0,
2,6060,Note_off_c,9,93,0,
2,6090,Note_off_c,9,35,0,
2,6090,Note_off_c,9,36,0,
2,6090,Note_off_c,9,37,0,
2,6090,Note_off_c,9,38,0,
2,6090,Note_off_c,9,39,0,
2,6090,Note_off_c,9,40,0,
2,6090,Note_off_c,9,41,0,
2,6090,Note_off_c,9,42,0,
2,6090,Note_off_c,9,43,0,
2,6090,Note_off_c,9,44,0,
2,6090,Note_off_c,9,45,0,
2,6090,Note_off_c,9,46,0,
2,6090,Note_off_c,9,47,0,
2,6090,Note_off_c,9,48,0,
2,6090,Note_off_c,9,49,0,
2,6090,Note_off_c,9,50,0,
2,6090,Note_off_c,9,51,0,
2,6090,Note_off_c,9,56,0,
2,6090,Note_off_c,9,57,0,
2,6090,Note_off_c,9,59,0,
2,6090,Note_off_c,9,60,0,
2,6090,Note_off_c,9,61,0,
2,6090,Note_off_c,9,63,0,
2,6090,Note_off_c,9,68,0,
2,6090,Note_off_c,9,69,0,
2,6090,Note_off_c,9,70,0,
2,6090,Note_off_c,9,76,0,
2,6090,Note_off_c,9,80,0,
2,6090,Note_off_c,9,81,0,
2,6090,Note_off_c,9,82,0,
2,6090,Note_off_c,9,87,0,
2,6090,Note_off_c,9,88,0,
2,6090,Note_off_c,9,89,0,
2,6090,Note_off_c,9,91,0,
2,6090,Note_off_c,9,93,0,
2,6120,Note_off_c,9,35,0,
2,6120,Note_off_c,9,36,0,
2,6120,Note_off_c,9,37,0,
2,6120,Note_off_c,9,38,0,
2,6120,Note_off_c,9,39,0,
2,6120,Note_off_c,9,40,0,
2,6120,Note_off_c,9,41,0,
2,6120,Note_off_c,9,42,0,
2,6120,Note_off_c,9,43,0,
2,6120,Note_off_c,9,44,0,
2,6120,Note_off_c,9,45,0,
2,6120,Note_off_c,9,46,0,
2,6120,Note_off_c,9,47,0,
2,6120,Note_off_c,9,48,0,
2,6120,Note_off_c,9,49,0,
2,6120,Note_off_c,9,50,0,
2,6120,Note_off_c,9,51,0,
2,6120,Note_off_c,9,56,0,
2,6120,Note_off_c,9,57,0,
2,6120,Note_off_c,9,59,0,
2,6120,Note_off_c,9,60,0,
2,6120,Note_off_c,9,61,0,
2,6120,Note_off_c,9,63,0,
2,6120,Note_off_c,9,68,0,
2,6120,Note_off_c,9,69,0,
2,6120,Note_off_c,9,70,0,
2,6120,Note_off_c,9,76,0,
2,6120,Note_off_c,9,80,0,
2,6120,Note_off_c,9,81,0,
2,6120,Note_off_c,9,82,0,
2,6120,Note_off_c,9,87,0,
2,6120,Note_off_c,9,88,0,
2,6120,Note_off_c,9,89,0,
2,6120,Note_off_c,9,91,0,
2,6120,Note_off_c,9,93,0,
2,6150,Note_off_c,9,35,0,
2,6150,Note_off_c,9,36,0,
2,6150,Note_off_c,9,37,0,
2,6150,Note_off_c,9,38,0,
2,6150,Note_off_c,9,39,0,
2,6150,Note_off_c,9,40,0,
2,6150,Note_off_c,9,41,0,
2,6150,Note_off_c,9,42,0,
2,6150,Note_off_c,9,43,0,
2,6150,Note_off_c,9,44,0,
2,6150,Note_off_c,9,45,0,
2,6150,Note_off_c,9,46,0,
2,6150,Note_off_c,9,47,0,
2,6150,Note_off_c,9,48,0,
2,6150,Note_off_c,9,49,0,
2,6150,Note_off_c,9,50,0,
2,6150,Note_off_c,9,51,0,
2,6150,Note_off_c,9,56,0,
2,6150,Note_off_c,9,57,0,
2,6150,Note_off_c,9,59,0,
2,6150,Note_off_c,9,60,0,
2,6150,Note_off_c,9,61,0,
2,6150,Note_off_c,9,63,0,
2,6150,Note_off_c,9,68,0,
2,6150,Note_off_c,9,69,0,
2,6150,Note_off_c,9,70,0,
2,6150,Note_off_c,9,76,0,
2,6150,Note_off_c,9,80,0,
2,6150,Note_off_c,9,81,0,
2,6150,Note_off_c,9,82,0,
2,6150,Note_off_c,9,87,0,
2,6150,Note_off_c,9,88,0,
2,6150,Note_off_c,9,89,0,
2,6150,Note_off_c,9,91,0,
2,6150,Note_off_c,9,93,0,
2,6180,Note_off_c,9,35,0,
2,6180,Note_off_c,9,36,0,
2,6180,Note_off_c,9,37,0,
2,6180,Note_off_c,9,38,0,
2,6180,Note_off_c,9,39,0,
2,6180,Note_off_c,9,40,0,
2,6180,Note_off_c,9,41,0,
2,6180,Note_off_c,9,42,0,
2,6180,Note_off_c,9,43,0,
2,6180,Note_off_c,9,44,0,
2,6180,Note_off_c,9,45,0,
2,6180,Note_off_c,9,46,0,
2,6180,Note_off_c,9,47,0,
2,6180,Note_off_c,9,48,0,
2,6180,Note_off_c,9,49,0,
2,6180,Note_off_c,9,50,0,
2,6180,Note_off_c,9,51,0,
2,6180,Note_off_c,9,56,0,
2,6180,Note_off_c,9,57,0,
2,6180,Note_off_c,9,59,0,
2,6180,Note_off_c,9,60,0,
2,6180,Note_off_c,9,61,0,
2,6180,Note_off_c,9,63,0,
2,6180,Note_off_c,9,68,0,
2,6180,Note_off_c,9,69,0,
2,6180,Note_off_c,9,70,0,
2,6180,Note_off_c,9,76,0,
2,6180,Note_off_c,9,80,0,
2,6180,Note_off_c,9,81,0,
2,6180,Note_off_c,9,82,0,
2,6180,Note_off_c,9,87,0,
2,6180,Note_off_c,9,88,0,
2,6180,Note_off_c,9,89,0,
2,6180,Note_off_c,9,91,0,
2,6180,Note_off_c,9,93,0,
2,6210,Note_off_c,9,35,0,
2,6210,Note_off_c,9,36,0,
2,6210,Note_off_c,9,37,0,
2,6210,Note_off_c,9,38,0,
2,6210,Note_off_c,9,39,0,
2,6210,Note_off_c,9,40,0,
2,6210,Note_off_c,9,41,0,
2,6210,Note_off_c,9,42,0,
2,6210,Note_off_c,9,43,0,
2,6210,Note_off_c,9,44,0,
2,6210,Note_off_c,9,45,0,
2,6210,Note_off_c,9,46,0,
2,6210,Note_off_c,9,47,0,
2,6210,Note_off_c,9,48,0,
2,6210,Note_off_c,9,49,0,
2,6210,Note_off_c,9,50,0,
2,6210,Note_off_c,9,51,0,
2,6210,Note_off_c,9,56,0,
2,6210,Note_off_c,9,57,0,
2,6210,Note_off_c,9,59,0,
2,6210,Note_off_c,9,60,0,
2,6210,Note_off_c,9,61,0,
2,6210,Note_off_c,9,63,0,
2,6210,Note_off_c,9,68,0,
2,6210,Note_off_c,9,69,0,
2,6210,Note_off_c,9,70,0,
2,6210,Note_off_c,9,76,0,
2,6210,Note_off_c,9,80,0,
2,6210,Note_off_c,9,81,0,
2,6210,Note_off_c,9,82,0,
2,6210,Note_off_c,9,87,0,
2,6210,Note_off_c,9,88,0,
2,6210,Note_off_c,9,89,0,
2,6210,Note_off_c,9,91,0,
2,6210,Note_off_c,9,93,0,
2,6240,Note_off_c,9,35,0,
2,6240,Note_off_c,9,36,0,
2,6240,Note_off_c,9,37,0,
2,6240,Note_off_c,9,38,0,
2,6240,Note_off_c,9,39,0,
2,6240,Note_off_c,9,40,0,
2,6240,Note_off_c,9,41,0,
2,6240,Note_off_c,9,42,0,
2,6240,Note_off_c,9,43,0,
2,6240,Note_off_c,9,44,0,
2,6240,Note_off_c,9,45,0,
2,6240,Note_off_c,9,46,0,
2,6240,Note_off_c,9,47,0,
2,6240,Note_off_c,9,48,0,
2,6240,Note_off_c,9,49,0,
2,6240,Note_off_c,9,50,0,
2,6240,Note_off_c,9,51,0,
2,6240,Note_off_c,9,56,0,
2,6240,Note_off_c,9,57,0,
2,6240,Note_off_c,9,59,0,
2,6240,Note_off_c,9,60,0,
2,6240,Note_off_c,9,61,0,
2,6240,Note_off_c,9,63,0,
2,6240,Note_off_c,9,68,0,
2,6240,Note_off_c,9,69,0,
2,6240,Note_off_c,9,70,0,
2,6240,Note_off_c,9,76,0,
2,6240,Note_off_c,9,80,0,
2,6240,Note_off_c,9,81,0,
2,6240,Note_off_c,9,82,0,
2,6240,Note_off_c,9,87,0,
2,6240,Note_off_c,9,88,0,
2,6240,Note_off_c,9,89,0,
2,6240,Note_off_c,9,91,0,
2,6240,Note_off_c,9,93,0,
2,6270,Note_off_c,9,35,0,
2,6270,Note_off_c,9,36,0,
2,6270,Note_off_c,9,37,0,
2,6270,Note_off_c,9,38,0,
2,6270,Note_off_c,9,39,0,
2,6270,Note_off_c,9,40,0,
2,6270,Note_off_c,9,41,0,
2,6270,Note_off_c,9,42,0,
2,6270,Note_off_c,9,43,0,
2,6270,Note_off_c,9,44,0,
2,6270,Note_off_c,9,45,0,
2,6270,Note_off_c,9,46,0,
2,6270,Note_off_c,9,47,0,
2,6270,Note_off_c,9,48,0,
2,6270,Note_off_c,9,49,0,
2,6270,Note_off_c,9,50,0,
2,6270,Note_off_c,9,51,0,
2,6270,Note_off_c,9,56,0,
2,6270,Note_off_c,9,57,0,
2,6270,Note_off_c,9,59,0,
2,6270,Note_off_c,9,60,0,
2,6270,Note_off_c,9,61,0,
2,6270,Note_off_c,9,63,0,
2,6270,Note_off_c,9,68,0,
2,6270,Note_off_c,9,69,0,
2,6270,Note_off_c,9,70,0,
2,6270,Note_off_c,9,76,0,
2,6270,Note_off_c,9,80,0,
2,6270,Note_off_c,9,81,0,
2,6270,Note_off_c,9,82,0,
2,6270,Note_off_c,9,87,0,
2,6270,Note_off_c,9,88,0,
2,6270,Note_off_c,9,89,0,
2,6270,Note_off_c,9,91,0,
2,6270,Note_off_c,9,93,0,
2,6300,Note_off_c,9,35,0,
2,6300,Note_off_c,9,36,0,
2,6300,Note_off_c,9,37,0,
2,6300,Note_off_c,9,38,0,
2,6300,Note_off_c,9,39,0,
2,6300,Note_off_c,9,40,0,
2,6300,Note_off_c,9,41,0,
2,6300,Note_off_c,9,42,0,
2,6300,Note_off_c,9,43,0,
2,6300,Note_off_c,9,44,0,
2,6300,Note_off_c,9,45,0,
2,6300,Note_off_c,9,46,0,
2,6300,Note_off_c,9,47,0,
2,6300,Note_off_c,9,48,0,
2,6300,Note_off_c,9,49,0,
2,6300,Note_off_c,9,50,0,
2,6300,Note_off_c,9,51,0,
2,6300,Note_off_c,9,56,0,
2,6300,Note_off_c,9,57,0,
2,6300,Note_off_c,9,59,0,
2,6300,Note_off_c,9,60,0,
2,6300,Note_off_c,9,61,0,
2,6300,Note_off_c,9,63,0,
2,6300,Note_off_c,9,68,0,
2,6300,Note_off_c,9,69,0,
2,6300,Note_off_c,9,70,0,
2,6300,Note_off_c,9,76,0,
2,6300,Note_off_c,9,80,0,
2,6300,Note_off_c,9,81,0,
2,6300,Note_off_c,9,82,0,
2,6300,Note_off_c,9,87,0,
2,6300,Note_off_c,9,88,0,
2,6300,Note_off_c,9,89,0,
2,6300,Note_off_c,9,91,0,
2,6300,Note_off_c,9,93,0,
2,6330,Note_off_c,9,35,0,
2,6330,Note_off_c,9,36,0,
2,6330,Note_off_c,9,37,0,
2,6330,Note_off_c,9,38,0,
2,6330,Note_off_c,9,39,0,
2,6330,Note_off_c,9,40,0,
2,6330,Note_off_c,9,41,0,
2,6330,Note_off_c,9,42,0,
2,6330,Note_off_c,9,43,0,
2,6330,Note_off_c,9,44,0,
2,6330,Note_off_c,9,45,0,
2,6330,Note_off_c,9,46,0,
2,6330,Note_off_c,9,47,0,
2,6330,Note_off_c,9,48,0,
2,6330,Note_off_c,9,49,0,
2,6330,Note_off_c,9,50,0,
2,6330,Note_off_c,9,51,0,
2,6330,Note_off_c,9,56,0,
2,6330,Note_off_c,9,57,0,
2,6330,Note_off_c,9,59,0,
2,6330,Note_off_c,9,60,0,
2,6330,Note_off_c,9,61,0,
2,6330,Note_off_c,9,63,0,
2,6330,Note_off_c,9,68,0,
2,6330,Note_off_c,9,69,0,
2,6330,Note_off_c,9,70,0,
2,6330,Note_off_c,9,76,0,
2,6330,Note_off_c,9,80,0,
2,6330,Note_off_c,9,81,0,
2,6330,Note_off_c,9,82,0,
2,6330,Note_off_c,9,87,0,
2,6330,Note_off_c,9,88,0,
2,6330,Note_off_c,9,89,0,
2,6330,Note_off_c,9,91,0,
2,6330,Note_off_c,9,93,0,
2,6360,Note_off_c,9,35,0,
2,6360,Note_off_c,9,36,0,
2,6360,Note_off_c,9,37,0,
2,6360,Note_off_c,9,38,0,
2,6360,Note_off_c,9,39,0,
2,6360,Note_off_c,9,40,0,
2,6360,Note_off_c,9,41,0,
2,6360,Note_off_c,9,42,0,
2,6360,Note_off_c,9,43,0,
2,6360,Note_off_c,9,44,0,
2,6360,Note_off_c,9,45,0,
2,6360,Note_off_c,9,46,0,
2,6360,Note_off_c,9,47,0,
2,6360,Note_off_c,9,48,0,
2,6360,Note_off_c,9,49,0,
2,6360,Note_off_c,9,50,0,
2,6360,Note_off_c,9,51,0,
2,6360,Note_off_c,9,56,0,
2,6360,Note_off_c,9,57,0,
2,6360,Note_off_c,9,59,0,
2,6360,Note_off_c,9,60,0,
2,6360,Note_off_c,9,61,0,
2,6360,Note_off_c,9,63,0,
2,6360,Note_off_c,9,68,0,
2,6360,Note_off_c,9,69,0,
2,6360,Note_off_c,9,70,0,
2,6360,Note_off_c,9,76,0,
2,6360,Note_off_c,9,80,0,
2,6360,Note_off_c,9,81,0,
2,6360,Note_off_c,9,82,0,
2,6360,Note_off_c,9,87,0,
2,6360,Note_off_c,9,88,0,
2,6360,Note_off_c,9,89,0,
2,6360,Note_off_c,9,91,0,
2,6360,Note_off_c,9,93,0,
2,6390,Note_off_c,9,35,0,
2,6390,Note_off_c,9,36,0,
2,6390,Note_off_c,9,37,0,
2,6390,Note_off_c,9,38,0,
2,6390,Note_off_c,9,39,0,
2,6390,Note_off_c,9,40,0,
2,6390,Note_off_c,9,41,0,
2,6390,Note_off_c,9,42,0,
2,6390,Note_off_c,9,43,0,
2,6390,Note_off_c,9,44,0,
2,6390,Note_off_c,9,45,0,
2,6390,Note_off_c,9,46,0,
2,6390,Note_off_c,9,47,0,
2,6390,Note_off_c,9,48,0,
2,6390,Note_off_c,9,49,0,
2,6390,Note_off_c,9,50,0,
2,6390,Note_off_c,9,51,0,
2,6390,Note_off_c,9,56,0,
2,6390,Note_off_c,9,57,0,
2,6390,Note_off_c,9,59,0,
2,6390,Note_off_c,9,60,0,
2,6390,Note_off_c,9,61,0,
2,6390,Note_off_c,9,63,0,
2,6390,Note_off_c,9,68,0,
2,6390,Note_off_c,9,69,0,
2,6390,Note_off_c,9,70,0,
2,6390,Note_off_c,9,76,0,
2,6390,Note_off_c,9,80,0,
2,6390,Note_off_c,9,81,0,
2,6390,Note_off_c,9,82,0,
2,6390,Note_off_c,9,87,0,
2,6390,Note_off_c,9,88,0,
2,6390,Note_off_c,9,89,0,
2,6390,Note_off_c,9,91,0,
2,6390,Note_off_c,9,93,0,
2,6420,Note_off_c,9,35,0,
2,6420,Note_off_c,9,36,0,
2,6420,Note_off_c,9,37,0,
2,6420,Note_off_c,9,38,0,
2,6420,Note_off_c,9,39,0,
2,6420,Note_off_c,9,40,0,
2,6420,Note_off_c,9,41,0,
2,6420,Note_off_c,9,42,0,
2,6420,Note_off_c,9,43,0,
2,6420,Note_off_c,9,44,0,
2,6420,Note_off_c,9,45,0,
2,6420,Note_off_c,9,46,0,
2,6420,Note_off_c,9,47,0,
2,6420,Note_off_c,9,48,0,
2,6420,Note_off_c,9,49,0,
2,6420,Note_off_c,9,50,0,
2,6420,Note_off_c,9,51,0,
2,6420,Note_off_c,9,56,0,
2,6420,Note_off_c,9,57,0,
2,6420,Note_off_c,9,59,0,
2,6420,Note_off_c,9,60,0,
2,6420,Note_off_c,9,61,0,
2,6420,Note_off_c,9,63,0,
2,6420,Note_off_c,9,68,0,
2,6420,Note_off_c,9,69,0,
2,6420,Note_off_c,9,70,0,
2,6420,Note_off_c,9,76,0,
2,6420,Note_off_c,9,80,0,
2,6420,Note_off_c,9,81,0,
2,6420,Note_off_c,9,82,0,
2,6420,Note_off_c,9,87,0,
2,6420,Note_off_c,9,88,0,
2,6420,Note_off_c,9,89,0,
2,6420,Note_off_c,9,91,0,
2,6420,Note_off_c,9,93,0,
2,6450,Note_off_c,9,35,0,
2,6450,Note_off_c,9,36,0,
2,6450,Note_off_c,9,37,0,
2,6450,Note_off_c,9,38,0,
2,6450,Note_off_c,9,39,0,
2,6450,Note_off_c,9,40,0,
2,6450,Note_off_c,9,41,0,
2,6450,Note_off_c,9,42,0,
2,6450,Note_off_c,9,43,0,
2,6450,Note_off_c,9,44,0,
2,6450,Note_off_c,9,45,0,
2,6450,Note_off_c,9,46,0,
2,6450,Note_off_c,9,47,0,
2,6450,Note_off_c,9,48,0,
2,6450,Note_off_c,9,49,0,
2,6450,Note_off_c,9,50,0,
2,6450,Note_off_c,9,51,0,
2,6450,Note_off_c,9,56,0,
2,6450,Note_off_c,9,57,0,
2,6450,Note_off_c,9,59,0,
2,6450,Note_off_c,9,60,0,
2,6450,Note_off_c,9,61,0,
2,6450,Note_off_c,9,63,0,
2,6450,Note_off_c,9,68,0,
2,6450,Note_off_c,9,69,0,
2,6450,Note_off_c,9,70,0,
2,6450,Note_off_c,9,76,0,
2,6450,Note_off_c,9,80,0,
2,6450,Note_off_c,9,81,0,
2,6450,Note_off_c,9,82,0,
2,6450,Note_off_c,9,87,0,
2,6450,Note_off_c,9,88,0,
2,6450,Note_off_c,9,89,0,
2,6450,Note_off_c,9,91,0,
2,6450,Note_off_c,9,93,0,
2,6480,Note_off_c,9,35,0,
2,6480,Note_off_c,9,36,0,
2,6480,Note_off_c,9,37,0,
2,6480,Note_off_c,9,38,0,
2,6480,Note_off_c,9,39,0,
2,6480,Note_off_c,9,40,0,
2,6480,Note_off_c,9,41,0,
2,6480,Note_off_c,9,42,0,
2,6480,Note_off_c,9,43,0,
2,6480,Note_off_c,9,44,0,
2,6480,Note_off_c,9,45,0,
2,6480,Note_off_c,9,46,0,
2,6480,Note_off_c,9,47,0,
2,6480,Note_off_c,9,48,0,
2,6480,Note_off_c,9,49,0,
2,6480,Note_off_c,9,50,0,
2,6480,Note_off_c,9,51,0,
2,6480,Note_off_c,9,56,0,
2,6480,Note_off_c,9,57,0,
2,6480,Note_off_c,9,59,0,
2,6480,Note_off_c,9,60,0,
2,6480,Note_off_c,9,61,0,
2,6480,Note_off_c,9,63,0,
2,6480,Note_off_c,9,68,0,
2,6480,Note_off_c,9,69,0,
2,6480,Note_off_c,9,70,0,
2,6480,Note_off_c,9,76,0,
2,6480,Note_off_c,9,80,0,
2,6480,Note_off_c,9,81,0,
2,6480,Note_off_c,9,82,0,
2,6480,Note_off_c,9,87,0,
2,6480,Note_off_c,9,88,0,
2,6480,Note_off_c,9,89,0,
2,6480,Note_off_c,9,91,0,
2,6480,Note_off_c,9,93,0,
2,6510,Note_off_c,9,35,0,
2,6510,Note_off_c,9,36,0,
2,6510,Note_off_c,9,37,0,
2,6510,Note_off_c,9,38,0,
2,6510,Note_off_c,9,39,0,
2,6510,Note_off_c,9,40,0,
2,6510,Note_off_c,9,41,0,
2,6510,Note_off_c,9,42,0,
2,6510,Note_off_c,9,43,0,
2,6510,Note_off_c,9,44,0,
2,6510,Note_off_c,9,45,0,
2,6510,Note_off_c,9,46,0,
2,6510,Note_off_c,9,47,0,
2,6510,Note_off_c,9,48,0,
2,6510,Note_off_c,9,49,0,
2,6510,Note_off_c,9,50,0,
2,6510,Note_off_c,9,51,0,
2,6510,Note_off_c,9,56,0,
2,6510,Note_off_c,9,57,0,
2,6510,Note_off_c,9,59,0,
2,6510,Note_off_c,9,60,0,
2,6510,Note_off_c,9,61,0,
2,6510,Note_off_c,9,63,0,
2,6510,Note_off_c,9,68,0,
2,6510,Note_off_c,9,69,0,
2,6510,Note_off_c,9,70,0,
2,6510,Note_off_c,9,76,0,
2,6510,Note_off_c,9,80,0,
2,6510,Note_off_c,9,81,0,
2,6510,Note_off_c,9,82,0,
2,6510,Note_off_c,9,87,0,
2,6510,Note_off_c,9,88,0,
2,6510,Note_off_c,9,89,0,
2,6510,Note_off_c,9,91,0,
2,6510,Note_off_c,9,93,0,
2,6540,Note_off_c,9,35,0,
2,6540,Note_off_c,9,36,0,
2,6540,Note_off_c,9,37,0,
2,6540,Note_off_c,9,38,0,
2,6540,Note_off_c,9,39,0,
2,6540,Note_off_c,9,40,0,
2,6540,Note_off_c,9,41,0,
2,6540,Note_off_c,9,42,0,
2,6540,Note_off_c,9,43,0,
2,6540,Note_off_c,9,44,0,
2,6540,Note_off_c,9,45,0,
2,6540,Note_off_c,9,46,0,
2,6540,Note_off_c,9,47,0,
2,6540,Note_off_c,9,48,0,
2,6540,Note_off_c,9,49,0,
2,6540,Note_off_c,9,50,0,
2,6540,Note_off_c,9,51,0,
2,6540,Note_off_c,9,56,0,
2,6540,Note_off_c,9,57,0,
2,6540,Note_off_c,9,59,0,
2,6540,Note_off_c,9,60,0,
2,6540,Note_off_c,9,61,0,
2,6540,Note_off_c,9,63,0,
2,6540,Note_off_c,9,68,0,
2,6540,Note_off_c,9,69,0,
2,6540,Note_off_c,9,70,0,
2,6540,Note_off_c,9,76,0,
2,6540,Note_off_c,9,80,0,
2,6540,Note_off_c,9,81,0,
2,6540,Note_off_c,9,82,0,
2,6540,Note_off_c,9,87,0,
2,6540,Note_off_c,9,88,0,
2,6540,Note_off_c,9,89,0,
2,6540,Note_off_c,9,91,0,
2,6540,Note_off_c,9,93,0,
2,6570,Note_off_c,9,35,0,
2,6570,Note_off_c,9,36,0,
2,6570,Note_off_c,9,37,0,
2,6570,Note_off_c,9,38,0,
2,6570,Note_off_c,9,39,0,
2,6570,Note_off_c,9,40,0,
2,6570,Note_off_c,9,41,0,
2,6570,Note_off_c,9,42,0,
2,6570,Note_off_c,9,43,0,
2,6570,Note_off_c,9,44,0,
2,6570,Note_off_c,9,45,0,
2,6570,Note_off_c,9,46,0,
2,6570,Note_off_c,9,47,0,
2,6570,Note_off_c,9,48,0,
2,6570,Note_off_c,9,49,0,
2,6570,Note_off_c,9,50,0,
2,6570,Note_off_c,9,51,0,
2,6570,Note_off_c,9,56,0,
2,6570,Note_off_c,9,57,0,
2,6570,Note_off_c,9,59,0,
2,6570,Note_off_c,9,60,0,
2,6570,Note_off_c,9,61,0,
2,6570,Note_off_c,9,63,0,
2,6570,Note_off_c,9,68,0,
2,6570,Note_off_c,9,69,0,
2,6570,Note_off_c,9,70,0,
2,6570,Note_off_c,9,76,0,
2,6570,Note_off_c,9,80,0,
2,6570,Note_off_c,9,81,0,
2,6570,Note_off_c,9,82,0,
2,6570,Note_off_c,9,87,0,
2,6570,Note_off_c,9,88,0,
2,6570,Note_off_c,9,89,0,
2,6570,Note_off_c,9,91,0,
2,6570,Note_off_c,9,93,0,
2,6600,Note_off_c,9,35,0,
2,6600,Note_off_c,9,36,0,
2,6600,Note_off_c,9,37,0,
2,6600,Note_off_c,9,38,0,
2,6600,Note_off_c,9,39,0,
2,6600,Note_off_c,9,40,0,
2,6600,Note_off_c,9,41,0,
2,6600,Note_off_c,9,42,0,
2,6600,Note_off_c,9,43,0,
2,6600,Note_off_c,9,44,0,
2,6600,Note_off_c,9,45,0,
2,6600,Note_off_c,9,46,0,
2,6600,Note_off_c,9,47,0,
2,6600,Note_off_c,9,48,0,
2,6600,Note_off_c,9,49,0,
2,6600,Note_off_c,9,50,0,
2,6600,Note_off_c,9,51,0,
2,6600,Note_off_c,9,56,0,
2,6600,Note_off_c,9,57,0,
2,6600,Note_off_c,9,59,0,
2,6600,Note_off_c,9,60,0,
2,6600,Note_off_c,9,61,0,
2,6600,Note_off_c,9,63,0,
2,6600,Note_off_c,9,68,0,
2,6600,Note_off_c,9,69,0,
2,6600,Note_off_c,9,70,0,
2,6600,Note_off_c,9,76,0,
2,6600,Note_off_c,9,80,0,
2,6600,Note_off_c,9,81,0,
2,6600,Note_off_c,9,82,0,
2,6600,Note_off_c,9,87,0,
2,6600,Note_off_c,9,88,0,
2,6600,Note_off_c,9,89,0,
2,6600,Note_off_c,9,91,0,
2,6600,Note_off_c,9,93,0,
2,6630,Note_off_c,9,35,0,
2,6630,Note_off_c,9,36,0,
2,6630,Note_off_c,9,37,0,
2,6630,Note_off_c,9,38,0,
2,6630,Note_off_c,9,39,0,
2,6630,Note_off_c,9,40,0,
2,6630,Note_off_c,9,41,0,
2,6630,Note_off_c,9,42,0,
2,6630,Note_off_c,9,43,0,
2,6630,Note_off_c,9,44,0,
2,6630,Note_off_c,9,45,0,
2,6630,Note_off_c,9,46,0,
2,6630,Note_off_c,9,47,0,
2,6630,Note_off_c,9,48,0,
2,6630,Note_off_c,9,49,0,
2,6630,Note_off_c,9,50,0,
2,6630,Note_off_c,9,51,0,
2,6630,Note_off_c,9,56,0,
2,6630,Note_off_c,9,57,0,
2,6630,Note_off_c,9,59,0,
2,6630,Note_off_c,9,60,0,
2,6630,Note_off_c,9,61,0,
2,6630,Note_off_c,9,63,0,
2,6630,Note_off_c,9,68,0,
2,6630,Note_off_c,9,69,0,
2,6630,Note_off_c,9,70,0,
2,6630,Note_off_c,9,76,0,
2,6630,Note_off_c,9,80,0,
2,6630,Note_off_c,9,81,0,
2,6630,Note_off_c,9,82,0,
2,6630,Note_off_c,9,87,0,
2,6630,Note_off_c,9,88,0,
2,6630,Note_off_c,9,89,0,
2,6630,Note_off_c,9,91,0,
2,6630,Note_off_c,9,93,0,
2,6660,Note_off_c,9,35,0,
2,6660,Note_off_c,9,36,0,
2,6660,Note_off_c,9,37,0,
2,6660,Note_off_c,9,38,0,
2,6660,Note_off_c,9,39,0,
2,6660,Note_off_c,9,40,0,
2,6660,Note_off_c,9,41,0,
2,6660,Note_off_c,9,42,0,
2,6660,Note_off_c,9,43,0,
2,6660,Note_off_c,9,44,0,
2,6660,Note_off_c,9,45,0,
2,6660,Note_off_c,9,46,0,
2,6660,Note_off_c,9,47,0,
2,6660,Note_off_c,9,48,0,
2,6660,Note_off_c,9,49,0,
2,6660,Note_off_c,9,50,0,
2,6660,Note_off_c,9,51,0,
2,6660,Note_off_c,9,56,0,
2,6660,Note_off_c,9,57,0,
2,6660,Note_off_c,9,59,0,
2,6660,Note_off_c,9,60,0,
2,6660,Note_off_c,9,61,0,
2,6660,Note_off_c,9,63,0,
2,6660,Note_off_c,9,68,0,
2,6660,Note_off_c,9,69,0,
2,6660,Note_off_c,9,70,0,
2,6660,Note_off_c,9,76,0,
2,6660,Note_off_c,9,80,0,
2,6660,Note_off_c,9,81,0,
2,6660,Note_off_c,9,82,0,
2,6660,Note_off_c,9,87,0,
2,6660,Note_off_c,9,88,0,
2,6660,Note_off_c,9,89,0,
2,6660,Note_off_c,9,91,0,
2,6660,Note_off_c,9,93,0,
2,6690,Note_off_c,9,35,0,
2,6690,Note_off_c,9,36,0,
2,6690,Note_off_c,9,37,0,
2,6690,Note_off_c,9,38,0,
2,6690,Note_off_c,9,39,0,
2,6690,Note_off_c,9,40,0,
2,6690,Note_off_c,9,41,0,
2,6690,Note_off_c,9,42,0,
2,6690,Note_off_c,9,43,0,
2,6690,Note_off_c,9,44,0,
2,6690,Note_off_c,9,45,0,
2,6690,Note_off_c,9,46,0,
2,6690,Note_off_c,9,47,0,
2,6690,Note_off_c,9,48,0,
2,6690,Note_off_c,9,49,0,
2,6690,Note_off_c,9,50,0,
2,6690,Note_off_c,9,51,0,
2,6690,Note_off_c,9,56,0,
2,6690,Note_off_c,9,57,0,
2,6690,Note_off_c,9,59,0,
2,6690,Note_off_c,9,60,0,
2,6690,Note_off_c,9,61,0,
2,6690,Note_off_c,9,63,0,
2,6690,Note_off_c,9,68,0,
2,6690,Note_off_c,9,69,0,
2,6690,Note_off_c,9,70,0,
2,6690,Note_off_c,9,76,0,
2,6690,Note_off_c,9,80,0,
2,6690,Note_off_c,9,81,0,
2,6690,Note_off_c,9,82,0,
2,6690,Note_off_c,9,87,0,
2,6690,Note_off_c,9,88,0,
2,6690,Note_off_c,9,89,0,
2,6690,Note_off_c,9,91,0,
2,6690,Note_off_c,9,93,0,
2,6720,Note_off_c,9,35,0,
2,6720,Note_off_c,9,36,0,
2,6720,Note_off_c,9,37,0,
2,6720,Note_off_c,9,38,0,
2,6720,Note_off_c,9,39,0,
2,6720,Note_off_c,9,40,0,
2,6720,Note_off_c,9,41,0,
2,6720,Note_off_c,9,42,0,
2,6720,Note_off_c,9,43,0,
2,6720,Note_off_c,9,44,0,
2,6720,Note_off_c,9,45,0,
2,6720,Note_off_c,9,46,0,
2,6720,Note_off_c,9,47,0,
2,6720,Note_off_c,9,48,0,
2,6720,Note_off_c,9,49,0,
2,6720,Note_off_c,9,50,0,
2,6720,Note_off_c,9,51,0,
2,6720,Note_off_c,9,56,0,
2,6720,Note_off_c,9,57,0,
2,6720,Note_off_c,9,59,0,
2,6720,Note_off_c,9,60,0,
2,6720,Note_off_c,9,61,0,
2,6720,Note_off_c,9,63,0,
2,6720,Note_off_c,9,68,0,
2,6720,Note_off_c,9,69,0,
2,6720,Note_off_c,9,70,0,
2,6720,Note_off_c,9,76,0,
2,6720,Note_off_c,9,80,0,
2,6720,Note_off_c,9,81,0,
2,6720,Note_off_c,9,82,0,
2,6720,Note_off_c,9,87,0,
2,6720,Note_off_c,9,88,0,
2,6720,Note_off_c,9,89,0,
2,6720,Note_off_c,9,91,0,
2,6720,Note_off_c,9,93,0,
2,6750,Note_off_c,9,35,0,
2,6750,Note_off_c,9,36,0,
2,6750,Note_off_c,9,37,0,
2,6750,Note_off_c,9,38,0,
2,6750,Note_off_c,9,39,0,
2,6750,Note_off_c,9,40,0,
2,6750,Note_off_c,9,41,0,
2,6750,Note_off_c,9,42,0,
2,6750,Note_off_c,9,43,0,
2,6750,Note_off_c,9,44,0,
2,6750,Note_off_c,9,45,0,
2,6750,Note_off_c,9,46,0,
2,6750,Note_off_c,9,47,0,
2,6750,Note_off_c,9,48,0,
2,6750,Note_off_c,9,49,0,
2,6750,Note_off_c,9,50,0,
2,6750,Note_off_c,9,51,0,
2,6750,Note_off_c,9,56,0,
2,6750,Note_off_c,9,57,0,
2,6750,Note_off_c,9,59,0,
2,6750,Note_off_c,9,60,0,
2,6750,Note_off_c,9,61,0,
2,6750,Note_off_c,9,63,0,
2,6750,Note_off_c,9,68,0,
2,6750,Note_off_c,9,69,0,
2,6750,Note_off_c,9,70,0,
2,6750,Note_off_c,9,76,0,
2,6750,Note_off_c,9,80,0,
2,6750,Note_off_c,9,81,0,
2,6750,Note_off_c,9,82,0,
2,6750,Note_off_c,9,87,0,
2,6750,Note_off_c,9,88,0,
2,6750,Note_off_c,9,89,0,
2,6750,Note_off_c,9,91,0,
2,6750,Note_off_c,9,93,0,
2,6780,Note_off_c,9,35,0,
2,6780,Note_off_c,9,36,0,
2,6780,Note_off_c,9,37,0,
2,6780,Note_off_c,9,38,0,
2,6780,Note_off_c,9,39,0,
2,6780,Note_off_c,9,40,0,
2,6780,Note_off_c,9,41,0,
2,6780,Note_off_c,9,42,0,
2,6780,Note_off_c,9,43,0,
2,6780,Note_off_c,9,44,0,
2,6780,Note_off_c,9,45,0,
2,6780,Note_off_c,9,46,0,
2,6780,Note_off_c,9,47,0,
2,6780,Note_off_c,9,48,0,
2,6780,Note_off_c,9,49,0,
2,6780,Note_off_c,9,50,0,
2,6780,Note_off_c,9,51,0,
2,6780,Note_off_c,9,56,0,
2,6780,Note_off_c,9,57,0,
2,6780,Note_off_c,9,59,0,
2,6780,Note_off_c,9,60,0,
2,6780,Note_off_c,9,61,0,
2,6780,Note_off_c,9,63,0,
2,6780,Note_off_c,9,68,0,
2,6780,Note_off_c,9,69,0,
2,6780,Note_off_c,9,70,0,
2,6780,Note_off_c,9,76,0,
2,6780,Note_off_c,9,80,0,
2,6780,Note_off_c,9,81,0,
2,6780,Note_off_c,9,82,0,
2,6780,Note_off_c,9,87,0,
2,6780,Note_off_c,9,88,0,
2,6780,Note_off_c,9,89,0,
2,6780,Note_off_c,9,91,0,
2,6780,Note_off_c,9,93,0,
2,6810,Note_off_c,9,35,0,
2,6810,Note_off_c,9,36,0,
2,6810,Note_off_c,9,37,0,
2,6810,Note_off_c,9,38,0,
2,6810,Note_off_c,9,39,0,
2,6810,Note_off_c,9,40,0,
2,6810,Note_off_c,9,41,0,
2,6810,Note_off_c,9,42,0,
2,6810,Note_off_c,9,43,0,
2,6810,Note_off_c,9,44,0,
2,6810,Note_off_c,9,45,0,
2,6810,Note_off_c,9,46,0,
2,6810,Note_off_c,9,47,0,
2,6810,Note_off_c,9,48,0,
2,6810,Note_off_c,9,49,0,
2,6810,Note_off_c,9,50,0,
2,6810,Note_off_c,9,51,0,
2,6810,Note_off_c,9,56,0,
2,6810,Note_off_c,9,57,0,
2,6810,Note_off_c,9,59,0,
2,6810,Note_off_c,9,60,0,
2,6810,Note_off_c,9,61,0,
2,6810,Note_off_c,9,63,0,
2,6810,Note_off_c,9,68,0,
2,6810,Note_off_c,9,69,0,
2,6810,Note_off_c,9,70,0,
2,6810,Note_off_c,9,76,0,
2,6810,Note_off_c,9,80,0,
2,6810,Note_off_c,9,81,0,
2,6810,Note_off_c,9,82,0,
2,6810,Note_off_c,9,87,0,
2,6810,Note_off_c,9,88,0,
2,6810,Note_off_c,9,89,0,
2,6810,Note_off_c,9,91,0,
2,6810,Note_off_c,9,93,0,
2,6840,Note_off_c,9,35,0,
2,6840,Note_off_c,9,36,0,
2,6840,Note_off_c,9,37,0,
2,6840,Note_off_c,9,38,0,
2,6840,Note_off_c,9,39,0,
2,6840,Note_off_c,9,40,0,
2,6840,Note_off_c,9,41,0,
2,6840,Note_off_c,9,42,0,
2,6840,Note_off_c,9,43,0,
2,6840,Note_off_c,9,44,0,
2,6840,Note_off_c,9,45,0,
2,6840,Note_off_c,9,46,0,
2,6840,Note_off_c,9,47,0,
2,6840,Note_off_c,9,48,0,
2,6840,Note_off_c,9,49,0,
2,6840,Note_off_c,9,50,0,
2,6840,Note_off_c,9,51,0,
2,6840,Note_off_c,9,56,0,
2,6840,Note_off_c,9,57,0,
2,6840,Note_off_c,9,59,0,
2,6840,Note_off_c,9,60,0,
2,6840,Note_off_c,9,61,0,
2,6840,Note_off_c,9,63,0,
2,6840,Note_off_c,9,68,0,
2,6840,Note_off_c,9,69,0,
2,6840,Note_off_c,9,70,0,
2,6840,Note_off_c,9,76,0,
2,6840,Note_off_c,9,80,0,
2,6840,Note_off_c,9,81,0,
2,6840,Note_off_c,9,82,0,
2,6840,Note_off_c,9,87,0,
2,6840,Note_off_c,9,88,0,
2,6840,Note_off_c,9,89,0,
2,6840,Note_off_c,9,91,0,
2,6840,Note_off_c,9,93,0,
2,6870,Note_off_c,9,35,0,
2,6870,Note_off_c,9,36,0,
2,6870,Note_off_c,9,37,0,
2,6870,Note_off_c,9,38,0,
2,6870,Note_off_c,9,39,0,
2,6870,Note_off_c,9,40,0,
2,6870,Note_off_c,9,41,0,
2,6870,Note_off_c,9,42,0,
2,6870,Note_off_c,9,43,0,
2,6870,Note_off_c,9,44,0,
2,6870,Note_off_c,9,45,0,
2,6870,Note_off_c,9,46,0,
2,6870,Note_off_c,9,47,0,
2,6870,Note_off_c,9,48,0,
2,6870,Note_off_c,9,49,0,
2,6870,Note_off_c,9,50,0,
2,6870,Note_off_c,9,51,0,
2,6870,Note_off_c,9,56,0,
2,6870,Note_off_c,9,57,0,
2,6870,Note_off_c,9,59,0,
2,6870,Note_off_c,9,60,0,
2,6870,Note_off_c,9,61,0,
2,6870,Note_off_c,9,63,0,
2,6870,Note_off_c,9,68,0,
2,6870,Note_off_c,9,69,0,
2,6870,Note_off_c,9,70,0,
2,6870,Note_off_c,9,76,0,
2,6870,Note_off_c,9,80,0,
2,6870,Note_off_c,9,81,0,
2,6870,Note_off_c,9,82,0,
2,6870,Note_off_c,9,87,0,
2,6870,Note_off_c,9,88,0,
2,6870,Note_off_c,9,89,0,
2,6870,Note_off_c,9,91,0,
2,6870,Note_off_c,9,93,0,
2,6900,Note_off_c,9,35,0,
2,6900,Note_off_c,9,36,0,
2,6900,Note_off_c,9,37,0,
2,6900,Note_off_c,9,38,0,
2,6900,Note_off_c,9,39,0,
2,6900,Note_off_c,9,40,0,
2,6900,Note_off_c,9,41,0,
2,6900,Note_off_c,9,42,0,
2,6900,Note_off_c,9,43,0,
2,6900,Note_off_c,9,44,0,
2,6900,Note_off_c,9,45,0,
2,6900,Note_off_c,9,46,0,
2,6900,Note_off_c,9,47,0,
2,6900,Note_off_c,9,48,0,
2,6900,Note_off_c,9,49,0,
2,6900,Note_off_c,9,50,0,
2,6900,Note_off_c,9,51,0,
2,6900,Note_off_c,9,56,0,
2,6900,Note_off_c,9,57,0,
2,6900,Note_off_c,9,59,0,
2,6900,Note_off_c,9,60,0,
2,6900,Note_off_c,9,61,0,
2,6900,Note_off_c,9,63,0,
2,6900,Note_off_c,9,68,0,
2,6900,Note_off_c,9,69,0,
2,6900,Note_off_c,9,70,0,
2,6900,Note_off_c,9,76,0,
2,6900,Note_off_c,9,80,0,
2,6900,Note_off_c,9,81,0,
2,6900,Note_off_c,9,82,0,
2,6900,Note_off_c,9,87,0,
2,6900,Note_off_c,9,88,0,
2,6900,Note_off_c,9,89,0,
2,6900,Note_off_c,9,91,0,
2,6900,Note_off_c,9,93,0,
2,6930,Note_off_c,9,35,0,
2,6930,Note_off_c,9,36,0,
2,6930,Note_off_c,9,37,0,
2,6930,Note_off_c,9,38,0,
2,6930,Note_off_c,9,39,0,
2,6930,Note_off_c,9,40,0,
2,6930,Note_off_c,9,41,0,
2,6930,Note_off_c,9,42,0,
2,6930,Note_off_c,9,43,0,
2,6930,Note_off_c,9,44,0,
2,6930,Note_off_c,9,45,0,
2,6930,Note_off_c,9,46,0,
2,6930,Note_off_c,9,47,0,
2,6930,Note_off_c,9,48,0,
2,6930,Note_off_c,9,49,0,
2,6930,Note_off_c,9,50,0,
2,6930,Note_off_c,9,51,0,
2,6930,Note_off_c,9,56,0,
2,6930,Note_off_c,9,57,0,
2,6930,Note_off_c,9,59,0,
2,6930,Note_off_c,9,60,0,
2,6930,Note_off_c,9,61,0,
2,6930,Note_off_c,9,63,0,
2,6930,Note_off_c,9,68,0,
2,6930,Note_off_c,9,69,0,
2,6930,Note_off_c,9,70,0,
2,6930,Note_off_c,9,76,0,
2,6930,Note_off_c,9,80,0,
2,6930,Note_off_c,9,81,0,
2,6930,Note_off_c,9,82,0,
2,6930,Note_off_c,9,87,0,
2,6930,Note_off_c,9,88,0,
2,6930,Note_off_c,9,89,0,
2,6930,Note_off_c,9,91,0,
2,6930,Note_off_c,9,93,0,
2,6960,Note_off_c,9,35,0,
2,6960,Note_off_c,9,36,0,
2,6960,Note_off_c,9,37,0,
2,6960,Note_off_c,9,38,0,
2,6960,Note_off_c,9,39,0,
2,6960,Note_off_c,9,40,0,
2,6960,Note_off_c,9,41,0,
2,6960,Note_off_c,9,42,0,
2,6960,Note_off_c,9,43,0,
2,6960,Note_off_c,9,44,0,
2,6960,Note_off_c,9,45,0,
2,6960,Note_off_c,9,46,0,
2,6960,Note_off_c,9,47,0,
2,6960,Note_off_c,9,48,0,
2,6960,Note_off_c,9,49,0,
2,6960,Note_off_c,9,50,0,
2,6960,Note_off_c,9,51,0,
2,6960,Note_off_c,9,56,0,
2,6960,Note_off_c,9,57,0,
2,6960,Note_off_c,9,59,0,
2,6960,Note_off_c,9,60,0,
2,6960,Note_off_c,9,61,0,
2,6960,Note_off_c,9,63,0,
2,6960,Note_off_c,9,68,0,
2,6960,Note_off_c,9,69,0,
2,6960,Note_off_c,9,70,0,
2,6960,Note_off_c,9,76,0,
2,6960,Note_off_c,9,80,0,
2,6960,Note_off_c,9,81,0,
2,6960,Note_off_c,9,82,0,
2,6960,Note_off_c,9,87,0,
2,6960,Note_off_c,9,88,0,
2,6960,Note_off_c,9,89,0,
2,6960,Note_off_c,9,91,0,
2,6960,Note_off_c,9,93,0,
2,6990,Note_off_c,9,35,0,
2,6990,Note_off_c,9,36,0,
2,6990,Note_off_c,9,37,0,
2,6990,Note_off_c,9,38,0,
2,6990,Note_off_c,9,39,0,
2,6990,Note_off_c,9,40,0,
2,6990,Note_off_c,9,41,0,
2,6990,Note_off_c,9,42,0,
2,6990,Note_off_c,9,43,0,
2,6990,Note_off_c,9,44,0,
2,6990,Note_off_c,9,45,0,
2,6990,Note_off_c,9,46,0,
2,6990,Note_off_c,9,47,0,
2,6990,Note_off_c,9,48,0,
2,6990,Note_off_c,9,49,0,
2,6990,Note_off_c,9,50,0,
2,6990,Note_off_c,9,51,0,
2,6990,Note_off_c,9,56,0,
2,6990,Note_off_c,9,57,0,
2,6990,Note_off_c,9,59,0,
2,6990,Note_off_c,9,60,0,
2,6990,Note_off_c,9,61,0,
2,6990,Note_off_c,9,63,0,
2,6990,Note_off_c,9,68,0,
2,6990,Note_off_c,9,69,0,
2,6990,Note_off_c,9,70,0,
2,6990,Note_off_c,9,76,0,
2,6990,Note_off_c,9,80,0,
2,6990,Note_off_c,9,81,0,
2,6990,Note_off_c,9,82,0,
2,6990,Note_off_c,9,87,0,
2,6990,Note_off_c,9,88,0,
2,6990,Note_off_c,9,89,0,
2,6990,Note_off_c,9,91,0,
2,6990,Note_off_c,9,93,0,
2,7020,Note_off_c,9,35,0,
2,7020,Note_off_c,9,36,0,
2,7020,Note_off_c,9,37,0,
2,7020,Note_off_c,9,38,0,
2,7020,Note_off_c,9,39,0,
2,7020,Note_off_c,9,40,0,
2,7020,Note_off_c,9,41,0,
2,7020,Note_off_c,9,42,0,
2,7020,Note_off_c,9,43,0,
2,7020,Note_off_c,9,44,0,
2,7020,Note_off_c,9,45,0,
2,7020,Note_off_c,9,46,0,
2,7020,Note_off_c,9,47,0,
2,7020,Note_off_c,9,48,0,
2,7020,Note_off_c,9,49,0,
2,7020,Note_off_c,9,50,0,
2,7020,Note_off_c,9,51,0,
2,7020,Note_off_c,9,56,0,
2,7020,Note_off_c,9,57,0,
2,7020,Note_off_c,9,59,0,
2,7020,Note_off_c,9,60,0,
2,7020,Note_off_c,9,61,0,
2,7020,Note_off_c,9,63,0,
2,7020,Note_off_c,9,68,0,
2,7020,Note_off_c,9,69,0,
2,7020,Note_off_c,9,70,0,
2,7020,Note_off_c,9,76,0,
2,7020,Note_off_c,9,80,0,
2,7020,Note_off_c,9,81,0,
2,7020,Note_off_c,9,82,0,
2,7020,Note_off_c,9,87,0,
2,7020,Note_off_c,9,88,0,
2,7020,Note_off_c,9,89,0,
2,7020,Note_off_c,9,91,0,
2,7020,Note_off_c,9,93,0,
2,7050,Note_off_c,9,35,0,
2,7050,Note_off_c,9,36,0,
2,7050,Note_off_c,9,37,0,
2,7050,Note_off_c,9,38,0,
2,7050,Note_off_c,9,39,0,
2,7050,Note_off_c,9,40,0,
2,7050,Note_off_c,9,41,0,
2,7050,Note_off_c,9,42,0,
2,7050,Note_off_c,9,43,0,
2,7050,Note_off_c,9,44,0,
2,7050,Note_off_c,9,45,0,
2,7050,Note_off_c,9,46,0,
2,7050,Note_off_c,9,47,0,
2,7050,Note_off_c,9,48,0,
2,7050,Note_off_c,9,49,0,
2,7050,Note_off_c,9,50,0,
2,7050,Note_off_c,9,51,0,
2,7050,Note_off_c,9,56,0,
2,7050,Note_off_c,9,57,0,
2,7050,Note_off_c,9,59,0,
2,7050,Note_off_c,9,60,0,
2,7050,Note_off_c,9,61,0,
2,7050,Note_off_c,9,63,0,
2,7050,Note_off_c,9,68,0,
2,7050,Note_off_c,9,69,0,
2,7050,Note_off_c,9,70,0,
2,7050,Note_off_c,9,76,0,
2,7050,Note_off_c,9,80,0,
2,7050,Note_off_c,9,81,0,
2,7050,Note_off_c,9,82,0,
2,7050,Note_off_c,9,87,0,
2,7050,Note_off_c,9,88,0,
2,7050,Note_off_c,9,89,0,
2,7050,Note_off_c,9,91,0,
2,7050,Note_off_c,9,93,0,
2,7080,Note_off_c,9,35,0,
2,7080,Note_off_c,9,36,0,
2,7080,Note_off_c,9,37,0,
2,7080,Note_off_c,9,38,0,
2,7080,Note_off_c,9,39,0,
2,7080,Note_off_c,9,40,0,
2,7080,Note_off_c,9,41,0,
2,7080,Note_off_c,9,42,0,
2,7080,Note_off_c,9,43,0,
2,7080,Note_off_c,9,44,0,
2,7080,Note_off_c,9,45,0,
2,7080,Note_off_c,9,46,0,
2,7080,Note_off_c,9,47,0,
2,7080,Note_off_c,9,48,0,
2,7080,Note_off_c,9,49,0,
2,7080,Note_off_c,9,50,0,
2,7080,Note_off_c,9,51,0,
2,7080,Note_off_c,9,56,0,
2,7080,Note_off_c,9,57,0,
2,7080,Note_off_c,9,59,0,
2,7080,Note_off_c,9,60,0,
2,7080,Note_off_c,9,61,0,
2,7080,Note_off_c,9,63,0,
2,7080,Note_off_c,9,68,0,
2,7080,Note_off_c,9,69,0,
2,7080,Note_off_c,9,70,0,
2,7080,Note_off_c,9,76,0,
2,7080,Note_off_c,9,80,0,
2,7080,Note_off_c,9,81,0,
2,7080,Note_off_c,9,82,0,
2,7080,Note_off_c,9,87,0,
2,7080,Note_off_c,9,88,0,
2,7080,Note_off_c,9,89,0,
2,7080,Note_off_c,9,91,0,
2,7080,Note_off_c,9,93,0,
2,7110,Note_off_c,9,35,0,
2,7110,Note_off_c,9,36,0,
2,7110,Note_off_c,9,37,0,
2,7110,Note_off_c,9,38,0,
2,7110,Note_off_c,9,39,0,
2,7110,Note_off_c,9,40,0,
2,7110,Note_off_c,9,41,0,
2,7110,Note_off_c,9,42,0,
2,7110,Note_off_c,9,43,0,
2,7110,Note_off_c,9,44,0,
2,7110,Note_off_c,9,45,0,
2,7110,Note_off_c,9,46,0,
2,7110,Note_off_c,9,47,0,
2,7110,Note_off_c,9,48,0,
2,7110,Note_off_c,9,49,0,
2,7110,Note_off_c,9,50,0,
2,7110,Note_off_c,9,51,0,
2,7110,Note_off_c,9,56,0,
2,7110,Note_off_c,9,57,0,
2,7110,Note_off_c,9,59,0,
2,7110,Note_off_c,9,60,0,
2,7110,Note_off_c,9,61,0,
2,7110,Note_off_c,9,63,0,
2,7110,Note_off_c,9,68,0,
2,7110,Note_off_c,9,69,0,
2,7110,Note_off_c,9,70,0,
2,7110,Note_off_c,9,76,0,
2,7110,Note_off_c,9,80,0,
2,7110,Note_off_c,9,81,0,
2,7110,Note_off_c,9,82,0,
2,7110,Note_off_c,9,87,0,
2,7110,Note_off_c,9,88,0,
2,7110,Note_off_c,9,89,0,
2,7110,Note_off_c,9,91,0,
2,7110,Note_off_c,9,93,0,
2,7140,Note_off_c,9,35,0,
2,7140,Note_off_c,9,36,0,
2,7140,Note_off_c,9,37,0,
2,7140,Note_off_c,9,38,0,
2,7140,Note_off_c,9,39,0,
2,7140,Note_off_c,9,40,0,
2,7140,Note_off_c,9,41,0,
2,7140,Note_off_c,9,42,0,
2,7140,Note_off_c,9,43,0,
2,7140,Note_off_c,9,44,0,
2,7140,Note_off_c,9,45,0,
2,7140,Note_off_c,9,46,0,
2,7140,Note_off_c,9,47,0,
2,7140,Note_off_c,9,48,0,
2,7140,Note_off_c,9,49,0,
2,7140,Note_off_c,9,50,0,
2,7140,Note_off_c,9,51,0,
2,7140,Note_off_c,9,56,0,
2,7140,Note_off_c,9,57,0,
2,7140,Note_off_c,9,59,0,
2,7140,Note_off_c,9,60,0,
2,7140,Note_off_c,9,61,0,
2,7140,Note_off_c,9,63,0,
2,7140,Note_off_c,9,68,0,
2,7140,Note_off_c,9,69,0,
2,7140,Note_off_c,9,70,0,
2,7140,Note_off_c,9,76,0,
2,7140,Note_off_c,9,80,0,
2,7140,Note_off_c,9,81,0,
2,7140,Note_off_c,9,82,0,
2,7140,Note_off_c,9,87,0,
2,7140,Note_off_c,9,88,0,
2,7140,Note_off_c,9,89,0,
2,7140,Note_off_c,9,91,0,
2,7140,Note_off_c,9,93,0,
2,7170,Note_off_c,9,35,0,
2,7170,Note_off_c,9,36,0,
2,7170,Note_off_c,9,37,0,
2,7170,Note_off_c,9,38,0,
2,7170,Note_off_c,9,39,0,
2,7170,Note_off_c,9,40,0,
2,7170,Note_off_c,9,41,0,
2,7170,Note_off_c,9,42,0,
2,7170,Note_off_c,9,43,0,
2,7170,Note_off_c,9,44,0,
2,7170,Note_off_c,9,45,0,
2,7170,Note_off_c,9,46,0,
2,7170,Note_off_c,9,47,0,
2,7170,Note_off_c,9,48,0,
2,7170,Note_off_c,9,49,0,
2,7170,Note_off_c,9,50,0,
2,7170,Note_off_c,9,51,0,
2,7170,Note_off_c,9,56,0,
2,7170,Note_off_c,9,57,0,
2,7170,Note_off_c,9,59,0,
2,7170,Note_off_c,9,60,0,
2,7170,Note_off_c,9,61,0,
2,7170,Note_off_c,9,63,0,
2,7170,Note_off_c,9,68,0,
2,7170,Note_off_c,9,69,0,
2,7170,Note_off_c,9,70,0,
2,7170,Note_off_c,9,76,0,
2,7170,Note_off_c,9,80,0,
2,7170,Note_off_c,9,81,0,
2,7170,Note_off_c,9,82,0,
2,7170,Note_off_c,9,87,0,
2,7170,Note_off_c,9,88,0,
2,7170,Note_off_c,9,89,0,
2,7170,Note_off_c,9,91,0,
2,7170,Note_off_c,9,93,0,
2,7200,Note_off_c,9,35,0,
2,7200,Note_off_c,9,36,0,
2,7200,Note_off_c,9,37,0,
2,7200,Note_off_c,9,38,0,
2,7200,Note_off_c,9,39,0,
2,7200,Note_off_c,9,40,0,
2,7200,Note_off_c,9,41,0,
2,7200,Note_off_c,9,42,0,
2,7200,Note_off_c,9,43,0,
2,7200,Note_off_c,9,44,0,
2,7200,Note_off_c,9,45,0,
2,7200,Note_off_c,9,46,0,
2,7200,Note_off_c,9,47,0,
2,7200,Note_off_c,9,48,0,
2,7200,Note_off_c,9,49,0,
2,7200,Note_off_c,9,50,0,
2,7200,Note_off_c,9,51,0,
2,7200,Note_off_c,9,56,0,
2,7200,Note_off_c,9,57,0,
2,7200,Note_off_c,9,59,0,
2,7200,Note_off_c,9,60,0,
2,7200,Note_off_c,9,61,0,
2,7200,Note_off_c,9,63,0,
2,7200,Note_off_c,9,68,0,
2,7200,Note_off_c,9,69,0,
2,7200,Note_off_c,9,70,0,
2,7200,Note_off_c,9,76,0,
2,7200,Note_off_c,9,80,0,
2,7200,Note_off_c,9,81,0,
2,7200,Note_off_c,9,82,0,
2,7200,Note_off_c,9,87,0,
2,7200,Note_off_c,9,88,0,
2,7200,Note_off_c,9,89,0,
2,7200,Note_off_c,9,91,0,
2,7200,Note_off_c,9,93,0,
2,7230,Note_off_c,9,35,0,
2,7230,Note_off_c,9,36,0,
2,7230,Note_off_c,9,37,0,
2,7230,Note_off_c,9,38,0,
2,7230,Note_off_c,9,39,0,
2,7230,Note_off_c,9,40,0,
2,7230,Note_off_c,9,41,0,
2,7230,Note_off_c,9,42,0,
2,7230,Note_off_c,9,43,0,
2,7230,Note_off_c,9,44,0,
2,7230,Note_off_c,9,45,0,
2,7230,Note_off_c,9,46,0,
2,7230,Note_off_c,9,47,0,
2,7230,Note_off_c,9,48,0,
2,7230,Note_off_c,9,49,0,
2,7230,Note_off_c,9,50,0,
2,7230,Note_off_c,9,51,0,
2,7230,Note_off_c,9,56,0,
2,7230,Note_off_c,9,57,0,
2,7230,Note_off_c,9,59,0,
2,7230,Note_off_c,9,60,0,
2,7230,Note_off_c,9,61,0,
2,7230,Note_off_c,9,63,0,
2,7230,Note_off_c,9,68,0,
2,7230,Note_off_c,9,69,0,
2,7230,Note_off_c,9,70,0,
2,7230,Note_off_c,9,76,0,
2,7230,Note_off_c,9,80,0,
2,7230,Note_off_c,9,81,0,
2,7230,Note_off_c,9,82,0,
2,7230,Note_off_c,9,87,0,
2,7230,Note_off_c,9,88,0,
2,7230,Note_off_c,9,89,0,
2,7230,Note_off_c,9,91,0,
2,7230,Note_off_c,9,93,0,
2,7260,Note_off_c,9,35,0,
2,7260,Note_off_c,9,36,0,
2,7260,Note_off_c,9,37,0,
2,7260,Note_off_c,9,38,0,
2,7260,Note_off_c,9,39,0,
2,7260,Note_off_c,9,40,0,
2,7260,Note_off_c,9,41,0,
2,7260,Note_off_c,9,42,0,
2,7260,Note_off_c,9,43,0,
2,7260,Note_off_c,9,44,0,
2,7260,Note_off_c,9,45,0,
2,7260,Note_off_c,9,46,0,
2,7260,Note_off_c,9,47,0,
2,7260,Note_off_c,9,48,0,
2,7260,Note_off_c,9,49,0,
2,7260,Note_off_c,9,50,0,
2,7260,Note_off_c,9,51,0,
2,7260,Note_off_c,9,56,0,
2,7260,Note_off_c,9,57,0,
2,7260,Note_off_c,9,59,0,
2,7260,Note_off_c,9,60,0,
2,7260,Note_off_c,9,61,0,
2,7260,Note_off_c,9,63,0,
2,7260,Note_off_c,9,68,0,
2,7260,Note_off_c,9,69,0,
2,7260,Note_off_c,9,70,0,
2,7260,Note_off_c,9,76,0,
2,7260,Note_off_c,9,80,0,
2,7260,Note_off_c,9,81,0,
2,7260,Note_off_c,9,82,0,
2,7260,Note_off_c,9,87,0,
2,7260,Note_off_c,9,88,0,
2,7260,Note_off_c,9,89,0,
2,7260,Note_off_c,9,91,0,
2,7260,Note_off_c,9,93,0,
2,7290,Note_off_c,9,35,0,
2,7290,Note_off_c,9,36,0,
2,7290,Note_off_c,9,37,0,
2,7290,Note_off_c,9,38,0,
2,7290,Note_off_c,9,39,0,
2,7290,Note_off_c,9,40,0,
2,7290,Note_off_c,9,41,0,
2,7290,Note_off_c,9,42,0,
2,7290,Note_off_c,9,43,0,
2,7290,Note_off_c,9,44,0,
2,7290,Note_off_c,9,45,0,
2,7290,Note_off_c,9,46,0,
2,7290,Note_off_c,9,47,0,
2,7290,Note_off_c,9,48,0,
2,7290,Note_off_c,9,49,0,
2,7290,Note_off_c,9,50,0,
2,7290,Note_off_c,9,51,0,
2,7290,Note_off_c,9,56,0,
2,7290,Note_off_c,9,57,0,
2,7290,Note_off_c,9,59,0,
2,7290,Note_off_c,9,60,0,
2,7290,Note_off_c,9,61,0,
2,7290,Note_off_c,9,63,0,
2,7290,Note_off_c,9,68,0,
2,7290,Note_off_c,9,69,0,
2,7290,Note_off_c,9,70,0,
2,7290,Note_off_c,9,76,0,
2,7290,Note_off_c,9,80,0,
2,7290,Note_off_c,9,81,0,
2,7290,Note_off_c,9,82,0,
2,7290,Note_off_c,9,87,0,
2,7290,Note_off_c,9,88,0,
2,7290,Note_off_c,9,89,0,
2,7290,Note_off_c,9,91,0,
2,7290,Note_off_c,9,93,0,
2,7320,Note_off_c,9,35,0,
2,7320,Note_off_c,9,36,0,
2,7320,Note_off_c,9,37,0,
2,7320,Note_off_c,9,38,0,
2,7320,Note_off_c,9,39,0,
2,7320,Note_off_c,9,40,0,
2,7320,Note_off_c,9,41,0,
2,7320,Note_off_c,9,42,0,
2,7320,Note_off_c,9,43,0,
2,7320,Note_off_c,9,44,0,
2,7320,Note_off_c,9,45,0,
2,7320,Note_off_c,9,46,0,
2,7320,Note_off_c,9,47,0,
2,7320,Note_off_c,9,48,0,
2,7320,Note_off_c,9,49,0,
2,7320,Note_off_c,9,50,0,
2,7320,Note_off_c,9,51,0,
2,7320,Note_off_c,9,56,0,
2,7320,Note_off_c,9,57,0,
2,7320,Note_off_c,9,59,0,
2,7320,Note_off_c,9,60,0,
2,7320,Note_off_c,9,61,0,
2,7320,Note_off_c,9,63,0,
2,7320,Note_off_c,9,68,0,
2,7320,Note_off_c,9,69,0,
2,7320,Note_off_c,9,70,0,
2,7320,Note_off_c,9,76,0,
2,7320,Note_off_c,9,80,0,
2,7320,Note_off_c,9,81,0,
2,7320,Note_off_c,9,82,0,
2,7320,Note_off_c,9,87,0,
2,7320,Note_off_c,9,88,0,
2,7320,Note_off_c,9,89,0,
2,7320,Note_off_c,9,91,0,
2,7320,Note_off_c,9,93,0,
2,7350,Note_off_c,9,35,0,
2,7350,Note_off_c,9,36,0,
2,7350,Note_off_c,9,37,0,
2,7350,Note_off_c,9,38,0,
2,7350,Note_off_c,9,39,0,
2,7350,Note_off_c,9,40,0,
2,7350,Note_off_c,9,41,0,
2,7350,Note_off_c,9,42,0,
2,7350,Note_off_c,9,43,0,
2,7350,Note_off_c,9,44,0,
2,7350,Note_off_c,9,45,0,
2,7350,Note_off_c,9,46,0,
2,7350,Note_off_c,9,47,0,
2,7350,Note_off_c,9,48,0,
2,7350,Note_off_c,9,49,0,
2,7350,Note_off_c,9,50,0,
2,7350,Note_off_c,9,51,0,
2,7350,Note_off_c,9,56,0,
2,7350,Note_off_c,9,57,0,
2,7350,Note_off_c,9,59,0,
2,7350,Note_off_c,9,60,0,
2,7350,Note_off_c,9,61,0,
2,7350,Note_off_c,9,63,0,
2,7350,Note_off_c,9,68,0,
2,7350,Note_off_c,9,69,0,
2,7350,Note_off_c,9,70,0,
2,7350,Note_off_c,9,76,0,
2,7350,Note_off_c,9,80,0,
2,7350,Note_off_c,9,81,0,
2,7350,Note_off_c,9,82,0,
2,7350,Note_off_c,9,87,0,
2,7350,Note_off_c,9,88,0,
2,7350,Note_off_c,9,89,0,
2,7350,Note_off_c,9,91,0,
2,7350,Note_off_c,9,93,0,
2,7380,Note_off_c,9,35,0,
2,7380,Note_off_c,9,36,0,
2,7380,Note_off_c,9,37,0,
2,7380,Note_off_c,9,38,0,
2,7380,Note_off_c,9,39,0,
2,7380,Note_off_c,9,40,0,
2,7380,Note_off_c,9,41,0,
2,7380,Note_off_c,9,42,0,
2,7380,Note_off_c,9,43,0,
2,7380,Note_off_c,9,44,0,
2,7380,Note_off_c,9,45,0,
2,7380,Note_off_c,9,46,0,
2,7380,Note_off_c,9,47,0,
2,7380,Note_off_c,9,48,0,
2,7380,Note_off_c,9,49,0,
2,7380,Note_off_c,9,50,0,
2,7380,Note_off_c,9,51,0,
2,7380,Note_off_c,9,56,0,
2,7380,Note_off_c,9,57,0,
2,7380,Note_off_c,9,59,0,
2,7380,Note_off_c,9,60,0,
2,7380,Note_off_c,9,61,0,
2,7380,Note_off_c,9,63,0,
2,7380,Note_off_c,9,68,0,
2,7380,Note_off_c,9,69,0,
2,7380,Note_off_c,9,70,0,
2,7380,Note_off_c,9,76,0,
2,7380,Note_off_c,9,80,0,
2,7380,Note_off_c,9,81,0,
2,7380,Note_off_c,9,82,0,
2,7380,Note_off_c,9,87,0,
2,7380,Note_off_c,9,88,0,
2,7380,Note_off_c,9,89,0,
2,7380,Note_off_c,9,91,0,
2,7380,Note_off_c,9,93,0,
2,7410,Note_off_c,9,35,0,
2,7410,Note_off_c,9,36,0,
2,7410,Note_off_c,9,37,0,
2,7410,Note_off_c,9,38,0,
2,7410,Note_off_c,9,39,0,
2,7410,Note_off_c,9,40,0,
2,7410,Note_off_c,9,41,0,
2,7410,Note_off_c,9,42,0,
2,7410,Note_off_c,9,43,0,
2,7410,Note_off_c,9,44,0,
2,7410,Note_off_c,9,45,0,
2,7410,Note_off_c,9,46,0,
2,7410,Note_off_c,9,47,0,
2,7410,Note_off_c,9,48,0,
2,7410,Note_off_c,9,49,0,
2,7410,Note_off_c,9,50,0,
2,7410,Note_off_c,9,51,0,
2,7410,Note_off_c,9,56,0,
2,7410,Note_off_c,9,57,0,
2,7410,Note_off_c,9,59,0,
2,7410,Note_off_c,9,60,0,
2,7410,Note_off_c,9,61,0,
2,7410,Note_off_c,9,63,0,
2,7410,Note_off_c,9,68,0,
2,7410,Note_off_c,9,69,0,
2,7410,Note_off_c,9,70,0,
2,7410,Note_off_c,9,76,0,
2,7410,Note_off_c,9,80,0,
2,7410,Note_off_c,9,81,0,
2,7410,Note_off_c,9,82,0,
2,7410,Note_off_c,9,87,0,
2,7410,Note_off_c,9,88,0,
2,7410,Note_off_c,9,89,0,
2,7410,Note_off_c,9,91,0,
2,7410,Note_off_c,9,93,0,
2,7440,Note_off_c,9,35,0,
2,7440,Note_off_c,9,36,0,
2,7440,Note_off_c,9,37,0,
2,7440,Note_off_c,9,38,0,
2,7440,Note_off_c,9,39,0,
2,7440,Note_off_c,9,40,0,
2,7440,Note_off_c,9,41,0,
2,7440,Note_off_c,9,42,0,
2,7440,Note_off_c,9,43,0,
2,7440,Note_off_c,9,44,0,
2,7440,Note_off_c,9,45,0,
2,7440,Note_off_c,9,46,0,
2,7440,Note_off_c,9,47,0,
2,7440,Note_off_c,9,48,0,
2,7440,Note_off_c,9,49,0,
2,7440,Note_off_c,9,50,0,
2,7440,Note_off_c,9,51,0,
2,7440,Note_off_c,9,56,0,
2,7440,Note_off_c,9,57,0,
2,7440,Note_off_c,9,59,0,
2,7440,Note_off_c,9,60,0,
2,7440,Note_off_c,9,61,0,
2,7440,Note_off_c,9,63,0,
2,7440,Note_off_c,9,68,0,
2,7440,Note_off_c,9,69,0,
2,7440,Note_off_c,9,70,0,
2,7440,Note_off_c,9,76,0,
2,7440,Note_off_c,9,80,0,
2,7440,Note_off_c,9,81,0,
2,7440,Note_off_c,9,82,0,
2,7440,Note_off_c,9,87,0,
2,7440,Note_off_c,9,88,0,
2,7440,Note_off_c,9,89,0,
2,7440,Note_off_c,9,91,0,
2,7440,Note_off_c,9,93,0,
2,7470,Note_off_c,9,35,0,
2,7470,Note_off_c,9,36,0,
2,7470,Note_off_c,9,37,0,
2,7470,Note_off_c,9,38,0,
2,7470,Note_off_c,9,39,0,
2,7470,Note_off_c,9,40,0,
2,7470,Note_off_c,9,41,0,
2,7470,Note_off_c,9,42,0,
2,7470,Note_off_c,9,43,0,
2,7470,Note_off_c,9,44,0,
2,7470,Note_off_c,9,45,0,
2,7470,Note_off_c,9,46,0,
2,7470,Note_off_c,9,47,0,
2,7470,Note_off_c,9,48,0,
2,7470,Note_off_c,9,49,0,
2,7470,Note_off_c,9,50,0,
2,7470,Note_off_c,9,51,0,
2,7470,Note_off_c,9,56,0,
2,7470,Note_off_c,9,57,0,
2,7470,Note_off_c,9,59,0,
2,7470,Note_off_c,9,60,0,
2,7470,Note_off_c,9,61,0,
2,7470,Note_off_c,9,63,0,
2,7470,Note_off_c,9,68,0,
2,7470,Note_off_c,9,69,0,
2,7470,Note_off_c,9,70,0,
2,7470,Note_off_c,9,76,0,
2,7470,Note_off_c,9,80,0,
2,7470,Note_off_c,9,81,0,
2,7470,Note_off_c,9,82,0,
2,7470,Note_off_c,9,87,0,
2,7470,Note_off_c,9,88,0,
2,7470,Note_off_c,9,89,0,
2,7470,Note_off_c,9,91,0,
2,7470,Note_off_c,9,93,0,
2,7500,Note_off_c,9,35,0,
2,7500,Note_off_c,9,36,0,
2,7500,Note_off_c,9,37,0,
2,7500,Note_off_c,9,38,0,
2,7500,Note_off_c,9,39,0,
2,7500,Note_off_c,9,40,0,
2,7500,Note_off_c,9,41,0,
2,7500,Note_off_c,9,42,0,
2,7500,Note_off_c,9,43,0,
2,7500,Note_off_c,9,44,0,
2,7500,Note_off_c,9,45,0,
2,7500,Note_off_c,9,46,0,
2,7500,Note_off_c,9,47,0,
2,7500,Note_off_c,9,48,0,
2,7500,Note_off_c,9,49,0,
2,7500,Note_off_c,9,50,0,
2,7500,Note_off_c,9,51,0,
2,7500,Note_off_c,9,56,0,
2,7500,Note_off_c,9,57,0,
2,7500,Note_off_c,9,59,0,
2,7500,Note_off_c,9,60,0,
2,7500,Note_off_c,9,61,0,
2,7500,Note_off_c,9,63,0,
2,7500,Note_off_c,9,68,0,
2,7500,Note_off_c,9,69,0,
2,7500,Note_off_c,9,70,0,
2,7500,Note_off_c,9,76,0,
2,7500,Note_off_c,9,80,0,
2,7500,Note_off_c,9,81,0,
2,7500,Note_off_c,9,82,0,
2,7500,Note_off_c,9,87,0,
2,7500,Note_off_c,9,88,0,
2,7500,Note_off_c,9,89,0,
2,7500,Note_off_c,9,91,0,
2,7500,Note_off_c,9,93,0,
2,7530,Note_off_c,9,35,0,
2,7530,Note_off_c,9,36,0,
2,7530,Note_off_c,9,37,0,
2,7530,Note_off_c,9,38,0,
2,7530,Note_off_c,9,39,0,
2,7530,Note_off_c,9,40,0,
2,7530,Note_off_c,9,41,0,
2,7530,Note_off_c,9,42,0,
2,7530,Note_off_c,9,43,0,
2,7530,Note_off_c,9,44,0,
2,7530,Note_off_c,9,45,0,
2,7530,Note_off_c,9,46,0,
2,7530,Note_off_c,9,47,0,
2,7530,Note_off_c,9,48,0,
2,7530,Note_off_c,9,49,0,
2,7530,Note_off_c,9,50,0,
2,7530,Note_off_c,9,51,0,
2,7530,Note_off_c,9,56,0,
2,7530,Note_off_c,9,57,0,
2,7530,Note_off_c,9,59,0,
2,7530,Note_off_c,9,60,0,
2,7530,Note_off_c,9,61,0,
2,7530,Note_off_c,9,63,0,
2,7530,Note_off_c,9,68,0,
2,7530,Note_off_c,9,69,0,
2,7530,Note_off_c,9,70,0,
2,7530,Note_off_c,9,76,0,
2,7530,Note_off_c,9,80,0,
2,7530,Note_off_c,9,81,0,
2,7530,Note_off_c,9,82,0,
2,7530,Note_off_c,9,87,0,
2,7530,Note_off_c,9,88,0,
2,7530,Note_off_c,9,89,0,
2,7530,Note_off_c,9,91,0,
2,7530,Note_off_c,9,93,0,
2,7560,Note_off_c,9,35,0,
2,7560,Note_off_c,9,36,0,
2,7560,Note_off_c,9,37,0,
2,7560,Note_off_c,9,38,0,
2,7560,Note_off_c,9,39,0,
2,7560,Note_off_c,9,40,0,
2,7560,Note_off_c,9,41,0,
2,7560,Note_off_c,9,42,0,
2,7560,Note_off_c,9,43,0,
2,7560,Note_off_c,9,44,0,
2,7560,Note_off_c,9,45,0,
2,7560,Note_off_c,9,46,0,
2,7560,Note_off_c,9,47,0,
2,7560,Note_off_c,9,48,0,
2,7560,Note_off_c,9,49,0,
2,7560,Note_off_c,9,50,0,
2,7560,Note_off_c,9,51,0,
2,7560,Note_off_c,9,56,0,
2,7560,Note_off_c,9,57,0,
2,7560,Note_off_c,9,59,0,
2,7560,Note_off_c,9,60,0,
2,7560,Note_off_c,9,61,0,
2,7560,Note_off_c,9,63,0,
2,7560,Note_off_c,9,68,0,
2,7560,Note_off_c,9,69,0,
2,7560,Note_off_c,9,70,0,
2,7560,Note_off_c,9,76,0,
2,7560,Note_off_c,9,80,0,
2,7560,Note_off_c,9,81,0,
2,7560,Note_off_c,9,82,0,
2,7560,Note_off_c,9,87,0,
2,7560,Note_off_c,9,88,0,
2,7560,Note_off_c,9,89,0,
2,7560,Note_off_c,9,91,0,
2,7560,Note_off_c,9,93,0,
2,7590,Note_off_c,9,35,0,
2,7590,Note_off_c,9,36,0,
2,7590,Note_off_c,9,37,0,
2,7590,Note_off_c,9,38,0,
2,7590,Note_off_c,9,39,0,
2,7590,Note_off_c,9,40,0,
2,7590,Note_off_c,9,41,0,
2,7590,Note_off_c,9,42,0,
2,7590,Note_off_c,9,43,0,
2,7590,Note_off_c,9,44,0,
2,7590,Note_off_c,9,45,0,
2,7590,Note_off_c,9,46,0,
2,7590,Note_off_c,9,47,0,
2,7590,Note_off_c,9,48,0,
2,7590,Note_off_c,9,49,0,
2,7590,Note_off_c,9,50,0,
2,7590,Note_off_c,9,51,0,
2,7590,Note_off_c,9,56,0,
2,7590,Note_off_c,9,57,0,
2,7590,Note_off_c,9,59,0,
2,7590,Note_off_c,9,60,0,
2,7590,Note_off_c,9,61,0,
2,7590,Note_off_c,9,63,0,
2,7590,Note_off_c,9,68,0,
2,7590,Note_off_c,9,69,0,
2,7590,Note_off_c,9,70,0,
2,7590,Note_off_c,9,76,0,
2,7590,Note_off_c,9,80,0,
2,7590,Note_off_c,9,81,0,
2,7590,Note_off_c,9,82,0,
2,7590,Note_off_c,9,87,0,
2,7590,Note_off_c,9,88,0,
2,7590,Note_off_c,9,89,0,
2,7590,Note_off_c,9,91,0,
2,7590,Note_off_c,9,93,0,
2,7620,Note_off_c,9,35,0,
2,7620,Note_off_c,9,36,0,
2,7620,Note_off_c,9,37,0,
2,7620,Note_off_c,9,38,0,
2,7620,Note_off_c,9,39,0,
2,7620,Note_off_c,9,40,0,
2,7620,Note_off_c,9,41,0,
2,7620,Note_off_c,9,42,0,
2,7620,Note_off_c,9,43,0,
2,7620,Note_off_c,9,44,0,
2,7620,Note_off_c,9,45,0,
2,7620,Note_off_c,9,46,0,
2,7620,Note_off_c,9,47,0,
2,7620,Note_off_c,9,48,0,
2,7620,Note_off_c,9,49,0,
2,7620,Note_off_c,9,50,0,
2,7620,Note_off_c,9,51,0,
2,7620,Note_off_c,9,56,0,
2,7620,Note_off_c,9,57,0,
2,7620,Note_off_c,9,59,0,
2,7620,Note_off_c,9,60,0,
2,7620,Note_off_c,9,61,0,
2,7620,Note_off_c,9,63,0,
2,7620,Note_off_c,9,68,0,
2,7620,Note_off_c,9,69,0,
2,7620,Note_off_c,9,70,0,
2,7620,Note_off_c,9,76,0,
2,7620,Note_off_c,9,80,0,
2,7620,Note_off_c,9,81,0,
2,7620,Note_off_c,9,82,0,
2,7620,Note_off_c,9,87,0,
2,7620,Note_off_c,9,88,0,
2,7620,Note_off_c,9,89,0,
2,7620,Note_off_c,9,91,0,
2,7620,Note_off_c,9,93,0,
2,7650,Note_off_c,9,35,0,
2,7650,Note_off_c,9,36,0,
2,7650,Note_off_c,9,37,0,
2,7650,Note_off_c,9,38,0,
2,7650,Note_off_c,9,39,0,
2,7650,Note_off_c,9,40,0,
2,7650,Note_off_c,9,41,0,
2,7650,Note_off_c,9,42,0,
2,7650,Note_off_c,9,43,0,
2,7650,Note_off_c,9,44,0,
2,7650,Note_off_c,9,45,0,
2,7650,Note_off_c,9,46,0,
2,7650,Note_off_c,9,47,0,
2,7650,Note_off_c,9,48,0,
2,7650,Note_off_c,9,49,0,
2,7650,Note_off_c,9,50,0,
2,7650,Note_off_c,9,51,0,
2,7650,Note_off_c,9,56,0,
2,7650,Note_off_c,9,57,0,
2,7650,Note_off_c,9,59,0,
2,7650,Note_off_c,9,60,0,
2,7650,Note_off_c,9,61,0,
2,7650,Note_off_c,9,63,0,
2,7650,Note_off_c,9,68,0,
2,7650,Note_off_c,9,69,0,
2,7650,Note_off_c,9,70,0,
2,7650,Note_off_c,9,76,0,
2,7650,Note_off_c,9,80,0,
2,7650,Note_off_c,9,81,0,
2,7650,Note_off_c,9,82,0,
2,7650,Note_off_c,9,87,0,
2,7650,Note_off_c,9,88,0,
2,7650,Note_off_c,9,89,0,
2,7650,Note_off_c,9,91,0,
2,7650,Note_off_c,9,93,0,
2,7680,Note_off_c,9,35,0,
2,7680,Note_off_c,9,36,0,
2,7680,Note_off_c,9,37,0,
2,7680,Note_off_c,9,38,0,
2,7680,Note_off_c,9,39,0,
2,7680,Note_off_c,9,40,0,
2,7680,Note_off_c,9,41,0,
2,7680,Note_off_c,9,42,0,
2,7680,Note_off_c,9,43,0,
2,7680,Note_off_c,9,44,0,
2,7680,Note_off_c,9,45,0,
2,7680,Note_off_c,9,46,0,
2,7680,Note_off_c,9,47,0,
2,7680,Note_off_c,9,48,0,
2,7680,Note_off_c,9,49,0,
2,7680,Note_off_c,9,50,0,
2,7680,Note_off_c,9,51,0,
2,7680,Note_off_c,9,56,0,
2,7680,Note_off_c,9,57,0,
2,7680,Note_off_c,9,59,0,
2,7680,Note_off_c,9,60,0,
2,7680,Note_off_c,9,61,0,
2,7680,Note_off_c,9,63,0,
2,7680,Note_off_c,9,68,0,
2,7680,Note_off_c,9,69,0,
2,7680,Note_off_c,9,70,0,
2,7680,Note_off_c,9,76,0,
2,7680,Note_off_c,9,80,0,
2,7680,Note_off_c,9,81,0,
2,7680,Note_off_c,9,82,0,
2,7680,Note_off_c,9,87,0,
2,7680,Note_off_c,9,88,0,
2,7680,Note_off_c,9,89,0,
2,7680,Note_off_c,9,91,0,
2,7680,Note_off_c,9,93,0,
2,7710,Note_off_c,9,35,0,
2,7710,Note_off_c,9,36,0,
2,7710,Note_off_c,9,37,0,
2,7710,Note_off_c,9,38,0,
2,7710,Note_off_c,9,39,0,
2,7710,Note_off_c,9,40,0,
2,7710,Note_off_c,9,41,0,
2,7710,Note_off_c,9,42,0,
2,7710,Note_off_c,9,43,0,
2,7710,Note_off_c,9,44,0,
2,7710,Note_off_c,9,45,0,
2,7710,Note_off_c,9,46,0,
2,7710,Note_off_c,9,47,0,
2,7710,Note_off_c,9,48,0,
2,7710,Note_off_c,9,49,0,
2,7710,Note_off_c,9,50,0,
2,7710,Note_off_c,9,51,0,
2,7710,Note_off_c,9,56,0,
2,7710,Note_off_c,9,57,0,
2,7710,Note_off_c,9,59,0,
2,7710,Note_off_c,9,60,0,
2,7710,Note_off_c,9,61,0,
2,7710,Note_off_c,9,63,0,
2,7710,Note_off_c,9,68,0,
2,7710,Note_off_c,9,69,0,
2,7710,Note_off_c,9,70,0,
2,7710,Note_off_c,9,76,0,
2,7710,Note_off_c,9,80,0,
2,7710,Note_off_c,9,81,0,
2,7710,Note_off_c,9,82,0,
2,7710,Note_off_c,9,87,0,
2,7710,Note_off_c,9,88,0,
2,7710,Note_off_c,9,89,0,
2,7710,Note_off_c,9,91,0,
2,7710,Note_off_c,9,93,0,
2,7740,Note_off_c,9,35,0,
2,7740,Note_off_c,9,36,0,
2,7740,Note_off_c,9,37,0,
2,7740,Note_off_c,9,38,0,
2,7740,Note_off_c,9,39,0,
2,7740,Note_off_c,9,40,0,
2,7740,Note_off_c,9,41,0,
2,7740,Note_off_c,9,42,0,
2,7740,Note_off_c,9,43,0,
2,7740,Note_off_c,9,44,0,
2,7740,Note_off_c,9,45,0,
2,7740,Note_off_c,9,46,0,
2,7740,Note_off_c,9,47,0,
2,7740,Note_off_c,9,48,0,
2,7740,Note_off_c,9,49,0,
2,7740,Note_off_c,9,50,0,
2,7740,Note_off_c,9,51,0,
2,7740,Note_off_c,9,56,0,
2,7740,Note_off_c,9,57,0,
2,7740,Note_off_c,9,59,0,
2,7740,Note_off_c,9,60,0,
2,7740,Note_off_c,9,61,0,
2,7740,Note_off_c,9,63,0,
2,7740,Note_off_c,9,68,0,
2,7740,Note_off_c,9,69,0,
2,7740,Note_off_c,9,70,0,
2,7740,Note_off_c,9,76,0,
2,7740,Note_off_c,9,80,0,
2,7740,Note_off_c,9,81,0,
2,7740,Note_off_c,9,82,0,
2,7740,Note_off_c,9,87,0,
2,7740,Note_off_c,9,88,0,
2,7740,Note_off_c,9,89,0,
2,7740,Note_off_c,9,91,0,
2,7740,Note_off_c,9,93,0,
2,7770,Note_off_c,9,35,0,
2,7770,Note_off_c,9,36,0,
2,7770,Note_off_c,9,37,0,
2,7770,Note_off_c,9,38,0,
2,7770,Note_off_c,9,39,0,
2,7770,Note_off_c,9,40,0,
2,7770,Note_off_c,9,41,0,
2,7770,Note_off_c,9,42,0,
2,7770,Note_off_c,9,43,0,
2,7770,Note_off_c,9,44,0,
2,7770,Note_off_c,9,45,0,
2,7770,Note_off_c,9,46,0,
2,7770,Note_off_c,9,47,0,
2,7770,Note_off_c,9,48,0,
2,7770,Note_off_c,9,49,0,
2,7770,Note_off_c,9,50,0,
2,7770,Note_off_c,9,51,0,
2,7770,Note_off_c,9,56,0,
2,7770,Note_off_c,9,57,0,
2,7770,Note_off_c,9,59,0,
2,7770,Note_off_c,9,60,0,
2,7770,Note_off_c,9,61,0,
2,7770,Note_off_c,9,63,0,
2,7770,Note_off_c,9,68,0,
2,7770,Note_off_c,9,69,0,
2,7770,Note_off_c,9,70,0,
2,7770,Note_off_c,9,76,0,
2,7770,Note_off_c,9,80,0,
2,7770,Note_off_c,9,81,0,
2,7770,Note_off_c,9,82,0,
2,7770,Note_off_c,9,87,0,
2,7770,Note_off_c,9,88,0,
2,7770,Note_off_c,9,89,0,
2,7770,Note_off_c,9,91,0,
2,7770,Note_off_c,9,93,0,
2,7800,Note_off_c,9,35,0,
2,7800,Note_off_c,9,36,0,
2,7800,Note_off_c,9,37,0,
2,7800,Note_off_c,9,38,0,
2,7800,Note_off_c,9,39,0,
2,7800,Note_off_c,9,40,0,
2,7800,Note_off_c,9,41,0,
2,7800,Note_off_c,9,42,0,
2,7800,Note_off_c,9,43,0,
2,7800,Note_off_c,9,44,0,
2,7800,Note_off_c,9,45,0,
2,7800,Note_off_c,9,46,0,
2,7800,Note_off_c,9,47,0,
2,7800,Note_off_c,9,48,0,
2,7800,Note_off_c,9,49,0,
2,7800,Note_off_c,9,50,0,
2,7800,Note_off_c,9,51,0,
2,7800,Note_off_c,9,56,0,
2,7800,Note_off_c,9,57,0,
2,7800,Note_off_c,9,59,0,
2,7800,Note_off_c,9,60,0,
2,7800,Note_off_c,9,61,0,
2,7800,Note_off_c,9,63,0,
2,7800,Note_off_c,9,68,0,
2,7800,Note_off_c,9,69,0,
2,7800,Note_off_c,9,70,0,
2,7800,Note_off_c,9,76,0,
2,7800,Note_off_c,9,80,0,
2,7800,Note_off_c,9,81,0,
2,7800,Note_off_c,9,82,0,
2,7800,Note_off_c,9,87,0,
2,7800,Note_off_c,9,88,0,
2,7800,Note_off_c,9,89,0,
2,7800,Note_off_c,9,91,0,
2,7800,Note_off_c,9,93,0,
2,7830,Note_off_c,9,35,0,
2,7830,Note_off_c,9,36,0,
2,7830,Note_off_c,9,37,0,
2,7830,Note_off_c,9,38,0,
2,7830,Note_off_c,9,39,0,
2,7830,Note_off_c,9,40,0,
2,7830,Note_off_c,9,41,0,
2,7830,Note_off_c,9,42,0,
2,7830,Note_off_c,9,43,0,
2,7830,Note_off_c,9,44,0,
2,7830,Note_off_c,9,45,0,
2,7830,Note_off_c,9,46,0,
2,7830,Note_off_c,9,47,0,
2,7830,Note_off_c,9,48,0,
2,7830,Note_off_c,9,49,0,
2,7830,Note_off_c,9,50,0,
2,7830,Note_off_c,9,51,0,
2,7830,Note_off_c,9,56,0,
2,7830,Note_off_c,9,57,0,
2,7830,Note_off_c,9,59,0,
2,7830,Note_off_c,9,60,0,
2,7830,Note_off_c,9,61,0,
2,7830,Note_off_c,9,63,0,
2,7830,Note_off_c,9,68,0,
2,7830,Note_off_c,9,69,0,
2,7830,Note_off_c,9,70,0,
2,7830,Note_off_c,9,76,0,
2,7830,Note_off_c,9,80,0,
2,7830,Note_off_c,9,81,0,
2,7830,Note_off_c,9,82,0,
2,7830,Note_off_c,9,87,0,
2,7830,Note_off_c,9,88,0,
2,7830,Note_off_c,9,89,0,
2,7830,Note_off_c,9,91,0,
2,7830,Note_off_c,9,93,0,
2,7860,Note_off_c,9,35,0,
2,7860,Note_off_c,9,36,0,
2,7860,Note_off_c,9,37,0,
2,7860,Note_off_c,9,38,0,
2,7860,Note_off_c,9,39,0,
2,7860,Note_off_c,9,40,0,
2,7860,Note_off_c,9,41,0,
2,7860,Note_off_c,9,42,0,
2,7860,Note_off_c,9,43,0,
2,7860,Note_off_c,9,44,0,
2,7860,Note_off_c,9,45,0,
2,7860,Note_off_c,9,46,0,
2,7860,Note_off_c,9,47,0,
2,7860,Note_off_c,9,48,0,
2,7860,Note_off_c,9,49,0,
2,7860,Note_off_c,9,50,0,
2,7860,Note_off_c,9,51,0,
2,7860,Note_off_c,9,56,0,
2,7860,Note_off_c,9,57,0,
2,7860,Note_off_c,9,59,0,
2,7860,Note_off_c,9,60,0,
2,7860,Note_off_c,9,61,0,
2,7860,Note_off_c,9,63,0,
2,7860,Note_off_c,9,68,0,
2,7860,Note_off_c,9,69,0,
2,7860,Note_off_c,9,70,0,
2,7860,Note_off_c,9,76,0,
2,7860,Note_off_c,9,80,0,
2,7860,Note_off_c,9,81,0,
2,7860,Note_off_c,9,82,0,
2,7860,Note_off_c,9,87,0,
2,7860,Note_off_c,9,88,0,
2,7860,Note_off_c,9,89,0,
2,7860,Note_off_c,9,91,0,
2,7860,Note_off_c,9,93,0,
2,7890,Note_off_c,9,35,0,
2,7890,Note_off_c,9,36,0,
2,7890,Note_off_c,9,37,0,
2,7890,Note_off_c,9,38,0,
2,7890,Note_off_c,9,39,0,
2,7890,Note_off_c,9,40,0,
2,7890,Note_off_c,9,41,0,
2,7890,Note_off_c,9,42,0,
2,7890,Note_off_c,9,43,0,
2,7890,Note_off_c,9,44,0,
2,7890,Note_off_c,9,45,0,
2,7890,Note_off_c,9,46,0,
2,7890,Note_off_c,9,47,0,
2,7890,Note_off_c,9,48,0,
2,7890,Note_off_c,9,49,0,
2,7890,Note_off_c,9,50,0,
2,7890,Note_off_c,9,51,0,
2,7890,Note_off_c,9,56,0,
2,7890,Note_off_c,9,57,0,
2,7890,Note_off_c,9,59,0,
2,7890,Note_off_c,9,60,0,
2,7890,Note_off_c,9,61,0,
2,7890,Note_off_c,9,63,0,
2,7890,Note_off_c,9,68,0,
2,7890,Note_off_c,9,69,0,
2,7890,Note_off_c,9,70,0,
2,7890,Note_off_c,9,76,0,
2,7890,Note_off_c,9,80,0,
2,7890,Note_off_c,9,81,0,
2,7890,Note_off_c,9,82,0,
2,7890,Note_off_c,9,87,0,
2,7890,Note_off_c,9,88,0,
2,7890,Note_off_c,9,89,0,
2,7890,Note_off_c,9,91,0,
2,7890,Note_off_c,9,93,0,
2,7920,Note_off_c,9,35,0,
2,7920,Note_off_c,9,36,0,
2,7920,Note_off_c,9,37,0,
2,7920,Note_off_c,9,38,0,
2,7920,Note_off_c,9,39,0,
2,7920,Note_off_c,9,40,0,
2,7920,Note_off_c,9,41,0,
2,7920,Note_off_c,9,42,0,
2,7920,Note_off_c,9,43,0,
2,7920,Note_off_c,9,44,0,
2,7920,Note_off_c,9,45,0,
2,7920,Note_off_c,9,46,0,
2,7920,Note_off_c,9,47,0,
2,7920,Note_off_c,9,48,0,
2,7920,Note_off_c,9,49,0,
2,7920,Note_off_c,9,50,0,
2,7920,Note_off_c,9,51,0,
2,7920,Note_off_c,9,56,0,
2,7920,Note_off_c,9,57,0,
2,7920,Note_off_c,9,59,0,
2,7920,Note_off_c,9,60,0,
2,7920,Note_off_c,9,61,0,
2,7920,Note_off_c,9,63,0,
2,7920,Note_off_c,9,68,0,
2,7920,Note_off_c,9,69,0,
2,7920,Note_off_c,9,70,0,
2,7920,Note_off_c,9,76,0,
2,7920,Note_off_c,9,80,0,
2,7920,Note_off_c,9,81,0,
2,7920,Note_off_c,9,82,0,
2,7920,Note_off_c,9,87,0,
2,7920,Note_off_c,9,88,0,
2,7920,Note_off_c,9,89,0,
2,7920,Note_off_c,9,91,0,
2,7920,Note_off_c,9,93,0,
2,7950,Note_off_c,9,35,0,
2,7950,Note_off_c,9,36,0,
2,7950,Note_off_c,9,37,0,
2,7950,Note_off_c,9,38,0,
2,7950,Note_off_c,9,39,0,
2,7950,Note_off_c,9,40,0,
2,7950,Note_off_c,9,41,0,
2,7950,Note_off_c,9,42,0,
2,7950,Note_off_c,9,43,0,
2,7950,Note_off_c,9,44,0,
2,7950,Note_off_c,9,45,0,
2,7950,Note_off_c,9,46,0,
2,7950,Note_off_c,9,47,0,
2,7950,Note_off_c,9,48,0,
2,7950,Note_off_c,9,49,0,
2,7950,Note_off_c,9,50,0,
2,7950,Note_off_c,9,51,0,
2,7950,Note_off_c,9,56,0,
2,7950,Note_off_c,9,57,0,
2,7950,Note_off_c,9,59,0,
2,7950,Note_off_c,9,60,0,
2,7950,Note_off_c,9,61,0,
2,7950,Note_off_c,9,63,0,
2,7950,Note_off_c,9,68,0,
2,7950,Note_off_c,9,69,0,
2,7950,Note_off_c,9,70,0,
2,7950,Note_off_c,9,76,0,
2,7950,Note_off_c,9,80,0,
2,7950,Note_off_c,9,81,0,
2,7950,Note_off_c,9,82,0,
2,7950,Note_off_c,9,87,0,
2,7950,Note_off_c,9,88,0,
2,7950,Note_off_c,9,89,0,
2,7950,Note_off_c,9,91,0,
2,7950,Note_off_c,9,93,0,
2,7980,Note_off_c,9,35,0,
2,7980,Note_off_c,9,36,0,
2,7980,Note_off_c,9,37,0,
2,7980,Note_off_c,9,38,0,
2,7980,Note_off_c,9,39,0,
2,7980,Note_off_c,9,40,0,
2,7980,Note_off_c,9,41,0,
2,7980,Note_off_c,9,42,0,
2,7980,Note_off_c,9,43,0,
2,7980,Note_off_c,9,44,0,
2,7980,Note_off_c,9,45,0,
2,7980,Note_off_c,9,46,0,
2,7980,Note_off_c,9,47,0,
2,7980,Note_off_c,9,48,0,
2,7980,Note_off_c,9,49,0,
2,7980,Note_off_c,9,50,0,
2,7980,Note_off_c,9,51,0,
2,7980,Note_off_c,9,56,0,
2,7980,Note_off_c,9,57,0,
2,7980,Note_off_c,9,59,0,
2,7980,Note_off_c,9,60,0,
2,7980,Note_off_c,9,61,0,
2,7980,Note_off_c,9,63,0,
2,7980,Note_off_c,9,68,0,
2,7980,Note_off_c,9,69,0,
2,7980,Note_off_c,9,70,0,
2,7980,Note_off_c,9,76,0,
2,7980,Note_off_c,9,80,0,
2,7980,Note_off_c,9,81,0,
2,7980,Note_off_c,9,82,0,
2,7980,Note_off_c,9,87,0,
2,7980,Note_off_c,9,88,0,
2,7980,Note_off_c,9,89,0,
2,7980,Note_off_c,9,91,0,
2,7980,Note_off_c,9,93,0,
2,8010,Note_off_c,9,35,0,
2,8010,Note_off_c,9,36,0,
2,8010,Note_off_c,9,37,0,
2,8010,Note_off_c,9,38,0,
2,8010,Note_off_c,9,39,0,
2,8010,Note_off_c,9,40,0,
2,8010,Note_off_c,9,41,0,
2,8010,Note_off_c,9,42,0,
2,8010,Note_off_c,9,43,0,
2,8010,Note_off_c,9,44,0,
2,8010,Note_off_c,9,45,0,
2,8010,Note_off_c,9,46,0,
2,8010,Note_off_c,9,47,0,
2,8010,Note_off_c,9,48,0,
2,8010,Note_off_c,9,49,0,
2,8010,Note_off_c,9,50,0,
2,8010,Note_off_c,9,51,0,
2,8010,Note_off_c,9,56,0,
2,8010,Note_off_c,9,57,0,
2,8010,Note_off_c,9,59,0,
2,8010,Note_off_c,9,60,0,
2,8010,Note_off_c,9,61,0,
2,8010,Note_off_c,9,63,0,
2,8010,Note_off_c,9,68,0,
2,8010,Note_off_c,9,69,0,
2,8010,Note_off_c,9,70,0,
2,8010,Note_off_c,9,76,0,
2,8010,Note_off_c,9,80,0,
2,8010,Note_off_c,9,81,0,
2,8010,Note_off_c,9,82,0,
2,8010,Note_off_c,9,87,0,
2,8010,Note_off_c,9,88,0,
2,8010,Note_off_c,9,89,0,
2,8010,Note_off_c,9,91,0,
2,8010,Note_off_c,9,93,0,
2,8040,Note_off_c,9,35,0,
2,8040,Note_off_c,9,36,0,
2,8040,Note_off_c,9,37,0,
2,8040,Note_off_c,9,38,0,
2,8040,Note_off_c,9,39,0,
2,8040,Note_off_c,9,40,0,
2,8040,Note_off_c,9,41,0,
2,8040,Note_off_c,9,42,0,
2,8040,Note_off_c,9,43,0,
2,8040,Note_off_c,9,44,0,
2,8040,Note_off_c,9,45,0,
2,8040,Note_off_c,9,46,0,
2,8040,Note_off_c,9,47,0,
2,8040,Note_off_c,9,48,0,
2,8040,Note_off_c,9,49,0,
2,8040,Note_off_c,9,50,0,
2,8040,Note_off_c,9,51,0,
2,8040,Note_off_c,9,56,0,
2,8040,Note_off_c,9,57,0,
2,8040,Note_off_c,9,59,0,
2,8040,Note_off_c,9,60,0,
2,8040,Note_off_c,9,61,0,
2,8040,Note_off_c,9,63,0,
2,8040,Note_off_c,9,68,0,
2,8040,Note_off_c,9,69,0,
2,8040,Note_off_c,9,70,0,
2,8040,Note_off_c,9,76,0,
2,8040,Note_off_c,9,80,0,
2,8040,Note_off_c,9,81,0,
2,8040,Note_off_c,9,82,0,
2,8040,Note_off_c,9,87,0,
2,8040,Note_off_c,9,88,0,
2,8040,Note_off_c,9,89,0,
2,8040,Note_off_c,9,91,0,
2,8040,Note_off_c,9,93,0,
2,8070,Note_off_c,9,35,0,
2,8070,Note_off_c,9,36,0,
2,8070,Note_off_c,9,37,0,
2,8070,Note_off_c,9,38,0,
2,8070,Note_off_c,9,39,0,
2,8070,Note_off_c,9,40,0,
2,8070,Note_off_c,9,41,0,
2,8070,Note_off_c,9,42,0,
2,8070,Note_off_c,9,43,0,
2,8070,Note_off_c,9,44,0,
2,8070,Note_off_c,9,45,0,
2,8070,Note_off_c,9,46,0,
2,8070,Note_off_c,9,47,0,
2,8070,Note_off_c,9,48,0,
2,8070,Note_off_c,9,49,0,
2,8070,Note_off_c,9,50,0,
2,8070,Note_off_c,9,51,0,
2,8070,Note_off_c,9,56,0,
2,8070,Note_off_c,9,57,0,
2,8070,Note_off_c,9,59,0,
2,8070,Note_off_c,9,60,0,
2,8070,Note_off_c,9,61,0,
2,8070,Note_off_c,9,63,0,
2,8070,Note_off_c,9,68,0,
2,8070,Note_off_c,9,69,0,
2,8070,Note_off_c,9,70,0,
2,8070,Note_off_c,9,76,0,
2,8070,Note_off_c,9,80,0,
2,8070,Note_off_c,9,81,0,
2,8070,Note_off_c,9,82,0,
2,8070,Note_off_c,9,87,0,
2,8070,Note_off_c,9,88,0,
2,8070,Note_off_c,9,89,0,
2,8070,Note_off_c,9,91,0,
2,8070,Note_off_c,9,93,0,
2,8100,Note_off_c,9,35,0,
2,8100,Note_off_c,9,36,0,
2,8100,Note_off_c,9,37,0,
2,8100,Note_off_c,9,38,0,
2,8100,Note_off_c,9,39,0,
2,8100,Note_off_c,9,40,0,
2,8100,Note_off_c,9,41,0,
2,8100,Note_off_c,9,42,0,
2,8100,Note_off_c,9,43,0,
2,8100,Note_off_c,9,44,0,
2,8100,Note_off_c,9,45,0,
2,8100,Note_off_c,9,46,0,
2,8100,Note_off_c,9,47,0,
2,8100,Note_off_c,9,48,0,
2,8100,Note_off_c,9,49,0,
2,8100,Note_off_c,9,50,0,
2,8100,Note_off_c,9,51,0,
2,8100,Note_off_c,9,56,0,
2,8100,Note_off_c,9,57,0,
2,8100,Note_off_c,9,59,0,
2,8100,Note_off_c,9,60,0,
2,8100,Note_off_c,9,61,0,
2,8100,Note_off_c,9,63,0,
2,8100,Note_off_c,9,68,0,
2,8100,Note_off_c,9,69,0,
2,8100,Note_off_c,9,70,0,
2,8100,Note_off_c,9,76,0,
2,8100,Note_off_c,9,80,0,
2,8100,Note_off_c,9,81,0,
2,8100,Note_off_c,9,82,0,
2,8100,Note_off_c,9,87,0,
2,8100,Note_off_c,9,88,0,
2,8100,Note_off_c,9,89,0,
2,8100,Note_off_c,9,91,0,
2,8100,Note_off_c,9,93,0,
2,8130,Note_off_c,9,35,0,
2,8130,Note_off_c,9,36,0,
2,8130,Note_off_c,9,37,0,
2,8130,Note_off_c,9,38,0,
2,8130,Note_off_c,9,39,0,
2,8130,Note_off_c,9,40,0,
2,8130,Note_off_c,9,41,0,
2,8130,Note_off_c,9,42,0,
2,8130,Note_off_c,9,43,0,
2,8130,Note_off_c,9,44,0,
2,8130,Note_off_c,9,45,0,
2,8130,Note_off_c,9,46,0,
2,8130,Note_off_c,9,47,0,
2,8130,Note_off_c,9,48,0,
2,8130,Note_off_c,9,49,0,
2,8130,Note_off_c,9,50,0,
2,8130,Note_off_c,9,51,0,
2,8130,Note_off_c,9,56,0,
2,8130,Note_off_c,9,57,0,
2,8130,Note_off_c,9,59,0,
2,8130,Note_off_c,9,60,0,
2,8130,Note_off_c,9,61,0,
2,8130,Note_off_c,9,63,0,
2,8130,Note_off_c,9,68,0,
2,8130,Note_off_c,9,69,0,
2,8130,Note_off_c,9,70,0,
2,8130,Note_off_c,9,76,0,
2,8130,Note_off_c,9,80,0,
2,8130,Note_off_c,9,81,0,
2,8130,Note_off_c,9,82,0,
2,8130,Note_off_c,9,87,0,
2,8130,Note_off_c,9,88,0,
2,8130,Note_off_c,9,89,0,
2,8130,Note_off_c,9,91,0,
2,8130,Note_off_c,9,93,0,
2,8160,Note_off_c,9,35,0,
2,8160,Note_off_c,9,36,0,
2,8160,Note_off_c,9,37,0,
2,8160,Note_off_c,9,38,0,
2,8160,Note_off_c,9,39,0,
2,8160,Note_off_c,9,40,0,
2,8160,Note_off_c,9,41,0,
2,8160,Note_off_c,9,42,0,
2,8160,Note_off_c,9,43,0,
2,8160,Note_off_c,9,44,0,
2,8160,Note_off_c,9,45,0,
2,8160,Note_off_c,9,46,0,
2,8160,Note_off_c,9,47,0,
2,8160,Note_off_c,9,48,0,
2,8160,Note_off_c,9,49,0,
2,8160,Note_off_c,9,50,0,
2,8160,Note_off_c,9,51,0,
2,8160,Note_off_c,9,56,0,
2,8160,Note_off_c,9,57,0,
2,8160,Note_off_c,9,59,0,
2,8160,Note_off_c,9,60,0,
2,8160,Note_off_c,9,61,0,
2,8160,Note_off_c,9,63,0,
2,8160,Note_off_c,9,68,0,
2,8160,Note_off_c,9,69,0,
2,8160,Note_off_c,9,70,0,
2,8160,Note_off_c,9,76,0,
2,8160,Note_off_c,9,80,0,
2,8160,Note_off_c,9,81,0,
2,8160,Note_off_c,9,82,0,
2,8160,Note_off_c,9,87,0,
2,8160,Note_off_c,9,88,0,
2,8160,Note_off_c,9,89,0,
2,8160,Note_off_c,9,91,0,
2,8160,Note_off_c,9,93,0,
2,8190,Note_off_c,9,35,0,
2,8190,Note_off_c,9,36,0,
2,8190,Note_off_c,9,37,0,
2,8190,Note_off_c,9,38,0,
2,8190,Note_off_c,9,39,0,
2,8190,Note_off_c,9,40,0,
2,8190,Note_off_c,9,41,0,
2,8190,Note_off_c,9,42,0,
2,8190,Note_off_c,9,43,0,
2,8190,Note_off_c,9,44,0,
2,8190,Note_off_c,9,45,0,
2,8190,Note_off_c,9,46,0,
2,8190,Note_off_c,9,47,0,
2,8190,Note_off_c,9,48,0,
2,8190,Note_off_c,9,49,0,
2,8190,Note_off_c,9,50,0,
2,8190,Note_off_c,9,51,0,
2,8190,Note_off_c,9,56,0,
2,8190,Note_off_c,9,57,0,
2,8190,Note_off_c,9,59,0,
2,8190,Note_off_c,9,60,0,
2,8190,Note_off_c,9,61,0,
2,8190,Note_off_c,9,63,0,
2,8190,Note_off_c,9,68,0,
2,8190,Note_off_c,9,69,0,
2,8190,Note_off_c,9,70,0,
2,8190,Note_off_c,9,76,0,
2,8190,Note_off_c,9,80,0,
2,8190,Note_off_c,9,81,0,
2,8190,Note_off_c,9,82,0,
2,8190,Note_off_c,9,87,0,
2,8190,Note_off_c,9,88,0,
2,8190,Note_off_c,9,89,0,
2,8190,Note_off_c,9,91,0,
2,8190,Note_off_c,9,93,0,
2,8220,Note_off_c,9,35,0,
2,8220,Note_off_c,9,36,0,
2,8220,Note_off_c,9,37,0,
2,8220,Note_off_c,9,38,0,
2,8220,Note_off_c,9,39,0,
2,8220,Note_off_c,9,40,0,
2,8220,Note_off_c,9,41,0,
2,8220,Note_off_c,9,42,0,
2,8220,Note_off_c,9,43,0,
2,8220,Note_off_c,9,44,0,
2,8220,Note_off_c,9,45,0,
2,8220,Note_off_c,9,46,0,
2,8220,Note_off_c,9,47,0,
2,8220,Note_off_c,9,48,0,
2,8220,Note_off_c,9,49,0,
2,8220,Note_off_c,9,50,0,
2,8220,Note_off_c,9,51,0,
2,8220,Note_off_c,9,56,0,
2,8220,Note_off_c,9,57,0,
2,8220,Note_off_c,9,59,0,
2,8220,Note_off_c,9,60,0,
2,8220,Note_off_c,9,61,0,
2,8220,Note_off_c,9,63,0,
2,8220,Note_off_c,9,68,0,
2,8220,Note_off_c,9,69,0,
2,8220,Note_off_c,9,70,0,
2,8220,Note_off_c,9,76,0,
2,8220,Note_off_c,9,80,0,
2,8220,Note_off_c,9,81,0,
2,8220,Note_off_c,9,82,0,
2,8220,Note_off_c,9,87,0,
2,8220,Note_off_c,9,88,0,
2,8220,Note_off_c,9,89,0,
2,8220,Note_off_c,9,91,0,
2,8220,Note_off_c,9,93,0,
2,8250,Note_off_c,9,35,0,
2,8250,Note_off_c,9,36,0,
2,8250,Note_off_c,9,37,0,
2,8250,Note_off_c,9,38,0,
2,8250,Note_off_c,9,39,0,
2,8250,Note_off_c,9,40,0,
2,8250,Note_off_c,9,41,0,
2,8250,Note_off_c,9,42,0,
2,8250,Note_off_c,9,43,0,
2,8250,Note_off_c,9,44,0,
2,8250,Note_off_c,9,45,0,
2,8250,Note_off_c,9,46,0,
2,8250,Note_off_c,9,47,0,
2,8250,Note_off_c,9,48,0,
2,8250,Note_off_c,9,49,0,
2,8250,Note_off_c,9,50,0,
2,8250,Note_off_c,9,51,0,
2,8250,Note_off_c,9,56,0,
2,8250,Note_off_c,9,57,0,
2,8250,Note_off_c,9,59,0,
2,8250,Note_off_c,9,60,0,
2,8250,Note_off_c,9,61,0,
2,8250,Note_off_c,9,63,0,
2,8250,Note_off_c,9,68,0,
2,8250,Note_off_c,9,69,0,
2,8250,Note_off_c,9,70,0,
2,8250,Note_off_c,9,76,0,
2,8250,Note_off_c,9,80,0,
2,8250,Note_off_c,9,81,0,
2,8250,Note_off_c,9,82,0,
2,8250,Note_off_c,9,87,0,
2,8250,Note_off_c,9,88,0,
2,8250,Note_off_c,9,89,0,
2,8250,Note_off_c,9,91,0,
2,8250,Note_off_c,9,93,0,
2,8280,Note_off_c,9,35,0,
2,8280,Note_off_c,9,36,0,
2,8280,Note_off_c,9,37,0,
2,8280,Note_off_c,9,38,0,
2,8280,Note_off_c,9,39,0,
2,8280,Note_off_c,9,40,0,
2,8280,Note_off_c,9,41,0,
2,8280,Note_off_c,9,42,0,
2,8280,Note_off_c,9,43,0,
2,8280,Note_off_c,9,44,0,
2,8280,Note_off_c,9,45,0,
2,8280,Note_off_c,9,46,0,
2,8280,Note_off_c,9,47,0,
2,8280,Note_off_c,9,48,0,
2,8280,Note_off_c,9,49,0,
2,8280,Note_off_c,9,50,0,
2,8280,Note_off_c,9,51,0,
2,8280,Note_off_c,9,56,0,
2,8280,Note_off_c,9,57,0,
2,8280,Note_off_c,9,59,0,
2,8280,Note_off_c,9,60,0,
2,8280,Note_off_c,9,61,0,
2,8280,Note_off_c,9,63,0,
2,8280,Note_off_c,9,68,0,
2,8280,Note_off_c,9,69,0,
2,8280,Note_off_c,9,70,0,
2,8280,Note_off_c,9,76,0,
2,8280,Note_off_c,9,80,0,
2,8280,Note_off_c,9,81,0,
2,8280,Note_off_c,9,82,0,
2,8280,Note_off_c,9,87,0,
2,8280,Note_off_c,9,88,0,
2,8280,Note_off_c,9,89,0,
2,8280,Note_off_c,9,91,0,
2,8280,Note_off_c,9,93,0,
2,8310,Note_off_c,9,35,0,
2,8310,Note_off_c,9,36,0,
2,8310,Note_off_c,9,37,0,
2,8310,Note_off_c,9,38,0,
2,8310,Note_off_c,9,39,0,
2,8310,Note_off_c,9,40,0,
2,8310,Note_off_c,9,41,0,
2,8310,Note_off_c,9,42,0,
2,8310,Note_off_c,9,43,0,
2,8310,Note_off_c,9,44,0,
2,8310,Note_off_c,9,45,0,
2,8310,Note_off_c,9,46,0,
2,8310,Note_off_c,9,47,0,
2,8310,Note_off_c,9,48,0,
2,8310,Note_off_c,9,49,0,
2,8310,Note_off_c,9,50,0,
2,8310,Note_off_c,9,51,0,
2,8310,Note_off_c,9,56,0,
2,8310,Note_off_c,9,57,0,
2,8310,Note_off_c,9,59,0,
2,8310,Note_off_c,9,60,0,
2,8310,Note_off_c,9,61,0,
2,8310,Note_off_c,9,63,0,
2,8310,Note_off_c,9,68,0,
2,8310,Note_off_c,9,69,0,
2,8310,Note_off_c,9,70,0,
2,8310,Note_off_c,9,76,0,
2,8310,Note_off_c,9,80,0,
2,8310,Note_off_c,9,81,0,
2,8310,Note_off_c,9,82,0,
2,8310,Note_off_c,9,87,0,
2,8310,Note_off_c,9,88,0,
2,8310,Note_off_c,9,89,0,
2,8310,Note_off_c,9,91,0,
2,8310,Note_off_c,9,93,0,
2,8340,Note_off_c,9,35,0,
2,8340,Note_off_c,9,36,0,
2,8340,Note_off_c,9,37,0,
2,8340,Note_off_c,9,38,0,
2,8340,Note_off_c,9,39,0,
2,8340,Note_off_c,9,40,0,
2,8340,Note_off_c,9,41,0,
2,8340,Note_off_c,9,42,0,
2,8340,Note_off_c,9,43,0,
2,8340,Note_off_c,9,44,0,
2,8340,Note_off_c,9,45,0,
2,8340,Note_off_c,9,46,0,
2,8340,Note_off_c,9,47,0,
2,8340,Note_off_c,9,48,0,
2,8340,Note_off_c,9,49,0,
2,8340,Note_off_c,9,50,0,
2,8340,Note_off_c,9,51,0,
2,8340,Note_off_c,9,56,0,
2,8340,Note_off_c,9,57,0,
2,8340,Note_off_c,9,59,0,
2,8340,Note_off_c,9,60,0,
2,8340,Note_off_c,9,61,0,
2,8340,Note_off_c,9,63,0,
2,8340,Note_off_c,9,68,0,
2,8340,Note_off_c,9,69,0,
2,8340,Note_off_c,9,70,0,
2,8340,Note_off_c,9,76,0,
2,8340,Note_off_c,9,80,0,
2,8340,Note_off_c,9,81,0,
2,8340,Note_off_c,9,82,0,
2,8340,Note_off_c,9,87,0,
2,8340,Note_off_c,9,88,0,
2,8340,Note_off_c,9,89,0,
2,8340,Note_off_c,9,91,0,
2,8340,Note_off_c,9,93,0,
2,8370,Note_off_c,9,35,0,
2,8370,Note_off_c,9,36,0,
2,8370,Note_off_c,9,37,0,
2,8370,Note_off_c,9,38,0,
2,8370,Note_off_c,9,39,0,
2,8370,Note_off_c,9,40,0,
2,8370,Note_off_c,9,41,0,
2,8370,Note_off_c,9,42,0,
2,8370,Note_off_c,9,43,0,
2,8370,Note_off_c,9,44,0,
2,8370,Note_off_c,9,45,0,
2,8370,Note_off_c,9,46,0,
2,8370,Note_off_c,9,47,0,
2,8370,Note_off_c,9,48,0,
2,8370,Note_off_c,9,49,0,
2,8370,Note_off_c,9,50,0,
2,8370,Note_off_c,9,51,0,
2,8370,Note_off_c,9,56,0,
2,8370,Note_off_c,9,57,0,
2,8370,Note_off_c,9,59,0,
2,8370,Note_off_c,9,60,0,
2,8370,Note_off_c,9,61,0,
2,8370,Note_off_c,9,63,0,
2,8370,Note_off_c,9,68,0,
2,8370,Note_off_c,9,69,0,
2,8370,Note_off_c,9,70,0,
2,8370,Note_off_c,9,76,0,
2,8370,Note_off_c,9,80,0,
2,8370,Note_off_c,9,81,0,
2,8370,Note_off_c,9,82,0,
2,8370,Note_off_c,9,87,0,
2,8370,Note_off_c,9,88,0,
2,8370,Note_off_c,9,89,0,
2,8370,Note_off_c,9,91,0,
2,8370,Note_off_c,9,93,0,
2,8400,Note_off_c,9,35,0,
2,8400,Note_off_c,9,36,0,
2,8400,Note_off_c,9,37,0,
2,8400,Note_off_c,9,38,0,
2,8400,Note_off_c,9,39,0,
2,8400,Note_off_c,9,40,0,
2,8400,Note_off_c,9,41,0,
2,8400,Note_off_c,9,42,0,
2,8400,Note_off_c,9,43,0,
2,8400,Note_off_c,9,44,0,
2,8400,Note_off_c,9,45,0,
2,8400,Note_off_c,9,46,0,
2,8400,Note_off_c,9,47,0,
2,8400,Note_off_c,9,48,0,
2,8400,Note_off_c,9,49,0,
2,8400,Note_off_c,9,50,0,
2,8400,Note_off_c,9,51,0,
2,8400,Note_off_c,9,56,0,
2,8400,Note_off_c,9,57,0,
2,8400,Note_off_c,9,59,0,
2,8400,Note_off_c,9,60,0,
2,8400,Note_off_c,9,61,0,
2,8400,Note_off_c,9,63,0,
2,8400,Note_off_c,9,68,0,
2,8400,Note_off_c,9,69,0,
2,8400,Note_off_c,9,70,0,
2,8400,Note_off_c,9,76,0,
2,8400,Note_off_c,9,80,0,
2,8400,Note_off_c,9,81,0,
2,8400,Note_off_c,9,82,0,
2,8400,Note_off_c,9,87,0,
2,8400,Note_off_c,9,88,0,
2,8400,Note_off_c,9,89,0,
2,8400,Note_off_c,9,91,0,
2,8400,Note_off_c,9,93,0,
2,8430,Note_off_c,9,35,0,
2,8430,Note_off_c,9,36,0,
2,8430,Note_off_c,9,37,0,
2,8430,Note_off_c,9,38,0,
2,8430,Note_off_c,9,39,0,
2,8430,Note_off_c,9,40,0,
2,8430,Note_off_c,9,41,0,
2,8430,Note_off_c,9,42,0,
2,8430,Note_off_c,9,43,0,
2,8430,Note_off_c,9,44,0,
2,8430,Note_off_c,9,45,0,
2,8430,Note_off_c,9,46,0,
2,8430,Note_off_c,9,47,0,
2,8430,Note_off_c,9,48,0,
2,8430,Note_off_c,9,49,0,
2,8430,Note_off_c,9,50,0,
2,8430,Note_off_c,9,51,0,
2,8430,Note_off_c,9,56,0,
2,8430,Note_off_c,9,57,0,
2,8430,Note_off_c,9,59,0,
2,8430,Note_off_c,9,60,0,
2,8430,Note_off_c,9,61,0,
2,8430,Note_off_c,9,63,0,
2,8430,Note_off_c,9,68,0,
2,8430,Note_off_c,9,69,0,
2,8430,Note_off_c,9,70,0,
2,8430,Note_off_c,9,76,0,
2,8430,Note_off_c,9,80,0,
2,8430,Note_off_c,9,81,0,
2,8430,Note_off_c,9,82,0,
2,8430,Note_off_c,9,87,0,
2,8430,Note_off_c,9,88,0,
2,8430,Note_off_c,9,89,0,
2,8430,Note_off_c,9,91,0,
2,8430,Note_off_c,9,93,0,
2,8460,Note_off_c,9,35,0,
2,8460,Note_off_c,9,36,0,
2,8460,Note_off_c,9,37,0,
2,8460,Note_off_c,9,38,0,
2,8460,Note_off_c,9,39,0,
2,8460,Note_off_c,9,40,0,
2,8460,Note_off_c,9,41,0,
2,8460,Note_off_c,9,42,0,
2,8460,Note_off_c,9,43,0,
2,8460,Note_off_c,9,44,0,
2,8460,Note_off_c,9,45,0,
2,8460,Note_off_c,9,46,0,
2,8460,Note_off_c,9,47,0,
2,8460,Note_off_c,9,48,0,
2,8460,Note_off_c,9,49,0,
2,8460,Note_off_c,9,50,0,
2,8460,Note_off_c,9,51,0,
2,8460,Note_off_c,9,56,0,
2,8460,Note_off_c,9,57,0,
2,8460,Note_off_c,9,59,0,
2,8460,Note_off_c,9,60,0,
2,8460,Note_off_c,9,61,0,
2,8460,Note_off_c,9,63,0,
2,8460,Note_off_c,9,68,0,
2,8460,Note_off_c,9,69,0,
2,8460,Note_off_c,9,70,0,
2,8460,Note_off_c,9,76,0,
2,8460,Note_off_c,9,80,0,
2,8460,Note_off_c,9,81,0,
2,8460,Note_off_c,9,82,0,
2,8460,Note_off_c,9,87,0,
2,8460,Note_off_c,9,88,0,
2,8460,Note_off_c,9,89,0,
2,8460,Note_off_c,9,91,0,
2,8460,Note_off_c,9,93,0,
2,8490,Note_off_c,9,35,0,
2,8490,Note_off_c,9,36,0,
2,8490,Note_off_c,9,37,0,
2,8490,Note_off_c,9,38,0,
2,8490,Note_off_c,9,39,0,
2,8490,Note_off_c,9,40,0,
2,8490,Note_off_c,9,41,0,
2,8490,Note_off_c,9,42,0,
2,8490,Note_off_c,9,43,0,
2,8490,Note_off_c,9,44,0,
2,8490,Note_off_c,9,45,0,
2,8490,Note_off_c,9,46,0,
2,8490,Note_off_c,9,47,0,
2,8490,Note_off_c,9,48,0,
2,8490,Note_off_c,9,49,0,
2,8490,Note_off_c,9,50,0,
2,8490,Note_off_c,9,51,0,
2,8490,Note_off_c,9,56,0,
2,8490,Note_off_c,9,57,0,
2,8490,Note_off_c,9,59,0,
2,8490,Note_off_c,9,60,0,
2,8490,Note_off_c,9,61,0,
2,8490,Note_off_c,9,63,0,
2,8490,Note_off_c,9,68,0,
2,8490,Note_off_c,9,69,0,
2,8490,Note_off_c,9,70,0,
2,8490,Note_off_c,9,76,0,
2,8490,Note_off_c,9,80,0,
2,8490,Note_off_c,9,81,0,
2,8490,Note_off_c,9,82,0,
2,8490,Note_off_c,9,87,0,
2,8490,Note_off_c,9,88,0,
2,8490,Note_off_c,9,89,0,
2,8490,Note_off_c,9,91,0,
2,8490,Note_off_c,9,93,0,
2,8520,Note_off_c,9,35,0,
2,8520,Note_off_c,9,36,0,
2,8520,Note_off_c,9,37,0,
2,8520,Note_off_c,9,38,0,
2,8520,Note_off_c,9,39,0,
2,8520,Note_off_c,9,40,0,
2,8520,Note_off_c,9,41,0,
2,8520,Note_off_c,9,42,0,
2,8520,Note_off_c,9,43,0,
2,8520,Note_off_c,9,44,0,
2,8520,Note_off_c,9,45,0,
2,8520,Note_off_c,9,46,0,
2,8520,Note_off_c,9,47,0,
2,8520,Note_off_c,9,48,0,
2,8520,Note_off_c,9,49,0,
2,8520,Note_off_c,9,50,0,
2,8520,Note_off_c,9,51,0,
2,8520,Note_off_c,9,56,0,
2,8520,Note_off_c,9,57,0,
2,8520,Note_off_c,9,59,0,
2,8520,Note_off_c,9,60,0,
2,8520,Note_off_c,9,61,0,
2,8520,Note_off_c,9,63,0,
2,8520,Note_off_c,9,68,0,
2,8520,Note_off_c,9,69,0,
2,8520,Note_off_c,9,70,0,
2,8520,Note_off_c,9,76,0,
2,8520,Note_off_c,9,80,0,
2,8520,Note_off_c,9,81,0,
2,8520,Note_off_c,9,82,0,
2,8520,Note_off_c,9,87,0,
2,8520,Note_off_c,9,88,0,
2,8520,Note_off_c,9,89,0,
2,8520,Note_off_c,9,91,0,
2,8520,Note_off_c,9,93,0,
2,8550,Note_off_c,9,35,0,
2,8550,Note_off_c,9,36,0,
2,8550,Note_off_c,9,37,0,
2,8550,Note_off_c,9,38,0,
2,8550,Note_off_c,9,39,0,
2,8550,Note_off_c,9,40,0,
2,8550,Note_off_c,9,41,0,
2,8550,Note_off_c,9,42,0,
2,8550,Note_off_c,9,43,0,
2,8550,Note_off_c,9,44,0,
2,8550,Note_off_c,9,45,0,
2,8550,Note_off_c,9,46,0,
2,8550,Note_off_c,9,47,0,
2,8550,Note_off_c,9,48,0,
2,8550,Note_off_c,9,49,0,
2,8550,Note_off_c,9,50,0,
2,8550,Note_off_c,9,51,0,
2,8550,Note_off_c,9,56,0,
2,8550,Note_off_c,9,57,0,
2,8550,Note_off_c,9,59,0,
2,8550,Note_off_c,9,60,0,
2,8550,Note_off_c,9,61,0,
2,8550,Note_off_c,9,63,0,
2,8550,Note_off_c,9,68,0,
2,8550,Note_off_c,9,69,0,
2,8550,Note_off_c,9,70,0,
2,8550,Note_off_c,9,76,0,
2,8550,Note_off_c,9,80,0,
2,8550,Note_off_c,9,81,0,
2,8550,Note_off_c,9,82,0,
2,8550,Note_off_c,9,87,0,
2,8550,Note_off_c,9,88,0,
2,8550,Note_off_c,9,89,0,
2,8550,Note_off_c,9,91,0,
2,8550,Note_off_c,9,93,0,
2,8580,Note_off_c,9,35,0,
2,8580,Note_off_c,9,36,0,
2,8580,Note_off_c,9,37,0,
2,8580,Note_off_c,9,38,0,
2,8580,Note_off_c,9,39,0,
2,8580,Note_off_c,9,40,0,
2,8580,Note_off_c,9,41,0,
2,8580,Note_off_c,9,42,0,
2,8580,Note_off_c,9,43,0,
2,8580,Note_off_c,9,44,0,
2,8580,Note_off_c,9,45,0,
2,8580,Note_off_c,9,46,0,
2,8580,Note_off_c,9,47,0,
2,8580,Note_off_c,9,48,0,
2,8580,Note_off_c,9,49,0,
2,8580,Note_off_c,9,50,0,
2,8580,Note_off_c,9,51,0,
2,8580,Note_off_c,9,56,0,
2,8580,Note_off_c,9,57,0,
2,8580,Note_off_c,9,59,0,
2,8580,Note_off_c,9,60,0,
2,8580,Note_off_c,9,61,0,
2,8580,Note_off_c,9,63,0,
2,8580,Note_off_c,9,68,0,
2,8580,Note_off_c,9,69,0,
2,8580,Note_off_c,9,70,0,
2,8580,Note_off_c,9,76,0,
2,8580,Note_off_c,9,80,0,
2,8580,Note_off_c,9,81,0,
2,8580,Note_off_c,9,82,0,
2,8580,Note_off_c,9,87,0,
2,8580,Note_off_c,9,88,0,
2,8580,Note_off_c,9,89,0,
2,8580,Note_off_c,9,91,0,
2,8580,Note_off_c,9,93,0,
2,8610,Note_off_c,9,35,0,
2,8610,Note_off_c,9,36,0,
2,8610,Note_off_c,9,37,0,
2,8610,Note_off_c,9,38,0,
2,8610,Note_off_c,9,39,0,
2,8610,Note_off_c,9,40,0,
2,8610,Note_off_c,9,41,0,
2,8610,Note_off_c,9,42,0,
2,8610,Note_off_c,9,43,0,
2,8610,Note_off_c,9,44,0,
2,8610,Note_off_c,9,45,0,
2,8610,Note_off_c,9,46,0,
2,8610,Note_off_c,9,47,0,
2,8610,Note_off_c,9,48,0,
2,8610,Note_off_c,9,49,0,
2,8610,Note_off_c,9,50,0,
2,8610,Note_off_c,9,51,0,
2,8610,Note_off_c,9,56,0,
2,8610,Note_off_c,9,57,0,
2,8610,Note_off_c,9,59,0,
2,8610,Note_off_c,9,60,0,
2,8610,Note_off_c,9,61,0,
2,8610,Note_off_c,9,63,0,
2,8610,Note_off_c,9,68,0,
2,8610,Note_off_c,9,69,0,
2,8610,Note_off_c,9,70,0,
2,8610,Note_off_c,9,76,0,
2,8610,Note_off_c,9,80,0,
2,8610,Note_off_c,9,81,0,
2,8610,Note_off_c,9,82,0,
2,8610,Note_off_c,9,87,0,
2,8610,Note_off_c,9,88,0,
2,8610,Note_off_c,9,89,0,
2,8610,Note_off_c,9,91,0,
2,8610,Note_off_c,9,93,0,
2,8640,Note_off_c,9,35,0,
2,8640,Note_off_c,9,36,0,
2,8640,Note_off_c,9,37,0,
2,8640,Note_off_c,9,38,0,
2,8640,Note_off_c,9,39,0,
2,8640,Note_off_c,9,40,0,
2,8640,Note_off_c,9,41,0,
2,8640,Note_off_c,9,42,0,
2,8640,Note_off_c,9,43,0,
2,8640,Note_off_c,9,44,0,
2,8640,Note_off_c,9,45,0,
2,8640,Note_off_c,9,46,0,
2,8640,Note_off_c,9,47,0,
2,8640,Note_off_c,9,48,0,
2,8640,Note_off_c,9,49,0,
2,8640,Note_off_c,9,50,0,
2,8640,Note_off_c,9,51,0,
2,8640,Note_off_c,9,56,0,
2,8640,Note_off_c,9,57,0,
2,8640,Note_off_c,9,59,0,
2,8640,Note_off_c,9,60,0,
2,8640,Note_off_c,9,61,0,
2,8640,Note_off_c,9,63,0,
2,8640,Note_off_c,9,68,0,
2,8640,Note_off_c,9,69,0,
2,8640,Note_off_c,9,70,0,
2,8640,Note_off_c,9,76,0,
2,8640,Note_off_c,9,80,0,
2,8640,Note_off_c,9,81,0,
2,8640,Note_off_c,9,82,0,
2,8640,Note_off_c,9,87,0,
2,8640,Note_off_c,9,88,0,
2,8640,Note_off_c,9,89,0,
2,8640,Note_off_c,9,91,0,
2,8640,Note_off_c,9,93,0,
2,8670,Note_off_c,9,35,0,
2,8670,Note_off_c,9,36,0,
2,8670,Note_off_c,9,37,0,
2,8670,Note_off_c,9,38,0,
2,8670,Note_off_c,9,39,0,
2,8670,Note_off_c,9,40,0,
2,8670,Note_off_c,9,41,0,
2,8670,Note_off_c,9,42,0,
2,8670,Note_off_c,9,43,0,
2,8670,Note_off_c,9,44,0,
2,8670,Note_off_c,9,45,0,
2,8670,Note_off_c,9,46,0,
2,8670,Note_off_c,9,47,0,
2,8670,Note_off_c,9,48,0,
2,8670,Note_off_c,9,49,0,
2,8670,Note_off_c,9,50,0,
2,8670,Note_off_c,9,51,0,
2,8670,Note_off_c,9,56,0,
2,8670,Note_off_c,9,57,0,
2,8670,Note_off_c,9,59,0,
2,8670,Note_off_c,9,60,0,
2,8670,Note_off_c,9,61,0,
2,8670,Note_off_c,9,63,0,
2,8670,Note_off_c,9,68,0,
2,8670,Note_off_c,9,69,0,
2,8670,Note_off_c,9,70,0,
2,8670,Note_off_c,9,76,0,
2,8670,Note_off_c,9,80,0,
2,8670,Note_off_c,9,81,0,
2,8670,Note_off_c,9,82,0,
2,8670,Note_off_c,9,87,0,
2,8670,Note_off_c,9,88,0,
2,8670,Note_off_c,9,89,0,
2,8670,Note_off_c,9,91,0,
2,8670,Note_off_c,9,93,0,
2,8700,Note_off_c,9,35,0,
2,8700,Note_off_c,9,36,0,
2,8700,Note_off_c,9,37,0,
2,8700,Note_off_c,9,38,0,
2,8700,Note_off_c,9,39,0,
2,8700,Note_off_c,9,40,0,
2,8700,Note_off_c,9,41,0,
2,8700,Note_off_c,9,42,0,
2,8700,Note_off_c,9,43,0,
2,8700,Note_off_c,9,44,0,
2,8700,Note_off_c,9,45,0,
2,8700,Note_off_c,9,46,0,
2,8700,Note_off_c,9,47,0,
2,8700,Note_off_c,9,48,0,
2,8700,Note_off_c,9,49,0,
2,8700,Note_off_c,9,50,0,
2,8700,Note_off_c,9,51,0,
2,8700,Note_off_c,9,56,0,
2,8700,Note_off_c,9,57,0,
2,8700,Note_off_c,9,59,0,
2,8700,Note_off_c,9,60,0,
2,8700,Note_off_c,9,61,0,
2,8700,Note_off_c,9,63,0,
2,8700,Note_off_c,9,68,0,
2,8700,Note_off_c,9,69,0,
2,8700,Note_off_c,9,70,0,
2,8700,Note_off_c,9,76,0,
2,8700,Note_off_c,9,80,0,
2,8700,Note_off_c,9,81,0,
2,8700,Note_off_c,9,82,0,
2,8700,Note_off_c,9,87,0,
2,8700,Note_off_c,9,88,0,
2,8700,Note_off_c,9,89,0,
2,8700,Note_off_c,9,91,0,
2,8700,Note_off_c,9,93,0,
2,8730,Note_off_c,9,35,0,
2,8730,Note_off_c,9,36,0,
2,8730,Note_off_c,9,37,0,
2,8730,Note_off_c,9,38,0,
2,8730,Note_off_c,9,39,0,
2,8730,Note_off_c,9,40,0,
2,8730,Note_off_c,9,41,0,
2,8730,Note_off_c,9,42,0,
2,8730,Note_off_c,9,43,0,
2,8730,Note_off_c,9,44,0,
2,8730,Note_off_c,9,45,0,
2,8730,Note_off_c,9,46,0,
2,8730,Note_off_c,9,47,0,
2,8730,Note_off_c,9,48,0,
2,8730,Note_off_c,9,49,0,
2,8730,Note_off_c,9,50,0,
2,8730,Note_off_c,9,51,0,
2,8730,Note_off_c,9,56,0,
2,8730,Note_off_c,9,57,0,
2,8730,Note_off_c,9,59,0,
2,8730,Note_off_c,9,60,0,
2,8730,Note_off_c,9,61,0,
2,8730,Note_off_c,9,63,0,
2,8730,Note_off_c,9,68,0,
2,8730,Note_off_c,9,69,0,
2,8730,Note_off_c,9,70,0,
2,8730,Note_off_c,9,76,0,
2,8730,Note_off_c,9,80,0,
2,8730,Note_off_c,9,81,0,
2,8730,Note_off_c,9,82,0,
2,8730,Note_off_c,9,87,0,
2,8730,Note_off_c,9,88,0,
2,8730,Note_off_c,9,89,0,
2,8730,Note_off_c,9,91,0,
2,8730,Note_off_c,9,93,0,
2,8760,Note_off_c,9,35,0,
2,8760,Note_off_c,9,36,0,
2,8760,Note_off_c,9,37,0,
2,8760,Note_off_c,9,38,0,
2,8760,Note_off_c,9,39,0,
2,8760,Note_off_c,9,40,0,
2,8760,Note_off_c,9,41,0,
2,8760,Note_off_c,9,42,0,
2,8760,Note_off_c,9,43,0,
2,8760,Note_off_c,9,44,0,
2,8760,Note_off_c,9,45,0,
2,8760,Note_off_c,9,46,0,
2,8760,Note_off_c,9,47,0,
2,8760,Note_off_c,9,48,0,
2,8760,Note_off_c,9,49,0,
2,8760,Note_off_c,9,50,0,
2,8760,Note_off_c,9,51,0,
2,8760,Note_off_c,9,56,0,
2,8760,Note_off_c,9,57,0,
2,8760,Note_off_c,9,59,0,
2,8760,Note_off_c,9,60,0,
2,8760,Note_off_c,9,61,0,
2,8760,Note_off_c,9,63,0,
2,8760,Note_off_c,9,68,0,
2,8760,Note_off_c,9,69,0,
2,8760,Note_off_c,9,70,0,
2,8760,Note_off_c,9,76,0,
2,8760,Note_off_c,9,80,0,
2,8760,Note_off_c,9,81,0,
2,8760,Note_off_c,9,82,0,
2,8760,Note_off_c,9,87,0,
2,8760,Note_off_c,9,88,0,
2,8760,Note_off_c,9,89,0,
2,8760,Note_off_c,9,91,0,
2,8760,Note_off_c,9,93,0,
2,8790,Note_off_c,9,35,0,
2,8790,Note_off_c,9,36,0,
2,8790,Note_off_c,9,37,0,
2,8790,Note_off_c,9,38,0,
2,8790,Note_off_c,9,39,0,
2,8790,Note_off_c,9,40,0,
2,8790,Note_off_c,9,41,0,
2,8790,Note_off_c,9,42,0,
2,8790,Note_off_c,9,43,0,
2,8790,Note_off_c,9,44,0,
2,8790,Note_off_c,9,45,0,
2,8790,Note_off_c,9,46,0,
2,8790,Note_off_c,9,47,0,
2,8790,Note_off_c,9,48,0,
2,8790,Note_off_c,9,49,0,
2,8790,Note_off_c,9,50,0,
2,8790,Note_off_c,9,51,0,
2,8790,Note_off_c,9,56,0,
2,8790,Note_off_c,9,57,0,
2,8790,Note_off_c,9,59,0,
2,8790,Note_off_c,9,60,0,
2,8790,Note_off_c,9,61,0,
2,8790,Note_off_c,9,63,0,
2,8790,Note_off_c,9,68,0,
2,8790,Note_off_c,9,69,0,
2,8790,Note_off_c,9,70,0,
2,8790,Note_off_c,9,76,0,
2,8790,Note_off_c,9,80,0,
2,8790,Note_off_c,9,81,0,
2,8790,Note_off_c,9,82,0,
2,8790,Note_off_c,9,87,0,
2,8790,Note_off_c,9,88,0,
2,8790,Note_off_c,9,89,0,
2,8790,Note_off_c,9,91,0,
2,8790,Note_off_c,9,93,0,
2,8820,Note_off_c,9,35,0,
2,8820,Note_off_c,9,36,0,
2,8820,Note_off_c,9,37,0,
2,8820,Note_off_c,9,38,0,
2,8820,Note_off_c,9,39,0,
2,8820,Note_off_c,9,40,0,
2,8820,Note_off_c,9,41,0,
2,8820,Note_off_c,9,42,0,
2,8820,Note_off_c,9,43,0,
2,8820,Note_off_c,9,44,0,
2,8820,Note_off_c,9,45,0,
2,8820,Note_off_c,9,46,0,
2,8820,Note_off_c,9,47,0,
2,8820,Note_off_c,9,48,0,
2,8820,Note_off_c,9,49,0,
2,8820,Note_off_c,9,50,0,
2,8820,Note_off_c,9,51,0,
2,8820,Note_off_c,9,56,0,
2,8820,Note_off_c,9,57,0,
2,8820,Note_off_c,9,59,0,
2,8820,Note_off_c,9,60,0,
2,8820,Note_off_c,9,61,0,
2,8820,Note_off_c,9,63,0,
2,8820,Note_off_c,9,68,0,
2,8820,Note_off_c,9,69,0,
2,8820,Note_off_c,9,70,0,
2,8820,Note_off_c,9,76,0,
2,8820,Note_off_c,9,80,0,
2,8820,Note_off_c,9,81,0,
2,8820,Note_off_c,9,82,0,
2,8820,Note_off_c,9,87,0,
2,8820,Note_off_c,9,88,0,
2,8820,Note_off_c,9,89,0,
2,8820,Note_off_c,9,91,0,
2,8820,Note_off_c,9,93,0,
2,8850,Note_off_c,9,35,0,
2,8850,Note_off_c,9,36,0,
2,8850,Note_off_c,9,37,0,
2,8850,Note_off_c,9,38,0,
2,8850,Note_off_c,9,39,0,
2,8850,Note_off_c,9,40,0,
2,8850,Note_off_c,9,41,0,
2,8850,Note_off_c,9,42,0,
2,8850,Note_off_c,9,43,0,
2,8850,Note_off_c,9,44,0,
2,8850,Note_off_c,9,45,0,
2,8850,Note_off_c,9,46,0,
2,8850,Note_off_c,9,47,0,
2,8850,Note_off_c,9,48,0,
2,8850,Note_off_c,9,49,0,
2,8850,Note_off_c,9,50,0,
2,8850,Note_off_c,9,51,0,
2,8850,Note_off_c,9,56,0,
2,8850,Note_off_c,9,57,0,
2,8850,Note_off_c,9,59,0,
2,8850,Note_off_c,9,60,0,
2,8850,Note_off_c,9,61,0,
2,8850,Note_off_c,9,63,0,
2,8850,Note_off_c,9,68,0,
2,8850,Note_off_c,9,69,0,
2,8850,Note_off_c,9,70,0,
2,8850,Note_off_c,9,76,0,
2,8850,Note_off_c,9,80,0,
2,8850,Note_off_c,9,81,0,
2,8850,Note_off_c,9,82,0,
2,8850,Note_off_c,9,87,0,
2,8850,Note_off_c,9,88,0,
2,8850,Note_off_c,9,89,0,
2,8850,Note_off_c,9,91,0,
2,8850,Note_off_c,9,93,0,
2,8880,Note_off_c,9,35,0,
2,8880,Note_off_c,9,36,0,
2,8880,Note_off_c,9,37,0,
2,8880,Note_off_c,9,38,0,
2,8880,Note_off_c,9,39,0,
2,8880,Note_off_c,9,40,0,
2,8880,Note_off_c,9,41,0,
2,8880,Note_off_c,9,42,0,
2,8880,Note_off_c,9,43,0,
2,8880,Note_off_c,9,44,0,
2,8880,Note_off_c,9,45,0,
2,8880,Note_off_c,9,46,0,
2,8880,Note_off_c,9,47,0,
2,8880,Note_off_c,9,48,0,
2,8880,Note_off_c,9,49,0,
2,8880,Note_off_c,9,50,0,
2,8880,Note_off_c,9,51,0,
2,8880,Note_off_c,9,56,0,
2,8880,Note_off_c,9,57,0,
2,8880,Note_off_c,9,59,0,
2,8880,Note_off_c,9,60,0,
2,8880,Note_off_c,9,61,0,
2,8880,Note_off_c,9,63,0,
2,8880,Note_off_c,9,68,0,
2,8880,Note_off_c,9,69,0,
2,8880,Note_off_c,9,70,0,
2,8880,Note_off_c,9,76,0,
2,8880,Note_off_c,9,80,0,
2,8880,Note_off_c,9,81,0,
2,8880,Note_off_c,9,82,0,
2,8880,Note_off_c,9,87,0,
2,8880,Note_off_c,9,88,0,
2,8880,Note_off_c,9,89,0,
2,8880,Note_off_c,9,91,0,
2,8880,Note_off_c,9,93,0,
2,8910,Note_off_c,9,35,0,
2,8910,Note_off_c,9,36,0,
2,8910,Note_off_c,9,37,0,
2,8910,Note_off_c,9,38,0,
2,8910,Note_off_c,9,39,0,
2,8910,Note_off_c,9,40,0,
2,8910,Note_off_c,9,41,0,
2,8910,Note_off_c,9,42,0,
2,8910,Note_off_c,9,43,0,
2,8910,Note_off_c,9,44,0,
2,8910,Note_off_c,9,45,0,
2,8910,Note_off_c,9,46,0,
2,8910,Note_off_c,9,47,0,
2,8910,Note_off_c,9,48,0,
2,8910,Note_off_c,9,49,0,
2,8910,Note_off_c,9,50,0,
2,8910,Note_off_c,9,51,0,
2,8910,Note_off_c,9,56,0,
2,8910,Note_off_c,9,57,0,
2,8910,Note_off_c,9,59,0,
2,8910,Note_off_c,9,60,0,
2,8910,Note_off_c,9,61,0,
2,8910,Note_off_c,9,63,0,
2,8910,Note_off_c,9,68,0,
2,8910,Note_off_c,9,69,0,
2,8910,Note_off_c,9,70,0,
2,8910,Note_off_c,9,76,0,
2,8910,Note_off_c,9,80,0,
2,8910,Note_off_c,9,81,0,
2,8910,Note_off_c,9,82,0,
2,8910,Note_off_c,9,87,0,
2,8910,Note_off_c,9,88,0,
2,8910,Note_off_c,9,89,0,
2,8910,Note_off_c,9,91,0,
2,8910,Note_off_c,9,93,0,
2,8940,Note_off_c,9,35,0,
2,8940,Note_off_c,9,36,0,
2,8940,Note_off_c,9,37,0,
2,8940,Note_off_c,9,38,0,
2,8940,Note_off_c,9,39,0,
2,8940,Note_off_c,9,40,0,
2,8940,Note_off_c,9,41,0,
2,8940,Note_off_c,9,42,0,
2,8940,Note_off_c,9,43,0,
2,8940,Note_off_c,9,44,0,
2,8940,Note_off_c,9,45,0,
2,8940,Note_off_c,9,46,0,
2,8940,Note_off_c,9,47,0,
2,8940,Note_off_c,9,48,0,
2,8940,Note_off_c,9,49,0,
2,8940,Note_off_c,9,50,0,
2,8940,Note_off_c,9,51,0,
2,8940,Note_off_c,9,56,0,
2,8940,Note_off_c,9,57,0,
2,8940,Note_off_c,9,59,0,
2,8940,Note_off_c,9,60,0,
2,8940,Note_off_c,9,61,0,
2,8940,Note_off_c,9,63,0,
2,8940,Note_off_c,9,68,0,
2,8940,Note_off_c,9,69,0,
2,8940,Note_off_c,9,70,0,
2,8940,Note_off_c,9,76,0,
2,8940,Note_off_c,9,80,0,
2,8940,Note_off_c,9,81,0,
2,8940,Note_off_c,9,82,0,
2,8940,Note_off_c,9,87,0,
2,8940,Note_off_c,9,88,0,
2,8940,Note_off_c,9,89,0,
2,8940,Note_off_c,9,91,0,
2,8940,Note_off_c,9,93,0,
2,8970,Note_off_c,9,35,0,
2,8970,Note_off_c,9,36,0,
2,8970,Note_off_c,9,37,0,
2,8970,Note_off_c,9,38,0,
2,8970,Note_off_c,9,39,0,
2,8970,Note_off_c,9,40,0,
2,8970,Note_off_c,9,41,0,
2,8970,Note_off_c,9,42,0,
2,8970,Note_off_c,9,43,0,
2,8970,Note_off_c,9,44,0,
2,8970,Note_off_c,9,45,0,
2,8970,Note_off_c,9,46,0,
2,8970,Note_off_c,9,47,0,
2,8970,Note_off_c,9,48,0,
2,8970,Note_off_c,9,49,0,
2,8970,Note_off_c,9,50,0,
2,8970,Note_off_c,9,51,0,
2,8970,Note_off_c,9,56,0,
2,8970,Note_off_c,9,57,0,
2,8970,Note_off_c,9,59,0,
2,8970,Note_off_c,9,60,0,
2,8970,Note_off_c,9,61,0,
2,8970,Note_off_c,9,63,0,
2,8970,Note_off_c,9,68,0,
2,8970,Note_off_c,9,69,0,
2,8970,Note_off_c,9,70,0,
2,8970,Note_off_c,9,76,0,
2,8970,Note_off_c,9,80,0,
2,8970,Note_off_c,9,81,0,
2,8970,Note_off_c,9,82,0,
2,8970,Note_off_c,9,87,0,
2,8970,Note_off_c,9,88,0,
2,8970,Note_off_c,9,89,0,
2,8970,Note_off_c,9,91,0,
2,8970,Note_off_c,9,93,0,
2,9000,Note_off_c,9,35,0,
2,9000,Note_off_c,9,36,0,
2,9000,Note_off_c,9,37,0,
2,9000,Note_off_c,9,38,0,
2,9000,Note_off_c,9,39,0,
2,9000,Note_off_c,9,40,0,
2,9000,Note_off_c,9,41,0,
2,9000,Note_off_c,9,42,0,
2,9000,Note_off_c,9,43,0,
2,9000,Note_off_c,9,44,0,
2,9000,Note_off_c,9,45,0,
2,9000,Note_off_c,9,46,0,
2,9000,Note_off_c,9,47,0,
2,9000,Note_off_c,9,48,0,
2,9000,Note_off_c,9,49,0,
2,9000,Note_off_c,9,50,0,
2,9000,Note_off_c,9,51,0,
2,9000,Note_off_c,9,56,0,
2,9000,Note_off_c,9,57,0,
2,9000,Note_off_c,9,59,0,
2,9000,Note_off_c,9,60,0,
2,9000,Note_off_c,9,61,0,
2,9000,Note_off_c,9,63,0,
2,9000,Note_off_c,9,68,0,
2,9000,Note_off_c,9,69,0,
2,9000,Note_off_c,9,70,0,
2,9000,Note_off_c,9,76,0,
2,9000,Note_off_c,9,80,0,
2,9000,Note_off_c,9,81,0,
2,9000,Note_off_c,9,82,0,
2,9000,Note_off_c,9,87,0,
2,9000,Note_off_c,9,88,0,
2,9000,Note_off_c,9,89,0,
2,9000,Note_off_c,9,91,0,
2,9000,Note_off_c,9,93,0,
2,9030,Note_off_c,9,35,0,
2,9030,Note_off_c,9,36,0,
2,9030,Note_off_c,9,37,0,
2,9030,Note_off_c,9,38,0,
2,9030,Note_off_c,9,39,0,
2,9030,Note_off_c,9,40,0,
2,9030,Note_off_c,9,41,0,
2,9030,Note_off_c,9,42,0,
2,9030,Note_off_c,9,43,0,
2,9030,Note_off_c,9,44,0,
2,9030,Note_off_c,9,45,0,
2,9030,Note_off_c,9,46,0,
2,9030,Note_off_c,9,47,0,
2,9030,Note_off_c,9,48,0,
2,9030,Note_off_c,9,49,0,
2,9030,Note_off_c,9,50,0,
2,9030,Note_off_c,9,51,0,
2,9030,Note_off_c,9,56,0,
2,9030,Note_off_c,9,57,0,
2,9030,Note_off_c,9,59,0,
2,9030,Note_off_c,9,60,0,
2,9030,Note_off_c,9,61,0,
2,9030,Note_off_c,9,63,0,
2,9030,Note_off_c,9,68,0,
2,9030,Note_off_c,9,69,0,
2,9030,Note_off_c,9,70,0,
2,9030,Note_off_c,9,76,0,
2,9030,Note_off_c,9,80,0,
2,9030,Note_off_c,9,81,0,
2,9030,Note_off_c,9,82,0,
2,9030,Note_off_c,9,87,0,
2,9030,Note_off_c,9,88,0,
2,9030,Note_off_c,9,89,0,
2,9030,Note_off_c,9,91,0,
2,9030,Note_off_c,9,93,0,
2,9060,Note_off_c,9,35,0,
2,9060,Note_off_c,9,36,0,
2,9060,Note_off_c,9,37,0,
2,9060,Note_off_c,9,38,0,
2,9060,Note_off_c,9,39,0,
2,9060,Note_off_c,9,40,0,
2,9060,Note_off_c,9,41,0,
2,9060,Note_off_c,9,42,0,
2,9060,Note_off_c,9,43,0,
2,9060,Note_off_c,9,44,0,
2,9060,Note_off_c,9,45,0,
2,9060,Note_off_c,9,46,0,
2,9060,Note_off_c,9,47,0,
2,9060,Note_off_c,9,48,0,
2,9060,Note_off_c,9,49,0,
2,9060,Note_off_c,9,50,0,
2,9060,Note_off_c,9,51,0,
2,9060,Note_off_c,9,56,0,
2,9060,Note_off_c,9,57,0,
2,9060,Note_off_c,9,59,0,
2,9060,Note_off_c,9,60,0,
2,9060,Note_off_c,9,61,0,
2,9060,Note_off_c,9,63,0,
2,9060,Note_off_c,9,68,0,
2,9060,Note_off_c,9,69,0,
2,9060,Note_off_c,9,70,0,
2,9060,Note_off_c,9,76,0,
2,9060,Note_off_c,9,80,0,
2,9060,Note_off_c,9,81,0,
2,9060,Note_off_c,9,82,0,
2,9060,Note_off_c,9,87,0,
2,9060,Note_off_c,9,88,0,
2,9060,Note_off_c,9,89,0,
2,9060,Note_off_c,9,91,0,
2,9060,Note_off_c,9,93,0,
2,9090,Note_off_c,9,35,0,
2,9090,Note_off_c,9,36,0,
2,9090,Note_off_c,9,37,0,
2,9090,Note_off_c,9,38,0,
2,9090,Note_off_c,9,39,0,
2,9090,Note_off_c,9,40,0,
2,9090,Note_off_c,9,41,0,
2,9090,Note_off_c,9,42,0,
2,9090,Note_off_c,9,43,0,
2,9090,Note_off_c,9,44,0,
2,9090,Note_off_c,9,45,0,
2,9090,Note_off_c,9,46,0,
2,9090,Note_off_c,9,47,0,
2,9090,Note_off_c,9,48,0,
2,9090,Note_off_c,9,49,0,
2,9090,Note_off_c,9,50,0,
2,9090,Note_off_c,9,51,0,
2,9090,Note_off_c,9,56,0,
2,9090,Note_off_c,9,57,0,
2,9090,Note_off_c,9,59,0,
2,9090,Note_off_c,9,60,0,
2,9090,Note_off_c,9,61,0,
2,9090,Note_off_c,9,63,0,
2,9090,Note_off_c,9,68,0,
2,9090,Note_off_c,9,69,0,
2,9090,Note_off_c,9,70,0,
2,9090,Note_off_c,9,76,0,
2,9090,Note_off_c,9,80,0,
2,9090,Note_off_c,9,81,0,
2,9090,Note_off_c,9,82,0,
2,9090,Note_off_c,9,87,0,
2,9090,Note_off_c,9,88,0,
2,9090,Note_off_c,9,89,0,
2,9090,Note_off_c,9,91,0,
2,9090,Note_off_c,9,93,0,
2,9120,Note_off_c,9,35,0,
2,9120,Note_off_c,9,36,0,
2,9120,Note_off_c,9,37,0,
2,9120,Note_off_c,9,38,0,
2,9120,Note_off_c,9,39,0,
2,9120,Note_off_c,9,40,0,
2,9120,Note_off_c,9,41,0,
2,9120,Note_off_c,9,42,0,
2,9120,Note_off_c,9,43,0,
2,9120,Note_off_c,9,44,0,
2,9120,Note_off_c,9,45,0,
2,9120,Note_off_c,9,46,0,
2,9120,Note_off_c,9,47,0,
2,9120,Note_off_c,9,48,0,
2,9120,Note_off_c,9,49,0,
2,9120,Note_off_c,9,50,0,
2,9120,Note_off_c,9,51,0,
2,9120,Note_off_c,9,56,0,
2,9120,Note_off_c,9,57,0,
2,9120,Note_off_c,9,59,0,
2,9120,Note_off_c,9,60,0,
2,9120,Note_off_c,9,61,0,
2,9120,Note_off_c,9,63,0,
2,9120,Note_off_c,9,68,0,
2,9120,Note_off_c,9,69,0,
2,9120,Note_off_c,9,70,0,
2,9120,Note_off_c,9,76,0,
2,9120,Note_off_c,9,80,0,
2,9120,Note_off_c,9,81,0,
2,9120,Note_off_c,9,82,0,
2,9120,Note_off_c,9,87,0,
2,9120,Note_off_c,9,88,0,
2,9120,Note_off_c,9,89,0,
2,9120,Note_off_c,9,91,0,
2,9120,Note_off_c,9,93,0,
2,9150,Note_off_c,9,35,0,
2,9150,Note_off_c,9,36,0,
2,9150,Note_off_c,9,37,0,
2,9150,Note_off_c,9,38,0,
2,9150,Note_off_c,9,39,0,
2,9150,Note_off_c,9,40,0,
2,9150,Note_off_c,9,41,0,
2,9150,Note_off_c,9,42,0,
2,9150,Note_off_c,9,43,0,
2,9150,Note_off_c,9,44,0,
2,9150,Note_off_c,9,45,0,
2,9150,Note_off_c,9,46,0,
2,9150,Note_off_c,9,47,0,
2,9150,Note_off_c,9,48,0,
2,9150,Note_off_c,9,49,0,
2,9150,Note_off_c,9,50,0,
2,9150,Note_off_c,9,51,0,
2,9150,Note_off_c,9,56,0,
2,9150,Note_off_c,9,57,0,
2,9150,Note_off_c,9,59,0,
2,9150,Note_off_c,9,60,0,
2,9150,Note_off_c,9,61,0,
2,9150,Note_off_c,9,63,0,
2,9150,Note_off_c,9,68,0,
2,9150,Note_off_c,9,69,0,
2,9150,Note_off_c,9,70,0,
2,9150,Note_off_c,9,76,0,
2,9150,Note_off_c,9,80,0,
2,9150,Note_off_c,9,81,0,
2,9150,Note_off_c,9,82,0,
2,9150,Note_off_c,9,87,0,
2,9150,Note_off_c,9,88,0,
2,9150,Note_off_c,9,89,0,
2,9150,Note_off_c,9,91,0,
2,9150,Note_off_c,9,93,0,
2,9180,Note_off_c,9,35,0,
2,9180,Note_off_c,9,36,0,
2,9180,Note_off_c,9,37,0,
2,9180,Note_off_c,9,38,0,
2,9180,Note_off_c,9,39,0,
2,9180,Note_off_c,9,40,0,
2,9180,Note_off_c,9,41,0,
2,9180,Note_off_c,9,42,0,
2,9180,Note_off_c,9,43,0,
2,9180,Note_off_c,9,44,0,
2,9180,Note_off_c,9,45,0,
2,9180,Note_off_c,9,46,0,
2,9180,Note_off_c,9,47,0,
2,9180,Note_off_c,9,48,0,
2,9180,Note_off_c,9,49,0,
2,9180,Note_off_c,9,50,0,
2,9180,Note_off_c,9,51,0,
2,9180,Note_off_c,9,56,0,
2,9180,Note_off_c,9,57,0,
2,9180,Note_off_c,9,59,0,
2,9180,Note_off_c,9,60,0,
2,9180,Note_off_c,9,61,0,
2,9180,Note_off_c,9,63,0,
2,9180,Note_off_c,9,68,0,
2,9180,Note_off_c,9,69,0,
2,9180,Note_off_c,9,70,0,
2,9180,Note_off_c,9,76,0,
2,9180,Note_off_c,9,80,0,
2,9180,Note_off_c,9,81,0,
2,9180,Note_off_c,9,82,0,
2,9180,Note_off_c,9,87,0,
2,9180,Note_off_c,9,88,0,
2,9180,Note_off_c,9,89,0,
2,9180,Note_off_c,9,91,0,
2,9180,Note_off_c,9,93,0,
2,9210,Note_off_c,9,35,0,
2,9210,Note_off_c,9,36,0,
2,9210,Note_off_c,9,37,0,
2,9210,Note_off_c,9,38,0,
2,9210,Note_off_c,9,39,0,
2,9210,Note_off_c,9,40,0,
2,9210,Note_off_c,9,41,0,
2,9210,Note_off_c,9,42,0,
2,9210,Note_off_c,9,43,0,
2,9210,Note_off_c,9,44,0,
2,9210,Note_off_c,9,45,0,
2,9210,Note_off_c,9,46,0,
2,9210,Note_off_c,9,47,0,
2,9210,Note_off_c,9,48,0,
2,9210,Note_off_c,9,49,0,
2,9210,Note_off_c,9,50,0,
2,9210,Note_off_c,9,51,0,
2,9210,Note_off_c,9,56,0,
2,9210,Note_off_c,9,57,0,
2,9210,Note_off_c,9,59,0,
2,9210,Note_off_c,9,60,0,
2,9210,Note_off_c,9,61,0,
2,9210,Note_off_c,9,63,0,
2,9210,Note_off_c,9,68,0,
2,9210,Note_off_c,9,69,0,
2,9210,Note_off_c,9,70,0,
2,9210,Note_off_c,9,76,0,
2,9210,Note_off_c,9,80,0,
2,9210,Note_off_c,9,81,0,
2,9210,Note_off_c,9,82,0,
2,9210,Note_off_c,9,87,0,
2,9210,Note_off_c,9,88,0,
2,9210,Note_off_c,9,89,0,
2,9210,Note_off_c,9,91,0,
2,9210,Note_off_c,9,93,0,
2,9240,Note_off_c,9,35,0,
2,9240,Note_off_c,9,36,0,
2,9240,Note_off_c,9,37,0,
2,9240,Note_off_c,9,38,0,
2,9240,Note_off_c,9,39,0,
2,9240,Note_off_c,9,40,0,
2,9240,Note_off_c,9,41,0,
2,9240,Note_off_c,9,42,0,
2,9240,Note_off_c,9,43,0,
2,9240,Note_off_c,9,44,0,
2,9240,Note_off_c,9,45,0,
2,9240,Note_off_c,9,46,0,
2,9240,Note_off_c,9,47,0,
2,9240,Note_off_c,9,48,0,
2,9240,Note_off_c,9,49,0,
2,9240,Note_off_c,9,50,0,
2,9240,Note_off_c,9,51,0,
2,9240,Note_off_c,9,56,0,
2,9240,Note_off_c,9,57,0,
2,9240,Note_off_c,9,59,0,
2,9240,Note_off_c,9,60,0,
2,9240,Note_off_c,9,61,0,
2,9240,Note_off_c,9,63,0,
2,9240,Note_off_c,9,68,0,
2,9240,Note_off_c,9,69,0,
2,9240,Note_off_c,9,70,0,
2,9240,Note_off_c,9,76,0,
2,9240,Note_off_c,9,80,0,
2,9240,Note_off_c,9,81,0,
2,9240,Note_off_c,9,82,0,
2,9240,Note_off_c,9,87,0,
2,9240,Note_off_c,9,88,0,
2,9240,Note_off_c,9,89,0,
2,9240,Note_off_c,9,91,0,
2,9240,Note_off_c,9,93,0,
2,9270,Note_off_c,9,35,0,
2,9270,Note_off_c,9,36,0,
2,9270,Note_off_c,9,37,0,
2,9270,Note_off_c,9,38,0,
2,9270,Note_off_c,9,39,0,
2,9270,Note_off_c,9,40,0,
2,9270,Note_off_c,9,41,0,
2,9270,Note_off_c,9,42,0,
2,9270,Note_off_c,9,43,0,
2,9270,Note_off_c,9,44,0,
2,9270,Note_off_c,9,45,0,
2,9270,Note_off_c,9,46,0,
2,9270,Note_off_c,9,47,0,
2,9270,Note_off_c,9,48,0,
2,9270,Note_off_c,9,49,0,
2,9270,Note_off_c,9,50,0,
2,9270,Note_off_c,9,51,0,
2,9270,Note_off_c,9,56,0,
2,9270,Note_off_c,9,57,0,
2,9270,Note_off_c,9,59,0,
2,9270,Note_off_c,9,60,0,
2,9270,Note_off_c,9,61,0,
2,9270,Note_off_c,9,63,0,
2,9270,Note_off_c,9,68,0,
2,9270,Note_off_c,9,69,0,
2,9270,Note_off_c,9,70,0,
2,9270,Note_off_c,9,76,0,
2,9270,Note_off_c,9,80,0,
2,9270,Note_off_c,9,81,0,
2,9270,Note_off_c,9,82,0,
2,9270,Note_off_c,9,87,0,
2,9270,Note_off_c,9,88,0,
2,9270,Note_off_c,9,89,0,
2,9270,Note_off_c,9,91,0,
2,9270,Note_off_c,9,93,0,
2,9300,Note_off_c,9,35,0,
2,9300,Note_off_c,9,36,0,
2,9300,Note_off_c,9,37,0,
2,9300,Note_off_c,9,38,0,
2,9300,Note_off_c,9,39,0,
2,9300,Note_off_c,9,40,0,
2,9300,Note_off_c,9,41,0,
2,9300,Note_off_c,9,42,0,
2,9300,Note_off_c,9,43,0,
2,9300,Note_off_c,9,44,0,
2,9300,Note_off_c,9,45,0,
2,9300,Note_off_c,9,46,0,
2,9300,Note_off_c,9,47,0,
2,9300,Note_off_c,9,48,0,
2,9300,Note_off_c,9,49,0,
2,9300,Note_off_c,9,50,0,
2,9300,Note_off_c,9,51,0,
2,9300,Note_off_c,9,56,0,
2,9300,Note_off_c,9,57,0,
2,9300,Note_off_c,9,59,0,
2,9300,Note_off_c,9,60,0,
2,9300,Note_off_c,9,61,0,
2,9300,Note_off_c,9,63,0,
2,9300,Note_off_c,9,68,0,
2,9300,Note_off_c,9,69,0,
2,9300,Note_off_c,9,70,0,
2,9300,Note_off_c,9,76,0,
2,9300,Note_off_c,9,80,0,
2,9300,Note_off_c,9,81,0,
2,9300,Note_off_c,9,82,0,
2,9300,Note_off_c,9,87,0,
2,9300,Note_off_c,9,88,0,
2,9300,Note_off_c,9,89,0,
2,9300,Note_off_c,9,91,0,
2,9300,Note_off_c,9,93,0,
2,9330,Note_off_c,9,35,0,
2,9330,Note_off_c,9,36,0,
2,9330,Note_off_c,9,37,0,
2,9330,Note_off_c,9,38,0,
2,9330,Note_off_c,9,39,0,
2,9330,Note_off_c,9,40,0,
2,9330,Note_off_c,9,41,0,
2,9330,Note_off_c,9,42,0,
2,9330,Note_off_c,9,43,0,
2,9330,Note_off_c,9,44,0,
2,9330,Note_off_c,9,45,0,
2,9330,Note_off_c,9,46,0,
2,9330,Note_off_c,9,47,0,
2,9330,Note_off_c,9,48,0,
2,9330,Note_off_c,9,49,0,
2,9330,Note_off_c,9,50,0,
2,9330,Note_off_c,9,51,0,
2,9330,Note_off_c,9,56,0,
2,9330,Note_off_c,9,57,0,
2,9330,Note_off_c,9,59,0,
2,9330,Note_off_c,9,60,0,
2,9330,Note_off_c,9,61,0,
2,9330,Note_off_c,9,63,0,
2,9330,Note_off_c,9,68,0,
2,9330,Note_off_c,9,69,0,
2,9330,Note_off_c,9,70,0,
2,9330,Note_off_c,9,76,0,
2,9330,Note_off_c,9,80,0,
2,9330,Note_off_c,9,81,0,
2,9330,Note_off_c,9,82,0,
2,9330,Note_off_c,9,87,0,
2,9330,Note_off_c,9,88,0,
2,9330,Note_off_c,9,89,0,
2,9330,Note_off_c,9,91,0,
2,9330,Note_off_c,9,93,0,
2,9360,Note_off_c,9,35,0,
2,9360,Note_off_c,9,36,0,
2,9360,Note_off_c,9,37,0,
2,9360,Note_off_c,9,38,0,
2,9360,Note_off_c,9,39,0,
2,9360,Note_off_c,9,40,0,
2,9360,Note_off_c,9,41,0,
2,9360,Note_off_c,9,42,0,
2,9360,Note_off_c,9,43,0,
2,9360,Note_off_c,9,44,0,
2,9360,Note_off_c,9,45,0,
2,9360,Note_off_c,9,46,0,
2,9360,Note_off_c,9,47,0,
2,9360,Note_off_c,9,48,0,
2,9360,Note_off_c,9,49,0,
2,9360,Note_off_c,9,50,0,
2,9360,Note_off_c,9,51,0,
2,9360,Note_off_c,9,56,0,
2,9360,Note_off_c,9,57,0,
2,9360,Note_off_c,9,59,0,
2,9360,Note_off_c,9,60,0,
2,9360,Note_off_c,9,61,0,
2,9360,Note_off_c,9,63,0,
2,9360,Note_off_c,9,68,0,
2,9360,Note_off_c,9,69,0,
2,9360,Note_off_c,9,70,0,
2,9360,Note_off_c,9,76,0,
2,9360,Note_off_c,9,80,0,
2,9360,Note_off_c,9,81,0,
2,9360,Note_off_c,9,82,0,
2,9360,Note_off_c,9,87,0,
2,9360,Note_off_c,9,88,0,
2,9360,Note_off_c,9,89,0,
2,9360,Note_off_c,9,91,0,
2,9360,Note_off_c,9,93,0,
2,9390,Note_off_c,9,35,0,
2,9390,Note_off_c,9,36,0,
2,9390,Note_off_c,9,37,0,
2,9390,Note_off_c,9,38,0,
2,9390,Note_off_c,9,39,0,
2,9390,Note_off_c,9,40,0,
2,9390,Note_off_c,9,41,0,
2,9390,Note_off_c,9,42,0,
2,9390,Note_off_c,9,43,0,
2,9390,Note_off_c,9,44,0,
2,9390,Note_off_c,9,45,0,
2,9390,Note_off_c,9,46,0,
2,9390,Note_off_c,9,47,0,
2,9390,Note_off_c,9,48,0,
2,9390,Note_off_c,9,49,0,
2,9390,Note_off_c,9,50,0,
2,9390,Note_off_c,9,51,0,
2,9390,Note_off_c,9,56,0,
2,9390,Note_off_c,9,57,0,
2,9390,Note_off_c,9,59,0,
2,9390,Note_off_c,9,60,0,
2,9390,Note_off_c,9,61,0,
2,9390,Note_off_c,9,63,0,
2,9390,Note_off_c,9,68,0,
2,9390,Note_off_c,9,69,0,
2,9390,Note_off_c,9,70,0,
2,9390,Note_off_c,9,76,0,
2,9390,Note_off_c,9,80,0,
2,9390,Note_off_c,9,81,0,
2,9390,Note_off_c,9,82,0,
2,9390,Note_off_c,9,87,0,
2,9390,Note_off_c,9,88,0,
2,9390,Note_off_c,9,89,0,
2,9390,Note_off_c,9,91,0,
2,9390,Note_off_c,9,93,0,
2,9420,Note_off_c,9,35,0,
2,9420,Note_off_c,9,36,0,
2,9420,Note_off_c,9,37,0,
2,9420,Note_off_c,9,38,0,
2,9420,Note_off_c,9,39,0,
2,9420,Note_off_c,9,40,0,
2,9420,Note_off_c,9,41,0,
2,9420,Note_off_c,9,42,0,
2,9420,Note_off_c,9,43,0,
2,9420,Note_off_c,9,44,0,
2,9420,Note_off_c,9,45,0,
2,9420,Note_off_c,9,46,0,
2,9420,Note_off_c,9,47,0,
2,9420,Note_off_c,9,48,0,
2,9420,Note_off_c,9,49,0,
2,9420,Note_off_c,9,50,0,
2,9420,Note_off_c,9,51,0,
2,9420,Note_off_c,9,56,0,
2,9420,Note_off_c,9,57,0,
2,9420,Note_off_c,9,59,0,
2,9420,Note_off_c,9,60,0,
2,9420,Note_off_c,9,61,0,
2,9420,Note_off_c,9,63,0,
2,9420,Note_off_c,9,68,0,
2,9420,Note_off_c,9,69,0,
2,9420,Note_off_c,9,70,0,
2,9420,Note_off_c,9,76,0,
2,9420,Note_off_c,9,80,0,
2,9420,Note_off_c,9,81,0,
2,9420,Note_off_c,9,82,0,
2,9420,Note_off_c,9,87,0,
2,9420,Note_off_c,9,88,0,
2,9420,Note_off_c,9,89,0,
2,9420,Note_off_c,9,91,0,
2,9420,Note_off_c,9,93,0,
2,9450,Note_off_c,9,35,0,
2,9450,Note_off_c,9,36,0,
2,9450,Note_off_c,9,37,0,
2,9450,Note_off_c,9,38,0,
2,9450,Note_off_c,9,39,0,
2,9450,Note_off_c,9,40,0,
2,9450,Note_off_c,9,41,0,
2,9450,Note_off_c,9,42,0,
2,9450,Note_off_c,9,43,0,
2,9450,Note_off_c,9,44,0,
2,9450,Note_off_c,9,45,0,
2,9450,Note_off_c,9,46,0,
2,9450,Note_off_c,9,47,0,
2,9450,Note_off_c,9,48,0,
2,9450,Note_off_c,9,49,0,
2,9450,Note_off_c,9,50,0,
2,9450,Note_off_c,9,51,0,
2,9450,Note_off_c,9,56,0,
2,9450,Note_off_c,9,57,0,
2,9450,Note_off_c,9,59,0,
2,9450,Note_off_c,9,60,0,
2,9450,Note_off_c,9,61,0,
2,9450,Note_off_c,9,63,0,
2,9450,Note_off_c,9,68,0,
2,9450,Note_off_c,9,69,0,
2,9450,Note_off_c,9,70,0,
2,9450,Note_off_c,9,76,0,
2,9450,Note_off_c,9,80,0,
2,9450,Note_off_c,9,81,0,
2,9450,Note_off_c,9,82,0,
2,9450,Note_off_c,9,87,0,
2,9450,Note_off_c,9,88,0,
2,9450,Note_off_c,9,89,0,
2,9450,Note_off_c,9,91,0,
2,9450,Note_off_c,9,93,0,
2,9480,Note_off_c,9,35,0,
2,9480,Note_off_c,9,36,0,
2,9480,Note_off_c,9,37,0,
2,9480,Note_off_c,9,38,0,
2,9480,Note_off_c,9,39,0,
2,9480,Note_off_c,9,40,0,
2,9480,Note_off_c,9,41,0,
2,9480,Note_off_c,9,42,0,
2,9480,Note_off_c,9,43,0,
2,9480,Note_off_c,9,44,0,
2,9480,Note_off_c,9,45,0,
2,9480,Note_off_c,9,46,0,
2,9480,Note_off_c,9,47,0,
2,9480,Note_off_c,9,48,0,
2,9480,Note_off_c,9,49,0,
2,9480,Note_off_c,9,50,0,
2,9480,Note_off_c,9,51,0,
2,9480,Note_off_c,9,56,0,
2,9480,Note_off_c,9,57,0,
2,9480,Note_off_c,9,59,0,
2,9480,Note_off_c,9,60,0,
2,9480,Note_off_c,9,61,0,
2,9480,Note_off_c,9,63,0,
2,9480,Note_off_c,9,68,0,
2,9480,Note_off_c,9,69,0,
2,9480,Note_off_c,9,70,0,
2,9480,Note_off_c,9,76,0,
2,9480,Note_off_c,9,80,0,
2,9480,Note_off_c,9,81,0,
2,9480,Note_off_c,9,82,0,
2,9480,Note_off_c,9,87,0,
2,9480,Note_off_c,9,88,0,
2,9480,Note_off_c,9,89,0,
2,9480,Note_off_c,9,91,0,
2,9480,Note_off_c,9,93,0,
2,9510,Note_off_c,9,35,0,
2,9510,Note_off_c,9,36,0,
2,9510,Note_off_c,9,37,0,
2,9510,Note_off_c,9,38,0,
2,9510,Note_off_c,9,39,0,
2,9510,Note_off_c,9,40,0,
2,9510,Note_off_c,9,41,0,
2,9510,Note_off_c,9,42,0,
2,9510,Note_off_c,9,43,0,
2,9510,Note_off_c,9,44,0,
2,9510,Note_off_c,9,45,0,
2,9510,Note_off_c,9,46,0,
2,9510,Note_off_c,9,47,0,
2,9510,Note_off_c,9,48,0,
2,9510,Note_off_c,9,49,0,
2,9510,Note_off_c,9,50,0,
2,9510,Note_off_c,9,51,0,
2,9510,Note_off_c,9,56,0,
2,9510,Note_off_c,9,57,0,
2,9510,Note_off_c,9,59,0,
2,9510,Note_off_c,9,60,0,
2,9510,Note_off_c,9,61,0,
2,9510,Note_off_c,9,63,0,
2,9510,Note_off_c,9,68,0,
2,9510,Note_off_c,9,69,0,
2,9510,Note_off_c,9,70,0,
2,9510,Note_off_c,9,76,0,
2,9510,Note_off_c,9,80,0,
2,9510,Note_off_c,9,81,0,
2,9510,Note_off_c,9,82,0,
2,9510,Note_off_c,9,87,0,
2,9510,Note_off_c,9,88,0,
2,9510,Note_off_c,9,89,0,
2,9510,Note_off_c,9,91,0,
2,9510,Note_off_c,9,93,0,
2,9540,Note_off_c,9,35,0,
2,9540,Note_off_c,9,36,0,
2,9540,Note_off_c,9,37,0,
2,9540,Note_off_c,9,38,0,
2,9540,Note_off_c,9,39,0,
2,9540,Note_off_c,9,40,0,
2,9540,Note_off_c,9,41,0,
2,9540,Note_off_c,9,42,0,
2,9540,Note_off_c,9,43,0,
2,9540,Note_off_c,9,44,0,
2,9540,Note_off_c,9,45,0,
2,9540,Note_off_c,9,46,0,
2,9540,Note_off_c,9,47,0,
2,9540,Note_off_c,9,48,0,
2,9540,Note_off_c,9,49,0,
2,9540,Note_off_c,9,50,0,
2,9540,Note_off_c,9,51,0,
2,9540,Note_off_c,9,56,0,
2,9540,Note_off_c,9,57,0,
2,9540,Note_off_c,9,59,0,
2,9540,Note_off_c,9,60,0,
2,9540,Note_off_c,9,61,0,
2,9540,Note_off_c,9,63,0,
2,9540,Note_off_c,9,68,0,
2,9540,Note_off_c,9,69,0,
2,9540,Note_off_c,9,70,0,
2,9540,Note_off_c,9,76,0,
2,9540,Note_off_c,9,80,0,
2,9540,Note_off_c,9,81,0,
2,9540,Note_off_c,9,82,0,
2,9540,Note_off_c,9,87,0,
2,9540,Note_off_c,9,88,0,
2,9540,Note_off_c,9,89,0,
2,9540,Note_off_c,9,91,0,
2,9540,Note_off_c,9,93,0,
2,9570,Note_off_c,9,35,0,
2,9570,Note_off_c,9,36,0,
2,9570,Note_off_c,9,37,0,
2,9570,Note_off_c,9,38,0,
2,9570,Note_off_c,9,39,0,
2,9570,Note_off_c,9,40,0,
2,9570,Note_off_c,9,41,0,
2,9570,Note_off_c,9,42,0,
2,9570,Note_off_c,9,43,0,
2,9570,Note_off_c,9,44,0,
2,9570,Note_off_c,9,45,0,
2,9570,Note_off_c,9,46,0,
2,9570,Note_off_c,9,47,0,
2,9570,Note_off_c,9,48,0,
2,9570,Note_off_c,9,49,0,
2,9570,Note_off_c,9,50,0,
2,9570,Note_off_c,9,51,0,
2,9570,Note_off_c,9,56,0,
2,9570,Note_off_c,9,57,0,
2,9570,Note_off_c,9,59,0,
2,9570,Note_off_c,9,60,0,
2,9570,Note_off_c,9,61,0,
2,9570,Note_off_c,9,63,0,
2,9570,Note_off_c,9,68,0,
2,9570,Note_off_c,9,69,0,
2,9570,Note_off_c,9,70,0,
2,9570,Note_off_c,9,76,0,
2,9570,Note_off_c,9,80,0,
2,9570,Note_off_c,9,81,0,
2,9570,Note_off_c,9,82,0,
2,9570,Note_off_c,9,87,0,
2,9570,Note_off_c,9,88,0,
2,9570,Note_off_c,9,89,0,
2,9570,Note_off_c,9,91,0,
2,9570,Note_off_c,9,93,0,
2,9600,Note_off_c,9,35,0,
2,9600,Note_off_c,9,36,0,
2,9600,Note_off_c,9,37,0,
2,9600,Note_off_c,9,38,0,
2,9600,Note_off_c,9,39,0,
2,9600,Note_off_c,9,40,0,
2,9600,Note_off_c,9,41,0,
2,9600,Note_off_c,9,42,0,
2,9600,Note_off_c,9,43,0,
2,9600,Note_off_c,9,44,0,
2,9600,Note_off_c,9,45,0,
2,9600,Note_off_c,9,46,0,
2,9600,Note_off_c,9,47,0,
2,9600,Note_off_c,9,48,0,
2,9600,Note_off_c,9,49,0,
2,9600,Note_off_c,9,50,0,
2,9600,Note_off_c,9,51,0,
2,9600,Note_off_c,9,56,0,
2,9600,Note_off_c,9,57,0,
2,9600,Note_off_c,9,59,0,
2,9600,Note_off_c,9,60,0,
2,9600,Note_off_c,9,61,0,
2,9600,Note_off_c,9,63,0,
2,9600,Note_off_c,9,68,0,
2,9600,Note_off_c,9,69,0,
2,9600,Note_off_c,9,70,0,
2,9600,Note_off_c,9,76,0,
2,9600,Note_off_c,9,80,0,
2,9600,Note_off_c,9,81,0,
2,9600,Note_off_c,9,82,0,
2,9600,Note_off_c,9,87,0,
2,9600,Note_off_c,9,88,0,
2,9600,Note_off_c,9,89,0,
2,9600,Note_off_c,9,91,0,
2,9600,Note_off_c,9,93,0,
2,9630,Note_off_c,9,35,0,
2,9630,Note_off_c,9,36,0,
2,9630,Note_off_c,9,37,0,
2,9630,Note_off_c,9,38,0,
2,9630,Note_off_c,9,39,0,
2,9630,Note_off_c,9,40,0,
2,9630,Note_off_c,9,41,0,
2,9630,Note_off_c,9,42,0,
2,9630,Note_off_c,9,43,0,
2,9630,Note_off_c,9,44,0,
2,9630,Note_off_c,9,45,0,
2,9630,Note_off_c,9,46,0,
2,9630,Note_off_c,9,47,0,
2,9630,Note_off_c,9,48,0,
2,9630,Note_off_c,9,49,0,
2,9630,Note_off_c,9,50,0,
2,9630,Note_off_c,9,51,0,
2,9630,Note_off_c,9,56,0,
2,9630,Note_off_c,9,57,0,
2,9630,Note_off_c,9,59,0,
2,9630,Note_off_c,9,60,0,
2,9630,Note_off_c,9,61,0,
2,9630,Note_off_c,9,63,0,
2,9630,Note_off_c,9,68,0,
2,9630,Note_off_c,9,69,0,
2,9630,Note_off_c,9,70,0,
2,9630,Note_off_c,9,76,0,
2,9630,Note_off_c,9,80,0,
2,9630,Note_off_c,9,81,0,
2,9630,Note_off_c,9,82,0,
2,9630,Note_off_c,9,87,0,
2,9630,Note_off_c,9,88,0,
2,9630,Note_off_c,9,89,0,
2,9630,Note_off_c,9,91,0,
2,9630,Note_off_c,9,93,0,
2,9660,Note_off_c,9,35,0,
2,9660,Note_off_c,9,36,0,
2,9660,Note_off_c,9,37,0,
2,9660,Note_off_c,9,38,0,
2,9660,Note_off_c,9,39,0,
2,9660,Note_off_c,9,40,0,
2,9660,Note_off_c,9,41,0,
2,9660,Note_off_c,9,42,0,
2,9660,Note_off_c,9,43,0,
2,9660,Note_off_c,9,44,0,
2,9660,Note_off_c,9,45,0,
2,9660,Note_off_c,9,46,0,
2,9660,Note_off_c,9,47,0,
2,9660,Note_off_c,9,48,0,
2,9660,Note_off_c,9,49,0,
2,9660,Note_off_c,9,50,0,
2,9660,Note_off_c,9,51,0,
2,9660,Note_off_c,9,56,0,
2,9660,Note_off_c,9,57,0,
2,9660,Note_off_c,9,59,0,
2,9660,Note_off_c,9,60,0,
2,9660,Note_off_c,9,61,0,
2,9660,Note_off_c,9,63,0,
2,9660,Note_off_c,9,68,0,
2,9660,Note_off_c,9,69,0,
2,9660,Note_off_c,9,70,0,
2,9660,Note_off_c,9,76,0,
2,9660,Note_off_c,9,80,0,
2,9660,Note_off_c,9,81,0,
2,9660,Note_off_c,9,82,0,
2,9660,Note_off_c,9,87,0,
2,9660,Note_off_c,9,88,0,
2,9660,Note_off_c,9,89,0,
2,9660,Note_off_c,9,91,0,
2,9660,Note_off_c,9,93,0,
2,9690,Note_off_c,9,35,0,
2,9690,Note_off_c,9,36,0,
2,9690,Note_off_c,9,37,0,
2,9690,Note_off_c,9,38,0,
2,9690,Note_off_c,9,39,0,
2,9690,Note_off_c,9,40,0,
2,9690,Note_off_c,9,41,0,
2,9690,Note_off_c,9,42,0,
2,9690,Note_off_c,9,43,0,
2,9690,Note_off_c,9,44,0,
2,9690,Note_off_c,9,45,0,
2,9690,Note_off_c,9,46,0,
2,9690,Note_off_c,9,47,0,
2,9690,Note_off_c,9,48,0,
2,9690,Note_off_c,9,49,0,
2,9690,Note_off_c,9,50,0,
2,9690,Note_off_c,9,51,0,
2,9690,Note_off_c,9,56,0,
2,9690,Note_off_c,9,57,0,
2,9690,Note_off_c,9,59,0,
2,9690,Note_off_c,9,60,0,
2,9690,Note_off_c,9,61,0,
2,9690,Note_off_c,9,63,0,
2,9690,Note_off_c,9,68,0,
2,9690,Note_off_c,9,69,0,
2,9690,Note_off_c,9,70,0,
2,9690,Note_off_c,9,76,0,
2,9690,Note_off_c,9,80,0,
2,9690,Note_off_c,9,81,0,
2,9690,Note_off_c,9,82,0,
2,9690,Note_off_c,9,87,0,
2,9690,Note_off_c,9,88,0,
2,9690,Note_off_c,9,89,0,
2,9690,Note_off_c,9,91,0,
2,9690,Note_off_c,9,93,0,
2,9720,Note_off_c,9,35,0,
2,9720,Note_off_c,9,36,0,
2,9720,Note_off_c,9,37,0,
2,9720,Note_off_c,9,38,0,
2,9720,Note_off_c,9,39,0,
2,9720,Note_off_c,9,40,0,
2,9720,Note_off_c,9,41,0,
2,9720,Note_off_c,9,42,0,
2,9720,Note_off_c,9,43,0,
2,9720,Note_off_c,9,44,0,
2,9720,Note_off_c,9,45,0,
2,9720,Note_off_c,9,46,0,
2,9720,Note_off_c,9,47,0,
2,9720,Note_off_c,9,48,0,
2,9720,Note_off_c,9,49,0,
2,9720,Note_off_c,9,50,0,
2,9720,Note_off_c,9,51,0,
2,9720,Note_off_c,9,56,0,
2,9720,Note_off_c,9,57,0,
2,9720,Note_off_c,9,59,0,
2,9720,Note_off_c,9,60,0,
2,9720,Note_off_c,9,61,0,
2,9720,Note_off_c,9,63,0,
2,9720,Note_off_c,9,68,0,
2,9720,Note_off_c,9,69,0,
2,9720,Note_off_c,9,70,0,
2,9720,Note_off_c,9,76,0,
2,9720,Note_off_c,9,80,0,
2,9720,Note_off_c,9,81,0,
2,9720,Note_off_c,9,82,0,
2,9720,Note_off_c,9,87,0,
2,9720,Note_off_c,9,88,0,
2,9720,Note_off_c,9,89,0,
2,9720,Note_off_c,9,91,0,
2,9720,Note_off_c,9,93,0,
2,9750,Note_off_c,9,35,0,
2,9750,Note_off_c,9,36,0,
2,9750,Note_off_c,9,37,0,
2,9750,Note_off_c,9,38,0,
2,9750,Note_off_c,9,39,0,
2,9750,Note_off_c,9,40,0,
2,9750,Note_off_c,9,41,0,
2,9750,Note_off_c,9,42,0,
2,9750,Note_off_c,9,43,0,
2,9750,Note_off_c,9,44,0,
2,9750,Note_off_c,9,45,0,
2,9750,Note_off_c,9,46,0,
2,9750,Note_off_c,9,47,0,
2,9750,Note_off_c,9,48,0,
2,9750,Note_off_c,9,49,0,
2,9750,Note_off_c,9,50,0,
2,9750,Note_off_c,9,51,0,
2,9750,Note_off_c,9,56,0,
2,9750,Note_off_c,9,57,0,
2,9750,Note_off_c,9,59,0,
2,9750,Note_off_c,9,60,0,
2,9750,Note_off_c,9,61,0,
2,9750,Note_off_c,9,63,0,
2,9750,Note_off_c,9,68,0,
2,9750,Note_off_c,9,69,0,
2,9750,Note_off_c,9,70,0,
2,9750,Note_off_c,9,76,0,
2,9750,Note_off_c,9,80,0,
2,9750,Note_off_c,9,81,0,
2,9750,Note_off_c,9,82,0,
2,9750,Note_off_c,9,87,0,
2,9750,Note_off_c,9,88,0,
2,9750,Note_off_c,9,89,0,
2,9750,Note_off_c,9,91,0,
2,9750,Note_off_c,9,93,0,
2,9780,Note_off_c,9,35,0,
2,9780,Note_off_c,9,36,0,
2,9780,Note_off_c,9,37,0,
2,9780,Note_off_c,9,38,0,
2,9780,Note_off_c,9,39,0,
2,9780,Note_off_c,9,40,0,
2,9780,Note_off_c,9,41,0,
2,9780,Note_off_c,9,42,0,
2,9780,Note_off_c,9,43,0,
2,9780,Note_off_c,9,44,0,
2,9780,Note_off_c,9,45,0,
2,9780,Note_off_c,9,46,0,
2,9780,Note_off_c,9,47,0,
2,9780,Note_off_c,9,48,0,
2,9780,Note_off_c,9,49,0,
2,9780,Note_off_c,9,50,0,
2,9780,Note_off_c,9,51,0,
2,9780,Note_off_c,9,56,0,
2,9780,Note_off_c,9,57,0,
2,9780,Note_off_c,9,59,0,
2,9780,Note_off_c,9,60,0,
2,9780,Note_off_c,9,61,0,
2,9780,Note_off_c,9,63,0,
2,9780,Note_off_c,9,68,0,
2,9780,Note_off_c,9,69,0,
2,9780,Note_off_c,9,70,0,
2,9780,Note_off_c,9,76,0,
2,9780,Note_off_c,9,80,0,
2,9780,Note_off_c,9,81,0,
2,9780,Note_off_c,9,82,0,
2,9780,Note_off_c,9,87,0,
2,9780,Note_off_c,9,88,0,
2,9780,Note_off_c,9,89,0,
2,9780,Note_off_c,9,91,0,
2,9780,Note_off_c,9,93,0,
2,9810,Note_off_c,9,35,0,
2,9810,Note_off_c,9,36,0,
2,9810,Note_off_c,9,37,0,
2,9810,Note_off_c,9,38,0,
2,9810,Note_off_c,9,39,0,
2,9810,Note_off_c,9,40,0,
2,9810,Note_off_c,9,41,0,
2,9810,Note_off_c,9,42,0,
2,9810,Note_off_c,9,43,0,
2,9810,Note_off_c,9,44,0,
2,9810,Note_off_c,9,45,0,
2,9810,Note_off_c,9,46,0,
2,9810,Note_off_c,9,47,0,
2,9810,Note_off_c,9,48,0,
2,9810,Note_off_c,9,49,0,
2,9810,Note_off_c,9,50,0,
2,9810,Note_off_c,9,51,0,
2,9810,Note_off_c,9,56,0,
2,9810,Note_off_c,9,57,0,
2,9810,Note_off_c,9,59,0,
2,9810,Note_off_c,9,60,0,
2,9810,Note_off_c,9,61,0,
2,9810,Note_off_c,9,63,0,
2,9810,Note_off_c,9,68,0,
2,9810,Note_off_c,9,69,0,
2,9810,Note_off_c,9,70,0,
2,9810,Note_off_c,9,76,0,
2,9810,Note_off_c,9,80,0,
2,9810,Note_off_c,9,81,0,
2,9810,Note_off_c,9,82,0,
2,9810,Note_off_c,9,87,0,
2,9810,Note_off_c,9,88,0,
2,9810,Note_off_c,9,89,0,
2,9810,Note_off_c,9,91,0,
2,9810,Note_off_c,9,93,0,
2,9840,Note_off_c,9,35,0,
2,9840,Note_off_c,9,36,0,
2,9840,Note_off_c,9,37,0,
2,9840,Note_off_c,9,38,0,
2,9840,Note_off_c,9,39,0,
2,9840,Note_off_c,9,40,0,
2,9840,Note_off_c,9,41,0,
2,9840,Note_off_c,9,42,0,
2,9840,Note_off_c,9,43,0,
2,9840,Note_off_c,9,44,0,
2,9840,Note_off_c,9,45,0,
2,9840,Note_off_c,9,46,0,
2,9840,Note_off_c,9,47,0,
2,9840,Note_off_c,9,48,0,
2,9840,Note_off_c,9,49,0,
2,9840,Note_off_c,9,50,0,
2,9840,Note_off_c,9,51,0,
2,9840,Note_off_c,9,56,0,
2,9840,Note_off_c,9,57,0,
2,9840,Note_off_c,9,59,0,
2,9840,Note_off_c,9,60,0,
2,9840,Note_off_c,9,61,0,
2,9840,Note_off_c,9,63,0,
2,9840,Note_off_c,9,68,0,
2,9840,Note_off_c,9,69,0,
2,9840,Note_off_c,9,70,0,
2,9840,Note_off_c,9,76,0,
2,9840,Note_off_c,9,80,0,
2,9840,Note_off_c,9,81,0,
2,9840,Note_off_c,9,82,0,
2,9840,Note_off_c,9,87,0,
2,9840,Note_off_c,9,88,0,
2,9840,Note_off_c,9,89,0,
2,9840,Note_off_c,9,91,0,
2,9840,Note_off_c,9,93,0,
2,9870,Note_off_c,9,35,0,
2,9870,Note_off_c,9,36,0,
2,9870,Note_off_c,9,37,0,
2,9870,Note_off_c,9,38,0,
2,9870,Note_off_c,9,39,0,
2,9870,Note_off_c,9,40,0,
2,9870,Note_off_c,9,41,0,
2,9870,Note_off_c,9,42,0,
2,9870,Note_off_c,9,43,0,
2,9870,Note_off_c,9,44,0,
2,9870,Note_off_c,9,45,0,
2,9870,Note_off_c,9,46,0,
2,9870,Note_off_c,9,47,0,
2,9870,Note_off_c,9,48,0,
2,9870,Note_off_c,9,49,0,
2,9870,Note_off_c,9,50,0,
2,9870,Note_off_c,9,51,0,
2,9870,Note_off_c,9,56,0,
2,9870,Note_off_c,9,57,0,
2,9870,Note_off_c,9,59,0,
2,9870,Note_off_c,9,60,0,
2,9870,Note_off_c,9,61,0,
2,9870,Note_off_c,9,63,0,
2,9870,Note_off_c,9,68,0,
2,9870,Note_off_c,9,69,0,
2,9870,Note_off_c,9,70,0,
2,9870,Note_off_c,9,76,0,
2,9870,Note_off_c,9,80,0,
2,9870,Note_off_c,9,81,0,
2,9870,Note_off_c,9,82,0,
2,9870,Note_off_c,9,87,0,
2,9870,Note_off_c,9,88,0,
2,9870,Note_off_c,9,89,0,
2,9870,Note_off_c,9,91,0,
2,9870,Note_off_c,9,93,0,
2,9900,Note_off_c,9,35,0,
2,9900,Note_off_c,9,36,0,
2,9900,Note_off_c,9,37,0,
2,9900,Note_off_c,9,38,0,
2,9900,Note_off_c,9,39,0,
2,9900,Note_off_c,9,40,0,
2,9900,Note_off_c,9,41,0,
2,9900,Note_off_c,9,42,0,
2,9900,Note_off_c,9,43,0,
2,9900,Note_off_c,9,44,0,
2,9900,Note_off_c,9,45,0,
2,9900,Note_off_c,9,46,0,
2,9900,Note_off_c,9,47,0,
2,9900,Note_off_c,9,48,0,
2,9900,Note_off_c,9,49,0,
2,9900,Note_off_c,9,50,0,
2,9900,Note_off_c,9,51,0,
2,9900,Note_off_c,9,56,0,
2,9900,Note_off_c,9,57,0,
2,9900,Note_off_c,9,59,0,
2,9900,Note_off_c,9,60,0,
2,9900,Note_off_c,9,61,0,
2,9900,Note_off_c,9,63,0,
2,9900,Note_off_c,9,68,0,
2,9900,Note_off_c,9,69,0,
2,9900,Note_off_c,9,70,0,
2,9900,Note_off_c,9,76,0,
2,9900,Note_off_c,9,80,0,
2,9900,Note_off_c,9,81,0,
2,9900,Note_off_c,9,82,0,
2,9900,Note_off_c,9,87,0,
2,9900,Note_off_c,9,88,0,
2,9900,Note_off_c,9,89,0,
2,9900,Note_off_c,9,91,0,
2,9900,Note_off_c,9,93,0,
2,9930,Note_off_c,9,35,0,
2,9930,Note_off_c,9,36,0,
2,9930,Note_off_c,9,37,0,
2,9930,Note_off_c,9,38,0,
2,9930,Note_off_c,9,39,0,
2,9930,Note_off_c,9,40,0,
2,9930,Note_off_c,9,41,0,
2,9930,Note_off_c,9,42,0,
2,9930,Note_off_c,9,43,0,
2,9930,Note_off_c,9,44,0,
2,9930,Note_off_c,9,45,0,
2,9930,Note_off_c,9,46,0,
2,9930,Note_off_c,9,47,0,
2,9930,Note_off_c,9,48,0,
2,9930,Note_off_c,9,49,0,
2,9930,Note_off_c,9,50,0,
2,9930,Note_off_c,9,51,0,
2,9930,Note_off_c,9,56,0,
2,9930,Note_off_c,9,57,0,
2,9930,Note_off_c,9,59,0,
2,9930,Note_off_c,9,60,0,
2,9930,Note_off_c,9,61,0,
2,9930,Note_off_c,9,63,0,
2,9930,Note_off_c,9,68,0,
2,9930,Note_off_c,9,69,0,
2,9930,Note_off_c,9,70,0,
2,9930,Note_off_c,9,76,0,
2,9930,Note_off_c,9,80,0,
2,9930,Note_off_c,9,81,0,
2,9930,Note_off_c,9,82,0,
2,9930,Note_off_c,9,87,0,
2,9930,Note_off_c,9,88,0,
2,9930,Note_off_c,9,89,0,
2,9930,Note_off_c,9,91,0,
2,9930,Note_off_c,9,93,0,
2,9960,Note_off_c,9,35,0,
2,9960,Note_off_c,9,36,0,
2,9960,Note_off_c,9,37,0,
2,9960,Note_off_c,9,38,0,
2,9960,Note_off_c,9,39,0,
2,9960,Note_off_c,9,40,0,
2,9960,Note_off_c,9,41,0,
2,9960,Note_off_c,9,42,0,
2,9960,Note_off_c,9,43,0,
2,9960,Note_off_c,9,44,0,
2,9960,Note_off_c,9,45,0,
2,9960,Note_off_c,9,46,0,
2,9960,Note_off_c,9,47,0,
2,9960,Note_off_c,9,48,0,
2,9960,Note_off_c,9,49,0,
2,9960,Note_off_c,9,50,0,
2,9960,Note_off_c,9,51,0,
2,9960,Note_off_c,9,56,0,
2,9960,Note_off_c,9,57,0,
2,9960,Note_off_c,9,59,0,
2,9960,Note_off_c,9,60,0,
2,9960,Note_off_c,9,61,0,
2,9960,Note_off_c,9,63,0,
2,9960,Note_off_c,9,68,0,
2,9960,Note_off_c,9,69,0,
2,9960,Note_off_c,9,70,0,
2,9960,Note_off_c,9,76,0,
2,9960,Note_off_c,9,80,0,
2,9960,Note_off_c,9,81,0,
2,9960,Note_off_c,9,82,0,
2,9960,Note_off_c,9,87,0,
2,9960,Note_off_c,9,88,0,
2,9960,Note_off_c,9,89,0,
2,9960,Note_off_c,9,91,0,
2,9960,Note_off_c,9,93,0,
2,9990,Note_off_c,9,35,0,
2,9990,Note_off_c,9,36,0,
2,9990,Note_off_c,9,37,0,
2,9990,Note_off_c,9,38,0,
2,9990,Note_off_c,9,39,0,
2,9990,Note_off_c,9,40,0,
2,9990,Note_off_c,9,41,0,
2,9990,Note_off_c,9,42,0,
2,9990,Note_off_c,9,43,0,
2,9990,Note_off_c,9,44,0,
2,9990,Note_off_c,9,45,0,
2,9990,Note_off_c,9,46,0,
2,9990,Note_off_c,9,47,0,
2,9990,Note_off_c,9,48,0,
2,9990,Note_off_c,9,49,0,
2,9990,Note_off_c,9,50,0,
2,9990,Note_off_c,9,51,0,
2,9990,Note_off_c,9,56,0,
2,9990,Note_off_c,9,57,0,
2,9990,Note_off_c,9,59,0,
2,9990,Note_off_c,9,60,0,
2,9990,Note_off_c,9,61,0,
2,9990,Note_off_c,9,63,0,
2,9990,Note_off_c,9,68,0,
2,9990,Note_off_c,9,69,0,
2,9990,Note_off_c,9,70,0,
2,9990,Note_off_c,9,76,0,
2,9990,Note_off_c,9,80,0,
2,9990,Note_off_c,9,81,0,
2,9990,Note_off_c,9,82,0,
2,9990,Note_off_c,9,87,0,
2,9990,Note_off_c,9,88,0,
2,9990,Note_off_c,9,89,0,
2,9990,Note_off_c,9,91,0,
2,9990,Note_off_c,9,93,0,
2,10020,Note_off_c,9,35,0,
2,10020,Note_off_c,9,36,0,
2,10020,Note_off_c,9,37,0,
2,10020,Note_off_c,9,38,0,
2,10020,Note_off_c,9,39,0,
2,10020,Note_off_c,9,40,0,
2,10020,Note_off_c,9,41,0,
2,10020,Note_off_c,9,42,0,
2,10020,Note_off_c,9,43,0,
2,10020,Note_off_c,9,44,0,
2,10020,Note_off_c,9,45,0,
2,10020,Note_off_c,9,46,0,
2,10020,Note_off_c,9,47,0,
2,10020,Note_off_c,9,48,0,
2,10020,Note_off_c,9,49,0,
2,10020,Note_off_c,9,50,0,
2,10020,Note_off_c,9,51,0,
2,10020,Note_off_c,9,56,0,
2,10020,Note_off_c,9,57,0,
2,10020,Note_off_c,9,59,0,
2,10020,Note_off_c,9,60,0,
2,10020,Note_off_c,9,61,0,
2,10020,Note_off_c,9,63,0,
2,10020,Note_off_c,9,68,0,
2,10020,Note_off_c,9,69,0,
2,10020,Note_off_c,9,70,0,
2,10020,Note_off_c,9,76,0,
2,10020,Note_off_c,9,80,0,
2,10020,Note_off_c,9,81,0,
2,10020,Note_off_c,9,82,0,
2,10020,Note_off_c,9,87,0,
2,10020,Note_off_c,9,88,0,
2,10020,Note_off_c,9,89,0,
2,10020,Note_off_c,9,91,0,
2,10020,Note_off_c,9,93,0,
2,10050,Note_off_c,9,35,0,
2,10050,Note_off_c,9,36,0,
2,10050,Note_off_c,9,37,0,
2,10050,Note_off_c,9,38,0,
2,10050,Note_off_c,9,39,0,
2,10050,Note_off_c,9,40,0,
2,10050,Note_off_c,9,41,0,
2,10050,Note_off_c,9,42,0,
2,10050,Note_off_c,9,43,0,
2,10050,Note_off_c,9,44,0,
2,10050,Note_off_c,9,45,0,
2,10050,Note_off_c,9,46,0,
2,10050,Note_off_c,9,47,0,
2,10050,Note_off_c,9,48,0,
2,10050,Note_off_c,9,49,0,
2,10050,Note_off_c,9,50,0,
2,10050,Note_off_c,9,51,0,
2,10050,Note_off_c,9,56,0,
2,10050,Note_off_c,9,57,0,
2,10050,Note_off_c,9,59,0,
2,10050,Note_off_c,9,60,0,
2,10050,Note_off_c,9,61,0,
2,10050,Note_off_c,9,63,0,
2,10050,Note_off_c,9,68,0,
2,10050,Note_off_c,9,69,0,
2,10050,Note_off_c,9,70,0,
2,10050,Note_off_c,9,76,0,
2,10050,Note_off_c,9,80,0,
2,10050,Note_off_c,9,81,0,
2,10050,Note_off_c,9,82,0,
2,10050,Note_off_c,9,87,0,
2,10050,Note_off_c,9,88,0,
2,10050,Note_off_c,9,89,0,
2,10050,Note_off_c,9,91,0,
2,10050,Note_off_c,9,93,0,
2,10080,Note_off_c,9,35,0,
2,10080,Note_off_c,9,36,0,
2,10080,Note_off_c,9,37,0,
2,10080,Note_off_c,9,38,0,
2,10080,Note_off_c,9,39,0,
2,10080,Note_off_c,9,40,0,
2,10080,Note_off_c,9,41,0,
2,10080,Note_off_c,9,42,0,
2,10080,Note_off_c,9,43,0,
2,10080,Note_off_c,9,44,0,
2,10080,Note_off_c,9,45,0,
2,10080,Note_off_c,9,46,0,
2,10080,Note_off_c,9,47,0,
2,10080,Note_off_c,9,48,0,
2,10080,Note_off_c,9,49,0,
2,10080,Note_off_c,9,50,0,
2,10080,Note_off_c,9,51,0,
2,10080,Note_off_c,9,56,0,
2,10080,Note_off_c,9,57,0,
2,10080,Note_off_c,9,59,0,
2,10080,Note_off_c,9,60,0,
2,10080,Note_off_c,9,61,0,
2,10080,Note_off_c,9,63,0,
2,10080,Note_off_c,9,68,0,
2,10080,Note_off_c,9,69,0,
2,10080,Note_off_c,9,70,0,
2,10080,Note_off_c,9,76,0,
2,10080,Note_off_c,9,80,0,
2,10080,Note_off_c,9,81,0,
2,10080,Note_off_c,9,82,0,
2,10080,Note_off_c,9,87,0,
2,10080,Note_off_c,9,88,0,
2,10080,Note_off_c,9,89,0,
2,10080,Note_off_c,9,91,0,
2,10080,Note_off_c,9,93,0,
2,10110,Note_off_c,9,35,0,
2,10110,Note_off_c,9,36,0,
2,10110,Note_off_c,9,37,0,
2,10110,Note_off_c,9,38,0,
2,10110,Note_off_c,9,39,0,
2,10110,Note_off_c,9,40,0,
2,10110,Note_off_c,9,41,0,
2,10110,Note_off_c,9,42,0,
2,10110,Note_off_c,9,43,0,
2,10110,Note_off_c,9,44,0,
2,10110,Note_off_c,9,45,0,
2,10110,Note_off_c,9,46,0,
2,10110,Note_off_c,9,47,0,
2,10110,Note_off_c,9,48,0,
2,10110,Note_off_c,9,49,0,
2,10110,Note_off_c,9,50,0,
2,10110,Note_off_c,9,51,0,
2,10110,Note_off_c,9,56,0,
2,10110,Note_off_c,9,57,0,
2,10110,Note_off_c,9,59,0,
2,10110,Note_off_c,9,60,0,
2,10110,Note_off_c,9,61,0,
2,10110,Note_off_c,9,63,0,
2,10110,Note_off_c,9,68,0,
2,10110,Note_off_c,9,69,0,
2,10110,Note_off_c,9,70,0,
2,10110,Note_off_c,9,76,0,
2,10110,Note_off_c,9,80,0,
2,10110,Note_off_c,9,81,0,
2,10110,Note_off_c,9,82,0,
2,10110,Note_off_c,9,87,0,
2,10110,Note_off_c,9,88,0,
2,10110,Note_off_c,9,89,0,
2,10110,Note_off_c,9,91,0,
2,10110,Note_off_c,9,93,0,
2,10140,Note_off_c,9,35,0,
2,10140,Note_off_c,9,36,0,
2,10140,Note_off_c,9,37,0,
2,10140,Note_off_c,9,38,0,
2,10140,Note_off_c,9,39,0,
2,10140,Note_off_c,9,40,0,
2,10140,Note_off_c,9,41,0,
2,10140,Note_off_c,9,42,0,
2,10140,Note_off_c,9,43,0,
2,10140,Note_off_c,9,44,0,
2,10140,Note_off_c,9,45,0,
2,10140,Note_off_c,9,46,0,
2,10140,Note_off_c,9,47,0,
2,10140,Note_off_c,9,48,0,
2,10140,Note_off_c,9,49,0,
2,10140,Note_off_c,9,50,0,
2,10140,Note_off_c,9,51,0,
2,10140,Note_off_c,9,56,0,
2,10140,Note_off_c,9,57,0,
2,10140,Note_off_c,9,59,0,
2,10140,Note_off_c,9,60,0,
2,10140,Note_off_c,9,61,0,
2,10140,Note_off_c,9,63,0,
2,10140,Note_off_c,9,68,0,
2,10140,Note_off_c,9,69,0,
2,10140,Note_off_c,9,70,0,
2,10140,Note_off_c,9,76,0,
2,10140,Note_off_c,9,80,0,
2,10140,Note_off_c,9,81,0,
2,10140,Note_off_c,9,82,0,
2,10140,Note_off_c,9,87,0,
2,10140,Note_off_c,9,88,0,
2,10140,Note_off_c,9,89,0,
2,10140,Note_off_c,9,91,0,
2,10140,Note_off_c,9,93,0,
2,10170,Note_off_c,9,35,0,
2,10170,Note_off_c,9,36,0,
2,10170,Note_off_c,9,37,0,
2,10170,Note_off_c,9,38,0,
2,10170,Note_off_c,9,39,0,
2,10170,Note_off_c,9,40,0,
2,10170,Note_off_c,9,41,0,
2,10170,Note_off_c,9,42,0,
2,10170,Note_off_c,9,43,0,
2,10170,Note_off_c,9,44,0,
2,10170,Note_off_c,9,45,0,
2,10170,Note_off_c,9,46,0,
2,10170,Note_off_c,9,47,0,
2,10170,Note_off_c,9,48,0,
2,10170,Note_off_c,9,49,0,
2,10170,Note_off_c,9,50,0,
2,10170,Note_off_c,9,51,0,
2,10170,Note_off_c,9,56,0,
2,10170,Note_off_c,9,57,0,
2,10170,Note_off_c,9,59,0,
2,10170,Note_off_c,9,60,0,
2,10170,Note_off_c,9,61,0,
2,10170,Note_off_c,9,63,0,
2,10170,Note_off_c,9,68,0,
2,10170,Note_off_c,9,69,0,
2,10170,Note_off_c,9,70,0,
2,10170,Note_off_c,9,76,0,
2,10170,Note_off_c,9,80,0,
2,10170,Note_off_c,9,81,0,
2,10170,Note_off_c,9,82,0,
2,10170,Note_off_c,9,87,0,
2,10170,Note_off_c,9,88,0,
2,10170,Note_off_c,9,89,0,
2,10170,Note_off_c,9,91,0,
2,10170,Note_off_c,9,93,0,
2,10200,Note_off_c,9,35,0,
2,10200,Note_off_c,9,36,0,
2,10200,Note_off_c,9,37,0,
2,10200,Note_off_c,9,38,0,
2,10200,Note_off_c,9,39,0,
2,10200,Note_off_c,9,40,0,
2,10200,Note_off_c,9,41,0,
2,10200,Note_off_c,9,42,0,
2,10200,Note_off_c,9,43,0,
2,10200,Note_off_c,9,44,0,
2,10200,Note_off_c,9,45,0,
2,10200,Note_off_c,9,46,0,
2,10200,Note_off_c,9,47,0,
2,10200,Note_off_c,9,48,0,
2,10200,Note_off_c,9,49,0,
2,10200,Note_off_c,9,50,0,
2,10200,Note_off_c,9,51,0,
2,10200,Note_off_c,9,56,0,
2,10200,Note_off_c,9,57,0,
2,10200,Note_off_c,9,59,0,
2,10200,Note_off_c,9,60,0,
2,10200,Note_off_c,9,61,0,
2,10200,Note_off_c,9,63,0,
2,10200,Note_off_c,9,68,0,
2,10200,Note_off_c,9,69,0,
2,10200,Note_off_c,9,70,0,
2,10200,Note_off_c,9,76,0,
2,10200,Note_off_c,9,80,0,
2,10200,Note_off_c,9,81,0,
2,10200,Note_off_c,9,82,0,
2,10200,Note_off_c,9,87,0,
2,10200,Note_off_c,9,88,0,
2,10200,Note_off_c,9,89,0,
2,10200,Note_off_c,9,91,0,
2,10200,Note_off_c,9,93,0,
2,10230,Note_off_c,9,35,0,
2,10230,Note_off_c,9,36,0,
2,10230,Note_off_c,9,37,0,
2,10230,Note_off_c,9,38,0,
2,10230,Note_off_c,9,39,0,
2,10230,Note_off_c,9,40,0,
2,10230,Note_off_c,9,41,0,
2,10230,Note_off_c,9,42,0,
2,10230,Note_off_c,9,43,0,
2,10230,Note_off_c,9,44,0,
2,10230,Note_off_c,9,45,0,
2,10230,Note_off_c,9,46,0,
2,10230,Note_off_c,9,47,0,
2,10230,Note_off_c,9,48,0,
2,10230,Note_off_c,9,49,0,
2,10230,Note_off_c,9,50,0,
2,10230,Note_off_c,9,51,0,
2,10230,Note_off_c,9,56,0,
2,10230,Note_off_c,9,57,0,
2,10230,Note_off_c,9,59,0,
2,10230,Note_off_c,9,60,0,
2,10230,Note_off_c,9,61,0,
2,10230,Note_off_c,9,63,0,
2,10230,Note_off_c,9,68,0,
2,10230,Note_off_c,9,69,0,
2,10230,Note_off_c,9,70,0,
2,10230,Note_off_c,9,76,0,
2,10230,Note_off_c,9,80,0,
2,10230,Note_off_c,9,81,0,
2,10230,Note_off_c,9,82,0,
2,10230,Note_off_c,9,87,0,
2,10230,Note_off_c,9,88,0,
2,10230,Note_off_c,9,89,0,
2,10230,Note_off_c,9,91,0,
2,10230,Note_off_c,9,93,0,
2,10260,Note_off_c,9,35,0,
2,10260,Note_off_c,9,36,0,
2,10260,Note_off_c,9,37,0,
2,10260,Note_off_c,9,38,0,
2,10260,Note_off_c,9,39,0,
2,10260,Note_off_c,9,40,0,
2,10260,Note_off_c,9,41,0,
2,10260,Note_off_c,9,42,0,
2,10260,Note_off_c,9,43,0,
2,10260,Note_off_c,9,44,0,
2,10260,Note_off_c,9,45,0,
2,10260,Note_off_c,9,46,0,
2,10260,Note_off_c,9,47,0,
2,10260,Note_off_c,9,48,0,
2,10260,Note_off_c,9,49,0,
2,10260,Note_off_c,9,50,0,
2,10260,Note_off_c,9,51,0,
2,10260,Note_off_c,9,56,0,
2,10260,Note_off_c,9,57,0,
2,10260,Note_off_c,9,59,0,
2,10260,Note_off_c,9,60,0,
2,10260,Note_off_c,9,61,0,
2,10260,Note_off_c,9,63,0,
2,10260,Note_off_c,9,68,0,
2,10260,Note_off_c,9,69,0,
2,10260,Note_off_c,9,70,0,
2,10260,Note_off_c,9,76,0,
2,10260,Note_off_c,9,80,0,
2,10260,Note_off_c,9,81,0,
2,10260,Note_off_c,9,82,0,
2,10260,Note_off_c,9,87,0,
2,10260,Note_off_c,9,88,0,
2,10260,Note_off_c,9,89,0,
2,10260,Note_off_c,9,91,0,
2,10260,Note_off_c,9,93,0,
2,10290,Note_off_c,9,35,0,
2,10290,Note_off_c,9,36,0,
2,10290,Note_off_c,9,37,0,
2,10290,Note_off_c,9,38,0,
2,10290,Note_off_c,9,39,0,
2,10290,Note_off_c,9,40,0,
2,10290,Note_off_c,9,41,0,
2,10290,Note_off_c,9,42,0,
2,10290,Note_off_c,9,43,0,
2,10290,Note_off_c,9,44,0,
2,10290,Note_off_c,9,45,0,
2,10290,Note_off_c,9,46,0,
2,10290,Note_off_c,9,47,0,
2,10290,Note_off_c,9,48,0,
2,10290,Note_off_c,9,49,0,
2,10290,Note_off_c,9,50,0,
2,10290,Note_off_c,9,51,0,
2,10290,Note_off_c,9,56,0,
2,10290,Note_off_c,9,57,0,
2,10290,Note_off_c,9,59,0,
2,10290,Note_off_c,9,60,0,
2,10290,Note_off_c,9,61,0,
2,10290,Note_off_c,9,63,0,
2,10290,Note_off_c,9,68,0,
2,10290,Note_off_c,9,69,0,
2,10290,Note_off_c,9,70,0,
2,10290,Note_off_c,9,76,0,
2,10290,Note_off_c,9,80,0,
2,10290,Note_off_c,9,81,0,
2,10290,Note_off_c,9,82,0,
2,10290,Note_off_c,9,87,0,
2,10290,Note_off_c,9,88,0,
2,10290,Note_off_c,9,89,0,
2,10290,Note_off_c,9,91,0,
2,10290,Note_off_c,9,93,0,
2,10320,Note_off_c,9,35,0,
2,10320,Note_off_c,9,36,0,
2,10320,Note_off_c,9,37,0,
2,10320,Note_off_c,9,38,0,
2,10320,Note_off_c,9,39,0,
2,10320,Note_off_c,9,40,0,
2,10320,Note_off_c,9,41,0,
2,10320,Note_off_c,9,42,0,
2,10320,Note_off_c,9,43,0,
2,10320,Note_off_c,9,44,0,
2,10320,Note_off_c,9,45,0,
2,10320,Note_off_c,9,46,0,
2,10320,Note_off_c,9,47,0,
2,10320,Note_off_c,9,48,0,
2,10320,Note_off_c,9,49,0,
2,10320,Note_off_c,9,50,0,
2,10320,Note_off_c,9,51,0,
2,10320,Note_off_c,9,56,0,
2,10320,Note_off_c,9,57,0,
2,10320,Note_off_c,9,59,0,
2,10320,Note_off_c,9,60,0,
2,10320,Note_off_c,9,61,0,
2,10320,Note_off_c,9,63,0,
2,10320,Note_off_c,9,68,0,
2,10320,Note_off_c,9,69,0,
2,10320,Note_off_c,9,70,0,
2,10320,Note_off_c,9,76,0,
2,10320,Note_off_c,9,80,0,
2,10320,Note_off_c,9,81,0,
2,10320,Note_off_c,9,82,0,
2,10320,Note_off_c,9,87,0,
2,10320,Note_off_c,9,88,0,
2,10320,Note_off_c,9,89,0,
2,10320,Note_off_c,9,91,0,
2,10320,Note_off_c,9,93,0,
2,10350,Note_off_c,9,35,0,
2,10350,Note_off_c,9,36,0,
2,10350,Note_off_c,9,37,0,
2,10350,Note_off_c,9,38,0,
2,10350,Note_off_c,9,39,0,
2,10350,Note_off_c,9,40,0,
2,10350,Note_off_c,9,41,0,
2,10350,Note_off_c,9,42,0,
2,10350,Note_off_c,9,43,0,
2,10350,Note_off_c,9,44,0,
2,10350,Note_off_c,9,45,0,
2,10350,Note_off_c,9,46,0,
2,10350,Note_off_c,9,47,0,
2,10350,Note_off_c,9,48,0,
2,10350,Note_off_c,9,49,0,
2,10350,Note_off_c,9,50,0,
2,10350,Note_off_c,9,51,0,
2,10350,Note_off_c,9,56,0,
2,10350,Note_off_c,9,57,0,
2,10350,Note_off_c,9,59,0,
2,10350,Note_off_c,9,60,0,
2,10350,Note_off_c,9,61,0,
2,10350,Note_off_c,9,63,0,
2,10350,Note_off_c,9,68,0,
2,10350,Note_off_c,9,69,0,
2,10350,Note_off_c,9,70,0,
2,10350,Note_off_c,9,76,0,
2,10350,Note_off_c,9,80,0,
2,10350,Note_off_c,9,81,0,
2,10350,Note_off_c,9,82,0,
2,10350,Note_off_c,9,87,0,
2,10350,Note_off_c,9,88,0,
2,10350,Note_off_c,9,89,0,
2,10350,Note_off_c,9,91,0,
2,10350,Note_off_c,9,93,0,
2,10380,Note_off_c,9,35,0,
2,10380,Note_off_c,9,36,0,
2,10380,Note_off_c,9,37,0,
2,10380,Note_off_c,9,38,0,
2,10380,Note_off_c,9,39,0,
2,10380,Note_off_c,9,40,0,
2,10380,Note_off_c,9,41,0,
2,10380,Note_off_c,9,42,0,
2,10380,Note_off_c,9,43,0,
2,10380,Note_off_c,9,44,0,
2,10380,Note_off_c,9,45,0,
2,10380,Note_off_c,9,46,0,
2,10380,Note_off_c,9,47,0,
2,10380,Note_off_c,9,48,0,
2,10380,Note_off_c,9,49,0,
2,10380,Note_off_c,9,50,0,
2,10380,Note_off_c,9,51,0,
2,10380,Note_off_c,9,56,0,
2,10380,Note_off_c,9,57,0,
2,10380,Note_off_c,9,59,0,
2,10380,Note_off_c,9,60,0,
2,10380,Note_off_c,9,61,0,
2,10380,Note_off_c,9,63,0,
2,10380,Note_off_c,9,68,0,
2,10380,Note_off_c,9,69,0,
2,10380,Note_off_c,9,70,0,
2,10380,Note_off_c,9,76,0,
2,10380,Note_off_c,9,80,0,
2,10380,Note_off_c,9,81,0,
2,10380,Note_off_c,9,82,0,
2,10380,Note_off_c,9,87,0,
2,10380,Note_off_c,9,88,0,
2,10380,Note_off_c,9,89,0,
2,10380,Note_off_c,9,91,0,
2,10380,Note_off_c,9,93,0,
2,10410,Note_off_c,9,35,0,
2,10410,Note_off_c,9,36,0,
2,10410,Note_off_c,9,37,0,
2,10410,Note_off_c,9,38,0,
2,10410,Note_off_c,9,39,0,
2,10410,Note_off_c,9,40,0,
2,10410,Note_off_c,9,41,0,
2,10410,Note_off_c,9,42,0,
2,10410,Note_off_c,9,43,0,
2,10410,Note_off_c,9,44,0,
2,10410,Note_off_c,9,45,0,
2,10410,Note_off_c,9,46,0,
2,10410,Note_off_c,9,47,0,
2,10410,Note_off_c,9,48,0,
2,10410,Note_off_c,9,49,0,
2,10410,Note_off_c,9,50,0,
2,10410,Note_off_c,9,51,0,
2,10410,Note_off_c,9,56,0,
2,10410,Note_off_c,9,57,0,
2,10410,Note_off_c,9,59,0,
2,10410,Note_off_c,9,60,0,
2,10410,Note_off_c,9,61,0,
2,10410,Note_off_c,9,63,0,
2,10410,Note_off_c,9,68,0,
2,10410,Note_off_c,9,69,0,
2,10410,Note_off_c,9,70,0,
2,10410,Note_off_c,9,76,0,
2,10410,Note_off_c,9,80,0,
2,10410,Note_off_c,9,81,0,
2,10410,Note_off_c,9,82,0,
2,10410,Note_off_c,9,87,0,
2,10410,Note_off_c,9,88,0,
2,10410,Note_off_c,9,89,0,
2,10410,Note_off_c,9,91,0,
2,10410,Note_off_c,9,93,0,
2,10440,Note_off_c,9,35,0,
2,10440,Note_off_c,9,36,0,
2,10440,Note_off_c,9,37,0,
2,10440,Note_off_c,9,38,0,
2,10440,Note_off_c,9,39,0,
2,10440,Note_off_c,9,40,0,
2,10440,Note_off_c,9,41,0,
2,10440,Note_off_c,9,42,0,
2,10440,Note_off_c,9,43,0,
2,10440,Note_off_c,9,44,0,
2,10440,Note_off_c,9,45,0,
2,10440,Note_off_c,9,46,0,
2,10440,Note_off_c,9,47,0,
2,10440,Note_off_c,9,48,0,
2,10440,Note_off_c,9,49,0,
2,10440,Note_off_c,9,50,0,
2,10440,Note_off_c,9,51,0,
2,10440,Note_off_c,9,56,0,
2,10440,Note_off_c,9,57,0,
2,10440,Note_off_c,9,59,0,
2,10440,Note_off_c,9,60,0,
2,10440,Note_off_c,9,61,0,
2,10440,Note_off_c,9,63,0,
2,10440,Note_off_c,9,68,0,
2,10440,Note_off_c,9,69,0,
2,10440,Note_off_c,9,70,0,
2,10440,Note_off_c,9,76,0,
2,10440,Note_off_c,9,80,0,
2,10440,Note_off_c,9,81,0,
2,10440,Note_off_c,9,82,0,
2,10440,Note_off_c,9,87,0,
2,10440,Note_off_c,9,88,0,
2,10440,Note_off_c,9,89,0,
2,10440,Note_off_c,9,91,0,
2,10440,Note_off_c,9,93,0,
2,10470,Note_off_c,9,35,0,
2,10470,Note_off_c,9,36,0,
2,10470,Note_off_c,9,37,0,
2,10470,Note_off_c,9,38,0,
2,10470,Note_off_c,9,39,0,
2,10470,Note_off_c,9,40,0,
2,10470,Note_off_c,9,41,0,
2,10470,Note_off_c,9,42,0,
2,10470,Note_off_c,9,43,0,
2,10470,Note_off_c,9,44,0,
2,10470,Note_off_c,9,45,0,
2,10470,Note_off_c,9,46,0,
2,10470,Note_off_c,9,47,0,
2,10470,Note_off_c,9,48,0,
2,10470,Note_off_c,9,49,0,
2,10470,Note_off_c,9,50,0,
2,10470,Note_off_c,9,51,0,
2,10470,Note_off_c,9,56,0,
2,10470,Note_off_c,9,57,0,
2,10470,Note_off_c,9,59,0,
2,10470,Note_off_c,9,60,0,
2,10470,Note_off_c,9,61,0,
2,10470,Note_off_c,9,63,0,
2,10470,Note_off_c,9,68,0,
2,10470,Note_off_c,9,69,0,
2,10470,Note_off_c,9,70,0,
2,10470,Note_off_c,9,76,0,
2,10470,Note_off_c,9,80,0,
2,10470,Note_off_c,9,81,0,
2,10470,Note_off_c,9,82,0,
2,10470,Note_off_c,9,87,0,
2,10470,Note_off_c,9,88,0,
2,10470,Note_off_c,9,89,0,
2,10470,Note_off_c,9,91,0,
2,10470,Note_off_c,9,93,0,
2,10500,Note_off_c,9,35,0,
2,10500,Note_off_c,9,36,0,
2,10500,Note_off_c,9,37,0,
2,10500,Note_off_c,9,38,0,
2,10500,Note_off_c,9,39,0,
2,10500,Note_off_c,9,40,0,
2,10500,Note_off_c,9,41,0,
2,10500,Note_off_c,9,42,0,
2,10500,Note_off_c,9,43,0,
2,10500,Note_off_c,9,44,0,
2,10500,Note_off_c,9,45,0,
2,10500,Note_off_c,9,46,0,
2,10500,Note_off_c,9,47,0,
2,10500,Note_off_c,9,48,0,
2,10500,Note_off_c,9,49,0,
2,10500,Note_off_c,9,50,0,
2,10500,Note_off_c,9,51,0,
2,10500,Note_off_c,9,56,0,
2,10500,Note_off_c,9,57,0,
2,10500,Note_off_c,9,59,0,
2,10500,Note_off_c,9,60,0,
2,10500,Note_off_c,9,61,0,
2,10500,Note_off_c,9,63,0,
2,10500,Note_off_c,9,68,0,
2,10500,Note_off_c,9,69,0,
2,10500,Note_off_c,9,70,0,
2,10500,Note_off_c,9,76,0,
2,10500,Note_off_c,9,80,0,
2,10500,Note_off_c,9,81,0,
2,10500,Note_off_c,9,82,0,
2,10500,Note_off_c,9,87,0,
2,10500,Note_off_c,9,88,0,
2,10500,Note_off_c,9,89,0,
2,10500,Note_off_c,9,91,0,
2,10500,Note_off_c,9,93,0,
2,10530,Note_off_c,9,35,0,
2,10530,Note_off_c,9,36,0,
2,10530,Note_off_c,9,37,0,
2,10530,Note_off_c,9,38,0,
2,10530,Note_off_c,9,39,0,
2,10530,Note_off_c,9,40,0,
2,10530,Note_off_c,9,41,0,
2,10530,Note_off_c,9,42,0,
2,10530,Note_off_c,9,43,0,
2,10530,Note_off_c,9,44,0,
2,10530,Note_off_c,9,45,0,
2,10530,Note_off_c,9,46,0,
2,10530,Note_off_c,9,47,0,
2,10530,Note_off_c,9,48,0,
2,10530,Note_off_c,9,49,0,
2,10530,Note_off_c,9,50,0,
2,10530,Note_off_c,9,51,0,
2,10530,Note_off_c,9,56,0,
2,10530,Note_off_c,9,57,0,
2,10530,Note_off_c,9,59,0,
2,10530,Note_off_c,9,60,0,
2,10530,Note_off_c,9,61,0,
2,10530,Note_off_c,9,63,0,
2,10530,Note_off_c,9,68,0,
2,10530,Note_off_c,9,69,0,
2,10530,Note_off_c,9,70,0,
2,10530,Note_off_c,9,76,0,
2,10530,Note_off_c,9,80,0,
2,10530,Note_off_c,9,81,0,
2,10530,Note_off_c,9,82,0,
2,10530,Note_off_c,9,87,0,
2,10530,Note_off_c,9,88,0,
2,10530,Note_off_c,9,89,0,
2,10530,Note_off_c,9,91,0,
2,10530,Note_off_c,9,93,0,
2,10560,Note_off_c,9,35,0,
2,10560,Note_off_c,9,36,0,
2,10560,Note_off_c,9,37,0,
2,10560,Note_off_c,9,38,0,
2,10560,Note_off_c,9,39,0,
2,10560,Note_off_c,9,40,0,
2,10560,Note_off_c,9,41,0,
2,10560,Note_off_c,9,42,0,
2,10560,Note_off_c,9,43,0,
2,10560,Note_off_c,9,44,0,
2,10560,Note_off_c,9,45,0,
2,10560,Note_off_c,9,46,0,
2,10560,Note_off_c,9,47,0,
2,10560,Note_off_c,9,48,0,
2,10560,Note_off_c,9,49,0,
2,10560,Note_off_c,9,50,0,
2,10560,Note_off_c,9,51,0,
2,10560,Note_off_c,9,56,0,
2,10560,Note_off_c,9,57,0,
2,10560,Note_off_c,9,59,0,
2,10560,Note_off_c,9,60,0,
2,10560,Note_off_c,9,61,0,
2,10560,Note_off_c,9,63,0,
2,10560,Note_off_c,9,68,0,
2,10560,Note_off_c,9,69,0,
2,10560,Note_off_c,9,70,0,
2,10560,Note_off_c,9,76,0,
2,10560,Note_off_c,9,80,0,
2,10560,Note_off_c,9,81,0,
2,10560,Note_off_c,9,82,0,
2,10560,Note_off_c,9,87,0,
2,10560,Note_off_c,9,88,0,
2,10560,Note_off_c,9,89,0,
2,10560,Note_off_c,9,91,0,
2,10560,Note_off_c,9,93,0,
2,10590,Note_off_c,9,35,0,
2,10590,Note_off_c,9,36,0,
2,10590,Note_off_c,9,37,0,
2,10590,Note_off_c,9,38,0,
2,10590,Note_off_c,9,39,0,
2,10590,Note_off_c,9,40,0,
2,10590,Note_off_c,9,41,0,
2,10590,Note_off_c,9,42,0,
2,10590,Note_off_c,9,43,0,
2,10590,Note_off_c,9,44,0,
2,10590,Note_off_c,9,45,0,
2,10590,Note_off_c,9,46,0,
2,10590,Note_off_c,9,47,0,
2,10590,Note_off_c,9,48,0,
2,10590,Note_off_c,9,49,0,
2,10590,Note_off_c,9,50,0,
2,10590,Note_off_c,9,51,0,
2,10590,Note_off_c,9,56,0,
2,10590,Note_off_c,9,57,0,
2,10590,Note_off_c,9,59,0,
2,10590,Note_off_c,9,60,0,
2,10590,Note_off_c,9,61,0,
2,10590,Note_off_c,9,63,0,
2,10590,Note_off_c,9,68,0,
2,10590,Note_off_c,9,69,0,
2,10590,Note_off_c,9,70,0,
2,10590,Note_off_c,9,76,0,
2,10590,Note_off_c,9,80,0,
2,10590,Note_off_c,9,81,0,
2,10590,Note_off_c,9,82,0,
2,10590,Note_off_c,9,87,0,
2,10590,Note_off_c,9,88,0,
2,10590,Note_off_c,9,89,0,
2,10590,Note_off_c,9,91,0,
2,10590,Note_off_c,9,93,0,
2,10620,Note_off_c,9,35,0,
2,10620,Note_off_c,9,36,0,
2,10620,Note_off_c,9,37,0,
2,10620,Note_off_c,9,38,0,
2,10620,Note_off_c,9,39,0,
2,10620,Note_off_c,9,40,0,
2,10620,Note_off_c,9,41,0,
2,10620,Note_off_c,9,42,0,
2,10620,Note_off_c,9,43,0,
2,10620,Note_off_c,9,44,0,
2,10620,Note_off_c,9,45,0,
2,10620,Note_off_c,9,46,0,
2,10620,Note_off_c,9,47,0,
2,10620,Note_off_c,9,48,0,
2,10620,Note_off_c,9,49,0,
2,10620,Note_off_c,9,50,0,
2,10620,Note_off_c,9,51,0,
2,10620,Note_off_c,9,56,0,
2,10620,Note_off_c,9,57,0,
2,10620,Note_off_c,9,59,0,
2,10620,Note_off_c,9,60,0,
2,10620,Note_off_c,9,61,0,
2,10620,Note_off_c,9,63,0,
2,10620,Note_off_c,9,68,0,
2,10620,Note_off_c,9,69,0,
2,10620,Note_off_c,9,70,0,
2,10620,Note_off_c,9,76,0,
2,10620,Note_off_c,9,80,0,
2,10620,Note_off_c,9,81,0,
2,10620,Note_off_c,9,82,0,
2,10620,Note_off_c,9,87,0,
2,10620,Note_off_c,9,88,0,
2,10620,Note_off_c,9,89,0,
2,10620,Note_off_c,9,91,0,
2,10620,Note_off_c,9,93,0,
2,10650,Note_off_c,9,35,0,
2,10650,Note_off_c,9,36,0,
2,10650,Note_off_c,9,37,0,
2,10650,Note_off_c,9,38,0,
2,10650,Note_off_c,9,39,0,
2,10650,Note_off_c,9,40,0,
2,10650,Note_off_c,9,41,0,
2,10650,Note_off_c,9,42,0,
2,10650,Note_off_c,9,43,0,
2,10650,Note_off_c,9,44,0,
2,10650,Note_off_c,9,45,0,
2,10650,Note_off_c,9,46,0,
2,10650,Note_off_c,9,47,0,
2,10650,Note_off_c,9,48,0,
2,10650,Note_off_c,9,49,0,
2,10650,Note_off_c,9,50,0,
2,10650,Note_off_c,9,51,0,
2,10650,Note_off_c,9,56,0,
2,10650,Note_off_c,9,57,0,
2,10650,Note_off_c,9,59,0,
2,10650,Note_off_c,9,60,0,
2,10650,Note_off_c,9,61,0,
2,10650,Note_off_c,9,63,0,
2,10650,Note_off_c,9,68,0,
2,10650,Note_off_c,9,69,0,
2,10650,Note_off_c,9,70,0,
2,10650,Note_off_c,9,76,0,
2,10650,Note_off_c,9,80,0,
2,10650,Note_off_c,9,81,0,
2,10650,Note_off_c,9,82,0,
2,10650,Note_off_c,9,87,0,
2,10650,Note_off_c,9,88,0,
2,10650,Note_off_c,9,89,0,
2,10650,Note_off_c,9,91,0,
2,10650,Note_off_c,9,93,0,
2,10680,Note_off_c,9,35,0,
2,10680,Note_off_c,9,36,0,
2,10680,Note_off_c,9,37,0,
2,10680,Note_off_c,9,38,0,
2,10680,Note_off_c,9,39,0,
2,10680,Note_off_c,9,40,0,
2,10680,Note_off_c,9,41,0,
2,10680,Note_off_c,9,42,0,
2,10680,Note_off_c,9,43,0,
2,10680,Note_off_c,9,44,0,
2,10680,Note_off_c,9,45,0,
2,10680,Note_off_c,9,46,0,
2,10680,Note_off_c,9,47,0,
2,10680,Note_off_c,9,48,0,
2,10680,Note_off_c,9,49,0,
2,10680,Note_off_c,9,50,0,
2,10680,Note_off_c,9,51,0,
2,10680,Note_off_c,9,56,0,
2,10680,Note_off_c,9,57,0,
2,10680,Note_off_c,9,59,0,
2,10680,Note_off_c,9,60,0,
2,10680,Note_off_c,9,61,0,
2,10680,Note_off_c,9,63,0,
2,10680,Note_off_c,9,68,0,
2,10680,Note_off_c,9,69,0,
2,10680,Note_off_c,9,70,0,
2,10680,Note_off_c,9,76,0,
2,10680,Note_off_c,9,80,0,
2,10680,Note_off_c,9,81,0,
2,10680,Note_off_c,9,82,0,
2,10680,Note_off_c,9,87,0,
2,10680,Note_off_c,9,88,0,
2,10680,Note_off_c,9,89,0,
2,10680,Note_off_c,9,91,0,
2,10680,Note_off_c,9,93,0,
2,10710,Note_off_c,9,35,0,
2,10710,Note_off_c,9,36,0,
2,10710,Note_off_c,9,37,0,
2,10710,Note_off_c,9,38,0,
2,10710,Note_off_c,9,39,0,
2,10710,Note_off_c,9,40,0,
2,10710,Note_off_c,9,41,0,
2,10710,Note_off_c,9,42,0,
2,10710,Note_off_c,9,43,0,
2,10710,Note_off_c,9,44,0,
2,10710,Note_off_c,9,45,0,
2,10710,Note_off_c,9,46,0,
2,10710,Note_off_c,9,47,0,
2,10710,Note_off_c,9,48,0,
2,10710,Note_off_c,9,49,0,
2,10710,Note_off_c,9,50,0,
2,10710,Note_off_c,9,51,0,
2,10710,Note_off_c,9,56,0,
2,10710,Note_off_c,9,57,0,
2,10710,Note_off_c,9,59,0,
2,10710,Note_off_c,9,60,0,
2,10710,Note_off_c,9,61,0,
2,10710,Note_off_c,9,63,0,
2,10710,Note_off_c,9,68,0,
2,10710,Note_off_c,9,69,0,
2,10710,Note_off_c,9,70,0,
2,10710,Note_off_c,9,76,0,
2,10710,Note_off_c,9,80,0,
2,10710,Note_off_c,9,81,0,
2,10710,Note_off_c,9,82,0,
2,10710,Note_off_c,9,87,0,
2,10710,Note_off_c,9,88,0,
2,10710,Note_off_c,9,89,0,
2,10710,Note_off_c,9,91,0,
2,10710,Note_off_c,9,93,0,
2,10740,Note_off_c,9,35,0,
2,10740,Note_off_c,9,36,0,
2,10740,Note_off_c,9,37,0,
2,10740,Note_off_c,9,38,0,
2,10740,Note_off_c,9,39,0,
2,10740,Note_off_c,9,40,0,
2,10740,Note_off_c,9,41,0,
2,10740,Note_off_c,9,42,0,
2,10740,Note_off_c,9,43,0,
2,10740,Note_off_c,9,44,0,
2,10740,Note_off_c,9,45,0,
2,10740,Note_off_c,9,46,0,
2,10740,Note_off_c,9,47,0,
2,10740,Note_off_c,9,48,0,
2,10740,Note_off_c,9,49,0,
2,10740,Note_off_c,9,50,0,
2,10740,Note_off_c,9,51,0,
2,10740,Note_off_c,9,56,0,
2,10740,Note_off_c,9,57,0,
2,10740,Note_off_c,9,59,0,
2,10740,Note_off_c,9,60,0,
2,10740,Note_off_c,9,61,0,
2,10740,Note_off_c,9,63,0,
2,10740,Note_off_c,9,68,0,
2,10740,Note_off_c,9,69,0,
2,10740,Note_off_c,9,70,0,
2,10740,Note_off_c,9,76,0,
2,10740,Note_off_c,9,80,0,
2,10740,Note_off_c,9,81,0,
2,10740,Note_off_c,9,82,0,
2,10740,Note_off_c,9,87,0,
2,10740,Note_off_c,9,88,0,
2,10740,Note_off_c,9,89,0,
2,10740,Note_off_c,9,91,0,
2,10740,Note_off_c,9,93,0,
2,10770,Note_off_c,9,35,0,
2,10770,Note_off_c,9,36,0,
2,10770,Note_off_c,9,37,0,
2,10770,Note_off_c,9,38,0,
2,10770,Note_off_c,9,39,0,
2,10770,Note_off_c,9,40,0,
2,10770,Note_off_c,9,41,0,
2,10770,Note_off_c,9,42,0,
2,10770,Note_off_c,9,43,0,
2,10770,Note_off_c,9,44,0,
2,10770,Note_off_c,9,45,0,
2,10770,Note_off_c,9,46,0,
2,10770,Note_off_c,9,47,0,
2,10770,Note_off_c,9,48,0,
2,10770,Note_off_c,9,49,0,
2,10770,Note_off_c,9,50,0,
2,10770,Note_off_c,9,51,0,
2,10770,Note_off_c,9,56,0,
2,10770,Note_off_c,9,57,0,
2,10770,Note_off_c,9,59,0,
2,10770,Note_off_c,9,60,0,
2,10770,Note_off_c,9,61,0,
2,10770,Note_off_c,9,63,0,
2,10770,Note_off_c,9,68,0,
2,10770,Note_off_c,9,69,0,
2,10770,Note_off_c,9,70,0,
2,10770,Note_off_c,9,76,0,
2,10770,Note_off_c,9,80,0,
2,10770,Note_off_c,9,81,0,
2,10770,Note_off_c,9,82,0,
2,10770,Note_off_c,9,87,0,
2,10770,Note_off_c,9,88,0,
2,10770,Note_off_c,9,89,0,
2,10770,Note_off_c,9,91,0,
2,10770,Note_off_c,9,93,0,
2,10800,Note_off_c,9,35,0,
2,10800,Note_off_c,9,36,0,
2,10800,Note_off_c,9,37,0,
2,10800,Note_off_c,9,38,0,
2,10800,Note_off_c,9,39,0,
2,10800,Note_off_c,9,40,0,
2,10800,Note_off_c,9,41,0,
2,10800,Note_off_c,9,42,0,
2,10800,Note_off_c,9,43,0,
2,10800,Note_off_c,9,44,0,
2,10800,Note_off_c,9,45,0,
2,10800,Note_off_c,9,46,0,
2,10800,Note_off_c,9,47,0,
2,10800,Note_off_c,9,48,0,
2,10800,Note_off_c,9,49,0,
2,10800,Note_off_c,9,50,0,
2,10800,Note_off_c,9,51,0,
2,10800,Note_off_c,9,56,0,
2,10800,Note_off_c,9,57,0,
2,10800,Note_off_c,9,59,0,
2,10800,Note_off_c,9,60,0,
2,10800,Note_off_c,9,61,0,
2,10800,Note_off_c,9,63,0,
2,10800,Note_off_c,9,68,0,
2,10800,Note_off_c,9,69,0,
2,10800,Note_off_c,9,70,0,
2,10800,Note_off_c,9,76,0,
2,10800,Note_off_c,9,80,0,
2,10800,Note_off_c,9,81,0,
2,10800,Note_off_c,9,82,0,
2,10800,Note_off_c,9,87,0,
2,10800,Note_off_c,9,88,0,
2,10800,Note_off_c,9,89,0,
2,10800,Note_off_c,9,91,0,
2,10800,Note_off_c,9,93,0,
2,10830,Note_off_c,9,35,0,
2,10830,Note_off_c,9,36,0,
2,10830,Note_off_c,9,37,0,
2,10830,Note_off_c,9,38,0,
2,10830,Note_off_c,9,39,0,
2,10830,Note_off_c,9,40,0,
2,10830,Note_off_c,9,41,0,
2,10830,Note_off_c,9,42,0,
2,10830,Note_off_c,9,43,0,
2,10830,Note_off_c,9,44,0,
2,10830,Note_off_c,9,45,0,
2,10830,Note_off_c,9,46,0,
2,10830,Note_off_c,9,47,0,
2,10830,Note_off_c,9,48,0,
2,10830,Note_off_c,9,49,0,
2,10830,Note_off_c,9,50,0,
2,10830,Note_off_c,9,51,0,
2,10830,Note_off_c,9,56,0,
2,10830,Note_off_c,9,57,0,
2,10830,Note_off_c,9,59,0,
2,10830,Note_off_c,9,60,0,
2,10830,Note_off_c,9,61,0,
2,10830,Note_off_c,9,63,0,
2,10830,Note_off_c,9,68,0,
2,10830,Note_off_c,9,69,0,
2,10830,Note_off_c,9,70,0,
2,10830,Note_off_c,9,76,0,
2,10830,Note_off_c,9,80,0,
2,10830,Note_off_c,9,81,0,
2,10830,Note_off_c,9,82,0,
2,10830,Note_off_c,9,87,0,
2,10830,Note_off_c,9,88,0,
2,10830,Note_off_c,9,89,0,
2,10830,Note_off_c,9,91,0,
2,10830,Note_off_c,9,93,0,
2,10860,Note_off_c,9,35,0,
2,10860,Note_off_c,9,36,0,
2,10860,Note_off_c,9,37,0,
2,10860,Note_off_c,9,38,0,
2,10860,Note_off_c,9,39,0,
2,10860,Note_off_c,9,40,0,
2,10860,Note_off_c,9,41,0,
2,10860,Note_off_c,9,42,0,
2,10860,Note_off_c,9,43,0,
2,10860,Note_off_c,9,44,0,
2,10860,Note_off_c,9,45,0,
2,10860,Note_off_c,9,46,0,
2,10860,Note_off_c,9,47,0,
2,10860,Note_off_c,9,48,0,
2,10860,Note_off_c,9,49,0,
2,10860,Note_off_c,9,50,0,
2,10860,Note_off_c,9,51,0,
2,10860,Note_off_c,9,56,0,
2,10860,Note_off_c,9,57,0,
2,10860,Note_off_c,9,59,0,
2,10860,Note_off_c,9,60,0,
2,10860,Note_off_c,9,61,0,
2,10860,Note_off_c,9,63,0,
2,10860,Note_off_c,9,68,0,
2,10860,Note_off_c,9,69,0,
2,10860,Note_off_c,9,70,0,
2,10860,Note_off_c,9,76,0,
2,10860,Note_off_c,9,80,0,
2,10860,Note_off_c,9,81,0,
2,10860,Note_off_c,9,82,0,
2,10860,Note_off_c,9,87,0,
2,10860,Note_off_c,9,88,0,
2,10860,Note_off_c,9,89,0,
2,10860,Note_off_c,9,91,0,
2,10860,Note_off_c,9,93,0,
2,10890,Note_off_c,9,35,0,
2,10890,Note_off_c,9,36,0,
2,10890,Note_off_c,9,37,0,
2,10890,Note_off_c,9,38,0,
2,10890,Note_off_c,9,39,0,
2,10890,Note_off_c,9,40,0,
2,10890,Note_off_c,9,41,0,
2,10890,Note_off_c,9,42,0,
2,10890,Note_off_c,9,43,0,
2,10890,Note_off_c,9,44,0,
2,10890,Note_off_c,9,45,0,
2,10890,Note_off_c,9,46,0,
2,10890,Note_off_c,9,47,0,
2,10890,Note_off_c,9,48,0,
2,10890,Note_off_c,9,49,0,
2,10890,Note_off_c,9,50,0,
2,10890,Note_off_c,9,51,0,
2,10890,Note_off_c,9,56,0,
2,10890,Note_off_c,9,57,0,
2,10890,Note_off_c,9,59,0,
2,10890,Note_off_c,9,60,0,
2,10890,Note_off_c,9,61,0,
2,10890,Note_off_c,9,63,0,
2,10890,Note_off_c,9,68,0,
2,10890,Note_off_c,9,69,0,
2,10890,Note_off_c,9,70,0,
2,10890,Note_off_c,9,76,0,
2,10890,Note_off_c,9,80,0,
2,10890,Note_off_c,9,81,0,
2,10890,Note_off_c,9,82,0,
2,10890,Note_off_c,9,87,0,
2,10890,Note_off_c,9,88,0,
2,10890,Note_off_c,9,89,0,
2,10890,Note_off_c,9,91,0,
2,10890,Note_off_c,9,93,0,
2,10920,Note_off_c,9,35,0,
2,10920,Note_off_c,9,36,0,
2,10920,Note_off_c,9,37,0,
2,10920,Note_off_c,9,38,0,
2,10920,Note_off_c,9,39,0,
2,10920,Note_off_c,9,40,0,
2,10920,Note_off_c,9,41,0,
2,10920,Note_off_c,9,42,0,
2,10920,Note_off_c,9,43,0,
2,10920,Note_off_c,9,44,0,
2,10920,Note_off_c,9,45,0,
2,10920,Note_off_c,9,46,0,
2,10920,Note_off_c,9,47,0,
2,10920,Note_off_c,9,48,0,
2,10920,Note_off_c,9,49,0,
2,10920,Note_off_c,9,50,0,
2,10920,Note_off_c,9,51,0,
2,10920,Note_off_c,9,56,0,
2,10920,Note_off_c,9,57,0,
2,10920,Note_off_c,9,59,0,
2,10920,Note_off_c,9,60,0,
2,10920,Note_off_c,9,61,0,
2,10920,Note_off_c,9,63,0,
2,10920,Note_off_c,9,68,0,
2,10920,Note_off_c,9,69,0,
2,10920,Note_off_c,9,70,0,
2,10920,Note_off_c,9,76,0,
2,10920,Note_off_c,9,80,0,
2,10920,Note_off_c,9,81,0,
2,10920,Note_off_c,9,82,0,
2,10920,Note_off_c,9,87,0,
2,10920,Note_off_c,9,88,0,
2,10920,Note_off_c,9,89,0,
2,10920,Note_off_c,9,91,0,
2,10920,Note_off_c,9,93,0,
2,10950,Note_off_c,9,35,0,
2,10950,Note_off_c,9,36,0,
2,10950,Note_off_c,9,37,0,
2,10950,Note_off_c,9,38,0,
2,10950,Note_off_c,9,39,0,
2,10950,Note_off_c,9,40,0,
2,10950,Note_off_c,9,41,0,
2,10950,Note_off_c,9,42,0,
2,10950,Note_off_c,9,43,0,
2,10950,Note_off_c,9,44,0,
2,10950,Note_off_c,9,45,0,
2,10950,Note_off_c,9,46,0,
2,10950,Note_off_c,9,47,0,
2,10950,Note_off_c,9,48,0,
2,10950,Note_off_c,9,49,0,
2,10950,Note_off_c,9,50,0,
2,10950,Note_off_c,9,51,0,
2,10950,Note_off_c,9,56,0,
2,10950,Note_off_c,9,57,0,
2,10950,Note_off_c,9,59,0,
2,10950,Note_off_c,9,60,0,
2,10950,Note_off_c,9,61,0,
2,10950,Note_off_c,9,63,0,
2,10950,Note_off_c,9,68,0,
2,10950,Note_off_c,9,69,0,
2,10950,Note_off_c,9,70,0,
2,10950,Note_off_c,9,76,0,
2,10950,Note_off_c,9,80,0,
2,10950,Note_off_c,9,81,0,
2,10950,Note_off_c,9,82,0,
2,10950,Note_off_c,9,87,0,
2,10950,Note_off_c,9,88,0,
2,10950,Note_off_c,9,89,0,
2,10950,Note_off_c,9,91,0,
2,10950,Note_off_c,9,93,0,
2,10980,Note_off_c,9,35,0,
2,10980,Note_off_c,9,36,0,
2,10980,Note_off_c,9,37,0,
2,10980,Note_off_c,9,38,0,
2,10980,Note_off_c,9,39,0,
2,10980,Note_off_c,9,40,0,
2,10980,Note_off_c,9,41,0,
2,10980,Note_off_c,9,42,0,
2,10980,Note_off_c,9,43,0,
2,10980,Note_off_c,9,44,0,
2,10980,Note_off_c,9,45,0,
2,10980,Note_off_c,9,46,0,
2,10980,Note_off_c,9,47,0,
2,10980,Note_off_c,9,48,0,
2,10980,Note_off_c,9,49,0,
2,10980,Note_off_c,9,50,0,
2,10980,Note_off_c,9,51,0,
2,10980,Note_off_c,9,56,0,
2,10980,Note_off_c,9,57,0,
2,10980,Note_off_c,9,59,0,
2,10980,Note_off_c,9,60,0,
2,10980,Note_off_c,9,61,0,
2,10980,Note_off_c,9,63,0,
2,10980,Note_off_c,9,68,0,
2,10980,Note_off_c,9,69,0,
2,10980,Note_off_c,9,70,0,
2,10980,Note_off_c,9,76,0,
2,10980,Note_off_c,9,80,0,
2,10980,Note_off_c,9,81,0,
2,10980,Note_off_c,9,82,0,
2,10980,Note_off_c,9,87,0,
2,10980,Note_off_c,9,88,0,
2,10980,Note_off_c,9,89,0,
2,10980,Note_off_c,9,91,0,
2,10980,Note_off_c,9,93,0,
2,11010,Note_off_c,9,35,0,
2,11010,Note_off_c,9,36,0,
2,11010,Note_off_c,9,37,0,
2,11010,Note_off_c,9,38,0,
2,11010,Note_off_c,9,39,0,
2,11010,Note_off_c,9,40,0,
2,11010,Note_off_c,9,41,0,
2,11010,Note_off_c,9,42,0,
2,11010,Note_off_c,9,43,0,
2,11010,Note_off_c,9,44,0,
2,11010,Note_off_c,9,45,0,
2,11010,Note_off_c,9,46,0,
2,11010,Note_off_c,9,47,0,
2,11010,Note_off_c,9,48,0,
2,11010,Note_off_c,9,49,0,
2,11010,Note_off_c,9,50,0,
2,11010,Note_off_c,9,51,0,
2,11010,Note_off_c,9,56,0,
2,11010,Note_off_c,9,57,0,
2,11010,Note_off_c,9,59,0,
2,11010,Note_off_c,9,60,0,
2,11010,Note_off_c,9,61,0,
2,11010,Note_off_c,9,63,0,
2,11010,Note_off_c,9,68,0,
2,11010,Note_off_c,9,69,0,
2,11010,Note_off_c,9,70,0,
2,11010,Note_off_c,9,76,0,
2,11010,Note_off_c,9,80,0,
2,11010,Note_off_c,9,81,0,
2,11010,Note_off_c,9,82,0,
2,11010,Note_off_c,9,87,0,
2,11010,Note_off_c,9,88,0,
2,11010,Note_off_c,9,89,0,
2,11010,Note_off_c,9,91,0,
2,11010,Note_off_c,9,93,0,
2,11040,Note_off_c,9,35,0,
2,11040,Note_off_c,9,36,0,
2,11040,Note_off_c,9,37,0,
2,11040,Note_off_c,9,38,0,
2,11040,Note_off_c,9,39,0,
2,11040,Note_off_c,9,40,0,
2,11040,Note_off_c,9,41,0,
2,11040,Note_off_c,9,42,0,
2,11040,Note_off_c,9,43,0,
2,11040,Note_off_c,9,44,0,
2,11040,Note_off_c,9,45,0,
2,11040,Note_off_c,9,46,0,
2,11040,Note_off_c,9,47,0,
2,11040,Note_off_c,9,48,0,
2,11040,Note_off_c,9,49,0,
2,11040,Note_off_c,9,50,0,
2,11040,Note_off_c,9,51,0,
2,11040,Note_off_c,9,56,0,
2,11040,Note_off_c,9,57,0,
2,11040,Note_off_c,9,59,0,
2,11040,Note_off_c,9,60,0,
2,11040,Note_off_c,9,61,0,
2,11040,Note_off_c,9,63,0,
2,11040,Note_off_c,9,68,0,
2,11040,Note_off_c,9,69,0,
2,11040,Note_off_c,9,70,0,
2,11040,Note_off_c,9,76,0,
2,11040,Note_off_c,9,80,0,
2,11040,Note_off_c,9,81,0,
2,11040,Note_off_c,9,82,0,
2,11040,Note_off_c,9,87,0,
2,11040,Note_off_c,9,88,0,
2,11040,Note_off_c,9,89,0,
2,11040,Note_off_c,9,91,0,
2,11040,Note_off_c,9,93,0,
2,11070,Note_off_c,9,35,0,
2,11070,Note_off_c,9,36,0,
2,11070,Note_off_c,9,37,0,
2,11070,Note_off_c,9,38,0,
2,11070,Note_off_c,9,39,0,
2,11070,Note_off_c,9,40,0,
2,11070,Note_off_c,9,41,0,
2,11070,Note_off_c,9,42,0,
2,11070,Note_off_c,9,43,0,
2,11070,Note_off_c,9,44,0,
2,11070,Note_off_c,9,45,0,
2,11070,Note_off_c,9,46,0,
2,11070,Note_off_c,9,47,0,
2,11070,Note_off_c,9,48,0,
2,11070,Note_off_c,9,49,0,
2,11070,Note_off_c,9,50,0,
2,11070,Note_off_c,9,51,0,
2,11070,Note_off_c,9,56,0,
2,11070,Note_off_c,9,57,0,
2,11070,Note_off_c,9,59,0,
2,11070,Note_off_c,9,60,0,
2,11070,Note_off_c,9,61,0,
2,11070,Note_off_c,9,63,0,
2,11070,Note_off_c,9,68,0,
2,11070,Note_off_c,9,69,0,
2,11070,Note_off_c,9,70,0,
2,11070,Note_off_c,9,76,0,
2,11070,Note_off_c,9,80,0,
2,11070,Note_off_c,9,81,0,
2,11070,Note_off_c,9,82,0,
2,11070,Note_off_c,9,87,0,
2,11070,Note_off_c,9,88,0,
2,11070,Note_off_c,9,89,0,
2,11070,Note_off_c,9,91,0,
2,11070,Note_off_c,9,93,0,
2,11100,Note_off_c,9,35,0,
2,11100,Note_off_c,9,36,0,
2,11100,Note_off_c,9,37,0,
2,11100,Note_off_c,9,38,0,
2,11100,Note_off_c,9,39,0,
2,11100,Note_off_c,9,40,0,
2,11100,Note_off_c,9,41,0,
2,11100,Note_off_c,9,42,0,
2,11100,Note_off_c,9,43,0,
2,11100,Note_off_c,9,44,0,
2,11100,Note_off_c,9,45,0,
2,11100,Note_off_c,9,46,0,
2,11100,Note_off_c,9,47,0,
2,11100,Note_off_c,9,48,0,
2,11100,Note_off_c,9,49,0,
2,11100,Note_off_c,9,50,0,
2,11100,Note_off_c,9,51,0,
2,11100,Note_off_c,9,56,0,
2,11100,Note_off_c,9,57,0,
2,11100,Note_off_c,9,59,0,
2,11100,Note_off_c,9,60,0,
2,11100,Note_off_c,9,61,0,
2,11100,Note_off_c,9,63,0,
2,11100,Note_off_c,9,68,0,
2,11100,Note_off_c,9,69,0,
2,11100,Note_off_c,9,70,0,
2,11100,Note_off_c,9,76,0,
2,11100,Note_off_c,9,80,0,
2,11100,Note_off_c,9,81,0,
2,11100,Note_off_c,9,82,0,
2,11100,Note_off_c,9,87,0,
2,11100,Note_off_c,9,88,0,
2,11100,Note_off_c,9,89,0,
2,11100,Note_off_c,9,91,0,
2,11100,Note_off_c,9,93,0,
2,11130,Note_off_c,9,35,0,
2,11130,Note_off_c,9,36,0,
2,11130,Note_off_c,9,37,0,
2,11130,Note_off_c,9,38,0,
2,11130,Note_off_c,9,39,0,
2,11130,Note_off_c,9,40,0,
2,11130,Note_off_c,9,41,0,
2,11130,Note_off_c,9,42,0,
2,11130,Note_off_c,9,43,0,
2,11130,Note_off_c,9,44,0,
2,11130,Note_off_c,9,45,0,
2,11130,Note_off_c,9,46,0,
2,11130,Note_off_c,9,47,0,
2,11130,Note_off_c,9,48,0,
2,11130,Note_off_c,9,49,0,
2,11130,Note_off_c,9,50,0,
2,11130,Note_off_c,9,51,0,
2,11130,Note_off_c,9,56,0,
2,11130,Note_off_c,9,57,0,
2,11130,Note_off_c,9,59,0,
2,11130,Note_off_c,9,60,0,
2,11130,Note_off_c,9,61,0,
2,11130,Note_off_c,9,63,0,
2,11130,Note_off_c,9,68,0,
2,11130,Note_off_c,9,69,0,
2,11130,Note_off_c,9,70,0,
2,11130,Note_off_c,9,76,0,
2,11130,Note_off_c,9,80,0,
2,11130,Note_off_c,9,81,0,
2,11130,Note_off_c,9,82,0,
2,11130,Note_off_c,9,87,0,
2,11130,Note_off_c,9,88,0,
2,11130,Note_off_c,9,89,0,
2,11130,Note_off_c,9,91,0,
2,11130,Note_off_c,9,93,0,
2,11160,Note_off_c,9,35,0,
2,11160,Note_off_c,9,36,0,
2,11160,Note_off_c,9,37,0,
2,11160,Note_off_c,9,38,0,
2,11160,Note_off_c,9,39,0,
2,11160,Note_off_c,9,40,0,
2,11160,Note_off_c,9,41,0,
2,11160,Note_off_c,9,42,0,
2,11160,Note_off_c,9,43,0,
2,11160,Note_off_c,9,44,0,
2,11160,Note_off_c,9,45,0,
2,11160,Note_off_c,9,46,0,
2,11160,Note_off_c,9,47,0,
2,11160,Note_off_c,9,48,0,
2,11160,Note_off_c,9,49,0,
2,11160,Note_off_c,9,50,0,
2,11160,Note_off_c,9,51,0,
2,11160,Note_off_c,9,56,0,
2,11160,Note_off_c,9,57,0,
2,11160,Note_off_c,9,59,0,
2,11160,Note_off_c,9,60,0,
2,11160,Note_off_c,9,61,0,
2,11160,Note_off_c,9,63,0,
2,11160,Note_off_c,9,68,0,
2,11160,Note_off_c,9,69,0,
2,11160,Note_off_c,9,70,0,
2,11160,Note_off_c,9,76,0,
2,11160,Note_off_c,9,80,0,
2,11160,Note_off_c,9,81,0,
2,11160,Note_off_c,9,82,0,
2,11160,Note_off_c,9,87,0,
2,11160,Note_off_c,9,88,0,
2,11160,Note_off_c,9,89,0,
2,11160,Note_off_c,9,91,0,
2,11160,Note_off_c,9,93,0,
2,11190,Note_off_c,9,35,0,
2,11190,Note_off_c,9,36,0,
2,11190,Note_off_c,9,37,0,
2,11190,Note_off_c,9,38,0,
2,11190,Note_off_c,9,39,0,
2,11190,Note_off_c,9,40,0,
2,11190,Note_off_c,9,41,0,
2,11190,Note_off_c,9,42,0,
2,11190,Note_off_c,9,43,0,
2,11190,Note_off_c,9,44,0,
2,11190,Note_off_c,9,45,0,
2,11190,Note_off_c,9,46,0,
2,11190,Note_off_c,9,47,0,
2,11190,Note_off_c,9,48,0,
2,11190,Note_off_c,9,49,0,
2,11190,Note_off_c,9,50,0,
2,11190,Note_off_c,9,51,0,
2,11190,Note_off_c,9,56,0,
2,11190,Note_off_c,9,57,0,
2,11190,Note_off_c,9,59,0,
2,11190,Note_off_c,9,60,0,
2,11190,Note_off_c,9,61,0,
2,11190,Note_off_c,9,63,0,
2,11190,Note_off_c,9,68,0,
2,11190,Note_off_c,9,69,0,
2,11190,Note_off_c,9,70,0,
2,11190,Note_off_c,9,76,0,
2,11190,Note_off_c,9,80,0,
2,11190,Note_off_c,9,81,0,
2,11190,Note_off_c,9,82,0,
2,11190,Note_off_c,9,87,0,
2,11190,Note_off_c,9,88,0,
2,11190,Note_off_c,9,89,0,
2,11190,Note_off_c,9,91,0,
2,11190,Note_off_c,9,93,0,
2,11220,Note_off_c,9,35,0,
2,11220,Note_off_c,9,36,0,
2,11220,Note_off_c,9,37,0,
2,11220,Note_off_c,9,38,0,
2,11220,Note_off_c,9,39,0,
2,11220,Note_off_c,9,40,0,
2,11220,Note_off_c,9,41,0,
2,11220,Note_off_c,9,42,0,
2,11220,Note_off_c,9,43,0,
2,11220,Note_off_c,9,44,0,
2,11220,Note_off_c,9,45,0,
2,11220,Note_off_c,9,46,0,
2,11220,Note_off_c,9,47,0,
2,11220,Note_off_c,9,48,0,
2,11220,Note_off_c,9,49,0,
2,11220,Note_off_c,9,50,0,
2,11220,Note_off_c,9,51,0,
2,11220,Note_off_c,9,56,0,
2,11220,Note_off_c,9,57,0,
2,11220,Note_off_c,9,59,0,
2,11220,Note_off_c,9,60,0,
2,11220,Note_off_c,9,61,0,
2,11220,Note_off_c,9,63,0,
2,11220,Note_off_c,9,68,0,
2,11220,Note_off_c,9,69,0,
2,11220,Note_off_c,9,70,0,
2,11220,Note_off_c,9,76,0,
2,11220,Note_off_c,9,80,0,
2,11220,Note_off_c,9,81,0,
2,11220,Note_off_c,9,82,0,
2,11220,Note_off_c,9,87,0,
2,11220,Note_off_c,9,88,0,
2,11220,Note_off_c,9,89,0,
2,11220,Note_off_c,9,91,0,
2,11220,Note_off_c,9,93,0,
2,11250,Note_off_c,9,35,0,
2,11250,Note_off_c,9,36,0,
2,11250,Note_off_c,9,37,0,
2,11250,Note_off_c,9,38,0,
2,11250,Note_off_c,9,39,0,
2,11250,Note_off_c,9,40,0,
2,11250,Note_off_c,9,41,0,
2,11250,Note_off_c,9,42,0,
2,11250,Note_off_c,9,43,0,
2,11250,Note_off_c,9,44,0,
2,11250,Note_off_c,9,45,0,
2,11250,Note_off_c,9,46,0,
2,11250,Note_off_c,9,47,0,
2,11250,Note_off_c,9,48,0,
2,11250,Note_off_c,9,49,0,
2,11250,Note_off_c,9,50,0,
2,11250,Note_off_c,9,51,0,
2,11250,Note_off_c,9,56,0,
2,11250,Note_off_c,9,57,0,
2,11250,Note_off_c,9,59,0,
2,11250,Note_off_c,9,60,0,
2,11250,Note_off_c,9,61,0,
2,11250,Note_off_c,9,63,0,
2,11250,Note_off_c,9,68,0,
2,11250,Note_off_c,9,69,0,
2,11250,Note_off_c,9,70,0,
2,11250,Note_off_c,9,76,0,
2,11250,Note_off_c,9,80,0,
2,11250,Note_off_c,9,81,0,
2,11250,Note_off_c,9,82,0,
2,11250,Note_off_c,9,87,0,
2,11250,Note_off_c,9,88,0,
2,11250,Note_off_c,9,89,0,
2,11250,Note_off_c,9,91,0,
2,11250,Note_off_c,9,93,0,
2,11280,Note_off_c,9,35,0,
2,11280,Note_off_c,9,36,0,
2,11280,Note_off_c,9,37,0,
2,11280,Note_off_c,9,38,0,
2,11280,Note_off_c,9,39,0,
2,11280,Note_off_c,9,40,0,
2,11280,Note_off_c,9,41,0,
2,11280,Note_off_c,9,42,0,
2,11280,Note_off_c,9,43,0,
2,11280,Note_off_c,9,44,0,
2,11280,Note_off_c,9,45,0,
2,11280,Note_off_c,9,46,0,
2,11280,Note_off_c,9,47,0,
2,11280,Note_off_c,9,48,0,
2,11280,Note_off_c,9,49,0,
2,11280,Note_off_c,9,50,0,
2,11280,Note_off_c,9,51,0,
2,11280,Note_off_c,9,56,0,
2,11280,Note_off_c,9,57,0,
2,11280,Note_off_c,9,59,0,
2,11280,Note_off_c,9,60,0,
2,11280,Note_off_c,9,61,0,
2,11280,Note_off_c,9,63,0,
2,11280,Note_off_c,9,68,0,
2,11280,Note_off_c,9,69,0,
2,11280,Note_off_c,9,70,0,
2,11280,Note_off_c,9,76,0,
2,11280,Note_off_c,9,80,0,
2,11280,Note_off_c,9,81,0,
2,11280,Note_off_c,9,82,0,
2,11280,Note_off_c,9,87,0,
2,11280,Note_off_c,9,88,0,
2,11280,Note_off_c,9,89,0,
2,11280,Note_off_c,9,91,0,
2,11280,Note_off_c,9,93,0,
2,11310,Note_off_c,9,35,0,
2,11310,Note_off_c,9,36,0,
2,11310,Note_off_c,9,37,0,
2,11310,Note_off_c,9,38,0,
2,11310,Note_off_c,9,39,0,
2,11310,Note_off_c,9,40,0,
2,11310,Note_off_c,9,41,0,
2,11310,Note_off_c,9,42,0,
2,11310,Note_off_c,9,43,0,
2,11310,Note_off_c,9,44,0,
2,11310,Note_off_c,9,45,0,
2,11310,Note_off_c,9,46,0,
2,11310,Note_off_c,9,47,0,
2,11310,Note_off_c,9,48,0,
2,11310,Note_off_c,9,49,0,
2,11310,Note_off_c,9,50,0,
2,11310,Note_off_c,9,51,0,
2,11310,Note_off_c,9,56,0,
2,11310,Note_off_c,9,57,0,
2,11310,Note_off_c,9,59,0,
2,11310,Note_off_c,9,60,0,
2,11310,Note_off_c,9,61,0,
2,11310,Note_off_c,9,63,0,
2,11310,Note_off_c,9,68,0,
2,11310,Note_off_c,9,69,0,
2,11310,Note_off_c,9,70,0,
2,11310,Note_off_c,9,76,0,
2,11310,Note_off_c,9,80,0,
2,11310,Note_off_c,9,81,0,
2,11310,Note_off_c,9,82,0,
2,11310,Note_off_c,9,87,0,
2,11310,Note_off_c,9,88,0,
2,11310,Note_off_c,9,89,0,
2,11310,Note_off_c,9,91,0,
2,11310,Note_off_c,9,93,0,
2,11340,Note_off_c,9,35,0,
2,11340,Note_off_c,9,36,0,
2,11340,Note_off_c,9,37,0,
2,11340,Note_off_c,9,38,0,
2,11340,Note_off_c,9,39,0,
2,11340,Note_off_c,9,40,0,
2,11340,Note_off_c,9,41,0,
2,11340,Note_off_c,9,42,0,
2,11340,Note_off_c,9,43,0,
2,11340,Note_off_c,9,44,0,
2,11340,Note_off_c,9,45,0,
2,11340,Note_off_c,9,46,0,
2,11340,Note_off_c,9,47,0,
2,11340,Note_off_c,9,48,0,
2,11340,Note_off_c,9,49,0,
2,11340,Note_off_c,9,50,0,
2,11340,Note_off_c,9,51,0,
2,11340,Note_off_c,9,56,0,
2,11340,Note_off_c,9,57,0,
2,11340,Note_off_c,9,59,0,
2,11340,Note_off_c,9,60,0,
2,11340,Note_off_c,9,61,0,
2,11340,Note_off_c,9,63,0,
2,11340,Note_off_c,9,68,0,
2,11340,Note_off_c,9,69,0,
2,11340,Note_off_c,9,70,0,
2,11340,Note_off_c,9,76,0,
2,11340,Note_off_c,9,80,0,
2,11340,Note_off_c,9,81,0,
2,11340,Note_off_c,9,82,0,
2,11340,Note_off_c,9,87,0,
2,11340,Note_off_c,9,88,0,
2,11340,Note_off_c,9,89,0,
2,11340,Note_off_c,9,91,0,
2,11340,Note_off_c,9,93,0,
2,11370,Note_off_c,9,35,0,
2,11370,Note_off_c,9,36,0,
2,11370,Note_off_c,9,37,0,
2,11370,Note_off_c,9,38,0,
2,11370,Note_off_c,9,39,0,
2,11370,Note_off_c,9,40,0,
2,11370,Note_off_c,9,41,0,
2,11370,Note_off_c,9,42,0,
2,11370,Note_off_c,9,43,0,
2,11370,Note_off_c,9,44,0,
2,11370,Note_off_c,9,45,0,
2,11370,Note_off_c,9,46,0,
2,11370,Note_off_c,9,47,0,
2,11370,Note_off_c,9,48,0,
2,11370,Note_off_c,9,49,0,
2,11370,Note_off_c,9,50,0,
2,11370,Note_off_c,9,51,0,
2,11370,Note_off_c,9,56,0,
2,11370,Note_off_c,9,57,0,
2,11370,Note_off_c,9,59,0,
2,11370,Note_off_c,9,60,0,
2,11370,Note_off_c,9,61,0,
2,11370,Note_off_c,9,63,0,
2,11370,Note_off_c,9,68,0,
2,11370,Note_off_c,9,69,0,
2,11370,Note_off_c,9,70,0,
2,11370,Note_off_c,9,76,0,
2,11370,Note_off_c,9,80,0,
2,11370,Note_off_c,9,81,0,
2,11370,Note_off_c,9,82,0,
2,11370,Note_off_c,9,87,0,
2,11370,Note_off_c,9,88,0,
2,11370,Note_off_c,9,89,0,
2,11370,Note_off_c,9,91,0,
2,11370,Note_off_c,9,93,0,
2,11400,Note_off_c,9,35,0,
2,11400,Note_off_c,9,36,0,
2,11400,Note_off_c,9,37,0,
2,11400,Note_off_c,9,38,0,
2,11400,Note_off_c,9,39,0,
2,11400,Note_off_c,9,40,0,
2,11400,Note_off_c,9,41,0,
2,11400,Note_off_c,9,42,0,
2,11400,Note_off_c,9,43,0,
2,11400,Note_off_c,9,44,0,
2,11400,Note_off_c,9,45,0,
2,11400,Note_off_c,9,46,0,
2,11400,Note_off_c,9,47,0,
2,11400,Note_off_c,9,48,0,
2,11400,Note_off_c,9,49,0,
2,11400,Note_off_c,9,50,0,
2,11400,Note_off_c,9,51,0,
2,11400,Note_off_c,9,56,0,
2,11400,Note_off_c,9,57,0,
2,11400,Note_off_c,9,59,0,
2,11400,Note_off_c,9,60,0,
2,11400,Note_off_c,9,61,0,
2,11400,Note_off_c,9,63,0,
2,11400,Note_off_c,9,68,0,
2,11400,Note_off_c,9,69,0,
2,11400,Note_off_c,9,70,0,
2,11400,Note_off_c,9,76,0,
2,11400,Note_off_c,9,80,0,
2,11400,Note_off_c,9,81,0,
2,11400,Note_off_c,9,82,0,
2,11400,Note_off_c,9,87,0,
2,11400,Note_off_c,9,88,0,
2,11400,Note_off_c,9,89,0,
2,11400,Note_off_c,9,91,0,
2,11400,Note_off_c,9,93,0,
2,11430,Note_off_c,9,35,0,
2,11430,Note_off_c,9,36,0,
2,11430,Note_off_c,9,37,0,
2,11430,Note_off_c,9,38,0,
2,11430,Note_off_c,9,39,0,
2,11430,Note_off_c,9,40,0,
2,11430,Note_off_c,9,41,0,
2,11430,Note_off_c,9,42,0,
2,11430,Note_off_c,9,43,0,
2,11430,Note_off_c,9,44,0,
2,11430,Note_off_c,9,45,0,
2,11430,Note_off_c,9,46,0,
2,11430,Note_off_c,9,47,0,
2,11430,Note_off_c,9,48,0,
2,11430,Note_off_c,9,49,0,
2,11430,Note_off_c,9,50,0,
2,11430,Note_off_c,9,51,0,
2,11430,Note_off_c,9,56,0,
2,11430,Note_off_c,9,57,0,
2,11430,Note_off_c,9,59,0,
2,11430,Note_off_c,9,60,0,
2,11430,Note_off_c,9,61,0,
2,11430,Note_off_c,9,63,0,
2,11430,Note_off_c,9,68,0,
2,11430,Note_off_c,9,69,0,
2,11430,Note_off_c,9,70,0,
2,11430,Note_off_c,9,76,0,
2,11430,Note_off_c,9,80,0,
2,11430,Note_off_c,9,81,0,
2,11430,Note_off_c,9,82,0,
2,11430,Note_off_c,9,87,0,
2,11430,Note_off_c,9,88,0,
2,11430,Note_off_c,9,89,0,
2,11430,Note_off_c,9,91,0,
2,11430,Note_off_c,9,93,0,
2,11460,Note_off_c,9,35,0,
2,11460,Note_off_c,9,36,0,
2,11460,Note_off_c,9,37,0,
2,11460,Note_off_c,9,38,0,
2,11460,Note_off_c,9,39,0,
2,11460,Note_off_c,9,40,0,
2,11460,Note_off_c,9,41,0,
2,11460,Note_off_c,9,42,0,
2,11460,Note_off_c,9,43,0,
2,11460,Note_off_c,9,44,0,
2,11460,Note_off_c,9,45,0,
2,11460,Note_off_c,9,46,0,
2,11460,Note_off_c,9,47,0,
2,11460,Note_off_c,9,48,0,
2,11460,Note_off_c,9,49,0,
2,11460,Note_off_c,9,50,0,
2,11460,Note_off_c,9,51,0,
2,11460,Note_off_c,9,56,0,
2,11460,Note_off_c,9,57,0,
2,11460,Note_off_c,9,59,0,
2,11460,Note_off_c,9,60,0,
2,11460,Note_off_c,9,61,0,
2,11460,Note_off_c,9,63,0,
2,11460,Note_off_c,9,68,0,
2,11460,Note_off_c,9,69,0,
2,11460,Note_off_c,9,70,0,
2,11460,Note_off_c,9,76,0,
2,11460,Note_off_c,9,80,0,
2,11460,Note_off_c,9,81,0,
2,11460,Note_off_c,9,82,0,
2,11460,Note_off_c,9,87,0,
2,11460,Note_off_c,9,88,0,
2,11460,Note_off_c,9,89,0,
2,11460,Note_off_c,9,91,0,
2,11460,Note_off_c,9,93,0,
2,11490,Note_off_c,9,35,0,
2,11490,Note_off_c,9,36,0,
2,11490,Note_off_c,9,37,0,
2,11490,Note_off_c,9,38,0,
2,11490,Note_off_c,9,39,0,
2,11490,Note_off_c,9,40,0,
2,11490,Note_off_c,9,41,0,
2,11490,Note_off_c,9,42,0,
2,11490,Note_off_c,9,43,0,
2,11490,Note_off_c,9,44,0,
2,11490,Note_off_c,9,45,0,
2,11490,Note_off_c,9,46,0,
2,11490,Note_off_c,9,47,0,
2,11490,Note_off_c,9,48,0,
2,11490,Note_off_c,9,49,0,
2,11490,Note_off_c,9,50,0,
2,11490,Note_off_c,9,51,0,
2,11490,Note_off_c,9,56,0,
2,11490,Note_off_c,9,57,0,
2,11490,Note_off_c,9,59,0,
2,11490,Note_off_c,9,60,0,
2,11490,Note_off_c,9,61,0,
2,11490,Note_off_c,9,63,0,
2,11490,Note_off_c,9,68,0,
2,11490,Note_off_c,9,69,0,
2,11490,Note_off_c,9,70,0,
2,11490,Note_off_c,9,76,0,
2,11490,Note_off_c,9,80,0,
2,11490,Note_off_c,9,81,0,
2,11490,Note_off_c,9,82,0,
2,11490,Note_off_c,9,87,0,
2,11490,Note_off_c,9,88,0,
2,11490,Note_off_c,9,89,0,
2,11490,Note_off_c,9,91,0,
2,11490,Note_off_c,9,93,0,
2,11520,Note_off_c,9,35,0,
2,11520,Note_off_c,9,36,0,
2,11520,Note_off_c,9,37,0,
2,11520,Note_off_c,9,38,0,
2,11520,Note_off_c,9,39,0,
2,11520,Note_off_c,9,40,0,
2,11520,Note_off_c,9,41,0,
2,11520,Note_off_c,9,42,0,
2,11520,Note_off_c,9,43,0,
2,11520,Note_off_c,9,44,0,
2,11520,Note_off_c,9,45,0,
2,11520,Note_off_c,9,46,0,
2,11520,Note_off_c,9,47,0,
2,11520,Note_off_c,9,48,0,
2,11520,Note_off_c,9,49,0,
2,11520,Note_off_c,9,50,0,
2,11520,Note_off_c,9,51,0,
2,11520,Note_off_c,9,56,0,
2,11520,Note_off_c,9,57,0,
2,11520,Note_off_c,9,59,0,
2,11520,Note_off_c,9,60,0,
2,11520,Note_off_c,9,61,0,
2,11520,Note_off_c,9,63,0,
2,11520,Note_off_c,9,68,0,
2,11520,Note_off_c,9,69,0,
2,11520,Note_off_c,9,70,0,
2,11520,Note_off_c,9,76,0,
2,11520,Note_off_c,9,80,0,
2,11520,Note_off_c,9,81,0,
2,11520,Note_off_c,9,82,0,
2,11520,Note_off_c,9,87,0,
2,11520,Note_off_c,9,88,0,
2,11520,Note_off_c,9,89,0,
2,11520,Note_off_c,9,91,0,
2,11520,Note_off_c,9,93,0,
2,11550,Note_off_c,9,35,0,
2,11550,Note_off_c,9,36,0,
2,11550,Note_off_c,9,37,0,
2,11550,Note_off_c,9,38,0,
2,11550,Note_off_c,9,39,0,
2,11550,Note_off_c,9,40,0,
2,11550,Note_off_c,9,41,0,
2,11550,Note_off_c,9,42,0,
2,11550,Note_off_c,9,43,0,
2,11550,Note_off_c,9,44,0,
2,11550,Note_off_c,9,45,0,
2,11550,Note_off_c,9,46,0,
2,11550,Note_off_c,9,47,0,
2,11550,Note_off_c,9,48,0,
2,11550,Note_off_c,9,49,0,
2,11550,Note_off_c,9,50,0,
2,11550,Note_off_c,9,51,0,
2,11550,Note_off_c,9,56,0,
2,11550,Note_off_c,9,57,0,
2,11550,Note_off_c,9,59,0,
2,11550,Note_off_c,9,60,0,
2,11550,Note_off_c,9,61,0,
2,11550,Note_off_c,9,63,0,
2,11550,Note_off_c,9,68,0,
2,11550,Note_off_c,9,69,0,
2,11550,Note_off_c,9,70,0,
2,11550,Note_off_c,9,76,0,
2,11550,Note_off_c,9,80,0,
2,11550,Note_off_c,9,81,0,
2,11550,Note_off_c,9,82,0,
2,11550,Note_off_c,9,87,0,
2,11550,Note_off_c,9,88,0,
2,11550,Note_off_c,9,89,0,
2,11550,Note_off_c,9,91,0,
2,11550,Note_off_c,9,93,0,
2,11580,Note_off_c,9,35,0,
2,11580,Note_off_c,9,36,0,
2,11580,Note_off_c,9,37,0,
2,11580,Note_off_c,9,38,0,
2,11580,Note_off_c,9,39,0,
2,11580,Note_off_c,9,40,0,
2,11580,Note_off_c,9,41,0,
2,11580,Note_off_c,9,42,0,
2,11580,Note_off_c,9,43,0,
2,11580,Note_off_c,9,44,0,
2,11580,Note_off_c,9,45,0,
2,11580,Note_off_c,9,46,0,
2,11580,Note_off_c,9,47,0,
2,11580,Note_off_c,9,48,0,
2,11580,Note_off_c,9,49,0,
2,11580,Note_off_c,9,50,0,
2,11580,Note_off_c,9,51,0,
2,11580,Note_off_c,9,56,0,
2,11580,Note_off_c,9,57,0,
2,11580,Note_off_c,9,59,0,
2,11580,Note_off_c,9,60,0,
2,11580,Note_off_c,9,61,0,
2,11580,Note_off_c,9,63,0,
2,11580,Note_off_c,9,68,0,
2,11580,Note_off_c,9,69,0,
2,11580,Note_off_c,9,70,0,
2,11580,Note_off_c,9,76,0,
2,11580,Note_off_c,9,80,0,
2,11580,Note_off_c,9,81,0,
2,11580,Note_off_c,9,82,0,
2,11580,Note_off_c,9,87,0,
2,11580,Note_off_c,9,88,0,
2,11580,Note_off_c,9,89,0,
2,11580,Note_off_c,9,91,0,
2,11580,Note_off_c,9,93,0,
2,11610,Note_off_c,9,35,0,
2,11610,Note_off_c,9,36,0,
2,11610,Note_off_c,9,37,0,
2,11610,Note_off_c,9,38,0,
2,11610,Note_off_c,9,39,0,
2,11610,Note_off_c,9,40,0,
2,11610,Note_off_c,9,41,0,
2,11610,Note_off_c,9,42,0,
2,11610,Note_off_c,9,43,0,
2,11610,Note_off_c,9,44,0,
2,11610,Note_off_c,9,45,0,
2,11610,Note_off_c,9,46,0,
2,11610,Note_off_c,9,47,0,
2,11610,Note_off_c,9,48,0,
2,11610,Note_off_c,9,49,0,
2,11610,Note_off_c,9,50,0,
2,11610,Note_off_c,9,51,0,
2,11610,Note_off_c,9,56,0,
2,11610,Note_off_c,9,57,0,
2,11610,Note_off_c,9,59,0,
2,11610,Note_off_c,9,60,0,
2,11610,Note_off_c,9,61,0,
2,11610,Note_off_c,9,63,0,
2,11610,Note_off_c,9,68,0,
2,11610,Note_off_c,9,69,0,
2,11610,Note_off_c,9,70,0,
2,11610,Note_off_c,9,76,0,
2,11610,Note_off_c,9,80,0,
2,11610,Note_off_c,9,81,0,
2,11610,Note_off_c,9,82,0,
2,11610,Note_off_c,9,87,0,
2,11610,Note_off_c,9,88,0,
2,11610,Note_off_c,9,89,0,
2,11610,Note_off_c,9,91,0,
2,11610,Note_off_c,9,93,0,
2,11640,Note_off_c,9,35,0,
2,11640,Note_off_c,9,36,0,
2,11640,Note_off_c,9,37,0,
2,11640,Note_off_c,9,38,0,
2,11640,Note_off_c,9,39,0,
2,11640,Note_off_c,9,40,0,
2,11640,Note_off_c,9,41,0,
2,11640,Note_off_c,9,42,0,
2,11640,Note_off_c,9,43,0,
2,11640,Note_off_c,9,44,0,
2,11640,Note_off_c,9,45,0,
2,11640,Note_off_c,9,46,0,
2,11640,Note_off_c,9,47,0,
2,11640,Note_off_c,9,48,0,
2,11640,Note_off_c,9,49,0,
2,11640,Note_off_c,9,50,0,
2,11640,Note_off_c,9,51,0,
2,11640,Note_off_c,9,56,0,
2,11640,Note_off_c,9,57,0,
2,11640,Note_off_c,9,59,0,
2,11640,Note_off_c,9,60,0,
2,11640,Note_off_c,9,61,0,
2,11640,Note_off_c,9,63,0,
2,11640,Note_off_c,9,68,0,
2,11640,Note_off_c,9,69,0,
2,11640,Note_off_c,9,70,0,
2,11640,Note_off_c,9,76,0,
2,11640,Note_off_c,9,80,0,
2,11640,Note_off_c,9,81,0,
2,11640,Note_off_c,9,82,0,
2,11640,Note_off_c,9,87,0,
2,11640,Note_off_c,9,88,0,
2,11640,Note_off_c,9,89,0,
2,11640,Note_off_c,9,91,0,
2,11640,Note_off_c,9,93,0,
2,11670,Note_off_c,9,35,0,
2,11670,Note_off_c,9,36,0,
2,11670,Note_off_c,9,37,0,
2,11670,Note_off_c,9,38,0,
2,11670,Note_off_c,9,39,0,
2,11670,Note_off_c,9,40,0,
2,11670,Note_off_c,9,41,0,
2,11670,Note_off_c,9,42,0,
2,11670,Note_off_c,9,43,0,
2,11670,Note_off_c,9,44,0,
2,11670,Note_off_c,9,45,0,
2,11670,Note_off_c,9,46,0,
2,11670,Note_off_c,9,47,0,
2,11670,Note_off_c,9,48,0,
2,11670,Note_off_c,9,49,0,
2,11670,Note_off_c,9,50,0,
2,11670,Note_off_c,9,51,0,
2,11670,Note_off_c,9,56,0,
2,11670,Note_off_c,9,57,0,
2,11670,Note_off_c,9,59,0,
2,11670,Note_off_c,9,60,0,
2,11670,Note_off_c,9,61,0,
2,11670,Note_off_c,9,63,0,
2,11670,Note_off_c,9,68,0,
2,11670,Note_off_c,9,69,0,
2,11670,Note_off_c,9,70,0,
2,11670,Note_off_c,9,76,0,
2,11670,Note_off_c,9,80,0,
2,11670,Note_off_c,9,81,0,
2,11670,Note_off_c,9,82,0,
2,11670,Note_off_c,9,87,0,
2,11670,Note_off_c,9,88,0,
2,11670,Note_off_c,9,89,0,
2,11670,Note_off_c,9,91,0,
2,11670,Note_off_c,9,93,0,
2,11700,Note_off_c,9,35,0,
2,11700,Note_off_c,9,36,0,
2,11700,Note_off_c,9,37,0,
2,11700,Note_off_c,9,38,0,
2,11700,Note_off_c,9,39,0,
2,11700,Note_off_c,9,40,0,
2,11700,Note_off_c,9,41,0,
2,11700,Note_off_c,9,42,0,
2,11700,Note_off_c,9,43,0,
2,11700,Note_off_c,9,44,0,
2,11700,Note_off_c,9,45,0,
2,11700,Note_off_c,9,46,0,
2,11700,Note_off_c,9,47,0,
2,11700,Note_off_c,9,48,0,
2,11700,Note_off_c,9,49,0,
2,11700,Note_off_c,9,50,0,
2,11700,Note_off_c,9,51,0,
2,11700,Note_off_c,9,56,0,
2,11700,Note_off_c,9,57,0,
2,11700,Note_off_c,9,59,0,
2,11700,Note_off_c,9,60,0,
2,11700,Note_off_c,9,61,0,
2,11700,Note_off_c,9,63,0,
2,11700,Note_off_c,9,68,0,
2,11700,Note_off_c,9,69,0,
2,11700,Note_off_c,9,70,0,
2,11700,Note_off_c,9,76,0,
2,11700,Note_off_c,9,80,0,
2,11700,Note_off_c,9,81,0,
2,11700,Note_off_c,9,82,0,
2,11700,Note_off_c,9,87,0,
2,11700,Note_off_c,9,88,0,
2,11700,Note_off_c,9,89,0,
2,11700,Note_off_c,9,91,0,
2,11700,Note_off_c,9,93,0,
2,11730,Note_off_c,9,35,0,
2,11730,Note_off_c,9,36,0,
2,11730,Note_off_c,9,37,0,
2,11730,Note_off_c,9,38,0,
2,11730,Note_off_c,9,39,0,
2,11730,Note_off_c,9,40,0,
2,11730,Note_off_c,9,41,0,
2,11730,Note_off_c,9,42,0,
2,11730,Note_off_c,9,43,0,
2,11730,Note_off_c,9,44,0,
2,11730,Note_off_c,9,45,0,
2,11730,Note_off_c,9,46,0,
2,11730,Note_off_c,9,47,0,
2,11730,Note_off_c,9,48,0,
2,11730,Note_off_c,9,49,0,
2,11730,Note_off_c,9,50,0,
2,11730,Note_off_c,9,51,0,
2,11730,Note_off_c,9,56,0,
2,11730,Note_off_c,9,57,0,
2,11730,Note_off_c,9,59,0,
2,11730,Note_off_c,9,60,0,
2,11730,Note_off_c,9,61,0,
2,11730,Note_off_c,9,63,0,
2,11730,Note_off_c,9,68,0,
2,11730,Note_off_c,9,69,0,
2,11730,Note_off_c,9,70,0,
2,11730,Note_off_c,9,76,0,
2,11730,Note_off_c,9,80,0,
2,11730,Note_off_c,9,81,0,
2,11730,Note_off_c,9,82,0,
2,11730,Note_off_c,9,87,0,
2,11730,Note_off_c,9,88,0,
2,11730,Note_off_c,9,89,0,
2,11730,Note_off_c,9,91,0,
2,11730,Note_off_c,9,93,0,
2,11760,Note_off_c,9,35,0,
2,11760,Note_off_c,9,36,0,
2,11760,Note_off_c,9,37,0,
2,11760,Note_off_c,9,38,0,
2,11760,Note_off_c,9,39,0,
2,11760,Note_off_c,9,40,0,
2,11760,Note_off_c,9,41,0,
2,11760,Note_off_c,9,42,0,
2,11760,Note_off_c,9,43,0,
2,11760,Note_off_c,9,44,0,
2,11760,Note_off_c,9,45,0,
2,11760,Note_off_c,9,46,0,
2,11760,Note_off_c,9,47,0,
2,11760,Note_off_c,9,48,0,
2,11760,Note_off_c,9,49,0,
2,11760,Note_off_c,9,50,0,
2,11760,Note_off_c,9,51,0,
2,11760,Note_off_c,9,56,0,
2,11760,Note_off_c,9,57,0,
2,11760,Note_off_c,9,59,0,
2,11760,Note_off_c,9,60,0,
2,11760,Note_off_c,9,61,0,
2,11760,Note_off_c,9,63,0,
2,11760,Note_off_c,9,68,0,
2,11760,Note_off_c,9,69,0,
2,11760,Note_off_c,9,70,0,
2,11760,Note_off_c,9,76,0,
2,11760,Note_off_c,9,80,0,
2,11760,Note_off_c,9,81,0,
2,11760,Note_off_c,9,82,0,
2,11760,Note_off_c,9,87,0,
2,11760,Note_off_c,9,88,0,
2,11760,Note_off_c,9,89,0,
2,11760,Note_off_c,9,91,0,
2,11760,Note_off_c,9,93,0,
2,11790,Note_off_c,9,35,0,
2,11790,Note_off_c,9,36,0,
2,11790,Note_off_c,9,37,0,
2,11790,Note_off_c,9,38,0,
2,11790,Note_off_c,9,39,0,
2,11790,Note_off_c,9,40,0,
2,11790,Note_off_c,9,41,0,
2,11790,Note_off_c,9,42,0,
2,11790,Note_off_c,9,43,0,
2,11790,Note_off_c,9,44,0,
2,11790,Note_off_c,9,45,0,
2,11790,Note_off_c,9,46,0,
2,11790,Note_off_c,9,47,0,
2,11790,Note_off_c,9,48,0,
2,11790,Note_off_c,9,49,0,
2,11790,Note_off_c,9,50,0,
2,11790,Note_off_c,9,51,0,
2,11790,Note_off_c,9,56,0,
2,11790,Note_off_c,9,57,0,
2,11790,Note_off_c,9,59,0,
2,11790,Note_off_c,9,60,0,
2,11790,Note_off_c,9,61,0,
2,11790,Note_off_c,9,63,0,
2,11790,Note_off_c,9,68,0,
2,11790,Note_off_c,9,69,0,
2,11790,Note_off_c,9,70,0,
2,11790,Note_off_c,9,76,0,
2,11790,Note_off_c,9,80,0,
2,11790,Note_off_c,9,81,0,
2,11790,Note_off_c,9,82,0,
2,11790,Note_off_c,9,87,0,
2,11790,Note_off_c,9,88,0,
2,11790,Note_off_c,9,89,0,
2,11790,Note_off_c,9,91,0,
2,11790,Note_off_c,9,93,0,
2,11820,Note_off_c,9,35,0,
2,11820,Note_off_c,9,36,0,
2,11820,Note_off_c,9,37,0,
2,11820,Note_off_c,9,38,0,
2,11820,Note_off_c,9,39,0,
2,11820,Note_off_c,9,40,0,
2,11820,Note_off_c,9,41,0,
2,11820,Note_off_c,9,42,0,
2,11820,Note_off_c,9,43,0,
2,11820,Note_off_c,9,44,0,
2,11820,Note_off_c,9,45,0,
2,11820,Note_off_c,9,46,0,
2,11820,Note_off_c,9,47,0,
2,11820,Note_off_c,9,48,0,
2,11820,Note_off_c,9,49,0,
2,11820,Note_off_c,9,50,0,
2,11820,Note_off_c,9,51,0,
2,11820,Note_off_c,9,56,0,
2,11820,Note_off_c,9,57,0,
2,11820,Note_off_c,9,59,0,
2,11820,Note_off_c,9,60,0,
2,11820,Note_off_c,9,61,0,
2,11820,Note_off_c,9,63,0,
2,11820,Note_off_c,9,68,0,
2,11820,Note_off_c,9,69,0,
2,11820,Note_off_c,9,70,0,
2,11820,Note_off_c,9,76,0,
2,11820,Note_off_c,9,80,0,
2,11820,Note_off_c,9,81,0,
2,11820,Note_off_c,9,82,0,
2,11820,Note_off_c,9,87,0,
2,11820,Note_off_c,9,88,0,
2,11820,Note_off_c,9,89,0,
2,11820,Note_off_c,9,91,0,
2,11820,Note_off_c,9,93,0,
2,11850,Note_off_c,9,35,0,
2,11850,Note_off_c,9,36,0,
2,11850,Note_off_c,9,37,0,
2,11850,Note_off_c,9,38,0,
2,11850,Note_off_c,9,39,0,
2,11850,Note_off_c,9,40,0,
2,11850,Note_off_c,9,41,0,
2,11850,Note_off_c,9,42,0,
2,11850,Note_off_c,9,43,0,
2,11850,Note_off_c,9,44,0,
2,11850,Note_off_c,9,45,0,
2,11850,Note_off_c,9,46,0,
2,11850,Note_off_c,9,47,0,
2,11850,Note_off_c,9,48,0,
2,11850,Note_off_c,9,49,0,
2,11850,Note_off_c,9,50,0,
2,11850,Note_off_c,9,51,0,
2,11850,Note_off_c,9,56,0,
2,11850,Note_off_c,9,57,0,
2,11850,Note_off_c,9,59,0,
2,11850,Note_off_c,9,60,0,
2,11850,Note_off_c,9,61,0,
2,11850,Note_off_c,9,63,0,
2,11850,Note_off_c,9,68,0,
2,11850,Note_off_c,9,69,0,
2,11850,Note_off_c,9,70,0,
2,11850,Note_off_c,9,76,0,
2,11850,Note_off_c,9,80,0,
2,11850,Note_off_c,9,81,0,
2,11850,Note_off_c,9,82,0,
2,11850,Note_off_c,9,87,0,
2,11850,Note_off_c,9,88,0,
2,11850,Note_off_c,9,89,0,
2,11850,Note_off_c,9,91,0,
2,11850,Note_off_c,9,93,0,
2,11880,Note_off_c,9,35,0,
2,11880,Note_off_c,9,36,0,
2,11880,Note_off_c,9,37,0,
2,11880,Note_off_c,9,38,0,
2,11880,Note_off_c,9,39,0,
2,11880,Note_off_c,9,40,0,
2,11880,Note_off_c,9,41,0,
2,11880,Note_off_c,9,42,0,
2,11880,Note_off_c,9,43,0,
2,11880,Note_off_c,9,44,0,
2,11880,Note_off_c,9,45,0,
2,11880,Note_off_c,9,46,0,
2,11880,Note_off_c,9,47,0,
2,11880,Note_off_c,9,48,0,
2,11880,Note_off_c,9,49,0,
2,11880,Note_off_c,9,50,0,
2,11880,Note_off_c,9,51,0,
2,11880,Note_off_c,9,56,0,
2,11880,Note_off_c,9,57,0,
2,11880,Note_off_c,9,59,0,
2,11880,Note_off_c,9,60,0,
2,11880,Note_off_c,9,61,0,
2,11880,Note_off_c,9,63,0,
2,11880,Note_off_c,9,68,0,
2,11880,Note_off_c,9,69,0,
2,11880,Note_off_c,9,70,0,
2,11880,Note_off_c,9,76,0,
2,11880,Note_off_c,9,80,0,
2,11880,Note_off_c,9,81,0,
2,11880,Note_off_c,9,82,0,
2,11880,Note_off_c,9,87,0,
2,11880,Note_off_c,9,88,0,
2,11880,Note_off_c,9,89,0,
2,11880,Note_off_c,9,91,0,
2,11880,Note_off_c,9,93,0,
2,11910,Note_off_c,9,35,0,
2,11910,Note_off_c,9,36,0,
2,11910,Note_off_c,9,37,0,
2,11910,Note_off_c,9,38,0,
2,11910,Note_off_c,9,39,0,
2,11910,Note_off_c,9,40,0,
2,11910,Note_off_c,9,41,0,
2,11910,Note_off_c,9,42,0,
2,11910,Note_off_c,9,43,0,
2,11910,Note_off_c,9,44,0,
2,11910,Note_off_c,9,45,0,
2,11910,Note_off_c,9,46,0,
2,11910,Note_off_c,9,47,0,
2,11910,Note_off_c,9,48,0,
2,11910,Note_off_c,9,49,0,
2,11910,Note_off_c,9,50,0,
2,11910,Note_off_c,9,51,0,
2,11910,Note_off_c,9,56,0,
2,11910,Note_off_c,9,57,0,
2,11910,Note_off_c,9,59,0,
2,11910,Note_off_c,9,60,0,
2,11910,Note_off_c,9,61,0,
2,11910,Note_off_c,9,63,0,
2,11910,Note_off_c,9,68,0,
2,11910,Note_off_c,9,69,0,
2,11910,Note_off_c,9,70,0,
2,11910,Note_off_c,9,76,0,
2,11910,Note_off_c,9,80,0,
2,11910,Note_off_c,9,81,0,
2,11910,Note_off_c,9,82,0,
2,11910,Note_off_c,9,87,0,
2,11910,Note_off_c,9,88,0,
2,11910,Note_off_c,9,89,0,
2,11910,Note_off_c,9,91,0,
2,11910,Note_off_c,9,93,0,
2,11940,Note_off_c,9,35,0,
2,11940,Note_off_c,9,36,0,
2,11940,Note_off_c,9,37,0,
2,11940,Note_off_c,9,38,0,
2,11940,Note_off_c,9,39,0,
2,11940,Note_off_c,9,40,0,
2,11940,Note_off_c,9,41,0,
2,11940,Note_off_c,9,42,0,
2,11940,Note_off_c,9,43,0,
2,11940,Note_off_c,9,44,0,
2,11940,Note_off_c,9,45,0,
2,11940,Note_off_c,9,46,0,
2,11940,Note_off_c,9,47,0,
2,11940,Note_off_c,9,48,0,
2,11940,Note_off_c,9,49,0,
2,11940,Note_off_c,9,50,0,
2,11940,Note_off_c,9,51,0,
2,11940,Note_off_c,9,56,0,
2,11940,Note_off_c,9,57,0,
2,11940,Note_off_c,9,59,0,
2,11940,Note_off_c,9,60,0,
2,11940,Note_off_c,9,61,0,
2,11940,Note_off_c,9,63,0,
2,11940,Note_off_c,9,68,0,
2,11940,Note_off_c,9,69,0,
2,11940,Note_off_c,9,70,0,
2,11940,Note_off_c,9,76,0,
2,11940,Note_off_c,9,80,0,
2,11940,Note_off_c,9,81,0,
2,11940,Note_off_c,9,82,0,
2,11940,Note_off_c,9,87,0,
2,11940,Note_off_c,9,88,0,
2,11940,Note_off_c,9,89,0,
2,11940,Note_off_c,9,91,0,
2,11940,Note_off_c,9,93,0,
2,11970,Note_off_c,9,35,0,
2,11970,Note_off_c,9,36,0,
2,11970,Note_off_c,9,37,0,
2,11970,Note_off_c,9,38,0,
2,11970,Note_off_c,9,39,0,
2,11970,Note_off_c,9,40,0,
2,11970,Note_off_c,9,41,0,
2,11970,Note_off_c,9,42,0,
2,11970,Note_off_c,9,43,0,
2,11970,Note_off_c,9,44,0,
2,11970,Note_off_c,9,45,0,
2,11970,Note_off_c,9,46,0,
2,11970,Note_off_c,9,47,0,
2,11970,Note_off_c,9,48,0,
2,11970,Note_off_c,9,49,0,
2,11970,Note_off_c,9,50,0,
2,11970,Note_off_c,9,51,0,
2,11970,Note_off_c,9,56,0,
2,11970,Note_off_c,9,57,0,
2,11970,Note_off_c,9,59,0,
2,11970,Note_off_c,9,60,0,
2,11970,Note_off_c,9,61,0,
2,11970,Note_off_c,9,63,0,
2,11970,Note_off_c,9,68,0,
2,11970,Note_off_c,9,69,0,
2,11970,Note_off_c,9,70,0,
2,11970,Note_off_c,9,76,0,
2,11970,Note_off_c,9,80,0,
2,11970,Note_off_c,9,81,0,
2,11970,Note_off_c,9,82,0,
2,11970,Note_off_c,9,87,0,
2,11970,Note_off_c,9,88,0,
2,11970,Note_off_c,9,89,0,
2,11970,Note_off_c,9,91,0,
2,11970,Note_off_c,9,93,0,
2,12000,Note_off_c,9,35,0,
2,12000,Note_off_c,9,36,0,
2,12000,Note_off_c,9,37,0,
2,12000,Note_off_c,9,38,0,
2,12000,Note_off_c,9,39,0,
2,12000,Note_off_c,9,40,0,
2,12000,Note_off_c,9,41,0,
2,12000,Note_off_c,9,42,0,
2,12000,Note_off_c,9,43,0,
2,12000,Note_off_c,9,44,0,
2,12000,Note_off_c,9,45,0,
2,12000,Note_off_c,9,46,0,
2,12000,Note_off_c,9,47,0,
2,12000,Note_off_c,9,48,0,
2,12000,Note_off_c,9,49,0,
2,12000,Note_off_c,9,50,0,
2,12000,Note_off_c,9,51,0,
2,12000,Note_off_c,9,56,0,
2,12000,Note_off_c,9,57,0,
2,12000,Note_off_c,9,59,0,
2,12000,Note_off_c,9,60,0,
2,12000,Note_off_c,9,61,0,
2,12000,Note_off_c,9,63,0,
2,12000,Note_off_c,9,68,0,
2,12000,Note_off_c,9,69,0,
2,12000,Note_off_c,9,70,0,
2,12000,Note_off_c,9,76,0,
2,12000,Note_off_c,9,80,0,
2,12000,Note_off_c,9,81,0,
2,12000,Note_off_c,9,82,0,
2,12000,Note_off_c,9,87,0,
2,12000,Note_off_c,9,88,0,
2,12000,Note_off_c,9,89,0,
2,12000,Note_off_c,9,91,0,
2,12000,Note_off_c,9,93,0,
2,12030,Note_off_c,9,35,0,
2,12030,Note_off_c,9,36,0,
2,12030,Note_off_c,9,37,0,
2,12030,Note_off_c,9,38,0,
2,12030,Note_off_c,9,39,0,
2,12030,Note_off_c,9,40,0,
2,12030,Note_off_c,9,41,0,
2,12030,Note_off_c,9,42,0,
2,12030,Note_off_c,9,43,0,
2,12030,Note_off_c,9,44,0,
2,12030,Note_off_c,9,45,0,
2,12030,Note_off_c,9,46,0,
2,12030,Note_off_c,9,47,0,
2,12030,Note_off_c,9,48,0,
2,12030,Note_off_c,9,49,0,
2,12030,Note_off_c,9,50,0,
2,12030,Note_off_c,9,51,0,
2,12030,Note_off_c,9,56,0,
2,12030,Note_off_c,9,57,0,
2,12030,Note_off_c,9,59,0,
2,12030,Note_off_c,9,60,0,
2,12030,Note_off_c,9,61,0,
2,12030,Note_off_c,9,63,0,
2,12030,Note_off_c,9,68,0,
2,12030,Note_off_c,9,69,0,
2,12030,Note_off_c,9,70,0,
2,12030,Note_off_c,9,76,0,
2,12030,Note_off_c,9,80,0,
2,12030,Note_off_c,9,81,0,
2,12030,Note_off_c,9,82,0,
2,12030,Note_off_c,9,87,0,
2,12030,Note_off_c,9,88,0,
2,12030,Note_off_c,9,89,0,
2,12030,Note_off_c,9,91,0,
2,12030,Note_off_c,9,93,0,
2,12060,Note_off_c,9,35,0,
2,12060,Note_off_c,9,36,0,
2,12060,Note_off_c,9,37,0,
2,12060,Note_off_c,9,38,0,
2,12060,Note_off_c,9,39,0,
2,12060,Note_off_c,9,40,0,
2,12060,Note_off_c,9,41,0,
2,12060,Note_off_c,9,42,0,
2,12060,Note_off_c,9,43,0,
2,12060,Note_off_c,9,44,0,
2,12060,Note_off_c,9,45,0,
2,12060,Note_off_c,9,46,0,
2,12060,Note_off_c,9,47,0,
2,12060,Note_off_c,9,48,0,
2,12060,Note_off_c,9,49,0,
2,12060,Note_off_c,9,50,0,
2,12060,Note_off_c,9,51,0,
2,12060,Note_off_c,9,56,0,
2,12060,Note_off_c,9,57,0,
2,12060,Note_off_c,9,59,0,
2,12060,Note_off_c,9,60,0,
2,12060,Note_off_c,9,61,0,
2,12060,Note_off_c,9,63,0,
2,12060,Note_off_c,9,68,0,
2,12060,Note_off_c,9,69,0,
2,12060,Note_off_c,9,70,0,
2,12060,Note_off_c,9,76,0,
2,12060,Note_off_c,9,80,0,
2,12060,Note_off_c,9,81,0,
2,12060,Note_off_c,9,82,0,
2,12060,Note_off_c,9,87,0,
2,12060,Note_off_c,9,88,0,
2,12060,Note_off_c,9,89,0,
2,12060,Note_off_c,9,91,0,
2,12060,Note_off_c,9,93,0,
2,12090,Note_off_c,9,35,0,
2,12090,Note_off_c,9,36,0,
2,12090,Note_off_c,9,37,0,
2,12090,Note_off_c,9,38,0,
2,12090,Note_off_c,9,39,0,
2,12090,Note_off_c,9,40,0,
2,12090,Note_off_c,9,41,0,
2,12090,Note_off_c,9,42,0,
2,12090,Note_off_c,9,43,0,
2,12090,Note_off_c,9,44,0,
2,12090,Note_off_c,9,45,0,
2,12090,Note_off_c,9,46,0,
2,12090,Note_off_c,9,47,0,
2,12090,Note_off_c,9,48,0,
2,12090,Note_off_c,9,49,0,
2,12090,Note_off_c,9,50,0,
2,12090,Note_off_c,9,51,0,
2,12090,Note_off_c,9,56,0,
2,12090,Note_off_c,9,57,0,
2,12090,Note_off_c,9,59,0,
2,12090,Note_off_c,9,60,0,
2,12090,Note_off_c,9,61,0,
2,12090,Note_off_c,9,63,0,
2,12090,Note_off_c,9,68,0,
2,12090,Note_off_c,9,69,0,
2,12090,Note_off_c,9,70,0,
2,12090,Note_off_c,9,76,0,
2,12090,Note_off_c,9,80,0,
2,12090,Note_off_c,9,81,0,
2,12090,Note_off_c,9,82,0,
2,12090,Note_off_c,9,87,0,
2,12090,Note_off_c,9,88,0,
2,12090,Note_off_c,9,89,0,
2,12090,Note_off_c,9,91,0,
2,12090,Note_off_c,9,93,0,
2,12120,Note_off_c,9,35,0,
2,12120,Note_off_c,9,36,0,
2,12120,Note_off_c,9,37,0,
2,12120,Note_off_c,9,38,0,
2,12120,Note_off_c,9,39,0,
2,12120,Note_off_c,9,40,0,
2,12120,Note_off_c,9,41,0,
2,12120,Note_off_c,9,42,0,
2,12120,Note_off_c,9,43,0,
2,12120,Note_off_c,9,44,0,
2,12120,Note_off_c,9,45,0,
2,12120,Note_off_c,9,46,0,
2,12120,Note_off_c,9,47,0,
2,12120,Note_off_c,9,48,0,
2,12120,Note_off_c,9,49,0,
2,12120,Note_off_c,9,50,0,
2,12120,Note_off_c,9,51,0,
2,12120,Note_off_c,9,56,0,
2,12120,Note_off_c,9,57,0,
2,12120,Note_off_c,9,59,0,
2,12120,Note_off_c,9,60,0,
2,12120,Note_off_c,9,61,0,
2,12120,Note_off_c,9,63,0,
2,12120,Note_off_c,9,68,0,
2,12120,Note_off_c,9,69,0,
2,12120,Note_off_c,9,70,0,
2,12120,Note_off_c,9,76,0,
2,12120,Note_off_c,9,80,0,
2,12120,Note_off_c,9,81,0,
2,12120,Note_off_c,9,82,0,
2,12120,Note_off_c,9,87,0,
2,12120,Note_off_c,9,88,0,
2,12120,Note_off_c,9,89,0,
2,12120,Note_off_c,9,91,0,
2,12120,Note_off_c,9,93,0,
2,12150,Note_off_c,9,35,0,
2,12150,Note_off_c,9,36,0,
2,12150,Note_off_c,9,37,0,
2,12150,Note_off_c,9,38,0,
2,12150,Note_off_c,9,39,0,
2,12150,Note_off_c,9,40,0,
2,12150,Note_off_c,9,41,0,
2,12150,Note_off_c,9,42,0,
2,12150,Note_off_c,9,43,0,
2,12150,Note_off_c,9,44,0,
2,12150,Note_off_c,9,45,0,
2,12150,Note_off_c,9,46,0,
2,12150,Note_off_c,9,47,0,
2,12150,Note_off_c,9,48,0,
2,12150,Note_off_c,9,49,0,
2,12150,Note_off_c,9,50,0,
2,12150,Note_off_c,9,51,0,
2,12150,Note_off_c,9,56,0,
2,12150,Note_off_c,9,57,0,
2,12150,Note_off_c,9,59,0,
2,12150,Note_off_c,9,60,0,
2,12150,Note_off_c,9,61,0,
2,12150,Note_off_c,9,63,0,
2,12150,Note_off_c,9,68,0,
2,12150,Note_off_c,9,69,0,
2,12150,Note_off_c,9,70,0,
2,12150,Note_off_c,9,76,0,
2,12150,Note_off_c,9,80,0,
2,12150,Note_off_c,9,81,0,
2,12150,Note_off_c,9,82,0,
2,12150,Note_off_c,9,87,0,
2,12150,Note_off_c,9,88,0,
2,12150,Note_off_c,9,89,0,
2,12150,Note_off_c,9,91,0,
2,12150,Note_off_c,9,93,0,
2,12180,Note_off_c,9,35,0,
2,12180,Note_off_c,9,36,0,
2,12180,Note_off_c,9,37,0,
2,12180,Note_off_c,9,38,0,
2,12180,Note_off_c,9,39,0,
2,12180,Note_off_c,9,40,0,
2,12180,Note_off_c,9,41,0,
2,12180,Note_off_c,9,42,0,
2,12180,Note_off_c,9,43,0,
2,12180,Note_off_c,9,44,0,
2,12180,Note_off_c,9,45,0,
2,12180,Note_off_c,9,46,0,
2,12180,Note_off_c,9,47,0,
2,12180,Note_off_c,9,48,0,
2,12180,Note_off_c,9,49,0,
2,12180,Note_off_c,9,50,0,
2,12180,Note_off_c,9,51,0,
2,12180,Note_off_c,9,56,0,
2,12180,Note_off_c,9,57,0,
2,12180,Note_off_c,9,59,0,
2,12180,Note_off_c,9,60,0,
2,12180,Note_off_c,9,61,0,
2,12180,Note_off_c,9,63,0,
2,12180,Note_off_c,9,68,0,
2,12180,Note_off_c,9,69,0,
2,12180,Note_off_c,9,70,0,
2,12180,Note_off_c,9,76,0,
2,12180,Note_off_c,9,80,0,
2,12180,Note_off_c,9,81,0,
2,12180,Note_off_c,9,82,0,
2,12180,Note_off_c,9,87,0,
2,12180,Note_off_c,9,88,0,
2,12180,Note_off_c,9,89,0,
2,12180,Note_off_c,9,91,0,
2,12180,Note_off_c,9,93,0,
2,12210,Note_off_c,9,35,0,
2,12210,Note_off_c,9,36,0,
2,12210,Note_off_c,9,37,0,
2,12210,Note_off_c,9,38,0,
2,12210,Note_off_c,9,39,0,
2,12210,Note_off_c,9,40,0,
2,12210,Note_off_c,9,41,0,
2,12210,Note_off_c,9,42,0,
2,12210,Note_off_c,9,43,0,
2,12210,Note_off_c,9,44,0,
2,12210,Note_off_c,9,45,0,
2,12210,Note_off_c,9,46,0,
2,12210,Note_off_c,9,47,0,
2,12210,Note_off_c,9,48,0,
2,12210,Note_off_c,9,49,0,
2,12210,Note_off_c,9,50,0,
2,12210,Note_off_c,9,51,0,
2,12210,Note_off_c,9,56,0,
2,12210,Note_off_c,9,57,0,
2,12210,Note_off_c,9,59,0,
2,12210,Note_off_c,9,60,0,
2,12210,Note_off_c,9,61,0,
2,12210,Note_off_c,9,63,0,
2,12210,Note_off_c,9,68,0,
2,12210,Note_off_c,9,69,0,
2,12210,Note_off_c,9,70,0,
2,12210,Note_off_c,9,76,0,
2,12210,Note_off_c,9,80,0,
2,12210,Note_off_c,9,81,0,
2,12210,Note_off_c,9,82,0,
2,12210,Note_off_c,9,87,0,
2,12210,Note_off_c,9,88,0,
2,12210,Note_off_c,9,89,0,
2,12210,Note_off_c,9,91,0,
2,12210,Note_off_c,9,93,0,
2,12240,Note_off_c,9,35,0,
2,12240,Note_off_c,9,36,0,
2,12240,Note_off_c,9,37,0,
2,12240,Note_off_c,9,38,0,
2,12240,Note_off_c,9,39,0,
2,12240,Note_off_c,9,40,0,
2,12240,Note_off_c,9,41,0,
2,12240,Note_off_c,9,42,0,
2,12240,Note_off_c,9,43,0,
2,12240,Note_off_c,9,44,0,
2,12240,Note_off_c,9,45,0,
2,12240,Note_off_c,9,46,0,
2,12240,Note_off_c,9,47,0,
2,12240,Note_off_c,9,48,0,
2,12240,Note_off_c,9,49,0,
2,12240,Note_off_c,9,50,0,
2,12240,Note_off_c,9,51,0,
2,12240,Note_off_c,9,56,0,
2,12240,Note_off_c,9,57,0,
2,12240,Note_off_c,9,59,0,
2,12240,Note_off_c,9,60,0,
2,12240,Note_off_c,9,61,0,
2,12240,Note_off_c,9,63,0,
2,12240,Note_off_c,9,68,0,
2,12240,Note_off_c,9,69,0,
2,12240,Note_off_c,9,70,0,
2,12240,Note_off_c,9,76,0,
2,12240,Note_off_c,9,80,0,
2,12240,Note_off_c,9,81,0,
2,12240,Note_off_c,9,82,0,
2,12240,Note_off_c,9,87,0,
2,12240,Note_off_c,9,88,0,
2,12240,Note_off_c,9,89,0,
2,12240,Note_off_c,9,91,0,
2,12240,Note_off_c,9,93,0,
2,12270,Note_off_c,9,35,0,
2,12270,Note_off_c,9,36,0,
2,12270,Note_off_c,9,37,0,
2,12270,Note_off_c,9,38,0,
2,12270,Note_off_c,9,39,0,
2,12270,Note_off_c,9,40,0,
2,12270,Note_off_c,9,41,0,
2,12270,Note_off_c,9,42,0,
2,12270,Note_off_c,9,43,0,
2,12270,Note_off_c,9,44,0,
2,12270,Note_off_c,9,45,0,
2,12270,Note_off_c,9,46,0,
2,12270,Note_off_c,9,47,0,
2,12270,Note_off_c,9,48,0,
2,12270,Note_off_c,9,49,0,
2,12270,Note_off_c,9,50,0,
2,12270,Note_off_c,9,51,0,
2,12270,Note_off_c,9,56,0,
2,12270,Note_off_c,9,57,0,
2,12270,Note_off_c,9,59,0,
2,12270,Note_off_c,9,60,0,
2,12270,Note_off_c,9,61,0,
2,12270,Note_off_c,9,63,0,
2,12270,Note_off_c,9,68,0,
2,12270,Note_off_c,9,69,0,
2,12270,Note_off_c,9,70,0,
2,12270,Note_off_c,9,76,0,
2,12270,Note_off_c,9,80,0,
2,12270,Note_off_c,9,81,0,
2,12270,Note_off_c,9,82,0,
2,12270,Note_off_c,9,87,0,
2,12270,Note_off_c,9,88,0,
2,12270,Note_off_c,9,89,0,
2,12270,Note_off_c,9,91,0,
2,12270,Note_off_c,9,93,0,
2,12300,Note_off_c,9,35,0,
2,12300,Note_off_c,9,36,0,
2,12300,Note_off_c,9,37,0,
2,12300,Note_off_c,9,38,0,
2,12300,Note_off_c,9,39,0,
2,12300,Note_off_c,9,40,0,
2,12300,Note_off_c,9,41,0,
2,12300,Note_off_c,9,42,0,
2,12300,Note_off_c,9,43,0,
2,12300,Note_off_c,9,44,0,
2,12300,Note_off_c,9,45,0,
2,12300,Note_off_c,9,46,0,
2,12300,Note_off_c,9,47,0,
2,12300,Note_off_c,9,48,0,
2,12300,Note_off_c,9,49,0,
2,12300,Note_off_c,9,50,0,
2,12300,Note_off_c,9,51,0,
2,12300,Note_off_c,9,56,0,
2,12300,Note_off_c,9,57,0,
2,12300,Note_off_c,9,59,0,
2,12300,Note_off_c,9,60,0,
2,12300,Note_off_c,9,61,0,
2,12300,Note_off_c,9,63,0,
2,12300,Note_off_c,9,68,0,
2,12300,Note_off_c,9,69,0,
2,12300,Note_off_c,9,70,0,
2,12300,Note_off_c,9,76,0,
2,12300,Note_off_c,9,80,0,
2,12300,Note_off_c,9,81,0,
2,12300,Note_off_c,9,82,0,
2,12300,Note_off_c,9,87,0,
2,12300,Note_off_c,9,88,0,
2,12300,Note_off_c,9,89,0,
2,12300,Note_off_c,9,91,0,
2,12300,Note_off_c,9,93,0,
2,12330,Note_off_c,9,35,0,
2,12330,Note_off_c,9,36,0,
2,12330,Note_off_c,9,37,0,
2,12330,Note_off_c,9,38,0,
2,12330,Note_off_c,9,39,0,
2,12330,Note_off_c,9,40,0,
2,12330,Note_off_c,9,41,0,
2,12330,Note_off_c,9,42,0,
2,12330,Note_off_c,9,43,0,
2,12330,Note_off_c,9,44,0,
2,12330,Note_off_c,9,45,0,
2,12330,Note_off_c,9,46,0,
2,12330,Note_off_c,9,47,0,
2,12330,Note_off_c,9,48,0,
2,12330,Note_off_c,9,49,0,
2,12330,Note_off_c,9,50,0,
2,12330,Note_off_c,9,51,0,
2,12330,Note_off_c,9,56,0,
2,12330,Note_off_c,9,57,0,
2,12330,Note_off_c,9,59,0,
2,12330,Note_off_c,9,60,0,
2,12330,Note_off_c,9,61,0,
2,12330,Note_off_c,9,63,0,
2,12330,Note_off_c,9,68,0,
2,12330,Note_off_c,9,69,0,
2,12330,Note_off_c,9,70,0,
2,12330,Note_off_c,9,76,0,
2,12330,Note_off_c,9,80,0,
2,12330,Note_off_c,9,81,0,
2,12330,Note_off_c,9,82,0,
2,12330,Note_off_c,9,87,0,
2,12330,Note_off_c,9,88,0,
2,12330,Note_off_c,9,89,0,
2,12330,Note_off_c,9,91,0,
2,12330,Note_off_c,9,93,0,
2,12360,Note_off_c,9,35,0,
2,12360,Note_off_c,9,36,0,
2,12360,Note_off_c,9,37,0,
2,12360,Note_off_c,9,38,0,
2,12360,Note_off_c,9,39,0,
2,12360,Note_off_c,9,40,0,
2,12360,Note_off_c,9,41,0,
2,12360,Note_off_c,9,42,0,
2,12360,Note_off_c,9,43,0,
2,12360,Note_off_c,9,44,0,
2,12360,Note_off_c,9,45,0,
2,12360,Note_off_c,9,46,0,
2,12360,Note_off_c,9,47,0,
2,12360,Note_off_c,9,48,0,
2,12360,Note_off_c,9,49,0,
2,12360,Note_off_c,9,50,0,
2,12360,Note_off_c,9,51,0,
2,12360,Note_off_c,9,56,0,
2,12360,Note_off_c,9,57,0,
2,12360,Note_off_c,9,59,0,
2,12360,Note_off_c,9,60,0,
2,12360,Note_off_c,9,61,0,
2,12360,Note_off_c,9,63,0,
2,12360,Note_off_c,9,68,0,
2,12360,Note_off_c,9,69,0,
2,12360,Note_off_c,9,70,0,
2,12360,Note_off_c,9,76,0,
2,12360,Note_off_c,9,80,0,
2,12360,Note_off_c,9,81,0,
2,12360,Note_off_c,9,82,0,
2,12360,Note_off_c,9,87,0,
2,12360,Note_off_c,9,88,0,
2,12360,Note_off_c,9,89,0,
2,12360,Note_off_c,9,91,0,
2,12360,Note_off_c,9,93,0,
2,12390,Note_off_c,9,35,0,
2,12390,Note_off_c,9,36,0,
2,12390,Note_off_c,9,37,0,
2,12390,Note_off_c,9,38,0,
2,12390,Note_off_c,9,39,0,
2,12390,Note_off_c,9,40,0,
2,12390,Note_off_c,9,41,0,
2,12390,Note_off_c,9,42,0,
2,12390,Note_off_c,9,43,0,
2,12390,Note_off_c,9,44,0,
2,12390,Note_off_c,9,45,0,
2,12390,Note_off_c,9,46,0,
2,12390,Note_off_c,9,47,0,
2,12390,Note_off_c,9,48,0,
2,12390,Note_off_c,9,49,0,
2,12390,Note_off_c,9,50,0,
2,12390,Note_off_c,9,51,0,
2,12390,Note_off_c,9,56,0,
2,12390,Note_off_c,9,57,0,
2,12390,Note_off_c,9,59,0,
2,12390,Note_off_c,9,60,0,
2,12390,Note_off_c,9,61,0,
2,12390,Note_off_c,9,63,0,
2,12390,Note_off_c,9,68,0,
2,12390,Note_off_c,9,69,0,
2,12390,Note_off_c,9,70,0,
2,12390,Note_off_c,9,76,0,
2,12390,Note_off_c,9,80,0,
2,12390,Note_off_c,9,81,0,
2,12390,Note_off_c,9,82,0,
2,12390,Note_off_c,9,87,0,
2,12390,Note_off_c,9,88,0,
2,12390,Note_off_c,9,89,0,
2,12390,Note_off_c,9,91,0,
2,12390,Note_off_c,9,93,0,
2,12420,Note_off_c,9,35,0,
2,12420,Note_off_c,9,36,0,
2,12420,Note_off_c,9,37,0,
2,12420,Note_off_c,9,38,0,
2,12420,Note_off_c,9,39,0,
2,12420,Note_off_c,9,40,0,
2,12420,Note_off_c,9,41,0,
2,12420,Note_off_c,9,42,0,
2,12420,Note_off_c,9,43,0,
2,12420,Note_off_c,9,44,0,
2,12420,Note_off_c,9,45,0,
2,12420,Note_off_c,9,46,0,
2,12420,Note_off_c,9,47,0,
2,12420,Note_off_c,9,48,0,
2,12420,Note_off_c,9,49,0,
2,12420,Note_off_c,9,50,0,
2,12420,Note_off_c,9,51,0,
2,12420,Note_off_c,9,56,0,
2,12420,Note_off_c,9,57,0,
2,12420,Note_off_c,9,59,0,
2,12420,Note_off_c,9,60,0,
2,12420,Note_off_c,9,61,0,
2,12420,Note_off_c,9,63,0,
2,12420,Note_off_c,9,68,0,
2,12420,Note_off_c,9,69,0,
2,12420,Note_off_c,9,70,0,
2,12420,Note_off_c,9,76,0,
2,12420,Note_off_c,9,80,0,
2,12420,Note_off_c,9,81,0,
2,12420,Note_off_c,9,82,0,
2,12420,Note_off_c,9,87,0,
2,12420,Note_off_c,9,88,0,
2,12420,Note_off_c,9,89,0,
2,12420,Note_off_c,9,91,0,
2,12420,Note_off_c,9,93,0,
2,12450,Note_off_c,9,35,0,
2,12450,Note_off_c,9,36,0,
2,12450,Note_off_c,9,37,0,
2,12450,Note_off_c,9,38,0,
2,12450,Note_off_c,9,39,0,
2,12450,Note_off_c,9,40,0,
2,12450,Note_off_c,9,41,0,
2,12450,Note_off_c,9,42,0,
2,12450,Note_off_c,9,43,0,
2,12450,Note_off_c,9,44,0,
2,12450,Note_off_c,9,45,0,
2,12450,Note_off_c,9,46,0,
2,12450,Note_off_c,9,47,0,
2,12450,Note_off_c,9,48,0,
2,12450,Note_off_c,9,49,0,
2,12450,Note_off_c,9,50,0,
2,12450,Note_off_c,9,51,0,
2,12450,Note_off_c,9,56,0,
2,12450,Note_off_c,9,57,0,
2,12450,Note_off_c,9,59,0,
2,12450,Note_off_c,9,60,0,
2,12450,Note_off_c,9,61,0,
2,12450,Note_off_c,9,63,0,
2,12450,Note_off_c,9,68,0,
2,12450,Note_off_c,9,69,0,
2,12450,Note_off_c,9,70,0,
2,12450,Note_off_c,9,76,0,
2,12450,Note_off_c,9,80,0,
2,12450,Note_off_c,9,81,0,
2,12450,Note_off_c,9,82,0,
2,12450,Note_off_c,9,87,0,
2,12450,Note_off_c,9,88,0,
2,12450,Note_off_c,9,89,0,
2,12450,Note_off_c,9,91,0,
2,12450,Note_off_c,9,93,0,
2,12480,Note_off_c,9,35,0,
2,12480,Note_off_c,9,36,0,
2,12480,Note_off_c,9,37,0,
2,12480,Note_off_c,9,38,0,
2,12480,Note_off_c,9,39,0,
2,12480,Note_off_c,9,40,0,
2,12480,Note_off_c,9,41,0,
2,12480,Note_off_c,9,42,0,
2,12480,Note_off_c,9,43,0,
2,12480,Note_off_c,9,44,0,
2,12480,Note_off_c,9,45,0,
2,12480,Note_off_c,9,46,0,
2,12480,Note_off_c,9,47,0,
2,12480,Note_off_c,9,48,0,
2,12480,Note_off_c,9,49,0,
2,12480,Note_off_c,9,50,0,
2,12480,Note_off_c,9,51,0,
2,12480,Note_off_c,9,56,0,
2,12480,Note_off_c,9,57,0,
2,12480,Note_off_c,9,59,0,
2,12480,Note_off_c,9,60,0,
2,12480,Note_off_c,9,61,0,
2,12480,Note_off_c,9,63,0,
2,12480,Note_off_c,9,68,0,
2,12480,Note_off_c,9,69,0,
2,12480,Note_off_c,9,70,0,
2,12480,Note_off_c,9,76,0,
2,12480,Note_off_c,9,80,0,
2,12480,Note_off_c,9,81,0,
2,12480,Note_off_c,9,82,0,
2,12480,Note_off_c,9,87,0,
2,12480,Note_off_c,9,88,0,
2,12480,Note_off_c,9,89,0,
2,12480,Note_off_c,9,91,0,
2,12480,Note_off_c,9,93,0,
2,12510,Note_off_c,9,35,0,
2,12510,Note_off_c,9,36,0,
2,12510,Note_off_c,9,37,0,
2,12510,Note_off_c,9,38,0,
2,12510,Note_off_c,9,39,0,
2,12510,Note_off_c,9,40,0,
2,12510,Note_off_c,9,41,0,
2,12510,Note_off_c,9,42,0,
2,12510,Note_off_c,9,43,0,
2,12510,Note_off_c,9,44,0,
2,12510,Note_off_c,9,45,0,
2,12510,Note_off_c,9,46,0,
2,12510,Note_off_c,9,47,0,
2,12510,Note_off_c,9,48,0,
2,12510,Note_off_c,9,49,0,
2,12510,Note_off_c,9,50,0,
2,12510,Note_off_c,9,51,0,
2,12510,Note_off_c,9,56,0,
2,12510,Note_off_c,9,57,0,
2,12510,Note_off_c,9,59,0,
2,12510,Note_off_c,9,60,0,
2,12510,Note_off_c,9,61,0,
2,12510,Note_off_c,9,63,0,
2,12510,Note_off_c,9,68,0,
2,12510,Note_off_c,9,69,0,
2,12510,Note_off_c,9,70,0,
2,12510,Note_off_c,9,76,0,
2,12510,Note_off_c,9,80,0,
2,12510,Note_off_c,9,81,0,
2,12510,Note_off_c,9,82,0,
2,12510,Note_off_c,9,87,0,
2,12510,Note_off_c,9,88,0,
2,12510,Note_off_c,9,89,0,
2,12510,Note_off_c,9,91,0,
2,12510,Note_off_c,9,93,0,
2,12540,Note_off_c,9,35,0,
2,12540,Note_off_c,9,36,0,
2,12540,Note_off_c,9,37,0,
2,12540,Note_off_c,9,38,0,
2,12540,Note_off_c,9,39,0,
2,12540,Note_off_c,9,40,0,
2,12540,Note_off_c,9,41,0,
2,12540,Note_off_c,9,42,0,
2,12540,Note_off_c,9,43,0,
2,12540,Note_off_c,9,44,0,
2,12540,Note_off_c,9,45,0,
2,12540,Note_off_c,9,46,0,
2,12540,Note_off_c,9,47,0,
2,12540,Note_off_c,9,48,0,
2,12540,Note_off_c,9,49,0,
2,12540,Note_off_c,9,50,0,
2,12540,Note_off_c,9,51,0,
2,12540,Note_off_c,9,56,0,
2,12540,Note_off_c,9,57,0,
2,12540,Note_off_c,9,59,0,
2,12540,Note_off_c,9,60,0,
2,12540,Note_off_c,9,61,0,
2,12540,Note_off_c,9,63,0,
2,12540,Note_off_c,9,68,0,
2,12540,Note_off_c,9,69,0,
2,12540,Note_off_c,9,70,0,
2,12540,Note_off_c,9,76,0,
2,12540,Note_off_c,9,80,0,
2,12540,Note_off_c,9,81,0,
2,12540,Note_off_c,9,82,0,
2,12540,Note_off_c,9,87,0,
2,12540,Note_off_c,9,88,0,
2,12540,Note_off_c,9,89,0,
2,12540,Note_off_c,9,91,0,
2,12540,Note_off_c,9,93,0,
2,12570,Note_off_c,9,35,0,
2,12570,Note_off_c,9,36,0,
2,12570,Note_off_c,9,37,0,
2,12570,Note_off_c,9,38,0,
2,12570,Note_off_c,9,39,0,
2,12570,Note_off_c,9,40,0,
2,12570,Note_off_c,9,41,0,
2,12570,Note_off_c,9,42,0,
2,12570,Note_off_c,9,43,0,
2,12570,Note_off_c,9,44,0,
2,12570,Note_off_c,9,45,0,
2,12570,Note_off_c,9,46,0,
2,12570,Note_off_c,9,47,0,
2,12570,Note_off_c,9,48,0,
2,12570,Note_off_c,9,49,0,
2,12570,Note_off_c,9,50,0,
2,12570,Note_off_c,9,51,0,
2,12570,Note_off_c,9,56,0,
2,12570,Note_off_c,9,57,0,
2,12570,Note_off_c,9,59,0,
2,12570,Note_off_c,9,60,0,
2,12570,Note_off_c,9,61,0,
2,12570,Note_off_c,9,63,0,
2,12570,Note_off_c,9,68,0,
2,12570,Note_off_c,9,69,0,
2,12570,Note_off_c,9,70,0,
2,12570,Note_off_c,9,76,0,
2,12570,Note_off_c,9,80,0,
2,12570,Note_off_c,9,81,0,
2,12570,Note_off_c,9,82,0,
2,12570,Note_off_c,9,87,0,
2,12570,Note_off_c,9,88,0,
2,12570,Note_off_c,9,89,0,
2,12570,Note_off_c,9,91,0,
2,12570,Note_off_c,9,93,0,
2,12600,Note_off_c,9,35,0,
2,12600,Note_off_c,9,36,0,
2,12600,Note_off_c,9,37,0,
2,12600,Note_off_c,9,38,0,
2,12600,Note_off_c,9,39,0,
2,12600,Note_off_c,9,40,0,
2,12600,Note_off_c,9,41,0,
2,12600,Note_off_c,9,42,0,
2,12600,Note_off_c,9,43,0,
2,12600,Note_off_c,9,44,0,
2,12600,Note_off_c,9,45,0,
2,12600,Note_off_c,9,46,0,
2,12600,Note_off_c,9,47,0,
2,12600,Note_off_c,9,48,0,
2,12600,Note_off_c,9,49,0,
2,12600,Note_off_c,9,50,0,
2,12600,Note_off_c,9,51,0,
2,12600,Note_off_c,9,56,0,
2,12600,Note_off_c,9,57,0,
2,12600,Note_off_c,9,59,0,
2,12600,Note_off_c,9,60,0,
2,12600,Note_off_c,9,61,0,
2,12600,Note_off_c,9,63,0,
2,12600,Note_off_c,9,68,0,
2,12600,Note_off_c,9,69,0,
2,12600,Note_off_c,9,70,0,
2,12600,Note_off_c,9,76,0,
2,12600,Note_off_c,9,80,0,
2,12600,Note_off_c,9,81,0,
2,12600,Note_off_c,9,82,0,
2,12600,Note_off_c,9,87,0,
2,12600,Note_off_c,9,88,0,
2,12600,Note_off_c,9,89,0,
2,12600,Note_off_c,9,91,0,
2,12600,Note_off_c,9,93,0,
2,12630,Note_off_c,9,35,0,
2,12630,Note_off_c,9,36,0,
2,12630,Note_off_c,9,37,0,
2,12630,Note_off_c,9,38,0,
2,12630,Note_off_c,9,39,0,
2,12630,Note_off_c,9,40,0,
2,12630,Note_off_c,9,41,0,
2,12630,Note_off_c,9,42,0,
2,12630,Note_off_c,9,43,0,
2,12630,Note_off_c,9,44,0,
2,12630,Note_off_c,9,45,0,
2,12630,Note_off_c,9,46,0,
2,12630,Note_off_c,9,47,0,
2,12630,Note_off_c,9,48,0,
2,12630,Note_off_c,9,49,0,
2,12630,Note_off_c,9,50,0,
2,12630,Note_off_c,9,51,0,
2,12630,Note_off_c,9,56,0,
2,12630,Note_off_c,9,57,0,
2,12630,Note_off_c,9,59,0,
2,12630,Note_off_c,9,60,0,
2,12630,Note_off_c,9,61,0,
2,12630,Note_off_c,9,63,0,
2,12630,Note_off_c,9,68,0,
2,12630,Note_off_c,9,69,0,
2,12630,Note_off_c,9,70,0,
2,12630,Note_off_c,9,76,0,
2,12630,Note_off_c,9,80,0,
2,12630,Note_off_c,9,81,0,
2,12630,Note_off_c,9,82,0,
2,12630,Note_off_c,9,87,0,
2,12630,Note_off_c,9,88,0,
2,12630,Note_off_c,9,89,0,
2,12630,Note_off_c,9,91,0,
2,12630,Note_off_c,9,93,0,
2,12660,Note_off_c,9,35,0,
2,12660,Note_off_c,9,36,0,
2,12660,Note_off_c,9,37,0,
2,12660,Note_off_c,9,38,0,
2,12660,Note_off_c,9,39,0,
2,12660,Note_off_c,9,40,0,
2,12660,Note_off_c,9,41,0,
2,12660,Note_off_c,9,42,0,
2,12660,Note_off_c,9,43,0,
2,12660,Note_off_c,9,44,0,
2,12660,Note_off_c,9,45,0,
2,12660,Note_off_c,9,46,0,
2,12660,Note_off_c,9,47,0,
2,12660,Note_off_c,9,48,0,
2,12660,Note_off_c,9,49,0,
2,12660,Note_off_c,9,50,0,
2,12660,Note_off_c,9,51,0,
2,12660,Note_off_c,9,56,0,
2,12660,Note_off_c,9,57,0,
2,12660,Note_off_c,9,59,0,
2,12660,Note_off_c,9,60,0,
2,12660,Note_off_c,9,61,0,
2,12660,Note_off_c,9,63,0,
2,12660,Note_off_c,9,68,0,
2,12660,Note_off_c,9,69,0,
2,12660,Note_off_c,9,70,0,
2,12660,Note_off_c,9,76,0,
2,12660,Note_off_c,9,80,0,
2,12660,Note_off_c,9,81,0,
2,12660,Note_off_c,9,82,0,
2,12660,Note_off_c,9,87,0,
2,12660,Note_off_c,9,88,0,
2,12660,Note_off_c,9,89,0,
2,12660,Note_off_c,9,91,0,
2,12660,Note_off_c,9,93,0,
2,12690,Note_off_c,9,35,0,
2,12690,Note_off_c,9,36,0,
2,12690,Note_off_c,9,37,0,
2,12690,Note_off_c,9,38,0,
2,12690,Note_off_c,9,39,0,
2,12690,Note_off_c,9,40,0,
2,12690,Note_off_c,9,41,0,
2,12690,Note_off_c,9,42,0,
2,12690,Note_off_c,9,43,0,
2,12690,Note_off_c,9,44,0,
2,12690,Note_off_c,9,45,0,
2,12690,Note_off_c,9,46,0,
2,12690,Note_off_c,9,47,0,
2,12690,Note_off_c,9,48,0,
2,12690,Note_off_c,9,49,0,
2,12690,Note_off_c,9,50,0,
2,12690,Note_off_c,9,51,0,
2,12690,Note_off_c,9,56,0,
2,12690,Note_off_c,9,57,0,
2,12690,Note_off_c,9,59,0,
2,12690,Note_off_c,9,60,0,
2,12690,Note_off_c,9,61,0,
2,12690,Note_off_c,9,63,0,
2,12690,Note_off_c,9,68,0,
2,12690,Note_off_c,9,69,0,
2,12690,Note_off_c,9,70,0,
2,12690,Note_off_c,9,76,0,
2,12690,Note_off_c,9,80,0,
2,12690,Note_off_c,9,81,0,
2,12690,Note_off_c,9,82,0,
2,12690,Note_off_c,9,87,0,
2,12690,Note_off_c,9,88,0,
2,12690,Note_off_c,9,89,0,
2,12690,Note_off_c,9,91,0,
2,12690,Note_off_c,9,93,0,
2,12720,Note_off_c,9,35,0,
2,12720,Note_off_c,9,36,0,
2,12720,Note_off_c,9,37,0,
2,12720,Note_off_c,9,38,0,
2,12720,Note_off_c,9,39,0,
2,12720,Note_off_c,9,40,0,
2,12720,Note_off_c,9,41,0,
2,12720,Note_off_c,9,42,0,
2,12720,Note_off_c,9,43,0,
2,12720,Note_off_c,9,44,0,
2,12720,Note_off_c,9,45,0,
2,12720,Note_off_c,9,46,0,
2,12720,Note_off_c,9,47,0,
2,12720,Note_off_c,9,48,0,
2,12720,Note_off_c,9,49,0,
2,12720,Note_off_c,9,50,0,
2,12720,Note_off_c,9,51,0,
2,12720,Note_off_c,9,56,0,
2,12720,Note_off_c,9,57,0,
2,12720,Note_off_c,9,59,0,
2,12720,Note_off_c,9,60,0,
2,12720,Note_off_c,9,61,0,
2,12720,Note_off_c,9,63,0,
2,12720,Note_off_c,9,68,0,
2,12720,Note_off_c,9,69,0,
2,12720,Note_off_c,9,70,0,
2,12720,Note_off_c,9,76,0,
2,12720,Note_off_c,9,80,0,
2,12720,Note_off_c,9,81,0,
2,12720,Note_off_c,9,82,0,
2,12720,Note_off_c,9,87,0,
2,12720,Note_off_c,9,88,0,
2,12720,Note_off_c,9,89,0,
2,12720,Note_off_c,9,91,0,
2,12720,Note_off_c,9,93,0,
2,12750,Note_off_c,9,35,0,
2,12750,Note_off_c,9,36,0,
2,12750,Note_off_c,9,37,0,
2,12750,Note_off_c,9,38,0,
2,12750,Note_off_c,9,39,0,
2,12750,Note_off_c,9,40,0,
2,12750,Note_off_c,9,41,0,
2,12750,Note_off_c,9,42,0,
2,12750,Note_off_c,9,43,0,
2,12750,Note_off_c,9,44,0,
2,12750,Note_off_c,9,45,0,
2,12750,Note_off_c,9,46,0,
2,12750,Note_off_c,9,47,0,
2,12750,Note_off_c,9,48,0,
2,12750,Note_off_c,9,49,0,
2,12750,Note_off_c,9,50,0,
2,12750,Note_off_c,9,51,0,
2,12750,Note_off_c,9,56,0,
2,12750,Note_off_c,9,57,0,
2,12750,Note_off_c,9,59,0,
2,12750,Note_off_c,9,60,0,
2,12750,Note_off_c,9,61,0,
2,12750,Note_off_c,9,63,0,
2,12750,Note_off_c,9,68,0,
2,12750,Note_off_c,9,69,0,
2,12750,Note_off_c,9,70,0,
2,12750,Note_off_c,9,76,0,
2,12750,Note_off_c,9,80,0,
2,12750,Note_off_c,9,81,0,
2,12750,Note_off_c,9,82,0,
2,12750,Note_off_c,9,87,0,
2,12750,Note_off_c,9,88,0,
2,12750,Note_off_c,9,89,0,
2,12750,Note_off_c,9,91,0,
2,12750,Note_off_c,9,93,0,
2,12780,Note_off_c,9,35,0,
2,12780,Note_off_c,9,36,0,
2,12780,Note_off_c,9,37,0,
2,12780,Note_off_c,9,38,0,
2,12780,Note_off_c,9,39,0,
2,12780,Note_off_c,9,40,0,
2,12780,Note_off_c,9,41,0,
2,12780,Note_off_c,9,42,0,
2,12780,Note_off_c,9,43,0,
2,12780,Note_off_c,9,44,0,
2,12780,Note_off_c,9,45,0,
2,12780,Note_off_c,9,46,0,
2,12780,Note_off_c,9,47,0,
2,12780,Note_off_c,9,48,0,
2,12780,Note_off_c,9,49,0,
2,12780,Note_off_c,9,50,0,
2,12780,Note_off_c,9,51,0,
2,12780,Note_off_c,9,56,0,
2,12780,Note_off_c,9,57,0,
2,12780,Note_off_c,9,59,0,
2,12780,Note_off_c,9,60,0,
2,12780,Note_off_c,9,61,0,
2,12780,Note_off_c,9,63,0,
2,12780,Note_off_c,9,68,0,
2,12780,Note_off_c,9,69,0,
2,12780,Note_off_c,9,70,0,
2,12780,Note_off_c,9,76,0,
2,12780,Note_off_c,9,80,0,
2,12780,Note_off_c,9,81,0,
2,12780,Note_off_c,9,82,0,
2,12780,Note_off_c,9,87,0,
2,12780,Note_off_c,9,88,0,
2,12780,Note_off_c,9,89,0,
2,12780,Note_off_c,9,91,0,
2,12780,Note_off_c,9,93,0,
2,12810,Note_off_c,9,35,0,
2,12810,Note_off_c,9,36,0,
2,12810,Note_off_c,9,37,0,
2,12810,Note_off_c,9,38,0,
2,12810,Note_off_c,9,39,0,
2,12810,Note_off_c,9,40,0,
2,12810,Note_off_c,9,41,0,
2,12810,Note_off_c,9,42,0,
2,12810,Note_off_c,9,43,0,
2,12810,Note_off_c,9,44,0,
2,12810,Note_off_c,9,45,0,
2,12810,Note_off_c,9,46,0,
2,12810,Note_off_c,9,47,0,
2,12810,Note_off_c,9,48,0,
2,12810,Note_off_c,9,49,0,
2,12810,Note_off_c,9,50,0,
2,12810,Note_off_c,9,51,0,
2,12810,Note_off_c,9,56,0,
2,12810,Note_off_c,9,57,0,
2,12810,Note_off_c,9,59,0,
2,12810,Note_off_c,9,60,0,
2,12810,Note_off_c,9,61,0,
2,12810,Note_off_c,9,63,0,
2,12810,Note_off_c,9,68,0,
2,12810,Note_off_c,9,69,0,
2,12810,Note_off_c,9,70,0,
2,12810,Note_off_c,9,76,0,
2,12810,Note_off_c,9,80,0,
2,12810,Note_off_c,9,81,0,
2,12810,Note_off_c,9,82,0,
2,12810,Note_off_c,9,87,0,
2,12810,Note_off_c,9,88,0,
2,12810,Note_off_c,9,89,0,
2,12810,Note_off_c,9,91,0,
2,12810,Note_off_c,9,93,0,
2,12840,Note_off_c,9,35,0,
2,12840,Note_off_c,9,36,0,
2,12840,Note_off_c,9,37,0,
2,12840,Note_off_c,9,38,0,
2,12840,Note_off_c,9,39,0,
2,12840,Note_off_c,9,40,0,
2,12840,Note_off_c,9,41,0,
2,12840,Note_off_c,9,42,0,
2,12840,Note_off_c,9,43,0,
2,12840,Note_off_c,9,44,0,
2,12840,Note_off_c,9,45,0,
2,12840,Note_off_c,9,46,0,
2,12840,Note_off_c,9,47,0,
2,12840,Note_off_c,9,48,0,
2,12840,Note_off_c,9,49,0,
2,12840,Note_off_c,9,50,0,
2,12840,Note_off_c,9,51,0,
2,12840,Note_off_c,9,56,0,
2,12840,Note_off_c,9,57,0,
2,12840,Note_off_c,9,59,0,
2,12840,Note_off_c,9,60,0,
2,12840,Note_off_c,9,61,0,
2,12840,Note_off_c,9,63,0,
2,12840,Note_off_c,9,68,0,
2,12840,Note_off_c,9,69,0,
2,12840,Note_off_c,9,70,0,
2,12840,Note_off_c,9,76,0,
2,12840,Note_off_c,9,80,0,
2,12840,Note_off_c,9,81,0,
2,12840,Note_off_c,9,82,0,
2,12840,Note_off_c,9,87,0,
2,12840,Note_off_c,9,88,0,
2,12840,Note_off_c,9,89,0,
2,12840,Note_off_c,9,91,0,
2,12840,Note_off_c,9,93,0,
2,12870,Note_off_c,9,35,0,
2,12870,Note_off_c,9,36,0,
2,12870,Note_off_c,9,37,0,
2,12870,Note_off_c,9,38,0,
2,12870,Note_off_c,9,39,0,
2,12870,Note_off_c,9,40,0,
2,12870,Note_off_c,9,41,0,
2,12870,Note_off_c,9,42,0,
2,12870,Note_off_c,9,43,0,
2,12870,Note_off_c,9,44,0,
2,12870,Note_off_c,9,45,0,
2,12870,Note_off_c,9,46,0,
2,12870,Note_off_c,9,47,0,
2,12870,Note_off_c,9,48,0,
2,12870,Note_off_c,9,49,0,
2,12870,Note_off_c,9,50,0,
2,12870,Note_off_c,9,51,0,
2,12870,Note_off_c,9,56,0,
2,12870,Note_off_c,9,57,0,
2,12870,Note_off_c,9,59,0,
2,12870,Note_off_c,9,60,0,
2,12870,Note_off_c,9,61,0,
2,12870,Note_off_c,9,63,0,
2,12870,Note_off_c,9,68,0,
2,12870,Note_off_c,9,69,0,
2,12870,Note_off_c,9,70,0,
2,12870,Note_off_c,9,76,0,
2,12870,Note_off_c,9,80,0,
2,12870,Note_off_c,9,81,0,
2,12870,Note_off_c,9,82,0,
2,12870,Note_off_c,9,87,0,
2,12870,Note_off_c,9,88,0,
2,12870,Note_off_c,9,89,0,
2,12870,Note_off_c,9,91,0,
2,12870,Note_off_c,9,93,0,
2,12900,Note_off_c,9,35,0,
2,12900,Note_off_c,9,36,0,
2,12900,Note_off_c,9,37,0,
2,12900,Note_off_c,9,38,0,
2,12900,Note_off_c,9,39,0,
2,12900,Note_off_c,9,40,0,
2,12900,Note_off_c,9,41,0,
2,12900,Note_off_c,9,42,0,
2,12900,Note_off_c,9,43,0,
2,12900,Note_off_c,9,44,0,
2,12900,Note_off_c,9,45,0,
2,12900,Note_off_c,9,46,0,
2,12900,Note_off_c,9,47,0,
2,12900,Note_off_c,9,48,0,
2,12900,Note_off_c,9,49,0,
2,12900,Note_off_c,9,50,0,
2,12900,Note_off_c,9,51,0,
2,12900,Note_off_c,9,56,0,
2,12900,Note_off_c,9,57,0,
2,12900,Note_off_c,9,59,0,
2,12900,Note_off_c,9,60,0,
2,12900,Note_off_c,9,61,0,
2,12900,Note_off_c,9,63,0,
2,12900,Note_off_c,9,68,0,
2,12900,Note_off_c,9,69,0,
2,12900,Note_off_c,9,70,0,
2,12900,Note_off_c,9,76,0,
2,12900,Note_off_c,9,80,0,
2,12900,Note_off_c,9,81,0,
2,12900,Note_off_c,9,82,0,
2,12900,Note_off_c,9,87,0,
2,12900,Note_off_c,9,88,0,
2,12900,Note_off_c,9,89,0,
2,12900,Note_off_c,9,91,0,
2,12900,Note_off_c,9,93,0,
2,12930,Note_off_c,9,35,0,
2,12930,Note_off_c,9,36,0,
2,12930,Note_off_c,9,37,0,
2,12930,Note_off_c,9,38,0,
2,12930,Note_off_c,9,39,0,
2,12930,Note_off_c,9,40,0,
2,12930,Note_off_c,9,41,0,
2,12930,Note_off_c,9,42,0,
2,12930,Note_off_c,9,43,0,
2,12930,Note_off_c,9,44,0,
2,12930,Note_off_c,9,45,0,
2,12930,Note_off_c,9,46,0,
2,12930,Note_off_c,9,47,0,
2,12930,Note_off_c,9,48,0,
2,12930,Note_off_c,9,49,0,
2,12930,Note_off_c,9,50,0,
2,12930,Note_off_c,9,51,0,
2,12930,Note_off_c,9,56,0,
2,12930,Note_off_c,9,57,0,
2,12930,Note_off_c,9,59,0,
2,12930,Note_off_c,9,60,0,
2,12930,Note_off_c,9,61,0,
2,12930,Note_off_c,9,63,0,
2,12930,Note_off_c,9,68,0,
2,12930,Note_off_c,9,69,0,
2,12930,Note_off_c,9,70,0,
2,12930,Note_off_c,9,76,0,
2,12930,Note_off_c,9,80,0,
2,12930,Note_off_c,9,81,0,
2,12930,Note_off_c,9,82,0,
2,12930,Note_off_c,9,87,0,
2,12930,Note_off_c,9,88,0,
2,12930,Note_off_c,9,89,0,
2,12930,Note_off_c,9,91,0,
2,12930,Note_off_c,9,93,0,
2,12960,Note_off_c,9,35,0,
2,12960,Note_off_c,9,36,0,
2,12960,Note_off_c,9,37,0,
2,12960,Note_off_c,9,38,0,
2,12960,Note_off_c,9,39,0,
2,12960,Note_off_c,9,40,0,
2,12960,Note_off_c,9,41,0,
2,12960,Note_off_c,9,42,0,
2,12960,Note_off_c,9,43,0,
2,12960,Note_off_c,9,44,0,
2,12960,Note_off_c,9,45,0,
2,12960,Note_off_c,9,46,0,
2,12960,Note_off_c,9,47,0,
2,12960,Note_off_c,9,48,0,
2,12960,Note_off_c,9,49,0,
2,12960,Note_off_c,9,50,0,
2,12960,Note_off_c,9,51,0,
2,12960,Note_off_c,9,56,0,
2,12960,Note_off_c,9,57,0,
2,12960,Note_off_c,9,59,0,
2,12960,Note_off_c,9,60,0,
2,12960,Note_off_c,9,61,0,
2,12960,Note_off_c,9,63,0,
2,12960,Note_off_c,9,68,0,
2,12960,Note_off_c,9,69,0,
2,12960,Note_off_c,9,70,0,
2,12960,Note_off_c,9,76,0,
2,12960,Note_off_c,9,80,0,
2,12960,Note_off_c,9,81,0,
2,12960,Note_off_c,9,82,0,
2,12960,Note_off_c,9,87,0,
2,12960,Note_off_c,9,88,0,
2,12960,Note_off_c,9,89,0,
2,12960,Note_off_c,9,91,0,
2,12960,Note_off_c,9,93,0,
2,12990,Note_off_c,9,35,0,
2,12990,Note_off_c,9,36,0,
2,12990,Note_off_c,9,37,0,
2,12990,Note_off_c,9,38,0,
2,12990,Note_off_c,9,39,0,
2,12990,Note_off_c,9,40,0,
2,12990,Note_off_c,9,41,0,
2,12990,Note_off_c,9,42,0,
2,12990,Note_off_c,9,43,0,
2,12990,Note_off_c,9,44,0,
2,12990,Note_off_c,9,45,0,
2,12990,Note_off_c,9,46,0,
2,12990,Note_off_c,9,47,0,
2,12990,Note_off_c,9,48,0,
2,12990,Note_off_c,9,49,0,
2,12990,Note_off_c,9,50,0,
2,12990,Note_off_c,9,51,0,
2,12990,Note_off_c,9,56,0,
2,12990,Note_off_c,9,57,0,
2,12990,Note_off_c,9,59,0,
2,12990,Note_off_c,9,60,0,
2,12990,Note_off_c,9,61,0,
2,12990,Note_off_c,9,63,0,
2,12990,Note_off_c,9,68,0,
2,12990,Note_off_c,9,69,0,
2,12990,Note_off_c,9,70,0,
2,12990,Note_off_c,9,76,0,
2,12990,Note_off_c,9,80,0,
2,12990,Note_off_c,9,81,0,
2,12990,Note_off_c,9,82,0,
2,12990,Note_off_c,9,87,0,
2,12990,Note_off_c,9,88,0,
2,12990,Note_off_c,9,89,0,
2,12990,Note_off_c,9,91,0,
2,12990,Note_off_c,9,93,0,
2,13020,Note_off_c,9,35,0,
2,13020,Note_off_c,9,36,0,
2,13020,Note_off_c,9,37,0,
2,13020,Note_off_c,9,38,0,
2,13020,Note_off_c,9,39,0,
2,13020,Note_off_c,9,40,0,
2,13020,Note_off_c,9,41,0,
2,13020,Note_off_c,9,42,0,
2,13020,Note_off_c,9,43,0,
2,13020,Note_off_c,9,44,0,
2,13020,Note_off_c,9,45,0,
2,13020,Note_off_c,9,46,0,
2,13020,Note_off_c,9,47,0,
2,13020,Note_off_c,9,48,0,
2,13020,Note_off_c,9,49,0,
2,13020,Note_off_c,9,50,0,
2,13020,Note_off_c,9,51,0,
2,13020,Note_off_c,9,56,0,
2,13020,Note_off_c,9,57,0,
2,13020,Note_off_c,9,59,0,
2,13020,Note_off_c,9,60,0,
2,13020,Note_off_c,9,61,0,
2,13020,Note_off_c,9,63,0,
2,13020,Note_off_c,9,68,0,
2,13020,Note_off_c,9,69,0,
2,13020,Note_off_c,9,70,0,
2,13020,Note_off_c,9,76,0,
2,13020,Note_off_c,9,80,0,
2,13020,Note_off_c,9,81,0,
2,13020,Note_off_c,9,82,0,
2,13020,Note_off_c,9,87,0,
2,13020,Note_off_c,9,88,0,
2,13020,Note_off_c,9,89,0,
2,13020,Note_off_c,9,91,0,
2,13020,Note_off_c,9,93,0,
2,13050,Note_off_c,9,35,0,
2,13050,Note_off_c,9,36,0,
2,13050,Note_off_c,9,37,0,
2,13050,Note_off_c,9,38,0,
2,13050,Note_off_c,9,39,0,
2,13050,Note_off_c,9,40,0,
2,13050,Note_off_c,9,41,0,
2,13050,Note_off_c,9,42,0,
2,13050,Note_off_c,9,43,0,
2,13050,Note_off_c,9,44,0,
2,13050,Note_off_c,9,45,0,
2,13050,Note_off_c,9,46,0,
2,13050,Note_off_c,9,47,0,
2,13050,Note_off_c,9,48,0,
2,13050,Note_off_c,9,49,0,
2,13050,Note_off_c,9,50,0,
2,13050,Note_off_c,9,51,0,
2,13050,Note_off_c,9,56,0,
2,13050,Note_off_c,9,57,0,
2,13050,Note_off_c,9,59,0,
2,13050,Note_off_c,9,60,0,
2,13050,Note_off_c,9,61,0,
2,13050,Note_off_c,9,63,0,
2,13050,Note_off_c,9,68,0,
2,13050,Note_off_c,9,69,0,
2,13050,Note_off_c,9,70,0,
2,13050,Note_off_c,9,76,0,
2,13050,Note_off_c,9,80,0,
2,13050,Note_off_c,9,81,0,
2,13050,Note_off_c,9,82,0,
2,13050,Note_off_c,9,87,0,
2,13050,Note_off_c,9,88,0,
2,13050,Note_off_c,9,89,0,
2,13050,Note_off_c,9,91,0,
2,13050,Note_off_c,9,93,0,
2,13080,Note_off_c,9,35,0,
2,13080,Note_off_c,9,36,0,
2,13080,Note_off_c,9,37,0,
2,13080,Note_off_c,9,38,0,
2,13080,Note_off_c,9,39,0,
2,13080,Note_off_c,9,40,0,
2,13080,Note_off_c,9,41,0,
2,13080,Note_off_c,9,42,0,
2,13080,Note_off_c,9,43,0,
2,13080,Note_off_c,9,44,0,
2,13080,Note_off_c,9,45,0,
2,13080,Note_off_c,9,46,0,
2,13080,Note_off_c,9,47,0,
2,13080,Note_off_c,9,48,0,
2,13080,Note_off_c,9,49,0,
2,13080,Note_off_c,9,50,0,
2,13080,Note_off_c,9,51,0,
2,13080,Note_off_c,9,56,0,
2,13080,Note_off_c,9,57,0,
2,13080,Note_off_c,9,59,0,
2,13080,Note_off_c,9,60,0,
2,13080,Note_off_c,9,61,0,
2,13080,Note_off_c,9,63,0,
2,13080,Note_off_c,9,68,0,
2,13080,Note_off_c,9,69,0,
2,13080,Note_off_c,9,70,0,
2,13080,Note_off_c,9,76,0,
2,13080,Note_off_c,9,80,0,
2,13080,Note_off_c,9,81,0,
2,13080,Note_off_c,9,82,0,
2,13080,Note_off_c,9,87,0,
2,13080,Note_off_c,9,88,0,
2,13080,Note_off_c,9,89,0,
2,13080,Note_off_c,9,91,0,
2,13080,Note_off_c,9,93,0,
2,13110,Note_off_c,9,35,0,
2,13110,Note_off_c,9,36,0,
2,13110,Note_off_c,9,37,0,
2,13110,Note_off_c,9,38,0,
2,13110,Note_off_c,9,39,0,
2,13110,Note_off_c,9,40,0,
2,13110,Note_off_c,9,41,0,
2,13110,Note_off_c,9,42,0,
2,13110,Note_off_c,9,43,0,
2,13110,Note_off_c,9,44,0,
2,13110,Note_off_c,9,45,0,
2,13110,Note_off_c,9,46,0,
2,13110,Note_off_c,9,47,0,
2,13110,Note_off_c,9,48,0,
2,13110,Note_off_c,9,49,0,
2,13110,Note_off_c,9,50,0,
2,13110,Note_off_c,9,51,0,
2,13110,Note_off_c,9,56,0,
2,13110,Note_off_c,9,57,0,
2,13110,Note_off_c,9,59,0,
2,13110,Note_off_c,9,60,0,
2,13110,Note_off_c,9,61,0,
2,13110,Note_off_c,9,63,0,
2,13110,Note_off_c,9,68,0,
2,13110,Note_off_c,9,69,0,
2,13110,Note_off_c,9,70,0,
2,13110,Note_off_c,9,76,0,
2,13110,Note_off_c,9,80,0,
2,13110,Note_off_c,9,81,0,
2,13110,Note_off_c,9,82,0,
2,13110,Note_off_c,9,87,0,
2,13110,Note_off_c,9,88,0,
2,13110,Note_off_c,9,89,0,
2,13110,Note_off_c,9,91,0,
2,13110,Note_off_c,9,93,0,
2,13140,Note_off_c,9,35,0,
2,13140,Note_off_c,9,36,0,
2,13140,Note_off_c,9,37,0,
2,13140,Note_off_c,9,38,0,
2,13140,Note_off_c,9,39,0,
2,13140,Note_off_c,9,40,0,
2,13140,Note_off_c,9,41,0,
2,13140,Note_off_c,9,42,0,
2,13140,Note_off_c,9,43,0,
2,13140,Note_off_c,9,44,0,
2,13140,Note_off_c,9,45,0,
2,13140,Note_off_c,9,46,0,
2,13140,Note_off_c,9,47,0,
2,13140,Note_off_c,9,48,0,
2,13140,Note_off_c,9,49,0,
2,13140,Note_off_c,9,50,0,
2,13140,Note_off_c,9,51,0,
2,13140,Note_off_c,9,56,0,
2,13140,Note_off_c,9,57,0,
2,13140,Note_off_c,9,59,0,
2,13140,Note_off_c,9,60,0,
2,13140,Note_off_c,9,61,0,
2,13140,Note_off_c,9,63,0,
2,13140,Note_off_c,9,68,0,
2,13140,Note_off_c,9,69,0,
2,13140,Note_off_c,9,70,0,
2,13140,Note_off_c,9,76,0,
2,13140,Note_off_c,9,80,0,
2,13140,Note_off_c,9,81,0,
2,13140,Note_off_c,9,82,0,
2,13140,Note_off_c,9,87,0,
2,13140,Note_off_c,9,88,0,
2,13140,Note_off_c,9,89,0,
2,13140,Note_off_c,9,91,0,
2,13140,Note_off_c,9,93,0,
2,13170,Note_off_c,9,35,0,
2,13170,Note_off_c,9,36,0,
2,13170,Note_off_c,9,37,0,
2,13170,Note_off_c,9,38,0,
2,13170,Note_off_c,9,39,0,
2,13170,Note_off_c,9,40,0,
2,13170,Note_off_c,9,41,0,
2,13170,Note_off_c,9,42,0,
2,13170,Note_off_c,9,43,0,
2,13170,Note_off_c,9,44,0,
2,13170,Note_off_c,9,45,0,
2,13170,Note_off_c,9,46,0,
2,13170,Note_off_c,9,47,0,
2,13170,Note_off_c,9,48,0,
2,13170,Note_off_c,9,49,0,
2,13170,Note_off_c,9,50,0,
2,13170,Note_off_c,9,51,0,
2,13170,Note_off_c,9,56,0,
2,13170,Note_off_c,9,57,0,
2,13170,Note_off_c,9,59,0,
2,13170,Note_off_c,9,60,0,
2,13170,Note_off_c,9,61,0,
2,13170,Note_off_c,9,63,0,
2,13170,Note_off_c,9,68,0,
2,13170,Note_off_c,9,69,0,
2,13170,Note_off_c,9,70,0,
2,13170,Note_off_c,9,76,0,
2,13170,Note_off_c,9,80,0,
2,13170,Note_off_c,9,81,0,
2,13170,Note_off_c,9,82,0,
2,13170,Note_off_c,9,87,0,
2,13170,Note_off_c,9,88,0,
2,13170,Note_off_c,9,89,0,
2,13170,Note_off_c,9,91,0,
2,13170,Note_off_c,9,93,0,
2,13200,Note_off_c,9,35,0,
2,13200,Note_off_c,9,36,0,
2,13200,Note_off_c,9,37,0,
2,13200,Note_off_c,9,38,0,
2,13200,Note_off_c,9,39,0,
2,13200,Note_off_c,9,40,0,
2,13200,Note_off_c,9,41,0,
2,13200,Note_off_c,9,42,0,
2,13200,Note_off_c,9,43,0,
2,13200,Note_off_c,9,44,0,
2,13200,Note_off_c,9,45,0,
2,13200,Note_off_c,9,46,0,
2,13200,Note_off_c,9,47,0,
2,13200,Note_off_c,9,48,0,
2,13200,Note_off_c,9,49,0,
2,13200,Note_off_c,9,50,0,
2,13200,Note_off_c,9,51,0,
2,13200,Note_off_c,9,56,0,
2,13200,Note_off_c,9,57,0,
2,13200,Note_off_c,9,59,0,
2,13200,Note_off_c,9,60,0,
2,13200,Note_off_c,9,61,0,
2,13200,Note_off_c,9,63,0,
2,13200,Note_off_c,9,68,0,
2,13200,Note_off_c,9,69,0,
2,13200,Note_off_c,9,70,0,
2,13200,Note_off_c,9,76,0,
2,13200,Note_off_c,9,80,0,
2,13200,Note_off_c,9,81,0,
2,13200,Note_off_c,9,82,0,
2,13200,Note_off_c,9,87,0,
2,13200,Note_off_c,9,88,0,
2,13200,Note_off_c,9,89,0,
2,13200,Note_off_c,9,91,0,
2,13200,Note_off_c,9,93,0,
2,13230,Note_off_c,9,35,0,
2,13230,Note_off_c,9,36,0,
2,13230,Note_off_c,9,37,0,
2,13230,Note_off_c,9,38,0,
2,13230,Note_off_c,9,39,0,
2,13230,Note_off_c,9,40,0,
2,13230,Note_off_c,9,41,0,
2,13230,Note_off_c,9,42,0,
2,13230,Note_off_c,9,43,0,
2,13230,Note_off_c,9,44,0,
2,13230,Note_off_c,9,45,0,
2,13230,Note_off_c,9,46,0,
2,13230,Note_off_c,9,47,0,
2,13230,Note_off_c,9,48,0,
2,13230,Note_off_c,9,49,0,
2,13230,Note_off_c,9,50,0,
2,13230,Note_off_c,9,51,0,
2,13230,Note_off_c,9,56,0,
2,13230,Note_off_c,9,57,0,
2,13230,Note_off_c,9,59,0,
2,13230,Note_off_c,9,60,0,
2,13230,Note_off_c,9,61,0,
2,13230,Note_off_c,9,63,0,
2,13230,Note_off_c,9,68,0,
2,13230,Note_off_c,9,69,0,
2,13230,Note_off_c,9,70,0,
2,13230,Note_off_c,9,76,0,
2,13230,Note_off_c,9,80,0,
2,13230,Note_off_c,9,81,0,
2,13230,Note_off_c,9,82,0,
2,13230,Note_off_c,9,87,0,
2,13230,Note_off_c,9,88,0,
2,13230,Note_off_c,9,89,0,
2,13230,Note_off_c,9,91,0,
2,13230,Note_off_c,9,93,0,
2,13260,Note_off_c,9,35,0,
2,13260,Note_off_c,9,36,0,
2,13260,Note_off_c,9,37,0,
2,13260,Note_off_c,9,38,0,
2,13260,Note_off_c,9,39,0,
2,13260,Note_off_c,9,40,0,
2,13260,Note_off_c,9,41,0,
2,13260,Note_off_c,9,42,0,
2,13260,Note_off_c,9,43,0,
2,13260,Note_off_c,9,44,0,
2,13260,Note_off_c,9,45,0,
2,13260,Note_off_c,9,46,0,
2,13260,Note_off_c,9,47,0,
2,13260,Note_off_c,9,48,0,
2,13260,Note_off_c,9,49,0,
2,13260,Note_off_c,9,50,0,
2,13260,Note_off_c,9,51,0,
2,13260,Note_off_c,9,56,0,
2,13260,Note_off_c,9,57,0,
2,13260,Note_off_c,9,59,0,
2,13260,Note_off_c,9,60,0,
2,13260,Note_off_c,9,61,0,
2,13260,Note_off_c,9,63,0,
2,13260,Note_off_c,9,68,0,
2,13260,Note_off_c,9,69,0,
2,13260,Note_off_c,9,70,0,
2,13260,Note_off_c,9,76,0,
2,13260,Note_off_c,9,80,0,
2,13260,Note_off_c,9,81,0,
2,13260,Note_off_c,9,82,0,
2,13260,Note_off_c,9,87,0,
2,13260,Note_off_c,9,88,0,
2,13260,Note_off_c,9,89,0,
2,13260,Note_off_c,9,91,0,
2,13260,Note_off_c,9,93,0,
2,13290,Note_off_c,9,35,0,
2,13290,Note_off_c,9,36,0,
2,13290,Note_off_c,9,37,0,
2,13290,Note_off_c,9,38,0,
2,13290,Note_off_c,9,39,0,
2,13290,Note_off_c,9,40,0,
2,13290,Note_off_c,9,41,0,
2,13290,Note_off_c,9,42,0,
2,13290,Note_off_c,9,43,0,
2,13290,Note_off_c,9,44,0,
2,13290,Note_off_c,9,45,0,
2,13290,Note_off_c,9,46,0,
2,13290,Note_off_c,9,47,0,
2,13290,Note_off_c,9,48,0,
2,13290,Note_off_c,9,49,0,
2,13290,Note_off_c,9,50,0,
2,13290,Note_off_c,9,51,0,
2,13290,Note_off_c,9,56,0,
2,13290,Note_off_c,9,57,0,
2,13290,Note_off_c,9,59,0,
2,13290,Note_off_c,9,60,0,
2,13290,Note_off_c,9,61,0,
2,13290,Note_off_c,9,63,0,
2,13290,Note_off_c,9,68,0,
2,13290,Note_off_c,9,69,0,
2,13290,Note_off_c,9,70,0,
2,13290,Note_off_c,9,76,0,
2,13290,Note_off_c,9,80,0,
2,13290,Note_off_c,9,81,0,
2,13290,Note_off_c,9,82,0,
2,13290,Note_off_c,9,87,0,
2,13290,Note_off_c,9,88,0,
2,13290,Note_off_c,9,89,0,
2,13290,Note_off_c,9,91,0,
2,13290,Note_off_c,9,93,0,
2,13320,Note_off_c,9,35,0,
2,13320,Note_off_c,9,36,0,
2,13320,Note_off_c,9,37,0,
2,13320,Note_off_c,9,38,0,
2,13320,Note_off_c,9,39,0,
2,13320,Note_off_c,9,40,0,
2,13320,Note_off_c,9,41,0,
2,13320,Note_off_c,9,42,0,
2,13320,Note_off_c,9,43,0,
2,13320,Note_off_c,9,44,0,
2,13320,Note_off_c,9,45,0,
2,13320,Note_off_c,9,46,0,
2,13320,Note_off_c,9,47,0,
2,13320,Note_off_c,9,48,0,
2,13320,Note_off_c,9,49,0,
2,13320,Note_off_c,9,50,0,
2,13320,Note_off_c,9,51,0,
2,13320,Note_off_c,9,56,0,
2,13320,Note_off_c,9,57,0,
2,13320,Note_off_c,9,59,0,
2,13320,Note_off_c,9,60,0,
2,13320,Note_off_c,9,61,0,
2,13320,Note_off_c,9,63,0,
2,13320,Note_off_c,9,68,0,
2,13320,Note_off_c,9,69,0,
2,13320,Note_off_c,9,70,0,
2,13320,Note_off_c,9,76,0,
2,13320,Note_off_c,9,80,0,
2,13320,Note_off_c,9,81,0,
2,13320,Note_off_c,9,82,0,
2,13320,Note_off_c,9,87,0,
2,13320,Note_off_c,9,88,0,
2,13320,Note_off_c,9,89,0,
2,13320,Note_off_c,9,91,0,
2,13320,Note_off_c,9,93,0,
2,13350,Note_off_c,9,35,0,
2,13350,Note_off_c,9,36,0,
2,13350,Note_off_c,9,37,0,
2,13350,Note_off_c,9,38,0,
2,13350,Note_off_c,9,39,0,
2,13350,Note_off_c,9,40,0,
2,13350,Note_off_c,9,41,0,
2,13350,Note_off_c,9,42,0,
2,13350,Note_off_c,9,43,0,
2,13350,Note_off_c,9,44,0,
2,13350,Note_off_c,9,45,0,
2,13350,Note_off_c,9,46,0,
2,13350,Note_off_c,9,47,0,
2,13350,Note_off_c,9,48,0,
2,13350,Note_off_c,9,49,0,
2,13350,Note_off_c,9,50,0,
2,13350,Note_off_c,9,51,0,
2,13350,Note_off_c,9,56,0,
2,13350,Note_off_c,9,57,0,
2,13350,Note_off_c,9,59,0,
2,13350,Note_off_c,9,60,0,
2,13350,Note_off_c,9,61,0,
2,13350,Note_off_c,9,63,0,
2,13350,Note_off_c,9,68,0,
2,13350,Note_off_c,9,69,0,
2,13350,Note_off_c,9,70,0,
2,13350,Note_off_c,9,76,0,
2,13350,Note_off_c,9,80,0,
2,13350,Note_off_c,9,81,0,
2,13350,Note_off_c,9,82,0,
2,13350,Note_off_c,9,87,0,
2,13350,Note_off_c,9,88,0,
2,13350,Note_off_c,9,89,0,
2,13350,Note_off_c,9,91,0,
2,13350,Note_off_c,9,93,0,
2,13380,Note_off_c,9,35,0,
2,13380,Note_off_c,9,36,0,
2,13380,Note_off_c,9,37,0,
2,13380,Note_off_c,9,38,0,
2,13380,Note_off_c,9,39,0,
2,13380,Note_off_c,9,40,0,
2,13380,Note_off_c,9,41,0,
2,13380,Note_off_c,9,42,0,
2,13380,Note_off_c,9,43,0,
2,13380,Note_off_c,9,44,0,
2,13380,Note_off_c,9,45,0,
2,13380,Note_off_c,9,46,0,
2,13380,Note_off_c,9,47,0,
2,13380,Note_off_c,9,48,0,
2,13380,Note_off_c,9,49,0,
2,13380,Note_off_c,9,50,0,
2,13380,Note_off_c,9,51,0,
2,13380,Note_off_c,9,56,0,
2,13380,Note_off_c,9,57,0,
2,13380,Note_off_c,9,59,0,
2,13380,Note_off_c,9,60,0,
2,13380,Note_off_c,9,61,0,
2,13380,Note_off_c,9,63,0,
2,13380,Note_off_c,9,68,0,
2,13380,Note_off_c,9,69,0,
2,13380,Note_off_c,9,70,0,
2,13380,Note_off_c,9,76,0,
2,13380,Note_off_c,9,80,0,
2,13380,Note_off_c,9,81,0,
2,13380,Note_off_c,9,82,0,
2,13380,Note_off_c,9,87,0,
2,13380,Note_off_c,9,88,0,
2,13380,Note_off_c,9,89,0,
2,13380,Note_off_c,9,91,0,
2,13380,Note_off_c,9,93,0,
2,13410,Note_off_c,9,35,0,
2,13410,Note_off_c,9,36,0,
2,13410,Note_off_c,9,37,0,
2,13410,Note_off_c,9,38,0,
2,13410,Note_off_c,9,39,0,
2,13410,Note_off_c,9,40,0,
2,13410,Note_off_c,9,41,0,
2,13410,Note_off_c,9,42,0,
2,13410,Note_off_c,9,43,0,
2,13410,Note_off_c,9,44,0,
2,13410,Note_off_c,9,45,0,
2,13410,Note_off_c,9,46,0,
2,13410,Note_off_c,9,47,0,
2,13410,Note_off_c,9,48,0,
2,13410,Note_off_c,9,49,0,
2,13410,Note_off_c,9,50,0,
2,13410,Note_off_c,9,51,0,
2,13410,Note_off_c,9,56,0,
2,13410,Note_off_c,9,57,0,
2,13410,Note_off_c,9,59,0,
2,13410,Note_off_c,9,60,0,
2,13410,Note_off_c,9,61,0,
2,13410,Note_off_c,9,63,0,
2,13410,Note_off_c,9,68,0,
2,13410,Note_off_c,9,69,0,
2,13410,Note_off_c,9,70,0,
2,13410,Note_off_c,9,76,0,
2,13410,Note_off_c,9,80,0,
2,13410,Note_off_c,9,81,0,
2,13410,Note_off_c,9,82,0,
2,13410,Note_off_c,9,87,0,
2,13410,Note_off_c,9,88,0,
2,13410,Note_off_c,9,89,0,
2,13410,Note_off_c,9,91,0,
2,13410,Note_off_c,9,93,0,
2,13440,Note_off_c,9,35,0,
2,13440,Note_off_c,9,36,0,
2,13440,Note_off_c,9,37,0,
2,13440,Note_off_c,9,38,0,
2,13440,Note_off_c,9,39,0,
2,13440,Note_off_c,9,40,0,
2,13440,Note_off_c,9,41,0,
2,13440,Note_off_c,9,42,0,
2,13440,Note_off_c,9,43,0,
2,13440,Note_off_c,9,44,0,
2,13440,Note_off_c,9,45,0,
2,13440,Note_off_c,9,46,0,
2,13440,Note_off_c,9,47,0,
2,13440,Note_off_c,9,48,0,
2,13440,Note_off_c,9,49,0,
2,13440,Note_off_c,9,50,0,
2,13440,Note_off_c,9,51,0,
2,13440,Note_off_c,9,56,0,
2,13440,Note_off_c,9,57,0,
2,13440,Note_off_c,9,59,0,
2,13440,Note_off_c,9,60,0,
2,13440,Note_off_c,9,61,0,
2,13440,Note_off_c,9,63,0,
2,13440,Note_off_c,9,68,0,
2,13440,Note_off_c,9,69,0,
2,13440,Note_off_c,9,70,0,
2,13440,Note_off_c,9,76,0,
2,13440,Note_off_c,9,80,0,
2,13440,Note_off_c,9,81,0,
2,13440,Note_off_c,9,82,0,
2,13440,Note_off_c,9,87,0,
2,13440,Note_off_c,9,88,0,
2,13440,Note_off_c,9,89,0,
2,13440,Note_off_c,9,91,0,
2,13440,Note_off_c,9,93,0,
2,13470,Note_off_c,9,35,0,
2,13470,Note_off_c,9,36,0,
2,13470,Note_off_c,9,37,0,
2,13470,Note_off_c,9,38,0,
2,13470,Note_off_c,9,39,0,
2,13470,Note_off_c,9,40,0,
2,13470,Note_off_c,9,41,0,
2,13470,Note_off_c,9,42,0,
2,13470,Note_off_c,9,43,0,
2,13470,Note_off_c,9,44,0,
2,13470,Note_off_c,9,45,0,
2,13470,Note_off_c,9,46,0,
2,13470,Note_off_c,9,47,0,
2,13470,Note_off_c,9,48,0,
2,13470,Note_off_c,9,49,0,
2,13470,Note_off_c,9,50,0,
2,13470,Note_off_c,9,51,0,
2,13470,Note_off_c,9,56,0,
2,13470,Note_off_c,9,57,0,
2,13470,Note_off_c,9,59,0,
2,13470,Note_off_c,9,60,0,
2,13470,Note_off_c,9,61,0,
2,13470,Note_off_c,9,63,0,
2,13470,Note_off_c,9,68,0,
2,13470,Note_off_c,9,69,0,
2,13470,Note_off_c,9,70,0,
2,13470,Note_off_c,9,76,0,
2,13470,Note_off_c,9,80,0,
2,13470,Note_off_c,9,81,0,
2,13470,Note_off_c,9,82,0,
2,13470,Note_off_c,9,87,0,
2,13470,Note_off_c,9,88,0,
2,13470,Note_off_c,9,89,0,
2,13470,Note_off_c,9,91,0,
2,13470,Note_off_c,9,93,0,
2,13500,Note_off_c,9,35,0,
2,13500,Note_off_c,9,36,0,
2,13500,Note_off_c,9,37,0,
2,13500,Note_off_c,9,38,0,
2,13500,Note_off_c,9,39,0,
2,13500,Note_off_c,9,40,0,
2,13500,Note_off_c,9,41,0,
2,13500,Note_off_c,9,42,0,
2,13500,Note_off_c,9,43,0,
2,13500,Note_off_c,9,44,0,
2,13500,Note_off_c,9,45,0,
2,13500,Note_off_c,9,46,0,
2,13500,Note_off_c,9,47,0,
2,13500,Note_off_c,9,48,0,
2,13500,Note_off_c,9,49,0,
2,13500,Note_off_c,9,50,0,
2,13500,Note_off_c,9,51,0,
2,13500,Note_off_c,9,56,0,
2,13500,Note_off_c,9,57,0,
2,13500,Note_off_c,9,59,0,
2,13500,Note_off_c,9,60,0,
2,13500,Note_off_c,9,61,0,
2,13500,Note_off_c,9,63,0,
2,13500,Note_off_c,9,68,0,
2,13500,Note_off_c,9,69,0,
2,13500,Note_off_c,9,70,0,
2,13500,Note_off_c,9,76,0,
2,13500,Note_off_c,9,80,0,
2,13500,Note_off_c,9,81,0,
2,13500,Note_off_c,9,82,0,
2,13500,Note_off_c,9,87,0,
2,13500,Note_off_c,9,88,0,
2,13500,Note_off_c,9,89,0,
2,13500,Note_off_c,9,91,0,
2,13500,Note_off_c,9,93,0,
2,13530,Note_off_c,9,35,0,
2,13530,Note_off_c,9,36,0,
2,13530,Note_off_c,9,37,0,
2,13530,Note_off_c,9,38,0,
2,13530,Note_off_c,9,39,0,
2,13530,Note_off_c,9,40,0,
2,13530,Note_off_c,9,41,0,
2,13530,Note_off_c,9,42,0,
2,13530,Note_off_c,9,43,0,
2,13530,Note_off_c,9,44,0,
2,13530,Note_off_c,9,45,0,
2,13530,Note_off_c,9,46,0,
2,13530,Note_off_c,9,47,0,
2,13530,Note_off_c,9,48,0,
2,13530,Note_off_c,9,49,0,
2,13530,Note_off_c,9,50,0,
2,13530,Note_off_c,9,51,0,
2,13530,Note_off_c,9,56,0,
2,13530,Note_off_c,9,57,0,
2,13530,Note_off_c,9,59,0,
2,13530,Note_off_c,9,60,0,
2,13530,Note_off_c,9,61,0,
2,13530,Note_off_c,9,63,0,
2,13530,Note_off_c,9,68,0,
2,13530,Note_off_c,9,69,0,
2,13530,Note_off_c,9,70,0,
2,13530,Note_off_c,9,76,0,
2,13530,Note_off_c,9,80,0,
2,13530,Note_off_c,9,81,0,
2,13530,Note_off_c,9,82,0,
2,13530,Note_off_c,9,87,0,
2,13530,Note_off_c,9,88,0,
2,13530,Note_off_c,9,89,0,
2,13530,Note_off_c,9,91,0,
2,13530,Note_off_c,9,93,0,
2,13560,Note_off_c,9,35,0,
2,13560,Note_off_c,9,36,0,
2,13560,Note_off_c,9,37,0,
2,13560,Note_off_c,9,38,0,
2,13560,Note_off_c,9,39,0,
2,13560,Note_off_c,9,40,0,
2,13560,Note_off_c,9,41,0,
2,13560,Note_off_c,9,42,0,
2,13560,Note_off_c,9,43,0,
2,13560,Note_off_c,9,44,0,
2,13560,Note_off_c,9,45,0,
2,13560,Note_off_c,9,46,0,
2,13560,Note_off_c,9,47,0,
2,13560,Note_off_c,9,48,0,
2,13560,Note_off_c,9,49,0,
2,13560,Note_off_c,9,50,0,
2,13560,Note_off_c,9,51,0,
2,13560,Note_off_c,9,56,0,
2,13560,Note_off_c,9,57,0,
2,13560,Note_off_c,9,59,0,
2,13560,Note_off_c,9,60,0,
2,13560,Note_off_c,9,61,0,
2,13560,Note_off_c,9,63,0,
2,13560,Note_off_c,9,68,0,
2,13560,Note_off_c,9,69,0,
2,13560,Note_off_c,9,70,0,
2,13560,Note_off_c,9,76,0,
2,13560,Note_off_c,9,80,0,
2,13560,Note_off_c,9,81,0,
2,13560,Note_off_c,9,82,0,
2,13560,Note_off_c,9,87,0,
2,13560,Note_off_c,9,88,0,
2,13560,Note_off_c,9,89,0,
2,13560,Note_off_c,9,91,0,
2,13560,Note_off_c,9,93,0,
2,13590,Note_off_c,9,35,0,
2,13590,Note_off_c,9,36,0,
2,13590,Note_off_c,9,37,0,
2,13590,Note_off_c,9,38,0,
2,13590,Note_off_c,9,39,0,
2,13590,Note_off_c,9,40,0,
2,13590,Note_off_c,9,41,0,
2,13590,Note_off_c,9,42,0,
2,13590,Note_off_c,9,43,0,
2,13590,Note_off_c,9,44,0,
2,13590,Note_off_c,9,45,0,
2,13590,Note_off_c,9,46,0,
2,13590,Note_off_c,9,47,0,
2,13590,Note_off_c,9,48,0,
2,13590,Note_off_c,9,49,0,
2,13590,Note_off_c,9,50,0,
2,13590,Note_off_c,9,51,0,
2,13590,Note_off_c,9,56,0,
2,13590,Note_off_c,9,57,0,
2,13590,Note_off_c,9,59,0,
2,13590,Note_off_c,9,60,0,
2,13590,Note_off_c,9,61,0,
2,13590,Note_off_c,9,63,0,
2,13590,Note_off_c,9,68,0,
2,13590,Note_off_c,9,69,0,
2,13590,Note_off_c,9,70,0,
2,13590,Note_off_c,9,76,0,
2,13590,Note_off_c,9,80,0,
2,13590,Note_off_c,9,81,0,
2,13590,Note_off_c,9,82,0,
2,13590,Note_off_c,9,87,0,
2,13590,Note_off_c,9,88,0,
2,13590,Note_off_c,9,89,0,
2,13590,Note_off_c,9,91,0,
2,13590,Note_off_c,9,93,0,
2,13620,Note_off_c,9,35,0,
2,13620,Note_off_c,9,36,0,
2,13620,Note_off_c,9,37,0,
2,13620,Note_off_c,9,38,0,
2,13620,Note_off_c,9,39,0,
2,13620,Note_off_c,9,40,0,
2,13620,Note_off_c,9,41,0,
2,13620,Note_off_c,9,42,0,
2,13620,Note_off_c,9,43,0,
2,13620,Note_off_c,9,44,0,
2,13620,Note_off_c,9,45,0,
2,13620,Note_off_c,9,46,0,
2,13620,Note_off_c,9,47,0,
2,13620,Note_off_c,9,48,0,
2,13620,Note_off_c,9,49,0,
2,13620,Note_off_c,9,50,0,
2,13620,Note_off_c,9,51,0,
2,13620,Note_off_c,9,56,0,
2,13620,Note_off_c,9,57,0,
2,13620,Note_off_c,9,59,0,
2,13620,Note_off_c,9,60,0,
2,13620,Note_off_c,9,61,0,
2,13620,Note_off_c,9,63,0,
2,13620,Note_off_c,9,68,0,
2,13620,Note_off_c,9,69,0,
2,13620,Note_off_c,9,70,0,
2,13620,Note_off_c,9,76,0,
2,13620,Note_off_c,9,80,0,
2,13620,Note_off_c,9,81,0,
2,13620,Note_off_c,9,82,0,
2,13620,Note_off_c,9,87,0,
2,13620,Note_off_c,9,88,0,
2,13620,Note_off_c,9,89,0,
2,13620,Note_off_c,9,91,0,
2,13620,Note_off_c,9,93,0,
2,13650,Note_off_c,9,35,0,
2,13650,Note_off_c,9,36,0,
2,13650,Note_off_c,9,37,0,
2,13650,Note_off_c,9,38,0,
2,13650,Note_off_c,9,39,0,
2,13650,Note_off_c,9,40,0,
2,13650,Note_off_c,9,41,0,
2,13650,Note_off_c,9,42,0,
2,13650,Note_off_c,9,43,0,
2,13650,Note_off_c,9,44,0,
2,13650,Note_off_c,9,45,0,
2,13650,Note_off_c,9,46,0,
2,13650,Note_off_c,9,47,0,
2,13650,Note_off_c,9,48,0,
2,13650,Note_off_c,9,49,0,
2,13650,Note_off_c,9,50,0,
2,13650,Note_off_c,9,51,0,
2,13650,Note_off_c,9,56,0,
2,13650,Note_off_c,9,57,0,
2,13650,Note_off_c,9,59,0,
2,13650,Note_off_c,9,60,0,
2,13650,Note_off_c,9,61,0,
2,13650,Note_off_c,9,63,0,
2,13650,Note_off_c,9,68,0,
2,13650,Note_off_c,9,69,0,
2,13650,Note_off_c,9,70,0,
2,13650,Note_off_c,9,76,0,
2,13650,Note_off_c,9,80,0,
2,13650,Note_off_c,9,81,0,
2,13650,Note_off_c,9,82,0,
2,13650,Note_off_c,9,87,0,
2,13650,Note_off_c,9,88,0,
2,13650,Note_off_c,9,89,0,
2,13650,Note_off_c,9,91,0,
2,13650,Note_off_c,9,93,0,
2,13680,Note_off_c,9,35,0,
2,13680,Note_off_c,9,36,0,
2,13680,Note_off_c,9,37,0,
2,13680,Note_off_c,9,38,0,
2,13680,Note_off_c,9,39,0,
2,13680,Note_off_c,9,40,0,
2,13680,Note_off_c,9,41,0,
2,13680,Note_off_c,9,42,0,
2,13680,Note_off_c,9,43,0,
2,13680,Note_off_c,9,44,0,
2,13680,Note_off_c,9,45,0,
2,13680,Note_off_c,9,46,0,
2,13680,Note_off_c,9,47,0,
2,13680,Note_off_c,9,48,0,
2,13680,Note_off_c,9,49,0,
2,13680,Note_off_c,9,50,0,
2,13680,Note_off_c,9,51,0,
2,13680,Note_off_c,9,56,0,
2,13680,Note_off_c,9,57,0,
2,13680,Note_off_c,9,59,0,
2,13680,Note_off_c,9,60,0,
2,13680,Note_off_c,9,61,0,
2,13680,Note_off_c,9,63,0,
2,13680,Note_off_c,9,68,0,
2,13680,Note_off_c,9,69,0,
2,13680,Note_off_c,9,70,0,
2,13680,Note_off_c,9,76,0,
2,13680,Note_off_c,9,80,0,
2,13680,Note_off_c,9,81,0,
2,13680,Note_off_c,9,82,0,
2,13680,Note_off_c,9,87,0,
2,13680,Note_off_c,9,88,0,
2,13680,Note_off_c,9,89,0,
2,13680,Note_off_c,9,91,0,
2,13680,Note_off_c,9,93,0,
2,13710,Note_off_c,9,35,0,
2,13710,Note_off_c,9,36,0,
2,13710,Note_off_c,9,37,0,
2,13710,Note_off_c,9,38,0,
2,13710,Note_off_c,9,39,0,
2,13710,Note_off_c,9,40,0,
2,13710,Note_off_c,9,41,0,
2,13710,Note_off_c,9,42,0,
2,13710,Note_off_c,9,43,0,
2,13710,Note_off_c,9,44,0,
2,13710,Note_off_c,9,45,0,
2,13710,Note_off_c,9,46,0,
2,13710,Note_off_c,9,47,0,
2,13710,Note_off_c,9,48,0,
2,13710,Note_off_c,9,49,0,
2,13710,Note_off_c,9,50,0,
2,13710,Note_off_c,9,51,0,
2,13710,Note_off_c,9,56,0,
2,13710,Note_off_c,9,57,0,
2,13710,Note_off_c,9,59,0,
2,13710,Note_off_c,9,60,0,
2,13710,Note_off_c,9,61,0,
2,13710,Note_off_c,9,63,0,
2,13710,Note_off_c,9,68,0,
2,13710,Note_off_c,9,69,0,
2,13710,Note_off_c,9,70,0,
2,13710,Note_off_c,9,76,0,
2,13710,Note_off_c,9,80,0,
2,13710,Note_off_c,9,81,0,
2,13710,Note_off_c,9,82,0,
2,13710,Note_off_c,9,87,0,
2,13710,Note_off_c,9,88,0,
2,13710,Note_off_c,9,89,0,
2,13710,Note_off_c,9,91,0,
2,13710,Note_off_c,9,93,0,
2,13740,Note_off_c,9,35,0,
2,13740,Note_off_c,9,36,0,
2,13740,Note_off_c,9,37,0,
2,13740,Note_off_c,9,38,0,
2,13740,Note_off_c,9,39,0,
2,13740,Note_off_c,9,40,0,
2,13740,Note_off_c,9,41,0,
2,13740,Note_off_c,9,42,0,
2,13740,Note_off_c,9,43,0,
2,13740,Note_off_c,9,44,0,
2,13740,Note_off_c,9,45,0,
2,13740,Note_off_c,9,46,0,
2,13740,Note_off_c,9,47,0,
2,13740,Note_off_c,9,48,0,
2,13740,Note_off_c,9,49,0,
2,13740,Note_off_c,9,50,0,
2,13740,Note_off_c,9,51,0,
2,13740,Note_off_c,9,56,0,
2,13740,Note_off_c,9,57,0,
2,13740,Note_off_c,9,59,0,
2,13740,Note_off_c,9,60,0,
2,13740,Note_off_c,9,61,0,
2,13740,Note_off_c,9,63,0,
2,13740,Note_off_c,9,68,0,
2,13740,Note_off_c,9,69,0,
2,13740,Note_off_c,9,70,0,
2,13740,Note_off_c,9,76,0,
2,13740,Note_off_c,9,80,0,
2,13740,Note_off_c,9,81,0,
2,13740,Note_off_c,9,82,0,
2,13740,Note_off_c,9,87,0,
2,13740,Note_off_c,9,88,0,
2,13740,Note_off_c,9,89,0,
2,13740,Note_off_c,9,91,0,
2,13740,Note_off_c,9,93,0,
2,13770,Note_off_c,9,35,0,
2,13770,Note_off_c,9,36,0,
2,13770,Note_off_c,9,37,0,
2,13770,Note_off_c,9,38,0,
2,13770,Note_off_c,9,39,0,
2,13770,Note_off_c,9,40,0,
2,13770,Note_off_c,9,41,0,
2,13770,Note_off_c,9,42,0,
2,13770,Note_off_c,9,43,0,
2,13770,Note_off_c,9,44,0,
2,13770,Note_off_c,9,45,0,
2,13770,Note_off_c,9,46,0,
2,13770,Note_off_c,9,47,0,
2,13770,Note_off_c,9,48,0,
2,13770,Note_off_c,9,49,0,
2,13770,Note_off_c,9,50,0,
2,13770,Note_off_c,9,51,0,
2,13770,Note_off_c,9,56,0,
2,13770,Note_off_c,9,57,0,
2,13770,Note_off_c,9,59,0,
2,13770,Note_off_c,9,60,0,
2,13770,Note_off_c,9,61,0,
2,13770,Note_off_c,9,63,0,
2,13770,Note_off_c,9,68,0,
2,13770,Note_off_c,9,69,0,
2,13770,Note_off_c,9,70,0,
2,13770,Note_off_c,9,76,0,
2,13770,Note_off_c,9,80,0,
2,13770,Note_off_c,9,81,0,
2,13770,Note_off_c,9,82,0,
2,13770,Note_off_c,9,87,0,
2,13770,Note_off_c,9,88,0,
2,13770,Note_off_c,9,89,0,
2,13770,Note_off_c,9,91,0,
2,13770,Note_off_c,9,93,0,
2,13800,Note_off_c,9,35,0,
2,13800,Note_off_c,9,36,0,
2,13800,Note_off_c,9,37,0,
2,13800,Note_off_c,9,38,0,
2,13800,Note_off_c,9,39,0,
2,13800,Note_off_c,9,40,0,
2,13800,Note_off_c,9,41,0,
2,13800,Note_off_c,9,42,0,
2,13800,Note_off_c,9,43,0,
2,13800,Note_off_c,9,44,0,
2,13800,Note_off_c,9,45,0,
2,13800,Note_off_c,9,46,0,
2,13800,Note_off_c,9,47,0,
2,13800,Note_off_c,9,48,0,
2,13800,Note_off_c,9,49,0,
2,13800,Note_off_c,9,50,0,
2,13800,Note_off_c,9,51,0,
2,13800,Note_off_c,9,56,0,
2,13800,Note_off_c,9,57,0,
2,13800,Note_off_c,9,59,0,
2,13800,Note_off_c,9,60,0,
2,13800,Note_off_c,9,61,0,
2,13800,Note_off_c,9,63,0,
2,13800,Note_off_c,9,68,0,
2,13800,Note_off_c,9,69,0,
2,13800,Note_off_c,9,70,0,
2,13800,Note_off_c,9,76,0,
2,13800,Note_off_c,9,80,0,
2,13800,Note_off_c,9,81,0,
2,13800,Note_off_c,9,82,0,
2,13800,Note_off_c,9,87,0,
2,13800,Note_off_c,9,88,0,
2,13800,Note_off_c,9,89,0,
2,13800,Note_off_c,9,91,0,
2,13800,Note_off_c,9,93,0,
2,13830,Note_off_c,9,35,0,
2,13830,Note_off_c,9,36,0,
2,13830,Note_off_c,9,37,0,
2,13830,Note_off_c,9,38,0,
2,13830,Note_off_c,9,39,0,
2,13830,Note_off_c,9,40,0,
2,13830,Note_off_c,9,41,0,
2,13830,Note_off_c,9,42,0,
2,13830,Note_off_c,9,43,0,
2,13830,Note_off_c,9,44,0,
2,13830,Note_off_c,9,45,0,
2,13830,Note_off_c,9,46,0,
2,13830,Note_off_c,9,47,0,
2,13830,Note_off_c,9,48,0,
2,13830,Note_off_c,9,49,0,
2,13830,Note_off_c,9,50,0,
2,13830,Note_off_c,9,51,0,
2,13830,Note_off_c,9,56,0,
2,13830,Note_off_c,9,57,0,
2,13830,Note_off_c,9,59,0,
2,13830,Note_off_c,9,60,0,
2,13830,Note_off_c,9,61,0,
2,13830,Note_off_c,9,63,0,
2,13830,Note_off_c,9,68,0,
2,13830,Note_off_c,9,69,0,
2,13830,Note_off_c,9,70,0,
2,13830,Note_off_c,9,76,0,
2,13830,Note_off_c,9,80,0,
2,13830,Note_off_c,9,81,0,
2,13830,Note_off_c,9,82,0,
2,13830,Note_off_c,9,87,0,
2,13830,Note_off_c,9,88,0,
2,13830,Note_off_c,9,89,0,
2,13830,Note_off_c,9,91,0,
2,13830,Note_off_c,9,93,0,
2,13860,Note_off_c,9,35,0,
2,13860,Note_off_c,9,36,0,
2,13860,Note_off_c,9,37,0,
2,13860,Note_off_c,9,38,0,
2,13860,Note_off_c,9,39,0,
2,13860,Note_off_c,9,40,0,
2,13860,Note_off_c,9,41,0,
2,13860,Note_off_c,9,42,0,
2,13860,Note_off_c,9,43,0,
2,13860,Note_off_c,9,44,0,
2,13860,Note_off_c,9,45,0,
2,13860,Note_off_c,9,46,0,
2,13860,Note_off_c,9,47,0,
2,13860,Note_off_c,9,48,0,
2,13860,Note_off_c,9,49,0,
2,13860,Note_off_c,9,50,0,
2,13860,Note_off_c,9,51,0,
2,13860,Note_off_c,9,56,0,
2,13860,Note_off_c,9,57,0,
2,13860,Note_off_c,9,59,0,
2,13860,Note_off_c,9,60,0,
2,13860,Note_off_c,9,61,0,
2,13860,Note_off_c,9,63,0,
2,13860,Note_off_c,9,68,0,
2,13860,Note_off_c,9,69,0,
2,13860,Note_off_c,9,70,0,
2,13860,Note_off_c,9,76,0,
2,13860,Note_off_c,9,80,0,
2,13860,Note_off_c,9,81,0,
2,13860,Note_off_c,9,82,0,
2,13860,Note_off_c,9,87,0,
2,13860,Note_off_c,9,88,0,
2,13860,Note_off_c,9,89,0,
2,13860,Note_off_c,9,91,0,
2,13860,Note_off_c,9,93,0,
2,13890,Note_off_c,9,35,0,
2,13890,Note_off_c,9,36,0,
2,13890,Note_off_c,9,37,0,
2,13890,Note_off_c,9,38,0,
2,13890,Note_off_c,9,39,0,
2,13890,Note_off_c,9,40,0,
2,13890,Note_off_c,9,41,0,
2,13890,Note_off_c,9,42,0,
2,13890,Note_off_c,9,43,0,
2,13890,Note_off_c,9,44,0,
2,13890,Note_off_c,9,45,0,
2,13890,Note_off_c,9,46,0,
2,13890,Note_off_c,9,47,0,
2,13890,Note_off_c,9,48,0,
2,13890,Note_off_c,9,49,0,
2,13890,Note_off_c,9,50,0,
2,13890,Note_off_c,9,51,0,
2,13890,Note_off_c,9,56,0,
2,13890,Note_off_c,9,57,0,
2,13890,Note_off_c,9,59,0,
2,13890,Note_off_c,9,60,0,
2,13890,Note_off_c,9,61,0,
2,13890,Note_off_c,9,63,0,
2,13890,Note_off_c,9,68,0,
2,13890,Note_off_c,9,69,0,
2,13890,Note_off_c,9,70,0,
2,13890,Note_off_c,9,76,0,
2,13890,Note_off_c,9,80,0,
2,13890,Note_off_c,9,81,0,
2,13890,Note_off_c,9,82,0,
2,13890,Note_off_c,9,87,0,
2,13890,Note_off_c,9,88,0,
2,13890,Note_off_c,9,89,0,
2,13890,Note_off_c,9,91,0,
2,13890,Note_off_c,9,93,0,
2,13920,Note_off_c,9,35,0,
2,13920,Note_off_c,9,36,0,
2,13920,Note_off_c,9,37,0,
2,13920,Note_off_c,9,38,0,
2,13920,Note_off_c,9,39,0,
2,13920,Note_off_c,9,40,0,
2,13920,Note_off_c,9,41,0,
2,13920,Note_off_c,9,42,0,
2,13920,Note_off_c,9,43,0,
2,13920,Note_off_c,9,44,0,
2,13920,Note_off_c,9,45,0,
2,13920,Note_off_c,9,46,0,
2,13920,Note_off_c,9,47,0,
2,13920,Note_off_c,9,48,0,
2,13920,Note_off_c,9,49,0,
2,13920,Note_off_c,9,50,0,
2,13920,Note_off_c,9,51,0,
2,13920,Note_off_c,9,56,0,
2,13920,Note_off_c,9,57,0,
2,13920,Note_off_c,9,59,0,
2,13920,Note_off_c,9,60,0,
2,13920,Note_off_c,9,61,0,
2,13920,Note_off_c,9,63,0,
2,13920,Note_off_c,9,68,0,
2,13920,Note_off_c,9,69,0,
2,13920,Note_off_c,9,70,0,
2,13920,Note_off_c,9,76,0,
2,13920,Note_off_c,9,80,0,
2,13920,Note_off_c,9,81,0,
2,13920,Note_off_c,9,82,0,
2,13920,Note_off_c,9,87,0,
2,13920,Note_off_c,9,88,0,
2,13920,Note_off_c,9,89,0,
2,13920,Note_off_c,9,91,0,
2,13920,Note_off_c,9,93,0,
2,13950,Note_off_c,9,35,0,
2,13950,Note_off_c,9,36,0,
2,13950,Note_off_c,9,37,0,
2,13950,Note_off_c,9,38,0,
2,13950,Note_off_c,9,39,0,
2,13950,Note_off_c,9,40,0,
2,13950,Note_off_c,9,41,0,
2,13950,Note_off_c,9,42,0,
2,13950,Note_off_c,9,43,0,
2,13950,Note_off_c,9,44,0,
2,13950,Note_off_c,9,45,0,
2,13950,Note_off_c,9,46,0,
2,13950,Note_off_c,9,47,0,
2,13950,Note_off_c,9,48,0,
2,13950,Note_off_c,9,49,0,
2,13950,Note_off_c,9,50,0,
2,13950,Note_off_c,9,51,0,
2,13950,Note_off_c,9,56,0,
2,13950,Note_off_c,9,57,0,
2,13950,Note_off_c,9,59,0,
2,13950,Note_off_c,9,60,0,
2,13950,Note_off_c,9,61,0,
2,13950,Note_off_c,9,63,0,
2,13950,Note_off_c,9,68,0,
2,13950,Note_off_c,9,69,0,
2,13950,Note_off_c,9,70,0,
2,13950,Note_off_c,9,76,0,
2,13950,Note_off_c,9,80,0,
2,13950,Note_off_c,9,81,0,
2,13950,Note_off_c,9,82,0,
2,13950,Note_off_c,9,87,0,
2,13950,Note_off_c,9,88,0,
2,13950,Note_off_c,9,89,0,
2,13950,Note_off_c,9,91,0,
2,13950,Note_off_c,9,93,0,
2,13980,Note_off_c,9,35,0,
2,13980,Note_off_c,9,36,0,
2,13980,Note_off_c,9,37,0,
2,13980,Note_off_c,9,38,0,
2,13980,Note_off_c,9,39,0,
2,13980,Note_off_c,9,40,0,
2,13980,Note_off_c,9,41,0,
2,13980,Note_off_c,9,42,0,
2,13980,Note_off_c,9,43,0,
2,13980,Note_off_c,9,44,0,
2,13980,Note_off_c,9,45,0,
2,13980,Note_off_c,9,46,0,
2,13980,Note_off_c,9,47,0,
2,13980,Note_off_c,9,48,0,
2,13980,Note_off_c,9,49,0,
2,13980,Note_off_c,9,50,0,
2,13980,Note_off_c,9,51,0,
2,13980,Note_off_c,9,56,0,
2,13980,Note_off_c,9,57,0,
2,13980,Note_off_c,9,59,0,
2,13980,Note_off_c,9,60,0,
2,13980,Note_off_c,9,61,0,
2,13980,Note_off_c,9,63,0,
2,13980,Note_off_c,9,68,0,
2,13980,Note_off_c,9,69,0,
2,13980,Note_off_c,9,70,0,
2,13980,Note_off_c,9,76,0,
2,13980,Note_off_c,9,80,0,
2,13980,Note_off_c,9,81,0,
2,13980,Note_off_c,9,82,0,
2,13980,Note_off_c,9,87,0,
2,13980,Note_off_c,9,88,0,
2,13980,Note_off_c,9,89,0,
2,13980,Note_off_c,9,91,0,
2,13980,Note_off_c,9,93,0,
2,14010,Note_off_c,9,35,0,
2,14010,Note_off_c,9,36,0,
2,14010,Note_off_c,9,37,0,
2,14010,Note_off_c,9,38,0,
2,14010,Note_off_c,9,39,0,
2,14010,Note_off_c,9,40,0,
2,14010,Note_off_c,9,41,0,
2,14010,Note_off_c,9,42,0,
2,14010,Note_off_c,9,43,0,
2,14010,Note_off_c,9,44,0,
2,14010,Note_off_c,9,45,0,
2,14010,Note_off_c,9,46,0,
2,14010,Note_off_c,9,47,0,
2,14010,Note_off_c,9,48,0,
2,14010,Note_off_c,9,49,0,
2,14010,Note_off_c,9,50,0,
2,14010,Note_off_c,9,51,0,
2,14010,Note_off_c,9,56,0,
2,14010,Note_off_c,9,57,0,
2,14010,Note_off_c,9,59,0,
2,14010,Note_off_c,9,60,0,
2,14010,Note_off_c,9,61,0,
2,14010,Note_off_c,9,63,0,
2,14010,Note_off_c,9,68,0,
2,14010,Note_off_c,9,69,0,
2,14010,Note_off_c,9,70,0,
2,14010,Note_off_c,9,76,0,
2,14010,Note_off_c,9,80,0,
2,14010,Note_off_c,9,81,0,
2,14010,Note_off_c,9,82,0,
2,14010,Note_off_c,9,87,0,
2,14010,Note_off_c,9,88,0,
2,14010,Note_off_c,9,89,0,
2,14010,Note_off_c,9,91,0,
2,14010,Note_off_c,9,93,0,
2,14040,Note_off_c,9,35,0,
2,14040,Note_off_c,9,36,0,
2,14040,Note_off_c,9,37,0,
2,14040,Note_off_c,9,38,0,
2,14040,Note_off_c,9,39,0,
2,14040,Note_off_c,9,40,0,
2,14040,Note_off_c,9,41,0,
2,14040,Note_off_c,9,42,0,
2,14040,Note_off_c,9,43,0,
2,14040,Note_off_c,9,44,0,
2,14040,Note_off_c,9,45,0,
2,14040,Note_off_c,9,46,0,
2,14040,Note_off_c,9,47,0,
2,14040,Note_off_c,9,48,0,
2,14040,Note_off_c,9,49,0,
2,14040,Note_off_c,9,50,0,
2,14040,Note_off_c,9,51,0,
2,14040,Note_off_c,9,56,0,
2,14040,Note_off_c,9,57,0,
2,14040,Note_off_c,9,59,0,
2,14040,Note_off_c,9,60,0,
2,14040,Note_off_c,9,61,0,
2,14040,Note_off_c,9,63,0,
2,14040,Note_off_c,9,68,0,
2,14040,Note_off_c,9,69,0,
2,14040,Note_off_c,9,70,0,
2,14040,Note_off_c,9,76,0,
2,14040,Note_off_c,9,80,0,
2,14040,Note_off_c,9,81,0,
2,14040,Note_off_c,9,82,0,
2,14040,Note_off_c,9,87,0,
2,14040,Note_off_c,9,88,0,
2,14040,Note_off_c,9,89,0,
2,14040,Note_off_c,9,91,0,
2,14040,Note_off_c,9,93,0,
2,14070,Note_off_c,9,35,0,
2,14070,Note_off_c,9,36,0,
2,14070,Note_off_c,9,37,0,
2,14070,Note_off_c,9,38,0,
2,14070,Note_off_c,9,39,0,
2,14070,Note_off_c,9,40,0,
2,14070,Note_off_c,9,41,0,
2,14070,Note_off_c,9,42,0,
2,14070,Note_off_c,9,43,0,
2,14070,Note_off_c,9,44,0,
2,14070,Note_off_c,9,45,0,
2,14070,Note_off_c,9,46,0,
2,14070,Note_off_c,9,47,0,
2,14070,Note_off_c,9,48,0,
2,14070,Note_off_c,9,49,0,
2,14070,Note_off_c,9,50,0,
2,14070,Note_off_c,9,51,0,
2,14070,Note_off_c,9,56,0,
2,14070,Note_off_c,9,57,0,
2,14070,Note_off_c,9,59,0,
2,14070,Note_off_c,9,60,0,
2,14070,Note_off_c,9,61,0,
2,14070,Note_off_c,9,63,0,
2,14070,Note_off_c,9,68,0,
2,14070,Note_off_c,9,69,0,
2,14070,Note_off_c,9,70,0,
2,14070,Note_off_c,9,76,0,
2,14070,Note_off_c,9,80,0,
2,14070,Note_off_c,9,81,0,
2,14070,Note_off_c,9,82,0,
2,14070,Note_off_c,9,87,0,
2,14070,Note_off_c,9,88,0,
2,14070,Note_off_c,9,89,0,
2,14070,Note_off_c,9,91,0,
2,14070,Note_off_c,9,93,0,
2,14100,Note_off_c,9,35,0,
2,14100,Note_off_c,9,36,0,
2,14100,Note_off_c,9,37,0,
2,14100,Note_off_c,9,38,0,
2,14100,Note_off_c,9,39,0,
2,14100,Note_off_c,9,40,0,
2,14100,Note_off_c,9,41,0,
2,14100,Note_off_c,9,42,0,
2,14100,Note_off_c,9,43,0,
2,14100,Note_off_c,9,44,0,
2,14100,Note_off_c,9,45,0,
2,14100,Note_off_c,9,46,0,
2,14100,Note_off_c,9,47,0,
2,14100,Note_off_c,9,48,0,
2,14100,Note_off_c,9,49,0,
2,14100,Note_off_c,9,50,0,
2,14100,Note_off_c,9,51,0,
2,14100,Note_off_c,9,56,0,
2,14100,Note_off_c,9,57,0,
2,14100,Note_off_c,9,59,0,
2,14100,Note_off_c,9,60,0,
2,14100,Note_off_c,9,61,0,
2,14100,Note_off_c,9,63,0,
2,14100,Note_off_c,9,68,0,
2,14100,Note_off_c,9,69,0,
2,14100,Note_off_c,9,70,0,
2,14100,Note_off_c,9,76,0,
2,14100,Note_off_c,9,80,0,
2,14100,Note_off_c,9,81,0,
2,14100,Note_off_c,9,82,0,
2,14100,Note_off_c,9,87,0,
2,14100,Note_off_c,9,88,0,
2,14100,Note_off_c,9,89,0,
2,14100,Note_off_c,9,91,0,
2,14100,Note_off_c,9,93,0,
2,14130,Note_off_c,9,35,0,
2,14130,Note_off_c,9,36,0,
2,14130,Note_off_c,9,37,0,
2,14130,Note_off_c,9,38,0,
2,14130,Note_off_c,9,39,0,
2,14130,Note_off_c,9,40,0,
2,14130,Note_off_c,9,41,0,
2,14130,Note_off_c,9,42,0,
2,14130,Note_off_c,9,43,0,
2,14130,Note_off_c,9,44,0,
2,14130,Note_off_c,9,45,0,
2,14130,Note_off_c,9,46,0,
2,14130,Note_off_c,9,47,0,
2,14130,Note_off_c,9,48,0,
2,14130,Note_off_c,9,49,0,
2,14130,Note_off_c,9,50,0,
2,14130,Note_off_c,9,51,0,
2,14130,Note_off_c,9,56,0,
2,14130,Note_off_c,9,57,0,
2,14130,Note_off_c,9,59,0,
2,14130,Note_off_c,9,60,0,
2,14130,Note_off_c,9,61,0,
2,14130,Note_off_c,9,63,0,
2,14130,Note_off_c,9,68,0,
2,14130,Note_off_c,9,69,0,
2,14130,Note_off_c,9,70,0,
2,14130,Note_off_c,9,76,0,
2,14130,Note_off_c,9,80,0,
2,14130,Note_off_c,9,81,0,
2,14130,Note_off_c,9,82,0,
2,14130,Note_off_c,9,87,0,
2,14130,Note_off_c,9,88,0,
2,14130,Note_off_c,9,89,0,
2,14130,Note_off_c,9,91,0,
2,14130,Note_off_c,9,93,0,
2,14160,Note_off_c,9,35,0,
2,14160,Note_off_c,9,36,0,
2,14160,Note_off_c,9,37,0,
2,14160,Note_off_c,9,38,0,
2,14160,Note_off_c,9,39,0,
2,14160,Note_off_c,9,40,0,
2,14160,Note_off_c,9,41,0,
2,14160,Note_off_c,9,42,0,
2,14160,Note_off_c,9,43,0,
2,14160,Note_off_c,9,44,0,
2,14160,Note_off_c,9,45,0,
2,14160,Note_off_c,9,46,0,
2,14160,Note_off_c,9,47,0,
2,14160,Note_off_c,9,48,0,
2,14160,Note_off_c,9,49,0,
2,14160,Note_off_c,9,50,0,
2,14160,Note_off_c,9,51,0,
2,14160,Note_off_c,9,56,0,
2,14160,Note_off_c,9,57,0,
2,14160,Note_off_c,9,59,0,
2,14160,Note_off_c,9,60,0,
2,14160,Note_off_c,9,61,0,
2,14160,Note_off_c,9,63,0,
2,14160,Note_off_c,9,68,0,
2,14160,Note_off_c,9,69,0,
2,14160,Note_off_c,9,70,0,
2,14160,Note_off_c,9,76,0,
2,14160,Note_off_c,9,80,0,
2,14160,Note_off_c,9,81,0,
2,14160,Note_off_c,9,82,0,
2,14160,Note_off_c,9,87,0,
2,14160,Note_off_c,9,88,0,
2,14160,Note_off_c,9,89,0,
2,14160,Note_off_c,9,91,0,
2,14160,Note_off_c,9,93,0,
2,14190,Note_off_c,9,35,0,
2,14190,Note_off_c,9,36,0,
2,14190,Note_off_c,9,37,0,
2,14190,Note_off_c,9,38,0,
2,14190,Note_off_c,9,39,0,
2,14190,Note_off_c,9,40,0,
2,14190,Note_off_c,9,41,0,
2,14190,Note_off_c,9,42,0,
2,14190,Note_off_c,9,43,0,
2,14190,Note_off_c,9,44,0,
2,14190,Note_off_c,9,45,0,
2,14190,Note_off_c,9,46,0,
2,14190,Note_off_c,9,47,0,
2,14190,Note_off_c,9,48,0,
2,14190,Note_off_c,9,49,0,
2,14190,Note_off_c,9,50,0,
2,14190,Note_off_c,9,51,0,
2,14190,Note_off_c,9,56,0,
2,14190,Note_off_c,9,57,0,
2,14190,Note_off_c,9,59,0,
2,14190,Note_off_c,9,60,0,
2,14190,Note_off_c,9,61,0,
2,14190,Note_off_c,9,63,0,
2,14190,Note_off_c,9,68,0,
2,14190,Note_off_c,9,69,0,
2,14190,Note_off_c,9,70,0,
2,14190,Note_off_c,9,76,0,
2,14190,Note_off_c,9,80,0,
2,14190,Note_off_c,9,81,0,
2,14190,Note_off_c,9,82,0,
2,14190,Note_off_c,9,87,0,
2,14190,Note_off_c,9,88,0,
2,14190,Note_off_c,9,89,0,
2,14190,Note_off_c,9,91,0,
2,14190,Note_off_c,9,93,0,
2,14220,Note_off_c,9,35,0,
2,14220,Note_off_c,9,36,0,
2,14220,Note_off_c,9,37,0,
2,14220,Note_off_c,9,38,0,
2,14220,Note_off_c,9,39,0,
2,14220,Note_off_c,9,40,0,
2,14220,Note_off_c,9,41,0,
2,14220,Note_off_c,9,42,0,
2,14220,Note_off_c,9,43,0,
2,14220,Note_off_c,9,44,0,
2,14220,Note_off_c,9,45,0,
2,14220,Note_off_c,9,46,0,
2,14220,Note_off_c,9,47,0,
2,14220,Note_off_c,9,48,0,
2,14220,Note_off_c,9,49,0,
2,14220,Note_off_c,9,50,0,
2,14220,Note_off_c,9,51,0,
2,14220,Note_off_c,9,56,0,
2,14220,Note_off_c,9,57,0,
2,14220,Note_off_c,9,59,0,
2,14220,Note_off_c,9,60,0,
2,14220,Note_off_c,9,61,0,
2,14220,Note_off_c,9,63,0,
2,14220,Note_off_c,9,68,0,
2,14220,Note_off_c,9,69,0,
2,14220,Note_off_c,9,70,0,
2,14220,Note_off_c,9,76,0,
2,14220,Note_off_c,9,80,0,
2,14220,Note_off_c,9,81,0,
2,14220,Note_off_c,9,82,0,
2,14220,Note_off_c,9,87,0,
2,14220,Note_off_c,9,88,0,
2,14220,Note_off_c,9,89,0,
2,14220,Note_off_c,9,91,0,
2,14220,Note_off_c,9,93,0,
2,14250,Note_off_c,9,35,0,
2,14250,Note_off_c,9,36,0,
2,14250,Note_off_c,9,37,0,
2,14250,Note_off_c,9,38,0,
2,14250,Note_off_c,9,39,0,
2,14250,Note_off_c,9,40,0,
2,14250,Note_off_c,9,41,0,
2,14250,Note_off_c,9,42,0,
2,14250,Note_off_c,9,43,0,
2,14250,Note_off_c,9,44,0,
2,14250,Note_off_c,9,45,0,
2,14250,Note_off_c,9,46,0,
2,14250,Note_off_c,9,47,0,
2,14250,Note_off_c,9,48,0,
2,14250,Note_off_c,9,49,0,
2,14250,Note_off_c,9,50,0,
2,14250,Note_off_c,9,51,0,
2,14250,Note_off_c,9,56,0,
2,14250,Note_off_c,9,57,0,
2,14250,Note_off_c,9,59,0,
2,14250,Note_off_c,9,60,0,
2,14250,Note_off_c,9,61,0,
2,14250,Note_off_c,9,63,0,
2,14250,Note_off_c,9,68,0,
2,14250,Note_off_c,9,69,0,
2,14250,Note_off_c,9,70,0,
2,14250,Note_off_c,9,76,0,
2,14250,Note_off_c,9,80,0,
2,14250,Note_off_c,9,81,0,
2,14250,Note_off_c,9,82,0,
2,14250,Note_off_c,9,87,0,
2,14250,Note_off_c,9,88,0,
2,14250,Note_off_c,9,89,0,
2,14250,Note_off_c,9,91,0,
2,14250,Note_off_c,9,93,0,
2,14280,Note_off_c,9,35,0,
2,14280,Note_off_c,9,36,0,
2,14280,Note_off_c,9,37,0,
2,14280,Note_off_c,9,38,0,
2,14280,Note_off_c,9,39,0,
2,14280,Note_off_c,9,40,0,
2,14280,Note_off_c,9,41,0,
2,14280,Note_off_c,9,42,0,
2,14280,Note_off_c,9,43,0,
2,14280,Note_off_c,9,44,0,
2,14280,Note_off_c,9,45,0,
2,14280,Note_off_c,9,46,0,
2,14280,Note_off_c,9,47,0,
2,14280,Note_off_c,9,48,0,
2,14280,Note_off_c,9,49,0,
2,14280,Note_off_c,9,50,0,
2,14280,Note_off_c,9,51,0,
2,14280,Note_off_c,9,56,0,
2,14280,Note_off_c,9,57,0,
2,14280,Note_off_c,9,59,0,
2,14280,Note_off_c,9,60,0,
2,14280,Note_off_c,9,61,0,
2,14280,Note_off_c,9,63,0,
2,14280,Note_off_c,9,68,0,
2,14280,Note_off_c,9,69,0,
2,14280,Note_off_c,9,70,0,
2,14280,Note_off_c,9,76,0,
2,14280,Note_off_c,9,80,0,
2,14280,Note_off_c,9,81,0,
2,14280,Note_off_c,9,82,0,
2,14280,Note_off_c,9,87,0,
2,14280,Note_off_c,9,88,0,
2,14280,Note_off_c,9,89,0,
2,14280,Note_off_c,9,91,0,
2,14280,Note_off_c,9,93,0,
2,14310,Note_off_c,9,35,0,
2,14310,Note_off_c,9,36,0,
2,14310,Note_off_c,9,37,0,
2,14310,Note_off_c,9,38,0,
2,14310,Note_off_c,9,39,0,
2,14310,Note_off_c,9,40,0,
2,14310,Note_off_c,9,41,0,
2,14310,Note_off_c,9,42,0,
2,14310,Note_off_c,9,43,0,
2,14310,Note_off_c,9,44,0,
2,14310,Note_off_c,9,45,0,
2,14310,Note_off_c,9,46,0,
2,14310,Note_off_c,9,47,0,
2,14310,Note_off_c,9,48,0,
2,14310,Note_off_c,9,49,0,
2,14310,Note_off_c,9,50,0,
2,14310,Note_off_c,9,51,0,
2,14310,Note_off_c,9,56,0,
2,14310,Note_off_c,9,57,0,
2,14310,Note_off_c,9,59,0,
2,14310,Note_off_c,9,60,0,
2,14310,Note_off_c,9,61,0,
2,14310,Note_off_c,9,63,0,
2,14310,Note_off_c,9,68,0,
2,14310,Note_off_c,9,69,0,
2,14310,Note_off_c,9,70,0,
2,14310,Note_off_c,9,76,0,
2,14310,Note_off_c,9,80,0,
2,14310,Note_off_c,9,81,0,
2,14310,Note_off_c,9,82,0,
2,14310,Note_off_c,9,87,0,
2,14310,Note_off_c,9,88,0,
2,14310,Note_off_c,9,89,0,
2,14310,Note_off_c,9,91,0,
2,14310,Note_off_c,9,93,0,
2,14340,Note_off_c,9,35,0,
2,14340,Note_off_c,9,36,0,
2,14340,Note_off_c,9,37,0,
2,14340,Note_off_c,9,38,0,
2,14340,Note_off_c,9,39,0,
2,14340,Note_off_c,9,40,0,
2,14340,Note_off_c,9,41,0,
2,14340,Note_off_c,9,42,0,
2,14340,Note_off_c,9,43,0,
2,14340,Note_off_c,9,44,0,
2,14340,Note_off_c,9,45,0,
2,14340,Note_off_c,9,46,0,
2,14340,Note_off_c,9,47,0,
2,14340,Note_off_c,9,48,0,
2,14340,Note_off_c,9,49,0,
2,14340,Note_off_c,9,50,0,
2,14340,Note_off_c,9,51,0,
2,14340,Note_off_c,9,56,0,
2,14340,Note_off_c,9,57,0,
2,14340,Note_off_c,9,59,0,
2,14340,Note_off_c,9,60,0,
2,14340,Note_off_c,9,61,0,
2,14340,Note_off_c,9,63,0,
2,14340,Note_off_c,9,68,0,
2,14340,Note_off_c,9,69,0,
2,14340,Note_off_c,9,70,0,
2,14340,Note_off_c,9,76,0,
2,14340,Note_off_c,9,80,0,
2,14340,Note_off_c,9,81,0,
2,14340,Note_off_c,9,82,0,
2,14340,Note_off_c,9,87,0,
2,14340,Note_off_c,9,88,0,
2,14340,Note_off_c,9,89,0,
2,14340,Note_off_c,9,91,0,
2,14340,Note_off_c,9,93,0,
2,14370,Note_off_c,9,35,0,
2,14370,Note_off_c,9,36,0,
2,14370,Note_off_c,9,37,0,
2,14370,Note_off_c,9,38,0,
2,14370,Note_off_c,9,39,0,
2,14370,Note_off_c,9,40,0,
2,14370,Note_off_c,9,41,0,
2,14370,Note_off_c,9,42,0,
2,14370,Note_off_c,9,43,0,
2,14370,Note_off_c,9,44,0,
2,14370,Note_off_c,9,45,0,
2,14370,Note_off_c,9,46,0,
2,14370,Note_off_c,9,47,0,
2,14370,Note_off_c,9,48,0,
2,14370,Note_off_c,9,49,0,
2,14370,Note_off_c,9,50,0,
2,14370,Note_off_c,9,51,0,
2,14370,Note_off_c,9,56,0,
2,14370,Note_off_c,9,57,0,
2,14370,Note_off_c,9,59,0,
2,14370,Note_off_c,9,60,0,
2,14370,Note_off_c,9,61,0,
2,14370,Note_off_c,9,63,0,
2,14370,Note_off_c,9,68,0,
2,14370,Note_off_c,9,69,0,
2,14370,Note_off_c,9,70,0,
2,14370,Note_off_c,9,76,0,
2,14370,Note_off_c,9,80,0,
2,14370,Note_off_c,9,81,0,
2,14370,Note_off_c,9,82,0,
2,14370,Note_off_c,9,87,0,
2,14370,Note_off_c,9,88,0,
2,14370,Note_off_c,9,89,0,
2,14370,Note_off_c,9,91,0,
2,14370,Note_off_c,9,93,0,
2,14400,Note_off_c,9,35,0,
2,14400,Note_off_c,9,36,0,
2,14400,Note_off_c,9,37,0,
2,14400,Note_off_c,9,38,0,
2,14400,Note_off_c,9,39,0,
2,14400,Note_off_c,9,40,0,
2,14400,Note_off_c,9,41,0,
2,14400,Note_off_c,9,42,0,
2,14400,Note_off_c,9,43,0,
2,14400,Note_off_c,9,44,0,
2,14400,Note_off_c,9,45,0,
2,14400,Note_off_c,9,46,0,
2,14400,Note_off_c,9,47,0,
2,14400,Note_off_c,9,48,0,
2,14400,Note_off_c,9,49,0,
2,14400,Note_off_c,9,50,0,
2,14400,Note_off_c,9,51,0,
2,14400,Note_off_c,9,56,0,
2,14400,Note_off_c,9,57,0,
2,14400,Note_off_c,9,59,0,
2,14400,Note_off_c,9,60,0,
2,14400,Note_off_c,9,61,0,
2,14400,Note_off_c,9,63,0,
2,14400,Note_off_c,9,68,0,
2,14400,Note_off_c,9,69,0,
2,14400,Note_off_c,9,70,0,
2,14400,Note_off_c,9,76,0,
2,14400,Note_off_c,9,80,0,
2,14400,Note_off_c,9,81,0,
2,14400,Note_off_c,9,82,0,
2,14400,Note_off_c,9,87,0,
2,14400,Note_off_c,9,88,0,
2,14400,Note_off_c,9,89,0,
2,14400,Note_off_c,9,91,0,
2,14400,Note_off_c,9,93,0,
2,14430,Note_off_c,9,35,0,
2,14430,Note_off_c,9,36,0,
2,14430,Note_off_c,9,37,0,
2,14430,Note_off_c,9,38,0,
2,14430,Note_off_c,9,39,0,
2,14430,Note_off_c,9,40,0,
2,14430,Note_off_c,9,41,0,
2,14430,Note_off_c,9,42,0,
2,14430,Note_off_c,9,43,0,
2,14430,Note_off_c,9,44,0,
2,14430,Note_off_c,9,45,0,
2,14430,Note_off_c,9,46,0,
2,14430,Note_off_c,9,47,0,
2,14430,Note_off_c,9,48,0,
2,14430,Note_off_c,9,49,0,
2,14430,Note_off_c,9,50,0,
2,14430,Note_off_c,9,51,0,
2,14430,Note_off_c,9,56,0,
2,14430,Note_off_c,9,57,0,
2,14430,Note_off_c,9,59,0,
2,14430,Note_off_c,9,60,0,
2,14430,Note_off_c,9,61,0,
2,14430,Note_off_c,9,63,0,
2,14430,Note_off_c,9,68,0,
2,14430,Note_off_c,9,69,0,
2,14430,Note_off_c,9,70,0,
2,14430,Note_off_c,9,76,0,
2,14430,Note_off_c,9,80,0,
2,14430,Note_off_c,9,81,0,
2,14430,Note_off_c,9,82,0,
2,14430,Note_off_c,9,87,0,
2,14430,Note_off_c,9,88,0,
2,14430,Note_off_c,9,89,0,
2,14430,Note_off_c,9,91,0,
2,14430,Note_off_c,9,93,0,
2,14460,Note_off_c,9,35,0,
2,14460,Note_off_c,9,36,0,
2,14460,Note_off_c,9,37,0,
2,14460,Note_off_c,9,38,0,
2,14460,Note_off_c,9,39,0,
2,14460,Note_off_c,9,40,0,
2,14460,Note_off_c,9,41,0,
2,14460,Note_off_c,9,42,0,
2,14460,Note_off_c,9,43,0,
2,14460,Note_off_c,9,44,0,
2,14460,Note_off_c,9,45,0,
2,14460,Note_off_c,9,46,0,
2,14460,Note_off_c,9,47,0,
2,14460,Note_off_c,9,48,0,
2,14460,Note_off_c,9,49,0,
2,14460,Note_off_c,9,50,0,
2,14460,Note_off_c,9,51,0,
2,14460,Note_off_c,9,56,0,
2,14460,Note_off_c,9,57,0,
2,14460,Note_off_c,9,59,0,
2,14460,Note_off_c,9,60,0,
2,14460,Note_off_c,9,61,0,
2,14460,Note_off_c,9,63,0,
2,14460,Note_off_c,9,68,0,
2,14460,Note_off_c,9,69,0,
2,14460,Note_off_c,9,70,0,
2,14460,Note_off_c,9,76,0,
2,14460,Note_off_c,9,80,0,
2,14460,Note_off_c,9,81,0,
2,14460,Note_off_c,9,82,0,
2,14460,Note_off_c,9,87,0,
2,14460,Note_off_c,9,88,0,
2,14460,Note_off_c,9,89,0,
2,14460,Note_off_c,9,91,0,
2,14460,Note_off_c,9,93,0,
2,14490,Note_off_c,9,35,0,
2,14490,Note_off_c,9,36,0,
2,14490,Note_off_c,9,37,0,
2,14490,Note_off_c,9,38,0,
2,14490,Note_off_c,9,39,0,
2,14490,Note_off_c,9,40,0,
2,14490,Note_off_c,9,41,0,
2,14490,Note_off_c,9,42,0,
2,14490,Note_off_c,9,43,0,
2,14490,Note_off_c,9,44,0,
2,14490,Note_off_c,9,45,0,
2,14490,Note_off_c,9,46,0,
2,14490,Note_off_c,9,47,0,
2,14490,Note_off_c,9,48,0,
2,14490,Note_off_c,9,49,0,
2,14490,Note_off_c,9,50,0,
2,14490,Note_off_c,9,51,0,
2,14490,Note_off_c,9,56,0,
2,14490,Note_off_c,9,57,0,
2,14490,Note_off_c,9,59,0,
2,14490,Note_off_c,9,60,0,
2,14490,Note_off_c,9,61,0,
2,14490,Note_off_c,9,63,0,
2,14490,Note_off_c,9,68,0,
2,14490,Note_off_c,9,69,0,
2,14490,Note_off_c,9,70,0,
2,14490,Note_off_c,9,76,0,
2,14490,Note_off_c,9,80,0,
2,14490,Note_off_c,9,81,0,
2,14490,Note_off_c,9,82,0,
2,14490,Note_off_c,9,87,0,
2,14490,Note_off_c,9,88,0,
2,14490,Note_off_c,9,89,0,
2,14490,Note_off_c,9,91,0,
2,14490,Note_off_c,9,93,0,
2,14520,Note_off_c,9,35,0,
2,14520,Note_off_c,9,36,0,
2,14520,Note_off_c,9,37,0,
2,14520,Note_off_c,9,38,0,
2,14520,Note_off_c,9,39,0,
2,14520,Note_off_c,9,40,0,
2,14520,Note_off_c,9,41,0,
2,14520,Note_off_c,9,42,0,
2,14520,Note_off_c,9,43,0,
2,14520,Note_off_c,9,44,0,
2,14520,Note_off_c,9,45,0,
2,14520,Note_off_c,9,46,0,
2,14520,Note_off_c,9,47,0,
2,14520,Note_off_c,9,48,0,
2,14520,Note_off_c,9,49,0,
2,14520,Note_off_c,9,50,0,
2,14520,Note_off_c,9,51,0,
2,14520,Note_off_c,9,56,0,
2,14520,Note_off_c,9,57,0,
2,14520,Note_off_c,9,59,0,
2,14520,Note_off_c,9,60,0,
2,14520,Note_off_c,9,61,0,
2,14520,Note_off_c,9,63,0,
2,14520,Note_off_c,9,68,0,
2,14520,Note_off_c,9,69,0,
2,14520,Note_off_c,9,70,0,
2,14520,Note_off_c,9,76,0,
2,14520,Note_off_c,9,80,0,
2,14520,Note_off_c,9,81,0,
2,14520,Note_off_c,9,82,0,
2,14520,Note_off_c,9,87,0,
2,14520,Note_off_c,9,88,0,
2,14520,Note_off_c,9,89,0,
2,14520,Note_off_c,9,91,0,
2,14520,Note_off_c,9,93,0,
2,14550,Note_off_c,9,35,0,
2,14550,Note_off_c,9,36,0,
2,14550,Note_off_c,9,37,0,
2,14550,Note_off_c,9,38,0,
2,14550,Note_off_c,9,39,0,
2,14550,Note_off_c,9,40,0,
2,14550,Note_off_c,9,41,0,
2,14550,Note_off_c,9,42,0,
2,14550,Note_off_c,9,43,0,
2,14550,Note_off_c,9,44,0,
2,14550,Note_off_c,9,45,0,
2,14550,Note_off_c,9,46,0,
2,14550,Note_off_c,9,47,0,
2,14550,Note_off_c,9,48,0,
2,14550,Note_off_c,9,49,0,
2,14550,Note_off_c,9,50,0,
2,14550,Note_off_c,9,51,0,
2,14550,Note_off_c,9,56,0,
2,14550,Note_off_c,9,57,0,
2,14550,Note_off_c,9,59,0,
2,14550,Note_off_c,9,60,0,
2,14550,Note_off_c,9,61,0,
2,14550,Note_off_c,9,63,0,
2,14550,Note_off_c,9,68,0,
2,14550,Note_off_c,9,69,0,
2,14550,Note_off_c,9,70,0,
2,14550,Note_off_c,9,76,0,
2,14550,Note_off_c,9,80,0,
2,14550,Note_off_c,9,81,0,
2,14550,Note_off_c,9,82,0,
2,14550,Note_off_c,9,87,0,
2,14550,Note_off_c,9,88,0,
2,14550,Note_off_c,9,89,0,
2,14550,Note_off_c,9,91,0,
2,14550,Note_off_c,9,93,0,
2,14580,Note_off_c,9,35,0,
2,14580,Note_off_c,9,36,0,
2,14580,Note_off_c,9,37,0,
2,14580,Note_off_c,9,38,0,
2,14580,Note_off_c,9,39,0,
2,14580,Note_off_c,9,40,0,
2,14580,Note_off_c,9,41,0,
2,14580,Note_off_c,9,42,0,
2,14580,Note_off_c,9,43,0,
2,14580,Note_off_c,9,44,0,
2,14580,Note_off_c,9,45,0,
2,14580,Note_off_c,9,46,0,
2,14580,Note_off_c,9,47,0,
2,14580,Note_off_c,9,48,0,
2,14580,Note_off_c,9,49,0,
2,14580,Note_off_c,9,50,0,
2,14580,Note_off_c,9,51,0,
2,14580,Note_off_c,9,56,0,
2,14580,Note_off_c,9,57,0,
2,14580,Note_off_c,9,59,0,
2,14580,Note_off_c,9,60,0,
2,14580,Note_off_c,9,61,0,
2,14580,Note_off_c,9,63,0,
2,14580,Note_off_c,9,68,0,
2,14580,Note_off_c,9,69,0,
2,14580,Note_off_c,9,70,0,
2,14580,Note_off_c,9,76,0,
2,14580,Note_off_c,9,80,0,
2,14580,Note_off_c,9,81,0,
2,14580,Note_off_c,9,82,0,
2,14580,Note_off_c,9,87,0,
2,14580,Note_off_c,9,88,0,
2,14580,Note_off_c,9,89,0,
2,14580,Note_off_c,9,91,0,
2,14580,Note_off_c,9,93,0,
2,14610,Note_off_c,9,35,0,
2,14610,Note_off_c,9,36,0,
2,14610,Note_off_c,9,37,0,
2,14610,Note_off_c,9,38,0,
2,14610,Note_off_c,9,39,0,
2,14610,Note_off_c,9,40,0,
2,14610,Note_off_c,9,41,0,
2,14610,Note_off_c,9,42,0,
2,14610,Note_off_c,9,43,0,
2,14610,Note_off_c,9,44,0,
2,14610,Note_off_c,9,45,0,
2,14610,Note_off_c,9,46,0,
2,14610,Note_off_c,9,47,0,
2,14610,Note_off_c,9,48,0,
2,14610,Note_off_c,9,49,0,
2,14610,Note_off_c,9,50,0,
2,14610,Note_off_c,9,51,0,
2,14610,Note_off_c,9,56,0,
2,14610,Note_off_c,9,57,0,
2,14610,Note_off_c,9,59,0,
2,14610,Note_off_c,9,60,0,
2,14610,Note_off_c,9,61,0,
2,14610,Note_off_c,9,63,0,
2,14610,Note_off_c,9,68,0,
2,14610,Note_off_c,9,69,0,
2,14610,Note_off_c,9,70,0,
2,14610,Note_off_c,9,76,0,
2,14610,Note_off_c,9,80,0,
2,14610,Note_off_c,9,81,0,
2,14610,Note_off_c,9,82,0,
2,14610,Note_off_c,9,87,0,
2,14610,Note_off_c,9,88,0,
2,14610,Note_off_c,9,89,0,
2,14610,Note_off_c,9,91,0,
2,14610,Note_off_c,9,93,0,
2,14640,Note_off_c,9,35,0,
2,14640,Note_off_c,9,36,0,
2,14640,Note_off_c,9,37,0,
2,14640,Note_off_c,9,38,0,
2,14640,Note_off_c,9,39,0,
2,14640,Note_off_c,9,40,0,
2,14640,Note_off_c,9,41,0,
2,14640,Note_off_c,9,42,0,
2,14640,Note_off_c,9,43,0,
2,14640,Note_off_c,9,44,0,
2,14640,Note_off_c,9,45,0,
2,14640,Note_off_c,9,46,0,
2,14640,Note_off_c,9,47,0,
2,14640,Note_off_c,9,48,0,
2,14640,Note_off_c,9,49,0,
2,14640,Note_off_c,9,50,0,
2,14640,Note_off_c,9,51,0,
2,14640,Note_off_c,9,56,0,
2,14640,Note_off_c,9,57,0,
2,14640,Note_off_c,9,59,0,
2,14640,Note_off_c,9,60,0,
2,14640,Note_off_c,9,61,0,
2,14640,Note_off_c,9,63,0,
2,14640,Note_off_c,9,68,0,
2,14640,Note_off_c,9,69,0,
2,14640,Note_off_c,9,70,0,
2,14640,Note_off_c,9,76,0,
2,14640,Note_off_c,9,80,0,
2,14640,Note_off_c,9,81,0,
2,14640,Note_off_c,9,82,0,
2,14640,Note_off_c,9,87,0,
2,14640,Note_off_c,9,88,0,
2,14640,Note_off_c,9,89,0,
2,14640,Note_off_c,9,91,0,
2,14640,Note_off_c,9,93,0,
2,14670,Note_off_c,9,35,0,
2,14670,Note_off_c,9,36,0,
2,14670,Note_off_c,9,37,0,
2,14670,Note_off_c,9,38,0,
2,14670,Note_off_c,9,39,0,
2,14670,Note_off_c,9,40,0,
2,14670,Note_off_c,9,41,0,
2,14670,Note_off_c,9,42,0,
2,14670,Note_off_c,9,43,0,
2,14670,Note_off_c,9,44,0,
2,14670,Note_off_c,9,45,0,
2,14670,Note_off_c,9,46,0,
2,14670,Note_off_c,9,47,0,
2,14670,Note_off_c,9,48,0,
2,14670,Note_off_c,9,49,0,
2,14670,Note_off_c,9,50,0,
2,14670,Note_off_c,9,51,0,
2,14670,Note_off_c,9,56,0,
2,14670,Note_off_c,9,57,0,
2,14670,Note_off_c,9,59,0,
2,14670,Note_off_c,9,60,0,
2,14670,Note_off_c,9,61,0,
2,14670,Note_off_c,9,63,0,
2,14670,Note_off_c,9,68,0,
2,14670,Note_off_c,9,69,0,
2,14670,Note_off_c,9,70,0,
2,14670,Note_off_c,9,76,0,
2,14670,Note_off_c,9,80,0,
2,14670,Note_off_c,9,81,0,
2,14670,Note_off_c,9,82,0,
2,14670,Note_off_c,9,87,0,
2,14670,Note_off_c,9,88,0,
2,14670,Note_off_c,9,89,0,
2,14670,Note_off_c,9,91,0,
2,14670,Note_off_c,9,93,0,
2,14700,Note_off_c,9,35,0,
2,14700,Note_off_c,9,36,0,
2,14700,Note_off_c,9,37,0,
2,14700,Note_off_c,9,38,0,
2,14700,Note_off_c,9,39,0,
2,14700,Note_off_c,9,40,0,
2,14700,Note_off_c,9,41,0,
2,14700,Note_off_c,9,42,0,
2,14700,Note_off_c,9,43,0,
2,14700,Note_off_c,9,44,0,
2,14700,Note_off_c,9,45,0,
2,14700,Note_off_c,9,46,0,
2,14700,Note_off_c,9,47,0,
2,14700,Note_off_c,9,48,0,
2,14700,Note_off_c,9,49,0,
2,14700,Note_off_c,9,50,0,
2,14700,Note_off_c,9,51,0,
2,14700,Note_off_c,9,56,0,
2,14700,Note_off_c,9,57,0,
2,14700,Note_off_c,9,59,0,
2,14700,Note_off_c,9,60,0,
2,14700,Note_off_c,9,61,0,
2,14700,Note_off_c,9,63,0,
2,14700,Note_off_c,9,68,0,
2,14700,Note_off_c,9,69,0,
2,14700,Note_off_c,9,70,0,
2,14700,Note_off_c,9,76,0,
2,14700,Note_off_c,9,80,0,
2,14700,Note_off_c,9,81,0,
2,14700,Note_off_c,9,82,0,
2,14700,Note_off_c,9,87,0,
2,14700,Note_off_c,9,88,0,
2,14700,Note_off_c,9,89,0,
2,14700,Note_off_c,9,91,0,
2,14700,Note_off_c,9,93,0,
2,14730,Note_off_c,9,35,0,
2,14730,Note_off_c,9,36,0,
2,14730,Note_off_c,9,37,0,
2,14730,Note_off_c,9,38,0,
2,14730,Note_off_c,9,39,0,
2,14730,Note_off_c,9,40,0,
2,14730,Note_off_c,9,41,0,
2,14730,Note_off_c,9,42,0,
2,14730,Note_off_c,9,43,0,
2,14730,Note_off_c,9,44,0,
2,14730,Note_off_c,9,45,0,
2,14730,Note_off_c,9,46,0,
2,14730,Note_off_c,9,47,0,
2,14730,Note_off_c,9,48,0,
2,14730,Note_off_c,9,49,0,
2,14730,Note_off_c,9,50,0,
2,14730,Note_off_c,9,51,0,
2,14730,Note_off_c,9,56,0,
2,14730,Note_off_c,9,57,0,
2,14730,Note_off_c,9,59,0,
2,14730,Note_off_c,9,60,0,
2,14730,Note_off_c,9,61,0,
2,14730,Note_off_c,9,63,0,
2,14730,Note_off_c,9,68,0,
2,14730,Note_off_c,9,69,0,
2,14730,Note_off_c,9,70,0,
2,14730,Note_off_c,9,76,0,
2,14730,Note_off_c,9,80,0,
2,14730,Note_off_c,9,81,0,
2,14730,Note_off_c,9,82,0,
2,14730,Note_off_c,9,87,0,
2,14730,Note_off_c,9,88,0,
2,14730,Note_off_c,9,89,0,
2,14730,Note_off_c,9,91,0,
2,14730,Note_off_c,9,93,0,
2,14760,Note_off_c,9,35,0,
2,14760,Note_off_c,9,36,0,
2,14760,Note_off_c,9,37,0,
2,14760,Note_off_c,9,38,0,
2,14760,Note_off_c,9,39,0,
2,14760,Note_off_c,9,40,0,
2,14760,Note_off_c,9,41,0,
2,14760,Note_off_c,9,42,0,
2,14760,Note_off_c,9,43,0,
2,14760,Note_off_c,9,44,0,
2,14760,Note_off_c,9,45,0,
2,14760,Note_off_c,9,46,0,
2,14760,Note_off_c,9,47,0,
2,14760,Note_off_c,9,48,0,
2,14760,Note_off_c,9,49,0,
2,14760,Note_off_c,9,50,0,
2,14760,Note_off_c,9,51,0,
2,14760,Note_off_c,9,56,0,
2,14760,Note_off_c,9,57,0,
2,14760,Note_off_c,9,59,0,
2,14760,Note_off_c,9,60,0,
2,14760,Note_off_c,9,61,0,
2,14760,Note_off_c,9,63,0,
2,14760,Note_off_c,9,68,0,
2,14760,Note_off_c,9,69,0,
2,14760,Note_off_c,9,70,0,
2,14760,Note_off_c,9,76,0,
2,14760,Note_off_c,9,80,0,
2,14760,Note_off_c,9,81,0,
2,14760,Note_off_c,9,82,0,
2,14760,Note_off_c,9,87,0,
2,14760,Note_off_c,9,88,0,
2,14760,Note_off_c,9,89,0,
2,14760,Note_off_c,9,91,0,
2,14760,Note_off_c,9,93,0,
2,14790,Note_off_c,9,35,0,
2,14790,Note_off_c,9,36,0,
2,14790,Note_off_c,9,37,0,
2,14790,Note_off_c,9,38,0,
2,14790,Note_off_c,9,39,0,
2,14790,Note_off_c,9,40,0,
2,14790,Note_off_c,9,41,0,
2,14790,Note_off_c,9,42,0,
2,14790,Note_off_c,9,43,0,
2,14790,Note_off_c,9,44,0,
2,14790,Note_off_c,9,45,0,
2,14790,Note_off_c,9,46,0,
2,14790,Note_off_c,9,47,0,
2,14790,Note_off_c,9,48,0,
2,14790,Note_off_c,9,49,0,
2,14790,Note_off_c,9,50,0,
2,14790,Note_off_c,9,51,0,
2,14790,Note_off_c,9,56,0,
2,14790,Note_off_c,9,57,0,
2,14790,Note_off_c,9,59,0,
2,14790,Note_off_c,9,60,0,
2,14790,Note_off_c,9,61,0,
2,14790,Note_off_c,9,63,0,
2,14790,Note_off_c,9,68,0,
2,14790,Note_off_c,9,69,0,
2,14790,Note_off_c,9,70,0,
2,14790,Note_off_c,9,76,0,
2,14790,Note_off_c,9,80,0,
2,14790,Note_off_c,9,81,0,
2,14790,Note_off_c,9,82,0,
2,14790,Note_off_c,9,87,0,
2,14790,Note_off_c,9,88,0,
2,14790,Note_off_c,9,89,0,
2,14790,Note_off_c,9,91,0,
2,14790,Note_off_c,9,93,0,
2,14820,Note_off_c,9,35,0,
2,14820,Note_off_c,9,36,0,
2,14820,Note_off_c,9,37,0,
2,14820,Note_off_c,9,38,0,
2,14820,Note_off_c,9,39,0,
2,14820,Note_off_c,9,40,0,
2,14820,Note_off_c,9,41,0,
2,14820,Note_off_c,9,42,0,
2,14820,Note_off_c,9,43,0,
2,14820,Note_off_c,9,44,0,
2,14820,Note_off_c,9,45,0,
2,14820,Note_off_c,9,46,0,
2,14820,Note_off_c,9,47,0,
2,14820,Note_off_c,9,48,0,
2,14820,Note_off_c,9,49,0,
2,14820,Note_off_c,9,50,0,
2,14820,Note_off_c,9,51,0,
2,14820,Note_off_c,9,56,0,
2,14820,Note_off_c,9,57,0,
2,14820,Note_off_c,9,59,0,
2,14820,Note_off_c,9,60,0,
2,14820,Note_off_c,9,61,0,
2,14820,Note_off_c,9,63,0,
2,14820,Note_off_c,9,68,0,
2,14820,Note_off_c,9,69,0,
2,14820,Note_off_c,9,70,0,
2,14820,Note_off_c,9,76,0,
2,14820,Note_off_c,9,80,0,
2,14820,Note_off_c,9,81,0,
2,14820,Note_off_c,9,82,0,
2,14820,Note_off_c,9,87,0,
2,14820,Note_off_c,9,88,0,
2,14820,Note_off_c,9,89,0,
2,14820,Note_off_c,9,91,0,
2,14820,Note_off_c,9,93,0,
2,14850,Note_off_c,9,35,0,
2,14850,Note_off_c,9,36,0,
2,14850,Note_off_c,9,37,0,
2,14850,Note_off_c,9,38,0,
2,14850,Note_off_c,9,39,0,
2,14850,Note_off_c,9,40,0,
2,14850,Note_off_c,9,41,0,
2,14850,Note_off_c,9,42,0,
2,14850,Note_off_c,9,43,0,
2,14850,Note_off_c,9,44,0,
2,14850,Note_off_c,9,45,0,
2,14850,Note_off_c,9,46,0,
2,14850,Note_off_c,9,47,0,
2,14850,Note_off_c,9,48,0,
2,14850,Note_off_c,9,49,0,
2,14850,Note_off_c,9,50,0,
2,14850,Note_off_c,9,51,0,
2,14850,Note_off_c,9,56,0,
2,14850,Note_off_c,9,57,0,
2,14850,Note_off_c,9,59,0,
2,14850,Note_off_c,9,60,0,
2,14850,Note_off_c,9,61,0,
2,14850,Note_off_c,9,63,0,
2,14850,Note_off_c,9,68,0,
2,14850,Note_off_c,9,69,0,
2,14850,Note_off_c,9,70,0,
2,14850,Note_off_c,9,76,0,
2,14850,Note_off_c,9,80,0,
2,14850,Note_off_c,9,81,0,
2,14850,Note_off_c,9,82,0,
2,14850,Note_off_c,9,87,0,
2,14850,Note_off_c,9,88,0,
2,14850,Note_off_c,9,89,0,
2,14850,Note_off_c,9,91,0,
2,14850,Note_off_c,9,93,0,
2,14880,Note_off_c,9,35,0,
2,14880,Note_off_c,9,36,0,
2,14880,Note_off_c,9,37,0,
2,14880,Note_off_c,9,38,0,
2,14880,Note_off_c,9,39,0,
2,14880,Note_off_c,9,40,0,
2,14880,Note_off_c,9,41,0,
2,14880,Note_off_c,9,42,0,
2,14880,Note_off_c,9,43,0,
2,14880,Note_off_c,9,44,0,
2,14880,Note_off_c,9,45,0,
2,14880,Note_off_c,9,46,0,
2,14880,Note_off_c,9,47,0,
2,14880,Note_off_c,9,48,0,
2,14880,Note_off_c,9,49,0,
2,14880,Note_off_c,9,50,0,
2,14880,Note_off_c,9,51,0,
2,14880,Note_off_c,9,56,0,
2,14880,Note_off_c,9,57,0,
2,14880,Note_off_c,9,59,0,
2,14880,Note_off_c,9,60,0,
2,14880,Note_off_c,9,61,0,
2,14880,Note_off_c,9,63,0,
2,14880,Note_off_c,9,68,0,
2,14880,Note_off_c,9,69,0,
2,14880,Note_off_c,9,70,0,
2,14880,Note_off_c,9,76,0,
2,14880,Note_off_c,9,80,0,
2,14880,Note_off_c,9,81,0,
2,14880,Note_off_c,9,82,0,
2,14880,Note_off_c,9,87,0,
2,14880,Note_off_c,9,88,0,
2,14880,Note_off_c,9,89,0,
2,14880,Note_off_c,9,91,0,
2,14880,Note_off_c,9,93,0,
2,14910,Note_off_c,9,35,0,
2,14910,Note_off_c,9,36,0,
2,14910,Note_off_c,9,37,0,
2,14910,Note_off_c,9,38,0,
2,14910,Note_off_c,9,39,0,
2,14910,Note_off_c,9,40,0,
2,14910,Note_off_c,9,41,0,
2,14910,Note_off_c,9,42,0,
2,14910,Note_off_c,9,43,0,
2,14910,Note_off_c,9,44,0,
2,14910,Note_off_c,9,45,0,
2,14910,Note_off_c,9,46,0,
2,14910,Note_off_c,9,47,0,
2,14910,Note_off_c,9,48,0,
2,14910,Note_off_c,9,49,0,
2,14910,Note_off_c,9,50,0,
2,14910,Note_off_c,9,51,0,
2,14910,Note_off_c,9,56,0,
2,14910,Note_off_c,9,57,0,
2,14910,Note_off_c,9,59,0,
2,14910,Note_off_c,9,60,0,
2,14910,Note_off_c,9,61,0,
2,14910,Note_off_c,9,63,0,
2,14910,Note_off_c,9,68,0,
2,14910,Note_off_c,9,69,0,
2,14910,Note_off_c,9,70,0,
2,14910,Note_off_c,9,76,0,
2,14910,Note_off_c,9,80,0,
2,14910,Note_off_c,9,81,0,
2,14910,Note_off_c,9,82,0,
2,14910,Note_off_c,9,87,0,
2,14910,Note_off_c,9,88,0,
2,14910,Note_off_c,9,89,0,
2,14910,Note_off_c,9,91,0,
2,14910,Note_off_c,9,93,0,
2,14940,Note_off_c,9,35,0,
2,14940,Note_off_c,9,36,0,
2,14940,Note_off_c,9,37,0,
2,14940,Note_off_c,9,38,0,
2,14940,Note_off_c,9,39,0,
2,14940,Note_off_c,9,40,0,
2,14940,Note_off_c,9,41,0,
2,14940,Note_off_c,9,42,0,
2,14940,Note_off_c,9,43,0,
2,14940,Note_off_c,9,44,0,
2,14940,Note_off_c,9,45,0,
2,14940,Note_off_c,9,46,0,
2,14940,Note_off_c,9,47,0,
2,14940,Note_off_c,9,48,0,
2,14940,Note_off_c,9,49,0,
2,14940,Note_off_c,9,50,0,
2,14940,Note_off_c,9,51,0,
2,14940,Note_off_c,9,56,0,
2,14940,Note_off_c,9,57,0,
2,14940,Note_off_c,9,59,0,
2,14940,Note_off_c,9,60,0,
2,14940,Note_off_c,9,61,0,
2,14940,Note_off_c,9,63,0,
2,14940,Note_off_c,9,68,0,
2,14940,Note_off_c,9,69,0,
2,14940,Note_off_c,9,70,0,
2,14940,Note_off_c,9,76,0,
2,14940,Note_off_c,9,80,0,
2,14940,Note_off_c,9,81,0,
2,14940,Note_off_c,9,82,0,
2,14940,Note_off_c,9,87,0,
2,14940,Note_off_c,9,88,0,
2,14940,Note_off_c,9,89,0,
2,14940,Note_off_c,9,91,0,
2,14940,Note_off_c,9,93,0,
2,14970,Note_off_c,9,35,0,
2,14970,Note_off_c,9,36,0,
2,14970,Note_off_c,9,37,0,
2,14970,Note_off_c,9,38,0,
2,14970,Note_off_c,9,39,0,
2,14970,Note_off_c,9,40,0,
2,14970,Note_off_c,9,41,0,
2,14970,Note_off_c,9,42,0,
2,14970,Note_off_c,9,43,0,
2,14970,Note_off_c,9,44,0,
2,14970,Note_off_c,9,45,0,
2,14970,Note_off_c,9,46,0,
2,14970,Note_off_c,9,47,0,
2,14970,Note_off_c,9,48,0,
2,14970,Note_off_c,9,49,0,
2,14970,Note_off_c,9,50,0,
2,14970,Note_off_c,9,51,0,
2,14970,Note_off_c,9,56,0,
2,14970,Note_off_c,9,57,0,
2,14970,Note_off_c,9,59,0,
2,14970,Note_off_c,9,60,0,
2,14970,Note_off_c,9,61,0,
2,14970,Note_off_c,9,63,0,
2,14970,Note_off_c,9,68,0,
2,14970,Note_off_c,9,69,0,
2,14970,Note_off_c,9,70,0,
2,14970,Note_off_c,9,76,0,
2,14970,Note_off_c,9,80,0,
2,14970,Note_off_c,9,81,0,
2,14970,Note_off_c,9,82,0,
2,14970,Note_off_c,9,87,0,
2,14970,Note_off_c,9,88,0,
2,14970,Note_off_c,9,89,0,
2,14970,Note_off_c,9,91,0,
2,14970,Note_off_c,9,93,0,
2,15000,Note_off_c,9,35,0,
2,15000,Note_off_c,9,36,0,
2,15000,Note_off_c,9,37,0,
2,15000,Note_off_c,9,38,0,
2,15000,Note_off_c,9,39,0,
2,15000,Note_off_c,9,40,0,
2,15000,Note_off_c,9,41,0,
2,15000,Note_off_c,9,42,0,
2,15000,Note_off_c,9,43,0,
2,15000,Note_off_c,9,44,0,
2,15000,Note_off_c,9,45,0,
2,15000,Note_off_c,9,46,0,
2,15000,Note_off_c,9,47,0,
2,15000,Note_off_c,9,48,0,
2,15000,Note_off_c,9,49,0,
2,15000,Note_off_c,9,50,0,
2,15000,Note_off_c,9,51,0,
2,15000,Note_off_c,9,56,0,
2,15000,Note_off_c,9,57,0,
2,15000,Note_off_c,9,59,0,
2,15000,Note_off_c,9,60,0,
2,15000,Note_off_c,9,61,0,
2,15000,Note_off_c,9,63,0,
2,15000,Note_off_c,9,68,0,
2,15000,Note_off_c,9,69,0,
2,15000,Note_off_c,9,70,0,
2,15000,Note_off_c,9,76,0,
2,15000,Note_off_c,9,80,0,
2,15000,Note_off_c,9,81,0,
2,15000,Note_off_c,9,82,0,
2,15000,Note_off_c,9,87,0,
2,15000,Note_off_c,9,88,0,
2,15000,Note_off_c,9,89,0,
2,15000,Note_off_c,9,91,0,
2,15000,Note_off_c,9,93,0,
2,15030,Note_off_c,9,35,0,
2,15030,Note_off_c,9,36,0,
2,15030,Note_off_c,9,37,0,
2,15030,Note_off_c,9,38,0,
2,15030,Note_off_c,9,39,0,
2,15030,Note_off_c,9,40,0,
2,15030,Note_off_c,9,41,0,
2,15030,Note_off_c,9,42,0,
2,15030,Note_off_c,9,43,0,
2,15030,Note_off_c,9,44,0,
2,15030,Note_off_c,9,45,0,
2,15030,Note_off_c,9,46,0,
2,15030,Note_off_c,9,47,0,
2,15030,Note_off_c,9,48,0,
2,15030,Note_off_c,9,49,0,
2,15030,Note_off_c,9,50,0,
2,15030,Note_off_c,9,51,0,
2,15030,Note_off_c,9,56,0,
2,15030,Note_off_c,9,57,0,
2,15030,Note_off_c,9,59,0,
2,15030,Note_off_c,9,60,0,
2,15030,Note_off_c,9,61,0,
2,15030,Note_off_c,9,63,0,
2,15030,Note_off_c,9,68,0,
2,15030,Note_off_c,9,69,0,
2,15030,Note_off_c,9,70,0,
2,15030,Note_off_c,9,76,0,
2,15030,Note_off_c,9,80,0,
2,15030,Note_off_c,9,81,0,
2,15030,Note_off_c,9,82,0,
2,15030,Note_off_c,9,87,0,
2,15030,Note_off_c,9,88,0,
2,15030,Note_off_c,9,89,0,
2,15030,Note_off_c,9,91,0,
2,15030,Note_off_c,9,93,0,
2,15060,Note_off_c,9,35,0,
2,15060,Note_off_c,9,36,0,
2,15060,Note_off_c,9,37,0,
2,15060,Note_off_c,9,38,0,
2,15060,Note_off_c,9,39,0,
2,15060,Note_off_c,9,40,0,
2,15060,Note_off_c,9,41,0,
2,15060,Note_off_c,9,42,0,
2,15060,Note_off_c,9,43,0,
2,15060,Note_off_c,9,44,0,
2,15060,Note_off_c,9,45,0,
2,15060,Note_off_c,9,46,0,
2,15060,Note_off_c,9,47,0,
2,15060,Note_off_c,9,48,0,
2,15060,Note_off_c,9,49,0,
2,15060,Note_off_c,9,50,0,
2,15060,Note_off_c,9,51,0,
2,15060,Note_off_c,9,56,0,
2,15060,Note_off_c,9,57,0,
2,15060,Note_off_c,9,59,0,
2,15060,Note_off_c,9,60,0,
2,15060,Note_off_c,9,61,0,
2,15060,Note_off_c,9,63,0,
2,15060,Note_off_c,9,68,0,
2,15060,Note_off_c,9,69,0,
2,15060,Note_off_c,9,70,0,
2,15060,Note_off_c,9,76,0,
2,15060,Note_off_c,9,80,0,
2,15060,Note_off_c,9,81,0,
2,15060,Note_off_c,9,82,0,
2,15060,Note_off_c,9,87,0,
2,15060,Note_off_c,9,88,0,
2,15060,Note_off_c,9,89,0,
2,15060,Note_off_c,9,91,0,
2,15060,Note_off_c,9,93,0,
2,15090,Note_off_c,9,35,0,
2,15090,Note_off_c,9,36,0,
2,15090,Note_off_c,9,37,0,
2,15090,Note_off_c,9,38,0,
2,15090,Note_off_c,9,39,0,
2,15090,Note_off_c,9,40,0,
2,15090,Note_off_c,9,41,0,
2,15090,Note_off_c,9,42,0,
2,15090,Note_off_c,9,43,0,
2,15090,Note_off_c,9,44,0,
2,15090,Note_off_c,9,45,0,
2,15090,Note_off_c,9,46,0,
2,15090,Note_off_c,9,47,0,
2,15090,Note_off_c,9,48,0,
2,15090,Note_off_c,9,49,0,
2,15090,Note_off_c,9,50,0,
2,15090,Note_off_c,9,51,0,
2,15090,Note_off_c,9,56,0,
2,15090,Note_off_c,9,57,0,
2,15090,Note_off_c,9,59,0,
2,15090,Note_off_c,9,60,0,
2,15090,Note_off_c,9,61,0,
2,15090,Note_off_c,9,63,0,
2,15090,Note_off_c,9,68,0,
2,15090,Note_off_c,9,69,0,
2,15090,Note_off_c,9,70,0,
2,15090,Note_off_c,9,76,0,
2,15090,Note_off_c,9,80,0,
2,15090,Note_off_c,9,81,0,
2,15090,Note_off_c,9,82,0,
2,15090,Note_off_c,9,87,0,
2,15090,Note_off_c,9,88,0,
2,15090,Note_off_c,9,89,0,
2,15090,Note_off_c,9,91,0,
2,15090,Note_off_c,9,93,0,
2,15120,Note_off_c,9,35,0,
2,15120,Note_off_c,9,36,0,
2,15120,Note_off_c,9,37,0,
2,15120,Note_off_c,9,38,0,
2,15120,Note_off_c,9,39,0,
2,15120,Note_off_c,9,40,0,
2,15120,Note_off_c,9,41,0,
2,15120,Note_off_c,9,42,0,
2,15120,Note_off_c,9,43,0,
2,15120,Note_off_c,9,44,0,
2,15120,Note_off_c,9,45,0,
2,15120,Note_off_c,9,46,0,
2,15120,Note_off_c,9,47,0,
2,15120,Note_off_c,9,48,0,
2,15120,Note_off_c,9,49,0,
2,15120,Note_off_c,9,50,0,
2,15120,Note_off_c,9,51,0,
2,15120,Note_off_c,9,56,0,
2,15120,Note_off_c,9,57,0,
2,15120,Note_off_c,9,59,0,
2,15120,Note_off_c,9,60,0,
2,15120,Note_off_c,9,61,0,
2,15120,Note_off_c,9,63,0,
2,15120,Note_off_c,9,68,0,
2,15120,Note_off_c,9,69,0,
2,15120,Note_off_c,9,70,0,
2,15120,Note_off_c,9,76,0,
2,15120,Note_off_c,9,80,0,
2,15120,Note_off_c,9,81,0,
2,15120,Note_off_c,9,82,0,
2,15120,Note_off_c,9,87,0,
2,15120,Note_off_c,9,88,0,
2,15120,Note_off_c,9,89,0,
2,15120,Note_off_c,9,91,0,
2,15120,Note_off_c,9,93,0,
2,15150,Note_off_c,9,35,0,
2,15150,Note_off_c,9,36,0,
2,15150,Note_off_c,9,37,0,
2,15150,Note_off_c,9,38,0,
2,15150,Note_off_c,9,39,0,
2,15150,Note_off_c,9,40,0,
2,15150,Note_off_c,9,41,0,
2,15150,Note_off_c,9,42,0,
2,15150,Note_off_c,9,43,0,
2,15150,Note_off_c,9,44,0,
2,15150,Note_off_c,9,45,0,
2,15150,Note_off_c,9,46,0,
2,15150,Note_off_c,9,47,0,
2,15150,Note_off_c,9,48,0,
2,15150,Note_off_c,9,49,0,
2,15150,Note_off_c,9,50,0,
2,15150,Note_off_c,9,51,0,
2,15150,Note_off_c,9,56,0,
2,15150,Note_off_c,9,57,0,
2,15150,Note_off_c,9,59,0,
2,15150,Note_off_c,9,60,0,
2,15150,Note_off_c,9,61,0,
2,15150,Note_off_c,9,63,0,
2,15150,Note_off_c,9,68,0,
2,15150,Note_off_c,9,69,0,
2,15150,Note_off_c,9,70,0,
2,15150,Note_off_c,9,76,0,
2,15150,Note_off_c,9,80,0,
2,15150,Note_off_c,9,81,0,
2,15150,Note_off_c,9,82,0,
2,15150,Note_off_c,9,87,0,
2,15150,Note_off_c,9,88,0,
2,15150,Note_off_c,9,89,0,
2,15150,Note_off_c,9,91,0,
2,15150,Note_off_c,9,93,0,
2,15180,Note_off_c,9,35,0,
2,15180,Note_off_c,9,36,0,
2,15180,Note_off_c,9,37,0,
2,15180,Note_off_c,9,38,0,
2,15180,Note_off_c,9,39,0,
2,15180,Note_off_c,9,40,0,
2,15180,Note_off_c,9,41,0,
2,15180,Note_off_c,9,42,0,
2,15180,Note_off_c,9,43,0,
2,15180,Note_off_c,9,44,0,
2,15180,Note_off_c,9,45,0,
2,15180,Note_off_c,9,46,0,
2,15180,Note_off_c,9,47,0,
2,15180,Note_off_c,9,48,0,
2,15180,Note_off_c,9,49,0,
2,15180,Note_off_c,9,50,0,
2,15180,Note_off_c,9,51,0,
2,15180,Note_off_c,9,56,0,
2,15180,Note_off_c,9,57,0,
2,15180,Note_off_c,9,59,0,
2,15180,Note_off_c,9,60,0,
2,15180,Note_off_c,9,61,0,
2,15180,Note_off_c,9,63,0,
2,15180,Note_off_c,9,68,0,
2,15180,Note_off_c,9,69,0,
2,15180,Note_off_c,9,70,0,
2,15180,Note_off_c,9,76,0,
2,15180,Note_off_c,9,80,0,
2,15180,Note_off_c,9,81,0,
2,15180,Note_off_c,9,82,0,
2,15180,Note_off_c,9,87,0,
2,15180,Note_off_c,9,88,0,
2,15180,Note_off_c,9,89,0,
2,15180,Note_off_c,9,91,0,
2,15180,Note_off_c,9,93,0,
2,15210,Note_off_c,9,35,0,
2,15210,Note_off_c,9,36,0,
2,15210,Note_off_c,9,37,0,
2,15210,Note_off_c,9,38,0,
2,15210,Note_off_c,9,39,0,
2,15210,Note_off_c,9,40,0,
2,15210,Note_off_c,9,41,0,
2,15210,Note_off_c,9,42,0,
2,15210,Note_off_c,9,43,0,
2,15210,Note_off_c,9,44,0,
2,15210,Note_off_c,9,45,0,
2,15210,Note_off_c,9,46,0,
2,15210,Note_off_c,9,47,0,
2,15210,Note_off_c,9,48,0,
2,15210,Note_off_c,9,49,0,
2,15210,Note_off_c,9,50,0,
2,15210,Note_off_c,9,51,0,
2,15210,Note_off_c,9,56,0,
2,15210,Note_off_c,9,57,0,
2,15210,Note_off_c,9,59,0,
2,15210,Note_off_c,9,60,0,
2,15210,Note_off_c,9,61,0,
2,15210,Note_off_c,9,63,0,
2,15210,Note_off_c,9,68,0,
2,15210,Note_off_c,9,69,0,
2,15210,Note_off_c,9,70,0,
2,15210,Note_off_c,9,76,0,
2,15210,Note_off_c,9,80,0,
2,15210,Note_off_c,9,81,0,
2,15210,Note_off_c,9,82,0,
2,15210,Note_off_c,9,87,0,
2,15210,Note_off_c,9,88,0,
2,15210,Note_off_c,9,89,0,
2,15210,Note_off_c,9,91,0,
2,15210,Note_off_c,9,93,0,
2,15240,Note_off_c,9,35,0,
2,15240,Note_off_c,9,36,0,
2,15240,Note_off_c,9,37,0,
2,15240,Note_off_c,9,38,0,
2,15240,Note_off_c,9,39,0,
2,15240,Note_off_c,9,40,0,
2,15240,Note_off_c,9,41,0,
2,15240,Note_off_c,9,42,0,
2,15240,Note_off_c,9,43,0,
2,15240,Note_off_c,9,44,0,
2,15240,Note_off_c,9,45,0,
2,15240,Note_off_c,9,46,0,
2,15240,Note_off_c,9,47,0,
2,15240,Note_off_c,9,48,0,
2,15240,Note_off_c,9,49,0,
2,15240,Note_off_c,9,50,0,
2,15240,Note_off_c,9,51,0,
2,15240,Note_off_c,9,56,0,
2,15240,Note_off_c,9,57,0,
2,15240,Note_off_c,9,59,0,
2,15240,Note_off_c,9,60,0,
2,15240,Note_off_c,9,61,0,
2,15240,Note_off_c,9,63,0,
2,15240,Note_off_c,9,68,0,
2,15240,Note_off_c,9,69,0,
2,15240,Note_off_c,9,70,0,
2,15240,Note_off_c,9,76,0,
2,15240,Note_off_c,9,80,0,
2,15240,Note_off_c,9,81,0,
2,15240,Note_off_c,9,82,0,
2,15240,Note_off_c,9,87,0,
2,15240,Note_off_c,9,88,0,
2,15240,Note_off_c,9,89,0,
2,15240,Note_off_c,9,91,0,
2,15240,Note_off_c,9,93,0,
2,15270,Note_off_c,9,35,0,
2,15270,Note_off_c,9,36,0,
2,15270,Note_off_c,9,37,0,
2,15270,Note_off_c,9,38,0,
2,15270,Note_off_c,9,39,0,
2,15270,Note_off_c,9,40,0,
2,15270,Note_off_c,9,41,0,
2,15270,Note_off_c,9,42,0,
2,15270,Note_off_c,9,43,0,
2,15270,Note_off_c,9,44,0,
2,15270,Note_off_c,9,45,0,
2,15270,Note_off_c,9,46,0,
2,15270,Note_off_c,9,47,0,
2,15270,Note_off_c,9,48,0,
2,15270,Note_off_c,9,49,0,
2,15270,Note_off_c,9,50,0,
2,15270,Note_off_c,9,51,0,
2,15270,Note_off_c,9,56,0,
2,15270,Note_off_c,9,57,0,
2,15270,Note_off_c,9,59,0,
2,15270,Note_off_c,9,60,0,
2,15270,Note_off_c,9,61,0,
2,15270,Note_off_c,9,63,0,
2,15270,Note_off_c,9,68,0,
2,15270,Note_off_c,9,69,0,
2,15270,Note_off_c,9,70,0,
2,15270,Note_off_c,9,76,0,
2,15270,Note_off_c,9,80,0,
2,15270,Note_off_c,9,81,0,
2,15270,Note_off_c,9,82,0,
2,15270,Note_off_c,9,87,0,
2,15270,Note_off_c,9,88,0,
2,15270,Note_off_c,9,89,0,
2,15270,Note_off_c,9,91,0,
2,15270,Note_off_c,9,93,0,
2,15300,Note_off_c,9,35,0,
2,15300,Note_off_c,9,36,0,
2,15300,Note_off_c,9,37,0,
2,15300,Note_off_c,9,38,0,
2,15300,Note_off_c,9,39,0,
2,15300,Note_off_c,9,40,0,
2,15300,Note_off_c,9,41,0,
2,15300,Note_off_c,9,42,0,
2,15300,Note_off_c,9,43,0,
2,15300,Note_off_c,9,44,0,
2,15300,Note_off_c,9,45,0,
2,15300,Note_off_c,9,46,0,
2,15300,Note_off_c,9,47,0,
2,15300,Note_off_c,9,48,0,
2,15300,Note_off_c,9,49,0,
2,15300,Note_off_c,9,50,0,
2,15300,Note_off_c,9,51,0,
2,15300,Note_off_c,9,56,0,
2,15300,Note_off_c,9,57,0,
2,15300,Note_off_c,9,59,0,
2,15300,Note_off_c,9,60,0,
2,15300,Note_off_c,9,61,0,
2,15300,Note_off_c,9,63,0,
2,15300,Note_off_c,9,68,0,
2,15300,Note_off_c,9,69,0,
2,15300,Note_off_c,9,70,0,
2,15300,Note_off_c,9,76,0,
2,15300,Note_off_c,9,80,0,
2,15300,Note_off_c,9,81,0,
2,15300,Note_off_c,9,82,0,
2,15300,Note_off_c,9,87,0,
2,15300,Note_off_c,9,88,0,
2,15300,Note_off_c,9,89,0,
2,15300,Note_off_c,9,91,0,
2,15300,Note_off_c,9,93,0,
2,15330,Note_off_c,9,35,0,
2,15330,Note_off_c,9,36,0,
2,15330,Note_off_c,9,37,0,
2,15330,Note_off_c,9,38,0,
2,15330,Note_off_c,9,39,0,
2,15330,Note_off_c,9,40,0,
2,15330,Note_off_c,9,41,0,
2,15330,Note_off_c,9,42,0,
2,15330,Note_off_c,9,43,0,
2,15330,Note_off_c,9,44,0,
2,15330,Note_off_c,9,45,0,
2,15330,Note_off_c,9,46,0,
2,15330,Note_off_c,9,47,0,
2,15330,Note_off_c,9,48,0,
2,15330,Note_off_c,9,49,0,
2,15330,Note_off_c,9,50,0,
2,15330,Note_off_c,9,51,0,
2,15330,Note_off_c,9,56,0,
2,15330,Note_off_c,9,57,0,
2,15330,Note_off_c,9,59,0,
2,15330,Note_off_c,9,60,0,
2,15330,Note_off_c,9,61,0,
2,15330,Note_off_c,9,63,0,
2,15330,Note_off_c,9,68,0,
2,15330,Note_off_c,9,69,0,
2,15330,Note_off_c,9,70,0,
2,15330,Note_off_c,9,76,0,
2,15330,Note_off_c,9,80,0,
2,15330,Note_off_c,9,81,0,
2,15330,Note_off_c,9,82,0,
2,15330,Note_off_c,9,87,0,
2,15330,Note_off_c,9,88,0,
2,15330,Note_off_c,9,89,0,
2,15330,Note_off_c,9,91,0,
2,15330,Note_off_c,9,93,0,
2,15360,Note_off_c,9,35,0,
2,15360,Note_off_c,9,36,0,
2,15360,Note_off_c,9,37,0,
2,15360,Note_off_c,9,38,0,
2,15360,Note_off_c,9,39,0,
2,15360,Note_off_c,9,40,0,
2,15360,Note_off_c,9,41,0,
2,15360,Note_off_c,9,42,0,
2,15360,Note_off_c,9,43,0,
2,15360,Note_off_c,9,44,0,
2,15360,Note_off_c,9,45,0,
2,15360,Note_off_c,9,46,0,
2,15360,Note_off_c,9,47,0,
2,15360,Note_off_c,9,48,0,
2,15360,Note_off_c,9,49,0,
2,15360,Note_off_c,9,50,0,
2,15360,Note_off_c,9,51,0,
2,15360,Note_off_c,9,56,0,
2,15360,Note_off_c,9,57,0,
2,15360,Note_off_c,9,59,0,
2,15360,Note_off_c,9,60,0,
2,15360,Note_off_c,9,61,0,
2,15360,Note_off_c,9,63,0,
2,15360,Note_off_c,9,68,0,
2,15360,Note_off_c,9,69,0,
2,15360,Note_off_c,9,70,0,
2,15360,Note_off_c,9,76,0,
2,15360,Note_off_c,9,80,0,
2,15360,Note_off_c,9,81,0,
2,15360,Note_off_c,9,82,0,
2,15360,Note_off_c,9,87,0,
2,15360,Note_off_c,9,88,0,
2,15360,Note_off_c,9,89,0,
2,15360,Note_off_c,9,91,0,
2,15360,Note_off_c,9,93,0,
2,15390,Note_off_c,9,35,0,
2,15390,Note_off_c,9,36,0,
2,15390,Note_off_c,9,37,0,
2,15390,Note_off_c,9,38,0,
2,15390,Note_off_c,9,39,0,
2,15390,Note_off_c,9,40,0,
2,15390,Note_off_c,9,41,0,
2,15390,Note_off_c,9,42,0,
2,15390,Note_off_c,9,43,0,
2,15390,Note_off_c,9,44,0,
2,15390,Note_off_c,9,45,0,
2,15390,Note_off_c,9,46,0,
2,15390,Note_off_c,9,47,0,
2,15390,Note_off_c,9,48,0,
2,15390,Note_off_c,9,49,0,
2,15390,Note_off_c,9,50,0,
2,15390,Note_off_c,9,51,0,
2,15390,Note_off_c,9,56,0,
2,15390,Note_off_c,9,57,0,
2,15390,Note_off_c,9,59,0,
2,15390,Note_off_c,9,60,0,
2,15390,Note_off_c,9,61,0,
2,15390,Note_off_c,9,63,0,
2,15390,Note_off_c,9,68,0,
2,15390,Note_off_c,9,69,0,
2,15390,Note_off_c,9,70,0,
2,15390,Note_off_c,9,76,0,
2,15390,Note_off_c,9,80,0,
2,15390,Note_off_c,9,81,0,
2,15390,Note_off_c,9,82,0,
2,15390,Note_off_c,9,87,0,
2,15390,Note_off_c,9,88,0,
2,15390,Note_off_c,9,89,0,
2,15390,Note_off_c,9,91,0,
2,15390,Note_off_c,9,93,0,
2,15420,Note_off_c,9,35,0,
2,15420,Note_off_c,9,36,0,
2,15420,Note_off_c,9,37,0,
2,15420,Note_off_c,9,38,0,
2,15420,Note_off_c,9,39,0,
2,15420,Note_off_c,9,40,0,
2,15420,Note_off_c,9,41,0,
2,15420,Note_off_c,9,42,0,
2,15420,Note_off_c,9,43,0,
2,15420,Note_off_c,9,44,0,
2,15420,Note_off_c,9,45,0,
2,15420,Note_off_c,9,46,0,
2,15420,Note_off_c,9,47,0,
2,15420,Note_off_c,9,48,0,
2,15420,Note_off_c,9,49,0,
2,15420,Note_off_c,9,50,0,
2,15420,Note_off_c,9,51,0,
2,15420,Note_off_c,9,56,0,
2,15420,Note_off_c,9,57,0,
2,15420,Note_off_c,9,59,0,
2,15420,Note_off_c,9,60,0,
2,15420,Note_off_c,9,61,0,
2,15420,Note_off_c,9,63,0,
2,15420,Note_off_c,9,68,0,
2,15420,Note_off_c,9,69,0,
2,15420,Note_off_c,9,70,0,
2,15420,Note_off_c,9,76,0,
2,15420,Note_off_c,9,80,0,
2,15420,Note_off_c,9,81,0,
2,15420,Note_off_c,9,82,0,
2,15420,Note_off_c,9,87,0,
2,15420,Note_off_c,9,88,0,
2,15420,Note_off_c,9,89,0,
2,15420,Note_off_c,9,91,0,
2,15420,Note_off_c,9,93,0,
2,15450,Note_off_c,9,35,0,
2,15450,Note_off_c,9,36,0,
2,15450,Note_off_c,9,37,0,
2,15450,Note_off_c,9,38,0,
2,15450,Note_off_c,9,39,0,
2,15450,Note_off_c,9,40,0,
2,15450,Note_off_c,9,41,0,
2,15450,Note_off_c,9,42,0,
2,15450,Note_off_c,9,43,0,
2,15450,Note_off_c,9,44,0,
2,15450,Note_off_c,9,45,0,
2,15450,Note_off_c,9,46,0,
2,15450,Note_off_c,9,47,0,
2,15450,Note_off_c,9,48,0,
2,15450,Note_off_c,9,49,0,
2,15450,Note_off_c,9,50,0,
2,15450,Note_off_c,9,51,0,
2,15450,Note_off_c,9,56,0,
2,15450,Note_off_c,9,57,0,
2,15450,Note_off_c,9,59,0,
2,15450,Note_off_c,9,60,0,
2,15450,Note_off_c,9,61,0,
2,15450,Note_off_c,9,63,0,
2,15450,Note_off_c,9,68,0,
2,15450,Note_off_c,9,69,0,
2,15450,Note_off_c,9,70,0,
2,15450,Note_off_c,9,76,0,
2,15450,Note_off_c,9,80,0,
2,15450,Note_off_c,9,81,0,
2,15450,Note_off_c,9,82,0,
2,15450,Note_off_c,9,87,0,
2,15450,Note_off_c,9,88,0,
2,15450,Note_off_c,9,89,0,
2,15450,Note_off_c,9,91,0,
2,15450,Note_off_c,9,93,0,
2,15480,Note_off_c,9,35,0,
2,15480,Note_off_c,9,36,0,
2,15480,Note_off_c,9,37,0,
2,15480,Note_off_c,9,38,0,
2,15480,Note_off_c,9,39,0,
2,15480,Note_off_c,9,40,0,
2,15480,Note_off_c,9,41,0,
2,15480,Note_off_c,9,42,0,
2,15480,Note_off_c,9,43,0,
2,15480,Note_off_c,9,44,0,
2,15480,Note_off_c,9,45,0,
2,15480,Note_off_c,9,46,0,
2,15480,Note_off_c,9,47,0,
2,15480,Note_off_c,9,48,0,
2,15480,Note_off_c,9,49,0,
2,15480,Note_off_c,9,50,0,
2,15480,Note_off_c,9,51,0,
2,15480,Note_off_c,9,56,0,
2,15480,Note_off_c,9,57,0,
2,15480,Note_off_c,9,59,0,
2,15480,Note_off_c,9,60,0,
2,15480,Note_off_c,9,61,0,
2,15480,Note_off_c,9,63,0,
2,15480,Note_off_c,9,68,0,
2,15480,Note_off_c,9,69,0,
2,15480,Note_off_c,9,70,0,
2,15480,Note_off_c,9,76,0,
2,15480,Note_off_c,9,80,0,
2,15480,Note_off_c,9,81,0,
2,15480,Note_off_c,9,82,0,
2,15480,Note_off_c,9,87,0,
2,15480,Note_off_c,9,88,0,
2,15480,Note_off_c,9,89,0,
2,15480,Note_off_c,9,91,0,
2,15480,Note_off_c,9,93,0,
2,15510,Note_off_c,9,35,0,
2,15510,Note_off_c,9,36,0,
2,15510,Note_off_c,9,37,0,
2,15510,Note_off_c,9,38,0,
2,15510,Note_off_c,9,39,0,
2,15510,Note_off_c,9,40,0,
2,15510,Note_off_c,9,41,0,
2,15510,Note_off_c,9,42,0,
2,15510,Note_off_c,9,43,0,
2,15510,Note_off_c,9,44,0,
2,15510,Note_off_c,9,45,0,
2,15510,Note_off_c,9,46,0,
2,15510,Note_off_c,9,47,0,
2,15510,Note_off_c,9,48,0,
2,15510,Note_off_c,9,49,0,
2,15510,Note_off_c,9,50,0,
2,15510,Note_off_c,9,51,0,
2,15510,Note_off_c,9,56,0,
2,15510,Note_off_c,9,57,0,
2,15510,Note_off_c,9,59,0,
2,15510,Note_off_c,9,60,0,
2,15510,Note_off_c,9,61,0,
2,15510,Note_off_c,9,63,0,
2,15510,Note_off_c,9,68,0,
2,15510,Note_off_c,9,69,0,
2,15510,Note_off_c,9,70,0,
2,15510,Note_off_c,9,76,0,
2,15510,Note_off_c,9,80,0,
2,15510,Note_off_c,9,81,0,
2,15510,Note_off_c,9,82,0,
2,15510,Note_off_c,9,87,0,
2,15510,Note_off_c,9,88,0,
2,15510,Note_off_c,9,89,0,
2,15510,Note_off_c,9,91,0,
2,15510,Note_off_c,9,93,0,
2,15540,Note_off_c,9,35,0,
2,15540,Note_off_c,9,36,0,
2,15540,Note_off_c,9,37,0,
2,15540,Note_off_c,9,38,0,
2,15540,Note_off_c,9,39,0,
2,15540,Note_off_c,9,40,0,
2,15540,Note_off_c,9,41,0,
2,15540,Note_off_c,9,42,0,
2,15540,Note_off_c,9,43,0,
2,15540,Note_off_c,9,44,0,
2,15540,Note_off_c,9,45,0,
2,15540,Note_off_c,9,46,0,
2,15540,Note_off_c,9,47,0,
2,15540,Note_off_c,9,48,0,
2,15540,Note_off_c,9,49,0,
2,15540,Note_off_c,9,50,0,
2,15540,Note_off_c,9,51,0,
2,15540,Note_off_c,9,56,0,
2,15540,Note_off_c,9,57,0,
2,15540,Note_off_c,9,59,0,
2,15540,Note_off_c,9,60,0,
2,15540,Note_off_c,9,61,0,
2,15540,Note_off_c,9,63,0,
2,15540,Note_off_c,9,68,0,
2,15540,Note_off_c,9,69,0,
2,15540,Note_off_c,9,70,0,
2,15540,Note_off_c,9,76,0,
2,15540,Note_off_c,9,80,0,
2,15540,Note_off_c,9,81,0,
2,15540,Note_off_c,9,82,0,
2,15540,Note_off_c,9,87,0,
2,15540,Note_off_c,9,88,0,
2,15540,Note_off_c,9,89,0,
2,15540,Note_off_c,9,91,0,
2,15540,Note_off_c,9,93,0,
2,15570,Note_off_c,9,35,0,
2,15570,Note_off_c,9,36,0,
2,15570,Note_off_c,9,37,0,
2,15570,Note_off_c,9,38,0,
2,15570,Note_off_c,9,39,0,
2,15570,Note_off_c,9,40,0,
2,15570,Note_off_c,9,41,0,
2,15570,Note_off_c,9,42,0,
2,15570,Note_off_c,9,43,0,
2,15570,Note_off_c,9,44,0,
2,15570,Note_off_c,9,45,0,
2,15570,Note_off_c,9,46,0,
2,15570,Note_off_c,9,47,0,
2,15570,Note_off_c,9,48,0,
2,15570,Note_off_c,9,49,0,
2,15570,Note_off_c,9,50,0,
2,15570,Note_off_c,9,51,0,
2,15570,Note_off_c,9,56,0,
2,15570,Note_off_c,9,57,0,
2,15570,Note_off_c,9,59,0,
2,15570,Note_off_c,9,60,0,
2,15570,Note_off_c,9,61,0,
2,15570,Note_off_c,9,63,0,
2,15570,Note_off_c,9,68,0,
2,15570,Note_off_c,9,69,0,
2,15570,Note_off_c,9,70,0,
2,15570,Note_off_c,9,76,0,
2,15570,Note_off_c,9,80,0,
2,15570,Note_off_c,9,81,0,
2,15570,Note_off_c,9,82,0,
2,15570,Note_off_c,9,87,0,
2,15570,Note_off_c,9,88,0,
2,15570,Note_off_c,9,89,0,
2,15570,Note_off_c,9,91,0,
2,15570,Note_off_c,9,93,0,
2,15600,Note_off_c,9,35,0,
2,15600,Note_off_c,9,36,0,
2,15600,Note_off_c,9,37,0,
2,15600,Note_off_c,9,38,0,
2,15600,Note_off_c,9,39,0,
2,15600,Note_off_c,9,40,0,
2,15600,Note_off_c,9,41,0,
2,15600,Note_off_c,9,42,0,
2,15600,Note_off_c,9,43,0,
2,15600,Note_off_c,9,44,0,
2,15600,Note_off_c,9,45,0,
2,15600,Note_off_c,9,46,0,
2,15600,Note_off_c,9,47,0,
2,15600,Note_off_c,9,48,0,
2,15600,Note_off_c,9,49,0,
2,15600,Note_off_c,9,50,0,
2,15600,Note_off_c,9,51,0,
2,15600,Note_off_c,9,56,0,
2,15600,Note_off_c,9,57,0,
2,15600,Note_off_c,9,59,0,
2,15600,Note_off_c,9,60,0,
2,15600,Note_off_c,9,61,0,
2,15600,Note_off_c,9,63,0,
2,15600,Note_off_c,9,68,0,
2,15600,Note_off_c,9,69,0,
2,15600,Note_off_c,9,70,0,
2,15600,Note_off_c,9,76,0,
2,15600,Note_off_c,9,80,0,
2,15600,Note_off_c,9,81,0,
2,15600,Note_off_c,9,82,0,
2,15600,Note_off_c,9,87,0,
2,15600,Note_off_c,9,88,0,
2,15600,Note_off_c,9,89,0,
2,15600,Note_off_c,9,91,0,
2,15600,Note_off_c,9,93,0,
2,15630,Note_off_c,9,35,0,
2,15630,Note_off_c,9,36,0,
2,15630,Note_off_c,9,37,0,
2,15630,Note_off_c,9,38,0,
2,15630,Note_off_c,9,39,0,
2,15630,Note_off_c,9,40,0,
2,15630,Note_off_c,9,41,0,
2,15630,Note_off_c,9,42,0,
2,15630,Note_off_c,9,43,0,
2,15630,Note_off_c,9,44,0,
2,15630,Note_off_c,9,45,0,
2,15630,Note_off_c,9,46,0,
2,15630,Note_off_c,9,47,0,
2,15630,Note_off_c,9,48,0,
2,15630,Note_off_c,9,49,0,
2,15630,Note_off_c,9,50,0,
2,15630,Note_off_c,9,51,0,
2,15630,Note_off_c,9,56,0,
2,15630,Note_off_c,9,57,0,
2,15630,Note_off_c,9,59,0,
2,15630,Note_off_c,9,60,0,
2,15630,Note_off_c,9,61,0,
2,15630,Note_off_c,9,63,0,
2,15630,Note_off_c,9,68,0,
2,15630,Note_off_c,9,69,0,
2,15630,Note_off_c,9,70,0,
2,15630,Note_off_c,9,76,0,
2,15630,Note_off_c,9,80,0,
2,15630,Note_off_c,9,81,0,
2,15630,Note_off_c,9,82,0,
2,15630,Note_off_c,9,87,0,
2,15630,Note_off_c,9,88,0,
2,15630,Note_off_c,9,89,0,
2,15630,Note_off_c,9,91,0,
2,15630,Note_off_c,9,93,0,
2,15660,Note_off_c,9,35,0,
2,15660,Note_off_c,9,36,0,
2,15660,Note_off_c,9,37,0,
2,15660,Note_off_c,9,38,0,
2,15660,Note_off_c,9,39,0,
2,15660,Note_off_c,9,40,0,
2,15660,Note_off_c,9,41,0,
2,15660,Note_off_c,9,42,0,
2,15660,Note_off_c,9,43,0,
2,15660,Note_off_c,9,44,0,
2,15660,Note_off_c,9,45,0,
2,15660,Note_off_c,9,46,0,
2,15660,Note_off_c,9,47,0,
2,15660,Note_off_c,9,48,0,
2,15660,Note_off_c,9,49,0,
2,15660,Note_off_c,9,50,0,
2,15660,Note_off_c,9,51,0,
2,15660,Note_off_c,9,56,0,
2,15660,Note_off_c,9,57,0,
2,15660,Note_off_c,9,59,0,
2,15660,Note_off_c,9,60,0,
2,15660,Note_off_c,9,61,0,
2,15660,Note_off_c,9,63,0,
2,15660,Note_off_c,9,68,0,
2,15660,Note_off_c,9,69,0,
2,15660,Note_off_c,9,70,0,
2,15660,Note_off_c,9,76,0,
2,15660,Note_off_c,9,80,0,
2,15660,Note_off_c,9,81,0,
2,15660,Note_off_c,9,82,0,
2,15660,Note_off_c,9,87,0,
2,15660,Note_off_c,9,88,0,
2,15660,Note_off_c,9,89,0,
2,15660,Note_off_c,9,91,0,
2,15660,Note_off_c,9,93,0,
2,15690,Note_off_c,9,35,0,
2,15690,Note_off_c,9,36,0,
2,15690,Note_off_c,9,37,0,
2,15690,Note_off_c,9,38,0,
2,15690,Note_off_c,9,39,0,
2,15690,Note_off_c,9,40,0,
2,15690,Note_off_c,9,41,0,
2,15690,Note_off_c,9,42,0,
2,15690,Note_off_c,9,43,0,
2,15690,Note_off_c,9,44,0,
2,15690,Note_off_c,9,45,0,
2,15690,Note_off_c,9,46,0,
2,15690,Note_off_c,9,47,0,
2,15690,Note_off_c,9,48,0,
2,15690,Note_off_c,9,49,0,
2,15690,Note_off_c,9,50,0,
2,15690,Note_off_c,9,51,0,
2,15690,Note_off_c,9,56,0,
2,15690,Note_off_c,9,57,0,
2,15690,Note_off_c,9,59,0,
2,15690,Note_off_c,9,60,0,
2,15690,Note_off_c,9,61,0,
2,15690,Note_off_c,9,63,0,
2,15690,Note_off_c,9,68,0,
2,15690,Note_off_c,9,69,0,
2,15690,Note_off_c,9,70,0,
2,15690,Note_off_c,9,76,0,
2,15690,Note_off_c,9,80,0,
2,15690,Note_off_c,9,81,0,
2,15690,Note_off_c,9,82,0,
2,15690,Note_off_c,9,87,0,
2,15690,Note_off_c,9,88,0,
2,15690,Note_off_c,9,89,0,
2,15690,Note_off_c,9,91,0,
2,15690,Note_off_c,9,93,0,
2,15720,Note_off_c,9,35,0,
2,15720,Note_off_c,9,36,0,
2,15720,Note_off_c,9,37,0,
2,15720,Note_off_c,9,38,0,
2,15720,Note_off_c,9,39,0,
2,15720,Note_off_c,9,40,0,
2,15720,Note_off_c,9,41,0,
2,15720,Note_off_c,9,42,0,
2,15720,Note_off_c,9,43,0,
2,15720,Note_off_c,9,44,0,
2,15720,Note_off_c,9,45,0,
2,15720,Note_off_c,9,46,0,
2,15720,Note_off_c,9,47,0,
2,15720,Note_off_c,9,48,0,
2,15720,Note_off_c,9,49,0,
2,15720,Note_off_c,9,50,0,
2,15720,Note_off_c,9,51,0,
2,15720,Note_off_c,9,56,0,
2,15720,Note_off_c,9,57,0,
2,15720,Note_off_c,9,59,0,
2,15720,Note_off_c,9,60,0,
2,15720,Note_off_c,9,61,0,
2,15720,Note_off_c,9,63,0,
2,15720,Note_off_c,9,68,0,
2,15720,Note_off_c,9,69,0,
2,15720,Note_off_c,9,70,0,
2,15720,Note_off_c,9,76,0,
2,15720,Note_off_c,9,80,0,
2,15720,Note_off_c,9,81,0,
2,15720,Note_off_c,9,82,0,
2,15720,Note_off_c,9,87,0,
2,15720,Note_off_c,9,88,0,
2,15720,Note_off_c,9,89,0,
2,15720,Note_off_c,9,91,0,
2,15720,Note_off_c,9,93,0,
2,15750,Note_off_c,9,35,0,
2,15750,Note_off_c,9,36,0,
2,15750,Note_off_c,9,37,0,
2,15750,Note_off_c,9,38,0,
2,15750,Note_off_c,9,39,0,
2,15750,Note_off_c,9,40,0,
2,15750,Note_off_c,9,41,0,
2,15750,Note_off_c,9,42,0,
2,15750,Note_off_c,9,43,0,
2,15750,Note_off_c,9,44,0,
2,15750,Note_off_c,9,45,0,
2,15750,Note_off_c,9,46,0,
2,15750,Note_off_c,9,47,0,
2,15750,Note_off_c,9,48,0,
2,15750,Note_off_c,9,49,0,
2,15750,Note_off_c,9,50,0,
2,15750,Note_off_c,9,51,0,
2,15750,Note_off_c,9,56,0,
2,15750,Note_off_c,9,57,0,
2,15750,Note_off_c,9,59,0,
2,15750,Note_off_c,9,60,0,
2,15750,Note_off_c,9,61,0,
2,15750,Note_off_c,9,63,0,
2,15750,Note_off_c,9,68,0,
2,15750,Note_off_c,9,69,0,
2,15750,Note_off_c,9,70,0,
2,15750,Note_off_c,9,76,0,
2,15750,Note_off_c,9,80,0,
2,15750,Note_off_c,9,81,0,
2,15750,Note_off_c,9,82,0,
2,15750,Note_off_c,9,87,0,
2,15750,Note_off_c,9,88,0,
2,15750,Note_off_c,9,89,0,
2,15750,Note_off_c,9,91,0,
2,15750,Note_off_c,9,93,0,
2,15780,Note_off_c,9,35,0,
2,15780,Note_off_c,9,36,0,
2,15780,Note_off_c,9,37,0,
2,15780,Note_off_c,9,38,0,
2,15780,Note_off_c,9,39,0,
2,15780,Note_off_c,9,40,0,
2,15780,Note_off_c,9,41,0,
2,15780,Note_off_c,9,42,0,
2,15780,Note_off_c,9,43,0,
2,15780,Note_off_c,9,44,0,
2,15780,Note_off_c,9,45,0,
2,15780,Note_off_c,9,46,0,
2,15780,Note_off_c,9,47,0,
2,15780,Note_off_c,9,48,0,
2,15780,Note_off_c,9,49,0,
2,15780,Note_off_c,9,50,0,
2,15780,Note_off_c,9,51,0,
2,15780,Note_off_c,9,56,0,
2,15780,Note_off_c,9,57,0,
2,15780,Note_off_c,9,59,0,
2,15780,Note_off_c,9,60,0,
2,15780,Note_off_c,9,61,0,
2,15780,Note_off_c,9,63,0,
2,15780,Note_off_c,9,68,0,
2,15780,Note_off_c,9,69,0,
2,15780,Note_off_c,9,70,0,
2,15780,Note_off_c,9,76,0,
2,15780,Note_off_c,9,80,0,
2,15780,Note_off_c,9,81,0,
2,15780,Note_off_c,9,82,0,
2,15780,Note_off_c,9,87,0,
2,15780,Note_off_c,9,88,0,
2,15780,Note_off_c,9,89,0,
2,15780,Note_off_c,9,91,0,
2,15780,Note_off_c,9,93,0,
2,15810,Note_off_c,9,35,0,
2,15810,Note_off_c,9,36,0,
2,15810,Note_off_c,9,37,0,
2,15810,Note_off_c,9,38,0,
2,15810,Note_off_c,9,39,0,
2,15810,Note_off_c,9,40,0,
2,15810,Note_off_c,9,41,0,
2,15810,Note_off_c,9,42,0,
2,15810,Note_off_c,9,43,0,
2,15810,Note_off_c,9,44,0,
2,15810,Note_off_c,9,45,0,
2,15810,Note_off_c,9,46,0,
2,15810,Note_off_c,9,47,0,
2,15810,Note_off_c,9,48,0,
2,15810,Note_off_c,9,49,0,
2,15810,Note_off_c,9,50,0,
2,15810,Note_off_c,9,51,0,
2,15810,Note_off_c,9,56,0,
2,15810,Note_off_c,9,57,0,
2,15810,Note_off_c,9,59,0,
2,15810,Note_off_c,9,60,0,
2,15810,Note_off_c,9,61,0,
2,15810,Note_off_c,9,63,0,
2,15810,Note_off_c,9,68,0,
2,15810,Note_off_c,9,69,0,
2,15810,Note_off_c,9,70,0,
2,15810,Note_off_c,9,76,0,
2,15810,Note_off_c,9,80,0,
2,15810,Note_off_c,9,81,0,
2,15810,Note_off_c,9,82,0,
2,15810,Note_off_c,9,87,0,
2,15810,Note_off_c,9,88,0,
2,15810,Note_off_c,9,89,0,
2,15810,Note_off_c,9,91,0,
2,15810,Note_off_c,9,93,0,
2,15840,Note_off_c,9,35,0,
2,15840,Note_off_c,9,36,0,
2,15840,Note_off_c,9,37,0,
2,15840,Note_off_c,9,38,0,
2,15840,Note_off_c,9,39,0,
2,15840,Note_off_c,9,40,0,
2,15840,Note_off_c,9,41,0,
2,15840,Note_off_c,9,42,0,
2,15840,Note_off_c,9,43,0,
2,15840,Note_off_c,9,44,0,
2,15840,Note_off_c,9,45,0,
2,15840,Note_off_c,9,46,0,
2,15840,Note_off_c,9,47,0,
2,15840,Note_off_c,9,48,0,
2,15840,Note_off_c,9,49,0,
2,15840,Note_off_c,9,50,0,
2,15840,Note_off_c,9,51,0,
2,15840,Note_off_c,9,56,0,
2,15840,Note_off_c,9,57,0,
2,15840,Note_off_c,9,59,0,
2,15840,Note_off_c,9,60,0,
2,15840,Note_off_c,9,61,0,
2,15840,Note_off_c,9,63,0,
2,15840,Note_off_c,9,68,0,
2,15840,Note_off_c,9,69,0,
2,15840,Note_off_c,9,70,0,
2,15840,Note_off_c,9,76,0,
2,15840,Note_off_c,9,80,0,
2,15840,Note_off_c,9,81,0,
2,15840,Note_off_c,9,82,0,
2,15840,Note_off_c,9,87,0,
2,15840,Note_off_c,9,88,0,
2,15840,Note_off_c,9,89,0,
2,15840,Note_off_c,9,91,0,
2,15840,Note_off_c,9,93,0,
2,15870,Note_off_c,9,35,0,
2,15870,Note_off_c,9,36,0,
2,15870,Note_off_c,9,37,0,
2,15870,Note_off_c,9,38,0,
2,15870,Note_off_c,9,39,0,
2,15870,Note_off_c,9,40,0,
2,15870,Note_off_c,9,41,0,
2,15870,Note_off_c,9,42,0,
2,15870,Note_off_c,9,43,0,
2,15870,Note_off_c,9,44,0,
2,15870,Note_off_c,9,45,0,
2,15870,Note_off_c,9,46,0,
2,15870,Note_off_c,9,47,0,
2,15870,Note_off_c,9,48,0,
2,15870,Note_off_c,9,49,0,
2,15870,Note_off_c,9,50,0,
2,15870,Note_off_c,9,51,0,
2,15870,Note_off_c,9,56,0,
2,15870,Note_off_c,9,57,0,
2,15870,Note_off_c,9,59,0,
2,15870,Note_off_c,9,60,0,
2,15870,Note_off_c,9,61,0,
2,15870,Note_off_c,9,63,0,
2,15870,Note_off_c,9,68,0,
2,15870,Note_off_c,9,69,0,
2,15870,Note_off_c,9,70,0,
2,15870,Note_off_c,9,76,0,
2,15870,Note_off_c,9,80,0,
2,15870,Note_off_c,9,81,0,
2,15870,Note_off_c,9,82,0,
2,15870,Note_off_c,9,87,0,
2,15870,Note_off_c,9,88,0,
2,15870,Note_off_c,9,89,0,
2,15870,Note_off_c,9,91,0,
2,15870,Note_off_c,9,93,0,
2,15900,Note_off_c,9,35,0,
2,15900,Note_off_c,9,36,0,
2,15900,Note_off_c,9,37,0,
2,15900,Note_off_c,9,38,0,
2,15900,Note_off_c,9,39,0,
2,15900,Note_off_c,9,40,0,
2,15900,Note_off_c,9,41,0,
2,15900,Note_off_c,9,42,0,
2,15900,Note_off_c,9,43,0,
2,15900,Note_off_c,9,44,0,
2,15900,Note_off_c,9,45,0,
2,15900,Note_off_c,9,46,0,
2,15900,Note_off_c,9,47,0,
2,15900,Note_off_c,9,48,0,
2,15900,Note_off_c,9,49,0,
2,15900,Note_off_c,9,50,0,
2,15900,Note_off_c,9,51,0,
2,15900,Note_off_c,9,56,0,
2,15900,Note_off_c,9,57,0,
2,15900,Note_off_c,9,59,0,
2,15900,Note_off_c,9,60,0,
2,15900,Note_off_c,9,61,0,
2,15900,Note_off_c,9,63,0,
2,15900,Note_off_c,9,68,0,
2,15900,Note_off_c,9,69,0,
2,15900,Note_off_c,9,70,0,
2,15900,Note_off_c,9,76,0,
2,15900,Note_off_c,9,80,0,
2,15900,Note_off_c,9,81,0,
2,15900,Note_off_c,9,82,0,
2,15900,Note_off_c,9,87,0,
2,15900,Note_off_c,9,88,0,
2,15900,Note_off_c,9,89,0,
2,15900,Note_off_c,9,91,0,
2,15900,Note_off_c,9,93,0,
2,15930,Note_off_c,9,35,0,
2,15930,Note_off_c,9,36,0,
2,15930,Note_off_c,9,37,0,
2,15930,Note_off_c,9,38,0,
2,15930,Note_off_c,9,39,0,
2,15930,Note_off_c,9,40,0,
2,15930,Note_off_c,9,41,0,
2,15930,Note_off_c,9,42,0,
2,15930,Note_off_c,9,43,0,
2,15930,Note_off_c,9,44,0,
2,15930,Note_off_c,9,45,0,
2,15930,Note_off_c,9,46,0,
2,15930,Note_off_c,9,47,0,
2,15930,Note_off_c,9,48,0,
2,15930,Note_off_c,9,49,0,
2,15930,Note_off_c,9,50,0,
2,15930,Note_off_c,9,51,0,
2,15930,Note_off_c,9,56,0,
2,15930,Note_off_c,9,57,0,
2,15930,Note_off_c,9,59,0,
2,15930,Note_off_c,9,60,0,
2,15930,Note_off_c,9,61,0,
2,15930,Note_off_c,9,63,0,
2,15930,Note_off_c,9,68,0,
2,15930,Note_off_c,9,69,0,
2,15930,Note_off_c,9,70,0,
2,15930,Note_off_c,9,76,0,
2,15930,Note_off_c,9,80,0,
2,15930,Note_off_c,9,81,0,
2,15930,Note_off_c,9,82,0,
2,15930,Note_off_c,9,87,0,
2,15930,Note_off_c,9,88,0,
2,15930,Note_off_c,9,89,0,
2,15930,Note_off_c,9,91,0,
2,15930,Note_off_c,9,93,0,
2,15960,Note_off_c,9,35,0,
2,15960,Note_off_c,9,36,0,
2,15960,Note_off_c,9,37,0,
2,15960,Note_off_c,9,38,0,
2,15960,Note_off_c,9,39,0,
2,15960,Note_off_c,9,40,0,
2,15960,Note_off_c,9,41,0,
2,15960,Note_off_c,9,42,0,
2,15960,Note_off_c,9,43,0,
2,15960,Note_off_c,9,44,0,
2,15960,Note_off_c,9,45,0,
2,15960,Note_off_c,9,46,0,
2,15960,Note_off_c,9,47,0,
2,15960,Note_off_c,9,48,0,
2,15960,Note_off_c,9,49,0,
2,15960,Note_off_c,9,50,0,
2,15960,Note_off_c,9,51,0,
2,15960,Note_off_c,9,56,0,
2,15960,Note_off_c,9,57,0,
2,15960,Note_off_c,9,59,0,
2,15960,Note_off_c,9,60,0,
2,15960,Note_off_c,9,61,0,
2,15960,Note_off_c,9,63,0,
2,15960,Note_off_c,9,68,0,
2,15960,Note_off_c,9,69,0,
2,15960,Note_off_c,9,70,0,
2,15960,Note_off_c,9,76,0,
2,15960,Note_off_c,9,80,0,
2,15960,Note_off_c,9,81,0,
2,15960,Note_off_c,9,82,0,
2,15960,Note_off_c,9,87,0,
2,15960,Note_off_c,9,88,0,
2,15960,Note_off_c,9,89,0,
2,15960,Note_off_c,9,91,0,
2,15960,Note_off_c,9,93,0,
2,15990,Note_off_c,9,35,0,
2,15990,Note_off_c,9,36,0,
2,15990,Note_off_c,9,37,0,
2,15990,Note_off_c,9,38,0,
2,15990,Note_off_c,9,39,0,
2,15990,Note_off_c,9,40,0,
2,15990,Note_off_c,9,41,0,
2,15990,Note_off_c,9,42,0,
2,15990,Note_off_c,9,43,0,
2,15990,Note_off_c,9,44,0,
2,15990,Note_off_c,9,45,0,
2,15990,Note_off_c,9,46,0,
2,15990,Note_off_c,9,47,0,
2,15990,Note_off_c,9,48,0,
2,15990,Note_off_c,9,49,0,
2,15990,Note_off_c,9,50,0,
2,15990,Note_off_c,9,51,0,
2,15990,Note_off_c,9,56,0,
2,15990,Note_off_c,9,57,0,
2,15990,Note_off_c,9,59,0,
2,15990,Note_off_c,9,60,0,
2,15990,Note_off_c,9,61,0,
2,15990,Note_off_c,9,63,0,
2,15990,Note_off_c,9,68,0,
2,15990,Note_off_c,9,69,0,
2,15990,Note_off_c,9,70,0,
2,15990,Note_off_c,9,76,0,
2,15990,Note_off_c,9,80,0,
2,15990,Note_off_c,9,81,0,
2,15990,Note_off_c,9,82,0,
2,15990,Note_off_c,9,87,0,
2,15990,Note_off_c,9,88,0,
2,15990,Note_off_c,9,89,0,
2,15990,Note_off_c,9,91,0,
2,15990,Note_off_c,9,93,0,
2,16020,Note_off_c,9,35,0,
2,16020,Note_off_c,9,36,0,
2,16020,Note_off_c,9,37,0,
2,16020,Note_off_c,9,38,0,
2,16020,Note_off_c,9,39,0,
2,16020,Note_off_c,9,40,0,
2,16020,Note_off_c,9,41,0,
2,16020,Note_off_c,9,42,0,
2,16020,Note_off_c,9,43,0,
2,16020,Note_off_c,9,44,0,
2,16020,Note_off_c,9,45,0,
2,16020,Note_off_c,9,46,0,
2,16020,Note_off_c,9,47,0,
2,16020,Note_off_c,9,48,0,
2,16020,Note_off_c,9,49,0,
2,16020,Note_off_c,9,50,0,
2,16020,Note_off_c,9,51,0,
2,16020,Note_off_c,9,56,0,
2,16020,Note_off_c,9,57,0,
2,16020,Note_off_c,9,59,0,
2,16020,Note_off_c,9,60,0,
2,16020,Note_off_c,9,61,0,
2,16020,Note_off_c,9,63,0,
2,16020,Note_off_c,9,68,0,
2,16020,Note_off_c,9,69,0,
2,16020,Note_off_c,9,70,0,
2,16020,Note_off_c,9,76,0,
2,16020,Note_off_c,9,80,0,
2,16020,Note_off_c,9,81,0,
2,16020,Note_off_c,9,82,0,
2,16020,Note_off_c,9,87,0,
2,16020,Note_off_c,9,88,0,
2,16020,Note_off_c,9,89,0,
2,16020,Note_off_c,9,91,0,
2,16020,Note_off_c,9,93,0,
2,16050,Note_off_c,9,35,0,
2,16050,Note_off_c,9,36,0,
2,16050,Note_off_c,9,37,0,
2,16050,Note_off_c,9,38,0,
2,16050,Note_off_c,9,39,0,
2,16050,Note_off_c,9,40,0,
2,16050,Note_off_c,9,41,0,
2,16050,Note_off_c,9,42,0,
2,16050,Note_off_c,9,43,0,
2,16050,Note_off_c,9,44,0,
2,16050,Note_off_c,9,45,0,
2,16050,Note_off_c,9,46,0,
2,16050,Note_off_c,9,47,0,
2,16050,Note_off_c,9,48,0,
2,16050,Note_off_c,9,49,0,
2,16050,Note_off_c,9,50,0,
2,16050,Note_off_c,9,51,0,
2,16050,Note_off_c,9,56,0,
2,16050,Note_off_c,9,57,0,
2,16050,Note_off_c,9,59,0,
2,16050,Note_off_c,9,60,0,
2,16050,Note_off_c,9,61,0,
2,16050,Note_off_c,9,63,0,
2,16050,Note_off_c,9,68,0,
2,16050,Note_off_c,9,69,0,
2,16050,Note_off_c,9,70,0,
2,16050,Note_off_c,9,76,0,
2,16050,Note_off_c,9,80,0,
2,16050,Note_off_c,9,81,0,
2,16050,Note_off_c,9,82,0,
2,16050,Note_off_c,9,87,0,
2,16050,Note_off_c,9,88,0,
2,16050,Note_off_c,9,89,0,
2,16050,Note_off_c,9,91,0,
2,16050,Note_off_c,9,93,0,
2,16080,Note_off_c,9,35,0,
2,16080,Note_off_c,9,36,0,
2,16080,Note_off_c,9,37,0,
2,16080,Note_off_c,9,38,0,
2,16080,Note_off_c,9,39,0,
2,16080,Note_off_c,9,40,0,
2,16080,Note_off_c,9,41,0,
2,16080,Note_off_c,9,42,0,
2,16080,Note_off_c,9,43,0,
2,16080,Note_off_c,9,44,0,
2,16080,Note_off_c,9,45,0,
2,16080,Note_off_c,9,46,0,
2,16080,Note_off_c,9,47,0,
2,16080,Note_off_c,9,48,0,
2,16080,Note_off_c,9,49,0,
2,16080,Note_off_c,9,50,0,
2,16080,Note_off_c,9,51,0,
2,16080,Note_off_c,9,56,0,
2,16080,Note_off_c,9,57,0,
2,16080,Note_off_c,9,59,0,
2,16080,Note_off_c,9,60,0,
2,16080,Note_off_c,9,61,0,
2,16080,Note_off_c,9,63,0,
2,16080,Note_off_c,9,68,0,
2,16080,Note_off_c,9,69,0,
2,16080,Note_off_c,9,70,0,
2,16080,Note_off_c,9,76,0,
2,16080,Note_off_c,9,80,0,
2,16080,Note_off_c,9,81,0,
2,16080,Note_off_c,9,82,0,
2,16080,Note_off_c,9,87,0,
2,16080,Note_off_c,9,88,0,
2,16080,Note_off_c,9,89,0,
2,16080,Note_off_c,9,91,0,
2,16080,Note_off_c,9,93,0,
2,16110,Note_off_c,9,35,0,
2,16110,Note_off_c,9,36,0,
2,16110,Note_off_c,9,37,0,
2,16110,Note_off_c,9,38,0,
2,16110,Note_off_c,9,39,0,
2,16110,Note_off_c,9,40,0,
2,16110,Note_off_c,9,41,0,
2,16110,Note_off_c,9,42,0,
2,16110,Note_off_c,9,43,0,
2,16110,Note_off_c,9,44,0,
2,16110,Note_off_c,9,45,0,
2,16110,Note_off_c,9,46,0,
2,16110,Note_off_c,9,47,0,
2,16110,Note_off_c,9,48,0,
2,16110,Note_off_c,9,49,0,
2,16110,Note_off_c,9,50,0,
2,16110,Note_off_c,9,51,0,
2,16110,Note_off_c,9,56,0,
2,16110,Note_off_c,9,57,0,
2,16110,Note_off_c,9,59,0,
2,16110,Note_off_c,9,60,0,
2,16110,Note_off_c,9,61,0,
2,16110,Note_off_c,9,63,0,
2,16110,Note_off_c,9,68,0,
2,16110,Note_off_c,9,69,0,
2,16110,Note_off_c,9,70,0,
2,16110,Note_off_c,9,76,0,
2,16110,Note_off_c,9,80,0,
2,16110,Note_off_c,9,81,0,
2,16110,Note_off_c,9,82,0,
2,16110,Note_off_c,9,87,0,
2,16110,Note_off_c,9,88,0,
2,16110,Note_off_c,9,89,0,
2,16110,Note_off_c,9,91,0,
2,16110,Note_off_c,9,93,0,
2,16140,Note_off_c,9,35,0,
2,16140,Note_off_c,9,36,0,
2,16140,Note_off_c,9,37,0,
2,16140,Note_off_c,9,38,0,
2,16140,Note_off_c,9,39,0,
2,16140,Note_off_c,9,40,0,
2,16140,Note_off_c,9,41,0,
2,16140,Note_off_c,9,42,0,
2,16140,Note_off_c,9,43,0,
2,16140,Note_off_c,9,44,0,
2,16140,Note_off_c,9,45,0,
2,16140,Note_off_c,9,46,0,
2,16140,Note_off_c,9,47,0,
2,16140,Note_off_c,9,48,0,
2,16140,Note_off_c,9,49,0,
2,16140,Note_off_c,9,50,0,
2,16140,Note_off_c,9,51,0,
2,16140,Note_off_c,9,56,0,
2,16140,Note_off_c,9,57,0,
2,16140,Note_off_c,9,59,0,
2,16140,Note_off_c,9,60,0,
2,16140,Note_off_c,9,61,0,
2,16140,Note_off_c,9,63,0,
2,16140,Note_off_c,9,68,0,
2,16140,Note_off_c,9,69,0,
2,16140,Note_off_c,9,70,0,
2,16140,Note_off_c,9,76,0,
2,16140,Note_off_c,9,80,0,
2,16140,Note_off_c,9,81,0,
2,16140,Note_off_c,9,82,0,
2,16140,Note_off_c,9,87,0,
2,16140,Note_off_c,9,88,0,
2,16140,Note_off_c,9,89,0,
2,16140,Note_off_c,9,91,0,
2,16140,Note_off_c,9,93,0,
2,16170,Note_off_c,9,35,0,
2,16170,Note_off_c,9,36,0,
2,16170,Note_off_c,9,37,0,
2,16170,Note_off_c,9,38,0,
2,16170,Note_off_c,9,39,0,
2,16170,Note_off_c,9,40,0,
2,16170,Note_off_c,9,41,0,
2,16170,Note_off_c,9,42,0,
2,16170,Note_off_c,9,43,0,
2,16170,Note_off_c,9,44,0,
2,16170,Note_off_c,9,45,0,
2,16170,Note_off_c,9,46,0,
2,16170,Note_off_c,9,47,0,
2,16170,Note_off_c,9,48,0,
2,16170,Note_off_c,9,49,0,
2,16170,Note_off_c,9,50,0,
2,16170,Note_off_c,9,51,0,
2,16170,Note_off_c,9,56,0,
2,16170,Note_off_c,9,57,0,
2,16170,Note_off_c,9,59,0,
2,16170,Note_off_c,9,60,0,
2,16170,Note_off_c,9,61,0,
2,16170,Note_off_c,9,63,0,
2,16170,Note_off_c,9,68,0,
2,16170,Note_off_c,9,69,0,
2,16170,Note_off_c,9,70,0,
2,16170,Note_off_c,9,76,0,
2,16170,Note_off_c,9,80,0,
2,16170,Note_off_c,9,81,0,
2,16170,Note_off_c,9,82,0,
2,16170,Note_off_c,9,87,0,
2,16170,Note_off_c,9,88,0,
2,16170,Note_off_c,9,89,0,
2,16170,Note_off_c,9,91,0,
2,16170,Note_off_c,9,93,0,
2,16200,Note_off_c,9,35,0,
2,16200,Note_off_c,9,36,0,
2,16200,Note_off_c,9,37,0,
2,16200,Note_off_c,9,38,0,
2,16200,Note_off_c,9,39,0,
2,16200,Note_off_c,9,40,0,
2,16200,Note_off_c,9,41,0,
2,16200,Note_off_c,9,42,0,
2,16200,Note_off_c,9,43,0,
2,16200,Note_off_c,9,44,0,
2,16200,Note_off_c,9,45,0,
2,16200,Note_off_c,9,46,0,
2,16200,Note_off_c,9,47,0,
2,16200,Note_off_c,9,48,0,
2,16200,Note_off_c,9,49,0,
2,16200,Note_off_c,9,50,0,
2,16200,Note_off_c,9,51,0,
2,16200,Note_off_c,9,56,0,
2,16200,Note_off_c,9,57,0,
2,16200,Note_off_c,9,59,0,
2,16200,Note_off_c,9,60,0,
2,16200,Note_off_c,9,61,0,
2,16200,Note_off_c,9,63,0,
2,16200,Note_off_c,9,68,0,
2,16200,Note_off_c,9,69,0,
2,16200,Note_off_c,9,70,0,
2,16200,Note_off_c,9,76,0,
2,16200,Note_off_c,9,80,0,
2,16200,Note_off_c,9,81,0,
2,16200,Note_off_c,9,82,0,
2,16200,Note_off_c,9,87,0,
2,16200,Note_off_c,9,88,0,
2,16200,Note_off_c,9,89,0,
2,16200,Note_off_c,9,91,0,
2,16200,Note_off_c,9,93,0,
2,16230,Note_off_c,9,35,0,
2,16230,Note_off_c,9,36,0,
2,16230,Note_off_c,9,37,0,
2,16230,Note_off_c,9,38,0,
2,16230,Note_off_c,9,39,0,
2,16230,Note_off_c,9,40,0,
2,16230,Note_off_c,9,41,0,
2,16230,Note_off_c,9,42,0,
2,16230,Note_off_c,9,43,0,
2,16230,Note_off_c,9,44,0,
2,16230,Note_off_c,9,45,0,
2,16230,Note_off_c,9,46,0,
2,16230,Note_off_c,9,47,0,
2,16230,Note_off_c,9,48,0,
2,16230,Note_off_c,9,49,0,
2,16230,Note_off_c,9,50,0,
2,16230,Note_off_c,9,51,0,
2,16230,Note_off_c,9,56,0,
2,16230,Note_off_c,9,57,0,
2,16230,Note_off_c,9,59,0,
2,16230,Note_off_c,9,60,0,
2,16230,Note_off_c,9,61,0,
2,16230,Note_off_c,9,63,0,
2,16230,Note_off_c,9,68,0,
2,16230,Note_off_c,9,69,0,
2,16230,Note_off_c,9,70,0,
2,16230,Note_off_c,9,76,0,
2,16230,Note_off_c,9,80,0,
2,16230,Note_off_c,9,81,0,
2,16230,Note_off_c,9,82,0,
2,16230,Note_off_c,9,87,0,
2,16230,Note_off_c,9,88,0,
2,16230,Note_off_c,9,89,0,
2,16230,Note_off_c,9,91,0,
2,16230,Note_off_c,9,93,0,
2,16260,Note_off_c,9,35,0,
2,16260,Note_off_c,9,36,0,
2,16260,Note_off_c,9,37,0,
2,16260,Note_off_c,9,38,0,
2,16260,Note_off_c,9,39,0,
2,16260,Note_off_c,9,40,0,
2,16260,Note_off_c,9,41,0,
2,16260,Note_off_c,9,42,0,
2,16260,Note_off_c,9,43,0,
2,16260,Note_off_c,9,44,0,
2,16260,Note_off_c,9,45,0,
2,16260,Note_off_c,9,46,0,
2,16260,Note_off_c,9,47,0,
2,16260,Note_off_c,9,48,0,
2,16260,Note_off_c,9,49,0,
2,16260,Note_off_c,9,50,0,
2,16260,Note_off_c,9,51,0,
2,16260,Note_off_c,9,56,0,
2,16260,Note_off_c,9,57,0,
2,16260,Note_off_c,9,59,0,
2,16260,Note_off_c,9,60,0,
2,16260,Note_off_c,9,61,0,
2,16260,Note_off_c,9,63,0,
2,16260,Note_off_c,9,68,0,
2,16260,Note_off_c,9,69,0,
2,16260,Note_off_c,9,70,0,
2,16260,Note_off_c,9,76,0,
2,16260,Note_off_c,9,80,0,
2,16260,Note_off_c,9,81,0,
2,16260,Note_off_c,9,82,0,
2,16260,Note_off_c,9,87,0,
2,16260,Note_off_c,9,88,0,
2,16260,Note_off_c,9,89,0,
2,16260,Note_off_c,9,91,0,
2,16260,Note_off_c,9,93,0,
2,16290,Note_off_c,9,35,0,
2,16290,Note_off_c,9,36,0,
2,16290,Note_off_c,9,37,0,
2,16290,Note_off_c,9,38,0,
2,16290,Note_off_c,9,39,0,
2,16290,Note_off_c,9,40,0,
2,16290,Note_off_c,9,41,0,
2,16290,Note_off_c,9,42,0,
2,16290,Note_off_c,9,43,0,
2,16290,Note_off_c,9,44,0,
2,16290,Note_off_c,9,45,0,
2,16290,Note_off_c,9,46,0,
2,16290,Note_off_c,9,47,0,
2,16290,Note_off_c,9,48,0,
2,16290,Note_off_c,9,49,0,
2,16290,Note_off_c,9,50,0,
2,16290,Note_off_c,9,51,0,
2,16290,Note_off_c,9,56,0,
2,16290,Note_off_c,9,57,0,
2,16290,Note_off_c,9,59,0,
2,16290,Note_off_c,9,60,0,
2,16290,Note_off_c,9,61,0,
2,16290,Note_off_c,9,63,0,
2,16290,Note_off_c,9,68,0,
2,16290,Note_off_c,9,69,0,
2,16290,Note_off_c,9,70,0,
2,16290,Note_off_c,9,76,0,
2,16290,Note_off_c,9,80,0,
2,16290,Note_off_c,9,81,0,
2,16290,Note_off_c,9,82,0,
2,16290,Note_off_c,9,87,0,
2,16290,Note_off_c,9,88,0,
2,16290,Note_off_c,9,89,0,
2,16290,Note_off_c,9,91,0,
2,16290,Note_off_c,9,93,0,
2,16320,Note_off_c,9,35,0,
2,16320,Note_off_c,9,36,0,
2,16320,Note_off_c,9,37,0,
2,16320,Note_off_c,9,38,0,
2,16320,Note_off_c,9,39,0,
2,16320,Note_off_c,9,40,0,
2,16320,Note_off_c,9,41,0,
2,16320,Note_off_c,9,42,0,
2,16320,Note_off_c,9,43,0,
2,16320,Note_off_c,9,44,0,
2,16320,Note_off_c,9,45,0,
2,16320,Note_off_c,9,46,0,
2,16320,Note_off_c,9,47,0,
2,16320,Note_off_c,9,48,0,
2,16320,Note_off_c,9,49,0,
2,16320,Note_off_c,9,50,0,
2,16320,Note_off_c,9,51,0,
2,16320,Note_off_c,9,56,0,
2,16320,Note_off_c,9,57,0,
2,16320,Note_off_c,9,59,0,
2,16320,Note_off_c,9,60,0,
2,16320,Note_off_c,9,61,0,
2,16320,Note_off_c,9,63,0,
2,16320,Note_off_c,9,68,0,
2,16320,Note_off_c,9,69,0,
2,16320,Note_off_c,9,70,0,
2,16320,Note_off_c,9,76,0,
2,16320,Note_off_c,9,80,0,
2,16320,Note_off_c,9,81,0,
2,16320,Note_off_c,9,82,0,
2,16320,Note_off_c,9,87,0,
2,16320,Note_off_c,9,88,0,
2,16320,Note_off_c,9,89,0,
2,16320,Note_off_c,9,91,0,
2,16320,Note_off_c,9,93,0,
2,16350,Note_off_c,9,35,0,
2,16350,Note_off_c,9,36,0,
2,16350,Note_off_c,9,37,0,
2,16350,Note_off_c,9,38,0,
2,16350,Note_off_c,9,39,0,
2,16350,Note_off_c,9,40,0,
2,16350,Note_off_c,9,41,0,
2,16350,Note_off_c,9,42,0,
2,16350,Note_off_c,9,43,0,
2,16350,Note_off_c,9,44,0,
2,16350,Note_off_c,9,45,0,
2,16350,Note_off_c,9,46,0,
2,16350,Note_off_c,9,47,0,
2,16350,Note_off_c,9,48,0,
2,16350,Note_off_c,9,49,0,
2,16350,Note_off_c,9,50,0,
2,16350,Note_off_c,9,51,0,
2,16350,Note_off_c,9,56,0,
2,16350,Note_off_c,9,57,0,
2,16350,Note_off_c,9,59,0,
2,16350,Note_off_c,9,60,0,
2,16350,Note_off_c,9,61,0,
2,16350,Note_off_c,9,63,0,
2,16350,Note_off_c,9,68,0,
2,16350,Note_off_c,9,69,0,
2,16350,Note_off_c,9,70,0,
2,16350,Note_off_c,9,76,0,
2,16350,Note_off_c,9,80,0,
2,16350,Note_off_c,9,81,0,
2,16350,Note_off_c,9,82,0,
2,16350,Note_off_c,9,87,0,
2,16350,Note_off_c,9,88,0,
2,16350,Note_off_c,9,89,0,
2,16350,Note_off_c,9,91,0,
2,16350,Note_off_c,9,93,0,
2,16380,Note_off_c,9,35,0,
2,16380,Note_off_c,9,36,0,
2,16380,Note_off_c,9,37,0,
2,16380,Note_off_c,9,38,0,
2,16380,Note_off_c,9,39,0,
2,16380,Note_off_c,9,40,0,
2,16380,Note_off_c,9,41,0,
2,16380,Note_off_c,9,42,0,
2,16380,Note_off_c,9,43,0,
2,16380,Note_off_c,9,44,0,
2,16380,Note_off_c,9,45,0,
2,16380,Note_off_c,9,46,0,
2,16380,Note_off_c,9,47,0,
2,16380,Note_off_c,9,48,0,
2,16380,Note_off_c,9,49,0,
2,16380,Note_off_c,9,50,0,
2,16380,Note_off_c,9,51,0,
2,16380,Note_off_c,9,56,0,
2,16380,Note_off_c,9,57,0,
2,16380,Note_off_c,9,59,0,
2,16380,Note_off_c,9,60,0,
2,16380,Note_off_c,9,61,0,
2,16380,Note_off_c,9,63,0,
2,16380,Note_off_c,9,68,0,
2,16380,Note_off_c,9,69,0,
2,16380,Note_off_c,9,70,0,
2,16380,Note_off_c,9,76,0,
2,16380,Note_off_c,9,80,0,
2,16380,Note_off_c,9,81,0,
2,16380,Note_off_c,9,82,0,
2,16380,Note_off_c,9,87,0,
2,16380,Note_off_c,9,88,0,
2,16380,Note_off_c,9,89,0,
2,16380,Note_off_c,9,91,0,
2,16380,Note_off_c,9,93,0,
2,16410,Note_off_c,9,35,0,
2,16410,Note_off_c,9,36,0,
2,16410,Note_off_c,9,37,0,
2,16410,Note_off_c,9,38,0,
2,16410,Note_off_c,9,39,0,
2,16410,Note_off_c,9,40,0,
2,16410,Note_off_c,9,41,0,
2,16410,Note_off_c,9,42,0,
2,16410,Note_off_c,9,43,0,
2,16410,Note_off_c,9,44,0,
2,16410,Note_off_c,9,45,0,
2,16410,Note_off_c,9,46,0,
2,16410,Note_off_c,9,47,0,
2,16410,Note_off_c,9,48,0,
2,16410,Note_off_c,9,49,0,
2,16410,Note_off_c,9,50,0,
2,16410,Note_off_c,9,51,0,
2,16410,Note_off_c,9,56,0,
2,16410,Note_off_c,9,57,0,
2,16410,Note_off_c,9,59,0,
2,16410,Note_off_c,9,60,0,
2,16410,Note_off_c,9,61,0,
2,16410,Note_off_c,9,63,0,
2,16410,Note_off_c,9,68,0,
2,16410,Note_off_c,9,69,0,
2,16410,Note_off_c,9,70,0,
2,16410,Note_off_c,9,76,0,
2,16410,Note_off_c,9,80,0,
2,16410,Note_off_c,9,81,0,
2,16410,Note_off_c,9,82,0,
2,16410,Note_off_c,9,87,0,
2,16410,Note_off_c,9,88,0,
2,16410,Note_off_c,9,89,0,
2,16410,Note_off_c,9,91,0,
2,16410,Note_off_c,9,93,0,
2,16440,Note_off_c,9,35,0,
2,16440,Note_off_c,9,36,0,
2,16440,Note_off_c,9,37,0,
2,16440,Note_off_c,9,38,0,
2,16440,Note_off_c,9,39,0,
2,16440,Note_off_c,9,40,0,
2,16440,Note_off_c,9,41,0,
2,16440,Note_off_c,9,42,0,
2,16440,Note_off_c,9,43,0,
2,16440,Note_off_c,9,44,0,
2,16440,Note_off_c,9,45,0,
2,16440,Note_off_c,9,46,0,
2,16440,Note_off_c,9,47,0,
2,16440,Note_off_c,9,48,0,
2,16440,Note_off_c,9,49,0,
2,16440,Note_off_c,9,50,0,
2,16440,Note_off_c,9,51,0,
2,16440,Note_off_c,9,56,0,
2,16440,Note_off_c,9,57,0,
2,16440,Note_off_c,9,59,0,
2,16440,Note_off_c,9,60,0,
2,16440,Note_off_c,9,61,0,
2,16440,Note_off_c,9,63,0,
2,16440,Note_off_c,9,68,0,
2,16440,Note_off_c,9,69,0,
2,16440,Note_off_c,9,70,0,
2,16440,Note_off_c,9,76,0,
2,16440,Note_off_c,9,80,0,
2,16440,Note_off_c,9,81,0,
2,16440,Note_off_c,9,82,0,
2,16440,Note_off_c,9,87,0,
2,16440,Note_off_c,9,88,0,
2,16440,Note_off_c,9,89,0,
2,16440,Note_off_c,9,91,0,
2,16440,Note_off_c,9,93,0,
2,16470,Note_off_c,9,35,0,
2,16470,Note_off_c,9,36,0,
2,16470,Note_off_c,9,37,0,
2,16470,Note_off_c,9,38,0,
2,16470,Note_off_c,9,39,0,
2,16470,Note_off_c,9,40,0,
2,16470,Note_off_c,9,41,0,
2,16470,Note_off_c,9,42,0,
2,16470,Note_off_c,9,43,0,
2,16470,Note_off_c,9,44,0,
2,16470,Note_off_c,9,45,0,
2,16470,Note_off_c,9,46,0,
2,16470,Note_off_c,9,47,0,
2,16470,Note_off_c,9,48,0,
2,16470,Note_off_c,9,49,0,
2,16470,Note_off_c,9,50,0,
2,16470,Note_off_c,9,51,0,
2,16470,Note_off_c,9,56,0,
2,16470,Note_off_c,9,57,0,
2,16470,Note_off_c,9,59,0,
2,16470,Note_off_c,9,60,0,
2,16470,Note_off_c,9,61,0,
2,16470,Note_off_c,9,63,0,
2,16470,Note_off_c,9,68,0,
2,16470,Note_off_c,9,69,0,
2,16470,Note_off_c,9,70,0,
2,16470,Note_off_c,9,76,0,
2,16470,Note_off_c,9,80,0,
2,16470,Note_off_c,9,81,0,
2,16470,Note_off_c,9,82,0,
2,16470,Note_off_c,9,87,0,
2,16470,Note_off_c,9,88,0,
2,16470,Note_off_c,9,89,0,
2,16470,Note_off_c,9,91,0,
2,16470,Note_off_c,9,93,0,
2,16500,Note_off_c,9,35,0,
2,16500,Note_off_c,9,36,0,
2,16500,Note_off_c,9,37,0,
2,16500,Note_off_c,9,38,0,
2,16500,Note_off_c,9,39,0,
2,16500,Note_off_c,9,40,0,
2,16500,Note_off_c,9,41,0,
2,16500,Note_off_c,9,42,0,
2,16500,Note_off_c,9,43,0,
2,16500,Note_off_c,9,44,0,
2,16500,Note_off_c,9,45,0,
2,16500,Note_off_c,9,46,0,
2,16500,Note_off_c,9,47,0,
2,16500,Note_off_c,9,48,0,
2,16500,Note_off_c,9,49,0,
2,16500,Note_off_c,9,50,0,
2,16500,Note_off_c,9,51,0,
2,16500,Note_off_c,9,56,0,
2,16500,Note_off_c,9,57,0,
2,16500,Note_off_c,9,59,0,
2,16500,Note_off_c,9,60,0,
2,16500,Note_off_c,9,61,0,
2,16500,Note_off_c,9,63,0,
2,16500,Note_off_c,9,68,0,
2,16500,Note_off_c,9,69,0,
2,16500,Note_off_c,9,70,0,
2,16500,Note_off_c,9,76,0,
2,16500,Note_off_c,9,80,0,
2,16500,Note_off_c,9,81,0,
2,16500,Note_off_c,9,82,0,
2,16500,Note_off_c,9,87,0,
2,16500,Note_off_c,9,88,0,
2,16500,Note_off_c,9,89,0,
2,16500,Note_off_c,9,91,0,
2,16500,Note_off_c,9,93,0,
2,16530,Note_off_c,9,35,0,
2,16530,Note_off_c,9,36,0,
2,16530,Note_off_c,9,37,0,
2,16530,Note_off_c,9,38,0,
2,16530,Note_off_c,9,39,0,
2,16530,Note_off_c,9,40,0,
2,16530,Note_off_c,9,41,0,
2,16530,Note_off_c,9,42,0,
2,16530,Note_off_c,9,43,0,
2,16530,Note_off_c,9,44,0,
2,16530,Note_off_c,9,45,0,
2,16530,Note_off_c,9,46,0,
2,16530,Note_off_c,9,47,0,
2,16530,Note_off_c,9,48,0,
2,16530,Note_off_c,9,49,0,
2,16530,Note_off_c,9,50,0,
2,16530,Note_off_c,9,51,0,
2,16530,Note_off_c,9,56,0,
2,16530,Note_off_c,9,57,0,
2,16530,Note_off_c,9,59,0,
2,16530,Note_off_c,9,60,0,
2,16530,Note_off_c,9,61,0,
2,16530,Note_off_c,9,63,0,
2,16530,Note_off_c,9,68,0,
2,16530,Note_off_c,9,69,0,
2,16530,Note_off_c,9,70,0,
2,16530,Note_off_c,9,76,0,
2,16530,Note_off_c,9,80,0,
2,16530,Note_off_c,9,81,0,
2,16530,Note_off_c,9,82,0,
2,16530,Note_off_c,9,87,0,
2,16530,Note_off_c,9,88,0,
2,16530,Note_off_c,9,89,0,
2,16530,Note_off_c,9,91,0,
2,16530,Note_off_c,9,93,0,
2,16560,Note_off_c,9,35,0,
2,16560,Note_off_c,9,36,0,
2,16560,Note_off_c,9,37,0,
2,16560,Note_off_c,9,38,0,
2,16560,Note_off_c,9,39,0,
2,16560,Note_off_c,9,40,0,
2,16560,Note_off_c,9,41,0,
2,16560,Note_off_c,9,42,0,
2,16560,Note_off_c,9,43,0,
2,16560,Note_off_c,9,44,0,
2,16560,Note_off_c,9,45,0,
2,16560,Note_off_c,9,46,0,
2,16560,Note_off_c,9,47,0,
2,16560,Note_off_c,9,48,0,
2,16560,Note_off_c,9,49,0,
2,16560,Note_off_c,9,50,0,
2,16560,Note_off_c,9,51,0,
2,16560,Note_off_c,9,56,0,
2,16560,Note_off_c,9,57,0,
2,16560,Note_off_c,9,59,0,
2,16560,Note_off_c,9,60,0,
2,16560,Note_off_c,9,61,0,
2,16560,Note_off_c,9,63,0,
2,16560,Note_off_c,9,68,0,
2,16560,Note_off_c,9,69,0,
2,16560,Note_off_c,9,70,0,
2,16560,Note_off_c,9,76,0,
2,16560,Note_off_c,9,80,0,
2,16560,Note_off_c,9,81,0,
2,16560,Note_off_c,9,82,0,
2,16560,Note_off_c,9,87,0,
2,16560,Note_off_c,9,88,0,
2,16560,Note_off_c,9,89,0,
2,16560,Note_off_c,9,91,0,
2,16560,Note_off_c,9,93,0,
2,16590,Note_off_c,9,35,0,
2,16590,Note_off_c,9,36,0,
2,16590,Note_off_c,9,37,0,
2,16590,Note_off_c,9,38,0,
2,16590,Note_off_c,9,39,0,
2,16590,Note_off_c,9,40,0,
2,16590,Note_off_c,9,41,0,
2,16590,Note_off_c,9,42,0,
2,16590,Note_off_c,9,43,0,
2,16590,Note_off_c,9,44,0,
2,16590,Note_off_c,9,45,0,
2,16590,Note_off_c,9,46,0,
2,16590,Note_off_c,9,47,0,
2,16590,Note_off_c,9,48,0,
2,16590,Note_off_c,9,49,0,
2,16590,Note_off_c,9,50,0,
2,16590,Note_off_c,9,51,0,
2,16590,Note_off_c,9,56,0,
2,16590,Note_off_c,9,57,0,
2,16590,Note_off_c,9,59,0,
2,16590,Note_off_c,9,60,0,
2,16590,Note_off_c,9,61,0,
2,16590,Note_off_c,9,63,0,
2,16590,Note_off_c,9,68,0,
2,16590,Note_off_c,9,69,0,
2,16590,Note_off_c,9,70,0,
2,16590,Note_off_c,9,76,0,
2,16590,Note_off_c,9,80,0,
2,16590,Note_off_c,9,81,0,
2,16590,Note_off_c,9,82,0,
2,16590,Note_off_c,9,87,0,
2,16590,Note_off_c,9,88,0,
2,16590,Note_off_c,9,89,0,
2,16590,Note_off_c,9,91,0,
2,16590,Note_off_c,9,93,0,
2,16620,Note_off_c,9,35,0,
2,16620,Note_off_c,9,36,0,
2,16620,Note_off_c,9,37,0,
2,16620,Note_off_c,9,38,0,
2,16620,Note_off_c,9,39,0,
2,16620,Note_off_c,9,40,0,
2,16620,Note_off_c,9,41,0,
2,16620,Note_off_c,9,42,0,
2,16620,Note_off_c,9,43,0,
2,16620,Note_off_c,9,44,0,
2,16620,Note_off_c,9,45,0,
2,16620,Note_off_c,9,46,0,
2,16620,Note_off_c,9,47,0,
2,16620,Note_off_c,9,48,0,
2,16620,Note_off_c,9,49,0,
2,16620,Note_off_c,9,50,0,
2,16620,Note_off_c,9,51,0,
2,16620,Note_off_c,9,56,0,
2,16620,Note_off_c,9,57,0,
2,16620,Note_off_c,9,59,0,
2,16620,Note_off_c,9,60,0,
2,16620,Note_off_c,9,61,0,
2,16620,Note_off_c,9,63,0,
2,16620,Note_off_c,9,68,0,
2,16620,Note_off_c,9,69,0,
2,16620,Note_off_c,9,70,0,
2,16620,Note_off_c,9,76,0,
2,16620,Note_off_c,9,80,0,
2,16620,Note_off_c,9,81,0,
2,16620,Note_off_c,9,82,0,
2,16620,Note_off_c,9,87,0,
2,16620,Note_off_c,9,88,0,
2,16620,Note_off_c,9,89,0,
2,16620,Note_off_c,9,91,0,
2,16620,Note_off_c,9,93,0,
2,16650,Note_off_c,9,35,0,
2,16650,Note_off_c,9,36,0,
2,16650,Note_off_c,9,37,0,
2,16650,Note_off_c,9,38,0,
2,16650,Note_off_c,9,39,0,
2,16650,Note_off_c,9,40,0,
2,16650,Note_off_c,9,41,0,
2,16650,Note_off_c,9,42,0,
2,16650,Note_off_c,9,43,0,
2,16650,Note_off_c,9,44,0,
2,16650,Note_off_c,9,45,0,
2,16650,Note_off_c,9,46,0,
2,16650,Note_off_c,9,47,0,
2,16650,Note_off_c,9,48,0,
2,16650,Note_off_c,9,49,0,
2,16650,Note_off_c,9,50,0,
2,16650,Note_off_c,9,51,0,
2,16650,Note_off_c,9,56,0,
2,16650,Note_off_c,9,57,0,
2,16650,Note_off_c,9,59,0,
2,16650,Note_off_c,9,60,0,
2,16650,Note_off_c,9,61,0,
2,16650,Note_off_c,9,63,0,
2,16650,Note_off_c,9,68,0,
2,16650,Note_off_c,9,69,0,
2,16650,Note_off_c,9,70,0,
2,16650,Note_off_c,9,76,0,
2,16650,Note_off_c,9,80,0,
2,16650,Note_off_c,9,81,0,
2,16650,Note_off_c,9,82,0,
2,16650,Note_off_c,9,87,0,
2,16650,Note_off_c,9,88,0,
2,16650,Note_off_c,9,89,0,
2,16650,Note_off_c,9,91,0,
2,16650,Note_off_c,9,93,0,
2,16680,Note_off_c,9,35,0,
2,16680,Note_off_c,9,36,0,
2,16680,Note_off_c,9,37,0,
2,16680,Note_off_c,9,38,0,
2,16680,Note_off_c,9,39,0,
2,16680,Note_off_c,9,40,0,
2,16680,Note_off_c,9,41,0,
2,16680,Note_off_c,9,42,0,
2,16680,Note_off_c,9,43,0,
2,16680,Note_off_c,9,44,0,
2,16680,Note_off_c,9,45,0,
2,16680,Note_off_c,9,46,0,
2,16680,Note_off_c,9,47,0,
2,16680,Note_off_c,9,48,0,
2,16680,Note_off_c,9,49,0,
2,16680,Note_off_c,9,50,0,
2,16680,Note_off_c,9,51,0,
2,16680,Note_off_c,9,56,0,
2,16680,Note_off_c,9,57,0,
2,16680,Note_off_c,9,59,0,
2,16680,Note_off_c,9,60,0,
2,16680,Note_off_c,9,61,0,
2,16680,Note_off_c,9,63,0,
2,16680,Note_off_c,9,68,0,
2,16680,Note_off_c,9,69,0,
2,16680,Note_off_c,9,70,0,
2,16680,Note_off_c,9,76,0,
2,16680,Note_off_c,9,80,0,
2,16680,Note_off_c,9,81,0,
2,16680,Note_off_c,9,82,0,
2,16680,Note_off_c,9,87,0,
2,16680,Note_off_c,9,88,0,
2,16680,Note_off_c,9,89,0,
2,16680,Note_off_c,9,91,0,
2,16680,Note_off_c,9,93,0,
2,16710,Note_off_c,9,35,0,
2,16710,Note_off_c,9,36,0,
2,16710,Note_off_c,9,37,0,
2,16710,Note_off_c,9,38,0,
2,16710,Note_off_c,9,39,0,
2,16710,Note_off_c,9,40,0,
2,16710,Note_off_c,9,41,0,
2,16710,Note_off_c,9,42,0,
2,16710,Note_off_c,9,43,0,
2,16710,Note_off_c,9,44,0,
2,16710,Note_off_c,9,45,0,
2,16710,Note_off_c,9,46,0,
2,16710,Note_off_c,9,47,0,
2,16710,Note_off_c,9,48,0,
2,16710,Note_off_c,9,49,0,
2,16710,Note_off_c,9,50,0,
2,16710,Note_off_c,9,51,0,
2,16710,Note_off_c,9,56,0,
2,16710,Note_off_c,9,57,0,
2,16710,Note_off_c,9,59,0,
2,16710,Note_off_c,9,60,0,
2,16710,Note_off_c,9,61,0,
2,16710,Note_off_c,9,63,0,
2,16710,Note_off_c,9,68,0,
2,16710,Note_off_c,9,69,0,
2,16710,Note_off_c,9,70,0,
2,16710,Note_off_c,9,76,0,
2,16710,Note_off_c,9,80,0,
2,16710,Note_off_c,9,81,0,
2,16710,Note_off_c,9,82,0,
2,16710,Note_off_c,9,87,0,
2,16710,Note_off_c,9,88,0,
2,16710,Note_off_c,9,89,0,
2,16710,Note_off_c,9,91,0,
2,16710,Note_off_c,9,93,0,
2,16740,Note_off_c,9,35,0,
2,16740,Note_off_c,9,36,0,
2,16740,Note_off_c,9,37,0,
2,16740,Note_off_c,9,38,0,
2,16740,Note_off_c,9,39,0,
2,16740,Note_off_c,9,40,0,
2,16740,Note_off_c,9,41,0,
2,16740,Note_off_c,9,42,0,
2,16740,Note_off_c,9,43,0,
2,16740,Note_off_c,9,44,0,
2,16740,Note_off_c,9,45,0,
2,16740,Note_off_c,9,46,0,
2,16740,Note_off_c,9,47,0,
2,16740,Note_off_c,9,48,0,
2,16740,Note_off_c,9,49,0,
2,16740,Note_off_c,9,50,0,
2,16740,Note_off_c,9,51,0,
2,16740,Note_off_c,9,56,0,
2,16740,Note_off_c,9,57,0,
2,16740,Note_off_c,9,59,0,
2,16740,Note_off_c,9,60,0,
2,16740,Note_off_c,9,61,0,
2,16740,Note_off_c,9,63,0,
2,16740,Note_off_c,9,68,0,
2,16740,Note_off_c,9,69,0,
2,16740,Note_off_c,9,70,0,
2,16740,Note_off_c,9,76,0,
2,16740,Note_off_c,9,80,0,
2,16740,Note_off_c,9,81,0,
2,16740,Note_off_c,9,82,0,
2,16740,Note_off_c,9,87,0,
2,16740,Note_off_c,9,88,0,
2,16740,Note_off_c,9,89,0,
2,16740,Note_off_c,9,91,0,
2,16740,Note_off_c,9,93,0,
2,16770,Note_off_c,9,35,0,
2,16770,Note_off_c,9,36,0,
2,16770,Note_off_c,9,37,0,
2,16770,Note_off_c,9,38,0,
2,16770,Note_off_c,9,39,0,
2,16770,Note_off_c,9,40,0,
2,16770,Note_off_c,9,41,0,
2,16770,Note_off_c,9,42,0,
2,16770,Note_off_c,9,43,0,
2,16770,Note_off_c,9,44,0,
2,16770,Note_off_c,9,45,0,
2,16770,Note_off_c,9,46,0,
2,16770,Note_off_c,9,47,0,
2,16770,Note_off_c,9,48,0,
2,16770,Note_off_c,9,49,0,
2,16770,Note_off_c,9,50,0,
2,16770,Note_off_c,9,51,0,
2,16770,Note_off_c,9,56,0,
2,16770,Note_off_c,9,57,0,
2,16770,Note_off_c,9,59,0,
2,16770,Note_off_c,9,60,0,
2,16770,Note_off_c,9,61,0,
2,16770,Note_off_c,9,63,0,
2,16770,Note_off_c,9,68,0,
2,16770,Note_off_c,9,69,0,
2,16770,Note_off_c,9,70,0,
2,16770,Note_off_c,9,76,0,
2,16770,Note_off_c,9,80,0,
2,16770,Note_off_c,9,81,0,
2,16770,Note_off_c,9,82,0,
2,16770,Note_off_c,9,87,0,
2,16770,Note_off_c,9,88,0,
2,16770,Note_off_c,9,89,0,
2,16770,Note_off_c,9,91,0,
2,16770,Note_off_c,9,93,0,
2,16800,Note_off_c,9,35,0,
2,16800,Note_off_c,9,36,0,
2,16800,Note_off_c,9,37,0,
2,16800,Note_off_c,9,38,0,
2,16800,Note_off_c,9,39,0,
2,16800,Note_off_c,9,40,0,
2,16800,Note_off_c,9,41,0,
2,16800,Note_off_c,9,42,0,
2,16800,Note_off_c,9,43,0,
2,16800,Note_off_c,9,44,0,
2,16800,Note_off_c,9,45,0,
2,16800,Note_off_c,9,46,0,
2,16800,Note_off_c,9,47,0,
2,16800,Note_off_c,9,48,0,
2,16800,Note_off_c,9,49,0,
2,16800,Note_off_c,9,50,0,
2,16800,Note_off_c,9,51,0,
2,16800,Note_off_c,9,56,0,
2,16800,Note_off_c,9,57,0,
2,16800,Note_off_c,9,59,0,
2,16800,Note_off_c,9,60,0,
2,16800,Note_off_c,9,61,0,
2,16800,Note_off_c,9,63,0,
2,16800,Note_off_c,9,68,0,
2,16800,Note_off_c,9,69,0,
2,16800,Note_off_c,9,70,0,
2,16800,Note_off_c,9,76,0,
2,16800,Note_off_c,9,80,0,
2,16800,Note_off_c,9,81,0,
2,16800,Note_off_c,9,82,0,
2,16800,Note_off_c,9,87,0,
2,16800,Note_off_c,9,88,0,
2,16800,Note_off_c,9,89,0,
2,16800,Note_off_c,9,91,0,
2,16800,Note_off_c,9,93,0,
2,16830,Note_off_c,9,35,0,
2,16830,Note_off_c,9,36,0,
2,16830,Note_off_c,9,37,0,
2,16830,Note_off_c,9,38,0,
2,16830,Note_off_c,9,39,0,
2,16830,Note_off_c,9,40,0,
2,16830,Note_off_c,9,41,0,
2,16830,Note_off_c,9,42,0,
2,16830,Note_off_c,9,43,0,
2,16830,Note_off_c,9,44,0,
2,16830,Note_off_c,9,45,0,
2,16830,Note_off_c,9,46,0,
2,16830,Note_off_c,9,47,0,
2,16830,Note_off_c,9,48,0,
2,16830,Note_off_c,9,49,0,
2,16830,Note_off_c,9,50,0,
2,16830,Note_off_c,9,51,0,
2,16830,Note_off_c,9,56,0,
2,16830,Note_off_c,9,57,0,
2,16830,Note_off_c,9,59,0,
2,16830,Note_off_c,9,60,0,
2,16830,Note_off_c,9,61,0,
2,16830,Note_off_c,9,63,0,
2,16830,Note_off_c,9,68,0,
2,16830,Note_off_c,9,69,0,
2,16830,Note_off_c,9,70,0,
2,16830,Note_off_c,9,76,0,
2,16830,Note_off_c,9,80,0,
2,16830,Note_off_c,9,81,0,
2,16830,Note_off_c,9,82,0,
2,16830,Note_off_c,9,87,0,
2,16830,Note_off_c,9,88,0,
2,16830,Note_off_c,9,89,0,
2,16830,Note_off_c,9,91,0,
2,16830,Note_off_c,9,93,0,
2,16860,Note_off_c,9,35,0,
2,16860,Note_off_c,9,36,0,
2,16860,Note_off_c,9,37,0,
2,16860,Note_off_c,9,38,0,
2,16860,Note_off_c,9,39,0,
2,16860,Note_off_c,9,40,0,
2,16860,Note_off_c,9,41,0,
2,16860,Note_off_c,9,42,0,
2,16860,Note_off_c,9,43,0,
2,16860,Note_off_c,9,44,0,
2,16860,Note_off_c,9,45,0,
2,16860,Note_off_c,9,46,0,
2,16860,Note_off_c,9,47,0,
2,16860,Note_off_c,9,48,0,
2,16860,Note_off_c,9,49,0,
2,16860,Note_off_c,9,50,0,
2,16860,Note_off_c,9,51,0,
2,16860,Note_off_c,9,56,0,
2,16860,Note_off_c,9,57,0,
2,16860,Note_off_c,9,59,0,
2,16860,Note_off_c,9,60,0,
2,16860,Note_off_c,9,61,0,
2,16860,Note_off_c,9,63,0,
2,16860,Note_off_c,9,68,0,
2,16860,Note_off_c,9,69,0,
2,16860,Note_off_c,9,70,0,
2,16860,Note_off_c,9,76,0,
2,16860,Note_off_c,9,80,0,
2,16860,Note_off_c,9,81,0,
2,16860,Note_off_c,9,82,0,
2,16860,Note_off_c,9,87,0,
2,16860,Note_off_c,9,88,0,
2,16860,Note_off_c,9,89,0,
2,16860,Note_off_c,9,91,0,
2,16860,Note_off_c,9,93,0,
2,16890,Note_off_c,9,35,0,
2,16890,Note_off_c,9,36,0,
2,16890,Note_off_c,9,37,0,
2,16890,Note_off_c,9,38,0,
2,16890,Note_off_c,9,39,0,
2,16890,Note_off_c,9,40,0,
2,16890,Note_off_c,9,41,0,
2,16890,Note_off_c,9,42,0,
2,16890,Note_off_c,9,43,0,
2,16890,Note_off_c,9,44,0,
2,16890,Note_off_c,9,45,0,
2,16890,Note_off_c,9,46,0,
2,16890,Note_off_c,9,47,0,
2,16890,Note_off_c,9,48,0,
2,16890,Note_off_c,9,49,0,
2,16890,Note_off_c,9,50,0,
2,16890,Note_off_c,9,51,0,
2,16890,Note_off_c,9,56,0,
2,16890,Note_off_c,9,57,0,
2,16890,Note_off_c,9,59,0,
2,16890,Note_off_c,9,60,0,
2,16890,Note_off_c,9,61,0,
2,16890,Note_off_c,9,63,0,
2,16890,Note_off_c,9,68,0,
2,16890,Note_off_c,9,69,0,
2,16890,Note_off_c,9,70,0,
2,16890,Note_off_c,9,76,0,
2,16890,Note_off_c,9,80,0,
2,16890,Note_off_c,9,81,0,
2,16890,Note_off_c,9,82,0,
2,16890,Note_off_c,9,87,0,
2,16890,Note_off_c,9,88,0,
2,16890,Note_off_c,9,89,0,
2,16890,Note_off_c,9,91,0,
2,16890,Note_off_c,9,93,0,
2,16920,Note_off_c,9,35,0,
2,16920,Note_off_c,9,36,0,
2,16920,Note_off_c,9,37,0,
2,16920,Note_off_c,9,38,0,
2,16920,Note_off_c,9,39,0,
2,16920,Note_off_c,9,40,0,
2,16920,Note_off_c,9,41,0,
2,16920,Note_off_c,9,42,0,
2,16920,Note_off_c,9,43,0,
2,16920,Note_off_c,9,44,0,
2,16920,Note_off_c,9,45,0,
2,16920,Note_off_c,9,46,0,
2,16920,Note_off_c,9,47,0,
2,16920,Note_off_c,9,48,0,
2,16920,Note_off_c,9,49,0,
2,16920,Note_off_c,9,50,0,
2,16920,Note_off_c,9,51,0,
2,16920,Note_off_c,9,56,0,
2,16920,Note_off_c,9,57,0,
2,16920,Note_off_c,9,59,0,
2,16920,Note_off_c,9,60,0,
2,16920,Note_off_c,9,61,0,
2,16920,Note_off_c,9,63,0,
2,16920,Note_off_c,9,68,0,
2,16920,Note_off_c,9,69,0,
2,16920,Note_off_c,9,70,0,
2,16920,Note_off_c,9,76,0,
2,16920,Note_off_c,9,80,0,
2,16920,Note_off_c,9,81,0,
2,16920,Note_off_c,9,82,0,
2,16920,Note_off_c,9,87,0,
2,16920,Note_off_c,9,88,0,
2,16920,Note_off_c,9,89,0,
2,16920,Note_off_c,9,91,0,
2,16920,Note_off_c,9,93,0,
2,16950,Note_off_c,9,35,0,
2,16950,Note_off_c,9,36,0,
2,16950,Note_off_c,9,37,0,
2,16950,Note_off_c,9,38,0,
2,16950,Note_off_c,9,39,0,
2,16950,Note_off_c,9,40,0,
2,16950,Note_off_c,9,41,0,
2,16950,Note_off_c,9,42,0,
2,16950,Note_off_c,9,43,0,
2,16950,Note_off_c,9,44,0,
2,16950,Note_off_c,9,45,0,
2,16950,Note_off_c,9,46,0,
2,16950,Note_off_c,9,47,0,
2,16950,Note_off_c,9,48,0,
2,16950,Note_off_c,9,49,0,
2,16950,Note_off_c,9,50,0,
2,16950,Note_off_c,9,51,0,
2,16950,Note_off_c,9,56,0,
2,16950,Note_off_c,9,57,0,
2,16950,Note_off_c,9,59,0,
2,16950,Note_off_c,9,60,0,
2,16950,Note_off_c,9,61,0,
2,16950,Note_off_c,9,63,0,
2,16950,Note_off_c,9,68,0,
2,16950,Note_off_c,9,69,0,
2,16950,Note_off_c,9,70,0,
2,16950,Note_off_c,9,76,0,
2,16950,Note_off_c,9,80,0,
2,16950,Note_off_c,9,81,0,
2,16950,Note_off_c,9,82,0,
2,16950,Note_off_c,9,87,0,
2,16950,Note_off_c,9,88,0,
2,16950,Note_off_c,9,89,0,
2,16950,Note_off_c,9,91,0,
2,16950,Note_off_c,9,93,0,
2,16980,Note_off_c,9,35,0,
2,16980,Note_off_c,9,36,0,
2,16980,Note_off_c,9,37,0,
2,16980,Note_off_c,9,38,0,
2,16980,Note_off_c,9,39,0,
2,16980,Note_off_c,9,40,0,
2,16980,Note_off_c,9,41,0,
2,16980,Note_off_c,9,42,0,
2,16980,Note_off_c,9,43,0,
2,16980,Note_off_c,9,44,0,
2,16980,Note_off_c,9,45,0,
2,16980,Note_off_c,9,46,0,
2,16980,Note_off_c,9,47,0,
2,16980,Note_off_c,9,48,0,
2,16980,Note_off_c,9,49,0,
2,16980,Note_off_c,9,50,0,
2,16980,Note_off_c,9,51,0,
2,16980,Note_off_c,9,56,0,
2,16980,Note_off_c,9,57,0,
2,16980,Note_off_c,9,59,0,
2,16980,Note_off_c,9,60,0,
2,16980,Note_off_c,9,61,0,
2,16980,Note_off_c,9,63,0,
2,16980,Note_off_c,9,68,0,
2,16980,Note_off_c,9,69,0,
2,16980,Note_off_c,9,70,0,
2,16980,Note_off_c,9,76,0,
2,16980,Note_off_c,9,80,0,
2,16980,Note_off_c,9,81,0,
2,16980,Note_off_c,9,82,0,
2,16980,Note_off_c,9,87,0,
2,16980,Note_off_c,9,88,0,
2,16980,Note_off_c,9,89,0,
2,16980,Note_off_c,9,91,0,
2,16980,Note_off_c,9,93,0,
2,17010,Note_off_c,9,35,0,
2,17010,Note_off_c,9,36,0,
2,17010,Note_off_c,9,37,0,
2,17010,Note_off_c,9,38,0,
2,17010,Note_off_c,9,39,0,
2,17010,Note_off_c,9,40,0,
2,17010,Note_off_c,9,41,0,
2,17010,Note_off_c,9,42,0,
2,17010,Note_off_c,9,43,0,
2,17010,Note_off_c,9,44,0,
2,17010,Note_off_c,9,45,0,
2,17010,Note_off_c,9,46,0,
2,17010,Note_off_c,9,47,0,
2,17010,Note_off_c,9,48,0,
2,17010,Note_off_c,9,49,0,
2,17010,Note_off_c,9,50,0,
2,17010,Note_off_c,9,51,0,
2,17010,Note_off_c,9,56,0,
2,17010,Note_off_c,9,57,0,
2,17010,Note_off_c,9,59,0,
2,17010,Note_off_c,9,60,0,
2,17010,Note_off_c,9,61,0,
2,17010,Note_off_c,9,63,0,
2,17010,Note_off_c,9,68,0,
2,17010,Note_off_c,9,69,0,
2,17010,Note_off_c,9,70,0,
2,17010,Note_off_c,9,76,0,
2,17010,Note_off_c,9,80,0,
2,17010,Note_off_c,9,81,0,
2,17010,Note_off_c,9,82,0,
2,17010,Note_off_c,9,87,0,
2,17010,Note_off_c,9,88,0,
2,17010,Note_off_c,9,89,0,
2,17010,Note_off_c,9,91,0,
2,17010,Note_off_c,9,93,0,
2,17040,Note_off_c,9,35,0,
2,17040,Note_off_c,9,36,0,
2,17040,Note_off_c,9,37,0,
2,17040,Note_off_c,9,38,0,
2,17040,Note_off_c,9,39,0,
2,17040,Note_off_c,9,40,0,
2,17040,Note_off_c,9,41,0,
2,17040,Note_off_c,9,42,0,
2,17040,Note_off_c,9,43,0,
2,17040,Note_off_c,9,44,0,
2,17040,Note_off_c,9,45,0,
2,17040,Note_off_c,9,46,0,
2,17040,Note_off_c,9,47,0,
2,17040,Note_off_c,9,48,0,
2,17040,Note_off_c,9,49,0,
2,17040,Note_off_c,9,50,0,
2,17040,Note_off_c,9,51,0,
2,17040,Note_off_c,9,56,0,
2,17040,Note_off_c,9,57,0,
2,17040,Note_off_c,9,59,0,
2,17040,Note_off_c,9,60,0,
2,17040,Note_off_c,9,61,0,
2,17040,Note_off_c,9,63,0,
2,17040,Note_off_c,9,68,0,
2,17040,Note_off_c,9,69,0,
2,17040,Note_off_c,9,70,0,
2,17040,Note_off_c,9,76,0,
2,17040,Note_off_c,9,80,0,
2,17040,Note_off_c,9,81,0,
2,17040,Note_off_c,9,82,0,
2,17040,Note_off_c,9,87,0,
2,17040,Note_off_c,9,88,0,
2,17040,Note_off_c,9,89,0,
2,17040,Note_off_c,9,91,0,
2,17040,Note_off_c,9,93,0,
2,17070,Note_off_c,9,35,0,
2,17070,Note_off_c,9,36,0,
2,17070,Note_off_c,9,37,0,
2,17070,Note_off_c,9,38,0,
2,17070,Note_off_c,9,39,0,
2,17070,Note_off_c,9,40,0,
2,17070,Note_off_c,9,41,0,
2,17070,Note_off_c,9,42,0,
2,17070,Note_off_c,9,43,0,
2,17070,Note_off_c,9,44,0,
2,17070,Note_off_c,9,45,0,
2,17070,Note_off_c,9,46,0,
2,17070,Note_off_c,9,47,0,
2,17070,Note_off_c,9,48,0,
2,17070,Note_off_c,9,49,0,
2,17070,Note_off_c,9,50,0,
2,17070,Note_off_c,9,51,0,
2,17070,Note_off_c,9,56,0,
2,17070,Note_off_c,9,57,0,
2,17070,Note_off_c,9,59,0,
2,17070,Note_off_c,9,60,0,
2,17070,Note_off_c,9,61,0,
2,17070,Note_off_c,9,63,0,
2,17070,Note_off_c,9,68,0,
2,17070,Note_off_c,9,69,0,
2,17070,Note_off_c,9,70,0,
2,17070,Note_off_c,9,76,0,
2,17070,Note_off_c,9,80,0,
2,17070,Note_off_c,9,81,0,
2,17070,Note_off_c,9,82,0,
2,17070,Note_off_c,9,87,0,
2,17070,Note_off_c,9,88,0,
2,17070,Note_off_c,9,89,0,
2,17070,Note_off_c,9,91,0,
2,17070,Note_off_c,9,93,0,
2,17100,Note_off_c,9,35,0,
2,17100,Note_off_c,9,36,0,
2,17100,Note_off_c,9,37,0,
2,17100,Note_off_c,9,38,0,
2,17100,Note_off_c,9,39,0,
2,17100,Note_off_c,9,40,0,
2,17100,Note_off_c,9,41,0,
2,17100,Note_off_c,9,42,0,
2,17100,Note_off_c,9,43,0,
2,17100,Note_off_c,9,44,0,
2,17100,Note_off_c,9,45,0,
2,17100,Note_off_c,9,46,0,
2,17100,Note_off_c,9,47,0,
2,17100,Note_off_c,9,48,0,
2,17100,Note_off_c,9,49,0,
2,17100,Note_off_c,9,50,0,
2,17100,Note_off_c,9,51,0,
2,17100,Note_off_c,9,56,0,
2,17100,Note_off_c,9,57,0,
2,17100,Note_off_c,9,59,0,
2,17100,Note_off_c,9,60,0,
2,17100,Note_off_c,9,61,0,
2,17100,Note_off_c,9,63,0,
2,17100,Note_off_c,9,68,0,
2,17100,Note_off_c,9,69,0,
2,17100,Note_off_c,9,70,0,
2,17100,Note_off_c,9,76,0,
2,17100,Note_off_c,9,80,0,
2,17100,Note_off_c,9,81,0,
2,17100,Note_off_c,9,82,0,
2,17100,Note_off_c,9,87,0,
2,17100,Note_off_c,9,88,0,
2,17100,Note_off_c,9,89,0,
2,17100,Note_off_c,9,91,0,
2,17100,Note_off_c,9,93,0,
2,17130,Note_off_c,9,35,0,
2,17130,Note_off_c,9,36,0,
2,17130,Note_off_c,9,37,0,
2,17130,Note_off_c,9,38,0,
2,17130,Note_off_c,9,39,0,
2,17130,Note_off_c,9,40,0,
2,17130,Note_off_c,9,41,0,
2,17130,Note_off_c,9,42,0,
2,17130,Note_off_c,9,43,0,
2,17130,Note_off_c,9,44,0,
2,17130,Note_off_c,9,45,0,
2,17130,Note_off_c,9,46,0,
2,17130,Note_off_c,9,47,0,
2,17130,Note_off_c,9,48,0,
2,17130,Note_off_c,9,49,0,
2,17130,Note_off_c,9,50,0,
2,17130,Note_off_c,9,51,0,
2,17130,Note_off_c,9,56,0,
2,17130,Note_off_c,9,57,0,
2,17130,Note_off_c,9,59,0,
2,17130,Note_off_c,9,60,0,
2,17130,Note_off_c,9,61,0,
2,17130,Note_off_c,9,63,0,
2,17130,Note_off_c,9,68,0,
2,17130,Note_off_c,9,69,0,
2,17130,Note_off_c,9,70,0,
2,17130,Note_off_c,9,76,0,
2,17130,Note_off_c,9,80,0,
2,17130,Note_off_c,9,81,0,
2,17130,Note_off_c,9,82,0,
2,17130,Note_off_c,9,87,0,
2,17130,Note_off_c,9,88,0,
2,17130,Note_off_c,9,89,0,
2,17130,Note_off_c,9,91,0,
2,17130,Note_off_c,9,93,0,
2,17160,Note_off_c,9,35,0,
2,17160,Note_off_c,9,36,0,
2,17160,Note_off_c,9,37,0,
2,17160,Note_off_c,9,38,0,
2,17160,Note_off_c,9,39,0,
2,17160,Note_off_c,9,40,0,
2,17160,Note_off_c,9,41,0,
2,17160,Note_off_c,9,42,0,
2,17160,Note_off_c,9,43,0,
2,17160,Note_off_c,9,44,0,
2,17160,Note_off_c,9,45,0,
2,17160,Note_off_c,9,46,0,
2,17160,Note_off_c,9,47,0,
2,17160,Note_off_c,9,48,0,
2,17160,Note_off_c,9,49,0,
2,17160,Note_off_c,9,50,0,
2,17160,Note_off_c,9,51,0,
2,17160,Note_off_c,9,56,0,
2,17160,Note_off_c,9,57,0,
2,17160,Note_off_c,9,59,0,
2,17160,Note_off_c,9,60,0,
2,17160,Note_off_c,9,61,0,
2,17160,Note_off_c,9,63,0,
2,17160,Note_off_c,9,68,0,
2,17160,Note_off_c,9,69,0,
2,17160,Note_off_c,9,70,0,
2,17160,Note_off_c,9,76,0,
2,17160,Note_off_c,9,80,0,
2,17160,Note_off_c,9,81,0,
2,17160,Note_off_c,9,82,0,
2,17160,Note_off_c,9,87,0,
2,17160,Note_off_c,9,88,0,
2,17160,Note_off_c,9,89,0,
2,17160,Note_off_c,9,91,0,
2,17160,Note_off_c,9,93,0,
2,17190,Note_off_c,9,35,0,
2,17190,Note_off_c,9,36,0,
2,17190,Note_off_c,9,37,0,
2,17190,Note_off_c,9,38,0,
2,17190,Note_off_c,9,39,0,
2,17190,Note_off_c,9,40,0,
2,17190,Note_off_c,9,41,0,
2,17190,Note_off_c,9,42,0,
2,17190,Note_off_c,9,43,0,
2,17190,Note_off_c,9,44,0,
2,17190,Note_off_c,9,45,0,
2,17190,Note_off_c,9,46,0,
2,17190,Note_off_c,9,47,0,
2,17190,Note_off_c,9,48,0,
2,17190,Note_off_c,9,49,0,
2,17190,Note_off_c,9,50,0,
2,17190,Note_off_c,9,51,0,
2,17190,Note_off_c,9,56,0,
2,17190,Note_off_c,9,57,0,
2,17190,Note_off_c,9,59,0,
2,17190,Note_off_c,9,60,0,
2,17190,Note_off_c,9,61,0,
2,17190,Note_off_c,9,63,0,
2,17190,Note_off_c,9,68,0,
2,17190,Note_off_c,9,69,0,
2,17190,Note_off_c,9,70,0,
2,17190,Note_off_c,9,76,0,
2,17190,Note_off_c,9,80,0,
2,17190,Note_off_c,9,81,0,
2,17190,Note_off_c,9,82,0,
2,17190,Note_off_c,9,87,0,
2,17190,Note_off_c,9,88,0,
2,17190,Note_off_c,9,89,0,
2,17190,Note_off_c,9,91,0,
2,17190,Note_off_c,9,93,0,
2,17220,Note_off_c,9,35,0,
2,17220,Note_off_c,9,36,0,
2,17220,Note_off_c,9,37,0,
2,17220,Note_off_c,9,38,0,
2,17220,Note_off_c,9,39,0,
2,17220,Note_off_c,9,40,0,
2,17220,Note_off_c,9,41,0,
2,17220,Note_off_c,9,42,0,
2,17220,Note_off_c,9,43,0,
2,17220,Note_off_c,9,44,0,
2,17220,Note_off_c,9,45,0,
2,17220,Note_off_c,9,46,0,
2,17220,Note_off_c,9,47,0,
2,17220,Note_off_c,9,48,0,
2,17220,Note_off_c,9,49,0,
2,17220,Note_off_c,9,50,0,
2,17220,Note_off_c,9,51,0,
2,17220,Note_off_c,9,56,0,
2,17220,Note_off_c,9,57,0,
2,17220,Note_off_c,9,59,0,
2,17220,Note_off_c,9,60,0,
2,17220,Note_off_c,9,61,0,
2,17220,Note_off_c,9,63,0,
2,17220,Note_off_c,9,68,0,
2,17220,Note_off_c,9,69,0,
2,17220,Note_off_c,9,70,0,
2,17220,Note_off_c,9,76,0,
2,17220,Note_off_c,9,80,0,
2,17220,Note_off_c,9,81,0,
2,17220,Note_off_c,9,82,0,
2,17220,Note_off_c,9,87,0,
2,17220,Note_off_c,9,88,0,
2,17220,Note_off_c,9,89,0,
2,17220,Note_off_c,9,91,0,
2,17220,Note_off_c,9,93,0,
2,17250,Note_off_c,9,35,0,
2,17250,Note_off_c,9,36,0,
2,17250,Note_off_c,9,37,0,
2,17250,Note_off_c,9,38,0,
2,17250,Note_off_c,9,39,0,
2,17250,Note_off_c,9,40,0,
2,17250,Note_off_c,9,41,0,
2,17250,Note_off_c,9,42,0,
2,17250,Note_off_c,9,43,0,
2,17250,Note_off_c,9,44,0,
2,17250,Note_off_c,9,45,0,
2,17250,Note_off_c,9,46,0,
2,17250,Note_off_c,9,47,0,
2,17250,Note_off_c,9,48,0,
2,17250,Note_off_c,9,49,0,
2,17250,Note_off_c,9,50,0,
2,17250,Note_off_c,9,51,0,
2,17250,Note_off_c,9,56,0,
2,17250,Note_off_c,9,57,0,
2,17250,Note_off_c,9,59,0,
2,17250,Note_off_c,9,60,0,
2,17250,Note_off_c,9,61,0,
2,17250,Note_off_c,9,63,0,
2,17250,Note_off_c,9,68,0,
2,17250,Note_off_c,9,69,0,
2,17250,Note_off_c,9,70,0,
2,17250,Note_off_c,9,76,0,
2,17250,Note_off_c,9,80,0,
2,17250,Note_off_c,9,81,0,
2,17250,Note_off_c,9,82,0,
2,17250,Note_off_c,9,87,0,
2,17250,Note_off_c,9,88,0,
2,17250,Note_off_c,9,89,0,
2,17250,Note_off_c,9,91,0,
2,17250,Note_off_c,9,93,0,
2,17280,Note_off_c,9,35,0,
2,17280,Note_off_c,9,36,0,
2,17280,Note_off_c,9,37,0,
2,17280,Note_off_c,9,38,0,
2,17280,Note_off_c,9,39,0,
2,17280,Note_off_c,9,40,0,
2,17280,Note_off_c,9,41,0,
2,17280,Note_off_c,9,42,0,
2,17280,Note_off_c,9,43,0,
2,17280,Note_off_c,9,44,0,
2,17280,Note_off_c,9,45,0,
2,17280,Note_off_c,9,46,0,
2,17280,Note_off_c,9,47,0,
2,17280,Note_off_c,9,48,0,
2,17280,Note_off_c,9,49,0,
2,17280,Note_off_c,9,50,0,
2,17280,Note_off_c,9,51,0,
2,17280,Note_off_c,9,56,0,
2,17280,Note_off_c,9,57,0,
2,17280,Note_off_c,9,59,0,
2,17280,Note_off_c,9,60,0,
2,17280,Note_off_c,9,61,0,
2,17280,Note_off_c,9,63,0,
2,17280,Note_off_c,9,68,0,
2,17280,Note_off_c,9,69,0,
2,17280,Note_off_c,9,70,0,
2,17280,Note_off_c,9,76,0,
2,17280,Note_off_c,9,80,0,
2,17280,Note_off_c,9,81,0,
2,17280,Note_off_c,9,82,0,
2,17280,Note_off_c,9,87,0,
2,17280,Note_off_c,9,88,0,
2,17280,Note_off_c,9,89,0,
2,17280,Note_off_c,9,91,0,
2,17280,Note_off_c,9,93,0,
2,17310,Note_off_c,9,35,0,
2,17310,Note_off_c,9,36,0,
2,17310,Note_off_c,9,37,0,
2,17310,Note_off_c,9,38,0,
2,17310,Note_off_c,9,39,0,
2,17310,Note_off_c,9,40,0,
2,17310,Note_off_c,9,41,0,
2,17310,Note_off_c,9,42,0,
2,17310,Note_off_c,9,43,0,
2,17310,Note_off_c,9,44,0,
2,17310,Note_off_c,9,45,0,
2,17310,Note_off_c,9,46,0,
2,17310,Note_off_c,9,47,0,
2,17310,Note_off_c,9,48,0,
2,17310,Note_off_c,9,49,0,
2,17310,Note_off_c,9,50,0,
2,17310,Note_off_c,9,51,0,
2,17310,Note_off_c,9,56,0,
2,17310,Note_off_c,9,57,0,
2,17310,Note_off_c,9,59,0,
2,17310,Note_off_c,9,60,0,
2,17310,Note_off_c,9,61,0,
2,17310,Note_off_c,9,63,0,
2,17310,Note_off_c,9,68,0,
2,17310,Note_off_c,9,69,0,
2,17310,Note_off_c,9,70,0,
2,17310,Note_off_c,9,76,0,
2,17310,Note_off_c,9,80,0,
2,17310,Note_off_c,9,81,0,
2,17310,Note_off_c,9,82,0,
2,17310,Note_off_c,9,87,0,
2,17310,Note_off_c,9,88,0,
2,17310,Note_off_c,9,89,0,
2,17310,Note_off_c,9,91,0,
2,17310,Note_off_c,9,93,0,
2,17340,Note_off_c,9,35,0,
2,17340,Note_off_c,9,36,0,
2,17340,Note_off_c,9,37,0,
2,17340,Note_off_c,9,38,0,
2,17340,Note_off_c,9,39,0,
2,17340,Note_off_c,9,40,0,
2,17340,Note_off_c,9,41,0,
2,17340,Note_off_c,9,42,0,
2,17340,Note_off_c,9,43,0,
2,17340,Note_off_c,9,44,0,
2,17340,Note_off_c,9,45,0,
2,17340,Note_off_c,9,46,0,
2,17340,Note_off_c,9,47,0,
2,17340,Note_off_c,9,48,0,
2,17340,Note_off_c,9,49,0,
2,17340,Note_off_c,9,50,0,
2,17340,Note_off_c,9,51,0,
2,17340,Note_off_c,9,56,0,
2,17340,Note_off_c,9,57,0,
2,17340,Note_off_c,9,59,0,
2,17340,Note_off_c,9,60,0,
2,17340,Note_off_c,9,61,0,
2,17340,Note_off_c,9,63,0,
2,17340,Note_off_c,9,68,0,
2,17340,Note_off_c,9,69,0,
2,17340,Note_off_c,9,70,0,
2,17340,Note_off_c,9,76,0,
2,17340,Note_off_c,9,80,0,
2,17340,Note_off_c,9,81,0,
2,17340,Note_off_c,9,82,0,
2,17340,Note_off_c,9,87,0,
2,17340,Note_off_c,9,88,0,
2,17340,Note_off_c,9,89,0,
2,17340,Note_off_c,9,91,0,
2,17340,Note_off_c,9,93,0,
2,17370,Note_off_c,9,35,0,
2,17370,Note_off_c,9,36,0,
2,17370,Note_off_c,9,37,0,
2,17370,Note_off_c,9,38,0,
2,17370,Note_off_c,9,39,0,
2,17370,Note_off_c,9,40,0,
2,17370,Note_off_c,9,41,0,
2,17370,Note_off_c,9,42,0,
2,17370,Note_off_c,9,43,0,
2,17370,Note_off_c,9,44,0,
2,17370,Note_off_c,9,45,0,
2,17370,Note_off_c,9,46,0,
2,17370,Note_off_c,9,47,0,
2,17370,Note_off_c,9,48,0,
2,17370,Note_off_c,9,49,0,
2,17370,Note_off_c,9,50,0,
2,17370,Note_off_c,9,51,0,
2,17370,Note_off_c,9,56,0,
2,17370,Note_off_c,9,57,0,
2,17370,Note_off_c,9,59,0,
2,17370,Note_off_c,9,60,0,
2,17370,Note_off_c,9,61,0,
2,17370,Note_off_c,9,63,0,
2,17370,Note_off_c,9,68,0,
2,17370,Note_off_c,9,69,0,
2,17370,Note_off_c,9,70,0,
2,17370,Note_off_c,9,76,0,
2,17370,Note_off_c,9,80,0,
2,17370,Note_off_c,9,81,0,
2,17370,Note_off_c,9,82,0,
2,17370,Note_off_c,9,87,0,
2,17370,Note_off_c,9,88,0,
2,17370,Note_off_c,9,89,0,
2,17370,Note_off_c,9,91,0,
2,17370,Note_off_c,9,93,0,
2,17400,Note_off_c,9,35,0,
2,17400,Note_off_c,9,36,0,
2,17400,Note_off_c,9,37,0,
2,17400,Note_off_c,9,38,0,
2,17400,Note_off_c,9,39,0,
2,17400,Note_off_c,9,40,0,
2,17400,Note_off_c,9,41,0,
2,17400,Note_off_c,9,42,0,
2,17400,Note_off_c,9,43,0,
2,17400,Note_off_c,9,44,0,
2,17400,Note_off_c,9,45,0,
2,17400,Note_off_c,9,46,0,
2,17400,Note_off_c,9,47,0,
2,17400,Note_off_c,9,48,0,
2,17400,Note_off_c,9,49,0,
2,17400,Note_off_c,9,50,0,
2,17400,Note_off_c,9,51,0,
2,17400,Note_off_c,9,56,0,
2,17400,Note_off_c,9,57,0,
2,17400,Note_off_c,9,59,0,
2,17400,Note_off_c,9,60,0,
2,17400,Note_off_c,9,61,0,
2,17400,Note_off_c,9,63,0,
2,17400,Note_off_c,9,68,0,
2,17400,Note_off_c,9,69,0,
2,17400,Note_off_c,9,70,0,
2,17400,Note_off_c,9,76,0,
2,17400,Note_off_c,9,80,0,
2,17400,Note_off_c,9,81,0,
2,17400,Note_off_c,9,82,0,
2,17400,Note_off_c,9,87,0,
2,17400,Note_off_c,9,88,0,
2,17400,Note_off_c,9,89,0,
2,17400,Note_off_c,9,91,0,
2,17400,Note_off_c,9,93,0,
2,17430,Note_off_c,9,35,0,
2,17430,Note_off_c,9,36,0,
2,17430,Note_off_c,9,37,0,
2,17430,Note_off_c,9,38,0,
2,17430,Note_off_c,9,39,0,
2,17430,Note_off_c,9,40,0,
2,17430,Note_off_c,9,41,0,
2,17430,Note_off_c,9,42,0,
2,17430,Note_off_c,9,43,0,
2,17430,Note_off_c,9,44,0,
2,17430,Note_off_c,9,45,0,
2,17430,Note_off_c,9,46,0,
2,17430,Note_off_c,9,47,0,
2,17430,Note_off_c,9,48,0,
2,17430,Note_off_c,9,49,0,
2,17430,Note_off_c,9,50,0,
2,17430,Note_off_c,9,51,0,
2,17430,Note_off_c,9,56,0,
2,17430,Note_off_c,9,57,0,
2,17430,Note_off_c,9,59,0,
2,17430,Note_off_c,9,60,0,
2,17430,Note_off_c,9,61,0,
2,17430,Note_off_c,9,63,0,
2,17430,Note_off_c,9,68,0,
2,17430,Note_off_c,9,69,0,
2,17430,Note_off_c,9,70,0,
2,17430,Note_off_c,9,76,0,
2,17430,Note_off_c,9,80,0,
2,17430,Note_off_c,9,81,0,
2,17430,Note_off_c,9,82,0,
2,17430,Note_off_c,9,87,0,
2,17430,Note_off_c,9,88,0,
2,17430,Note_off_c,9,89,0,
2,17430,Note_off_c,9,91,0,
2,17430,Note_off_c,9,93,0,
2,17460,Note_off_c,9,35,0,
2,17460,Note_off_c,9,36,0,
2,17460,Note_off_c,9,37,0,
2,17460,Note_off_c,9,38,0,
2,17460,Note_off_c,9,39,0,
2,17460,Note_off_c,9,40,0,
2,17460,Note_off_c,9,41,0,
2,17460,Note_off_c,9,42,0,
2,17460,Note_off_c,9,43,0,
2,17460,Note_off_c,9,44,0,
2,17460,Note_off_c,9,45,0,
2,17460,Note_off_c,9,46,0,
2,17460,Note_off_c,9,47,0,
2,17460,Note_off_c,9,48,0,
2,17460,Note_off_c,9,49,0,
2,17460,Note_off_c,9,50,0,
2,17460,Note_off_c,9,51,0,
2,17460,Note_off_c,9,56,0,
2,17460,Note_off_c,9,57,0,
2,17460,Note_off_c,9,59,0,
2,17460,Note_off_c,9,60,0,
2,17460,Note_off_c,9,61,0,
2,17460,Note_off_c,9,63,0,
2,17460,Note_off_c,9,68,0,
2,17460,Note_off_c,9,69,0,
2,17460,Note_off_c,9,70,0,
2,17460,Note_off_c,9,76,0,
2,17460,Note_off_c,9,80,0,
2,17460,Note_off_c,9,81,0,
2,17460,Note_off_c,9,82,0,
2,17460,Note_off_c,9,87,0,
2,17460,Note_off_c,9,88,0,
2,17460,Note_off_c,9,89,0,
2,17460,Note_off_c,9,91,0,
2,17460,Note_off_c,9,93,0,
2,17490,Note_off_c,9,35,0,
2,17490,Note_off_c,9,36,0,
2,17490,Note_off_c,9,37,0,
2,17490,Note_off_c,9,38,0,
2,17490,Note_off_c,9,39,0,
2,17490,Note_off_c,9,40,0,
2,17490,Note_off_c,9,41,0,
2,17490,Note_off_c,9,42,0,
2,17490,Note_off_c,9,43,0,
2,17490,Note_off_c,9,44,0,
2,17490,Note_off_c,9,45,0,
2,17490,Note_off_c,9,46,0,
2,17490,Note_off_c,9,47,0,
2,17490,Note_off_c,9,48,0,
2,17490,Note_off_c,9,49,0,
2,17490,Note_off_c,9,50,0,
2,17490,Note_off_c,9,51,0,
2,17490,Note_off_c,9,56,0,
2,17490,Note_off_c,9,57,0,
2,17490,Note_off_c,9,59,0,
2,17490,Note_off_c,9,60,0,
2,17490,Note_off_c,9,61,0,
2,17490,Note_off_c,9,63,0,
2,17490,Note_off_c,9,68,0,
2,17490,Note_off_c,9,69,0,
2,17490,Note_off_c,9,70,0,
2,17490,Note_off_c,9,76,0,
2,17490,Note_off_c,9,80,0,
2,17490,Note_off_c,9,81,0,
2,17490,Note_off_c,9,82,0,
2,17490,Note_off_c,9,87,0,
2,17490,Note_off_c,9,88,0,
2,17490,Note_off_c,9,89,0,
2,17490,Note_off_c,9,91,0,
2,17490,Note_off_c,9,93,0,
2,17520,Note_off_c,9,35,0,
2,17520,Note_off_c,9,36,0,
2,17520,Note_off_c,9,37,0,
2,17520,Note_off_c,9,38,0,
2,17520,Note_off_c,9,39,0,
2,17520,Note_off_c,9,40,0,
2,17520,Note_off_c,9,41,0,
2,17520,Note_off_c,9,42,0,
2,17520,Note_off_c,9,43,0,
2,17520,Note_off_c,9,44,0,
2,17520,Note_off_c,9,45,0,
2,17520,Note_off_c,9,46,0,
2,17520,Note_off_c,9,47,0,
2,17520,Note_off_c,9,48,0,
2,17520,Note_off_c,9,49,0,
2,17520,Note_off_c,9,50,0,
2,17520,Note_off_c,9,51,0,
2,17520,Note_off_c,9,56,0,
2,17520,Note_off_c,9,57,0,
2,17520,Note_off_c,9,59,0,
2,17520,Note_off_c,9,60,0,
2,17520,Note_off_c,9,61,0,
2,17520,Note_off_c,9,63,0,
2,17520,Note_off_c,9,68,0,
2,17520,Note_off_c,9,69,0,
2,17520,Note_off_c,9,70,0,
2,17520,Note_off_c,9,76,0,
2,17520,Note_off_c,9,80,0,
2,17520,Note_off_c,9,81,0,
2,17520,Note_off_c,9,82,0,
2,17520,Note_off_c,9,87,0,
2,17520,Note_off_c,9,88,0,
2,17520,Note_off_c,9,89,0,
2,17520,Note_off_c,9,91,0,
2,17520,Note_off_c,9,93,0,
2,17550,Note_off_c,9,35,0,
2,17550,Note_off_c,9,36,0,
2,17550,Note_off_c,9,37,0,
2,17550,Note_off_c,9,38,0,
2,17550,Note_off_c,9,39,0,
2,17550,Note_off_c,9,40,0,
2,17550,Note_off_c,9,41,0,
2,17550,Note_off_c,9,42,0,
2,17550,Note_off_c,9,43,0,
2,17550,Note_off_c,9,44,0,
2,17550,Note_off_c,9,45,0,
2,17550,Note_off_c,9,46,0,
2,17550,Note_off_c,9,47,0,
2,17550,Note_off_c,9,48,0,
2,17550,Note_off_c,9,49,0,
2,17550,Note_off_c,9,50,0,
2,17550,Note_off_c,9,51,0,
2,17550,Note_off_c,9,56,0,
2,17550,Note_off_c,9,57,0,
2,17550,Note_off_c,9,59,0,
2,17550,Note_off_c,9,60,0,
2,17550,Note_off_c,9,61,0,
2,17550,Note_off_c,9,63,0,
2,17550,Note_off_c,9,68,0,
2,17550,Note_off_c,9,69,0,
2,17550,Note_off_c,9,70,0,
2,17550,Note_off_c,9,76,0,
2,17550,Note_off_c,9,80,0,
2,17550,Note_off_c,9,81,0,
2,17550,Note_off_c,9,82,0,
2,17550,Note_off_c,9,87,0,
2,17550,Note_off_c,9,88,0,
2,17550,Note_off_c,9,89,0,
2,17550,Note_off_c,9,91,0,
2,17550,Note_off_c,9,93,0,
2,17580,Note_off_c,9,35,0,
2,17580,Note_off_c,9,36,0,
2,17580,Note_off_c,9,37,0,
2,17580,Note_off_c,9,38,0,
2,17580,Note_off_c,9,39,0,
2,17580,Note_off_c,9,40,0,
2,17580,Note_off_c,9,41,0,
2,17580,Note_off_c,9,42,0,
2,17580,Note_off_c,9,43,0,
2,17580,Note_off_c,9,44,0,
2,17580,Note_off_c,9,45,0,
2,17580,Note_off_c,9,46,0,
2,17580,Note_off_c,9,47,0,
2,17580,Note_off_c,9,48,0,
2,17580,Note_off_c,9,49,0,
2,17580,Note_off_c,9,50,0,
2,17580,Note_off_c,9,51,0,
2,17580,Note_off_c,9,56,0,
2,17580,Note_off_c,9,57,0,
2,17580,Note_off_c,9,59,0,
2,17580,Note_off_c,9,60,0,
2,17580,Note_off_c,9,61,0,
2,17580,Note_off_c,9,63,0,
2,17580,Note_off_c,9,68,0,
2,17580,Note_off_c,9,69,0,
2,17580,Note_off_c,9,70,0,
2,17580,Note_off_c,9,76,0,
2,17580,Note_off_c,9,80,0,
2,17580,Note_off_c,9,81,0,
2,17580,Note_off_c,9,82,0,
2,17580,Note_off_c,9,87,0,
2,17580,Note_off_c,9,88,0,
2,17580,Note_off_c,9,89,0,
2,17580,Note_off_c,9,91,0,
2,17580,Note_off_c,9,93,0,
2,17610,Note_off_c,9,35,0,
2,17610,Note_off_c,9,36,0,
2,17610,Note_off_c,9,37,0,
2,17610,Note_off_c,9,38,0,
2,17610,Note_off_c,9,39,0,
2,17610,Note_off_c,9,40,0,
2,17610,Note_off_c,9,41,0,
2,17610,Note_off_c,9,42,0,
2,17610,Note_off_c,9,43,0,
2,17610,Note_off_c,9,44,0,
2,17610,Note_off_c,9,45,0,
2,17610,Note_off_c,9,46,0,
2,17610,Note_off_c,9,47,0,
2,17610,Note_off_c,9,48,0,
2,17610,Note_off_c,9,49,0,
2,17610,Note_off_c,9,50,0,
2,17610,Note_off_c,9,51,0,
2,17610,Note_off_c,9,56,0,
2,17610,Note_off_c,9,57,0,
2,17610,Note_off_c,9,59,0,
2,17610,Note_off_c,9,60,0,
2,17610,Note_off_c,9,61,0,
2,17610,Note_off_c,9,63,0,
2,17610,Note_off_c,9,68,0,
2,17610,Note_off_c,9,69,0,
2,17610,Note_off_c,9,70,0,
2,17610,Note_off_c,9,76,0,
2,17610,Note_off_c,9,80,0,
2,17610,Note_off_c,9,81,0,
2,17610,Note_off_c,9,82,0,
2,17610,Note_off_c,9,87,0,
2,17610,Note_off_c,9,88,0,
2,17610,Note_off_c,9,89,0,
2,17610,Note_off_c,9,91,0,
2,17610,Note_off_c,9,93,0,
2,17640,Note_off_c,9,35,0,
2,17640,Note_off_c,9,36,0,
2,17640,Note_off_c,9,37,0,
2,17640,Note_off_c,9,38,0,
2,17640,Note_off_c,9,39,0,
2,17640,Note_off_c,9,40,0,
2,17640,Note_off_c,9,41,0,
2,17640,Note_off_c,9,42,0,
2,17640,Note_off_c,9,43,0,
2,17640,Note_off_c,9,44,0,
2,17640,Note_off_c,9,45,0,
2,17640,Note_off_c,9,46,0,
2,17640,Note_off_c,9,47,0,
2,17640,Note_off_c,9,48,0,
2,17640,Note_off_c,9,49,0,
2,17640,Note_off_c,9,50,0,
2,17640,Note_off_c,9,51,0,
2,17640,Note_off_c,9,56,0,
2,17640,Note_off_c,9,57,0,
2,17640,Note_off_c,9,59,0,
2,17640,Note_off_c,9,60,0,
2,17640,Note_off_c,9,61,0,
2,17640,Note_off_c,9,63,0,
2,17640,Note_off_c,9,68,0,
2,17640,Note_off_c,9,69,0,
2,17640,Note_off_c,9,70,0,
2,17640,Note_off_c,9,76,0,
2,17640,Note_off_c,9,80,0,
2,17640,Note_off_c,9,81,0,
2,17640,Note_off_c,9,82,0,
2,17640,Note_off_c,9,87,0,
2,17640,Note_off_c,9,88,0,
2,17640,Note_off_c,9,89,0,
2,17640,Note_off_c,9,91,0,
2,17640,Note_off_c,9,93,0,
2,17670,Note_off_c,9,35,0,
2,17670,Note_off_c,9,36,0,
2,17670,Note_off_c,9,37,0,
2,17670,Note_off_c,9,38,0,
2,17670,Note_off_c,9,39,0,
2,17670,Note_off_c,9,40,0,
2,17670,Note_off_c,9,41,0,
2,17670,Note_off_c,9,42,0,
2,17670,Note_off_c,9,43,0,
2,17670,Note_off_c,9,44,0,
2,17670,Note_off_c,9,45,0,
2,17670,Note_off_c,9,46,0,
2,17670,Note_off_c,9,47,0,
2,17670,Note_off_c,9,48,0,
2,17670,Note_off_c,9,49,0,
2,17670,Note_off_c,9,50,0,
2,17670,Note_off_c,9,51,0,
2,17670,Note_off_c,9,56,0,
2,17670,Note_off_c,9,57,0,
2,17670,Note_off_c,9,59,0,
2,17670,Note_off_c,9,60,0,
2,17670,Note_off_c,9,61,0,
2,17670,Note_off_c,9,63,0,
2,17670,Note_off_c,9,68,0,
2,17670,Note_off_c,9,69,0,
2,17670,Note_off_c,9,70,0,
2,17670,Note_off_c,9,76,0,
2,17670,Note_off_c,9,80,0,
2,17670,Note_off_c,9,81,0,
2,17670,Note_off_c,9,82,0,
2,17670,Note_off_c,9,87,0,
2,17670,Note_off_c,9,88,0,
2,17670,Note_off_c,9,89,0,
2,17670,Note_off_c,9,91,0,
2,17670,Note_off_c,9,93,0,
2,17700,Note_off_c,9,35,0,
2,17700,Note_off_c,9,36,0,
2,17700,Note_off_c,9,37,0,
2,17700,Note_off_c,9,38,0,
2,17700,Note_off_c,9,39,0,
2,17700,Note_off_c,9,40,0,
2,17700,Note_off_c,9,41,0,
2,17700,Note_off_c,9,42,0,
2,17700,Note_off_c,9,43,0,
2,17700,Note_off_c,9,44,0,
2,17700,Note_off_c,9,45,0,
2,17700,Note_off_c,9,46,0,
2,17700,Note_off_c,9,47,0,
2,17700,Note_off_c,9,48,0,
2,17700,Note_off_c,9,49,0,
2,17700,Note_off_c,9,50,0,
2,17700,Note_off_c,9,51,0,
2,17700,Note_off_c,9,56,0,
2,17700,Note_off_c,9,57,0,
2,17700,Note_off_c,9,59,0,
2,17700,Note_off_c,9,60,0,
2,17700,Note_off_c,9,61,0,
2,17700,Note_off_c,9,63,0,
2,17700,Note_off_c,9,68,0,
2,17700,Note_off_c,9,69,0,
2,17700,Note_off_c,9,70,0,
2,17700,Note_off_c,9,76,0,
2,17700,Note_off_c,9,80,0,
2,17700,Note_off_c,9,81,0,
2,17700,Note_off_c,9,82,0,
2,17700,Note_off_c,9,87,0,
2,17700,Note_off_c,9,88,0,
2,17700,Note_off_c,9,89,0,
2,17700,Note_off_c,9,91,0,
2,17700,Note_off_c,9,93,0,
2,17730,Note_off_c,9,35,0,
2,17730,Note_off_c,9,36,0,
2,17730,Note_off_c,9,37,0,
2,17730,Note_off_c,9,38,0,
2,17730,Note_off_c,9,39,0,
2,17730,Note_off_c,9,40,0,
2,17730,Note_off_c,9,41,0,
2,17730,Note_off_c,9,42,0,
2,17730,Note_off_c,9,43,0,
2,17730,Note_off_c,9,44,0,
2,17730,Note_off_c,9,45,0,
2,17730,Note_off_c,9,46,0,
2,17730,Note_off_c,9,47,0,
2,17730,Note_off_c,9,48,0,
2,17730,Note_off_c,9,49,0,
2,17730,Note_off_c,9,50,0,
2,17730,Note_off_c,9,51,0,
2,17730,Note_off_c,9,56,0,
2,17730,Note_off_c,9,57,0,
2,17730,Note_off_c,9,59,0,
2,17730,Note_off_c,9,60,0,
2,17730,Note_off_c,9,61,0,
2,17730,Note_off_c,9,63,0,
2,17730,Note_off_c,9,68,0,
2,17730,Note_off_c,9,69,0,
2,17730,Note_off_c,9,70,0,
2,17730,Note_off_c,9,76,0,
2,17730,Note_off_c,9,80,0,
2,17730,Note_off_c,9,81,0,
2,17730,Note_off_c,9,82,0,
2,17730,Note_off_c,9,87,0,
2,17730,Note_off_c,9,88,0,
2,17730,Note_off_c,9,89,0,
2,17730,Note_off_c,9,91,0,
2,17730,Note_off_c,9,93,0,
2,17760,Note_off_c,9,35,0,
2,17760,Note_off_c,9,36,0,
2,17760,Note_off_c,9,37,0,
2,17760,Note_off_c,9,38,0,
2,17760,Note_off_c,9,39,0,
2,17760,Note_off_c,9,40,0,
2,17760,Note_off_c,9,41,0,
2,17760,Note_off_c,9,42,0,
2,17760,Note_off_c,9,43,0,
2,17760,Note_off_c,9,44,0,
2,17760,Note_off_c,9,45,0,
2,17760,Note_off_c,9,46,0,
2,17760,Note_off_c,9,47,0,
2,17760,Note_off_c,9,48,0,
2,17760,Note_off_c,9,49,0,
2,17760,Note_off_c,9,50,0,
2,17760,Note_off_c,9,51,0,
2,17760,Note_off_c,9,56,0,
2,17760,Note_off_c,9,57,0,
2,17760,Note_off_c,9,59,0,
2,17760,Note_off_c,9,60,0,
2,17760,Note_off_c,9,61,0,
2,17760,Note_off_c,9,63,0,
2,17760,Note_off_c,9,68,0,
2,17760,Note_off_c,9,69,0,
2,17760,Note_off_c,9,70,0,
2,17760,Note_off_c,9,76,0,
2,17760,Note_off_c,9,80,0,
2,17760,Note_off_c,9,81,0,
2,17760,Note_off_c,9,82,0,
2,17760,Note_off_c,9,87,0,
2,17760,Note_off_c,9,88,0,
2,17760,Note_off_c,9,89,0,
2,17760,Note_off_c,9,91,0,
2,17760,Note_off_c,9,93,0,
2,17790,Note_off_c,9,35,0,
2,17790,Note_off_c,9,36,0,
2,17790,Note_off_c,9,37,0,
2,17790,Note_off_c,9,38,0,
2,17790,Note_off_c,9,39,0,
2,17790,Note_off_c,9,40,0,
2,17790,Note_off_c,9,41,0,
2,17790,Note_off_c,9,42,0,
2,17790,Note_off_c,9,43,0,
2,17790,Note_off_c,9,44,0,
2,17790,Note_off_c,9,45,0,
2,17790,Note_off_c,9,46,0,
2,17790,Note_off_c,9,47,0,
2,17790,Note_off_c,9,48,0,
2,17790,Note_off_c,9,49,0,
2,17790,Note_off_c,9,50,0,
2,17790,Note_off_c,9,51,0,
2,17790,Note_off_c,9,56,0,
2,17790,Note_off_c,9,57,0,
2,17790,Note_off_c,9,59,0,
2,17790,Note_off_c,9,60,0,
2,17790,Note_off_c,9,61,0,
2,17790,Note_off_c,9,63,0,
2,17790,Note_off_c,9,68,0,
2,17790,Note_off_c,9,69,0,
2,17790,Note_off_c,9,70,0,
2,17790,Note_off_c,9,76,0,
2,17790,Note_off_c,9,80,0,
2,17790,Note_off_c,9,81,0,
2,17790,Note_off_c,9,82,0,
2,17790,Note_off_c,9,87,0,
2,17790,Note_off_c,9,88,0,
2,17790,Note_off_c,9,89,0,
2,17790,Note_off_c,9,91,0,
2,17790,Note_off_c,9,93,0,
2,17820,Note_off_c,9,35,0,
2,17820,Note_off_c,9,36,0,
2,17820,Note_off_c,9,37,0,
2,17820,Note_off_c,9,38,0,
2,17820,Note_off_c,9,39,0,
2,17820,Note_off_c,9,40,0,
2,17820,Note_off_c,9,41,0,
2,17820,Note_off_c,9,42,0,
2,17820,Note_off_c,9,43,0,
2,17820,Note_off_c,9,44,0,
2,17820,Note_off_c,9,45,0,
2,17820,Note_off_c,9,46,0,
2,17820,Note_off_c,9,47,0,
2,17820,Note_off_c,9,48,0,
2,17820,Note_off_c,9,49,0,
2,17820,Note_off_c,9,50,0,
2,17820,Note_off_c,9,51,0,
2,17820,Note_off_c,9,56,0,
2,17820,Note_off_c,9,57,0,
2,17820,Note_off_c,9,59,0,
2,17820,Note_off_c,9,60,0,
2,17820,Note_off_c,9,61,0,
2,17820,Note_off_c,9,63,0,
2,17820,Note_off_c,9,68,0,
2,17820,Note_off_c,9,69,0,
2,17820,Note_off_c,9,70,0,
2,17820,Note_off_c,9,76,0,
2,17820,Note_off_c,9,80,0,
2,17820,Note_off_c,9,81,0,
2,17820,Note_off_c,9,82,0,
2,17820,Note_off_c,9,87,0,
2,17820,Note_off_c,9,88,0,
2,17820,Note_off_c,9,89,0,
2,17820,Note_off_c,9,91,0,
2,17820,Note_off_c,9,93,0,
2,17850,Note_off_c,9,35,0,
2,17850,Note_off_c,9,36,0,
2,17850,Note_off_c,9,37,0,
2,17850,Note_off_c,9,38,0,
2,17850,Note_off_c,9,39,0,
2,17850,Note_off_c,9,40,0,
2,17850,Note_off_c,9,41,0,
2,17850,Note_off_c,9,42,0,
2,17850,Note_off_c,9,43,0,
2,17850,Note_off_c,9,44,0,
2,17850,Note_off_c,9,45,0,
2,17850,Note_off_c,9,46,0,
2,17850,Note_off_c,9,47,0,
2,17850,Note_off_c,9,48,0,
2,17850,Note_off_c,9,49,0,
2,17850,Note_off_c,9,50,0,
2,17850,Note_off_c,9,51,0,
2,17850,Note_off_c,9,56,0,
2,17850,Note_off_c,9,57,0,
2,17850,Note_off_c,9,59,0,
2,17850,Note_off_c,9,60,0,
2,17850,Note_off_c,9,61,0,
2,17850,Note_off_c,9,63,0,
2,17850,Note_off_c,9,68,0,
2,17850,Note_off_c,9,69,0,
2,17850,Note_off_c,9,70,0,
2,17850,Note_off_c,9,76,0,
2,17850,Note_off_c,9,80,0,
2,17850,Note_off_c,9,81,0,
2,17850,Note_off_c,9,82,0,
2,17850,Note_off_c,9,87,0,
2,17850,Note_off_c,9,88,0,
2,17850,Note_off_c,9,89,0,
2,17850,Note_off_c,9,91,0,
2,17850,Note_off_c,9,93,0,
2,17880,Note_off_c,9,35,0,
2,17880,Note_off_c,9,36,0,
2,17880,Note_off_c,9,37,0,
2,17880,Note_off_c,9,38,0,
2,17880,Note_off_c,9,39,0,
2,17880,Note_off_c,9,40,0,
2,17880,Note_off_c,9,41,0,
2,17880,Note_off_c,9,42,0,
2,17880,Note_off_c,9,43,0,
2,17880,Note_off_c,9,44,0,
2,17880,Note_off_c,9,45,0,
2,17880,Note_off_c,9,46,0,
2,17880,Note_off_c,9,47,0,
2,17880,Note_off_c,9,48,0,
2,17880,Note_off_c,9,49,0,
2,17880,Note_off_c,9,50,0,
2,17880,Note_off_c,9,51,0,
2,17880,Note_off_c,9,56,0,
2,17880,Note_off_c,9,57,0,
2,17880,Note_off_c,9,59,0,
2,17880,Note_off_c,9,60,0,
2,17880,Note_off_c,9,61,0,
2,17880,Note_off_c,9,63,0,
2,17880,Note_off_c,9,68,0,
2,17880,Note_off_c,9,69,0,
2,17880,Note_off_c,9,70,0,
2,17880,Note_off_c,9,76,0,
2,17880,Note_off_c,9,80,0,
2,17880,Note_off_c,9,81,0,
2,17880,Note_off_c,9,82,0,
2,17880,Note_off_c,9,87,0,
2,17880,Note_off_c,9,88,0,
2,17880,Note_off_c,9,89,0,
2,17880,Note_off_c,9,91,0,
2,17880,Note_off_c,9,93,0,
2,17910,Note_off_c,9,35,0,
2,17910,Note_off_c,9,36,0,
2,17910,Note_off_c,9,37,0,
2,17910,Note_off_c,9,38,0,
2,17910,Note_off_c,9,39,0,
2,17910,Note_off_c,9,40,0,
2,17910,Note_off_c,9,41,0,
2,17910,Note_off_c,9,42,0,
2,17910,Note_off_c,9,43,0,
2,17910,Note_off_c,9,44,0,
2,17910,Note_off_c,9,45,0,
2,17910,Note_off_c,9,46,0,
2,17910,Note_off_c,9,47,0,
2,17910,Note_off_c,9,48,0,
2,17910,Note_off_c,9,49,0,
2,17910,Note_off_c,9,50,0,
2,17910,Note_off_c,9,51,0,
2,17910,Note_off_c,9,56,0,
2,17910,Note_off_c,9,57,0,
2,17910,Note_off_c,9,59,0,
2,17910,Note_off_c,9,60,0,
2,17910,Note_off_c,9,61,0,
2,17910,Note_off_c,9,63,0,
2,17910,Note_off_c,9,68,0,
2,17910,Note_off_c,9,69,0,
2,17910,Note_off_c,9,70,0,
2,17910,Note_off_c,9,76,0,
2,17910,Note_off_c,9,80,0,
2,17910,Note_off_c,9,81,0,
2,17910,Note_off_c,9,82,0,
2,17910,Note_off_c,9,87,0,
2,17910,Note_off_c,9,88,0,
2,17910,Note_off_c,9,89,0,
2,17910,Note_off_c,9,91,0,
2,17910,Note_off_c,9,93,0,
2,17940,Note_off_c,9,35,0,
2,17940,Note_off_c,9,36,0,
2,17940,Note_off_c,9,37,0,
2,17940,Note_off_c,9,38,0,
2,17940,Note_off_c,9,39,0,
2,17940,Note_off_c,9,40,0,
2,17940,Note_off_c,9,41,0,
2,17940,Note_off_c,9,42,0,
2,17940,Note_off_c,9,43,0,
2,17940,Note_off_c,9,44,0,
2,17940,Note_off_c,9,45,0,
2,17940,Note_off_c,9,46,0,
2,17940,Note_off_c,9,47,0,
2,17940,Note_off_c,9,48,0,
2,17940,Note_off_c,9,49,0,
2,17940,Note_off_c,9,50,0,
2,17940,Note_off_c,9,51,0,
2,17940,Note_off_c,9,56,0,
2,17940,Note_off_c,9,57,0,
2,17940,Note_off_c,9,59,0,
2,17940,Note_off_c,9,60,0,
2,17940,Note_off_c,9,61,0,
2,17940,Note_off_c,9,63,0,
2,17940,Note_off_c,9,68,0,
2,17940,Note_off_c,9,69,0,
2,17940,Note_off_c,9,70,0,
2,17940,Note_off_c,9,76,0,
2,17940,Note_off_c,9,80,0,
2,17940,Note_off_c,9,81,0,
2,17940,Note_off_c,9,82,0,
2,17940,Note_off_c,9,87,0,
2,17940,Note_off_c,9,88,0,
2,17940,Note_off_c,9,89,0,
2,17940,Note_off_c,9,91,0,
2,17940,Note_off_c,9,93,0,
2,17970,Note_off_c,9,35,0,
2,17970,Note_off_c,9,36,0,
2,17970,Note_off_c,9,37,0,
2,17970,Note_off_c,9,38,0,
2,17970,Note_off_c,9,39,0,
2,17970,Note_off_c,9,40,0,
2,17970,Note_off_c,9,41,0,
2,17970,Note_off_c,9,42,0,
2,17970,Note_off_c,9,43,0,
2,17970,Note_off_c,9,44,0,
2,17970,Note_off_c,9,45,0,
2,17970,Note_off_c,9,46,0,
2,17970,Note_off_c,9,47,0,
2,17970,Note_off_c,9,48,0,
2,17970,Note_off_c,9,49,0,
2,17970,Note_off_c,9,50,0,
2,17970,Note_off_c,9,51,0,
2,17970,Note_off_c,9,56,0,
2,17970,Note_off_c,9,57,0,
2,17970,Note_off_c,9,59,0,
2,17970,Note_off_c,9,60,0,
2,17970,Note_off_c,9,61,0,
2,17970,Note_off_c,9,63,0,
2,17970,Note_off_c,9,68,0,
2,17970,Note_off_c,9,69,0,
2,17970,Note_off_c,9,70,0,
2,17970,Note_off_c,9,76,0,
2,17970,Note_off_c,9,80,0,
2,17970,Note_off_c,9,81,0,
2,17970,Note_off_c,9,82,0,
2,17970,Note_off_c,9,87,0,
2,17970,Note_off_c,9,88,0,
2,17970,Note_off_c,9,89,0,
2,17970,Note_off_c,9,91,0,
2,17970,Note_off_c,9,93,0,
2,18000,Note_off_c,9,35,0,
2,18000,Note_off_c,9,36,0,
2,18000,Note_off_c,9,37,0,
2,18000,Note_off_c,9,38,0,
2,18000,Note_off_c,9,39,0,
2,18000,Note_off_c,9,40,0,
2,18000,Note_off_c,9,41,0,
2,18000,Note_off_c,9,42,0,
2,18000,Note_off_c,9,43,0,
2,18000,Note_off_c,9,44,0,
2,18000,Note_off_c,9,45,0,
2,18000,Note_off_c,9,46,0,
2,18000,Note_off_c,9,47,0,
2,18000,Note_off_c,9,48,0,
2,18000,Note_off_c,9,49,0,
2,18000,Note_off_c,9,50,0,
2,18000,Note_off_c,9,51,0,
2,18000,Note_off_c,9,56,0,
2,18000,Note_off_c,9,57,0,
2,18000,Note_off_c,9,59,0,
2,18000,Note_off_c,9,60,0,
2,18000,Note_off_c,9,61,0,
2,18000,Note_off_c,9,63,0,
2,18000,Note_off_c,9,68,0,
2,18000,Note_off_c,9,69,0,
2,18000,Note_off_c,9,70,0,
2,18000,Note_off_c,9,76,0,
2,18000,Note_off_c,9,80,0,
2,18000,Note_off_c,9,81,0,
2,18000,Note_off_c,9,82,0,
2,18000,Note_off_c,9,87,0,
2,18000,Note_off_c,9,88,0,
2,18000,Note_off_c,9,89,0,
2,18000,Note_off_c,9,91,0,
2,18000,Note_off_c,9,93,0,
2,18030,Note_off_c,9,35,0,
2,18030,Note_off_c,9,36,0,
2,18030,Note_off_c,9,37,0,
2,18030,Note_off_c,9,38,0,
2,18030,Note_off_c,9,39,0,
2,18030,Note_off_c,9,40,0,
2,18030,Note_off_c,9,41,0,
2,18030,Note_off_c,9,42,0,
2,18030,Note_off_c,9,43,0,
2,18030,Note_off_c,9,44,0,
2,18030,Note_off_c,9,45,0,
2,18030,Note_off_c,9,46,0,
2,18030,Note_off_c,9,47,0,
2,18030,Note_off_c,9,48,0,
2,18030,Note_off_c,9,49,0,
2,18030,Note_off_c,9,50,0,
2,18030,Note_off_c,9,51,0,
2,18030,Note_off_c,9,56,0,
2,18030,Note_off_c,9,57,0,
2,18030,Note_off_c,9,59,0,
2,18030,Note_off_c,9,60,0,
2,18030,Note_off_c,9,61,0,
2,18030,Note_off_c,9,63,0,
2,18030,Note_off_c,9,68,0,
2,18030,Note_off_c,9,69,0,
2,18030,Note_off_c,9,70,0,
2,18030,Note_off_c,9,76,0,
2,18030,Note_off_c,9,80,0,
2,18030,Note_off_c,9,81,0,
2,18030,Note_off_c,9,82,0,
2,18030,Note_off_c,9,87,0,
2,18030,Note_off_c,9,88,0,
2,18030,Note_off_c,9,89,0,
2,18030,Note_off_c,9,91,0,
2,18030,Note_off_c,9,93,0,
2,18060,Note_off_c,9,35,0,
2,18060,Note_off_c,9,36,0,
2,18060,Note_off_c,9,37,0,
2,18060,Note_off_c,9,38,0,
2,18060,Note_off_c,9,39,0,
2,18060,Note_off_c,9,40,0,
2,18060,Note_off_c,9,41,0,
2,18060,Note_off_c,9,42,0,
2,18060,Note_off_c,9,43,0,
2,18060,Note_off_c,9,44,0,
2,18060,Note_off_c,9,45,0,
2,18060,Note_off_c,9,46,0,
2,18060,Note_off_c,9,47,0,
2,18060,Note_off_c,9,48,0,
2,18060,Note_off_c,9,49,0,
2,18060,Note_off_c,9,50,0,
2,18060,Note_off_c,9,51,0,
2,18060,Note_off_c,9,56,0,
2,18060,Note_off_c,9,57,0,
2,18060,Note_off_c,9,59,0,
2,18060,Note_off_c,9,60,0,
2,18060,Note_off_c,9,61,0,
2,18060,Note_off_c,9,63,0,
2,18060,Note_off_c,9,68,0,
2,18060,Note_off_c,9,69,0,
2,18060,Note_off_c,9,70,0,
2,18060,Note_off_c,9,76,0,
2,18060,Note_off_c,9,80,0,
2,18060,Note_off_c,9,81,0,
2,18060,Note_off_c,9,82,0,
2,18060,Note_off_c,9,87,0,
2,18060,Note_off_c,9,88,0,
2,18060,Note_off_c,9,89,0,
2,18060,Note_off_c,9,91,0,
2,18060,Note_off_c,9,93,0,
2,18090,Note_off_c,9,35,0,
2,18090,Note_off_c,9,36,0,
2,18090,Note_off_c,9,37,0,
2,18090,Note_off_c,9,38,0,
2,18090,Note_off_c,9,39,0,
2,18090,Note_off_c,9,40,0,
2,18090,Note_off_c,9,41,0,
2,18090,Note_off_c,9,42,0,
2,18090,Note_off_c,9,43,0,
2,18090,Note_off_c,9,44,0,
2,18090,Note_off_c,9,45,0,
2,18090,Note_off_c,9,46,0,
2,18090,Note_off_c,9,47,0,
2,18090,Note_off_c,9,48,0,
2,18090,Note_off_c,9,49,0,
2,18090,Note_off_c,9,50,0,
2,18090,Note_off_c,9,51,0,
2,18090,Note_off_c,9,56,0,
2,18090,Note_off_c,9,57,0,
2,18090,Note_off_c,9,59,0,
2,18090,Note_off_c,9,60,0,
2,18090,Note_off_c,9,61,0,
2,18090,Note_off_c,9,63,0,
2,18090,Note_off_c,9,68,0,
2,18090,Note_off_c,9,69,0,
2,18090,Note_off_c,9,70,0,
2,18090,Note_off_c,9,76,0,
2,18090,Note_off_c,9,80,0,
2,18090,Note_off_c,9,81,0,
2,18090,Note_off_c,9,82,0,
2,18090,Note_off_c,9,87,0,
2,18090,Note_off_c,9,88,0,
2,18090,Note_off_c,9,89,0,
2,18090,Note_off_c,9,91,0,
2,18090,Note_off_c,9,93,0,
2,18120,Note_off_c,9,35,0,
2,18120,Note_off_c,9,36,0,
2,18120,Note_off_c,9,37,0,
2,18120,Note_off_c,9,38,0,
2,18120,Note_off_c,9,39,0,
2,18120,Note_off_c,9,40,0,
2,18120,Note_off_c,9,41,0,
2,18120,Note_off_c,9,42,0,
2,18120,Note_off_c,9,43,0,
2,18120,Note_off_c,9,44,0,
2,18120,Note_off_c,9,45,0,
2,18120,Note_off_c,9,46,0,
2,18120,Note_off_c,9,47,0,
2,18120,Note_off_c,9,48,0,
2,18120,Note_off_c,9,49,0,
2,18120,Note_off_c,9,50,0,
2,18120,Note_off_c,9,51,0,
2,18120,Note_off_c,9,56,0,
2,18120,Note_off_c,9,57,0,
2,18120,Note_off_c,9,59,0,
2,18120,Note_off_c,9,60,0,
2,18120,Note_off_c,9,61,0,
2,18120,Note_off_c,9,63,0,
2,18120,Note_off_c,9,68,0,
2,18120,Note_off_c,9,69,0,
2,18120,Note_off_c,9,70,0,
2,18120,Note_off_c,9,76,0,
2,18120,Note_off_c,9,80,0,
2,18120,Note_off_c,9,81,0,
2,18120,Note_off_c,9,82,0,
2,18120,Note_off_c,9,87,0,
2,18120,Note_off_c,9,88,0,
2,18120,Note_off_c,9,89,0,
2,18120,Note_off_c,9,91,0,
2,18120,Note_off_c,9,93,0,
2,18150,Note_off_c,9,35,0,
2,18150,Note_off_c,9,36,0,
2,18150,Note_off_c,9,37,0,
2,18150,Note_off_c,9,38,0,
2,18150,Note_off_c,9,39,0,
2,18150,Note_off_c,9,40,0,
2,18150,Note_off_c,9,41,0,
2,18150,Note_off_c,9,42,0,
2,18150,Note_off_c,9,43,0,
2,18150,Note_off_c,9,44,0,
2,18150,Note_off_c,9,45,0,
2,18150,Note_off_c,9,46,0,
2,18150,Note_off_c,9,47,0,
2,18150,Note_off_c,9,48,0,
2,18150,Note_off_c,9,49,0,
2,18150,Note_off_c,9,50,0,
2,18150,Note_off_c,9,51,0,
2,18150,Note_off_c,9,56,0,
2,18150,Note_off_c,9,57,0,
2,18150,Note_off_c,9,59,0,
2,18150,Note_off_c,9,60,0,
2,18150,Note_off_c,9,61,0,
2,18150,Note_off_c,9,63,0,
2,18150,Note_off_c,9,68,0,
2,18150,Note_off_c,9,69,0,
2,18150,Note_off_c,9,70,0,
2,18150,Note_off_c,9,76,0,
2,18150,Note_off_c,9,80,0,
2,18150,Note_off_c,9,81,0,
2,18150,Note_off_c,9,82,0,
2,18150,Note_off_c,9,87,0,
2,18150,Note_off_c,9,88,0,
2,18150,Note_off_c,9,89,0,
2,18150,Note_off_c,9,91,0,
2,18150,Note_off_c,9,93,0,
2,18180,Note_off_c,9,35,0,
2,18180,Note_off_c,9,36,0,
2,18180,Note_off_c,9,37,0,
2,18180,Note_off_c,9,38,0,
2,18180,Note_off_c,9,39,0,
2,18180,Note_off_c,9,40,0,
2,18180,Note_off_c,9,41,0,
2,18180,Note_off_c,9,42,0,
2,18180,Note_off_c,9,43,0,
2,18180,Note_off_c,9,44,0,
2,18180,Note_off_c,9,45,0,
2,18180,Note_off_c,9,46,0,
2,18180,Note_off_c,9,47,0,
2,18180,Note_off_c,9,48,0,
2,18180,Note_off_c,9,49,0,
2,18180,Note_off_c,9,50,0,
2,18180,Note_off_c,9,51,0,
2,18180,Note_off_c,9,56,0,
2,18180,Note_off_c,9,57,0,
2,18180,Note_off_c,9,59,0,
2,18180,Note_off_c,9,60,0,
2,18180,Note_off_c,9,61,0,
2,18180,Note_off_c,9,63,0,
2,18180,Note_off_c,9,68,0,
2,18180,Note_off_c,9,69,0,
2,18180,Note_off_c,9,70,0,
2,18180,Note_off_c,9,76,0,
2,18180,Note_off_c,9,80,0,
2,18180,Note_off_c,9,81,0,
2,18180,Note_off_c,9,82,0,
2,18180,Note_off_c,9,87,0,
2,18180,Note_off_c,9,88,0,
2,18180,Note_off_c,9,89,0,
2,18180,Note_off_c,9,91,0,
2,18180,Note_off_c,9,93,0,
2,18210,Note_off_c,9,35,0,
2,18210,Note_off_c,9,36,0,
2,18210,Note_off_c,9,37,0,
2,18210,Note_off_c,9,38,0,
2,18210,Note_off_c,9,39,0,
2,18210,Note_off_c,9,40,0,
2,18210,Note_off_c,9,41,0,
2,18210,Note_off_c,9,42,0,
2,18210,Note_off_c,9,43,0,
2,18210,Note_off_c,9,44,0,
2,18210,Note_off_c,9,45,0,
2,18210,Note_off_c,9,46,0,
2,18210,Note_off_c,9,47,0,
2,18210,Note_off_c,9,48,0,
2,18210,Note_off_c,9,49,0,
2,18210,Note_off_c,9,50,0,
2,18210,Note_off_c,9,51,0,
2,18210,Note_off_c,9,56,0,
2,18210,Note_off_c,9,57,0,
2,18210,Note_off_c,9,59,0,
2,18210,Note_off_c,9,60,0,
2,18210,Note_off_c,9,61,0,
2,18210,Note_off_c,9,63,0,
2,18210,Note_off_c,9,68,0,
2,18210,Note_off_c,9,69,0,
2,18210,Note_off_c,9,70,0,
2,18210,Note_off_c,9,76,0,
2,18210,Note_off_c,9,80,0,
2,18210,Note_off_c,9,81,0,
2,18210,Note_off_c,9,82,0,
2,18210,Note_off_c,9,87,0,
2,18210,Note_off_c,9,88,0,
2,18210,Note_off_c,9,89,0,
2,18210,Note_off_c,9,91,0,
2,18210,Note_off_c,9,93,0,
2,18240,Note_off_c,9,35,0,
2,18240,Note_off_c,9,36,0,
2,18240,Note_off_c,9,37,0,
2,18240,Note_off_c,9,38,0,
2,18240,Note_off_c,9,39,0,
2,18240,Note_off_c,9,40,0,
2,18240,Note_off_c,9,41,0,
2,18240,Note_off_c,9,42,0,
2,18240,Note_off_c,9,43,0,
2,18240,Note_off_c,9,44,0,
2,18240,Note_off_c,9,45,0,
2,18240,Note_off_c,9,46,0,
2,18240,Note_off_c,9,47,0,
2,18240,Note_off_c,9,48,0,
2,18240,Note_off_c,9,49,0,
2,18240,Note_off_c,9,50,0,
2,18240,Note_off_c,9,51,0,
2,18240,Note_off_c,9,56,0,
2,18240,Note_off_c,9,57,0,
2,18240,Note_off_c,9,59,0,
2,18240,Note_off_c,9,60,0,
2,18240,Note_off_c,9,61,0,
2,18240,Note_off_c,9,63,0,
2,18240,Note_off_c,9,68,0,
2,18240,Note_off_c,9,69,0,
2,18240,Note_off_c,9,70,0,
2,18240,Note_off_c,9,76,0,
2,18240,Note_off_c,9,80,0,
2,18240,Note_off_c,9,81,0,
2,18240,Note_off_c,9,82,0,
2,18240,Note_off_c,9,87,0,
2,18240,Note_off_c,9,88,0,
2,18240,Note_off_c,9,89,0,
2,18240,Note_off_c,9,91,0,
2,18240,Note_off_c,9,93,0,
2,18270,Note_off_c,9,35,0,
2,18270,Note_off_c,9,36,0,
2,18270,Note_off_c,9,37,0,
2,18270,Note_off_c,9,38,0,
2,18270,Note_off_c,9,39,0,
2,18270,Note_off_c,9,40,0,
2,18270,Note_off_c,9,41,0,
2,18270,Note_off_c,9,42,0,
2,18270,Note_off_c,9,43,0,
2,18270,Note_off_c,9,44,0,
2,18270,Note_off_c,9,45,0,
2,18270,Note_off_c,9,46,0,
2,18270,Note_off_c,9,47,0,
2,18270,Note_off_c,9,48,0,
2,18270,Note_off_c,9,49,0,
2,18270,Note_off_c,9,50,0,
2,18270,Note_off_c,9,51,0,
2,18270,Note_off_c,9,56,0,
2,18270,Note_off_c,9,57,0,
2,18270,Note_off_c,9,59,0,
2,18270,Note_off_c,9,60,0,
2,18270,Note_off_c,9,61,0,
2,18270,Note_off_c,9,63,0,
2,18270,Note_off_c,9,68,0,
2,18270,Note_off_c,9,69,0,
2,18270,Note_off_c,9,70,0,
2,18270,Note_off_c,9,76,0,
2,18270,Note_off_c,9,80,0,
2,18270,Note_off_c,9,81,0,
2,18270,Note_off_c,9,82,0,
2,18270,Note_off_c,9,87,0,
2,18270,Note_off_c,9,88,0,
2,18270,Note_off_c,9,89,0,
2,18270,Note_off_c,9,91,0,
2,18270,Note_off_c,9,93,0,
2,18300,Note_off_c,9,35,0,
2,18300,Note_off_c,9,36,0,
2,18300,Note_off_c,9,37,0,
2,18300,Note_off_c,9,38,0,
2,18300,Note_off_c,9,39,0,
2,18300,Note_off_c,9,40,0,
2,18300,Note_off_c,9,41,0,
2,18300,Note_off_c,9,42,0,
2,18300,Note_off_c,9,43,0,
2,18300,Note_off_c,9,44,0,
2,18300,Note_off_c,9,45,0,
2,18300,Note_off_c,9,46,0,
2,18300,Note_off_c,9,47,0,
2,18300,Note_off_c,9,48,0,
2,18300,Note_off_c,9,49,0,
2,18300,Note_off_c,9,50,0,
2,18300,Note_off_c,9,51,0,
2,18300,Note_off_c,9,56,0,
2,18300,Note_off_c,9,57,0,
2,18300,Note_off_c,9,59,0,
2,18300,Note_off_c,9,60,0,
2,18300,Note_off_c,9,61,0,
2,18300,Note_off_c,9,63,0,
2,18300,Note_off_c,9,68,0,
2,18300,Note_off_c,9,69,0,
2,18300,Note_off_c,9,70,0,
2,18300,Note_off_c,9,76,0,
2,18300,Note_off_c,9,80,0,
2,18300,Note_off_c,9,81,0,
2,18300,Note_off_c,9,82,0,
2,18300,Note_off_c,9,87,0,
2,18300,Note_off_c,9,88,0,
2,18300,Note_off_c,9,89,0,
2,18300,Note_off_c,9,91,0,
2,18300,Note_off_c,9,93,0,
2,18330,Note_off_c,9,35,0,
2,18330,Note_off_c,9,36,0,
2,18330,Note_off_c,9,37,0,
2,18330,Note_off_c,9,38,0,
2,18330,Note_off_c,9,39,0,
2,18330,Note_off_c,9,40,0,
2,18330,Note_off_c,9,41,0,
2,18330,Note_off_c,9,42,0,
2,18330,Note_off_c,9,43,0,
2,18330,Note_off_c,9,44,0,
2,18330,Note_off_c,9,45,0,
2,18330,Note_off_c,9,46,0,
2,18330,Note_off_c,9,47,0,
2,18330,Note_off_c,9,48,0,
2,18330,Note_off_c,9,49,0,
2,18330,Note_off_c,9,50,0,
2,18330,Note_off_c,9,51,0,
2,18330,Note_off_c,9,56,0,
2,18330,Note_off_c,9,57,0,
2,18330,Note_off_c,9,59,0,
2,18330,Note_off_c,9,60,0,
2,18330,Note_off_c,9,61,0,
2,18330,Note_off_c,9,63,0,
2,18330,Note_off_c,9,68,0,
2,18330,Note_off_c,9,69,0,
2,18330,Note_off_c,9,70,0,
2,18330,Note_off_c,9,76,0,
2,18330,Note_off_c,9,80,0,
2,18330,Note_off_c,9,81,0,
2,18330,Note_off_c,9,82,0,
2,18330,Note_off_c,9,87,0,
2,18330,Note_off_c,9,88,0,
2,18330,Note_off_c,9,89,0,
2,18330,Note_off_c,9,91,0,
2,18330,Note_off_c,9,93,0,
2,18360,Note_off_c,9,35,0,
2,18360,Note_off_c,9,36,0,
2,18360,Note_off_c,9,37,0,
2,18360,Note_off_c,9,38,0,
2,18360,Note_off_c,9,39,0,
2,18360,Note_off_c,9,40,0,
2,18360,Note_off_c,9,41,0,
2,18360,Note_off_c,9,42,0,
2,18360,Note_off_c,9,43,0,
2,18360,Note_off_c,9,44,0,
2,18360,Note_off_c,9,45,0,
2,18360,Note_off_c,9,46,0,
2,18360,Note_off_c,9,47,0,
2,18360,Note_off_c,9,48,0,
2,18360,Note_off_c,9,49,0,
2,18360,Note_off_c,9,50,0,
2,18360,Note_off_c,9,51,0,
2,18360,Note_off_c,9,56,0,
2,18360,Note_off_c,9,57,0,
2,18360,Note_off_c,9,59,0,
2,18360,Note_off_c,9,60,0,
2,18360,Note_off_c,9,61,0,
2,18360,Note_off_c,9,63,0,
2,18360,Note_off_c,9,68,0,
2,18360,Note_off_c,9,69,0,
2,18360,Note_off_c,9,70,0,
2,18360,Note_off_c,9,76,0,
2,18360,Note_off_c,9,80,0,
2,18360,Note_off_c,9,81,0,
2,18360,Note_off_c,9,82,0,
2,18360,Note_off_c,9,87,0,
2,18360,Note_off_c,9,88,0,
2,18360,Note_off_c,9,89,0,
2,18360,Note_off_c,9,91,0,
2,18360,Note_off_c,9,93,0,
2,18390,Note_off_c,9,35,0,
2,18390,Note_off_c,9,36,0,
2,18390,Note_off_c,9,37,0,
2,18390,Note_off_c,9,38,0,
2,18390,Note_off_c,9,39,0,
2,18390,Note_off_c,9,40,0,
2,18390,Note_off_c,9,41,0,
2,18390,Note_off_c,9,42,0,
2,18390,Note_off_c,9,43,0,
2,18390,Note_off_c,9,44,0,
2,18390,Note_off_c,9,45,0,
2,18390,Note_off_c,9,46,0,
2,18390,Note_off_c,9,47,0,
2,18390,Note_off_c,9,48,0,
2,18390,Note_off_c,9,49,0,
2,18390,Note_off_c,9,50,0,
2,18390,Note_off_c,9,51,0,
2,18390,Note_off_c,9,56,0,
2,18390,Note_off_c,9,57,0,
2,18390,Note_off_c,9,59,0,
2,18390,Note_off_c,9,60,0,
2,18390,Note_off_c,9,61,0,
2,18390,Note_off_c,9,63,0,
2,18390,Note_off_c,9,68,0,
2,18390,Note_off_c,9,69,0,
2,18390,Note_off_c,9,70,0,
2,18390,Note_off_c,9,76,0,
2,18390,Note_off_c,9,80,0,
2,18390,Note_off_c,9,81,0,
2,18390,Note_off_c,9,82,0,
2,18390,Note_off_c,9,87,0,
2,18390,Note_off_c,9,88,0,
2,18390,Note_off_c,9,89,0,
2,18390,Note_off_c,9,91,0,
2,18390,Note_off_c,9,93,0,
2,18420,Note_off_c,9,35,0,
2,18420,Note_off_c,9,36,0,
2,18420,Note_off_c,9,37,0,
2,18420,Note_off_c,9,38,0,
2,18420,Note_off_c,9,39,0,
2,18420,Note_off_c,9,40,0,
2,18420,Note_off_c,9,41,0,
2,18420,Note_off_c,9,42,0,
2,18420,Note_off_c,9,43,0,
2,18420,Note_off_c,9,44,0,
2,18420,Note_off_c,9,45,0,
2,18420,Note_off_c,9,46,0,
2,18420,Note_off_c,9,47,0,
2,18420,Note_off_c,9,48,0,
2,18420,Note_off_c,9,49,0,
2,18420,Note_off_c,9,50,0,
2,18420,Note_off_c,9,51,0,
2,18420,Note_off_c,9,56,0,
2,18420,Note_off_c,9,57,0,
2,18420,Note_off_c,9,59,0,
2,18420,Note_off_c,9,60,0,
2,18420,Note_off_c,9,61,0,
2,18420,Note_off_c,9,63,0,
2,18420,Note_off_c,9,68,0,
2,18420,Note_off_c,9,69,0,
2,18420,Note_off_c,9,70,0,
2,18420,Note_off_c,9,76,0,
2,18420,Note_off_c,9,80,0,
2,18420,Note_off_c,9,81,0,
2,18420,Note_off_c,9,82,0,
2,18420,Note_off_c,9,87,0,
2,18420,Note_off_c,9,88,0,
2,18420,Note_off_c,9,89,0,
2,18420,Note_off_c,9,91,0,
2,18420,Note_off_c,9,93,0,
2,18450,Note_off_c,9,35,0,
2,18450,Note_off_c,9,36,0,
2,18450,Note_off_c,9,37,0,
2,18450,Note_off_c,9,38,0,
2,18450,Note_off_c,9,39,0,
2,18450,Note_off_c,9,40,0,
2,18450,Note_off_c,9,41,0,
2,18450,Note_off_c,9,42,0,
2,18450,Note_off_c,9,43,0,
2,18450,Note_off_c,9,44,0,
2,18450,Note_off_c,9,45,0,
2,18450,Note_off_c,9,46,0,
2,18450,Note_off_c,9,47,0,
2,18450,Note_off_c,9,48,0,
2,18450,Note_off_c,9,49,0,
2,18450,Note_off_c,9,50,0,
2,18450,Note_off_c,9,51,0,
2,18450,Note_off_c,9,56,0,
2,18450,Note_off_c,9,57,0,
2,18450,Note_off_c,9,59,0,
2,18450,Note_off_c,9,60,0,
2,18450,Note_off_c,9,61,0,
2,18450,Note_off_c,9,63,0,
2,18450,Note_off_c,9,68,0,
2,18450,Note_off_c,9,69,0,
2,18450,Note_off_c,9,70,0,
2,18450,Note_off_c,9,76,0,
2,18450,Note_off_c,9,80,0,
2,18450,Note_off_c,9,81,0,
2,18450,Note_off_c,9,82,0,
2,18450,Note_off_c,9,87,0,
2,18450,Note_off_c,9,88,0,
2,18450,Note_off_c,9,89,0,
2,18450,Note_off_c,9,91,0,
2,18450,Note_off_c,9,93,0,
2,18480,Note_off_c,9,35,0,
2,18480,Note_off_c,9,36,0,
2,18480,Note_off_c,9,37,0,
2,18480,Note_off_c,9,38,0,
2,18480,Note_off_c,9,39,0,
2,18480,Note_off_c,9,40,0,
2,18480,Note_off_c,9,41,0,
2,18480,Note_off_c,9,42,0,
2,18480,Note_off_c,9,43,0,
2,18480,Note_off_c,9,44,0,
2,18480,Note_off_c,9,45,0,
2,18480,Note_off_c,9,46,0,
2,18480,Note_off_c,9,47,0,
2,18480,Note_off_c,9,48,0,
2,18480,Note_off_c,9,49,0,
2,18480,Note_off_c,9,50,0,
2,18480,Note_off_c,9,51,0,
2,18480,Note_off_c,9,56,0,
2,18480,Note_off_c,9,57,0,
2,18480,Note_off_c,9,59,0,
2,18480,Note_off_c,9,60,0,
2,18480,Note_off_c,9,61,0,
2,18480,Note_off_c,9,63,0,
2,18480,Note_off_c,9,68,0,
2,18480,Note_off_c,9,69,0,
2,18480,Note_off_c,9,70,0,
2,18480,Note_off_c,9,76,0,
2,18480,Note_off_c,9,80,0,
2,18480,Note_off_c,9,81,0,
2,18480,Note_off_c,9,82,0,
2,18480,Note_off_c,9,87,0,
2,18480,Note_off_c,9,88,0,
2,18480,Note_off_c,9,89,0,
2,18480,Note_off_c,9,91,0,
2,18480,Note_off_c,9,93,0,
2,18510,Note_off_c,9,35,0,
2,18510,Note_off_c,9,36,0,
2,18510,Note_off_c,9,37,0,
2,18510,Note_off_c,9,38,0,
2,18510,Note_off_c,9,39,0,
2,18510,Note_off_c,9,40,0,
2,18510,Note_off_c,9,41,0,
2,18510,Note_off_c,9,42,0,
2,18510,Note_off_c,9,43,0,
2,18510,Note_off_c,9,44,0,
2,18510,Note_off_c,9,45,0,
2,18510,Note_off_c,9,46,0,
2,18510,Note_off_c,9,47,0,
2,18510,Note_off_c,9,48,0,
2,18510,Note_off_c,9,49,0,
2,18510,Note_off_c,9,50,0,
2,18510,Note_off_c,9,51,0,
2,18510,Note_off_c,9,56,0,
2,18510,Note_off_c,9,57,0,
2,18510,Note_off_c,9,59,0,
2,18510,Note_off_c,9,60,0,
2,18510,Note_off_c,9,61,0,
2,18510,Note_off_c,9,63,0,
2,18510,Note_off_c,9,68,0,
2,18510,Note_off_c,9,69,0,
2,18510,Note_off_c,9,70,0,
2,18510,Note_off_c,9,76,0,
2,18510,Note_off_c,9,80,0,
2,18510,Note_off_c,9,81,0,
2,18510,Note_off_c,9,82,0,
2,18510,Note_off_c,9,87,0,
2,18510,Note_off_c,9,88,0,
2,18510,Note_off_c,9,89,0,
2,18510,Note_off_c,9,91,0,
2,18510,Note_off_c,9,93,0,
2,18540,Note_off_c,9,35,0,
2,18540,Note_off_c,9,36,0,
2,18540,Note_off_c,9,37,0,
2,18540,Note_off_c,9,38,0,
2,18540,Note_off_c,9,39,0,
2,18540,Note_off_c,9,40,0,
2,18540,Note_off_c,9,41,0,
2,18540,Note_off_c,9,42,0,
2,18540,Note_off_c,9,43,0,
2,18540,Note_off_c,9,44,0,
2,18540,Note_off_c,9,45,0,
2,18540,Note_off_c,9,46,0,
2,18540,Note_off_c,9,47,0,
2,18540,Note_off_c,9,48,0,
2,18540,Note_off_c,9,49,0,
2,18540,Note_off_c,9,50,0,
2,18540,Note_off_c,9,51,0,
2,18540,Note_off_c,9,56,0,
2,18540,Note_off_c,9,57,0,
2,18540,Note_off_c,9,59,0,
2,18540,Note_off_c,9,60,0,
2,18540,Note_off_c,9,61,0,
2,18540,Note_off_c,9,63,0,
2,18540,Note_off_c,9,68,0,
2,18540,Note_off_c,9,69,0,
2,18540,Note_off_c,9,70,0,
2,18540,Note_off_c,9,76,0,
2,18540,Note_off_c,9,80,0,
2,18540,Note_off_c,9,81,0,
2,18540,Note_off_c,9,82,0,
2,18540,Note_off_c,9,87,0,
2,18540,Note_off_c,9,88,0,
2,18540,Note_off_c,9,89,0,
2,18540,Note_off_c,9,91,0,
2,18540,Note_off_c,9,93,0,
2,18570,Note_off_c,9,35,0,
2,18570,Note_off_c,9,36,0,
2,18570,Note_off_c,9,37,0,
2,18570,Note_off_c,9,38,0,
2,18570,Note_off_c,9,39,0,
2,18570,Note_off_c,9,40,0,
2,18570,Note_off_c,9,41,0,
2,18570,Note_off_c,9,42,0,
2,18570,Note_off_c,9,43,0,
2,18570,Note_off_c,9,44,0,
2,18570,Note_off_c,9,45,0,
2,18570,Note_off_c,9,46,0,
2,18570,Note_off_c,9,47,0,
2,18570,Note_off_c,9,48,0,
2,18570,Note_off_c,9,49,0,
2,18570,Note_off_c,9,50,0,
2,18570,Note_off_c,9,51,0,
2,18570,Note_off_c,9,56,0,
2,18570,Note_off_c,9,57,0,
2,18570,Note_off_c,9,59,0,
2,18570,Note_off_c,9,60,0,
2,18570,Note_off_c,9,61,0,
2,18570,Note_off_c,9,63,0,
2,18570,Note_off_c,9,68,0,
2,18570,Note_off_c,9,69,0,
2,18570,Note_off_c,9,70,0,
2,18570,Note_off_c,9,76,0,
2,18570,Note_off_c,9,80,0,
2,18570,Note_off_c,9,81,0,
2,18570,Note_off_c,9,82,0,
2,18570,Note_off_c,9,87,0,
2,18570,Note_off_c,9,88,0,
2,18570,Note_off_c,9,89,0,
2,18570,Note_off_c,9,91,0,
2,18570,Note_off_c,9,93,0,
2,18600,Note_off_c,9,35,0,
2,18600,Note_off_c,9,36,0,
2,18600,Note_off_c,9,37,0,
2,18600,Note_off_c,9,38,0,
2,18600,Note_off_c,9,39,0,
2,18600,Note_off_c,9,40,0,
2,18600,Note_off_c,9,41,0,
2,18600,Note_off_c,9,42,0,
2,18600,Note_off_c,9,43,0,
2,18600,Note_off_c,9,44,0,
2,18600,Note_off_c,9,45,0,
2,18600,Note_off_c,9,46,0,
2,18600,Note_off_c,9,47,0,
2,18600,Note_off_c,9,48,0,
2,18600,Note_off_c,9,49,0,
2,18600,Note_off_c,9,50,0,
2,18600,Note_off_c,9,51,0,
2,18600,Note_off_c,9,56,0,
2,18600,Note_off_c,9,57,0,
2,18600,Note_off_c,9,59,0,
2,18600,Note_off_c,9,60,0,
2,18600,Note_off_c,9,61,0,
2,18600,Note_off_c,9,63,0,
2,18600,Note_off_c,9,68,0,
2,18600,Note_off_c,9,69,0,
2,18600,Note_off_c,9,70,0,
2,18600,Note_off_c,9,76,0,
2,18600,Note_off_c,9,80,0,
2,18600,Note_off_c,9,81,0,
2,18600,Note_off_c,9,82,0,
2,18600,Note_off_c,9,87,0,
2,18600,Note_off_c,9,88,0,
2,18600,Note_off_c,9,89,0,
2,18600,Note_off_c,9,91,0,
2,18600,Note_off_c,9,93,0,
2,18630,Note_off_c,9,35,0,
2,18630,Note_off_c,9,36,0,
2,18630,Note_off_c,9,37,0,
2,18630,Note_off_c,9,38,0,
2,18630,Note_off_c,9,39,0,
2,18630,Note_off_c,9,40,0,
2,18630,Note_off_c,9,41,0,
2,18630,Note_off_c,9,42,0,
2,18630,Note_off_c,9,43,0,
2,18630,Note_off_c,9,44,0,
2,18630,Note_off_c,9,45,0,
2,18630,Note_off_c,9,46,0,
2,18630,Note_off_c,9,47,0,
2,18630,Note_off_c,9,48,0,
2,18630,Note_off_c,9,49,0,
2,18630,Note_off_c,9,50,0,
2,18630,Note_off_c,9,51,0,
2,18630,Note_off_c,9,56,0,
2,18630,Note_off_c,9,57,0,
2,18630,Note_off_c,9,59,0,
2,18630,Note_off_c,9,60,0,
2,18630,Note_off_c,9,61,0,
2,18630,Note_off_c,9,63,0,
2,18630,Note_off_c,9,68,0,
2,18630,Note_off_c,9,69,0,
2,18630,Note_off_c,9,70,0,
2,18630,Note_off_c,9,76,0,
2,18630,Note_off_c,9,80,0,
2,18630,Note_off_c,9,81,0,
2,18630,Note_off_c,9,82,0,
2,18630,Note_off_c,9,87,0,
2,18630,Note_off_c,9,88,0,
2,18630,Note_off_c,9,89,0,
2,18630,Note_off_c,9,91,0,
2,18630,Note_off_c,9,93,0,
2,18660,Note_off_c,9,35,0,
2,18660,Note_off_c,9,36,0,
2,18660,Note_off_c,9,37,0,
2,18660,Note_off_c,9,38,0,
2,18660,Note_off_c,9,39,0,
2,18660,Note_off_c,9,40,0,
2,18660,Note_off_c,9,41,0,
2,18660,Note_off_c,9,42,0,
2,18660,Note_off_c,9,43,0,
2,18660,Note_off_c,9,44,0,
2,18660,Note_off_c,9,45,0,
2,18660,Note_off_c,9,46,0,
2,18660,Note_off_c,9,47,0,
2,18660,Note_off_c,9,48,0,
2,18660,Note_off_c,9,49,0,
2,18660,Note_off_c,9,50,0,
2,18660,Note_off_c,9,51,0,
2,18660,Note_off_c,9,56,0,
2,18660,Note_off_c,9,57,0,
2,18660,Note_off_c,9,59,0,
2,18660,Note_off_c,9,60,0,
2,18660,Note_off_c,9,61,0,
2,18660,Note_off_c,9,63,0,
2,18660,Note_off_c,9,68,0,
2,18660,Note_off_c,9,69,0,
2,18660,Note_off_c,9,70,0,
2,18660,Note_off_c,9,76,0,
2,18660,Note_off_c,9,80,0,
2,18660,Note_off_c,9,81,0,
2,18660,Note_off_c,9,82,0,
2,18660,Note_off_c,9,87,0,
2,18660,Note_off_c,9,88,0,
2,18660,Note_off_c,9,89,0,
2,18660,Note_off_c,9,91,0,
2,18660,Note_off_c,9,93,0,
2,18690,Note_off_c,9,35,0,
2,18690,Note_off_c,9,36,0,
2,18690,Note_off_c,9,37,0,
2,18690,Note_off_c,9,38,0,
2,18690,Note_off_c,9,39,0,
2,18690,Note_off_c,9,40,0,
2,18690,Note_off_c,9,41,0,
2,18690,Note_off_c,9,42,0,
2,18690,Note_off_c,9,43,0,
2,18690,Note_off_c,9,44,0,
2,18690,Note_off_c,9,45,0,
2,18690,Note_off_c,9,46,0,
2,18690,Note_off_c,9,47,0,
2,18690,Note_off_c,9,48,0,
2,18690,Note_off_c,9,49,0,
2,18690,Note_off_c,9,50,0,
2,18690,Note_off_c,9,51,0,
2,18690,Note_off_c,9,56,0,
2,18690,Note_off_c,9,57,0,
2,18690,Note_off_c,9,59,0,
2,18690,Note_off_c,9,60,0,
2,18690,Note_off_c,9,61,0,
2,18690,Note_off_c,9,63,0,
2,18690,Note_off_c,9,68,0,
2,18690,Note_off_c,9,69,0,
2,18690,Note_off_c,9,70,0,
2,18690,Note_off_c,9,76,0,
2,18690,Note_off_c,9,80,0,
2,18690,Note_off_c,9,81,0,
2,18690,Note_off_c,9,82,0,
2,18690,Note_off_c,9,87,0,
2,18690,Note_off_c,9,88,0,
2,18690,Note_off_c,9,89,0,
2,18690,Note_off_c,9,91,0,
2,18690,Note_off_c,9,93,0,
2,18720,Note_off_c,9,35,0,
2,18720,Note_off_c,9,36,0,
2,18720,Note_off_c,9,37,0,
2,18720,Note_off_c,9,38,0,
2,18720,Note_off_c,9,39,0,
2,18720,Note_off_c,9,40,0,
2,18720,Note_off_c,9,41,0,
2,18720,Note_off_c,9,42,0,
2,18720,Note_off_c,9,43,0,
2,18720,Note_off_c,9,44,0,
2,18720,Note_off_c,9,45,0,
2,18720,Note_off_c,9,46,0,
2,18720,Note_off_c,9,47,0,
2,18720,Note_off_c,9,48,0,
2,18720,Note_off_c,9,49,0,
2,18720,Note_off_c,9,50,0,
2,18720,Note_off_c,9,51,0,
2,18720,Note_off_c,9,56,0,
2,18720,Note_off_c,9,57,0,
2,18720,Note_off_c,9,59,0,
2,18720,Note_off_c,9,60,0,
2,18720,Note_off_c,9,61,0,
2,18720,Note_off_c,9,63,0,
2,18720,Note_off_c,9,68,0,
2,18720,Note_off_c,9,69,0,
2,18720,Note_off_c,9,70,0,
2,18720,Note_off_c,9,76,0,
2,18720,Note_off_c,9,80,0,
2,18720,Note_off_c,9,81,0,
2,18720,Note_off_c,9,82,0,
2,18720,Note_off_c,9,87,0,
2,18720,Note_off_c,9,88,0,
2,18720,Note_off_c,9,89,0,
2,18720,Note_off_c,9,91,0,
2,18720,Note_off_c,9,93,0,
2,18750,Note_off_c,9,35,0,
2,18750,Note_off_c,9,36,0,
2,18750,Note_off_c,9,37,0,
2,18750,Note_off_c,9,38,0,
2,18750,Note_off_c,9,39,0,
2,18750,Note_off_c,9,40,0,
2,18750,Note_off_c,9,41,0,
2,18750,Note_off_c,9,42,0,
2,18750,Note_off_c,9,43,0,
2,18750,Note_off_c,9,44,0,
2,18750,Note_off_c,9,45,0,
2,18750,Note_off_c,9,46,0,
2,18750,Note_off_c,9,47,0,
2,18750,Note_off_c,9,48,0,
2,18750,Note_off_c,9,49,0,
2,18750,Note_off_c,9,50,0,
2,18750,Note_off_c,9,51,0,
2,18750,Note_off_c,9,56,0,
2,18750,Note_off_c,9,57,0,
2,18750,Note_off_c,9,59,0,
2,18750,Note_off_c,9,60,0,
2,18750,Note_off_c,9,61,0,
2,18750,Note_off_c,9,63,0,
2,18750,Note_off_c,9,68,0,
2,18750,Note_off_c,9,69,0,
2,18750,Note_off_c,9,70,0,
2,18750,Note_off_c,9,76,0,
2,18750,Note_off_c,9,80,0,
2,18750,Note_off_c,9,81,0,
2,18750,Note_off_c,9,82,0,
2,18750,Note_off_c,9,87,0,
2,18750,Note_off_c,9,88,0,
2,18750,Note_off_c,9,89,0,
2,18750,Note_off_c,9,91,0,
2,18750,Note_off_c,9,93,0,
2,18780,Note_off_c,9,35,0,
2,18780,Note_off_c,9,36,0,
2,18780,Note_off_c,9,37,0,
2,18780,Note_off_c,9,38,0,
2,18780,Note_off_c,9,39,0,
2,18780,Note_off_c,9,40,0,
2,18780,Note_off_c,9,41,0,
2,18780,Note_off_c,9,42,0,
2,18780,Note_off_c,9,43,0,
2,18780,Note_off_c,9,44,0,
2,18780,Note_off_c,9,45,0,
2,18780,Note_off_c,9,46,0,
2,18780,Note_off_c,9,47,0,
2,18780,Note_off_c,9,48,0,
2,18780,Note_off_c,9,49,0,
2,18780,Note_off_c,9,50,0,
2,18780,Note_off_c,9,51,0,
2,18780,Note_off_c,9,56,0,
2,18780,Note_off_c,9,57,0,
2,18780,Note_off_c,9,59,0,
2,18780,Note_off_c,9,60,0,
2,18780,Note_off_c,9,61,0,
2,18780,Note_off_c,9,63,0,
2,18780,Note_off_c,9,68,0,
2,18780,Note_off_c,9,69,0,
2,18780,Note_off_c,9,70,0,
2,18780,Note_off_c,9,76,0,
2,18780,Note_off_c,9,80,0,
2,18780,Note_off_c,9,81,0,
2,18780,Note_off_c,9,82,0,
2,18780,Note_off_c,9,87,0,
2,18780,Note_off_c,9,88,0,
2,18780,Note_off_c,9,89,0,
2,18780,Note_off_c,9,91,0,
2,18780,Note_off_c,9,93,0,
2,18810,Note_off_c,9,35,0,
2,18810,Note_off_c,9,36,0,
2,18810,Note_off_c,9,37,0,
2,18810,Note_off_c,9,38,0,
2,18810,Note_off_c,9,39,0,
2,18810,Note_off_c,9,40,0,
2,18810,Note_off_c,9,41,0,
2,18810,Note_off_c,9,42,0,
2,18810,Note_off_c,9,43,0,
2,18810,Note_off_c,9,44,0,
2,18810,Note_off_c,9,45,0,
2,18810,Note_off_c,9,46,0,
2,18810,Note_off_c,9,47,0,
2,18810,Note_off_c,9,48,0,
2,18810,Note_off_c,9,49,0,
2,18810,Note_off_c,9,50,0,
2,18810,Note_off_c,9,51,0,
2,18810,Note_off_c,9,56,0,
2,18810,Note_off_c,9,57,0,
2,18810,Note_off_c,9,59,0,
2,18810,Note_off_c,9,60,0,
2,18810,Note_off_c,9,61,0,
2,18810,Note_off_c,9,63,0,
2,18810,Note_off_c,9,68,0,
2,18810,Note_off_c,9,69,0,
2,18810,Note_off_c,9,70,0,
2,18810,Note_off_c,9,76,0,
2,18810,Note_off_c,9,80,0,
2,18810,Note_off_c,9,81,0,
2,18810,Note_off_c,9,82,0,
2,18810,Note_off_c,9,87,0,
2,18810,Note_off_c,9,88,0,
2,18810,Note_off_c,9,89,0,
2,18810,Note_off_c,9,91,0,
2,18810,Note_off_c,9,93,0,
2,18840,Note_off_c,9,35,0,
2,18840,Note_off_c,9,36,0,
2,18840,Note_off_c,9,37,0,
2,18840,Note_off_c,9,38,0,
2,18840,Note_off_c,9,39,0,
2,18840,Note_off_c,9,40,0,
2,18840,Note_off_c,9,41,0,
2,18840,Note_off_c,9,42,0,
2,18840,Note_off_c,9,43,0,
2,18840,Note_off_c,9,44,0,
2,18840,Note_off_c,9,45,0,
2,18840,Note_off_c,9,46,0,
2,18840,Note_off_c,9,47,0,
2,18840,Note_off_c,9,48,0,
2,18840,Note_off_c,9,49,0,
2,18840,Note_off_c,9,50,0,
2,18840,Note_off_c,9,51,0,
2,18840,Note_off_c,9,56,0,
2,18840,Note_off_c,9,57,0,
2,18840,Note_off_c,9,59,0,
2,18840,Note_off_c,9,60,0,
2,18840,Note_off_c,9,61,0,
2,18840,Note_off_c,9,63,0,
2,18840,Note_off_c,9,68,0,
2,18840,Note_off_c,9,69,0,
2,18840,Note_off_c,9,70,0,
2,18840,Note_off_c,9,76,0,
2,18840,Note_off_c,9,80,0,
2,18840,Note_off_c,9,81,0,
2,18840,Note_off_c,9,82,0,
2,18840,Note_off_c,9,87,0,
2,18840,Note_off_c,9,88,0,
2,18840,Note_off_c,9,89,0,
2,18840,Note_off_c,9,91,0,
2,18840,Note_off_c,9,93,0,
2,18870,Note_off_c,9,35,0,
2,18870,Note_off_c,9,36,0,
2,18870,Note_off_c,9,37,0,
2,18870,Note_off_c,9,38,0,
2,18870,Note_off_c,9,39,0,
2,18870,Note_off_c,9,40,0,
2,18870,Note_off_c,9,41,0,
2,18870,Note_off_c,9,42,0,
2,18870,Note_off_c,9,43,0,
2,18870,Note_off_c,9,44,0,
2,18870,Note_off_c,9,45,0,
2,18870,Note_off_c,9,46,0,
2,18870,Note_off_c,9,47,0,
2,18870,Note_off_c,9,48,0,
2,18870,Note_off_c,9,49,0,
2,18870,Note_off_c,9,50,0,
2,18870,Note_off_c,9,51,0,
2,18870,Note_off_c,9,56,0,
2,18870,Note_off_c,9,57,0,
2,18870,Note_off_c,9,59,0,
2,18870,Note_off_c,9,60,0,
2,18870,Note_off_c,9,61,0,
2,18870,Note_off_c,9,63,0,
2,18870,Note_off_c,9,68,0,
2,18870,Note_off_c,9,69,0,
2,18870,Note_off_c,9,70,0,
2,18870,Note_off_c,9,76,0,
2,18870,Note_off_c,9,80,0,
2,18870,Note_off_c,9,81,0,
2,18870,Note_off_c,9,82,0,
2,18870,Note_off_c,9,87,0,
2,18870,Note_off_c,9,88,0,
2,18870,Note_off_c,9,89,0,
2,18870,Note_off_c,9,91,0,
2,18870,Note_off_c,9,93,0,
2,18900,Note_off_c,9,35,0,
2,18900,Note_off_c,9,36,0,
2,18900,Note_off_c,9,37,0,
2,18900,Note_off_c,9,38,0,
2,18900,Note_off_c,9,39,0,
2,18900,Note_off_c,9,40,0,
2,18900,Note_off_c,9,41,0,
2,18900,Note_off_c,9,42,0,
2,18900,Note_off_c,9,43,0,
2,18900,Note_off_c,9,44,0,
2,18900,Note_off_c,9,45,0,
2,18900,Note_off_c,9,46,0,
2,18900,Note_off_c,9,47,0,
2,18900,Note_off_c,9,48,0,
2,18900,Note_off_c,9,49,0,
2,18900,Note_off_c,9,50,0,
2,18900,Note_off_c,9,51,0,
2,18900,Note_off_c,9,56,0,
2,18900,Note_off_c,9,57,0,
2,18900,Note_off_c,9,59,0,
2,18900,Note_off_c,9,60,0,
2,18900,Note_off_c,9,61,0,
2,18900,Note_off_c,9,63,0,
2,18900,Note_off_c,9,68,0,
2,18900,Note_off_c,9,69,0,
2,18900,Note_off_c,9,70,0,
2,18900,Note_off_c,9,76,0,
2,18900,Note_off_c,9,80,0,
2,18900,Note_off_c,9,81,0,
2,18900,Note_off_c,9,82,0,
2,18900,Note_off_c,9,87,0,
2,18900,Note_off_c,9,88,0,
2,18900,Note_off_c,9,89,0,
2,18900,Note_off_c,9,91,0,
2,18900,Note_off_c,9,93,0,
2,18930,Note_off_c,9,35,0,
2,18930,Note_off_c,9,36,0,
2,18930,Note_off_c,9,37,0,
2,18930,Note_off_c,9,38,0,
2,18930,Note_off_c,9,39,0,
2,18930,Note_off_c,9,40,0,
2,18930,Note_off_c,9,41,0,
2,18930,Note_off_c,9,42,0,
2,18930,Note_off_c,9,43,0,
2,18930,Note_off_c,9,44,0,
2,18930,Note_off_c,9,45,0,
2,18930,Note_off_c,9,46,0,
2,18930,Note_off_c,9,47,0,
2,18930,Note_off_c,9,48,0,
2,18930,Note_off_c,9,49,0,
2,18930,Note_off_c,9,50,0,
2,18930,Note_off_c,9,51,0,
2,18930,Note_off_c,9,56,0,
2,18930,Note_off_c,9,57,0,
2,18930,Note_off_c,9,59,0,
2,18930,Note_off_c,9,60,0,
2,18930,Note_off_c,9,61,0,
2,18930,Note_off_c,9,63,0,
2,18930,Note_off_c,9,68,0,
2,18930,Note_off_c,9,69,0,
2,18930,Note_off_c,9,70,0,
2,18930,Note_off_c,9,76,0,
2,18930,Note_off_c,9,80,0,
2,18930,Note_off_c,9,81,0,
2,18930,Note_off_c,9,82,0,
2,18930,Note_off_c,9,87,0,
2,18930,Note_off_c,9,88,0,
2,18930,Note_off_c,9,89,0,
2,18930,Note_off_c,9,91,0,
2,18930,Note_off_c,9,93,0,
2,18960,Note_off_c,9,35,0,
2,18960,Note_off_c,9,36,0,
2,18960,Note_off_c,9,37,0,
2,18960,Note_off_c,9,38,0,
2,18960,Note_off_c,9,39,0,
2,18960,Note_off_c,9,40,0,
2,18960,Note_off_c,9,41,0,
2,18960,Note_off_c,9,42,0,
2,18960,Note_off_c,9,43,0,
2,18960,Note_off_c,9,44,0,
2,18960,Note_off_c,9,45,0,
2,18960,Note_off_c,9,46,0,
2,18960,Note_off_c,9,47,0,
2,18960,Note_off_c,9,48,0,
2,18960,Note_off_c,9,49,0,
2,18960,Note_off_c,9,50,0,
2,18960,Note_off_c,9,51,0,
2,18960,Note_off_c,9,56,0,
2,18960,Note_off_c,9,57,0,
2,18960,Note_off_c,9,59,0,
2,18960,Note_off_c,9,60,0,
2,18960,Note_off_c,9,61,0,
2,18960,Note_off_c,9,63,0,
2,18960,Note_off_c,9,68,0,
2,18960,Note_off_c,9,69,0,
2,18960,Note_off_c,9,70,0,
2,18960,Note_off_c,9,76,0,
2,18960,Note_off_c,9,80,0,
2,18960,Note_off_c,9,81,0,
2,18960,Note_off_c,9,82,0,
2,18960,Note_off_c,9,87,0,
2,18960,Note_off_c,9,88,0,
2,18960,Note_off_c,9,89,0,
2,18960,Note_off_c,9,91,0,
2,18960,Note_off_c,9,93,0,
2,18990,Note_off_c,9,35,0,
2,18990,Note_off_c,9,36,0,
2,18990,Note_off_c,9,37,0,
2,18990,Note_off_c,9,38,0,
2,18990,Note_off_c,9,39,0,
2,18990,Note_off_c,9,40,0,
2,18990,Note_off_c,9,41,0,
2,18990,Note_off_c,9,42,0,
2,18990,Note_off_c,9,43,0,
2,18990,Note_off_c,9,44,0,
2,18990,Note_off_c,9,45,0,
2,18990,Note_off_c,9,46,0,
2,18990,Note_off_c,9,47,0,
2,18990,Note_off_c,9,48,0,
2,18990,Note_off_c,9,49,0,
2,18990,Note_off_c,9,50,0,
2,18990,Note_off_c,9,51,0,
2,18990,Note_off_c,9,56,0,
2,18990,Note_off_c,9,57,0,
2,18990,Note_off_c,9,59,0,
2,18990,Note_off_c,9,60,0,
2,18990,Note_off_c,9,61,0,
2,18990,Note_off_c,9,63,0,
2,18990,Note_off_c,9,68,0,
2,18990,Note_off_c,9,69,0,
2,18990,Note_off_c,9,70,0,
2,18990,Note_off_c,9,76,0,
2,18990,Note_off_c,9,80,0,
2,18990,Note_off_c,9,81,0,
2,18990,Note_off_c,9,82,0,
2,18990,Note_off_c,9,87,0,
2,18990,Note_off_c,9,88,0,
2,18990,Note_off_c,9,89,0,
2,18990,Note_off_c,9,91,0,
2,18990,Note_off_c,9,93,0,
2,19020,Note_off_c,9,35,0,
2,19020,Note_off_c,9,36,0,
2,19020,Note_off_c,9,37,0,
2,19020,Note_off_c,9,38,0,
2,19020,Note_off_c,9,39,0,
2,19020,Note_off_c,9,40,0,
2,19020,Note_off_c,9,41,0,
2,19020,Note_off_c,9,42,0,
2,19020,Note_off_c,9,43,0,
2,19020,Note_off_c,9,44,0,
2,19020,Note_off_c,9,45,0,
2,19020,Note_off_c,9,46,0,
2,19020,Note_off_c,9,47,0,
2,19020,Note_off_c,9,48,0,
2,19020,Note_off_c,9,49,0,
2,19020,Note_off_c,9,50,0,
2,19020,Note_off_c,9,51,0,
2,19020,Note_off_c,9,56,0,
2,19020,Note_off_c,9,57,0,
2,19020,Note_off_c,9,59,0,
2,19020,Note_off_c,9,60,0,
2,19020,Note_off_c,9,61,0,
2,19020,Note_off_c,9,63,0,
2,19020,Note_off_c,9,68,0,
2,19020,Note_off_c,9,69,0,
2,19020,Note_off_c,9,70,0,
2,19020,Note_off_c,9,76,0,
2,19020,Note_off_c,9,80,0,
2,19020,Note_off_c,9,81,0,
2,19020,Note_off_c,9,82,0,
2,19020,Note_off_c,9,87,0,
2,19020,Note_off_c,9,88,0,
2,19020,Note_off_c,9,89,0,
2,19020,Note_off_c,9,91,0,
2,19020,Note_off_c,9,93,0,
2,19050,Note_off_c,9,35,0,
2,19050,Note_off_c,9,36,0,
2,19050,Note_off_c,9,37,0,
2,19050,Note_off_c,9,38,0,
2,19050,Note_off_c,9,39,0,
2,19050,Note_off_c,9,40,0,
2,19050,Note_off_c,9,41,0,
2,19050,Note_off_c,9,42,0,
2,19050,Note_off_c,9,43,0,
2,19050,Note_off_c,9,44,0,
2,19050,Note_off_c,9,45,0,
2,19050,Note_off_c,9,46,0,
2,19050,Note_off_c,9,47,0,
2,19050,Note_off_c,9,48,0,
2,19050,Note_off_c,9,49,0,
2,19050,Note_off_c,9,50,0,
2,19050,Note_off_c,9,51,0,
2,19050,Note_off_c,9,56,0,
2,19050,Note_off_c,9,57,0,
2,19050,Note_off_c,9,59,0,
2,19050,Note_off_c,9,60,0,
2,19050,Note_off_c,9,61,0,
2,19050,Note_off_c,9,63,0,
2,19050,Note_off_c,9,68,0,
2,19050,Note_off_c,9,69,0,
2,19050,Note_off_c,9,70,0,
2,19050,Note_off_c,9,76,0,
2,19050,Note_off_c,9,80,0,
2,19050,Note_off_c,9,81,0,
2,19050,Note_off_c,9,82,0,
2,19050,Note_off_c,9,87,0,
2,19050,Note_off_c,9,88,0,
2,19050,Note_off_c,9,89,0,
2,19050,Note_off_c,9,91,0,
2,19050,Note_off_c,9,93,0,
2,19080,Note_off_c,9,35,0,
2,19080,Note_off_c,9,36,0,
2,19080,Note_off_c,9,37,0,
2,19080,Note_off_c,9,38,0,
2,19080,Note_off_c,9,39,0,
2,19080,Note_off_c,9,40,0,
2,19080,Note_off_c,9,41,0,
2,19080,Note_off_c,9,42,0,
2,19080,Note_off_c,9,43,0,
2,19080,Note_off_c,9,44,0,
2,19080,Note_off_c,9,45,0,
2,19080,Note_off_c,9,46,0,
2,19080,Note_off_c,9,47,0,
2,19080,Note_off_c,9,48,0,
2,19080,Note_off_c,9,49,0,
2,19080,Note_off_c,9,50,0,
2,19080,Note_off_c,9,51,0,
2,19080,Note_off_c,9,56,0,
2,19080,Note_off_c,9,57,0,
2,19080,Note_off_c,9,59,0,
2,19080,Note_off_c,9,60,0,
2,19080,Note_off_c,9,61,0,
2,19080,Note_off_c,9,63,0,
2,19080,Note_off_c,9,68,0,
2,19080,Note_off_c,9,69,0,
2,19080,Note_off_c,9,70,0,
2,19080,Note_off_c,9,76,0,
2,19080,Note_off_c,9,80,0,
2,19080,Note_off_c,9,81,0,
2,19080,Note_off_c,9,82,0,
2,19080,Note_off_c,9,87,0,
2,19080,Note_off_c,9,88,0,
2,19080,Note_off_c,9,89,0,
2,19080,Note_off_c,9,91,0,
2,19080,Note_off_c,9,93,0,
2,19110,Note_off_c,9,35,0,
2,19110,Note_off_c,9,36,0,
2,19110,Note_off_c,9,37,0,
2,19110,Note_off_c,9,38,0,
2,19110,Note_off_c,9,39,0,
2,19110,Note_off_c,9,40,0,
2,19110,Note_off_c,9,41,0,
2,19110,Note_off_c,9,42,0,
2,19110,Note_off_c,9,43,0,
2,19110,Note_off_c,9,44,0,
2,19110,Note_off_c,9,45,0,
2,19110,Note_off_c,9,46,0,
2,19110,Note_off_c,9,47,0,
2,19110,Note_off_c,9,48,0,
2,19110,Note_off_c,9,49,0,
2,19110,Note_off_c,9,50,0,
2,19110,Note_off_c,9,51,0,
2,19110,Note_off_c,9,56,0,
2,19110,Note_off_c,9,57,0,
2,19110,Note_off_c,9,59,0,
2,19110,Note_off_c,9,60,0,
2,19110,Note_off_c,9,61,0,
2,19110,Note_off_c,9,63,0,
2,19110,Note_off_c,9,68,0,
2,19110,Note_off_c,9,69,0,
2,19110,Note_off_c,9,70,0,
2,19110,Note_off_c,9,76,0,
2,19110,Note_off_c,9,80,0,
2,19110,Note_off_c,9,81,0,
2,19110,Note_off_c,9,82,0,
2,19110,Note_off_c,9,87,0,
2,19110,Note_off_c,9,88,0,
2,19110,Note_off_c,9,89,0,
2,19110,Note_off_c,9,91,0,
2,19110,Note_off_c,9,93,0,
2,19140,Note_off_c,9,35,0,
2,19140,Note_off_c,9,36,0,
2,19140,Note_off_c,9,37,0,
2,19140,Note_off_c,9,38,0,
2,19140,Note_off_c,9,39,0,
2,19140,Note_off_c,9,40,0,
2,19140,Note_off_c,9,41,0,
2,19140,Note_off_c,9,42,0,
2,19140,Note_off_c,9,43,0,
2,19140,Note_off_c,9,44,0,
2,19140,Note_off_c,9,45,0,
2,19140,Note_off_c,9,46,0,
2,19140,Note_off_c,9,47,0,
2,19140,Note_off_c,9,48,0,
2,19140,Note_off_c,9,49,0,
2,19140,Note_off_c,9,50,0,
2,19140,Note_off_c,9,51,0,
2,19140,Note_off_c,9,56,0,
2,19140,Note_off_c,9,57,0,
2,19140,Note_off_c,9,59,0,
2,19140,Note_off_c,9,60,0,
2,19140,Note_off_c,9,61,0,
2,19140,Note_off_c,9,63,0,
2,19140,Note_off_c,9,68,0,
2,19140,Note_off_c,9,69,0,
2,19140,Note_off_c,9,70,0,
2,19140,Note_off_c,9,76,0,
2,19140,Note_off_c,9,80,0,
2,19140,Note_off_c,9,81,0,
2,19140,Note_off_c,9,82,0,
2,19140,Note_off_c,9,87,0,
2,19140,Note_off_c,9,88,0,
2,19140,Note_off_c,9,89,0,
2,19140,Note_off_c,9,91,0,
2,19140,Note_off_c,9,93,0,
2,19170,Note_off_c,9,35,0,
2,19170,Note_off_c,9,36,0,
2,19170,Note_off_c,9,37,0,
2,19170,Note_off_c,9,38,0,
2,19170,Note_off_c,9,39,0,
2,19170,Note_off_c,9,40,0,
2,19170,Note_off_c,9,41,0,
2,19170,Note_off_c,9,42,0,
2,19170,Note_off_c,9,43,0,
2,19170,Note_off_c,9,44,0,
2,19170,Note_off_c,9,45,0,
2,19170,Note_off_c,9,46,0,
2,19170,Note_off_c,9,47,0,
2,19170,Note_off_c,9,48,0,
2,19170,Note_off_c,9,49,0,
2,19170,Note_off_c,9,50,0,
2,19170,Note_off_c,9,51,0,
2,19170,Note_off_c,9,56,0,
2,19170,Note_off_c,9,57,0,
2,19170,Note_off_c,9,59,0,
2,19170,Note_off_c,9,60,0,
2,19170,Note_off_c,9,61,0,
2,19170,Note_off_c,9,63,0,
2,19170,Note_off_c,9,68,0,
2,19170,Note_off_c,9,69,0,
2,19170,Note_off_c,9,70,0,
2,19170,Note_off_c,9,76,0,
2,19170,Note_off_c,9,80,0,
2,19170,Note_off_c,9,81,0,
2,19170,Note_off_c,9,82,0,
2,19170,Note_off_c,9,87,0,
2,19170,Note_off_c,9,88,0,
2,19170,Note_off_c,9,89,0,
2,19170,Note_off_c,9,91,0,
2,19170,Note_off_c,9,93,0,
2,19200,Note_off_c,9,35,0,
2,19200,Note_off_c,9,36,0,
2,19200,Note_off_c,9,37,0,
2,19200,Note_off_c,9,38,0,
2,19200,Note_off_c,9,39,0,
2,19200,Note_off_c,9,40,0,
2,19200,Note_off_c,9,41,0,
2,19200,Note_off_c,9,42,0,
2,19200,Note_off_c,9,43,0,
2,19200,Note_off_c,9,44,0,
2,19200,Note_off_c,9,45,0,
2,19200,Note_off_c,9,46,0,
2,19200,Note_off_c,9,47,0,
2,19200,Note_off_c,9,48,0,
2,19200,Note_off_c,9,49,0,
2,19200,Note_off_c,9,50,0,
2,19200,Note_off_c,9,51,0,
2,19200,Note_off_c,9,56,0,
2,19200,Note_off_c,9,57,0,
2,19200,Note_off_c,9,59,0,
2,19200,Note_off_c,9,60,0,
2,19200,Note_off_c,9,61,0,
2,19200,Note_off_c,9,63,0,
2,19200,Note_off_c,9,68,0,
2,19200,Note_off_c,9,69,0,
2,19200,Note_off_c,9,70,0,
2,19200,Note_off_c,9,76,0,
2,19200,Note_off_c,9,80,0,
2,19200,Note_off_c,9,81,0,
2,19200,Note_off_c,9,82,0,
2,19200,Note_off_c,9,87,0,
2,19200,Note_off_c,9,88,0,
2,19200,Note_off_c,9,89,0,
2,19200,Note_off_c,9,91,0,
2,19200,Note_off_c,9,93,0,
2,19230,Note_off_c,9,35,0,
2,19230,Note_off_c,9,36,0,
2,19230,Note_off_c,9,37,0,
2,19230,Note_off_c,9,38,0,
2,19230,Note_off_c,9,39,0,
2,19230,Note_off_c,9,40,0,
2,19230,Note_off_c,9,41,0,
2,19230,Note_off_c,9,42,0,
2,19230,Note_off_c,9,43,0,
2,19230,Note_off_c,9,44,0,
2,19230,Note_off_c,9,45,0,
2,19230,Note_off_c,9,46,0,
2,19230,Note_off_c,9,47,0,
2,19230,Note_off_c,9,48,0,
2,19230,Note_off_c,9,49,0,
2,19230,Note_off_c,9,50,0,
2,19230,Note_off_c,9,51,0,
2,19230,Note_off_c,9,56,0,
2,19230,Note_off_c,9,57,0,
2,19230,Note_off_c,9,59,0,
2,19230,Note_off_c,9,60,0,
2,19230,Note_off_c,9,61,0,
2,19230,Note_off_c,9,63,0,
2,19230,Note_off_c,9,68,0,
2,19230,Note_off_c,9,69,0,
2,19230,Note_off_c,9,70,0,
2,19230,Note_off_c,9,76,0,
2,19230,Note_off_c,9,80,0,
2,19230,Note_off_c,9,81,0,
2,19230,Note_off_c,9,82,0,
2,19230,Note_off_c,9,87,0,
2,19230,Note_off_c,9,88,0,
2,19230,Note_off_c,9,89,0,
2,19230,Note_off_c,9,91,0,
2,19230,Note_off_c,9,93,0,
2,19260,Note_off_c,9,35,0,
2,19260,Note_off_c,9,36,0,
2,19260,Note_off_c,9,37,0,
2,19260,Note_off_c,9,38,0,
2,19260,Note_off_c,9,39,0,
2,19260,Note_off_c,9,40,0,
2,19260,Note_off_c,9,41,0,
2,19260,Note_off_c,9,42,0,
2,19260,Note_off_c,9,43,0,
2,19260,Note_off_c,9,44,0,
2,19260,Note_off_c,9,45,0,
2,19260,Note_off_c,9,46,0,
2,19260,Note_off_c,9,47,0,
2,19260,Note_off_c,9,48,0,
2,19260,Note_off_c,9,49,0,
2,19260,Note_off_c,9,50,0,
2,19260,Note_off_c,9,51,0,
2,19260,Note_off_c,9,56,0,
2,19260,Note_off_c,9,57,0,
2,19260,Note_off_c,9,59,0,
2,19260,Note_off_c,9,60,0,
2,19260,Note_off_c,9,61,0,
2,19260,Note_off_c,9,63,0,
2,19260,Note_off_c,9,68,0,
2,19260,Note_off_c,9,69,0,
2,19260,Note_off_c,9,70,0,
2,19260,Note_off_c,9,76,0,
2,19260,Note_off_c,9,80,0,
2,19260,Note_off_c,9,81,0,
2,19260,Note_off_c,9,82,0,
2,19260,Note_off_c,9,87,0,
2,19260,Note_off_c,9,88,0,
2,19260,Note_off_c,9,89,0,
2,19260,Note_off_c,9,91,0,
2,19260,Note_off_c,9,93,0,
2,19290,Note_off_c,9,35,0,
2,19290,Note_off_c,9,36,0,
2,19290,Note_off_c,9,37,0,
2,19290,Note_off_c,9,38,0,
2,19290,Note_off_c,9,39,0,
2,19290,Note_off_c,9,40,0,
2,19290,Note_off_c,9,41,0,
2,19290,Note_off_c,9,42,0,
2,19290,Note_off_c,9,43,0,
2,19290,Note_off_c,9,44,0,
2,19290,Note_off_c,9,45,0,
2,19290,Note_off_c,9,46,0,
2,19290,Note_off_c,9,47,0,
2,19290,Note_off_c,9,48,0,
2,19290,Note_off_c,9,49,0,
2,19290,Note_off_c,9,50,0,
2,19290,Note_off_c,9,51,0,
2,19290,Note_off_c,9,56,0,
2,19290,Note_off_c,9,57,0,
2,19290,Note_off_c,9,59,0,
2,19290,Note_off_c,9,60,0,
2,19290,Note_off_c,9,61,0,
2,19290,Note_off_c,9,63,0,
2,19290,Note_off_c,9,68,0,
2,19290,Note_off_c,9,69,0,
2,19290,Note_off_c,9,70,0,
2,19290,Note_off_c,9,76,0,
2,19290,Note_off_c,9,80,0,
2,19290,Note_off_c,9,81,0,
2,19290,Note_off_c,9,82,0,
2,19290,Note_off_c,9,87,0,
2,19290,Note_off_c,9,88,0,
2,19290,Note_off_c,9,89,0,
2,19290,Note_off_c,9,91,0,
2,19290,Note_off_c,9,93,0,
2,19320,Note_off_c,9,35,0,
2,19320,Note_off_c,9,36,0,
2,19320,Note_off_c,9,37,0,
2,19320,Note_off_c,9,38,0,
2,19320,Note_off_c,9,39,0,
2,19320,Note_off_c,9,40,0,
2,19320,Note_off_c,9,41,0,
2,19320,Note_off_c,9,42,0,
2,19320,Note_off_c,9,43,0,
2,19320,Note_off_c,9,44,0,
2,19320,Note_off_c,9,45,0,
2,19320,Note_off_c,9,46,0,
2,19320,Note_off_c,9,47,0,
2,19320,Note_off_c,9,48,0,
2,19320,Note_off_c,9,49,0,
2,19320,Note_off_c,9,50,0,
2,19320,Note_off_c,9,51,0,
2,19320,Note_off_c,9,56,0,
2,19320,Note_off_c,9,57,0,
2,19320,Note_off_c,9,59,0,
2,19320,Note_off_c,9,60,0,
2,19320,Note_off_c,9,61,0,
2,19320,Note_off_c,9,63,0,
2,19320,Note_off_c,9,68,0,
2,19320,Note_off_c,9,69,0,
2,19320,Note_off_c,9,70,0,
2,19320,Note_off_c,9,76,0,
2,19320,Note_off_c,9,80,0,
2,19320,Note_off_c,9,81,0,
2,19320,Note_off_c,9,82,0,
2,19320,Note_off_c,9,87,0,
2,19320,Note_off_c,9,88,0,
2,19320,Note_off_c,9,89,0,
2,19320,Note_off_c,9,91,0,
2,19320,Note_off_c,9,93,0,
2,19350,Note_off_c,9,35,0,
2,19350,Note_off_c,9,36,0,
2,19350,Note_off_c,9,37,0,
2,19350,Note_off_c,9,38,0,
2,19350,Note_off_c,9,39,0,
2,19350,Note_off_c,9,40,0,
2,19350,Note_off_c,9,41,0,
2,19350,Note_off_c,9,42,0,
2,19350,Note_off_c,9,43,0,
2,19350,Note_off_c,9,44,0,
2,19350,Note_off_c,9,45,0,
2,19350,Note_off_c,9,46,0,
2,19350,Note_off_c,9,47,0,
2,19350,Note_off_c,9,48,0,
2,19350,Note_off_c,9,49,0,
2,19350,Note_off_c,9,50,0,
2,19350,Note_off_c,9,51,0,
2,19350,Note_off_c,9,56,0,
2,19350,Note_off_c,9,57,0,
2,19350,Note_off_c,9,59,0,
2,19350,Note_off_c,9,60,0,
2,19350,Note_off_c,9,61,0,
2,19350,Note_off_c,9,63,0,
2,19350,Note_off_c,9,68,0,
2,19350,Note_off_c,9,69,0,
2,19350,Note_off_c,9,70,0,
2,19350,Note_off_c,9,76,0,
2,19350,Note_off_c,9,80,0,
2,19350,Note_off_c,9,81,0,
2,19350,Note_off_c,9,82,0,
2,19350,Note_off_c,9,87,0,
2,19350,Note_off_c,9,88,0,
2,19350,Note_off_c,9,89,0,
2,19350,Note_off_c,9,91,0,
2,19350,Note_off_c,9,93,0,
2,19380,Note_off_c,9,35,0,
2,19380,Note_off_c,9,36,0,
2,19380,Note_off_c,9,37,0,
2,19380,Note_off_c,9,38,0,
2,19380,Note_off_c,9,39,0,
2,19380,Note_off_c,9,40,0,
2,19380,Note_off_c,9,41,0,
2,19380,Note_off_c,9,42,0,
2,19380,Note_off_c,9,43,0,
2,19380,Note_off_c,9,44,0,
2,19380,Note_off_c,9,45,0,
2,19380,Note_off_c,9,46,0,
2,19380,Note_off_c,9,47,0,
2,19380,Note_off_c,9,48,0,
2,19380,Note_off_c,9,49,0,
2,19380,Note_off_c,9,50,0,
2,19380,Note_off_c,9,51,0,
2,19380,Note_off_c,9,56,0,
2,19380,Note_off_c,9,57,0,
2,19380,Note_off_c,9,59,0,
2,19380,Note_off_c,9,60,0,
2,19380,Note_off_c,9,61,0,
2,19380,Note_off_c,9,63,0,
2,19380,Note_off_c,9,68,0,
2,19380,Note_off_c,9,69,0,
2,19380,Note_off_c,9,70,0,
2,19380,Note_off_c,9,76,0,
2,19380,Note_off_c,9,80,0,
2,19380,Note_off_c,9,81,0,
2,19380,Note_off_c,9,82,0,
2,19380,Note_off_c,9,87,0,
2,19380,Note_off_c,9,88,0,
2,19380,Note_off_c,9,89,0,
2,19380,Note_off_c,9,91,0,
2,19380,Note_off_c,9,93,0,
2,19410,Note_off_c,9,35,0,
2,19410,Note_off_c,9,36,0,
2,19410,Note_off_c,9,37,0,
2,19410,Note_off_c,9,38,0,
2,19410,Note_off_c,9,39,0,
2,19410,Note_off_c,9,40,0,
2,19410,Note_off_c,9,41,0,
2,19410,Note_off_c,9,42,0,
2,19410,Note_off_c,9,43,0,
2,19410,Note_off_c,9,44,0,
2,19410,Note_off_c,9,45,0,
2,19410,Note_off_c,9,46,0,
2,19410,Note_off_c,9,47,0,
2,19410,Note_off_c,9,48,0,
2,19410,Note_off_c,9,49,0,
2,19410,Note_off_c,9,50,0,
2,19410,Note_off_c,9,51,0,
2,19410,Note_off_c,9,56,0,
2,19410,Note_off_c,9,57,0,
2,19410,Note_off_c,9,59,0,
2,19410,Note_off_c,9,60,0,
2,19410,Note_off_c,9,61,0,
2,19410,Note_off_c,9,63,0,
2,19410,Note_off_c,9,68,0,
2,19410,Note_off_c,9,69,0,
2,19410,Note_off_c,9,70,0,
2,19410,Note_off_c,9,76,0,
2,19410,Note_off_c,9,80,0,
2,19410,Note_off_c,9,81,0,
2,19410,Note_off_c,9,82,0,
2,19410,Note_off_c,9,87,0,
2,19410,Note_off_c,9,88,0,
2,19410,Note_off_c,9,89,0,
2,19410,Note_off_c,9,91,0,
2,19410,Note_off_c,9,93,0,
2,19440,Note_off_c,9,35,0,
2,19440,Note_off_c,9,36,0,
2,19440,Note_off_c,9,37,0,
2,19440,Note_off_c,9,38,0,
2,19440,Note_off_c,9,39,0,
2,19440,Note_off_c,9,40,0,
2,19440,Note_off_c,9,41,0,
2,19440,Note_off_c,9,42,0,
2,19440,Note_off_c,9,43,0,
2,19440,Note_off_c,9,44,0,
2,19440,Note_off_c,9,45,0,
2,19440,Note_off_c,9,46,0,
2,19440,Note_off_c,9,47,0,
2,19440,Note_off_c,9,48,0,
2,19440,Note_off_c,9,49,0,
2,19440,Note_off_c,9,50,0,
2,19440,Note_off_c,9,51,0,
2,19440,Note_off_c,9,56,0,
2,19440,Note_off_c,9,57,0,
2,19440,Note_off_c,9,59,0,
2,19440,Note_off_c,9,60,0,
2,19440,Note_off_c,9,61,0,
2,19440,Note_off_c,9,63,0,
2,19440,Note_off_c,9,68,0,
2,19440,Note_off_c,9,69,0,
2,19440,Note_off_c,9,70,0,
2,19440,Note_off_c,9,76,0,
2,19440,Note_off_c,9,80,0,
2,19440,Note_off_c,9,81,0,
2,19440,Note_off_c,9,82,0,
2,19440,Note_off_c,9,87,0,
2,19440,Note_off_c,9,88,0,
2,19440,Note_off_c,9,89,0,
2,19440,Note_off_c,9,91,0,
2,19440,Note_off_c,9,93,0,
2,19470,Note_off_c,9,35,0,
2,19470,Note_off_c,9,36,0,
2,19470,Note_off_c,9,37,0,
2,19470,Note_off_c,9,38,0,
2,19470,Note_off_c,9,39,0,
2,19470,Note_off_c,9,40,0,
2,19470,Note_off_c,9,41,0,
2,19470,Note_off_c,9,42,0,
2,19470,Note_off_c,9,43,0,
2,19470,Note_off_c,9,44,0,
2,19470,Note_off_c,9,45,0,
2,19470,Note_off_c,9,46,0,
2,19470,Note_off_c,9,47,0,
2,19470,Note_off_c,9,48,0,
2,19470,Note_off_c,9,49,0,
2,19470,Note_off_c,9,50,0,
2,19470,Note_off_c,9,51,0,
2,19470,Note_off_c,9,56,0,
2,19470,Note_off_c,9,57,0,
2,19470,Note_off_c,9,59,0,
2,19470,Note_off_c,9,60,0,
2,19470,Note_off_c,9,61,0,
2,19470,Note_off_c,9,63,0,
2,19470,Note_off_c,9,68,0,
2,19470,Note_off_c,9,69,0,
2,19470,Note_off_c,9,70,0,
2,19470,Note_off_c,9,76,0,
2,19470,Note_off_c,9,80,0,
2,19470,Note_off_c,9,81,0,
2,19470,Note_off_c,9,82,0,
2,19470,Note_off_c,9,87,0,
2,19470,Note_off_c,9,88,0,
2,19470,Note_off_c,9,89,0,
2,19470,Note_off_c,9,91,0,
2,19470,Note_off_c,9,93,0,
2,19500,Note_off_c,9,35,0,
2,19500,Note_off_c,9,36,0,
2,19500,Note_off_c,9,37,0,
2,19500,Note_off_c,9,38,0,
2,19500,Note_off_c,9,39,0,
2,19500,Note_off_c,9,40,0,
2,19500,Note_off_c,9,41,0,
2,19500,Note_off_c,9,42,0,
2,19500,Note_off_c,9,43,0,
2,19500,Note_off_c,9,44,0,
2,19500,Note_off_c,9,45,0,
2,19500,Note_off_c,9,46,0,
2,19500,Note_off_c,9,47,0,
2,19500,Note_off_c,9,48,0,
2,19500,Note_off_c,9,49,0,
2,19500,Note_off_c,9,50,0,
2,19500,Note_off_c,9,51,0,
2,19500,Note_off_c,9,56,0,
2,19500,Note_off_c,9,57,0,
2,19500,Note_off_c,9,59,0,
2,19500,Note_off_c,9,60,0,
2,19500,Note_off_c,9,61,0,
2,19500,Note_off_c,9,63,0,
2,19500,Note_off_c,9,68,0,
2,19500,Note_off_c,9,69,0,
2,19500,Note_off_c,9,70,0,
2,19500,Note_off_c,9,76,0,
2,19500,Note_off_c,9,80,0,
2,19500,Note_off_c,9,81,0,
2,19500,Note_off_c,9,82,0,
2,19500,Note_off_c,9,87,0,
2,19500,Note_off_c,9,88,0,
2,19500,Note_off_c,9,89,0,
2,19500,Note_off_c,9,91,0,
2,19500,Note_off_c,9,93,0,
2,19530,Note_off_c,9,35,0,
2,19530,Note_off_c,9,36,0,
2,19530,Note_off_c,9,37,0,
2,19530,Note_off_c,9,38,0,
2,19530,Note_off_c,9,39,0,
2,19530,Note_off_c,9,40,0,
2,19530,Note_off_c,9,41,0,
2,19530,Note_off_c,9,42,0,
2,19530,Note_off_c,9,43,0,
2,19530,Note_off_c,9,44,0,
2,19530,Note_off_c,9,45,0,
2,19530,Note_off_c,9,46,0,
2,19530,Note_off_c,9,47,0,
2,19530,Note_off_c,9,48,0,
2,19530,Note_off_c,9,49,0,
2,19530,Note_off_c,9,50,0,
2,19530,Note_off_c,9,51,0,
2,19530,Note_off_c,9,56,0,
2,19530,Note_off_c,9,57,0,
2,19530,Note_off_c,9,59,0,
2,19530,Note_off_c,9,60,0,
2,19530,Note_off_c,9,61,0,
2,19530,Note_off_c,9,63,0,
2,19530,Note_off_c,9,68,0,
2,19530,Note_off_c,9,69,0,
2,19530,Note_off_c,9,70,0,
2,19530,Note_off_c,9,76,0,
2,19530,Note_off_c,9,80,0,
2,19530,Note_off_c,9,81,0,
2,19530,Note_off_c,9,82,0,
2,19530,Note_off_c,9,87,0,
2,19530,Note_off_c,9,88,0,
2,19530,Note_off_c,9,89,0,
2,19530,Note_off_c,9,91,0,
2,19530,Note_off_c,9,93,0,
2,19560,Note_off_c,9,35,0,
2,19560,Note_off_c,9,36,0,
2,19560,Note_off_c,9,37,0,
2,19560,Note_off_c,9,38,0,
2,19560,Note_off_c,9,39,0,
2,19560,Note_off_c,9,40,0,
2,19560,Note_off_c,9,41,0,
2,19560,Note_off_c,9,42,0,
2,19560,Note_off_c,9,43,0,
2,19560,Note_off_c,9,44,0,
2,19560,Note_off_c,9,45,0,
2,19560,Note_off_c,9,46,0,
2,19560,Note_off_c,9,47,0,
2,19560,Note_off_c,9,48,0,
2,19560,Note_off_c,9,49,0,
2,19560,Note_off_c,9,50,0,
2,19560,Note_off_c,9,51,0,
2,19560,Note_off_c,9,56,0,
2,19560,Note_off_c,9,57,0,
2,19560,Note_off_c,9,59,0,
2,19560,Note_off_c,9,60,0,
2,19560,Note_off_c,9,61,0,
2,19560,Note_off_c,9,63,0,
2,19560,Note_off_c,9,68,0,
2,19560,Note_off_c,9,69,0,
2,19560,Note_off_c,9,70,0,
2,19560,Note_off_c,9,76,0,
2,19560,Note_off_c,9,80,0,
2,19560,Note_off_c,9,81,0,
2,19560,Note_off_c,9,82,0,
2,19560,Note_off_c,9,87,0,
2,19560,Note_off_c,9,88,0,
2,19560,Note_off_c,9,89,0,
2,19560,Note_off_c,9,91,0,
2,19560,Note_off_c,9,93,0,
2,19590,Note_off_c,9,35,0,
2,19590,Note_off_c,9,36,0,
2,19590,Note_off_c,9,37,0,
2,19590,Note_off_c,9,38,0,
2,19590,Note_off_c,9,39,0,
2,19590,Note_off_c,9,40,0,
2,19590,Note_off_c,9,41,0,
2,19590,Note_off_c,9,42,0,
2,19590,Note_off_c,9,43,0,
2,19590,Note_off_c,9,44,0,
2,19590,Note_off_c,9,45,0,
2,19590,Note_off_c,9,46,0,
2,19590,Note_off_c,9,47,0,
2,19590,Note_off_c,9,48,0,
2,19590,Note_off_c,9,49,0,
2,19590,Note_off_c,9,50,0,
2,19590,Note_off_c,9,51,0,
2,19590,Note_off_c,9,56,0,
2,19590,Note_off_c,9,57,0,
2,19590,Note_off_c,9,59,0,
2,19590,Note_off_c,9,60,0,
2,19590,Note_off_c,9,61,0,
2,19590,Note_off_c,9,63,0,
2,19590,Note_off_c,9,68,0,
2,19590,Note_off_c,9,69,0,
2,19590,Note_off_c,9,70,0,
2,19590,Note_off_c,9,76,0,
2,19590,Note_off_c,9,80,0,
2,19590,Note_off_c,9,81,0,
2,19590,Note_off_c,9,82,0,
2,19590,Note_off_c,9,87,0,
2,19590,Note_off_c,9,88,0,
2,19590,Note_off_c,9,89,0,
2,19590,Note_off_c,9,91,0,
2,19590,Note_off_c,9,93,0,
2,19620,Note_off_c,9,35,0,
2,19620,Note_off_c,9,36,0,
2,19620,Note_off_c,9,37,0,
2,19620,Note_off_c,9,38,0,
2,19620,Note_off_c,9,39,0,
2,19620,Note_off_c,9,40,0,
2,19620,Note_off_c,9,41,0,
2,19620,Note_off_c,9,42,0,
2,19620,Note_off_c,9,43,0,
2,19620,Note_off_c,9,44,0,
2,19620,Note_off_c,9,45,0,
2,19620,Note_off_c,9,46,0,
2,19620,Note_off_c,9,47,0,
2,19620,Note_off_c,9,48,0,
2,19620,Note_off_c,9,49,0,
2,19620,Note_off_c,9,50,0,
2,19620,Note_off_c,9,51,0,
2,19620,Note_off_c,9,56,0,
2,19620,Note_off_c,9,57,0,
2,19620,Note_off_c,9,59,0,
2,19620,Note_off_c,9,60,0,
2,19620,Note_off_c,9,61,0,
2,19620,Note_off_c,9,63,0,
2,19620,Note_off_c,9,68,0,
2,19620,Note_off_c,9,69,0,
2,19620,Note_off_c,9,70,0,
2,19620,Note_off_c,9,76,0,
2,19620,Note_off_c,9,80,0,
2,19620,Note_off_c,9,81,0,
2,19620,Note_off_c,9,82,0,
2,19620,Note_off_c,9,87,0,
2,19620,Note_off_c,9,88,0,
2,19620,Note_off_c,9,89,0,
2,19620,Note_off_c,9,91,0,
2,19620,Note_off_c,9,93,0,
2,19650,Note_off_c,9,35,0,
2,19650,Note_off_c,9,36,0,
2,19650,Note_off_c,9,37,0,
2,19650,Note_off_c,9,38,0,
2,19650,Note_off_c,9,39,0,
2,19650,Note_off_c,9,40,0,
2,19650,Note_off_c,9,41,0,
2,19650,Note_off_c,9,42,0,
2,19650,Note_off_c,9,43,0,
2,19650,Note_off_c,9,44,0,
2,19650,Note_off_c,9,45,0,
2,19650,Note_off_c,9,46,0,
2,19650,Note_off_c,9,47,0,
2,19650,Note_off_c,9,48,0,
2,19650,Note_off_c,9,49,0,
2,19650,Note_off_c,9,50,0,
2,19650,Note_off_c,9,51,0,
2,19650,Note_off_c,9,56,0,
2,19650,Note_off_c,9,57,0,
2,19650,Note_off_c,9,59,0,
2,19650,Note_off_c,9,60,0,
2,19650,Note_off_c,9,61,0,
2,19650,Note_off_c,9,63,0,
2,19650,Note_off_c,9,68,0,
2,19650,Note_off_c,9,69,0,
2,19650,Note_off_c,9,70,0,
2,19650,Note_off_c,9,76,0,
2,19650,Note_off_c,9,80,0,
2,19650,Note_off_c,9,81,0,
2,19650,Note_off_c,9,82,0,
2,19650,Note_off_c,9,87,0,
2,19650,Note_off_c,9,88,0,
2,19650,Note_off_c,9,89,0,
2,19650,Note_off_c,9,91,0,
2,19650,Note_off_c,9,93,0,
2,19680,Note_off_c,9,35,0,
2,19680,Note_off_c,9,36,0,
2,19680,Note_off_c,9,37,0,
2,19680,Note_off_c,9,38,0,
2,19680,Note_off_c,9,39,0,
2,19680,Note_off_c,9,40,0,
2,19680,Note_off_c,9,41,0,
2,19680,Note_off_c,9,42,0,
2,19680,Note_off_c,9,43,0,
2,19680,Note_off_c,9,44,0,
2,19680,Note_off_c,9,45,0,
2,19680,Note_off_c,9,46,0,
2,19680,Note_off_c,9,47,0,
2,19680,Note_off_c,9,48,0,
2,19680,Note_off_c,9,49,0,
2,19680,Note_off_c,9,50,0,
2,19680,Note_off_c,9,51,0,
2,19680,Note_off_c,9,56,0,
2,19680,Note_off_c,9,57,0,
2,19680,Note_off_c,9,59,0,
2,19680,Note_off_c,9,60,0,
2,19680,Note_off_c,9,61,0,
2,19680,Note_off_c,9,63,0,
2,19680,Note_off_c,9,68,0,
2,19680,Note_off_c,9,69,0,
2,19680,Note_off_c,9,70,0,
2,19680,Note_off_c,9,76,0,
2,19680,Note_off_c,9,80,0,
2,19680,Note_off_c,9,81,0,
2,19680,Note_off_c,9,82,0,
2,19680,Note_off_c,9,87,0,
2,19680,Note_off_c,9,88,0,
2,19680,Note_off_c,9,89,0,
2,19680,Note_off_c,9,91,0,
2,19680,Note_off_c,9,93,0,
2,19710,Note_off_c,9,35,0,
2,19710,Note_off_c,9,36,0,
2,19710,Note_off_c,9,37,0,
2,19710,Note_off_c,9,38,0,
2,19710,Note_off_c,9,39,0,
2,19710,Note_off_c,9,40,0,
2,19710,Note_off_c,9,41,0,
2,19710,Note_off_c,9,42,0,
2,19710,Note_off_c,9,43,0,
2,19710,Note_off_c,9,44,0,
2,19710,Note_off_c,9,45,0,
2,19710,Note_off_c,9,46,0,
2,19710,Note_off_c,9,47,0,
2,19710,Note_off_c,9,48,0,
2,19710,Note_off_c,9,49,0,
2,19710,Note_off_c,9,50,0,
2,19710,Note_off_c,9,51,0,
2,19710,Note_off_c,9,56,0,
2,19710,Note_off_c,9,57,0,
2,19710,Note_off_c,9,59,0,
2,19710,Note_off_c,9,60,0,
2,19710,Note_off_c,9,61,0,
2,19710,Note_off_c,9,63,0,
2,19710,Note_off_c,9,68,0,
2,19710,Note_off_c,9,69,0,
2,19710,Note_off_c,9,70,0,
2,19710,Note_off_c,9,76,0,
2,19710,Note_off_c,9,80,0,
2,19710,Note_off_c,9,81,0,
2,19710,Note_off_c,9,82,0,
2,19710,Note_off_c,9,87,0,
2,19710,Note_off_c,9,88,0,
2,19710,Note_off_c,9,89,0,
2,19710,Note_off_c,9,91,0,
2,19710,Note_off_c,9,93,0,
2,19740,Note_off_c,9,35,0,
2,19740,Note_off_c,9,36,0,
2,19740,Note_off_c,9,37,0,
2,19740,Note_off_c,9,38,0,
2,19740,Note_off_c,9,39,0,
2,19740,Note_off_c,9,40,0,
2,19740,Note_off_c,9,41,0,
2,19740,Note_off_c,9,42,0,
2,19740,Note_off_c,9,43,0,
2,19740,Note_off_c,9,44,0,
2,19740,Note_off_c,9,45,0,
2,19740,Note_off_c,9,46,0,
2,19740,Note_off_c,9,47,0,
2,19740,Note_off_c,9,48,0,
2,19740,Note_off_c,9,49,0,
2,19740,Note_off_c,9,50,0,
2,19740,Note_off_c,9,51,0,
2,19740,Note_off_c,9,56,0,
2,19740,Note_off_c,9,57,0,
2,19740,Note_off_c,9,59,0,
2,19740,Note_off_c,9,60,0,
2,19740,Note_off_c,9,61,0,
2,19740,Note_off_c,9,63,0,
2,19740,Note_off_c,9,68,0,
2,19740,Note_off_c,9,69,0,
2,19740,Note_off_c,9,70,0,
2,19740,Note_off_c,9,76,0,
2,19740,Note_off_c,9,80,0,
2,19740,Note_off_c,9,81,0,
2,19740,Note_off_c,9,82,0,
2,19740,Note_off_c,9,87,0,
2,19740,Note_off_c,9,88,0,
2,19740,Note_off_c,9,89,0,
2,19740,Note_off_c,9,91,0,
2,19740,Note_off_c,9,93,0,
2,19770,Note_off_c,9,35,0,
2,19770,Note_off_c,9,36,0,
2,19770,Note_off_c,9,37,0,
2,19770,Note_off_c,9,38,0,
2,19770,Note_off_c,9,39,0,
2,19770,Note_off_c,9,40,0,
2,19770,Note_off_c,9,41,0,
2,19770,Note_off_c,9,42,0,
2,19770,Note_off_c,9,43,0,
2,19770,Note_off_c,9,44,0,
2,19770,Note_off_c,9,45,0,
2,19770,Note_off_c,9,46,0,
2,19770,Note_off_c,9,47,0,
2,19770,Note_off_c,9,48,0,
2,19770,Note_off_c,9,49,0,
2,19770,Note_off_c,9,50,0,
2,19770,Note_off_c,9,51,0,
2,19770,Note_off_c,9,56,0,
2,19770,Note_off_c,9,57,0,
2,19770,Note_off_c,9,59,0,
2,19770,Note_off_c,9,60,0,
2,19770,Note_off_c,9,61,0,
2,19770,Note_off_c,9,63,0,
2,19770,Note_off_c,9,68,0,
2,19770,Note_off_c,9,69,0,
2,19770,Note_off_c,9,70,0,
2,19770,Note_off_c,9,76,0,
2,19770,Note_off_c,9,80,0,
2,19770,Note_off_c,9,81,0,
2,19770,Note_off_c,9,82,0,
2,19770,Note_off_c,9,87,0,
2,19770,Note_off_c,9,88,0,
2,19770,Note_off_c,9,89,0,
2,19770,Note_off_c,9,91,0,
2,19770,Note_off_c,9,93,0,
2,19800,Note_off_c,9,35,0,
2,19800,Note_off_c,9,36,0,
2,19800,Note_off_c,9,37,0,
2,19800,Note_off_c,9,38,0,
2,19800,Note_off_c,9,39,0,
2,19800,Note_off_c,9,40,0,
2,19800,Note_off_c,9,41,0,
2,19800,Note_off_c,9,42,0,
2,19800,Note_off_c,9,43,0,
2,19800,Note_off_c,9,44,0,
2,19800,Note_off_c,9,45,0,
2,19800,Note_off_c,9,46,0,
2,19800,Note_off_c,9,47,0,
2,19800,Note_off_c,9,48,0,
2,19800,Note_off_c,9,49,0,
2,19800,Note_off_c,9,50,0,
2,19800,Note_off_c,9,51,0,
2,19800,Note_off_c,9,56,0,
2,19800,Note_off_c,9,57,0,
2,19800,Note_off_c,9,59,0,
2,19800,Note_off_c,9,60,0,
2,19800,Note_off_c,9,61,0,
2,19800,Note_off_c,9,63,0,
2,19800,Note_off_c,9,68,0,
2,19800,Note_off_c,9,69,0,
2,19800,Note_off_c,9,70,0,
2,19800,Note_off_c,9,76,0,
2,19800,Note_off_c,9,80,0,
2,19800,Note_off_c,9,81,0,
2,19800,Note_off_c,9,82,0,
2,19800,Note_off_c,9,87,0,
2,19800,Note_off_c,9,88,0,
2,19800,Note_off_c,9,89,0,
2,19800,Note_off_c,9,91,0,
2,19800,Note_off_c,9,93,0,
2,19830,Note_off_c,9,35,0,
2,19830,Note_off_c,9,36,0,
2,19830,Note_off_c,9,37,0,
2,19830,Note_off_c,9,38,0,
2,19830,Note_off_c,9,39,0,
2,19830,Note_off_c,9,40,0,
2,19830,Note_off_c,9,41,0,
2,19830,Note_off_c,9,42,0,
2,19830,Note_off_c,9,43,0,
2,19830,Note_off_c,9,44,0,
2,19830,Note_off_c,9,45,0,
2,19830,Note_off_c,9,46,0,
2,19830,Note_off_c,9,47,0,
2,19830,Note_off_c,9,48,0,
2,19830,Note_off_c,9,49,0,
2,19830,Note_off_c,9,50,0,
2,19830,Note_off_c,9,51,0,
2,19830,Note_off_c,9,56,0,
2,19830,Note_off_c,9,57,0,
2,19830,Note_off_c,9,59,0,
2,19830,Note_off_c,9,60,0,
2,19830,Note_off_c,9,61,0,
2,19830,Note_off_c,9,63,0,
2,19830,Note_off_c,9,68,0,
2,19830,Note_off_c,9,69,0,
2,19830,Note_off_c,9,70,0,
2,19830,Note_off_c,9,76,0,
2,19830,Note_off_c,9,80,0,
2,19830,Note_off_c,9,81,0,
2,19830,Note_off_c,9,82,0,
2,19830,Note_off_c,9,87,0,
2,19830,Note_off_c,9,88,0,
2,19830,Note_off_c,9,89,0,
2,19830,Note_off_c,9,91,0,
2,19830,Note_off_c,9,93,0,
2,19860,Note_off_c,9,35,0,
2,19860,Note_off_c,9,36,0,
2,19860,Note_off_c,9,37,0,
2,19860,Note_off_c,9,38,0,
2,19860,Note_off_c,9,39,0,
2,19860,Note_off_c,9,40,0,
2,19860,Note_off_c,9,41,0,
2,19860,Note_off_c,9,42,0,
2,19860,Note_off_c,9,43,0,
2,19860,Note_off_c,9,44,0,
2,19860,Note_off_c,9,45,0,
2,19860,Note_off_c,9,46,0,
2,19860,Note_off_c,9,47,0,
2,19860,Note_off_c,9,48,0,
2,19860,Note_off_c,9,49,0,
2,19860,Note_off_c,9,50,0,
2,19860,Note_off_c,9,51,0,
2,19860,Note_off_c,9,56,0,
2,19860,Note_off_c,9,57,0,
2,19860,Note_off_c,9,59,0,
2,19860,Note_off_c,9,60,0,
2,19860,Note_off_c,9,61,0,
2,19860,Note_off_c,9,63,0,
2,19860,Note_off_c,9,68,0,
2,19860,Note_off_c,9,69,0,
2,19860,Note_off_c,9,70,0,
2,19860,Note_off_c,9,76,0,
2,19860,Note_off_c,9,80,0,
2,19860,Note_off_c,9,81,0,
2,19860,Note_off_c,9,82,0,
2,19860,Note_off_c,9,87,0,
2,19860,Note_off_c,9,88,0,
2,19860,Note_off_c,9,89,0,
2,19860,Note_off_c,9,91,0,
2,19860,Note_off_c,9,93,0,
2,19890,Note_off_c,9,35,0,
2,19890,Note_off_c,9,36,0,
2,19890,Note_off_c,9,37,0,
2,19890,Note_off_c,9,38,0,
2,19890,Note_off_c,9,39,0,
2,19890,Note_off_c,9,40,0,
2,19890,Note_off_c,9,41,0,
2,19890,Note_off_c,9,42,0,
2,19890,Note_off_c,9,43,0,
2,19890,Note_off_c,9,44,0,
2,19890,Note_off_c,9,45,0,
2,19890,Note_off_c,9,46,0,
2,19890,Note_off_c,9,47,0,
2,19890,Note_off_c,9,48,0,
2,19890,Note_off_c,9,49,0,
2,19890,Note_off_c,9,50,0,
2,19890,Note_off_c,9,51,0,
2,19890,Note_off_c,9,56,0,
2,19890,Note_off_c,9,57,0,
2,19890,Note_off_c,9,59,0,
2,19890,Note_off_c,9,60,0,
2,19890,Note_off_c,9,61,0,
2,19890,Note_off_c,9,63,0,
2,19890,Note_off_c,9,68,0,
2,19890,Note_off_c,9,69,0,
2,19890,Note_off_c,9,70,0,
2,19890,Note_off_c,9,76,0,
2,19890,Note_off_c,9,80,0,
2,19890,Note_off_c,9,81,0,
2,19890,Note_off_c,9,82,0,
2,19890,Note_off_c,9,87,0,
2,19890,Note_off_c,9,88,0,
2,19890,Note_off_c,9,89,0,
2,19890,Note_off_c,9,91,0,
2,19890,Note_off_c,9,93,0,
2,19920,Note_off_c,9,35,0,
2,19920,Note_off_c,9,36,0,
2,19920,Note_off_c,9,37,0,
2,19920,Note_off_c,9,38,0,
2,19920,Note_off_c,9,39,0,
2,19920,Note_off_c,9,40,0,
2,19920,Note_off_c,9,41,0,
2,19920,Note_off_c,9,42,0,
2,19920,Note_off_c,9,43,0,
2,19920,Note_off_c,9,44,0,
2,19920,Note_off_c,9,45,0,
2,19920,Note_off_c,9,46,0,
2,19920,Note_off_c,9,47,0,
2,19920,Note_off_c,9,48,0,
2,19920,Note_off_c,9,49,0,
2,19920,Note_off_c,9,50,0,
2,19920,Note_off_c,9,51,0,
2,19920,Note_off_c,9,56,0,
2,19920,Note_off_c,9,57,0,
2,19920,Note_off_c,9,59,0,
2,19920,Note_off_c,9,60,0,
2,19920,Note_off_c,9,61,0,
2,19920,Note_off_c,9,63,0,
2,19920,Note_off_c,9,68,0,
2,19920,Note_off_c,9,69,0,
2,19920,Note_off_c,9,70,0,
2,19920,Note_off_c,9,76,0,
2,19920,Note_off_c,9,80,0,
2,19920,Note_off_c,9,81,0,
2,19920,Note_off_c,9,82,0,
2,19920,Note_off_c,9,87,0,
2,19920,Note_off_c,9,88,0,
2,19920,Note_off_c,9,89,0,
2,19920,Note_off_c,9,91,0,
2,19920,Note_off_c,9,93,0,
2,19950,Note_off_c,9,35,0,
2,19950,Note_off_c,9,36,0,
2,19950,Note_off_c,9,37,0,
2,19950,Note_off_c,9,38,0,
2,19950,Note_off_c,9,39,0,
2,19950,Note_off_c,9,40,0,
2,19950,Note_off_c,9,41,0,
2,19950,Note_off_c,9,42,0,
2,19950,Note_off_c,9,43,0,
2,19950,Note_off_c,9,44,0,
2,19950,Note_off_c,9,45,0,
2,19950,Note_off_c,9,46,0,
2,19950,Note_off_c,9,47,0,
2,19950,Note_off_c,9,48,0,
2,19950,Note_off_c,9,49,0,
2,19950,Note_off_c,9,50,0,
2,19950,Note_off_c,9,51,0,
2,19950,Note_off_c,9,56,0,
2,19950,Note_off_c,9,57,0,
2,19950,Note_off_c,9,59,0,
2,19950,Note_off_c,9,60,0,
2,19950,Note_off_c,9,61,0,
2,19950,Note_off_c,9,63,0,
2,19950,Note_off_c,9,68,0,
2,19950,Note_off_c,9,69,0,
2,19950,Note_off_c,9,70,0,
2,19950,Note_off_c,9,76,0,
2,19950,Note_off_c,9,80,0,
2,19950,Note_off_c,9,81,0,
2,19950,Note_off_c,9,82,0,
2,19950,Note_off_c,9,87,0,
2,19950,Note_off_c,9,88,0,
2,19950,Note_off_c,9,89,0,
2,19950,Note_off_c,9,91,0,
2,19950,Note_off_c,9,93,0,
2,19980,Note_off_c,9,35,0,
2,19980,Note_off_c,9,36,0,
2,19980,Note_off_c,9,37,0,
2,19980,Note_off_c,9,38,0,
2,19980,Note_off_c,9,39,0,
2,19980,Note_off_c,9,40,0,
2,19980,Note_off_c,9,41,0,
2,19980,Note_off_c,9,42,0,
2,19980,Note_off_c,9,43,0,
2,19980,Note_off_c,9,44,0,
2,19980,Note_off_c,9,45,0,
2,19980,Note_off_c,9,46,0,
2,19980,Note_off_c,9,47,0,
2,19980,Note_off_c,9,48,0,
2,19980,Note_off_c,9,49,0,
2,19980,Note_off_c,9,50,0,
2,19980,Note_off_c,9,51,0,
2,19980,Note_off_c,9,56,0,
2,19980,Note_off_c,9,57,0,
2,19980,Note_off_c,9,59,0,
2,19980,Note_off_c,9,60,0,
2,19980,Note_off_c,9,61,0,
2,19980,Note_off_c,9,63,0,
2,19980,Note_off_c,9,68,0,
2,19980,Note_off_c,9,69,0,
2,19980,Note_off_c,9,70,0,
2,19980,Note_off_c,9,76,0,
2,19980,Note_off_c,9,80,0,
2,19980,Note_off_c,9,81,0,
2,19980,Note_off_c,9,82,0,
2,19980,Note_off_c,9,87,0,
2,19980,Note_off_c,9,88,0,
2,19980,Note_off_c,9,89,0,
2,19980,Note_off_c,9,91,0,
2,19980,Note_off_c,9,93,0,
2,20010,Note_off_c,9,35,0,
2,20010,Note_off_c,9,36,0,
2,20010,Note_off_c,9,37,0,
2,20010,Note_off_c,9,38,0,
2,20010,Note_off_c,9,39,0,
2,20010,Note_off_c,9,40,0,
2,20010,Note_off_c,9,41,0,
2,20010,Note_off_c,9,42,0,
2,20010,Note_off_c,9,43,0,
2,20010,Note_off_c,9,44,0,
2,20010,Note_off_c,9,45,0,
2,20010,Note_off_c,9,46,0,
2,20010,Note_off_c,9,47,0,
2,20010,Note_off_c,9,48,0,
2,20010,Note_off_c,9,49,0,
2,20010,Note_off_c,9,50,0,
2,20010,Note_off_c,9,51,0,
2,20010,Note_off_c,9,56,0,
2,20010,Note_off_c,9,57,0,
2,20010,Note_off_c,9,59,0,
2,20010,Note_off_c,9,60,0,
2,20010,Note_off_c,9,61,0,
2,20010,Note_off_c,9,63,0,
2,20010,Note_off_c,9,68,0,
2,20010,Note_off_c,9,69,0,
2,20010,Note_off_c,9,70,0,
2,20010,Note_off_c,9,76,0,
2,20010,Note_off_c,9,80,0,
2,20010,Note_off_c,9,81,0,
2,20010,Note_off_c,9,82,0,
2,20010,Note_off_c,9,87,0,
2,20010,Note_off_c,9,88,0,
2,20010,Note_off_c,9,89,0,
2,20010,Note_off_c,9,91,0,
2,20010,Note_off_c,9,93,0,
2,20040,Note_off_c,9,35,0,
2,20040,Note_off_c,9,36,0,
2,20040,Note_off_c,9,37,0,
2,20040,Note_off_c,9,38,0,
2,20040,Note_off_c,9,39,0,
2,20040,Note_off_c,9,40,0,
2,20040,Note_off_c,9,41,0,
2,20040,Note_off_c,9,42,0,
2,20040,Note_off_c,9,43,0,
2,20040,Note_off_c,9,44,0,
2,20040,Note_off_c,9,45,0,
2,20040,Note_off_c,9,46,0,
2,20040,Note_off_c,9,47,0,
2,20040,Note_off_c,9,48,0,
2,20040,Note_off_c,9,49,0,
2,20040,Note_off_c,9,50,0,
2,20040,Note_off_c,9,51,0,
2,20040,Note_off_c,9,56,0,
2,20040,Note_off_c,9,57,0,
2,20040,Note_off_c,9,59,0,
2,20040,Note_off_c,9,60,0,
2,20040,Note_off_c,9,61,0,
2,20040,Note_off_c,9,63,0,
2,20040,Note_off_c,9,68,0,
2,20040,Note_off_c,9,69,0,
2,20040,Note_off_c,9,70,0,
2,20040,Note_off_c,9,76,0,
2,20040,Note_off_c,9,80,0,
2,20040,Note_off_c,9,81,0,
2,20040,Note_off_c,9,82,0,
2,20040,Note_off_c,9,87,0,
2,20040,Note_off_c,9,88,0,
2,20040,Note_off_c,9,89,0,
2,20040,Note_off_c,9,91,0,
2,20040,Note_off_c,9,93,0,
2,20070,Note_off_c,9,35,0,
2,20070,Note_off_c,9,36,0,
2,20070,Note_off_c,9,37,0,
2,20070,Note_off_c,9,38,0,
2,20070,Note_off_c,9,39,0,
2,20070,Note_off_c,9,40,0,
2,20070,Note_off_c,9,41,0,
2,20070,Note_off_c,9,42,0,
2,20070,Note_off_c,9,43,0,
2,20070,Note_off_c,9,44,0,
2,20070,Note_off_c,9,45,0,
2,20070,Note_off_c,9,46,0,
2,20070,Note_off_c,9,47,0,
2,20070,Note_off_c,9,48,0,
2,20070,Note_off_c,9,49,0,
2,20070,Note_off_c,9,50,0,
2,20070,Note_off_c,9,51,0,
2,20070,Note_off_c,9,56,0,
2,20070,Note_off_c,9,57,0,
2,20070,Note_off_c,9,59,0,
2,20070,Note_off_c,9,60,0,
2,20070,Note_off_c,9,61,0,
2,20070,Note_off_c,9,63,0,
2,20070,Note_off_c,9,68,0,
2,20070,Note_off_c,9,69,0,
2,20070,Note_off_c,9,70,0,
2,20070,Note_off_c,9,76,0,
2,20070,Note_off_c,9,80,0,
2,20070,Note_off_c,9,81,0,
2,20070,Note_off_c,9,82,0,
2,20070,Note_off_c,9,87,0,
2,20070,Note_off_c,9,88,0,
2,20070,Note_off_c,9,89,0,
2,20070,Note_off_c,9,91,0,
2,20070,Note_off_c,9,93,0,
2,20100,Note_off_c,9,35,0,
2,20100,Note_off_c,9,36,0,
2,20100,Note_off_c,9,37,0,
2,20100,Note_off_c,9,38,0,
2,20100,Note_off_c,9,39,0,
2,20100,Note_off_c,9,40,0,
2,20100,Note_off_c,9,41,0,
2,20100,Note_off_c,9,42,0,
2,20100,Note_off_c,9,43,0,
2,20100,Note_off_c,9,44,0,
2,20100,Note_off_c,9,45,0,
2,20100,Note_off_c,9,46,0,
2,20100,Note_off_c,9,47,0,
2,20100,Note_off_c,9,48,0,
2,20100,Note_off_c,9,49,0,
2,20100,Note_off_c,9,50,0,
2,20100,Note_off_c,9,51,0,
2,20100,Note_off_c,9,56,0,
2,20100,Note_off_c,9,57,0,
2,20100,Note_off_c,9,59,0,
2,20100,Note_off_c,9,60,0,
2,20100,Note_off_c,9,61,0,
2,20100,Note_off_c,9,63,0,
2,20100,Note_off_c,9,68,0,
2,20100,Note_off_c,9,69,0,
2,20100,Note_off_c,9,70,0,
2,20100,Note_off_c,9,76,0,
2,20100,Note_off_c,9,80,0,
2,20100,Note_off_c,9,81,0,
2,20100,Note_off_c,9,82,0,
2,20100,Note_off_c,9,87,0,
2,20100,Note_off_c,9,88,0,
2,20100,Note_off_c,9,89,0,
2,20100,Note_off_c,9,91,0,
2,20100,Note_off_c,9,93,0,
2,20130,Note_off_c,9,35,0,
2,20130,Note_off_c,9,36,0,
2,20130,Note_off_c,9,37,0,
2,20130,Note_off_c,9,38,0,
2,20130,Note_off_c,9,39,0,
2,20130,Note_off_c,9,40,0,
2,20130,Note_off_c,9,41,0,
2,20130,Note_off_c,9,42,0,
2,20130,Note_off_c,9,43,0,
2,20130,Note_off_c,9,44,0,
2,20130,Note_off_c,9,45,0,
2,20130,Note_off_c,9,46,0,
2,20130,Note_off_c,9,47,0,
2,20130,Note_off_c,9,48,0,
2,20130,Note_off_c,9,49,0,
2,20130,Note_off_c,9,50,0,
2,20130,Note_off_c,9,51,0,
2,20130,Note_off_c,9,56,0,
2,20130,Note_off_c,9,57,0,
2,20130,Note_off_c,9,59,0,
2,20130,Note_off_c,9,60,0,
2,20130,Note_off_c,9,61,0,
2,20130,Note_off_c,9,63,0,
2,20130,Note_off_c,9,68,0,
2,20130,Note_off_c,9,69,0,
2,20130,Note_off_c,9,70,0,
2,20130,Note_off_c,9,76,0,
2,20130,Note_off_c,9,80,0,
2,20130,Note_off_c,9,81,0,
2,20130,Note_off_c,9,82,0,
2,20130,Note_off_c,9,87,0,
2,20130,Note_off_c,9,88,0,
2,20130,Note_off_c,9,89,0,
2,20130,Note_off_c,9,91,0,
2,20130,Note_off_c,9,93,0,
2,20160,Note_off_c,9,35,0,
2,20160,Note_off_c,9,36,0,
2,20160,Note_off_c,9,37,0,
2,20160,Note_off_c,9,38,0,
2,20160,Note_off_c,9,39,0,
2,20160,Note_off_c,9,40,0,
2,20160,Note_off_c,9,41,0,
2,20160,Note_off_c,9,42,0,
2,20160,Note_off_c,9,43,0,
2,20160,Note_off_c,9,44,0,
2,20160,Note_off_c,9,45,0,
2,20160,Note_off_c,9,46,0,
2,20160,Note_off_c,9,47,0,
2,20160,Note_off_c,9,48,0,
2,20160,Note_off_c,9,49,0,
2,20160,Note_off_c,9,50,0,
2,20160,Note_off_c,9,51,0,
2,20160,Note_off_c,9,56,0,
2,20160,Note_off_c,9,57,0,
2,20160,Note_off_c,9,59,0,
2,20160,Note_off_c,9,60,0,
2,20160,Note_off_c,9,61,0,
2,20160,Note_off_c,9,63,0,
2,20160,Note_off_c,9,68,0,
2,20160,Note_off_c,9,69,0,
2,20160,Note_off_c,9,70,0,
2,20160,Note_off_c,9,76,0,
2,20160,Note_off_c,9,80,0,
2,20160,Note_off_c,9,81,0,
2,20160,Note_off_c,9,82,0,
2,20160,Note_off_c,9,87,0,
2,20160,Note_off_c,9,88,0,
2,20160,Note_off_c,9,89,0,
2,20160,Note_off_c,9,91,0,
2,20160,Note_off_c,9,93,0,
2,20190,Note_off_c,9,35,0,
2,20190,Note_off_c,9,36,0,
2,20190,Note_off_c,9,37,0,
2,20190,Note_off_c,9,38,0,
2,20190,Note_off_c,9,39,0,
2,20190,Note_off_c,9,40,0,
2,20190,Note_off_c,9,41,0,
2,20190,Note_off_c,9,42,0,
2,20190,Note_off_c,9,43,0,
2,20190,Note_off_c,9,44,0,
2,20190,Note_off_c,9,45,0,
2,20190,Note_off_c,9,46,0,
2,20190,Note_off_c,9,47,0,
2,20190,Note_off_c,9,48,0,
2,20190,Note_off_c,9,49,0,
2,20190,Note_off_c,9,50,0,
2,20190,Note_off_c,9,51,0,
2,20190,Note_off_c,9,56,0,
2,20190,Note_off_c,9,57,0,
2,20190,Note_off_c,9,59,0,
2,20190,Note_off_c,9,60,0,
2,20190,Note_off_c,9,61,0,
2,20190,Note_off_c,9,63,0,
2,20190,Note_off_c,9,68,0,
2,20190,Note_off_c,9,69,0,
2,20190,Note_off_c,9,70,0,
2,20190,Note_off_c,9,76,0,
2,20190,Note_off_c,9,80,0,
2,20190,Note_off_c,9,81,0,
2,20190,Note_off_c,9,82,0,
2,20190,Note_off_c,9,87,0,
2,20190,Note_off_c,9,88,0,
2,20190,Note_off_c,9,89,0,
2,20190,Note_off_c,9,91,0,
2,20190,Note_off_c,9,93,0,
2,20220,Note_off_c,9,35,0,
2,20220,Note_off_c,9,36,0,
2,20220,Note_off_c,9,37,0,
2,20220,Note_off_c,9,38,0,
2,20220,Note_off_c,9,39,0,
2,20220,Note_off_c,9,40,0,
2,20220,Note_off_c,9,41,0,
2,20220,Note_off_c,9,42,0,
2,20220,Note_off_c,9,43,0,
2,20220,Note_off_c,9,44,0,
2,20220,Note_off_c,9,45,0,
2,20220,Note_off_c,9,46,0,
2,20220,Note_off_c,9,47,0,
2,20220,Note_off_c,9,48,0,
2,20220,Note_off_c,9,49,0,
2,20220,Note_off_c,9,50,0,
2,20220,Note_off_c,9,51,0,
2,20220,Note_off_c,9,56,0,
2,20220,Note_off_c,9,57,0,
2,20220,Note_off_c,9,59,0,
2,20220,Note_off_c,9,60,0,
2,20220,Note_off_c,9,61,0,
2,20220,Note_off_c,9,63,0,
2,20220,Note_off_c,9,68,0,
2,20220,Note_off_c,9,69,0,
2,20220,Note_off_c,9,70,0,
2,20220,Note_off_c,9,76,0,
2,20220,Note_off_c,9,80,0,
2,20220,Note_off_c,9,81,0,
2,20220,Note_off_c,9,82,0,
2,20220,Note_off_c,9,87,0,
2,20220,Note_off_c,9,88,0,
2,20220,Note_off_c,9,89,0,
2,20220,Note_off_c,9,91,0,
2,20220,Note_off_c,9,93,0,
2,20250,Note_off_c,9,35,0,
2,20250,Note_off_c,9,36,0,
2,20250,Note_off_c,9,37,0,
2,20250,Note_off_c,9,38,0,
2,20250,Note_off_c,9,39,0,
2,20250,Note_off_c,9,40,0,
2,20250,Note_off_c,9,41,0,
2,20250,Note_off_c,9,42,0,
2,20250,Note_off_c,9,43,0,
2,20250,Note_off_c,9,44,0,
2,20250,Note_off_c,9,45,0,
2,20250,Note_off_c,9,46,0,
2,20250,Note_off_c,9,47,0,
2,20250,Note_off_c,9,48,0,
2,20250,Note_off_c,9,49,0,
2,20250,Note_off_c,9,50,0,
2,20250,Note_off_c,9,51,0,
2,20250,Note_off_c,9,56,0,
2,20250,Note_off_c,9,57,0,
2,20250,Note_off_c,9,59,0,
2,20250,Note_off_c,9,60,0,
2,20250,Note_off_c,9,61,0,
2,20250,Note_off_c,9,63,0,
2,20250,Note_off_c,9,68,0,
2,20250,Note_off_c,9,69,0,
2,20250,Note_off_c,9,70,0,
2,20250,Note_off_c,9,76,0,
2,20250,Note_off_c,9,80,0,
2,20250,Note_off_c,9,81,0,
2,20250,Note_off_c,9,82,0,
2,20250,Note_off_c,9,87,0,
2,20250,Note_off_c,9,88,0,
2,20250,Note_off_c,9,89,0,
2,20250,Note_off_c,9,91,0,
2,20250,Note_off_c,9,93,0,
2,20280,Note_off_c,9,35,0,
2,20280,Note_off_c,9,36,0,
2,20280,Note_off_c,9,37,0,
2,20280,Note_off_c,9,38,0,
2,20280,Note_off_c,9,39,0,
2,20280,Note_off_c,9,40,0,
2,20280,Note_off_c,9,41,0,
2,20280,Note_off_c,9,42,0,
2,20280,Note_off_c,9,43,0,
2,20280,Note_off_c,9,44,0,
2,20280,Note_off_c,9,45,0,
2,20280,Note_off_c,9,46,0,
2,20280,Note_off_c,9,47,0,
2,20280,Note_off_c,9,48,0,
2,20280,Note_off_c,9,49,0,
2,20280,Note_off_c,9,50,0,
2,20280,Note_off_c,9,51,0,
2,20280,Note_off_c,9,56,0,
2,20280,Note_off_c,9,57,0,
2,20280,Note_off_c,9,59,0,
2,20280,Note_off_c,9,60,0,
2,20280,Note_off_c,9,61,0,
2,20280,Note_off_c,9,63,0,
2,20280,Note_off_c,9,68,0,
2,20280,Note_off_c,9,69,0,
2,20280,Note_off_c,9,70,0,
2,20280,Note_off_c,9,76,0,
2,20280,Note_off_c,9,80,0,
2,20280,Note_off_c,9,81,0,
2,20280,Note_off_c,9,82,0,
2,20280,Note_off_c,9,87,0,
2,20280,Note_off_c,9,88,0,
2,20280,Note_off_c,9,89,0,
2,20280,Note_off_c,9,91,0,
2,20280,Note_off_c,9,93,0,
2,20310,Note_off_c,9,35,0,
2,20310,Note_off_c,9,36,0,
2,20310,Note_off_c,9,37,0,
2,20310,Note_off_c,9,38,0,
2,20310,Note_off_c,9,39,0,
2,20310,Note_off_c,9,40,0,
2,20310,Note_off_c,9,41,0,
2,20310,Note_off_c,9,42,0,
2,20310,Note_off_c,9,43,0,
2,20310,Note_off_c,9,44,0,
2,20310,Note_off_c,9,45,0,
2,20310,Note_off_c,9,46,0,
2,20310,Note_off_c,9,47,0,
2,20310,Note_off_c,9,48,0,
2,20310,Note_off_c,9,49,0,
2,20310,Note_off_c,9,50,0,
2,20310,Note_off_c,9,51,0,
2,20310,Note_off_c,9,56,0,
2,20310,Note_off_c,9,57,0,
2,20310,Note_off_c,9,59,0,
2,20310,Note_off_c,9,60,0,
2,20310,Note_off_c,9,61,0,
2,20310,Note_off_c,9,63,0,
2,20310,Note_off_c,9,68,0,
2,20310,Note_off_c,9,69,0,
2,20310,Note_off_c,9,70,0,
2,20310,Note_off_c,9,76,0,
2,20310,Note_off_c,9,80,0,
2,20310,Note_off_c,9,81,0,
2,20310,Note_off_c,9,82,0,
2,20310,Note_off_c,9,87,0,
2,20310,Note_off_c,9,88,0,
2,20310,Note_off_c,9,89,0,
2,20310,Note_off_c,9,91,0,
2,20310,Note_off_c,9,93,0,
2,20340,Note_off_c,9,35,0,
2,20340,Note_off_c,9,36,0,
2,20340,Note_off_c,9,37,0,
2,20340,Note_off_c,9,38,0,
2,20340,Note_off_c,9,39,0,
2,20340,Note_off_c,9,40,0,
2,20340,Note_off_c,9,41,0,
2,20340,Note_off_c,9,42,0,
2,20340,Note_off_c,9,43,0,
2,20340,Note_off_c,9,44,0,
2,20340,Note_off_c,9,45,0,
2,20340,Note_off_c,9,46,0,
2,20340,Note_off_c,9,47,0,
2,20340,Note_off_c,9,48,0,
2,20340,Note_off_c,9,49,0,
2,20340,Note_off_c,9,50,0,
2,20340,Note_off_c,9,51,0,
2,20340,Note_off_c,9,56,0,
2,20340,Note_off_c,9,57,0,
2,20340,Note_off_c,9,59,0,
2,20340,Note_off_c,9,60,0,
2,20340,Note_off_c,9,61,0,
2,20340,Note_off_c,9,63,0,
2,20340,Note_off_c,9,68,0,
2,20340,Note_off_c,9,69,0,
2,20340,Note_off_c,9,70,0,
2,20340,Note_off_c,9,76,0,
2,20340,Note_off_c,9,80,0,
2,20340,Note_off_c,9,81,0,
2,20340,Note_off_c,9,82,0,
2,20340,Note_off_c,9,87,0,
2,20340,Note_off_c,9,88,0,
2,20340,Note_off_c,9,89,0,
2,20340,Note_off_c,9,91,0,
2,20340,Note_off_c,9,93,0,
2,20370,Note_off_c,9,35,0,
2,20370,Note_off_c,9,36,0,
2,20370,Note_off_c,9,37,0,
2,20370,Note_off_c,9,38,0,
2,20370,Note_off_c,9,39,0,
2,20370,Note_off_c,9,40,0,
2,20370,Note_off_c,9,41,0,
2,20370,Note_off_c,9,42,0,
2,20370,Note_off_c,9,43,0,
2,20370,Note_off_c,9,44,0,
2,20370,Note_off_c,9,45,0,
2,20370,Note_off_c,9,46,0,
2,20370,Note_off_c,9,47,0,
2,20370,Note_off_c,9,48,0,
2,20370,Note_off_c,9,49,0,
2,20370,Note_off_c,9,50,0,
2,20370,Note_off_c,9,51,0,
2,20370,Note_off_c,9,56,0,
2,20370,Note_off_c,9,57,0,
2,20370,Note_off_c,9,59,0,
2,20370,Note_off_c,9,60,0,
2,20370,Note_off_c,9,61,0,
2,20370,Note_off_c,9,63,0,
2,20370,Note_off_c,9,68,0,
2,20370,Note_off_c,9,69,0,
2,20370,Note_off_c,9,70,0,
2,20370,Note_off_c,9,76,0,
2,20370,Note_off_c,9,80,0,
2,20370,Note_off_c,9,81,0,
2,20370,Note_off_c,9,82,0,
2,20370,Note_off_c,9,87,0,
2,20370,Note_off_c,9,88,0,
2,20370,Note_off_c,9,89,0,
2,20370,Note_off_c,9,91,0,
2,20370,Note_off_c,9,93,0,
2,20400,Note_off_c,9,35,0,
2,20400,Note_off_c,9,36,0,
2,20400,Note_off_c,9,37,0,
2,20400,Note_off_c,9,38,0,
2,20400,Note_off_c,9,39,0,
2,20400,Note_off_c,9,40,0,
2,20400,Note_off_c,9,41,0,
2,20400,Note_off_c,9,42,0,
2,20400,Note_off_c,9,43,0,
2,20400,Note_off_c,9,44,0,
2,20400,Note_off_c,9,45,0,
2,20400,Note_off_c,9,46,0,
2,20400,Note_off_c,9,47,0,
2,20400,Note_off_c,9,48,0,
2,20400,Note_off_c,9,49,0,
2,20400,Note_off_c,9,50,0,
2,20400,Note_off_c,9,51,0,
2,20400,Note_off_c,9,56,0,
2,20400,Note_off_c,9,57,0,
2,20400,Note_off_c,9,59,0,
2,20400,Note_off_c,9,60,0,
2,20400,Note_off_c,9,61,0,
2,20400,Note_off_c,9,63,0,
2,20400,Note_off_c,9,68,0,
2,20400,Note_off_c,9,69,0,
2,20400,Note_off_c,9,70,0,
2,20400,Note_off_c,9,76,0,
2,20400,Note_off_c,9,80,0,
2,20400,Note_off_c,9,81,0,
2,20400,Note_off_c,9,82,0,
2,20400,Note_off_c,9,87,0,
2,20400,Note_off_c,9,88,0,
2,20400,Note_off_c,9,89,0,
2,20400,Note_off_c,9,91,0,
2,20400,Note_off_c,9,93,0,
2,20430,Note_off_c,9,35,0,
2,20430,Note_off_c,9,36,0,
2,20430,Note_off_c,9,37,0,
2,20430,Note_off_c,9,38,0,
2,20430,Note_off_c,9,39,0,
2,20430,Note_off_c,9,40,0,
2,20430,Note_off_c,9,41,0,
2,20430,Note_off_c,9,42,0,
2,20430,Note_off_c,9,43,0,
2,20430,Note_off_c,9,44,0,
2,20430,Note_off_c,9,45,0,
2,20430,Note_off_c,9,46,0,
2,20430,Note_off_c,9,47,0,
2,20430,Note_off_c,9,48,0,
2,20430,Note_off_c,9,49,0,
2,20430,Note_off_c,9,50,0,
2,20430,Note_off_c,9,51,0,
2,20430,Note_off_c,9,56,0,
2,20430,Note_off_c,9,57,0,
2,20430,Note_off_c,9,59,0,
2,20430,Note_off_c,9,60,0,
2,20430,Note_off_c,9,61,0,
2,20430,Note_off_c,9,63,0,
2,20430,Note_off_c,9,68,0,
2,20430,Note_off_c,9,69,0,
2,20430,Note_off_c,9,70,0,
2,20430,Note_off_c,9,76,0,
2,20430,Note_off_c,9,80,0,
2,20430,Note_off_c,9,81,0,
2,20430,Note_off_c,9,82,0,
2,20430,Note_off_c,9,87,0,
2,20430,Note_off_c,9,88,0,
2,20430,Note_off_c,9,89,0,
2,20430,Note_off_c,9,91,0,
2,20430,Note_off_c,9,93,0,
2,20460,Note_off_c,9,35,0,
2,20460,Note_off_c,9,36,0,
2,20460,Note_off_c,9,37,0,
2,20460,Note_off_c,9,38,0,
2,20460,Note_off_c,9,39,0,
2,20460,Note_off_c,9,40,0,
2,20460,Note_off_c,9,41,0,
2,20460,Note_off_c,9,42,0,
2,20460,Note_off_c,9,43,0,
2,20460,Note_off_c,9,44,0,
2,20460,Note_off_c,9,45,0,
2,20460,Note_off_c,9,46,0,
2,20460,Note_off_c,9,47,0,
2,20460,Note_off_c,9,48,0,
2,20460,Note_off_c,9,49,0,
2,20460,Note_off_c,9,50,0,
2,20460,Note_off_c,9,51,0,
2,20460,Note_off_c,9,56,0,
2,20460,Note_off_c,9,57,0,
2,20460,Note_off_c,9,59,0,
2,20460,Note_off_c,9,60,0,
2,20460,Note_off_c,9,61,0,
2,20460,Note_off_c,9,63,0,
2,20460,Note_off_c,9,68,0,
2,20460,Note_off_c,9,69,0,
2,20460,Note_off_c,9,70,0,
2,20460,Note_off_c,9,76,0,
2,20460,Note_off_c,9,80,0,
2,20460,Note_off_c,9,81,0,
2,20460,Note_off_c,9,82,0,
2,20460,Note_off_c,9,87,0,
2,20460,Note_off_c,9,88,0,
2,20460,Note_off_c,9,89,0,
2,20460,Note_off_c,9,91,0,
2,20460,Note_off_c,9,93,0,
2,20490,Note_off_c,9,35,0,
2,20490,Note_off_c,9,36,0,
2,20490,Note_off_c,9,37,0,
2,20490,Note_off_c,9,38,0,
2,20490,Note_off_c,9,39,0,
2,20490,Note_off_c,9,40,0,
2,20490,Note_off_c,9,41,0,
2,20490,Note_off_c,9,42,0,
2,20490,Note_off_c,9,43,0,
2,20490,Note_off_c,9,44,0,
2,20490,Note_off_c,9,45,0,
2,20490,Note_off_c,9,46,0,
2,20490,Note_off_c,9,47,0,
2,20490,Note_off_c,9,48,0,
2,20490,Note_off_c,9,49,0,
2,20490,Note_off_c,9,50,0,
2,20490,Note_off_c,9,51,0,
2,20490,Note_off_c,9,56,0,
2,20490,Note_off_c,9,57,0,
2,20490,Note_off_c,9,59,0,
2,20490,Note_off_c,9,60,0,
2,20490,Note_off_c,9,61,0,
2,20490,Note_off_c,9,63,0,
2,20490,Note_off_c,9,68,0,
2,20490,Note_off_c,9,69,0,
2,20490,Note_off_c,9,70,0,
2,20490,Note_off_c,9,76,0,
2,20490,Note_off_c,9,80,0,
2,20490,Note_off_c,9,81,0,
2,20490,Note_off_c,9,82,0,
2,20490,Note_off_c,9,87,0,
2,20490,Note_off_c,9,88,0,
2,20490,Note_off_c,9,89,0,
2,20490,Note_off_c,9,91,0,
2,20490,Note_off_c,9,93,0,
2,20520,Note_off_c,9,35,0,
2,20520,Note_off_c,9,36,0,
2,20520,Note_off_c,9,37,0,
2,20520,Note_off_c,9,38,0,
2,20520,Note_off_c,9,39,0,
2,20520,Note_off_c,9,40,0,
2,20520,Note_off_c,9,41,0,
2,20520,Note_off_c,9,42,0,
2,20520,Note_off_c,9,43,0,
2,20520,Note_off_c,9,44,0,
2,20520,Note_off_c,9,45,0,
2,20520,Note_off_c,9,46,0,
2,20520,Note_off_c,9,47,0,
2,20520,Note_off_c,9,48,0,
2,20520,Note_off_c,9,49,0,
2,20520,Note_off_c,9,50,0,
2,20520,Note_off_c,9,51,0,
2,20520,Note_off_c,9,56,0,
2,20520,Note_off_c,9,57,0,
2,20520,Note_off_c,9,59,0,
2,20520,Note_off_c,9,60,0,
2,20520,Note_off_c,9,61,0,
2,20520,Note_off_c,9,63,0,
2,20520,Note_off_c,9,68,0,
2,20520,Note_off_c,9,69,0,
2,20520,Note_off_c,9,70,0,
2,20520,Note_off_c,9,76,0,
2,20520,Note_off_c,9,80,0,
2,20520,Note_off_c,9,81,0,
2,20520,Note_off_c,9,82,0,
2,20520,Note_off_c,9,87,0,
2,20520,Note_off_c,9,88,0,
2,20520,Note_off_c,9,89,0,
2,20520,Note_off_c,9,91,0,
2,20520,Note_off_c,9,93,0,
2,20550,Note_off_c,9,35,0,
2,20550,Note_off_c,9,36,0,
2,20550,Note_off_c,9,37,0,
2,20550,Note_off_c,9,38,0,
2,20550,Note_off_c,9,39,0,
2,20550,Note_off_c,9,40,0,
2,20550,Note_off_c,9,41,0,
2,20550,Note_off_c,9,42,0,
2,20550,Note_off_c,9,43,0,
2,20550,Note_off_c,9,44,0,
2,20550,Note_off_c,9,45,0,
2,20550,Note_off_c,9,46,0,
2,20550,Note_off_c,9,47,0,
2,20550,Note_off_c,9,48,0,
2,20550,Note_off_c,9,49,0,
2,20550,Note_off_c,9,50,0,
2,20550,Note_off_c,9,51,0,
2,20550,Note_off_c,9,56,0,
2,20550,Note_off_c,9,57,0,
2,20550,Note_off_c,9,59,0,
2,20550,Note_off_c,9,60,0,
2,20550,Note_off_c,9,61,0,
2,20550,Note_off_c,9,63,0,
2,20550,Note_off_c,9,68,0,
2,20550,Note_off_c,9,69,0,
2,20550,Note_off_c,9,70,0,
2,20550,Note_off_c,9,76,0,
2,20550,Note_off_c,9,80,0,
2,20550,Note_off_c,9,81,0,
2,20550,Note_off_c,9,82,0,
2,20550,Note_off_c,9,87,0,
2,20550,Note_off_c,9,88,0,
2,20550,Note_off_c,9,89,0,
2,20550,Note_off_c,9,91,0,
2,20550,Note_off_c,9,93,0,
2,20580,Note_off_c,9,35,0,
2,20580,Note_off_c,9,36,0,
2,20580,Note_off_c,9,37,0,
2,20580,Note_off_c,9,38,0,
2,20580,Note_off_c,9,39,0,
2,20580,Note_off_c,9,40,0,
2,20580,Note_off_c,9,41,0,
2,20580,Note_off_c,9,42,0,
2,20580,Note_off_c,9,43,0,
2,20580,Note_off_c,9,44,0,
2,20580,Note_off_c,9,45,0,
2,20580,Note_off_c,9,46,0,
2,20580,Note_off_c,9,47,0,
2,20580,Note_off_c,9,48,0,
2,20580,Note_off_c,9,49,0,
2,20580,Note_off_c,9,50,0,
2,20580,Note_off_c,9,51,0,
2,20580,Note_off_c,9,56,0,
2,20580,Note_off_c,9,57,0,
2,20580,Note_off_c,9,59,0,
2,20580,Note_off_c,9,60,0,
2,20580,Note_off_c,9,61,0,
2,20580,Note_off_c,9,63,0,
2,20580,Note_off_c,9,68,0,
2,20580,Note_off_c,9,69,0,
2,20580,Note_off_c,9,70,0,
2,20580,Note_off_c,9,76,0,
2,20580,Note_off_c,9,80,0,
2,20580,Note_off_c,9,81,0,
2,20580,Note_off_c,9,82,0,
2,20580,Note_off_c,9,87,0,
2,20580,Note_off_c,9,88,0,
2,20580,Note_off_c,9,89,0,
2,20580,Note_off_c,9,91,0,
2,20580,Note_off_c,9,93,0,
2,20610,Note_off_c,9,35,0,
2,20610,Note_off_c,9,36,0,
2,20610,Note_off_c,9,37,0,
2,20610,Note_off_c,9,38,0,
2,20610,Note_off_c,9,39,0,
2,20610,Note_off_c,9,40,0,
2,20610,Note_off_c,9,41,0,
2,20610,Note_off_c,9,42,0,
2,20610,Note_off_c,9,43,0,
2,20610,Note_off_c,9,44,0,
2,20610,Note_off_c,9,45,0,
2,20610,Note_off_c,9,46,0,
2,20610,Note_off_c,9,47,0,
2,20610,Note_off_c,9,48,0,
2,20610,Note_off_c,9,49,0,
2,20610,Note_off_c,9,50,0,
2,20610,Note_off_c,9,51,0,
2,20610,Note_off_c,9,56,0,
2,20610,Note_off_c,9,57,0,
2,20610,Note_off_c,9,59,0,
2,20610,Note_off_c,9,60,0,
2,20610,Note_off_c,9,61,0,
2,20610,Note_off_c,9,63,0,
2,20610,Note_off_c,9,68,0,
2,20610,Note_off_c,9,69,0,
2,20610,Note_off_c,9,70,0,
2,20610,Note_off_c,9,76,0,
2,20610,Note_off_c,9,80,0,
2,20610,Note_off_c,9,81,0,
2,20610,Note_off_c,9,82,0,
2,20610,Note_off_c,9,87,0,
2,20610,Note_off_c,9,88,0,
2,20610,Note_off_c,9,89,0,
2,20610,Note_off_c,9,91,0,
2,20610,Note_off_c,9,93,0,
2,20640,Note_off_c,9,35,0,
2,20640,Note_off_c,9,36,0,
2,20640,Note_off_c,9,37,0,
2,20640,Note_off_c,9,38,0,
2,20640,Note_off_c,9,39,0,
2,20640,Note_off_c,9,40,0,
2,20640,Note_off_c,9,41,0,
2,20640,Note_off_c,9,42,0,
2,20640,Note_off_c,9,43,0,
2,20640,Note_off_c,9,44,0,
2,20640,Note_off_c,9,45,0,
2,20640,Note_off_c,9,46,0,
2,20640,Note_off_c,9,47,0,
2,20640,Note_off_c,9,48,0,
2,20640,Note_off_c,9,49,0,
2,20640,Note_off_c,9,50,0,
2,20640,Note_off_c,9,51,0,
2,20640,Note_off_c,9,56,0,
2,20640,Note_off_c,9,57,0,
2,20640,Note_off_c,9,59,0,
2,20640,Note_off_c,9,60,0,
2,20640,Note_off_c,9,61,0,
2,20640,Note_off_c,9,63,0,
2,20640,Note_off_c,9,68,0,
2,20640,Note_off_c,9,69,0,
2,20640,Note_off_c,9,70,0,
2,20640,Note_off_c,9,76,0,
2,20640,Note_off_c,9,80,0,
2,20640,Note_off_c,9,81,0,
2,20640,Note_off_c,9,82,0,
2,20640,Note_off_c,9,87,0,
2,20640,Note_off_c,9,88,0,
2,20640,Note_off_c,9,89,0,
2,20640,Note_off_c,9,91,0,
2,20640,Note_off_c,9,93,0,
2,20670,Note_off_c,9,35,0,
2,20670,Note_off_c,9,36,0,
2,20670,Note_off_c,9,37,0,
2,20670,Note_off_c,9,38,0,
2,20670,Note_off_c,9,39,0,
2,20670,Note_off_c,9,40,0,
2,20670,Note_off_c,9,41,0,
2,20670,Note_off_c,9,42,0,
2,20670,Note_off_c,9,43,0,
2,20670,Note_off_c,9,44,0,
2,20670,Note_off_c,9,45,0,
2,20670,Note_off_c,9,46,0,
2,20670,Note_off_c,9,47,0,
2,20670,Note_off_c,9,48,0,
2,20670,Note_off_c,9,49,0,
2,20670,Note_off_c,9,50,0,
2,20670,Note_off_c,9,51,0,
2,20670,Note_off_c,9,56,0,
2,20670,Note_off_c,9,57,0,
2,20670,Note_off_c,9,59,0,
2,20670,Note_off_c,9,60,0,
2,20670,Note_off_c,9,61,0,
2,20670,Note_off_c,9,63,0,
2,20670,Note_off_c,9,68,0,
2,20670,Note_off_c,9,69,0,
2,20670,Note_off_c,9,70,0,
2,20670,Note_off_c,9,76,0,
2,20670,Note_off_c,9,80,0,
2,20670,Note_off_c,9,81,0,
2,20670,Note_off_c,9,82,0,
2,20670,Note_off_c,9,87,0,
2,20670,Note_off_c,9,88,0,
2,20670,Note_off_c,9,89,0,
2,20670,Note_off_c,9,91,0,
2,20670,Note_off_c,9,93,0,
2,20700,Note_off_c,9,35,0,
2,20700,Note_off_c,9,36,0,
2,20700,Note_off_c,9,37,0,
2,20700,Note_off_c,9,38,0,
2,20700,Note_off_c,9,39,0,
2,20700,Note_off_c,9,40,0,
2,20700,Note_off_c,9,41,0,
2,20700,Note_off_c,9,42,0,
2,20700,Note_off_c,9,43,0,
2,20700,Note_off_c,9,44,0,
2,20700,Note_off_c,9,45,0,
2,20700,Note_off_c,9,46,0,
2,20700,Note_off_c,9,47,0,
2,20700,Note_off_c,9,48,0,
2,20700,Note_off_c,9,49,0,
2,20700,Note_off_c,9,50,0,
2,20700,Note_off_c,9,51,0,
2,20700,Note_off_c,9,56,0,
2,20700,Note_off_c,9,57,0,
2,20700,Note_off_c,9,59,0,
2,20700,Note_off_c,9,60,0,
2,20700,Note_off_c,9,61,0,
2,20700,Note_off_c,9,63,0,
2,20700,Note_off_c,9,68,0,
2,20700,Note_off_c,9,69,0,
2,20700,Note_off_c,9,70,0,
2,20700,Note_off_c,9,76,0,
2,20700,Note_off_c,9,80,0,
2,20700,Note_off_c,9,81,0,
2,20700,Note_off_c,9,82,0,
2,20700,Note_off_c,9,87,0,
2,20700,Note_off_c,9,88,0,
2,20700,Note_off_c,9,89,0,
2,20700,Note_off_c,9,91,0,
2,20700,Note_off_c,9,93,0,
2,20730,Note_off_c,9,35,0,
2,20730,Note_off_c,9,36,0,
2,20730,Note_off_c,9,37,0,
2,20730,Note_off_c,9,38,0,
2,20730,Note_off_c,9,39,0,
2,20730,Note_off_c,9,40,0,
2,20730,Note_off_c,9,41,0,
2,20730,Note_off_c,9,42,0,
2,20730,Note_off_c,9,43,0,
2,20730,Note_off_c,9,44,0,
2,20730,Note_off_c,9,45,0,
2,20730,Note_off_c,9,46,0,
2,20730,Note_off_c,9,47,0,
2,20730,Note_off_c,9,48,0,
2,20730,Note_off_c,9,49,0,
2,20730,Note_off_c,9,50,0,
2,20730,Note_off_c,9,51,0,
2,20730,Note_off_c,9,56,0,
2,20730,Note_off_c,9,57,0,
2,20730,Note_off_c,9,59,0,
2,20730,Note_off_c,9,60,0,
2,20730,Note_off_c,9,61,0,
2,20730,Note_off_c,9,63,0,
2,20730,Note_off_c,9,68,0,
2,20730,Note_off_c,9,69,0,
2,20730,Note_off_c,9,70,0,
2,20730,Note_off_c,9,76,0,
2,20730,Note_off_c,9,80,0,
2,20730,Note_off_c,9,81,0,
2,20730,Note_off_c,9,82,0,
2,20730,Note_off_c,9,87,0,
2,20730,Note_off_c,9,88,0,
2,20730,Note_off_c,9,89,0,
2,20730,Note_off_c,9,91,0,
2,20730,Note_off_c,9,93,0,
2,20760,Note_off_c,9,35,0,
2,20760,Note_off_c,9,36,0,
2,20760,Note_off_c,9,37,0,
2,20760,Note_off_c,9,38,0,
2,20760,Note_off_c,9,39,0,
2,20760,Note_off_c,9,40,0,
2,20760,Note_off_c,9,41,0,
2,20760,Note_off_c,9,42,0,
2,20760,Note_off_c,9,43,0,
2,20760,Note_off_c,9,44,0,
2,20760,Note_off_c,9,45,0,
2,20760,Note_off_c,9,46,0,
2,20760,Note_off_c,9,47,0,
2,20760,Note_off_c,9,48,0,
2,20760,Note_off_c,9,49,0,
2,20760,Note_off_c,9,50,0,
2,20760,Note_off_c,9,51,0,
2,20760,Note_off_c,9,56,0,
2,20760,Note_off_c,9,57,0,
2,20760,Note_off_c,9,59,0,
2,20760,Note_off_c,9,60,0,
2,20760,Note_off_c,9,61,0,
2,20760,Note_off_c,9,63,0,
2,20760,Note_off_c,9,68,0,
2,20760,Note_off_c,9,69,0,
2,20760,Note_off_c,9,70,0,
2,20760,Note_off_c,9,76,0,
2,20760,Note_off_c,9,80,0,
2,20760,Note_off_c,9,81,0,
2,20760,Note_off_c,9,82,0,
2,20760,Note_off_c,9,87,0,
2,20760,Note_off_c,9,88,0,
2,20760,Note_off_c,9,89,0,
2,20760,Note_off_c,9,91,0,
2,20760,Note_off_c,9,93,0,
2,20790,Note_off_c,9,35,0,
2,20790,Note_off_c,9,36,0,
2,20790,Note_off_c,9,37,0,
2,20790,Note_off_c,9,38,0,
2,20790,Note_off_c,9,39,0,
2,20790,Note_off_c,9,40,0,
2,20790,Note_off_c,9,41,0,
2,20790,Note_off_c,9,42,0,
2,20790,Note_off_c,9,43,0,
2,20790,Note_off_c,9,44,0,
2,20790,Note_off_c,9,45,0,
2,20790,Note_off_c,9,46,0,
2,20790,Note_off_c,9,47,0,
2,20790,Note_off_c,9,48,0,
2,20790,Note_off_c,9,49,0,
2,20790,Note_off_c,9,50,0,
2,20790,Note_off_c,9,51,0,
2,20790,Note_off_c,9,56,0,
2,20790,Note_off_c,9,57,0,
2,20790,Note_off_c,9,59,0,
2,20790,Note_off_c,9,60,0,
2,20790,Note_off_c,9,61,0,
2,20790,Note_off_c,9,63,0,
2,20790,Note_off_c,9,68,0,
2,20790,Note_off_c,9,69,0,
2,20790,Note_off_c,9,70,0,
2,20790,Note_off_c,9,76,0,
2,20790,Note_off_c,9,80,0,
2,20790,Note_off_c,9,81,0,
2,20790,Note_off_c,9,82,0,
2,20790,Note_off_c,9,87,0,
2,20790,Note_off_c,9,88,0,
2,20790,Note_off_c,9,89,0,
2,20790,Note_off_c,9,91,0,
2,20790,Note_off_c,9,93,0,
2,20820,Note_off_c,9,35,0,
2,20820,Note_off_c,9,36,0,
2,20820,Note_off_c,9,37,0,
2,20820,Note_off_c,9,38,0,
2,20820,Note_off_c,9,39,0,
2,20820,Note_off_c,9,40,0,
2,20820,Note_off_c,9,41,0,
2,20820,Note_off_c,9,42,0,
2,20820,Note_off_c,9,43,0,
2,20820,Note_off_c,9,44,0,
2,20820,Note_off_c,9,45,0,
2,20820,Note_off_c,9,46,0,
2,20820,Note_off_c,9,47,0,
2,20820,Note_off_c,9,48,0,
2,20820,Note_off_c,9,49,0,
2,20820,Note_off_c,9,50,0,
2,20820,Note_off_c,9,51,0,
2,20820,Note_off_c,9,56,0,
2,20820,Note_off_c,9,57,0,
2,20820,Note_off_c,9,59,0,
2,20820,Note_off_c,9,60,0,
2,20820,Note_off_c,9,61,0,
2,20820,Note_off_c,9,63,0,
2,20820,Note_off_c,9,68,0,
2,20820,Note_off_c,9,69,0,
2,20820,Note_off_c,9,70,0,
2,20820,Note_off_c,9,76,0,
2,20820,Note_off_c,9,80,0,
2,20820,Note_off_c,9,81,0,
2,20820,Note_off_c,9,82,0,
2,20820,Note_off_c,9,87,0,
2,20820,Note_off_c,9,88,0,
2,20820,Note_off_c,9,89,0,
2,20820,Note_off_c,9,91,0,
2,20820,Note_off_c,9,93,0,
2,20850,Note_off_c,9,35,0,
2,20850,Note_off_c,9,36,0,
2,20850,Note_off_c,9,37,0,
2,20850,Note_off_c,9,38,0,
2,20850,Note_off_c,9,39,0,
2,20850,Note_off_c,9,40,0,
2,20850,Note_off_c,9,41,0,
2,20850,Note_off_c,9,42,0,
2,20850,Note_off_c,9,43,0,
2,20850,Note_off_c,9,44,0,
2,20850,Note_off_c,9,45,0,
2,20850,Note_off_c,9,46,0,
2,20850,Note_off_c,9,47,0,
2,20850,Note_off_c,9,48,0,
2,20850,Note_off_c,9,49,0,
2,20850,Note_off_c,9,50,0,
2,20850,Note_off_c,9,51,0,
2,20850,Note_off_c,9,56,0,
2,20850,Note_off_c,9,57,0,
2,20850,Note_off_c,9,59,0,
2,20850,Note_off_c,9,60,0,
2,20850,Note_off_c,9,61,0,
2,20850,Note_off_c,9,63,0,
2,20850,Note_off_c,9,68,0,
2,20850,Note_off_c,9,69,0,
2,20850,Note_off_c,9,70,0,
2,20850,Note_off_c,9,76,0,
2,20850,Note_off_c,9,80,0,
2,20850,Note_off_c,9,81,0,
2,20850,Note_off_c,9,82,0,
2,20850,Note_off_c,9,87,0,
2,20850,Note_off_c,9,88,0,
2,20850,Note_off_c,9,89,0,
2,20850,Note_off_c,9,91,0,
2,20850,Note_off_c,9,93,0,
2,20880,Note_off_c,9,35,0,
2,20880,Note_off_c,9,36,0,
2,20880,Note_off_c,9,37,0,
2,20880,Note_off_c,9,38,0,
2,20880,Note_off_c,9,39,0,
2,20880,Note_off_c,9,40,0,
2,20880,Note_off_c,9,41,0,
2,20880,Note_off_c,9,42,0,
2,20880,Note_off_c,9,43,0,
2,20880,Note_off_c,9,44,0,
2,20880,Note_off_c,9,45,0,
2,20880,Note_off_c,9,46,0,
2,20880,Note_off_c,9,47,0,
2,20880,Note_off_c,9,48,0,
2,20880,Note_off_c,9,49,0,
2,20880,Note_off_c,9,50,0,
2,20880,Note_off_c,9,51,0,
2,20880,Note_off_c,9,56,0,
2,20880,Note_off_c,9,57,0,
2,20880,Note_off_c,9,59,0,
2,20880,Note_off_c,9,60,0,
2,20880,Note_off_c,9,61,0,
2,20880,Note_off_c,9,63,0,
2,20880,Note_off_c,9,68,0,
2,20880,Note_off_c,9,69,0,
2,20880,Note_off_c,9,70,0,
2,20880,Note_off_c,9,76,0,
2,20880,Note_off_c,9,80,0,
2,20880,Note_off_c,9,81,0,
2,20880,Note_off_c,9,82,0,
2,20880,Note_off_c,9,87,0,
2,20880,Note_off_c,9,88,0,
2,20880,Note_off_c,9,89,0,
2,20880,Note_off_c,9,91,0,
2,20880,Note_off_c,9,93,0,
2,20910,Note_off_c,9,35,0,
2,20910,Note_off_c,9,36,0,
2,20910,Note_off_c,9,37,0,
2,20910,Note_off_c,9,38,0,
2,20910,Note_off_c,9,39,0,
2,20910,Note_off_c,9,40,0,
2,20910,Note_off_c,9,41,0,
2,20910,Note_off_c,9,42,0,
2,20910,Note_off_c,9,43,0,
2,20910,Note_off_c,9,44,0,
2,20910,Note_off_c,9,45,0,
2,20910,Note_off_c,9,46,0,
2,20910,Note_off_c,9,47,0,
2,20910,Note_off_c,9,48,0,
2,20910,Note_off_c,9,49,0,
2,20910,Note_off_c,9,50,0,
2,20910,Note_off_c,9,51,0,
2,20910,Note_off_c,9,56,0,
2,20910,Note_off_c,9,57,0,
2,20910,Note_off_c,9,59,0,
2,20910,Note_off_c,9,60,0,
2,20910,Note_off_c,9,61,0,
2,20910,Note_off_c,9,63,0,
2,20910,Note_off_c,9,68,0,
2,20910,Note_off_c,9,69,0,
2,20910,Note_off_c,9,70,0,
2,20910,Note_off_c,9,76,0,
2,20910,Note_off_c,9,80,0,
2,20910,Note_off_c,9,81,0,
2,20910,Note_off_c,9,82,0,
2,20910,Note_off_c,9,87,0,
2,20910,Note_off_c,9,88,0,
2,20910,Note_off_c,9,89,0,
2,20910,Note_off_c,9,91,0,
2,20910,Note_off_c,9,93,0,
2,20940,Note_off_c,9,35,0,
2,20940,Note_off_c,9,36,0,
2,20940,Note_off_c,9,37,0,
2,20940,Note_off_c,9,38,0,
2,20940,Note_off_c,9,39,0,
2,20940,Note_off_c,9,40,0,
2,20940,Note_off_c,9,41,0,
2,20940,Note_off_c,9,42,0,
2,20940,Note_off_c,9,43,0,
2,20940,Note_off_c,9,44,0,
2,20940,Note_off_c,9,45,0,
2,20940,Note_off_c,9,46,0,
2,20940,Note_off_c,9,47,0,
2,20940,Note_off_c,9,48,0,
2,20940,Note_off_c,9,49,0,
2,20940,Note_off_c,9,50,0,
2,20940,Note_off_c,9,51,0,
2,20940,Note_off_c,9,56,0,
2,20940,Note_off_c,9,57,0,
2,20940,Note_off_c,9,59,0,
2,20940,Note_off_c,9,60,0,
2,20940,Note_off_c,9,61,0,
2,20940,Note_off_c,9,63,0,
2,20940,Note_off_c,9,68,0,
2,20940,Note_off_c,9,69,0,
2,20940,Note_off_c,9,70,0,
2,20940,Note_off_c,9,76,0,
2,20940,Note_off_c,9,80,0,
2,20940,Note_off_c,9,81,0,
2,20940,Note_off_c,9,82,0,
2,20940,Note_off_c,9,87,0,
2,20940,Note_off_c,9,88,0,
2,20940,Note_off_c,9,89,0,
2,20940,Note_off_c,9,91,0,
2,20940,Note_off_c,9,93,0,
2,20970,Note_off_c,9,35,0,
2,20970,Note_off_c,9,36,0,
2,20970,Note_off_c,9,37,0,
2,20970,Note_off_c,9,38,0,
2,20970,Note_off_c,9,39,0,
2,20970,Note_off_c,9,40,0,
2,20970,Note_off_c,9,41,0,
2,20970,Note_off_c,9,42,0,
2,20970,Note_off_c,9,43,0,
2,20970,Note_off_c,9,44,0,
2,20970,Note_off_c,9,45,0,
2,20970,Note_off_c,9,46,0,
2,20970,Note_off_c,9,47,0,
2,20970,Note_off_c,9,48,0,
2,20970,Note_off_c,9,49,0,
2,20970,Note_off_c,9,50,0,
2,20970,Note_off_c,9,51,0,
2,20970,Note_off_c,9,56,0,
2,20970,Note_off_c,9,57,0,
2,20970,Note_off_c,9,59,0,
2,20970,Note_off_c,9,60,0,
2,20970,Note_off_c,9,61,0,
2,20970,Note_off_c,9,63,0,
2,20970,Note_off_c,9,68,0,
2,20970,Note_off_c,9,69,0,
2,20970,Note_off_c,9,70,0,
2,20970,Note_off_c,9,76,0,
2,20970,Note_off_c,9,80,0,
2,20970,Note_off_c,9,81,0,
2,20970,Note_off_c,9,82,0,
2,20970,Note_off_c,9,87,0,
2,20970,Note_off_c,9,88,0,
2,20970,Note_off_c,9,89,0,
2,20970,Note_off_c,9,91,0,
2,20970,Note_off_c,9,93,0,
2,21000,Note_off_c,9,35,0,
2,21000,Note_off_c,9,36,0,
2,21000,Note_off_c,9,37,0,
2,21000,Note_off_c,9,38,0,
2,21000,Note_off_c,9,39,0,
2,21000,Note_off_c,9,40,0,
2,21000,Note_off_c,9,41,0,
2,21000,Note_off_c,9,42,0,
2,21000,Note_off_c,9,43,0,
2,21000,Note_off_c,9,44,0,
2,21000,Note_off_c,9,45,0,
2,21000,Note_off_c,9,46,0,
2,21000,Note_off_c,9,47,0,
2,21000,Note_off_c,9,48,0,
2,21000,Note_off_c,9,49,0,
2,21000,Note_off_c,9,50,0,
2,21000,Note_off_c,9,51,0,
2,21000,Note_off_c,9,56,0,
2,21000,Note_off_c,9,57,0,
2,21000,Note_off_c,9,59,0,
2,21000,Note_off_c,9,60,0,
2,21000,Note_off_c,9,61,0,
2,21000,Note_off_c,9,63,0,
2,21000,Note_off_c,9,68,0,
2,21000,Note_off_c,9,69,0,
2,21000,Note_off_c,9,70,0,
2,21000,Note_off_c,9,76,0,
2,21000,Note_off_c,9,80,0,
2,21000,Note_off_c,9,81,0,
2,21000,Note_off_c,9,82,0,
2,21000,Note_off_c,9,87,0,
2,21000,Note_off_c,9,88,0,
2,21000,Note_off_c,9,89,0,
2,21000,Note_off_c,9,91,0,
2,21000,Note_off_c,9,93,0,
2,21030,Note_off_c,9,35,0,
2,21030,Note_off_c,9,36,0,
2,21030,Note_off_c,9,37,0,
2,21030,Note_off_c,9,38,0,
2,21030,Note_off_c,9,39,0,
2,21030,Note_off_c,9,40,0,
2,21030,Note_off_c,9,41,0,
2,21030,Note_off_c,9,42,0,
2,21030,Note_off_c,9,43,0,
2,21030,Note_off_c,9,44,0,
2,21030,Note_off_c,9,45,0,
2,21030,Note_off_c,9,46,0,
2,21030,Note_off_c,9,47,0,
2,21030,Note_off_c,9,48,0,
2,21030,Note_off_c,9,49,0,
2,21030,Note_off_c,9,50,0,
2,21030,Note_off_c,9,51,0,
2,21030,Note_off_c,9,56,0,
2,21030,Note_off_c,9,57,0,
2,21030,Note_off_c,9,59,0,
2,21030,Note_off_c,9,60,0,
2,21030,Note_off_c,9,61,0,
2,21030,Note_off_c,9,63,0,
2,21030,Note_off_c,9,68,0,
2,21030,Note_off_c,9,69,0,
2,21030,Note_off_c,9,70,0,
2,21030,Note_off_c,9,76,0,
2,21030,Note_off_c,9,80,0,
2,21030,Note_off_c,9,81,0,
2,21030,Note_off_c,9,82,0,
2,21030,Note_off_c,9,87,0,
2,21030,Note_off_c,9,88,0,
2,21030,Note_off_c,9,89,0,
2,21030,Note_off_c,9,91,0,
2,21030,Note_off_c,9,93,0,
2,21060,Note_off_c,9,35,0,
2,21060,Note_off_c,9,36,0,
2,21060,Note_off_c,9,37,0,
2,21060,Note_off_c,9,38,0,
2,21060,Note_off_c,9,39,0,
2,21060,Note_off_c,9,40,0,
2,21060,Note_off_c,9,41,0,
2,21060,Note_off_c,9,42,0,
2,21060,Note_off_c,9,43,0,
2,21060,Note_off_c,9,44,0,
2,21060,Note_off_c,9,45,0,
2,21060,Note_off_c,9,46,0,
2,21060,Note_off_c,9,47,0,
2,21060,Note_off_c,9,48,0,
2,21060,Note_off_c,9,49,0,
2,21060,Note_off_c,9,50,0,
2,21060,Note_off_c,9,51,0,
2,21060,Note_off_c,9,56,0,
2,21060,Note_off_c,9,57,0,
2,21060,Note_off_c,9,59,0,
2,21060,Note_off_c,9,60,0,
2,21060,Note_off_c,9,61,0,
2,21060,Note_off_c,9,63,0,
2,21060,Note_off_c,9,68,0,
2,21060,Note_off_c,9,69,0,
2,21060,Note_off_c,9,70,0,
2,21060,Note_off_c,9,76,0,
2,21060,Note_off_c,9,80,0,
2,21060,Note_off_c,9,81,0,
2,21060,Note_off_c,9,82,0,
2,21060,Note_off_c,9,87,0,
2,21060,Note_off_c,9,88,0,
2,21060,Note_off_c,9,89,0,
2,21060,Note_off_c,9,91,0,
2,21060,Note_off_c,9,93,0,
2,21090,Note_off_c,9,35,0,
2,21090,Note_off_c,9,36,0,
2,21090,Note_off_c,9,37,0,
2,21090,Note_off_c,9,38,0,
2,21090,Note_off_c,9,39,0,
2,21090,Note_off_c,9,40,0,
2,21090,Note_off_c,9,41,0,
2,21090,Note_off_c,9,42,0,
2,21090,Note_off_c,9,43,0,
2,21090,Note_off_c,9,44,0,
2,21090,Note_off_c,9,45,0,
2,21090,Note_off_c,9,46,0,
2,21090,Note_off_c,9,47,0,
2,21090,Note_off_c,9,48,0,
2,21090,Note_off_c,9,49,0,
2,21090,Note_off_c,9,50,0,
2,21090,Note_off_c,9,51,0,
2,21090,Note_off_c,9,56,0,
2,21090,Note_off_c,9,57,0,
2,21090,Note_off_c,9,59,0,
2,21090,Note_off_c,9,60,0,
2,21090,Note_off_c,9,61,0,
2,21090,Note_off_c,9,63,0,
2,21090,Note_off_c,9,68,0,
2,21090,Note_off_c,9,69,0,
2,21090,Note_off_c,9,70,0,
2,21090,Note_off_c,9,76,0,
2,21090,Note_off_c,9,80,0,
2,21090,Note_off_c,9,81,0,
2,21090,Note_off_c,9,82,0,
2,21090,Note_off_c,9,87,0,
2,21090,Note_off_c,9,88,0,
2,21090,Note_off_c,9,89,0,
2,21090,Note_off_c,9,91,0,
2,21090,Note_off_c,9,93,0,
2,21120,Note_off_c,9,35,0,
2,21120,Note_off_c,9,36,0,
2,21120,Note_off_c,9,37,0,
2,21120,Note_off_c,9,38,0,
2,21120,Note_off_c,9,39,0,
2,21120,Note_off_c,9,40,0,
2,21120,Note_off_c,9,41,0,
2,21120,Note_off_c,9,42,0,
2,21120,Note_off_c,9,43,0,
2,21120,Note_off_c,9,44,0,
2,21120,Note_off_c,9,45,0,
2,21120,Note_off_c,9,46,0,
2,21120,Note_off_c,9,47,0,
2,21120,Note_off_c,9,48,0,
2,21120,Note_off_c,9,49,0,
2,21120,Note_off_c,9,50,0,
2,21120,Note_off_c,9,51,0,
2,21120,Note_off_c,9,56,0,
2,21120,Note_off_c,9,57,0,
2,21120,Note_off_c,9,59,0,
2,21120,Note_off_c,9,60,0,
2,21120,Note_off_c,9,61,0,
2,21120,Note_off_c,9,63,0,
2,21120,Note_off_c,9,68,0,
2,21120,Note_off_c,9,69,0,
2,21120,Note_off_c,9,70,0,
2,21120,Note_off_c,9,76,0,
2,21120,Note_off_c,9,80,0,
2,21120,Note_off_c,9,81,0,
2,21120,Note_off_c,9,82,0,
2,21120,Note_off_c,9,87,0,
2,21120,Note_off_c,9,88,0,
2,21120,Note_off_c,9,89,0,
2,21120,Note_off_c,9,91,0,
2,21120,Note_off_c,9,93,0,
2,21150,Note_off_c,9,35,0,
2,21150,Note_off_c,9,36,0,
2,21150,Note_off_c,9,37,0,
2,21150,Note_off_c,9,38,0,
2,21150,Note_off_c,9,39,0,
2,21150,Note_off_c,9,40,0,
2,21150,Note_off_c,9,41,0,
2,21150,Note_off_c,9,42,0,
2,21150,Note_off_c,9,43,0,
2,21150,Note_off_c,9,44,0,
2,21150,Note_off_c,9,45,0,
2,21150,Note_off_c,9,46,0,
2,21150,Note_off_c,9,47,0,
2,21150,Note_off_c,9,48,0,
2,21150,Note_off_c,9,49,0,
2,21150,Note_off_c,9,50,0,
2,21150,Note_off_c,9,51,0,
2,21150,Note_off_c,9,56,0,
2,21150,Note_off_c,9,57,0,
2,21150,Note_off_c,9,59,0,
2,21150,Note_off_c,9,60,0,
2,21150,Note_off_c,9,61,0,
2,21150,Note_off_c,9,63,0,
2,21150,Note_off_c,9,68,0,
2,21150,Note_off_c,9,69,0,
2,21150,Note_off_c,9,70,0,
2,21150,Note_off_c,9,76,0,
2,21150,Note_off_c,9,80,0,
2,21150,Note_off_c,9,81,0,
2,21150,Note_off_c,9,82,0,
2,21150,Note_off_c,9,87,0,
2,21150,Note_off_c,9,88,0,
2,21150,Note_off_c,9,89,0,
2,21150,Note_off_c,9,91,0,
2,21150,Note_off_c,9,93,0,
2,21180,Note_off_c,9,35,0,
2,21180,Note_off_c,9,36,0,
2,21180,Note_off_c,9,37,0,
2,21180,Note_off_c,9,38,0,
2,21180,Note_off_c,9,39,0,
2,21180,Note_off_c,9,40,0,
2,21180,Note_off_c,9,41,0,
2,21180,Note_off_c,9,42,0,
2,21180,Note_off_c,9,43,0,
2,21180,Note_off_c,9,44,0,
2,21180,Note_off_c,9,45,0,
2,21180,Note_off_c,9,46,0,
2,21180,Note_off_c,9,47,0,
2,21180,Note_off_c,9,48,0,
2,21180,Note_off_c,9,49,0,
2,21180,Note_off_c,9,50,0,
2,21180,Note_off_c,9,51,0,
2,21180,Note_off_c,9,56,0,
2,21180,Note_off_c,9,57,0,
2,21180,Note_off_c,9,59,0,
2,21180,Note_off_c,9,60,0,
2,21180,Note_off_c,9,61,0,
2,21180,Note_off_c,9,63,0,
2,21180,Note_off_c,9,68,0,
2,21180,Note_off_c,9,69,0,
2,21180,Note_off_c,9,70,0,
2,21180,Note_off_c,9,76,0,
2,21180,Note_off_c,9,80,0,
2,21180,Note_off_c,9,81,0,
2,21180,Note_off_c,9,82,0,
2,21180,Note_off_c,9,87,0,
2,21180,Note_off_c,9,88,0,
2,21180,Note_off_c,9,89,0,
2,21180,Note_off_c,9,91,0,
2,21180,Note_off_c,9,93,0,
2,21210,Note_off_c,9,35,0,
2,21210,Note_off_c,9,36,0,
2,21210,Note_off_c,9,37,0,
2,21210,Note_off_c,9,38,0,
2,21210,Note_off_c,9,39,0,
2,21210,Note_off_c,9,40,0,
2,21210,Note_off_c,9,41,0,
2,21210,Note_off_c,9,42,0,
2,21210,Note_off_c,9,43,0,
2,21210,Note_off_c,9,44,0,
2,21210,Note_off_c,9,45,0,
2,21210,Note_off_c,9,46,0,
2,21210,Note_off_c,9,47,0,
2,21210,Note_off_c,9,48,0,
2,21210,Note_off_c,9,49,0,
2,21210,Note_off_c,9,50,0,
2,21210,Note_off_c,9,51,0,
2,21210,Note_off_c,9,56,0,
2,21210,Note_off_c,9,57,0,
2,21210,Note_off_c,9,59,0,
2,21210,Note_off_c,9,60,0,
2,21210,Note_off_c,9,61,0,
2,21210,Note_off_c,9,63,0,
2,21210,Note_off_c,9,68,0,
2,21210,Note_off_c,9,69,0,
2,21210,Note_off_c,9,70,0,
2,21210,Note_off_c,9,76,0,
2,21210,Note_off_c,9,80,0,
2,21210,Note_off_c,9,81,0,
2,21210,Note_off_c,9,82,0,
2,21210,Note_off_c,9,87,0,
2,21210,Note_off_c,9,88,0,
2,21210,Note_off_c,9,89,0,
2,21210,Note_off_c,9,91,0,
2,21210,Note_off_c,9,93,0,
2,21240,Note_off_c,9,35,0,
2,21240,Note_off_c,9,36,0,
2,21240,Note_off_c,9,37,0,
2,21240,Note_off_c,9,38,0,
2,21240,Note_off_c,9,39,0,
2,21240,Note_off_c,9,40,0,
2,21240,Note_off_c,9,41,0,
2,21240,Note_off_c,9,42,0,
2,21240,Note_off_c,9,43,0,
2,21240,Note_off_c,9,44,0,
2,21240,Note_off_c,9,45,0,
2,21240,Note_off_c,9,46,0,
2,21240,Note_off_c,9,47,0,
2,21240,Note_off_c,9,48,0,
2,21240,Note_off_c,9,49,0,
2,21240,Note_off_c,9,50,0,
2,21240,Note_off_c,9,51,0,
2,21240,Note_off_c,9,56,0,
2,21240,Note_off_c,9,57,0,
2,21240,Note_off_c,9,59,0,
2,21240,Note_off_c,9,60,0,
2,21240,Note_off_c,9,61,0,
2,21240,Note_off_c,9,63,0,
2,21240,Note_off_c,9,68,0,
2,21240,Note_off_c,9,69,0,
2,21240,Note_off_c,9,70,0,
2,21240,Note_off_c,9,76,0,
2,21240,Note_off_c,9,80,0,
2,21240,Note_off_c,9,81,0,
2,21240,Note_off_c,9,82,0,
2,21240,Note_off_c,9,87,0,
2,21240,Note_off_c,9,88,0,
2,21240,Note_off_c,9,89,0,
2,21240,Note_off_c,9,91,0,
2,21240,Note_off_c,9,93,0,
2,21270,Note_off_c,9,35,0,
2,21270,Note_off_c,9,36,0,
2,21270,Note_off_c,9,37,0,
2,21270,Note_off_c,9,38,0,
2,21270,Note_off_c,9,39,0,
2,21270,Note_off_c,9,40,0,
2,21270,Note_off_c,9,41,0,
2,21270,Note_off_c,9,42,0,
2,21270,Note_off_c,9,43,0,
2,21270,Note_off_c,9,44,0,
2,21270,Note_off_c,9,45,0,
2,21270,Note_off_c,9,46,0,
2,21270,Note_off_c,9,47,0,
2,21270,Note_off_c,9,48,0,
2,21270,Note_off_c,9,49,0,
2,21270,Note_off_c,9,50,0,
2,21270,Note_off_c,9,51,0,
2,21270,Note_off_c,9,56,0,
2,21270,Note_off_c,9,57,0,
2,21270,Note_off_c,9,59,0,
2,21270,Note_off_c,9,60,0,
2,21270,Note_off_c,9,61,0,
2,21270,Note_off_c,9,63,0,
2,21270,Note_off_c,9,68,0,
2,21270,Note_off_c,9,69,0,
2,21270,Note_off_c,9,70,0,
2,21270,Note_off_c,9,76,0,
2,21270,Note_off_c,9,80,0,
2,21270,Note_off_c,9,81,0,
2,21270,Note_off_c,9,82,0,
2,21270,Note_off_c,9,87,0,
2,21270,Note_off_c,9,88,0,
2,21270,Note_off_c,9,89,0,
2,21270,Note_off_c,9,91,0,
2,21270,Note_off_c,9,93,0,
2,21300,Note_off_c,9,35,0,
2,21300,Note_off_c,9,36,0,
2,21300,Note_off_c,9,37,0,
2,21300,Note_off_c,9,38,0,
2,21300,Note_off_c,9,39,0,
2,21300,Note_off_c,9,40,0,
2,21300,Note_off_c,9,41,0,
2,21300,Note_off_c,9,42,0,
2,21300,Note_off_c,9,43,0,
2,21300,Note_off_c,9,44,0,
2,21300,Note_off_c,9,45,0,
2,21300,Note_off_c,9,46,0,
2,21300,Note_off_c,9,47,0,
2,21300,Note_off_c,9,48,0,
2,21300,Note_off_c,9,49,0,
2,21300,Note_off_c,9,50,0,
2,21300,Note_off_c,9,51,0,
2,21300,Note_off_c,9,56,0,
2,21300,Note_off_c,9,57,0,
2,21300,Note_off_c,9,59,0,
2,21300,Note_off_c,9,60,0,
2,21300,Note_off_c,9,61,0,
2,21300,Note_off_c,9,63,0,
2,21300,Note_off_c,9,68,0,
2,21300,Note_off_c,9,69,0,
2,21300,Note_off_c,9,70,0,
2,21300,Note_off_c,9,76,0,
2,21300,Note_off_c,9,80,0,
2,21300,Note_off_c,9,81,0,
2,21300,Note_off_c,9,82,0,
2,21300,Note_off_c,9,87,0,
2,21300,Note_off_c,9,88,0,
2,21300,Note_off_c,9,89,0,
2,21300,Note_off_c,9,91,0,
2,21300,Note_off_c,9,93,0,
2,21330,Note_off_c,9,35,0,
2,21330,Note_off_c,9,36,0,
2,21330,Note_off_c,9,37,0,
2,21330,Note_off_c,9,38,0,
2,21330,Note_off_c,9,39,0,
2,21330,Note_off_c,9,40,0,
2,21330,Note_off_c,9,41,0,
2,21330,Note_off_c,9,42,0,
2,21330,Note_off_c,9,43,0,
2,21330,Note_off_c,9,44,0,
2,21330,Note_off_c,9,45,0,
2,21330,Note_off_c,9,46,0,
2,21330,Note_off_c,9,47,0,
2,21330,Note_off_c,9,48,0,
2,21330,Note_off_c,9,49,0,
2,21330,Note_off_c,9,50,0,
2,21330,Note_off_c,9,51,0,
2,21330,Note_off_c,9,56,0,
2,21330,Note_off_c,9,57,0,
2,21330,Note_off_c,9,59,0,
2,21330,Note_off_c,9,60,0,
2,21330,Note_off_c,9,61,0,
2,21330,Note_off_c,9,63,0,
2,21330,Note_off_c,9,68,0,
2,21330,Note_off_c,9,69,0,
2,21330,Note_off_c,9,70,0,
2,21330,Note_off_c,9,76,0,
2,21330,Note_off_c,9,80,0,
2,21330,Note_off_c,9,81,0,
2,21330,Note_off_c,9,82,0,
2,21330,Note_off_c,9,87,0,
2,21330,Note_off_c,9,88,0,
2,21330,Note_off_c,9,89,0,
2,21330,Note_off_c,9,91,0,
2,21330,Note_off_c,9,93,0,
2,21360,Note_off_c,9,35,0,
2,21360,Note_off_c,9,36,0,
2,21360,Note_off_c,9,37,0,
2,21360,Note_off_c,9,38,0,
2,21360,Note_off_c,9,39,0,
2,21360,Note_off_c,9,40,0,
2,21360,Note_off_c,9,41,0,
2,21360,Note_off_c,9,42,0,
2,21360,Note_off_c,9,43,0,
2,21360,Note_off_c,9,44,0,
2,21360,Note_off_c,9,45,0,
2,21360,Note_off_c,9,46,0,
2,21360,Note_off_c,9,47,0,
2,21360,Note_off_c,9,48,0,
2,21360,Note_off_c,9,49,0,
2,21360,Note_off_c,9,50,0,
2,21360,Note_off_c,9,51,0,
2,21360,Note_off_c,9,56,0,
2,21360,Note_off_c,9,57,0,
2,21360,Note_off_c,9,59,0,
2,21360,Note_off_c,9,60,0,
2,21360,Note_off_c,9,61,0,
2,21360,Note_off_c,9,63,0,
2,21360,Note_off_c,9,68,0,
2,21360,Note_off_c,9,69,0,
2,21360,Note_off_c,9,70,0,
2,21360,Note_off_c,9,76,0,
2,21360,Note_off_c,9,80,0,
2,21360,Note_off_c,9,81,0,
2,21360,Note_off_c,9,82,0,
2,21360,Note_off_c,9,87,0,
2,21360,Note_off_c,9,88,0,
2,21360,Note_off_c,9,89,0,
2,21360,Note_off_c,9,91,0,
2,21360,Note_off_c,9,93,0,
2,21390,Note_off_c,9,35,0,
2,21390,Note_off_c,9,36,0,
2,21390,Note_off_c,9,37,0,
2,21390,Note_off_c,9,38,0,
2,21390,Note_off_c,9,39,0,
2,21390,Note_off_c,9,40,0,
2,21390,Note_off_c,9,41,0,
2,21390,Note_off_c,9,42,0,
2,21390,Note_off_c,9,43,0,
2,21390,Note_off_c,9,44,0,
2,21390,Note_off_c,9,45,0,
2,21390,Note_off_c,9,46,0,
2,21390,Note_off_c,9,47,0,
2,21390,Note_off_c,9,48,0,
2,21390,Note_off_c,9,49,0,
2,21390,Note_off_c,9,50,0,
2,21390,Note_off_c,9,51,0,
2,21390,Note_off_c,9,56,0,
2,21390,Note_off_c,9,57,0,
2,21390,Note_off_c,9,59,0,
2,21390,Note_off_c,9,60,0,
2,21390,Note_off_c,9,61,0,
2,21390,Note_off_c,9,63,0,
2,21390,Note_off_c,9,68,0,
2,21390,Note_off_c,9,69,0,
2,21390,Note_off_c,9,70,0,
2,21390,Note_off_c,9,76,0,
2,21390,Note_off_c,9,80,0,
2,21390,Note_off_c,9,81,0,
2,21390,Note_off_c,9,82,0,
2,21390,Note_off_c,9,87,0,
2,21390,Note_off_c,9,88,0,
2,21390,Note_off_c,9,89,0,
2,21390,Note_off_c,9,91,0,
2,21390,Note_off_c,9,93,0,
2,21420,Note_off_c,9,35,0,
2,21420,Note_off_c,9,36,0,
2,21420,Note_off_c,9,37,0,
2,21420,Note_off_c,9,38,0,
2,21420,Note_off_c,9,39,0,
2,21420,Note_off_c,9,40,0,
2,21420,Note_off_c,9,41,0,
2,21420,Note_off_c,9,42,0,
2,21420,Note_off_c,9,43,0,
2,21420,Note_off_c,9,44,0,
2,21420,Note_off_c,9,45,0,
2,21420,Note_off_c,9,46,0,
2,21420,Note_off_c,9,47,0,
2,21420,Note_off_c,9,48,0,
2,21420,Note_off_c,9,49,0,
2,21420,Note_off_c,9,50,0,
2,21420,Note_off_c,9,51,0,
2,21420,Note_off_c,9,56,0,
2,21420,Note_off_c,9,57,0,
2,21420,Note_off_c,9,59,0,
2,21420,Note_off_c,9,60,0,
2,21420,Note_off_c,9,61,0,
2,21420,Note_off_c,9,63,0,
2,21420,Note_off_c,9,68,0,
2,21420,Note_off_c,9,69,0,
2,21420,Note_off_c,9,70,0,
2,21420,Note_off_c,9,76,0,
2,21420,Note_off_c,9,80,0,
2,21420,Note_off_c,9,81,0,
2,21420,Note_off_c,9,82,0,
2,21420,Note_off_c,9,87,0,
2,21420,Note_off_c,9,88,0,
2,21420,Note_off_c,9,89,0,
2,21420,Note_off_c,9,91,0,
2,21420,Note_off_c,9,93,0,
2,21450,Note_off_c,9,35,0,
2,21450,Note_off_c,9,36,0,
2,21450,Note_off_c,9,37,0,
2,21450,Note_off_c,9,38,0,
2,21450,Note_off_c,9,39,0,
2,21450,Note_off_c,9,40,0,
2,21450,Note_off_c,9,41,0,
2,21450,Note_off_c,9,42,0,
2,21450,Note_off_c,9,43,0,
2,21450,Note_off_c,9,44,0,
2,21450,Note_off_c,9,45,0,
2,21450,Note_off_c,9,46,0,
2,21450,Note_off_c,9,47,0,
2,21450,Note_off_c,9,48,0,
2,21450,Note_off_c,9,49,0,
2,21450,Note_off_c,9,50,0,
2,21450,Note_off_c,9,51,0,
2,21450,Note_off_c,9,56,0,
2,21450,Note_off_c,9,57,0,
2,21450,Note_off_c,9,59,0,
2,21450,Note_off_c,9,60,0,
2,21450,Note_off_c,9,61,0,
2,21450,Note_off_c,9,63,0,
2,21450,Note_off_c,9,68,0,
2,21450,Note_off_c,9,69,0,
2,21450,Note_off_c,9,70,0,
2,21450,Note_off_c,9,76,0,
2,21450,Note_off_c,9,80,0,
2,21450,Note_off_c,9,81,0,
2,21450,Note_off_c,9,82,0,
2,21450,Note_off_c,9,87,0,
2,21450,Note_off_c,9,88,0,
2,21450,Note_off_c,9,89,0,
2,21450,Note_off_c,9,91,0,
2,21450,Note_off_c,9,93,0,
2,21480,Note_off_c,9,35,0,
2,21480,Note_off_c,9,36,0,
2,21480,Note_off_c,9,37,0,
2,21480,Note_off_c,9,38,0,
2,21480,Note_off_c,9,39,0,
2,21480,Note_off_c,9,40,0,
2,21480,Note_off_c,9,41,0,
2,21480,Note_off_c,9,42,0,
2,21480,Note_off_c,9,43,0,
2,21480,Note_off_c,9,44,0,
2,21480,Note_off_c,9,45,0,
2,21480,Note_off_c,9,46,0,
2,21480,Note_off_c,9,47,0,
2,21480,Note_off_c,9,48,0,
2,21480,Note_off_c,9,49,0,
2,21480,Note_off_c,9,50,0,
2,21480,Note_off_c,9,51,0,
2,21480,Note_off_c,9,56,0,
2,21480,Note_off_c,9,57,0,
2,21480,Note_off_c,9,59,0,
2,21480,Note_off_c,9,60,0,
2,21480,Note_off_c,9,61,0,
2,21480,Note_off_c,9,63,0,
2,21480,Note_off_c,9,68,0,
2,21480,Note_off_c,9,69,0,
2,21480,Note_off_c,9,70,0,
2,21480,Note_off_c,9,76,0,
2,21480,Note_off_c,9,80,0,
2,21480,Note_off_c,9,81,0,
2,21480,Note_off_c,9,82,0,
2,21480,Note_off_c,9,87,0,
2,21480,Note_off_c,9,88,0,
2,21480,Note_off_c,9,89,0,
2,21480,Note_off_c,9,91,0,
2,21480,Note_off_c,9,93,0,
2,21510,Note_off_c,9,35,0,
2,21510,Note_off_c,9,36,0,
2,21510,Note_off_c,9,37,0,
2,21510,Note_off_c,9,38,0,
2,21510,Note_off_c,9,39,0,
2,21510,Note_off_c,9,40,0,
2,21510,Note_off_c,9,41,0,
2,21510,Note_off_c,9,42,0,
2,21510,Note_off_c,9,43,0,
2,21510,Note_off_c,9,44,0,
2,21510,Note_off_c,9,45,0,
2,21510,Note_off_c,9,46,0,
2,21510,Note_off_c,9,47,0,
2,21510,Note_off_c,9,48,0,
2,21510,Note_off_c,9,49,0,
2,21510,Note_off_c,9,50,0,
2,21510,Note_off_c,9,51,0,
2,21510,Note_off_c,9,56,0,
2,21510,Note_off_c,9,57,0,
2,21510,Note_off_c,9,59,0,
2,21510,Note_off_c,9,60,0,
2,21510,Note_off_c,9,61,0,
2,21510,Note_off_c,9,63,0,
2,21510,Note_off_c,9,68,0,
2,21510,Note_off_c,9,69,0,
2,21510,Note_off_c,9,70,0,
2,21510,Note_off_c,9,76,0,
2,21510,Note_off_c,9,80,0,
2,21510,Note_off_c,9,81,0,
2,21510,Note_off_c,9,82,0,
2,21510,Note_off_c,9,87,0,
2,21510,Note_off_c,9,88,0,
2,21510,Note_off_c,9,89,0,
2,21510,Note_off_c,9,91,0,
2,21510,Note_off_c,9,93,0,
2,21540,Note_off_c,9,35,0,
2,21540,Note_off_c,9,36,0,
2,21540,Note_off_c,9,37,0,
2,21540,Note_off_c,9,38,0,
2,21540,Note_off_c,9,39,0,
2,21540,Note_off_c,9,40,0,
2,21540,Note_off_c,9,41,0,
2,21540,Note_off_c,9,42,0,
2,21540,Note_off_c,9,43,0,
2,21540,Note_off_c,9,44,0,
2,21540,Note_off_c,9,45,0,
2,21540,Note_off_c,9,46,0,
2,21540,Note_off_c,9,47,0,
2,21540,Note_off_c,9,48,0,
2,21540,Note_off_c,9,49,0,
2,21540,Note_off_c,9,50,0,
2,21540,Note_off_c,9,51,0,
2,21540,Note_off_c,9,56,0,
2,21540,Note_off_c,9,57,0,
2,21540,Note_off_c,9,59,0,
2,21540,Note_off_c,9,60,0,
2,21540,Note_off_c,9,61,0,
2,21540,Note_off_c,9,63,0,
2,21540,Note_off_c,9,68,0,
2,21540,Note_off_c,9,69,0,
2,21540,Note_off_c,9,70,0,
2,21540,Note_off_c,9,76,0,
2,21540,Note_off_c,9,80,0,
2,21540,Note_off_c,9,81,0,
2,21540,Note_off_c,9,82,0,
2,21540,Note_off_c,9,87,0,
2,21540,Note_off_c,9,88,0,
2,21540,Note_off_c,9,89,0,
2,21540,Note_off_c,9,91,0,
2,21540,Note_off_c,9,93,0,
2,21570,Note_off_c,9,35,0,
2,21570,Note_off_c,9,36,0,
2,21570,Note_off_c,9,37,0,
2,21570,Note_off_c,9,38,0,
2,21570,Note_off_c,9,39,0,
2,21570,Note_off_c,9,40,0,
2,21570,Note_off_c,9,41,0,
2,21570,Note_off_c,9,42,0,
2,21570,Note_off_c,9,43,0,
2,21570,Note_off_c,9,44,0,
2,21570,Note_off_c,9,45,0,
2,21570,Note_off_c,9,46,0,
2,21570,Note_off_c,9,47,0,
2,21570,Note_off_c,9,48,0,
2,21570,Note_off_c,9,49,0,
2,21570,Note_off_c,9,50,0,
2,21570,Note_off_c,9,51,0,
2,21570,Note_off_c,9,56,0,
2,21570,Note_off_c,9,57,0,
2,21570,Note_off_c,9,59,0,
2,21570,Note_off_c,9,60,0,
2,21570,Note_off_c,9,61,0,
2,21570,Note_off_c,9,63,0,
2,21570,Note_off_c,9,68,0,
2,21570,Note_off_c,9,69,0,
2,21570,Note_off_c,9,70,0,
2,21570,Note_off_c,9,76,0,
2,21570,Note_off_c,9,80,0,
2,21570,Note_off_c,9,81,0,
2,21570,Note_off_c,9,82,0,
2,21570,Note_off_c,9,87,0,
2,21570,Note_off_c,9,88,0,
2,21570,Note_off_c,9,89,0,
2,21570,Note_off_c,9,91,0,
2,21570,Note_off_c,9,93,0,
2,21600,Note_off_c,9,35,0,
2,21600,Note_off_c,9,36,0,
2,21600,Note_off_c,9,37,0,
2,21600,Note_off_c,9,38,0,
2,21600,Note_off_c,9,39,0,
2,21600,Note_off_c,9,40,0,
2,21600,Note_off_c,9,41,0,
2,21600,Note_off_c,9,42,0,
2,21600,Note_off_c,9,43,0,
2,21600,Note_off_c,9,44,0,
2,21600,Note_off_c,9,45,0,
2,21600,Note_off_c,9,46,0,
2,21600,Note_off_c,9,47,0,
2,21600,Note_off_c,9,48,0,
2,21600,Note_off_c,9,49,0,
2,21600,Note_off_c,9,50,0,
2,21600,Note_off_c,9,51,0,
2,21600,Note_off_c,9,56,0,
2,21600,Note_off_c,9,57,0,
2,21600,Note_off_c,9,59,0,
2,21600,Note_off_c,9,60,0,
2,21600,Note_off_c,9,61,0,
2,21600,Note_off_c,9,63,0,
2,21600,Note_off_c,9,68,0,
2,21600,Note_off_c,9,69,0,
2,21600,Note_off_c,9,70,0,
2,21600,Note_off_c,9,76,0,
2,21600,Note_off_c,9,80,0,
2,21600,Note_off_c,9,81,0,
2,21600,Note_off_c,9,82,0,
2,21600,Note_off_c,9,87,0,
2,21600,Note_off_c,9,88,0,
2,21600,Note_off_c,9,89,0,
2,21600,Note_off_c,9,91,0,
2,21600,Note_off_c,9,93,0,
2,21630,Note_off_c,9,35,0,
2,21630,Note_off_c,9,36,0,
2,21630,Note_off_c,9,37,0,
2,21630,Note_off_c,9,38,0,
2,21630,Note_off_c,9,39,0,
2,21630,Note_off_c,9,40,0,
2,21630,Note_off_c,9,41,0,
2,21630,Note_off_c,9,42,0,
2,21630,Note_off_c,9,43,0,
2,21630,Note_off_c,9,44,0,
2,21630,Note_off_c,9,45,0,
2,21630,Note_off_c,9,46,0,
2,21630,Note_off_c,9,47,0,
2,21630,Note_off_c,9,48,0,
2,21630,Note_off_c,9,49,0,
2,21630,Note_off_c,9,50,0,
2,21630,Note_off_c,9,51,0,
2,21630,Note_off_c,9,56,0,
2,21630,Note_off_c,9,57,0,
2,21630,Note_off_c,9,59,0,
2,21630,Note_off_c,9,60,0,
2,21630,Note_off_c,9,61,0,
2,21630,Note_off_c,9,63,0,
2,21630,Note_off_c,9,68,0,
2,21630,Note_off_c,9,69,0,
2,21630,Note_off_c,9,70,0,
2,21630,Note_off_c,9,76,0,
2,21630,Note_off_c,9,80,0,
2,21630,Note_off_c,9,81,0,
2,21630,Note_off_c,9,82,0,
2,21630,Note_off_c,9,87,0,
2,21630,Note_off_c,9,88,0,
2,21630,Note_off_c,9,89,0,
2,21630,Note_off_c,9,91,0,
2,21630,Note_off_c,9,93,0,
2,21660,Note_off_c,9,35,0,
2,21660,Note_off_c,9,36,0,
2,21660,Note_off_c,9,37,0,
2,21660,Note_off_c,9,38,0,
2,21660,Note_off_c,9,39,0,
2,21660,Note_off_c,9,40,0,
2,21660,Note_off_c,9,41,0,
2,21660,Note_off_c,9,42,0,
2,21660,Note_off_c,9,43,0,
2,21660,Note_off_c,9,44,0,
2,21660,Note_off_c,9,45,0,
2,21660,Note_off_c,9,46,0,
2,21660,Note_off_c,9,47,0,
2,21660,Note_off_c,9,48,0,
2,21660,Note_off_c,9,49,0,
2,21660,Note_off_c,9,50,0,
2,21660,Note_off_c,9,51,0,
2,21660,Note_off_c,9,56,0,
2,21660,Note_off_c,9,57,0,
2,21660,Note_off_c,9,59,0,
2,21660,Note_off_c,9,60,0,
2,21660,Note_off_c,9,61,0,
2,21660,Note_off_c,9,63,0,
2,21660,Note_off_c,9,68,0,
2,21660,Note_off_c,9,69,0,
2,21660,Note_off_c,9,70,0,
2,21660,Note_off_c,9,76,0,
2,21660,Note_off_c,9,80,0,
2,21660,Note_off_c,9,81,0,
2,21660,Note_off_c,9,82,0,
2,21660,Note_off_c,9,87,0,
2,21660,Note_off_c,9,88,0,
2,21660,Note_off_c,9,89,0,
2,21660,Note_off_c,9,91,0,
2,21660,Note_off_c,9,93,0,
2,21690,Note_off_c,9,35,0,
2,21690,Note_off_c,9,36,0,
2,21690,Note_off_c,9,37,0,
2,21690,Note_off_c,9,38,0,
2,21690,Note_off_c,9,39,0,
2,21690,Note_off_c,9,40,0,
2,21690,Note_off_c,9,41,0,
2,21690,Note_off_c,9,42,0,
2,21690,Note_off_c,9,43,0,
2,21690,Note_off_c,9,44,0,
2,21690,Note_off_c,9,45,0,
2,21690,Note_off_c,9,46,0,
2,21690,Note_off_c,9,47,0,
2,21690,Note_off_c,9,48,0,
2,21690,Note_off_c,9,49,0,
2,21690,Note_off_c,9,50,0,
2,21690,Note_off_c,9,51,0,
2,21690,Note_off_c,9,56,0,
2,21690,Note_off_c,9,57,0,
2,21690,Note_off_c,9,59,0,
2,21690,Note_off_c,9,60,0,
2,21690,Note_off_c,9,61,0,
2,21690,Note_off_c,9,63,0,
2,21690,Note_off_c,9,68,0,
2,21690,Note_off_c,9,69,0,
2,21690,Note_off_c,9,70,0,
2,21690,Note_off_c,9,76,0,
2,21690,Note_off_c,9,80,0,
2,21690,Note_off_c,9,81,0,
2,21690,Note_off_c,9,82,0,
2,21690,Note_off_c,9,87,0,
2,21690,Note_off_c,9,88,0,
2,21690,Note_off_c,9,89,0,
2,21690,Note_off_c,9,91,0,
2,21690,Note_off_c,9,93,0,
2,21720,Note_off_c,9,35,0,
2,21720,Note_off_c,9,36,0,
2,21720,Note_off_c,9,37,0,
2,21720,Note_off_c,9,38,0,
2,21720,Note_off_c,9,39,0,
2,21720,Note_off_c,9,40,0,
2,21720,Note_off_c,9,41,0,
2,21720,Note_off_c,9,42,0,
2,21720,Note_off_c,9,43,0,
2,21720,Note_off_c,9,44,0,
2,21720,Note_off_c,9,45,0,
2,21720,Note_off_c,9,46,0,
2,21720,Note_off_c,9,47,0,
2,21720,Note_off_c,9,48,0,
2,21720,Note_off_c,9,49,0,
2,21720,Note_off_c,9,50,0,
2,21720,Note_off_c,9,51,0,
2,21720,Note_off_c,9,56,0,
2,21720,Note_off_c,9,57,0,
2,21720,Note_off_c,9,59,0,
2,21720,Note_off_c,9,60,0,
2,21720,Note_off_c,9,61,0,
2,21720,Note_off_c,9,63,0,
2,21720,Note_off_c,9,68,0,
2,21720,Note_off_c,9,69,0,
2,21720,Note_off_c,9,70,0,
2,21720,Note_off_c,9,76,0,
2,21720,Note_off_c,9,80,0,
2,21720,Note_off_c,9,81,0,
2,21720,Note_off_c,9,82,0,
2,21720,Note_off_c,9,87,0,
2,21720,Note_off_c,9,88,0,
2,21720,Note_off_c,9,89,0,
2,21720,Note_off_c,9,91,0,
2,21720,Note_off_c,9,93,0,
2,21750,Note_off_c,9,35,0,
2,21750,Note_off_c,9,36,0,
2,21750,Note_off_c,9,37,0,
2,21750,Note_off_c,9,38,0,
2,21750,Note_off_c,9,39,0,
2,21750,Note_off_c,9,40,0,
2,21750,Note_off_c,9,41,0,
2,21750,Note_off_c,9,42,0,
2,21750,Note_off_c,9,43,0,
2,21750,Note_off_c,9,44,0,
2,21750,Note_off_c,9,45,0,
2,21750,Note_off_c,9,46,0,
2,21750,Note_off_c,9,47,0,
2,21750,Note_off_c,9,48,0,
2,21750,Note_off_c,9,49,0,
2,21750,Note_off_c,9,50,0,
2,21750,Note_off_c,9,51,0,
2,21750,Note_off_c,9,56,0,
2,21750,Note_off_c,9,57,0,
2,21750,Note_off_c,9,59,0,
2,21750,Note_off_c,9,60,0,
2,21750,Note_off_c,9,61,0,
2,21750,Note_off_c,9,63,0,
2,21750,Note_off_c,9,68,0,
2,21750,Note_off_c,9,69,0,
2,21750,Note_off_c,9,70,0,
2,21750,Note_off_c,9,76,0,
2,21750,Note_off_c,9,80,0,
2,21750,Note_off_c,9,81,0,
2,21750,Note_off_c,9,82,0,
2,21750,Note_off_c,9,87,0,
2,21750,Note_off_c,9,88,0,
2,21750,Note_off_c,9,89,0,
2,21750,Note_off_c,9,91,0,
2,21750,Note_off_c,9,93,0,
2,21780,Note_off_c,9,35,0,
2,21780,Note_off_c,9,36,0,
2,21780,Note_off_c,9,37,0,
2,21780,Note_off_c,9,38,0,
2,21780,Note_off_c,9,39,0,
2,21780,Note_off_c,9,40,0,
2,21780,Note_off_c,9,41,0,
2,21780,Note_off_c,9,42,0,
2,21780,Note_off_c,9,43,0,
2,21780,Note_off_c,9,44,0,
2,21780,Note_off_c,9,45,0,
2,21780,Note_off_c,9,46,0,
2,21780,Note_off_c,9,47,0,
2,21780,Note_off_c,9,48,0,
2,21780,Note_off_c,9,49,0,
2,21780,Note_off_c,9,50,0,
2,21780,Note_off_c,9,51,0,
2,21780,Note_off_c,9,56,0,
2,21780,Note_off_c,9,57,0,
2,21780,Note_off_c,9,59,0,
2,21780,Note_off_c,9,60,0,
2,21780,Note_off_c,9,61,0,
2,21780,Note_off_c,9,63,0,
2,21780,Note_off_c,9,68,0,
2,21780,Note_off_c,9,69,0,
2,21780,Note_off_c,9,70,0,
2,21780,Note_off_c,9,76,0,
2,21780,Note_off_c,9,80,0,
2,21780,Note_off_c,9,81,0,
2,21780,Note_off_c,9,82,0,
2,21780,Note_off_c,9,87,0,
2,21780,Note_off_c,9,88,0,
2,21780,Note_off_c,9,89,0,
2,21780,Note_off_c,9,91,0,
2,21780,Note_off_c,9,93,0,
2,21810,Note_off_c,9,35,0,
2,21810,Note_off_c,9,36,0,
2,21810,Note_off_c,9,37,0,
2,21810,Note_off_c,9,38,0,
2,21810,Note_off_c,9,39,0,
2,21810,Note_off_c,9,40,0,
2,21810,Note_off_c,9,41,0,
2,21810,Note_off_c,9,42,0,
2,21810,Note_off_c,9,43,0,
2,21810,Note_off_c,9,44,0,
2,21810,Note_off_c,9,45,0,
2,21810,Note_off_c,9,46,0,
2,21810,Note_off_c,9,47,0,
2,21810,Note_off_c,9,48,0,
2,21810,Note_off_c,9,49,0,
2,21810,Note_off_c,9,50,0,
2,21810,Note_off_c,9,51,0,
2,21810,Note_off_c,9,56,0,
2,21810,Note_off_c,9,57,0,
2,21810,Note_off_c,9,59,0,
2,21810,Note_off_c,9,60,0,
2,21810,Note_off_c,9,61,0,
2,21810,Note_off_c,9,63,0,
2,21810,Note_off_c,9,68,0,
2,21810,Note_off_c,9,69,0,
2,21810,Note_off_c,9,70,0,
2,21810,Note_off_c,9,76,0,
2,21810,Note_off_c,9,80,0,
2,21810,Note_off_c,9,81,0,
2,21810,Note_off_c,9,82,0,
2,21810,Note_off_c,9,87,0,
2,21810,Note_off_c,9,88,0,
2,21810,Note_off_c,9,89,0,
2,21810,Note_off_c,9,91,0,
2,21810,Note_off_c,9,93,0,
2,21840,Note_off_c,9,35,0,
2,21840,Note_off_c,9,36,0,
2,21840,Note_off_c,9,37,0,
2,21840,Note_off_c,9,38,0,
2,21840,Note_off_c,9,39,0,
2,21840,Note_off_c,9,40,0,
2,21840,Note_off_c,9,41,0,
2,21840,Note_off_c,9,42,0,
2,21840,Note_off_c,9,43,0,
2,21840,Note_off_c,9,44,0,
2,21840,Note_off_c,9,45,0,
2,21840,Note_off_c,9,46,0,
2,21840,Note_off_c,9,47,0,
2,21840,Note_off_c,9,48,0,
2,21840,Note_off_c,9,49,0,
2,21840,Note_off_c,9,50,0,
2,21840,Note_off_c,9,51,0,
2,21840,Note_off_c,9,56,0,
2,21840,Note_off_c,9,57,0,
2,21840,Note_off_c,9,59,0,
2,21840,Note_off_c,9,60,0,
2,21840,Note_off_c,9,61,0,
2,21840,Note_off_c,9,63,0,
2,21840,Note_off_c,9,68,0,
2,21840,Note_off_c,9,69,0,
2,21840,Note_off_c,9,70,0,
2,21840,Note_off_c,9,76,0,
2,21840,Note_off_c,9,80,0,
2,21840,Note_off_c,9,81,0,
2,21840,Note_off_c,9,82,0,
2,21840,Note_off_c,9,87,0,
2,21840,Note_off_c,9,88,0,
2,21840,Note_off_c,9,89,0,
2,21840,Note_off_c,9,91,0,
2,21840,Note_off_c,9,93,0,
2,21870,Note_off_c,9,35,0,
2,21870,Note_off_c,9,36,0,
2,21870,Note_off_c,9,37,0,
2,21870,Note_off_c,9,38,0,
2,21870,Note_off_c,9,39,0,
2,21870,Note_off_c,9,40,0,
2,21870,Note_off_c,9,41,0,
2,21870,Note_off_c,9,42,0,
2,21870,Note_off_c,9,43,0,
2,21870,Note_off_c,9,44,0,
2,21870,Note_off_c,9,45,0,
2,21870,Note_off_c,9,46,0,
2,21870,Note_off_c,9,47,0,
2,21870,Note_off_c,9,48,0,
2,21870,Note_off_c,9,49,0,
2,21870,Note_off_c,9,50,0,
2,21870,Note_off_c,9,51,0,
2,21870,Note_off_c,9,56,0,
2,21870,Note_off_c,9,57,0,
2,21870,Note_off_c,9,59,0,
2,21870,Note_off_c,9,60,0,
2,21870,Note_off_c,9,61,0,
2,21870,Note_off_c,9,63,0,
2,21870,Note_off_c,9,68,0,
2,21870,Note_off_c,9,69,0,
2,21870,Note_off_c,9,70,0,
2,21870,Note_off_c,9,76,0,
2,21870,Note_off_c,9,80,0,
2,21870,Note_off_c,9,81,0,
2,21870,Note_off_c,9,82,0,
2,21870,Note_off_c,9,87,0,
2,21870,Note_off_c,9,88,0,
2,21870,Note_off_c,9,89,0,
2,21870,Note_off_c,9,91,0,
2,21870,Note_off_c,9,93,0,
2,21900,Note_off_c,9,35,0,
2,21900,Note_off_c,9,36,0,
2,21900,Note_off_c,9,37,0,
2,21900,Note_off_c,9,38,0,
2,21900,Note_off_c,9,39,0,
2,21900,Note_off_c,9,40,0,
2,21900,Note_off_c,9,41,0,
2,21900,Note_off_c,9,42,0,
2,21900,Note_off_c,9,43,0,
2,21900,Note_off_c,9,44,0,
2,21900,Note_off_c,9,45,0,
2,21900,Note_off_c,9,46,0,
2,21900,Note_off_c,9,47,0,
2,21900,Note_off_c,9,48,0,
2,21900,Note_off_c,9,49,0,
2,21900,Note_off_c,9,50,0,
2,21900,Note_off_c,9,51,0,
2,21900,Note_off_c,9,56,0,
2,21900,Note_off_c,9,57,0,
2,21900,Note_off_c,9,59,0,
2,21900,Note_off_c,9,60,0,
2,21900,Note_off_c,9,61,0,
2,21900,Note_off_c,9,63,0,
2,21900,Note_off_c,9,68,0,
2,21900,Note_off_c,9,69,0,
2,21900,Note_off_c,9,70,0,
2,21900,Note_off_c,9,76,0,
2,21900,Note_off_c,9,80,0,
2,21900,Note_off_c,9,81,0,
2,21900,Note_off_c,9,82,0,
2,21900,Note_off_c,9,87,0,
2,21900,Note_off_c,9,88,0,
2,21900,Note_off_c,9,89,0,
2,21900,Note_off_c,9,91,0,
2,21900,Note_off_c,9,93,0,
2,21930,Note_off_c,9,35,0,
2,21930,Note_off_c,9,36,0,
2,21930,Note_off_c,9,37,0,
2,21930,Note_off_c,9,38,0,
2,21930,Note_off_c,9,39,0,
2,21930,Note_off_c,9,40,0,
2,21930,Note_off_c,9,41,0,
2,21930,Note_off_c,9,42,0,
2,21930,Note_off_c,9,43,0,
2,21930,Note_off_c,9,44,0,
2,21930,Note_off_c,9,45,0,
2,21930,Note_off_c,9,46,0,
2,21930,Note_off_c,9,47,0,
2,21930,Note_off_c,9,48,0,
2,21930,Note_off_c,9,49,0,
2,21930,Note_off_c,9,50,0,
2,21930,Note_off_c,9,51,0,
2,21930,Note_off_c,9,56,0,
2,21930,Note_off_c,9,57,0,
2,21930,Note_off_c,9,59,0,
2,21930,Note_off_c,9,60,0,
2,21930,Note_off_c,9,61,0,
2,21930,Note_off_c,9,63,0,
2,21930,Note_off_c,9,68,0,
2,21930,Note_off_c,9,69,0,
2,21930,Note_off_c,9,70,0,
2,21930,Note_off_c,9,76,0,
2,21930,Note_off_c,9,80,0,
2,21930,Note_off_c,9,81,0,
2,21930,Note_off_c,9,82,0,
2,21930,Note_off_c,9,87,0,
2,21930,Note_off_c,9,88,0,
2,21930,Note_off_c,9,89,0,
2,21930,Note_off_c,9,91,0,
2,21930,Note_off_c,9,93,0,
2,21960,Note_off_c,9,35,0,
2,21960,Note_off_c,9,36,0,
2,21960,Note_off_c,9,37,0,
2,21960,Note_off_c,9,38,0,
2,21960,Note_off_c,9,39,0,
2,21960,Note_off_c,9,40,0,
2,21960,Note_off_c,9,41,0,
2,21960,Note_off_c,9,42,0,
2,21960,Note_off_c,9,43,0,
2,21960,Note_off_c,9,44,0,
2,21960,Note_off_c,9,45,0,
2,21960,Note_off_c,9,46,0,
2,21960,Note_off_c,9,47,0,
2,21960,Note_off_c,9,48,0,
2,21960,Note_off_c,9,49,0,
2,21960,Note_off_c,9,50,0,
2,21960,Note_off_c,9,51,0,
2,21960,Note_off_c,9,56,0,
2,21960,Note_off_c,9,57,0,
2,21960,Note_off_c,9,59,0,
2,21960,Note_off_c,9,60,0,
2,21960,Note_off_c,9,61,0,
2,21960,Note_off_c,9,63,0,
2,21960,Note_off_c,9,68,0,
2,21960,Note_off_c,9,69,0,
2,21960,Note_off_c,9,70,0,
2,21960,Note_off_c,9,76,0,
2,21960,Note_off_c,9,80,0,
2,21960,Note_off_c,9,81,0,
2,21960,Note_off_c,9,82,0,
2,21960,Note_off_c,9,87,0,
2,21960,Note_off_c,9,88,0,
2,21960,Note_off_c,9,89,0,
2,21960,Note_off_c,9,91,0,
2,21960,Note_off_c,9,93,0,
2,21990,Note_off_c,9,35,0,
2,21990,Note_off_c,9,36,0,
2,21990,Note_off_c,9,37,0,
2,21990,Note_off_c,9,38,0,
2,21990,Note_off_c,9,39,0,
2,21990,Note_off_c,9,40,0,
2,21990,Note_off_c,9,41,0,
2,21990,Note_off_c,9,42,0,
2,21990,Note_off_c,9,43,0,
2,21990,Note_off_c,9,44,0,
2,21990,Note_off_c,9,45,0,
2,21990,Note_off_c,9,46,0,
2,21990,Note_off_c,9,47,0,
2,21990,Note_off_c,9,48,0,
2,21990,Note_off_c,9,49,0,
2,21990,Note_off_c,9,50,0,
2,21990,Note_off_c,9,51,0,
2,21990,Note_off_c,9,56,0,
2,21990,Note_off_c,9,57,0,
2,21990,Note_off_c,9,59,0,
2,21990,Note_off_c,9,60,0,
2,21990,Note_off_c,9,61,0,
2,21990,Note_off_c,9,63,0,
2,21990,Note_off_c,9,68,0,
2,21990,Note_off_c,9,69,0,
2,21990,Note_off_c,9,70,0,
2,21990,Note_off_c,9,76,0,
2,21990,Note_off_c,9,80,0,
2,21990,Note_off_c,9,81,0,
2,21990,Note_off_c,9,82,0,
2,21990,Note_off_c,9,87,0,
2,21990,Note_off_c,9,88,0,
2,21990,Note_off_c,9,89,0,
2,21990,Note_off_c,9,91,0,
2,21990,Note_off_c,9,93,0,
2,22020,Note_off_c,9,35,0,
2,22020,Note_off_c,9,36,0,
2,22020,Note_off_c,9,37,0,
2,22020,Note_off_c,9,38,0,
2,22020,Note_off_c,9,39,0,
2,22020,Note_off_c,9,40,0,
2,22020,Note_off_c,9,41,0,
2,22020,Note_off_c,9,42,0,
2,22020,Note_off_c,9,43,0,
2,22020,Note_off_c,9,44,0,
2,22020,Note_off_c,9,45,0,
2,22020,Note_off_c,9,46,0,
2,22020,Note_off_c,9,47,0,
2,22020,Note_off_c,9,48,0,
2,22020,Note_off_c,9,49,0,
2,22020,Note_off_c,9,50,0,
2,22020,Note_off_c,9,51,0,
2,22020,Note_off_c,9,56,0,
2,22020,Note_off_c,9,57,0,
2,22020,Note_off_c,9,59,0,
2,22020,Note_off_c,9,60,0,
2,22020,Note_off_c,9,61,0,
2,22020,Note_off_c,9,63,0,
2,22020,Note_off_c,9,68,0,
2,22020,Note_off_c,9,69,0,
2,22020,Note_off_c,9,70,0,
2,22020,Note_off_c,9,76,0,
2,22020,Note_off_c,9,80,0,
2,22020,Note_off_c,9,81,0,
2,22020,Note_off_c,9,82,0,
2,22020,Note_off_c,9,87,0,
2,22020,Note_off_c,9,88,0,
2,22020,Note_off_c,9,89,0,
2,22020,Note_off_c,9,91,0,
2,22020,Note_off_c,9,93,0,
2,22050,Note_off_c,9,35,0,
2,22050,Note_off_c,9,36,0,
2,22050,Note_off_c,9,37,0,
2,22050,Note_off_c,9,38,0,
2,22050,Note_off_c,9,39,0,
2,22050,Note_off_c,9,40,0,
2,22050,Note_off_c,9,41,0,
2,22050,Note_off_c,9,42,0,
2,22050,Note_off_c,9,43,0,
2,22050,Note_off_c,9,44,0,
2,22050,Note_off_c,9,45,0,
2,22050,Note_off_c,9,46,0,
2,22050,Note_off_c,9,47,0,
2,22050,Note_off_c,9,48,0,
2,22050,Note_off_c,9,49,0,
2,22050,Note_off_c,9,50,0,
2,22050,Note_off_c,9,51,0,
2,22050,Note_off_c,9,56,0,
2,22050,Note_off_c,9,57,0,
2,22050,Note_off_c,9,59,0,
2,22050,Note_off_c,9,60,0,
2,22050,Note_off_c,9,61,0,
2,22050,Note_off_c,9,63,0,
2,22050,Note_off_c,9,68,0,
2,22050,Note_off_c,9,69,0,
2,22050,Note_off_c,9,70,0,
2,22050,Note_off_c,9,76,0,
2,22050,Note_off_c,9,80,0,
2,22050,Note_off_c,9,81,0,
2,22050,Note_off_c,9,82,0,
2,22050,Note_off_c,9,87,0,
2,22050,Note_off_c,9,88,0,
2,22050,Note_off_c,9,89,0,
2,22050,Note_off_c,9,91,0,
2,22050,Note_off_c,9,93,0,
2,22080,Note_off_c,9,35,0,
2,22080,Note_off_c,9,36,0,
2,22080,Note_off_c,9,37,0,
2,22080,Note_off_c,9,38,0,
2,22080,Note_off_c,9,39,0,
2,22080,Note_off_c,9,40,0,
2,22080,Note_off_c,9,41,0,
2,22080,Note_off_c,9,42,0,
2,22080,Note_off_c,9,43,0,
2,22080,Note_off_c,9,44,0,
2,22080,Note_off_c,9,45,0,
2,22080,Note_off_c,9,46,0,
2,22080,Note_off_c,9,47,0,
2,22080,Note_off_c,9,48,0,
2,22080,Note_off_c,9,49,0,
2,22080,Note_off_c,9,50,0,
2,22080,Note_off_c,9,51,0,
2,22080,Note_off_c,9,56,0,
2,22080,Note_off_c,9,57,0,
2,22080,Note_off_c,9,59,0,
2,22080,Note_off_c,9,60,0,
2,22080,Note_off_c,9,61,0,
2,22080,Note_off_c,9,63,0,
2,22080,Note_off_c,9,68,0,
2,22080,Note_off_c,9,69,0,
2,22080,Note_off_c,9,70,0,
2,22080,Note_off_c,9,76,0,
2,22080,Note_off_c,9,80,0,
2,22080,Note_off_c,9,81,0,
2,22080,Note_off_c,9,82,0,
2,22080,Note_off_c,9,87,0,
2,22080,Note_off_c,9,88,0,
2,22080,Note_off_c,9,89,0,
2,22080,Note_off_c,9,91,0,
2,22080,Note_off_c,9,93,0,
2,22110,Note_off_c,9,35,0,
2,22110,Note_off_c,9,36,0,
2,22110,Note_off_c,9,37,0,
2,22110,Note_off_c,9,38,0,
2,22110,Note_off_c,9,39,0,
2,22110,Note_off_c,9,40,0,
2,22110,Note_off_c,9,41,0,
2,22110,Note_off_c,9,42,0,
2,22110,Note_off_c,9,43,0,
2,22110,Note_off_c,9,44,0,
2,22110,Note_off_c,9,45,0,
2,22110,Note_off_c,9,46,0,
2,22110,Note_off_c,9,47,0,
2,22110,Note_off_c,9,48,0,
2,22110,Note_off_c,9,49,0,
2,22110,Note_off_c,9,50,0,
2,22110,Note_off_c,9,51,0,
2,22110,Note_off_c,9,56,0,
2,22110,Note_off_c,9,57,0,
2,22110,Note_off_c,9,59,0,
2,22110,Note_off_c,9,60,0,
2,22110,Note_off_c,9,61,0,
2,22110,Note_off_c,9,63,0,
2,22110,Note_off_c,9,68,0,
2,22110,Note_off_c,9,69,0,
2,22110,Note_off_c,9,70,0,
2,22110,Note_off_c,9,76,0,
2,22110,Note_off_c,9,80,0,
2,22110,Note_off_c,9,81,0,
2,22110,Note_off_c,9,82,0,
2,22110,Note_off_c,9,87,0,
2,22110,Note_off_c,9,88,0,
2,22110,Note_off_c,9,89,0,
2,22110,Note_off_c,9,91,0,
2,22110,Note_off_c,9,93,0,
2,22140,Note_off_c,9,35,0,
2,22140,Note_off_c,9,36,0,
2,22140,Note_off_c,9,37,0,
2,22140,Note_off_c,9,38,0,
2,22140,Note_off_c,9,39,0,
2,22140,Note_off_c,9,40,0,
2,22140,Note_off_c,9,41,0,
2,22140,Note_off_c,9,42,0,
2,22140,Note_off_c,9,43,0,
2,22140,Note_off_c,9,44,0,
2,22140,Note_off_c,9,45,0,
2,22140,Note_off_c,9,46,0,
2,22140,Note_off_c,9,47,0,
2,22140,Note_off_c,9,48,0,
2,22140,Note_off_c,9,49,0,
2,22140,Note_off_c,9,50,0,
2,22140,Note_off_c,9,51,0,
2,22140,Note_off_c,9,56,0,
2,22140,Note_off_c,9,57,0,
2,22140,Note_off_c,9,59,0,
2,22140,Note_off_c,9,60,0,
2,22140,Note_off_c,9,61,0,
2,22140,Note_off_c,9,63,0,
2,22140,Note_off_c,9,68,0,
2,22140,Note_off_c,9,69,0,
2,22140,Note_off_c,9,70,0,
2,22140,Note_off_c,9,76,0,
2,22140,Note_off_c,9,80,0,
2,22140,Note_off_c,9,81,0,
2,22140,Note_off_c,9,82,0,
2,22140,Note_off_c,9,87,0,
2,22140,Note_off_c,9,88,0,
2,22140,Note_off_c,9,89,0,
2,22140,Note_off_c,9,91,0,
2,22140,Note_off_c,9,93,0,
2,22170,Note_off_c,9,35,0,
2,22170,Note_off_c,9,36,0,
2,22170,Note_off_c,9,37,0,
2,22170,Note_off_c,9,38,0,
2,22170,Note_off_c,9,39,0,
2,22170,Note_off_c,9,40,0,
2,22170,Note_off_c,9,41,0,
2,22170,Note_off_c,9,42,0,
2,22170,Note_off_c,9,43,0,
2,22170,Note_off_c,9,44,0,
2,22170,Note_off_c,9,45,0,
2,22170,Note_off_c,9,46,0,
2,22170,Note_off_c,9,47,0,
2,22170,Note_off_c,9,48,0,
2,22170,Note_off_c,9,49,0,
2,22170,Note_off_c,9,50,0,
2,22170,Note_off_c,9,51,0,
2,22170,Note_off_c,9,56,0,
2,22170,Note_off_c,9,57,0,
2,22170,Note_off_c,9,59,0,
2,22170,Note_off_c,9,60,0,
2,22170,Note_off_c,9,61,0,
2,22170,Note_off_c,9,63,0,
2,22170,Note_off_c,9,68,0,
2,22170,Note_off_c,9,69,0,
2,22170,Note_off_c,9,70,0,
2,22170,Note_off_c,9,76,0,
2,22170,Note_off_c,9,80,0,
2,22170,Note_off_c,9,81,0,
2,22170,Note_off_c,9,82,0,
2,22170,Note_off_c,9,87,0,
2,22170,Note_off_c,9,88,0,
2,22170,Note_off_c,9,89,0,
2,22170,Note_off_c,9,91,0,
2,22170,Note_off_c,9,93,0,
2,22200,Note_off_c,9,35,0,
2,22200,Note_off_c,9,36,0,
2,22200,Note_off_c,9,37,0,
2,22200,Note_off_c,9,38,0,
2,22200,Note_off_c,9,39,0,
2,22200,Note_off_c,9,40,0,
2,22200,Note_off_c,9,41,0,
2,22200,Note_off_c,9,42,0,
2,22200,Note_off_c,9,43,0,
2,22200,Note_off_c,9,44,0,
2,22200,Note_off_c,9,45,0,
2,22200,Note_off_c,9,46,0,
2,22200,Note_off_c,9,47,0,
2,22200,Note_off_c,9,48,0,
2,22200,Note_off_c,9,49,0,
2,22200,Note_off_c,9,50,0,
2,22200,Note_off_c,9,51,0,
2,22200,Note_off_c,9,56,0,
2,22200,Note_off_c,9,57,0,
2,22200,Note_off_c,9,59,0,
2,22200,Note_off_c,9,60,0,
2,22200,Note_off_c,9,61,0,
2,22200,Note_off_c,9,63,0,
2,22200,Note_off_c,9,68,0,
2,22200,Note_off_c,9,69,0,
2,22200,Note_off_c,9,70,0,
2,22200,Note_off_c,9,76,0,
2,22200,Note_off_c,9,80,0,
2,22200,Note_off_c,9,81,0,
2,22200,Note_off_c,9,82,0,
2,22200,Note_off_c,9,87,0,
2,22200,Note_off_c,9,88,0,
2,22200,Note_off_c,9,89,0,
2,22200,Note_off_c,9,91,0,
2,22200,Note_off_c,9,93,0,
2,22230,Note_off_c,9,35,0,
2,22230,Note_off_c,9,36,0,
2,22230,Note_off_c,9,37,0,
2,22230,Note_off_c,9,38,0,
2,22230,Note_off_c,9,39,0,
2,22230,Note_off_c,9,40,0,
2,22230,Note_off_c,9,41,0,
2,22230,Note_off_c,9,42,0,
2,22230,Note_off_c,9,43,0,
2,22230,Note_off_c,9,44,0,
2,22230,Note_off_c,9,45,0,
2,22230,Note_off_c,9,46,0,
2,22230,Note_off_c,9,47,0,
2,22230,Note_off_c,9,48,0,
2,22230,Note_off_c,9,49,0,
2,22230,Note_off_c,9,50,0,
2,22230,Note_off_c,9,51,0,
2,22230,Note_off_c,9,56,0,
2,22230,Note_off_c,9,57,0,
2,22230,Note_off_c,9,59,0,
2,22230,Note_off_c,9,60,0,
2,22230,Note_off_c,9,61,0,
2,22230,Note_off_c,9,63,0,
2,22230,Note_off_c,9,68,0,
2,22230,Note_off_c,9,69,0,
2,22230,Note_off_c,9,70,0,
2,22230,Note_off_c,9,76,0,
2,22230,Note_off_c,9,80,0,
2,22230,Note_off_c,9,81,0,
2,22230,Note_off_c,9,82,0,
2,22230,Note_off_c,9,87,0,
2,22230,Note_off_c,9,88,0,
2,22230,Note_off_c,9,89,0,
2,22230,Note_off_c,9,91,0,
2,22230,Note_off_c,9,93,0,
2,22260,Note_off_c,9,35,0,
2,22260,Note_off_c,9,36,0,
2,22260,Note_off_c,9,37,0,
2,22260,Note_off_c,9,38,0,
2,22260,Note_off_c,9,39,0,
2,22260,Note_off_c,9,40,0,
2,22260,Note_off_c,9,41,0,
2,22260,Note_off_c,9,42,0,
2,22260,Note_off_c,9,43,0,
2,22260,Note_off_c,9,44,0,
2,22260,Note_off_c,9,45,0,
2,22260,Note_off_c,9,46,0,
2,22260,Note_off_c,9,47,0,
2,22260,Note_off_c,9,48,0,
2,22260,Note_off_c,9,49,0,
2,22260,Note_off_c,9,50,0,
2,22260,Note_off_c,9,51,0,
2,22260,Note_off_c,9,56,0,
2,22260,Note_off_c,9,57,0,
2,22260,Note_off_c,9,59,0,
2,22260,Note_off_c,9,60,0,
2,22260,Note_off_c,9,61,0,
2,22260,Note_off_c,9,63,0,
2,22260,Note_off_c,9,68,0,
2,22260,Note_off_c,9,69,0,
2,22260,Note_off_c,9,70,0,
2,22260,Note_off_c,9,76,0,
2,22260,Note_off_c,9,80,0,
2,22260,Note_off_c,9,81,0,
2,22260,Note_off_c,9,82,0,
2,22260,Note_off_c,9,87,0,
2,22260,Note_off_c,9,88,0,
2,22260,Note_off_c,9,89,0,
2,22260,Note_off_c,9,91,0,
2,22260,Note_off_c,9,93,0,
2,22290,Note_off_c,9,35,0,
2,22290,Note_off_c,9,36,0,
2,22290,Note_off_c,9,37,0,
2,22290,Note_off_c,9,38,0,
2,22290,Note_off_c,9,39,0,
2,22290,Note_off_c,9,40,0,
2,22290,Note_off_c,9,41,0,
2,22290,Note_off_c,9,42,0,
2,22290,Note_off_c,9,43,0,
2,22290,Note_off_c,9,44,0,
2,22290,Note_off_c,9,45,0,
2,22290,Note_off_c,9,46,0,
2,22290,Note_off_c,9,47,0,
2,22290,Note_off_c,9,48,0,
2,22290,Note_off_c,9,49,0,
2,22290,Note_off_c,9,50,0,
2,22290,Note_off_c,9,51,0,
2,22290,Note_off_c,9,56,0,
2,22290,Note_off_c,9,57,0,
2,22290,Note_off_c,9,59,0,
2,22290,Note_off_c,9,60,0,
2,22290,Note_off_c,9,61,0,
2,22290,Note_off_c,9,63,0,
2,22290,Note_off_c,9,68,0,
2,22290,Note_off_c,9,69,0,
2,22290,Note_off_c,9,70,0,
2,22290,Note_off_c,9,76,0,
2,22290,Note_off_c,9,80,0,
2,22290,Note_off_c,9,81,0,
2,22290,Note_off_c,9,82,0,
2,22290,Note_off_c,9,87,0,
2,22290,Note_off_c,9,88,0,
2,22290,Note_off_c,9,89,0,
2,22290,Note_off_c,9,91,0,
2,22290,Note_off_c,9,93,0,
2,22320,Note_off_c,9,35,0,
2,22320,Note_off_c,9,36,0,
2,22320,Note_off_c,9,37,0,
2,22320,Note_off_c,9,38,0,
2,22320,Note_off_c,9,39,0,
2,22320,Note_off_c,9,40,0,
2,22320,Note_off_c,9,41,0,
2,22320,Note_off_c,9,42,0,
2,22320,Note_off_c,9,43,0,
2,22320,Note_off_c,9,44,0,
2,22320,Note_off_c,9,45,0,
2,22320,Note_off_c,9,46,0,
2,22320,Note_off_c,9,47,0,
2,22320,Note_off_c,9,48,0,
2,22320,Note_off_c,9,49,0,
2,22320,Note_off_c,9,50,0,
2,22320,Note_off_c,9,51,0,
2,22320,Note_off_c,9,56,0,
2,22320,Note_off_c,9,57,0,
2,22320,Note_off_c,9,59,0,
2,22320,Note_off_c,9,60,0,
2,22320,Note_off_c,9,61,0,
2,22320,Note_off_c,9,63,0,
2,22320,Note_off_c,9,68,0,
2,22320,Note_off_c,9,69,0,
2,22320,Note_off_c,9,70,0,
2,22320,Note_off_c,9,76,0,
2,22320,Note_off_c,9,80,0,
2,22320,Note_off_c,9,81,0,
2,22320,Note_off_c,9,82,0,
2,22320,Note_off_c,9,87,0,
2,22320,Note_off_c,9,88,0,
2,22320,Note_off_c,9,89,0,
2,22320,Note_off_c,9,91,0,
2,22320,Note_off_c,9,93,0,
2,22350,Note_off_c,9,35,0,
2,22350,Note_off_c,9,36,0,
2,22350,Note_off_c,9,37,0,
2,22350,Note_off_c,9,38,0,
2,22350,Note_off_c,9,39,0,
2,22350,Note_off_c,9,40,0,
2,22350,Note_off_c,9,41,0,
2,22350,Note_off_c,9,42,0,
2,22350,Note_off_c,9,43,0,
2,22350,Note_off_c,9,44,0,
2,22350,Note_off_c,9,45,0,
2,22350,Note_off_c,9,46,0,
2,22350,Note_off_c,9,47,0,
2,22350,Note_off_c,9,48,0,
2,22350,Note_off_c,9,49,0,
2,22350,Note_off_c,9,50,0,
2,22350,Note_off_c,9,51,0,
2,22350,Note_off_c,9,56,0,
2,22350,Note_off_c,9,57,0,
2,22350,Note_off_c,9,59,0,
2,22350,Note_off_c,9,60,0,
2,22350,Note_off_c,9,61,0,
2,22350,Note_off_c,9,63,0,
2,22350,Note_off_c,9,68,0,
2,22350,Note_off_c,9,69,0,
2,22350,Note_off_c,9,70,0,
2,22350,Note_off_c,9,76,0,
2,22350,Note_off_c,9,80,0,
2,22350,Note_off_c,9,81,0,
2,22350,Note_off_c,9,82,0,
2,22350,Note_off_c,9,87,0,
2,22350,Note_off_c,9,88,0,
2,22350,Note_off_c,9,89,0,
2,22350,Note_off_c,9,91,0,
2,22350,Note_off_c,9,93,0,
2,22380,Note_off_c,9,35,0,
2,22380,Note_off_c,9,36,0,
2,22380,Note_off_c,9,37,0,
2,22380,Note_off_c,9,38,0,
2,22380,Note_off_c,9,39,0,
2,22380,Note_off_c,9,40,0,
2,22380,Note_off_c,9,41,0,
2,22380,Note_off_c,9,42,0,
2,22380,Note_off_c,9,43,0,
2,22380,Note_off_c,9,44,0,
2,22380,Note_off_c,9,45,0,
2,22380,Note_off_c,9,46,0,
2,22380,Note_off_c,9,47,0,
2,22380,Note_off_c,9,48,0,
2,22380,Note_off_c,9,49,0,
2,22380,Note_off_c,9,50,0,
2,22380,Note_off_c,9,51,0,
2,22380,Note_off_c,9,56,0,
2,22380,Note_off_c,9,57,0,
2,22380,Note_off_c,9,59,0,
2,22380,Note_off_c,9,60,0,
2,22380,Note_off_c,9,61,0,
2,22380,Note_off_c,9,63,0,
2,22380,Note_off_c,9,68,0,
2,22380,Note_off_c,9,69,0,
2,22380,Note_off_c,9,70,0,
2,22380,Note_off_c,9,76,0,
2,22380,Note_off_c,9,80,0,
2,22380,Note_off_c,9,81,0,
2,22380,Note_off_c,9,82,0,
2,22380,Note_off_c,9,87,0,
2,22380,Note_off_c,9,88,0,
2,22380,Note_off_c,9,89,0,
2,22380,Note_off_c,9,91,0,
2,22380,Note_off_c,9,93,0,
2,22410,Note_off_c,9,35,0,
2,22410,Note_off_c,9,36,0,
2,22410,Note_off_c,9,37,0,
2,22410,Note_off_c,9,38,0,
2,22410,Note_off_c,9,39,0,
2,22410,Note_off_c,9,40,0,
2,22410,Note_off_c,9,41,0,
2,22410,Note_off_c,9,42,0,
2,22410,Note_off_c,9,43,0,
2,22410,Note_off_c,9,44,0,
2,22410,Note_off_c,9,45,0,
2,22410,Note_off_c,9,46,0,
2,22410,Note_off_c,9,47,0,
2,22410,Note_off_c,9,48,0,
2,22410,Note_off_c,9,49,0,
2,22410,Note_off_c,9,50,0,
2,22410,Note_off_c,9,51,0,
2,22410,Note_off_c,9,56,0,
2,22410,Note_off_c,9,57,0,
2,22410,Note_off_c,9,59,0,
2,22410,Note_off_c,9,60,0,
2,22410,Note_off_c,9,61,0,
2,22410,Note_off_c,9,63,0,
2,22410,Note_off_c,9,68,0,
2,22410,Note_off_c,9,69,0,
2,22410,Note_off_c,9,70,0,
2,22410,Note_off_c,9,76,0,
2,22410,Note_off_c,9,80,0,
2,22410,Note_off_c,9,81,0,
2,22410,Note_off_c,9,82,0,
2,22410,Note_off_c,9,87,0,
2,22410,Note_off_c,9,88,0,
2,22410,Note_off_c,9,89,0,
2,22410,Note_off_c,9,91,0,
2,22410,Note_off_c,9,93,0,
2,22440,Note_off_c,9,35,0,
2,22440,Note_off_c,9,36,0,
2,22440,Note_off_c,9,37,0,
2,22440,Note_off_c,9,38,0,
2,22440,Note_off_c,9,39,0,
2,22440,Note_off_c,9,40,0,
2,22440,Note_off_c,9,41,0,
2,22440,Note_off_c,9,42,0,
2,22440,Note_off_c,9,43,0,
2,22440,Note_off_c,9,44,0,
2,22440,Note_off_c,9,45,0,
2,22440,Note_off_c,9,46,0,
2,22440,Note_off_c,9,47,0,
2,22440,Note_off_c,9,48,0,
2,22440,Note_off_c,9,49,0,
2,22440,Note_off_c,9,50,0,
2,22440,Note_off_c,9,51,0,
2,22440,Note_off_c,9,56,0,
2,22440,Note_off_c,9,57,0,
2,22440,Note_off_c,9,59,0,
2,22440,Note_off_c,9,60,0,
2,22440,Note_off_c,9,61,0,
2,22440,Note_off_c,9,63,0,
2,22440,Note_off_c,9,68,0,
2,22440,Note_off_c,9,69,0,
2,22440,Note_off_c,9,70,0,
2,22440,Note_off_c,9,76,0,
2,22440,Note_off_c,9,80,0,
2,22440,Note_off_c,9,81,0,
2,22440,Note_off_c,9,82,0,
2,22440,Note_off_c,9,87,0,
2,22440,Note_off_c,9,88,0,
2,22440,Note_off_c,9,89,0,
2,22440,Note_off_c,9,91,0,
2,22440,Note_off_c,9,93,0,
2,22470,Note_off_c,9,35,0,
2,22470,Note_off_c,9,36,0,
2,22470,Note_off_c,9,37,0,
2,22470,Note_off_c,9,38,0,
2,22470,Note_off_c,9,39,0,
2,22470,Note_off_c,9,40,0,
2,22470,Note_off_c,9,41,0,
2,22470,Note_off_c,9,42,0,
2,22470,Note_off_c,9,43,0,
2,22470,Note_off_c,9,44,0,
2,22470,Note_off_c,9,45,0,
2,22470,Note_off_c,9,46,0,
2,22470,Note_off_c,9,47,0,
2,22470,Note_off_c,9,48,0,
2,22470,Note_off_c,9,49,0,
2,22470,Note_off_c,9,50,0,
2,22470,Note_off_c,9,51,0,
2,22470,Note_off_c,9,56,0,
2,22470,Note_off_c,9,57,0,
2,22470,Note_off_c,9,59,0,
2,22470,Note_off_c,9,60,0,
2,22470,Note_off_c,9,61,0,
2,22470,Note_off_c,9,63,0,
2,22470,Note_off_c,9,68,0,
2,22470,Note_off_c,9,69,0,
2,22470,Note_off_c,9,70,0,
2,22470,Note_off_c,9,76,0,
2,22470,Note_off_c,9,80,0,
2,22470,Note_off_c,9,81,0,
2,22470,Note_off_c,9,82,0,
2,22470,Note_off_c,9,87,0,
2,22470,Note_off_c,9,88,0,
2,22470,Note_off_c,9,89,0,
2,22470,Note_off_c,9,91,0,
2,22470,Note_off_c,9,93,0,
2,22500,Note_off_c,9,35,0,
2,22500,Note_off_c,9,36,0,
2,22500,Note_off_c,9,37,0,
2,22500,Note_off_c,9,38,0,
2,22500,Note_off_c,9,39,0,
2,22500,Note_off_c,9,40,0,
2,22500,Note_off_c,9,41,0,
2,22500,Note_off_c,9,42,0,
2,22500,Note_off_c,9,43,0,
2,22500,Note_off_c,9,44,0,
2,22500,Note_off_c,9,45,0,
2,22500,Note_off_c,9,46,0,
2,22500,Note_off_c,9,47,0,
2,22500,Note_off_c,9,48,0,
2,22500,Note_off_c,9,49,0,
2,22500,Note_off_c,9,50,0,
2,22500,Note_off_c,9,51,0,
2,22500,Note_off_c,9,56,0,
2,22500,Note_off_c,9,57,0,
2,22500,Note_off_c,9,59,0,
2,22500,Note_off_c,9,60,0,
2,22500,Note_off_c,9,61,0,
2,22500,Note_off_c,9,63,0,
2,22500,Note_off_c,9,68,0,
2,22500,Note_off_c,9,69,0,
2,22500,Note_off_c,9,70,0,
2,22500,Note_off_c,9,76,0,
2,22500,Note_off_c,9,80,0,
2,22500,Note_off_c,9,81,0,
2,22500,Note_off_c,9,82,0,
2,22500,Note_off_c,9,87,0,
2,22500,Note_off_c,9,88,0,
2,22500,Note_off_c,9,89,0,
2,22500,Note_off_c,9,91,0,
2,22500,Note_off_c,9,93,0,
2,22530,Note_off_c,9,35,0,
2,22530,Note_off_c,9,36,0,
2,22530,Note_off_c,9,37,0,
2,22530,Note_off_c,9,38,0,
2,22530,Note_off_c,9,39,0,
2,22530,Note_off_c,9,40,0,
2,22530,Note_off_c,9,41,0,
2,22530,Note_off_c,9,42,0,
2,22530,Note_off_c,9,43,0,
2,22530,Note_off_c,9,44,0,
2,22530,Note_off_c,9,45,0,
2,22530,Note_off_c,9,46,0,
2,22530,Note_off_c,9,47,0,
2,22530,Note_off_c,9,48,0,
2,22530,Note_off_c,9,49,0,
2,22530,Note_off_c,9,50,0,
2,22530,Note_off_c,9,51,0,
2,22530,Note_off_c,9,56,0,
2,22530,Note_off_c,9,57,0,
2,22530,Note_off_c,9,59,0,
2,22530,Note_off_c,9,60,0,
2,22530,Note_off_c,9,61,0,
2,22530,Note_off_c,9,63,0,
2,22530,Note_off_c,9,68,0,
2,22530,Note_off_c,9,69,0,
2,22530,Note_off_c,9,70,0,
2,22530,Note_off_c,9,76,0,
2,22530,Note_off_c,9,80,0,
2,22530,Note_off_c,9,81,0,
2,22530,Note_off_c,9,82,0,
2,22530,Note_off_c,9,87,0,
2,22530,Note_off_c,9,88,0,
2,22530,Note_off_c,9,89,0,
2,22530,Note_off_c,9,91,0,
2,22530,Note_off_c,9,93,0,
2,22560,Note_off_c,9,35,0,
2,22560,Note_off_c,9,36,0,
2,22560,Note_off_c,9,37,0,
2,22560,Note_off_c,9,38,0,
2,22560,Note_off_c,9,39,0,
2,22560,Note_off_c,9,40,0,
2,22560,Note_off_c,9,41,0,
2,22560,Note_off_c,9,42,0,
2,22560,Note_off_c,9,43,0,
2,22560,Note_off_c,9,44,0,
2,22560,Note_off_c,9,45,0,
2,22560,Note_off_c,9,46,0,
2,22560,Note_off_c,9,47,0,
2,22560,Note_off_c,9,48,0,
2,22560,Note_off_c,9,49,0,
2,22560,Note_off_c,9,50,0,
2,22560,Note_off_c,9,51,0,
2,22560,Note_off_c,9,56,0,
2,22560,Note_off_c,9,57,0,
2,22560,Note_off_c,9,59,0,
2,22560,Note_off_c,9,60,0,
2,22560,Note_off_c,9,61,0,
2,22560,Note_off_c,9,63,0,
2,22560,Note_off_c,9,68,0,
2,22560,Note_off_c,9,69,0,
2,22560,Note_off_c,9,70,0,
2,22560,Note_off_c,9,76,0,
2,22560,Note_off_c,9,80,0,
2,22560,Note_off_c,9,81,0,
2,22560,Note_off_c,9,82,0,
2,22560,Note_off_c,9,87,0,
2,22560,Note_off_c,9,88,0,
2,22560,Note_off_c,9,89,0,
2,22560,Note_off_c,9,91,0,
2,22560,Note_off_c,9,93,0,
2,22590,Note_off_c,9,35,0,
2,22590,Note_off_c,9,36,0,
2,22590,Note_off_c,9,37,0,
2,22590,Note_off_c,9,38,0,
2,22590,Note_off_c,9,39,0,
2,22590,Note_off_c,9,40,0,
2,22590,Note_off_c,9,41,0,
2,22590,Note_off_c,9,42,0,
2,22590,Note_off_c,9,43,0,
2,22590,Note_off_c,9,44,0,
2,22590,Note_off_c,9,45,0,
2,22590,Note_off_c,9,46,0,
2,22590,Note_off_c,9,47,0,
2,22590,Note_off_c,9,48,0,
2,22590,Note_off_c,9,49,0,
2,22590,Note_off_c,9,50,0,
2,22590,Note_off_c,9,51,0,
2,22590,Note_off_c,9,56,0,
2,22590,Note_off_c,9,57,0,
2,22590,Note_off_c,9,59,0,
2,22590,Note_off_c,9,60,0,
2,22590,Note_off_c,9,61,0,
2,22590,Note_off_c,9,63,0,
2,22590,Note_off_c,9,68,0,
2,22590,Note_off_c,9,69,0,
2,22590,Note_off_c,9,70,0,
2,22590,Note_off_c,9,76,0,
2,22590,Note_off_c,9,80,0,
2,22590,Note_off_c,9,81,0,
2,22590,Note_off_c,9,82,0,
2,22590,Note_off_c,9,87,0,
2,22590,Note_off_c,9,88,0,
2,22590,Note_off_c,9,89,0,
2,22590,Note_off_c,9,91,0,
2,22590,Note_off_c,9,93,0,
2,22620,Note_off_c,9,35,0,
2,22620,Note_off_c,9,36,0,
2,22620,Note_off_c,9,37,0,
2,22620,Note_off_c,9,38,0,
2,22620,Note_off_c,9,39,0,
2,22620,Note_off_c,9,40,0,
2,22620,Note_off_c,9,41,0,
2,22620,Note_off_c,9,42,0,
2,22620,Note_off_c,9,43,0,
2,22620,Note_off_c,9,44,0,
2,22620,Note_off_c,9,45,0,
2,22620,Note_off_c,9,46,0,
2,22620,Note_off_c,9,47,0,
2,22620,Note_off_c,9,48,0,
2,22620,Note_off_c,9,49,0,
2,22620,Note_off_c,9,50,0,
2,22620,Note_off_c,9,51,0,
2,22620,Note_off_c,9,56,0,
2,22620,Note_off_c,9,57,0,
2,22620,Note_off_c,9,59,0,
2,22620,Note_off_c,9,60,0,
2,22620,Note_off_c,9,61,0,
2,22620,Note_off_c,9,63,0,
2,22620,Note_off_c,9,68,0,
2,22620,Note_off_c,9,69,0,
2,22620,Note_off_c,9,70,0,
2,22620,Note_off_c,9,76,0,
2,22620,Note_off_c,9,80,0,
2,22620,Note_off_c,9,81,0,
2,22620,Note_off_c,9,82,0,
2,22620,Note_off_c,9,87,0,
2,22620,Note_off_c,9,88,0,
2,22620,Note_off_c,9,89,0,
2,22620,Note_off_c,9,91,0,
2,22620,Note_off_c,9,93,0,
2,22650,Note_off_c,9,35,0,
2,22650,Note_off_c,9,36,0,
2,22650,Note_off_c,9,37,0,
2,22650,Note_off_c,9,38,0,
2,22650,Note_off_c,9,39,0,
2,22650,Note_off_c,9,40,0,
2,22650,Note_off_c,9,41,0,
2,22650,Note_off_c,9,42,0,
2,22650,Note_off_c,9,43,0,
2,22650,Note_off_c,9,44,0,
2,22650,Note_off_c,9,45,0,
2,22650,Note_off_c,9,46,0,
2,22650,Note_off_c,9,47,0,
2,22650,Note_off_c,9,48,0,
2,22650,Note_off_c,9,49,0,
2,22650,Note_off_c,9,50,0,
2,22650,Note_off_c,9,51,0,
2,22650,Note_off_c,9,56,0,
2,22650,Note_off_c,9,57,0,
2,22650,Note_off_c,9,59,0,
2,22650,Note_off_c,9,60,0,
2,22650,Note_off_c,9,61,0,
2,22650,Note_off_c,9,63,0,
2,22650,Note_off_c,9,68,0,
2,22650,Note_off_c,9,69,0,
2,22650,Note_off_c,9,70,0,
2,22650,Note_off_c,9,76,0,
2,22650,Note_off_c,9,80,0,
2,22650,Note_off_c,9,81,0,
2,22650,Note_off_c,9,82,0,
2,22650,Note_off_c,9,87,0,
2,22650,Note_off_c,9,88,0,
2,22650,Note_off_c,9,89,0,
2,22650,Note_off_c,9,91,0,
2,22650,Note_off_c,9,93,0,
2,22680,Note_off_c,9,35,0,
2,22680,Note_off_c,9,36,0,
2,22680,Note_off_c,9,37,0,
2,22680,Note_off_c,9,38,0,
2,22680,Note_off_c,9,39,0,
2,22680,Note_off_c,9,40,0,
2,22680,Note_off_c,9,41,0,
2,22680,Note_off_c,9,42,0,
2,22680,Note_off_c,9,43,0,
2,22680,Note_off_c,9,44,0,
2,22680,Note_off_c,9,45,0,
2,22680,Note_off_c,9,46,0,
2,22680,Note_off_c,9,47,0,
2,22680,Note_off_c,9,48,0,
2,22680,Note_off_c,9,49,0,
2,22680,Note_off_c,9,50,0,
2,22680,Note_off_c,9,51,0,
2,22680,Note_off_c,9,56,0,
2,22680,Note_off_c,9,57,0,
2,22680,Note_off_c,9,59,0,
2,22680,Note_off_c,9,60,0,
2,22680,Note_off_c,9,61,0,
2,22680,Note_off_c,9,63,0,
2,22680,Note_off_c,9,68,0,
2,22680,Note_off_c,9,69,0,
2,22680,Note_off_c,9,70,0,
2,22680,Note_off_c,9,76,0,
2,22680,Note_off_c,9,80,0,
2,22680,Note_off_c,9,81,0,
2,22680,Note_off_c,9,82,0,
2,22680,Note_off_c,9,87,0,
2,22680,Note_off_c,9,88,0,
2,22680,Note_off_c,9,89,0,
2,22680,Note_off_c,9,91,0,
2,22680,Note_off_c,9,93,0,
2,22710,Note_off_c,9,35,0,
2,22710,Note_off_c,9,36,0,
2,22710,Note_off_c,9,37,0,
2,22710,Note_off_c,9,38,0,
2,22710,Note_off_c,9,39,0,
2,22710,Note_off_c,9,40,0,
2,22710,Note_off_c,9,41,0,
2,22710,Note_off_c,9,42,0,
2,22710,Note_off_c,9,43,0,
2,22710,Note_off_c,9,44,0,
2,22710,Note_off_c,9,45,0,
2,22710,Note_off_c,9,46,0,
2,22710,Note_off_c,9,47,0,
2,22710,Note_off_c,9,48,0,
2,22710,Note_off_c,9,49,0,
2,22710,Note_off_c,9,50,0,
2,22710,Note_off_c,9,51,0,
2,22710,Note_off_c,9,56,0,
2,22710,Note_off_c,9,57,0,
2,22710,Note_off_c,9,59,0,
2,22710,Note_off_c,9,60,0,
2,22710,Note_off_c,9,61,0,
2,22710,Note_off_c,9,63,0,
2,22710,Note_off_c,9,68,0,
2,22710,Note_off_c,9,69,0,
2,22710,Note_off_c,9,70,0,
2,22710,Note_off_c,9,76,0,
2,22710,Note_off_c,9,80,0,
2,22710,Note_off_c,9,81,0,
2,22710,Note_off_c,9,82,0,
2,22710,Note_off_c,9,87,0,
2,22710,Note_off_c,9,88,0,
2,22710,Note_off_c,9,89,0,
2,22710,Note_off_c,9,91,0,
2,22710,Note_off_c,9,93,0,
2,22740,Note_off_c,9,35,0,
2,22740,Note_off_c,9,36,0,
2,22740,Note_off_c,9,37,0,
2,22740,Note_off_c,9,38,0,
2,22740,Note_off_c,9,39,0,
2,22740,Note_off_c,9,40,0,
2,22740,Note_off_c,9,41,0,
2,22740,Note_off_c,9,42,0,
2,22740,Note_off_c,9,43,0,
2,22740,Note_off_c,9,44,0,
2,22740,Note_off_c,9,45,0,
2,22740,Note_off_c,9,46,0,
2,22740,Note_off_c,9,47,0,
2,22740,Note_off_c,9,48,0,
2,22740,Note_off_c,9,49,0,
2,22740,Note_off_c,9,50,0,
2,22740,Note_off_c,9,51,0,
2,22740,Note_off_c,9,56,0,
2,22740,Note_off_c,9,57,0,
2,22740,Note_off_c,9,59,0,
2,22740,Note_off_c,9,60,0,
2,22740,Note_off_c,9,61,0,
2,22740,Note_off_c,9,63,0,
2,22740,Note_off_c,9,68,0,
2,22740,Note_off_c,9,69,0,
2,22740,Note_off_c,9,70,0,
2,22740,Note_off_c,9,76,0,
2,22740,Note_off_c,9,80,0,
2,22740,Note_off_c,9,81,0,
2,22740,Note_off_c,9,82,0,
2,22740,Note_off_c,9,87,0,
2,22740,Note_off_c,9,88,0,
2,22740,Note_off_c,9,89,0,
2,22740,Note_off_c,9,91,0,
2,22740,Note_off_c,9,93,0,
2,22770,Note_off_c,9,35,0,
2,22770,Note_off_c,9,36,0,
2,22770,Note_off_c,9,37,0,
2,22770,Note_off_c,9,38,0,
2,22770,Note_off_c,9,39,0,
2,22770,Note_off_c,9,40,0,
2,22770,Note_off_c,9,41,0,
2,22770,Note_off_c,9,42,0,
2,22770,Note_off_c,9,43,0,
2,22770,Note_off_c,9,44,0,
2,22770,Note_off_c,9,45,0,
2,22770,Note_off_c,9,46,0,
2,22770,Note_off_c,9,47,0,
2,22770,Note_off_c,9,48,0,
2,22770,Note_off_c,9,49,0,
2,22770,Note_off_c,9,50,0,
2,22770,Note_off_c,9,51,0,
2,22770,Note_off_c,9,56,0,
2,22770,Note_off_c,9,57,0,
2,22770,Note_off_c,9,59,0,
2,22770,Note_off_c,9,60,0,
2,22770,Note_off_c,9,61,0,
2,22770,Note_off_c,9,63,0,
2,22770,Note_off_c,9,68,0,
2,22770,Note_off_c,9,69,0,
2,22770,Note_off_c,9,70,0,
2,22770,Note_off_c,9,76,0,
2,22770,Note_off_c,9,80,0,
2,22770,Note_off_c,9,81,0,
2,22770,Note_off_c,9,82,0,
2,22770,Note_off_c,9,87,0,
2,22770,Note_off_c,9,88,0,
2,22770,Note_off_c,9,89,0,
2,22770,Note_off_c,9,91,0,
2,22770,Note_off_c,9,93,0,
2,22800,Note_off_c,9,35,0,
2,22800,Note_off_c,9,36,0,
2,22800,Note_off_c,9,37,0,
2,22800,Note_off_c,9,38,0,
2,22800,Note_off_c,9,39,0,
2,22800,Note_off_c,9,40,0,
2,22800,Note_off_c,9,41,0,
2,22800,Note_off_c,9,42,0,
2,22800,Note_off_c,9,43,0,
2,22800,Note_off_c,9,44,0,
2,22800,Note_off_c,9,45,0,
2,22800,Note_off_c,9,46,0,
2,22800,Note_off_c,9,47,0,
2,22800,Note_off_c,9,48,0,
2,22800,Note_off_c,9,49,0,
2,22800,Note_off_c,9,50,0,
2,22800,Note_off_c,9,51,0,
2,22800,Note_off_c,9,56,0,
2,22800,Note_off_c,9,57,0,
2,22800,Note_off_c,9,59,0,
2,22800,Note_off_c,9,60,0,
2,22800,Note_off_c,9,61,0,
2,22800,Note_off_c,9,63,0,
2,22800,Note_off_c,9,68,0,
2,22800,Note_off_c,9,69,0,
2,22800,Note_off_c,9,70,0,
2,22800,Note_off_c,9,76,0,
2,22800,Note_off_c,9,80,0,
2,22800,Note_off_c,9,81,0,
2,22800,Note_off_c,9,82,0,
2,22800,Note_off_c,9,87,0,
2,22800,Note_off_c,9,88,0,
2,22800,Note_off_c,9,89,0,
2,22800,Note_off_c,9,91,0,
2,22800,Note_off_c,9,93,0,
2,22830,Note_off_c,9,35,0,
2,22830,Note_off_c,9,36,0,
2,22830,Note_off_c,9,37,0,
2,22830,Note_off_c,9,38,0,
2,22830,Note_off_c,9,39,0,
2,22830,Note_off_c,9,40,0,
2,22830,Note_off_c,9,41,0,
2,22830,Note_off_c,9,42,0,
2,22830,Note_off_c,9,43,0,
2,22830,Note_off_c,9,44,0,
2,22830,Note_off_c,9,45,0,
2,22830,Note_off_c,9,46,0,
2,22830,Note_off_c,9,47,0,
2,22830,Note_off_c,9,48,0,
2,22830,Note_off_c,9,49,0,
2,22830,Note_off_c,9,50,0,
2,22830,Note_off_c,9,51,0,
2,22830,Note_off_c,9,56,0,
2,22830,Note_off_c,9,57,0,
2,22830,Note_off_c,9,59,0,
2,22830,Note_off_c,9,60,0,
2,22830,Note_off_c,9,61,0,
2,22830,Note_off_c,9,63,0,
2,22830,Note_off_c,9,68,0,
2,22830,Note_off_c,9,69,0,
2,22830,Note_off_c,9,70,0,
2,22830,Note_off_c,9,76,0,
2,22830,Note_off_c,9,80,0,
2,22830,Note_off_c,9,81,0,
2,22830,Note_off_c,9,82,0,
2,22830,Note_off_c,9,87,0,
2,22830,Note_off_c,9,88,0,
2,22830,Note_off_c,9,89,0,
2,22830,Note_off_c,9,91,0,
2,22830,Note_off_c,9,93,0,
2,22860,Note_off_c,9,35,0,
2,22860,Note_off_c,9,36,0,
2,22860,Note_off_c,9,37,0,
2,22860,Note_off_c,9,38,0,
2,22860,Note_off_c,9,39,0,
2,22860,Note_off_c,9,40,0,
2,22860,Note_off_c,9,41,0,
2,22860,Note_off_c,9,42,0,
2,22860,Note_off_c,9,43,0,
2,22860,Note_off_c,9,44,0,
2,22860,Note_off_c,9,45,0,
2,22860,Note_off_c,9,46,0,
2,22860,Note_off_c,9,47,0,
2,22860,Note_off_c,9,48,0,
2,22860,Note_off_c,9,49,0,
2,22860,Note_off_c,9,50,0,
2,22860,Note_off_c,9,51,0,
2,22860,Note_off_c,9,56,0,
2,22860,Note_off_c,9,57,0,
2,22860,Note_off_c,9,59,0,
2,22860,Note_off_c,9,60,0,
2,22860,Note_off_c,9,61,0,
2,22860,Note_off_c,9,63,0,
2,22860,Note_off_c,9,68,0,
2,22860,Note_off_c,9,69,0,
2,22860,Note_off_c,9,70,0,
2,22860,Note_off_c,9,76,0,
2,22860,Note_off_c,9,80,0,
2,22860,Note_off_c,9,81,0,
2,22860,Note_off_c,9,82,0,
2,22860,Note_off_c,9,87,0,
2,22860,Note_off_c,9,88,0,
2,22860,Note_off_c,9,89,0,
2,22860,Note_off_c,9,91,0,
2,22860,Note_off_c,9,93,0,
2,22890,Note_off_c,9,35,0,
2,22890,Note_off_c,9,36,0,
2,22890,Note_off_c,9,37,0,
2,22890,Note_off_c,9,38,0,
2,22890,Note_off_c,9,39,0,
2,22890,Note_off_c,9,40,0,
2,22890,Note_off_c,9,41,0,
2,22890,Note_off_c,9,42,0,
2,22890,Note_off_c,9,43,0,
2,22890,Note_off_c,9,44,0,
2,22890,Note_off_c,9,45,0,
2,22890,Note_off_c,9,46,0,
2,22890,Note_off_c,9,47,0,
2,22890,Note_off_c,9,48,0,
2,22890,Note_off_c,9,49,0,
2,22890,Note_off_c,9,50,0,
2,22890,Note_off_c,9,51,0,
2,22890,Note_off_c,9,56,0,
2,22890,Note_off_c,9,57,0,
2,22890,Note_off_c,9,59,0,
2,22890,Note_off_c,9,60,0,
2,22890,Note_off_c,9,61,0,
2,22890,Note_off_c,9,63,0,
2,22890,Note_off_c,9,68,0,
2,22890,Note_off_c,9,69,0,
2,22890,Note_off_c,9,70,0,
2,22890,Note_off_c,9,76,0,
2,22890,Note_off_c,9,80,0,
2,22890,Note_off_c,9,81,0,
2,22890,Note_off_c,9,82,0,
2,22890,Note_off_c,9,87,0,
2,22890,Note_off_c,9,88,0,
2,22890,Note_off_c,9,89,0,
2,22890,Note_off_c,9,91,0,
2,22890,Note_off_c,9,93,0,
2,22920,Note_off_c,9,35,0,
2,22920,Note_off_c,9,36,0,
2,22920,Note_off_c,9,37,0,
2,22920,Note_off_c,9,38,0,
2,22920,Note_off_c,9,39,0,
2,22920,Note_off_c,9,40,0,
2,22920,Note_off_c,9,41,0,
2,22920,Note_off_c,9,42,0,
2,22920,Note_off_c,9,43,0,
2,22920,Note_off_c,9,44,0,
2,22920,Note_off_c,9,45,0,
2,22920,Note_off_c,9,46,0,
2,22920,Note_off_c,9,47,0,
2,22920,Note_off_c,9,48,0,
2,22920,Note_off_c,9,49,0,
2,22920,Note_off_c,9,50,0,
2,22920,Note_off_c,9,51,0,
2,22920,Note_off_c,9,56,0,
2,22920,Note_off_c,9,57,0,
2,22920,Note_off_c,9,59,0,
2,22920,Note_off_c,9,60,0,
2,22920,Note_off_c,9,61,0,
2,22920,Note_off_c,9,63,0,
2,22920,Note_off_c,9,68,0,
2,22920,Note_off_c,9,69,0,
2,22920,Note_off_c,9,70,0,
2,22920,Note_off_c,9,76,0,
2,22920,Note_off_c,9,80,0,
2,22920,Note_off_c,9,81,0,
2,22920,Note_off_c,9,82,0,
2,22920,Note_off_c,9,87,0,
2,22920,Note_off_c,9,88,0,
2,22920,Note_off_c,9,89,0,
2,22920,Note_off_c,9,91,0,
2,22920,Note_off_c,9,93,0,
2,22950,Note_off_c,9,35,0,
2,22950,Note_off_c,9,36,0,
2,22950,Note_off_c,9,37,0,
2,22950,Note_off_c,9,38,0,
2,22950,Note_off_c,9,39,0,
2,22950,Note_off_c,9,40,0,
2,22950,Note_off_c,9,41,0,
2,22950,Note_off_c,9,42,0,
2,22950,Note_off_c,9,43,0,
2,22950,Note_off_c,9,44,0,
2,22950,Note_off_c,9,45,0,
2,22950,Note_off_c,9,46,0,
2,22950,Note_off_c,9,47,0,
2,22950,Note_off_c,9,48,0,
2,22950,Note_off_c,9,49,0,
2,22950,Note_off_c,9,50,0,
2,22950,Note_off_c,9,51,0,
2,22950,Note_off_c,9,56,0,
2,22950,Note_off_c,9,57,0,
2,22950,Note_off_c,9,59,0,
2,22950,Note_off_c,9,60,0,
2,22950,Note_off_c,9,61,0,
2,22950,Note_off_c,9,63,0,
2,22950,Note_off_c,9,68,0,
2,22950,Note_off_c,9,69,0,
2,22950,Note_off_c,9,70,0,
2,22950,Note_off_c,9,76,0,
2,22950,Note_off_c,9,80,0,
2,22950,Note_off_c,9,81,0,
2,22950,Note_off_c,9,82,0,
2,22950,Note_off_c,9,87,0,
2,22950,Note_off_c,9,88,0,
2,22950,Note_off_c,9,89,0,
2,22950,Note_off_c,9,91,0,
2,22950,Note_off_c,9,93,0,
2,22980,Note_off_c,9,35,0,
2,22980,Note_off_c,9,36,0,
2,22980,Note_off_c,9,37,0,
2,22980,Note_off_c,9,38,0,
2,22980,Note_off_c,9,39,0,
2,22980,Note_off_c,9,40,0,
2,22980,Note_off_c,9,41,0,
2,22980,Note_off_c,9,42,0,
2,22980,Note_off_c,9,43,0,
2,22980,Note_off_c,9,44,0,
2,22980,Note_off_c,9,45,0,
2,22980,Note_off_c,9,46,0,
2,22980,Note_off_c,9,47,0,
2,22980,Note_off_c,9,48,0,
2,22980,Note_off_c,9,49,0,
2,22980,Note_off_c,9,50,0,
2,22980,Note_off_c,9,51,0,
2,22980,Note_off_c,9,56,0,
2,22980,Note_off_c,9,57,0,
2,22980,Note_off_c,9,59,0,
2,22980,Note_off_c,9,60,0,
2,22980,Note_off_c,9,61,0,
2,22980,Note_off_c,9,63,0,
2,22980,Note_off_c,9,68,0,
2,22980,Note_off_c,9,69,0,
2,22980,Note_off_c,9,70,0,
2,22980,Note_off_c,9,76,0,
2,22980,Note_off_c,9,80,0,
2,22980,Note_off_c,9,81,0,
2,22980,Note_off_c,9,82,0,
2,22980,Note_off_c,9,87,0,
2,22980,Note_off_c,9,88,0,
2,22980,Note_off_c,9,89,0,
2,22980,Note_off_c,9,91,0,
2,22980,Note_off_c,9,93,0,
2,23010,Note_off_c,9,35,0,
2,23010,Note_off_c,9,36,0,
2,23010,Note_off_c,9,37,0,
2,23010,Note_off_c,9,38,0,
2,23010,Note_off_c,9,39,0,
2,23010,Note_off_c,9,40,0,
2,23010,Note_off_c,9,41,0,
2,23010,Note_off_c,9,42,0,
2,23010,Note_off_c,9,43,0,
2,23010,Note_off_c,9,44,0,
2,23010,Note_off_c,9,45,0,
2,23010,Note_off_c,9,46,0,
2,23010,Note_off_c,9,47,0,
2,23010,Note_off_c,9,48,0,
2,23010,Note_off_c,9,49,0,
2,23010,Note_off_c,9,50,0,
2,23010,Note_off_c,9,51,0,
2,23010,Note_off_c,9,56,0,
2,23010,Note_off_c,9,57,0,
2,23010,Note_off_c,9,59,0,
2,23010,Note_off_c,9,60,0,
2,23010,Note_off_c,9,61,0,
2,23010,Note_off_c,9,63,0,
2,23010,Note_off_c,9,68,0,
2,23010,Note_off_c,9,69,0,
2,23010,Note_off_c,9,70,0,
2,23010,Note_off_c,9,76,0,
2,23010,Note_off_c,9,80,0,
2,23010,Note_off_c,9,81,0,
2,23010,Note_off_c,9,82,0,
2,23010,Note_off_c,9,87,0,
2,23010,Note_off_c,9,88,0,
2,23010,Note_off_c,9,89,0,
2,23010,Note_off_c,9,91,0,
2,23010,Note_off_c,9,93,0,
2,23040,Note_off_c,9,35,0,
2,23040,Note_off_c,9,36,0,
2,23040,Note_off_c,9,37,0,
2,23040,Note_off_c,9,38,0,
2,23040,Note_off_c,9,39,0,
2,23040,Note_off_c,9,40,0,
2,23040,Note_off_c,9,41,0,
2,23040,Note_off_c,9,42,0,
2,23040,Note_off_c,9,43,0,
2,23040,Note_off_c,9,44,0,
2,23040,Note_off_c,9,45,0,
2,23040,Note_off_c,9,46,0,
2,23040,Note_off_c,9,47,0,
2,23040,Note_off_c,9,48,0,
2,23040,Note_off_c,9,49,0,
2,23040,Note_off_c,9,50,0,
2,23040,Note_off_c,9,51,0,
2,23040,Note_off_c,9,56,0,
2,23040,Note_off_c,9,57,0,
2,23040,Note_off_c,9,59,0,
2,23040,Note_off_c,9,60,0,
2,23040,Note_off_c,9,61,0,
2,23040,Note_off_c,9,63,0,
2,23040,Note_off_c,9,68,0,
2,23040,Note_off_c,9,69,0,
2,23040,Note_off_c,9,70,0,
2,23040,Note_off_c,9,76,0,
2,23040,Note_off_c,9,80,0,
2,23040,Note_off_c,9,81,0,
2,23040,Note_off_c,9,82,0,
2,23040,Note_off_c,9,87,0,
2,23040,Note_off_c,9,88,0,
2,23040,Note_off_c,9,89,0,
2,23040,Note_off_c,9,91,0,
2,23040,Note_off_c,9,93,0,
2,23070,Note_off_c,9,35,0,
2,23070,Note_off_c,9,36,0,
2,23070,Note_off_c,9,37,0,
2,23070,Note_off_c,9,38,0,
2,23070,Note_off_c,9,39,0,
2,23070,Note_off_c,9,40,0,
2,23070,Note_off_c,9,41,0,
2,23070,Note_off_c,9,42,0,
2,23070,Note_off_c,9,43,0,
2,23070,Note_off_c,9,44,0,
2,23070,Note_off_c,9,45,0,
2,23070,Note_off_c,9,46,0,
2,23070,Note_off_c,9,47,0,
2,23070,Note_off_c,9,48,0,
2,23070,Note_off_c,9,49,0,
2,23070,Note_off_c,9,50,0,
2,23070,Note_off_c,9,51,0,
2,23070,Note_off_c,9,56,0,
2,23070,Note_off_c,9,57,0,
2,23070,Note_off_c,9,59,0,
2,23070,Note_off_c,9,60,0,
2,23070,Note_off_c,9,61,0,
2,23070,Note_off_c,9,63,0,
2,23070,Note_off_c,9,68,0,
2,23070,Note_off_c,9,69,0,
2,23070,Note_off_c,9,70,0,
2,23070,Note_off_c,9,76,0,
2,23070,Note_off_c,9,80,0,
2,23070,Note_off_c,9,81,0,
2,23070,Note_off_c,9,82,0,
2,23070,Note_off_c,9,87,0,
2,23070,Note_off_c,9,88,0,
2,23070,Note_off_c,9,89,0,
2,23070,Note_off_c,9,91,0,
2,23070,Note_off_c,9,93,0,
2,23100,Note_off_c,9,35,0,
2,23100,Note_off_c,9,36,0,
2,23100,Note_off_c,9,37,0,
2,23100,Note_off_c,9,38,0,
2,23100,Note_off_c,9,39,0,
2,23100,Note_off_c,9,40,0,
2,23100,Note_off_c,9,41,0,
2,23100,Note_off_c,9,42,0,
2,23100,Note_off_c,9,43,0,
2,23100,Note_off_c,9,44,0,
2,23100,Note_off_c,9,45,0,
2,23100,Note_off_c,9,46,0,
2,23100,Note_off_c,9,47,0,
2,23100,Note_off_c,9,48,0,
2,23100,Note_off_c,9,49,0,
2,23100,Note_off_c,9,50,0,
2,23100,Note_off_c,9,51,0,
2,23100,Note_off_c,9,56,0,
2,23100,Note_off_c,9,57,0,
2,23100,Note_off_c,9,59,0,
2,23100,Note_off_c,9,60,0,
2,23100,Note_off_c,9,61,0,
2,23100,Note_off_c,9,63,0,
2,23100,Note_off_c,9,68,0,
2,23100,Note_off_c,9,69,0,
2,23100,Note_off_c,9,70,0,
2,23100,Note_off_c,9,76,0,
2,23100,Note_off_c,9,80,0,
2,23100,Note_off_c,9,81,0,
2,23100,Note_off_c,9,82,0,
2,23100,Note_off_c,9,87,0,
2,23100,Note_off_c,9,88,0,
2,23100,Note_off_c,9,89,0,
2,23100,Note_off_c,9,91,0,
2,23100,Note_off_c,9,93,0,
2,23130,Note_off_c,9,35,0,
2,23130,Note_off_c,9,36,0,
2,23130,Note_off_c,9,37,0,
2,23130,Note_off_c,9,38,0,
2,23130,Note_off_c,9,39,0,
2,23130,Note_off_c,9,40,0,
2,23130,Note_off_c,9,41,0,
2,23130,Note_off_c,9,42,0,
2,23130,Note_off_c,9,43,0,
2,23130,Note_off_c,9,44,0,
2,23130,Note_off_c,9,45,0,
2,23130,Note_off_c,9,46,0,
2,23130,Note_off_c,9,47,0,
2,23130,Note_off_c,9,48,0,
2,23130,Note_off_c,9,49,0,
2,23130,Note_off_c,9,50,0,
2,23130,Note_off_c,9,51,0,
2,23130,Note_off_c,9,56,0,
2,23130,Note_off_c,9,57,0,
2,23130,Note_off_c,9,59,0,
2,23130,Note_off_c,9,60,0,
2,23130,Note_off_c,9,61,0,
2,23130,Note_off_c,9,63,0,
2,23130,Note_off_c,9,68,0,
2,23130,Note_off_c,9,69,0,
2,23130,Note_off_c,9,70,0,
2,23130,Note_off_c,9,76,0,
2,23130,Note_off_c,9,80,0,
2,23130,Note_off_c,9,81,0,
2,23130,Note_off_c,9,82,0,
2,23130,Note_off_c,9,87,0,
2,23130,Note_off_c,9,88,0,
2,23130,Note_off_c,9,89,0,
2,23130,Note_off_c,9,91,0,
2,23130,Note_off_c,9,93,0,
2,23160,Note_off_c,9,35,0,
2,23160,Note_off_c,9,36,0,
2,23160,Note_off_c,9,37,0,
2,23160,Note_off_c,9,38,0,
2,23160,Note_off_c,9,39,0,
2,23160,Note_off_c,9,40,0,
2,23160,Note_off_c,9,41,0,
2,23160,Note_off_c,9,42,0,
2,23160,Note_off_c,9,43,0,
2,23160,Note_off_c,9,44,0,
2,23160,Note_off_c,9,45,0,
2,23160,Note_off_c,9,46,0,
2,23160,Note_off_c,9,47,0,
2,23160,Note_off_c,9,48,0,
2,23160,Note_off_c,9,49,0,
2,23160,Note_off_c,9,50,0,
2,23160,Note_off_c,9,51,0,
2,23160,Note_off_c,9,56,0,
2,23160,Note_off_c,9,57,0,
2,23160,Note_off_c,9,59,0,
2,23160,Note_off_c,9,60,0,
2,23160,Note_off_c,9,61,0,
2,23160,Note_off_c,9,63,0,
2,23160,Note_off_c,9,68,0,
2,23160,Note_off_c,9,69,0,
2,23160,Note_off_c,9,70,0,
2,23160,Note_off_c,9,76,0,
2,23160,Note_off_c,9,80,0,
2,23160,Note_off_c,9,81,0,
2,23160,Note_off_c,9,82,0,
2,23160,Note_off_c,9,87,0,
2,23160,Note_off_c,9,88,0,
2,23160,Note_off_c,9,89,0,
2,23160,Note_off_c,9,91,0,
2,23160,Note_off_c,9,93,0,
2,23190,Note_off_c,9,35,0,
2,23190,Note_off_c,9,36,0,
2,23190,Note_off_c,9,37,0,
2,23190,Note_off_c,9,38,0,
2,23190,Note_off_c,9,39,0,
2,23190,Note_off_c,9,40,0,
2,23190,Note_off_c,9,41,0,
2,23190,Note_off_c,9,42,0,
2,23190,Note_off_c,9,43,0,
2,23190,Note_off_c,9,44,0,
2,23190,Note_off_c,9,45,0,
2,23190,Note_off_c,9,46,0,
2,23190,Note_off_c,9,47,0,
2,23190,Note_off_c,9,48,0,
2,23190,Note_off_c,9,49,0,
2,23190,Note_off_c,9,50,0,
2,23190,Note_off_c,9,51,0,
2,23190,Note_off_c,9,56,0,
2,23190,Note_off_c,9,57,0,
2,23190,Note_off_c,9,59,0,
2,23190,Note_off_c,9,60,0,
2,23190,Note_off_c,9,61,0,
2,23190,Note_off_c,9,63,0,
2,23190,Note_off_c,9,68,0,
2,23190,Note_off_c,9,69,0,
2,23190,Note_off_c,9,70,0,
2,23190,Note_off_c,9,76,0,
2,23190,Note_off_c,9,80,0,
2,23190,Note_off_c,9,81,0,
2,23190,Note_off_c,9,82,0,
2,23190,Note_off_c,9,87,0,
2,23190,Note_off_c,9,88,0,
2,23190,Note_off_c,9,89,0,
2,23190,Note_off_c,9,91,0,
2,23190,Note_off_c,9,93,0,
2,23220,Note_off_c,9,35,0,
2,23220,Note_off_c,9,36,0,
2,23220,Note_off_c,9,37,0,
2,23220,Note_off_c,9,38,0,
2,23220,Note_off_c,9,39,0,
2,23220,Note_off_c,9,40,0,
2,23220,Note_off_c,9,41,0,
2,23220,Note_off_c,9,42,0,
2,23220,Note_off_c,9,43,0,
2,23220,Note_off_c,9,44,0,
2,23220,Note_off_c,9,45,0,
2,23220,Note_off_c,9,46,0,
2,23220,Note_off_c,9,47,0,
2,23220,Note_off_c,9,48,0,
2,23220,Note_off_c,9,49,0,
2,23220,Note_off_c,9,50,0,
2,23220,Note_off_c,9,51,0,
2,23220,Note_off_c,9,56,0,
2,23220,Note_off_c,9,57,0,
2,23220,Note_off_c,9,59,0,
2,23220,Note_off_c,9,60,0,
2,23220,Note_off_c,9,61,0,
2,23220,Note_off_c,9,63,0,
2,23220,Note_off_c,9,68,0,
2,23220,Note_off_c,9,69,0,
2,23220,Note_off_c,9,70,0,
2,23220,Note_off_c,9,76,0,
2,23220,Note_off_c,9,80,0,
2,23220,Note_off_c,9,81,0,
2,23220,Note_off_c,9,82,0,
2,23220,Note_off_c,9,87,0,
2,23220,Note_off_c,9,88,0,
2,23220,Note_off_c,9,89,0,
2,23220,Note_off_c,9,91,0,
2,23220,Note_off_c,9,93,0,
2,23250,Note_off_c,9,35,0,
2,23250,Note_off_c,9,36,0,
2,23250,Note_off_c,9,37,0,
2,23250,Note_off_c,9,38,0,
2,23250,Note_off_c,9,39,0,
2,23250,Note_off_c,9,40,0,
2,23250,Note_off_c,9,41,0,
2,23250,Note_off_c,9,42,0,
2,23250,Note_off_c,9,43,0,
2,23250,Note_off_c,9,44,0,
2,23250,Note_off_c,9,45,0,
2,23250,Note_off_c,9,46,0,
2,23250,Note_off_c,9,47,0,
2,23250,Note_off_c,9,48,0,
2,23250,Note_off_c,9,49,0,
2,23250,Note_off_c,9,50,0,
2,23250,Note_off_c,9,51,0,
2,23250,Note_off_c,9,56,0,
2,23250,Note_off_c,9,57,0,
2,23250,Note_off_c,9,59,0,
2,23250,Note_off_c,9,60,0,
2,23250,Note_off_c,9,61,0,
2,23250,Note_off_c,9,63,0,
2,23250,Note_off_c,9,68,0,
2,23250,Note_off_c,9,69,0,
2,23250,Note_off_c,9,70,0,
2,23250,Note_off_c,9,76,0,
2,23250,Note_off_c,9,80,0,
2,23250,Note_off_c,9,81,0,
2,23250,Note_off_c,9,82,0,
2,23250,Note_off_c,9,87,0,
2,23250,Note_off_c,9,88,0,
2,23250,Note_off_c,9,89,0,
2,23250,Note_off_c,9,91,0,
2,23250,Note_off_c,9,93,0,
2,23280,Note_off_c,9,35,0,
2,23280,Note_off_c,9,36,0,
2,23280,Note_off_c,9,37,0,
2,23280,Note_off_c,9,38,0,
2,23280,Note_off_c,9,39,0,
2,23280,Note_off_c,9,40,0,
2,23280,Note_off_c,9,41,0,
2,23280,Note_off_c,9,42,0,
2,23280,Note_off_c,9,43,0,
2,23280,Note_off_c,9,44,0,
2,23280,Note_off_c,9,45,0,
2,23280,Note_off_c,9,46,0,
2,23280,Note_off_c,9,47,0,
2,23280,Note_off_c,9,48,0,
2,23280,Note_off_c,9,49,0,
2,23280,Note_off_c,9,50,0,
2,23280,Note_off_c,9,51,0,
2,23280,Note_off_c,9,56,0,
2,23280,Note_off_c,9,57,0,
2,23280,Note_off_c,9,59,0,
2,23280,Note_off_c,9,60,0,
2,23280,Note_off_c,9,61,0,
2,23280,Note_off_c,9,63,0,
2,23280,Note_off_c,9,68,0,
2,23280,Note_off_c,9,69,0,
2,23280,Note_off_c,9,70,0,
2,23280,Note_off_c,9,76,0,
2,23280,Note_off_c,9,80,0,
2,23280,Note_off_c,9,81,0,
2,23280,Note_off_c,9,82,0,
2,23280,Note_off_c,9,87,0,
2,23280,Note_off_c,9,88,0,
2,23280,Note_off_c,9,89,0,
2,23280,Note_off_c,9,91,0,
2,23280,Note_off_c,9,93,0,
2,23310,Note_off_c,9,35,0,
2,23310,Note_off_c,9,36,0,
2,23310,Note_off_c,9,37,0,
2,23310,Note_off_c,9,38,0,
2,23310,Note_off_c,9,39,0,
2,23310,Note_off_c,9,40,0,
2,23310,Note_off_c,9,41,0,
2,23310,Note_off_c,9,42,0,
2,23310,Note_off_c,9,43,0,
2,23310,Note_off_c,9,44,0,
2,23310,Note_off_c,9,45,0,
2,23310,Note_off_c,9,46,0,
2,23310,Note_off_c,9,47,0,
2,23310,Note_off_c,9,48,0,
2,23310,Note_off_c,9,49,0,
2,23310,Note_off_c,9,50,0,
2,23310,Note_off_c,9,51,0,
2,23310,Note_off_c,9,56,0,
2,23310,Note_off_c,9,57,0,
2,23310,Note_off_c,9,59,0,
2,23310,Note_off_c,9,60,0,
2,23310,Note_off_c,9,61,0,
2,23310,Note_off_c,9,63,0,
2,23310,Note_off_c,9,68,0,
2,23310,Note_off_c,9,69,0,
2,23310,Note_off_c,9,70,0,
2,23310,Note_off_c,9,76,0,
2,23310,Note_off_c,9,80,0,
2,23310,Note_off_c,9,81,0,
2,23310,Note_off_c,9,82,0,
2,23310,Note_off_c,9,87,0,
2,23310,Note_off_c,9,88,0,
2,23310,Note_off_c,9,89,0,
2,23310,Note_off_c,9,91,0,
2,23310,Note_off_c,9,93,0,
2,23340,Note_off_c,9,35,0,
2,23340,Note_off_c,9,36,0,
2,23340,Note_off_c,9,37,0,
2,23340,Note_off_c,9,38,0,
2,23340,Note_off_c,9,39,0,
2,23340,Note_off_c,9,40,0,
2,23340,Note_off_c,9,41,0,
2,23340,Note_off_c,9,42,0,
2,23340,Note_off_c,9,43,0,
2,23340,Note_off_c,9,44,0,
2,23340,Note_off_c,9,45,0,
2,23340,Note_off_c,9,46,0,
2,23340,Note_off_c,9,47,0,
2,23340,Note_off_c,9,48,0,
2,23340,Note_off_c,9,49,0,
2,23340,Note_off_c,9,50,0,
2,23340,Note_off_c,9,51,0,
2,23340,Note_off_c,9,56,0,
2,23340,Note_off_c,9,57,0,
2,23340,Note_off_c,9,59,0,
2,23340,Note_off_c,9,60,0,
2,23340,Note_off_c,9,61,0,
2,23340,Note_off_c,9,63,0,
2,23340,Note_off_c,9,68,0,
2,23340,Note_off_c,9,69,0,
2,23340,Note_off_c,9,70,0,
2,23340,Note_off_c,9,76,0,
2,23340,Note_off_c,9,80,0,
2,23340,Note_off_c,9,81,0,
2,23340,Note_off_c,9,82,0,
2,23340,Note_off_c,9,87,0,
2,23340,Note_off_c,9,88,0,
2,23340,Note_off_c,9,89,0,
2,23340,Note_off_c,9,91,0,
2,23340,Note_off_c,9,93,0,
2,23370,Note_off_c,9,35,0,
2,23370,Note_off_c,9,36,0,
2,23370,Note_off_c,9,37,0,
2,23370,Note_off_c,9,38,0,
2,23370,Note_off_c,9,39,0,
2,23370,Note_off_c,9,40,0,
2,23370,Note_off_c,9,41,0,
2,23370,Note_off_c,9,42,0,
2,23370,Note_off_c,9,43,0,
2,23370,Note_off_c,9,44,0,
2,23370,Note_off_c,9,45,0,
2,23370,Note_off_c,9,46,0,
2,23370,Note_off_c,9,47,0,
2,23370,Note_off_c,9,48,0,
2,23370,Note_off_c,9,49,0,
2,23370,Note_off_c,9,50,0,
2,23370,Note_off_c,9,51,0,
2,23370,Note_off_c,9,56,0,
2,23370,Note_off_c,9,57,0,
2,23370,Note_off_c,9,59,0,
2,23370,Note_off_c,9,60,0,
2,23370,Note_off_c,9,61,0,
2,23370,Note_off_c,9,63,0,
2,23370,Note_off_c,9,68,0,
2,23370,Note_off_c,9,69,0,
2,23370,Note_off_c,9,70,0,
2,23370,Note_off_c,9,76,0,
2,23370,Note_off_c,9,80,0,
2,23370,Note_off_c,9,81,0,
2,23370,Note_off_c,9,82,0,
2,23370,Note_off_c,9,87,0,
2,23370,Note_off_c,9,88,0,
2,23370,Note_off_c,9,89,0,
2,23370,Note_off_c,9,91,0,
2,23370,Note_off_c,9,93,0,
2,23400,Note_off_c,9,35,0,
2,23400,Note_off_c,9,36,0,
2,23400,Note_off_c,9,37,0,
2,23400,Note_off_c,9,38,0,
2,23400,Note_off_c,9,39,0,
2,23400,Note_off_c,9,40,0,
2,23400,Note_off_c,9,41,0,
2,23400,Note_off_c,9,42,0,
2,23400,Note_off_c,9,43,0,
2,23400,Note_off_c,9,44,0,
2,23400,Note_off_c,9,45,0,
2,23400,Note_off_c,9,46,0,
2,23400,Note_off_c,9,47,0,
2,23400,Note_off_c,9,48,0,
2,23400,Note_off_c,9,49,0,
2,23400,Note_off_c,9,50,0,
2,23400,Note_off_c,9,51,0,
2,23400,Note_off_c,9,56,0,
2,23400,Note_off_c,9,57,0,
2,23400,Note_off_c,9,59,0,
2,23400,Note_off_c,9,60,0,
2,23400,Note_off_c,9,61,0,
2,23400,Note_off_c,9,63,0,
2,23400,Note_off_c,9,68,0,
2,23400,Note_off_c,9,69,0,
2,23400,Note_off_c,9,70,0,
2,23400,Note_off_c,9,76,0,
2,23400,Note_off_c,9,80,0,
2,23400,Note_off_c,9,81,0,
2,23400,Note_off_c,9,82,0,
2,23400,Note_off_c,9,87,0,
2,23400,Note_off_c,9,88,0,
2,23400,Note_off_c,9,89,0,
2,23400,Note_off_c,9,91,0,
2,23400,Note_off_c,9,93,0,
2,23430,Note_off_c,9,35,0,
2,23430,Note_off_c,9,36,0,
2,23430,Note_off_c,9,37,0,
2,23430,Note_off_c,9,38,0,
2,23430,Note_off_c,9,39,0,
2,23430,Note_off_c,9,40,0,
2,23430,Note_off_c,9,41,0,
2,23430,Note_off_c,9,42,0,
2,23430,Note_off_c,9,43,0,
2,23430,Note_off_c,9,44,0,
2,23430,Note_off_c,9,45,0,
2,23430,Note_off_c,9,46,0,
2,23430,Note_off_c,9,47,0,
2,23430,Note_off_c,9,48,0,
2,23430,Note_off_c,9,49,0,
2,23430,Note_off_c,9,50,0,
2,23430,Note_off_c,9,51,0,
2,23430,Note_off_c,9,56,0,
2,23430,Note_off_c,9,57,0,
2,23430,Note_off_c,9,59,0,
2,23430,Note_off_c,9,60,0,
2,23430,Note_off_c,9,61,0,
2,23430,Note_off_c,9,63,0,
2,23430,Note_off_c,9,68,0,
2,23430,Note_off_c,9,69,0,
2,23430,Note_off_c,9,70,0,
2,23430,Note_off_c,9,76,0,
2,23430,Note_off_c,9,80,0,
2,23430,Note_off_c,9,81,0,
2,23430,Note_off_c,9,82,0,
2,23430,Note_off_c,9,87,0,
2,23430,Note_off_c,9,88,0,
2,23430,Note_off_c,9,89,0,
2,23430,Note_off_c,9,91,0,
2,23430,Note_off_c,9,93,0,
2,23460,Note_off_c,9,35,0,
2,23460,Note_off_c,9,36,0,
2,23460,Note_off_c,9,37,0,
2,23460,Note_off_c,9,38,0,
2,23460,Note_off_c,9,39,0,
2,23460,Note_off_c,9,40,0,
2,23460,Note_off_c,9,41,0,
2,23460,Note_off_c,9,42,0,
2,23460,Note_off_c,9,43,0,
2,23460,Note_off_c,9,44,0,
2,23460,Note_off_c,9,45,0,
2,23460,Note_off_c,9,46,0,
2,23460,Note_off_c,9,47,0,
2,23460,Note_off_c,9,48,0,
2,23460,Note_off_c,9,49,0,
2,23460,Note_off_c,9,50,0,
2,23460,Note_off_c,9,51,0,
2,23460,Note_off_c,9,56,0,
2,23460,Note_off_c,9,57,0,
2,23460,Note_off_c,9,59,0,
2,23460,Note_off_c,9,60,0,
2,23460,Note_off_c,9,61,0,
2,23460,Note_off_c,9,63,0,
2,23460,Note_off_c,9,68,0,
2,23460,Note_off_c,9,69,0,
2,23460,Note_off_c,9,70,0,
2,23460,Note_off_c,9,76,0,
2,23460,Note_off_c,9,80,0,
2,23460,Note_off_c,9,81,0,
2,23460,Note_off_c,9,82,0,
2,23460,Note_off_c,9,87,0,
2,23460,Note_off_c,9,88,0,
2,23460,Note_off_c,9,89,0,
2,23460,Note_off_c,9,91,0,
2,23460,Note_off_c,9,93,0,
2,23490,Note_off_c,9,35,0,
2,23490,Note_off_c,9,36,0,
2,23490,Note_off_c,9,37,0,
2,23490,Note_off_c,9,38,0,
2,23490,Note_off_c,9,39,0,
2,23490,Note_off_c,9,40,0,
2,23490,Note_off_c,9,41,0,
2,23490,Note_off_c,9,42,0,
2,23490,Note_off_c,9,43,0,
2,23490,Note_off_c,9,44,0,
2,23490,Note_off_c,9,45,0,
2,23490,Note_off_c,9,46,0,
2,23490,Note_off_c,9,47,0,
2,23490,Note_off_c,9,48,0,
2,23490,Note_off_c,9,49,0,
2,23490,Note_off_c,9,50,0,
2,23490,Note_off_c,9,51,0,
2,23490,Note_off_c,9,56,0,
2,23490,Note_off_c,9,57,0,
2,23490,Note_off_c,9,59,0,
2,23490,Note_off_c,9,60,0,
2,23490,Note_off_c,9,61,0,
2,23490,Note_off_c,9,63,0,
2,23490,Note_off_c,9,68,0,
2,23490,Note_off_c,9,69,0,
2,23490,Note_off_c,9,70,0,
2,23490,Note_off_c,9,76,0,
2,23490,Note_off_c,9,80,0,
2,23490,Note_off_c,9,81,0,
2,23490,Note_off_c,9,82,0,
2,23490,Note_off_c,9,87,0,
2,23490,Note_off_c,9,88,0,
2,23490,Note_off_c,9,89,0,
2,23490,Note_off_c,9,91,0,
2,23490,Note_off_c,9,93,0,
2,23520,Note_off_c,9,35,0,
2,23520,Note_off_c,9,36,0,
2,23520,Note_off_c,9,37,0,
2,23520,Note_off_c,9,38,0,
2,23520,Note_off_c,9,39,0,
2,23520,Note_off_c,9,40,0,
2,23520,Note_off_c,9,41,0,
2,23520,Note_off_c,9,42,0,
2,23520,Note_off_c,9,43,0,
2,23520,Note_off_c,9,44,0,
2,23520,Note_off_c,9,45,0,
2,23520,Note_off_c,9,46,0,
2,23520,Note_off_c,9,47,0,
2,23520,Note_off_c,9,48,0,
2,23520,Note_off_c,9,49,0,
2,23520,Note_off_c,9,50,0,
2,23520,Note_off_c,9,51,0,
2,23520,Note_off_c,9,56,0,
2,23520,Note_off_c,9,57,0,
2,23520,Note_off_c,9,59,0,
2,23520,Note_off_c,9,60,0,
2,23520,Note_off_c,9,61,0,
2,23520,Note_off_c,9,63,0,
2,23520,Note_off_c,9,68,0,
2,23520,Note_off_c,9,69,0,
2,23520,Note_off_c,9,70,0,
2,23520,Note_off_c,9,76,0,
2,23520,Note_off_c,9,80,0,
2,23520,Note_off_c,9,81,0,
2,23520,Note_off_c,9,82,0,
2,23520,Note_off_c,9,87,0,
2,23520,Note_off_c,9,88,0,
2,23520,Note_off_c,9,89,0,
2,23520,Note_off_c,9,91,0,
2,23520,Note_off_c,9,93,0,
2,23550,Note_off_c,9,35,0,
2,23550,Note_off_c,9,36,0,
2,23550,Note_off_c,9,37,0,
2,23550,Note_off_c,9,38,0,
2,23550,Note_off_c,9,39,0,
2,23550,Note_off_c,9,40,0,
2,23550,Note_off_c,9,41,0,
2,23550,Note_off_c,9,42,0,
2,23550,Note_off_c,9,43,0,
2,23550,Note_off_c,9,44,0,
2,23550,Note_off_c,9,45,0,
2,23550,Note_off_c,9,46,0,
2,23550,Note_off_c,9,47,0,
2,23550,Note_off_c,9,48,0,
2,23550,Note_off_c,9,49,0,
2,23550,Note_off_c,9,50,0,
2,23550,Note_off_c,9,51,0,
2,23550,Note_off_c,9,56,0,
2,23550,Note_off_c,9,57,0,
2,23550,Note_off_c,9,59,0,
2,23550,Note_off_c,9,60,0,
2,23550,Note_off_c,9,61,0,
2,23550,Note_off_c,9,63,0,
2,23550,Note_off_c,9,68,0,
2,23550,Note_off_c,9,69,0,
2,23550,Note_off_c,9,70,0,
2,23550,Note_off_c,9,76,0,
2,23550,Note_off_c,9,80,0,
2,23550,Note_off_c,9,81,0,
2,23550,Note_off_c,9,82,0,
2,23550,Note_off_c,9,87,0,
2,23550,Note_off_c,9,88,0,
2,23550,Note_off_c,9,89,0,
2,23550,Note_off_c,9,91,0,
2,23550,Note_off_c,9,93,0,
2,23580,Note_off_c,9,35,0,
2,23580,Note_off_c,9,36,0,
2,23580,Note_off_c,9,37,0,
2,23580,Note_off_c,9,38,0,
2,23580,Note_off_c,9,39,0,
2,23580,Note_off_c,9,40,0,
2,23580,Note_off_c,9,41,0,
2,23580,Note_off_c,9,42,0,
2,23580,Note_off_c,9,43,0,
2,23580,Note_off_c,9,44,0,
2,23580,Note_off_c,9,45,0,
2,23580,Note_off_c,9,46,0,
2,23580,Note_off_c,9,47,0,
2,23580,Note_off_c,9,48,0,
2,23580,Note_off_c,9,49,0,
2,23580,Note_off_c,9,50,0,
2,23580,Note_off_c,9,51,0,
2,23580,Note_off_c,9,56,0,
2,23580,Note_off_c,9,57,0,
2,23580,Note_off_c,9,59,0,
2,23580,Note_off_c,9,60,0,
2,23580,Note_off_c,9,61,0,
2,23580,Note_off_c,9,63,0,
2,23580,Note_off_c,9,68,0,
2,23580,Note_off_c,9,69,0,
2,23580,Note_off_c,9,70,0,
2,23580,Note_off_c,9,76,0,
2,23580,Note_off_c,9,80,0,
2,23580,Note_off_c,9,81,0,
2,23580,Note_off_c,9,82,0,
2,23580,Note_off_c,9,87,0,
2,23580,Note_off_c,9,88,0,
2,23580,Note_off_c,9,89,0,
2,23580,Note_off_c,9,91,0,
2,23580,Note_off_c,9,93,0,
2,23610,Note_off_c,9,35,0,
2,23610,Note_off_c,9,36,0,
2,23610,Note_off_c,9,37,0,
2,23610,Note_off_c,9,38,0,
2,23610,Note_off_c,9,39,0,
2,23610,Note_off_c,9,40,0,
2,23610,Note_off_c,9,41,0,
2,23610,Note_off_c,9,42,0,
2,23610,Note_off_c,9,43,0,
2,23610,Note_off_c,9,44,0,
2,23610,Note_off_c,9,45,0,
2,23610,Note_off_c,9,46,0,
2,23610,Note_off_c,9,47,0,
2,23610,Note_off_c,9,48,0,
2,23610,Note_off_c,9,49,0,
2,23610,Note_off_c,9,50,0,
2,23610,Note_off_c,9,51,0,
2,23610,Note_off_c,9,56,0,
2,23610,Note_off_c,9,57,0,
2,23610,Note_off_c,9,59,0,
2,23610,Note_off_c,9,60,0,
2,23610,Note_off_c,9,61,0,
2,23610,Note_off_c,9,63,0,
2,23610,Note_off_c,9,68,0,
2,23610,Note_off_c,9,69,0,
2,23610,Note_off_c,9,70,0,
2,23610,Note_off_c,9,76,0,
2,23610,Note_off_c,9,80,0,
2,23610,Note_off_c,9,81,0,
2,23610,Note_off_c,9,82,0,
2,23610,Note_off_c,9,87,0,
2,23610,Note_off_c,9,88,0,
2,23610,Note_off_c,9,89,0,
2,23610,Note_off_c,9,91,0,
2,23610,Note_off_c,9,93,0,
2,23640,Note_off_c,9,35,0,
2,23640,Note_off_c,9,36,0,
2,23640,Note_off_c,9,37,0,
2,23640,Note_off_c,9,38,0,
2,23640,Note_off_c,9,39,0,
2,23640,Note_off_c,9,40,0,
2,23640,Note_off_c,9,41,0,
2,23640,Note_off_c,9,42,0,
2,23640,Note_off_c,9,43,0,
2,23640,Note_off_c,9,44,0,
2,23640,Note_off_c,9,45,0,
2,23640,Note_off_c,9,46,0,
2,23640,Note_off_c,9,47,0,
2,23640,Note_off_c,9,48,0,
2,23640,Note_off_c,9,49,0,
2,23640,Note_off_c,9,50,0,
2,23640,Note_off_c,9,51,0,
2,23640,Note_off_c,9,56,0,
2,23640,Note_off_c,9,57,0,
2,23640,Note_off_c,9,59,0,
2,23640,Note_off_c,9,60,0,
2,23640,Note_off_c,9,61,0,
2,23640,Note_off_c,9,63,0,
2,23640,Note_off_c,9,68,0,
2,23640,Note_off_c,9,69,0,
2,23640,Note_off_c,9,70,0,
2,23640,Note_off_c,9,76,0,
2,23640,Note_off_c,9,80,0,
2,23640,Note_off_c,9,81,0,
2,23640,Note_off_c,9,82,0,
2,23640,Note_off_c,9,87,0,
2,23640,Note_off_c,9,88,0,
2,23640,Note_off_c,9,89,0,
2,23640,Note_off_c,9,91,0,
2,23640,Note_off_c,9,93,0,
2,23670,Note_off_c,9,35,0,
2,23670,Note_off_c,9,36,0,
2,23670,Note_off_c,9,37,0,
2,23670,Note_off_c,9,38,0,
2,23670,Note_off_c,9,39,0,
2,23670,Note_off_c,9,40,0,
2,23670,Note_off_c,9,41,0,
2,23670,Note_off_c,9,42,0,
2,23670,Note_off_c,9,43,0,
2,23670,Note_off_c,9,44,0,
2,23670,Note_off_c,9,45,0,
2,23670,Note_off_c,9,46,0,
2,23670,Note_off_c,9,47,0,
2,23670,Note_off_c,9,48,0,
2,23670,Note_off_c,9,49,0,
2,23670,Note_off_c,9,50,0,
2,23670,Note_off_c,9,51,0,
2,23670,Note_off_c,9,56,0,
2,23670,Note_off_c,9,57,0,
2,23670,Note_off_c,9,59,0,
2,23670,Note_off_c,9,60,0,
2,23670,Note_off_c,9,61,0,
2,23670,Note_off_c,9,63,0,
2,23670,Note_off_c,9,68,0,
2,23670,Note_off_c,9,69,0,
2,23670,Note_off_c,9,70,0,
2,23670,Note_off_c,9,76,0,
2,23670,Note_off_c,9,80,0,
2,23670,Note_off_c,9,81,0,
2,23670,Note_off_c,9,82,0,
2,23670,Note_off_c,9,87,0,
2,23670,Note_off_c,9,88,0,
2,23670,Note_off_c,9,89,0,
2,23670,Note_off_c,9,91,0,
2,23670,Note_off_c,9,93,0,
2,23700,Note_off_c,9,35,0,
2,23700,Note_off_c,9,36,0,
2,23700,Note_off_c,9,37,0,
2,23700,Note_off_c,9,38,0,
2,23700,Note_off_c,9,39,0,
2,23700,Note_off_c,9,40,0,
2,23700,Note_off_c,9,41,0,
2,23700,Note_off_c,9,42,0,
2,23700,Note_off_c,9,43,0,
2,23700,Note_off_c,9,44,0,
2,23700,Note_off_c,9,45,0,
2,23700,Note_off_c,9,46,0,
2,23700,Note_off_c,9,47,0,
2,23700,Note_off_c,9,48,0,
2,23700,Note_off_c,9,49,0,
2,23700,Note_off_c,9,50,0,
2,23700,Note_off_c,9,51,0,
2,23700,Note_off_c,9,56,0,
2,23700,Note_off_c,9,57,0,
2,23700,Note_off_c,9,59,0,
2,23700,Note_off_c,9,60,0,
2,23700,Note_off_c,9,61,0,
2,23700,Note_off_c,9,63,0,
2,23700,Note_off_c,9,68,0,
2,23700,Note_off_c,9,69,0,
2,23700,Note_off_c,9,70,0,
2,23700,Note_off_c,9,76,0,
2,23700,Note_off_c,9,80,0,
2,23700,Note_off_c,9,81,0,
2,23700,Note_off_c,9,82,0,
2,23700,Note_off_c,9,87,0,
2,23700,Note_off_c,9,88,0,
2,23700,Note_off_c,9,89,0,
2,23700,Note_off_c,9,91,0,
2,23700,Note_off_c,9,93,0,
2,23730,Note_off_c,9,35,0,
2,23730,Note_off_c,9,36,0,
2,23730,Note_off_c,9,37,0,
2,23730,Note_off_c,9,38,0,
2,23730,Note_off_c,9,39,0,
2,23730,Note_off_c,9,40,0,
2,23730,Note_off_c,9,41,0,
2,23730,Note_off_c,9,42,0,
2,23730,Note_off_c,9,43,0,
2,23730,Note_off_c,9,44,0,
2,23730,Note_off_c,9,45,0,
2,23730,Note_off_c,9,46,0,
2,23730,Note_off_c,9,47,0,
2,23730,Note_off_c,9,48,0,
2,23730,Note_off_c,9,49,0,
2,23730,Note_off_c,9,50,0,
2,23730,Note_off_c,9,51,0,
2,23730,Note_off_c,9,56,0,
2,23730,Note_off_c,9,57,0,
2,23730,Note_off_c,9,59,0,
2,23730,Note_off_c,9,60,0,
2,23730,Note_off_c,9,61,0,
2,23730,Note_off_c,9,63,0,
2,23730,Note_off_c,9,68,0,
2,23730,Note_off_c,9,69,0,
2,23730,Note_off_c,9,70,0,
2,23730,Note_off_c,9,76,0,
2,23730,Note_off_c,9,80,0,
2,23730,Note_off_c,9,81,0,
2,23730,Note_off_c,9,82,0,
2,23730,Note_off_c,9,87,0,
2,23730,Note_off_c,9,88,0,
2,23730,Note_off_c,9,89,0,
2,23730,Note_off_c,9,91,0,
2,23730,Note_off_c,9,93,0,
2,23760,Note_off_c,9,35,0,
2,23760,Note_off_c,9,36,0,
2,23760,Note_off_c,9,37,0,
2,23760,Note_off_c,9,38,0,
2,23760,Note_off_c,9,39,0,
2,23760,Note_off_c,9,40,0,
2,23760,Note_off_c,9,41,0,
2,23760,Note_off_c,9,42,0,
2,23760,Note_off_c,9,43,0,
2,23760,Note_off_c,9,44,0,
2,23760,Note_off_c,9,45,0,
2,23760,Note_off_c,9,46,0,
2,23760,Note_off_c,9,47,0,
2,23760,Note_off_c,9,48,0,
2,23760,Note_off_c,9,49,0,
2,23760,Note_off_c,9,50,0,
2,23760,Note_off_c,9,51,0,
2,23760,Note_off_c,9,56,0,
2,23760,Note_off_c,9,57,0,
2,23760,Note_off_c,9,59,0,
2,23760,Note_off_c,9,60,0,
2,23760,Note_off_c,9,61,0,
2,23760,Note_off_c,9,63,0,
2,23760,Note_off_c,9,68,0,
2,23760,Note_off_c,9,69,0,
2,23760,Note_off_c,9,70,0,
2,23760,Note_off_c,9,76,0,
2,23760,Note_off_c,9,80,0,
2,23760,Note_off_c,9,81,0,
2,23760,Note_off_c,9,82,0,
2,23760,Note_off_c,9,87,0,
2,23760,Note_off_c,9,88,0,
2,23760,Note_off_c,9,89,0,
2,23760,Note_off_c,9,91,0,
2,23760,Note_off_c,9,93,0,
2,23790,Note_off_c,9,35,0,
2,23790,Note_off_c,9,36,0,
2,23790,Note_off_c,9,37,0,
2,23790,Note_off_c,9,38,0,
2,23790,Note_off_c,9,39,0,
2,23790,Note_off_c,9,40,0,
2,23790,Note_off_c,9,41,0,
2,23790,Note_off_c,9,42,0,
2,23790,Note_off_c,9,43,0,
2,23790,Note_off_c,9,44,0,
2,23790,Note_off_c,9,45,0,
2,23790,Note_off_c,9,46,0,
2,23790,Note_off_c,9,47,0,
2,23790,Note_off_c,9,48,0,
2,23790,Note_off_c,9,49,0,
2,23790,Note_off_c,9,50,0,
2,23790,Note_off_c,9,51,0,
2,23790,Note_off_c,9,56,0,
2,23790,Note_off_c,9,57,0,
2,23790,Note_off_c,9,59,0,
2,23790,Note_off_c,9,60,0,
2,23790,Note_off_c,9,61,0,
2,23790,Note_off_c,9,63,0,
2,23790,Note_off_c,9,68,0,
2,23790,Note_off_c,9,69,0,
2,23790,Note_off_c,9,70,0,
2,23790,Note_off_c,9,76,0,
2,23790,Note_off_c,9,80,0,
2,23790,Note_off_c,9,81,0,
2,23790,Note_off_c,9,82,0,
2,23790,Note_off_c,9,87,0,
2,23790,Note_off_c,9,88,0,
2,23790,Note_off_c,9,89,0,
2,23790,Note_off_c,9,91,0,
2,23790,Note_off_c,9,93,0,
2,23820,Note_off_c,9,35,0,
2,23820,Note_off_c,9,36,0,
2,23820,Note_off_c,9,37,0,
2,23820,Note_off_c,9,38,0,
2,23820,Note_off_c,9,39,0,
2,23820,Note_off_c,9,40,0,
2,23820,Note_off_c,9,41,0,
2,23820,Note_off_c,9,42,0,
2,23820,Note_off_c,9,43,0,
2,23820,Note_off_c,9,44,0,
2,23820,Note_off_c,9,45,0,
2,23820,Note_off_c,9,46,0,
2,23820,Note_off_c,9,47,0,
2,23820,Note_off_c,9,48,0,
2,23820,Note_off_c,9,49,0,
2,23820,Note_off_c,9,50,0,
2,23820,Note_off_c,9,51,0,
2,23820,Note_off_c,9,56,0,
2,23820,Note_off_c,9,57,0,
2,23820,Note_off_c,9,59,0,
2,23820,Note_off_c,9,60,0,
2,23820,Note_off_c,9,61,0,
2,23820,Note_off_c,9,63,0,
2,23820,Note_off_c,9,68,0,
2,23820,Note_off_c,9,69,0,
2,23820,Note_off_c,9,70,0,
2,23820,Note_off_c,9,76,0,
2,23820,Note_off_c,9,80,0,
2,23820,Note_off_c,9,81,0,
2,23820,Note_off_c,9,82,0,
2,23820,Note_off_c,9,87,0,
2,23820,Note_off_c,9,88,0,
2,23820,Note_off_c,9,89,0,
2,23820,Note_off_c,9,91,0,
2,23820,Note_off_c,9,93,0,
2,23850,Note_off_c,9,35,0,
2,23850,Note_off_c,9,36,0,
2,23850,Note_off_c,9,37,0,
2,23850,Note_off_c,9,38,0,
2,23850,Note_off_c,9,39,0,
2,23850,Note_off_c,9,40,0,
2,23850,Note_off_c,9,41,0,
2,23850,Note_off_c,9,42,0,
2,23850,Note_off_c,9,43,0,
2,23850,Note_off_c,9,44,0,
2,23850,Note_off_c,9,45,0,
2,23850,Note_off_c,9,46,0,
2,23850,Note_off_c,9,47,0,
2,23850,Note_off_c,9,48,0,
2,23850,Note_off_c,9,49,0,
2,23850,Note_off_c,9,50,0,
2,23850,Note_off_c,9,51,0,
2,23850,Note_off_c,9,56,0,
2,23850,Note_off_c,9,57,0,
2,23850,Note_off_c,9,59,0,
2,23850,Note_off_c,9,60,0,
2,23850,Note_off_c,9,61,0,
2,23850,Note_off_c,9,63,0,
2,23850,Note_off_c,9,68,0,
2,23850,Note_off_c,9,69,0,
2,23850,Note_off_c,9,70,0,
2,23850,Note_off_c,9,76,0,
2,23850,Note_off_c,9,80,0,
2,23850,Note_off_c,9,81,0,
2,23850,Note_off_c,9,82,0,
2,23850,Note_off_c,9,87,0,
2,23850,Note_off_c,9,88,0,
2,23850,Note_off_c,9,89,0,
2,23850,Note_off_c,9,91,0,
2,23850,Note_off_c,9,93,0,
2,23880,Note_off_c,9,35,0,
2,23880,Note_off_c,9,36,0,
2,23880,Note_off_c,9,37,0,
2,23880,Note_off_c,9,38,0,
2,23880,Note_off_c,9,39,0,
2,23880,Note_off_c,9,40,0,
2,23880,Note_off_c,9,41,0,
2,23880,Note_off_c,9,42,0,
2,23880,Note_off_c,9,43,0,
2,23880,Note_off_c,9,44,0,
2,23880,Note_off_c,9,45,0,
2,23880,Note_off_c,9,46,0,
2,23880,Note_off_c,9,47,0,
2,23880,Note_off_c,9,48,0,
2,23880,Note_off_c,9,49,0,
2,23880,Note_off_c,9,50,0,
2,23880,Note_off_c,9,51,0,
2,23880,Note_off_c,9,56,0,
2,23880,Note_off_c,9,57,0,
2,23880,Note_off_c,9,59,0,
2,23880,Note_off_c,9,60,0,
2,23880,Note_off_c,9,61,0,
2,23880,Note_off_c,9,63,0,
2,23880,Note_off_c,9,68,0,
2,23880,Note_off_c,9,69,0,
2,23880,Note_off_c,9,70,0,
2,23880,Note_off_c,9,76,0,
2,23880,Note_off_c,9,80,0,
2,23880,Note_off_c,9,81,0,
2,23880,Note_off_c,9,82,0,
2,23880,Note_off_c,9,87,0,
2,23880,Note_off_c,9,88,0,
2,23880,Note_off_c,9,89,0,
2,23880,Note_off_c,9,91,0,
2,23880,Note_off_c,9,93,0,
2,23910,Note_off_c,9,35,0,
2,23910,Note_off_c,9,36,0,
2,23910,Note_off_c,9,37,0,
2,23910,Note_off_c,9,38,0,
2,23910,Note_off_c,9,39,0,
2,23910,Note_off_c,9,40,0,
2,23910,Note_off_c,9,41,0,
2,23910,Note_off_c,9,42,0,
2,23910,Note_off_c,9,43,0,
2,23910,Note_off_c,9,44,0,
2,23910,Note_off_c,9,45,0,
2,23910,Note_off_c,9,46,0,
2,23910,Note_off_c,9,47,0,
2,23910,Note_off_c,9,48,0,
2,23910,Note_off_c,9,49,0,
2,23910,Note_off_c,9,50,0,
2,23910,Note_off_c,9,51,0,
2,23910,Note_off_c,9,56,0,
2,23910,Note_off_c,9,57,0,
2,23910,Note_off_c,9,59,0,
2,23910,Note_off_c,9,60,0,
2,23910,Note_off_c,9,61,0,
2,23910,Note_off_c,9,63,0,
2,23910,Note_off_c,9,68,0,
2,23910,Note_off_c,9,69,0,
2,23910,Note_off_c,9,70,0,
2,23910,Note_off_c,9,76,0,
2,23910,Note_off_c,9,80,0,
2,23910,Note_off_c,9,81,0,
2,23910,Note_off_c,9,82,0,
2,23910,Note_off_c,9,87,0,
2,23910,Note_off_c,9,88,0,
2,23910,Note_off_c,9,89,0,
2,23910,Note_off_c,9,91,0,
2,23910,Note_off_c,9,93,0,
2,23940,Note_off_c,9,35,0,
2,23940,Note_off_c,9,36,0,
2,23940,Note_off_c,9,37,0,
2,23940,Note_off_c,9,38,0,
2,23940,Note_off_c,9,39,0,
2,23940,Note_off_c,9,40,0,
2,23940,Note_off_c,9,41,0,
2,23940,Note_off_c,9,42,0,
2,23940,Note_off_c,9,43,0,
2,23940,Note_off_c,9,44,0,
2,23940,Note_off_c,9,45,0,
2,23940,Note_off_c,9,46,0,
2,23940,Note_off_c,9,47,0,
2,23940,Note_off_c,9,48,0,
2,23940,Note_off_c,9,49,0,
2,23940,Note_off_c,9,50,0,
2,23940,Note_off_c,9,51,0,
2,23940,Note_off_c,9,56,0,
2,23940,Note_off_c,9,57,0,
2,23940,Note_off_c,9,59,0,
2,23940,Note_off_c,9,60,0,
2,23940,Note_off_c,9,61,0,
2,23940,Note_off_c,9,63,0,
2,23940,Note_off_c,9,68,0,
2,23940,Note_off_c,9,69,0,
2,23940,Note_off_c,9,70,0,
2,23940,Note_off_c,9,76,0,
2,23940,Note_off_c,9,80,0,
2,23940,Note_off_c,9,81,0,
2,23940,Note_off_c,9,82,0,
2,23940,Note_off_c,9,87,0,
2,23940,Note_off_c,9,88,0,
2,23940,Note_off_c,9,89,0,
2,23940,Note_off_c,9,91,0,
2,23940,Note_off_c,9,93,0,
2,23970,Note_off_c,9,35,0,
2,23970,Note_off_c,9,36,0,
2,23970,Note_off_c,9,37,0,
2,23970,Note_off_c,9,38,0,
2,23970,Note_off_c,9,39,0,
2,23970,Note_off_c,9,40,0,
2,23970,Note_off_c,9,41,0,
2,23970,Note_off_c,9,42,0,
2,23970,Note_off_c,9,43,0,
2,23970,Note_off_c,9,44,0,
2,23970,Note_off_c,9,45,0,
2,23970,Note_off_c,9,46,0,
2,23970,Note_off_c,9,47,0,
2,23970,Note_off_c,9,48,0,
2,23970,Note_off_c,9,49,0,
2,23970,Note_off_c,9,50,0,
2,23970,Note_off_c,9,51,0,
2,23970,Note_off_c,9,56,0,
2,23970,Note_off_c,9,57,0,
2,23970,Note_off_c,9,59,0,
2,23970,Note_off_c,9,60,0,
2,23970,Note_off_c,9,61,0,
2,23970,Note_off_c,9,63,0,
2,23970,Note_off_c,9,68,0,
2,23970,Note_off_c,9,69,0,
2,23970,Note_off_c,9,70,0,
2,23970,Note_off_c,9,76,0,
2,23970,Note_off_c,9,80,0,
2,23970,Note_off_c,9,81,0,
2,23970,Note_off_c,9,82,0,
2,23970,Note_off_c,9,87,0,
2,23970,Note_off_c,9,88,0,
2,23970,Note_off_c,9,89,0,
2,23970,Note_off_c,9,91,0,
2,23970,Note_off_c,9,93,0,
2,24000,Note_off_c,9,35,0,
2,24000,Note_off_c,9,36,0,
2,24000,Note_off_c,9,37,0,
2,24000,Note_off_c,9,38,0,
2,24000,Note_off_c,9,39,0,
2,24000,Note_off_c,9,40,0,
2,24000,Note_off_c,9,41,0,
2,24000,Note_off_c,9,42,0,
2,24000,Note_off_c,9,43,0,
2,24000,Note_off_c,9,44,0,
2,24000,Note_off_c,9,45,0,
2,24000,Note_off_c,9,46,0,
2,24000,Note_off_c,9,47,0,
2,24000,Note_off_c,9,48,0,
2,24000,Note_off_c,9,49,0,
2,24000,Note_off_c,9,50,0,
2,24000,Note_off_c,9,51,0,
2,24000,Note_off_c,9,56,0,
2,24000,Note_off_c,9,57,0,
2,24000,Note_off_c,9,59,0,
2,24000,Note_off_c,9,60,0,
2,24000,Note_off_c,9,61,0,
2,24000,Note_off_c,9,63,0,
2,24000,Note_off_c,9,68,0,
2,24000,Note_off_c,9,69,0,
2,24000,Note_off_c,9,70,0,
2,24000,Note_off_c,9,76,0,
2,24000,Note_off_c,9,80,0,
2,24000,Note_off_c,9,81,0,
2,24000,Note_off_c,9,82,0,
2,24000,Note_off_c,9,87,0,
2,24000,Note_off_c,9,88,0,
2,24000,Note_off_c,9,89,0,
2,24000,Note_off_c,9,91,0,
2,24000,Note_off_c,9,93,0,
2,24030,Note_off_c,9,35,0,
2,24030,Note_off_c,9,36,0,
2,24030,Note_off_c,9,37,0,
2,24030,Note_off_c,9,38,0,
2,24030,Note_off_c,9,39,0,
2,24030,Note_off_c,9,40,0,
2,24030,Note_off_c,9,41,0,
2,24030,Note_off_c,9,42,0,
2,24030,Note_off_c,9,43,0,
2,24030,Note_off_c,9,44,0,
2,24030,Note_off_c,9,45,0,
2,24030,Note_off_c,9,46,0,
2,24030,Note_off_c,9,47,0,
2,24030,Note_off_c,9,48,0,
2,24030,Note_off_c,9,49,0,
2,24030,Note_off_c,9,50,0,
2,24030,Note_off_c,9,51,0,
2,24030,Note_off_c,9,56,0,
2,24030,Note_off_c,9,57,0,
2,24030,Note_off_c,9,59,0,
2,24030,Note_off_c,9,60,0,
2,24030,Note_off_c,9,61,0,
2,24030,Note_off_c,9,63,0,
2,24030,Note_off_c,9,68,0,
2,24030,Note_off_c,9,69,0,
2,24030,Note_off_c,9,70,0,
2,24030,Note_off_c,9,76,0,
2,24030,Note_off_c,9,80,0,
2,24030,Note_off_c,9,81,0,
2,24030,Note_off_c,9,82,0,
2,24030,Note_off_c,9,87,0,
2,24030,Note_off_c,9,88,0,
2,24030,Note_off_c,9,89,0,
2,24030,Note_off_c,9,91,0,
2,24030,Note_off_c,9,93,0,
2,24060,Note_off_c,9,35,0,
2,24060,Note_off_c,9,36,0,
2,24060,Note_off_c,9,37,0,
2,24060,Note_off_c,9,38,0,
2,24060,Note_off_c,9,39,0,
2,24060,Note_off_c,9,40,0,
2,24060,Note_off_c,9,41,0,
2,24060,Note_off_c,9,42,0,
2,24060,Note_off_c,9,43,0,
2,24060,Note_off_c,9,44,0,
2,24060,Note_off_c,9,45,0,
2,24060,Note_off_c,9,46,0,
2,24060,Note_off_c,9,47,0,
2,24060,Note_off_c,9,48,0,
2,24060,Note_off_c,9,49,0,
2,24060,Note_off_c,9,50,0,
2,24060,Note_off_c,9,51,0,
2,24060,Note_off_c,9,56,0,
2,24060,Note_off_c,9,57,0,
2,24060,Note_off_c,9,59,0,
2,24060,Note_off_c,9,60,0,
2,24060,Note_off_c,9,61,0,
2,24060,Note_off_c,9,63,0,
2,24060,Note_off_c,9,68,0,
2,24060,Note_off_c,9,69,0,
2,24060,Note_off_c,9,70,0,
2,24060,Note_off_c,9,76,0,
2,24060,Note_off_c,9,80,0,
2,24060,Note_off_c,9,81,0,
2,24060,Note_off_c,9,82,0,
2,24060,Note_off_c,9,87,0,
2,24060,Note_off_c,9,88,0,
2,24060,Note_off_c,9,89,0,
2,24060,Note_off_c,9,91,0,
2,24060,Note_off_c,9,93,0,
2,24090,Note_off_c,9,35,0,
2,24090,Note_off_c,9,36,0,
2,24090,Note_off_c,9,37,0,
2,24090,Note_off_c,9,38,0,
2,24090,Note_off_c,9,39,0,
2,24090,Note_off_c,9,40,0,
2,24090,Note_off_c,9,41,0,
2,24090,Note_off_c,9,42,0,
2,24090,Note_off_c,9,43,0,
2,24090,Note_off_c,9,44,0,
2,24090,Note_off_c,9,45,0,
2,24090,Note_off_c,9,46,0,
2,24090,Note_off_c,9,47,0,
2,24090,Note_off_c,9,48,0,
2,24090,Note_off_c,9,49,0,
2,24090,Note_off_c,9,50,0,
2,24090,Note_off_c,9,51,0,
2,24090,Note_off_c,9,56,0,
2,24090,Note_off_c,9,57,0,
2,24090,Note_off_c,9,59,0,
2,24090,Note_off_c,9,60,0,
2,24090,Note_off_c,9,61,0,
2,24090,Note_off_c,9,63,0,
2,24090,Note_off_c,9,68,0,
2,24090,Note_off_c,9,69,0,
2,24090,Note_off_c,9,70,0,
2,24090,Note_off_c,9,76,0,
2,24090,Note_off_c,9,80,0,
2,24090,Note_off_c,9,81,0,
2,24090,Note_off_c,9,82,0,
2,24090,Note_off_c,9,87,0,
2,24090,Note_off_c,9,88,0,
2,24090,Note_off_c,9,89,0,
2,24090,Note_off_c,9,91,0,
2,24090,Note_off_c,9,93,0,
2,24120,Note_off_c,9,35,0,
2,24120,Note_off_c,9,36,0,
2,24120,Note_off_c,9,37,0,
2,24120,Note_off_c,9,38,0,
2,24120,Note_off_c,9,39,0,
2,24120,Note_off_c,9,40,0,
2,24120,Note_off_c,9,41,0,
2,24120,Note_off_c,9,42,0,
2,24120,Note_off_c,9,43,0,
2,24120,Note_off_c,9,44,0,
2,24120,Note_off_c,9,45,0,
2,24120,Note_off_c,9,46,0,
2,24120,Note_off_c,9,47,0,
2,24120,Note_off_c,9,48,0,
2,24120,Note_off_c,9,49,0,
2,24120,Note_off_c,9,50,0,
2,24120,Note_off_c,9,51,0,
2,24120,Note_off_c,9,56,0,
2,24120,Note_off_c,9,57,0,
2,24120,Note_off_c,9,59,0,
2,24120,Note_off_c,9,60,0,
2,24120,Note_off_c,9,61,0,
2,24120,Note_off_c,9,63,0,
2,24120,Note_off_c,9,68,0,
2,24120,Note_off_c,9,69,0,
2,24120,Note_off_c,9,70,0,
2,24120,Note_off_c,9,76,0,
2,24120,Note_off_c,9,80,0,
2,24120,Note_off_c,9,81,0,
2,24120,Note_off_c,9,82,0,
2,24120,Note_off_c,9,87,0,
2,24120,Note_off_c,9,88,0,
2,24120,Note_off_c,9,89,0,
2,24120,Note_off_c,9,91,0,
2,24120,Note_off_c,9,93,0,
2,24150,Note_off_c,9,35,0,
2,24150,Note_off_c,9,36,0,
2,24150,Note_off_c,9,37,0,
2,24150,Note_off_c,9,38,0,
2,24150,Note_off_c,9,39,0,
2,24150,Note_off_c,9,40,0,
2,24150,Note_off_c,9,41,0,
2,24150,Note_off_c,9,42,0,
2,24150,Note_off_c,9,43,0,
2,24150,Note_off_c,9,44,0,
2,24150,Note_off_c,9,45,0,
2,24150,Note_off_c,9,46,0,
2,24150,Note_off_c,9,47,0,
2,24150,Note_off_c,9,48,0,
2,24150,Note_off_c,9,49,0,
2,24150,Note_off_c,9,50,0,
2,24150,Note_off_c,9,51,0,
2,24150,Note_off_c,9,56,0,
2,24150,Note_off_c,9,57,0,
2,24150,Note_off_c,9,59,0,
2,24150,Note_off_c,9,60,0,
2,24150,Note_off_c,9,61,0,
2,24150,Note_off_c,9,63,0,
2,24150,Note_off_c,9,68,0,
2,24150,Note_off_c,9,69,0,
2,24150,Note_off_c,9,70,0,
2,24150,Note_off_c,9,76,0,
2,24150,Note_off_c,9,80,0,
2,24150,Note_off_c,9,81,0,
2,24150,Note_off_c,9,82,0,
2,24150,Note_off_c,9,87,0,
2,24150,Note_off_c,9,88,0,
2,24150,Note_off_c,9,89,0,
2,24150,Note_off_c,9,91,0,
2,24150,Note_off_c,9,93,0,
2,24180,Note_off_c,9,35,0,
2,24180,Note_off_c,9,36,0,
2,24180,Note_off_c,9,37,0,
2,24180,Note_off_c,9,38,0,
2,24180,Note_off_c,9,39,0,
2,24180,Note_off_c,9,40,0,
2,24180,Note_off_c,9,41,0,
2,24180,Note_off_c,9,42,0,
2,24180,Note_off_c,9,43,0,
2,24180,Note_off_c,9,44,0,
2,24180,Note_off_c,9,45,0,
2,24180,Note_off_c,9,46,0,
2,24180,Note_off_c,9,47,0,
2,24180,Note_off_c,9,48,0,
2,24180,Note_off_c,9,49,0,
2,24180,Note_off_c,9,50,0,
2,24180,Note_off_c,9,51,0,
2,24180,Note_off_c,9,56,0,
2,24180,Note_off_c,9,57,0,
2,24180,Note_off_c,9,59,0,
2,24180,Note_off_c,9,60,0,
2,24180,Note_off_c,9,61,0,
2,24180,Note_off_c,9,63,0,
2,24180,Note_off_c,9,68,0,
2,24180,Note_off_c,9,69,0,
2,24180,Note_off_c,9,70,0,
2,24180,Note_off_c,9,76,0,
2,24180,Note_off_c,9,80,0,
2,24180,Note_off_c,9,81,0,
2,24180,Note_off_c,9,82,0,
2,24180,Note_off_c,9,87,0,
2,24180,Note_off_c,9,88,0,
2,24180,Note_off_c,9,89,0,
2,24180,Note_off_c,9,91,0,
2,24180,Note_off_c,9,93,0,
2,24210,Note_off_c,9,35,0,
2,24210,Note_off_c,9,36,0,
2,24210,Note_off_c,9,37,0,
2,24210,Note_off_c,9,38,0,
2,24210,Note_off_c,9,39,0,
2,24210,Note_off_c,9,40,0,
2,24210,Note_off_c,9,41,0,
2,24210,Note_off_c,9,42,0,
2,24210,Note_off_c,9,43,0,
2,24210,Note_off_c,9,44,0,
2,24210,Note_off_c,9,45,0,
2,24210,Note_off_c,9,46,0,
2,24210,Note_off_c,9,47,0,
2,24210,Note_off_c,9,48,0,
2,24210,Note_off_c,9,49,0,
2,24210,Note_off_c,9,50,0,
2,24210,Note_off_c,9,51,0,
2,24210,Note_off_c,9,56,0,
2,24210,Note_off_c,9,57,0,
2,24210,Note_off_c,9,59,0,
2,24210,Note_off_c,9,60,0,
2,24210,Note_off_c,9,61,0,
2,24210,Note_off_c,9,63,0,
2,24210,Note_off_c,9,68,0,
2,24210,Note_off_c,9,69,0,
2,24210,Note_off_c,9,70,0,
2,24210,Note_off_c,9,76,0,
2,24210,Note_off_c,9,80,0,
2,24210,Note_off_c,9,81,0,
2,24210,Note_off_c,9,82,0,
2,24210,Note_off_c,9,87,0,
2,24210,Note_off_c,9,88,0,
2,24210,Note_off_c,9,89,0,
2,24210,Note_off_c,9,91,0,
2,24210,Note_off_c,9,93,0,
2,24240,Note_off_c,9,35,0,
2,24240,Note_off_c,9,36,0,
2,24240,Note_off_c,9,37,0,
2,24240,Note_off_c,9,38,0,
2,24240,Note_off_c,9,39,0,
2,24240,Note_off_c,9,40,0,
2,24240,Note_off_c,9,41,0,
2,24240,Note_off_c,9,42,0,
2,24240,Note_off_c,9,43,0,
2,24240,Note_off_c,9,44,0,
2,24240,Note_off_c,9,45,0,
2,24240,Note_off_c,9,46,0,
2,24240,Note_off_c,9,47,0,
2,24240,Note_off_c,9,48,0,
2,24240,Note_off_c,9,49,0,
2,24240,Note_off_c,9,50,0,
2,24240,Note_off_c,9,51,0,
2,24240,Note_off_c,9,56,0,
2,24240,Note_off_c,9,57,0,
2,24240,Note_off_c,9,59,0,
2,24240,Note_off_c,9,60,0,
2,24240,Note_off_c,9,61,0,
2,24240,Note_off_c,9,63,0,
2,24240,Note_off_c,9,68,0,
2,24240,Note_off_c,9,69,0,
2,24240,Note_off_c,9,70,0,
2,24240,Note_off_c,9,76,0,
2,24240,Note_off_c,9,80,0,
2,24240,Note_off_c,9,81,0,
2,24240,Note_off_c,9,82,0,
2,24240,Note_off_c,9,87,0,
2,24240,Note_off_c,9,88,0,
2,24240,Note_off_c,9,89,0,
2,24240,Note_off_c,9,91,0,
2,24240,Note_off_c,9,93,0,
2,24270,Note_off_c,9,35,0,
2,24270,Note_off_c,9,36,0,
2,24270,Note_off_c,9,37,0,
2,24270,Note_off_c,9,38,0,
2,24270,Note_off_c,9,39,0,
2,24270,Note_off_c,9,40,0,
2,24270,Note_off_c,9,41,0,
2,24270,Note_off_c,9,42,0,
2,24270,Note_off_c,9,43,0,
2,24270,Note_off_c,9,44,0,
2,24270,Note_off_c,9,45,0,
2,24270,Note_off_c,9,46,0,
2,24270,Note_off_c,9,47,0,
2,24270,Note_off_c,9,48,0,
2,24270,Note_off_c,9,49,0,
2,24270,Note_off_c,9,50,0,
2,24270,Note_off_c,9,51,0,
2,24270,Note_off_c,9,56,0,
2,24270,Note_off_c,9,57,0,
2,24270,Note_off_c,9,59,0,
2,24270,Note_off_c,9,60,0,
2,24270,Note_off_c,9,61,0,
2,24270,Note_off_c,9,63,0,
2,24270,Note_off_c,9,68,0,
2,24270,Note_off_c,9,69,0,
2,24270,Note_off_c,9,70,0,
2,24270,Note_off_c,9,76,0,
2,24270,Note_off_c,9,80,0,
2,24270,Note_off_c,9,81,0,
2,24270,Note_off_c,9,82,0,
2,24270,Note_off_c,9,87,0,
2,24270,Note_off_c,9,88,0,
2,24270,Note_off_c,9,89,0,
2,24270,Note_off_c,9,91,0,
2,24270,Note_off_c,9,93,0,
2,24300,Note_off_c,9,35,0,
2,24300,Note_off_c,9,36,0,
2,24300,Note_off_c,9,37,0,
2,24300,Note_off_c,9,38,0,
2,24300,Note_off_c,9,39,0,
2,24300,Note_off_c,9,40,0,
2,24300,Note_off_c,9,41,0,
2,24300,Note_off_c,9,42,0,
2,24300,Note_off_c,9,43,0,
2,24300,Note_off_c,9,44,0,
2,24300,Note_off_c,9,45,0,
2,24300,Note_off_c,9,46,0,
2,24300,Note_off_c,9,47,0,
2,24300,Note_off_c,9,48,0,
2,24300,Note_off_c,9,49,0,
2,24300,Note_off_c,9,50,0,
2,24300,Note_off_c,9,51,0,
2,24300,Note_off_c,9,56,0,
2,24300,Note_off_c,9,57,0,
2,24300,Note_off_c,9,59,0,
2,24300,Note_off_c,9,60,0,
2,24300,Note_off_c,9,61,0,
2,24300,Note_off_c,9,63,0,
2,24300,Note_off_c,9,68,0,
2,24300,Note_off_c,9,69,0,
2,24300,Note_off_c,9,70,0,
2,24300,Note_off_c,9,76,0,
2,24300,Note_off_c,9,80,0,
2,24300,Note_off_c,9,81,0,
2,24300,Note_off_c,9,82,0,
2,24300,Note_off_c,9,87,0,
2,24300,Note_off_c,9,88,0,
2,24300,Note_off_c,9,89,0,
2,24300,Note_off_c,9,91,0,
2,24300,Note_off_c,9,93,0,
2,24330,Note_off_c,9,35,0,
2,24330,Note_off_c,9,36,0,
2,24330,Note_off_c,9,37,0,
2,24330,Note_off_c,9,38,0,
2,24330,Note_off_c,9,39,0,
2,24330,Note_off_c,9,40,0,
2,24330,Note_off_c,9,41,0,
2,24330,Note_off_c,9,42,0,
2,24330,Note_off_c,9,43,0,
2,24330,Note_off_c,9,44,0,
2,24330,Note_off_c,9,45,0,
2,24330,Note_off_c,9,46,0,
2,24330,Note_off_c,9,47,0,
2,24330,Note_off_c,9,48,0,
2,24330,Note_off_c,9,49,0,
2,24330,Note_off_c,9,50,0,
2,24330,Note_off_c,9,51,0,
2,24330,Note_off_c,9,56,0,
2,24330,Note_off_c,9,57,0,
2,24330,Note_off_c,9,59,0,
2,24330,Note_off_c,9,60,0,
2,24330,Note_off_c,9,61,0,
2,24330,Note_off_c,9,63,0,
2,24330,Note_off_c,9,68,0,
2,24330,Note_off_c,9,69,0,
2,24330,Note_off_c,9,70,0,
2,24330,Note_off_c,9,76,0,
2,24330,Note_off_c,9,80,0,
2,24330,Note_off_c,9,81,0,
2,24330,Note_off_c,9,82,0,
2,24330,Note_off_c,9,87,0,
2,24330,Note_off_c,9,88,0,
2,24330,Note_off_c,9,89,0,
2,24330,Note_off_c,9,91,0,
2,24330,Note_off_c,9,93,0,
2,24360,Note_off_c,9,35,0,
2,24360,Note_off_c,9,36,0,
2,24360,Note_off_c,9,37,0,
2,24360,Note_off_c,9,38,0,
2,24360,Note_off_c,9,39,0,
2,24360,Note_off_c,9,40,0,
2,24360,Note_off_c,9,41,0,
2,24360,Note_off_c,9,42,0,
2,24360,Note_off_c,9,43,0,
2,24360,Note_off_c,9,44,0,
2,24360,Note_off_c,9,45,0,
2,24360,Note_off_c,9,46,0,
2,24360,Note_off_c,9,47,0,
2,24360,Note_off_c,9,48,0,
2,24360,Note_off_c,9,49,0,
2,24360,Note_off_c,9,50,0,
2,24360,Note_off_c,9,51,0,
2,24360,Note_off_c,9,56,0,
2,24360,Note_off_c,9,57,0,
2,24360,Note_off_c,9,59,0,
2,24360,Note_off_c,9,60,0,
2,24360,Note_off_c,9,61,0,
2,24360,Note_off_c,9,63,0,
2,24360,Note_off_c,9,68,0,
2,24360,Note_off_c,9,69,0,
2,24360,Note_off_c,9,70,0,
2,24360,Note_off_c,9,76,0,
2,24360,Note_off_c,9,80,0,
2,24360,Note_off_c,9,81,0,
2,24360,Note_off_c,9,82,0,
2,24360,Note_off_c,9,87,0,
2,24360,Note_off_c,9,88,0,
2,24360,Note_off_c,9,89,0,
2,24360,Note_off_c,9,91,0,
2,24360,Note_off_c,9,93,0,
2,24390,Note_off_c,9,35,0,
2,24390,Note_off_c,9,36,0,
2,24390,Note_off_c,9,37,0,
2,24390,Note_off_c,9,38,0,
2,24390,Note_off_c,9,39,0,
2,24390,Note_off_c,9,40,0,
2,24390,Note_off_c,9,41,0,
2,24390,Note_off_c,9,42,0,
2,24390,Note_off_c,9,43,0,
2,24390,Note_off_c,9,44,0,
2,24390,Note_off_c,9,45,0,
2,24390,Note_off_c,9,46,0,
2,24390,Note_off_c,9,47,0,
2,24390,Note_off_c,9,48,0,
2,24390,Note_off_c,9,49,0,
2,24390,Note_off_c,9,50,0,
2,24390,Note_off_c,9,51,0,
2,24390,Note_off_c,9,56,0,
2,24390,Note_off_c,9,57,0,
2,24390,Note_off_c,9,59,0,
2,24390,Note_off_c,9,60,0,
2,24390,Note_off_c,9,61,0,
2,24390,Note_off_c,9,63,0,
2,24390,Note_off_c,9,68,0,
2,24390,Note_off_c,9,69,0,
2,24390,Note_off_c,9,70,0,
2,24390,Note_off_c,9,76,0,
2,24390,Note_off_c,9,80,0,
2,24390,Note_off_c,9,81,0,
2,24390,Note_off_c,9,82,0,
2,24390,Note_off_c,9,87,0,
2,24390,Note_off_c,9,88,0,
2,24390,Note_off_c,9,89,0,
2,24390,Note_off_c,9,91,0,
2,24390,Note_off_c,9,93,0,
2,24420,Note_off_c,9,35,0,
2,24420,Note_off_c,9,36,0,
2,24420,Note_off_c,9,37,0,
2,24420,Note_off_c,9,38,0,
2,24420,Note_off_c,9,39,0,
2,24420,Note_off_c,9,40,0,
2,24420,Note_off_c,9,41,0,
2,24420,Note_off_c,9,42,0,
2,24420,Note_off_c,9,43,0,
2,24420,Note_off_c,9,44,0,
2,24420,Note_off_c,9,45,0,
2,24420,Note_off_c,9,46,0,
2,24420,Note_off_c,9,47,0,
2,24420,Note_off_c,9,48,0,
2,24420,Note_off_c,9,49,0,
2,24420,Note_off_c,9,50,0,
2,24420,Note_off_c,9,51,0,
2,24420,Note_off_c,9,56,0,
2,24420,Note_off_c,9,57,0,
2,24420,Note_off_c,9,59,0,
2,24420,Note_off_c,9,60,0,
2,24420,Note_off_c,9,61,0,
2,24420,Note_off_c,9,63,0,
2,24420,Note_off_c,9,68,0,
2,24420,Note_off_c,9,69,0,
2,24420,Note_off_c,9,70,0,
2,24420,Note_off_c,9,76,0,
2,24420,Note_off_c,9,80,0,
2,24420,Note_off_c,9,81,0,
2,24420,Note_off_c,9,82,0,
2,24420,Note_off_c,9,87,0,
2,24420,Note_off_c,9,88,0,
2,24420,Note_off_c,9,89,0,
2,24420,Note_off_c,9,91,0,
2,24420,Note_off_c,9,93,0,
2,24450,Note_off_c,9,35,0,
2,24450,Note_off_c,9,36,0,
2,24450,Note_off_c,9,37,0,
2,24450,Note_off_c,9,38,0,
2,24450,Note_off_c,9,39,0,
2,24450,Note_off_c,9,40,0,
2,24450,Note_off_c,9,41,0,
2,24450,Note_off_c,9,42,0,
2,24450,Note_off_c,9,43,0,
2,24450,Note_off_c,9,44,0,
2,24450,Note_off_c,9,45,0,
2,24450,Note_off_c,9,46,0,
2,24450,Note_off_c,9,47,0,
2,24450,Note_off_c,9,48,0,
2,24450,Note_off_c,9,49,0,
2,24450,Note_off_c,9,50,0,
2,24450,Note_off_c,9,51,0,
2,24450,Note_off_c,9,56,0,
2,24450,Note_off_c,9,57,0,
2,24450,Note_off_c,9,59,0,
2,24450,Note_off_c,9,60,0,
2,24450,Note_off_c,9,61,0,
2,24450,Note_off_c,9,63,0,
2,24450,Note_off_c,9,68,0,
2,24450,Note_off_c,9,69,0,
2,24450,Note_off_c,9,70,0,
2,24450,Note_off_c,9,76,0,
2,24450,Note_off_c,9,80,0,
2,24450,Note_off_c,9,81,0,
2,24450,Note_off_c,9,82,0,
2,24450,Note_off_c,9,87,0,
2,24450,Note_off_c,9,88,0,
2,24450,Note_off_c,9,89,0,
2,24450,Note_off_c,9,91,0,
2,24450,Note_off_c,9,93,0,
2,24480,Note_off_c,9,35,0,
2,24480,Note_off_c,9,36,0,
2,24480,Note_off_c,9,37,0,
2,24480,Note_off_c,9,38,0,
2,24480,Note_off_c,9,39,0,
2,24480,Note_off_c,9,40,0,
2,24480,Note_off_c,9,41,0,
2,24480,Note_off_c,9,42,0,
2,24480,Note_off_c,9,43,0,
2,24480,Note_off_c,9,44,0,
2,24480,Note_off_c,9,45,0,
2,24480,Note_off_c,9,46,0,
2,24480,Note_off_c,9,47,0,
2,24480,Note_off_c,9,48,0,
2,24480,Note_off_c,9,49,0,
2,24480,Note_off_c,9,50,0,
2,24480,Note_off_c,9,51,0,
2,24480,Note_off_c,9,56,0,
2,24480,Note_off_c,9,57,0,
2,24480,Note_off_c,9,59,0,
2,24480,Note_off_c,9,60,0,
2,24480,Note_off_c,9,61,0,
2,24480,Note_off_c,9,63,0,
2,24480,Note_off_c,9,68,0,
2,24480,Note_off_c,9,69,0,
2,24480,Note_off_c,9,70,0,
2,24480,Note_off_c,9,76,0,
2,24480,Note_off_c,9,80,0,
2,24480,Note_off_c,9,81,0,
2,24480,Note_off_c,9,82,0,
2,24480,Note_off_c,9,87,0,
2,24480,Note_off_c,9,88,0,
2,24480,Note_off_c,9,89,0,
2,24480,Note_off_c,9,91,0,
2,24480,Note_off_c,9,93,0,
2,24510,Note_off_c,9,35,0,
2,24510,Note_off_c,9,36,0,
2,24510,Note_off_c,9,37,0,
2,24510,Note_off_c,9,38,0,
2,24510,Note_off_c,9,39,0,
2,24510,Note_off_c,9,40,0,
2,24510,Note_off_c,9,41,0,
2,24510,Note_off_c,9,42,0,
2,24510,Note_off_c,9,43,0,
2,24510,Note_off_c,9,44,0,
2,24510,Note_off_c,9,45,0,
2,24510,Note_off_c,9,46,0,
2,24510,Note_off_c,9,47,0,
2,24510,Note_off_c,9,48,0,
2,24510,Note_off_c,9,49,0,
2,24510,Note_off_c,9,50,0,
2,24510,Note_off_c,9,51,0,
2,24510,Note_off_c,9,56,0,
2,24510,Note_off_c,9,57,0,
2,24510,Note_off_c,9,59,0,
2,24510,Note_off_c,9,60,0,
2,24510,Note_off_c,9,61,0,
2,24510,Note_off_c,9,63,0,
2,24510,Note_off_c,9,68,0,
2,24510,Note_off_c,9,69,0,
2,24510,Note_off_c,9,70,0,
2,24510,Note_off_c,9,76,0,
2,24510,Note_off_c,9,80,0,
2,24510,Note_off_c,9,81,0,
2,24510,Note_off_c,9,82,0,
2,24510,Note_off_c,9,87,0,
2,24510,Note_off_c,9,88,0,
2,24510,Note_off_c,9,89,0,
2,24510,Note_off_c,9,91,0,
2,24510,Note_off_c,9,93,0,
2,24540,Note_off_c,9,35,0,
2,24540,Note_off_c,9,36,0,
2,24540,Note_off_c,9,37,0,
2,24540,Note_off_c,9,38,0,
2,24540,Note_off_c,9,39,0,
2,24540,Note_off_c,9,40,0,
2,24540,Note_off_c,9,41,0,
2,24540,Note_off_c,9,42,0,
2,24540,Note_off_c,9,43,0,
2,24540,Note_off_c,9,44,0,
2,24540,Note_off_c,9,45,0,
2,24540,Note_off_c,9,46,0,
2,24540,Note_off_c,9,47,0,
2,24540,Note_off_c,9,48,0,
2,24540,Note_off_c,9,49,0,
2,24540,Note_off_c,9,50,0,
2,24540,Note_off_c,9,51,0,
2,24540,Note_off_c,9,56,0,
2,24540,Note_off_c,9,57,0,
2,24540,Note_off_c,9,59,0,
2,24540,Note_off_c,9,60,0,
2,24540,Note_off_c,9,61,0,
2,24540,Note_off_c,9,63,0,
2,24540,Note_off_c,9,68,0,
2,24540,Note_off_c,9,69,0,
2,24540,Note_off_c,9,70,0,
2,24540,Note_off_c,9,76,0,
2,24540,Note_off_c,9,80,0,
2,24540,Note_off_c,9,81,0,
2,24540,Note_off_c,9,82,0,
2,24540,Note_off_c,9,87,0,
2,24540,Note_off_c,9,88,0,
2,24540,Note_off_c,9,89,0,
2,24540,Note_off_c,9,91,0,
2,24540,Note_off_c,9,93,0,
2,24570,Note_off_c,9,35,0,
2,24570,Note_off_c,9,36,0,
2,24570,Note_off_c,9,37,0,
2,24570,Note_off_c,9,38,0,
2,24570,Note_off_c,9,39,0,
2,24570,Note_off_c,9,40,0,
2,24570,Note_off_c,9,41,0,
2,24570,Note_off_c,9,42,0,
2,24570,Note_off_c,9,43,0,
2,24570,Note_off_c,9,44,0,
2,24570,Note_off_c,9,45,0,
2,24570,Note_off_c,9,46,0,
2,24570,Note_off_c,9,47,0,
2,24570,Note_off_c,9,48,0,
2,24570,Note_off_c,9,49,0,
2,24570,Note_off_c,9,50,0,
2,24570,Note_off_c,9,51,0,
2,24570,Note_off_c,9,56,0,
2,24570,Note_off_c,9,57,0,
2,24570,Note_off_c,9,59,0,
2,24570,Note_off_c,9,60,0,
2,24570,Note_off_c,9,61,0,
2,24570,Note_off_c,9,63,0,
2,24570,Note_off_c,9,68,0,
2,24570,Note_off_c,9,69,0,
2,24570,Note_off_c,9,70,0,
2,24570,Note_off_c,9,76,0,
2,24570,Note_off_c,9,80,0,
2,24570,Note_off_c,9,81,0,
2,24570,Note_off_c,9,82,0,
2,24570,Note_off_c,9,87,0,
2,24570,Note_off_c,9,88,0,
2,24570,Note_off_c,9,89,0,
2,24570,Note_off_c,9,91,0,
2,24570,Note_off_c,9,93,0,
2,24600,Note_off_c,9,35,0,
2,24600,Note_off_c,9,36,0,
2,24600,Note_off_c,9,37,0,
2,24600,Note_off_c,9,38,0,
2,24600,Note_off_c,9,39,0,
2,24600,Note_off_c,9,40,0,
2,24600,Note_off_c,9,41,0,
2,24600,Note_off_c,9,42,0,
2,24600,Note_off_c,9,43,0,
2,24600,Note_off_c,9,44,0,
2,24600,Note_off_c,9,45,0,
2,24600,Note_off_c,9,46,0,
2,24600,Note_off_c,9,47,0,
2,24600,Note_off_c,9,48,0,
2,24600,Note_off_c,9,49,0,
2,24600,Note_off_c,9,50,0,
2,24600,Note_off_c,9,51,0,
2,24600,Note_off_c,9,56,0,
2,24600,Note_off_c,9,57,0,
2,24600,Note_off_c,9,59,0,
2,24600,Note_off_c,9,60,0,
2,24600,Note_off_c,9,61,0,
2,24600,Note_off_c,9,63,0,
2,24600,Note_off_c,9,68,0,
2,24600,Note_off_c,9,69,0,
2,24600,Note_off_c,9,70,0,
2,24600,Note_off_c,9,76,0,
2,24600,Note_off_c,9,80,0,
2,24600,Note_off_c,9,81,0,
2,24600,Note_off_c,9,82,0,
2,24600,Note_off_c,9,87,0,
2,24600,Note_off_c,9,88,0,
2,24600,Note_off_c,9,89,0,
2,24600,Note_off_c,9,91,0,
2,24600,Note_off_c,9,93,0,
2,24630,Note_off_c,9,35,0,
2,24630,Note_off_c,9,36,0,
2,24630,Note_off_c,9,37,0,
2,24630,Note_off_c,9,38,0,
2,24630,Note_off_c,9,39,0,
2,24630,Note_off_c,9,40,0,
2,24630,Note_off_c,9,41,0,
2,24630,Note_off_c,9,42,0,
2,24630,Note_off_c,9,43,0,
2,24630,Note_off_c,9,44,0,
2,24630,Note_off_c,9,45,0,
2,24630,Note_off_c,9,46,0,
2,24630,Note_off_c,9,47,0,
2,24630,Note_off_c,9,48,0,
2,24630,Note_off_c,9,49,0,
2,24630,Note_off_c,9,50,0,
2,24630,Note_off_c,9,51,0,
2,24630,Note_off_c,9,56,0,
2,24630,Note_off_c,9,57,0,
2,24630,Note_off_c,9,59,0,
2,24630,Note_off_c,9,60,0,
2,24630,Note_off_c,9,61,0,
2,24630,Note_off_c,9,63,0,
2,24630,Note_off_c,9,68,0,
2,24630,Note_off_c,9,69,0,
2,24630,Note_off_c,9,70,0,
2,24630,Note_off_c,9,76,0,
2,24630,Note_off_c,9,80,0,
2,24630,Note_off_c,9,81,0,
2,24630,Note_off_c,9,82,0,
2,24630,Note_off_c,9,87,0,
2,24630,Note_off_c,9,88,0,
2,24630,Note_off_c,9,89,0,
2,24630,Note_off_c,9,91,0,
2,24630,Note_off_c,9,93,0,
2,24660,Note_off_c,9,35,0,
2,24660,Note_off_c,9,36,0,
2,24660,Note_off_c,9,37,0,
2,24660,Note_off_c,9,38,0,
2,24660,Note_off_c,9,39,0,
2,24660,Note_off_c,9,40,0,
2,24660,Note_off_c,9,41,0,
2,24660,Note_off_c,9,42,0,
2,24660,Note_off_c,9,43,0,
2,24660,Note_off_c,9,44,0,
2,24660,Note_off_c,9,45,0,
2,24660,Note_off_c,9,46,0,
2,24660,Note_off_c,9,47,0,
2,24660,Note_off_c,9,48,0,
2,24660,Note_off_c,9,49,0,
2,24660,Note_off_c,9,50,0,
2,24660,Note_off_c,9,51,0,
2,24660,Note_off_c,9,56,0,
2,24660,Note_off_c,9,57,0,
2,24660,Note_off_c,9,59,0,
2,24660,Note_off_c,9,60,0,
2,24660,Note_off_c,9,61,0,
2,24660,Note_off_c,9,63,0,
2,24660,Note_off_c,9,68,0,
2,24660,Note_off_c,9,69,0,
2,24660,Note_off_c,9,70,0,
2,24660,Note_off_c,9,76,0,
2,24660,Note_off_c,9,80,0,
2,24660,Note_off_c,9,81,0,
2,24660,Note_off_c,9,82,0,
2,24660,Note_off_c,9,87,0,
2,24660,Note_off_c,9,88,0,
2,24660,Note_off_c,9,89,0,
2,24660,Note_off_c,9,91,0,
2,24660,Note_off_c,9,93,0,
2,24690,Note_off_c,9,35,0,
2,24690,Note_off_c,9,36,0,
2,24690,Note_off_c,9,37,0,
2,24690,Note_off_c,9,38,0,
2,24690,Note_off_c,9,39,0,
2,24690,Note_off_c,9,40,0,
2,24690,Note_off_c,9,41,0,
2,24690,Note_off_c,9,42,0,
2,24690,Note_off_c,9,43,0,
2,24690,Note_off_c,9,44,0,
2,24690,Note_off_c,9,45,0,
2,24690,Note_off_c,9,46,0,
2,24690,Note_off_c,9,47,0,
2,24690,Note_off_c,9,48,0,
2,24690,Note_off_c,9,49,0,
2,24690,Note_off_c,9,50,0,
2,24690,Note_off_c,9,51,0,
2,24690,Note_off_c,9,56,0,
2,24690,Note_off_c,9,57,0,
2,24690,Note_off_c,9,59,0,
2,24690,Note_off_c,9,60,0,
2,24690,Note_off_c,9,61,0,
2,24690,Note_off_c,9,63,0,
2,24690,Note_off_c,9,68,0,
2,24690,Note_off_c,9,69,0,
2,24690,Note_off_c,9,70,0,
2,24690,Note_off_c,9,76,0,
2,24690,Note_off_c,9,80,0,
2,24690,Note_off_c,9,81,0,
2,24690,Note_off_c,9,82,0,
2,24690,Note_off_c,9,87,0,
2,24690,Note_off_c,9,88,0,
2,24690,Note_off_c,9,89,0,
2,24690,Note_off_c,9,91,0,
2,24690,Note_off_c,9,93,0,
2,24720,Note_off_c,9,35,0,
2,24720,Note_off_c,9,36,0,
2,24720,Note_off_c,9,37,0,
2,24720,Note_off_c,9,38,0,
2,24720,Note_off_c,9,39,0,
2,24720,Note_off_c,9,40,0,
2,24720,Note_off_c,9,41,0,
2,24720,Note_off_c,9,42,0,
2,24720,Note_off_c,9,43,0,
2,24720,Note_off_c,9,44,0,
2,24720,Note_off_c,9,45,0,
2,24720,Note_off_c,9,46,0,
2,24720,Note_off_c,9,47,0,
2,24720,Note_off_c,9,48,0,
2,24720,Note_off_c,9,49,0,
2,24720,Note_off_c,9,50,0,
2,24720,Note_off_c,9,51,0,
2,24720,Note_off_c,9,56,0,
2,24720,Note_off_c,9,57,0,
2,24720,Note_off_c,9,59,0,
2,24720,Note_off_c,9,60,0,
2,24720,Note_off_c,9,61,0,
2,24720,Note_off_c,9,63,0,
2,24720,Note_off_c,9,68,0,
2,24720,Note_off_c,9,69,0,
2,24720,Note_off_c,9,70,0,
2,24720,Note_off_c,9,76,0,
2,24720,Note_off_c,9,80,0,
2,24720,Note_off_c,9,81,0,
2,24720,Note_off_c,9,82,0,
2,24720,Note_off_c,9,87,0,
2,24720,Note_off_c,9,88,0,
2,24720,Note_off_c,9,89,0,
2,24720,Note_off_c,9,91,0,
2,24720,Note_off_c,9,93,0,
2,24750,Note_off_c,9,35,0,
2,24750,Note_off_c,9,36,0,
2,24750,Note_off_c,9,37,0,
2,24750,Note_off_c,9,38,0,
2,24750,Note_off_c,9,39,0,
2,24750,Note_off_c,9,40,0,
2,24750,Note_off_c,9,41,0,
2,24750,Note_off_c,9,42,0,
2,24750,Note_off_c,9,43,0,
2,24750,Note_off_c,9,44,0,
2,24750,Note_off_c,9,45,0,
2,24750,Note_off_c,9,46,0,
2,24750,Note_off_c,9,47,0,
2,24750,Note_off_c,9,48,0,
2,24750,Note_off_c,9,49,0,
2,24750,Note_off_c,9,50,0,
2,24750,Note_off_c,9,51,0,
2,24750,Note_off_c,9,56,0,
2,24750,Note_off_c,9,57,0,
2,24750,Note_off_c,9,59,0,
2,24750,Note_off_c,9,60,0,
2,24750,Note_off_c,9,61,0,
2,24750,Note_off_c,9,63,0,
2,24750,Note_off_c,9,68,0,
2,24750,Note_off_c,9,69,0,
2,24750,Note_off_c,9,70,0,
2,24750,Note_off_c,9,76,0,
2,24750,Note_off_c,9,80,0,
2,24750,Note_off_c,9,81,0,
2,24750,Note_off_c,9,82,0,
2,24750,Note_off_c,9,87,0,
2,24750,Note_off_c,9,88,0,
2,24750,Note_off_c,9,89,0,
2,24750,Note_off_c,9,91,0,
2,24750,Note_off_c,9,93,0,
2,24780,Note_off_c,9,35,0,
2,24780,Note_off_c,9,36,0,
2,24780,Note_off_c,9,37,0,
2,24780,Note_off_c,9,38,0,
2,24780,Note_off_c,9,39,0,
2,24780,Note_off_c,9,40,0,
2,24780,Note_off_c,9,41,0,
2,24780,Note_off_c,9,42,0,
2,24780,Note_off_c,9,43,0,
2,24780,Note_off_c,9,44,0,
2,24780,Note_off_c,9,45,0,
2,24780,Note_off_c,9,46,0,
2,24780,Note_off_c,9,47,0,
2,24780,Note_off_c,9,48,0,
2,24780,Note_off_c,9,49,0,
2,24780,Note_off_c,9,50,0,
2,24780,Note_off_c,9,51,0,
2,24780,Note_off_c,9,56,0,
2,24780,Note_off_c,9,57,0,
2,24780,Note_off_c,9,59,0,
2,24780,Note_off_c,9,60,0,
2,24780,Note_off_c,9,61,0,
2,24780,Note_off_c,9,63,0,
2,24780,Note_off_c,9,68,0,
2,24780,Note_off_c,9,69,0,
2,24780,Note_off_c,9,70,0,
2,24780,Note_off_c,9,76,0,
2,24780,Note_off_c,9,80,0,
2,24780,Note_off_c,9,81,0,
2,24780,Note_off_c,9,82,0,
2,24780,Note_off_c,9,87,0,
2,24780,Note_off_c,9,88,0,
2,24780,Note_off_c,9,89,0,
2,24780,Note_off_c,9,91,0,
2,24780,Note_off_c,9,93,0,
2,24810,Note_off_c,9,35,0,
2,24810,Note_off_c,9,36,0,
2,24810,Note_off_c,9,37,0,
2,24810,Note_off_c,9,38,0,
2,24810,Note_off_c,9,39,0,
2,24810,Note_off_c,9,40,0,
2,24810,Note_off_c,9,41,0,
2,24810,Note_off_c,9,42,0,
2,24810,Note_off_c,9,43,0,
2,24810,Note_off_c,9,44,0,
2,24810,Note_off_c,9,45,0,
2,24810,Note_off_c,9,46,0,
2,24810,Note_off_c,9,47,0,
2,24810,Note_off_c,9,48,0,
2,24810,Note_off_c,9,49,0,
2,24810,Note_off_c,9,50,0,
2,24810,Note_off_c,9,51,0,
2,24810,Note_off_c,9,56,0,
2,24810,Note_off_c,9,57,0,
2,24810,Note_off_c,9,59,0,
2,24810,Note_off_c,9,60,0,
2,24810,Note_off_c,9,61,0,
2,24810,Note_off_c,9,63,0,
2,24810,Note_off_c,9,68,0,
2,24810,Note_off_c,9,69,0,
2,24810,Note_off_c,9,70,0,
2,24810,Note_off_c,9,76,0,
2,24810,Note_off_c,9,80,0,
2,24810,Note_off_c,9,81,0,
2,24810,Note_off_c,9,82,0,
2,24810,Note_off_c,9,87,0,
2,24810,Note_off_c,9,88,0,
2,24810,Note_off_c,9,89,0,
2,24810,Note_off_c,9,91,0,
2,24810,Note_off_c,9,93,0,
2,24840,Note_off_c,9,35,0,
2,24840,Note_off_c,9,36,0,
2,24840,Note_off_c,9,37,0,
2,24840,Note_off_c,9,38,0,
2,24840,Note_off_c,9,39,0,
2,24840,Note_off_c,9,40,0,
2,24840,Note_off_c,9,41,0,
2,24840,Note_off_c,9,42,0,
2,24840,Note_off_c,9,43,0,
2,24840,Note_off_c,9,44,0,
2,24840,Note_off_c,9,45,0,
2,24840,Note_off_c,9,46,0,
2,24840,Note_off_c,9,47,0,
2,24840,Note_off_c,9,48,0,
2,24840,Note_off_c,9,49,0,
2,24840,Note_off_c,9,50,0,
2,24840,Note_off_c,9,51,0,
2,24840,Note_off_c,9,56,0,
2,24840,Note_off_c,9,57,0,
2,24840,Note_off_c,9,59,0,
2,24840,Note_off_c,9,60,0,
2,24840,Note_off_c,9,61,0,
2,24840,Note_off_c,9,63,0,
2,24840,Note_off_c,9,68,0,
2,24840,Note_off_c,9,69,0,
2,24840,Note_off_c,9,70,0,
2,24840,Note_off_c,9,76,0,
2,24840,Note_off_c,9,80,0,
2,24840,Note_off_c,9,81,0,
2,24840,Note_off_c,9,82,0,
2,24840,Note_off_c,9,87,0,
2,24840,Note_off_c,9,88,0,
2,24840,Note_off_c,9,89,0,
2,24840,Note_off_c,9,91,0,
2,24840,Note_off_c,9,93,0,
2,24870,Note_off_c,9,35,0,
2,24870,Note_off_c,9,36,0,
2,24870,Note_off_c,9,37,0,
2,24870,Note_off_c,9,38,0,
2,24870,Note_off_c,9,39,0,
2,24870,Note_off_c,9,40,0,
2,24870,Note_off_c,9,41,0,
2,24870,Note_off_c,9,42,0,
2,24870,Note_off_c,9,43,0,
2,24870,Note_off_c,9,44,0,
2,24870,Note_off_c,9,45,0,
2,24870,Note_off_c,9,46,0,
2,24870,Note_off_c,9,47,0,
2,24870,Note_off_c,9,48,0,
2,24870,Note_off_c,9,49,0,
2,24870,Note_off_c,9,50,0,
2,24870,Note_off_c,9,51,0,
2,24870,Note_off_c,9,56,0,
2,24870,Note_off_c,9,57,0,
2,24870,Note_off_c,9,59,0,
2,24870,Note_off_c,9,60,0,
2,24870,Note_off_c,9,61,0,
2,24870,Note_off_c,9,63,0,
2,24870,Note_off_c,9,68,0,
2,24870,Note_off_c,9,69,0,
2,24870,Note_off_c,9,70,0,
2,24870,Note_off_c,9,76,0,
2,24870,Note_off_c,9,80,0,
2,24870,Note_off_c,9,81,0,
2,24870,Note_off_c,9,82,0,
2,24870,Note_off_c,9,87,0,
2,24870,Note_off_c,9,88,0,
2,24870,Note_off_c,9,89,0,
2,24870,Note_off_c,9,91,0,
2,24870,Note_off_c,9,93,0,
2,24900,Note_off_c,9,35,0,
2,24900,Note_off_c,9,36,0,
2,24900,Note_off_c,9,37,0,
2,24900,Note_off_c,9,38,0,
2,24900,Note_off_c,9,39,0,
2,24900,Note_off_c,9,40,0,
2,24900,Note_off_c,9,41,0,
2,24900,Note_off_c,9,42,0,
2,24900,Note_off_c,9,43,0,
2,24900,Note_off_c,9,44,0,
2,24900,Note_off_c,9,45,0,
2,24900,Note_off_c,9,46,0,
2,24900,Note_off_c,9,47,0,
2,24900,Note_off_c,9,48,0,
2,24900,Note_off_c,9,49,0,
2,24900,Note_off_c,9,50,0,
2,24900,Note_off_c,9,51,0,
2,24900,Note_off_c,9,56,0,
2,24900,Note_off_c,9,57,0,
2,24900,Note_off_c,9,59,0,
2,24900,Note_off_c,9,60,0,
2,24900,Note_off_c,9,61,0,
2,24900,Note_off_c,9,63,0,
2,24900,Note_off_c,9,68,0,
2,24900,Note_off_c,9,69,0,
2,24900,Note_off_c,9,70,0,
2,24900,Note_off_c,9,76,0,
2,24900,Note_off_c,9,80,0,
2,24900,Note_off_c,9,81,0,
2,24900,Note_off_c,9,82,0,
2,24900,Note_off_c,9,87,0,
2,24900,Note_off_c,9,88,0,
2,24900,Note_off_c,9,89,0,
2,24900,Note_off_c,9,91,0,
2,24900,Note_off_c,9,93,0,
2,24930,Note_off_c,9,35,0,
2,24930,Note_off_c,9,36,0,
2,24930,Note_off_c,9,37,0,
2,24930,Note_off_c,9,38,0,
2,24930,Note_off_c,9,39,0,
2,24930,Note_off_c,9,40,0,
2,24930,Note_off_c,9,41,0,
2,24930,Note_off_c,9,42,0,
2,24930,Note_off_c,9,43,0,
2,24930,Note_off_c,9,44,0,
2,24930,Note_off_c,9,45,0,
2,24930,Note_off_c,9,46,0,
2,24930,Note_off_c,9,47,0,
2,24930,Note_off_c,9,48,0,
2,24930,Note_off_c,9,49,0,
2,24930,Note_off_c,9,50,0,
2,24930,Note_off_c,9,51,0,
2,24930,Note_off_c,9,56,0,
2,24930,Note_off_c,9,57,0,
2,24930,Note_off_c,9,59,0,
2,24930,Note_off_c,9,60,0,
2,24930,Note_off_c,9,61,0,
2,24930,Note_off_c,9,63,0,
2,24930,Note_off_c,9,68,0,
2,24930,Note_off_c,9,69,0,
2,24930,Note_off_c,9,70,0,
2,24930,Note_off_c,9,76,0,
2,24930,Note_off_c,9,80,0,
2,24930,Note_off_c,9,81,0,
2,24930,Note_off_c,9,82,0,
2,24930,Note_off_c,9,87,0,
2,24930,Note_off_c,9,88,0,
2,24930,Note_off_c,9,89,0,
2,24930,Note_off_c,9,91,0,
2,24930,Note_off_c,9,93,0,
2,24960,Note_off_c,9,35,0,
2,24960,Note_off_c,9,36,0,
2,24960,Note_off_c,9,37,0,
2,24960,Note_off_c,9,38,0,
2,24960,Note_off_c,9,39,0,
2,24960,Note_off_c,9,40,0,
2,24960,Note_off_c,9,41,0,
2,24960,Note_off_c,9,42,0,
2,24960,Note_off_c,9,43,0,
2,24960,Note_off_c,9,44,0,
2,24960,Note_off_c,9,45,0,
2,24960,Note_off_c,9,46,0,
2,24960,Note_off_c,9,47,0,
2,24960,Note_off_c,9,48,0,
2,24960,Note_off_c,9,49,0,
2,24960,Note_off_c,9,50,0,
2,24960,Note_off_c,9,51,0,
2,24960,Note_off_c,9,56,0,
2,24960,Note_off_c,9,57,0,
2,24960,Note_off_c,9,59,0,
2,24960,Note_off_c,9,60,0,
2,24960,Note_off_c,9,61,0,
2,24960,Note_off_c,9,63,0,
2,24960,Note_off_c,9,68,0,
2,24960,Note_off_c,9,69,0,
2,24960,Note_off_c,9,70,0,
2,24960,Note_off_c,9,76,0,
2,24960,Note_off_c,9,80,0,
2,24960,Note_off_c,9,81,0,
2,24960,Note_off_c,9,82,0,
2,24960,Note_off_c,9,87,0,
2,24960,Note_off_c,9,88,0,
2,24960,Note_off_c,9,89,0,
2,24960,Note_off_c,9,91,0,
2,24960,Note_off_c,9,93,0,
2,24990,Note_off_c,9,35,0,
2,24990,Note_off_c,9,36,0,
2,24990,Note_off_c,9,37,0,
2,24990,Note_off_c,9,38,0,
2,24990,Note_off_c,9,39,0,
2,24990,Note_off_c,9,40,0,
2,24990,Note_off_c,9,41,0,
2,24990,Note_off_c,9,42,0,
2,24990,Note_off_c,9,43,0,
2,24990,Note_off_c,9,44,0,
2,24990,Note_off_c,9,45,0,
2,24990,Note_off_c,9,46,0,
2,24990,Note_off_c,9,47,0,
2,24990,Note_off_c,9,48,0,
2,24990,Note_off_c,9,49,0,
2,24990,Note_off_c,9,50,0,
2,24990,Note_off_c,9,51,0,
2,24990,Note_off_c,9,56,0,
2,24990,Note_off_c,9,57,0,
2,24990,Note_off_c,9,59,0,
2,24990,Note_off_c,9,60,0,
2,24990,Note_off_c,9,61,0,
2,24990,Note_off_c,9,63,0,
2,24990,Note_off_c,9,68,0,
2,24990,Note_off_c,9,69,0,
2,24990,Note_off_c,9,70,0,
2,24990,Note_off_c,9,76,0,
2,24990,Note_off_c,9,80,0,
2,24990,Note_off_c,9,81,0,
2,24990,Note_off_c,9,82,0,
2,24990,Note_off_c,9,87,0,
2,24990,Note_off_c,9,88,0,
2,24990,Note_off_c,9,89,0,
2,24990,Note_off_c,9,91,0,
2,24990,Note_off_c,9,93,0,
2,25020,Note_off_c,9,35,0,
2,25020,Note_off_c,9,36,0,
2,25020,Note_off_c,9,37,0,
2,25020,Note_off_c,9,38,0,
2,25020,Note_off_c,9,39,0,
2,25020,Note_off_c,9,40,0,
2,25020,Note_off_c,9,41,0,
2,25020,Note_off_c,9,42,0,
2,25020,Note_off_c,9,43,0,
2,25020,Note_off_c,9,44,0,
2,25020,Note_off_c,9,45,0,
2,25020,Note_off_c,9,46,0,
2,25020,Note_off_c,9,47,0,
2,25020,Note_off_c,9,48,0,
2,25020,Note_off_c,9,49,0,
2,25020,Note_off_c,9,50,0,
2,25020,Note_off_c,9,51,0,
2,25020,Note_off_c,9,56,0,
2,25020,Note_off_c,9,57,0,
2,25020,Note_off_c,9,59,0,
2,25020,Note_off_c,9,60,0,
2,25020,Note_off_c,9,61,0,
2,25020,Note_off_c,9,63,0,
2,25020,Note_off_c,9,68,0,
2,25020,Note_off_c,9,69,0,
2,25020,Note_off_c,9,70,0,
2,25020,Note_off_c,9,76,0,
2,25020,Note_off_c,9,80,0,
2,25020,Note_off_c,9,81,0,
2,25020,Note_off_c,9,82,0,
2,25020,Note_off_c,9,87,0,
2,25020,Note_off_c,9,88,0,
2,25020,Note_off_c,9,89,0,
2,25020,Note_off_c,9,91,0,
2,25020,Note_off_c,9,93,0,
2,25050,Note_off_c,9,35,0,
2,25050,Note_off_c,9,36,0,
2,25050,Note_off_c,9,37,0,
2,25050,Note_off_c,9,38,0,
2,25050,Note_off_c,9,39,0,
2,25050,Note_off_c,9,40,0,
2,25050,Note_off_c,9,41,0,
2,25050,Note_off_c,9,42,0,
2,25050,Note_off_c,9,43,0,
2,25050,Note_off_c,9,44,0,
2,25050,Note_off_c,9,45,0,
2,25050,Note_off_c,9,46,0,
2,25050,Note_off_c,9,47,0,
2,25050,Note_off_c,9,48,0,
2,25050,Note_off_c,9,49,0,
2,25050,Note_off_c,9,50,0,
2,25050,Note_off_c,9,51,0,
2,25050,Note_off_c,9,56,0,
2,25050,Note_off_c,9,57,0,
2,25050,Note_off_c,9,59,0,
2,25050,Note_off_c,9,60,0,
2,25050,Note_off_c,9,61,0,
2,25050,Note_off_c,9,63,0,
2,25050,Note_off_c,9,68,0,
2,25050,Note_off_c,9,69,0,
2,25050,Note_off_c,9,70,0,
2,25050,Note_off_c,9,76,0,
2,25050,Note_off_c,9,80,0,
2,25050,Note_off_c,9,81,0,
2,25050,Note_off_c,9,82,0,
2,25050,Note_off_c,9,87,0,
2,25050,Note_off_c,9,88,0,
2,25050,Note_off_c,9,89,0,
2,25050,Note_off_c,9,91,0,
2,25050,Note_off_c,9,93,0,
2,25080,Note_off_c,9,35,0,
2,25080,Note_off_c,9,36,0,
2,25080,Note_off_c,9,37,0,
2,25080,Note_off_c,9,38,0,
2,25080,Note_off_c,9,39,0,
2,25080,Note_off_c,9,40,0,
2,25080,Note_off_c,9,41,0,
2,25080,Note_off_c,9,42,0,
2,25080,Note_off_c,9,43,0,
2,25080,Note_off_c,9,44,0,
2,25080,Note_off_c,9,45,0,
2,25080,Note_off_c,9,46,0,
2,25080,Note_off_c,9,47,0,
2,25080,Note_off_c,9,48,0,
2,25080,Note_off_c,9,49,0,
2,25080,Note_off_c,9,50,0,
2,25080,Note_off_c,9,51,0,
2,25080,Note_off_c,9,56,0,
2,25080,Note_off_c,9,57,0,
2,25080,Note_off_c,9,59,0,
2,25080,Note_off_c,9,60,0,
2,25080,Note_off_c,9,61,0,
2,25080,Note_off_c,9,63,0,
2,25080,Note_off_c,9,68,0,
2,25080,Note_off_c,9,69,0,
2,25080,Note_off_c,9,70,0,
2,25080,Note_off_c,9,76,0,
2,25080,Note_off_c,9,80,0,
2,25080,Note_off_c,9,81,0,
2,25080,Note_off_c,9,82,0,
2,25080,Note_off_c,9,87,0,
2,25080,Note_off_c,9,88,0,
2,25080,Note_off_c,9,89,0,
2,25080,Note_off_c,9,91,0,
2,25080,Note_off_c,9,93,0,
2,25110,Note_off_c,9,35,0,
2,25110,Note_off_c,9,36,0,
2,25110,Note_off_c,9,37,0,
2,25110,Note_off_c,9,38,0,
2,25110,Note_off_c,9,39,0,
2,25110,Note_off_c,9,40,0,
2,25110,Note_off_c,9,41,0,
2,25110,Note_off_c,9,42,0,
2,25110,Note_off_c,9,43,0,
2,25110,Note_off_c,9,44,0,
2,25110,Note_off_c,9,45,0,
2,25110,Note_off_c,9,46,0,
2,25110,Note_off_c,9,47,0,
2,25110,Note_off_c,9,48,0,
2,25110,Note_off_c,9,49,0,
2,25110,Note_off_c,9,50,0,
2,25110,Note_off_c,9,51,0,
2,25110,Note_off_c,9,56,0,
2,25110,Note_off_c,9,57,0,
2,25110,Note_off_c,9,59,0,
2,25110,Note_off_c,9,60,0,
2,25110,Note_off_c,9,61,0,
2,25110,Note_off_c,9,63,0,
2,25110,Note_off_c,9,68,0,
2,25110,Note_off_c,9,69,0,
2,25110,Note_off_c,9,70,0,
2,25110,Note_off_c,9,76,0,
2,25110,Note_off_c,9,80,0,
2,25110,Note_off_c,9,81,0,
2,25110,Note_off_c,9,82,0,
2,25110,Note_off_c,9,87,0,
2,25110,Note_off_c,9,88,0,
2,25110,Note_off_c,9,89,0,
2,25110,Note_off_c,9,91,0,
2,25110,Note_off_c,9,93,0,
2,25140,Note_off_c,9,35,0,
2,25140,Note_off_c,9,36,0,
2,25140,Note_off_c,9,37,0,
2,25140,Note_off_c,9,38,0,
2,25140,Note_off_c,9,39,0,
2,25140,Note_off_c,9,40,0,
2,25140,Note_off_c,9,41,0,
2,25140,Note_off_c,9,42,0,
2,25140,Note_off_c,9,43,0,
2,25140,Note_off_c,9,44,0,
2,25140,Note_off_c,9,45,0,
2,25140,Note_off_c,9,46,0,
2,25140,Note_off_c,9,47,0,
2,25140,Note_off_c,9,48,0,
2,25140,Note_off_c,9,49,0,
2,25140,Note_off_c,9,50,0,
2,25140,Note_off_c,9,51,0,
2,25140,Note_off_c,9,56,0,
2,25140,Note_off_c,9,57,0,
2,25140,Note_off_c,9,59,0,
2,25140,Note_off_c,9,60,0,
2,25140,Note_off_c,9,61,0,
2,25140,Note_off_c,9,63,0,
2,25140,Note_off_c,9,68,0,
2,25140,Note_off_c,9,69,0,
2,25140,Note_off_c,9,70,0,
2,25140,Note_off_c,9,76,0,
2,25140,Note_off_c,9,80,0,
2,25140,Note_off_c,9,81,0,
2,25140,Note_off_c,9,82,0,
2,25140,Note_off_c,9,87,0,
2,25140,Note_off_c,9,88,0,
2,25140,Note_off_c,9,89,0,
2,25140,Note_off_c,9,91,0,
2,25140,Note_off_c,9,93,0,
2,25170,Note_off_c,9,35,0,
2,25170,Note_off_c,9,36,0,
2,25170,Note_off_c,9,37,0,
2,25170,Note_off_c,9,38,0,
2,25170,Note_off_c,9,39,0,
2,25170,Note_off_c,9,40,0,
2,25170,Note_off_c,9,41,0,
2,25170,Note_off_c,9,42,0,
2,25170,Note_off_c,9,43,0,
2,25170,Note_off_c,9,44,0,
2,25170,Note_off_c,9,45,0,
2,25170,Note_off_c,9,46,0,
2,25170,Note_off_c,9,47,0,
2,25170,Note_off_c,9,48,0,
2,25170,Note_off_c,9,49,0,
2,25170,Note_off_c,9,50,0,
2,25170,Note_off_c,9,51,0,
2,25170,Note_off_c,9,56,0,
2,25170,Note_off_c,9,57,0,
2,25170,Note_off_c,9,59,0,
2,25170,Note_off_c,9,60,0,
2,25170,Note_off_c,9,61,0,
2,25170,Note_off_c,9,63,0,
2,25170,Note_off_c,9,68,0,
2,25170,Note_off_c,9,69,0,
2,25170,Note_off_c,9,70,0,
2,25170,Note_off_c,9,76,0,
2,25170,Note_off_c,9,80,0,
2,25170,Note_off_c,9,81,0,
2,25170,Note_off_c,9,82,0,
2,25170,Note_off_c,9,87,0,
2,25170,Note_off_c,9,88,0,
2,25170,Note_off_c,9,89,0,
2,25170,Note_off_c,9,91,0,
2,25170,Note_off_c,9,93,0,
2,25200,Note_off_c,9,35,0,
2,25200,Note_off_c,9,36,0,
2,25200,Note_off_c,9,37,0,
2,25200,Note_off_c,9,38,0,
2,25200,Note_off_c,9,39,0,
2,25200,Note_off_c,9,40,0,
2,25200,Note_off_c,9,41,0,
2,25200,Note_off_c,9,42,0,
2,25200,Note_off_c,9,43,0,
2,25200,Note_off_c,9,44,0,
2,25200,Note_off_c,9,45,0,
2,25200,Note_off_c,9,46,0,
2,25200,Note_off_c,9,47,0,
2,25200,Note_off_c,9,48,0,
2,25200,Note_off_c,9,49,0,
2,25200,Note_off_c,9,50,0,
2,25200,Note_off_c,9,51,0,
2,25200,Note_off_c,9,56,0,
2,25200,Note_off_c,9,57,0,
2,25200,Note_off_c,9,59,0,
2,25200,Note_off_c,9,60,0,
2,25200,Note_off_c,9,61,0,
2,25200,Note_off_c,9,63,0,
2,25200,Note_off_c,9,68,0,
2,25200,Note_off_c,9,69,0,
2,25200,Note_off_c,9,70,0,
2,25200,Note_off_c,9,76,0,
2,25200,Note_off_c,9,80,0,
2,25200,Note_off_c,9,81,0,
2,25200,Note_off_c,9,82,0,
2,25200,Note_off_c,9,87,0,
2,25200,Note_off_c,9,88,0,
2,25200,Note_off_c,9,89,0,
2,25200,Note_off_c,9,91,0,
2,25200,Note_off_c,9,93,0,
2,25230,Note_off_c,9,35,0,
2,25230,Note_off_c,9,36,0,
2,25230,Note_off_c,9,37,0,
2,25230,Note_off_c,9,38,0,
2,25230,Note_off_c,9,39,0,
2,25230,Note_off_c,9,40,0,
2,25230,Note_off_c,9,41,0,
2,25230,Note_off_c,9,42,0,
2,25230,Note_off_c,9,43,0,
2,25230,Note_off_c,9,44,0,
2,25230,Note_off_c,9,45,0,
2,25230,Note_off_c,9,46,0,
2,25230,Note_off_c,9,47,0,
2,25230,Note_off_c,9,48,0,
2,25230,Note_off_c,9,49,0,
2,25230,Note_off_c,9,50,0,
2,25230,Note_off_c,9,51,0,
2,25230,Note_off_c,9,56,0,
2,25230,Note_off_c,9,57,0,
2,25230,Note_off_c,9,59,0,
2,25230,Note_off_c,9,60,0,
2,25230,Note_off_c,9,61,0,
2,25230,Note_off_c,9,63,0,
2,25230,Note_off_c,9,68,0,
2,25230,Note_off_c,9,69,0,
2,25230,Note_off_c,9,70,0,
2,25230,Note_off_c,9,76,0,
2,25230,Note_off_c,9,80,0,
2,25230,Note_off_c,9,81,0,
2,25230,Note_off_c,9,82,0,
2,25230,Note_off_c,9,87,0,
2,25230,Note_off_c,9,88,0,
2,25230,Note_off_c,9,89,0,
2,25230,Note_off_c,9,91,0,
2,25230,Note_off_c,9,93,0,
2,25260,Note_off_c,9,35,0,
2,25260,Note_off_c,9,36,0,
2,25260,Note_off_c,9,37,0,
2,25260,Note_off_c,9,38,0,
2,25260,Note_off_c,9,39,0,
2,25260,Note_off_c,9,40,0,
2,25260,Note_off_c,9,41,0,
2,25260,Note_off_c,9,42,0,
2,25260,Note_off_c,9,43,0,
2,25260,Note_off_c,9,44,0,
2,25260,Note_off_c,9,45,0,
2,25260,Note_off_c,9,46,0,
2,25260,Note_off_c,9,47,0,
2,25260,Note_off_c,9,48,0,
2,25260,Note_off_c,9,49,0,
2,25260,Note_off_c,9,50,0,
2,25260,Note_off_c,9,51,0,
2,25260,Note_off_c,9,56,0,
2,25260,Note_off_c,9,57,0,
2,25260,Note_off_c,9,59,0,
2,25260,Note_off_c,9,60,0,
2,25260,Note_off_c,9,61,0,
2,25260,Note_off_c,9,63,0,
2,25260,Note_off_c,9,68,0,
2,25260,Note_off_c,9,69,0,
2,25260,Note_off_c,9,70,0,
2,25260,Note_off_c,9,76,0,
2,25260,Note_off_c,9,80,0,
2,25260,Note_off_c,9,81,0,
2,25260,Note_off_c,9,82,0,
2,25260,Note_off_c,9,87,0,
2,25260,Note_off_c,9,88,0,
2,25260,Note_off_c,9,89,0,
2,25260,Note_off_c,9,91,0,
2,25260,Note_off_c,9,93,0,
2,25290,Note_off_c,9,35,0,
2,25290,Note_off_c,9,36,0,
2,25290,Note_off_c,9,37,0,
2,25290,Note_off_c,9,38,0,
2,25290,Note_off_c,9,39,0,
2,25290,Note_off_c,9,40,0,
2,25290,Note_off_c,9,41,0,
2,25290,Note_off_c,9,42,0,
2,25290,Note_off_c,9,43,0,
2,25290,Note_off_c,9,44,0,
2,25290,Note_off_c,9,45,0,
2,25290,Note_off_c,9,46,0,
2,25290,Note_off_c,9,47,0,
2,25290,Note_off_c,9,48,0,
2,25290,Note_off_c,9,49,0,
2,25290,Note_off_c,9,50,0,
2,25290,Note_off_c,9,51,0,
2,25290,Note_off_c,9,56,0,
2,25290,Note_off_c,9,57,0,
2,25290,Note_off_c,9,59,0,
2,25290,Note_off_c,9,60,0,
2,25290,Note_off_c,9,61,0,
2,25290,Note_off_c,9,63,0,
2,25290,Note_off_c,9,68,0,
2,25290,Note_off_c,9,69,0,
2,25290,Note_off_c,9,70,0,
2,25290,Note_off_c,9,76,0,
2,25290,Note_off_c,9,80,0,
2,25290,Note_off_c,9,81,0,
2,25290,Note_off_c,9,82,0,
2,25290,Note_off_c,9,87,0,
2,25290,Note_off_c,9,88,0,
2,25290,Note_off_c,9,89,0,
2,25290,Note_off_c,9,91,0,
2,25290,Note_off_c,9,93,0,
2,25320,Note_off_c,9,35,0,
2,25320,Note_off_c,9,36,0,
2,25320,Note_off_c,9,37,0,
2,25320,Note_off_c,9,38,0,
2,25320,Note_off_c,9,39,0,
2,25320,Note_off_c,9,40,0,
2,25320,Note_off_c,9,41,0,
2,25320,Note_off_c,9,42,0,
2,25320,Note_off_c,9,43,0,
2,25320,Note_off_c,9,44,0,
2,25320,Note_off_c,9,45,0,
2,25320,Note_off_c,9,46,0,
2,25320,Note_off_c,9,47,0,
2,25320,Note_off_c,9,48,0,
2,25320,Note_off_c,9,49,0,
2,25320,Note_off_c,9,50,0,
2,25320,Note_off_c,9,51,0,
2,25320,Note_off_c,9,56,0,
2,25320,Note_off_c,9,57,0,
2,25320,Note_off_c,9,59,0,
2,25320,Note_off_c,9,60,0,
2,25320,Note_off_c,9,61,0,
2,25320,Note_off_c,9,63,0,
2,25320,Note_off_c,9,68,0,
2,25320,Note_off_c,9,69,0,
2,25320,Note_off_c,9,70,0,
2,25320,Note_off_c,9,76,0,
2,25320,Note_off_c,9,80,0,
2,25320,Note_off_c,9,81,0,
2,25320,Note_off_c,9,82,0,
2,25320,Note_off_c,9,87,0,
2,25320,Note_off_c,9,88,0,
2,25320,Note_off_c,9,89,0,
2,25320,Note_off_c,9,91,0,
2,25320,Note_off_c,9,93,0,
2,25350,Note_off_c,9,35,0,
2,25350,Note_off_c,9,36,0,
2,25350,Note_off_c,9,37,0,
2,25350,Note_off_c,9,38,0,
2,25350,Note_off_c,9,39,0,
2,25350,Note_off_c,9,40,0,
2,25350,Note_off_c,9,41,0,
2,25350,Note_off_c,9,42,0,
2,25350,Note_off_c,9,43,0,
2,25350,Note_off_c,9,44,0,
2,25350,Note_off_c,9,45,0,
2,25350,Note_off_c,9,46,0,
2,25350,Note_off_c,9,47,0,
2,25350,Note_off_c,9,48,0,
2,25350,Note_off_c,9,49,0,
2,25350,Note_off_c,9,50,0,
2,25350,Note_off_c,9,51,0,
2,25350,Note_off_c,9,56,0,
2,25350,Note_off_c,9,57,0,
2,25350,Note_off_c,9,59,0,
2,25350,Note_off_c,9,60,0,
2,25350,Note_off_c,9,61,0,
2,25350,Note_off_c,9,63,0,
2,25350,Note_off_c,9,68,0,
2,25350,Note_off_c,9,69,0,
2,25350,Note_off_c,9,70,0,
2,25350,Note_off_c,9,76,0,
2,25350,Note_off_c,9,80,0,
2,25350,Note_off_c,9,81,0,
2,25350,Note_off_c,9,82,0,
2,25350,Note_off_c,9,87,0,
2,25350,Note_off_c,9,88,0,
2,25350,Note_off_c,9,89,0,
2,25350,Note_off_c,9,91,0,
2,25350,Note_off_c,9,93,0,
2,25380,Note_off_c,9,35,0,
2,25380,Note_off_c,9,36,0,
2,25380,Note_off_c,9,37,0,
2,25380,Note_off_c,9,38,0,
2,25380,Note_off_c,9,39,0,
2,25380,Note_off_c,9,40,0,
2,25380,Note_off_c,9,41,0,
2,25380,Note_off_c,9,42,0,
2,25380,Note_off_c,9,43,0,
2,25380,Note_off_c,9,44,0,
2,25380,Note_off_c,9,45,0,
2,25380,Note_off_c,9,46,0,
2,25380,Note_off_c,9,47,0,
2,25380,Note_off_c,9,48,0,
2,25380,Note_off_c,9,49,0,
2,25380,Note_off_c,9,50,0,
2,25380,Note_off_c,9,51,0,
2,25380,Note_off_c,9,56,0,
2,25380,Note_off_c,9,57,0,
2,25380,Note_off_c,9,59,0,
2,25380,Note_off_c,9,60,0,
2,25380,Note_off_c,9,61,0,
2,25380,Note_off_c,9,63,0,
2,25380,Note_off_c,9,68,0,
2,25380,Note_off_c,9,69,0,
2,25380,Note_off_c,9,70,0,
2,25380,Note_off_c,9,76,0,
2,25380,Note_off_c,9,80,0,
2,25380,Note_off_c,9,81,0,
2,25380,Note_off_c,9,82,0,
2,25380,Note_off_c,9,87,0,
2,25380,Note_off_c,9,88,0,
2,25380,Note_off_c,9,89,0,
2,25380,Note_off_c,9,91,0,
2,25380,Note_off_c,9,93,0,
2,25410,Note_off_c,9,35,0,
2,25410,Note_off_c,9,36,0,
2,25410,Note_off_c,9,37,0,
2,25410,Note_off_c,9,38,0,
2,25410,Note_off_c,9,39,0,
2,25410,Note_off_c,9,40,0,
2,25410,Note_off_c,9,41,0,
2,25410,Note_off_c,9,42,0,
2,25410,Note_off_c,9,43,0,
2,25410,Note_off_c,9,44,0,
2,25410,Note_off_c,9,45,0,
2,25410,Note_off_c,9,46,0,
2,25410,Note_off_c,9,47,0,
2,25410,Note_off_c,9,48,0,
2,25410,Note_off_c,9,49,0,
2,25410,Note_off_c,9,50,0,
2,25410,Note_off_c,9,51,0,
2,25410,Note_off_c,9,56,0,
2,25410,Note_off_c,9,57,0,
2,25410,Note_off_c,9,59,0,
2,25410,Note_off_c,9,60,0,
2,25410,Note_off_c,9,61,0,
2,25410,Note_off_c,9,63,0,
2,25410,Note_off_c,9,68,0,
2,25410,Note_off_c,9,69,0,
2,25410,Note_off_c,9,70,0,
2,25410,Note_off_c,9,76,0,
2,25410,Note_off_c,9,80,0,
2,25410,Note_off_c,9,81,0,
2,25410,Note_off_c,9,82,0,
2,25410,Note_off_c,9,87,0,
2,25410,Note_off_c,9,88,0,
2,25410,Note_off_c,9,89,0,
2,25410,Note_off_c,9,91,0,
2,25410,Note_off_c,9,93,0,
2,25440,Note_off_c,9,35,0,
2,25440,Note_off_c,9,36,0,
2,25440,Note_off_c,9,37,0,
2,25440,Note_off_c,9,38,0,
2,25440,Note_off_c,9,39,0,
2,25440,Note_off_c,9,40,0,
2,25440,Note_off_c,9,41,0,
2,25440,Note_off_c,9,42,0,
2,25440,Note_off_c,9,43,0,
2,25440,Note_off_c,9,44,0,
2,25440,Note_off_c,9,45,0,
2,25440,Note_off_c,9,46,0,
2,25440,Note_off_c,9,47,0,
2,25440,Note_off_c,9,48,0,
2,25440,Note_off_c,9,49,0,
2,25440,Note_off_c,9,50,0,
2,25440,Note_off_c,9,51,0,
2,25440,Note_off_c,9,56,0,
2,25440,Note_off_c,9,57,0,
2,25440,Note_off_c,9,59,0,
2,25440,Note_off_c,9,60,0,
2,25440,Note_off_c,9,61,0,
2,25440,Note_off_c,9,63,0,
2,25440,Note_off_c,9,68,0,
2,25440,Note_off_c,9,69,0,
2,25440,Note_off_c,9,70,0,
2,25440,Note_off_c,9,76,0,
2,25440,Note_off_c,9,80,0,
2,25440,Note_off_c,9,81,0,
2,25440,Note_off_c,9,82,0,
2,25440,Note_off_c,9,87,0,
2,25440,Note_off_c,9,88,0,
2,25440,Note_off_c,9,89,0,
2,25440,Note_off_c,9,91,0,
2,25440,Note_off_c,9,93,0,
2,25470,Note_off_c,9,35,0,
2,25470,Note_off_c,9,36,0,
2,25470,Note_off_c,9,37,0,
2,25470,Note_off_c,9,38,0,
2,25470,Note_off_c,9,39,0,
2,25470,Note_off_c,9,40,0,
2,25470,Note_off_c,9,41,0,
2,25470,Note_off_c,9,42,0,
2,25470,Note_off_c,9,43,0,
2,25470,Note_off_c,9,44,0,
2,25470,Note_off_c,9,45,0,
2,25470,Note_off_c,9,46,0,
2,25470,Note_off_c,9,47,0,
2,25470,Note_off_c,9,48,0,
2,25470,Note_off_c,9,49,0,
2,25470,Note_off_c,9,50,0,
2,25470,Note_off_c,9,51,0,
2,25470,Note_off_c,9,56,0,
2,25470,Note_off_c,9,57,0,
2,25470,Note_off_c,9,59,0,
2,25470,Note_off_c,9,60,0,
2,25470,Note_off_c,9,61,0,
2,25470,Note_off_c,9,63,0,
2,25470,Note_off_c,9,68,0,
2,25470,Note_off_c,9,69,0,
2,25470,Note_off_c,9,70,0,
2,25470,Note_off_c,9,76,0,
2,25470,Note_off_c,9,80,0,
2,25470,Note_off_c,9,81,0,
2,25470,Note_off_c,9,82,0,
2,25470,Note_off_c,9,87,0,
2,25470,Note_off_c,9,88,0,
2,25470,Note_off_c,9,89,0,
2,25470,Note_off_c,9,91,0,
2,25470,Note_off_c,9,93,0,
2,25500,Note_off_c,9,35,0,
2,25500,Note_off_c,9,36,0,
2,25500,Note_off_c,9,37,0,
2,25500,Note_off_c,9,38,0,
2,25500,Note_off_c,9,39,0,
2,25500,Note_off_c,9,40,0,
2,25500,Note_off_c,9,41,0,
2,25500,Note_off_c,9,42,0,
2,25500,Note_off_c,9,43,0,
2,25500,Note_off_c,9,44,0,
2,25500,Note_off_c,9,45,0,
2,25500,Note_off_c,9,46,0,
2,25500,Note_off_c,9,47,0,
2,25500,Note_off_c,9,48,0,
2,25500,Note_off_c,9,49,0,
2,25500,Note_off_c,9,50,0,
2,25500,Note_off_c,9,51,0,
2,25500,Note_off_c,9,56,0,
2,25500,Note_off_c,9,57,0,
2,25500,Note_off_c,9,59,0,
2,25500,Note_off_c,9,60,0,
2,25500,Note_off_c,9,61,0,
2,25500,Note_off_c,9,63,0,
2,25500,Note_off_c,9,68,0,
2,25500,Note_off_c,9,69,0,
2,25500,Note_off_c,9,70,0,
2,25500,Note_off_c,9,76,0,
2,25500,Note_off_c,9,80,0,
2,25500,Note_off_c,9,81,0,
2,25500,Note_off_c,9,82,0,
2,25500,Note_off_c,9,87,0,
2,25500,Note_off_c,9,88,0,
2,25500,Note_off_c,9,89,0,
2,25500,Note_off_c,9,91,0,
2,25500,Note_off_c,9,93,0,
2,25530,Note_off_c,9,35,0,
2,25530,Note_off_c,9,36,0,
2,25530,Note_off_c,9,37,0,
2,25530,Note_off_c,9,38,0,
2,25530,Note_off_c,9,39,0,
2,25530,Note_off_c,9,40,0,
2,25530,Note_off_c,9,41,0,
2,25530,Note_off_c,9,42,0,
2,25530,Note_off_c,9,43,0,
2,25530,Note_off_c,9,44,0,
2,25530,Note_off_c,9,45,0,
2,25530,Note_off_c,9,46,0,
2,25530,Note_off_c,9,47,0,
2,25530,Note_off_c,9,48,0,
2,25530,Note_off_c,9,49,0,
2,25530,Note_off_c,9,50,0,
2,25530,Note_off_c,9,51,0,
2,25530,Note_off_c,9,56,0,
2,25530,Note_off_c,9,57,0,
2,25530,Note_off_c,9,59,0,
2,25530,Note_off_c,9,60,0,
2,25530,Note_off_c,9,61,0,
2,25530,Note_off_c,9,63,0,
2,25530,Note_off_c,9,68,0,
2,25530,Note_off_c,9,69,0,
2,25530,Note_off_c,9,70,0,
2,25530,Note_off_c,9,76,0,
2,25530,Note_off_c,9,80,0,
2,25530,Note_off_c,9,81,0,
2,25530,Note_off_c,9,82,0,
2,25530,Note_off_c,9,87,0,
2,25530,Note_off_c,9,88,0,
2,25530,Note_off_c,9,89,0,
2,25530,Note_off_c,9,91,0,
2,25530,Note_off_c,9,93,0,
2,25560,Note_off_c,9,35,0,
2,25560,Note_off_c,9,36,0,
2,25560,Note_off_c,9,37,0,
2,25560,Note_off_c,9,38,0,
2,25560,Note_off_c,9,39,0,
2,25560,Note_off_c,9,40,0,
2,25560,Note_off_c,9,41,0,
2,25560,Note_off_c,9,42,0,
2,25560,Note_off_c,9,43,0,
2,25560,Note_off_c,9,44,0,
2,25560,Note_off_c,9,45,0,
2,25560,Note_off_c,9,46,0,
2,25560,Note_off_c,9,47,0,
2,25560,Note_off_c,9,48,0,
2,25560,Note_off_c,9,49,0,
2,25560,Note_off_c,9,50,0,
2,25560,Note_off_c,9,51,0,
2,25560,Note_off_c,9,56,0,
2,25560,Note_off_c,9,57,0,
2,25560,Note_off_c,9,59,0,
2,25560,Note_off_c,9,60,0,
2,25560,Note_off_c,9,61,0,
2,25560,Note_off_c,9,63,0,
2,25560,Note_off_c,9,68,0,
2,25560,Note_off_c,9,69,0,
2,25560,Note_off_c,9,70,0,
2,25560,Note_off_c,9,76,0,
2,25560,Note_off_c,9,80,0,
2,25560,Note_off_c,9,81,0,
2,25560,Note_off_c,9,82,0,
2,25560,Note_off_c,9,87,0,
2,25560,Note_off_c,9,88,0,
2,25560,Note_off_c,9,89,0,
2,25560,Note_off_c,9,91,0,
2,25560,Note_off_c,9,93,0,
2,25590,Note_off_c,9,35,0,
2,25590,Note_off_c,9,36,0,
2,25590,Note_off_c,9,37,0,
2,25590,Note_off_c,9,38,0,
2,25590,Note_off_c,9,39,0,
2,25590,Note_off_c,9,40,0,
2,25590,Note_off_c,9,41,0,
2,25590,Note_off_c,9,42,0,
2,25590,Note_off_c,9,43,0,
2,25590,Note_off_c,9,44,0,
2,25590,Note_off_c,9,45,0,
2,25590,Note_off_c,9,46,0,
2,25590,Note_off_c,9,47,0,
2,25590,Note_off_c,9,48,0,
2,25590,Note_off_c,9,49,0,
2,25590,Note_off_c,9,50,0,
2,25590,Note_off_c,9,51,0,
2,25590,Note_off_c,9,56,0,
2,25590,Note_off_c,9,57,0,
2,25590,Note_off_c,9,59,0,
2,25590,Note_off_c,9,60,0,
2,25590,Note_off_c,9,61,0,
2,25590,Note_off_c,9,63,0,
2,25590,Note_off_c,9,68,0,
2,25590,Note_off_c,9,69,0,
2,25590,Note_off_c,9,70,0,
2,25590,Note_off_c,9,76,0,
2,25590,Note_off_c,9,80,0,
2,25590,Note_off_c,9,81,0,
2,25590,Note_off_c,9,82,0,
2,25590,Note_off_c,9,87,0,
2,25590,Note_off_c,9,88,0,
2,25590,Note_off_c,9,89,0,
2,25590,Note_off_c,9,91,0,
2,25590,Note_off_c,9,93,0,
2,25620,Note_off_c,9,35,0,
2,25620,Note_off_c,9,36,0,
2,25620,Note_off_c,9,37,0,
2,25620,Note_off_c,9,38,0,
2,25620,Note_off_c,9,39,0,
2,25620,Note_off_c,9,40,0,
2,25620,Note_off_c,9,41,0,
2,25620,Note_off_c,9,42,0,
2,25620,Note_off_c,9,43,0,
2,25620,Note_off_c,9,44,0,
2,25620,Note_off_c,9,45,0,
2,25620,Note_off_c,9,46,0,
2,25620,Note_off_c,9,47,0,
2,25620,Note_off_c,9,48,0,
2,25620,Note_off_c,9,49,0,
2,25620,Note_off_c,9,50,0,
2,25620,Note_off_c,9,51,0,
2,25620,Note_off_c,9,56,0,
2,25620,Note_off_c,9,57,0,
2,25620,Note_off_c,9,59,0,
2,25620,Note_off_c,9,60,0,
2,25620,Note_off_c,9,61,0,
2,25620,Note_off_c,9,63,0,
2,25620,Note_off_c,9,68,0,
2,25620,Note_off_c,9,69,0,
2,25620,Note_off_c,9,70,0,
2,25620,Note_off_c,9,76,0,
2,25620,Note_off_c,9,80,0,
2,25620,Note_off_c,9,81,0,
2,25620,Note_off_c,9,82,0,
2,25620,Note_off_c,9,87,0,
2,25620,Note_off_c,9,88,0,
2,25620,Note_off_c,9,89,0,
2,25620,Note_off_c,9,91,0,
2,25620,Note_off_c,9,93,0,
2,25650,Note_off_c,9,35,0,
2,25650,Note_off_c,9,36,0,
2,25650,Note_off_c,9,37,0,
2,25650,Note_off_c,9,38,0,
2,25650,Note_off_c,9,39,0,
2,25650,Note_off_c,9,40,0,
2,25650,Note_off_c,9,41,0,
2,25650,Note_off_c,9,42,0,
2,25650,Note_off_c,9,43,0,
2,25650,Note_off_c,9,44,0,
2,25650,Note_off_c,9,45,0,
2,25650,Note_off_c,9,46,0,
2,25650,Note_off_c,9,47,0,
2,25650,Note_off_c,9,48,0,
2,25650,Note_off_c,9,49,0,
2,25650,Note_off_c,9,50,0,
2,25650,Note_off_c,9,51,0,
2,25650,Note_off_c,9,56,0,
2,25650,Note_off_c,9,57,0,
2,25650,Note_off_c,9,59,0,
2,25650,Note_off_c,9,60,0,
2,25650,Note_off_c,9,61,0,
2,25650,Note_off_c,9,63,0,
2,25650,Note_off_c,9,68,0,
2,25650,Note_off_c,9,69,0,
2,25650,Note_off_c,9,70,0,
2,25650,Note_off_c,9,76,0,
2,25650,Note_off_c,9,80,0,
2,25650,Note_off_c,9,81,0,
2,25650,Note_off_c,9,82,0,
2,25650,Note_off_c,9,87,0,
2,25650,Note_off_c,9,88,0,
2,25650,Note_off_c,9,89,0,
2,25650,Note_off_c,9,91,0,
2,25650,Note_off_c,9,93,0,
2,25680,Note_off_c,9,35,0,
2,25680,Note_off_c,9,36,0,
2,25680,Note_off_c,9,37,0,
2,25680,Note_off_c,9,38,0,
2,25680,Note_off_c,9,39,0,
2,25680,Note_off_c,9,40,0,
2,25680,Note_off_c,9,41,0,
2,25680,Note_off_c,9,42,0,
2,25680,Note_off_c,9,43,0,
2,25680,Note_off_c,9,44,0,
2,25680,Note_off_c,9,45,0,
2,25680,Note_off_c,9,46,0,
2,25680,Note_off_c,9,47,0,
2,25680,Note_off_c,9,48,0,
2,25680,Note_off_c,9,49,0,
2,25680,Note_off_c,9,50,0,
2,25680,Note_off_c,9,51,0,
2,25680,Note_off_c,9,56,0,
2,25680,Note_off_c,9,57,0,
2,25680,Note_off_c,9,59,0,
2,25680,Note_off_c,9,60,0,
2,25680,Note_off_c,9,61,0,
2,25680,Note_off_c,9,63,0,
2,25680,Note_off_c,9,68,0,
2,25680,Note_off_c,9,69,0,
2,25680,Note_off_c,9,70,0,
2,25680,Note_off_c,9,76,0,
2,25680,Note_off_c,9,80,0,
2,25680,Note_off_c,9,81,0,
2,25680,Note_off_c,9,82,0,
2,25680,Note_off_c,9,87,0,
2,25680,Note_off_c,9,88,0,
2,25680,Note_off_c,9,89,0,
2,25680,Note_off_c,9,91,0,
2,25680,Note_off_c,9,93,0,
2,25710,Note_off_c,9,35,0,
2,25710,Note_off_c,9,36,0,
2,25710,Note_off_c,9,37,0,
2,25710,Note_off_c,9,38,0,
2,25710,Note_off_c,9,39,0,
2,25710,Note_off_c,9,40,0,
2,25710,Note_off_c,9,41,0,
2,25710,Note_off_c,9,42,0,
2,25710,Note_off_c,9,43,0,
2,25710,Note_off_c,9,44,0,
2,25710,Note_off_c,9,45,0,
2,25710,Note_off_c,9,46,0,
2,25710,Note_off_c,9,47,0,
2,25710,Note_off_c,9,48,0,
2,25710,Note_off_c,9,49,0,
2,25710,Note_off_c,9,50,0,
2,25710,Note_off_c,9,51,0,
2,25710,Note_off_c,9,56,0,
2,25710,Note_off_c,9,57,0,
2,25710,Note_off_c,9,59,0,
2,25710,Note_off_c,9,60,0,
2,25710,Note_off_c,9,61,0,
2,25710,Note_off_c,9,63,0,
2,25710,Note_off_c,9,68,0,
2,25710,Note_off_c,9,69,0,
2,25710,Note_off_c,9,70,0,
2,25710,Note_off_c,9,76,0,
2,25710,Note_off_c,9,80,0,
2,25710,Note_off_c,9,81,0,
2,25710,Note_off_c,9,82,0,
2,25710,Note_off_c,9,87,0,
2,25710,Note_off_c,9,88,0,
2,25710,Note_off_c,9,89,0,
2,25710,Note_off_c,9,91,0,
2,25710,Note_off_c,9,93,0,
2,25740,Note_off_c,9,35,0,
2,25740,Note_off_c,9,36,0,
2,25740,Note_off_c,9,37,0,
2,25740,Note_off_c,9,38,0,
2,25740,Note_off_c,9,39,0,
2,25740,Note_off_c,9,40,0,
2,25740,Note_off_c,9,41,0,
2,25740,Note_off_c,9,42,0,
2,25740,Note_off_c,9,43,0,
2,25740,Note_off_c,9,44,0,
2,25740,Note_off_c,9,45,0,
2,25740,Note_off_c,9,46,0,
2,25740,Note_off_c,9,47,0,
2,25740,Note_off_c,9,48,0,
2,25740,Note_off_c,9,49,0,
2,25740,Note_off_c,9,50,0,
2,25740,Note_off_c,9,51,0,
2,25740,Note_off_c,9,56,0,
2,25740,Note_off_c,9,57,0,
2,25740,Note_off_c,9,59,0,
2,25740,Note_off_c,9,60,0,
2,25740,Note_off_c,9,61,0,
2,25740,Note_off_c,9,63,0,
2,25740,Note_off_c,9,68,0,
2,25740,Note_off_c,9,69,0,
2,25740,Note_off_c,9,70,0,
2,25740,Note_off_c,9,76,0,
2,25740,Note_off_c,9,80,0,
2,25740,Note_off_c,9,81,0,
2,25740,Note_off_c,9,82,0,
2,25740,Note_off_c,9,87,0,
2,25740,Note_off_c,9,88,0,
2,25740,Note_off_c,9,89,0,
2,25740,Note_off_c,9,91,0,
2,25740,Note_off_c,9,93,0,
2,25770,Note_off_c,9,35,0,
2,25770,Note_off_c,9,36,0,
2,25770,Note_off_c,9,37,0,
2,25770,Note_off_c,9,38,0,
2,25770,Note_off_c,9,39,0,
2,25770,Note_off_c,9,40,0,
2,25770,Note_off_c,9,41,0,
2,25770,Note_off_c,9,42,0,
2,25770,Note_off_c,9,43,0,
2,25770,Note_off_c,9,44,0,
2,25770,Note_off_c,9,45,0,
2,25770,Note_off_c,9,46,0,
2,25770,Note_off_c,9,47,0,
2,25770,Note_off_c,9,48,0,
2,25770,Note_off_c,9,49,0,
2,25770,Note_off_c,9,50,0,
2,25770,Note_off_c,9,51,0,
2,25770,Note_off_c,9,56,0,
2,25770,Note_off_c,9,57,0,
2,25770,Note_off_c,9,59,0,
2,25770,Note_off_c,9,60,0,
2,25770,Note_off_c,9,61,0,
2,25770,Note_off_c,9,63,0,
2,25770,Note_off_c,9,68,0,
2,25770,Note_off_c,9,69,0,
2,25770,Note_off_c,9,70,0,
2,25770,Note_off_c,9,76,0,
2,25770,Note_off_c,9,80,0,
2,25770,Note_off_c,9,81,0,
2,25770,Note_off_c,9,82,0,
2,25770,Note_off_c,9,87,0,
2,25770,Note_off_c,9,88,0,
2,25770,Note_off_c,9,89,0,
2,25770,Note_off_c,9,91,0,
2,25770,Note_off_c,9,93,0,
2,25800,Note_off_c,9,35,0,
2,25800,Note_off_c,9,36,0,
2,25800,Note_off_c,9,37,0,
2,25800,Note_off_c,9,38,0,
2,25800,Note_off_c,9,39,0,
2,25800,Note_off_c,9,40,0,
2,25800,Note_off_c,9,41,0,
2,25800,Note_off_c,9,42,0,
2,25800,Note_off_c,9,43,0,
2,25800,Note_off_c,9,44,0,
2,25800,Note_off_c,9,45,0,
2,25800,Note_off_c,9,46,0,
2,25800,Note_off_c,9,47,0,
2,25800,Note_off_c,9,48,0,
2,25800,Note_off_c,9,49,0,
2,25800,Note_off_c,9,50,0,
2,25800,Note_off_c,9,51,0,
2,25800,Note_off_c,9,56,0,
2,25800,Note_off_c,9,57,0,
2,25800,Note_off_c,9,59,0,
2,25800,Note_off_c,9,60,0,
2,25800,Note_off_c,9,61,0,
2,25800,Note_off_c,9,63,0,
2,25800,Note_off_c,9,68,0,
2,25800,Note_off_c,9,69,0,
2,25800,Note_off_c,9,70,0,
2,25800,Note_off_c,9,76,0,
2,25800,Note_off_c,9,80,0,
2,25800,Note_off_c,9,81,0,
2,25800,Note_off_c,9,82,0,
2,25800,Note_off_c,9,87,0,
2,25800,Note_off_c,9,88,0,
2,25800,Note_off_c,9,89,0,
2,25800,Note_off_c,9,91,0,
2,25800,Note_off_c,9,93,0,
2,25830,Note_off_c,9,35,0,
2,25830,Note_off_c,9,36,0,
2,25830,Note_off_c,9,37,0,
2,25830,Note_off_c,9,38,0,
2,25830,Note_off_c,9,39,0,
2,25830,Note_off_c,9,40,0,
2,25830,Note_off_c,9,41,0,
2,25830,Note_off_c,9,42,0,
2,25830,Note_off_c,9,43,0,
2,25830,Note_off_c,9,44,0,
2,25830,Note_off_c,9,45,0,
2,25830,Note_off_c,9,46,0,
2,25830,Note_off_c,9,47,0,
2,25830,Note_off_c,9,48,0,
2,25830,Note_off_c,9,49,0,
2,25830,Note_off_c,9,50,0,
2,25830,Note_off_c,9,51,0,
2,25830,Note_off_c,9,56,0,
2,25830,Note_off_c,9,57,0,
2,25830,Note_off_c,9,59,0,
2,25830,Note_off_c,9,60,0,
2,25830,Note_off_c,9,61,0,
2,25830,Note_off_c,9,63,0,
2,25830,Note_off_c,9,68,0,
2,25830,Note_off_c,9,69,0,
2,25830,Note_off_c,9,70,0,
2,25830,Note_off_c,9,76,0,
2,25830,Note_off_c,9,80,0,
2,25830,Note_off_c,9,81,0,
2,25830,Note_off_c,9,82,0,
2,25830,Note_off_c,9,87,0,
2,25830,Note_off_c,9,88,0,
2,25830,Note_off_c,9,89,0,
2,25830,Note_off_c,9,91,0,
2,25830,Note_off_c,9,93,0,
2,25860,Note_off_c,9,35,0,
2,25860,Note_off_c,9,36,0,
2,25860,Note_off_c,9,37,0,
2,25860,Note_off_c,9,38,0,
2,25860,Note_off_c,9,39,0,
2,25860,Note_off_c,9,40,0,
2,25860,Note_off_c,9,41,0,
2,25860,Note_off_c,9,42,0,
2,25860,Note_off_c,9,43,0,
2,25860,Note_off_c,9,44,0,
2,25860,Note_off_c,9,45,0,
2,25860,Note_off_c,9,46,0,
2,25860,Note_off_c,9,47,0,
2,25860,Note_off_c,9,48,0,
2,25860,Note_off_c,9,49,0,
2,25860,Note_off_c,9,50,0,
2,25860,Note_off_c,9,51,0,
2,25860,Note_off_c,9,56,0,
2,25860,Note_off_c,9,57,0,
2,25860,Note_off_c,9,59,0,
2,25860,Note_off_c,9,60,0,
2,25860,Note_off_c,9,61,0,
2,25860,Note_off_c,9,63,0,
2,25860,Note_off_c,9,68,0,
2,25860,Note_off_c,9,69,0,
2,25860,Note_off_c,9,70,0,
2,25860,Note_off_c,9,76,0,
2,25860,Note_off_c,9,80,0,
2,25860,Note_off_c,9,81,0,
2,25860,Note_off_c,9,82,0,
2,25860,Note_off_c,9,87,0,
2,25860,Note_off_c,9,88,0,
2,25860,Note_off_c,9,89,0,
2,25860,Note_off_c,9,91,0,
2,25860,Note_off_c,9,93,0,
2,25890,Note_off_c,9,35,0,
2,25890,Note_off_c,9,36,0,
2,25890,Note_off_c,9,37,0,
2,25890,Note_off_c,9,38,0,
2,25890,Note_off_c,9,39,0,
2,25890,Note_off_c,9,40,0,
2,25890,Note_off_c,9,41,0,
2,25890,Note_off_c,9,42,0,
2,25890,Note_off_c,9,43,0,
2,25890,Note_off_c,9,44,0,
2,25890,Note_off_c,9,45,0,
2,25890,Note_off_c,9,46,0,
2,25890,Note_off_c,9,47,0,
2,25890,Note_off_c,9,48,0,
2,25890,Note_off_c,9,49,0,
2,25890,Note_off_c,9,50,0,
2,25890,Note_off_c,9,51,0,
2,25890,Note_off_c,9,56,0,
2,25890,Note_off_c,9,57,0,
2,25890,Note_off_c,9,59,0,
2,25890,Note_off_c,9,60,0,
2,25890,Note_off_c,9,61,0,
2,25890,Note_off_c,9,63,0,
2,25890,Note_off_c,9,68,0,
2,25890,Note_off_c,9,69,0,
2,25890,Note_off_c,9,70,0,
2,25890,Note_off_c,9,76,0,
2,25890,Note_off_c,9,80,0,
2,25890,Note_off_c,9,81,0,
2,25890,Note_off_c,9,82,0,
2,25890,Note_off_c,9,87,0,
2,25890,Note_off_c,9,88,0,
2,25890,Note_off_c,9,89,0,
2,25890,Note_off_c,9,91,0,
2,25890,Note_off_c,9,93,0,
2,25920,Note_off_c,9,35,0,
2,25920,Note_off_c,9,36,0,
2,25920,Note_off_c,9,37,0,
2,25920,Note_off_c,9,38,0,
2,25920,Note_off_c,9,39,0,
2,25920,Note_off_c,9,40,0,
2,25920,Note_off_c,9,41,0,
2,25920,Note_off_c,9,42,0,
2,25920,Note_off_c,9,43,0,
2,25920,Note_off_c,9,44,0,
2,25920,Note_off_c,9,45,0,
2,25920,Note_off_c,9,46,0,
2,25920,Note_off_c,9,47,0,
2,25920,Note_off_c,9,48,0,
2,25920,Note_off_c,9,49,0,
2,25920,Note_off_c,9,50,0,
2,25920,Note_off_c,9,51,0,
2,25920,Note_off_c,9,56,0,
2,25920,Note_off_c,9,57,0,
2,25920,Note_off_c,9,59,0,
2,25920,Note_off_c,9,60,0,
2,25920,Note_off_c,9,61,0,
2,25920,Note_off_c,9,63,0,
2,25920,Note_off_c,9,68,0,
2,25920,Note_off_c,9,69,0,
2,25920,Note_off_c,9,70,0,
2,25920,Note_off_c,9,76,0,
2,25920,Note_off_c,9,80,0,
2,25920,Note_off_c,9,81,0,
2,25920,Note_off_c,9,82,0,
2,25920,Note_off_c,9,87,0,
2,25920,Note_off_c,9,88,0,
2,25920,Note_off_c,9,89,0,
2,25920,Note_off_c,9,91,0,
2,25920,Note_off_c,9,93,0,
2,25950,Note_off_c,9,35,0,
2,25950,Note_off_c,9,36,0,
2,25950,Note_off_c,9,37,0,
2,25950,Note_off_c,9,38,0,
2,25950,Note_off_c,9,39,0,
2,25950,Note_off_c,9,40,0,
2,25950,Note_off_c,9,41,0,
2,25950,Note_off_c,9,42,0,
2,25950,Note_off_c,9,43,0,
2,25950,Note_off_c,9,44,0,
2,25950,Note_off_c,9,45,0,
2,25950,Note_off_c,9,46,0,
2,25950,Note_off_c,9,47,0,
2,25950,Note_off_c,9,48,0,
2,25950,Note_off_c,9,49,0,
2,25950,Note_off_c,9,50,0,
2,25950,Note_off_c,9,51,0,
2,25950,Note_off_c,9,56,0,
2,25950,Note_off_c,9,57,0,
2,25950,Note_off_c,9,59,0,
2,25950,Note_off_c,9,60,0,
2,25950,Note_off_c,9,61,0,
2,25950,Note_off_c,9,63,0,
2,25950,Note_off_c,9,68,0,
2,25950,Note_off_c,9,69,0,
2,25950,Note_off_c,9,70,0,
2,25950,Note_off_c,9,76,0,
2,25950,Note_off_c,9,80,0,
2,25950,Note_off_c,9,81,0,
2,25950,Note_off_c,9,82,0,
2,25950,Note_off_c,9,87,0,
2,25950,Note_off_c,9,88,0,
2,25950,Note_off_c,9,89,0,
2,25950,Note_off_c,9,91,0,
2,25950,Note_off_c,9,93,0,
2,25980,Note_off_c,9,35,0,
2,25980,Note_off_c,9,36,0,
2,25980,Note_off_c,9,37,0,
2,25980,Note_off_c,9,38,0,
2,25980,Note_off_c,9,39,0,
2,25980,Note_off_c,9,40,0,
2,25980,Note_off_c,9,41,0,
2,25980,Note_off_c,9,42,0,
2,25980,Note_off_c,9,43,0,
2,25980,Note_off_c,9,44,0,
2,25980,Note_off_c,9,45,0,
2,25980,Note_off_c,9,46,0,
2,25980,Note_off_c,9,47,0,
2,25980,Note_off_c,9,48,0,
2,25980,Note_off_c,9,49,0,
2,25980,Note_off_c,9,50,0,
2,25980,Note_off_c,9,51,0,
2,25980,Note_off_c,9,56,0,
2,25980,Note_off_c,9,57,0,
2,25980,Note_off_c,9,59,0,
2,25980,Note_off_c,9,60,0,
2,25980,Note_off_c,9,61,0,
2,25980,Note_off_c,9,63,0,
2,25980,Note_off_c,9,68,0,
2,25980,Note_off_c,9,69,0,
2,25980,Note_off_c,9,70,0,
2,25980,Note_off_c,9,76,0,
2,25980,Note_off_c,9,80,0,
2,25980,Note_off_c,9,81,0,
2,25980,Note_off_c,9,82,0,
2,25980,Note_off_c,9,87,0,
2,25980,Note_off_c,9,88,0,
2,25980,Note_off_c,9,89,0,
2,25980,Note_off_c,9,91,0,
2,25980,Note_off_c,9,93,0,
2,26010,Note_off_c,9,35,0,
2,26010,Note_off_c,9,36,0,
2,26010,Note_off_c,9,37,0,
2,26010,Note_off_c,9,38,0,
2,26010,Note_off_c,9,39,0,
2,26010,Note_off_c,9,40,0,
2,26010,Note_off_c,9,41,0,
2,26010,Note_off_c,9,42,0,
2,26010,Note_off_c,9,43,0,
2,26010,Note_off_c,9,44,0,
2,26010,Note_off_c,9,45,0,
2,26010,Note_off_c,9,46,0,
2,26010,Note_off_c,9,47,0,
2,26010,Note_off_c,9,48,0,
2,26010,Note_off_c,9,49,0,
2,26010,Note_off_c,9,50,0,
2,26010,Note_off_c,9,51,0,
2,26010,Note_off_c,9,56,0,
2,26010,Note_off_c,9,57,0,
2,26010,Note_off_c,9,59,0,
2,26010,Note_off_c,9,60,0,
2,26010,Note_off_c,9,61,0,
2,26010,Note_off_c,9,63,0,
2,26010,Note_off_c,9,68,0,
2,26010,Note_off_c,9,69,0,
2,26010,Note_off_c,9,70,0,
2,26010,Note_off_c,9,76,0,
2,26010,Note_off_c,9,80,0,
2,26010,Note_off_c,9,81,0,
2,26010,Note_off_c,9,82,0,
2,26010,Note_off_c,9,87,0,
2,26010,Note_off_c,9,88,0,
2,26010,Note_off_c,9,89,0,
2,26010,Note_off_c,9,91,0,
2,26010,Note_off_c,9,93,0,
2,26040,Note_off_c,9,35,0,
2,26040,Note_off_c,9,36,0,
2,26040,Note_off_c,9,37,0,
2,26040,Note_off_c,9,38,0,
2,26040,Note_off_c,9,39,0,
2,26040,Note_off_c,9,40,0,
2,26040,Note_off_c,9,41,0,
2,26040,Note_off_c,9,42,0,
2,26040,Note_off_c,9,43,0,
2,26040,Note_off_c,9,44,0,
2,26040,Note_off_c,9,45,0,
2,26040,Note_off_c,9,46,0,
2,26040,Note_off_c,9,47,0,
2,26040,Note_off_c,9,48,0,
2,26040,Note_off_c,9,49,0,
2,26040,Note_off_c,9,50,0,
2,26040,Note_off_c,9,51,0,
2,26040,Note_off_c,9,56,0,
2,26040,Note_off_c,9,57,0,
2,26040,Note_off_c,9,59,0,
2,26040,Note_off_c,9,60,0,
2,26040,Note_off_c,9,61,0,
2,26040,Note_off_c,9,63,0,
2,26040,Note_off_c,9,68,0,
2,26040,Note_off_c,9,69,0,
2,26040,Note_off_c,9,70,0,
2,26040,Note_off_c,9,76,0,
2,26040,Note_off_c,9,80,0,
2,26040,Note_off_c,9,81,0,
2,26040,Note_off_c,9,82,0,
2,26040,Note_off_c,9,87,0,
2,26040,Note_off_c,9,88,0,
2,26040,Note_off_c,9,89,0,
2,26040,Note_off_c,9,91,0,
2,26040,Note_off_c,9,93,0,
2,26070,Note_off_c,9,35,0,
2,26070,Note_off_c,9,36,0,
2,26070,Note_off_c,9,37,0,
2,26070,Note_off_c,9,38,0,
2,26070,Note_off_c,9,39,0,
2,26070,Note_off_c,9,40,0,
2,26070,Note_off_c,9,41,0,
2,26070,Note_off_c,9,42,0,
2,26070,Note_off_c,9,43,0,
2,26070,Note_off_c,9,44,0,
2,26070,Note_off_c,9,45,0,
2,26070,Note_off_c,9,46,0,
2,26070,Note_off_c,9,47,0,
2,26070,Note_off_c,9,48,0,
2,26070,Note_off_c,9,49,0,
2,26070,Note_off_c,9,50,0,
2,26070,Note_off_c,9,51,0,
2,26070,Note_off_c,9,56,0,
2,26070,Note_off_c,9,57,0,
2,26070,Note_off_c,9,59,0,
2,26070,Note_off_c,9,60,0,
2,26070,Note_off_c,9,61,0,
2,26070,Note_off_c,9,63,0,
2,26070,Note_off_c,9,68,0,
2,26070,Note_off_c,9,69,0,
2,26070,Note_off_c,9,70,0,
2,26070,Note_off_c,9,76,0,
2,26070,Note_off_c,9,80,0,
2,26070,Note_off_c,9,81,0,
2,26070,Note_off_c,9,82,0,
2,26070,Note_off_c,9,87,0,
2,26070,Note_off_c,9,88,0,
2,26070,Note_off_c,9,89,0,
2,26070,Note_off_c,9,91,0,
2,26070,Note_off_c,9,93,0,
2,26100,Note_off_c,9,35,0,
2,26100,Note_off_c,9,36,0,
2,26100,Note_off_c,9,37,0,
2,26100,Note_off_c,9,38,0,
2,26100,Note_off_c,9,39,0,
2,26100,Note_off_c,9,40,0,
2,26100,Note_off_c,9,41,0,
2,26100,Note_off_c,9,42,0,
2,26100,Note_off_c,9,43,0,
2,26100,Note_off_c,9,44,0,
2,26100,Note_off_c,9,45,0,
2,26100,Note_off_c,9,46,0,
2,26100,Note_off_c,9,47,0,
2,26100,Note_off_c,9,48,0,
2,26100,Note_off_c,9,49,0,
2,26100,Note_off_c,9,50,0,
2,26100,Note_off_c,9,51,0,
2,26100,Note_off_c,9,56,0,
2,26100,Note_off_c,9,57,0,
2,26100,Note_off_c,9,59,0,
2,26100,Note_off_c,9,60,0,
2,26100,Note_off_c,9,61,0,
2,26100,Note_off_c,9,63,0,
2,26100,Note_off_c,9,68,0,
2,26100,Note_off_c,9,69,0,
2,26100,Note_off_c,9,70,0,
2,26100,Note_off_c,9,76,0,
2,26100,Note_off_c,9,80,0,
2,26100,Note_off_c,9,81,0,
2,26100,Note_off_c,9,82,0,
2,26100,Note_off_c,9,87,0,
2,26100,Note_off_c,9,88,0,
2,26100,Note_off_c,9,89,0,
2,26100,Note_off_c,9,91,0,
2,26100,Note_off_c,9,93,0,
2,26130,Note_off_c,9,35,0,
2,26130,Note_off_c,9,36,0,
2,26130,Note_off_c,9,37,0,
2,26130,Note_off_c,9,38,0,
2,26130,Note_off_c,9,39,0,
2,26130,Note_off_c,9,40,0,
2,26130,Note_off_c,9,41,0,
2,26130,Note_off_c,9,42,0,
2,26130,Note_off_c,9,43,0,
2,26130,Note_off_c,9,44,0,
2,26130,Note_off_c,9,45,0,
2,26130,Note_off_c,9,46,0,
2,26130,Note_off_c,9,47,0,
2,26130,Note_off_c,9,48,0,
2,26130,Note_off_c,9,49,0,
2,26130,Note_off_c,9,50,0,
2,26130,Note_off_c,9,51,0,
2,26130,Note_off_c,9,56,0,
2,26130,Note_off_c,9,57,0,
2,26130,Note_off_c,9,59,0,
2,26130,Note_off_c,9,60,0,
2,26130,Note_off_c,9,61,0,
2,26130,Note_off_c,9,63,0,
2,26130,Note_off_c,9,68,0,
2,26130,Note_off_c,9,69,0,
2,26130,Note_off_c,9,70,0,
2,26130,Note_off_c,9,76,0,
2,26130,Note_off_c,9,80,0,
2,26130,Note_off_c,9,81,0,
2,26130,Note_off_c,9,82,0,
2,26130,Note_off_c,9,87,0,
2,26130,Note_off_c,9,88,0,
2,26130,Note_off_c,9,89,0,
2,26130,Note_off_c,9,91,0,
2,26130,Note_off_c,9,93,0,
2,26160,Note_off_c,9,35,0,
2,26160,Note_off_c,9,36,0,
2,26160,Note_off_c,9,37,0,
2,26160,Note_off_c,9,38,0,
2,26160,Note_off_c,9,39,0,
2,26160,Note_off_c,9,40,0,
2,26160,Note_off_c,9,41,0,
2,26160,Note_off_c,9,42,0,
2,26160,Note_off_c,9,43,0,
2,26160,Note_off_c,9,44,0,
2,26160,Note_off_c,9,45,0,
2,26160,Note_off_c,9,46,0,
2,26160,Note_off_c,9,47,0,
2,26160,Note_off_c,9,48,0,
2,26160,Note_off_c,9,49,0,
2,26160,Note_off_c,9,50,0,
2,26160,Note_off_c,9,51,0,
2,26160,Note_off_c,9,56,0,
2,26160,Note_off_c,9,57,0,
2,26160,Note_off_c,9,59,0,
2,26160,Note_off_c,9,60,0,
2,26160,Note_off_c,9,61,0,
2,26160,Note_off_c,9,63,0,
2,26160,Note_off_c,9,68,0,
2,26160,Note_off_c,9,69,0,
2,26160,Note_off_c,9,70,0,
2,26160,Note_off_c,9,76,0,
2,26160,Note_off_c,9,80,0,
2,26160,Note_off_c,9,81,0,
2,26160,Note_off_c,9,82,0,
2,26160,Note_off_c,9,87,0,
2,26160,Note_off_c,9,88,0,
2,26160,Note_off_c,9,89,0,
2,26160,Note_off_c,9,91,0,
2,26160,Note_off_c,9,93,0,
2,26190,Note_off_c,9,35,0,
2,26190,Note_off_c,9,36,0,
2,26190,Note_off_c,9,37,0,
2,26190,Note_off_c,9,38,0,
2,26190,Note_off_c,9,39,0,
2,26190,Note_off_c,9,40,0,
2,26190,Note_off_c,9,41,0,
2,26190,Note_off_c,9,42,0,
2,26190,Note_off_c,9,43,0,
2,26190,Note_off_c,9,44,0,
2,26190,Note_off_c,9,45,0,
2,26190,Note_off_c,9,46,0,
2,26190,Note_off_c,9,47,0,
2,26190,Note_off_c,9,48,0,
2,26190,Note_off_c,9,49,0,
2,26190,Note_off_c,9,50,0,
2,26190,Note_off_c,9,51,0,
2,26190,Note_off_c,9,56,0,
2,26190,Note_off_c,9,57,0,
2,26190,Note_off_c,9,59,0,
2,26190,Note_off_c,9,60,0,
2,26190,Note_off_c,9,61,0,
2,26190,Note_off_c,9,63,0,
2,26190,Note_off_c,9,68,0,
2,26190,Note_off_c,9,69,0,
2,26190,Note_off_c,9,70,0,
2,26190,Note_off_c,9,76,0,
2,26190,Note_off_c,9,80,0,
2,26190,Note_off_c,9,81,0,
2,26190,Note_off_c,9,82,0,
2,26190,Note_off_c,9,87,0,
2,26190,Note_off_c,9,88,0,
2,26190,Note_off_c,9,89,0,
2,26190,Note_off_c,9,91,0,
2,26190,Note_off_c,9,93,0,
2,26220,Note_off_c,9,35,0,
2,26220,Note_off_c,9,36,0,
2,26220,Note_off_c,9,37,0,
2,26220,Note_off_c,9,38,0,
2,26220,Note_off_c,9,39,0,
2,26220,Note_off_c,9,40,0,
2,26220,Note_off_c,9,41,0,
2,26220,Note_off_c,9,42,0,
2,26220,Note_off_c,9,43,0,
2,26220,Note_off_c,9,44,0,
2,26220,Note_off_c,9,45,0,
2,26220,Note_off_c,9,46,0,
2,26220,Note_off_c,9,47,0,
2,26220,Note_off_c,9,48,0,
2,26220,Note_off_c,9,49,0,
2,26220,Note_off_c,9,50,0,
2,26220,Note_off_c,9,51,0,
2,26220,Note_off_c,9,56,0,
2,26220,Note_off_c,9,57,0,
2,26220,Note_off_c,9,59,0,
2,26220,Note_off_c,9,60,0,
2,26220,Note_off_c,9,61,0,
2,26220,Note_off_c,9,63,0,
2,26220,Note_off_c,9,68,0,
2,26220,Note_off_c,9,69,0,
2,26220,Note_off_c,9,70,0,
2,26220,Note_off_c,9,76,0,
2,26220,Note_off_c,9,80,0,
2,26220,Note_off_c,9,81,0,
2,26220,Note_off_c,9,82,0,
2,26220,Note_off_c,9,87,0,
2,26220,Note_off_c,9,88,0,
2,26220,Note_off_c,9,89,0,
2,26220,Note_off_c,9,91,0,
2,26220,Note_off_c,9,93,0,
2,26250,Note_off_c,9,35,0,
2,26250,Note_off_c,9,36,0,
2,26250,Note_off_c,9,37,0,
2,26250,Note_off_c,9,38,0,
2,26250,Note_off_c,9,39,0,
2,26250,Note_off_c,9,40,0,
2,26250,Note_off_c,9,41,0,
2,26250,Note_off_c,9,42,0,
2,26250,Note_off_c,9,43,0,
2,26250,Note_off_c,9,44,0,
2,26250,Note_off_c,9,45,0,
2,26250,Note_off_c,9,46,0,
2,26250,Note_off_c,9,47,0,
2,26250,Note_off_c,9,48,0,
2,26250,Note_off_c,9,49,0,
2,26250,Note_off_c,9,50,0,
2,26250,Note_off_c,9,51,0,
2,26250,Note_off_c,9,56,0,
2,26250,Note_off_c,9,57,0,
2,26250,Note_off_c,9,59,0,
2,26250,Note_off_c,9,60,0,
2,26250,Note_off_c,9,61,0,
2,26250,Note_off_c,9,63,0,
2,26250,Note_off_c,9,68,0,
2,26250,Note_off_c,9,69,0,
2,26250,Note_off_c,9,70,0,
2,26250,Note_off_c,9,76,0,
2,26250,Note_off_c,9,80,0,
2,26250,Note_off_c,9,81,0,
2,26250,Note_off_c,9,82,0,
2,26250,Note_off_c,9,87,0,
2,26250,Note_off_c,9,88,0,
2,26250,Note_off_c,9,89,0,
2,26250,Note_off_c,9,91,0,
2,26250,Note_off_c,9,93,0,
2,26280,Note_off_c,9,35,0,
2,26280,Note_off_c,9,36,0,
2,26280,Note_off_c,9,37,0,
2,26280,Note_off_c,9,38,0,
2,26280,Note_off_c,9,39,0,
2,26280,Note_off_c,9,40,0,
2,26280,Note_off_c,9,41,0,
2,26280,Note_off_c,9,42,0,
2,26280,Note_off_c,9,43,0,
2,26280,Note_off_c,9,44,0,
2,26280,Note_off_c,9,45,0,
2,26280,Note_off_c,9,46,0,
2,26280,Note_off_c,9,47,0,
2,26280,Note_off_c,9,48,0,
2,26280,Note_off_c,9,49,0,
2,26280,Note_off_c,9,50,0,
2,26280,Note_off_c,9,51,0,
2,26280,Note_off_c,9,56,0,
2,26280,Note_off_c,9,57,0,
2,26280,Note_off_c,9,59,0,
2,26280,Note_off_c,9,60,0,
2,26280,Note_off_c,9,61,0,
2,26280,Note_off_c,9,63,0,
2,26280,Note_off_c,9,68,0,
2,26280,Note_off_c,9,69,0,
2,26280,Note_off_c,9,70,0,
2,26280,Note_off_c,9,76,0,
2,26280,Note_off_c,9,80,0,
2,26280,Note_off_c,9,81,0,
2,26280,Note_off_c,9,82,0,
2,26280,Note_off_c,9,87,0,
2,26280,Note_off_c,9,88,0,
2,26280,Note_off_c,9,89,0,
2,26280,Note_off_c,9,91,0,
2,26280,Note_off_c,9,93,0,
2,26310,Note_off_c,9,35,0,
2,26310,Note_off_c,9,36,0,
2,26310,Note_off_c,9,37,0,
2,26310,Note_off_c,9,38,0,
2,26310,Note_off_c,9,39,0,
2,26310,Note_off_c,9,40,0,
2,26310,Note_off_c,9,41,0,
2,26310,Note_off_c,9,42,0,
2,26310,Note_off_c,9,43,0,
2,26310,Note_off_c,9,44,0,
2,26310,Note_off_c,9,45,0,
2,26310,Note_off_c,9,46,0,
2,26310,Note_off_c,9,47,0,
2,26310,Note_off_c,9,48,0,
2,26310,Note_off_c,9,49,0,
2,26310,Note_off_c,9,50,0,
2,26310,Note_off_c,9,51,0,
2,26310,Note_off_c,9,56,0,
2,26310,Note_off_c,9,57,0,
2,26310,Note_off_c,9,59,0,
2,26310,Note_off_c,9,60,0,
2,26310,Note_off_c,9,61,0,
2,26310,Note_off_c,9,63,0,
2,26310,Note_off_c,9,68,0,
2,26310,Note_off_c,9,69,0,
2,26310,Note_off_c,9,70,0,
2,26310,Note_off_c,9,76,0,
2,26310,Note_off_c,9,80,0,
2,26310,Note_off_c,9,81,0,
2,26310,Note_off_c,9,82,0,
2,26310,Note_off_c,9,87,0,
2,26310,Note_off_c,9,88,0,
2,26310,Note_off_c,9,89,0,
2,26310,Note_off_c,9,91,0,
2,26310,Note_off_c,9,93,0,
2,26340,Note_off_c,9,35,0,
2,26340,Note_off_c,9,36,0,
2,26340,Note_off_c,9,37,0,
2,26340,Note_off_c,9,38,0,
2,26340,Note_off_c,9,39,0,
2,26340,Note_off_c,9,40,0,
2,26340,Note_off_c,9,41,0,
2,26340,Note_off_c,9,42,0,
2,26340,Note_off_c,9,43,0,
2,26340,Note_off_c,9,44,0,
2,26340,Note_off_c,9,45,0,
2,26340,Note_off_c,9,46,0,
2,26340,Note_off_c,9,47,0,
2,26340,Note_off_c,9,48,0,
2,26340,Note_off_c,9,49,0,
2,26340,Note_off_c,9,50,0,
2,26340,Note_off_c,9,51,0,
2,26340,Note_off_c,9,56,0,
2,26340,Note_off_c,9,57,0,
2,26340,Note_off_c,9,59,0,
2,26340,Note_off_c,9,60,0,
2,26340,Note_off_c,9,61,0,
2,26340,Note_off_c,9,63,0,
2,26340,Note_off_c,9,68,0,
2,26340,Note_off_c,9,69,0,
2,26340,Note_off_c,9,70,0,
2,26340,Note_off_c,9,76,0,
2,26340,Note_off_c,9,80,0,
2,26340,Note_off_c,9,81,0,
2,26340,Note_off_c,9,82,0,
2,26340,Note_off_c,9,87,0,
2,26340,Note_off_c,9,88,0,
2,26340,Note_off_c,9,89,0,
2,26340,Note_off_c,9,91,0,
2,26340,Note_off_c,9,93,0,
2,26370,Note_off_c,9,35,0,
2,26370,Note_off_c,9,36,0,
2,26370,Note_off_c,9,37,0,
2,26370,Note_off_c,9,38,0,
2,26370,Note_off_c,9,39,0,
2,26370,Note_off_c,9,40,0,
2,26370,Note_off_c,9,41,0,
2,26370,Note_off_c,9,42,0,
2,26370,Note_off_c,9,43,0,
2,26370,Note_off_c,9,44,0,
2,26370,Note_off_c,9,45,0,
2,26370,Note_off_c,9,46,0,
2,26370,Note_off_c,9,47,0,
2,26370,Note_off_c,9,48,0,
2,26370,Note_off_c,9,49,0,
2,26370,Note_off_c,9,50,0,
2,26370,Note_off_c,9,51,0,
2,26370,Note_off_c,9,56,0,
2,26370,Note_off_c,9,57,0,
2,26370,Note_off_c,9,59,0,
2,26370,Note_off_c,9,60,0,
2,26370,Note_off_c,9,61,0,
2,26370,Note_off_c,9,63,0,
2,26370,Note_off_c,9,68,0,
2,26370,Note_off_c,9,69,0,
2,26370,Note_off_c,9,70,0,
2,26370,Note_off_c,9,76,0,
2,26370,Note_off_c,9,80,0,
2,26370,Note_off_c,9,81,0,
2,26370,Note_off_c,9,82,0,
2,26370,Note_off_c,9,87,0,
2,26370,Note_off_c,9,88,0,
2,26370,Note_off_c,9,89,0,
2,26370,Note_off_c,9,91,0,
2,26370,Note_off_c,9,93,0,
2,26400,Note_off_c,9,35,0,
2,26400,Note_off_c,9,36,0,
2,26400,Note_off_c,9,37,0,
2,26400,Note_off_c,9,38,0,
2,26400,Note_off_c,9,39,0,
2,26400,Note_off_c,9,40,0,
2,26400,Note_off_c,9,41,0,
2,26400,Note_off_c,9,42,0,
2,26400,Note_off_c,9,43,0,
2,26400,Note_off_c,9,44,0,
2,26400,Note_off_c,9,45,0,
2,26400,Note_off_c,9,46,0,
2,26400,Note_off_c,9,47,0,
2,26400,Note_off_c,9,48,0,
2,26400,Note_off_c,9,49,0,
2,26400,Note_off_c,9,50,0,
2,26400,Note_off_c,9,51,0,
2,26400,Note_off_c,9,56,0,
2,26400,Note_off_c,9,57,0,
2,26400,Note_off_c,9,59,0,
2,26400,Note_off_c,9,60,0,
2,26400,Note_off_c,9,61,0,
2,26400,Note_off_c,9,63,0,
2,26400,Note_off_c,9,68,0,
2,26400,Note_off_c,9,69,0,
2,26400,Note_off_c,9,70,0,
2,26400,Note_off_c,9,76,0,
2,26400,Note_off_c,9,80,0,
2,26400,Note_off_c,9,81,0,
2,26400,Note_off_c,9,82,0,
2,26400,Note_off_c,9,87,0,
2,26400,Note_off_c,9,88,0,
2,26400,Note_off_c,9,89,0,
2,26400,Note_off_c,9,91,0,
2,26400,Note_off_c,9,93,0,
2,26430,Note_off_c,9,35,0,
2,26430,Note_off_c,9,36,0,
2,26430,Note_off_c,9,37,0,
2,26430,Note_off_c,9,38,0,
2,26430,Note_off_c,9,39,0,
2,26430,Note_off_c,9,40,0,
2,26430,Note_off_c,9,41,0,
2,26430,Note_off_c,9,42,0,
2,26430,Note_off_c,9,43,0,
2,26430,Note_off_c,9,44,0,
2,26430,Note_off_c,9,45,0,
2,26430,Note_off_c,9,46,0,
2,26430,Note_off_c,9,47,0,
2,26430,Note_off_c,9,48,0,
2,26430,Note_off_c,9,49,0,
2,26430,Note_off_c,9,50,0,
2,26430,Note_off_c,9,51,0,
2,26430,Note_off_c,9,56,0,
2,26430,Note_off_c,9,57,0,
2,26430,Note_off_c,9,59,0,
2,26430,Note_off_c,9,60,0,
2,26430,Note_off_c,9,61,0,
2,26430,Note_off_c,9,63,0,
2,26430,Note_off_c,9,68,0,
2,26430,Note_off_c,9,69,0,
2,26430,Note_off_c,9,70,0,
2,26430,Note_off_c,9,76,0,
2,26430,Note_off_c,9,80,0,
2,26430,Note_off_c,9,81,0,
2,26430,Note_off_c,9,82,0,
2,26430,Note_off_c,9,87,0,
2,26430,Note_off_c,9,88,0,
2,26430,Note_off_c,9,89,0,
2,26430,Note_off_c,9,91,0,
2,26430,Note_off_c,9,93,0,
2,26460,Note_off_c,9,35,0,
2,26460,Note_off_c,9,36,0,
2,26460,Note_off_c,9,37,0,
2,26460,Note_off_c,9,38,0,
2,26460,Note_off_c,9,39,0,
2,26460,Note_off_c,9,40,0,
2,26460,Note_off_c,9,41,0,
2,26460,Note_off_c,9,42,0,
2,26460,Note_off_c,9,43,0,
2,26460,Note_off_c,9,44,0,
2,26460,Note_off_c,9,45,0,
2,26460,Note_off_c,9,46,0,
2,26460,Note_off_c,9,47,0,
2,26460,Note_off_c,9,48,0,
2,26460,Note_off_c,9,49,0,
2,26460,Note_off_c,9,50,0,
2,26460,Note_off_c,9,51,0,
2,26460,Note_off_c,9,56,0,
2,26460,Note_off_c,9,57,0,
2,26460,Note_off_c,9,59,0,
2,26460,Note_off_c,9,60,0,
2,26460,Note_off_c,9,61,0,
2,26460,Note_off_c,9,63,0,
2,26460,Note_off_c,9,68,0,
2,26460,Note_off_c,9,69,0,
2,26460,Note_off_c,9,70,0,
2,26460,Note_off_c,9,76,0,
2,26460,Note_off_c,9,80,0,
2,26460,Note_off_c,9,81,0,
2,26460,Note_off_c,9,82,0,
2,26460,Note_off_c,9,87,0,
2,26460,Note_off_c,9,88,0,
2,26460,Note_off_c,9,89,0,
2,26460,Note_off_c,9,91,0,
2,26460,Note_off_c,9,93,0,
2,26490,Note_off_c,9,35,0,
2,26490,Note_off_c,9,36,0,
2,26490,Note_off_c,9,37,0,
2,26490,Note_off_c,9,38,0,
2,26490,Note_off_c,9,39,0,
2,26490,Note_off_c,9,40,0,
2,26490,Note_off_c,9,41,0,
2,26490,Note_off_c,9,42,0,
2,26490,Note_off_c,9,43,0,
2,26490,Note_off_c,9,44,0,
2,26490,Note_off_c,9,45,0,
2,26490,Note_off_c,9,46,0,
2,26490,Note_off_c,9,47,0,
2,26490,Note_off_c,9,48,0,
2,26490,Note_off_c,9,49,0,
2,26490,Note_off_c,9,50,0,
2,26490,Note_off_c,9,51,0,
2,26490,Note_off_c,9,56,0,
2,26490,Note_off_c,9,57,0,
2,26490,Note_off_c,9,59,0,
2,26490,Note_off_c,9,60,0,
2,26490,Note_off_c,9,61,0,
2,26490,Note_off_c,9,63,0,
2,26490,Note_off_c,9,68,0,
2,26490,Note_off_c,9,69,0,
2,26490,Note_off_c,9,70,0,
2,26490,Note_off_c,9,76,0,
2,26490,Note_off_c,9,80,0,
2,26490,Note_off_c,9,81,0,
2,26490,Note_off_c,9,82,0,
2,26490,Note_off_c,9,87,0,
2,26490,Note_off_c,9,88,0,
2,26490,Note_off_c,9,89,0,
2,26490,Note_off_c,9,91,0,
2,26490,Note_off_c,9,93,0,
2,26520,Note_off_c,9,35,0,
2,26520,Note_off_c,9,36,0,
2,26520,Note_off_c,9,37,0,
2,26520,Note_off_c,9,38,0,
2,26520,Note_off_c,9,39,0,
2,26520,Note_off_c,9,40,0,
2,26520,Note_off_c,9,41,0,
2,26520,Note_off_c,9,42,0,
2,26520,Note_off_c,9,43,0,
2,26520,Note_off_c,9,44,0,
2,26520,Note_off_c,9,45,0,
2,26520,Note_off_c,9,46,0,
2,26520,Note_off_c,9,47,0,
2,26520,Note_off_c,9,48,0,
2,26520,Note_off_c,9,49,0,
2,26520,Note_off_c,9,50,0,
2,26520,Note_off_c,9,51,0,
2,26520,Note_off_c,9,56,0,
2,26520,Note_off_c,9,57,0,
2,26520,Note_off_c,9,59,0,
2,26520,Note_off_c,9,60,0,
2,26520,Note_off_c,9,61,0,
2,26520,Note_off_c,9,63,0,
2,26520,Note_off_c,9,68,0,
2,26520,Note_off_c,9,69,0,
2,26520,Note_off_c,9,70,0,
2,26520,Note_off_c,9,76,0,
2,26520,Note_off_c,9,80,0,
2,26520,Note_off_c,9,81,0,
2,26520,Note_off_c,9,82,0,
2,26520,Note_off_c,9,87,0,
2,26520,Note_off_c,9,88,0,
2,26520,Note_off_c,9,89,0,
2,26520,Note_off_c,9,91,0,
2,26520,Note_off_c,9,93,0,
2,26550,Note_off_c,9,35,0,
2,26550,Note_off_c,9,36,0,
2,26550,Note_off_c,9,37,0,
2,26550,Note_off_c,9,38,0,
2,26550,Note_off_c,9,39,0,
2,26550,Note_off_c,9,40,0,
2,26550,Note_off_c,9,41,0,
2,26550,Note_off_c,9,42,0,
2,26550,Note_off_c,9,43,0,
2,26550,Note_off_c,9,44,0,
2,26550,Note_off_c,9,45,0,
2,26550,Note_off_c,9,46,0,
2,26550,Note_off_c,9,47,0,
2,26550,Note_off_c,9,48,0,
2,26550,Note_off_c,9,49,0,
2,26550,Note_off_c,9,50,0,
2,26550,Note_off_c,9,51,0,
2,26550,Note_off_c,9,56,0,
2,26550,Note_off_c,9,57,0,
2,26550,Note_off_c,9,59,0,
2,26550,Note_off_c,9,60,0,
2,26550,Note_off_c,9,61,0,
2,26550,Note_off_c,9,63,0,
2,26550,Note_off_c,9,68,0,
2,26550,Note_off_c,9,69,0,
2,26550,Note_off_c,9,70,0,
2,26550,Note_off_c,9,76,0,
2,26550,Note_off_c,9,80,0,
2,26550,Note_off_c,9,81,0,
2,26550,Note_off_c,9,82,0,
2,26550,Note_off_c,9,87,0,
2,26550,Note_off_c,9,88,0,
2,26550,Note_off_c,9,89,0,
2,26550,Note_off_c,9,91,0,
2,26550,Note_off_c,9,93,0,
2,26580,Note_off_c,9,35,0,
2,26580,Note_off_c,9,36,0,
2,26580,Note_off_c,9,37,0,
2,26580,Note_off_c,9,38,0,
2,26580,Note_off_c,9,39,0,
2,26580,Note_off_c,9,40,0,
2,26580,Note_off_c,9,41,0,
2,26580,Note_off_c,9,42,0,
2,26580,Note_off_c,9,43,0,
2,26580,Note_off_c,9,44,0,
2,26580,Note_off_c,9,45,0,
2,26580,Note_off_c,9,46,0,
2,26580,Note_off_c,9,47,0,
2,26580,Note_off_c,9,48,0,
2,26580,Note_off_c,9,49,0,
2,26580,Note_off_c,9,50,0,
2,26580,Note_off_c,9,51,0,
2,26580,Note_off_c,9,56,0,
2,26580,Note_off_c,9,57,0,
2,26580,Note_off_c,9,59,0,
2,26580,Note_off_c,9,60,0,
2,26580,Note_off_c,9,61,0,
2,26580,Note_off_c,9,63,0,
2,26580,Note_off_c,9,68,0,
2,26580,Note_off_c,9,69,0,
2,26580,Note_off_c,9,70,0,
2,26580,Note_off_c,9,76,0,
2,26580,Note_off_c,9,80,0,
2,26580,Note_off_c,9,81,0,
2,26580,Note_off_c,9,82,0,
2,26580,Note_off_c,9,87,0,
2,26580,Note_off_c,9,88,0,
2,26580,Note_off_c,9,89,0,
2,26580,Note_off_c,9,91,0,
2,26580,Note_off_c,9,93,0,
2,26610,Note_off_c,9,35,0,
2,26610,Note_off_c,9,36,0,
2,26610,Note_off_c,9,37,0,
2,26610,Note_off_c,9,38,0,
2,26610,Note_off_c,9,39,0,
2,26610,Note_off_c,9,40,0,
2,26610,Note_off_c,9,41,0,
2,26610,Note_off_c,9,42,0,
2,26610,Note_off_c,9,43,0,
2,26610,Note_off_c,9,44,0,
2,26610,Note_off_c,9,45,0,
2,26610,Note_off_c,9,46,0,
2,26610,Note_off_c,9,47,0,
2,26610,Note_off_c,9,48,0,
2,26610,Note_off_c,9,49,0,
2,26610,Note_off_c,9,50,0,
2,26610,Note_off_c,9,51,0,
2,26610,Note_off_c,9,56,0,
2,26610,Note_off_c,9,57,0,
2,26610,Note_off_c,9,59,0,
2,26610,Note_off_c,9,60,0,
2,26610,Note_off_c,9,61,0,
2,26610,Note_off_c,9,63,0,
2,26610,Note_off_c,9,68,0,
2,26610,Note_off_c,9,69,0,
2,26610,Note_off_c,9,70,0,
2,26610,Note_off_c,9,76,0,
2,26610,Note_off_c,9,80,0,
2,26610,Note_off_c,9,81,0,
2,26610,Note_off_c,9,82,0,
2,26610,Note_off_c,9,87,0,
2,26610,Note_off_c,9,88,0,
2,26610,Note_off_c,9,89,0,
2,26610,Note_off_c,9,91,0,
2,26610,Note_off_c,9,93,0,
2,26640,Note_off_c,9,35,0,
2,26640,Note_off_c,9,36,0,
2,26640,Note_off_c,9,37,0,
2,26640,Note_off_c,9,38,0,
2,26640,Note_off_c,9,39,0,
2,26640,Note_off_c,9,40,0,
2,26640,Note_off_c,9,41,0,
2,26640,Note_off_c,9,42,0,
2,26640,Note_off_c,9,43,0,
2,26640,Note_off_c,9,44,0,
2,26640,Note_off_c,9,45,0,
2,26640,Note_off_c,9,46,0,
2,26640,Note_off_c,9,47,0,
2,26640,Note_off_c,9,48,0,
2,26640,Note_off_c,9,49,0,
2,26640,Note_off_c,9,50,0,
2,26640,Note_off_c,9,51,0,
2,26640,Note_off_c,9,56,0,
2,26640,Note_off_c,9,57,0,
2,26640,Note_off_c,9,59,0,
2,26640,Note_off_c,9,60,0,
2,26640,Note_off_c,9,61,0,
2,26640,Note_off_c,9,63,0,
2,26640,Note_off_c,9,68,0,
2,26640,Note_off_c,9,69,0,
2,26640,Note_off_c,9,70,0,
2,26640,Note_off_c,9,76,0,
2,26640,Note_off_c,9,80,0,
2,26640,Note_off_c,9,81,0,
2,26640,Note_off_c,9,82,0,
2,26640,Note_off_c,9,87,0,
2,26640,Note_off_c,9,88,0,
2,26640,Note_off_c,9,89,0,
2,26640,Note_off_c,9,91,0,
2,26640,Note_off_c,9,93,0,
2,26670,Note_off_c,9,35,0,
2,26670,Note_off_c,9,36,0,
2,26670,Note_off_c,9,37,0,
2,26670,Note_off_c,9,38,0,
2,26670,Note_off_c,9,39,0,
2,26670,Note_off_c,9,40,0,
2,26670,Note_off_c,9,41,0,
2,26670,Note_off_c,9,42,0,
2,26670,Note_off_c,9,43,0,
2,26670,Note_off_c,9,44,0,
2,26670,Note_off_c,9,45,0,
2,26670,Note_off_c,9,46,0,
2,26670,Note_off_c,9,47,0,
2,26670,Note_off_c,9,48,0,
2,26670,Note_off_c,9,49,0,
2,26670,Note_off_c,9,50,0,
2,26670,Note_off_c,9,51,0,
2,26670,Note_off_c,9,56,0,
2,26670,Note_off_c,9,57,0,
2,26670,Note_off_c,9,59,0,
2,26670,Note_off_c,9,60,0,
2,26670,Note_off_c,9,61,0,
2,26670,Note_off_c,9,63,0,
2,26670,Note_off_c,9,68,0,
2,26670,Note_off_c,9,69,0,
2,26670,Note_off_c,9,70,0,
2,26670,Note_off_c,9,76,0,
2,26670,Note_off_c,9,80,0,
2,26670,Note_off_c,9,81,0,
2,26670,Note_off_c,9,82,0,
2,26670,Note_off_c,9,87,0,
2,26670,Note_off_c,9,88,0,
2,26670,Note_off_c,9,89,0,
2,26670,Note_off_c,9,91,0,
2,26670,Note_off_c,9,93,0,
2,26700,Note_off_c,9,35,0,
2,26700,Note_off_c,9,36,0,
2,26700,Note_off_c,9,37,0,
2,26700,Note_off_c,9,38,0,
2,26700,Note_off_c,9,39,0,
2,26700,Note_off_c,9,40,0,
2,26700,Note_off_c,9,41,0,
2,26700,Note_off_c,9,42,0,
2,26700,Note_off_c,9,43,0,
2,26700,Note_off_c,9,44,0,
2,26700,Note_off_c,9,45,0,
2,26700,Note_off_c,9,46,0,
2,26700,Note_off_c,9,47,0,
2,26700,Note_off_c,9,48,0,
2,26700,Note_off_c,9,49,0,
2,26700,Note_off_c,9,50,0,
2,26700,Note_off_c,9,51,0,
2,26700,Note_off_c,9,56,0,
2,26700,Note_off_c,9,57,0,
2,26700,Note_off_c,9,59,0,
2,26700,Note_off_c,9,60,0,
2,26700,Note_off_c,9,61,0,
2,26700,Note_off_c,9,63,0,
2,26700,Note_off_c,9,68,0,
2,26700,Note_off_c,9,69,0,
2,26700,Note_off_c,9,70,0,
2,26700,Note_off_c,9,76,0,
2,26700,Note_off_c,9,80,0,
2,26700,Note_off_c,9,81,0,
2,26700,Note_off_c,9,82,0,
2,26700,Note_off_c,9,87,0,
2,26700,Note_off_c,9,88,0,
2,26700,Note_off_c,9,89,0,
2,26700,Note_off_c,9,91,0,
2,26700,Note_off_c,9,93,0,
2,26730,Note_off_c,9,35,0,
2,26730,Note_off_c,9,36,0,
2,26730,Note_off_c,9,37,0,
2,26730,Note_off_c,9,38,0,
2,26730,Note_off_c,9,39,0,
2,26730,Note_off_c,9,40,0,
2,26730,Note_off_c,9,41,0,
2,26730,Note_off_c,9,42,0,
2,26730,Note_off_c,9,43,0,
2,26730,Note_off_c,9,44,0,
2,26730,Note_off_c,9,45,0,
2,26730,Note_off_c,9,46,0,
2,26730,Note_off_c,9,47,0,
2,26730,Note_off_c,9,48,0,
2,26730,Note_off_c,9,49,0,
2,26730,Note_off_c,9,50,0,
2,26730,Note_off_c,9,51,0,
2,26730,Note_off_c,9,56,0,
2,26730,Note_off_c,9,57,0,
2,26730,Note_off_c,9,59,0,
2,26730,Note_off_c,9,60,0,
2,26730,Note_off_c,9,61,0,
2,26730,Note_off_c,9,63,0,
2,26730,Note_off_c,9,68,0,
2,26730,Note_off_c,9,69,0,
2,26730,Note_off_c,9,70,0,
2,26730,Note_off_c,9,76,0,
2,26730,Note_off_c,9,80,0,
2,26730,Note_off_c,9,81,0,
2,26730,Note_off_c,9,82,0,
2,26730,Note_off_c,9,87,0,
2,26730,Note_off_c,9,88,0,
2,26730,Note_off_c,9,89,0,
2,26730,Note_off_c,9,91,0,
2,26730,Note_off_c,9,93,0,
2,26760,Note_off_c,9,35,0,
2,26760,Note_off_c,9,36,0,
2,26760,Note_off_c,9,37,0,
2,26760,Note_off_c,9,38,0,
2,26760,Note_off_c,9,39,0,
2,26760,Note_off_c,9,40,0,
2,26760,Note_off_c,9,41,0,
2,26760,Note_off_c,9,42,0,
2,26760,Note_off_c,9,43,0,
2,26760,Note_off_c,9,44,0,
2,26760,Note_off_c,9,45,0,
2,26760,Note_off_c,9,46,0,
2,26760,Note_off_c,9,47,0,
2,26760,Note_off_c,9,48,0,
2,26760,Note_off_c,9,49,0,
2,26760,Note_off_c,9,50,0,
2,26760,Note_off_c,9,51,0,
2,26760,Note_off_c,9,56,0,
2,26760,Note_off_c,9,57,0,
2,26760,Note_off_c,9,59,0,
2,26760,Note_off_c,9,60,0,
2,26760,Note_off_c,9,61,0,
2,26760,Note_off_c,9,63,0,
2,26760,Note_off_c,9,68,0,
2,26760,Note_off_c,9,69,0,
2,26760,Note_off_c,9,70,0,
2,26760,Note_off_c,9,76,0,
2,26760,Note_off_c,9,80,0,
2,26760,Note_off_c,9,81,0,
2,26760,Note_off_c,9,82,0,
2,26760,Note_off_c,9,87,0,
2,26760,Note_off_c,9,88,0,
2,26760,Note_off_c,9,89,0,
2,26760,Note_off_c,9,91,0,
2,26760,Note_off_c,9,93,0,
2,26790,Note_off_c,9,35,0,
2,26790,Note_off_c,9,36,0,
2,26790,Note_off_c,9,37,0,
2,26790,Note_off_c,9,38,0,
2,26790,Note_off_c,9,39,0,
2,26790,Note_off_c,9,40,0,
2,26790,Note_off_c,9,41,0,
2,26790,Note_off_c,9,42,0,
2,26790,Note_off_c,9,43,0,
2,26790,Note_off_c,9,44,0,
2,26790,Note_off_c,9,45,0,
2,26790,Note_off_c,9,46,0,
2,26790,Note_off_c,9,47,0,
2,26790,Note_off_c,9,48,0,
2,26790,Note_off_c,9,49,0,
2,26790,Note_off_c,9,50,0,
2,26790,Note_off_c,9,51,0,
2,26790,Note_off_c,9,56,0,
2,26790,Note_off_c,9,57,0,
2,26790,Note_off_c,9,59,0,
2,26790,Note_off_c,9,60,0,
2,26790,Note_off_c,9,61,0,
2,26790,Note_off_c,9,63,0,
2,26790,Note_off_c,9,68,0,
2,26790,Note_off_c,9,69,0,
2,26790,Note_off_c,9,70,0,
2,26790,Note_off_c,9,76,0,
2,26790,Note_off_c,9,80,0,
2,26790,Note_off_c,9,81,0,
2,26790,Note_off_c,9,82,0,
2,26790,Note_off_c,9,87,0,
2,26790,Note_off_c,9,88,0,
2,26790,Note_off_c,9,89,0,
2,26790,Note_off_c,9,91,0,
2,26790,Note_off_c,9,93,0,
2,26820,Note_off_c,9,35,0,
2,26820,Note_off_c,9,36,0,
2,26820,Note_off_c,9,37,0,
2,26820,Note_off_c,9,38,0,
2,26820,Note_off_c,9,39,0,
2,26820,Note_off_c,9,40,0,
2,26820,Note_off_c,9,41,0,
2,26820,Note_off_c,9,42,0,
2,26820,Note_off_c,9,43,0,
2,26820,Note_off_c,9,44,0,
2,26820,Note_off_c,9,45,0,
2,26820,Note_off_c,9,46,0,
2,26820,Note_off_c,9,47,0,
2,26820,Note_off_c,9,48,0,
2,26820,Note_off_c,9,49,0,
2,26820,Note_off_c,9,50,0,
2,26820,Note_off_c,9,51,0,
2,26820,Note_off_c,9,56,0,
2,26820,Note_off_c,9,57,0,
2,26820,Note_off_c,9,59,0,
2,26820,Note_off_c,9,60,0,
2,26820,Note_off_c,9,61,0,
2,26820,Note_off_c,9,63,0,
2,26820,Note_off_c,9,68,0,
2,26820,Note_off_c,9,69,0,
2,26820,Note_off_c,9,70,0,
2,26820,Note_off_c,9,76,0,
2,26820,Note_off_c,9,80,0,
2,26820,Note_off_c,9,81,0,
2,26820,Note_off_c,9,82,0,
2,26820,Note_off_c,9,87,0,
2,26820,Note_off_c,9,88,0,
2,26820,Note_off_c,9,89,0,
2,26820,Note_off_c,9,91,0,
2,26820,Note_off_c,9,93,0,
2,26850,Note_off_c,9,35,0,
2,26850,Note_off_c,9,36,0,
2,26850,Note_off_c,9,37,0,
2,26850,Note_off_c,9,38,0,
2,26850,Note_off_c,9,39,0,
2,26850,Note_off_c,9,40,0,
2,26850,Note_off_c,9,41,0,
2,26850,Note_off_c,9,42,0,
2,26850,Note_off_c,9,43,0,
2,26850,Note_off_c,9,44,0,
2,26850,Note_off_c,9,45,0,
2,26850,Note_off_c,9,46,0,
2,26850,Note_off_c,9,47,0,
2,26850,Note_off_c,9,48,0,
2,26850,Note_off_c,9,49,0,
2,26850,Note_off_c,9,50,0,
2,26850,Note_off_c,9,51,0,
2,26850,Note_off_c,9,56,0,
2,26850,Note_off_c,9,57,0,
2,26850,Note_off_c,9,59,0,
2,26850,Note_off_c,9,60,0,
2,26850,Note_off_c,9,61,0,
2,26850,Note_off_c,9,63,0,
2,26850,Note_off_c,9,68,0,
2,26850,Note_off_c,9,69,0,
2,26850,Note_off_c,9,70,0,
2,26850,Note_off_c,9,76,0,
2,26850,Note_off_c,9,80,0,
2,26850,Note_off_c,9,81,0,
2,26850,Note_off_c,9,82,0,
2,26850,Note_off_c,9,87,0,
2,26850,Note_off_c,9,88,0,
2,26850,Note_off_c,9,89,0,
2,26850,Note_off_c,9,91,0,
2,26850,Note_off_c,9,93,0,
2,26880,Note_off_c,9,35,0,
2,26880,Note_off_c,9,36,0,
2,26880,Note_off_c,9,37,0,
2,26880,Note_off_c,9,38,0,
2,26880,Note_off_c,9,39,0,
2,26880,Note_off_c,9,40,0,
2,26880,Note_off_c,9,41,0,
2,26880,Note_off_c,9,42,0,
2,26880,Note_off_c,9,43,0,
2,26880,Note_off_c,9,44,0,
2,26880,Note_off_c,9,45,0,
2,26880,Note_off_c,9,46,0,
2,26880,Note_off_c,9,47,0,
2,26880,Note_off_c,9,48,0,
2,26880,Note_off_c,9,49,0,
2,26880,Note_off_c,9,50,0,
2,26880,Note_off_c,9,51,0,
2,26880,Note_off_c,9,56,0,
2,26880,Note_off_c,9,57,0,
2,26880,Note_off_c,9,59,0,
2,26880,Note_off_c,9,60,0,
2,26880,Note_off_c,9,61,0,
2,26880,Note_off_c,9,63,0,
2,26880,Note_off_c,9,68,0,
2,26880,Note_off_c,9,69,0,
2,26880,Note_off_c,9,70,0,
2,26880,Note_off_c,9,76,0,
2,26880,Note_off_c,9,80,0,
2,26880,Note_off_c,9,81,0,
2,26880,Note_off_c,9,82,0,
2,26880,Note_off_c,9,87,0,
2,26880,Note_off_c,9,88,0,
2,26880,Note_off_c,9,89,0,
2,26880,Note_off_c,9,91,0,
2,26880,Note_off_c,9,93,0,
2,26910,Note_off_c,9,35,0,
2,26910,Note_off_c,9,36,0,
2,26910,Note_off_c,9,37,0,
2,26910,Note_off_c,9,38,0,
2,26910,Note_off_c,9,39,0,
2,26910,Note_off_c,9,40,0,
2,26910,Note_off_c,9,41,0,
2,26910,Note_off_c,9,42,0,
2,26910,Note_off_c,9,43,0,
2,26910,Note_off_c,9,44,0,
2,26910,Note_off_c,9,45,0,
2,26910,Note_off_c,9,46,0,
2,26910,Note_off_c,9,47,0,
2,26910,Note_off_c,9,48,0,
2,26910,Note_off_c,9,49,0,
2,26910,Note_off_c,9,50,0,
2,26910,Note_off_c,9,51,0,
2,26910,Note_off_c,9,56,0,
2,26910,Note_off_c,9,57,0,
2,26910,Note_off_c,9,59,0,
2,26910,Note_off_c,9,60,0,
2,26910,Note_off_c,9,61,0,
2,26910,Note_off_c,9,63,0,
2,26910,Note_off_c,9,68,0,
2,26910,Note_off_c,9,69,0,
2,26910,Note_off_c,9,70,0,
2,26910,Note_off_c,9,76,0,
2,26910,Note_off_c,9,80,0,
2,26910,Note_off_c,9,81,0,
2,26910,Note_off_c,9,82,0,
2,26910,Note_off_c,9,87,0,
2,26910,Note_off_c,9,88,0,
2,26910,Note_off_c,9,89,0,
2,26910,Note_off_c,9,91,0,
2,26910,Note_off_c,9,93,0,
2,26940,Note_off_c,9,35,0,
2,26940,Note_off_c,9,36,0,
2,26940,Note_off_c,9,37,0,
2,26940,Note_off_c,9,38,0,
2,26940,Note_off_c,9,39,0,
2,26940,Note_off_c,9,40,0,
2,26940,Note_off_c,9,41,0,
2,26940,Note_off_c,9,42,0,
2,26940,Note_off_c,9,43,0,
2,26940,Note_off_c,9,44,0,
2,26940,Note_off_c,9,45,0,
2,26940,Note_off_c,9,46,0,
2,26940,Note_off_c,9,47,0,
2,26940,Note_off_c,9,48,0,
2,26940,Note_off_c,9,49,0,
2,26940,Note_off_c,9,50,0,
2,26940,Note_off_c,9,51,0,
2,26940,Note_off_c,9,56,0,
2,26940,Note_off_c,9,57,0,
2,26940,Note_off_c,9,59,0,
2,26940,Note_off_c,9,60,0,
2,26940,Note_off_c,9,61,0,
2,26940,Note_off_c,9,63,0,
2,26940,Note_off_c,9,68,0,
2,26940,Note_off_c,9,69,0,
2,26940,Note_off_c,9,70,0,
2,26940,Note_off_c,9,76,0,
2,26940,Note_off_c,9,80,0,
2,26940,Note_off_c,9,81,0,
2,26940,Note_off_c,9,82,0,
2,26940,Note_off_c,9,87,0,
2,26940,Note_off_c,9,88,0,
2,26940,Note_off_c,9,89,0,
2,26940,Note_off_c,9,91,0,
2,26940,Note_off_c,9,93,0,
2,26970,Note_off_c,9,35,0,
2,26970,Note_off_c,9,36,0,
2,26970,Note_off_c,9,37,0,
2,26970,Note_off_c,9,38,0,
2,26970,Note_off_c,9,39,0,
2,26970,Note_off_c,9,40,0,
2,26970,Note_off_c,9,41,0,
2,26970,Note_off_c,9,42,0,
2,26970,Note_off_c,9,43,0,
2,26970,Note_off_c,9,44,0,
2,26970,Note_off_c,9,45,0,
2,26970,Note_off_c,9,46,0,
2,26970,Note_off_c,9,47,0,
2,26970,Note_off_c,9,48,0,
2,26970,Note_off_c,9,49,0,
2,26970,Note_off_c,9,50,0,
2,26970,Note_off_c,9,51,0,
2,26970,Note_off_c,9,56,0,
2,26970,Note_off_c,9,57,0,
2,26970,Note_off_c,9,59,0,
2,26970,Note_off_c,9,60,0,
2,26970,Note_off_c,9,61,0,
2,26970,Note_off_c,9,63,0,
2,26970,Note_off_c,9,68,0,
2,26970,Note_off_c,9,69,0,
2,26970,Note_off_c,9,70,0,
2,26970,Note_off_c,9,76,0,
2,26970,Note_off_c,9,80,0,
2,26970,Note_off_c,9,81,0,
2,26970,Note_off_c,9,82,0,
2,26970,Note_off_c,9,87,0,
2,26970,Note_off_c,9,88,0,
2,26970,Note_off_c,9,89,0,
2,26970,Note_off_c,9,91,0,
2,26970,Note_off_c,9,93,0,
2,27000,Note_off_c,9,35,0,
2,27000,Note_off_c,9,36,0,
2,27000,Note_off_c,9,37,0,
2,27000,Note_off_c,9,38,0,
2,27000,Note_off_c,9,39,0,
2,27000,Note_off_c,9,40,0,
2,27000,Note_off_c,9,41,0,
2,27000,Note_off_c,9,42,0,
2,27000,Note_off_c,9,43,0,
2,27000,Note_off_c,9,44,0,
2,27000,Note_off_c,9,45,0,
2,27000,Note_off_c,9,46,0,
2,27000,Note_off_c,9,47,0,
2,27000,Note_off_c,9,48,0,
2,27000,Note_off_c,9,49,0,
2,27000,Note_off_c,9,50,0,
2,27000,Note_off_c,9,51,0,
2,27000,Note_off_c,9,56,0,
2,27000,Note_off_c,9,57,0,
2,27000,Note_off_c,9,59,0,
2,27000,Note_off_c,9,60,0,
2,27000,Note_off_c,9,61,0,
2,27000,Note_off_c,9,63,0,
2,27000,Note_off_c,9,68,0,
2,27000,Note_off_c,9,69,0,
2,27000,Note_off_c,9,70,0,
2,27000,Note_off_c,9,76,0,
2,27000,Note_off_c,9,80,0,
2,27000,Note_off_c,9,81,0,
2,27000,Note_off_c,9,82,0,
2,27000,Note_off_c,9,87,0,
2,27000,Note_off_c,9,88,0,
2,27000,Note_off_c,9,89,0,
2,27000,Note_off_c,9,91,0,
2,27000,Note_off_c,9,93,0,
2,27030,Note_off_c,9,35,0,
2,27030,Note_off_c,9,36,0,
2,27030,Note_off_c,9,37,0,
2,27030,Note_off_c,9,38,0,
2,27030,Note_off_c,9,39,0,
2,27030,Note_off_c,9,40,0,
2,27030,Note_off_c,9,41,0,
2,27030,Note_off_c,9,42,0,
2,27030,Note_off_c,9,43,0,
2,27030,Note_off_c,9,44,0,
2,27030,Note_off_c,9,45,0,
2,27030,Note_off_c,9,46,0,
2,27030,Note_off_c,9,47,0,
2,27030,Note_off_c,9,48,0,
2,27030,Note_off_c,9,49,0,
2,27030,Note_off_c,9,50,0,
2,27030,Note_off_c,9,51,0,
2,27030,Note_off_c,9,56,0,
2,27030,Note_off_c,9,57,0,
2,27030,Note_off_c,9,59,0,
2,27030,Note_off_c,9,60,0,
2,27030,Note_off_c,9,61,0,
2,27030,Note_off_c,9,63,0,
2,27030,Note_off_c,9,68,0,
2,27030,Note_off_c,9,69,0,
2,27030,Note_off_c,9,70,0,
2,27030,Note_off_c,9,76,0,
2,27030,Note_off_c,9,80,0,
2,27030,Note_off_c,9,81,0,
2,27030,Note_off_c,9,82,0,
2,27030,Note_off_c,9,87,0,
2,27030,Note_off_c,9,88,0,
2,27030,Note_off_c,9,89,0,
2,27030,Note_off_c,9,91,0,
2,27030,Note_off_c,9,93,0,
2,27060,Note_off_c,9,35,0,
2,27060,Note_off_c,9,36,0,
2,27060,Note_off_c,9,37,0,
2,27060,Note_off_c,9,38,0,
2,27060,Note_off_c,9,39,0,
2,27060,Note_off_c,9,40,0,
2,27060,Note_off_c,9,41,0,
2,27060,Note_off_c,9,42,0,
2,27060,Note_off_c,9,43,0,
2,27060,Note_off_c,9,44,0,
2,27060,Note_off_c,9,45,0,
2,27060,Note_off_c,9,46,0,
2,27060,Note_off_c,9,47,0,
2,27060,Note_off_c,9,48,0,
2,27060,Note_off_c,9,49,0,
2,27060,Note_off_c,9,50,0,
2,27060,Note_off_c,9,51,0,
2,27060,Note_off_c,9,56,0,
2,27060,Note_off_c,9,57,0,
2,27060,Note_off_c,9,59,0,
2,27060,Note_off_c,9,60,0,
2,27060,Note_off_c,9,61,0,
2,27060,Note_off_c,9,63,0,
2,27060,Note_off_c,9,68,0,
2,27060,Note_off_c,9,69,0,
2,27060,Note_off_c,9,70,0,
2,27060,Note_off_c,9,76,0,
2,27060,Note_off_c,9,80,0,
2,27060,Note_off_c,9,81,0,
2,27060,Note_off_c,9,82,0,
2,27060,Note_off_c,9,87,0,
2,27060,Note_off_c,9,88,0,
2,27060,Note_off_c,9,89,0,
2,27060,Note_off_c,9,91,0,
2,27060,Note_off_c,9,93,0,
2,27090,Note_off_c,9,35,0,
2,27090,Note_off_c,9,36,0,
2,27090,Note_off_c,9,37,0,
2,27090,Note_off_c,9,38,0,
2,27090,Note_off_c,9,39,0,
2,27090,Note_off_c,9,40,0,
2,27090,Note_off_c,9,41,0,
2,27090,Note_off_c,9,42,0,
2,27090,Note_off_c,9,43,0,
2,27090,Note_off_c,9,44,0,
2,27090,Note_off_c,9,45,0,
2,27090,Note_off_c,9,46,0,
2,27090,Note_off_c,9,47,0,
2,27090,Note_off_c,9,48,0,
2,27090,Note_off_c,9,49,0,
2,27090,Note_off_c,9,50,0,
2,27090,Note_off_c,9,51,0,
2,27090,Note_off_c,9,56,0,
2,27090,Note_off_c,9,57,0,
2,27090,Note_off_c,9,59,0,
2,27090,Note_off_c,9,60,0,
2,27090,Note_off_c,9,61,0,
2,27090,Note_off_c,9,63,0,
2,27090,Note_off_c,9,68,0,
2,27090,Note_off_c,9,69,0,
2,27090,Note_off_c,9,70,0,
2,27090,Note_off_c,9,76,0,
2,27090,Note_off_c,9,80,0,
2,27090,Note_off_c,9,81,0,
2,27090,Note_off_c,9,82,0,
2,27090,Note_off_c,9,87,0,
2,27090,Note_off_c,9,88,0,
2,27090,Note_off_c,9,89,0,
2,27090,Note_off_c,9,91,0,
2,27090,Note_off_c,9,93,0,
2,27120,Note_off_c,9,35,0,
2,27120,Note_off_c,9,36,0,
2,27120,Note_off_c,9,37,0,
2,27120,Note_off_c,9,38,0,
2,27120,Note_off_c,9,39,0,
2,27120,Note_off_c,9,40,0,
2,27120,Note_off_c,9,41,0,
2,27120,Note_off_c,9,42,0,
2,27120,Note_off_c,9,43,0,
2,27120,Note_off_c,9,44,0,
2,27120,Note_off_c,9,45,0,
2,27120,Note_off_c,9,46,0,
2,27120,Note_off_c,9,47,0,
2,27120,Note_off_c,9,48,0,
2,27120,Note_off_c,9,49,0,
2,27120,Note_off_c,9,50,0,
2,27120,Note_off_c,9,51,0,
2,27120,Note_off_c,9,56,0,
2,27120,Note_off_c,9,57,0,
2,27120,Note_off_c,9,59,0,
2,27120,Note_off_c,9,60,0,
2,27120,Note_off_c,9,61,0,
2,27120,Note_off_c,9,63,0,
2,27120,Note_off_c,9,68,0,
2,27120,Note_off_c,9,69,0,
2,27120,Note_off_c,9,70,0,
2,27120,Note_off_c,9,76,0,
2,27120,Note_off_c,9,80,0,
2,27120,Note_off_c,9,81,0,
2,27120,Note_off_c,9,82,0,
2,27120,Note_off_c,9,87,0,
2,27120,Note_off_c,9,88,0,
2,27120,Note_off_c,9,89,0,
2,27120,Note_off_c,9,91,0,
2,27120,Note_off_c,9,93,0,
2,27150,Note_off_c,9,35,0,
2,27150,Note_off_c,9,36,0,
2,27150,Note_off_c,9,37,0,
2,27150,Note_off_c,9,38,0,
2,27150,Note_off_c,9,39,0,
2,27150,Note_off_c,9,40,0,
2,27150,Note_off_c,9,41,0,
2,27150,Note_off_c,9,42,0,
2,27150,Note_off_c,9,43,0,
2,27150,Note_off_c,9,44,0,
2,27150,Note_off_c,9,45,0,
2,27150,Note_off_c,9,46,0,
2,27150,Note_off_c,9,47,0,
2,27150,Note_off_c,9,48,0,
2,27150,Note_off_c,9,49,0,
2,27150,Note_off_c,9,50,0,
2,27150,Note_off_c,9,51,0,
2,27150,Note_off_c,9,56,0,
2,27150,Note_off_c,9,57,0,
2,27150,Note_off_c,9,59,0,
2,27150,Note_off_c,9,60,0,
2,27150,Note_off_c,9,61,0,
2,27150,Note_off_c,9,63,0,
2,27150,Note_off_c,9,68,0,
2,27150,Note_off_c,9,69,0,
2,27150,Note_off_c,9,70,0,
2,27150,Note_off_c,9,76,0,
2,27150,Note_off_c,9,80,0,
2,27150,Note_off_c,9,81,0,
2,27150,Note_off_c,9,82,0,
2,27150,Note_off_c,9,87,0,
2,27150,Note_off_c,9,88,0,
2,27150,Note_off_c,9,89,0,
2,27150,Note_off_c,9,91,0,
2,27150,Note_off_c,9,93,0,
2,27180,Note_off_c,9,35,0,
2,27180,Note_off_c,9,36,0,
2,27180,Note_off_c,9,37,0,
2,27180,Note_off_c,9,38,0,
2,27180,Note_off_c,9,39,0,
2,27180,Note_off_c,9,40,0,
2,27180,Note_off_c,9,41,0,
2,27180,Note_off_c,9,42,0,
2,27180,Note_off_c,9,43,0,
2,27180,Note_off_c,9,44,0,
2,27180,Note_off_c,9,45,0,
2,27180,Note_off_c,9,46,0,
2,27180,Note_off_c,9,47,0,
2,27180,Note_off_c,9,48,0,
2,27180,Note_off_c,9,49,0,
2,27180,Note_off_c,9,50,0,
2,27180,Note_off_c,9,51,0,
2,27180,Note_off_c,9,56,0,
2,27180,Note_off_c,9,57,0,
2,27180,Note_off_c,9,59,0,
2,27180,Note_off_c,9,60,0,
2,27180,Note_off_c,9,61,0,
2,27180,Note_off_c,9,63,0,
2,27180,Note_off_c,9,68,0,
2,27180,Note_off_c,9,69,0,
2,27180,Note_off_c,9,70,0,
2,27180,Note_off_c,9,76,0,
2,27180,Note_off_c,9,80,0,
2,27180,Note_off_c,9,81,0,
2,27180,Note_off_c,9,82,0,
2,27180,Note_off_c,9,87,0,
2,27180,Note_off_c,9,88,0,
2,27180,Note_off_c,9,89,0,
2,27180,Note_off_c,9,91,0,
2,27180,Note_off_c,9,93,0,
2,27210,Note_off_c,9,35,0,
2,27210,Note_off_c,9,36,0,
2,27210,Note_off_c,9,37,0,
2,27210,Note_off_c,9,38,0,
2,27210,Note_off_c,9,39,0,
2,27210,Note_off_c,9,40,0,
2,27210,Note_off_c,9,41,0,
2,27210,Note_off_c,9,42,0,
2,27210,Note_off_c,9,43,0,
2,27210,Note_off_c,9,44,0,
2,27210,Note_off_c,9,45,0,
2,27210,Note_off_c,9,46,0,
2,27210,Note_off_c,9,47,0,
2,27210,Note_off_c,9,48,0,
2,27210,Note_off_c,9,49,0,
2,27210,Note_off_c,9,50,0,
2,27210,Note_off_c,9,51,0,
2,27210,Note_off_c,9,56,0,
2,27210,Note_off_c,9,57,0,
2,27210,Note_off_c,9,59,0,
2,27210,Note_off_c,9,60,0,
2,27210,Note_off_c,9,61,0,
2,27210,Note_off_c,9,63,0,
2,27210,Note_off_c,9,68,0,
2,27210,Note_off_c,9,69,0,
2,27210,Note_off_c,9,70,0,
2,27210,Note_off_c,9,76,0,
2,27210,Note_off_c,9,80,0,
2,27210,Note_off_c,9,81,0,
2,27210,Note_off_c,9,82,0,
2,27210,Note_off_c,9,87,0,
2,27210,Note_off_c,9,88,0,
2,27210,Note_off_c,9,89,0,
2,27210,Note_off_c,9,91,0,
2,27210,Note_off_c,9,93,0,
2,27240,Note_off_c,9,35,0,
2,27240,Note_off_c,9,36,0,
2,27240,Note_off_c,9,37,0,
2,27240,Note_off_c,9,38,0,
2,27240,Note_off_c,9,39,0,
2,27240,Note_off_c,9,40,0,
2,27240,Note_off_c,9,41,0,
2,27240,Note_off_c,9,42,0,
2,27240,Note_off_c,9,43,0,
2,27240,Note_off_c,9,44,0,
2,27240,Note_off_c,9,45,0,
2,27240,Note_off_c,9,46,0,
2,27240,Note_off_c,9,47,0,
2,27240,Note_off_c,9,48,0,
2,27240,Note_off_c,9,49,0,
2,27240,Note_off_c,9,50,0,
2,27240,Note_off_c,9,51,0,
2,27240,Note_off_c,9,56,0,
2,27240,Note_off_c,9,57,0,
2,27240,Note_off_c,9,59,0,
2,27240,Note_off_c,9,60,0,
2,27240,Note_off_c,9,61,0,
2,27240,Note_off_c,9,63,0,
2,27240,Note_off_c,9,68,0,
2,27240,Note_off_c,9,69,0,
2,27240,Note_off_c,9,70,0,
2,27240,Note_off_c,9,76,0,
2,27240,Note_off_c,9,80,0,
2,27240,Note_off_c,9,81,0,
2,27240,Note_off_c,9,82,0,
2,27240,Note_off_c,9,87,0,
2,27240,Note_off_c,9,88,0,
2,27240,Note_off_c,9,89,0,
2,27240,Note_off_c,9,91,0,
2,27240,Note_off_c,9,93,0,
2,27270,Note_off_c,9,35,0,
2,27270,Note_off_c,9,36,0,
2,27270,Note_off_c,9,37,0,
2,27270,Note_off_c,9,38,0,
2,27270,Note_off_c,9,39,0,
2,27270,Note_off_c,9,40,0,
2,27270,Note_off_c,9,41,0,
2,27270,Note_off_c,9,42,0,
2,27270,Note_off_c,9,43,0,
2,27270,Note_off_c,9,44,0,
2,27270,Note_off_c,9,45,0,
2,27270,Note_off_c,9,46,0,
2,27270,Note_off_c,9,47,0,
2,27270,Note_off_c,9,48,0,
2,27270,Note_off_c,9,49,0,
2,27270,Note_off_c,9,50,0,
2,27270,Note_off_c,9,51,0,
2,27270,Note_off_c,9,56,0,
2,27270,Note_off_c,9,57,0,
2,27270,Note_off_c,9,59,0,
2,27270,Note_off_c,9,60,0,
2,27270,Note_off_c,9,61,0,
2,27270,Note_off_c,9,63,0,
2,27270,Note_off_c,9,68,0,
2,27270,Note_off_c,9,69,0,
2,27270,Note_off_c,9,70,0,
2,27270,Note_off_c,9,76,0,
2,27270,Note_off_c,9,80,0,
2,27270,Note_off_c,9,81,0,
2,27270,Note_off_c,9,82,0,
2,27270,Note_off_c,9,87,0,
2,27270,Note_off_c,9,88,0,
2,27270,Note_off_c,9,89,0,
2,27270,Note_off_c,9,91,0,
2,27270,Note_off_c,9,93,0,
2,27300,Note_off_c,9,35,0,
2,27300,Note_off_c,9,36,0,
2,27300,Note_off_c,9,37,0,
2,27300,Note_off_c,9,38,0,
2,27300,Note_off_c,9,39,0,
2,27300,Note_off_c,9,40,0,
2,27300,Note_off_c,9,41,0,
2,27300,Note_off_c,9,42,0,
2,27300,Note_off_c,9,43,0,
2,27300,Note_off_c,9,44,0,
2,27300,Note_off_c,9,45,0,
2,27300,Note_off_c,9,46,0,
2,27300,Note_off_c,9,47,0,
2,27300,Note_off_c,9,48,0,
2,27300,Note_off_c,9,49,0,
2,27300,Note_off_c,9,50,0,
2,27300,Note_off_c,9,51,0,
2,27300,Note_off_c,9,56,0,
2,27300,Note_off_c,9,57,0,
2,27300,Note_off_c,9,59,0,
2,27300,Note_off_c,9,60,0,
2,27300,Note_off_c,9,61,0,
2,27300,Note_off_c,9,63,0,
2,27300,Note_off_c,9,68,0,
2,27300,Note_off_c,9,69,0,
2,27300,Note_off_c,9,70,0,
2,27300,Note_off_c,9,76,0,
2,27300,Note_off_c,9,80,0,
2,27300,Note_off_c,9,81,0,
2,27300,Note_off_c,9,82,0,
2,27300,Note_off_c,9,87,0,
2,27300,Note_off_c,9,88,0,
2,27300,Note_off_c,9,89,0,
2,27300,Note_off_c,9,91,0,
2,27300,Note_off_c,9,93,0,
2,27330,Note_off_c,9,35,0,
2,27330,Note_off_c,9,36,0,
2,27330,Note_off_c,9,37,0,
2,27330,Note_off_c,9,38,0,
2,27330,Note_off_c,9,39,0,
2,27330,Note_off_c,9,40,0,
2,27330,Note_off_c,9,41,0,
2,27330,Note_off_c,9,42,0,
2,27330,Note_off_c,9,43,0,
2,27330,Note_off_c,9,44,0,
2,27330,Note_off_c,9,45,0,
2,27330,Note_off_c,9,46,0,
2,27330,Note_off_c,9,47,0,
2,27330,Note_off_c,9,48,0,
2,27330,Note_off_c,9,49,0,
2,27330,Note_off_c,9,50,0,
2,27330,Note_off_c,9,51,0,
2,27330,Note_off_c,9,56,0,
2,27330,Note_off_c,9,57,0,
2,27330,Note_off_c,9,59,0,
2,27330,Note_off_c,9,60,0,
2,27330,Note_off_c,9,61,0,
2,27330,Note_off_c,9,63,0,
2,27330,Note_off_c,9,68,0,
2,27330,Note_off_c,9,69,0,
2,27330,Note_off_c,9,70,0,
2,27330,Note_off_c,9,76,0,
2,27330,Note_off_c,9,80,0,
2,27330,Note_off_c,9,81,0,
2,27330,Note_off_c,9,82,0,
2,27330,Note_off_c,9,87,0,
2,27330,Note_off_c,9,88,0,
2,27330,Note_off_c,9,89,0,
2,27330,Note_off_c,9,91,0,
2,27330,Note_off_c,9,93,0,
2,27360,Note_off_c,9,35,0,
2,27360,Note_off_c,9,36,0,
2,27360,Note_off_c,9,37,0,
2,27360,Note_off_c,9,38,0,
2,27360,Note_off_c,9,39,0,
2,27360,Note_off_c,9,40,0,
2,27360,Note_off_c,9,41,0,
2,27360,Note_off_c,9,42,0,
2,27360,Note_off_c,9,43,0,
2,27360,Note_off_c,9,44,0,
2,27360,Note_off_c,9,45,0,
2,27360,Note_off_c,9,46,0,
2,27360,Note_off_c,9,47,0,
2,27360,Note_off_c,9,48,0,
2,27360,Note_off_c,9,49,0,
2,27360,Note_off_c,9,50,0,
2,27360,Note_off_c,9,51,0,
2,27360,Note_off_c,9,56,0,
2,27360,Note_off_c,9,57,0,
2,27360,Note_off_c,9,59,0,
2,27360,Note_off_c,9,60,0,
2,27360,Note_off_c,9,61,0,
2,27360,Note_off_c,9,63,0,
2,27360,Note_off_c,9,68,0,
2,27360,Note_off_c,9,69,0,
2,27360,Note_off_c,9,70,0,
2,27360,Note_off_c,9,76,0,
2,27360,Note_off_c,9,80,0,
2,27360,Note_off_c,9,81,0,
2,27360,Note_off_c,9,82,0,
2,27360,Note_off_c,9,87,0,
2,27360,Note_off_c,9,88,0,
2,27360,Note_off_c,9,89,0,
2,27360,Note_off_c,9,91,0,
2,27360,Note_off_c,9,93,0,
2,27390,Note_off_c,9,35,0,
2,27390,Note_off_c,9,36,0,
2,27390,Note_off_c,9,37,0,
2,27390,Note_off_c,9,38,0,
2,27390,Note_off_c,9,39,0,
2,27390,Note_off_c,9,40,0,
2,27390,Note_off_c,9,41,0,
2,27390,Note_off_c,9,42,0,
2,27390,Note_off_c,9,43,0,
2,27390,Note_off_c,9,44,0,
2,27390,Note_off_c,9,45,0,
2,27390,Note_off_c,9,46,0,
2,27390,Note_off_c,9,47,0,
2,27390,Note_off_c,9,48,0,
2,27390,Note_off_c,9,49,0,
2,27390,Note_off_c,9,50,0,
2,27390,Note_off_c,9,51,0,
2,27390,Note_off_c,9,56,0,
2,27390,Note_off_c,9,57,0,
2,27390,Note_off_c,9,59,0,
2,27390,Note_off_c,9,60,0,
2,27390,Note_off_c,9,61,0,
2,27390,Note_off_c,9,63,0,
2,27390,Note_off_c,9,68,0,
2,27390,Note_off_c,9,69,0,
2,27390,Note_off_c,9,70,0,
2,27390,Note_off_c,9,76,0,
2,27390,Note_off_c,9,80,0,
2,27390,Note_off_c,9,81,0,
2,27390,Note_off_c,9,82,0,
2,27390,Note_off_c,9,87,0,
2,27390,Note_off_c,9,88,0,
2,27390,Note_off_c,9,89,0,
2,27390,Note_off_c,9,91,0,
2,27390,Note_off_c,9,93,0,
2,27420,Note_off_c,9,35,0,
2,27420,Note_off_c,9,36,0,
2,27420,Note_off_c,9,37,0,
2,27420,Note_off_c,9,38,0,
2,27420,Note_off_c,9,39,0,
2,27420,Note_off_c,9,40,0,
2,27420,Note_off_c,9,41,0,
2,27420,Note_off_c,9,42,0,
2,27420,Note_off_c,9,43,0,
2,27420,Note_off_c,9,44,0,
2,27420,Note_off_c,9,45,0,
2,27420,Note_off_c,9,46,0,
2,27420,Note_off_c,9,47,0,
2,27420,Note_off_c,9,48,0,
2,27420,Note_off_c,9,49,0,
2,27420,Note_off_c,9,50,0,
2,27420,Note_off_c,9,51,0,
2,27420,Note_off_c,9,56,0,
2,27420,Note_off_c,9,57,0,
2,27420,Note_off_c,9,59,0,
2,27420,Note_off_c,9,60,0,
2,27420,Note_off_c,9,61,0,
2,27420,Note_off_c,9,63,0,
2,27420,Note_off_c,9,68,0,
2,27420,Note_off_c,9,69,0,
2,27420,Note_off_c,9,70,0,
2,27420,Note_off_c,9,76,0,
2,27420,Note_off_c,9,80,0,
2,27420,Note_off_c,9,81,0,
2,27420,Note_off_c,9,82,0,
2,27420,Note_off_c,9,87,0,
2,27420,Note_off_c,9,88,0,
2,27420,Note_off_c,9,89,0,
2,27420,Note_off_c,9,91,0,
2,27420,Note_off_c,9,93,0,
2,27450,Note_off_c,9,35,0,
2,27450,Note_off_c,9,36,0,
2,27450,Note_off_c,9,37,0,
2,27450,Note_off_c,9,38,0,
2,27450,Note_off_c,9,39,0,
2,27450,Note_off_c,9,40,0,
2,27450,Note_off_c,9,41,0,
2,27450,Note_off_c,9,42,0,
2,27450,Note_off_c,9,43,0,
2,27450,Note_off_c,9,44,0,
2,27450,Note_off_c,9,45,0,
2,27450,Note_off_c,9,46,0,
2,27450,Note_off_c,9,47,0,
2,27450,Note_off_c,9,48,0,
2,27450,Note_off_c,9,49,0,
2,27450,Note_off_c,9,50,0,
2,27450,Note_off_c,9,51,0,
2,27450,Note_off_c,9,56,0,
2,27450,Note_off_c,9,57,0,
2,27450,Note_off_c,9,59,0,
2,27450,Note_off_c,9,60,0,
2,27450,Note_off_c,9,61,0,
2,27450,Note_off_c,9,63,0,
2,27450,Note_off_c,9,68,0,
2,27450,Note_off_c,9,69,0,
2,27450,Note_off_c,9,70,0,
2,27450,Note_off_c,9,76,0,
2,27450,Note_off_c,9,80,0,
2,27450,Note_off_c,9,81,0,
2,27450,Note_off_c,9,82,0,
2,27450,Note_off_c,9,87,0,
2,27450,Note_off_c,9,88,0,
2,27450,Note_off_c,9,89,0,
2,27450,Note_off_c,9,91,0,
2,27450,Note_off_c,9,93,0,
2,27480,Note_off_c,9,35,0,
2,27480,Note_off_c,9,36,0,
2,27480,Note_off_c,9,37,0,
2,27480,Note_off_c,9,38,0,
2,27480,Note_off_c,9,39,0,
2,27480,Note_off_c,9,40,0,
2,27480,Note_off_c,9,41,0,
2,27480,Note_off_c,9,42,0,
2,27480,Note_off_c,9,43,0,
2,27480,Note_off_c,9,44,0,
2,27480,Note_off_c,9,45,0,
2,27480,Note_off_c,9,46,0,
2,27480,Note_off_c,9,47,0,
2,27480,Note_off_c,9,48,0,
2,27480,Note_off_c,9,49,0,
2,27480,Note_off_c,9,50,0,
2,27480,Note_off_c,9,51,0,
2,27480,Note_off_c,9,56,0,
2,27480,Note_off_c,9,57,0,
2,27480,Note_off_c,9,59,0,
2,27480,Note_off_c,9,60,0,
2,27480,Note_off_c,9,61,0,
2,27480,Note_off_c,9,63,0,
2,27480,Note_off_c,9,68,0,
2,27480,Note_off_c,9,69,0,
2,27480,Note_off_c,9,70,0,
2,27480,Note_off_c,9,76,0,
2,27480,Note_off_c,9,80,0,
2,27480,Note_off_c,9,81,0,
2,27480,Note_off_c,9,82,0,
2,27480,Note_off_c,9,87,0,
2,27480,Note_off_c,9,88,0,
2,27480,Note_off_c,9,89,0,
2,27480,Note_off_c,9,91,0,
2,27480,Note_off_c,9,93,0,
2,27510,Note_off_c,9,35,0,
2,27510,Note_off_c,9,36,0,
2,27510,Note_off_c,9,37,0,
2,27510,Note_off_c,9,38,0,
2,27510,Note_off_c,9,39,0,
2,27510,Note_off_c,9,40,0,
2,27510,Note_off_c,9,41,0,
2,27510,Note_off_c,9,42,0,
2,27510,Note_off_c,9,43,0,
2,27510,Note_off_c,9,44,0,
2,27510,Note_off_c,9,45,0,
2,27510,Note_off_c,9,46,0,
2,27510,Note_off_c,9,47,0,
2,27510,Note_off_c,9,48,0,
2,27510,Note_off_c,9,49,0,
2,27510,Note_off_c,9,50,0,
2,27510,Note_off_c,9,51,0,
2,27510,Note_off_c,9,56,0,
2,27510,Note_off_c,9,57,0,
2,27510,Note_off_c,9,59,0,
2,27510,Note_off_c,9,60,0,
2,27510,Note_off_c,9,61,0,
2,27510,Note_off_c,9,63,0,
2,27510,Note_off_c,9,68,0,
2,27510,Note_off_c,9,69,0,
2,27510,Note_off_c,9,70,0,
2,27510,Note_off_c,9,76,0,
2,27510,Note_off_c,9,80,0,
2,27510,Note_off_c,9,81,0,
2,27510,Note_off_c,9,82,0,
2,27510,Note_off_c,9,87,0,
2,27510,Note_off_c,9,88,0,
2,27510,Note_off_c,9,89,0,
2,27510,Note_off_c,9,91,0,
2,27510,Note_off_c,9,93,0,
2,27540,Note_off_c,9,35,0,
2,27540,Note_off_c,9,36,0,
2,27540,Note_off_c,9,37,0,
2,27540,Note_off_c,9,38,0,
2,27540,Note_off_c,9,39,0,
2,27540,Note_off_c,9,40,0,
2,27540,Note_off_c,9,41,0,
2,27540,Note_off_c,9,42,0,
2,27540,Note_off_c,9,43,0,
2,27540,Note_off_c,9,44,0,
2,27540,Note_off_c,9,45,0,
2,27540,Note_off_c,9,46,0,
2,27540,Note_off_c,9,47,0,
2,27540,Note_off_c,9,48,0,
2,27540,Note_off_c,9,49,0,
2,27540,Note_off_c,9,50,0,
2,27540,Note_off_c,9,51,0,
2,27540,Note_off_c,9,56,0,
2,27540,Note_off_c,9,57,0,
2,27540,Note_off_c,9,59,0,
2,27540,Note_off_c,9,60,0,
2,27540,Note_off_c,9,61,0,
2,27540,Note_off_c,9,63,0,
2,27540,Note_off_c,9,68,0,
2,27540,Note_off_c,9,69,0,
2,27540,Note_off_c,9,70,0,
2,27540,Note_off_c,9,76,0,
2,27540,Note_off_c,9,80,0,
2,27540,Note_off_c,9,81,0,
2,27540,Note_off_c,9,82,0,
2,27540,Note_off_c,9,87,0,
2,27540,Note_off_c,9,88,0,
2,27540,Note_off_c,9,89,0,
2,27540,Note_off_c,9,91,0,
2,27540,Note_off_c,9,93,0,
2,27570,Note_off_c,9,35,0,
2,27570,Note_off_c,9,36,0,
2,27570,Note_off_c,9,37,0,
2,27570,Note_off_c,9,38,0,
2,27570,Note_off_c,9,39,0,
2,27570,Note_off_c,9,40,0,
2,27570,Note_off_c,9,41,0,
2,27570,Note_off_c,9,42,0,
2,27570,Note_off_c,9,43,0,
2,27570,Note_off_c,9,44,0,
2,27570,Note_off_c,9,45,0,
2,27570,Note_off_c,9,46,0,
2,27570,Note_off_c,9,47,0,
2,27570,Note_off_c,9,48,0,
2,27570,Note_off_c,9,49,0,
2,27570,Note_off_c,9,50,0,
2,27570,Note_off_c,9,51,0,
2,27570,Note_off_c,9,56,0,
2,27570,Note_off_c,9,57,0,
2,27570,Note_off_c,9,59,0,
2,27570,Note_off_c,9,60,0,
2,27570,Note_off_c,9,61,0,
2,27570,Note_off_c,9,63,0,
2,27570,Note_off_c,9,68,0,
2,27570,Note_off_c,9,69,0,
2,27570,Note_off_c,9,70,0,
2,27570,Note_off_c,9,76,0,
2,27570,Note_off_c,9,80,0,
2,27570,Note_off_c,9,81,0,
2,27570,Note_off_c,9,82,0,
2,27570,Note_off_c,9,87,0,
2,27570,Note_off_c,9,88,0,
2,27570,Note_off_c,9,89,0,
2,27570,Note_off_c,9,91,0,
2,27570,Note_off_c,9,93,0,
2,27600,Note_off_c,9,35,0,
2,27600,Note_off_c,9,36,0,
2,27600,Note_off_c,9,37,0,
2,27600,Note_off_c,9,38,0,
2,27600,Note_off_c,9,39,0,
2,27600,Note_off_c,9,40,0,
2,27600,Note_off_c,9,41,0,
2,27600,Note_off_c,9,42,0,
2,27600,Note_off_c,9,43,0,
2,27600,Note_off_c,9,44,0,
2,27600,Note_off_c,9,45,0,
2,27600,Note_off_c,9,46,0,
2,27600,Note_off_c,9,47,0,
2,27600,Note_off_c,9,48,0,
2,27600,Note_off_c,9,49,0,
2,27600,Note_off_c,9,50,0,
2,27600,Note_off_c,9,51,0,
2,27600,Note_off_c,9,56,0,
2,27600,Note_off_c,9,57,0,
2,27600,Note_off_c,9,59,0,
2,27600,Note_off_c,9,60,0,
2,27600,Note_off_c,9,61,0,
2,27600,Note_off_c,9,63,0,
2,27600,Note_off_c,9,68,0,
2,27600,Note_off_c,9,69,0,
2,27600,Note_off_c,9,70,0,
2,27600,Note_off_c,9,76,0,
2,27600,Note_off_c,9,80,0,
2,27600,Note_off_c,9,81,0,
2,27600,Note_off_c,9,82,0,
2,27600,Note_off_c,9,87,0,
2,27600,Note_off_c,9,88,0,
2,27600,Note_off_c,9,89,0,
2,27600,Note_off_c,9,91,0,
2,27600,Note_off_c,9,93,0,
2,27630,Note_off_c,9,35,0,
2,27630,Note_off_c,9,36,0,
2,27630,Note_off_c,9,37,0,
2,27630,Note_off_c,9,38,0,
2,27630,Note_off_c,9,39,0,
2,27630,Note_off_c,9,40,0,
2,27630,Note_off_c,9,41,0,
2,27630,Note_off_c,9,42,0,
2,27630,Note_off_c,9,43,0,
2,27630,Note_off_c,9,44,0,
2,27630,Note_off_c,9,45,0,
2,27630,Note_off_c,9,46,0,
2,27630,Note_off_c,9,47,0,
2,27630,Note_off_c,9,48,0,
2,27630,Note_off_c,9,49,0,
2,27630,Note_off_c,9,50,0,
2,27630,Note_off_c,9,51,0,
2,27630,Note_off_c,9,56,0,
2,27630,Note_off_c,9,57,0,
2,27630,Note_off_c,9,59,0,
2,27630,Note_off_c,9,60,0,
2,27630,Note_off_c,9,61,0,
2,27630,Note_off_c,9,63,0,
2,27630,Note_off_c,9,68,0,
2,27630,Note_off_c,9,69,0,
2,27630,Note_off_c,9,70,0,
2,27630,Note_off_c,9,76,0,
2,27630,Note_off_c,9,80,0,
2,27630,Note_off_c,9,81,0,
2,27630,Note_off_c,9,82,0,
2,27630,Note_off_c,9,87,0,
2,27630,Note_off_c,9,88,0,
2,27630,Note_off_c,9,89,0,
2,27630,Note_off_c,9,91,0,
2,27630,Note_off_c,9,93,0,
2,27660,Note_off_c,9,35,0,
2,27660,Note_off_c,9,36,0,
2,27660,Note_off_c,9,37,0,
2,27660,Note_off_c,9,38,0,
2,27660,Note_off_c,9,39,0,
2,27660,Note_off_c,9,40,0,
2,27660,Note_off_c,9,41,0,
2,27660,Note_off_c,9,42,0,
2,27660,Note_off_c,9,43,0,
2,27660,Note_off_c,9,44,0,
2,27660,Note_off_c,9,45,0,
2,27660,Note_off_c,9,46,0,
2,27660,Note_off_c,9,47,0,
2,27660,Note_off_c,9,48,0,
2,27660,Note_off_c,9,49,0,
2,27660,Note_off_c,9,50,0,
2,27660,Note_off_c,9,51,0,
2,27660,Note_off_c,9,56,0,
2,27660,Note_off_c,9,57,0,
2,27660,Note_off_c,9,59,0,
2,27660,Note_off_c,9,60,0,
2,27660,Note_off_c,9,61,0,
2,27660,Note_off_c,9,63,0,
2,27660,Note_off_c,9,68,0,
2,27660,Note_off_c,9,69,0,
2,27660,Note_off_c,9,70,0,
2,27660,Note_off_c,9,76,0,
2,27660,Note_off_c,9,80,0,
2,27660,Note_off_c,9,81,0,
2,27660,Note_off_c,9,82,0,
2,27660,Note_off_c,9,87,0,
2,27660,Note_off_c,9,88,0,
2,27660,Note_off_c,9,89,0,
2,27660,Note_off_c,9,91,0,
2,27660,Note_off_c,9,93,0,
2,27690,Note_off_c,9,35,0,
2,27690,Note_off_c,9,36,0,
2,27690,Note_off_c,9,37,0,
2,27690,Note_off_c,9,38,0,
2,27690,Note_off_c,9,39,0,
2,27690,Note_off_c,9,40,0,
2,27690,Note_off_c,9,41,0,
2,27690,Note_off_c,9,42,0,
2,27690,Note_off_c,9,43,0,
2,27690,Note_off_c,9,44,0,
2,27690,Note_off_c,9,45,0,
2,27690,Note_off_c,9,46,0,
2,27690,Note_off_c,9,47,0,
2,27690,Note_off_c,9,48,0,
2,27690,Note_off_c,9,49,0,
2,27690,Note_off_c,9,50,0,
2,27690,Note_off_c,9,51,0,
2,27690,Note_off_c,9,56,0,
2,27690,Note_off_c,9,57,0,
2,27690,Note_off_c,9,59,0,
2,27690,Note_off_c,9,60,0,
2,27690,Note_off_c,9,61,0,
2,27690,Note_off_c,9,63,0,
2,27690,Note_off_c,9,68,0,
2,27690,Note_off_c,9,69,0,
2,27690,Note_off_c,9,70,0,
2,27690,Note_off_c,9,76,0,
2,27690,Note_off_c,9,80,0,
2,27690,Note_off_c,9,81,0,
2,27690,Note_off_c,9,82,0,
2,27690,Note_off_c,9,87,0,
2,27690,Note_off_c,9,88,0,
2,27690,Note_off_c,9,89,0,
2,27690,Note_off_c,9,91,0,
2,27690,Note_off_c,9,93,0,
2,27720,Note_off_c,9,35,0,
2,27720,Note_off_c,9,36,0,
2,27720,Note_off_c,9,37,0,
2,27720,Note_off_c,9,38,0,
2,27720,Note_off_c,9,39,0,
2,27720,Note_off_c,9,40,0,
2,27720,Note_off_c,9,41,0,
2,27720,Note_off_c,9,42,0,
2,27720,Note_off_c,9,43,0,
2,27720,Note_off_c,9,44,0,
2,27720,Note_off_c,9,45,0,
2,27720,Note_off_c,9,46,0,
2,27720,Note_off_c,9,47,0,
2,27720,Note_off_c,9,48,0,
2,27720,Note_off_c,9,49,0,
2,27720,Note_off_c,9,50,0,
2,27720,Note_off_c,9,51,0,
2,27720,Note_off_c,9,56,0,
2,27720,Note_off_c,9,57,0,
2,27720,Note_off_c,9,59,0,
2,27720,Note_off_c,9,60,0,
2,27720,Note_off_c,9,61,0,
2,27720,Note_off_c,9,63,0,
2,27720,Note_off_c,9,68,0,
2,27720,Note_off_c,9,69,0,
2,27720,Note_off_c,9,70,0,
2,27720,Note_off_c,9,76,0,
2,27720,Note_off_c,9,80,0,
2,27720,Note_off_c,9,81,0,
2,27720,Note_off_c,9,82,0,
2,27720,Note_off_c,9,87,0,
2,27720,Note_off_c,9,88,0,
2,27720,Note_off_c,9,89,0,
2,27720,Note_off_c,9,91,0,
2,27720,Note_off_c,9,93,0,
2,27750,Note_off_c,9,35,0,
2,27750,Note_off_c,9,36,0,
2,27750,Note_off_c,9,37,0,
2,27750,Note_off_c,9,38,0,
2,27750,Note_off_c,9,39,0,
2,27750,Note_off_c,9,40,0,
2,27750,Note_off_c,9,41,0,
2,27750,Note_off_c,9,42,0,
2,27750,Note_off_c,9,43,0,
2,27750,Note_off_c,9,44,0,
2,27750,Note_off_c,9,45,0,
2,27750,Note_off_c,9,46,0,
2,27750,Note_off_c,9,47,0,
2,27750,Note_off_c,9,48,0,
2,27750,Note_off_c,9,49,0,
2,27750,Note_off_c,9,50,0,
2,27750,Note_off_c,9,51,0,
2,27750,Note_off_c,9,56,0,
2,27750,Note_off_c,9,57,0,
2,27750,Note_off_c,9,59,0,
2,27750,Note_off_c,9,60,0,
2,27750,Note_off_c,9,61,0,
2,27750,Note_off_c,9,63,0,
2,27750,Note_off_c,9,68,0,
2,27750,Note_off_c,9,69,0,
2,27750,Note_off_c,9,70,0,
2,27750,Note_off_c,9,76,0,
2,27750,Note_off_c,9,80,0,
2,27750,Note_off_c,9,81,0,
2,27750,Note_off_c,9,82,0,
2,27750,Note_off_c,9,87,0,
2,27750,Note_off_c,9,88,0,
2,27750,Note_off_c,9,89,0,
2,27750,Note_off_c,9,91,0,
2,27750,Note_off_c,9,93,0,
2,27780,Note_off_c,9,35,0,
2,27780,Note_off_c,9,36,0,
2,27780,Note_off_c,9,37,0,
2,27780,Note_off_c,9,38,0,
2,27780,Note_off_c,9,39,0,
2,27780,Note_off_c,9,40,0,
2,27780,Note_off_c,9,41,0,
2,27780,Note_off_c,9,42,0,
2,27780,Note_off_c,9,43,0,
2,27780,Note_off_c,9,44,0,
2,27780,Note_off_c,9,45,0,
2,27780,Note_off_c,9,46,0,
2,27780,Note_off_c,9,47,0,
2,27780,Note_off_c,9,48,0,
2,27780,Note_off_c,9,49,0,
2,27780,Note_off_c,9,50,0,
2,27780,Note_off_c,9,51,0,
2,27780,Note_off_c,9,56,0,
2,27780,Note_off_c,9,57,0,
2,27780,Note_off_c,9,59,0,
2,27780,Note_off_c,9,60,0,
2,27780,Note_off_c,9,61,0,
2,27780,Note_off_c,9,63,0,
2,27780,Note_off_c,9,68,0,
2,27780,Note_off_c,9,69,0,
2,27780,Note_off_c,9,70,0,
2,27780,Note_off_c,9,76,0,
2,27780,Note_off_c,9,80,0,
2,27780,Note_off_c,9,81,0,
2,27780,Note_off_c,9,82,0,
2,27780,Note_off_c,9,87,0,
2,27780,Note_off_c,9,88,0,
2,27780,Note_off_c,9,89,0,
2,27780,Note_off_c,9,91,0,
2,27780,Note_off_c,9,93,0,
2,27810,Note_off_c,9,35,0,
2,27810,Note_off_c,9,36,0,
2,27810,Note_off_c,9,37,0,
2,27810,Note_off_c,9,38,0,
2,27810,Note_off_c,9,39,0,
2,27810,Note_off_c,9,40,0,
2,27810,Note_off_c,9,41,0,
2,27810,Note_off_c,9,42,0,
2,27810,Note_off_c,9,43,0,
2,27810,Note_off_c,9,44,0,
2,27810,Note_off_c,9,45,0,
2,27810,Note_off_c,9,46,0,
2,27810,Note_off_c,9,47,0,
2,27810,Note_off_c,9,48,0,
2,27810,Note_off_c,9,49,0,
2,27810,Note_off_c,9,50,0,
2,27810,Note_off_c,9,51,0,
2,27810,Note_off_c,9,56,0,
2,27810,Note_off_c,9,57,0,
2,27810,Note_off_c,9,59,0,
2,27810,Note_off_c,9,60,0,
2,27810,Note_off_c,9,61,0,
2,27810,Note_off_c,9,63,0,
2,27810,Note_off_c,9,68,0,
2,27810,Note_off_c,9,69,0,
2,27810,Note_off_c,9,70,0,
2,27810,Note_off_c,9,76,0,
2,27810,Note_off_c,9,80,0,
2,27810,Note_off_c,9,81,0,
2,27810,Note_off_c,9,82,0,
2,27810,Note_off_c,9,87,0,
2,27810,Note_off_c,9,88,0,
2,27810,Note_off_c,9,89,0,
2,27810,Note_off_c,9,91,0,
2,27810,Note_off_c,9,93,0,
2,27840,Note_off_c,9,35,0,
2,27840,Note_off_c,9,36,0,
2,27840,Note_off_c,9,37,0,
2,27840,Note_off_c,9,38,0,
2,27840,Note_off_c,9,39,0,
2,27840,Note_off_c,9,40,0,
2,27840,Note_off_c,9,41,0,
2,27840,Note_off_c,9,42,0,
2,27840,Note_off_c,9,43,0,
2,27840,Note_off_c,9,44,0,
2,27840,Note_off_c,9,45,0,
2,27840,Note_off_c,9,46,0,
2,27840,Note_off_c,9,47,0,
2,27840,Note_off_c,9,48,0,
2,27840,Note_off_c,9,49,0,
2,27840,Note_off_c,9,50,0,
2,27840,Note_off_c,9,51,0,
2,27840,Note_off_c,9,56,0,
2,27840,Note_off_c,9,57,0,
2,27840,Note_off_c,9,59,0,
2,27840,Note_off_c,9,60,0,
2,27840,Note_off_c,9,61,0,
2,27840,Note_off_c,9,63,0,
2,27840,Note_off_c,9,68,0,
2,27840,Note_off_c,9,69,0,
2,27840,Note_off_c,9,70,0,
2,27840,Note_off_c,9,76,0,
2,27840,Note_off_c,9,80,0,
2,27840,Note_off_c,9,81,0,
2,27840,Note_off_c,9,82,0,
2,27840,Note_off_c,9,87,0,
2,27840,Note_off_c,9,88,0,
2,27840,Note_off_c,9,89,0,
2,27840,Note_off_c,9,91,0,
2,27840,Note_off_c,9,93,0,
2,27870,Note_off_c,9,35,0,
2,27870,Note_off_c,9,36,0,
2,27870,Note_off_c,9,37,0,
2,27870,Note_off_c,9,38,0,
2,27870,Note_off_c,9,39,0,
2,27870,Note_off_c,9,40,0,
2,27870,Note_off_c,9,41,0,
2,27870,Note_off_c,9,42,0,
2,27870,Note_off_c,9,43,0,
2,27870,Note_off_c,9,44,0,
2,27870,Note_off_c,9,45,0,
2,27870,Note_off_c,9,46,0,
2,27870,Note_off_c,9,47,0,
2,27870,Note_off_c,9,48,0,
2,27870,Note_off_c,9,49,0,
2,27870,Note_off_c,9,50,0,
2,27870,Note_off_c,9,51,0,
2,27870,Note_off_c,9,56,0,
2,27870,Note_off_c,9,57,0,
2,27870,Note_off_c,9,59,0,
2,27870,Note_off_c,9,60,0,
2,27870,Note_off_c,9,61,0,
2,27870,Note_off_c,9,63,0,
2,27870,Note_off_c,9,68,0,
2,27870,Note_off_c,9,69,0,
2,27870,Note_off_c,9,70,0,
2,27870,Note_off_c,9,76,0,
2,27870,Note_off_c,9,80,0,
2,27870,Note_off_c,9,81,0,
2,27870,Note_off_c,9,82,0,
2,27870,Note_off_c,9,87,0,
2,27870,Note_off_c,9,88,0,
2,27870,Note_off_c,9,89,0,
2,27870,Note_off_c,9,91,0,
2,27870,Note_off_c,9,93,0,
2,27900,Note_off_c,9,35,0,
2,27900,Note_off_c,9,36,0,
2,27900,Note_off_c,9,37,0,
2,27900,Note_off_c,9,38,0,
2,27900,Note_off_c,9,39,0,
2,27900,Note_off_c,9,40,0,
2,27900,Note_off_c,9,41,0,
2,27900,Note_off_c,9,42,0,
2,27900,Note_off_c,9,43,0,
2,27900,Note_off_c,9,44,0,
2,27900,Note_off_c,9,45,0,
2,27900,Note_off_c,9,46,0,
2,27900,Note_off_c,9,47,0,
2,27900,Note_off_c,9,48,0,
2,27900,Note_off_c,9,49,0,
2,27900,Note_off_c,9,50,0,
2,27900,Note_off_c,9,51,0,
2,27900,Note_off_c,9,56,0,
2,27900,Note_off_c,9,57,0,
2,27900,Note_off_c,9,59,0,
2,27900,Note_off_c,9,60,0,
2,27900,Note_off_c,9,61,0,
2,27900,Note_off_c,9,63,0,
2,27900,Note_off_c,9,68,0,
2,27900,Note_off_c,9,69,0,
2,27900,Note_off_c,9,70,0,
2,27900,Note_off_c,9,76,0,
2,27900,Note_off_c,9,80,0,
2,27900,Note_off_c,9,81,0,
2,27900,Note_off_c,9,82,0,
2,27900,Note_off_c,9,87,0,
2,27900,Note_off_c,9,88,0,
2,27900,Note_off_c,9,89,0,
2,27900,Note_off_c,9,91,0,
2,27900,Note_off_c,9,93,0,
2,27930,Note_off_c,9,35,0,
2,27930,Note_off_c,9,36,0,
2,27930,Note_off_c,9,37,0,
2,27930,Note_off_c,9,38,0,
2,27930,Note_off_c,9,39,0,
2,27930,Note_off_c,9,40,0,
2,27930,Note_off_c,9,41,0,
2,27930,Note_off_c,9,42,0,
2,27930,Note_off_c,9,43,0,
2,27930,Note_off_c,9,44,0,
2,27930,Note_off_c,9,45,0,
2,27930,Note_off_c,9,46,0,
2,27930,Note_off_c,9,47,0,
2,27930,Note_off_c,9,48,0,
2,27930,Note_off_c,9,49,0,
2,27930,Note_off_c,9,50,0,
2,27930,Note_off_c,9,51,0,
2,27930,Note_off_c,9,56,0,
2,27930,Note_off_c,9,57,0,
2,27930,Note_off_c,9,59,0,
2,27930,Note_off_c,9,60,0,
2,27930,Note_off_c,9,61,0,
2,27930,Note_off_c,9,63,0,
2,27930,Note_off_c,9,68,0,
2,27930,Note_off_c,9,69,0,
2,27930,Note_off_c,9,70,0,
2,27930,Note_off_c,9,76,0,
2,27930,Note_off_c,9,80,0,
2,27930,Note_off_c,9,81,0,
2,27930,Note_off_c,9,82,0,
2,27930,Note_off_c,9,87,0,
2,27930,Note_off_c,9,88,0,
2,27930,Note_off_c,9,89,0,
2,27930,Note_off_c,9,91,0,
2,27930,Note_off_c,9,93,0,
2,27960,Note_off_c,9,35,0,
2,27960,Note_off_c,9,36,0,
2,27960,Note_off_c,9,37,0,
2,27960,Note_off_c,9,38,0,
2,27960,Note_off_c,9,39,0,
2,27960,Note_off_c,9,40,0,
2,27960,Note_off_c,9,41,0,
2,27960,Note_off_c,9,42,0,
2,27960,Note_off_c,9,43,0,
2,27960,Note_off_c,9,44,0,
2,27960,Note_off_c,9,45,0,
2,27960,Note_off_c,9,46,0,
2,27960,Note_off_c,9,47,0,
2,27960,Note_off_c,9,48,0,
2,27960,Note_off_c,9,49,0,
2,27960,Note_off_c,9,50,0,
2,27960,Note_off_c,9,51,0,
2,27960,Note_off_c,9,56,0,
2,27960,Note_off_c,9,57,0,
2,27960,Note_off_c,9,59,0,
2,27960,Note_off_c,9,60,0,
2,27960,Note_off_c,9,61,0,
2,27960,Note_off_c,9,63,0,
2,27960,Note_off_c,9,68,0,
2,27960,Note_off_c,9,69,0,
2,27960,Note_off_c,9,70,0,
2,27960,Note_off_c,9,76,0,
2,27960,Note_off_c,9,80,0,
2,27960,Note_off_c,9,81,0,
2,27960,Note_off_c,9,82,0,
2,27960,Note_off_c,9,87,0,
2,27960,Note_off_c,9,88,0,
2,27960,Note_off_c,9,89,0,
2,27960,Note_off_c,9,91,0,
2,27960,Note_off_c,9,93,0,
2,27990,Note_off_c,9,35,0,
2,27990,Note_off_c,9,36,0,
2,27990,Note_off_c,9,37,0,
2,27990,Note_off_c,9,38,0,
2,27990,Note_off_c,9,39,0,
2,27990,Note_off_c,9,40,0,
2,27990,Note_off_c,9,41,0,
2,27990,Note_off_c,9,42,0,
2,27990,Note_off_c,9,43,0,
2,27990,Note_off_c,9,44,0,
2,27990,Note_off_c,9,45,0,
2,27990,Note_off_c,9,46,0,
2,27990,Note_off_c,9,47,0,
2,27990,Note_off_c,9,48,0,
2,27990,Note_off_c,9,49,0,
2,27990,Note_off_c,9,50,0,
2,27990,Note_off_c,9,51,0,
2,27990,Note_off_c,9,56,0,
2,27990,Note_off_c,9,57,0,
2,27990,Note_off_c,9,59,0,
2,27990,Note_off_c,9,60,0,
2,27990,Note_off_c,9,61,0,
2,27990,Note_off_c,9,63,0,
2,27990,Note_off_c,9,68,0,
2,27990,Note_off_c,9,69,0,
2,27990,Note_off_c,9,70,0,
2,27990,Note_off_c,9,76,0,
2,27990,Note_off_c,9,80,0,
2,27990,Note_off_c,9,81,0,
2,27990,Note_off_c,9,82,0,
2,27990,Note_off_c,9,87,0,
2,27990,Note_off_c,9,88,0,
2,27990,Note_off_c,9,89,0,
2,27990,Note_off_c,9,91,0,
2,27990,Note_off_c,9,93,0,
2,28020,Note_off_c,9,35,0,
2,28020,Note_off_c,9,36,0,
2,28020,Note_off_c,9,37,0,
2,28020,Note_off_c,9,38,0,
2,28020,Note_off_c,9,39,0,
2,28020,Note_off_c,9,40,0,
2,28020,Note_off_c,9,41,0,
2,28020,Note_off_c,9,42,0,
2,28020,Note_off_c,9,43,0,
2,28020,Note_off_c,9,44,0,
2,28020,Note_off_c,9,45,0,
2,28020,Note_off_c,9,46,0,
2,28020,Note_off_c,9,47,0,
2,28020,Note_off_c,9,48,0,
2,28020,Note_off_c,9,49,0,
2,28020,Note_off_c,9,50,0,
2,28020,Note_off_c,9,51,0,
2,28020,Note_off_c,9,56,0,
2,28020,Note_off_c,9,57,0,
2,28020,Note_off_c,9,59,0,
2,28020,Note_off_c,9,60,0,
2,28020,Note_off_c,9,61,0,
2,28020,Note_off_c,9,63,0,
2,28020,Note_off_c,9,68,0,
2,28020,Note_off_c,9,69,0,
2,28020,Note_off_c,9,70,0,
2,28020,Note_off_c,9,76,0,
2,28020,Note_off_c,9,80,0,
2,28020,Note_off_c,9,81,0,
2,28020,Note_off_c,9,82,0,
2,28020,Note_off_c,9,87,0,
2,28020,Note_off_c,9,88,0,
2,28020,Note_off_c,9,89,0,
2,28020,Note_off_c,9,91,0,
2,28020,Note_off_c,9,93,0,
2,28050,Note_off_c,9,35,0,
2,28050,Note_off_c,9,36,0,
2,28050,Note_off_c,9,37,0,
2,28050,Note_off_c,9,38,0,
2,28050,Note_off_c,9,39,0,
2,28050,Note_off_c,9,40,0,
2,28050,Note_off_c,9,41,0,
2,28050,Note_off_c,9,42,0,
2,28050,Note_off_c,9,43,0,
2,28050,Note_off_c,9,44,0,
2,28050,Note_off_c,9,45,0,
2,28050,Note_off_c,9,46,0,
2,28050,Note_off_c,9,47,0,
2,28050,Note_off_c,9,48,0,
2,28050,Note_off_c,9,49,0,
2,28050,Note_off_c,9,50,0,
2,28050,Note_off_c,9,51,0,
2,28050,Note_off_c,9,56,0,
2,28050,Note_off_c,9,57,0,
2,28050,Note_off_c,9,59,0,
2,28050,Note_off_c,9,60,0,
2,28050,Note_off_c,9,61,0,
2,28050,Note_off_c,9,63,0,
2,28050,Note_off_c,9,68,0,
2,28050,Note_off_c,9,69,0,
2,28050,Note_off_c,9,70,0,
2,28050,Note_off_c,9,76,0,
2,28050,Note_off_c,9,80,0,
2,28050,Note_off_c,9,81,0,
2,28050,Note_off_c,9,82,0,
2,28050,Note_off_c,9,87,0,
2,28050,Note_off_c,9,88,0,
2,28050,Note_off_c,9,89,0,
2,28050,Note_off_c,9,91,0,
2,28050,Note_off_c,9,93,0,
2,28080,Note_off_c,9,35,0,
2,28080,Note_off_c,9,36,0,
2,28080,Note_off_c,9,37,0,
2,28080,Note_off_c,9,38,0,
2,28080,Note_off_c,9,39,0,
2,28080,Note_off_c,9,40,0,
2,28080,Note_off_c,9,41,0,
2,28080,Note_off_c,9,42,0,
2,28080,Note_off_c,9,43,0,
2,28080,Note_off_c,9,44,0,
2,28080,Note_off_c,9,45,0,
2,28080,Note_off_c,9,46,0,
2,28080,Note_off_c,9,47,0,
2,28080,Note_off_c,9,48,0,
2,28080,Note_off_c,9,49,0,
2,28080,Note_off_c,9,50,0,
2,28080,Note_off_c,9,51,0,
2,28080,Note_off_c,9,56,0,
2,28080,Note_off_c,9,57,0,
2,28080,Note_off_c,9,59,0,
2,28080,Note_off_c,9,60,0,
2,28080,Note_off_c,9,61,0,
2,28080,Note_off_c,9,63,0,
2,28080,Note_off_c,9,68,0,
2,28080,Note_off_c,9,69,0,
2,28080,Note_off_c,9,70,0,
2,28080,Note_off_c,9,76,0,
2,28080,Note_off_c,9,80,0,
2,28080,Note_off_c,9,81,0,
2,28080,Note_off_c,9,82,0,
2,28080,Note_off_c,9,87,0,
2,28080,Note_off_c,9,88,0,
2,28080,Note_off_c,9,89,0,
2,28080,Note_off_c,9,91,0,
2,28080,Note_off_c,9,93,0,
2,28110,Note_off_c,9,35,0,
2,28110,Note_off_c,9,36,0,
2,28110,Note_off_c,9,37,0,
2,28110,Note_off_c,9,38,0,
2,28110,Note_off_c,9,39,0,
2,28110,Note_off_c,9,40,0,
2,28110,Note_off_c,9,41,0,
2,28110,Note_off_c,9,42,0,
2,28110,Note_off_c,9,43,0,
2,28110,Note_off_c,9,44,0,
2,28110,Note_off_c,9,45,0,
2,28110,Note_off_c,9,46,0,
2,28110,Note_off_c,9,47,0,
2,28110,Note_off_c,9,48,0,
2,28110,Note_off_c,9,49,0,
2,28110,Note_off_c,9,50,0,
2,28110,Note_off_c,9,51,0,
2,28110,Note_off_c,9,56,0,
2,28110,Note_off_c,9,57,0,
2,28110,Note_off_c,9,59,0,
2,28110,Note_off_c,9,60,0,
2,28110,Note_off_c,9,61,0,
2,28110,Note_off_c,9,63,0,
2,28110,Note_off_c,9,68,0,
2,28110,Note_off_c,9,69,0,
2,28110,Note_off_c,9,70,0,
2,28110,Note_off_c,9,76,0,
2,28110,Note_off_c,9,80,0,
2,28110,Note_off_c,9,81,0,
2,28110,Note_off_c,9,82,0,
2,28110,Note_off_c,9,87,0,
2,28110,Note_off_c,9,88,0,
2,28110,Note_off_c,9,89,0,
2,28110,Note_off_c,9,91,0,
2,28110,Note_off_c,9,93,0,
2,28140,Note_off_c,9,35,0,
2,28140,Note_off_c,9,36,0,
2,28140,Note_off_c,9,37,0,
2,28140,Note_off_c,9,38,0,
2,28140,Note_off_c,9,39,0,
2,28140,Note_off_c,9,40,0,
2,28140,Note_off_c,9,41,0,
2,28140,Note_off_c,9,42,0,
2,28140,Note_off_c,9,43,0,
2,28140,Note_off_c,9,44,0,
2,28140,Note_off_c,9,45,0,
2,28140,Note_off_c,9,46,0,
2,28140,Note_off_c,9,47,0,
2,28140,Note_off_c,9,48,0,
2,28140,Note_off_c,9,49,0,
2,28140,Note_off_c,9,50,0,
2,28140,Note_off_c,9,51,0,
2,28140,Note_off_c,9,56,0,
2,28140,Note_off_c,9,57,0,
2,28140,Note_off_c,9,59,0,
2,28140,Note_off_c,9,60,0,
2,28140,Note_off_c,9,61,0,
2,28140,Note_off_c,9,63,0,
2,28140,Note_off_c,9,68,0,
2,28140,Note_off_c,9,69,0,
2,28140,Note_off_c,9,70,0,
2,28140,Note_off_c,9,76,0,
2,28140,Note_off_c,9,80,0,
2,28140,Note_off_c,9,81,0,
2,28140,Note_off_c,9,82,0,
2,28140,Note_off_c,9,87,0,
2,28140,Note_off_c,9,88,0,
2,28140,Note_off_c,9,89,0,
2,28140,Note_off_c,9,91,0,
2,28140,Note_off_c,9,93,0,
2,28170,Note_off_c,9,35,0,
2,28170,Note_off_c,9,36,0,
2,28170,Note_off_c,9,37,0,
2,28170,Note_off_c,9,38,0,
2,28170,Note_off_c,9,39,0,
2,28170,Note_off_c,9,40,0,
2,28170,Note_off_c,9,41,0,
2,28170,Note_off_c,9,42,0,
2,28170,Note_off_c,9,43,0,
2,28170,Note_off_c,9,44,0,
2,28170,Note_off_c,9,45,0,
2,28170,Note_off_c,9,46,0,
2,28170,Note_off_c,9,47,0,
2,28170,Note_off_c,9,48,0,
2,28170,Note_off_c,9,49,0,
2,28170,Note_off_c,9,50,0,
2,28170,Note_off_c,9,51,0,
2,28170,Note_off_c,9,56,0,
2,28170,Note_off_c,9,57,0,
2,28170,Note_off_c,9,59,0,
2,28170,Note_off_c,9,60,0,
2,28170,Note_off_c,9,61,0,
2,28170,Note_off_c,9,63,0,
2,28170,Note_off_c,9,68,0,
2,28170,Note_off_c,9,69,0,
2,28170,Note_off_c,9,70,0,
2,28170,Note_off_c,9,76,0,
2,28170,Note_off_c,9,80,0,
2,28170,Note_off_c,9,81,0,
2,28170,Note_off_c,9,82,0,
2,28170,Note_off_c,9,87,0,
2,28170,Note_off_c,9,88,0,
2,28170,Note_off_c,9,89,0,
2,28170,Note_off_c,9,91,0,
2,28170,Note_off_c,9,93,0,
2,28200,Note_off_c,9,35,0,
2,28200,Note_off_c,9,36,0,
2,28200,Note_off_c,9,37,0,
2,28200,Note_off_c,9,38,0,
2,28200,Note_off_c,9,39,0,
2,28200,Note_off_c,9,40,0,
2,28200,Note_off_c,9,41,0,
2,28200,Note_off_c,9,42,0,
2,28200,Note_off_c,9,43,0,
2,28200,Note_off_c,9,44,0,
2,28200,Note_off_c,9,45,0,
2,28200,Note_off_c,9,46,0,
2,28200,Note_off_c,9,47,0,
2,28200,Note_off_c,9,48,0,
2,28200,Note_off_c,9,49,0,
2,28200,Note_off_c,9,50,0,
2,28200,Note_off_c,9,51,0,
2,28200,Note_off_c,9,56,0,
2,28200,Note_off_c,9,57,0,
2,28200,Note_off_c,9,59,0,
2,28200,Note_off_c,9,60,0,
2,28200,Note_off_c,9,61,0,
2,28200,Note_off_c,9,63,0,
2,28200,Note_off_c,9,68,0,
2,28200,Note_off_c,9,69,0,
2,28200,Note_off_c,9,70,0,
2,28200,Note_off_c,9,76,0,
2,28200,Note_off_c,9,80,0,
2,28200,Note_off_c,9,81,0,
2,28200,Note_off_c,9,82,0,
2,28200,Note_off_c,9,87,0,
2,28200,Note_off_c,9,88,0,
2,28200,Note_off_c,9,89,0,
2,28200,Note_off_c,9,91,0,
2,28200,Note_off_c,9,93,0,
2,28230,Note_off_c,9,35,0,
2,28230,Note_off_c,9,36,0,
2,28230,Note_off_c,9,37,0,
2,28230,Note_off_c,9,38,0,
2,28230,Note_off_c,9,39,0,
2,28230,Note_off_c,9,40,0,
2,28230,Note_off_c,9,41,0,
2,28230,Note_off_c,9,42,0,
2,28230,Note_off_c,9,43,0,
2,28230,Note_off_c,9,44,0,
2,28230,Note_off_c,9,45,0,
2,28230,Note_off_c,9,46,0,
2,28230,Note_off_c,9,47,0,
2,28230,Note_off_c,9,48,0,
2,28230,Note_off_c,9,49,0,
2,28230,Note_off_c,9,50,0,
2,28230,Note_off_c,9,51,0,
2,28230,Note_off_c,9,56,0,
2,28230,Note_off_c,9,57,0,
2,28230,Note_off_c,9,59,0,
2,28230,Note_off_c,9,60,0,
2,28230,Note_off_c,9,61,0,
2,28230,Note_off_c,9,63,0,
2,28230,Note_off_c,9,68,0,
2,28230,Note_off_c,9,69,0,
2,28230,Note_off_c,9,70,0,
2,28230,Note_off_c,9,76,0,
2,28230,Note_off_c,9,80,0,
2,28230,Note_off_c,9,81,0,
2,28230,Note_off_c,9,82,0,
2,28230,Note_off_c,9,87,0,
2,28230,Note_off_c,9,88,0,
2,28230,Note_off_c,9,89,0,
2,28230,Note_off_c,9,91,0,
2,28230,Note_off_c,9,93,0,
2,28260,Note_off_c,9,35,0,
2,28260,Note_off_c,9,36,0,
2,28260,Note_off_c,9,37,0,
2,28260,Note_off_c,9,38,0,
2,28260,Note_off_c,9,39,0,
2,28260,Note_off_c,9,40,0,
2,28260,Note_off_c,9,41,0,
2,28260,Note_off_c,9,42,0,
2,28260,Note_off_c,9,43,0,
2,28260,Note_off_c,9,44,0,
2,28260,Note_off_c,9,45,0,
2,28260,Note_off_c,9,46,0,
2,28260,Note_off_c,9,47,0,
2,28260,Note_off_c,9,48,0,
2,28260,Note_off_c,9,49,0,
2,28260,Note_off_c,9,50,0,
2,28260,Note_off_c,9,51,0,
2,28260,Note_off_c,9,56,0,
2,28260,Note_off_c,9,57,0,
2,28260,Note_off_c,9,59,0,
2,28260,Note_off_c,9,60,0,
2,28260,Note_off_c,9,61,0,
2,28260,Note_off_c,9,63,0,
2,28260,Note_off_c,9,68,0,
2,28260,Note_off_c,9,69,0,
2,28260,Note_off_c,9,70,0,
2,28260,Note_off_c,9,76,0,
2,28260,Note_off_c,9,80,0,
2,28260,Note_off_c,9,81,0,
2,28260,Note_off_c,9,82,0,
2,28260,Note_off_c,9,87,0,
2,28260,Note_off_c,9,88,0,
2,28260,Note_off_c,9,89,0,
2,28260,Note_off_c,9,91,0,
2,28260,Note_off_c,9,93,0,
2,28290,Note_off_c,9,35,0,
2,28290,Note_off_c,9,36,0,
2,28290,Note_off_c,9,37,0,
2,28290,Note_off_c,9,38,0,
2,28290,Note_off_c,9,39,0,
2,28290,Note_off_c,9,40,0,
2,28290,Note_off_c,9,41,0,
2,28290,Note_off_c,9,42,0,
2,28290,Note_off_c,9,43,0,
2,28290,Note_off_c,9,44,0,
2,28290,Note_off_c,9,45,0,
2,28290,Note_off_c,9,46,0,
2,28290,Note_off_c,9,47,0,
2,28290,Note_off_c,9,48,0,
2,28290,Note_off_c,9,49,0,
2,28290,Note_off_c,9,50,0,
2,28290,Note_off_c,9,51,0,
2,28290,Note_off_c,9,56,0,
2,28290,Note_off_c,9,57,0,
2,28290,Note_off_c,9,59,0,
2,28290,Note_off_c,9,60,0,
2,28290,Note_off_c,9,61,0,
2,28290,Note_off_c,9,63,0,
2,28290,Note_off_c,9,68,0,
2,28290,Note_off_c,9,69,0,
2,28290,Note_off_c,9,70,0,
2,28290,Note_off_c,9,76,0,
2,28290,Note_off_c,9,80,0,
2,28290,Note_off_c,9,81,0,
2,28290,Note_off_c,9,82,0,
2,28290,Note_off_c,9,87,0,
2,28290,Note_off_c,9,88,0,
2,28290,Note_off_c,9,89,0,
2,28290,Note_off_c,9,91,0,
2,28290,Note_off_c,9,93,0,
2,28320,Note_off_c,9,35,0,
2,28320,Note_off_c,9,36,0,
2,28320,Note_off_c,9,37,0,
2,28320,Note_off_c,9,38,0,
2,28320,Note_off_c,9,39,0,
2,28320,Note_off_c,9,40,0,
2,28320,Note_off_c,9,41,0,
2,28320,Note_off_c,9,42,0,
2,28320,Note_off_c,9,43,0,
2,28320,Note_off_c,9,44,0,
2,28320,Note_off_c,9,45,0,
2,28320,Note_off_c,9,46,0,
2,28320,Note_off_c,9,47,0,
2,28320,Note_off_c,9,48,0,
2,28320,Note_off_c,9,49,0,
2,28320,Note_off_c,9,50,0,
2,28320,Note_off_c,9,51,0,
2,28320,Note_off_c,9,56,0,
2,28320,Note_off_c,9,57,0,
2,28320,Note_off_c,9,59,0,
2,28320,Note_off_c,9,60,0,
2,28320,Note_off_c,9,61,0,
2,28320,Note_off_c,9,63,0,
2,28320,Note_off_c,9,68,0,
2,28320,Note_off_c,9,69,0,
2,28320,Note_off_c,9,70,0,
2,28320,Note_off_c,9,76,0,
2,28320,Note_off_c,9,80,0,
2,28320,Note_off_c,9,81,0,
2,28320,Note_off_c,9,82,0,
2,28320,Note_off_c,9,87,0,
2,28320,Note_off_c,9,88,0,
2,28320,Note_off_c,9,89,0,
2,28320,Note_off_c,9,91,0,
2,28320,Note_off_c,9,93,0,
2,28350,Note_off_c,9,35,0,
2,28350,Note_off_c,9,36,0,
2,28350,Note_off_c,9,37,0,
2,28350,Note_off_c,9,38,0,
2,28350,Note_off_c,9,39,0,
2,28350,Note_off_c,9,40,0,
2,28350,Note_off_c,9,41,0,
2,28350,Note_off_c,9,42,0,
2,28350,Note_off_c,9,43,0,
2,28350,Note_off_c,9,44,0,
2,28350,Note_off_c,9,45,0,
2,28350,Note_off_c,9,46,0,
2,28350,Note_off_c,9,47,0,
2,28350,Note_off_c,9,48,0,
2,28350,Note_off_c,9,49,0,
2,28350,Note_off_c,9,50,0,
2,28350,Note_off_c,9,51,0,
2,28350,Note_off_c,9,56,0,
2,28350,Note_off_c,9,57,0,
2,28350,Note_off_c,9,59,0,
2,28350,Note_off_c,9,60,0,
2,28350,Note_off_c,9,61,0,
2,28350,Note_off_c,9,63,0,
2,28350,Note_off_c,9,68,0,
2,28350,Note_off_c,9,69,0,
2,28350,Note_off_c,9,70,0,
2,28350,Note_off_c,9,76,0,
2,28350,Note_off_c,9,80,0,
2,28350,Note_off_c,9,81,0,
2,28350,Note_off_c,9,82,0,
2,28350,Note_off_c,9,87,0,
2,28350,Note_off_c,9,88,0,
2,28350,Note_off_c,9,89,0,
2,28350,Note_off_c,9,91,0,
2,28350,Note_off_c,9,93,0,
2,28380,Note_off_c,9,35,0,
2,28380,Note_off_c,9,36,0,
2,28380,Note_off_c,9,37,0,
2,28380,Note_off_c,9,38,0,
2,28380,Note_off_c,9,39,0,
2,28380,Note_off_c,9,40,0,
2,28380,Note_off_c,9,41,0,
2,28380,Note_off_c,9,42,0,
2,28380,Note_off_c,9,43,0,
2,28380,Note_off_c,9,44,0,
2,28380,Note_off_c,9,45,0,
2,28380,Note_off_c,9,46,0,
2,28380,Note_off_c,9,47,0,
2,28380,Note_off_c,9,48,0,
2,28380,Note_off_c,9,49,0,
2,28380,Note_off_c,9,50,0,
2,28380,Note_off_c,9,51,0,
2,28380,Note_off_c,9,56,0,
2,28380,Note_off_c,9,57,0,
2,28380,Note_off_c,9,59,0,
2,28380,Note_off_c,9,60,0,
2,28380,Note_off_c,9,61,0,
2,28380,Note_off_c,9,63,0,
2,28380,Note_off_c,9,68,0,
2,28380,Note_off_c,9,69,0,
2,28380,Note_off_c,9,70,0,
2,28380,Note_off_c,9,76,0,
2,28380,Note_off_c,9,80,0,
2,28380,Note_off_c,9,81,0,
2,28380,Note_off_c,9,82,0,
2,28380,Note_off_c,9,87,0,
2,28380,Note_off_c,9,88,0,
2,28380,Note_off_c,9,89,0,
2,28380,Note_off_c,9,91,0,
2,28380,Note_off_c,9,93,0,
2,28410,Note_off_c,9,35,0,
2,28410,Note_off_c,9,36,0,
2,28410,Note_off_c,9,37,0,
2,28410,Note_off_c,9,38,0,
2,28410,Note_off_c,9,39,0,
2,28410,Note_off_c,9,40,0,
2,28410,Note_off_c,9,41,0,
2,28410,Note_off_c,9,42,0,
2,28410,Note_off_c,9,43,0,
2,28410,Note_off_c,9,44,0,
2,28410,Note_off_c,9,45,0,
2,28410,Note_off_c,9,46,0,
2,28410,Note_off_c,9,47,0,
2,28410,Note_off_c,9,48,0,
2,28410,Note_off_c,9,49,0,
2,28410,Note_off_c,9,50,0,
2,28410,Note_off_c,9,51,0,
2,28410,Note_off_c,9,56,0,
2,28410,Note_off_c,9,57,0,
2,28410,Note_off_c,9,59,0,
2,28410,Note_off_c,9,60,0,
2,28410,Note_off_c,9,61,0,
2,28410,Note_off_c,9,63,0,
2,28410,Note_off_c,9,68,0,
2,28410,Note_off_c,9,69,0,
2,28410,Note_off_c,9,70,0,
2,28410,Note_off_c,9,76,0,
2,28410,Note_off_c,9,80,0,
2,28410,Note_off_c,9,81,0,
2,28410,Note_off_c,9,82,0,
2,28410,Note_off_c,9,87,0,
2,28410,Note_off_c,9,88,0,
2,28410,Note_off_c,9,89,0,
2,28410,Note_off_c,9,91,0,
2,28410,Note_off_c,9,93,0,
2,28440,Note_off_c,9,35,0,
2,28440,Note_off_c,9,36,0,
2,28440,Note_off_c,9,37,0,
2,28440,Note_off_c,9,38,0,
2,28440,Note_off_c,9,39,0,
2,28440,Note_off_c,9,40,0,
2,28440,Note_off_c,9,41,0,
2,28440,Note_off_c,9,42,0,
2,28440,Note_off_c,9,43,0,
2,28440,Note_off_c,9,44,0,
2,28440,Note_off_c,9,45,0,
2,28440,Note_off_c,9,46,0,
2,28440,Note_off_c,9,47,0,
2,28440,Note_off_c,9,48,0,
2,28440,Note_off_c,9,49,0,
2,28440,Note_off_c,9,50,0,
2,28440,Note_off_c,9,51,0,
2,28440,Note_off_c,9,56,0,
2,28440,Note_off_c,9,57,0,
2,28440,Note_off_c,9,59,0,
2,28440,Note_off_c,9,60,0,
2,28440,Note_off_c,9,61,0,
2,28440,Note_off_c,9,63,0,
2,28440,Note_off_c,9,68,0,
2,28440,Note_off_c,9,69,0,
2,28440,Note_off_c,9,70,0,
2,28440,Note_off_c,9,76,0,
2,28440,Note_off_c,9,80,0,
2,28440,Note_off_c,9,81,0,
2,28440,Note_off_c,9,82,0,
2,28440,Note_off_c,9,87,0,
2,28440,Note_off_c,9,88,0,
2,28440,Note_off_c,9,89,0,
2,28440,Note_off_c,9,91,0,
2,28440,Note_off_c,9,93,0,
2,28470,Note_off_c,9,35,0,
2,28470,Note_off_c,9,36,0,
2,28470,Note_off_c,9,37,0,
2,28470,Note_off_c,9,38,0,
2,28470,Note_off_c,9,39,0,
2,28470,Note_off_c,9,40,0,
2,28470,Note_off_c,9,41,0,
2,28470,Note_off_c,9,42,0,
2,28470,Note_off_c,9,43,0,
2,28470,Note_off_c,9,44,0,
2,28470,Note_off_c,9,45,0,
2,28470,Note_off_c,9,46,0,
2,28470,Note_off_c,9,47,0,
2,28470,Note_off_c,9,48,0,
2,28470,Note_off_c,9,49,0,
2,28470,Note_off_c,9,50,0,
2,28470,Note_off_c,9,51,0,
2,28470,Note_off_c,9,56,0,
2,28470,Note_off_c,9,57,0,
2,28470,Note_off_c,9,59,0,
2,28470,Note_off_c,9,60,0,
2,28470,Note_off_c,9,61,0,
2,28470,Note_off_c,9,63,0,
2,28470,Note_off_c,9,68,0,
2,28470,Note_off_c,9,69,0,
2,28470,Note_off_c,9,70,0,
2,28470,Note_off_c,9,76,0,
2,28470,Note_off_c,9,80,0,
2,28470,Note_off_c,9,81,0,
2,28470,Note_off_c,9,82,0,
2,28470,Note_off_c,9,87,0,
2,28470,Note_off_c,9,88,0,
2,28470,Note_off_c,9,89,0,
2,28470,Note_off_c,9,91,0,
2,28470,Note_off_c,9,93,0,
2,28500,Note_off_c,9,35,0,
2,28500,Note_off_c,9,36,0,
2,28500,Note_off_c,9,37,0,
2,28500,Note_off_c,9,38,0,
2,28500,Note_off_c,9,39,0,
2,28500,Note_off_c,9,40,0,
2,28500,Note_off_c,9,41,0,
2,28500,Note_off_c,9,42,0,
2,28500,Note_off_c,9,43,0,
2,28500,Note_off_c,9,44,0,
2,28500,Note_off_c,9,45,0,
2,28500,Note_off_c,9,46,0,
2,28500,Note_off_c,9,47,0,
2,28500,Note_off_c,9,48,0,
2,28500,Note_off_c,9,49,0,
2,28500,Note_off_c,9,50,0,
2,28500,Note_off_c,9,51,0,
2,28500,Note_off_c,9,56,0,
2,28500,Note_off_c,9,57,0,
2,28500,Note_off_c,9,59,0,
2,28500,Note_off_c,9,60,0,
2,28500,Note_off_c,9,61,0,
2,28500,Note_off_c,9,63,0,
2,28500,Note_off_c,9,68,0,
2,28500,Note_off_c,9,69,0,
2,28500,Note_off_c,9,70,0,
2,28500,Note_off_c,9,76,0,
2,28500,Note_off_c,9,80,0,
2,28500,Note_off_c,9,81,0,
2,28500,Note_off_c,9,82,0,
2,28500,Note_off_c,9,87,0,
2,28500,Note_off_c,9,88,0,
2,28500,Note_off_c,9,89,0,
2,28500,Note_off_c,9,91,0,
2,28500,Note_off_c,9,93,0,
2,28530,Note_off_c,9,35,0,
2,28530,Note_off_c,9,36,0,
2,28530,Note_off_c,9,37,0,
2,28530,Note_off_c,9,38,0,
2,28530,Note_off_c,9,39,0,
2,28530,Note_off_c,9,40,0,
2,28530,Note_off_c,9,41,0,
2,28530,Note_off_c,9,42,0,
2,28530,Note_off_c,9,43,0,
2,28530,Note_off_c,9,44,0,
2,28530,Note_off_c,9,45,0,
2,28530,Note_off_c,9,46,0,
2,28530,Note_off_c,9,47,0,
2,28530,Note_off_c,9,48,0,
2,28530,Note_off_c,9,49,0,
2,28530,Note_off_c,9,50,0,
2,28530,Note_off_c,9,51,0,
2,28530,Note_off_c,9,56,0,
2,28530,Note_off_c,9,57,0,
2,28530,Note_off_c,9,59,0,
2,28530,Note_off_c,9,60,0,
2,28530,Note_off_c,9,61,0,
2,28530,Note_off_c,9,63,0,
2,28530,Note_off_c,9,68,0,
2,28530,Note_off_c,9,69,0,
2,28530,Note_off_c,9,70,0,
2,28530,Note_off_c,9,76,0,
2,28530,Note_off_c,9,80,0,
2,28530,Note_off_c,9,81,0,
2,28530,Note_off_c,9,82,0,
2,28530,Note_off_c,9,87,0,
2,28530,Note_off_c,9,88,0,
2,28530,Note_off_c,9,89,0,
2,28530,Note_off_c,9,91,0,
2,28530,Note_off_c,9,93,0,
2,28560,Note_off_c,9,35,0,
2,28560,Note_off_c,9,36,0,
2,28560,Note_off_c,9,37,0,
2,28560,Note_off_c,9,38,0,
2,28560,Note_off_c,9,39,0,
2,28560,Note_off_c,9,40,0,
2,28560,Note_off_c,9,41,0,
2,28560,Note_off_c,9,42,0,
2,28560,Note_off_c,9,43,0,
2,28560,Note_off_c,9,44,0,
2,28560,Note_off_c,9,45,0,
2,28560,Note_off_c,9,46,0,
2,28560,Note_off_c,9,47,0,
2,28560,Note_off_c,9,48,0,
2,28560,Note_off_c,9,49,0,
2,28560,Note_off_c,9,50,0,
2,28560,Note_off_c,9,51,0,
2,28560,Note_off_c,9,56,0,
2,28560,Note_off_c,9,57,0,
2,28560,Note_off_c,9,59,0,
2,28560,Note_off_c,9,60,0,
2,28560,Note_off_c,9,61,0,
2,28560,Note_off_c,9,63,0,
2,28560,Note_off_c,9,68,0,
2,28560,Note_off_c,9,69,0,
2,28560,Note_off_c,9,70,0,
2,28560,Note_off_c,9,76,0,
2,28560,Note_off_c,9,80,0,
2,28560,Note_off_c,9,81,0,
2,28560,Note_off_c,9,82,0,
2,28560,Note_off_c,9,87,0,
2,28560,Note_off_c,9,88,0,
2,28560,Note_off_c,9,89,0,
2,28560,Note_off_c,9,91,0,
2,28560,Note_off_c,9,93,0,
2,28590,Note_off_c,9,35,0,
2,28590,Note_off_c,9,36,0,
2,28590,Note_off_c,9,37,0,
2,28590,Note_off_c,9,38,0,
2,28590,Note_off_c,9,39,0,
2,28590,Note_off_c,9,40,0,
2,28590,Note_off_c,9,41,0,
2,28590,Note_off_c,9,42,0,
2,28590,Note_off_c,9,43,0,
2,28590,Note_off_c,9,44,0,
2,28590,Note_off_c,9,45,0,
2,28590,Note_off_c,9,46,0,
2,28590,Note_off_c,9,47,0,
2,28590,Note_off_c,9,48,0,
2,28590,Note_off_c,9,49,0,
2,28590,Note_off_c,9,50,0,
2,28590,Note_off_c,9,51,0,
2,28590,Note_off_c,9,56,0,
2,28590,Note_off_c,9,57,0,
2,28590,Note_off_c,9,59,0,
2,28590,Note_off_c,9,60,0,
2,28590,Note_off_c,9,61,0,
2,28590,Note_off_c,9,63,0,
2,28590,Note_off_c,9,68,0,
2,28590,Note_off_c,9,69,0,
2,28590,Note_off_c,9,70,0,
2,28590,Note_off_c,9,76,0,
2,28590,Note_off_c,9,80,0,
2,28590,Note_off_c,9,81,0,
2,28590,Note_off_c,9,82,0,
2,28590,Note_off_c,9,87,0,
2,28590,Note_off_c,9,88,0,
2,28590,Note_off_c,9,89,0,
2,28590,Note_off_c,9,91,0,
2,28590,Note_off_c,9,93,0,
2,28620,Note_off_c,9,35,0,
2,28620,Note_off_c,9,36,0,
2,28620,Note_off_c,9,37,0,
2,28620,Note_off_c,9,38,0,
2,28620,Note_off_c,9,39,0,
2,28620,Note_off_c,9,40,0,
2,28620,Note_off_c,9,41,0,
2,28620,Note_off_c,9,42,0,
2,28620,Note_off_c,9,43,0,
2,28620,Note_off_c,9,44,0,
2,28620,Note_off_c,9,45,0,
2,28620,Note_off_c,9,46,0,
2,28620,Note_off_c,9,47,0,
2,28620,Note_off_c,9,48,0,
2,28620,Note_off_c,9,49,0,
2,28620,Note_off_c,9,50,0,
2,28620,Note_off_c,9,51,0,
2,28620,Note_off_c,9,56,0,
2,28620,Note_off_c,9,57,0,
2,28620,Note_off_c,9,59,0,
2,28620,Note_off_c,9,60,0,
2,28620,Note_off_c,9,61,0,
2,28620,Note_off_c,9,63,0,
2,28620,Note_off_c,9,68,0,
2,28620,Note_off_c,9,69,0,
2,28620,Note_off_c,9,70,0,
2,28620,Note_off_c,9,76,0,
2,28620,Note_off_c,9,80,0,
2,28620,Note_off_c,9,81,0,
2,28620,Note_off_c,9,82,0,
2,28620,Note_off_c,9,87,0,
2,28620,Note_off_c,9,88,0,
2,28620,Note_off_c,9,89,0,
2,28620,Note_off_c,9,91,0,
2,28620,Note_off_c,9,93,0,
2,28650,Note_off_c,9,35,0,
2,28650,Note_off_c,9,36,0,
2,28650,Note_off_c,9,37,0,
2,28650,Note_off_c,9,38,0,
2,28650,Note_off_c,9,39,0,
2,28650,Note_off_c,9,40,0,
2,28650,Note_off_c,9,41,0,
2,28650,Note_off_c,9,42,0,
2,28650,Note_off_c,9,43,0,
2,28650,Note_off_c,9,44,0,
2,28650,Note_off_c,9,45,0,
2,28650,Note_off_c,9,46,0,
2,28650,Note_off_c,9,47,0,
2,28650,Note_off_c,9,48,0,
2,28650,Note_off_c,9,49,0,
2,28650,Note_off_c,9,50,0,
2,28650,Note_off_c,9,51,0,
2,28650,Note_off_c,9,56,0,
2,28650,Note_off_c,9,57,0,
2,28650,Note_off_c,9,59,0,
2,28650,Note_off_c,9,60,0,
2,28650,Note_off_c,9,61,0,
2,28650,Note_off_c,9,63,0,
2,28650,Note_off_c,9,68,0,
2,28650,Note_off_c,9,69,0,
2,28650,Note_off_c,9,70,0,
2,28650,Note_off_c,9,76,0,
2,28650,Note_off_c,9,80,0,
2,28650,Note_off_c,9,81,0,
2,28650,Note_off_c,9,82,0,
2,28650,Note_off_c,9,87,0,
2,28650,Note_off_c,9,88,0,
2,28650,Note_off_c,9,89,0,
2,28650,Note_off_c,9,91,0,
2,28650,Note_off_c,9,93,0,
2,28680,Note_off_c,9,35,0,
2,28680,Note_off_c,9,36,0,
2,28680,Note_off_c,9,37,0,
2,28680,Note_off_c,9,38,0,
2,28680,Note_off_c,9,39,0,
2,28680,Note_off_c,9,40,0,
2,28680,Note_off_c,9,41,0,
2,28680,Note_off_c,9,42,0,
2,28680,Note_off_c,9,43,0,
2,28680,Note_off_c,9,44,0,
2,28680,Note_off_c,9,45,0,
2,28680,Note_off_c,9,46,0,
2,28680,Note_off_c,9,47,0,
2,28680,Note_off_c,9,48,0,
2,28680,Note_off_c,9,49,0,
2,28680,Note_off_c,9,50,0,
2,28680,Note_off_c,9,51,0,
2,28680,Note_off_c,9,56,0,
2,28680,Note_off_c,9,57,0,
2,28680,Note_off_c,9,59,0,
2,28680,Note_off_c,9,60,0,
2,28680,Note_off_c,9,61,0,
2,28680,Note_off_c,9,63,0,
2,28680,Note_off_c,9,68,0,
2,28680,Note_off_c,9,69,0,
2,28680,Note_off_c,9,70,0,
2,28680,Note_off_c,9,76,0,
2,28680,Note_off_c,9,80,0,
2,28680,Note_off_c,9,81,0,
2,28680,Note_off_c,9,82,0,
2,28680,Note_off_c,9,87,0,
2,28680,Note_off_c,9,88,0,
2,28680,Note_off_c,9,89,0,
2,28680,Note_off_c,9,91,0,
2,28680,Note_off_c,9,93,0,
2,28710,Note_off_c,9,35,0,
2,28710,Note_off_c,9,36,0,
2,28710,Note_off_c,9,37,0,
2,28710,Note_off_c,9,38,0,
2,28710,Note_off_c,9,39,0,
2,28710,Note_off_c,9,40,0,
2,28710,Note_off_c,9,41,0,
2,28710,Note_off_c,9,42,0,
2,28710,Note_off_c,9,43,0,
2,28710,Note_off_c,9,44,0,
2,28710,Note_off_c,9,45,0,
2,28710,Note_off_c,9,46,0,
2,28710,Note_off_c,9,47,0,
2,28710,Note_off_c,9,48,0,
2,28710,Note_off_c,9,49,0,
2,28710,Note_off_c,9,50,0,
2,28710,Note_off_c,9,51,0,
2,28710,Note_off_c,9,56,0,
2,28710,Note_off_c,9,57,0,
2,28710,Note_off_c,9,59,0,
2,28710,Note_off_c,9,60,0,
2,28710,Note_off_c,9,61,0,
2,28710,Note_off_c,9,63,0,
2,28710,Note_off_c,9,68,0,
2,28710,Note_off_c,9,69,0,
2,28710,Note_off_c,9,70,0,
2,28710,Note_off_c,9,76,0,
2,28710,Note_off_c,9,80,0,
2,28710,Note_off_c,9,81,0,
2,28710,Note_off_c,9,82,0,
2,28710,Note_off_c,9,87,0,
2,28710,Note_off_c,9,88,0,
2,28710,Note_off_c,9,89,0,
2,28710,Note_off_c,9,91,0,
2,28710,Note_off_c,9,93,0,
2,28740,Note_off_c,9,35,0,
2,28740,Note_off_c,9,36,0,
2,28740,Note_off_c,9,37,0,
2,28740,Note_off_c,9,38,0,
2,28740,Note_off_c,9,39,0,
2,28740,Note_off_c,9,40,0,
2,28740,Note_off_c,9,41,0,
2,28740,Note_off_c,9,42,0,
2,28740,Note_off_c,9,43,0,
2,28740,Note_off_c,9,44,0,
2,28740,Note_off_c,9,45,0,
2,28740,Note_off_c,9,46,0,
2,28740,Note_off_c,9,47,0,
2,28740,Note_off_c,9,48,0,
2,28740,Note_off_c,9,49,0,
2,28740,Note_off_c,9,50,0,
2,28740,Note_off_c,9,51,0,
2,28740,Note_off_c,9,56,0,
2,28740,Note_off_c,9,57,0,
2,28740,Note_off_c,9,59,0,
2,28740,Note_off_c,9,60,0,
2,28740,Note_off_c,9,61,0,
2,28740,Note_off_c,9,63,0,
2,28740,Note_off_c,9,68,0,
2,28740,Note_off_c,9,69,0,
2,28740,Note_off_c,9,70,0,
2,28740,Note_off_c,9,76,0,
2,28740,Note_off_c,9,80,0,
2,28740,Note_off_c,9,81,0,
2,28740,Note_off_c,9,82,0,
2,28740,Note_off_c,9,87,0,
2,28740,Note_off_c,9,88,0,
2,28740,Note_off_c,9,89,0,
2,28740,Note_off_c,9,91,0,
2,28740,Note_off_c,9,93,0,
2,28770,Note_off_c,9,35,0,
2,28770,Note_off_c,9,36,0,
2,28770,Note_off_c,9,37,0,
2,28770,Note_off_c,9,38,0,
2,28770,Note_off_c,9,39,0,
2,28770,Note_off_c,9,40,0,
2,28770,Note_off_c,9,41,0,
2,28770,Note_off_c,9,42,0,
2,28770,Note_off_c,9,43,0,
2,28770,Note_off_c,9,44,0,
2,28770,Note_off_c,9,45,0,
2,28770,Note_off_c,9,46,0,
2,28770,Note_off_c,9,47,0,
2,28770,Note_off_c,9,48,0,
2,28770,Note_off_c,9,49,0,
2,28770,Note_off_c,9,50,0,
2,28770,Note_off_c,9,51,0,
2,28770,Note_off_c,9,56,0,
2,28770,Note_off_c,9,57,0,
2,28770,Note_off_c,9,59,0,
2,28770,Note_off_c,9,60,0,
2,28770,Note_off_c,9,61,0,
2,28770,Note_off_c,9,63,0,
2,28770,Note_off_c,9,68,0,
2,28770,Note_off_c,9,69,0,
2,28770,Note_off_c,9,70,0,
2,28770,Note_off_c,9,76,0,
2,28770,Note_off_c,9,80,0,
2,28770,Note_off_c,9,81,0,
2,28770,Note_off_c,9,82,0,
2,28770,Note_off_c,9,87,0,
2,28770,Note_off_c,9,88,0,
2,28770,Note_off_c,9,89,0,
2,28770,Note_off_c,9,91,0,
2,28770,Note_off_c,9,93,0,
2,28800,Note_off_c,9,35,0,
2,28800,Note_off_c,9,36,0,
2,28800,Note_off_c,9,37,0,
2,28800,Note_off_c,9,38,0,
2,28800,Note_off_c,9,39,0,
2,28800,Note_off_c,9,40,0,
2,28800,Note_off_c,9,41,0,
2,28800,Note_off_c,9,42,0,
2,28800,Note_off_c,9,43,0,
2,28800,Note_off_c,9,44,0,
2,28800,Note_off_c,9,45,0,
2,28800,Note_off_c,9,46,0,
2,28800,Note_off_c,9,47,0,
2,28800,Note_off_c,9,48,0,
2,28800,Note_off_c,9,49,0,
2,28800,Note_off_c,9,50,0,
2,28800,Note_off_c,9,51,0,
2,28800,Note_off_c,9,56,0,
2,28800,Note_off_c,9,57,0,
2,28800,Note_off_c,9,59,0,
2,28800,Note_off_c,9,60,0,
2,28800,Note_off_c,9,61,0,
2,28800,Note_off_c,9,63,0,
2,28800,Note_off_c,9,68,0,
2,28800,Note_off_c,9,69,0,
2,28800,Note_off_c,9,70,0,
2,28800,Note_off_c,9,76,0,
2,28800,Note_off_c,9,80,0,
2,28800,Note_off_c,9,81,0,
2,28800,Note_off_c,9,82,0,
2,28800,Note_off_c,9,87,0,
2,28800,Note_off_c,9,88,0,
2,28800,Note_off_c,9,89,0,
2,28800,Note_off_c,9,91,0,
2,28800,Note_off_c,9,93,0,
2,28830,Note_off_c,9,35,0,
2,28830,Note_off_c,9,36,0,
2,28830,Note_off_c,9,37,0,
2,28830,Note_off_c,9,38,0,
2,28830,Note_off_c,9,39,0,
2,28830,Note_off_c,9,40,0,
2,28830,Note_off_c,9,41,0,
2,28830,Note_off_c,9,42,0,
2,28830,Note_off_c,9,43,0,
2,28830,Note_off_c,9,44,0,
2,28830,Note_off_c,9,45,0,
2,28830,Note_off_c,9,46,0,
2,28830,Note_off_c,9,47,0,
2,28830,Note_off_c,9,48,0,
2,28830,Note_off_c,9,49,0,
2,28830,Note_off_c,9,50,0,
2,28830,Note_off_c,9,51,0,
2,28830,Note_off_c,9,56,0,
2,28830,Note_off_c,9,57,0,
2,28830,Note_off_c,9,59,0,
2,28830,Note_off_c,9,60,0,
2,28830,Note_off_c,9,61,0,
2,28830,Note_off_c,9,63,0,
2,28830,Note_off_c,9,68,0,
2,28830,Note_off_c,9,69,0,
2,28830,Note_off_c,9,70,0,
2,28830,Note_off_c,9,76,0,
2,28830,Note_off_c,9,80,0,
2,28830,Note_off_c,9,81,0,
2,28830,Note_off_c,9,82,0,
2,28830,Note_off_c,9,87,0,
2,28830,Note_off_c,9,88,0,
2,28830,Note_off_c,9,89,0,
2,28830,Note_off_c,9,91,0,
2,28830,Note_off_c,9,93,0,
2,28860,Note_off_c,9,35,0,
2,28860,Note_off_c,9,36,0,
2,28860,Note_off_c,9,37,0,
2,28860,Note_off_c,9,38,0,
2,28860,Note_off_c,9,39,0,
2,28860,Note_off_c,9,40,0,
2,28860,Note_off_c,9,41,0,
2,28860,Note_off_c,9,42,0,
2,28860,Note_off_c,9,43,0,
2,28860,Note_off_c,9,44,0,
2,28860,Note_off_c,9,45,0,
2,28860,Note_off_c,9,46,0,
2,28860,Note_off_c,9,47,0,
2,28860,Note_off_c,9,48,0,
2,28860,Note_off_c,9,49,0,
2,28860,Note_off_c,9,50,0,
2,28860,Note_off_c,9,51,0,
2,28860,Note_off_c,9,56,0,
2,28860,Note_off_c,9,57,0,
2,28860,Note_off_c,9,59,0,
2,28860,Note_off_c,9,60,0,
2,28860,Note_off_c,9,61,0,
2,28860,Note_off_c,9,63,0,
2,28860,Note_off_c,9,68,0,
2,28860,Note_off_c,9,69,0,
2,28860,Note_off_c,9,70,0,
2,28860,Note_off_c,9,76,0,
2,28860,Note_off_c,9,80,0,
2,28860,Note_off_c,9,81,0,
2,28860,Note_off_c,9,82,0,
2,28860,Note_off_c,9,87,0,
2,28860,Note_off_c,9,88,0,
2,28860,Note_off_c,9,89,0,
2,28860,Note_off_c,9,91,0,
2,28860,Note_off_c,9,93,0,
2,28890,Note_off_c,9,35,0,
2,28890,Note_off_c,9,36,0,
2,28890,Note_off_c,9,37,0,
2,28890,Note_off_c,9,38,0,
2,28890,Note_off_c,9,39,0,
2,28890,Note_off_c,9,40,0,
2,28890,Note_off_c,9,41,0,
2,28890,Note_off_c,9,42,0,
2,28890,Note_off_c,9,43,0,
2,28890,Note_off_c,9,44,0,
2,28890,Note_off_c,9,45,0,
2,28890,Note_off_c,9,46,0,
2,28890,Note_off_c,9,47,0,
2,28890,Note_off_c,9,48,0,
2,28890,Note_off_c,9,49,0,
2,28890,Note_off_c,9,50,0,
2,28890,Note_off_c,9,51,0,
2,28890,Note_off_c,9,56,0,
2,28890,Note_off_c,9,57,0,
2,28890,Note_off_c,9,59,0,
2,28890,Note_off_c,9,60,0,
2,28890,Note_off_c,9,61,0,
2,28890,Note_off_c,9,63,0,
2,28890,Note_off_c,9,68,0,
2,28890,Note_off_c,9,69,0,
2,28890,Note_off_c,9,70,0,
2,28890,Note_off_c,9,76,0,
2,28890,Note_off_c,9,80,0,
2,28890,Note_off_c,9,81,0,
2,28890,Note_off_c,9,82,0,
2,28890,Note_off_c,9,87,0,
2,28890,Note_off_c,9,88,0,
2,28890,Note_off_c,9,89,0,
2,28890,Note_off_c,9,91,0,
2,28890,Note_off_c,9,93,0,
2,28920,Note_off_c,9,35,0,
2,28920,Note_off_c,9,36,0,
2,28920,Note_off_c,9,37,0,
2,28920,Note_off_c,9,38,0,
2,28920,Note_off_c,9,39,0,
2,28920,Note_off_c,9,40,0,
2,28920,Note_off_c,9,41,0,
2,28920,Note_off_c,9,42,0,
2,28920,Note_off_c,9,43,0,
2,28920,Note_off_c,9,44,0,
2,28920,Note_off_c,9,45,0,
2,28920,Note_off_c,9,46,0,
2,28920,Note_off_c,9,47,0,
2,28920,Note_off_c,9,48,0,
2,28920,Note_off_c,9,49,0,
2,28920,Note_off_c,9,50,0,
2,28920,Note_off_c,9,51,0,
2,28920,Note_off_c,9,56,0,
2,28920,Note_off_c,9,57,0,
2,28920,Note_off_c,9,59,0,
2,28920,Note_off_c,9,60,0,
2,28920,Note_off_c,9,61,0,
2,28920,Note_off_c,9,63,0,
2,28920,Note_off_c,9,68,0,
2,28920,Note_off_c,9,69,0,
2,28920,Note_off_c,9,70,0,
2,28920,Note_off_c,9,76,0,
2,28920,Note_off_c,9,80,0,
2,28920,Note_off_c,9,81,0,
2,28920,Note_off_c,9,82,0,
2,28920,Note_off_c,9,87,0,
2,28920,Note_off_c,9,88,0,
2,28920,Note_off_c,9,89,0,
2,28920,Note_off_c,9,91,0,
2,28920,Note_off_c,9,93,0,
2,28950,Note_off_c,9,35,0,
2,28950,Note_off_c,9,36,0,
2,28950,Note_off_c,9,37,0,
2,28950,Note_off_c,9,38,0,
2,28950,Note_off_c,9,39,0,
2,28950,Note_off_c,9,40,0,
2,28950,Note_off_c,9,41,0,
2,28950,Note_off_c,9,42,0,
2,28950,Note_off_c,9,43,0,
2,28950,Note_off_c,9,44,0,
2,28950,Note_off_c,9,45,0,
2,28950,Note_off_c,9,46,0,
2,28950,Note_off_c,9,47,0,
2,28950,Note_off_c,9,48,0,
2,28950,Note_off_c,9,49,0,
2,28950,Note_off_c,9,50,0,
2,28950,Note_off_c,9,51,0,
2,28950,Note_off_c,9,56,0,
2,28950,Note_off_c,9,57,0,
2,28950,Note_off_c,9,59,0,
2,28950,Note_off_c,9,60,0,
2,28950,Note_off_c,9,61,0,
2,28950,Note_off_c,9,63,0,
2,28950,Note_off_c,9,68,0,
2,28950,Note_off_c,9,69,0,
2,28950,Note_off_c,9,70,0,
2,28950,Note_off_c,9,76,0,
2,28950,Note_off_c,9,80,0,
2,28950,Note_off_c,9,81,0,
2,28950,Note_off_c,9,82,0,
2,28950,Note_off_c,9,87,0,
2,28950,Note_off_c,9,88,0,
2,28950,Note_off_c,9,89,0,
2,28950,Note_off_c,9,91,0,
2,28950,Note_off_c,9,93,0,
2,28980,Note_off_c,9,35,0,
2,28980,Note_off_c,9,36,0,
2,28980,Note_off_c,9,37,0,
2,28980,Note_off_c,9,38,0,
2,28980,Note_off_c,9,39,0,
2,28980,Note_off_c,9,40,0,
2,28980,Note_off_c,9,41,0,
2,28980,Note_off_c,9,42,0,
2,28980,Note_off_c,9,43,0,
2,28980,Note_off_c,9,44,0,
2,28980,Note_off_c,9,45,0,
2,28980,Note_off_c,9,46,0,
2,28980,Note_off_c,9,47,0,
2,28980,Note_off_c,9,48,0,
2,28980,Note_off_c,9,49,0,
2,28980,Note_off_c,9,50,0,
2,28980,Note_off_c,9,51,0,
2,28980,Note_off_c,9,56,0,
2,28980,Note_off_c,9,57,0,
2,28980,Note_off_c,9,59,0,
2,28980,Note_off_c,9,60,0,
2,28980,Note_off_c,9,61,0,
2,28980,Note_off_c,9,63,0,
2,28980,Note_off_c,9,68,0,
2,28980,Note_off_c,9,69,0,
2,28980,Note_off_c,9,70,0,
2,28980,Note_off_c,9,76,0,
2,28980,Note_off_c,9,80,0,
2,28980,Note_off_c,9,81,0,
2,28980,Note_off_c,9,82,0,
2,28980,Note_off_c,9,87,0,
2,28980,Note_off_c,9,88,0,
2,28980,Note_off_c,9,89,0,
2,28980,Note_off_c,9,91,0,
2,28980,Note_off_c,9,93,0,
2,29010,Note_off_c,9,35,0,
2,29010,Note_off_c,9,36,0,
2,29010,Note_off_c,9,37,0,
2,29010,Note_off_c,9,38,0,
2,29010,Note_off_c,9,39,0,
2,29010,Note_off_c,9,40,0,
2,29010,Note_off_c,9,41,0,
2,29010,Note_off_c,9,42,0,
2,29010,Note_off_c,9,43,0,
2,29010,Note_off_c,9,44,0,
2,29010,Note_off_c,9,45,0,
2,29010,Note_off_c,9,46,0,
2,29010,Note_off_c,9,47,0,
2,29010,Note_off_c,9,48,0,
2,29010,Note_off_c,9,49,0,
2,29010,Note_off_c,9,50,0,
2,29010,Note_off_c,9,51,0,
2,29010,Note_off_c,9,56,0,
2,29010,Note_off_c,9,57,0,
2,29010,Note_off_c,9,59,0,
2,29010,Note_off_c,9,60,0,
2,29010,Note_off_c,9,61,0,
2,29010,Note_off_c,9,63,0,
2,29010,Note_off_c,9,68,0,
2,29010,Note_off_c,9,69,0,
2,29010,Note_off_c,9,70,0,
2,29010,Note_off_c,9,76,0,
2,29010,Note_off_c,9,80,0,
2,29010,Note_off_c,9,81,0,
2,29010,Note_off_c,9,82,0,
2,29010,Note_off_c,9,87,0,
2,29010,Note_off_c,9,88,0,
2,29010,Note_off_c,9,89,0,
2,29010,Note_off_c,9,91,0,
2,29010,Note_off_c,9,93,0,
2,29040,Note_off_c,9,35,0,
2,29040,Note_off_c,9,36,0,
2,29040,Note_off_c,9,37,0,
2,29040,Note_off_c,9,38,0,
2,29040,Note_off_c,9,39,0,
2,29040,Note_off_c,9,40,0,
2,29040,Note_off_c,9,41,0,
2,29040,Note_off_c,9,42,0,
2,29040,Note_off_c,9,43,0,
2,29040,Note_off_c,9,44,0,
2,29040,Note_off_c,9,45,0,
2,29040,Note_off_c,9,46,0,
2,29040,Note_off_c,9,47,0,
2,29040,Note_off_c,9,48,0,
2,29040,Note_off_c,9,49,0,
2,29040,Note_off_c,9,50,0,
2,29040,Note_off_c,9,51,0,
2,29040,Note_off_c,9,56,0,
2,29040,Note_off_c,9,57,0,
2,29040,Note_off_c,9,59,0,
2,29040,Note_off_c,9,60,0,
2,29040,Note_off_c,9,61,0,
2,29040,Note_off_c,9,63,0,
2,29040,Note_off_c,9,68,0,
2,29040,Note_off_c,9,69,0,
2,29040,Note_off_c,9,70,0,
2,29040,Note_off_c,9,76,0,
2,29040,Note_off_c,9,80,0,
2,29040,Note_off_c,9,81,0,
2,29040,Note_off_c,9,82,0,
2,29040,Note_off_c,9,87,0,
2,29040,Note_off_c,9,88,0,
2,29040,Note_off_c,9,89,0,
2,29040,Note_off_c,9,91,0,
2,29040,Note_off_c,9,93,0,
2,29070,Note_off_c,9,35,0,
2,29070,Note_off_c,9,36,0,
2,29070,Note_off_c,9,37,0,
2,29070,Note_off_c,9,38,0,
2,29070,Note_off_c,9,39,0,
2,29070,Note_off_c,9,40,0,
2,29070,Note_off_c,9,41,0,
2,29070,Note_off_c,9,42,0,
2,29070,Note_off_c,9,43,0,
2,29070,Note_off_c,9,44,0,
2,29070,Note_off_c,9,45,0,
2,29070,Note_off_c,9,46,0,
2,29070,Note_off_c,9,47,0,
2,29070,Note_off_c,9,48,0,
2,29070,Note_off_c,9,49,0,
2,29070,Note_off_c,9,50,0,
2,29070,Note_off_c,9,51,0,
2,29070,Note_off_c,9,56,0,
2,29070,Note_off_c,9,57,0,
2,29070,Note_off_c,9,59,0,
2,29070,Note_off_c,9,60,0,
2,29070,Note_off_c,9,61,0,
2,29070,Note_off_c,9,63,0,
2,29070,Note_off_c,9,68,0,
2,29070,Note_off_c,9,69,0,
2,29070,Note_off_c,9,70,0,
2,29070,Note_off_c,9,76,0,
2,29070,Note_off_c,9,80,0,
2,29070,Note_off_c,9,81,0,
2,29070,Note_off_c,9,82,0,
2,29070,Note_off_c,9,87,0,
2,29070,Note_off_c,9,88,0,
2,29070,Note_off_c,9,89,0,
2,29070,Note_off_c,9,91,0,
2,29070,Note_off_c,9,93,0,
2,29100,Note_off_c,9,35,0,
2,29100,Note_off_c,9,36,0,
2,29100,Note_off_c,9,37,0,
2,29100,Note_off_c,9,38,0,
2,29100,Note_off_c,9,39,0,
2,29100,Note_off_c,9,40,0,
2,29100,Note_off_c,9,41,0,
2,29100,Note_off_c,9,42,0,
2,29100,Note_off_c,9,43,0,
2,29100,Note_off_c,9,44,0,
2,29100,Note_off_c,9,45,0,
2,29100,Note_off_c,9,46,0,
2,29100,Note_off_c,9,47,0,
2,29100,Note_off_c,9,48,0,
2,29100,Note_off_c,9,49,0,
2,29100,Note_off_c,9,50,0,
2,29100,Note_off_c,9,51,0,
2,29100,Note_off_c,9,56,0,
2,29100,Note_off_c,9,57,0,
2,29100,Note_off_c,9,59,0,
2,29100,Note_off_c,9,60,0,
2,29100,Note_off_c,9,61,0,
2,29100,Note_off_c,9,63,0,
2,29100,Note_off_c,9,68,0,
2,29100,Note_off_c,9,69,0,
2,29100,Note_off_c,9,70,0,
2,29100,Note_off_c,9,76,0,
2,29100,Note_off_c,9,80,0,
2,29100,Note_off_c,9,81,0,
2,29100,Note_off_c,9,82,0,
2,29100,Note_off_c,9,87,0,
2,29100,Note_off_c,9,88,0,
2,29100,Note_off_c,9,89,0,
2,29100,Note_off_c,9,91,0,
2,29100,Note_off_c,9,93,0,
2,29130,Note_off_c,9,35,0,
2,29130,Note_off_c,9,36,0,
2,29130,Note_off_c,9,37,0,
2,29130,Note_off_c,9,38,0,
2,29130,Note_off_c,9,39,0,
2,29130,Note_off_c,9,40,0,
2,29130,Note_off_c,9,41,0,
2,29130,Note_off_c,9,42,0,
2,29130,Note_off_c,9,43,0,
2,29130,Note_off_c,9,44,0,
2,29130,Note_off_c,9,45,0,
2,29130,Note_off_c,9,46,0,
2,29130,Note_off_c,9,47,0,
2,29130,Note_off_c,9,48,0,
2,29130,Note_off_c,9,49,0,
2,29130,Note_off_c,9,50,0,
2,29130,Note_off_c,9,51,0,
2,29130,Note_off_c,9,56,0,
2,29130,Note_off_c,9,57,0,
2,29130,Note_off_c,9,59,0,
2,29130,Note_off_c,9,60,0,
2,29130,Note_off_c,9,61,0,
2,29130,Note_off_c,9,63,0,
2,29130,Note_off_c,9,68,0,
2,29130,Note_off_c,9,69,0,
2,29130,Note_off_c,9,70,0,
2,29130,Note_off_c,9,76,0,
2,29130,Note_off_c,9,80,0,
2,29130,Note_off_c,9,81,0,
2,29130,Note_off_c,9,82,0,
2,29130,Note_off_c,9,87,0,
2,29130,Note_off_c,9,88,0,
2,29130,Note_off_c,9,89,0,
2,29130,Note_off_c,9,91,0,
2,29130,Note_off_c,9,93,0,
2,29160,Note_off_c,9,35,0,
2,29160,Note_off_c,9,36,0,
2,29160,Note_off_c,9,37,0,
2,29160,Note_off_c,9,38,0,
2,29160,Note_off_c,9,39,0,
2,29160,Note_off_c,9,40,0,
2,29160,Note_off_c,9,41,0,
2,29160,Note_off_c,9,42,0,
2,29160,Note_off_c,9,43,0,
2,29160,Note_off_c,9,44,0,
2,29160,Note_off_c,9,45,0,
2,29160,Note_off_c,9,46,0,
2,29160,Note_off_c,9,47,0,
2,29160,Note_off_c,9,48,0,
2,29160,Note_off_c,9,49,0,
2,29160,Note_off_c,9,50,0,
2,29160,Note_off_c,9,51,0,
2,29160,Note_off_c,9,56,0,
2,29160,Note_off_c,9,57,0,
2,29160,Note_off_c,9,59,0,
2,29160,Note_off_c,9,60,0,
2,29160,Note_off_c,9,61,0,
2,29160,Note_off_c,9,63,0,
2,29160,Note_off_c,9,68,0,
2,29160,Note_off_c,9,69,0,
2,29160,Note_off_c,9,70,0,
2,29160,Note_off_c,9,76,0,
2,29160,Note_off_c,9,80,0,
2,29160,Note_off_c,9,81,0,
2,29160,Note_off_c,9,82,0,
2,29160,Note_off_c,9,87,0,
2,29160,Note_off_c,9,88,0,
2,29160,Note_off_c,9,89,0,
2,29160,Note_off_c,9,91,0,
2,29160,Note_off_c,9,93,0,
2,29190,Note_off_c,9,35,0,
2,29190,Note_off_c,9,36,0,
2,29190,Note_off_c,9,37,0,
2,29190,Note_off_c,9,38,0,
2,29190,Note_off_c,9,39,0,
2,29190,Note_off_c,9,40,0,
2,29190,Note_off_c,9,41,0,
2,29190,Note_off_c,9,42,0,
2,29190,Note_off_c,9,43,0,
2,29190,Note_off_c,9,44,0,
2,29190,Note_off_c,9,45,0,
2,29190,Note_off_c,9,46,0,
2,29190,Note_off_c,9,47,0,
2,29190,Note_off_c,9,48,0,
2,29190,Note_off_c,9,49,0,
2,29190,Note_off_c,9,50,0,
2,29190,Note_off_c,9,51,0,
2,29190,Note_off_c,9,56,0,
2,29190,Note_off_c,9,57,0,
2,29190,Note_off_c,9,59,0,
2,29190,Note_off_c,9,60,0,
2,29190,Note_off_c,9,61,0,
2,29190,Note_off_c,9,63,0,
2,29190,Note_off_c,9,68,0,
2,29190,Note_off_c,9,69,0,
2,29190,Note_off_c,9,70,0,
2,29190,Note_off_c,9,76,0,
2,29190,Note_off_c,9,80,0,
2,29190,Note_off_c,9,81,0,
2,29190,Note_off_c,9,82,0,
2,29190,Note_off_c,9,87,0,
2,29190,Note_off_c,9,88,0,
2,29190,Note_off_c,9,89,0,
2,29190,Note_off_c,9,91,0,
2,29190,Note_off_c,9,93,0,
2,29220,Note_off_c,9,35,0,
2,29220,Note_off_c,9,36,0,
2,29220,Note_off_c,9,37,0,
2,29220,Note_off_c,9,38,0,
2,29220,Note_off_c,9,39,0,
2,29220,Note_off_c,9,40,0,
2,29220,Note_off_c,9,41,0,
2,29220,Note_off_c,9,42,0,
2,29220,Note_off_c,9,43,0,
2,29220,Note_off_c,9,44,0,
2,29220,Note_off_c,9,45,0,
2,29220,Note_off_c,9,46,0,
2,29220,Note_off_c,9,47,0,
2,29220,Note_off_c,9,48,0,
2,29220,Note_off_c,9,49,0,
2,29220,Note_off_c,9,50,0,
2,29220,Note_off_c,9,51,0,
2,29220,Note_off_c,9,56,0,
2,29220,Note_off_c,9,57,0,
2,29220,Note_off_c,9,59,0,
2,29220,Note_off_c,9,60,0,
2,29220,Note_off_c,9,61,0,
2,29220,Note_off_c,9,63,0,
2,29220,Note_off_c,9,68,0,
2,29220,Note_off_c,9,69,0,
2,29220,Note_off_c,9,70,0,
2,29220,Note_off_c,9,76,0,
2,29220,Note_off_c,9,80,0,
2,29220,Note_off_c,9,81,0,
2,29220,Note_off_c,9,82,0,
2,29220,Note_off_c,9,87,0,
2,29220,Note_off_c,9,88,0,
2,29220,Note_off_c,9,89,0,
2,29220,Note_off_c,9,91,0,
2,29220,Note_off_c,9,93,0,
2,29250,Note_off_c,9,35,0,
2,29250,Note_off_c,9,36,0,
2,29250,Note_off_c,9,37,0,
2,29250,Note_off_c,9,38,0,
2,29250,Note_off_c,9,39,0,
2,29250,Note_off_c,9,40,0,
2,29250,Note_off_c,9,41,0,
2,29250,Note_off_c,9,42,0,
2,29250,Note_off_c,9,43,0,
2,29250,Note_off_c,9,44,0,
2,29250,Note_off_c,9,45,0,
2,29250,Note_off_c,9,46,0,
2,29250,Note_off_c,9,47,0,
2,29250,Note_off_c,9,48,0,
2,29250,Note_off_c,9,49,0,
2,29250,Note_off_c,9,50,0,
2,29250,Note_off_c,9,51,0,
2,29250,Note_off_c,9,56,0,
2,29250,Note_off_c,9,57,0,
2,29250,Note_off_c,9,59,0,
2,29250,Note_off_c,9,60,0,
2,29250,Note_off_c,9,61,0,
2,29250,Note_off_c,9,63,0,
2,29250,Note_off_c,9,68,0,
2,29250,Note_off_c,9,69,0,
2,29250,Note_off_c,9,70,0,
2,29250,Note_off_c,9,76,0,
2,29250,Note_off_c,9,80,0,
2,29250,Note_off_c,9,81,0,
2,29250,Note_off_c,9,82,0,
2,29250,Note_off_c,9,87,0,
2,29250,Note_off_c,9,88,0,
2,29250,Note_off_c,9,89,0,
2,29250,Note_off_c,9,91,0,
2,29250,Note_off_c,9,93,0,
2,29280,Note_off_c,9,35,0,
2,29280,Note_off_c,9,36,0,
2,29280,Note_off_c,9,37,0,
2,29280,Note_off_c,9,38,0,
2,29280,Note_off_c,9,39,0,
2,29280,Note_off_c,9,40,0,
2,29280,Note_off_c,9,41,0,
2,29280,Note_off_c,9,42,0,
2,29280,Note_off_c,9,43,0,
2,29280,Note_off_c,9,44,0,
2,29280,Note_off_c,9,45,0,
2,29280,Note_off_c,9,46,0,
2,29280,Note_off_c,9,47,0,
2,29280,Note_off_c,9,48,0,
2,29280,Note_off_c,9,49,0,
2,29280,Note_off_c,9,50,0,
2,29280,Note_off_c,9,51,0,
2,29280,Note_off_c,9,56,0,
2,29280,Note_off_c,9,57,0,
2,29280,Note_off_c,9,59,0,
2,29280,Note_off_c,9,60,0,
2,29280,Note_off_c,9,61,0,
2,29280,Note_off_c,9,63,0,
2,29280,Note_off_c,9,68,0,
2,29280,Note_off_c,9,69,0,
2,29280,Note_off_c,9,70,0,
2,29280,Note_off_c,9,76,0,
2,29280,Note_off_c,9,80,0,
2,29280,Note_off_c,9,81,0,
2,29280,Note_off_c,9,82,0,
2,29280,Note_off_c,9,87,0,
2,29280,Note_off_c,9,88,0,
2,29280,Note_off_c,9,89,0,
2,29280,Note_off_c,9,91,0,
2,29280,Note_off_c,9,93,0,
2,29310,Note_off_c,9,35,0,
2,29310,Note_off_c,9,36,0,
2,29310,Note_off_c,9,37,0,
2,29310,Note_off_c,9,38,0,
2,29310,Note_off_c,9,39,0,
2,29310,Note_off_c,9,40,0,
2,29310,Note_off_c,9,41,0,
2,29310,Note_off_c,9,42,0,
2,29310,Note_off_c,9,43,0,
2,29310,Note_off_c,9,44,0,
2,29310,Note_off_c,9,45,0,
2,29310,Note_off_c,9,46,0,
2,29310,Note_off_c,9,47,0,
2,29310,Note_off_c,9,48,0,
2,29310,Note_off_c,9,49,0,
2,29310,Note_off_c,9,50,0,
2,29310,Note_off_c,9,51,0,
2,29310,Note_off_c,9,56,0,
2,29310,Note_off_c,9,57,0,
2,29310,Note_off_c,9,59,0,
2,29310,Note_off_c,9,60,0,
2,29310,Note_off_c,9,61,0,
2,29310,Note_off_c,9,63,0,
2,29310,Note_off_c,9,68,0,
2,29310,Note_off_c,9,69,0,
2,29310,Note_off_c,9,70,0,
2,29310,Note_off_c,9,76,0,
2,29310,Note_off_c,9,80,0,
2,29310,Note_off_c,9,81,0,
2,29310,Note_off_c,9,82,0,
2,29310,Note_off_c,9,87,0,
2,29310,Note_off_c,9,88,0,
2,29310,Note_off_c,9,89,0,
2,29310,Note_off_c,9,91,0,
2,29310,Note_off_c,9,93,0,
2,29340,Note_off_c,9,35,0,
2,29340,Note_off_c,9,36,0,
2,29340,Note_off_c,9,37,0,
2,29340,Note_off_c,9,38,0,
2,29340,Note_off_c,9,39,0,
2,29340,Note_off_c,9,40,0,
2,29340,Note_off_c,9,41,0,
2,29340,Note_off_c,9,42,0,
2,29340,Note_off_c,9,43,0,
2,29340,Note_off_c,9,44,0,
2,29340,Note_off_c,9,45,0,
2,29340,Note_off_c,9,46,0,
2,29340,Note_off_c,9,47,0,
2,29340,Note_off_c,9,48,0,
2,29340,Note_off_c,9,49,0,
2,29340,Note_off_c,9,50,0,
2,29340,Note_off_c,9,51,0,
2,29340,Note_off_c,9,56,0,
2,29340,Note_off_c,9,57,0,
2,29340,Note_off_c,9,59,0,
2,29340,Note_off_c,9,60,0,
2,29340,Note_off_c,9,61,0,
2,29340,Note_off_c,9,63,0,
2,29340,Note_off_c,9,68,0,
2,29340,Note_off_c,9,69,0,
2,29340,Note_off_c,9,70,0,
2,29340,Note_off_c,9,76,0,
2,29340,Note_off_c,9,80,0,
2,29340,Note_off_c,9,81,0,
2,29340,Note_off_c,9,82,0,
2,29340,Note_off_c,9,87,0,
2,29340,Note_off_c,9,88,0,
2,29340,Note_off_c,9,89,0,
2,29340,Note_off_c,9,91,0,
2,29340,Note_off_c,9,93,0,
2,29370,Note_off_c,9,35,0,
2,29370,Note_off_c,9,36,0,
2,29370,Note_off_c,9,37,0,
2,29370,Note_off_c,9,38,0,
2,29370,Note_off_c,9,39,0,
2,29370,Note_off_c,9,40,0,
2,29370,Note_off_c,9,41,0,
2,29370,Note_off_c,9,42,0,
2,29370,Note_off_c,9,43,0,
2,29370,Note_off_c,9,44,0,
2,29370,Note_off_c,9,45,0,
2,29370,Note_off_c,9,46,0,
2,29370,Note_off_c,9,47,0,
2,29370,Note_off_c,9,48,0,
2,29370,Note_off_c,9,49,0,
2,29370,Note_off_c,9,50,0,
2,29370,Note_off_c,9,51,0,
2,29370,Note_off_c,9,56,0,
2,29370,Note_off_c,9,57,0,
2,29370,Note_off_c,9,59,0,
2,29370,Note_off_c,9,60,0,
2,29370,Note_off_c,9,61,0,
2,29370,Note_off_c,9,63,0,
2,29370,Note_off_c,9,68,0,
2,29370,Note_off_c,9,69,0,
2,29370,Note_off_c,9,70,0,
2,29370,Note_off_c,9,76,0,
2,29370,Note_off_c,9,80,0,
2,29370,Note_off_c,9,81,0,
2,29370,Note_off_c,9,82,0,
2,29370,Note_off_c,9,87,0,
2,29370,Note_off_c,9,88,0,
2,29370,Note_off_c,9,89,0,
2,29370,Note_off_c,9,91,0,
2,29370,Note_off_c,9,93,0,
2,29400,Note_off_c,9,35,0,
2,29400,Note_off_c,9,36,0,
2,29400,Note_off_c,9,37,0,
2,29400,Note_off_c,9,38,0,
2,29400,Note_off_c,9,39,0,
2,29400,Note_off_c,9,40,0,
2,29400,Note_off_c,9,41,0,
2,29400,Note_off_c,9,42,0,
2,29400,Note_off_c,9,43,0,
2,29400,Note_off_c,9,44,0,
2,29400,Note_off_c,9,45,0,
2,29400,Note_off_c,9,46,0,
2,29400,Note_off_c,9,47,0,
2,29400,Note_off_c,9,48,0,
2,29400,Note_off_c,9,49,0,
2,29400,Note_off_c,9,50,0,
2,29400,Note_off_c,9,51,0,
2,29400,Note_off_c,9,56,0,
2,29400,Note_off_c,9,57,0,
2,29400,Note_off_c,9,59,0,
2,29400,Note_off_c,9,60,0,
2,29400,Note_off_c,9,61,0,
2,29400,Note_off_c,9,63,0,
2,29400,Note_off_c,9,68,0,
2,29400,Note_off_c,9,69,0,
2,29400,Note_off_c,9,70,0,
2,29400,Note_off_c,9,76,0,
2,29400,Note_off_c,9,80,0,
2,29400,Note_off_c,9,81,0,
2,29400,Note_off_c,9,82,0,
2,29400,Note_off_c,9,87,0,
2,29400,Note_off_c,9,88,0,
2,29400,Note_off_c,9,89,0,
2,29400,Note_off_c,9,91,0,
2,29400,Note_off_c,9,93,0,
2,29430,Note_off_c,9,35,0,
2,29430,Note_off_c,9,36,0,
2,29430,Note_off_c,9,37,0,
2,29430,Note_off_c,9,38,0,
2,29430,Note_off_c,9,39,0,
2,29430,Note_off_c,9,40,0,
2,29430,Note_off_c,9,41,0,
2,29430,Note_off_c,9,42,0,
2,29430,Note_off_c,9,43,0,
2,29430,Note_off_c,9,44,0,
2,29430,Note_off_c,9,45,0,
2,29430,Note_off_c,9,46,0,
2,29430,Note_off_c,9,47,0,
2,29430,Note_off_c,9,48,0,
2,29430,Note_off_c,9,49,0,
2,29430,Note_off_c,9,50,0,
2,29430,Note_off_c,9,51,0,
2,29430,Note_off_c,9,56,0,
2,29430,Note_off_c,9,57,0,
2,29430,Note_off_c,9,59,0,
2,29430,Note_off_c,9,60,0,
2,29430,Note_off_c,9,61,0,
2,29430,Note_off_c,9,63,0,
2,29430,Note_off_c,9,68,0,
2,29430,Note_off_c,9,69,0,
2,29430,Note_off_c,9,70,0,
2,29430,Note_off_c,9,76,0,
2,29430,Note_off_c,9,80,0,
2,29430,Note_off_c,9,81,0,
2,29430,Note_off_c,9,82,0,
2,29430,Note_off_c,9,87,0,
2,29430,Note_off_c,9,88,0,
2,29430,Note_off_c,9,89,0,
2,29430,Note_off_c,9,91,0,
2,29430,Note_off_c,9,93,0,
2,29460,Note_off_c,9,35,0,
2,29460,Note_off_c,9,36,0,
2,29460,Note_off_c,9,37,0,
2,29460,Note_off_c,9,38,0,
2,29460,Note_off_c,9,39,0,
2,29460,Note_off_c,9,40,0,
2,29460,Note_off_c,9,41,0,
2,29460,Note_off_c,9,42,0,
2,29460,Note_off_c,9,43,0,
2,29460,Note_off_c,9,44,0,
2,29460,Note_off_c,9,45,0,
2,29460,Note_off_c,9,46,0,
2,29460,Note_off_c,9,47,0,
2,29460,Note_off_c,9,48,0,
2,29460,Note_off_c,9,49,0,
2,29460,Note_off_c,9,50,0,
2,29460,Note_off_c,9,51,0,
2,29460,Note_off_c,9,56,0,
2,29460,Note_off_c,9,57,0,
2,29460,Note_off_c,9,59,0,
2,29460,Note_off_c,9,60,0,
2,29460,Note_off_c,9,61,0,
2,29460,Note_off_c,9,63,0,
2,29460,Note_off_c,9,68,0,
2,29460,Note_off_c,9,69,0,
2,29460,Note_off_c,9,70,0,
2,29460,Note_off_c,9,76,0,
2,29460,Note_off_c,9,80,0,
2,29460,Note_off_c,9,81,0,
2,29460,Note_off_c,9,82,0,
2,29460,Note_off_c,9,87,0,
2,29460,Note_off_c,9,88,0,
2,29460,Note_off_c,9,89,0,
2,29460,Note_off_c,9,91,0,
2,29460,Note_off_c,9,93,0,
2,29490,Note_off_c,9,35,0,
2,29490,Note_off_c,9,36,0,
2,29490,Note_off_c,9,37,0,
2,29490,Note_off_c,9,38,0,
2,29490,Note_off_c,9,39,0,
2,29490,Note_off_c,9,40,0,
2,29490,Note_off_c,9,41,0,
2,29490,Note_off_c,9,42,0,
2,29490,Note_off_c,9,43,0,
2,29490,Note_off_c,9,44,0,
2,29490,Note_off_c,9,45,0,
2,29490,Note_off_c,9,46,0,
2,29490,Note_off_c,9,47,0,
2,29490,Note_off_c,9,48,0,
2,29490,Note_off_c,9,49,0,
2,29490,Note_off_c,9,50,0,
2,29490,Note_off_c,9,51,0,
2,29490,Note_off_c,9,56,0,
2,29490,Note_off_c,9,57,0,
2,29490,Note_off_c,9,59,0,
2,29490,Note_off_c,9,60,0,
2,29490,Note_off_c,9,61,0,
2,29490,Note_off_c,9,63,0,
2,29490,Note_off_c,9,68,0,
2,29490,Note_off_c,9,69,0,
2,29490,Note_off_c,9,70,0,
2,29490,Note_off_c,9,76,0,
2,29490,Note_off_c,9,80,0,
2,29490,Note_off_c,9,81,0,
2,29490,Note_off_c,9,82,0,
2,29490,Note_off_c,9,87,0,
2,29490,Note_off_c,9,88,0,
2,29490,Note_off_c,9,89,0,
2,29490,Note_off_c,9,91,0,
2,29490,Note_off_c,9,93,0,
2,29520,Note_off_c,9,35,0,
2,29520,Note_off_c,9,36,0,
2,29520,Note_off_c,9,37,0,
2,29520,Note_off_c,9,38,0,
2,29520,Note_off_c,9,39,0,
2,29520,Note_off_c,9,40,0,
2,29520,Note_off_c,9,41,0,
2,29520,Note_off_c,9,42,0,
2,29520,Note_off_c,9,43,0,
2,29520,Note_off_c,9,44,0,
2,29520,Note_off_c,9,45,0,
2,29520,Note_off_c,9,46,0,
2,29520,Note_off_c,9,47,0,
2,29520,Note_off_c,9,48,0,
2,29520,Note_off_c,9,49,0,
2,29520,Note_off_c,9,50,0,
2,29520,Note_off_c,9,51,0,
2,29520,Note_off_c,9,56,0,
2,29520,Note_off_c,9,57,0,
2,29520,Note_off_c,9,59,0,
2,29520,Note_off_c,9,60,0,
2,29520,Note_off_c,9,61,0,
2,29520,Note_off_c,9,63,0,
2,29520,Note_off_c,9,68,0,
2,29520,Note_off_c,9,69,0,
2,29520,Note_off_c,9,70,0,
2,29520,Note_off_c,9,76,0,
2,29520,Note_off_c,9,80,0,
2,29520,Note_off_c,9,81,0,
2,29520,Note_off_c,9,82,0,
2,29520,Note_off_c,9,87,0,
2,29520,Note_off_c,9,88,0,
2,29520,Note_off_c,9,89,0,
2,29520,Note_off_c,9,91,0,
2,29520,Note_off_c,9,93,0,
2,29530,End_track,,,,
0,0,End_of_file,,,,
