0,0,Header,1,2,480,
1,0,Start_track,,,,
1,0,Time_signature,4,2,24,8
1,0,Title_t,"""from model""",,,
1,0,End_track,,,,
2,0,Start_track,,,,
2,0,Note_on_c,9,35,63,
2,0,Note_on_c,9,36,63,
2,0,Note_on_c,9,37,62,
2,0,Note_on_c,9,38,63,
2,0,Note_on_c,9,39,62,
2,0,Note_on_c,9,40,62,
2,0,Note_on_c,9,41,62,
2,0,Note_on_c,9,42,62,
2,0,Note_on_c,9,43,62,
2,0,Note_on_c,9,44,62,
2,0,Note_on_c,9,45,62,
2,0,Note_on_c,9,46,60,
2,0,Note_on_c,9,47,62,
2,0,Note_on_c,9,48,62,
2,0,Note_on_c,9,49,62,
2,0,Note_on_c,9,50,62,
2,0,Note_on_c,9,51,62,
2,0,Note_on_c,9,56,62,
2,0,Note_on_c,9,57,62,
2,0,Note_on_c,9,59,62,
2,0,Note_on_c,9,60,62,
2,0,Note_on_c,9,61,62,
2,0,Note_on_c,9,63,62,
2,0,Note_on_c,9,68,62,
2,0,Note_on_c,9,69,62,
2,0,Note_on_c,9,70,61,
2,0,Note_on_c,9,76,62,
2,0,Note_on_c,9,80,62,
2,0,Note_on_c,9,81,62,
2,0,Note_on_c,9,82,62,
2,0,Note_on_c,9,87,62,
2,0,Note_on_c,9,88,62,
2,0,Note_on_c,9,89,62,
2,0,Note_on_c,9,91,61,
2,0,Note_on_c,9,93,62,
2,1,Note_on_c,9,35,62,
2,1,Note_on_c,9,36,62,
2,1,Note_on_c,9,37,62,
2,1,Note_on_c,9,38,62,
2,1,Note_on_c,9,39,62,
2,1,Note_on_c,9,40,61,
2,1,Note_on_c,9,41,62,
2,1,Note_on_c,9,42,60,
2,1,Note_on_c,9,43,62,
2,1,Note_on_c,9,44,62,
2,1,Note_on_c,9,45,62,
2,1,Note_on_c,9,46,57,
2,1,Note_on_c,9,47,61,
2,1,Note_on_c,9,48,61,
2,1,Note_on_c,9,49,62,
2,1,Note_on_c,9,50,61,
2,1,Note_on_c,9,51,62,
2,1,Note_on_c,9,56,62,
2,1,Note_on_c,9,57,61,
2,1,Note_on_c,9,59,62,
2,1,Note_on_c,9,60,62,
2,1,Note_on_c,9,61,62,
2,1,Note_on_c,9,63,60,
2,1,Note_on_c,9,68,62,
2,1,Note_on_c,9,69,61,
2,1,Note_on_c,9,70,60,
2,1,Note_on_c,9,76,62,
2,1,Note_on_c,9,80,62,
2,1,Note_on_c,9,81,62,
2,1,Note_on_c,9,82,62,
2,1,Note_on_c,9,87,62,
2,1,Note_on_c,9,88,62,
2,1,Note_on_c,9,89,62,
2,1,Note_on_c,9,91,60,
2,1,Note_on_c,9,93,62,
2,2,Note_on_c,9,35,62,
2,2,Note_on_c,9,36,62,
2,2,Note_on_c,9,37,61,
2,2,Note_on_c,9,38,62,
2,2,Note_on_c,9,39,61,
2,2,Note_on_c,9,40,60,
2,2,Note_on_c,9,41,61,
2,2,Note_on_c,9,42,58,
2,2,Note_on_c,9,43,61,
2,2,Note_on_c,9,44,61,
2,2,Note_on_c,9,45,61,
2,2,Note_on_c,9,46,54,
2,2,Note_on_c,9,47,60,
2,2,Note_on_c,9,48,59,
2,2,Note_on_c,9,49,61,
2,2,Note_on_c,9,50,60,
2,2,Note_on_c,9,51,61,
2,2,Note_on_c,9,56,61,
2,2,Note_on_c,9,57,60,
2,2,Note_on_c,9,59,61,
2,2,Note_on_c,9,60,61,
2,2,Note_on_c,9,61,61,
2,2,Note_on_c,9,63,58,
2,2,Note_on_c,9,68,61,
2,2,Note_on_c,9,69,59,
2,2,Note_on_c,9,70,57,
2,2,Note_on_c,9,76,61,
2,2,Note_on_c,9,80,61,
2,2,Note_on_c,9,81,61,
2,2,Note_on_c,9,82,61,
2,2,Note_on_c,9,87,61,
2,2,Note_on_c,9,88,61,
2,2,Note_on_c,9,89,61,
2,2,Note_on_c,9,91,57,
2,2,Note_on_c,9,93,61,
2,3,Note_on_c,9,35,62,
2,3,Note_on_c,9,36,61,
2,3,Note_on_c,9,37,60,
2,3,Note_on_c,9,38,61,
2,3,Note_on_c,9,39,60,
2,3,Note_on_c,9,40,59,
2,3,Note_on_c,9,41,60,
2,3,Note_on_c,9,42,56,
2,3,Note_on_c,9,43,60,
2,3,Note_on_c,9,44,60,
2,3,Note_on_c,9,45,60,
2,3,Note_on_c,9,46,50,
2,3,Note_on_c,9,47,59,
2,3,Note_on_c,9,48,58,
2,3,Note_on_c,9,49,60,
2,3,Note_on_c,9,50,59,
2,3,Note_on_c,9,51,60,
2,3,Note_on_c,9,56,60,
2,3,Note_on_c,9,57,59,
2,3,Note_on_c,9,59,60,
2,3,Note_on_c,9,60,60,
2,3,Note_on_c,9,61,60,
2,3,Note_on_c,9,63,56,
2,3,Note_on_c,9,68,60,
2,3,Note_on_c,9,69,58,
2,3,Note_on_c,9,70,55,
2,3,Note_on_c,9,76,60,
2,3,Note_on_c,9,80,60,
2,3,Note_on_c,9,81,60,
2,3,Note_on_c,9,82,60,
2,3,Note_on_c,9,87,60,
2,3,Note_on_c,9,88,60,
2,3,Note_on_c,9,89,60,
2,3,Note_on_c,9,91,55,
2,3,Note_on_c,9,93,60,
2,4,Note_on_c,9,35,61,
2,4,Note_on_c,9,36,60,
2,4,Note_on_c,9,37,59,
2,4,Note_on_c,9,38,61,
2,4,Note_on_c,9,39,59,
2,4,Note_on_c,9,40,58,
2,4,Note_on_c,9,41,59,
2,4,Note_on_c,9,42,53,
2,4,Note_on_c,9,43,59,
2,4,Note_on_c,9,44,59,
2,4,Note_on_c,9,45,59,
2,4,Note_on_c,9,46,46,
2,4,Note_on_c,9,47,57,
2,4,Note_on_c,9,48,56,
2,4,Note_on_c,9,49,59,
2,4,Note_on_c,9,50,57,
2,4,Note_on_c,9,51,59,
2,4,Note_on_c,9,56,59,
2,4,Note_on_c,9,57,57,
2,4,Note_on_c,9,59,59,
2,4,Note_on_c,9,60,59,
2,4,Note_on_c,9,61,59,
2,4,Note_on_c,9,63,54,
2,4,Note_on_c,9,68,59,
2,4,Note_on_c,9,69,56,
2,4,Note_on_c,9,70,52,
2,4,Note_on_c,9,76,59,
2,4,Note_on_c,9,80,59,
2,4,Note_on_c,9,81,59,
2,4,Note_on_c,9,82,59,
2,4,Note_on_c,9,87,59,
2,4,Note_on_c,9,88,59,
2,4,Note_on_c,9,89,59,
2,4,Note_on_c,9,91,52,
2,4,Note_on_c,9,93,59,
2,5,Note_on_c,9,35,61,
2,5,Note_on_c,9,36,59,
2,5,Note_on_c,9,37,58,
2,5,Note_on_c,9,38,60,
2,5,Note_on_c,9,39,57,
2,5,Note_on_c,9,40,56,
2,5,Note_on_c,9,41,58,
2,5,Note_on_c,9,42,50,
2,5,Note_on_c,9,43,57,
2,5,Note_on_c,9,44,58,
2,5,Note_on_c,9,45,58,
2,5,Note_on_c,9,46,41,
2,5,Note_on_c,9,47,56,
2,5,Note_on_c,9,48,54,
2,5,Note_on_c,9,49,58,
2,5,Note_on_c,9,50,56,
2,5,Note_on_c,9,51,58,
2,5,Note_on_c,9,56,58,
2,5,Note_on_c,9,57,56,
2,5,Note_on_c,9,59,58,
2,5,Note_on_c,9,60,58,
2,5,Note_on_c,9,61,58,
2,5,Note_on_c,9,63,51,
2,5,Note_on_c,9,68,58,
2,5,Note_on_c,9,69,54,
2,5,Note_on_c,9,70,49,
2,5,Note_on_c,9,76,58,
2,5,Note_on_c,9,80,58,
2,5,Note_on_c,9,81,58,
2,5,Note_on_c,9,82,58,
2,5,Note_on_c,9,87,58,
2,5,Note_on_c,9,88,58,
2,5,Note_on_c,9,89,58,
2,5,Note_on_c,9,91,49,
2,5,Note_on_c,9,93,58,
2,6,Note_on_c,9,35,60,
2,6,Note_on_c,9,36,58,
2,6,Note_on_c,9,37,57,
2,6,Note_on_c,9,38,59,
2,6,Note_on_c,9,39,56,
2,6,Note_on_c,9,40,55,
2,6,Note_on_c,9,41,57,
2,6,Note_on_c,9,42,47,
2,6,Note_on_c,9,43,56,
2,6,Note_on_c,9,44,57,
2,6,Note_on_c,9,45,57,
2,6,Note_on_c,9,46,36,
2,6,Note_on_c,9,47,54,
2,6,Note_on_c,9,48,52,
2,6,Note_on_c,9,49,57,
2,6,Note_on_c,9,50,54,
2,6,Note_on_c,9,51,57,
2,6,Note_on_c,9,56,57,
2,6,Note_on_c,9,57,54,
2,6,Note_on_c,9,59,57,
2,6,Note_on_c,9,60,57,
2,6,Note_on_c,9,61,57,
2,6,Note_on_c,9,63,48,
2,6,Note_on_c,9,68,57,
2,6,Note_on_c,9,69,51,
2,6,Note_on_c,9,70,46,
2,6,Note_on_c,9,76,57,
2,6,Note_on_c,9,80,56,
2,6,Note_on_c,9,81,56,
2,6,Note_on_c,9,82,57,
2,6,Note_on_c,9,87,57,
2,6,Note_on_c,9,88,57,
2,6,Note_on_c,9,89,57,
2,6,Note_on_c,9,91,46,
2,6,Note_on_c,9,93,57,
2,7,Note_on_c,9,35,60,
2,7,Note_on_c,9,36,57,
2,7,Note_on_c,9,37,55,
2,7,Note_on_c,9,38,59,
2,7,Note_on_c,9,39,54,
2,7,Note_on_c,9,40,53,
2,7,Note_on_c,9,41,55,
2,7,Note_on_c,9,42,43,
2,7,Note_on_c,9,43,54,
2,7,Note_on_c,9,44,55,
2,7,Note_on_c,9,45,55,
2,7,Note_on_c,9,46,30,
2,7,Note_on_c,9,47,52,
2,7,Note_on_c,9,48,49,
2,7,Note_on_c,9,49,55,
2,7,Note_on_c,9,50,51,
2,7,Note_on_c,9,51,55,
2,7,Note_on_c,9,56,55,
2,7,Note_on_c,9,57,52,
2,7,Note_on_c,9,59,55,
2,7,Note_on_c,9,60,55,
2,7,Note_on_c,9,61,55,
2,7,Note_on_c,9,63,45,
2,7,Note_on_c,9,68,55,
2,7,Note_on_c,9,69,49,
2,7,Note_on_c,9,70,42,
2,7,Note_on_c,9,76,55,
2,7,Note_on_c,9,80,55,
2,7,Note_on_c,9,81,55,
2,7,Note_on_c,9,82,55,
2,7,Note_on_c,9,87,55,
2,7,Note_on_c,9,88,55,
2,7,Note_on_c,9,89,55,
2,7,Note_on_c,9,91,42,
2,7,Note_on_c,9,93,55,
2,8,Note_on_c,9,35,59,
2,8,Note_on_c,9,36,56,
2,8,Note_on_c,9,37,53,
2,8,Note_on_c,9,38,58,
2,8,Note_on_c,9,39,52,
2,8,Note_on_c,9,40,50,
2,8,Note_on_c,9,41,53,
2,8,Note_on_c,9,42,39,
2,8,Note_on_c,9,43,52,
2,8,Note_on_c,9,44,54,
2,8,Note_on_c,9,45,53,
2,8,Note_on_c,9,46,25,
2,8,Note_on_c,9,47,49,
2,8,Note_on_c,9,48,46,
2,8,Note_on_c,9,49,54,
2,8,Note_on_c,9,50,49,
2,8,Note_on_c,9,51,54,
2,8,Note_on_c,9,56,53,
2,8,Note_on_c,9,57,49,
2,8,Note_on_c,9,59,53,
2,8,Note_on_c,9,60,53,
2,8,Note_on_c,9,61,53,
2,8,Note_on_c,9,63,41,
2,8,Note_on_c,9,68,53,
2,8,Note_on_c,9,69,45,
2,8,Note_on_c,9,70,38,
2,8,Note_on_c,9,76,53,
2,8,Note_on_c,9,80,53,
2,8,Note_on_c,9,81,53,
2,8,Note_on_c,9,82,53,
2,8,Note_on_c,9,87,53,
2,8,Note_on_c,9,88,53,
2,8,Note_on_c,9,89,53,
2,8,Note_on_c,9,91,38,
2,8,Note_on_c,9,93,53,
2,9,Note_on_c,9,35,58,
2,9,Note_on_c,9,36,54,
2,9,Note_on_c,9,37,51,
2,9,Note_on_c,9,38,57,
2,9,Note_on_c,9,39,50,
2,9,Note_on_c,9,40,48,
2,9,Note_on_c,9,41,51,
2,9,Note_on_c,9,42,35,
2,9,Note_on_c,9,43,50,
2,9,Note_on_c,9,44,52,
2,9,Note_on_c,9,45,51,
2,9,Note_on_c,9,46,19,
2,9,Note_on_c,9,47,46,
2,9,Note_on_c,9,48,43,
2,9,Note_on_c,9,49,52,
2,9,Note_on_c,9,50,46,
2,9,Note_on_c,9,51,52,
2,9,Note_on_c,9,56,51,
2,9,Note_on_c,9,57,46,
2,9,Note_on_c,9,59,51,
2,9,Note_on_c,9,60,51,
2,9,Note_on_c,9,61,51,
2,9,Note_on_c,9,63,37,
2,9,Note_on_c,9,68,51,
2,9,Note_on_c,9,69,42,
2,9,Note_on_c,9,70,33,
2,9,Note_on_c,9,76,51,
2,9,Note_on_c,9,80,51,
2,9,Note_on_c,9,81,51,
2,9,Note_on_c,9,82,51,
2,9,Note_on_c,9,87,51,
2,9,Note_on_c,9,88,51,
2,9,Note_on_c,9,89,51,
2,9,Note_on_c,9,91,33,
2,9,Note_on_c,9,93,51,
2,10,Note_on_c,9,35,57,
2,10,Note_on_c,9,36,53,
2,10,Note_on_c,9,37,49,
2,10,Note_on_c,9,38,55,
2,10,Note_on_c,9,39,47,
2,10,Note_on_c,9,40,45,
2,10,Note_on_c,9,41,49,
2,10,Note_on_c,9,42,30,
2,10,Note_on_c,9,43,47,
2,10,Note_on_c,9,44,49,
2,10,Note_on_c,9,45,49,
2,10,Note_on_c,9,46,14,
2,10,Note_on_c,9,47,43,
2,10,Note_on_c,9,48,39,
2,10,Note_on_c,9,49,50,
2,10,Note_on_c,9,50,43,
2,10,Note_on_c,9,51,49,
2,10,Note_on_c,9,56,49,
2,10,Note_on_c,9,57,43,
2,10,Note_on_c,9,59,49,
2,10,Note_on_c,9,60,49,
2,10,Note_on_c,9,61,49,
2,10,Note_on_c,9,63,33,
2,10,Note_on_c,9,68,49,
2,10,Note_on_c,9,69,38,
2,10,Note_on_c,9,70,29,
2,10,Note_on_c,9,76,49,
2,10,Note_on_c,9,80,49,
2,10,Note_on_c,9,81,48,
2,10,Note_on_c,9,82,49,
2,10,Note_on_c,9,87,49,
2,10,Note_on_c,9,88,49,
2,10,Note_on_c,9,89,49,
2,10,Note_on_c,9,91,28,
2,10,Note_on_c,9,93,49,
2,11,Note_on_c,9,35,56,
2,11,Note_on_c,9,36,51,
2,11,Note_on_c,9,37,47,
2,11,Note_on_c,9,38,54,
2,11,Note_on_c,9,39,45,
2,11,Note_on_c,9,40,42,
2,11,Note_on_c,9,41,47,
2,11,Note_on_c,9,42,26,
2,11,Note_on_c,9,43,44,
2,11,Note_on_c,9,44,47,
2,11,Note_on_c,9,45,47,
2,11,Note_on_c,9,46,10,
2,11,Note_on_c,9,47,40,
2,11,Note_on_c,9,48,35,
2,11,Note_on_c,9,49,47,
2,11,Note_on_c,9,50,39,
2,11,Note_on_c,9,51,47,
2,11,Note_on_c,9,56,47,
2,11,Note_on_c,9,57,40,
2,11,Note_on_c,9,59,47,
2,11,Note_on_c,9,60,47,
2,11,Note_on_c,9,61,47,
2,11,Note_on_c,9,63,28,
2,11,Note_on_c,9,68,47,
2,11,Note_on_c,9,69,34,
2,11,Note_on_c,9,70,24,
2,11,Note_on_c,9,76,47,
2,11,Note_on_c,9,80,46,
2,11,Note_on_c,9,81,46,
2,11,Note_on_c,9,82,46,
2,11,Note_on_c,9,87,47,
2,11,Note_on_c,9,88,47,
2,11,Note_on_c,9,89,47,
2,11,Note_on_c,9,91,24,
2,11,Note_on_c,9,93,47,
2,12,Note_on_c,9,35,55,
2,12,Note_on_c,9,36,49,
2,12,Note_on_c,9,37,44,
2,12,Note_on_c,9,38,52,
2,12,Note_on_c,9,39,41,
2,12,Note_on_c,9,40,38,
2,12,Note_on_c,9,41,44,
2,12,Note_on_c,9,42,21,
2,12,Note_on_c,9,43,41,
2,12,Note_on_c,9,44,44,
2,12,Note_on_c,9,45,44,
2,12,Note_on_c,9,46,7,
2,12,Note_on_c,9,47,36,
2,12,Note_on_c,9,48,31,
2,12,Note_on_c,9,49,45,
2,12,Note_on_c,9,50,36,
2,12,Note_on_c,9,51,44,
2,12,Note_on_c,9,56,44,
2,12,Note_on_c,9,57,36,
2,12,Note_on_c,9,59,44,
2,12,Note_on_c,9,60,44,
2,12,Note_on_c,9,61,44,
2,12,Note_on_c,9,63,24,
2,12,Note_on_c,9,68,44,
2,12,Note_on_c,9,69,30,
2,12,Note_on_c,9,70,19,
2,12,Note_on_c,9,76,44,
2,12,Note_on_c,9,80,43,
2,12,Note_on_c,9,81,43,
2,12,Note_on_c,9,82,44,
2,12,Note_on_c,9,87,44,
2,12,Note_on_c,9,88,44,
2,12,Note_on_c,9,89,44,
2,12,Note_on_c,9,91,19,
2,12,Note_on_c,9,93,44,
2,13,Note_on_c,9,35,53,
2,13,Note_on_c,9,36,46,
2,13,Note_on_c,9,37,41,
2,13,Note_on_c,9,38,50,
2,13,Note_on_c,9,39,38,
2,13,Note_on_c,9,40,35,
2,13,Note_on_c,9,41,41,
2,13,Note_on_c,9,42,16,
2,13,Note_on_c,9,43,38,
2,13,Note_on_c,9,44,41,
2,13,Note_on_c,9,45,41,
2,13,Note_on_c,9,46,4,
2,13,Note_on_c,9,47,32,
2,13,Note_on_c,9,48,26,
2,13,Note_on_c,9,49,42,
2,13,Note_on_c,9,50,31,
2,13,Note_on_c,9,51,41,
2,13,Note_on_c,9,56,41,
2,13,Note_on_c,9,57,32,
2,13,Note_on_c,9,59,41,
2,13,Note_on_c,9,60,41,
2,13,Note_on_c,9,61,41,
2,13,Note_on_c,9,63,19,
2,13,Note_on_c,9,68,41,
2,13,Note_on_c,9,69,25,
2,13,Note_on_c,9,70,15,
2,13,Note_on_c,9,76,41,
2,13,Note_on_c,9,80,40,
2,13,Note_on_c,9,81,40,
2,13,Note_on_c,9,82,40,
2,13,Note_on_c,9,87,41,
2,13,Note_on_c,9,88,41,
2,13,Note_on_c,9,89,41,
2,13,Note_on_c,9,91,14,
2,13,Note_on_c,9,93,41,
2,14,Note_on_c,9,35,51,
2,14,Note_on_c,9,36,43,
2,14,Note_on_c,9,37,37,
2,14,Note_on_c,9,38,48,
2,14,Note_on_c,9,39,34,
2,14,Note_on_c,9,40,31,
2,14,Note_on_c,9,41,37,
2,14,Note_on_c,9,42,12,
2,14,Note_on_c,9,43,34,
2,14,Note_on_c,9,44,38,
2,14,Note_on_c,9,45,37,
2,14,Note_on_c,9,46,2,
2,14,Note_on_c,9,47,28,
2,14,Note_on_c,9,48,22,
2,14,Note_on_c,9,49,38,
2,14,Note_on_c,9,50,27,
2,14,Note_on_c,9,51,38,
2,14,Note_on_c,9,56,37,
2,14,Note_on_c,9,57,28,
2,14,Note_on_c,9,59,37,
2,14,Note_on_c,9,60,37,
2,14,Note_on_c,9,61,37,
2,14,Note_on_c,9,63,15,
2,14,Note_on_c,9,68,37,
2,14,Note_on_c,9,69,21,
2,14,Note_on_c,9,70,11,
2,14,Note_on_c,9,76,37,
2,14,Note_on_c,9,80,36,
2,14,Note_on_c,9,81,36,
2,14,Note_on_c,9,82,37,
2,14,Note_on_c,9,87,37,
2,14,Note_on_c,9,88,37,
2,14,Note_on_c,9,89,37,
2,14,Note_on_c,9,91,10,
2,14,Note_on_c,9,93,37,
2,15,Note_on_c,9,35,50,
2,15,Note_on_c,9,36,40,
2,15,Note_on_c,9,37,34,
2,15,Note_on_c,9,38,46,
2,15,Note_on_c,9,39,30,
2,15,Note_on_c,9,40,26,
2,15,Note_on_c,9,41,34,
2,15,Note_on_c,9,42,9,
2,15,Note_on_c,9,43,30,
2,15,Note_on_c,9,44,34,
2,15,Note_on_c,9,45,33,
2,15,Note_on_c,9,46,1,
2,15,Note_on_c,9,47,24,
2,15,Note_on_c,9,48,17,
2,15,Note_on_c,9,49,35,
2,15,Note_on_c,9,50,23,
2,15,Note_on_c,9,51,34,
2,15,Note_on_c,9,56,34,
2,15,Note_on_c,9,57,24,
2,15,Note_on_c,9,59,33,
2,15,Note_on_c,9,60,34,
2,15,Note_on_c,9,61,34,
2,15,Note_on_c,9,63,11,
2,15,Note_on_c,9,68,33,
2,15,Note_on_c,9,69,17,
2,15,Note_on_c,9,70,7,
2,15,Note_on_c,9,76,33,
2,15,Note_on_c,9,80,33,
2,15,Note_on_c,9,81,32,
2,15,Note_on_c,9,82,33,
2,15,Note_on_c,9,87,34,
2,15,Note_on_c,9,88,34,
2,15,Note_on_c,9,89,34,
2,15,Note_on_c,9,91,7,
2,15,Note_on_c,9,93,34,
2,16,Note_on_c,9,35,47,
2,16,Note_on_c,9,36,37,
2,16,Note_on_c,9,37,30,
2,16,Note_on_c,9,38,43,
2,16,Note_on_c,9,39,26,
2,16,Note_on_c,9,40,22,
2,16,Note_on_c,9,41,30,
2,16,Note_on_c,9,42,6,
2,16,Note_on_c,9,43,26,
2,16,Note_on_c,9,44,30,
2,16,Note_on_c,9,45,29,
2,16,Note_off_c,9,46,0,
2,16,Note_on_c,9,47,19,
2,16,Note_on_c,9,48,13,
2,16,Note_on_c,9,49,31,
2,16,Note_on_c,9,50,19,
2,16,Note_on_c,9,51,30,
2,16,Note_on_c,9,56,30,
2,16,Note_on_c,9,57,19,
2,16,Note_on_c,9,59,30,
2,16,Note_on_c,9,60,30,
2,16,Note_on_c,9,61,30,
2,16,Note_on_c,9,63,7,
2,16,Note_on_c,9,68,30,
2,16,Note_on_c,9,69,13,
2,16,Note_on_c,9,70,5,
2,16,Note_on_c,9,76,30,
2,16,Note_on_c,9,80,29,
2,16,Note_on_c,9,81,28,
2,16,Note_on_c,9,82,29,
2,16,Note_on_c,9,87,30,
2,16,Note_on_c,9,88,30,
2,16,Note_on_c,9,89,30,
2,16,Note_on_c,9,91,4,
2,16,Note_on_c,9,93,30,
2,17,Note_on_c,9,35,45,
2,17,Note_on_c,9,36,34,
2,17,Note_on_c,9,37,26,
2,17,Note_on_c,9,38,40,
2,17,Note_on_c,9,39,22,
2,17,Note_on_c,9,40,18,
2,17,Note_on_c,9,41,26,
2,17,Note_on_c,9,42,3,
2,17,Note_on_c,9,43,22,
2,17,Note_on_c,9,44,26,
2,17,Note_on_c,9,45,25,
2,17,Note_off_c,9,46,0,
2,17,Note_on_c,9,47,15,
2,17,Note_on_c,9,48,10,
2,17,Note_on_c,9,49,27,
2,17,Note_on_c,9,50,15,
2,17,Note_on_c,9,51,26,
2,17,Note_on_c,9,56,26,
2,17,Note_on_c,9,57,15,
2,17,Note_on_c,9,59,25,
2,17,Note_on_c,9,60,26,
2,17,Note_on_c,9,61,26,
2,17,Note_on_c,9,63,5,
2,17,Note_on_c,9,68,25,
2,17,Note_on_c,9,69,9,
2,17,Note_on_c,9,70,3,
2,17,Note_on_c,9,76,25,
2,17,Note_on_c,9,80,25,
2,17,Note_on_c,9,81,24,
2,17,Note_on_c,9,82,25,
2,17,Note_on_c,9,87,26,
2,17,Note_on_c,9,88,26,
2,17,Note_on_c,9,89,26,
2,17,Note_on_c,9,91,2,
2,17,Note_on_c,9,93,26,
2,18,Note_on_c,9,35,43,
2,18,Note_on_c,9,36,30,
2,18,Note_on_c,9,37,21,
2,18,Note_on_c,9,38,37,
2,18,Note_on_c,9,39,18,
2,18,Note_on_c,9,40,14,
2,18,Note_on_c,9,41,22,
2,18,Note_on_c,9,42,2,
2,18,Note_on_c,9,43,18,
2,18,Note_on_c,9,44,22,
2,18,Note_on_c,9,45,21,
2,18,Note_off_c,9,46,0,
2,18,Note_on_c,9,47,11,
2,18,Note_on_c,9,48,7,
2,18,Note_on_c,9,49,23,
2,18,Note_on_c,9,50,11,
2,18,Note_on_c,9,51,22,
2,18,Note_on_c,9,56,21,
2,18,Note_on_c,9,57,12,
2,18,Note_on_c,9,59,21,
2,18,Note_on_c,9,60,21,
2,18,Note_on_c,9,61,21,
2,18,Note_on_c,9,63,3,
2,18,Note_on_c,9,68,21,
2,18,Note_on_c,9,69,6,
2,18,Note_on_c,9,70,1,
2,18,Note_on_c,9,76,21,
2,18,Note_on_c,9,80,21,
2,18,Note_on_c,9,81,20,
2,18,Note_on_c,9,82,21,
2,18,Note_on_c,9,87,21,
2,18,Note_on_c,9,88,21,
2,18,Note_on_c,9,89,21,
2,18,Note_on_c,9,91,1,
2,18,Note_on_c,9,93,21,
2,19,Note_on_c,9,35,40,
2,19,Note_on_c,9,36,26,
2,19,Note_on_c,9,37,17,
2,19,Note_on_c,9,38,34,
2,19,Note_on_c,9,39,14,
2,19,Note_on_c,9,40,10,
2,19,Note_on_c,9,41,18,
2,19,Note_on_c,9,42,1,
2,19,Note_on_c,9,43,14,
2,19,Note_on_c,9,44,18,
2,19,Note_on_c,9,45,17,
2,19,Note_off_c,9,46,0,
2,19,Note_on_c,9,47,8,
2,19,Note_on_c,9,48,4,
2,19,Note_on_c,9,49,19,
2,19,Note_on_c,9,50,8,
2,19,Note_on_c,9,51,18,
2,19,Note_on_c,9,56,17,
2,19,Note_on_c,9,57,8,
2,19,Note_on_c,9,59,17,
2,19,Note_on_c,9,60,17,
2,19,Note_on_c,9,61,17,
2,19,Note_on_c,9,63,1,
2,19,Note_on_c,9,68,17,
2,19,Note_on_c,9,69,4,
2,19,Note_off_c,9,70,0,
2,19,Note_on_c,9,76,17,
2,19,Note_on_c,9,80,17,
2,19,Note_on_c,9,81,16,
2,19,Note_on_c,9,82,17,
2,19,Note_on_c,9,87,17,
2,19,Note_on_c,9,88,17,
2,19,Note_on_c,9,89,17,
2,19,Note_off_c,9,91,0,
2,19,Note_on_c,9,93,17,
2,20,Note_on_c,9,35,37,
2,20,Note_on_c,9,36,22,
2,20,Note_on_c,9,37,14,
2,20,Note_on_c,9,38,30,
2,20,Note_on_c,9,39,11,
2,20,Note_on_c,9,40,7,
2,20,Note_on_c,9,41,14,
2,20,Note_off_c,9,42,0,
2,20,Note_on_c,9,43,10,
2,20,Note_on_c,9,44,14,
2,20,Note_on_c,9,45,14,
2,20,Note_off_c,9,46,0,
2,20,Note_on_c,9,47,6,
2,20,Note_on_c,9,48,3,
2,20,Note_on_c,9,49,15,
2,20,Note_on_c,9,50,5,
2,20,Note_on_c,9,51,14,
2,20,Note_on_c,9,56,14,
2,20,Note_on_c,9,57,6,
2,20,Note_on_c,9,59,14,
2,20,Note_on_c,9,60,14,
2,20,Note_on_c,9,61,14,
2,20,Note_on_c,9,63,1,
2,20,Note_on_c,9,68,14,
2,20,Note_on_c,9,69,2,
2,20,Note_off_c,9,70,0,
2,20,Note_on_c,9,76,14,
2,20,Note_on_c,9,80,13,
2,20,Note_on_c,9,81,12,
2,20,Note_on_c,9,82,13,
2,20,Note_on_c,9,87,14,
2,20,Note_on_c,9,88,14,
2,20,Note_on_c,9,89,14,
2,20,Note_off_c,9,91,0,
2,20,Note_on_c,9,93,14,
2,21,Note_on_c,9,35,34,
2,21,Note_on_c,9,36,18,
2,21,Note_on_c,9,37,11,
2,21,Note_on_c,9,38,27,
2,21,Note_on_c,9,39,8,
2,21,Note_on_c,9,40,5,
2,21,Note_on_c,9,41,11,
2,21,Note_off_c,9,42,0,
2,21,Note_on_c,9,43,8,
2,21,Note_on_c,9,44,11,
2,21,Note_on_c,9,45,10,
2,21,Note_off_c,9,46,0,
2,21,Note_on_c,9,47,4,
2,21,Note_on_c,9,48,1,
2,21,Note_on_c,9,49,12,
2,21,Note_on_c,9,50,3,
2,21,Note_on_c,9,51,11,
2,21,Note_on_c,9,56,11,
2,21,Note_on_c,9,57,4,
2,21,Note_on_c,9,59,10,
2,21,Note_on_c,9,60,11,
2,21,Note_on_c,9,61,11,
2,21,Note_off_c,9,63,0,
2,21,Note_on_c,9,68,10,
2,21,Note_on_c,9,69,1,
2,21,Note_off_c,9,70,0,
2,21,Note_on_c,9,76,10,
2,21,Note_on_c,9,80,10,
2,21,Note_on_c,9,81,9,
2,21,Note_on_c,9,82,10,
2,21,Note_on_c,9,87,11,
2,21,Note_on_c,9,88,11,
2,21,Note_on_c,9,89,11,
2,21,Note_off_c,9,91,0,
2,21,Note_on_c,9,93,11,
2,22,Note_on_c,9,35,30,
2,22,Note_on_c,9,36,15,
2,22,Note_on_c,9,37,8,
2,22,Note_on_c,9,38,23,
2,22,Note_on_c,9,39,5,
2,22,Note_on_c,9,40,3,
2,22,Note_on_c,9,41,8,
2,22,Note_off_c,9,42,0,
2,22,Note_on_c,9,43,5,
2,22,Note_on_c,9,44,8,
2,22,Note_on_c,9,45,8,
2,22,Note_off_c,9,46,0,
2,22,Note_on_c,9,47,2,
2,22,Note_on_c,9,48,1,
2,22,Note_on_c,9,49,9,
2,22,Note_on_c,9,50,2,
2,22,Note_on_c,9,51,8,
2,22,Note_on_c,9,56,8,
2,22,Note_on_c,9,57,2,
2,22,Note_on_c,9,59,8,
2,22,Note_on_c,9,60,8,
2,22,Note_on_c,9,61,8,
2,22,Note_off_c,9,63,0,
2,22,Note_on_c,9,68,8,
2,22,Note_off_c,9,69,0,
2,22,Note_on_c,9,76,8,
2,22,Note_on_c,9,80,7,
2,22,Note_on_c,9,81,7,
2,22,Note_on_c,9,82,7,
2,22,Note_on_c,9,87,8,
2,22,Note_on_c,9,88,8,
2,22,Note_on_c,9,89,8,
2,22,Note_off_c,9,91,0,
2,22,Note_on_c,9,93,8,
2,23,Note_on_c,9,35,27,
2,23,Note_on_c,9,36,12,
2,23,Note_on_c,9,37,5,
2,23,Note_on_c,9,38,20,
2,23,Note_on_c,9,39,4,
2,23,Note_on_c,9,40,2,
2,23,Note_on_c,9,41,6,
2,23,Note_off_c,9,42,0,
2,23,Note_on_c,9,43,3,
2,23,Note_on_c,9,44,6,
2,23,Note_on_c,9,45,5,
2,23,Note_off_c,9,46,0,
2,23,Note_on_c,9,47,1,
2,23,Note_off_c,9,48,0,
2,23,Note_on_c,9,49,6,
2,23,Note_on_c,9,50,1,
2,23,Note_on_c,9,51,6,
2,23,Note_on_c,9,56,5,
2,23,Note_on_c,9,57,1,
2,23,Note_on_c,9,59,5,
2,23,Note_on_c,9,60,5,
2,23,Note_on_c,9,61,5,
2,23,Note_off_c,9,63,0,
2,23,Note_on_c,9,68,5,
2,23,Note_off_c,9,69,0,
2,23,Note_on_c,9,76,5,
2,23,Note_on_c,9,80,5,
2,23,Note_on_c,9,81,5,
2,23,Note_on_c,9,82,5,
2,23,Note_on_c,9,87,5,
2,23,Note_on_c,9,88,5,
2,23,Note_on_c,9,89,5,
2,23,Note_off_c,9,91,0,
2,23,Note_on_c,9,93,5,
2,24,Note_on_c,9,35,24,
2,24,Note_on_c,9,36,9,
2,24,Note_on_c,9,37,4,
2,24,Note_on_c,9,38,17,
2,24,Note_on_c,9,39,2,
2,24,Note_on_c,9,40,1,
2,24,Note_on_c,9,41,4,
2,24,Note_off_c,9,42,0,
2,24,Note_on_c,9,43,2,
2,24,Note_on_c,9,44,4,
2,24,Note_on_c,9,45,4,
2,24,Note_off_c,9,46,0,
2,24,Note_on_c,9,49,4,
2,24,Note_off_c,9,50,0,
2,24,Note_on_c,9,51,4,
2,24,Note_on_c,9,56,4,
2,24,Note_off_c,9,57,0,
2,24,Note_on_c,9,59,4,
2,24,Note_on_c,9,60,4,
2,24,Note_on_c,9,61,4,
2,24,Note_off_c,9,63,0,
2,24,Note_on_c,9,68,4,
2,24,Note_off_c,9,69,0,
2,24,Note_on_c,9,76,4,
2,24,Note_on_c,9,80,3,
2,24,Note_on_c,9,81,3,
2,24,Note_on_c,9,82,4,
2,24,Note_on_c,9,87,4,
2,24,Note_on_c,9,88,4,
2,24,Note_on_c,9,89,4,
2,24,Note_off_c,9,91,0,
2,24,Note_on_c,9,93,4,
2,25,Note_on_c,9,35,21,
2,25,Note_on_c,9,36,7,
2,25,Note_on_c,9,37,2,
2,25,Note_on_c,9,38,14,
2,25,Note_on_c,9,39,1,
2,25,Note_off_c,9,40,0,
2,25,Note_on_c,9,41,3,
2,25,Note_off_c,9,42,0,
2,25,Note_on_c,9,43,1,
2,25,Note_on_c,9,44,3,
2,25,Note_on_c,9,45,2,
2,25,Note_off_c,9,46,0,
2,25,Note_on_c,9,49,3,
2,25,Note_off_c,9,50,0,
2,25,Note_on_c,9,51,3,
2,25,Note_on_c,9,56,2,
2,25,Note_off_c,9,57,0,
2,25,Note_on_c,9,59,2,
2,25,Note_on_c,9,60,2,
2,25,Note_on_c,9,61,2,
2,25,Note_off_c,9,63,0,
2,25,Note_on_c,9,68,2,
2,25,Note_off_c,9,69,0,
2,25,Note_on_c,9,76,2,
2,25,Note_on_c,9,80,2,
2,25,Note_on_c,9,81,2,
2,25,Note_on_c,9,82,2,
2,25,Note_on_c,9,87,2,
2,25,Note_on_c,9,88,2,
2,25,Note_on_c,9,89,2,
2,25,Note_off_c,9,91,0,
2,25,Note_on_c,9,93,2,
2,26,Note_on_c,9,35,18,
2,26,Note_on_c,9,36,5,
2,26,Note_on_c,9,37,2,
2,26,Note_on_c,9,38,11,
2,26,Note_on_c,9,39,1,
2,26,Note_off_c,9,40,0,
2,26,Note_on_c,9,41,2,
2,26,Note_off_c,9,42,0,
2,26,Note_on_c,9,43,1,
2,26,Note_on_c,9,44,2,
2,26,Note_on_c,9,45,2,
2,26,Note_off_c,9,46,0,
2,26,Note_on_c,9,49,2,
2,26,Note_off_c,9,50,0,
2,26,Note_on_c,9,51,2,
2,26,Note_on_c,9,56,2,
2,26,Note_off_c,9,57,0,
2,26,Note_on_c,9,59,2,
2,26,Note_on_c,9,60,2,
2,26,Note_on_c,9,61,2,
2,26,Note_off_c,9,63,0,
2,26,Note_on_c,9,68,2,
2,26,Note_off_c,9,69,0,
2,26,Note_on_c,9,76,2,
2,26,Note_on_c,9,80,1,
2,26,Note_on_c,9,81,1,
2,26,Note_on_c,9,82,1,
2,26,Note_on_c,9,87,2,
2,26,Note_on_c,9,88,2,
2,26,Note_on_c,9,89,2,
2,26,Note_off_c,9,91,0,
2,26,Note_on_c,9,93,2,
2,27,Note_on_c,9,35,16,
2,27,Note_on_c,9,36,4,
2,27,Note_on_c,9,37,1,
2,27,Note_on_c,9,38,9,
2,27,Note_off_c,9,39,0,
2,27,Note_on_c,9,41,1,
2,27,Note_off_c,9,42,0,
2,27,Note_on_c,9,44,1,
2,27,Note_on_c,9,45,1,
2,27,Note_off_c,9,46,0,
2,27,Note_on_c,9,49,1,
2,27,Note_off_c,9,50,0,
2,27,Note_on_c,9,51,1,
2,27,Note_on_c,9,56,1,
2,27,Note_off_c,9,57,0,
2,27,Note_on_c,9,59,1,
2,27,Note_on_c,9,60,1,
2,27,Note_on_c,9,61,1,
2,27,Note_off_c,9,63,0,
2,27,Note_on_c,9,68,1,
2,27,Note_off_c,9,69,0,
2,27,Note_on_c,9,76,1,
2,27,Note_on_c,9,80,1,
2,27,Note_on_c,9,81,1,
2,27,Note_on_c,9,82,1,
2,27,Note_on_c,9,87,1,
2,27,Note_on_c,9,88,1,
2,27,Note_on_c,9,89,1,
2,27,Note_off_c,9,91,0,
2,27,Note_on_c,9,93,1,
2,28,Note_on_c,9,35,14,
2,28,Note_on_c,9,36,3,
2,28,Note_on_c,9,37,1,
2,28,Note_on_c,9,38,8,
2,28,Note_off_c,9,39,0,
2,28,Note_on_c,9,41,1,
2,28,Note_off_c,9,42,0,
2,28,Note_on_c,9,44,1,
2,28,Note_on_c,9,45,1,
2,28,Note_off_c,9,46,0,
2,28,Note_on_c,9,49,1,
2,28,Note_off_c,9,50,0,
2,28,Note_on_c,9,51,1,
2,28,Note_on_c,9,56,1,
2,28,Note_off_c,9,57,0,
2,28,Note_on_c,9,59,1,
2,28,Note_on_c,9,60,1,
2,28,Note_on_c,9,61,1,
2,28,Note_off_c,9,63,0,
2,28,Note_on_c,9,68,1,
2,28,Note_off_c,9,69,0,
2,28,Note_on_c,9,76,1,
2,28,Note_off_c,9,80,0,
2,28,Note_on_c,9,87,1,
2,28,Note_on_c,9,88,1,
2,28,Note_on_c,9,89,1,
2,28,Note_off_c,9,91,0,
2,28,Note_on_c,9,93,1,
2,29,Note_on_c,9,35,12,
2,29,Note_on_c,9,36,2,
2,29,Note_off_c,9,37,0,
2,29,Note_on_c,9,38,7,
2,29,Note_off_c,9,39,0,
2,30,Note_on_c,9,35,11,
2,30,Note_on_c,9,36,2,
2,30,Note_off_c,9,37,0,
2,30,Note_on_c,9,38,6,
2,30,Note_off_c,9,39,0,
2,31,Note_on_c,9,35,10,
2,31,Note_on_c,9,36,1,
2,31,Note_off_c,9,37,0,
2,31,Note_on_c,9,38,5,
2,31,Note_off_c,9,39,0,
2,32,Note_on_c,9,35,9,
2,32,Note_on_c,9,36,1,
2,32,Note_off_c,9,37,0,
2,32,Note_on_c,9,38,4,
2,32,Note_off_c,9,39,0,
2,33,Note_on_c,9,35,9,
2,33,Note_on_c,9,36,1,
2,33,Note_off_c,9,37,0,
2,33,Note_on_c,9,38,4,
2,33,Note_off_c,9,39,0,
2,34,Note_on_c,9,35,8,
2,34,Note_on_c,9,36,1,
2,34,Note_off_c,9,37,0,
2,34,Note_on_c,9,38,4,
2,34,Note_off_c,9,39,0,
2,35,Note_on_c,9,35,8,
2,35,Note_on_c,9,36,1,
2,35,Note_off_c,9,37,0,
2,35,Note_on_c,9,38,3,
2,35,Note_off_c,9,39,0,
2,36,Note_on_c,9,35,8,
2,36,Note_on_c,9,36,1,
2,36,Note_off_c,9,37,0,
2,36,Note_on_c,9,38,3,
2,36,Note_off_c,9,39,0,
2,37,Note_on_c,9,35,7,
2,37,Note_on_c,9,36,1,
2,37,Note_off_c,9,37,0,
2,37,Note_on_c,9,38,3,
2,37,Note_off_c,9,39,0,
2,38,Note_on_c,9,35,7,
2,38,Note_on_c,9,36,1,
2,38,Note_off_c,9,37,0,
2,38,Note_on_c,9,38,3,
2,38,Note_off_c,9,39,0,
2,39,Note_on_c,9,35,7,
2,39,Note_on_c,9,36,1,
2,39,Note_off_c,9,37,0,
2,39,Note_on_c,9,38,3,
2,39,Note_off_c,9,39,0,
2,40,Note_on_c,9,35,7,
2,40,Note_on_c,9,36,1,
2,40,Note_off_c,9,37,0,
2,40,Note_on_c,9,38,3,
2,40,Note_off_c,9,39,0,
2,41,Note_on_c,9,35,7,
2,41,Note_on_c,9,36,1,
2,41,Note_off_c,9,37,0,
2,41,Note_on_c,9,38,3,
2,41,Note_off_c,9,39,0,
2,42,Note_on_c,9,35,7,
2,42,Note_on_c,9,36,1,
2,42,Note_off_c,9,37,0,
2,42,Note_on_c,9,38,3,
2,42,Note_off_c,9,39,0,
2,43,Note_on_c,9,35,7,
2,43,Note_on_c,9,36,1,
2,43,Note_off_c,9,37,0,
2,43,Note_on_c,9,38,3,
2,43,Note_off_c,9,39,0,
2,44,Note_on_c,9,35,7,
2,44,Note_off_c,9,36,0,
2,44,Note_on_c,9,38,3,
2,44,Note_off_c,9,39,0,
2,45,Note_on_c,9,35,7,
2,45,Note_off_c,9,36,0,
2,45,Note_on_c,9,38,3,
2,45,Note_off_c,9,39,0,
2,46,Note_on_c,9,35,7,
2,46,Note_off_c,9,36,0,
2,46,Note_on_c,9,38,3,
2,46,Note_off_c,9,39,0,
2,47,Note_on_c,9,35,7,
2,47,Note_off_c,9,36,0,
2,47,Note_on_c,9,38,3,
2,47,Note_off_c,9,39,0,
2,48,Note_on_c,9,35,7,
2,48,Note_off_c,9,36,0,
2,48,Note_on_c,9,38,3,
2,48,Note_off_c,9,39,0,
2,49,Note_on_c,9,35,7,
2,49,Note_off_c,9,36,0,
2,49,Note_on_c,9,38,3,
2,49,Note_off_c,9,39,0,
2,50,Note_on_c,9,35,7,
2,50,Note_off_c,9,36,0,
2,50,Note_on_c,9,38,3,
2,50,Note_off_c,9,39,0,
2,51,Note_on_c,9,35,7,
2,51,Note_off_c,9,36,0,
2,51,Note_on_c,9,38,3,
2,51,Note_off_c,9,39,0,
2,52,Note_on_c,9,35,7,
2,52,Note_off_c,9,36,0,
2,52,Note_on_c,9,38,3,
2,52,Note_off_c,9,39,0,
2,53,Note_on_c,9,35,7,
2,53,Note_off_c,9,36,0,
2,53,Note_on_c,9,38,3,
2,53,Note_off_c,9,39,0,
2,54,Note_on_c,9,35,7,
2,54,Note_off_c,9,36,0,
2,54,Note_on_c,9,38,3,
2,54,Note_off_c,9,39,0,
2,55,Note_on_c,9,35,7,
2,55,Note_off_c,9,36,0,
2,55,Note_on_c,9,38,3,
2,55,Note_off_c,9,39,0,
2,56,Note_on_c,9,35,7,
2,56,Note_off_c,9,36,0,
2,56,Note_on_c,9,38,3,
2,56,Note_off_c,9,39,0,
2,57,Note_on_c,9,35,7,
2,57,Note_off_c,9,36,0,
2,57,Note_on_c,9,38,3,
2,57,Note_off_c,9,39,0,
2,58,Note_on_c,9,35,7,
2,58,Note_off_c,9,36,0,
2,58,Note_on_c,9,38,3,
2,58,Note_off_c,9,39,0,
2,59,Note_on_c,9,35,7,
2,59,Note_off_c,9,36,0,
2,59,Note_on_c,9,38,3,
2,59,Note_off_c,9,39,0,
2,60,Note_on_c,9,35,7,
2,60,Note_off_c,9,36,0,
2,60,Note_on_c,9,38,3,
2,60,Note_off_c,9,39,0,
2,61,Note_on_c,9,35,7,
2,61,Note_off_c,9,36,0,
2,61,Note_on_c,9,38,3,
2,61,Note_off_c,9,39,0,
2,62,Note_on_c,9,35,7,
2,62,Note_off_c,9,36,0,
2,62,Note_on_c,9,38,3,
2,62,Note_off_c,9,39,0,
2,63,Note_on_c,9,35,7,
2,63,Note_off_c,9,36,0,
2,63,Note_on_c,9,38,3,
2,63,Note_off_c,9,39,0,
2,64,Note_on_c,9,35,7,
2,64,Note_off_c,9,36,0,
2,64,Note_on_c,9,38,3,
2,64,Note_off_c,9,39,0,
2,65,Note_on_c,9,35,7,
2,65,Note_off_c,9,36,0,
2,65,Note_on_c,9,38,3,
2,65,Note_off_c,9,39,0,
2,66,Note_on_c,9,35,7,
2,66,Note_off_c,9,36,0,
2,66,Note_on_c,9,38,3,
2,66,Note_off_c,9,39,0,
2,67,Note_on_c,9,35,7,
2,67,Note_off_c,9,36,0,
2,67,Note_on_c,9,38,3,
2,67,Note_off_c,9,39,0,
2,68,Note_on_c,9,35,7,
2,68,Note_off_c,9,36,0,
2,68,Note_on_c,9,38,3,
2,68,Note_off_c,9,39,0,
2,69,Note_on_c,9,35,7,
2,69,Note_off_c,9,36,0,
2,69,Note_on_c,9,38,3,
2,69,Note_off_c,9,39,0,
2,70,Note_on_c,9,35,7,
2,70,Note_off_c,9,36,0,
2,70,Note_on_c,9,38,3,
2,70,Note_off_c,9,39,0,
2,71,Note_on_c,9,35,7,
2,71,Note_off_c,9,36,0,
2,71,Note_on_c,9,38,3,
2,71,Note_off_c,9,39,0,
2,72,Note_on_c,9,35,7,
2,72,Note_off_c,9,36,0,
2,72,Note_on_c,9,38,3,
2,72,Note_off_c,9,39,0,
2,73,Note_on_c,9,35,7,
2,73,Note_off_c,9,36,0,
2,73,Note_on_c,9,38,3,
2,73,Note_off_c,9,39,0,
2,74,Note_on_c,9,35,7,
2,74,Note_off_c,9,36,0,
2,74,Note_on_c,9,38,3,
2,74,Note_off_c,9,39,0,
2,75,Note_on_c,9,35,7,
2,75,Note_off_c,9,36,0,
2,75,Note_on_c,9,38,3,
2,75,Note_off_c,9,39,0,
2,76,Note_on_c,9,35,7,
2,76,Note_off_c,9,36,0,
2,76,Note_on_c,9,38,3,
2,76,Note_off_c,9,39,0,
2,77,Note_on_c,9,35,7,
2,77,Note_off_c,9,36,0,
2,77,Note_on_c,9,38,3,
2,77,Note_off_c,9,39,0,
2,78,Note_on_c,9,35,7,
2,78,Note_off_c,9,36,0,
2,78,Note_on_c,9,38,3,
2,78,Note_off_c,9,39,0,
2,79,Note_on_c,9,35,7,
2,79,Note_off_c,9,36,0,
2,79,Note_on_c,9,38,3,
2,79,Note_off_c,9,39,0,
2,80,Note_on_c,9,35,7,
2,80,Note_off_c,9,36,0,
2,80,Note_on_c,9,38,3,
2,80,Note_off_c,9,39,0,
2,81,Note_on_c,9,35,7,
2,81,Note_off_c,9,36,0,
2,81,Note_on_c,9,38,3,
2,81,Note_off_c,9,39,0,
2,82,Note_on_c,9,35,7,
2,82,Note_off_c,9,36,0,
2,82,Note_on_c,9,38,3,
2,82,Note_off_c,9,39,0,
2,83,Note_on_c,9,35,7,
2,83,Note_off_c,9,36,0,
2,83,Note_on_c,9,38,3,
2,83,Note_off_c,9,39,0,
2,84,Note_on_c,9,35,7,
2,84,Note_off_c,9,36,0,
2,84,Note_on_c,9,38,3,
2,84,Note_off_c,9,39,0,
2,85,Note_on_c,9,35,7,
2,85,Note_off_c,9,36,0,
2,85,Note_on_c,9,38,3,
2,85,Note_off_c,9,39,0,
2,86,Note_on_c,9,35,7,
2,86,Note_off_c,9,36,0,
2,86,Note_on_c,9,38,3,
2,86,Note_off_c,9,39,0,
2,87,Note_on_c,9,35,7,
2,87,Note_off_c,9,36,0,
2,87,Note_on_c,9,38,3,
2,87,Note_off_c,9,39,0,
2,88,Note_on_c,9,35,7,
2,88,Note_off_c,9,36,0,
2,88,Note_on_c,9,38,3,
2,88,Note_off_c,9,39,0,
2,89,Note_on_c,9,35,7,
2,89,Note_off_c,9,36,0,
2,89,Note_on_c,9,38,3,
2,89,Note_off_c,9,39,0,
2,90,Note_on_c,9,35,7,
2,90,Note_off_c,9,36,0,
2,90,Note_on_c,9,38,3,
2,90,Note_off_c,9,39,0,
2,91,Note_on_c,9,35,7,
2,91,Note_off_c,9,36,0,
2,91,Note_on_c,9,38,3,
2,91,Note_off_c,9,39,0,
2,92,Note_on_c,9,35,7,
2,92,Note_off_c,9,36,0,
2,92,Note_on_c,9,38,3,
2,92,Note_off_c,9,39,0,
2,93,Note_on_c,9,35,7,
2,93,Note_off_c,9,36,0,
2,93,Note_on_c,9,38,3,
2,93,Note_off_c,9,39,0,
2,94,Note_on_c,9,35,7,
2,94,Note_off_c,9,36,0,
2,94,Note_on_c,9,38,3,
2,94,Note_off_c,9,39,0,
2,95,Note_on_c,9,35,7,
2,95,Note_off_c,9,36,0,
2,95,Note_on_c,9,38,3,
2,95,Note_off_c,9,39,0,
2,96,Note_on_c,9,35,7,
2,96,Note_off_c,9,36,0,
2,96,Note_on_c,9,38,3,
2,96,Note_off_c,9,39,0,
2,97,Note_on_c,9,35,7,
2,97,Note_off_c,9,36,0,
2,97,Note_on_c,9,38,3,
2,97,Note_off_c,9,39,0,
2,98,Note_on_c,9,35,7,
2,98,Note_off_c,9,36,0,
2,98,Note_on_c,9,38,3,
2,98,Note_off_c,9,39,0,
2,99,Note_on_c,9,35,7,
2,99,Note_off_c,9,36,0,
2,99,Note_on_c,9,38,3,
2,99,Note_off_c,9,39,0,
2,100,Note_on_c,9,35,7,
2,100,Note_off_c,9,36,0,
2,100,Note_on_c,9,38,3,
2,100,Note_off_c,9,39,0,
2,101,Note_on_c,9,35,7,
2,101,Note_off_c,9,36,0,
2,101,Note_on_c,9,38,3,
2,101,Note_off_c,9,39,0,
2,102,Note_on_c,9,35,7,
2,102,Note_off_c,9,36,0,
2,102,Note_on_c,9,38,3,
2,102,Note_off_c,9,39,0,
2,103,Note_on_c,9,35,7,
2,103,Note_off_c,9,36,0,
2,103,Note_on_c,9,38,3,
2,103,Note_off_c,9,39,0,
2,104,Note_on_c,9,35,7,
2,104,Note_off_c,9,36,0,
2,104,Note_on_c,9,38,3,
2,104,Note_off_c,9,39,0,
2,105,Note_on_c,9,35,7,
2,105,Note_off_c,9,36,0,
2,105,Note_on_c,9,38,3,
2,105,Note_off_c,9,39,0,
2,106,Note_on_c,9,35,7,
2,106,Note_off_c,9,36,0,
2,106,Note_on_c,9,38,3,
2,106,Note_off_c,9,39,0,
2,107,Note_on_c,9,35,7,
2,107,Note_off_c,9,36,0,
2,107,Note_on_c,9,38,3,
2,107,Note_off_c,9,39,0,
2,108,Note_on_c,9,35,7,
2,108,Note_off_c,9,36,0,
2,108,Note_on_c,9,38,3,
2,108,Note_off_c,9,39,0,
2,109,Note_on_c,9,35,7,
2,109,Note_off_c,9,36,0,
2,109,Note_on_c,9,38,3,
2,109,Note_off_c,9,39,0,
2,110,Note_on_c,9,35,7,
2,110,Note_off_c,9,36,0,
2,110,Note_on_c,9,38,3,
2,110,Note_off_c,9,39,0,
2,111,Note_on_c,9,35,7,
2,111,Note_off_c,9,36,0,
2,111,Note_on_c,9,38,3,
2,111,Note_off_c,9,39,0,
2,112,Note_on_c,9,35,7,
2,112,Note_off_c,9,36,0,
2,112,Note_on_c,9,38,3,
2,112,Note_off_c,9,39,0,
2,113,Note_on_c,9,35,7,
2,113,Note_off_c,9,36,0,
2,113,Note_on_c,9,38,3,
2,113,Note_off_c,9,39,0,
2,114,Note_on_c,9,35,7,
2,114,Note_off_c,9,36,0,
2,114,Note_on_c,9,38,3,
2,114,Note_off_c,9,39,0,
2,115,Note_on_c,9,35,7,
2,115,Note_off_c,9,36,0,
2,115,Note_on_c,9,38,3,
2,115,Note_off_c,9,39,0,
2,116,Note_on_c,9,35,7,
2,116,Note_off_c,9,36,0,
2,116,Note_on_c,9,38,3,
2,116,Note_off_c,9,39,0,
2,117,Note_on_c,9,35,7,
2,117,Note_off_c,9,36,0,
2,117,Note_on_c,9,38,3,
2,117,Note_off_c,9,39,0,
2,118,Note_on_c,9,35,7,
2,118,Note_off_c,9,36,0,
2,118,Note_on_c,9,38,3,
2,118,Note_off_c,9,39,0,
2,119,Note_on_c,9,35,7,
2,119,Note_off_c,9,36,0,
2,119,Note_on_c,9,38,3,
2,119,Note_off_c,9,39,0,
2,120,Note_on_c,9,35,7,
2,120,Note_off_c,9,36,0,
2,120,Note_on_c,9,38,3,
2,120,Note_off_c,9,39,0,
2,121,Note_on_c,9,35,7,
2,121,Note_off_c,9,36,0,
2,121,Note_on_c,9,38,3,
2,121,Note_off_c,9,39,0,
2,122,Note_on_c,9,35,7,
2,122,Note_off_c,9,36,0,
2,122,Note_on_c,9,38,3,
2,122,Note_off_c,9,39,0,
2,123,Note_on_c,9,35,7,
2,123,Note_off_c,9,36,0,
2,123,Note_on_c,9,38,3,
2,123,Note_off_c,9,39,0,
2,124,Note_on_c,9,35,7,
2,124,Note_off_c,9,36,0,
2,124,Note_on_c,9,38,3,
2,124,Note_off_c,9,39,0,
2,125,Note_on_c,9,35,7,
2,125,Note_off_c,9,36,0,
2,125,Note_on_c,9,38,3,
2,125,Note_off_c,9,39,0,
2,126,Note_on_c,9,35,7,
2,126,Note_off_c,9,36,0,
2,126,Note_on_c,9,38,3,
2,126,Note_off_c,9,39,0,
2,127,Note_on_c,9,35,7,
2,127,Note_off_c,9,36,0,
2,127,Note_on_c,9,38,3,
2,127,Note_off_c,9,39,0,
2,128,Note_on_c,9,35,7,
2,128,Note_off_c,9,36,0,
2,128,Note_on_c,9,38,3,
2,128,Note_off_c,9,39,0,
2,129,Note_on_c,9,35,7,
2,129,Note_off_c,9,36,0,
2,129,Note_on_c,9,38,3,
2,129,Note_off_c,9,39,0,
2,130,Note_on_c,9,35,7,
2,130,Note_off_c,9,36,0,
2,130,Note_on_c,9,38,3,
2,130,Note_off_c,9,39,0,
2,131,Note_on_c,9,35,7,
2,131,Note_off_c,9,36,0,
2,131,Note_on_c,9,38,3,
2,131,Note_off_c,9,39,0,
2,132,Note_on_c,9,35,7,
2,132,Note_off_c,9,36,0,
2,132,Note_on_c,9,38,3,
2,132,Note_off_c,9,39,0,
2,133,Note_on_c,9,35,7,
2,133,Note_off_c,9,36,0,
2,133,Note_on_c,9,38,3,
2,133,Note_off_c,9,39,0,
2,134,Note_on_c,9,35,7,
2,134,Note_off_c,9,36,0,
2,134,Note_on_c,9,38,3,
2,134,Note_off_c,9,39,0,
2,135,Note_on_c,9,35,7,
2,135,Note_off_c,9,36,0,
2,135,Note_on_c,9,38,3,
2,135,Note_off_c,9,39,0,
2,136,Note_on_c,9,35,7,
2,136,Note_off_c,9,36,0,
2,136,Note_on_c,9,38,3,
2,136,Note_off_c,9,39,0,
2,137,Note_on_c,9,35,7,
2,137,Note_off_c,9,36,0,
2,137,Note_on_c,9,38,3,
2,137,Note_off_c,9,39,0,
2,138,Note_on_c,9,35,7,
2,138,Note_off_c,9,36,0,
2,138,Note_on_c,9,38,3,
2,138,Note_off_c,9,39,0,
2,139,Note_on_c,9,35,7,
2,139,Note_off_c,9,36,0,
2,139,Note_on_c,9,38,3,
2,139,Note_off_c,9,39,0,
2,140,Note_on_c,9,35,7,
2,140,Note_off_c,9,36,0,
2,140,Note_on_c,9,38,3,
2,140,Note_off_c,9,39,0,
2,141,Note_on_c,9,35,7,
2,141,Note_off_c,9,36,0,
2,141,Note_on_c,9,38,3,
2,141,Note_off_c,9,39,0,
2,142,Note_on_c,9,35,7,
2,142,Note_off_c,9,36,0,
2,142,Note_on_c,9,38,3,
2,142,Note_off_c,9,39,0,
2,143,Note_on_c,9,35,7,
2,143,Note_off_c,9,36,0,
2,143,Note_on_c,9,38,3,
2,143,Note_off_c,9,39,0,
2,144,Note_on_c,9,35,7,
2,144,Note_off_c,9,36,0,
2,144,Note_on_c,9,38,3,
2,144,Note_off_c,9,39,0,
2,145,Note_on_c,9,35,7,
2,145,Note_off_c,9,36,0,
2,145,Note_on_c,9,38,3,
2,145,Note_off_c,9,39,0,
2,146,Note_on_c,9,35,7,
2,146,Note_off_c,9,36,0,
2,146,Note_on_c,9,38,3,
2,146,Note_off_c,9,39,0,
2,147,Note_on_c,9,35,7,
2,147,Note_off_c,9,36,0,
2,147,Note_on_c,9,38,3,
2,147,Note_off_c,9,39,0,
2,148,Note_on_c,9,35,7,
2,148,Note_off_c,9,36,0,
2,148,Note_on_c,9,38,3,
2,148,Note_off_c,9,39,0,
2,149,Note_on_c,9,35,7,
2,149,Note_off_c,9,36,0,
2,149,Note_on_c,9,38,3,
2,149,Note_off_c,9,39,0,
2,150,Note_on_c,9,35,7,
2,150,Note_off_c,9,36,0,
2,150,Note_on_c,9,38,3,
2,150,Note_off_c,9,39,0,
2,151,Note_on_c,9,35,7,
2,151,Note_off_c,9,36,0,
2,151,Note_on_c,9,38,3,
2,151,Note_off_c,9,39,0,
2,152,Note_on_c,9,35,7,
2,152,Note_off_c,9,36,0,
2,152,Note_on_c,9,38,3,
2,152,Note_off_c,9,39,0,
2,153,Note_on_c,9,35,7,
2,153,Note_off_c,9,36,0,
2,153,Note_on_c,9,38,3,
2,153,Note_off_c,9,39,0,
2,154,Note_on_c,9,35,7,
2,154,Note_off_c,9,36,0,
2,154,Note_on_c,9,38,3,
2,154,Note_off_c,9,39,0,
2,155,Note_on_c,9,35,7,
2,155,Note_off_c,9,36,0,
2,155,Note_on_c,9,38,3,
2,155,Note_off_c,9,39,0,
2,156,Note_on_c,9,35,7,
2,156,Note_off_c,9,36,0,
2,156,Note_on_c,9,38,3,
2,156,Note_off_c,9,39,0,
2,157,Note_on_c,9,35,7,
2,157,Note_off_c,9,36,0,
2,157,Note_on_c,9,38,3,
2,157,Note_off_c,9,39,0,
2,158,Note_on_c,9,35,7,
2,158,Note_off_c,9,36,0,
2,158,Note_on_c,9,38,3,
2,158,Note_off_c,9,39,0,
2,159,Note_on_c,9,35,7,
2,159,Note_off_c,9,36,0,
2,159,Note_on_c,9,38,3,
2,159,Note_off_c,9,39,0,
2,160,Note_on_c,9,35,7,
2,160,Note_off_c,9,36,0,
2,160,Note_on_c,9,38,3,
2,160,Note_off_c,9,39,0,
2,161,Note_on_c,9,35,7,
2,161,Note_off_c,9,36,0,
2,161,Note_on_c,9,38,3,
2,161,Note_off_c,9,39,0,
2,162,Note_on_c,9,35,7,
2,162,Note_off_c,9,36,0,
2,162,Note_on_c,9,38,3,
2,162,Note_off_c,9,39,0,
2,163,Note_on_c,9,35,7,
2,163,Note_off_c,9,36,0,
2,163,Note_on_c,9,38,3,
2,163,Note_off_c,9,39,0,
2,164,Note_on_c,9,35,7,
2,164,Note_off_c,9,36,0,
2,164,Note_on_c,9,38,3,
2,164,Note_off_c,9,39,0,
2,165,Note_on_c,9,35,7,
2,165,Note_off_c,9,36,0,
2,165,Note_on_c,9,38,3,
2,165,Note_off_c,9,39,0,
2,166,Note_on_c,9,35,7,
2,166,Note_off_c,9,36,0,
2,166,Note_on_c,9,38,3,
2,166,Note_off_c,9,39,0,
2,167,Note_on_c,9,35,7,
2,167,Note_off_c,9,36,0,
2,167,Note_on_c,9,38,3,
2,167,Note_off_c,9,39,0,
2,168,Note_on_c,9,35,7,
2,168,Note_off_c,9,36,0,
2,168,Note_on_c,9,38,3,
2,168,Note_off_c,9,39,0,
2,169,Note_on_c,9,35,7,
2,169,Note_off_c,9,36,0,
2,169,Note_on_c,9,38,3,
2,169,Note_off_c,9,39,0,
2,170,Note_on_c,9,35,7,
2,170,Note_off_c,9,36,0,
2,170,Note_on_c,9,38,3,
2,170,Note_off_c,9,39,0,
2,171,Note_on_c,9,35,7,
2,171,Note_off_c,9,36,0,
2,171,Note_on_c,9,38,3,
2,171,Note_off_c,9,39,0,
2,172,Note_on_c,9,35,7,
2,172,Note_off_c,9,36,0,
2,172,Note_on_c,9,38,3,
2,172,Note_off_c,9,39,0,
2,173,Note_on_c,9,35,7,
2,173,Note_off_c,9,36,0,
2,173,Note_on_c,9,38,3,
2,173,Note_off_c,9,39,0,
2,174,Note_on_c,9,35,7,
2,174,Note_off_c,9,36,0,
2,174,Note_on_c,9,38,3,
2,174,Note_off_c,9,39,0,
2,175,Note_on_c,9,35,7,
2,175,Note_off_c,9,36,0,
2,175,Note_on_c,9,38,3,
2,175,Note_off_c,9,39,0,
2,176,Note_on_c,9,35,7,
2,176,Note_off_c,9,36,0,
2,176,Note_on_c,9,38,3,
2,176,Note_off_c,9,39,0,
2,177,Note_on_c,9,35,7,
2,177,Note_off_c,9,36,0,
2,177,Note_on_c,9,38,3,
2,177,Note_off_c,9,39,0,
2,178,Note_on_c,9,35,7,
2,178,Note_off_c,9,36,0,
2,178,Note_on_c,9,38,3,
2,178,Note_off_c,9,39,0,
2,179,Note_on_c,9,35,7,
2,179,Note_off_c,9,36,0,
2,179,Note_on_c,9,38,3,
2,179,Note_off_c,9,39,0,
2,180,Note_on_c,9,35,7,
2,180,Note_off_c,9,36,0,
2,180,Note_on_c,9,38,3,
2,180,Note_off_c,9,39,0,
2,181,Note_on_c,9,35,7,
2,181,Note_off_c,9,36,0,
2,181,Note_on_c,9,38,3,
2,181,Note_off_c,9,39,0,
2,182,Note_on_c,9,35,7,
2,182,Note_off_c,9,36,0,
2,182,Note_on_c,9,38,3,
2,182,Note_off_c,9,39,0,
2,183,Note_on_c,9,35,7,
2,183,Note_off_c,9,36,0,
2,183,Note_on_c,9,38,3,
2,183,Note_off_c,9,39,0,
2,184,Note_on_c,9,35,7,
2,184,Note_off_c,9,36,0,
2,184,Note_on_c,9,38,3,
2,184,Note_off_c,9,39,0,
2,185,Note_on_c,9,35,7,
2,185,Note_off_c,9,36,0,
2,185,Note_on_c,9,38,3,
2,185,Note_off_c,9,39,0,
2,186,Note_on_c,9,35,7,
2,186,Note_off_c,9,36,0,
2,186,Note_on_c,9,38,3,
2,186,Note_off_c,9,39,0,
2,187,Note_on_c,9,35,7,
2,187,Note_off_c,9,36,0,
2,187,Note_on_c,9,38,3,
2,187,Note_off_c,9,39,0,
2,188,Note_on_c,9,35,7,
2,188,Note_off_c,9,36,0,
2,188,Note_on_c,9,38,3,
2,188,Note_off_c,9,39,0,
2,189,Note_on_c,9,35,7,
2,189,Note_off_c,9,36,0,
2,189,Note_on_c,9,38,3,
2,189,Note_off_c,9,39,0,
2,190,Note_on_c,9,35,7,
2,190,Note_off_c,9,36,0,
2,190,Note_on_c,9,38,3,
2,190,Note_off_c,9,39,0,
2,191,Note_on_c,9,35,7,
2,191,Note_off_c,9,36,0,
2,191,Note_on_c,9,38,3,
2,191,Note_off_c,9,39,0,
2,192,Note_on_c,9,35,7,
2,192,Note_off_c,9,36,0,
2,192,Note_on_c,9,38,3,
2,192,Note_off_c,9,39,0,
2,193,Note_on_c,9,35,7,
2,193,Note_off_c,9,36,0,
2,193,Note_on_c,9,38,3,
2,193,Note_off_c,9,39,0,
2,194,Note_on_c,9,35,7,
2,194,Note_off_c,9,36,0,
2,194,Note_on_c,9,38,3,
2,194,Note_off_c,9,39,0,
2,195,Note_on_c,9,35,7,
2,195,Note_off_c,9,36,0,
2,195,Note_on_c,9,38,3,
2,195,Note_off_c,9,39,0,
2,196,Note_on_c,9,35,7,
2,196,Note_off_c,9,36,0,
2,196,Note_on_c,9,38,3,
2,196,Note_off_c,9,39,0,
2,197,Note_on_c,9,35,7,
2,197,Note_off_c,9,36,0,
2,197,Note_on_c,9,38,3,
2,197,Note_off_c,9,39,0,
2,198,Note_on_c,9,35,7,
2,198,Note_off_c,9,36,0,
2,198,Note_on_c,9,38,3,
2,198,Note_off_c,9,39,0,
2,199,Note_on_c,9,35,7,
2,199,Note_off_c,9,36,0,
2,199,Note_on_c,9,38,3,
2,199,Note_off_c,9,39,0,
2,200,Note_on_c,9,35,7,
2,200,Note_off_c,9,36,0,
2,200,Note_on_c,9,38,3,
2,200,Note_off_c,9,39,0,
2,201,Note_on_c,9,35,7,
2,201,Note_off_c,9,36,0,
2,201,Note_on_c,9,38,3,
2,201,Note_off_c,9,39,0,
2,202,Note_on_c,9,35,7,
2,202,Note_off_c,9,36,0,
2,202,Note_on_c,9,38,3,
2,202,Note_off_c,9,39,0,
2,203,Note_on_c,9,35,7,
2,203,Note_off_c,9,36,0,
2,203,Note_on_c,9,38,3,
2,203,Note_off_c,9,39,0,
2,204,Note_on_c,9,35,7,
2,204,Note_off_c,9,36,0,
2,204,Note_on_c,9,38,3,
2,204,Note_off_c,9,39,0,
2,205,Note_on_c,9,35,7,
2,205,Note_off_c,9,36,0,
2,205,Note_on_c,9,38,3,
2,205,Note_off_c,9,39,0,
2,206,Note_on_c,9,35,7,
2,206,Note_off_c,9,36,0,
2,206,Note_on_c,9,38,3,
2,206,Note_off_c,9,39,0,
2,207,Note_on_c,9,35,7,
2,207,Note_off_c,9,36,0,
2,207,Note_on_c,9,38,3,
2,207,Note_off_c,9,39,0,
2,208,Note_on_c,9,35,7,
2,208,Note_off_c,9,36,0,
2,208,Note_on_c,9,38,3,
2,208,Note_off_c,9,39,0,
2,209,Note_on_c,9,35,7,
2,209,Note_off_c,9,36,0,
2,209,Note_on_c,9,38,3,
2,209,Note_off_c,9,39,0,
2,210,Note_on_c,9,35,7,
2,210,Note_off_c,9,36,0,
2,210,Note_on_c,9,38,3,
2,210,Note_off_c,9,39,0,
2,211,Note_on_c,9,35,7,
2,211,Note_off_c,9,36,0,
2,211,Note_on_c,9,38,3,
2,211,Note_off_c,9,39,0,
2,212,Note_on_c,9,35,7,
2,212,Note_off_c,9,36,0,
2,212,Note_on_c,9,38,3,
2,212,Note_off_c,9,39,0,
2,213,Note_on_c,9,35,7,
2,213,Note_off_c,9,36,0,
2,213,Note_on_c,9,38,3,
2,213,Note_off_c,9,39,0,
2,214,Note_on_c,9,35,7,
2,214,Note_off_c,9,36,0,
2,214,Note_on_c,9,38,3,
2,214,Note_off_c,9,39,0,
2,215,Note_on_c,9,35,7,
2,215,Note_off_c,9,36,0,
2,215,Note_on_c,9,38,3,
2,215,Note_off_c,9,39,0,
2,216,Note_on_c,9,35,7,
2,216,Note_off_c,9,36,0,
2,216,Note_on_c,9,38,3,
2,216,Note_off_c,9,39,0,
2,217,Note_on_c,9,35,7,
2,217,Note_off_c,9,36,0,
2,217,Note_on_c,9,38,3,
2,217,Note_off_c,9,39,0,
2,218,Note_on_c,9,35,7,
2,218,Note_off_c,9,36,0,
2,218,Note_on_c,9,38,3,
2,218,Note_off_c,9,39,0,
2,219,Note_on_c,9,35,7,
2,219,Note_off_c,9,36,0,
2,219,Note_on_c,9,38,3,
2,219,Note_off_c,9,39,0,
2,220,Note_on_c,9,35,7,
2,220,Note_off_c,9,36,0,
2,220,Note_on_c,9,38,3,
2,220,Note_off_c,9,39,0,
2,221,Note_on_c,9,35,7,
2,221,Note_off_c,9,36,0,
2,221,Note_on_c,9,38,3,
2,221,Note_off_c,9,39,0,
2,222,Note_on_c,9,35,7,
2,222,Note_off_c,9,36,0,
2,222,Note_on_c,9,38,3,
2,222,Note_off_c,9,39,0,
2,223,Note_on_c,9,35,7,
2,223,Note_off_c,9,36,0,
2,223,Note_on_c,9,38,3,
2,223,Note_off_c,9,39,0,
2,224,Note_on_c,9,35,7,
2,224,Note_off_c,9,36,0,
2,224,Note_on_c,9,38,3,
2,224,Note_off_c,9,39,0,
2,225,Note_on_c,9,35,7,
2,225,Note_off_c,9,36,0,
2,225,Note_on_c,9,38,3,
2,225,Note_off_c,9,39,0,
2,226,Note_on_c,9,35,7,
2,226,Note_off_c,9,36,0,
2,226,Note_on_c,9,38,3,
2,226,Note_off_c,9,39,0,
2,227,Note_on_c,9,35,7,
2,227,Note_off_c,9,36,0,
2,227,Note_on_c,9,38,3,
2,227,Note_off_c,9,39,0,
2,228,Note_on_c,9,35,7,
2,228,Note_off_c,9,36,0,
2,228,Note_on_c,9,38,3,
2,228,Note_off_c,9,39,0,
2,229,Note_on_c,9,35,7,
2,229,Note_off_c,9,36,0,
2,229,Note_on_c,9,38,3,
2,229,Note_off_c,9,39,0,
2,230,Note_on_c,9,35,7,
2,230,Note_off_c,9,36,0,
2,230,Note_on_c,9,38,3,
2,230,Note_off_c,9,39,0,
2,231,Note_on_c,9,35,7,
2,231,Note_off_c,9,36,0,
2,231,Note_on_c,9,38,3,
2,231,Note_off_c,9,39,0,
2,232,Note_on_c,9,35,7,
2,232,Note_off_c,9,36,0,
2,232,Note_on_c,9,38,3,
2,232,Note_off_c,9,39,0,
2,233,Note_on_c,9,35,7,
2,233,Note_off_c,9,36,0,
2,233,Note_on_c,9,38,3,
2,233,Note_off_c,9,39,0,
2,234,Note_on_c,9,35,7,
2,234,Note_off_c,9,36,0,
2,234,Note_on_c,9,38,3,
2,234,Note_off_c,9,39,0,
2,235,Note_on_c,9,35,7,
2,235,Note_off_c,9,36,0,
2,235,Note_on_c,9,38,3,
2,235,Note_off_c,9,39,0,
2,236,Note_on_c,9,35,7,
2,236,Note_off_c,9,36,0,
2,236,Note_on_c,9,38,3,
2,236,Note_off_c,9,39,0,
2,237,Note_on_c,9,35,7,
2,237,Note_off_c,9,36,0,
2,237,Note_on_c,9,38,3,
2,237,Note_off_c,9,39,0,
2,238,Note_on_c,9,35,7,
2,238,Note_off_c,9,36,0,
2,238,Note_on_c,9,38,3,
2,238,Note_off_c,9,39,0,
2,239,Note_on_c,9,35,7,
2,239,Note_off_c,9,36,0,
2,239,Note_on_c,9,38,3,
2,239,Note_off_c,9,39,0,
2,240,Note_on_c,9,35,7,
2,240,Note_off_c,9,36,0,
2,240,Note_on_c,9,38,3,
2,240,Note_off_c,9,39,0,
2,241,Note_on_c,9,35,7,
2,241,Note_off_c,9,36,0,
2,241,Note_on_c,9,38,3,
2,241,Note_off_c,9,39,0,
2,242,Note_on_c,9,35,7,
2,242,Note_off_c,9,36,0,
2,242,Note_on_c,9,38,3,
2,242,Note_off_c,9,39,0,
2,243,Note_on_c,9,35,7,
2,243,Note_off_c,9,36,0,
2,243,Note_on_c,9,38,3,
2,243,Note_off_c,9,39,0,
2,244,Note_on_c,9,35,7,
2,244,Note_off_c,9,36,0,
2,244,Note_on_c,9,38,3,
2,244,Note_off_c,9,39,0,
2,245,Note_on_c,9,35,7,
2,245,Note_off_c,9,36,0,
2,245,Note_on_c,9,38,3,
2,245,Note_off_c,9,39,0,
2,246,Note_on_c,9,35,7,
2,246,Note_off_c,9,36,0,
2,246,Note_on_c,9,38,3,
2,246,Note_off_c,9,39,0,
2,247,Note_on_c,9,35,7,
2,247,Note_off_c,9,36,0,
2,247,Note_on_c,9,38,3,
2,247,Note_off_c,9,39,0,
2,248,Note_on_c,9,35,7,
2,248,Note_off_c,9,36,0,
2,248,Note_on_c,9,38,3,
2,248,Note_off_c,9,39,0,
2,249,Note_on_c,9,35,7,
2,249,Note_off_c,9,36,0,
2,249,Note_on_c,9,38,3,
2,249,Note_off_c,9,39,0,
2,250,Note_on_c,9,35,7,
2,250,Note_off_c,9,36,0,
2,250,Note_on_c,9,38,3,
2,250,Note_off_c,9,39,0,
2,251,Note_on_c,9,35,7,
2,251,Note_off_c,9,36,0,
2,251,Note_on_c,9,38,3,
2,251,Note_off_c,9,39,0,
2,252,Note_on_c,9,35,7,
2,252,Note_off_c,9,36,0,
2,252,Note_on_c,9,38,3,
2,252,Note_off_c,9,39,0,
2,253,Note_on_c,9,35,7,
2,253,Note_off_c,9,36,0,
2,253,Note_on_c,9,38,3,
2,253,Note_off_c,9,39,0,
2,254,Note_on_c,9,35,7,
2,254,Note_off_c,9,36,0,
2,254,Note_on_c,9,38,3,
2,254,Note_off_c,9,39,0,
2,255,Note_on_c,9,35,7,
2,255,Note_off_c,9,36,0,
2,255,Note_on_c,9,38,3,
2,255,Note_off_c,9,39,0,
2,256,Note_on_c,9,35,7,
2,256,Note_off_c,9,36,0,
2,256,Note_on_c,9,38,3,
2,256,Note_off_c,9,39,0,
2,257,Note_on_c,9,35,7,
2,257,Note_off_c,9,36,0,
2,257,Note_on_c,9,38,3,
2,257,Note_off_c,9,39,0,
2,258,Note_on_c,9,35,7,
2,258,Note_off_c,9,36,0,
2,258,Note_on_c,9,38,3,
2,258,Note_off_c,9,39,0,
2,259,Note_on_c,9,35,7,
2,259,Note_off_c,9,36,0,
2,259,Note_on_c,9,38,3,
2,259,Note_off_c,9,39,0,
2,260,Note_on_c,9,35,7,
2,260,Note_off_c,9,36,0,
2,260,Note_on_c,9,38,3,
2,260,Note_off_c,9,39,0,
2,261,Note_on_c,9,35,7,
2,261,Note_off_c,9,36,0,
2,261,Note_on_c,9,38,3,
2,261,Note_off_c,9,39,0,
2,262,Note_on_c,9,35,7,
2,262,Note_off_c,9,36,0,
2,262,Note_on_c,9,38,3,
2,262,Note_off_c,9,39,0,
2,263,Note_on_c,9,35,7,
2,263,Note_off_c,9,36,0,
2,263,Note_on_c,9,38,3,
2,263,Note_off_c,9,39,0,
2,264,Note_on_c,9,35,7,
2,264,Note_off_c,9,36,0,
2,264,Note_on_c,9,38,3,
2,264,Note_off_c,9,39,0,
2,265,Note_on_c,9,35,7,
2,265,Note_off_c,9,36,0,
2,265,Note_on_c,9,38,3,
2,265,Note_off_c,9,39,0,
2,266,Note_on_c,9,35,7,
2,266,Note_off_c,9,36,0,
2,266,Note_on_c,9,38,3,
2,266,Note_off_c,9,39,0,
2,267,Note_on_c,9,35,7,
2,267,Note_off_c,9,36,0,
2,267,Note_on_c,9,38,3,
2,267,Note_off_c,9,39,0,
2,268,Note_on_c,9,35,7,
2,268,Note_off_c,9,36,0,
2,268,Note_on_c,9,38,3,
2,268,Note_off_c,9,39,0,
2,269,Note_on_c,9,35,7,
2,269,Note_off_c,9,36,0,
2,269,Note_on_c,9,38,3,
2,269,Note_off_c,9,39,0,
2,270,Note_on_c,9,35,7,
2,270,Note_off_c,9,36,0,
2,270,Note_on_c,9,38,3,
2,270,Note_off_c,9,39,0,
2,271,Note_on_c,9,35,7,
2,271,Note_off_c,9,36,0,
2,271,Note_on_c,9,38,3,
2,271,Note_off_c,9,39,0,
2,272,Note_on_c,9,35,7,
2,272,Note_off_c,9,36,0,
2,272,Note_on_c,9,38,3,
2,272,Note_off_c,9,39,0,
2,273,Note_on_c,9,35,7,
2,273,Note_off_c,9,36,0,
2,273,Note_on_c,9,38,3,
2,273,Note_off_c,9,39,0,
2,274,Note_on_c,9,35,7,
2,274,Note_off_c,9,36,0,
2,274,Note_on_c,9,38,3,
2,274,Note_off_c,9,39,0,
2,275,Note_on_c,9,35,7,
2,275,Note_off_c,9,36,0,
2,275,Note_on_c,9,38,3,
2,275,Note_off_c,9,39,0,
2,276,Note_on_c,9,35,7,
2,276,Note_off_c,9,36,0,
2,276,Note_on_c,9,38,3,
2,276,Note_off_c,9,39,0,
2,277,Note_on_c,9,35,7,
2,277,Note_off_c,9,36,0,
2,277,Note_on_c,9,38,3,
2,277,Note_off_c,9,39,0,
2,278,Note_on_c,9,35,7,
2,278,Note_off_c,9,36,0,
2,278,Note_on_c,9,38,3,
2,278,Note_off_c,9,39,0,
2,279,Note_on_c,9,35,7,
2,279,Note_off_c,9,36,0,
2,279,Note_on_c,9,38,3,
2,279,Note_off_c,9,39,0,
2,280,Note_on_c,9,35,7,
2,280,Note_off_c,9,36,0,
2,280,Note_on_c,9,38,3,
2,280,Note_off_c,9,39,0,
2,281,Note_on_c,9,35,7,
2,281,Note_off_c,9,36,0,
2,281,Note_on_c,9,38,3,
2,281,Note_off_c,9,39,0,
2,282,Note_on_c,9,35,7,
2,282,Note_off_c,9,36,0,
2,282,Note_on_c,9,38,3,
2,282,Note_off_c,9,39,0,
2,283,Note_on_c,9,35,7,
2,283,Note_off_c,9,36,0,
2,283,Note_on_c,9,38,3,
2,283,Note_off_c,9,39,0,
2,284,Note_on_c,9,35,7,
2,284,Note_off_c,9,36,0,
2,284,Note_on_c,9,38,3,
2,284,Note_off_c,9,39,0,
2,285,Note_on_c,9,35,7,
2,285,Note_off_c,9,36,0,
2,285,Note_on_c,9,38,3,
2,285,Note_off_c,9,39,0,
2,286,Note_on_c,9,35,7,
2,286,Note_off_c,9,36,0,
2,286,Note_on_c,9,38,3,
2,286,Note_off_c,9,39,0,
2,287,Note_on_c,9,35,7,
2,287,Note_off_c,9,36,0,
2,287,Note_on_c,9,38,3,
2,287,Note_off_c,9,39,0,
2,288,Note_on_c,9,35,7,
2,288,Note_off_c,9,36,0,
2,288,Note_on_c,9,38,3,
2,288,Note_off_c,9,39,0,
2,289,Note_on_c,9,35,7,
2,289,Note_off_c,9,36,0,
2,289,Note_on_c,9,38,3,
2,289,Note_off_c,9,39,0,
2,290,Note_on_c,9,35,7,
2,290,Note_off_c,9,36,0,
2,290,Note_on_c,9,38,3,
2,290,Note_off_c,9,39,0,
2,291,Note_on_c,9,35,7,
2,291,Note_off_c,9,36,0,
2,291,Note_on_c,9,38,3,
2,291,Note_off_c,9,39,0,
2,292,Note_on_c,9,35,7,
2,292,Note_off_c,9,36,0,
2,292,Note_on_c,9,38,3,
2,292,Note_off_c,9,39,0,
2,293,Note_on_c,9,35,7,
2,293,Note_off_c,9,36,0,
2,293,Note_on_c,9,38,3,
2,293,Note_off_c,9,39,0,
2,294,Note_on_c,9,35,7,
2,294,Note_off_c,9,36,0,
2,294,Note_on_c,9,38,3,
2,294,Note_off_c,9,39,0,
2,295,Note_on_c,9,35,7,
2,295,Note_off_c,9,36,0,
2,295,Note_on_c,9,38,3,
2,295,Note_off_c,9,39,0,
2,296,Note_on_c,9,35,7,
2,296,Note_off_c,9,36,0,
2,296,Note_on_c,9,38,3,
2,296,Note_off_c,9,39,0,
2,297,Note_on_c,9,35,7,
2,297,Note_off_c,9,36,0,
2,297,Note_on_c,9,38,3,
2,297,Note_off_c,9,39,0,
2,298,Note_on_c,9,35,7,
2,298,Note_off_c,9,36,0,
2,298,Note_on_c,9,38,3,
2,298,Note_off_c,9,39,0,
2,299,Note_on_c,9,35,7,
2,299,Note_off_c,9,36,0,
2,299,Note_on_c,9,38,3,
2,299,Note_off_c,9,39,0,
2,300,Note_on_c,9,35,7,
2,300,Note_off_c,9,36,0,
2,300,Note_on_c,9,38,3,
2,300,Note_off_c,9,39,0,
2,301,Note_on_c,9,35,7,
2,301,Note_off_c,9,36,0,
2,301,Note_on_c,9,38,3,
2,301,Note_off_c,9,39,0,
2,302,Note_on_c,9,35,7,
2,302,Note_off_c,9,36,0,
2,302,Note_on_c,9,38,3,
2,302,Note_off_c,9,39,0,
2,303,Note_on_c,9,35,7,
2,303,Note_off_c,9,36,0,
2,303,Note_on_c,9,38,3,
2,303,Note_off_c,9,39,0,
2,304,Note_on_c,9,35,7,
2,304,Note_off_c,9,36,0,
2,304,Note_on_c,9,38,3,
2,304,Note_off_c,9,39,0,
2,305,Note_on_c,9,35,7,
2,305,Note_off_c,9,36,0,
2,305,Note_on_c,9,38,3,
2,305,Note_off_c,9,39,0,
2,306,Note_on_c,9,35,7,
2,306,Note_off_c,9,36,0,
2,306,Note_on_c,9,38,3,
2,306,Note_off_c,9,39,0,
2,307,Note_on_c,9,35,7,
2,307,Note_off_c,9,36,0,
2,307,Note_on_c,9,38,3,
2,307,Note_off_c,9,39,0,
2,308,Note_on_c,9,35,7,
2,308,Note_off_c,9,36,0,
2,308,Note_on_c,9,38,3,
2,308,Note_off_c,9,39,0,
2,309,Note_on_c,9,35,7,
2,309,Note_off_c,9,36,0,
2,309,Note_on_c,9,38,3,
2,309,Note_off_c,9,39,0,
2,310,Note_on_c,9,35,7,
2,310,Note_off_c,9,36,0,
2,310,Note_on_c,9,38,3,
2,310,Note_off_c,9,39,0,
2,311,Note_on_c,9,35,7,
2,311,Note_off_c,9,36,0,
2,311,Note_on_c,9,38,3,
2,311,Note_off_c,9,39,0,
2,312,Note_on_c,9,35,7,
2,312,Note_off_c,9,36,0,
2,312,Note_on_c,9,38,3,
2,312,Note_off_c,9,39,0,
2,313,Note_on_c,9,35,7,
2,313,Note_off_c,9,36,0,
2,313,Note_on_c,9,38,3,
2,313,Note_off_c,9,39,0,
2,314,Note_on_c,9,35,7,
2,314,Note_off_c,9,36,0,
2,314,Note_on_c,9,38,3,
2,314,Note_off_c,9,39,0,
2,315,Note_on_c,9,35,7,
2,315,Note_off_c,9,36,0,
2,315,Note_on_c,9,38,3,
2,315,Note_off_c,9,39,0,
2,316,Note_on_c,9,35,7,
2,316,Note_off_c,9,36,0,
2,316,Note_on_c,9,38,3,
2,316,Note_off_c,9,39,0,
2,317,Note_on_c,9,35,7,
2,317,Note_off_c,9,36,0,
2,317,Note_on_c,9,38,3,
2,317,Note_off_c,9,39,0,
2,318,Note_on_c,9,35,7,
2,318,Note_off_c,9,36,0,
2,318,Note_on_c,9,38,3,
2,318,Note_off_c,9,39,0,
2,319,Note_on_c,9,35,7,
2,319,Note_off_c,9,36,0,
2,319,Note_on_c,9,38,3,
2,319,Note_off_c,9,39,0,
2,320,Note_on_c,9,35,7,
2,320,Note_off_c,9,36,0,
2,320,Note_on_c,9,38,3,
2,320,Note_off_c,9,39,0,
2,321,Note_on_c,9,35,7,
2,321,Note_off_c,9,36,0,
2,321,Note_on_c,9,38,3,
2,321,Note_off_c,9,39,0,
2,322,Note_on_c,9,35,7,
2,322,Note_off_c,9,36,0,
2,322,Note_on_c,9,38,3,
2,322,Note_off_c,9,39,0,
2,323,Note_on_c,9,35,7,
2,323,Note_off_c,9,36,0,
2,323,Note_on_c,9,38,3,
2,323,Note_off_c,9,39,0,
2,324,Note_on_c,9,35,7,
2,324,Note_off_c,9,36,0,
2,324,Note_on_c,9,38,3,
2,324,Note_off_c,9,39,0,
2,325,Note_on_c,9,35,7,
2,325,Note_off_c,9,36,0,
2,325,Note_on_c,9,38,3,
2,325,Note_off_c,9,39,0,
2,326,Note_on_c,9,35,7,
2,326,Note_off_c,9,36,0,
2,326,Note_on_c,9,38,3,
2,326,Note_off_c,9,39,0,
2,327,Note_on_c,9,35,7,
2,327,Note_off_c,9,36,0,
2,327,Note_on_c,9,38,3,
2,327,Note_off_c,9,39,0,
2,328,Note_on_c,9,35,7,
2,328,Note_off_c,9,36,0,
2,328,Note_on_c,9,38,3,
2,328,Note_off_c,9,39,0,
2,329,Note_on_c,9,35,7,
2,329,Note_off_c,9,36,0,
2,329,Note_on_c,9,38,3,
2,329,Note_off_c,9,39,0,
2,330,Note_on_c,9,35,7,
2,330,Note_off_c,9,36,0,
2,330,Note_on_c,9,38,3,
2,330,Note_off_c,9,39,0,
2,331,Note_on_c,9,35,7,
2,331,Note_off_c,9,36,0,
2,331,Note_on_c,9,38,3,
2,331,Note_off_c,9,39,0,
2,332,Note_on_c,9,35,7,
2,332,Note_off_c,9,36,0,
2,332,Note_on_c,9,38,3,
2,332,Note_off_c,9,39,0,
2,333,Note_on_c,9,35,7,
2,333,Note_off_c,9,36,0,
2,333,Note_on_c,9,38,3,
2,333,Note_off_c,9,39,0,
2,334,Note_on_c,9,35,7,
2,334,Note_off_c,9,36,0,
2,334,Note_on_c,9,38,3,
2,334,Note_off_c,9,39,0,
2,335,Note_on_c,9,35,7,
2,335,Note_off_c,9,36,0,
2,335,Note_on_c,9,38,3,
2,335,Note_off_c,9,39,0,
2,336,Note_on_c,9,35,7,
2,336,Note_off_c,9,36,0,
2,336,Note_on_c,9,38,3,
2,336,Note_off_c,9,39,0,
2,337,Note_on_c,9,35,7,
2,337,Note_off_c,9,36,0,
2,337,Note_on_c,9,38,3,
2,337,Note_off_c,9,39,0,
2,338,Note_on_c,9,35,7,
2,338,Note_off_c,9,36,0,
2,338,Note_on_c,9,38,3,
2,338,Note_off_c,9,39,0,
2,339,Note_on_c,9,35,7,
2,339,Note_off_c,9,36,0,
2,339,Note_on_c,9,38,3,
2,339,Note_off_c,9,39,0,
2,340,Note_on_c,9,35,7,
2,340,Note_off_c,9,36,0,
2,340,Note_on_c,9,38,3,
2,340,Note_off_c,9,39,0,
2,341,Note_on_c,9,35,7,
2,341,Note_off_c,9,36,0,
2,341,Note_on_c,9,38,3,
2,341,Note_off_c,9,39,0,
2,342,Note_on_c,9,35,7,
2,342,Note_off_c,9,36,0,
2,342,Note_on_c,9,38,3,
2,342,Note_off_c,9,39,0,
2,343,Note_on_c,9,35,7,
2,343,Note_off_c,9,36,0,
2,343,Note_on_c,9,38,3,
2,343,Note_off_c,9,39,0,
2,344,Note_on_c,9,35,7,
2,344,Note_off_c,9,36,0,
2,344,Note_on_c,9,38,3,
2,344,Note_off_c,9,39,0,
2,345,Note_on_c,9,35,7,
2,345,Note_off_c,9,36,0,
2,345,Note_on_c,9,38,3,
2,345,Note_off_c,9,39,0,
2,346,Note_on_c,9,35,7,
2,346,Note_off_c,9,36,0,
2,346,Note_on_c,9,38,3,
2,346,Note_off_c,9,39,0,
2,347,Note_on_c,9,35,7,
2,347,Note_off_c,9,36,0,
2,347,Note_on_c,9,38,3,
2,347,Note_off_c,9,39,0,
2,348,Note_on_c,9,35,7,
2,348,Note_off_c,9,36,0,
2,348,Note_on_c,9,38,3,
2,348,Note_off_c,9,39,0,
2,349,Note_on_c,9,35,7,
2,349,Note_off_c,9,36,0,
2,349,Note_on_c,9,38,3,
2,349,Note_off_c,9,39,0,
2,350,Note_on_c,9,35,7,
2,350,Note_off_c,9,36,0,
2,350,Note_on_c,9,38,3,
2,350,Note_off_c,9,39,0,
2,351,Note_on_c,9,35,7,
2,351,Note_off_c,9,36,0,
2,351,Note_on_c,9,38,3,
2,351,Note_off_c,9,39,0,
2,352,Note_on_c,9,35,7,
2,352,Note_off_c,9,36,0,
2,352,Note_on_c,9,38,3,
2,352,Note_off_c,9,39,0,
2,353,Note_on_c,9,35,7,
2,353,Note_off_c,9,36,0,
2,353,Note_on_c,9,38,3,
2,353,Note_off_c,9,39,0,
2,354,Note_on_c,9,35,7,
2,354,Note_off_c,9,36,0,
2,354,Note_on_c,9,38,3,
2,354,Note_off_c,9,39,0,
2,355,Note_on_c,9,35,7,
2,355,Note_off_c,9,36,0,
2,355,Note_on_c,9,38,3,
2,355,Note_off_c,9,39,0,
2,356,Note_on_c,9,35,7,
2,356,Note_off_c,9,36,0,
2,356,Note_on_c,9,38,3,
2,356,Note_off_c,9,39,0,
2,357,Note_on_c,9,35,7,
2,357,Note_off_c,9,36,0,
2,357,Note_on_c,9,38,3,
2,357,Note_off_c,9,39,0,
2,358,Note_on_c,9,35,7,
2,358,Note_off_c,9,36,0,
2,358,Note_on_c,9,38,3,
2,358,Note_off_c,9,39,0,
2,359,Note_on_c,9,35,7,
2,359,Note_off_c,9,36,0,
2,359,Note_on_c,9,38,3,
2,359,Note_off_c,9,39,0,
2,360,Note_on_c,9,35,7,
2,360,Note_off_c,9,36,0,
2,360,Note_on_c,9,38,3,
2,360,Note_off_c,9,39,0,
2,361,Note_on_c,9,35,7,
2,361,Note_off_c,9,36,0,
2,361,Note_on_c,9,38,3,
2,361,Note_off_c,9,39,0,
2,362,Note_on_c,9,35,7,
2,362,Note_off_c,9,36,0,
2,362,Note_on_c,9,38,3,
2,362,Note_off_c,9,39,0,
2,363,Note_on_c,9,35,7,
2,363,Note_off_c,9,36,0,
2,363,Note_on_c,9,38,3,
2,363,Note_off_c,9,39,0,
2,364,Note_on_c,9,35,7,
2,364,Note_off_c,9,36,0,
2,364,Note_on_c,9,38,3,
2,364,Note_off_c,9,39,0,
2,365,Note_on_c,9,35,7,
2,365,Note_off_c,9,36,0,
2,365,Note_on_c,9,38,3,
2,365,Note_off_c,9,39,0,
2,366,Note_on_c,9,35,7,
2,366,Note_off_c,9,36,0,
2,366,Note_on_c,9,38,3,
2,366,Note_off_c,9,39,0,
2,367,Note_on_c,9,35,7,
2,367,Note_off_c,9,36,0,
2,367,Note_on_c,9,38,3,
2,367,Note_off_c,9,39,0,
2,368,Note_on_c,9,35,7,
2,368,Note_off_c,9,36,0,
2,368,Note_on_c,9,38,3,
2,368,Note_off_c,9,39,0,
2,369,Note_on_c,9,35,7,
2,369,Note_off_c,9,36,0,
2,369,Note_on_c,9,38,3,
2,369,Note_off_c,9,39,0,
2,370,Note_on_c,9,35,7,
2,370,Note_off_c,9,36,0,
2,370,Note_on_c,9,38,3,
2,370,Note_off_c,9,39,0,
2,371,Note_on_c,9,35,7,
2,371,Note_off_c,9,36,0,
2,371,Note_on_c,9,38,3,
2,371,Note_off_c,9,39,0,
2,372,Note_on_c,9,35,7,
2,372,Note_off_c,9,36,0,
2,372,Note_on_c,9,38,3,
2,372,Note_off_c,9,39,0,
2,373,Note_on_c,9,35,7,
2,373,Note_off_c,9,36,0,
2,373,Note_on_c,9,38,3,
2,373,Note_off_c,9,39,0,
2,374,Note_on_c,9,35,7,
2,374,Note_off_c,9,36,0,
2,374,Note_on_c,9,38,3,
2,374,Note_off_c,9,39,0,
2,375,Note_on_c,9,35,7,
2,375,Note_off_c,9,36,0,
2,375,Note_on_c,9,38,3,
2,375,Note_off_c,9,39,0,
2,376,Note_on_c,9,35,7,
2,376,Note_off_c,9,36,0,
2,376,Note_on_c,9,38,3,
2,376,Note_off_c,9,39,0,
2,377,Note_on_c,9,35,7,
2,377,Note_off_c,9,36,0,
2,377,Note_on_c,9,38,3,
2,377,Note_off_c,9,39,0,
2,378,Note_on_c,9,35,7,
2,378,Note_off_c,9,36,0,
2,378,Note_on_c,9,38,3,
2,378,Note_off_c,9,39,0,
2,379,Note_on_c,9,35,7,
2,379,Note_off_c,9,36,0,
2,379,Note_on_c,9,38,3,
2,379,Note_off_c,9,39,0,
2,380,Note_on_c,9,35,7,
2,380,Note_off_c,9,36,0,
2,380,Note_on_c,9,38,3,
2,380,Note_off_c,9,39,0,
2,381,Note_on_c,9,35,7,
2,381,Note_off_c,9,36,0,
2,381,Note_on_c,9,38,3,
2,381,Note_off_c,9,39,0,
2,382,Note_on_c,9,35,7,
2,382,Note_off_c,9,36,0,
2,382,Note_on_c,9,38,3,
2,382,Note_off_c,9,39,0,
2,383,Note_on_c,9,35,7,
2,383,Note_off_c,9,36,0,
2,383,Note_on_c,9,38,3,
2,383,Note_off_c,9,39,0,
2,384,Note_on_c,9,35,7,
2,384,Note_off_c,9,36,0,
2,384,Note_on_c,9,38,3,
2,384,Note_off_c,9,39,0,
2,385,Note_on_c,9,35,7,
2,385,Note_off_c,9,36,0,
2,385,Note_on_c,9,38,3,
2,385,Note_off_c,9,39,0,
2,386,Note_on_c,9,35,7,
2,386,Note_off_c,9,36,0,
2,386,Note_on_c,9,38,3,
2,386,Note_off_c,9,39,0,
2,387,Note_on_c,9,35,7,
2,387,Note_off_c,9,36,0,
2,387,Note_on_c,9,38,3,
2,387,Note_off_c,9,39,0,
2,388,Note_on_c,9,35,7,
2,388,Note_off_c,9,36,0,
2,388,Note_on_c,9,38,3,
2,388,Note_off_c,9,39,0,
2,389,Note_on_c,9,35,7,
2,389,Note_off_c,9,36,0,
2,389,Note_on_c,9,38,3,
2,389,Note_off_c,9,39,0,
2,390,Note_on_c,9,35,7,
2,390,Note_off_c,9,36,0,
2,390,Note_on_c,9,38,3,
2,390,Note_off_c,9,39,0,
2,391,Note_on_c,9,35,7,
2,391,Note_off_c,9,36,0,
2,391,Note_on_c,9,38,3,
2,391,Note_off_c,9,39,0,
2,392,Note_on_c,9,35,7,
2,392,Note_off_c,9,36,0,
2,392,Note_on_c,9,38,3,
2,392,Note_off_c,9,39,0,
2,393,Note_on_c,9,35,7,
2,393,Note_off_c,9,36,0,
2,393,Note_on_c,9,38,3,
2,393,Note_off_c,9,39,0,
2,394,Note_on_c,9,35,7,
2,394,Note_off_c,9,36,0,
2,394,Note_on_c,9,38,3,
2,394,Note_off_c,9,39,0,
2,395,Note_on_c,9,35,7,
2,395,Note_off_c,9,36,0,
2,395,Note_on_c,9,38,3,
2,395,Note_off_c,9,39,0,
2,396,Note_on_c,9,35,7,
2,396,Note_off_c,9,36,0,
2,396,Note_on_c,9,38,3,
2,396,Note_off_c,9,39,0,
2,397,Note_on_c,9,35,7,
2,397,Note_off_c,9,36,0,
2,397,Note_on_c,9,38,3,
2,397,Note_off_c,9,39,0,
2,398,Note_on_c,9,35,7,
2,398,Note_off_c,9,36,0,
2,398,Note_on_c,9,38,3,
2,398,Note_off_c,9,39,0,
2,399,Note_on_c,9,35,7,
2,399,Note_off_c,9,36,0,
2,399,Note_on_c,9,38,3,
2,399,Note_off_c,9,39,0,
2,400,Note_on_c,9,35,7,
2,400,Note_off_c,9,36,0,
2,400,Note_on_c,9,38,3,
2,400,Note_off_c,9,39,0,
2,401,Note_on_c,9,35,7,
2,401,Note_off_c,9,36,0,
2,401,Note_on_c,9,38,3,
2,401,Note_off_c,9,39,0,
2,402,Note_on_c,9,35,7,
2,402,Note_off_c,9,36,0,
2,402,Note_on_c,9,38,3,
2,402,Note_off_c,9,39,0,
2,403,Note_on_c,9,35,7,
2,403,Note_off_c,9,36,0,
2,403,Note_on_c,9,38,3,
2,403,Note_off_c,9,39,0,
2,404,Note_on_c,9,35,7,
2,404,Note_off_c,9,36,0,
2,404,Note_on_c,9,38,3,
2,404,Note_off_c,9,39,0,
2,405,Note_on_c,9,35,7,
2,405,Note_off_c,9,36,0,
2,405,Note_on_c,9,38,3,
2,405,Note_off_c,9,39,0,
2,406,Note_on_c,9,35,7,
2,406,Note_off_c,9,36,0,
2,406,Note_on_c,9,38,3,
2,406,Note_off_c,9,39,0,
2,407,Note_on_c,9,35,7,
2,407,Note_off_c,9,36,0,
2,407,Note_on_c,9,38,3,
2,407,Note_off_c,9,39,0,
2,408,Note_on_c,9,35,7,
2,408,Note_off_c,9,36,0,
2,408,Note_on_c,9,38,3,
2,408,Note_off_c,9,39,0,
2,409,Note_on_c,9,35,7,
2,409,Note_off_c,9,36,0,
2,409,Note_on_c,9,38,3,
2,409,Note_off_c,9,39,0,
2,410,Note_on_c,9,35,7,
2,410,Note_off_c,9,36,0,
2,410,Note_on_c,9,38,3,
2,410,Note_off_c,9,39,0,
2,411,Note_on_c,9,35,7,
2,411,Note_off_c,9,36,0,
2,411,Note_on_c,9,38,3,
2,411,Note_off_c,9,39,0,
2,412,Note_on_c,9,35,7,
2,412,Note_off_c,9,36,0,
2,412,Note_on_c,9,38,3,
2,412,Note_off_c,9,39,0,
2,413,Note_on_c,9,35,7,
2,413,Note_off_c,9,36,0,
2,413,Note_on_c,9,38,3,
2,413,Note_off_c,9,39,0,
2,414,Note_on_c,9,35,7,
2,414,Note_off_c,9,36,0,
2,414,Note_on_c,9,38,3,
2,414,Note_off_c,9,39,0,
2,415,Note_on_c,9,35,7,
2,415,Note_off_c,9,36,0,
2,415,Note_on_c,9,38,3,
2,415,Note_off_c,9,39,0,
2,416,Note_on_c,9,35,7,
2,416,Note_off_c,9,36,0,
2,416,Note_on_c,9,38,3,
2,416,Note_off_c,9,39,0,
2,417,Note_on_c,9,35,7,
2,417,Note_off_c,9,36,0,
2,417,Note_on_c,9,38,3,
2,417,Note_off_c,9,39,0,
2,418,Note_on_c,9,35,7,
2,418,Note_off_c,9,36,0,
2,418,Note_on_c,9,38,3,
2,418,Note_off_c,9,39,0,
2,419,Note_on_c,9,35,7,
2,419,Note_off_c,9,36,0,
2,419,Note_on_c,9,38,3,
2,419,Note_off_c,9,39,0,
2,420,Note_on_c,9,35,7,
2,420,Note_off_c,9,36,0,
2,420,Note_on_c,9,38,3,
2,420,Note_off_c,9,39,0,
2,421,Note_on_c,9,35,7,
2,421,Note_off_c,9,36,0,
2,421,Note_on_c,9,38,3,
2,421,Note_off_c,9,39,0,
2,422,Note_on_c,9,35,7,
2,422,Note_off_c,9,36,0,
2,422,Note_on_c,9,38,3,
2,422,Note_off_c,9,39,0,
2,423,Note_on_c,9,35,7,
2,423,Note_off_c,9,36,0,
2,423,Note_on_c,9,38,3,
2,423,Note_off_c,9,39,0,
2,424,Note_on_c,9,35,7,
2,424,Note_off_c,9,36,0,
2,424,Note_on_c,9,38,3,
2,424,Note_off_c,9,39,0,
2,425,Note_on_c,9,35,7,
2,425,Note_off_c,9,36,0,
2,425,Note_on_c,9,38,3,
2,425,Note_off_c,9,39,0,
2,426,Note_on_c,9,35,7,
2,426,Note_off_c,9,36,0,
2,426,Note_on_c,9,38,3,
2,426,Note_off_c,9,39,0,
2,427,Note_on_c,9,35,7,
2,427,Note_off_c,9,36,0,
2,427,Note_on_c,9,38,3,
2,427,Note_off_c,9,39,0,
2,428,Note_on_c,9,35,7,
2,428,Note_off_c,9,36,0,
2,428,Note_on_c,9,38,3,
2,428,Note_off_c,9,39,0,
2,429,Note_on_c,9,35,7,
2,429,Note_off_c,9,36,0,
2,429,Note_on_c,9,38,3,
2,429,Note_off_c,9,39,0,
2,430,Note_on_c,9,35,7,
2,430,Note_off_c,9,36,0,
2,430,Note_on_c,9,38,3,
2,430,Note_off_c,9,39,0,
2,431,Note_on_c,9,35,7,
2,431,Note_off_c,9,36,0,
2,431,Note_on_c,9,38,3,
2,431,Note_off_c,9,39,0,
2,432,Note_on_c,9,35,7,
2,432,Note_off_c,9,36,0,
2,432,Note_on_c,9,38,3,
2,432,Note_off_c,9,39,0,
2,433,Note_on_c,9,35,7,
2,433,Note_off_c,9,36,0,
2,433,Note_on_c,9,38,3,
2,433,Note_off_c,9,39,0,
2,434,Note_on_c,9,35,7,
2,434,Note_off_c,9,36,0,
2,434,Note_on_c,9,38,3,
2,434,Note_off_c,9,39,0,
2,435,Note_on_c,9,35,7,
2,435,Note_off_c,9,36,0,
2,435,Note_on_c,9,38,3,
2,435,Note_off_c,9,39,0,
2,436,Note_on_c,9,35,7,
2,436,Note_off_c,9,36,0,
2,436,Note_on_c,9,38,3,
2,436,Note_off_c,9,39,0,
2,437,Note_on_c,9,35,7,
2,437,Note_off_c,9,36,0,
2,437,Note_on_c,9,38,3,
2,437,Note_off_c,9,39,0,
2,438,Note_on_c,9,35,7,
2,438,Note_off_c,9,36,0,
2,438,Note_on_c,9,38,3,
2,438,Note_off_c,9,39,0,
2,439,Note_on_c,9,35,7,
2,439,Note_off_c,9,36,0,
2,439,Note_on_c,9,38,3,
2,439,Note_off_c,9,39,0,
2,440,Note_on_c,9,35,7,
2,440,Note_off_c,9,36,0,
2,440,Note_on_c,9,38,3,
2,440,Note_off_c,9,39,0,
2,441,Note_on_c,9,35,7,
2,441,Note_off_c,9,36,0,
2,441,Note_on_c,9,38,3,
2,441,Note_off_c,9,39,0,
2,442,Note_on_c,9,35,7,
2,442,Note_off_c,9,36,0,
2,442,Note_on_c,9,38,3,
2,442,Note_off_c,9,39,0,
2,443,Note_on_c,9,35,7,
2,443,Note_off_c,9,36,0,
2,443,Note_on_c,9,38,3,
2,443,Note_off_c,9,39,0,
2,444,Note_on_c,9,35,7,
2,444,Note_off_c,9,36,0,
2,444,Note_on_c,9,38,3,
2,444,Note_off_c,9,39,0,
2,445,Note_on_c,9,35,7,
2,445,Note_off_c,9,36,0,
2,445,Note_on_c,9,38,3,
2,445,Note_off_c,9,39,0,
2,446,Note_on_c,9,35,7,
2,446,Note_off_c,9,36,0,
2,446,Note_on_c,9,38,3,
2,446,Note_off_c,9,39,0,
2,447,Note_on_c,9,35,7,
2,447,Note_off_c,9,36,0,
2,447,Note_on_c,9,38,3,
2,447,Note_off_c,9,39,0,
2,448,Note_on_c,9,35,7,
2,448,Note_off_c,9,36,0,
2,448,Note_on_c,9,38,3,
2,448,Note_off_c,9,39,0,
2,449,Note_on_c,9,35,7,
2,449,Note_off_c,9,36,0,
2,449,Note_on_c,9,38,3,
2,449,Note_off_c,9,39,0,
2,450,Note_on_c,9,35,7,
2,450,Note_off_c,9,36,0,
2,450,Note_on_c,9,38,3,
2,450,Note_off_c,9,39,0,
2,451,Note_on_c,9,35,7,
2,451,Note_off_c,9,36,0,
2,451,Note_on_c,9,38,3,
2,451,Note_off_c,9,39,0,
2,452,Note_on_c,9,35,7,
2,452,Note_off_c,9,36,0,
2,452,Note_on_c,9,38,3,
2,452,Note_off_c,9,39,0,
2,453,Note_on_c,9,35,7,
2,453,Note_off_c,9,36,0,
2,453,Note_on_c,9,38,3,
2,453,Note_off_c,9,39,0,
2,454,Note_on_c,9,35,7,
2,454,Note_off_c,9,36,0,
2,454,Note_on_c,9,38,3,
2,454,Note_off_c,9,39,0,
2,455,Note_on_c,9,35,7,
2,455,Note_off_c,9,36,0,
2,455,Note_on_c,9,38,3,
2,455,Note_off_c,9,39,0,
2,456,Note_on_c,9,35,7,
2,456,Note_off_c,9,36,0,
2,456,Note_on_c,9,38,3,
2,456,Note_off_c,9,39,0,
2,457,Note_on_c,9,35,7,
2,457,Note_off_c,9,36,0,
2,457,Note_on_c,9,38,3,
2,457,Note_off_c,9,39,0,
2,458,Note_on_c,9,35,7,
2,458,Note_off_c,9,36,0,
2,458,Note_on_c,9,38,3,
2,458,Note_off_c,9,39,0,
2,459,Note_on_c,9,35,7,
2,459,Note_off_c,9,36,0,
2,459,Note_on_c,9,38,3,
2,459,Note_off_c,9,39,0,
2,460,Note_on_c,9,35,7,
2,460,Note_off_c,9,36,0,
2,460,Note_on_c,9,38,3,
2,460,Note_off_c,9,39,0,
2,461,Note_on_c,9,35,7,
2,461,Note_off_c,9,36,0,
2,461,Note_on_c,9,38,3,
2,461,Note_off_c,9,39,0,
2,462,Note_on_c,9,35,7,
2,462,Note_off_c,9,36,0,
2,462,Note_on_c,9,38,3,
2,462,Note_off_c,9,39,0,
2,463,Note_on_c,9,35,7,
2,463,Note_off_c,9,36,0,
2,463,Note_on_c,9,38,3,
2,463,Note_off_c,9,39,0,
2,464,Note_on_c,9,35,7,
2,464,Note_off_c,9,36,0,
2,464,Note_on_c,9,38,3,
2,464,Note_off_c,9,39,0,
2,465,Note_on_c,9,35,7,
2,465,Note_off_c,9,36,0,
2,465,Note_on_c,9,38,3,
2,465,Note_off_c,9,39,0,
2,466,Note_on_c,9,35,7,
2,466,Note_off_c,9,36,0,
2,466,Note_on_c,9,38,3,
2,466,Note_off_c,9,39,0,
2,467,Note_on_c,9,35,7,
2,467,Note_off_c,9,36,0,
2,467,Note_on_c,9,38,3,
2,467,Note_off_c,9,39,0,
2,468,Note_on_c,9,35,7,
2,468,Note_off_c,9,36,0,
2,468,Note_on_c,9,38,3,
2,468,Note_off_c,9,39,0,
2,469,Note_on_c,9,35,7,
2,469,Note_off_c,9,36,0,
2,469,Note_on_c,9,38,3,
2,469,Note_off_c,9,39,0,
2,470,Note_on_c,9,35,7,
2,470,Note_off_c,9,36,0,
2,470,Note_on_c,9,38,3,
2,470,Note_off_c,9,39,0,
2,471,Note_on_c,9,35,7,
2,471,Note_off_c,9,36,0,
2,471,Note_on_c,9,38,3,
2,471,Note_off_c,9,39,0,
2,472,Note_on_c,9,35,7,
2,472,Note_off_c,9,36,0,
2,472,Note_on_c,9,38,3,
2,472,Note_off_c,9,39,0,
2,473,Note_on_c,9,35,7,
2,473,Note_off_c,9,36,0,
2,473,Note_on_c,9,38,3,
2,473,Note_off_c,9,39,0,
2,474,Note_on_c,9,35,7,
2,474,Note_off_c,9,36,0,
2,474,Note_on_c,9,38,3,
2,474,Note_off_c,9,39,0,
2,475,Note_on_c,9,35,7,
2,475,Note_off_c,9,36,0,
2,475,Note_on_c,9,38,3,
2,475,Note_off_c,9,39,0,
2,476,Note_on_c,9,35,7,
2,476,Note_off_c,9,36,0,
2,476,Note_on_c,9,38,3,
2,476,Note_off_c,9,39,0,
2,477,Note_on_c,9,35,7,
2,477,Note_off_c,9,36,0,
2,477,Note_on_c,9,38,3,
2,477,Note_off_c,9,39,0,
2,478,Note_on_c,9,35,7,
2,478,Note_off_c,9,36,0,
2,478,Note_on_c,9,38,3,
2,478,Note_off_c,9,39,0,
2,479,Note_on_c,9,35,7,
2,479,Note_off_c,9,36,0,
2,479,Note_on_c,9,38,3,
2,479,Note_off_c,9,39,0,
2,480,Note_on_c,9,35,7,
2,480,Note_off_c,9,36,0,
2,480,Note_on_c,9,38,3,
2,480,Note_off_c,9,39,0,
2,481,Note_on_c,9,35,7,
2,481,Note_off_c,9,36,0,
2,481,Note_on_c,9,38,3,
2,481,Note_off_c,9,39,0,
2,482,Note_on_c,9,35,7,
2,482,Note_off_c,9,36,0,
2,482,Note_on_c,9,38,3,
2,482,Note_off_c,9,39,0,
2,483,Note_on_c,9,35,7,
2,483,Note_off_c,9,36,0,
2,483,Note_on_c,9,38,3,
2,483,Note_off_c,9,39,0,
2,484,Note_on_c,9,35,7,
2,484,Note_off_c,9,36,0,
2,484,Note_on_c,9,38,3,
2,484,Note_off_c,9,39,0,
2,485,Note_on_c,9,35,7,
2,485,Note_off_c,9,36,0,
2,485,Note_on_c,9,38,3,
2,485,Note_off_c,9,39,0,
2,486,Note_on_c,9,35,7,
2,486,Note_off_c,9,36,0,
2,486,Note_on_c,9,38,3,
2,486,Note_off_c,9,39,0,
2,487,Note_on_c,9,35,7,
2,487,Note_off_c,9,36,0,
2,487,Note_on_c,9,38,3,
2,487,Note_off_c,9,39,0,
2,488,Note_on_c,9,35,7,
2,488,Note_off_c,9,36,0,
2,488,Note_on_c,9,38,3,
2,488,Note_off_c,9,39,0,
2,489,Note_on_c,9,35,7,
2,489,Note_off_c,9,36,0,
2,489,Note_on_c,9,38,3,
2,489,Note_off_c,9,39,0,
2,490,Note_on_c,9,35,7,
2,490,Note_off_c,9,36,0,
2,490,Note_on_c,9,38,3,
2,490,Note_off_c,9,39,0,
2,491,Note_on_c,9,35,7,
2,491,Note_off_c,9,36,0,
2,491,Note_on_c,9,38,3,
2,491,Note_off_c,9,39,0,
2,492,Note_on_c,9,35,7,
2,492,Note_off_c,9,36,0,
2,492,Note_on_c,9,38,3,
2,492,Note_off_c,9,39,0,
2,493,Note_on_c,9,35,7,
2,493,Note_off_c,9,36,0,
2,493,Note_on_c,9,38,3,
2,493,Note_off_c,9,39,0,
2,494,Note_on_c,9,35,7,
2,494,Note_off_c,9,36,0,
2,494,Note_on_c,9,38,3,
2,494,Note_off_c,9,39,0,
2,495,Note_on_c,9,35,7,
2,495,Note_off_c,9,36,0,
2,495,Note_on_c,9,38,3,
2,495,Note_off_c,9,39,0,
2,496,Note_on_c,9,35,7,
2,496,Note_off_c,9,36,0,
2,496,Note_on_c,9,38,3,
2,496,Note_off_c,9,39,0,
2,497,Note_on_c,9,35,7,
2,497,Note_off_c,9,36,0,
2,497,Note_on_c,9,38,3,
2,497,Note_off_c,9,39,0,
2,498,Note_on_c,9,35,7,
2,498,Note_off_c,9,36,0,
2,498,Note_on_c,9,38,3,
2,498,Note_off_c,9,39,0,
2,499,Note_on_c,9,35,7,
2,499,Note_off_c,9,36,0,
2,499,Note_on_c,9,38,3,
2,499,Note_off_c,9,39,0,
2,500,Note_on_c,9,35,7,
2,500,Note_off_c,9,36,0,
2,500,Note_on_c,9,38,3,
2,500,Note_off_c,9,39,0,
2,501,Note_on_c,9,35,7,
2,501,Note_off_c,9,36,0,
2,501,Note_on_c,9,38,3,
2,501,Note_off_c,9,39,0,
2,502,Note_on_c,9,35,7,
2,502,Note_off_c,9,36,0,
2,502,Note_on_c,9,38,3,
2,502,Note_off_c,9,39,0,
2,503,Note_on_c,9,35,7,
2,503,Note_off_c,9,36,0,
2,503,Note_on_c,9,38,3,
2,503,Note_off_c,9,39,0,
2,504,Note_on_c,9,35,7,
2,504,Note_off_c,9,36,0,
2,504,Note_on_c,9,38,3,
2,504,Note_off_c,9,39,0,
2,505,Note_on_c,9,35,7,
2,505,Note_off_c,9,36,0,
2,505,Note_on_c,9,38,3,
2,505,Note_off_c,9,39,0,
2,506,Note_on_c,9,35,7,
2,506,Note_off_c,9,36,0,
2,506,Note_on_c,9,38,3,
2,506,Note_off_c,9,39,0,
2,507,Note_on_c,9,35,7,
2,507,Note_off_c,9,36,0,
2,507,Note_on_c,9,38,3,
2,507,Note_off_c,9,39,0,
2,508,Note_on_c,9,35,7,
2,508,Note_off_c,9,36,0,
2,508,Note_on_c,9,38,3,
2,508,Note_off_c,9,39,0,
2,509,Note_on_c,9,35,7,
2,509,Note_off_c,9,36,0,
2,509,Note_on_c,9,38,3,
2,509,Note_off_c,9,39,0,
2,510,Note_on_c,9,35,7,
2,510,Note_off_c,9,36,0,
2,510,Note_on_c,9,38,3,
2,510,Note_off_c,9,39,0,
2,511,Note_on_c,9,35,7,
2,511,Note_off_c,9,36,0,
2,511,Note_on_c,9,38,3,
2,511,Note_off_c,9,39,0,
2,512,Note_on_c,9,35,7,
2,512,Note_off_c,9,36,0,
2,512,Note_on_c,9,38,3,
2,512,Note_off_c,9,39,0,
2,513,Note_on_c,9,35,7,
2,513,Note_off_c,9,36,0,
2,513,Note_on_c,9,38,3,
2,513,Note_off_c,9,39,0,
2,514,Note_on_c,9,35,7,
2,514,Note_off_c,9,36,0,
2,514,Note_on_c,9,38,3,
2,514,Note_off_c,9,39,0,
2,515,Note_on_c,9,35,7,
2,515,Note_off_c,9,36,0,
2,515,Note_on_c,9,38,3,
2,515,Note_off_c,9,39,0,
2,516,Note_on_c,9,35,7,
2,516,Note_off_c,9,36,0,
2,516,Note_on_c,9,38,3,
2,516,Note_off_c,9,39,0,
2,517,Note_on_c,9,35,7,
2,517,Note_off_c,9,36,0,
2,517,Note_on_c,9,38,3,
2,517,Note_off_c,9,39,0,
2,518,Note_on_c,9,35,7,
2,518,Note_off_c,9,36,0,
2,518,Note_on_c,9,38,3,
2,518,Note_off_c,9,39,0,
2,519,Note_on_c,9,35,7,
2,519,Note_off_c,9,36,0,
2,519,Note_on_c,9,38,3,
2,519,Note_off_c,9,39,0,
2,520,Note_on_c,9,35,7,
2,520,Note_off_c,9,36,0,
2,520,Note_on_c,9,38,3,
2,520,Note_off_c,9,39,0,
2,521,Note_on_c,9,35,7,
2,521,Note_off_c,9,36,0,
2,521,Note_on_c,9,38,3,
2,521,Note_off_c,9,39,0,
2,522,Note_on_c,9,35,7,
2,522,Note_off_c,9,36,0,
2,522,Note_on_c,9,38,3,
2,522,Note_off_c,9,39,0,
2,523,Note_on_c,9,35,7,
2,523,Note_off_c,9,36,0,
2,523,Note_on_c,9,38,3,
2,523,Note_off_c,9,39,0,
2,524,Note_on_c,9,35,7,
2,524,Note_off_c,9,36,0,
2,524,Note_on_c,9,38,3,
2,524,Note_off_c,9,39,0,
2,525,Note_on_c,9,35,7,
2,525,Note_off_c,9,36,0,
2,525,Note_on_c,9,38,3,
2,525,Note_off_c,9,39,0,
2,526,Note_on_c,9,35,7,
2,526,Note_off_c,9,36,0,
2,526,Note_on_c,9,38,3,
2,526,Note_off_c,9,39,0,
2,527,Note_on_c,9,35,7,
2,527,Note_off_c,9,36,0,
2,527,Note_on_c,9,38,3,
2,527,Note_off_c,9,39,0,
2,528,Note_on_c,9,35,7,
2,528,Note_off_c,9,36,0,
2,528,Note_on_c,9,38,3,
2,528,Note_off_c,9,39,0,
2,529,Note_on_c,9,35,7,
2,529,Note_off_c,9,36,0,
2,529,Note_on_c,9,38,3,
2,529,Note_off_c,9,39,0,
2,530,Note_on_c,9,35,7,
2,530,Note_off_c,9,36,0,
2,530,Note_on_c,9,38,3,
2,530,Note_off_c,9,39,0,
2,531,Note_on_c,9,35,7,
2,531,Note_off_c,9,36,0,
2,531,Note_on_c,9,38,3,
2,531,Note_off_c,9,39,0,
2,532,Note_on_c,9,35,7,
2,532,Note_off_c,9,36,0,
2,532,Note_on_c,9,38,3,
2,532,Note_off_c,9,39,0,
2,533,Note_on_c,9,35,7,
2,533,Note_off_c,9,36,0,
2,533,Note_on_c,9,38,3,
2,533,Note_off_c,9,39,0,
2,534,Note_on_c,9,35,7,
2,534,Note_off_c,9,36,0,
2,534,Note_on_c,9,38,3,
2,534,Note_off_c,9,39,0,
2,535,Note_on_c,9,35,7,
2,535,Note_off_c,9,36,0,
2,535,Note_on_c,9,38,3,
2,535,Note_off_c,9,39,0,
2,536,Note_on_c,9,35,7,
2,536,Note_off_c,9,36,0,
2,536,Note_on_c,9,38,3,
2,536,Note_off_c,9,39,0,
2,537,Note_on_c,9,35,7,
2,537,Note_off_c,9,36,0,
2,537,Note_on_c,9,38,3,
2,537,Note_off_c,9,39,0,
2,538,Note_on_c,9,35,7,
2,538,Note_off_c,9,36,0,
2,538,Note_on_c,9,38,3,
2,538,Note_off_c,9,39,0,
2,539,Note_on_c,9,35,7,
2,539,Note_off_c,9,36,0,
2,539,Note_on_c,9,38,3,
2,539,Note_off_c,9,39,0,
2,540,Note_on_c,9,35,7,
2,540,Note_off_c,9,36,0,
2,540,Note_on_c,9,38,3,
2,540,Note_off_c,9,39,0,
2,541,Note_on_c,9,35,7,
2,541,Note_off_c,9,36,0,
2,541,Note_on_c,9,38,3,
2,541,Note_off_c,9,39,0,
2,542,Note_on_c,9,35,7,
2,542,Note_off_c,9,36,0,
2,542,Note_on_c,9,38,3,
2,542,Note_off_c,9,39,0,
2,543,Note_on_c,9,35,7,
2,543,Note_off_c,9,36,0,
2,543,Note_on_c,9,38,3,
2,543,Note_off_c,9,39,0,
2,544,Note_on_c,9,35,7,
2,544,Note_off_c,9,36,0,
2,544,Note_on_c,9,38,3,
2,544,Note_off_c,9,39,0,
2,545,Note_on_c,9,35,7,
2,545,Note_off_c,9,36,0,
2,545,Note_on_c,9,38,3,
2,545,Note_off_c,9,39,0,
2,546,Note_on_c,9,35,7,
2,546,Note_off_c,9,36,0,
2,546,Note_on_c,9,38,3,
2,546,Note_off_c,9,39,0,
2,547,Note_on_c,9,35,7,
2,547,Note_off_c,9,36,0,
2,547,Note_on_c,9,38,3,
2,547,Note_off_c,9,39,0,
2,548,Note_on_c,9,35,7,
2,548,Note_off_c,9,36,0,
2,548,Note_on_c,9,38,3,
2,548,Note_off_c,9,39,0,
2,549,Note_on_c,9,35,7,
2,549,Note_off_c,9,36,0,
2,549,Note_on_c,9,38,3,
2,549,Note_off_c,9,39,0,
2,550,Note_on_c,9,35,7,
2,550,Note_off_c,9,36,0,
2,550,Note_on_c,9,38,3,
2,550,Note_off_c,9,39,0,
2,551,Note_on_c,9,35,7,
2,551,Note_off_c,9,36,0,
2,551,Note_on_c,9,38,3,
2,551,Note_off_c,9,39,0,
2,552,Note_on_c,9,35,7,
2,552,Note_off_c,9,36,0,
2,552,Note_on_c,9,38,3,
2,552,Note_off_c,9,39,0,
2,553,Note_on_c,9,35,7,
2,553,Note_off_c,9,36,0,
2,553,Note_on_c,9,38,3,
2,553,Note_off_c,9,39,0,
2,554,Note_on_c,9,35,7,
2,554,Note_off_c,9,36,0,
2,554,Note_on_c,9,38,3,
2,554,Note_off_c,9,39,0,
2,555,Note_on_c,9,35,7,
2,555,Note_off_c,9,36,0,
2,555,Note_on_c,9,38,3,
2,555,Note_off_c,9,39,0,
2,556,Note_on_c,9,35,7,
2,556,Note_off_c,9,36,0,
2,556,Note_on_c,9,38,3,
2,556,Note_off_c,9,39,0,
2,557,Note_on_c,9,35,7,
2,557,Note_off_c,9,36,0,
2,557,Note_on_c,9,38,3,
2,557,Note_off_c,9,39,0,
2,558,Note_on_c,9,35,7,
2,558,Note_off_c,9,36,0,
2,558,Note_on_c,9,38,3,
2,558,Note_off_c,9,39,0,
2,559,Note_on_c,9,35,7,
2,559,Note_off_c,9,36,0,
2,559,Note_on_c,9,38,3,
2,559,Note_off_c,9,39,0,
2,560,Note_on_c,9,35,7,
2,560,Note_off_c,9,36,0,
2,560,Note_on_c,9,38,3,
2,560,Note_off_c,9,39,0,
2,561,Note_on_c,9,35,7,
2,561,Note_off_c,9,36,0,
2,561,Note_on_c,9,38,3,
2,561,Note_off_c,9,39,0,
2,562,Note_on_c,9,35,7,
2,562,Note_off_c,9,36,0,
2,562,Note_on_c,9,38,3,
2,562,Note_off_c,9,39,0,
2,563,Note_on_c,9,35,7,
2,563,Note_off_c,9,36,0,
2,563,Note_on_c,9,38,3,
2,563,Note_off_c,9,39,0,
2,564,Note_on_c,9,35,7,
2,564,Note_off_c,9,36,0,
2,564,Note_on_c,9,38,3,
2,564,Note_off_c,9,39,0,
2,565,Note_on_c,9,35,7,
2,565,Note_off_c,9,36,0,
2,565,Note_on_c,9,38,3,
2,565,Note_off_c,9,39,0,
2,566,Note_on_c,9,35,7,
2,566,Note_off_c,9,36,0,
2,566,Note_on_c,9,38,3,
2,566,Note_off_c,9,39,0,
2,567,Note_on_c,9,35,7,
2,567,Note_off_c,9,36,0,
2,567,Note_on_c,9,38,3,
2,567,Note_off_c,9,39,0,
2,568,Note_on_c,9,35,7,
2,568,Note_off_c,9,36,0,
2,568,Note_on_c,9,38,3,
2,568,Note_off_c,9,39,0,
2,569,Note_on_c,9,35,7,
2,569,Note_off_c,9,36,0,
2,569,Note_on_c,9,38,3,
2,569,Note_off_c,9,39,0,
2,570,Note_on_c,9,35,7,
2,570,Note_off_c,9,36,0,
2,570,Note_on_c,9,38,3,
2,570,Note_off_c,9,39,0,
2,571,Note_on_c,9,35,7,
2,571,Note_off_c,9,36,0,
2,571,Note_on_c,9,38,3,
2,571,Note_off_c,9,39,0,
2,572,Note_on_c,9,35,7,
2,572,Note_off_c,9,36,0,
2,572,Note_on_c,9,38,3,
2,572,Note_off_c,9,39,0,
2,573,Note_on_c,9,35,7,
2,573,Note_off_c,9,36,0,
2,573,Note_on_c,9,38,3,
2,573,Note_off_c,9,39,0,
2,574,Note_on_c,9,35,7,
2,574,Note_off_c,9,36,0,
2,574,Note_on_c,9,38,3,
2,574,Note_off_c,9,39,0,
2,575,Note_on_c,9,35,7,
2,575,Note_off_c,9,36,0,
2,575,Note_on_c,9,38,3,
2,575,Note_off_c,9,39,0,
2,576,Note_on_c,9,35,7,
2,576,Note_off_c,9,36,0,
2,576,Note_on_c,9,38,3,
2,576,Note_off_c,9,39,0,
2,577,Note_on_c,9,35,7,
2,577,Note_off_c,9,36,0,
2,577,Note_on_c,9,38,3,
2,577,Note_off_c,9,39,0,
2,578,Note_on_c,9,35,7,
2,578,Note_off_c,9,36,0,
2,578,Note_on_c,9,38,3,
2,578,Note_off_c,9,39,0,
2,579,Note_on_c,9,35,7,
2,579,Note_off_c,9,36,0,
2,579,Note_on_c,9,38,3,
2,579,Note_off_c,9,39,0,
2,580,Note_on_c,9,35,7,
2,580,Note_off_c,9,36,0,
2,580,Note_on_c,9,38,3,
2,580,Note_off_c,9,39,0,
2,581,Note_on_c,9,35,7,
2,581,Note_off_c,9,36,0,
2,581,Note_on_c,9,38,3,
2,581,Note_off_c,9,39,0,
2,582,Note_on_c,9,35,7,
2,582,Note_off_c,9,36,0,
2,582,Note_on_c,9,38,3,
2,582,Note_off_c,9,39,0,
2,583,Note_on_c,9,35,7,
2,583,Note_off_c,9,36,0,
2,583,Note_on_c,9,38,3,
2,583,Note_off_c,9,39,0,
2,584,Note_on_c,9,35,7,
2,584,Note_off_c,9,36,0,
2,584,Note_on_c,9,38,3,
2,584,Note_off_c,9,39,0,
2,585,Note_on_c,9,35,7,
2,585,Note_off_c,9,36,0,
2,585,Note_on_c,9,38,3,
2,585,Note_off_c,9,39,0,
2,586,Note_on_c,9,35,7,
2,586,Note_off_c,9,36,0,
2,586,Note_on_c,9,38,3,
2,586,Note_off_c,9,39,0,
2,587,Note_on_c,9,35,7,
2,587,Note_off_c,9,36,0,
2,587,Note_on_c,9,38,3,
2,587,Note_off_c,9,39,0,
2,588,Note_on_c,9,35,7,
2,588,Note_off_c,9,36,0,
2,588,Note_on_c,9,38,3,
2,588,Note_off_c,9,39,0,
2,589,Note_on_c,9,35,7,
2,589,Note_off_c,9,36,0,
2,589,Note_on_c,9,38,3,
2,589,Note_off_c,9,39,0,
2,590,Note_on_c,9,35,7,
2,590,Note_off_c,9,36,0,
2,590,Note_on_c,9,38,3,
2,590,Note_off_c,9,39,0,
2,591,Note_on_c,9,35,7,
2,591,Note_off_c,9,36,0,
2,591,Note_on_c,9,38,3,
2,591,Note_off_c,9,39,0,
2,592,Note_on_c,9,35,7,
2,592,Note_off_c,9,36,0,
2,592,Note_on_c,9,38,3,
2,592,Note_off_c,9,39,0,
2,593,Note_on_c,9,35,7,
2,593,Note_off_c,9,36,0,
2,593,Note_on_c,9,38,3,
2,593,Note_off_c,9,39,0,
2,594,Note_on_c,9,35,7,
2,594,Note_off_c,9,36,0,
2,594,Note_on_c,9,38,3,
2,594,Note_off_c,9,39,0,
2,595,Note_on_c,9,35,7,
2,595,Note_off_c,9,36,0,
2,595,Note_on_c,9,38,3,
2,595,Note_off_c,9,39,0,
2,596,Note_on_c,9,35,7,
2,596,Note_off_c,9,36,0,
2,596,Note_on_c,9,38,3,
2,596,Note_off_c,9,39,0,
2,597,Note_on_c,9,35,7,
2,597,Note_off_c,9,36,0,
2,597,Note_on_c,9,38,3,
2,597,Note_off_c,9,39,0,
2,598,Note_on_c,9,35,7,
2,598,Note_off_c,9,36,0,
2,598,Note_on_c,9,38,3,
2,598,Note_off_c,9,39,0,
2,599,Note_on_c,9,35,7,
2,599,Note_off_c,9,36,0,
2,599,Note_on_c,9,38,3,
2,599,Note_off_c,9,39,0,
2,600,Note_on_c,9,35,7,
2,600,Note_off_c,9,36,0,
2,600,Note_on_c,9,38,3,
2,600,Note_off_c,9,39,0,
2,601,Note_on_c,9,35,7,
2,601,Note_off_c,9,36,0,
2,601,Note_on_c,9,38,3,
2,601,Note_off_c,9,39,0,
2,602,Note_on_c,9,35,7,
2,602,Note_off_c,9,36,0,
2,602,Note_on_c,9,38,3,
2,602,Note_off_c,9,39,0,
2,603,Note_on_c,9,35,7,
2,603,Note_off_c,9,36,0,
2,603,Note_on_c,9,38,3,
2,603,Note_off_c,9,39,0,
2,604,Note_on_c,9,35,7,
2,604,Note_off_c,9,36,0,
2,604,Note_on_c,9,38,3,
2,604,Note_off_c,9,39,0,
2,605,Note_on_c,9,35,7,
2,605,Note_off_c,9,36,0,
2,605,Note_on_c,9,38,3,
2,605,Note_off_c,9,39,0,
2,606,Note_on_c,9,35,7,
2,606,Note_off_c,9,36,0,
2,606,Note_on_c,9,38,3,
2,606,Note_off_c,9,39,0,
2,607,Note_on_c,9,35,7,
2,607,Note_off_c,9,36,0,
2,607,Note_on_c,9,38,3,
2,607,Note_off_c,9,39,0,
2,608,Note_on_c,9,35,7,
2,608,Note_off_c,9,36,0,
2,608,Note_on_c,9,38,3,
2,608,Note_off_c,9,39,0,
2,609,Note_on_c,9,35,7,
2,609,Note_off_c,9,36,0,
2,609,Note_on_c,9,38,3,
2,609,Note_off_c,9,39,0,
2,610,Note_on_c,9,35,7,
2,610,Note_off_c,9,36,0,
2,610,Note_on_c,9,38,3,
2,610,Note_off_c,9,39,0,
2,611,Note_on_c,9,35,7,
2,611,Note_off_c,9,36,0,
2,611,Note_on_c,9,38,3,
2,611,Note_off_c,9,39,0,
2,612,Note_on_c,9,35,7,
2,612,Note_off_c,9,36,0,
2,612,Note_on_c,9,38,3,
2,612,Note_off_c,9,39,0,
2,613,Note_on_c,9,35,7,
2,613,Note_off_c,9,36,0,
2,613,Note_on_c,9,38,3,
2,613,Note_off_c,9,39,0,
2,614,Note_on_c,9,35,7,
2,614,Note_off_c,9,36,0,
2,614,Note_on_c,9,38,3,
2,614,Note_off_c,9,39,0,
2,615,Note_on_c,9,35,7,
2,615,Note_off_c,9,36,0,
2,615,Note_on_c,9,38,3,
2,615,Note_off_c,9,39,0,
2,616,Note_on_c,9,35,7,
2,616,Note_off_c,9,36,0,
2,616,Note_on_c,9,38,3,
2,616,Note_off_c,9,39,0,
2,617,Note_on_c,9,35,7,
2,617,Note_off_c,9,36,0,
2,617,Note_on_c,9,38,3,
2,617,Note_off_c,9,39,0,
2,618,Note_on_c,9,35,7,
2,618,Note_off_c,9,36,0,
2,618,Note_on_c,9,38,3,
2,618,Note_off_c,9,39,0,
2,619,Note_on_c,9,35,7,
2,619,Note_off_c,9,36,0,
2,619,Note_on_c,9,38,3,
2,619,Note_off_c,9,39,0,
2,620,Note_on_c,9,35,7,
2,620,Note_off_c,9,36,0,
2,620,Note_on_c,9,38,3,
2,620,Note_off_c,9,39,0,
2,621,Note_on_c,9,35,7,
2,621,Note_off_c,9,36,0,
2,621,Note_on_c,9,38,3,
2,621,Note_off_c,9,39,0,
2,622,Note_on_c,9,35,7,
2,622,Note_off_c,9,36,0,
2,622,Note_on_c,9,38,3,
2,622,Note_off_c,9,39,0,
2,623,Note_on_c,9,35,7,
2,623,Note_off_c,9,36,0,
2,623,Note_on_c,9,38,3,
2,623,Note_off_c,9,39,0,
2,624,Note_on_c,9,35,7,
2,624,Note_off_c,9,36,0,
2,624,Note_on_c,9,38,3,
2,624,Note_off_c,9,39,0,
2,625,Note_on_c,9,35,7,
2,625,Note_off_c,9,36,0,
2,625,Note_on_c,9,38,3,
2,625,Note_off_c,9,39,0,
2,626,Note_on_c,9,35,7,
2,626,Note_off_c,9,36,0,
2,626,Note_on_c,9,38,3,
2,626,Note_off_c,9,39,0,
2,627,Note_on_c,9,35,7,
2,627,Note_off_c,9,36,0,
2,627,Note_on_c,9,38,3,
2,627,Note_off_c,9,39,0,
2,628,Note_on_c,9,35,7,
2,628,Note_off_c,9,36,0,
2,628,Note_on_c,9,38,3,
2,628,Note_off_c,9,39,0,
2,629,Note_on_c,9,35,7,
2,629,Note_off_c,9,36,0,
2,629,Note_on_c,9,38,3,
2,629,Note_off_c,9,39,0,
2,630,Note_on_c,9,35,7,
2,630,Note_off_c,9,36,0,
2,630,Note_on_c,9,38,3,
2,630,Note_off_c,9,39,0,
2,631,Note_on_c,9,35,7,
2,631,Note_off_c,9,36,0,
2,631,Note_on_c,9,38,3,
2,631,Note_off_c,9,39,0,
2,632,Note_on_c,9,35,7,
2,632,Note_off_c,9,36,0,
2,632,Note_on_c,9,38,3,
2,632,Note_off_c,9,39,0,
2,633,Note_on_c,9,35,7,
2,633,Note_off_c,9,36,0,
2,633,Note_on_c,9,38,3,
2,633,Note_off_c,9,39,0,
2,634,Note_on_c,9,35,7,
2,634,Note_off_c,9,36,0,
2,634,Note_on_c,9,38,3,
2,634,Note_off_c,9,39,0,
2,635,Note_on_c,9,35,7,
2,635,Note_off_c,9,36,0,
2,635,Note_on_c,9,38,3,
2,635,Note_off_c,9,39,0,
2,636,Note_on_c,9,35,7,
2,636,Note_off_c,9,36,0,
2,636,Note_on_c,9,38,3,
2,636,Note_off_c,9,39,0,
2,637,Note_on_c,9,35,7,
2,637,Note_off_c,9,36,0,
2,637,Note_on_c,9,38,3,
2,637,Note_off_c,9,39,0,
2,638,Note_on_c,9,35,7,
2,638,Note_off_c,9,36,0,
2,638,Note_on_c,9,38,3,
2,638,Note_off_c,9,39,0,
2,639,Note_on_c,9,35,7,
2,639,Note_off_c,9,36,0,
2,639,Note_on_c,9,38,3,
2,639,Note_off_c,9,39,0,
2,640,Note_on_c,9,35,7,
2,640,Note_off_c,9,36,0,
2,640,Note_on_c,9,38,3,
2,640,Note_off_c,9,39,0,
2,641,Note_on_c,9,35,7,
2,641,Note_off_c,9,36,0,
2,641,Note_on_c,9,38,3,
2,641,Note_off_c,9,39,0,
2,642,Note_on_c,9,35,7,
2,642,Note_off_c,9,36,0,
2,642,Note_on_c,9,38,3,
2,642,Note_off_c,9,39,0,
2,643,Note_on_c,9,35,7,
2,643,Note_off_c,9,36,0,
2,643,Note_on_c,9,38,3,
2,643,Note_off_c,9,39,0,
2,644,Note_on_c,9,35,7,
2,644,Note_off_c,9,36,0,
2,644,Note_on_c,9,38,3,
2,644,Note_off_c,9,39,0,
2,645,Note_on_c,9,35,7,
2,645,Note_off_c,9,36,0,
2,645,Note_on_c,9,38,3,
2,645,Note_off_c,9,39,0,
2,646,Note_on_c,9,35,7,
2,646,Note_off_c,9,36,0,
2,646,Note_on_c,9,38,3,
2,646,Note_off_c,9,39,0,
2,647,Note_on_c,9,35,7,
2,647,Note_off_c,9,36,0,
2,647,Note_on_c,9,38,3,
2,647,Note_off_c,9,39,0,
2,648,Note_on_c,9,35,7,
2,648,Note_off_c,9,36,0,
2,648,Note_on_c,9,38,3,
2,648,Note_off_c,9,39,0,
2,649,Note_on_c,9,35,7,
2,649,Note_off_c,9,36,0,
2,649,Note_on_c,9,38,3,
2,649,Note_off_c,9,39,0,
2,650,Note_on_c,9,35,7,
2,650,Note_off_c,9,36,0,
2,650,Note_on_c,9,38,3,
2,650,Note_off_c,9,39,0,
2,651,Note_on_c,9,35,7,
2,651,Note_off_c,9,36,0,
2,651,Note_on_c,9,38,3,
2,651,Note_off_c,9,39,0,
2,652,Note_on_c,9,35,7,
2,652,Note_off_c,9,36,0,
2,652,Note_on_c,9,38,3,
2,652,Note_off_c,9,39,0,
2,653,Note_on_c,9,35,7,
2,653,Note_off_c,9,36,0,
2,653,Note_on_c,9,38,3,
2,653,Note_off_c,9,39,0,
2,654,Note_on_c,9,35,7,
2,654,Note_off_c,9,36,0,
2,654,Note_on_c,9,38,3,
2,654,Note_off_c,9,39,0,
2,655,Note_on_c,9,35,7,
2,655,Note_off_c,9,36,0,
2,655,Note_on_c,9,38,3,
2,655,Note_off_c,9,39,0,
2,656,Note_on_c,9,35,7,
2,656,Note_off_c,9,36,0,
2,656,Note_on_c,9,38,3,
2,656,Note_off_c,9,39,0,
2,657,Note_on_c,9,35,7,
2,657,Note_off_c,9,36,0,
2,657,Note_on_c,9,38,3,
2,657,Note_off_c,9,39,0,
2,658,Note_on_c,9,35,7,
2,658,Note_off_c,9,36,0,
2,658,Note_on_c,9,38,3,
2,658,Note_off_c,9,39,0,
2,659,Note_on_c,9,35,7,
2,659,Note_off_c,9,36,0,
2,659,Note_on_c,9,38,3,
2,659,Note_off_c,9,39,0,
2,660,Note_on_c,9,35,7,
2,660,Note_off_c,9,36,0,
2,660,Note_on_c,9,38,3,
2,660,Note_off_c,9,39,0,
2,661,Note_on_c,9,35,7,
2,661,Note_off_c,9,36,0,
2,661,Note_on_c,9,38,3,
2,661,Note_off_c,9,39,0,
2,662,Note_on_c,9,35,7,
2,662,Note_off_c,9,36,0,
2,662,Note_on_c,9,38,3,
2,662,Note_off_c,9,39,0,
2,663,Note_on_c,9,35,7,
2,663,Note_off_c,9,36,0,
2,663,Note_on_c,9,38,3,
2,663,Note_off_c,9,39,0,
2,664,Note_on_c,9,35,7,
2,664,Note_off_c,9,36,0,
2,664,Note_on_c,9,38,3,
2,664,Note_off_c,9,39,0,
2,665,Note_on_c,9,35,7,
2,665,Note_off_c,9,36,0,
2,665,Note_on_c,9,38,3,
2,665,Note_off_c,9,39,0,
2,666,Note_on_c,9,35,7,
2,666,Note_off_c,9,36,0,
2,666,Note_on_c,9,38,3,
2,666,Note_off_c,9,39,0,
2,667,Note_on_c,9,35,7,
2,667,Note_off_c,9,36,0,
2,667,Note_on_c,9,38,3,
2,667,Note_off_c,9,39,0,
2,668,Note_on_c,9,35,7,
2,668,Note_off_c,9,36,0,
2,668,Note_on_c,9,38,3,
2,668,Note_off_c,9,39,0,
2,669,Note_on_c,9,35,7,
2,669,Note_off_c,9,36,0,
2,669,Note_on_c,9,38,3,
2,669,Note_off_c,9,39,0,
2,670,Note_on_c,9,35,7,
2,670,Note_off_c,9,36,0,
2,670,Note_on_c,9,38,3,
2,670,Note_off_c,9,39,0,
2,671,Note_on_c,9,35,7,
2,671,Note_off_c,9,36,0,
2,671,Note_on_c,9,38,3,
2,671,Note_off_c,9,39,0,
2,672,Note_on_c,9,35,7,
2,672,Note_off_c,9,36,0,
2,672,Note_on_c,9,38,3,
2,672,Note_off_c,9,39,0,
2,673,Note_on_c,9,35,7,
2,673,Note_off_c,9,36,0,
2,673,Note_on_c,9,38,3,
2,673,Note_off_c,9,39,0,
2,674,Note_on_c,9,35,7,
2,674,Note_off_c,9,36,0,
2,674,Note_on_c,9,38,3,
2,674,Note_off_c,9,39,0,
2,675,Note_on_c,9,35,7,
2,675,Note_off_c,9,36,0,
2,675,Note_on_c,9,38,3,
2,675,Note_off_c,9,39,0,
2,676,Note_on_c,9,35,7,
2,676,Note_off_c,9,36,0,
2,676,Note_on_c,9,38,3,
2,676,Note_off_c,9,39,0,
2,677,Note_on_c,9,35,7,
2,677,Note_off_c,9,36,0,
2,677,Note_on_c,9,38,3,
2,677,Note_off_c,9,39,0,
2,678,Note_on_c,9,35,7,
2,678,Note_off_c,9,36,0,
2,678,Note_on_c,9,38,3,
2,678,Note_off_c,9,39,0,
2,679,Note_on_c,9,35,7,
2,679,Note_off_c,9,36,0,
2,679,Note_on_c,9,38,3,
2,679,Note_off_c,9,39,0,
2,680,Note_on_c,9,35,7,
2,680,Note_off_c,9,36,0,
2,680,Note_on_c,9,38,3,
2,680,Note_off_c,9,39,0,
2,681,Note_on_c,9,35,7,
2,681,Note_off_c,9,36,0,
2,681,Note_on_c,9,38,3,
2,681,Note_off_c,9,39,0,
2,682,Note_on_c,9,35,7,
2,682,Note_off_c,9,36,0,
2,682,Note_on_c,9,38,3,
2,682,Note_off_c,9,39,0,
2,683,Note_on_c,9,35,7,
2,683,Note_off_c,9,36,0,
2,683,Note_on_c,9,38,3,
2,683,Note_off_c,9,39,0,
2,684,Note_on_c,9,35,7,
2,684,Note_off_c,9,36,0,
2,684,Note_on_c,9,38,3,
2,684,Note_off_c,9,39,0,
2,685,Note_on_c,9,35,7,
2,685,Note_off_c,9,36,0,
2,685,Note_on_c,9,38,3,
2,685,Note_off_c,9,39,0,
2,686,Note_on_c,9,35,7,
2,686,Note_off_c,9,36,0,
2,686,Note_on_c,9,38,3,
2,686,Note_off_c,9,39,0,
2,687,Note_on_c,9,35,7,
2,687,Note_off_c,9,36,0,
2,687,Note_on_c,9,38,3,
2,687,Note_off_c,9,39,0,
2,688,Note_on_c,9,35,7,
2,688,Note_off_c,9,36,0,
2,688,Note_on_c,9,38,3,
2,688,Note_off_c,9,39,0,
2,689,Note_on_c,9,35,7,
2,689,Note_off_c,9,36,0,
2,689,Note_on_c,9,38,3,
2,689,Note_off_c,9,39,0,
2,690,Note_on_c,9,35,7,
2,690,Note_off_c,9,36,0,
2,690,Note_on_c,9,38,3,
2,690,Note_off_c,9,39,0,
2,691,Note_on_c,9,35,7,
2,691,Note_off_c,9,36,0,
2,691,Note_on_c,9,38,3,
2,691,Note_off_c,9,39,0,
2,692,Note_on_c,9,35,7,
2,692,Note_off_c,9,36,0,
2,692,Note_on_c,9,38,3,
2,692,Note_off_c,9,39,0,
2,693,Note_on_c,9,35,7,
2,693,Note_off_c,9,36,0,
2,693,Note_on_c,9,38,3,
2,693,Note_off_c,9,39,0,
2,694,Note_on_c,9,35,7,
2,694,Note_off_c,9,36,0,
2,694,Note_on_c,9,38,3,
2,694,Note_off_c,9,39,0,
2,695,Note_on_c,9,35,7,
2,695,Note_off_c,9,36,0,
2,695,Note_on_c,9,38,3,
2,695,Note_off_c,9,39,0,
2,696,Note_on_c,9,35,7,
2,696,Note_off_c,9,36,0,
2,696,Note_on_c,9,38,3,
2,696,Note_off_c,9,39,0,
2,697,Note_on_c,9,35,7,
2,697,Note_off_c,9,36,0,
2,697,Note_on_c,9,38,3,
2,697,Note_off_c,9,39,0,
2,698,Note_on_c,9,35,7,
2,698,Note_off_c,9,36,0,
2,698,Note_on_c,9,38,3,
2,698,Note_off_c,9,39,0,
2,699,Note_on_c,9,35,7,
2,699,Note_off_c,9,36,0,
2,699,Note_on_c,9,38,3,
2,699,Note_off_c,9,39,0,
2,700,Note_on_c,9,35,7,
2,700,Note_off_c,9,36,0,
2,700,Note_on_c,9,38,3,
2,700,Note_off_c,9,39,0,
2,701,Note_on_c,9,35,7,
2,701,Note_off_c,9,36,0,
2,701,Note_on_c,9,38,3,
2,701,Note_off_c,9,39,0,
2,702,Note_on_c,9,35,7,
2,702,Note_off_c,9,36,0,
2,702,Note_on_c,9,38,3,
2,702,Note_off_c,9,39,0,
2,703,Note_on_c,9,35,7,
2,703,Note_off_c,9,36,0,
2,703,Note_on_c,9,38,3,
2,703,Note_off_c,9,39,0,
2,704,Note_on_c,9,35,7,
2,704,Note_off_c,9,36,0,
2,704,Note_on_c,9,38,3,
2,704,Note_off_c,9,39,0,
2,705,Note_on_c,9,35,7,
2,705,Note_off_c,9,36,0,
2,705,Note_on_c,9,38,3,
2,705,Note_off_c,9,39,0,
2,706,Note_on_c,9,35,7,
2,706,Note_off_c,9,36,0,
2,706,Note_on_c,9,38,3,
2,706,Note_off_c,9,39,0,
2,707,Note_on_c,9,35,7,
2,707,Note_off_c,9,36,0,
2,707,Note_on_c,9,38,3,
2,707,Note_off_c,9,39,0,
2,708,Note_on_c,9,35,7,
2,708,Note_off_c,9,36,0,
2,708,Note_on_c,9,38,3,
2,708,Note_off_c,9,39,0,
2,709,Note_on_c,9,35,7,
2,709,Note_off_c,9,36,0,
2,709,Note_on_c,9,38,3,
2,709,Note_off_c,9,39,0,
2,710,Note_on_c,9,35,7,
2,710,Note_off_c,9,36,0,
2,710,Note_on_c,9,38,3,
2,710,Note_off_c,9,39,0,
2,711,Note_on_c,9,35,7,
2,711,Note_off_c,9,36,0,
2,711,Note_on_c,9,38,3,
2,711,Note_off_c,9,39,0,
2,712,Note_on_c,9,35,7,
2,712,Note_off_c,9,36,0,
2,712,Note_on_c,9,38,3,
2,712,Note_off_c,9,39,0,
2,713,Note_on_c,9,35,7,
2,713,Note_off_c,9,36,0,
2,713,Note_on_c,9,38,3,
2,713,Note_off_c,9,39,0,
2,714,Note_on_c,9,35,7,
2,714,Note_off_c,9,36,0,
2,714,Note_on_c,9,38,3,
2,714,Note_off_c,9,39,0,
2,715,Note_on_c,9,35,7,
2,715,Note_off_c,9,36,0,
2,715,Note_on_c,9,38,3,
2,715,Note_off_c,9,39,0,
2,716,Note_on_c,9,35,7,
2,716,Note_off_c,9,36,0,
2,716,Note_on_c,9,38,3,
2,716,Note_off_c,9,39,0,
2,717,Note_on_c,9,35,7,
2,717,Note_off_c,9,36,0,
2,717,Note_on_c,9,38,3,
2,717,Note_off_c,9,39,0,
2,718,Note_on_c,9,35,7,
2,718,Note_off_c,9,36,0,
2,718,Note_on_c,9,38,3,
2,718,Note_off_c,9,39,0,
2,719,Note_on_c,9,35,7,
2,719,Note_off_c,9,36,0,
2,719,Note_on_c,9,38,3,
2,719,Note_off_c,9,39,0,
2,720,Note_on_c,9,35,7,
2,720,Note_off_c,9,36,0,
2,720,Note_on_c,9,38,3,
2,720,Note_off_c,9,39,0,
2,721,Note_on_c,9,35,7,
2,721,Note_off_c,9,36,0,
2,721,Note_on_c,9,38,3,
2,721,Note_off_c,9,39,0,
2,722,Note_on_c,9,35,7,
2,722,Note_off_c,9,36,0,
2,722,Note_on_c,9,38,3,
2,722,Note_off_c,9,39,0,
2,723,Note_on_c,9,35,7,
2,723,Note_off_c,9,36,0,
2,723,Note_on_c,9,38,3,
2,723,Note_off_c,9,39,0,
2,724,Note_on_c,9,35,7,
2,724,Note_off_c,9,36,0,
2,724,Note_on_c,9,38,3,
2,724,Note_off_c,9,39,0,
2,725,Note_on_c,9,35,7,
2,725,Note_off_c,9,36,0,
2,725,Note_on_c,9,38,3,
2,725,Note_off_c,9,39,0,
2,726,Note_on_c,9,35,7,
2,726,Note_off_c,9,36,0,
2,726,Note_on_c,9,38,3,
2,726,Note_off_c,9,39,0,
2,727,Note_on_c,9,35,7,
2,727,Note_off_c,9,36,0,
2,727,Note_on_c,9,38,3,
2,727,Note_off_c,9,39,0,
2,728,Note_on_c,9,35,7,
2,728,Note_off_c,9,36,0,
2,728,Note_on_c,9,38,3,
2,728,Note_off_c,9,39,0,
2,729,Note_on_c,9,35,7,
2,729,Note_off_c,9,36,0,
2,729,Note_on_c,9,38,3,
2,729,Note_off_c,9,39,0,
2,730,Note_on_c,9,35,7,
2,730,Note_off_c,9,36,0,
2,730,Note_on_c,9,38,3,
2,730,Note_off_c,9,39,0,
2,731,Note_on_c,9,35,7,
2,731,Note_off_c,9,36,0,
2,731,Note_on_c,9,38,3,
2,731,Note_off_c,9,39,0,
2,732,Note_on_c,9,35,7,
2,732,Note_off_c,9,36,0,
2,732,Note_on_c,9,38,3,
2,732,Note_off_c,9,39,0,
2,733,Note_on_c,9,35,7,
2,733,Note_off_c,9,36,0,
2,733,Note_on_c,9,38,3,
2,733,Note_off_c,9,39,0,
2,734,Note_on_c,9,35,7,
2,734,Note_off_c,9,36,0,
2,734,Note_on_c,9,38,3,
2,734,Note_off_c,9,39,0,
2,735,Note_on_c,9,35,7,
2,735,Note_off_c,9,36,0,
2,735,Note_on_c,9,38,3,
2,735,Note_off_c,9,39,0,
2,736,Note_on_c,9,35,7,
2,736,Note_off_c,9,36,0,
2,736,Note_on_c,9,38,3,
2,736,Note_off_c,9,39,0,
2,737,Note_on_c,9,35,7,
2,737,Note_off_c,9,36,0,
2,737,Note_on_c,9,38,3,
2,737,Note_off_c,9,39,0,
2,738,Note_on_c,9,35,7,
2,738,Note_off_c,9,36,0,
2,738,Note_on_c,9,38,3,
2,738,Note_off_c,9,39,0,
2,739,Note_on_c,9,35,7,
2,739,Note_off_c,9,36,0,
2,739,Note_on_c,9,38,3,
2,739,Note_off_c,9,39,0,
2,740,Note_on_c,9,35,7,
2,740,Note_off_c,9,36,0,
2,740,Note_on_c,9,38,3,
2,740,Note_off_c,9,39,0,
2,741,Note_on_c,9,35,7,
2,741,Note_off_c,9,36,0,
2,741,Note_on_c,9,38,3,
2,741,Note_off_c,9,39,0,
2,742,Note_on_c,9,35,7,
2,742,Note_off_c,9,36,0,
2,742,Note_on_c,9,38,3,
2,742,Note_off_c,9,39,0,
2,743,Note_on_c,9,35,7,
2,743,Note_off_c,9,36,0,
2,743,Note_on_c,9,38,3,
2,743,Note_off_c,9,39,0,
2,744,Note_on_c,9,35,7,
2,744,Note_off_c,9,36,0,
2,744,Note_on_c,9,38,3,
2,744,Note_off_c,9,39,0,
2,745,Note_on_c,9,35,7,
2,745,Note_off_c,9,36,0,
2,745,Note_on_c,9,38,3,
2,745,Note_off_c,9,39,0,
2,746,Note_on_c,9,35,7,
2,746,Note_off_c,9,36,0,
2,746,Note_on_c,9,38,3,
2,746,Note_off_c,9,39,0,
2,747,Note_on_c,9,35,7,
2,747,Note_off_c,9,36,0,
2,747,Note_on_c,9,38,3,
2,747,Note_off_c,9,39,0,
2,748,Note_on_c,9,35,7,
2,748,Note_off_c,9,36,0,
2,748,Note_on_c,9,38,3,
2,748,Note_off_c,9,39,0,
2,749,Note_on_c,9,35,7,
2,749,Note_off_c,9,36,0,
2,749,Note_on_c,9,38,3,
2,749,Note_off_c,9,39,0,
2,750,Note_on_c,9,35,7,
2,750,Note_off_c,9,36,0,
2,750,Note_on_c,9,38,3,
2,750,Note_off_c,9,39,0,
2,751,Note_on_c,9,35,7,
2,751,Note_off_c,9,36,0,
2,751,Note_on_c,9,38,3,
2,751,Note_off_c,9,39,0,
2,752,Note_on_c,9,35,7,
2,752,Note_off_c,9,36,0,
2,752,Note_on_c,9,38,3,
2,752,Note_off_c,9,39,0,
2,753,Note_on_c,9,35,7,
2,753,Note_off_c,9,36,0,
2,753,Note_on_c,9,38,3,
2,753,Note_off_c,9,39,0,
2,754,Note_on_c,9,35,7,
2,754,Note_off_c,9,36,0,
2,754,Note_on_c,9,38,3,
2,754,Note_off_c,9,39,0,
2,755,Note_on_c,9,35,7,
2,755,Note_off_c,9,36,0,
2,755,Note_on_c,9,38,3,
2,755,Note_off_c,9,39,0,
2,756,Note_on_c,9,35,7,
2,756,Note_off_c,9,36,0,
2,756,Note_on_c,9,38,3,
2,756,Note_off_c,9,39,0,
2,757,Note_on_c,9,35,7,
2,757,Note_off_c,9,36,0,
2,757,Note_on_c,9,38,3,
2,757,Note_off_c,9,39,0,
2,758,Note_on_c,9,35,7,
2,758,Note_off_c,9,36,0,
2,758,Note_on_c,9,38,3,
2,758,Note_off_c,9,39,0,
2,759,Note_on_c,9,35,7,
2,759,Note_off_c,9,36,0,
2,759,Note_on_c,9,38,3,
2,759,Note_off_c,9,39,0,
2,760,Note_on_c,9,35,7,
2,760,Note_off_c,9,36,0,
2,760,Note_on_c,9,38,3,
2,760,Note_off_c,9,39,0,
2,761,Note_on_c,9,35,7,
2,761,Note_off_c,9,36,0,
2,761,Note_on_c,9,38,3,
2,761,Note_off_c,9,39,0,
2,762,Note_on_c,9,35,7,
2,762,Note_off_c,9,36,0,
2,762,Note_on_c,9,38,3,
2,762,Note_off_c,9,39,0,
2,763,Note_on_c,9,35,7,
2,763,Note_off_c,9,36,0,
2,763,Note_on_c,9,38,3,
2,763,Note_off_c,9,39,0,
2,764,Note_on_c,9,35,7,
2,764,Note_off_c,9,36,0,
2,764,Note_on_c,9,38,3,
2,764,Note_off_c,9,39,0,
2,765,Note_on_c,9,35,7,
2,765,Note_off_c,9,36,0,
2,765,Note_on_c,9,38,3,
2,765,Note_off_c,9,39,0,
2,766,Note_on_c,9,35,7,
2,766,Note_off_c,9,36,0,
2,766,Note_on_c,9,38,3,
2,766,Note_off_c,9,39,0,
2,767,Note_on_c,9,35,7,
2,767,Note_off_c,9,36,0,
2,767,Note_on_c,9,38,3,
2,767,Note_off_c,9,39,0,
2,768,Note_on_c,9,35,7,
2,768,Note_off_c,9,36,0,
2,768,Note_on_c,9,38,3,
2,768,Note_off_c,9,39,0,
2,769,Note_on_c,9,35,7,
2,769,Note_off_c,9,36,0,
2,769,Note_on_c,9,38,3,
2,769,Note_off_c,9,39,0,
2,770,Note_on_c,9,35,7,
2,770,Note_off_c,9,36,0,
2,770,Note_on_c,9,38,3,
2,770,Note_off_c,9,39,0,
2,771,Note_on_c,9,35,7,
2,771,Note_off_c,9,36,0,
2,771,Note_on_c,9,38,3,
2,771,Note_off_c,9,39,0,
2,772,Note_on_c,9,35,7,
2,772,Note_off_c,9,36,0,
2,772,Note_on_c,9,38,3,
2,772,Note_off_c,9,39,0,
2,773,Note_on_c,9,35,7,
2,773,Note_off_c,9,36,0,
2,773,Note_on_c,9,38,3,
2,773,Note_off_c,9,39,0,
2,774,Note_on_c,9,35,7,
2,774,Note_off_c,9,36,0,
2,774,Note_on_c,9,38,3,
2,774,Note_off_c,9,39,0,
2,775,Note_on_c,9,35,7,
2,775,Note_off_c,9,36,0,
2,775,Note_on_c,9,38,3,
2,775,Note_off_c,9,39,0,
2,776,Note_on_c,9,35,7,
2,776,Note_off_c,9,36,0,
2,776,Note_on_c,9,38,3,
2,776,Note_off_c,9,39,0,
2,777,Note_on_c,9,35,7,
2,777,Note_off_c,9,36,0,
2,777,Note_on_c,9,38,3,
2,777,Note_off_c,9,39,0,
2,778,Note_on_c,9,35,7,
2,778,Note_off_c,9,36,0,
2,778,Note_on_c,9,38,3,
2,778,Note_off_c,9,39,0,
2,779,Note_on_c,9,35,7,
2,779,Note_off_c,9,36,0,
2,779,Note_on_c,9,38,3,
2,779,Note_off_c,9,39,0,
2,780,Note_on_c,9,35,7,
2,780,Note_off_c,9,36,0,
2,780,Note_on_c,9,38,3,
2,780,Note_off_c,9,39,0,
2,781,Note_on_c,9,35,7,
2,781,Note_off_c,9,36,0,
2,781,Note_on_c,9,38,3,
2,781,Note_off_c,9,39,0,
2,782,Note_on_c,9,35,7,
2,782,Note_off_c,9,36,0,
2,782,Note_on_c,9,38,3,
2,782,Note_off_c,9,39,0,
2,783,Note_on_c,9,35,7,
2,783,Note_off_c,9,36,0,
2,783,Note_on_c,9,38,3,
2,783,Note_off_c,9,39,0,
2,784,Note_on_c,9,35,7,
2,784,Note_off_c,9,36,0,
2,784,Note_on_c,9,38,3,
2,784,Note_off_c,9,39,0,
2,785,Note_on_c,9,35,7,
2,785,Note_off_c,9,36,0,
2,785,Note_on_c,9,38,3,
2,785,Note_off_c,9,39,0,
2,786,Note_on_c,9,35,7,
2,786,Note_off_c,9,36,0,
2,786,Note_on_c,9,38,3,
2,786,Note_off_c,9,39,0,
2,787,Note_on_c,9,35,7,
2,787,Note_off_c,9,36,0,
2,787,Note_on_c,9,38,3,
2,787,Note_off_c,9,39,0,
2,788,Note_on_c,9,35,7,
2,788,Note_off_c,9,36,0,
2,788,Note_on_c,9,38,3,
2,788,Note_off_c,9,39,0,
2,789,Note_on_c,9,35,7,
2,789,Note_off_c,9,36,0,
2,789,Note_on_c,9,38,3,
2,789,Note_off_c,9,39,0,
2,790,Note_on_c,9,35,7,
2,790,Note_off_c,9,36,0,
2,790,Note_on_c,9,38,3,
2,790,Note_off_c,9,39,0,
2,791,Note_on_c,9,35,7,
2,791,Note_off_c,9,36,0,
2,791,Note_on_c,9,38,3,
2,791,Note_off_c,9,39,0,
2,792,Note_on_c,9,35,7,
2,792,Note_off_c,9,36,0,
2,792,Note_on_c,9,38,3,
2,792,Note_off_c,9,39,0,
2,793,Note_on_c,9,35,7,
2,793,Note_off_c,9,36,0,
2,793,Note_on_c,9,38,3,
2,793,Note_off_c,9,39,0,
2,794,Note_on_c,9,35,7,
2,794,Note_off_c,9,36,0,
2,794,Note_on_c,9,38,3,
2,794,Note_off_c,9,39,0,
2,795,Note_on_c,9,35,7,
2,795,Note_off_c,9,36,0,
2,795,Note_on_c,9,38,3,
2,795,Note_off_c,9,39,0,
2,796,Note_on_c,9,35,7,
2,796,Note_off_c,9,36,0,
2,796,Note_on_c,9,38,3,
2,796,Note_off_c,9,39,0,
2,797,Note_on_c,9,35,7,
2,797,Note_off_c,9,36,0,
2,797,Note_on_c,9,38,3,
2,797,Note_off_c,9,39,0,
2,798,Note_on_c,9,35,7,
2,798,Note_off_c,9,36,0,
2,798,Note_on_c,9,38,3,
2,798,Note_off_c,9,39,0,
2,799,Note_on_c,9,35,7,
2,799,Note_off_c,9,36,0,
2,799,Note_on_c,9,38,3,
2,799,Note_off_c,9,39,0,
2,800,Note_on_c,9,35,7,
2,800,Note_off_c,9,36,0,
2,800,Note_on_c,9,38,3,
2,800,Note_off_c,9,39,0,
2,801,Note_on_c,9,35,7,
2,801,Note_off_c,9,36,0,
2,801,Note_on_c,9,38,3,
2,801,Note_off_c,9,39,0,
2,802,Note_on_c,9,35,7,
2,802,Note_off_c,9,36,0,
2,802,Note_on_c,9,38,3,
2,802,Note_off_c,9,39,0,
2,803,Note_on_c,9,35,7,
2,803,Note_off_c,9,36,0,
2,803,Note_on_c,9,38,3,
2,803,Note_off_c,9,39,0,
2,804,Note_on_c,9,35,7,
2,804,Note_off_c,9,36,0,
2,804,Note_on_c,9,38,3,
2,804,Note_off_c,9,39,0,
2,805,Note_on_c,9,35,7,
2,805,Note_off_c,9,36,0,
2,805,Note_on_c,9,38,3,
2,805,Note_off_c,9,39,0,
2,806,Note_on_c,9,35,7,
2,806,Note_off_c,9,36,0,
2,806,Note_on_c,9,38,3,
2,806,Note_off_c,9,39,0,
2,807,Note_on_c,9,35,7,
2,807,Note_off_c,9,36,0,
2,807,Note_on_c,9,38,3,
2,807,Note_off_c,9,39,0,
2,808,Note_on_c,9,35,7,
2,808,Note_off_c,9,36,0,
2,808,Note_on_c,9,38,3,
2,808,Note_off_c,9,39,0,
2,809,Note_on_c,9,35,7,
2,809,Note_off_c,9,36,0,
2,809,Note_on_c,9,38,3,
2,809,Note_off_c,9,39,0,
2,810,Note_on_c,9,35,7,
2,810,Note_off_c,9,36,0,
2,810,Note_on_c,9,38,3,
2,810,Note_off_c,9,39,0,
2,811,Note_on_c,9,35,7,
2,811,Note_off_c,9,36,0,
2,811,Note_on_c,9,38,3,
2,811,Note_off_c,9,39,0,
2,812,Note_on_c,9,35,7,
2,812,Note_off_c,9,36,0,
2,812,Note_on_c,9,38,3,
2,812,Note_off_c,9,39,0,
2,813,Note_on_c,9,35,7,
2,813,Note_off_c,9,36,0,
2,813,Note_on_c,9,38,3,
2,813,Note_off_c,9,39,0,
2,814,Note_on_c,9,35,7,
2,814,Note_off_c,9,36,0,
2,814,Note_on_c,9,38,3,
2,814,Note_off_c,9,39,0,
2,815,Note_on_c,9,35,7,
2,815,Note_off_c,9,36,0,
2,815,Note_on_c,9,38,3,
2,815,Note_off_c,9,39,0,
2,816,Note_on_c,9,35,7,
2,816,Note_off_c,9,36,0,
2,816,Note_on_c,9,38,3,
2,816,Note_off_c,9,39,0,
2,817,Note_on_c,9,35,7,
2,817,Note_off_c,9,36,0,
2,817,Note_on_c,9,38,3,
2,817,Note_off_c,9,39,0,
2,818,Note_on_c,9,35,7,
2,818,Note_off_c,9,36,0,
2,818,Note_on_c,9,38,3,
2,818,Note_off_c,9,39,0,
2,819,Note_on_c,9,35,7,
2,819,Note_off_c,9,36,0,
2,819,Note_on_c,9,38,3,
2,819,Note_off_c,9,39,0,
2,820,Note_on_c,9,35,7,
2,820,Note_off_c,9,36,0,
2,820,Note_on_c,9,38,3,
2,820,Note_off_c,9,39,0,
2,821,Note_on_c,9,35,7,
2,821,Note_off_c,9,36,0,
2,821,Note_on_c,9,38,3,
2,821,Note_off_c,9,39,0,
2,822,Note_on_c,9,35,7,
2,822,Note_off_c,9,36,0,
2,822,Note_on_c,9,38,3,
2,822,Note_off_c,9,39,0,
2,823,Note_on_c,9,35,7,
2,823,Note_off_c,9,36,0,
2,823,Note_on_c,9,38,3,
2,823,Note_off_c,9,39,0,
2,824,Note_on_c,9,35,7,
2,824,Note_off_c,9,36,0,
2,824,Note_on_c,9,38,3,
2,824,Note_off_c,9,39,0,
2,825,Note_on_c,9,35,7,
2,825,Note_off_c,9,36,0,
2,825,Note_on_c,9,38,3,
2,825,Note_off_c,9,39,0,
2,826,Note_on_c,9,35,7,
2,826,Note_off_c,9,36,0,
2,826,Note_on_c,9,38,3,
2,826,Note_off_c,9,39,0,
2,827,Note_on_c,9,35,7,
2,827,Note_off_c,9,36,0,
2,827,Note_on_c,9,38,3,
2,827,Note_off_c,9,39,0,
2,828,Note_on_c,9,35,7,
2,828,Note_off_c,9,36,0,
2,828,Note_on_c,9,38,3,
2,828,Note_off_c,9,39,0,
2,829,Note_on_c,9,35,7,
2,829,Note_off_c,9,36,0,
2,829,Note_on_c,9,38,3,
2,829,Note_off_c,9,39,0,
2,830,Note_on_c,9,35,7,
2,830,Note_off_c,9,36,0,
2,830,Note_on_c,9,38,3,
2,830,Note_off_c,9,39,0,
2,831,Note_on_c,9,35,7,
2,831,Note_off_c,9,36,0,
2,831,Note_on_c,9,38,3,
2,831,Note_off_c,9,39,0,
2,832,Note_on_c,9,35,7,
2,832,Note_off_c,9,36,0,
2,832,Note_on_c,9,38,3,
2,832,Note_off_c,9,39,0,
2,833,Note_on_c,9,35,7,
2,833,Note_off_c,9,36,0,
2,833,Note_on_c,9,38,3,
2,833,Note_off_c,9,39,0,
2,834,Note_on_c,9,35,7,
2,834,Note_off_c,9,36,0,
2,834,Note_on_c,9,38,3,
2,834,Note_off_c,9,39,0,
2,835,Note_on_c,9,35,7,
2,835,Note_off_c,9,36,0,
2,835,Note_on_c,9,38,3,
2,835,Note_off_c,9,39,0,
2,836,Note_on_c,9,35,7,
2,836,Note_off_c,9,36,0,
2,836,Note_on_c,9,38,3,
2,836,Note_off_c,9,39,0,
2,837,Note_on_c,9,35,7,
2,837,Note_off_c,9,36,0,
2,837,Note_on_c,9,38,3,
2,837,Note_off_c,9,39,0,
2,838,Note_on_c,9,35,7,
2,838,Note_off_c,9,36,0,
2,838,Note_on_c,9,38,3,
2,838,Note_off_c,9,39,0,
2,839,Note_on_c,9,35,7,
2,839,Note_off_c,9,36,0,
2,839,Note_on_c,9,38,3,
2,839,Note_off_c,9,39,0,
2,840,Note_on_c,9,35,7,
2,840,Note_off_c,9,36,0,
2,840,Note_on_c,9,38,3,
2,840,Note_off_c,9,39,0,
2,841,Note_on_c,9,35,7,
2,841,Note_off_c,9,36,0,
2,841,Note_on_c,9,38,3,
2,841,Note_off_c,9,39,0,
2,842,Note_on_c,9,35,7,
2,842,Note_off_c,9,36,0,
2,842,Note_on_c,9,38,3,
2,842,Note_off_c,9,39,0,
2,843,Note_on_c,9,35,7,
2,843,Note_off_c,9,36,0,
2,843,Note_on_c,9,38,3,
2,843,Note_off_c,9,39,0,
2,844,Note_on_c,9,35,7,
2,844,Note_off_c,9,36,0,
2,844,Note_on_c,9,38,3,
2,844,Note_off_c,9,39,0,
2,845,Note_on_c,9,35,7,
2,845,Note_off_c,9,36,0,
2,845,Note_on_c,9,38,3,
2,845,Note_off_c,9,39,0,
2,846,Note_on_c,9,35,7,
2,846,Note_off_c,9,36,0,
2,846,Note_on_c,9,38,3,
2,846,Note_off_c,9,39,0,
2,847,Note_on_c,9,35,7,
2,847,Note_off_c,9,36,0,
2,847,Note_on_c,9,38,3,
2,847,Note_off_c,9,39,0,
2,848,Note_on_c,9,35,7,
2,848,Note_off_c,9,36,0,
2,848,Note_on_c,9,38,3,
2,848,Note_off_c,9,39,0,
2,849,Note_on_c,9,35,7,
2,849,Note_off_c,9,36,0,
2,849,Note_on_c,9,38,3,
2,849,Note_off_c,9,39,0,
2,850,Note_on_c,9,35,7,
2,850,Note_off_c,9,36,0,
2,850,Note_on_c,9,38,3,
2,850,Note_off_c,9,39,0,
2,851,Note_on_c,9,35,7,
2,851,Note_off_c,9,36,0,
2,851,Note_on_c,9,38,3,
2,851,Note_off_c,9,39,0,
2,852,Note_on_c,9,35,7,
2,852,Note_off_c,9,36,0,
2,852,Note_on_c,9,38,3,
2,852,Note_off_c,9,39,0,
2,853,Note_on_c,9,35,7,
2,853,Note_off_c,9,36,0,
2,853,Note_on_c,9,38,3,
2,853,Note_off_c,9,39,0,
2,854,Note_on_c,9,35,7,
2,854,Note_off_c,9,36,0,
2,854,Note_on_c,9,38,3,
2,854,Note_off_c,9,39,0,
2,855,Note_on_c,9,35,7,
2,855,Note_off_c,9,36,0,
2,855,Note_on_c,9,38,3,
2,855,Note_off_c,9,39,0,
2,856,Note_on_c,9,35,7,
2,856,Note_off_c,9,36,0,
2,856,Note_on_c,9,38,3,
2,856,Note_off_c,9,39,0,
2,857,Note_on_c,9,35,7,
2,857,Note_off_c,9,36,0,
2,857,Note_on_c,9,38,3,
2,857,Note_off_c,9,39,0,
2,858,Note_on_c,9,35,7,
2,858,Note_off_c,9,36,0,
2,858,Note_on_c,9,38,3,
2,858,Note_off_c,9,39,0,
2,859,Note_on_c,9,35,7,
2,859,Note_off_c,9,36,0,
2,859,Note_on_c,9,38,3,
2,859,Note_off_c,9,39,0,
2,860,Note_on_c,9,35,7,
2,860,Note_off_c,9,36,0,
2,860,Note_on_c,9,38,3,
2,860,Note_off_c,9,39,0,
2,861,Note_on_c,9,35,7,
2,861,Note_off_c,9,36,0,
2,861,Note_on_c,9,38,3,
2,861,Note_off_c,9,39,0,
2,862,Note_on_c,9,35,7,
2,862,Note_off_c,9,36,0,
2,862,Note_on_c,9,38,3,
2,862,Note_off_c,9,39,0,
2,863,Note_on_c,9,35,7,
2,863,Note_off_c,9,36,0,
2,863,Note_on_c,9,38,3,
2,863,Note_off_c,9,39,0,
2,864,Note_on_c,9,35,7,
2,864,Note_off_c,9,36,0,
2,864,Note_on_c,9,38,3,
2,864,Note_off_c,9,39,0,
2,865,Note_on_c,9,35,7,
2,865,Note_off_c,9,36,0,
2,865,Note_on_c,9,38,3,
2,865,Note_off_c,9,39,0,
2,866,Note_on_c,9,35,7,
2,866,Note_off_c,9,36,0,
2,866,Note_on_c,9,38,3,
2,866,Note_off_c,9,39,0,
2,867,Note_on_c,9,35,7,
2,867,Note_off_c,9,36,0,
2,867,Note_on_c,9,38,3,
2,867,Note_off_c,9,39,0,
2,868,Note_on_c,9,35,7,
2,868,Note_off_c,9,36,0,
2,868,Note_on_c,9,38,3,
2,868,Note_off_c,9,39,0,
2,869,Note_on_c,9,35,7,
2,869,Note_off_c,9,36,0,
2,869,Note_on_c,9,38,3,
2,869,Note_off_c,9,39,0,
2,870,Note_on_c,9,35,7,
2,870,Note_off_c,9,36,0,
2,870,Note_on_c,9,38,3,
2,870,Note_off_c,9,39,0,
2,871,Note_on_c,9,35,7,
2,871,Note_off_c,9,36,0,
2,871,Note_on_c,9,38,3,
2,871,Note_off_c,9,39,0,
2,872,Note_on_c,9,35,7,
2,872,Note_off_c,9,36,0,
2,872,Note_on_c,9,38,3,
2,872,Note_off_c,9,39,0,
2,873,Note_on_c,9,35,7,
2,873,Note_off_c,9,36,0,
2,873,Note_on_c,9,38,3,
2,873,Note_off_c,9,39,0,
2,874,Note_on_c,9,35,7,
2,874,Note_off_c,9,36,0,
2,874,Note_on_c,9,38,3,
2,874,Note_off_c,9,39,0,
2,875,Note_on_c,9,35,7,
2,875,Note_off_c,9,36,0,
2,875,Note_on_c,9,38,3,
2,875,Note_off_c,9,39,0,
2,876,Note_on_c,9,35,7,
2,876,Note_off_c,9,36,0,
2,876,Note_on_c,9,38,3,
2,876,Note_off_c,9,39,0,
2,877,Note_on_c,9,35,7,
2,877,Note_off_c,9,36,0,
2,877,Note_on_c,9,38,3,
2,877,Note_off_c,9,39,0,
2,878,Note_on_c,9,35,7,
2,878,Note_off_c,9,36,0,
2,878,Note_on_c,9,38,3,
2,878,Note_off_c,9,39,0,
2,879,Note_on_c,9,35,7,
2,879,Note_off_c,9,36,0,
2,879,Note_on_c,9,38,3,
2,879,Note_off_c,9,39,0,
2,880,Note_on_c,9,35,7,
2,880,Note_off_c,9,36,0,
2,880,Note_on_c,9,38,3,
2,880,Note_off_c,9,39,0,
2,881,Note_on_c,9,35,7,
2,881,Note_off_c,9,36,0,
2,881,Note_on_c,9,38,3,
2,881,Note_off_c,9,39,0,
2,882,Note_on_c,9,35,7,
2,882,Note_off_c,9,36,0,
2,882,Note_on_c,9,38,3,
2,882,Note_off_c,9,39,0,
2,883,Note_on_c,9,35,7,
2,883,Note_off_c,9,36,0,
2,883,Note_on_c,9,38,3,
2,883,Note_off_c,9,39,0,
2,884,Note_on_c,9,35,7,
2,884,Note_off_c,9,36,0,
2,884,Note_on_c,9,38,3,
2,884,Note_off_c,9,39,0,
2,885,Note_on_c,9,35,7,
2,885,Note_off_c,9,36,0,
2,885,Note_on_c,9,38,3,
2,885,Note_off_c,9,39,0,
2,886,Note_on_c,9,35,7,
2,886,Note_off_c,9,36,0,
2,886,Note_on_c,9,38,3,
2,886,Note_off_c,9,39,0,
2,887,Note_on_c,9,35,7,
2,887,Note_off_c,9,36,0,
2,887,Note_on_c,9,38,3,
2,887,Note_off_c,9,39,0,
2,888,Note_on_c,9,35,7,
2,888,Note_off_c,9,36,0,
2,888,Note_on_c,9,38,3,
2,888,Note_off_c,9,39,0,
2,889,Note_on_c,9,35,7,
2,889,Note_off_c,9,36,0,
2,889,Note_on_c,9,38,3,
2,889,Note_off_c,9,39,0,
2,890,Note_on_c,9,35,7,
2,890,Note_off_c,9,36,0,
2,890,Note_on_c,9,38,3,
2,890,Note_off_c,9,39,0,
2,891,Note_on_c,9,35,7,
2,891,Note_off_c,9,36,0,
2,891,Note_on_c,9,38,3,
2,891,Note_off_c,9,39,0,
2,892,Note_on_c,9,35,7,
2,892,Note_off_c,9,36,0,
2,892,Note_on_c,9,38,3,
2,892,Note_off_c,9,39,0,
2,893,Note_on_c,9,35,7,
2,893,Note_off_c,9,36,0,
2,893,Note_on_c,9,38,3,
2,893,Note_off_c,9,39,0,
2,894,Note_on_c,9,35,7,
2,894,Note_off_c,9,36,0,
2,894,Note_on_c,9,38,3,
2,894,Note_off_c,9,39,0,
2,895,Note_on_c,9,35,7,
2,895,Note_off_c,9,36,0,
2,895,Note_on_c,9,38,3,
2,895,Note_off_c,9,39,0,
2,896,Note_on_c,9,35,7,
2,896,Note_off_c,9,36,0,
2,896,Note_on_c,9,38,3,
2,896,Note_off_c,9,39,0,
2,897,Note_on_c,9,35,7,
2,897,Note_off_c,9,36,0,
2,897,Note_on_c,9,38,3,
2,897,Note_off_c,9,39,0,
2,898,Note_on_c,9,35,7,
2,898,Note_off_c,9,36,0,
2,898,Note_on_c,9,38,3,
2,898,Note_off_c,9,39,0,
2,899,Note_on_c,9,35,7,
2,899,Note_off_c,9,36,0,
2,899,Note_on_c,9,38,3,
2,899,Note_off_c,9,39,0,
2,900,Note_on_c,9,35,7,
2,900,Note_off_c,9,36,0,
2,900,Note_on_c,9,38,3,
2,900,Note_off_c,9,39,0,
2,901,Note_on_c,9,35,7,
2,901,Note_off_c,9,36,0,
2,901,Note_on_c,9,38,3,
2,901,Note_off_c,9,39,0,
2,902,Note_on_c,9,35,7,
2,902,Note_off_c,9,36,0,
2,902,Note_on_c,9,38,3,
2,902,Note_off_c,9,39,0,
2,903,Note_on_c,9,35,7,
2,903,Note_off_c,9,36,0,
2,903,Note_on_c,9,38,3,
2,903,Note_off_c,9,39,0,
2,904,Note_on_c,9,35,7,
2,904,Note_off_c,9,36,0,
2,904,Note_on_c,9,38,3,
2,904,Note_off_c,9,39,0,
2,905,Note_on_c,9,35,7,
2,905,Note_off_c,9,36,0,
2,905,Note_on_c,9,38,3,
2,905,Note_off_c,9,39,0,
2,906,Note_on_c,9,35,7,
2,906,Note_off_c,9,36,0,
2,906,Note_on_c,9,38,3,
2,906,Note_off_c,9,39,0,
2,907,Note_on_c,9,35,7,
2,907,Note_off_c,9,36,0,
2,907,Note_on_c,9,38,3,
2,907,Note_off_c,9,39,0,
2,908,Note_on_c,9,35,7,
2,908,Note_off_c,9,36,0,
2,908,Note_on_c,9,38,3,
2,908,Note_off_c,9,39,0,
2,909,Note_on_c,9,35,7,
2,909,Note_off_c,9,36,0,
2,909,Note_on_c,9,38,3,
2,909,Note_off_c,9,39,0,
2,910,Note_on_c,9,35,7,
2,910,Note_off_c,9,36,0,
2,910,Note_on_c,9,38,3,
2,910,Note_off_c,9,39,0,
2,911,Note_on_c,9,35,7,
2,911,Note_off_c,9,36,0,
2,911,Note_on_c,9,38,3,
2,911,Note_off_c,9,39,0,
2,912,Note_on_c,9,35,7,
2,912,Note_off_c,9,36,0,
2,912,Note_on_c,9,38,3,
2,912,Note_off_c,9,39,0,
2,913,Note_on_c,9,35,7,
2,913,Note_off_c,9,36,0,
2,913,Note_on_c,9,38,3,
2,913,Note_off_c,9,39,0,
2,914,Note_on_c,9,35,7,
2,914,Note_off_c,9,36,0,
2,914,Note_on_c,9,38,3,
2,914,Note_off_c,9,39,0,
2,915,Note_on_c,9,35,7,
2,915,Note_off_c,9,36,0,
2,915,Note_on_c,9,38,3,
2,915,Note_off_c,9,39,0,
2,916,Note_on_c,9,35,7,
2,916,Note_off_c,9,36,0,
2,916,Note_on_c,9,38,3,
2,916,Note_off_c,9,39,0,
2,917,Note_on_c,9,35,7,
2,917,Note_off_c,9,36,0,
2,917,Note_on_c,9,38,3,
2,917,Note_off_c,9,39,0,
2,918,Note_on_c,9,35,7,
2,918,Note_off_c,9,36,0,
2,918,Note_on_c,9,38,3,
2,918,Note_off_c,9,39,0,
2,919,Note_on_c,9,35,7,
2,919,Note_off_c,9,36,0,
2,919,Note_on_c,9,38,3,
2,919,Note_off_c,9,39,0,
2,920,Note_on_c,9,35,7,
2,920,Note_off_c,9,36,0,
2,920,Note_on_c,9,38,3,
2,920,Note_off_c,9,39,0,
2,921,Note_on_c,9,35,7,
2,921,Note_off_c,9,36,0,
2,921,Note_on_c,9,38,3,
2,921,Note_off_c,9,39,0,
2,922,Note_on_c,9,35,7,
2,922,Note_off_c,9,36,0,
2,922,Note_on_c,9,38,3,
2,922,Note_off_c,9,39,0,
2,923,Note_on_c,9,35,7,
2,923,Note_off_c,9,36,0,
2,923,Note_on_c,9,38,3,
2,923,Note_off_c,9,39,0,
2,924,Note_on_c,9,35,7,
2,924,Note_off_c,9,36,0,
2,924,Note_on_c,9,38,3,
2,924,Note_off_c,9,39,0,
2,925,Note_on_c,9,35,7,
2,925,Note_off_c,9,36,0,
2,925,Note_on_c,9,38,3,
2,925,Note_off_c,9,39,0,
2,926,Note_on_c,9,35,7,
2,926,Note_off_c,9,36,0,
2,926,Note_on_c,9,38,3,
2,926,Note_off_c,9,39,0,
2,927,Note_on_c,9,35,7,
2,927,Note_off_c,9,36,0,
2,927,Note_on_c,9,38,3,
2,927,Note_off_c,9,39,0,
2,928,Note_on_c,9,35,7,
2,928,Note_off_c,9,36,0,
2,928,Note_on_c,9,38,3,
2,928,Note_off_c,9,39,0,
2,929,Note_on_c,9,35,7,
2,929,Note_off_c,9,36,0,
2,929,Note_on_c,9,38,3,
2,929,Note_off_c,9,39,0,
2,930,Note_on_c,9,35,7,
2,930,Note_off_c,9,36,0,
2,930,Note_on_c,9,38,3,
2,930,Note_off_c,9,39,0,
2,931,Note_on_c,9,35,7,
2,931,Note_off_c,9,36,0,
2,931,Note_on_c,9,38,3,
2,931,Note_off_c,9,39,0,
2,932,Note_on_c,9,35,7,
2,932,Note_off_c,9,36,0,
2,932,Note_on_c,9,38,3,
2,932,Note_off_c,9,39,0,
2,933,Note_on_c,9,35,7,
2,933,Note_off_c,9,36,0,
2,933,Note_on_c,9,38,3,
2,933,Note_off_c,9,39,0,
2,934,Note_on_c,9,35,7,
2,934,Note_off_c,9,36,0,
2,934,Note_on_c,9,38,3,
2,934,Note_off_c,9,39,0,
2,935,Note_on_c,9,35,7,
2,935,Note_off_c,9,36,0,
2,935,Note_on_c,9,38,3,
2,935,Note_off_c,9,39,0,
2,936,Note_on_c,9,35,7,
2,936,Note_off_c,9,36,0,
2,936,Note_on_c,9,38,3,
2,936,Note_off_c,9,39,0,
2,937,Note_on_c,9,35,7,
2,937,Note_off_c,9,36,0,
2,937,Note_on_c,9,38,3,
2,937,Note_off_c,9,39,0,
2,938,Note_on_c,9,35,7,
2,938,Note_off_c,9,36,0,
2,938,Note_on_c,9,38,3,
2,938,Note_off_c,9,39,0,
2,939,Note_on_c,9,35,7,
2,939,Note_off_c,9,36,0,
2,939,Note_on_c,9,38,3,
2,939,Note_off_c,9,39,0,
2,940,Note_on_c,9,35,7,
2,940,Note_off_c,9,36,0,
2,940,Note_on_c,9,38,3,
2,940,Note_off_c,9,39,0,
2,941,Note_on_c,9,35,7,
2,941,Note_off_c,9,36,0,
2,941,Note_on_c,9,38,3,
2,941,Note_off_c,9,39,0,
2,942,Note_on_c,9,35,7,
2,942,Note_off_c,9,36,0,
2,942,Note_on_c,9,38,3,
2,942,Note_off_c,9,39,0,
2,943,Note_on_c,9,35,7,
2,943,Note_off_c,9,36,0,
2,943,Note_on_c,9,38,3,
2,943,Note_off_c,9,39,0,
2,944,Note_on_c,9,35,7,
2,944,Note_off_c,9,36,0,
2,944,Note_on_c,9,38,3,
2,944,Note_off_c,9,39,0,
2,945,Note_on_c,9,35,7,
2,945,Note_off_c,9,36,0,
2,945,Note_on_c,9,38,3,
2,945,Note_off_c,9,39,0,
2,946,Note_on_c,9,35,7,
2,946,Note_off_c,9,36,0,
2,946,Note_on_c,9,38,3,
2,946,Note_off_c,9,39,0,
2,947,Note_on_c,9,35,7,
2,947,Note_off_c,9,36,0,
2,947,Note_on_c,9,38,3,
2,947,Note_off_c,9,39,0,
2,948,Note_on_c,9,35,7,
2,948,Note_off_c,9,36,0,
2,948,Note_on_c,9,38,3,
2,948,Note_off_c,9,39,0,
2,949,Note_on_c,9,35,7,
2,949,Note_off_c,9,36,0,
2,949,Note_on_c,9,38,3,
2,949,Note_off_c,9,39,0,
2,950,Note_on_c,9,35,7,
2,950,Note_off_c,9,36,0,
2,950,Note_on_c,9,38,3,
2,950,Note_off_c,9,39,0,
2,951,Note_on_c,9,35,7,
2,951,Note_off_c,9,36,0,
2,951,Note_on_c,9,38,3,
2,951,Note_off_c,9,39,0,
2,952,Note_on_c,9,35,7,
2,952,Note_off_c,9,36,0,
2,952,Note_on_c,9,38,3,
2,952,Note_off_c,9,39,0,
2,953,Note_on_c,9,35,7,
2,953,Note_off_c,9,36,0,
2,953,Note_on_c,9,38,3,
2,953,Note_off_c,9,39,0,
2,954,Note_on_c,9,35,7,
2,954,Note_off_c,9,36,0,
2,954,Note_on_c,9,38,3,
2,954,Note_off_c,9,39,0,
2,955,Note_on_c,9,35,7,
2,955,Note_off_c,9,36,0,
2,955,Note_on_c,9,38,3,
2,955,Note_off_c,9,39,0,
2,956,Note_on_c,9,35,7,
2,956,Note_off_c,9,36,0,
2,956,Note_on_c,9,38,3,
2,956,Note_off_c,9,39,0,
2,957,Note_on_c,9,35,7,
2,957,Note_off_c,9,36,0,
2,957,Note_on_c,9,38,3,
2,957,Note_off_c,9,39,0,
2,958,Note_on_c,9,35,7,
2,958,Note_off_c,9,36,0,
2,958,Note_on_c,9,38,3,
2,958,Note_off_c,9,39,0,
2,959,Note_on_c,9,35,7,
2,959,Note_off_c,9,36,0,
2,959,Note_on_c,9,38,3,
2,959,Note_off_c,9,39,0,
2,960,Note_on_c,9,35,7,
2,960,Note_off_c,9,36,0,
2,960,Note_on_c,9,38,3,
2,960,Note_off_c,9,39,0,
2,961,Note_on_c,9,35,7,
2,961,Note_off_c,9,36,0,
2,961,Note_on_c,9,38,3,
2,961,Note_off_c,9,39,0,
2,962,Note_on_c,9,35,7,
2,962,Note_off_c,9,36,0,
2,962,Note_on_c,9,38,3,
2,962,Note_off_c,9,39,0,
2,963,Note_on_c,9,35,7,
2,963,Note_off_c,9,36,0,
2,963,Note_on_c,9,38,3,
2,963,Note_off_c,9,39,0,
2,964,Note_on_c,9,35,7,
2,964,Note_off_c,9,36,0,
2,964,Note_on_c,9,38,3,
2,964,Note_off_c,9,39,0,
2,965,Note_on_c,9,35,7,
2,965,Note_off_c,9,36,0,
2,965,Note_on_c,9,38,3,
2,965,Note_off_c,9,39,0,
2,966,Note_on_c,9,35,7,
2,966,Note_off_c,9,36,0,
2,966,Note_on_c,9,38,3,
2,966,Note_off_c,9,39,0,
2,967,Note_on_c,9,35,7,
2,967,Note_off_c,9,36,0,
2,967,Note_on_c,9,38,3,
2,967,Note_off_c,9,39,0,
2,968,Note_on_c,9,35,7,
2,968,Note_off_c,9,36,0,
2,968,Note_on_c,9,38,3,
2,968,Note_off_c,9,39,0,
2,969,Note_on_c,9,35,7,
2,969,Note_off_c,9,36,0,
2,969,Note_on_c,9,38,3,
2,969,Note_off_c,9,39,0,
2,970,Note_on_c,9,35,7,
2,970,Note_off_c,9,36,0,
2,970,Note_on_c,9,38,3,
2,970,Note_off_c,9,39,0,
2,971,Note_on_c,9,35,7,
2,971,Note_off_c,9,36,0,
2,971,Note_on_c,9,38,3,
2,971,Note_off_c,9,39,0,
2,972,Note_on_c,9,35,7,
2,972,Note_off_c,9,36,0,
2,972,Note_on_c,9,38,3,
2,972,Note_off_c,9,39,0,
2,973,Note_on_c,9,35,7,
2,973,Note_off_c,9,36,0,
2,973,Note_on_c,9,38,3,
2,973,Note_off_c,9,39,0,
2,974,Note_on_c,9,35,7,
2,974,Note_off_c,9,36,0,
2,974,Note_on_c,9,38,3,
2,974,Note_off_c,9,39,0,
2,975,Note_on_c,9,35,7,
2,975,Note_off_c,9,36,0,
2,975,Note_on_c,9,38,3,
2,975,Note_off_c,9,39,0,
2,976,Note_on_c,9,35,7,
2,976,Note_off_c,9,36,0,
2,976,Note_on_c,9,38,3,
2,976,Note_off_c,9,39,0,
2,977,Note_on_c,9,35,7,
2,977,Note_off_c,9,36,0,
2,977,Note_on_c,9,38,3,
2,977,Note_off_c,9,39,0,
2,978,Note_on_c,9,35,7,
2,978,Note_off_c,9,36,0,
2,978,Note_on_c,9,38,3,
2,978,Note_off_c,9,39,0,
2,979,Note_on_c,9,35,7,
2,979,Note_off_c,9,36,0,
2,979,Note_on_c,9,38,3,
2,979,Note_off_c,9,39,0,
2,980,Note_on_c,9,35,7,
2,980,Note_off_c,9,36,0,
2,980,Note_on_c,9,38,3,
2,980,Note_off_c,9,39,0,
2,981,Note_on_c,9,35,7,
2,981,Note_off_c,9,36,0,
2,981,Note_on_c,9,38,3,
2,981,Note_off_c,9,39,0,
2,982,Note_on_c,9,35,7,
2,982,Note_off_c,9,36,0,
2,982,Note_on_c,9,38,3,
2,982,Note_off_c,9,39,0,
2,983,Note_on_c,9,35,7,
2,983,Note_off_c,9,36,0,
2,983,Note_on_c,9,38,3,
2,983,Note_off_c,9,39,0,
2,984,Note_on_c,9,35,7,
2,984,Note_off_c,9,36,0,
2,984,Note_on_c,9,38,3,
2,984,Note_off_c,9,39,0,
2,985,Note_on_c,9,35,7,
2,985,Note_off_c,9,36,0,
2,985,Note_on_c,9,38,3,
2,985,Note_off_c,9,39,0,
2,986,Note_on_c,9,35,7,
2,986,Note_off_c,9,36,0,
2,986,Note_on_c,9,38,3,
2,986,Note_off_c,9,39,0,
2,987,Note_on_c,9,35,7,
2,987,Note_off_c,9,36,0,
2,987,Note_on_c,9,38,3,
2,987,Note_off_c,9,39,0,
2,988,Note_on_c,9,35,7,
2,988,Note_off_c,9,36,0,
2,988,Note_on_c,9,38,3,
2,988,Note_off_c,9,39,0,
2,989,Note_on_c,9,35,7,
2,989,Note_off_c,9,36,0,
2,989,Note_on_c,9,38,3,
2,989,Note_off_c,9,39,0,
2,990,Note_on_c,9,35,7,
2,990,Note_off_c,9,36,0,
2,990,Note_on_c,9,38,3,
2,990,Note_off_c,9,39,0,
2,991,Note_on_c,9,35,7,
2,991,Note_off_c,9,36,0,
2,991,Note_on_c,9,38,3,
2,991,Note_off_c,9,39,0,
2,992,Note_on_c,9,35,7,
2,992,Note_off_c,9,36,0,
2,992,Note_on_c,9,38,3,
2,992,Note_off_c,9,39,0,
2,993,Note_on_c,9,35,7,
2,993,Note_off_c,9,36,0,
2,993,Note_on_c,9,38,3,
2,993,Note_off_c,9,39,0,
2,994,Note_on_c,9,35,7,
2,994,Note_off_c,9,36,0,
2,994,Note_on_c,9,38,3,
2,994,Note_off_c,9,39,0,
2,995,Note_on_c,9,35,7,
2,995,Note_off_c,9,36,0,
2,995,Note_on_c,9,38,3,
2,995,Note_off_c,9,39,0,
2,996,Note_on_c,9,35,7,
2,996,Note_off_c,9,36,0,
2,996,Note_on_c,9,38,3,
2,996,Note_off_c,9,39,0,
2,997,Note_on_c,9,35,7,
2,997,Note_off_c,9,36,0,
2,997,Note_on_c,9,38,3,
2,997,Note_off_c,9,39,0,
2,998,Note_on_c,9,35,7,
2,998,Note_off_c,9,36,0,
2,998,Note_on_c,9,38,3,
2,998,Note_off_c,9,39,0,
2,999,Note_on_c,9,35,7,
2,999,Note_off_c,9,36,0,
2,999,Note_on_c,9,38,3,
2,999,Note_off_c,9,39,0,
2,1000,Note_on_c,9,35,7,
2,1000,Note_off_c,9,36,0,
2,1000,Note_on_c,9,38,3,
2,1000,Note_off_c,9,39,0,
2,1001,Note_on_c,9,35,7,
2,1001,Note_off_c,9,36,0,
2,1001,Note_on_c,9,38,3,
2,1001,Note_off_c,9,39,0,
2,1002,Note_on_c,9,35,7,
2,1002,Note_off_c,9,36,0,
2,1002,Note_on_c,9,38,3,
2,1002,Note_off_c,9,39,0,
2,1003,Note_on_c,9,35,7,
2,1003,Note_off_c,9,36,0,
2,1003,Note_on_c,9,38,3,
2,1003,Note_off_c,9,39,0,
2,1004,Note_on_c,9,35,7,
2,1004,Note_off_c,9,36,0,
2,1004,Note_on_c,9,38,3,
2,1004,Note_off_c,9,39,0,
2,1005,Note_on_c,9,35,7,
2,1005,Note_off_c,9,36,0,
2,1005,Note_on_c,9,38,3,
2,1005,Note_off_c,9,39,0,
2,1006,Note_on_c,9,35,7,
2,1006,Note_off_c,9,36,0,
2,1006,Note_on_c,9,38,3,
2,1006,Note_off_c,9,39,0,
2,1007,Note_on_c,9,35,7,
2,1007,Note_off_c,9,36,0,
2,1007,Note_on_c,9,38,3,
2,1007,Note_off_c,9,39,0,
2,1008,Note_on_c,9,35,7,
2,1008,Note_off_c,9,36,0,
2,1008,Note_on_c,9,38,3,
2,1008,Note_off_c,9,39,0,
2,1009,Note_on_c,9,35,7,
2,1009,Note_off_c,9,36,0,
2,1009,Note_on_c,9,38,3,
2,1009,Note_off_c,9,39,0,
2,1010,Note_on_c,9,35,7,
2,1010,Note_off_c,9,36,0,
2,1010,Note_on_c,9,38,3,
2,1010,Note_off_c,9,39,0,
2,1011,Note_on_c,9,35,7,
2,1011,Note_off_c,9,36,0,
2,1011,Note_on_c,9,38,3,
2,1011,Note_off_c,9,39,0,
2,1012,Note_on_c,9,35,7,
2,1012,Note_off_c,9,36,0,
2,1012,Note_on_c,9,38,3,
2,1012,Note_off_c,9,39,0,
2,1013,Note_on_c,9,35,7,
2,1013,Note_off_c,9,36,0,
2,1013,Note_on_c,9,38,3,
2,1013,Note_off_c,9,39,0,
2,1014,Note_on_c,9,35,7,
2,1014,Note_off_c,9,36,0,
2,1014,Note_on_c,9,38,3,
2,1014,Note_off_c,9,39,0,
2,1015,Note_on_c,9,35,7,
2,1015,Note_off_c,9,36,0,
2,1015,Note_on_c,9,38,3,
2,1015,Note_off_c,9,39,0,
2,1016,Note_on_c,9,35,7,
2,1016,Note_off_c,9,36,0,
2,1016,Note_on_c,9,38,3,
2,1016,Note_off_c,9,39,0,
2,1017,Note_on_c,9,35,7,
2,1017,Note_off_c,9,36,0,
2,1017,Note_on_c,9,38,3,
2,1017,Note_off_c,9,39,0,
2,1018,Note_on_c,9,35,7,
2,1018,Note_off_c,9,36,0,
2,1018,Note_on_c,9,38,3,
2,1018,Note_off_c,9,39,0,
2,1019,Note_on_c,9,35,7,
2,1019,Note_off_c,9,36,0,
2,1019,Note_on_c,9,38,3,
2,1019,Note_off_c,9,39,0,
2,1020,Note_on_c,9,35,7,
2,1020,Note_off_c,9,36,0,
2,1020,Note_on_c,9,38,3,
2,1020,Note_off_c,9,39,0,
2,1021,Note_on_c,9,35,7,
2,1021,Note_off_c,9,36,0,
2,1021,Note_on_c,9,38,3,
2,1021,Note_off_c,9,39,0,
2,1022,Note_on_c,9,35,7,
2,1022,Note_off_c,9,36,0,
2,1022,Note_on_c,9,38,3,
2,1022,Note_off_c,9,39,0,
2,1023,Note_on_c,9,35,7,
2,1023,Note_off_c,9,36,0,
2,1023,Note_on_c,9,38,3,
2,1023,Note_off_c,9,39,0,
2,1024,Note_on_c,9,35,7,
2,1024,Note_off_c,9,36,0,
2,1024,Note_on_c,9,38,3,
2,1024,Note_off_c,9,39,0,
2,1025,Note_on_c,9,35,7,
2,1025,Note_off_c,9,36,0,
2,1025,Note_on_c,9,38,3,
2,1025,Note_off_c,9,39,0,
2,1026,Note_on_c,9,35,7,
2,1026,Note_off_c,9,36,0,
2,1026,Note_on_c,9,38,3,
2,1026,Note_off_c,9,39,0,
2,1027,Note_on_c,9,35,7,
2,1027,Note_off_c,9,36,0,
2,1027,Note_on_c,9,38,3,
2,1027,Note_off_c,9,39,0,
2,1028,Note_on_c,9,35,7,
2,1028,Note_off_c,9,36,0,
2,1028,Note_on_c,9,38,3,
2,1028,Note_off_c,9,39,0,
2,1029,Note_on_c,9,35,7,
2,1029,Note_off_c,9,36,0,
2,1029,Note_on_c,9,38,3,
2,1029,Note_off_c,9,39,0,
2,1030,Note_on_c,9,35,7,
2,1030,Note_off_c,9,36,0,
2,1030,Note_on_c,9,38,3,
2,1030,Note_off_c,9,39,0,
2,1031,Note_on_c,9,35,7,
2,1031,Note_off_c,9,36,0,
2,1031,Note_on_c,9,38,3,
2,1031,Note_off_c,9,39,0,
2,1032,Note_on_c,9,35,7,
2,1032,Note_off_c,9,36,0,
2,1032,Note_on_c,9,38,3,
2,1032,Note_off_c,9,39,0,
2,1033,Note_on_c,9,35,7,
2,1033,Note_off_c,9,36,0,
2,1033,Note_on_c,9,38,3,
2,1033,Note_off_c,9,39,0,
2,1034,Note_on_c,9,35,7,
2,1034,Note_off_c,9,36,0,
2,1034,Note_on_c,9,38,3,
2,1034,Note_off_c,9,39,0,
2,1035,Note_on_c,9,35,7,
2,1035,Note_off_c,9,36,0,
2,1035,Note_on_c,9,38,3,
2,1035,Note_off_c,9,39,0,
2,1036,Note_on_c,9,35,7,
2,1036,Note_off_c,9,36,0,
2,1036,Note_on_c,9,38,3,
2,1036,Note_off_c,9,39,0,
2,1037,Note_on_c,9,35,7,
2,1037,Note_off_c,9,36,0,
2,1037,Note_on_c,9,38,3,
2,1037,Note_off_c,9,39,0,
2,1038,Note_on_c,9,35,7,
2,1038,Note_off_c,9,36,0,
2,1038,Note_on_c,9,38,3,
2,1038,Note_off_c,9,39,0,
2,1039,Note_on_c,9,35,7,
2,1039,Note_off_c,9,36,0,
2,1039,Note_on_c,9,38,3,
2,1039,Note_off_c,9,39,0,
2,1040,Note_on_c,9,35,7,
2,1040,Note_off_c,9,36,0,
2,1040,Note_on_c,9,38,3,
2,1040,Note_off_c,9,39,0,
2,1041,Note_on_c,9,35,7,
2,1041,Note_off_c,9,36,0,
2,1041,Note_on_c,9,38,3,
2,1041,Note_off_c,9,39,0,
2,1042,Note_on_c,9,35,7,
2,1042,Note_off_c,9,36,0,
2,1042,Note_on_c,9,38,3,
2,1042,Note_off_c,9,39,0,
2,1043,Note_on_c,9,35,7,
2,1043,Note_off_c,9,36,0,
2,1043,Note_on_c,9,38,3,
2,1043,Note_off_c,9,39,0,
2,1044,Note_on_c,9,35,7,
2,1044,Note_off_c,9,36,0,
2,1044,Note_on_c,9,38,3,
2,1044,Note_off_c,9,39,0,
2,1045,Note_on_c,9,35,7,
2,1045,Note_off_c,9,36,0,
2,1045,Note_on_c,9,38,3,
2,1045,Note_off_c,9,39,0,
2,1046,Note_on_c,9,35,7,
2,1046,Note_off_c,9,36,0,
2,1046,Note_on_c,9,38,3,
2,1046,Note_off_c,9,39,0,
2,1047,Note_on_c,9,35,7,
2,1047,Note_off_c,9,36,0,
2,1047,Note_on_c,9,38,3,
2,1047,Note_off_c,9,39,0,
2,1048,Note_on_c,9,35,7,
2,1048,Note_off_c,9,36,0,
2,1048,Note_on_c,9,38,3,
2,1048,Note_off_c,9,39,0,
2,1049,Note_on_c,9,35,7,
2,1049,Note_off_c,9,36,0,
2,1049,Note_on_c,9,38,3,
2,1049,Note_off_c,9,39,0,
2,1050,Note_on_c,9,35,7,
2,1050,Note_off_c,9,36,0,
2,1050,Note_on_c,9,38,3,
2,1050,Note_off_c,9,39,0,
2,1051,Note_on_c,9,35,7,
2,1051,Note_off_c,9,36,0,
2,1051,Note_on_c,9,38,3,
2,1051,Note_off_c,9,39,0,
2,1052,Note_on_c,9,35,7,
2,1052,Note_off_c,9,36,0,
2,1052,Note_on_c,9,38,3,
2,1052,Note_off_c,9,39,0,
2,1053,Note_on_c,9,35,7,
2,1053,Note_off_c,9,36,0,
2,1053,Note_on_c,9,38,3,
2,1053,Note_off_c,9,39,0,
2,1054,Note_on_c,9,35,7,
2,1054,Note_off_c,9,36,0,
2,1054,Note_on_c,9,38,3,
2,1054,Note_off_c,9,39,0,
2,1055,Note_on_c,9,35,7,
2,1055,Note_off_c,9,36,0,
2,1055,Note_on_c,9,38,3,
2,1055,Note_off_c,9,39,0,
2,1056,Note_on_c,9,35,7,
2,1056,Note_off_c,9,36,0,
2,1056,Note_on_c,9,38,3,
2,1056,Note_off_c,9,39,0,
2,1057,Note_on_c,9,35,7,
2,1057,Note_off_c,9,36,0,
2,1057,Note_on_c,9,38,3,
2,1057,Note_off_c,9,39,0,
2,1058,Note_on_c,9,35,7,
2,1058,Note_off_c,9,36,0,
2,1058,Note_on_c,9,38,3,
2,1058,Note_off_c,9,39,0,
2,1059,Note_on_c,9,35,7,
2,1059,Note_off_c,9,36,0,
2,1059,Note_on_c,9,38,3,
2,1059,Note_off_c,9,39,0,
2,1060,Note_on_c,9,35,7,
2,1060,Note_off_c,9,36,0,
2,1060,Note_on_c,9,38,3,
2,1060,Note_off_c,9,39,0,
2,1061,Note_on_c,9,35,7,
2,1061,Note_off_c,9,36,0,
2,1061,Note_on_c,9,38,3,
2,1061,Note_off_c,9,39,0,
2,1062,Note_on_c,9,35,7,
2,1062,Note_off_c,9,36,0,
2,1062,Note_on_c,9,38,3,
2,1062,Note_off_c,9,39,0,
2,1063,Note_on_c,9,35,7,
2,1063,Note_off_c,9,36,0,
2,1063,Note_on_c,9,38,3,
2,1063,Note_off_c,9,39,0,
2,1064,Note_on_c,9,35,7,
2,1064,Note_off_c,9,36,0,
2,1064,Note_on_c,9,38,3,
2,1064,Note_off_c,9,39,0,
2,1065,Note_on_c,9,35,7,
2,1065,Note_off_c,9,36,0,
2,1065,Note_on_c,9,38,3,
2,1065,Note_off_c,9,39,0,
2,1066,Note_on_c,9,35,7,
2,1066,Note_off_c,9,36,0,
2,1066,Note_on_c,9,38,3,
2,1066,Note_off_c,9,39,0,
2,1067,Note_on_c,9,35,7,
2,1067,Note_off_c,9,36,0,
2,1067,Note_on_c,9,38,3,
2,1067,Note_off_c,9,39,0,
2,1068,Note_on_c,9,35,7,
2,1068,Note_off_c,9,36,0,
2,1068,Note_on_c,9,38,3,
2,1068,Note_off_c,9,39,0,
2,1069,Note_on_c,9,35,7,
2,1069,Note_off_c,9,36,0,
2,1069,Note_on_c,9,38,3,
2,1069,Note_off_c,9,39,0,
2,1070,Note_on_c,9,35,7,
2,1070,Note_off_c,9,36,0,
2,1070,Note_on_c,9,38,3,
2,1070,Note_off_c,9,39,0,
2,1071,Note_on_c,9,35,7,
2,1071,Note_off_c,9,36,0,
2,1071,Note_on_c,9,38,3,
2,1071,Note_off_c,9,39,0,
2,1072,Note_on_c,9,35,7,
2,1072,Note_off_c,9,36,0,
2,1072,Note_on_c,9,38,3,
2,1072,Note_off_c,9,39,0,
2,1073,Note_on_c,9,35,7,
2,1073,Note_off_c,9,36,0,
2,1073,Note_on_c,9,38,3,
2,1073,Note_off_c,9,39,0,
2,1074,Note_on_c,9,35,7,
2,1074,Note_off_c,9,36,0,
2,1074,Note_on_c,9,38,3,
2,1074,Note_off_c,9,39,0,
2,1075,Note_on_c,9,35,7,
2,1075,Note_off_c,9,36,0,
2,1075,Note_on_c,9,38,3,
2,1075,Note_off_c,9,39,0,
2,1076,Note_on_c,9,35,7,
2,1076,Note_off_c,9,36,0,
2,1076,Note_on_c,9,38,3,
2,1076,Note_off_c,9,39,0,
2,1077,Note_on_c,9,35,7,
2,1077,Note_off_c,9,36,0,
2,1077,Note_on_c,9,38,3,
2,1077,Note_off_c,9,39,0,
2,1078,Note_on_c,9,35,7,
2,1078,Note_off_c,9,36,0,
2,1078,Note_on_c,9,38,3,
2,1078,Note_off_c,9,39,0,
2,1079,Note_on_c,9,35,7,
2,1079,Note_off_c,9,36,0,
2,1079,Note_on_c,9,38,3,
2,1079,Note_off_c,9,39,0,
2,1080,Note_on_c,9,35,7,
2,1080,Note_off_c,9,36,0,
2,1080,Note_on_c,9,38,3,
2,1080,Note_off_c,9,39,0,
2,1081,Note_on_c,9,35,7,
2,1081,Note_off_c,9,36,0,
2,1081,Note_on_c,9,38,3,
2,1081,Note_off_c,9,39,0,
2,1082,Note_on_c,9,35,7,
2,1082,Note_off_c,9,36,0,
2,1082,Note_on_c,9,38,3,
2,1082,Note_off_c,9,39,0,
2,1083,Note_on_c,9,35,7,
2,1083,Note_off_c,9,36,0,
2,1083,Note_on_c,9,38,3,
2,1083,Note_off_c,9,39,0,
2,1084,Note_on_c,9,35,7,
2,1084,Note_off_c,9,36,0,
2,1084,Note_on_c,9,38,3,
2,1084,Note_off_c,9,39,0,
2,1085,Note_on_c,9,35,7,
2,1085,Note_off_c,9,36,0,
2,1085,Note_on_c,9,38,3,
2,1085,Note_off_c,9,39,0,
2,1086,Note_on_c,9,35,7,
2,1086,Note_off_c,9,36,0,
2,1086,Note_on_c,9,38,3,
2,1086,Note_off_c,9,39,0,
2,1087,Note_on_c,9,35,7,
2,1087,Note_off_c,9,36,0,
2,1087,Note_on_c,9,38,3,
2,1087,Note_off_c,9,39,0,
2,1088,Note_on_c,9,35,7,
2,1088,Note_off_c,9,36,0,
2,1088,Note_on_c,9,38,3,
2,1088,Note_off_c,9,39,0,
2,1089,Note_on_c,9,35,7,
2,1089,Note_off_c,9,36,0,
2,1089,Note_on_c,9,38,3,
2,1089,Note_off_c,9,39,0,
2,1090,Note_on_c,9,35,7,
2,1090,Note_off_c,9,36,0,
2,1090,Note_on_c,9,38,3,
2,1090,Note_off_c,9,39,0,
2,1091,Note_on_c,9,35,7,
2,1091,Note_off_c,9,36,0,
2,1091,Note_on_c,9,38,3,
2,1091,Note_off_c,9,39,0,
2,1092,Note_on_c,9,35,7,
2,1092,Note_off_c,9,36,0,
2,1092,Note_on_c,9,38,3,
2,1092,Note_off_c,9,39,0,
2,1093,Note_on_c,9,35,7,
2,1093,Note_off_c,9,36,0,
2,1093,Note_on_c,9,38,3,
2,1093,Note_off_c,9,39,0,
2,1094,Note_on_c,9,35,7,
2,1094,Note_off_c,9,36,0,
2,1094,Note_on_c,9,38,3,
2,1094,Note_off_c,9,39,0,
2,1095,Note_on_c,9,35,7,
2,1095,Note_off_c,9,36,0,
2,1095,Note_on_c,9,38,3,
2,1095,Note_off_c,9,39,0,
2,1096,Note_on_c,9,35,7,
2,1096,Note_off_c,9,36,0,
2,1096,Note_on_c,9,38,3,
2,1096,Note_off_c,9,39,0,
2,1097,Note_on_c,9,35,7,
2,1097,Note_off_c,9,36,0,
2,1097,Note_on_c,9,38,3,
2,1097,Note_off_c,9,39,0,
2,1098,Note_on_c,9,35,7,
2,1098,Note_off_c,9,36,0,
2,1098,Note_on_c,9,38,3,
2,1098,Note_off_c,9,39,0,
2,1099,Note_on_c,9,35,7,
2,1099,Note_off_c,9,36,0,
2,1099,Note_on_c,9,38,3,
2,1099,Note_off_c,9,39,0,
2,1100,Note_on_c,9,35,7,
2,1100,Note_off_c,9,36,0,
2,1100,Note_on_c,9,38,3,
2,1100,Note_off_c,9,39,0,
2,1101,Note_on_c,9,35,7,
2,1101,Note_off_c,9,36,0,
2,1101,Note_on_c,9,38,3,
2,1101,Note_off_c,9,39,0,
2,1102,Note_on_c,9,35,7,
2,1102,Note_off_c,9,36,0,
2,1102,Note_on_c,9,38,3,
2,1102,Note_off_c,9,39,0,
2,1103,Note_on_c,9,35,7,
2,1103,Note_off_c,9,36,0,
2,1103,Note_on_c,9,38,3,
2,1103,Note_off_c,9,39,0,
2,1104,Note_on_c,9,35,7,
2,1104,Note_off_c,9,36,0,
2,1104,Note_on_c,9,38,3,
2,1104,Note_off_c,9,39,0,
2,1105,Note_on_c,9,35,7,
2,1105,Note_off_c,9,36,0,
2,1105,Note_on_c,9,38,3,
2,1105,Note_off_c,9,39,0,
2,1106,Note_on_c,9,35,7,
2,1106,Note_off_c,9,36,0,
2,1106,Note_on_c,9,38,3,
2,1106,Note_off_c,9,39,0,
2,1107,Note_on_c,9,35,7,
2,1107,Note_off_c,9,36,0,
2,1107,Note_on_c,9,38,3,
2,1107,Note_off_c,9,39,0,
2,1108,Note_on_c,9,35,7,
2,1108,Note_off_c,9,36,0,
2,1108,Note_on_c,9,38,3,
2,1108,Note_off_c,9,39,0,
2,1109,Note_on_c,9,35,7,
2,1109,Note_off_c,9,36,0,
2,1109,Note_on_c,9,38,3,
2,1109,Note_off_c,9,39,0,
2,1110,Note_on_c,9,35,7,
2,1110,Note_off_c,9,36,0,
2,1110,Note_on_c,9,38,3,
2,1110,Note_off_c,9,39,0,
2,1111,Note_on_c,9,35,7,
2,1111,Note_off_c,9,36,0,
2,1111,Note_on_c,9,38,3,
2,1111,Note_off_c,9,39,0,
2,1112,Note_on_c,9,35,7,
2,1112,Note_off_c,9,36,0,
2,1112,Note_on_c,9,38,3,
2,1112,Note_off_c,9,39,0,
2,1113,Note_on_c,9,35,7,
2,1113,Note_off_c,9,36,0,
2,1113,Note_on_c,9,38,3,
2,1113,Note_off_c,9,39,0,
2,1114,Note_on_c,9,35,7,
2,1114,Note_off_c,9,36,0,
2,1114,Note_on_c,9,38,3,
2,1114,Note_off_c,9,39,0,
2,1115,Note_on_c,9,35,7,
2,1115,Note_off_c,9,36,0,
2,1115,Note_on_c,9,38,3,
2,1115,Note_off_c,9,39,0,
2,1116,Note_on_c,9,35,7,
2,1116,Note_off_c,9,36,0,
2,1116,Note_on_c,9,38,3,
2,1116,Note_off_c,9,39,0,
2,1117,Note_on_c,9,35,7,
2,1117,Note_off_c,9,36,0,
2,1117,Note_on_c,9,38,3,
2,1117,Note_off_c,9,39,0,
2,1118,Note_on_c,9,35,7,
2,1118,Note_off_c,9,36,0,
2,1118,Note_on_c,9,38,3,
2,1118,Note_off_c,9,39,0,
2,1119,Note_on_c,9,35,7,
2,1119,Note_off_c,9,36,0,
2,1119,Note_on_c,9,38,3,
2,1119,Note_off_c,9,39,0,
2,1120,Note_on_c,9,35,7,
2,1120,Note_off_c,9,36,0,
2,1120,Note_on_c,9,38,3,
2,1120,Note_off_c,9,39,0,
2,1121,Note_on_c,9,35,7,
2,1121,Note_off_c,9,36,0,
2,1121,Note_on_c,9,38,3,
2,1121,Note_off_c,9,39,0,
2,1122,Note_on_c,9,35,7,
2,1122,Note_off_c,9,36,0,
2,1122,Note_on_c,9,38,3,
2,1122,Note_off_c,9,39,0,
2,1123,Note_on_c,9,35,7,
2,1123,Note_off_c,9,36,0,
2,1123,Note_on_c,9,38,3,
2,1123,Note_off_c,9,39,0,
2,1124,Note_on_c,9,35,7,
2,1124,Note_off_c,9,36,0,
2,1124,Note_on_c,9,38,3,
2,1124,Note_off_c,9,39,0,
2,1125,Note_on_c,9,35,7,
2,1125,Note_off_c,9,36,0,
2,1125,Note_on_c,9,38,3,
2,1125,Note_off_c,9,39,0,
2,1126,Note_on_c,9,35,7,
2,1126,Note_off_c,9,36,0,
2,1126,Note_on_c,9,38,3,
2,1126,Note_off_c,9,39,0,
2,1127,Note_on_c,9,35,7,
2,1127,Note_off_c,9,36,0,
2,1127,Note_on_c,9,38,3,
2,1127,Note_off_c,9,39,0,
2,1128,Note_on_c,9,35,7,
2,1128,Note_off_c,9,36,0,
2,1128,Note_on_c,9,38,3,
2,1128,Note_off_c,9,39,0,
2,1129,Note_on_c,9,35,7,
2,1129,Note_off_c,9,36,0,
2,1129,Note_on_c,9,38,3,
2,1129,Note_off_c,9,39,0,
2,1130,Note_on_c,9,35,7,
2,1130,Note_off_c,9,36,0,
2,1130,Note_on_c,9,38,3,
2,1130,Note_off_c,9,39,0,
2,1131,Note_on_c,9,35,7,
2,1131,Note_off_c,9,36,0,
2,1131,Note_on_c,9,38,3,
2,1131,Note_off_c,9,39,0,
2,1132,Note_on_c,9,35,7,
2,1132,Note_off_c,9,36,0,
2,1132,Note_on_c,9,38,3,
2,1132,Note_off_c,9,39,0,
2,1133,Note_on_c,9,35,7,
2,1133,Note_off_c,9,36,0,
2,1133,Note_on_c,9,38,3,
2,1133,Note_off_c,9,39,0,
2,1134,Note_on_c,9,35,7,
2,1134,Note_off_c,9,36,0,
2,1134,Note_on_c,9,38,3,
2,1134,Note_off_c,9,39,0,
2,1135,Note_on_c,9,35,7,
2,1135,Note_off_c,9,36,0,
2,1135,Note_on_c,9,38,3,
2,1135,Note_off_c,9,39,0,
2,1136,Note_on_c,9,35,7,
2,1136,Note_off_c,9,36,0,
2,1136,Note_on_c,9,38,3,
2,1136,Note_off_c,9,39,0,
2,1137,Note_on_c,9,35,7,
2,1137,Note_off_c,9,36,0,
2,1137,Note_on_c,9,38,3,
2,1137,Note_off_c,9,39,0,
2,1138,Note_on_c,9,35,7,
2,1138,Note_off_c,9,36,0,
2,1138,Note_on_c,9,38,3,
2,1138,Note_off_c,9,39,0,
2,1139,Note_on_c,9,35,7,
2,1139,Note_off_c,9,36,0,
2,1139,Note_on_c,9,38,3,
2,1139,Note_off_c,9,39,0,
2,1140,Note_on_c,9,35,7,
2,1140,Note_off_c,9,36,0,
2,1140,Note_on_c,9,38,3,
2,1140,Note_off_c,9,39,0,
2,1141,Note_on_c,9,35,7,
2,1141,Note_off_c,9,36,0,
2,1141,Note_on_c,9,38,3,
2,1141,Note_off_c,9,39,0,
2,1142,Note_on_c,9,35,7,
2,1142,Note_off_c,9,36,0,
2,1142,Note_on_c,9,38,3,
2,1142,Note_off_c,9,39,0,
2,1143,Note_on_c,9,35,7,
2,1143,Note_off_c,9,36,0,
2,1143,Note_on_c,9,38,3,
2,1143,Note_off_c,9,39,0,
2,1144,Note_on_c,9,35,7,
2,1144,Note_off_c,9,36,0,
2,1144,Note_on_c,9,38,3,
2,1144,Note_off_c,9,39,0,
2,1145,Note_on_c,9,35,7,
2,1145,Note_off_c,9,36,0,
2,1145,Note_on_c,9,38,3,
2,1145,Note_off_c,9,39,0,
2,1146,Note_on_c,9,35,7,
2,1146,Note_off_c,9,36,0,
2,1146,Note_on_c,9,38,3,
2,1146,Note_off_c,9,39,0,
2,1147,Note_on_c,9,35,7,
2,1147,Note_off_c,9,36,0,
2,1147,Note_on_c,9,38,3,
2,1147,Note_off_c,9,39,0,
2,1148,Note_on_c,9,35,7,
2,1148,Note_off_c,9,36,0,
2,1148,Note_on_c,9,38,3,
2,1148,Note_off_c,9,39,0,
2,1149,Note_on_c,9,35,7,
2,1149,Note_off_c,9,36,0,
2,1149,Note_on_c,9,38,3,
2,1149,Note_off_c,9,39,0,
2,1150,Note_on_c,9,35,7,
2,1150,Note_off_c,9,36,0,
2,1150,Note_on_c,9,38,3,
2,1150,Note_off_c,9,39,0,
2,1151,Note_on_c,9,35,7,
2,1151,Note_off_c,9,36,0,
2,1151,Note_on_c,9,38,3,
2,1151,Note_off_c,9,39,0,
2,1152,Note_on_c,9,35,7,
2,1152,Note_off_c,9,36,0,
2,1152,Note_on_c,9,38,3,
2,1152,Note_off_c,9,39,0,
2,1153,Note_on_c,9,35,7,
2,1153,Note_off_c,9,36,0,
2,1153,Note_on_c,9,38,3,
2,1153,Note_off_c,9,39,0,
2,1154,Note_on_c,9,35,7,
2,1154,Note_off_c,9,36,0,
2,1154,Note_on_c,9,38,3,
2,1154,Note_off_c,9,39,0,
2,1155,Note_on_c,9,35,7,
2,1155,Note_off_c,9,36,0,
2,1155,Note_on_c,9,38,3,
2,1155,Note_off_c,9,39,0,
2,1156,Note_on_c,9,35,7,
2,1156,Note_off_c,9,36,0,
2,1156,Note_on_c,9,38,3,
2,1156,Note_off_c,9,39,0,
2,1157,Note_on_c,9,35,7,
2,1157,Note_off_c,9,36,0,
2,1157,Note_on_c,9,38,3,
2,1157,Note_off_c,9,39,0,
2,1158,Note_on_c,9,35,7,
2,1158,Note_off_c,9,36,0,
2,1158,Note_on_c,9,38,3,
2,1158,Note_off_c,9,39,0,
2,1159,Note_on_c,9,35,7,
2,1159,Note_off_c,9,36,0,
2,1159,Note_on_c,9,38,3,
2,1159,Note_off_c,9,39,0,
2,1160,Note_on_c,9,35,7,
2,1160,Note_off_c,9,36,0,
2,1160,Note_on_c,9,38,3,
2,1160,Note_off_c,9,39,0,
2,1161,Note_on_c,9,35,7,
2,1161,Note_off_c,9,36,0,
2,1161,Note_on_c,9,38,3,
2,1161,Note_off_c,9,39,0,
2,1162,Note_on_c,9,35,7,
2,1162,Note_off_c,9,36,0,
2,1162,Note_on_c,9,38,3,
2,1162,Note_off_c,9,39,0,
2,1163,Note_on_c,9,35,7,
2,1163,Note_off_c,9,36,0,
2,1163,Note_on_c,9,38,3,
2,1163,Note_off_c,9,39,0,
2,1164,Note_on_c,9,35,7,
2,1164,Note_off_c,9,36,0,
2,1164,Note_on_c,9,38,3,
2,1164,Note_off_c,9,39,0,
2,1165,Note_on_c,9,35,7,
2,1165,Note_off_c,9,36,0,
2,1165,Note_on_c,9,38,3,
2,1165,Note_off_c,9,39,0,
2,1166,Note_on_c,9,35,7,
2,1166,Note_off_c,9,36,0,
2,1166,Note_on_c,9,38,3,
2,1166,Note_off_c,9,39,0,
2,1167,Note_on_c,9,35,7,
2,1167,Note_off_c,9,36,0,
2,1167,Note_on_c,9,38,3,
2,1167,Note_off_c,9,39,0,
2,1168,Note_on_c,9,35,7,
2,1168,Note_off_c,9,36,0,
2,1168,Note_on_c,9,38,3,
2,1168,Note_off_c,9,39,0,
2,1169,Note_on_c,9,35,7,
2,1169,Note_off_c,9,36,0,
2,1169,Note_on_c,9,38,3,
2,1169,Note_off_c,9,39,0,
2,1170,Note_on_c,9,35,7,
2,1170,Note_off_c,9,36,0,
2,1170,Note_on_c,9,38,3,
2,1170,Note_off_c,9,39,0,
2,1171,Note_on_c,9,35,7,
2,1171,Note_off_c,9,36,0,
2,1171,Note_on_c,9,38,3,
2,1171,Note_off_c,9,39,0,
2,1172,Note_on_c,9,35,7,
2,1172,Note_off_c,9,36,0,
2,1172,Note_on_c,9,38,3,
2,1172,Note_off_c,9,39,0,
2,1173,Note_on_c,9,35,7,
2,1173,Note_off_c,9,36,0,
2,1173,Note_on_c,9,38,3,
2,1173,Note_off_c,9,39,0,
2,1174,Note_on_c,9,35,7,
2,1174,Note_off_c,9,36,0,
2,1174,Note_on_c,9,38,3,
2,1174,Note_off_c,9,39,0,
2,1175,Note_on_c,9,35,7,
2,1175,Note_off_c,9,36,0,
2,1175,Note_on_c,9,38,3,
2,1175,Note_off_c,9,39,0,
2,1176,Note_on_c,9,35,7,
2,1176,Note_off_c,9,36,0,
2,1176,Note_on_c,9,38,3,
2,1176,Note_off_c,9,39,0,
2,1177,Note_on_c,9,35,7,
2,1177,Note_off_c,9,36,0,
2,1177,Note_on_c,9,38,3,
2,1177,Note_off_c,9,39,0,
2,1178,Note_on_c,9,35,7,
2,1178,Note_off_c,9,36,0,
2,1178,Note_on_c,9,38,3,
2,1178,Note_off_c,9,39,0,
2,1179,Note_on_c,9,35,7,
2,1179,Note_off_c,9,36,0,
2,1179,Note_on_c,9,38,3,
2,1179,Note_off_c,9,39,0,
2,1180,Note_on_c,9,35,7,
2,1180,Note_off_c,9,36,0,
2,1180,Note_on_c,9,38,3,
2,1180,Note_off_c,9,39,0,
2,1181,Note_on_c,9,35,7,
2,1181,Note_off_c,9,36,0,
2,1181,Note_on_c,9,38,3,
2,1181,Note_off_c,9,39,0,
2,1182,Note_on_c,9,35,7,
2,1182,Note_off_c,9,36,0,
2,1182,Note_on_c,9,38,3,
2,1182,Note_off_c,9,39,0,
2,1183,Note_on_c,9,35,7,
2,1183,Note_off_c,9,36,0,
2,1183,Note_on_c,9,38,3,
2,1183,Note_off_c,9,39,0,
2,1184,Note_on_c,9,35,7,
2,1184,Note_off_c,9,36,0,
2,1184,Note_on_c,9,38,3,
2,1184,Note_off_c,9,39,0,
2,1185,Note_on_c,9,35,7,
2,1185,Note_off_c,9,36,0,
2,1185,Note_on_c,9,38,3,
2,1185,Note_off_c,9,39,0,
2,1186,Note_on_c,9,35,7,
2,1186,Note_off_c,9,36,0,
2,1186,Note_on_c,9,38,3,
2,1186,Note_off_c,9,39,0,
2,1187,Note_on_c,9,35,7,
2,1187,Note_off_c,9,36,0,
2,1187,Note_on_c,9,38,3,
2,1187,Note_off_c,9,39,0,
2,1188,Note_on_c,9,35,7,
2,1188,Note_off_c,9,36,0,
2,1188,Note_on_c,9,38,3,
2,1188,Note_off_c,9,39,0,
2,1189,Note_on_c,9,35,7,
2,1189,Note_off_c,9,36,0,
2,1189,Note_on_c,9,38,3,
2,1189,Note_off_c,9,39,0,
2,1190,Note_on_c,9,35,7,
2,1190,Note_off_c,9,36,0,
2,1190,Note_on_c,9,38,3,
2,1190,Note_off_c,9,39,0,
2,1191,Note_on_c,9,35,7,
2,1191,Note_off_c,9,36,0,
2,1191,Note_on_c,9,38,3,
2,1191,Note_off_c,9,39,0,
2,1192,Note_on_c,9,35,7,
2,1192,Note_off_c,9,36,0,
2,1192,Note_on_c,9,38,3,
2,1192,Note_off_c,9,39,0,
2,1193,Note_on_c,9,35,7,
2,1193,Note_off_c,9,36,0,
2,1193,Note_on_c,9,38,3,
2,1193,Note_off_c,9,39,0,
2,1194,Note_on_c,9,35,7,
2,1194,Note_off_c,9,36,0,
2,1194,Note_on_c,9,38,3,
2,1194,Note_off_c,9,39,0,
2,1195,Note_on_c,9,35,7,
2,1195,Note_off_c,9,36,0,
2,1195,Note_on_c,9,38,3,
2,1195,Note_off_c,9,39,0,
2,1196,Note_on_c,9,35,7,
2,1196,Note_off_c,9,36,0,
2,1196,Note_on_c,9,38,3,
2,1196,Note_off_c,9,39,0,
2,1197,Note_on_c,9,35,7,
2,1197,Note_off_c,9,36,0,
2,1197,Note_on_c,9,38,3,
2,1197,Note_off_c,9,39,0,
2,1198,Note_on_c,9,35,7,
2,1198,Note_off_c,9,36,0,
2,1198,Note_on_c,9,38,3,
2,1198,Note_off_c,9,39,0,
2,1199,Note_on_c,9,35,7,
2,1199,Note_off_c,9,36,0,
2,1199,Note_on_c,9,38,3,
2,1199,Note_off_c,9,39,0,
2,1200,Note_on_c,9,35,7,
2,1200,Note_off_c,9,36,0,
2,1200,Note_on_c,9,38,3,
2,1200,Note_off_c,9,39,0,
2,1201,Note_on_c,9,35,7,
2,1201,Note_off_c,9,36,0,
2,1201,Note_on_c,9,38,3,
2,1201,Note_off_c,9,39,0,
2,1202,Note_on_c,9,35,7,
2,1202,Note_off_c,9,36,0,
2,1202,Note_on_c,9,38,3,
2,1202,Note_off_c,9,39,0,
2,1203,Note_on_c,9,35,7,
2,1203,Note_off_c,9,36,0,
2,1203,Note_on_c,9,38,3,
2,1203,Note_off_c,9,39,0,
2,1204,Note_on_c,9,35,7,
2,1204,Note_off_c,9,36,0,
2,1204,Note_on_c,9,38,3,
2,1204,Note_off_c,9,39,0,
2,1205,Note_on_c,9,35,7,
2,1205,Note_off_c,9,36,0,
2,1205,Note_on_c,9,38,3,
2,1205,Note_off_c,9,39,0,
2,1206,Note_on_c,9,35,7,
2,1206,Note_off_c,9,36,0,
2,1206,Note_on_c,9,38,3,
2,1206,Note_off_c,9,39,0,
2,1207,Note_on_c,9,35,7,
2,1207,Note_off_c,9,36,0,
2,1207,Note_on_c,9,38,3,
2,1207,Note_off_c,9,39,0,
2,1208,Note_on_c,9,35,7,
2,1208,Note_off_c,9,36,0,
2,1208,Note_on_c,9,38,3,
2,1208,Note_off_c,9,39,0,
2,1209,Note_on_c,9,35,7,
2,1209,Note_off_c,9,36,0,
2,1209,Note_on_c,9,38,3,
2,1209,Note_off_c,9,39,0,
2,1210,Note_on_c,9,35,7,
2,1210,Note_off_c,9,36,0,
2,1210,Note_on_c,9,38,3,
2,1210,Note_off_c,9,39,0,
2,1211,Note_on_c,9,35,7,
2,1211,Note_off_c,9,36,0,
2,1211,Note_on_c,9,38,3,
2,1211,Note_off_c,9,39,0,
2,1212,Note_on_c,9,35,7,
2,1212,Note_off_c,9,36,0,
2,1212,Note_on_c,9,38,3,
2,1212,Note_off_c,9,39,0,
2,1213,Note_on_c,9,35,7,
2,1213,Note_off_c,9,36,0,
2,1213,Note_on_c,9,38,3,
2,1213,Note_off_c,9,39,0,
2,1214,Note_on_c,9,35,7,
2,1214,Note_off_c,9,36,0,
2,1214,Note_on_c,9,38,3,
2,1214,Note_off_c,9,39,0,
2,1215,Note_on_c,9,35,7,
2,1215,Note_off_c,9,36,0,
2,1215,Note_on_c,9,38,3,
2,1215,Note_off_c,9,39,0,
2,1216,Note_on_c,9,35,7,
2,1216,Note_off_c,9,36,0,
2,1216,Note_on_c,9,38,3,
2,1216,Note_off_c,9,39,0,
2,1217,Note_on_c,9,35,7,
2,1217,Note_off_c,9,36,0,
2,1217,Note_on_c,9,38,3,
2,1217,Note_off_c,9,39,0,
2,1218,Note_on_c,9,35,7,
2,1218,Note_off_c,9,36,0,
2,1218,Note_on_c,9,38,3,
2,1218,Note_off_c,9,39,0,
2,1219,Note_on_c,9,35,7,
2,1219,Note_off_c,9,36,0,
2,1219,Note_on_c,9,38,3,
2,1219,Note_off_c,9,39,0,
2,1220,Note_on_c,9,35,7,
2,1220,Note_off_c,9,36,0,
2,1220,Note_on_c,9,38,3,
2,1220,Note_off_c,9,39,0,
2,1221,Note_on_c,9,35,7,
2,1221,Note_off_c,9,36,0,
2,1221,Note_on_c,9,38,3,
2,1221,Note_off_c,9,39,0,
2,1222,Note_on_c,9,35,7,
2,1222,Note_off_c,9,36,0,
2,1222,Note_on_c,9,38,3,
2,1222,Note_off_c,9,39,0,
2,1223,Note_on_c,9,35,7,
2,1223,Note_off_c,9,36,0,
2,1223,Note_on_c,9,38,3,
2,1223,Note_off_c,9,39,0,
2,1224,Note_on_c,9,35,7,
2,1224,Note_off_c,9,36,0,
2,1224,Note_on_c,9,38,3,
2,1224,Note_off_c,9,39,0,
2,1225,Note_on_c,9,35,7,
2,1225,Note_off_c,9,36,0,
2,1225,Note_on_c,9,38,3,
2,1225,Note_off_c,9,39,0,
2,1226,Note_on_c,9,35,7,
2,1226,Note_off_c,9,36,0,
2,1226,Note_on_c,9,38,3,
2,1226,Note_off_c,9,39,0,
2,1227,Note_on_c,9,35,7,
2,1227,Note_off_c,9,36,0,
2,1227,Note_on_c,9,38,3,
2,1227,Note_off_c,9,39,0,
2,1228,Note_on_c,9,35,7,
2,1228,Note_off_c,9,36,0,
2,1228,Note_on_c,9,38,3,
2,1228,Note_off_c,9,39,0,
2,1229,Note_on_c,9,35,7,
2,1229,Note_off_c,9,36,0,
2,1229,Note_on_c,9,38,3,
2,1229,Note_off_c,9,39,0,
2,1230,Note_on_c,9,35,7,
2,1230,Note_off_c,9,36,0,
2,1230,Note_on_c,9,38,3,
2,1230,Note_off_c,9,39,0,
2,1231,Note_on_c,9,35,7,
2,1231,Note_off_c,9,36,0,
2,1231,Note_on_c,9,38,3,
2,1231,Note_off_c,9,39,0,
2,1232,Note_on_c,9,35,7,
2,1232,Note_off_c,9,36,0,
2,1232,Note_on_c,9,38,3,
2,1232,Note_off_c,9,39,0,
2,1233,Note_on_c,9,35,7,
2,1233,Note_off_c,9,36,0,
2,1233,Note_on_c,9,38,3,
2,1233,Note_off_c,9,39,0,
2,1234,Note_on_c,9,35,7,
2,1234,Note_off_c,9,36,0,
2,1234,Note_on_c,9,38,3,
2,1234,Note_off_c,9,39,0,
2,1235,Note_on_c,9,35,7,
2,1235,Note_off_c,9,36,0,
2,1235,Note_on_c,9,38,3,
2,1235,Note_off_c,9,39,0,
2,1236,Note_on_c,9,35,7,
2,1236,Note_off_c,9,36,0,
2,1236,Note_on_c,9,38,3,
2,1236,Note_off_c,9,39,0,
2,1237,Note_on_c,9,35,7,
2,1237,Note_off_c,9,36,0,
2,1237,Note_on_c,9,38,3,
2,1237,Note_off_c,9,39,0,
2,1238,Note_on_c,9,35,7,
2,1238,Note_off_c,9,36,0,
2,1238,Note_on_c,9,38,3,
2,1238,Note_off_c,9,39,0,
2,1239,Note_on_c,9,35,7,
2,1239,Note_off_c,9,36,0,
2,1239,Note_on_c,9,38,3,
2,1239,Note_off_c,9,39,0,
2,1240,Note_on_c,9,35,7,
2,1240,Note_off_c,9,36,0,
2,1240,Note_on_c,9,38,3,
2,1240,Note_off_c,9,39,0,
2,1241,Note_on_c,9,35,7,
2,1241,Note_off_c,9,36,0,
2,1241,Note_on_c,9,38,3,
2,1241,Note_off_c,9,39,0,
2,1242,Note_on_c,9,35,7,
2,1242,Note_off_c,9,36,0,
2,1242,Note_on_c,9,38,3,
2,1242,Note_off_c,9,39,0,
2,1243,Note_on_c,9,35,7,
2,1243,Note_off_c,9,36,0,
2,1243,Note_on_c,9,38,3,
2,1243,Note_off_c,9,39,0,
2,1244,Note_on_c,9,35,7,
2,1244,Note_off_c,9,36,0,
2,1244,Note_on_c,9,38,3,
2,1244,Note_off_c,9,39,0,
2,1245,Note_on_c,9,35,7,
2,1245,Note_off_c,9,36,0,
2,1245,Note_on_c,9,38,3,
2,1245,Note_off_c,9,39,0,
2,1246,Note_on_c,9,35,7,
2,1246,Note_off_c,9,36,0,
2,1246,Note_on_c,9,38,3,
2,1246,Note_off_c,9,39,0,
2,1247,Note_on_c,9,35,7,
2,1247,Note_off_c,9,36,0,
2,1247,Note_on_c,9,38,3,
2,1247,Note_off_c,9,39,0,
2,1248,Note_on_c,9,35,7,
2,1248,Note_off_c,9,36,0,
2,1248,Note_on_c,9,38,3,
2,1248,Note_off_c,9,39,0,
2,1249,Note_on_c,9,35,7,
2,1249,Note_off_c,9,36,0,
2,1249,Note_on_c,9,38,3,
2,1249,Note_off_c,9,39,0,
2,1250,Note_on_c,9,35,7,
2,1250,Note_off_c,9,36,0,
2,1250,Note_on_c,9,38,3,
2,1250,Note_off_c,9,39,0,
2,1251,Note_on_c,9,35,7,
2,1251,Note_off_c,9,36,0,
2,1251,Note_on_c,9,38,3,
2,1251,Note_off_c,9,39,0,
2,1252,Note_on_c,9,35,7,
2,1252,Note_off_c,9,36,0,
2,1252,Note_on_c,9,38,3,
2,1252,Note_off_c,9,39,0,
2,1253,Note_on_c,9,35,7,
2,1253,Note_off_c,9,36,0,
2,1253,Note_on_c,9,38,3,
2,1253,Note_off_c,9,39,0,
2,1254,Note_on_c,9,35,7,
2,1254,Note_off_c,9,36,0,
2,1254,Note_on_c,9,38,3,
2,1254,Note_off_c,9,39,0,
2,1255,Note_on_c,9,35,7,
2,1255,Note_off_c,9,36,0,
2,1255,Note_on_c,9,38,3,
2,1255,Note_off_c,9,39,0,
2,1256,Note_on_c,9,35,7,
2,1256,Note_off_c,9,36,0,
2,1256,Note_on_c,9,38,3,
2,1256,Note_off_c,9,39,0,
2,1257,Note_on_c,9,35,7,
2,1257,Note_off_c,9,36,0,
2,1257,Note_on_c,9,38,3,
2,1257,Note_off_c,9,39,0,
2,1258,Note_on_c,9,35,7,
2,1258,Note_off_c,9,36,0,
2,1258,Note_on_c,9,38,3,
2,1258,Note_off_c,9,39,0,
2,1259,Note_on_c,9,35,7,
2,1259,Note_off_c,9,36,0,
2,1259,Note_on_c,9,38,3,
2,1259,Note_off_c,9,39,0,
2,1260,Note_on_c,9,35,7,
2,1260,Note_off_c,9,36,0,
2,1260,Note_on_c,9,38,3,
2,1260,Note_off_c,9,39,0,
2,1261,Note_on_c,9,35,7,
2,1261,Note_off_c,9,36,0,
2,1261,Note_on_c,9,38,3,
2,1261,Note_off_c,9,39,0,
2,1262,Note_on_c,9,35,7,
2,1262,Note_off_c,9,36,0,
2,1262,Note_on_c,9,38,3,
2,1262,Note_off_c,9,39,0,
2,1263,Note_on_c,9,35,7,
2,1263,Note_off_c,9,36,0,
2,1263,Note_on_c,9,38,3,
2,1263,Note_off_c,9,39,0,
2,1264,Note_on_c,9,35,7,
2,1264,Note_off_c,9,36,0,
2,1264,Note_on_c,9,38,3,
2,1264,Note_off_c,9,39,0,
2,1265,Note_on_c,9,35,7,
2,1265,Note_off_c,9,36,0,
2,1265,Note_on_c,9,38,3,
2,1265,Note_off_c,9,39,0,
2,1266,Note_on_c,9,35,7,
2,1266,Note_off_c,9,36,0,
2,1266,Note_on_c,9,38,3,
2,1266,Note_off_c,9,39,0,
2,1267,Note_on_c,9,35,7,
2,1267,Note_off_c,9,36,0,
2,1267,Note_on_c,9,38,3,
2,1267,Note_off_c,9,39,0,
2,1268,Note_on_c,9,35,7,
2,1268,Note_off_c,9,36,0,
2,1268,Note_on_c,9,38,3,
2,1268,Note_off_c,9,39,0,
2,1269,Note_on_c,9,35,7,
2,1269,Note_off_c,9,36,0,
2,1269,Note_on_c,9,38,3,
2,1269,Note_off_c,9,39,0,
2,1270,Note_on_c,9,35,7,
2,1270,Note_off_c,9,36,0,
2,1270,Note_on_c,9,38,3,
2,1270,Note_off_c,9,39,0,
2,1271,Note_on_c,9,35,7,
2,1271,Note_off_c,9,36,0,
2,1271,Note_on_c,9,38,3,
2,1271,Note_off_c,9,39,0,
2,1272,Note_on_c,9,35,7,
2,1272,Note_off_c,9,36,0,
2,1272,Note_on_c,9,38,3,
2,1272,Note_off_c,9,39,0,
2,1273,Note_on_c,9,35,7,
2,1273,Note_off_c,9,36,0,
2,1273,Note_on_c,9,38,3,
2,1273,Note_off_c,9,39,0,
2,1274,Note_on_c,9,35,7,
2,1274,Note_off_c,9,36,0,
2,1274,Note_on_c,9,38,3,
2,1274,Note_off_c,9,39,0,
2,1275,Note_on_c,9,35,7,
2,1275,Note_off_c,9,36,0,
2,1275,Note_on_c,9,38,3,
2,1275,Note_off_c,9,39,0,
2,1276,Note_on_c,9,35,7,
2,1276,Note_off_c,9,36,0,
2,1276,Note_on_c,9,38,3,
2,1276,Note_off_c,9,39,0,
2,1277,Note_on_c,9,35,7,
2,1277,Note_off_c,9,36,0,
2,1277,Note_on_c,9,38,3,
2,1277,Note_off_c,9,39,0,
2,1278,Note_on_c,9,35,7,
2,1278,Note_off_c,9,36,0,
2,1278,Note_on_c,9,38,3,
2,1278,Note_off_c,9,39,0,
2,1279,Note_on_c,9,35,7,
2,1279,Note_off_c,9,36,0,
2,1279,Note_on_c,9,38,3,
2,1279,Note_off_c,9,39,0,
2,1280,Note_on_c,9,35,7,
2,1280,Note_off_c,9,36,0,
2,1280,Note_on_c,9,38,3,
2,1280,Note_off_c,9,39,0,
2,1281,Note_on_c,9,35,7,
2,1281,Note_off_c,9,36,0,
2,1281,Note_on_c,9,38,3,
2,1281,Note_off_c,9,39,0,
2,1282,Note_on_c,9,35,7,
2,1282,Note_off_c,9,36,0,
2,1282,Note_on_c,9,38,3,
2,1282,Note_off_c,9,39,0,
2,1283,Note_on_c,9,35,7,
2,1283,Note_off_c,9,36,0,
2,1283,Note_on_c,9,38,3,
2,1283,Note_off_c,9,39,0,
2,1284,Note_on_c,9,35,7,
2,1284,Note_off_c,9,36,0,
2,1284,Note_on_c,9,38,3,
2,1284,Note_off_c,9,39,0,
2,1285,Note_on_c,9,35,7,
2,1285,Note_off_c,9,36,0,
2,1285,Note_on_c,9,38,3,
2,1285,Note_off_c,9,39,0,
2,1286,Note_on_c,9,35,7,
2,1286,Note_off_c,9,36,0,
2,1286,Note_on_c,9,38,3,
2,1286,Note_off_c,9,39,0,
2,1287,Note_on_c,9,35,7,
2,1287,Note_off_c,9,36,0,
2,1287,Note_on_c,9,38,3,
2,1287,Note_off_c,9,39,0,
2,1288,Note_on_c,9,35,7,
2,1288,Note_off_c,9,36,0,
2,1288,Note_on_c,9,38,3,
2,1288,Note_off_c,9,39,0,
2,1289,Note_on_c,9,35,7,
2,1289,Note_off_c,9,36,0,
2,1289,Note_on_c,9,38,3,
2,1289,Note_off_c,9,39,0,
2,1290,Note_on_c,9,35,7,
2,1290,Note_off_c,9,36,0,
2,1290,Note_on_c,9,38,3,
2,1290,Note_off_c,9,39,0,
2,1291,Note_on_c,9,35,7,
2,1291,Note_off_c,9,36,0,
2,1291,Note_on_c,9,38,3,
2,1291,Note_off_c,9,39,0,
2,1292,Note_on_c,9,35,7,
2,1292,Note_off_c,9,36,0,
2,1292,Note_on_c,9,38,3,
2,1292,Note_off_c,9,39,0,
2,1293,Note_on_c,9,35,7,
2,1293,Note_off_c,9,36,0,
2,1293,Note_on_c,9,38,3,
2,1293,Note_off_c,9,39,0,
2,1294,Note_on_c,9,35,7,
2,1294,Note_off_c,9,36,0,
2,1294,Note_on_c,9,38,3,
2,1294,Note_off_c,9,39,0,
2,1295,Note_on_c,9,35,7,
2,1295,Note_off_c,9,36,0,
2,1295,Note_on_c,9,38,3,
2,1295,Note_off_c,9,39,0,
2,1296,Note_on_c,9,35,7,
2,1296,Note_off_c,9,36,0,
2,1296,Note_on_c,9,38,3,
2,1296,Note_off_c,9,39,0,
2,1297,Note_on_c,9,35,7,
2,1297,Note_off_c,9,36,0,
2,1297,Note_on_c,9,38,3,
2,1297,Note_off_c,9,39,0,
2,1298,Note_on_c,9,35,7,
2,1298,Note_off_c,9,36,0,
2,1298,Note_on_c,9,38,3,
2,1298,Note_off_c,9,39,0,
2,1299,Note_on_c,9,35,7,
2,1299,Note_off_c,9,36,0,
2,1299,Note_on_c,9,38,3,
2,1299,Note_off_c,9,39,0,
2,1300,Note_on_c,9,35,7,
2,1300,Note_off_c,9,36,0,
2,1300,Note_on_c,9,38,3,
2,1300,Note_off_c,9,39,0,
2,1301,Note_on_c,9,35,7,
2,1301,Note_off_c,9,36,0,
2,1301,Note_on_c,9,38,3,
2,1301,Note_off_c,9,39,0,
2,1302,Note_on_c,9,35,7,
2,1302,Note_off_c,9,36,0,
2,1302,Note_on_c,9,38,3,
2,1302,Note_off_c,9,39,0,
2,1303,Note_on_c,9,35,7,
2,1303,Note_off_c,9,36,0,
2,1303,Note_on_c,9,38,3,
2,1303,Note_off_c,9,39,0,
2,1304,Note_on_c,9,35,7,
2,1304,Note_off_c,9,36,0,
2,1304,Note_on_c,9,38,3,
2,1304,Note_off_c,9,39,0,
2,1305,Note_on_c,9,35,7,
2,1305,Note_off_c,9,36,0,
2,1305,Note_on_c,9,38,3,
2,1305,Note_off_c,9,39,0,
2,1306,Note_on_c,9,35,7,
2,1306,Note_off_c,9,36,0,
2,1306,Note_on_c,9,38,3,
2,1306,Note_off_c,9,39,0,
2,1307,Note_on_c,9,35,7,
2,1307,Note_off_c,9,36,0,
2,1307,Note_on_c,9,38,3,
2,1307,Note_off_c,9,39,0,
2,1308,Note_on_c,9,35,7,
2,1308,Note_off_c,9,36,0,
2,1308,Note_on_c,9,38,3,
2,1308,Note_off_c,9,39,0,
2,1309,Note_on_c,9,35,7,
2,1309,Note_off_c,9,36,0,
2,1309,Note_on_c,9,38,3,
2,1309,Note_off_c,9,39,0,
2,1310,Note_on_c,9,35,7,
2,1310,Note_off_c,9,36,0,
2,1310,Note_on_c,9,38,3,
2,1310,Note_off_c,9,39,0,
2,1311,Note_on_c,9,35,7,
2,1311,Note_off_c,9,36,0,
2,1311,Note_on_c,9,38,3,
2,1311,Note_off_c,9,39,0,
2,1312,Note_on_c,9,35,7,
2,1312,Note_off_c,9,36,0,
2,1312,Note_on_c,9,38,3,
2,1312,Note_off_c,9,39,0,
2,1313,Note_on_c,9,35,7,
2,1313,Note_off_c,9,36,0,
2,1313,Note_on_c,9,38,3,
2,1313,Note_off_c,9,39,0,
2,1314,Note_on_c,9,35,7,
2,1314,Note_off_c,9,36,0,
2,1314,Note_on_c,9,38,3,
2,1314,Note_off_c,9,39,0,
2,1315,Note_on_c,9,35,7,
2,1315,Note_off_c,9,36,0,
2,1315,Note_on_c,9,38,3,
2,1315,Note_off_c,9,39,0,
2,1316,Note_on_c,9,35,7,
2,1316,Note_off_c,9,36,0,
2,1316,Note_on_c,9,38,3,
2,1316,Note_off_c,9,39,0,
2,1317,Note_on_c,9,35,7,
2,1317,Note_off_c,9,36,0,
2,1317,Note_on_c,9,38,3,
2,1317,Note_off_c,9,39,0,
2,1318,Note_on_c,9,35,7,
2,1318,Note_off_c,9,36,0,
2,1318,Note_on_c,9,38,3,
2,1318,Note_off_c,9,39,0,
2,1319,Note_on_c,9,35,7,
2,1319,Note_off_c,9,36,0,
2,1319,Note_on_c,9,38,3,
2,1319,Note_off_c,9,39,0,
2,1320,Note_on_c,9,35,7,
2,1320,Note_off_c,9,36,0,
2,1320,Note_on_c,9,38,3,
2,1320,Note_off_c,9,39,0,
2,1321,Note_on_c,9,35,7,
2,1321,Note_off_c,9,36,0,
2,1321,Note_on_c,9,38,3,
2,1321,Note_off_c,9,39,0,
2,1322,Note_on_c,9,35,7,
2,1322,Note_off_c,9,36,0,
2,1322,Note_on_c,9,38,3,
2,1322,Note_off_c,9,39,0,
2,1323,Note_on_c,9,35,7,
2,1323,Note_off_c,9,36,0,
2,1323,Note_on_c,9,38,3,
2,1323,Note_off_c,9,39,0,
2,1324,Note_on_c,9,35,7,
2,1324,Note_off_c,9,36,0,
2,1324,Note_on_c,9,38,3,
2,1324,Note_off_c,9,39,0,
2,1325,Note_on_c,9,35,7,
2,1325,Note_off_c,9,36,0,
2,1325,Note_on_c,9,38,3,
2,1325,Note_off_c,9,39,0,
2,1326,Note_on_c,9,35,7,
2,1326,Note_off_c,9,36,0,
2,1326,Note_on_c,9,38,3,
2,1326,Note_off_c,9,39,0,
2,1327,Note_on_c,9,35,7,
2,1327,Note_off_c,9,36,0,
2,1327,Note_on_c,9,38,3,
2,1327,Note_off_c,9,39,0,
2,1328,Note_on_c,9,35,7,
2,1328,Note_off_c,9,36,0,
2,1328,Note_on_c,9,38,3,
2,1328,Note_off_c,9,39,0,
2,1329,Note_on_c,9,35,7,
2,1329,Note_off_c,9,36,0,
2,1329,Note_on_c,9,38,3,
2,1329,Note_off_c,9,39,0,
2,1330,Note_on_c,9,35,7,
2,1330,Note_off_c,9,36,0,
2,1330,Note_on_c,9,38,3,
2,1330,Note_off_c,9,39,0,
2,1331,Note_on_c,9,35,7,
2,1331,Note_off_c,9,36,0,
2,1331,Note_on_c,9,38,3,
2,1331,Note_off_c,9,39,0,
2,1332,Note_on_c,9,35,7,
2,1332,Note_off_c,9,36,0,
2,1332,Note_on_c,9,38,3,
2,1332,Note_off_c,9,39,0,
2,1333,Note_on_c,9,35,7,
2,1333,Note_off_c,9,36,0,
2,1333,Note_on_c,9,38,3,
2,1333,Note_off_c,9,39,0,
2,1334,Note_on_c,9,35,7,
2,1334,Note_off_c,9,36,0,
2,1334,Note_on_c,9,38,3,
2,1334,Note_off_c,9,39,0,
2,1335,Note_on_c,9,35,7,
2,1335,Note_off_c,9,36,0,
2,1335,Note_on_c,9,38,3,
2,1335,Note_off_c,9,39,0,
2,1336,Note_on_c,9,35,7,
2,1336,Note_off_c,9,36,0,
2,1336,Note_on_c,9,38,3,
2,1336,Note_off_c,9,39,0,
2,1337,Note_on_c,9,35,7,
2,1337,Note_off_c,9,36,0,
2,1337,Note_on_c,9,38,3,
2,1337,Note_off_c,9,39,0,
2,1338,Note_on_c,9,35,7,
2,1338,Note_off_c,9,36,0,
2,1338,Note_on_c,9,38,3,
2,1338,Note_off_c,9,39,0,
2,1339,Note_on_c,9,35,7,
2,1339,Note_off_c,9,36,0,
2,1339,Note_on_c,9,38,3,
2,1339,Note_off_c,9,39,0,
2,1340,Note_on_c,9,35,7,
2,1340,Note_off_c,9,36,0,
2,1340,Note_on_c,9,38,3,
2,1340,Note_off_c,9,39,0,
2,1341,Note_on_c,9,35,7,
2,1341,Note_off_c,9,36,0,
2,1341,Note_on_c,9,38,3,
2,1341,Note_off_c,9,39,0,
2,1342,Note_on_c,9,35,7,
2,1342,Note_off_c,9,36,0,
2,1342,Note_on_c,9,38,3,
2,1342,Note_off_c,9,39,0,
2,1343,Note_on_c,9,35,7,
2,1343,Note_off_c,9,36,0,
2,1343,Note_on_c,9,38,3,
2,1343,Note_off_c,9,39,0,
2,1344,Note_on_c,9,35,7,
2,1344,Note_off_c,9,36,0,
2,1344,Note_on_c,9,38,3,
2,1344,Note_off_c,9,39,0,
2,1345,Note_on_c,9,35,7,
2,1345,Note_off_c,9,36,0,
2,1345,Note_on_c,9,38,3,
2,1345,Note_off_c,9,39,0,
2,1346,Note_on_c,9,35,7,
2,1346,Note_off_c,9,36,0,
2,1346,Note_on_c,9,38,3,
2,1346,Note_off_c,9,39,0,
2,1347,Note_on_c,9,35,7,
2,1347,Note_off_c,9,36,0,
2,1347,Note_on_c,9,38,3,
2,1347,Note_off_c,9,39,0,
2,1348,Note_on_c,9,35,7,
2,1348,Note_off_c,9,36,0,
2,1348,Note_on_c,9,38,3,
2,1348,Note_off_c,9,39,0,
2,1349,Note_on_c,9,35,7,
2,1349,Note_off_c,9,36,0,
2,1349,Note_on_c,9,38,3,
2,1349,Note_off_c,9,39,0,
2,1350,Note_on_c,9,35,7,
2,1350,Note_off_c,9,36,0,
2,1350,Note_on_c,9,38,3,
2,1350,Note_off_c,9,39,0,
2,1351,Note_on_c,9,35,7,
2,1351,Note_off_c,9,36,0,
2,1351,Note_on_c,9,38,3,
2,1351,Note_off_c,9,39,0,
2,1352,Note_on_c,9,35,7,
2,1352,Note_off_c,9,36,0,
2,1352,Note_on_c,9,38,3,
2,1352,Note_off_c,9,39,0,
2,1353,Note_on_c,9,35,7,
2,1353,Note_off_c,9,36,0,
2,1353,Note_on_c,9,38,3,
2,1353,Note_off_c,9,39,0,
2,1354,Note_on_c,9,35,7,
2,1354,Note_off_c,9,36,0,
2,1354,Note_on_c,9,38,3,
2,1354,Note_off_c,9,39,0,
2,1355,Note_on_c,9,35,7,
2,1355,Note_off_c,9,36,0,
2,1355,Note_on_c,9,38,3,
2,1355,Note_off_c,9,39,0,
2,1356,Note_on_c,9,35,7,
2,1356,Note_off_c,9,36,0,
2,1356,Note_on_c,9,38,3,
2,1356,Note_off_c,9,39,0,
2,1357,Note_on_c,9,35,7,
2,1357,Note_off_c,9,36,0,
2,1357,Note_on_c,9,38,3,
2,1357,Note_off_c,9,39,0,
2,1358,Note_on_c,9,35,7,
2,1358,Note_off_c,9,36,0,
2,1358,Note_on_c,9,38,3,
2,1358,Note_off_c,9,39,0,
2,1359,Note_on_c,9,35,7,
2,1359,Note_off_c,9,36,0,
2,1359,Note_on_c,9,38,3,
2,1359,Note_off_c,9,39,0,
2,1360,Note_on_c,9,35,7,
2,1360,Note_off_c,9,36,0,
2,1360,Note_on_c,9,38,3,
2,1360,Note_off_c,9,39,0,
2,1361,Note_on_c,9,35,7,
2,1361,Note_off_c,9,36,0,
2,1361,Note_on_c,9,38,3,
2,1361,Note_off_c,9,39,0,
2,1362,Note_on_c,9,35,7,
2,1362,Note_off_c,9,36,0,
2,1362,Note_on_c,9,38,3,
2,1362,Note_off_c,9,39,0,
2,1363,Note_on_c,9,35,7,
2,1363,Note_off_c,9,36,0,
2,1363,Note_on_c,9,38,3,
2,1363,Note_off_c,9,39,0,
2,1364,Note_on_c,9,35,7,
2,1364,Note_off_c,9,36,0,
2,1364,Note_on_c,9,38,3,
2,1364,Note_off_c,9,39,0,
2,1365,Note_on_c,9,35,7,
2,1365,Note_off_c,9,36,0,
2,1365,Note_on_c,9,38,3,
2,1365,Note_off_c,9,39,0,
2,1366,Note_on_c,9,35,7,
2,1366,Note_off_c,9,36,0,
2,1366,Note_on_c,9,38,3,
2,1366,Note_off_c,9,39,0,
2,1367,Note_on_c,9,35,7,
2,1367,Note_off_c,9,36,0,
2,1367,Note_on_c,9,38,3,
2,1367,Note_off_c,9,39,0,
2,1368,Note_on_c,9,35,7,
2,1368,Note_off_c,9,36,0,
2,1368,Note_on_c,9,38,3,
2,1368,Note_off_c,9,39,0,
2,1369,Note_on_c,9,35,7,
2,1369,Note_off_c,9,36,0,
2,1369,Note_on_c,9,38,3,
2,1369,Note_off_c,9,39,0,
2,1370,Note_on_c,9,35,7,
2,1370,Note_off_c,9,36,0,
2,1370,Note_on_c,9,38,3,
2,1370,Note_off_c,9,39,0,
2,1371,Note_on_c,9,35,7,
2,1371,Note_off_c,9,36,0,
2,1371,Note_on_c,9,38,3,
2,1371,Note_off_c,9,39,0,
2,1372,Note_on_c,9,35,7,
2,1372,Note_off_c,9,36,0,
2,1372,Note_on_c,9,38,3,
2,1372,Note_off_c,9,39,0,
2,1373,Note_on_c,9,35,7,
2,1373,Note_off_c,9,36,0,
2,1373,Note_on_c,9,38,3,
2,1373,Note_off_c,9,39,0,
2,1374,Note_on_c,9,35,7,
2,1374,Note_off_c,9,36,0,
2,1374,Note_on_c,9,38,3,
2,1374,Note_off_c,9,39,0,
2,1375,Note_on_c,9,35,7,
2,1375,Note_off_c,9,36,0,
2,1375,Note_on_c,9,38,3,
2,1375,Note_off_c,9,39,0,
2,1376,Note_on_c,9,35,7,
2,1376,Note_off_c,9,36,0,
2,1376,Note_on_c,9,38,3,
2,1376,Note_off_c,9,39,0,
2,1377,Note_on_c,9,35,7,
2,1377,Note_off_c,9,36,0,
2,1377,Note_on_c,9,38,3,
2,1377,Note_off_c,9,39,0,
2,1378,Note_on_c,9,35,7,
2,1378,Note_off_c,9,36,0,
2,1378,Note_on_c,9,38,3,
2,1378,Note_off_c,9,39,0,
2,1379,Note_on_c,9,35,7,
2,1379,Note_off_c,9,36,0,
2,1379,Note_on_c,9,38,3,
2,1379,Note_off_c,9,39,0,
2,1380,Note_on_c,9,35,7,
2,1380,Note_off_c,9,36,0,
2,1380,Note_on_c,9,38,3,
2,1380,Note_off_c,9,39,0,
2,1381,Note_on_c,9,35,7,
2,1381,Note_off_c,9,36,0,
2,1381,Note_on_c,9,38,3,
2,1381,Note_off_c,9,39,0,
2,1382,Note_on_c,9,35,7,
2,1382,Note_off_c,9,36,0,
2,1382,Note_on_c,9,38,3,
2,1382,Note_off_c,9,39,0,
2,1383,Note_on_c,9,35,7,
2,1383,Note_off_c,9,36,0,
2,1383,Note_on_c,9,38,3,
2,1383,Note_off_c,9,39,0,
2,1384,Note_on_c,9,35,7,
2,1384,Note_off_c,9,36,0,
2,1384,Note_on_c,9,38,3,
2,1384,Note_off_c,9,39,0,
2,1385,Note_on_c,9,35,7,
2,1385,Note_off_c,9,36,0,
2,1385,Note_on_c,9,38,3,
2,1385,Note_off_c,9,39,0,
2,1386,Note_on_c,9,35,7,
2,1386,Note_off_c,9,36,0,
2,1386,Note_on_c,9,38,3,
2,1386,Note_off_c,9,39,0,
2,1387,Note_on_c,9,35,7,
2,1387,Note_off_c,9,36,0,
2,1387,Note_on_c,9,38,3,
2,1387,Note_off_c,9,39,0,
2,1388,Note_on_c,9,35,7,
2,1388,Note_off_c,9,36,0,
2,1388,Note_on_c,9,38,3,
2,1388,Note_off_c,9,39,0,
2,1389,Note_on_c,9,35,7,
2,1389,Note_off_c,9,36,0,
2,1389,Note_on_c,9,38,3,
2,1389,Note_off_c,9,39,0,
2,1390,Note_on_c,9,35,7,
2,1390,Note_off_c,9,36,0,
2,1390,Note_on_c,9,38,3,
2,1390,Note_off_c,9,39,0,
2,1391,Note_on_c,9,35,7,
2,1391,Note_off_c,9,36,0,
2,1391,Note_on_c,9,38,3,
2,1391,Note_off_c,9,39,0,
2,1392,Note_on_c,9,35,7,
2,1392,Note_off_c,9,36,0,
2,1392,Note_on_c,9,38,3,
2,1392,Note_off_c,9,39,0,
2,1393,Note_on_c,9,35,7,
2,1393,Note_off_c,9,36,0,
2,1393,Note_on_c,9,38,3,
2,1393,Note_off_c,9,39,0,
2,1394,Note_on_c,9,35,7,
2,1394,Note_off_c,9,36,0,
2,1394,Note_on_c,9,38,3,
2,1394,Note_off_c,9,39,0,
2,1395,Note_on_c,9,35,7,
2,1395,Note_off_c,9,36,0,
2,1395,Note_on_c,9,38,3,
2,1395,Note_off_c,9,39,0,
2,1396,Note_on_c,9,35,7,
2,1396,Note_off_c,9,36,0,
2,1396,Note_on_c,9,38,3,
2,1396,Note_off_c,9,39,0,
2,1397,Note_on_c,9,35,7,
2,1397,Note_off_c,9,36,0,
2,1397,Note_on_c,9,38,3,
2,1397,Note_off_c,9,39,0,
2,1398,Note_on_c,9,35,7,
2,1398,Note_off_c,9,36,0,
2,1398,Note_on_c,9,38,3,
2,1398,Note_off_c,9,39,0,
2,1399,Note_on_c,9,35,7,
2,1399,Note_off_c,9,36,0,
2,1399,Note_on_c,9,38,3,
2,1399,Note_off_c,9,39,0,
2,1400,Note_on_c,9,35,7,
2,1400,Note_off_c,9,36,0,
2,1400,Note_on_c,9,38,3,
2,1400,Note_off_c,9,39,0,
2,1401,Note_on_c,9,35,7,
2,1401,Note_off_c,9,36,0,
2,1401,Note_on_c,9,38,3,
2,1401,Note_off_c,9,39,0,
2,1402,Note_on_c,9,35,7,
2,1402,Note_off_c,9,36,0,
2,1402,Note_on_c,9,38,3,
2,1402,Note_off_c,9,39,0,
2,1403,Note_on_c,9,35,7,
2,1403,Note_off_c,9,36,0,
2,1403,Note_on_c,9,38,3,
2,1403,Note_off_c,9,39,0,
2,1404,Note_on_c,9,35,7,
2,1404,Note_off_c,9,36,0,
2,1404,Note_on_c,9,38,3,
2,1404,Note_off_c,9,39,0,
2,1405,Note_on_c,9,35,7,
2,1405,Note_off_c,9,36,0,
2,1405,Note_on_c,9,38,3,
2,1405,Note_off_c,9,39,0,
2,1406,Note_on_c,9,35,7,
2,1406,Note_off_c,9,36,0,
2,1406,Note_on_c,9,38,3,
2,1406,Note_off_c,9,39,0,
2,1407,Note_on_c,9,35,7,
2,1407,Note_off_c,9,36,0,
2,1407,Note_on_c,9,38,3,
2,1407,Note_off_c,9,39,0,
2,1408,Note_on_c,9,35,7,
2,1408,Note_off_c,9,36,0,
2,1408,Note_on_c,9,38,3,
2,1408,Note_off_c,9,39,0,
2,1409,Note_on_c,9,35,7,
2,1409,Note_off_c,9,36,0,
2,1409,Note_on_c,9,38,3,
2,1409,Note_off_c,9,39,0,
2,1410,Note_on_c,9,35,7,
2,1410,Note_off_c,9,36,0,
2,1410,Note_on_c,9,38,3,
2,1410,Note_off_c,9,39,0,
2,1411,Note_on_c,9,35,7,
2,1411,Note_off_c,9,36,0,
2,1411,Note_on_c,9,38,3,
2,1411,Note_off_c,9,39,0,
2,1412,Note_on_c,9,35,7,
2,1412,Note_off_c,9,36,0,
2,1412,Note_on_c,9,38,3,
2,1412,Note_off_c,9,39,0,
2,1413,Note_on_c,9,35,7,
2,1413,Note_off_c,9,36,0,
2,1413,Note_on_c,9,38,3,
2,1413,Note_off_c,9,39,0,
2,1414,Note_on_c,9,35,7,
2,1414,Note_off_c,9,36,0,
2,1414,Note_on_c,9,38,3,
2,1414,Note_off_c,9,39,0,
2,1415,Note_on_c,9,35,7,
2,1415,Note_off_c,9,36,0,
2,1415,Note_on_c,9,38,3,
2,1415,Note_off_c,9,39,0,
2,1416,Note_on_c,9,35,7,
2,1416,Note_off_c,9,36,0,
2,1416,Note_on_c,9,38,3,
2,1416,Note_off_c,9,39,0,
2,1417,Note_on_c,9,35,7,
2,1417,Note_off_c,9,36,0,
2,1417,Note_on_c,9,38,3,
2,1417,Note_off_c,9,39,0,
2,1418,Note_on_c,9,35,7,
2,1418,Note_off_c,9,36,0,
2,1418,Note_on_c,9,38,3,
2,1418,Note_off_c,9,39,0,
2,1419,Note_on_c,9,35,7,
2,1419,Note_off_c,9,36,0,
2,1419,Note_on_c,9,38,3,
2,1419,Note_off_c,9,39,0,
2,1420,Note_on_c,9,35,7,
2,1420,Note_off_c,9,36,0,
2,1420,Note_on_c,9,38,3,
2,1420,Note_off_c,9,39,0,
2,1421,Note_on_c,9,35,7,
2,1421,Note_off_c,9,36,0,
2,1421,Note_on_c,9,38,3,
2,1421,Note_off_c,9,39,0,
2,1422,Note_on_c,9,35,7,
2,1422,Note_off_c,9,36,0,
2,1422,Note_on_c,9,38,3,
2,1422,Note_off_c,9,39,0,
2,1423,Note_on_c,9,35,7,
2,1423,Note_off_c,9,36,0,
2,1423,Note_on_c,9,38,3,
2,1423,Note_off_c,9,39,0,
2,1424,Note_on_c,9,35,7,
2,1424,Note_off_c,9,36,0,
2,1424,Note_on_c,9,38,3,
2,1424,Note_off_c,9,39,0,
2,1425,Note_on_c,9,35,7,
2,1425,Note_off_c,9,36,0,
2,1425,Note_on_c,9,38,3,
2,1425,Note_off_c,9,39,0,
2,1426,Note_on_c,9,35,7,
2,1426,Note_off_c,9,36,0,
2,1426,Note_on_c,9,38,3,
2,1426,Note_off_c,9,39,0,
2,1427,Note_on_c,9,35,7,
2,1427,Note_off_c,9,36,0,
2,1427,Note_on_c,9,38,3,
2,1427,Note_off_c,9,39,0,
2,1428,Note_on_c,9,35,7,
2,1428,Note_off_c,9,36,0,
2,1428,Note_on_c,9,38,3,
2,1428,Note_off_c,9,39,0,
2,1429,Note_on_c,9,35,7,
2,1429,Note_off_c,9,36,0,
2,1429,Note_on_c,9,38,3,
2,1429,Note_off_c,9,39,0,
2,1430,Note_on_c,9,35,7,
2,1430,Note_off_c,9,36,0,
2,1430,Note_on_c,9,38,3,
2,1430,Note_off_c,9,39,0,
2,1431,Note_on_c,9,35,7,
2,1431,Note_off_c,9,36,0,
2,1431,Note_on_c,9,38,3,
2,1431,Note_off_c,9,39,0,
2,1432,Note_on_c,9,35,7,
2,1432,Note_off_c,9,36,0,
2,1432,Note_on_c,9,38,3,
2,1432,Note_off_c,9,39,0,
2,1433,Note_on_c,9,35,7,
2,1433,Note_off_c,9,36,0,
2,1433,Note_on_c,9,38,3,
2,1433,Note_off_c,9,39,0,
2,1434,Note_on_c,9,35,7,
2,1434,Note_off_c,9,36,0,
2,1434,Note_on_c,9,38,3,
2,1434,Note_off_c,9,39,0,
2,1435,Note_on_c,9,35,7,
2,1435,Note_off_c,9,36,0,
2,1435,Note_on_c,9,38,3,
2,1435,Note_off_c,9,39,0,
2,1436,Note_on_c,9,35,7,
2,1436,Note_off_c,9,36,0,
2,1436,Note_on_c,9,38,3,
2,1436,Note_off_c,9,39,0,
2,1437,Note_on_c,9,35,7,
2,1437,Note_off_c,9,36,0,
2,1437,Note_on_c,9,38,3,
2,1437,Note_off_c,9,39,0,
2,1438,Note_on_c,9,35,7,
2,1438,Note_off_c,9,36,0,
2,1438,Note_on_c,9,38,3,
2,1438,Note_off_c,9,39,0,
2,1439,Note_on_c,9,35,7,
2,1439,Note_off_c,9,36,0,
2,1439,Note_on_c,9,38,3,
2,1439,Note_off_c,9,39,0,
2,1440,Note_on_c,9,35,7,
2,1440,Note_off_c,9,36,0,
2,1440,Note_on_c,9,38,3,
2,1440,Note_off_c,9,39,0,
2,1441,Note_on_c,9,35,7,
2,1441,Note_off_c,9,36,0,
2,1441,Note_on_c,9,38,3,
2,1441,Note_off_c,9,39,0,
2,1442,Note_on_c,9,35,7,
2,1442,Note_off_c,9,36,0,
2,1442,Note_on_c,9,38,3,
2,1442,Note_off_c,9,39,0,
2,1443,Note_on_c,9,35,7,
2,1443,Note_off_c,9,36,0,
2,1443,Note_on_c,9,38,3,
2,1443,Note_off_c,9,39,0,
2,1444,Note_on_c,9,35,7,
2,1444,Note_off_c,9,36,0,
2,1444,Note_on_c,9,38,3,
2,1444,Note_off_c,9,39,0,
2,1445,Note_on_c,9,35,7,
2,1445,Note_off_c,9,36,0,
2,1445,Note_on_c,9,38,3,
2,1445,Note_off_c,9,39,0,
2,1446,Note_on_c,9,35,7,
2,1446,Note_off_c,9,36,0,
2,1446,Note_on_c,9,38,3,
2,1446,Note_off_c,9,39,0,
2,1447,Note_on_c,9,35,7,
2,1447,Note_off_c,9,36,0,
2,1447,Note_on_c,9,38,3,
2,1447,Note_off_c,9,39,0,
2,1448,Note_on_c,9,35,7,
2,1448,Note_off_c,9,36,0,
2,1448,Note_on_c,9,38,3,
2,1448,Note_off_c,9,39,0,
2,1449,Note_on_c,9,35,7,
2,1449,Note_off_c,9,36,0,
2,1449,Note_on_c,9,38,3,
2,1449,Note_off_c,9,39,0,
2,1450,Note_on_c,9,35,7,
2,1450,Note_off_c,9,36,0,
2,1450,Note_on_c,9,38,3,
2,1450,Note_off_c,9,39,0,
2,1451,Note_on_c,9,35,7,
2,1451,Note_off_c,9,36,0,
2,1451,Note_on_c,9,38,3,
2,1451,Note_off_c,9,39,0,
2,1452,Note_on_c,9,35,7,
2,1452,Note_off_c,9,36,0,
2,1452,Note_on_c,9,38,3,
2,1452,Note_off_c,9,39,0,
2,1453,Note_on_c,9,35,7,
2,1453,Note_off_c,9,36,0,
2,1453,Note_on_c,9,38,3,
2,1453,Note_off_c,9,39,0,
2,1454,Note_on_c,9,35,7,
2,1454,Note_off_c,9,36,0,
2,1454,Note_on_c,9,38,3,
2,1454,Note_off_c,9,39,0,
2,1455,Note_on_c,9,35,7,
2,1455,Note_off_c,9,36,0,
2,1455,Note_on_c,9,38,3,
2,1455,Note_off_c,9,39,0,
2,1456,Note_on_c,9,35,7,
2,1456,Note_off_c,9,36,0,
2,1456,Note_on_c,9,38,3,
2,1456,Note_off_c,9,39,0,
2,1457,Note_on_c,9,35,7,
2,1457,Note_off_c,9,36,0,
2,1457,Note_on_c,9,38,3,
2,1457,Note_off_c,9,39,0,
2,1458,Note_on_c,9,35,7,
2,1458,Note_off_c,9,36,0,
2,1458,Note_on_c,9,38,3,
2,1458,Note_off_c,9,39,0,
2,1459,Note_on_c,9,35,7,
2,1459,Note_off_c,9,36,0,
2,1459,Note_on_c,9,38,3,
2,1459,Note_off_c,9,39,0,
2,1460,Note_on_c,9,35,7,
2,1460,Note_off_c,9,36,0,
2,1460,Note_on_c,9,38,3,
2,1460,Note_off_c,9,39,0,
2,1461,Note_on_c,9,35,7,
2,1461,Note_off_c,9,36,0,
2,1461,Note_on_c,9,38,3,
2,1461,Note_off_c,9,39,0,
2,1462,Note_on_c,9,35,7,
2,1462,Note_off_c,9,36,0,
2,1462,Note_on_c,9,38,3,
2,1462,Note_off_c,9,39,0,
2,1463,Note_on_c,9,35,7,
2,1463,Note_off_c,9,36,0,
2,1463,Note_on_c,9,38,3,
2,1463,Note_off_c,9,39,0,
2,1464,Note_on_c,9,35,7,
2,1464,Note_off_c,9,36,0,
2,1464,Note_on_c,9,38,3,
2,1464,Note_off_c,9,39,0,
2,1465,Note_on_c,9,35,7,
2,1465,Note_off_c,9,36,0,
2,1465,Note_on_c,9,38,3,
2,1465,Note_off_c,9,39,0,
2,1466,Note_on_c,9,35,7,
2,1466,Note_off_c,9,36,0,
2,1466,Note_on_c,9,38,3,
2,1466,Note_off_c,9,39,0,
2,1467,Note_on_c,9,35,7,
2,1467,Note_off_c,9,36,0,
2,1467,Note_on_c,9,38,3,
2,1467,Note_off_c,9,39,0,
2,1468,Note_on_c,9,35,7,
2,1468,Note_off_c,9,36,0,
2,1468,Note_on_c,9,38,3,
2,1468,Note_off_c,9,39,0,
2,1469,Note_on_c,9,35,7,
2,1469,Note_off_c,9,36,0,
2,1469,Note_on_c,9,38,3,
2,1469,Note_off_c,9,39,0,
2,1470,Note_on_c,9,35,7,
2,1470,Note_off_c,9,36,0,
2,1470,Note_on_c,9,38,3,
2,1470,Note_off_c,9,39,0,
2,1471,Note_on_c,9,35,7,
2,1471,Note_off_c,9,36,0,
2,1471,Note_on_c,9,38,3,
2,1471,Note_off_c,9,39,0,
2,1472,Note_on_c,9,35,7,
2,1472,Note_off_c,9,36,0,
2,1472,Note_on_c,9,38,3,
2,1472,Note_off_c,9,39,0,
2,1473,Note_on_c,9,35,7,
2,1473,Note_off_c,9,36,0,
2,1473,Note_on_c,9,38,3,
2,1473,Note_off_c,9,39,0,
2,1474,Note_on_c,9,35,7,
2,1474,Note_off_c,9,36,0,
2,1474,Note_on_c,9,38,3,
2,1474,Note_off_c,9,39,0,
2,1475,Note_on_c,9,35,7,
2,1475,Note_off_c,9,36,0,
2,1475,Note_on_c,9,38,3,
2,1475,Note_off_c,9,39,0,
2,1476,Note_on_c,9,35,7,
2,1476,Note_off_c,9,36,0,
2,1476,Note_on_c,9,38,3,
2,1476,Note_off_c,9,39,0,
2,1477,Note_on_c,9,35,7,
2,1477,Note_off_c,9,36,0,
2,1477,Note_on_c,9,38,3,
2,1477,Note_off_c,9,39,0,
2,1478,Note_on_c,9,35,7,
2,1478,Note_off_c,9,36,0,
2,1478,Note_on_c,9,38,3,
2,1478,Note_off_c,9,39,0,
2,1479,Note_on_c,9,35,7,
2,1479,Note_off_c,9,36,0,
2,1479,Note_on_c,9,38,3,
2,1479,Note_off_c,9,39,0,
2,1480,Note_on_c,9,35,7,
2,1480,Note_off_c,9,36,0,
2,1480,Note_on_c,9,38,3,
2,1480,Note_off_c,9,39,0,
2,1481,Note_on_c,9,35,7,
2,1481,Note_off_c,9,36,0,
2,1481,Note_on_c,9,38,3,
2,1481,Note_off_c,9,39,0,
2,1482,Note_on_c,9,35,7,
2,1482,Note_off_c,9,36,0,
2,1482,Note_on_c,9,38,3,
2,1482,Note_off_c,9,39,0,
2,1483,Note_on_c,9,35,7,
2,1483,Note_off_c,9,36,0,
2,1483,Note_on_c,9,38,3,
2,1483,Note_off_c,9,39,0,
2,1484,Note_on_c,9,35,7,
2,1484,Note_off_c,9,36,0,
2,1484,Note_on_c,9,38,3,
2,1484,Note_off_c,9,39,0,
2,1485,Note_on_c,9,35,7,
2,1485,Note_off_c,9,36,0,
2,1485,Note_on_c,9,38,3,
2,1485,Note_off_c,9,39,0,
2,1486,Note_on_c,9,35,7,
2,1486,Note_off_c,9,36,0,
2,1486,Note_on_c,9,38,3,
2,1486,Note_off_c,9,39,0,
2,1487,Note_on_c,9,35,7,
2,1487,Note_off_c,9,36,0,
2,1487,Note_on_c,9,38,3,
2,1487,Note_off_c,9,39,0,
2,1488,Note_on_c,9,35,7,
2,1488,Note_off_c,9,36,0,
2,1488,Note_on_c,9,38,3,
2,1488,Note_off_c,9,39,0,
2,1489,Note_on_c,9,35,7,
2,1489,Note_off_c,9,36,0,
2,1489,Note_on_c,9,38,3,
2,1489,Note_off_c,9,39,0,
2,1490,Note_on_c,9,35,7,
2,1490,Note_off_c,9,36,0,
2,1490,Note_on_c,9,38,3,
2,1490,Note_off_c,9,39,0,
2,1491,Note_on_c,9,35,7,
2,1491,Note_off_c,9,36,0,
2,1491,Note_on_c,9,38,3,
2,1491,Note_off_c,9,39,0,
2,1492,Note_on_c,9,35,7,
2,1492,Note_off_c,9,36,0,
2,1492,Note_on_c,9,38,3,
2,1492,Note_off_c,9,39,0,
2,1493,Note_on_c,9,35,7,
2,1493,Note_off_c,9,36,0,
2,1493,Note_on_c,9,38,3,
2,1493,Note_off_c,9,39,0,
2,1494,Note_on_c,9,35,7,
2,1494,Note_off_c,9,36,0,
2,1494,Note_on_c,9,38,3,
2,1494,Note_off_c,9,39,0,
2,1495,Note_on_c,9,35,7,
2,1495,Note_off_c,9,36,0,
2,1495,Note_on_c,9,38,3,
2,1495,Note_off_c,9,39,0,
2,1496,Note_on_c,9,35,7,
2,1496,Note_off_c,9,36,0,
2,1496,Note_on_c,9,38,3,
2,1496,Note_off_c,9,39,0,
2,1497,Note_on_c,9,35,7,
2,1497,Note_off_c,9,36,0,
2,1497,Note_on_c,9,38,3,
2,1497,Note_off_c,9,39,0,
2,1498,Note_on_c,9,35,7,
2,1498,Note_off_c,9,36,0,
2,1498,Note_on_c,9,38,3,
2,1498,Note_off_c,9,39,0,
2,1499,Note_on_c,9,35,7,
2,1499,Note_off_c,9,36,0,
2,1499,Note_on_c,9,38,3,
2,1499,Note_off_c,9,39,0,
2,1500,Note_on_c,9,35,7,
2,1500,Note_off_c,9,36,0,
2,1500,Note_on_c,9,38,3,
2,1500,Note_off_c,9,39,0,
2,1501,Note_on_c,9,35,7,
2,1501,Note_off_c,9,36,0,
2,1501,Note_on_c,9,38,3,
2,1501,Note_off_c,9,39,0,
2,1502,Note_on_c,9,35,7,
2,1502,Note_off_c,9,36,0,
2,1502,Note_on_c,9,38,3,
2,1502,Note_off_c,9,39,0,
2,1503,Note_on_c,9,35,7,
2,1503,Note_off_c,9,36,0,
2,1503,Note_on_c,9,38,3,
2,1503,Note_off_c,9,39,0,
2,1504,Note_on_c,9,35,7,
2,1504,Note_off_c,9,36,0,
2,1504,Note_on_c,9,38,3,
2,1504,Note_off_c,9,39,0,
2,1505,Note_on_c,9,35,7,
2,1505,Note_off_c,9,36,0,
2,1505,Note_on_c,9,38,3,
2,1505,Note_off_c,9,39,0,
2,1506,Note_on_c,9,35,7,
2,1506,Note_off_c,9,36,0,
2,1506,Note_on_c,9,38,3,
2,1506,Note_off_c,9,39,0,
2,1507,Note_on_c,9,35,7,
2,1507,Note_off_c,9,36,0,
2,1507,Note_on_c,9,38,3,
2,1507,Note_off_c,9,39,0,
2,1508,Note_on_c,9,35,7,
2,1508,Note_off_c,9,36,0,
2,1508,Note_on_c,9,38,3,
2,1508,Note_off_c,9,39,0,
2,1509,Note_on_c,9,35,7,
2,1509,Note_off_c,9,36,0,
2,1509,Note_on_c,9,38,3,
2,1509,Note_off_c,9,39,0,
2,1510,Note_on_c,9,35,7,
2,1510,Note_off_c,9,36,0,
2,1510,Note_on_c,9,38,3,
2,1510,Note_off_c,9,39,0,
2,1511,Note_on_c,9,35,7,
2,1511,Note_off_c,9,36,0,
2,1511,Note_on_c,9,38,3,
2,1511,Note_off_c,9,39,0,
2,1512,Note_on_c,9,35,7,
2,1512,Note_off_c,9,36,0,
2,1512,Note_on_c,9,38,3,
2,1512,Note_off_c,9,39,0,
2,1513,Note_on_c,9,35,7,
2,1513,Note_off_c,9,36,0,
2,1513,Note_on_c,9,38,3,
2,1513,Note_off_c,9,39,0,
2,1514,Note_on_c,9,35,7,
2,1514,Note_off_c,9,36,0,
2,1514,Note_on_c,9,38,3,
2,1514,Note_off_c,9,39,0,
2,1515,Note_on_c,9,35,7,
2,1515,Note_off_c,9,36,0,
2,1515,Note_on_c,9,38,3,
2,1515,Note_off_c,9,39,0,
2,1516,Note_on_c,9,35,7,
2,1516,Note_off_c,9,36,0,
2,1516,Note_on_c,9,38,3,
2,1516,Note_off_c,9,39,0,
2,1517,Note_on_c,9,35,7,
2,1517,Note_off_c,9,36,0,
2,1517,Note_on_c,9,38,3,
2,1517,Note_off_c,9,39,0,
2,1518,Note_on_c,9,35,7,
2,1518,Note_off_c,9,36,0,
2,1518,Note_on_c,9,38,3,
2,1518,Note_off_c,9,39,0,
2,1519,Note_on_c,9,35,7,
2,1519,Note_off_c,9,36,0,
2,1519,Note_on_c,9,38,3,
2,1519,Note_off_c,9,39,0,
2,1520,Note_on_c,9,35,7,
2,1520,Note_off_c,9,36,0,
2,1520,Note_on_c,9,38,3,
2,1520,Note_off_c,9,39,0,
2,1521,Note_on_c,9,35,7,
2,1521,Note_off_c,9,36,0,
2,1521,Note_on_c,9,38,3,
2,1521,Note_off_c,9,39,0,
2,1522,Note_on_c,9,35,7,
2,1522,Note_off_c,9,36,0,
2,1522,Note_on_c,9,38,3,
2,1522,Note_off_c,9,39,0,
2,1523,Note_on_c,9,35,7,
2,1523,Note_off_c,9,36,0,
2,1523,Note_on_c,9,38,3,
2,1523,Note_off_c,9,39,0,
2,1524,Note_on_c,9,35,7,
2,1524,Note_off_c,9,36,0,
2,1524,Note_on_c,9,38,3,
2,1524,Note_off_c,9,39,0,
2,1525,Note_on_c,9,35,7,
2,1525,Note_off_c,9,36,0,
2,1525,Note_on_c,9,38,3,
2,1525,Note_off_c,9,39,0,
2,1526,Note_on_c,9,35,7,
2,1526,Note_off_c,9,36,0,
2,1526,Note_on_c,9,38,3,
2,1526,Note_off_c,9,39,0,
2,1527,Note_on_c,9,35,7,
2,1527,Note_off_c,9,36,0,
2,1527,Note_on_c,9,38,3,
2,1527,Note_off_c,9,39,0,
2,1528,Note_on_c,9,35,7,
2,1528,Note_off_c,9,36,0,
2,1528,Note_on_c,9,38,3,
2,1528,Note_off_c,9,39,0,
2,1529,Note_on_c,9,35,7,
2,1529,Note_off_c,9,36,0,
2,1529,Note_on_c,9,38,3,
2,1529,Note_off_c,9,39,0,
2,1530,Note_on_c,9,35,7,
2,1530,Note_off_c,9,36,0,
2,1530,Note_on_c,9,38,3,
2,1530,Note_off_c,9,39,0,
2,1531,Note_on_c,9,35,7,
2,1531,Note_off_c,9,36,0,
2,1531,Note_on_c,9,38,3,
2,1531,Note_off_c,9,39,0,
2,1532,Note_on_c,9,35,7,
2,1532,Note_off_c,9,36,0,
2,1532,Note_on_c,9,38,3,
2,1532,Note_off_c,9,39,0,
2,1533,Note_on_c,9,35,7,
2,1533,Note_off_c,9,36,0,
2,1533,Note_on_c,9,38,3,
2,1533,Note_off_c,9,39,0,
2,1534,Note_on_c,9,35,7,
2,1534,Note_off_c,9,36,0,
2,1534,Note_on_c,9,38,3,
2,1534,Note_off_c,9,39,0,
2,1535,Note_on_c,9,35,7,
2,1535,Note_off_c,9,36,0,
2,1535,Note_on_c,9,38,3,
2,1535,Note_off_c,9,39,0,
2,1536,Note_on_c,9,35,7,
2,1536,Note_off_c,9,36,0,
2,1536,Note_on_c,9,38,3,
2,1536,Note_off_c,9,39,0,
2,1537,Note_on_c,9,35,7,
2,1537,Note_off_c,9,36,0,
2,1537,Note_on_c,9,38,3,
2,1537,Note_off_c,9,39,0,
2,1538,Note_on_c,9,35,7,
2,1538,Note_off_c,9,36,0,
2,1538,Note_on_c,9,38,3,
2,1538,Note_off_c,9,39,0,
2,1539,Note_on_c,9,35,7,
2,1539,Note_off_c,9,36,0,
2,1539,Note_on_c,9,38,3,
2,1539,Note_off_c,9,39,0,
2,1540,Note_on_c,9,35,7,
2,1540,Note_off_c,9,36,0,
2,1540,Note_on_c,9,38,3,
2,1540,Note_off_c,9,39,0,
2,1541,Note_on_c,9,35,7,
2,1541,Note_off_c,9,36,0,
2,1541,Note_on_c,9,38,3,
2,1541,Note_off_c,9,39,0,
2,1542,Note_on_c,9,35,7,
2,1542,Note_off_c,9,36,0,
2,1542,Note_on_c,9,38,3,
2,1542,Note_off_c,9,39,0,
2,1543,Note_on_c,9,35,7,
2,1543,Note_off_c,9,36,0,
2,1543,Note_on_c,9,38,3,
2,1543,Note_off_c,9,39,0,
2,1544,Note_on_c,9,35,7,
2,1544,Note_off_c,9,36,0,
2,1544,Note_on_c,9,38,3,
2,1544,Note_off_c,9,39,0,
2,1545,Note_on_c,9,35,7,
2,1545,Note_off_c,9,36,0,
2,1545,Note_on_c,9,38,3,
2,1545,Note_off_c,9,39,0,
2,1546,Note_on_c,9,35,7,
2,1546,Note_off_c,9,36,0,
2,1546,Note_on_c,9,38,3,
2,1546,Note_off_c,9,39,0,
2,1547,Note_on_c,9,35,7,
2,1547,Note_off_c,9,36,0,
2,1547,Note_on_c,9,38,3,
2,1547,Note_off_c,9,39,0,
2,1548,Note_on_c,9,35,7,
2,1548,Note_off_c,9,36,0,
2,1548,Note_on_c,9,38,3,
2,1548,Note_off_c,9,39,0,
2,1549,Note_on_c,9,35,7,
2,1549,Note_off_c,9,36,0,
2,1549,Note_on_c,9,38,3,
2,1549,Note_off_c,9,39,0,
2,1550,Note_on_c,9,35,7,
2,1550,Note_off_c,9,36,0,
2,1550,Note_on_c,9,38,3,
2,1550,Note_off_c,9,39,0,
2,1551,Note_on_c,9,35,7,
2,1551,Note_off_c,9,36,0,
2,1551,Note_on_c,9,38,3,
2,1551,Note_off_c,9,39,0,
2,1552,Note_on_c,9,35,7,
2,1552,Note_off_c,9,36,0,
2,1552,Note_on_c,9,38,3,
2,1552,Note_off_c,9,39,0,
2,1553,Note_on_c,9,35,7,
2,1553,Note_off_c,9,36,0,
2,1553,Note_on_c,9,38,3,
2,1553,Note_off_c,9,39,0,
2,1554,Note_on_c,9,35,7,
2,1554,Note_off_c,9,36,0,
2,1554,Note_on_c,9,38,3,
2,1554,Note_off_c,9,39,0,
2,1555,Note_on_c,9,35,7,
2,1555,Note_off_c,9,36,0,
2,1555,Note_on_c,9,38,3,
2,1555,Note_off_c,9,39,0,
2,1556,Note_on_c,9,35,7,
2,1556,Note_off_c,9,36,0,
2,1556,Note_on_c,9,38,3,
2,1556,Note_off_c,9,39,0,
2,1557,Note_on_c,9,35,7,
2,1557,Note_off_c,9,36,0,
2,1557,Note_on_c,9,38,3,
2,1557,Note_off_c,9,39,0,
2,1558,Note_on_c,9,35,7,
2,1558,Note_off_c,9,36,0,
2,1558,Note_on_c,9,38,3,
2,1558,Note_off_c,9,39,0,
2,1559,Note_on_c,9,35,7,
2,1559,Note_off_c,9,36,0,
2,1559,Note_on_c,9,38,3,
2,1559,Note_off_c,9,39,0,
2,1560,Note_on_c,9,35,7,
2,1560,Note_off_c,9,36,0,
2,1560,Note_on_c,9,38,3,
2,1560,Note_off_c,9,39,0,
2,1561,Note_on_c,9,35,7,
2,1561,Note_off_c,9,36,0,
2,1561,Note_on_c,9,38,3,
2,1561,Note_off_c,9,39,0,
2,1562,Note_on_c,9,35,7,
2,1562,Note_off_c,9,36,0,
2,1562,Note_on_c,9,38,3,
2,1562,Note_off_c,9,39,0,
2,1563,Note_on_c,9,35,7,
2,1563,Note_off_c,9,36,0,
2,1563,Note_on_c,9,38,3,
2,1563,Note_off_c,9,39,0,
2,1564,Note_on_c,9,35,7,
2,1564,Note_off_c,9,36,0,
2,1564,Note_on_c,9,38,3,
2,1564,Note_off_c,9,39,0,
2,1565,Note_on_c,9,35,7,
2,1565,Note_off_c,9,36,0,
2,1565,Note_on_c,9,38,3,
2,1565,Note_off_c,9,39,0,
2,1566,Note_on_c,9,35,7,
2,1566,Note_off_c,9,36,0,
2,1566,Note_on_c,9,38,3,
2,1566,Note_off_c,9,39,0,
2,1567,Note_on_c,9,35,7,
2,1567,Note_off_c,9,36,0,
2,1567,Note_on_c,9,38,3,
2,1567,Note_off_c,9,39,0,
2,1568,Note_on_c,9,35,7,
2,1568,Note_off_c,9,36,0,
2,1568,Note_on_c,9,38,3,
2,1568,Note_off_c,9,39,0,
2,1569,Note_on_c,9,35,7,
2,1569,Note_off_c,9,36,0,
2,1569,Note_on_c,9,38,3,
2,1569,Note_off_c,9,39,0,
2,1570,Note_on_c,9,35,7,
2,1570,Note_off_c,9,36,0,
2,1570,Note_on_c,9,38,3,
2,1570,Note_off_c,9,39,0,
2,1571,Note_on_c,9,35,7,
2,1571,Note_off_c,9,36,0,
2,1571,Note_on_c,9,38,3,
2,1571,Note_off_c,9,39,0,
2,1572,Note_on_c,9,35,7,
2,1572,Note_off_c,9,36,0,
2,1572,Note_on_c,9,38,3,
2,1572,Note_off_c,9,39,0,
2,1573,Note_on_c,9,35,7,
2,1573,Note_off_c,9,36,0,
2,1573,Note_on_c,9,38,3,
2,1573,Note_off_c,9,39,0,
2,1574,Note_on_c,9,35,7,
2,1574,Note_off_c,9,36,0,
2,1574,Note_on_c,9,38,3,
2,1574,Note_off_c,9,39,0,
2,1575,Note_on_c,9,35,7,
2,1575,Note_off_c,9,36,0,
2,1575,Note_on_c,9,38,3,
2,1575,Note_off_c,9,39,0,
2,1576,Note_on_c,9,35,7,
2,1576,Note_off_c,9,36,0,
2,1576,Note_on_c,9,38,3,
2,1576,Note_off_c,9,39,0,
2,1577,Note_on_c,9,35,7,
2,1577,Note_off_c,9,36,0,
2,1577,Note_on_c,9,38,3,
2,1577,Note_off_c,9,39,0,
2,1578,Note_on_c,9,35,7,
2,1578,Note_off_c,9,36,0,
2,1578,Note_on_c,9,38,3,
2,1578,Note_off_c,9,39,0,
2,1579,Note_on_c,9,35,7,
2,1579,Note_off_c,9,36,0,
2,1579,Note_on_c,9,38,3,
2,1579,Note_off_c,9,39,0,
2,1580,Note_on_c,9,35,7,
2,1580,Note_off_c,9,36,0,
2,1580,Note_on_c,9,38,3,
2,1580,Note_off_c,9,39,0,
2,1581,Note_on_c,9,35,7,
2,1581,Note_off_c,9,36,0,
2,1581,Note_on_c,9,38,3,
2,1581,Note_off_c,9,39,0,
2,1582,Note_on_c,9,35,7,
2,1582,Note_off_c,9,36,0,
2,1582,Note_on_c,9,38,3,
2,1582,Note_off_c,9,39,0,
2,1583,Note_on_c,9,35,7,
2,1583,Note_off_c,9,36,0,
2,1583,Note_on_c,9,38,3,
2,1583,Note_off_c,9,39,0,
2,1584,Note_on_c,9,35,7,
2,1584,Note_off_c,9,36,0,
2,1584,Note_on_c,9,38,3,
2,1584,Note_off_c,9,39,0,
2,1585,Note_on_c,9,35,7,
2,1585,Note_off_c,9,36,0,
2,1585,Note_on_c,9,38,3,
2,1585,Note_off_c,9,39,0,
2,1586,Note_on_c,9,35,7,
2,1586,Note_off_c,9,36,0,
2,1586,Note_on_c,9,38,3,
2,1586,Note_off_c,9,39,0,
2,1587,Note_on_c,9,35,7,
2,1587,Note_off_c,9,36,0,
2,1587,Note_on_c,9,38,3,
2,1587,Note_off_c,9,39,0,
2,1588,Note_on_c,9,35,7,
2,1588,Note_off_c,9,36,0,
2,1588,Note_on_c,9,38,3,
2,1588,Note_off_c,9,39,0,
2,1589,Note_on_c,9,35,7,
2,1589,Note_off_c,9,36,0,
2,1589,Note_on_c,9,38,3,
2,1589,Note_off_c,9,39,0,
2,1590,Note_on_c,9,35,7,
2,1590,Note_off_c,9,36,0,
2,1590,Note_on_c,9,38,3,
2,1590,Note_off_c,9,39,0,
2,1591,Note_on_c,9,35,7,
2,1591,Note_off_c,9,36,0,
2,1591,Note_on_c,9,38,3,
2,1591,Note_off_c,9,39,0,
2,1592,Note_on_c,9,35,7,
2,1592,Note_off_c,9,36,0,
2,1592,Note_on_c,9,38,3,
2,1592,Note_off_c,9,39,0,
2,1593,Note_on_c,9,35,7,
2,1593,Note_off_c,9,36,0,
2,1593,Note_on_c,9,38,3,
2,1593,Note_off_c,9,39,0,
2,1594,Note_on_c,9,35,7,
2,1594,Note_off_c,9,36,0,
2,1594,Note_on_c,9,38,3,
2,1594,Note_off_c,9,39,0,
2,1595,Note_on_c,9,35,7,
2,1595,Note_off_c,9,36,0,
2,1595,Note_on_c,9,38,3,
2,1595,Note_off_c,9,39,0,
2,1596,Note_on_c,9,35,7,
2,1596,Note_off_c,9,36,0,
2,1596,Note_on_c,9,38,3,
2,1596,Note_off_c,9,39,0,
2,1597,Note_on_c,9,35,7,
2,1597,Note_off_c,9,36,0,
2,1597,Note_on_c,9,38,3,
2,1597,Note_off_c,9,39,0,
2,1598,Note_on_c,9,35,7,
2,1598,Note_off_c,9,36,0,
2,1598,Note_on_c,9,38,3,
2,1598,Note_off_c,9,39,0,
2,1599,Note_on_c,9,35,7,
2,1599,Note_off_c,9,36,0,
2,1599,Note_on_c,9,38,3,
2,1599,Note_off_c,9,39,0,
2,1600,Note_on_c,9,35,7,
2,1600,Note_off_c,9,36,0,
2,1600,Note_on_c,9,38,3,
2,1600,Note_off_c,9,39,0,
2,1601,Note_on_c,9,35,7,
2,1601,Note_off_c,9,36,0,
2,1601,Note_on_c,9,38,3,
2,1601,Note_off_c,9,39,0,
2,1602,Note_on_c,9,35,7,
2,1602,Note_off_c,9,36,0,
2,1602,Note_on_c,9,38,3,
2,1602,Note_off_c,9,39,0,
2,1603,Note_on_c,9,35,7,
2,1603,Note_off_c,9,36,0,
2,1603,Note_on_c,9,38,3,
2,1603,Note_off_c,9,39,0,
2,1604,Note_on_c,9,35,7,
2,1604,Note_off_c,9,36,0,
2,1604,Note_on_c,9,38,3,
2,1604,Note_off_c,9,39,0,
2,1605,Note_on_c,9,35,7,
2,1605,Note_off_c,9,36,0,
2,1605,Note_on_c,9,38,3,
2,1605,Note_off_c,9,39,0,
2,1606,Note_on_c,9,35,7,
2,1606,Note_off_c,9,36,0,
2,1606,Note_on_c,9,38,3,
2,1606,Note_off_c,9,39,0,
2,1607,Note_on_c,9,35,7,
2,1607,Note_off_c,9,36,0,
2,1607,Note_on_c,9,38,3,
2,1607,Note_off_c,9,39,0,
2,1608,Note_on_c,9,35,7,
2,1608,Note_off_c,9,36,0,
2,1608,Note_on_c,9,38,3,
2,1608,Note_off_c,9,39,0,
2,1609,Note_on_c,9,35,7,
2,1609,Note_off_c,9,36,0,
2,1609,Note_on_c,9,38,3,
2,1609,Note_off_c,9,39,0,
2,1610,Note_on_c,9,35,7,
2,1610,Note_off_c,9,36,0,
2,1610,Note_on_c,9,38,3,
2,1610,Note_off_c,9,39,0,
2,1611,Note_on_c,9,35,7,
2,1611,Note_off_c,9,36,0,
2,1611,Note_on_c,9,38,3,
2,1611,Note_off_c,9,39,0,
2,1612,Note_on_c,9,35,7,
2,1612,Note_off_c,9,36,0,
2,1612,Note_on_c,9,38,3,
2,1612,Note_off_c,9,39,0,
2,1613,Note_on_c,9,35,7,
2,1613,Note_off_c,9,36,0,
2,1613,Note_on_c,9,38,3,
2,1613,Note_off_c,9,39,0,
2,1614,Note_on_c,9,35,7,
2,1614,Note_off_c,9,36,0,
2,1614,Note_on_c,9,38,3,
2,1614,Note_off_c,9,39,0,
2,1615,Note_on_c,9,35,7,
2,1615,Note_off_c,9,36,0,
2,1615,Note_on_c,9,38,3,
2,1615,Note_off_c,9,39,0,
2,1616,Note_on_c,9,35,7,
2,1616,Note_off_c,9,36,0,
2,1616,Note_on_c,9,38,3,
2,1616,Note_off_c,9,39,0,
2,1617,Note_on_c,9,35,7,
2,1617,Note_off_c,9,36,0,
2,1617,Note_on_c,9,38,3,
2,1617,Note_off_c,9,39,0,
2,1618,Note_on_c,9,35,7,
2,1618,Note_off_c,9,36,0,
2,1618,Note_on_c,9,38,3,
2,1618,Note_off_c,9,39,0,
2,1619,Note_on_c,9,35,7,
2,1619,Note_off_c,9,36,0,
2,1619,Note_on_c,9,38,3,
2,1619,Note_off_c,9,39,0,
2,1620,Note_on_c,9,35,7,
2,1620,Note_off_c,9,36,0,
2,1620,Note_on_c,9,38,3,
2,1620,Note_off_c,9,39,0,
2,1621,Note_on_c,9,35,7,
2,1621,Note_off_c,9,36,0,
2,1621,Note_on_c,9,38,3,
2,1621,Note_off_c,9,39,0,
2,1622,Note_on_c,9,35,7,
2,1622,Note_off_c,9,36,0,
2,1622,Note_on_c,9,38,3,
2,1622,Note_off_c,9,39,0,
2,1623,Note_on_c,9,35,7,
2,1623,Note_off_c,9,36,0,
2,1623,Note_on_c,9,38,3,
2,1623,Note_off_c,9,39,0,
2,1624,Note_on_c,9,35,7,
2,1624,Note_off_c,9,36,0,
2,1624,Note_on_c,9,38,3,
2,1624,Note_off_c,9,39,0,
2,1625,Note_on_c,9,35,7,
2,1625,Note_off_c,9,36,0,
2,1625,Note_on_c,9,38,3,
2,1625,Note_off_c,9,39,0,
2,1626,Note_on_c,9,35,7,
2,1626,Note_off_c,9,36,0,
2,1626,Note_on_c,9,38,3,
2,1626,Note_off_c,9,39,0,
2,1627,Note_on_c,9,35,7,
2,1627,Note_off_c,9,36,0,
2,1627,Note_on_c,9,38,3,
2,1627,Note_off_c,9,39,0,
2,1628,Note_on_c,9,35,7,
2,1628,Note_off_c,9,36,0,
2,1628,Note_on_c,9,38,3,
2,1628,Note_off_c,9,39,0,
2,1629,Note_on_c,9,35,7,
2,1629,Note_off_c,9,36,0,
2,1629,Note_on_c,9,38,3,
2,1629,Note_off_c,9,39,0,
2,1630,Note_on_c,9,35,7,
2,1630,Note_off_c,9,36,0,
2,1630,Note_on_c,9,38,3,
2,1630,Note_off_c,9,39,0,
2,1631,Note_on_c,9,35,7,
2,1631,Note_off_c,9,36,0,
2,1631,Note_on_c,9,38,3,
2,1631,Note_off_c,9,39,0,
2,1632,Note_on_c,9,35,7,
2,1632,Note_off_c,9,36,0,
2,1632,Note_on_c,9,38,3,
2,1632,Note_off_c,9,39,0,
2,1633,Note_on_c,9,35,7,
2,1633,Note_off_c,9,36,0,
2,1633,Note_on_c,9,38,3,
2,1633,Note_off_c,9,39,0,
2,1634,Note_on_c,9,35,7,
2,1634,Note_off_c,9,36,0,
2,1634,Note_on_c,9,38,3,
2,1634,Note_off_c,9,39,0,
2,1635,Note_on_c,9,35,7,
2,1635,Note_off_c,9,36,0,
2,1635,Note_on_c,9,38,3,
2,1635,Note_off_c,9,39,0,
2,1636,Note_on_c,9,35,7,
2,1636,Note_off_c,9,36,0,
2,1636,Note_on_c,9,38,3,
2,1636,Note_off_c,9,39,0,
2,1637,Note_on_c,9,35,7,
2,1637,Note_off_c,9,36,0,
2,1637,Note_on_c,9,38,3,
2,1637,Note_off_c,9,39,0,
2,1638,Note_on_c,9,35,7,
2,1638,Note_off_c,9,36,0,
2,1638,Note_on_c,9,38,3,
2,1638,Note_off_c,9,39,0,
2,1639,Note_on_c,9,35,7,
2,1639,Note_off_c,9,36,0,
2,1639,Note_on_c,9,38,3,
2,1639,Note_off_c,9,39,0,
2,1640,Note_on_c,9,35,7,
2,1640,Note_off_c,9,36,0,
2,1640,Note_on_c,9,38,3,
2,1640,Note_off_c,9,39,0,
2,1641,Note_on_c,9,35,7,
2,1641,Note_off_c,9,36,0,
2,1641,Note_on_c,9,38,3,
2,1641,Note_off_c,9,39,0,
2,1642,Note_on_c,9,35,7,
2,1642,Note_off_c,9,36,0,
2,1642,Note_on_c,9,38,3,
2,1642,Note_off_c,9,39,0,
2,1643,Note_on_c,9,35,7,
2,1643,Note_off_c,9,36,0,
2,1643,Note_on_c,9,38,3,
2,1643,Note_off_c,9,39,0,
2,1644,Note_on_c,9,35,7,
2,1644,Note_off_c,9,36,0,
2,1644,Note_on_c,9,38,3,
2,1644,Note_off_c,9,39,0,
2,1645,Note_on_c,9,35,7,
2,1645,Note_off_c,9,36,0,
2,1645,Note_on_c,9,38,3,
2,1645,Note_off_c,9,39,0,
2,1646,Note_on_c,9,35,7,
2,1646,Note_off_c,9,36,0,
2,1646,Note_on_c,9,38,3,
2,1646,Note_off_c,9,39,0,
2,1647,Note_on_c,9,35,7,
2,1647,Note_off_c,9,36,0,
2,1647,Note_on_c,9,38,3,
2,1647,Note_off_c,9,39,0,
2,1648,Note_on_c,9,35,7,
2,1648,Note_off_c,9,36,0,
2,1648,Note_on_c,9,38,3,
2,1648,Note_off_c,9,39,0,
2,1649,Note_on_c,9,35,7,
2,1649,Note_off_c,9,36,0,
2,1649,Note_on_c,9,38,3,
2,1649,Note_off_c,9,39,0,
2,1650,Note_on_c,9,35,7,
2,1650,Note_off_c,9,36,0,
2,1650,Note_on_c,9,38,3,
2,1650,Note_off_c,9,39,0,
2,1651,Note_on_c,9,35,7,
2,1651,Note_off_c,9,36,0,
2,1651,Note_on_c,9,38,3,
2,1651,Note_off_c,9,39,0,
2,1652,Note_on_c,9,35,7,
2,1652,Note_off_c,9,36,0,
2,1652,Note_on_c,9,38,3,
2,1652,Note_off_c,9,39,0,
2,1653,Note_on_c,9,35,7,
2,1653,Note_off_c,9,36,0,
2,1653,Note_on_c,9,38,3,
2,1653,Note_off_c,9,39,0,
2,1654,Note_on_c,9,35,7,
2,1654,Note_off_c,9,36,0,
2,1654,Note_on_c,9,38,3,
2,1654,Note_off_c,9,39,0,
2,1655,Note_on_c,9,35,7,
2,1655,Note_off_c,9,36,0,
2,1655,Note_on_c,9,38,3,
2,1655,Note_off_c,9,39,0,
2,1656,Note_on_c,9,35,7,
2,1656,Note_off_c,9,36,0,
2,1656,Note_on_c,9,38,3,
2,1656,Note_off_c,9,39,0,
2,1657,Note_on_c,9,35,7,
2,1657,Note_off_c,9,36,0,
2,1657,Note_on_c,9,38,3,
2,1657,Note_off_c,9,39,0,
2,1658,Note_on_c,9,35,7,
2,1658,Note_off_c,9,36,0,
2,1658,Note_on_c,9,38,3,
2,1658,Note_off_c,9,39,0,
2,1659,Note_on_c,9,35,7,
2,1659,Note_off_c,9,36,0,
2,1659,Note_on_c,9,38,3,
2,1659,Note_off_c,9,39,0,
2,1660,Note_on_c,9,35,7,
2,1660,Note_off_c,9,36,0,
2,1660,Note_on_c,9,38,3,
2,1660,Note_off_c,9,39,0,
2,1661,Note_on_c,9,35,7,
2,1661,Note_off_c,9,36,0,
2,1661,Note_on_c,9,38,3,
2,1661,Note_off_c,9,39,0,
2,1662,Note_on_c,9,35,7,
2,1662,Note_off_c,9,36,0,
2,1662,Note_on_c,9,38,3,
2,1662,Note_off_c,9,39,0,
2,1663,Note_on_c,9,35,7,
2,1663,Note_off_c,9,36,0,
2,1663,Note_on_c,9,38,3,
2,1663,Note_off_c,9,39,0,
2,1664,Note_on_c,9,35,7,
2,1664,Note_off_c,9,36,0,
2,1664,Note_on_c,9,38,3,
2,1664,Note_off_c,9,39,0,
2,1665,Note_on_c,9,35,7,
2,1665,Note_off_c,9,36,0,
2,1665,Note_on_c,9,38,3,
2,1665,Note_off_c,9,39,0,
2,1666,Note_on_c,9,35,7,
2,1666,Note_off_c,9,36,0,
2,1666,Note_on_c,9,38,3,
2,1666,Note_off_c,9,39,0,
2,1667,Note_on_c,9,35,7,
2,1667,Note_off_c,9,36,0,
2,1667,Note_on_c,9,38,3,
2,1667,Note_off_c,9,39,0,
2,1668,Note_on_c,9,35,7,
2,1668,Note_off_c,9,36,0,
2,1668,Note_on_c,9,38,3,
2,1668,Note_off_c,9,39,0,
2,1669,Note_on_c,9,35,7,
2,1669,Note_off_c,9,36,0,
2,1669,Note_on_c,9,38,3,
2,1669,Note_off_c,9,39,0,
2,1670,Note_on_c,9,35,7,
2,1670,Note_off_c,9,36,0,
2,1670,Note_on_c,9,38,3,
2,1670,Note_off_c,9,39,0,
2,1671,Note_on_c,9,35,7,
2,1671,Note_off_c,9,36,0,
2,1671,Note_on_c,9,38,3,
2,1671,Note_off_c,9,39,0,
2,1672,Note_on_c,9,35,7,
2,1672,Note_off_c,9,36,0,
2,1672,Note_on_c,9,38,3,
2,1672,Note_off_c,9,39,0,
2,1673,Note_on_c,9,35,7,
2,1673,Note_off_c,9,36,0,
2,1673,Note_on_c,9,38,3,
2,1673,Note_off_c,9,39,0,
2,1674,Note_on_c,9,35,7,
2,1674,Note_off_c,9,36,0,
2,1674,Note_on_c,9,38,3,
2,1674,Note_off_c,9,39,0,
2,1675,Note_on_c,9,35,7,
2,1675,Note_off_c,9,36,0,
2,1675,Note_on_c,9,38,3,
2,1675,Note_off_c,9,39,0,
2,1676,Note_on_c,9,35,7,
2,1676,Note_off_c,9,36,0,
2,1676,Note_on_c,9,38,3,
2,1676,Note_off_c,9,39,0,
2,1677,Note_on_c,9,35,7,
2,1677,Note_off_c,9,36,0,
2,1677,Note_on_c,9,38,3,
2,1677,Note_off_c,9,39,0,
2,1678,Note_on_c,9,35,7,
2,1678,Note_off_c,9,36,0,
2,1678,Note_on_c,9,38,3,
2,1678,Note_off_c,9,39,0,
2,1679,Note_on_c,9,35,7,
2,1679,Note_off_c,9,36,0,
2,1679,Note_on_c,9,38,3,
2,1679,Note_off_c,9,39,0,
2,1680,Note_on_c,9,35,7,
2,1680,Note_off_c,9,36,0,
2,1680,Note_on_c,9,38,3,
2,1680,Note_off_c,9,39,0,
2,1681,Note_on_c,9,35,7,
2,1681,Note_off_c,9,36,0,
2,1681,Note_on_c,9,38,3,
2,1681,Note_off_c,9,39,0,
2,1682,Note_on_c,9,35,7,
2,1682,Note_off_c,9,36,0,
2,1682,Note_on_c,9,38,3,
2,1682,Note_off_c,9,39,0,
2,1683,Note_on_c,9,35,7,
2,1683,Note_off_c,9,36,0,
2,1683,Note_on_c,9,38,3,
2,1683,Note_off_c,9,39,0,
2,1684,Note_on_c,9,35,7,
2,1684,Note_off_c,9,36,0,
2,1684,Note_on_c,9,38,3,
2,1684,Note_off_c,9,39,0,
2,1685,Note_on_c,9,35,7,
2,1685,Note_off_c,9,36,0,
2,1685,Note_on_c,9,38,3,
2,1685,Note_off_c,9,39,0,
2,1686,Note_on_c,9,35,7,
2,1686,Note_off_c,9,36,0,
2,1686,Note_on_c,9,38,3,
2,1686,Note_off_c,9,39,0,
2,1687,Note_on_c,9,35,7,
2,1687,Note_off_c,9,36,0,
2,1687,Note_on_c,9,38,3,
2,1687,Note_off_c,9,39,0,
2,1688,Note_on_c,9,35,7,
2,1688,Note_off_c,9,36,0,
2,1688,Note_on_c,9,38,3,
2,1688,Note_off_c,9,39,0,
2,1689,Note_on_c,9,35,7,
2,1689,Note_off_c,9,36,0,
2,1689,Note_on_c,9,38,3,
2,1689,Note_off_c,9,39,0,
2,1690,Note_on_c,9,35,7,
2,1690,Note_off_c,9,36,0,
2,1690,Note_on_c,9,38,3,
2,1690,Note_off_c,9,39,0,
2,1691,Note_on_c,9,35,7,
2,1691,Note_off_c,9,36,0,
2,1691,Note_on_c,9,38,3,
2,1691,Note_off_c,9,39,0,
2,1692,Note_on_c,9,35,7,
2,1692,Note_off_c,9,36,0,
2,1692,Note_on_c,9,38,3,
2,1692,Note_off_c,9,39,0,
2,1693,Note_on_c,9,35,7,
2,1693,Note_off_c,9,36,0,
2,1693,Note_on_c,9,38,3,
2,1693,Note_off_c,9,39,0,
2,1694,Note_on_c,9,35,7,
2,1694,Note_off_c,9,36,0,
2,1694,Note_on_c,9,38,3,
2,1694,Note_off_c,9,39,0,
2,1695,Note_on_c,9,35,7,
2,1695,Note_off_c,9,36,0,
2,1695,Note_on_c,9,38,3,
2,1695,Note_off_c,9,39,0,
2,1696,Note_on_c,9,35,7,
2,1696,Note_off_c,9,36,0,
2,1696,Note_on_c,9,38,3,
2,1696,Note_off_c,9,39,0,
2,1697,Note_on_c,9,35,7,
2,1697,Note_off_c,9,36,0,
2,1697,Note_on_c,9,38,3,
2,1697,Note_off_c,9,39,0,
2,1698,Note_on_c,9,35,7,
2,1698,Note_off_c,9,36,0,
2,1698,Note_on_c,9,38,3,
2,1698,Note_off_c,9,39,0,
2,1699,Note_on_c,9,35,7,
2,1699,Note_off_c,9,36,0,
2,1699,Note_on_c,9,38,3,
2,1699,Note_off_c,9,39,0,
2,1700,Note_on_c,9,35,7,
2,1700,Note_off_c,9,36,0,
2,1700,Note_on_c,9,38,3,
2,1700,Note_off_c,9,39,0,
2,1701,Note_on_c,9,35,7,
2,1701,Note_off_c,9,36,0,
2,1701,Note_on_c,9,38,3,
2,1701,Note_off_c,9,39,0,
2,1702,Note_on_c,9,35,7,
2,1702,Note_off_c,9,36,0,
2,1702,Note_on_c,9,38,3,
2,1702,Note_off_c,9,39,0,
2,1703,Note_on_c,9,35,7,
2,1703,Note_off_c,9,36,0,
2,1703,Note_on_c,9,38,3,
2,1703,Note_off_c,9,39,0,
2,1704,Note_on_c,9,35,7,
2,1704,Note_off_c,9,36,0,
2,1704,Note_on_c,9,38,3,
2,1704,Note_off_c,9,39,0,
2,1705,Note_on_c,9,35,7,
2,1705,Note_off_c,9,36,0,
2,1705,Note_on_c,9,38,3,
2,1705,Note_off_c,9,39,0,
2,1706,Note_on_c,9,35,7,
2,1706,Note_off_c,9,36,0,
2,1706,Note_on_c,9,38,3,
2,1706,Note_off_c,9,39,0,
2,1707,Note_on_c,9,35,7,
2,1707,Note_off_c,9,36,0,
2,1707,Note_on_c,9,38,3,
2,1707,Note_off_c,9,39,0,
2,1708,Note_on_c,9,35,7,
2,1708,Note_off_c,9,36,0,
2,1708,Note_on_c,9,38,3,
2,1708,Note_off_c,9,39,0,
2,1709,Note_on_c,9,35,7,
2,1709,Note_off_c,9,36,0,
2,1709,Note_on_c,9,38,3,
2,1709,Note_off_c,9,39,0,
2,1710,Note_on_c,9,35,7,
2,1710,Note_off_c,9,36,0,
2,1710,Note_on_c,9,38,3,
2,1710,Note_off_c,9,39,0,
2,1711,Note_on_c,9,35,7,
2,1711,Note_off_c,9,36,0,
2,1711,Note_on_c,9,38,3,
2,1711,Note_off_c,9,39,0,
2,1712,Note_on_c,9,35,7,
2,1712,Note_off_c,9,36,0,
2,1712,Note_on_c,9,38,3,
2,1712,Note_off_c,9,39,0,
2,1713,Note_on_c,9,35,7,
2,1713,Note_off_c,9,36,0,
2,1713,Note_on_c,9,38,3,
2,1713,Note_off_c,9,39,0,
2,1714,Note_on_c,9,35,7,
2,1714,Note_off_c,9,36,0,
2,1714,Note_on_c,9,38,3,
2,1714,Note_off_c,9,39,0,
2,1715,Note_on_c,9,35,7,
2,1715,Note_off_c,9,36,0,
2,1715,Note_on_c,9,38,3,
2,1715,Note_off_c,9,39,0,
2,1716,Note_on_c,9,35,7,
2,1716,Note_off_c,9,36,0,
2,1716,Note_on_c,9,38,3,
2,1716,Note_off_c,9,39,0,
2,1717,Note_on_c,9,35,7,
2,1717,Note_off_c,9,36,0,
2,1717,Note_on_c,9,38,3,
2,1717,Note_off_c,9,39,0,
2,1718,Note_on_c,9,35,7,
2,1718,Note_off_c,9,36,0,
2,1718,Note_on_c,9,38,3,
2,1718,Note_off_c,9,39,0,
2,1719,Note_on_c,9,35,7,
2,1719,Note_off_c,9,36,0,
2,1719,Note_on_c,9,38,3,
2,1719,Note_off_c,9,39,0,
2,1720,Note_on_c,9,35,7,
2,1720,Note_off_c,9,36,0,
2,1720,Note_on_c,9,38,3,
2,1720,Note_off_c,9,39,0,
2,1721,Note_on_c,9,35,7,
2,1721,Note_off_c,9,36,0,
2,1721,Note_on_c,9,38,3,
2,1721,Note_off_c,9,39,0,
2,1722,Note_on_c,9,35,7,
2,1722,Note_off_c,9,36,0,
2,1722,Note_on_c,9,38,3,
2,1722,Note_off_c,9,39,0,
2,1723,Note_on_c,9,35,7,
2,1723,Note_off_c,9,36,0,
2,1723,Note_on_c,9,38,3,
2,1723,Note_off_c,9,39,0,
2,1724,Note_on_c,9,35,7,
2,1724,Note_off_c,9,36,0,
2,1724,Note_on_c,9,38,3,
2,1724,Note_off_c,9,39,0,
2,1725,Note_on_c,9,35,7,
2,1725,Note_off_c,9,36,0,
2,1725,Note_on_c,9,38,3,
2,1725,Note_off_c,9,39,0,
2,1726,Note_on_c,9,35,7,
2,1726,Note_off_c,9,36,0,
2,1726,Note_on_c,9,38,3,
2,1726,Note_off_c,9,39,0,
2,1727,Note_on_c,9,35,7,
2,1727,Note_off_c,9,36,0,
2,1727,Note_on_c,9,38,3,
2,1727,Note_off_c,9,39,0,
2,1728,Note_on_c,9,35,7,
2,1728,Note_off_c,9,36,0,
2,1728,Note_on_c,9,38,3,
2,1728,Note_off_c,9,39,0,
2,1729,Note_on_c,9,35,7,
2,1729,Note_off_c,9,36,0,
2,1729,Note_on_c,9,38,3,
2,1729,Note_off_c,9,39,0,
2,1730,Note_on_c,9,35,7,
2,1730,Note_off_c,9,36,0,
2,1730,Note_on_c,9,38,3,
2,1730,Note_off_c,9,39,0,
2,1731,Note_on_c,9,35,7,
2,1731,Note_off_c,9,36,0,
2,1731,Note_on_c,9,38,3,
2,1731,Note_off_c,9,39,0,
2,1732,Note_on_c,9,35,7,
2,1732,Note_off_c,9,36,0,
2,1732,Note_on_c,9,38,3,
2,1732,Note_off_c,9,39,0,
2,1733,Note_on_c,9,35,7,
2,1733,Note_off_c,9,36,0,
2,1733,Note_on_c,9,38,3,
2,1733,Note_off_c,9,39,0,
2,1734,Note_on_c,9,35,7,
2,1734,Note_off_c,9,36,0,
2,1734,Note_on_c,9,38,3,
2,1734,Note_off_c,9,39,0,
2,1735,Note_on_c,9,35,7,
2,1735,Note_off_c,9,36,0,
2,1735,Note_on_c,9,38,3,
2,1735,Note_off_c,9,39,0,
2,1736,Note_on_c,9,35,7,
2,1736,Note_off_c,9,36,0,
2,1736,Note_on_c,9,38,3,
2,1736,Note_off_c,9,39,0,
2,1737,Note_on_c,9,35,7,
2,1737,Note_off_c,9,36,0,
2,1737,Note_on_c,9,38,3,
2,1737,Note_off_c,9,39,0,
2,1738,Note_on_c,9,35,7,
2,1738,Note_off_c,9,36,0,
2,1738,Note_on_c,9,38,3,
2,1738,Note_off_c,9,39,0,
2,1739,Note_on_c,9,35,7,
2,1739,Note_off_c,9,36,0,
2,1739,Note_on_c,9,38,3,
2,1739,Note_off_c,9,39,0,
2,1740,Note_on_c,9,35,7,
2,1740,Note_off_c,9,36,0,
2,1740,Note_on_c,9,38,3,
2,1740,Note_off_c,9,39,0,
2,1741,Note_on_c,9,35,7,
2,1741,Note_off_c,9,36,0,
2,1741,Note_on_c,9,38,3,
2,1741,Note_off_c,9,39,0,
2,1742,Note_on_c,9,35,7,
2,1742,Note_off_c,9,36,0,
2,1742,Note_on_c,9,38,3,
2,1742,Note_off_c,9,39,0,
2,1743,Note_on_c,9,35,7,
2,1743,Note_off_c,9,36,0,
2,1743,Note_on_c,9,38,3,
2,1743,Note_off_c,9,39,0,
2,1744,Note_on_c,9,35,7,
2,1744,Note_off_c,9,36,0,
2,1744,Note_on_c,9,38,3,
2,1744,Note_off_c,9,39,0,
2,1745,Note_on_c,9,35,7,
2,1745,Note_off_c,9,36,0,
2,1745,Note_on_c,9,38,3,
2,1745,Note_off_c,9,39,0,
2,1746,Note_on_c,9,35,7,
2,1746,Note_off_c,9,36,0,
2,1746,Note_on_c,9,38,3,
2,1746,Note_off_c,9,39,0,
2,1747,Note_on_c,9,35,7,
2,1747,Note_off_c,9,36,0,
2,1747,Note_on_c,9,38,3,
2,1747,Note_off_c,9,39,0,
2,1748,Note_on_c,9,35,7,
2,1748,Note_off_c,9,36,0,
2,1748,Note_on_c,9,38,3,
2,1748,Note_off_c,9,39,0,
2,1749,Note_on_c,9,35,7,
2,1749,Note_off_c,9,36,0,
2,1749,Note_on_c,9,38,3,
2,1749,Note_off_c,9,39,0,
2,1750,Note_on_c,9,35,7,
2,1750,Note_off_c,9,36,0,
2,1750,Note_on_c,9,38,3,
2,1750,Note_off_c,9,39,0,
2,1751,Note_on_c,9,35,7,
2,1751,Note_off_c,9,36,0,
2,1751,Note_on_c,9,38,3,
2,1751,Note_off_c,9,39,0,
2,1752,Note_on_c,9,35,7,
2,1752,Note_off_c,9,36,0,
2,1752,Note_on_c,9,38,3,
2,1752,Note_off_c,9,39,0,
2,1753,Note_on_c,9,35,7,
2,1753,Note_off_c,9,36,0,
2,1753,Note_on_c,9,38,3,
2,1753,Note_off_c,9,39,0,
2,1754,Note_on_c,9,35,7,
2,1754,Note_off_c,9,36,0,
2,1754,Note_on_c,9,38,3,
2,1754,Note_off_c,9,39,0,
2,1755,Note_on_c,9,35,7,
2,1755,Note_off_c,9,36,0,
2,1755,Note_on_c,9,38,3,
2,1755,Note_off_c,9,39,0,
2,1756,Note_on_c,9,35,7,
2,1756,Note_off_c,9,36,0,
2,1756,Note_on_c,9,38,3,
2,1756,Note_off_c,9,39,0,
2,1757,Note_on_c,9,35,7,
2,1757,Note_off_c,9,36,0,
2,1757,Note_on_c,9,38,3,
2,1757,Note_off_c,9,39,0,
2,1758,Note_on_c,9,35,7,
2,1758,Note_off_c,9,36,0,
2,1758,Note_on_c,9,38,3,
2,1758,Note_off_c,9,39,0,
2,1759,Note_on_c,9,35,7,
2,1759,Note_off_c,9,36,0,
2,1759,Note_on_c,9,38,3,
2,1759,Note_off_c,9,39,0,
2,1760,Note_on_c,9,35,7,
2,1760,Note_off_c,9,36,0,
2,1760,Note_on_c,9,38,3,
2,1760,Note_off_c,9,39,0,
2,1761,Note_on_c,9,35,7,
2,1761,Note_off_c,9,36,0,
2,1761,Note_on_c,9,38,3,
2,1761,Note_off_c,9,39,0,
2,1762,Note_on_c,9,35,7,
2,1762,Note_off_c,9,36,0,
2,1762,Note_on_c,9,38,3,
2,1762,Note_off_c,9,39,0,
2,1763,Note_on_c,9,35,7,
2,1763,Note_off_c,9,36,0,
2,1763,Note_on_c,9,38,3,
2,1763,Note_off_c,9,39,0,
2,1764,Note_on_c,9,35,7,
2,1764,Note_off_c,9,36,0,
2,1764,Note_on_c,9,38,3,
2,1764,Note_off_c,9,39,0,
2,1765,Note_on_c,9,35,7,
2,1765,Note_off_c,9,36,0,
2,1765,Note_on_c,9,38,3,
2,1765,Note_off_c,9,39,0,
2,1766,Note_on_c,9,35,7,
2,1766,Note_off_c,9,36,0,
2,1766,Note_on_c,9,38,3,
2,1766,Note_off_c,9,39,0,
2,1767,Note_on_c,9,35,7,
2,1767,Note_off_c,9,36,0,
2,1767,Note_on_c,9,38,3,
2,1767,Note_off_c,9,39,0,
2,1768,Note_on_c,9,35,7,
2,1768,Note_off_c,9,36,0,
2,1768,Note_on_c,9,38,3,
2,1768,Note_off_c,9,39,0,
2,1769,Note_on_c,9,35,7,
2,1769,Note_off_c,9,36,0,
2,1769,Note_on_c,9,38,3,
2,1769,Note_off_c,9,39,0,
2,1770,Note_on_c,9,35,7,
2,1770,Note_off_c,9,36,0,
2,1770,Note_on_c,9,38,3,
2,1770,Note_off_c,9,39,0,
2,1771,Note_on_c,9,35,7,
2,1771,Note_off_c,9,36,0,
2,1771,Note_on_c,9,38,3,
2,1771,Note_off_c,9,39,0,
2,1772,Note_on_c,9,35,7,
2,1772,Note_off_c,9,36,0,
2,1772,Note_on_c,9,38,3,
2,1772,Note_off_c,9,39,0,
2,1773,Note_on_c,9,35,7,
2,1773,Note_off_c,9,36,0,
2,1773,Note_on_c,9,38,3,
2,1773,Note_off_c,9,39,0,
2,1774,Note_on_c,9,35,7,
2,1774,Note_off_c,9,36,0,
2,1774,Note_on_c,9,38,3,
2,1774,Note_off_c,9,39,0,
2,1775,Note_on_c,9,35,7,
2,1775,Note_off_c,9,36,0,
2,1775,Note_on_c,9,38,3,
2,1775,Note_off_c,9,39,0,
2,1776,Note_on_c,9,35,7,
2,1776,Note_off_c,9,36,0,
2,1776,Note_on_c,9,38,3,
2,1776,Note_off_c,9,39,0,
2,1777,Note_on_c,9,35,7,
2,1777,Note_off_c,9,36,0,
2,1777,Note_on_c,9,38,3,
2,1777,Note_off_c,9,39,0,
2,1778,Note_on_c,9,35,7,
2,1778,Note_off_c,9,36,0,
2,1778,Note_on_c,9,38,3,
2,1778,Note_off_c,9,39,0,
2,1779,Note_on_c,9,35,7,
2,1779,Note_off_c,9,36,0,
2,1779,Note_on_c,9,38,3,
2,1779,Note_off_c,9,39,0,
2,1780,Note_on_c,9,35,7,
2,1780,Note_off_c,9,36,0,
2,1780,Note_on_c,9,38,3,
2,1780,Note_off_c,9,39,0,
2,1781,Note_on_c,9,35,7,
2,1781,Note_off_c,9,36,0,
2,1781,Note_on_c,9,38,3,
2,1781,Note_off_c,9,39,0,
2,1782,Note_on_c,9,35,7,
2,1782,Note_off_c,9,36,0,
2,1782,Note_on_c,9,38,3,
2,1782,Note_off_c,9,39,0,
2,1783,Note_on_c,9,35,7,
2,1783,Note_off_c,9,36,0,
2,1783,Note_on_c,9,38,3,
2,1783,Note_off_c,9,39,0,
2,1784,Note_on_c,9,35,7,
2,1784,Note_off_c,9,36,0,
2,1784,Note_on_c,9,38,3,
2,1784,Note_off_c,9,39,0,
2,1785,Note_on_c,9,35,7,
2,1785,Note_off_c,9,36,0,
2,1785,Note_on_c,9,38,3,
2,1785,Note_off_c,9,39,0,
2,1786,Note_on_c,9,35,7,
2,1786,Note_off_c,9,36,0,
2,1786,Note_on_c,9,38,3,
2,1786,Note_off_c,9,39,0,
2,1787,Note_on_c,9,35,7,
2,1787,Note_off_c,9,36,0,
2,1787,Note_on_c,9,38,3,
2,1787,Note_off_c,9,39,0,
2,1788,Note_on_c,9,35,7,
2,1788,Note_off_c,9,36,0,
2,1788,Note_on_c,9,38,3,
2,1788,Note_off_c,9,39,0,
2,1789,Note_on_c,9,35,7,
2,1789,Note_off_c,9,36,0,
2,1789,Note_on_c,9,38,3,
2,1789,Note_off_c,9,39,0,
2,1790,Note_on_c,9,35,7,
2,1790,Note_off_c,9,36,0,
2,1790,Note_on_c,9,38,3,
2,1790,Note_off_c,9,39,0,
2,1791,Note_on_c,9,35,7,
2,1791,Note_off_c,9,36,0,
2,1791,Note_on_c,9,38,3,
2,1791,Note_off_c,9,39,0,
2,1792,Note_on_c,9,35,7,
2,1792,Note_off_c,9,36,0,
2,1792,Note_on_c,9,38,3,
2,1792,Note_off_c,9,39,0,
2,1793,Note_on_c,9,35,7,
2,1793,Note_off_c,9,36,0,
2,1793,Note_on_c,9,38,3,
2,1793,Note_off_c,9,39,0,
2,1794,Note_on_c,9,35,7,
2,1794,Note_off_c,9,36,0,
2,1794,Note_on_c,9,38,3,
2,1794,Note_off_c,9,39,0,
2,1795,Note_on_c,9,35,7,
2,1795,Note_off_c,9,36,0,
2,1795,Note_on_c,9,38,3,
2,1795,Note_off_c,9,39,0,
2,1796,Note_on_c,9,35,7,
2,1796,Note_off_c,9,36,0,
2,1796,Note_on_c,9,38,3,
2,1796,Note_off_c,9,39,0,
2,1797,Note_on_c,9,35,7,
2,1797,Note_off_c,9,36,0,
2,1797,Note_on_c,9,38,3,
2,1797,Note_off_c,9,39,0,
2,1798,Note_on_c,9,35,7,
2,1798,Note_off_c,9,36,0,
2,1798,Note_on_c,9,38,3,
2,1798,Note_off_c,9,39,0,
2,1799,Note_on_c,9,35,7,
2,1799,Note_off_c,9,36,0,
2,1799,Note_on_c,9,38,3,
2,1799,Note_off_c,9,39,0,
2,1800,Note_on_c,9,35,7,
2,1800,Note_off_c,9,36,0,
2,1800,Note_on_c,9,38,3,
2,1800,Note_off_c,9,39,0,
2,1801,Note_on_c,9,35,7,
2,1801,Note_off_c,9,36,0,
2,1801,Note_on_c,9,38,3,
2,1801,Note_off_c,9,39,0,
2,1802,Note_on_c,9,35,7,
2,1802,Note_off_c,9,36,0,
2,1802,Note_on_c,9,38,3,
2,1802,Note_off_c,9,39,0,
2,1803,Note_on_c,9,35,7,
2,1803,Note_off_c,9,36,0,
2,1803,Note_on_c,9,38,3,
2,1803,Note_off_c,9,39,0,
2,1804,Note_on_c,9,35,7,
2,1804,Note_off_c,9,36,0,
2,1804,Note_on_c,9,38,3,
2,1804,Note_off_c,9,39,0,
2,1805,Note_on_c,9,35,7,
2,1805,Note_off_c,9,36,0,
2,1805,Note_on_c,9,38,3,
2,1805,Note_off_c,9,39,0,
2,1806,Note_on_c,9,35,7,
2,1806,Note_off_c,9,36,0,
2,1806,Note_on_c,9,38,3,
2,1806,Note_off_c,9,39,0,
2,1807,Note_on_c,9,35,7,
2,1807,Note_off_c,9,36,0,
2,1807,Note_on_c,9,38,3,
2,1807,Note_off_c,9,39,0,
2,1808,Note_on_c,9,35,7,
2,1808,Note_off_c,9,36,0,
2,1808,Note_on_c,9,38,3,
2,1808,Note_off_c,9,39,0,
2,1809,Note_on_c,9,35,7,
2,1809,Note_off_c,9,36,0,
2,1809,Note_on_c,9,38,3,
2,1809,Note_off_c,9,39,0,
2,1810,Note_on_c,9,35,7,
2,1810,Note_off_c,9,36,0,
2,1810,Note_on_c,9,38,3,
2,1810,Note_off_c,9,39,0,
2,1811,Note_on_c,9,35,7,
2,1811,Note_off_c,9,36,0,
2,1811,Note_on_c,9,38,3,
2,1811,Note_off_c,9,39,0,
2,1812,Note_on_c,9,35,7,
2,1812,Note_off_c,9,36,0,
2,1812,Note_on_c,9,38,3,
2,1812,Note_off_c,9,39,0,
2,1813,Note_on_c,9,35,7,
2,1813,Note_off_c,9,36,0,
2,1813,Note_on_c,9,38,3,
2,1813,Note_off_c,9,39,0,
2,1814,Note_on_c,9,35,7,
2,1814,Note_off_c,9,36,0,
2,1814,Note_on_c,9,38,3,
2,1814,Note_off_c,9,39,0,
2,1815,Note_on_c,9,35,7,
2,1815,Note_off_c,9,36,0,
2,1815,Note_on_c,9,38,3,
2,1815,Note_off_c,9,39,0,
2,1816,Note_on_c,9,35,7,
2,1816,Note_off_c,9,36,0,
2,1816,Note_on_c,9,38,3,
2,1816,Note_off_c,9,39,0,
2,1817,Note_on_c,9,35,7,
2,1817,Note_off_c,9,36,0,
2,1817,Note_on_c,9,38,3,
2,1817,Note_off_c,9,39,0,
2,1818,Note_on_c,9,35,7,
2,1818,Note_off_c,9,36,0,
2,1818,Note_on_c,9,38,3,
2,1818,Note_off_c,9,39,0,
2,1819,Note_on_c,9,35,7,
2,1819,Note_off_c,9,36,0,
2,1819,Note_on_c,9,38,3,
2,1819,Note_off_c,9,39,0,
2,1820,Note_on_c,9,35,7,
2,1820,Note_off_c,9,36,0,
2,1820,Note_on_c,9,38,3,
2,1820,Note_off_c,9,39,0,
2,1821,Note_on_c,9,35,7,
2,1821,Note_off_c,9,36,0,
2,1821,Note_on_c,9,38,3,
2,1821,Note_off_c,9,39,0,
2,1822,Note_on_c,9,35,7,
2,1822,Note_off_c,9,36,0,
2,1822,Note_on_c,9,38,3,
2,1822,Note_off_c,9,39,0,
2,1823,Note_on_c,9,35,7,
2,1823,Note_off_c,9,36,0,
2,1823,Note_on_c,9,38,3,
2,1823,Note_off_c,9,39,0,
2,1824,Note_on_c,9,35,7,
2,1824,Note_off_c,9,36,0,
2,1824,Note_on_c,9,38,3,
2,1824,Note_off_c,9,39,0,
2,1825,Note_on_c,9,35,7,
2,1825,Note_off_c,9,36,0,
2,1825,Note_on_c,9,38,3,
2,1825,Note_off_c,9,39,0,
2,1826,Note_on_c,9,35,7,
2,1826,Note_off_c,9,36,0,
2,1826,Note_on_c,9,38,3,
2,1826,Note_off_c,9,39,0,
2,1827,Note_on_c,9,35,7,
2,1827,Note_off_c,9,36,0,
2,1827,Note_on_c,9,38,3,
2,1827,Note_off_c,9,39,0,
2,1828,Note_on_c,9,35,7,
2,1828,Note_off_c,9,36,0,
2,1828,Note_on_c,9,38,3,
2,1828,Note_off_c,9,39,0,
2,1829,Note_on_c,9,35,7,
2,1829,Note_off_c,9,36,0,
2,1829,Note_on_c,9,38,3,
2,1829,Note_off_c,9,39,0,
2,1830,Note_on_c,9,35,7,
2,1830,Note_off_c,9,36,0,
2,1830,Note_on_c,9,38,3,
2,1830,Note_off_c,9,39,0,
2,1831,Note_on_c,9,35,7,
2,1831,Note_off_c,9,36,0,
2,1831,Note_on_c,9,38,3,
2,1831,Note_off_c,9,39,0,
2,1832,Note_on_c,9,35,7,
2,1832,Note_off_c,9,36,0,
2,1832,Note_on_c,9,38,3,
2,1832,Note_off_c,9,39,0,
2,1833,Note_on_c,9,35,7,
2,1833,Note_off_c,9,36,0,
2,1833,Note_on_c,9,38,3,
2,1833,Note_off_c,9,39,0,
2,1834,Note_on_c,9,35,7,
2,1834,Note_off_c,9,36,0,
2,1834,Note_on_c,9,38,3,
2,1834,Note_off_c,9,39,0,
2,1835,Note_on_c,9,35,7,
2,1835,Note_off_c,9,36,0,
2,1835,Note_on_c,9,38,3,
2,1835,Note_off_c,9,39,0,
2,1836,Note_on_c,9,35,7,
2,1836,Note_off_c,9,36,0,
2,1836,Note_on_c,9,38,3,
2,1836,Note_off_c,9,39,0,
2,1837,Note_on_c,9,35,7,
2,1837,Note_off_c,9,36,0,
2,1837,Note_on_c,9,38,3,
2,1837,Note_off_c,9,39,0,
2,1838,Note_on_c,9,35,7,
2,1838,Note_off_c,9,36,0,
2,1838,Note_on_c,9,38,3,
2,1838,Note_off_c,9,39,0,
2,1839,Note_on_c,9,35,7,
2,1839,Note_off_c,9,36,0,
2,1839,Note_on_c,9,38,3,
2,1839,Note_off_c,9,39,0,
2,1840,Note_on_c,9,35,7,
2,1840,Note_off_c,9,36,0,
2,1840,Note_on_c,9,38,3,
2,1840,Note_off_c,9,39,0,
2,1841,Note_on_c,9,35,7,
2,1841,Note_off_c,9,36,0,
2,1841,Note_on_c,9,38,3,
2,1841,Note_off_c,9,39,0,
2,1842,Note_on_c,9,35,7,
2,1842,Note_off_c,9,36,0,
2,1842,Note_on_c,9,38,3,
2,1842,Note_off_c,9,39,0,
2,1843,Note_on_c,9,35,7,
2,1843,Note_off_c,9,36,0,
2,1843,Note_on_c,9,38,3,
2,1843,Note_off_c,9,39,0,
2,1844,Note_on_c,9,35,7,
2,1844,Note_off_c,9,36,0,
2,1844,Note_on_c,9,38,3,
2,1844,Note_off_c,9,39,0,
2,1845,Note_on_c,9,35,7,
2,1845,Note_off_c,9,36,0,
2,1845,Note_on_c,9,38,3,
2,1845,Note_off_c,9,39,0,
2,1846,Note_on_c,9,35,7,
2,1846,Note_off_c,9,36,0,
2,1846,Note_on_c,9,38,3,
2,1846,Note_off_c,9,39,0,
2,1847,Note_on_c,9,35,7,
2,1847,Note_off_c,9,36,0,
2,1847,Note_on_c,9,38,3,
2,1847,Note_off_c,9,39,0,
2,1848,Note_on_c,9,35,7,
2,1848,Note_off_c,9,36,0,
2,1848,Note_on_c,9,38,3,
2,1848,Note_off_c,9,39,0,
2,1849,Note_on_c,9,35,7,
2,1849,Note_off_c,9,36,0,
2,1849,Note_on_c,9,38,3,
2,1849,Note_off_c,9,39,0,
2,1850,Note_on_c,9,35,7,
2,1850,Note_off_c,9,36,0,
2,1850,Note_on_c,9,38,3,
2,1850,Note_off_c,9,39,0,
2,1851,Note_on_c,9,35,7,
2,1851,Note_off_c,9,36,0,
2,1851,Note_on_c,9,38,3,
2,1851,Note_off_c,9,39,0,
2,1852,Note_on_c,9,35,7,
2,1852,Note_off_c,9,36,0,
2,1852,Note_on_c,9,38,3,
2,1852,Note_off_c,9,39,0,
2,1853,Note_on_c,9,35,7,
2,1853,Note_off_c,9,36,0,
2,1853,Note_on_c,9,38,3,
2,1853,Note_off_c,9,39,0,
2,1854,Note_on_c,9,35,7,
2,1854,Note_off_c,9,36,0,
2,1854,Note_on_c,9,38,3,
2,1854,Note_off_c,9,39,0,
2,1855,Note_on_c,9,35,7,
2,1855,Note_off_c,9,36,0,
2,1855,Note_on_c,9,38,3,
2,1855,Note_off_c,9,39,0,
2,1856,Note_on_c,9,35,7,
2,1856,Note_off_c,9,36,0,
2,1856,Note_on_c,9,38,3,
2,1856,Note_off_c,9,39,0,
2,1857,Note_on_c,9,35,7,
2,1857,Note_off_c,9,36,0,
2,1857,Note_on_c,9,38,3,
2,1857,Note_off_c,9,39,0,
2,1858,Note_on_c,9,35,7,
2,1858,Note_off_c,9,36,0,
2,1858,Note_on_c,9,38,3,
2,1858,Note_off_c,9,39,0,
2,1859,Note_on_c,9,35,7,
2,1859,Note_off_c,9,36,0,
2,1859,Note_on_c,9,38,3,
2,1859,Note_off_c,9,39,0,
2,1860,Note_on_c,9,35,7,
2,1860,Note_off_c,9,36,0,
2,1860,Note_on_c,9,38,3,
2,1860,Note_off_c,9,39,0,
2,1861,Note_on_c,9,35,7,
2,1861,Note_off_c,9,36,0,
2,1861,Note_on_c,9,38,3,
2,1861,Note_off_c,9,39,0,
2,1862,Note_on_c,9,35,7,
2,1862,Note_off_c,9,36,0,
2,1862,Note_on_c,9,38,3,
2,1862,Note_off_c,9,39,0,
2,1863,Note_on_c,9,35,7,
2,1863,Note_off_c,9,36,0,
2,1863,Note_on_c,9,38,3,
2,1863,Note_off_c,9,39,0,
2,1864,Note_on_c,9,35,7,
2,1864,Note_off_c,9,36,0,
2,1864,Note_on_c,9,38,3,
2,1864,Note_off_c,9,39,0,
2,1865,Note_on_c,9,35,7,
2,1865,Note_off_c,9,36,0,
2,1865,Note_on_c,9,38,3,
2,1865,Note_off_c,9,39,0,
2,1866,Note_on_c,9,35,7,
2,1866,Note_off_c,9,36,0,
2,1866,Note_on_c,9,38,3,
2,1866,Note_off_c,9,39,0,
2,1867,Note_on_c,9,35,7,
2,1867,Note_off_c,9,36,0,
2,1867,Note_on_c,9,38,3,
2,1867,Note_off_c,9,39,0,
2,1868,Note_on_c,9,35,7,
2,1868,Note_off_c,9,36,0,
2,1868,Note_on_c,9,38,3,
2,1868,Note_off_c,9,39,0,
2,1869,Note_on_c,9,35,7,
2,1869,Note_off_c,9,36,0,
2,1869,Note_on_c,9,38,3,
2,1869,Note_off_c,9,39,0,
2,1870,Note_on_c,9,35,7,
2,1870,Note_off_c,9,36,0,
2,1870,Note_on_c,9,38,3,
2,1870,Note_off_c,9,39,0,
2,1871,Note_on_c,9,35,7,
2,1871,Note_off_c,9,36,0,
2,1871,Note_on_c,9,38,3,
2,1871,Note_off_c,9,39,0,
2,1872,Note_on_c,9,35,7,
2,1872,Note_off_c,9,36,0,
2,1872,Note_on_c,9,38,3,
2,1872,Note_off_c,9,39,0,
2,1873,Note_on_c,9,35,7,
2,1873,Note_off_c,9,36,0,
2,1873,Note_on_c,9,38,3,
2,1873,Note_off_c,9,39,0,
2,1874,Note_on_c,9,35,7,
2,1874,Note_off_c,9,36,0,
2,1874,Note_on_c,9,38,3,
2,1874,Note_off_c,9,39,0,
2,1875,Note_on_c,9,35,7,
2,1875,Note_off_c,9,36,0,
2,1875,Note_on_c,9,38,3,
2,1875,Note_off_c,9,39,0,
2,1876,Note_on_c,9,35,7,
2,1876,Note_off_c,9,36,0,
2,1876,Note_on_c,9,38,3,
2,1876,Note_off_c,9,39,0,
2,1877,Note_on_c,9,35,7,
2,1877,Note_off_c,9,36,0,
2,1877,Note_on_c,9,38,3,
2,1877,Note_off_c,9,39,0,
2,1878,Note_on_c,9,35,7,
2,1878,Note_off_c,9,36,0,
2,1878,Note_on_c,9,38,3,
2,1878,Note_off_c,9,39,0,
2,1879,Note_on_c,9,35,7,
2,1879,Note_off_c,9,36,0,
2,1879,Note_on_c,9,38,3,
2,1879,Note_off_c,9,39,0,
2,1880,Note_on_c,9,35,7,
2,1880,Note_off_c,9,36,0,
2,1880,Note_on_c,9,38,3,
2,1880,Note_off_c,9,39,0,
2,1881,Note_on_c,9,35,7,
2,1881,Note_off_c,9,36,0,
2,1881,Note_on_c,9,38,3,
2,1881,Note_off_c,9,39,0,
2,1882,Note_on_c,9,35,7,
2,1882,Note_off_c,9,36,0,
2,1882,Note_on_c,9,38,3,
2,1882,Note_off_c,9,39,0,
2,1883,Note_on_c,9,35,7,
2,1883,Note_off_c,9,36,0,
2,1883,Note_on_c,9,38,3,
2,1883,Note_off_c,9,39,0,
2,1884,Note_on_c,9,35,7,
2,1884,Note_off_c,9,36,0,
2,1884,Note_on_c,9,38,3,
2,1884,Note_off_c,9,39,0,
2,1885,Note_on_c,9,35,7,
2,1885,Note_off_c,9,36,0,
2,1885,Note_on_c,9,38,3,
2,1885,Note_off_c,9,39,0,
2,1886,Note_on_c,9,35,7,
2,1886,Note_off_c,9,36,0,
2,1886,Note_on_c,9,38,3,
2,1886,Note_off_c,9,39,0,
2,1887,Note_on_c,9,35,7,
2,1887,Note_off_c,9,36,0,
2,1887,Note_on_c,9,38,3,
2,1887,Note_off_c,9,39,0,
2,1888,Note_on_c,9,35,7,
2,1888,Note_off_c,9,36,0,
2,1888,Note_on_c,9,38,3,
2,1888,Note_off_c,9,39,0,
2,1889,Note_on_c,9,35,7,
2,1889,Note_off_c,9,36,0,
2,1889,Note_on_c,9,38,3,
2,1889,Note_off_c,9,39,0,
2,1890,Note_on_c,9,35,7,
2,1890,Note_off_c,9,36,0,
2,1890,Note_on_c,9,38,3,
2,1890,Note_off_c,9,39,0,
2,1891,Note_on_c,9,35,7,
2,1891,Note_off_c,9,36,0,
2,1891,Note_on_c,9,38,3,
2,1891,Note_off_c,9,39,0,
2,1892,Note_on_c,9,35,7,
2,1892,Note_off_c,9,36,0,
2,1892,Note_on_c,9,38,3,
2,1892,Note_off_c,9,39,0,
2,1893,Note_on_c,9,35,7,
2,1893,Note_off_c,9,36,0,
2,1893,Note_on_c,9,38,3,
2,1893,Note_off_c,9,39,0,
2,1894,Note_on_c,9,35,7,
2,1894,Note_off_c,9,36,0,
2,1894,Note_on_c,9,38,3,
2,1894,Note_off_c,9,39,0,
2,1895,Note_on_c,9,35,7,
2,1895,Note_off_c,9,36,0,
2,1895,Note_on_c,9,38,3,
2,1895,Note_off_c,9,39,0,
2,1896,Note_on_c,9,35,7,
2,1896,Note_off_c,9,36,0,
2,1896,Note_on_c,9,38,3,
2,1896,Note_off_c,9,39,0,
2,1897,Note_on_c,9,35,7,
2,1897,Note_off_c,9,36,0,
2,1897,Note_on_c,9,38,3,
2,1897,Note_off_c,9,39,0,
2,1898,Note_on_c,9,35,7,
2,1898,Note_off_c,9,36,0,
2,1898,Note_on_c,9,38,3,
2,1898,Note_off_c,9,39,0,
2,1899,Note_on_c,9,35,7,
2,1899,Note_off_c,9,36,0,
2,1899,Note_on_c,9,38,3,
2,1899,Note_off_c,9,39,0,
2,1900,Note_on_c,9,35,7,
2,1900,Note_off_c,9,36,0,
2,1900,Note_on_c,9,38,3,
2,1900,Note_off_c,9,39,0,
2,1901,Note_on_c,9,35,7,
2,1901,Note_off_c,9,36,0,
2,1901,Note_on_c,9,38,3,
2,1901,Note_off_c,9,39,0,
2,1902,Note_on_c,9,35,7,
2,1902,Note_off_c,9,36,0,
2,1902,Note_on_c,9,38,3,
2,1902,Note_off_c,9,39,0,
2,1903,Note_on_c,9,35,7,
2,1903,Note_off_c,9,36,0,
2,1903,Note_on_c,9,38,3,
2,1903,Note_off_c,9,39,0,
2,1904,Note_on_c,9,35,7,
2,1904,Note_off_c,9,36,0,
2,1904,Note_on_c,9,38,3,
2,1904,Note_off_c,9,39,0,
2,1905,Note_on_c,9,35,7,
2,1905,Note_off_c,9,36,0,
2,1905,Note_on_c,9,38,3,
2,1905,Note_off_c,9,39,0,
2,1906,Note_on_c,9,35,7,
2,1906,Note_off_c,9,36,0,
2,1906,Note_on_c,9,38,3,
2,1906,Note_off_c,9,39,0,
2,1907,Note_on_c,9,35,7,
2,1907,Note_off_c,9,36,0,
2,1907,Note_on_c,9,38,3,
2,1907,Note_off_c,9,39,0,
2,1908,Note_on_c,9,35,7,
2,1908,Note_off_c,9,36,0,
2,1908,Note_on_c,9,38,3,
2,1908,Note_off_c,9,39,0,
2,1909,Note_on_c,9,35,7,
2,1909,Note_off_c,9,36,0,
2,1909,Note_on_c,9,38,3,
2,1909,Note_off_c,9,39,0,
2,1910,Note_on_c,9,35,7,
2,1910,Note_off_c,9,36,0,
2,1910,Note_on_c,9,38,3,
2,1910,Note_off_c,9,39,0,
2,1911,Note_on_c,9,35,7,
2,1911,Note_off_c,9,36,0,
2,1911,Note_on_c,9,38,3,
2,1911,Note_off_c,9,39,0,
2,1912,Note_on_c,9,35,7,
2,1912,Note_off_c,9,36,0,
2,1912,Note_on_c,9,38,3,
2,1912,Note_off_c,9,39,0,
2,1913,Note_on_c,9,35,7,
2,1913,Note_off_c,9,36,0,
2,1913,Note_on_c,9,38,3,
2,1913,Note_off_c,9,39,0,
2,1914,Note_on_c,9,35,7,
2,1914,Note_off_c,9,36,0,
2,1914,Note_on_c,9,38,3,
2,1914,Note_off_c,9,39,0,
2,1915,Note_on_c,9,35,7,
2,1915,Note_off_c,9,36,0,
2,1915,Note_on_c,9,38,3,
2,1915,Note_off_c,9,39,0,
2,1916,Note_on_c,9,35,7,
2,1916,Note_off_c,9,36,0,
2,1916,Note_on_c,9,38,3,
2,1916,Note_off_c,9,39,0,
2,1917,Note_on_c,9,35,7,
2,1917,Note_off_c,9,36,0,
2,1917,Note_on_c,9,38,3,
2,1917,Note_off_c,9,39,0,
2,1918,Note_on_c,9,35,7,
2,1918,Note_off_c,9,36,0,
2,1918,Note_on_c,9,38,3,
2,1918,Note_off_c,9,39,0,
2,1919,Note_on_c,9,35,7,
2,1919,Note_off_c,9,36,0,
2,1919,Note_on_c,9,38,3,
2,1919,Note_off_c,9,39,0,
2,1920,Note_on_c,9,35,7,
2,1920,Note_off_c,9,36,0,
2,1920,Note_on_c,9,38,3,
2,1920,Note_off_c,9,39,0,
2,1921,Note_on_c,9,35,7,
2,1921,Note_off_c,9,36,0,
2,1921,Note_on_c,9,38,3,
2,1921,Note_off_c,9,39,0,
2,1922,Note_on_c,9,35,7,
2,1922,Note_off_c,9,36,0,
2,1922,Note_on_c,9,38,3,
2,1922,Note_off_c,9,39,0,
2,1923,Note_on_c,9,35,7,
2,1923,Note_off_c,9,36,0,
2,1923,Note_on_c,9,38,3,
2,1923,Note_off_c,9,39,0,
2,1924,Note_on_c,9,35,7,
2,1924,Note_off_c,9,36,0,
2,1924,Note_on_c,9,38,3,
2,1924,Note_off_c,9,39,0,
2,1925,Note_on_c,9,35,7,
2,1925,Note_off_c,9,36,0,
2,1925,Note_on_c,9,38,3,
2,1925,Note_off_c,9,39,0,
2,1926,Note_on_c,9,35,7,
2,1926,Note_off_c,9,36,0,
2,1926,Note_on_c,9,38,3,
2,1926,Note_off_c,9,39,0,
2,1927,Note_on_c,9,35,7,
2,1927,Note_off_c,9,36,0,
2,1927,Note_on_c,9,38,3,
2,1927,Note_off_c,9,39,0,
2,1928,Note_on_c,9,35,7,
2,1928,Note_off_c,9,36,0,
2,1928,Note_on_c,9,38,3,
2,1928,Note_off_c,9,39,0,
2,1929,Note_on_c,9,35,7,
2,1929,Note_off_c,9,36,0,
2,1929,Note_on_c,9,38,3,
2,1929,Note_off_c,9,39,0,
2,1930,Note_on_c,9,35,7,
2,1930,Note_off_c,9,36,0,
2,1930,Note_on_c,9,38,3,
2,1930,Note_off_c,9,39,0,
2,1931,Note_on_c,9,35,7,
2,1931,Note_off_c,9,36,0,
2,1931,Note_on_c,9,38,3,
2,1931,Note_off_c,9,39,0,
2,1932,Note_on_c,9,35,7,
2,1932,Note_off_c,9,36,0,
2,1932,Note_on_c,9,38,3,
2,1932,Note_off_c,9,39,0,
2,1933,Note_on_c,9,35,7,
2,1933,Note_off_c,9,36,0,
2,1933,Note_on_c,9,38,3,
2,1933,Note_off_c,9,39,0,
2,1934,Note_on_c,9,35,7,
2,1934,Note_off_c,9,36,0,
2,1934,Note_on_c,9,38,3,
2,1934,Note_off_c,9,39,0,
2,1935,Note_on_c,9,35,7,
2,1935,Note_off_c,9,36,0,
2,1935,Note_on_c,9,38,3,
2,1935,Note_off_c,9,39,0,
2,1936,Note_on_c,9,35,7,
2,1936,Note_off_c,9,36,0,
2,1936,Note_on_c,9,38,3,
2,1936,Note_off_c,9,39,0,
2,1937,Note_on_c,9,35,7,
2,1937,Note_off_c,9,36,0,
2,1937,Note_on_c,9,38,3,
2,1937,Note_off_c,9,39,0,
2,1938,Note_on_c,9,35,7,
2,1938,Note_off_c,9,36,0,
2,1938,Note_on_c,9,38,3,
2,1938,Note_off_c,9,39,0,
2,1939,Note_on_c,9,35,7,
2,1939,Note_off_c,9,36,0,
2,1939,Note_on_c,9,38,3,
2,1939,Note_off_c,9,39,0,
2,1940,Note_on_c,9,35,7,
2,1940,Note_off_c,9,36,0,
2,1940,Note_on_c,9,38,3,
2,1940,Note_off_c,9,39,0,
2,1941,Note_on_c,9,35,7,
2,1941,Note_off_c,9,36,0,
2,1941,Note_on_c,9,38,3,
2,1941,Note_off_c,9,39,0,
2,1942,Note_on_c,9,35,7,
2,1942,Note_off_c,9,36,0,
2,1942,Note_on_c,9,38,3,
2,1942,Note_off_c,9,39,0,
2,1943,Note_on_c,9,35,7,
2,1943,Note_off_c,9,36,0,
2,1943,Note_on_c,9,38,3,
2,1943,Note_off_c,9,39,0,
2,1944,Note_on_c,9,35,7,
2,1944,Note_off_c,9,36,0,
2,1944,Note_on_c,9,38,3,
2,1944,Note_off_c,9,39,0,
2,1945,Note_on_c,9,35,7,
2,1945,Note_off_c,9,36,0,
2,1945,Note_on_c,9,38,3,
2,1945,Note_off_c,9,39,0,
2,1946,Note_on_c,9,35,7,
2,1946,Note_off_c,9,36,0,
2,1946,Note_on_c,9,38,3,
2,1946,Note_off_c,9,39,0,
2,1947,Note_on_c,9,35,7,
2,1947,Note_off_c,9,36,0,
2,1947,Note_on_c,9,38,3,
2,1947,Note_off_c,9,39,0,
2,1948,Note_on_c,9,35,7,
2,1948,Note_off_c,9,36,0,
2,1948,Note_on_c,9,38,3,
2,1948,Note_off_c,9,39,0,
2,1949,Note_on_c,9,35,7,
2,1949,Note_off_c,9,36,0,
2,1949,Note_on_c,9,38,3,
2,1949,Note_off_c,9,39,0,
2,1950,Note_on_c,9,35,7,
2,1950,Note_off_c,9,36,0,
2,1950,Note_on_c,9,38,3,
2,1950,Note_off_c,9,39,0,
2,1951,Note_on_c,9,35,7,
2,1951,Note_off_c,9,36,0,
2,1951,Note_on_c,9,38,3,
2,1951,Note_off_c,9,39,0,
2,1952,Note_on_c,9,35,7,
2,1952,Note_off_c,9,36,0,
2,1952,Note_on_c,9,38,3,
2,1952,Note_off_c,9,39,0,
2,1953,Note_on_c,9,35,7,
2,1953,Note_off_c,9,36,0,
2,1953,Note_on_c,9,38,3,
2,1953,Note_off_c,9,39,0,
2,1954,Note_on_c,9,35,7,
2,1954,Note_off_c,9,36,0,
2,1954,Note_on_c,9,38,3,
2,1954,Note_off_c,9,39,0,
2,1955,Note_on_c,9,35,7,
2,1955,Note_off_c,9,36,0,
2,1955,Note_on_c,9,38,3,
2,1955,Note_off_c,9,39,0,
2,1956,Note_on_c,9,35,7,
2,1956,Note_off_c,9,36,0,
2,1956,Note_on_c,9,38,3,
2,1956,Note_off_c,9,39,0,
2,1957,Note_on_c,9,35,7,
2,1957,Note_off_c,9,36,0,
2,1957,Note_on_c,9,38,3,
2,1957,Note_off_c,9,39,0,
2,1958,Note_on_c,9,35,7,
2,1958,Note_off_c,9,36,0,
2,1958,Note_on_c,9,38,3,
2,1958,Note_off_c,9,39,0,
2,1959,Note_on_c,9,35,7,
2,1959,Note_off_c,9,36,0,
2,1959,Note_on_c,9,38,3,
2,1959,Note_off_c,9,39,0,
2,1960,Note_on_c,9,35,7,
2,1960,Note_off_c,9,36,0,
2,1960,Note_on_c,9,38,3,
2,1960,Note_off_c,9,39,0,
2,1961,Note_on_c,9,35,7,
2,1961,Note_off_c,9,36,0,
2,1961,Note_on_c,9,38,3,
2,1961,Note_off_c,9,39,0,
2,1962,Note_on_c,9,35,7,
2,1962,Note_off_c,9,36,0,
2,1962,Note_on_c,9,38,3,
2,1962,Note_off_c,9,39,0,
2,1963,Note_on_c,9,35,7,
2,1963,Note_off_c,9,36,0,
2,1963,Note_on_c,9,38,3,
2,1963,Note_off_c,9,39,0,
2,1964,Note_on_c,9,35,7,
2,1964,Note_off_c,9,36,0,
2,1964,Note_on_c,9,38,3,
2,1964,Note_off_c,9,39,0,
2,1965,Note_on_c,9,35,7,
2,1965,Note_off_c,9,36,0,
2,1965,Note_on_c,9,38,3,
2,1965,Note_off_c,9,39,0,
2,1966,Note_on_c,9,35,7,
2,1966,Note_off_c,9,36,0,
2,1966,Note_on_c,9,38,3,
2,1966,Note_off_c,9,39,0,
2,1967,Note_on_c,9,35,7,
2,1967,Note_off_c,9,36,0,
2,1967,Note_on_c,9,38,3,
2,1967,Note_off_c,9,39,0,
2,1968,Note_on_c,9,35,7,
2,1968,Note_off_c,9,36,0,
2,1968,Note_on_c,9,38,3,
2,1968,Note_off_c,9,39,0,
2,1969,Note_on_c,9,35,7,
2,1969,Note_off_c,9,36,0,
2,1969,Note_on_c,9,38,3,
2,1969,Note_off_c,9,39,0,
2,1970,Note_on_c,9,35,7,
2,1970,Note_off_c,9,36,0,
2,1970,Note_on_c,9,38,3,
2,1970,Note_off_c,9,39,0,
2,1971,Note_on_c,9,35,7,
2,1971,Note_off_c,9,36,0,
2,1971,Note_on_c,9,38,3,
2,1971,Note_off_c,9,39,0,
2,1972,Note_on_c,9,35,7,
2,1972,Note_off_c,9,36,0,
2,1972,Note_on_c,9,38,3,
2,1972,Note_off_c,9,39,0,
2,1973,Note_on_c,9,35,7,
2,1973,Note_off_c,9,36,0,
2,1973,Note_on_c,9,38,3,
2,1973,Note_off_c,9,39,0,
2,1974,Note_on_c,9,35,7,
2,1974,Note_off_c,9,36,0,
2,1974,Note_on_c,9,38,3,
2,1974,Note_off_c,9,39,0,
2,1975,Note_on_c,9,35,7,
2,1975,Note_off_c,9,36,0,
2,1975,Note_on_c,9,38,3,
2,1975,Note_off_c,9,39,0,
2,1976,Note_on_c,9,35,7,
2,1976,Note_off_c,9,36,0,
2,1976,Note_on_c,9,38,3,
2,1976,Note_off_c,9,39,0,
2,1977,Note_on_c,9,35,7,
2,1977,Note_off_c,9,36,0,
2,1977,Note_on_c,9,38,3,
2,1977,Note_off_c,9,39,0,
2,1978,Note_on_c,9,35,7,
2,1978,Note_off_c,9,36,0,
2,1978,Note_on_c,9,38,3,
2,1978,Note_off_c,9,39,0,
2,1979,Note_on_c,9,35,7,
2,1979,Note_off_c,9,36,0,
2,1979,Note_on_c,9,38,3,
2,1979,Note_off_c,9,39,0,
2,1980,Note_on_c,9,35,7,
2,1980,Note_off_c,9,36,0,
2,1980,Note_on_c,9,38,3,
2,1980,Note_off_c,9,39,0,
2,1981,Note_on_c,9,35,7,
2,1981,Note_off_c,9,36,0,
2,1981,Note_on_c,9,38,3,
2,1981,Note_off_c,9,39,0,
2,1982,Note_on_c,9,35,7,
2,1982,Note_off_c,9,36,0,
2,1982,Note_on_c,9,38,3,
2,1982,Note_off_c,9,39,0,
2,1983,Note_on_c,9,35,7,
2,1983,Note_off_c,9,36,0,
2,1983,Note_on_c,9,38,3,
2,1983,Note_off_c,9,39,0,
2,1984,Note_on_c,9,35,7,
2,1984,Note_off_c,9,36,0,
2,1984,Note_on_c,9,38,3,
2,1984,Note_off_c,9,39,0,
2,1985,Note_on_c,9,35,7,
2,1985,Note_off_c,9,36,0,
2,1985,Note_on_c,9,38,3,
2,1985,Note_off_c,9,39,0,
2,1986,Note_on_c,9,35,7,
2,1986,Note_off_c,9,36,0,
2,1986,Note_on_c,9,38,3,
2,1986,Note_off_c,9,39,0,
2,1987,Note_on_c,9,35,7,
2,1987,Note_off_c,9,36,0,
2,1987,Note_on_c,9,38,3,
2,1987,Note_off_c,9,39,0,
2,1988,Note_on_c,9,35,7,
2,1988,Note_off_c,9,36,0,
2,1988,Note_on_c,9,38,3,
2,1988,Note_off_c,9,39,0,
2,1989,Note_on_c,9,35,7,
2,1989,Note_off_c,9,36,0,
2,1989,Note_on_c,9,38,3,
2,1989,Note_off_c,9,39,0,
2,1990,Note_on_c,9,35,7,
2,1990,Note_off_c,9,36,0,
2,1990,Note_on_c,9,38,3,
2,1990,Note_off_c,9,39,0,
2,1991,Note_on_c,9,35,7,
2,1991,Note_off_c,9,36,0,
2,1991,Note_on_c,9,38,3,
2,1991,Note_off_c,9,39,0,
2,1992,Note_on_c,9,35,7,
2,1992,Note_off_c,9,36,0,
2,1992,Note_on_c,9,38,3,
2,1992,Note_off_c,9,39,0,
2,1993,Note_on_c,9,35,7,
2,1993,Note_off_c,9,36,0,
2,1993,Note_on_c,9,38,3,
2,1993,Note_off_c,9,39,0,
2,1994,Note_on_c,9,35,7,
2,1994,Note_off_c,9,36,0,
2,1994,Note_on_c,9,38,3,
2,1994,Note_off_c,9,39,0,
2,1995,Note_on_c,9,35,7,
2,1995,Note_off_c,9,36,0,
2,1995,Note_on_c,9,38,3,
2,1995,Note_off_c,9,39,0,
2,1996,Note_on_c,9,35,7,
2,1996,Note_off_c,9,36,0,
2,1996,Note_on_c,9,38,3,
2,1996,Note_off_c,9,39,0,
2,1997,Note_on_c,9,35,7,
2,1997,Note_off_c,9,36,0,
2,1997,Note_on_c,9,38,3,
2,1997,Note_off_c,9,39,0,
2,1998,Note_on_c,9,35,7,
2,1998,Note_off_c,9,36,0,
2,1998,Note_on_c,9,38,3,
2,1998,Note_off_c,9,39,0,
2,1999,Note_on_c,9,35,7,
2,1999,Note_off_c,9,36,0,
2,1999,Note_on_c,9,38,3,
2,1999,Note_off_c,9,39,0,
2,2000,Note_on_c,9,35,7,
2,2000,Note_off_c,9,36,0,
2,2000,Note_on_c,9,38,3,
2,2000,Note_off_c,9,39,0,
2,2001,Note_on_c,9,35,7,
2,2001,Note_off_c,9,36,0,
2,2001,Note_on_c,9,38,3,
2,2001,Note_off_c,9,39,0,
2,2002,Note_on_c,9,35,7,
2,2002,Note_off_c,9,36,0,
2,2002,Note_on_c,9,38,3,
2,2002,Note_off_c,9,39,0,
2,2003,Note_on_c,9,35,7,
2,2003,Note_off_c,9,36,0,
2,2003,Note_on_c,9,38,3,
2,2003,Note_off_c,9,39,0,
2,2004,Note_on_c,9,35,7,
2,2004,Note_off_c,9,36,0,
2,2004,Note_on_c,9,38,3,
2,2004,Note_off_c,9,39,0,
2,2005,Note_on_c,9,35,7,
2,2005,Note_off_c,9,36,0,
2,2005,Note_on_c,9,38,3,
2,2005,Note_off_c,9,39,0,
2,2006,Note_on_c,9,35,7,
2,2006,Note_off_c,9,36,0,
2,2006,Note_on_c,9,38,3,
2,2006,Note_off_c,9,39,0,
2,2007,Note_on_c,9,35,7,
2,2007,Note_off_c,9,36,0,
2,2007,Note_on_c,9,38,3,
2,2007,Note_off_c,9,39,0,
2,2008,Note_on_c,9,35,7,
2,2008,Note_off_c,9,36,0,
2,2008,Note_on_c,9,38,3,
2,2008,Note_off_c,9,39,0,
2,2009,Note_on_c,9,35,7,
2,2009,Note_off_c,9,36,0,
2,2009,Note_on_c,9,38,3,
2,2009,Note_off_c,9,39,0,
2,2010,Note_on_c,9,35,7,
2,2010,Note_off_c,9,36,0,
2,2010,Note_on_c,9,38,3,
2,2010,Note_off_c,9,39,0,
2,2011,Note_on_c,9,35,7,
2,2011,Note_off_c,9,36,0,
2,2011,Note_on_c,9,38,3,
2,2011,Note_off_c,9,39,0,
2,2012,Note_on_c,9,35,7,
2,2012,Note_off_c,9,36,0,
2,2012,Note_on_c,9,38,3,
2,2012,Note_off_c,9,39,0,
2,2013,Note_on_c,9,35,7,
2,2013,Note_off_c,9,36,0,
2,2013,Note_on_c,9,38,3,
2,2013,Note_off_c,9,39,0,
2,2014,Note_on_c,9,35,7,
2,2014,Note_off_c,9,36,0,
2,2014,Note_on_c,9,38,3,
2,2014,Note_off_c,9,39,0,
2,2015,Note_on_c,9,35,7,
2,2015,Note_off_c,9,36,0,
2,2015,Note_on_c,9,38,3,
2,2015,Note_off_c,9,39,0,
2,2016,Note_on_c,9,35,7,
2,2016,Note_off_c,9,36,0,
2,2016,Note_on_c,9,38,3,
2,2016,Note_off_c,9,39,0,
2,2017,Note_on_c,9,35,7,
2,2017,Note_off_c,9,36,0,
2,2017,Note_on_c,9,38,3,
2,2017,Note_off_c,9,39,0,
2,2018,Note_on_c,9,35,7,
2,2018,Note_off_c,9,36,0,
2,2018,Note_on_c,9,38,3,
2,2018,Note_off_c,9,39,0,
2,2019,Note_on_c,9,35,7,
2,2019,Note_off_c,9,36,0,
2,2019,Note_on_c,9,38,3,
2,2019,Note_off_c,9,39,0,
2,2020,Note_on_c,9,35,7,
2,2020,Note_off_c,9,36,0,
2,2020,Note_on_c,9,38,3,
2,2020,Note_off_c,9,39,0,
2,2021,Note_on_c,9,35,7,
2,2021,Note_off_c,9,36,0,
2,2021,Note_on_c,9,38,3,
2,2021,Note_off_c,9,39,0,
2,2022,Note_on_c,9,35,7,
2,2022,Note_off_c,9,36,0,
2,2022,Note_on_c,9,38,3,
2,2022,Note_off_c,9,39,0,
2,2023,Note_on_c,9,35,7,
2,2023,Note_off_c,9,36,0,
2,2023,Note_on_c,9,38,3,
2,2023,Note_off_c,9,39,0,
2,2024,Note_on_c,9,35,7,
2,2024,Note_off_c,9,36,0,
2,2024,Note_on_c,9,38,3,
2,2024,Note_off_c,9,39,0,
2,2025,Note_on_c,9,35,7,
2,2025,Note_off_c,9,36,0,
2,2025,Note_on_c,9,38,3,
2,2025,Note_off_c,9,39,0,
2,2026,Note_on_c,9,35,7,
2,2026,Note_off_c,9,36,0,
2,2026,Note_on_c,9,38,3,
2,2026,Note_off_c,9,39,0,
2,2027,Note_on_c,9,35,7,
2,2027,Note_off_c,9,36,0,
2,2027,Note_on_c,9,38,3,
2,2027,Note_off_c,9,39,0,
2,2028,Note_on_c,9,35,7,
2,2028,Note_off_c,9,36,0,
2,2028,Note_on_c,9,38,3,
2,2028,Note_off_c,9,39,0,
2,2029,Note_on_c,9,35,7,
2,2029,Note_off_c,9,36,0,
2,2029,Note_on_c,9,38,3,
2,2029,Note_off_c,9,39,0,
2,2030,Note_on_c,9,35,7,
2,2030,Note_off_c,9,36,0,
2,2030,Note_on_c,9,38,3,
2,2030,Note_off_c,9,39,0,
2,2031,Note_on_c,9,35,7,
2,2031,Note_off_c,9,36,0,
2,2031,Note_on_c,9,38,3,
2,2031,Note_off_c,9,39,0,
2,2032,Note_on_c,9,35,7,
2,2032,Note_off_c,9,36,0,
2,2032,Note_on_c,9,38,3,
2,2032,Note_off_c,9,39,0,
2,2033,Note_on_c,9,35,7,
2,2033,Note_off_c,9,36,0,
2,2033,Note_on_c,9,38,3,
2,2033,Note_off_c,9,39,0,
2,2034,Note_on_c,9,35,7,
2,2034,Note_off_c,9,36,0,
2,2034,Note_on_c,9,38,3,
2,2034,Note_off_c,9,39,0,
2,2035,Note_on_c,9,35,7,
2,2035,Note_off_c,9,36,0,
2,2035,Note_on_c,9,38,3,
2,2035,Note_off_c,9,39,0,
2,2036,Note_on_c,9,35,7,
2,2036,Note_off_c,9,36,0,
2,2036,Note_on_c,9,38,3,
2,2036,Note_off_c,9,39,0,
2,2037,Note_on_c,9,35,7,
2,2037,Note_off_c,9,36,0,
2,2037,Note_on_c,9,38,3,
2,2037,Note_off_c,9,39,0,
2,2038,Note_on_c,9,35,7,
2,2038,Note_off_c,9,36,0,
2,2038,Note_on_c,9,38,3,
2,2038,Note_off_c,9,39,0,
2,2039,Note_on_c,9,35,7,
2,2039,Note_off_c,9,36,0,
2,2039,Note_on_c,9,38,3,
2,2039,Note_off_c,9,39,0,
2,2040,Note_on_c,9,35,7,
2,2040,Note_off_c,9,36,0,
2,2040,Note_on_c,9,38,3,
2,2040,Note_off_c,9,39,0,
2,2041,Note_on_c,9,35,7,
2,2041,Note_off_c,9,36,0,
2,2041,Note_on_c,9,38,3,
2,2041,Note_off_c,9,39,0,
2,2042,Note_on_c,9,35,7,
2,2042,Note_off_c,9,36,0,
2,2042,Note_on_c,9,38,3,
2,2042,Note_off_c,9,39,0,
2,2043,Note_on_c,9,35,7,
2,2043,Note_off_c,9,36,0,
2,2043,Note_on_c,9,38,3,
2,2043,Note_off_c,9,39,0,
2,2044,Note_on_c,9,35,7,
2,2044,Note_off_c,9,36,0,
2,2044,Note_on_c,9,38,3,
2,2044,Note_off_c,9,39,0,
2,2045,Note_on_c,9,35,7,
2,2045,Note_off_c,9,36,0,
2,2045,Note_on_c,9,38,3,
2,2045,Note_off_c,9,39,0,
2,2046,Note_on_c,9,35,7,
2,2046,Note_off_c,9,36,0,
2,2046,Note_on_c,9,38,3,
2,2046,Note_off_c,9,39,0,
2,2047,Note_on_c,9,35,7,
2,2047,Note_off_c,9,36,0,
2,2047,Note_on_c,9,38,3,
2,2047,Note_off_c,9,39,0,
2,2048,Note_on_c,9,35,7,
2,2048,Note_off_c,9,36,0,
2,2048,Note_on_c,9,38,3,
2,2048,Note_off_c,9,39,0,
2,2049,Note_on_c,9,35,7,
2,2049,Note_off_c,9,36,0,
2,2049,Note_on_c,9,38,3,
2,2049,Note_off_c,9,39,0,
2,2050,Note_on_c,9,35,7,
2,2050,Note_off_c,9,36,0,
2,2050,Note_on_c,9,38,3,
2,2050,Note_off_c,9,39,0,
2,2051,Note_on_c,9,35,7,
2,2051,Note_off_c,9,36,0,
2,2051,Note_on_c,9,38,3,
2,2051,Note_off_c,9,39,0,
2,2052,Note_on_c,9,35,7,
2,2052,Note_off_c,9,36,0,
2,2052,Note_on_c,9,38,3,
2,2052,Note_off_c,9,39,0,
2,2053,Note_on_c,9,35,7,
2,2053,Note_off_c,9,36,0,
2,2053,Note_on_c,9,38,3,
2,2053,Note_off_c,9,39,0,
2,2054,Note_on_c,9,35,7,
2,2054,Note_off_c,9,36,0,
2,2054,Note_on_c,9,38,3,
2,2054,Note_off_c,9,39,0,
2,2055,Note_on_c,9,35,7,
2,2055,Note_off_c,9,36,0,
2,2055,Note_on_c,9,38,3,
2,2055,Note_off_c,9,39,0,
2,2056,Note_on_c,9,35,7,
2,2056,Note_off_c,9,36,0,
2,2056,Note_on_c,9,38,3,
2,2056,Note_off_c,9,39,0,
2,2057,Note_on_c,9,35,7,
2,2057,Note_off_c,9,36,0,
2,2057,Note_on_c,9,38,3,
2,2057,Note_off_c,9,39,0,
2,2058,Note_on_c,9,35,7,
2,2058,Note_off_c,9,36,0,
2,2058,Note_on_c,9,38,3,
2,2058,Note_off_c,9,39,0,
2,2059,Note_on_c,9,35,7,
2,2059,Note_off_c,9,36,0,
2,2059,Note_on_c,9,38,3,
2,2059,Note_off_c,9,39,0,
2,2060,Note_on_c,9,35,7,
2,2060,Note_off_c,9,36,0,
2,2060,Note_on_c,9,38,3,
2,2060,Note_off_c,9,39,0,
2,2061,Note_on_c,9,35,7,
2,2061,Note_off_c,9,36,0,
2,2061,Note_on_c,9,38,3,
2,2061,Note_off_c,9,39,0,
2,2062,Note_on_c,9,35,7,
2,2062,Note_off_c,9,36,0,
2,2062,Note_on_c,9,38,3,
2,2062,Note_off_c,9,39,0,
2,2063,Note_on_c,9,35,7,
2,2063,Note_off_c,9,36,0,
2,2063,Note_on_c,9,38,3,
2,2063,Note_off_c,9,39,0,
2,2064,Note_on_c,9,35,7,
2,2064,Note_off_c,9,36,0,
2,2064,Note_on_c,9,38,3,
2,2064,Note_off_c,9,39,0,
2,2065,Note_on_c,9,35,7,
2,2065,Note_off_c,9,36,0,
2,2065,Note_on_c,9,38,3,
2,2065,Note_off_c,9,39,0,
2,2066,Note_on_c,9,35,7,
2,2066,Note_off_c,9,36,0,
2,2066,Note_on_c,9,38,3,
2,2066,Note_off_c,9,39,0,
2,2067,Note_on_c,9,35,7,
2,2067,Note_off_c,9,36,0,
2,2067,Note_on_c,9,38,3,
2,2067,Note_off_c,9,39,0,
2,2068,Note_on_c,9,35,7,
2,2068,Note_off_c,9,36,0,
2,2068,Note_on_c,9,38,3,
2,2068,Note_off_c,9,39,0,
2,2069,Note_on_c,9,35,7,
2,2069,Note_off_c,9,36,0,
2,2069,Note_on_c,9,38,3,
2,2069,Note_off_c,9,39,0,
2,2070,Note_on_c,9,35,7,
2,2070,Note_off_c,9,36,0,
2,2070,Note_on_c,9,38,3,
2,2070,Note_off_c,9,39,0,
2,2071,Note_on_c,9,35,7,
2,2071,Note_off_c,9,36,0,
2,2071,Note_on_c,9,38,3,
2,2071,Note_off_c,9,39,0,
2,2072,Note_on_c,9,35,7,
2,2072,Note_off_c,9,36,0,
2,2072,Note_on_c,9,38,3,
2,2072,Note_off_c,9,39,0,
2,2073,Note_on_c,9,35,7,
2,2073,Note_off_c,9,36,0,
2,2073,Note_on_c,9,38,3,
2,2073,Note_off_c,9,39,0,
2,2074,Note_on_c,9,35,7,
2,2074,Note_off_c,9,36,0,
2,2074,Note_on_c,9,38,3,
2,2074,Note_off_c,9,39,0,
2,2075,Note_on_c,9,35,7,
2,2075,Note_off_c,9,36,0,
2,2075,Note_on_c,9,38,3,
2,2075,Note_off_c,9,39,0,
2,2076,Note_on_c,9,35,7,
2,2076,Note_off_c,9,36,0,
2,2076,Note_on_c,9,38,3,
2,2076,Note_off_c,9,39,0,
2,2077,Note_on_c,9,35,7,
2,2077,Note_off_c,9,36,0,
2,2077,Note_on_c,9,38,3,
2,2077,Note_off_c,9,39,0,
2,2078,Note_on_c,9,35,7,
2,2078,Note_off_c,9,36,0,
2,2078,Note_on_c,9,38,3,
2,2078,Note_off_c,9,39,0,
2,2079,Note_on_c,9,35,7,
2,2079,Note_off_c,9,36,0,
2,2079,Note_on_c,9,38,3,
2,2079,Note_off_c,9,39,0,
2,2080,Note_on_c,9,35,7,
2,2080,Note_off_c,9,36,0,
2,2080,Note_on_c,9,38,3,
2,2080,Note_off_c,9,39,0,
2,2081,Note_on_c,9,35,7,
2,2081,Note_off_c,9,36,0,
2,2081,Note_on_c,9,38,3,
2,2081,Note_off_c,9,39,0,
2,2082,Note_on_c,9,35,7,
2,2082,Note_off_c,9,36,0,
2,2082,Note_on_c,9,38,3,
2,2082,Note_off_c,9,39,0,
2,2083,Note_on_c,9,35,7,
2,2083,Note_off_c,9,36,0,
2,2083,Note_on_c,9,38,3,
2,2083,Note_off_c,9,39,0,
2,2084,Note_on_c,9,35,7,
2,2084,Note_off_c,9,36,0,
2,2084,Note_on_c,9,38,3,
2,2084,Note_off_c,9,39,0,
2,2085,Note_on_c,9,35,7,
2,2085,Note_off_c,9,36,0,
2,2085,Note_on_c,9,38,3,
2,2085,Note_off_c,9,39,0,
2,2086,Note_on_c,9,35,7,
2,2086,Note_off_c,9,36,0,
2,2086,Note_on_c,9,38,3,
2,2086,Note_off_c,9,39,0,
2,2087,Note_on_c,9,35,7,
2,2087,Note_off_c,9,36,0,
2,2087,Note_on_c,9,38,3,
2,2087,Note_off_c,9,39,0,
2,2088,Note_on_c,9,35,7,
2,2088,Note_off_c,9,36,0,
2,2088,Note_on_c,9,38,3,
2,2088,Note_off_c,9,39,0,
2,2089,Note_on_c,9,35,7,
2,2089,Note_off_c,9,36,0,
2,2089,Note_on_c,9,38,3,
2,2089,Note_off_c,9,39,0,
2,2090,Note_on_c,9,35,7,
2,2090,Note_off_c,9,36,0,
2,2090,Note_on_c,9,38,3,
2,2090,Note_off_c,9,39,0,
2,2091,Note_on_c,9,35,7,
2,2091,Note_off_c,9,36,0,
2,2091,Note_on_c,9,38,3,
2,2091,Note_off_c,9,39,0,
2,2092,Note_on_c,9,35,7,
2,2092,Note_off_c,9,36,0,
2,2092,Note_on_c,9,38,3,
2,2092,Note_off_c,9,39,0,
2,2093,Note_on_c,9,35,7,
2,2093,Note_off_c,9,36,0,
2,2093,Note_on_c,9,38,3,
2,2093,Note_off_c,9,39,0,
2,2094,Note_on_c,9,35,7,
2,2094,Note_off_c,9,36,0,
2,2094,Note_on_c,9,38,3,
2,2094,Note_off_c,9,39,0,
2,2095,Note_on_c,9,35,7,
2,2095,Note_off_c,9,36,0,
2,2095,Note_on_c,9,38,3,
2,2095,Note_off_c,9,39,0,
2,2096,Note_on_c,9,35,7,
2,2096,Note_off_c,9,36,0,
2,2096,Note_on_c,9,38,3,
2,2096,Note_off_c,9,39,0,
2,2097,Note_on_c,9,35,7,
2,2097,Note_off_c,9,36,0,
2,2097,Note_on_c,9,38,3,
2,2097,Note_off_c,9,39,0,
2,2098,Note_on_c,9,35,7,
2,2098,Note_off_c,9,36,0,
2,2098,Note_on_c,9,38,3,
2,2098,Note_off_c,9,39,0,
2,2099,Note_on_c,9,35,7,
2,2099,Note_off_c,9,36,0,
2,2099,Note_on_c,9,38,3,
2,2099,Note_off_c,9,39,0,
2,2100,Note_on_c,9,35,7,
2,2100,Note_off_c,9,36,0,
2,2100,Note_on_c,9,38,3,
2,2100,Note_off_c,9,39,0,
2,2101,Note_on_c,9,35,7,
2,2101,Note_off_c,9,36,0,
2,2101,Note_on_c,9,38,3,
2,2101,Note_off_c,9,39,0,
2,2102,Note_on_c,9,35,7,
2,2102,Note_off_c,9,36,0,
2,2102,Note_on_c,9,38,3,
2,2102,Note_off_c,9,39,0,
2,2103,Note_on_c,9,35,7,
2,2103,Note_off_c,9,36,0,
2,2103,Note_on_c,9,38,3,
2,2103,Note_off_c,9,39,0,
2,2104,Note_on_c,9,35,7,
2,2104,Note_off_c,9,36,0,
2,2104,Note_on_c,9,38,3,
2,2104,Note_off_c,9,39,0,
2,2105,Note_on_c,9,35,7,
2,2105,Note_off_c,9,36,0,
2,2105,Note_on_c,9,38,3,
2,2105,Note_off_c,9,39,0,
2,2106,Note_on_c,9,35,7,
2,2106,Note_off_c,9,36,0,
2,2106,Note_on_c,9,38,3,
2,2106,Note_off_c,9,39,0,
2,2107,Note_on_c,9,35,7,
2,2107,Note_off_c,9,36,0,
2,2107,Note_on_c,9,38,3,
2,2107,Note_off_c,9,39,0,
2,2108,Note_on_c,9,35,7,
2,2108,Note_off_c,9,36,0,
2,2108,Note_on_c,9,38,3,
2,2108,Note_off_c,9,39,0,
2,2109,Note_on_c,9,35,7,
2,2109,Note_off_c,9,36,0,
2,2109,Note_on_c,9,38,3,
2,2109,Note_off_c,9,39,0,
2,2110,Note_on_c,9,35,7,
2,2110,Note_off_c,9,36,0,
2,2110,Note_on_c,9,38,3,
2,2110,Note_off_c,9,39,0,
2,2111,Note_on_c,9,35,7,
2,2111,Note_off_c,9,36,0,
2,2111,Note_on_c,9,38,3,
2,2111,Note_off_c,9,39,0,
2,2112,Note_on_c,9,35,7,
2,2112,Note_off_c,9,36,0,
2,2112,Note_on_c,9,38,3,
2,2112,Note_off_c,9,39,0,
2,2113,Note_on_c,9,35,7,
2,2113,Note_off_c,9,36,0,
2,2113,Note_on_c,9,38,3,
2,2113,Note_off_c,9,39,0,
2,2114,Note_on_c,9,35,7,
2,2114,Note_off_c,9,36,0,
2,2114,Note_on_c,9,38,3,
2,2114,Note_off_c,9,39,0,
2,2115,Note_on_c,9,35,7,
2,2115,Note_off_c,9,36,0,
2,2115,Note_on_c,9,38,3,
2,2115,Note_off_c,9,39,0,
2,2116,Note_on_c,9,35,7,
2,2116,Note_off_c,9,36,0,
2,2116,Note_on_c,9,38,3,
2,2116,Note_off_c,9,39,0,
2,2117,Note_on_c,9,35,7,
2,2117,Note_off_c,9,36,0,
2,2117,Note_on_c,9,38,3,
2,2117,Note_off_c,9,39,0,
2,2118,Note_on_c,9,35,7,
2,2118,Note_off_c,9,36,0,
2,2118,Note_on_c,9,38,3,
2,2118,Note_off_c,9,39,0,
2,2119,Note_on_c,9,35,7,
2,2119,Note_off_c,9,36,0,
2,2119,Note_on_c,9,38,3,
2,2119,Note_off_c,9,39,0,
2,2120,Note_on_c,9,35,7,
2,2120,Note_off_c,9,36,0,
2,2120,Note_on_c,9,38,3,
2,2120,Note_off_c,9,39,0,
2,2121,Note_on_c,9,35,7,
2,2121,Note_off_c,9,36,0,
2,2121,Note_on_c,9,38,3,
2,2121,Note_off_c,9,39,0,
2,2122,Note_on_c,9,35,7,
2,2122,Note_off_c,9,36,0,
2,2122,Note_on_c,9,38,3,
2,2122,Note_off_c,9,39,0,
2,2123,Note_on_c,9,35,7,
2,2123,Note_off_c,9,36,0,
2,2123,Note_on_c,9,38,3,
2,2123,Note_off_c,9,39,0,
2,2124,Note_on_c,9,35,7,
2,2124,Note_off_c,9,36,0,
2,2124,Note_on_c,9,38,3,
2,2124,Note_off_c,9,39,0,
2,2125,Note_on_c,9,35,7,
2,2125,Note_off_c,9,36,0,
2,2125,Note_on_c,9,38,3,
2,2125,Note_off_c,9,39,0,
2,2126,Note_on_c,9,35,7,
2,2126,Note_off_c,9,36,0,
2,2126,Note_on_c,9,38,3,
2,2126,Note_off_c,9,39,0,
2,2127,Note_on_c,9,35,7,
2,2127,Note_off_c,9,36,0,
2,2127,Note_on_c,9,38,3,
2,2127,Note_off_c,9,39,0,
2,2128,Note_on_c,9,35,7,
2,2128,Note_off_c,9,36,0,
2,2128,Note_on_c,9,38,3,
2,2128,Note_off_c,9,39,0,
2,2129,Note_on_c,9,35,7,
2,2129,Note_off_c,9,36,0,
2,2129,Note_on_c,9,38,3,
2,2129,Note_off_c,9,39,0,
2,2130,Note_on_c,9,35,7,
2,2130,Note_off_c,9,36,0,
2,2130,Note_on_c,9,38,3,
2,2130,Note_off_c,9,39,0,
2,2131,Note_on_c,9,35,7,
2,2131,Note_off_c,9,36,0,
2,2131,Note_on_c,9,38,3,
2,2131,Note_off_c,9,39,0,
2,2132,Note_on_c,9,35,7,
2,2132,Note_off_c,9,36,0,
2,2132,Note_on_c,9,38,3,
2,2132,Note_off_c,9,39,0,
2,2133,Note_on_c,9,35,7,
2,2133,Note_off_c,9,36,0,
2,2133,Note_on_c,9,38,3,
2,2133,Note_off_c,9,39,0,
2,2134,Note_on_c,9,35,7,
2,2134,Note_off_c,9,36,0,
2,2134,Note_on_c,9,38,3,
2,2134,Note_off_c,9,39,0,
2,2135,Note_on_c,9,35,7,
2,2135,Note_off_c,9,36,0,
2,2135,Note_on_c,9,38,3,
2,2135,Note_off_c,9,39,0,
2,2136,Note_on_c,9,35,7,
2,2136,Note_off_c,9,36,0,
2,2136,Note_on_c,9,38,3,
2,2136,Note_off_c,9,39,0,
2,2137,Note_on_c,9,35,7,
2,2137,Note_off_c,9,36,0,
2,2137,Note_on_c,9,38,3,
2,2137,Note_off_c,9,39,0,
2,2138,Note_on_c,9,35,7,
2,2138,Note_off_c,9,36,0,
2,2138,Note_on_c,9,38,3,
2,2138,Note_off_c,9,39,0,
2,2139,Note_on_c,9,35,7,
2,2139,Note_off_c,9,36,0,
2,2139,Note_on_c,9,38,3,
2,2139,Note_off_c,9,39,0,
2,2140,Note_on_c,9,35,7,
2,2140,Note_off_c,9,36,0,
2,2140,Note_on_c,9,38,3,
2,2140,Note_off_c,9,39,0,
2,2141,Note_on_c,9,35,7,
2,2141,Note_off_c,9,36,0,
2,2141,Note_on_c,9,38,3,
2,2141,Note_off_c,9,39,0,
2,2142,Note_on_c,9,35,7,
2,2142,Note_off_c,9,36,0,
2,2142,Note_on_c,9,38,3,
2,2142,Note_off_c,9,39,0,
2,2143,Note_on_c,9,35,7,
2,2143,Note_off_c,9,36,0,
2,2143,Note_on_c,9,38,3,
2,2143,Note_off_c,9,39,0,
2,2144,Note_on_c,9,35,7,
2,2144,Note_off_c,9,36,0,
2,2144,Note_on_c,9,38,3,
2,2144,Note_off_c,9,39,0,
2,2145,Note_on_c,9,35,7,
2,2145,Note_off_c,9,36,0,
2,2145,Note_on_c,9,38,3,
2,2145,Note_off_c,9,39,0,
2,2146,Note_on_c,9,35,7,
2,2146,Note_off_c,9,36,0,
2,2146,Note_on_c,9,38,3,
2,2146,Note_off_c,9,39,0,
2,2147,Note_on_c,9,35,7,
2,2147,Note_off_c,9,36,0,
2,2147,Note_on_c,9,38,3,
2,2147,Note_off_c,9,39,0,
2,2148,Note_on_c,9,35,7,
2,2148,Note_off_c,9,36,0,
2,2148,Note_on_c,9,38,3,
2,2148,Note_off_c,9,39,0,
2,2149,Note_on_c,9,35,7,
2,2149,Note_off_c,9,36,0,
2,2149,Note_on_c,9,38,3,
2,2149,Note_off_c,9,39,0,
2,2150,Note_on_c,9,35,7,
2,2150,Note_off_c,9,36,0,
2,2150,Note_on_c,9,38,3,
2,2150,Note_off_c,9,39,0,
2,2151,Note_on_c,9,35,7,
2,2151,Note_off_c,9,36,0,
2,2151,Note_on_c,9,38,3,
2,2151,Note_off_c,9,39,0,
2,2152,Note_on_c,9,35,7,
2,2152,Note_off_c,9,36,0,
2,2152,Note_on_c,9,38,3,
2,2152,Note_off_c,9,39,0,
2,2153,Note_on_c,9,35,7,
2,2153,Note_off_c,9,36,0,
2,2153,Note_on_c,9,38,3,
2,2153,Note_off_c,9,39,0,
2,2154,Note_on_c,9,35,7,
2,2154,Note_off_c,9,36,0,
2,2154,Note_on_c,9,38,3,
2,2154,Note_off_c,9,39,0,
2,2155,Note_on_c,9,35,7,
2,2155,Note_off_c,9,36,0,
2,2155,Note_on_c,9,38,3,
2,2155,Note_off_c,9,39,0,
2,2156,Note_on_c,9,35,7,
2,2156,Note_off_c,9,36,0,
2,2156,Note_on_c,9,38,3,
2,2156,Note_off_c,9,39,0,
2,2157,Note_on_c,9,35,7,
2,2157,Note_off_c,9,36,0,
2,2157,Note_on_c,9,38,3,
2,2157,Note_off_c,9,39,0,
2,2158,Note_on_c,9,35,7,
2,2158,Note_off_c,9,36,0,
2,2158,Note_on_c,9,38,3,
2,2158,Note_off_c,9,39,0,
2,2159,Note_on_c,9,35,7,
2,2159,Note_off_c,9,36,0,
2,2159,Note_on_c,9,38,3,
2,2159,Note_off_c,9,39,0,
2,2160,Note_on_c,9,35,7,
2,2160,Note_off_c,9,36,0,
2,2160,Note_on_c,9,38,3,
2,2160,Note_off_c,9,39,0,
2,2161,Note_on_c,9,35,7,
2,2161,Note_off_c,9,36,0,
2,2161,Note_on_c,9,38,3,
2,2161,Note_off_c,9,39,0,
2,2162,Note_on_c,9,35,7,
2,2162,Note_off_c,9,36,0,
2,2162,Note_on_c,9,38,3,
2,2162,Note_off_c,9,39,0,
2,2163,Note_on_c,9,35,7,
2,2163,Note_off_c,9,36,0,
2,2163,Note_on_c,9,38,3,
2,2163,Note_off_c,9,39,0,
2,2164,Note_on_c,9,35,7,
2,2164,Note_off_c,9,36,0,
2,2164,Note_on_c,9,38,3,
2,2164,Note_off_c,9,39,0,
2,2165,Note_on_c,9,35,7,
2,2165,Note_off_c,9,36,0,
2,2165,Note_on_c,9,38,3,
2,2165,Note_off_c,9,39,0,
2,2166,Note_on_c,9,35,7,
2,2166,Note_off_c,9,36,0,
2,2166,Note_on_c,9,38,3,
2,2166,Note_off_c,9,39,0,
2,2167,Note_on_c,9,35,7,
2,2167,Note_off_c,9,36,0,
2,2167,Note_on_c,9,38,3,
2,2167,Note_off_c,9,39,0,
2,2168,Note_on_c,9,35,7,
2,2168,Note_off_c,9,36,0,
2,2168,Note_on_c,9,38,3,
2,2168,Note_off_c,9,39,0,
2,2169,Note_on_c,9,35,7,
2,2169,Note_off_c,9,36,0,
2,2169,Note_on_c,9,38,3,
2,2169,Note_off_c,9,39,0,
2,2170,Note_on_c,9,35,7,
2,2170,Note_off_c,9,36,0,
2,2170,Note_on_c,9,38,3,
2,2170,Note_off_c,9,39,0,
2,2171,Note_on_c,9,35,7,
2,2171,Note_off_c,9,36,0,
2,2171,Note_on_c,9,38,3,
2,2171,Note_off_c,9,39,0,
2,2172,Note_on_c,9,35,7,
2,2172,Note_off_c,9,36,0,
2,2172,Note_on_c,9,38,3,
2,2172,Note_off_c,9,39,0,
2,2173,Note_on_c,9,35,7,
2,2173,Note_off_c,9,36,0,
2,2173,Note_on_c,9,38,3,
2,2173,Note_off_c,9,39,0,
2,2174,Note_on_c,9,35,7,
2,2174,Note_off_c,9,36,0,
2,2174,Note_on_c,9,38,3,
2,2174,Note_off_c,9,39,0,
2,2175,Note_on_c,9,35,7,
2,2175,Note_off_c,9,36,0,
2,2175,Note_on_c,9,38,3,
2,2175,Note_off_c,9,39,0,
2,2176,Note_on_c,9,35,7,
2,2176,Note_off_c,9,36,0,
2,2176,Note_on_c,9,38,3,
2,2176,Note_off_c,9,39,0,
2,2177,Note_on_c,9,35,7,
2,2177,Note_off_c,9,36,0,
2,2177,Note_on_c,9,38,3,
2,2177,Note_off_c,9,39,0,
2,2178,Note_on_c,9,35,7,
2,2178,Note_off_c,9,36,0,
2,2178,Note_on_c,9,38,3,
2,2178,Note_off_c,9,39,0,
2,2179,Note_on_c,9,35,7,
2,2179,Note_off_c,9,36,0,
2,2179,Note_on_c,9,38,3,
2,2179,Note_off_c,9,39,0,
2,2180,Note_on_c,9,35,7,
2,2180,Note_off_c,9,36,0,
2,2180,Note_on_c,9,38,3,
2,2180,Note_off_c,9,39,0,
2,2181,Note_on_c,9,35,7,
2,2181,Note_off_c,9,36,0,
2,2181,Note_on_c,9,38,3,
2,2181,Note_off_c,9,39,0,
2,2182,Note_on_c,9,35,7,
2,2182,Note_off_c,9,36,0,
2,2182,Note_on_c,9,38,3,
2,2182,Note_off_c,9,39,0,
2,2183,Note_on_c,9,35,7,
2,2183,Note_off_c,9,36,0,
2,2183,Note_on_c,9,38,3,
2,2183,Note_off_c,9,39,0,
2,2184,Note_on_c,9,35,7,
2,2184,Note_off_c,9,36,0,
2,2184,Note_on_c,9,38,3,
2,2184,Note_off_c,9,39,0,
2,2185,Note_on_c,9,35,7,
2,2185,Note_off_c,9,36,0,
2,2185,Note_on_c,9,38,3,
2,2185,Note_off_c,9,39,0,
2,2186,Note_on_c,9,35,7,
2,2186,Note_off_c,9,36,0,
2,2186,Note_on_c,9,38,3,
2,2186,Note_off_c,9,39,0,
2,2187,Note_on_c,9,35,7,
2,2187,Note_off_c,9,36,0,
2,2187,Note_on_c,9,38,3,
2,2187,Note_off_c,9,39,0,
2,2188,Note_on_c,9,35,7,
2,2188,Note_off_c,9,36,0,
2,2188,Note_on_c,9,38,3,
2,2188,Note_off_c,9,39,0,
2,2189,Note_on_c,9,35,7,
2,2189,Note_off_c,9,36,0,
2,2189,Note_on_c,9,38,3,
2,2189,Note_off_c,9,39,0,
2,2190,Note_on_c,9,35,7,
2,2190,Note_off_c,9,36,0,
2,2190,Note_on_c,9,38,3,
2,2190,Note_off_c,9,39,0,
2,2191,Note_on_c,9,35,7,
2,2191,Note_off_c,9,36,0,
2,2191,Note_on_c,9,38,3,
2,2191,Note_off_c,9,39,0,
2,2192,Note_on_c,9,35,7,
2,2192,Note_off_c,9,36,0,
2,2192,Note_on_c,9,38,3,
2,2192,Note_off_c,9,39,0,
2,2193,Note_on_c,9,35,7,
2,2193,Note_off_c,9,36,0,
2,2193,Note_on_c,9,38,3,
2,2193,Note_off_c,9,39,0,
2,2194,Note_on_c,9,35,7,
2,2194,Note_off_c,9,36,0,
2,2194,Note_on_c,9,38,3,
2,2194,Note_off_c,9,39,0,
2,2195,Note_on_c,9,35,7,
2,2195,Note_off_c,9,36,0,
2,2195,Note_on_c,9,38,3,
2,2195,Note_off_c,9,39,0,
2,2196,Note_on_c,9,35,7,
2,2196,Note_off_c,9,36,0,
2,2196,Note_on_c,9,38,3,
2,2196,Note_off_c,9,39,0,
2,2197,Note_on_c,9,35,7,
2,2197,Note_off_c,9,36,0,
2,2197,Note_on_c,9,38,3,
2,2197,Note_off_c,9,39,0,
2,2198,Note_on_c,9,35,7,
2,2198,Note_off_c,9,36,0,
2,2198,Note_on_c,9,38,3,
2,2198,Note_off_c,9,39,0,
2,2199,Note_on_c,9,35,7,
2,2199,Note_off_c,9,36,0,
2,2199,Note_on_c,9,38,3,
2,2199,Note_off_c,9,39,0,
2,2200,Note_on_c,9,35,7,
2,2200,Note_off_c,9,36,0,
2,2200,Note_on_c,9,38,3,
2,2200,Note_off_c,9,39,0,
2,2201,Note_on_c,9,35,7,
2,2201,Note_off_c,9,36,0,
2,2201,Note_on_c,9,38,3,
2,2201,Note_off_c,9,39,0,
2,2202,Note_on_c,9,35,7,
2,2202,Note_off_c,9,36,0,
2,2202,Note_on_c,9,38,3,
2,2202,Note_off_c,9,39,0,
2,2203,Note_on_c,9,35,7,
2,2203,Note_off_c,9,36,0,
2,2203,Note_on_c,9,38,3,
2,2203,Note_off_c,9,39,0,
2,2204,Note_on_c,9,35,7,
2,2204,Note_off_c,9,36,0,
2,2204,Note_on_c,9,38,3,
2,2204,Note_off_c,9,39,0,
2,2205,Note_on_c,9,35,7,
2,2205,Note_off_c,9,36,0,
2,2205,Note_on_c,9,38,3,
2,2205,Note_off_c,9,39,0,
2,2206,Note_on_c,9,35,7,
2,2206,Note_off_c,9,36,0,
2,2206,Note_on_c,9,38,3,
2,2206,Note_off_c,9,39,0,
2,2207,Note_on_c,9,35,7,
2,2207,Note_off_c,9,36,0,
2,2207,Note_on_c,9,38,3,
2,2207,Note_off_c,9,39,0,
2,2208,Note_on_c,9,35,7,
2,2208,Note_off_c,9,36,0,
2,2208,Note_on_c,9,38,3,
2,2208,Note_off_c,9,39,0,
2,2209,Note_on_c,9,35,7,
2,2209,Note_off_c,9,36,0,
2,2209,Note_on_c,9,38,3,
2,2209,Note_off_c,9,39,0,
2,2210,Note_on_c,9,35,7,
2,2210,Note_off_c,9,36,0,
2,2210,Note_on_c,9,38,3,
2,2210,Note_off_c,9,39,0,
2,2211,Note_on_c,9,35,7,
2,2211,Note_off_c,9,36,0,
2,2211,Note_on_c,9,38,3,
2,2211,Note_off_c,9,39,0,
2,2212,Note_on_c,9,35,7,
2,2212,Note_off_c,9,36,0,
2,2212,Note_on_c,9,38,3,
2,2212,Note_off_c,9,39,0,
2,2213,Note_on_c,9,35,7,
2,2213,Note_off_c,9,36,0,
2,2213,Note_on_c,9,38,3,
2,2213,Note_off_c,9,39,0,
2,2214,Note_on_c,9,35,7,
2,2214,Note_off_c,9,36,0,
2,2214,Note_on_c,9,38,3,
2,2214,Note_off_c,9,39,0,
2,2215,Note_on_c,9,35,7,
2,2215,Note_off_c,9,36,0,
2,2215,Note_on_c,9,38,3,
2,2215,Note_off_c,9,39,0,
2,2216,Note_on_c,9,35,7,
2,2216,Note_off_c,9,36,0,
2,2216,Note_on_c,9,38,3,
2,2216,Note_off_c,9,39,0,
2,2217,Note_on_c,9,35,7,
2,2217,Note_off_c,9,36,0,
2,2217,Note_on_c,9,38,3,
2,2217,Note_off_c,9,39,0,
2,2218,Note_on_c,9,35,7,
2,2218,Note_off_c,9,36,0,
2,2218,Note_on_c,9,38,3,
2,2218,Note_off_c,9,39,0,
2,2219,Note_on_c,9,35,7,
2,2219,Note_off_c,9,36,0,
2,2219,Note_on_c,9,38,3,
2,2219,Note_off_c,9,39,0,
2,2220,Note_on_c,9,35,7,
2,2220,Note_off_c,9,36,0,
2,2220,Note_on_c,9,38,3,
2,2220,Note_off_c,9,39,0,
2,2221,Note_on_c,9,35,7,
2,2221,Note_off_c,9,36,0,
2,2221,Note_on_c,9,38,3,
2,2221,Note_off_c,9,39,0,
2,2222,Note_on_c,9,35,7,
2,2222,Note_off_c,9,36,0,
2,2222,Note_on_c,9,38,3,
2,2222,Note_off_c,9,39,0,
2,2223,Note_on_c,9,35,7,
2,2223,Note_off_c,9,36,0,
2,2223,Note_on_c,9,38,3,
2,2223,Note_off_c,9,39,0,
2,2224,Note_on_c,9,35,7,
2,2224,Note_off_c,9,36,0,
2,2224,Note_on_c,9,38,3,
2,2224,Note_off_c,9,39,0,
2,2225,Note_on_c,9,35,7,
2,2225,Note_off_c,9,36,0,
2,2225,Note_on_c,9,38,3,
2,2225,Note_off_c,9,39,0,
2,2226,Note_on_c,9,35,7,
2,2226,Note_off_c,9,36,0,
2,2226,Note_on_c,9,38,3,
2,2226,Note_off_c,9,39,0,
2,2227,Note_on_c,9,35,7,
2,2227,Note_off_c,9,36,0,
2,2227,Note_on_c,9,38,3,
2,2227,Note_off_c,9,39,0,
2,2228,Note_on_c,9,35,7,
2,2228,Note_off_c,9,36,0,
2,2228,Note_on_c,9,38,3,
2,2228,Note_off_c,9,39,0,
2,2229,Note_on_c,9,35,7,
2,2229,Note_off_c,9,36,0,
2,2229,Note_on_c,9,38,3,
2,2229,Note_off_c,9,39,0,
2,2230,Note_on_c,9,35,7,
2,2230,Note_off_c,9,36,0,
2,2230,Note_on_c,9,38,3,
2,2230,Note_off_c,9,39,0,
2,2231,Note_on_c,9,35,7,
2,2231,Note_off_c,9,36,0,
2,2231,Note_on_c,9,38,3,
2,2231,Note_off_c,9,39,0,
2,2232,Note_on_c,9,35,7,
2,2232,Note_off_c,9,36,0,
2,2232,Note_on_c,9,38,3,
2,2232,Note_off_c,9,39,0,
2,2233,Note_on_c,9,35,7,
2,2233,Note_off_c,9,36,0,
2,2233,Note_on_c,9,38,3,
2,2233,Note_off_c,9,39,0,
2,2234,Note_on_c,9,35,7,
2,2234,Note_off_c,9,36,0,
2,2234,Note_on_c,9,38,3,
2,2234,Note_off_c,9,39,0,
2,2235,Note_on_c,9,35,7,
2,2235,Note_off_c,9,36,0,
2,2235,Note_on_c,9,38,3,
2,2235,Note_off_c,9,39,0,
2,2236,Note_on_c,9,35,7,
2,2236,Note_off_c,9,36,0,
2,2236,Note_on_c,9,38,3,
2,2236,Note_off_c,9,39,0,
2,2237,Note_on_c,9,35,7,
2,2237,Note_off_c,9,36,0,
2,2237,Note_on_c,9,38,3,
2,2237,Note_off_c,9,39,0,
2,2238,Note_on_c,9,35,7,
2,2238,Note_off_c,9,36,0,
2,2238,Note_on_c,9,38,3,
2,2238,Note_off_c,9,39,0,
2,2239,Note_on_c,9,35,7,
2,2239,Note_off_c,9,36,0,
2,2239,Note_on_c,9,38,3,
2,2239,Note_off_c,9,39,0,
2,2240,Note_on_c,9,35,7,
2,2240,Note_off_c,9,36,0,
2,2240,Note_on_c,9,38,3,
2,2240,Note_off_c,9,39,0,
2,2241,Note_on_c,9,35,7,
2,2241,Note_off_c,9,36,0,
2,2241,Note_on_c,9,38,3,
2,2241,Note_off_c,9,39,0,
2,2242,Note_on_c,9,35,7,
2,2242,Note_off_c,9,36,0,
2,2242,Note_on_c,9,38,3,
2,2242,Note_off_c,9,39,0,
2,2243,Note_on_c,9,35,7,
2,2243,Note_off_c,9,36,0,
2,2243,Note_on_c,9,38,3,
2,2243,Note_off_c,9,39,0,
2,2244,Note_on_c,9,35,7,
2,2244,Note_off_c,9,36,0,
2,2244,Note_on_c,9,38,3,
2,2244,Note_off_c,9,39,0,
2,2245,Note_on_c,9,35,7,
2,2245,Note_off_c,9,36,0,
2,2245,Note_on_c,9,38,3,
2,2245,Note_off_c,9,39,0,
2,2246,Note_on_c,9,35,7,
2,2246,Note_off_c,9,36,0,
2,2246,Note_on_c,9,38,3,
2,2246,Note_off_c,9,39,0,
2,2247,Note_on_c,9,35,7,
2,2247,Note_off_c,9,36,0,
2,2247,Note_on_c,9,38,3,
2,2247,Note_off_c,9,39,0,
2,2248,Note_on_c,9,35,7,
2,2248,Note_off_c,9,36,0,
2,2248,Note_on_c,9,38,3,
2,2248,Note_off_c,9,39,0,
2,2249,Note_on_c,9,35,7,
2,2249,Note_off_c,9,36,0,
2,2249,Note_on_c,9,38,3,
2,2249,Note_off_c,9,39,0,
2,2250,Note_on_c,9,35,7,
2,2250,Note_off_c,9,36,0,
2,2250,Note_on_c,9,38,3,
2,2250,Note_off_c,9,39,0,
2,2251,Note_on_c,9,35,7,
2,2251,Note_off_c,9,36,0,
2,2251,Note_on_c,9,38,3,
2,2251,Note_off_c,9,39,0,
2,2252,Note_on_c,9,35,7,
2,2252,Note_off_c,9,36,0,
2,2252,Note_on_c,9,38,3,
2,2252,Note_off_c,9,39,0,
2,2253,Note_on_c,9,35,7,
2,2253,Note_off_c,9,36,0,
2,2253,Note_on_c,9,38,3,
2,2253,Note_off_c,9,39,0,
2,2254,Note_on_c,9,35,7,
2,2254,Note_off_c,9,36,0,
2,2254,Note_on_c,9,38,3,
2,2254,Note_off_c,9,39,0,
2,2255,Note_on_c,9,35,7,
2,2255,Note_off_c,9,36,0,
2,2255,Note_on_c,9,38,3,
2,2255,Note_off_c,9,39,0,
2,2256,Note_on_c,9,35,7,
2,2256,Note_off_c,9,36,0,
2,2256,Note_on_c,9,38,3,
2,2256,Note_off_c,9,39,0,
2,2257,Note_on_c,9,35,7,
2,2257,Note_off_c,9,36,0,
2,2257,Note_on_c,9,38,3,
2,2257,Note_off_c,9,39,0,
2,2258,Note_on_c,9,35,7,
2,2258,Note_off_c,9,36,0,
2,2258,Note_on_c,9,38,3,
2,2258,Note_off_c,9,39,0,
2,2259,Note_on_c,9,35,7,
2,2259,Note_off_c,9,36,0,
2,2259,Note_on_c,9,38,3,
2,2259,Note_off_c,9,39,0,
2,2260,Note_on_c,9,35,7,
2,2260,Note_off_c,9,36,0,
2,2260,Note_on_c,9,38,3,
2,2260,Note_off_c,9,39,0,
2,2261,Note_on_c,9,35,7,
2,2261,Note_off_c,9,36,0,
2,2261,Note_on_c,9,38,3,
2,2261,Note_off_c,9,39,0,
2,2262,Note_on_c,9,35,7,
2,2262,Note_off_c,9,36,0,
2,2262,Note_on_c,9,38,3,
2,2262,Note_off_c,9,39,0,
2,2263,Note_on_c,9,35,7,
2,2263,Note_off_c,9,36,0,
2,2263,Note_on_c,9,38,3,
2,2263,Note_off_c,9,39,0,
2,2264,Note_on_c,9,35,7,
2,2264,Note_off_c,9,36,0,
2,2264,Note_on_c,9,38,3,
2,2264,Note_off_c,9,39,0,
2,2265,Note_on_c,9,35,7,
2,2265,Note_off_c,9,36,0,
2,2265,Note_on_c,9,38,3,
2,2265,Note_off_c,9,39,0,
2,2266,Note_on_c,9,35,7,
2,2266,Note_off_c,9,36,0,
2,2266,Note_on_c,9,38,3,
2,2266,Note_off_c,9,39,0,
2,2267,Note_on_c,9,35,7,
2,2267,Note_off_c,9,36,0,
2,2267,Note_on_c,9,38,3,
2,2267,Note_off_c,9,39,0,
2,2268,Note_on_c,9,35,7,
2,2268,Note_off_c,9,36,0,
2,2268,Note_on_c,9,38,3,
2,2268,Note_off_c,9,39,0,
2,2269,Note_on_c,9,35,7,
2,2269,Note_off_c,9,36,0,
2,2269,Note_on_c,9,38,3,
2,2269,Note_off_c,9,39,0,
2,2270,Note_on_c,9,35,7,
2,2270,Note_off_c,9,36,0,
2,2270,Note_on_c,9,38,3,
2,2270,Note_off_c,9,39,0,
2,2271,Note_on_c,9,35,7,
2,2271,Note_off_c,9,36,0,
2,2271,Note_on_c,9,38,3,
2,2271,Note_off_c,9,39,0,
2,2272,Note_on_c,9,35,7,
2,2272,Note_off_c,9,36,0,
2,2272,Note_on_c,9,38,3,
2,2272,Note_off_c,9,39,0,
2,2273,Note_on_c,9,35,7,
2,2273,Note_off_c,9,36,0,
2,2273,Note_on_c,9,38,3,
2,2273,Note_off_c,9,39,0,
2,2274,Note_on_c,9,35,7,
2,2274,Note_off_c,9,36,0,
2,2274,Note_on_c,9,38,3,
2,2274,Note_off_c,9,39,0,
2,2275,Note_on_c,9,35,7,
2,2275,Note_off_c,9,36,0,
2,2275,Note_on_c,9,38,3,
2,2275,Note_off_c,9,39,0,
2,2276,Note_on_c,9,35,7,
2,2276,Note_off_c,9,36,0,
2,2276,Note_on_c,9,38,3,
2,2276,Note_off_c,9,39,0,
2,2277,Note_on_c,9,35,7,
2,2277,Note_off_c,9,36,0,
2,2277,Note_on_c,9,38,3,
2,2277,Note_off_c,9,39,0,
2,2278,Note_on_c,9,35,7,
2,2278,Note_off_c,9,36,0,
2,2278,Note_on_c,9,38,3,
2,2278,Note_off_c,9,39,0,
2,2279,Note_on_c,9,35,7,
2,2279,Note_off_c,9,36,0,
2,2279,Note_on_c,9,38,3,
2,2279,Note_off_c,9,39,0,
2,2280,Note_on_c,9,35,7,
2,2280,Note_off_c,9,36,0,
2,2280,Note_on_c,9,38,3,
2,2280,Note_off_c,9,39,0,
2,2281,Note_on_c,9,35,7,
2,2281,Note_off_c,9,36,0,
2,2281,Note_on_c,9,38,3,
2,2281,Note_off_c,9,39,0,
2,2282,Note_on_c,9,35,7,
2,2282,Note_off_c,9,36,0,
2,2282,Note_on_c,9,38,3,
2,2282,Note_off_c,9,39,0,
2,2283,Note_on_c,9,35,7,
2,2283,Note_off_c,9,36,0,
2,2283,Note_on_c,9,38,3,
2,2283,Note_off_c,9,39,0,
2,2284,Note_on_c,9,35,7,
2,2284,Note_off_c,9,36,0,
2,2284,Note_on_c,9,38,3,
2,2284,Note_off_c,9,39,0,
2,2285,Note_on_c,9,35,7,
2,2285,Note_off_c,9,36,0,
2,2285,Note_on_c,9,38,3,
2,2285,Note_off_c,9,39,0,
2,2286,Note_on_c,9,35,7,
2,2286,Note_off_c,9,36,0,
2,2286,Note_on_c,9,38,3,
2,2286,Note_off_c,9,39,0,
2,2287,Note_on_c,9,35,7,
2,2287,Note_off_c,9,36,0,
2,2287,Note_on_c,9,38,3,
2,2287,Note_off_c,9,39,0,
2,2288,Note_on_c,9,35,7,
2,2288,Note_off_c,9,36,0,
2,2288,Note_on_c,9,38,3,
2,2288,Note_off_c,9,39,0,
2,2289,Note_on_c,9,35,7,
2,2289,Note_off_c,9,36,0,
2,2289,Note_on_c,9,38,3,
2,2289,Note_off_c,9,39,0,
2,2290,Note_on_c,9,35,7,
2,2290,Note_off_c,9,36,0,
2,2290,Note_on_c,9,38,3,
2,2290,Note_off_c,9,39,0,
2,2291,Note_on_c,9,35,7,
2,2291,Note_off_c,9,36,0,
2,2291,Note_on_c,9,38,3,
2,2291,Note_off_c,9,39,0,
2,2292,Note_on_c,9,35,7,
2,2292,Note_off_c,9,36,0,
2,2292,Note_on_c,9,38,3,
2,2292,Note_off_c,9,39,0,
2,2293,Note_on_c,9,35,7,
2,2293,Note_off_c,9,36,0,
2,2293,Note_on_c,9,38,3,
2,2293,Note_off_c,9,39,0,
2,2294,Note_on_c,9,35,7,
2,2294,Note_off_c,9,36,0,
2,2294,Note_on_c,9,38,3,
2,2294,Note_off_c,9,39,0,
2,2295,Note_on_c,9,35,7,
2,2295,Note_off_c,9,36,0,
2,2295,Note_on_c,9,38,3,
2,2295,Note_off_c,9,39,0,
2,2296,Note_on_c,9,35,7,
2,2296,Note_off_c,9,36,0,
2,2296,Note_on_c,9,38,3,
2,2296,Note_off_c,9,39,0,
2,2297,Note_on_c,9,35,7,
2,2297,Note_off_c,9,36,0,
2,2297,Note_on_c,9,38,3,
2,2297,Note_off_c,9,39,0,
2,2298,Note_on_c,9,35,7,
2,2298,Note_off_c,9,36,0,
2,2298,Note_on_c,9,38,3,
2,2298,Note_off_c,9,39,0,
2,2299,Note_on_c,9,35,7,
2,2299,Note_off_c,9,36,0,
2,2299,Note_on_c,9,38,3,
2,2299,Note_off_c,9,39,0,
2,2300,Note_on_c,9,35,7,
2,2300,Note_off_c,9,36,0,
2,2300,Note_on_c,9,38,3,
2,2300,Note_off_c,9,39,0,
2,2301,Note_on_c,9,35,7,
2,2301,Note_off_c,9,36,0,
2,2301,Note_on_c,9,38,3,
2,2301,Note_off_c,9,39,0,
2,2302,Note_on_c,9,35,7,
2,2302,Note_off_c,9,36,0,
2,2302,Note_on_c,9,38,3,
2,2302,Note_off_c,9,39,0,
2,2303,Note_on_c,9,35,7,
2,2303,Note_off_c,9,36,0,
2,2303,Note_on_c,9,38,3,
2,2303,Note_off_c,9,39,0,
2,2304,Note_on_c,9,35,7,
2,2304,Note_off_c,9,36,0,
2,2304,Note_on_c,9,38,3,
2,2304,Note_off_c,9,39,0,
2,2305,Note_on_c,9,35,7,
2,2305,Note_off_c,9,36,0,
2,2305,Note_on_c,9,38,3,
2,2305,Note_off_c,9,39,0,
2,2306,Note_on_c,9,35,7,
2,2306,Note_off_c,9,36,0,
2,2306,Note_on_c,9,38,3,
2,2306,Note_off_c,9,39,0,
2,2307,Note_on_c,9,35,7,
2,2307,Note_off_c,9,36,0,
2,2307,Note_on_c,9,38,3,
2,2307,Note_off_c,9,39,0,
2,2308,Note_on_c,9,35,7,
2,2308,Note_off_c,9,36,0,
2,2308,Note_on_c,9,38,3,
2,2308,Note_off_c,9,39,0,
2,2309,Note_on_c,9,35,7,
2,2309,Note_off_c,9,36,0,
2,2309,Note_on_c,9,38,3,
2,2309,Note_off_c,9,39,0,
2,2310,Note_on_c,9,35,7,
2,2310,Note_off_c,9,36,0,
2,2310,Note_on_c,9,38,3,
2,2310,Note_off_c,9,39,0,
2,2311,Note_on_c,9,35,7,
2,2311,Note_off_c,9,36,0,
2,2311,Note_on_c,9,38,3,
2,2311,Note_off_c,9,39,0,
2,2312,Note_on_c,9,35,7,
2,2312,Note_off_c,9,36,0,
2,2312,Note_on_c,9,38,3,
2,2312,Note_off_c,9,39,0,
2,2313,Note_on_c,9,35,7,
2,2313,Note_off_c,9,36,0,
2,2313,Note_on_c,9,38,3,
2,2313,Note_off_c,9,39,0,
2,2314,Note_on_c,9,35,7,
2,2314,Note_off_c,9,36,0,
2,2314,Note_on_c,9,38,3,
2,2314,Note_off_c,9,39,0,
2,2315,Note_on_c,9,35,7,
2,2315,Note_off_c,9,36,0,
2,2315,Note_on_c,9,38,3,
2,2315,Note_off_c,9,39,0,
2,2316,Note_on_c,9,35,7,
2,2316,Note_off_c,9,36,0,
2,2316,Note_on_c,9,38,3,
2,2316,Note_off_c,9,39,0,
2,2317,Note_on_c,9,35,7,
2,2317,Note_off_c,9,36,0,
2,2317,Note_on_c,9,38,3,
2,2317,Note_off_c,9,39,0,
2,2318,Note_on_c,9,35,7,
2,2318,Note_off_c,9,36,0,
2,2318,Note_on_c,9,38,3,
2,2318,Note_off_c,9,39,0,
2,2319,Note_on_c,9,35,7,
2,2319,Note_off_c,9,36,0,
2,2319,Note_on_c,9,38,3,
2,2319,Note_off_c,9,39,0,
2,2320,Note_on_c,9,35,7,
2,2320,Note_off_c,9,36,0,
2,2320,Note_on_c,9,38,3,
2,2320,Note_off_c,9,39,0,
2,2321,Note_on_c,9,35,7,
2,2321,Note_off_c,9,36,0,
2,2321,Note_on_c,9,38,3,
2,2321,Note_off_c,9,39,0,
2,2322,Note_on_c,9,35,7,
2,2322,Note_off_c,9,36,0,
2,2322,Note_on_c,9,38,3,
2,2322,Note_off_c,9,39,0,
2,2323,Note_on_c,9,35,7,
2,2323,Note_off_c,9,36,0,
2,2323,Note_on_c,9,38,3,
2,2323,Note_off_c,9,39,0,
2,2324,Note_on_c,9,35,7,
2,2324,Note_off_c,9,36,0,
2,2324,Note_on_c,9,38,3,
2,2324,Note_off_c,9,39,0,
2,2325,Note_on_c,9,35,7,
2,2325,Note_off_c,9,36,0,
2,2325,Note_on_c,9,38,3,
2,2325,Note_off_c,9,39,0,
2,2326,Note_on_c,9,35,7,
2,2326,Note_off_c,9,36,0,
2,2326,Note_on_c,9,38,3,
2,2326,Note_off_c,9,39,0,
2,2327,Note_on_c,9,35,7,
2,2327,Note_off_c,9,36,0,
2,2327,Note_on_c,9,38,3,
2,2327,Note_off_c,9,39,0,
2,2328,Note_on_c,9,35,7,
2,2328,Note_off_c,9,36,0,
2,2328,Note_on_c,9,38,3,
2,2328,Note_off_c,9,39,0,
2,2329,Note_on_c,9,35,7,
2,2329,Note_off_c,9,36,0,
2,2329,Note_on_c,9,38,3,
2,2329,Note_off_c,9,39,0,
2,2330,Note_on_c,9,35,7,
2,2330,Note_off_c,9,36,0,
2,2330,Note_on_c,9,38,3,
2,2330,Note_off_c,9,39,0,
2,2331,Note_on_c,9,35,7,
2,2331,Note_off_c,9,36,0,
2,2331,Note_on_c,9,38,3,
2,2331,Note_off_c,9,39,0,
2,2332,Note_on_c,9,35,7,
2,2332,Note_off_c,9,36,0,
2,2332,Note_on_c,9,38,3,
2,2332,Note_off_c,9,39,0,
2,2333,Note_on_c,9,35,7,
2,2333,Note_off_c,9,36,0,
2,2333,Note_on_c,9,38,3,
2,2333,Note_off_c,9,39,0,
2,2334,Note_on_c,9,35,7,
2,2334,Note_off_c,9,36,0,
2,2334,Note_on_c,9,38,3,
2,2334,Note_off_c,9,39,0,
2,2335,Note_on_c,9,35,7,
2,2335,Note_off_c,9,36,0,
2,2335,Note_on_c,9,38,3,
2,2335,Note_off_c,9,39,0,
2,2336,Note_on_c,9,35,7,
2,2336,Note_off_c,9,36,0,
2,2336,Note_on_c,9,38,3,
2,2336,Note_off_c,9,39,0,
2,2337,Note_on_c,9,35,7,
2,2337,Note_off_c,9,36,0,
2,2337,Note_on_c,9,38,3,
2,2337,Note_off_c,9,39,0,
2,2338,Note_on_c,9,35,7,
2,2338,Note_off_c,9,36,0,
2,2338,Note_on_c,9,38,3,
2,2338,Note_off_c,9,39,0,
2,2339,Note_on_c,9,35,7,
2,2339,Note_off_c,9,36,0,
2,2339,Note_on_c,9,38,3,
2,2339,Note_off_c,9,39,0,
2,2340,Note_on_c,9,35,7,
2,2340,Note_off_c,9,36,0,
2,2340,Note_on_c,9,38,3,
2,2340,Note_off_c,9,39,0,
2,2341,Note_on_c,9,35,7,
2,2341,Note_off_c,9,36,0,
2,2341,Note_on_c,9,38,3,
2,2341,Note_off_c,9,39,0,
2,2342,Note_on_c,9,35,7,
2,2342,Note_off_c,9,36,0,
2,2342,Note_on_c,9,38,3,
2,2342,Note_off_c,9,39,0,
2,2343,Note_on_c,9,35,7,
2,2343,Note_off_c,9,36,0,
2,2343,Note_on_c,9,38,3,
2,2343,Note_off_c,9,39,0,
2,2344,Note_on_c,9,35,7,
2,2344,Note_off_c,9,36,0,
2,2344,Note_on_c,9,38,3,
2,2344,Note_off_c,9,39,0,
2,2345,Note_on_c,9,35,7,
2,2345,Note_off_c,9,36,0,
2,2345,Note_on_c,9,38,3,
2,2345,Note_off_c,9,39,0,
2,2346,Note_on_c,9,35,7,
2,2346,Note_off_c,9,36,0,
2,2346,Note_on_c,9,38,3,
2,2346,Note_off_c,9,39,0,
2,2347,Note_on_c,9,35,7,
2,2347,Note_off_c,9,36,0,
2,2347,Note_on_c,9,38,3,
2,2347,Note_off_c,9,39,0,
2,2348,Note_on_c,9,35,7,
2,2348,Note_off_c,9,36,0,
2,2348,Note_on_c,9,38,3,
2,2348,Note_off_c,9,39,0,
2,2349,Note_on_c,9,35,7,
2,2349,Note_off_c,9,36,0,
2,2349,Note_on_c,9,38,3,
2,2349,Note_off_c,9,39,0,
2,2350,Note_on_c,9,35,7,
2,2350,Note_off_c,9,36,0,
2,2350,Note_on_c,9,38,3,
2,2350,Note_off_c,9,39,0,
2,2351,Note_on_c,9,35,7,
2,2351,Note_off_c,9,36,0,
2,2351,Note_on_c,9,38,3,
2,2351,Note_off_c,9,39,0,
2,2352,Note_on_c,9,35,7,
2,2352,Note_off_c,9,36,0,
2,2352,Note_on_c,9,38,3,
2,2352,Note_off_c,9,39,0,
2,2353,Note_on_c,9,35,7,
2,2353,Note_off_c,9,36,0,
2,2353,Note_on_c,9,38,3,
2,2353,Note_off_c,9,39,0,
2,2354,Note_on_c,9,35,7,
2,2354,Note_off_c,9,36,0,
2,2354,Note_on_c,9,38,3,
2,2354,Note_off_c,9,39,0,
2,2355,Note_on_c,9,35,7,
2,2355,Note_off_c,9,36,0,
2,2355,Note_on_c,9,38,3,
2,2355,Note_off_c,9,39,0,
2,2356,Note_on_c,9,35,7,
2,2356,Note_off_c,9,36,0,
2,2356,Note_on_c,9,38,3,
2,2356,Note_off_c,9,39,0,
2,2357,Note_on_c,9,35,7,
2,2357,Note_off_c,9,36,0,
2,2357,Note_on_c,9,38,3,
2,2357,Note_off_c,9,39,0,
2,2358,Note_on_c,9,35,7,
2,2358,Note_off_c,9,36,0,
2,2358,Note_on_c,9,38,3,
2,2358,Note_off_c,9,39,0,
2,2359,Note_on_c,9,35,7,
2,2359,Note_off_c,9,36,0,
2,2359,Note_on_c,9,38,3,
2,2359,Note_off_c,9,39,0,
2,2360,Note_on_c,9,35,7,
2,2360,Note_off_c,9,36,0,
2,2360,Note_on_c,9,38,3,
2,2360,Note_off_c,9,39,0,
2,2361,Note_on_c,9,35,7,
2,2361,Note_off_c,9,36,0,
2,2361,Note_on_c,9,38,3,
2,2361,Note_off_c,9,39,0,
2,2362,Note_on_c,9,35,7,
2,2362,Note_off_c,9,36,0,
2,2362,Note_on_c,9,38,3,
2,2362,Note_off_c,9,39,0,
2,2363,Note_on_c,9,35,7,
2,2363,Note_off_c,9,36,0,
2,2363,Note_on_c,9,38,3,
2,2363,Note_off_c,9,39,0,
2,2364,Note_on_c,9,35,7,
2,2364,Note_off_c,9,36,0,
2,2364,Note_on_c,9,38,3,
2,2364,Note_off_c,9,39,0,
2,2365,Note_on_c,9,35,7,
2,2365,Note_off_c,9,36,0,
2,2365,Note_on_c,9,38,3,
2,2365,Note_off_c,9,39,0,
2,2366,Note_on_c,9,35,7,
2,2366,Note_off_c,9,36,0,
2,2366,Note_on_c,9,38,3,
2,2366,Note_off_c,9,39,0,
2,2367,Note_on_c,9,35,7,
2,2367,Note_off_c,9,36,0,
2,2367,Note_on_c,9,38,3,
2,2367,Note_off_c,9,39,0,
2,2368,Note_on_c,9,35,7,
2,2368,Note_off_c,9,36,0,
2,2368,Note_on_c,9,38,3,
2,2368,Note_off_c,9,39,0,
2,2369,Note_on_c,9,35,7,
2,2369,Note_off_c,9,36,0,
2,2369,Note_on_c,9,38,3,
2,2369,Note_off_c,9,39,0,
2,2370,Note_on_c,9,35,7,
2,2370,Note_off_c,9,36,0,
2,2370,Note_on_c,9,38,3,
2,2370,Note_off_c,9,39,0,
2,2371,Note_on_c,9,35,7,
2,2371,Note_off_c,9,36,0,
2,2371,Note_on_c,9,38,3,
2,2371,Note_off_c,9,39,0,
2,2372,Note_on_c,9,35,7,
2,2372,Note_off_c,9,36,0,
2,2372,Note_on_c,9,38,3,
2,2372,Note_off_c,9,39,0,
2,2373,Note_on_c,9,35,7,
2,2373,Note_off_c,9,36,0,
2,2373,Note_on_c,9,38,3,
2,2373,Note_off_c,9,39,0,
2,2374,Note_on_c,9,35,7,
2,2374,Note_off_c,9,36,0,
2,2374,Note_on_c,9,38,3,
2,2374,Note_off_c,9,39,0,
2,2375,Note_on_c,9,35,7,
2,2375,Note_off_c,9,36,0,
2,2375,Note_on_c,9,38,3,
2,2375,Note_off_c,9,39,0,
2,2376,Note_on_c,9,35,7,
2,2376,Note_off_c,9,36,0,
2,2376,Note_on_c,9,38,3,
2,2376,Note_off_c,9,39,0,
2,2377,Note_on_c,9,35,7,
2,2377,Note_off_c,9,36,0,
2,2377,Note_on_c,9,38,3,
2,2377,Note_off_c,9,39,0,
2,2378,Note_on_c,9,35,7,
2,2378,Note_off_c,9,36,0,
2,2378,Note_on_c,9,38,3,
2,2378,Note_off_c,9,39,0,
2,2379,Note_on_c,9,35,7,
2,2379,Note_off_c,9,36,0,
2,2379,Note_on_c,9,38,3,
2,2379,Note_off_c,9,39,0,
2,2380,Note_on_c,9,35,7,
2,2380,Note_off_c,9,36,0,
2,2380,Note_on_c,9,38,3,
2,2380,Note_off_c,9,39,0,
2,2381,Note_on_c,9,35,7,
2,2381,Note_off_c,9,36,0,
2,2381,Note_on_c,9,38,3,
2,2381,Note_off_c,9,39,0,
2,2382,Note_on_c,9,35,7,
2,2382,Note_off_c,9,36,0,
2,2382,Note_on_c,9,38,3,
2,2382,Note_off_c,9,39,0,
2,2383,Note_on_c,9,35,7,
2,2383,Note_off_c,9,36,0,
2,2383,Note_on_c,9,38,3,
2,2383,Note_off_c,9,39,0,
2,2384,Note_on_c,9,35,7,
2,2384,Note_off_c,9,36,0,
2,2384,Note_on_c,9,38,3,
2,2384,Note_off_c,9,39,0,
2,2385,Note_on_c,9,35,7,
2,2385,Note_off_c,9,36,0,
2,2385,Note_on_c,9,38,3,
2,2385,Note_off_c,9,39,0,
2,2386,Note_on_c,9,35,7,
2,2386,Note_off_c,9,36,0,
2,2386,Note_on_c,9,38,3,
2,2386,Note_off_c,9,39,0,
2,2387,Note_on_c,9,35,7,
2,2387,Note_off_c,9,36,0,
2,2387,Note_on_c,9,38,3,
2,2387,Note_off_c,9,39,0,
2,2388,Note_on_c,9,35,7,
2,2388,Note_off_c,9,36,0,
2,2388,Note_on_c,9,38,3,
2,2388,Note_off_c,9,39,0,
2,2389,Note_on_c,9,35,7,
2,2389,Note_off_c,9,36,0,
2,2389,Note_on_c,9,38,3,
2,2389,Note_off_c,9,39,0,
2,2390,Note_on_c,9,35,7,
2,2390,Note_off_c,9,36,0,
2,2390,Note_on_c,9,38,3,
2,2390,Note_off_c,9,39,0,
2,2391,Note_on_c,9,35,7,
2,2391,Note_off_c,9,36,0,
2,2391,Note_on_c,9,38,3,
2,2391,Note_off_c,9,39,0,
2,2392,Note_on_c,9,35,7,
2,2392,Note_off_c,9,36,0,
2,2392,Note_on_c,9,38,3,
2,2392,Note_off_c,9,39,0,
2,2393,Note_on_c,9,35,7,
2,2393,Note_off_c,9,36,0,
2,2393,Note_on_c,9,38,3,
2,2393,Note_off_c,9,39,0,
2,2394,Note_on_c,9,35,7,
2,2394,Note_off_c,9,36,0,
2,2394,Note_on_c,9,38,3,
2,2394,Note_off_c,9,39,0,
2,2395,Note_on_c,9,35,7,
2,2395,Note_off_c,9,36,0,
2,2395,Note_on_c,9,38,3,
2,2395,Note_off_c,9,39,0,
2,2396,Note_on_c,9,35,7,
2,2396,Note_off_c,9,36,0,
2,2396,Note_on_c,9,38,3,
2,2396,Note_off_c,9,39,0,
2,2397,Note_on_c,9,35,7,
2,2397,Note_off_c,9,36,0,
2,2397,Note_on_c,9,38,3,
2,2397,Note_off_c,9,39,0,
2,2398,Note_on_c,9,35,7,
2,2398,Note_off_c,9,36,0,
2,2398,Note_on_c,9,38,3,
2,2398,Note_off_c,9,39,0,
2,2399,Note_on_c,9,35,7,
2,2399,Note_off_c,9,36,0,
2,2399,Note_on_c,9,38,3,
2,2399,Note_off_c,9,39,0,
2,2400,Note_on_c,9,35,7,
2,2400,Note_off_c,9,36,0,
2,2400,Note_on_c,9,38,3,
2,2400,Note_off_c,9,39,0,
2,2401,Note_on_c,9,35,7,
2,2401,Note_off_c,9,36,0,
2,2401,Note_on_c,9,38,3,
2,2401,Note_off_c,9,39,0,
2,2402,Note_on_c,9,35,7,
2,2402,Note_off_c,9,36,0,
2,2402,Note_on_c,9,38,3,
2,2402,Note_off_c,9,39,0,
2,2403,Note_on_c,9,35,7,
2,2403,Note_off_c,9,36,0,
2,2403,Note_on_c,9,38,3,
2,2403,Note_off_c,9,39,0,
2,2404,Note_on_c,9,35,7,
2,2404,Note_off_c,9,36,0,
2,2404,Note_on_c,9,38,3,
2,2404,Note_off_c,9,39,0,
2,2405,Note_on_c,9,35,7,
2,2405,Note_off_c,9,36,0,
2,2405,Note_on_c,9,38,3,
2,2405,Note_off_c,9,39,0,
2,2406,Note_on_c,9,35,7,
2,2406,Note_off_c,9,36,0,
2,2406,Note_on_c,9,38,3,
2,2406,Note_off_c,9,39,0,
2,2407,Note_on_c,9,35,7,
2,2407,Note_off_c,9,36,0,
2,2407,Note_on_c,9,38,3,
2,2407,Note_off_c,9,39,0,
2,2408,Note_on_c,9,35,7,
2,2408,Note_off_c,9,36,0,
2,2408,Note_on_c,9,38,3,
2,2408,Note_off_c,9,39,0,
2,2409,Note_on_c,9,35,7,
2,2409,Note_off_c,9,36,0,
2,2409,Note_on_c,9,38,3,
2,2409,Note_off_c,9,39,0,
2,2410,Note_on_c,9,35,7,
2,2410,Note_off_c,9,36,0,
2,2410,Note_on_c,9,38,3,
2,2410,Note_off_c,9,39,0,
2,2411,Note_on_c,9,35,7,
2,2411,Note_off_c,9,36,0,
2,2411,Note_on_c,9,38,3,
2,2411,Note_off_c,9,39,0,
2,2412,Note_on_c,9,35,7,
2,2412,Note_off_c,9,36,0,
2,2412,Note_on_c,9,38,3,
2,2412,Note_off_c,9,39,0,
2,2413,Note_on_c,9,35,7,
2,2413,Note_off_c,9,36,0,
2,2413,Note_on_c,9,38,3,
2,2413,Note_off_c,9,39,0,
2,2414,Note_on_c,9,35,7,
2,2414,Note_off_c,9,36,0,
2,2414,Note_on_c,9,38,3,
2,2414,Note_off_c,9,39,0,
2,2415,Note_on_c,9,35,7,
2,2415,Note_off_c,9,36,0,
2,2415,Note_on_c,9,38,3,
2,2415,Note_off_c,9,39,0,
2,2416,Note_on_c,9,35,7,
2,2416,Note_off_c,9,36,0,
2,2416,Note_on_c,9,38,3,
2,2416,Note_off_c,9,39,0,
2,2417,Note_on_c,9,35,7,
2,2417,Note_off_c,9,36,0,
2,2417,Note_on_c,9,38,3,
2,2417,Note_off_c,9,39,0,
2,2418,Note_on_c,9,35,7,
2,2418,Note_off_c,9,36,0,
2,2418,Note_on_c,9,38,3,
2,2418,Note_off_c,9,39,0,
2,2419,Note_on_c,9,35,7,
2,2419,Note_off_c,9,36,0,
2,2419,Note_on_c,9,38,3,
2,2419,Note_off_c,9,39,0,
2,2420,Note_on_c,9,35,7,
2,2420,Note_off_c,9,36,0,
2,2420,Note_on_c,9,38,3,
2,2420,Note_off_c,9,39,0,
2,2421,Note_on_c,9,35,7,
2,2421,Note_off_c,9,36,0,
2,2421,Note_on_c,9,38,3,
2,2421,Note_off_c,9,39,0,
2,2422,Note_on_c,9,35,7,
2,2422,Note_off_c,9,36,0,
2,2422,Note_on_c,9,38,3,
2,2422,Note_off_c,9,39,0,
2,2423,Note_on_c,9,35,7,
2,2423,Note_off_c,9,36,0,
2,2423,Note_on_c,9,38,3,
2,2423,Note_off_c,9,39,0,
2,2424,Note_on_c,9,35,7,
2,2424,Note_off_c,9,36,0,
2,2424,Note_on_c,9,38,3,
2,2424,Note_off_c,9,39,0,
2,2425,Note_on_c,9,35,7,
2,2425,Note_off_c,9,36,0,
2,2425,Note_on_c,9,38,3,
2,2425,Note_off_c,9,39,0,
2,2426,Note_on_c,9,35,7,
2,2426,Note_off_c,9,36,0,
2,2426,Note_on_c,9,38,3,
2,2426,Note_off_c,9,39,0,
2,2427,Note_on_c,9,35,7,
2,2427,Note_off_c,9,36,0,
2,2427,Note_on_c,9,38,3,
2,2427,Note_off_c,9,39,0,
2,2428,Note_on_c,9,35,7,
2,2428,Note_off_c,9,36,0,
2,2428,Note_on_c,9,38,3,
2,2428,Note_off_c,9,39,0,
2,2429,Note_on_c,9,35,7,
2,2429,Note_off_c,9,36,0,
2,2429,Note_on_c,9,38,3,
2,2429,Note_off_c,9,39,0,
2,2430,Note_on_c,9,35,7,
2,2430,Note_off_c,9,36,0,
2,2430,Note_on_c,9,38,3,
2,2430,Note_off_c,9,39,0,
2,2431,Note_on_c,9,35,7,
2,2431,Note_off_c,9,36,0,
2,2431,Note_on_c,9,38,3,
2,2431,Note_off_c,9,39,0,
2,2432,Note_on_c,9,35,7,
2,2432,Note_off_c,9,36,0,
2,2432,Note_on_c,9,38,3,
2,2432,Note_off_c,9,39,0,
2,2433,Note_on_c,9,35,7,
2,2433,Note_off_c,9,36,0,
2,2433,Note_on_c,9,38,3,
2,2433,Note_off_c,9,39,0,
2,2434,Note_on_c,9,35,7,
2,2434,Note_off_c,9,36,0,
2,2434,Note_on_c,9,38,3,
2,2434,Note_off_c,9,39,0,
2,2435,Note_on_c,9,35,7,
2,2435,Note_off_c,9,36,0,
2,2435,Note_on_c,9,38,3,
2,2435,Note_off_c,9,39,0,
2,2436,Note_on_c,9,35,7,
2,2436,Note_off_c,9,36,0,
2,2436,Note_on_c,9,38,3,
2,2436,Note_off_c,9,39,0,
2,2437,Note_on_c,9,35,7,
2,2437,Note_off_c,9,36,0,
2,2437,Note_on_c,9,38,3,
2,2437,Note_off_c,9,39,0,
2,2438,Note_on_c,9,35,7,
2,2438,Note_off_c,9,36,0,
2,2438,Note_on_c,9,38,3,
2,2438,Note_off_c,9,39,0,
2,2439,Note_on_c,9,35,7,
2,2439,Note_off_c,9,36,0,
2,2439,Note_on_c,9,38,3,
2,2439,Note_off_c,9,39,0,
2,2440,Note_on_c,9,35,7,
2,2440,Note_off_c,9,36,0,
2,2440,Note_on_c,9,38,3,
2,2440,Note_off_c,9,39,0,
2,2441,Note_on_c,9,35,7,
2,2441,Note_off_c,9,36,0,
2,2441,Note_on_c,9,38,3,
2,2441,Note_off_c,9,39,0,
2,2442,Note_on_c,9,35,7,
2,2442,Note_off_c,9,36,0,
2,2442,Note_on_c,9,38,3,
2,2442,Note_off_c,9,39,0,
2,2443,Note_on_c,9,35,7,
2,2443,Note_off_c,9,36,0,
2,2443,Note_on_c,9,38,3,
2,2443,Note_off_c,9,39,0,
2,2444,Note_on_c,9,35,7,
2,2444,Note_off_c,9,36,0,
2,2444,Note_on_c,9,38,3,
2,2444,Note_off_c,9,39,0,
2,2445,Note_on_c,9,35,7,
2,2445,Note_off_c,9,36,0,
2,2445,Note_on_c,9,38,3,
2,2445,Note_off_c,9,39,0,
2,2446,Note_on_c,9,35,7,
2,2446,Note_off_c,9,36,0,
2,2446,Note_on_c,9,38,3,
2,2446,Note_off_c,9,39,0,
2,2447,Note_on_c,9,35,7,
2,2447,Note_off_c,9,36,0,
2,2447,Note_on_c,9,38,3,
2,2447,Note_off_c,9,39,0,
2,2448,Note_on_c,9,35,7,
2,2448,Note_off_c,9,36,0,
2,2448,Note_on_c,9,38,3,
2,2448,Note_off_c,9,39,0,
2,2449,Note_on_c,9,35,7,
2,2449,Note_off_c,9,36,0,
2,2449,Note_on_c,9,38,3,
2,2449,Note_off_c,9,39,0,
2,2450,Note_on_c,9,35,7,
2,2450,Note_off_c,9,36,0,
2,2450,Note_on_c,9,38,3,
2,2450,Note_off_c,9,39,0,
2,2451,Note_on_c,9,35,7,
2,2451,Note_off_c,9,36,0,
2,2451,Note_on_c,9,38,3,
2,2451,Note_off_c,9,39,0,
2,2452,Note_on_c,9,35,7,
2,2452,Note_off_c,9,36,0,
2,2452,Note_on_c,9,38,3,
2,2452,Note_off_c,9,39,0,
2,2453,Note_on_c,9,35,7,
2,2453,Note_off_c,9,36,0,
2,2453,Note_on_c,9,38,3,
2,2453,Note_off_c,9,39,0,
2,2454,Note_on_c,9,35,7,
2,2454,Note_off_c,9,36,0,
2,2454,Note_on_c,9,38,3,
2,2454,Note_off_c,9,39,0,
2,2455,Note_on_c,9,35,7,
2,2455,Note_off_c,9,36,0,
2,2455,Note_on_c,9,38,3,
2,2455,Note_off_c,9,39,0,
2,2456,Note_on_c,9,35,7,
2,2456,Note_off_c,9,36,0,
2,2456,Note_on_c,9,38,3,
2,2456,Note_off_c,9,39,0,
2,2457,Note_on_c,9,35,7,
2,2457,Note_off_c,9,36,0,
2,2457,Note_on_c,9,38,3,
2,2457,Note_off_c,9,39,0,
2,2458,Note_on_c,9,35,7,
2,2458,Note_off_c,9,36,0,
2,2458,Note_on_c,9,38,3,
2,2458,Note_off_c,9,39,0,
2,2459,Note_on_c,9,35,7,
2,2459,Note_off_c,9,36,0,
2,2459,Note_on_c,9,38,3,
2,2459,Note_off_c,9,39,0,
2,2460,Note_on_c,9,35,7,
2,2460,Note_off_c,9,36,0,
2,2460,Note_on_c,9,38,3,
2,2460,Note_off_c,9,39,0,
2,2461,Note_on_c,9,35,7,
2,2461,Note_off_c,9,36,0,
2,2461,Note_on_c,9,38,3,
2,2461,Note_off_c,9,39,0,
2,2462,Note_on_c,9,35,7,
2,2462,Note_off_c,9,36,0,
2,2462,Note_on_c,9,38,3,
2,2462,Note_off_c,9,39,0,
2,2463,Note_on_c,9,35,7,
2,2463,Note_off_c,9,36,0,
2,2463,Note_on_c,9,38,3,
2,2463,Note_off_c,9,39,0,
2,2464,Note_on_c,9,35,7,
2,2464,Note_off_c,9,36,0,
2,2464,Note_on_c,9,38,3,
2,2464,Note_off_c,9,39,0,
2,2465,Note_on_c,9,35,7,
2,2465,Note_off_c,9,36,0,
2,2465,Note_on_c,9,38,3,
2,2465,Note_off_c,9,39,0,
2,2466,Note_on_c,9,35,7,
2,2466,Note_off_c,9,36,0,
2,2466,Note_on_c,9,38,3,
2,2466,Note_off_c,9,39,0,
2,2467,Note_on_c,9,35,7,
2,2467,Note_off_c,9,36,0,
2,2467,Note_on_c,9,38,3,
2,2467,Note_off_c,9,39,0,
2,2468,Note_on_c,9,35,7,
2,2468,Note_off_c,9,36,0,
2,2468,Note_on_c,9,38,3,
2,2468,Note_off_c,9,39,0,
2,2469,Note_on_c,9,35,7,
2,2469,Note_off_c,9,36,0,
2,2469,Note_on_c,9,38,3,
2,2469,Note_off_c,9,39,0,
2,2470,Note_on_c,9,35,7,
2,2470,Note_off_c,9,36,0,
2,2470,Note_on_c,9,38,3,
2,2470,Note_off_c,9,39,0,
2,2471,Note_on_c,9,35,7,
2,2471,Note_off_c,9,36,0,
2,2471,Note_on_c,9,38,3,
2,2471,Note_off_c,9,39,0,
2,2472,Note_on_c,9,35,7,
2,2472,Note_off_c,9,36,0,
2,2472,Note_on_c,9,38,3,
2,2472,Note_off_c,9,39,0,
2,2473,Note_on_c,9,35,7,
2,2473,Note_off_c,9,36,0,
2,2473,Note_on_c,9,38,3,
2,2473,Note_off_c,9,39,0,
2,2474,Note_on_c,9,35,7,
2,2474,Note_off_c,9,36,0,
2,2474,Note_on_c,9,38,3,
2,2474,Note_off_c,9,39,0,
2,2475,Note_on_c,9,35,7,
2,2475,Note_off_c,9,36,0,
2,2475,Note_on_c,9,38,3,
2,2475,Note_off_c,9,39,0,
2,2476,Note_on_c,9,35,7,
2,2476,Note_off_c,9,36,0,
2,2476,Note_on_c,9,38,3,
2,2476,Note_off_c,9,39,0,
2,2477,Note_on_c,9,35,7,
2,2477,Note_off_c,9,36,0,
2,2477,Note_on_c,9,38,3,
2,2477,Note_off_c,9,39,0,
2,2478,Note_on_c,9,35,7,
2,2478,Note_off_c,9,36,0,
2,2478,Note_on_c,9,38,3,
2,2478,Note_off_c,9,39,0,
2,2479,Note_on_c,9,35,7,
2,2479,Note_off_c,9,36,0,
2,2479,Note_on_c,9,38,3,
2,2479,Note_off_c,9,39,0,
2,2480,Note_on_c,9,35,7,
2,2480,Note_off_c,9,36,0,
2,2480,Note_on_c,9,38,3,
2,2480,Note_off_c,9,39,0,
2,2481,Note_on_c,9,35,7,
2,2481,Note_off_c,9,36,0,
2,2481,Note_on_c,9,38,3,
2,2481,Note_off_c,9,39,0,
2,2482,Note_on_c,9,35,7,
2,2482,Note_off_c,9,36,0,
2,2482,Note_on_c,9,38,3,
2,2482,Note_off_c,9,39,0,
2,2483,Note_on_c,9,35,7,
2,2483,Note_off_c,9,36,0,
2,2483,Note_on_c,9,38,3,
2,2483,Note_off_c,9,39,0,
2,2484,Note_on_c,9,35,7,
2,2484,Note_off_c,9,36,0,
2,2484,Note_on_c,9,38,3,
2,2484,Note_off_c,9,39,0,
2,2485,Note_on_c,9,35,7,
2,2485,Note_off_c,9,36,0,
2,2485,Note_on_c,9,38,3,
2,2485,Note_off_c,9,39,0,
2,2486,Note_on_c,9,35,7,
2,2486,Note_off_c,9,36,0,
2,2486,Note_on_c,9,38,3,
2,2486,Note_off_c,9,39,0,
2,2487,Note_on_c,9,35,7,
2,2487,Note_off_c,9,36,0,
2,2487,Note_on_c,9,38,3,
2,2487,Note_off_c,9,39,0,
2,2488,Note_on_c,9,35,7,
2,2488,Note_off_c,9,36,0,
2,2488,Note_on_c,9,38,3,
2,2488,Note_off_c,9,39,0,
2,2489,Note_on_c,9,35,7,
2,2489,Note_off_c,9,36,0,
2,2489,Note_on_c,9,38,3,
2,2489,Note_off_c,9,39,0,
2,2490,Note_on_c,9,35,7,
2,2490,Note_off_c,9,36,0,
2,2490,Note_on_c,9,38,3,
2,2490,Note_off_c,9,39,0,
2,2491,Note_on_c,9,35,7,
2,2491,Note_off_c,9,36,0,
2,2491,Note_on_c,9,38,3,
2,2491,Note_off_c,9,39,0,
2,2492,Note_on_c,9,35,7,
2,2492,Note_off_c,9,36,0,
2,2492,Note_on_c,9,38,3,
2,2492,Note_off_c,9,39,0,
2,2493,Note_on_c,9,35,7,
2,2493,Note_off_c,9,36,0,
2,2493,Note_on_c,9,38,3,
2,2493,Note_off_c,9,39,0,
2,2494,Note_on_c,9,35,7,
2,2494,Note_off_c,9,36,0,
2,2494,Note_on_c,9,38,3,
2,2494,Note_off_c,9,39,0,
2,2495,Note_on_c,9,35,7,
2,2495,Note_off_c,9,36,0,
2,2495,Note_on_c,9,38,3,
2,2495,Note_off_c,9,39,0,
2,2496,Note_on_c,9,35,7,
2,2496,Note_off_c,9,36,0,
2,2496,Note_on_c,9,38,3,
2,2496,Note_off_c,9,39,0,
2,2497,Note_on_c,9,35,7,
2,2497,Note_off_c,9,36,0,
2,2497,Note_on_c,9,38,3,
2,2497,Note_off_c,9,39,0,
2,2498,Note_on_c,9,35,7,
2,2498,Note_off_c,9,36,0,
2,2498,Note_on_c,9,38,3,
2,2498,Note_off_c,9,39,0,
2,2499,Note_on_c,9,35,7,
2,2499,Note_off_c,9,36,0,
2,2499,Note_on_c,9,38,3,
2,2499,Note_off_c,9,39,0,
2,2500,Note_on_c,9,35,7,
2,2500,Note_off_c,9,36,0,
2,2500,Note_on_c,9,38,3,
2,2500,Note_off_c,9,39,0,
2,2501,Note_on_c,9,35,7,
2,2501,Note_off_c,9,36,0,
2,2501,Note_on_c,9,38,3,
2,2501,Note_off_c,9,39,0,
2,2502,Note_on_c,9,35,7,
2,2502,Note_off_c,9,36,0,
2,2502,Note_on_c,9,38,3,
2,2502,Note_off_c,9,39,0,
2,2503,Note_on_c,9,35,7,
2,2503,Note_off_c,9,36,0,
2,2503,Note_on_c,9,38,3,
2,2503,Note_off_c,9,39,0,
2,2504,Note_on_c,9,35,7,
2,2504,Note_off_c,9,36,0,
2,2504,Note_on_c,9,38,3,
2,2504,Note_off_c,9,39,0,
2,2505,Note_on_c,9,35,7,
2,2505,Note_off_c,9,36,0,
2,2505,Note_on_c,9,38,3,
2,2505,Note_off_c,9,39,0,
2,2506,Note_on_c,9,35,7,
2,2506,Note_off_c,9,36,0,
2,2506,Note_on_c,9,38,3,
2,2506,Note_off_c,9,39,0,
2,2507,Note_on_c,9,35,7,
2,2507,Note_off_c,9,36,0,
2,2507,Note_on_c,9,38,3,
2,2507,Note_off_c,9,39,0,
2,2508,Note_on_c,9,35,7,
2,2508,Note_off_c,9,36,0,
2,2508,Note_on_c,9,38,3,
2,2508,Note_off_c,9,39,0,
2,2509,Note_on_c,9,35,7,
2,2509,Note_off_c,9,36,0,
2,2509,Note_on_c,9,38,3,
2,2509,Note_off_c,9,39,0,
2,2510,Note_on_c,9,35,7,
2,2510,Note_off_c,9,36,0,
2,2510,Note_on_c,9,38,3,
2,2510,Note_off_c,9,39,0,
2,2511,Note_on_c,9,35,7,
2,2511,Note_off_c,9,36,0,
2,2511,Note_on_c,9,38,3,
2,2511,Note_off_c,9,39,0,
2,2512,Note_on_c,9,35,7,
2,2512,Note_off_c,9,36,0,
2,2512,Note_on_c,9,38,3,
2,2512,Note_off_c,9,39,0,
2,2513,Note_on_c,9,35,7,
2,2513,Note_off_c,9,36,0,
2,2513,Note_on_c,9,38,3,
2,2513,Note_off_c,9,39,0,
2,2514,Note_on_c,9,35,7,
2,2514,Note_off_c,9,36,0,
2,2514,Note_on_c,9,38,3,
2,2514,Note_off_c,9,39,0,
2,2515,Note_on_c,9,35,7,
2,2515,Note_off_c,9,36,0,
2,2515,Note_on_c,9,38,3,
2,2515,Note_off_c,9,39,0,
2,2516,Note_on_c,9,35,7,
2,2516,Note_off_c,9,36,0,
2,2516,Note_on_c,9,38,3,
2,2516,Note_off_c,9,39,0,
2,2517,Note_on_c,9,35,7,
2,2517,Note_off_c,9,36,0,
2,2517,Note_on_c,9,38,3,
2,2517,Note_off_c,9,39,0,
2,2518,Note_on_c,9,35,7,
2,2518,Note_off_c,9,36,0,
2,2518,Note_on_c,9,38,3,
2,2518,Note_off_c,9,39,0,
2,2519,Note_on_c,9,35,7,
2,2519,Note_off_c,9,36,0,
2,2519,Note_on_c,9,38,3,
2,2519,Note_off_c,9,39,0,
2,2520,Note_on_c,9,35,7,
2,2520,Note_off_c,9,36,0,
2,2520,Note_on_c,9,38,3,
2,2520,Note_off_c,9,39,0,
2,2521,Note_on_c,9,35,7,
2,2521,Note_off_c,9,36,0,
2,2521,Note_on_c,9,38,3,
2,2521,Note_off_c,9,39,0,
2,2522,Note_on_c,9,35,7,
2,2522,Note_off_c,9,36,0,
2,2522,Note_on_c,9,38,3,
2,2522,Note_off_c,9,39,0,
2,2523,Note_on_c,9,35,7,
2,2523,Note_off_c,9,36,0,
2,2523,Note_on_c,9,38,3,
2,2523,Note_off_c,9,39,0,
2,2524,Note_on_c,9,35,7,
2,2524,Note_off_c,9,36,0,
2,2524,Note_on_c,9,38,3,
2,2524,Note_off_c,9,39,0,
2,2525,Note_on_c,9,35,7,
2,2525,Note_off_c,9,36,0,
2,2525,Note_on_c,9,38,3,
2,2525,Note_off_c,9,39,0,
2,2526,Note_on_c,9,35,7,
2,2526,Note_off_c,9,36,0,
2,2526,Note_on_c,9,38,3,
2,2526,Note_off_c,9,39,0,
2,2527,Note_on_c,9,35,7,
2,2527,Note_off_c,9,36,0,
2,2527,Note_on_c,9,38,3,
2,2527,Note_off_c,9,39,0,
2,2528,Note_on_c,9,35,7,
2,2528,Note_off_c,9,36,0,
2,2528,Note_on_c,9,38,3,
2,2528,Note_off_c,9,39,0,
2,2529,Note_on_c,9,35,7,
2,2529,Note_off_c,9,36,0,
2,2529,Note_on_c,9,38,3,
2,2529,Note_off_c,9,39,0,
2,2530,Note_on_c,9,35,7,
2,2530,Note_off_c,9,36,0,
2,2530,Note_on_c,9,38,3,
2,2530,Note_off_c,9,39,0,
2,2531,Note_on_c,9,35,7,
2,2531,Note_off_c,9,36,0,
2,2531,Note_on_c,9,38,3,
2,2531,Note_off_c,9,39,0,
2,2532,Note_on_c,9,35,7,
2,2532,Note_off_c,9,36,0,
2,2532,Note_on_c,9,38,3,
2,2532,Note_off_c,9,39,0,
2,2533,Note_on_c,9,35,7,
2,2533,Note_off_c,9,36,0,
2,2533,Note_on_c,9,38,3,
2,2533,Note_off_c,9,39,0,
2,2534,Note_on_c,9,35,7,
2,2534,Note_off_c,9,36,0,
2,2534,Note_on_c,9,38,3,
2,2534,Note_off_c,9,39,0,
2,2535,Note_on_c,9,35,7,
2,2535,Note_off_c,9,36,0,
2,2535,Note_on_c,9,38,3,
2,2535,Note_off_c,9,39,0,
2,2536,Note_on_c,9,35,7,
2,2536,Note_off_c,9,36,0,
2,2536,Note_on_c,9,38,3,
2,2536,Note_off_c,9,39,0,
2,2537,Note_on_c,9,35,7,
2,2537,Note_off_c,9,36,0,
2,2537,Note_on_c,9,38,3,
2,2537,Note_off_c,9,39,0,
2,2538,Note_on_c,9,35,7,
2,2538,Note_off_c,9,36,0,
2,2538,Note_on_c,9,38,3,
2,2538,Note_off_c,9,39,0,
2,2539,Note_on_c,9,35,7,
2,2539,Note_off_c,9,36,0,
2,2539,Note_on_c,9,38,3,
2,2539,Note_off_c,9,39,0,
2,2540,Note_on_c,9,35,7,
2,2540,Note_off_c,9,36,0,
2,2540,Note_on_c,9,38,3,
2,2540,Note_off_c,9,39,0,
2,2541,Note_on_c,9,35,7,
2,2541,Note_off_c,9,36,0,
2,2541,Note_on_c,9,38,3,
2,2541,Note_off_c,9,39,0,
2,2542,Note_on_c,9,35,7,
2,2542,Note_off_c,9,36,0,
2,2542,Note_on_c,9,38,3,
2,2542,Note_off_c,9,39,0,
2,2543,Note_on_c,9,35,7,
2,2543,Note_off_c,9,36,0,
2,2543,Note_on_c,9,38,3,
2,2543,Note_off_c,9,39,0,
2,2544,Note_on_c,9,35,7,
2,2544,Note_off_c,9,36,0,
2,2544,Note_on_c,9,38,3,
2,2544,Note_off_c,9,39,0,
2,2545,Note_on_c,9,35,7,
2,2545,Note_off_c,9,36,0,
2,2545,Note_on_c,9,38,3,
2,2545,Note_off_c,9,39,0,
2,2546,Note_on_c,9,35,7,
2,2546,Note_off_c,9,36,0,
2,2546,Note_on_c,9,38,3,
2,2546,Note_off_c,9,39,0,
2,2547,Note_on_c,9,35,7,
2,2547,Note_off_c,9,36,0,
2,2547,Note_on_c,9,38,3,
2,2547,Note_off_c,9,39,0,
2,2548,Note_on_c,9,35,7,
2,2548,Note_off_c,9,36,0,
2,2548,Note_on_c,9,38,3,
2,2548,Note_off_c,9,39,0,
2,2549,Note_on_c,9,35,7,
2,2549,Note_off_c,9,36,0,
2,2549,Note_on_c,9,38,3,
2,2549,Note_off_c,9,39,0,
2,2550,Note_on_c,9,35,7,
2,2550,Note_off_c,9,36,0,
2,2550,Note_on_c,9,38,3,
2,2550,Note_off_c,9,39,0,
2,2551,Note_on_c,9,35,7,
2,2551,Note_off_c,9,36,0,
2,2551,Note_on_c,9,38,3,
2,2551,Note_off_c,9,39,0,
2,2552,Note_on_c,9,35,7,
2,2552,Note_off_c,9,36,0,
2,2552,Note_on_c,9,38,3,
2,2552,Note_off_c,9,39,0,
2,2553,Note_on_c,9,35,7,
2,2553,Note_off_c,9,36,0,
2,2553,Note_on_c,9,38,3,
2,2553,Note_off_c,9,39,0,
2,2554,Note_on_c,9,35,7,
2,2554,Note_off_c,9,36,0,
2,2554,Note_on_c,9,38,3,
2,2554,Note_off_c,9,39,0,
2,2555,Note_on_c,9,35,7,
2,2555,Note_off_c,9,36,0,
2,2555,Note_on_c,9,38,3,
2,2555,Note_off_c,9,39,0,
2,2556,Note_on_c,9,35,7,
2,2556,Note_off_c,9,36,0,
2,2556,Note_on_c,9,38,3,
2,2556,Note_off_c,9,39,0,
2,2557,Note_on_c,9,35,7,
2,2557,Note_off_c,9,36,0,
2,2557,Note_on_c,9,38,3,
2,2557,Note_off_c,9,39,0,
2,2558,Note_on_c,9,35,7,
2,2558,Note_off_c,9,36,0,
2,2558,Note_on_c,9,38,3,
2,2558,Note_off_c,9,39,0,
2,2559,Note_on_c,9,35,7,
2,2559,Note_off_c,9,36,0,
2,2559,Note_on_c,9,38,3,
2,2559,Note_off_c,9,39,0,
2,2560,Note_on_c,9,35,7,
2,2560,Note_off_c,9,36,0,
2,2560,Note_on_c,9,38,3,
2,2560,Note_off_c,9,39,0,
2,2561,Note_on_c,9,35,7,
2,2561,Note_off_c,9,36,0,
2,2561,Note_on_c,9,38,3,
2,2561,Note_off_c,9,39,0,
2,2562,Note_on_c,9,35,7,
2,2562,Note_off_c,9,36,0,
2,2562,Note_on_c,9,38,3,
2,2562,Note_off_c,9,39,0,
2,2563,Note_on_c,9,35,7,
2,2563,Note_off_c,9,36,0,
2,2563,Note_on_c,9,38,3,
2,2563,Note_off_c,9,39,0,
2,2564,Note_on_c,9,35,7,
2,2564,Note_off_c,9,36,0,
2,2564,Note_on_c,9,38,3,
2,2564,Note_off_c,9,39,0,
2,2565,Note_on_c,9,35,7,
2,2565,Note_off_c,9,36,0,
2,2565,Note_on_c,9,38,3,
2,2565,Note_off_c,9,39,0,
2,2566,Note_on_c,9,35,7,
2,2566,Note_off_c,9,36,0,
2,2566,Note_on_c,9,38,3,
2,2566,Note_off_c,9,39,0,
2,2567,Note_on_c,9,35,7,
2,2567,Note_off_c,9,36,0,
2,2567,Note_on_c,9,38,3,
2,2567,Note_off_c,9,39,0,
2,2568,Note_on_c,9,35,7,
2,2568,Note_off_c,9,36,0,
2,2568,Note_on_c,9,38,3,
2,2568,Note_off_c,9,39,0,
2,2569,Note_on_c,9,35,7,
2,2569,Note_off_c,9,36,0,
2,2569,Note_on_c,9,38,3,
2,2569,Note_off_c,9,39,0,
2,2570,Note_on_c,9,35,7,
2,2570,Note_off_c,9,36,0,
2,2570,Note_on_c,9,38,3,
2,2570,Note_off_c,9,39,0,
2,2571,Note_on_c,9,35,7,
2,2571,Note_off_c,9,36,0,
2,2571,Note_on_c,9,38,3,
2,2571,Note_off_c,9,39,0,
2,2572,Note_on_c,9,35,7,
2,2572,Note_off_c,9,36,0,
2,2572,Note_on_c,9,38,3,
2,2572,Note_off_c,9,39,0,
2,2573,Note_on_c,9,35,7,
2,2573,Note_off_c,9,36,0,
2,2573,Note_on_c,9,38,3,
2,2573,Note_off_c,9,39,0,
2,2574,Note_on_c,9,35,7,
2,2574,Note_off_c,9,36,0,
2,2574,Note_on_c,9,38,3,
2,2574,Note_off_c,9,39,0,
2,2575,Note_on_c,9,35,7,
2,2575,Note_off_c,9,36,0,
2,2575,Note_on_c,9,38,3,
2,2575,Note_off_c,9,39,0,
2,2576,Note_on_c,9,35,7,
2,2576,Note_off_c,9,36,0,
2,2576,Note_on_c,9,38,3,
2,2576,Note_off_c,9,39,0,
2,2577,Note_on_c,9,35,7,
2,2577,Note_off_c,9,36,0,
2,2577,Note_on_c,9,38,3,
2,2577,Note_off_c,9,39,0,
2,2578,Note_on_c,9,35,7,
2,2578,Note_off_c,9,36,0,
2,2578,Note_on_c,9,38,3,
2,2578,Note_off_c,9,39,0,
2,2579,Note_on_c,9,35,7,
2,2579,Note_off_c,9,36,0,
2,2579,Note_on_c,9,38,3,
2,2579,Note_off_c,9,39,0,
2,2580,Note_on_c,9,35,7,
2,2580,Note_off_c,9,36,0,
2,2580,Note_on_c,9,38,3,
2,2580,Note_off_c,9,39,0,
2,2581,Note_on_c,9,35,7,
2,2581,Note_off_c,9,36,0,
2,2581,Note_on_c,9,38,3,
2,2581,Note_off_c,9,39,0,
2,2582,Note_on_c,9,35,7,
2,2582,Note_off_c,9,36,0,
2,2582,Note_on_c,9,38,3,
2,2582,Note_off_c,9,39,0,
2,2583,Note_on_c,9,35,7,
2,2583,Note_off_c,9,36,0,
2,2583,Note_on_c,9,38,3,
2,2583,Note_off_c,9,39,0,
2,2584,Note_on_c,9,35,7,
2,2584,Note_off_c,9,36,0,
2,2584,Note_on_c,9,38,3,
2,2584,Note_off_c,9,39,0,
2,2585,Note_on_c,9,35,7,
2,2585,Note_off_c,9,36,0,
2,2585,Note_on_c,9,38,3,
2,2585,Note_off_c,9,39,0,
2,2586,Note_on_c,9,35,7,
2,2586,Note_off_c,9,36,0,
2,2586,Note_on_c,9,38,3,
2,2586,Note_off_c,9,39,0,
2,2587,Note_on_c,9,35,7,
2,2587,Note_off_c,9,36,0,
2,2587,Note_on_c,9,38,3,
2,2587,Note_off_c,9,39,0,
2,2588,Note_on_c,9,35,7,
2,2588,Note_off_c,9,36,0,
2,2588,Note_on_c,9,38,3,
2,2588,Note_off_c,9,39,0,
2,2589,Note_on_c,9,35,7,
2,2589,Note_off_c,9,36,0,
2,2589,Note_on_c,9,38,3,
2,2589,Note_off_c,9,39,0,
2,2590,Note_on_c,9,35,7,
2,2590,Note_off_c,9,36,0,
2,2590,Note_on_c,9,38,3,
2,2590,Note_off_c,9,39,0,
2,2591,Note_on_c,9,35,7,
2,2591,Note_off_c,9,36,0,
2,2591,Note_on_c,9,38,3,
2,2591,Note_off_c,9,39,0,
2,2592,Note_on_c,9,35,7,
2,2592,Note_off_c,9,36,0,
2,2592,Note_on_c,9,38,3,
2,2592,Note_off_c,9,39,0,
2,2593,Note_on_c,9,35,7,
2,2593,Note_off_c,9,36,0,
2,2593,Note_on_c,9,38,3,
2,2593,Note_off_c,9,39,0,
2,2594,Note_on_c,9,35,7,
2,2594,Note_off_c,9,36,0,
2,2594,Note_on_c,9,38,3,
2,2594,Note_off_c,9,39,0,
2,2595,Note_on_c,9,35,7,
2,2595,Note_off_c,9,36,0,
2,2595,Note_on_c,9,38,3,
2,2595,Note_off_c,9,39,0,
2,2596,Note_on_c,9,35,7,
2,2596,Note_off_c,9,36,0,
2,2596,Note_on_c,9,38,3,
2,2596,Note_off_c,9,39,0,
2,2597,Note_on_c,9,35,7,
2,2597,Note_off_c,9,36,0,
2,2597,Note_on_c,9,38,3,
2,2597,Note_off_c,9,39,0,
2,2598,Note_on_c,9,35,7,
2,2598,Note_off_c,9,36,0,
2,2598,Note_on_c,9,38,3,
2,2598,Note_off_c,9,39,0,
2,2599,Note_on_c,9,35,7,
2,2599,Note_off_c,9,36,0,
2,2599,Note_on_c,9,38,3,
2,2599,Note_off_c,9,39,0,
2,2600,Note_on_c,9,35,7,
2,2600,Note_off_c,9,36,0,
2,2600,Note_on_c,9,38,3,
2,2600,Note_off_c,9,39,0,
2,2601,Note_on_c,9,35,7,
2,2601,Note_off_c,9,36,0,
2,2601,Note_on_c,9,38,3,
2,2601,Note_off_c,9,39,0,
2,2602,Note_on_c,9,35,7,
2,2602,Note_off_c,9,36,0,
2,2602,Note_on_c,9,38,3,
2,2602,Note_off_c,9,39,0,
2,2603,Note_on_c,9,35,7,
2,2603,Note_off_c,9,36,0,
2,2603,Note_on_c,9,38,3,
2,2603,Note_off_c,9,39,0,
2,2604,Note_on_c,9,35,7,
2,2604,Note_off_c,9,36,0,
2,2604,Note_on_c,9,38,3,
2,2604,Note_off_c,9,39,0,
2,2605,Note_on_c,9,35,7,
2,2605,Note_off_c,9,36,0,
2,2605,Note_on_c,9,38,3,
2,2605,Note_off_c,9,39,0,
2,2606,Note_on_c,9,35,7,
2,2606,Note_off_c,9,36,0,
2,2606,Note_on_c,9,38,3,
2,2606,Note_off_c,9,39,0,
2,2607,Note_on_c,9,35,7,
2,2607,Note_off_c,9,36,0,
2,2607,Note_on_c,9,38,3,
2,2607,Note_off_c,9,39,0,
2,2608,Note_on_c,9,35,7,
2,2608,Note_off_c,9,36,0,
2,2608,Note_on_c,9,38,3,
2,2608,Note_off_c,9,39,0,
2,2609,Note_on_c,9,35,7,
2,2609,Note_off_c,9,36,0,
2,2609,Note_on_c,9,38,3,
2,2609,Note_off_c,9,39,0,
2,2610,Note_on_c,9,35,7,
2,2610,Note_off_c,9,36,0,
2,2610,Note_on_c,9,38,3,
2,2610,Note_off_c,9,39,0,
2,2611,Note_on_c,9,35,7,
2,2611,Note_off_c,9,36,0,
2,2611,Note_on_c,9,38,3,
2,2611,Note_off_c,9,39,0,
2,2612,Note_on_c,9,35,7,
2,2612,Note_off_c,9,36,0,
2,2612,Note_on_c,9,38,3,
2,2612,Note_off_c,9,39,0,
2,2613,Note_on_c,9,35,7,
2,2613,Note_off_c,9,36,0,
2,2613,Note_on_c,9,38,3,
2,2613,Note_off_c,9,39,0,
2,2614,Note_on_c,9,35,7,
2,2614,Note_off_c,9,36,0,
2,2614,Note_on_c,9,38,3,
2,2614,Note_off_c,9,39,0,
2,2615,Note_on_c,9,35,7,
2,2615,Note_off_c,9,36,0,
2,2615,Note_on_c,9,38,3,
2,2615,Note_off_c,9,39,0,
2,2616,Note_on_c,9,35,7,
2,2616,Note_off_c,9,36,0,
2,2616,Note_on_c,9,38,3,
2,2616,Note_off_c,9,39,0,
2,2617,Note_on_c,9,35,7,
2,2617,Note_off_c,9,36,0,
2,2617,Note_on_c,9,38,3,
2,2617,Note_off_c,9,39,0,
2,2618,Note_on_c,9,35,7,
2,2618,Note_off_c,9,36,0,
2,2618,Note_on_c,9,38,3,
2,2618,Note_off_c,9,39,0,
2,2619,Note_on_c,9,35,7,
2,2619,Note_off_c,9,36,0,
2,2619,Note_on_c,9,38,3,
2,2619,Note_off_c,9,39,0,
2,2620,Note_on_c,9,35,7,
2,2620,Note_off_c,9,36,0,
2,2620,Note_on_c,9,38,3,
2,2620,Note_off_c,9,39,0,
2,2621,Note_on_c,9,35,7,
2,2621,Note_off_c,9,36,0,
2,2621,Note_on_c,9,38,3,
2,2621,Note_off_c,9,39,0,
2,2622,Note_on_c,9,35,7,
2,2622,Note_off_c,9,36,0,
2,2622,Note_on_c,9,38,3,
2,2622,Note_off_c,9,39,0,
2,2623,Note_on_c,9,35,7,
2,2623,Note_off_c,9,36,0,
2,2623,Note_on_c,9,38,3,
2,2623,Note_off_c,9,39,0,
2,2624,Note_on_c,9,35,7,
2,2624,Note_off_c,9,36,0,
2,2624,Note_on_c,9,38,3,
2,2624,Note_off_c,9,39,0,
2,2625,Note_on_c,9,35,7,
2,2625,Note_off_c,9,36,0,
2,2625,Note_on_c,9,38,3,
2,2625,Note_off_c,9,39,0,
2,2626,Note_on_c,9,35,7,
2,2626,Note_off_c,9,36,0,
2,2626,Note_on_c,9,38,3,
2,2626,Note_off_c,9,39,0,
2,2627,Note_on_c,9,35,7,
2,2627,Note_off_c,9,36,0,
2,2627,Note_on_c,9,38,3,
2,2627,Note_off_c,9,39,0,
2,2628,Note_on_c,9,35,7,
2,2628,Note_off_c,9,36,0,
2,2628,Note_on_c,9,38,3,
2,2628,Note_off_c,9,39,0,
2,2629,Note_on_c,9,35,7,
2,2629,Note_off_c,9,36,0,
2,2629,Note_on_c,9,38,3,
2,2629,Note_off_c,9,39,0,
2,2630,Note_on_c,9,35,7,
2,2630,Note_off_c,9,36,0,
2,2630,Note_on_c,9,38,3,
2,2630,Note_off_c,9,39,0,
2,2631,Note_on_c,9,35,7,
2,2631,Note_off_c,9,36,0,
2,2631,Note_on_c,9,38,3,
2,2631,Note_off_c,9,39,0,
2,2632,Note_on_c,9,35,7,
2,2632,Note_off_c,9,36,0,
2,2632,Note_on_c,9,38,3,
2,2632,Note_off_c,9,39,0,
2,2633,Note_on_c,9,35,7,
2,2633,Note_off_c,9,36,0,
2,2633,Note_on_c,9,38,3,
2,2633,Note_off_c,9,39,0,
2,2634,Note_on_c,9,35,7,
2,2634,Note_off_c,9,36,0,
2,2634,Note_on_c,9,38,3,
2,2634,Note_off_c,9,39,0,
2,2635,Note_on_c,9,35,7,
2,2635,Note_off_c,9,36,0,
2,2635,Note_on_c,9,38,3,
2,2635,Note_off_c,9,39,0,
2,2636,Note_on_c,9,35,7,
2,2636,Note_off_c,9,36,0,
2,2636,Note_on_c,9,38,3,
2,2636,Note_off_c,9,39,0,
2,2637,Note_on_c,9,35,7,
2,2637,Note_off_c,9,36,0,
2,2637,Note_on_c,9,38,3,
2,2637,Note_off_c,9,39,0,
2,2638,Note_on_c,9,35,7,
2,2638,Note_off_c,9,36,0,
2,2638,Note_on_c,9,38,3,
2,2638,Note_off_c,9,39,0,
2,2639,Note_on_c,9,35,7,
2,2639,Note_off_c,9,36,0,
2,2639,Note_on_c,9,38,3,
2,2639,Note_off_c,9,39,0,
2,2640,Note_on_c,9,35,7,
2,2640,Note_off_c,9,36,0,
2,2640,Note_on_c,9,38,3,
2,2640,Note_off_c,9,39,0,
2,2641,Note_on_c,9,35,7,
2,2641,Note_off_c,9,36,0,
2,2641,Note_on_c,9,38,3,
2,2641,Note_off_c,9,39,0,
2,2642,Note_on_c,9,35,7,
2,2642,Note_off_c,9,36,0,
2,2642,Note_on_c,9,38,3,
2,2642,Note_off_c,9,39,0,
2,2643,Note_on_c,9,35,7,
2,2643,Note_off_c,9,36,0,
2,2643,Note_on_c,9,38,3,
2,2643,Note_off_c,9,39,0,
2,2644,Note_on_c,9,35,7,
2,2644,Note_off_c,9,36,0,
2,2644,Note_on_c,9,38,3,
2,2644,Note_off_c,9,39,0,
2,2645,Note_on_c,9,35,7,
2,2645,Note_off_c,9,36,0,
2,2645,Note_on_c,9,38,3,
2,2645,Note_off_c,9,39,0,
2,2646,Note_on_c,9,35,7,
2,2646,Note_off_c,9,36,0,
2,2646,Note_on_c,9,38,3,
2,2646,Note_off_c,9,39,0,
2,2647,Note_on_c,9,35,7,
2,2647,Note_off_c,9,36,0,
2,2647,Note_on_c,9,38,3,
2,2647,Note_off_c,9,39,0,
2,2648,Note_on_c,9,35,7,
2,2648,Note_off_c,9,36,0,
2,2648,Note_on_c,9,38,3,
2,2648,Note_off_c,9,39,0,
2,2649,Note_on_c,9,35,7,
2,2649,Note_off_c,9,36,0,
2,2649,Note_on_c,9,38,3,
2,2649,Note_off_c,9,39,0,
2,2650,Note_on_c,9,35,7,
2,2650,Note_off_c,9,36,0,
2,2650,Note_on_c,9,38,3,
2,2650,Note_off_c,9,39,0,
2,2651,Note_on_c,9,35,7,
2,2651,Note_off_c,9,36,0,
2,2651,Note_on_c,9,38,3,
2,2651,Note_off_c,9,39,0,
2,2652,Note_on_c,9,35,7,
2,2652,Note_off_c,9,36,0,
2,2652,Note_on_c,9,38,3,
2,2652,Note_off_c,9,39,0,
2,2653,Note_on_c,9,35,7,
2,2653,Note_off_c,9,36,0,
2,2653,Note_on_c,9,38,3,
2,2653,Note_off_c,9,39,0,
2,2654,Note_on_c,9,35,7,
2,2654,Note_off_c,9,36,0,
2,2654,Note_on_c,9,38,3,
2,2654,Note_off_c,9,39,0,
2,2655,Note_on_c,9,35,7,
2,2655,Note_off_c,9,36,0,
2,2655,Note_on_c,9,38,3,
2,2655,Note_off_c,9,39,0,
2,2656,Note_on_c,9,35,7,
2,2656,Note_off_c,9,36,0,
2,2656,Note_on_c,9,38,3,
2,2656,Note_off_c,9,39,0,
2,2657,Note_on_c,9,35,7,
2,2657,Note_off_c,9,36,0,
2,2657,Note_on_c,9,38,3,
2,2657,Note_off_c,9,39,0,
2,2658,Note_on_c,9,35,7,
2,2658,Note_off_c,9,36,0,
2,2658,Note_on_c,9,38,3,
2,2658,Note_off_c,9,39,0,
2,2659,Note_on_c,9,35,7,
2,2659,Note_off_c,9,36,0,
2,2659,Note_on_c,9,38,3,
2,2659,Note_off_c,9,39,0,
2,2660,Note_on_c,9,35,7,
2,2660,Note_off_c,9,36,0,
2,2660,Note_on_c,9,38,3,
2,2660,Note_off_c,9,39,0,
2,2661,Note_on_c,9,35,7,
2,2661,Note_off_c,9,36,0,
2,2661,Note_on_c,9,38,3,
2,2661,Note_off_c,9,39,0,
2,2662,Note_on_c,9,35,7,
2,2662,Note_off_c,9,36,0,
2,2662,Note_on_c,9,38,3,
2,2662,Note_off_c,9,39,0,
2,2663,Note_on_c,9,35,7,
2,2663,Note_off_c,9,36,0,
2,2663,Note_on_c,9,38,3,
2,2663,Note_off_c,9,39,0,
2,2664,Note_on_c,9,35,7,
2,2664,Note_off_c,9,36,0,
2,2664,Note_on_c,9,38,3,
2,2664,Note_off_c,9,39,0,
2,2665,Note_on_c,9,35,7,
2,2665,Note_off_c,9,36,0,
2,2665,Note_on_c,9,38,3,
2,2665,Note_off_c,9,39,0,
2,2666,Note_on_c,9,35,7,
2,2666,Note_off_c,9,36,0,
2,2666,Note_on_c,9,38,3,
2,2666,Note_off_c,9,39,0,
2,2667,Note_on_c,9,35,7,
2,2667,Note_off_c,9,36,0,
2,2667,Note_on_c,9,38,3,
2,2667,Note_off_c,9,39,0,
2,2668,Note_on_c,9,35,7,
2,2668,Note_off_c,9,36,0,
2,2668,Note_on_c,9,38,3,
2,2668,Note_off_c,9,39,0,
2,2669,Note_on_c,9,35,7,
2,2669,Note_off_c,9,36,0,
2,2669,Note_on_c,9,38,3,
2,2669,Note_off_c,9,39,0,
2,2670,Note_on_c,9,35,7,
2,2670,Note_off_c,9,36,0,
2,2670,Note_on_c,9,38,3,
2,2670,Note_off_c,9,39,0,
2,2671,Note_on_c,9,35,7,
2,2671,Note_off_c,9,36,0,
2,2671,Note_on_c,9,38,3,
2,2671,Note_off_c,9,39,0,
2,2672,Note_on_c,9,35,7,
2,2672,Note_off_c,9,36,0,
2,2672,Note_on_c,9,38,3,
2,2672,Note_off_c,9,39,0,
2,2673,Note_on_c,9,35,7,
2,2673,Note_off_c,9,36,0,
2,2673,Note_on_c,9,38,3,
2,2673,Note_off_c,9,39,0,
2,2674,Note_on_c,9,35,7,
2,2674,Note_off_c,9,36,0,
2,2674,Note_on_c,9,38,3,
2,2674,Note_off_c,9,39,0,
2,2675,Note_on_c,9,35,7,
2,2675,Note_off_c,9,36,0,
2,2675,Note_on_c,9,38,3,
2,2675,Note_off_c,9,39,0,
2,2676,Note_on_c,9,35,7,
2,2676,Note_off_c,9,36,0,
2,2676,Note_on_c,9,38,3,
2,2676,Note_off_c,9,39,0,
2,2677,Note_on_c,9,35,7,
2,2677,Note_off_c,9,36,0,
2,2677,Note_on_c,9,38,3,
2,2677,Note_off_c,9,39,0,
2,2678,Note_on_c,9,35,7,
2,2678,Note_off_c,9,36,0,
2,2678,Note_on_c,9,38,3,
2,2678,Note_off_c,9,39,0,
2,2679,Note_on_c,9,35,7,
2,2679,Note_off_c,9,36,0,
2,2679,Note_on_c,9,38,3,
2,2679,Note_off_c,9,39,0,
2,2680,Note_on_c,9,35,7,
2,2680,Note_off_c,9,36,0,
2,2680,Note_on_c,9,38,3,
2,2680,Note_off_c,9,39,0,
2,2681,Note_on_c,9,35,7,
2,2681,Note_off_c,9,36,0,
2,2681,Note_on_c,9,38,3,
2,2681,Note_off_c,9,39,0,
2,2682,Note_on_c,9,35,7,
2,2682,Note_off_c,9,36,0,
2,2682,Note_on_c,9,38,3,
2,2682,Note_off_c,9,39,0,
2,2683,Note_on_c,9,35,7,
2,2683,Note_off_c,9,36,0,
2,2683,Note_on_c,9,38,3,
2,2683,Note_off_c,9,39,0,
2,2684,Note_on_c,9,35,7,
2,2684,Note_off_c,9,36,0,
2,2684,Note_on_c,9,38,3,
2,2684,Note_off_c,9,39,0,
2,2685,Note_on_c,9,35,7,
2,2685,Note_off_c,9,36,0,
2,2685,Note_on_c,9,38,3,
2,2685,Note_off_c,9,39,0,
2,2686,Note_on_c,9,35,7,
2,2686,Note_off_c,9,36,0,
2,2686,Note_on_c,9,38,3,
2,2686,Note_off_c,9,39,0,
2,2687,Note_on_c,9,35,7,
2,2687,Note_off_c,9,36,0,
2,2687,Note_on_c,9,38,3,
2,2687,Note_off_c,9,39,0,
2,2688,Note_on_c,9,35,7,
2,2688,Note_off_c,9,36,0,
2,2688,Note_on_c,9,38,3,
2,2688,Note_off_c,9,39,0,
2,2689,Note_on_c,9,35,7,
2,2689,Note_off_c,9,36,0,
2,2689,Note_on_c,9,38,3,
2,2689,Note_off_c,9,39,0,
2,2690,Note_on_c,9,35,7,
2,2690,Note_off_c,9,36,0,
2,2690,Note_on_c,9,38,3,
2,2690,Note_off_c,9,39,0,
2,2691,Note_on_c,9,35,7,
2,2691,Note_off_c,9,36,0,
2,2691,Note_on_c,9,38,3,
2,2691,Note_off_c,9,39,0,
2,2692,Note_on_c,9,35,7,
2,2692,Note_off_c,9,36,0,
2,2692,Note_on_c,9,38,3,
2,2692,Note_off_c,9,39,0,
2,2693,Note_on_c,9,35,7,
2,2693,Note_off_c,9,36,0,
2,2693,Note_on_c,9,38,3,
2,2693,Note_off_c,9,39,0,
2,2694,Note_on_c,9,35,7,
2,2694,Note_off_c,9,36,0,
2,2694,Note_on_c,9,38,3,
2,2694,Note_off_c,9,39,0,
2,2695,Note_on_c,9,35,7,
2,2695,Note_off_c,9,36,0,
2,2695,Note_on_c,9,38,3,
2,2695,Note_off_c,9,39,0,
2,2696,Note_on_c,9,35,7,
2,2696,Note_off_c,9,36,0,
2,2696,Note_on_c,9,38,3,
2,2696,Note_off_c,9,39,0,
2,2697,Note_on_c,9,35,7,
2,2697,Note_off_c,9,36,0,
2,2697,Note_on_c,9,38,3,
2,2697,Note_off_c,9,39,0,
2,2698,Note_on_c,9,35,7,
2,2698,Note_off_c,9,36,0,
2,2698,Note_on_c,9,38,3,
2,2698,Note_off_c,9,39,0,
2,2699,Note_on_c,9,35,7,
2,2699,Note_off_c,9,36,0,
2,2699,Note_on_c,9,38,3,
2,2699,Note_off_c,9,39,0,
2,2700,Note_on_c,9,35,7,
2,2700,Note_off_c,9,36,0,
2,2700,Note_on_c,9,38,3,
2,2700,Note_off_c,9,39,0,
2,2701,Note_on_c,9,35,7,
2,2701,Note_off_c,9,36,0,
2,2701,Note_on_c,9,38,3,
2,2701,Note_off_c,9,39,0,
2,2702,Note_on_c,9,35,7,
2,2702,Note_off_c,9,36,0,
2,2702,Note_on_c,9,38,3,
2,2702,Note_off_c,9,39,0,
2,2703,Note_on_c,9,35,7,
2,2703,Note_off_c,9,36,0,
2,2703,Note_on_c,9,38,3,
2,2703,Note_off_c,9,39,0,
2,2704,Note_on_c,9,35,7,
2,2704,Note_off_c,9,36,0,
2,2704,Note_on_c,9,38,3,
2,2704,Note_off_c,9,39,0,
2,2705,Note_on_c,9,35,7,
2,2705,Note_off_c,9,36,0,
2,2705,Note_on_c,9,38,3,
2,2705,Note_off_c,9,39,0,
2,2706,Note_on_c,9,35,7,
2,2706,Note_off_c,9,36,0,
2,2706,Note_on_c,9,38,3,
2,2706,Note_off_c,9,39,0,
2,2707,Note_on_c,9,35,7,
2,2707,Note_off_c,9,36,0,
2,2707,Note_on_c,9,38,3,
2,2707,Note_off_c,9,39,0,
2,2708,Note_on_c,9,35,7,
2,2708,Note_off_c,9,36,0,
2,2708,Note_on_c,9,38,3,
2,2708,Note_off_c,9,39,0,
2,2709,Note_on_c,9,35,7,
2,2709,Note_off_c,9,36,0,
2,2709,Note_on_c,9,38,3,
2,2709,Note_off_c,9,39,0,
2,2710,Note_on_c,9,35,7,
2,2710,Note_off_c,9,36,0,
2,2710,Note_on_c,9,38,3,
2,2710,Note_off_c,9,39,0,
2,2711,Note_on_c,9,35,7,
2,2711,Note_off_c,9,36,0,
2,2711,Note_on_c,9,38,3,
2,2711,Note_off_c,9,39,0,
2,2712,Note_on_c,9,35,7,
2,2712,Note_off_c,9,36,0,
2,2712,Note_on_c,9,38,3,
2,2712,Note_off_c,9,39,0,
2,2713,Note_on_c,9,35,7,
2,2713,Note_off_c,9,36,0,
2,2713,Note_on_c,9,38,3,
2,2713,Note_off_c,9,39,0,
2,2714,Note_on_c,9,35,7,
2,2714,Note_off_c,9,36,0,
2,2714,Note_on_c,9,38,3,
2,2714,Note_off_c,9,39,0,
2,2715,Note_on_c,9,35,7,
2,2715,Note_off_c,9,36,0,
2,2715,Note_on_c,9,38,3,
2,2715,Note_off_c,9,39,0,
2,2716,Note_on_c,9,35,7,
2,2716,Note_off_c,9,36,0,
2,2716,Note_on_c,9,38,3,
2,2716,Note_off_c,9,39,0,
2,2717,Note_on_c,9,35,7,
2,2717,Note_off_c,9,36,0,
2,2717,Note_on_c,9,38,3,
2,2717,Note_off_c,9,39,0,
2,2718,Note_on_c,9,35,7,
2,2718,Note_off_c,9,36,0,
2,2718,Note_on_c,9,38,3,
2,2718,Note_off_c,9,39,0,
2,2719,Note_on_c,9,35,7,
2,2719,Note_off_c,9,36,0,
2,2719,Note_on_c,9,38,3,
2,2719,Note_off_c,9,39,0,
2,2720,Note_on_c,9,35,7,
2,2720,Note_off_c,9,36,0,
2,2720,Note_on_c,9,38,3,
2,2720,Note_off_c,9,39,0,
2,2721,Note_on_c,9,35,7,
2,2721,Note_off_c,9,36,0,
2,2721,Note_on_c,9,38,3,
2,2721,Note_off_c,9,39,0,
2,2722,Note_on_c,9,35,7,
2,2722,Note_off_c,9,36,0,
2,2722,Note_on_c,9,38,3,
2,2722,Note_off_c,9,39,0,
2,2723,Note_on_c,9,35,7,
2,2723,Note_off_c,9,36,0,
2,2723,Note_on_c,9,38,3,
2,2723,Note_off_c,9,39,0,
2,2724,Note_on_c,9,35,7,
2,2724,Note_off_c,9,36,0,
2,2724,Note_on_c,9,38,3,
2,2724,Note_off_c,9,39,0,
2,2725,Note_on_c,9,35,7,
2,2725,Note_off_c,9,36,0,
2,2725,Note_on_c,9,38,3,
2,2725,Note_off_c,9,39,0,
2,2726,Note_on_c,9,35,7,
2,2726,Note_off_c,9,36,0,
2,2726,Note_on_c,9,38,3,
2,2726,Note_off_c,9,39,0,
2,2727,Note_on_c,9,35,7,
2,2727,Note_off_c,9,36,0,
2,2727,Note_on_c,9,38,3,
2,2727,Note_off_c,9,39,0,
2,2728,Note_on_c,9,35,7,
2,2728,Note_off_c,9,36,0,
2,2728,Note_on_c,9,38,3,
2,2728,Note_off_c,9,39,0,
2,2729,Note_on_c,9,35,7,
2,2729,Note_off_c,9,36,0,
2,2729,Note_on_c,9,38,3,
2,2729,Note_off_c,9,39,0,
2,2730,Note_on_c,9,35,7,
2,2730,Note_off_c,9,36,0,
2,2730,Note_on_c,9,38,3,
2,2730,Note_off_c,9,39,0,
2,2731,Note_on_c,9,35,7,
2,2731,Note_off_c,9,36,0,
2,2731,Note_on_c,9,38,3,
2,2731,Note_off_c,9,39,0,
2,2732,Note_on_c,9,35,7,
2,2732,Note_off_c,9,36,0,
2,2732,Note_on_c,9,38,3,
2,2732,Note_off_c,9,39,0,
2,2733,Note_on_c,9,35,7,
2,2733,Note_off_c,9,36,0,
2,2733,Note_on_c,9,38,3,
2,2733,Note_off_c,9,39,0,
2,2734,Note_on_c,9,35,7,
2,2734,Note_off_c,9,36,0,
2,2734,Note_on_c,9,38,3,
2,2734,Note_off_c,9,39,0,
2,2735,Note_on_c,9,35,7,
2,2735,Note_off_c,9,36,0,
2,2735,Note_on_c,9,38,3,
2,2735,Note_off_c,9,39,0,
2,2736,Note_on_c,9,35,7,
2,2736,Note_off_c,9,36,0,
2,2736,Note_on_c,9,38,3,
2,2736,Note_off_c,9,39,0,
2,2737,Note_on_c,9,35,7,
2,2737,Note_off_c,9,36,0,
2,2737,Note_on_c,9,38,3,
2,2737,Note_off_c,9,39,0,
2,2738,Note_on_c,9,35,7,
2,2738,Note_off_c,9,36,0,
2,2738,Note_on_c,9,38,3,
2,2738,Note_off_c,9,39,0,
2,2739,Note_on_c,9,35,7,
2,2739,Note_off_c,9,36,0,
2,2739,Note_on_c,9,38,3,
2,2739,Note_off_c,9,39,0,
2,2740,Note_on_c,9,35,7,
2,2740,Note_off_c,9,36,0,
2,2740,Note_on_c,9,38,3,
2,2740,Note_off_c,9,39,0,
2,2741,Note_on_c,9,35,7,
2,2741,Note_off_c,9,36,0,
2,2741,Note_on_c,9,38,3,
2,2741,Note_off_c,9,39,0,
2,2742,Note_on_c,9,35,7,
2,2742,Note_off_c,9,36,0,
2,2742,Note_on_c,9,38,3,
2,2742,Note_off_c,9,39,0,
2,2743,Note_on_c,9,35,7,
2,2743,Note_off_c,9,36,0,
2,2743,Note_on_c,9,38,3,
2,2743,Note_off_c,9,39,0,
2,2744,Note_on_c,9,35,7,
2,2744,Note_off_c,9,36,0,
2,2744,Note_on_c,9,38,3,
2,2744,Note_off_c,9,39,0,
2,2745,Note_on_c,9,35,7,
2,2745,Note_off_c,9,36,0,
2,2745,Note_on_c,9,38,3,
2,2745,Note_off_c,9,39,0,
2,2746,Note_on_c,9,35,7,
2,2746,Note_off_c,9,36,0,
2,2746,Note_on_c,9,38,3,
2,2746,Note_off_c,9,39,0,
2,2747,Note_on_c,9,35,7,
2,2747,Note_off_c,9,36,0,
2,2747,Note_on_c,9,38,3,
2,2747,Note_off_c,9,39,0,
2,2748,Note_on_c,9,35,7,
2,2748,Note_off_c,9,36,0,
2,2748,Note_on_c,9,38,3,
2,2748,Note_off_c,9,39,0,
2,2749,Note_on_c,9,35,7,
2,2749,Note_off_c,9,36,0,
2,2749,Note_on_c,9,38,3,
2,2749,Note_off_c,9,39,0,
2,2750,Note_on_c,9,35,7,
2,2750,Note_off_c,9,36,0,
2,2750,Note_on_c,9,38,3,
2,2750,Note_off_c,9,39,0,
2,2751,Note_on_c,9,35,7,
2,2751,Note_off_c,9,36,0,
2,2751,Note_on_c,9,38,3,
2,2751,Note_off_c,9,39,0,
2,2752,Note_on_c,9,35,7,
2,2752,Note_off_c,9,36,0,
2,2752,Note_on_c,9,38,3,
2,2752,Note_off_c,9,39,0,
2,2753,Note_on_c,9,35,7,
2,2753,Note_off_c,9,36,0,
2,2753,Note_on_c,9,38,3,
2,2753,Note_off_c,9,39,0,
2,2754,Note_on_c,9,35,7,
2,2754,Note_off_c,9,36,0,
2,2754,Note_on_c,9,38,3,
2,2754,Note_off_c,9,39,0,
2,2755,Note_on_c,9,35,7,
2,2755,Note_off_c,9,36,0,
2,2755,Note_on_c,9,38,3,
2,2755,Note_off_c,9,39,0,
2,2756,Note_on_c,9,35,7,
2,2756,Note_off_c,9,36,0,
2,2756,Note_on_c,9,38,3,
2,2756,Note_off_c,9,39,0,
2,2757,Note_on_c,9,35,7,
2,2757,Note_off_c,9,36,0,
2,2757,Note_on_c,9,38,3,
2,2757,Note_off_c,9,39,0,
2,2758,Note_on_c,9,35,7,
2,2758,Note_off_c,9,36,0,
2,2758,Note_on_c,9,38,3,
2,2758,Note_off_c,9,39,0,
2,2759,Note_on_c,9,35,7,
2,2759,Note_off_c,9,36,0,
2,2759,Note_on_c,9,38,3,
2,2759,Note_off_c,9,39,0,
2,2760,Note_on_c,9,35,7,
2,2760,Note_off_c,9,36,0,
2,2760,Note_on_c,9,38,3,
2,2760,Note_off_c,9,39,0,
2,2761,Note_on_c,9,35,7,
2,2761,Note_off_c,9,36,0,
2,2761,Note_on_c,9,38,3,
2,2761,Note_off_c,9,39,0,
2,2762,Note_on_c,9,35,7,
2,2762,Note_off_c,9,36,0,
2,2762,Note_on_c,9,38,3,
2,2762,Note_off_c,9,39,0,
2,2763,Note_on_c,9,35,7,
2,2763,Note_off_c,9,36,0,
2,2763,Note_on_c,9,38,3,
2,2763,Note_off_c,9,39,0,
2,2764,Note_on_c,9,35,7,
2,2764,Note_off_c,9,36,0,
2,2764,Note_on_c,9,38,3,
2,2764,Note_off_c,9,39,0,
2,2765,Note_on_c,9,35,7,
2,2765,Note_off_c,9,36,0,
2,2765,Note_on_c,9,38,3,
2,2765,Note_off_c,9,39,0,
2,2766,Note_on_c,9,35,7,
2,2766,Note_off_c,9,36,0,
2,2766,Note_on_c,9,38,3,
2,2766,Note_off_c,9,39,0,
2,2767,Note_on_c,9,35,7,
2,2767,Note_off_c,9,36,0,
2,2767,Note_on_c,9,38,3,
2,2767,Note_off_c,9,39,0,
2,2768,Note_on_c,9,35,7,
2,2768,Note_off_c,9,36,0,
2,2768,Note_on_c,9,38,3,
2,2768,Note_off_c,9,39,0,
2,2769,Note_on_c,9,35,7,
2,2769,Note_off_c,9,36,0,
2,2769,Note_on_c,9,38,3,
2,2769,Note_off_c,9,39,0,
2,2770,Note_on_c,9,35,7,
2,2770,Note_off_c,9,36,0,
2,2770,Note_on_c,9,38,3,
2,2770,Note_off_c,9,39,0,
2,2771,Note_on_c,9,35,7,
2,2771,Note_off_c,9,36,0,
2,2771,Note_on_c,9,38,3,
2,2771,Note_off_c,9,39,0,
2,2772,Note_on_c,9,35,7,
2,2772,Note_off_c,9,36,0,
2,2772,Note_on_c,9,38,3,
2,2772,Note_off_c,9,39,0,
2,2773,Note_on_c,9,35,7,
2,2773,Note_off_c,9,36,0,
2,2773,Note_on_c,9,38,3,
2,2773,Note_off_c,9,39,0,
2,2774,Note_on_c,9,35,7,
2,2774,Note_off_c,9,36,0,
2,2774,Note_on_c,9,38,3,
2,2774,Note_off_c,9,39,0,
2,2775,Note_on_c,9,35,7,
2,2775,Note_off_c,9,36,0,
2,2775,Note_on_c,9,38,3,
2,2775,Note_off_c,9,39,0,
2,2776,Note_on_c,9,35,7,
2,2776,Note_off_c,9,36,0,
2,2776,Note_on_c,9,38,3,
2,2776,Note_off_c,9,39,0,
2,2777,Note_on_c,9,35,7,
2,2777,Note_off_c,9,36,0,
2,2777,Note_on_c,9,38,3,
2,2777,Note_off_c,9,39,0,
2,2778,Note_on_c,9,35,7,
2,2778,Note_off_c,9,36,0,
2,2778,Note_on_c,9,38,3,
2,2778,Note_off_c,9,39,0,
2,2779,Note_on_c,9,35,7,
2,2779,Note_off_c,9,36,0,
2,2779,Note_on_c,9,38,3,
2,2779,Note_off_c,9,39,0,
2,2780,Note_on_c,9,35,7,
2,2780,Note_off_c,9,36,0,
2,2780,Note_on_c,9,38,3,
2,2780,Note_off_c,9,39,0,
2,2781,Note_on_c,9,35,7,
2,2781,Note_off_c,9,36,0,
2,2781,Note_on_c,9,38,3,
2,2781,Note_off_c,9,39,0,
2,2782,Note_on_c,9,35,7,
2,2782,Note_off_c,9,36,0,
2,2782,Note_on_c,9,38,3,
2,2782,Note_off_c,9,39,0,
2,2783,Note_on_c,9,35,7,
2,2783,Note_off_c,9,36,0,
2,2783,Note_on_c,9,38,3,
2,2783,Note_off_c,9,39,0,
2,2784,Note_on_c,9,35,7,
2,2784,Note_off_c,9,36,0,
2,2784,Note_on_c,9,38,3,
2,2784,Note_off_c,9,39,0,
2,2785,Note_on_c,9,35,7,
2,2785,Note_off_c,9,36,0,
2,2785,Note_on_c,9,38,3,
2,2785,Note_off_c,9,39,0,
2,2786,Note_on_c,9,35,7,
2,2786,Note_off_c,9,36,0,
2,2786,Note_on_c,9,38,3,
2,2786,Note_off_c,9,39,0,
2,2787,Note_on_c,9,35,7,
2,2787,Note_off_c,9,36,0,
2,2787,Note_on_c,9,38,3,
2,2787,Note_off_c,9,39,0,
2,2788,Note_on_c,9,35,7,
2,2788,Note_off_c,9,36,0,
2,2788,Note_on_c,9,38,3,
2,2788,Note_off_c,9,39,0,
2,2789,Note_on_c,9,35,7,
2,2789,Note_off_c,9,36,0,
2,2789,Note_on_c,9,38,3,
2,2789,Note_off_c,9,39,0,
2,2790,Note_on_c,9,35,7,
2,2790,Note_off_c,9,36,0,
2,2790,Note_on_c,9,38,3,
2,2790,Note_off_c,9,39,0,
2,2791,Note_on_c,9,35,7,
2,2791,Note_off_c,9,36,0,
2,2791,Note_on_c,9,38,3,
2,2791,Note_off_c,9,39,0,
2,2792,Note_on_c,9,35,7,
2,2792,Note_off_c,9,36,0,
2,2792,Note_on_c,9,38,3,
2,2792,Note_off_c,9,39,0,
2,2793,Note_on_c,9,35,7,
2,2793,Note_off_c,9,36,0,
2,2793,Note_on_c,9,38,3,
2,2793,Note_off_c,9,39,0,
2,2794,Note_on_c,9,35,7,
2,2794,Note_off_c,9,36,0,
2,2794,Note_on_c,9,38,3,
2,2794,Note_off_c,9,39,0,
2,2795,Note_on_c,9,35,7,
2,2795,Note_off_c,9,36,0,
2,2795,Note_on_c,9,38,3,
2,2795,Note_off_c,9,39,0,
2,2796,Note_on_c,9,35,7,
2,2796,Note_off_c,9,36,0,
2,2796,Note_on_c,9,38,3,
2,2796,Note_off_c,9,39,0,
2,2797,Note_on_c,9,35,7,
2,2797,Note_off_c,9,36,0,
2,2797,Note_on_c,9,38,3,
2,2797,Note_off_c,9,39,0,
2,2798,Note_on_c,9,35,7,
2,2798,Note_off_c,9,36,0,
2,2798,Note_on_c,9,38,3,
2,2798,Note_off_c,9,39,0,
2,2799,Note_on_c,9,35,7,
2,2799,Note_off_c,9,36,0,
2,2799,Note_on_c,9,38,3,
2,2799,Note_off_c,9,39,0,
2,2800,Note_on_c,9,35,7,
2,2800,Note_off_c,9,36,0,
2,2800,Note_on_c,9,38,3,
2,2800,Note_off_c,9,39,0,
2,2801,Note_on_c,9,35,7,
2,2801,Note_off_c,9,36,0,
2,2801,Note_on_c,9,38,3,
2,2801,Note_off_c,9,39,0,
2,2802,Note_on_c,9,35,7,
2,2802,Note_off_c,9,36,0,
2,2802,Note_on_c,9,38,3,
2,2802,Note_off_c,9,39,0,
2,2803,Note_on_c,9,35,7,
2,2803,Note_off_c,9,36,0,
2,2803,Note_on_c,9,38,3,
2,2803,Note_off_c,9,39,0,
2,2804,Note_on_c,9,35,7,
2,2804,Note_off_c,9,36,0,
2,2804,Note_on_c,9,38,3,
2,2804,Note_off_c,9,39,0,
2,2805,Note_on_c,9,35,7,
2,2805,Note_off_c,9,36,0,
2,2805,Note_on_c,9,38,3,
2,2805,Note_off_c,9,39,0,
2,2806,Note_on_c,9,35,7,
2,2806,Note_off_c,9,36,0,
2,2806,Note_on_c,9,38,3,
2,2806,Note_off_c,9,39,0,
2,2807,Note_on_c,9,35,7,
2,2807,Note_off_c,9,36,0,
2,2807,Note_on_c,9,38,3,
2,2807,Note_off_c,9,39,0,
2,2808,Note_on_c,9,35,7,
2,2808,Note_off_c,9,36,0,
2,2808,Note_on_c,9,38,3,
2,2808,Note_off_c,9,39,0,
2,2809,Note_on_c,9,35,7,
2,2809,Note_off_c,9,36,0,
2,2809,Note_on_c,9,38,3,
2,2809,Note_off_c,9,39,0,
2,2810,Note_on_c,9,35,7,
2,2810,Note_off_c,9,36,0,
2,2810,Note_on_c,9,38,3,
2,2810,Note_off_c,9,39,0,
2,2811,Note_on_c,9,35,7,
2,2811,Note_off_c,9,36,0,
2,2811,Note_on_c,9,38,3,
2,2811,Note_off_c,9,39,0,
2,2812,Note_on_c,9,35,7,
2,2812,Note_off_c,9,36,0,
2,2812,Note_on_c,9,38,3,
2,2812,Note_off_c,9,39,0,
2,2813,Note_on_c,9,35,7,
2,2813,Note_off_c,9,36,0,
2,2813,Note_on_c,9,38,3,
2,2813,Note_off_c,9,39,0,
2,2814,Note_on_c,9,35,7,
2,2814,Note_off_c,9,36,0,
2,2814,Note_on_c,9,38,3,
2,2814,Note_off_c,9,39,0,
2,2815,Note_on_c,9,35,7,
2,2815,Note_off_c,9,36,0,
2,2815,Note_on_c,9,38,3,
2,2815,Note_off_c,9,39,0,
2,2816,Note_on_c,9,35,7,
2,2816,Note_off_c,9,36,0,
2,2816,Note_on_c,9,38,3,
2,2816,Note_off_c,9,39,0,
2,2817,Note_on_c,9,35,7,
2,2817,Note_off_c,9,36,0,
2,2817,Note_on_c,9,38,3,
2,2817,Note_off_c,9,39,0,
2,2818,Note_on_c,9,35,7,
2,2818,Note_off_c,9,36,0,
2,2818,Note_on_c,9,38,3,
2,2818,Note_off_c,9,39,0,
2,2819,Note_on_c,9,35,7,
2,2819,Note_off_c,9,36,0,
2,2819,Note_on_c,9,38,3,
2,2819,Note_off_c,9,39,0,
2,2820,Note_on_c,9,35,7,
2,2820,Note_off_c,9,36,0,
2,2820,Note_on_c,9,38,3,
2,2820,Note_off_c,9,39,0,
2,2821,Note_on_c,9,35,7,
2,2821,Note_off_c,9,36,0,
2,2821,Note_on_c,9,38,3,
2,2821,Note_off_c,9,39,0,
2,2822,Note_on_c,9,35,7,
2,2822,Note_off_c,9,36,0,
2,2822,Note_on_c,9,38,3,
2,2822,Note_off_c,9,39,0,
2,2823,Note_on_c,9,35,7,
2,2823,Note_off_c,9,36,0,
2,2823,Note_on_c,9,38,3,
2,2823,Note_off_c,9,39,0,
2,2824,Note_on_c,9,35,7,
2,2824,Note_off_c,9,36,0,
2,2824,Note_on_c,9,38,3,
2,2824,Note_off_c,9,39,0,
2,2825,Note_on_c,9,35,7,
2,2825,Note_off_c,9,36,0,
2,2825,Note_on_c,9,38,3,
2,2825,Note_off_c,9,39,0,
2,2826,Note_on_c,9,35,7,
2,2826,Note_off_c,9,36,0,
2,2826,Note_on_c,9,38,3,
2,2826,Note_off_c,9,39,0,
2,2827,Note_on_c,9,35,7,
2,2827,Note_off_c,9,36,0,
2,2827,Note_on_c,9,38,3,
2,2827,Note_off_c,9,39,0,
2,2828,Note_on_c,9,35,7,
2,2828,Note_off_c,9,36,0,
2,2828,Note_on_c,9,38,3,
2,2828,Note_off_c,9,39,0,
2,2829,Note_on_c,9,35,7,
2,2829,Note_off_c,9,36,0,
2,2829,Note_on_c,9,38,3,
2,2829,Note_off_c,9,39,0,
2,2830,Note_on_c,9,35,7,
2,2830,Note_off_c,9,36,0,
2,2830,Note_on_c,9,38,3,
2,2830,Note_off_c,9,39,0,
2,2831,Note_on_c,9,35,7,
2,2831,Note_off_c,9,36,0,
2,2831,Note_on_c,9,38,3,
2,2831,Note_off_c,9,39,0,
2,2832,Note_on_c,9,35,7,
2,2832,Note_off_c,9,36,0,
2,2832,Note_on_c,9,38,3,
2,2832,Note_off_c,9,39,0,
2,2833,Note_on_c,9,35,7,
2,2833,Note_off_c,9,36,0,
2,2833,Note_on_c,9,38,3,
2,2833,Note_off_c,9,39,0,
2,2834,Note_on_c,9,35,7,
2,2834,Note_off_c,9,36,0,
2,2834,Note_on_c,9,38,3,
2,2834,Note_off_c,9,39,0,
2,2835,Note_on_c,9,35,7,
2,2835,Note_off_c,9,36,0,
2,2835,Note_on_c,9,38,3,
2,2835,Note_off_c,9,39,0,
2,2836,Note_on_c,9,35,7,
2,2836,Note_off_c,9,36,0,
2,2836,Note_on_c,9,38,3,
2,2836,Note_off_c,9,39,0,
2,2837,Note_on_c,9,35,7,
2,2837,Note_off_c,9,36,0,
2,2837,Note_on_c,9,38,3,
2,2837,Note_off_c,9,39,0,
2,2838,Note_on_c,9,35,7,
2,2838,Note_off_c,9,36,0,
2,2838,Note_on_c,9,38,3,
2,2838,Note_off_c,9,39,0,
2,2839,Note_on_c,9,35,7,
2,2839,Note_off_c,9,36,0,
2,2839,Note_on_c,9,38,3,
2,2839,Note_off_c,9,39,0,
2,2840,Note_on_c,9,35,7,
2,2840,Note_off_c,9,36,0,
2,2840,Note_on_c,9,38,3,
2,2840,Note_off_c,9,39,0,
2,2841,Note_on_c,9,35,7,
2,2841,Note_off_c,9,36,0,
2,2841,Note_on_c,9,38,3,
2,2841,Note_off_c,9,39,0,
2,2842,Note_on_c,9,35,7,
2,2842,Note_off_c,9,36,0,
2,2842,Note_on_c,9,38,3,
2,2842,Note_off_c,9,39,0,
2,2843,Note_on_c,9,35,7,
2,2843,Note_off_c,9,36,0,
2,2843,Note_on_c,9,38,3,
2,2843,Note_off_c,9,39,0,
2,2844,Note_on_c,9,35,7,
2,2844,Note_off_c,9,36,0,
2,2844,Note_on_c,9,38,3,
2,2844,Note_off_c,9,39,0,
2,2845,Note_on_c,9,35,7,
2,2845,Note_off_c,9,36,0,
2,2845,Note_on_c,9,38,3,
2,2845,Note_off_c,9,39,0,
2,2846,Note_on_c,9,35,7,
2,2846,Note_off_c,9,36,0,
2,2846,Note_on_c,9,38,3,
2,2846,Note_off_c,9,39,0,
2,2847,Note_on_c,9,35,7,
2,2847,Note_off_c,9,36,0,
2,2847,Note_on_c,9,38,3,
2,2847,Note_off_c,9,39,0,
2,2848,Note_on_c,9,35,7,
2,2848,Note_off_c,9,36,0,
2,2848,Note_on_c,9,38,3,
2,2848,Note_off_c,9,39,0,
2,2849,Note_on_c,9,35,7,
2,2849,Note_off_c,9,36,0,
2,2849,Note_on_c,9,38,3,
2,2849,Note_off_c,9,39,0,
2,2850,Note_on_c,9,35,7,
2,2850,Note_off_c,9,36,0,
2,2850,Note_on_c,9,38,3,
2,2850,Note_off_c,9,39,0,
2,2851,Note_on_c,9,35,7,
2,2851,Note_off_c,9,36,0,
2,2851,Note_on_c,9,38,3,
2,2851,Note_off_c,9,39,0,
2,2852,Note_on_c,9,35,7,
2,2852,Note_off_c,9,36,0,
2,2852,Note_on_c,9,38,3,
2,2852,Note_off_c,9,39,0,
2,2853,Note_on_c,9,35,7,
2,2853,Note_off_c,9,36,0,
2,2853,Note_on_c,9,38,3,
2,2853,Note_off_c,9,39,0,
2,2854,Note_on_c,9,35,7,
2,2854,Note_off_c,9,36,0,
2,2854,Note_on_c,9,38,3,
2,2854,Note_off_c,9,39,0,
2,2855,Note_on_c,9,35,7,
2,2855,Note_off_c,9,36,0,
2,2855,Note_on_c,9,38,3,
2,2855,Note_off_c,9,39,0,
2,2856,Note_on_c,9,35,7,
2,2856,Note_off_c,9,36,0,
2,2856,Note_on_c,9,38,3,
2,2856,Note_off_c,9,39,0,
2,2857,Note_on_c,9,35,7,
2,2857,Note_off_c,9,36,0,
2,2857,Note_on_c,9,38,3,
2,2857,Note_off_c,9,39,0,
2,2858,Note_on_c,9,35,7,
2,2858,Note_off_c,9,36,0,
2,2858,Note_on_c,9,38,3,
2,2858,Note_off_c,9,39,0,
2,2859,Note_on_c,9,35,7,
2,2859,Note_off_c,9,36,0,
2,2859,Note_on_c,9,38,3,
2,2859,Note_off_c,9,39,0,
2,2860,Note_on_c,9,35,7,
2,2860,Note_off_c,9,36,0,
2,2860,Note_on_c,9,38,3,
2,2860,Note_off_c,9,39,0,
2,2861,Note_on_c,9,35,7,
2,2861,Note_off_c,9,36,0,
2,2861,Note_on_c,9,38,3,
2,2861,Note_off_c,9,39,0,
2,2862,Note_on_c,9,35,7,
2,2862,Note_off_c,9,36,0,
2,2862,Note_on_c,9,38,3,
2,2862,Note_off_c,9,39,0,
2,2863,Note_on_c,9,35,7,
2,2863,Note_off_c,9,36,0,
2,2863,Note_on_c,9,38,3,
2,2863,Note_off_c,9,39,0,
2,2864,Note_on_c,9,35,7,
2,2864,Note_off_c,9,36,0,
2,2864,Note_on_c,9,38,3,
2,2864,Note_off_c,9,39,0,
2,2865,Note_on_c,9,35,7,
2,2865,Note_off_c,9,36,0,
2,2865,Note_on_c,9,38,3,
2,2865,Note_off_c,9,39,0,
2,2866,Note_on_c,9,35,7,
2,2866,Note_off_c,9,36,0,
2,2866,Note_on_c,9,38,3,
2,2866,Note_off_c,9,39,0,
2,2867,Note_on_c,9,35,7,
2,2867,Note_off_c,9,36,0,
2,2867,Note_on_c,9,38,3,
2,2867,Note_off_c,9,39,0,
2,2868,Note_on_c,9,35,7,
2,2868,Note_off_c,9,36,0,
2,2868,Note_on_c,9,38,3,
2,2868,Note_off_c,9,39,0,
2,2869,Note_on_c,9,35,7,
2,2869,Note_off_c,9,36,0,
2,2869,Note_on_c,9,38,3,
2,2869,Note_off_c,9,39,0,
2,2870,Note_on_c,9,35,7,
2,2870,Note_off_c,9,36,0,
2,2870,Note_on_c,9,38,3,
2,2870,Note_off_c,9,39,0,
2,2871,Note_on_c,9,35,7,
2,2871,Note_off_c,9,36,0,
2,2871,Note_on_c,9,38,3,
2,2871,Note_off_c,9,39,0,
2,2872,Note_on_c,9,35,7,
2,2872,Note_off_c,9,36,0,
2,2872,Note_on_c,9,38,3,
2,2872,Note_off_c,9,39,0,
2,2873,Note_on_c,9,35,7,
2,2873,Note_off_c,9,36,0,
2,2873,Note_on_c,9,38,3,
2,2873,Note_off_c,9,39,0,
2,2874,Note_on_c,9,35,7,
2,2874,Note_off_c,9,36,0,
2,2874,Note_on_c,9,38,3,
2,2874,Note_off_c,9,39,0,
2,2875,Note_on_c,9,35,7,
2,2875,Note_off_c,9,36,0,
2,2875,Note_on_c,9,38,3,
2,2875,Note_off_c,9,39,0,
2,2876,Note_on_c,9,35,7,
2,2876,Note_off_c,9,36,0,
2,2876,Note_on_c,9,38,3,
2,2876,Note_off_c,9,39,0,
2,2877,Note_on_c,9,35,7,
2,2877,Note_off_c,9,36,0,
2,2877,Note_on_c,9,38,3,
2,2877,Note_off_c,9,39,0,
2,2878,Note_on_c,9,35,7,
2,2878,Note_off_c,9,36,0,
2,2878,Note_on_c,9,38,3,
2,2878,Note_off_c,9,39,0,
2,2879,Note_on_c,9,35,7,
2,2879,Note_off_c,9,36,0,
2,2879,Note_on_c,9,38,3,
2,2879,Note_off_c,9,39,0,
2,2880,Note_on_c,9,35,7,
2,2880,Note_off_c,9,36,0,
2,2880,Note_on_c,9,38,3,
2,2880,Note_off_c,9,39,0,
2,2881,Note_on_c,9,35,7,
2,2881,Note_off_c,9,36,0,
2,2881,Note_on_c,9,38,3,
2,2881,Note_off_c,9,39,0,
2,2882,Note_on_c,9,35,7,
2,2882,Note_off_c,9,36,0,
2,2882,Note_on_c,9,38,3,
2,2882,Note_off_c,9,39,0,
2,2883,Note_on_c,9,35,7,
2,2883,Note_off_c,9,36,0,
2,2883,Note_on_c,9,38,3,
2,2883,Note_off_c,9,39,0,
2,2884,Note_on_c,9,35,7,
2,2884,Note_off_c,9,36,0,
2,2884,Note_on_c,9,38,3,
2,2884,Note_off_c,9,39,0,
2,2885,Note_on_c,9,35,7,
2,2885,Note_off_c,9,36,0,
2,2885,Note_on_c,9,38,3,
2,2885,Note_off_c,9,39,0,
2,2886,Note_on_c,9,35,7,
2,2886,Note_off_c,9,36,0,
2,2886,Note_on_c,9,38,3,
2,2886,Note_off_c,9,39,0,
2,2887,Note_on_c,9,35,7,
2,2887,Note_off_c,9,36,0,
2,2887,Note_on_c,9,38,3,
2,2887,Note_off_c,9,39,0,
2,2888,Note_on_c,9,35,7,
2,2888,Note_off_c,9,36,0,
2,2888,Note_on_c,9,38,3,
2,2888,Note_off_c,9,39,0,
2,2889,Note_on_c,9,35,7,
2,2889,Note_off_c,9,36,0,
2,2889,Note_on_c,9,38,3,
2,2889,Note_off_c,9,39,0,
2,2890,Note_on_c,9,35,7,
2,2890,Note_off_c,9,36,0,
2,2890,Note_on_c,9,38,3,
2,2890,Note_off_c,9,39,0,
2,2891,Note_on_c,9,35,7,
2,2891,Note_off_c,9,36,0,
2,2891,Note_on_c,9,38,3,
2,2891,Note_off_c,9,39,0,
2,2892,Note_on_c,9,35,7,
2,2892,Note_off_c,9,36,0,
2,2892,Note_on_c,9,38,3,
2,2892,Note_off_c,9,39,0,
2,2893,Note_on_c,9,35,7,
2,2893,Note_off_c,9,36,0,
2,2893,Note_on_c,9,38,3,
2,2893,Note_off_c,9,39,0,
2,2894,Note_on_c,9,35,7,
2,2894,Note_off_c,9,36,0,
2,2894,Note_on_c,9,38,3,
2,2894,Note_off_c,9,39,0,
2,2895,Note_on_c,9,35,7,
2,2895,Note_off_c,9,36,0,
2,2895,Note_on_c,9,38,3,
2,2895,Note_off_c,9,39,0,
2,2896,Note_on_c,9,35,7,
2,2896,Note_off_c,9,36,0,
2,2896,Note_on_c,9,38,3,
2,2896,Note_off_c,9,39,0,
2,2897,Note_on_c,9,35,7,
2,2897,Note_off_c,9,36,0,
2,2897,Note_on_c,9,38,3,
2,2897,Note_off_c,9,39,0,
2,2898,Note_on_c,9,35,7,
2,2898,Note_off_c,9,36,0,
2,2898,Note_on_c,9,38,3,
2,2898,Note_off_c,9,39,0,
2,2899,Note_on_c,9,35,7,
2,2899,Note_off_c,9,36,0,
2,2899,Note_on_c,9,38,3,
2,2899,Note_off_c,9,39,0,
2,2900,Note_on_c,9,35,7,
2,2900,Note_off_c,9,36,0,
2,2900,Note_on_c,9,38,3,
2,2900,Note_off_c,9,39,0,
2,2901,Note_on_c,9,35,7,
2,2901,Note_off_c,9,36,0,
2,2901,Note_on_c,9,38,3,
2,2901,Note_off_c,9,39,0,
2,2902,Note_on_c,9,35,7,
2,2902,Note_off_c,9,36,0,
2,2902,Note_on_c,9,38,3,
2,2902,Note_off_c,9,39,0,
2,2903,Note_on_c,9,35,7,
2,2903,Note_off_c,9,36,0,
2,2903,Note_on_c,9,38,3,
2,2903,Note_off_c,9,39,0,
2,2904,Note_on_c,9,35,7,
2,2904,Note_off_c,9,36,0,
2,2904,Note_on_c,9,38,3,
2,2904,Note_off_c,9,39,0,
2,2905,Note_on_c,9,35,7,
2,2905,Note_off_c,9,36,0,
2,2905,Note_on_c,9,38,3,
2,2905,Note_off_c,9,39,0,
2,2906,Note_on_c,9,35,7,
2,2906,Note_off_c,9,36,0,
2,2906,Note_on_c,9,38,3,
2,2906,Note_off_c,9,39,0,
2,2907,Note_on_c,9,35,7,
2,2907,Note_off_c,9,36,0,
2,2907,Note_on_c,9,38,3,
2,2907,Note_off_c,9,39,0,
2,2908,Note_on_c,9,35,7,
2,2908,Note_off_c,9,36,0,
2,2908,Note_on_c,9,38,3,
2,2908,Note_off_c,9,39,0,
2,2909,Note_on_c,9,35,7,
2,2909,Note_off_c,9,36,0,
2,2909,Note_on_c,9,38,3,
2,2909,Note_off_c,9,39,0,
2,2910,Note_on_c,9,35,7,
2,2910,Note_off_c,9,36,0,
2,2910,Note_on_c,9,38,3,
2,2910,Note_off_c,9,39,0,
2,2911,Note_on_c,9,35,7,
2,2911,Note_off_c,9,36,0,
2,2911,Note_on_c,9,38,3,
2,2911,Note_off_c,9,39,0,
2,2912,Note_on_c,9,35,7,
2,2912,Note_off_c,9,36,0,
2,2912,Note_on_c,9,38,3,
2,2912,Note_off_c,9,39,0,
2,2913,Note_on_c,9,35,7,
2,2913,Note_off_c,9,36,0,
2,2913,Note_on_c,9,38,3,
2,2913,Note_off_c,9,39,0,
2,2914,Note_on_c,9,35,7,
2,2914,Note_off_c,9,36,0,
2,2914,Note_on_c,9,38,3,
2,2914,Note_off_c,9,39,0,
2,2915,Note_on_c,9,35,7,
2,2915,Note_off_c,9,36,0,
2,2915,Note_on_c,9,38,3,
2,2915,Note_off_c,9,39,0,
2,2916,Note_on_c,9,35,7,
2,2916,Note_off_c,9,36,0,
2,2916,Note_on_c,9,38,3,
2,2916,Note_off_c,9,39,0,
2,2917,Note_on_c,9,35,7,
2,2917,Note_off_c,9,36,0,
2,2917,Note_on_c,9,38,3,
2,2917,Note_off_c,9,39,0,
2,2918,Note_on_c,9,35,7,
2,2918,Note_off_c,9,36,0,
2,2918,Note_on_c,9,38,3,
2,2918,Note_off_c,9,39,0,
2,2919,Note_on_c,9,35,7,
2,2919,Note_off_c,9,36,0,
2,2919,Note_on_c,9,38,3,
2,2919,Note_off_c,9,39,0,
2,2920,Note_on_c,9,35,7,
2,2920,Note_off_c,9,36,0,
2,2920,Note_on_c,9,38,3,
2,2920,Note_off_c,9,39,0,
2,2921,Note_on_c,9,35,7,
2,2921,Note_off_c,9,36,0,
2,2921,Note_on_c,9,38,3,
2,2921,Note_off_c,9,39,0,
2,2922,Note_on_c,9,35,7,
2,2922,Note_off_c,9,36,0,
2,2922,Note_on_c,9,38,3,
2,2922,Note_off_c,9,39,0,
2,2923,Note_on_c,9,35,7,
2,2923,Note_off_c,9,36,0,
2,2923,Note_on_c,9,38,3,
2,2923,Note_off_c,9,39,0,
2,2924,Note_on_c,9,35,7,
2,2924,Note_off_c,9,36,0,
2,2924,Note_on_c,9,38,3,
2,2924,Note_off_c,9,39,0,
2,2925,Note_on_c,9,35,7,
2,2925,Note_off_c,9,36,0,
2,2925,Note_on_c,9,38,3,
2,2925,Note_off_c,9,39,0,
2,2926,Note_on_c,9,35,7,
2,2926,Note_off_c,9,36,0,
2,2926,Note_on_c,9,38,3,
2,2926,Note_off_c,9,39,0,
2,2927,Note_on_c,9,35,7,
2,2927,Note_off_c,9,36,0,
2,2927,Note_on_c,9,38,3,
2,2927,Note_off_c,9,39,0,
2,2928,Note_on_c,9,35,7,
2,2928,Note_off_c,9,36,0,
2,2928,Note_on_c,9,38,3,
2,2928,Note_off_c,9,39,0,
2,2929,Note_on_c,9,35,7,
2,2929,Note_off_c,9,36,0,
2,2929,Note_on_c,9,38,3,
2,2929,Note_off_c,9,39,0,
2,2930,Note_on_c,9,35,7,
2,2930,Note_off_c,9,36,0,
2,2930,Note_on_c,9,38,3,
2,2930,Note_off_c,9,39,0,
2,2931,Note_on_c,9,35,7,
2,2931,Note_off_c,9,36,0,
2,2931,Note_on_c,9,38,3,
2,2931,Note_off_c,9,39,0,
2,2932,Note_on_c,9,35,7,
2,2932,Note_off_c,9,36,0,
2,2932,Note_on_c,9,38,3,
2,2932,Note_off_c,9,39,0,
2,2933,Note_on_c,9,35,7,
2,2933,Note_off_c,9,36,0,
2,2933,Note_on_c,9,38,3,
2,2933,Note_off_c,9,39,0,
2,2934,Note_on_c,9,35,7,
2,2934,Note_off_c,9,36,0,
2,2934,Note_on_c,9,38,3,
2,2934,Note_off_c,9,39,0,
2,2935,Note_on_c,9,35,7,
2,2935,Note_off_c,9,36,0,
2,2935,Note_on_c,9,38,3,
2,2935,Note_off_c,9,39,0,
2,2936,Note_on_c,9,35,7,
2,2936,Note_off_c,9,36,0,
2,2936,Note_on_c,9,38,3,
2,2936,Note_off_c,9,39,0,
2,2937,Note_on_c,9,35,7,
2,2937,Note_off_c,9,36,0,
2,2937,Note_on_c,9,38,3,
2,2937,Note_off_c,9,39,0,
2,2938,Note_on_c,9,35,7,
2,2938,Note_off_c,9,36,0,
2,2938,Note_on_c,9,38,3,
2,2938,Note_off_c,9,39,0,
2,2939,Note_on_c,9,35,7,
2,2939,Note_off_c,9,36,0,
2,2939,Note_on_c,9,38,3,
2,2939,Note_off_c,9,39,0,
2,2940,Note_on_c,9,35,7,
2,2940,Note_off_c,9,36,0,
2,2940,Note_on_c,9,38,3,
2,2940,Note_off_c,9,39,0,
2,2941,Note_on_c,9,35,7,
2,2941,Note_off_c,9,36,0,
2,2941,Note_on_c,9,38,3,
2,2941,Note_off_c,9,39,0,
2,2942,Note_on_c,9,35,7,
2,2942,Note_off_c,9,36,0,
2,2942,Note_on_c,9,38,3,
2,2942,Note_off_c,9,39,0,
2,2943,Note_on_c,9,35,7,
2,2943,Note_off_c,9,36,0,
2,2943,Note_on_c,9,38,3,
2,2943,Note_off_c,9,39,0,
2,2944,Note_on_c,9,35,7,
2,2944,Note_off_c,9,36,0,
2,2944,Note_on_c,9,38,3,
2,2944,Note_off_c,9,39,0,
2,2945,Note_on_c,9,35,7,
2,2945,Note_off_c,9,36,0,
2,2945,Note_on_c,9,38,3,
2,2945,Note_off_c,9,39,0,
2,2946,Note_on_c,9,35,7,
2,2946,Note_off_c,9,36,0,
2,2946,Note_on_c,9,38,3,
2,2946,Note_off_c,9,39,0,
2,2947,Note_on_c,9,35,7,
2,2947,Note_off_c,9,36,0,
2,2947,Note_on_c,9,38,3,
2,2947,Note_off_c,9,39,0,
2,2948,Note_on_c,9,35,7,
2,2948,Note_off_c,9,36,0,
2,2948,Note_on_c,9,38,3,
2,2948,Note_off_c,9,39,0,
2,2949,Note_on_c,9,35,7,
2,2949,Note_off_c,9,36,0,
2,2949,Note_on_c,9,38,3,
2,2949,Note_off_c,9,39,0,
2,2950,Note_on_c,9,35,7,
2,2950,Note_off_c,9,36,0,
2,2950,Note_on_c,9,38,3,
2,2950,Note_off_c,9,39,0,
2,2951,Note_on_c,9,35,7,
2,2951,Note_off_c,9,36,0,
2,2951,Note_on_c,9,38,3,
2,2951,Note_off_c,9,39,0,
2,2952,Note_on_c,9,35,7,
2,2952,Note_off_c,9,36,0,
2,2952,Note_on_c,9,38,3,
2,2952,Note_off_c,9,39,0,
2,2953,Note_on_c,9,35,7,
2,2953,Note_off_c,9,36,0,
2,2953,Note_on_c,9,38,3,
2,2953,Note_off_c,9,39,0,
2,2954,Note_on_c,9,35,7,
2,2954,Note_off_c,9,36,0,
2,2954,Note_on_c,9,38,3,
2,2954,Note_off_c,9,39,0,
2,2955,Note_on_c,9,35,7,
2,2955,Note_off_c,9,36,0,
2,2955,Note_on_c,9,38,3,
2,2955,Note_off_c,9,39,0,
2,2956,Note_on_c,9,35,7,
2,2956,Note_off_c,9,36,0,
2,2956,Note_on_c,9,38,3,
2,2956,Note_off_c,9,39,0,
2,2957,Note_on_c,9,35,7,
2,2957,Note_off_c,9,36,0,
2,2957,Note_on_c,9,38,3,
2,2957,Note_off_c,9,39,0,
2,2958,Note_on_c,9,35,7,
2,2958,Note_off_c,9,36,0,
2,2958,Note_on_c,9,38,3,
2,2958,Note_off_c,9,39,0,
2,2959,Note_on_c,9,35,7,
2,2959,Note_off_c,9,36,0,
2,2959,Note_on_c,9,38,3,
2,2959,Note_off_c,9,39,0,
2,2960,Note_on_c,9,35,7,
2,2960,Note_off_c,9,36,0,
2,2960,Note_on_c,9,38,3,
2,2960,Note_off_c,9,39,0,
2,2961,Note_on_c,9,35,7,
2,2961,Note_off_c,9,36,0,
2,2961,Note_on_c,9,38,3,
2,2961,Note_off_c,9,39,0,
2,2962,Note_on_c,9,35,7,
2,2962,Note_off_c,9,36,0,
2,2962,Note_on_c,9,38,3,
2,2962,Note_off_c,9,39,0,
2,2963,Note_on_c,9,35,7,
2,2963,Note_off_c,9,36,0,
2,2963,Note_on_c,9,38,3,
2,2963,Note_off_c,9,39,0,
2,2964,Note_on_c,9,35,7,
2,2964,Note_off_c,9,36,0,
2,2964,Note_on_c,9,38,3,
2,2964,Note_off_c,9,39,0,
2,2965,Note_on_c,9,35,7,
2,2965,Note_off_c,9,36,0,
2,2965,Note_on_c,9,38,3,
2,2965,Note_off_c,9,39,0,
2,2966,Note_on_c,9,35,7,
2,2966,Note_off_c,9,36,0,
2,2966,Note_on_c,9,38,3,
2,2966,Note_off_c,9,39,0,
2,2967,Note_on_c,9,35,7,
2,2967,Note_off_c,9,36,0,
2,2967,Note_on_c,9,38,3,
2,2967,Note_off_c,9,39,0,
2,2968,Note_on_c,9,35,7,
2,2968,Note_off_c,9,36,0,
2,2968,Note_on_c,9,38,3,
2,2968,Note_off_c,9,39,0,
2,2969,Note_on_c,9,35,7,
2,2969,Note_off_c,9,36,0,
2,2969,Note_on_c,9,38,3,
2,2969,Note_off_c,9,39,0,
2,2970,Note_on_c,9,35,7,
2,2970,Note_off_c,9,36,0,
2,2970,Note_on_c,9,38,3,
2,2970,Note_off_c,9,39,0,
2,2971,Note_on_c,9,35,7,
2,2971,Note_off_c,9,36,0,
2,2971,Note_on_c,9,38,3,
2,2971,Note_off_c,9,39,0,
2,2972,Note_on_c,9,35,7,
2,2972,Note_off_c,9,36,0,
2,2972,Note_on_c,9,38,3,
2,2972,Note_off_c,9,39,0,
2,2973,Note_on_c,9,35,7,
2,2973,Note_off_c,9,36,0,
2,2973,Note_on_c,9,38,3,
2,2973,Note_off_c,9,39,0,
2,2974,Note_on_c,9,35,7,
2,2974,Note_off_c,9,36,0,
2,2974,Note_on_c,9,38,3,
2,2974,Note_off_c,9,39,0,
2,2975,Note_on_c,9,35,7,
2,2975,Note_off_c,9,36,0,
2,2975,Note_on_c,9,38,3,
2,2975,Note_off_c,9,39,0,
2,2976,Note_on_c,9,35,7,
2,2976,Note_off_c,9,36,0,
2,2976,Note_on_c,9,38,3,
2,2976,Note_off_c,9,39,0,
2,2977,Note_on_c,9,35,7,
2,2977,Note_off_c,9,36,0,
2,2977,Note_on_c,9,38,3,
2,2977,Note_off_c,9,39,0,
2,2978,Note_on_c,9,35,7,
2,2978,Note_off_c,9,36,0,
2,2978,Note_on_c,9,38,3,
2,2978,Note_off_c,9,39,0,
2,2979,Note_on_c,9,35,7,
2,2979,Note_off_c,9,36,0,
2,2979,Note_on_c,9,38,3,
2,2979,Note_off_c,9,39,0,
2,2980,Note_on_c,9,35,7,
2,2980,Note_off_c,9,36,0,
2,2980,Note_on_c,9,38,3,
2,2980,Note_off_c,9,39,0,
2,2981,Note_on_c,9,35,7,
2,2981,Note_off_c,9,36,0,
2,2981,Note_on_c,9,38,3,
2,2981,Note_off_c,9,39,0,
2,2982,Note_on_c,9,35,7,
2,2982,Note_off_c,9,36,0,
2,2982,Note_on_c,9,38,3,
2,2982,Note_off_c,9,39,0,
2,2983,Note_on_c,9,35,7,
2,2983,Note_off_c,9,36,0,
2,2983,Note_on_c,9,38,3,
2,2983,Note_off_c,9,39,0,
2,2984,Note_on_c,9,35,7,
2,2984,Note_off_c,9,36,0,
2,2984,Note_on_c,9,38,3,
2,2984,Note_off_c,9,39,0,
2,2985,Note_on_c,9,35,7,
2,2985,Note_off_c,9,36,0,
2,2985,Note_on_c,9,38,3,
2,2985,Note_off_c,9,39,0,
2,2986,Note_on_c,9,35,7,
2,2986,Note_off_c,9,36,0,
2,2986,Note_on_c,9,38,3,
2,2986,Note_off_c,9,39,0,
2,2987,Note_on_c,9,35,7,
2,2987,Note_off_c,9,36,0,
2,2987,Note_on_c,9,38,3,
2,2987,Note_off_c,9,39,0,
2,2988,Note_on_c,9,35,7,
2,2988,Note_off_c,9,36,0,
2,2988,Note_on_c,9,38,3,
2,2988,Note_off_c,9,39,0,
2,2989,Note_on_c,9,35,7,
2,2989,Note_off_c,9,36,0,
2,2989,Note_on_c,9,38,3,
2,2989,Note_off_c,9,39,0,
2,2990,Note_on_c,9,35,7,
2,2990,Note_off_c,9,36,0,
2,2990,Note_on_c,9,38,3,
2,2990,Note_off_c,9,39,0,
2,2991,Note_on_c,9,35,7,
2,2991,Note_off_c,9,36,0,
2,2991,Note_on_c,9,38,3,
2,2991,Note_off_c,9,39,0,
2,2992,Note_on_c,9,35,7,
2,2992,Note_off_c,9,36,0,
2,2992,Note_on_c,9,38,3,
2,2992,Note_off_c,9,39,0,
2,2993,Note_on_c,9,35,7,
2,2993,Note_off_c,9,36,0,
2,2993,Note_on_c,9,38,3,
2,2993,Note_off_c,9,39,0,
2,2994,Note_on_c,9,35,7,
2,2994,Note_off_c,9,36,0,
2,2994,Note_on_c,9,38,3,
2,2994,Note_off_c,9,39,0,
2,2995,Note_on_c,9,35,7,
2,2995,Note_off_c,9,36,0,
2,2995,Note_on_c,9,38,3,
2,2995,Note_off_c,9,39,0,
2,2996,Note_on_c,9,35,7,
2,2996,Note_off_c,9,36,0,
2,2996,Note_on_c,9,38,3,
2,2996,Note_off_c,9,39,0,
2,2997,Note_on_c,9,35,7,
2,2997,Note_off_c,9,36,0,
2,2997,Note_on_c,9,38,3,
2,2997,Note_off_c,9,39,0,
2,2998,Note_on_c,9,35,7,
2,2998,Note_off_c,9,36,0,
2,2998,Note_on_c,9,38,3,
2,2998,Note_off_c,9,39,0,
2,2999,Note_on_c,9,35,7,
2,2999,Note_off_c,9,36,0,
2,2999,Note_on_c,9,38,3,
2,2999,Note_off_c,9,39,0,
2,3009,End_track,,,,
0,0,End_of_file,,,,
