0, 0, Header, 1, 30, 384
1, 0, Start_track
1, 0, Time_signature, 4, 2, 96, 8
1, 0, Sequencer_specific, 3, 0, 0, 65
1, 0, Tempo, 638297
1, 0, End_track
2, 0, Start_track
2, 0, Title_t, "AFRICA  #"
2, 0, Control_c, 0, 0, 0
2, 0, Program_c, 0, 63
2, 0, Control_c, 0, 10, 60
2, 0, Control_c, 0, 91, 120
2, 0, Control_c, 0, 93, 4
2, 0, Key_signature, 0, "major"
2, 0, Control_c, 0, 7, 80
2, 7676, Note_on_c, 0, 61, 96
2, 7676, Note_on_c, 0, 57, 96
2, 7680, Note_on_c, 0, 52, 92
2, 7916, Note_off_c, 0, 61, 0
2, 7924, Note_off_c, 0, 52, 0
2, 7932, Note_off_c, 0, 57, 0
2, 7964, Note_on_c, 0, 61, 100
2, 7964, Note_on_c, 0, 52, 88
2, 7964, Note_on_c, 0, 57, 76
2, 8024, Note_off_c, 0, 52, 0
2, 8028, Note_off_c, 0, 61, 0
2, 8028, Note_off_c, 0, 57, 0
2, 8156, Note_on_c, 0, 61, 92
2, 8156, Note_on_c, 0, 52, 88
2, 8156, Note_on_c, 0, 57, 104
2, 8204, Note_off_c, 0, 61, 0
2, 8204, Note_off_c, 0, 52, 0
2, 8204, Note_off_c, 0, 57, 0
2, 8344, Note_on_c, 0, 52, 88
2, 8344, Note_on_c, 0, 61, 84
2, 8344, Note_on_c, 0, 57, 96
2, 8372, Note_off_c, 0, 52, 0
2, 8376, Note_off_c, 0, 61, 0
2, 8384, Note_off_c, 0, 57, 0
2, 8444, Note_on_c, 0, 52, 80
2, 8444, Note_on_c, 0, 57, 20
2, 8444, Note_on_c, 0, 61, 100
2, 8504, Note_off_c, 0, 52, 0
2, 8528, Note_off_c, 0, 57, 0
2, 8536, Note_off_c, 0, 61, 0
2, 8628, Note_on_c, 0, 56, 92
2, 8632, Note_on_c, 0, 59, 84
2, 8632, Note_on_c, 0, 51, 104
2, 8684, Note_off_c, 0, 51, 0
2, 8692, Note_off_c, 0, 56, 0
2, 8700, Note_off_c, 0, 59, 0
2, 8820, Note_on_c, 0, 56, 100
2, 8832, Note_on_c, 0, 64, 96
2, 8832, Note_on_c, 0, 61, 100
2, 10700, Note_off_c, 0, 64, 0
2, 10704, Note_off_c, 0, 61, 0
2, 10712, Note_off_c, 0, 56, 0
2, 10740, Note_on_c, 0, 61, 96
2, 10740, Note_on_c, 0, 57, 96
2, 10740, Note_on_c, 0, 52, 92
2, 10988, Note_off_c, 0, 52, 0
2, 10988, Note_off_c, 0, 61, 0
2, 11000, Note_off_c, 0, 57, 0
2, 11032, Note_on_c, 0, 61, 100
2, 11036, Note_on_c, 0, 52, 88
2, 11036, Note_on_c, 0, 57, 76
2, 11092, Note_off_c, 0, 52, 0
2, 11100, Note_off_c, 0, 61, 0
2, 11100, Note_off_c, 0, 57, 0
2, 11220, Note_on_c, 0, 61, 92
2, 11220, Note_on_c, 0, 52, 88
2, 11220, Note_on_c, 0, 57, 104
2, 11276, Note_off_c, 0, 52, 0
2, 11280, Note_off_c, 0, 61, 0
2, 11280, Note_off_c, 0, 57, 0
2, 11416, Note_on_c, 0, 57, 96
2, 11420, Note_on_c, 0, 52, 88
2, 11420, Note_on_c, 0, 61, 84
2, 11444, Note_off_c, 0, 52, 0
2, 11444, Note_off_c, 0, 61, 0
2, 11452, Note_off_c, 0, 57, 0
2, 11512, Note_on_c, 0, 52, 80
2, 11516, Note_on_c, 0, 57, 20
2, 11520, Note_on_c, 0, 61, 100
2, 11572, Note_off_c, 0, 52, 0
2, 11604, Note_off_c, 0, 57, 0
2, 11608, Note_off_c, 0, 61, 0
2, 11700, Note_on_c, 0, 51, 104
2, 11704, Note_on_c, 0, 56, 92
2, 11704, Note_on_c, 0, 59, 84
2, 11756, Note_off_c, 0, 51, 0
2, 11760, Note_off_c, 0, 56, 0
2, 11768, Note_off_c, 0, 59, 0
2, 11900, Note_on_c, 0, 64, 96
2, 11900, Note_on_c, 0, 61, 100
2, 11900, Note_on_c, 0, 56, 100
2, 13772, Note_off_c, 0, 64, 0
2, 13776, Note_off_c, 0, 56, 0
2, 13776, Note_off_c, 0, 61, 0
2, 13812, Note_on_c, 0, 52, 92
2, 13820, Note_on_c, 0, 61, 96
2, 13824, Note_on_c, 0, 57, 96
2, 14056, Note_off_c, 0, 61, 0
2, 14060, Note_off_c, 0, 52, 0
2, 14072, Note_off_c, 0, 57, 0
2, 14104, Note_on_c, 0, 61, 100
2, 14108, Note_on_c, 0, 52, 88
2, 14108, Note_on_c, 0, 57, 76
2, 14164, Note_off_c, 0, 52, 0
2, 14168, Note_off_c, 0, 61, 0
2, 14180, Note_off_c, 0, 57, 0
2, 14296, Note_on_c, 0, 61, 92
2, 14300, Note_on_c, 0, 52, 88
2, 14300, Note_on_c, 0, 57, 104
2, 14348, Note_off_c, 0, 52, 0
2, 14352, Note_off_c, 0, 61, 0
2, 14352, Note_off_c, 0, 57, 0
2, 14484, Note_on_c, 0, 52, 88
2, 14488, Note_on_c, 0, 61, 84
2, 14488, Note_on_c, 0, 57, 96
2, 14516, Note_off_c, 0, 52, 0
2, 14520, Note_off_c, 0, 61, 0
2, 14532, Note_off_c, 0, 57, 0
2, 14584, Note_on_c, 0, 52, 80
2, 14588, Note_on_c, 0, 61, 100
2, 14592, Note_on_c, 0, 57, 20
2, 14648, Note_off_c, 0, 52, 0
2, 14676, Note_off_c, 0, 57, 0
2, 14680, Note_off_c, 0, 61, 0
2, 14772, Note_on_c, 0, 51, 104
2, 14776, Note_on_c, 0, 56, 92
2, 14776, Note_on_c, 0, 59, 84
2, 14828, Note_off_c, 0, 51, 0
2, 14832, Note_off_c, 0, 56, 0
2, 14836, Note_off_c, 0, 59, 0
2, 14972, Note_on_c, 0, 56, 100
2, 14972, Note_on_c, 0, 61, 100
2, 14972, Note_on_c, 0, 64, 96
2, 16852, Note_off_c, 0, 56, 0
2, 16852, Note_off_c, 0, 61, 0
2, 16852, Note_off_c, 0, 64, 0
2, 16892, Note_on_c, 0, 61, 96
2, 16892, Note_on_c, 0, 57, 96
2, 16892, Note_on_c, 0, 52, 92
2, 17124, Note_off_c, 0, 61, 0
2, 17132, Note_off_c, 0, 52, 0
2, 17140, Note_off_c, 0, 57, 0
2, 17176, Note_on_c, 0, 61, 100
2, 17176, Note_on_c, 0, 52, 88
2, 17176, Note_on_c, 0, 57, 76
2, 17236, Note_off_c, 0, 52, 0
2, 17240, Note_off_c, 0, 61, 0
2, 17244, Note_off_c, 0, 57, 0
2, 17368, Note_on_c, 0, 57, 104
2, 17372, Note_on_c, 0, 61, 92
2, 17372, Note_on_c, 0, 52, 88
2, 17420, Note_off_c, 0, 52, 0
2, 17424, Note_off_c, 0, 57, 0
2, 17424, Note_off_c, 0, 61, 0
2, 17560, Note_on_c, 0, 52, 88
2, 17560, Note_on_c, 0, 61, 84
2, 17564, Note_on_c, 0, 57, 96
2, 17588, Note_off_c, 0, 52, 0
2, 17592, Note_off_c, 0, 61, 0
2, 17596, Note_off_c, 0, 57, 0
2, 17656, Note_on_c, 0, 61, 100
2, 17656, Note_on_c, 0, 52, 80
2, 17664, Note_on_c, 0, 57, 20
2, 17720, Note_off_c, 0, 52, 0
2, 17748, Note_off_c, 0, 57, 0
2, 17752, Note_off_c, 0, 61, 0
2, 17844, Note_on_c, 0, 56, 92
2, 17844, Note_on_c, 0, 59, 84
2, 17844, Note_on_c, 0, 51, 104
2, 17888, Note_off_c, 0, 51, 0
2, 17900, Note_off_c, 0, 56, 0
2, 17900, Note_off_c, 0, 59, 0
2, 18044, Note_on_c, 0, 64, 96
2, 18044, Note_on_c, 0, 61, 100
2, 18048, Note_on_c, 0, 56, 100
2, 19916, Note_off_c, 0, 61, 0
2, 19916, Note_off_c, 0, 64, 0
2, 19920, Note_off_c, 0, 56, 0
2, 19960, Note_on_c, 0, 54, 80
2, 19964, Note_on_c, 0, 63, 96
2, 19964, Note_on_c, 0, 59, 92
2, 20728, Note_on_c, 0, 61, 84
2, 20732, Note_off_c, 0, 59, 0
2, 20732, Note_off_c, 0, 63, 0
2, 20732, Note_on_c, 0, 58, 92
2, 21416, Note_off_c, 0, 54, 0
2, 21492, Note_off_c, 0, 61, 0
2, 21496, Note_on_c, 0, 56, 92
2, 21496, Note_on_c, 0, 59, 84
2, 21500, Note_on_c, 0, 63, 76
2, 21532, Note_off_c, 0, 58, 0
2, 22956, Note_off_c, 0, 56, 0
2, 22972, Note_off_c, 0, 63, 0
2, 23032, Note_on_c, 0, 61, 84
2, 23032, Note_on_c, 0, 52, 84
2, 23032, Note_on_c, 0, 57, 84
2, 23040, Note_off_c, 0, 59, 0
2, 23708, Note_off_c, 0, 61, 0
2, 23788, Note_off_c, 0, 57, 0
2, 23800, Note_on_c, 0, 56, 80
2, 23804, Note_on_c, 0, 59, 88
2, 24428, Note_off_c, 0, 52, 0
2, 24568, Note_off_c, 0, 56, 0
2, 24572, Note_on_c, 0, 54, 80
2, 24572, Note_on_c, 0, 63, 92
2, 25252, Note_off_c, 0, 54, 0
2, 25276, Note_off_c, 0, 63, 0
2, 25336, Note_off_c, 0, 59, 0
2, 25340, Note_on_c, 0, 61, 84
2, 25340, Note_on_c, 0, 57, 80
2, 25344, Note_on_c, 0, 52, 84
2, 25564, Note_off_c, 0, 52, 0
2, 25568, Note_off_c, 0, 61, 0
2, 25572, Note_off_c, 0, 57, 0
2, 25624, Note_on_c, 0, 57, 68
2, 25628, Note_on_c, 0, 61, 100
2, 25628, Note_on_c, 0, 52, 92
2, 25684, Note_off_c, 0, 52, 0
2, 25704, Note_off_c, 0, 57, 0
2, 25704, Note_off_c, 0, 61, 0
2, 25816, Note_on_c, 0, 57, 88
2, 25816, Note_on_c, 0, 61, 92
2, 25816, Note_on_c, 0, 52, 88
2, 25880, Note_off_c, 0, 52, 0
2, 25884, Note_off_c, 0, 57, 0
2, 25884, Note_off_c, 0, 61, 0
2, 26008, Note_on_c, 0, 57, 68
2, 26008, Note_on_c, 0, 52, 72
2, 26008, Note_on_c, 0, 61, 92
2, 26040, Note_off_c, 0, 57, 0
2, 26044, Note_off_c, 0, 52, 0
2, 26044, Note_off_c, 0, 61, 0
2, 26108, Note_on_c, 0, 52, 68
2, 26108, Note_on_c, 0, 61, 80
2, 26108, Note_on_c, 0, 57, 52
2, 26180, Note_off_c, 0, 52, 0
2, 26196, Note_off_c, 0, 57, 0
2, 26200, Note_off_c, 0, 61, 0
2, 26296, Note_on_c, 0, 59, 92
2, 26296, Note_on_c, 0, 56, 100
2, 26296, Note_on_c, 0, 51, 88
2, 26340, Note_off_c, 0, 56, 0
2, 26344, Note_off_c, 0, 51, 0
2, 26352, Note_off_c, 0, 59, 0
2, 26492, Note_on_c, 0, 56, 96
2, 26492, Note_on_c, 0, 64, 100
2, 26492, Note_on_c, 0, 61, 96
2, 26844, Note_off_c, 0, 56, 0
2, 26852, Note_off_c, 0, 64, 0
2, 26852, Note_off_c, 0, 61, 0
2, 26872, Note_on_c, 0, 54, 80
2, 26876, Note_on_c, 0, 59, 92
2, 26876, Note_on_c, 0, 63, 96
2, 27640, Note_on_c, 0, 61, 84
2, 27644, Note_off_c, 0, 59, 0
2, 27644, Note_off_c, 0, 63, 0
2, 27644, Note_on_c, 0, 58, 92
2, 28324, Note_off_c, 0, 54, 0
2, 28412, Note_off_c, 0, 61, 0
2, 28416, Note_on_c, 0, 56, 92
2, 28416, Note_on_c, 0, 59, 84
2, 28416, Note_on_c, 0, 63, 76
2, 28456, Note_off_c, 0, 58, 0
2, 29868, Note_off_c, 0, 56, 0
2, 29880, Note_off_c, 0, 63, 0
2, 29948, Note_on_c, 0, 61, 84
2, 29948, Note_on_c, 0, 52, 84
2, 29948, Note_on_c, 0, 57, 84
2, 29956, Note_off_c, 0, 59, 0
2, 30620, Note_off_c, 0, 61, 0
2, 30700, Note_off_c, 0, 57, 0
2, 30708, Note_on_c, 0, 56, 80
2, 30712, Note_on_c, 0, 59, 88
2, 31340, Note_off_c, 0, 52, 0
2, 31476, Note_off_c, 0, 56, 0
2, 31484, Note_on_c, 0, 54, 80
2, 31484, Note_on_c, 0, 63, 92
2, 32172, Note_off_c, 0, 54, 0
2, 32188, Note_off_c, 0, 63, 0
2, 32236, Note_off_c, 0, 59, 0
2, 32244, Note_on_c, 0, 52, 84
2, 32248, Note_on_c, 0, 57, 80
2, 32252, Note_on_c, 0, 61, 84
2, 32476, Note_off_c, 0, 52, 0
2, 32476, Note_off_c, 0, 61, 0
2, 32480, Note_off_c, 0, 57, 0
2, 32536, Note_on_c, 0, 57, 68
2, 32536, Note_on_c, 0, 61, 100
2, 32540, Note_on_c, 0, 52, 92
2, 32604, Note_off_c, 0, 52, 0
2, 32616, Note_off_c, 0, 57, 0
2, 32620, Note_off_c, 0, 61, 0
2, 32724, Note_on_c, 0, 52, 88
2, 32728, Note_on_c, 0, 57, 88
2, 32728, Note_on_c, 0, 61, 92
2, 32788, Note_off_c, 0, 52, 0
2, 32796, Note_off_c, 0, 57, 0
2, 32800, Note_off_c, 0, 61, 0
2, 32916, Note_on_c, 0, 57, 68
2, 32916, Note_on_c, 0, 52, 72
2, 32916, Note_on_c, 0, 61, 92
2, 32956, Note_off_c, 0, 57, 0
2, 32956, Note_off_c, 0, 52, 0
2, 32956, Note_off_c, 0, 61, 0
2, 33020, Note_on_c, 0, 57, 52
2, 33020, Note_on_c, 0, 52, 68
2, 33020, Note_on_c, 0, 61, 80
2, 33092, Note_off_c, 0, 52, 0
2, 33100, Note_off_c, 0, 57, 0
2, 33108, Note_off_c, 0, 61, 0
2, 33208, Note_on_c, 0, 59, 92
2, 33208, Note_on_c, 0, 56, 100
2, 33208, Note_on_c, 0, 51, 88
2, 33260, Note_off_c, 0, 56, 0
2, 33260, Note_off_c, 0, 51, 0
2, 33276, Note_off_c, 0, 59, 0
2, 33404, Note_on_c, 0, 56, 96
2, 33408, Note_on_c, 0, 64, 100
2, 33408, Note_on_c, 0, 61, 96
2, 33764, Note_off_c, 0, 56, 0
2, 33772, Note_off_c, 0, 64, 0
2, 33772, Note_off_c, 0, 61, 0
2, 33784, Note_on_c, 0, 54, 80
2, 33788, Note_on_c, 0, 59, 92
2, 33788, Note_on_c, 0, 63, 96
2, 34552, Note_on_c, 0, 58, 92
2, 34556, Note_off_c, 0, 59, 0
2, 34556, Note_off_c, 0, 63, 0
2, 34560, Note_on_c, 0, 61, 84
2, 35240, Note_off_c, 0, 54, 0
2, 35320, Note_on_c, 0, 63, 76
2, 35324, Note_off_c, 0, 61, 0
2, 35324, Note_on_c, 0, 59, 84
2, 35324, Note_on_c, 0, 56, 92
2, 35356, Note_off_c, 0, 58, 0
2, 36780, Note_off_c, 0, 56, 0
2, 36796, Note_off_c, 0, 63, 0
2, 36856, Note_on_c, 0, 57, 84
2, 36860, Note_on_c, 0, 52, 84
2, 36860, Note_on_c, 0, 61, 84
2, 36864, Note_off_c, 0, 59, 0
2, 37532, Note_off_c, 0, 61, 0
2, 37608, Note_off_c, 0, 57, 0
2, 37624, Note_on_c, 0, 56, 80
2, 37628, Note_on_c, 0, 59, 88
2, 38244, Note_off_c, 0, 52, 0
2, 38392, Note_off_c, 0, 56, 0
2, 38392, Note_on_c, 0, 54, 80
2, 38392, Note_on_c, 0, 63, 92
2, 39076, Note_off_c, 0, 54, 0
2, 39100, Note_off_c, 0, 63, 0
2, 39156, Note_off_c, 0, 59, 0
2, 39164, Note_on_c, 0, 61, 84
2, 39164, Note_on_c, 0, 52, 84
2, 39168, Note_on_c, 0, 57, 80
2, 39388, Note_off_c, 0, 61, 0
2, 39388, Note_off_c, 0, 52, 0
2, 39396, Note_off_c, 0, 57, 0
2, 39448, Note_on_c, 0, 57, 68
2, 39452, Note_on_c, 0, 61, 100
2, 39452, Note_on_c, 0, 52, 92
2, 39504, Note_off_c, 0, 52, 0
2, 39528, Note_off_c, 0, 57, 0
2, 39528, Note_off_c, 0, 61, 0
2, 39640, Note_on_c, 0, 57, 88
2, 39640, Note_on_c, 0, 61, 92
2, 39644, Note_on_c, 0, 52, 88
2, 39700, Note_off_c, 0, 52, 0
2, 39708, Note_off_c, 0, 57, 0
2, 39716, Note_off_c, 0, 61, 0
2, 39828, Note_on_c, 0, 61, 92
2, 39832, Note_on_c, 0, 57, 68
2, 39832, Note_on_c, 0, 52, 72
2, 39868, Note_off_c, 0, 61, 0
2, 39868, Note_off_c, 0, 57, 0
2, 39868, Note_off_c, 0, 52, 0
2, 39928, Note_on_c, 0, 61, 80
2, 39928, Note_on_c, 0, 52, 68
2, 39928, Note_on_c, 0, 57, 52
2, 40008, Note_off_c, 0, 52, 0
2, 40020, Note_off_c, 0, 57, 0
2, 40020, Note_off_c, 0, 61, 0
2, 40120, Note_on_c, 0, 59, 92
2, 40120, Note_on_c, 0, 56, 100
2, 40120, Note_on_c, 0, 51, 88
2, 40172, Note_off_c, 0, 56, 0
2, 40172, Note_off_c, 0, 51, 0
2, 40184, Note_off_c, 0, 59, 0
2, 40316, Note_on_c, 0, 56, 96
2, 40316, Note_on_c, 0, 64, 100
2, 40320, Note_on_c, 0, 61, 96
2, 40668, Note_off_c, 0, 56, 0
2, 40676, Note_off_c, 0, 64, 0
2, 40680, Note_off_c, 0, 61, 0
2, 40696, Note_on_c, 0, 54, 68
2, 40700, Note_on_c, 0, 59, 88
2, 40700, Note_on_c, 0, 63, 88
2, 41460, Note_on_c, 0, 58, 84
2, 41460, Note_on_c, 0, 61, 84
2, 41472, Note_off_c, 0, 63, 0
2, 41492, Note_off_c, 0, 59, 0
2, 42164, Note_off_c, 0, 54, 0
2, 42220, Note_on_c, 0, 59, 80
2, 42220, Note_on_c, 0, 63, 76
2, 42224, Note_on_c, 0, 56, 84
2, 42244, Note_off_c, 0, 61, 0
2, 42252, Note_off_c, 0, 58, 0
2, 43640, Note_off_c, 0, 63, 0
2, 43684, Note_off_c, 0, 56, 0
2, 43736, Note_off_c, 0, 59, 0
2, 43772, Note_on_c, 0, 52, 88
2, 43772, Note_on_c, 0, 57, 84
2, 43772, Note_on_c, 0, 61, 76
2, 43980, Note_off_c, 0, 52, 0
2, 43984, Note_off_c, 0, 57, 0
2, 43988, Note_off_c, 0, 61, 0
2, 44040, Note_on_c, 0, 61, 92
2, 44044, Note_on_c, 0, 52, 84
2, 44056, Note_on_c, 0, 57, 84
2, 44108, Note_off_c, 0, 52, 0
2, 44120, Note_off_c, 0, 61, 0
2, 44120, Note_off_c, 0, 57, 0
2, 44252, Note_on_c, 0, 61, 84
2, 44252, Note_on_c, 0, 52, 84
2, 44252, Note_on_c, 0, 57, 88
2, 44316, Note_off_c, 0, 52, 0
2, 44324, Note_off_c, 0, 61, 0
2, 44324, Note_off_c, 0, 57, 0
2, 44424, Note_on_c, 0, 61, 76
2, 44424, Note_on_c, 0, 52, 64
2, 44440, Note_on_c, 0, 57, 52
2, 44460, Note_off_c, 0, 61, 0
2, 44460, Note_off_c, 0, 52, 0
2, 44468, Note_off_c, 0, 57, 0
2, 44496, Note_on_c, 0, 52, 60
2, 44504, Note_on_c, 0, 61, 92
2, 44516, Note_on_c, 0, 57, 76
2, 44580, Note_off_c, 0, 52, 0
2, 44596, Note_off_c, 0, 57, 0
2, 44596, Note_off_c, 0, 61, 0
2, 44708, Note_on_c, 0, 59, 92
2, 44712, Note_on_c, 0, 56, 92
2, 44712, Note_on_c, 0, 51, 84
2, 44760, Note_off_c, 0, 56, 0
2, 44764, Note_off_c, 0, 51, 0
2, 44768, Note_off_c, 0, 59, 0
2, 44920, Note_on_c, 0, 61, 92
2, 44920, Note_on_c, 0, 64, 104
2, 44928, Note_on_c, 0, 56, 100
2, 46812, Note_off_c, 0, 56, 0
2, 46816, Note_off_c, 0, 61, 0
2, 46820, Note_off_c, 0, 64, 0
2, 46848, Note_on_c, 0, 66, 104
2, 46848, Note_on_c, 0, 69, 112
2, 46848, Note_on_c, 0, 57, 104
2, 46848, Note_on_c, 0, 61, 100
2, 47608, Note_on_c, 0, 62, 104
2, 47612, Note_off_c, 0, 61, 0
2, 48364, Note_off_c, 0, 62, 0
2, 48372, Note_off_c, 0, 66, 0
2, 48380, Note_on_c, 0, 64, 104
2, 48380, Note_on_c, 0, 61, 96
2, 49148, Note_off_c, 0, 69, 0
2, 49148, Note_on_c, 0, 59, 88
2, 49148, Note_on_c, 0, 56, 100
2, 49152, Note_off_c, 0, 61, 0
2, 49152, Note_on_c, 0, 68, 96
2, 49156, Note_off_c, 0, 57, 0
2, 49432, Note_on_c, 0, 69, 96
2, 49464, Note_off_c, 0, 68, 0
2, 49692, Note_off_c, 0, 69, 0
2, 49720, Note_on_c, 0, 68, 100
2, 49724, Note_off_c, 0, 56, 0
2, 49852, Note_off_c, 0, 64, 0
2, 49908, Note_off_c, 0, 59, 0
2, 49908, Note_off_c, 0, 68, 0
2, 49912, Note_on_c, 0, 61, 100
2, 49912, Note_on_c, 0, 57, 104
2, 49916, Note_on_c, 0, 69, 112
2, 49916, Note_on_c, 0, 66, 104
2, 50680, Note_off_c, 0, 61, 0
2, 50684, Note_on_c, 0, 62, 104
2, 51432, Note_off_c, 0, 62, 0
2, 51436, Note_off_c, 0, 66, 0
2, 51444, Note_on_c, 0, 64, 104
2, 51448, Note_on_c, 0, 61, 96
2, 52220, Note_off_c, 0, 69, 0
2, 52220, Note_on_c, 0, 59, 88
2, 52220, Note_on_c, 0, 56, 100
2, 52224, Note_on_c, 0, 68, 96
2, 52228, Note_off_c, 0, 57, 0
2, 52228, Note_off_c, 0, 61, 0
2, 52504, Note_on_c, 0, 69, 96
2, 52536, Note_off_c, 0, 68, 0
2, 52764, Note_off_c, 0, 69, 0
2, 52792, Note_on_c, 0, 68, 100
2, 52796, Note_off_c, 0, 56, 0
2, 52924, Note_off_c, 0, 64, 0
2, 52988, Note_off_c, 0, 59, 0
2, 52988, Note_off_c, 0, 68, 0
2, 52992, Note_on_c, 0, 66, 104
2, 52992, Note_on_c, 0, 69, 112
2, 52996, Note_on_c, 0, 57, 104
2, 53000, Note_on_c, 0, 61, 100
2, 53752, Note_off_c, 0, 61, 0
2, 53752, Note_on_c, 0, 62, 104
2, 54504, Note_off_c, 0, 62, 0
2, 54524, Note_off_c, 0, 66, 0
2, 54528, Note_on_c, 0, 64, 104
2, 54528, Note_on_c, 0, 61, 96
2, 55292, Note_off_c, 0, 69, 0
2, 55292, Note_on_c, 0, 59, 88
2, 55292, Note_on_c, 0, 56, 100
2, 55296, Note_on_c, 0, 68, 96
2, 55300, Note_off_c, 0, 57, 0
2, 55300, Note_off_c, 0, 61, 0
2, 55576, Note_on_c, 0, 69, 96
2, 55608, Note_off_c, 0, 68, 0
2, 55836, Note_off_c, 0, 69, 0
2, 55864, Note_on_c, 0, 68, 100
2, 55868, Note_off_c, 0, 56, 0
2, 55996, Note_off_c, 0, 64, 0
2, 56044, Note_off_c, 0, 59, 0
2, 56044, Note_off_c, 0, 68, 0
2, 56064, Note_on_c, 0, 69, 108
2, 56064, Note_on_c, 0, 66, 100
2, 56068, Note_on_c, 0, 61, 104
2, 56068, Note_on_c, 0, 57, 100
2, 56820, Note_on_c, 0, 62, 92
2, 56856, Note_off_c, 0, 61, 0
2, 57592, Note_on_c, 0, 64, 100
2, 57592, Note_on_c, 0, 61, 92
2, 57596, Note_off_c, 0, 62, 0
2, 57604, Note_off_c, 0, 66, 0
2, 58356, Note_off_c, 0, 69, 0
2, 58364, Note_on_c, 0, 68, 88
2, 58368, Note_off_c, 0, 57, 0
2, 58368, Note_on_c, 0, 56, 100
2, 59100, Note_off_c, 0, 61, 0
2, 59100, Note_off_c, 0, 64, 0
2, 59108, Note_off_c, 0, 68, 0
2, 59136, Note_on_c, 0, 52, 84
2, 59136, Note_on_c, 0, 59, 96
2, 59868, Note_off_c, 0, 56, 0
2, 59900, Note_off_c, 0, 59, 0
2, 59904, Note_on_c, 0, 59, 92
2, 59904, Note_on_c, 0, 57, 96
2, 59904, Note_on_c, 0, 54, 76
2, 59908, Note_off_c, 0, 52, 0
2, 59908, Note_off_c, 0, 59, 0
2, 60344, Note_off_c, 0, 54, 0
2, 60376, Note_on_c, 0, 64, 96
2, 60376, Note_on_c, 0, 56, 100
2, 60380, Note_off_c, 0, 57, 0
2, 60380, Note_on_c, 0, 59, 100
2, 60652, Note_off_c, 0, 64, 0
2, 60652, Note_off_c, 0, 56, 0
2, 60672, Note_on_c, 0, 52, 92
2, 60672, Note_on_c, 0, 57, 96
2, 60672, Note_on_c, 0, 61, 96
2, 60908, Note_off_c, 0, 52, 0
2, 60908, Note_off_c, 0, 61, 0
2, 60924, Note_off_c, 0, 57, 0
2, 60952, Note_on_c, 0, 61, 100
2, 60952, Note_on_c, 0, 52, 88
2, 60952, Note_on_c, 0, 57, 76
2, 61012, Note_off_c, 0, 52, 0
2, 61020, Note_off_c, 0, 61, 0
2, 61020, Note_off_c, 0, 57, 0
2, 61144, Note_on_c, 0, 57, 104
2, 61148, Note_on_c, 0, 61, 92
2, 61148, Note_on_c, 0, 52, 88
2, 61196, Note_off_c, 0, 52, 0
2, 61200, Note_off_c, 0, 61, 0
2, 61204, Note_off_c, 0, 57, 0
2, 61336, Note_on_c, 0, 52, 88
2, 61336, Note_on_c, 0, 61, 84
2, 61340, Note_on_c, 0, 57, 96
2, 61364, Note_off_c, 0, 52, 0
2, 61368, Note_off_c, 0, 61, 0
2, 61372, Note_off_c, 0, 57, 0
2, 61436, Note_on_c, 0, 52, 80
2, 61436, Note_on_c, 0, 61, 100
2, 61436, Note_on_c, 0, 57, 20
2, 61492, Note_off_c, 0, 52, 0
2, 61516, Note_off_c, 0, 57, 0
2, 61516, Note_off_c, 0, 61, 0
2, 61624, Note_off_c, 0, 59, 0
2, 61624, Note_on_c, 0, 56, 92
2, 61624, Note_on_c, 0, 59, 84
2, 61624, Note_on_c, 0, 51, 104
2, 61676, Note_off_c, 0, 51, 0
2, 61684, Note_off_c, 0, 56, 0
2, 61816, Note_on_c, 0, 64, 96
2, 61816, Note_on_c, 0, 61, 100
2, 61816, Note_on_c, 0, 56, 100
2, 62868, Note_off_c, 0, 59, 0
2, 63700, Note_off_c, 0, 56, 0
2, 63700, Note_off_c, 0, 61, 0
2, 63700, Note_off_c, 0, 64, 0
2, 63740, Note_on_c, 0, 61, 96
2, 63740, Note_on_c, 0, 57, 96
2, 63744, Note_on_c, 0, 52, 92
2, 63980, Note_off_c, 0, 61, 0
2, 63980, Note_off_c, 0, 52, 0
2, 63992, Note_off_c, 0, 57, 0
2, 64032, Note_on_c, 0, 61, 100
2, 64032, Note_on_c, 0, 52, 88
2, 64032, Note_on_c, 0, 57, 76
2, 64088, Note_off_c, 0, 61, 0
2, 64088, Note_off_c, 0, 52, 0
2, 64092, Note_off_c, 0, 57, 0
2, 64216, Note_on_c, 0, 57, 104
2, 64216, Note_on_c, 0, 61, 92
2, 64220, Note_on_c, 0, 52, 88
2, 64268, Note_off_c, 0, 52, 0
2, 64276, Note_off_c, 0, 57, 0
2, 64276, Note_off_c, 0, 61, 0
2, 64408, Note_on_c, 0, 57, 96
2, 64408, Note_on_c, 0, 52, 88
2, 64412, Note_on_c, 0, 61, 84
2, 64440, Note_off_c, 0, 52, 0
2, 64444, Note_off_c, 0, 57, 0
2, 64444, Note_off_c, 0, 61, 0
2, 64508, Note_on_c, 0, 52, 80
2, 64512, Note_on_c, 0, 57, 20
2, 64512, Note_on_c, 0, 61, 100
2, 64568, Note_off_c, 0, 52, 0
2, 64596, Note_off_c, 0, 57, 0
2, 64600, Note_off_c, 0, 61, 0
2, 64696, Note_on_c, 0, 56, 92
2, 64696, Note_on_c, 0, 59, 84
2, 64696, Note_on_c, 0, 51, 104
2, 64748, Note_off_c, 0, 51, 0
2, 64756, Note_off_c, 0, 56, 0
2, 64760, Note_off_c, 0, 59, 0
2, 64892, Note_on_c, 0, 64, 96
2, 64896, Note_on_c, 0, 61, 100
2, 64896, Note_on_c, 0, 56, 100
2, 66776, Note_off_c, 0, 56, 0
2, 66776, Note_off_c, 0, 61, 0
2, 66776, Note_off_c, 0, 64, 0
2, 66812, Note_on_c, 0, 54, 80
2, 66812, Note_on_c, 0, 63, 96
2, 66816, Note_on_c, 0, 59, 92
2, 67576, Note_on_c, 0, 61, 84
2, 67580, Note_off_c, 0, 63, 0
2, 67580, Note_off_c, 0, 59, 0
2, 67580, Note_on_c, 0, 58, 92
2, 68260, Note_off_c, 0, 54, 0
2, 68340, Note_off_c, 0, 61, 0
2, 68348, Note_on_c, 0, 56, 92
2, 68348, Note_on_c, 0, 59, 84
2, 68352, Note_on_c, 0, 63, 76
2, 68380, Note_off_c, 0, 58, 0
2, 69800, Note_off_c, 0, 56, 0
2, 69820, Note_off_c, 0, 63, 0
2, 69884, Note_on_c, 0, 61, 84
2, 69884, Note_on_c, 0, 52, 84
2, 69884, Note_on_c, 0, 57, 84
2, 69892, Note_off_c, 0, 59, 0
2, 70556, Note_off_c, 0, 61, 0
2, 70636, Note_off_c, 0, 57, 0
2, 70648, Note_on_c, 0, 56, 80
2, 70648, Note_on_c, 0, 59, 88
2, 71276, Note_off_c, 0, 52, 0
2, 71412, Note_off_c, 0, 56, 0
2, 71420, Note_on_c, 0, 54, 80
2, 71420, Note_on_c, 0, 63, 92
2, 72108, Note_off_c, 0, 54, 0
2, 72124, Note_off_c, 0, 63, 0
2, 72180, Note_off_c, 0, 59, 0
2, 72184, Note_on_c, 0, 52, 84
2, 72188, Note_on_c, 0, 57, 80
2, 72192, Note_on_c, 0, 61, 84
2, 72412, Note_off_c, 0, 52, 0
2, 72412, Note_off_c, 0, 61, 0
2, 72420, Note_off_c, 0, 57, 0
2, 72472, Note_on_c, 0, 52, 92
2, 72472, Note_on_c, 0, 61, 100
2, 72472, Note_on_c, 0, 57, 68
2, 72540, Note_off_c, 0, 52, 0
2, 72556, Note_off_c, 0, 61, 0
2, 72556, Note_off_c, 0, 57, 0
2, 72660, Note_on_c, 0, 52, 88
2, 72664, Note_on_c, 0, 57, 88
2, 72664, Note_on_c, 0, 61, 92
2, 72724, Note_off_c, 0, 52, 0
2, 72732, Note_off_c, 0, 57, 0
2, 72736, Note_off_c, 0, 61, 0
2, 72860, Note_on_c, 0, 61, 92
2, 72864, Note_on_c, 0, 57, 68
2, 72864, Note_on_c, 0, 52, 72
2, 72892, Note_off_c, 0, 61, 0
2, 72892, Note_off_c, 0, 57, 0
2, 72892, Note_off_c, 0, 52, 0
2, 72956, Note_on_c, 0, 57, 52
2, 72956, Note_on_c, 0, 52, 68
2, 72960, Note_on_c, 0, 61, 80
2, 73032, Note_off_c, 0, 52, 0
2, 73048, Note_off_c, 0, 57, 0
2, 73052, Note_off_c, 0, 61, 0
2, 73144, Note_on_c, 0, 56, 100
2, 73144, Note_on_c, 0, 51, 88
2, 73144, Note_on_c, 0, 59, 92
2, 73196, Note_off_c, 0, 56, 0
2, 73196, Note_off_c, 0, 51, 0
2, 73204, Note_off_c, 0, 59, 0
2, 73340, Note_on_c, 0, 64, 100
2, 73340, Note_on_c, 0, 61, 96
2, 73344, Note_on_c, 0, 56, 96
2, 73692, Note_off_c, 0, 56, 0
2, 73700, Note_off_c, 0, 64, 0
2, 73704, Note_off_c, 0, 61, 0
2, 73720, Note_on_c, 0, 63, 96
2, 73724, Note_on_c, 0, 54, 80
2, 73724, Note_on_c, 0, 59, 92
2, 74488, Note_on_c, 0, 58, 92
2, 74492, Note_off_c, 0, 59, 0
2, 74492, Note_off_c, 0, 63, 0
2, 74496, Note_on_c, 0, 61, 84
2, 75176, Note_off_c, 0, 54, 0
2, 75252, Note_on_c, 0, 56, 92
2, 75252, Note_on_c, 0, 59, 84
2, 75252, Note_on_c, 0, 63, 76
2, 75260, Note_off_c, 0, 61, 0
2, 75292, Note_off_c, 0, 58, 0
2, 76716, Note_off_c, 0, 56, 0
2, 76732, Note_off_c, 0, 63, 0
2, 76800, Note_on_c, 0, 61, 84
2, 76800, Note_on_c, 0, 52, 84
2, 76800, Note_on_c, 0, 57, 84
2, 76804, Note_off_c, 0, 59, 0
2, 77468, Note_off_c, 0, 61, 0
2, 77544, Note_off_c, 0, 57, 0
2, 77560, Note_on_c, 0, 59, 88
2, 77564, Note_on_c, 0, 56, 80
2, 78180, Note_off_c, 0, 52, 0
2, 78328, Note_on_c, 0, 63, 92
2, 78332, Note_off_c, 0, 56, 0
2, 78332, Note_on_c, 0, 54, 80
2, 79012, Note_off_c, 0, 54, 0
2, 79036, Note_off_c, 0, 63, 0
2, 79092, Note_off_c, 0, 59, 0
2, 79100, Note_on_c, 0, 61, 84
2, 79100, Note_on_c, 0, 52, 84
2, 79100, Note_on_c, 0, 57, 80
2, 79324, Note_off_c, 0, 61, 0
2, 79324, Note_off_c, 0, 52, 0
2, 79324, Note_off_c, 0, 57, 0
2, 79384, Note_on_c, 0, 57, 68
2, 79384, Note_on_c, 0, 61, 100
2, 79388, Note_on_c, 0, 52, 92
2, 79444, Note_off_c, 0, 52, 0
2, 79464, Note_off_c, 0, 57, 0
2, 79468, Note_off_c, 0, 61, 0
2, 79572, Note_on_c, 0, 61, 92
2, 79576, Note_on_c, 0, 57, 88
2, 79576, Note_on_c, 0, 52, 88
2, 79636, Note_off_c, 0, 52, 0
2, 79644, Note_off_c, 0, 57, 0
2, 79648, Note_off_c, 0, 61, 0
2, 79768, Note_on_c, 0, 57, 68
2, 79768, Note_on_c, 0, 52, 72
2, 79768, Note_on_c, 0, 61, 92
2, 79800, Note_off_c, 0, 57, 0
2, 79804, Note_off_c, 0, 52, 0
2, 79804, Note_off_c, 0, 61, 0
2, 79860, Note_on_c, 0, 57, 52
2, 79860, Note_on_c, 0, 52, 68
2, 79860, Note_on_c, 0, 61, 80
2, 79944, Note_off_c, 0, 52, 0
2, 79956, Note_off_c, 0, 57, 0
2, 79960, Note_off_c, 0, 61, 0
2, 80052, Note_on_c, 0, 51, 88
2, 80056, Note_on_c, 0, 59, 92
2, 80056, Note_on_c, 0, 56, 100
2, 80100, Note_off_c, 0, 56, 0
2, 80104, Note_off_c, 0, 51, 0
2, 80120, Note_off_c, 0, 59, 0
2, 80252, Note_on_c, 0, 56, 96
2, 80252, Note_on_c, 0, 61, 96
2, 80252, Note_on_c, 0, 64, 100
2, 80612, Note_off_c, 0, 56, 0
2, 80616, Note_off_c, 0, 61, 0
2, 80620, Note_off_c, 0, 64, 0
2, 80636, Note_on_c, 0, 59, 88
2, 80636, Note_on_c, 0, 63, 88
2, 80640, Note_on_c, 0, 54, 68
2, 81400, Note_on_c, 0, 58, 84
2, 81404, Note_on_c, 0, 61, 84
2, 81408, Note_off_c, 0, 63, 0
2, 81416, Note_off_c, 0, 59, 0
2, 82092, Note_off_c, 0, 54, 0
2, 82152, Note_on_c, 0, 63, 76
2, 82156, Note_on_c, 0, 59, 80
2, 82156, Note_on_c, 0, 56, 84
2, 82176, Note_off_c, 0, 61, 0
2, 82184, Note_off_c, 0, 58, 0
2, 83576, Note_off_c, 0, 63, 0
2, 83620, Note_off_c, 0, 56, 0
2, 83668, Note_off_c, 0, 59, 0
2, 83700, Note_on_c, 0, 61, 76
2, 83708, Note_on_c, 0, 52, 88
2, 83708, Note_on_c, 0, 57, 84
2, 83916, Note_off_c, 0, 52, 0
2, 83920, Note_off_c, 0, 61, 0
2, 83924, Note_off_c, 0, 57, 0
2, 83976, Note_on_c, 0, 61, 92
2, 83976, Note_on_c, 0, 52, 84
2, 83988, Note_on_c, 0, 57, 84
2, 84036, Note_off_c, 0, 52, 0
2, 84044, Note_off_c, 0, 61, 0
2, 84044, Note_off_c, 0, 57, 0
2, 84188, Note_on_c, 0, 61, 84
2, 84188, Note_on_c, 0, 57, 88
2, 84192, Note_on_c, 0, 52, 84
2, 84252, Note_off_c, 0, 52, 0
2, 84260, Note_off_c, 0, 61, 0
2, 84260, Note_off_c, 0, 57, 0
2, 84360, Note_on_c, 0, 61, 76
2, 84364, Note_on_c, 0, 52, 64
2, 84372, Note_on_c, 0, 57, 52
2, 84396, Note_off_c, 0, 61, 0
2, 84396, Note_off_c, 0, 52, 0
2, 84396, Note_off_c, 0, 57, 0
2, 84436, Note_on_c, 0, 52, 60
2, 84444, Note_on_c, 0, 61, 92
2, 84452, Note_on_c, 0, 57, 76
2, 84516, Note_off_c, 0, 52, 0
2, 84532, Note_off_c, 0, 57, 0
2, 84532, Note_off_c, 0, 61, 0
2, 84644, Note_on_c, 0, 59, 92
2, 84648, Note_on_c, 0, 56, 92
2, 84652, Note_on_c, 0, 51, 84
2, 84696, Note_off_c, 0, 56, 0
2, 84700, Note_off_c, 0, 51, 0
2, 84708, Note_off_c, 0, 59, 0
2, 84856, Note_on_c, 0, 56, 100
2, 84856, Note_on_c, 0, 61, 92
2, 84860, Note_on_c, 0, 64, 104
2, 86748, Note_off_c, 0, 56, 0
2, 86752, Note_off_c, 0, 61, 0
2, 86756, Note_off_c, 0, 64, 0
2, 86780, Note_on_c, 0, 61, 100
2, 86780, Note_on_c, 0, 57, 104
2, 86784, Note_on_c, 0, 69, 112
2, 86784, Note_on_c, 0, 66, 104
2, 87544, Note_off_c, 0, 61, 0
2, 87544, Note_on_c, 0, 62, 104
2, 88300, Note_off_c, 0, 62, 0
2, 88316, Note_off_c, 0, 66, 0
2, 88316, Note_on_c, 0, 61, 96
2, 88320, Note_on_c, 0, 64, 104
2, 89080, Note_on_c, 0, 68, 96
2, 89084, Note_off_c, 0, 69, 0
2, 89084, Note_on_c, 0, 56, 100
2, 89084, Note_on_c, 0, 59, 88
2, 89092, Note_off_c, 0, 57, 0
2, 89092, Note_off_c, 0, 61, 0
2, 89368, Note_on_c, 0, 69, 96
2, 89400, Note_off_c, 0, 68, 0
2, 89628, Note_off_c, 0, 69, 0
2, 89656, Note_on_c, 0, 68, 100
2, 89660, Note_off_c, 0, 56, 0
2, 89788, Note_off_c, 0, 64, 0
2, 89848, Note_off_c, 0, 59, 0
2, 89848, Note_off_c, 0, 68, 0
2, 89852, Note_on_c, 0, 61, 100
2, 89852, Note_on_c, 0, 57, 104
2, 89860, Note_on_c, 0, 69, 112
2, 89860, Note_on_c, 0, 66, 104
2, 90620, Note_off_c, 0, 61, 0
2, 90620, Note_on_c, 0, 62, 104
2, 91368, Note_off_c, 0, 62, 0
2, 91384, Note_on_c, 0, 64, 104
2, 91384, Note_on_c, 0, 61, 96
2, 91388, Note_off_c, 0, 66, 0
2, 92156, Note_off_c, 0, 69, 0
2, 92156, Note_on_c, 0, 59, 88
2, 92156, Note_on_c, 0, 56, 100
2, 92160, Note_off_c, 0, 61, 0
2, 92160, Note_on_c, 0, 68, 96
2, 92168, Note_off_c, 0, 57, 0
2, 92444, Note_on_c, 0, 69, 96
2, 92472, Note_off_c, 0, 68, 0
2, 92700, Note_off_c, 0, 69, 0
2, 92728, Note_on_c, 0, 68, 100
2, 92732, Note_off_c, 0, 56, 0
2, 92860, Note_off_c, 0, 64, 0
2, 92916, Note_off_c, 0, 59, 0
2, 92916, Note_off_c, 0, 68, 0
2, 92924, Note_on_c, 0, 61, 100
2, 92924, Note_on_c, 0, 57, 104
2, 92924, Note_on_c, 0, 69, 112
2, 92928, Note_on_c, 0, 66, 104
2, 93684, Note_on_c, 0, 62, 104
2, 93688, Note_off_c, 0, 61, 0
2, 94444, Note_off_c, 0, 62, 0
2, 94460, Note_off_c, 0, 66, 0
2, 94460, Note_on_c, 0, 61, 96
2, 94460, Note_on_c, 0, 64, 104
2, 95224, Note_off_c, 0, 69, 0
2, 95228, Note_on_c, 0, 59, 88
2, 95232, Note_on_c, 0, 56, 100
2, 95232, Note_on_c, 0, 68, 96
2, 95236, Note_off_c, 0, 57, 0
2, 95240, Note_off_c, 0, 61, 0
2, 95516, Note_on_c, 0, 69, 96
2, 95548, Note_off_c, 0, 68, 0
2, 95772, Note_off_c, 0, 69, 0
2, 95804, Note_on_c, 0, 68, 100
2, 95812, Note_off_c, 0, 56, 0
2, 95932, Note_off_c, 0, 64, 0
2, 95992, Note_off_c, 0, 59, 0
2, 95992, Note_off_c, 0, 68, 0
2, 96000, Note_on_c, 0, 57, 100
2, 96000, Note_on_c, 0, 61, 104
2, 96000, Note_on_c, 0, 66, 100
2, 96008, Note_on_c, 0, 69, 108
2, 96764, Note_on_c, 0, 62, 92
2, 96792, Note_off_c, 0, 61, 0
2, 97532, Note_off_c, 0, 62, 0
2, 97532, Note_on_c, 0, 64, 100
2, 97532, Note_on_c, 0, 61, 92
2, 97544, Note_off_c, 0, 66, 0
2, 98300, Note_off_c, 0, 69, 0
2, 98300, Note_on_c, 0, 68, 88
2, 98304, Note_off_c, 0, 57, 0
2, 98304, Note_on_c, 0, 56, 100
2, 99036, Note_off_c, 0, 61, 0
2, 99036, Note_off_c, 0, 64, 0
2, 99044, Note_off_c, 0, 68, 0
2, 99064, Note_on_c, 0, 52, 84
2, 99068, Note_on_c, 0, 59, 96
2, 99796, Note_off_c, 0, 56, 0
2, 99828, Note_off_c, 0, 59, 0
2, 99832, Note_on_c, 0, 59, 92
2, 99836, Note_on_c, 0, 57, 96
2, 99836, Note_on_c, 0, 54, 76
2, 99844, Note_off_c, 0, 52, 0
2, 99844, Note_off_c, 0, 59, 0
2, 100280, Note_off_c, 0, 54, 0
2, 100312, Note_on_c, 0, 59, 100
2, 100312, Note_on_c, 0, 56, 100
2, 100316, Note_off_c, 0, 57, 0
2, 100316, Note_off_c, 0, 59, 0
2, 100316, Note_on_c, 0, 64, 96
2, 100596, Note_off_c, 0, 56, 0
2, 100604, Note_off_c, 0, 64, 0
2, 100612, Note_on_c, 0, 52, 92
2, 100612, Note_on_c, 0, 57, 96
2, 100612, Note_on_c, 0, 61, 96
2, 100844, Note_off_c, 0, 52, 0
2, 100844, Note_off_c, 0, 61, 0
2, 100852, Note_off_c, 0, 57, 0
2, 100888, Note_on_c, 0, 52, 88
2, 100888, Note_on_c, 0, 57, 76
2, 100896, Note_on_c, 0, 61, 100
2, 100948, Note_off_c, 0, 52, 0
2, 100948, Note_off_c, 0, 57, 0
2, 100948, Note_off_c, 0, 61, 0
2, 101080, Note_on_c, 0, 57, 104
2, 101084, Note_on_c, 0, 61, 92
2, 101088, Note_on_c, 0, 52, 88
2, 101128, Note_off_c, 0, 52, 0
2, 101140, Note_off_c, 0, 61, 0
2, 101144, Note_off_c, 0, 57, 0
2, 101272, Note_on_c, 0, 57, 96
2, 101272, Note_on_c, 0, 61, 84
2, 101276, Note_on_c, 0, 52, 88
2, 101300, Note_off_c, 0, 52, 0
2, 101304, Note_off_c, 0, 61, 0
2, 101308, Note_off_c, 0, 57, 0
2, 101372, Note_on_c, 0, 61, 100
2, 101372, Note_on_c, 0, 52, 80
2, 101372, Note_on_c, 0, 57, 20
2, 101432, Note_off_c, 0, 52, 0
2, 101460, Note_off_c, 0, 57, 0
2, 101460, Note_off_c, 0, 61, 0
2, 101560, Note_on_c, 0, 56, 92
2, 101560, Note_on_c, 0, 59, 84
2, 101560, Note_on_c, 0, 51, 104
2, 101612, Note_off_c, 0, 51, 0
2, 101624, Note_off_c, 0, 56, 0
2, 101628, Note_off_c, 0, 59, 0
2, 101748, Note_on_c, 0, 61, 100
2, 101752, Note_on_c, 0, 56, 100
2, 101760, Note_on_c, 0, 64, 96
2, 103628, Note_off_c, 0, 61, 0
2, 103628, Note_off_c, 0, 64, 0
2, 103640, Note_off_c, 0, 56, 0
2, 103676, Note_on_c, 0, 61, 96
2, 103676, Note_on_c, 0, 57, 96
2, 103680, Note_on_c, 0, 52, 92
2, 103912, Note_off_c, 0, 61, 0
2, 103916, Note_off_c, 0, 52, 0
2, 103928, Note_off_c, 0, 57, 0
2, 103960, Note_on_c, 0, 52, 88
2, 103964, Note_on_c, 0, 57, 76
2, 103964, Note_on_c, 0, 61, 100
2, 104020, Note_off_c, 0, 52, 0
2, 104028, Note_off_c, 0, 57, 0
2, 104028, Note_off_c, 0, 61, 0
2, 104152, Note_on_c, 0, 57, 104
2, 104156, Note_on_c, 0, 52, 88
2, 104156, Note_on_c, 0, 61, 92
2, 104204, Note_off_c, 0, 52, 0
2, 104208, Note_off_c, 0, 61, 0
2, 104212, Note_off_c, 0, 57, 0
2, 104348, Note_on_c, 0, 57, 96
2, 104352, Note_on_c, 0, 52, 88
2, 104352, Note_on_c, 0, 61, 84
2, 104376, Note_off_c, 0, 52, 0
2, 104380, Note_off_c, 0, 57, 0
2, 104380, Note_off_c, 0, 61, 0
2, 104448, Note_on_c, 0, 57, 20
2, 104448, Note_on_c, 0, 61, 100
2, 104448, Note_on_c, 0, 52, 80
2, 104504, Note_off_c, 0, 52, 0
2, 104536, Note_off_c, 0, 57, 0
2, 104536, Note_off_c, 0, 61, 0
2, 104632, Note_on_c, 0, 59, 84
2, 104632, Note_on_c, 0, 51, 104
2, 104632, Note_on_c, 0, 56, 92
2, 104700, Note_off_c, 0, 59, 0
2, 104700, Note_off_c, 0, 51, 0
2, 104700, Note_off_c, 0, 56, 0
2, 104828, Note_on_c, 0, 64, 96
2, 104832, Note_on_c, 0, 61, 100
2, 104832, Note_on_c, 0, 56, 100
2, 106700, Note_off_c, 0, 64, 0
2, 106704, Note_off_c, 0, 56, 0
2, 106704, Note_off_c, 0, 61, 0
2, 106744, Note_on_c, 0, 59, 92
2, 106744, Note_on_c, 0, 63, 96
2, 106748, Note_on_c, 0, 54, 80
2, 107512, Note_on_c, 0, 58, 92
2, 107516, Note_off_c, 0, 59, 0
2, 107516, Note_off_c, 0, 63, 0
2, 107516, Note_on_c, 0, 61, 84
2, 108196, Note_off_c, 0, 54, 0
2, 108280, Note_off_c, 0, 61, 0
2, 108284, Note_on_c, 0, 56, 92
2, 108284, Note_on_c, 0, 59, 84
2, 108284, Note_on_c, 0, 63, 76
2, 108316, Note_off_c, 0, 58, 0
2, 109740, Note_off_c, 0, 56, 0
2, 109756, Note_off_c, 0, 63, 0
2, 109816, Note_on_c, 0, 61, 84
2, 109820, Note_on_c, 0, 52, 84
2, 109820, Note_on_c, 0, 57, 84
2, 109828, Note_off_c, 0, 59, 0
2, 110492, Note_off_c, 0, 61, 0
2, 110572, Note_off_c, 0, 57, 0
2, 110580, Note_on_c, 0, 56, 80
2, 110580, Note_on_c, 0, 59, 88
2, 111212, Note_off_c, 0, 52, 0
2, 111344, Note_off_c, 0, 56, 0
2, 111352, Note_on_c, 0, 54, 80
2, 111352, Note_on_c, 0, 63, 92
2, 112040, Note_off_c, 0, 54, 0
2, 112060, Note_off_c, 0, 63, 0
2, 112112, Note_off_c, 0, 59, 0
2, 112116, Note_on_c, 0, 52, 84
2, 112116, Note_on_c, 0, 57, 80
2, 112120, Note_on_c, 0, 61, 84
2, 112348, Note_off_c, 0, 52, 0
2, 112356, Note_off_c, 0, 57, 0
2, 112356, Note_off_c, 0, 61, 0
2, 112408, Note_on_c, 0, 52, 92
2, 112408, Note_on_c, 0, 61, 100
2, 112412, Note_on_c, 0, 57, 68
2, 112468, Note_off_c, 0, 52, 0
2, 112484, Note_off_c, 0, 61, 0
2, 112488, Note_off_c, 0, 57, 0
2, 112596, Note_on_c, 0, 52, 88
2, 112600, Note_on_c, 0, 57, 88
2, 112600, Note_on_c, 0, 61, 92
2, 112664, Note_off_c, 0, 52, 0
2, 112668, Note_off_c, 0, 57, 0
2, 112672, Note_off_c, 0, 61, 0
2, 112792, Note_on_c, 0, 57, 68
2, 112792, Note_on_c, 0, 52, 72
2, 112792, Note_on_c, 0, 61, 92
2, 112828, Note_off_c, 0, 57, 0
2, 112828, Note_off_c, 0, 52, 0
2, 112828, Note_off_c, 0, 61, 0
2, 112896, Note_on_c, 0, 61, 80
2, 112896, Note_on_c, 0, 52, 68
2, 112896, Note_on_c, 0, 57, 52
2, 112968, Note_off_c, 0, 52, 0
2, 112972, Note_off_c, 0, 57, 0
2, 112984, Note_off_c, 0, 61, 0
2, 113080, Note_on_c, 0, 51, 88
2, 113084, Note_on_c, 0, 56, 100
2, 113084, Note_on_c, 0, 59, 92
2, 113128, Note_off_c, 0, 56, 0
2, 113132, Note_off_c, 0, 51, 0
2, 113140, Note_off_c, 0, 59, 0
2, 113276, Note_on_c, 0, 64, 100
2, 113276, Note_on_c, 0, 61, 96
2, 113276, Note_on_c, 0, 56, 96
2, 113632, Note_off_c, 0, 56, 0
2, 113644, Note_off_c, 0, 64, 0
2, 113644, Note_off_c, 0, 61, 0
2, 113660, Note_on_c, 0, 59, 88
2, 113660, Note_on_c, 0, 63, 88
2, 113660, Note_on_c, 0, 54, 68
2, 114420, Note_on_c, 0, 58, 84
2, 114424, Note_on_c, 0, 61, 84
2, 114432, Note_off_c, 0, 63, 0
2, 114440, Note_off_c, 0, 59, 0
2, 115116, Note_off_c, 0, 54, 0
2, 115180, Note_on_c, 0, 59, 80
2, 115180, Note_on_c, 0, 63, 76
2, 115180, Note_on_c, 0, 56, 84
2, 115196, Note_off_c, 0, 61, 0
2, 115208, Note_off_c, 0, 58, 0
2, 116596, Note_off_c, 0, 63, 0
2, 116636, Note_off_c, 0, 56, 0
2, 116692, Note_off_c, 0, 59, 0
2, 116728, Note_on_c, 0, 61, 76
2, 116736, Note_on_c, 0, 57, 84
2, 116736, Note_on_c, 0, 52, 88
2, 116940, Note_off_c, 0, 52, 0
2, 116948, Note_off_c, 0, 61, 0
2, 116952, Note_off_c, 0, 57, 0
2, 117004, Note_on_c, 0, 61, 92
2, 117004, Note_on_c, 0, 52, 84
2, 117008, Note_on_c, 0, 57, 84
2, 117064, Note_off_c, 0, 52, 0
2, 117080, Note_off_c, 0, 61, 0
2, 117080, Note_off_c, 0, 57, 0
2, 117212, Note_on_c, 0, 61, 84
2, 117216, Note_on_c, 0, 52, 84
2, 117216, Note_on_c, 0, 57, 88
2, 117276, Note_off_c, 0, 52, 0
2, 117280, Note_off_c, 0, 61, 0
2, 117280, Note_off_c, 0, 57, 0
2, 117380, Note_on_c, 0, 61, 76
2, 117384, Note_on_c, 0, 52, 64
2, 117396, Note_on_c, 0, 57, 52
2, 117416, Note_off_c, 0, 52, 0
2, 117420, Note_off_c, 0, 61, 0
2, 117420, Note_off_c, 0, 57, 0
2, 117468, Note_on_c, 0, 52, 60
2, 117468, Note_on_c, 0, 61, 92
2, 117476, Note_on_c, 0, 57, 76
2, 117536, Note_off_c, 0, 52, 0
2, 117556, Note_off_c, 0, 57, 0
2, 117560, Note_off_c, 0, 61, 0
2, 117672, Note_on_c, 0, 59, 92
2, 117676, Note_on_c, 0, 56, 92
2, 117676, Note_on_c, 0, 51, 84
2, 117720, Note_off_c, 0, 56, 0
2, 117724, Note_off_c, 0, 51, 0
2, 117736, Note_off_c, 0, 59, 0
2, 117888, Note_on_c, 0, 61, 92
2, 117888, Note_on_c, 0, 64, 104
2, 117888, Note_on_c, 0, 56, 100
2, 119772, Note_off_c, 0, 56, 0
2, 119784, Note_off_c, 0, 61, 0
2, 119784, Note_off_c, 0, 64, 0
2, 119800, Note_on_c, 0, 61, 100
2, 119800, Note_on_c, 0, 57, 104
2, 119800, Note_on_c, 0, 69, 112
2, 119804, Note_on_c, 0, 66, 104
2, 120572, Note_off_c, 0, 61, 0
2, 120576, Note_on_c, 0, 62, 104
2, 121324, Note_off_c, 0, 62, 0
2, 121336, Note_on_c, 0, 64, 104
2, 121340, Note_off_c, 0, 66, 0
2, 121340, Note_on_c, 0, 61, 96
2, 122104, Note_off_c, 0, 69, 0
2, 122108, Note_on_c, 0, 59, 88
2, 122112, Note_on_c, 0, 56, 100
2, 122112, Note_on_c, 0, 68, 96
2, 122116, Note_off_c, 0, 61, 0
2, 122124, Note_off_c, 0, 57, 0
2, 122392, Note_on_c, 0, 69, 96
2, 122428, Note_off_c, 0, 68, 0
2, 122652, Note_off_c, 0, 69, 0
2, 122680, Note_on_c, 0, 68, 100
2, 122684, Note_off_c, 0, 56, 0
2, 122812, Note_off_c, 0, 64, 0
2, 122868, Note_off_c, 0, 59, 0
2, 122876, Note_off_c, 0, 68, 0
2, 122880, Note_on_c, 0, 66, 104
2, 122880, Note_on_c, 0, 69, 112
2, 122880, Note_on_c, 0, 57, 104
2, 122884, Note_on_c, 0, 61, 100
2, 123644, Note_off_c, 0, 61, 0
2, 123644, Note_on_c, 0, 62, 104
2, 124392, Note_off_c, 0, 62, 0
2, 124412, Note_off_c, 0, 66, 0
2, 124416, Note_on_c, 0, 64, 104
2, 124416, Note_on_c, 0, 61, 96
2, 125180, Note_off_c, 0, 69, 0
2, 125180, Note_on_c, 0, 59, 88
2, 125180, Note_on_c, 0, 56, 100
2, 125184, Note_off_c, 0, 61, 0
2, 125184, Note_on_c, 0, 68, 96
2, 125192, Note_off_c, 0, 57, 0
2, 125464, Note_on_c, 0, 69, 96
2, 125492, Note_off_c, 0, 68, 0
2, 125724, Note_off_c, 0, 69, 0
2, 125752, Note_on_c, 0, 68, 100
2, 125756, Note_off_c, 0, 56, 0
2, 125884, Note_off_c, 0, 64, 0
2, 125940, Note_off_c, 0, 59, 0
2, 125944, Note_off_c, 0, 68, 0
2, 125948, Note_on_c, 0, 61, 100
2, 125948, Note_on_c, 0, 57, 104
2, 125952, Note_on_c, 0, 69, 112
2, 125960, Note_on_c, 0, 66, 104
2, 126716, Note_off_c, 0, 61, 0
2, 126716, Note_on_c, 0, 62, 104
2, 127468, Note_off_c, 0, 62, 0
2, 127476, Note_off_c, 0, 66, 0
2, 127480, Note_on_c, 0, 64, 104
2, 127480, Note_on_c, 0, 61, 96
2, 128252, Note_off_c, 0, 69, 0
2, 128252, Note_on_c, 0, 68, 96
2, 128252, Note_on_c, 0, 59, 88
2, 128256, Note_on_c, 0, 56, 100
2, 128264, Note_off_c, 0, 57, 0
2, 128264, Note_off_c, 0, 61, 0
2, 128536, Note_on_c, 0, 69, 96
2, 128568, Note_off_c, 0, 68, 0
2, 128792, Note_off_c, 0, 69, 0
2, 128824, Note_on_c, 0, 68, 100
2, 128828, Note_off_c, 0, 56, 0
2, 128956, Note_off_c, 0, 64, 0
2, 129004, Note_off_c, 0, 59, 0
2, 129004, Note_off_c, 0, 68, 0
2, 129008, Note_on_c, 0, 57, 100
2, 129008, Note_on_c, 0, 61, 104
2, 129012, Note_on_c, 0, 66, 100
2, 129012, Note_on_c, 0, 69, 108
2, 129784, Note_on_c, 0, 62, 92
2, 129816, Note_off_c, 0, 61, 0
2, 130548, Note_on_c, 0, 64, 100
2, 130548, Note_on_c, 0, 61, 92
2, 130556, Note_off_c, 0, 62, 0
2, 130564, Note_off_c, 0, 66, 0
2, 131316, Note_off_c, 0, 69, 0
2, 131328, Note_on_c, 0, 56, 100
2, 131328, Note_on_c, 0, 68, 88
2, 131332, Note_off_c, 0, 57, 0
2, 132060, Note_off_c, 0, 61, 0
2, 132060, Note_off_c, 0, 64, 0
2, 132064, Note_off_c, 0, 68, 0
2, 132084, Note_on_c, 0, 52, 84
2, 132084, Note_on_c, 0, 59, 96
2, 132828, Note_off_c, 0, 56, 0
2, 132852, Note_off_c, 0, 52, 0
2, 132852, Note_off_c, 0, 59, 0
2, 132860, Note_on_c, 0, 54, 76
2, 132860, Note_on_c, 0, 57, 96
2, 132864, Note_on_c, 0, 59, 92
2, 133304, Note_off_c, 0, 54, 0
2, 133340, Note_off_c, 0, 57, 0
2, 133340, Note_off_c, 0, 59, 0
2, 133340, Note_on_c, 0, 59, 100
2, 133340, Note_on_c, 0, 56, 100
2, 133340, Note_on_c, 0, 64, 96
2, 133616, Note_off_c, 0, 56, 0
2, 133628, Note_off_c, 0, 64, 0
2, 133632, Note_on_c, 0, 61, 97
2, 133632, Note_on_c, 0, 57, 97
2, 133636, Note_on_c, 0, 52, 97
2, 133820, Note_off_c, 0, 59, 0
2, 133868, Note_off_c, 0, 61, 0
2, 133868, Note_off_c, 0, 52, 0
2, 133884, Note_off_c, 0, 57, 0
2, 133908, Note_on_c, 0, 57, 95
2, 133912, Note_on_c, 0, 52, 95
2, 133916, Note_on_c, 0, 61, 95
2, 133972, Note_off_c, 0, 52, 0
2, 133976, Note_off_c, 0, 61, 0
2, 133980, Note_off_c, 0, 57, 0
2, 134104, Note_on_c, 0, 61, 94
2, 134104, Note_on_c, 0, 52, 94
2, 134108, Note_on_c, 0, 57, 94
2, 134156, Note_off_c, 0, 52, 0
2, 134164, Note_off_c, 0, 61, 0
2, 134164, Note_off_c, 0, 57, 0
2, 134284, Note_on_c, 0, 57, 93
2, 134292, Note_on_c, 0, 61, 93
2, 134296, Note_on_c, 0, 52, 93
2, 134316, Note_off_c, 0, 52, 0
2, 134324, Note_off_c, 0, 61, 0
2, 134332, Note_off_c, 0, 57, 0
2, 134392, Note_on_c, 0, 57, 92
2, 134396, Note_on_c, 0, 61, 92
2, 134396, Note_on_c, 0, 52, 92
2, 134452, Note_off_c, 0, 52, 0
2, 134476, Note_off_c, 0, 57, 0
2, 134480, Note_off_c, 0, 61, 0
2, 134576, Note_on_c, 0, 56, 91
2, 134576, Note_on_c, 0, 59, 91
2, 134576, Note_on_c, 0, 51, 91
2, 134636, Note_off_c, 0, 51, 0
2, 134644, Note_off_c, 0, 56, 0
2, 134644, Note_off_c, 0, 59, 0
2, 134780, Note_on_c, 0, 64, 89
2, 134780, Note_on_c, 0, 61, 89
2, 134784, Note_on_c, 0, 56, 89
2, 136648, Note_off_c, 0, 61, 0
2, 136652, Note_off_c, 0, 56, 0
2, 136652, Note_off_c, 0, 64, 0
2, 136692, Note_on_c, 0, 61, 76
2, 136692, Note_on_c, 0, 57, 76
2, 136692, Note_on_c, 0, 52, 76
2, 136936, Note_off_c, 0, 61, 0
2, 136940, Note_off_c, 0, 52, 0
2, 136952, Note_off_c, 0, 57, 0
2, 136984, Note_on_c, 0, 61, 73
2, 136984, Note_on_c, 0, 52, 73
2, 136984, Note_on_c, 0, 57, 73
2, 137044, Note_off_c, 0, 52, 0
2, 137048, Note_off_c, 0, 61, 0
2, 137052, Note_off_c, 0, 57, 0
2, 137172, Note_on_c, 0, 57, 72
2, 137180, Note_on_c, 0, 61, 72
2, 137180, Note_on_c, 0, 52, 72
2, 137228, Note_off_c, 0, 52, 0
2, 137232, Note_off_c, 0, 57, 0
2, 137232, Note_off_c, 0, 61, 0
2, 137368, Note_on_c, 0, 52, 71
2, 137368, Note_on_c, 0, 61, 71
2, 137372, Note_on_c, 0, 57, 71
2, 137396, Note_off_c, 0, 52, 0
2, 137400, Note_off_c, 0, 61, 0
2, 137404, Note_off_c, 0, 57, 0
2, 137468, Note_on_c, 0, 61, 70
2, 137468, Note_on_c, 0, 52, 70
2, 137468, Note_on_c, 0, 57, 70
2, 137528, Note_off_c, 0, 52, 0
2, 137556, Note_off_c, 0, 57, 0
2, 137560, Note_off_c, 0, 61, 0
2, 137656, Note_on_c, 0, 56, 69
2, 137656, Note_on_c, 0, 59, 69
2, 137656, Note_on_c, 0, 51, 69
2, 137708, Note_off_c, 0, 51, 0
2, 137712, Note_off_c, 0, 56, 0
2, 137724, Note_off_c, 0, 59, 0
2, 137844, Note_on_c, 0, 61, 67
2, 137848, Note_on_c, 0, 56, 67
2, 137856, Note_on_c, 0, 64, 67
2, 139724, Note_off_c, 0, 64, 0
2, 139728, Note_off_c, 0, 56, 0
2, 139732, Note_off_c, 0, 61, 0
2, 139772, Note_on_c, 0, 61, 54
2, 139772, Note_on_c, 0, 57, 54
2, 139776, Note_on_c, 0, 52, 54
2, 140004, Note_off_c, 0, 61, 0
2, 140012, Note_off_c, 0, 52, 0
2, 140024, Note_off_c, 0, 57, 0
2, 140056, Note_on_c, 0, 61, 52
2, 140060, Note_on_c, 0, 52, 52
2, 140060, Note_on_c, 0, 57, 52
2, 140116, Note_off_c, 0, 52, 0
2, 140120, Note_off_c, 0, 61, 0
2, 140124, Note_off_c, 0, 57, 0
2, 140248, Note_on_c, 0, 57, 50
2, 140248, Note_on_c, 0, 61, 50
2, 140252, Note_on_c, 0, 52, 50
2, 140300, Note_off_c, 0, 61, 0
2, 140300, Note_off_c, 0, 52, 0
2, 140304, Note_off_c, 0, 57, 0
2, 140440, Note_on_c, 0, 52, 49
2, 140444, Note_on_c, 0, 61, 49
2, 140444, Note_on_c, 0, 57, 49
2, 140468, Note_off_c, 0, 52, 0
2, 140472, Note_off_c, 0, 61, 0
2, 140476, Note_off_c, 0, 57, 0
2, 140540, Note_on_c, 0, 61, 48
2, 140540, Note_on_c, 0, 52, 48
2, 140544, Note_on_c, 0, 57, 48
2, 140600, Note_off_c, 0, 52, 0
2, 140624, Note_off_c, 0, 57, 0
2, 140628, Note_off_c, 0, 61, 0
2, 140724, Note_on_c, 0, 51, 47
2, 140728, Note_on_c, 0, 56, 47
2, 140732, Note_on_c, 0, 59, 47
2, 140780, Note_off_c, 0, 51, 0
2, 140784, Note_off_c, 0, 56, 0
2, 140788, Note_off_c, 0, 59, 0
2, 140924, Note_on_c, 0, 64, 45
2, 140928, Note_on_c, 0, 61, 45
2, 140928, Note_on_c, 0, 56, 45
2, 142796, Note_off_c, 0, 64, 0
2, 142800, Note_off_c, 0, 61, 0
2, 142804, Note_off_c, 0, 56, 0
2, 142836, Note_on_c, 0, 52, 32
2, 142844, Note_on_c, 0, 61, 32
2, 142848, Note_on_c, 0, 57, 32
2, 143080, Note_off_c, 0, 61, 0
2, 143084, Note_off_c, 0, 52, 0
2, 143100, Note_off_c, 0, 57, 0
2, 143132, Note_on_c, 0, 57, 30
2, 143132, Note_on_c, 0, 61, 30
2, 143132, Note_on_c, 0, 52, 30
2, 143188, Note_off_c, 0, 52, 0
2, 143192, Note_off_c, 0, 61, 0
2, 143196, Note_off_c, 0, 57, 0
2, 143320, Note_on_c, 0, 57, 28
2, 143324, Note_on_c, 0, 61, 28
2, 143324, Note_on_c, 0, 52, 28
2, 143372, Note_off_c, 0, 52, 0
2, 143376, Note_off_c, 0, 57, 0
2, 143376, Note_off_c, 0, 61, 0
2, 143508, Note_on_c, 0, 52, 27
2, 143508, Note_on_c, 0, 61, 27
2, 143508, Note_on_c, 0, 57, 27
2, 143540, Note_off_c, 0, 52, 0
2, 143540, Note_off_c, 0, 61, 0
2, 143548, Note_off_c, 0, 57, 0
2, 143608, Note_on_c, 0, 61, 26
2, 143612, Note_on_c, 0, 52, 26
2, 143612, Note_on_c, 0, 57, 26
2, 143660, Note_off_c, 0, 52, 0
2, 143704, Note_off_c, 0, 61, 0
2, 143704, Note_off_c, 0, 57, 0
2, 143800, Note_on_c, 0, 56, 25
2, 143800, Note_on_c, 0, 59, 25
2, 143800, Note_on_c, 0, 51, 25
2, 143852, Note_off_c, 0, 51, 0
2, 143856, Note_off_c, 0, 56, 0
2, 143864, Note_off_c, 0, 59, 0
2, 143992, Note_on_c, 0, 56, 23
2, 143996, Note_on_c, 0, 64, 23
2, 144000, Note_on_c, 0, 61, 23
2, 145868, Note_off_c, 0, 61, 0
2, 145868, Note_off_c, 0, 64, 0
2, 145876, Note_off_c, 0, 56, 0
2, 145876, End_track
3, 0, Start_track
3, 0, Control_c, 1, 0, 0
3, 0, Program_c, 1, 35
3, 0, Control_c, 1, 10, 64
3, 0, Control_c, 1, 91, 60
3, 0, Control_c, 1, 93, 0
3, 0, Key_signature, 0, "major"
3, 0, Control_c, 1, 7, 100
3, 7668, Note_on_c, 1, 33, 127
3, 7928, Note_off_c, 1, 33, 0
3, 7956, Note_on_c, 1, 33, 127
3, 8028, Note_off_c, 1, 33, 0
3, 8148, Note_on_c, 1, 33, 127
3, 8236, Note_off_c, 1, 33, 0
3, 8340, Note_on_c, 1, 33, 127
3, 8380, Note_off_c, 1, 33, 0
3, 8436, Note_on_c, 1, 33, 127
3, 8524, Note_off_c, 1, 33, 0
3, 8628, Note_on_c, 1, 32, 127
3, 8708, Note_off_c, 1, 32, 0
3, 8820, Note_on_c, 1, 37, 127
3, 10592, Note_off_c, 1, 37, 0
3, 10744, Note_on_c, 1, 33, 127
3, 10996, Note_off_c, 1, 33, 0
3, 11028, Note_on_c, 1, 33, 127
3, 11100, Note_off_c, 1, 33, 0
3, 11224, Note_on_c, 1, 33, 127
3, 11316, Note_off_c, 1, 33, 0
3, 11412, Note_on_c, 1, 33, 127
3, 11448, Note_off_c, 1, 33, 0
3, 11508, Note_on_c, 1, 33, 127
3, 11596, Note_off_c, 1, 33, 0
3, 11700, Note_on_c, 1, 32, 127
3, 11768, Note_off_c, 1, 32, 0
3, 11892, Note_on_c, 1, 37, 127
3, 13660, Note_off_c, 1, 37, 0
3, 13812, Note_on_c, 1, 33, 127
3, 14072, Note_off_c, 1, 33, 0
3, 14100, Note_on_c, 1, 33, 127
3, 14180, Note_off_c, 1, 33, 0
3, 14292, Note_on_c, 1, 33, 127
3, 14380, Note_off_c, 1, 33, 0
3, 14484, Note_on_c, 1, 33, 127
3, 14524, Note_off_c, 1, 33, 0
3, 14580, Note_on_c, 1, 33, 127
3, 14668, Note_off_c, 1, 33, 0
3, 14772, Note_on_c, 1, 32, 127
3, 14840, Note_off_c, 1, 32, 0
3, 14964, Note_on_c, 1, 37, 127
3, 16740, Note_off_c, 1, 37, 0
3, 16884, Note_on_c, 1, 33, 127
3, 17136, Note_off_c, 1, 33, 0
3, 17172, Note_on_c, 1, 33, 127
3, 17248, Note_off_c, 1, 33, 0
3, 17364, Note_on_c, 1, 33, 127
3, 17452, Note_off_c, 1, 33, 0
3, 17556, Note_on_c, 1, 33, 127
3, 17596, Note_off_c, 1, 33, 0
3, 17652, Note_on_c, 1, 33, 127
3, 17736, Note_off_c, 1, 33, 0
3, 17848, Note_on_c, 1, 32, 127
3, 17908, Note_off_c, 1, 32, 0
3, 18036, Note_on_c, 1, 37, 127
3, 19812, Note_off_c, 1, 37, 0
3, 19956, Note_on_c, 1, 35, 127
3, 20200, Note_off_c, 1, 35, 0
3, 20244, Note_on_c, 1, 35, 127
3, 20292, Note_off_c, 1, 35, 0
3, 20340, Note_on_c, 1, 35, 127
3, 20508, Note_off_c, 1, 35, 0
3, 20724, Note_on_c, 1, 39, 127
3, 20948, Note_off_c, 1, 39, 0
3, 21012, Note_on_c, 1, 39, 127
3, 21064, Note_off_c, 1, 39, 0
3, 21108, Note_on_c, 1, 39, 127
3, 21244, Note_off_c, 1, 39, 0
3, 21492, Note_on_c, 1, 32, 127
3, 21708, Note_off_c, 1, 32, 0
3, 21780, Note_on_c, 1, 32, 127
3, 21828, Note_off_c, 1, 32, 0
3, 21876, Note_on_c, 1, 32, 127
3, 21944, Note_off_c, 1, 32, 0
3, 22260, Note_on_c, 1, 30, 127
3, 22452, Note_off_c, 1, 30, 0
3, 22548, Note_on_c, 1, 30, 127
3, 22604, Note_off_c, 1, 30, 0
3, 22644, Note_on_c, 1, 30, 127
3, 22760, Note_off_c, 1, 30, 0
3, 23028, Note_on_c, 1, 40, 127
3, 23256, Note_off_c, 1, 40, 0
3, 23312, Note_on_c, 1, 40, 127
3, 23364, Note_off_c, 1, 40, 0
3, 23412, Note_on_c, 1, 40, 127
3, 23524, Note_off_c, 1, 40, 0
3, 23796, Note_on_c, 1, 30, 127
3, 24012, Note_off_c, 1, 30, 0
3, 24084, Note_on_c, 1, 30, 127
3, 24132, Note_off_c, 1, 30, 0
3, 24180, Note_on_c, 1, 30, 127
3, 24280, Note_off_c, 1, 30, 0
3, 24564, Note_on_c, 1, 32, 127
3, 24772, Note_off_c, 1, 32, 0
3, 24852, Note_on_c, 1, 32, 127
3, 24900, Note_off_c, 1, 32, 0
3, 24948, Note_on_c, 1, 32, 127
3, 25068, Note_off_c, 1, 32, 0
3, 25332, Note_on_c, 1, 33, 127
3, 25556, Note_off_c, 1, 33, 0
3, 25620, Note_on_c, 1, 33, 127
3, 25672, Note_off_c, 1, 33, 0
3, 25812, Note_on_c, 1, 33, 127
3, 25868, Note_off_c, 1, 33, 0
3, 26004, Note_on_c, 1, 33, 127
3, 26044, Note_off_c, 1, 33, 0
3, 26100, Note_on_c, 1, 33, 127
3, 26172, Note_off_c, 1, 33, 0
3, 26292, Note_on_c, 1, 32, 127
3, 26348, Note_off_c, 1, 32, 0
3, 26484, Note_on_c, 1, 37, 127
3, 26844, Note_off_c, 1, 37, 0
3, 26868, Note_on_c, 1, 35, 127
3, 27116, Note_off_c, 1, 35, 0
3, 27156, Note_on_c, 1, 35, 127
3, 27208, Note_off_c, 1, 35, 0
3, 27252, Note_on_c, 1, 35, 127
3, 27428, Note_off_c, 1, 35, 0
3, 27636, Note_on_c, 1, 39, 127
3, 27868, Note_off_c, 1, 39, 0
3, 27924, Note_on_c, 1, 39, 127
3, 27976, Note_off_c, 1, 39, 0
3, 28020, Note_on_c, 1, 39, 127
3, 28156, Note_off_c, 1, 39, 0
3, 28404, Note_on_c, 1, 32, 127
3, 28620, Note_off_c, 1, 32, 0
3, 28692, Note_on_c, 1, 32, 127
3, 28744, Note_off_c, 1, 32, 0
3, 28788, Note_on_c, 1, 32, 127
3, 28836, Note_off_c, 1, 32, 0
3, 29172, Note_on_c, 1, 30, 127
3, 29372, Note_off_c, 1, 30, 0
3, 29460, Note_on_c, 1, 30, 127
3, 29516, Note_off_c, 1, 30, 0
3, 29556, Note_on_c, 1, 30, 127
3, 29676, Note_off_c, 1, 30, 0
3, 29940, Note_on_c, 1, 40, 127
3, 30164, Note_off_c, 1, 40, 0
3, 30228, Note_on_c, 1, 40, 127
3, 30264, Note_off_c, 1, 40, 0
3, 30324, Note_on_c, 1, 40, 127
3, 30428, Note_off_c, 1, 40, 0
3, 30704, Note_on_c, 1, 30, 127
3, 30924, Note_off_c, 1, 30, 0
3, 30996, Note_on_c, 1, 30, 127
3, 31044, Note_off_c, 1, 30, 0
3, 31092, Note_on_c, 1, 30, 127
3, 31196, Note_off_c, 1, 30, 0
3, 31476, Note_on_c, 1, 32, 127
3, 31692, Note_off_c, 1, 32, 0
3, 31764, Note_on_c, 1, 32, 127
3, 31812, Note_off_c, 1, 32, 0
3, 31860, Note_on_c, 1, 32, 127
3, 31988, Note_off_c, 1, 32, 0
3, 32240, Note_on_c, 1, 33, 127
3, 32476, Note_off_c, 1, 33, 0
3, 32532, Note_on_c, 1, 33, 127
3, 32588, Note_off_c, 1, 33, 0
3, 32724, Note_on_c, 1, 33, 127
3, 32780, Note_off_c, 1, 33, 0
3, 32916, Note_on_c, 1, 33, 127
3, 32964, Note_off_c, 1, 33, 0
3, 33012, Note_on_c, 1, 33, 127
3, 33092, Note_off_c, 1, 33, 0
3, 33204, Note_on_c, 1, 32, 127
3, 33260, Note_off_c, 1, 32, 0
3, 33396, Note_on_c, 1, 37, 127
3, 33756, Note_off_c, 1, 37, 0
3, 33780, Note_on_c, 1, 35, 127
3, 34028, Note_off_c, 1, 35, 0
3, 34068, Note_on_c, 1, 35, 127
3, 34120, Note_off_c, 1, 35, 0
3, 34164, Note_on_c, 1, 35, 127
3, 34340, Note_off_c, 1, 35, 0
3, 34548, Note_on_c, 1, 39, 127
3, 34780, Note_off_c, 1, 39, 0
3, 34836, Note_on_c, 1, 39, 127
3, 34884, Note_off_c, 1, 39, 0
3, 34932, Note_on_c, 1, 39, 127
3, 35068, Note_off_c, 1, 39, 0
3, 35316, Note_on_c, 1, 32, 127
3, 35532, Note_off_c, 1, 32, 0
3, 35604, Note_on_c, 1, 32, 127
3, 35652, Note_off_c, 1, 32, 0
3, 35700, Note_on_c, 1, 32, 127
3, 35772, Note_off_c, 1, 32, 0
3, 36084, Note_on_c, 1, 30, 127
3, 36280, Note_off_c, 1, 30, 0
3, 36372, Note_on_c, 1, 30, 127
3, 36424, Note_off_c, 1, 30, 0
3, 36468, Note_on_c, 1, 30, 127
3, 36588, Note_off_c, 1, 30, 0
3, 36852, Note_on_c, 1, 40, 127
3, 37080, Note_off_c, 1, 40, 0
3, 37140, Note_on_c, 1, 40, 127
3, 37180, Note_off_c, 1, 40, 0
3, 37236, Note_on_c, 1, 40, 127
3, 37336, Note_off_c, 1, 40, 0
3, 37620, Note_on_c, 1, 30, 127
3, 37836, Note_off_c, 1, 30, 0
3, 37904, Note_on_c, 1, 30, 127
3, 37960, Note_off_c, 1, 30, 0
3, 38004, Note_on_c, 1, 30, 127
3, 38108, Note_off_c, 1, 30, 0
3, 38388, Note_on_c, 1, 32, 127
3, 38604, Note_off_c, 1, 32, 0
3, 38676, Note_on_c, 1, 32, 127
3, 38724, Note_off_c, 1, 32, 0
3, 38772, Note_on_c, 1, 32, 127
3, 38904, Note_off_c, 1, 32, 0
3, 39156, Note_on_c, 1, 33, 127
3, 39380, Note_off_c, 1, 33, 0
3, 39444, Note_on_c, 1, 33, 127
3, 39500, Note_off_c, 1, 33, 0
3, 39636, Note_on_c, 1, 33, 127
3, 39692, Note_off_c, 1, 33, 0
3, 39828, Note_on_c, 1, 33, 127
3, 39872, Note_off_c, 1, 33, 0
3, 39924, Note_on_c, 1, 33, 127
3, 40004, Note_off_c, 1, 33, 0
3, 40116, Note_on_c, 1, 32, 127
3, 40172, Note_off_c, 1, 32, 0
3, 40308, Note_on_c, 1, 37, 127
3, 40668, Note_off_c, 1, 37, 0
3, 40692, Note_on_c, 1, 35, 127
3, 40908, Note_off_c, 1, 35, 0
3, 40980, Note_on_c, 1, 35, 108
3, 41020, Note_off_c, 1, 35, 0
3, 41076, Note_on_c, 1, 35, 127
3, 41460, Note_on_c, 1, 39, 127
3, 41500, Note_off_c, 1, 35, 0
3, 41676, Note_off_c, 1, 39, 0
3, 41748, Note_on_c, 1, 39, 118
3, 41800, Note_off_c, 1, 39, 0
3, 41844, Note_on_c, 1, 39, 127
3, 42228, Note_on_c, 1, 32, 118
3, 42236, Note_off_c, 1, 39, 0
3, 42472, Note_off_c, 1, 32, 0
3, 42516, Note_on_c, 1, 32, 127
3, 42540, Note_off_c, 1, 32, 0
3, 42612, Note_on_c, 1, 32, 127
3, 42916, Note_off_c, 1, 32, 0
3, 42996, Note_on_c, 1, 32, 127
3, 43220, Note_off_c, 1, 32, 0
3, 43284, Note_on_c, 1, 32, 108
3, 43300, Note_off_c, 1, 32, 0
3, 43380, Note_on_c, 1, 32, 127
3, 43740, Note_off_c, 1, 32, 0
3, 43764, Note_on_c, 1, 33, 127
3, 44004, Note_off_c, 1, 33, 0
3, 44052, Note_on_c, 1, 33, 127
3, 44152, Note_off_c, 1, 33, 0
3, 44244, Note_on_c, 1, 33, 127
3, 44340, Note_off_c, 1, 33, 0
3, 44436, Note_on_c, 1, 33, 118
3, 44472, Note_off_c, 1, 33, 0
3, 44532, Note_on_c, 1, 33, 127
3, 44612, Note_off_c, 1, 33, 0
3, 44724, Note_on_c, 1, 32, 123
3, 44780, Note_off_c, 1, 32, 0
3, 44916, Note_on_c, 1, 37, 127
3, 46836, Note_on_c, 1, 30, 127
3, 46844, Note_off_c, 1, 37, 0
3, 47044, Note_off_c, 1, 30, 0
3, 47124, Note_on_c, 1, 30, 127
3, 47176, Note_off_c, 1, 30, 0
3, 47220, Note_on_c, 1, 30, 127
3, 47428, Note_off_c, 1, 30, 0
3, 47604, Note_on_c, 1, 38, 127
3, 47812, Note_off_c, 1, 38, 0
3, 47892, Note_on_c, 1, 38, 127
3, 47948, Note_off_c, 1, 38, 0
3, 47988, Note_on_c, 1, 38, 127
3, 48252, Note_off_c, 1, 38, 0
3, 48372, Note_on_c, 1, 33, 127
3, 48584, Note_off_c, 1, 33, 0
3, 48660, Note_on_c, 1, 33, 127
3, 48708, Note_off_c, 1, 33, 0
3, 48756, Note_on_c, 1, 33, 127
3, 48988, Note_off_c, 1, 33, 0
3, 49140, Note_on_c, 1, 40, 127
3, 49336, Note_off_c, 1, 40, 0
3, 49428, Note_on_c, 1, 40, 127
3, 49484, Note_off_c, 1, 40, 0
3, 49524, Note_on_c, 1, 40, 127
3, 49716, Note_on_c, 1, 35, 127
3, 49724, Note_off_c, 1, 40, 0
3, 49884, Note_off_c, 1, 35, 0
3, 49908, Note_on_c, 1, 30, 127
3, 50116, Note_off_c, 1, 30, 0
3, 50196, Note_on_c, 1, 30, 127
3, 50244, Note_off_c, 1, 30, 0
3, 50292, Note_on_c, 1, 30, 127
3, 50500, Note_off_c, 1, 30, 0
3, 50676, Note_on_c, 1, 38, 127
3, 50876, Note_off_c, 1, 38, 0
3, 50964, Note_on_c, 1, 38, 127
3, 51020, Note_off_c, 1, 38, 0
3, 51060, Note_on_c, 1, 38, 127
3, 51336, Note_off_c, 1, 38, 0
3, 51444, Note_on_c, 1, 33, 127
3, 51660, Note_off_c, 1, 33, 0
3, 51732, Note_on_c, 1, 33, 127
3, 51780, Note_off_c, 1, 33, 0
3, 51828, Note_on_c, 1, 33, 127
3, 52052, Note_off_c, 1, 33, 0
3, 52212, Note_on_c, 1, 40, 127
3, 52412, Note_off_c, 1, 40, 0
3, 52500, Note_on_c, 1, 40, 127
3, 52556, Note_off_c, 1, 40, 0
3, 52596, Note_on_c, 1, 40, 127
3, 52788, Note_on_c, 1, 35, 127
3, 52796, Note_off_c, 1, 40, 0
3, 52956, Note_off_c, 1, 35, 0
3, 52980, Note_on_c, 1, 30, 127
3, 53196, Note_off_c, 1, 30, 0
3, 53268, Note_on_c, 1, 30, 127
3, 53320, Note_off_c, 1, 30, 0
3, 53364, Note_on_c, 1, 30, 127
3, 53572, Note_off_c, 1, 30, 0
3, 53744, Note_on_c, 1, 38, 127
3, 53948, Note_off_c, 1, 38, 0
3, 54036, Note_on_c, 1, 38, 127
3, 54088, Note_off_c, 1, 38, 0
3, 54132, Note_on_c, 1, 38, 127
3, 54396, Note_off_c, 1, 38, 0
3, 54516, Note_on_c, 1, 33, 127
3, 54724, Note_off_c, 1, 33, 0
3, 54804, Note_on_c, 1, 33, 127
3, 54856, Note_off_c, 1, 33, 0
3, 54900, Note_on_c, 1, 33, 127
3, 55124, Note_off_c, 1, 33, 0
3, 55284, Note_on_c, 1, 40, 127
3, 55492, Note_off_c, 1, 40, 0
3, 55572, Note_on_c, 1, 40, 127
3, 55624, Note_off_c, 1, 40, 0
3, 55668, Note_on_c, 1, 40, 127
3, 55860, Note_on_c, 1, 35, 127
3, 55868, Note_off_c, 1, 40, 0
3, 56028, Note_off_c, 1, 35, 0
3, 56052, Note_on_c, 1, 30, 127
3, 56276, Note_off_c, 1, 30, 0
3, 56340, Note_on_c, 1, 30, 127
3, 56396, Note_off_c, 1, 30, 0
3, 56436, Note_on_c, 1, 30, 127
3, 56648, Note_off_c, 1, 30, 0
3, 56820, Note_on_c, 1, 38, 127
3, 57028, Note_off_c, 1, 38, 0
3, 57108, Note_on_c, 1, 38, 127
3, 57164, Note_off_c, 1, 38, 0
3, 57204, Note_on_c, 1, 38, 127
3, 57444, Note_off_c, 1, 38, 0
3, 57588, Note_on_c, 1, 33, 127
3, 57784, Note_off_c, 1, 33, 0
3, 57876, Note_on_c, 1, 33, 127
3, 57924, Note_off_c, 1, 33, 0
3, 57972, Note_on_c, 1, 33, 127
3, 58252, Note_off_c, 1, 33, 0
3, 58356, Note_on_c, 1, 37, 127
3, 58584, Note_off_c, 1, 37, 0
3, 58644, Note_on_c, 1, 37, 127
3, 58684, Note_off_c, 1, 37, 0
3, 58740, Note_on_c, 1, 37, 127
3, 59000, Note_off_c, 1, 37, 0
3, 59124, Note_on_c, 1, 40, 127
3, 59332, Note_off_c, 1, 40, 0
3, 59412, Note_on_c, 1, 40, 123
3, 59468, Note_off_c, 1, 40, 0
3, 59508, Note_on_c, 1, 40, 127
3, 59788, Note_off_c, 1, 40, 0
3, 59892, Note_on_c, 1, 30, 127
3, 60084, Note_off_c, 1, 30, 0
3, 60180, Note_on_c, 1, 30, 127
3, 60220, Note_off_c, 1, 30, 0
3, 60276, Note_on_c, 1, 30, 127
3, 60328, Note_off_c, 1, 30, 0
3, 60372, Note_on_c, 1, 32, 127
3, 60652, Note_off_c, 1, 32, 0
3, 60656, Note_on_c, 1, 33, 127
3, 60908, Note_off_c, 1, 33, 0
3, 60948, Note_on_c, 1, 33, 127
3, 61032, Note_off_c, 1, 33, 0
3, 61140, Note_on_c, 1, 33, 127
3, 61228, Note_off_c, 1, 33, 0
3, 61332, Note_on_c, 1, 33, 127
3, 61372, Note_off_c, 1, 33, 0
3, 61428, Note_on_c, 1, 33, 127
3, 61516, Note_off_c, 1, 33, 0
3, 61620, Note_on_c, 1, 32, 127
3, 61688, Note_off_c, 1, 32, 0
3, 61812, Note_on_c, 1, 37, 127
3, 63588, Note_off_c, 1, 37, 0
3, 63732, Note_on_c, 1, 33, 127
3, 63984, Note_off_c, 1, 33, 0
3, 64020, Note_on_c, 1, 33, 127
3, 64092, Note_off_c, 1, 33, 0
3, 64212, Note_on_c, 1, 33, 127
3, 64300, Note_off_c, 1, 33, 0
3, 64404, Note_on_c, 1, 33, 127
3, 64444, Note_off_c, 1, 33, 0
3, 64500, Note_on_c, 1, 33, 127
3, 64596, Note_off_c, 1, 33, 0
3, 64692, Note_on_c, 1, 32, 127
3, 64760, Note_off_c, 1, 32, 0
3, 64880, Note_on_c, 1, 37, 127
3, 66652, Note_off_c, 1, 37, 0
3, 66804, Note_on_c, 1, 35, 127
3, 67060, Note_off_c, 1, 35, 0
3, 67092, Note_on_c, 1, 35, 127
3, 67140, Note_off_c, 1, 35, 0
3, 67188, Note_on_c, 1, 35, 127
3, 67356, Note_off_c, 1, 35, 0
3, 67572, Note_on_c, 1, 39, 127
3, 67804, Note_off_c, 1, 39, 0
3, 67860, Note_on_c, 1, 39, 127
3, 67908, Note_off_c, 1, 39, 0
3, 67956, Note_on_c, 1, 39, 127
3, 68088, Note_off_c, 1, 39, 0
3, 68340, Note_on_c, 1, 32, 127
3, 68556, Note_off_c, 1, 32, 0
3, 68628, Note_on_c, 1, 32, 127
3, 68676, Note_off_c, 1, 32, 0
3, 68724, Note_on_c, 1, 32, 127
3, 68780, Note_off_c, 1, 32, 0
3, 69108, Note_on_c, 1, 30, 127
3, 69308, Note_off_c, 1, 30, 0
3, 69396, Note_on_c, 1, 30, 127
3, 69448, Note_off_c, 1, 30, 0
3, 69492, Note_on_c, 1, 30, 127
3, 69612, Note_off_c, 1, 30, 0
3, 69876, Note_on_c, 1, 40, 127
3, 70100, Note_off_c, 1, 40, 0
3, 70164, Note_on_c, 1, 40, 127
3, 70216, Note_off_c, 1, 40, 0
3, 70260, Note_on_c, 1, 40, 127
3, 70364, Note_off_c, 1, 40, 0
3, 70640, Note_on_c, 1, 30, 127
3, 70856, Note_off_c, 1, 30, 0
3, 70932, Note_on_c, 1, 30, 127
3, 70976, Note_off_c, 1, 30, 0
3, 71028, Note_on_c, 1, 30, 127
3, 71128, Note_off_c, 1, 30, 0
3, 71412, Note_on_c, 1, 32, 127
3, 71628, Note_off_c, 1, 32, 0
3, 71700, Note_on_c, 1, 32, 127
3, 71752, Note_off_c, 1, 32, 0
3, 71796, Note_on_c, 1, 32, 127
3, 71924, Note_off_c, 1, 32, 0
3, 72180, Note_on_c, 1, 33, 127
3, 72408, Note_off_c, 1, 33, 0
3, 72468, Note_on_c, 1, 33, 127
3, 72516, Note_off_c, 1, 33, 0
3, 72660, Note_on_c, 1, 33, 127
3, 72716, Note_off_c, 1, 33, 0
3, 72852, Note_on_c, 1, 33, 127
3, 72900, Note_off_c, 1, 33, 0
3, 72948, Note_on_c, 1, 33, 127
3, 73032, Note_off_c, 1, 33, 0
3, 73140, Note_on_c, 1, 32, 127
3, 73192, Note_off_c, 1, 32, 0
3, 73332, Note_on_c, 1, 37, 127
3, 73692, Note_off_c, 1, 37, 0
3, 73716, Note_on_c, 1, 35, 127
3, 73972, Note_off_c, 1, 35, 0
3, 74004, Note_on_c, 1, 35, 127
3, 74056, Note_off_c, 1, 35, 0
3, 74100, Note_on_c, 1, 35, 127
3, 74268, Note_off_c, 1, 35, 0
3, 74484, Note_on_c, 1, 39, 127
3, 74712, Note_off_c, 1, 39, 0
3, 74772, Note_on_c, 1, 39, 127
3, 74820, Note_off_c, 1, 39, 0
3, 74868, Note_on_c, 1, 39, 127
3, 75012, Note_off_c, 1, 39, 0
3, 75256, Note_on_c, 1, 32, 127
3, 75468, Note_off_c, 1, 32, 0
3, 75540, Note_on_c, 1, 32, 127
3, 75588, Note_off_c, 1, 32, 0
3, 75636, Note_on_c, 1, 32, 127
3, 75692, Note_off_c, 1, 32, 0
3, 76016, Note_on_c, 1, 30, 127
3, 76212, Note_off_c, 1, 30, 0
3, 76308, Note_on_c, 1, 30, 127
3, 76356, Note_off_c, 1, 30, 0
3, 76404, Note_on_c, 1, 30, 127
3, 76520, Note_off_c, 1, 30, 0
3, 76788, Note_on_c, 1, 40, 127
3, 77004, Note_off_c, 1, 40, 0
3, 77076, Note_on_c, 1, 40, 127
3, 77116, Note_off_c, 1, 40, 0
3, 77172, Note_on_c, 1, 40, 127
3, 77272, Note_off_c, 1, 40, 0
3, 77556, Note_on_c, 1, 30, 127
3, 77772, Note_off_c, 1, 30, 0
3, 77844, Note_on_c, 1, 30, 127
3, 77900, Note_off_c, 1, 30, 0
3, 77940, Note_on_c, 1, 30, 127
3, 78044, Note_off_c, 1, 30, 0
3, 78324, Note_on_c, 1, 32, 127
3, 78532, Note_off_c, 1, 32, 0
3, 78612, Note_on_c, 1, 32, 127
3, 78660, Note_off_c, 1, 32, 0
3, 78708, Note_on_c, 1, 32, 127
3, 78836, Note_off_c, 1, 32, 0
3, 79092, Note_on_c, 1, 33, 127
3, 79316, Note_off_c, 1, 33, 0
3, 79380, Note_on_c, 1, 33, 127
3, 79428, Note_off_c, 1, 33, 0
3, 79572, Note_on_c, 1, 33, 127
3, 79628, Note_off_c, 1, 33, 0
3, 79764, Note_on_c, 1, 33, 127
3, 79812, Note_off_c, 1, 33, 0
3, 79864, Note_on_c, 1, 33, 127
3, 79944, Note_off_c, 1, 33, 0
3, 80052, Note_on_c, 1, 32, 127
3, 80108, Note_off_c, 1, 32, 0
3, 80244, Note_on_c, 1, 37, 127
3, 80612, Note_off_c, 1, 37, 0
3, 80628, Note_on_c, 1, 35, 127
3, 80844, Note_off_c, 1, 35, 0
3, 80916, Note_on_c, 1, 35, 127
3, 80964, Note_off_c, 1, 35, 0
3, 81012, Note_on_c, 1, 35, 127
3, 81396, Note_on_c, 1, 39, 127
3, 81428, Note_off_c, 1, 35, 0
3, 81612, Note_off_c, 1, 39, 0
3, 81684, Note_on_c, 1, 39, 127
3, 81736, Note_off_c, 1, 39, 0
3, 81780, Note_on_c, 1, 39, 127
3, 82164, Note_on_c, 1, 32, 127
3, 82172, Note_off_c, 1, 39, 0
3, 82408, Note_off_c, 1, 32, 0
3, 82452, Note_on_c, 1, 32, 127
3, 82476, Note_off_c, 1, 32, 0
3, 82548, Note_on_c, 1, 32, 127
3, 82856, Note_off_c, 1, 32, 0
3, 82932, Note_on_c, 1, 32, 127
3, 83148, Note_off_c, 1, 32, 0
3, 83220, Note_on_c, 1, 32, 108
3, 83236, Note_off_c, 1, 32, 0
3, 83316, Note_on_c, 1, 32, 127
3, 83672, Note_off_c, 1, 32, 0
3, 83704, Note_on_c, 1, 33, 127
3, 83940, Note_off_c, 1, 33, 0
3, 83992, Note_on_c, 1, 33, 127
3, 84092, Note_off_c, 1, 33, 0
3, 84180, Note_on_c, 1, 33, 127
3, 84276, Note_off_c, 1, 33, 0
3, 84372, Note_on_c, 1, 33, 118
3, 84396, Note_off_c, 1, 33, 0
3, 84464, Note_on_c, 1, 33, 127
3, 84548, Note_off_c, 1, 33, 0
3, 84660, Note_on_c, 1, 32, 123
3, 84716, Note_off_c, 1, 32, 0
3, 84852, Note_on_c, 1, 37, 127
3, 86772, Note_on_c, 1, 30, 127
3, 86780, Note_off_c, 1, 37, 0
3, 86988, Note_off_c, 1, 30, 0
3, 87060, Note_on_c, 1, 30, 127
3, 87100, Note_off_c, 1, 30, 0
3, 87156, Note_on_c, 1, 30, 127
3, 87364, Note_off_c, 1, 30, 0
3, 87540, Note_on_c, 1, 38, 127
3, 87748, Note_off_c, 1, 38, 0
3, 87828, Note_on_c, 1, 38, 127
3, 87876, Note_off_c, 1, 38, 0
3, 87924, Note_on_c, 1, 38, 127
3, 88196, Note_off_c, 1, 38, 0
3, 88308, Note_on_c, 1, 33, 127
3, 88520, Note_off_c, 1, 33, 0
3, 88596, Note_on_c, 1, 33, 127
3, 88636, Note_off_c, 1, 33, 0
3, 88692, Note_on_c, 1, 33, 127
3, 88924, Note_off_c, 1, 33, 0
3, 89076, Note_on_c, 1, 40, 127
3, 89276, Note_off_c, 1, 40, 0
3, 89364, Note_on_c, 1, 40, 127
3, 89420, Note_off_c, 1, 40, 0
3, 89460, Note_on_c, 1, 40, 127
3, 89652, Note_on_c, 1, 35, 127
3, 89660, Note_off_c, 1, 40, 0
3, 89820, Note_off_c, 1, 35, 0
3, 89840, Note_on_c, 1, 30, 127
3, 90056, Note_off_c, 1, 30, 0
3, 90132, Note_on_c, 1, 30, 127
3, 90184, Note_off_c, 1, 30, 0
3, 90228, Note_on_c, 1, 30, 127
3, 90436, Note_off_c, 1, 30, 0
3, 90612, Note_on_c, 1, 38, 127
3, 90812, Note_off_c, 1, 38, 0
3, 90900, Note_on_c, 1, 38, 127
3, 90956, Note_off_c, 1, 38, 0
3, 90996, Note_on_c, 1, 38, 127
3, 91268, Note_off_c, 1, 38, 0
3, 91380, Note_on_c, 1, 33, 127
3, 91592, Note_off_c, 1, 33, 0
3, 91668, Note_on_c, 1, 33, 127
3, 91724, Note_off_c, 1, 33, 0
3, 91764, Note_on_c, 1, 33, 127
3, 91992, Note_off_c, 1, 33, 0
3, 92148, Note_on_c, 1, 40, 127
3, 92348, Note_off_c, 1, 40, 0
3, 92436, Note_on_c, 1, 40, 127
3, 92492, Note_off_c, 1, 40, 0
3, 92532, Note_on_c, 1, 40, 127
3, 92724, Note_on_c, 1, 35, 127
3, 92732, Note_off_c, 1, 40, 0
3, 92892, Note_off_c, 1, 35, 0
3, 92916, Note_on_c, 1, 30, 127
3, 93124, Note_off_c, 1, 30, 0
3, 93204, Note_on_c, 1, 30, 127
3, 93256, Note_off_c, 1, 30, 0
3, 93300, Note_on_c, 1, 30, 127
3, 93508, Note_off_c, 1, 30, 0
3, 93684, Note_on_c, 1, 38, 127
3, 93892, Note_off_c, 1, 38, 0
3, 93972, Note_on_c, 1, 38, 127
3, 94024, Note_off_c, 1, 38, 0
3, 94068, Note_on_c, 1, 38, 127
3, 94340, Note_off_c, 1, 38, 0
3, 94452, Note_on_c, 1, 33, 127
3, 94664, Note_off_c, 1, 33, 0
3, 94740, Note_on_c, 1, 33, 127
3, 94792, Note_off_c, 1, 33, 0
3, 94836, Note_on_c, 1, 33, 127
3, 95064, Note_off_c, 1, 33, 0
3, 95220, Note_on_c, 1, 40, 127
3, 95428, Note_off_c, 1, 40, 0
3, 95508, Note_on_c, 1, 40, 127
3, 95564, Note_off_c, 1, 40, 0
3, 95604, Note_on_c, 1, 40, 127
3, 95796, Note_on_c, 1, 35, 127
3, 95804, Note_off_c, 1, 40, 0
3, 95964, Note_off_c, 1, 35, 0
3, 95984, Note_on_c, 1, 30, 127
3, 96212, Note_off_c, 1, 30, 0
3, 96276, Note_on_c, 1, 30, 127
3, 96332, Note_off_c, 1, 30, 0
3, 96372, Note_on_c, 1, 30, 127
3, 96580, Note_off_c, 1, 30, 0
3, 96756, Note_on_c, 1, 38, 127
3, 96964, Note_off_c, 1, 38, 0
3, 97044, Note_on_c, 1, 38, 127
3, 97100, Note_off_c, 1, 38, 0
3, 97140, Note_on_c, 1, 38, 127
3, 97380, Note_off_c, 1, 38, 0
3, 97524, Note_on_c, 1, 33, 127
3, 97724, Note_off_c, 1, 33, 0
3, 97812, Note_on_c, 1, 33, 127
3, 97868, Note_off_c, 1, 33, 0
3, 97908, Note_on_c, 1, 33, 127
3, 98188, Note_off_c, 1, 33, 0
3, 98292, Note_on_c, 1, 37, 127
3, 98520, Note_off_c, 1, 37, 0
3, 98580, Note_on_c, 1, 37, 127
3, 98632, Note_off_c, 1, 37, 0
3, 98676, Note_on_c, 1, 37, 127
3, 98940, Note_off_c, 1, 37, 0
3, 99060, Note_on_c, 1, 40, 127
3, 99268, Note_off_c, 1, 40, 0
3, 99348, Note_on_c, 1, 40, 123
3, 99400, Note_off_c, 1, 40, 0
3, 99444, Note_on_c, 1, 40, 127
3, 99732, Note_off_c, 1, 40, 0
3, 99828, Note_on_c, 1, 30, 127
3, 100028, Note_off_c, 1, 30, 0
3, 100116, Note_on_c, 1, 30, 127
3, 100156, Note_off_c, 1, 30, 0
3, 100212, Note_on_c, 1, 30, 127
3, 100276, Note_off_c, 1, 30, 0
3, 100308, Note_on_c, 1, 32, 127
3, 100588, Note_off_c, 1, 32, 0
3, 100600, Note_on_c, 1, 33, 127
3, 100848, Note_off_c, 1, 33, 0
3, 100884, Note_on_c, 1, 33, 127
3, 100952, Note_off_c, 1, 33, 0
3, 101076, Note_on_c, 1, 33, 127
3, 101164, Note_off_c, 1, 33, 0
3, 101268, Note_on_c, 1, 33, 127
3, 101308, Note_off_c, 1, 33, 0
3, 101364, Note_on_c, 1, 33, 127
3, 101452, Note_off_c, 1, 33, 0
3, 101556, Note_on_c, 1, 32, 127
3, 101628, Note_off_c, 1, 32, 0
3, 101748, Note_on_c, 1, 37, 127
3, 103520, Note_off_c, 1, 37, 0
3, 103668, Note_on_c, 1, 33, 127
3, 103920, Note_off_c, 1, 33, 0
3, 103956, Note_on_c, 1, 33, 127
3, 104044, Note_off_c, 1, 33, 0
3, 104148, Note_on_c, 1, 33, 127
3, 104244, Note_off_c, 1, 33, 0
3, 104340, Note_on_c, 1, 33, 127
3, 104380, Note_off_c, 1, 33, 0
3, 104436, Note_on_c, 1, 33, 127
3, 104532, Note_off_c, 1, 33, 0
3, 104628, Note_on_c, 1, 32, 127
3, 104700, Note_off_c, 1, 32, 0
3, 104820, Note_on_c, 1, 37, 127
3, 106588, Note_off_c, 1, 37, 0
3, 106740, Note_on_c, 1, 35, 127
3, 106996, Note_off_c, 1, 35, 0
3, 107024, Note_on_c, 1, 35, 127
3, 107080, Note_off_c, 1, 35, 0
3, 107124, Note_on_c, 1, 35, 127
3, 107300, Note_off_c, 1, 35, 0
3, 107508, Note_on_c, 1, 39, 127
3, 107732, Note_off_c, 1, 39, 0
3, 107796, Note_on_c, 1, 39, 127
3, 107848, Note_off_c, 1, 39, 0
3, 107892, Note_on_c, 1, 39, 127
3, 108028, Note_off_c, 1, 39, 0
3, 108276, Note_on_c, 1, 32, 127
3, 108488, Note_off_c, 1, 32, 0
3, 108564, Note_on_c, 1, 32, 127
3, 108616, Note_off_c, 1, 32, 0
3, 108660, Note_on_c, 1, 32, 127
3, 108728, Note_off_c, 1, 32, 0
3, 109044, Note_on_c, 1, 30, 127
3, 109244, Note_off_c, 1, 30, 0
3, 109332, Note_on_c, 1, 30, 127
3, 109388, Note_off_c, 1, 30, 0
3, 109428, Note_on_c, 1, 30, 127
3, 109548, Note_off_c, 1, 30, 0
3, 109812, Note_on_c, 1, 40, 127
3, 110040, Note_off_c, 1, 40, 0
3, 110100, Note_on_c, 1, 40, 127
3, 110148, Note_off_c, 1, 40, 0
3, 110192, Note_on_c, 1, 40, 127
3, 110300, Note_off_c, 1, 40, 0
3, 110580, Note_on_c, 1, 30, 127
3, 110796, Note_off_c, 1, 30, 0
3, 110868, Note_on_c, 1, 30, 127
3, 110920, Note_off_c, 1, 30, 0
3, 110964, Note_on_c, 1, 30, 127
3, 111068, Note_off_c, 1, 30, 0
3, 111344, Note_on_c, 1, 32, 127
3, 111564, Note_off_c, 1, 32, 0
3, 111636, Note_on_c, 1, 32, 127
3, 111688, Note_off_c, 1, 32, 0
3, 111732, Note_on_c, 1, 32, 127
3, 111860, Note_off_c, 1, 32, 0
3, 112112, Note_on_c, 1, 33, 127
3, 112348, Note_off_c, 1, 33, 0
3, 112404, Note_on_c, 1, 33, 127
3, 112452, Note_off_c, 1, 33, 0
3, 112596, Note_on_c, 1, 33, 127
3, 112648, Note_off_c, 1, 33, 0
3, 112788, Note_on_c, 1, 33, 127
3, 112832, Note_off_c, 1, 33, 0
3, 112884, Note_on_c, 1, 33, 127
3, 112964, Note_off_c, 1, 33, 0
3, 113076, Note_on_c, 1, 32, 127
3, 113124, Note_off_c, 1, 32, 0
3, 113268, Note_on_c, 1, 37, 127
3, 113628, Note_off_c, 1, 37, 0
3, 113652, Note_on_c, 1, 35, 127
3, 113868, Note_off_c, 1, 35, 0
3, 113940, Note_on_c, 1, 35, 108
3, 113988, Note_off_c, 1, 35, 0
3, 114036, Note_on_c, 1, 35, 127
3, 114420, Note_on_c, 1, 39, 127
3, 114460, Note_off_c, 1, 35, 0
3, 114636, Note_off_c, 1, 39, 0
3, 114708, Note_on_c, 1, 39, 118
3, 114752, Note_off_c, 1, 39, 0
3, 114800, Note_on_c, 1, 39, 127
3, 115188, Note_on_c, 1, 32, 118
3, 115196, Note_off_c, 1, 39, 0
3, 115436, Note_off_c, 1, 32, 0
3, 115476, Note_on_c, 1, 32, 127
3, 115492, Note_off_c, 1, 32, 0
3, 115572, Note_on_c, 1, 32, 127
3, 115880, Note_off_c, 1, 32, 0
3, 115956, Note_on_c, 1, 32, 127
3, 116172, Note_off_c, 1, 32, 0
3, 116244, Note_on_c, 1, 32, 127
3, 116268, Note_off_c, 1, 32, 0
3, 116340, Note_on_c, 1, 32, 127
3, 116692, Note_off_c, 1, 32, 0
3, 116724, Note_on_c, 1, 33, 127
3, 116956, Note_off_c, 1, 33, 0
3, 117012, Note_on_c, 1, 33, 127
3, 117116, Note_off_c, 1, 33, 0
3, 117200, Note_on_c, 1, 33, 127
3, 117300, Note_off_c, 1, 33, 0
3, 117396, Note_on_c, 1, 33, 118
3, 117420, Note_off_c, 1, 33, 0
3, 117492, Note_on_c, 1, 33, 127
3, 117564, Note_off_c, 1, 33, 0
3, 117684, Note_on_c, 1, 32, 123
3, 117748, Note_off_c, 1, 32, 0
3, 117876, Note_on_c, 1, 37, 127
3, 119796, Note_on_c, 1, 30, 127
3, 119812, Note_off_c, 1, 37, 0
3, 120004, Note_off_c, 1, 30, 0
3, 120084, Note_on_c, 1, 30, 127
3, 120132, Note_off_c, 1, 30, 0
3, 120180, Note_on_c, 1, 30, 127
3, 120380, Note_off_c, 1, 30, 0
3, 120564, Note_on_c, 1, 38, 127
3, 120772, Note_off_c, 1, 38, 0
3, 120852, Note_on_c, 1, 38, 127
3, 120908, Note_off_c, 1, 38, 0
3, 120948, Note_on_c, 1, 38, 127
3, 121220, Note_off_c, 1, 38, 0
3, 121332, Note_on_c, 1, 33, 127
3, 121544, Note_off_c, 1, 33, 0
3, 121620, Note_on_c, 1, 33, 127
3, 121672, Note_off_c, 1, 33, 0
3, 121716, Note_on_c, 1, 33, 127
3, 121948, Note_off_c, 1, 33, 0
3, 122100, Note_on_c, 1, 40, 127
3, 122308, Note_off_c, 1, 40, 0
3, 122388, Note_on_c, 1, 40, 127
3, 122444, Note_off_c, 1, 40, 0
3, 122484, Note_on_c, 1, 40, 127
3, 122676, Note_on_c, 1, 35, 127
3, 122684, Note_off_c, 1, 40, 0
3, 122844, Note_off_c, 1, 35, 0
3, 122868, Note_on_c, 1, 30, 127
3, 123076, Note_off_c, 1, 30, 0
3, 123156, Note_on_c, 1, 30, 127
3, 123204, Note_off_c, 1, 30, 0
3, 123252, Note_on_c, 1, 30, 127
3, 123456, Note_off_c, 1, 30, 0
3, 123636, Note_on_c, 1, 38, 127
3, 123836, Note_off_c, 1, 38, 0
3, 123924, Note_on_c, 1, 38, 127
3, 123972, Note_off_c, 1, 38, 0
3, 124020, Note_on_c, 1, 38, 127
3, 124284, Note_off_c, 1, 38, 0
3, 124404, Note_on_c, 1, 33, 127
3, 124608, Note_off_c, 1, 33, 0
3, 124688, Note_on_c, 1, 33, 127
3, 124740, Note_off_c, 1, 33, 0
3, 124788, Note_on_c, 1, 33, 127
3, 125020, Note_off_c, 1, 33, 0
3, 125172, Note_on_c, 1, 40, 127
3, 125380, Note_off_c, 1, 40, 0
3, 125460, Note_on_c, 1, 40, 127
3, 125512, Note_off_c, 1, 40, 0
3, 125556, Note_on_c, 1, 40, 127
3, 125748, Note_on_c, 1, 35, 127
3, 125760, Note_off_c, 1, 40, 0
3, 125916, Note_off_c, 1, 35, 0
3, 125944, Note_on_c, 1, 30, 127
3, 126156, Note_off_c, 1, 30, 0
3, 126228, Note_on_c, 1, 30, 127
3, 126276, Note_off_c, 1, 30, 0
3, 126324, Note_on_c, 1, 30, 127
3, 126536, Note_off_c, 1, 30, 0
3, 126708, Note_on_c, 1, 38, 127
3, 126908, Note_off_c, 1, 38, 0
3, 126996, Note_on_c, 1, 38, 127
3, 127052, Note_off_c, 1, 38, 0
3, 127092, Note_on_c, 1, 38, 127
3, 127372, Note_off_c, 1, 38, 0
3, 127476, Note_on_c, 1, 33, 127
3, 127680, Note_off_c, 1, 33, 0
3, 127764, Note_on_c, 1, 33, 127
3, 127812, Note_off_c, 1, 33, 0
3, 127860, Note_on_c, 1, 33, 127
3, 128088, Note_off_c, 1, 33, 0
3, 128244, Note_on_c, 1, 40, 127
3, 128444, Note_off_c, 1, 40, 0
3, 128532, Note_on_c, 1, 40, 127
3, 128588, Note_off_c, 1, 40, 0
3, 128628, Note_on_c, 1, 40, 127
3, 128820, Note_on_c, 1, 35, 127
3, 128832, Note_off_c, 1, 40, 0
3, 128988, Note_off_c, 1, 35, 0
3, 129016, Note_on_c, 1, 30, 127
3, 129244, Note_off_c, 1, 30, 0
3, 129300, Note_on_c, 1, 30, 127
3, 129352, Note_off_c, 1, 30, 0
3, 129396, Note_on_c, 1, 30, 127
3, 129612, Note_off_c, 1, 30, 0
3, 129780, Note_on_c, 1, 38, 127
3, 129988, Note_off_c, 1, 38, 0
3, 130068, Note_on_c, 1, 38, 127
3, 130124, Note_off_c, 1, 38, 0
3, 130164, Note_on_c, 1, 38, 127
3, 130404, Note_off_c, 1, 38, 0
3, 130548, Note_on_c, 1, 33, 127
3, 130744, Note_off_c, 1, 33, 0
3, 130836, Note_on_c, 1, 33, 127
3, 130888, Note_off_c, 1, 33, 0
3, 130932, Note_on_c, 1, 33, 127
3, 131212, Note_off_c, 1, 33, 0
3, 131316, Note_on_c, 1, 37, 127
3, 131540, Note_off_c, 1, 37, 0
3, 131604, Note_on_c, 1, 37, 127
3, 131652, Note_off_c, 1, 37, 0
3, 131700, Note_on_c, 1, 37, 127
3, 131964, Note_off_c, 1, 37, 0
3, 132084, Note_on_c, 1, 40, 127
3, 132292, Note_off_c, 1, 40, 0
3, 132372, Note_on_c, 1, 40, 123
3, 132420, Note_off_c, 1, 40, 0
3, 132468, Note_on_c, 1, 40, 127
3, 132748, Note_off_c, 1, 40, 0
3, 132852, Note_on_c, 1, 30, 127
3, 133052, Note_off_c, 1, 30, 0
3, 133140, Note_on_c, 1, 30, 127
3, 133184, Note_off_c, 1, 30, 0
3, 133236, Note_on_c, 1, 30, 127
3, 133292, Note_off_c, 1, 30, 0
3, 133332, Note_on_c, 1, 32, 127
3, 133612, Note_off_c, 1, 32, 0
3, 133620, Note_on_c, 1, 33, 127
3, 133868, Note_off_c, 1, 33, 0
3, 133916, Note_on_c, 1, 33, 127
3, 133992, Note_off_c, 1, 33, 0
3, 134100, Note_on_c, 1, 33, 127
3, 134188, Note_off_c, 1, 33, 0
3, 134292, Note_on_c, 1, 33, 127
3, 134332, Note_off_c, 1, 33, 0
3, 134388, Note_on_c, 1, 33, 127
3, 134476, Note_off_c, 1, 33, 0
3, 134580, Note_on_c, 1, 32, 127
3, 134660, Note_off_c, 1, 32, 0
3, 134772, Note_on_c, 1, 37, 127
3, 136540, Note_off_c, 1, 37, 0
3, 136696, Note_on_c, 1, 33, 127
3, 136948, Note_off_c, 1, 33, 0
3, 136980, Note_on_c, 1, 33, 127
3, 137056, Note_off_c, 1, 33, 0
3, 137172, Note_on_c, 1, 33, 127
3, 137260, Note_off_c, 1, 33, 0
3, 137364, Note_on_c, 1, 33, 124
3, 137400, Note_off_c, 1, 33, 0
3, 137460, Note_on_c, 1, 33, 123
3, 137544, Note_off_c, 1, 33, 0
3, 137652, Note_on_c, 1, 32, 122
3, 137732, Note_off_c, 1, 32, 0
3, 137844, Note_on_c, 1, 37, 119
3, 139612, Note_off_c, 1, 37, 0
3, 139764, Note_on_c, 1, 33, 100
3, 140020, Note_off_c, 1, 33, 0
3, 140052, Note_on_c, 1, 33, 98
3, 140132, Note_off_c, 1, 33, 0
3, 140244, Note_on_c, 1, 33, 95
3, 140332, Note_off_c, 1, 33, 0
3, 140436, Note_on_c, 1, 33, 94
3, 140472, Note_off_c, 1, 33, 0
3, 140532, Note_on_c, 1, 33, 93
3, 140620, Note_off_c, 1, 33, 0
3, 140724, Note_on_c, 1, 32, 90
3, 140792, Note_off_c, 1, 32, 0
3, 140916, Note_on_c, 1, 37, 89
3, 142684, Note_off_c, 1, 37, 0
3, 142836, Note_on_c, 1, 33, 70
3, 143096, Note_off_c, 1, 33, 0
3, 143124, Note_on_c, 1, 33, 66
3, 143200, Note_off_c, 1, 33, 0
3, 143316, Note_on_c, 1, 33, 65
3, 143404, Note_off_c, 1, 33, 0
3, 143512, Note_on_c, 1, 33, 62
3, 143548, Note_off_c, 1, 33, 0
3, 143604, Note_on_c, 1, 33, 61
3, 143696, Note_off_c, 1, 33, 0
3, 143796, Note_on_c, 1, 32, 60
3, 143868, Note_off_c, 1, 32, 0
3, 143988, Note_on_c, 1, 37, 58
3, 145764, Note_off_c, 1, 37, 0
3, 145764, End_track
4, 0, Start_track
4, 0, Control_c, 2, 0, 0
4, 0, Program_c, 2, 29
4, 0, Control_c, 2, 10, 78
4, 0, Control_c, 2, 91, 127
4, 0, Control_c, 2, 93, 1
4, 0, Key_signature, 0, "major"
4, 0, Control_c, 2, 7, 75
4, 46832, Note_on_c, 2, 54, 94
4, 47592, Note_off_c, 2, 54, 0
4, 47596, Note_on_c, 2, 50, 99
4, 48364, Note_off_c, 2, 50, 0
4, 48368, Note_on_c, 2, 57, 90
4, 49116, Note_off_c, 2, 57, 0
4, 49120, Note_on_c, 2, 52, 109
4, 49880, Note_off_c, 2, 52, 0
4, 49888, Note_on_c, 2, 54, 109
4, 50648, Note_off_c, 2, 54, 0
4, 50656, Note_on_c, 2, 50, 109
4, 51420, Note_off_c, 2, 50, 0
4, 51424, Note_on_c, 2, 57, 109
4, 52188, Note_off_c, 2, 57, 0
4, 52204, Note_on_c, 2, 52, 104
4, 52964, Note_off_c, 2, 52, 0
4, 52968, Note_on_c, 2, 54, 114
4, 53716, Note_off_c, 2, 54, 0
4, 53724, Note_on_c, 2, 50, 99
4, 54488, Note_off_c, 2, 50, 0
4, 54492, Note_on_c, 2, 57, 77
4, 55248, Note_on_c, 2, 52, 94
4, 55252, Note_off_c, 2, 57, 0
4, 56028, Note_off_c, 2, 52, 0
4, 56032, Note_on_c, 2, 54, 104
4, 56792, Note_off_c, 2, 54, 0
4, 56792, Note_on_c, 2, 50, 104
4, 57560, Note_off_c, 2, 50, 0
4, 57576, Note_on_c, 2, 57, 90
4, 58344, Note_off_c, 2, 57, 0
4, 58344, Note_on_c, 2, 61, 114
4, 59104, Note_on_c, 2, 52, 109
4, 59108, Note_off_c, 2, 61, 0
4, 59844, Note_off_c, 2, 52, 0
4, 59856, Note_on_c, 2, 54, 109
4, 60132, Note_off_c, 2, 54, 0
4, 60184, Note_on_c, 2, 54, 94
4, 60224, Note_off_c, 2, 54, 0
4, 60268, Note_on_c, 2, 54, 94
4, 60316, Note_off_c, 2, 54, 0
4, 60352, Note_on_c, 2, 56, 114
4, 60572, Note_off_c, 2, 56, 0
4, 60656, Note_on_c, 2, 57, 114
4, 60864, Pitch_bend_c, 2, 7936
4, 60868, Pitch_bend_c, 2, 7679
4, 60884, Pitch_bend_c, 2, 7423
4, 60884, Pitch_bend_c, 2, 6912
4, 60900, Pitch_bend_c, 2, 6528
4, 60908, Pitch_bend_c, 2, 6271
4, 60912, Pitch_bend_c, 2, 5887
4, 60928, Pitch_bend_c, 2, 5631
4, 60932, Pitch_bend_c, 2, 5247
4, 60956, Pitch_bend_c, 2, 4736
4, 60964, Pitch_bend_c, 2, 4479
4, 60984, Pitch_bend_c, 2, 4224
4, 61004, Pitch_bend_c, 2, 3968
4, 61012, Pitch_bend_c, 2, 3712
4, 61028, Pitch_bend_c, 2, 3328
4, 61056, Pitch_bend_c, 2, 2944
4, 61056, Pitch_bend_c, 2, 2688
4, 61072, Pitch_bend_c, 2, 2432
4, 61088, Pitch_bend_c, 2, 2176
4, 61096, Pitch_bend_c, 2, 1920
4, 61112, Pitch_bend_c, 2, 1663
4, 61124, Pitch_bend_c, 2, 1407
4, 61124, Pitch_bend_c, 2, 1152
4, 61152, Pitch_bend_c, 2, 895
4, 61156, Pitch_bend_c, 2, 640
4, 61172, Pitch_bend_c, 2, 256
4, 61196, Note_off_c, 2, 57, 0
4, 61196, Pitch_bend_c, 2, 0
4, 61628, Pitch_bend_c, 2, 255
4, 61632, Pitch_bend_c, 2, 767
4, 61636, Pitch_bend_c, 2, 1152
4, 61644, Pitch_bend_c, 2, 1664
4, 61652, Pitch_bend_c, 2, 2303
4, 61664, Pitch_bend_c, 2, 2943
4, 61668, Pitch_bend_c, 2, 3456
4, 61680, Pitch_bend_c, 2, 4223
4, 61688, Pitch_bend_c, 2, 4863
4, 61696, Pitch_bend_c, 2, 5376
4, 61704, Pitch_bend_c, 2, 6015
4, 61708, Pitch_bend_c, 2, 6655
4, 61720, Pitch_bend_c, 2, 7423
4, 61732, Pitch_bend_c, 2, 8063
4, 61736, Pitch_bend_c, 2, 8192
4, 86764, Note_on_c, 2, 54, 109
4, 87528, Note_on_c, 2, 50, 90
4, 87532, Note_off_c, 2, 54, 0
4, 88288, Note_on_c, 2, 57, 94
4, 88292, Note_off_c, 2, 50, 0
4, 89048, Note_off_c, 2, 57, 0
4, 89064, Note_on_c, 2, 52, 104
4, 89836, Note_off_c, 2, 52, 0
4, 89836, Note_on_c, 2, 54, 99
4, 90596, Note_off_c, 2, 54, 0
4, 90596, Note_on_c, 2, 50, 81
4, 91364, Note_on_c, 2, 57, 90
4, 91372, Note_off_c, 2, 50, 0
4, 92116, Note_off_c, 2, 57, 0
4, 92132, Note_on_c, 2, 52, 99
4, 92904, Note_on_c, 2, 54, 94
4, 92920, Note_off_c, 2, 52, 0
4, 93652, Note_off_c, 2, 54, 0
4, 93656, Note_on_c, 2, 50, 90
4, 94440, Note_off_c, 2, 50, 0
4, 94440, Note_on_c, 2, 57, 85
4, 95196, Note_off_c, 2, 57, 0
4, 95204, Note_on_c, 2, 52, 90
4, 95968, Note_on_c, 2, 54, 90
4, 95980, Note_off_c, 2, 52, 0
4, 96740, Note_on_c, 2, 50, 90
4, 96744, Note_off_c, 2, 54, 0
4, 97508, Note_off_c, 2, 50, 0
4, 97512, Note_on_c, 2, 57, 77
4, 98280, Note_on_c, 2, 61, 85
4, 98284, Note_off_c, 2, 57, 0
4, 99048, Note_off_c, 2, 61, 0
4, 99060, Note_on_c, 2, 52, 99
4, 99812, Note_on_c, 2, 54, 85
4, 99820, Note_off_c, 2, 52, 0
4, 100060, Note_off_c, 2, 54, 0
4, 100116, Note_on_c, 2, 54, 99
4, 100156, Note_off_c, 2, 54, 0
4, 100212, Note_on_c, 2, 54, 99
4, 100252, Note_off_c, 2, 54, 0
4, 100288, Note_on_c, 2, 56, 114
4, 100484, Note_off_c, 2, 56, 0
4, 100580, Note_on_c, 2, 57, 107
4, 100768, Pitch_bend_c, 2, 8064
4, 100788, Pitch_bend_c, 2, 7808
4, 100804, Pitch_bend_c, 2, 7423
4, 100820, Pitch_bend_c, 2, 6912
4, 100832, Pitch_bend_c, 2, 6528
4, 100852, Pitch_bend_c, 2, 6272
4, 100860, Pitch_bend_c, 2, 6143
4, 100880, Pitch_bend_c, 2, 5759
4, 100888, Pitch_bend_c, 2, 5504
4, 100908, Pitch_bend_c, 2, 5247
4, 100924, Pitch_bend_c, 2, 4864
4, 100932, Pitch_bend_c, 2, 4480
4, 100948, Pitch_bend_c, 2, 4223
4, 100964, Pitch_bend_c, 2, 3967
4, 100964, Pitch_bend_c, 2, 3712
4, 100988, Pitch_bend_c, 2, 3456
4, 100996, Pitch_bend_c, 2, 3071
4, 101028, Pitch_bend_c, 2, 2816
4, 101036, Pitch_bend_c, 2, 2560
4, 101060, Pitch_bend_c, 2, 2176
4, 101080, Pitch_bend_c, 2, 1792
4, 101088, Pitch_bend_c, 2, 1663
4, 101092, Pitch_bend_c, 2, 1279
4, 101100, Pitch_bend_c, 2, 1024
4, 101112, Pitch_bend_c, 2, 640
4, 101120, Pitch_bend_c, 2, 383
4, 101120, Pitch_bend_c, 2, 127
4, 101144, Pitch_bend_c, 2, 0
4, 101228, Note_off_c, 2, 57, 0
4, 101572, Pitch_bend_c, 2, 255
4, 101580, Pitch_bend_c, 2, 1152
4, 101592, Pitch_bend_c, 2, 2048
4, 101600, Pitch_bend_c, 2, 2944
4, 101612, Pitch_bend_c, 2, 3839
4, 101612, Pitch_bend_c, 2, 4736
4, 101628, Pitch_bend_c, 2, 6911
4, 101632, Pitch_bend_c, 2, 8192
4, 119812, Note_on_c, 2, 54, 109
4, 120540, Note_off_c, 2, 54, 0
4, 120544, Note_on_c, 2, 50, 104
4, 121324, Note_off_c, 2, 50, 0
4, 121324, Note_on_c, 2, 57, 99
4, 122072, Note_off_c, 2, 57, 0
4, 122084, Note_on_c, 2, 52, 109
4, 122848, Note_off_c, 2, 52, 0
4, 122864, Note_on_c, 2, 54, 104
4, 123608, Note_off_c, 2, 54, 0
4, 123620, Note_on_c, 2, 50, 109
4, 124380, Note_off_c, 2, 50, 0
4, 124384, Note_on_c, 2, 57, 94
4, 125144, Note_off_c, 2, 57, 0
4, 125156, Note_on_c, 2, 52, 104
4, 125920, Note_on_c, 2, 54, 99
4, 125924, Note_off_c, 2, 52, 0
4, 126684, Note_off_c, 2, 54, 0
4, 126688, Note_on_c, 2, 50, 104
4, 127448, Note_off_c, 2, 50, 0
4, 127468, Note_on_c, 2, 57, 85
4, 128232, Note_off_c, 2, 57, 0
4, 128240, Note_on_c, 2, 52, 99
4, 128988, Note_off_c, 2, 52, 0
4, 128988, Note_on_c, 2, 54, 94
4, 129756, Note_off_c, 2, 54, 0
4, 129760, Note_on_c, 2, 50, 99
4, 130532, Note_on_c, 2, 57, 104
4, 130540, Note_off_c, 2, 50, 0
4, 131300, Note_off_c, 2, 57, 0
4, 131304, Note_on_c, 2, 61, 109
4, 132052, Note_off_c, 2, 61, 0
4, 132064, Note_on_c, 2, 52, 109
4, 132828, Note_off_c, 2, 52, 0
4, 132836, Note_on_c, 2, 54, 109
4, 133080, Note_off_c, 2, 54, 0
4, 133140, Note_on_c, 2, 54, 109
4, 133180, Note_off_c, 2, 54, 0
4, 133232, Note_on_c, 2, 54, 112
4, 133276, Note_off_c, 2, 54, 0
4, 133320, Note_on_c, 2, 56, 114
4, 133540, Note_off_c, 2, 56, 0
4, 133600, Note_on_c, 2, 57, 107
4, 133864, Pitch_bend_c, 2, 7936
4, 133880, Pitch_bend_c, 2, 7552
4, 133892, Pitch_bend_c, 2, 7168
4, 133916, Pitch_bend_c, 2, 6911
4, 133924, Pitch_bend_c, 2, 6527
4, 133928, Pitch_bend_c, 2, 6144
4, 133952, Pitch_bend_c, 2, 5760
4, 133956, Pitch_bend_c, 2, 5631
4, 133976, Pitch_bend_c, 2, 5247
4, 133992, Pitch_bend_c, 2, 4864
4, 134008, Pitch_bend_c, 2, 4608
4, 134020, Pitch_bend_c, 2, 4352
4, 134032, Pitch_bend_c, 2, 4223
4, 134040, Pitch_bend_c, 2, 3712
4, 134048, Pitch_bend_c, 2, 3456
4, 134072, Pitch_bend_c, 2, 3071
4, 134088, Pitch_bend_c, 2, 2688
4, 134096, Pitch_bend_c, 2, 2559
4, 134112, Pitch_bend_c, 2, 2303
4, 134132, Pitch_bend_c, 2, 2048
4, 134148, Pitch_bend_c, 2, 1792
4, 134168, Pitch_bend_c, 2, 1663
4, 134192, Pitch_bend_c, 2, 1280
4, 134208, Pitch_bend_c, 2, 1151
4, 134216, Pitch_bend_c, 2, 768
4, 134232, Pitch_bend_c, 2, 384
4, 134252, Pitch_bend_c, 2, 128
4, 134260, Pitch_bend_c, 2, 0
4, 134404, Note_off_c, 2, 57, 0
4, 134788, Pitch_bend_c, 2, 639
4, 134796, Pitch_bend_c, 2, 1536
4, 134808, Pitch_bend_c, 2, 2303
4, 134816, Pitch_bend_c, 2, 3328
4, 134824, Pitch_bend_c, 2, 4224
4, 134828, Pitch_bend_c, 2, 5120
4, 134840, Pitch_bend_c, 2, 6143
4, 134852, Pitch_bend_c, 2, 7168
4, 134856, Pitch_bend_c, 2, 8063
4, 134868, Pitch_bend_c, 2, 8192
4, 134868, End_track
5, 0, Start_track
5, 0, Title_t, "vocals"
5, 0, Control_c, 3, 0, 0
5, 0, Program_c, 3, 60
5, 0, Key_signature, 0, "major"
5, 20044, Note_on_c, 3, 66, 127
5, 20088, Note_off_c, 3, 66, 0
5, 20148, Note_on_c, 3, 66, 127
5, 20188, Note_off_c, 3, 66, 0
5, 20240, Note_on_c, 3, 66, 127
5, 20280, Note_off_c, 3, 66, 0
5, 20340, Note_on_c, 3, 66, 127
5, 20620, Note_off_c, 3, 66, 0
5, 20700, Note_on_c, 3, 66, 127
5, 20748, Note_off_c, 3, 66, 0
5, 20800, Note_on_c, 3, 66, 127
5, 21016, Note_off_c, 3, 66, 0
5, 21092, Note_on_c, 3, 68, 127
5, 21240, Note_off_c, 3, 68, 0
5, 21284, Note_on_c, 3, 70, 127
5, 21340, Note_off_c, 3, 70, 0
5, 21408, Note_on_c, 3, 71, 127
5, 22020, Note_off_c, 3, 71, 0
5, 22260, Note_on_c, 3, 63, 126
5, 22308, Note_off_c, 3, 63, 0
5, 22364, Note_on_c, 3, 63, 127
5, 22612, Note_off_c, 3, 63, 0
5, 22640, Note_on_c, 3, 64, 114
5, 22788, Note_off_c, 3, 64, 0
5, 22820, Note_on_c, 3, 66, 119
5, 22876, Note_off_c, 3, 66, 0
5, 22924, Note_on_c, 3, 66, 103
5, 23076, Note_off_c, 3, 66, 0
5, 23116, Note_on_c, 3, 64, 126
5, 23324, Note_off_c, 3, 64, 0
5, 23396, Note_on_c, 3, 64, 114
5, 23544, Note_off_c, 3, 64, 0
5, 23596, Note_on_c, 3, 63, 103
5, 23656, Note_off_c, 3, 63, 0
5, 23708, Note_on_c, 3, 61, 119
5, 24072, Note_off_c, 3, 61, 0
5, 24148, Note_on_c, 3, 61, 126
5, 24348, Note_off_c, 3, 61, 0
5, 24368, Note_on_c, 3, 59, 126
5, 24556, Note_off_c, 3, 59, 0
5, 24572, Note_on_c, 3, 63, 114
5, 25040, Note_on_c, 3, 61, 109
5, 25044, Note_off_c, 3, 63, 0
5, 25124, Note_off_c, 3, 61, 0
5, 25140, Note_on_c, 3, 59, 109
5, 25316, Note_off_c, 3, 59, 0
5, 25340, Note_on_c, 3, 61, 127
5, 26132, Note_off_c, 3, 61, 0
5, 27036, Note_on_c, 3, 66, 109
5, 27080, Note_off_c, 3, 66, 0
5, 27124, Note_on_c, 3, 66, 98
5, 27164, Note_off_c, 3, 66, 0
5, 27220, Note_on_c, 3, 66, 114
5, 27268, Note_off_c, 3, 66, 0
5, 27320, Note_on_c, 3, 66, 126
5, 27560, Note_off_c, 3, 66, 0
5, 27612, Note_on_c, 3, 66, 119
5, 27672, Note_off_c, 3, 66, 0
5, 27720, Note_on_c, 3, 66, 126
5, 27948, Note_off_c, 3, 66, 0
5, 28020, Note_on_c, 3, 68, 126
5, 28168, Note_off_c, 3, 68, 0
5, 28200, Note_on_c, 3, 70, 103
5, 28268, Note_off_c, 3, 70, 0
5, 28312, Note_on_c, 3, 71, 127
5, 28920, Note_off_c, 3, 71, 0
5, 29172, Note_on_c, 3, 63, 127
5, 29220, Note_off_c, 3, 63, 0
5, 29276, Note_on_c, 3, 63, 127
5, 29540, Note_on_c, 3, 64, 109
5, 29544, Note_off_c, 3, 63, 0
5, 29748, Note_on_c, 3, 66, 114
5, 29764, Note_off_c, 3, 64, 0
5, 29876, Note_off_c, 3, 66, 0
5, 29924, Note_on_c, 3, 66, 109
5, 30104, Note_off_c, 3, 66, 0
5, 30112, Note_on_c, 3, 64, 109
5, 30172, Note_off_c, 3, 64, 0
5, 30236, Note_on_c, 3, 64, 119
5, 30376, Note_off_c, 3, 64, 0
5, 30420, Note_on_c, 3, 63, 114
5, 30572, Note_off_c, 3, 63, 0
5, 30616, Note_on_c, 3, 61, 119
5, 31028, Note_off_c, 3, 61, 0
5, 31064, Note_on_c, 3, 61, 109
5, 31272, Note_off_c, 3, 61, 0
5, 31272, Note_on_c, 3, 59, 126
5, 31464, Note_off_c, 3, 59, 0
5, 31472, Note_on_c, 3, 63, 119
5, 31940, Note_off_c, 3, 63, 0
5, 31944, Note_on_c, 3, 61, 93
5, 32024, Note_off_c, 3, 61, 0
5, 32036, Note_on_c, 3, 59, 114
5, 32252, Note_on_c, 3, 61, 127
5, 32260, Note_off_c, 3, 59, 0
5, 33144, Note_off_c, 3, 61, 0
5, 33948, Note_on_c, 3, 66, 119
5, 33996, Note_off_c, 3, 66, 0
5, 34040, Note_on_c, 3, 66, 109
5, 34092, Note_off_c, 3, 66, 0
5, 34152, Note_on_c, 3, 66, 127
5, 34488, Note_off_c, 3, 66, 0
5, 34540, Note_on_c, 3, 66, 127
5, 34600, Note_off_c, 3, 66, 0
5, 34648, Note_on_c, 3, 66, 127
5, 34860, Note_off_c, 3, 66, 0
5, 34928, Note_on_c, 3, 68, 126
5, 35072, Note_off_c, 3, 68, 0
5, 35108, Note_on_c, 3, 70, 119
5, 35172, Note_off_c, 3, 70, 0
5, 35224, Note_on_c, 3, 71, 127
5, 35804, Note_off_c, 3, 71, 0
5, 36076, Note_on_c, 3, 63, 127
5, 36124, Note_off_c, 3, 63, 0
5, 36172, Note_on_c, 3, 63, 126
5, 36216, Note_off_c, 3, 63, 0
5, 36260, Note_on_c, 3, 63, 127
5, 36308, Note_off_c, 3, 63, 0
5, 36380, Note_on_c, 3, 64, 127
5, 36504, Note_off_c, 3, 64, 0
5, 36556, Note_on_c, 3, 66, 109
5, 36692, Note_off_c, 3, 66, 0
5, 36748, Note_on_c, 3, 66, 114
5, 37004, Note_off_c, 3, 66, 0
5, 37008, Note_on_c, 3, 64, 119
5, 37124, Note_off_c, 3, 64, 0
5, 37208, Note_on_c, 3, 64, 114
5, 37356, Note_off_c, 3, 64, 0
5, 37400, Note_on_c, 3, 63, 114
5, 37480, Note_off_c, 3, 63, 0
5, 37520, Note_on_c, 3, 61, 119
5, 37944, Note_off_c, 3, 61, 0
5, 37996, Note_on_c, 3, 61, 109
5, 38172, Note_off_c, 3, 61, 0
5, 38180, Note_on_c, 3, 59, 114
5, 38360, Note_off_c, 3, 59, 0
5, 38376, Note_on_c, 3, 63, 127
5, 38844, Note_off_c, 3, 63, 0
5, 38868, Note_on_c, 3, 61, 103
5, 38932, Note_off_c, 3, 61, 0
5, 38956, Note_on_c, 3, 59, 114
5, 39144, Note_on_c, 3, 61, 127
5, 39156, Note_off_c, 3, 59, 0
5, 39980, Note_off_c, 3, 61, 0
5, 40856, Note_on_c, 3, 66, 126
5, 40908, Note_off_c, 3, 66, 0
5, 40956, Note_on_c, 3, 66, 119
5, 41004, Note_off_c, 3, 66, 0
5, 41052, Note_on_c, 3, 66, 127
5, 41404, Note_off_c, 3, 66, 0
5, 41448, Note_on_c, 3, 66, 127
5, 41500, Note_off_c, 3, 66, 0
5, 41556, Note_on_c, 3, 66, 127
5, 41768, Note_off_c, 3, 66, 0
5, 41848, Note_on_c, 3, 68, 127
5, 41996, Note_off_c, 3, 68, 0
5, 42036, Note_on_c, 3, 70, 126
5, 42092, Note_off_c, 3, 70, 0
5, 42148, Note_on_c, 3, 71, 127
5, 42716, Note_off_c, 3, 71, 0
5, 43000, Note_on_c, 3, 71, 119
5, 43004, Note_on_c, 3, 75, 127
5, 43052, Note_off_c, 3, 71, 0
5, 43052, Note_off_c, 3, 75, 0
5, 43092, Note_on_c, 3, 75, 119
5, 43100, Note_on_c, 3, 71, 109
5, 43340, Note_off_c, 3, 71, 0
5, 43368, Note_on_c, 3, 73, 89
5, 43388, Note_off_c, 3, 75, 0
5, 43392, Note_on_c, 3, 76, 119
5, 43532, Note_off_c, 3, 73, 0
5, 43544, Note_off_c, 3, 76, 0
5, 43568, Note_on_c, 3, 78, 109
5, 43568, Note_on_c, 3, 75, 93
5, 43700, Note_off_c, 3, 78, 0
5, 43708, Note_off_c, 3, 75, 0
5, 43752, Note_on_c, 3, 78, 119
5, 43756, Note_on_c, 3, 75, 85
5, 43912, Note_off_c, 3, 78, 0
5, 43912, Note_off_c, 3, 75, 0
5, 43932, Note_on_c, 3, 76, 126
5, 43940, Note_on_c, 3, 73, 89
5, 43988, Note_off_c, 3, 76, 0
5, 43992, Note_off_c, 3, 73, 0
5, 44048, Note_on_c, 3, 76, 126
5, 44048, Note_on_c, 3, 73, 89
5, 44196, Note_off_c, 3, 76, 0
5, 44204, Note_off_c, 3, 73, 0
5, 44208, Note_on_c, 3, 71, 89
5, 44232, Note_on_c, 3, 75, 119
5, 44296, Note_off_c, 3, 75, 0
5, 44312, Note_off_c, 3, 71, 0
5, 44336, Note_on_c, 3, 73, 69
5, 44344, Note_on_c, 3, 76, 119
5, 46252, Note_off_c, 3, 73, 0
5, 46340, Note_off_c, 3, 76, 0
5, 47008, Note_on_c, 3, 81, 103
5, 47148, Note_off_c, 3, 81, 0
5, 47216, Note_on_c, 3, 81, 98
5, 47340, Note_off_c, 3, 81, 0
5, 47396, Note_on_c, 3, 81, 73
5, 47460, Note_off_c, 3, 81, 0
5, 47512, Note_on_c, 3, 81, 93
5, 47740, Note_off_c, 3, 81, 0
5, 47776, Note_on_c, 3, 81, 89
5, 47928, Note_off_c, 3, 81, 0
5, 47972, Note_on_c, 3, 81, 93
5, 48108, Note_off_c, 3, 81, 0
5, 48160, Note_on_c, 3, 81, 98
5, 48312, Note_off_c, 3, 81, 0
5, 48364, Note_on_c, 3, 81, 114
5, 48932, Note_on_c, 3, 80, 109
5, 48936, Note_off_c, 3, 81, 0
5, 48988, Note_off_c, 3, 80, 0
5, 49044, Note_on_c, 3, 80, 103
5, 49752, Note_off_c, 3, 80, 0
5, 50092, Note_on_c, 3, 81, 109
5, 50100, Note_on_c, 3, 61, 127
5, 50100, Note_on_c, 3, 64, 127
5, 50236, Note_off_c, 3, 61, 0
5, 50236, Note_off_c, 3, 64, 0
5, 50244, Note_off_c, 3, 81, 0
5, 50284, Note_on_c, 3, 81, 93
5, 50288, Note_on_c, 3, 64, 127
5, 50292, Note_on_c, 3, 61, 127
5, 50332, Note_off_c, 3, 81, 0
5, 50332, Note_off_c, 3, 61, 0
5, 50340, Note_off_c, 3, 64, 0
5, 50372, Note_on_c, 3, 81, 89
5, 50380, Note_on_c, 3, 61, 126
5, 50384, Note_on_c, 3, 64, 109
5, 50412, Note_off_c, 3, 81, 0
5, 50416, Note_off_c, 3, 61, 0
5, 50420, Note_off_c, 3, 64, 0
5, 50468, Note_on_c, 3, 61, 126
5, 50468, Note_on_c, 3, 81, 89
5, 50472, Note_on_c, 3, 64, 103
5, 50504, Note_off_c, 3, 61, 0
5, 50508, Note_off_c, 3, 81, 0
5, 50520, Note_off_c, 3, 64, 0
5, 50548, Note_on_c, 3, 61, 127
5, 50556, Note_on_c, 3, 64, 93
5, 50564, Note_on_c, 3, 81, 89
5, 50596, Note_off_c, 3, 61, 0
5, 50604, Note_off_c, 3, 81, 0
5, 50608, Note_off_c, 3, 64, 0
5, 50652, Note_on_c, 3, 62, 127
5, 50656, Note_on_c, 3, 66, 127
5, 50668, Note_on_c, 3, 81, 98
5, 50700, Note_off_c, 3, 62, 0
5, 50700, Note_off_c, 3, 66, 0
5, 50724, Note_off_c, 3, 81, 0
5, 50752, Note_on_c, 3, 62, 127
5, 50768, Note_on_c, 3, 66, 127
5, 50772, Note_on_c, 3, 81, 98
5, 50880, Note_off_c, 3, 66, 0
5, 50908, Note_off_c, 3, 62, 0
5, 50920, Note_off_c, 3, 81, 0
5, 50956, Note_on_c, 3, 66, 127
5, 50956, Note_on_c, 3, 62, 127
5, 50956, Note_on_c, 3, 81, 85
5, 51076, Note_off_c, 3, 62, 0
5, 51080, Note_off_c, 3, 66, 0
5, 51092, Note_off_c, 3, 81, 0
5, 51136, Note_on_c, 3, 62, 127
5, 51136, Note_on_c, 3, 66, 127
5, 51148, Note_on_c, 3, 81, 89
5, 51260, Note_off_c, 3, 62, 0
5, 51260, Note_off_c, 3, 66, 0
5, 51268, Note_off_c, 3, 81, 0
5, 51324, Note_on_c, 3, 61, 127
5, 51328, Note_on_c, 3, 81, 109
5, 51332, Note_on_c, 3, 64, 127
5, 51656, Note_off_c, 3, 61, 0
5, 51660, Note_off_c, 3, 64, 0
5, 51676, Note_off_c, 3, 81, 0
5, 51704, Note_on_c, 3, 64, 114
5, 51708, Note_on_c, 3, 61, 127
5, 51720, Note_on_c, 3, 81, 98
5, 51752, Note_off_c, 3, 64, 0
5, 51752, Note_off_c, 3, 61, 0
5, 51780, Note_off_c, 3, 81, 0
5, 51788, Note_on_c, 3, 61, 127
5, 51804, Note_on_c, 3, 64, 126
5, 51816, Note_on_c, 3, 81, 85
5, 51848, Note_off_c, 3, 61, 0
5, 51848, Note_off_c, 3, 64, 0
5, 51880, Note_off_c, 3, 81, 0
5, 51896, Note_on_c, 3, 59, 127
5, 51896, Note_on_c, 3, 64, 114
5, 51912, Note_on_c, 3, 80, 103
5, 52024, Note_off_c, 3, 64, 0
5, 52044, Note_off_c, 3, 59, 0
5, 52076, Note_on_c, 3, 64, 103
5, 52092, Note_on_c, 3, 59, 127
5, 52108, Note_off_c, 3, 80, 0
5, 52160, Note_on_c, 3, 80, 93
5, 52732, Note_off_c, 3, 80, 0
5, 52840, Note_off_c, 3, 59, 0
5, 52860, Note_off_c, 3, 64, 0
5, 53160, Note_on_c, 3, 64, 127
5, 53168, Note_on_c, 3, 81, 93
5, 53168, Note_on_c, 3, 61, 127
5, 53304, Note_off_c, 3, 64, 0
5, 53304, Note_off_c, 3, 81, 0
5, 53316, Note_off_c, 3, 61, 0
5, 53356, Note_on_c, 3, 81, 93
5, 53436, Note_on_c, 3, 64, 114
5, 53448, Note_on_c, 3, 61, 127
5, 53468, Note_off_c, 3, 81, 0
5, 53468, Note_off_c, 3, 64, 0
5, 53492, Note_off_c, 3, 61, 0
5, 53520, Note_on_c, 3, 81, 85
5, 53524, Note_on_c, 3, 64, 109
5, 53536, Note_on_c, 3, 61, 127
5, 53560, Note_off_c, 3, 64, 0
5, 53576, Note_off_c, 3, 61, 0
5, 53580, Note_off_c, 3, 81, 0
5, 53612, Note_on_c, 3, 64, 98
5, 53620, Note_on_c, 3, 61, 119
5, 53632, Note_on_c, 3, 81, 103
5, 53660, Note_off_c, 3, 64, 0
5, 53664, Note_off_c, 3, 61, 0
5, 53720, Note_on_c, 3, 66, 127
5, 53724, Note_on_c, 3, 62, 127
5, 53944, Note_off_c, 3, 66, 0
5, 53948, Note_off_c, 3, 62, 0
5, 54024, Note_on_c, 3, 66, 119
5, 54028, Note_on_c, 3, 62, 127
5, 54084, Note_off_c, 3, 81, 0
5, 54132, Note_on_c, 3, 81, 98
5, 54156, Note_off_c, 3, 66, 0
5, 54156, Note_off_c, 3, 62, 0
5, 54208, Note_on_c, 3, 62, 127
5, 54216, Note_on_c, 3, 66, 119
5, 54292, Note_off_c, 3, 81, 0
5, 54328, Note_on_c, 3, 81, 93
5, 54336, Note_off_c, 3, 66, 0
5, 54340, Note_off_c, 3, 62, 0
5, 54400, Note_on_c, 3, 61, 127
5, 54424, Note_on_c, 3, 64, 126
5, 54464, Note_off_c, 3, 81, 0
5, 54524, Note_on_c, 3, 81, 98
5, 54728, Note_off_c, 3, 61, 0
5, 54764, Note_off_c, 3, 64, 0
5, 54780, Note_on_c, 3, 61, 127
5, 54812, Note_on_c, 3, 64, 109
5, 54820, Note_off_c, 3, 61, 0
5, 54860, Note_off_c, 3, 64, 0
5, 54860, Note_on_c, 3, 61, 126
5, 54908, Note_off_c, 3, 61, 0
5, 54908, Note_on_c, 3, 64, 98
5, 54952, Note_off_c, 3, 64, 0
5, 54972, Note_on_c, 3, 59, 126
5, 54988, Note_on_c, 3, 64, 103
5, 55052, Note_off_c, 3, 81, 0
5, 55076, Note_on_c, 3, 80, 89
5, 55100, Note_off_c, 3, 59, 0
5, 55116, Note_off_c, 3, 64, 0
5, 55140, Note_off_c, 3, 80, 0
5, 55148, Note_on_c, 3, 59, 127
5, 55168, Note_on_c, 3, 64, 114
5, 55184, Note_on_c, 3, 80, 98
5, 55868, Note_off_c, 3, 59, 0
5, 55980, Note_off_c, 3, 64, 0
5, 56040, Note_off_c, 3, 80, 0
5, 56232, Note_on_c, 3, 64, 126
5, 56248, Note_on_c, 3, 81, 93
5, 56248, Note_on_c, 3, 61, 127
5, 56372, Note_off_c, 3, 64, 0
5, 56380, Note_off_c, 3, 81, 0
5, 56388, Note_off_c, 3, 61, 0
5, 56416, Note_on_c, 3, 64, 114
5, 56436, Note_on_c, 3, 81, 103
5, 56448, Note_on_c, 3, 61, 127
5, 56456, Note_off_c, 3, 64, 0
5, 56484, Note_off_c, 3, 81, 0
5, 56484, Note_off_c, 3, 61, 0
5, 56512, Note_on_c, 3, 64, 109
5, 56536, Note_on_c, 3, 81, 103
5, 56536, Note_on_c, 3, 61, 126
5, 56548, Note_off_c, 3, 64, 0
5, 56572, Note_off_c, 3, 81, 0
5, 56572, Note_off_c, 3, 61, 0
5, 56608, Note_on_c, 3, 64, 103
5, 56616, Note_on_c, 3, 61, 126
5, 56632, Note_on_c, 3, 81, 109
5, 56644, Note_off_c, 3, 64, 0
5, 56660, Note_off_c, 3, 61, 0
5, 56664, Note_off_c, 3, 81, 0
5, 56692, Note_on_c, 3, 64, 109
5, 56704, Note_on_c, 3, 61, 114
5, 56712, Note_on_c, 3, 81, 98
5, 56744, Note_off_c, 3, 64, 0
5, 56748, Note_off_c, 3, 61, 0
5, 56748, Note_off_c, 3, 81, 0
5, 56796, Note_on_c, 3, 66, 126
5, 56804, Note_on_c, 3, 62, 127
5, 56804, Note_on_c, 3, 81, 103
5, 56852, Note_off_c, 3, 66, 0
5, 56856, Note_off_c, 3, 62, 0
5, 56860, Note_off_c, 3, 81, 0
5, 56892, Note_on_c, 3, 66, 119
5, 56912, Note_on_c, 3, 81, 93
5, 56912, Note_on_c, 3, 62, 127
5, 57036, Note_off_c, 3, 66, 0
5, 57044, Note_off_c, 3, 62, 0
5, 57068, Note_off_c, 3, 81, 0
5, 57092, Note_on_c, 3, 66, 114
5, 57108, Note_on_c, 3, 62, 127
5, 57124, Note_on_c, 3, 81, 103
5, 57228, Note_off_c, 3, 66, 0
5, 57228, Note_off_c, 3, 62, 0
5, 57252, Note_off_c, 3, 81, 0
5, 57288, Note_on_c, 3, 62, 127
5, 57288, Note_on_c, 3, 66, 119
5, 57304, Note_on_c, 3, 81, 109
5, 57404, Note_off_c, 3, 66, 0
5, 57416, Note_off_c, 3, 62, 0
5, 57436, Note_off_c, 3, 81, 0
5, 57480, Note_on_c, 3, 64, 119
5, 57488, Note_on_c, 3, 61, 127
5, 57504, Note_on_c, 3, 81, 103
5, 57816, Note_off_c, 3, 61, 0
5, 57832, Note_off_c, 3, 81, 0
5, 57844, Note_off_c, 3, 64, 0
5, 57880, Note_on_c, 3, 61, 127
5, 57884, Note_on_c, 3, 81, 98
5, 57884, Note_on_c, 3, 64, 98
5, 57916, Note_off_c, 3, 61, 0
5, 57916, Note_off_c, 3, 81, 0
5, 57932, Note_off_c, 3, 64, 0
5, 57964, Note_on_c, 3, 81, 98
5, 57964, Note_on_c, 3, 61, 126
5, 57980, Note_on_c, 3, 64, 98
5, 58020, Note_off_c, 3, 81, 0
5, 58020, Note_off_c, 3, 61, 0
5, 58028, Note_off_c, 3, 64, 0
5, 58060, Note_on_c, 3, 59, 127
5, 58064, Note_on_c, 3, 64, 109
5, 58072, Note_on_c, 3, 80, 109
5, 58184, Note_off_c, 3, 64, 0
5, 58228, Note_on_c, 3, 64, 114
5, 58236, Note_off_c, 3, 59, 0
5, 58284, Note_off_c, 3, 80, 0
5, 58292, Note_on_c, 3, 59, 127
5, 58332, Note_on_c, 3, 80, 89
5, 58772, Note_off_c, 3, 64, 0
5, 58808, Note_off_c, 3, 59, 0
5, 58820, Note_on_c, 3, 61, 127
5, 58824, Note_off_c, 3, 80, 0
5, 58824, Note_on_c, 3, 78, 93
5, 58824, Note_on_c, 3, 57, 109
5, 58876, Note_off_c, 3, 61, 0
5, 58904, Note_on_c, 3, 59, 127
5, 58908, Note_off_c, 3, 78, 0
5, 58908, Note_off_c, 3, 57, 0
5, 58928, Note_on_c, 3, 56, 127
5, 58928, Note_on_c, 3, 76, 109
5, 59076, Note_off_c, 3, 59, 0
5, 59104, Note_off_c, 3, 56, 0
5, 59124, Note_on_c, 3, 64, 109
5, 59124, Note_on_c, 3, 80, 104
5, 59148, Note_on_c, 3, 59, 127
5, 59156, Note_off_c, 3, 76, 0
5, 59548, Note_off_c, 3, 80, 0
5, 59560, Note_off_c, 3, 64, 0
5, 59584, Note_on_c, 3, 61, 119
5, 59592, Note_on_c, 3, 81, 89
5, 59596, Note_off_c, 3, 59, 0
5, 59644, Note_off_c, 3, 61, 0
5, 59676, Note_on_c, 3, 59, 126
5, 59684, Note_off_c, 3, 59, 0
5, 59684, Note_on_c, 3, 59, 126
5, 59688, Note_off_c, 3, 81, 0
5, 59692, Note_on_c, 3, 80, 89
5, 59852, Note_off_c, 3, 59, 0
5, 59868, Note_on_c, 3, 61, 119
5, 59876, Note_on_c, 3, 57, 127
5, 59888, Note_on_c, 3, 78, 109
5, 59892, Note_off_c, 3, 80, 0
5, 60300, Note_off_c, 3, 78, 0
5, 60344, Note_off_c, 3, 61, 0
5, 60348, Note_off_c, 3, 57, 0
5, 66988, Note_on_c, 3, 66, 127
5, 67128, Note_off_c, 3, 66, 0
5, 67180, Note_on_c, 3, 66, 127
5, 67532, Note_off_c, 3, 66, 0
5, 67564, Note_on_c, 3, 66, 126
5, 67628, Note_off_c, 3, 66, 0
5, 67676, Note_on_c, 3, 66, 127
5, 67924, Note_off_c, 3, 66, 0
5, 67960, Note_on_c, 3, 68, 127
5, 68076, Note_off_c, 3, 68, 0
5, 68128, Note_on_c, 3, 70, 127
5, 68204, Note_off_c, 3, 70, 0
5, 68256, Note_on_c, 3, 71, 127
5, 68888, Note_off_c, 3, 71, 0
5, 69104, Note_on_c, 3, 63, 127
5, 69160, Note_off_c, 3, 63, 0
5, 69204, Note_on_c, 3, 63, 127
5, 69484, Note_off_c, 3, 63, 0
5, 69484, Note_on_c, 3, 64, 114
5, 69672, Note_on_c, 3, 66, 127
5, 69692, Note_off_c, 3, 64, 0
5, 69824, Note_off_c, 3, 66, 0
5, 69872, Note_on_c, 3, 66, 127
5, 70028, Note_off_c, 3, 66, 0
5, 70056, Note_on_c, 3, 64, 126
5, 70116, Note_off_c, 3, 64, 0
5, 70168, Note_on_c, 3, 64, 127
5, 70312, Note_off_c, 3, 64, 0
5, 70352, Note_on_c, 3, 63, 119
5, 70508, Note_off_c, 3, 63, 0
5, 70548, Note_on_c, 3, 61, 126
5, 70972, Note_off_c, 3, 61, 0
5, 71016, Note_on_c, 3, 61, 119
5, 71204, Note_off_c, 3, 61, 0
5, 71208, Note_on_c, 3, 59, 127
5, 71400, Note_off_c, 3, 59, 0
5, 71412, Note_on_c, 3, 63, 127
5, 71884, Note_off_c, 3, 63, 0
5, 71900, Note_on_c, 3, 61, 119
5, 71976, Note_off_c, 3, 61, 0
5, 71992, Note_on_c, 3, 59, 126
5, 72164, Note_off_c, 3, 59, 0
5, 72176, Note_on_c, 3, 61, 127
5, 72984, Note_off_c, 3, 61, 0
5, 73884, Note_on_c, 3, 66, 127
5, 74036, Note_off_c, 3, 66, 0
5, 74068, Note_on_c, 3, 66, 126
5, 74216, Note_off_c, 3, 66, 0
5, 74264, Note_on_c, 3, 66, 119
5, 74316, Note_off_c, 3, 66, 0
5, 74356, Note_on_c, 3, 66, 103
5, 74412, Note_off_c, 3, 66, 0
5, 74560, Note_on_c, 3, 66, 127
5, 74812, Note_off_c, 3, 66, 0
5, 74856, Note_on_c, 3, 68, 126
5, 75012, Note_off_c, 3, 68, 0
5, 75032, Note_on_c, 3, 70, 119
5, 75124, Note_off_c, 3, 70, 0
5, 75160, Note_on_c, 3, 71, 119
5, 75564, Note_off_c, 3, 71, 0
5, 75612, Note_on_c, 3, 63, 127
5, 75772, Note_off_c, 3, 63, 0
5, 75808, Note_on_c, 3, 63, 119
5, 75944, Note_off_c, 3, 63, 0
5, 75996, Note_on_c, 3, 63, 126
5, 76044, Note_off_c, 3, 63, 0
5, 76088, Note_on_c, 3, 63, 119
5, 76140, Note_off_c, 3, 63, 0
5, 76176, Note_on_c, 3, 63, 127
5, 76236, Note_off_c, 3, 63, 0
5, 76284, Note_on_c, 3, 64, 126
5, 76444, Note_off_c, 3, 64, 0
5, 76472, Note_on_c, 3, 66, 127
5, 76740, Note_off_c, 3, 66, 0
5, 76780, Note_on_c, 3, 66, 127
5, 76940, Note_off_c, 3, 66, 0
5, 76968, Note_on_c, 3, 64, 127
5, 77024, Note_off_c, 3, 64, 0
5, 77080, Note_on_c, 3, 64, 127
5, 77224, Note_off_c, 3, 64, 0
5, 77260, Note_on_c, 3, 63, 126
5, 77516, Note_off_c, 3, 63, 0
5, 77536, Note_on_c, 3, 61, 127
5, 77708, Note_off_c, 3, 61, 0
5, 77756, Note_on_c, 3, 61, 126
5, 77800, Note_off_c, 3, 61, 0
5, 77852, Note_on_c, 3, 61, 126
5, 78012, Note_off_c, 3, 61, 0
5, 78020, Note_on_c, 3, 59, 126
5, 78312, Note_off_c, 3, 59, 0
5, 78336, Note_on_c, 3, 63, 127
5, 78804, Note_on_c, 3, 61, 127
5, 78820, Note_off_c, 3, 63, 0
5, 78884, Note_off_c, 3, 61, 0
5, 78888, Note_on_c, 3, 59, 127
5, 79060, Note_on_c, 3, 61, 127
5, 79076, Note_off_c, 3, 59, 0
5, 79748, Note_off_c, 3, 61, 0
5, 80788, Note_on_c, 3, 66, 127
5, 80932, Note_off_c, 3, 66, 0
5, 80980, Note_on_c, 3, 66, 127
5, 81116, Note_off_c, 3, 66, 0
5, 81168, Note_on_c, 3, 66, 126
5, 81224, Note_off_c, 3, 66, 0
5, 81268, Note_on_c, 3, 66, 126
5, 81408, Note_off_c, 3, 66, 0
5, 81468, Note_on_c, 3, 66, 126
5, 81628, Note_off_c, 3, 66, 0
5, 81700, Note_on_c, 3, 75, 126
5, 81836, Note_off_c, 3, 75, 0
5, 81880, Note_on_c, 3, 73, 119
5, 82032, Note_off_c, 3, 73, 0
5, 82052, Note_on_c, 3, 71, 126
5, 82684, Note_off_c, 3, 71, 0
5, 82924, Note_on_c, 3, 75, 119
5, 82976, Note_off_c, 3, 75, 0
5, 83032, Note_on_c, 3, 75, 103
5, 83292, Note_off_c, 3, 75, 0
5, 83304, Note_on_c, 3, 76, 114
5, 83476, Note_off_c, 3, 76, 0
5, 83496, Note_on_c, 3, 78, 114
5, 83608, Note_off_c, 3, 78, 0
5, 83684, Note_on_c, 3, 78, 109
5, 83852, Note_off_c, 3, 78, 0
5, 83864, Note_on_c, 3, 76, 109
5, 83924, Note_off_c, 3, 76, 0
5, 83976, Note_on_c, 3, 76, 109
5, 84132, Note_off_c, 3, 76, 0
5, 84160, Note_on_c, 3, 75, 103
5, 84248, Note_off_c, 3, 75, 0
5, 84268, Note_on_c, 3, 76, 119
5, 86420, Note_off_c, 3, 76, 0
5, 86940, Note_on_c, 3, 81, 103
5, 87084, Note_off_c, 3, 81, 0
5, 87152, Note_on_c, 3, 81, 98
5, 87276, Note_off_c, 3, 81, 0
5, 87332, Note_on_c, 3, 81, 73
5, 87400, Note_off_c, 3, 81, 0
5, 87448, Note_on_c, 3, 81, 93
5, 87676, Note_off_c, 3, 81, 0
5, 87712, Note_on_c, 3, 81, 89
5, 87864, Note_off_c, 3, 81, 0
5, 87912, Note_on_c, 3, 81, 93
5, 88044, Note_off_c, 3, 81, 0
5, 88100, Note_on_c, 3, 81, 98
5, 88248, Note_off_c, 3, 81, 0
5, 88300, Note_on_c, 3, 81, 114
5, 88868, Note_on_c, 3, 80, 109
5, 88872, Note_off_c, 3, 81, 0
5, 88924, Note_off_c, 3, 80, 0
5, 88980, Note_on_c, 3, 80, 103
5, 89692, Note_off_c, 3, 80, 0
5, 90028, Note_on_c, 3, 81, 109
5, 90036, Note_on_c, 3, 61, 127
5, 90036, Note_on_c, 3, 64, 127
5, 90168, Note_off_c, 3, 61, 0
5, 90168, Note_off_c, 3, 64, 0
5, 90184, Note_off_c, 3, 81, 0
5, 90220, Note_on_c, 3, 81, 93
5, 90220, Note_on_c, 3, 64, 127
5, 90228, Note_on_c, 3, 61, 127
5, 90268, Note_off_c, 3, 81, 0
5, 90268, Note_off_c, 3, 61, 0
5, 90276, Note_off_c, 3, 64, 0
5, 90312, Note_on_c, 3, 81, 89
5, 90316, Note_on_c, 3, 61, 126
5, 90316, Note_on_c, 3, 64, 109
5, 90356, Note_off_c, 3, 81, 0
5, 90356, Note_off_c, 3, 61, 0
5, 90364, Note_off_c, 3, 64, 0
5, 90404, Note_on_c, 3, 61, 126
5, 90404, Note_on_c, 3, 81, 89
5, 90408, Note_on_c, 3, 64, 103
5, 90440, Note_off_c, 3, 61, 0
5, 90444, Note_off_c, 3, 81, 0
5, 90456, Note_off_c, 3, 64, 0
5, 90484, Note_on_c, 3, 61, 127
5, 90492, Note_on_c, 3, 64, 93
5, 90500, Note_on_c, 3, 81, 89
5, 90532, Note_off_c, 3, 61, 0
5, 90548, Note_off_c, 3, 64, 0
5, 90548, Note_off_c, 3, 81, 0
5, 90584, Note_on_c, 3, 62, 127
5, 90588, Note_on_c, 3, 66, 127
5, 90604, Note_on_c, 3, 81, 98
5, 90636, Note_off_c, 3, 62, 0
5, 90636, Note_off_c, 3, 66, 0
5, 90660, Note_off_c, 3, 81, 0
5, 90688, Note_on_c, 3, 62, 127
5, 90700, Note_on_c, 3, 66, 127
5, 90708, Note_on_c, 3, 81, 98
5, 90816, Note_off_c, 3, 66, 0
5, 90844, Note_off_c, 3, 62, 0
5, 90856, Note_off_c, 3, 81, 0
5, 90892, Note_on_c, 3, 66, 127
5, 90892, Note_on_c, 3, 62, 127
5, 90896, Note_on_c, 3, 81, 85
5, 91012, Note_off_c, 3, 62, 0
5, 91016, Note_off_c, 3, 66, 0
5, 91028, Note_off_c, 3, 81, 0
5, 91068, Note_on_c, 3, 62, 127
5, 91072, Note_on_c, 3, 66, 127
5, 91088, Note_on_c, 3, 81, 89
5, 91196, Note_off_c, 3, 62, 0
5, 91204, Note_off_c, 3, 66, 0
5, 91212, Note_off_c, 3, 81, 0
5, 91260, Note_on_c, 3, 61, 127
5, 91264, Note_on_c, 3, 81, 109
5, 91268, Note_on_c, 3, 64, 127
5, 91592, Note_off_c, 3, 61, 0
5, 91596, Note_off_c, 3, 64, 0
5, 91604, Note_off_c, 3, 81, 0
5, 91644, Note_on_c, 3, 64, 114
5, 91644, Note_on_c, 3, 61, 127
5, 91664, Note_on_c, 3, 81, 98
5, 91684, Note_off_c, 3, 64, 0
5, 91688, Note_off_c, 3, 61, 0
5, 91716, Note_off_c, 3, 81, 0
5, 91728, Note_on_c, 3, 61, 127
5, 91740, Note_on_c, 3, 64, 126
5, 91752, Note_on_c, 3, 81, 85
5, 91780, Note_off_c, 3, 61, 0
5, 91784, Note_off_c, 3, 64, 0
5, 91812, Note_off_c, 3, 81, 0
5, 91832, Note_on_c, 3, 59, 127
5, 91832, Note_on_c, 3, 64, 114
5, 91848, Note_on_c, 3, 80, 103
5, 91960, Note_off_c, 3, 64, 0
5, 91980, Note_off_c, 3, 59, 0
5, 92012, Note_on_c, 3, 64, 103
5, 92024, Note_on_c, 3, 59, 127
5, 92044, Note_off_c, 3, 80, 0
5, 92096, Note_on_c, 3, 80, 93
5, 92668, Note_off_c, 3, 80, 0
5, 92772, Note_off_c, 3, 59, 0
5, 92792, Note_off_c, 3, 64, 0
5, 93096, Note_on_c, 3, 64, 127
5, 93100, Note_on_c, 3, 81, 93
5, 93104, Note_on_c, 3, 61, 127
5, 93236, Note_off_c, 3, 64, 0
5, 93244, Note_off_c, 3, 81, 0
5, 93252, Note_off_c, 3, 61, 0
5, 93284, Note_on_c, 3, 64, 114
5, 93292, Note_on_c, 3, 81, 93
5, 93308, Note_on_c, 3, 61, 127
5, 93380, Note_off_c, 3, 64, 0
5, 93404, Note_off_c, 3, 81, 0
5, 93412, Note_off_c, 3, 61, 0
5, 93456, Note_on_c, 3, 81, 85
5, 93456, Note_on_c, 3, 64, 109
5, 93472, Note_on_c, 3, 61, 127
5, 93492, Note_off_c, 3, 64, 0
5, 93512, Note_off_c, 3, 61, 0
5, 93516, Note_off_c, 3, 81, 0
5, 93548, Note_on_c, 3, 64, 98
5, 93556, Note_on_c, 3, 61, 119
5, 93568, Note_on_c, 3, 81, 103
5, 93596, Note_off_c, 3, 64, 0
5, 93600, Note_off_c, 3, 61, 0
5, 93656, Note_on_c, 3, 66, 127
5, 93664, Note_on_c, 3, 62, 127
5, 93912, Note_off_c, 3, 62, 0
5, 93928, Note_off_c, 3, 66, 0
5, 93960, Note_on_c, 3, 66, 119
5, 93964, Note_on_c, 3, 62, 127
5, 94020, Note_off_c, 3, 81, 0
5, 94068, Note_on_c, 3, 81, 98
5, 94092, Note_off_c, 3, 66, 0
5, 94092, Note_off_c, 3, 62, 0
5, 94144, Note_on_c, 3, 62, 127
5, 94156, Note_on_c, 3, 66, 119
5, 94228, Note_off_c, 3, 81, 0
5, 94264, Note_on_c, 3, 81, 93
5, 94280, Note_off_c, 3, 66, 0
5, 94284, Note_off_c, 3, 62, 0
5, 94344, Note_on_c, 3, 61, 127
5, 94364, Note_on_c, 3, 64, 126
5, 94408, Note_off_c, 3, 81, 0
5, 94464, Note_on_c, 3, 81, 98
5, 94860, Note_off_c, 3, 61, 0
5, 94884, Note_off_c, 3, 64, 0
5, 94908, Note_on_c, 3, 59, 126
5, 94924, Note_on_c, 3, 64, 103
5, 94988, Note_off_c, 3, 81, 0
5, 95012, Note_on_c, 3, 80, 89
5, 95036, Note_off_c, 3, 59, 0
5, 95048, Note_off_c, 3, 64, 0
5, 95068, Note_off_c, 3, 80, 0
5, 95080, Note_on_c, 3, 59, 127
5, 95100, Note_on_c, 3, 64, 114
5, 95120, Note_on_c, 3, 80, 98
5, 95804, Note_off_c, 3, 59, 0
5, 95916, Note_off_c, 3, 64, 0
5, 95980, Note_off_c, 3, 80, 0
5, 96168, Note_on_c, 3, 64, 126
5, 96184, Note_on_c, 3, 81, 93
5, 96184, Note_on_c, 3, 61, 127
5, 96308, Note_off_c, 3, 64, 0
5, 96316, Note_off_c, 3, 81, 0
5, 96316, Note_off_c, 3, 61, 0
5, 96352, Note_on_c, 3, 64, 114
5, 96372, Note_on_c, 3, 81, 103
5, 96380, Note_on_c, 3, 61, 127
5, 96392, Note_off_c, 3, 64, 0
5, 96420, Note_off_c, 3, 81, 0
5, 96420, Note_off_c, 3, 61, 0
5, 96448, Note_on_c, 3, 64, 109
5, 96468, Note_on_c, 3, 81, 103
5, 96472, Note_on_c, 3, 61, 126
5, 96480, Note_off_c, 3, 64, 0
5, 96504, Note_off_c, 3, 81, 0
5, 96508, Note_off_c, 3, 61, 0
5, 96544, Note_on_c, 3, 64, 103
5, 96556, Note_on_c, 3, 61, 126
5, 96564, Note_on_c, 3, 81, 109
5, 96580, Note_off_c, 3, 64, 0
5, 96600, Note_off_c, 3, 61, 0
5, 96600, Note_off_c, 3, 81, 0
5, 96628, Note_on_c, 3, 64, 109
5, 96640, Note_on_c, 3, 61, 114
5, 96656, Note_on_c, 3, 81, 98
5, 96676, Note_off_c, 3, 64, 0
5, 96684, Note_off_c, 3, 61, 0
5, 96684, Note_off_c, 3, 81, 0
5, 96736, Note_on_c, 3, 66, 126
5, 96736, Note_on_c, 3, 62, 127
5, 96744, Note_on_c, 3, 81, 103
5, 96788, Note_off_c, 3, 66, 0
5, 96792, Note_off_c, 3, 62, 0
5, 96796, Note_off_c, 3, 81, 0
5, 96832, Note_on_c, 3, 66, 119
5, 96848, Note_on_c, 3, 81, 93
5, 96848, Note_on_c, 3, 62, 127
5, 96972, Note_off_c, 3, 66, 0
5, 96980, Note_off_c, 3, 62, 0
5, 97004, Note_off_c, 3, 81, 0
5, 97028, Note_on_c, 3, 66, 114
5, 97044, Note_on_c, 3, 62, 127
5, 97060, Note_on_c, 3, 81, 103
5, 97160, Note_off_c, 3, 66, 0
5, 97164, Note_off_c, 3, 62, 0
5, 97188, Note_off_c, 3, 81, 0
5, 97224, Note_on_c, 3, 62, 127
5, 97224, Note_on_c, 3, 66, 119
5, 97240, Note_on_c, 3, 81, 109
5, 97340, Note_off_c, 3, 66, 0
5, 97352, Note_off_c, 3, 62, 0
5, 97368, Note_off_c, 3, 81, 0
5, 97420, Note_on_c, 3, 64, 119
5, 97424, Note_on_c, 3, 61, 127
5, 97440, Note_on_c, 3, 81, 103
5, 97748, Note_off_c, 3, 61, 0
5, 97768, Note_off_c, 3, 81, 0
5, 97780, Note_off_c, 3, 64, 0
5, 97824, Note_on_c, 3, 61, 127
5, 97824, Note_on_c, 3, 81, 98
5, 97824, Note_on_c, 3, 64, 98
5, 97852, Note_off_c, 3, 61, 0
5, 97852, Note_off_c, 3, 81, 0
5, 97864, Note_off_c, 3, 64, 0
5, 97900, Note_on_c, 3, 81, 98
5, 97904, Note_on_c, 3, 61, 126
5, 97916, Note_on_c, 3, 64, 98
5, 97956, Note_off_c, 3, 81, 0
5, 97956, Note_off_c, 3, 61, 0
5, 97964, Note_off_c, 3, 64, 0
5, 97996, Note_on_c, 3, 59, 127
5, 98000, Note_on_c, 3, 64, 109
5, 98008, Note_on_c, 3, 80, 109
5, 98120, Note_off_c, 3, 64, 0
5, 98164, Note_on_c, 3, 64, 114
5, 98172, Note_off_c, 3, 59, 0
5, 98220, Note_off_c, 3, 80, 0
5, 98228, Note_on_c, 3, 59, 127
5, 98272, Note_on_c, 3, 80, 89
5, 98708, Note_off_c, 3, 64, 0
5, 98748, Note_off_c, 3, 59, 0
5, 98752, Note_on_c, 3, 61, 127
5, 98756, Note_off_c, 3, 80, 0
5, 98756, Note_on_c, 3, 78, 93
5, 98760, Note_on_c, 3, 57, 109
5, 98812, Note_off_c, 3, 61, 0
5, 98844, Note_off_c, 3, 78, 0
5, 98844, Note_off_c, 3, 57, 0
5, 98844, Note_on_c, 3, 59, 127
5, 98860, Note_on_c, 3, 56, 127
5, 98864, Note_on_c, 3, 76, 109
5, 99016, Note_off_c, 3, 59, 0
5, 99036, Note_off_c, 3, 56, 0
5, 99060, Note_on_c, 3, 64, 109
5, 99064, Note_on_c, 3, 80, 104
5, 99084, Note_on_c, 3, 59, 127
5, 99092, Note_off_c, 3, 76, 0
5, 99480, Note_off_c, 3, 80, 0
5, 99496, Note_off_c, 3, 64, 0
5, 99520, Note_on_c, 3, 61, 119
5, 99528, Note_on_c, 3, 81, 89
5, 99532, Note_off_c, 3, 59, 0
5, 99580, Note_off_c, 3, 61, 0
5, 99612, Note_on_c, 3, 59, 126
5, 99628, Note_off_c, 3, 81, 0
5, 99628, Note_on_c, 3, 80, 89
5, 99784, Note_off_c, 3, 59, 0
5, 99800, Note_on_c, 3, 61, 119
5, 99812, Note_on_c, 3, 57, 127
5, 99824, Note_on_c, 3, 78, 109
5, 99828, Note_off_c, 3, 80, 0
5, 100236, Note_off_c, 3, 78, 0
5, 100280, Note_off_c, 3, 61, 0
5, 100284, Note_off_c, 3, 57, 0
5, 115948, Note_on_c, 3, 71, 119
5, 115948, Note_on_c, 3, 75, 127
5, 116004, Note_off_c, 3, 71, 0
5, 116004, Note_off_c, 3, 75, 0
5, 116044, Note_on_c, 3, 75, 119
5, 116052, Note_on_c, 3, 71, 109
5, 116292, Note_off_c, 3, 71, 0
5, 116316, Note_on_c, 3, 73, 89
5, 116348, Note_off_c, 3, 75, 0
5, 116348, Note_on_c, 3, 76, 119
5, 116488, Note_off_c, 3, 73, 0
5, 116488, Note_off_c, 3, 76, 0
5, 116516, Note_on_c, 3, 78, 109
5, 116520, Note_on_c, 3, 75, 93
5, 116644, Note_off_c, 3, 78, 0
5, 116664, Note_off_c, 3, 75, 0
5, 116700, Note_on_c, 3, 78, 119
5, 116708, Note_on_c, 3, 75, 85
5, 116860, Note_off_c, 3, 75, 0
5, 116860, Note_off_c, 3, 78, 0
5, 116888, Note_on_c, 3, 76, 126
5, 116892, Note_on_c, 3, 73, 89
5, 116948, Note_off_c, 3, 76, 0
5, 116948, Note_off_c, 3, 73, 0
5, 117004, Note_on_c, 3, 76, 126
5, 117008, Note_on_c, 3, 73, 89
5, 117144, Note_off_c, 3, 76, 0
5, 117160, Note_off_c, 3, 73, 0
5, 117164, Note_on_c, 3, 71, 89
5, 117188, Note_on_c, 3, 75, 119
5, 117248, Note_off_c, 3, 75, 0
5, 117256, Note_off_c, 3, 71, 0
5, 117284, Note_on_c, 3, 73, 69
5, 117284, Note_on_c, 3, 76, 119
5, 119204, Note_off_c, 3, 73, 0
5, 119288, Note_off_c, 3, 76, 0
5, 119960, Note_on_c, 3, 81, 103
5, 120100, Note_off_c, 3, 81, 0
5, 120168, Note_on_c, 3, 81, 98
5, 120296, Note_off_c, 3, 81, 0
5, 120352, Note_on_c, 3, 81, 73
5, 120412, Note_off_c, 3, 81, 0
5, 120464, Note_on_c, 3, 81, 93
5, 120692, Note_off_c, 3, 81, 0
5, 120724, Note_on_c, 3, 81, 89
5, 120876, Note_off_c, 3, 81, 0
5, 120920, Note_on_c, 3, 81, 93
5, 121068, Note_off_c, 3, 81, 0
5, 121116, Note_on_c, 3, 81, 98
5, 121260, Note_off_c, 3, 81, 0
5, 121312, Note_on_c, 3, 81, 114
5, 121884, Note_off_c, 3, 81, 0
5, 121884, Note_on_c, 3, 80, 109
5, 121944, Note_off_c, 3, 80, 0
5, 121992, Note_on_c, 3, 80, 103
5, 122708, Note_off_c, 3, 80, 0
5, 123044, Note_on_c, 3, 81, 109
5, 123048, Note_on_c, 3, 61, 127
5, 123052, Note_on_c, 3, 64, 127
5, 123180, Note_off_c, 3, 64, 0
5, 123192, Note_off_c, 3, 61, 0
5, 123196, Note_off_c, 3, 81, 0
5, 123236, Note_on_c, 3, 81, 93
5, 123236, Note_on_c, 3, 64, 127
5, 123244, Note_on_c, 3, 61, 127
5, 123284, Note_off_c, 3, 81, 0
5, 123288, Note_off_c, 3, 61, 0
5, 123292, Note_off_c, 3, 64, 0
5, 123328, Note_on_c, 3, 81, 89
5, 123332, Note_on_c, 3, 61, 126
5, 123336, Note_on_c, 3, 64, 109
5, 123372, Note_off_c, 3, 81, 0
5, 123372, Note_off_c, 3, 61, 0
5, 123372, Note_off_c, 3, 64, 0
5, 123416, Note_on_c, 3, 61, 126
5, 123420, Note_on_c, 3, 81, 89
5, 123424, Note_on_c, 3, 64, 103
5, 123452, Note_off_c, 3, 61, 0
5, 123460, Note_off_c, 3, 81, 0
5, 123468, Note_off_c, 3, 64, 0
5, 123496, Note_on_c, 3, 61, 127
5, 123508, Note_on_c, 3, 64, 93
5, 123516, Note_on_c, 3, 81, 89
5, 123548, Note_off_c, 3, 61, 0
5, 123564, Note_off_c, 3, 64, 0
5, 123564, Note_off_c, 3, 81, 0
5, 123596, Note_on_c, 3, 62, 127
5, 123600, Note_on_c, 3, 66, 127
5, 123620, Note_on_c, 3, 81, 98
5, 123656, Note_off_c, 3, 62, 0
5, 123656, Note_off_c, 3, 66, 0
5, 123676, Note_off_c, 3, 81, 0
5, 123704, Note_on_c, 3, 62, 127
5, 123720, Note_on_c, 3, 66, 127
5, 123720, Note_on_c, 3, 81, 98
5, 123836, Note_off_c, 3, 66, 0
5, 123860, Note_off_c, 3, 62, 0
5, 123872, Note_off_c, 3, 81, 0
5, 123908, Note_on_c, 3, 66, 127
5, 123908, Note_on_c, 3, 62, 127
5, 123916, Note_on_c, 3, 81, 85
5, 124028, Note_off_c, 3, 66, 0
5, 124028, Note_off_c, 3, 62, 0
5, 124052, Note_off_c, 3, 81, 0
5, 124084, Note_on_c, 3, 62, 127
5, 124088, Note_on_c, 3, 66, 127
5, 124100, Note_on_c, 3, 81, 89
5, 124216, Note_off_c, 3, 62, 0
5, 124220, Note_off_c, 3, 66, 0
5, 124228, Note_off_c, 3, 81, 0
5, 124276, Note_on_c, 3, 61, 127
5, 124280, Note_on_c, 3, 81, 109
5, 124280, Note_on_c, 3, 64, 127
5, 124604, Note_off_c, 3, 61, 0
5, 124612, Note_off_c, 3, 64, 0
5, 124616, Note_off_c, 3, 81, 0
5, 124660, Note_on_c, 3, 64, 114
5, 124664, Note_on_c, 3, 61, 127
5, 124676, Note_on_c, 3, 81, 98
5, 124700, Note_off_c, 3, 64, 0
5, 124700, Note_off_c, 3, 61, 0
5, 124732, Note_off_c, 3, 81, 0
5, 124744, Note_on_c, 3, 61, 127
5, 124756, Note_on_c, 3, 64, 126
5, 124772, Note_on_c, 3, 81, 85
5, 124796, Note_off_c, 3, 61, 0
5, 124796, Note_off_c, 3, 64, 0
5, 124828, Note_off_c, 3, 81, 0
5, 124840, Note_on_c, 3, 59, 127
5, 124848, Note_on_c, 3, 64, 114
5, 124868, Note_on_c, 3, 80, 103
5, 124968, Note_off_c, 3, 64, 0
5, 125000, Note_off_c, 3, 59, 0
5, 125028, Note_on_c, 3, 64, 103
5, 125040, Note_on_c, 3, 59, 127
5, 125060, Note_off_c, 3, 80, 0
5, 125112, Note_on_c, 3, 80, 93
5, 125688, Note_off_c, 3, 80, 0
5, 125788, Note_off_c, 3, 59, 0
5, 125800, Note_off_c, 3, 64, 0
5, 126108, Note_on_c, 3, 64, 127
5, 126112, Note_on_c, 3, 81, 93
5, 126124, Note_on_c, 3, 61, 127
5, 126252, Note_off_c, 3, 64, 0
5, 126252, Note_off_c, 3, 81, 0
5, 126260, Note_off_c, 3, 61, 0
5, 126300, Note_on_c, 3, 64, 114
5, 126304, Note_on_c, 3, 81, 93
5, 126312, Note_on_c, 3, 61, 127
5, 126420, Note_off_c, 3, 81, 0
5, 126440, Note_off_c, 3, 64, 0
5, 126464, Note_off_c, 3, 61, 0
5, 126468, Note_on_c, 3, 81, 85
5, 126472, Note_on_c, 3, 64, 109
5, 126488, Note_on_c, 3, 61, 127
5, 126508, Note_off_c, 3, 64, 0
5, 126532, Note_off_c, 3, 81, 0
5, 126532, Note_off_c, 3, 61, 0
5, 126568, Note_on_c, 3, 64, 98
5, 126568, Note_on_c, 3, 61, 119
5, 126584, Note_on_c, 3, 81, 103
5, 126616, Note_off_c, 3, 64, 0
5, 126620, Note_off_c, 3, 61, 0
5, 126668, Note_on_c, 3, 66, 127
5, 126684, Note_on_c, 3, 62, 127
5, 126904, Note_off_c, 3, 66, 0
5, 126932, Note_off_c, 3, 62, 0
5, 126976, Note_on_c, 3, 66, 119
5, 126976, Note_on_c, 3, 62, 127
5, 127036, Note_off_c, 3, 81, 0
5, 127084, Note_on_c, 3, 81, 98
5, 127112, Note_off_c, 3, 62, 0
5, 127116, Note_off_c, 3, 66, 0
5, 127164, Note_on_c, 3, 62, 127
5, 127172, Note_on_c, 3, 66, 119
5, 127244, Note_off_c, 3, 81, 0
5, 127276, Note_on_c, 3, 81, 93
5, 127292, Note_off_c, 3, 62, 0
5, 127292, Note_off_c, 3, 66, 0
5, 127360, Note_on_c, 3, 61, 127
5, 127376, Note_on_c, 3, 64, 126
5, 127420, Note_off_c, 3, 81, 0
5, 127472, Note_on_c, 3, 81, 98
5, 127676, Note_off_c, 3, 61, 0
5, 127716, Note_off_c, 3, 64, 0
5, 127724, Note_on_c, 3, 61, 127
5, 127768, Note_on_c, 3, 64, 109
5, 127772, Note_off_c, 3, 61, 0
5, 127812, Note_off_c, 3, 64, 0
5, 127812, Note_on_c, 3, 61, 126
5, 127856, Note_on_c, 3, 64, 98
5, 127868, Note_off_c, 3, 61, 0
5, 127900, Note_off_c, 3, 64, 0
5, 127924, Note_on_c, 3, 59, 126
5, 127948, Note_on_c, 3, 64, 103
5, 128008, Note_off_c, 3, 81, 0
5, 128032, Note_on_c, 3, 80, 89
5, 128044, Note_off_c, 3, 59, 0
5, 128068, Note_off_c, 3, 64, 0
5, 128088, Note_off_c, 3, 80, 0
5, 128104, Note_on_c, 3, 59, 127
5, 128116, Note_on_c, 3, 64, 114
5, 128136, Note_on_c, 3, 80, 98
5, 128824, Note_off_c, 3, 59, 0
5, 128932, Note_off_c, 3, 64, 0
5, 129000, Note_off_c, 3, 80, 0
5, 129184, Note_on_c, 3, 64, 126
5, 129192, Note_on_c, 3, 81, 93
5, 129196, Note_on_c, 3, 61, 127
5, 129316, Note_off_c, 3, 64, 0
5, 129340, Note_off_c, 3, 81, 0
5, 129340, Note_off_c, 3, 61, 0
5, 129368, Note_on_c, 3, 64, 114
5, 129384, Note_on_c, 3, 81, 103
5, 129388, Note_on_c, 3, 61, 127
5, 129412, Note_off_c, 3, 64, 0
5, 129436, Note_off_c, 3, 81, 0
5, 129436, Note_off_c, 3, 61, 0
5, 129464, Note_on_c, 3, 64, 109
5, 129476, Note_on_c, 3, 81, 103
5, 129480, Note_on_c, 3, 61, 126
5, 129500, Note_off_c, 3, 64, 0
5, 129524, Note_off_c, 3, 81, 0
5, 129528, Note_off_c, 3, 61, 0
5, 129560, Note_on_c, 3, 64, 103
5, 129576, Note_on_c, 3, 61, 126
5, 129580, Note_on_c, 3, 81, 109
5, 129596, Note_off_c, 3, 64, 0
5, 129612, Note_off_c, 3, 61, 0
5, 129612, Note_off_c, 3, 81, 0
5, 129648, Note_on_c, 3, 64, 109
5, 129656, Note_on_c, 3, 61, 114
5, 129672, Note_on_c, 3, 81, 98
5, 129692, Note_off_c, 3, 64, 0
5, 129696, Note_off_c, 3, 61, 0
5, 129704, Note_off_c, 3, 81, 0
5, 129744, Note_on_c, 3, 66, 126
5, 129756, Note_on_c, 3, 62, 127
5, 129760, Note_on_c, 3, 81, 103
5, 129800, Note_off_c, 3, 66, 0
5, 129804, Note_off_c, 3, 62, 0
5, 129812, Note_off_c, 3, 81, 0
5, 129852, Note_on_c, 3, 66, 119
5, 129864, Note_on_c, 3, 81, 93
5, 129864, Note_on_c, 3, 62, 127
5, 129988, Note_off_c, 3, 66, 0
5, 129992, Note_off_c, 3, 62, 0
5, 130020, Note_off_c, 3, 81, 0
5, 130048, Note_on_c, 3, 66, 114
5, 130060, Note_on_c, 3, 62, 127
5, 130076, Note_on_c, 3, 81, 103
5, 130180, Note_off_c, 3, 66, 0
5, 130184, Note_off_c, 3, 62, 0
5, 130204, Note_off_c, 3, 81, 0
5, 130236, Note_on_c, 3, 62, 127
5, 130240, Note_on_c, 3, 66, 119
5, 130260, Note_on_c, 3, 81, 109
5, 130356, Note_off_c, 3, 66, 0
5, 130364, Note_off_c, 3, 62, 0
5, 130388, Note_off_c, 3, 81, 0
5, 130432, Note_on_c, 3, 64, 119
5, 130440, Note_on_c, 3, 61, 127
5, 130456, Note_on_c, 3, 81, 103
5, 130760, Note_off_c, 3, 61, 0
5, 130780, Note_off_c, 3, 81, 0
5, 130796, Note_off_c, 3, 64, 0
5, 130828, Note_on_c, 3, 61, 127
5, 130832, Note_on_c, 3, 81, 98
5, 130836, Note_on_c, 3, 64, 98
5, 130872, Note_off_c, 3, 61, 0
5, 130872, Note_off_c, 3, 81, 0
5, 130888, Note_off_c, 3, 64, 0
5, 130916, Note_on_c, 3, 81, 98
5, 130920, Note_on_c, 3, 61, 126
5, 130932, Note_on_c, 3, 64, 98
5, 130972, Note_off_c, 3, 81, 0
5, 130972, Note_off_c, 3, 61, 0
5, 130972, Note_off_c, 3, 64, 0
5, 131016, Note_on_c, 3, 59, 127
5, 131016, Note_on_c, 3, 64, 109
5, 131020, Note_on_c, 3, 80, 109
5, 131132, Note_off_c, 3, 64, 0
5, 131180, Note_on_c, 3, 64, 114
5, 131188, Note_off_c, 3, 59, 0
5, 131236, Note_off_c, 3, 80, 0
5, 131240, Note_on_c, 3, 59, 127
5, 131284, Note_on_c, 3, 80, 89
5, 131724, Note_off_c, 3, 64, 0
5, 131768, Note_off_c, 3, 59, 0
5, 131768, Note_on_c, 3, 61, 127
5, 131772, Note_off_c, 3, 80, 0
5, 131776, Note_on_c, 3, 78, 93
5, 131776, Note_on_c, 3, 57, 109
5, 131832, Note_off_c, 3, 61, 0
5, 131860, Note_on_c, 3, 59, 127
5, 131864, Note_off_c, 3, 78, 0
5, 131864, Note_off_c, 3, 57, 0
5, 131880, Note_on_c, 3, 56, 127
5, 131880, Note_on_c, 3, 76, 109
5, 132036, Note_off_c, 3, 59, 0
5, 132056, Note_off_c, 3, 56, 0
5, 132076, Note_on_c, 3, 64, 109
5, 132076, Note_on_c, 3, 80, 104
5, 132100, Note_off_c, 3, 76, 0
5, 132100, Note_on_c, 3, 59, 127
5, 132492, Note_off_c, 3, 80, 0
5, 132508, Note_off_c, 3, 64, 0
5, 132536, Note_on_c, 3, 61, 119
5, 132544, Note_on_c, 3, 81, 89
5, 132548, Note_off_c, 3, 59, 0
5, 132600, Note_off_c, 3, 61, 0
5, 132628, Note_on_c, 3, 59, 126
5, 132636, Note_off_c, 3, 81, 0
5, 132644, Note_on_c, 3, 80, 89
5, 132796, Note_off_c, 3, 59, 0
5, 132820, Note_on_c, 3, 61, 119
5, 132828, Note_on_c, 3, 57, 127
5, 132836, Note_on_c, 3, 78, 109
5, 132844, Note_off_c, 3, 80, 0
5, 133252, Note_off_c, 3, 78, 0
5, 133292, Note_off_c, 3, 61, 0
5, 133300, Note_off_c, 3, 57, 0
5, 133300, End_track
6, 0, Start_track
6, 0, Control_c, 4, 0, 0
6, 0, Program_c, 4, 106
6, 0, Control_c, 4, 10, 54
6, 0, Control_c, 4, 91, 120
6, 0, Control_c, 4, 93, 0
6, 0, Key_signature, 0, "major"
6, 32, Control_c, 4, 7, 70
6, 9012, Note_on_c, 4, 73, 78
6, 9012, Note_on_c, 4, 78, 98
6, 9068, Note_off_c, 4, 73, 0
6, 9108, Note_on_c, 4, 71, 78
6, 9108, Note_on_c, 4, 76, 90
6, 9140, Note_off_c, 4, 78, 0
6, 9164, Note_off_c, 4, 71, 0
6, 9204, Note_on_c, 4, 68, 86
6, 9204, Note_on_c, 4, 73, 82
6, 9212, Note_off_c, 4, 76, 0
6, 9300, Note_on_c, 4, 76, 86
6, 9300, Note_on_c, 4, 71, 86
6, 9308, Note_off_c, 4, 68, 0
6, 9316, Note_off_c, 4, 73, 0
6, 9388, Note_off_c, 4, 71, 0
6, 9392, Note_off_c, 4, 76, 0
6, 9392, Note_on_c, 4, 73, 86
6, 9396, Note_on_c, 4, 78, 94
6, 9468, Note_off_c, 4, 73, 0
6, 9496, Note_on_c, 4, 71, 58
6, 9496, Note_on_c, 4, 76, 86
6, 9528, Note_off_c, 4, 78, 0
6, 9556, Note_off_c, 4, 71, 0
6, 9588, Note_on_c, 4, 73, 86
6, 9596, Note_off_c, 4, 76, 0
6, 9596, Note_on_c, 4, 68, 86
6, 9660, Note_off_c, 4, 73, 0
6, 9676, Note_off_c, 4, 68, 0
6, 9684, Note_on_c, 4, 76, 90
6, 9684, Note_on_c, 4, 71, 86
6, 9756, Note_off_c, 4, 71, 0
6, 9780, Note_off_c, 4, 76, 0
6, 9780, Note_on_c, 4, 73, 74
6, 9780, Note_on_c, 4, 78, 94
6, 9852, Note_off_c, 4, 73, 0
6, 9876, Note_on_c, 4, 76, 86
6, 9876, Note_on_c, 4, 71, 74
6, 9924, Note_off_c, 4, 78, 0
6, 9964, Note_off_c, 4, 71, 0
6, 9968, Note_off_c, 4, 76, 0
6, 9976, Note_on_c, 4, 68, 78
6, 9976, Note_on_c, 4, 73, 86
6, 10036, Note_off_c, 4, 68, 0
6, 10068, Note_on_c, 4, 66, 90
6, 10068, Note_on_c, 4, 71, 74
6, 10072, Note_off_c, 4, 73, 0
6, 10140, Note_off_c, 4, 71, 0
6, 10152, Note_off_c, 4, 66, 0
6, 10164, Note_on_c, 4, 68, 62
6, 10164, Note_on_c, 4, 73, 82
6, 10248, Note_off_c, 4, 68, 0
6, 10248, Note_off_c, 4, 73, 0
6, 10260, Note_on_c, 4, 66, 82
6, 10260, Note_on_c, 4, 71, 82
6, 10344, Note_off_c, 4, 71, 0
6, 10356, Note_on_c, 4, 68, 78
6, 10364, Note_off_c, 4, 66, 0
6, 10368, Note_on_c, 4, 73, 90
6, 10412, Note_off_c, 4, 73, 0
6, 10452, Note_on_c, 4, 73, 106
6, 10452, Note_on_c, 4, 78, 102
6, 10520, Note_off_c, 4, 68, 0
6, 10532, Note_off_c, 4, 73, 0
6, 10548, Note_on_c, 4, 76, 102
6, 10548, Note_on_c, 4, 71, 98
6, 10556, Note_off_c, 4, 78, 0
6, 10652, Note_off_c, 4, 76, 0
6, 10692, Note_off_c, 4, 71, 0
6, 12084, Note_on_c, 4, 73, 78
6, 12084, Note_on_c, 4, 78, 98
6, 12148, Note_off_c, 4, 73, 0
6, 12180, Note_on_c, 4, 71, 78
6, 12184, Note_on_c, 4, 76, 90
6, 12228, Note_off_c, 4, 78, 0
6, 12248, Note_off_c, 4, 71, 0
6, 12276, Note_on_c, 4, 68, 86
6, 12276, Note_on_c, 4, 73, 82
6, 12284, Note_off_c, 4, 76, 0
6, 12372, Note_on_c, 4, 71, 86
6, 12376, Note_on_c, 4, 76, 86
6, 12380, Note_off_c, 4, 68, 0
6, 12380, Note_off_c, 4, 73, 0
6, 12468, Note_on_c, 4, 78, 94
6, 12472, Note_off_c, 4, 71, 0
6, 12472, Note_off_c, 4, 76, 0
6, 12472, Note_on_c, 4, 73, 86
6, 12548, Note_off_c, 4, 73, 0
6, 12564, Note_on_c, 4, 71, 58
6, 12564, Note_on_c, 4, 76, 86
6, 12600, Note_off_c, 4, 78, 0
6, 12628, Note_off_c, 4, 71, 0
6, 12660, Note_off_c, 4, 76, 0
6, 12664, Note_on_c, 4, 68, 86
6, 12664, Note_on_c, 4, 73, 86
6, 12732, Note_off_c, 4, 73, 0
6, 12744, Note_off_c, 4, 68, 0
6, 12756, Note_on_c, 4, 76, 90
6, 12756, Note_on_c, 4, 71, 86
6, 12828, Note_off_c, 4, 71, 0
6, 12852, Note_off_c, 4, 76, 0
6, 12852, Note_on_c, 4, 73, 74
6, 12856, Note_on_c, 4, 78, 94
6, 12920, Note_off_c, 4, 73, 0
6, 12948, Note_on_c, 4, 76, 86
6, 12948, Note_on_c, 4, 71, 74
6, 12992, Note_off_c, 4, 78, 0
6, 13032, Note_off_c, 4, 71, 0
6, 13044, Note_on_c, 4, 73, 86
6, 13048, Note_on_c, 4, 68, 78
6, 13052, Note_off_c, 4, 76, 0
6, 13104, Note_off_c, 4, 68, 0
6, 13132, Note_off_c, 4, 73, 0
6, 13140, Note_on_c, 4, 71, 74
6, 13144, Note_on_c, 4, 66, 90
6, 13212, Note_off_c, 4, 71, 0
6, 13224, Note_off_c, 4, 66, 0
6, 13236, Note_on_c, 4, 68, 62
6, 13236, Note_on_c, 4, 73, 82
6, 13316, Note_off_c, 4, 68, 0
6, 13320, Note_off_c, 4, 73, 0
6, 13336, Note_on_c, 4, 66, 82
6, 13336, Note_on_c, 4, 71, 82
6, 13416, Note_off_c, 4, 71, 0
6, 13428, Note_off_c, 4, 66, 0
6, 13428, Note_on_c, 4, 68, 78
6, 13428, Note_on_c, 4, 73, 90
6, 13492, Note_off_c, 4, 73, 0
6, 13524, Note_on_c, 4, 73, 106
6, 13524, Note_on_c, 4, 78, 102
6, 13588, Note_off_c, 4, 68, 0
6, 13596, Note_off_c, 4, 73, 0
6, 13620, Note_on_c, 4, 71, 98
6, 13620, Note_on_c, 4, 76, 102
6, 13636, Note_off_c, 4, 78, 0
6, 13720, Note_off_c, 4, 76, 0
6, 13752, Note_off_c, 4, 71, 0
6, 15156, Note_on_c, 4, 73, 78
6, 15160, Note_on_c, 4, 78, 98
6, 15212, Note_off_c, 4, 73, 0
6, 15252, Note_on_c, 4, 76, 90
6, 15252, Note_on_c, 4, 71, 78
6, 15292, Note_off_c, 4, 78, 0
6, 15324, Note_off_c, 4, 71, 0
6, 15340, Note_off_c, 4, 76, 0
6, 15352, Note_on_c, 4, 68, 86
6, 15352, Note_on_c, 4, 73, 82
6, 15444, Note_on_c, 4, 76, 86
6, 15444, Note_on_c, 4, 71, 86
6, 15448, Note_off_c, 4, 68, 0
6, 15452, Note_off_c, 4, 73, 0
6, 15540, Note_on_c, 4, 78, 94
6, 15540, Note_on_c, 4, 73, 86
6, 15544, Note_off_c, 4, 76, 0
6, 15544, Note_off_c, 4, 71, 0
6, 15612, Note_off_c, 4, 73, 0
6, 15636, Note_on_c, 4, 76, 86
6, 15636, Note_on_c, 4, 71, 58
6, 15672, Note_off_c, 4, 78, 0
6, 15708, Note_off_c, 4, 71, 0
6, 15732, Note_off_c, 4, 76, 0
6, 15732, Note_on_c, 4, 68, 86
6, 15740, Note_on_c, 4, 73, 86
6, 15812, Note_off_c, 4, 73, 0
6, 15828, Note_off_c, 4, 68, 0
6, 15828, Note_on_c, 4, 76, 90
6, 15832, Note_on_c, 4, 71, 86
6, 15900, Note_off_c, 4, 71, 0
6, 15924, Note_off_c, 4, 76, 0
6, 15924, Note_on_c, 4, 78, 94
6, 15924, Note_on_c, 4, 73, 74
6, 15996, Note_off_c, 4, 73, 0
6, 16020, Note_on_c, 4, 71, 74
6, 16024, Note_on_c, 4, 76, 86
6, 16068, Note_off_c, 4, 78, 0
6, 16108, Note_off_c, 4, 71, 0
6, 16116, Note_on_c, 4, 68, 78
6, 16116, Note_on_c, 4, 73, 86
6, 16124, Note_off_c, 4, 76, 0
6, 16180, Note_off_c, 4, 68, 0
6, 16204, Note_off_c, 4, 73, 0
6, 16212, Note_on_c, 4, 71, 74
6, 16212, Note_on_c, 4, 66, 90
6, 16280, Note_off_c, 4, 71, 0
6, 16308, Note_off_c, 4, 66, 0
6, 16308, Note_on_c, 4, 68, 62
6, 16308, Note_on_c, 4, 73, 82
6, 16392, Note_off_c, 4, 68, 0
6, 16392, Note_off_c, 4, 73, 0
6, 16404, Note_on_c, 4, 71, 82
6, 16404, Note_on_c, 4, 66, 82
6, 16492, Note_off_c, 4, 71, 0
6, 16504, Note_on_c, 4, 68, 78
6, 16504, Note_on_c, 4, 73, 90
6, 16508, Note_off_c, 4, 66, 0
6, 16568, Note_off_c, 4, 73, 0
6, 16596, Note_on_c, 4, 78, 102
6, 16596, Note_on_c, 4, 73, 106
6, 16660, Note_off_c, 4, 68, 0
6, 16676, Note_off_c, 4, 73, 0
6, 16692, Note_on_c, 4, 76, 102
6, 16696, Note_on_c, 4, 71, 98
6, 16700, Note_off_c, 4, 78, 0
6, 16792, Note_off_c, 4, 76, 0
6, 16832, Note_off_c, 4, 71, 0
6, 18228, Note_on_c, 4, 78, 98
6, 18228, Note_on_c, 4, 73, 78
6, 18292, Note_off_c, 4, 73, 0
6, 18324, Note_on_c, 4, 71, 78
6, 18328, Note_on_c, 4, 76, 90
6, 18364, Note_off_c, 4, 78, 0
6, 18396, Note_off_c, 4, 71, 0
6, 18420, Note_off_c, 4, 76, 0
6, 18420, Note_on_c, 4, 73, 82
6, 18428, Note_on_c, 4, 68, 86
6, 18516, Note_on_c, 4, 71, 86
6, 18516, Note_on_c, 4, 76, 86
6, 18524, Note_off_c, 4, 68, 0
6, 18524, Note_off_c, 4, 73, 0
6, 18612, Note_on_c, 4, 73, 86
6, 18612, Note_on_c, 4, 78, 94
6, 18616, Note_off_c, 4, 71, 0
6, 18620, Note_off_c, 4, 76, 0
6, 18684, Note_off_c, 4, 73, 0
6, 18708, Note_on_c, 4, 76, 86
6, 18708, Note_on_c, 4, 71, 58
6, 18748, Note_off_c, 4, 78, 0
6, 18776, Note_off_c, 4, 71, 0
6, 18804, Note_off_c, 4, 76, 0
6, 18808, Note_on_c, 4, 68, 86
6, 18812, Note_on_c, 4, 73, 86
6, 18884, Note_off_c, 4, 73, 0
6, 18888, Note_off_c, 4, 68, 0
6, 18900, Note_on_c, 4, 76, 90
6, 18900, Note_on_c, 4, 71, 86
6, 18984, Note_off_c, 4, 71, 0
6, 18996, Note_on_c, 4, 73, 74
6, 18996, Note_on_c, 4, 78, 94
6, 19000, Note_off_c, 4, 76, 0
6, 19064, Note_off_c, 4, 73, 0
6, 19092, Note_on_c, 4, 71, 74
6, 19092, Note_on_c, 4, 76, 86
6, 19136, Note_off_c, 4, 78, 0
6, 19172, Note_off_c, 4, 71, 0
6, 19192, Note_off_c, 4, 76, 0
6, 19192, Note_on_c, 4, 68, 78
6, 19192, Note_on_c, 4, 73, 86
6, 19256, Note_off_c, 4, 68, 0
6, 19284, Note_on_c, 4, 71, 74
6, 19284, Note_on_c, 4, 66, 90
6, 19288, Note_off_c, 4, 73, 0
6, 19356, Note_off_c, 4, 71, 0
6, 19372, Note_off_c, 4, 66, 0
6, 19380, Note_on_c, 4, 68, 62
6, 19380, Note_on_c, 4, 73, 82
6, 19456, Note_off_c, 4, 68, 0
6, 19460, Note_off_c, 4, 73, 0
6, 19476, Note_on_c, 4, 71, 82
6, 19476, Note_on_c, 4, 66, 82
6, 19564, Note_off_c, 4, 71, 0
6, 19572, Note_on_c, 4, 68, 78
6, 19572, Note_on_c, 4, 73, 90
6, 19580, Note_off_c, 4, 66, 0
6, 19640, Note_off_c, 4, 73, 0
6, 19668, Note_on_c, 4, 78, 102
6, 19668, Note_on_c, 4, 73, 106
6, 19736, Note_off_c, 4, 68, 0
6, 19748, Note_off_c, 4, 73, 0
6, 19764, Note_on_c, 4, 71, 98
6, 19764, Note_on_c, 4, 76, 102
6, 19772, Note_off_c, 4, 78, 0
6, 19868, Note_off_c, 4, 76, 0
6, 19908, Note_off_c, 4, 71, 0
6, 62004, Note_on_c, 4, 78, 98
6, 62004, Note_on_c, 4, 73, 78
6, 62060, Note_off_c, 4, 73, 0
6, 62100, Note_on_c, 4, 76, 90
6, 62104, Note_on_c, 4, 71, 78
6, 62140, Note_off_c, 4, 78, 0
6, 62168, Note_off_c, 4, 71, 0
6, 62188, Note_off_c, 4, 76, 0
6, 62192, Note_on_c, 4, 73, 82
6, 62196, Note_on_c, 4, 68, 86
6, 62292, Note_on_c, 4, 76, 86
6, 62292, Note_on_c, 4, 71, 86
6, 62296, Note_off_c, 4, 68, 0
6, 62300, Note_off_c, 4, 73, 0
6, 62388, Note_on_c, 4, 78, 94
6, 62392, Note_on_c, 4, 73, 86
6, 62396, Note_off_c, 4, 76, 0
6, 62396, Note_off_c, 4, 71, 0
6, 62460, Note_off_c, 4, 73, 0
6, 62488, Note_on_c, 4, 76, 86
6, 62488, Note_on_c, 4, 71, 58
6, 62520, Note_off_c, 4, 78, 0
6, 62552, Note_off_c, 4, 71, 0
6, 62580, Note_off_c, 4, 76, 0
6, 62580, Note_on_c, 4, 68, 86
6, 62588, Note_on_c, 4, 73, 86
6, 62660, Note_off_c, 4, 73, 0
6, 62668, Note_off_c, 4, 68, 0
6, 62676, Note_on_c, 4, 71, 86
6, 62676, Note_on_c, 4, 76, 90
6, 62748, Note_off_c, 4, 71, 0
6, 62772, Note_on_c, 4, 73, 74
6, 62772, Note_on_c, 4, 78, 94
6, 62776, Note_off_c, 4, 76, 0
6, 62844, Note_off_c, 4, 73, 0
6, 62868, Note_on_c, 4, 71, 74
6, 62868, Note_on_c, 4, 76, 86
6, 62924, Note_off_c, 4, 78, 0
6, 62956, Note_off_c, 4, 71, 0
6, 62968, Note_off_c, 4, 76, 0
6, 62968, Note_on_c, 4, 68, 78
6, 62968, Note_on_c, 4, 73, 86
6, 63032, Note_off_c, 4, 68, 0
6, 63060, Note_on_c, 4, 66, 90
6, 63064, Note_on_c, 4, 71, 74
6, 63068, Note_off_c, 4, 73, 0
6, 63140, Note_off_c, 4, 71, 0
6, 63148, Note_off_c, 4, 66, 0
6, 63152, Note_on_c, 4, 68, 62
6, 63156, Note_on_c, 4, 73, 82
6, 63244, Note_off_c, 4, 68, 0
6, 63244, Note_off_c, 4, 73, 0
6, 63252, Note_on_c, 4, 71, 82
6, 63252, Note_on_c, 4, 66, 82
6, 63332, Note_off_c, 4, 71, 0
6, 63344, Note_on_c, 4, 68, 78
6, 63352, Note_off_c, 4, 66, 0
6, 63356, Note_on_c, 4, 73, 90
6, 63412, Note_off_c, 4, 73, 0
6, 63444, Note_on_c, 4, 78, 102
6, 63444, Note_on_c, 4, 73, 106
6, 63500, Note_off_c, 4, 68, 0
6, 63524, Note_off_c, 4, 73, 0
6, 63540, Note_on_c, 4, 71, 98
6, 63540, Note_on_c, 4, 76, 102
6, 63548, Note_off_c, 4, 78, 0
6, 63644, Note_off_c, 4, 76, 0
6, 63684, Note_off_c, 4, 71, 0
6, 65076, Note_on_c, 4, 73, 78
6, 65076, Note_on_c, 4, 78, 98
6, 65132, Note_off_c, 4, 73, 0
6, 65172, Note_on_c, 4, 71, 78
6, 65172, Note_on_c, 4, 76, 90
6, 65212, Note_off_c, 4, 78, 0
6, 65240, Note_off_c, 4, 71, 0
6, 65268, Note_on_c, 4, 73, 82
6, 65268, Note_on_c, 4, 68, 86
6, 65276, Note_off_c, 4, 76, 0
6, 65364, Note_on_c, 4, 71, 86
6, 65364, Note_on_c, 4, 76, 86
6, 65372, Note_off_c, 4, 73, 0
6, 65372, Note_off_c, 4, 68, 0
6, 65460, Note_on_c, 4, 73, 86
6, 65464, Note_off_c, 4, 71, 0
6, 65464, Note_off_c, 4, 76, 0
6, 65464, Note_on_c, 4, 78, 94
6, 65540, Note_off_c, 4, 73, 0
6, 65556, Note_on_c, 4, 76, 86
6, 65556, Note_on_c, 4, 71, 58
6, 65596, Note_off_c, 4, 78, 0
6, 65624, Note_off_c, 4, 71, 0
6, 65644, Note_off_c, 4, 76, 0
6, 65656, Note_on_c, 4, 68, 86
6, 65656, Note_on_c, 4, 73, 86
6, 65732, Note_off_c, 4, 73, 0
6, 65740, Note_off_c, 4, 68, 0
6, 65744, Note_on_c, 4, 71, 86
6, 65748, Note_on_c, 4, 76, 90
6, 65820, Note_off_c, 4, 71, 0
6, 65844, Note_on_c, 4, 73, 74
6, 65844, Note_on_c, 4, 78, 94
6, 65848, Note_off_c, 4, 76, 0
6, 65912, Note_off_c, 4, 73, 0
6, 65940, Note_on_c, 4, 71, 74
6, 65940, Note_on_c, 4, 76, 86
6, 65988, Note_off_c, 4, 78, 0
6, 66024, Note_off_c, 4, 71, 0
6, 66028, Note_off_c, 4, 76, 0
6, 66032, Note_on_c, 4, 68, 78
6, 66044, Note_on_c, 4, 73, 86
6, 66100, Note_off_c, 4, 68, 0
6, 66132, Note_on_c, 4, 71, 74
6, 66136, Note_off_c, 4, 73, 0
6, 66136, Note_on_c, 4, 66, 90
6, 66212, Note_off_c, 4, 71, 0
6, 66224, Note_off_c, 4, 66, 0
6, 66228, Note_on_c, 4, 68, 62
6, 66228, Note_on_c, 4, 73, 82
6, 66312, Note_off_c, 4, 68, 0
6, 66312, Note_off_c, 4, 73, 0
6, 66328, Note_on_c, 4, 71, 82
6, 66328, Note_on_c, 4, 66, 82
6, 66404, Note_off_c, 4, 71, 0
6, 66420, Note_on_c, 4, 68, 78
6, 66428, Note_off_c, 4, 66, 0
6, 66428, Note_on_c, 4, 73, 90
6, 66488, Note_off_c, 4, 73, 0
6, 66516, Note_on_c, 4, 78, 102
6, 66520, Note_on_c, 4, 73, 106
6, 66580, Note_off_c, 4, 68, 0
6, 66592, Note_off_c, 4, 73, 0
6, 66608, Note_on_c, 4, 71, 98
6, 66616, Note_on_c, 4, 76, 102
6, 66620, Note_off_c, 4, 78, 0
6, 66712, Note_off_c, 4, 76, 0
6, 66748, Note_off_c, 4, 71, 0
6, 101940, Note_on_c, 4, 73, 78
6, 101940, Note_on_c, 4, 78, 98
6, 101996, Note_off_c, 4, 73, 0
6, 102036, Note_on_c, 4, 76, 90
6, 102040, Note_on_c, 4, 71, 78
6, 102084, Note_off_c, 4, 78, 0
6, 102108, Note_off_c, 4, 71, 0
6, 102132, Note_on_c, 4, 68, 86
6, 102132, Note_on_c, 4, 73, 82
6, 102140, Note_off_c, 4, 76, 0
6, 102220, Note_off_c, 4, 68, 0
6, 102224, Note_on_c, 4, 71, 86
6, 102224, Note_on_c, 4, 76, 86
6, 102228, Note_off_c, 4, 73, 0
6, 102320, Note_off_c, 4, 71, 0
6, 102324, Note_on_c, 4, 73, 86
6, 102324, Note_on_c, 4, 78, 94
6, 102328, Note_off_c, 4, 76, 0
6, 102392, Note_off_c, 4, 73, 0
6, 102424, Note_on_c, 4, 76, 86
6, 102424, Note_on_c, 4, 71, 58
6, 102456, Note_off_c, 4, 78, 0
6, 102488, Note_off_c, 4, 71, 0
6, 102516, Note_off_c, 4, 76, 0
6, 102520, Note_on_c, 4, 68, 86
6, 102524, Note_on_c, 4, 73, 86
6, 102588, Note_off_c, 4, 73, 0
6, 102600, Note_off_c, 4, 68, 0
6, 102612, Note_on_c, 4, 71, 86
6, 102612, Note_on_c, 4, 76, 90
6, 102684, Note_off_c, 4, 71, 0
6, 102708, Note_on_c, 4, 78, 94
6, 102708, Note_on_c, 4, 73, 74
6, 102712, Note_off_c, 4, 76, 0
6, 102780, Note_off_c, 4, 73, 0
6, 102804, Note_on_c, 4, 76, 86
6, 102804, Note_on_c, 4, 71, 74
6, 102848, Note_off_c, 4, 78, 0
6, 102892, Note_off_c, 4, 76, 0
6, 102892, Note_off_c, 4, 71, 0
6, 102900, Note_on_c, 4, 68, 78
6, 102904, Note_on_c, 4, 73, 86
6, 102968, Note_off_c, 4, 68, 0
6, 102996, Note_on_c, 4, 71, 74
6, 102996, Note_on_c, 4, 66, 90
6, 103000, Note_off_c, 4, 73, 0
6, 103068, Note_off_c, 4, 71, 0
6, 103080, Note_off_c, 4, 66, 0
6, 103092, Note_on_c, 4, 73, 82
6, 103092, Note_on_c, 4, 68, 62
6, 103176, Note_off_c, 4, 68, 0
6, 103180, Note_off_c, 4, 73, 0
6, 103188, Note_on_c, 4, 71, 82
6, 103188, Note_on_c, 4, 66, 82
6, 103276, Note_off_c, 4, 71, 0
6, 103284, Note_on_c, 4, 73, 90
6, 103292, Note_off_c, 4, 66, 0
6, 103292, Note_on_c, 4, 68, 78
6, 103340, Note_off_c, 4, 73, 0
6, 103380, Note_on_c, 4, 78, 102
6, 103380, Note_on_c, 4, 73, 106
6, 103452, Note_off_c, 4, 68, 0
6, 103460, Note_off_c, 4, 73, 0
6, 103476, Note_on_c, 4, 76, 102
6, 103476, Note_on_c, 4, 71, 98
6, 103484, Note_off_c, 4, 78, 0
6, 103576, Note_off_c, 4, 76, 0
6, 103620, Note_off_c, 4, 71, 0
6, 105012, Note_on_c, 4, 73, 78
6, 105012, Note_on_c, 4, 78, 98
6, 105064, Note_off_c, 4, 73, 0
6, 105108, Note_on_c, 4, 76, 90
6, 105108, Note_on_c, 4, 71, 78
6, 105148, Note_off_c, 4, 78, 0
6, 105176, Note_off_c, 4, 71, 0
6, 105204, Note_on_c, 4, 73, 82
6, 105204, Note_on_c, 4, 68, 86
6, 105212, Note_off_c, 4, 76, 0
6, 105300, Note_on_c, 4, 71, 86
6, 105300, Note_on_c, 4, 76, 86
6, 105304, Note_off_c, 4, 73, 0
6, 105304, Note_off_c, 4, 68, 0
6, 105396, Note_off_c, 4, 71, 0
6, 105396, Note_on_c, 4, 73, 86
6, 105400, Note_off_c, 4, 76, 0
6, 105400, Note_on_c, 4, 78, 94
6, 105468, Note_off_c, 4, 73, 0
6, 105492, Note_on_c, 4, 76, 86
6, 105492, Note_on_c, 4, 71, 58
6, 105528, Note_off_c, 4, 78, 0
6, 105556, Note_off_c, 4, 71, 0
6, 105588, Note_off_c, 4, 76, 0
6, 105596, Note_on_c, 4, 68, 86
6, 105600, Note_on_c, 4, 73, 86
6, 105668, Note_off_c, 4, 73, 0
6, 105676, Note_off_c, 4, 68, 0
6, 105684, Note_on_c, 4, 71, 86
6, 105684, Note_on_c, 4, 76, 90
6, 105752, Note_off_c, 4, 71, 0
6, 105780, Note_off_c, 4, 76, 0
6, 105780, Note_on_c, 4, 73, 74
6, 105780, Note_on_c, 4, 78, 94
6, 105848, Note_off_c, 4, 73, 0
6, 105876, Note_on_c, 4, 71, 74
6, 105876, Note_on_c, 4, 76, 86
6, 105924, Note_off_c, 4, 78, 0
6, 105960, Note_off_c, 4, 71, 0
6, 105972, Note_on_c, 4, 68, 78
6, 105972, Note_on_c, 4, 73, 86
6, 105980, Note_off_c, 4, 76, 0
6, 106040, Note_off_c, 4, 68, 0
6, 106068, Note_off_c, 4, 73, 0
6, 106072, Note_on_c, 4, 66, 90
6, 106072, Note_on_c, 4, 71, 74
6, 106148, Note_off_c, 4, 71, 0
6, 106156, Note_off_c, 4, 66, 0
6, 106164, Note_on_c, 4, 68, 62
6, 106164, Note_on_c, 4, 73, 82
6, 106248, Note_off_c, 4, 68, 0
6, 106248, Note_off_c, 4, 73, 0
6, 106264, Note_on_c, 4, 66, 82
6, 106264, Note_on_c, 4, 71, 82
6, 106348, Note_off_c, 4, 71, 0
6, 106356, Note_on_c, 4, 68, 78
6, 106356, Note_on_c, 4, 73, 90
6, 106364, Note_off_c, 4, 66, 0
6, 106420, Note_off_c, 4, 73, 0
6, 106452, Note_on_c, 4, 78, 102
6, 106452, Note_on_c, 4, 73, 106
6, 106520, Note_off_c, 4, 68, 0
6, 106532, Note_off_c, 4, 73, 0
6, 106548, Note_on_c, 4, 76, 102
6, 106548, Note_on_c, 4, 71, 98
6, 106556, Note_off_c, 4, 78, 0
6, 106648, Note_off_c, 4, 76, 0
6, 106688, Note_off_c, 4, 71, 0
6, 110104, Note_on_c, 4, 73, 77
6, 110104, Note_on_c, 4, 76, 66
6, 110188, Note_off_c, 4, 73, 0
6, 110200, Note_on_c, 4, 71, 66
6, 110200, Note_on_c, 4, 75, 77
6, 110212, Note_off_c, 4, 76, 0
6, 110292, Note_on_c, 4, 73, 72
6, 110292, Note_on_c, 4, 69, 72
6, 110296, Note_off_c, 4, 71, 0
6, 110312, Note_off_c, 4, 75, 0
6, 110388, Note_on_c, 4, 71, 72
6, 110388, Note_on_c, 4, 68, 72
6, 110392, Note_off_c, 4, 73, 0
6, 110404, Note_off_c, 4, 69, 0
6, 110480, Note_on_c, 4, 69, 72
6, 110484, Note_on_c, 4, 66, 45
6, 110492, Note_off_c, 4, 71, 0
6, 110492, Note_off_c, 4, 68, 0
6, 110556, Note_off_c, 4, 66, 0
6, 110560, Note_off_c, 4, 69, 0
6, 110584, Note_on_c, 4, 68, 72
6, 110584, Note_on_c, 4, 64, 50
6, 110676, Note_on_c, 4, 63, 77
6, 110680, Note_on_c, 4, 66, 77
6, 110692, Note_off_c, 4, 68, 0
6, 110712, Note_off_c, 4, 64, 0
6, 110788, Note_off_c, 4, 63, 0
6, 110788, Note_off_c, 4, 66, 0
6, 110868, Note_on_c, 4, 71, 77
6, 110876, Note_on_c, 4, 68, 77
6, 110972, Note_off_c, 4, 68, 0
6, 110980, Note_off_c, 4, 71, 0
6, 111060, Note_on_c, 4, 69, 77
6, 111060, Note_on_c, 4, 66, 66
6, 111164, Note_off_c, 4, 69, 0
6, 111180, Note_off_c, 4, 66, 0
6, 111252, Note_on_c, 4, 64, 72
6, 111256, Note_on_c, 4, 68, 72
6, 111364, Note_on_c, 4, 63, 72
6, 111364, Note_on_c, 4, 66, 50
6, 111368, Note_off_c, 4, 64, 0
6, 111372, Note_off_c, 4, 68, 0
6, 111440, Note_on_c, 4, 61, 72
6, 111444, Note_on_c, 4, 64, 66
6, 111468, Note_off_c, 4, 63, 0
6, 111468, Note_off_c, 4, 66, 0
6, 111532, Note_off_c, 4, 64, 0
6, 111568, Note_off_c, 4, 61, 0
6, 111636, Note_on_c, 4, 59, 72
6, 111636, Note_on_c, 4, 63, 66
6, 111720, Note_off_c, 4, 59, 0
6, 111736, Note_off_c, 4, 63, 0
6, 111740, Note_on_c, 4, 71, 77
6, 111744, Note_on_c, 4, 68, 77
6, 111828, Note_on_c, 4, 66, 54
6, 111828, Note_on_c, 4, 63, 54
6, 111848, Note_off_c, 4, 71, 0
6, 111852, Note_off_c, 4, 68, 0
6, 111912, Note_off_c, 4, 63, 0
6, 111944, Note_off_c, 4, 66, 0
6, 111988, Note_on_c, 4, 61, 51
6, 111992, Note_on_c, 4, 64, 54
6, 112052, Note_off_c, 4, 61, 0
6, 112052, Note_on_c, 4, 63, 43
6, 112052, Note_on_c, 4, 59, 43
6, 112068, Note_off_c, 4, 64, 0
6, 112104, Note_off_c, 4, 63, 0
6, 112108, Note_off_c, 4, 59, 0
6, 112124, Note_on_c, 4, 61, 54
6, 112124, Note_on_c, 4, 57, 54
6, 112600, Note_off_c, 4, 61, 0
6, 112628, Note_off_c, 4, 57, 0
6, 113652, Note_on_c, 4, 68, 72
6, 113664, Note_on_c, 4, 73, 77
6, 113740, Note_off_c, 4, 68, 0
6, 113740, Note_off_c, 4, 73, 0
6, 113744, Note_on_c, 4, 66, 37
6, 113744, Note_on_c, 4, 71, 37
6, 113824, Note_off_c, 4, 71, 0
6, 113844, Note_off_c, 4, 66, 0
6, 113844, Note_on_c, 4, 68, 40
6, 113844, Note_on_c, 4, 73, 40
6, 113920, Note_off_c, 4, 68, 0
6, 113940, Note_off_c, 4, 73, 0
6, 113944, Note_on_c, 4, 71, 77
6, 113944, Note_on_c, 4, 75, 77
6, 114044, Note_off_c, 4, 71, 0
6, 114044, Note_off_c, 4, 75, 0
6, 114044, Note_on_c, 4, 68, 28
6, 114044, Note_on_c, 4, 73, 28
6, 114108, Note_off_c, 4, 68, 0
6, 114132, Note_on_c, 4, 71, 34
6, 114132, Note_on_c, 4, 75, 34
6, 114140, Note_off_c, 4, 73, 0
6, 114228, Note_off_c, 4, 75, 0
6, 114228, Note_on_c, 4, 73, 77
6, 114228, Note_on_c, 4, 78, 77
6, 114236, Note_off_c, 4, 71, 0
6, 114316, Note_off_c, 4, 73, 0
6, 114320, Note_on_c, 4, 71, 34
6, 114324, Note_on_c, 4, 75, 34
6, 114332, Note_off_c, 4, 78, 0
6, 114424, Note_on_c, 4, 73, 48
6, 114428, Note_off_c, 4, 71, 0
6, 114428, Note_off_c, 4, 75, 0
6, 114428, Note_on_c, 4, 78, 48
6, 114500, Note_off_c, 4, 73, 0
6, 114516, Note_on_c, 4, 75, 77
6, 114516, Note_on_c, 4, 80, 77
6, 114524, Note_off_c, 4, 78, 0
6, 114612, Note_on_c, 4, 73, 72
6, 114616, Note_on_c, 4, 78, 77
6, 114620, Note_off_c, 4, 75, 0
6, 114620, Note_off_c, 4, 80, 0
6, 114672, Note_off_c, 4, 73, 0
6, 114696, Note_off_c, 4, 78, 0
6, 114716, Note_on_c, 4, 87, 45
6, 114716, Note_on_c, 4, 83, 50
6, 114716, Note_on_c, 4, 85, 45
6, 114720, Note_on_c, 4, 80, 40
6, 114748, Note_off_c, 4, 85, 0
6, 114764, Note_off_c, 4, 80, 0
6, 114780, Note_off_c, 4, 87, 0
6, 114808, Note_off_c, 4, 83, 0
6, 114900, Note_on_c, 4, 82, 72
6, 114908, Note_on_c, 4, 85, 66
6, 115000, Note_off_c, 4, 85, 0
6, 115004, Note_off_c, 4, 82, 0
6, 115092, Note_on_c, 4, 80, 60
6, 115096, Note_on_c, 4, 83, 66
6, 115728, Note_off_c, 4, 80, 0
6, 115756, Note_off_c, 4, 83, 0
6, 134964, Note_on_c, 4, 73, 98
6, 134968, Note_on_c, 4, 78, 98
6, 135028, Note_off_c, 4, 73, 0
6, 135060, Note_on_c, 4, 71, 98
6, 135060, Note_on_c, 4, 76, 98
6, 135104, Note_off_c, 4, 78, 0
6, 135128, Note_off_c, 4, 71, 0
6, 135160, Note_off_c, 4, 76, 0
6, 135160, Note_on_c, 4, 68, 97
6, 135160, Note_on_c, 4, 73, 97
6, 135252, Note_on_c, 4, 71, 97
6, 135256, Note_on_c, 4, 76, 97
6, 135260, Note_off_c, 4, 68, 0
6, 135260, Note_off_c, 4, 73, 0
6, 135348, Note_off_c, 4, 71, 0
6, 135348, Note_on_c, 4, 73, 96
6, 135348, Note_on_c, 4, 78, 96
6, 135352, Note_off_c, 4, 76, 0
6, 135412, Note_off_c, 4, 73, 0
6, 135444, Note_on_c, 4, 71, 95
6, 135444, Note_on_c, 4, 76, 95
6, 135480, Note_off_c, 4, 78, 0
6, 135512, Note_off_c, 4, 71, 0
6, 135544, Note_on_c, 4, 68, 95
6, 135548, Note_off_c, 4, 76, 0
6, 135548, Note_on_c, 4, 73, 95
6, 135612, Note_off_c, 4, 73, 0
6, 135628, Note_off_c, 4, 68, 0
6, 135636, Note_on_c, 4, 71, 94
6, 135636, Note_on_c, 4, 76, 94
6, 135708, Note_off_c, 4, 71, 0
6, 135732, Note_off_c, 4, 76, 0
6, 135732, Note_on_c, 4, 73, 93
6, 135732, Note_on_c, 4, 78, 93
6, 135800, Note_off_c, 4, 73, 0
6, 135832, Note_on_c, 4, 76, 93
6, 135832, Note_on_c, 4, 71, 93
6, 135876, Note_off_c, 4, 78, 0
6, 135912, Note_off_c, 4, 71, 0
6, 135924, Note_off_c, 4, 76, 0
6, 135928, Note_on_c, 4, 68, 92
6, 135932, Note_on_c, 4, 73, 92
6, 135992, Note_off_c, 4, 68, 0
6, 136020, Note_on_c, 4, 71, 91
6, 136020, Note_on_c, 4, 66, 91
6, 136024, Note_off_c, 4, 73, 0
6, 136092, Note_off_c, 4, 71, 0
6, 136116, Note_off_c, 4, 66, 0
6, 136116, Note_on_c, 4, 68, 91
6, 136116, Note_on_c, 4, 73, 91
6, 136204, Note_off_c, 4, 68, 0
6, 136204, Note_off_c, 4, 73, 0
6, 136212, Note_on_c, 4, 71, 90
6, 136212, Note_on_c, 4, 66, 90
6, 136292, Note_off_c, 4, 71, 0
6, 136308, Note_off_c, 4, 66, 0
6, 136308, Note_on_c, 4, 68, 89
6, 136308, Note_on_c, 4, 73, 89
6, 136376, Note_off_c, 4, 73, 0
6, 136404, Note_on_c, 4, 78, 89
6, 136404, Note_on_c, 4, 73, 89
6, 136476, Note_off_c, 4, 68, 0
6, 136480, Note_off_c, 4, 73, 0
6, 136500, Note_on_c, 4, 71, 88
6, 136504, Note_on_c, 4, 76, 88
6, 136508, Note_off_c, 4, 78, 0
6, 136604, Note_off_c, 4, 76, 0
6, 136636, Note_off_c, 4, 71, 0
6, 138036, Note_on_c, 4, 73, 78
6, 138036, Note_on_c, 4, 78, 78
6, 138092, Note_off_c, 4, 73, 0
6, 138132, Note_on_c, 4, 76, 77
6, 138132, Note_on_c, 4, 71, 77
6, 138172, Note_off_c, 4, 78, 0
6, 138196, Note_off_c, 4, 71, 0
6, 138220, Note_off_c, 4, 76, 0
6, 138228, Note_on_c, 4, 68, 76
6, 138228, Note_on_c, 4, 73, 76
6, 138324, Note_on_c, 4, 71, 76
6, 138324, Note_on_c, 4, 76, 76
6, 138328, Note_off_c, 4, 68, 0
6, 138332, Note_off_c, 4, 73, 0
6, 138420, Note_off_c, 4, 71, 0
6, 138420, Note_off_c, 4, 76, 0
6, 138420, Note_on_c, 4, 78, 75
6, 138420, Note_on_c, 4, 73, 75
6, 138492, Note_off_c, 4, 73, 0
6, 138520, Note_on_c, 4, 71, 74
6, 138520, Note_on_c, 4, 76, 74
6, 138548, Note_off_c, 4, 78, 0
6, 138588, Note_off_c, 4, 71, 0
6, 138612, Note_on_c, 4, 68, 74
6, 138612, Note_on_c, 4, 73, 74
6, 138620, Note_off_c, 4, 76, 0
6, 138684, Note_off_c, 4, 73, 0
6, 138696, Note_off_c, 4, 68, 0
6, 138708, Note_on_c, 4, 71, 73
6, 138708, Note_on_c, 4, 76, 73
6, 138780, Note_off_c, 4, 71, 0
6, 138804, Note_on_c, 4, 78, 73
6, 138808, Note_on_c, 4, 73, 73
6, 138812, Note_off_c, 4, 76, 0
6, 138876, Note_off_c, 4, 73, 0
6, 138900, Note_on_c, 4, 71, 72
6, 138900, Note_on_c, 4, 76, 72
6, 138944, Note_off_c, 4, 78, 0
6, 138980, Note_off_c, 4, 71, 0
6, 138988, Note_off_c, 4, 76, 0
6, 139000, Note_on_c, 4, 68, 71
6, 139000, Note_on_c, 4, 73, 71
6, 139064, Note_off_c, 4, 68, 0
6, 139092, Note_on_c, 4, 71, 71
6, 139092, Note_on_c, 4, 66, 71
6, 139096, Note_off_c, 4, 73, 0
6, 139164, Note_off_c, 4, 71, 0
6, 139176, Note_off_c, 4, 66, 0
6, 139188, Note_on_c, 4, 73, 70
6, 139188, Note_on_c, 4, 68, 70
6, 139272, Note_off_c, 4, 73, 0
6, 139276, Note_off_c, 4, 68, 0
6, 139284, Note_on_c, 4, 71, 69
6, 139284, Note_on_c, 4, 66, 69
6, 139368, Note_off_c, 4, 71, 0
6, 139380, Note_on_c, 4, 73, 69
6, 139388, Note_off_c, 4, 66, 0
6, 139388, Note_on_c, 4, 68, 69
6, 139436, Note_off_c, 4, 73, 0
6, 139476, Note_on_c, 4, 73, 68
6, 139476, Note_on_c, 4, 78, 68
6, 139548, Note_off_c, 4, 68, 0
6, 139556, Note_off_c, 4, 73, 0
6, 139572, Note_on_c, 4, 71, 67
6, 139572, Note_on_c, 4, 76, 67
6, 139580, Note_off_c, 4, 78, 0
6, 139672, Note_off_c, 4, 76, 0
6, 139708, Note_off_c, 4, 71, 0
6, 141108, Note_on_c, 4, 73, 57
6, 141108, Note_on_c, 4, 78, 57
6, 141172, Note_off_c, 4, 73, 0
6, 141204, Note_on_c, 4, 76, 56
6, 141204, Note_on_c, 4, 71, 56
6, 141244, Note_off_c, 4, 78, 0
6, 141272, Note_off_c, 4, 71, 0
6, 141292, Note_off_c, 4, 76, 0
6, 141300, Note_on_c, 4, 73, 56
6, 141300, Note_on_c, 4, 68, 56
6, 141396, Note_on_c, 4, 71, 55
6, 141396, Note_on_c, 4, 76, 55
6, 141400, Note_off_c, 4, 68, 0
6, 141404, Note_off_c, 4, 73, 0
6, 141492, Note_off_c, 4, 71, 0
6, 141492, Note_off_c, 4, 76, 0
6, 141496, Note_on_c, 4, 73, 54
6, 141496, Note_on_c, 4, 78, 54
6, 141572, Note_off_c, 4, 73, 0
6, 141588, Note_on_c, 4, 76, 54
6, 141588, Note_on_c, 4, 71, 54
6, 141624, Note_off_c, 4, 78, 0
6, 141652, Note_off_c, 4, 71, 0
6, 141676, Note_off_c, 4, 76, 0
6, 141688, Note_on_c, 4, 73, 53
6, 141688, Note_on_c, 4, 68, 53
6, 141756, Note_off_c, 4, 73, 0
6, 141780, Note_off_c, 4, 68, 0
6, 141780, Note_on_c, 4, 76, 52
6, 141780, Note_on_c, 4, 71, 52
6, 141852, Note_off_c, 4, 71, 0
6, 141868, Note_off_c, 4, 76, 0
6, 141872, Note_on_c, 4, 73, 52
6, 141876, Note_on_c, 4, 78, 52
6, 141948, Note_off_c, 4, 73, 0
6, 141972, Note_on_c, 4, 71, 51
6, 141972, Note_on_c, 4, 76, 51
6, 142020, Note_off_c, 4, 78, 0
6, 142048, Note_off_c, 4, 71, 0
6, 142068, Note_on_c, 4, 68, 50
6, 142068, Note_on_c, 4, 73, 50
6, 142076, Note_off_c, 4, 76, 0
6, 142132, Note_off_c, 4, 68, 0
6, 142156, Note_off_c, 4, 73, 0
6, 142164, Note_on_c, 4, 66, 50
6, 142168, Note_on_c, 4, 71, 50
6, 142244, Note_off_c, 4, 71, 0
6, 142252, Note_off_c, 4, 66, 0
6, 142260, Note_on_c, 4, 68, 49
6, 142260, Note_on_c, 4, 73, 49
6, 142344, Note_off_c, 4, 68, 0
6, 142344, Note_off_c, 4, 73, 0
6, 142360, Note_on_c, 4, 71, 49
6, 142360, Note_on_c, 4, 66, 49
6, 142440, Note_off_c, 4, 71, 0
6, 142452, Note_on_c, 4, 68, 48
6, 142452, Note_on_c, 4, 73, 48
6, 142460, Note_off_c, 4, 66, 0
6, 142520, Note_off_c, 4, 73, 0
6, 142548, Note_on_c, 4, 73, 47
6, 142548, Note_on_c, 4, 78, 47
6, 142616, Note_off_c, 4, 68, 0
6, 142620, Note_off_c, 4, 73, 0
6, 142644, Note_on_c, 4, 71, 47
6, 142644, Note_on_c, 4, 76, 47
6, 142652, Note_off_c, 4, 78, 0
6, 142748, Note_off_c, 4, 76, 0
6, 142776, Note_off_c, 4, 71, 0
6, 144180, Note_on_c, 4, 78, 36
6, 144184, Note_on_c, 4, 73, 36
6, 144236, Note_off_c, 4, 73, 0
6, 144276, Note_on_c, 4, 76, 36
6, 144276, Note_on_c, 4, 71, 36
6, 144316, Note_off_c, 4, 78, 0
6, 144344, Note_off_c, 4, 71, 0
6, 144372, Note_on_c, 4, 73, 35
6, 144372, Note_on_c, 4, 68, 35
6, 144380, Note_off_c, 4, 76, 0
6, 144468, Note_on_c, 4, 71, 34
6, 144468, Note_on_c, 4, 76, 34
6, 144472, Note_off_c, 4, 68, 0
6, 144472, Note_off_c, 4, 73, 0
6, 144564, Note_off_c, 4, 71, 0
6, 144564, Note_on_c, 4, 78, 34
6, 144564, Note_on_c, 4, 73, 34
6, 144568, Note_off_c, 4, 76, 0
6, 144636, Note_off_c, 4, 73, 0
6, 144664, Note_on_c, 4, 71, 33
6, 144664, Note_on_c, 4, 76, 33
6, 144700, Note_off_c, 4, 78, 0
6, 144732, Note_off_c, 4, 71, 0
6, 144756, Note_on_c, 4, 68, 32
6, 144756, Note_on_c, 4, 73, 32
6, 144764, Note_off_c, 4, 76, 0
6, 144828, Note_off_c, 4, 73, 0
6, 144844, Note_off_c, 4, 68, 0
6, 144848, Note_on_c, 4, 71, 32
6, 144856, Note_on_c, 4, 76, 32
6, 144924, Note_off_c, 4, 71, 0
6, 144948, Note_off_c, 4, 76, 0
6, 144948, Note_on_c, 4, 78, 31
6, 144948, Note_on_c, 4, 73, 31
6, 145020, Note_off_c, 4, 73, 0
6, 145044, Note_on_c, 4, 76, 30
6, 145044, Note_on_c, 4, 71, 30
6, 145092, Note_off_c, 4, 78, 0
6, 145128, Note_off_c, 4, 71, 0
6, 145140, Note_off_c, 4, 76, 0
6, 145140, Note_on_c, 4, 68, 30
6, 145140, Note_on_c, 4, 73, 30
6, 145204, Note_off_c, 4, 68, 0
6, 145236, Note_off_c, 4, 73, 0
6, 145236, Note_on_c, 4, 71, 29
6, 145236, Note_on_c, 4, 66, 29
6, 145316, Note_off_c, 4, 71, 0
6, 145324, Note_off_c, 4, 66, 0
6, 145332, Note_on_c, 4, 73, 28
6, 145332, Note_on_c, 4, 68, 28
6, 145420, Note_off_c, 4, 73, 0
6, 145420, Note_off_c, 4, 68, 0
6, 145428, Note_on_c, 4, 66, 28
6, 145428, Note_on_c, 4, 71, 28
6, 145512, Note_off_c, 4, 71, 0
6, 145528, Note_off_c, 4, 66, 0
6, 145528, Note_on_c, 4, 68, 27
6, 145528, Note_on_c, 4, 73, 27
6, 145592, Note_off_c, 4, 73, 0
6, 145620, Note_on_c, 4, 78, 26
6, 145620, Note_on_c, 4, 73, 26
6, 145676, Note_off_c, 4, 68, 0
6, 145692, Note_off_c, 4, 73, 0
6, 145716, Note_on_c, 4, 71, 26
6, 145716, Note_on_c, 4, 76, 26
6, 145724, Note_off_c, 4, 78, 0
6, 145816, Note_off_c, 4, 76, 0
6, 145852, Note_off_c, 4, 71, 0
6, 147252, Note_on_c, 4, 78, 53
6, 147252, Note_on_c, 4, 73, 33
6, 147308, Note_off_c, 4, 73, 0
6, 147348, Note_on_c, 4, 76, 45
6, 147352, Note_on_c, 4, 71, 33
6, 147388, Note_off_c, 4, 78, 0
6, 147420, Note_off_c, 4, 71, 0
6, 147444, Note_off_c, 4, 76, 0
6, 147444, Note_on_c, 4, 73, 37
6, 147444, Note_on_c, 4, 68, 41
6, 147540, Note_on_c, 4, 76, 41
6, 147540, Note_on_c, 4, 71, 41
6, 147548, Note_off_c, 4, 68, 0
6, 147548, Note_off_c, 4, 73, 0
6, 147636, Note_on_c, 4, 73, 41
6, 147636, Note_on_c, 4, 78, 49
6, 147640, Note_off_c, 4, 71, 0
6, 147644, Note_off_c, 4, 76, 0
6, 147704, Note_off_c, 4, 73, 0
6, 147732, Note_on_c, 4, 71, 13
6, 147732, Note_on_c, 4, 76, 41
6, 147772, Note_off_c, 4, 78, 0
6, 147796, Note_off_c, 4, 71, 0
6, 147832, Note_off_c, 4, 76, 0
6, 147832, Note_on_c, 4, 68, 41
6, 147832, Note_on_c, 4, 73, 41
6, 147900, Note_off_c, 4, 73, 0
6, 147912, Note_off_c, 4, 68, 0
6, 147924, Note_on_c, 4, 71, 41
6, 147924, Note_on_c, 4, 76, 45
6, 147996, Note_off_c, 4, 71, 0
6, 148020, Note_on_c, 4, 73, 29
6, 148020, Note_on_c, 4, 78, 49
6, 148024, Note_off_c, 4, 76, 0
6, 148092, Note_off_c, 4, 73, 0
6, 148116, Note_on_c, 4, 76, 41
6, 148116, Note_on_c, 4, 71, 29
6, 148160, Note_off_c, 4, 78, 0
6, 148196, Note_off_c, 4, 71, 0
6, 148204, Note_off_c, 4, 76, 0
6, 148216, Note_on_c, 4, 68, 33
6, 148216, Note_on_c, 4, 73, 41
6, 148280, Note_off_c, 4, 68, 0
6, 148308, Note_on_c, 4, 71, 29
6, 148308, Note_on_c, 4, 66, 45
6, 148312, Note_off_c, 4, 73, 0
6, 148388, Note_off_c, 4, 71, 0
6, 148396, Note_off_c, 4, 66, 0
6, 148404, Note_on_c, 4, 68, 17
6, 148404, Note_on_c, 4, 73, 37
6, 148484, Note_off_c, 4, 68, 0
6, 148488, Note_off_c, 4, 73, 0
6, 148504, Note_on_c, 4, 66, 37
6, 148504, Note_on_c, 4, 71, 37
6, 148588, Note_off_c, 4, 71, 0
6, 148596, Note_on_c, 4, 68, 33
6, 148596, Note_on_c, 4, 73, 45
6, 148604, Note_off_c, 4, 66, 0
6, 148664, Note_off_c, 4, 73, 0
6, 148692, Note_on_c, 4, 78, 57
6, 148692, Note_on_c, 4, 73, 61
6, 148764, Note_off_c, 4, 68, 0
6, 148780, Note_off_c, 4, 73, 0
6, 148788, Note_on_c, 4, 71, 53
6, 148788, Note_on_c, 4, 76, 57
6, 148804, Note_off_c, 4, 78, 0
6, 148892, Note_off_c, 4, 76, 0
6, 148932, Note_off_c, 4, 71, 0
6, 148932, End_track
7, 0, Start_track
7, 0, Title_t, "Flute (Bridge)"
7, 0, Control_c, 5, 0, 0
7, 0, Program_c, 5, 73
7, 0, Control_c, 5, 10, 44
7, 0, Control_c, 5, 91, 120
7, 0, Control_c, 5, 93, 0
7, 0, Key_signature, 0, "major"
7, 44, Control_c, 5, 7, 70
7, 66804, Note_on_c, 5, 83, 127
7, 67568, Note_on_c, 5, 82, 127
7, 67608, Note_off_c, 5, 83, 0
7, 68328, Note_on_c, 5, 80, 127
7, 68376, Note_off_c, 5, 82, 0
7, 69084, Note_on_c, 5, 78, 127
7, 69112, Note_off_c, 5, 80, 0
7, 69852, Note_on_c, 5, 76, 127
7, 69884, Note_off_c, 5, 78, 0
7, 71404, Note_off_c, 5, 76, 0
7, 71404, Note_on_c, 5, 83, 127
7, 72160, Note_on_c, 5, 81, 127
7, 72168, Note_off_c, 5, 83, 0
7, 72948, Note_off_c, 5, 81, 0
7, 73724, Note_on_c, 5, 83, 127
7, 74488, Note_on_c, 5, 82, 127
7, 74524, Note_off_c, 5, 83, 0
7, 75248, Note_on_c, 5, 80, 127
7, 75284, Note_off_c, 5, 82, 0
7, 76012, Note_on_c, 5, 78, 120
7, 76044, Note_off_c, 5, 80, 0
7, 76768, Note_on_c, 5, 76, 127
7, 76796, Note_off_c, 5, 78, 0
7, 78312, Note_on_c, 5, 83, 114
7, 78324, Note_off_c, 5, 76, 0
7, 79076, Note_on_c, 5, 81, 127
7, 79084, Note_off_c, 5, 83, 0
7, 79852, Note_off_c, 5, 81, 0
7, 80628, Note_on_c, 5, 83, 127
7, 81380, Note_on_c, 5, 82, 127
7, 81416, Note_off_c, 5, 83, 0
7, 82152, Note_on_c, 5, 80, 127
7, 82172, Note_off_c, 5, 82, 0
7, 83692, Note_on_c, 5, 81, 127
7, 83708, Note_off_c, 5, 80, 0
7, 84832, Note_on_c, 5, 88, 127
7, 84836, Note_on_c, 5, 85, 127
7, 84868, Note_off_c, 5, 81, 0
7, 86760, Note_off_c, 5, 85, 0
7, 86760, Note_off_c, 5, 88, 0
7, 106812, Note_on_c, 5, 87, 127
7, 106812, Note_on_c, 5, 83, 127
7, 106908, Note_off_c, 5, 87, 0
7, 106908, Note_on_c, 5, 85, 88
7, 106912, Note_on_c, 5, 80, 88
7, 106916, Note_off_c, 5, 83, 0
7, 107000, Note_off_c, 5, 85, 0
7, 107000, Note_off_c, 5, 80, 0
7, 107004, Note_on_c, 5, 83, 104
7, 107004, Note_on_c, 5, 78, 104
7, 107100, Note_off_c, 5, 83, 0
7, 107100, Note_on_c, 5, 85, 127
7, 107100, Note_on_c, 5, 80, 127
7, 107108, Note_off_c, 5, 78, 0
7, 107192, Note_off_c, 5, 85, 0
7, 107196, Note_on_c, 5, 78, 122
7, 107196, Note_on_c, 5, 83, 122
7, 107200, Note_off_c, 5, 80, 0
7, 107292, Note_off_c, 5, 83, 0
7, 107292, Note_on_c, 5, 80, 116
7, 107292, Note_on_c, 5, 75, 116
7, 107300, Note_off_c, 5, 78, 0
7, 107384, Note_off_c, 5, 80, 0
7, 107384, Note_off_c, 5, 75, 0
7, 107388, Note_on_c, 5, 83, 127
7, 107388, Note_on_c, 5, 78, 127
7, 107484, Note_off_c, 5, 83, 0
7, 107484, Note_off_c, 5, 78, 0
7, 107488, Note_on_c, 5, 75, 92
7, 107488, Note_on_c, 5, 80, 92
7, 107580, Note_off_c, 5, 75, 0
7, 107580, Note_off_c, 5, 80, 0
7, 107580, Note_on_c, 5, 73, 92
7, 107580, Note_on_c, 5, 78, 92
7, 107672, Note_off_c, 5, 78, 0
7, 107676, Note_on_c, 5, 75, 127
7, 107676, Note_on_c, 5, 80, 127
7, 107684, Note_off_c, 5, 73, 0
7, 107772, Note_off_c, 5, 80, 0
7, 107772, Note_on_c, 5, 78, 104
7, 107772, Note_on_c, 5, 73, 104
7, 107780, Note_off_c, 5, 75, 0
7, 107864, Note_off_c, 5, 78, 0
7, 107864, Note_on_c, 5, 70, 127
7, 107868, Note_on_c, 5, 75, 127
7, 107876, Note_off_c, 5, 73, 0
7, 107964, Note_off_c, 5, 75, 0
7, 107964, Note_on_c, 5, 73, 127
7, 107964, Note_on_c, 5, 78, 127
7, 107968, Note_off_c, 5, 70, 0
7, 108056, Note_off_c, 5, 73, 0
7, 108060, Note_off_c, 5, 78, 0
7, 108060, Note_on_c, 5, 70, 98
7, 108060, Note_on_c, 5, 75, 98
7, 108156, Note_off_c, 5, 75, 0
7, 108156, Note_on_c, 5, 68, 116
7, 108156, Note_on_c, 5, 73, 116
7, 108160, Note_off_c, 5, 70, 0
7, 108252, Note_off_c, 5, 73, 0
7, 108252, Note_on_c, 5, 70, 127
7, 108252, Note_on_c, 5, 75, 127
7, 108264, Note_off_c, 5, 68, 0
7, 108344, Note_off_c, 5, 75, 0
7, 108348, Note_on_c, 5, 73, 127
7, 108348, Note_on_c, 5, 68, 127
7, 108360, Note_off_c, 5, 70, 0
7, 108444, Note_off_c, 5, 73, 0
7, 108444, Note_off_c, 5, 68, 0
7, 108448, Note_on_c, 5, 66, 127
7, 108448, Note_on_c, 5, 71, 127
7, 108532, Note_off_c, 5, 71, 0
7, 108540, Note_off_c, 5, 66, 0
7, 108540, Note_on_c, 5, 68, 127
7, 108540, Note_on_c, 5, 73, 127
7, 108636, Note_off_c, 5, 68, 0
7, 108636, Note_off_c, 5, 73, 0
7, 108636, Note_on_c, 5, 66, 127
7, 108640, Note_on_c, 5, 71, 127
7, 108728, Note_off_c, 5, 66, 0
7, 108732, Note_off_c, 5, 71, 0
7, 108732, Note_on_c, 5, 63, 127
7, 108736, Note_on_c, 5, 68, 127
7, 108828, Note_off_c, 5, 68, 0
7, 108828, Note_on_c, 5, 66, 127
7, 108828, Note_on_c, 5, 71, 127
7, 108844, Note_off_c, 5, 63, 0
7, 109208, Note_off_c, 5, 66, 0
7, 109212, Note_off_c, 5, 71, 0
7, 109212, Note_on_c, 5, 68, 127
7, 109212, Note_on_c, 5, 73, 127
7, 109276, Note_off_c, 5, 73, 0
7, 109308, Note_off_c, 5, 68, 0
7, 109308, Note_on_c, 5, 68, 127
7, 109308, Note_on_c, 5, 63, 127
7, 109544, Note_off_c, 5, 68, 0
7, 109580, Note_off_c, 5, 63, 0
7, 109596, Note_on_c, 5, 61, 127
7, 109596, Note_on_c, 5, 66, 127
7, 109764, Note_off_c, 5, 66, 0
7, 109844, Note_off_c, 5, 61, 0
7, 110076, Note_on_c, 5, 76, 127
7, 110076, Note_on_c, 5, 73, 127
7, 110172, Note_off_c, 5, 73, 0
7, 110176, Note_on_c, 5, 75, 127
7, 110176, Note_on_c, 5, 71, 127
7, 110188, Note_off_c, 5, 76, 0
7, 110268, Note_off_c, 5, 71, 0
7, 110268, Note_on_c, 5, 69, 127
7, 110268, Note_on_c, 5, 73, 127
7, 110280, Note_off_c, 5, 75, 0
7, 110364, Note_off_c, 5, 73, 0
7, 110364, Note_on_c, 5, 68, 127
7, 110364, Note_on_c, 5, 71, 127
7, 110372, Note_off_c, 5, 69, 0
7, 110460, Note_on_c, 5, 66, 127
7, 110460, Note_on_c, 5, 69, 127
7, 110476, Note_off_c, 5, 68, 0
7, 110476, Note_off_c, 5, 71, 0
7, 110532, Note_off_c, 5, 66, 0
7, 110540, Note_off_c, 5, 69, 0
7, 110556, Note_on_c, 5, 64, 127
7, 110556, Note_on_c, 5, 68, 127
7, 110652, Note_on_c, 5, 66, 127
7, 110652, Note_on_c, 5, 63, 127
7, 110684, Note_off_c, 5, 64, 0
7, 110684, Note_off_c, 5, 68, 0
7, 110764, Note_off_c, 5, 66, 0
7, 110764, Note_off_c, 5, 63, 0
7, 110844, Note_on_c, 5, 68, 127
7, 110844, Note_on_c, 5, 71, 127
7, 110948, Note_off_c, 5, 68, 0
7, 110956, Note_off_c, 5, 71, 0
7, 111036, Note_on_c, 5, 66, 127
7, 111036, Note_on_c, 5, 69, 127
7, 111144, Note_off_c, 5, 69, 0
7, 111160, Note_off_c, 5, 66, 0
7, 111224, Note_on_c, 5, 68, 127
7, 111224, Note_on_c, 5, 64, 127
7, 111324, Note_on_c, 5, 66, 127
7, 111324, Note_on_c, 5, 63, 127
7, 111340, Note_off_c, 5, 68, 0
7, 111340, Note_off_c, 5, 64, 0
7, 111420, Note_on_c, 5, 64, 127
7, 111420, Note_on_c, 5, 61, 127
7, 111432, Note_off_c, 5, 66, 0
7, 111444, Note_off_c, 5, 63, 0
7, 111512, Note_off_c, 5, 64, 0
7, 111536, Note_off_c, 5, 61, 0
7, 111608, Note_on_c, 5, 63, 127
7, 111612, Note_on_c, 5, 59, 127
7, 111692, Note_off_c, 5, 59, 0
7, 111696, Note_off_c, 5, 63, 0
7, 111708, Note_on_c, 5, 68, 127
7, 111708, Note_on_c, 5, 71, 127
7, 111804, Note_on_c, 5, 63, 127
7, 111804, Note_on_c, 5, 66, 127
7, 111820, Note_off_c, 5, 71, 0
7, 111832, Note_off_c, 5, 68, 0
7, 111880, Note_off_c, 5, 63, 0
7, 111916, Note_off_c, 5, 66, 0
7, 111972, Note_on_c, 5, 64, 127
7, 111976, Note_on_c, 5, 61, 127
7, 112028, Note_on_c, 5, 59, 127
7, 112036, Note_on_c, 5, 63, 127
7, 112040, Note_off_c, 5, 61, 0
7, 112056, Note_off_c, 5, 64, 0
7, 112088, Note_off_c, 5, 59, 0
7, 112088, Note_off_c, 5, 63, 0
7, 112092, Note_on_c, 5, 57, 127
7, 112092, Note_on_c, 5, 61, 127
7, 112572, Note_off_c, 5, 61, 0
7, 112604, Note_off_c, 5, 57, 0
7, 113628, Note_on_c, 5, 73, 127
7, 113628, Note_on_c, 5, 68, 127
7, 113716, Note_off_c, 5, 73, 0
7, 113720, Note_off_c, 5, 68, 0
7, 113724, Note_on_c, 5, 71, 127
7, 113724, Note_on_c, 5, 66, 127
7, 113804, Note_off_c, 5, 71, 0
7, 113816, Note_off_c, 5, 66, 0
7, 113820, Note_on_c, 5, 73, 127
7, 113820, Note_on_c, 5, 68, 127
7, 113896, Note_off_c, 5, 68, 0
7, 113916, Note_off_c, 5, 73, 0
7, 113916, Note_on_c, 5, 75, 127
7, 113916, Note_on_c, 5, 71, 127
7, 114008, Note_on_c, 5, 73, 116
7, 114012, Note_off_c, 5, 75, 0
7, 114012, Note_on_c, 5, 68, 116
7, 114016, Note_off_c, 5, 71, 0
7, 114084, Note_off_c, 5, 68, 0
7, 114108, Note_on_c, 5, 75, 127
7, 114108, Note_on_c, 5, 71, 127
7, 114116, Note_off_c, 5, 73, 0
7, 114200, Note_off_c, 5, 75, 0
7, 114204, Note_on_c, 5, 78, 127
7, 114204, Note_on_c, 5, 73, 127
7, 114216, Note_off_c, 5, 71, 0
7, 114300, Note_off_c, 5, 73, 0
7, 114300, Note_on_c, 5, 75, 127
7, 114300, Note_on_c, 5, 71, 127
7, 114308, Note_off_c, 5, 78, 0
7, 114396, Note_off_c, 5, 71, 0
7, 114396, Note_on_c, 5, 78, 127
7, 114396, Note_on_c, 5, 73, 127
7, 114408, Note_off_c, 5, 75, 0
7, 114476, Note_off_c, 5, 73, 0
7, 114492, Note_on_c, 5, 80, 127
7, 114492, Note_on_c, 5, 75, 127
7, 114508, Note_off_c, 5, 78, 0
7, 114588, Note_off_c, 5, 80, 0
7, 114588, Note_off_c, 5, 75, 0
7, 114588, Note_on_c, 5, 78, 127
7, 114588, Note_on_c, 5, 73, 127
7, 114652, Note_off_c, 5, 73, 0
7, 114668, Note_off_c, 5, 78, 0
7, 114696, Note_on_c, 5, 80, 127
7, 114720, Note_on_c, 5, 85, 127
7, 114724, Note_on_c, 5, 83, 127
7, 114732, Note_on_c, 5, 87, 127
7, 114748, Note_off_c, 5, 85, 0
7, 114764, Note_off_c, 5, 80, 0
7, 114796, Note_off_c, 5, 87, 0
7, 114828, Note_off_c, 5, 83, 0
7, 114900, Note_on_c, 5, 85, 127
7, 114900, Note_on_c, 5, 82, 127
7, 115000, Note_off_c, 5, 85, 0
7, 115004, Note_off_c, 5, 82, 0
7, 115084, Note_on_c, 5, 83, 127
7, 115084, Note_on_c, 5, 80, 127
7, 115724, Note_off_c, 5, 80, 0
7, 115752, Note_off_c, 5, 83, 0
7, 115752, End_track
8, 0, Start_track
8, 0, Title_t, "Flute Harmony (Bridge)"
8, 0, Control_c, 6, 0, 0
8, 0, Program_c, 6, 73
8, 0, Control_c, 6, 10, 84
8, 0, Control_c, 6, 91, 120
8, 0, Control_c, 6, 93, 0
8, 0, Key_signature, 0, "major"
8, 48, Control_c, 6, 7, 70
8, 106812, Note_on_c, 6, 87, 127
8, 106816, Note_on_c, 6, 83, 127
8, 106908, Note_off_c, 6, 87, 0
8, 106912, Note_off_c, 6, 83, 0
8, 106912, Note_on_c, 6, 85, 127
8, 106916, Note_on_c, 6, 80, 127
8, 107004, Note_off_c, 6, 85, 0
8, 107004, Note_off_c, 6, 80, 0
8, 107008, Note_on_c, 6, 83, 127
8, 107008, Note_on_c, 6, 78, 127
8, 107100, Note_off_c, 6, 83, 0
8, 107104, Note_on_c, 6, 85, 127
8, 107104, Note_on_c, 6, 80, 127
8, 107108, Note_off_c, 6, 78, 0
8, 107196, Note_off_c, 6, 85, 0
8, 107200, Note_on_c, 6, 78, 127
8, 107200, Note_on_c, 6, 83, 127
8, 107204, Note_off_c, 6, 80, 0
8, 107292, Note_off_c, 6, 83, 0
8, 107296, Note_off_c, 6, 78, 0
8, 107296, Note_on_c, 6, 80, 127
8, 107296, Note_on_c, 6, 75, 127
8, 107388, Note_off_c, 6, 80, 0
8, 107388, Note_off_c, 6, 75, 0
8, 107392, Note_on_c, 6, 83, 127
8, 107392, Note_on_c, 6, 78, 127
8, 107484, Note_off_c, 6, 83, 0
8, 107484, Note_off_c, 6, 78, 0
8, 107488, Note_on_c, 6, 75, 127
8, 107488, Note_on_c, 6, 80, 127
8, 107580, Note_off_c, 6, 80, 0
8, 107584, Note_on_c, 6, 73, 127
8, 107584, Note_on_c, 6, 78, 127
8, 107592, Note_off_c, 6, 75, 0
8, 107676, Note_off_c, 6, 78, 0
8, 107680, Note_on_c, 6, 75, 127
8, 107680, Note_on_c, 6, 80, 127
8, 107688, Note_off_c, 6, 73, 0
8, 107772, Note_off_c, 6, 80, 0
8, 107776, Note_on_c, 6, 78, 127
8, 107776, Note_on_c, 6, 73, 127
8, 107780, Note_off_c, 6, 75, 0
8, 107868, Note_off_c, 6, 78, 0
8, 107872, Note_on_c, 6, 70, 127
8, 107872, Note_on_c, 6, 75, 127
8, 107876, Note_off_c, 6, 73, 0
8, 107964, Note_off_c, 6, 75, 0
8, 107968, Note_off_c, 6, 70, 0
8, 107968, Note_on_c, 6, 73, 127
8, 107968, Note_on_c, 6, 78, 127
8, 108060, Note_off_c, 6, 73, 0
8, 108060, Note_off_c, 6, 78, 0
8, 108064, Note_on_c, 6, 70, 127
8, 108064, Note_on_c, 6, 75, 127
8, 108156, Note_off_c, 6, 75, 0
8, 108160, Note_off_c, 6, 70, 0
8, 108160, Note_on_c, 6, 68, 127
8, 108164, Note_on_c, 6, 73, 127
8, 108252, Note_off_c, 6, 73, 0
8, 108256, Note_on_c, 6, 70, 127
8, 108256, Note_on_c, 6, 75, 127
8, 108264, Note_off_c, 6, 68, 0
8, 108348, Note_off_c, 6, 75, 0
8, 108352, Note_on_c, 6, 73, 127
8, 108352, Note_on_c, 6, 68, 127
8, 108356, Note_off_c, 6, 70, 0
8, 108444, Note_off_c, 6, 73, 0
8, 108444, Note_off_c, 6, 68, 0
8, 108448, Note_on_c, 6, 66, 127
8, 108448, Note_on_c, 6, 71, 127
8, 108540, Note_off_c, 6, 71, 0
8, 108544, Note_off_c, 6, 66, 0
8, 108544, Note_on_c, 6, 68, 127
8, 108544, Note_on_c, 6, 73, 127
8, 108636, Note_off_c, 6, 68, 0
8, 108636, Note_off_c, 6, 73, 0
8, 108640, Note_on_c, 6, 66, 127
8, 108644, Note_on_c, 6, 71, 127
8, 108728, Note_off_c, 6, 66, 0
8, 108732, Note_off_c, 6, 71, 0
8, 108736, Note_on_c, 6, 63, 127
8, 108736, Note_on_c, 6, 68, 127
8, 108828, Note_off_c, 6, 68, 0
8, 108832, Note_on_c, 6, 66, 127
8, 108832, Note_on_c, 6, 71, 127
8, 108844, Note_off_c, 6, 63, 0
8, 109208, Note_off_c, 6, 66, 0
8, 109212, Note_off_c, 6, 71, 0
8, 109216, Note_on_c, 6, 68, 127
8, 109220, Note_on_c, 6, 73, 127
8, 109276, Note_off_c, 6, 73, 0
8, 109308, Note_off_c, 6, 68, 0
8, 109312, Note_on_c, 6, 68, 127
8, 109312, Note_on_c, 6, 63, 127
8, 109548, Note_off_c, 6, 68, 0
8, 109580, Note_off_c, 6, 63, 0
8, 109596, Note_on_c, 6, 61, 127
8, 109600, Note_on_c, 6, 66, 127
8, 109764, Note_off_c, 6, 66, 0
8, 109844, Note_off_c, 6, 61, 0
8, 110076, Note_on_c, 6, 76, 127
8, 110080, Note_on_c, 6, 73, 127
8, 110172, Note_off_c, 6, 73, 0
8, 110176, Note_on_c, 6, 75, 127
8, 110176, Note_on_c, 6, 71, 127
8, 110188, Note_off_c, 6, 76, 0
8, 110268, Note_on_c, 6, 69, 127
8, 110272, Note_off_c, 6, 71, 0
8, 110272, Note_on_c, 6, 73, 127
8, 110284, Note_off_c, 6, 75, 0
8, 110364, Note_off_c, 6, 73, 0
8, 110364, Note_on_c, 6, 68, 127
8, 110368, Note_on_c, 6, 71, 127
8, 110376, Note_off_c, 6, 69, 0
8, 110460, Note_on_c, 6, 66, 127
8, 110464, Note_on_c, 6, 69, 127
8, 110476, Note_off_c, 6, 68, 0
8, 110476, Note_off_c, 6, 71, 0
8, 110540, Note_off_c, 6, 66, 0
8, 110540, Note_off_c, 6, 69, 0
8, 110556, Note_on_c, 6, 64, 127
8, 110560, Note_on_c, 6, 68, 127
8, 110652, Note_on_c, 6, 66, 127
8, 110656, Note_on_c, 6, 63, 127
8, 110684, Note_off_c, 6, 64, 0
8, 110684, Note_off_c, 6, 68, 0
8, 110764, Note_off_c, 6, 66, 0
8, 110764, Note_off_c, 6, 63, 0
8, 110844, Note_on_c, 6, 68, 127
8, 110848, Note_on_c, 6, 71, 127
8, 110944, Note_off_c, 6, 68, 0
8, 110956, Note_off_c, 6, 71, 0
8, 111036, Note_on_c, 6, 66, 127
8, 111040, Note_on_c, 6, 69, 127
8, 111144, Note_off_c, 6, 69, 0
8, 111164, Note_off_c, 6, 66, 0
8, 111224, Note_on_c, 6, 68, 127
8, 111232, Note_on_c, 6, 64, 127
8, 111324, Note_on_c, 6, 66, 127
8, 111328, Note_on_c, 6, 63, 127
8, 111340, Note_off_c, 6, 64, 0
8, 111344, Note_off_c, 6, 68, 0
8, 111420, Note_on_c, 6, 64, 127
8, 111424, Note_on_c, 6, 61, 127
8, 111436, Note_off_c, 6, 66, 0
8, 111444, Note_off_c, 6, 63, 0
8, 111508, Note_off_c, 6, 64, 0
8, 111540, Note_off_c, 6, 61, 0
8, 111612, Note_on_c, 6, 63, 127
8, 111616, Note_on_c, 6, 59, 127
8, 111696, Note_off_c, 6, 59, 0
8, 111704, Note_off_c, 6, 63, 0
8, 111712, Note_on_c, 6, 68, 127
8, 111712, Note_on_c, 6, 71, 127
8, 111804, Note_on_c, 6, 63, 127
8, 111808, Note_on_c, 6, 66, 127
8, 111820, Note_off_c, 6, 71, 0
8, 111832, Note_off_c, 6, 68, 0
8, 111884, Note_off_c, 6, 63, 0
8, 111916, Note_off_c, 6, 66, 0
8, 111972, Note_on_c, 6, 64, 127
8, 111980, Note_on_c, 6, 61, 127
8, 112028, Note_on_c, 6, 59, 127
8, 112036, Note_on_c, 6, 63, 127
8, 112040, Note_off_c, 6, 61, 0
8, 112056, Note_off_c, 6, 64, 0
8, 112088, Note_off_c, 6, 63, 0
8, 112092, Note_off_c, 6, 59, 0
8, 112096, Note_on_c, 6, 57, 127
8, 112096, Note_on_c, 6, 61, 127
8, 112572, Note_off_c, 6, 61, 0
8, 112604, Note_off_c, 6, 57, 0
8, 113628, Note_on_c, 6, 73, 127
8, 113632, Note_on_c, 6, 68, 127
8, 113716, Note_off_c, 6, 73, 0
8, 113720, Note_off_c, 6, 68, 0
8, 113724, Note_on_c, 6, 71, 127
8, 113728, Note_on_c, 6, 66, 127
8, 113804, Note_off_c, 6, 71, 0
8, 113820, Note_off_c, 6, 66, 0
8, 113824, Note_on_c, 6, 73, 127
8, 113824, Note_on_c, 6, 68, 127
8, 113900, Note_off_c, 6, 68, 0
8, 113916, Note_off_c, 6, 73, 0
8, 113920, Note_on_c, 6, 75, 127
8, 113920, Note_on_c, 6, 71, 127
8, 114012, Note_off_c, 6, 75, 0
8, 114012, Note_on_c, 6, 73, 127
8, 114016, Note_off_c, 6, 71, 0
8, 114016, Note_on_c, 6, 68, 127
8, 114084, Note_off_c, 6, 68, 0
8, 114112, Note_on_c, 6, 75, 127
8, 114112, Note_on_c, 6, 71, 127
8, 114120, Note_off_c, 6, 73, 0
8, 114204, Note_off_c, 6, 75, 0
8, 114208, Note_on_c, 6, 78, 127
8, 114212, Note_off_c, 6, 71, 0
8, 114212, Note_on_c, 6, 73, 127
8, 114300, Note_off_c, 6, 73, 0
8, 114304, Note_on_c, 6, 75, 127
8, 114304, Note_on_c, 6, 71, 127
8, 114308, Note_off_c, 6, 78, 0
8, 114396, Note_off_c, 6, 71, 0
8, 114400, Note_on_c, 6, 78, 127
8, 114400, Note_on_c, 6, 73, 127
8, 114404, Note_off_c, 6, 75, 0
8, 114476, Note_off_c, 6, 73, 0
8, 114492, Note_on_c, 6, 80, 127
8, 114496, Note_on_c, 6, 75, 127
8, 114508, Note_off_c, 6, 78, 0
8, 114588, Note_on_c, 6, 78, 127
8, 114592, Note_off_c, 6, 80, 0
8, 114592, Note_off_c, 6, 75, 0
8, 114592, Note_on_c, 6, 73, 127
8, 114652, Note_off_c, 6, 73, 0
8, 114668, Note_off_c, 6, 78, 0
8, 114700, Note_on_c, 6, 80, 127
8, 114720, Note_on_c, 6, 85, 127
8, 114728, Note_on_c, 6, 83, 127
8, 114732, Note_on_c, 6, 87, 127
8, 114748, Note_off_c, 6, 85, 0
8, 114760, Note_off_c, 6, 80, 0
8, 114796, Note_off_c, 6, 87, 0
8, 114828, Note_off_c, 6, 83, 0
8, 114904, Note_on_c, 6, 85, 127
8, 114904, Note_on_c, 6, 82, 127
8, 115000, Note_off_c, 6, 85, 0
8, 115004, Note_off_c, 6, 82, 0
8, 115084, Note_on_c, 6, 83, 127
8, 115088, Note_on_c, 6, 80, 127
8, 115724, Note_off_c, 6, 80, 0
8, 115752, Note_off_c, 6, 83, 0
8, 115752, End_track
9, 0, Start_track
9, 0, Control_c, 7, 0, 0
9, 0, Program_c, 7, 12
9, 0, Control_c, 7, 10, 68
9, 0, Control_c, 7, 91, 120
9, 0, Control_c, 7, 93, 0
9, 0, Key_signature, 0, "major"
9, 52, Control_c, 7, 7, 100
9, 7668, Note_on_c, 7, 57, 77
9, 7884, Note_off_c, 7, 57, 0
9, 7956, Note_on_c, 7, 57, 77
9, 7992, Note_off_c, 7, 57, 0
9, 8148, Note_on_c, 7, 57, 77
9, 8180, Note_off_c, 7, 57, 0
9, 8340, Note_on_c, 7, 57, 77
9, 8380, Note_off_c, 7, 57, 0
9, 8436, Note_on_c, 7, 57, 77
9, 8492, Note_off_c, 7, 57, 0
9, 8628, Note_on_c, 7, 56, 77
9, 8680, Note_off_c, 7, 56, 0
9, 8820, Note_on_c, 7, 61, 77
9, 10712, Note_off_c, 7, 61, 0
9, 10744, Note_on_c, 7, 57, 77
9, 10956, Note_off_c, 7, 57, 0
9, 11028, Note_on_c, 7, 57, 77
9, 11068, Note_off_c, 7, 57, 0
9, 11224, Note_on_c, 7, 57, 77
9, 11260, Note_off_c, 7, 57, 0
9, 11412, Note_on_c, 7, 57, 77
9, 11452, Note_off_c, 7, 57, 0
9, 11508, Note_on_c, 7, 57, 77
9, 11564, Note_off_c, 7, 57, 0
9, 11700, Note_on_c, 7, 56, 77
9, 11756, Note_off_c, 7, 56, 0
9, 11892, Note_on_c, 7, 61, 77
9, 13776, Note_off_c, 7, 61, 0
9, 13812, Note_on_c, 7, 57, 77
9, 14020, Note_off_c, 7, 57, 0
9, 14100, Note_on_c, 7, 57, 77
9, 14136, Note_off_c, 7, 57, 0
9, 14292, Note_on_c, 7, 57, 77
9, 14328, Note_off_c, 7, 57, 0
9, 14480, Note_on_c, 7, 57, 77
9, 14524, Note_off_c, 7, 57, 0
9, 14580, Note_on_c, 7, 57, 77
9, 14636, Note_off_c, 7, 57, 0
9, 14772, Note_on_c, 7, 56, 77
9, 14824, Note_off_c, 7, 56, 0
9, 14964, Note_on_c, 7, 61, 77
9, 16860, Note_off_c, 7, 61, 0
9, 16884, Note_on_c, 7, 57, 77
9, 17092, Note_off_c, 7, 57, 0
9, 17172, Note_on_c, 7, 57, 77
9, 17208, Note_off_c, 7, 57, 0
9, 17364, Note_on_c, 7, 57, 77
9, 17400, Note_off_c, 7, 57, 0
9, 17556, Note_on_c, 7, 57, 77
9, 17596, Note_off_c, 7, 57, 0
9, 17652, Note_on_c, 7, 57, 77
9, 17708, Note_off_c, 7, 57, 0
9, 17848, Note_on_c, 7, 56, 77
9, 17884, Note_off_c, 7, 56, 0
9, 18036, Note_on_c, 7, 61, 77
9, 19932, Note_off_c, 7, 61, 0
9, 60656, Note_on_c, 7, 57, 77
9, 60868, Note_off_c, 7, 57, 0
9, 60948, Note_on_c, 7, 57, 77
9, 60984, Note_off_c, 7, 57, 0
9, 61140, Note_on_c, 7, 57, 77
9, 61176, Note_off_c, 7, 57, 0
9, 61332, Note_on_c, 7, 57, 77
9, 61372, Note_off_c, 7, 57, 0
9, 61428, Note_on_c, 7, 57, 77
9, 61484, Note_off_c, 7, 57, 0
9, 61620, Note_on_c, 7, 56, 77
9, 61672, Note_off_c, 7, 56, 0
9, 61812, Note_on_c, 7, 61, 77
9, 63716, Note_off_c, 7, 61, 0
9, 63732, Note_on_c, 7, 57, 77
9, 63948, Note_off_c, 7, 57, 0
9, 64024, Note_on_c, 7, 57, 77
9, 64056, Note_off_c, 7, 57, 0
9, 64212, Note_on_c, 7, 57, 77
9, 64248, Note_off_c, 7, 57, 0
9, 64404, Note_on_c, 7, 57, 77
9, 64440, Note_off_c, 7, 57, 0
9, 64504, Note_on_c, 7, 57, 77
9, 64556, Note_off_c, 7, 57, 0
9, 64692, Note_on_c, 7, 56, 77
9, 64740, Note_off_c, 7, 56, 0
9, 64884, Note_on_c, 7, 61, 77
9, 66780, Note_off_c, 7, 61, 0
9, 100604, Note_on_c, 7, 57, 77
9, 100808, Note_off_c, 7, 57, 0
9, 100884, Note_on_c, 7, 57, 77
9, 100916, Note_off_c, 7, 57, 0
9, 101076, Note_on_c, 7, 57, 77
9, 101112, Note_off_c, 7, 57, 0
9, 101268, Note_on_c, 7, 57, 77
9, 101308, Note_off_c, 7, 57, 0
9, 101364, Note_on_c, 7, 57, 77
9, 101420, Note_off_c, 7, 57, 0
9, 101552, Note_on_c, 7, 56, 77
9, 101608, Note_off_c, 7, 56, 0
9, 101748, Note_on_c, 7, 61, 77
9, 103636, Note_off_c, 7, 61, 0
9, 103668, Note_on_c, 7, 57, 77
9, 103884, Note_off_c, 7, 57, 0
9, 103956, Note_on_c, 7, 57, 77
9, 103988, Note_off_c, 7, 57, 0
9, 104148, Note_on_c, 7, 57, 77
9, 104180, Note_off_c, 7, 57, 0
9, 104344, Note_on_c, 7, 57, 77
9, 104376, Note_off_c, 7, 57, 0
9, 104440, Note_on_c, 7, 57, 77
9, 104492, Note_off_c, 7, 57, 0
9, 104628, Note_on_c, 7, 56, 77
9, 104676, Note_off_c, 7, 56, 0
9, 104820, Note_on_c, 7, 61, 77
9, 106700, Note_off_c, 7, 61, 0
9, 133620, Note_on_c, 7, 57, 77
9, 133820, Note_off_c, 7, 57, 0
9, 133920, Note_on_c, 7, 57, 76
9, 133944, Note_off_c, 7, 57, 0
9, 134096, Note_on_c, 7, 57, 75
9, 134136, Note_off_c, 7, 57, 0
9, 134292, Note_on_c, 7, 57, 73
9, 134332, Note_off_c, 7, 57, 0
9, 134388, Note_on_c, 7, 57, 72
9, 134440, Note_off_c, 7, 57, 0
9, 134580, Note_on_c, 7, 56, 71
9, 134636, Note_off_c, 7, 56, 0
9, 134772, Note_on_c, 7, 61, 69
9, 136652, Note_off_c, 7, 61, 0
9, 136696, Note_on_c, 7, 57, 54
9, 136908, Note_off_c, 7, 57, 0
9, 136980, Note_on_c, 7, 57, 52
9, 137020, Note_off_c, 7, 57, 0
9, 137172, Note_on_c, 7, 57, 51
9, 137204, Note_off_c, 7, 57, 0
9, 137364, Note_on_c, 7, 57, 49
9, 137400, Note_off_c, 7, 57, 0
9, 137460, Note_on_c, 7, 57, 48
9, 137512, Note_off_c, 7, 57, 0
9, 137652, Note_on_c, 7, 56, 47
9, 137704, Note_off_c, 7, 56, 0
9, 137844, Note_on_c, 7, 61, 45
9, 139736, Note_off_c, 7, 61, 0
9, 139764, Note_on_c, 7, 57, 30
9, 139980, Note_off_c, 7, 57, 0
9, 140048, Note_on_c, 7, 57, 28
9, 140088, Note_off_c, 7, 57, 0
9, 140244, Note_on_c, 7, 57, 27
9, 140276, Note_off_c, 7, 57, 0
9, 140436, Note_on_c, 7, 57, 25
9, 140476, Note_off_c, 7, 57, 0
9, 140532, Note_on_c, 7, 57, 24
9, 140584, Note_off_c, 7, 57, 0
9, 140724, Note_on_c, 7, 56, 23
9, 140780, Note_off_c, 7, 56, 0
9, 140916, Note_on_c, 7, 61, 21
9, 142804, Note_off_c, 7, 61, 0
9, 142836, Note_on_c, 7, 57, 6
9, 143044, Note_off_c, 7, 57, 0
9, 143124, Note_on_c, 7, 57, 4
9, 143160, Note_off_c, 7, 57, 0
9, 143316, Note_on_c, 7, 57, 3
9, 143352, Note_off_c, 7, 57, 0
9, 143512, Note_on_c, 7, 57, 1
9, 143548, Note_off_c, 7, 57, 0
9, 143548, End_track
10, 0, Start_track
10, 0, Control_c, 8, 0, 0
10, 0, Program_c, 8, 7
10, 0, Control_c, 8, 10, 80
10, 0, Control_c, 8, 91, 120
10, 0, Control_c, 8, 93, 0
10, 0, Key_signature, 0, "major"
10, 56, Control_c, 8, 7, 80
10, 43008, Note_on_c, 8, 71, 94
10, 43008, Note_on_c, 8, 75, 106
10, 43060, Note_off_c, 8, 71, 0
10, 43060, Note_off_c, 8, 75, 0
10, 43088, Note_on_c, 8, 75, 78
10, 43096, Note_on_c, 8, 71, 86
10, 43192, Note_off_c, 8, 71, 0
10, 43196, Note_off_c, 8, 75, 0
10, 43288, Note_on_c, 8, 76, 78
10, 43292, Note_on_c, 8, 73, 90
10, 43544, Note_off_c, 8, 76, 0
10, 43548, Note_off_c, 8, 73, 0
10, 43576, Note_on_c, 8, 75, 82
10, 43576, Note_on_c, 8, 78, 98
10, 43676, Note_off_c, 8, 75, 0
10, 43688, Note_off_c, 8, 78, 0
10, 43776, Note_on_c, 8, 78, 110
10, 43776, Note_on_c, 8, 75, 90
10, 43900, Note_off_c, 8, 78, 0
10, 43928, Note_off_c, 8, 75, 0
10, 43960, Note_on_c, 8, 73, 82
10, 43960, Note_on_c, 8, 76, 78
10, 44020, Note_off_c, 8, 73, 0
10, 44040, Note_off_c, 8, 76, 0
10, 44060, Note_on_c, 8, 73, 78
10, 44060, Note_on_c, 8, 76, 94
10, 44196, Note_off_c, 8, 73, 0
10, 44204, Note_off_c, 8, 76, 0
10, 44248, Note_on_c, 8, 75, 78
10, 44256, Note_on_c, 8, 71, 82
10, 44316, Note_off_c, 8, 75, 0
10, 44316, Note_off_c, 8, 71, 0
10, 44344, Note_on_c, 8, 73, 102
10, 44344, Note_on_c, 8, 76, 98
10, 46792, Note_off_c, 8, 73, 0
10, 46796, Note_off_c, 8, 76, 0
10, 59136, Note_on_c, 8, 68, 106
10, 59136, Note_on_c, 8, 59, 106
10, 59140, Note_on_c, 8, 64, 114
10, 59796, Note_off_c, 8, 59, 0
10, 59852, Note_off_c, 8, 68, 0
10, 59908, Note_off_c, 8, 64, 0
10, 59912, Note_on_c, 8, 61, 110
10, 59912, Note_on_c, 8, 69, 102
10, 59912, Note_on_c, 8, 66, 110
10, 60328, Note_off_c, 8, 61, 0
10, 60344, Note_off_c, 8, 69, 0
10, 60348, Note_off_c, 8, 66, 0
10, 60384, Note_on_c, 8, 68, 62
10, 60384, Note_on_c, 8, 71, 94
10, 60384, Note_on_c, 8, 64, 114
10, 60652, Note_off_c, 8, 68, 0
10, 60676, Note_off_c, 8, 71, 0
10, 60676, Note_on_c, 8, 73, 98
10, 60676, Note_on_c, 8, 69, 98
10, 60896, Control_c, 8, 11, 127
10, 60928, Control_c, 8, 11, 121
10, 60960, Control_c, 8, 11, 112
10, 60984, Control_c, 8, 11, 107
10, 61012, Control_c, 8, 11, 101
10, 61036, Control_c, 8, 11, 96
10, 61064, Control_c, 8, 11, 93
10, 61092, Control_c, 8, 11, 87
10, 61116, Control_c, 8, 11, 84
10, 61152, Control_c, 8, 11, 80
10, 61176, Control_c, 8, 11, 76
10, 61200, Control_c, 8, 11, 71
10, 61224, Control_c, 8, 11, 66
10, 61260, Control_c, 8, 11, 59
10, 61288, Control_c, 8, 11, 53
10, 61312, Control_c, 8, 11, 47
10, 61340, Control_c, 8, 11, 42
10, 61372, Control_c, 8, 11, 38
10, 61400, Control_c, 8, 11, 35
10, 61424, Control_c, 8, 11, 31
10, 61448, Control_c, 8, 11, 26
10, 61476, Control_c, 8, 11, 20
10, 61504, Control_c, 8, 11, 15
10, 61520, Control_c, 8, 11, 9
10, 61560, Control_c, 8, 11, 4
10, 61588, Control_c, 8, 11, 2
10, 61608, Control_c, 8, 11, 0
10, 61628, Control_c, 8, 11, 0
10, 62008, Note_off_c, 8, 64, 0
10, 62012, Note_off_c, 8, 73, 0
10, 62020, Note_off_c, 8, 69, 0
10, 62360, Control_c, 8, 11, 0
10, 62400, Control_c, 8, 11, 5
10, 62420, Control_c, 8, 11, 47
10, 62448, Control_c, 8, 11, 104
10, 62472, Control_c, 8, 11, 125
10, 62492, Control_c, 8, 11, 127
10, 82936, Note_on_c, 8, 75, 106
10, 82940, Note_on_c, 8, 71, 94
10, 82996, Note_off_c, 8, 71, 0
10, 82996, Note_off_c, 8, 75, 0
10, 83020, Note_on_c, 8, 75, 78
10, 83032, Note_on_c, 8, 71, 86
10, 83112, Note_off_c, 8, 71, 0
10, 83124, Note_off_c, 8, 75, 0
10, 83224, Note_on_c, 8, 76, 78
10, 83228, Note_on_c, 8, 73, 90
10, 83476, Note_off_c, 8, 76, 0
10, 83484, Note_off_c, 8, 73, 0
10, 83508, Note_on_c, 8, 75, 82
10, 83512, Note_on_c, 8, 78, 98
10, 83612, Note_off_c, 8, 75, 0
10, 83620, Note_off_c, 8, 78, 0
10, 83712, Note_on_c, 8, 78, 110
10, 83712, Note_on_c, 8, 75, 90
10, 83836, Note_off_c, 8, 78, 0
10, 83864, Note_off_c, 8, 75, 0
10, 83884, Note_on_c, 8, 73, 82
10, 83892, Note_on_c, 8, 76, 78
10, 83956, Note_off_c, 8, 73, 0
10, 83972, Note_off_c, 8, 76, 0
10, 83996, Note_on_c, 8, 73, 78
10, 83996, Note_on_c, 8, 76, 94
10, 84136, Note_off_c, 8, 73, 0
10, 84140, Note_off_c, 8, 76, 0
10, 84184, Note_on_c, 8, 75, 78
10, 84184, Note_on_c, 8, 71, 82
10, 84252, Note_off_c, 8, 75, 0
10, 84252, Note_off_c, 8, 71, 0
10, 84280, Note_on_c, 8, 73, 102
10, 84280, Note_on_c, 8, 76, 98
10, 86732, Note_off_c, 8, 73, 0
10, 86732, Note_off_c, 8, 76, 0
10, 99068, Note_on_c, 8, 68, 106
10, 99072, Note_on_c, 8, 59, 106
10, 99080, Note_on_c, 8, 64, 114
10, 99740, Note_off_c, 8, 59, 0
10, 99788, Note_off_c, 8, 68, 0
10, 99844, Note_on_c, 8, 69, 102
10, 99848, Note_off_c, 8, 64, 0
10, 99848, Note_on_c, 8, 66, 110
10, 99848, Note_on_c, 8, 61, 110
10, 100264, Note_off_c, 8, 61, 0
10, 100280, Note_off_c, 8, 69, 0
10, 100284, Note_off_c, 8, 66, 0
10, 100320, Note_on_c, 8, 68, 62
10, 100320, Note_on_c, 8, 71, 94
10, 100320, Note_on_c, 8, 64, 114
10, 100588, Note_off_c, 8, 68, 0
10, 100604, Note_off_c, 8, 71, 0
10, 100604, Note_off_c, 8, 64, 0
10, 100616, Note_on_c, 8, 73, 98
10, 100616, Note_on_c, 8, 69, 98
10, 100832, Control_c, 8, 11, 127
10, 100864, Control_c, 8, 11, 121
10, 100896, Control_c, 8, 11, 112
10, 100920, Control_c, 8, 11, 107
10, 100944, Control_c, 8, 11, 101
10, 100964, Control_c, 8, 11, 96
10, 101000, Control_c, 8, 11, 93
10, 101028, Control_c, 8, 11, 87
10, 101052, Control_c, 8, 11, 84
10, 101088, Control_c, 8, 11, 80
10, 101112, Control_c, 8, 11, 76
10, 101140, Control_c, 8, 11, 71
10, 101160, Control_c, 8, 11, 66
10, 101184, Control_c, 8, 11, 59
10, 101220, Control_c, 8, 11, 53
10, 101248, Control_c, 8, 11, 47
10, 101280, Control_c, 8, 11, 42
10, 101308, Control_c, 8, 11, 38
10, 101332, Control_c, 8, 11, 35
10, 101360, Control_c, 8, 11, 31
10, 101384, Control_c, 8, 11, 26
10, 101412, Control_c, 8, 11, 20
10, 101440, Control_c, 8, 11, 15
10, 101464, Control_c, 8, 11, 9
10, 101496, Control_c, 8, 11, 4
10, 101524, Control_c, 8, 11, 2
10, 101544, Control_c, 8, 11, 0
10, 101564, Control_c, 8, 11, 0
10, 101944, Note_off_c, 8, 73, 0
10, 101956, Note_off_c, 8, 69, 0
10, 102296, Control_c, 8, 11, 0
10, 102332, Control_c, 8, 11, 5
10, 102356, Control_c, 8, 11, 47
10, 102384, Control_c, 8, 11, 104
10, 102408, Control_c, 8, 11, 125
10, 102424, Control_c, 8, 11, 127
10, 115960, Note_on_c, 8, 75, 106
10, 115960, Note_on_c, 8, 71, 94
10, 116020, Note_off_c, 8, 75, 0
10, 116020, Note_off_c, 8, 71, 0
10, 116052, Note_on_c, 8, 75, 78
10, 116056, Note_on_c, 8, 71, 86
10, 116140, Note_off_c, 8, 71, 0
10, 116156, Note_off_c, 8, 75, 0
10, 116248, Note_on_c, 8, 76, 78
10, 116248, Note_on_c, 8, 73, 90
10, 116496, Note_off_c, 8, 76, 0
10, 116504, Note_off_c, 8, 73, 0
10, 116532, Note_on_c, 8, 75, 82
10, 116532, Note_on_c, 8, 78, 98
10, 116620, Note_off_c, 8, 75, 0
10, 116640, Note_off_c, 8, 78, 0
10, 116732, Note_on_c, 8, 75, 90
10, 116732, Note_on_c, 8, 78, 110
10, 116860, Note_off_c, 8, 78, 0
10, 116888, Note_off_c, 8, 75, 0
10, 116916, Note_on_c, 8, 73, 82
10, 116920, Note_on_c, 8, 76, 78
10, 116980, Note_off_c, 8, 73, 0
10, 116996, Note_off_c, 8, 76, 0
10, 117016, Note_on_c, 8, 73, 78
10, 117020, Note_on_c, 8, 76, 94
10, 117164, Note_off_c, 8, 73, 0
10, 117164, Note_off_c, 8, 76, 0
10, 117208, Note_on_c, 8, 75, 78
10, 117208, Note_on_c, 8, 71, 82
10, 117276, Note_off_c, 8, 75, 0
10, 117276, Note_off_c, 8, 71, 0
10, 117300, Note_on_c, 8, 73, 102
10, 117300, Note_on_c, 8, 76, 98
10, 119756, Note_off_c, 8, 73, 0
10, 119756, Note_off_c, 8, 76, 0
10, 132092, Note_on_c, 8, 68, 106
10, 132092, Note_on_c, 8, 59, 106
10, 132092, Note_on_c, 8, 64, 114
10, 132760, Note_off_c, 8, 59, 0
10, 132812, Note_off_c, 8, 68, 0
10, 132864, Note_on_c, 8, 66, 110
10, 132864, Note_on_c, 8, 69, 102
10, 132868, Note_on_c, 8, 61, 110
10, 132872, Note_off_c, 8, 64, 0
10, 133288, Note_off_c, 8, 61, 0
10, 133308, Note_off_c, 8, 69, 0
10, 133316, Note_off_c, 8, 66, 0
10, 133344, Note_on_c, 8, 68, 62
10, 133344, Note_on_c, 8, 71, 94
10, 133348, Note_on_c, 8, 64, 114
10, 133608, Note_off_c, 8, 68, 0
10, 133624, Note_off_c, 8, 64, 0
10, 133628, Note_off_c, 8, 71, 0
10, 133628, End_track
11, 0, Start_track
11, 0, Control_c, 9, 0, 0
11, 0, Program_c, 9, 0
11, 0, Control_c, 9, 91, 100
11, 0, Key_signature, 0, "major"
11, 60, Control_c, 9, 7, 100
11, 1524, Note_on_c, 9, 44, 58
11, 1524, Note_on_c, 9, 35, 89
11, 1524, Note_on_c, 9, 63, 74
11, 1564, Note_off_c, 9, 35, 0
11, 1564, Note_off_c, 9, 63, 0
11, 1588, Note_off_c, 9, 44, 0
11, 1620, Note_on_c, 9, 44, 36
11, 1664, Note_off_c, 9, 44, 0
11, 1716, Note_on_c, 9, 44, 36
11, 1768, Note_off_c, 9, 44, 0
11, 1812, Note_on_c, 9, 44, 48
11, 1812, Note_on_c, 9, 35, 95
11, 1812, Note_on_c, 9, 61, 74
11, 1860, Note_off_c, 9, 35, 0
11, 1860, Note_off_c, 9, 61, 0
11, 1868, Note_off_c, 9, 44, 0
11, 1908, Note_on_c, 9, 44, 62
11, 1908, Note_on_c, 9, 63, 81
11, 1908, Note_on_c, 9, 35, 95
11, 1912, Note_on_c, 9, 59, 34
11, 1912, Note_on_c, 9, 41, 83
11, 1948, Note_off_c, 9, 63, 0
11, 1952, Note_off_c, 9, 35, 0
11, 1952, Note_off_c, 9, 59, 0
11, 1952, Note_off_c, 9, 41, 0
11, 1976, Note_off_c, 9, 44, 0
11, 2004, Note_on_c, 9, 44, 19
11, 2044, Note_off_c, 9, 44, 0
11, 2100, Note_on_c, 9, 44, 36
11, 2148, Note_off_c, 9, 44, 0
11, 2196, Note_on_c, 9, 44, 51
11, 2252, Note_off_c, 9, 44, 0
11, 2292, Note_on_c, 9, 44, 58
11, 2292, Note_on_c, 9, 35, 95
11, 2292, Note_on_c, 9, 63, 74
11, 2296, Note_on_c, 9, 59, 34
11, 2336, Note_off_c, 9, 59, 0
11, 2340, Note_off_c, 9, 35, 0
11, 2340, Note_off_c, 9, 63, 0
11, 2360, Note_off_c, 9, 44, 0
11, 2388, Note_on_c, 9, 44, 48
11, 2388, Note_on_c, 9, 63, 56
11, 2428, Note_off_c, 9, 63, 0
11, 2440, Note_off_c, 9, 44, 0
11, 2484, Note_on_c, 9, 44, 45
11, 2536, Note_off_c, 9, 44, 0
11, 2580, Note_on_c, 9, 44, 48
11, 2580, Note_on_c, 9, 35, 94
11, 2580, Note_on_c, 9, 61, 81
11, 2620, Note_off_c, 9, 35, 0
11, 2624, Note_off_c, 9, 61, 0
11, 2636, Note_off_c, 9, 44, 0
11, 2676, Note_on_c, 9, 44, 62
11, 2680, Note_on_c, 9, 63, 78
11, 2680, Note_on_c, 9, 35, 95
11, 2684, Note_on_c, 9, 59, 34
11, 2684, Note_on_c, 9, 41, 83
11, 2724, Note_off_c, 9, 63, 0
11, 2724, Note_off_c, 9, 35, 0
11, 2724, Note_off_c, 9, 59, 0
11, 2728, Note_off_c, 9, 41, 0
11, 2744, Note_off_c, 9, 44, 0
11, 2768, Note_on_c, 9, 44, 34
11, 2828, Note_off_c, 9, 44, 0
11, 2868, Note_on_c, 9, 44, 45
11, 2916, Note_off_c, 9, 44, 0
11, 2964, Note_on_c, 9, 44, 58
11, 3020, Note_off_c, 9, 44, 0
11, 3060, Note_on_c, 9, 44, 62
11, 3060, Note_on_c, 9, 63, 74
11, 3060, Note_on_c, 9, 35, 89
11, 3064, Note_on_c, 9, 59, 34
11, 3100, Note_off_c, 9, 63, 0
11, 3108, Note_off_c, 9, 35, 0
11, 3112, Note_off_c, 9, 59, 0
11, 3132, Note_off_c, 9, 44, 0
11, 3156, Note_on_c, 9, 44, 36
11, 3204, Note_off_c, 9, 44, 0
11, 3252, Note_on_c, 9, 44, 48
11, 3300, Note_off_c, 9, 44, 0
11, 3348, Note_on_c, 9, 44, 39
11, 3348, Note_on_c, 9, 35, 95
11, 3348, Note_on_c, 9, 61, 74
11, 3396, Note_off_c, 9, 44, 0
11, 3396, Note_off_c, 9, 35, 0
11, 3396, Note_off_c, 9, 61, 0
11, 3444, Note_on_c, 9, 44, 74
11, 3444, Note_on_c, 9, 35, 95
11, 3444, Note_on_c, 9, 63, 81
11, 3448, Note_on_c, 9, 59, 34
11, 3448, Note_on_c, 9, 41, 83
11, 3484, Note_off_c, 9, 35, 0
11, 3488, Note_off_c, 9, 63, 0
11, 3488, Note_off_c, 9, 59, 0
11, 3488, Note_off_c, 9, 41, 0
11, 3496, Note_off_c, 9, 44, 0
11, 3540, Note_on_c, 9, 44, 27
11, 3592, Note_off_c, 9, 44, 0
11, 3636, Note_on_c, 9, 44, 48
11, 3676, Note_off_c, 9, 44, 0
11, 3732, Note_on_c, 9, 44, 39
11, 3780, Note_off_c, 9, 44, 0
11, 3828, Note_on_c, 9, 44, 62
11, 3828, Note_on_c, 9, 63, 74
11, 3828, Note_on_c, 9, 35, 95
11, 3832, Note_on_c, 9, 59, 34
11, 3876, Note_off_c, 9, 63, 0
11, 3876, Note_off_c, 9, 35, 0
11, 3876, Note_off_c, 9, 59, 0
11, 3892, Note_off_c, 9, 44, 0
11, 3924, Note_on_c, 9, 44, 27
11, 3924, Note_on_c, 9, 63, 56
11, 3964, Note_off_c, 9, 44, 0
11, 3964, Note_off_c, 9, 63, 0
11, 4020, Note_on_c, 9, 44, 36
11, 4060, Note_off_c, 9, 44, 0
11, 4116, Note_on_c, 9, 44, 36
11, 4116, Note_on_c, 9, 35, 94
11, 4116, Note_on_c, 9, 61, 81
11, 4156, Note_off_c, 9, 35, 0
11, 4160, Note_off_c, 9, 44, 0
11, 4160, Note_off_c, 9, 61, 0
11, 4212, Note_on_c, 9, 44, 51
11, 4212, Note_on_c, 9, 35, 95
11, 4212, Note_on_c, 9, 63, 78
11, 4216, Note_on_c, 9, 59, 34
11, 4216, Note_on_c, 9, 41, 83
11, 4252, Note_off_c, 9, 35, 0
11, 4256, Note_off_c, 9, 63, 0
11, 4256, Note_off_c, 9, 59, 0
11, 4256, Note_off_c, 9, 41, 0
11, 4280, Note_off_c, 9, 44, 0
11, 4308, Note_on_c, 9, 44, 36
11, 4364, Note_off_c, 9, 44, 0
11, 4404, Note_on_c, 9, 44, 42
11, 4444, Note_off_c, 9, 44, 0
11, 4500, Note_on_c, 9, 44, 48
11, 4552, Note_off_c, 9, 44, 0
11, 4596, Note_on_c, 9, 44, 66
11, 4600, Note_on_c, 9, 35, 89
11, 4600, Note_on_c, 9, 63, 74
11, 4604, Note_on_c, 9, 59, 34
11, 4636, Note_off_c, 9, 35, 0
11, 4640, Note_off_c, 9, 63, 0
11, 4644, Note_off_c, 9, 59, 0
11, 4668, Note_off_c, 9, 44, 0
11, 4692, Note_on_c, 9, 44, 34
11, 4748, Note_off_c, 9, 44, 0
11, 4788, Note_on_c, 9, 44, 42
11, 4788, Note_on_c, 9, 68, 48
11, 4828, Note_off_c, 9, 44, 0
11, 4828, Note_off_c, 9, 68, 0
11, 4884, Note_on_c, 9, 44, 42
11, 4884, Note_on_c, 9, 61, 74
11, 4884, Note_on_c, 9, 35, 95
11, 4924, Note_off_c, 9, 61, 0
11, 4928, Note_off_c, 9, 44, 0
11, 4928, Note_off_c, 9, 35, 0
11, 4980, Note_on_c, 9, 44, 62
11, 4980, Note_on_c, 9, 63, 81
11, 4980, Note_on_c, 9, 35, 95
11, 4984, Note_on_c, 9, 59, 34
11, 4984, Note_on_c, 9, 41, 83
11, 5024, Note_off_c, 9, 59, 0
11, 5028, Note_off_c, 9, 63, 0
11, 5028, Note_off_c, 9, 35, 0
11, 5032, Note_off_c, 9, 41, 0
11, 5048, Note_off_c, 9, 44, 0
11, 5076, Note_on_c, 9, 44, 45
11, 5076, Note_on_c, 9, 68, 24
11, 5116, Note_off_c, 9, 68, 0
11, 5128, Note_off_c, 9, 44, 0
11, 5172, Note_on_c, 9, 44, 48
11, 5220, Note_off_c, 9, 44, 0
11, 5268, Note_on_c, 9, 44, 24
11, 5268, Note_on_c, 9, 68, 52
11, 5308, Note_off_c, 9, 44, 0
11, 5308, Note_off_c, 9, 68, 0
11, 5364, Note_on_c, 9, 44, 51
11, 5364, Note_on_c, 9, 35, 95
11, 5364, Note_on_c, 9, 63, 74
11, 5368, Note_on_c, 9, 59, 34
11, 5404, Note_off_c, 9, 35, 0
11, 5404, Note_off_c, 9, 63, 0
11, 5408, Note_off_c, 9, 59, 0
11, 5428, Note_off_c, 9, 44, 0
11, 5460, Note_on_c, 9, 44, 39
11, 5460, Note_on_c, 9, 63, 56
11, 5508, Note_off_c, 9, 63, 0
11, 5512, Note_off_c, 9, 44, 0
11, 5556, Note_on_c, 9, 44, 31
11, 5596, Note_off_c, 9, 44, 0
11, 5652, Note_on_c, 9, 44, 31
11, 5652, Note_on_c, 9, 68, 39
11, 5652, Note_on_c, 9, 61, 81
11, 5656, Note_on_c, 9, 35, 94
11, 5688, Note_off_c, 9, 44, 0
11, 5696, Note_off_c, 9, 68, 0
11, 5696, Note_off_c, 9, 61, 0
11, 5696, Note_off_c, 9, 35, 0
11, 5748, Note_on_c, 9, 44, 58
11, 5748, Note_on_c, 9, 35, 95
11, 5748, Note_on_c, 9, 63, 78
11, 5752, Note_on_c, 9, 59, 34
11, 5752, Note_on_c, 9, 41, 83
11, 5788, Note_off_c, 9, 35, 0
11, 5792, Note_off_c, 9, 63, 0
11, 5792, Note_off_c, 9, 59, 0
11, 5792, Note_off_c, 9, 41, 0
11, 5816, Note_off_c, 9, 44, 0
11, 5844, Note_on_c, 9, 44, 34
11, 5892, Note_off_c, 9, 44, 0
11, 5940, Note_on_c, 9, 44, 36
11, 5944, Note_on_c, 9, 68, 52
11, 5980, Note_off_c, 9, 44, 0
11, 5980, Note_off_c, 9, 68, 0
11, 6036, Note_on_c, 9, 44, 42
11, 6036, Note_on_c, 9, 68, 35
11, 6076, Note_off_c, 9, 44, 0
11, 6076, Note_off_c, 9, 68, 0
11, 6132, Note_on_c, 9, 44, 58
11, 6132, Note_on_c, 9, 63, 74
11, 6132, Note_on_c, 9, 35, 89
11, 6136, Note_on_c, 9, 59, 34
11, 6180, Note_off_c, 9, 35, 0
11, 6180, Note_off_c, 9, 59, 0
11, 6180, Note_off_c, 9, 63, 0
11, 6188, Note_off_c, 9, 44, 0
11, 6228, Note_on_c, 9, 44, 36
11, 6268, Note_off_c, 9, 44, 0
11, 6324, Note_on_c, 9, 44, 31
11, 6328, Note_on_c, 9, 68, 48
11, 6364, Note_off_c, 9, 44, 0
11, 6372, Note_off_c, 9, 68, 0
11, 6420, Note_on_c, 9, 44, 39
11, 6420, Note_on_c, 9, 35, 95
11, 6420, Note_on_c, 9, 61, 74
11, 6460, Note_off_c, 9, 44, 0
11, 6460, Note_off_c, 9, 35, 0
11, 6464, Note_off_c, 9, 61, 0
11, 6516, Note_on_c, 9, 44, 48
11, 6516, Note_on_c, 9, 35, 95
11, 6516, Note_on_c, 9, 63, 81
11, 6520, Note_on_c, 9, 59, 34
11, 6520, Note_on_c, 9, 41, 83
11, 6560, Note_off_c, 9, 35, 0
11, 6568, Note_off_c, 9, 63, 0
11, 6568, Note_off_c, 9, 59, 0
11, 6572, Note_off_c, 9, 41, 0
11, 6580, Note_off_c, 9, 44, 0
11, 6612, Note_on_c, 9, 44, 39
11, 6612, Note_on_c, 9, 68, 24
11, 6652, Note_off_c, 9, 68, 0
11, 6660, Note_off_c, 9, 44, 0
11, 6708, Note_on_c, 9, 44, 42
11, 6764, Note_off_c, 9, 44, 0
11, 6804, Note_on_c, 9, 44, 36
11, 6804, Note_on_c, 9, 68, 52
11, 6848, Note_off_c, 9, 44, 0
11, 6848, Note_off_c, 9, 68, 0
11, 6900, Note_on_c, 9, 44, 48
11, 6900, Note_on_c, 9, 35, 95
11, 6900, Note_on_c, 9, 63, 74
11, 6904, Note_on_c, 9, 59, 34
11, 6940, Note_off_c, 9, 35, 0
11, 6944, Note_off_c, 9, 63, 0
11, 6944, Note_off_c, 9, 59, 0
11, 6956, Note_off_c, 9, 44, 0
11, 6996, Note_on_c, 9, 44, 45
11, 6996, Note_on_c, 9, 63, 56
11, 7044, Note_off_c, 9, 63, 0
11, 7052, Note_off_c, 9, 44, 0
11, 7092, Note_on_c, 9, 44, 36
11, 7132, Note_off_c, 9, 44, 0
11, 7188, Note_on_c, 9, 44, 39
11, 7188, Note_on_c, 9, 61, 81
11, 7188, Note_on_c, 9, 35, 94
11, 7192, Note_on_c, 9, 68, 39
11, 7236, Note_off_c, 9, 61, 0
11, 7236, Note_off_c, 9, 35, 0
11, 7236, Note_off_c, 9, 68, 0
11, 7240, Note_off_c, 9, 44, 0
11, 7284, Note_on_c, 9, 44, 51
11, 7284, Note_on_c, 9, 63, 78
11, 7284, Note_on_c, 9, 35, 95
11, 7288, Note_on_c, 9, 59, 34
11, 7288, Note_on_c, 9, 41, 83
11, 7324, Note_off_c, 9, 63, 0
11, 7328, Note_off_c, 9, 35, 0
11, 7328, Note_off_c, 9, 59, 0
11, 7332, Note_off_c, 9, 41, 0
11, 7352, Note_off_c, 9, 44, 0
11, 7380, Note_on_c, 9, 44, 48
11, 7436, Note_off_c, 9, 44, 0
11, 7476, Note_on_c, 9, 44, 42
11, 7476, Note_on_c, 9, 68, 52
11, 7524, Note_off_c, 9, 44, 0
11, 7524, Note_off_c, 9, 68, 0
11, 7572, Note_on_c, 9, 44, 39
11, 7572, Note_on_c, 9, 68, 35
11, 7612, Note_off_c, 9, 68, 0
11, 7620, Note_off_c, 9, 44, 0
11, 7672, Note_on_c, 9, 44, 62
11, 7672, Note_on_c, 9, 63, 74
11, 7672, Note_on_c, 9, 35, 89
11, 7676, Note_on_c, 9, 59, 34
11, 7712, Note_off_c, 9, 59, 0
11, 7716, Note_off_c, 9, 35, 0
11, 7716, Note_off_c, 9, 63, 0
11, 7728, Note_off_c, 9, 44, 0
11, 7764, Note_on_c, 9, 44, 36
11, 7816, Note_off_c, 9, 44, 0
11, 7860, Note_on_c, 9, 44, 39
11, 7860, Note_on_c, 9, 68, 48
11, 7908, Note_off_c, 9, 44, 0
11, 7908, Note_off_c, 9, 68, 0
11, 7960, Note_on_c, 9, 44, 42
11, 7960, Note_on_c, 9, 35, 95
11, 7960, Note_on_c, 9, 61, 74
11, 7996, Note_off_c, 9, 35, 0
11, 8000, Note_off_c, 9, 61, 0
11, 8004, Note_off_c, 9, 44, 0
11, 8052, Note_on_c, 9, 44, 42
11, 8052, Note_on_c, 9, 35, 95
11, 8052, Note_on_c, 9, 63, 81
11, 8056, Note_on_c, 9, 41, 83
11, 8056, Note_on_c, 9, 59, 34
11, 8092, Note_off_c, 9, 35, 0
11, 8096, Note_off_c, 9, 63, 0
11, 8096, Note_off_c, 9, 41, 0
11, 8100, Note_off_c, 9, 59, 0
11, 8116, Note_off_c, 9, 44, 0
11, 8152, Note_on_c, 9, 44, 39
11, 8152, Note_on_c, 9, 68, 24
11, 8192, Note_off_c, 9, 68, 0
11, 8196, Note_off_c, 9, 44, 0
11, 8244, Note_on_c, 9, 44, 36
11, 8292, Note_off_c, 9, 44, 0
11, 8348, Note_on_c, 9, 44, 42
11, 8348, Note_on_c, 9, 68, 52
11, 8388, Note_off_c, 9, 68, 0
11, 8392, Note_off_c, 9, 44, 0
11, 8436, Note_on_c, 9, 44, 48
11, 8440, Note_on_c, 9, 63, 74
11, 8440, Note_on_c, 9, 35, 95
11, 8440, Note_on_c, 9, 59, 34
11, 8472, Note_off_c, 9, 63, 0
11, 8484, Note_off_c, 9, 35, 0
11, 8484, Note_off_c, 9, 59, 0
11, 8504, Note_off_c, 9, 44, 0
11, 8532, Note_on_c, 9, 44, 45
11, 8532, Note_on_c, 9, 63, 56
11, 8580, Note_off_c, 9, 63, 0
11, 8588, Note_off_c, 9, 44, 0
11, 8632, Note_on_c, 9, 44, 39
11, 8672, Note_off_c, 9, 44, 0
11, 8724, Note_on_c, 9, 44, 51
11, 8728, Note_on_c, 9, 35, 94
11, 8728, Note_on_c, 9, 68, 39
11, 8732, Note_on_c, 9, 61, 81
11, 8760, Note_off_c, 9, 35, 0
11, 8772, Note_off_c, 9, 44, 0
11, 8772, Note_off_c, 9, 68, 0
11, 8772, Note_off_c, 9, 61, 0
11, 8824, Note_on_c, 9, 44, 58
11, 8824, Note_on_c, 9, 63, 78
11, 8828, Note_on_c, 9, 35, 95
11, 8828, Note_on_c, 9, 41, 83
11, 8828, Note_on_c, 9, 59, 34
11, 8868, Note_off_c, 9, 63, 0
11, 8868, Note_off_c, 9, 35, 0
11, 8868, Note_off_c, 9, 41, 0
11, 8872, Note_off_c, 9, 59, 0
11, 8892, Note_off_c, 9, 44, 0
11, 8916, Note_on_c, 9, 44, 34
11, 8980, Note_off_c, 9, 44, 0
11, 9012, Note_on_c, 9, 44, 39
11, 9016, Note_on_c, 9, 68, 52
11, 9056, Note_off_c, 9, 68, 0
11, 9064, Note_off_c, 9, 44, 0
11, 9108, Note_on_c, 9, 44, 36
11, 9112, Note_on_c, 9, 68, 35
11, 9148, Note_off_c, 9, 68, 0
11, 9164, Note_off_c, 9, 44, 0
11, 9204, Note_on_c, 9, 44, 48
11, 9208, Note_on_c, 9, 35, 89
11, 9208, Note_on_c, 9, 63, 74
11, 9208, Note_on_c, 9, 59, 34
11, 9244, Note_off_c, 9, 35, 0
11, 9244, Note_off_c, 9, 63, 0
11, 9248, Note_off_c, 9, 59, 0
11, 9268, Note_off_c, 9, 44, 0
11, 9300, Note_on_c, 9, 44, 39
11, 9360, Note_off_c, 9, 44, 0
11, 9396, Note_on_c, 9, 44, 45
11, 9400, Note_on_c, 9, 68, 48
11, 9436, Note_off_c, 9, 68, 0
11, 9448, Note_off_c, 9, 44, 0
11, 9492, Note_on_c, 9, 44, 42
11, 9492, Note_on_c, 9, 35, 95
11, 9492, Note_on_c, 9, 61, 74
11, 9540, Note_off_c, 9, 44, 0
11, 9540, Note_off_c, 9, 35, 0
11, 9540, Note_off_c, 9, 61, 0
11, 9588, Note_on_c, 9, 44, 58
11, 9588, Note_on_c, 9, 35, 95
11, 9592, Note_on_c, 9, 63, 81
11, 9592, Note_on_c, 9, 41, 83
11, 9592, Note_on_c, 9, 59, 34
11, 9628, Note_off_c, 9, 35, 0
11, 9632, Note_off_c, 9, 63, 0
11, 9632, Note_off_c, 9, 41, 0
11, 9632, Note_off_c, 9, 59, 0
11, 9660, Note_off_c, 9, 44, 0
11, 9684, Note_on_c, 9, 44, 36
11, 9688, Note_on_c, 9, 68, 24
11, 9728, Note_off_c, 9, 68, 0
11, 9736, Note_off_c, 9, 44, 0
11, 9784, Note_on_c, 9, 44, 42
11, 9828, Note_off_c, 9, 44, 0
11, 9876, Note_on_c, 9, 44, 36
11, 9880, Note_on_c, 9, 68, 52
11, 9916, Note_off_c, 9, 68, 0
11, 9928, Note_off_c, 9, 44, 0
11, 9972, Note_on_c, 9, 44, 48
11, 9972, Note_on_c, 9, 63, 74
11, 9976, Note_on_c, 9, 35, 95
11, 9980, Note_on_c, 9, 59, 34
11, 10020, Note_off_c, 9, 63, 0
11, 10020, Note_off_c, 9, 35, 0
11, 10020, Note_off_c, 9, 59, 0
11, 10040, Note_off_c, 9, 44, 0
11, 10068, Note_on_c, 9, 44, 31
11, 10072, Note_on_c, 9, 63, 56
11, 10108, Note_off_c, 9, 63, 0
11, 10128, Note_off_c, 9, 44, 0
11, 10164, Note_on_c, 9, 44, 42
11, 10220, Note_off_c, 9, 44, 0
11, 10260, Note_on_c, 9, 44, 36
11, 10264, Note_on_c, 9, 61, 81
11, 10264, Note_on_c, 9, 35, 94
11, 10264, Note_on_c, 9, 68, 39
11, 10300, Note_off_c, 9, 61, 0
11, 10304, Note_off_c, 9, 35, 0
11, 10304, Note_off_c, 9, 68, 0
11, 10308, Note_off_c, 9, 44, 0
11, 10360, Note_on_c, 9, 44, 48
11, 10360, Note_on_c, 9, 63, 78
11, 10364, Note_on_c, 9, 35, 95
11, 10364, Note_on_c, 9, 59, 34
11, 10364, Note_on_c, 9, 41, 83
11, 10404, Note_off_c, 9, 63, 0
11, 10404, Note_off_c, 9, 35, 0
11, 10404, Note_off_c, 9, 59, 0
11, 10408, Note_off_c, 9, 41, 0
11, 10424, Note_off_c, 9, 44, 0
11, 10452, Note_on_c, 9, 44, 42
11, 10516, Note_off_c, 9, 44, 0
11, 10548, Note_on_c, 9, 44, 45
11, 10552, Note_on_c, 9, 68, 52
11, 10588, Note_off_c, 9, 68, 0
11, 10612, Note_off_c, 9, 44, 0
11, 10644, Note_on_c, 9, 44, 31
11, 10648, Note_on_c, 9, 68, 35
11, 10692, Note_off_c, 9, 68, 0
11, 10700, Note_off_c, 9, 44, 0
11, 10744, Note_on_c, 9, 44, 48
11, 10748, Note_on_c, 9, 63, 74
11, 10748, Note_on_c, 9, 35, 89
11, 10748, Note_on_c, 9, 59, 34
11, 10780, Note_off_c, 9, 63, 0
11, 10784, Note_off_c, 9, 35, 0
11, 10784, Note_off_c, 9, 59, 0
11, 10812, Note_off_c, 9, 44, 0
11, 10836, Note_on_c, 9, 44, 51
11, 10900, Note_off_c, 9, 44, 0
11, 10932, Note_on_c, 9, 44, 42
11, 10932, Note_on_c, 9, 68, 48
11, 10980, Note_off_c, 9, 68, 0
11, 10988, Note_off_c, 9, 44, 0
11, 11028, Note_on_c, 9, 44, 42
11, 11032, Note_on_c, 9, 35, 95
11, 11032, Note_on_c, 9, 61, 74
11, 11076, Note_off_c, 9, 35, 0
11, 11080, Note_off_c, 9, 61, 0
11, 11084, Note_off_c, 9, 44, 0
11, 11124, Note_on_c, 9, 44, 58
11, 11124, Note_on_c, 9, 63, 81
11, 11124, Note_on_c, 9, 35, 95
11, 11128, Note_on_c, 9, 59, 34
11, 11128, Note_on_c, 9, 41, 83
11, 11164, Note_off_c, 9, 63, 0
11, 11168, Note_off_c, 9, 59, 0
11, 11172, Note_off_c, 9, 35, 0
11, 11172, Note_off_c, 9, 41, 0
11, 11196, Note_off_c, 9, 44, 0
11, 11224, Note_on_c, 9, 44, 42
11, 11228, Note_on_c, 9, 68, 24
11, 11260, Note_off_c, 9, 68, 0
11, 11276, Note_off_c, 9, 44, 0
11, 11316, Note_on_c, 9, 44, 27
11, 11368, Note_off_c, 9, 44, 0
11, 11412, Note_on_c, 9, 44, 36
11, 11416, Note_on_c, 9, 68, 52
11, 11452, Note_off_c, 9, 68, 0
11, 11464, Note_off_c, 9, 44, 0
11, 11512, Note_on_c, 9, 44, 54
11, 11512, Note_on_c, 9, 63, 74
11, 11516, Note_on_c, 9, 35, 95
11, 11516, Note_on_c, 9, 59, 34
11, 11556, Note_off_c, 9, 63, 0
11, 11556, Note_off_c, 9, 35, 0
11, 11556, Note_off_c, 9, 59, 0
11, 11576, Note_off_c, 9, 44, 0
11, 11604, Note_on_c, 9, 44, 39
11, 11604, Note_on_c, 9, 63, 56
11, 11644, Note_off_c, 9, 63, 0
11, 11664, Note_off_c, 9, 44, 0
11, 11704, Note_on_c, 9, 44, 45
11, 11748, Note_off_c, 9, 44, 0
11, 11796, Note_on_c, 9, 44, 39
11, 11796, Note_on_c, 9, 35, 94
11, 11796, Note_on_c, 9, 68, 39
11, 11800, Note_on_c, 9, 61, 81
11, 11836, Note_off_c, 9, 35, 0
11, 11844, Note_off_c, 9, 68, 0
11, 11844, Note_off_c, 9, 61, 0
11, 11848, Note_off_c, 9, 44, 0
11, 11892, Note_on_c, 9, 44, 62
11, 11896, Note_on_c, 9, 35, 95
11, 11896, Note_on_c, 9, 63, 78
11, 11896, Note_on_c, 9, 41, 83
11, 11904, Note_on_c, 9, 59, 34
11, 11932, Note_off_c, 9, 35, 0
11, 11936, Note_off_c, 9, 41, 0
11, 11940, Note_off_c, 9, 63, 0
11, 11940, Note_off_c, 9, 59, 0
11, 11956, Note_off_c, 9, 44, 0
11, 11988, Note_on_c, 9, 44, 42
11, 12044, Note_off_c, 9, 44, 0
11, 12084, Note_on_c, 9, 44, 42
11, 12088, Note_on_c, 9, 68, 52
11, 12124, Note_off_c, 9, 68, 0
11, 12140, Note_off_c, 9, 44, 0
11, 12180, Note_on_c, 9, 44, 28
11, 12180, Note_on_c, 9, 68, 35
11, 12228, Note_off_c, 9, 68, 0
11, 12232, Note_off_c, 9, 44, 0
11, 12276, Note_on_c, 9, 44, 48
11, 12280, Note_on_c, 9, 35, 89
11, 12280, Note_on_c, 9, 63, 74
11, 12280, Note_on_c, 9, 59, 34
11, 12316, Note_off_c, 9, 35, 0
11, 12320, Note_off_c, 9, 59, 0
11, 12320, Note_off_c, 9, 63, 0
11, 12348, Note_off_c, 9, 44, 0
11, 12380, Note_on_c, 9, 44, 48
11, 12436, Note_off_c, 9, 44, 0
11, 12468, Note_on_c, 9, 44, 45
11, 12468, Note_on_c, 9, 68, 48
11, 12508, Note_off_c, 9, 68, 0
11, 12512, Note_off_c, 9, 44, 0
11, 12564, Note_on_c, 9, 44, 22
11, 12568, Note_on_c, 9, 35, 95
11, 12568, Note_on_c, 9, 61, 74
11, 12604, Note_off_c, 9, 35, 0
11, 12608, Note_off_c, 9, 61, 0
11, 12612, Note_off_c, 9, 44, 0
11, 12660, Note_on_c, 9, 44, 48
11, 12660, Note_on_c, 9, 63, 81
11, 12664, Note_on_c, 9, 35, 95
11, 12668, Note_on_c, 9, 59, 34
11, 12668, Note_on_c, 9, 41, 83
11, 12704, Note_off_c, 9, 59, 0
11, 12708, Note_off_c, 9, 63, 0
11, 12708, Note_off_c, 9, 35, 0
11, 12712, Note_off_c, 9, 41, 0
11, 12716, Note_off_c, 9, 44, 0
11, 12756, Note_on_c, 9, 44, 31
11, 12756, Note_on_c, 9, 68, 24
11, 12796, Note_off_c, 9, 68, 0
11, 12808, Note_off_c, 9, 44, 0
11, 12852, Note_on_c, 9, 44, 39
11, 12900, Note_off_c, 9, 44, 0
11, 12948, Note_on_c, 9, 44, 28
11, 12952, Note_on_c, 9, 68, 52
11, 12988, Note_off_c, 9, 68, 0
11, 13000, Note_off_c, 9, 44, 0
11, 13052, Note_on_c, 9, 44, 48
11, 13052, Note_on_c, 9, 35, 95
11, 13052, Note_on_c, 9, 63, 74
11, 13056, Note_on_c, 9, 59, 34
11, 13092, Note_off_c, 9, 35, 0
11, 13092, Note_off_c, 9, 63, 0
11, 13092, Note_off_c, 9, 59, 0
11, 13096, Note_off_c, 9, 44, 0
11, 13140, Note_on_c, 9, 44, 28
11, 13140, Note_on_c, 9, 63, 56
11, 13180, Note_off_c, 9, 63, 0
11, 13188, Note_off_c, 9, 44, 0
11, 13236, Note_on_c, 9, 44, 39
11, 13276, Note_off_c, 9, 44, 0
11, 13332, Note_on_c, 9, 44, 24
11, 13332, Note_on_c, 9, 61, 81
11, 13332, Note_on_c, 9, 35, 94
11, 13336, Note_on_c, 9, 68, 39
11, 13368, Note_off_c, 9, 44, 0
11, 13380, Note_off_c, 9, 61, 0
11, 13380, Note_off_c, 9, 35, 0
11, 13380, Note_off_c, 9, 68, 0
11, 13428, Note_on_c, 9, 44, 62
11, 13432, Note_on_c, 9, 63, 78
11, 13432, Note_on_c, 9, 35, 95
11, 13432, Note_on_c, 9, 59, 34
11, 13432, Note_on_c, 9, 41, 83
11, 13468, Note_off_c, 9, 63, 0
11, 13472, Note_off_c, 9, 35, 0
11, 13472, Note_off_c, 9, 59, 0
11, 13472, Note_off_c, 9, 41, 0
11, 13484, Note_off_c, 9, 44, 0
11, 13524, Note_on_c, 9, 44, 48
11, 13580, Note_off_c, 9, 44, 0
11, 13620, Note_on_c, 9, 44, 42
11, 13624, Note_on_c, 9, 68, 52
11, 13664, Note_off_c, 9, 68, 0
11, 13668, Note_off_c, 9, 44, 0
11, 13716, Note_on_c, 9, 44, 22
11, 13716, Note_on_c, 9, 68, 35
11, 13752, Note_off_c, 9, 44, 0
11, 13756, Note_off_c, 9, 68, 0
11, 13816, Note_on_c, 9, 44, 42
11, 13816, Note_on_c, 9, 63, 74
11, 13820, Note_on_c, 9, 35, 89
11, 13820, Note_on_c, 9, 59, 34
11, 13852, Note_off_c, 9, 63, 0
11, 13856, Note_off_c, 9, 35, 0
11, 13856, Note_off_c, 9, 59, 0
11, 13864, Note_off_c, 9, 44, 0
11, 13908, Note_on_c, 9, 44, 45
11, 13964, Note_off_c, 9, 44, 0
11, 14004, Note_on_c, 9, 44, 48
11, 14004, Note_on_c, 9, 68, 48
11, 14052, Note_off_c, 9, 44, 0
11, 14052, Note_off_c, 9, 68, 0
11, 14100, Note_on_c, 9, 44, 48
11, 14104, Note_on_c, 9, 61, 74
11, 14104, Note_on_c, 9, 35, 95
11, 14140, Note_off_c, 9, 61, 0
11, 14144, Note_off_c, 9, 44, 0
11, 14144, Note_off_c, 9, 35, 0
11, 14196, Note_on_c, 9, 44, 62
11, 14196, Note_on_c, 9, 35, 95
11, 14196, Note_on_c, 9, 63, 81
11, 14200, Note_on_c, 9, 59, 34
11, 14200, Note_on_c, 9, 41, 83
11, 14244, Note_off_c, 9, 35, 0
11, 14248, Note_off_c, 9, 63, 0
11, 14248, Note_off_c, 9, 59, 0
11, 14252, Note_off_c, 9, 44, 0
11, 14252, Note_off_c, 9, 41, 0
11, 14292, Note_on_c, 9, 44, 34
11, 14296, Note_on_c, 9, 68, 24
11, 14332, Note_off_c, 9, 44, 0
11, 14336, Note_off_c, 9, 68, 0
11, 14388, Note_on_c, 9, 44, 45
11, 14428, Note_off_c, 9, 44, 0
11, 14492, Note_on_c, 9, 44, 36
11, 14492, Note_on_c, 9, 68, 52
11, 14528, Note_off_c, 9, 44, 0
11, 14528, Note_off_c, 9, 68, 0
11, 14580, Note_on_c, 9, 44, 51
11, 14584, Note_on_c, 9, 35, 95
11, 14584, Note_on_c, 9, 63, 74
11, 14588, Note_on_c, 9, 59, 34
11, 14620, Note_off_c, 9, 35, 0
11, 14624, Note_off_c, 9, 63, 0
11, 14624, Note_off_c, 9, 59, 0
11, 14632, Note_off_c, 9, 44, 0
11, 14676, Note_on_c, 9, 44, 39
11, 14680, Note_on_c, 9, 63, 56
11, 14724, Note_off_c, 9, 63, 0
11, 14732, Note_off_c, 9, 44, 0
11, 14776, Note_on_c, 9, 44, 42
11, 14824, Note_off_c, 9, 44, 0
11, 14868, Note_on_c, 9, 44, 31
11, 14868, Note_on_c, 9, 68, 39
11, 14868, Note_on_c, 9, 61, 81
11, 14872, Note_on_c, 9, 35, 94
11, 14912, Note_off_c, 9, 61, 0
11, 14912, Note_off_c, 9, 35, 0
11, 14916, Note_off_c, 9, 44, 0
11, 14916, Note_off_c, 9, 68, 0
11, 14964, Note_on_c, 9, 44, 45
11, 14968, Note_on_c, 9, 35, 95
11, 14968, Note_on_c, 9, 63, 78
11, 14976, Note_on_c, 9, 59, 34
11, 14976, Note_on_c, 9, 41, 83
11, 15004, Note_off_c, 9, 35, 0
11, 15008, Note_off_c, 9, 63, 0
11, 15008, Note_off_c, 9, 59, 0
11, 15008, Note_off_c, 9, 41, 0
11, 15032, Note_off_c, 9, 44, 0
11, 15060, Note_on_c, 9, 44, 36
11, 15112, Note_off_c, 9, 44, 0
11, 15156, Note_on_c, 9, 44, 45
11, 15156, Note_on_c, 9, 68, 52
11, 15200, Note_off_c, 9, 44, 0
11, 15200, Note_off_c, 9, 68, 0
11, 15252, Note_on_c, 9, 44, 36
11, 15256, Note_on_c, 9, 68, 35
11, 15292, Note_off_c, 9, 68, 0
11, 15300, Note_off_c, 9, 44, 0
11, 15348, Note_on_c, 9, 44, 48
11, 15348, Note_on_c, 9, 63, 74
11, 15348, Note_on_c, 9, 35, 89
11, 15352, Note_on_c, 9, 59, 34
11, 15392, Note_off_c, 9, 59, 0
11, 15396, Note_off_c, 9, 35, 0
11, 15396, Note_off_c, 9, 63, 0
11, 15416, Note_off_c, 9, 44, 0
11, 15444, Note_on_c, 9, 44, 28
11, 15508, Note_off_c, 9, 44, 0
11, 15540, Note_on_c, 9, 44, 48
11, 15544, Note_on_c, 9, 68, 48
11, 15588, Note_off_c, 9, 68, 0
11, 15592, Note_off_c, 9, 44, 0
11, 15636, Note_on_c, 9, 44, 34
11, 15640, Note_on_c, 9, 61, 74
11, 15640, Note_on_c, 9, 35, 95
11, 15676, Note_off_c, 9, 61, 0
11, 15680, Note_off_c, 9, 44, 0
11, 15680, Note_off_c, 9, 35, 0
11, 15732, Note_on_c, 9, 44, 48
11, 15736, Note_on_c, 9, 63, 81
11, 15736, Note_on_c, 9, 35, 95
11, 15736, Note_on_c, 9, 59, 34
11, 15740, Note_on_c, 9, 41, 83
11, 15772, Note_off_c, 9, 63, 0
11, 15776, Note_off_c, 9, 35, 0
11, 15776, Note_off_c, 9, 59, 0
11, 15776, Note_off_c, 9, 41, 0
11, 15800, Note_off_c, 9, 44, 0
11, 15828, Note_on_c, 9, 44, 42
11, 15832, Note_on_c, 9, 68, 24
11, 15876, Note_off_c, 9, 68, 0
11, 15900, Note_off_c, 9, 44, 0
11, 15928, Note_on_c, 9, 44, 48
11, 15980, Note_off_c, 9, 44, 0
11, 16020, Note_on_c, 9, 44, 34
11, 16020, Note_on_c, 9, 68, 52
11, 16068, Note_off_c, 9, 68, 0
11, 16076, Note_off_c, 9, 44, 0
11, 16116, Note_on_c, 9, 44, 51
11, 16120, Note_on_c, 9, 35, 95
11, 16120, Note_on_c, 9, 63, 74
11, 16120, Note_on_c, 9, 59, 34
11, 16156, Note_off_c, 9, 35, 0
11, 16160, Note_off_c, 9, 63, 0
11, 16160, Note_off_c, 9, 59, 0
11, 16188, Note_off_c, 9, 44, 0
11, 16212, Note_on_c, 9, 44, 48
11, 16216, Note_on_c, 9, 63, 56
11, 16256, Note_off_c, 9, 63, 0
11, 16268, Note_off_c, 9, 44, 0
11, 16312, Note_on_c, 9, 44, 48
11, 16364, Note_off_c, 9, 44, 0
11, 16404, Note_on_c, 9, 44, 34
11, 16408, Note_on_c, 9, 68, 39
11, 16408, Note_on_c, 9, 61, 81
11, 16408, Note_on_c, 9, 35, 94
11, 16444, Note_off_c, 9, 68, 0
11, 16448, Note_off_c, 9, 61, 0
11, 16448, Note_off_c, 9, 35, 0
11, 16452, Note_off_c, 9, 44, 0
11, 16500, Note_on_c, 9, 44, 51
11, 16500, Note_on_c, 9, 63, 78
11, 16500, Note_on_c, 9, 35, 95
11, 16508, Note_on_c, 9, 41, 83
11, 16508, Note_on_c, 9, 59, 34
11, 16544, Note_off_c, 9, 41, 0
11, 16548, Note_off_c, 9, 63, 0
11, 16548, Note_off_c, 9, 35, 0
11, 16552, Note_off_c, 9, 59, 0
11, 16572, Note_off_c, 9, 44, 0
11, 16596, Note_on_c, 9, 44, 39
11, 16652, Note_off_c, 9, 44, 0
11, 16692, Note_on_c, 9, 44, 42
11, 16692, Note_on_c, 9, 68, 52
11, 16740, Note_off_c, 9, 68, 0
11, 16744, Note_off_c, 9, 44, 0
11, 16788, Note_on_c, 9, 44, 39
11, 16788, Note_on_c, 9, 68, 35
11, 16828, Note_off_c, 9, 68, 0
11, 16844, Note_off_c, 9, 44, 0
11, 16884, Note_on_c, 9, 44, 51
11, 16888, Note_on_c, 9, 63, 74
11, 16888, Note_on_c, 9, 35, 89
11, 16892, Note_on_c, 9, 59, 34
11, 16932, Note_off_c, 9, 35, 0
11, 16932, Note_off_c, 9, 59, 0
11, 16932, Note_off_c, 9, 63, 0
11, 16944, Note_off_c, 9, 44, 0
11, 16980, Note_on_c, 9, 44, 27
11, 17032, Note_off_c, 9, 44, 0
11, 17076, Note_on_c, 9, 44, 42
11, 17076, Note_on_c, 9, 68, 48
11, 17116, Note_off_c, 9, 68, 0
11, 17128, Note_off_c, 9, 44, 0
11, 17180, Note_on_c, 9, 44, 36
11, 17180, Note_on_c, 9, 35, 95
11, 17180, Note_on_c, 9, 61, 74
11, 17220, Note_off_c, 9, 35, 0
11, 17220, Note_off_c, 9, 61, 0
11, 17228, Note_off_c, 9, 44, 0
11, 17268, Note_on_c, 9, 44, 51
11, 17268, Note_on_c, 9, 35, 95
11, 17268, Note_on_c, 9, 63, 81
11, 17272, Note_on_c, 9, 59, 34
11, 17272, Note_on_c, 9, 41, 83
11, 17308, Note_off_c, 9, 35, 0
11, 17312, Note_off_c, 9, 63, 0
11, 17312, Note_off_c, 9, 59, 0
11, 17312, Note_off_c, 9, 41, 0
11, 17340, Note_off_c, 9, 44, 0
11, 17368, Note_on_c, 9, 44, 45
11, 17368, Note_on_c, 9, 68, 24
11, 17412, Note_off_c, 9, 68, 0
11, 17428, Note_off_c, 9, 44, 0
11, 17456, Note_on_c, 9, 44, 33
11, 17496, Note_off_c, 9, 44, 0
11, 17556, Note_on_c, 9, 44, 42
11, 17560, Note_on_c, 9, 68, 52
11, 17600, Note_off_c, 9, 68, 0
11, 17604, Note_off_c, 9, 44, 0
11, 17656, Note_on_c, 9, 44, 48
11, 17660, Note_on_c, 9, 63, 74
11, 17660, Note_on_c, 9, 35, 95
11, 17660, Note_on_c, 9, 59, 34
11, 17692, Note_off_c, 9, 63, 0
11, 17696, Note_off_c, 9, 35, 0
11, 17700, Note_off_c, 9, 59, 0
11, 17716, Note_off_c, 9, 44, 0
11, 17748, Note_on_c, 9, 44, 34
11, 17748, Note_on_c, 9, 63, 56
11, 17788, Note_off_c, 9, 63, 0
11, 17800, Note_off_c, 9, 44, 0
11, 17848, Note_on_c, 9, 44, 42
11, 17892, Note_off_c, 9, 44, 0
11, 17940, Note_on_c, 9, 44, 39
11, 17940, Note_on_c, 9, 35, 94
11, 17940, Note_on_c, 9, 68, 39
11, 17944, Note_on_c, 9, 61, 81
11, 17980, Note_off_c, 9, 35, 0
11, 17988, Note_off_c, 9, 68, 0
11, 17988, Note_off_c, 9, 61, 0
11, 17992, Note_off_c, 9, 44, 0
11, 18036, Note_on_c, 9, 44, 48
11, 18040, Note_on_c, 9, 63, 78
11, 18040, Note_on_c, 9, 35, 95
11, 18044, Note_on_c, 9, 59, 34
11, 18048, Note_on_c, 9, 41, 83
11, 18084, Note_off_c, 9, 63, 0
11, 18084, Note_off_c, 9, 35, 0
11, 18084, Note_off_c, 9, 59, 0
11, 18088, Note_off_c, 9, 41, 0
11, 18108, Note_off_c, 9, 44, 0
11, 18132, Note_on_c, 9, 44, 48
11, 18188, Note_off_c, 9, 44, 0
11, 18228, Note_on_c, 9, 44, 45
11, 18232, Note_on_c, 9, 68, 52
11, 18268, Note_off_c, 9, 68, 0
11, 18272, Note_off_c, 9, 44, 0
11, 18324, Note_on_c, 9, 44, 42
11, 18324, Note_on_c, 9, 68, 35
11, 18364, Note_off_c, 9, 68, 0
11, 18380, Note_off_c, 9, 44, 0
11, 18420, Note_on_c, 9, 44, 54
11, 18424, Note_on_c, 9, 35, 89
11, 18424, Note_on_c, 9, 63, 74
11, 18424, Note_on_c, 9, 59, 34
11, 18460, Note_off_c, 9, 35, 0
11, 18464, Note_off_c, 9, 59, 0
11, 18464, Note_off_c, 9, 63, 0
11, 18488, Note_off_c, 9, 44, 0
11, 18516, Note_on_c, 9, 44, 34
11, 18564, Note_off_c, 9, 44, 0
11, 18612, Note_on_c, 9, 44, 39
11, 18616, Note_on_c, 9, 68, 48
11, 18652, Note_off_c, 9, 44, 0
11, 18652, Note_off_c, 9, 68, 0
11, 18708, Note_on_c, 9, 44, 36
11, 18712, Note_on_c, 9, 35, 95
11, 18712, Note_on_c, 9, 61, 74
11, 18756, Note_off_c, 9, 44, 0
11, 18756, Note_off_c, 9, 35, 0
11, 18756, Note_off_c, 9, 61, 0
11, 18812, Note_on_c, 9, 44, 58
11, 18812, Note_on_c, 9, 63, 81
11, 18816, Note_on_c, 9, 35, 95
11, 18816, Note_on_c, 9, 59, 34
11, 18816, Note_on_c, 9, 41, 83
11, 18844, Note_off_c, 9, 63, 0
11, 18848, Note_off_c, 9, 59, 0
11, 18852, Note_off_c, 9, 35, 0
11, 18852, Note_off_c, 9, 41, 0
11, 18872, Note_off_c, 9, 44, 0
11, 18900, Note_on_c, 9, 44, 36
11, 18904, Note_on_c, 9, 68, 24
11, 18940, Note_off_c, 9, 68, 0
11, 18956, Note_off_c, 9, 44, 0
11, 18996, Note_on_c, 9, 44, 45
11, 19052, Note_off_c, 9, 44, 0
11, 19092, Note_on_c, 9, 44, 34
11, 19096, Note_on_c, 9, 68, 52
11, 19132, Note_off_c, 9, 68, 0
11, 19140, Note_off_c, 9, 44, 0
11, 19188, Note_on_c, 9, 44, 48
11, 19188, Note_on_c, 9, 63, 74
11, 19188, Note_on_c, 9, 35, 95
11, 19196, Note_on_c, 9, 59, 34
11, 19236, Note_off_c, 9, 63, 0
11, 19236, Note_off_c, 9, 35, 0
11, 19236, Note_off_c, 9, 59, 0
11, 19252, Note_off_c, 9, 44, 0
11, 19284, Note_on_c, 9, 44, 34
11, 19288, Note_on_c, 9, 63, 56
11, 19324, Note_off_c, 9, 63, 0
11, 19344, Note_off_c, 9, 44, 0
11, 19380, Note_on_c, 9, 44, 42
11, 19436, Note_off_c, 9, 44, 0
11, 19476, Note_on_c, 9, 44, 34
11, 19480, Note_on_c, 9, 35, 94
11, 19480, Note_on_c, 9, 68, 39
11, 19480, Note_on_c, 9, 61, 81
11, 19516, Note_off_c, 9, 35, 0
11, 19524, Note_off_c, 9, 44, 0
11, 19524, Note_off_c, 9, 68, 0
11, 19524, Note_off_c, 9, 61, 0
11, 19572, Note_on_c, 9, 44, 48
11, 19576, Note_on_c, 9, 35, 95
11, 19576, Note_on_c, 9, 63, 78
11, 19576, Note_on_c, 9, 59, 34
11, 19580, Note_on_c, 9, 41, 83
11, 19612, Note_off_c, 9, 35, 0
11, 19612, Note_off_c, 9, 63, 0
11, 19616, Note_off_c, 9, 59, 0
11, 19616, Note_off_c, 9, 41, 0
11, 19644, Note_off_c, 9, 44, 0
11, 19668, Note_on_c, 9, 44, 31
11, 19716, Note_off_c, 9, 44, 0
11, 19764, Note_on_c, 9, 44, 42
11, 19768, Note_on_c, 9, 68, 52
11, 19804, Note_off_c, 9, 68, 0
11, 19820, Note_off_c, 9, 44, 0
11, 19860, Note_on_c, 9, 44, 36
11, 19860, Note_on_c, 9, 68, 35
11, 19908, Note_off_c, 9, 68, 0
11, 19912, Note_off_c, 9, 44, 0
11, 19956, Note_on_c, 9, 44, 45
11, 19956, Note_on_c, 9, 35, 89
11, 19960, Note_on_c, 9, 63, 74
11, 19960, Note_on_c, 9, 59, 34
11, 19996, Note_off_c, 9, 35, 0
11, 20000, Note_off_c, 9, 59, 0
11, 20000, Note_off_c, 9, 63, 0
11, 20020, Note_off_c, 9, 44, 0
11, 20052, Note_on_c, 9, 44, 28
11, 20108, Note_off_c, 9, 44, 0
11, 20148, Note_on_c, 9, 44, 51
11, 20148, Note_on_c, 9, 68, 48
11, 20188, Note_off_c, 9, 68, 0
11, 20196, Note_off_c, 9, 44, 0
11, 20244, Note_on_c, 9, 44, 39
11, 20244, Note_on_c, 9, 35, 95
11, 20248, Note_on_c, 9, 61, 74
11, 20284, Note_off_c, 9, 35, 0
11, 20288, Note_off_c, 9, 61, 0
11, 20300, Note_off_c, 9, 44, 0
11, 20340, Note_on_c, 9, 44, 51
11, 20344, Note_on_c, 9, 35, 95
11, 20344, Note_on_c, 9, 63, 81
11, 20344, Note_on_c, 9, 59, 34
11, 20348, Note_on_c, 9, 41, 83
11, 20388, Note_off_c, 9, 35, 0
11, 20388, Note_off_c, 9, 63, 0
11, 20388, Note_off_c, 9, 59, 0
11, 20392, Note_off_c, 9, 41, 0
11, 20412, Note_off_c, 9, 44, 0
11, 20436, Note_on_c, 9, 44, 39
11, 20436, Note_on_c, 9, 68, 24
11, 20476, Note_off_c, 9, 68, 0
11, 20484, Note_off_c, 9, 44, 0
11, 20532, Note_on_c, 9, 44, 48
11, 20588, Note_off_c, 9, 44, 0
11, 20624, Note_on_c, 9, 44, 36
11, 20628, Note_on_c, 9, 68, 52
11, 20668, Note_off_c, 9, 68, 0
11, 20684, Note_off_c, 9, 44, 0
11, 20724, Note_on_c, 9, 44, 51
11, 20724, Note_on_c, 9, 63, 74
11, 20728, Note_on_c, 9, 35, 95
11, 20728, Note_on_c, 9, 59, 34
11, 20772, Note_off_c, 9, 63, 0
11, 20772, Note_off_c, 9, 35, 0
11, 20772, Note_off_c, 9, 59, 0
11, 20792, Note_off_c, 9, 44, 0
11, 20820, Note_on_c, 9, 44, 39
11, 20820, Note_on_c, 9, 63, 56
11, 20860, Note_off_c, 9, 63, 0
11, 20888, Note_off_c, 9, 44, 0
11, 20916, Note_on_c, 9, 44, 48
11, 20972, Note_off_c, 9, 44, 0
11, 21012, Note_on_c, 9, 44, 36
11, 21012, Note_on_c, 9, 68, 39
11, 21016, Note_on_c, 9, 61, 81
11, 21016, Note_on_c, 9, 35, 94
11, 21060, Note_off_c, 9, 68, 0
11, 21060, Note_off_c, 9, 61, 0
11, 21060, Note_off_c, 9, 35, 0
11, 21068, Note_off_c, 9, 44, 0
11, 21108, Note_on_c, 9, 44, 51
11, 21108, Note_on_c, 9, 63, 78
11, 21112, Note_on_c, 9, 35, 95
11, 21112, Note_on_c, 9, 59, 34
11, 21112, Note_on_c, 9, 41, 83
11, 21148, Note_off_c, 9, 63, 0
11, 21152, Note_off_c, 9, 35, 0
11, 21152, Note_off_c, 9, 59, 0
11, 21152, Note_off_c, 9, 41, 0
11, 21180, Note_off_c, 9, 44, 0
11, 21204, Note_on_c, 9, 44, 36
11, 21252, Note_off_c, 9, 44, 0
11, 21300, Note_on_c, 9, 44, 45
11, 21300, Note_on_c, 9, 68, 52
11, 21344, Note_off_c, 9, 68, 0
11, 21352, Note_off_c, 9, 44, 0
11, 21396, Note_on_c, 9, 44, 36
11, 21400, Note_on_c, 9, 68, 35
11, 21444, Note_off_c, 9, 68, 0
11, 21452, Note_off_c, 9, 44, 0
11, 21492, Note_on_c, 9, 44, 51
11, 21500, Note_on_c, 9, 63, 74
11, 21500, Note_on_c, 9, 35, 89
11, 21500, Note_on_c, 9, 59, 34
11, 21532, Note_off_c, 9, 35, 0
11, 21532, Note_off_c, 9, 63, 0
11, 21536, Note_off_c, 9, 59, 0
11, 21548, Note_off_c, 9, 44, 0
11, 21588, Note_on_c, 9, 44, 39
11, 21644, Note_off_c, 9, 44, 0
11, 21684, Note_on_c, 9, 44, 51
11, 21684, Note_on_c, 9, 68, 48
11, 21732, Note_off_c, 9, 44, 0
11, 21732, Note_off_c, 9, 68, 0
11, 21784, Note_on_c, 9, 44, 39
11, 21788, Note_on_c, 9, 35, 95
11, 21788, Note_on_c, 9, 61, 74
11, 21820, Note_off_c, 9, 35, 0
11, 21824, Note_off_c, 9, 61, 0
11, 21832, Note_off_c, 9, 44, 0
11, 21876, Note_on_c, 9, 44, 54
11, 21880, Note_on_c, 9, 35, 95
11, 21880, Note_on_c, 9, 63, 81
11, 21880, Note_on_c, 9, 59, 34
11, 21884, Note_on_c, 9, 41, 83
11, 21924, Note_off_c, 9, 35, 0
11, 21928, Note_off_c, 9, 63, 0
11, 21928, Note_off_c, 9, 59, 0
11, 21932, Note_off_c, 9, 41, 0
11, 21944, Note_off_c, 9, 44, 0
11, 21972, Note_on_c, 9, 44, 31
11, 21972, Note_on_c, 9, 68, 24
11, 22012, Note_off_c, 9, 68, 0
11, 22024, Note_off_c, 9, 44, 0
11, 22068, Note_on_c, 9, 44, 48
11, 22124, Note_off_c, 9, 44, 0
11, 22164, Note_on_c, 9, 44, 34
11, 22164, Note_on_c, 9, 68, 52
11, 22204, Note_off_c, 9, 68, 0
11, 22208, Note_off_c, 9, 44, 0
11, 22260, Note_on_c, 9, 44, 48
11, 22264, Note_on_c, 9, 63, 74
11, 22264, Note_on_c, 9, 35, 95
11, 22264, Note_on_c, 9, 59, 34
11, 22300, Note_off_c, 9, 63, 0
11, 22304, Note_off_c, 9, 35, 0
11, 22304, Note_off_c, 9, 59, 0
11, 22328, Note_off_c, 9, 44, 0
11, 22356, Note_on_c, 9, 44, 42
11, 22356, Note_on_c, 9, 63, 56
11, 22404, Note_off_c, 9, 63, 0
11, 22412, Note_off_c, 9, 44, 0
11, 22452, Note_on_c, 9, 44, 48
11, 22508, Note_off_c, 9, 44, 0
11, 22548, Note_on_c, 9, 44, 39
11, 22548, Note_on_c, 9, 35, 94
11, 22552, Note_on_c, 9, 68, 39
11, 22552, Note_on_c, 9, 61, 81
11, 22596, Note_off_c, 9, 35, 0
11, 22596, Note_off_c, 9, 68, 0
11, 22596, Note_off_c, 9, 61, 0
11, 22604, Note_off_c, 9, 44, 0
11, 22648, Note_on_c, 9, 44, 48
11, 22652, Note_on_c, 9, 63, 78
11, 22652, Note_on_c, 9, 35, 95
11, 22652, Note_on_c, 9, 59, 34
11, 22656, Note_on_c, 9, 41, 83
11, 22684, Note_off_c, 9, 63, 0
11, 22688, Note_off_c, 9, 35, 0
11, 22688, Note_off_c, 9, 59, 0
11, 22692, Note_off_c, 9, 41, 0
11, 22716, Note_off_c, 9, 44, 0
11, 22740, Note_on_c, 9, 44, 34
11, 22792, Note_off_c, 9, 44, 0
11, 22836, Note_on_c, 9, 44, 36
11, 22836, Note_on_c, 9, 68, 52
11, 22876, Note_off_c, 9, 68, 0
11, 22880, Note_off_c, 9, 44, 0
11, 22932, Note_on_c, 9, 44, 34
11, 22932, Note_on_c, 9, 68, 35
11, 22972, Note_off_c, 9, 68, 0
11, 22980, Note_off_c, 9, 44, 0
11, 23028, Note_on_c, 9, 44, 51
11, 23028, Note_on_c, 9, 35, 89
11, 23036, Note_on_c, 9, 63, 74
11, 23036, Note_on_c, 9, 59, 34
11, 23076, Note_off_c, 9, 35, 0
11, 23076, Note_off_c, 9, 63, 0
11, 23080, Note_off_c, 9, 59, 0
11, 23096, Note_off_c, 9, 44, 0
11, 23124, Note_on_c, 9, 44, 28
11, 23180, Note_off_c, 9, 44, 0
11, 23220, Note_on_c, 9, 44, 39
11, 23220, Note_on_c, 9, 68, 48
11, 23268, Note_off_c, 9, 44, 0
11, 23268, Note_off_c, 9, 68, 0
11, 23316, Note_on_c, 9, 44, 45
11, 23316, Note_on_c, 9, 35, 95
11, 23320, Note_on_c, 9, 61, 74
11, 23356, Note_off_c, 9, 35, 0
11, 23360, Note_off_c, 9, 61, 0
11, 23368, Note_off_c, 9, 44, 0
11, 23412, Note_on_c, 9, 44, 54
11, 23412, Note_on_c, 9, 35, 95
11, 23416, Note_on_c, 9, 63, 81
11, 23416, Note_on_c, 9, 41, 83
11, 23416, Note_on_c, 9, 59, 34
11, 23452, Note_off_c, 9, 35, 0
11, 23452, Note_off_c, 9, 63, 0
11, 23456, Note_off_c, 9, 41, 0
11, 23456, Note_off_c, 9, 59, 0
11, 23480, Note_off_c, 9, 44, 0
11, 23508, Note_on_c, 9, 44, 36
11, 23508, Note_on_c, 9, 68, 24
11, 23552, Note_off_c, 9, 68, 0
11, 23564, Note_off_c, 9, 44, 0
11, 23604, Note_on_c, 9, 44, 45
11, 23660, Note_off_c, 9, 44, 0
11, 23700, Note_on_c, 9, 44, 34
11, 23700, Note_on_c, 9, 68, 52
11, 23748, Note_off_c, 9, 68, 0
11, 23752, Note_off_c, 9, 44, 0
11, 23796, Note_on_c, 9, 44, 45
11, 23796, Note_on_c, 9, 63, 74
11, 23800, Note_on_c, 9, 35, 95
11, 23800, Note_on_c, 9, 59, 34
11, 23836, Note_off_c, 9, 63, 0
11, 23840, Note_off_c, 9, 35, 0
11, 23840, Note_off_c, 9, 59, 0
11, 23864, Note_off_c, 9, 44, 0
11, 23892, Note_on_c, 9, 44, 36
11, 23892, Note_on_c, 9, 63, 56
11, 23940, Note_off_c, 9, 63, 0
11, 23948, Note_off_c, 9, 44, 0
11, 23988, Note_on_c, 9, 44, 39
11, 24028, Note_off_c, 9, 44, 0
11, 24084, Note_on_c, 9, 44, 36
11, 24084, Note_on_c, 9, 68, 39
11, 24088, Note_on_c, 9, 61, 81
11, 24088, Note_on_c, 9, 35, 94
11, 24124, Note_off_c, 9, 68, 0
11, 24124, Note_off_c, 9, 61, 0
11, 24128, Note_off_c, 9, 35, 0
11, 24136, Note_off_c, 9, 44, 0
11, 24180, Note_on_c, 9, 44, 62
11, 24180, Note_on_c, 9, 35, 95
11, 24184, Note_on_c, 9, 63, 78
11, 24184, Note_on_c, 9, 59, 34
11, 24184, Note_on_c, 9, 41, 83
11, 24224, Note_off_c, 9, 63, 0
11, 24224, Note_off_c, 9, 59, 0
11, 24228, Note_off_c, 9, 35, 0
11, 24232, Note_off_c, 9, 41, 0
11, 24252, Note_off_c, 9, 44, 0
11, 24276, Note_on_c, 9, 44, 28
11, 24332, Note_off_c, 9, 44, 0
11, 24372, Note_on_c, 9, 44, 39
11, 24372, Note_on_c, 9, 68, 52
11, 24420, Note_off_c, 9, 44, 0
11, 24420, Note_off_c, 9, 68, 0
11, 24468, Note_on_c, 9, 44, 34
11, 24468, Note_on_c, 9, 68, 35
11, 24508, Note_off_c, 9, 68, 0
11, 24520, Note_off_c, 9, 44, 0
11, 24564, Note_on_c, 9, 44, 58
11, 24564, Note_on_c, 9, 35, 89
11, 24568, Note_on_c, 9, 63, 74
11, 24568, Note_on_c, 9, 59, 34
11, 24612, Note_off_c, 9, 35, 0
11, 24612, Note_off_c, 9, 59, 0
11, 24612, Note_off_c, 9, 63, 0
11, 24628, Note_off_c, 9, 44, 0
11, 24660, Note_on_c, 9, 44, 42
11, 24716, Note_off_c, 9, 44, 0
11, 24756, Note_on_c, 9, 44, 39
11, 24756, Note_on_c, 9, 68, 48
11, 24796, Note_off_c, 9, 44, 0
11, 24800, Note_off_c, 9, 68, 0
11, 24852, Note_on_c, 9, 44, 36
11, 24852, Note_on_c, 9, 61, 74
11, 24856, Note_on_c, 9, 35, 95
11, 24900, Note_off_c, 9, 61, 0
11, 24904, Note_off_c, 9, 44, 0
11, 24904, Note_off_c, 9, 35, 0
11, 24948, Note_on_c, 9, 44, 58
11, 24948, Note_on_c, 9, 63, 81
11, 24952, Note_on_c, 9, 35, 95
11, 24952, Note_on_c, 9, 41, 83
11, 24952, Note_on_c, 9, 59, 34
11, 24988, Note_off_c, 9, 63, 0
11, 24992, Note_off_c, 9, 35, 0
11, 24992, Note_off_c, 9, 41, 0
11, 24996, Note_off_c, 9, 59, 0
11, 25016, Note_off_c, 9, 44, 0
11, 25044, Note_on_c, 9, 44, 28
11, 25044, Note_on_c, 9, 68, 24
11, 25092, Note_off_c, 9, 68, 0
11, 25100, Note_off_c, 9, 44, 0
11, 25140, Note_on_c, 9, 44, 45
11, 25188, Note_off_c, 9, 44, 0
11, 25236, Note_on_c, 9, 44, 34
11, 25240, Note_on_c, 9, 68, 52
11, 25280, Note_off_c, 9, 68, 0
11, 25292, Note_off_c, 9, 44, 0
11, 25332, Note_on_c, 9, 44, 48
11, 25332, Note_on_c, 9, 35, 95
11, 25336, Note_on_c, 9, 63, 74
11, 25336, Note_on_c, 9, 59, 34
11, 25372, Note_off_c, 9, 35, 0
11, 25376, Note_off_c, 9, 63, 0
11, 25376, Note_off_c, 9, 59, 0
11, 25400, Note_off_c, 9, 44, 0
11, 25428, Note_on_c, 9, 44, 39
11, 25428, Note_on_c, 9, 63, 56
11, 25468, Note_off_c, 9, 63, 0
11, 25480, Note_off_c, 9, 44, 0
11, 25524, Note_on_c, 9, 44, 42
11, 25572, Note_off_c, 9, 44, 0
11, 25620, Note_on_c, 9, 44, 36
11, 25620, Note_on_c, 9, 35, 94
11, 25624, Note_on_c, 9, 61, 81
11, 25624, Note_on_c, 9, 68, 39
11, 25660, Note_off_c, 9, 35, 0
11, 25664, Note_off_c, 9, 61, 0
11, 25664, Note_off_c, 9, 68, 0
11, 25668, Note_off_c, 9, 44, 0
11, 25716, Note_on_c, 9, 44, 62
11, 25716, Note_on_c, 9, 63, 78
11, 25716, Note_on_c, 9, 35, 95
11, 25720, Note_on_c, 9, 59, 34
11, 25720, Note_on_c, 9, 41, 83
11, 25760, Note_off_c, 9, 59, 0
11, 25764, Note_off_c, 9, 63, 0
11, 25764, Note_off_c, 9, 35, 0
11, 25768, Note_off_c, 9, 41, 0
11, 25784, Note_off_c, 9, 44, 0
11, 25812, Note_on_c, 9, 44, 39
11, 25872, Note_off_c, 9, 44, 0
11, 25908, Note_on_c, 9, 44, 45
11, 25908, Note_on_c, 9, 68, 52
11, 25952, Note_off_c, 9, 68, 0
11, 25964, Note_off_c, 9, 44, 0
11, 26004, Note_on_c, 9, 44, 34
11, 26004, Note_on_c, 9, 68, 35
11, 26048, Note_off_c, 9, 44, 0
11, 26048, Note_off_c, 9, 68, 0
11, 26100, Note_on_c, 9, 44, 48
11, 26100, Note_on_c, 9, 63, 74
11, 26104, Note_on_c, 9, 35, 89
11, 26104, Note_on_c, 9, 59, 34
11, 26140, Note_off_c, 9, 63, 0
11, 26144, Note_off_c, 9, 35, 0
11, 26144, Note_off_c, 9, 59, 0
11, 26164, Note_off_c, 9, 44, 0
11, 26196, Note_on_c, 9, 44, 39
11, 26252, Note_off_c, 9, 44, 0
11, 26292, Note_on_c, 9, 44, 45
11, 26292, Note_on_c, 9, 68, 48
11, 26332, Note_off_c, 9, 68, 0
11, 26348, Note_off_c, 9, 44, 0
11, 26388, Note_on_c, 9, 44, 39
11, 26388, Note_on_c, 9, 35, 95
11, 26388, Note_on_c, 9, 61, 74
11, 26436, Note_off_c, 9, 35, 0
11, 26436, Note_off_c, 9, 61, 0
11, 26444, Note_off_c, 9, 44, 0
11, 26484, Note_on_c, 9, 44, 48
11, 26484, Note_on_c, 9, 63, 81
11, 26488, Note_on_c, 9, 35, 95
11, 26488, Note_on_c, 9, 59, 34
11, 26488, Note_on_c, 9, 41, 83
11, 26524, Note_off_c, 9, 63, 0
11, 26528, Note_off_c, 9, 35, 0
11, 26528, Note_off_c, 9, 59, 0
11, 26528, Note_off_c, 9, 41, 0
11, 26548, Note_off_c, 9, 44, 0
11, 26580, Note_on_c, 9, 44, 36
11, 26580, Note_on_c, 9, 68, 24
11, 26628, Note_off_c, 9, 68, 0
11, 26636, Note_off_c, 9, 44, 0
11, 26676, Note_on_c, 9, 44, 48
11, 26732, Note_off_c, 9, 44, 0
11, 26772, Note_on_c, 9, 44, 28
11, 26772, Note_on_c, 9, 68, 52
11, 26812, Note_off_c, 9, 68, 0
11, 26816, Note_off_c, 9, 44, 0
11, 26868, Note_on_c, 9, 44, 45
11, 26868, Note_on_c, 9, 35, 89
11, 26872, Note_on_c, 9, 63, 74
11, 26872, Note_on_c, 9, 59, 34
11, 26916, Note_off_c, 9, 35, 0
11, 26916, Note_off_c, 9, 63, 0
11, 26916, Note_off_c, 9, 59, 0
11, 26936, Note_off_c, 9, 44, 0
11, 26964, Note_on_c, 9, 44, 36
11, 27028, Note_off_c, 9, 44, 0
11, 27060, Note_on_c, 9, 44, 39
11, 27060, Note_on_c, 9, 68, 48
11, 27108, Note_off_c, 9, 68, 0
11, 27112, Note_off_c, 9, 44, 0
11, 27156, Note_on_c, 9, 44, 24
11, 27156, Note_on_c, 9, 35, 95
11, 27160, Note_on_c, 9, 61, 74
11, 27196, Note_off_c, 9, 35, 0
11, 27200, Note_off_c, 9, 44, 0
11, 27200, Note_off_c, 9, 61, 0
11, 27252, Note_on_c, 9, 44, 45
11, 27252, Note_on_c, 9, 35, 95
11, 27256, Note_on_c, 9, 63, 81
11, 27256, Note_on_c, 9, 59, 34
11, 27256, Note_on_c, 9, 41, 83
11, 27292, Note_off_c, 9, 35, 0
11, 27292, Note_off_c, 9, 63, 0
11, 27292, Note_off_c, 9, 59, 0
11, 27296, Note_off_c, 9, 41, 0
11, 27324, Note_off_c, 9, 44, 0
11, 27348, Note_on_c, 9, 44, 34
11, 27348, Note_on_c, 9, 68, 24
11, 27388, Note_off_c, 9, 68, 0
11, 27396, Note_off_c, 9, 44, 0
11, 27444, Note_on_c, 9, 44, 48
11, 27500, Note_off_c, 9, 44, 0
11, 27540, Note_on_c, 9, 44, 36
11, 27540, Note_on_c, 9, 68, 52
11, 27588, Note_off_c, 9, 44, 0
11, 27588, Note_off_c, 9, 68, 0
11, 27636, Note_on_c, 9, 44, 51
11, 27636, Note_on_c, 9, 35, 95
11, 27640, Note_on_c, 9, 63, 74
11, 27640, Note_on_c, 9, 59, 34
11, 27684, Note_off_c, 9, 35, 0
11, 27684, Note_off_c, 9, 59, 0
11, 27684, Note_off_c, 9, 63, 0
11, 27700, Note_off_c, 9, 44, 0
11, 27732, Note_on_c, 9, 44, 34
11, 27732, Note_on_c, 9, 63, 56
11, 27780, Note_off_c, 9, 63, 0
11, 27788, Note_off_c, 9, 44, 0
11, 27828, Note_on_c, 9, 44, 48
11, 27868, Note_off_c, 9, 44, 0
11, 27924, Note_on_c, 9, 44, 36
11, 27924, Note_on_c, 9, 35, 94
11, 27928, Note_on_c, 9, 68, 39
11, 27928, Note_on_c, 9, 61, 81
11, 27964, Note_off_c, 9, 35, 0
11, 27964, Note_off_c, 9, 68, 0
11, 27968, Note_off_c, 9, 44, 0
11, 27968, Note_off_c, 9, 61, 0
11, 28020, Note_on_c, 9, 44, 58
11, 28024, Note_on_c, 9, 35, 95
11, 28024, Note_on_c, 9, 63, 78
11, 28028, Note_on_c, 9, 59, 34
11, 28028, Note_on_c, 9, 41, 83
11, 28068, Note_off_c, 9, 35, 0
11, 28072, Note_off_c, 9, 63, 0
11, 28072, Note_off_c, 9, 59, 0
11, 28076, Note_off_c, 9, 41, 0
11, 28080, Note_off_c, 9, 44, 0
11, 28116, Note_on_c, 9, 44, 19
11, 28164, Note_off_c, 9, 44, 0
11, 28212, Note_on_c, 9, 44, 58
11, 28212, Note_on_c, 9, 68, 52
11, 28260, Note_off_c, 9, 44, 0
11, 28260, Note_off_c, 9, 68, 0
11, 28308, Note_on_c, 9, 44, 39
11, 28308, Note_on_c, 9, 68, 35
11, 28348, Note_off_c, 9, 68, 0
11, 28352, Note_off_c, 9, 44, 0
11, 28408, Note_on_c, 9, 44, 62
11, 28408, Note_on_c, 9, 63, 74
11, 28412, Note_on_c, 9, 35, 89
11, 28412, Note_on_c, 9, 59, 34
11, 28452, Note_off_c, 9, 63, 0
11, 28452, Note_off_c, 9, 35, 0
11, 28452, Note_off_c, 9, 59, 0
11, 28468, Note_off_c, 9, 44, 0
11, 28500, Note_on_c, 9, 44, 28
11, 28552, Note_off_c, 9, 44, 0
11, 28596, Note_on_c, 9, 44, 45
11, 28596, Note_on_c, 9, 68, 48
11, 28636, Note_off_c, 9, 68, 0
11, 28640, Note_off_c, 9, 44, 0
11, 28692, Note_on_c, 9, 44, 36
11, 28692, Note_on_c, 9, 61, 74
11, 28696, Note_on_c, 9, 35, 95
11, 28736, Note_off_c, 9, 35, 0
11, 28740, Note_off_c, 9, 61, 0
11, 28748, Note_off_c, 9, 44, 0
11, 28788, Note_on_c, 9, 44, 62
11, 28788, Note_on_c, 9, 63, 81
11, 28792, Note_on_c, 9, 35, 95
11, 28792, Note_on_c, 9, 59, 34
11, 28792, Note_on_c, 9, 41, 83
11, 28828, Note_off_c, 9, 63, 0
11, 28832, Note_off_c, 9, 35, 0
11, 28832, Note_off_c, 9, 59, 0
11, 28832, Note_off_c, 9, 41, 0
11, 28848, Note_off_c, 9, 44, 0
11, 28884, Note_on_c, 9, 44, 34
11, 28884, Note_on_c, 9, 68, 24
11, 28928, Note_off_c, 9, 68, 0
11, 28940, Note_off_c, 9, 44, 0
11, 28980, Note_on_c, 9, 44, 48
11, 29024, Note_off_c, 9, 44, 0
11, 29076, Note_on_c, 9, 44, 28
11, 29080, Note_on_c, 9, 68, 52
11, 29124, Note_off_c, 9, 68, 0
11, 29132, Note_off_c, 9, 44, 0
11, 29172, Note_on_c, 9, 44, 62
11, 29176, Note_on_c, 9, 35, 95
11, 29176, Note_on_c, 9, 63, 74
11, 29176, Note_on_c, 9, 59, 34
11, 29212, Note_off_c, 9, 35, 0
11, 29216, Note_off_c, 9, 59, 0
11, 29216, Note_off_c, 9, 63, 0
11, 29228, Note_off_c, 9, 44, 0
11, 29268, Note_on_c, 9, 44, 45
11, 29268, Note_on_c, 9, 63, 56
11, 29308, Note_off_c, 9, 63, 0
11, 29340, Note_off_c, 9, 44, 0
11, 29364, Note_on_c, 9, 44, 45
11, 29412, Note_off_c, 9, 44, 0
11, 29464, Note_on_c, 9, 44, 27
11, 29468, Note_on_c, 9, 35, 94
11, 29468, Note_on_c, 9, 68, 39
11, 29468, Note_on_c, 9, 61, 81
11, 29500, Note_off_c, 9, 35, 0
11, 29504, Note_off_c, 9, 68, 0
11, 29508, Note_off_c, 9, 61, 0
11, 29516, Note_off_c, 9, 44, 0
11, 29556, Note_on_c, 9, 44, 62
11, 29556, Note_on_c, 9, 35, 95
11, 29560, Note_on_c, 9, 63, 78
11, 29560, Note_on_c, 9, 59, 34
11, 29560, Note_on_c, 9, 41, 83
11, 29604, Note_off_c, 9, 35, 0
11, 29604, Note_off_c, 9, 63, 0
11, 29604, Note_off_c, 9, 59, 0
11, 29608, Note_off_c, 9, 41, 0
11, 29624, Note_off_c, 9, 44, 0
11, 29652, Note_on_c, 9, 44, 36
11, 29716, Note_off_c, 9, 44, 0
11, 29748, Note_on_c, 9, 44, 45
11, 29748, Note_on_c, 9, 68, 52
11, 29792, Note_off_c, 9, 68, 0
11, 29796, Note_off_c, 9, 44, 0
11, 29844, Note_on_c, 9, 44, 39
11, 29844, Note_on_c, 9, 68, 35
11, 29884, Note_off_c, 9, 68, 0
11, 29908, Note_off_c, 9, 44, 0
11, 29940, Note_on_c, 9, 44, 51
11, 29940, Note_on_c, 9, 63, 74
11, 29944, Note_on_c, 9, 35, 89
11, 29944, Note_on_c, 9, 59, 34
11, 29980, Note_off_c, 9, 63, 0
11, 29980, Note_off_c, 9, 35, 0
11, 29984, Note_off_c, 9, 59, 0
11, 30004, Note_off_c, 9, 44, 0
11, 30036, Note_on_c, 9, 44, 27
11, 30088, Note_off_c, 9, 44, 0
11, 30132, Note_on_c, 9, 44, 45
11, 30132, Note_on_c, 9, 68, 48
11, 30172, Note_off_c, 9, 68, 0
11, 30180, Note_off_c, 9, 44, 0
11, 30228, Note_on_c, 9, 44, 28
11, 30228, Note_on_c, 9, 35, 95
11, 30232, Note_on_c, 9, 61, 74
11, 30268, Note_off_c, 9, 35, 0
11, 30268, Note_off_c, 9, 61, 0
11, 30272, Note_off_c, 9, 44, 0
11, 30324, Note_on_c, 9, 44, 51
11, 30324, Note_on_c, 9, 35, 95
11, 30328, Note_on_c, 9, 63, 81
11, 30328, Note_on_c, 9, 59, 34
11, 30328, Note_on_c, 9, 41, 83
11, 30364, Note_off_c, 9, 35, 0
11, 30368, Note_off_c, 9, 63, 0
11, 30368, Note_off_c, 9, 59, 0
11, 30368, Note_off_c, 9, 41, 0
11, 30392, Note_off_c, 9, 44, 0
11, 30420, Note_on_c, 9, 44, 36
11, 30420, Note_on_c, 9, 68, 24
11, 30468, Note_off_c, 9, 68, 0
11, 30472, Note_off_c, 9, 44, 0
11, 30516, Note_on_c, 9, 44, 45
11, 30568, Note_off_c, 9, 44, 0
11, 30612, Note_on_c, 9, 44, 36
11, 30612, Note_on_c, 9, 68, 52
11, 30652, Note_off_c, 9, 68, 0
11, 30672, Note_off_c, 9, 44, 0
11, 30708, Note_on_c, 9, 44, 45
11, 30708, Note_on_c, 9, 35, 95
11, 30712, Note_on_c, 9, 63, 74
11, 30712, Note_on_c, 9, 59, 34
11, 30756, Note_off_c, 9, 35, 0
11, 30760, Note_off_c, 9, 59, 0
11, 30760, Note_off_c, 9, 63, 0
11, 30780, Note_off_c, 9, 44, 0
11, 30804, Note_on_c, 9, 44, 39
11, 30804, Note_on_c, 9, 63, 56
11, 30844, Note_off_c, 9, 63, 0
11, 30856, Note_off_c, 9, 44, 0
11, 30900, Note_on_c, 9, 44, 48
11, 30952, Note_off_c, 9, 44, 0
11, 30996, Note_on_c, 9, 44, 36
11, 30996, Note_on_c, 9, 35, 94
11, 31000, Note_on_c, 9, 68, 39
11, 31000, Note_on_c, 9, 61, 81
11, 31036, Note_off_c, 9, 35, 0
11, 31040, Note_off_c, 9, 68, 0
11, 31044, Note_off_c, 9, 61, 0
11, 31052, Note_off_c, 9, 44, 0
11, 31092, Note_on_c, 9, 44, 62
11, 31092, Note_on_c, 9, 63, 78
11, 31096, Note_on_c, 9, 35, 95
11, 31096, Note_on_c, 9, 59, 34
11, 31096, Note_on_c, 9, 41, 83
11, 31136, Note_off_c, 9, 63, 0
11, 31136, Note_off_c, 9, 35, 0
11, 31136, Note_off_c, 9, 59, 0
11, 31144, Note_off_c, 9, 41, 0
11, 31156, Note_off_c, 9, 44, 0
11, 31188, Note_on_c, 9, 44, 31
11, 31244, Note_off_c, 9, 44, 0
11, 31284, Note_on_c, 9, 44, 45
11, 31284, Note_on_c, 9, 68, 52
11, 31324, Note_off_c, 9, 68, 0
11, 31336, Note_off_c, 9, 44, 0
11, 31380, Note_on_c, 9, 44, 36
11, 31380, Note_on_c, 9, 68, 35
11, 31424, Note_off_c, 9, 68, 0
11, 31436, Note_off_c, 9, 44, 0
11, 31476, Note_on_c, 9, 44, 51
11, 31480, Note_on_c, 9, 35, 89
11, 31480, Note_on_c, 9, 63, 74
11, 31484, Note_on_c, 9, 59, 34
11, 31516, Note_off_c, 9, 35, 0
11, 31520, Note_off_c, 9, 63, 0
11, 31520, Note_off_c, 9, 59, 0
11, 31548, Note_off_c, 9, 44, 0
11, 31572, Note_on_c, 9, 44, 39
11, 31640, Note_off_c, 9, 44, 0
11, 31668, Note_on_c, 9, 44, 39
11, 31672, Note_on_c, 9, 68, 48
11, 31708, Note_off_c, 9, 68, 0
11, 31716, Note_off_c, 9, 44, 0
11, 31764, Note_on_c, 9, 44, 36
11, 31764, Note_on_c, 9, 61, 74
11, 31768, Note_on_c, 9, 35, 95
11, 31804, Note_off_c, 9, 61, 0
11, 31804, Note_off_c, 9, 35, 0
11, 31816, Note_off_c, 9, 44, 0
11, 31860, Note_on_c, 9, 44, 54
11, 31860, Note_on_c, 9, 63, 81
11, 31864, Note_on_c, 9, 35, 95
11, 31864, Note_on_c, 9, 41, 83
11, 31864, Note_on_c, 9, 59, 34
11, 31900, Note_off_c, 9, 63, 0
11, 31904, Note_off_c, 9, 41, 0
11, 31908, Note_off_c, 9, 35, 0
11, 31908, Note_off_c, 9, 59, 0
11, 31932, Note_off_c, 9, 44, 0
11, 31956, Note_on_c, 9, 44, 28
11, 31956, Note_on_c, 9, 68, 24
11, 31996, Note_off_c, 9, 68, 0
11, 32012, Note_off_c, 9, 44, 0
11, 32052, Note_on_c, 9, 44, 45
11, 32100, Note_off_c, 9, 44, 0
11, 32148, Note_on_c, 9, 44, 31
11, 32148, Note_on_c, 9, 68, 52
11, 32188, Note_off_c, 9, 68, 0
11, 32212, Note_off_c, 9, 44, 0
11, 32244, Note_on_c, 9, 44, 48
11, 32244, Note_on_c, 9, 63, 74
11, 32248, Note_on_c, 9, 35, 95
11, 32248, Note_on_c, 9, 59, 34
11, 32292, Note_off_c, 9, 35, 0
11, 32292, Note_off_c, 9, 59, 0
11, 32292, Note_off_c, 9, 63, 0
11, 32312, Note_off_c, 9, 44, 0
11, 32340, Note_on_c, 9, 44, 36
11, 32340, Note_on_c, 9, 63, 56
11, 32380, Note_off_c, 9, 63, 0
11, 32412, Note_off_c, 9, 44, 0
11, 32436, Note_on_c, 9, 44, 48
11, 32488, Note_off_c, 9, 44, 0
11, 32532, Note_on_c, 9, 44, 34
11, 32532, Note_on_c, 9, 35, 94
11, 32540, Note_on_c, 9, 61, 81
11, 32540, Note_on_c, 9, 68, 39
11, 32580, Note_off_c, 9, 35, 0
11, 32580, Note_off_c, 9, 61, 0
11, 32580, Note_off_c, 9, 68, 0
11, 32588, Note_off_c, 9, 44, 0
11, 32628, Note_on_c, 9, 44, 58
11, 32628, Note_on_c, 9, 35, 95
11, 32628, Note_on_c, 9, 63, 78
11, 32632, Note_on_c, 9, 59, 34
11, 32632, Note_on_c, 9, 41, 83
11, 32668, Note_off_c, 9, 35, 0
11, 32672, Note_off_c, 9, 59, 0
11, 32676, Note_off_c, 9, 63, 0
11, 32676, Note_off_c, 9, 41, 0
11, 32700, Note_off_c, 9, 44, 0
11, 32724, Note_on_c, 9, 44, 36
11, 32772, Note_off_c, 9, 44, 0
11, 32820, Note_on_c, 9, 44, 42
11, 32820, Note_on_c, 9, 68, 52
11, 32860, Note_off_c, 9, 68, 0
11, 32876, Note_off_c, 9, 44, 0
11, 32920, Note_on_c, 9, 44, 45
11, 32920, Note_on_c, 9, 68, 35
11, 32960, Note_off_c, 9, 68, 0
11, 32980, Note_off_c, 9, 44, 0
11, 33012, Note_on_c, 9, 44, 48
11, 33012, Note_on_c, 9, 35, 89
11, 33016, Note_on_c, 9, 63, 74
11, 33016, Note_on_c, 9, 59, 34
11, 33052, Note_off_c, 9, 35, 0
11, 33056, Note_off_c, 9, 63, 0
11, 33056, Note_off_c, 9, 59, 0
11, 33080, Note_off_c, 9, 44, 0
11, 33104, Note_on_c, 9, 44, 22
11, 33160, Note_off_c, 9, 44, 0
11, 33204, Note_on_c, 9, 44, 42
11, 33204, Note_on_c, 9, 68, 48
11, 33252, Note_off_c, 9, 44, 0
11, 33252, Note_off_c, 9, 68, 0
11, 33300, Note_on_c, 9, 44, 42
11, 33304, Note_on_c, 9, 61, 74
11, 33304, Note_on_c, 9, 35, 95
11, 33340, Note_off_c, 9, 61, 0
11, 33344, Note_off_c, 9, 35, 0
11, 33356, Note_off_c, 9, 44, 0
11, 33396, Note_on_c, 9, 44, 54
11, 33396, Note_on_c, 9, 63, 81
11, 33400, Note_on_c, 9, 35, 95
11, 33400, Note_on_c, 9, 59, 34
11, 33400, Note_on_c, 9, 41, 83
11, 33444, Note_off_c, 9, 63, 0
11, 33444, Note_off_c, 9, 35, 0
11, 33444, Note_off_c, 9, 59, 0
11, 33448, Note_off_c, 9, 41, 0
11, 33464, Note_off_c, 9, 44, 0
11, 33492, Note_on_c, 9, 44, 42
11, 33492, Note_on_c, 9, 68, 24
11, 33532, Note_off_c, 9, 68, 0
11, 33556, Note_off_c, 9, 44, 0
11, 33588, Note_on_c, 9, 44, 45
11, 33644, Note_off_c, 9, 44, 0
11, 33684, Note_on_c, 9, 44, 31
11, 33684, Note_on_c, 9, 68, 52
11, 33724, Note_off_c, 9, 68, 0
11, 33736, Note_off_c, 9, 44, 0
11, 33780, Note_on_c, 9, 44, 54
11, 33780, Note_on_c, 9, 63, 74
11, 33784, Note_on_c, 9, 35, 89
11, 33784, Note_on_c, 9, 59, 34
11, 33820, Note_off_c, 9, 35, 0
11, 33820, Note_off_c, 9, 63, 0
11, 33824, Note_off_c, 9, 59, 0
11, 33840, Note_off_c, 9, 44, 0
11, 33876, Note_on_c, 9, 44, 31
11, 33940, Note_off_c, 9, 44, 0
11, 33972, Note_on_c, 9, 44, 48
11, 33976, Note_on_c, 9, 68, 48
11, 34012, Note_off_c, 9, 68, 0
11, 34020, Note_off_c, 9, 44, 0
11, 34068, Note_on_c, 9, 44, 39
11, 34068, Note_on_c, 9, 61, 74
11, 34072, Note_on_c, 9, 35, 95
11, 34116, Note_off_c, 9, 61, 0
11, 34116, Note_off_c, 9, 35, 0
11, 34132, Note_off_c, 9, 44, 0
11, 34164, Note_on_c, 9, 44, 51
11, 34164, Note_on_c, 9, 63, 81
11, 34168, Note_on_c, 9, 35, 95
11, 34168, Note_on_c, 9, 41, 83
11, 34168, Note_on_c, 9, 59, 34
11, 34204, Note_off_c, 9, 63, 0
11, 34208, Note_off_c, 9, 41, 0
11, 34212, Note_off_c, 9, 35, 0
11, 34212, Note_off_c, 9, 59, 0
11, 34236, Note_off_c, 9, 44, 0
11, 34260, Note_on_c, 9, 44, 34
11, 34260, Note_on_c, 9, 68, 24
11, 34308, Note_off_c, 9, 68, 0
11, 34324, Note_off_c, 9, 44, 0
11, 34356, Note_on_c, 9, 44, 42
11, 34408, Note_off_c, 9, 44, 0
11, 34452, Note_on_c, 9, 44, 34
11, 34452, Note_on_c, 9, 68, 52
11, 34492, Note_off_c, 9, 68, 0
11, 34504, Note_off_c, 9, 44, 0
11, 34548, Note_on_c, 9, 44, 48
11, 34548, Note_on_c, 9, 63, 74
11, 34552, Note_on_c, 9, 35, 95
11, 34552, Note_on_c, 9, 59, 34
11, 34596, Note_off_c, 9, 63, 0
11, 34596, Note_off_c, 9, 35, 0
11, 34596, Note_off_c, 9, 59, 0
11, 34616, Note_off_c, 9, 44, 0
11, 34644, Note_on_c, 9, 44, 36
11, 34644, Note_on_c, 9, 63, 56
11, 34684, Note_off_c, 9, 63, 0
11, 34704, Note_off_c, 9, 44, 0
11, 34740, Note_on_c, 9, 44, 45
11, 34796, Note_off_c, 9, 44, 0
11, 34836, Note_on_c, 9, 44, 34
11, 34836, Note_on_c, 9, 35, 94
11, 34840, Note_on_c, 9, 68, 39
11, 34840, Note_on_c, 9, 61, 81
11, 34876, Note_off_c, 9, 35, 0
11, 34880, Note_off_c, 9, 68, 0
11, 34880, Note_off_c, 9, 61, 0
11, 34892, Note_off_c, 9, 44, 0
11, 34932, Note_on_c, 9, 44, 51
11, 34932, Note_on_c, 9, 63, 78
11, 34936, Note_on_c, 9, 35, 95
11, 34936, Note_on_c, 9, 59, 34
11, 34936, Note_on_c, 9, 41, 83
11, 34980, Note_off_c, 9, 63, 0
11, 34980, Note_off_c, 9, 35, 0
11, 34980, Note_off_c, 9, 59, 0
11, 34984, Note_off_c, 9, 41, 0
11, 34996, Note_off_c, 9, 44, 0
11, 35028, Note_on_c, 9, 44, 36
11, 35084, Note_off_c, 9, 44, 0
11, 35124, Note_on_c, 9, 44, 48
11, 35124, Note_on_c, 9, 68, 52
11, 35164, Note_off_c, 9, 68, 0
11, 35180, Note_off_c, 9, 44, 0
11, 35220, Note_on_c, 9, 44, 28
11, 35220, Note_on_c, 9, 68, 35
11, 35264, Note_off_c, 9, 68, 0
11, 35276, Note_off_c, 9, 44, 0
11, 35316, Note_on_c, 9, 44, 54
11, 35316, Note_on_c, 9, 35, 89
11, 35320, Note_on_c, 9, 63, 74
11, 35320, Note_on_c, 9, 59, 34
11, 35356, Note_off_c, 9, 35, 0
11, 35360, Note_off_c, 9, 59, 0
11, 35360, Note_off_c, 9, 63, 0
11, 35380, Note_off_c, 9, 44, 0
11, 35412, Note_on_c, 9, 44, 27
11, 35468, Note_off_c, 9, 44, 0
11, 35508, Note_on_c, 9, 44, 45
11, 35508, Note_on_c, 9, 68, 48
11, 35548, Note_off_c, 9, 68, 0
11, 35552, Note_off_c, 9, 44, 0
11, 35604, Note_on_c, 9, 44, 28
11, 35604, Note_on_c, 9, 35, 95
11, 35608, Note_on_c, 9, 61, 74
11, 35652, Note_off_c, 9, 35, 0
11, 35652, Note_off_c, 9, 61, 0
11, 35660, Note_off_c, 9, 44, 0
11, 35700, Note_on_c, 9, 44, 51
11, 35700, Note_on_c, 9, 63, 81
11, 35704, Note_on_c, 9, 35, 95
11, 35704, Note_on_c, 9, 59, 34
11, 35704, Note_on_c, 9, 41, 83
11, 35740, Note_off_c, 9, 63, 0
11, 35748, Note_off_c, 9, 35, 0
11, 35748, Note_off_c, 9, 59, 0
11, 35748, Note_off_c, 9, 41, 0
11, 35768, Note_off_c, 9, 44, 0
11, 35796, Note_on_c, 9, 44, 31
11, 35796, Note_on_c, 9, 68, 24
11, 35836, Note_off_c, 9, 68, 0
11, 35852, Note_off_c, 9, 44, 0
11, 35892, Note_on_c, 9, 44, 48
11, 35948, Note_off_c, 9, 44, 0
11, 35988, Note_on_c, 9, 44, 28
11, 35988, Note_on_c, 9, 68, 52
11, 36028, Note_off_c, 9, 68, 0
11, 36044, Note_off_c, 9, 44, 0
11, 36084, Note_on_c, 9, 44, 45
11, 36084, Note_on_c, 9, 35, 95
11, 36088, Note_on_c, 9, 63, 74
11, 36088, Note_on_c, 9, 59, 34
11, 36132, Note_off_c, 9, 35, 0
11, 36132, Note_off_c, 9, 63, 0
11, 36132, Note_off_c, 9, 59, 0
11, 36152, Note_off_c, 9, 44, 0
11, 36180, Note_on_c, 9, 44, 36
11, 36180, Note_on_c, 9, 63, 56
11, 36220, Note_off_c, 9, 63, 0
11, 36244, Note_off_c, 9, 44, 0
11, 36276, Note_on_c, 9, 44, 31
11, 36316, Note_off_c, 9, 44, 0
11, 36376, Note_on_c, 9, 44, 39
11, 36376, Note_on_c, 9, 35, 94
11, 36380, Note_on_c, 9, 68, 39
11, 36384, Note_on_c, 9, 61, 81
11, 36412, Note_off_c, 9, 35, 0
11, 36416, Note_off_c, 9, 68, 0
11, 36416, Note_off_c, 9, 61, 0
11, 36428, Note_off_c, 9, 44, 0
11, 36472, Note_on_c, 9, 44, 51
11, 36476, Note_on_c, 9, 63, 78
11, 36476, Note_on_c, 9, 35, 95
11, 36476, Note_on_c, 9, 59, 34
11, 36476, Note_on_c, 9, 41, 83
11, 36508, Note_off_c, 9, 63, 0
11, 36512, Note_off_c, 9, 59, 0
11, 36516, Note_off_c, 9, 35, 0
11, 36516, Note_off_c, 9, 41, 0
11, 36536, Note_off_c, 9, 44, 0
11, 36564, Note_on_c, 9, 44, 34
11, 36616, Note_off_c, 9, 44, 0
11, 36660, Note_on_c, 9, 44, 39
11, 36660, Note_on_c, 9, 68, 52
11, 36700, Note_off_c, 9, 68, 0
11, 36708, Note_off_c, 9, 44, 0
11, 36756, Note_on_c, 9, 44, 36
11, 36756, Note_on_c, 9, 68, 35
11, 36800, Note_off_c, 9, 68, 0
11, 36812, Note_off_c, 9, 44, 0
11, 36852, Note_on_c, 9, 44, 48
11, 36852, Note_on_c, 9, 35, 89
11, 36856, Note_on_c, 9, 63, 74
11, 36856, Note_on_c, 9, 59, 34
11, 36892, Note_off_c, 9, 35, 0
11, 36896, Note_off_c, 9, 59, 0
11, 36896, Note_off_c, 9, 63, 0
11, 36924, Note_off_c, 9, 44, 0
11, 36948, Note_on_c, 9, 44, 27
11, 37004, Note_off_c, 9, 44, 0
11, 37044, Note_on_c, 9, 44, 42
11, 37044, Note_on_c, 9, 68, 48
11, 37088, Note_off_c, 9, 68, 0
11, 37092, Note_off_c, 9, 44, 0
11, 37144, Note_on_c, 9, 44, 28
11, 37148, Note_on_c, 9, 35, 95
11, 37148, Note_on_c, 9, 61, 74
11, 37184, Note_off_c, 9, 61, 0
11, 37188, Note_off_c, 9, 44, 0
11, 37188, Note_off_c, 9, 35, 0
11, 37236, Note_on_c, 9, 44, 51
11, 37236, Note_on_c, 9, 35, 95
11, 37240, Note_on_c, 9, 63, 81
11, 37240, Note_on_c, 9, 41, 83
11, 37240, Note_on_c, 9, 59, 34
11, 37284, Note_off_c, 9, 35, 0
11, 37284, Note_off_c, 9, 63, 0
11, 37284, Note_off_c, 9, 41, 0
11, 37288, Note_off_c, 9, 59, 0
11, 37292, Note_off_c, 9, 44, 0
11, 37332, Note_on_c, 9, 44, 45
11, 37332, Note_on_c, 9, 68, 24
11, 37372, Note_off_c, 9, 68, 0
11, 37388, Note_off_c, 9, 44, 0
11, 37428, Note_on_c, 9, 44, 48
11, 37484, Note_off_c, 9, 44, 0
11, 37524, Note_on_c, 9, 44, 36
11, 37524, Note_on_c, 9, 68, 52
11, 37564, Note_off_c, 9, 68, 0
11, 37576, Note_off_c, 9, 44, 0
11, 37620, Note_on_c, 9, 44, 45
11, 37620, Note_on_c, 9, 35, 95
11, 37624, Note_on_c, 9, 63, 74
11, 37624, Note_on_c, 9, 59, 34
11, 37660, Note_off_c, 9, 35, 0
11, 37660, Note_off_c, 9, 63, 0
11, 37664, Note_off_c, 9, 59, 0
11, 37680, Note_off_c, 9, 44, 0
11, 37716, Note_on_c, 9, 44, 31
11, 37716, Note_on_c, 9, 63, 56
11, 37760, Note_off_c, 9, 63, 0
11, 37780, Note_off_c, 9, 44, 0
11, 37812, Note_on_c, 9, 44, 45
11, 37864, Note_off_c, 9, 44, 0
11, 37908, Note_on_c, 9, 44, 36
11, 37916, Note_on_c, 9, 68, 39
11, 37916, Note_on_c, 9, 61, 81
11, 37916, Note_on_c, 9, 35, 94
11, 37956, Note_off_c, 9, 68, 0
11, 37956, Note_off_c, 9, 61, 0
11, 37956, Note_off_c, 9, 35, 0
11, 37964, Note_off_c, 9, 44, 0
11, 38004, Note_on_c, 9, 44, 48
11, 38004, Note_on_c, 9, 63, 78
11, 38008, Note_on_c, 9, 35, 95
11, 38008, Note_on_c, 9, 41, 83
11, 38008, Note_on_c, 9, 59, 34
11, 38044, Note_off_c, 9, 63, 0
11, 38048, Note_off_c, 9, 35, 0
11, 38048, Note_off_c, 9, 41, 0
11, 38052, Note_off_c, 9, 59, 0
11, 38068, Note_off_c, 9, 44, 0
11, 38100, Note_on_c, 9, 44, 39
11, 38152, Note_off_c, 9, 44, 0
11, 38196, Note_on_c, 9, 44, 39
11, 38196, Note_on_c, 9, 68, 52
11, 38236, Note_off_c, 9, 68, 0
11, 38240, Note_off_c, 9, 44, 0
11, 38292, Note_on_c, 9, 44, 31
11, 38292, Note_on_c, 9, 68, 35
11, 38332, Note_off_c, 9, 68, 0
11, 38344, Note_off_c, 9, 44, 0
11, 38388, Note_on_c, 9, 44, 48
11, 38388, Note_on_c, 9, 63, 74
11, 38396, Note_on_c, 9, 35, 89
11, 38396, Note_on_c, 9, 59, 34
11, 38432, Note_off_c, 9, 35, 0
11, 38432, Note_off_c, 9, 59, 0
11, 38432, Note_off_c, 9, 63, 0
11, 38440, Note_off_c, 9, 44, 0
11, 38484, Note_on_c, 9, 44, 45
11, 38548, Note_off_c, 9, 44, 0
11, 38580, Note_on_c, 9, 44, 51
11, 38580, Note_on_c, 9, 68, 48
11, 38624, Note_off_c, 9, 68, 0
11, 38636, Note_off_c, 9, 44, 0
11, 38676, Note_on_c, 9, 44, 45
11, 38676, Note_on_c, 9, 35, 95
11, 38680, Note_on_c, 9, 61, 74
11, 38716, Note_off_c, 9, 35, 0
11, 38720, Note_off_c, 9, 61, 0
11, 38732, Note_off_c, 9, 44, 0
11, 38772, Note_on_c, 9, 44, 54
11, 38772, Note_on_c, 9, 35, 95
11, 38776, Note_on_c, 9, 63, 81
11, 38776, Note_on_c, 9, 59, 34
11, 38776, Note_on_c, 9, 41, 83
11, 38820, Note_off_c, 9, 35, 0
11, 38820, Note_off_c, 9, 63, 0
11, 38820, Note_off_c, 9, 59, 0
11, 38820, Note_off_c, 9, 41, 0
11, 38836, Note_off_c, 9, 44, 0
11, 38868, Note_on_c, 9, 44, 31
11, 38868, Note_on_c, 9, 68, 24
11, 38908, Note_off_c, 9, 68, 0
11, 38920, Note_off_c, 9, 44, 0
11, 38964, Note_on_c, 9, 44, 45
11, 39020, Note_off_c, 9, 44, 0
11, 39060, Note_on_c, 9, 44, 39
11, 39060, Note_on_c, 9, 68, 52
11, 39100, Note_off_c, 9, 68, 0
11, 39124, Note_off_c, 9, 44, 0
11, 39160, Note_on_c, 9, 44, 45
11, 39160, Note_on_c, 9, 63, 74
11, 39164, Note_on_c, 9, 35, 95
11, 39168, Note_on_c, 9, 59, 34
11, 39196, Note_off_c, 9, 63, 0
11, 39200, Note_off_c, 9, 35, 0
11, 39200, Note_off_c, 9, 59, 0
11, 39224, Note_off_c, 9, 44, 0
11, 39252, Note_on_c, 9, 44, 45
11, 39252, Note_on_c, 9, 63, 56
11, 39300, Note_off_c, 9, 63, 0
11, 39320, Note_off_c, 9, 44, 0
11, 39348, Note_on_c, 9, 44, 48
11, 39404, Note_off_c, 9, 44, 0
11, 39444, Note_on_c, 9, 44, 42
11, 39444, Note_on_c, 9, 35, 94
11, 39448, Note_on_c, 9, 61, 81
11, 39448, Note_on_c, 9, 68, 39
11, 39492, Note_off_c, 9, 35, 0
11, 39492, Note_off_c, 9, 61, 0
11, 39492, Note_off_c, 9, 68, 0
11, 39500, Note_off_c, 9, 44, 0
11, 39540, Note_on_c, 9, 44, 51
11, 39544, Note_on_c, 9, 35, 95
11, 39544, Note_on_c, 9, 63, 78
11, 39548, Note_on_c, 9, 59, 34
11, 39548, Note_on_c, 9, 41, 83
11, 39580, Note_off_c, 9, 35, 0
11, 39584, Note_off_c, 9, 63, 0
11, 39584, Note_off_c, 9, 59, 0
11, 39588, Note_off_c, 9, 41, 0
11, 39608, Note_off_c, 9, 44, 0
11, 39636, Note_on_c, 9, 44, 36
11, 39692, Note_off_c, 9, 44, 0
11, 39732, Note_on_c, 9, 44, 42
11, 39732, Note_on_c, 9, 68, 52
11, 39780, Note_off_c, 9, 68, 0
11, 39788, Note_off_c, 9, 44, 0
11, 39828, Note_on_c, 9, 44, 39
11, 39832, Note_on_c, 9, 68, 35
11, 39868, Note_off_c, 9, 68, 0
11, 39892, Note_off_c, 9, 44, 0
11, 39924, Note_on_c, 9, 44, 48
11, 39924, Note_on_c, 9, 35, 89
11, 39932, Note_on_c, 9, 63, 74
11, 39932, Note_on_c, 9, 59, 34
11, 39972, Note_off_c, 9, 35, 0
11, 39972, Note_off_c, 9, 59, 0
11, 39972, Note_off_c, 9, 63, 0
11, 39984, Note_off_c, 9, 44, 0
11, 40020, Note_on_c, 9, 44, 36
11, 40076, Note_off_c, 9, 44, 0
11, 40116, Note_on_c, 9, 44, 48
11, 40116, Note_on_c, 9, 68, 48
11, 40164, Note_off_c, 9, 68, 0
11, 40172, Note_off_c, 9, 44, 0
11, 40212, Note_on_c, 9, 44, 39
11, 40212, Note_on_c, 9, 35, 95
11, 40212, Note_on_c, 9, 61, 74
11, 40252, Note_off_c, 9, 35, 0
11, 40256, Note_off_c, 9, 61, 0
11, 40280, Note_off_c, 9, 44, 0
11, 40308, Note_on_c, 9, 44, 51
11, 40308, Note_on_c, 9, 35, 95
11, 40312, Note_on_c, 9, 63, 81
11, 40312, Note_on_c, 9, 41, 83
11, 40316, Note_on_c, 9, 59, 34
11, 40348, Note_off_c, 9, 35, 0
11, 40352, Note_off_c, 9, 63, 0
11, 40352, Note_off_c, 9, 41, 0
11, 40356, Note_off_c, 9, 59, 0
11, 40372, Note_off_c, 9, 44, 0
11, 40404, Note_on_c, 9, 44, 36
11, 40404, Note_on_c, 9, 68, 24
11, 40448, Note_off_c, 9, 68, 0
11, 40464, Note_off_c, 9, 44, 0
11, 40500, Note_on_c, 9, 44, 48
11, 40556, Note_off_c, 9, 44, 0
11, 40596, Note_on_c, 9, 44, 42
11, 40596, Note_on_c, 9, 68, 52
11, 40640, Note_off_c, 9, 68, 0
11, 40668, Note_off_c, 9, 44, 0
11, 40692, Note_on_c, 9, 44, 45
11, 40692, Note_on_c, 9, 35, 89
11, 40696, Note_on_c, 9, 63, 74
11, 40696, Note_on_c, 9, 59, 34
11, 40732, Note_off_c, 9, 35, 0
11, 40736, Note_off_c, 9, 63, 0
11, 40736, Note_off_c, 9, 59, 0
11, 40760, Note_off_c, 9, 44, 0
11, 40788, Note_on_c, 9, 44, 28
11, 40844, Note_off_c, 9, 44, 0
11, 40884, Note_on_c, 9, 44, 36
11, 40884, Note_on_c, 9, 68, 48
11, 40924, Note_off_c, 9, 68, 0
11, 40936, Note_off_c, 9, 44, 0
11, 40980, Note_on_c, 9, 44, 34
11, 40980, Note_on_c, 9, 35, 95
11, 40984, Note_on_c, 9, 61, 74
11, 41028, Note_off_c, 9, 35, 0
11, 41028, Note_off_c, 9, 61, 0
11, 41040, Note_off_c, 9, 44, 0
11, 41076, Note_on_c, 9, 44, 51
11, 41076, Note_on_c, 9, 63, 81
11, 41080, Note_on_c, 9, 35, 95
11, 41080, Note_on_c, 9, 41, 83
11, 41080, Note_on_c, 9, 59, 34
11, 41124, Note_off_c, 9, 63, 0
11, 41124, Note_off_c, 9, 35, 0
11, 41124, Note_off_c, 9, 41, 0
11, 41128, Note_off_c, 9, 59, 0
11, 41140, Note_off_c, 9, 44, 0
11, 41172, Note_on_c, 9, 44, 42
11, 41172, Note_on_c, 9, 68, 24
11, 41212, Note_off_c, 9, 68, 0
11, 41236, Note_off_c, 9, 44, 0
11, 41268, Note_on_c, 9, 44, 48
11, 41324, Note_off_c, 9, 44, 0
11, 41364, Note_on_c, 9, 44, 36
11, 41364, Note_on_c, 9, 68, 52
11, 41404, Note_off_c, 9, 68, 0
11, 41420, Note_off_c, 9, 44, 0
11, 41464, Note_on_c, 9, 44, 51
11, 41464, Note_on_c, 9, 35, 95
11, 41464, Note_on_c, 9, 63, 74
11, 41468, Note_on_c, 9, 59, 34
11, 41500, Note_off_c, 9, 35, 0
11, 41500, Note_off_c, 9, 63, 0
11, 41504, Note_off_c, 9, 59, 0
11, 41528, Note_off_c, 9, 44, 0
11, 41556, Note_on_c, 9, 44, 42
11, 41556, Note_on_c, 9, 63, 56
11, 41604, Note_off_c, 9, 63, 0
11, 41628, Note_off_c, 9, 44, 0
11, 41652, Note_on_c, 9, 44, 39
11, 41708, Note_off_c, 9, 44, 0
11, 41748, Note_on_c, 9, 44, 31
11, 41748, Note_on_c, 9, 35, 94
11, 41752, Note_on_c, 9, 68, 39
11, 41752, Note_on_c, 9, 61, 81
11, 41796, Note_off_c, 9, 35, 0
11, 41796, Note_off_c, 9, 68, 0
11, 41796, Note_off_c, 9, 61, 0
11, 41804, Note_off_c, 9, 44, 0
11, 41844, Note_on_c, 9, 44, 51
11, 41844, Note_on_c, 9, 35, 95
11, 41848, Note_on_c, 9, 63, 78
11, 41848, Note_on_c, 9, 59, 34
11, 41852, Note_on_c, 9, 41, 83
11, 41884, Note_off_c, 9, 35, 0
11, 41888, Note_off_c, 9, 63, 0
11, 41888, Note_off_c, 9, 59, 0
11, 41892, Note_off_c, 9, 41, 0
11, 41908, Note_off_c, 9, 44, 0
11, 41940, Note_on_c, 9, 44, 42
11, 42012, Note_off_c, 9, 44, 0
11, 42036, Note_on_c, 9, 44, 48
11, 42036, Note_on_c, 9, 68, 52
11, 42076, Note_off_c, 9, 68, 0
11, 42092, Note_off_c, 9, 44, 0
11, 42132, Note_on_c, 9, 44, 36
11, 42132, Note_on_c, 9, 68, 35
11, 42172, Note_off_c, 9, 68, 0
11, 42196, Note_off_c, 9, 44, 0
11, 42228, Note_on_c, 9, 44, 51
11, 42228, Note_on_c, 9, 35, 89
11, 42232, Note_on_c, 9, 63, 74
11, 42232, Note_on_c, 9, 59, 34
11, 42276, Note_off_c, 9, 35, 0
11, 42276, Note_off_c, 9, 63, 0
11, 42276, Note_off_c, 9, 59, 0
11, 42300, Note_off_c, 9, 44, 0
11, 42324, Note_on_c, 9, 44, 42
11, 42396, Note_off_c, 9, 44, 0
11, 42420, Note_on_c, 9, 44, 48
11, 42420, Note_on_c, 9, 68, 48
11, 42468, Note_off_c, 9, 68, 0
11, 42476, Note_off_c, 9, 44, 0
11, 42520, Note_on_c, 9, 44, 27
11, 42520, Note_on_c, 9, 35, 95
11, 42524, Note_on_c, 9, 61, 74
11, 42556, Note_off_c, 9, 35, 0
11, 42560, Note_off_c, 9, 61, 0
11, 42564, Note_off_c, 9, 44, 0
11, 42612, Note_on_c, 9, 44, 58
11, 42612, Note_on_c, 9, 35, 95
11, 42616, Note_on_c, 9, 63, 81
11, 42616, Note_on_c, 9, 59, 34
11, 42616, Note_on_c, 9, 41, 83
11, 42660, Note_off_c, 9, 35, 0
11, 42660, Note_off_c, 9, 63, 0
11, 42660, Note_off_c, 9, 59, 0
11, 42664, Note_off_c, 9, 41, 0
11, 42672, Note_off_c, 9, 44, 0
11, 42708, Note_on_c, 9, 44, 42
11, 42708, Note_on_c, 9, 68, 24
11, 42748, Note_off_c, 9, 68, 0
11, 42776, Note_off_c, 9, 44, 0
11, 42804, Note_on_c, 9, 44, 51
11, 42868, Note_off_c, 9, 44, 0
11, 42900, Note_on_c, 9, 44, 31
11, 42900, Note_on_c, 9, 68, 52
11, 42944, Note_off_c, 9, 68, 0
11, 42956, Note_off_c, 9, 44, 0
11, 43004, Note_on_c, 9, 44, 51
11, 43004, Note_on_c, 9, 35, 95
11, 43008, Note_on_c, 9, 63, 74
11, 43008, Note_on_c, 9, 59, 34
11, 43036, Note_off_c, 9, 35, 0
11, 43040, Note_off_c, 9, 63, 0
11, 43040, Note_off_c, 9, 59, 0
11, 43064, Note_off_c, 9, 44, 0
11, 43092, Note_on_c, 9, 44, 36
11, 43092, Note_on_c, 9, 63, 56
11, 43140, Note_off_c, 9, 63, 0
11, 43160, Note_off_c, 9, 44, 0
11, 43188, Note_on_c, 9, 44, 45
11, 43244, Note_off_c, 9, 44, 0
11, 43284, Note_on_c, 9, 44, 39
11, 43284, Note_on_c, 9, 35, 94
11, 43288, Note_on_c, 9, 68, 39
11, 43288, Note_on_c, 9, 61, 81
11, 43332, Note_off_c, 9, 35, 0
11, 43332, Note_off_c, 9, 68, 0
11, 43332, Note_off_c, 9, 61, 0
11, 43348, Note_off_c, 9, 44, 0
11, 43380, Note_on_c, 9, 44, 62
11, 43380, Note_on_c, 9, 35, 95
11, 43384, Note_on_c, 9, 63, 78
11, 43384, Note_on_c, 9, 41, 83
11, 43384, Note_on_c, 9, 59, 34
11, 43420, Note_off_c, 9, 35, 0
11, 43424, Note_off_c, 9, 63, 0
11, 43424, Note_off_c, 9, 41, 0
11, 43428, Note_off_c, 9, 59, 0
11, 43452, Note_off_c, 9, 44, 0
11, 43476, Note_on_c, 9, 44, 39
11, 43532, Note_off_c, 9, 44, 0
11, 43572, Note_on_c, 9, 44, 48
11, 43572, Note_on_c, 9, 68, 52
11, 43620, Note_off_c, 9, 44, 0
11, 43620, Note_off_c, 9, 68, 0
11, 43668, Note_on_c, 9, 44, 36
11, 43668, Note_on_c, 9, 68, 35
11, 43708, Note_off_c, 9, 68, 0
11, 43720, Note_off_c, 9, 44, 0
11, 43764, Note_on_c, 9, 44, 51
11, 43764, Note_on_c, 9, 63, 74
11, 43768, Note_on_c, 9, 35, 89
11, 43768, Note_on_c, 9, 59, 34
11, 43808, Note_off_c, 9, 63, 0
11, 43816, Note_off_c, 9, 35, 0
11, 43816, Note_off_c, 9, 59, 0
11, 43832, Note_off_c, 9, 44, 0
11, 43860, Note_on_c, 9, 44, 34
11, 43924, Note_off_c, 9, 44, 0
11, 43956, Note_on_c, 9, 44, 45
11, 43956, Note_on_c, 9, 68, 48
11, 44004, Note_off_c, 9, 68, 0
11, 44008, Note_off_c, 9, 44, 0
11, 44052, Note_on_c, 9, 44, 31
11, 44052, Note_on_c, 9, 61, 74
11, 44056, Note_on_c, 9, 35, 95
11, 44092, Note_off_c, 9, 61, 0
11, 44096, Note_off_c, 9, 35, 0
11, 44108, Note_off_c, 9, 44, 0
11, 44148, Note_on_c, 9, 44, 62
11, 44148, Note_on_c, 9, 35, 95
11, 44148, Note_on_c, 9, 63, 81
11, 44152, Note_on_c, 9, 59, 34
11, 44152, Note_on_c, 9, 41, 83
11, 44188, Note_off_c, 9, 35, 0
11, 44192, Note_off_c, 9, 63, 0
11, 44192, Note_off_c, 9, 59, 0
11, 44196, Note_off_c, 9, 41, 0
11, 44212, Note_off_c, 9, 44, 0
11, 44244, Note_on_c, 9, 44, 36
11, 44244, Note_on_c, 9, 68, 24
11, 44288, Note_off_c, 9, 68, 0
11, 44308, Note_off_c, 9, 44, 0
11, 44340, Note_on_c, 9, 44, 45
11, 44396, Note_off_c, 9, 44, 0
11, 44436, Note_on_c, 9, 44, 42
11, 44436, Note_on_c, 9, 68, 52
11, 44484, Note_off_c, 9, 68, 0
11, 44492, Note_off_c, 9, 44, 0
11, 44532, Note_on_c, 9, 44, 51
11, 44532, Note_on_c, 9, 63, 74
11, 44536, Note_on_c, 9, 35, 95
11, 44536, Note_on_c, 9, 59, 34
11, 44572, Note_off_c, 9, 63, 0
11, 44576, Note_off_c, 9, 35, 0
11, 44576, Note_off_c, 9, 59, 0
11, 44588, Note_off_c, 9, 44, 0
11, 44628, Note_on_c, 9, 44, 39
11, 44628, Note_on_c, 9, 63, 56
11, 44676, Note_off_c, 9, 63, 0
11, 44692, Note_off_c, 9, 44, 0
11, 44724, Note_on_c, 9, 44, 48
11, 44772, Note_off_c, 9, 44, 0
11, 44820, Note_on_c, 9, 44, 34
11, 44820, Note_on_c, 9, 35, 94
11, 44820, Note_on_c, 9, 68, 39
11, 44824, Note_on_c, 9, 61, 81
11, 44860, Note_off_c, 9, 35, 0
11, 44864, Note_off_c, 9, 68, 0
11, 44868, Note_off_c, 9, 61, 0
11, 44884, Note_off_c, 9, 44, 0
11, 44916, Note_on_c, 9, 44, 51
11, 44916, Note_on_c, 9, 35, 95
11, 44924, Note_on_c, 9, 63, 78
11, 44924, Note_on_c, 9, 41, 83
11, 44924, Note_on_c, 9, 59, 34
11, 44964, Note_off_c, 9, 35, 0
11, 44964, Note_off_c, 9, 63, 0
11, 44964, Note_off_c, 9, 41, 0
11, 44968, Note_off_c, 9, 59, 0
11, 44984, Note_off_c, 9, 44, 0
11, 45012, Note_on_c, 9, 44, 48
11, 45076, Note_off_c, 9, 44, 0
11, 45108, Note_on_c, 9, 44, 45
11, 45108, Note_on_c, 9, 68, 52
11, 45156, Note_off_c, 9, 68, 0
11, 45160, Note_off_c, 9, 44, 0
11, 45204, Note_on_c, 9, 44, 36
11, 45204, Note_on_c, 9, 68, 35
11, 45244, Note_off_c, 9, 68, 0
11, 45260, Note_off_c, 9, 44, 0
11, 45300, Note_on_c, 9, 44, 54
11, 45300, Note_on_c, 9, 35, 89
11, 45300, Note_on_c, 9, 63, 46
11, 45304, Note_on_c, 9, 59, 34
11, 45304, Note_on_c, 9, 91, 60
11, 45316, Note_off_c, 9, 91, 0
11, 45316, Note_on_c, 9, 91, 83
11, 45340, Note_off_c, 9, 35, 0
11, 45340, Note_off_c, 9, 63, 0
11, 45344, Note_off_c, 9, 59, 0
11, 45344, Note_off_c, 9, 91, 0
11, 45368, Note_off_c, 9, 44, 0
11, 45396, Note_on_c, 9, 44, 36
11, 45464, Note_off_c, 9, 44, 0
11, 45492, Note_on_c, 9, 44, 39
11, 45492, Note_on_c, 9, 68, 48
11, 45532, Note_off_c, 9, 68, 0
11, 45544, Note_off_c, 9, 44, 0
11, 45572, Note_on_c, 9, 89, 64
11, 45588, Note_on_c, 9, 44, 39
11, 45588, Note_on_c, 9, 35, 95
11, 45588, Note_on_c, 9, 61, 34
11, 45592, Note_off_c, 9, 89, 0
11, 45592, Note_on_c, 9, 89, 83
11, 45612, Note_off_c, 9, 89, 0
11, 45636, Note_off_c, 9, 35, 0
11, 45636, Note_off_c, 9, 61, 0
11, 45644, Note_off_c, 9, 44, 0
11, 45684, Note_on_c, 9, 44, 48
11, 45684, Note_on_c, 9, 35, 95
11, 45684, Note_on_c, 9, 63, 43
11, 45688, Note_on_c, 9, 59, 34
11, 45688, Note_on_c, 9, 41, 83
11, 45724, Note_off_c, 9, 35, 0
11, 45728, Note_off_c, 9, 63, 0
11, 45728, Note_off_c, 9, 59, 0
11, 45728, Note_off_c, 9, 41, 0
11, 45748, Note_off_c, 9, 44, 0
11, 45780, Note_on_c, 9, 44, 36
11, 45780, Note_on_c, 9, 68, 24
11, 45828, Note_off_c, 9, 68, 0
11, 45844, Note_off_c, 9, 44, 0
11, 45876, Note_on_c, 9, 44, 42
11, 45932, Note_off_c, 9, 44, 0
11, 45948, Note_on_c, 9, 89, 60
11, 45972, Note_off_c, 9, 89, 0
11, 45972, Note_on_c, 9, 44, 39
11, 45972, Note_on_c, 9, 68, 52
11, 45972, Note_on_c, 9, 89, 83
11, 45992, Note_off_c, 9, 89, 0
11, 46012, Note_off_c, 9, 68, 0
11, 46032, Note_off_c, 9, 44, 0
11, 46068, Note_on_c, 9, 44, 51
11, 46072, Note_on_c, 9, 63, 37
11, 46072, Note_on_c, 9, 35, 95
11, 46076, Note_on_c, 9, 59, 34
11, 46116, Note_off_c, 9, 35, 0
11, 46116, Note_off_c, 9, 59, 0
11, 46116, Note_off_c, 9, 63, 0
11, 46120, Note_off_c, 9, 44, 0
11, 46164, Note_on_c, 9, 44, 39
11, 46164, Note_on_c, 9, 63, 28
11, 46204, Note_off_c, 9, 63, 0
11, 46220, Note_off_c, 9, 44, 0
11, 46260, Note_on_c, 9, 44, 48
11, 46260, Note_on_c, 9, 88, 63
11, 46276, Note_off_c, 9, 88, 0
11, 46276, Note_on_c, 9, 88, 83
11, 46308, Note_off_c, 9, 88, 0
11, 46320, Note_off_c, 9, 44, 0
11, 46356, Note_on_c, 9, 44, 39
11, 46356, Note_on_c, 9, 61, 49
11, 46356, Note_on_c, 9, 35, 94
11, 46360, Note_on_c, 9, 68, 39
11, 46396, Note_off_c, 9, 61, 0
11, 46400, Note_off_c, 9, 35, 0
11, 46404, Note_off_c, 9, 68, 0
11, 46408, Note_off_c, 9, 44, 0
11, 46432, Note_on_c, 9, 89, 70
11, 46452, Note_on_c, 9, 44, 48
11, 46452, Note_on_c, 9, 63, 34
11, 46452, Note_on_c, 9, 35, 95
11, 46456, Note_on_c, 9, 41, 83
11, 46456, Note_on_c, 9, 59, 34
11, 46460, Note_off_c, 9, 89, 0
11, 46460, Note_on_c, 9, 89, 83
11, 46476, Note_off_c, 9, 89, 0
11, 46500, Note_off_c, 9, 63, 0
11, 46500, Note_off_c, 9, 35, 0
11, 46500, Note_off_c, 9, 41, 0
11, 46504, Note_off_c, 9, 59, 0
11, 46516, Note_off_c, 9, 44, 0
11, 46548, Note_on_c, 9, 44, 39
11, 46604, Note_off_c, 9, 44, 0
11, 46644, Note_on_c, 9, 44, 45
11, 46644, Note_on_c, 9, 68, 52
11, 46644, Note_on_c, 9, 41, 83
11, 46684, Note_off_c, 9, 68, 0
11, 46684, Note_off_c, 9, 41, 0
11, 46708, Note_off_c, 9, 44, 0
11, 46740, Note_on_c, 9, 44, 36
11, 46740, Note_on_c, 9, 68, 35
11, 46740, Note_on_c, 9, 41, 83
11, 46784, Note_off_c, 9, 68, 0
11, 46784, Note_off_c, 9, 41, 0
11, 46800, Note_off_c, 9, 44, 0
11, 46836, Note_on_c, 9, 44, 54
11, 46836, Note_on_c, 9, 35, 89
11, 46840, Note_on_c, 9, 63, 74
11, 46840, Note_on_c, 9, 76, 57
11, 46844, Note_on_c, 9, 60, 83
11, 46844, Note_on_c, 9, 59, 34
11, 46876, Note_off_c, 9, 35, 0
11, 46880, Note_off_c, 9, 60, 0
11, 46884, Note_off_c, 9, 63, 0
11, 46884, Note_off_c, 9, 76, 0
11, 46884, Note_off_c, 9, 59, 0
11, 46904, Note_off_c, 9, 44, 0
11, 46932, Note_on_c, 9, 44, 45
11, 46932, Note_on_c, 9, 76, 27
11, 46980, Note_off_c, 9, 76, 0
11, 46988, Note_off_c, 9, 44, 0
11, 47028, Note_on_c, 9, 44, 45
11, 47028, Note_on_c, 9, 68, 48
11, 47028, Note_on_c, 9, 76, 31
11, 47068, Note_off_c, 9, 68, 0
11, 47072, Note_off_c, 9, 76, 0
11, 47076, Note_off_c, 9, 44, 0
11, 47124, Note_on_c, 9, 44, 36
11, 47124, Note_on_c, 9, 76, 34
11, 47128, Note_on_c, 9, 35, 95
11, 47128, Note_on_c, 9, 61, 74
11, 47172, Note_off_c, 9, 76, 0
11, 47172, Note_off_c, 9, 35, 0
11, 47172, Note_off_c, 9, 61, 0
11, 47180, Note_off_c, 9, 44, 0
11, 47220, Note_on_c, 9, 44, 54
11, 47220, Note_on_c, 9, 35, 95
11, 47224, Note_on_c, 9, 76, 49
11, 47224, Note_on_c, 9, 63, 81
11, 47224, Note_on_c, 9, 41, 83
11, 47228, Note_on_c, 9, 59, 34
11, 47260, Note_off_c, 9, 35, 0
11, 47264, Note_off_c, 9, 76, 0
11, 47264, Note_off_c, 9, 63, 0
11, 47264, Note_off_c, 9, 41, 0
11, 47268, Note_off_c, 9, 59, 0
11, 47284, Note_off_c, 9, 44, 0
11, 47316, Note_on_c, 9, 44, 39
11, 47316, Note_on_c, 9, 68, 24
11, 47356, Note_off_c, 9, 68, 0
11, 47372, Note_off_c, 9, 44, 0
11, 47412, Note_on_c, 9, 44, 48
11, 47412, Note_on_c, 9, 76, 12
11, 47456, Note_off_c, 9, 76, 0
11, 47468, Note_off_c, 9, 44, 0
11, 47508, Note_on_c, 9, 44, 42
11, 47508, Note_on_c, 9, 68, 52
11, 47508, Note_on_c, 9, 76, 28
11, 47548, Note_off_c, 9, 68, 0
11, 47552, Note_off_c, 9, 76, 0
11, 47568, Note_off_c, 9, 44, 0
11, 47604, Note_on_c, 9, 44, 51
11, 47604, Note_on_c, 9, 35, 95
11, 47608, Note_on_c, 9, 63, 74
11, 47612, Note_on_c, 9, 76, 31
11, 47612, Note_on_c, 9, 59, 34
11, 47652, Note_off_c, 9, 35, 0
11, 47652, Note_off_c, 9, 63, 0
11, 47652, Note_off_c, 9, 76, 0
11, 47656, Note_off_c, 9, 59, 0
11, 47660, Note_off_c, 9, 44, 0
11, 47700, Note_on_c, 9, 44, 27
11, 47700, Note_on_c, 9, 63, 56
11, 47740, Note_off_c, 9, 63, 0
11, 47768, Note_off_c, 9, 44, 0
11, 47796, Note_on_c, 9, 44, 39
11, 47796, Note_on_c, 9, 76, 62
11, 47844, Note_off_c, 9, 76, 0
11, 47848, Note_off_c, 9, 44, 0
11, 47892, Note_on_c, 9, 44, 36
11, 47892, Note_on_c, 9, 68, 39
11, 47896, Note_on_c, 9, 61, 81
11, 47896, Note_on_c, 9, 35, 94
11, 47932, Note_off_c, 9, 68, 0
11, 47936, Note_off_c, 9, 61, 0
11, 47936, Note_off_c, 9, 35, 0
11, 47948, Note_off_c, 9, 44, 0
11, 47988, Note_on_c, 9, 44, 48
11, 47988, Note_on_c, 9, 76, 34
11, 47992, Note_on_c, 9, 35, 95
11, 47992, Note_on_c, 9, 63, 78
11, 47992, Note_on_c, 9, 41, 83
11, 47996, Note_on_c, 9, 59, 34
11, 48028, Note_off_c, 9, 76, 0
11, 48032, Note_off_c, 9, 35, 0
11, 48032, Note_off_c, 9, 63, 0
11, 48032, Note_off_c, 9, 41, 0
11, 48036, Note_off_c, 9, 59, 0
11, 48052, Note_off_c, 9, 44, 0
11, 48084, Note_on_c, 9, 44, 36
11, 48156, Note_off_c, 9, 44, 0
11, 48180, Note_on_c, 9, 44, 42
11, 48180, Note_on_c, 9, 76, 34
11, 48180, Note_on_c, 9, 68, 52
11, 48216, Note_off_c, 9, 76, 0
11, 48224, Note_off_c, 9, 68, 0
11, 48236, Note_off_c, 9, 44, 0
11, 48276, Note_on_c, 9, 44, 34
11, 48276, Note_on_c, 9, 68, 35
11, 48324, Note_off_c, 9, 68, 0
11, 48332, Note_off_c, 9, 44, 0
11, 48372, Note_on_c, 9, 44, 45
11, 48376, Note_on_c, 9, 63, 74
11, 48376, Note_on_c, 9, 76, 62
11, 48380, Note_on_c, 9, 35, 89
11, 48384, Note_on_c, 9, 59, 34
11, 48412, Note_off_c, 9, 63, 0
11, 48416, Note_off_c, 9, 35, 0
11, 48420, Note_off_c, 9, 76, 0
11, 48420, Note_off_c, 9, 59, 0
11, 48428, Note_off_c, 9, 44, 0
11, 48468, Note_on_c, 9, 44, 34
11, 48520, Note_off_c, 9, 44, 0
11, 48564, Note_on_c, 9, 44, 45
11, 48564, Note_on_c, 9, 76, 31
11, 48564, Note_on_c, 9, 68, 48
11, 48604, Note_off_c, 9, 76, 0
11, 48608, Note_off_c, 9, 68, 0
11, 48612, Note_off_c, 9, 44, 0
11, 48660, Note_on_c, 9, 44, 34
11, 48660, Note_on_c, 9, 76, 37
11, 48664, Note_on_c, 9, 61, 74
11, 48664, Note_on_c, 9, 35, 95
11, 48700, Note_off_c, 9, 76, 0
11, 48704, Note_off_c, 9, 61, 0
11, 48708, Note_off_c, 9, 35, 0
11, 48716, Note_off_c, 9, 44, 0
11, 48756, Note_on_c, 9, 44, 48
11, 48756, Note_on_c, 9, 63, 81
11, 48760, Note_on_c, 9, 76, 56
11, 48760, Note_on_c, 9, 35, 95
11, 48760, Note_on_c, 9, 59, 34
11, 48764, Note_on_c, 9, 41, 83
11, 48792, Note_off_c, 9, 63, 0
11, 48796, Note_off_c, 9, 76, 0
11, 48800, Note_off_c, 9, 35, 0
11, 48804, Note_off_c, 9, 59, 0
11, 48804, Note_off_c, 9, 41, 0
11, 48808, Note_off_c, 9, 44, 0
11, 48852, Note_on_c, 9, 44, 36
11, 48852, Note_on_c, 9, 68, 24
11, 48892, Note_off_c, 9, 68, 0
11, 48920, Note_off_c, 9, 44, 0
11, 48948, Note_on_c, 9, 44, 51
11, 48948, Note_on_c, 9, 76, 31
11, 48992, Note_off_c, 9, 76, 0
11, 48996, Note_off_c, 9, 44, 0
11, 49044, Note_on_c, 9, 44, 31
11, 49044, Note_on_c, 9, 76, 31
11, 49048, Note_on_c, 9, 68, 52
11, 49084, Note_off_c, 9, 76, 0
11, 49088, Note_off_c, 9, 68, 0
11, 49096, Note_off_c, 9, 44, 0
11, 49140, Note_on_c, 9, 44, 45
11, 49140, Note_on_c, 9, 35, 95
11, 49144, Note_on_c, 9, 63, 74
11, 49144, Note_on_c, 9, 76, 62
11, 49144, Note_on_c, 9, 59, 34
11, 49188, Note_off_c, 9, 35, 0
11, 49188, Note_off_c, 9, 63, 0
11, 49188, Note_off_c, 9, 76, 0
11, 49192, Note_off_c, 9, 59, 0
11, 49196, Note_off_c, 9, 44, 0
11, 49236, Note_on_c, 9, 44, 22
11, 49236, Note_on_c, 9, 63, 56
11, 49276, Note_off_c, 9, 63, 0
11, 49288, Note_off_c, 9, 44, 0
11, 49332, Note_on_c, 9, 44, 48
11, 49332, Note_on_c, 9, 76, 12
11, 49372, Note_off_c, 9, 76, 0
11, 49388, Note_off_c, 9, 44, 0
11, 49428, Note_on_c, 9, 44, 42
11, 49428, Note_on_c, 9, 35, 94
11, 49432, Note_on_c, 9, 68, 39
11, 49432, Note_on_c, 9, 61, 81
11, 49476, Note_off_c, 9, 35, 0
11, 49476, Note_off_c, 9, 68, 0
11, 49476, Note_off_c, 9, 61, 0
11, 49484, Note_off_c, 9, 44, 0
11, 49524, Note_on_c, 9, 44, 45
11, 49524, Note_on_c, 9, 76, 40
11, 49528, Note_on_c, 9, 63, 78
11, 49528, Note_on_c, 9, 35, 95
11, 49528, Note_on_c, 9, 59, 34
11, 49532, Note_on_c, 9, 41, 83
11, 49564, Note_off_c, 9, 76, 0
11, 49568, Note_off_c, 9, 63, 0
11, 49568, Note_off_c, 9, 35, 0
11, 49568, Note_off_c, 9, 59, 0
11, 49572, Note_off_c, 9, 41, 0
11, 49592, Note_off_c, 9, 44, 0
11, 49620, Note_on_c, 9, 44, 27
11, 49672, Note_off_c, 9, 44, 0
11, 49716, Note_on_c, 9, 44, 45
11, 49716, Note_on_c, 9, 76, 65
11, 49720, Note_on_c, 9, 68, 52
11, 49756, Note_off_c, 9, 76, 0
11, 49760, Note_off_c, 9, 68, 0
11, 49764, Note_off_c, 9, 44, 0
11, 49812, Note_on_c, 9, 44, 34
11, 49812, Note_on_c, 9, 68, 35
11, 49852, Note_off_c, 9, 68, 0
11, 49864, Note_off_c, 9, 44, 0
11, 49916, Note_on_c, 9, 44, 48
11, 49920, Note_on_c, 9, 76, 57
11, 49920, Note_off_c, 9, 76, 0
11, 49920, Note_on_c, 9, 63, 74
11, 49920, Note_on_c, 9, 35, 89
11, 49924, Note_on_c, 9, 76, 46
11, 49924, Note_on_c, 9, 59, 34
11, 49948, Note_off_c, 9, 63, 0
11, 49952, Note_off_c, 9, 35, 0
11, 49952, Note_off_c, 9, 76, 0
11, 49952, Note_off_c, 9, 59, 0
11, 49976, Note_off_c, 9, 44, 0
11, 50004, Note_on_c, 9, 44, 31
11, 50004, Note_on_c, 9, 76, 27
11, 50044, Note_off_c, 9, 76, 0
11, 50060, Note_off_c, 9, 44, 0
11, 50100, Note_on_c, 9, 44, 39
11, 50104, Note_on_c, 9, 76, 31
11, 50104, Note_on_c, 9, 68, 48
11, 50148, Note_off_c, 9, 76, 0
11, 50148, Note_off_c, 9, 68, 0
11, 50152, Note_off_c, 9, 44, 0
11, 50196, Note_on_c, 9, 44, 24
11, 50196, Note_on_c, 9, 35, 95
11, 50200, Note_on_c, 9, 76, 34
11, 50200, Note_on_c, 9, 61, 74
11, 50236, Note_off_c, 9, 35, 0
11, 50240, Note_off_c, 9, 76, 0
11, 50240, Note_off_c, 9, 61, 0
11, 50248, Note_off_c, 9, 44, 0
11, 50292, Note_on_c, 9, 44, 51
11, 50296, Note_on_c, 9, 76, 49
11, 50296, Note_on_c, 9, 63, 81
11, 50296, Note_on_c, 9, 35, 95
11, 50300, Note_on_c, 9, 59, 34
11, 50300, Note_on_c, 9, 41, 83
11, 50336, Note_off_c, 9, 76, 0
11, 50336, Note_off_c, 9, 63, 0
11, 50344, Note_off_c, 9, 35, 0
11, 50344, Note_off_c, 9, 59, 0
11, 50344, Note_off_c, 9, 41, 0
11, 50360, Note_off_c, 9, 44, 0
11, 50388, Note_on_c, 9, 44, 42
11, 50388, Note_on_c, 9, 68, 24
11, 50432, Note_off_c, 9, 68, 0
11, 50456, Note_off_c, 9, 44, 0
11, 50484, Note_on_c, 9, 44, 45
11, 50484, Note_on_c, 9, 76, 12
11, 50524, Note_off_c, 9, 76, 0
11, 50536, Note_off_c, 9, 44, 0
11, 50580, Note_on_c, 9, 44, 36
11, 50584, Note_on_c, 9, 68, 52
11, 50584, Note_on_c, 9, 76, 28
11, 50628, Note_off_c, 9, 68, 0
11, 50628, Note_off_c, 9, 76, 0
11, 50640, Note_off_c, 9, 44, 0
11, 50676, Note_on_c, 9, 44, 48
11, 50676, Note_on_c, 9, 76, 31
11, 50680, Note_on_c, 9, 63, 74
11, 50680, Note_on_c, 9, 35, 95
11, 50684, Note_on_c, 9, 59, 34
11, 50716, Note_off_c, 9, 76, 0
11, 50720, Note_off_c, 9, 35, 0
11, 50720, Note_off_c, 9, 63, 0
11, 50724, Note_off_c, 9, 59, 0
11, 50736, Note_off_c, 9, 44, 0
11, 50772, Note_on_c, 9, 44, 31
11, 50772, Note_on_c, 9, 63, 56
11, 50820, Note_off_c, 9, 63, 0
11, 50832, Note_off_c, 9, 44, 0
11, 50868, Note_on_c, 9, 44, 48
11, 50868, Note_on_c, 9, 76, 62
11, 50908, Note_off_c, 9, 76, 0
11, 50920, Note_off_c, 9, 44, 0
11, 50964, Note_on_c, 9, 44, 42
11, 50964, Note_on_c, 9, 61, 81
11, 50968, Note_on_c, 9, 35, 94
11, 50968, Note_on_c, 9, 68, 39
11, 51012, Note_off_c, 9, 61, 0
11, 51012, Note_off_c, 9, 35, 0
11, 51012, Note_off_c, 9, 68, 0
11, 51020, Note_off_c, 9, 44, 0
11, 51060, Note_on_c, 9, 44, 48
11, 51060, Note_on_c, 9, 63, 78
11, 51064, Note_on_c, 9, 76, 34
11, 51064, Note_on_c, 9, 35, 95
11, 51064, Note_on_c, 9, 59, 34
11, 51068, Note_on_c, 9, 41, 83
11, 51100, Note_off_c, 9, 63, 0
11, 51104, Note_off_c, 9, 76, 0
11, 51108, Note_off_c, 9, 35, 0
11, 51108, Note_off_c, 9, 59, 0
11, 51116, Note_off_c, 9, 44, 0
11, 51116, Note_off_c, 9, 41, 0
11, 51156, Note_on_c, 9, 44, 34
11, 51212, Note_off_c, 9, 44, 0
11, 51252, Note_on_c, 9, 44, 45
11, 51252, Note_on_c, 9, 68, 52
11, 51252, Note_on_c, 9, 76, 34
11, 51300, Note_off_c, 9, 68, 0
11, 51300, Note_off_c, 9, 76, 0
11, 51308, Note_off_c, 9, 44, 0
11, 51348, Note_on_c, 9, 44, 36
11, 51348, Note_on_c, 9, 68, 35
11, 51388, Note_off_c, 9, 68, 0
11, 51412, Note_off_c, 9, 44, 0
11, 51444, Note_on_c, 9, 44, 51
11, 51448, Note_on_c, 9, 63, 74
11, 51452, Note_on_c, 9, 76, 62
11, 51452, Note_on_c, 9, 35, 89
11, 51452, Note_on_c, 9, 59, 34
11, 51488, Note_off_c, 9, 35, 0
11, 51492, Note_off_c, 9, 63, 0
11, 51492, Note_off_c, 9, 76, 0
11, 51496, Note_off_c, 9, 59, 0
11, 51508, Note_off_c, 9, 44, 0
11, 51540, Note_on_c, 9, 44, 39
11, 51608, Note_off_c, 9, 44, 0
11, 51636, Note_on_c, 9, 44, 51
11, 51636, Note_on_c, 9, 68, 48
11, 51636, Note_on_c, 9, 76, 31
11, 51684, Note_off_c, 9, 68, 0
11, 51684, Note_off_c, 9, 76, 0
11, 51692, Note_off_c, 9, 44, 0
11, 51732, Note_on_c, 9, 44, 34
11, 51732, Note_on_c, 9, 61, 74
11, 51736, Note_on_c, 9, 35, 95
11, 51736, Note_on_c, 9, 76, 37
11, 51772, Note_off_c, 9, 61, 0
11, 51776, Note_off_c, 9, 35, 0
11, 51780, Note_off_c, 9, 76, 0
11, 51788, Note_off_c, 9, 44, 0
11, 51828, Note_on_c, 9, 44, 48
11, 51828, Note_on_c, 9, 76, 56
11, 51832, Note_on_c, 9, 35, 95
11, 51832, Note_on_c, 9, 63, 81
11, 51832, Note_on_c, 9, 59, 34
11, 51836, Note_on_c, 9, 41, 83
11, 51868, Note_off_c, 9, 76, 0
11, 51872, Note_off_c, 9, 63, 0
11, 51872, Note_off_c, 9, 59, 0
11, 51876, Note_off_c, 9, 35, 0
11, 51876, Note_off_c, 9, 41, 0
11, 51892, Note_off_c, 9, 44, 0
11, 51924, Note_on_c, 9, 44, 39
11, 51924, Note_on_c, 9, 68, 24
11, 51968, Note_off_c, 9, 68, 0
11, 51988, Note_off_c, 9, 44, 0
11, 52020, Note_on_c, 9, 44, 48
11, 52020, Note_on_c, 9, 76, 31
11, 52060, Note_off_c, 9, 76, 0
11, 52076, Note_off_c, 9, 44, 0
11, 52116, Note_on_c, 9, 44, 45
11, 52116, Note_on_c, 9, 76, 31
11, 52116, Note_on_c, 9, 68, 52
11, 52164, Note_off_c, 9, 76, 0
11, 52164, Note_off_c, 9, 68, 0
11, 52188, Note_off_c, 9, 44, 0
11, 52212, Note_on_c, 9, 44, 45
11, 52212, Note_on_c, 9, 63, 74
11, 52216, Note_on_c, 9, 76, 62
11, 52216, Note_on_c, 9, 35, 95
11, 52216, Note_on_c, 9, 59, 34
11, 52252, Note_off_c, 9, 63, 0
11, 52256, Note_off_c, 9, 35, 0
11, 52256, Note_off_c, 9, 76, 0
11, 52260, Note_off_c, 9, 59, 0
11, 52280, Note_off_c, 9, 44, 0
11, 52308, Note_on_c, 9, 44, 39
11, 52308, Note_on_c, 9, 63, 56
11, 52356, Note_off_c, 9, 63, 0
11, 52376, Note_off_c, 9, 44, 0
11, 52404, Note_on_c, 9, 44, 45
11, 52404, Note_on_c, 9, 76, 12
11, 52444, Note_off_c, 9, 76, 0
11, 52448, Note_off_c, 9, 44, 0
11, 52500, Note_on_c, 9, 44, 34
11, 52500, Note_on_c, 9, 35, 94
11, 52504, Note_on_c, 9, 68, 39
11, 52504, Note_on_c, 9, 61, 81
11, 52540, Note_off_c, 9, 35, 0
11, 52544, Note_off_c, 9, 68, 0
11, 52544, Note_off_c, 9, 61, 0
11, 52572, Note_off_c, 9, 44, 0
11, 52596, Note_on_c, 9, 44, 54
11, 52596, Note_on_c, 9, 63, 78
11, 52600, Note_on_c, 9, 35, 95
11, 52600, Note_on_c, 9, 76, 40
11, 52600, Note_on_c, 9, 59, 34
11, 52604, Note_on_c, 9, 41, 83
11, 52644, Note_off_c, 9, 63, 0
11, 52644, Note_off_c, 9, 35, 0
11, 52644, Note_off_c, 9, 76, 0
11, 52648, Note_off_c, 9, 59, 0
11, 52648, Note_off_c, 9, 41, 0
11, 52664, Note_off_c, 9, 44, 0
11, 52692, Note_on_c, 9, 44, 36
11, 52760, Note_off_c, 9, 44, 0
11, 52788, Note_on_c, 9, 44, 42
11, 52788, Note_on_c, 9, 76, 65
11, 52792, Note_on_c, 9, 68, 52
11, 52836, Note_off_c, 9, 44, 0
11, 52836, Note_off_c, 9, 76, 0
11, 52836, Note_off_c, 9, 68, 0
11, 52884, Note_on_c, 9, 44, 34
11, 52884, Note_on_c, 9, 68, 35
11, 52924, Note_off_c, 9, 68, 0
11, 52948, Note_off_c, 9, 44, 0
11, 52980, Note_on_c, 9, 44, 48
11, 52980, Note_on_c, 9, 35, 89
11, 52984, Note_on_c, 9, 63, 74
11, 52984, Note_on_c, 9, 60, 83
11, 52988, Note_on_c, 9, 76, 46
11, 52992, Note_off_c, 9, 76, 0
11, 52992, Note_on_c, 9, 76, 57
11, 52996, Note_on_c, 9, 59, 34
11, 53028, Note_off_c, 9, 35, 0
11, 53028, Note_off_c, 9, 63, 0
11, 53028, Note_off_c, 9, 60, 0
11, 53032, Note_off_c, 9, 44, 0
11, 53032, Note_off_c, 9, 76, 0
11, 53032, Note_off_c, 9, 59, 0
11, 53076, Note_on_c, 9, 44, 36
11, 53076, Note_on_c, 9, 76, 27
11, 53116, Note_off_c, 9, 76, 0
11, 53140, Note_off_c, 9, 44, 0
11, 53172, Note_on_c, 9, 44, 48
11, 53172, Note_on_c, 9, 76, 31
11, 53172, Note_on_c, 9, 68, 48
11, 53212, Note_off_c, 9, 76, 0
11, 53216, Note_off_c, 9, 68, 0
11, 53220, Note_off_c, 9, 44, 0
11, 53268, Note_on_c, 9, 44, 36
11, 53268, Note_on_c, 9, 61, 74
11, 53272, Note_on_c, 9, 76, 34
11, 53272, Note_on_c, 9, 35, 95
11, 53312, Note_off_c, 9, 61, 0
11, 53312, Note_off_c, 9, 76, 0
11, 53320, Note_off_c, 9, 35, 0
11, 53324, Note_off_c, 9, 44, 0
11, 53364, Note_on_c, 9, 44, 51
11, 53364, Note_on_c, 9, 76, 49
11, 53368, Note_on_c, 9, 63, 81
11, 53368, Note_on_c, 9, 35, 95
11, 53368, Note_on_c, 9, 59, 34
11, 53372, Note_on_c, 9, 41, 83
11, 53404, Note_off_c, 9, 76, 0
11, 53408, Note_off_c, 9, 63, 0
11, 53408, Note_off_c, 9, 35, 0
11, 53408, Note_off_c, 9, 59, 0
11, 53412, Note_off_c, 9, 41, 0
11, 53428, Note_off_c, 9, 44, 0
11, 53460, Note_on_c, 9, 44, 42
11, 53460, Note_on_c, 9, 68, 24
11, 53508, Note_off_c, 9, 68, 0
11, 53528, Note_off_c, 9, 44, 0
11, 53556, Note_on_c, 9, 44, 42
11, 53556, Note_on_c, 9, 76, 12
11, 53596, Note_off_c, 9, 76, 0
11, 53600, Note_off_c, 9, 44, 0
11, 53652, Note_on_c, 9, 44, 45
11, 53652, Note_on_c, 9, 76, 28
11, 53652, Note_on_c, 9, 68, 52
11, 53700, Note_off_c, 9, 76, 0
11, 53700, Note_off_c, 9, 68, 0
11, 53724, Note_off_c, 9, 44, 0
11, 53748, Note_on_c, 9, 44, 51
11, 53748, Note_on_c, 9, 76, 31
11, 53756, Note_on_c, 9, 63, 74
11, 53756, Note_on_c, 9, 35, 95
11, 53756, Note_on_c, 9, 59, 34
11, 53788, Note_off_c, 9, 76, 0
11, 53792, Note_off_c, 9, 35, 0
11, 53792, Note_off_c, 9, 59, 0
11, 53792, Note_off_c, 9, 63, 0
11, 53804, Note_off_c, 9, 44, 0
11, 53844, Note_on_c, 9, 44, 36
11, 53844, Note_on_c, 9, 63, 56
11, 53884, Note_off_c, 9, 63, 0
11, 53912, Note_off_c, 9, 44, 0
11, 53940, Note_on_c, 9, 44, 45
11, 53940, Note_on_c, 9, 76, 62
11, 53984, Note_off_c, 9, 76, 0
11, 53988, Note_off_c, 9, 44, 0
11, 54036, Note_on_c, 9, 44, 39
11, 54036, Note_on_c, 9, 35, 94
11, 54040, Note_on_c, 9, 68, 39
11, 54040, Note_on_c, 9, 61, 81
11, 54076, Note_off_c, 9, 35, 0
11, 54084, Note_off_c, 9, 68, 0
11, 54084, Note_off_c, 9, 61, 0
11, 54100, Note_off_c, 9, 44, 0
11, 54132, Note_on_c, 9, 44, 42
11, 54136, Note_on_c, 9, 76, 34
11, 54136, Note_on_c, 9, 35, 95
11, 54140, Note_on_c, 9, 63, 78
11, 54140, Note_on_c, 9, 59, 34
11, 54140, Note_on_c, 9, 41, 83
11, 54180, Note_off_c, 9, 76, 0
11, 54180, Note_off_c, 9, 35, 0
11, 54180, Note_off_c, 9, 63, 0
11, 54184, Note_off_c, 9, 59, 0
11, 54184, Note_off_c, 9, 41, 0
11, 54200, Note_off_c, 9, 44, 0
11, 54228, Note_on_c, 9, 44, 45
11, 54300, Note_off_c, 9, 44, 0
11, 54324, Note_on_c, 9, 44, 45
11, 54324, Note_on_c, 9, 68, 52
11, 54324, Note_on_c, 9, 76, 34
11, 54364, Note_off_c, 9, 68, 0
11, 54364, Note_off_c, 9, 76, 0
11, 54380, Note_off_c, 9, 44, 0
11, 54420, Note_on_c, 9, 44, 31
11, 54420, Note_on_c, 9, 68, 35
11, 54460, Note_off_c, 9, 68, 0
11, 54488, Note_off_c, 9, 44, 0
11, 54516, Note_on_c, 9, 44, 48
11, 54516, Note_on_c, 9, 76, 62
11, 54520, Note_on_c, 9, 35, 89
11, 54520, Note_on_c, 9, 63, 74
11, 54524, Note_on_c, 9, 59, 34
11, 54556, Note_off_c, 9, 76, 0
11, 54560, Note_off_c, 9, 35, 0
11, 54560, Note_off_c, 9, 63, 0
11, 54560, Note_off_c, 9, 59, 0
11, 54568, Note_off_c, 9, 44, 0
11, 54612, Note_on_c, 9, 44, 31
11, 54668, Note_off_c, 9, 44, 0
11, 54708, Note_on_c, 9, 44, 48
11, 54708, Note_on_c, 9, 68, 48
11, 54708, Note_on_c, 9, 76, 31
11, 54748, Note_off_c, 9, 68, 0
11, 54752, Note_off_c, 9, 76, 0
11, 54760, Note_off_c, 9, 44, 0
11, 54804, Note_on_c, 9, 44, 48
11, 54804, Note_on_c, 9, 35, 95
11, 54808, Note_on_c, 9, 76, 37
11, 54808, Note_on_c, 9, 61, 74
11, 54852, Note_off_c, 9, 35, 0
11, 54852, Note_off_c, 9, 76, 0
11, 54852, Note_off_c, 9, 61, 0
11, 54860, Note_off_c, 9, 44, 0
11, 54900, Note_on_c, 9, 44, 45
11, 54900, Note_on_c, 9, 76, 56
11, 54904, Note_on_c, 9, 35, 95
11, 54904, Note_on_c, 9, 63, 81
11, 54904, Note_on_c, 9, 41, 83
11, 54908, Note_on_c, 9, 59, 34
11, 54940, Note_off_c, 9, 76, 0
11, 54944, Note_off_c, 9, 35, 0
11, 54944, Note_off_c, 9, 63, 0
11, 54944, Note_off_c, 9, 41, 0
11, 54948, Note_off_c, 9, 59, 0
11, 54968, Note_off_c, 9, 44, 0
11, 54996, Note_on_c, 9, 44, 48
11, 54996, Note_on_c, 9, 68, 24
11, 55036, Note_off_c, 9, 68, 0
11, 55060, Note_off_c, 9, 44, 0
11, 55092, Note_on_c, 9, 44, 48
11, 55092, Note_on_c, 9, 76, 31
11, 55140, Note_off_c, 9, 76, 0
11, 55148, Note_off_c, 9, 44, 0
11, 55188, Note_on_c, 9, 44, 39
11, 55188, Note_on_c, 9, 68, 52
11, 55188, Note_on_c, 9, 76, 31
11, 55228, Note_off_c, 9, 68, 0
11, 55232, Note_off_c, 9, 76, 0
11, 55256, Note_off_c, 9, 44, 0
11, 55284, Note_on_c, 9, 44, 45
11, 55284, Note_on_c, 9, 76, 62
11, 55288, Note_on_c, 9, 35, 95
11, 55288, Note_on_c, 9, 63, 74
11, 55288, Note_on_c, 9, 59, 34
11, 55332, Note_off_c, 9, 35, 0
11, 55332, Note_off_c, 9, 63, 0
11, 55332, Note_off_c, 9, 76, 0
11, 55336, Note_off_c, 9, 59, 0
11, 55340, Note_off_c, 9, 44, 0
11, 55380, Note_on_c, 9, 44, 36
11, 55380, Note_on_c, 9, 63, 56
11, 55420, Note_off_c, 9, 63, 0
11, 55448, Note_off_c, 9, 44, 0
11, 55476, Note_on_c, 9, 44, 48
11, 55480, Note_on_c, 9, 76, 12
11, 55520, Note_off_c, 9, 76, 0
11, 55532, Note_off_c, 9, 44, 0
11, 55572, Note_on_c, 9, 44, 36
11, 55572, Note_on_c, 9, 61, 81
11, 55576, Note_on_c, 9, 35, 94
11, 55576, Note_on_c, 9, 68, 39
11, 55612, Note_off_c, 9, 61, 0
11, 55616, Note_off_c, 9, 35, 0
11, 55616, Note_off_c, 9, 68, 0
11, 55628, Note_off_c, 9, 44, 0
11, 55668, Note_on_c, 9, 44, 48
11, 55668, Note_on_c, 9, 35, 95
11, 55672, Note_on_c, 9, 76, 40
11, 55672, Note_on_c, 9, 63, 78
11, 55672, Note_on_c, 9, 41, 83
11, 55676, Note_on_c, 9, 59, 34
11, 55708, Note_off_c, 9, 35, 0
11, 55708, Note_off_c, 9, 76, 0
11, 55712, Note_off_c, 9, 63, 0
11, 55712, Note_off_c, 9, 41, 0
11, 55712, Note_off_c, 9, 59, 0
11, 55732, Note_off_c, 9, 44, 0
11, 55764, Note_on_c, 9, 44, 34
11, 55832, Note_off_c, 9, 44, 0
11, 55860, Note_on_c, 9, 44, 48
11, 55860, Note_on_c, 9, 76, 65
11, 55864, Note_on_c, 9, 68, 52
11, 55900, Note_off_c, 9, 76, 0
11, 55908, Note_off_c, 9, 68, 0
11, 55916, Note_off_c, 9, 44, 0
11, 55956, Note_on_c, 9, 44, 36
11, 55956, Note_on_c, 9, 68, 35
11, 56004, Note_off_c, 9, 68, 0
11, 56024, Note_off_c, 9, 44, 0
11, 56052, Note_on_c, 9, 44, 54
11, 56056, Note_on_c, 9, 35, 89
11, 56056, Note_on_c, 9, 63, 74
11, 56056, Note_on_c, 9, 76, 57
11, 56060, Note_off_c, 9, 76, 0
11, 56060, Note_on_c, 9, 76, 46
11, 56060, Note_on_c, 9, 60, 83
11, 56064, Note_on_c, 9, 59, 34
11, 56092, Note_off_c, 9, 35, 0
11, 56096, Note_off_c, 9, 76, 0
11, 56096, Note_off_c, 9, 60, 0
11, 56100, Note_off_c, 9, 63, 0
11, 56100, Note_off_c, 9, 59, 0
11, 56116, Note_off_c, 9, 44, 0
11, 56148, Note_on_c, 9, 44, 36
11, 56148, Note_on_c, 9, 76, 27
11, 56196, Note_off_c, 9, 76, 0
11, 56200, Note_off_c, 9, 44, 0
11, 56244, Note_on_c, 9, 44, 45
11, 56244, Note_on_c, 9, 68, 48
11, 56244, Note_on_c, 9, 76, 31
11, 56288, Note_off_c, 9, 76, 0
11, 56292, Note_off_c, 9, 68, 0
11, 56300, Note_off_c, 9, 44, 0
11, 56340, Note_on_c, 9, 44, 42
11, 56340, Note_on_c, 9, 35, 95
11, 56344, Note_on_c, 9, 76, 34
11, 56344, Note_on_c, 9, 61, 74
11, 56388, Note_off_c, 9, 35, 0
11, 56388, Note_off_c, 9, 76, 0
11, 56392, Note_off_c, 9, 61, 0
11, 56408, Note_off_c, 9, 44, 0
11, 56436, Note_on_c, 9, 44, 48
11, 56440, Note_on_c, 9, 76, 49
11, 56440, Note_on_c, 9, 63, 81
11, 56444, Note_on_c, 9, 35, 95
11, 56444, Note_on_c, 9, 59, 34
11, 56444, Note_on_c, 9, 41, 83
11, 56484, Note_off_c, 9, 76, 0
11, 56488, Note_off_c, 9, 63, 0
11, 56488, Note_off_c, 9, 35, 0
11, 56488, Note_off_c, 9, 59, 0
11, 56492, Note_off_c, 9, 44, 0
11, 56492, Note_off_c, 9, 41, 0
11, 56532, Note_on_c, 9, 44, 36
11, 56532, Note_on_c, 9, 68, 24
11, 56572, Note_off_c, 9, 68, 0
11, 56600, Note_off_c, 9, 44, 0
11, 56628, Note_on_c, 9, 44, 42
11, 56628, Note_on_c, 9, 76, 12
11, 56676, Note_off_c, 9, 76, 0
11, 56684, Note_off_c, 9, 44, 0
11, 56724, Note_on_c, 9, 44, 34
11, 56724, Note_on_c, 9, 76, 28
11, 56724, Note_on_c, 9, 68, 52
11, 56764, Note_off_c, 9, 76, 0
11, 56768, Note_off_c, 9, 68, 0
11, 56788, Note_off_c, 9, 44, 0
11, 56820, Note_on_c, 9, 44, 51
11, 56824, Note_on_c, 9, 76, 31
11, 56824, Note_on_c, 9, 63, 74
11, 56824, Note_on_c, 9, 35, 95
11, 56828, Note_on_c, 9, 59, 34
11, 56864, Note_off_c, 9, 35, 0
11, 56864, Note_off_c, 9, 63, 0
11, 56864, Note_off_c, 9, 76, 0
11, 56868, Note_off_c, 9, 59, 0
11, 56884, Note_off_c, 9, 44, 0
11, 56916, Note_on_c, 9, 44, 39
11, 56916, Note_on_c, 9, 63, 56
11, 56956, Note_off_c, 9, 63, 0
11, 56988, Note_off_c, 9, 44, 0
11, 57012, Note_on_c, 9, 44, 48
11, 57012, Note_on_c, 9, 76, 62
11, 57052, Note_off_c, 9, 76, 0
11, 57068, Note_off_c, 9, 44, 0
11, 57108, Note_on_c, 9, 44, 34
11, 57112, Note_on_c, 9, 61, 81
11, 57112, Note_on_c, 9, 35, 94
11, 57112, Note_on_c, 9, 68, 39
11, 57156, Note_off_c, 9, 61, 0
11, 57156, Note_off_c, 9, 35, 0
11, 57156, Note_off_c, 9, 68, 0
11, 57176, Note_off_c, 9, 44, 0
11, 57204, Note_on_c, 9, 44, 42
11, 57204, Note_on_c, 9, 63, 78
11, 57208, Note_on_c, 9, 76, 34
11, 57208, Note_on_c, 9, 35, 95
11, 57208, Note_on_c, 9, 59, 34
11, 57212, Note_on_c, 9, 41, 83
11, 57244, Note_off_c, 9, 63, 0
11, 57248, Note_off_c, 9, 76, 0
11, 57248, Note_off_c, 9, 35, 0
11, 57256, Note_off_c, 9, 59, 0
11, 57256, Note_off_c, 9, 41, 0
11, 57268, Note_off_c, 9, 44, 0
11, 57300, Note_on_c, 9, 44, 36
11, 57356, Note_off_c, 9, 44, 0
11, 57396, Note_on_c, 9, 44, 48
11, 57396, Note_on_c, 9, 68, 52
11, 57396, Note_on_c, 9, 76, 34
11, 57436, Note_off_c, 9, 68, 0
11, 57440, Note_off_c, 9, 76, 0
11, 57460, Note_off_c, 9, 44, 0
11, 57492, Note_on_c, 9, 44, 42
11, 57492, Note_on_c, 9, 68, 35
11, 57540, Note_off_c, 9, 68, 0
11, 57560, Note_off_c, 9, 44, 0
11, 57588, Note_on_c, 9, 44, 51
11, 57592, Note_on_c, 9, 63, 74
11, 57596, Note_on_c, 9, 76, 62
11, 57596, Note_on_c, 9, 35, 89
11, 57596, Note_on_c, 9, 59, 34
11, 57628, Note_off_c, 9, 63, 0
11, 57632, Note_off_c, 9, 76, 0
11, 57632, Note_off_c, 9, 35, 0
11, 57632, Note_off_c, 9, 59, 0
11, 57656, Note_off_c, 9, 44, 0
11, 57684, Note_on_c, 9, 44, 39
11, 57752, Note_off_c, 9, 44, 0
11, 57780, Note_on_c, 9, 44, 48
11, 57780, Note_on_c, 9, 68, 48
11, 57780, Note_on_c, 9, 76, 31
11, 57828, Note_off_c, 9, 68, 0
11, 57828, Note_off_c, 9, 76, 0
11, 57836, Note_off_c, 9, 44, 0
11, 57876, Note_on_c, 9, 44, 34
11, 57876, Note_on_c, 9, 61, 74
11, 57880, Note_on_c, 9, 35, 95
11, 57880, Note_on_c, 9, 76, 37
11, 57920, Note_off_c, 9, 61, 0
11, 57920, Note_off_c, 9, 35, 0
11, 57920, Note_off_c, 9, 76, 0
11, 57936, Note_off_c, 9, 44, 0
11, 57972, Note_on_c, 9, 44, 45
11, 57972, Note_on_c, 9, 76, 56
11, 57976, Note_on_c, 9, 35, 95
11, 57976, Note_on_c, 9, 63, 81
11, 57976, Note_on_c, 9, 59, 34
11, 57980, Note_on_c, 9, 41, 83
11, 58020, Note_off_c, 9, 76, 0
11, 58024, Note_off_c, 9, 35, 0
11, 58024, Note_off_c, 9, 63, 0
11, 58024, Note_off_c, 9, 59, 0
11, 58028, Note_off_c, 9, 44, 0
11, 58028, Note_off_c, 9, 41, 0
11, 58068, Note_on_c, 9, 44, 39
11, 58068, Note_on_c, 9, 68, 24
11, 58108, Note_off_c, 9, 68, 0
11, 58124, Note_off_c, 9, 44, 0
11, 58164, Note_on_c, 9, 44, 48
11, 58164, Note_on_c, 9, 76, 31
11, 58208, Note_off_c, 9, 76, 0
11, 58232, Note_off_c, 9, 44, 0
11, 58260, Note_on_c, 9, 44, 42
11, 58264, Note_on_c, 9, 68, 52
11, 58264, Note_on_c, 9, 76, 31
11, 58300, Note_off_c, 9, 68, 0
11, 58304, Note_off_c, 9, 76, 0
11, 58320, Note_off_c, 9, 44, 0
11, 58356, Note_on_c, 9, 44, 58
11, 58360, Note_on_c, 9, 60, 83
11, 58360, Note_on_c, 9, 63, 74
11, 58364, Note_on_c, 9, 76, 62
11, 58364, Note_on_c, 9, 35, 95
11, 58368, Note_on_c, 9, 59, 34
11, 58396, Note_off_c, 9, 60, 0
11, 58396, Note_off_c, 9, 63, 0
11, 58400, Note_off_c, 9, 76, 0
11, 58404, Note_off_c, 9, 35, 0
11, 58404, Note_off_c, 9, 59, 0
11, 58420, Note_off_c, 9, 44, 0
11, 58452, Note_on_c, 9, 44, 34
11, 58452, Note_on_c, 9, 63, 56
11, 58500, Note_off_c, 9, 63, 0
11, 58508, Note_off_c, 9, 44, 0
11, 58548, Note_on_c, 9, 44, 48
11, 58548, Note_on_c, 9, 76, 12
11, 58588, Note_off_c, 9, 76, 0
11, 58600, Note_off_c, 9, 44, 0
11, 58644, Note_on_c, 9, 44, 42
11, 58644, Note_on_c, 9, 35, 94
11, 58648, Note_on_c, 9, 68, 39
11, 58648, Note_on_c, 9, 61, 81
11, 58688, Note_off_c, 9, 35, 0
11, 58688, Note_off_c, 9, 68, 0
11, 58688, Note_off_c, 9, 61, 0
11, 58696, Note_off_c, 9, 44, 0
11, 58740, Note_on_c, 9, 44, 51
11, 58740, Note_on_c, 9, 35, 95
11, 58744, Note_on_c, 9, 63, 78
11, 58744, Note_on_c, 9, 76, 40
11, 58744, Note_on_c, 9, 41, 83
11, 58748, Note_on_c, 9, 59, 34
11, 58788, Note_off_c, 9, 35, 0
11, 58788, Note_off_c, 9, 63, 0
11, 58788, Note_off_c, 9, 76, 0
11, 58792, Note_off_c, 9, 41, 0
11, 58792, Note_off_c, 9, 59, 0
11, 58796, Note_off_c, 9, 44, 0
11, 58836, Note_on_c, 9, 44, 36
11, 58900, Note_off_c, 9, 44, 0
11, 58932, Note_on_c, 9, 44, 45
11, 58936, Note_on_c, 9, 76, 65
11, 58936, Note_on_c, 9, 68, 52
11, 58972, Note_off_c, 9, 76, 0
11, 58976, Note_off_c, 9, 68, 0
11, 58984, Note_off_c, 9, 44, 0
11, 59028, Note_on_c, 9, 44, 45
11, 59028, Note_on_c, 9, 68, 35
11, 59068, Note_off_c, 9, 68, 0
11, 59096, Note_off_c, 9, 44, 0
11, 59128, Note_on_c, 9, 44, 51
11, 59128, Note_on_c, 9, 63, 74
11, 59132, Note_on_c, 9, 35, 89
11, 59132, Note_on_c, 9, 60, 83
11, 59132, Note_on_c, 9, 76, 57
11, 59136, Note_on_c, 9, 59, 34
11, 59172, Note_off_c, 9, 63, 0
11, 59172, Note_off_c, 9, 35, 0
11, 59172, Note_off_c, 9, 60, 0
11, 59172, Note_off_c, 9, 76, 0
11, 59176, Note_off_c, 9, 59, 0
11, 59196, Note_off_c, 9, 44, 0
11, 59220, Note_on_c, 9, 44, 39
11, 59220, Note_on_c, 9, 76, 27
11, 59260, Note_off_c, 9, 76, 0
11, 59280, Note_off_c, 9, 44, 0
11, 59316, Note_on_c, 9, 44, 48
11, 59316, Note_on_c, 9, 68, 48
11, 59316, Note_on_c, 9, 76, 31
11, 59364, Note_off_c, 9, 68, 0
11, 59364, Note_off_c, 9, 76, 0
11, 59372, Note_off_c, 9, 44, 0
11, 59416, Note_on_c, 9, 44, 48
11, 59416, Note_on_c, 9, 76, 34
11, 59420, Note_on_c, 9, 35, 95
11, 59420, Note_on_c, 9, 61, 74
11, 59452, Note_off_c, 9, 76, 0
11, 59456, Note_off_c, 9, 35, 0
11, 59456, Note_off_c, 9, 61, 0
11, 59480, Note_off_c, 9, 44, 0
11, 59508, Note_on_c, 9, 44, 51
11, 59508, Note_on_c, 9, 35, 95
11, 59512, Note_on_c, 9, 63, 81
11, 59512, Note_on_c, 9, 76, 49
11, 59512, Note_on_c, 9, 59, 34
11, 59516, Note_on_c, 9, 41, 83
11, 59548, Note_off_c, 9, 35, 0
11, 59548, Note_off_c, 9, 63, 0
11, 59552, Note_off_c, 9, 76, 0
11, 59552, Note_off_c, 9, 59, 0
11, 59552, Note_off_c, 9, 41, 0
11, 59560, Note_off_c, 9, 44, 0
11, 59600, Note_on_c, 9, 44, 36
11, 59604, Note_on_c, 9, 68, 24
11, 59644, Note_off_c, 9, 68, 0
11, 59656, Note_off_c, 9, 44, 0
11, 59700, Note_on_c, 9, 44, 45
11, 59700, Note_on_c, 9, 76, 12
11, 59740, Note_off_c, 9, 76, 0
11, 59756, Note_off_c, 9, 44, 0
11, 59792, Note_on_c, 9, 44, 36
11, 59792, Note_on_c, 9, 76, 28
11, 59796, Note_on_c, 9, 68, 52
11, 59844, Note_off_c, 9, 76, 0
11, 59844, Note_off_c, 9, 68, 0
11, 59852, Note_off_c, 9, 44, 0
11, 59892, Note_on_c, 9, 44, 58
11, 59896, Note_on_c, 9, 35, 95
11, 59896, Note_on_c, 9, 63, 74
11, 59900, Note_on_c, 9, 76, 31
11, 59900, Note_on_c, 9, 60, 83
11, 59904, Note_on_c, 9, 59, 34
11, 59932, Note_off_c, 9, 35, 0
11, 59936, Note_off_c, 9, 60, 0
11, 59936, Note_off_c, 9, 63, 0
11, 59936, Note_off_c, 9, 76, 0
11, 59940, Note_off_c, 9, 59, 0
11, 59944, Note_off_c, 9, 44, 0
11, 59988, Note_on_c, 9, 44, 45
11, 59988, Note_on_c, 9, 63, 56
11, 60032, Note_off_c, 9, 63, 0
11, 60040, Note_off_c, 9, 44, 0
11, 60084, Note_on_c, 9, 44, 51
11, 60084, Note_on_c, 9, 76, 62
11, 60124, Note_off_c, 9, 76, 0
11, 60140, Note_off_c, 9, 44, 0
11, 60180, Note_on_c, 9, 44, 34
11, 60180, Note_on_c, 9, 35, 94
11, 60184, Note_on_c, 9, 68, 39
11, 60184, Note_on_c, 9, 61, 81
11, 60220, Note_off_c, 9, 35, 0
11, 60220, Note_off_c, 9, 68, 0
11, 60224, Note_off_c, 9, 61, 0
11, 60232, Note_off_c, 9, 44, 0
11, 60280, Note_on_c, 9, 44, 48
11, 60280, Note_on_c, 9, 63, 78
11, 60284, Note_on_c, 9, 76, 34
11, 60284, Note_on_c, 9, 35, 95
11, 60288, Note_on_c, 9, 59, 34
11, 60288, Note_on_c, 9, 41, 83
11, 60320, Note_off_c, 9, 63, 0
11, 60320, Note_off_c, 9, 76, 0
11, 60320, Note_off_c, 9, 35, 0
11, 60324, Note_off_c, 9, 59, 0
11, 60324, Note_off_c, 9, 41, 0
11, 60340, Note_off_c, 9, 44, 0
11, 60372, Note_on_c, 9, 44, 36
11, 60372, Note_on_c, 9, 35, 95
11, 60376, Note_on_c, 9, 60, 76
11, 60412, Note_off_c, 9, 35, 0
11, 60416, Note_off_c, 9, 60, 0
11, 60424, Note_off_c, 9, 44, 0
11, 60468, Note_on_c, 9, 44, 48
11, 60468, Note_on_c, 9, 76, 34
11, 60468, Note_on_c, 9, 68, 52
11, 60472, Note_on_c, 9, 41, 58
11, 60516, Note_off_c, 9, 76, 0
11, 60516, Note_off_c, 9, 68, 0
11, 60516, Note_off_c, 9, 41, 0
11, 60524, Note_off_c, 9, 44, 0
11, 60564, Note_on_c, 9, 44, 45
11, 60564, Note_on_c, 9, 68, 35
11, 60564, Note_on_c, 9, 41, 82
11, 60604, Note_off_c, 9, 68, 0
11, 60608, Note_off_c, 9, 41, 0
11, 60616, Note_off_c, 9, 44, 0
11, 60660, Note_on_c, 9, 44, 54
11, 60660, Note_on_c, 9, 35, 89
11, 60664, Note_on_c, 9, 63, 74
11, 60664, Note_on_c, 9, 60, 83
11, 60668, Note_on_c, 9, 59, 34
11, 60708, Note_off_c, 9, 35, 0
11, 60708, Note_off_c, 9, 63, 0
11, 60708, Note_off_c, 9, 60, 0
11, 60708, Note_off_c, 9, 59, 0
11, 60724, Note_off_c, 9, 44, 0
11, 60756, Note_on_c, 9, 44, 28
11, 60812, Note_off_c, 9, 44, 0
11, 60852, Note_on_c, 9, 44, 45
11, 60852, Note_on_c, 9, 68, 48
11, 60864, Pitch_bend_c, 9, 7936
11, 60872, Pitch_bend_c, 9, 7679
11, 60884, Pitch_bend_c, 9, 7423
11, 60888, Pitch_bend_c, 9, 6912
11, 60892, Note_off_c, 9, 68, 0
11, 60900, Pitch_bend_c, 9, 6528
11, 60904, Note_off_c, 9, 44, 0
11, 60912, Pitch_bend_c, 9, 6271
11, 60916, Pitch_bend_c, 9, 5887
11, 60928, Pitch_bend_c, 9, 5631
11, 60932, Pitch_bend_c, 9, 5247
11, 60956, Note_on_c, 9, 44, 36
11, 60956, Note_on_c, 9, 35, 95
11, 60960, Note_on_c, 9, 61, 74
11, 60960, Pitch_bend_c, 9, 4736
11, 60968, Pitch_bend_c, 9, 4479
11, 60988, Pitch_bend_c, 9, 4224
11, 60996, Note_off_c, 9, 44, 0
11, 60996, Note_off_c, 9, 35, 0
11, 60996, Note_off_c, 9, 61, 0
11, 61000, Pitch_bend_c, 9, 3968
11, 61008, Pitch_bend_c, 9, 3712
11, 61028, Pitch_bend_c, 9, 3328
11, 61044, Note_on_c, 9, 44, 54
11, 61048, Note_on_c, 9, 63, 81
11, 61052, Note_on_c, 9, 35, 95
11, 61052, Note_on_c, 9, 59, 34
11, 61052, Note_on_c, 9, 41, 83
11, 61056, Pitch_bend_c, 9, 2944
11, 61056, Pitch_bend_c, 9, 2688
11, 61068, Pitch_bend_c, 9, 2432
11, 61084, Note_off_c, 9, 63, 0
11, 61088, Note_off_c, 9, 35, 0
11, 61088, Note_off_c, 9, 59, 0
11, 61088, Pitch_bend_c, 9, 2176
11, 61092, Note_off_c, 9, 41, 0
11, 61096, Pitch_bend_c, 9, 1920
11, 61112, Note_off_c, 9, 44, 0
11, 61112, Pitch_bend_c, 9, 1663
11, 61120, Pitch_bend_c, 9, 1407
11, 61128, Pitch_bend_c, 9, 1152
11, 61144, Note_on_c, 9, 44, 45
11, 61144, Note_on_c, 9, 68, 24
11, 61152, Pitch_bend_c, 9, 895
11, 61156, Pitch_bend_c, 9, 640
11, 61180, Pitch_bend_c, 9, 256
11, 61188, Note_off_c, 9, 68, 0
11, 61196, Note_off_c, 9, 44, 0
11, 61196, Pitch_bend_c, 9, 0
11, 61236, Note_on_c, 9, 44, 39
11, 61284, Note_off_c, 9, 44, 0
11, 61332, Note_on_c, 9, 44, 34
11, 61336, Note_on_c, 9, 68, 52
11, 61376, Note_off_c, 9, 68, 0
11, 61400, Note_off_c, 9, 44, 0
11, 61428, Note_on_c, 9, 44, 58
11, 61432, Note_on_c, 9, 63, 74
11, 61432, Note_on_c, 9, 35, 95
11, 61436, Note_on_c, 9, 59, 34
11, 61468, Note_off_c, 9, 63, 0
11, 61472, Note_off_c, 9, 35, 0
11, 61472, Note_off_c, 9, 59, 0
11, 61484, Note_off_c, 9, 44, 0
11, 61524, Note_on_c, 9, 44, 34
11, 61524, Note_on_c, 9, 63, 56
11, 61564, Note_off_c, 9, 63, 0
11, 61576, Note_off_c, 9, 44, 0
11, 61632, Note_on_c, 9, 44, 45
11, 61632, Pitch_bend_c, 9, 255
11, 61632, Pitch_bend_c, 9, 767
11, 61636, Pitch_bend_c, 9, 1152
11, 61644, Pitch_bend_c, 9, 1664
11, 61652, Pitch_bend_c, 9, 2303
11, 61664, Note_off_c, 9, 44, 0
11, 61664, Pitch_bend_c, 9, 2943
11, 61672, Pitch_bend_c, 9, 3456
11, 61680, Pitch_bend_c, 9, 4223
11, 61688, Pitch_bend_c, 9, 4863
11, 61696, Pitch_bend_c, 9, 5376
11, 61704, Pitch_bend_c, 9, 6015
11, 61712, Pitch_bend_c, 9, 6655
11, 61716, Note_on_c, 9, 44, 48
11, 61716, Note_on_c, 9, 68, 39
11, 61716, Note_on_c, 9, 61, 81
11, 61720, Note_on_c, 9, 35, 94
11, 61724, Pitch_bend_c, 9, 7423
11, 61732, Pitch_bend_c, 9, 8063
11, 61740, Pitch_bend_c, 9, 8192
11, 61756, Note_off_c, 9, 68, 0
11, 61760, Note_off_c, 9, 61, 0
11, 61760, Note_off_c, 9, 35, 0
11, 61768, Note_off_c, 9, 44, 0
11, 61820, Note_on_c, 9, 44, 66
11, 61820, Note_on_c, 9, 63, 78
11, 61820, Note_on_c, 9, 35, 95
11, 61824, Note_on_c, 9, 59, 34
11, 61824, Note_on_c, 9, 41, 83
11, 61860, Note_off_c, 9, 63, 0
11, 61860, Note_off_c, 9, 35, 0
11, 61860, Note_off_c, 9, 59, 0
11, 61864, Note_on_c, 9, 41, 31
11, 61868, Note_off_c, 9, 44, 0
11, 61908, Note_on_c, 9, 44, 28
11, 61964, Note_off_c, 9, 44, 0
11, 62004, Note_on_c, 9, 44, 48
11, 62008, Note_on_c, 9, 68, 52
11, 62052, Note_off_c, 9, 68, 0
11, 62056, Note_off_c, 9, 44, 0
11, 62100, Note_on_c, 9, 44, 34
11, 62100, Note_on_c, 9, 68, 35
11, 62140, Note_off_c, 9, 68, 0
11, 62156, Note_off_c, 9, 44, 0
11, 62196, Note_on_c, 9, 44, 54
11, 62196, Note_on_c, 9, 35, 89
11, 62200, Note_on_c, 9, 63, 74
11, 62200, Note_on_c, 9, 59, 34
11, 62236, Note_off_c, 9, 35, 0
11, 62240, Note_off_c, 9, 63, 0
11, 62240, Note_off_c, 9, 59, 0
11, 62248, Note_off_c, 9, 44, 0
11, 62292, Note_on_c, 9, 44, 28
11, 62344, Note_off_c, 9, 44, 0
11, 62392, Note_on_c, 9, 44, 42
11, 62396, Note_on_c, 9, 68, 48
11, 62420, Note_off_c, 9, 44, 0
11, 62428, Note_off_c, 9, 68, 0
11, 62484, Note_on_c, 9, 44, 48
11, 62484, Note_on_c, 9, 61, 74
11, 62484, Note_on_c, 9, 35, 95
11, 62532, Note_off_c, 9, 61, 0
11, 62532, Note_off_c, 9, 35, 0
11, 62540, Note_off_c, 9, 44, 0
11, 62580, Note_on_c, 9, 44, 58
11, 62584, Note_on_c, 9, 63, 81
11, 62584, Note_on_c, 9, 35, 95
11, 62584, Note_on_c, 9, 59, 34
11, 62588, Note_on_c, 9, 41, 83
11, 62620, Note_off_c, 9, 63, 0
11, 62624, Note_off_c, 9, 59, 0
11, 62628, Note_off_c, 9, 41, 0
11, 62628, Note_off_c, 9, 35, 0
11, 62632, Note_off_c, 9, 44, 0
11, 62676, Note_on_c, 9, 44, 17
11, 62680, Note_on_c, 9, 68, 24
11, 62724, Note_off_c, 9, 44, 0
11, 62724, Note_off_c, 9, 68, 0
11, 62772, Note_on_c, 9, 44, 42
11, 62812, Note_off_c, 9, 44, 0
11, 62872, Note_on_c, 9, 44, 48
11, 62872, Note_on_c, 9, 68, 52
11, 62908, Note_off_c, 9, 68, 0
11, 62920, Note_off_c, 9, 44, 0
11, 62964, Note_on_c, 9, 44, 51
11, 62964, Note_on_c, 9, 63, 74
11, 62964, Note_on_c, 9, 35, 95
11, 62972, Note_on_c, 9, 59, 34
11, 63008, Note_off_c, 9, 35, 0
11, 63008, Note_off_c, 9, 59, 0
11, 63012, Note_off_c, 9, 63, 0
11, 63016, Note_off_c, 9, 44, 0
11, 63064, Note_on_c, 9, 44, 54
11, 63068, Note_on_c, 9, 63, 56
11, 63100, Note_off_c, 9, 63, 0
11, 63116, Note_off_c, 9, 44, 0
11, 63156, Note_on_c, 9, 44, 42
11, 63204, Note_off_c, 9, 44, 0
11, 63252, Note_on_c, 9, 44, 34
11, 63256, Note_on_c, 9, 68, 39
11, 63256, Note_on_c, 9, 61, 81
11, 63256, Note_on_c, 9, 35, 94
11, 63292, Note_off_c, 9, 68, 0
11, 63296, Note_off_c, 9, 61, 0
11, 63296, Note_off_c, 9, 35, 0
11, 63300, Note_off_c, 9, 44, 0
11, 63348, Note_on_c, 9, 44, 58
11, 63348, Note_on_c, 9, 35, 95
11, 63352, Note_on_c, 9, 63, 78
11, 63352, Note_on_c, 9, 41, 83
11, 63352, Note_on_c, 9, 59, 34
11, 63388, Note_off_c, 9, 35, 0
11, 63388, Note_off_c, 9, 63, 0
11, 63392, Note_off_c, 9, 41, 0
11, 63392, Note_off_c, 9, 59, 0
11, 63404, Note_off_c, 9, 44, 0
11, 63444, Note_on_c, 9, 44, 34
11, 63500, Note_off_c, 9, 44, 0
11, 63540, Note_on_c, 9, 44, 48
11, 63544, Note_on_c, 9, 68, 52
11, 63580, Note_off_c, 9, 68, 0
11, 63592, Note_off_c, 9, 44, 0
11, 63636, Note_on_c, 9, 44, 45
11, 63636, Note_on_c, 9, 68, 35
11, 63684, Note_off_c, 9, 44, 0
11, 63684, Note_off_c, 9, 68, 0
11, 63732, Note_on_c, 9, 44, 62
11, 63736, Note_on_c, 9, 35, 89
11, 63736, Note_on_c, 9, 63, 74
11, 63740, Note_on_c, 9, 59, 34
11, 63772, Note_off_c, 9, 35, 0
11, 63776, Note_off_c, 9, 63, 0
11, 63776, Note_off_c, 9, 59, 0
11, 63784, Note_off_c, 9, 44, 0
11, 63828, Note_on_c, 9, 44, 36
11, 63884, Note_off_c, 9, 44, 0
11, 63924, Note_on_c, 9, 44, 51
11, 63924, Note_on_c, 9, 68, 48
11, 63964, Note_off_c, 9, 68, 0
11, 63972, Note_off_c, 9, 44, 0
11, 64028, Note_on_c, 9, 44, 39
11, 64028, Note_on_c, 9, 61, 74
11, 64028, Note_on_c, 9, 35, 95
11, 64060, Note_off_c, 9, 61, 0
11, 64060, Note_off_c, 9, 35, 0
11, 64068, Note_off_c, 9, 44, 0
11, 64116, Note_on_c, 9, 44, 62
11, 64116, Note_on_c, 9, 35, 95
11, 64116, Note_on_c, 9, 63, 81
11, 64120, Note_on_c, 9, 59, 34
11, 64120, Note_on_c, 9, 41, 83
11, 64164, Note_off_c, 9, 35, 0
11, 64164, Note_off_c, 9, 63, 0
11, 64164, Note_off_c, 9, 59, 0
11, 64168, Note_off_c, 9, 41, 0
11, 64176, Note_off_c, 9, 44, 0
11, 64212, Note_on_c, 9, 44, 36
11, 64216, Note_on_c, 9, 68, 24
11, 64252, Note_off_c, 9, 68, 0
11, 64272, Note_off_c, 9, 44, 0
11, 64308, Note_on_c, 9, 44, 48
11, 64356, Note_off_c, 9, 44, 0
11, 64404, Note_on_c, 9, 44, 39
11, 64408, Note_on_c, 9, 68, 52
11, 64444, Note_off_c, 9, 68, 0
11, 64460, Note_off_c, 9, 44, 0
11, 64508, Note_on_c, 9, 44, 54
11, 64508, Note_on_c, 9, 63, 74
11, 64512, Note_on_c, 9, 35, 95
11, 64512, Note_on_c, 9, 59, 34
11, 64544, Note_off_c, 9, 35, 0
11, 64544, Note_off_c, 9, 59, 0
11, 64548, Note_off_c, 9, 63, 0
11, 64556, Note_off_c, 9, 44, 0
11, 64596, Note_on_c, 9, 44, 45
11, 64600, Note_on_c, 9, 63, 56
11, 64636, Note_off_c, 9, 63, 0
11, 64660, Note_off_c, 9, 44, 0
11, 64692, Note_on_c, 9, 44, 51
11, 64748, Note_off_c, 9, 44, 0
11, 64788, Note_on_c, 9, 44, 45
11, 64788, Note_on_c, 9, 35, 94
11, 64792, Note_on_c, 9, 68, 39
11, 64792, Note_on_c, 9, 61, 81
11, 64836, Note_off_c, 9, 35, 0
11, 64836, Note_off_c, 9, 68, 0
11, 64836, Note_off_c, 9, 61, 0
11, 64844, Note_off_c, 9, 44, 0
11, 64884, Note_on_c, 9, 44, 54
11, 64888, Note_on_c, 9, 63, 78
11, 64888, Note_on_c, 9, 35, 95
11, 64888, Note_on_c, 9, 59, 34
11, 64892, Note_on_c, 9, 41, 83
11, 64924, Note_off_c, 9, 63, 0
11, 64928, Note_off_c, 9, 35, 0
11, 64928, Note_off_c, 9, 59, 0
11, 64932, Note_off_c, 9, 41, 0
11, 64952, Note_off_c, 9, 44, 0
11, 64980, Note_on_c, 9, 44, 39
11, 65044, Note_off_c, 9, 44, 0
11, 65076, Note_on_c, 9, 44, 48
11, 65080, Note_on_c, 9, 68, 52
11, 65116, Note_off_c, 9, 68, 0
11, 65132, Note_off_c, 9, 44, 0
11, 65172, Note_on_c, 9, 44, 42
11, 65176, Note_on_c, 9, 68, 35
11, 65216, Note_off_c, 9, 68, 0
11, 65240, Note_off_c, 9, 44, 0
11, 65268, Note_on_c, 9, 44, 62
11, 65272, Note_on_c, 9, 63, 74
11, 65272, Note_on_c, 9, 35, 89
11, 65272, Note_on_c, 9, 59, 34
11, 65308, Note_off_c, 9, 63, 0
11, 65312, Note_off_c, 9, 35, 0
11, 65312, Note_off_c, 9, 59, 0
11, 65340, Note_off_c, 9, 44, 0
11, 65364, Note_on_c, 9, 44, 36
11, 65428, Note_off_c, 9, 44, 0
11, 65460, Note_on_c, 9, 44, 51
11, 65460, Note_on_c, 9, 68, 48
11, 65508, Note_off_c, 9, 68, 0
11, 65512, Note_off_c, 9, 44, 0
11, 65556, Note_on_c, 9, 44, 27
11, 65560, Note_on_c, 9, 35, 95
11, 65560, Note_on_c, 9, 61, 74
11, 65596, Note_off_c, 9, 35, 0
11, 65600, Note_off_c, 9, 61, 0
11, 65608, Note_off_c, 9, 44, 0
11, 65652, Note_on_c, 9, 44, 62
11, 65652, Note_on_c, 9, 35, 95
11, 65652, Note_on_c, 9, 63, 81
11, 65656, Note_on_c, 9, 59, 34
11, 65660, Note_on_c, 9, 41, 83
11, 65700, Note_off_c, 9, 35, 0
11, 65700, Note_off_c, 9, 63, 0
11, 65700, Note_off_c, 9, 59, 0
11, 65704, Note_off_c, 9, 41, 0
11, 65712, Note_off_c, 9, 44, 0
11, 65748, Note_on_c, 9, 44, 36
11, 65752, Note_on_c, 9, 68, 24
11, 65788, Note_off_c, 9, 68, 0
11, 65812, Note_off_c, 9, 44, 0
11, 65844, Note_on_c, 9, 44, 54
11, 65892, Note_off_c, 9, 44, 0
11, 65940, Note_on_c, 9, 44, 36
11, 65944, Note_on_c, 9, 68, 52
11, 65980, Note_off_c, 9, 68, 0
11, 65996, Note_off_c, 9, 44, 0
11, 66036, Note_on_c, 9, 44, 51
11, 66036, Note_on_c, 9, 63, 74
11, 66040, Note_on_c, 9, 35, 95
11, 66040, Note_on_c, 9, 59, 34
11, 66072, Note_off_c, 9, 63, 0
11, 66076, Note_off_c, 9, 35, 0
11, 66076, Note_off_c, 9, 59, 0
11, 66088, Note_off_c, 9, 44, 0
11, 66128, Note_on_c, 9, 44, 36
11, 66128, Note_on_c, 9, 63, 56
11, 66172, Note_off_c, 9, 63, 0
11, 66176, Note_off_c, 9, 44, 0
11, 66228, Note_on_c, 9, 44, 54
11, 66280, Note_off_c, 9, 44, 0
11, 66320, Note_on_c, 9, 44, 45
11, 66320, Note_on_c, 9, 68, 39
11, 66320, Note_on_c, 9, 61, 81
11, 66324, Note_on_c, 9, 35, 94
11, 66364, Note_off_c, 9, 68, 0
11, 66364, Note_off_c, 9, 61, 0
11, 66364, Note_off_c, 9, 35, 0
11, 66388, Note_off_c, 9, 44, 0
11, 66416, Note_on_c, 9, 44, 66
11, 66416, Note_on_c, 9, 35, 95
11, 66420, Note_on_c, 9, 63, 78
11, 66420, Note_on_c, 9, 59, 34
11, 66420, Note_on_c, 9, 41, 83
11, 66456, Note_off_c, 9, 35, 0
11, 66460, Note_off_c, 9, 63, 0
11, 66464, Note_off_c, 9, 59, 0
11, 66468, Note_off_c, 9, 41, 0
11, 66476, Note_off_c, 9, 44, 0
11, 66516, Note_on_c, 9, 44, 36
11, 66568, Note_off_c, 9, 44, 0
11, 66608, Note_on_c, 9, 44, 48
11, 66608, Note_on_c, 9, 68, 52
11, 66648, Note_off_c, 9, 68, 0
11, 66660, Note_off_c, 9, 44, 0
11, 66704, Note_on_c, 9, 44, 45
11, 66704, Note_on_c, 9, 68, 35
11, 66744, Note_off_c, 9, 68, 0
11, 66764, Note_off_c, 9, 44, 0
11, 66804, Note_on_c, 9, 44, 58
11, 66804, Note_on_c, 9, 63, 74
11, 66804, Note_on_c, 9, 35, 89
11, 66808, Note_on_c, 9, 59, 34
11, 66848, Note_off_c, 9, 63, 0
11, 66848, Note_off_c, 9, 35, 0
11, 66848, Note_off_c, 9, 59, 0
11, 66864, Note_off_c, 9, 44, 0
11, 66896, Note_on_c, 9, 44, 39
11, 66960, Note_off_c, 9, 44, 0
11, 66992, Note_on_c, 9, 44, 51
11, 66992, Note_on_c, 9, 68, 48
11, 67040, Note_off_c, 9, 68, 0
11, 67048, Note_off_c, 9, 44, 0
11, 67088, Note_on_c, 9, 44, 45
11, 67088, Note_on_c, 9, 61, 74
11, 67092, Note_on_c, 9, 35, 95
11, 67128, Note_off_c, 9, 61, 0
11, 67132, Note_off_c, 9, 35, 0
11, 67144, Note_off_c, 9, 44, 0
11, 67184, Note_on_c, 9, 44, 58
11, 67184, Note_on_c, 9, 63, 81
11, 67188, Note_on_c, 9, 35, 95
11, 67188, Note_on_c, 9, 59, 34
11, 67188, Note_on_c, 9, 41, 83
11, 67232, Note_off_c, 9, 63, 0
11, 67232, Note_off_c, 9, 35, 0
11, 67232, Note_off_c, 9, 59, 0
11, 67236, Note_off_c, 9, 41, 0
11, 67244, Note_off_c, 9, 44, 0
11, 67280, Note_on_c, 9, 44, 39
11, 67280, Note_on_c, 9, 68, 24
11, 67320, Note_off_c, 9, 68, 0
11, 67332, Note_off_c, 9, 44, 0
11, 67376, Note_on_c, 9, 44, 58
11, 67444, Note_off_c, 9, 44, 0
11, 67472, Note_on_c, 9, 44, 36
11, 67472, Note_on_c, 9, 68, 52
11, 67520, Note_off_c, 9, 68, 0
11, 67528, Note_off_c, 9, 44, 0
11, 67568, Note_on_c, 9, 44, 54
11, 67568, Note_on_c, 9, 63, 74
11, 67572, Note_on_c, 9, 35, 95
11, 67572, Note_on_c, 9, 59, 34
11, 67608, Note_off_c, 9, 63, 0
11, 67612, Note_off_c, 9, 35, 0
11, 67612, Note_off_c, 9, 59, 0
11, 67636, Note_off_c, 9, 44, 0
11, 67664, Note_on_c, 9, 44, 39
11, 67664, Note_on_c, 9, 63, 56
11, 67712, Note_off_c, 9, 63, 0
11, 67720, Note_off_c, 9, 44, 0
11, 67760, Note_on_c, 9, 44, 42
11, 67812, Note_off_c, 9, 44, 0
11, 67856, Note_on_c, 9, 44, 39
11, 67856, Note_on_c, 9, 35, 94
11, 67860, Note_on_c, 9, 68, 39
11, 67860, Note_on_c, 9, 61, 81
11, 67896, Note_off_c, 9, 35, 0
11, 67896, Note_off_c, 9, 68, 0
11, 67900, Note_off_c, 9, 61, 0
11, 67904, Note_off_c, 9, 44, 0
11, 67952, Note_on_c, 9, 44, 66
11, 67952, Note_on_c, 9, 63, 78
11, 67956, Note_on_c, 9, 35, 95
11, 67956, Note_on_c, 9, 59, 34
11, 67960, Note_on_c, 9, 41, 83
11, 67992, Note_off_c, 9, 63, 0
11, 67996, Note_off_c, 9, 41, 0
11, 67996, Note_off_c, 9, 35, 0
11, 67996, Note_off_c, 9, 59, 0
11, 68024, Note_off_c, 9, 44, 0
11, 68048, Note_on_c, 9, 44, 45
11, 68100, Note_off_c, 9, 44, 0
11, 68144, Note_on_c, 9, 44, 54
11, 68144, Note_on_c, 9, 68, 52
11, 68192, Note_off_c, 9, 68, 0
11, 68200, Note_off_c, 9, 44, 0
11, 68240, Note_on_c, 9, 44, 54
11, 68240, Note_on_c, 9, 68, 35
11, 68280, Note_off_c, 9, 44, 0
11, 68284, Note_off_c, 9, 68, 0
11, 68336, Note_on_c, 9, 44, 58
11, 68340, Note_on_c, 9, 63, 74
11, 68340, Note_on_c, 9, 35, 89
11, 68344, Note_on_c, 9, 59, 34
11, 68380, Note_off_c, 9, 63, 0
11, 68380, Note_off_c, 9, 35, 0
11, 68380, Note_off_c, 9, 59, 0
11, 68404, Note_off_c, 9, 44, 0
11, 68432, Note_on_c, 9, 44, 45
11, 68488, Note_off_c, 9, 44, 0
11, 68528, Note_on_c, 9, 44, 58
11, 68528, Note_on_c, 9, 68, 48
11, 68568, Note_off_c, 9, 68, 0
11, 68584, Note_off_c, 9, 44, 0
11, 68624, Note_on_c, 9, 44, 45
11, 68624, Note_on_c, 9, 35, 95
11, 68628, Note_on_c, 9, 61, 74
11, 68672, Note_off_c, 9, 35, 0
11, 68672, Note_off_c, 9, 61, 0
11, 68676, Note_off_c, 9, 44, 0
11, 68720, Note_on_c, 9, 44, 66
11, 68720, Note_on_c, 9, 63, 81
11, 68724, Note_on_c, 9, 35, 95
11, 68724, Note_on_c, 9, 59, 34
11, 68724, Note_on_c, 9, 41, 83
11, 68760, Note_off_c, 9, 63, 0
11, 68764, Note_off_c, 9, 41, 0
11, 68764, Note_off_c, 9, 35, 0
11, 68764, Note_off_c, 9, 59, 0
11, 68780, Note_off_c, 9, 44, 0
11, 68816, Note_on_c, 9, 44, 34
11, 68816, Note_on_c, 9, 68, 24
11, 68864, Note_off_c, 9, 68, 0
11, 68868, Note_off_c, 9, 44, 0
11, 68912, Note_on_c, 9, 44, 48
11, 68960, Note_off_c, 9, 44, 0
11, 69008, Note_on_c, 9, 44, 42
11, 69008, Note_on_c, 9, 68, 52
11, 69052, Note_off_c, 9, 68, 0
11, 69060, Note_off_c, 9, 44, 0
11, 69104, Note_on_c, 9, 44, 62
11, 69104, Note_on_c, 9, 35, 95
11, 69108, Note_on_c, 9, 63, 74
11, 69108, Note_on_c, 9, 59, 34
11, 69144, Note_off_c, 9, 35, 0
11, 69148, Note_off_c, 9, 59, 0
11, 69148, Note_off_c, 9, 63, 0
11, 69172, Note_off_c, 9, 44, 0
11, 69200, Note_on_c, 9, 44, 28
11, 69200, Note_on_c, 9, 63, 56
11, 69240, Note_off_c, 9, 63, 0
11, 69244, Note_off_c, 9, 44, 0
11, 69296, Note_on_c, 9, 44, 48
11, 69348, Note_off_c, 9, 44, 0
11, 69392, Note_on_c, 9, 44, 48
11, 69392, Note_on_c, 9, 35, 94
11, 69396, Note_on_c, 9, 68, 39
11, 69396, Note_on_c, 9, 61, 81
11, 69432, Note_off_c, 9, 35, 0
11, 69436, Note_off_c, 9, 68, 0
11, 69436, Note_off_c, 9, 61, 0
11, 69440, Note_off_c, 9, 44, 0
11, 69488, Note_on_c, 9, 44, 58
11, 69488, Note_on_c, 9, 35, 95
11, 69492, Note_on_c, 9, 63, 78
11, 69492, Note_on_c, 9, 59, 34
11, 69492, Note_on_c, 9, 41, 83
11, 69536, Note_off_c, 9, 35, 0
11, 69536, Note_off_c, 9, 63, 0
11, 69536, Note_off_c, 9, 59, 0
11, 69540, Note_off_c, 9, 41, 0
11, 69544, Note_off_c, 9, 44, 0
11, 69584, Note_on_c, 9, 44, 42
11, 69640, Note_off_c, 9, 44, 0
11, 69680, Note_on_c, 9, 44, 48
11, 69680, Note_on_c, 9, 68, 52
11, 69728, Note_off_c, 9, 68, 0
11, 69732, Note_off_c, 9, 44, 0
11, 69776, Note_on_c, 9, 44, 36
11, 69776, Note_on_c, 9, 68, 35
11, 69816, Note_off_c, 9, 68, 0
11, 69828, Note_off_c, 9, 44, 0
11, 69872, Note_on_c, 9, 44, 58
11, 69872, Note_on_c, 9, 35, 89
11, 69876, Note_on_c, 9, 63, 74
11, 69876, Note_on_c, 9, 59, 34
11, 69912, Note_off_c, 9, 35, 0
11, 69912, Note_off_c, 9, 63, 0
11, 69912, Note_off_c, 9, 59, 0
11, 69936, Note_off_c, 9, 44, 0
11, 69968, Note_on_c, 9, 44, 36
11, 70028, Note_off_c, 9, 44, 0
11, 70064, Note_on_c, 9, 44, 51
11, 70064, Note_on_c, 9, 68, 48
11, 70104, Note_off_c, 9, 68, 0
11, 70108, Note_off_c, 9, 44, 0
11, 70160, Note_on_c, 9, 44, 42
11, 70160, Note_on_c, 9, 35, 95
11, 70164, Note_on_c, 9, 61, 74
11, 70204, Note_off_c, 9, 35, 0
11, 70204, Note_off_c, 9, 61, 0
11, 70216, Note_off_c, 9, 44, 0
11, 70256, Note_on_c, 9, 44, 58
11, 70256, Note_on_c, 9, 35, 95
11, 70260, Note_on_c, 9, 63, 81
11, 70260, Note_on_c, 9, 59, 34
11, 70260, Note_on_c, 9, 41, 83
11, 70296, Note_off_c, 9, 35, 0
11, 70300, Note_off_c, 9, 63, 0
11, 70300, Note_off_c, 9, 59, 0
11, 70304, Note_off_c, 9, 41, 0
11, 70312, Note_off_c, 9, 44, 0
11, 70352, Note_on_c, 9, 44, 39
11, 70352, Note_on_c, 9, 68, 24
11, 70400, Note_off_c, 9, 68, 0
11, 70416, Note_off_c, 9, 44, 0
11, 70448, Note_on_c, 9, 44, 54
11, 70500, Note_off_c, 9, 44, 0
11, 70544, Note_on_c, 9, 44, 39
11, 70544, Note_on_c, 9, 68, 52
11, 70584, Note_off_c, 9, 68, 0
11, 70608, Note_off_c, 9, 44, 0
11, 70640, Note_on_c, 9, 44, 58
11, 70644, Note_on_c, 9, 35, 95
11, 70652, Note_on_c, 9, 63, 74
11, 70652, Note_on_c, 9, 59, 34
11, 70688, Note_off_c, 9, 35, 0
11, 70688, Note_off_c, 9, 63, 0
11, 70688, Note_off_c, 9, 59, 0
11, 70704, Note_off_c, 9, 44, 0
11, 70736, Note_on_c, 9, 44, 31
11, 70736, Note_on_c, 9, 63, 56
11, 70776, Note_off_c, 9, 63, 0
11, 70800, Note_off_c, 9, 44, 0
11, 70832, Note_on_c, 9, 44, 48
11, 70880, Note_off_c, 9, 44, 0
11, 70928, Note_on_c, 9, 44, 42
11, 70928, Note_on_c, 9, 35, 94
11, 70932, Note_on_c, 9, 68, 39
11, 70932, Note_on_c, 9, 61, 81
11, 70968, Note_off_c, 9, 35, 0
11, 70968, Note_off_c, 9, 68, 0
11, 70972, Note_off_c, 9, 61, 0
11, 70988, Note_off_c, 9, 44, 0
11, 71024, Note_on_c, 9, 44, 58
11, 71024, Note_on_c, 9, 63, 78
11, 71028, Note_on_c, 9, 35, 95
11, 71028, Note_on_c, 9, 59, 34
11, 71028, Note_on_c, 9, 41, 83
11, 71072, Note_off_c, 9, 63, 0
11, 71072, Note_off_c, 9, 35, 0
11, 71072, Note_off_c, 9, 59, 0
11, 71076, Note_off_c, 9, 41, 0
11, 71080, Note_off_c, 9, 44, 0
11, 71120, Note_on_c, 9, 44, 34
11, 71176, Note_off_c, 9, 44, 0
11, 71216, Note_on_c, 9, 44, 48
11, 71216, Note_on_c, 9, 68, 52
11, 71256, Note_off_c, 9, 68, 0
11, 71268, Note_off_c, 9, 44, 0
11, 71312, Note_on_c, 9, 44, 28
11, 71312, Note_on_c, 9, 68, 35
11, 71360, Note_off_c, 9, 68, 0
11, 71368, Note_off_c, 9, 44, 0
11, 71412, Note_on_c, 9, 44, 54
11, 71412, Note_on_c, 9, 63, 74
11, 71416, Note_on_c, 9, 35, 89
11, 71420, Note_on_c, 9, 59, 34
11, 71448, Note_off_c, 9, 63, 0
11, 71452, Note_off_c, 9, 35, 0
11, 71452, Note_off_c, 9, 59, 0
11, 71472, Note_off_c, 9, 44, 0
11, 71504, Note_on_c, 9, 44, 24
11, 71556, Note_off_c, 9, 44, 0
11, 71600, Note_on_c, 9, 44, 51
11, 71600, Note_on_c, 9, 68, 48
11, 71640, Note_off_c, 9, 68, 0
11, 71648, Note_off_c, 9, 44, 0
11, 71696, Note_on_c, 9, 44, 31
11, 71696, Note_on_c, 9, 61, 74
11, 71700, Note_on_c, 9, 35, 95
11, 71740, Note_off_c, 9, 61, 0
11, 71740, Note_off_c, 9, 35, 0
11, 71752, Note_off_c, 9, 44, 0
11, 71792, Note_on_c, 9, 44, 54
11, 71792, Note_on_c, 9, 63, 81
11, 71796, Note_on_c, 9, 35, 95
11, 71796, Note_on_c, 9, 59, 34
11, 71796, Note_on_c, 9, 41, 83
11, 71832, Note_off_c, 9, 63, 0
11, 71836, Note_off_c, 9, 41, 0
11, 71836, Note_off_c, 9, 35, 0
11, 71836, Note_off_c, 9, 59, 0
11, 71860, Note_off_c, 9, 44, 0
11, 71888, Note_on_c, 9, 44, 24
11, 71888, Note_on_c, 9, 68, 24
11, 71928, Note_off_c, 9, 68, 0
11, 71940, Note_off_c, 9, 44, 0
11, 71984, Note_on_c, 9, 44, 45
11, 72028, Note_off_c, 9, 44, 0
11, 72080, Note_on_c, 9, 44, 36
11, 72080, Note_on_c, 9, 68, 52
11, 72120, Note_off_c, 9, 68, 0
11, 72132, Note_off_c, 9, 44, 0
11, 72176, Note_on_c, 9, 44, 51
11, 72180, Note_on_c, 9, 35, 95
11, 72180, Note_on_c, 9, 63, 74
11, 72184, Note_on_c, 9, 59, 34
11, 72224, Note_off_c, 9, 35, 0
11, 72224, Note_off_c, 9, 59, 0
11, 72224, Note_off_c, 9, 63, 0
11, 72232, Note_off_c, 9, 44, 0
11, 72272, Note_on_c, 9, 44, 22
11, 72272, Note_on_c, 9, 63, 56
11, 72312, Note_off_c, 9, 63, 0
11, 72316, Note_off_c, 9, 44, 0
11, 72368, Note_on_c, 9, 44, 45
11, 72424, Note_off_c, 9, 44, 0
11, 72464, Note_on_c, 9, 44, 28
11, 72464, Note_on_c, 9, 35, 94
11, 72472, Note_on_c, 9, 68, 39
11, 72472, Note_on_c, 9, 61, 81
11, 72504, Note_off_c, 9, 35, 0
11, 72508, Note_off_c, 9, 68, 0
11, 72508, Note_off_c, 9, 61, 0
11, 72516, Note_off_c, 9, 44, 0
11, 72560, Note_on_c, 9, 44, 58
11, 72560, Note_on_c, 9, 35, 95
11, 72560, Note_on_c, 9, 63, 78
11, 72564, Note_on_c, 9, 59, 34
11, 72564, Note_on_c, 9, 41, 83
11, 72600, Note_off_c, 9, 35, 0
11, 72604, Note_off_c, 9, 41, 0
11, 72604, Note_off_c, 9, 63, 0
11, 72604, Note_off_c, 9, 59, 0
11, 72612, Note_off_c, 9, 44, 0
11, 72656, Note_on_c, 9, 44, 31
11, 72712, Note_off_c, 9, 44, 0
11, 72752, Note_on_c, 9, 44, 48
11, 72752, Note_on_c, 9, 68, 52
11, 72792, Note_off_c, 9, 68, 0
11, 72800, Note_off_c, 9, 44, 0
11, 72852, Note_on_c, 9, 44, 31
11, 72852, Note_on_c, 9, 68, 35
11, 72892, Note_off_c, 9, 68, 0
11, 72900, Note_off_c, 9, 44, 0
11, 72948, Note_on_c, 9, 44, 54
11, 72948, Note_on_c, 9, 35, 89
11, 72948, Note_on_c, 9, 63, 74
11, 72952, Note_on_c, 9, 59, 34
11, 72984, Note_off_c, 9, 35, 0
11, 72988, Note_off_c, 9, 63, 0
11, 72988, Note_off_c, 9, 59, 0
11, 72996, Note_off_c, 9, 44, 0
11, 73040, Note_on_c, 9, 44, 27
11, 73092, Note_off_c, 9, 44, 0
11, 73136, Note_on_c, 9, 44, 51
11, 73136, Note_on_c, 9, 68, 48
11, 73184, Note_off_c, 9, 68, 0
11, 73188, Note_off_c, 9, 44, 0
11, 73232, Note_on_c, 9, 44, 28
11, 73236, Note_on_c, 9, 35, 95
11, 73236, Note_on_c, 9, 61, 74
11, 73272, Note_off_c, 9, 35, 0
11, 73276, Note_off_c, 9, 61, 0
11, 73280, Note_off_c, 9, 44, 0
11, 73328, Note_on_c, 9, 44, 58
11, 73332, Note_on_c, 9, 63, 81
11, 73332, Note_on_c, 9, 35, 95
11, 73332, Note_on_c, 9, 59, 34
11, 73336, Note_on_c, 9, 41, 83
11, 73376, Note_off_c, 9, 63, 0
11, 73376, Note_off_c, 9, 35, 0
11, 73376, Note_off_c, 9, 59, 0
11, 73380, Note_off_c, 9, 41, 0
11, 73384, Note_off_c, 9, 44, 0
11, 73424, Note_on_c, 9, 44, 28
11, 73424, Note_on_c, 9, 68, 24
11, 73464, Note_off_c, 9, 68, 0
11, 73480, Note_off_c, 9, 44, 0
11, 73520, Note_on_c, 9, 44, 45
11, 73560, Note_off_c, 9, 44, 0
11, 73616, Note_on_c, 9, 44, 28
11, 73616, Note_on_c, 9, 68, 52
11, 73656, Note_off_c, 9, 68, 0
11, 73660, Note_off_c, 9, 44, 0
11, 73712, Note_on_c, 9, 44, 62
11, 73712, Note_on_c, 9, 35, 89
11, 73716, Note_on_c, 9, 63, 74
11, 73716, Note_on_c, 9, 59, 34
11, 73752, Note_off_c, 9, 35, 0
11, 73752, Note_off_c, 9, 63, 0
11, 73756, Note_off_c, 9, 59, 0
11, 73760, Note_off_c, 9, 44, 0
11, 73808, Note_on_c, 9, 44, 39
11, 73864, Note_off_c, 9, 44, 0
11, 73904, Note_on_c, 9, 44, 36
11, 73904, Note_on_c, 9, 68, 48
11, 73940, Note_off_c, 9, 44, 0
11, 73944, Note_off_c, 9, 68, 0
11, 74000, Note_on_c, 9, 44, 36
11, 74000, Note_on_c, 9, 61, 74
11, 74004, Note_on_c, 9, 35, 95
11, 74048, Note_off_c, 9, 61, 0
11, 74048, Note_off_c, 9, 35, 0
11, 74056, Note_off_c, 9, 44, 0
11, 74096, Note_on_c, 9, 44, 62
11, 74096, Note_on_c, 9, 63, 81
11, 74100, Note_on_c, 9, 35, 95
11, 74100, Note_on_c, 9, 59, 34
11, 74100, Note_on_c, 9, 41, 83
11, 74136, Note_off_c, 9, 63, 0
11, 74140, Note_off_c, 9, 41, 0
11, 74140, Note_off_c, 9, 35, 0
11, 74140, Note_off_c, 9, 59, 0
11, 74148, Note_off_c, 9, 44, 0
11, 74192, Note_on_c, 9, 44, 36
11, 74192, Note_on_c, 9, 68, 24
11, 74240, Note_off_c, 9, 68, 0
11, 74244, Note_off_c, 9, 44, 0
11, 74288, Note_on_c, 9, 44, 45
11, 74324, Note_off_c, 9, 44, 0
11, 74384, Note_on_c, 9, 44, 39
11, 74384, Note_on_c, 9, 68, 52
11, 74424, Note_off_c, 9, 68, 0
11, 74432, Note_off_c, 9, 44, 0
11, 74480, Note_on_c, 9, 44, 58
11, 74480, Note_on_c, 9, 63, 74
11, 74488, Note_on_c, 9, 35, 95
11, 74488, Note_on_c, 9, 59, 34
11, 74528, Note_off_c, 9, 63, 0
11, 74528, Note_off_c, 9, 35, 0
11, 74528, Note_off_c, 9, 59, 0
11, 74536, Note_off_c, 9, 44, 0
11, 74576, Note_on_c, 9, 44, 28
11, 74576, Note_on_c, 9, 63, 56
11, 74616, Note_off_c, 9, 63, 0
11, 74624, Note_off_c, 9, 44, 0
11, 74672, Note_on_c, 9, 44, 54
11, 74712, Note_off_c, 9, 44, 0
11, 74768, Note_on_c, 9, 44, 39
11, 74768, Note_on_c, 9, 35, 94
11, 74772, Note_on_c, 9, 68, 39
11, 74772, Note_on_c, 9, 61, 81
11, 74808, Note_off_c, 9, 35, 0
11, 74812, Note_off_c, 9, 68, 0
11, 74812, Note_off_c, 9, 61, 0
11, 74824, Note_off_c, 9, 44, 0
11, 74864, Note_on_c, 9, 44, 62
11, 74864, Note_on_c, 9, 63, 78
11, 74868, Note_on_c, 9, 35, 95
11, 74868, Note_on_c, 9, 59, 34
11, 74868, Note_on_c, 9, 41, 83
11, 74908, Note_off_c, 9, 63, 0
11, 74908, Note_off_c, 9, 35, 0
11, 74908, Note_off_c, 9, 59, 0
11, 74912, Note_off_c, 9, 41, 0
11, 74928, Note_off_c, 9, 44, 0
11, 74960, Note_on_c, 9, 44, 39
11, 75012, Note_off_c, 9, 44, 0
11, 75056, Note_on_c, 9, 44, 48
11, 75056, Note_on_c, 9, 68, 52
11, 75096, Note_off_c, 9, 44, 0
11, 75096, Note_off_c, 9, 68, 0
11, 75152, Note_on_c, 9, 44, 34
11, 75152, Note_on_c, 9, 68, 35
11, 75196, Note_off_c, 9, 68, 0
11, 75208, Note_off_c, 9, 44, 0
11, 75252, Note_on_c, 9, 44, 70
11, 75256, Note_on_c, 9, 35, 89
11, 75256, Note_on_c, 9, 63, 74
11, 75260, Note_on_c, 9, 59, 34
11, 75288, Note_off_c, 9, 35, 0
11, 75292, Note_off_c, 9, 63, 0
11, 75292, Note_off_c, 9, 59, 0
11, 75320, Note_off_c, 9, 44, 0
11, 75344, Note_on_c, 9, 44, 45
11, 75400, Note_off_c, 9, 44, 0
11, 75440, Note_on_c, 9, 44, 39
11, 75440, Note_on_c, 9, 68, 48
11, 75472, Note_off_c, 9, 44, 0
11, 75480, Note_off_c, 9, 68, 0
11, 75536, Note_on_c, 9, 44, 48
11, 75536, Note_on_c, 9, 61, 74
11, 75540, Note_on_c, 9, 35, 95
11, 75584, Note_off_c, 9, 61, 0
11, 75584, Note_off_c, 9, 35, 0
11, 75588, Note_off_c, 9, 44, 0
11, 75632, Note_on_c, 9, 44, 79
11, 75632, Note_on_c, 9, 63, 81
11, 75636, Note_on_c, 9, 35, 95
11, 75636, Note_on_c, 9, 59, 34
11, 75636, Note_on_c, 9, 41, 83
11, 75672, Note_off_c, 9, 63, 0
11, 75676, Note_off_c, 9, 35, 0
11, 75676, Note_off_c, 9, 59, 0
11, 75680, Note_off_c, 9, 41, 0
11, 75704, Note_off_c, 9, 44, 0
11, 75728, Note_on_c, 9, 44, 34
11, 75728, Note_on_c, 9, 68, 24
11, 75768, Note_off_c, 9, 68, 0
11, 75780, Note_off_c, 9, 44, 0
11, 75824, Note_on_c, 9, 44, 42
11, 75864, Note_off_c, 9, 44, 0
11, 75920, Note_on_c, 9, 44, 45
11, 75920, Note_on_c, 9, 68, 52
11, 75960, Note_off_c, 9, 68, 0
11, 75976, Note_off_c, 9, 44, 0
11, 76016, Note_on_c, 9, 44, 66
11, 76020, Note_on_c, 9, 63, 74
11, 76020, Note_on_c, 9, 35, 95
11, 76020, Note_on_c, 9, 59, 34
11, 76064, Note_off_c, 9, 63, 0
11, 76064, Note_off_c, 9, 35, 0
11, 76064, Note_off_c, 9, 59, 0
11, 76088, Note_off_c, 9, 44, 0
11, 76112, Note_on_c, 9, 44, 45
11, 76112, Note_on_c, 9, 63, 56
11, 76152, Note_off_c, 9, 63, 0
11, 76180, Note_off_c, 9, 44, 0
11, 76208, Note_on_c, 9, 44, 36
11, 76248, Note_off_c, 9, 44, 0
11, 76304, Note_on_c, 9, 44, 45
11, 76304, Note_on_c, 9, 35, 94
11, 76308, Note_on_c, 9, 68, 39
11, 76308, Note_on_c, 9, 61, 81
11, 76344, Note_off_c, 9, 35, 0
11, 76348, Note_off_c, 9, 68, 0
11, 76348, Note_off_c, 9, 61, 0
11, 76352, Note_off_c, 9, 44, 0
11, 76400, Note_on_c, 9, 44, 66
11, 76400, Note_on_c, 9, 63, 78
11, 76404, Note_on_c, 9, 35, 95
11, 76404, Note_on_c, 9, 59, 34
11, 76404, Note_on_c, 9, 41, 83
11, 76440, Note_off_c, 9, 63, 0
11, 76444, Note_off_c, 9, 35, 0
11, 76444, Note_off_c, 9, 59, 0
11, 76448, Note_off_c, 9, 41, 0
11, 76472, Note_off_c, 9, 44, 0
11, 76496, Note_on_c, 9, 44, 58
11, 76560, Note_off_c, 9, 44, 0
11, 76592, Note_on_c, 9, 44, 48
11, 76592, Note_on_c, 9, 68, 52
11, 76632, Note_off_c, 9, 68, 0
11, 76636, Note_off_c, 9, 44, 0
11, 76688, Note_on_c, 9, 44, 24
11, 76688, Note_on_c, 9, 68, 35
11, 76728, Note_off_c, 9, 44, 0
11, 76732, Note_off_c, 9, 68, 0
11, 76788, Note_on_c, 9, 44, 74
11, 76792, Note_on_c, 9, 35, 89
11, 76792, Note_on_c, 9, 63, 74
11, 76792, Note_on_c, 9, 59, 34
11, 76824, Note_off_c, 9, 35, 0
11, 76828, Note_off_c, 9, 63, 0
11, 76832, Note_off_c, 9, 59, 0
11, 76856, Note_off_c, 9, 44, 0
11, 76880, Note_on_c, 9, 44, 36
11, 76932, Note_off_c, 9, 44, 0
11, 76976, Note_on_c, 9, 44, 48
11, 76976, Note_on_c, 9, 68, 48
11, 77016, Note_off_c, 9, 44, 0
11, 77016, Note_off_c, 9, 68, 0
11, 77072, Note_on_c, 9, 44, 42
11, 77072, Note_on_c, 9, 35, 95
11, 77076, Note_on_c, 9, 61, 74
11, 77116, Note_off_c, 9, 35, 0
11, 77116, Note_off_c, 9, 61, 0
11, 77124, Note_off_c, 9, 44, 0
11, 77168, Note_on_c, 9, 44, 70
11, 77168, Note_on_c, 9, 35, 95
11, 77172, Note_on_c, 9, 63, 81
11, 77172, Note_on_c, 9, 59, 34
11, 77172, Note_on_c, 9, 41, 83
11, 77216, Note_off_c, 9, 35, 0
11, 77216, Note_off_c, 9, 63, 0
11, 77216, Note_off_c, 9, 59, 0
11, 77220, Note_off_c, 9, 41, 0
11, 77240, Note_off_c, 9, 44, 0
11, 77264, Note_on_c, 9, 44, 34
11, 77264, Note_on_c, 9, 68, 24
11, 77304, Note_off_c, 9, 68, 0
11, 77316, Note_off_c, 9, 44, 0
11, 77360, Note_on_c, 9, 44, 42
11, 77400, Note_off_c, 9, 44, 0
11, 77456, Note_on_c, 9, 44, 45
11, 77456, Note_on_c, 9, 68, 52
11, 77504, Note_off_c, 9, 68, 0
11, 77508, Note_off_c, 9, 44, 0
11, 77552, Note_on_c, 9, 44, 70
11, 77552, Note_on_c, 9, 63, 74
11, 77556, Note_on_c, 9, 35, 95
11, 77556, Note_on_c, 9, 59, 34
11, 77592, Note_off_c, 9, 63, 0
11, 77592, Note_off_c, 9, 35, 0
11, 77596, Note_off_c, 9, 59, 0
11, 77624, Note_off_c, 9, 44, 0
11, 77648, Note_on_c, 9, 44, 36
11, 77648, Note_on_c, 9, 63, 56
11, 77692, Note_off_c, 9, 63, 0
11, 77704, Note_off_c, 9, 44, 0
11, 77744, Note_on_c, 9, 44, 48
11, 77784, Note_off_c, 9, 44, 0
11, 77840, Note_on_c, 9, 44, 39
11, 77840, Note_on_c, 9, 68, 39
11, 77844, Note_on_c, 9, 61, 81
11, 77844, Note_on_c, 9, 35, 94
11, 77888, Note_off_c, 9, 68, 0
11, 77888, Note_off_c, 9, 61, 0
11, 77888, Note_off_c, 9, 35, 0
11, 77892, Note_off_c, 9, 44, 0
11, 77940, Note_on_c, 9, 44, 66
11, 77944, Note_on_c, 9, 35, 95
11, 77944, Note_on_c, 9, 63, 78
11, 77944, Note_on_c, 9, 59, 34
11, 77944, Note_on_c, 9, 41, 83
11, 77976, Note_off_c, 9, 35, 0
11, 77980, Note_off_c, 9, 59, 0
11, 77984, Note_off_c, 9, 41, 0
11, 77984, Note_off_c, 9, 63, 0
11, 78008, Note_off_c, 9, 44, 0
11, 78032, Note_on_c, 9, 44, 45
11, 78084, Note_off_c, 9, 44, 0
11, 78128, Note_on_c, 9, 44, 36
11, 78128, Note_on_c, 9, 68, 52
11, 78168, Note_off_c, 9, 44, 0
11, 78168, Note_off_c, 9, 68, 0
11, 78224, Note_on_c, 9, 44, 39
11, 78224, Note_on_c, 9, 68, 35
11, 78264, Note_off_c, 9, 68, 0
11, 78280, Note_off_c, 9, 44, 0
11, 78320, Note_on_c, 9, 44, 62
11, 78324, Note_on_c, 9, 35, 89
11, 78328, Note_on_c, 9, 63, 74
11, 78332, Note_on_c, 9, 59, 34
11, 78368, Note_off_c, 9, 35, 0
11, 78368, Note_off_c, 9, 63, 0
11, 78368, Note_off_c, 9, 59, 0
11, 78392, Note_off_c, 9, 44, 0
11, 78416, Note_on_c, 9, 44, 36
11, 78468, Note_off_c, 9, 44, 0
11, 78512, Note_on_c, 9, 44, 45
11, 78512, Note_on_c, 9, 68, 48
11, 78552, Note_off_c, 9, 44, 0
11, 78556, Note_off_c, 9, 68, 0
11, 78608, Note_on_c, 9, 44, 45
11, 78608, Note_on_c, 9, 35, 95
11, 78612, Note_on_c, 9, 61, 74
11, 78648, Note_off_c, 9, 35, 0
11, 78652, Note_off_c, 9, 61, 0
11, 78656, Note_off_c, 9, 44, 0
11, 78704, Note_on_c, 9, 44, 74
11, 78704, Note_on_c, 9, 35, 95
11, 78708, Note_on_c, 9, 63, 81
11, 78708, Note_on_c, 9, 59, 34
11, 78708, Note_on_c, 9, 41, 83
11, 78752, Note_off_c, 9, 35, 0
11, 78752, Note_off_c, 9, 63, 0
11, 78752, Note_off_c, 9, 59, 0
11, 78756, Note_off_c, 9, 41, 0
11, 78764, Note_off_c, 9, 44, 0
11, 78800, Note_on_c, 9, 44, 36
11, 78800, Note_on_c, 9, 68, 24
11, 78840, Note_off_c, 9, 68, 0
11, 78848, Note_off_c, 9, 44, 0
11, 78896, Note_on_c, 9, 44, 54
11, 78936, Note_off_c, 9, 44, 0
11, 78992, Note_on_c, 9, 44, 36
11, 78992, Note_on_c, 9, 68, 52
11, 79036, Note_off_c, 9, 44, 0
11, 79036, Note_off_c, 9, 68, 0
11, 79088, Note_on_c, 9, 44, 70
11, 79092, Note_on_c, 9, 63, 74
11, 79092, Note_on_c, 9, 35, 95
11, 79096, Note_on_c, 9, 59, 34
11, 79128, Note_off_c, 9, 63, 0
11, 79132, Note_off_c, 9, 35, 0
11, 79132, Note_off_c, 9, 59, 0
11, 79160, Note_off_c, 9, 44, 0
11, 79184, Note_on_c, 9, 44, 58
11, 79184, Note_on_c, 9, 63, 56
11, 79228, Note_off_c, 9, 63, 0
11, 79252, Note_off_c, 9, 44, 0
11, 79280, Note_on_c, 9, 44, 45
11, 79320, Note_off_c, 9, 44, 0
11, 79376, Note_on_c, 9, 44, 34
11, 79376, Note_on_c, 9, 35, 94
11, 79380, Note_on_c, 9, 68, 39
11, 79380, Note_on_c, 9, 61, 81
11, 79424, Note_off_c, 9, 44, 0
11, 79424, Note_off_c, 9, 35, 0
11, 79432, Note_off_c, 9, 68, 0
11, 79432, Note_off_c, 9, 61, 0
11, 79472, Note_on_c, 9, 44, 74
11, 79472, Note_on_c, 9, 63, 78
11, 79472, Note_on_c, 9, 35, 95
11, 79476, Note_on_c, 9, 59, 34
11, 79476, Note_on_c, 9, 41, 83
11, 79512, Note_off_c, 9, 63, 0
11, 79516, Note_off_c, 9, 35, 0
11, 79516, Note_off_c, 9, 59, 0
11, 79520, Note_off_c, 9, 41, 0
11, 79544, Note_off_c, 9, 44, 0
11, 79568, Note_on_c, 9, 44, 39
11, 79620, Note_off_c, 9, 44, 0
11, 79664, Note_on_c, 9, 44, 45
11, 79664, Note_on_c, 9, 68, 52
11, 79704, Note_off_c, 9, 44, 0
11, 79708, Note_off_c, 9, 68, 0
11, 79760, Note_on_c, 9, 44, 42
11, 79760, Note_on_c, 9, 68, 35
11, 79800, Note_off_c, 9, 68, 0
11, 79804, Note_off_c, 9, 44, 0
11, 79860, Note_on_c, 9, 44, 66
11, 79864, Note_on_c, 9, 35, 89
11, 79864, Note_on_c, 9, 63, 74
11, 79864, Note_on_c, 9, 59, 34
11, 79904, Note_off_c, 9, 35, 0
11, 79904, Note_off_c, 9, 59, 0
11, 79904, Note_off_c, 9, 63, 0
11, 79924, Note_off_c, 9, 44, 0
11, 79952, Note_on_c, 9, 44, 21
11, 79996, Note_off_c, 9, 44, 0
11, 80048, Note_on_c, 9, 44, 42
11, 80052, Note_on_c, 9, 68, 48
11, 80088, Note_off_c, 9, 44, 0
11, 80092, Note_off_c, 9, 68, 0
11, 80144, Note_on_c, 9, 44, 42
11, 80144, Note_on_c, 9, 61, 74
11, 80144, Note_on_c, 9, 35, 95
11, 80184, Note_off_c, 9, 61, 0
11, 80188, Note_off_c, 9, 44, 0
11, 80188, Note_off_c, 9, 35, 0
11, 80240, Note_on_c, 9, 44, 70
11, 80240, Note_on_c, 9, 35, 95
11, 80244, Note_on_c, 9, 63, 81
11, 80244, Note_on_c, 9, 59, 34
11, 80244, Note_on_c, 9, 41, 83
11, 80280, Note_off_c, 9, 35, 0
11, 80284, Note_off_c, 9, 41, 0
11, 80284, Note_off_c, 9, 63, 0
11, 80284, Note_off_c, 9, 59, 0
11, 80308, Note_off_c, 9, 44, 0
11, 80336, Note_on_c, 9, 44, 45
11, 80340, Note_on_c, 9, 68, 24
11, 80384, Note_off_c, 9, 68, 0
11, 80388, Note_off_c, 9, 44, 0
11, 80432, Note_on_c, 9, 44, 42
11, 80460, Note_off_c, 9, 44, 0
11, 80528, Note_on_c, 9, 44, 28
11, 80528, Note_on_c, 9, 68, 52
11, 80564, Note_off_c, 9, 44, 0
11, 80572, Note_off_c, 9, 68, 0
11, 80624, Note_on_c, 9, 44, 74
11, 80628, Note_on_c, 9, 63, 74
11, 80628, Note_on_c, 9, 35, 89
11, 80632, Note_on_c, 9, 59, 34
11, 80664, Note_off_c, 9, 63, 0
11, 80668, Note_off_c, 9, 35, 0
11, 80668, Note_off_c, 9, 59, 0
11, 80692, Note_off_c, 9, 44, 0
11, 80720, Note_on_c, 9, 44, 34
11, 80772, Note_off_c, 9, 44, 0
11, 80816, Note_on_c, 9, 44, 39
11, 80816, Note_on_c, 9, 68, 48
11, 80844, Note_off_c, 9, 44, 0
11, 80852, Note_off_c, 9, 68, 0
11, 80912, Note_on_c, 9, 44, 42
11, 80912, Note_on_c, 9, 61, 74
11, 80916, Note_on_c, 9, 35, 95
11, 80952, Note_off_c, 9, 61, 0
11, 80956, Note_off_c, 9, 44, 0
11, 80956, Note_off_c, 9, 35, 0
11, 81008, Note_on_c, 9, 44, 79
11, 81008, Note_on_c, 9, 63, 81
11, 81012, Note_on_c, 9, 35, 95
11, 81012, Note_on_c, 9, 41, 83
11, 81012, Note_on_c, 9, 59, 34
11, 81056, Note_off_c, 9, 41, 0
11, 81056, Note_off_c, 9, 63, 0
11, 81056, Note_off_c, 9, 35, 0
11, 81060, Note_off_c, 9, 59, 0
11, 81080, Note_off_c, 9, 44, 0
11, 81104, Note_on_c, 9, 44, 0
11, 81104, Note_on_c, 9, 68, 24
11, 81136, Note_off_c, 9, 44, 0
11, 81144, Note_off_c, 9, 68, 0
11, 81200, Note_on_c, 9, 44, 51
11, 81220, Note_off_c, 9, 44, 0
11, 81296, Note_on_c, 9, 44, 45
11, 81296, Note_on_c, 9, 68, 52
11, 81336, Note_off_c, 9, 44, 0
11, 81336, Note_off_c, 9, 68, 0
11, 81392, Note_on_c, 9, 44, 79
11, 81392, Note_on_c, 9, 63, 74
11, 81396, Note_on_c, 9, 35, 95
11, 81396, Note_on_c, 9, 59, 34
11, 81432, Note_off_c, 9, 35, 0
11, 81432, Note_off_c, 9, 59, 0
11, 81432, Note_off_c, 9, 63, 0
11, 81464, Note_off_c, 9, 44, 0
11, 81488, Note_on_c, 9, 44, 58
11, 81488, Note_on_c, 9, 63, 56
11, 81528, Note_off_c, 9, 63, 0
11, 81536, Note_off_c, 9, 44, 0
11, 81584, Note_on_c, 9, 44, 62
11, 81624, Note_off_c, 9, 44, 0
11, 81680, Note_on_c, 9, 44, 42
11, 81680, Note_on_c, 9, 35, 94
11, 81684, Note_on_c, 9, 68, 39
11, 81684, Note_on_c, 9, 61, 81
11, 81728, Note_off_c, 9, 35, 0
11, 81728, Note_off_c, 9, 68, 0
11, 81728, Note_off_c, 9, 61, 0
11, 81732, Note_off_c, 9, 44, 0
11, 81776, Note_on_c, 9, 44, 79
11, 81776, Note_on_c, 9, 63, 78
11, 81780, Note_on_c, 9, 35, 95
11, 81780, Note_on_c, 9, 59, 34
11, 81780, Note_on_c, 9, 41, 83
11, 81816, Note_off_c, 9, 63, 0
11, 81820, Note_off_c, 9, 41, 0
11, 81820, Note_off_c, 9, 35, 0
11, 81820, Note_off_c, 9, 59, 0
11, 81848, Note_off_c, 9, 44, 0
11, 81872, Note_on_c, 9, 44, 36
11, 81924, Note_off_c, 9, 44, 0
11, 81968, Note_on_c, 9, 44, 58
11, 81968, Note_on_c, 9, 68, 52
11, 82008, Note_off_c, 9, 44, 0
11, 82008, Note_off_c, 9, 68, 0
11, 82064, Note_on_c, 9, 44, 42
11, 82064, Note_on_c, 9, 68, 35
11, 82104, Note_off_c, 9, 68, 0
11, 82112, Note_off_c, 9, 44, 0
11, 82160, Note_on_c, 9, 44, 79
11, 82160, Note_on_c, 9, 63, 74
11, 82164, Note_on_c, 9, 35, 89
11, 82164, Note_on_c, 9, 59, 34
11, 82208, Note_off_c, 9, 63, 0
11, 82208, Note_off_c, 9, 35, 0
11, 82208, Note_off_c, 9, 59, 0
11, 82228, Note_off_c, 9, 44, 0
11, 82256, Note_on_c, 9, 44, 24
11, 82312, Note_off_c, 9, 44, 0
11, 82352, Note_on_c, 9, 44, 58
11, 82352, Note_on_c, 9, 68, 48
11, 82396, Note_off_c, 9, 44, 0
11, 82396, Note_off_c, 9, 68, 0
11, 82448, Note_on_c, 9, 44, 36
11, 82448, Note_on_c, 9, 61, 74
11, 82452, Note_on_c, 9, 35, 95
11, 82488, Note_off_c, 9, 61, 0
11, 82492, Note_off_c, 9, 35, 0
11, 82504, Note_off_c, 9, 44, 0
11, 82544, Note_on_c, 9, 44, 74
11, 82544, Note_on_c, 9, 35, 95
11, 82548, Note_on_c, 9, 63, 81
11, 82548, Note_on_c, 9, 59, 34
11, 82548, Note_on_c, 9, 41, 83
11, 82592, Note_off_c, 9, 35, 0
11, 82592, Note_off_c, 9, 63, 0
11, 82592, Note_off_c, 9, 59, 0
11, 82596, Note_off_c, 9, 41, 0
11, 82612, Note_off_c, 9, 44, 0
11, 82640, Note_on_c, 9, 44, 27
11, 82640, Note_on_c, 9, 68, 24
11, 82680, Note_off_c, 9, 68, 0
11, 82684, Note_off_c, 9, 44, 0
11, 82736, Note_on_c, 9, 44, 58
11, 82788, Note_off_c, 9, 44, 0
11, 82832, Note_on_c, 9, 44, 48
11, 82832, Note_on_c, 9, 68, 52
11, 82880, Note_off_c, 9, 68, 0
11, 82888, Note_off_c, 9, 44, 0
11, 82928, Note_on_c, 9, 44, 74
11, 82928, Note_on_c, 9, 63, 74
11, 82932, Note_on_c, 9, 35, 95
11, 82932, Note_on_c, 9, 59, 34
11, 82968, Note_off_c, 9, 63, 0
11, 82972, Note_off_c, 9, 35, 0
11, 82972, Note_off_c, 9, 59, 0
11, 82996, Note_off_c, 9, 44, 0
11, 83024, Note_on_c, 9, 44, 48
11, 83024, Note_on_c, 9, 63, 56
11, 83072, Note_off_c, 9, 63, 0
11, 83088, Note_off_c, 9, 44, 0
11, 83112, Note_on_c, 9, 44, 62
11, 83176, Note_off_c, 9, 44, 0
11, 83216, Note_on_c, 9, 44, 39
11, 83216, Note_on_c, 9, 35, 94
11, 83220, Note_on_c, 9, 68, 39
11, 83220, Note_on_c, 9, 61, 81
11, 83264, Note_off_c, 9, 35, 0
11, 83264, Note_off_c, 9, 68, 0
11, 83264, Note_off_c, 9, 61, 0
11, 83272, Note_off_c, 9, 44, 0
11, 83312, Note_on_c, 9, 44, 70
11, 83312, Note_on_c, 9, 63, 78
11, 83316, Note_on_c, 9, 35, 95
11, 83316, Note_on_c, 9, 59, 34
11, 83316, Note_on_c, 9, 41, 83
11, 83352, Note_off_c, 9, 63, 0
11, 83356, Note_off_c, 9, 41, 0
11, 83356, Note_off_c, 9, 35, 0
11, 83356, Note_off_c, 9, 59, 0
11, 83384, Note_off_c, 9, 44, 0
11, 83408, Note_on_c, 9, 44, 42
11, 83472, Note_off_c, 9, 44, 0
11, 83504, Note_on_c, 9, 44, 58
11, 83504, Note_on_c, 9, 68, 52
11, 83552, Note_off_c, 9, 68, 0
11, 83560, Note_off_c, 9, 44, 0
11, 83600, Note_on_c, 9, 44, 36
11, 83600, Note_on_c, 9, 68, 35
11, 83640, Note_off_c, 9, 68, 0
11, 83656, Note_off_c, 9, 44, 0
11, 83708, Note_on_c, 9, 44, 70
11, 83708, Note_on_c, 9, 63, 74
11, 83708, Note_on_c, 9, 35, 89
11, 83708, Note_on_c, 9, 59, 34
11, 83740, Note_off_c, 9, 35, 0
11, 83740, Note_off_c, 9, 59, 0
11, 83744, Note_off_c, 9, 63, 0
11, 83768, Note_off_c, 9, 44, 0
11, 83792, Note_on_c, 9, 44, 28
11, 83848, Note_off_c, 9, 44, 0
11, 83888, Note_on_c, 9, 44, 58
11, 83888, Note_on_c, 9, 68, 48
11, 83936, Note_off_c, 9, 68, 0
11, 83940, Note_off_c, 9, 44, 0
11, 83992, Note_on_c, 9, 44, 42
11, 83996, Note_on_c, 9, 61, 74
11, 83996, Note_on_c, 9, 35, 95
11, 84024, Note_off_c, 9, 61, 0
11, 84028, Note_off_c, 9, 35, 0
11, 84040, Note_off_c, 9, 44, 0
11, 84080, Note_on_c, 9, 44, 74
11, 84084, Note_on_c, 9, 63, 81
11, 84084, Note_on_c, 9, 35, 95
11, 84088, Note_on_c, 9, 41, 83
11, 84088, Note_on_c, 9, 59, 34
11, 84120, Note_off_c, 9, 63, 0
11, 84124, Note_off_c, 9, 41, 0
11, 84124, Note_off_c, 9, 35, 0
11, 84124, Note_off_c, 9, 59, 0
11, 84148, Note_off_c, 9, 44, 0
11, 84176, Note_on_c, 9, 44, 36
11, 84176, Note_on_c, 9, 68, 24
11, 84224, Note_off_c, 9, 68, 0
11, 84232, Note_off_c, 9, 44, 0
11, 84272, Note_on_c, 9, 44, 48
11, 84328, Note_off_c, 9, 44, 0
11, 84372, Note_on_c, 9, 44, 28
11, 84372, Note_on_c, 9, 68, 52
11, 84416, Note_off_c, 9, 68, 0
11, 84424, Note_off_c, 9, 44, 0
11, 84464, Note_on_c, 9, 44, 62
11, 84468, Note_on_c, 9, 35, 95
11, 84468, Note_on_c, 9, 63, 74
11, 84468, Note_on_c, 9, 59, 34
11, 84504, Note_off_c, 9, 35, 0
11, 84508, Note_off_c, 9, 59, 0
11, 84508, Note_off_c, 9, 63, 0
11, 84536, Note_off_c, 9, 44, 0
11, 84560, Note_on_c, 9, 44, 36
11, 84560, Note_on_c, 9, 63, 56
11, 84608, Note_off_c, 9, 63, 0
11, 84616, Note_off_c, 9, 44, 0
11, 84656, Note_on_c, 9, 44, 45
11, 84696, Note_off_c, 9, 44, 0
11, 84752, Note_on_c, 9, 44, 51
11, 84752, Note_on_c, 9, 68, 39
11, 84752, Note_on_c, 9, 61, 81
11, 84756, Note_on_c, 9, 35, 94
11, 84792, Note_off_c, 9, 68, 0
11, 84796, Note_off_c, 9, 61, 0
11, 84796, Note_off_c, 9, 35, 0
11, 84804, Note_off_c, 9, 44, 0
11, 84848, Note_on_c, 9, 44, 74
11, 84848, Note_on_c, 9, 35, 95
11, 84856, Note_on_c, 9, 63, 78
11, 84856, Note_on_c, 9, 59, 34
11, 84860, Note_on_c, 9, 41, 83
11, 84896, Note_off_c, 9, 41, 0
11, 84896, Note_off_c, 9, 35, 0
11, 84896, Note_off_c, 9, 63, 0
11, 84896, Note_off_c, 9, 59, 0
11, 84920, Note_off_c, 9, 44, 0
11, 84944, Note_on_c, 9, 44, 48
11, 85008, Note_off_c, 9, 44, 0
11, 85040, Note_on_c, 9, 44, 54
11, 85040, Note_on_c, 9, 68, 52
11, 85088, Note_off_c, 9, 68, 0
11, 85096, Note_off_c, 9, 44, 0
11, 85136, Note_on_c, 9, 44, 34
11, 85136, Note_on_c, 9, 68, 35
11, 85176, Note_off_c, 9, 68, 0
11, 85188, Note_off_c, 9, 44, 0
11, 85232, Note_on_c, 9, 44, 62
11, 85236, Note_on_c, 9, 93, 60
11, 85236, Note_on_c, 9, 63, 46
11, 85240, Note_on_c, 9, 35, 89
11, 85240, Note_on_c, 9, 59, 34
11, 85256, Note_off_c, 9, 93, 0
11, 85256, Note_on_c, 9, 93, 83
11, 85280, Note_off_c, 9, 63, 0
11, 85280, Note_off_c, 9, 35, 0
11, 85280, Note_off_c, 9, 59, 0
11, 85280, Note_off_c, 9, 93, 0
11, 85304, Note_off_c, 9, 44, 0
11, 85328, Note_on_c, 9, 44, 36
11, 85396, Note_off_c, 9, 44, 0
11, 85424, Note_on_c, 9, 44, 54
11, 85424, Note_on_c, 9, 68, 48
11, 85464, Note_off_c, 9, 68, 0
11, 85480, Note_off_c, 9, 44, 0
11, 85504, Note_on_c, 9, 89, 64
11, 85520, Note_off_c, 9, 89, 0
11, 85520, Note_on_c, 9, 89, 83
11, 85520, Note_on_c, 9, 44, 39
11, 85520, Note_on_c, 9, 35, 95
11, 85524, Note_on_c, 9, 61, 34
11, 85544, Note_off_c, 9, 89, 0
11, 85568, Note_off_c, 9, 35, 0
11, 85568, Note_off_c, 9, 61, 0
11, 85576, Note_off_c, 9, 44, 0
11, 85616, Note_on_c, 9, 44, 70
11, 85616, Note_on_c, 9, 35, 95
11, 85616, Note_on_c, 9, 63, 43
11, 85620, Note_on_c, 9, 59, 34
11, 85620, Note_on_c, 9, 41, 83
11, 85656, Note_off_c, 9, 35, 0
11, 85660, Note_off_c, 9, 63, 0
11, 85660, Note_off_c, 9, 59, 0
11, 85664, Note_off_c, 9, 41, 0
11, 85688, Note_off_c, 9, 44, 0
11, 85712, Note_on_c, 9, 44, 42
11, 85712, Note_on_c, 9, 68, 24
11, 85760, Note_off_c, 9, 68, 0
11, 85776, Note_off_c, 9, 44, 0
11, 85808, Note_on_c, 9, 44, 48
11, 85848, Note_off_c, 9, 44, 0
11, 85880, Note_on_c, 9, 89, 60
11, 85904, Note_off_c, 9, 89, 0
11, 85904, Note_on_c, 9, 44, 45
11, 85904, Note_on_c, 9, 68, 52
11, 85904, Note_on_c, 9, 89, 83
11, 85928, Note_off_c, 9, 89, 0
11, 85944, Note_off_c, 9, 68, 0
11, 85956, Note_off_c, 9, 44, 0
11, 86000, Note_on_c, 9, 44, 70
11, 86000, Note_on_c, 9, 63, 37
11, 86000, Note_on_c, 9, 35, 95
11, 86004, Note_on_c, 9, 59, 34
11, 86040, Note_off_c, 9, 63, 0
11, 86044, Note_off_c, 9, 35, 0
11, 86044, Note_off_c, 9, 59, 0
11, 86072, Note_off_c, 9, 44, 0
11, 86096, Note_on_c, 9, 44, 45
11, 86096, Note_on_c, 9, 63, 28
11, 86136, Note_off_c, 9, 63, 0
11, 86148, Note_off_c, 9, 44, 0
11, 86192, Note_on_c, 9, 44, 58
11, 86192, Note_on_c, 9, 87, 63
11, 86208, Note_off_c, 9, 87, 0
11, 86208, Note_on_c, 9, 87, 83
11, 86232, Note_off_c, 9, 44, 0
11, 86236, Note_off_c, 9, 87, 0
11, 86288, Note_on_c, 9, 44, 36
11, 86288, Note_on_c, 9, 68, 39
11, 86288, Note_on_c, 9, 61, 49
11, 86292, Note_on_c, 9, 35, 94
11, 86328, Note_off_c, 9, 68, 0
11, 86332, Note_off_c, 9, 44, 0
11, 86332, Note_off_c, 9, 61, 0
11, 86332, Note_off_c, 9, 35, 0
11, 86368, Note_on_c, 9, 89, 70
11, 86384, Note_on_c, 9, 44, 74
11, 86388, Note_on_c, 9, 63, 34
11, 86388, Note_on_c, 9, 35, 95
11, 86392, Note_on_c, 9, 41, 83
11, 86392, Note_on_c, 9, 59, 34
11, 86396, Note_off_c, 9, 89, 0
11, 86396, Note_on_c, 9, 89, 83
11, 86412, Note_off_c, 9, 89, 0
11, 86432, Note_off_c, 9, 41, 0
11, 86432, Note_off_c, 9, 63, 0
11, 86432, Note_off_c, 9, 35, 0
11, 86436, Note_off_c, 9, 59, 0
11, 86452, Note_off_c, 9, 44, 0
11, 86480, Note_on_c, 9, 44, 31
11, 86528, Note_off_c, 9, 44, 0
11, 86576, Note_on_c, 9, 44, 62
11, 86576, Note_on_c, 9, 68, 52
11, 86576, Note_on_c, 9, 41, 83
11, 86616, Note_off_c, 9, 44, 0
11, 86616, Note_off_c, 9, 68, 0
11, 86620, Note_off_c, 9, 41, 0
11, 86672, Note_on_c, 9, 44, 39
11, 86676, Note_on_c, 9, 68, 35
11, 86676, Note_on_c, 9, 41, 83
11, 86720, Note_off_c, 9, 41, 0
11, 86720, Note_off_c, 9, 44, 0
11, 86720, Note_off_c, 9, 68, 0
11, 86768, Note_on_c, 9, 44, 70
11, 86768, Note_on_c, 9, 60, 83
11, 86772, Note_on_c, 9, 76, 57
11, 86772, Note_on_c, 9, 63, 74
11, 86776, Note_on_c, 9, 35, 89
11, 86780, Note_on_c, 9, 59, 34
11, 86808, Note_off_c, 9, 60, 0
11, 86812, Note_off_c, 9, 76, 0
11, 86812, Note_off_c, 9, 63, 0
11, 86812, Note_off_c, 9, 35, 0
11, 86816, Note_off_c, 9, 59, 0
11, 86840, Note_off_c, 9, 44, 0
11, 86864, Note_on_c, 9, 44, 36
11, 86864, Note_on_c, 9, 76, 27
11, 86912, Note_off_c, 9, 76, 0
11, 86916, Note_off_c, 9, 44, 0
11, 86960, Note_on_c, 9, 44, 54
11, 86960, Note_on_c, 9, 68, 48
11, 86960, Note_on_c, 9, 76, 31
11, 87000, Note_off_c, 9, 44, 0
11, 87000, Note_off_c, 9, 68, 0
11, 87004, Note_off_c, 9, 76, 0
11, 87056, Note_on_c, 9, 44, 39
11, 87056, Note_on_c, 9, 35, 95
11, 87060, Note_on_c, 9, 61, 74
11, 87060, Note_on_c, 9, 76, 34
11, 87100, Note_off_c, 9, 35, 0
11, 87100, Note_off_c, 9, 61, 0
11, 87100, Note_off_c, 9, 76, 0
11, 87108, Note_off_c, 9, 44, 0
11, 87152, Note_on_c, 9, 44, 79
11, 87152, Note_on_c, 9, 76, 49
11, 87156, Note_on_c, 9, 63, 81
11, 87156, Note_on_c, 9, 35, 95
11, 87156, Note_on_c, 9, 59, 34
11, 87160, Note_on_c, 9, 41, 83
11, 87192, Note_off_c, 9, 76, 0
11, 87196, Note_off_c, 9, 35, 0
11, 87196, Note_off_c, 9, 59, 0
11, 87200, Note_off_c, 9, 41, 0
11, 87200, Note_off_c, 9, 63, 0
11, 87220, Note_off_c, 9, 44, 0
11, 87248, Note_on_c, 9, 44, 36
11, 87248, Note_on_c, 9, 68, 24
11, 87288, Note_off_c, 9, 68, 0
11, 87300, Note_off_c, 9, 44, 0
11, 87344, Note_on_c, 9, 44, 51
11, 87344, Note_on_c, 9, 76, 12
11, 87384, Note_off_c, 9, 44, 0
11, 87388, Note_off_c, 9, 76, 0
11, 87440, Note_on_c, 9, 44, 45
11, 87440, Note_on_c, 9, 68, 52
11, 87440, Note_on_c, 9, 76, 28
11, 87480, Note_off_c, 9, 68, 0
11, 87484, Note_off_c, 9, 76, 0
11, 87496, Note_off_c, 9, 44, 0
11, 87536, Note_on_c, 9, 44, 74
11, 87536, Note_on_c, 9, 76, 31
11, 87540, Note_on_c, 9, 63, 74
11, 87544, Note_on_c, 9, 35, 95
11, 87544, Note_on_c, 9, 59, 34
11, 87584, Note_off_c, 9, 35, 0
11, 87584, Note_off_c, 9, 63, 0
11, 87584, Note_off_c, 9, 76, 0
11, 87588, Note_off_c, 9, 59, 0
11, 87604, Note_off_c, 9, 44, 0
11, 87632, Note_on_c, 9, 44, 24
11, 87632, Note_on_c, 9, 63, 56
11, 87672, Note_off_c, 9, 63, 0
11, 87688, Note_off_c, 9, 44, 0
11, 87728, Note_on_c, 9, 44, 48
11, 87728, Note_on_c, 9, 76, 62
11, 87768, Note_off_c, 9, 44, 0
11, 87772, Note_off_c, 9, 76, 0
11, 87824, Note_on_c, 9, 44, 42
11, 87824, Note_on_c, 9, 35, 94
11, 87828, Note_on_c, 9, 61, 81
11, 87828, Note_on_c, 9, 68, 39
11, 87864, Note_off_c, 9, 35, 0
11, 87868, Note_off_c, 9, 61, 0
11, 87868, Note_off_c, 9, 68, 0
11, 87892, Note_off_c, 9, 44, 0
11, 87920, Note_on_c, 9, 44, 74
11, 87920, Note_on_c, 9, 63, 78
11, 87924, Note_on_c, 9, 76, 34
11, 87924, Note_on_c, 9, 35, 95
11, 87924, Note_on_c, 9, 59, 34
11, 87928, Note_on_c, 9, 41, 83
11, 87960, Note_off_c, 9, 63, 0
11, 87964, Note_off_c, 9, 76, 0
11, 87964, Note_off_c, 9, 35, 0
11, 87964, Note_off_c, 9, 59, 0
11, 87968, Note_off_c, 9, 41, 0
11, 87992, Note_off_c, 9, 44, 0
11, 88016, Note_on_c, 9, 44, 36
11, 88072, Note_off_c, 9, 44, 0
11, 88112, Note_on_c, 9, 44, 58
11, 88112, Note_on_c, 9, 68, 52
11, 88112, Note_on_c, 9, 76, 34
11, 88152, Note_off_c, 9, 68, 0
11, 88160, Note_off_c, 9, 44, 0
11, 88160, Note_off_c, 9, 76, 0
11, 88208, Note_on_c, 9, 44, 45
11, 88208, Note_on_c, 9, 68, 35
11, 88256, Note_off_c, 9, 68, 0
11, 88264, Note_off_c, 9, 44, 0
11, 88304, Note_on_c, 9, 44, 74
11, 88304, Note_on_c, 9, 35, 89
11, 88308, Note_on_c, 9, 76, 62
11, 88308, Note_on_c, 9, 63, 74
11, 88308, Note_on_c, 9, 59, 34
11, 88344, Note_off_c, 9, 35, 0
11, 88348, Note_off_c, 9, 76, 0
11, 88348, Note_off_c, 9, 63, 0
11, 88348, Note_off_c, 9, 59, 0
11, 88364, Note_off_c, 9, 44, 0
11, 88400, Note_on_c, 9, 44, 39
11, 88456, Note_off_c, 9, 44, 0
11, 88496, Note_on_c, 9, 44, 58
11, 88496, Note_on_c, 9, 68, 48
11, 88496, Note_on_c, 9, 76, 31
11, 88536, Note_off_c, 9, 44, 0
11, 88536, Note_off_c, 9, 68, 0
11, 88540, Note_off_c, 9, 76, 0
11, 88592, Note_on_c, 9, 44, 51
11, 88592, Note_on_c, 9, 35, 95
11, 88592, Note_on_c, 9, 76, 37
11, 88596, Note_on_c, 9, 61, 74
11, 88640, Note_off_c, 9, 35, 0
11, 88640, Note_off_c, 9, 76, 0
11, 88640, Note_off_c, 9, 61, 0
11, 88644, Note_off_c, 9, 44, 0
11, 88688, Note_on_c, 9, 44, 79
11, 88688, Note_on_c, 9, 76, 56
11, 88692, Note_on_c, 9, 35, 95
11, 88692, Note_on_c, 9, 63, 81
11, 88692, Note_on_c, 9, 41, 83
11, 88696, Note_on_c, 9, 59, 34
11, 88736, Note_off_c, 9, 76, 0
11, 88736, Note_off_c, 9, 35, 0
11, 88736, Note_off_c, 9, 63, 0
11, 88740, Note_off_c, 9, 41, 0
11, 88740, Note_off_c, 9, 59, 0
11, 88760, Note_off_c, 9, 44, 0
11, 88784, Note_on_c, 9, 44, 48
11, 88784, Note_on_c, 9, 68, 24
11, 88824, Note_off_c, 9, 68, 0
11, 88852, Note_off_c, 9, 44, 0
11, 88880, Note_on_c, 9, 44, 58
11, 88880, Note_on_c, 9, 76, 31
11, 88920, Note_off_c, 9, 44, 0
11, 88924, Note_off_c, 9, 76, 0
11, 88976, Note_on_c, 9, 44, 28
11, 88976, Note_on_c, 9, 68, 52
11, 88980, Note_on_c, 9, 76, 31
11, 89016, Note_off_c, 9, 44, 0
11, 89016, Note_off_c, 9, 68, 0
11, 89016, Note_off_c, 9, 76, 0
11, 89072, Note_on_c, 9, 35, 95
11, 89072, Note_on_c, 9, 76, 62
11, 89076, Note_on_c, 9, 63, 74
11, 89076, Note_on_c, 9, 59, 34
11, 89116, Note_off_c, 9, 63, 0
11, 89120, Note_off_c, 9, 35, 0
11, 89120, Note_off_c, 9, 59, 0
11, 89120, Note_off_c, 9, 76, 0
11, 89168, Note_on_c, 9, 44, 45
11, 89172, Note_on_c, 9, 63, 56
11, 89208, Note_off_c, 9, 63, 0
11, 89232, Note_off_c, 9, 44, 0
11, 89264, Note_on_c, 9, 44, 66
11, 89264, Note_on_c, 9, 76, 12
11, 89304, Note_off_c, 9, 76, 0
11, 89308, Note_off_c, 9, 44, 0
11, 89360, Note_on_c, 9, 44, 42
11, 89360, Note_on_c, 9, 35, 94
11, 89364, Note_on_c, 9, 61, 81
11, 89368, Note_on_c, 9, 68, 39
11, 89408, Note_off_c, 9, 35, 0
11, 89408, Note_off_c, 9, 61, 0
11, 89408, Note_off_c, 9, 68, 0
11, 89412, Note_off_c, 9, 44, 0
11, 89456, Note_on_c, 9, 44, 74
11, 89456, Note_on_c, 9, 35, 95
11, 89460, Note_on_c, 9, 76, 40
11, 89460, Note_on_c, 9, 63, 78
11, 89460, Note_on_c, 9, 41, 83
11, 89464, Note_on_c, 9, 59, 34
11, 89496, Note_off_c, 9, 35, 0
11, 89500, Note_off_c, 9, 41, 0
11, 89500, Note_off_c, 9, 63, 0
11, 89504, Note_off_c, 9, 76, 0
11, 89504, Note_off_c, 9, 59, 0
11, 89524, Note_off_c, 9, 44, 0
11, 89552, Note_on_c, 9, 44, 28
11, 89604, Note_off_c, 9, 44, 0
11, 89648, Note_on_c, 9, 44, 34
11, 89648, Note_on_c, 9, 76, 65
11, 89652, Note_on_c, 9, 68, 52
11, 89680, Note_off_c, 9, 44, 0
11, 89688, Note_off_c, 9, 76, 0
11, 89692, Note_off_c, 9, 68, 0
11, 89744, Note_on_c, 9, 44, 42
11, 89744, Note_on_c, 9, 68, 35
11, 89792, Note_off_c, 9, 68, 0
11, 89796, Note_off_c, 9, 44, 0
11, 89840, Note_on_c, 9, 44, 79
11, 89840, Note_on_c, 9, 76, 46
11, 89848, Note_off_c, 9, 76, 0
11, 89848, Note_on_c, 9, 76, 57
11, 89852, Note_on_c, 9, 63, 74
11, 89852, Note_on_c, 9, 35, 89
11, 89852, Note_on_c, 9, 59, 34
11, 89880, Note_off_c, 9, 76, 0
11, 89884, Note_off_c, 9, 63, 0
11, 89884, Note_off_c, 9, 35, 0
11, 89884, Note_off_c, 9, 59, 0
11, 89908, Note_off_c, 9, 44, 0
11, 89936, Note_on_c, 9, 44, 42
11, 89936, Note_on_c, 9, 76, 27
11, 89976, Note_off_c, 9, 76, 0
11, 90000, Note_off_c, 9, 44, 0
11, 90032, Note_on_c, 9, 44, 48
11, 90036, Note_on_c, 9, 76, 31
11, 90036, Note_on_c, 9, 68, 48
11, 90072, Note_off_c, 9, 44, 0
11, 90076, Note_off_c, 9, 76, 0
11, 90080, Note_off_c, 9, 68, 0
11, 90128, Note_on_c, 9, 44, 36
11, 90128, Note_on_c, 9, 61, 74
11, 90132, Note_on_c, 9, 76, 34
11, 90132, Note_on_c, 9, 35, 95
11, 90168, Note_off_c, 9, 61, 0
11, 90172, Note_off_c, 9, 76, 0
11, 90172, Note_off_c, 9, 35, 0
11, 90176, Note_off_c, 9, 44, 0
11, 90224, Note_on_c, 9, 44, 70
11, 90228, Note_on_c, 9, 76, 49
11, 90228, Note_on_c, 9, 63, 81
11, 90232, Note_on_c, 9, 35, 95
11, 90232, Note_on_c, 9, 59, 34
11, 90232, Note_on_c, 9, 41, 83
11, 90268, Note_off_c, 9, 76, 0
11, 90268, Note_off_c, 9, 63, 0
11, 90272, Note_off_c, 9, 35, 0
11, 90276, Note_off_c, 9, 41, 0
11, 90276, Note_off_c, 9, 59, 0
11, 90292, Note_off_c, 9, 44, 0
11, 90320, Note_on_c, 9, 44, 48
11, 90320, Note_on_c, 9, 68, 24
11, 90368, Note_off_c, 9, 68, 0
11, 90376, Note_off_c, 9, 44, 0
11, 90416, Note_on_c, 9, 44, 48
11, 90416, Note_on_c, 9, 76, 12
11, 90456, Note_off_c, 9, 44, 0
11, 90456, Note_off_c, 9, 76, 0
11, 90512, Note_on_c, 9, 44, 39
11, 90512, Note_on_c, 9, 76, 28
11, 90512, Note_on_c, 9, 68, 52
11, 90560, Note_off_c, 9, 76, 0
11, 90560, Note_off_c, 9, 68, 0
11, 90568, Note_off_c, 9, 44, 0
11, 90608, Note_on_c, 9, 44, 74
11, 90608, Note_on_c, 9, 76, 31
11, 90612, Note_on_c, 9, 63, 74
11, 90612, Note_on_c, 9, 35, 95
11, 90612, Note_on_c, 9, 59, 34
11, 90648, Note_off_c, 9, 76, 0
11, 90652, Note_off_c, 9, 35, 0
11, 90652, Note_off_c, 9, 63, 0
11, 90656, Note_off_c, 9, 59, 0
11, 90672, Note_off_c, 9, 44, 0
11, 90704, Note_on_c, 9, 44, 45
11, 90704, Note_on_c, 9, 63, 56
11, 90752, Note_off_c, 9, 63, 0
11, 90768, Note_off_c, 9, 44, 0
11, 90800, Note_on_c, 9, 44, 48
11, 90800, Note_on_c, 9, 76, 62
11, 90840, Note_off_c, 9, 44, 0
11, 90840, Note_off_c, 9, 76, 0
11, 90900, Note_on_c, 9, 44, 36
11, 90904, Note_on_c, 9, 68, 39
11, 90904, Note_on_c, 9, 61, 81
11, 90904, Note_on_c, 9, 35, 94
11, 90940, Note_off_c, 9, 35, 0
11, 90944, Note_off_c, 9, 68, 0
11, 90944, Note_off_c, 9, 61, 0
11, 90948, Note_off_c, 9, 44, 0
11, 90992, Note_on_c, 9, 44, 74
11, 90992, Note_on_c, 9, 35, 95
11, 90996, Note_on_c, 9, 76, 34
11, 90996, Note_on_c, 9, 63, 78
11, 90996, Note_on_c, 9, 59, 34
11, 91000, Note_on_c, 9, 41, 83
11, 91032, Note_off_c, 9, 35, 0
11, 91036, Note_off_c, 9, 76, 0
11, 91036, Note_off_c, 9, 63, 0
11, 91036, Note_off_c, 9, 59, 0
11, 91040, Note_off_c, 9, 41, 0
11, 91064, Note_off_c, 9, 44, 0
11, 91088, Note_on_c, 9, 44, 51
11, 91140, Note_off_c, 9, 44, 0
11, 91184, Note_on_c, 9, 44, 51
11, 91184, Note_on_c, 9, 68, 52
11, 91184, Note_on_c, 9, 76, 34
11, 91232, Note_off_c, 9, 44, 0
11, 91232, Note_off_c, 9, 68, 0
11, 91232, Note_off_c, 9, 76, 0
11, 91280, Note_on_c, 9, 44, 36
11, 91280, Note_on_c, 9, 68, 35
11, 91320, Note_off_c, 9, 68, 0
11, 91324, Note_off_c, 9, 44, 0
11, 91376, Note_on_c, 9, 44, 74
11, 91376, Note_on_c, 9, 76, 62
11, 91384, Note_on_c, 9, 35, 89
11, 91384, Note_on_c, 9, 63, 74
11, 91388, Note_on_c, 9, 59, 34
11, 91424, Note_off_c, 9, 76, 0
11, 91424, Note_off_c, 9, 35, 0
11, 91424, Note_off_c, 9, 63, 0
11, 91428, Note_off_c, 9, 59, 0
11, 91448, Note_off_c, 9, 44, 0
11, 91472, Note_on_c, 9, 44, 58
11, 91524, Note_off_c, 9, 44, 0
11, 91568, Note_on_c, 9, 44, 58
11, 91568, Note_on_c, 9, 68, 48
11, 91568, Note_on_c, 9, 76, 31
11, 91608, Note_off_c, 9, 44, 0
11, 91612, Note_off_c, 9, 68, 0
11, 91612, Note_off_c, 9, 76, 0
11, 91664, Note_on_c, 9, 44, 48
11, 91664, Note_on_c, 9, 76, 37
11, 91668, Note_on_c, 9, 61, 74
11, 91668, Note_on_c, 9, 35, 95
11, 91716, Note_off_c, 9, 76, 0
11, 91716, Note_off_c, 9, 61, 0
11, 91720, Note_off_c, 9, 44, 0
11, 91720, Note_off_c, 9, 35, 0
11, 91760, Note_on_c, 9, 44, 70
11, 91760, Note_on_c, 9, 76, 56
11, 91764, Note_on_c, 9, 35, 95
11, 91764, Note_on_c, 9, 63, 81
11, 91764, Note_on_c, 9, 59, 34
11, 91768, Note_on_c, 9, 41, 83
11, 91800, Note_off_c, 9, 76, 0
11, 91800, Note_off_c, 9, 35, 0
11, 91804, Note_off_c, 9, 41, 0
11, 91804, Note_off_c, 9, 63, 0
11, 91804, Note_off_c, 9, 59, 0
11, 91840, Note_off_c, 9, 44, 0
11, 91856, Note_on_c, 9, 44, 24
11, 91856, Note_on_c, 9, 68, 24
11, 91904, Note_off_c, 9, 44, 0
11, 91904, Note_off_c, 9, 68, 0
11, 91952, Note_on_c, 9, 44, 45
11, 91952, Note_on_c, 9, 76, 31
11, 91992, Note_off_c, 9, 76, 0
11, 91996, Note_off_c, 9, 44, 0
11, 92048, Note_on_c, 9, 44, 45
11, 92048, Note_on_c, 9, 76, 31
11, 92048, Note_on_c, 9, 68, 52
11, 92092, Note_off_c, 9, 76, 0
11, 92092, Note_off_c, 9, 68, 0
11, 92104, Note_off_c, 9, 44, 0
11, 92144, Note_on_c, 9, 44, 74
11, 92144, Note_on_c, 9, 35, 95
11, 92148, Note_on_c, 9, 63, 74
11, 92148, Note_on_c, 9, 76, 62
11, 92148, Note_on_c, 9, 59, 34
11, 92184, Note_off_c, 9, 35, 0
11, 92188, Note_off_c, 9, 59, 0
11, 92188, Note_off_c, 9, 63, 0
11, 92188, Note_off_c, 9, 76, 0
11, 92216, Note_off_c, 9, 44, 0
11, 92240, Note_on_c, 9, 44, 28
11, 92240, Note_on_c, 9, 63, 56
11, 92284, Note_off_c, 9, 63, 0
11, 92292, Note_off_c, 9, 44, 0
11, 92336, Note_on_c, 9, 44, 17
11, 92336, Note_on_c, 9, 76, 12
11, 92356, Note_off_c, 9, 44, 0
11, 92376, Note_off_c, 9, 76, 0
11, 92432, Note_on_c, 9, 44, 42
11, 92432, Note_on_c, 9, 35, 94
11, 92436, Note_on_c, 9, 68, 39
11, 92436, Note_on_c, 9, 61, 81
11, 92472, Note_off_c, 9, 35, 0
11, 92480, Note_off_c, 9, 44, 0
11, 92480, Note_off_c, 9, 68, 0
11, 92480, Note_off_c, 9, 61, 0
11, 92528, Note_on_c, 9, 44, 70
11, 92528, Note_on_c, 9, 76, 40
11, 92532, Note_on_c, 9, 63, 78
11, 92532, Note_on_c, 9, 35, 95
11, 92532, Note_on_c, 9, 59, 34
11, 92536, Note_on_c, 9, 41, 83
11, 92572, Note_off_c, 9, 35, 0
11, 92576, Note_off_c, 9, 76, 0
11, 92576, Note_off_c, 9, 63, 0
11, 92580, Note_off_c, 9, 41, 0
11, 92580, Note_off_c, 9, 59, 0
11, 92604, Note_off_c, 9, 44, 0
11, 92624, Note_on_c, 9, 44, 58
11, 92688, Note_off_c, 9, 44, 0
11, 92720, Note_on_c, 9, 44, 62
11, 92720, Note_on_c, 9, 76, 65
11, 92724, Note_on_c, 9, 68, 52
11, 92768, Note_off_c, 9, 76, 0
11, 92768, Note_off_c, 9, 68, 0
11, 92776, Note_off_c, 9, 44, 0
11, 92816, Note_on_c, 9, 44, 27
11, 92816, Note_on_c, 9, 68, 35
11, 92856, Note_off_c, 9, 44, 0
11, 92856, Note_off_c, 9, 68, 0
11, 92916, Note_on_c, 9, 44, 74
11, 92924, Note_on_c, 9, 60, 83
11, 92924, Note_on_c, 9, 76, 46
11, 92928, Note_off_c, 9, 76, 0
11, 92928, Note_on_c, 9, 76, 57
11, 92928, Note_on_c, 9, 63, 74
11, 92928, Note_on_c, 9, 35, 89
11, 92932, Note_on_c, 9, 59, 34
11, 92960, Note_off_c, 9, 60, 0
11, 92960, Note_off_c, 9, 76, 0
11, 92960, Note_off_c, 9, 63, 0
11, 92960, Note_off_c, 9, 35, 0
11, 92964, Note_off_c, 9, 59, 0
11, 92980, Note_off_c, 9, 44, 0
11, 93008, Note_on_c, 9, 44, 36
11, 93008, Note_on_c, 9, 76, 27
11, 93048, Note_off_c, 9, 76, 0
11, 93060, Note_off_c, 9, 44, 0
11, 93104, Note_on_c, 9, 44, 51
11, 93104, Note_on_c, 9, 76, 31
11, 93104, Note_on_c, 9, 68, 48
11, 93144, Note_off_c, 9, 76, 0
11, 93144, Note_off_c, 9, 68, 0
11, 93152, Note_off_c, 9, 44, 0
11, 93200, Note_on_c, 9, 44, 36
11, 93204, Note_on_c, 9, 61, 74
11, 93204, Note_on_c, 9, 76, 34
11, 93204, Note_on_c, 9, 35, 95
11, 93248, Note_off_c, 9, 61, 0
11, 93248, Note_off_c, 9, 76, 0
11, 93252, Note_off_c, 9, 44, 0
11, 93252, Note_off_c, 9, 35, 0
11, 93296, Note_on_c, 9, 44, 62
11, 93296, Note_on_c, 9, 76, 49
11, 93300, Note_on_c, 9, 63, 81
11, 93300, Note_on_c, 9, 35, 95
11, 93304, Note_on_c, 9, 59, 34
11, 93304, Note_on_c, 9, 41, 83
11, 93336, Note_off_c, 9, 76, 0
11, 93340, Note_off_c, 9, 63, 0
11, 93340, Note_off_c, 9, 35, 0
11, 93340, Note_off_c, 9, 59, 0
11, 93344, Note_off_c, 9, 41, 0
11, 93368, Note_off_c, 9, 44, 0
11, 93392, Note_on_c, 9, 44, 36
11, 93392, Note_on_c, 9, 68, 24
11, 93440, Note_off_c, 9, 68, 0
11, 93448, Note_off_c, 9, 44, 0
11, 93488, Note_on_c, 9, 44, 54
11, 93488, Note_on_c, 9, 76, 12
11, 93528, Note_off_c, 9, 76, 0
11, 93540, Note_off_c, 9, 44, 0
11, 93584, Note_on_c, 9, 44, 45
11, 93584, Note_on_c, 9, 76, 28
11, 93584, Note_on_c, 9, 68, 52
11, 93632, Note_off_c, 9, 76, 0
11, 93632, Note_off_c, 9, 68, 0
11, 93640, Note_off_c, 9, 44, 0
11, 93680, Note_on_c, 9, 44, 62
11, 93684, Note_on_c, 9, 76, 31
11, 93684, Note_on_c, 9, 63, 74
11, 93688, Note_on_c, 9, 35, 95
11, 93688, Note_on_c, 9, 59, 34
11, 93720, Note_off_c, 9, 76, 0
11, 93724, Note_off_c, 9, 35, 0
11, 93724, Note_off_c, 9, 59, 0
11, 93724, Note_off_c, 9, 63, 0
11, 93752, Note_off_c, 9, 44, 0
11, 93776, Note_on_c, 9, 44, 34
11, 93776, Note_on_c, 9, 63, 56
11, 93816, Note_off_c, 9, 63, 0
11, 93824, Note_off_c, 9, 44, 0
11, 93872, Note_on_c, 9, 44, 51
11, 93872, Note_on_c, 9, 76, 62
11, 93920, Note_off_c, 9, 76, 0
11, 93924, Note_off_c, 9, 44, 0
11, 93968, Note_on_c, 9, 44, 36
11, 93968, Note_on_c, 9, 61, 81
11, 93972, Note_on_c, 9, 35, 94
11, 93972, Note_on_c, 9, 68, 39
11, 94008, Note_off_c, 9, 61, 0
11, 94012, Note_off_c, 9, 35, 0
11, 94012, Note_off_c, 9, 68, 0
11, 94024, Note_off_c, 9, 44, 0
11, 94064, Note_on_c, 9, 44, 70
11, 94068, Note_on_c, 9, 76, 34
11, 94068, Note_on_c, 9, 35, 95
11, 94068, Note_on_c, 9, 63, 78
11, 94072, Note_on_c, 9, 59, 34
11, 94072, Note_on_c, 9, 41, 83
11, 94112, Note_off_c, 9, 76, 0
11, 94112, Note_off_c, 9, 35, 0
11, 94112, Note_off_c, 9, 63, 0
11, 94116, Note_off_c, 9, 41, 0
11, 94116, Note_off_c, 9, 59, 0
11, 94136, Note_off_c, 9, 44, 0
11, 94160, Note_on_c, 9, 44, 27
11, 94208, Note_off_c, 9, 44, 0
11, 94256, Note_on_c, 9, 44, 48
11, 94256, Note_on_c, 9, 68, 52
11, 94256, Note_on_c, 9, 76, 34
11, 94304, Note_off_c, 9, 44, 0
11, 94304, Note_off_c, 9, 68, 0
11, 94304, Note_off_c, 9, 76, 0
11, 94352, Note_on_c, 9, 44, 34
11, 94356, Note_on_c, 9, 68, 35
11, 94392, Note_off_c, 9, 68, 0
11, 94400, Note_off_c, 9, 44, 0
11, 94448, Note_on_c, 9, 44, 62
11, 94448, Note_on_c, 9, 35, 89
11, 94452, Note_on_c, 9, 76, 62
11, 94452, Note_on_c, 9, 63, 74
11, 94452, Note_on_c, 9, 59, 34
11, 94488, Note_off_c, 9, 35, 0
11, 94492, Note_off_c, 9, 76, 0
11, 94492, Note_off_c, 9, 63, 0
11, 94492, Note_off_c, 9, 59, 0
11, 94512, Note_off_c, 9, 44, 0
11, 94544, Note_on_c, 9, 44, 19
11, 94592, Note_off_c, 9, 44, 0
11, 94640, Note_on_c, 9, 44, 48
11, 94640, Note_on_c, 9, 68, 48
11, 94640, Note_on_c, 9, 76, 31
11, 94680, Note_off_c, 9, 68, 0
11, 94684, Note_off_c, 9, 76, 0
11, 94688, Note_off_c, 9, 44, 0
11, 94740, Note_on_c, 9, 44, 51
11, 94744, Note_on_c, 9, 61, 74
11, 94744, Note_on_c, 9, 35, 95
11, 94744, Note_on_c, 9, 76, 37
11, 94780, Note_off_c, 9, 35, 0
11, 94780, Note_off_c, 9, 76, 0
11, 94784, Note_off_c, 9, 61, 0
11, 94792, Note_off_c, 9, 44, 0
11, 94832, Note_on_c, 9, 44, 70
11, 94832, Note_on_c, 9, 76, 56
11, 94836, Note_on_c, 9, 35, 95
11, 94836, Note_on_c, 9, 63, 81
11, 94836, Note_on_c, 9, 59, 34
11, 94840, Note_on_c, 9, 41, 83
11, 94872, Note_off_c, 9, 76, 0
11, 94876, Note_off_c, 9, 35, 0
11, 94876, Note_off_c, 9, 63, 0
11, 94880, Note_off_c, 9, 41, 0
11, 94880, Note_off_c, 9, 59, 0
11, 94912, Note_off_c, 9, 44, 0
11, 94928, Note_on_c, 9, 44, 31
11, 94928, Note_on_c, 9, 68, 24
11, 94968, Note_off_c, 9, 68, 0
11, 94984, Note_off_c, 9, 44, 0
11, 95024, Note_on_c, 9, 44, 48
11, 95024, Note_on_c, 9, 76, 31
11, 95064, Note_off_c, 9, 44, 0
11, 95068, Note_off_c, 9, 76, 0
11, 95120, Note_on_c, 9, 44, 34
11, 95120, Note_on_c, 9, 76, 31
11, 95120, Note_on_c, 9, 68, 52
11, 95160, Note_off_c, 9, 76, 0
11, 95164, Note_off_c, 9, 68, 0
11, 95168, Note_off_c, 9, 44, 0
11, 95216, Note_on_c, 9, 44, 70
11, 95216, Note_on_c, 9, 63, 74
11, 95220, Note_on_c, 9, 76, 62
11, 95220, Note_on_c, 9, 35, 95
11, 95224, Note_on_c, 9, 59, 34
11, 95264, Note_off_c, 9, 35, 0
11, 95264, Note_off_c, 9, 63, 0
11, 95264, Note_off_c, 9, 76, 0
11, 95268, Note_off_c, 9, 59, 0
11, 95288, Note_off_c, 9, 44, 0
11, 95312, Note_on_c, 9, 44, 42
11, 95312, Note_on_c, 9, 63, 56
11, 95352, Note_off_c, 9, 63, 0
11, 95376, Note_off_c, 9, 44, 0
11, 95408, Note_on_c, 9, 44, 36
11, 95408, Note_on_c, 9, 76, 12
11, 95456, Note_off_c, 9, 44, 0
11, 95456, Note_off_c, 9, 76, 0
11, 95504, Note_on_c, 9, 44, 34
11, 95504, Note_on_c, 9, 68, 39
11, 95508, Note_on_c, 9, 61, 81
11, 95508, Note_on_c, 9, 35, 94
11, 95544, Note_off_c, 9, 68, 0
11, 95548, Note_off_c, 9, 61, 0
11, 95548, Note_off_c, 9, 35, 0
11, 95556, Note_off_c, 9, 44, 0
11, 95600, Note_on_c, 9, 44, 62
11, 95600, Note_on_c, 9, 35, 95
11, 95604, Note_on_c, 9, 63, 78
11, 95604, Note_on_c, 9, 76, 40
11, 95604, Note_on_c, 9, 41, 83
11, 95608, Note_on_c, 9, 59, 34
11, 95640, Note_off_c, 9, 35, 0
11, 95640, Note_off_c, 9, 63, 0
11, 95644, Note_off_c, 9, 41, 0
11, 95644, Note_off_c, 9, 76, 0
11, 95644, Note_off_c, 9, 59, 0
11, 95672, Note_off_c, 9, 44, 0
11, 95696, Note_on_c, 9, 44, 58
11, 95760, Note_off_c, 9, 44, 0
11, 95792, Note_on_c, 9, 44, 62
11, 95792, Note_on_c, 9, 68, 52
11, 95796, Note_on_c, 9, 76, 65
11, 95832, Note_off_c, 9, 68, 0
11, 95836, Note_off_c, 9, 76, 0
11, 95852, Note_off_c, 9, 44, 0
11, 95888, Note_on_c, 9, 44, 36
11, 95888, Note_on_c, 9, 68, 35
11, 95936, Note_off_c, 9, 68, 0
11, 95940, Note_off_c, 9, 44, 0
11, 95980, Note_on_c, 9, 44, 66
11, 95984, Note_on_c, 9, 60, 83
11, 95984, Note_on_c, 9, 76, 46
11, 95984, Note_off_c, 9, 76, 0
11, 95988, Note_on_c, 9, 76, 57
11, 95992, Note_on_c, 9, 63, 74
11, 96000, Note_on_c, 9, 35, 89
11, 96000, Note_on_c, 9, 59, 34
11, 96024, Note_off_c, 9, 60, 0
11, 96028, Note_off_c, 9, 76, 0
11, 96028, Note_off_c, 9, 63, 0
11, 96028, Note_off_c, 9, 35, 0
11, 96032, Note_off_c, 9, 59, 0
11, 96056, Note_off_c, 9, 44, 0
11, 96080, Note_on_c, 9, 44, 51
11, 96080, Note_on_c, 9, 76, 27
11, 96128, Note_off_c, 9, 76, 0
11, 96140, Note_off_c, 9, 44, 0
11, 96176, Note_on_c, 9, 44, 58
11, 96176, Note_on_c, 9, 68, 48
11, 96176, Note_on_c, 9, 76, 31
11, 96216, Note_off_c, 9, 68, 0
11, 96220, Note_off_c, 9, 76, 0
11, 96224, Note_off_c, 9, 44, 0
11, 96272, Note_on_c, 9, 44, 34
11, 96272, Note_on_c, 9, 35, 95
11, 96276, Note_on_c, 9, 61, 74
11, 96276, Note_on_c, 9, 76, 34
11, 96316, Note_off_c, 9, 35, 0
11, 96316, Note_off_c, 9, 61, 0
11, 96316, Note_off_c, 9, 76, 0
11, 96320, Note_off_c, 9, 44, 0
11, 96368, Note_on_c, 9, 44, 66
11, 96372, Note_on_c, 9, 76, 49
11, 96372, Note_on_c, 9, 63, 81
11, 96372, Note_on_c, 9, 35, 95
11, 96376, Note_on_c, 9, 41, 83
11, 96376, Note_on_c, 9, 59, 34
11, 96416, Note_off_c, 9, 76, 0
11, 96420, Note_off_c, 9, 41, 0
11, 96420, Note_off_c, 9, 63, 0
11, 96420, Note_off_c, 9, 35, 0
11, 96424, Note_off_c, 9, 59, 0
11, 96440, Note_off_c, 9, 44, 0
11, 96464, Note_on_c, 9, 44, 39
11, 96464, Note_on_c, 9, 68, 24
11, 96504, Note_off_c, 9, 68, 0
11, 96520, Note_off_c, 9, 44, 0
11, 96560, Note_on_c, 9, 44, 54
11, 96560, Note_on_c, 9, 76, 12
11, 96608, Note_off_c, 9, 44, 0
11, 96608, Note_off_c, 9, 76, 0
11, 96656, Note_on_c, 9, 44, 42
11, 96656, Note_on_c, 9, 76, 28
11, 96656, Note_on_c, 9, 68, 52
11, 96696, Note_off_c, 9, 76, 0
11, 96700, Note_off_c, 9, 68, 0
11, 96712, Note_off_c, 9, 44, 0
11, 96752, Note_on_c, 9, 44, 58
11, 96752, Note_on_c, 9, 76, 31
11, 96756, Note_on_c, 9, 63, 74
11, 96756, Note_on_c, 9, 35, 95
11, 96756, Note_on_c, 9, 59, 34
11, 96796, Note_off_c, 9, 35, 0
11, 96796, Note_off_c, 9, 63, 0
11, 96796, Note_off_c, 9, 76, 0
11, 96800, Note_off_c, 9, 59, 0
11, 96816, Note_off_c, 9, 44, 0
11, 96848, Note_on_c, 9, 44, 48
11, 96848, Note_on_c, 9, 63, 56
11, 96888, Note_off_c, 9, 63, 0
11, 96904, Note_off_c, 9, 44, 0
11, 96944, Note_on_c, 9, 44, 48
11, 96944, Note_on_c, 9, 76, 62
11, 96984, Note_off_c, 9, 76, 0
11, 96988, Note_off_c, 9, 44, 0
11, 97040, Note_on_c, 9, 44, 34
11, 97044, Note_on_c, 9, 35, 94
11, 97044, Note_on_c, 9, 68, 39
11, 97044, Note_on_c, 9, 61, 81
11, 97088, Note_off_c, 9, 35, 0
11, 97088, Note_off_c, 9, 68, 0
11, 97088, Note_off_c, 9, 61, 0
11, 97096, Note_off_c, 9, 44, 0
11, 97136, Note_on_c, 9, 44, 62
11, 97136, Note_on_c, 9, 63, 78
11, 97140, Note_on_c, 9, 76, 34
11, 97140, Note_on_c, 9, 35, 95
11, 97140, Note_on_c, 9, 59, 34
11, 97144, Note_on_c, 9, 41, 83
11, 97176, Note_off_c, 9, 63, 0
11, 97180, Note_off_c, 9, 76, 0
11, 97180, Note_off_c, 9, 35, 0
11, 97184, Note_off_c, 9, 41, 0
11, 97184, Note_off_c, 9, 59, 0
11, 97208, Note_off_c, 9, 44, 0
11, 97232, Note_on_c, 9, 44, 34
11, 97288, Note_off_c, 9, 44, 0
11, 97328, Note_on_c, 9, 44, 58
11, 97332, Note_on_c, 9, 76, 34
11, 97332, Note_on_c, 9, 68, 52
11, 97368, Note_off_c, 9, 76, 0
11, 97372, Note_off_c, 9, 68, 0
11, 97384, Note_off_c, 9, 44, 0
11, 97424, Note_on_c, 9, 44, 39
11, 97424, Note_on_c, 9, 68, 35
11, 97472, Note_off_c, 9, 68, 0
11, 97476, Note_off_c, 9, 44, 0
11, 97520, Note_on_c, 9, 44, 62
11, 97520, Note_on_c, 9, 76, 62
11, 97524, Note_on_c, 9, 35, 89
11, 97524, Note_on_c, 9, 63, 74
11, 97524, Note_on_c, 9, 59, 34
11, 97560, Note_off_c, 9, 76, 0
11, 97564, Note_off_c, 9, 35, 0
11, 97564, Note_off_c, 9, 63, 0
11, 97568, Note_off_c, 9, 59, 0
11, 97592, Note_off_c, 9, 44, 0
11, 97616, Note_on_c, 9, 44, 48
11, 97680, Note_off_c, 9, 44, 0
11, 97712, Note_on_c, 9, 44, 48
11, 97716, Note_on_c, 9, 68, 48
11, 97716, Note_on_c, 9, 76, 31
11, 97760, Note_off_c, 9, 44, 0
11, 97760, Note_off_c, 9, 68, 0
11, 97760, Note_off_c, 9, 76, 0
11, 97812, Note_on_c, 9, 44, 42
11, 97816, Note_on_c, 9, 61, 74
11, 97816, Note_on_c, 9, 35, 95
11, 97816, Note_on_c, 9, 76, 37
11, 97852, Note_off_c, 9, 61, 0
11, 97852, Note_off_c, 9, 35, 0
11, 97852, Note_off_c, 9, 76, 0
11, 97864, Note_off_c, 9, 44, 0
11, 97904, Note_on_c, 9, 44, 62
11, 97904, Note_on_c, 9, 76, 56
11, 97908, Note_on_c, 9, 35, 95
11, 97908, Note_on_c, 9, 63, 81
11, 97908, Note_on_c, 9, 59, 34
11, 97912, Note_on_c, 9, 41, 83
11, 97952, Note_off_c, 9, 76, 0
11, 97956, Note_off_c, 9, 35, 0
11, 97956, Note_off_c, 9, 63, 0
11, 97956, Note_off_c, 9, 59, 0
11, 97960, Note_off_c, 9, 41, 0
11, 97976, Note_off_c, 9, 44, 0
11, 98000, Note_on_c, 9, 44, 36
11, 98000, Note_on_c, 9, 68, 24
11, 98040, Note_off_c, 9, 68, 0
11, 98064, Note_off_c, 9, 44, 0
11, 98096, Note_on_c, 9, 44, 42
11, 98096, Note_on_c, 9, 76, 31
11, 98144, Note_off_c, 9, 76, 0
11, 98148, Note_off_c, 9, 44, 0
11, 98192, Note_on_c, 9, 44, 39
11, 98192, Note_on_c, 9, 76, 31
11, 98192, Note_on_c, 9, 68, 52
11, 98232, Note_off_c, 9, 76, 0
11, 98236, Note_off_c, 9, 68, 0
11, 98248, Note_off_c, 9, 44, 0
11, 98288, Note_on_c, 9, 44, 62
11, 98288, Note_on_c, 9, 35, 95
11, 98292, Note_on_c, 9, 76, 62
11, 98292, Note_on_c, 9, 60, 83
11, 98296, Note_on_c, 9, 63, 74
11, 98300, Note_on_c, 9, 59, 34
11, 98328, Note_off_c, 9, 35, 0
11, 98328, Note_off_c, 9, 76, 0
11, 98332, Note_off_c, 9, 60, 0
11, 98332, Note_off_c, 9, 63, 0
11, 98332, Note_off_c, 9, 59, 0
11, 98356, Note_off_c, 9, 44, 0
11, 98384, Note_on_c, 9, 44, 48
11, 98384, Note_on_c, 9, 63, 56
11, 98428, Note_off_c, 9, 63, 0
11, 98452, Note_off_c, 9, 44, 0
11, 98480, Note_on_c, 9, 44, 34
11, 98480, Note_on_c, 9, 76, 12
11, 98520, Note_off_c, 9, 76, 0
11, 98536, Note_off_c, 9, 44, 0
11, 98576, Note_on_c, 9, 44, 28
11, 98576, Note_on_c, 9, 35, 94
11, 98580, Note_on_c, 9, 68, 39
11, 98580, Note_on_c, 9, 61, 81
11, 98624, Note_off_c, 9, 35, 0
11, 98624, Note_off_c, 9, 68, 0
11, 98624, Note_off_c, 9, 61, 0
11, 98628, Note_off_c, 9, 44, 0
11, 98672, Note_on_c, 9, 44, 62
11, 98672, Note_on_c, 9, 76, 40
11, 98676, Note_on_c, 9, 63, 78
11, 98676, Note_on_c, 9, 35, 95
11, 98676, Note_on_c, 9, 59, 34
11, 98680, Note_on_c, 9, 41, 83
11, 98720, Note_off_c, 9, 76, 0
11, 98720, Note_off_c, 9, 63, 0
11, 98720, Note_off_c, 9, 35, 0
11, 98724, Note_off_c, 9, 41, 0
11, 98724, Note_off_c, 9, 59, 0
11, 98740, Note_off_c, 9, 44, 0
11, 98768, Note_on_c, 9, 44, 45
11, 98820, Note_off_c, 9, 44, 0
11, 98864, Note_on_c, 9, 44, 62
11, 98864, Note_on_c, 9, 76, 65
11, 98864, Note_on_c, 9, 68, 52
11, 98904, Note_off_c, 9, 76, 0
11, 98912, Note_off_c, 9, 68, 0
11, 98920, Note_off_c, 9, 44, 0
11, 98960, Note_on_c, 9, 44, 36
11, 98960, Note_on_c, 9, 68, 35
11, 99008, Note_off_c, 9, 44, 0
11, 99008, Note_off_c, 9, 68, 0
11, 99064, Note_on_c, 9, 44, 58
11, 99068, Note_on_c, 9, 60, 83
11, 99068, Note_on_c, 9, 76, 57
11, 99068, Note_on_c, 9, 63, 74
11, 99072, Note_on_c, 9, 35, 89
11, 99072, Note_on_c, 9, 59, 34
11, 99104, Note_off_c, 9, 60, 0
11, 99104, Note_off_c, 9, 76, 0
11, 99104, Note_off_c, 9, 63, 0
11, 99108, Note_off_c, 9, 35, 0
11, 99108, Note_off_c, 9, 59, 0
11, 99128, Note_off_c, 9, 44, 0
11, 99152, Note_on_c, 9, 44, 31
11, 99152, Note_on_c, 9, 76, 27
11, 99192, Note_off_c, 9, 76, 0
11, 99200, Note_off_c, 9, 44, 0
11, 99248, Note_on_c, 9, 44, 48
11, 99248, Note_on_c, 9, 68, 48
11, 99248, Note_on_c, 9, 76, 31
11, 99296, Note_off_c, 9, 44, 0
11, 99296, Note_off_c, 9, 68, 0
11, 99296, Note_off_c, 9, 76, 0
11, 99344, Note_on_c, 9, 44, 36
11, 99344, Note_on_c, 9, 61, 74
11, 99348, Note_on_c, 9, 76, 34
11, 99348, Note_on_c, 9, 35, 95
11, 99384, Note_off_c, 9, 61, 0
11, 99388, Note_off_c, 9, 76, 0
11, 99388, Note_off_c, 9, 35, 0
11, 99392, Note_off_c, 9, 44, 0
11, 99444, Note_on_c, 9, 44, 62
11, 99448, Note_on_c, 9, 76, 49
11, 99448, Note_on_c, 9, 63, 81
11, 99448, Note_on_c, 9, 35, 95
11, 99452, Note_on_c, 9, 59, 34
11, 99452, Note_on_c, 9, 41, 83
11, 99480, Note_off_c, 9, 76, 0
11, 99480, Note_off_c, 9, 63, 0
11, 99484, Note_off_c, 9, 41, 0
11, 99484, Note_off_c, 9, 35, 0
11, 99484, Note_off_c, 9, 59, 0
11, 99508, Note_off_c, 9, 44, 0
11, 99536, Note_on_c, 9, 44, 36
11, 99536, Note_on_c, 9, 68, 24
11, 99576, Note_off_c, 9, 68, 0
11, 99588, Note_off_c, 9, 44, 0
11, 99632, Note_on_c, 9, 44, 58
11, 99632, Note_on_c, 9, 76, 12
11, 99672, Note_off_c, 9, 76, 0
11, 99684, Note_off_c, 9, 44, 0
11, 99728, Note_on_c, 9, 44, 45
11, 99728, Note_on_c, 9, 76, 28
11, 99732, Note_on_c, 9, 68, 52
11, 99776, Note_off_c, 9, 76, 0
11, 99776, Note_off_c, 9, 68, 0
11, 99784, Note_off_c, 9, 44, 0
11, 99828, Note_on_c, 9, 44, 66
11, 99832, Note_on_c, 9, 35, 95
11, 99836, Note_on_c, 9, 63, 74
11, 99836, Note_on_c, 9, 76, 31
11, 99836, Note_on_c, 9, 60, 83
11, 99840, Note_on_c, 9, 59, 34
11, 99864, Note_off_c, 9, 35, 0
11, 99868, Note_off_c, 9, 63, 0
11, 99868, Note_off_c, 9, 76, 0
11, 99868, Note_off_c, 9, 60, 0
11, 99872, Note_off_c, 9, 59, 0
11, 99892, Note_off_c, 9, 44, 0
11, 99920, Note_on_c, 9, 44, 34
11, 99920, Note_on_c, 9, 63, 56
11, 99968, Note_off_c, 9, 44, 0
11, 99968, Note_off_c, 9, 63, 0
11, 100016, Note_on_c, 9, 44, 58
11, 100016, Note_on_c, 9, 76, 62
11, 100056, Note_off_c, 9, 44, 0
11, 100060, Note_off_c, 9, 76, 0
11, 100112, Note_on_c, 9, 44, 27
11, 100112, Note_on_c, 9, 35, 94
11, 100116, Note_on_c, 9, 68, 39
11, 100116, Note_on_c, 9, 61, 81
11, 100152, Note_off_c, 9, 35, 0
11, 100152, Note_off_c, 9, 68, 0
11, 100156, Note_off_c, 9, 44, 0
11, 100156, Note_off_c, 9, 61, 0
11, 100212, Note_on_c, 9, 44, 62
11, 100212, Note_on_c, 9, 63, 78
11, 100212, Note_on_c, 9, 76, 34
11, 100216, Note_on_c, 9, 35, 95
11, 100216, Note_on_c, 9, 41, 83
11, 100216, Note_on_c, 9, 59, 34
11, 100252, Note_off_c, 9, 63, 0
11, 100252, Note_off_c, 9, 76, 0
11, 100252, Note_off_c, 9, 35, 0
11, 100256, Note_off_c, 9, 41, 0
11, 100256, Note_off_c, 9, 59, 0
11, 100280, Note_off_c, 9, 44, 0
11, 100304, Note_on_c, 9, 44, 14
11, 100304, Note_on_c, 9, 35, 95
11, 100308, Note_on_c, 9, 60, 76
11, 100344, Note_off_c, 9, 44, 0
11, 100344, Note_off_c, 9, 35, 0
11, 100348, Note_off_c, 9, 60, 0
11, 100400, Note_on_c, 9, 44, 39
11, 100400, Note_on_c, 9, 68, 52
11, 100400, Note_on_c, 9, 76, 34
11, 100404, Note_on_c, 9, 41, 58
11, 100440, Note_off_c, 9, 44, 0
11, 100444, Note_off_c, 9, 68, 0
11, 100444, Note_off_c, 9, 76, 0
11, 100448, Note_off_c, 9, 41, 0
11, 100496, Note_on_c, 9, 44, 27
11, 100496, Note_on_c, 9, 68, 35
11, 100496, Note_on_c, 9, 41, 82
11, 100532, Note_off_c, 9, 44, 0
11, 100536, Note_off_c, 9, 68, 0
11, 100540, Note_off_c, 9, 41, 0
11, 100604, Note_on_c, 9, 44, 66
11, 100604, Note_on_c, 9, 35, 89
11, 100604, Note_on_c, 9, 63, 74
11, 100604, Note_on_c, 9, 60, 83
11, 100604, Note_on_c, 9, 59, 34
11, 100640, Note_off_c, 9, 35, 0
11, 100640, Note_off_c, 9, 63, 0
11, 100640, Note_off_c, 9, 60, 0
11, 100644, Note_off_c, 9, 59, 0
11, 100660, Note_off_c, 9, 44, 0
11, 100688, Note_on_c, 9, 44, 13
11, 100728, Note_off_c, 9, 44, 0
11, 100772, Pitch_bend_c, 9, 8064
11, 100776, Pitch_bend_c, 9, 7808
11, 100784, Note_on_c, 9, 44, 48
11, 100784, Note_on_c, 9, 68, 48
11, 100804, Pitch_bend_c, 9, 7423
11, 100816, Pitch_bend_c, 9, 6912
11, 100824, Note_off_c, 9, 68, 0
11, 100832, Note_off_c, 9, 44, 0
11, 100832, Pitch_bend_c, 9, 6528
11, 100852, Pitch_bend_c, 9, 6272
11, 100856, Pitch_bend_c, 9, 6143
11, 100876, Pitch_bend_c, 9, 5759
11, 100888, Note_on_c, 9, 44, 31
11, 100888, Note_on_c, 9, 35, 95
11, 100888, Note_on_c, 9, 61, 74
11, 100892, Pitch_bend_c, 9, 5504
11, 100900, Pitch_bend_c, 9, 5247
11, 100920, Pitch_bend_c, 9, 4864
11, 100928, Note_off_c, 9, 35, 0
11, 100928, Note_off_c, 9, 61, 0
11, 100932, Note_off_c, 9, 44, 0
11, 100932, Pitch_bend_c, 9, 4480
11, 100948, Pitch_bend_c, 9, 4223
11, 100952, Pitch_bend_c, 9, 3967
11, 100964, Pitch_bend_c, 9, 3712
11, 100968, Note_on_c, 9, 44, 54
11, 100972, Note_on_c, 9, 35, 95
11, 100976, Note_on_c, 9, 63, 81
11, 100980, Note_on_c, 9, 59, 34
11, 100980, Note_on_c, 9, 41, 83
11, 100984, Pitch_bend_c, 9, 3456
11, 100996, Pitch_bend_c, 9, 3071
11, 101016, Note_off_c, 9, 35, 0
11, 101020, Note_off_c, 9, 63, 0
11, 101024, Note_off_c, 9, 41, 0
11, 101024, Note_off_c, 9, 59, 0
11, 101028, Pitch_bend_c, 9, 2816
11, 101032, Pitch_bend_c, 9, 2560
11, 101044, Note_off_c, 9, 44, 0
11, 101052, Pitch_bend_c, 9, 2176
11, 101076, Note_on_c, 9, 44, 19
11, 101080, Note_on_c, 9, 68, 24
11, 101080, Pitch_bend_c, 9, 1792
11, 101088, Pitch_bend_c, 9, 1663
11, 101088, Pitch_bend_c, 9, 1279
11, 101100, Pitch_bend_c, 9, 1024
11, 101112, Note_off_c, 9, 68, 0
11, 101112, Pitch_bend_c, 9, 640
11, 101116, Note_off_c, 9, 44, 0
11, 101116, Pitch_bend_c, 9, 383
11, 101120, Pitch_bend_c, 9, 127
11, 101140, Pitch_bend_c, 9, 0
11, 101168, Note_on_c, 9, 44, 51
11, 101212, Note_off_c, 9, 44, 0
11, 101264, Note_on_c, 9, 44, 28
11, 101268, Note_on_c, 9, 68, 52
11, 101308, Note_off_c, 9, 44, 0
11, 101308, Note_off_c, 9, 68, 0
11, 101360, Note_on_c, 9, 44, 62
11, 101364, Note_on_c, 9, 63, 74
11, 101364, Note_on_c, 9, 35, 95
11, 101364, Note_on_c, 9, 59, 34
11, 101400, Note_off_c, 9, 63, 0
11, 101404, Note_off_c, 9, 35, 0
11, 101404, Note_off_c, 9, 59, 0
11, 101428, Note_off_c, 9, 44, 0
11, 101456, Note_on_c, 9, 44, 28
11, 101460, Note_on_c, 9, 63, 56
11, 101496, Note_off_c, 9, 63, 0
11, 101508, Note_off_c, 9, 44, 0
11, 101560, Note_on_c, 9, 44, 45
11, 101572, Pitch_bend_c, 9, 255
11, 101572, Pitch_bend_c, 9, 1152
11, 101588, Pitch_bend_c, 9, 2048
11, 101592, Note_off_c, 9, 44, 0
11, 101596, Pitch_bend_c, 9, 2944
11, 101608, Pitch_bend_c, 9, 3839
11, 101612, Pitch_bend_c, 9, 4736
11, 101624, Pitch_bend_c, 9, 6911
11, 101628, Pitch_bend_c, 9, 8192
11, 101648, Note_on_c, 9, 44, 36
11, 101648, Note_on_c, 9, 35, 94
11, 101648, Note_on_c, 9, 68, 39
11, 101652, Note_on_c, 9, 61, 81
11, 101688, Note_off_c, 9, 35, 0
11, 101692, Note_off_c, 9, 68, 0
11, 101692, Note_off_c, 9, 61, 0
11, 101696, Note_off_c, 9, 44, 0
11, 101748, Note_on_c, 9, 44, 62
11, 101752, Note_on_c, 9, 35, 95
11, 101752, Note_on_c, 9, 63, 78
11, 101752, Note_on_c, 9, 41, 83
11, 101756, Note_on_c, 9, 59, 34
11, 101788, Note_off_c, 9, 41, 0
11, 101792, Note_off_c, 9, 35, 0
11, 101792, Note_off_c, 9, 63, 0
11, 101792, Note_off_c, 9, 59, 0
11, 101812, Note_off_c, 9, 44, 0
11, 101840, Note_on_c, 9, 44, 27
11, 101896, Note_off_c, 9, 44, 0
11, 101936, Note_on_c, 9, 44, 58
11, 101940, Note_on_c, 9, 68, 52
11, 101972, Note_off_c, 9, 68, 0
11, 101988, Note_off_c, 9, 44, 0
11, 102036, Note_on_c, 9, 44, 28
11, 102040, Note_on_c, 9, 68, 35
11, 102072, Note_off_c, 9, 68, 0
11, 102080, Note_off_c, 9, 44, 0
11, 102128, Note_on_c, 9, 44, 62
11, 102132, Note_on_c, 9, 35, 89
11, 102132, Note_on_c, 9, 59, 34
11, 102136, Note_on_c, 9, 63, 74
11, 102168, Note_off_c, 9, 35, 0
11, 102172, Note_off_c, 9, 59, 0
11, 102172, Note_off_c, 9, 63, 0
11, 102196, Note_off_c, 9, 44, 0
11, 102224, Note_on_c, 9, 44, 27
11, 102276, Note_off_c, 9, 44, 0
11, 102324, Note_on_c, 9, 44, 45
11, 102324, Note_on_c, 9, 68, 48
11, 102360, Note_off_c, 9, 44, 0
11, 102364, Note_off_c, 9, 68, 0
11, 102416, Note_on_c, 9, 44, 34
11, 102416, Note_on_c, 9, 35, 95
11, 102416, Note_on_c, 9, 61, 74
11, 102460, Note_off_c, 9, 35, 0
11, 102468, Note_off_c, 9, 61, 0
11, 102472, Note_off_c, 9, 44, 0
11, 102520, Note_on_c, 9, 44, 66
11, 102520, Note_on_c, 9, 35, 95
11, 102524, Note_on_c, 9, 63, 81
11, 102524, Note_on_c, 9, 59, 34
11, 102524, Note_on_c, 9, 41, 83
11, 102552, Note_off_c, 9, 35, 0
11, 102556, Note_off_c, 9, 59, 0
11, 102560, Note_off_c, 9, 41, 0
11, 102560, Note_off_c, 9, 63, 0
11, 102580, Note_off_c, 9, 44, 0
11, 102608, Note_on_c, 9, 44, 42
11, 102612, Note_on_c, 9, 68, 24
11, 102652, Note_off_c, 9, 68, 0
11, 102672, Note_off_c, 9, 44, 0
11, 102704, Note_on_c, 9, 44, 62
11, 102756, Note_off_c, 9, 44, 0
11, 102800, Note_on_c, 9, 44, 45
11, 102804, Note_on_c, 9, 68, 52
11, 102840, Note_off_c, 9, 68, 0
11, 102860, Note_off_c, 9, 44, 0
11, 102892, Note_on_c, 9, 44, 58
11, 102896, Note_on_c, 9, 35, 95
11, 102896, Note_on_c, 9, 63, 74
11, 102900, Note_on_c, 9, 59, 34
11, 102940, Note_off_c, 9, 35, 0
11, 102940, Note_off_c, 9, 59, 0
11, 102940, Note_off_c, 9, 63, 0
11, 102968, Note_off_c, 9, 44, 0
11, 102992, Note_on_c, 9, 44, 21
11, 102996, Note_on_c, 9, 63, 56
11, 103032, Note_off_c, 9, 63, 0
11, 103056, Note_off_c, 9, 44, 0
11, 103088, Note_on_c, 9, 44, 48
11, 103136, Note_off_c, 9, 44, 0
11, 103184, Note_on_c, 9, 44, 39
11, 103188, Note_on_c, 9, 68, 39
11, 103188, Note_on_c, 9, 61, 81
11, 103188, Note_on_c, 9, 35, 94
11, 103224, Note_off_c, 9, 68, 0
11, 103228, Note_off_c, 9, 61, 0
11, 103228, Note_off_c, 9, 35, 0
11, 103236, Note_off_c, 9, 44, 0
11, 103280, Note_on_c, 9, 44, 70
11, 103280, Note_on_c, 9, 63, 78
11, 103284, Note_on_c, 9, 35, 95
11, 103284, Note_on_c, 9, 59, 34
11, 103284, Note_on_c, 9, 41, 83
11, 103328, Note_off_c, 9, 63, 0
11, 103328, Note_off_c, 9, 35, 0
11, 103328, Note_off_c, 9, 59, 0
11, 103332, Note_off_c, 9, 41, 0
11, 103352, Note_off_c, 9, 44, 0
11, 103376, Note_on_c, 9, 44, 48
11, 103440, Note_off_c, 9, 44, 0
11, 103472, Note_on_c, 9, 44, 48
11, 103476, Note_on_c, 9, 68, 52
11, 103512, Note_off_c, 9, 68, 0
11, 103524, Note_off_c, 9, 44, 0
11, 103568, Note_on_c, 9, 44, 45
11, 103568, Note_on_c, 9, 68, 35
11, 103616, Note_off_c, 9, 68, 0
11, 103628, Note_off_c, 9, 44, 0
11, 103664, Note_on_c, 9, 44, 58
11, 103668, Note_on_c, 9, 63, 74
11, 103668, Note_on_c, 9, 35, 89
11, 103672, Note_on_c, 9, 59, 34
11, 103704, Note_off_c, 9, 63, 0
11, 103708, Note_off_c, 9, 35, 0
11, 103712, Note_off_c, 9, 59, 0
11, 103736, Note_off_c, 9, 44, 0
11, 103760, Note_on_c, 9, 44, 48
11, 103824, Note_off_c, 9, 44, 0
11, 103856, Note_on_c, 9, 44, 48
11, 103856, Note_on_c, 9, 68, 48
11, 103896, Note_off_c, 9, 44, 0
11, 103896, Note_off_c, 9, 68, 0
11, 103952, Note_on_c, 9, 44, 48
11, 103956, Note_on_c, 9, 35, 95
11, 103956, Note_on_c, 9, 61, 74
11, 103992, Note_off_c, 9, 35, 0
11, 103992, Note_off_c, 9, 61, 0
11, 104020, Note_off_c, 9, 44, 0
11, 104048, Note_on_c, 9, 44, 74
11, 104048, Note_on_c, 9, 35, 95
11, 104048, Note_on_c, 9, 63, 81
11, 104052, Note_on_c, 9, 59, 34
11, 104052, Note_on_c, 9, 41, 83
11, 104088, Note_off_c, 9, 35, 0
11, 104092, Note_off_c, 9, 41, 0
11, 104092, Note_off_c, 9, 63, 0
11, 104092, Note_off_c, 9, 59, 0
11, 104124, Note_off_c, 9, 44, 0
11, 104144, Note_on_c, 9, 44, 27
11, 104148, Note_on_c, 9, 68, 24
11, 104184, Note_off_c, 9, 68, 0
11, 104192, Note_off_c, 9, 44, 0
11, 104244, Note_on_c, 9, 44, 39
11, 104288, Note_off_c, 9, 44, 0
11, 104340, Note_on_c, 9, 44, 45
11, 104344, Note_on_c, 9, 68, 52
11, 104376, Note_off_c, 9, 68, 0
11, 104408, Note_off_c, 9, 44, 0
11, 104440, Note_on_c, 9, 44, 70
11, 104440, Note_on_c, 9, 63, 74
11, 104440, Note_on_c, 9, 35, 95
11, 104444, Note_on_c, 9, 59, 34
11, 104480, Note_off_c, 9, 63, 0
11, 104484, Note_off_c, 9, 35, 0
11, 104484, Note_off_c, 9, 59, 0
11, 104516, Note_off_c, 9, 44, 0
11, 104528, Note_on_c, 9, 44, 15
11, 104532, Note_on_c, 9, 63, 56
11, 104568, Note_off_c, 9, 63, 0
11, 104592, Note_off_c, 9, 44, 0
11, 104624, Note_on_c, 9, 44, 51
11, 104684, Note_off_c, 9, 44, 0
11, 104720, Note_on_c, 9, 44, 42
11, 104720, Note_on_c, 9, 35, 94
11, 104720, Note_on_c, 9, 68, 39
11, 104724, Note_on_c, 9, 61, 81
11, 104764, Note_off_c, 9, 61, 0
11, 104768, Note_off_c, 9, 35, 0
11, 104768, Note_off_c, 9, 68, 0
11, 104776, Note_off_c, 9, 44, 0
11, 104816, Note_on_c, 9, 44, 62
11, 104820, Note_on_c, 9, 63, 78
11, 104820, Note_on_c, 9, 35, 95
11, 104824, Note_on_c, 9, 41, 83
11, 104824, Note_on_c, 9, 59, 34
11, 104856, Note_off_c, 9, 63, 0
11, 104860, Note_off_c, 9, 41, 0
11, 104860, Note_off_c, 9, 35, 0
11, 104860, Note_off_c, 9, 59, 0
11, 104888, Note_off_c, 9, 44, 0
11, 104912, Note_on_c, 9, 44, 62
11, 104980, Note_off_c, 9, 44, 0
11, 105008, Note_on_c, 9, 44, 58
11, 105012, Note_on_c, 9, 68, 52
11, 105048, Note_off_c, 9, 68, 0
11, 105072, Note_off_c, 9, 44, 0
11, 105104, Note_on_c, 9, 44, 39
11, 105108, Note_on_c, 9, 68, 35
11, 105152, Note_off_c, 9, 68, 0
11, 105176, Note_off_c, 9, 44, 0
11, 105200, Note_on_c, 9, 44, 58
11, 105204, Note_on_c, 9, 35, 89
11, 105204, Note_on_c, 9, 63, 74
11, 105204, Note_on_c, 9, 59, 34
11, 105240, Note_off_c, 9, 35, 0
11, 105244, Note_off_c, 9, 63, 0
11, 105244, Note_off_c, 9, 59, 0
11, 105272, Note_off_c, 9, 44, 0
11, 105296, Note_on_c, 9, 44, 45
11, 105360, Note_off_c, 9, 44, 0
11, 105392, Note_on_c, 9, 44, 45
11, 105396, Note_on_c, 9, 68, 48
11, 105440, Note_off_c, 9, 68, 0
11, 105448, Note_off_c, 9, 44, 0
11, 105488, Note_on_c, 9, 44, 45
11, 105492, Note_on_c, 9, 35, 95
11, 105492, Note_on_c, 9, 61, 74
11, 105528, Note_off_c, 9, 35, 0
11, 105532, Note_off_c, 9, 61, 0
11, 105552, Note_off_c, 9, 44, 0
11, 105588, Note_on_c, 9, 44, 70
11, 105592, Note_on_c, 9, 63, 81
11, 105592, Note_on_c, 9, 35, 95
11, 105596, Note_on_c, 9, 41, 83
11, 105596, Note_on_c, 9, 59, 34
11, 105632, Note_off_c, 9, 41, 0
11, 105632, Note_off_c, 9, 63, 0
11, 105632, Note_off_c, 9, 35, 0
11, 105636, Note_off_c, 9, 59, 0
11, 105656, Note_off_c, 9, 44, 0
11, 105680, Note_on_c, 9, 44, 34
11, 105684, Note_on_c, 9, 68, 24
11, 105720, Note_off_c, 9, 68, 0
11, 105732, Note_off_c, 9, 44, 0
11, 105780, Note_on_c, 9, 44, 58
11, 105832, Note_off_c, 9, 44, 0
11, 105872, Note_on_c, 9, 44, 42
11, 105876, Note_on_c, 9, 68, 52
11, 105912, Note_off_c, 9, 68, 0
11, 105940, Note_off_c, 9, 44, 0
11, 105968, Note_on_c, 9, 44, 66
11, 105972, Note_on_c, 9, 63, 74
11, 105972, Note_on_c, 9, 35, 95
11, 105972, Note_on_c, 9, 59, 34
11, 106008, Note_off_c, 9, 63, 0
11, 106012, Note_off_c, 9, 35, 0
11, 106012, Note_off_c, 9, 59, 0
11, 106040, Note_off_c, 9, 44, 0
11, 106064, Note_on_c, 9, 44, 48
11, 106064, Note_on_c, 9, 63, 56
11, 106112, Note_off_c, 9, 63, 0
11, 106128, Note_off_c, 9, 44, 0
11, 106160, Note_on_c, 9, 44, 51
11, 106208, Note_off_c, 9, 44, 0
11, 106256, Note_on_c, 9, 44, 45
11, 106256, Note_on_c, 9, 35, 94
11, 106256, Note_on_c, 9, 68, 39
11, 106260, Note_on_c, 9, 61, 81
11, 106304, Note_off_c, 9, 35, 0
11, 106304, Note_off_c, 9, 68, 0
11, 106304, Note_off_c, 9, 61, 0
11, 106308, Note_off_c, 9, 44, 0
11, 106352, Note_on_c, 9, 44, 74
11, 106356, Note_on_c, 9, 63, 78
11, 106356, Note_on_c, 9, 35, 95
11, 106356, Note_on_c, 9, 59, 34
11, 106360, Note_on_c, 9, 41, 83
11, 106392, Note_off_c, 9, 63, 0
11, 106396, Note_off_c, 9, 35, 0
11, 106400, Note_off_c, 9, 59, 0
11, 106404, Note_off_c, 9, 41, 0
11, 106416, Note_off_c, 9, 44, 0
11, 106448, Note_on_c, 9, 44, 45
11, 106504, Note_off_c, 9, 44, 0
11, 106544, Note_on_c, 9, 44, 48
11, 106548, Note_on_c, 9, 68, 52
11, 106584, Note_off_c, 9, 44, 0
11, 106584, Note_off_c, 9, 68, 0
11, 106640, Note_on_c, 9, 44, 45
11, 106640, Note_on_c, 9, 68, 35
11, 106680, Note_off_c, 9, 68, 0
11, 106696, Note_off_c, 9, 44, 0
11, 106736, Note_on_c, 9, 44, 70
11, 106736, Note_on_c, 9, 35, 89
11, 106744, Note_on_c, 9, 59, 34
11, 106744, Note_on_c, 9, 63, 74
11, 106784, Note_off_c, 9, 35, 0
11, 106788, Note_off_c, 9, 59, 0
11, 106788, Note_off_c, 9, 63, 0
11, 106808, Note_off_c, 9, 44, 0
11, 106832, Note_on_c, 9, 44, 15
11, 106872, Note_off_c, 9, 44, 0
11, 106928, Note_on_c, 9, 44, 34
11, 106928, Note_on_c, 9, 68, 48
11, 106960, Note_off_c, 9, 44, 0
11, 106976, Note_off_c, 9, 68, 0
11, 107024, Note_on_c, 9, 44, 48
11, 107028, Note_on_c, 9, 35, 95
11, 107032, Note_on_c, 9, 61, 74
11, 107064, Note_off_c, 9, 35, 0
11, 107068, Note_off_c, 9, 61, 0
11, 107092, Note_off_c, 9, 44, 0
11, 107120, Note_on_c, 9, 44, 70
11, 107120, Note_on_c, 9, 63, 81
11, 107124, Note_on_c, 9, 35, 95
11, 107124, Note_on_c, 9, 59, 34
11, 107124, Note_on_c, 9, 41, 83
11, 107168, Note_off_c, 9, 63, 0
11, 107168, Note_off_c, 9, 35, 0
11, 107168, Note_off_c, 9, 59, 0
11, 107172, Note_off_c, 9, 41, 0
11, 107192, Note_off_c, 9, 44, 0
11, 107216, Note_on_c, 9, 44, 31
11, 107216, Note_on_c, 9, 68, 24
11, 107256, Note_off_c, 9, 68, 0
11, 107284, Note_off_c, 9, 44, 0
11, 107312, Note_on_c, 9, 44, 48
11, 107360, Note_off_c, 9, 44, 0
11, 107408, Note_on_c, 9, 44, 48
11, 107408, Note_on_c, 9, 68, 52
11, 107456, Note_off_c, 9, 68, 0
11, 107480, Note_off_c, 9, 44, 0
11, 107504, Note_on_c, 9, 44, 74
11, 107504, Note_on_c, 9, 35, 95
11, 107508, Note_on_c, 9, 63, 74
11, 107508, Note_on_c, 9, 59, 34
11, 107544, Note_off_c, 9, 35, 0
11, 107548, Note_off_c, 9, 59, 0
11, 107548, Note_off_c, 9, 63, 0
11, 107584, Note_off_c, 9, 44, 0
11, 107600, Note_on_c, 9, 44, 48
11, 107600, Note_on_c, 9, 63, 56
11, 107648, Note_off_c, 9, 63, 0
11, 107672, Note_off_c, 9, 44, 0
11, 107696, Note_on_c, 9, 44, 58
11, 107748, Note_off_c, 9, 44, 0
11, 107792, Note_on_c, 9, 44, 45
11, 107792, Note_on_c, 9, 68, 39
11, 107796, Note_on_c, 9, 61, 81
11, 107796, Note_on_c, 9, 35, 94
11, 107836, Note_off_c, 9, 35, 0
11, 107840, Note_off_c, 9, 68, 0
11, 107840, Note_off_c, 9, 61, 0
11, 107860, Note_off_c, 9, 44, 0
11, 107888, Note_on_c, 9, 44, 74
11, 107888, Note_on_c, 9, 35, 95
11, 107892, Note_on_c, 9, 63, 78
11, 107892, Note_on_c, 9, 41, 83
11, 107892, Note_on_c, 9, 59, 34
11, 107928, Note_off_c, 9, 35, 0
11, 107932, Note_off_c, 9, 41, 0
11, 107932, Note_off_c, 9, 63, 0
11, 107932, Note_off_c, 9, 59, 0
11, 107964, Note_off_c, 9, 44, 0
11, 107984, Note_on_c, 9, 44, 48
11, 108052, Note_off_c, 9, 44, 0
11, 108080, Note_on_c, 9, 44, 62
11, 108080, Note_on_c, 9, 68, 52
11, 108124, Note_off_c, 9, 68, 0
11, 108136, Note_off_c, 9, 44, 0
11, 108176, Note_on_c, 9, 44, 42
11, 108176, Note_on_c, 9, 68, 35
11, 108216, Note_off_c, 9, 68, 0
11, 108240, Note_off_c, 9, 44, 0
11, 108272, Note_on_c, 9, 44, 62
11, 108272, Note_on_c, 9, 63, 74
11, 108276, Note_on_c, 9, 35, 89
11, 108276, Note_on_c, 9, 59, 34
11, 108316, Note_off_c, 9, 63, 0
11, 108316, Note_off_c, 9, 35, 0
11, 108316, Note_off_c, 9, 59, 0
11, 108344, Note_off_c, 9, 44, 0
11, 108368, Note_on_c, 9, 44, 42
11, 108436, Note_off_c, 9, 44, 0
11, 108464, Note_on_c, 9, 44, 48
11, 108464, Note_on_c, 9, 68, 48
11, 108504, Note_off_c, 9, 68, 0
11, 108520, Note_off_c, 9, 44, 0
11, 108560, Note_on_c, 9, 44, 42
11, 108560, Note_on_c, 9, 35, 95
11, 108564, Note_on_c, 9, 61, 74
11, 108600, Note_off_c, 9, 35, 0
11, 108604, Note_off_c, 9, 61, 0
11, 108616, Note_off_c, 9, 44, 0
11, 108660, Note_on_c, 9, 44, 70
11, 108664, Note_on_c, 9, 63, 81
11, 108664, Note_on_c, 9, 35, 95
11, 108664, Note_on_c, 9, 59, 34
11, 108668, Note_on_c, 9, 41, 83
11, 108696, Note_off_c, 9, 63, 0
11, 108700, Note_off_c, 9, 41, 0
11, 108700, Note_off_c, 9, 35, 0
11, 108700, Note_off_c, 9, 59, 0
11, 108732, Note_off_c, 9, 44, 0
11, 108752, Note_on_c, 9, 44, 42
11, 108752, Note_on_c, 9, 68, 24
11, 108800, Note_off_c, 9, 68, 0
11, 108808, Note_off_c, 9, 44, 0
11, 108848, Note_on_c, 9, 44, 62
11, 108900, Note_off_c, 9, 44, 0
11, 108944, Note_on_c, 9, 44, 36
11, 108948, Note_on_c, 9, 68, 52
11, 108992, Note_off_c, 9, 68, 0
11, 109000, Note_off_c, 9, 44, 0
11, 109040, Note_on_c, 9, 44, 66
11, 109040, Note_on_c, 9, 35, 95
11, 109044, Note_on_c, 9, 63, 74
11, 109044, Note_on_c, 9, 59, 34
11, 109080, Note_off_c, 9, 35, 0
11, 109084, Note_off_c, 9, 59, 0
11, 109084, Note_off_c, 9, 63, 0
11, 109112, Note_off_c, 9, 44, 0
11, 109136, Note_on_c, 9, 44, 45
11, 109136, Note_on_c, 9, 63, 56
11, 109176, Note_off_c, 9, 63, 0
11, 109204, Note_off_c, 9, 44, 0
11, 109232, Note_on_c, 9, 44, 45
11, 109276, Note_off_c, 9, 44, 0
11, 109328, Note_on_c, 9, 44, 42
11, 109328, Note_on_c, 9, 68, 39
11, 109332, Note_on_c, 9, 61, 81
11, 109332, Note_on_c, 9, 35, 94
11, 109368, Note_off_c, 9, 68, 0
11, 109372, Note_off_c, 9, 61, 0
11, 109372, Note_off_c, 9, 35, 0
11, 109384, Note_off_c, 9, 44, 0
11, 109424, Note_on_c, 9, 44, 70
11, 109424, Note_on_c, 9, 63, 78
11, 109428, Note_on_c, 9, 35, 95
11, 109428, Note_on_c, 9, 59, 34
11, 109428, Note_on_c, 9, 41, 83
11, 109472, Note_off_c, 9, 63, 0
11, 109472, Note_off_c, 9, 35, 0
11, 109472, Note_off_c, 9, 59, 0
11, 109476, Note_off_c, 9, 41, 0
11, 109496, Note_off_c, 9, 44, 0
11, 109520, Note_on_c, 9, 44, 58
11, 109592, Note_off_c, 9, 44, 0
11, 109616, Note_on_c, 9, 44, 62
11, 109616, Note_on_c, 9, 68, 52
11, 109660, Note_off_c, 9, 68, 0
11, 109672, Note_off_c, 9, 44, 0
11, 109712, Note_on_c, 9, 44, 36
11, 109712, Note_on_c, 9, 68, 35
11, 109752, Note_off_c, 9, 68, 0
11, 109756, Note_off_c, 9, 44, 0
11, 109808, Note_on_c, 9, 44, 58
11, 109808, Note_on_c, 9, 63, 74
11, 109812, Note_on_c, 9, 35, 89
11, 109812, Note_on_c, 9, 59, 34
11, 109848, Note_off_c, 9, 63, 0
11, 109848, Note_off_c, 9, 35, 0
11, 109848, Note_off_c, 9, 59, 0
11, 109876, Note_off_c, 9, 44, 0
11, 109904, Note_on_c, 9, 44, 27
11, 109960, Note_off_c, 9, 44, 0
11, 110000, Note_on_c, 9, 44, 51
11, 110004, Note_on_c, 9, 68, 48
11, 110040, Note_off_c, 9, 68, 0
11, 110048, Note_off_c, 9, 44, 0
11, 110096, Note_on_c, 9, 44, 58
11, 110096, Note_on_c, 9, 35, 95
11, 110100, Note_on_c, 9, 61, 74
11, 110144, Note_off_c, 9, 35, 0
11, 110144, Note_off_c, 9, 61, 0
11, 110160, Note_off_c, 9, 44, 0
11, 110188, Note_on_c, 9, 44, 70
11, 110192, Note_on_c, 9, 35, 95
11, 110192, Note_on_c, 9, 63, 81
11, 110192, Note_on_c, 9, 59, 34
11, 110196, Note_on_c, 9, 41, 83
11, 110232, Note_off_c, 9, 35, 0
11, 110236, Note_off_c, 9, 41, 0
11, 110236, Note_off_c, 9, 63, 0
11, 110236, Note_off_c, 9, 59, 0
11, 110264, Note_off_c, 9, 44, 0
11, 110288, Note_on_c, 9, 44, 51
11, 110292, Note_on_c, 9, 68, 24
11, 110336, Note_off_c, 9, 68, 0
11, 110340, Note_off_c, 9, 44, 0
11, 110384, Note_on_c, 9, 44, 51
11, 110436, Note_off_c, 9, 44, 0
11, 110480, Note_on_c, 9, 44, 42
11, 110480, Note_on_c, 9, 68, 52
11, 110520, Note_off_c, 9, 68, 0
11, 110524, Note_off_c, 9, 44, 0
11, 110580, Note_on_c, 9, 44, 62
11, 110584, Note_on_c, 9, 63, 74
11, 110584, Note_on_c, 9, 35, 95
11, 110584, Note_on_c, 9, 59, 34
11, 110624, Note_off_c, 9, 35, 0
11, 110624, Note_off_c, 9, 59, 0
11, 110624, Note_off_c, 9, 63, 0
11, 110648, Note_off_c, 9, 44, 0
11, 110680, Note_on_c, 9, 44, 36
11, 110684, Note_on_c, 9, 63, 56
11, 110712, Note_off_c, 9, 63, 0
11, 110728, Note_off_c, 9, 44, 0
11, 110764, Note_on_c, 9, 44, 54
11, 110812, Note_off_c, 9, 44, 0
11, 110864, Note_on_c, 9, 44, 45
11, 110868, Note_on_c, 9, 68, 39
11, 110868, Note_on_c, 9, 61, 81
11, 110868, Note_on_c, 9, 35, 94
11, 110904, Note_off_c, 9, 68, 0
11, 110908, Note_off_c, 9, 61, 0
11, 110908, Note_off_c, 9, 35, 0
11, 110920, Note_off_c, 9, 44, 0
11, 110960, Note_on_c, 9, 44, 66
11, 110960, Note_on_c, 9, 63, 78
11, 110964, Note_on_c, 9, 35, 95
11, 110964, Note_on_c, 9, 59, 34
11, 110964, Note_on_c, 9, 41, 83
11, 111008, Note_off_c, 9, 63, 0
11, 111008, Note_off_c, 9, 35, 0
11, 111008, Note_off_c, 9, 59, 0
11, 111012, Note_off_c, 9, 41, 0
11, 111020, Note_off_c, 9, 44, 0
11, 111056, Note_on_c, 9, 44, 28
11, 111112, Note_off_c, 9, 44, 0
11, 111152, Note_on_c, 9, 44, 51
11, 111152, Note_on_c, 9, 68, 52
11, 111192, Note_off_c, 9, 68, 0
11, 111208, Note_off_c, 9, 44, 0
11, 111248, Note_on_c, 9, 44, 45
11, 111248, Note_on_c, 9, 68, 35
11, 111296, Note_off_c, 9, 44, 0
11, 111296, Note_off_c, 9, 68, 0
11, 111344, Note_on_c, 9, 44, 62
11, 111344, Note_on_c, 9, 63, 74
11, 111352, Note_on_c, 9, 35, 89
11, 111352, Note_on_c, 9, 59, 34
11, 111384, Note_off_c, 9, 63, 0
11, 111388, Note_off_c, 9, 35, 0
11, 111388, Note_off_c, 9, 59, 0
11, 111416, Note_off_c, 9, 44, 0
11, 111440, Note_on_c, 9, 44, 27
11, 111496, Note_off_c, 9, 44, 0
11, 111536, Note_on_c, 9, 44, 45
11, 111536, Note_on_c, 9, 68, 48
11, 111576, Note_off_c, 9, 68, 0
11, 111584, Note_off_c, 9, 44, 0
11, 111636, Note_on_c, 9, 44, 39
11, 111636, Note_on_c, 9, 35, 95
11, 111636, Note_on_c, 9, 61, 74
11, 111680, Note_off_c, 9, 35, 0
11, 111680, Note_off_c, 9, 61, 0
11, 111688, Note_off_c, 9, 44, 0
11, 111736, Note_on_c, 9, 44, 62
11, 111736, Note_on_c, 9, 35, 95
11, 111740, Note_on_c, 9, 63, 81
11, 111740, Note_on_c, 9, 59, 34
11, 111740, Note_on_c, 9, 41, 83
11, 111768, Note_off_c, 9, 35, 0
11, 111772, Note_off_c, 9, 41, 0
11, 111772, Note_off_c, 9, 63, 0
11, 111772, Note_off_c, 9, 59, 0
11, 111800, Note_off_c, 9, 44, 0
11, 111824, Note_on_c, 9, 44, 28
11, 111828, Note_on_c, 9, 68, 24
11, 111864, Note_off_c, 9, 68, 0
11, 111880, Note_off_c, 9, 44, 0
11, 111916, Note_on_c, 9, 44, 54
11, 111972, Note_off_c, 9, 44, 0
11, 112016, Note_on_c, 9, 44, 39
11, 112016, Note_on_c, 9, 68, 52
11, 112056, Note_off_c, 9, 68, 0
11, 112072, Note_off_c, 9, 44, 0
11, 112112, Note_on_c, 9, 44, 66
11, 112124, Note_on_c, 9, 63, 74
11, 112124, Note_on_c, 9, 35, 95
11, 112124, Note_on_c, 9, 59, 34
11, 112160, Note_off_c, 9, 63, 0
11, 112160, Note_off_c, 9, 35, 0
11, 112160, Note_off_c, 9, 59, 0
11, 112172, Note_off_c, 9, 44, 0
11, 112208, Note_on_c, 9, 44, 24
11, 112208, Note_on_c, 9, 63, 56
11, 112248, Note_off_c, 9, 63, 0
11, 112260, Note_off_c, 9, 44, 0
11, 112304, Note_on_c, 9, 44, 45
11, 112348, Note_off_c, 9, 44, 0
11, 112400, Note_on_c, 9, 44, 36
11, 112400, Note_on_c, 9, 35, 94
11, 112408, Note_on_c, 9, 68, 39
11, 112408, Note_on_c, 9, 61, 81
11, 112440, Note_off_c, 9, 35, 0
11, 112444, Note_off_c, 9, 68, 0
11, 112444, Note_off_c, 9, 61, 0
11, 112456, Note_off_c, 9, 44, 0
11, 112492, Note_on_c, 9, 44, 62
11, 112496, Note_on_c, 9, 35, 95
11, 112500, Note_on_c, 9, 63, 78
11, 112504, Note_on_c, 9, 59, 34
11, 112504, Note_on_c, 9, 41, 83
11, 112536, Note_off_c, 9, 35, 0
11, 112544, Note_off_c, 9, 41, 0
11, 112544, Note_off_c, 9, 63, 0
11, 112544, Note_off_c, 9, 59, 0
11, 112560, Note_off_c, 9, 44, 0
11, 112592, Note_on_c, 9, 44, 39
11, 112644, Note_off_c, 9, 44, 0
11, 112688, Note_on_c, 9, 44, 51
11, 112688, Note_on_c, 9, 68, 52
11, 112728, Note_off_c, 9, 68, 0
11, 112732, Note_off_c, 9, 44, 0
11, 112784, Note_on_c, 9, 44, 47
11, 112784, Note_on_c, 9, 68, 47
11, 112824, Note_off_c, 9, 44, 0
11, 112828, Note_off_c, 9, 68, 0
11, 112884, Note_on_c, 9, 44, 62
11, 112888, Note_on_c, 9, 35, 89
11, 112888, Note_on_c, 9, 63, 74
11, 112888, Note_on_c, 9, 59, 34
11, 112920, Note_off_c, 9, 35, 0
11, 112924, Note_off_c, 9, 63, 0
11, 112924, Note_off_c, 9, 59, 0
11, 112932, Note_off_c, 9, 44, 0
11, 112976, Note_on_c, 9, 44, 38
11, 113028, Note_off_c, 9, 44, 0
11, 113072, Note_on_c, 9, 44, 48
11, 113072, Note_on_c, 9, 68, 48
11, 113112, Note_off_c, 9, 68, 0
11, 113116, Note_off_c, 9, 44, 0
11, 113168, Note_on_c, 9, 44, 36
11, 113168, Note_on_c, 9, 61, 74
11, 113168, Note_on_c, 9, 35, 95
11, 113208, Note_off_c, 9, 61, 0
11, 113212, Note_off_c, 9, 44, 0
11, 113212, Note_off_c, 9, 35, 0
11, 113264, Note_on_c, 9, 44, 74
11, 113264, Note_on_c, 9, 63, 81
11, 113268, Note_on_c, 9, 35, 95
11, 113268, Note_on_c, 9, 59, 34
11, 113268, Note_on_c, 9, 41, 83
11, 113312, Note_off_c, 9, 63, 0
11, 113312, Note_off_c, 9, 35, 0
11, 113312, Note_off_c, 9, 59, 0
11, 113316, Note_off_c, 9, 41, 0
11, 113336, Note_off_c, 9, 44, 0
11, 113360, Note_on_c, 9, 44, 34
11, 113360, Note_on_c, 9, 68, 24
11, 113400, Note_off_c, 9, 68, 0
11, 113428, Note_off_c, 9, 44, 0
11, 113456, Note_on_c, 9, 44, 40
11, 113480, Note_off_c, 9, 44, 0
11, 113552, Note_on_c, 9, 44, 34
11, 113552, Note_on_c, 9, 68, 52
11, 113592, Note_off_c, 9, 68, 0
11, 113608, Note_off_c, 9, 44, 0
11, 113648, Note_on_c, 9, 44, 62
11, 113652, Note_on_c, 9, 63, 74
11, 113652, Note_on_c, 9, 35, 89
11, 113656, Note_on_c, 9, 59, 34
11, 113688, Note_off_c, 9, 35, 0
11, 113688, Note_off_c, 9, 63, 0
11, 113692, Note_off_c, 9, 59, 0
11, 113716, Note_off_c, 9, 44, 0
11, 113744, Note_on_c, 9, 44, 34
11, 113800, Note_off_c, 9, 44, 0
11, 113844, Note_on_c, 9, 44, 51
11, 113844, Note_on_c, 9, 68, 48
11, 113880, Note_off_c, 9, 68, 0
11, 113884, Note_off_c, 9, 44, 0
11, 113940, Note_on_c, 9, 44, 42
11, 113944, Note_on_c, 9, 35, 95
11, 113944, Note_on_c, 9, 61, 74
11, 113984, Note_off_c, 9, 35, 0
11, 113984, Note_off_c, 9, 61, 0
11, 113992, Note_off_c, 9, 44, 0
11, 114032, Note_on_c, 9, 44, 62
11, 114032, Note_on_c, 9, 35, 95
11, 114036, Note_on_c, 9, 63, 81
11, 114036, Note_on_c, 9, 59, 34
11, 114040, Note_on_c, 9, 41, 83
11, 114072, Note_off_c, 9, 35, 0
11, 114076, Note_off_c, 9, 41, 0
11, 114076, Note_off_c, 9, 63, 0
11, 114076, Note_off_c, 9, 59, 0
11, 114100, Note_off_c, 9, 44, 0
11, 114128, Note_on_c, 9, 44, 24
11, 114132, Note_on_c, 9, 68, 24
11, 114176, Note_off_c, 9, 68, 0
11, 114180, Note_off_c, 9, 44, 0
11, 114228, Note_on_c, 9, 44, 54
11, 114276, Note_off_c, 9, 44, 0
11, 114320, Note_on_c, 9, 44, 39
11, 114320, Note_on_c, 9, 68, 52
11, 114360, Note_off_c, 9, 68, 0
11, 114376, Note_off_c, 9, 44, 0
11, 114416, Note_on_c, 9, 44, 66
11, 114424, Note_on_c, 9, 35, 95
11, 114428, Note_on_c, 9, 63, 74
11, 114428, Note_on_c, 9, 59, 34
11, 114464, Note_off_c, 9, 35, 0
11, 114464, Note_off_c, 9, 63, 0
11, 114464, Note_off_c, 9, 59, 0
11, 114488, Note_off_c, 9, 44, 0
11, 114512, Note_on_c, 9, 44, 34
11, 114516, Note_on_c, 9, 63, 56
11, 114552, Note_off_c, 9, 63, 0
11, 114576, Note_off_c, 9, 44, 0
11, 114612, Note_on_c, 9, 44, 45
11, 114648, Note_off_c, 9, 44, 0
11, 114704, Note_on_c, 9, 44, 39
11, 114704, Note_on_c, 9, 35, 94
11, 114708, Note_on_c, 9, 68, 39
11, 114708, Note_on_c, 9, 61, 81
11, 114744, Note_off_c, 9, 35, 0
11, 114752, Note_off_c, 9, 68, 0
11, 114756, Note_off_c, 9, 61, 0
11, 114764, Note_off_c, 9, 44, 0
11, 114800, Note_on_c, 9, 44, 62
11, 114800, Note_on_c, 9, 63, 78
11, 114804, Note_on_c, 9, 35, 95
11, 114804, Note_on_c, 9, 59, 34
11, 114808, Note_on_c, 9, 41, 83
11, 114848, Note_off_c, 9, 63, 0
11, 114848, Note_off_c, 9, 35, 0
11, 114848, Note_off_c, 9, 59, 0
11, 114852, Note_off_c, 9, 41, 0
11, 114868, Note_off_c, 9, 44, 0
11, 114904, Note_on_c, 9, 44, 39
11, 114960, Note_off_c, 9, 44, 0
11, 114992, Note_on_c, 9, 44, 48
11, 114992, Note_on_c, 9, 68, 52
11, 115032, Note_off_c, 9, 44, 0
11, 115036, Note_off_c, 9, 68, 0
11, 115088, Note_on_c, 9, 44, 45
11, 115088, Note_on_c, 9, 68, 35
11, 115136, Note_off_c, 9, 68, 0
11, 115148, Note_off_c, 9, 44, 0
11, 115184, Note_on_c, 9, 44, 62
11, 115184, Note_on_c, 9, 63, 74
11, 115188, Note_on_c, 9, 35, 89
11, 115188, Note_on_c, 9, 59, 34
11, 115224, Note_off_c, 9, 63, 0
11, 115228, Note_off_c, 9, 35, 0
11, 115232, Note_off_c, 9, 59, 0
11, 115256, Note_off_c, 9, 44, 0
11, 115280, Note_on_c, 9, 44, 39
11, 115336, Note_off_c, 9, 44, 0
11, 115376, Note_on_c, 9, 44, 48
11, 115376, Note_on_c, 9, 68, 48
11, 115416, Note_off_c, 9, 68, 0
11, 115428, Note_off_c, 9, 44, 0
11, 115472, Note_on_c, 9, 44, 39
11, 115472, Note_on_c, 9, 35, 95
11, 115476, Note_on_c, 9, 61, 74
11, 115520, Note_off_c, 9, 35, 0
11, 115520, Note_off_c, 9, 61, 0
11, 115536, Note_off_c, 9, 44, 0
11, 115568, Note_on_c, 9, 44, 66
11, 115568, Note_on_c, 9, 35, 95
11, 115572, Note_on_c, 9, 63, 81
11, 115572, Note_on_c, 9, 59, 34
11, 115572, Note_on_c, 9, 41, 83
11, 115608, Note_off_c, 9, 35, 0
11, 115612, Note_off_c, 9, 41, 0
11, 115612, Note_off_c, 9, 63, 0
11, 115612, Note_off_c, 9, 59, 0
11, 115640, Note_off_c, 9, 44, 0
11, 115664, Note_on_c, 9, 44, 36
11, 115664, Note_on_c, 9, 68, 24
11, 115704, Note_off_c, 9, 68, 0
11, 115728, Note_off_c, 9, 44, 0
11, 115756, Note_on_c, 9, 44, 51
11, 115812, Note_off_c, 9, 44, 0
11, 115856, Note_on_c, 9, 44, 42
11, 115856, Note_on_c, 9, 68, 52
11, 115896, Note_off_c, 9, 68, 0
11, 115928, Note_off_c, 9, 44, 0
11, 115952, Note_on_c, 9, 44, 58
11, 115952, Note_on_c, 9, 35, 95
11, 115956, Note_on_c, 9, 63, 74
11, 115960, Note_on_c, 9, 59, 34
11, 116000, Note_off_c, 9, 35, 0
11, 116004, Note_off_c, 9, 63, 0
11, 116004, Note_off_c, 9, 59, 0
11, 116024, Note_off_c, 9, 44, 0
11, 116048, Note_on_c, 9, 44, 36
11, 116052, Note_on_c, 9, 63, 56
11, 116088, Note_off_c, 9, 63, 0
11, 116108, Note_off_c, 9, 44, 0
11, 116144, Note_on_c, 9, 44, 51
11, 116188, Note_off_c, 9, 44, 0
11, 116240, Note_on_c, 9, 44, 39
11, 116240, Note_on_c, 9, 35, 94
11, 116248, Note_on_c, 9, 68, 39
11, 116248, Note_on_c, 9, 61, 81
11, 116280, Note_off_c, 9, 35, 0
11, 116284, Note_off_c, 9, 68, 0
11, 116288, Note_off_c, 9, 61, 0
11, 116304, Note_off_c, 9, 44, 0
11, 116336, Note_on_c, 9, 44, 62
11, 116336, Note_on_c, 9, 35, 95
11, 116340, Note_on_c, 9, 63, 78
11, 116340, Note_on_c, 9, 59, 34
11, 116344, Note_on_c, 9, 41, 83
11, 116376, Note_off_c, 9, 35, 0
11, 116380, Note_off_c, 9, 63, 0
11, 116380, Note_off_c, 9, 59, 0
11, 116384, Note_off_c, 9, 41, 0
11, 116408, Note_off_c, 9, 44, 0
11, 116432, Note_on_c, 9, 44, 34
11, 116488, Note_off_c, 9, 44, 0
11, 116528, Note_on_c, 9, 44, 48
11, 116532, Note_on_c, 9, 68, 52
11, 116568, Note_off_c, 9, 68, 0
11, 116576, Note_off_c, 9, 44, 0
11, 116620, Note_on_c, 9, 44, 42
11, 116620, Note_on_c, 9, 68, 35
11, 116672, Note_off_c, 9, 68, 0
11, 116692, Note_off_c, 9, 44, 0
11, 116720, Note_on_c, 9, 44, 54
11, 116720, Note_on_c, 9, 35, 89
11, 116724, Note_on_c, 9, 63, 74
11, 116724, Note_on_c, 9, 59, 34
11, 116760, Note_off_c, 9, 35, 0
11, 116764, Note_off_c, 9, 59, 0
11, 116764, Note_off_c, 9, 63, 0
11, 116792, Note_off_c, 9, 44, 0
11, 116816, Note_on_c, 9, 44, 36
11, 116884, Note_off_c, 9, 44, 0
11, 116912, Note_on_c, 9, 44, 51
11, 116912, Note_on_c, 9, 68, 48
11, 116952, Note_off_c, 9, 68, 0
11, 116968, Note_off_c, 9, 44, 0
11, 117008, Note_on_c, 9, 44, 39
11, 117008, Note_on_c, 9, 35, 95
11, 117012, Note_on_c, 9, 61, 74
11, 117048, Note_off_c, 9, 35, 0
11, 117052, Note_off_c, 9, 61, 0
11, 117072, Note_off_c, 9, 44, 0
11, 117104, Note_on_c, 9, 44, 62
11, 117104, Note_on_c, 9, 35, 95
11, 117104, Note_on_c, 9, 63, 81
11, 117108, Note_on_c, 9, 59, 34
11, 117108, Note_on_c, 9, 41, 83
11, 117152, Note_off_c, 9, 35, 0
11, 117152, Note_off_c, 9, 63, 0
11, 117152, Note_off_c, 9, 59, 0
11, 117156, Note_off_c, 9, 41, 0
11, 117176, Note_off_c, 9, 44, 0
11, 117200, Note_on_c, 9, 44, 36
11, 117200, Note_on_c, 9, 68, 24
11, 117240, Note_off_c, 9, 68, 0
11, 117264, Note_off_c, 9, 44, 0
11, 117300, Note_on_c, 9, 44, 48
11, 117344, Note_off_c, 9, 44, 0
11, 117392, Note_on_c, 9, 44, 36
11, 117396, Note_on_c, 9, 68, 52
11, 117432, Note_off_c, 9, 68, 0
11, 117448, Note_off_c, 9, 44, 0
11, 117488, Note_on_c, 9, 44, 58
11, 117488, Note_on_c, 9, 63, 74
11, 117492, Note_on_c, 9, 35, 95
11, 117492, Note_on_c, 9, 59, 34
11, 117528, Note_off_c, 9, 63, 0
11, 117528, Note_off_c, 9, 35, 0
11, 117532, Note_off_c, 9, 59, 0
11, 117560, Note_off_c, 9, 44, 0
11, 117584, Note_on_c, 9, 44, 40
11, 117584, Note_on_c, 9, 63, 40
11, 117624, Note_off_c, 9, 63, 0
11, 117640, Note_off_c, 9, 44, 0
11, 117680, Note_on_c, 9, 44, 45
11, 117712, Note_off_c, 9, 44, 0
11, 117776, Note_on_c, 9, 44, 48
11, 117780, Note_on_c, 9, 35, 94
11, 117780, Note_on_c, 9, 68, 39
11, 117784, Note_on_c, 9, 61, 81
11, 117824, Note_off_c, 9, 35, 0
11, 117824, Note_off_c, 9, 68, 0
11, 117824, Note_off_c, 9, 61, 0
11, 117836, Note_off_c, 9, 44, 0
11, 117876, Note_on_c, 9, 44, 62
11, 117880, Note_on_c, 9, 63, 78
11, 117880, Note_on_c, 9, 35, 95
11, 117880, Note_on_c, 9, 59, 34
11, 117884, Note_on_c, 9, 41, 83
11, 117912, Note_off_c, 9, 63, 0
11, 117920, Note_off_c, 9, 41, 0
11, 117920, Note_off_c, 9, 35, 0
11, 117920, Note_off_c, 9, 59, 0
11, 117944, Note_off_c, 9, 44, 0
11, 117968, Note_on_c, 9, 44, 48
11, 118036, Note_off_c, 9, 44, 0
11, 118064, Note_on_c, 9, 44, 45
11, 118064, Note_on_c, 9, 68, 52
11, 118104, Note_off_c, 9, 68, 0
11, 118108, Note_off_c, 9, 44, 0
11, 118160, Note_on_c, 9, 44, 48
11, 118160, Note_on_c, 9, 68, 35
11, 118200, Note_off_c, 9, 68, 0
11, 118208, Note_off_c, 9, 44, 0
11, 118256, Note_on_c, 9, 44, 62
11, 118256, Note_on_c, 9, 93, 60
11, 118256, Note_on_c, 9, 35, 89
11, 118260, Note_on_c, 9, 63, 46
11, 118260, Note_on_c, 9, 59, 34
11, 118272, Note_off_c, 9, 93, 0
11, 118272, Note_on_c, 9, 93, 83
11, 118304, Note_off_c, 9, 35, 0
11, 118304, Note_off_c, 9, 59, 0
11, 118304, Note_off_c, 9, 63, 0
11, 118308, Note_off_c, 9, 93, 0
11, 118324, Note_off_c, 9, 44, 0
11, 118340, Note_on_c, 9, 44, 58
11, 118416, Note_off_c, 9, 44, 0
11, 118448, Note_on_c, 9, 44, 45
11, 118448, Note_on_c, 9, 68, 48
11, 118496, Note_off_c, 9, 44, 0
11, 118496, Note_off_c, 9, 68, 0
11, 118528, Note_on_c, 9, 89, 64
11, 118544, Note_on_c, 9, 44, 54
11, 118544, Note_on_c, 9, 35, 95
11, 118544, Note_on_c, 9, 61, 34
11, 118548, Note_off_c, 9, 89, 0
11, 118548, Note_on_c, 9, 89, 83
11, 118568, Note_off_c, 9, 89, 0
11, 118584, Note_off_c, 9, 35, 0
11, 118588, Note_off_c, 9, 44, 0
11, 118588, Note_off_c, 9, 61, 0
11, 118640, Note_on_c, 9, 44, 62
11, 118640, Note_on_c, 9, 63, 43
11, 118640, Note_on_c, 9, 35, 95
11, 118644, Note_on_c, 9, 59, 34
11, 118644, Note_on_c, 9, 41, 83
11, 118688, Note_off_c, 9, 63, 0
11, 118688, Note_off_c, 9, 35, 0
11, 118688, Note_off_c, 9, 59, 0
11, 118692, Note_off_c, 9, 41, 0
11, 118712, Note_off_c, 9, 44, 0
11, 118736, Note_on_c, 9, 44, 54
11, 118736, Note_on_c, 9, 68, 24
11, 118776, Note_off_c, 9, 68, 0
11, 118800, Note_off_c, 9, 44, 0
11, 118832, Note_on_c, 9, 44, 45
11, 118888, Note_off_c, 9, 44, 0
11, 118904, Note_on_c, 9, 89, 60
11, 118928, Note_off_c, 9, 89, 0
11, 118928, Note_on_c, 9, 44, 36
11, 118928, Note_on_c, 9, 68, 52
11, 118928, Note_on_c, 9, 89, 83
11, 118948, Note_off_c, 9, 89, 0
11, 118972, Note_off_c, 9, 68, 0
11, 118980, Note_off_c, 9, 44, 0
11, 119024, Note_on_c, 9, 44, 62
11, 119024, Note_on_c, 9, 35, 95
11, 119024, Note_on_c, 9, 63, 37
11, 119028, Note_on_c, 9, 59, 34
11, 119064, Note_off_c, 9, 35, 0
11, 119068, Note_off_c, 9, 63, 0
11, 119068, Note_off_c, 9, 59, 0
11, 119096, Note_off_c, 9, 44, 0
11, 119120, Note_on_c, 9, 44, 36
11, 119120, Note_on_c, 9, 63, 28
11, 119168, Note_off_c, 9, 63, 0
11, 119176, Note_off_c, 9, 44, 0
11, 119216, Note_on_c, 9, 44, 45
11, 119216, Note_on_c, 9, 88, 63
11, 119232, Note_off_c, 9, 88, 0
11, 119232, Note_on_c, 9, 88, 83
11, 119256, Note_off_c, 9, 88, 0
11, 119264, Note_off_c, 9, 44, 0
11, 119312, Note_on_c, 9, 44, 39
11, 119312, Note_on_c, 9, 35, 94
11, 119312, Note_on_c, 9, 68, 39
11, 119316, Note_on_c, 9, 61, 49
11, 119360, Note_off_c, 9, 35, 0
11, 119360, Note_off_c, 9, 68, 0
11, 119360, Note_off_c, 9, 61, 0
11, 119368, Note_off_c, 9, 44, 0
11, 119392, Note_on_c, 9, 89, 70
11, 119408, Note_on_c, 9, 44, 62
11, 119408, Note_on_c, 9, 63, 34
11, 119408, Note_on_c, 9, 35, 95
11, 119412, Note_on_c, 9, 59, 34
11, 119412, Note_on_c, 9, 41, 83
11, 119416, Note_off_c, 9, 89, 0
11, 119416, Note_on_c, 9, 89, 83
11, 119440, Note_off_c, 9, 89, 0
11, 119448, Note_off_c, 9, 63, 0
11, 119456, Note_off_c, 9, 35, 0
11, 119460, Note_off_c, 9, 41, 0
11, 119460, Note_off_c, 9, 59, 0
11, 119480, Note_off_c, 9, 44, 0
11, 119504, Note_on_c, 9, 44, 45
11, 119572, Note_off_c, 9, 44, 0
11, 119600, Note_on_c, 9, 44, 48
11, 119600, Note_on_c, 9, 68, 52
11, 119600, Note_on_c, 9, 41, 83
11, 119648, Note_off_c, 9, 41, 0
11, 119648, Note_off_c, 9, 44, 0
11, 119648, Note_off_c, 9, 68, 0
11, 119696, Note_on_c, 9, 44, 34
11, 119696, Note_on_c, 9, 68, 35
11, 119696, Note_on_c, 9, 41, 83
11, 119736, Note_off_c, 9, 68, 0
11, 119740, Note_off_c, 9, 41, 0
11, 119744, Note_off_c, 9, 44, 0
11, 119792, Note_on_c, 9, 44, 62
11, 119800, Note_on_c, 9, 35, 89
11, 119800, Note_on_c, 9, 60, 83
11, 119804, Note_on_c, 9, 76, 57
11, 119804, Note_on_c, 9, 63, 74
11, 119804, Note_on_c, 9, 59, 34
11, 119840, Note_off_c, 9, 35, 0
11, 119840, Note_off_c, 9, 60, 0
11, 119840, Note_off_c, 9, 76, 0
11, 119844, Note_off_c, 9, 63, 0
11, 119844, Note_off_c, 9, 59, 0
11, 119864, Note_off_c, 9, 44, 0
11, 119888, Note_on_c, 9, 44, 34
11, 119888, Note_on_c, 9, 76, 27
11, 119928, Note_off_c, 9, 76, 0
11, 119952, Note_off_c, 9, 44, 0
11, 119984, Note_on_c, 9, 44, 54
11, 119984, Note_on_c, 9, 68, 48
11, 119984, Note_on_c, 9, 76, 31
11, 120032, Note_off_c, 9, 68, 0
11, 120032, Note_off_c, 9, 76, 0
11, 120036, Note_off_c, 9, 44, 0
11, 120080, Note_on_c, 9, 44, 36
11, 120080, Note_on_c, 9, 76, 34
11, 120084, Note_on_c, 9, 35, 95
11, 120084, Note_on_c, 9, 61, 74
11, 120120, Note_off_c, 9, 76, 0
11, 120124, Note_off_c, 9, 35, 0
11, 120124, Note_off_c, 9, 61, 0
11, 120136, Note_off_c, 9, 44, 0
11, 120176, Note_on_c, 9, 44, 58
11, 120176, Note_on_c, 9, 35, 95
11, 120180, Note_on_c, 9, 63, 81
11, 120180, Note_on_c, 9, 76, 49
11, 120180, Note_on_c, 9, 41, 83
11, 120184, Note_on_c, 9, 59, 34
11, 120216, Note_off_c, 9, 35, 0
11, 120220, Note_off_c, 9, 41, 0
11, 120220, Note_off_c, 9, 76, 0
11, 120224, Note_off_c, 9, 63, 0
11, 120224, Note_off_c, 9, 59, 0
11, 120244, Note_off_c, 9, 44, 0
11, 120272, Note_on_c, 9, 44, 48
11, 120272, Note_on_c, 9, 68, 24
11, 120316, Note_off_c, 9, 68, 0
11, 120336, Note_off_c, 9, 44, 0
11, 120368, Note_on_c, 9, 44, 51
11, 120368, Note_on_c, 9, 76, 12
11, 120408, Note_off_c, 9, 76, 0
11, 120420, Note_off_c, 9, 44, 0
11, 120464, Note_on_c, 9, 44, 36
11, 120464, Note_on_c, 9, 68, 52
11, 120464, Note_on_c, 9, 76, 28
11, 120508, Note_off_c, 9, 76, 0
11, 120512, Note_off_c, 9, 68, 0
11, 120516, Note_off_c, 9, 44, 0
11, 120564, Note_on_c, 9, 44, 58
11, 120568, Note_on_c, 9, 76, 31
11, 120568, Note_on_c, 9, 63, 74
11, 120568, Note_on_c, 9, 35, 95
11, 120572, Note_on_c, 9, 59, 34
11, 120600, Note_off_c, 9, 76, 0
11, 120604, Note_off_c, 9, 63, 0
11, 120604, Note_off_c, 9, 35, 0
11, 120604, Note_off_c, 9, 59, 0
11, 120632, Note_off_c, 9, 44, 0
11, 120656, Note_on_c, 9, 44, 45
11, 120656, Note_on_c, 9, 63, 56
11, 120704, Note_off_c, 9, 63, 0
11, 120712, Note_off_c, 9, 44, 0
11, 120752, Note_on_c, 9, 44, 51
11, 120752, Note_on_c, 9, 76, 62
11, 120792, Note_off_c, 9, 76, 0
11, 120800, Note_off_c, 9, 44, 0
11, 120848, Note_on_c, 9, 44, 36
11, 120848, Note_on_c, 9, 61, 81
11, 120852, Note_on_c, 9, 35, 94
11, 120852, Note_on_c, 9, 68, 39
11, 120888, Note_off_c, 9, 61, 0
11, 120892, Note_off_c, 9, 35, 0
11, 120896, Note_off_c, 9, 68, 0
11, 120900, Note_off_c, 9, 44, 0
11, 120944, Note_on_c, 9, 44, 62
11, 120944, Note_on_c, 9, 63, 78
11, 120948, Note_on_c, 9, 76, 34
11, 120948, Note_on_c, 9, 35, 95
11, 120948, Note_on_c, 9, 59, 34
11, 120952, Note_on_c, 9, 41, 83
11, 120992, Note_off_c, 9, 63, 0
11, 120992, Note_off_c, 9, 76, 0
11, 120992, Note_off_c, 9, 35, 0
11, 120996, Note_off_c, 9, 41, 0
11, 120996, Note_off_c, 9, 59, 0
11, 121016, Note_off_c, 9, 44, 0
11, 121040, Note_on_c, 9, 44, 45
11, 121104, Note_off_c, 9, 44, 0
11, 121136, Note_on_c, 9, 44, 48
11, 121136, Note_on_c, 9, 68, 52
11, 121136, Note_on_c, 9, 76, 34
11, 121184, Note_off_c, 9, 68, 0
11, 121184, Note_off_c, 9, 76, 0
11, 121192, Note_off_c, 9, 44, 0
11, 121232, Note_on_c, 9, 44, 36
11, 121232, Note_on_c, 9, 68, 35
11, 121272, Note_off_c, 9, 68, 0
11, 121296, Note_off_c, 9, 44, 0
11, 121328, Note_on_c, 9, 44, 58
11, 121328, Note_on_c, 9, 76, 62
11, 121332, Note_on_c, 9, 35, 89
11, 121332, Note_on_c, 9, 63, 74
11, 121336, Note_on_c, 9, 59, 34
11, 121372, Note_off_c, 9, 63, 0
11, 121376, Note_off_c, 9, 35, 0
11, 121376, Note_off_c, 9, 59, 0
11, 121376, Note_off_c, 9, 76, 0
11, 121408, Note_off_c, 9, 44, 0
11, 121424, Note_on_c, 9, 44, 58
11, 121496, Note_off_c, 9, 44, 0
11, 121520, Note_on_c, 9, 44, 54
11, 121520, Note_on_c, 9, 68, 48
11, 121520, Note_on_c, 9, 76, 31
11, 121560, Note_off_c, 9, 68, 0
11, 121564, Note_off_c, 9, 76, 0
11, 121568, Note_off_c, 9, 44, 0
11, 121616, Note_on_c, 9, 44, 39
11, 121620, Note_on_c, 9, 35, 95
11, 121620, Note_on_c, 9, 61, 74
11, 121620, Note_on_c, 9, 76, 37
11, 121664, Note_off_c, 9, 35, 0
11, 121664, Note_off_c, 9, 61, 0
11, 121664, Note_off_c, 9, 76, 0
11, 121672, Note_off_c, 9, 44, 0
11, 121712, Note_on_c, 9, 44, 62
11, 121712, Note_on_c, 9, 63, 81
11, 121716, Note_on_c, 9, 76, 56
11, 121716, Note_on_c, 9, 35, 95
11, 121716, Note_on_c, 9, 59, 34
11, 121720, Note_on_c, 9, 41, 83
11, 121752, Note_off_c, 9, 63, 0
11, 121756, Note_off_c, 9, 76, 0
11, 121756, Note_off_c, 9, 35, 0
11, 121756, Note_off_c, 9, 59, 0
11, 121760, Note_off_c, 9, 41, 0
11, 121784, Note_off_c, 9, 44, 0
11, 121808, Note_on_c, 9, 44, 39
11, 121808, Note_on_c, 9, 68, 24
11, 121856, Note_off_c, 9, 68, 0
11, 121872, Note_off_c, 9, 44, 0
11, 121904, Note_on_c, 9, 44, 48
11, 121904, Note_on_c, 9, 76, 31
11, 121944, Note_off_c, 9, 76, 0
11, 121948, Note_off_c, 9, 44, 0
11, 122000, Note_on_c, 9, 44, 28
11, 122000, Note_on_c, 9, 76, 31
11, 122000, Note_on_c, 9, 68, 52
11, 122040, Note_off_c, 9, 76, 0
11, 122040, Note_off_c, 9, 68, 0
11, 122052, Note_off_c, 9, 44, 0
11, 122096, Note_on_c, 9, 44, 58
11, 122096, Note_on_c, 9, 76, 62
11, 122100, Note_on_c, 9, 35, 95
11, 122104, Note_on_c, 9, 63, 74
11, 122104, Note_on_c, 9, 59, 34
11, 122136, Note_off_c, 9, 76, 0
11, 122140, Note_off_c, 9, 35, 0
11, 122140, Note_off_c, 9, 63, 0
11, 122140, Note_off_c, 9, 59, 0
11, 122168, Note_off_c, 9, 44, 0
11, 122192, Note_on_c, 9, 44, 36
11, 122192, Note_on_c, 9, 63, 56
11, 122232, Note_off_c, 9, 63, 0
11, 122264, Note_off_c, 9, 44, 0
11, 122288, Note_on_c, 9, 44, 48
11, 122288, Note_on_c, 9, 76, 12
11, 122336, Note_off_c, 9, 76, 0
11, 122340, Note_off_c, 9, 44, 0
11, 122384, Note_on_c, 9, 44, 31
11, 122384, Note_on_c, 9, 35, 94
11, 122388, Note_on_c, 9, 68, 39
11, 122388, Note_on_c, 9, 61, 81
11, 122424, Note_off_c, 9, 35, 0
11, 122428, Note_off_c, 9, 68, 0
11, 122432, Note_off_c, 9, 61, 0
11, 122436, Note_off_c, 9, 44, 0
11, 122480, Note_on_c, 9, 44, 62
11, 122480, Note_on_c, 9, 35, 95
11, 122484, Note_on_c, 9, 76, 40
11, 122484, Note_on_c, 9, 63, 78
11, 122484, Note_on_c, 9, 41, 83
11, 122488, Note_on_c, 9, 59, 34
11, 122520, Note_off_c, 9, 35, 0
11, 122524, Note_off_c, 9, 76, 0
11, 122524, Note_off_c, 9, 63, 0
11, 122528, Note_off_c, 9, 41, 0
11, 122528, Note_off_c, 9, 59, 0
11, 122552, Note_off_c, 9, 44, 0
11, 122576, Note_on_c, 9, 44, 34
11, 122644, Note_off_c, 9, 44, 0
11, 122672, Note_on_c, 9, 44, 45
11, 122672, Note_on_c, 9, 68, 52
11, 122676, Note_on_c, 9, 76, 65
11, 122712, Note_off_c, 9, 68, 0
11, 122712, Note_off_c, 9, 76, 0
11, 122716, Note_off_c, 9, 44, 0
11, 122768, Note_on_c, 9, 44, 36
11, 122772, Note_on_c, 9, 68, 35
11, 122812, Note_off_c, 9, 68, 0
11, 122824, Note_off_c, 9, 44, 0
11, 122864, Note_on_c, 9, 44, 66
11, 122868, Note_on_c, 9, 35, 89
11, 122868, Note_on_c, 9, 63, 74
11, 122872, Note_on_c, 9, 76, 57
11, 122872, Note_off_c, 9, 76, 0
11, 122872, Note_on_c, 9, 76, 46
11, 122876, Note_on_c, 9, 59, 34
11, 122904, Note_off_c, 9, 35, 0
11, 122912, Note_off_c, 9, 63, 0
11, 122912, Note_off_c, 9, 76, 0
11, 122912, Note_off_c, 9, 59, 0
11, 122936, Note_off_c, 9, 44, 0
11, 122960, Note_on_c, 9, 44, 39
11, 122960, Note_on_c, 9, 76, 27
11, 123004, Note_off_c, 9, 76, 0
11, 123012, Note_off_c, 9, 44, 0
11, 123056, Note_on_c, 9, 44, 54
11, 123056, Note_on_c, 9, 68, 48
11, 123056, Note_on_c, 9, 76, 31
11, 123096, Note_off_c, 9, 68, 0
11, 123100, Note_off_c, 9, 76, 0
11, 123104, Note_off_c, 9, 44, 0
11, 123152, Note_on_c, 9, 44, 39
11, 123152, Note_on_c, 9, 35, 95
11, 123156, Note_on_c, 9, 76, 34
11, 123156, Note_on_c, 9, 61, 74
11, 123196, Note_off_c, 9, 76, 0
11, 123196, Note_off_c, 9, 61, 0
11, 123200, Note_off_c, 9, 35, 0
11, 123216, Note_off_c, 9, 44, 0
11, 123248, Note_on_c, 9, 44, 66
11, 123248, Note_on_c, 9, 35, 95
11, 123252, Note_on_c, 9, 63, 81
11, 123252, Note_on_c, 9, 76, 49
11, 123252, Note_on_c, 9, 41, 83
11, 123256, Note_on_c, 9, 59, 34
11, 123288, Note_off_c, 9, 35, 0
11, 123292, Note_off_c, 9, 41, 0
11, 123292, Note_off_c, 9, 63, 0
11, 123292, Note_off_c, 9, 76, 0
11, 123296, Note_off_c, 9, 59, 0
11, 123328, Note_off_c, 9, 44, 0
11, 123344, Note_on_c, 9, 44, 45
11, 123344, Note_on_c, 9, 68, 24
11, 123380, Note_off_c, 9, 68, 0
11, 123396, Note_off_c, 9, 44, 0
11, 123440, Note_on_c, 9, 44, 48
11, 123440, Note_on_c, 9, 76, 12
11, 123488, Note_off_c, 9, 44, 0
11, 123488, Note_off_c, 9, 76, 0
11, 123536, Note_on_c, 9, 44, 42
11, 123536, Note_on_c, 9, 76, 28
11, 123536, Note_on_c, 9, 68, 52
11, 123576, Note_off_c, 9, 76, 0
11, 123580, Note_off_c, 9, 68, 0
11, 123592, Note_off_c, 9, 44, 0
11, 123632, Note_on_c, 9, 44, 58
11, 123632, Note_on_c, 9, 63, 74
11, 123636, Note_on_c, 9, 35, 95
11, 123636, Note_on_c, 9, 76, 31
11, 123636, Note_on_c, 9, 59, 34
11, 123680, Note_off_c, 9, 63, 0
11, 123680, Note_off_c, 9, 35, 0
11, 123680, Note_off_c, 9, 76, 0
11, 123684, Note_off_c, 9, 59, 0
11, 123700, Note_off_c, 9, 44, 0
11, 123728, Note_on_c, 9, 44, 34
11, 123728, Note_on_c, 9, 63, 56
11, 123768, Note_off_c, 9, 63, 0
11, 123776, Note_off_c, 9, 44, 0
11, 123824, Note_on_c, 9, 44, 51
11, 123828, Note_on_c, 9, 76, 62
11, 123864, Note_off_c, 9, 44, 0
11, 123868, Note_off_c, 9, 76, 0
11, 123920, Note_on_c, 9, 44, 39
11, 123920, Note_on_c, 9, 68, 39
11, 123924, Note_on_c, 9, 61, 81
11, 123924, Note_on_c, 9, 35, 94
11, 123960, Note_off_c, 9, 44, 0
11, 123964, Note_off_c, 9, 68, 0
11, 123964, Note_off_c, 9, 61, 0
11, 123964, Note_off_c, 9, 35, 0
11, 124016, Note_on_c, 9, 44, 62
11, 124016, Note_on_c, 9, 76, 34
11, 124020, Note_on_c, 9, 35, 95
11, 124020, Note_on_c, 9, 63, 78
11, 124020, Note_on_c, 9, 41, 83
11, 124024, Note_on_c, 9, 59, 34
11, 124056, Note_off_c, 9, 76, 0
11, 124056, Note_off_c, 9, 35, 0
11, 124060, Note_off_c, 9, 63, 0
11, 124060, Note_off_c, 9, 59, 0
11, 124064, Note_off_c, 9, 41, 0
11, 124080, Note_off_c, 9, 44, 0
11, 124112, Note_on_c, 9, 44, 48
11, 124168, Note_off_c, 9, 44, 0
11, 124208, Note_on_c, 9, 44, 48
11, 124208, Note_on_c, 9, 76, 34
11, 124208, Note_on_c, 9, 68, 52
11, 124248, Note_off_c, 9, 44, 0
11, 124252, Note_off_c, 9, 76, 0
11, 124252, Note_off_c, 9, 68, 0
11, 124304, Note_on_c, 9, 44, 42
11, 124304, Note_on_c, 9, 68, 35
11, 124348, Note_off_c, 9, 68, 0
11, 124356, Note_off_c, 9, 44, 0
11, 124404, Note_on_c, 9, 44, 58
11, 124408, Note_on_c, 9, 76, 62
11, 124408, Note_on_c, 9, 35, 89
11, 124408, Note_on_c, 9, 63, 74
11, 124412, Note_on_c, 9, 59, 34
11, 124440, Note_off_c, 9, 76, 0
11, 124444, Note_off_c, 9, 35, 0
11, 124444, Note_off_c, 9, 63, 0
11, 124444, Note_off_c, 9, 59, 0
11, 124464, Note_off_c, 9, 44, 0
11, 124496, Note_on_c, 9, 44, 51
11, 124560, Note_off_c, 9, 44, 0
11, 124592, Note_on_c, 9, 44, 42
11, 124592, Note_on_c, 9, 68, 48
11, 124592, Note_on_c, 9, 76, 31
11, 124632, Note_off_c, 9, 68, 0
11, 124636, Note_off_c, 9, 76, 0
11, 124640, Note_off_c, 9, 44, 0
11, 124688, Note_on_c, 9, 44, 36
11, 124688, Note_on_c, 9, 76, 37
11, 124692, Note_on_c, 9, 61, 74
11, 124692, Note_on_c, 9, 35, 95
11, 124728, Note_off_c, 9, 76, 0
11, 124732, Note_off_c, 9, 61, 0
11, 124732, Note_off_c, 9, 35, 0
11, 124740, Note_off_c, 9, 44, 0
11, 124784, Note_on_c, 9, 44, 58
11, 124784, Note_on_c, 9, 76, 56
11, 124788, Note_on_c, 9, 35, 95
11, 124788, Note_on_c, 9, 63, 81
11, 124788, Note_on_c, 9, 41, 83
11, 124792, Note_on_c, 9, 59, 34
11, 124828, Note_off_c, 9, 76, 0
11, 124828, Note_off_c, 9, 35, 0
11, 124828, Note_off_c, 9, 63, 0
11, 124832, Note_off_c, 9, 41, 0
11, 124832, Note_off_c, 9, 59, 0
11, 124856, Note_off_c, 9, 44, 0
11, 124880, Note_on_c, 9, 44, 34
11, 124880, Note_on_c, 9, 68, 24
11, 124920, Note_off_c, 9, 68, 0
11, 124932, Note_off_c, 9, 44, 0
11, 124976, Note_on_c, 9, 44, 39
11, 124976, Note_on_c, 9, 76, 31
11, 125024, Note_off_c, 9, 76, 0
11, 125028, Note_off_c, 9, 44, 0
11, 125072, Note_on_c, 9, 44, 48
11, 125072, Note_on_c, 9, 76, 31
11, 125072, Note_on_c, 9, 68, 52
11, 125112, Note_off_c, 9, 76, 0
11, 125116, Note_off_c, 9, 68, 0
11, 125124, Note_off_c, 9, 44, 0
11, 125168, Note_on_c, 9, 44, 66
11, 125168, Note_on_c, 9, 35, 95
11, 125172, Note_on_c, 9, 76, 62
11, 125172, Note_on_c, 9, 63, 74
11, 125172, Note_on_c, 9, 59, 34
11, 125216, Note_off_c, 9, 35, 0
11, 125216, Note_off_c, 9, 76, 0
11, 125216, Note_off_c, 9, 63, 0
11, 125216, Note_off_c, 9, 59, 0
11, 125236, Note_off_c, 9, 44, 0
11, 125264, Note_on_c, 9, 44, 28
11, 125264, Note_on_c, 9, 63, 56
11, 125304, Note_off_c, 9, 63, 0
11, 125308, Note_off_c, 9, 44, 0
11, 125360, Note_on_c, 9, 44, 42
11, 125360, Note_on_c, 9, 76, 12
11, 125400, Note_off_c, 9, 44, 0
11, 125400, Note_off_c, 9, 76, 0
11, 125456, Note_on_c, 9, 44, 48
11, 125456, Note_on_c, 9, 35, 94
11, 125460, Note_on_c, 9, 68, 39
11, 125460, Note_on_c, 9, 61, 81
11, 125500, Note_off_c, 9, 61, 0
11, 125504, Note_off_c, 9, 35, 0
11, 125504, Note_off_c, 9, 68, 0
11, 125516, Note_off_c, 9, 44, 0
11, 125552, Note_on_c, 9, 44, 70
11, 125552, Note_on_c, 9, 35, 95
11, 125556, Note_on_c, 9, 76, 40
11, 125556, Note_on_c, 9, 63, 78
11, 125556, Note_on_c, 9, 41, 83
11, 125560, Note_on_c, 9, 59, 34
11, 125592, Note_off_c, 9, 35, 0
11, 125596, Note_off_c, 9, 41, 0
11, 125596, Note_off_c, 9, 63, 0
11, 125600, Note_off_c, 9, 76, 0
11, 125600, Note_off_c, 9, 59, 0
11, 125624, Note_off_c, 9, 44, 0
11, 125648, Note_on_c, 9, 44, 48
11, 125712, Note_off_c, 9, 44, 0
11, 125744, Note_on_c, 9, 44, 48
11, 125744, Note_on_c, 9, 76, 65
11, 125748, Note_on_c, 9, 68, 52
11, 125784, Note_off_c, 9, 76, 0
11, 125788, Note_off_c, 9, 68, 0
11, 125796, Note_off_c, 9, 44, 0
11, 125840, Note_on_c, 9, 44, 45
11, 125840, Note_on_c, 9, 68, 35
11, 125884, Note_off_c, 9, 68, 0
11, 125896, Note_off_c, 9, 44, 0
11, 125948, Note_on_c, 9, 44, 66
11, 125948, Note_on_c, 9, 76, 57
11, 125948, Note_on_c, 9, 63, 74
11, 125948, Note_on_c, 9, 35, 89
11, 125948, Note_on_c, 9, 60, 83
11, 125952, Note_off_c, 9, 76, 0
11, 125952, Note_on_c, 9, 76, 46
11, 125952, Note_on_c, 9, 59, 34
11, 125976, Note_off_c, 9, 63, 0
11, 125980, Note_off_c, 9, 35, 0
11, 125980, Note_off_c, 9, 60, 0
11, 125980, Note_off_c, 9, 76, 0
11, 125984, Note_off_c, 9, 59, 0
11, 126008, Note_off_c, 9, 44, 0
11, 126032, Note_on_c, 9, 44, 48
11, 126032, Note_on_c, 9, 76, 27
11, 126072, Note_off_c, 9, 76, 0
11, 126096, Note_off_c, 9, 44, 0
11, 126128, Note_on_c, 9, 44, 51
11, 126128, Note_on_c, 9, 68, 48
11, 126128, Note_on_c, 9, 76, 31
11, 126172, Note_off_c, 9, 76, 0
11, 126176, Note_off_c, 9, 44, 0
11, 126176, Note_off_c, 9, 68, 0
11, 126224, Note_on_c, 9, 44, 51
11, 126224, Note_on_c, 9, 61, 74
11, 126228, Note_on_c, 9, 76, 34
11, 126228, Note_on_c, 9, 35, 95
11, 126264, Note_off_c, 9, 61, 0
11, 126268, Note_off_c, 9, 76, 0
11, 126268, Note_off_c, 9, 35, 0
11, 126292, Note_off_c, 9, 44, 0
11, 126320, Note_on_c, 9, 44, 62
11, 126320, Note_on_c, 9, 76, 49
11, 126324, Note_on_c, 9, 63, 81
11, 126324, Note_on_c, 9, 35, 95
11, 126324, Note_on_c, 9, 59, 34
11, 126328, Note_on_c, 9, 41, 83
11, 126364, Note_off_c, 9, 35, 0
11, 126368, Note_off_c, 9, 76, 0
11, 126368, Note_off_c, 9, 63, 0
11, 126372, Note_off_c, 9, 41, 0
11, 126372, Note_off_c, 9, 59, 0
11, 126392, Note_off_c, 9, 44, 0
11, 126416, Note_on_c, 9, 44, 58
11, 126416, Note_on_c, 9, 68, 24
11, 126456, Note_off_c, 9, 68, 0
11, 126484, Note_off_c, 9, 44, 0
11, 126512, Note_on_c, 9, 44, 66
11, 126512, Note_on_c, 9, 76, 12
11, 126552, Note_off_c, 9, 76, 0
11, 126572, Note_off_c, 9, 44, 0
11, 126608, Note_on_c, 9, 44, 52
11, 126608, Note_on_c, 9, 76, 52
11, 126608, Note_on_c, 9, 68, 52
11, 126648, Note_off_c, 9, 76, 0
11, 126652, Note_off_c, 9, 68, 0
11, 126660, Note_off_c, 9, 44, 0
11, 126704, Note_on_c, 9, 44, 62
11, 126704, Note_on_c, 9, 35, 95
11, 126708, Note_on_c, 9, 63, 74
11, 126708, Note_on_c, 9, 76, 31
11, 126708, Note_on_c, 9, 59, 34
11, 126744, Note_off_c, 9, 35, 0
11, 126748, Note_off_c, 9, 63, 0
11, 126748, Note_off_c, 9, 76, 0
11, 126752, Note_off_c, 9, 59, 0
11, 126776, Note_off_c, 9, 44, 0
11, 126800, Note_on_c, 9, 44, 48
11, 126800, Note_on_c, 9, 63, 56
11, 126848, Note_off_c, 9, 63, 0
11, 126864, Note_off_c, 9, 44, 0
11, 126896, Note_on_c, 9, 44, 51
11, 126896, Note_on_c, 9, 76, 62
11, 126936, Note_off_c, 9, 76, 0
11, 126944, Note_off_c, 9, 44, 0
11, 126992, Note_on_c, 9, 44, 39
11, 126992, Note_on_c, 9, 68, 39
11, 126996, Note_on_c, 9, 61, 81
11, 126996, Note_on_c, 9, 35, 94
11, 127040, Note_off_c, 9, 68, 0
11, 127040, Note_off_c, 9, 61, 0
11, 127040, Note_off_c, 9, 35, 0
11, 127052, Note_off_c, 9, 44, 0
11, 127088, Note_on_c, 9, 44, 62
11, 127088, Note_on_c, 9, 63, 78
11, 127092, Note_on_c, 9, 76, 34
11, 127092, Note_on_c, 9, 35, 95
11, 127092, Note_on_c, 9, 59, 34
11, 127096, Note_on_c, 9, 41, 83
11, 127128, Note_off_c, 9, 63, 0
11, 127132, Note_off_c, 9, 76, 0
11, 127132, Note_off_c, 9, 35, 0
11, 127132, Note_off_c, 9, 59, 0
11, 127136, Note_off_c, 9, 41, 0
11, 127168, Note_off_c, 9, 44, 0
11, 127184, Note_on_c, 9, 44, 47
11, 127220, Note_off_c, 9, 44, 0
11, 127280, Note_on_c, 9, 44, 51
11, 127280, Note_on_c, 9, 68, 52
11, 127280, Note_on_c, 9, 76, 34
11, 127328, Note_off_c, 9, 68, 0
11, 127328, Note_off_c, 9, 76, 0
11, 127336, Note_off_c, 9, 44, 0
11, 127376, Note_on_c, 9, 44, 39
11, 127376, Note_on_c, 9, 68, 35
11, 127420, Note_off_c, 9, 68, 0
11, 127448, Note_off_c, 9, 44, 0
11, 127472, Note_on_c, 9, 44, 62
11, 127480, Note_on_c, 9, 63, 74
11, 127480, Note_on_c, 9, 76, 62
11, 127480, Note_on_c, 9, 35, 89
11, 127480, Note_on_c, 9, 59, 34
11, 127516, Note_off_c, 9, 35, 0
11, 127516, Note_off_c, 9, 63, 0
11, 127516, Note_off_c, 9, 76, 0
11, 127520, Note_off_c, 9, 59, 0
11, 127540, Note_off_c, 9, 44, 0
11, 127564, Note_on_c, 9, 44, 34
11, 127632, Note_off_c, 9, 44, 0
11, 127660, Note_on_c, 9, 44, 58
11, 127660, Note_on_c, 9, 68, 48
11, 127660, Note_on_c, 9, 76, 31
11, 127708, Note_off_c, 9, 68, 0
11, 127708, Note_off_c, 9, 76, 0
11, 127712, Note_off_c, 9, 44, 0
11, 127756, Note_on_c, 9, 44, 45
11, 127756, Note_on_c, 9, 35, 95
11, 127760, Note_on_c, 9, 76, 37
11, 127760, Note_on_c, 9, 61, 74
11, 127796, Note_off_c, 9, 35, 0
11, 127800, Note_off_c, 9, 76, 0
11, 127800, Note_off_c, 9, 61, 0
11, 127820, Note_off_c, 9, 44, 0
11, 127852, Note_on_c, 9, 44, 70
11, 127852, Note_on_c, 9, 76, 56
11, 127856, Note_on_c, 9, 35, 95
11, 127856, Note_on_c, 9, 63, 81
11, 127856, Note_on_c, 9, 59, 34
11, 127860, Note_on_c, 9, 41, 83
11, 127892, Note_off_c, 9, 76, 0
11, 127892, Note_off_c, 9, 35, 0
11, 127896, Note_off_c, 9, 41, 0
11, 127896, Note_off_c, 9, 63, 0
11, 127896, Note_off_c, 9, 59, 0
11, 127936, Note_off_c, 9, 44, 0
11, 127948, Note_on_c, 9, 44, 27
11, 127948, Note_on_c, 9, 68, 24
11, 127992, Note_off_c, 9, 68, 0
11, 128020, Note_off_c, 9, 44, 0
11, 128044, Note_on_c, 9, 44, 51
11, 128044, Note_on_c, 9, 76, 31
11, 128084, Note_off_c, 9, 76, 0
11, 128100, Note_off_c, 9, 44, 0
11, 128140, Note_on_c, 9, 44, 48
11, 128140, Note_on_c, 9, 76, 31
11, 128140, Note_on_c, 9, 68, 52
11, 128188, Note_off_c, 9, 76, 0
11, 128188, Note_off_c, 9, 68, 0
11, 128208, Note_off_c, 9, 44, 0
11, 128236, Note_on_c, 9, 44, 66
11, 128236, Note_on_c, 9, 63, 74
11, 128240, Note_on_c, 9, 76, 62
11, 128240, Note_on_c, 9, 35, 95
11, 128240, Note_on_c, 9, 59, 34
11, 128276, Note_off_c, 9, 63, 0
11, 128280, Note_off_c, 9, 76, 0
11, 128280, Note_off_c, 9, 35, 0
11, 128280, Note_off_c, 9, 59, 0
11, 128308, Note_off_c, 9, 44, 0
11, 128332, Note_on_c, 9, 44, 36
11, 128332, Note_on_c, 9, 63, 56
11, 128376, Note_off_c, 9, 63, 0
11, 128388, Note_off_c, 9, 44, 0
11, 128428, Note_on_c, 9, 44, 51
11, 128428, Note_on_c, 9, 76, 12
11, 128468, Note_off_c, 9, 76, 0
11, 128480, Note_off_c, 9, 44, 0
11, 128524, Note_on_c, 9, 44, 45
11, 128524, Note_on_c, 9, 35, 94
11, 128528, Note_on_c, 9, 61, 81
11, 128528, Note_on_c, 9, 68, 39
11, 128564, Note_off_c, 9, 35, 0
11, 128572, Note_off_c, 9, 61, 0
11, 128572, Note_off_c, 9, 68, 0
11, 128592, Note_off_c, 9, 44, 0
11, 128620, Note_on_c, 9, 44, 70
11, 128624, Note_on_c, 9, 63, 78
11, 128624, Note_on_c, 9, 35, 95
11, 128624, Note_on_c, 9, 76, 40
11, 128628, Note_on_c, 9, 59, 34
11, 128628, Note_on_c, 9, 41, 83
11, 128664, Note_off_c, 9, 76, 0
11, 128668, Note_off_c, 9, 63, 0
11, 128668, Note_off_c, 9, 35, 0
11, 128672, Note_off_c, 9, 41, 0
11, 128672, Note_off_c, 9, 59, 0
11, 128692, Note_off_c, 9, 44, 0
11, 128716, Note_on_c, 9, 44, 28
11, 128772, Note_off_c, 9, 44, 0
11, 128812, Note_on_c, 9, 44, 62
11, 128816, Note_on_c, 9, 76, 65
11, 128820, Note_on_c, 9, 68, 52
11, 128860, Note_off_c, 9, 76, 0
11, 128860, Note_off_c, 9, 68, 0
11, 128864, Note_off_c, 9, 44, 0
11, 128908, Note_on_c, 9, 44, 42
11, 128908, Note_on_c, 9, 68, 35
11, 128948, Note_off_c, 9, 68, 0
11, 128976, Note_off_c, 9, 44, 0
11, 129008, Note_on_c, 9, 44, 66
11, 129012, Note_on_c, 9, 60, 83
11, 129012, Note_on_c, 9, 76, 46
11, 129016, Note_off_c, 9, 76, 0
11, 129016, Note_on_c, 9, 76, 57
11, 129016, Note_on_c, 9, 63, 74
11, 129016, Note_on_c, 9, 35, 89
11, 129020, Note_on_c, 9, 59, 34
11, 129052, Note_off_c, 9, 60, 0
11, 129052, Note_off_c, 9, 76, 0
11, 129052, Note_off_c, 9, 63, 0
11, 129056, Note_off_c, 9, 35, 0
11, 129056, Note_off_c, 9, 59, 0
11, 129076, Note_off_c, 9, 44, 0
11, 129100, Note_on_c, 9, 44, 36
11, 129100, Note_on_c, 9, 76, 27
11, 129140, Note_off_c, 9, 76, 0
11, 129168, Note_off_c, 9, 44, 0
11, 129196, Note_on_c, 9, 44, 58
11, 129196, Note_on_c, 9, 76, 31
11, 129196, Note_on_c, 9, 68, 48
11, 129236, Note_off_c, 9, 76, 0
11, 129240, Note_off_c, 9, 68, 0
11, 129260, Note_off_c, 9, 44, 0
11, 129292, Note_on_c, 9, 44, 31
11, 129292, Note_on_c, 9, 61, 74
11, 129296, Note_on_c, 9, 76, 34
11, 129296, Note_on_c, 9, 35, 95
11, 129340, Note_off_c, 9, 61, 0
11, 129340, Note_off_c, 9, 76, 0
11, 129340, Note_off_c, 9, 35, 0
11, 129360, Note_off_c, 9, 44, 0
11, 129388, Note_on_c, 9, 44, 66
11, 129388, Note_on_c, 9, 76, 49
11, 129392, Note_on_c, 9, 63, 81
11, 129392, Note_on_c, 9, 35, 95
11, 129392, Note_on_c, 9, 59, 34
11, 129396, Note_on_c, 9, 41, 83
11, 129428, Note_off_c, 9, 76, 0
11, 129432, Note_off_c, 9, 35, 0
11, 129432, Note_off_c, 9, 59, 0
11, 129436, Note_off_c, 9, 41, 0
11, 129436, Note_off_c, 9, 63, 0
11, 129460, Note_off_c, 9, 44, 0
11, 129484, Note_on_c, 9, 44, 36
11, 129484, Note_on_c, 9, 68, 24
11, 129532, Note_off_c, 9, 68, 0
11, 129552, Note_off_c, 9, 44, 0
11, 129580, Note_on_c, 9, 44, 62
11, 129580, Note_on_c, 9, 76, 12
11, 129620, Note_off_c, 9, 76, 0
11, 129636, Note_off_c, 9, 44, 0
11, 129676, Note_on_c, 9, 44, 48
11, 129680, Note_on_c, 9, 76, 28
11, 129680, Note_on_c, 9, 68, 52
11, 129724, Note_off_c, 9, 76, 0
11, 129724, Note_off_c, 9, 68, 0
11, 129744, Note_off_c, 9, 44, 0
11, 129772, Note_on_c, 9, 44, 62
11, 129772, Note_on_c, 9, 76, 31
11, 129776, Note_on_c, 9, 63, 74
11, 129780, Note_on_c, 9, 35, 95
11, 129780, Note_on_c, 9, 59, 34
11, 129812, Note_off_c, 9, 76, 0
11, 129816, Note_off_c, 9, 63, 0
11, 129816, Note_off_c, 9, 35, 0
11, 129816, Note_off_c, 9, 59, 0
11, 129852, Note_off_c, 9, 44, 0
11, 129868, Note_on_c, 9, 44, 28
11, 129868, Note_on_c, 9, 63, 56
11, 129908, Note_off_c, 9, 63, 0
11, 129932, Note_off_c, 9, 44, 0
11, 129964, Note_on_c, 9, 44, 45
11, 129964, Note_on_c, 9, 76, 62
11, 130008, Note_off_c, 9, 76, 0
11, 130020, Note_off_c, 9, 44, 0
11, 130060, Note_on_c, 9, 44, 39
11, 130060, Note_on_c, 9, 68, 39
11, 130064, Note_on_c, 9, 61, 81
11, 130064, Note_on_c, 9, 35, 94
11, 130100, Note_off_c, 9, 68, 0
11, 130104, Note_off_c, 9, 61, 0
11, 130104, Note_off_c, 9, 35, 0
11, 130124, Note_off_c, 9, 44, 0
11, 130160, Note_on_c, 9, 44, 66
11, 130164, Note_on_c, 9, 63, 78
11, 130164, Note_on_c, 9, 76, 34
11, 130164, Note_on_c, 9, 35, 95
11, 130168, Note_on_c, 9, 59, 34
11, 130168, Note_on_c, 9, 41, 83
11, 130204, Note_off_c, 9, 63, 0
11, 130204, Note_off_c, 9, 76, 0
11, 130204, Note_off_c, 9, 35, 0
11, 130208, Note_off_c, 9, 41, 0
11, 130208, Note_off_c, 9, 59, 0
11, 130228, Note_off_c, 9, 44, 0
11, 130252, Note_on_c, 9, 44, 48
11, 130320, Note_off_c, 9, 44, 0
11, 130348, Note_on_c, 9, 44, 45
11, 130348, Note_on_c, 9, 68, 52
11, 130352, Note_on_c, 9, 76, 34
11, 130396, Note_off_c, 9, 68, 0
11, 130396, Note_off_c, 9, 76, 0
11, 130400, Note_off_c, 9, 44, 0
11, 130444, Note_on_c, 9, 44, 36
11, 130444, Note_on_c, 9, 68, 35
11, 130484, Note_off_c, 9, 68, 0
11, 130500, Note_off_c, 9, 44, 0
11, 130544, Note_on_c, 9, 44, 66
11, 130544, Note_on_c, 9, 35, 89
11, 130544, Note_on_c, 9, 76, 62
11, 130548, Note_on_c, 9, 63, 74
11, 130548, Note_on_c, 9, 59, 34
11, 130580, Note_off_c, 9, 35, 0
11, 130584, Note_off_c, 9, 63, 0
11, 130584, Note_off_c, 9, 76, 0
11, 130588, Note_off_c, 9, 59, 0
11, 130608, Note_off_c, 9, 44, 0
11, 130636, Note_on_c, 9, 44, 36
11, 130704, Note_off_c, 9, 44, 0
11, 130732, Note_on_c, 9, 44, 62
11, 130732, Note_on_c, 9, 68, 48
11, 130732, Note_on_c, 9, 76, 31
11, 130772, Note_off_c, 9, 68, 0
11, 130776, Note_off_c, 9, 76, 0
11, 130784, Note_off_c, 9, 44, 0
11, 130828, Note_on_c, 9, 44, 42
11, 130832, Note_on_c, 9, 35, 95
11, 130832, Note_on_c, 9, 76, 37
11, 130832, Note_on_c, 9, 61, 74
11, 130876, Note_off_c, 9, 35, 0
11, 130876, Note_off_c, 9, 76, 0
11, 130876, Note_off_c, 9, 61, 0
11, 130884, Note_off_c, 9, 44, 0
11, 130924, Note_on_c, 9, 44, 70
11, 130928, Note_on_c, 9, 63, 81
11, 130928, Note_on_c, 9, 76, 56
11, 130928, Note_on_c, 9, 35, 95
11, 130932, Note_on_c, 9, 59, 34
11, 130932, Note_on_c, 9, 41, 83
11, 130964, Note_off_c, 9, 63, 0
11, 130964, Note_off_c, 9, 76, 0
11, 130968, Note_off_c, 9, 35, 0
11, 130968, Note_off_c, 9, 59, 0
11, 130972, Note_off_c, 9, 41, 0
11, 131000, Note_off_c, 9, 44, 0
11, 131020, Note_on_c, 9, 44, 28
11, 131024, Note_on_c, 9, 68, 24
11, 131060, Note_off_c, 9, 68, 0
11, 131076, Note_off_c, 9, 44, 0
11, 131116, Note_on_c, 9, 44, 54
11, 131120, Note_on_c, 9, 76, 31
11, 131156, Note_off_c, 9, 76, 0
11, 131164, Note_off_c, 9, 44, 0
11, 131212, Note_on_c, 9, 44, 34
11, 131212, Note_on_c, 9, 68, 52
11, 131212, Note_on_c, 9, 76, 31
11, 131252, Note_off_c, 9, 68, 0
11, 131256, Note_off_c, 9, 76, 0
11, 131264, Note_off_c, 9, 44, 0
11, 131308, Note_on_c, 9, 44, 62
11, 131312, Note_on_c, 9, 35, 95
11, 131312, Note_on_c, 9, 76, 62
11, 131316, Note_on_c, 9, 63, 74
11, 131316, Note_on_c, 9, 60, 83
11, 131316, Note_on_c, 9, 59, 34
11, 131356, Note_off_c, 9, 35, 0
11, 131356, Note_off_c, 9, 76, 0
11, 131356, Note_off_c, 9, 63, 0
11, 131356, Note_off_c, 9, 60, 0
11, 131356, Note_off_c, 9, 59, 0
11, 131380, Note_off_c, 9, 44, 0
11, 131404, Note_on_c, 9, 44, 45
11, 131404, Note_on_c, 9, 63, 56
11, 131444, Note_off_c, 9, 63, 0
11, 131460, Note_off_c, 9, 44, 0
11, 131500, Note_on_c, 9, 44, 51
11, 131500, Note_on_c, 9, 76, 12
11, 131548, Note_off_c, 9, 76, 0
11, 131556, Note_off_c, 9, 44, 0
11, 131600, Note_on_c, 9, 44, 45
11, 131604, Note_on_c, 9, 35, 94
11, 131604, Note_on_c, 9, 68, 39
11, 131604, Note_on_c, 9, 61, 81
11, 131636, Note_off_c, 9, 35, 0
11, 131640, Note_off_c, 9, 68, 0
11, 131640, Note_off_c, 9, 61, 0
11, 131664, Note_off_c, 9, 44, 0
11, 131692, Note_on_c, 9, 44, 70
11, 131692, Note_on_c, 9, 35, 95
11, 131696, Note_on_c, 9, 63, 78
11, 131696, Note_on_c, 9, 76, 40
11, 131696, Note_on_c, 9, 59, 34
11, 131700, Note_on_c, 9, 41, 83
11, 131732, Note_off_c, 9, 35, 0
11, 131732, Note_off_c, 9, 63, 0
11, 131736, Note_off_c, 9, 41, 0
11, 131736, Note_off_c, 9, 76, 0
11, 131736, Note_off_c, 9, 59, 0
11, 131764, Note_off_c, 9, 44, 0
11, 131788, Note_on_c, 9, 44, 45
11, 131844, Note_off_c, 9, 44, 0
11, 131884, Note_on_c, 9, 44, 62
11, 131884, Note_on_c, 9, 76, 65
11, 131884, Note_on_c, 9, 68, 52
11, 131924, Note_off_c, 9, 76, 0
11, 131928, Note_off_c, 9, 68, 0
11, 131932, Note_off_c, 9, 44, 0
11, 131980, Note_on_c, 9, 44, 34
11, 131980, Note_on_c, 9, 68, 35
11, 132028, Note_off_c, 9, 68, 0
11, 132036, Note_off_c, 9, 44, 0
11, 132080, Note_on_c, 9, 44, 62
11, 132080, Note_on_c, 9, 60, 83
11, 132088, Note_on_c, 9, 76, 57
11, 132088, Note_on_c, 9, 63, 74
11, 132088, Note_on_c, 9, 35, 89
11, 132092, Note_on_c, 9, 59, 34
11, 132116, Note_off_c, 9, 60, 0
11, 132120, Note_off_c, 9, 76, 0
11, 132120, Note_off_c, 9, 63, 0
11, 132120, Note_off_c, 9, 35, 0
11, 132124, Note_off_c, 9, 59, 0
11, 132148, Note_off_c, 9, 44, 0
11, 132172, Note_on_c, 9, 44, 51
11, 132172, Note_on_c, 9, 76, 27
11, 132220, Note_off_c, 9, 76, 0
11, 132240, Note_off_c, 9, 44, 0
11, 132268, Note_on_c, 9, 44, 58
11, 132268, Note_on_c, 9, 68, 48
11, 132268, Note_on_c, 9, 76, 31
11, 132308, Note_off_c, 9, 68, 0
11, 132312, Note_off_c, 9, 44, 0
11, 132312, Note_off_c, 9, 76, 0
11, 132364, Note_on_c, 9, 44, 39
11, 132364, Note_on_c, 9, 35, 95
11, 132368, Note_on_c, 9, 76, 34
11, 132368, Note_on_c, 9, 61, 74
11, 132404, Note_off_c, 9, 35, 0
11, 132404, Note_off_c, 9, 76, 0
11, 132408, Note_off_c, 9, 61, 0
11, 132416, Note_off_c, 9, 44, 0
11, 132460, Note_on_c, 9, 44, 70
11, 132460, Note_on_c, 9, 35, 95
11, 132464, Note_on_c, 9, 76, 49
11, 132464, Note_on_c, 9, 63, 81
11, 132464, Note_on_c, 9, 41, 83
11, 132468, Note_on_c, 9, 59, 34
11, 132504, Note_off_c, 9, 35, 0
11, 132508, Note_off_c, 9, 76, 0
11, 132516, Note_off_c, 9, 41, 0
11, 132516, Note_off_c, 9, 63, 0
11, 132516, Note_off_c, 9, 59, 0
11, 132532, Note_off_c, 9, 44, 0
11, 132556, Note_on_c, 9, 44, 34
11, 132556, Note_on_c, 9, 68, 24
11, 132596, Note_off_c, 9, 68, 0
11, 132612, Note_off_c, 9, 44, 0
11, 132652, Note_on_c, 9, 44, 58
11, 132652, Note_on_c, 9, 76, 12
11, 132700, Note_off_c, 9, 76, 0
11, 132708, Note_off_c, 9, 44, 0
11, 132744, Note_on_c, 9, 44, 28
11, 132748, Note_on_c, 9, 68, 52
11, 132748, Note_on_c, 9, 76, 28
11, 132792, Note_off_c, 9, 68, 0
11, 132792, Note_off_c, 9, 76, 0
11, 132804, Note_off_c, 9, 44, 0
11, 132848, Note_on_c, 9, 44, 66
11, 132848, Note_on_c, 9, 60, 83
11, 132852, Note_on_c, 9, 76, 31
11, 132860, Note_on_c, 9, 63, 74
11, 132860, Note_on_c, 9, 35, 95
11, 132864, Note_on_c, 9, 59, 34
11, 132892, Note_off_c, 9, 60, 0
11, 132892, Note_off_c, 9, 76, 0
11, 132892, Note_off_c, 9, 63, 0
11, 132896, Note_off_c, 9, 35, 0
11, 132896, Note_off_c, 9, 59, 0
11, 132916, Note_off_c, 9, 44, 0
11, 132940, Note_on_c, 9, 44, 34
11, 132940, Note_on_c, 9, 63, 56
11, 132980, Note_off_c, 9, 63, 0
11, 133004, Note_off_c, 9, 44, 0
11, 133036, Note_on_c, 9, 44, 58
11, 133036, Note_on_c, 9, 76, 62
11, 133076, Note_off_c, 9, 76, 0
11, 133092, Note_off_c, 9, 44, 0
11, 133132, Note_on_c, 9, 44, 34
11, 133136, Note_on_c, 9, 68, 39
11, 133136, Note_on_c, 9, 61, 81
11, 133136, Note_on_c, 9, 35, 94
11, 133176, Note_off_c, 9, 68, 0
11, 133176, Note_off_c, 9, 61, 0
11, 133180, Note_off_c, 9, 35, 0
11, 133188, Note_off_c, 9, 44, 0
11, 133228, Note_on_c, 9, 44, 74
11, 133228, Note_on_c, 9, 76, 34
11, 133232, Note_on_c, 9, 35, 95
11, 133232, Note_on_c, 9, 63, 78
11, 133232, Note_on_c, 9, 59, 34
11, 133236, Note_on_c, 9, 41, 83
11, 133268, Note_off_c, 9, 76, 0
11, 133272, Note_off_c, 9, 35, 0
11, 133272, Note_off_c, 9, 63, 0
11, 133272, Note_off_c, 9, 59, 0
11, 133276, Note_off_c, 9, 41, 0
11, 133296, Note_off_c, 9, 44, 0
11, 133324, Note_on_c, 9, 44, 58
11, 133324, Note_on_c, 9, 35, 95
11, 133328, Note_on_c, 9, 60, 76
11, 133372, Note_off_c, 9, 35, 0
11, 133372, Note_off_c, 9, 60, 0
11, 133396, Note_off_c, 9, 44, 0
11, 133420, Note_on_c, 9, 44, 66
11, 133420, Note_on_c, 9, 68, 52
11, 133420, Note_on_c, 9, 76, 34
11, 133424, Note_on_c, 9, 41, 58
11, 133460, Note_off_c, 9, 68, 0
11, 133464, Note_off_c, 9, 76, 0
11, 133468, Note_off_c, 9, 41, 0
11, 133476, Note_off_c, 9, 44, 0
11, 133516, Note_on_c, 9, 44, 34
11, 133516, Note_on_c, 9, 68, 35
11, 133516, Note_on_c, 9, 41, 82
11, 133560, Note_off_c, 9, 41, 0
11, 133564, Note_off_c, 9, 68, 0
11, 133572, Note_off_c, 9, 44, 0
11, 133612, Note_on_c, 9, 44, 70
11, 133616, Note_on_c, 9, 35, 89
11, 133624, Note_on_c, 9, 63, 74
11, 133624, Note_on_c, 9, 59, 34
11, 133652, Note_off_c, 9, 35, 0
11, 133660, Note_off_c, 9, 63, 0
11, 133660, Note_off_c, 9, 59, 0
11, 133692, Note_off_c, 9, 44, 0
11, 133708, Note_on_c, 9, 44, 36
11, 133760, Note_off_c, 9, 44, 0
11, 133804, Note_on_c, 9, 44, 51
11, 133804, Note_on_c, 9, 68, 48
11, 133848, Note_off_c, 9, 68, 0
11, 133856, Note_off_c, 9, 44, 0
11, 133856, Pitch_bend_c, 9, 7936
11, 133872, Pitch_bend_c, 9, 7552
11, 133892, Pitch_bend_c, 9, 7168
11, 133896, Pitch_bend_c, 9, 6911
11, 133912, Note_on_c, 9, 44, 36
11, 133912, Note_on_c, 9, 35, 95
11, 133916, Note_on_c, 9, 61, 74
11, 133916, Pitch_bend_c, 9, 6527
11, 133924, Pitch_bend_c, 9, 6144
11, 133940, Note_off_c, 9, 35, 0
11, 133940, Pitch_bend_c, 9, 5760
11, 133944, Note_off_c, 9, 61, 0
11, 133948, Pitch_bend_c, 9, 5631
11, 133952, Note_off_c, 9, 44, 0
11, 133968, Pitch_bend_c, 9, 5247
11, 133984, Pitch_bend_c, 9, 4864
11, 133996, Note_on_c, 9, 44, 66
11, 133996, Note_on_c, 9, 63, 81
11, 133996, Note_on_c, 9, 35, 95
11, 134000, Note_on_c, 9, 59, 34
11, 134000, Note_on_c, 9, 41, 83
11, 134004, Pitch_bend_c, 9, 4608
11, 134016, Pitch_bend_c, 9, 4352
11, 134016, Pitch_bend_c, 9, 4223
11, 134036, Pitch_bend_c, 9, 3712
11, 134044, Note_off_c, 9, 63, 0
11, 134044, Note_off_c, 9, 35, 0
11, 134048, Note_off_c, 9, 41, 0
11, 134048, Note_off_c, 9, 59, 0
11, 134048, Pitch_bend_c, 9, 3456
11, 134064, Pitch_bend_c, 9, 3071
11, 134068, Note_off_c, 9, 44, 0
11, 134080, Pitch_bend_c, 9, 2688
11, 134088, Pitch_bend_c, 9, 2559
11, 134092, Note_on_c, 9, 44, 42
11, 134096, Note_on_c, 9, 68, 24
11, 134104, Pitch_bend_c, 9, 2303
11, 134124, Pitch_bend_c, 9, 2048
11, 134132, Note_off_c, 9, 68, 0
11, 134144, Pitch_bend_c, 9, 1792
11, 134152, Note_off_c, 9, 44, 0
11, 134160, Pitch_bend_c, 9, 1663
11, 134180, Pitch_bend_c, 9, 1280
11, 134188, Note_on_c, 9, 44, 58
11, 134200, Pitch_bend_c, 9, 1151
11, 134208, Pitch_bend_c, 9, 768
11, 134228, Pitch_bend_c, 9, 384
11, 134240, Note_off_c, 9, 44, 0
11, 134244, Pitch_bend_c, 9, 128
11, 134248, Pitch_bend_c, 9, 0
11, 134288, Note_on_c, 9, 44, 31
11, 134288, Note_on_c, 9, 68, 52
11, 134324, Note_off_c, 9, 68, 0
11, 134332, Note_off_c, 9, 44, 0
11, 134380, Note_on_c, 9, 44, 66
11, 134384, Note_on_c, 9, 63, 74
11, 134384, Note_on_c, 9, 35, 95
11, 134388, Note_on_c, 9, 59, 34
11, 134420, Note_off_c, 9, 63, 0
11, 134420, Note_off_c, 9, 35, 0
11, 134424, Note_off_c, 9, 59, 0
11, 134452, Note_off_c, 9, 44, 0
11, 134472, Note_on_c, 9, 44, 48
11, 134476, Note_on_c, 9, 63, 56
11, 134520, Note_off_c, 9, 63, 0
11, 134540, Note_off_c, 9, 44, 0
11, 134576, Note_on_c, 9, 44, 48
11, 134624, Note_off_c, 9, 44, 0
11, 134668, Note_on_c, 9, 44, 27
11, 134668, Note_on_c, 9, 68, 39
11, 134668, Note_on_c, 9, 61, 81
11, 134672, Note_on_c, 9, 35, 94
11, 134716, Note_off_c, 9, 68, 0
11, 134716, Note_off_c, 9, 61, 0
11, 134716, Note_off_c, 9, 35, 0
11, 134724, Note_off_c, 9, 44, 0
11, 134764, Note_on_c, 9, 44, 66
11, 134768, Note_on_c, 9, 63, 78
11, 134768, Note_on_c, 9, 35, 95
11, 134772, Note_on_c, 9, 41, 83
11, 134776, Note_on_c, 9, 59, 34
11, 134784, Pitch_bend_c, 9, 639
11, 134792, Pitch_bend_c, 9, 1536
11, 134800, Pitch_bend_c, 9, 2303
11, 134804, Note_off_c, 9, 63, 0
11, 134804, Pitch_bend_c, 9, 3328
11, 134808, Note_off_c, 9, 41, 0
11, 134812, Note_off_c, 9, 35, 0
11, 134812, Note_off_c, 9, 59, 0
11, 134816, Pitch_bend_c, 9, 4224
11, 134824, Pitch_bend_c, 9, 5120
11, 134832, Pitch_bend_c, 9, 6143
11, 134836, Note_off_c, 9, 44, 0
11, 134844, Pitch_bend_c, 9, 7168
11, 134844, Pitch_bend_c, 9, 8063
11, 134852, Pitch_bend_c, 9, 8192
11, 134860, Note_on_c, 9, 44, 39
11, 134916, Note_off_c, 9, 44, 0
11, 134956, Note_on_c, 9, 44, 54
11, 134956, Note_on_c, 9, 68, 52
11, 134996, Note_off_c, 9, 68, 0
11, 135004, Note_off_c, 9, 44, 0
11, 135052, Note_on_c, 9, 44, 36
11, 135056, Note_on_c, 9, 68, 35
11, 135092, Note_off_c, 9, 68, 0
11, 135116, Note_off_c, 9, 44, 0
11, 135148, Note_on_c, 9, 44, 62
11, 135148, Note_on_c, 9, 63, 74
11, 135148, Note_on_c, 9, 35, 89
11, 135156, Note_on_c, 9, 59, 34
11, 135196, Note_off_c, 9, 35, 0
11, 135196, Note_off_c, 9, 59, 0
11, 135196, Note_off_c, 9, 63, 0
11, 135220, Note_off_c, 9, 44, 0
11, 135248, Note_on_c, 9, 44, 27
11, 135312, Note_off_c, 9, 44, 0
11, 135344, Note_on_c, 9, 44, 62
11, 135344, Note_on_c, 9, 68, 48
11, 135388, Note_off_c, 9, 44, 0
11, 135388, Note_off_c, 9, 68, 0
11, 135436, Note_on_c, 9, 44, 42
11, 135440, Note_on_c, 9, 35, 95
11, 135440, Note_on_c, 9, 61, 74
11, 135476, Note_off_c, 9, 35, 0
11, 135480, Note_off_c, 9, 61, 0
11, 135500, Note_off_c, 9, 44, 0
11, 135532, Note_on_c, 9, 44, 74
11, 135532, Note_on_c, 9, 35, 95
11, 135532, Note_on_c, 9, 63, 81
11, 135536, Note_on_c, 9, 41, 83
11, 135536, Note_on_c, 9, 59, 34
11, 135572, Note_off_c, 9, 35, 0
11, 135572, Note_off_c, 9, 63, 0
11, 135576, Note_off_c, 9, 41, 0
11, 135576, Note_off_c, 9, 59, 0
11, 135604, Note_off_c, 9, 44, 0
11, 135628, Note_on_c, 9, 44, 39
11, 135628, Note_on_c, 9, 68, 24
11, 135668, Note_off_c, 9, 68, 0
11, 135700, Note_off_c, 9, 44, 0
11, 135728, Note_on_c, 9, 44, 62
11, 135772, Note_off_c, 9, 44, 0
11, 135820, Note_on_c, 9, 44, 39
11, 135820, Note_on_c, 9, 68, 52
11, 135864, Note_off_c, 9, 68, 0
11, 135876, Note_off_c, 9, 44, 0
11, 135916, Note_on_c, 9, 44, 74
11, 135916, Note_on_c, 9, 63, 74
11, 135920, Note_on_c, 9, 35, 95
11, 135920, Note_on_c, 9, 59, 34
11, 135956, Note_off_c, 9, 63, 0
11, 135964, Note_off_c, 9, 35, 0
11, 135964, Note_off_c, 9, 59, 0
11, 135988, Note_off_c, 9, 44, 0
11, 136012, Note_on_c, 9, 44, 28
11, 136016, Note_on_c, 9, 63, 56
11, 136060, Note_off_c, 9, 63, 0
11, 136068, Note_off_c, 9, 44, 0
11, 136112, Note_on_c, 9, 44, 58
11, 136152, Note_off_c, 9, 44, 0
11, 136204, Note_on_c, 9, 44, 39
11, 136208, Note_on_c, 9, 35, 94
11, 136208, Note_on_c, 9, 68, 39
11, 136208, Note_on_c, 9, 61, 81
11, 136244, Note_off_c, 9, 35, 0
11, 136244, Note_off_c, 9, 68, 0
11, 136248, Note_off_c, 9, 61, 0
11, 136256, Note_off_c, 9, 44, 0
11, 136288, Note_on_c, 9, 44, 74
11, 136292, Note_on_c, 9, 35, 95
11, 136296, Note_on_c, 9, 63, 78
11, 136300, Note_on_c, 9, 59, 34
11, 136304, Note_on_c, 9, 41, 83
11, 136348, Note_off_c, 9, 35, 0
11, 136348, Note_off_c, 9, 63, 0
11, 136348, Note_off_c, 9, 59, 0
11, 136352, Note_off_c, 9, 41, 0
11, 136376, Note_off_c, 9, 44, 0
11, 136396, Note_on_c, 9, 44, 45
11, 136460, Note_off_c, 9, 44, 0
11, 136492, Note_on_c, 9, 44, 62
11, 136492, Note_on_c, 9, 68, 52
11, 136536, Note_off_c, 9, 68, 0
11, 136544, Note_off_c, 9, 44, 0
11, 136588, Note_on_c, 9, 44, 34
11, 136588, Note_on_c, 9, 68, 35
11, 136628, Note_off_c, 9, 68, 0
11, 136648, Note_off_c, 9, 44, 0
11, 136692, Note_on_c, 9, 44, 62
11, 136692, Note_on_c, 9, 63, 74
11, 136692, Note_on_c, 9, 35, 89
11, 136696, Note_on_c, 9, 59, 34
11, 136728, Note_off_c, 9, 35, 0
11, 136728, Note_off_c, 9, 59, 0
11, 136732, Note_off_c, 9, 63, 0
11, 136756, Note_off_c, 9, 44, 0
11, 136780, Note_on_c, 9, 44, 48
11, 136848, Note_off_c, 9, 44, 0
11, 136876, Note_on_c, 9, 44, 48
11, 136876, Note_on_c, 9, 68, 48
11, 136916, Note_off_c, 9, 44, 0
11, 136916, Note_off_c, 9, 68, 0
11, 136980, Note_on_c, 9, 44, 42
11, 136980, Note_on_c, 9, 35, 95
11, 136980, Note_on_c, 9, 61, 74
11, 137020, Note_off_c, 9, 35, 0
11, 137020, Note_off_c, 9, 61, 0
11, 137036, Note_off_c, 9, 44, 0
11, 137068, Note_on_c, 9, 44, 70
11, 137068, Note_on_c, 9, 35, 95
11, 137068, Note_on_c, 9, 63, 81
11, 137072, Note_on_c, 9, 59, 34
11, 137072, Note_on_c, 9, 41, 83
11, 137108, Note_off_c, 9, 35, 0
11, 137112, Note_off_c, 9, 41, 0
11, 137112, Note_off_c, 9, 63, 0
11, 137112, Note_off_c, 9, 59, 0
11, 137144, Note_off_c, 9, 44, 0
11, 137168, Note_on_c, 9, 44, 34
11, 137168, Note_on_c, 9, 68, 24
11, 137212, Note_off_c, 9, 68, 0
11, 137220, Note_off_c, 9, 44, 0
11, 137256, Note_on_c, 9, 44, 45
11, 137312, Note_off_c, 9, 44, 0
11, 137356, Note_on_c, 9, 44, 36
11, 137360, Note_on_c, 9, 68, 52
11, 137400, Note_off_c, 9, 68, 0
11, 137404, Note_off_c, 9, 44, 0
11, 137452, Note_on_c, 9, 44, 62
11, 137456, Note_on_c, 9, 35, 95
11, 137456, Note_on_c, 9, 63, 74
11, 137460, Note_on_c, 9, 59, 34
11, 137492, Note_off_c, 9, 35, 0
11, 137496, Note_off_c, 9, 63, 0
11, 137496, Note_off_c, 9, 59, 0
11, 137528, Note_off_c, 9, 44, 0
11, 137548, Note_on_c, 9, 44, 39
11, 137548, Note_on_c, 9, 63, 56
11, 137588, Note_off_c, 9, 63, 0
11, 137612, Note_off_c, 9, 44, 0
11, 137652, Note_on_c, 9, 44, 45
11, 137688, Note_off_c, 9, 44, 0
11, 137740, Note_on_c, 9, 44, 42
11, 137740, Note_on_c, 9, 68, 39
11, 137740, Note_on_c, 9, 61, 81
11, 137744, Note_on_c, 9, 35, 94
11, 137780, Note_off_c, 9, 68, 0
11, 137784, Note_off_c, 9, 61, 0
11, 137784, Note_off_c, 9, 35, 0
11, 137808, Note_off_c, 9, 44, 0
11, 137840, Note_on_c, 9, 44, 70
11, 137844, Note_on_c, 9, 35, 95
11, 137844, Note_on_c, 9, 63, 78
11, 137844, Note_on_c, 9, 41, 83
11, 137848, Note_on_c, 9, 59, 34
11, 137884, Note_off_c, 9, 41, 0
11, 137884, Note_off_c, 9, 35, 0
11, 137884, Note_off_c, 9, 63, 0
11, 137888, Note_off_c, 9, 59, 0
11, 137916, Note_off_c, 9, 44, 0
11, 137932, Note_on_c, 9, 44, 34
11, 137992, Note_off_c, 9, 44, 0
11, 138028, Note_on_c, 9, 44, 48
11, 138032, Note_on_c, 9, 68, 52
11, 138076, Note_off_c, 9, 68, 0
11, 138084, Note_off_c, 9, 44, 0
11, 138124, Note_on_c, 9, 44, 39
11, 138128, Note_on_c, 9, 68, 35
11, 138164, Note_off_c, 9, 68, 0
11, 138188, Note_off_c, 9, 44, 0
11, 138220, Note_on_c, 9, 44, 58
11, 138224, Note_on_c, 9, 63, 74
11, 138224, Note_on_c, 9, 35, 89
11, 138224, Note_on_c, 9, 59, 34
11, 138260, Note_off_c, 9, 63, 0
11, 138264, Note_off_c, 9, 35, 0
11, 138264, Note_off_c, 9, 59, 0
11, 138288, Note_off_c, 9, 44, 0
11, 138316, Note_on_c, 9, 44, 39
11, 138384, Note_off_c, 9, 44, 0
11, 138416, Note_on_c, 9, 44, 54
11, 138416, Note_on_c, 9, 68, 48
11, 138452, Note_off_c, 9, 68, 0
11, 138456, Note_off_c, 9, 44, 0
11, 138508, Note_on_c, 9, 44, 42
11, 138508, Note_on_c, 9, 35, 95
11, 138508, Note_on_c, 9, 61, 74
11, 138556, Note_off_c, 9, 44, 0
11, 138556, Note_off_c, 9, 35, 0
11, 138556, Note_off_c, 9, 61, 0
11, 138604, Note_on_c, 9, 44, 62
11, 138608, Note_on_c, 9, 35, 95
11, 138608, Note_on_c, 9, 63, 81
11, 138608, Note_on_c, 9, 41, 83
11, 138612, Note_on_c, 9, 59, 34
11, 138644, Note_off_c, 9, 35, 0
11, 138648, Note_off_c, 9, 41, 0
11, 138648, Note_off_c, 9, 63, 0
11, 138652, Note_off_c, 9, 59, 0
11, 138676, Note_off_c, 9, 44, 0
11, 138700, Note_on_c, 9, 44, 48
11, 138704, Note_on_c, 9, 68, 24
11, 138744, Note_off_c, 9, 68, 0
11, 138768, Note_off_c, 9, 44, 0
11, 138800, Note_on_c, 9, 44, 54
11, 138848, Note_off_c, 9, 44, 0
11, 138892, Note_on_c, 9, 44, 42
11, 138896, Note_on_c, 9, 68, 52
11, 138932, Note_off_c, 9, 68, 0
11, 138960, Note_off_c, 9, 44, 0
11, 138988, Note_on_c, 9, 44, 54
11, 138988, Note_on_c, 9, 35, 95
11, 138988, Note_on_c, 9, 63, 74
11, 138992, Note_on_c, 9, 59, 34
11, 139036, Note_off_c, 9, 35, 0
11, 139036, Note_off_c, 9, 63, 0
11, 139036, Note_off_c, 9, 59, 0
11, 139068, Note_off_c, 9, 44, 0
11, 139084, Note_on_c, 9, 44, 31
11, 139088, Note_on_c, 9, 63, 56
11, 139124, Note_off_c, 9, 63, 0
11, 139140, Note_off_c, 9, 44, 0
11, 139180, Note_on_c, 9, 44, 45
11, 139232, Note_off_c, 9, 44, 0
11, 139276, Note_on_c, 9, 44, 48
11, 139280, Note_on_c, 9, 68, 39
11, 139280, Note_on_c, 9, 61, 81
11, 139280, Note_on_c, 9, 35, 94
11, 139316, Note_off_c, 9, 68, 0
11, 139320, Note_off_c, 9, 61, 0
11, 139320, Note_off_c, 9, 35, 0
11, 139344, Note_off_c, 9, 44, 0
11, 139372, Note_on_c, 9, 44, 66
11, 139372, Note_on_c, 9, 35, 95
11, 139376, Note_on_c, 9, 63, 78
11, 139376, Note_on_c, 9, 59, 34
11, 139376, Note_on_c, 9, 41, 83
11, 139416, Note_off_c, 9, 63, 0
11, 139416, Note_off_c, 9, 59, 0
11, 139420, Note_off_c, 9, 41, 0
11, 139420, Note_off_c, 9, 35, 0
11, 139444, Note_off_c, 9, 44, 0
11, 139468, Note_on_c, 9, 44, 36
11, 139524, Note_off_c, 9, 44, 0
11, 139564, Note_on_c, 9, 44, 48
11, 139568, Note_on_c, 9, 68, 52
11, 139608, Note_off_c, 9, 68, 0
11, 139612, Note_off_c, 9, 44, 0
11, 139660, Note_on_c, 9, 44, 36
11, 139660, Note_on_c, 9, 68, 35
11, 139708, Note_off_c, 9, 68, 0
11, 139716, Note_off_c, 9, 44, 0
11, 139756, Note_on_c, 9, 44, 62
11, 139760, Note_on_c, 9, 63, 74
11, 139760, Note_on_c, 9, 35, 89
11, 139764, Note_on_c, 9, 59, 34
11, 139796, Note_off_c, 9, 63, 0
11, 139800, Note_off_c, 9, 35, 0
11, 139804, Note_off_c, 9, 59, 0
11, 139828, Note_off_c, 9, 44, 0
11, 139852, Note_on_c, 9, 44, 42
11, 139920, Note_off_c, 9, 44, 0
11, 139948, Note_on_c, 9, 44, 58
11, 139948, Note_on_c, 9, 68, 48
11, 139988, Note_off_c, 9, 68, 0
11, 140000, Note_off_c, 9, 44, 0
11, 140044, Note_on_c, 9, 44, 48
11, 140048, Note_on_c, 9, 35, 95
11, 140048, Note_on_c, 9, 61, 74
11, 140084, Note_off_c, 9, 35, 0
11, 140084, Note_off_c, 9, 61, 0
11, 140108, Note_off_c, 9, 44, 0
11, 140140, Note_on_c, 9, 44, 70
11, 140140, Note_on_c, 9, 63, 81
11, 140140, Note_on_c, 9, 35, 95
11, 140144, Note_on_c, 9, 59, 34
11, 140144, Note_on_c, 9, 41, 83
11, 140180, Note_off_c, 9, 63, 0
11, 140184, Note_off_c, 9, 41, 0
11, 140184, Note_off_c, 9, 35, 0
11, 140184, Note_off_c, 9, 59, 0
11, 140224, Note_off_c, 9, 44, 0
11, 140236, Note_on_c, 9, 44, 48
11, 140240, Note_on_c, 9, 68, 24
11, 140276, Note_off_c, 9, 68, 0
11, 140296, Note_off_c, 9, 44, 0
11, 140328, Note_on_c, 9, 44, 54
11, 140384, Note_off_c, 9, 44, 0
11, 140428, Note_on_c, 9, 44, 49
11, 140432, Note_on_c, 9, 68, 49
11, 140468, Note_off_c, 9, 68, 0
11, 140476, Note_off_c, 9, 44, 0
11, 140524, Note_on_c, 9, 44, 66
11, 140528, Note_on_c, 9, 35, 95
11, 140528, Note_on_c, 9, 63, 74
11, 140532, Note_on_c, 9, 59, 34
11, 140572, Note_off_c, 9, 35, 0
11, 140572, Note_off_c, 9, 63, 0
11, 140572, Note_off_c, 9, 59, 0
11, 140612, Note_off_c, 9, 44, 0
11, 140616, Note_on_c, 9, 44, 39
11, 140620, Note_on_c, 9, 63, 56
11, 140660, Note_off_c, 9, 63, 0
11, 140680, Note_off_c, 9, 44, 0
11, 140720, Note_on_c, 9, 44, 54
11, 140772, Note_off_c, 9, 44, 0
11, 140812, Note_on_c, 9, 44, 36
11, 140812, Note_on_c, 9, 68, 39
11, 140812, Note_on_c, 9, 61, 81
11, 140816, Note_on_c, 9, 35, 94
11, 140860, Note_off_c, 9, 68, 0
11, 140860, Note_off_c, 9, 61, 0
11, 140860, Note_off_c, 9, 35, 0
11, 140868, Note_off_c, 9, 44, 0
11, 140908, Note_on_c, 9, 44, 74
11, 140912, Note_on_c, 9, 63, 78
11, 140912, Note_on_c, 9, 35, 95
11, 140912, Note_on_c, 9, 41, 83
11, 140916, Note_on_c, 9, 59, 34
11, 140948, Note_off_c, 9, 63, 0
11, 140952, Note_off_c, 9, 41, 0
11, 140952, Note_off_c, 9, 35, 0
11, 140952, Note_off_c, 9, 59, 0
11, 140988, Note_off_c, 9, 44, 0
11, 141004, Note_on_c, 9, 44, 45
11, 141060, Note_off_c, 9, 44, 0
11, 141100, Note_on_c, 9, 44, 48
11, 141104, Note_on_c, 9, 68, 52
11, 141140, Note_off_c, 9, 68, 0
11, 141144, Note_off_c, 9, 44, 0
11, 141196, Note_on_c, 9, 44, 42
11, 141200, Note_on_c, 9, 68, 35
11, 141240, Note_off_c, 9, 68, 0
11, 141252, Note_off_c, 9, 44, 0
11, 141292, Note_on_c, 9, 44, 74
11, 141296, Note_on_c, 9, 63, 74
11, 141296, Note_on_c, 9, 35, 89
11, 141296, Note_on_c, 9, 59, 34
11, 141332, Note_off_c, 9, 63, 0
11, 141336, Note_off_c, 9, 35, 0
11, 141340, Note_off_c, 9, 59, 0
11, 141364, Note_off_c, 9, 44, 0
11, 141388, Note_on_c, 9, 44, 36
11, 141440, Note_off_c, 9, 44, 0
11, 141484, Note_on_c, 9, 44, 54
11, 141488, Note_on_c, 9, 68, 48
11, 141532, Note_off_c, 9, 44, 0
11, 141532, Note_off_c, 9, 68, 0
11, 141580, Note_on_c, 9, 44, 48
11, 141584, Note_on_c, 9, 61, 74
11, 141584, Note_on_c, 9, 35, 95
11, 141620, Note_off_c, 9, 61, 0
11, 141624, Note_off_c, 9, 35, 0
11, 141628, Note_off_c, 9, 44, 0
11, 141676, Note_on_c, 9, 44, 70
11, 141676, Note_on_c, 9, 63, 81
11, 141676, Note_on_c, 9, 35, 95
11, 141680, Note_on_c, 9, 41, 83
11, 141684, Note_on_c, 9, 59, 34
11, 141724, Note_off_c, 9, 41, 0
11, 141724, Note_off_c, 9, 63, 0
11, 141724, Note_off_c, 9, 35, 0
11, 141728, Note_off_c, 9, 59, 0
11, 141748, Note_off_c, 9, 44, 0
11, 141776, Note_on_c, 9, 44, 58
11, 141776, Note_on_c, 9, 68, 24
11, 141812, Note_off_c, 9, 68, 0
11, 141844, Note_off_c, 9, 44, 0
11, 141868, Note_on_c, 9, 44, 48
11, 141924, Note_off_c, 9, 44, 0
11, 141964, Note_on_c, 9, 44, 34
11, 141968, Note_on_c, 9, 68, 52
11, 142004, Note_off_c, 9, 68, 0
11, 142020, Note_off_c, 9, 44, 0
11, 142060, Note_on_c, 9, 44, 58
11, 142064, Note_on_c, 9, 63, 74
11, 142064, Note_on_c, 9, 35, 95
11, 142064, Note_on_c, 9, 59, 34
11, 142100, Note_off_c, 9, 63, 0
11, 142104, Note_off_c, 9, 35, 0
11, 142108, Note_off_c, 9, 59, 0
11, 142132, Note_off_c, 9, 44, 0
11, 142156, Note_on_c, 9, 44, 34
11, 142156, Note_on_c, 9, 63, 56
11, 142204, Note_off_c, 9, 63, 0
11, 142208, Note_off_c, 9, 44, 0
11, 142252, Note_on_c, 9, 44, 54
11, 142308, Note_off_c, 9, 44, 0
11, 142348, Note_on_c, 9, 44, 36
11, 142348, Note_on_c, 9, 35, 94
11, 142348, Note_on_c, 9, 68, 39
11, 142352, Note_on_c, 9, 61, 81
11, 142396, Note_off_c, 9, 35, 0
11, 142396, Note_off_c, 9, 68, 0
11, 142396, Note_off_c, 9, 61, 0
11, 142404, Note_off_c, 9, 44, 0
11, 142444, Note_on_c, 9, 44, 74
11, 142448, Note_on_c, 9, 35, 95
11, 142448, Note_on_c, 9, 63, 78
11, 142448, Note_on_c, 9, 41, 83
11, 142452, Note_on_c, 9, 59, 34
11, 142484, Note_off_c, 9, 35, 0
11, 142488, Note_off_c, 9, 41, 0
11, 142488, Note_off_c, 9, 63, 0
11, 142488, Note_off_c, 9, 59, 0
11, 142528, Note_off_c, 9, 44, 0
11, 142540, Note_on_c, 9, 44, 48
11, 142600, Note_off_c, 9, 44, 0
11, 142636, Note_on_c, 9, 44, 51
11, 142640, Note_on_c, 9, 68, 52
11, 142676, Note_off_c, 9, 68, 0
11, 142680, Note_off_c, 9, 44, 0
11, 142732, Note_on_c, 9, 44, 34
11, 142732, Note_on_c, 9, 68, 35
11, 142772, Note_off_c, 9, 68, 0
11, 142788, Note_off_c, 9, 44, 0
11, 142832, Note_on_c, 9, 44, 74
11, 142832, Note_on_c, 9, 63, 74
11, 142836, Note_on_c, 9, 35, 89
11, 142836, Note_on_c, 9, 59, 34
11, 142876, Note_off_c, 9, 35, 0
11, 142876, Note_off_c, 9, 59, 0
11, 142876, Note_off_c, 9, 63, 0
11, 142904, Note_off_c, 9, 44, 0
11, 142924, Note_on_c, 9, 44, 48
11, 142988, Note_off_c, 9, 44, 0
11, 143020, Note_on_c, 9, 44, 45
11, 143020, Note_on_c, 9, 68, 48
11, 143064, Note_off_c, 9, 44, 0
11, 143064, Note_off_c, 9, 68, 0
11, 143116, Note_on_c, 9, 44, 42
11, 143120, Note_on_c, 9, 35, 95
11, 143120, Note_on_c, 9, 61, 74
11, 143156, Note_off_c, 9, 35, 0
11, 143160, Note_off_c, 9, 61, 0
11, 143168, Note_off_c, 9, 44, 0
11, 143212, Note_on_c, 9, 44, 70
11, 143212, Note_on_c, 9, 63, 81
11, 143212, Note_on_c, 9, 35, 95
11, 143216, Note_on_c, 9, 59, 34
11, 143216, Note_on_c, 9, 41, 83
11, 143260, Note_off_c, 9, 63, 0
11, 143260, Note_off_c, 9, 35, 0
11, 143260, Note_off_c, 9, 59, 0
11, 143264, Note_off_c, 9, 41, 0
11, 143296, Note_off_c, 9, 44, 0
11, 143312, Note_on_c, 9, 44, 45
11, 143312, Note_on_c, 9, 68, 24
11, 143348, Note_off_c, 9, 68, 0
11, 143364, Note_off_c, 9, 44, 0
11, 143404, Note_on_c, 9, 44, 54
11, 143456, Note_off_c, 9, 44, 0
11, 143504, Note_on_c, 9, 44, 42
11, 143508, Note_on_c, 9, 68, 52
11, 143540, Note_off_c, 9, 68, 0
11, 143568, Note_off_c, 9, 44, 0
11, 143596, Note_on_c, 9, 44, 74
11, 143596, Note_on_c, 9, 35, 95
11, 143600, Note_on_c, 9, 63, 74
11, 143600, Note_on_c, 9, 59, 34
11, 143636, Note_off_c, 9, 35, 0
11, 143640, Note_off_c, 9, 63, 0
11, 143640, Note_off_c, 9, 59, 0
11, 143676, Note_off_c, 9, 44, 0
11, 143692, Note_on_c, 9, 44, 36
11, 143692, Note_on_c, 9, 63, 56
11, 143740, Note_off_c, 9, 63, 0
11, 143748, Note_off_c, 9, 44, 0
11, 143788, Note_on_c, 9, 44, 51
11, 143836, Note_off_c, 9, 44, 0
11, 143884, Note_on_c, 9, 44, 42
11, 143884, Note_on_c, 9, 35, 94
11, 143884, Note_on_c, 9, 68, 39
11, 143888, Note_on_c, 9, 61, 81
11, 143932, Note_off_c, 9, 35, 0
11, 143932, Note_off_c, 9, 68, 0
11, 143932, Note_off_c, 9, 61, 0
11, 143936, Note_off_c, 9, 44, 0
11, 143980, Note_on_c, 9, 44, 70
11, 143980, Note_on_c, 9, 35, 95
11, 143984, Note_on_c, 9, 63, 78
11, 143984, Note_on_c, 9, 41, 83
11, 143988, Note_on_c, 9, 59, 34
11, 144020, Note_off_c, 9, 35, 0
11, 144024, Note_off_c, 9, 41, 0
11, 144024, Note_off_c, 9, 63, 0
11, 144024, Note_off_c, 9, 59, 0
11, 144052, Note_off_c, 9, 44, 0
11, 144076, Note_on_c, 9, 44, 39
11, 144140, Note_off_c, 9, 44, 0
11, 144172, Note_on_c, 9, 44, 48
11, 144172, Note_on_c, 9, 68, 52
11, 144220, Note_off_c, 9, 44, 0
11, 144220, Note_off_c, 9, 68, 0
11, 144268, Note_on_c, 9, 44, 36
11, 144272, Note_on_c, 9, 68, 35
11, 144308, Note_off_c, 9, 68, 0
11, 144324, Note_off_c, 9, 44, 0
11, 144364, Note_on_c, 9, 44, 62
11, 144368, Note_on_c, 9, 35, 89
11, 144368, Note_on_c, 9, 63, 74
11, 144368, Note_on_c, 9, 59, 34
11, 144408, Note_off_c, 9, 59, 0
11, 144412, Note_off_c, 9, 35, 0
11, 144412, Note_off_c, 9, 63, 0
11, 144436, Note_off_c, 9, 44, 0
11, 144460, Note_on_c, 9, 44, 36
11, 144508, Note_off_c, 9, 44, 0
11, 144560, Note_on_c, 9, 44, 39
11, 144560, Note_on_c, 9, 68, 48
11, 144596, Note_off_c, 9, 44, 0
11, 144596, Note_off_c, 9, 68, 0
11, 144652, Note_on_c, 9, 44, 42
11, 144652, Note_on_c, 9, 35, 95
11, 144652, Note_on_c, 9, 61, 74
11, 144692, Note_off_c, 9, 35, 0
11, 144696, Note_off_c, 9, 61, 0
11, 144700, Note_off_c, 9, 44, 0
11, 144748, Note_on_c, 9, 44, 74
11, 144752, Note_on_c, 9, 35, 95
11, 144752, Note_on_c, 9, 63, 81
11, 144752, Note_on_c, 9, 59, 34
11, 144756, Note_on_c, 9, 41, 83
11, 144788, Note_off_c, 9, 35, 0
11, 144792, Note_off_c, 9, 41, 0
11, 144792, Note_off_c, 9, 63, 0
11, 144792, Note_off_c, 9, 59, 0
11, 144820, Note_off_c, 9, 44, 0
11, 144844, Note_on_c, 9, 44, 24
11, 144848, Note_on_c, 9, 68, 24
11, 144888, Note_off_c, 9, 68, 0
11, 144892, Note_off_c, 9, 44, 0
11, 144944, Note_on_c, 9, 44, 48
11, 144984, Note_off_c, 9, 44, 0
11, 145036, Note_on_c, 9, 44, 48
11, 145040, Note_on_c, 9, 68, 52
11, 145084, Note_off_c, 9, 68, 0
11, 145108, Note_off_c, 9, 44, 0
11, 145136, Note_on_c, 9, 44, 62
11, 145136, Note_on_c, 9, 35, 95
11, 145136, Note_on_c, 9, 63, 74
11, 145140, Note_on_c, 9, 59, 34
11, 145172, Note_off_c, 9, 35, 0
11, 145176, Note_off_c, 9, 63, 0
11, 145176, Note_off_c, 9, 59, 0
11, 145212, Note_off_c, 9, 44, 0
11, 145232, Note_on_c, 9, 44, 45
11, 145232, Note_on_c, 9, 63, 56
11, 145268, Note_off_c, 9, 63, 0
11, 145292, Note_off_c, 9, 44, 0
11, 145324, Note_on_c, 9, 44, 54
11, 145372, Note_off_c, 9, 44, 0
11, 145420, Note_on_c, 9, 44, 36
11, 145424, Note_on_c, 9, 35, 94
11, 145424, Note_on_c, 9, 68, 39
11, 145424, Note_on_c, 9, 61, 81
11, 145460, Note_off_c, 9, 35, 0
11, 145468, Note_off_c, 9, 68, 0
11, 145468, Note_off_c, 9, 61, 0
11, 145476, Note_off_c, 9, 44, 0
11, 145516, Note_on_c, 9, 44, 70
11, 145516, Note_on_c, 9, 35, 95
11, 145516, Note_on_c, 9, 63, 78
11, 145524, Note_on_c, 9, 59, 34
11, 145524, Note_on_c, 9, 41, 83
11, 145564, Note_off_c, 9, 35, 0
11, 145564, Note_off_c, 9, 63, 0
11, 145564, Note_off_c, 9, 59, 0
11, 145568, Note_off_c, 9, 41, 0
11, 145588, Note_off_c, 9, 44, 0
11, 145612, Note_on_c, 9, 44, 54
11, 145676, Note_off_c, 9, 44, 0
11, 145708, Note_on_c, 9, 44, 48
11, 145712, Note_on_c, 9, 68, 52
11, 145752, Note_off_c, 9, 68, 0
11, 145756, Note_off_c, 9, 44, 0
11, 145804, Note_on_c, 9, 44, 39
11, 145804, Note_on_c, 9, 68, 35
11, 145844, Note_off_c, 9, 68, 0
11, 145872, Note_off_c, 9, 44, 0
11, 145900, Note_on_c, 9, 44, 66
11, 145900, Note_on_c, 9, 63, 74
11, 145900, Note_on_c, 9, 35, 89
11, 145904, Note_on_c, 9, 59, 34
11, 145940, Note_off_c, 9, 35, 0
11, 145940, Note_off_c, 9, 59, 0
11, 145940, Note_off_c, 9, 63, 0
11, 145980, Note_off_c, 9, 44, 0
11, 145996, Note_on_c, 9, 44, 27
11, 146048, Note_off_c, 9, 44, 0
11, 146092, Note_on_c, 9, 44, 48
11, 146092, Note_on_c, 9, 68, 48
11, 146132, Note_off_c, 9, 44, 0
11, 146132, Note_off_c, 9, 68, 0
11, 146188, Note_on_c, 9, 44, 45
11, 146188, Note_on_c, 9, 35, 95
11, 146188, Note_on_c, 9, 61, 74
11, 146232, Note_off_c, 9, 35, 0
11, 146232, Note_off_c, 9, 61, 0
11, 146244, Note_off_c, 9, 44, 0
11, 146284, Note_on_c, 9, 44, 70
11, 146284, Note_on_c, 9, 35, 95
11, 146284, Note_on_c, 9, 63, 81
11, 146288, Note_on_c, 9, 59, 34
11, 146288, Note_on_c, 9, 41, 83
11, 146324, Note_off_c, 9, 35, 0
11, 146324, Note_off_c, 9, 63, 0
11, 146328, Note_off_c, 9, 41, 0
11, 146328, Note_off_c, 9, 59, 0
11, 146356, Note_off_c, 9, 44, 0
11, 146380, Note_on_c, 9, 44, 34
11, 146384, Note_on_c, 9, 68, 24
11, 146428, Note_off_c, 9, 68, 0
11, 146432, Note_off_c, 9, 44, 0
11, 146476, Note_on_c, 9, 44, 54
11, 146520, Note_off_c, 9, 44, 0
11, 146572, Note_on_c, 9, 44, 54
11, 146572, Note_on_c, 9, 68, 52
11, 146612, Note_off_c, 9, 68, 0
11, 146636, Note_off_c, 9, 44, 0
11, 146668, Note_on_c, 9, 44, 70
11, 146668, Note_on_c, 9, 63, 74
11, 146668, Note_on_c, 9, 35, 95
11, 146672, Note_on_c, 9, 59, 34
11, 146716, Note_off_c, 9, 63, 0
11, 146716, Note_off_c, 9, 35, 0
11, 146716, Note_off_c, 9, 59, 0
11, 146740, Note_off_c, 9, 44, 0
11, 146764, Note_on_c, 9, 44, 36
11, 146764, Note_on_c, 9, 63, 56
11, 146804, Note_off_c, 9, 63, 0
11, 146812, Note_off_c, 9, 44, 0
11, 146860, Note_on_c, 9, 44, 54
11, 146916, Note_off_c, 9, 44, 0
11, 146956, Note_on_c, 9, 44, 48
11, 146956, Note_on_c, 9, 35, 94
11, 146956, Note_on_c, 9, 68, 39
11, 146960, Note_on_c, 9, 61, 81
11, 146996, Note_off_c, 9, 35, 0
11, 147004, Note_off_c, 9, 68, 0
11, 147004, Note_off_c, 9, 61, 0
11, 147020, Note_off_c, 9, 44, 0
11, 147052, Note_on_c, 9, 44, 74
11, 147052, Note_on_c, 9, 63, 78
11, 147052, Note_on_c, 9, 35, 95
11, 147056, Note_on_c, 9, 59, 34
11, 147056, Note_on_c, 9, 41, 83
11, 147100, Note_off_c, 9, 63, 0
11, 147100, Note_off_c, 9, 35, 0
11, 147100, Note_off_c, 9, 59, 0
11, 147104, Note_off_c, 9, 41, 0
11, 147124, Note_off_c, 9, 44, 0
11, 147148, Note_on_c, 9, 44, 34
11, 147196, Note_off_c, 9, 44, 0
11, 147244, Note_on_c, 9, 44, 51
11, 147248, Note_on_c, 9, 68, 52
11, 147284, Note_off_c, 9, 68, 0
11, 147292, Note_off_c, 9, 44, 0
11, 147340, Note_on_c, 9, 44, 48
11, 147340, Note_on_c, 9, 68, 35
11, 147388, Note_off_c, 9, 68, 0
11, 147396, Note_off_c, 9, 44, 0
11, 147440, Note_on_c, 9, 44, 66
11, 147440, Note_on_c, 9, 63, 74
11, 147440, Note_on_c, 9, 35, 89
11, 147444, Note_on_c, 9, 59, 34
11, 147476, Note_off_c, 9, 63, 0
11, 147480, Note_off_c, 9, 35, 0
11, 147480, Note_off_c, 9, 59, 0
11, 147516, Note_off_c, 9, 44, 0
11, 147532, Note_on_c, 9, 44, 27
11, 147584, Note_off_c, 9, 44, 0
11, 147628, Note_on_c, 9, 44, 48
11, 147632, Note_on_c, 9, 68, 48
11, 147668, Note_off_c, 9, 44, 0
11, 147668, Note_off_c, 9, 68, 0
11, 147724, Note_on_c, 9, 44, 45
11, 147728, Note_on_c, 9, 35, 95
11, 147728, Note_on_c, 9, 61, 74
11, 147772, Note_off_c, 9, 35, 0
11, 147772, Note_off_c, 9, 61, 0
11, 147780, Note_off_c, 9, 44, 0
11, 147820, Note_on_c, 9, 44, 70
11, 147820, Note_on_c, 9, 35, 95
11, 147820, Note_on_c, 9, 63, 81
11, 147828, Note_on_c, 9, 59, 34
11, 147828, Note_on_c, 9, 41, 83
11, 147860, Note_off_c, 9, 35, 0
11, 147864, Note_off_c, 9, 41, 0
11, 147864, Note_off_c, 9, 63, 0
11, 147864, Note_off_c, 9, 59, 0
11, 147892, Note_off_c, 9, 44, 0
11, 147916, Note_on_c, 9, 44, 34
11, 147920, Note_on_c, 9, 68, 24
11, 147956, Note_off_c, 9, 68, 0
11, 147968, Note_off_c, 9, 44, 0
11, 148012, Note_on_c, 9, 44, 54
11, 148060, Note_off_c, 9, 44, 0
11, 148108, Note_on_c, 9, 44, 54
11, 148112, Note_on_c, 9, 68, 52
11, 148148, Note_off_c, 9, 68, 0
11, 148172, Note_off_c, 9, 44, 0
11, 148204, Note_on_c, 9, 44, 70
11, 148204, Note_on_c, 9, 63, 74
11, 148204, Note_on_c, 9, 35, 95
11, 148208, Note_on_c, 9, 59, 34
11, 148252, Note_off_c, 9, 63, 0
11, 148252, Note_off_c, 9, 35, 0
11, 148252, Note_off_c, 9, 59, 0
11, 148276, Note_off_c, 9, 44, 0
11, 148300, Note_on_c, 9, 44, 36
11, 148304, Note_on_c, 9, 63, 56
11, 148340, Note_off_c, 9, 63, 0
11, 148352, Note_off_c, 9, 44, 0
11, 148396, Note_on_c, 9, 44, 54
11, 148444, Note_off_c, 9, 44, 0
11, 148492, Note_on_c, 9, 44, 48
11, 148492, Note_on_c, 9, 35, 94
11, 148492, Note_on_c, 9, 68, 39
11, 148496, Note_on_c, 9, 61, 81
11, 148532, Note_off_c, 9, 35, 0
11, 148536, Note_off_c, 9, 68, 0
11, 148536, Note_off_c, 9, 61, 0
11, 148556, Note_off_c, 9, 44, 0
11, 148588, Note_on_c, 9, 44, 74
11, 148592, Note_on_c, 9, 63, 78
11, 148592, Note_on_c, 9, 35, 95
11, 148592, Note_on_c, 9, 59, 34
11, 148596, Note_on_c, 9, 41, 83
11, 148620, Control_c, 9, 7, 124
11, 148628, Note_off_c, 9, 63, 0
11, 148628, Note_off_c, 9, 35, 0
11, 148632, Note_off_c, 9, 41, 0
11, 148632, Note_off_c, 9, 59, 0
11, 148636, Control_c, 9, 7, 125
11, 148660, Note_off_c, 9, 44, 0
11, 148684, Note_on_c, 9, 44, 34
11, 148732, Note_off_c, 9, 44, 0
11, 148780, Note_on_c, 9, 44, 51
11, 148784, Note_on_c, 9, 68, 52
11, 148820, Note_off_c, 9, 68, 0
11, 148832, Note_off_c, 9, 44, 0
11, 148876, Note_on_c, 9, 44, 48
11, 148876, Note_on_c, 9, 68, 35
11, 148892, Control_c, 9, 7, 124
11, 148920, Note_off_c, 9, 68, 0
11, 148932, Note_off_c, 9, 44, 0
11, 148940, Control_c, 9, 7, 123
11, 148972, Note_on_c, 9, 44, 66
11, 148972, Note_on_c, 9, 63, 74
11, 148972, Note_on_c, 9, 35, 89
11, 148976, Note_on_c, 9, 59, 34
11, 149004, Control_c, 9, 7, 122
11, 149020, Note_off_c, 9, 35, 0
11, 149020, Note_off_c, 9, 59, 0
11, 149020, Note_off_c, 9, 63, 0
11, 149036, Control_c, 9, 7, 121
11, 149052, Note_off_c, 9, 44, 0
11, 149068, Note_on_c, 9, 44, 27
11, 149068, Control_c, 9, 7, 120
11, 149124, Note_off_c, 9, 44, 0
11, 149164, Note_on_c, 9, 44, 48
11, 149164, Note_on_c, 9, 68, 48
11, 149180, Control_c, 9, 7, 118
11, 149204, Note_off_c, 9, 44, 0
11, 149204, Note_off_c, 9, 68, 0
11, 149228, Control_c, 9, 7, 117
11, 149260, Note_on_c, 9, 44, 45
11, 149260, Note_on_c, 9, 35, 95
11, 149260, Note_on_c, 9, 61, 74
11, 149300, Note_off_c, 9, 35, 0
11, 149304, Note_off_c, 9, 61, 0
11, 149308, Control_c, 9, 7, 114
11, 149324, Note_off_c, 9, 44, 0
11, 149356, Note_on_c, 9, 44, 70
11, 149356, Note_on_c, 9, 35, 95
11, 149356, Note_on_c, 9, 63, 81
11, 149360, Note_on_c, 9, 59, 34
11, 149360, Note_on_c, 9, 41, 83
11, 149372, Control_c, 9, 7, 112
11, 149404, Note_off_c, 9, 41, 0
11, 149404, Note_off_c, 9, 35, 0
11, 149404, Note_off_c, 9, 63, 0
11, 149404, Note_off_c, 9, 59, 0
11, 149424, Note_off_c, 9, 44, 0
11, 149452, Note_on_c, 9, 44, 34
11, 149452, Note_on_c, 9, 68, 24
11, 149452, Control_c, 9, 7, 110
11, 149492, Note_off_c, 9, 68, 0
11, 149504, Note_off_c, 9, 44, 0
11, 149516, Control_c, 9, 7, 107
11, 149548, Note_on_c, 9, 44, 54
11, 149580, Control_c, 9, 7, 105
11, 149592, Note_off_c, 9, 44, 0
11, 149644, Note_on_c, 9, 44, 54
11, 149644, Note_on_c, 9, 68, 52
11, 149644, Control_c, 9, 7, 104
11, 149684, Note_off_c, 9, 68, 0
11, 149712, Note_off_c, 9, 44, 0
11, 149724, Control_c, 9, 7, 101
11, 149740, Note_on_c, 9, 44, 70
11, 149740, Note_on_c, 9, 63, 74
11, 149740, Note_on_c, 9, 35, 95
11, 149744, Note_on_c, 9, 59, 34
11, 149780, Note_off_c, 9, 63, 0
11, 149780, Note_off_c, 9, 35, 0
11, 149784, Note_off_c, 9, 59, 0
11, 149784, Control_c, 9, 7, 99
11, 149812, Note_off_c, 9, 44, 0
11, 149836, Note_on_c, 9, 44, 36
11, 149836, Note_on_c, 9, 63, 56
11, 149852, Control_c, 9, 7, 97
11, 149884, Note_off_c, 9, 44, 0
11, 149884, Note_off_c, 9, 63, 0
11, 149932, Note_on_c, 9, 44, 54
11, 149932, Control_c, 9, 7, 95
11, 149980, Control_c, 9, 7, 92
11, 149984, Note_off_c, 9, 44, 0
11, 150028, Note_on_c, 9, 44, 48
11, 150028, Note_on_c, 9, 35, 94
11, 150028, Note_on_c, 9, 68, 39
11, 150032, Note_on_c, 9, 61, 81
11, 150076, Note_off_c, 9, 35, 0
11, 150076, Note_off_c, 9, 68, 0
11, 150076, Note_off_c, 9, 61, 0
11, 150088, Note_off_c, 9, 44, 0
11, 150092, Control_c, 9, 7, 89
11, 150124, Note_on_c, 9, 44, 74
11, 150124, Note_on_c, 9, 63, 78
11, 150124, Note_on_c, 9, 35, 95
11, 150128, Note_on_c, 9, 59, 34
11, 150128, Note_on_c, 9, 41, 83
11, 150164, Note_off_c, 9, 63, 0
11, 150168, Note_off_c, 9, 35, 0
11, 150168, Note_off_c, 9, 59, 0
11, 150172, Note_off_c, 9, 41, 0
11, 150196, Note_off_c, 9, 44, 0
11, 150204, Control_c, 9, 7, 85
11, 150220, Note_on_c, 9, 44, 34
11, 150268, Note_off_c, 9, 44, 0
11, 150300, Control_c, 9, 7, 82
11, 150316, Note_on_c, 9, 44, 51
11, 150316, Note_on_c, 9, 68, 52
11, 150356, Note_off_c, 9, 68, 0
11, 150360, Note_off_c, 9, 44, 0
11, 150364, Control_c, 9, 7, 80
11, 150412, Note_on_c, 9, 44, 48
11, 150412, Note_on_c, 9, 68, 35
11, 150444, Control_c, 9, 7, 77
11, 150452, Note_off_c, 9, 68, 0
11, 150460, Control_c, 9, 7, 76
11, 150476, Note_off_c, 9, 44, 0
11, 150492, Control_c, 9, 7, 75
11, 150508, Note_on_c, 9, 44, 66
11, 150508, Note_on_c, 9, 63, 74
11, 150508, Note_on_c, 9, 35, 89
11, 150512, Note_on_c, 9, 59, 34
11, 150520, Control_c, 9, 7, 74
11, 150556, Note_off_c, 9, 63, 0
11, 150560, Note_off_c, 9, 35, 0
11, 150564, Note_off_c, 9, 59, 0
11, 150564, Control_c, 9, 7, 73
11, 150588, Note_off_c, 9, 44, 0
11, 150604, Note_on_c, 9, 44, 27
11, 150604, Control_c, 9, 7, 72
11, 150636, Control_c, 9, 7, 71
11, 150652, Control_c, 9, 7, 70
11, 150660, Note_off_c, 9, 44, 0
11, 150664, Control_c, 9, 7, 69
11, 150700, Note_on_c, 9, 44, 48
11, 150700, Note_on_c, 9, 68, 48
11, 150700, Control_c, 9, 7, 68
11, 150732, Control_c, 9, 7, 66
11, 150740, Note_off_c, 9, 44, 0
11, 150740, Note_off_c, 9, 68, 0
11, 150764, Control_c, 9, 7, 65
11, 150796, Note_on_c, 9, 44, 45
11, 150796, Note_on_c, 9, 35, 95
11, 150796, Note_on_c, 9, 61, 74
11, 150812, Control_c, 9, 7, 64
11, 150836, Note_off_c, 9, 35, 0
11, 150840, Note_off_c, 9, 61, 0
11, 150844, Control_c, 9, 7, 63
11, 150860, Note_off_c, 9, 44, 0
11, 150876, Control_c, 9, 7, 62
11, 150892, Note_on_c, 9, 44, 70
11, 150892, Note_on_c, 9, 35, 95
11, 150892, Note_on_c, 9, 63, 81
11, 150896, Note_on_c, 9, 59, 34
11, 150896, Note_on_c, 9, 41, 83
11, 150896, Control_c, 9, 7, 61
11, 150908, Control_c, 9, 7, 60
11, 150940, Note_off_c, 9, 35, 0
11, 150940, Note_off_c, 9, 63, 0
11, 150940, Note_off_c, 9, 59, 0
11, 150944, Note_off_c, 9, 41, 0
11, 150944, Control_c, 9, 7, 59
11, 150964, Note_off_c, 9, 44, 0
11, 150972, Control_c, 9, 7, 58
11, 150988, Note_on_c, 9, 44, 34
11, 150992, Note_on_c, 9, 68, 24
11, 151004, Control_c, 9, 7, 57
11, 151028, Note_off_c, 9, 68, 0
11, 151036, Note_off_c, 9, 44, 0
11, 151052, Control_c, 9, 7, 55
11, 151084, Note_on_c, 9, 44, 54
11, 151084, Control_c, 9, 7, 53
11, 151116, Control_c, 9, 7, 51
11, 151132, Note_off_c, 9, 44, 0
11, 151148, Control_c, 9, 7, 50
11, 151180, Note_on_c, 9, 44, 54
11, 151180, Note_on_c, 9, 68, 52
11, 151180, Control_c, 9, 7, 48
11, 151208, Control_c, 9, 7, 46
11, 151228, Note_off_c, 9, 68, 0
11, 151244, Note_off_c, 9, 44, 0
11, 151260, Control_c, 9, 7, 44
11, 151276, Note_on_c, 9, 44, 70
11, 151276, Note_on_c, 9, 63, 74
11, 151276, Note_on_c, 9, 35, 95
11, 151280, Note_on_c, 9, 59, 34
11, 151292, Control_c, 9, 7, 42
11, 151308, Control_c, 9, 7, 41
11, 151316, Note_off_c, 9, 63, 0
11, 151320, Note_off_c, 9, 35, 0
11, 151320, Note_off_c, 9, 59, 0
11, 151324, Control_c, 9, 7, 40
11, 151348, Note_off_c, 9, 44, 0
11, 151356, Control_c, 9, 7, 39
11, 151372, Note_on_c, 9, 44, 36
11, 151372, Note_on_c, 9, 63, 56
11, 151388, Control_c, 9, 7, 37
11, 151416, Note_off_c, 9, 63, 0
11, 151420, Note_off_c, 9, 44, 0
11, 151420, Control_c, 9, 7, 36
11, 151468, Note_on_c, 9, 44, 54
11, 151472, Control_c, 9, 7, 35
11, 151500, Control_c, 9, 7, 34
11, 151520, Note_off_c, 9, 44, 0
11, 151532, Control_c, 9, 7, 33
11, 151564, Note_on_c, 9, 44, 48
11, 151564, Note_on_c, 9, 35, 94
11, 151564, Note_on_c, 9, 68, 39
11, 151568, Note_on_c, 9, 61, 81
11, 151580, Control_c, 9, 7, 32
11, 151596, Control_c, 9, 7, 31
11, 151608, Note_off_c, 9, 61, 0
11, 151612, Note_off_c, 9, 35, 0
11, 151612, Note_off_c, 9, 68, 0
11, 151624, Note_off_c, 9, 44, 0
11, 151628, Control_c, 9, 7, 30
11, 151660, Note_on_c, 9, 44, 74
11, 151660, Note_on_c, 9, 63, 78
11, 151660, Note_on_c, 9, 35, 95
11, 151664, Note_on_c, 9, 59, 34
11, 151664, Note_on_c, 9, 41, 83
11, 151676, Control_c, 9, 7, 29
11, 151700, Note_off_c, 9, 63, 0
11, 151708, Note_off_c, 9, 41, 0
11, 151708, Note_off_c, 9, 35, 0
11, 151708, Note_off_c, 9, 59, 0
11, 151712, Control_c, 9, 7, 28
11, 151736, Note_off_c, 9, 44, 0
11, 151740, Control_c, 9, 7, 27
11, 151756, Note_on_c, 9, 44, 34
11, 151772, Control_c, 9, 7, 26
11, 151804, Note_off_c, 9, 44, 0
11, 151804, Control_c, 9, 7, 25
11, 151852, Note_on_c, 9, 44, 51
11, 151852, Note_on_c, 9, 68, 52
11, 151856, Control_c, 9, 7, 24
11, 151868, Control_c, 9, 7, 23
11, 151900, Note_off_c, 9, 44, 0
11, 151900, Note_off_c, 9, 68, 0
11, 151948, Note_on_c, 9, 44, 48
11, 151948, Note_on_c, 9, 68, 35
11, 151948, Control_c, 9, 7, 22
11, 151988, Note_off_c, 9, 68, 0
11, 152012, Note_off_c, 9, 44, 0
11, 152012, Control_c, 9, 7, 21
11, 152044, Note_on_c, 9, 44, 66
11, 152044, Note_on_c, 9, 63, 74
11, 152044, Note_on_c, 9, 35, 89
11, 152048, Note_on_c, 9, 59, 34
11, 152048, Control_c, 9, 7, 20
11, 152076, Control_c, 9, 7, 19
11, 152092, Note_off_c, 9, 63, 0
11, 152096, Note_off_c, 9, 35, 0
11, 152096, Note_off_c, 9, 59, 0
11, 152124, Note_off_c, 9, 44, 0
11, 152124, Control_c, 9, 7, 18
11, 152140, Note_on_c, 9, 44, 27
11, 152156, Control_c, 9, 7, 17
11, 152196, Note_off_c, 9, 44, 0
11, 152236, Note_on_c, 9, 44, 48
11, 152236, Note_on_c, 9, 68, 48
11, 152252, Control_c, 9, 7, 16
11, 152276, Note_off_c, 9, 44, 0
11, 152280, Note_off_c, 9, 68, 0
11, 152332, Note_on_c, 9, 44, 45
11, 152332, Note_on_c, 9, 35, 95
11, 152332, Note_on_c, 9, 61, 74
11, 152336, Control_c, 9, 7, 15
11, 152372, Note_off_c, 9, 35, 0
11, 152376, Note_off_c, 9, 61, 0
11, 152384, Note_off_c, 9, 44, 0
11, 152412, Control_c, 9, 7, 14
11, 152428, Note_on_c, 9, 44, 70
11, 152428, Note_on_c, 9, 35, 95
11, 152428, Note_on_c, 9, 63, 81
11, 152432, Note_on_c, 9, 59, 34
11, 152432, Note_on_c, 9, 41, 83
11, 152468, Note_off_c, 9, 35, 0
11, 152472, Note_off_c, 9, 41, 0
11, 152472, Note_off_c, 9, 63, 0
11, 152472, Note_off_c, 9, 59, 0
11, 152492, Control_c, 9, 7, 13
11, 152500, Note_off_c, 9, 44, 0
11, 152524, Note_on_c, 9, 44, 34
11, 152524, Note_on_c, 9, 68, 24
11, 152568, Note_off_c, 9, 68, 0
11, 152572, Note_off_c, 9, 44, 0
11, 152588, Control_c, 9, 7, 12
11, 152620, Note_on_c, 9, 44, 54
11, 152652, Control_c, 9, 7, 11
11, 152664, Note_off_c, 9, 44, 0
11, 152716, Note_on_c, 9, 44, 54
11, 152716, Note_on_c, 9, 68, 52
11, 152716, Control_c, 9, 7, 10
11, 152764, Note_off_c, 9, 68, 0
11, 152780, Control_c, 9, 7, 9
11, 152784, Note_off_c, 9, 44, 0
11, 152812, Note_on_c, 9, 44, 70
11, 152812, Note_on_c, 9, 63, 74
11, 152812, Note_on_c, 9, 35, 95
11, 152816, Note_on_c, 9, 59, 34
11, 152816, Control_c, 9, 7, 6
11, 152852, Note_off_c, 9, 63, 0
11, 152856, Note_off_c, 9, 35, 0
11, 152856, Note_off_c, 9, 59, 0
11, 152884, Note_off_c, 9, 44, 0
11, 152892, Control_c, 9, 7, 8
11, 152908, Note_on_c, 9, 44, 36
11, 152908, Note_on_c, 9, 63, 56
11, 152924, Control_c, 9, 7, 7
11, 152956, Note_off_c, 9, 63, 0
11, 152960, Note_off_c, 9, 44, 0
11, 153004, Note_on_c, 9, 44, 54
11, 153004, Control_c, 9, 7, 5
11, 153052, Note_off_c, 9, 44, 0
11, 153100, Note_on_c, 9, 44, 48
11, 153100, Note_on_c, 9, 35, 94
11, 153100, Note_on_c, 9, 68, 39
11, 153104, Note_on_c, 9, 61, 81
11, 153132, Control_c, 9, 7, 4
11, 153140, Note_off_c, 9, 35, 0
11, 153144, Note_off_c, 9, 68, 0
11, 153144, Note_off_c, 9, 61, 0
11, 153160, Note_off_c, 9, 44, 0
11, 153196, Note_on_c, 9, 44, 74
11, 153196, Note_on_c, 9, 63, 78
11, 153196, Note_on_c, 9, 35, 95
11, 153200, Note_on_c, 9, 59, 34
11, 153200, Note_on_c, 9, 41, 83
11, 153228, Control_c, 9, 7, 3
11, 153244, Note_off_c, 9, 63, 0
11, 153244, Note_off_c, 9, 35, 0
11, 153244, Note_off_c, 9, 59, 0
11, 153248, Note_off_c, 9, 41, 0
11, 153272, Note_off_c, 9, 44, 0
11, 153292, Note_on_c, 9, 44, 34
11, 153340, Note_off_c, 9, 44, 0
11, 153388, Note_on_c, 9, 44, 51
11, 153388, Note_on_c, 9, 68, 52
11, 153432, Note_off_c, 9, 68, 0
11, 153436, Control_c, 9, 7, 2
11, 153440, Note_off_c, 9, 44, 0
11, 153484, Note_on_c, 9, 44, 48
11, 153484, Note_on_c, 9, 68, 35
11, 153516, Control_c, 9, 7, 3
11, 153524, Note_off_c, 9, 68, 0
11, 153540, Note_off_c, 9, 44, 0
11, 153540, End_track
12, 0, Start_track
12, 0, Title_t, "B 0 "
12, 0, Control_c, 9, 0, 0
12, 0, Program_c, 9, 0
12, 0, Control_c, 9, 91, 100
12, 0, Key_signature, 0, "major"
12, 1524, Note_on_c, 9, 35, 115
12, 1564, Note_off_c, 9, 35, 0
12, 1812, Note_on_c, 9, 35, 122
12, 1860, Note_off_c, 9, 35, 0
12, 1908, Note_on_c, 9, 35, 122
12, 1952, Note_off_c, 9, 35, 0
12, 2292, Note_on_c, 9, 35, 122
12, 2340, Note_off_c, 9, 35, 0
12, 2580, Note_on_c, 9, 35, 121
12, 2620, Note_off_c, 9, 35, 0
12, 2680, Note_on_c, 9, 35, 122
12, 2724, Note_off_c, 9, 35, 0
12, 3060, Note_on_c, 9, 35, 115
12, 3108, Note_off_c, 9, 35, 0
12, 3348, Note_on_c, 9, 35, 122
12, 3396, Note_off_c, 9, 35, 0
12, 3444, Note_on_c, 9, 35, 122
12, 3484, Note_off_c, 9, 35, 0
12, 3828, Note_on_c, 9, 35, 122
12, 3876, Note_off_c, 9, 35, 0
12, 4116, Note_on_c, 9, 35, 121
12, 4156, Note_off_c, 9, 35, 0
12, 4212, Note_on_c, 9, 35, 122
12, 4252, Note_off_c, 9, 35, 0
12, 4600, Note_on_c, 9, 35, 115
12, 4636, Note_off_c, 9, 35, 0
12, 4884, Note_on_c, 9, 35, 122
12, 4928, Note_off_c, 9, 35, 0
12, 4980, Note_on_c, 9, 35, 122
12, 5028, Note_off_c, 9, 35, 0
12, 5364, Note_on_c, 9, 35, 122
12, 5404, Note_off_c, 9, 35, 0
12, 5656, Note_on_c, 9, 35, 121
12, 5696, Note_off_c, 9, 35, 0
12, 5748, Note_on_c, 9, 35, 122
12, 5788, Note_off_c, 9, 35, 0
12, 6132, Note_on_c, 9, 35, 115
12, 6180, Note_off_c, 9, 35, 0
12, 6420, Note_on_c, 9, 35, 122
12, 6460, Note_off_c, 9, 35, 0
12, 6516, Note_on_c, 9, 35, 122
12, 6560, Note_off_c, 9, 35, 0
12, 6900, Note_on_c, 9, 35, 122
12, 6940, Note_off_c, 9, 35, 0
12, 7188, Note_on_c, 9, 35, 121
12, 7236, Note_off_c, 9, 35, 0
12, 7284, Note_on_c, 9, 35, 122
12, 7328, Note_off_c, 9, 35, 0
12, 7672, Note_on_c, 9, 35, 115
12, 7716, Note_off_c, 9, 35, 0
12, 7960, Note_on_c, 9, 35, 122
12, 7996, Note_off_c, 9, 35, 0
12, 8052, Note_on_c, 9, 35, 122
12, 8092, Note_off_c, 9, 35, 0
12, 8440, Note_on_c, 9, 35, 122
12, 8484, Note_off_c, 9, 35, 0
12, 8728, Note_on_c, 9, 35, 121
12, 8760, Note_off_c, 9, 35, 0
12, 8828, Note_on_c, 9, 35, 122
12, 8868, Note_off_c, 9, 35, 0
12, 9208, Note_on_c, 9, 35, 115
12, 9244, Note_off_c, 9, 35, 0
12, 9492, Note_on_c, 9, 35, 122
12, 9540, Note_off_c, 9, 35, 0
12, 9588, Note_on_c, 9, 35, 122
12, 9628, Note_off_c, 9, 35, 0
12, 9976, Note_on_c, 9, 35, 122
12, 10020, Note_off_c, 9, 35, 0
12, 10264, Note_on_c, 9, 35, 121
12, 10304, Note_off_c, 9, 35, 0
12, 10364, Note_on_c, 9, 35, 122
12, 10404, Note_off_c, 9, 35, 0
12, 10748, Note_on_c, 9, 35, 115
12, 10784, Note_off_c, 9, 35, 0
12, 11032, Note_on_c, 9, 35, 122
12, 11076, Note_off_c, 9, 35, 0
12, 11124, Note_on_c, 9, 35, 122
12, 11172, Note_off_c, 9, 35, 0
12, 11516, Note_on_c, 9, 35, 122
12, 11556, Note_off_c, 9, 35, 0
12, 11796, Note_on_c, 9, 35, 121
12, 11836, Note_off_c, 9, 35, 0
12, 11896, Note_on_c, 9, 35, 122
12, 11932, Note_off_c, 9, 35, 0
12, 12280, Note_on_c, 9, 35, 115
12, 12316, Note_off_c, 9, 35, 0
12, 12568, Note_on_c, 9, 35, 122
12, 12604, Note_off_c, 9, 35, 0
12, 12664, Note_on_c, 9, 35, 122
12, 12708, Note_off_c, 9, 35, 0
12, 13052, Note_on_c, 9, 35, 122
12, 13092, Note_off_c, 9, 35, 0
12, 13332, Note_on_c, 9, 35, 121
12, 13380, Note_off_c, 9, 35, 0
12, 13432, Note_on_c, 9, 35, 122
12, 13472, Note_off_c, 9, 35, 0
12, 13820, Note_on_c, 9, 35, 115
12, 13856, Note_off_c, 9, 35, 0
12, 14104, Note_on_c, 9, 35, 122
12, 14144, Note_off_c, 9, 35, 0
12, 14196, Note_on_c, 9, 35, 122
12, 14244, Note_off_c, 9, 35, 0
12, 14584, Note_on_c, 9, 35, 122
12, 14620, Note_off_c, 9, 35, 0
12, 14872, Note_on_c, 9, 35, 121
12, 14912, Note_off_c, 9, 35, 0
12, 14968, Note_on_c, 9, 35, 122
12, 15004, Note_off_c, 9, 35, 0
12, 15348, Note_on_c, 9, 35, 115
12, 15396, Note_off_c, 9, 35, 0
12, 15640, Note_on_c, 9, 35, 122
12, 15680, Note_off_c, 9, 35, 0
12, 15736, Note_on_c, 9, 35, 122
12, 15776, Note_off_c, 9, 35, 0
12, 16120, Note_on_c, 9, 35, 122
12, 16156, Note_off_c, 9, 35, 0
12, 16408, Note_on_c, 9, 35, 121
12, 16448, Note_off_c, 9, 35, 0
12, 16500, Note_on_c, 9, 35, 122
12, 16548, Note_off_c, 9, 35, 0
12, 16888, Note_on_c, 9, 35, 115
12, 16932, Note_off_c, 9, 35, 0
12, 17180, Note_on_c, 9, 35, 122
12, 17220, Note_off_c, 9, 35, 0
12, 17268, Note_on_c, 9, 35, 122
12, 17308, Note_off_c, 9, 35, 0
12, 17660, Note_on_c, 9, 35, 122
12, 17696, Note_off_c, 9, 35, 0
12, 17940, Note_on_c, 9, 35, 121
12, 17980, Note_off_c, 9, 35, 0
12, 18040, Note_on_c, 9, 35, 122
12, 18084, Note_off_c, 9, 35, 0
12, 18424, Note_on_c, 9, 35, 115
12, 18460, Note_off_c, 9, 35, 0
12, 18712, Note_on_c, 9, 35, 122
12, 18756, Note_off_c, 9, 35, 0
12, 18816, Note_on_c, 9, 35, 122
12, 18852, Note_off_c, 9, 35, 0
12, 19188, Note_on_c, 9, 35, 122
12, 19236, Note_off_c, 9, 35, 0
12, 19480, Note_on_c, 9, 35, 121
12, 19516, Note_off_c, 9, 35, 0
12, 19576, Note_on_c, 9, 35, 122
12, 19612, Note_off_c, 9, 35, 0
12, 19956, Note_on_c, 9, 35, 115
12, 19996, Note_off_c, 9, 35, 0
12, 20244, Note_on_c, 9, 35, 122
12, 20284, Note_off_c, 9, 35, 0
12, 20344, Note_on_c, 9, 35, 122
12, 20388, Note_off_c, 9, 35, 0
12, 20728, Note_on_c, 9, 35, 122
12, 20772, Note_off_c, 9, 35, 0
12, 21016, Note_on_c, 9, 35, 121
12, 21060, Note_off_c, 9, 35, 0
12, 21112, Note_on_c, 9, 35, 122
12, 21152, Note_off_c, 9, 35, 0
12, 21500, Note_on_c, 9, 35, 115
12, 21532, Note_off_c, 9, 35, 0
12, 21788, Note_on_c, 9, 35, 122
12, 21820, Note_off_c, 9, 35, 0
12, 21880, Note_on_c, 9, 35, 122
12, 21924, Note_off_c, 9, 35, 0
12, 22264, Note_on_c, 9, 35, 122
12, 22304, Note_off_c, 9, 35, 0
12, 22548, Note_on_c, 9, 35, 121
12, 22596, Note_off_c, 9, 35, 0
12, 22652, Note_on_c, 9, 35, 122
12, 22688, Note_off_c, 9, 35, 0
12, 23028, Note_on_c, 9, 35, 115
12, 23076, Note_off_c, 9, 35, 0
12, 23316, Note_on_c, 9, 35, 122
12, 23356, Note_off_c, 9, 35, 0
12, 23412, Note_on_c, 9, 35, 122
12, 23452, Note_off_c, 9, 35, 0
12, 23800, Note_on_c, 9, 35, 122
12, 23840, Note_off_c, 9, 35, 0
12, 24088, Note_on_c, 9, 35, 121
12, 24128, Note_off_c, 9, 35, 0
12, 24180, Note_on_c, 9, 35, 122
12, 24228, Note_off_c, 9, 35, 0
12, 24564, Note_on_c, 9, 35, 115
12, 24612, Note_off_c, 9, 35, 0
12, 24856, Note_on_c, 9, 35, 122
12, 24904, Note_off_c, 9, 35, 0
12, 24952, Note_on_c, 9, 35, 122
12, 24992, Note_off_c, 9, 35, 0
12, 25332, Note_on_c, 9, 35, 122
12, 25372, Note_off_c, 9, 35, 0
12, 25620, Note_on_c, 9, 35, 121
12, 25660, Note_off_c, 9, 35, 0
12, 25716, Note_on_c, 9, 35, 122
12, 25764, Note_off_c, 9, 35, 0
12, 26104, Note_on_c, 9, 35, 115
12, 26144, Note_off_c, 9, 35, 0
12, 26388, Note_on_c, 9, 35, 122
12, 26436, Note_off_c, 9, 35, 0
12, 26488, Note_on_c, 9, 35, 122
12, 26528, Note_off_c, 9, 35, 0
12, 26868, Note_on_c, 9, 35, 115
12, 26916, Note_off_c, 9, 35, 0
12, 27156, Note_on_c, 9, 35, 122
12, 27196, Note_off_c, 9, 35, 0
12, 27252, Note_on_c, 9, 35, 122
12, 27292, Note_off_c, 9, 35, 0
12, 27636, Note_on_c, 9, 35, 122
12, 27684, Note_off_c, 9, 35, 0
12, 27924, Note_on_c, 9, 35, 121
12, 27964, Note_off_c, 9, 35, 0
12, 28024, Note_on_c, 9, 35, 122
12, 28068, Note_off_c, 9, 35, 0
12, 28412, Note_on_c, 9, 35, 115
12, 28452, Note_off_c, 9, 35, 0
12, 28696, Note_on_c, 9, 35, 122
12, 28736, Note_off_c, 9, 35, 0
12, 28792, Note_on_c, 9, 35, 122
12, 28832, Note_off_c, 9, 35, 0
12, 29176, Note_on_c, 9, 35, 122
12, 29212, Note_off_c, 9, 35, 0
12, 29468, Note_on_c, 9, 35, 121
12, 29500, Note_off_c, 9, 35, 0
12, 29556, Note_on_c, 9, 35, 122
12, 29604, Note_off_c, 9, 35, 0
12, 29944, Note_on_c, 9, 35, 115
12, 29980, Note_off_c, 9, 35, 0
12, 30228, Note_on_c, 9, 35, 122
12, 30268, Note_off_c, 9, 35, 0
12, 30324, Note_on_c, 9, 35, 122
12, 30364, Note_off_c, 9, 35, 0
12, 30708, Note_on_c, 9, 35, 122
12, 30756, Note_off_c, 9, 35, 0
12, 30996, Note_on_c, 9, 35, 121
12, 31036, Note_off_c, 9, 35, 0
12, 31096, Note_on_c, 9, 35, 122
12, 31136, Note_off_c, 9, 35, 0
12, 31480, Note_on_c, 9, 35, 115
12, 31516, Note_off_c, 9, 35, 0
12, 31768, Note_on_c, 9, 35, 122
12, 31804, Note_off_c, 9, 35, 0
12, 31864, Note_on_c, 9, 35, 122
12, 31908, Note_off_c, 9, 35, 0
12, 32248, Note_on_c, 9, 35, 122
12, 32292, Note_off_c, 9, 35, 0
12, 32532, Note_on_c, 9, 35, 121
12, 32580, Note_off_c, 9, 35, 0
12, 32628, Note_on_c, 9, 35, 122
12, 32668, Note_off_c, 9, 35, 0
12, 33012, Note_on_c, 9, 35, 115
12, 33052, Note_off_c, 9, 35, 0
12, 33304, Note_on_c, 9, 35, 122
12, 33344, Note_off_c, 9, 35, 0
12, 33400, Note_on_c, 9, 35, 122
12, 33444, Note_off_c, 9, 35, 0
12, 33784, Note_on_c, 9, 35, 115
12, 33820, Note_off_c, 9, 35, 0
12, 34072, Note_on_c, 9, 35, 122
12, 34116, Note_off_c, 9, 35, 0
12, 34168, Note_on_c, 9, 35, 122
12, 34212, Note_off_c, 9, 35, 0
12, 34552, Note_on_c, 9, 35, 122
12, 34596, Note_off_c, 9, 35, 0
12, 34836, Note_on_c, 9, 35, 121
12, 34876, Note_off_c, 9, 35, 0
12, 34936, Note_on_c, 9, 35, 122
12, 34980, Note_off_c, 9, 35, 0
12, 35316, Note_on_c, 9, 35, 115
12, 35356, Note_off_c, 9, 35, 0
12, 35604, Note_on_c, 9, 35, 122
12, 35652, Note_off_c, 9, 35, 0
12, 35704, Note_on_c, 9, 35, 122
12, 35748, Note_off_c, 9, 35, 0
12, 36084, Note_on_c, 9, 35, 122
12, 36132, Note_off_c, 9, 35, 0
12, 36376, Note_on_c, 9, 35, 121
12, 36412, Note_off_c, 9, 35, 0
12, 36476, Note_on_c, 9, 35, 122
12, 36516, Note_off_c, 9, 35, 0
12, 36852, Note_on_c, 9, 35, 115
12, 36892, Note_off_c, 9, 35, 0
12, 37148, Note_on_c, 9, 35, 122
12, 37188, Note_off_c, 9, 35, 0
12, 37236, Note_on_c, 9, 35, 122
12, 37284, Note_off_c, 9, 35, 0
12, 37620, Note_on_c, 9, 35, 122
12, 37660, Note_off_c, 9, 35, 0
12, 37916, Note_on_c, 9, 35, 121
12, 37956, Note_off_c, 9, 35, 0
12, 38008, Note_on_c, 9, 35, 122
12, 38048, Note_off_c, 9, 35, 0
12, 38396, Note_on_c, 9, 35, 115
12, 38432, Note_off_c, 9, 35, 0
12, 38676, Note_on_c, 9, 35, 122
12, 38716, Note_off_c, 9, 35, 0
12, 38772, Note_on_c, 9, 35, 122
12, 38820, Note_off_c, 9, 35, 0
12, 39164, Note_on_c, 9, 35, 122
12, 39200, Note_off_c, 9, 35, 0
12, 39444, Note_on_c, 9, 35, 121
12, 39492, Note_off_c, 9, 35, 0
12, 39544, Note_on_c, 9, 35, 122
12, 39580, Note_off_c, 9, 35, 0
12, 39924, Note_on_c, 9, 35, 115
12, 39972, Note_off_c, 9, 35, 0
12, 40212, Note_on_c, 9, 35, 122
12, 40252, Note_off_c, 9, 35, 0
12, 40308, Note_on_c, 9, 35, 122
12, 40348, Note_off_c, 9, 35, 0
12, 40692, Note_on_c, 9, 35, 115
12, 40732, Note_off_c, 9, 35, 0
12, 40980, Note_on_c, 9, 35, 122
12, 41028, Note_off_c, 9, 35, 0
12, 41080, Note_on_c, 9, 35, 122
12, 41124, Note_off_c, 9, 35, 0
12, 41464, Note_on_c, 9, 35, 122
12, 41500, Note_off_c, 9, 35, 0
12, 41748, Note_on_c, 9, 35, 121
12, 41796, Note_off_c, 9, 35, 0
12, 41844, Note_on_c, 9, 35, 122
12, 41884, Note_off_c, 9, 35, 0
12, 42228, Note_on_c, 9, 35, 115
12, 42276, Note_off_c, 9, 35, 0
12, 42520, Note_on_c, 9, 35, 122
12, 42556, Note_off_c, 9, 35, 0
12, 42612, Note_on_c, 9, 35, 122
12, 42660, Note_off_c, 9, 35, 0
12, 43004, Note_on_c, 9, 35, 122
12, 43036, Note_off_c, 9, 35, 0
12, 43284, Note_on_c, 9, 35, 121
12, 43332, Note_off_c, 9, 35, 0
12, 43380, Note_on_c, 9, 35, 122
12, 43420, Note_off_c, 9, 35, 0
12, 43768, Note_on_c, 9, 35, 115
12, 43816, Note_off_c, 9, 35, 0
12, 44056, Note_on_c, 9, 35, 122
12, 44096, Note_off_c, 9, 35, 0
12, 44148, Note_on_c, 9, 35, 122
12, 44188, Note_off_c, 9, 35, 0
12, 44536, Note_on_c, 9, 35, 122
12, 44576, Note_off_c, 9, 35, 0
12, 44820, Note_on_c, 9, 35, 121
12, 44860, Note_off_c, 9, 35, 0
12, 44916, Note_on_c, 9, 35, 122
12, 44964, Note_off_c, 9, 35, 0
12, 45300, Note_on_c, 9, 35, 115
12, 45340, Note_off_c, 9, 35, 0
12, 45588, Note_on_c, 9, 35, 122
12, 45636, Note_off_c, 9, 35, 0
12, 45684, Note_on_c, 9, 35, 122
12, 45724, Note_off_c, 9, 35, 0
12, 46072, Note_on_c, 9, 35, 122
12, 46116, Note_off_c, 9, 35, 0
12, 46356, Note_on_c, 9, 35, 121
12, 46400, Note_off_c, 9, 35, 0
12, 46452, Note_on_c, 9, 35, 122
12, 46500, Note_off_c, 9, 35, 0
12, 46836, Note_on_c, 9, 35, 115
12, 46876, Note_off_c, 9, 35, 0
12, 47128, Note_on_c, 9, 35, 122
12, 47172, Note_off_c, 9, 35, 0
12, 47220, Note_on_c, 9, 35, 122
12, 47260, Note_off_c, 9, 35, 0
12, 47604, Note_on_c, 9, 35, 122
12, 47652, Note_off_c, 9, 35, 0
12, 47896, Note_on_c, 9, 35, 121
12, 47936, Note_off_c, 9, 35, 0
12, 47992, Note_on_c, 9, 35, 122
12, 48032, Note_off_c, 9, 35, 0
12, 48380, Note_on_c, 9, 35, 115
12, 48416, Note_off_c, 9, 35, 0
12, 48664, Note_on_c, 9, 35, 122
12, 48708, Note_off_c, 9, 35, 0
12, 48760, Note_on_c, 9, 35, 122
12, 48800, Note_off_c, 9, 35, 0
12, 49140, Note_on_c, 9, 35, 122
12, 49188, Note_off_c, 9, 35, 0
12, 49428, Note_on_c, 9, 35, 121
12, 49476, Note_off_c, 9, 35, 0
12, 49528, Note_on_c, 9, 35, 122
12, 49568, Note_off_c, 9, 35, 0
12, 49920, Note_on_c, 9, 35, 115
12, 49952, Note_off_c, 9, 35, 0
12, 50196, Note_on_c, 9, 35, 122
12, 50236, Note_off_c, 9, 35, 0
12, 50296, Note_on_c, 9, 35, 122
12, 50344, Note_off_c, 9, 35, 0
12, 50680, Note_on_c, 9, 35, 122
12, 50720, Note_off_c, 9, 35, 0
12, 50968, Note_on_c, 9, 35, 121
12, 51012, Note_off_c, 9, 35, 0
12, 51064, Note_on_c, 9, 35, 122
12, 51108, Note_off_c, 9, 35, 0
12, 51452, Note_on_c, 9, 35, 115
12, 51488, Note_off_c, 9, 35, 0
12, 51736, Note_on_c, 9, 35, 122
12, 51776, Note_off_c, 9, 35, 0
12, 51832, Note_on_c, 9, 35, 122
12, 51876, Note_off_c, 9, 35, 0
12, 52216, Note_on_c, 9, 35, 122
12, 52256, Note_off_c, 9, 35, 0
12, 52500, Note_on_c, 9, 35, 121
12, 52540, Note_off_c, 9, 35, 0
12, 52600, Note_on_c, 9, 35, 122
12, 52644, Note_off_c, 9, 35, 0
12, 52980, Note_on_c, 9, 35, 115
12, 53028, Note_off_c, 9, 35, 0
12, 53272, Note_on_c, 9, 35, 122
12, 53320, Note_off_c, 9, 35, 0
12, 53368, Note_on_c, 9, 35, 122
12, 53408, Note_off_c, 9, 35, 0
12, 53756, Note_on_c, 9, 35, 122
12, 53792, Note_off_c, 9, 35, 0
12, 54036, Note_on_c, 9, 35, 121
12, 54076, Note_off_c, 9, 35, 0
12, 54136, Note_on_c, 9, 35, 122
12, 54180, Note_off_c, 9, 35, 0
12, 54520, Note_on_c, 9, 35, 115
12, 54560, Note_off_c, 9, 35, 0
12, 54804, Note_on_c, 9, 35, 122
12, 54852, Note_off_c, 9, 35, 0
12, 54904, Note_on_c, 9, 35, 122
12, 54944, Note_off_c, 9, 35, 0
12, 55288, Note_on_c, 9, 35, 122
12, 55332, Note_off_c, 9, 35, 0
12, 55576, Note_on_c, 9, 35, 121
12, 55616, Note_off_c, 9, 35, 0
12, 55668, Note_on_c, 9, 35, 122
12, 55708, Note_off_c, 9, 35, 0
12, 56056, Note_on_c, 9, 35, 115
12, 56092, Note_off_c, 9, 35, 0
12, 56340, Note_on_c, 9, 35, 122
12, 56388, Note_off_c, 9, 35, 0
12, 56444, Note_on_c, 9, 35, 122
12, 56488, Note_off_c, 9, 35, 0
12, 56824, Note_on_c, 9, 35, 122
12, 56864, Note_off_c, 9, 35, 0
12, 57112, Note_on_c, 9, 35, 121
12, 57156, Note_off_c, 9, 35, 0
12, 57208, Note_on_c, 9, 35, 122
12, 57248, Note_off_c, 9, 35, 0
12, 57596, Note_on_c, 9, 35, 115
12, 57632, Note_off_c, 9, 35, 0
12, 57880, Note_on_c, 9, 35, 122
12, 57920, Note_off_c, 9, 35, 0
12, 57976, Note_on_c, 9, 35, 122
12, 58024, Note_off_c, 9, 35, 0
12, 58364, Note_on_c, 9, 35, 122
12, 58404, Note_off_c, 9, 35, 0
12, 58644, Note_on_c, 9, 35, 121
12, 58688, Note_off_c, 9, 35, 0
12, 58740, Note_on_c, 9, 35, 122
12, 58788, Note_off_c, 9, 35, 0
12, 59132, Note_on_c, 9, 35, 115
12, 59172, Note_off_c, 9, 35, 0
12, 59420, Note_on_c, 9, 35, 122
12, 59456, Note_off_c, 9, 35, 0
12, 59508, Note_on_c, 9, 35, 122
12, 59548, Note_off_c, 9, 35, 0
12, 59896, Note_on_c, 9, 35, 122
12, 59932, Note_off_c, 9, 35, 0
12, 60180, Note_on_c, 9, 35, 121
12, 60220, Note_off_c, 9, 35, 0
12, 60284, Note_on_c, 9, 35, 122
12, 60320, Note_off_c, 9, 35, 0
12, 60372, Note_on_c, 9, 35, 122
12, 60412, Note_off_c, 9, 35, 0
12, 60660, Note_on_c, 9, 35, 115
12, 60708, Note_off_c, 9, 35, 0
12, 60956, Note_on_c, 9, 35, 122
12, 60996, Note_off_c, 9, 35, 0
12, 61052, Note_on_c, 9, 35, 122
12, 61088, Note_off_c, 9, 35, 0
12, 61432, Note_on_c, 9, 35, 122
12, 61472, Note_off_c, 9, 35, 0
12, 61720, Note_on_c, 9, 35, 121
12, 61760, Note_off_c, 9, 35, 0
12, 61820, Note_on_c, 9, 35, 122
12, 61860, Note_off_c, 9, 35, 0
12, 62196, Note_on_c, 9, 35, 115
12, 62236, Note_off_c, 9, 35, 0
12, 62484, Note_on_c, 9, 35, 122
12, 62532, Note_off_c, 9, 35, 0
12, 62584, Note_on_c, 9, 35, 122
12, 62628, Note_off_c, 9, 35, 0
12, 62964, Note_on_c, 9, 35, 122
12, 63008, Note_off_c, 9, 35, 0
12, 63256, Note_on_c, 9, 35, 121
12, 63296, Note_off_c, 9, 35, 0
12, 63348, Note_on_c, 9, 35, 122
12, 63388, Note_off_c, 9, 35, 0
12, 63736, Note_on_c, 9, 35, 115
12, 63772, Note_off_c, 9, 35, 0
12, 64028, Note_on_c, 9, 35, 122
12, 64060, Note_off_c, 9, 35, 0
12, 64116, Note_on_c, 9, 35, 122
12, 64164, Note_off_c, 9, 35, 0
12, 64512, Note_on_c, 9, 35, 122
12, 64544, Note_off_c, 9, 35, 0
12, 64788, Note_on_c, 9, 35, 121
12, 64836, Note_off_c, 9, 35, 0
12, 64888, Note_on_c, 9, 35, 122
12, 64928, Note_off_c, 9, 35, 0
12, 65272, Note_on_c, 9, 35, 115
12, 65312, Note_off_c, 9, 35, 0
12, 65560, Note_on_c, 9, 35, 122
12, 65596, Note_off_c, 9, 35, 0
12, 65652, Note_on_c, 9, 35, 122
12, 65700, Note_off_c, 9, 35, 0
12, 66040, Note_on_c, 9, 35, 122
12, 66080, Note_off_c, 9, 35, 0
12, 66328, Note_on_c, 9, 35, 121
12, 66368, Note_off_c, 9, 35, 0
12, 66420, Note_on_c, 9, 35, 122
12, 66460, Note_off_c, 9, 35, 0
12, 66808, Note_on_c, 9, 35, 115
12, 66852, Note_off_c, 9, 35, 0
12, 67096, Note_on_c, 9, 35, 122
12, 67136, Note_off_c, 9, 35, 0
12, 67192, Note_on_c, 9, 35, 122
12, 67236, Note_off_c, 9, 35, 0
12, 67576, Note_on_c, 9, 35, 122
12, 67616, Note_off_c, 9, 35, 0
12, 67860, Note_on_c, 9, 35, 121
12, 67900, Note_off_c, 9, 35, 0
12, 67960, Note_on_c, 9, 35, 122
12, 68000, Note_off_c, 9, 35, 0
12, 68344, Note_on_c, 9, 35, 115
12, 68384, Note_off_c, 9, 35, 0
12, 68628, Note_on_c, 9, 35, 122
12, 68676, Note_off_c, 9, 35, 0
12, 68728, Note_on_c, 9, 35, 122
12, 68768, Note_off_c, 9, 35, 0
12, 69108, Note_on_c, 9, 35, 122
12, 69148, Note_off_c, 9, 35, 0
12, 69396, Note_on_c, 9, 35, 121
12, 69436, Note_off_c, 9, 35, 0
12, 69492, Note_on_c, 9, 35, 122
12, 69540, Note_off_c, 9, 35, 0
12, 69876, Note_on_c, 9, 35, 115
12, 69916, Note_off_c, 9, 35, 0
12, 70164, Note_on_c, 9, 35, 122
12, 70208, Note_off_c, 9, 35, 0
12, 70260, Note_on_c, 9, 35, 122
12, 70300, Note_off_c, 9, 35, 0
12, 70648, Note_on_c, 9, 35, 122
12, 70692, Note_off_c, 9, 35, 0
12, 70932, Note_on_c, 9, 35, 121
12, 70972, Note_off_c, 9, 35, 0
12, 71032, Note_on_c, 9, 35, 122
12, 71076, Note_off_c, 9, 35, 0
12, 71420, Note_on_c, 9, 35, 115
12, 71456, Note_off_c, 9, 35, 0
12, 71704, Note_on_c, 9, 35, 122
12, 71744, Note_off_c, 9, 35, 0
12, 71800, Note_on_c, 9, 35, 122
12, 71840, Note_off_c, 9, 35, 0
12, 72184, Note_on_c, 9, 35, 122
12, 72228, Note_off_c, 9, 35, 0
12, 72468, Note_on_c, 9, 35, 121
12, 72508, Note_off_c, 9, 35, 0
12, 72564, Note_on_c, 9, 35, 122
12, 72604, Note_off_c, 9, 35, 0
12, 72952, Note_on_c, 9, 35, 115
12, 72988, Note_off_c, 9, 35, 0
12, 73240, Note_on_c, 9, 35, 122
12, 73276, Note_off_c, 9, 35, 0
12, 73336, Note_on_c, 9, 35, 122
12, 73380, Note_off_c, 9, 35, 0
12, 73716, Note_on_c, 9, 35, 115
12, 73756, Note_off_c, 9, 35, 0
12, 74008, Note_on_c, 9, 35, 122
12, 74052, Note_off_c, 9, 35, 0
12, 74104, Note_on_c, 9, 35, 122
12, 74144, Note_off_c, 9, 35, 0
12, 74492, Note_on_c, 9, 35, 122
12, 74532, Note_off_c, 9, 35, 0
12, 74772, Note_on_c, 9, 35, 121
12, 74812, Note_off_c, 9, 35, 0
12, 74872, Note_on_c, 9, 35, 122
12, 74912, Note_off_c, 9, 35, 0
12, 75260, Note_on_c, 9, 35, 115
12, 75292, Note_off_c, 9, 35, 0
12, 75544, Note_on_c, 9, 35, 122
12, 75588, Note_off_c, 9, 35, 0
12, 75640, Note_on_c, 9, 35, 122
12, 75680, Note_off_c, 9, 35, 0
12, 76024, Note_on_c, 9, 35, 122
12, 76068, Note_off_c, 9, 35, 0
12, 76308, Note_on_c, 9, 35, 121
12, 76348, Note_off_c, 9, 35, 0
12, 76408, Note_on_c, 9, 35, 122
12, 76448, Note_off_c, 9, 35, 0
12, 76796, Note_on_c, 9, 35, 115
12, 76828, Note_off_c, 9, 35, 0
12, 77076, Note_on_c, 9, 35, 122
12, 77120, Note_off_c, 9, 35, 0
12, 77172, Note_on_c, 9, 35, 122
12, 77220, Note_off_c, 9, 35, 0
12, 77560, Note_on_c, 9, 35, 122
12, 77596, Note_off_c, 9, 35, 0
12, 77848, Note_on_c, 9, 35, 121
12, 77892, Note_off_c, 9, 35, 0
12, 77948, Note_on_c, 9, 35, 122
12, 77980, Note_off_c, 9, 35, 0
12, 78328, Note_on_c, 9, 35, 115
12, 78372, Note_off_c, 9, 35, 0
12, 78612, Note_on_c, 9, 35, 122
12, 78652, Note_off_c, 9, 35, 0
12, 78708, Note_on_c, 9, 35, 122
12, 78756, Note_off_c, 9, 35, 0
12, 79096, Note_on_c, 9, 35, 122
12, 79136, Note_off_c, 9, 35, 0
12, 79380, Note_on_c, 9, 35, 121
12, 79428, Note_off_c, 9, 35, 0
12, 79476, Note_on_c, 9, 35, 122
12, 79520, Note_off_c, 9, 35, 0
12, 79868, Note_on_c, 9, 35, 115
12, 79908, Note_off_c, 9, 35, 0
12, 80148, Note_on_c, 9, 35, 122
12, 80192, Note_off_c, 9, 35, 0
12, 80244, Note_on_c, 9, 35, 122
12, 80284, Note_off_c, 9, 35, 0
12, 80632, Note_on_c, 9, 35, 115
12, 80672, Note_off_c, 9, 35, 0
12, 80920, Note_on_c, 9, 35, 122
12, 80960, Note_off_c, 9, 35, 0
12, 81016, Note_on_c, 9, 35, 122
12, 81060, Note_off_c, 9, 35, 0
12, 81400, Note_on_c, 9, 35, 122
12, 81436, Note_off_c, 9, 35, 0
12, 81684, Note_on_c, 9, 35, 121
12, 81732, Note_off_c, 9, 35, 0
12, 81784, Note_on_c, 9, 35, 122
12, 81824, Note_off_c, 9, 35, 0
12, 82168, Note_on_c, 9, 35, 115
12, 82212, Note_off_c, 9, 35, 0
12, 82456, Note_on_c, 9, 35, 122
12, 82496, Note_off_c, 9, 35, 0
12, 82548, Note_on_c, 9, 35, 122
12, 82596, Note_off_c, 9, 35, 0
12, 82936, Note_on_c, 9, 35, 122
12, 82976, Note_off_c, 9, 35, 0
12, 83220, Note_on_c, 9, 35, 121
12, 83268, Note_off_c, 9, 35, 0
12, 83320, Note_on_c, 9, 35, 122
12, 83360, Note_off_c, 9, 35, 0
12, 83712, Note_on_c, 9, 35, 115
12, 83744, Note_off_c, 9, 35, 0
12, 84000, Note_on_c, 9, 35, 122
12, 84032, Note_off_c, 9, 35, 0
12, 84088, Note_on_c, 9, 35, 122
12, 84128, Note_off_c, 9, 35, 0
12, 84472, Note_on_c, 9, 35, 122
12, 84508, Note_off_c, 9, 35, 0
12, 84760, Note_on_c, 9, 35, 121
12, 84800, Note_off_c, 9, 35, 0
12, 84852, Note_on_c, 9, 35, 122
12, 84900, Note_off_c, 9, 35, 0
12, 85244, Note_on_c, 9, 35, 115
12, 85284, Note_off_c, 9, 35, 0
12, 85524, Note_on_c, 9, 35, 122
12, 85572, Note_off_c, 9, 35, 0
12, 85620, Note_on_c, 9, 35, 122
12, 85660, Note_off_c, 9, 35, 0
12, 86004, Note_on_c, 9, 35, 122
12, 86048, Note_off_c, 9, 35, 0
12, 86296, Note_on_c, 9, 35, 121
12, 86336, Note_off_c, 9, 35, 0
12, 86392, Note_on_c, 9, 35, 122
12, 86436, Note_off_c, 9, 35, 0
12, 86780, Note_on_c, 9, 35, 115
12, 86816, Note_off_c, 9, 35, 0
12, 87060, Note_on_c, 9, 35, 122
12, 87104, Note_off_c, 9, 35, 0
12, 87160, Note_on_c, 9, 35, 122
12, 87200, Note_off_c, 9, 35, 0
12, 87548, Note_on_c, 9, 35, 122
12, 87588, Note_off_c, 9, 35, 0
12, 87828, Note_on_c, 9, 35, 121
12, 87868, Note_off_c, 9, 35, 0
12, 87928, Note_on_c, 9, 35, 122
12, 87968, Note_off_c, 9, 35, 0
12, 88308, Note_on_c, 9, 35, 115
12, 88348, Note_off_c, 9, 35, 0
12, 88596, Note_on_c, 9, 35, 122
12, 88644, Note_off_c, 9, 35, 0
12, 88696, Note_on_c, 9, 35, 122
12, 88740, Note_off_c, 9, 35, 0
12, 89076, Note_on_c, 9, 35, 122
12, 89124, Note_off_c, 9, 35, 0
12, 89364, Note_on_c, 9, 35, 121
12, 89412, Note_off_c, 9, 35, 0
12, 89460, Note_on_c, 9, 35, 122
12, 89500, Note_off_c, 9, 35, 0
12, 89856, Note_on_c, 9, 35, 115
12, 89888, Note_off_c, 9, 35, 0
12, 90136, Note_on_c, 9, 35, 122
12, 90176, Note_off_c, 9, 35, 0
12, 90236, Note_on_c, 9, 35, 122
12, 90276, Note_off_c, 9, 35, 0
12, 90616, Note_on_c, 9, 35, 122
12, 90656, Note_off_c, 9, 35, 0
12, 90908, Note_on_c, 9, 35, 121
12, 90944, Note_off_c, 9, 35, 0
12, 90996, Note_on_c, 9, 35, 122
12, 91036, Note_off_c, 9, 35, 0
12, 91388, Note_on_c, 9, 35, 115
12, 91428, Note_off_c, 9, 35, 0
12, 91672, Note_on_c, 9, 35, 122
12, 91724, Note_off_c, 9, 35, 0
12, 91768, Note_on_c, 9, 35, 122
12, 91804, Note_off_c, 9, 35, 0
12, 92148, Note_on_c, 9, 35, 122
12, 92188, Note_off_c, 9, 35, 0
12, 92436, Note_on_c, 9, 35, 121
12, 92476, Note_off_c, 9, 35, 0
12, 92536, Note_on_c, 9, 35, 122
12, 92576, Note_off_c, 9, 35, 0
12, 92932, Note_on_c, 9, 35, 115
12, 92964, Note_off_c, 9, 35, 0
12, 93208, Note_on_c, 9, 35, 122
12, 93256, Note_off_c, 9, 35, 0
12, 93304, Note_on_c, 9, 35, 122
12, 93344, Note_off_c, 9, 35, 0
12, 93692, Note_on_c, 9, 35, 122
12, 93728, Note_off_c, 9, 35, 0
12, 93976, Note_on_c, 9, 35, 121
12, 94016, Note_off_c, 9, 35, 0
12, 94072, Note_on_c, 9, 35, 122
12, 94116, Note_off_c, 9, 35, 0
12, 94452, Note_on_c, 9, 35, 115
12, 94492, Note_off_c, 9, 35, 0
12, 94748, Note_on_c, 9, 35, 122
12, 94784, Note_off_c, 9, 35, 0
12, 94840, Note_on_c, 9, 35, 122
12, 94880, Note_off_c, 9, 35, 0
12, 95224, Note_on_c, 9, 35, 122
12, 95268, Note_off_c, 9, 35, 0
12, 95512, Note_on_c, 9, 35, 121
12, 95552, Note_off_c, 9, 35, 0
12, 95604, Note_on_c, 9, 35, 122
12, 95644, Note_off_c, 9, 35, 0
12, 96004, Note_on_c, 9, 35, 115
12, 96032, Note_off_c, 9, 35, 0
12, 96276, Note_on_c, 9, 35, 122
12, 96320, Note_off_c, 9, 35, 0
12, 96376, Note_on_c, 9, 35, 122
12, 96424, Note_off_c, 9, 35, 0
12, 96760, Note_on_c, 9, 35, 122
12, 96800, Note_off_c, 9, 35, 0
12, 97048, Note_on_c, 9, 35, 121
12, 97092, Note_off_c, 9, 35, 0
12, 97144, Note_on_c, 9, 35, 122
12, 97184, Note_off_c, 9, 35, 0
12, 97528, Note_on_c, 9, 35, 115
12, 97568, Note_off_c, 9, 35, 0
12, 97820, Note_on_c, 9, 35, 122
12, 97856, Note_off_c, 9, 35, 0
12, 97912, Note_on_c, 9, 35, 122
12, 97960, Note_off_c, 9, 35, 0
12, 98292, Note_on_c, 9, 35, 122
12, 98332, Note_off_c, 9, 35, 0
12, 98580, Note_on_c, 9, 35, 121
12, 98628, Note_off_c, 9, 35, 0
12, 98680, Note_on_c, 9, 35, 122
12, 98724, Note_off_c, 9, 35, 0
12, 99076, Note_on_c, 9, 35, 115
12, 99112, Note_off_c, 9, 35, 0
12, 99352, Note_on_c, 9, 35, 122
12, 99392, Note_off_c, 9, 35, 0
12, 99452, Note_on_c, 9, 35, 122
12, 99488, Note_off_c, 9, 35, 0
12, 99836, Note_on_c, 9, 35, 122
12, 99868, Note_off_c, 9, 35, 0
12, 100116, Note_on_c, 9, 35, 121
12, 100156, Note_off_c, 9, 35, 0
12, 100220, Note_on_c, 9, 35, 122
12, 100256, Note_off_c, 9, 35, 0
12, 100308, Note_on_c, 9, 35, 122
12, 100348, Note_off_c, 9, 35, 0
12, 100608, Note_on_c, 9, 35, 115
12, 100644, Note_off_c, 9, 35, 0
12, 100892, Note_on_c, 9, 35, 122
12, 100932, Note_off_c, 9, 35, 0
12, 100976, Note_on_c, 9, 35, 122
12, 101020, Note_off_c, 9, 35, 0
12, 101368, Note_on_c, 9, 35, 122
12, 101408, Note_off_c, 9, 35, 0
12, 101652, Note_on_c, 9, 35, 121
12, 101692, Note_off_c, 9, 35, 0
12, 101756, Note_on_c, 9, 35, 122
12, 101796, Note_off_c, 9, 35, 0
12, 102136, Note_on_c, 9, 35, 115
12, 102172, Note_off_c, 9, 35, 0
12, 102420, Note_on_c, 9, 35, 122
12, 102464, Note_off_c, 9, 35, 0
12, 102524, Note_on_c, 9, 35, 122
12, 102556, Note_off_c, 9, 35, 0
12, 102900, Note_on_c, 9, 35, 122
12, 102944, Note_off_c, 9, 35, 0
12, 103192, Note_on_c, 9, 35, 121
12, 103232, Note_off_c, 9, 35, 0
12, 103288, Note_on_c, 9, 35, 122
12, 103332, Note_off_c, 9, 35, 0
12, 103672, Note_on_c, 9, 35, 115
12, 103712, Note_off_c, 9, 35, 0
12, 103960, Note_on_c, 9, 35, 122
12, 103996, Note_off_c, 9, 35, 0
12, 104052, Note_on_c, 9, 35, 122
12, 104092, Note_off_c, 9, 35, 0
12, 104444, Note_on_c, 9, 35, 122
12, 104488, Note_off_c, 9, 35, 0
12, 104724, Note_on_c, 9, 35, 121
12, 104772, Note_off_c, 9, 35, 0
12, 104824, Note_on_c, 9, 35, 122
12, 104864, Note_off_c, 9, 35, 0
12, 105208, Note_on_c, 9, 35, 115
12, 105244, Note_off_c, 9, 35, 0
12, 105496, Note_on_c, 9, 35, 122
12, 105532, Note_off_c, 9, 35, 0
12, 105596, Note_on_c, 9, 35, 122
12, 105636, Note_off_c, 9, 35, 0
12, 105976, Note_on_c, 9, 35, 122
12, 106016, Note_off_c, 9, 35, 0
12, 106260, Note_on_c, 9, 35, 121
12, 106308, Note_off_c, 9, 35, 0
12, 106360, Note_on_c, 9, 35, 122
12, 106400, Note_off_c, 9, 35, 0
12, 106740, Note_on_c, 9, 35, 115
12, 106788, Note_off_c, 9, 35, 0
12, 107032, Note_on_c, 9, 35, 122
12, 107068, Note_off_c, 9, 35, 0
12, 107128, Note_on_c, 9, 35, 122
12, 107172, Note_off_c, 9, 35, 0
12, 107508, Note_on_c, 9, 35, 122
12, 107548, Note_off_c, 9, 35, 0
12, 107800, Note_on_c, 9, 35, 121
12, 107840, Note_off_c, 9, 35, 0
12, 107892, Note_on_c, 9, 35, 122
12, 107932, Note_off_c, 9, 35, 0
12, 108280, Note_on_c, 9, 35, 115
12, 108320, Note_off_c, 9, 35, 0
12, 108564, Note_on_c, 9, 35, 122
12, 108604, Note_off_c, 9, 35, 0
12, 108668, Note_on_c, 9, 35, 122
12, 108704, Note_off_c, 9, 35, 0
12, 109044, Note_on_c, 9, 35, 122
12, 109084, Note_off_c, 9, 35, 0
12, 109336, Note_on_c, 9, 35, 121
12, 109376, Note_off_c, 9, 35, 0
12, 109432, Note_on_c, 9, 35, 122
12, 109476, Note_off_c, 9, 35, 0
12, 109816, Note_on_c, 9, 35, 115
12, 109852, Note_off_c, 9, 35, 0
12, 110100, Note_on_c, 9, 35, 122
12, 110148, Note_off_c, 9, 35, 0
12, 110196, Note_on_c, 9, 35, 122
12, 110236, Note_off_c, 9, 35, 0
12, 110588, Note_on_c, 9, 35, 122
12, 110628, Note_off_c, 9, 35, 0
12, 110872, Note_on_c, 9, 35, 121
12, 110912, Note_off_c, 9, 35, 0
12, 110968, Note_on_c, 9, 35, 122
12, 111012, Note_off_c, 9, 35, 0
12, 111356, Note_on_c, 9, 35, 115
12, 111392, Note_off_c, 9, 35, 0
12, 111640, Note_on_c, 9, 35, 122
12, 111684, Note_off_c, 9, 35, 0
12, 111740, Note_on_c, 9, 35, 122
12, 111772, Note_off_c, 9, 35, 0
12, 112128, Note_on_c, 9, 35, 122
12, 112164, Note_off_c, 9, 35, 0
12, 112404, Note_on_c, 9, 35, 121
12, 112444, Note_off_c, 9, 35, 0
12, 112500, Note_on_c, 9, 35, 122
12, 112540, Note_off_c, 9, 35, 0
12, 112892, Note_on_c, 9, 35, 115
12, 112924, Note_off_c, 9, 35, 0
12, 113172, Note_on_c, 9, 35, 122
12, 113216, Note_off_c, 9, 35, 0
12, 113272, Note_on_c, 9, 35, 122
12, 113316, Note_off_c, 9, 35, 0
12, 113656, Note_on_c, 9, 35, 115
12, 113692, Note_off_c, 9, 35, 0
12, 113948, Note_on_c, 9, 35, 122
12, 113988, Note_off_c, 9, 35, 0
12, 114036, Note_on_c, 9, 35, 122
12, 114076, Note_off_c, 9, 35, 0
12, 114428, Note_on_c, 9, 35, 122
12, 114468, Note_off_c, 9, 35, 0
12, 114708, Note_on_c, 9, 35, 121
12, 114748, Note_off_c, 9, 35, 0
12, 114808, Note_on_c, 9, 35, 122
12, 114852, Note_off_c, 9, 35, 0
12, 115192, Note_on_c, 9, 35, 115
12, 115232, Note_off_c, 9, 35, 0
12, 115476, Note_on_c, 9, 35, 122
12, 115524, Note_off_c, 9, 35, 0
12, 115572, Note_on_c, 9, 35, 122
12, 115612, Note_off_c, 9, 35, 0
12, 115956, Note_on_c, 9, 35, 122
12, 116004, Note_off_c, 9, 35, 0
12, 116244, Note_on_c, 9, 35, 121
12, 116284, Note_off_c, 9, 35, 0
12, 116340, Note_on_c, 9, 35, 122
12, 116380, Note_off_c, 9, 35, 0
12, 116724, Note_on_c, 9, 35, 115
12, 116764, Note_off_c, 9, 35, 0
12, 117012, Note_on_c, 9, 35, 122
12, 117052, Note_off_c, 9, 35, 0
12, 117108, Note_on_c, 9, 35, 122
12, 117156, Note_off_c, 9, 35, 0
12, 117496, Note_on_c, 9, 35, 122
12, 117532, Note_off_c, 9, 35, 0
12, 117784, Note_on_c, 9, 35, 121
12, 117828, Note_off_c, 9, 35, 0
12, 117884, Note_on_c, 9, 35, 122
12, 117924, Note_off_c, 9, 35, 0
12, 118260, Note_on_c, 9, 35, 115
12, 118308, Note_off_c, 9, 35, 0
12, 118548, Note_on_c, 9, 35, 122
12, 118588, Note_off_c, 9, 35, 0
12, 118644, Note_on_c, 9, 35, 122
12, 118692, Note_off_c, 9, 35, 0
12, 119028, Note_on_c, 9, 35, 122
12, 119068, Note_off_c, 9, 35, 0
12, 119316, Note_on_c, 9, 35, 121
12, 119364, Note_off_c, 9, 35, 0
12, 119412, Note_on_c, 9, 35, 122
12, 119460, Note_off_c, 9, 35, 0
12, 119804, Note_on_c, 9, 35, 115
12, 119844, Note_off_c, 9, 35, 0
12, 120088, Note_on_c, 9, 35, 122
12, 120128, Note_off_c, 9, 35, 0
12, 120180, Note_on_c, 9, 35, 122
12, 120220, Note_off_c, 9, 35, 0
12, 120572, Note_on_c, 9, 35, 122
12, 120608, Note_off_c, 9, 35, 0
12, 120856, Note_on_c, 9, 35, 121
12, 120896, Note_off_c, 9, 35, 0
12, 120952, Note_on_c, 9, 35, 122
12, 120996, Note_off_c, 9, 35, 0
12, 121336, Note_on_c, 9, 35, 115
12, 121380, Note_off_c, 9, 35, 0
12, 121624, Note_on_c, 9, 35, 122
12, 121668, Note_off_c, 9, 35, 0
12, 121720, Note_on_c, 9, 35, 122
12, 121760, Note_off_c, 9, 35, 0
12, 122104, Note_on_c, 9, 35, 122
12, 122144, Note_off_c, 9, 35, 0
12, 122388, Note_on_c, 9, 35, 121
12, 122428, Note_off_c, 9, 35, 0
12, 122484, Note_on_c, 9, 35, 122
12, 122524, Note_off_c, 9, 35, 0
12, 122872, Note_on_c, 9, 35, 115
12, 122908, Note_off_c, 9, 35, 0
12, 123156, Note_on_c, 9, 35, 122
12, 123204, Note_off_c, 9, 35, 0
12, 123252, Note_on_c, 9, 35, 122
12, 123292, Note_off_c, 9, 35, 0
12, 123640, Note_on_c, 9, 35, 122
12, 123684, Note_off_c, 9, 35, 0
12, 123928, Note_on_c, 9, 35, 121
12, 123968, Note_off_c, 9, 35, 0
12, 124024, Note_on_c, 9, 35, 122
12, 124060, Note_off_c, 9, 35, 0
12, 124412, Note_on_c, 9, 35, 115
12, 124448, Note_off_c, 9, 35, 0
12, 124696, Note_on_c, 9, 35, 122
12, 124736, Note_off_c, 9, 35, 0
12, 124792, Note_on_c, 9, 35, 122
12, 124832, Note_off_c, 9, 35, 0
12, 125172, Note_on_c, 9, 35, 122
12, 125220, Note_off_c, 9, 35, 0
12, 125460, Note_on_c, 9, 35, 121
12, 125508, Note_off_c, 9, 35, 0
12, 125556, Note_on_c, 9, 35, 122
12, 125596, Note_off_c, 9, 35, 0
12, 125952, Note_on_c, 9, 35, 115
12, 125984, Note_off_c, 9, 35, 0
12, 126232, Note_on_c, 9, 35, 122
12, 126272, Note_off_c, 9, 35, 0
12, 126328, Note_on_c, 9, 35, 122
12, 126368, Note_off_c, 9, 35, 0
12, 126708, Note_on_c, 9, 35, 122
12, 126748, Note_off_c, 9, 35, 0
12, 127000, Note_on_c, 9, 35, 121
12, 127044, Note_off_c, 9, 35, 0
12, 127096, Note_on_c, 9, 35, 122
12, 127136, Note_off_c, 9, 35, 0
12, 127484, Note_on_c, 9, 35, 115
12, 127524, Note_off_c, 9, 35, 0
12, 127764, Note_on_c, 9, 35, 122
12, 127804, Note_off_c, 9, 35, 0
12, 127864, Note_on_c, 9, 35, 122
12, 127900, Note_off_c, 9, 35, 0
12, 128248, Note_on_c, 9, 35, 122
12, 128288, Note_off_c, 9, 35, 0
12, 128532, Note_on_c, 9, 35, 121
12, 128572, Note_off_c, 9, 35, 0
12, 128632, Note_on_c, 9, 35, 122
12, 128676, Note_off_c, 9, 35, 0
12, 129024, Note_on_c, 9, 35, 115
12, 129064, Note_off_c, 9, 35, 0
12, 129304, Note_on_c, 9, 35, 122
12, 129348, Note_off_c, 9, 35, 0
12, 129400, Note_on_c, 9, 35, 122
12, 129440, Note_off_c, 9, 35, 0
12, 129788, Note_on_c, 9, 35, 122
12, 129824, Note_off_c, 9, 35, 0
12, 130072, Note_on_c, 9, 35, 121
12, 130112, Note_off_c, 9, 35, 0
12, 130172, Note_on_c, 9, 35, 122
12, 130212, Note_off_c, 9, 35, 0
12, 130552, Note_on_c, 9, 35, 115
12, 130588, Note_off_c, 9, 35, 0
12, 130840, Note_on_c, 9, 35, 122
12, 130884, Note_off_c, 9, 35, 0
12, 130936, Note_on_c, 9, 35, 122
12, 130976, Note_off_c, 9, 35, 0
12, 131320, Note_on_c, 9, 35, 122
12, 131364, Note_off_c, 9, 35, 0
12, 131612, Note_on_c, 9, 35, 121
12, 131644, Note_off_c, 9, 35, 0
12, 131700, Note_on_c, 9, 35, 122
12, 131740, Note_off_c, 9, 35, 0
12, 132096, Note_on_c, 9, 35, 115
12, 132128, Note_off_c, 9, 35, 0
12, 132372, Note_on_c, 9, 35, 122
12, 132412, Note_off_c, 9, 35, 0
12, 132468, Note_on_c, 9, 35, 122
12, 132512, Note_off_c, 9, 35, 0
12, 132868, Note_on_c, 9, 35, 122
12, 132904, Note_off_c, 9, 35, 0
12, 133144, Note_on_c, 9, 35, 121
12, 133188, Note_off_c, 9, 35, 0
12, 133240, Note_on_c, 9, 35, 122
12, 133280, Note_off_c, 9, 35, 0
12, 133332, Note_on_c, 9, 35, 122
12, 133380, Note_off_c, 9, 35, 0
12, 133624, Note_on_c, 9, 35, 115
12, 133660, Note_off_c, 9, 35, 0
12, 133920, Note_on_c, 9, 35, 122
12, 133948, Note_off_c, 9, 35, 0
12, 134004, Note_on_c, 9, 35, 122
12, 134052, Note_off_c, 9, 35, 0
12, 134392, Note_on_c, 9, 35, 122
12, 134428, Note_off_c, 9, 35, 0
12, 134680, Note_on_c, 9, 35, 121
12, 134724, Note_off_c, 9, 35, 0
12, 134776, Note_on_c, 9, 35, 122
12, 134820, Note_off_c, 9, 35, 0
12, 135156, Note_on_c, 9, 35, 115
12, 135204, Note_off_c, 9, 35, 0
12, 135448, Note_on_c, 9, 35, 122
12, 135484, Note_off_c, 9, 35, 0
12, 135540, Note_on_c, 9, 35, 122
12, 135580, Note_off_c, 9, 35, 0
12, 135928, Note_on_c, 9, 35, 122
12, 135972, Note_off_c, 9, 35, 0
12, 136216, Note_on_c, 9, 35, 121
12, 136252, Note_off_c, 9, 35, 0
12, 136300, Note_on_c, 9, 35, 122
12, 136356, Note_off_c, 9, 35, 0
12, 136700, Note_on_c, 9, 35, 115
12, 136736, Note_off_c, 9, 35, 0
12, 136988, Note_on_c, 9, 35, 122
12, 137028, Note_off_c, 9, 35, 0
12, 137076, Note_on_c, 9, 35, 122
12, 137116, Note_off_c, 9, 35, 0
12, 137464, Note_on_c, 9, 35, 122
12, 137500, Note_off_c, 9, 35, 0
12, 137752, Note_on_c, 9, 35, 121
12, 137792, Note_off_c, 9, 35, 0
12, 137852, Note_on_c, 9, 35, 122
12, 137892, Note_off_c, 9, 35, 0
12, 138232, Note_on_c, 9, 35, 115
12, 138272, Note_off_c, 9, 35, 0
12, 138516, Note_on_c, 9, 35, 122
12, 138564, Note_off_c, 9, 35, 0
12, 138616, Note_on_c, 9, 35, 122
12, 138652, Note_off_c, 9, 35, 0
12, 138996, Note_on_c, 9, 35, 122
12, 139044, Note_off_c, 9, 35, 0
12, 139288, Note_on_c, 9, 35, 121
12, 139328, Note_off_c, 9, 35, 0
12, 139380, Note_on_c, 9, 35, 122
12, 139428, Note_off_c, 9, 35, 0
12, 139768, Note_on_c, 9, 35, 115
12, 139808, Note_off_c, 9, 35, 0
12, 140056, Note_on_c, 9, 35, 122
12, 140092, Note_off_c, 9, 35, 0
12, 140148, Note_on_c, 9, 35, 122
12, 140192, Note_off_c, 9, 35, 0
12, 140536, Note_on_c, 9, 35, 122
12, 140580, Note_off_c, 9, 35, 0
12, 140824, Note_on_c, 9, 35, 121
12, 140868, Note_off_c, 9, 35, 0
12, 140920, Note_on_c, 9, 35, 122
12, 140960, Note_off_c, 9, 35, 0
12, 141304, Note_on_c, 9, 35, 115
12, 141344, Note_off_c, 9, 35, 0
12, 141592, Note_on_c, 9, 35, 122
12, 141632, Note_off_c, 9, 35, 0
12, 141684, Note_on_c, 9, 35, 122
12, 141732, Note_off_c, 9, 35, 0
12, 142072, Note_on_c, 9, 35, 122
12, 142112, Note_off_c, 9, 35, 0
12, 142356, Note_on_c, 9, 35, 121
12, 142404, Note_off_c, 9, 35, 0
12, 142456, Note_on_c, 9, 35, 122
12, 142492, Note_off_c, 9, 35, 0
12, 142844, Note_on_c, 9, 35, 115
12, 142884, Note_off_c, 9, 35, 0
12, 143128, Note_on_c, 9, 35, 122
12, 143164, Note_off_c, 9, 35, 0
12, 143220, Note_on_c, 9, 35, 122
12, 143268, Note_off_c, 9, 35, 0
12, 143604, Note_on_c, 9, 35, 122
12, 143644, Note_off_c, 9, 35, 0
12, 143892, Note_on_c, 9, 35, 121
12, 143940, Note_off_c, 9, 35, 0
12, 143988, Note_on_c, 9, 35, 122
12, 144028, Note_off_c, 9, 35, 0
12, 144376, Note_on_c, 9, 35, 115
12, 144420, Note_off_c, 9, 35, 0
12, 144660, Note_on_c, 9, 35, 122
12, 144700, Note_off_c, 9, 35, 0
12, 144760, Note_on_c, 9, 35, 122
12, 144796, Note_off_c, 9, 35, 0
12, 145144, Note_on_c, 9, 35, 122
12, 145180, Note_off_c, 9, 35, 0
12, 145432, Note_on_c, 9, 35, 121
12, 145468, Note_off_c, 9, 35, 0
12, 145524, Note_on_c, 9, 35, 122
12, 145572, Note_off_c, 9, 35, 0
12, 145908, Note_on_c, 9, 35, 115
12, 145948, Note_off_c, 9, 35, 0
12, 146196, Note_on_c, 9, 35, 122
12, 146240, Note_off_c, 9, 35, 0
12, 146292, Note_on_c, 9, 35, 122
12, 146332, Note_off_c, 9, 35, 0
12, 146676, Note_on_c, 9, 35, 122
12, 146724, Note_off_c, 9, 35, 0
12, 146964, Note_on_c, 9, 35, 121
12, 147004, Note_off_c, 9, 35, 0
12, 147060, Note_on_c, 9, 35, 122
12, 147108, Note_off_c, 9, 35, 0
12, 147448, Note_on_c, 9, 35, 115
12, 147488, Note_off_c, 9, 35, 0
12, 147736, Note_on_c, 9, 35, 122
12, 147780, Note_off_c, 9, 35, 0
12, 147828, Note_on_c, 9, 35, 122
12, 147868, Note_off_c, 9, 35, 0
12, 148212, Note_on_c, 9, 35, 122
12, 148260, Note_off_c, 9, 35, 0
12, 148500, Note_on_c, 9, 35, 121
12, 148540, Note_off_c, 9, 35, 0
12, 148600, Note_on_c, 9, 35, 122
12, 148636, Note_off_c, 9, 35, 0
12, 148980, Note_on_c, 9, 35, 115
12, 149028, Note_off_c, 9, 35, 0
12, 149268, Note_on_c, 9, 35, 122
12, 149308, Note_off_c, 9, 35, 0
12, 149364, Note_on_c, 9, 35, 122
12, 149412, Note_off_c, 9, 35, 0
12, 149748, Note_on_c, 9, 35, 122
12, 149788, Note_off_c, 9, 35, 0
12, 150036, Note_on_c, 9, 35, 121
12, 150084, Note_off_c, 9, 35, 0
12, 150132, Note_on_c, 9, 35, 122
12, 150176, Note_off_c, 9, 35, 0
12, 150516, Note_on_c, 9, 35, 115
12, 150568, Note_off_c, 9, 35, 0
12, 150804, Note_on_c, 9, 35, 122
12, 150844, Note_off_c, 9, 35, 0
12, 150900, Note_on_c, 9, 35, 122
12, 150948, Note_off_c, 9, 35, 0
12, 151284, Note_on_c, 9, 35, 122
12, 151328, Note_off_c, 9, 35, 0
12, 151572, Note_on_c, 9, 35, 121
12, 151620, Note_off_c, 9, 35, 0
12, 151668, Note_on_c, 9, 35, 122
12, 151716, Note_off_c, 9, 35, 0
12, 152052, Note_on_c, 9, 35, 115
12, 152104, Note_off_c, 9, 35, 0
12, 152340, Note_on_c, 9, 35, 122
12, 152380, Note_off_c, 9, 35, 0
12, 152436, Note_on_c, 9, 35, 122
12, 152476, Note_off_c, 9, 35, 0
12, 152820, Note_on_c, 9, 35, 122
12, 152864, Note_off_c, 9, 35, 0
12, 153108, Note_on_c, 9, 35, 121
12, 153148, Note_off_c, 9, 35, 0
12, 153204, Note_on_c, 9, 35, 122
12, 153252, Note_off_c, 9, 35, 0
12, 153252, End_track
13, 0, Start_track
13, 0, Title_t, "F 1 "
13, 0, Control_c, 9, 0, 0
13, 0, Program_c, 9, 0
13, 0, Control_c, 9, 91, 100
13, 0, Key_signature, 0, "major"
13, 1912, Note_on_c, 9, 41, 107
13, 1952, Note_off_c, 9, 41, 0
13, 2684, Note_on_c, 9, 41, 107
13, 2728, Note_off_c, 9, 41, 0
13, 3448, Note_on_c, 9, 41, 107
13, 3488, Note_off_c, 9, 41, 0
13, 4216, Note_on_c, 9, 41, 107
13, 4256, Note_off_c, 9, 41, 0
13, 4984, Note_on_c, 9, 41, 107
13, 5032, Note_off_c, 9, 41, 0
13, 5752, Note_on_c, 9, 41, 107
13, 5792, Note_off_c, 9, 41, 0
13, 6520, Note_on_c, 9, 41, 107
13, 6572, Note_off_c, 9, 41, 0
13, 7288, Note_on_c, 9, 41, 107
13, 7332, Note_off_c, 9, 41, 0
13, 8056, Note_on_c, 9, 41, 107
13, 8096, Note_off_c, 9, 41, 0
13, 8828, Note_on_c, 9, 41, 107
13, 8868, Note_off_c, 9, 41, 0
13, 9592, Note_on_c, 9, 41, 107
13, 9632, Note_off_c, 9, 41, 0
13, 10364, Note_on_c, 9, 41, 107
13, 10408, Note_off_c, 9, 41, 0
13, 11128, Note_on_c, 9, 41, 107
13, 11172, Note_off_c, 9, 41, 0
13, 11896, Note_on_c, 9, 41, 107
13, 11936, Note_off_c, 9, 41, 0
13, 12668, Note_on_c, 9, 41, 107
13, 12712, Note_off_c, 9, 41, 0
13, 13432, Note_on_c, 9, 41, 107
13, 13472, Note_off_c, 9, 41, 0
13, 14200, Note_on_c, 9, 41, 107
13, 14252, Note_off_c, 9, 41, 0
13, 14976, Note_on_c, 9, 41, 107
13, 15008, Note_off_c, 9, 41, 0
13, 15740, Note_on_c, 9, 41, 107
13, 15776, Note_off_c, 9, 41, 0
13, 16508, Note_on_c, 9, 41, 107
13, 16544, Note_off_c, 9, 41, 0
13, 17272, Note_on_c, 9, 41, 107
13, 17312, Note_off_c, 9, 41, 0
13, 18048, Note_on_c, 9, 41, 107
13, 18088, Note_off_c, 9, 41, 0
13, 18816, Note_on_c, 9, 41, 107
13, 18852, Note_off_c, 9, 41, 0
13, 19580, Note_on_c, 9, 41, 107
13, 19616, Note_off_c, 9, 41, 0
13, 20348, Note_on_c, 9, 41, 107
13, 20392, Note_off_c, 9, 41, 0
13, 21112, Note_on_c, 9, 41, 107
13, 21152, Note_off_c, 9, 41, 0
13, 21884, Note_on_c, 9, 41, 107
13, 21932, Note_off_c, 9, 41, 0
13, 22656, Note_on_c, 9, 41, 107
13, 22692, Note_off_c, 9, 41, 0
13, 23416, Note_on_c, 9, 41, 107
13, 23456, Note_off_c, 9, 41, 0
13, 24184, Note_on_c, 9, 41, 107
13, 24232, Note_off_c, 9, 41, 0
13, 24952, Note_on_c, 9, 41, 107
13, 24992, Note_off_c, 9, 41, 0
13, 25720, Note_on_c, 9, 41, 107
13, 25768, Note_off_c, 9, 41, 0
13, 26488, Note_on_c, 9, 41, 107
13, 26528, Note_off_c, 9, 41, 0
13, 27256, Note_on_c, 9, 41, 107
13, 27296, Note_off_c, 9, 41, 0
13, 28028, Note_on_c, 9, 41, 107
13, 28076, Note_off_c, 9, 41, 0
13, 28792, Note_on_c, 9, 41, 107
13, 28832, Note_off_c, 9, 41, 0
13, 29560, Note_on_c, 9, 41, 107
13, 29608, Note_off_c, 9, 41, 0
13, 30328, Note_on_c, 9, 41, 107
13, 30368, Note_off_c, 9, 41, 0
13, 31096, Note_on_c, 9, 41, 107
13, 31144, Note_off_c, 9, 41, 0
13, 31864, Note_on_c, 9, 41, 107
13, 31904, Note_off_c, 9, 41, 0
13, 32632, Note_on_c, 9, 41, 107
13, 32676, Note_off_c, 9, 41, 0
13, 33400, Note_on_c, 9, 41, 107
13, 33448, Note_off_c, 9, 41, 0
13, 34168, Note_on_c, 9, 41, 107
13, 34208, Note_off_c, 9, 41, 0
13, 34936, Note_on_c, 9, 41, 107
13, 34984, Note_off_c, 9, 41, 0
13, 35704, Note_on_c, 9, 41, 107
13, 35748, Note_off_c, 9, 41, 0
13, 36476, Note_on_c, 9, 41, 107
13, 36516, Note_off_c, 9, 41, 0
13, 37240, Note_on_c, 9, 41, 107
13, 37284, Note_off_c, 9, 41, 0
13, 38008, Note_on_c, 9, 41, 107
13, 38048, Note_off_c, 9, 41, 0
13, 38776, Note_on_c, 9, 41, 107
13, 38820, Note_off_c, 9, 41, 0
13, 39548, Note_on_c, 9, 41, 107
13, 39588, Note_off_c, 9, 41, 0
13, 40312, Note_on_c, 9, 41, 107
13, 40352, Note_off_c, 9, 41, 0
13, 41080, Note_on_c, 9, 41, 107
13, 41124, Note_off_c, 9, 41, 0
13, 41852, Note_on_c, 9, 41, 107
13, 41892, Note_off_c, 9, 41, 0
13, 42616, Note_on_c, 9, 41, 107
13, 42664, Note_off_c, 9, 41, 0
13, 43384, Note_on_c, 9, 41, 107
13, 43424, Note_off_c, 9, 41, 0
13, 44152, Note_on_c, 9, 41, 107
13, 44196, Note_off_c, 9, 41, 0
13, 44924, Note_on_c, 9, 41, 107
13, 44964, Note_off_c, 9, 41, 0
13, 45688, Note_on_c, 9, 41, 107
13, 45728, Note_off_c, 9, 41, 0
13, 46456, Note_on_c, 9, 41, 107
13, 46500, Note_off_c, 9, 41, 0
13, 46644, Note_on_c, 9, 41, 107
13, 46684, Note_off_c, 9, 41, 0
13, 46740, Note_on_c, 9, 41, 107
13, 46784, Note_off_c, 9, 41, 0
13, 47224, Note_on_c, 9, 41, 107
13, 47264, Note_off_c, 9, 41, 0
13, 47992, Note_on_c, 9, 41, 107
13, 48032, Note_off_c, 9, 41, 0
13, 48764, Note_on_c, 9, 41, 107
13, 48804, Note_off_c, 9, 41, 0
13, 49532, Note_on_c, 9, 41, 107
13, 49572, Note_off_c, 9, 41, 0
13, 50300, Note_on_c, 9, 41, 107
13, 50344, Note_off_c, 9, 41, 0
13, 51068, Note_on_c, 9, 41, 107
13, 51116, Note_off_c, 9, 41, 0
13, 51836, Note_on_c, 9, 41, 107
13, 51876, Note_off_c, 9, 41, 0
13, 52604, Note_on_c, 9, 41, 107
13, 52648, Note_off_c, 9, 41, 0
13, 53372, Note_on_c, 9, 41, 107
13, 53412, Note_off_c, 9, 41, 0
13, 54140, Note_on_c, 9, 41, 107
13, 54184, Note_off_c, 9, 41, 0
13, 54904, Note_on_c, 9, 41, 107
13, 54944, Note_off_c, 9, 41, 0
13, 55672, Note_on_c, 9, 41, 107
13, 55712, Note_off_c, 9, 41, 0
13, 56444, Note_on_c, 9, 41, 107
13, 56492, Note_off_c, 9, 41, 0
13, 57212, Note_on_c, 9, 41, 107
13, 57256, Note_off_c, 9, 41, 0
13, 57980, Note_on_c, 9, 41, 107
13, 58028, Note_off_c, 9, 41, 0
13, 58744, Note_on_c, 9, 41, 107
13, 58792, Note_off_c, 9, 41, 0
13, 59516, Note_on_c, 9, 41, 107
13, 59552, Note_off_c, 9, 41, 0
13, 60288, Note_on_c, 9, 41, 107
13, 60324, Note_off_c, 9, 41, 0
13, 60472, Note_on_c, 9, 41, 75
13, 60516, Note_off_c, 9, 41, 0
13, 60564, Note_on_c, 9, 41, 106
13, 60608, Note_off_c, 9, 41, 0
13, 61052, Note_on_c, 9, 41, 107
13, 61092, Note_off_c, 9, 41, 0
13, 61824, Note_on_c, 9, 41, 107
13, 61864, Note_on_c, 9, 41, 41
13, 62588, Note_on_c, 9, 41, 107
13, 62628, Note_off_c, 9, 41, 0
13, 63352, Note_on_c, 9, 41, 107
13, 63392, Note_off_c, 9, 41, 0
13, 64120, Note_on_c, 9, 41, 107
13, 64168, Note_off_c, 9, 41, 0
13, 64892, Note_on_c, 9, 41, 107
13, 64932, Note_off_c, 9, 41, 0
13, 65660, Note_on_c, 9, 41, 107
13, 65704, Note_off_c, 9, 41, 0
13, 66424, Note_on_c, 9, 41, 107
13, 66472, Note_off_c, 9, 41, 0
13, 67192, Note_on_c, 9, 41, 107
13, 67240, Note_off_c, 9, 41, 0
13, 67964, Note_on_c, 9, 41, 107
13, 68000, Note_off_c, 9, 41, 0
13, 68728, Note_on_c, 9, 41, 107
13, 68768, Note_off_c, 9, 41, 0
13, 69496, Note_on_c, 9, 41, 107
13, 69544, Note_off_c, 9, 41, 0
13, 70264, Note_on_c, 9, 41, 107
13, 70308, Note_off_c, 9, 41, 0
13, 71032, Note_on_c, 9, 41, 107
13, 71080, Note_off_c, 9, 41, 0
13, 71800, Note_on_c, 9, 41, 107
13, 71840, Note_off_c, 9, 41, 0
13, 72568, Note_on_c, 9, 41, 107
13, 72608, Note_off_c, 9, 41, 0
13, 73340, Note_on_c, 9, 41, 107
13, 73384, Note_off_c, 9, 41, 0
13, 74104, Note_on_c, 9, 41, 107
13, 74144, Note_off_c, 9, 41, 0
13, 74872, Note_on_c, 9, 41, 107
13, 74916, Note_off_c, 9, 41, 0
13, 75640, Note_on_c, 9, 41, 107
13, 75684, Note_off_c, 9, 41, 0
13, 76408, Note_on_c, 9, 41, 107
13, 76452, Note_off_c, 9, 41, 0
13, 77176, Note_on_c, 9, 41, 107
13, 77224, Note_off_c, 9, 41, 0
13, 77948, Note_on_c, 9, 41, 107
13, 77988, Note_off_c, 9, 41, 0
13, 78712, Note_on_c, 9, 41, 107
13, 78760, Note_off_c, 9, 41, 0
13, 79480, Note_on_c, 9, 41, 107
13, 79524, Note_off_c, 9, 41, 0
13, 80248, Note_on_c, 9, 41, 107
13, 80288, Note_off_c, 9, 41, 0
13, 81016, Note_on_c, 9, 41, 107
13, 81060, Note_off_c, 9, 41, 0
13, 81784, Note_on_c, 9, 41, 107
13, 81824, Note_off_c, 9, 41, 0
13, 82552, Note_on_c, 9, 41, 107
13, 82600, Note_off_c, 9, 41, 0
13, 83320, Note_on_c, 9, 41, 107
13, 83360, Note_off_c, 9, 41, 0
13, 84092, Note_on_c, 9, 41, 107
13, 84128, Note_off_c, 9, 41, 0
13, 84864, Note_on_c, 9, 41, 107
13, 84900, Note_off_c, 9, 41, 0
13, 85624, Note_on_c, 9, 41, 107
13, 85668, Note_off_c, 9, 41, 0
13, 86396, Note_on_c, 9, 41, 107
13, 86436, Note_off_c, 9, 41, 0
13, 86580, Note_on_c, 9, 41, 107
13, 86624, Note_off_c, 9, 41, 0
13, 86680, Note_on_c, 9, 41, 107
13, 86724, Note_off_c, 9, 41, 0
13, 87164, Note_on_c, 9, 41, 107
13, 87204, Note_off_c, 9, 41, 0
13, 87932, Note_on_c, 9, 41, 107
13, 87972, Note_off_c, 9, 41, 0
13, 88696, Note_on_c, 9, 41, 107
13, 88744, Note_off_c, 9, 41, 0
13, 89464, Note_on_c, 9, 41, 107
13, 89504, Note_off_c, 9, 41, 0
13, 90236, Note_on_c, 9, 41, 107
13, 90280, Note_off_c, 9, 41, 0
13, 91004, Note_on_c, 9, 41, 107
13, 91044, Note_off_c, 9, 41, 0
13, 91772, Note_on_c, 9, 41, 107
13, 91808, Note_off_c, 9, 41, 0
13, 92540, Note_on_c, 9, 41, 107
13, 92584, Note_off_c, 9, 41, 0
13, 93308, Note_on_c, 9, 41, 107
13, 93348, Note_off_c, 9, 41, 0
13, 94076, Note_on_c, 9, 41, 107
13, 94120, Note_off_c, 9, 41, 0
13, 94844, Note_on_c, 9, 41, 107
13, 94884, Note_off_c, 9, 41, 0
13, 95608, Note_on_c, 9, 41, 107
13, 95648, Note_off_c, 9, 41, 0
13, 96380, Note_on_c, 9, 41, 107
13, 96424, Note_off_c, 9, 41, 0
13, 97148, Note_on_c, 9, 41, 107
13, 97188, Note_off_c, 9, 41, 0
13, 97916, Note_on_c, 9, 41, 107
13, 97964, Note_off_c, 9, 41, 0
13, 98684, Note_on_c, 9, 41, 107
13, 98728, Note_off_c, 9, 41, 0
13, 99456, Note_on_c, 9, 41, 107
13, 99488, Note_off_c, 9, 41, 0
13, 100220, Note_on_c, 9, 41, 107
13, 100260, Note_off_c, 9, 41, 0
13, 100408, Note_on_c, 9, 41, 75
13, 100452, Note_off_c, 9, 41, 0
13, 100500, Note_on_c, 9, 41, 106
13, 100544, Note_off_c, 9, 41, 0
13, 100984, Note_on_c, 9, 41, 107
13, 101028, Note_off_c, 9, 41, 0
13, 101756, Note_on_c, 9, 41, 107
13, 101792, Note_off_c, 9, 41, 0
13, 102528, Note_on_c, 9, 41, 107
13, 102564, Note_off_c, 9, 41, 0
13, 103288, Note_on_c, 9, 41, 107
13, 103336, Note_off_c, 9, 41, 0
13, 104056, Note_on_c, 9, 41, 107
13, 104096, Note_off_c, 9, 41, 0
13, 104828, Note_on_c, 9, 41, 107
13, 104864, Note_off_c, 9, 41, 0
13, 105600, Note_on_c, 9, 41, 107
13, 105636, Note_off_c, 9, 41, 0
13, 106364, Note_on_c, 9, 41, 107
13, 106408, Note_off_c, 9, 41, 0
13, 107128, Note_on_c, 9, 41, 107
13, 107176, Note_off_c, 9, 41, 0
13, 107896, Note_on_c, 9, 41, 107
13, 107936, Note_off_c, 9, 41, 0
13, 108672, Note_on_c, 9, 41, 107
13, 108704, Note_off_c, 9, 41, 0
13, 109432, Note_on_c, 9, 41, 107
13, 109480, Note_off_c, 9, 41, 0
13, 110200, Note_on_c, 9, 41, 107
13, 110240, Note_off_c, 9, 41, 0
13, 110968, Note_on_c, 9, 41, 107
13, 111016, Note_off_c, 9, 41, 0
13, 111744, Note_on_c, 9, 41, 107
13, 111776, Note_off_c, 9, 41, 0
13, 112508, Note_on_c, 9, 41, 107
13, 112548, Note_off_c, 9, 41, 0
13, 113272, Note_on_c, 9, 41, 107
13, 113320, Note_off_c, 9, 41, 0
13, 114044, Note_on_c, 9, 41, 107
13, 114080, Note_off_c, 9, 41, 0
13, 114812, Note_on_c, 9, 41, 107
13, 114856, Note_off_c, 9, 41, 0
13, 115576, Note_on_c, 9, 41, 107
13, 115616, Note_off_c, 9, 41, 0
13, 116348, Note_on_c, 9, 41, 107
13, 116388, Note_off_c, 9, 41, 0
13, 117112, Note_on_c, 9, 41, 107
13, 117160, Note_off_c, 9, 41, 0
13, 117888, Note_on_c, 9, 41, 107
13, 117924, Note_off_c, 9, 41, 0
13, 118648, Note_on_c, 9, 41, 107
13, 118696, Note_off_c, 9, 41, 0
13, 119416, Note_on_c, 9, 41, 107
13, 119464, Note_off_c, 9, 41, 0
13, 119604, Note_on_c, 9, 41, 107
13, 119652, Note_off_c, 9, 41, 0
13, 119700, Note_on_c, 9, 41, 107
13, 119744, Note_off_c, 9, 41, 0
13, 120184, Note_on_c, 9, 41, 107
13, 120224, Note_off_c, 9, 41, 0
13, 120956, Note_on_c, 9, 41, 107
13, 121000, Note_off_c, 9, 41, 0
13, 121724, Note_on_c, 9, 41, 107
13, 121764, Note_off_c, 9, 41, 0
13, 122488, Note_on_c, 9, 41, 107
13, 122532, Note_off_c, 9, 41, 0
13, 123256, Note_on_c, 9, 41, 107
13, 123296, Note_off_c, 9, 41, 0
13, 124024, Note_on_c, 9, 41, 107
13, 124068, Note_off_c, 9, 41, 0
13, 124792, Note_on_c, 9, 41, 107
13, 124836, Note_off_c, 9, 41, 0
13, 125560, Note_on_c, 9, 41, 107
13, 125600, Note_off_c, 9, 41, 0
13, 126332, Note_on_c, 9, 41, 107
13, 126376, Note_off_c, 9, 41, 0
13, 127100, Note_on_c, 9, 41, 107
13, 127140, Note_off_c, 9, 41, 0
13, 127868, Note_on_c, 9, 41, 107
13, 127904, Note_off_c, 9, 41, 0
13, 128636, Note_on_c, 9, 41, 107
13, 128680, Note_off_c, 9, 41, 0
13, 129404, Note_on_c, 9, 41, 107
13, 129444, Note_off_c, 9, 41, 0
13, 130176, Note_on_c, 9, 41, 107
13, 130216, Note_off_c, 9, 41, 0
13, 130940, Note_on_c, 9, 41, 107
13, 130980, Note_off_c, 9, 41, 0
13, 131708, Note_on_c, 9, 41, 107
13, 131744, Note_off_c, 9, 41, 0
13, 132472, Note_on_c, 9, 41, 107
13, 132524, Note_off_c, 9, 41, 0
13, 133244, Note_on_c, 9, 41, 107
13, 133284, Note_off_c, 9, 41, 0
13, 133432, Note_on_c, 9, 41, 75
13, 133476, Note_off_c, 9, 41, 0
13, 133524, Note_on_c, 9, 41, 106
13, 133568, Note_off_c, 9, 41, 0
13, 134008, Note_on_c, 9, 41, 107
13, 134056, Note_off_c, 9, 41, 0
13, 134780, Note_on_c, 9, 41, 107
13, 134816, Note_off_c, 9, 41, 0
13, 135544, Note_on_c, 9, 41, 107
13, 135584, Note_off_c, 9, 41, 0
13, 136312, Note_on_c, 9, 41, 107
13, 136360, Note_off_c, 9, 41, 0
13, 137080, Note_on_c, 9, 41, 107
13, 137120, Note_off_c, 9, 41, 0
13, 137852, Note_on_c, 9, 41, 107
13, 137892, Note_off_c, 9, 41, 0
13, 138616, Note_on_c, 9, 41, 107
13, 138656, Note_off_c, 9, 41, 0
13, 139384, Note_on_c, 9, 41, 107
13, 139428, Note_off_c, 9, 41, 0
13, 140152, Note_on_c, 9, 41, 107
13, 140192, Note_off_c, 9, 41, 0
13, 140920, Note_on_c, 9, 41, 107
13, 140960, Note_off_c, 9, 41, 0
13, 141688, Note_on_c, 9, 41, 107
13, 141732, Note_off_c, 9, 41, 0
13, 142456, Note_on_c, 9, 41, 107
13, 142496, Note_off_c, 9, 41, 0
13, 143224, Note_on_c, 9, 41, 107
13, 143272, Note_off_c, 9, 41, 0
13, 143992, Note_on_c, 9, 41, 107
13, 144032, Note_off_c, 9, 41, 0
13, 144764, Note_on_c, 9, 41, 107
13, 144800, Note_off_c, 9, 41, 0
13, 145532, Note_on_c, 9, 41, 107
13, 145576, Note_off_c, 9, 41, 0
13, 146296, Note_on_c, 9, 41, 107
13, 146336, Note_off_c, 9, 41, 0
13, 147064, Note_on_c, 9, 41, 107
13, 147112, Note_off_c, 9, 41, 0
13, 147836, Note_on_c, 9, 41, 107
13, 147872, Note_off_c, 9, 41, 0
13, 148604, Note_on_c, 9, 41, 107
13, 148640, Note_off_c, 9, 41, 0
13, 149368, Note_on_c, 9, 41, 107
13, 149412, Note_off_c, 9, 41, 0
13, 150136, Note_on_c, 9, 41, 107
13, 150180, Note_off_c, 9, 41, 0
13, 150904, Note_on_c, 9, 41, 107
13, 150952, Note_off_c, 9, 41, 0
13, 151672, Note_on_c, 9, 41, 107
13, 151716, Note_off_c, 9, 41, 0
13, 152440, Note_on_c, 9, 41, 107
13, 152480, Note_off_c, 9, 41, 0
13, 153208, Note_on_c, 9, 41, 107
13, 153256, Note_off_c, 9, 41, 0
13, 153256, End_track
14, 0, Start_track
14, 0, Title_t, "G#1 "
14, 0, Control_c, 9, 0, 0
14, 0, Program_c, 9, 0
14, 0, Control_c, 9, 91, 100
14, 0, Key_signature, 0, "major"
14, 1524, Note_on_c, 9, 44, 75
14, 1588, Note_off_c, 9, 44, 0
14, 1620, Note_on_c, 9, 44, 47
14, 1664, Note_off_c, 9, 44, 0
14, 1716, Note_on_c, 9, 44, 47
14, 1768, Note_off_c, 9, 44, 0
14, 1812, Note_on_c, 9, 44, 62
14, 1868, Note_off_c, 9, 44, 0
14, 1908, Note_on_c, 9, 44, 80
14, 1976, Note_off_c, 9, 44, 0
14, 2004, Note_on_c, 9, 44, 25
14, 2044, Note_off_c, 9, 44, 0
14, 2100, Note_on_c, 9, 44, 47
14, 2148, Note_off_c, 9, 44, 0
14, 2196, Note_on_c, 9, 44, 66
14, 2252, Note_off_c, 9, 44, 0
14, 2292, Note_on_c, 9, 44, 75
14, 2360, Note_off_c, 9, 44, 0
14, 2388, Note_on_c, 9, 44, 62
14, 2440, Note_off_c, 9, 44, 0
14, 2484, Note_on_c, 9, 44, 58
14, 2536, Note_off_c, 9, 44, 0
14, 2580, Note_on_c, 9, 44, 62
14, 2636, Note_off_c, 9, 44, 0
14, 2676, Note_on_c, 9, 44, 80
14, 2744, Note_off_c, 9, 44, 0
14, 2768, Note_on_c, 9, 44, 44
14, 2828, Note_off_c, 9, 44, 0
14, 2868, Note_on_c, 9, 44, 58
14, 2916, Note_off_c, 9, 44, 0
14, 2964, Note_on_c, 9, 44, 75
14, 3020, Note_off_c, 9, 44, 0
14, 3060, Note_on_c, 9, 44, 80
14, 3132, Note_off_c, 9, 44, 0
14, 3156, Note_on_c, 9, 44, 47
14, 3204, Note_off_c, 9, 44, 0
14, 3252, Note_on_c, 9, 44, 62
14, 3300, Note_off_c, 9, 44, 0
14, 3348, Note_on_c, 9, 44, 50
14, 3396, Note_off_c, 9, 44, 0
14, 3444, Note_on_c, 9, 44, 96
14, 3496, Note_off_c, 9, 44, 0
14, 3540, Note_on_c, 9, 44, 35
14, 3592, Note_off_c, 9, 44, 0
14, 3636, Note_on_c, 9, 44, 62
14, 3676, Note_off_c, 9, 44, 0
14, 3732, Note_on_c, 9, 44, 50
14, 3780, Note_off_c, 9, 44, 0
14, 3828, Note_on_c, 9, 44, 80
14, 3892, Note_off_c, 9, 44, 0
14, 3924, Note_on_c, 9, 44, 35
14, 3964, Note_off_c, 9, 44, 0
14, 4020, Note_on_c, 9, 44, 47
14, 4060, Note_off_c, 9, 44, 0
14, 4116, Note_on_c, 9, 44, 47
14, 4160, Note_off_c, 9, 44, 0
14, 4212, Note_on_c, 9, 44, 66
14, 4280, Note_off_c, 9, 44, 0
14, 4308, Note_on_c, 9, 44, 47
14, 4364, Note_off_c, 9, 44, 0
14, 4404, Note_on_c, 9, 44, 54
14, 4444, Note_off_c, 9, 44, 0
14, 4500, Note_on_c, 9, 44, 62
14, 4552, Note_off_c, 9, 44, 0
14, 4596, Note_on_c, 9, 44, 85
14, 4668, Note_off_c, 9, 44, 0
14, 4692, Note_on_c, 9, 44, 44
14, 4748, Note_off_c, 9, 44, 0
14, 4788, Note_on_c, 9, 44, 54
14, 4828, Note_off_c, 9, 44, 0
14, 4884, Note_on_c, 9, 44, 54
14, 4928, Note_off_c, 9, 44, 0
14, 4980, Note_on_c, 9, 44, 80
14, 5048, Note_off_c, 9, 44, 0
14, 5076, Note_on_c, 9, 44, 58
14, 5128, Note_off_c, 9, 44, 0
14, 5172, Note_on_c, 9, 44, 62
14, 5220, Note_off_c, 9, 44, 0
14, 5268, Note_on_c, 9, 44, 32
14, 5308, Note_off_c, 9, 44, 0
14, 5364, Note_on_c, 9, 44, 66
14, 5428, Note_off_c, 9, 44, 0
14, 5460, Note_on_c, 9, 44, 50
14, 5512, Note_off_c, 9, 44, 0
14, 5556, Note_on_c, 9, 44, 40
14, 5596, Note_off_c, 9, 44, 0
14, 5652, Note_on_c, 9, 44, 40
14, 5688, Note_off_c, 9, 44, 0
14, 5748, Note_on_c, 9, 44, 75
14, 5816, Note_off_c, 9, 44, 0
14, 5844, Note_on_c, 9, 44, 44
14, 5892, Note_off_c, 9, 44, 0
14, 5940, Note_on_c, 9, 44, 47
14, 5980, Note_off_c, 9, 44, 0
14, 6036, Note_on_c, 9, 44, 54
14, 6076, Note_off_c, 9, 44, 0
14, 6132, Note_on_c, 9, 44, 75
14, 6188, Note_off_c, 9, 44, 0
14, 6228, Note_on_c, 9, 44, 47
14, 6268, Note_off_c, 9, 44, 0
14, 6324, Note_on_c, 9, 44, 40
14, 6364, Note_off_c, 9, 44, 0
14, 6420, Note_on_c, 9, 44, 50
14, 6460, Note_off_c, 9, 44, 0
14, 6516, Note_on_c, 9, 44, 62
14, 6580, Note_off_c, 9, 44, 0
14, 6612, Note_on_c, 9, 44, 50
14, 6660, Note_off_c, 9, 44, 0
14, 6708, Note_on_c, 9, 44, 54
14, 6764, Note_off_c, 9, 44, 0
14, 6804, Note_on_c, 9, 44, 47
14, 6848, Note_off_c, 9, 44, 0
14, 6900, Note_on_c, 9, 44, 62
14, 6956, Note_off_c, 9, 44, 0
14, 6996, Note_on_c, 9, 44, 58
14, 7052, Note_off_c, 9, 44, 0
14, 7092, Note_on_c, 9, 44, 47
14, 7132, Note_off_c, 9, 44, 0
14, 7188, Note_on_c, 9, 44, 50
14, 7240, Note_off_c, 9, 44, 0
14, 7284, Note_on_c, 9, 44, 66
14, 7352, Note_off_c, 9, 44, 0
14, 7380, Note_on_c, 9, 44, 62
14, 7436, Note_off_c, 9, 44, 0
14, 7476, Note_on_c, 9, 44, 54
14, 7524, Note_off_c, 9, 44, 0
14, 7572, Note_on_c, 9, 44, 50
14, 7620, Note_off_c, 9, 44, 0
14, 7672, Note_on_c, 9, 44, 80
14, 7728, Note_off_c, 9, 44, 0
14, 7764, Note_on_c, 9, 44, 47
14, 7816, Note_off_c, 9, 44, 0
14, 7860, Note_on_c, 9, 44, 50
14, 7908, Note_off_c, 9, 44, 0
14, 7960, Note_on_c, 9, 44, 54
14, 8004, Note_off_c, 9, 44, 0
14, 8052, Note_on_c, 9, 44, 54
14, 8116, Note_off_c, 9, 44, 0
14, 8152, Note_on_c, 9, 44, 50
14, 8196, Note_off_c, 9, 44, 0
14, 8244, Note_on_c, 9, 44, 47
14, 8292, Note_off_c, 9, 44, 0
14, 8348, Note_on_c, 9, 44, 54
14, 8392, Note_off_c, 9, 44, 0
14, 8436, Note_on_c, 9, 44, 62
14, 8504, Note_off_c, 9, 44, 0
14, 8532, Note_on_c, 9, 44, 58
14, 8588, Note_off_c, 9, 44, 0
14, 8632, Note_on_c, 9, 44, 50
14, 8672, Note_off_c, 9, 44, 0
14, 8724, Note_on_c, 9, 44, 66
14, 8772, Note_off_c, 9, 44, 0
14, 8824, Note_on_c, 9, 44, 75
14, 8892, Note_off_c, 9, 44, 0
14, 8916, Note_on_c, 9, 44, 44
14, 8980, Note_off_c, 9, 44, 0
14, 9012, Note_on_c, 9, 44, 50
14, 9064, Note_off_c, 9, 44, 0
14, 9108, Note_on_c, 9, 44, 47
14, 9164, Note_off_c, 9, 44, 0
14, 9204, Note_on_c, 9, 44, 62
14, 9268, Note_off_c, 9, 44, 0
14, 9300, Note_on_c, 9, 44, 50
14, 9360, Note_off_c, 9, 44, 0
14, 9396, Note_on_c, 9, 44, 58
14, 9448, Note_off_c, 9, 44, 0
14, 9492, Note_on_c, 9, 44, 54
14, 9540, Note_off_c, 9, 44, 0
14, 9588, Note_on_c, 9, 44, 75
14, 9660, Note_off_c, 9, 44, 0
14, 9684, Note_on_c, 9, 44, 47
14, 9736, Note_off_c, 9, 44, 0
14, 9784, Note_on_c, 9, 44, 54
14, 9828, Note_off_c, 9, 44, 0
14, 9876, Note_on_c, 9, 44, 47
14, 9928, Note_off_c, 9, 44, 0
14, 9972, Note_on_c, 9, 44, 62
14, 10040, Note_off_c, 9, 44, 0
14, 10068, Note_on_c, 9, 44, 40
14, 10128, Note_off_c, 9, 44, 0
14, 10164, Note_on_c, 9, 44, 54
14, 10220, Note_off_c, 9, 44, 0
14, 10260, Note_on_c, 9, 44, 47
14, 10308, Note_off_c, 9, 44, 0
14, 10360, Note_on_c, 9, 44, 62
14, 10424, Note_off_c, 9, 44, 0
14, 10452, Note_on_c, 9, 44, 54
14, 10516, Note_off_c, 9, 44, 0
14, 10548, Note_on_c, 9, 44, 58
14, 10612, Note_off_c, 9, 44, 0
14, 10644, Note_on_c, 9, 44, 40
14, 10700, Note_off_c, 9, 44, 0
14, 10744, Note_on_c, 9, 44, 62
14, 10812, Note_off_c, 9, 44, 0
14, 10836, Note_on_c, 9, 44, 66
14, 10900, Note_off_c, 9, 44, 0
14, 10932, Note_on_c, 9, 44, 54
14, 10988, Note_off_c, 9, 44, 0
14, 11028, Note_on_c, 9, 44, 54
14, 11084, Note_off_c, 9, 44, 0
14, 11124, Note_on_c, 9, 44, 75
14, 11196, Note_off_c, 9, 44, 0
14, 11224, Note_on_c, 9, 44, 54
14, 11276, Note_off_c, 9, 44, 0
14, 11316, Note_on_c, 9, 44, 35
14, 11368, Note_off_c, 9, 44, 0
14, 11412, Note_on_c, 9, 44, 47
14, 11464, Note_off_c, 9, 44, 0
14, 11512, Note_on_c, 9, 44, 70
14, 11576, Note_off_c, 9, 44, 0
14, 11604, Note_on_c, 9, 44, 50
14, 11664, Note_off_c, 9, 44, 0
14, 11704, Note_on_c, 9, 44, 58
14, 11748, Note_off_c, 9, 44, 0
14, 11796, Note_on_c, 9, 44, 50
14, 11848, Note_off_c, 9, 44, 0
14, 11892, Note_on_c, 9, 44, 80
14, 11956, Note_off_c, 9, 44, 0
14, 11988, Note_on_c, 9, 44, 54
14, 12044, Note_off_c, 9, 44, 0
14, 12084, Note_on_c, 9, 44, 54
14, 12140, Note_off_c, 9, 44, 0
14, 12180, Note_on_c, 9, 44, 37
14, 12232, Note_off_c, 9, 44, 0
14, 12276, Note_on_c, 9, 44, 62
14, 12348, Note_off_c, 9, 44, 0
14, 12380, Note_on_c, 9, 44, 62
14, 12436, Note_off_c, 9, 44, 0
14, 12468, Note_on_c, 9, 44, 58
14, 12512, Note_off_c, 9, 44, 0
14, 12564, Note_on_c, 9, 44, 29
14, 12612, Note_off_c, 9, 44, 0
14, 12660, Note_on_c, 9, 44, 62
14, 12716, Note_off_c, 9, 44, 0
14, 12756, Note_on_c, 9, 44, 40
14, 12808, Note_off_c, 9, 44, 0
14, 12852, Note_on_c, 9, 44, 50
14, 12900, Note_off_c, 9, 44, 0
14, 12948, Note_on_c, 9, 44, 37
14, 13000, Note_off_c, 9, 44, 0
14, 13052, Note_on_c, 9, 44, 62
14, 13096, Note_off_c, 9, 44, 0
14, 13140, Note_on_c, 9, 44, 37
14, 13188, Note_off_c, 9, 44, 0
14, 13236, Note_on_c, 9, 44, 50
14, 13276, Note_off_c, 9, 44, 0
14, 13332, Note_on_c, 9, 44, 32
14, 13368, Note_off_c, 9, 44, 0
14, 13428, Note_on_c, 9, 44, 80
14, 13484, Note_off_c, 9, 44, 0
14, 13524, Note_on_c, 9, 44, 62
14, 13580, Note_off_c, 9, 44, 0
14, 13620, Note_on_c, 9, 44, 54
14, 13668, Note_off_c, 9, 44, 0
14, 13716, Note_on_c, 9, 44, 29
14, 13752, Note_off_c, 9, 44, 0
14, 13816, Note_on_c, 9, 44, 54
14, 13864, Note_off_c, 9, 44, 0
14, 13908, Note_on_c, 9, 44, 58
14, 13964, Note_off_c, 9, 44, 0
14, 14004, Note_on_c, 9, 44, 62
14, 14052, Note_off_c, 9, 44, 0
14, 14100, Note_on_c, 9, 44, 62
14, 14144, Note_off_c, 9, 44, 0
14, 14196, Note_on_c, 9, 44, 80
14, 14252, Note_off_c, 9, 44, 0
14, 14292, Note_on_c, 9, 44, 44
14, 14332, Note_off_c, 9, 44, 0
14, 14388, Note_on_c, 9, 44, 58
14, 14428, Note_off_c, 9, 44, 0
14, 14492, Note_on_c, 9, 44, 47
14, 14528, Note_off_c, 9, 44, 0
14, 14580, Note_on_c, 9, 44, 66
14, 14632, Note_off_c, 9, 44, 0
14, 14676, Note_on_c, 9, 44, 50
14, 14732, Note_off_c, 9, 44, 0
14, 14776, Note_on_c, 9, 44, 54
14, 14824, Note_off_c, 9, 44, 0
14, 14868, Note_on_c, 9, 44, 40
14, 14916, Note_off_c, 9, 44, 0
14, 14964, Note_on_c, 9, 44, 58
14, 15032, Note_off_c, 9, 44, 0
14, 15060, Note_on_c, 9, 44, 47
14, 15112, Note_off_c, 9, 44, 0
14, 15156, Note_on_c, 9, 44, 58
14, 15200, Note_off_c, 9, 44, 0
14, 15252, Note_on_c, 9, 44, 47
14, 15300, Note_off_c, 9, 44, 0
14, 15348, Note_on_c, 9, 44, 62
14, 15416, Note_off_c, 9, 44, 0
14, 15444, Note_on_c, 9, 44, 37
14, 15508, Note_off_c, 9, 44, 0
14, 15540, Note_on_c, 9, 44, 62
14, 15592, Note_off_c, 9, 44, 0
14, 15636, Note_on_c, 9, 44, 44
14, 15680, Note_off_c, 9, 44, 0
14, 15732, Note_on_c, 9, 44, 62
14, 15800, Note_off_c, 9, 44, 0
14, 15828, Note_on_c, 9, 44, 54
14, 15900, Note_off_c, 9, 44, 0
14, 15928, Note_on_c, 9, 44, 62
14, 15980, Note_off_c, 9, 44, 0
14, 16020, Note_on_c, 9, 44, 44
14, 16076, Note_off_c, 9, 44, 0
14, 16116, Note_on_c, 9, 44, 66
14, 16188, Note_off_c, 9, 44, 0
14, 16212, Note_on_c, 9, 44, 62
14, 16268, Note_off_c, 9, 44, 0
14, 16312, Note_on_c, 9, 44, 62
14, 16364, Note_off_c, 9, 44, 0
14, 16404, Note_on_c, 9, 44, 44
14, 16452, Note_off_c, 9, 44, 0
14, 16500, Note_on_c, 9, 44, 66
14, 16572, Note_off_c, 9, 44, 0
14, 16596, Note_on_c, 9, 44, 50
14, 16652, Note_off_c, 9, 44, 0
14, 16692, Note_on_c, 9, 44, 54
14, 16744, Note_off_c, 9, 44, 0
14, 16788, Note_on_c, 9, 44, 50
14, 16844, Note_off_c, 9, 44, 0
14, 16884, Note_on_c, 9, 44, 66
14, 16944, Note_off_c, 9, 44, 0
14, 16980, Note_on_c, 9, 44, 35
14, 17032, Note_off_c, 9, 44, 0
14, 17076, Note_on_c, 9, 44, 54
14, 17128, Note_off_c, 9, 44, 0
14, 17180, Note_on_c, 9, 44, 47
14, 17228, Note_off_c, 9, 44, 0
14, 17268, Note_on_c, 9, 44, 66
14, 17340, Note_off_c, 9, 44, 0
14, 17368, Note_on_c, 9, 44, 58
14, 17428, Note_off_c, 9, 44, 0
14, 17456, Note_on_c, 9, 44, 43
14, 17496, Note_off_c, 9, 44, 0
14, 17556, Note_on_c, 9, 44, 54
14, 17604, Note_off_c, 9, 44, 0
14, 17656, Note_on_c, 9, 44, 62
14, 17716, Note_off_c, 9, 44, 0
14, 17748, Note_on_c, 9, 44, 44
14, 17800, Note_off_c, 9, 44, 0
14, 17848, Note_on_c, 9, 44, 54
14, 17892, Note_off_c, 9, 44, 0
14, 17940, Note_on_c, 9, 44, 50
14, 17992, Note_off_c, 9, 44, 0
14, 18036, Note_on_c, 9, 44, 62
14, 18108, Note_off_c, 9, 44, 0
14, 18132, Note_on_c, 9, 44, 62
14, 18188, Note_off_c, 9, 44, 0
14, 18228, Note_on_c, 9, 44, 58
14, 18272, Note_off_c, 9, 44, 0
14, 18324, Note_on_c, 9, 44, 54
14, 18380, Note_off_c, 9, 44, 0
14, 18420, Note_on_c, 9, 44, 70
14, 18488, Note_off_c, 9, 44, 0
14, 18516, Note_on_c, 9, 44, 44
14, 18564, Note_off_c, 9, 44, 0
14, 18612, Note_on_c, 9, 44, 50
14, 18652, Note_off_c, 9, 44, 0
14, 18708, Note_on_c, 9, 44, 47
14, 18756, Note_off_c, 9, 44, 0
14, 18812, Note_on_c, 9, 44, 75
14, 18872, Note_off_c, 9, 44, 0
14, 18900, Note_on_c, 9, 44, 47
14, 18956, Note_off_c, 9, 44, 0
14, 18996, Note_on_c, 9, 44, 58
14, 19052, Note_off_c, 9, 44, 0
14, 19092, Note_on_c, 9, 44, 44
14, 19140, Note_off_c, 9, 44, 0
14, 19188, Note_on_c, 9, 44, 62
14, 19252, Note_off_c, 9, 44, 0
14, 19284, Note_on_c, 9, 44, 44
14, 19344, Note_off_c, 9, 44, 0
14, 19380, Note_on_c, 9, 44, 54
14, 19436, Note_off_c, 9, 44, 0
14, 19476, Note_on_c, 9, 44, 44
14, 19524, Note_off_c, 9, 44, 0
14, 19572, Note_on_c, 9, 44, 62
14, 19644, Note_off_c, 9, 44, 0
14, 19668, Note_on_c, 9, 44, 40
14, 19716, Note_off_c, 9, 44, 0
14, 19764, Note_on_c, 9, 44, 54
14, 19820, Note_off_c, 9, 44, 0
14, 19860, Note_on_c, 9, 44, 47
14, 19912, Note_off_c, 9, 44, 0
14, 19956, Note_on_c, 9, 44, 58
14, 20020, Note_off_c, 9, 44, 0
14, 20052, Note_on_c, 9, 44, 37
14, 20108, Note_off_c, 9, 44, 0
14, 20148, Note_on_c, 9, 44, 66
14, 20196, Note_off_c, 9, 44, 0
14, 20244, Note_on_c, 9, 44, 50
14, 20300, Note_off_c, 9, 44, 0
14, 20340, Note_on_c, 9, 44, 66
14, 20412, Note_off_c, 9, 44, 0
14, 20436, Note_on_c, 9, 44, 50
14, 20484, Note_off_c, 9, 44, 0
14, 20532, Note_on_c, 9, 44, 62
14, 20588, Note_off_c, 9, 44, 0
14, 20624, Note_on_c, 9, 44, 47
14, 20684, Note_off_c, 9, 44, 0
14, 20724, Note_on_c, 9, 44, 66
14, 20792, Note_off_c, 9, 44, 0
14, 20820, Note_on_c, 9, 44, 50
14, 20888, Note_off_c, 9, 44, 0
14, 20916, Note_on_c, 9, 44, 62
14, 20972, Note_off_c, 9, 44, 0
14, 21012, Note_on_c, 9, 44, 47
14, 21068, Note_off_c, 9, 44, 0
14, 21108, Note_on_c, 9, 44, 66
14, 21180, Note_off_c, 9, 44, 0
14, 21204, Note_on_c, 9, 44, 47
14, 21252, Note_off_c, 9, 44, 0
14, 21300, Note_on_c, 9, 44, 58
14, 21352, Note_off_c, 9, 44, 0
14, 21396, Note_on_c, 9, 44, 47
14, 21452, Note_off_c, 9, 44, 0
14, 21492, Note_on_c, 9, 44, 66
14, 21548, Note_off_c, 9, 44, 0
14, 21588, Note_on_c, 9, 44, 50
14, 21644, Note_off_c, 9, 44, 0
14, 21684, Note_on_c, 9, 44, 66
14, 21732, Note_off_c, 9, 44, 0
14, 21784, Note_on_c, 9, 44, 50
14, 21832, Note_off_c, 9, 44, 0
14, 21876, Note_on_c, 9, 44, 70
14, 21944, Note_off_c, 9, 44, 0
14, 21972, Note_on_c, 9, 44, 40
14, 22024, Note_off_c, 9, 44, 0
14, 22068, Note_on_c, 9, 44, 62
14, 22124, Note_off_c, 9, 44, 0
14, 22164, Note_on_c, 9, 44, 44
14, 22208, Note_off_c, 9, 44, 0
14, 22260, Note_on_c, 9, 44, 62
14, 22328, Note_off_c, 9, 44, 0
14, 22356, Note_on_c, 9, 44, 54
14, 22412, Note_off_c, 9, 44, 0
14, 22452, Note_on_c, 9, 44, 62
14, 22508, Note_off_c, 9, 44, 0
14, 22548, Note_on_c, 9, 44, 50
14, 22604, Note_off_c, 9, 44, 0
14, 22648, Note_on_c, 9, 44, 62
14, 22716, Note_off_c, 9, 44, 0
14, 22740, Note_on_c, 9, 44, 44
14, 22792, Note_off_c, 9, 44, 0
14, 22836, Note_on_c, 9, 44, 47
14, 22880, Note_off_c, 9, 44, 0
14, 22932, Note_on_c, 9, 44, 44
14, 22980, Note_off_c, 9, 44, 0
14, 23028, Note_on_c, 9, 44, 66
14, 23096, Note_off_c, 9, 44, 0
14, 23124, Note_on_c, 9, 44, 37
14, 23180, Note_off_c, 9, 44, 0
14, 23220, Note_on_c, 9, 44, 50
14, 23268, Note_off_c, 9, 44, 0
14, 23316, Note_on_c, 9, 44, 58
14, 23368, Note_off_c, 9, 44, 0
14, 23412, Note_on_c, 9, 44, 70
14, 23480, Note_off_c, 9, 44, 0
14, 23508, Note_on_c, 9, 44, 47
14, 23564, Note_off_c, 9, 44, 0
14, 23604, Note_on_c, 9, 44, 58
14, 23660, Note_off_c, 9, 44, 0
14, 23700, Note_on_c, 9, 44, 44
14, 23752, Note_off_c, 9, 44, 0
14, 23796, Note_on_c, 9, 44, 58
14, 23864, Note_off_c, 9, 44, 0
14, 23892, Note_on_c, 9, 44, 47
14, 23948, Note_off_c, 9, 44, 0
14, 23988, Note_on_c, 9, 44, 50
14, 24028, Note_off_c, 9, 44, 0
14, 24084, Note_on_c, 9, 44, 47
14, 24136, Note_off_c, 9, 44, 0
14, 24180, Note_on_c, 9, 44, 80
14, 24252, Note_off_c, 9, 44, 0
14, 24276, Note_on_c, 9, 44, 37
14, 24332, Note_off_c, 9, 44, 0
14, 24372, Note_on_c, 9, 44, 50
14, 24420, Note_off_c, 9, 44, 0
14, 24468, Note_on_c, 9, 44, 44
14, 24520, Note_off_c, 9, 44, 0
14, 24564, Note_on_c, 9, 44, 75
14, 24628, Note_off_c, 9, 44, 0
14, 24660, Note_on_c, 9, 44, 54
14, 24716, Note_off_c, 9, 44, 0
14, 24756, Note_on_c, 9, 44, 50
14, 24796, Note_off_c, 9, 44, 0
14, 24852, Note_on_c, 9, 44, 47
14, 24904, Note_off_c, 9, 44, 0
14, 24948, Note_on_c, 9, 44, 75
14, 25016, Note_off_c, 9, 44, 0
14, 25044, Note_on_c, 9, 44, 37
14, 25100, Note_off_c, 9, 44, 0
14, 25140, Note_on_c, 9, 44, 58
14, 25188, Note_off_c, 9, 44, 0
14, 25236, Note_on_c, 9, 44, 44
14, 25292, Note_off_c, 9, 44, 0
14, 25332, Note_on_c, 9, 44, 62
14, 25400, Note_off_c, 9, 44, 0
14, 25428, Note_on_c, 9, 44, 50
14, 25480, Note_off_c, 9, 44, 0
14, 25524, Note_on_c, 9, 44, 54
14, 25572, Note_off_c, 9, 44, 0
14, 25620, Note_on_c, 9, 44, 47
14, 25668, Note_off_c, 9, 44, 0
14, 25716, Note_on_c, 9, 44, 80
14, 25784, Note_off_c, 9, 44, 0
14, 25812, Note_on_c, 9, 44, 50
14, 25872, Note_off_c, 9, 44, 0
14, 25908, Note_on_c, 9, 44, 58
14, 25964, Note_off_c, 9, 44, 0
14, 26004, Note_on_c, 9, 44, 44
14, 26048, Note_off_c, 9, 44, 0
14, 26100, Note_on_c, 9, 44, 62
14, 26164, Note_off_c, 9, 44, 0
14, 26196, Note_on_c, 9, 44, 50
14, 26252, Note_off_c, 9, 44, 0
14, 26292, Note_on_c, 9, 44, 58
14, 26348, Note_off_c, 9, 44, 0
14, 26388, Note_on_c, 9, 44, 50
14, 26444, Note_off_c, 9, 44, 0
14, 26484, Note_on_c, 9, 44, 62
14, 26548, Note_off_c, 9, 44, 0
14, 26580, Note_on_c, 9, 44, 47
14, 26636, Note_off_c, 9, 44, 0
14, 26676, Note_on_c, 9, 44, 62
14, 26732, Note_off_c, 9, 44, 0
14, 26772, Note_on_c, 9, 44, 37
14, 26816, Note_off_c, 9, 44, 0
14, 26868, Note_on_c, 9, 44, 58
14, 26936, Note_off_c, 9, 44, 0
14, 26964, Note_on_c, 9, 44, 47
14, 27028, Note_off_c, 9, 44, 0
14, 27060, Note_on_c, 9, 44, 50
14, 27112, Note_off_c, 9, 44, 0
14, 27156, Note_on_c, 9, 44, 32
14, 27200, Note_off_c, 9, 44, 0
14, 27252, Note_on_c, 9, 44, 58
14, 27324, Note_off_c, 9, 44, 0
14, 27348, Note_on_c, 9, 44, 44
14, 27396, Note_off_c, 9, 44, 0
14, 27444, Note_on_c, 9, 44, 62
14, 27500, Note_off_c, 9, 44, 0
14, 27540, Note_on_c, 9, 44, 47
14, 27588, Note_off_c, 9, 44, 0
14, 27636, Note_on_c, 9, 44, 66
14, 27700, Note_off_c, 9, 44, 0
14, 27732, Note_on_c, 9, 44, 44
14, 27788, Note_off_c, 9, 44, 0
14, 27828, Note_on_c, 9, 44, 62
14, 27868, Note_off_c, 9, 44, 0
14, 27924, Note_on_c, 9, 44, 47
14, 27968, Note_off_c, 9, 44, 0
14, 28020, Note_on_c, 9, 44, 75
14, 28080, Note_off_c, 9, 44, 0
14, 28116, Note_on_c, 9, 44, 25
14, 28164, Note_off_c, 9, 44, 0
14, 28212, Note_on_c, 9, 44, 75
14, 28260, Note_off_c, 9, 44, 0
14, 28308, Note_on_c, 9, 44, 50
14, 28352, Note_off_c, 9, 44, 0
14, 28408, Note_on_c, 9, 44, 80
14, 28468, Note_off_c, 9, 44, 0
14, 28500, Note_on_c, 9, 44, 37
14, 28552, Note_off_c, 9, 44, 0
14, 28596, Note_on_c, 9, 44, 58
14, 28640, Note_off_c, 9, 44, 0
14, 28692, Note_on_c, 9, 44, 47
14, 28748, Note_off_c, 9, 44, 0
14, 28788, Note_on_c, 9, 44, 80
14, 28848, Note_off_c, 9, 44, 0
14, 28884, Note_on_c, 9, 44, 44
14, 28940, Note_off_c, 9, 44, 0
14, 28980, Note_on_c, 9, 44, 62
14, 29024, Note_off_c, 9, 44, 0
14, 29076, Note_on_c, 9, 44, 37
14, 29132, Note_off_c, 9, 44, 0
14, 29172, Note_on_c, 9, 44, 80
14, 29228, Note_off_c, 9, 44, 0
14, 29268, Note_on_c, 9, 44, 58
14, 29340, Note_off_c, 9, 44, 0
14, 29364, Note_on_c, 9, 44, 58
14, 29412, Note_off_c, 9, 44, 0
14, 29464, Note_on_c, 9, 44, 35
14, 29516, Note_off_c, 9, 44, 0
14, 29556, Note_on_c, 9, 44, 80
14, 29624, Note_off_c, 9, 44, 0
14, 29652, Note_on_c, 9, 44, 47
14, 29716, Note_off_c, 9, 44, 0
14, 29748, Note_on_c, 9, 44, 58
14, 29796, Note_off_c, 9, 44, 0
14, 29844, Note_on_c, 9, 44, 50
14, 29908, Note_off_c, 9, 44, 0
14, 29940, Note_on_c, 9, 44, 66
14, 30004, Note_off_c, 9, 44, 0
14, 30036, Note_on_c, 9, 44, 35
14, 30088, Note_off_c, 9, 44, 0
14, 30132, Note_on_c, 9, 44, 58
14, 30180, Note_off_c, 9, 44, 0
14, 30228, Note_on_c, 9, 44, 37
14, 30272, Note_off_c, 9, 44, 0
14, 30324, Note_on_c, 9, 44, 66
14, 30392, Note_off_c, 9, 44, 0
14, 30420, Note_on_c, 9, 44, 47
14, 30472, Note_off_c, 9, 44, 0
14, 30516, Note_on_c, 9, 44, 58
14, 30568, Note_off_c, 9, 44, 0
14, 30612, Note_on_c, 9, 44, 47
14, 30672, Note_off_c, 9, 44, 0
14, 30708, Note_on_c, 9, 44, 58
14, 30780, Note_off_c, 9, 44, 0
14, 30804, Note_on_c, 9, 44, 50
14, 30856, Note_off_c, 9, 44, 0
14, 30900, Note_on_c, 9, 44, 62
14, 30952, Note_off_c, 9, 44, 0
14, 30996, Note_on_c, 9, 44, 47
14, 31052, Note_off_c, 9, 44, 0
14, 31092, Note_on_c, 9, 44, 80
14, 31156, Note_off_c, 9, 44, 0
14, 31188, Note_on_c, 9, 44, 40
14, 31244, Note_off_c, 9, 44, 0
14, 31284, Note_on_c, 9, 44, 58
14, 31336, Note_off_c, 9, 44, 0
14, 31380, Note_on_c, 9, 44, 47
14, 31436, Note_off_c, 9, 44, 0
14, 31476, Note_on_c, 9, 44, 66
14, 31548, Note_off_c, 9, 44, 0
14, 31572, Note_on_c, 9, 44, 50
14, 31640, Note_off_c, 9, 44, 0
14, 31668, Note_on_c, 9, 44, 50
14, 31716, Note_off_c, 9, 44, 0
14, 31764, Note_on_c, 9, 44, 47
14, 31816, Note_off_c, 9, 44, 0
14, 31860, Note_on_c, 9, 44, 70
14, 31932, Note_off_c, 9, 44, 0
14, 31956, Note_on_c, 9, 44, 37
14, 32012, Note_off_c, 9, 44, 0
14, 32052, Note_on_c, 9, 44, 58
14, 32100, Note_off_c, 9, 44, 0
14, 32148, Note_on_c, 9, 44, 40
14, 32212, Note_off_c, 9, 44, 0
14, 32244, Note_on_c, 9, 44, 62
14, 32312, Note_off_c, 9, 44, 0
14, 32340, Note_on_c, 9, 44, 47
14, 32412, Note_off_c, 9, 44, 0
14, 32436, Note_on_c, 9, 44, 62
14, 32488, Note_off_c, 9, 44, 0
14, 32532, Note_on_c, 9, 44, 44
14, 32588, Note_off_c, 9, 44, 0
14, 32628, Note_on_c, 9, 44, 75
14, 32700, Note_off_c, 9, 44, 0
14, 32724, Note_on_c, 9, 44, 47
14, 32772, Note_off_c, 9, 44, 0
14, 32820, Note_on_c, 9, 44, 54
14, 32876, Note_off_c, 9, 44, 0
14, 32920, Note_on_c, 9, 44, 58
14, 32980, Note_off_c, 9, 44, 0
14, 33012, Note_on_c, 9, 44, 62
14, 33080, Note_off_c, 9, 44, 0
14, 33104, Note_on_c, 9, 44, 29
14, 33160, Note_off_c, 9, 44, 0
14, 33204, Note_on_c, 9, 44, 54
14, 33252, Note_off_c, 9, 44, 0
14, 33300, Note_on_c, 9, 44, 54
14, 33356, Note_off_c, 9, 44, 0
14, 33396, Note_on_c, 9, 44, 70
14, 33464, Note_off_c, 9, 44, 0
14, 33492, Note_on_c, 9, 44, 54
14, 33556, Note_off_c, 9, 44, 0
14, 33588, Note_on_c, 9, 44, 58
14, 33644, Note_off_c, 9, 44, 0
14, 33684, Note_on_c, 9, 44, 40
14, 33736, Note_off_c, 9, 44, 0
14, 33780, Note_on_c, 9, 44, 70
14, 33840, Note_off_c, 9, 44, 0
14, 33876, Note_on_c, 9, 44, 40
14, 33940, Note_off_c, 9, 44, 0
14, 33972, Note_on_c, 9, 44, 62
14, 34020, Note_off_c, 9, 44, 0
14, 34068, Note_on_c, 9, 44, 50
14, 34132, Note_off_c, 9, 44, 0
14, 34164, Note_on_c, 9, 44, 66
14, 34236, Note_off_c, 9, 44, 0
14, 34260, Note_on_c, 9, 44, 44
14, 34324, Note_off_c, 9, 44, 0
14, 34356, Note_on_c, 9, 44, 54
14, 34408, Note_off_c, 9, 44, 0
14, 34452, Note_on_c, 9, 44, 44
14, 34504, Note_off_c, 9, 44, 0
14, 34548, Note_on_c, 9, 44, 62
14, 34616, Note_off_c, 9, 44, 0
14, 34644, Note_on_c, 9, 44, 47
14, 34704, Note_off_c, 9, 44, 0
14, 34740, Note_on_c, 9, 44, 58
14, 34796, Note_off_c, 9, 44, 0
14, 34836, Note_on_c, 9, 44, 44
14, 34892, Note_off_c, 9, 44, 0
14, 34932, Note_on_c, 9, 44, 66
14, 34996, Note_off_c, 9, 44, 0
14, 35028, Note_on_c, 9, 44, 47
14, 35084, Note_off_c, 9, 44, 0
14, 35124, Note_on_c, 9, 44, 62
14, 35180, Note_off_c, 9, 44, 0
14, 35220, Note_on_c, 9, 44, 37
14, 35276, Note_off_c, 9, 44, 0
14, 35316, Note_on_c, 9, 44, 70
14, 35380, Note_off_c, 9, 44, 0
14, 35412, Note_on_c, 9, 44, 35
14, 35468, Note_off_c, 9, 44, 0
14, 35508, Note_on_c, 9, 44, 58
14, 35552, Note_off_c, 9, 44, 0
14, 35604, Note_on_c, 9, 44, 37
14, 35660, Note_off_c, 9, 44, 0
14, 35700, Note_on_c, 9, 44, 66
14, 35768, Note_off_c, 9, 44, 0
14, 35796, Note_on_c, 9, 44, 40
14, 35852, Note_off_c, 9, 44, 0
14, 35892, Note_on_c, 9, 44, 62
14, 35948, Note_off_c, 9, 44, 0
14, 35988, Note_on_c, 9, 44, 37
14, 36044, Note_off_c, 9, 44, 0
14, 36084, Note_on_c, 9, 44, 58
14, 36152, Note_off_c, 9, 44, 0
14, 36180, Note_on_c, 9, 44, 47
14, 36244, Note_off_c, 9, 44, 0
14, 36276, Note_on_c, 9, 44, 40
14, 36316, Note_off_c, 9, 44, 0
14, 36376, Note_on_c, 9, 44, 50
14, 36428, Note_off_c, 9, 44, 0
14, 36472, Note_on_c, 9, 44, 66
14, 36536, Note_off_c, 9, 44, 0
14, 36564, Note_on_c, 9, 44, 44
14, 36616, Note_off_c, 9, 44, 0
14, 36660, Note_on_c, 9, 44, 50
14, 36708, Note_off_c, 9, 44, 0
14, 36756, Note_on_c, 9, 44, 47
14, 36812, Note_off_c, 9, 44, 0
14, 36852, Note_on_c, 9, 44, 62
14, 36924, Note_off_c, 9, 44, 0
14, 36948, Note_on_c, 9, 44, 35
14, 37004, Note_off_c, 9, 44, 0
14, 37044, Note_on_c, 9, 44, 54
14, 37092, Note_off_c, 9, 44, 0
14, 37144, Note_on_c, 9, 44, 37
14, 37188, Note_off_c, 9, 44, 0
14, 37236, Note_on_c, 9, 44, 66
14, 37292, Note_off_c, 9, 44, 0
14, 37332, Note_on_c, 9, 44, 58
14, 37388, Note_off_c, 9, 44, 0
14, 37428, Note_on_c, 9, 44, 62
14, 37484, Note_off_c, 9, 44, 0
14, 37524, Note_on_c, 9, 44, 47
14, 37576, Note_off_c, 9, 44, 0
14, 37620, Note_on_c, 9, 44, 58
14, 37680, Note_off_c, 9, 44, 0
14, 37716, Note_on_c, 9, 44, 40
14, 37780, Note_off_c, 9, 44, 0
14, 37812, Note_on_c, 9, 44, 58
14, 37864, Note_off_c, 9, 44, 0
14, 37908, Note_on_c, 9, 44, 47
14, 37964, Note_off_c, 9, 44, 0
14, 38004, Note_on_c, 9, 44, 62
14, 38068, Note_off_c, 9, 44, 0
14, 38100, Note_on_c, 9, 44, 50
14, 38152, Note_off_c, 9, 44, 0
14, 38196, Note_on_c, 9, 44, 50
14, 38240, Note_off_c, 9, 44, 0
14, 38292, Note_on_c, 9, 44, 40
14, 38344, Note_off_c, 9, 44, 0
14, 38388, Note_on_c, 9, 44, 62
14, 38440, Note_off_c, 9, 44, 0
14, 38484, Note_on_c, 9, 44, 58
14, 38548, Note_off_c, 9, 44, 0
14, 38580, Note_on_c, 9, 44, 66
14, 38636, Note_off_c, 9, 44, 0
14, 38676, Note_on_c, 9, 44, 58
14, 38732, Note_off_c, 9, 44, 0
14, 38772, Note_on_c, 9, 44, 70
14, 38836, Note_off_c, 9, 44, 0
14, 38868, Note_on_c, 9, 44, 40
14, 38920, Note_off_c, 9, 44, 0
14, 38964, Note_on_c, 9, 44, 58
14, 39020, Note_off_c, 9, 44, 0
14, 39060, Note_on_c, 9, 44, 50
14, 39124, Note_off_c, 9, 44, 0
14, 39160, Note_on_c, 9, 44, 58
14, 39224, Note_off_c, 9, 44, 0
14, 39252, Note_on_c, 9, 44, 58
14, 39320, Note_off_c, 9, 44, 0
14, 39348, Note_on_c, 9, 44, 62
14, 39404, Note_off_c, 9, 44, 0
14, 39444, Note_on_c, 9, 44, 54
14, 39500, Note_off_c, 9, 44, 0
14, 39540, Note_on_c, 9, 44, 66
14, 39608, Note_off_c, 9, 44, 0
14, 39636, Note_on_c, 9, 44, 47
14, 39692, Note_off_c, 9, 44, 0
14, 39732, Note_on_c, 9, 44, 54
14, 39788, Note_off_c, 9, 44, 0
14, 39828, Note_on_c, 9, 44, 50
14, 39892, Note_off_c, 9, 44, 0
14, 39924, Note_on_c, 9, 44, 62
14, 39984, Note_off_c, 9, 44, 0
14, 40020, Note_on_c, 9, 44, 47
14, 40076, Note_off_c, 9, 44, 0
14, 40116, Note_on_c, 9, 44, 62
14, 40172, Note_off_c, 9, 44, 0
14, 40212, Note_on_c, 9, 44, 50
14, 40280, Note_off_c, 9, 44, 0
14, 40308, Note_on_c, 9, 44, 66
14, 40372, Note_off_c, 9, 44, 0
14, 40404, Note_on_c, 9, 44, 47
14, 40464, Note_off_c, 9, 44, 0
14, 40500, Note_on_c, 9, 44, 62
14, 40556, Note_off_c, 9, 44, 0
14, 40596, Note_on_c, 9, 44, 54
14, 40668, Note_off_c, 9, 44, 0
14, 40692, Note_on_c, 9, 44, 58
14, 40760, Note_off_c, 9, 44, 0
14, 40788, Note_on_c, 9, 44, 37
14, 40844, Note_off_c, 9, 44, 0
14, 40884, Note_on_c, 9, 44, 47
14, 40936, Note_off_c, 9, 44, 0
14, 40980, Note_on_c, 9, 44, 44
14, 41040, Note_off_c, 9, 44, 0
14, 41076, Note_on_c, 9, 44, 66
14, 41140, Note_off_c, 9, 44, 0
14, 41172, Note_on_c, 9, 44, 54
14, 41236, Note_off_c, 9, 44, 0
14, 41268, Note_on_c, 9, 44, 62
14, 41324, Note_off_c, 9, 44, 0
14, 41364, Note_on_c, 9, 44, 47
14, 41420, Note_off_c, 9, 44, 0
14, 41464, Note_on_c, 9, 44, 66
14, 41528, Note_off_c, 9, 44, 0
14, 41556, Note_on_c, 9, 44, 54
14, 41628, Note_off_c, 9, 44, 0
14, 41652, Note_on_c, 9, 44, 50
14, 41708, Note_off_c, 9, 44, 0
14, 41748, Note_on_c, 9, 44, 40
14, 41804, Note_off_c, 9, 44, 0
14, 41844, Note_on_c, 9, 44, 66
14, 41908, Note_off_c, 9, 44, 0
14, 41940, Note_on_c, 9, 44, 54
14, 42012, Note_off_c, 9, 44, 0
14, 42036, Note_on_c, 9, 44, 62
14, 42092, Note_off_c, 9, 44, 0
14, 42132, Note_on_c, 9, 44, 47
14, 42196, Note_off_c, 9, 44, 0
14, 42228, Note_on_c, 9, 44, 66
14, 42300, Note_off_c, 9, 44, 0
14, 42324, Note_on_c, 9, 44, 54
14, 42396, Note_off_c, 9, 44, 0
14, 42420, Note_on_c, 9, 44, 62
14, 42476, Note_off_c, 9, 44, 0
14, 42520, Note_on_c, 9, 44, 35
14, 42564, Note_off_c, 9, 44, 0
14, 42612, Note_on_c, 9, 44, 75
14, 42672, Note_off_c, 9, 44, 0
14, 42708, Note_on_c, 9, 44, 54
14, 42776, Note_off_c, 9, 44, 0
14, 42804, Note_on_c, 9, 44, 66
14, 42868, Note_off_c, 9, 44, 0
14, 42900, Note_on_c, 9, 44, 40
14, 42956, Note_off_c, 9, 44, 0
14, 43004, Note_on_c, 9, 44, 66
14, 43064, Note_off_c, 9, 44, 0
14, 43092, Note_on_c, 9, 44, 47
14, 43160, Note_off_c, 9, 44, 0
14, 43188, Note_on_c, 9, 44, 58
14, 43244, Note_off_c, 9, 44, 0
14, 43284, Note_on_c, 9, 44, 50
14, 43348, Note_off_c, 9, 44, 0
14, 43380, Note_on_c, 9, 44, 80
14, 43452, Note_off_c, 9, 44, 0
14, 43476, Note_on_c, 9, 44, 50
14, 43532, Note_off_c, 9, 44, 0
14, 43572, Note_on_c, 9, 44, 62
14, 43620, Note_off_c, 9, 44, 0
14, 43668, Note_on_c, 9, 44, 47
14, 43720, Note_off_c, 9, 44, 0
14, 43764, Note_on_c, 9, 44, 66
14, 43832, Note_off_c, 9, 44, 0
14, 43860, Note_on_c, 9, 44, 44
14, 43924, Note_off_c, 9, 44, 0
14, 43956, Note_on_c, 9, 44, 58
14, 44008, Note_off_c, 9, 44, 0
14, 44052, Note_on_c, 9, 44, 40
14, 44108, Note_off_c, 9, 44, 0
14, 44148, Note_on_c, 9, 44, 80
14, 44212, Note_off_c, 9, 44, 0
14, 44244, Note_on_c, 9, 44, 47
14, 44308, Note_off_c, 9, 44, 0
14, 44340, Note_on_c, 9, 44, 58
14, 44396, Note_off_c, 9, 44, 0
14, 44436, Note_on_c, 9, 44, 54
14, 44492, Note_off_c, 9, 44, 0
14, 44532, Note_on_c, 9, 44, 66
14, 44588, Note_off_c, 9, 44, 0
14, 44628, Note_on_c, 9, 44, 50
14, 44692, Note_off_c, 9, 44, 0
14, 44724, Note_on_c, 9, 44, 62
14, 44772, Note_off_c, 9, 44, 0
14, 44820, Note_on_c, 9, 44, 44
14, 44884, Note_off_c, 9, 44, 0
14, 44916, Note_on_c, 9, 44, 66
14, 44984, Note_off_c, 9, 44, 0
14, 45012, Note_on_c, 9, 44, 62
14, 45076, Note_off_c, 9, 44, 0
14, 45108, Note_on_c, 9, 44, 58
14, 45160, Note_off_c, 9, 44, 0
14, 45204, Note_on_c, 9, 44, 47
14, 45260, Note_off_c, 9, 44, 0
14, 45300, Note_on_c, 9, 44, 70
14, 45368, Note_off_c, 9, 44, 0
14, 45396, Note_on_c, 9, 44, 47
14, 45464, Note_off_c, 9, 44, 0
14, 45492, Note_on_c, 9, 44, 50
14, 45544, Note_off_c, 9, 44, 0
14, 45588, Note_on_c, 9, 44, 50
14, 45644, Note_off_c, 9, 44, 0
14, 45684, Note_on_c, 9, 44, 62
14, 45748, Note_off_c, 9, 44, 0
14, 45780, Note_on_c, 9, 44, 47
14, 45844, Note_off_c, 9, 44, 0
14, 45876, Note_on_c, 9, 44, 54
14, 45932, Note_off_c, 9, 44, 0
14, 45972, Note_on_c, 9, 44, 50
14, 46032, Note_off_c, 9, 44, 0
14, 46068, Note_on_c, 9, 44, 66
14, 46120, Note_off_c, 9, 44, 0
14, 46164, Note_on_c, 9, 44, 50
14, 46220, Note_off_c, 9, 44, 0
14, 46260, Note_on_c, 9, 44, 62
14, 46320, Note_off_c, 9, 44, 0
14, 46356, Note_on_c, 9, 44, 50
14, 46408, Note_off_c, 9, 44, 0
14, 46452, Note_on_c, 9, 44, 62
14, 46516, Note_off_c, 9, 44, 0
14, 46548, Note_on_c, 9, 44, 50
14, 46604, Note_off_c, 9, 44, 0
14, 46644, Note_on_c, 9, 44, 58
14, 46708, Note_off_c, 9, 44, 0
14, 46740, Note_on_c, 9, 44, 47
14, 46800, Note_off_c, 9, 44, 0
14, 46836, Note_on_c, 9, 44, 70
14, 46904, Note_off_c, 9, 44, 0
14, 46932, Note_on_c, 9, 44, 58
14, 46988, Note_off_c, 9, 44, 0
14, 47028, Note_on_c, 9, 44, 58
14, 47076, Note_off_c, 9, 44, 0
14, 47124, Note_on_c, 9, 44, 47
14, 47180, Note_off_c, 9, 44, 0
14, 47220, Note_on_c, 9, 44, 70
14, 47284, Note_off_c, 9, 44, 0
14, 47316, Note_on_c, 9, 44, 50
14, 47372, Note_off_c, 9, 44, 0
14, 47412, Note_on_c, 9, 44, 62
14, 47468, Note_off_c, 9, 44, 0
14, 47508, Note_on_c, 9, 44, 54
14, 47568, Note_off_c, 9, 44, 0
14, 47604, Note_on_c, 9, 44, 66
14, 47660, Note_off_c, 9, 44, 0
14, 47700, Note_on_c, 9, 44, 35
14, 47768, Note_off_c, 9, 44, 0
14, 47796, Note_on_c, 9, 44, 50
14, 47848, Note_off_c, 9, 44, 0
14, 47892, Note_on_c, 9, 44, 47
14, 47948, Note_off_c, 9, 44, 0
14, 47988, Note_on_c, 9, 44, 62
14, 48052, Note_off_c, 9, 44, 0
14, 48084, Note_on_c, 9, 44, 47
14, 48156, Note_off_c, 9, 44, 0
14, 48180, Note_on_c, 9, 44, 54
14, 48236, Note_off_c, 9, 44, 0
14, 48276, Note_on_c, 9, 44, 44
14, 48332, Note_off_c, 9, 44, 0
14, 48372, Note_on_c, 9, 44, 58
14, 48428, Note_off_c, 9, 44, 0
14, 48468, Note_on_c, 9, 44, 44
14, 48520, Note_off_c, 9, 44, 0
14, 48564, Note_on_c, 9, 44, 58
14, 48612, Note_off_c, 9, 44, 0
14, 48660, Note_on_c, 9, 44, 44
14, 48716, Note_off_c, 9, 44, 0
14, 48756, Note_on_c, 9, 44, 62
14, 48808, Note_off_c, 9, 44, 0
14, 48852, Note_on_c, 9, 44, 47
14, 48920, Note_off_c, 9, 44, 0
14, 48948, Note_on_c, 9, 44, 66
14, 48996, Note_off_c, 9, 44, 0
14, 49044, Note_on_c, 9, 44, 40
14, 49096, Note_off_c, 9, 44, 0
14, 49140, Note_on_c, 9, 44, 58
14, 49196, Note_off_c, 9, 44, 0
14, 49236, Note_on_c, 9, 44, 29
14, 49288, Note_off_c, 9, 44, 0
14, 49332, Note_on_c, 9, 44, 62
14, 49388, Note_off_c, 9, 44, 0
14, 49428, Note_on_c, 9, 44, 54
14, 49484, Note_off_c, 9, 44, 0
14, 49524, Note_on_c, 9, 44, 58
14, 49592, Note_off_c, 9, 44, 0
14, 49620, Note_on_c, 9, 44, 35
14, 49672, Note_off_c, 9, 44, 0
14, 49716, Note_on_c, 9, 44, 58
14, 49764, Note_off_c, 9, 44, 0
14, 49812, Note_on_c, 9, 44, 44
14, 49864, Note_off_c, 9, 44, 0
14, 49916, Note_on_c, 9, 44, 62
14, 49976, Note_off_c, 9, 44, 0
14, 50004, Note_on_c, 9, 44, 40
14, 50060, Note_off_c, 9, 44, 0
14, 50100, Note_on_c, 9, 44, 50
14, 50152, Note_off_c, 9, 44, 0
14, 50196, Note_on_c, 9, 44, 32
14, 50248, Note_off_c, 9, 44, 0
14, 50292, Note_on_c, 9, 44, 66
14, 50360, Note_off_c, 9, 44, 0
14, 50388, Note_on_c, 9, 44, 54
14, 50456, Note_off_c, 9, 44, 0
14, 50484, Note_on_c, 9, 44, 58
14, 50536, Note_off_c, 9, 44, 0
14, 50580, Note_on_c, 9, 44, 47
14, 50640, Note_off_c, 9, 44, 0
14, 50676, Note_on_c, 9, 44, 62
14, 50736, Note_off_c, 9, 44, 0
14, 50772, Note_on_c, 9, 44, 40
14, 50832, Note_off_c, 9, 44, 0
14, 50868, Note_on_c, 9, 44, 62
14, 50920, Note_off_c, 9, 44, 0
14, 50964, Note_on_c, 9, 44, 54
14, 51020, Note_off_c, 9, 44, 0
14, 51060, Note_on_c, 9, 44, 62
14, 51116, Note_off_c, 9, 44, 0
14, 51156, Note_on_c, 9, 44, 44
14, 51212, Note_off_c, 9, 44, 0
14, 51252, Note_on_c, 9, 44, 58
14, 51308, Note_off_c, 9, 44, 0
14, 51348, Note_on_c, 9, 44, 47
14, 51412, Note_off_c, 9, 44, 0
14, 51444, Note_on_c, 9, 44, 66
14, 51508, Note_off_c, 9, 44, 0
14, 51540, Note_on_c, 9, 44, 50
14, 51608, Note_off_c, 9, 44, 0
14, 51636, Note_on_c, 9, 44, 66
14, 51692, Note_off_c, 9, 44, 0
14, 51732, Note_on_c, 9, 44, 44
14, 51788, Note_off_c, 9, 44, 0
14, 51828, Note_on_c, 9, 44, 62
14, 51892, Note_off_c, 9, 44, 0
14, 51924, Note_on_c, 9, 44, 50
14, 51988, Note_off_c, 9, 44, 0
14, 52020, Note_on_c, 9, 44, 62
14, 52076, Note_off_c, 9, 44, 0
14, 52116, Note_on_c, 9, 44, 58
14, 52188, Note_off_c, 9, 44, 0
14, 52212, Note_on_c, 9, 44, 58
14, 52280, Note_off_c, 9, 44, 0
14, 52308, Note_on_c, 9, 44, 50
14, 52376, Note_off_c, 9, 44, 0
14, 52404, Note_on_c, 9, 44, 58
14, 52448, Note_off_c, 9, 44, 0
14, 52500, Note_on_c, 9, 44, 44
14, 52572, Note_off_c, 9, 44, 0
14, 52596, Note_on_c, 9, 44, 70
14, 52664, Note_off_c, 9, 44, 0
14, 52692, Note_on_c, 9, 44, 47
14, 52760, Note_off_c, 9, 44, 0
14, 52788, Note_on_c, 9, 44, 54
14, 52836, Note_off_c, 9, 44, 0
14, 52884, Note_on_c, 9, 44, 44
14, 52948, Note_off_c, 9, 44, 0
14, 52980, Note_on_c, 9, 44, 62
14, 53032, Note_off_c, 9, 44, 0
14, 53076, Note_on_c, 9, 44, 47
14, 53140, Note_off_c, 9, 44, 0
14, 53172, Note_on_c, 9, 44, 62
14, 53220, Note_off_c, 9, 44, 0
14, 53268, Note_on_c, 9, 44, 47
14, 53324, Note_off_c, 9, 44, 0
14, 53364, Note_on_c, 9, 44, 66
14, 53428, Note_off_c, 9, 44, 0
14, 53460, Note_on_c, 9, 44, 54
14, 53528, Note_off_c, 9, 44, 0
14, 53556, Note_on_c, 9, 44, 54
14, 53600, Note_off_c, 9, 44, 0
14, 53652, Note_on_c, 9, 44, 58
14, 53724, Note_off_c, 9, 44, 0
14, 53748, Note_on_c, 9, 44, 66
14, 53804, Note_off_c, 9, 44, 0
14, 53844, Note_on_c, 9, 44, 47
14, 53912, Note_off_c, 9, 44, 0
14, 53940, Note_on_c, 9, 44, 58
14, 53988, Note_off_c, 9, 44, 0
14, 54036, Note_on_c, 9, 44, 50
14, 54100, Note_off_c, 9, 44, 0
14, 54132, Note_on_c, 9, 44, 54
14, 54200, Note_off_c, 9, 44, 0
14, 54228, Note_on_c, 9, 44, 58
14, 54300, Note_off_c, 9, 44, 0
14, 54324, Note_on_c, 9, 44, 58
14, 54380, Note_off_c, 9, 44, 0
14, 54420, Note_on_c, 9, 44, 40
14, 54488, Note_off_c, 9, 44, 0
14, 54516, Note_on_c, 9, 44, 62
14, 54568, Note_off_c, 9, 44, 0
14, 54612, Note_on_c, 9, 44, 40
14, 54668, Note_off_c, 9, 44, 0
14, 54708, Note_on_c, 9, 44, 62
14, 54760, Note_off_c, 9, 44, 0
14, 54804, Note_on_c, 9, 44, 62
14, 54860, Note_off_c, 9, 44, 0
14, 54900, Note_on_c, 9, 44, 58
14, 54968, Note_off_c, 9, 44, 0
14, 54996, Note_on_c, 9, 44, 62
14, 55060, Note_off_c, 9, 44, 0
14, 55092, Note_on_c, 9, 44, 62
14, 55148, Note_off_c, 9, 44, 0
14, 55188, Note_on_c, 9, 44, 50
14, 55256, Note_off_c, 9, 44, 0
14, 55284, Note_on_c, 9, 44, 58
14, 55340, Note_off_c, 9, 44, 0
14, 55380, Note_on_c, 9, 44, 47
14, 55448, Note_off_c, 9, 44, 0
14, 55476, Note_on_c, 9, 44, 62
14, 55532, Note_off_c, 9, 44, 0
14, 55572, Note_on_c, 9, 44, 47
14, 55628, Note_off_c, 9, 44, 0
14, 55668, Note_on_c, 9, 44, 62
14, 55732, Note_off_c, 9, 44, 0
14, 55764, Note_on_c, 9, 44, 44
14, 55832, Note_off_c, 9, 44, 0
14, 55860, Note_on_c, 9, 44, 62
14, 55916, Note_off_c, 9, 44, 0
14, 55956, Note_on_c, 9, 44, 47
14, 56024, Note_off_c, 9, 44, 0
14, 56052, Note_on_c, 9, 44, 70
14, 56116, Note_off_c, 9, 44, 0
14, 56148, Note_on_c, 9, 44, 47
14, 56200, Note_off_c, 9, 44, 0
14, 56244, Note_on_c, 9, 44, 58
14, 56300, Note_off_c, 9, 44, 0
14, 56340, Note_on_c, 9, 44, 54
14, 56408, Note_off_c, 9, 44, 0
14, 56436, Note_on_c, 9, 44, 62
14, 56492, Note_off_c, 9, 44, 0
14, 56532, Note_on_c, 9, 44, 47
14, 56600, Note_off_c, 9, 44, 0
14, 56628, Note_on_c, 9, 44, 54
14, 56684, Note_off_c, 9, 44, 0
14, 56724, Note_on_c, 9, 44, 44
14, 56788, Note_off_c, 9, 44, 0
14, 56820, Note_on_c, 9, 44, 66
14, 56884, Note_off_c, 9, 44, 0
14, 56916, Note_on_c, 9, 44, 50
14, 56988, Note_off_c, 9, 44, 0
14, 57012, Note_on_c, 9, 44, 62
14, 57068, Note_off_c, 9, 44, 0
14, 57108, Note_on_c, 9, 44, 44
14, 57176, Note_off_c, 9, 44, 0
14, 57204, Note_on_c, 9, 44, 54
14, 57268, Note_off_c, 9, 44, 0
14, 57300, Note_on_c, 9, 44, 47
14, 57356, Note_off_c, 9, 44, 0
14, 57396, Note_on_c, 9, 44, 62
14, 57460, Note_off_c, 9, 44, 0
14, 57492, Note_on_c, 9, 44, 54
14, 57560, Note_off_c, 9, 44, 0
14, 57588, Note_on_c, 9, 44, 66
14, 57656, Note_off_c, 9, 44, 0
14, 57684, Note_on_c, 9, 44, 50
14, 57752, Note_off_c, 9, 44, 0
14, 57780, Note_on_c, 9, 44, 62
14, 57836, Note_off_c, 9, 44, 0
14, 57876, Note_on_c, 9, 44, 44
14, 57936, Note_off_c, 9, 44, 0
14, 57972, Note_on_c, 9, 44, 58
14, 58028, Note_off_c, 9, 44, 0
14, 58068, Note_on_c, 9, 44, 50
14, 58124, Note_off_c, 9, 44, 0
14, 58164, Note_on_c, 9, 44, 62
14, 58232, Note_off_c, 9, 44, 0
14, 58260, Note_on_c, 9, 44, 54
14, 58320, Note_off_c, 9, 44, 0
14, 58356, Note_on_c, 9, 44, 75
14, 58420, Note_off_c, 9, 44, 0
14, 58452, Note_on_c, 9, 44, 44
14, 58508, Note_off_c, 9, 44, 0
14, 58548, Note_on_c, 9, 44, 62
14, 58600, Note_off_c, 9, 44, 0
14, 58644, Note_on_c, 9, 44, 54
14, 58696, Note_off_c, 9, 44, 0
14, 58740, Note_on_c, 9, 44, 66
14, 58796, Note_off_c, 9, 44, 0
14, 58836, Note_on_c, 9, 44, 47
14, 58900, Note_off_c, 9, 44, 0
14, 58932, Note_on_c, 9, 44, 58
14, 58984, Note_off_c, 9, 44, 0
14, 59028, Note_on_c, 9, 44, 58
14, 59096, Note_off_c, 9, 44, 0
14, 59128, Note_on_c, 9, 44, 66
14, 59196, Note_off_c, 9, 44, 0
14, 59220, Note_on_c, 9, 44, 50
14, 59280, Note_off_c, 9, 44, 0
14, 59316, Note_on_c, 9, 44, 62
14, 59372, Note_off_c, 9, 44, 0
14, 59416, Note_on_c, 9, 44, 62
14, 59480, Note_off_c, 9, 44, 0
14, 59508, Note_on_c, 9, 44, 66
14, 59560, Note_off_c, 9, 44, 0
14, 59600, Note_on_c, 9, 44, 47
14, 59656, Note_off_c, 9, 44, 0
14, 59700, Note_on_c, 9, 44, 58
14, 59756, Note_off_c, 9, 44, 0
14, 59792, Note_on_c, 9, 44, 47
14, 59852, Note_off_c, 9, 44, 0
14, 59892, Note_on_c, 9, 44, 75
14, 59944, Note_off_c, 9, 44, 0
14, 59988, Note_on_c, 9, 44, 58
14, 60040, Note_off_c, 9, 44, 0
14, 60084, Note_on_c, 9, 44, 66
14, 60140, Note_off_c, 9, 44, 0
14, 60180, Note_on_c, 9, 44, 44
14, 60232, Note_off_c, 9, 44, 0
14, 60280, Note_on_c, 9, 44, 62
14, 60340, Note_off_c, 9, 44, 0
14, 60372, Note_on_c, 9, 44, 47
14, 60424, Note_off_c, 9, 44, 0
14, 60468, Note_on_c, 9, 44, 62
14, 60524, Note_off_c, 9, 44, 0
14, 60564, Note_on_c, 9, 44, 58
14, 60616, Note_off_c, 9, 44, 0
14, 60660, Note_on_c, 9, 44, 70
14, 60724, Note_off_c, 9, 44, 0
14, 60756, Note_on_c, 9, 44, 37
14, 60812, Note_off_c, 9, 44, 0
14, 60852, Note_on_c, 9, 44, 58
14, 60904, Note_off_c, 9, 44, 0
14, 60956, Note_on_c, 9, 44, 47
14, 60996, Note_off_c, 9, 44, 0
14, 61044, Note_on_c, 9, 44, 70
14, 61112, Note_off_c, 9, 44, 0
14, 61144, Note_on_c, 9, 44, 58
14, 61196, Note_off_c, 9, 44, 0
14, 61236, Note_on_c, 9, 44, 50
14, 61284, Note_off_c, 9, 44, 0
14, 61332, Note_on_c, 9, 44, 44
14, 61400, Note_off_c, 9, 44, 0
14, 61428, Note_on_c, 9, 44, 75
14, 61484, Note_off_c, 9, 44, 0
14, 61524, Note_on_c, 9, 44, 44
14, 61576, Note_off_c, 9, 44, 0
14, 61632, Note_on_c, 9, 44, 58
14, 61664, Note_off_c, 9, 44, 0
14, 61716, Note_on_c, 9, 44, 62
14, 61768, Note_off_c, 9, 44, 0
14, 61820, Note_on_c, 9, 44, 85
14, 61868, Note_off_c, 9, 44, 0
14, 61908, Note_on_c, 9, 44, 37
14, 61964, Note_off_c, 9, 44, 0
14, 62004, Note_on_c, 9, 44, 62
14, 62056, Note_off_c, 9, 44, 0
14, 62100, Note_on_c, 9, 44, 44
14, 62156, Note_off_c, 9, 44, 0
14, 62196, Note_on_c, 9, 44, 70
14, 62248, Note_off_c, 9, 44, 0
14, 62292, Note_on_c, 9, 44, 37
14, 62344, Note_off_c, 9, 44, 0
14, 62392, Note_on_c, 9, 44, 54
14, 62420, Note_off_c, 9, 44, 0
14, 62484, Note_on_c, 9, 44, 62
14, 62540, Note_off_c, 9, 44, 0
14, 62580, Note_on_c, 9, 44, 75
14, 62632, Note_off_c, 9, 44, 0
14, 62676, Note_on_c, 9, 44, 23
14, 62724, Note_off_c, 9, 44, 0
14, 62772, Note_on_c, 9, 44, 54
14, 62812, Note_off_c, 9, 44, 0
14, 62872, Note_on_c, 9, 44, 62
14, 62920, Note_off_c, 9, 44, 0
14, 62964, Note_on_c, 9, 44, 66
14, 63016, Note_off_c, 9, 44, 0
14, 63064, Note_on_c, 9, 44, 70
14, 63116, Note_off_c, 9, 44, 0
14, 63156, Note_on_c, 9, 44, 54
14, 63204, Note_off_c, 9, 44, 0
14, 63252, Note_on_c, 9, 44, 44
14, 63300, Note_off_c, 9, 44, 0
14, 63348, Note_on_c, 9, 44, 75
14, 63404, Note_off_c, 9, 44, 0
14, 63444, Note_on_c, 9, 44, 44
14, 63500, Note_off_c, 9, 44, 0
14, 63540, Note_on_c, 9, 44, 62
14, 63592, Note_off_c, 9, 44, 0
14, 63636, Note_on_c, 9, 44, 58
14, 63684, Note_off_c, 9, 44, 0
14, 63732, Note_on_c, 9, 44, 80
14, 63784, Note_off_c, 9, 44, 0
14, 63828, Note_on_c, 9, 44, 47
14, 63884, Note_off_c, 9, 44, 0
14, 63924, Note_on_c, 9, 44, 66
14, 63972, Note_off_c, 9, 44, 0
14, 64028, Note_on_c, 9, 44, 50
14, 64068, Note_off_c, 9, 44, 0
14, 64116, Note_on_c, 9, 44, 80
14, 64176, Note_off_c, 9, 44, 0
14, 64212, Note_on_c, 9, 44, 47
14, 64272, Note_off_c, 9, 44, 0
14, 64308, Note_on_c, 9, 44, 62
14, 64356, Note_off_c, 9, 44, 0
14, 64404, Note_on_c, 9, 44, 50
14, 64460, Note_off_c, 9, 44, 0
14, 64508, Note_on_c, 9, 44, 70
14, 64556, Note_off_c, 9, 44, 0
14, 64596, Note_on_c, 9, 44, 58
14, 64660, Note_off_c, 9, 44, 0
14, 64692, Note_on_c, 9, 44, 66
14, 64748, Note_off_c, 9, 44, 0
14, 64788, Note_on_c, 9, 44, 58
14, 64844, Note_off_c, 9, 44, 0
14, 64884, Note_on_c, 9, 44, 70
14, 64952, Note_off_c, 9, 44, 0
14, 64980, Note_on_c, 9, 44, 50
14, 65044, Note_off_c, 9, 44, 0
14, 65076, Note_on_c, 9, 44, 62
14, 65132, Note_off_c, 9, 44, 0
14, 65172, Note_on_c, 9, 44, 54
14, 65240, Note_off_c, 9, 44, 0
14, 65268, Note_on_c, 9, 44, 80
14, 65340, Note_off_c, 9, 44, 0
14, 65364, Note_on_c, 9, 44, 47
14, 65428, Note_off_c, 9, 44, 0
14, 65460, Note_on_c, 9, 44, 66
14, 65512, Note_off_c, 9, 44, 0
14, 65556, Note_on_c, 9, 44, 35
14, 65608, Note_off_c, 9, 44, 0
14, 65652, Note_on_c, 9, 44, 80
14, 65712, Note_off_c, 9, 44, 0
14, 65748, Note_on_c, 9, 44, 47
14, 65812, Note_off_c, 9, 44, 0
14, 65844, Note_on_c, 9, 44, 70
14, 65892, Note_off_c, 9, 44, 0
14, 65940, Note_on_c, 9, 44, 47
14, 65996, Note_off_c, 9, 44, 0
14, 66036, Note_on_c, 9, 44, 66
14, 66092, Note_off_c, 9, 44, 0
14, 66132, Note_on_c, 9, 44, 47
14, 66180, Note_off_c, 9, 44, 0
14, 66232, Note_on_c, 9, 44, 70
14, 66284, Note_off_c, 9, 44, 0
14, 66324, Note_on_c, 9, 44, 58
14, 66392, Note_off_c, 9, 44, 0
14, 66420, Note_on_c, 9, 44, 85
14, 66480, Note_off_c, 9, 44, 0
14, 66520, Note_on_c, 9, 44, 47
14, 66572, Note_off_c, 9, 44, 0
14, 66612, Note_on_c, 9, 44, 62
14, 66664, Note_off_c, 9, 44, 0
14, 66708, Note_on_c, 9, 44, 58
14, 66768, Note_off_c, 9, 44, 0
14, 66808, Note_on_c, 9, 44, 75
14, 66868, Note_off_c, 9, 44, 0
14, 66900, Note_on_c, 9, 44, 50
14, 66964, Note_off_c, 9, 44, 0
14, 66996, Note_on_c, 9, 44, 66
14, 67052, Note_off_c, 9, 44, 0
14, 67092, Note_on_c, 9, 44, 58
14, 67148, Note_off_c, 9, 44, 0
14, 67188, Note_on_c, 9, 44, 75
14, 67248, Note_off_c, 9, 44, 0
14, 67284, Note_on_c, 9, 44, 50
14, 67336, Note_off_c, 9, 44, 0
14, 67380, Note_on_c, 9, 44, 75
14, 67448, Note_off_c, 9, 44, 0
14, 67476, Note_on_c, 9, 44, 47
14, 67532, Note_off_c, 9, 44, 0
14, 67572, Note_on_c, 9, 44, 70
14, 67640, Note_off_c, 9, 44, 0
14, 67668, Note_on_c, 9, 44, 50
14, 67724, Note_off_c, 9, 44, 0
14, 67764, Note_on_c, 9, 44, 54
14, 67816, Note_off_c, 9, 44, 0
14, 67860, Note_on_c, 9, 44, 50
14, 67908, Note_off_c, 9, 44, 0
14, 67956, Note_on_c, 9, 44, 85
14, 68028, Note_off_c, 9, 44, 0
14, 68052, Note_on_c, 9, 44, 58
14, 68104, Note_off_c, 9, 44, 0
14, 68148, Note_on_c, 9, 44, 70
14, 68204, Note_off_c, 9, 44, 0
14, 68244, Note_on_c, 9, 44, 70
14, 68284, Note_off_c, 9, 44, 0
14, 68340, Note_on_c, 9, 44, 75
14, 68408, Note_off_c, 9, 44, 0
14, 68436, Note_on_c, 9, 44, 58
14, 68492, Note_off_c, 9, 44, 0
14, 68532, Note_on_c, 9, 44, 75
14, 68588, Note_off_c, 9, 44, 0
14, 68628, Note_on_c, 9, 44, 58
14, 68680, Note_off_c, 9, 44, 0
14, 68724, Note_on_c, 9, 44, 85
14, 68784, Note_off_c, 9, 44, 0
14, 68820, Note_on_c, 9, 44, 44
14, 68872, Note_off_c, 9, 44, 0
14, 68916, Note_on_c, 9, 44, 62
14, 68964, Note_off_c, 9, 44, 0
14, 69012, Note_on_c, 9, 44, 54
14, 69064, Note_off_c, 9, 44, 0
14, 69108, Note_on_c, 9, 44, 80
14, 69176, Note_off_c, 9, 44, 0
14, 69204, Note_on_c, 9, 44, 37
14, 69248, Note_off_c, 9, 44, 0
14, 69300, Note_on_c, 9, 44, 62
14, 69352, Note_off_c, 9, 44, 0
14, 69396, Note_on_c, 9, 44, 62
14, 69444, Note_off_c, 9, 44, 0
14, 69492, Note_on_c, 9, 44, 75
14, 69548, Note_off_c, 9, 44, 0
14, 69588, Note_on_c, 9, 44, 54
14, 69644, Note_off_c, 9, 44, 0
14, 69684, Note_on_c, 9, 44, 62
14, 69736, Note_off_c, 9, 44, 0
14, 69780, Note_on_c, 9, 44, 47
14, 69832, Note_off_c, 9, 44, 0
14, 69876, Note_on_c, 9, 44, 75
14, 69940, Note_off_c, 9, 44, 0
14, 69972, Note_on_c, 9, 44, 47
14, 70032, Note_off_c, 9, 44, 0
14, 70068, Note_on_c, 9, 44, 66
14, 70112, Note_off_c, 9, 44, 0
14, 70164, Note_on_c, 9, 44, 54
14, 70220, Note_off_c, 9, 44, 0
14, 70260, Note_on_c, 9, 44, 75
14, 70316, Note_off_c, 9, 44, 0
14, 70356, Note_on_c, 9, 44, 50
14, 70420, Note_off_c, 9, 44, 0
14, 70452, Note_on_c, 9, 44, 70
14, 70504, Note_off_c, 9, 44, 0
14, 70548, Note_on_c, 9, 44, 50
14, 70612, Note_off_c, 9, 44, 0
14, 70644, Note_on_c, 9, 44, 75
14, 70708, Note_off_c, 9, 44, 0
14, 70740, Note_on_c, 9, 44, 40
14, 70804, Note_off_c, 9, 44, 0
14, 70836, Note_on_c, 9, 44, 62
14, 70884, Note_off_c, 9, 44, 0
14, 70932, Note_on_c, 9, 44, 54
14, 70992, Note_off_c, 9, 44, 0
14, 71028, Note_on_c, 9, 44, 75
14, 71084, Note_off_c, 9, 44, 0
14, 71124, Note_on_c, 9, 44, 44
14, 71180, Note_off_c, 9, 44, 0
14, 71220, Note_on_c, 9, 44, 62
14, 71272, Note_off_c, 9, 44, 0
14, 71316, Note_on_c, 9, 44, 37
14, 71372, Note_off_c, 9, 44, 0
14, 71416, Note_on_c, 9, 44, 70
14, 71476, Note_off_c, 9, 44, 0
14, 71508, Note_on_c, 9, 44, 32
14, 71560, Note_off_c, 9, 44, 0
14, 71604, Note_on_c, 9, 44, 66
14, 71652, Note_off_c, 9, 44, 0
14, 71700, Note_on_c, 9, 44, 40
14, 71756, Note_off_c, 9, 44, 0
14, 71796, Note_on_c, 9, 44, 70
14, 71864, Note_off_c, 9, 44, 0
14, 71892, Note_on_c, 9, 44, 32
14, 71944, Note_off_c, 9, 44, 0
14, 71988, Note_on_c, 9, 44, 58
14, 72032, Note_off_c, 9, 44, 0
14, 72084, Note_on_c, 9, 44, 47
14, 72136, Note_off_c, 9, 44, 0
14, 72180, Note_on_c, 9, 44, 66
14, 72236, Note_off_c, 9, 44, 0
14, 72276, Note_on_c, 9, 44, 29
14, 72320, Note_off_c, 9, 44, 0
14, 72372, Note_on_c, 9, 44, 58
14, 72428, Note_off_c, 9, 44, 0
14, 72468, Note_on_c, 9, 44, 37
14, 72520, Note_off_c, 9, 44, 0
14, 72564, Note_on_c, 9, 44, 75
14, 72616, Note_off_c, 9, 44, 0
14, 72660, Note_on_c, 9, 44, 40
14, 72716, Note_off_c, 9, 44, 0
14, 72756, Note_on_c, 9, 44, 62
14, 72804, Note_off_c, 9, 44, 0
14, 72856, Note_on_c, 9, 44, 40
14, 72904, Note_off_c, 9, 44, 0
14, 72952, Note_on_c, 9, 44, 70
14, 73000, Note_off_c, 9, 44, 0
14, 73044, Note_on_c, 9, 44, 35
14, 73096, Note_off_c, 9, 44, 0
14, 73140, Note_on_c, 9, 44, 66
14, 73192, Note_off_c, 9, 44, 0
14, 73236, Note_on_c, 9, 44, 37
14, 73284, Note_off_c, 9, 44, 0
14, 73332, Note_on_c, 9, 44, 75
14, 73388, Note_off_c, 9, 44, 0
14, 73428, Note_on_c, 9, 44, 37
14, 73484, Note_off_c, 9, 44, 0
14, 73524, Note_on_c, 9, 44, 58
14, 73564, Note_off_c, 9, 44, 0
14, 73620, Note_on_c, 9, 44, 37
14, 73664, Note_off_c, 9, 44, 0
14, 73716, Note_on_c, 9, 44, 80
14, 73764, Note_off_c, 9, 44, 0
14, 73812, Note_on_c, 9, 44, 50
14, 73868, Note_off_c, 9, 44, 0
14, 73908, Note_on_c, 9, 44, 47
14, 73944, Note_off_c, 9, 44, 0
14, 74004, Note_on_c, 9, 44, 47
14, 74060, Note_off_c, 9, 44, 0
14, 74100, Note_on_c, 9, 44, 80
14, 74152, Note_off_c, 9, 44, 0
14, 74196, Note_on_c, 9, 44, 47
14, 74248, Note_off_c, 9, 44, 0
14, 74292, Note_on_c, 9, 44, 58
14, 74328, Note_off_c, 9, 44, 0
14, 74388, Note_on_c, 9, 44, 50
14, 74436, Note_off_c, 9, 44, 0
14, 74484, Note_on_c, 9, 44, 75
14, 74540, Note_off_c, 9, 44, 0
14, 74580, Note_on_c, 9, 44, 37
14, 74628, Note_off_c, 9, 44, 0
14, 74676, Note_on_c, 9, 44, 70
14, 74716, Note_off_c, 9, 44, 0
14, 74772, Note_on_c, 9, 44, 50
14, 74828, Note_off_c, 9, 44, 0
14, 74868, Note_on_c, 9, 44, 80
14, 74932, Note_off_c, 9, 44, 0
14, 74964, Note_on_c, 9, 44, 50
14, 75016, Note_off_c, 9, 44, 0
14, 75060, Note_on_c, 9, 44, 62
14, 75100, Note_off_c, 9, 44, 0
14, 75156, Note_on_c, 9, 44, 44
14, 75212, Note_off_c, 9, 44, 0
14, 75256, Note_on_c, 9, 44, 90
14, 75324, Note_off_c, 9, 44, 0
14, 75348, Note_on_c, 9, 44, 58
14, 75404, Note_off_c, 9, 44, 0
14, 75444, Note_on_c, 9, 44, 50
14, 75476, Note_off_c, 9, 44, 0
14, 75540, Note_on_c, 9, 44, 62
14, 75592, Note_off_c, 9, 44, 0
14, 75636, Note_on_c, 9, 44, 102
14, 75708, Note_off_c, 9, 44, 0
14, 75732, Note_on_c, 9, 44, 44
14, 75784, Note_off_c, 9, 44, 0
14, 75828, Note_on_c, 9, 44, 54
14, 75868, Note_off_c, 9, 44, 0
14, 75924, Note_on_c, 9, 44, 58
14, 75980, Note_off_c, 9, 44, 0
14, 76020, Note_on_c, 9, 44, 85
14, 76092, Note_off_c, 9, 44, 0
14, 76116, Note_on_c, 9, 44, 58
14, 76184, Note_off_c, 9, 44, 0
14, 76212, Note_on_c, 9, 44, 47
14, 76252, Note_off_c, 9, 44, 0
14, 76308, Note_on_c, 9, 44, 58
14, 76356, Note_off_c, 9, 44, 0
14, 76404, Note_on_c, 9, 44, 85
14, 76476, Note_off_c, 9, 44, 0
14, 76500, Note_on_c, 9, 44, 75
14, 76564, Note_off_c, 9, 44, 0
14, 76596, Note_on_c, 9, 44, 62
14, 76640, Note_off_c, 9, 44, 0
14, 76692, Note_on_c, 9, 44, 32
14, 76732, Note_off_c, 9, 44, 0
14, 76792, Note_on_c, 9, 44, 96
14, 76860, Note_off_c, 9, 44, 0
14, 76884, Note_on_c, 9, 44, 47
14, 76936, Note_off_c, 9, 44, 0
14, 76980, Note_on_c, 9, 44, 62
14, 77020, Note_off_c, 9, 44, 0
14, 77076, Note_on_c, 9, 44, 54
14, 77128, Note_off_c, 9, 44, 0
14, 77172, Note_on_c, 9, 44, 90
14, 77244, Note_off_c, 9, 44, 0
14, 77268, Note_on_c, 9, 44, 44
14, 77320, Note_off_c, 9, 44, 0
14, 77364, Note_on_c, 9, 44, 54
14, 77404, Note_off_c, 9, 44, 0
14, 77460, Note_on_c, 9, 44, 58
14, 77512, Note_off_c, 9, 44, 0
14, 77556, Note_on_c, 9, 44, 90
14, 77628, Note_off_c, 9, 44, 0
14, 77652, Note_on_c, 9, 44, 47
14, 77708, Note_off_c, 9, 44, 0
14, 77748, Note_on_c, 9, 44, 62
14, 77788, Note_off_c, 9, 44, 0
14, 77844, Note_on_c, 9, 44, 50
14, 77896, Note_off_c, 9, 44, 0
14, 77944, Note_on_c, 9, 44, 85
14, 78012, Note_off_c, 9, 44, 0
14, 78036, Note_on_c, 9, 44, 58
14, 78088, Note_off_c, 9, 44, 0
14, 78132, Note_on_c, 9, 44, 47
14, 78172, Note_off_c, 9, 44, 0
14, 78228, Note_on_c, 9, 44, 50
14, 78284, Note_off_c, 9, 44, 0
14, 78324, Note_on_c, 9, 44, 80
14, 78396, Note_off_c, 9, 44, 0
14, 78420, Note_on_c, 9, 44, 47
14, 78472, Note_off_c, 9, 44, 0
14, 78516, Note_on_c, 9, 44, 58
14, 78556, Note_off_c, 9, 44, 0
14, 78612, Note_on_c, 9, 44, 58
14, 78660, Note_off_c, 9, 44, 0
14, 78708, Note_on_c, 9, 44, 96
14, 78768, Note_off_c, 9, 44, 0
14, 78804, Note_on_c, 9, 44, 47
14, 78852, Note_off_c, 9, 44, 0
14, 78900, Note_on_c, 9, 44, 70
14, 78940, Note_off_c, 9, 44, 0
14, 78996, Note_on_c, 9, 44, 47
14, 79040, Note_off_c, 9, 44, 0
14, 79092, Note_on_c, 9, 44, 90
14, 79164, Note_off_c, 9, 44, 0
14, 79188, Note_on_c, 9, 44, 75
14, 79256, Note_off_c, 9, 44, 0
14, 79284, Note_on_c, 9, 44, 58
14, 79324, Note_off_c, 9, 44, 0
14, 79380, Note_on_c, 9, 44, 44
14, 79428, Note_off_c, 9, 44, 0
14, 79476, Note_on_c, 9, 44, 96
14, 79548, Note_off_c, 9, 44, 0
14, 79572, Note_on_c, 9, 44, 50
14, 79624, Note_off_c, 9, 44, 0
14, 79668, Note_on_c, 9, 44, 58
14, 79708, Note_off_c, 9, 44, 0
14, 79764, Note_on_c, 9, 44, 54
14, 79808, Note_off_c, 9, 44, 0
14, 79864, Note_on_c, 9, 44, 85
14, 79928, Note_off_c, 9, 44, 0
14, 79956, Note_on_c, 9, 44, 27
14, 80000, Note_off_c, 9, 44, 0
14, 80052, Note_on_c, 9, 44, 54
14, 80092, Note_off_c, 9, 44, 0
14, 80148, Note_on_c, 9, 44, 54
14, 80192, Note_off_c, 9, 44, 0
14, 80244, Note_on_c, 9, 44, 90
14, 80312, Note_off_c, 9, 44, 0
14, 80340, Note_on_c, 9, 44, 58
14, 80392, Note_off_c, 9, 44, 0
14, 80436, Note_on_c, 9, 44, 54
14, 80464, Note_off_c, 9, 44, 0
14, 80532, Note_on_c, 9, 44, 37
14, 80568, Note_off_c, 9, 44, 0
14, 80628, Note_on_c, 9, 44, 96
14, 80696, Note_off_c, 9, 44, 0
14, 80724, Note_on_c, 9, 44, 44
14, 80776, Note_off_c, 9, 44, 0
14, 80820, Note_on_c, 9, 44, 50
14, 80848, Note_off_c, 9, 44, 0
14, 80916, Note_on_c, 9, 44, 54
14, 80960, Note_off_c, 9, 44, 0
14, 81012, Note_on_c, 9, 44, 102
14, 81084, Note_off_c, 9, 44, 0
14, 81108, Note_on_c, 9, 44, 1
14, 81140, Note_off_c, 9, 44, 0
14, 81204, Note_on_c, 9, 44, 66
14, 81224, Note_off_c, 9, 44, 0
14, 81300, Note_on_c, 9, 44, 58
14, 81340, Note_off_c, 9, 44, 0
14, 81396, Note_on_c, 9, 44, 102
14, 81468, Note_off_c, 9, 44, 0
14, 81492, Note_on_c, 9, 44, 75
14, 81540, Note_off_c, 9, 44, 0
14, 81588, Note_on_c, 9, 44, 80
14, 81628, Note_off_c, 9, 44, 0
14, 81684, Note_on_c, 9, 44, 54
14, 81736, Note_off_c, 9, 44, 0
14, 81780, Note_on_c, 9, 44, 102
14, 81852, Note_off_c, 9, 44, 0
14, 81876, Note_on_c, 9, 44, 47
14, 81928, Note_off_c, 9, 44, 0
14, 81972, Note_on_c, 9, 44, 75
14, 82012, Note_off_c, 9, 44, 0
14, 82068, Note_on_c, 9, 44, 54
14, 82116, Note_off_c, 9, 44, 0
14, 82164, Note_on_c, 9, 44, 102
14, 82232, Note_off_c, 9, 44, 0
14, 82260, Note_on_c, 9, 44, 32
14, 82316, Note_off_c, 9, 44, 0
14, 82356, Note_on_c, 9, 44, 75
14, 82400, Note_off_c, 9, 44, 0
14, 82452, Note_on_c, 9, 44, 47
14, 82508, Note_off_c, 9, 44, 0
14, 82548, Note_on_c, 9, 44, 96
14, 82616, Note_off_c, 9, 44, 0
14, 82644, Note_on_c, 9, 44, 35
14, 82688, Note_off_c, 9, 44, 0
14, 82740, Note_on_c, 9, 44, 75
14, 82792, Note_off_c, 9, 44, 0
14, 82836, Note_on_c, 9, 44, 62
14, 82892, Note_off_c, 9, 44, 0
14, 82932, Note_on_c, 9, 44, 96
14, 83000, Note_off_c, 9, 44, 0
14, 83028, Note_on_c, 9, 44, 62
14, 83092, Note_off_c, 9, 44, 0
14, 83116, Note_on_c, 9, 44, 80
14, 83180, Note_off_c, 9, 44, 0
14, 83220, Note_on_c, 9, 44, 50
14, 83276, Note_off_c, 9, 44, 0
14, 83316, Note_on_c, 9, 44, 90
14, 83388, Note_off_c, 9, 44, 0
14, 83412, Note_on_c, 9, 44, 54
14, 83476, Note_off_c, 9, 44, 0
14, 83508, Note_on_c, 9, 44, 75
14, 83564, Note_off_c, 9, 44, 0
14, 83604, Note_on_c, 9, 44, 47
14, 83660, Note_off_c, 9, 44, 0
14, 83712, Note_on_c, 9, 44, 90
14, 83772, Note_off_c, 9, 44, 0
14, 83796, Note_on_c, 9, 44, 37
14, 83852, Note_off_c, 9, 44, 0
14, 83892, Note_on_c, 9, 44, 75
14, 83944, Note_off_c, 9, 44, 0
14, 83996, Note_on_c, 9, 44, 54
14, 84044, Note_off_c, 9, 44, 0
14, 84084, Note_on_c, 9, 44, 96
14, 84152, Note_off_c, 9, 44, 0
14, 84180, Note_on_c, 9, 44, 47
14, 84236, Note_off_c, 9, 44, 0
14, 84276, Note_on_c, 9, 44, 62
14, 84332, Note_off_c, 9, 44, 0
14, 84376, Note_on_c, 9, 44, 37
14, 84428, Note_off_c, 9, 44, 0
14, 84468, Note_on_c, 9, 44, 80
14, 84540, Note_off_c, 9, 44, 0
14, 84564, Note_on_c, 9, 44, 47
14, 84620, Note_off_c, 9, 44, 0
14, 84660, Note_on_c, 9, 44, 58
14, 84700, Note_off_c, 9, 44, 0
14, 84756, Note_on_c, 9, 44, 66
14, 84808, Note_off_c, 9, 44, 0
14, 84852, Note_on_c, 9, 44, 96
14, 84924, Note_off_c, 9, 44, 0
14, 84948, Note_on_c, 9, 44, 62
14, 85012, Note_off_c, 9, 44, 0
14, 85044, Note_on_c, 9, 44, 70
14, 85100, Note_off_c, 9, 44, 0
14, 85140, Note_on_c, 9, 44, 44
14, 85192, Note_off_c, 9, 44, 0
14, 85236, Note_on_c, 9, 44, 80
14, 85308, Note_off_c, 9, 44, 0
14, 85332, Note_on_c, 9, 44, 47
14, 85400, Note_off_c, 9, 44, 0
14, 85428, Note_on_c, 9, 44, 70
14, 85484, Note_off_c, 9, 44, 0
14, 85524, Note_on_c, 9, 44, 50
14, 85580, Note_off_c, 9, 44, 0
14, 85620, Note_on_c, 9, 44, 90
14, 85692, Note_off_c, 9, 44, 0
14, 85716, Note_on_c, 9, 44, 54
14, 85780, Note_off_c, 9, 44, 0
14, 85812, Note_on_c, 9, 44, 62
14, 85852, Note_off_c, 9, 44, 0
14, 85908, Note_on_c, 9, 44, 58
14, 85960, Note_off_c, 9, 44, 0
14, 86004, Note_on_c, 9, 44, 90
14, 86076, Note_off_c, 9, 44, 0
14, 86100, Note_on_c, 9, 44, 58
14, 86152, Note_off_c, 9, 44, 0
14, 86196, Note_on_c, 9, 44, 75
14, 86236, Note_off_c, 9, 44, 0
14, 86292, Note_on_c, 9, 44, 47
14, 86336, Note_off_c, 9, 44, 0
14, 86388, Note_on_c, 9, 44, 96
14, 86456, Note_off_c, 9, 44, 0
14, 86484, Note_on_c, 9, 44, 40
14, 86532, Note_off_c, 9, 44, 0
14, 86580, Note_on_c, 9, 44, 80
14, 86620, Note_off_c, 9, 44, 0
14, 86676, Note_on_c, 9, 44, 50
14, 86724, Note_off_c, 9, 44, 0
14, 86772, Note_on_c, 9, 44, 90
14, 86844, Note_off_c, 9, 44, 0
14, 86868, Note_on_c, 9, 44, 47
14, 86920, Note_off_c, 9, 44, 0
14, 86964, Note_on_c, 9, 44, 70
14, 87004, Note_off_c, 9, 44, 0
14, 87060, Note_on_c, 9, 44, 50
14, 87112, Note_off_c, 9, 44, 0
14, 87156, Note_on_c, 9, 44, 102
14, 87224, Note_off_c, 9, 44, 0
14, 87252, Note_on_c, 9, 44, 47
14, 87304, Note_off_c, 9, 44, 0
14, 87348, Note_on_c, 9, 44, 66
14, 87388, Note_off_c, 9, 44, 0
14, 87444, Note_on_c, 9, 44, 58
14, 87500, Note_off_c, 9, 44, 0
14, 87540, Note_on_c, 9, 44, 96
14, 87608, Note_off_c, 9, 44, 0
14, 87636, Note_on_c, 9, 44, 32
14, 87692, Note_off_c, 9, 44, 0
14, 87732, Note_on_c, 9, 44, 62
14, 87772, Note_off_c, 9, 44, 0
14, 87828, Note_on_c, 9, 44, 54
14, 87896, Note_off_c, 9, 44, 0
14, 87924, Note_on_c, 9, 44, 96
14, 87996, Note_off_c, 9, 44, 0
14, 88020, Note_on_c, 9, 44, 47
14, 88076, Note_off_c, 9, 44, 0
14, 88116, Note_on_c, 9, 44, 75
14, 88164, Note_off_c, 9, 44, 0
14, 88212, Note_on_c, 9, 44, 58
14, 88268, Note_off_c, 9, 44, 0
14, 88308, Note_on_c, 9, 44, 96
14, 88368, Note_off_c, 9, 44, 0
14, 88404, Note_on_c, 9, 44, 50
14, 88460, Note_off_c, 9, 44, 0
14, 88500, Note_on_c, 9, 44, 75
14, 88540, Note_off_c, 9, 44, 0
14, 88596, Note_on_c, 9, 44, 66
14, 88648, Note_off_c, 9, 44, 0
14, 88692, Note_on_c, 9, 44, 102
14, 88764, Note_off_c, 9, 44, 0
14, 88788, Note_on_c, 9, 44, 62
14, 88856, Note_off_c, 9, 44, 0
14, 88884, Note_on_c, 9, 44, 75
14, 88924, Note_off_c, 9, 44, 0
14, 88980, Note_on_c, 9, 44, 37
14, 89020, Note_off_c, 9, 44, 0
14, 89172, Note_on_c, 9, 44, 58
14, 89236, Note_off_c, 9, 44, 0
14, 89268, Note_on_c, 9, 44, 85
14, 89312, Note_off_c, 9, 44, 0
14, 89364, Note_on_c, 9, 44, 54
14, 89416, Note_off_c, 9, 44, 0
14, 89460, Note_on_c, 9, 44, 96
14, 89528, Note_off_c, 9, 44, 0
14, 89556, Note_on_c, 9, 44, 37
14, 89608, Note_off_c, 9, 44, 0
14, 89652, Note_on_c, 9, 44, 44
14, 89684, Note_off_c, 9, 44, 0
14, 89748, Note_on_c, 9, 44, 54
14, 89800, Note_off_c, 9, 44, 0
14, 89844, Note_on_c, 9, 44, 102
14, 89912, Note_off_c, 9, 44, 0
14, 89940, Note_on_c, 9, 44, 54
14, 90004, Note_off_c, 9, 44, 0
14, 90036, Note_on_c, 9, 44, 62
14, 90076, Note_off_c, 9, 44, 0
14, 90132, Note_on_c, 9, 44, 47
14, 90180, Note_off_c, 9, 44, 0
14, 90228, Note_on_c, 9, 44, 90
14, 90296, Note_off_c, 9, 44, 0
14, 90324, Note_on_c, 9, 44, 62
14, 90380, Note_off_c, 9, 44, 0
14, 90420, Note_on_c, 9, 44, 62
14, 90460, Note_off_c, 9, 44, 0
14, 90516, Note_on_c, 9, 44, 50
14, 90572, Note_off_c, 9, 44, 0
14, 90612, Note_on_c, 9, 44, 96
14, 90676, Note_off_c, 9, 44, 0
14, 90708, Note_on_c, 9, 44, 58
14, 90772, Note_off_c, 9, 44, 0
14, 90804, Note_on_c, 9, 44, 62
14, 90844, Note_off_c, 9, 44, 0
14, 90904, Note_on_c, 9, 44, 47
14, 90952, Note_off_c, 9, 44, 0
14, 90996, Note_on_c, 9, 44, 96
14, 91068, Note_off_c, 9, 44, 0
14, 91092, Note_on_c, 9, 44, 66
14, 91144, Note_off_c, 9, 44, 0
14, 91188, Note_on_c, 9, 44, 66
14, 91236, Note_off_c, 9, 44, 0
14, 91284, Note_on_c, 9, 44, 47
14, 91328, Note_off_c, 9, 44, 0
14, 91380, Note_on_c, 9, 44, 96
14, 91452, Note_off_c, 9, 44, 0
14, 91476, Note_on_c, 9, 44, 75
14, 91528, Note_off_c, 9, 44, 0
14, 91572, Note_on_c, 9, 44, 75
14, 91612, Note_off_c, 9, 44, 0
14, 91668, Note_on_c, 9, 44, 62
14, 91724, Note_off_c, 9, 44, 0
14, 91764, Note_on_c, 9, 44, 90
14, 91844, Note_off_c, 9, 44, 0
14, 91860, Note_on_c, 9, 44, 32
14, 91908, Note_off_c, 9, 44, 0
14, 91956, Note_on_c, 9, 44, 58
14, 92000, Note_off_c, 9, 44, 0
14, 92052, Note_on_c, 9, 44, 58
14, 92108, Note_off_c, 9, 44, 0
14, 92148, Note_on_c, 9, 44, 96
14, 92220, Note_off_c, 9, 44, 0
14, 92244, Note_on_c, 9, 44, 37
14, 92296, Note_off_c, 9, 44, 0
14, 92340, Note_on_c, 9, 44, 23
14, 92360, Note_off_c, 9, 44, 0
14, 92436, Note_on_c, 9, 44, 54
14, 92484, Note_off_c, 9, 44, 0
14, 92532, Note_on_c, 9, 44, 90
14, 92608, Note_off_c, 9, 44, 0
14, 92628, Note_on_c, 9, 44, 75
14, 92692, Note_off_c, 9, 44, 0
14, 92724, Note_on_c, 9, 44, 80
14, 92780, Note_off_c, 9, 44, 0
14, 92820, Note_on_c, 9, 44, 35
14, 92860, Note_off_c, 9, 44, 0
14, 92920, Note_on_c, 9, 44, 96
14, 92984, Note_off_c, 9, 44, 0
14, 93012, Note_on_c, 9, 44, 47
14, 93064, Note_off_c, 9, 44, 0
14, 93108, Note_on_c, 9, 44, 66
14, 93156, Note_off_c, 9, 44, 0
14, 93204, Note_on_c, 9, 44, 47
14, 93256, Note_off_c, 9, 44, 0
14, 93300, Note_on_c, 9, 44, 80
14, 93372, Note_off_c, 9, 44, 0
14, 93396, Note_on_c, 9, 44, 47
14, 93452, Note_off_c, 9, 44, 0
14, 93492, Note_on_c, 9, 44, 70
14, 93544, Note_off_c, 9, 44, 0
14, 93588, Note_on_c, 9, 44, 58
14, 93644, Note_off_c, 9, 44, 0
14, 93684, Note_on_c, 9, 44, 80
14, 93756, Note_off_c, 9, 44, 0
14, 93780, Note_on_c, 9, 44, 44
14, 93828, Note_off_c, 9, 44, 0
14, 93876, Note_on_c, 9, 44, 66
14, 93928, Note_off_c, 9, 44, 0
14, 93972, Note_on_c, 9, 44, 47
14, 94028, Note_off_c, 9, 44, 0
14, 94068, Note_on_c, 9, 44, 90
14, 94140, Note_off_c, 9, 44, 0
14, 94164, Note_on_c, 9, 44, 35
14, 94212, Note_off_c, 9, 44, 0
14, 94260, Note_on_c, 9, 44, 62
14, 94308, Note_off_c, 9, 44, 0
14, 94356, Note_on_c, 9, 44, 44
14, 94404, Note_off_c, 9, 44, 0
14, 94452, Note_on_c, 9, 44, 80
14, 94516, Note_off_c, 9, 44, 0
14, 94548, Note_on_c, 9, 44, 25
14, 94596, Note_off_c, 9, 44, 0
14, 94644, Note_on_c, 9, 44, 62
14, 94692, Note_off_c, 9, 44, 0
14, 94744, Note_on_c, 9, 44, 66
14, 94796, Note_off_c, 9, 44, 0
14, 94836, Note_on_c, 9, 44, 90
14, 94916, Note_off_c, 9, 44, 0
14, 94932, Note_on_c, 9, 44, 40
14, 94988, Note_off_c, 9, 44, 0
14, 95028, Note_on_c, 9, 44, 62
14, 95068, Note_off_c, 9, 44, 0
14, 95124, Note_on_c, 9, 44, 44
14, 95172, Note_off_c, 9, 44, 0
14, 95220, Note_on_c, 9, 44, 90
14, 95292, Note_off_c, 9, 44, 0
14, 95316, Note_on_c, 9, 44, 54
14, 95380, Note_off_c, 9, 44, 0
14, 95412, Note_on_c, 9, 44, 47
14, 95460, Note_off_c, 9, 44, 0
14, 95508, Note_on_c, 9, 44, 44
14, 95560, Note_off_c, 9, 44, 0
14, 95604, Note_on_c, 9, 44, 80
14, 95676, Note_off_c, 9, 44, 0
14, 95700, Note_on_c, 9, 44, 75
14, 95764, Note_off_c, 9, 44, 0
14, 95796, Note_on_c, 9, 44, 80
14, 95856, Note_off_c, 9, 44, 0
14, 95892, Note_on_c, 9, 44, 47
14, 95944, Note_off_c, 9, 44, 0
14, 95984, Note_on_c, 9, 44, 85
14, 96060, Note_off_c, 9, 44, 0
14, 96084, Note_on_c, 9, 44, 66
14, 96144, Note_off_c, 9, 44, 0
14, 96180, Note_on_c, 9, 44, 75
14, 96228, Note_off_c, 9, 44, 0
14, 96276, Note_on_c, 9, 44, 44
14, 96324, Note_off_c, 9, 44, 0
14, 96372, Note_on_c, 9, 44, 85
14, 96444, Note_off_c, 9, 44, 0
14, 96468, Note_on_c, 9, 44, 50
14, 96524, Note_off_c, 9, 44, 0
14, 96564, Note_on_c, 9, 44, 70
14, 96612, Note_off_c, 9, 44, 0
14, 96660, Note_on_c, 9, 44, 54
14, 96716, Note_off_c, 9, 44, 0
14, 96756, Note_on_c, 9, 44, 75
14, 96820, Note_off_c, 9, 44, 0
14, 96852, Note_on_c, 9, 44, 62
14, 96908, Note_off_c, 9, 44, 0
14, 96948, Note_on_c, 9, 44, 62
14, 96992, Note_off_c, 9, 44, 0
14, 97044, Note_on_c, 9, 44, 44
14, 97100, Note_off_c, 9, 44, 0
14, 97140, Note_on_c, 9, 44, 80
14, 97212, Note_off_c, 9, 44, 0
14, 97236, Note_on_c, 9, 44, 44
14, 97292, Note_off_c, 9, 44, 0
14, 97332, Note_on_c, 9, 44, 75
14, 97388, Note_off_c, 9, 44, 0
14, 97428, Note_on_c, 9, 44, 50
14, 97480, Note_off_c, 9, 44, 0
14, 97524, Note_on_c, 9, 44, 80
14, 97596, Note_off_c, 9, 44, 0
14, 97620, Note_on_c, 9, 44, 62
14, 97684, Note_off_c, 9, 44, 0
14, 97716, Note_on_c, 9, 44, 62
14, 97764, Note_off_c, 9, 44, 0
14, 97816, Note_on_c, 9, 44, 54
14, 97868, Note_off_c, 9, 44, 0
14, 97908, Note_on_c, 9, 44, 80
14, 97980, Note_off_c, 9, 44, 0
14, 98004, Note_on_c, 9, 44, 47
14, 98068, Note_off_c, 9, 44, 0
14, 98100, Note_on_c, 9, 44, 54
14, 98152, Note_off_c, 9, 44, 0
14, 98196, Note_on_c, 9, 44, 50
14, 98252, Note_off_c, 9, 44, 0
14, 98292, Note_on_c, 9, 44, 80
14, 98360, Note_off_c, 9, 44, 0
14, 98388, Note_on_c, 9, 44, 62
14, 98456, Note_off_c, 9, 44, 0
14, 98484, Note_on_c, 9, 44, 44
14, 98540, Note_off_c, 9, 44, 0
14, 98580, Note_on_c, 9, 44, 37
14, 98632, Note_off_c, 9, 44, 0
14, 98676, Note_on_c, 9, 44, 80
14, 98744, Note_off_c, 9, 44, 0
14, 98772, Note_on_c, 9, 44, 58
14, 98824, Note_off_c, 9, 44, 0
14, 98868, Note_on_c, 9, 44, 80
14, 98924, Note_off_c, 9, 44, 0
14, 98964, Note_on_c, 9, 44, 47
14, 99012, Note_off_c, 9, 44, 0
14, 99068, Note_on_c, 9, 44, 75
14, 99132, Note_off_c, 9, 44, 0
14, 99156, Note_on_c, 9, 44, 40
14, 99204, Note_off_c, 9, 44, 0
14, 99252, Note_on_c, 9, 44, 62
14, 99300, Note_off_c, 9, 44, 0
14, 99348, Note_on_c, 9, 44, 47
14, 99396, Note_off_c, 9, 44, 0
14, 99448, Note_on_c, 9, 44, 80
14, 99512, Note_off_c, 9, 44, 0
14, 99540, Note_on_c, 9, 44, 47
14, 99592, Note_off_c, 9, 44, 0
14, 99636, Note_on_c, 9, 44, 75
14, 99688, Note_off_c, 9, 44, 0
14, 99732, Note_on_c, 9, 44, 58
14, 99788, Note_off_c, 9, 44, 0
14, 99832, Note_on_c, 9, 44, 85
14, 99896, Note_off_c, 9, 44, 0
14, 99924, Note_on_c, 9, 44, 44
14, 99972, Note_off_c, 9, 44, 0
14, 100020, Note_on_c, 9, 44, 75
14, 100060, Note_off_c, 9, 44, 0
14, 100116, Note_on_c, 9, 44, 35
14, 100160, Note_off_c, 9, 44, 0
14, 100216, Note_on_c, 9, 44, 80
14, 100284, Note_off_c, 9, 44, 0
14, 100308, Note_on_c, 9, 44, 18
14, 100348, Note_off_c, 9, 44, 0
14, 100404, Note_on_c, 9, 44, 50
14, 100444, Note_off_c, 9, 44, 0
14, 100500, Note_on_c, 9, 44, 35
14, 100536, Note_off_c, 9, 44, 0
14, 100608, Note_on_c, 9, 44, 85
14, 100664, Note_off_c, 9, 44, 0
14, 100692, Note_on_c, 9, 44, 17
14, 100732, Note_off_c, 9, 44, 0
14, 100788, Note_on_c, 9, 44, 62
14, 100836, Note_off_c, 9, 44, 0
14, 100892, Note_on_c, 9, 44, 40
14, 100936, Note_off_c, 9, 44, 0
14, 100972, Note_on_c, 9, 44, 70
14, 101048, Note_off_c, 9, 44, 0
14, 101080, Note_on_c, 9, 44, 25
14, 101120, Note_off_c, 9, 44, 0
14, 101172, Note_on_c, 9, 44, 66
14, 101216, Note_off_c, 9, 44, 0
14, 101268, Note_on_c, 9, 44, 37
14, 101312, Note_off_c, 9, 44, 0
14, 101364, Note_on_c, 9, 44, 80
14, 101432, Note_off_c, 9, 44, 0
14, 101460, Note_on_c, 9, 44, 37
14, 101512, Note_off_c, 9, 44, 0
14, 101564, Note_on_c, 9, 44, 58
14, 101596, Note_off_c, 9, 44, 0
14, 101652, Note_on_c, 9, 44, 47
14, 101700, Note_off_c, 9, 44, 0
14, 101752, Note_on_c, 9, 44, 80
14, 101816, Note_off_c, 9, 44, 0
14, 101844, Note_on_c, 9, 44, 35
14, 101900, Note_off_c, 9, 44, 0
14, 101940, Note_on_c, 9, 44, 75
14, 101992, Note_off_c, 9, 44, 0
14, 102040, Note_on_c, 9, 44, 37
14, 102084, Note_off_c, 9, 44, 0
14, 102132, Note_on_c, 9, 44, 80
14, 102200, Note_off_c, 9, 44, 0
14, 102228, Note_on_c, 9, 44, 35
14, 102280, Note_off_c, 9, 44, 0
14, 102328, Note_on_c, 9, 44, 58
14, 102364, Note_off_c, 9, 44, 0
14, 102420, Note_on_c, 9, 44, 44
14, 102476, Note_off_c, 9, 44, 0
14, 102524, Note_on_c, 9, 44, 85
14, 102584, Note_off_c, 9, 44, 0
14, 102612, Note_on_c, 9, 44, 54
14, 102676, Note_off_c, 9, 44, 0
14, 102708, Note_on_c, 9, 44, 80
14, 102760, Note_off_c, 9, 44, 0
14, 102804, Note_on_c, 9, 44, 58
14, 102864, Note_off_c, 9, 44, 0
14, 102896, Note_on_c, 9, 44, 75
14, 102972, Note_off_c, 9, 44, 0
14, 102996, Note_on_c, 9, 44, 27
14, 103060, Note_off_c, 9, 44, 0
14, 103092, Note_on_c, 9, 44, 62
14, 103140, Note_off_c, 9, 44, 0
14, 103188, Note_on_c, 9, 44, 50
14, 103240, Note_off_c, 9, 44, 0
14, 103284, Note_on_c, 9, 44, 90
14, 103356, Note_off_c, 9, 44, 0
14, 103380, Note_on_c, 9, 44, 62
14, 103444, Note_off_c, 9, 44, 0
14, 103476, Note_on_c, 9, 44, 62
14, 103528, Note_off_c, 9, 44, 0
14, 103572, Note_on_c, 9, 44, 58
14, 103632, Note_off_c, 9, 44, 0
14, 103668, Note_on_c, 9, 44, 75
14, 103740, Note_off_c, 9, 44, 0
14, 103764, Note_on_c, 9, 44, 62
14, 103828, Note_off_c, 9, 44, 0
14, 103860, Note_on_c, 9, 44, 62
14, 103900, Note_off_c, 9, 44, 0
14, 103956, Note_on_c, 9, 44, 62
14, 104024, Note_off_c, 9, 44, 0
14, 104052, Note_on_c, 9, 44, 96
14, 104128, Note_off_c, 9, 44, 0
14, 104148, Note_on_c, 9, 44, 35
14, 104196, Note_off_c, 9, 44, 0
14, 104248, Note_on_c, 9, 44, 50
14, 104292, Note_off_c, 9, 44, 0
14, 104344, Note_on_c, 9, 44, 58
14, 104412, Note_off_c, 9, 44, 0
14, 104444, Note_on_c, 9, 44, 90
14, 104520, Note_off_c, 9, 44, 0
14, 104532, Note_on_c, 9, 44, 20
14, 104596, Note_off_c, 9, 44, 0
14, 104628, Note_on_c, 9, 44, 66
14, 104688, Note_off_c, 9, 44, 0
14, 104724, Note_on_c, 9, 44, 54
14, 104780, Note_off_c, 9, 44, 0
14, 104820, Note_on_c, 9, 44, 80
14, 104892, Note_off_c, 9, 44, 0
14, 104916, Note_on_c, 9, 44, 80
14, 104984, Note_off_c, 9, 44, 0
14, 105012, Note_on_c, 9, 44, 75
14, 105076, Note_off_c, 9, 44, 0
14, 105108, Note_on_c, 9, 44, 50
14, 105180, Note_off_c, 9, 44, 0
14, 105204, Note_on_c, 9, 44, 75
14, 105276, Note_off_c, 9, 44, 0
14, 105300, Note_on_c, 9, 44, 58
14, 105364, Note_off_c, 9, 44, 0
14, 105396, Note_on_c, 9, 44, 58
14, 105452, Note_off_c, 9, 44, 0
14, 105492, Note_on_c, 9, 44, 58
14, 105556, Note_off_c, 9, 44, 0
14, 105592, Note_on_c, 9, 44, 90
14, 105660, Note_off_c, 9, 44, 0
14, 105684, Note_on_c, 9, 44, 44
14, 105736, Note_off_c, 9, 44, 0
14, 105784, Note_on_c, 9, 44, 75
14, 105836, Note_off_c, 9, 44, 0
14, 105876, Note_on_c, 9, 44, 54
14, 105944, Note_off_c, 9, 44, 0
14, 105972, Note_on_c, 9, 44, 85
14, 106044, Note_off_c, 9, 44, 0
14, 106068, Note_on_c, 9, 44, 62
14, 106132, Note_off_c, 9, 44, 0
14, 106164, Note_on_c, 9, 44, 66
14, 106212, Note_off_c, 9, 44, 0
14, 106260, Note_on_c, 9, 44, 58
14, 106312, Note_off_c, 9, 44, 0
14, 106356, Note_on_c, 9, 44, 96
14, 106420, Note_off_c, 9, 44, 0
14, 106452, Note_on_c, 9, 44, 58
14, 106508, Note_off_c, 9, 44, 0
14, 106548, Note_on_c, 9, 44, 62
14, 106588, Note_off_c, 9, 44, 0
14, 106644, Note_on_c, 9, 44, 58
14, 106700, Note_off_c, 9, 44, 0
14, 106740, Note_on_c, 9, 44, 90
14, 106812, Note_off_c, 9, 44, 0
14, 106836, Note_on_c, 9, 44, 20
14, 106876, Note_off_c, 9, 44, 0
14, 106932, Note_on_c, 9, 44, 44
14, 106964, Note_off_c, 9, 44, 0
14, 107028, Note_on_c, 9, 44, 62
14, 107096, Note_off_c, 9, 44, 0
14, 107124, Note_on_c, 9, 44, 90
14, 107196, Note_off_c, 9, 44, 0
14, 107220, Note_on_c, 9, 44, 40
14, 107288, Note_off_c, 9, 44, 0
14, 107316, Note_on_c, 9, 44, 62
14, 107364, Note_off_c, 9, 44, 0
14, 107412, Note_on_c, 9, 44, 62
14, 107484, Note_off_c, 9, 44, 0
14, 107508, Note_on_c, 9, 44, 96
14, 107588, Note_off_c, 9, 44, 0
14, 107604, Note_on_c, 9, 44, 62
14, 107676, Note_off_c, 9, 44, 0
14, 107700, Note_on_c, 9, 44, 75
14, 107752, Note_off_c, 9, 44, 0
14, 107796, Note_on_c, 9, 44, 58
14, 107864, Note_off_c, 9, 44, 0
14, 107892, Note_on_c, 9, 44, 96
14, 107968, Note_off_c, 9, 44, 0
14, 107988, Note_on_c, 9, 44, 62
14, 108056, Note_off_c, 9, 44, 0
14, 108084, Note_on_c, 9, 44, 80
14, 108140, Note_off_c, 9, 44, 0
14, 108180, Note_on_c, 9, 44, 54
14, 108244, Note_off_c, 9, 44, 0
14, 108276, Note_on_c, 9, 44, 80
14, 108348, Note_off_c, 9, 44, 0
14, 108372, Note_on_c, 9, 44, 54
14, 108440, Note_off_c, 9, 44, 0
14, 108468, Note_on_c, 9, 44, 62
14, 108524, Note_off_c, 9, 44, 0
14, 108564, Note_on_c, 9, 44, 54
14, 108620, Note_off_c, 9, 44, 0
14, 108664, Note_on_c, 9, 44, 90
14, 108736, Note_off_c, 9, 44, 0
14, 108756, Note_on_c, 9, 44, 54
14, 108812, Note_off_c, 9, 44, 0
14, 108852, Note_on_c, 9, 44, 80
14, 108904, Note_off_c, 9, 44, 0
14, 108948, Note_on_c, 9, 44, 47
14, 109004, Note_off_c, 9, 44, 0
14, 109044, Note_on_c, 9, 44, 85
14, 109116, Note_off_c, 9, 44, 0
14, 109140, Note_on_c, 9, 44, 58
14, 109208, Note_off_c, 9, 44, 0
14, 109236, Note_on_c, 9, 44, 58
14, 109280, Note_off_c, 9, 44, 0
14, 109332, Note_on_c, 9, 44, 54
14, 109388, Note_off_c, 9, 44, 0
14, 109428, Note_on_c, 9, 44, 90
14, 109500, Note_off_c, 9, 44, 0
14, 109524, Note_on_c, 9, 44, 75
14, 109596, Note_off_c, 9, 44, 0
14, 109620, Note_on_c, 9, 44, 80
14, 109676, Note_off_c, 9, 44, 0
14, 109716, Note_on_c, 9, 44, 47
14, 109760, Note_off_c, 9, 44, 0
14, 109812, Note_on_c, 9, 44, 75
14, 109880, Note_off_c, 9, 44, 0
14, 109908, Note_on_c, 9, 44, 35
14, 109964, Note_off_c, 9, 44, 0
14, 110004, Note_on_c, 9, 44, 66
14, 110052, Note_off_c, 9, 44, 0
14, 110100, Note_on_c, 9, 44, 75
14, 110164, Note_off_c, 9, 44, 0
14, 110192, Note_on_c, 9, 44, 90
14, 110268, Note_off_c, 9, 44, 0
14, 110292, Note_on_c, 9, 44, 66
14, 110344, Note_off_c, 9, 44, 0
14, 110388, Note_on_c, 9, 44, 66
14, 110440, Note_off_c, 9, 44, 0
14, 110484, Note_on_c, 9, 44, 54
14, 110528, Note_off_c, 9, 44, 0
14, 110584, Note_on_c, 9, 44, 80
14, 110652, Note_off_c, 9, 44, 0
14, 110684, Note_on_c, 9, 44, 47
14, 110732, Note_off_c, 9, 44, 0
14, 110768, Note_on_c, 9, 44, 70
14, 110816, Note_off_c, 9, 44, 0
14, 110868, Note_on_c, 9, 44, 58
14, 110924, Note_off_c, 9, 44, 0
14, 110964, Note_on_c, 9, 44, 85
14, 111024, Note_off_c, 9, 44, 0
14, 111060, Note_on_c, 9, 44, 37
14, 111116, Note_off_c, 9, 44, 0
14, 111156, Note_on_c, 9, 44, 66
14, 111212, Note_off_c, 9, 44, 0
14, 111252, Note_on_c, 9, 44, 58
14, 111300, Note_off_c, 9, 44, 0
14, 111348, Note_on_c, 9, 44, 80
14, 111420, Note_off_c, 9, 44, 0
14, 111444, Note_on_c, 9, 44, 35
14, 111500, Note_off_c, 9, 44, 0
14, 111540, Note_on_c, 9, 44, 58
14, 111588, Note_off_c, 9, 44, 0
14, 111640, Note_on_c, 9, 44, 50
14, 111692, Note_off_c, 9, 44, 0
14, 111740, Note_on_c, 9, 44, 80
14, 111804, Note_off_c, 9, 44, 0
14, 111828, Note_on_c, 9, 44, 37
14, 111884, Note_off_c, 9, 44, 0
14, 111920, Note_on_c, 9, 44, 70
14, 111976, Note_off_c, 9, 44, 0
14, 112020, Note_on_c, 9, 44, 50
14, 112076, Note_off_c, 9, 44, 0
14, 112116, Note_on_c, 9, 44, 85
14, 112176, Note_off_c, 9, 44, 0
14, 112212, Note_on_c, 9, 44, 32
14, 112264, Note_off_c, 9, 44, 0
14, 112308, Note_on_c, 9, 44, 58
14, 112352, Note_off_c, 9, 44, 0
14, 112404, Note_on_c, 9, 44, 47
14, 112460, Note_off_c, 9, 44, 0
14, 112496, Note_on_c, 9, 44, 80
14, 112564, Note_off_c, 9, 44, 0
14, 112596, Note_on_c, 9, 44, 50
14, 112648, Note_off_c, 9, 44, 0
14, 112692, Note_on_c, 9, 44, 66
14, 112736, Note_off_c, 9, 44, 0
14, 112788, Note_on_c, 9, 44, 61
14, 112828, Note_off_c, 9, 44, 0
14, 112888, Note_on_c, 9, 44, 80
14, 112936, Note_off_c, 9, 44, 0
14, 112980, Note_on_c, 9, 44, 49
14, 113032, Note_off_c, 9, 44, 0
14, 113076, Note_on_c, 9, 44, 62
14, 113120, Note_off_c, 9, 44, 0
14, 113172, Note_on_c, 9, 44, 47
14, 113216, Note_off_c, 9, 44, 0
14, 113268, Note_on_c, 9, 44, 96
14, 113340, Note_off_c, 9, 44, 0
14, 113364, Note_on_c, 9, 44, 44
14, 113432, Note_off_c, 9, 44, 0
14, 113460, Note_on_c, 9, 44, 52
14, 113484, Note_off_c, 9, 44, 0
14, 113556, Note_on_c, 9, 44, 44
14, 113612, Note_off_c, 9, 44, 0
14, 113652, Note_on_c, 9, 44, 80
14, 113720, Note_off_c, 9, 44, 0
14, 113748, Note_on_c, 9, 44, 44
14, 113804, Note_off_c, 9, 44, 0
14, 113848, Note_on_c, 9, 44, 66
14, 113888, Note_off_c, 9, 44, 0
14, 113944, Note_on_c, 9, 44, 54
14, 113996, Note_off_c, 9, 44, 0
14, 114036, Note_on_c, 9, 44, 80
14, 114104, Note_off_c, 9, 44, 0
14, 114132, Note_on_c, 9, 44, 32
14, 114184, Note_off_c, 9, 44, 0
14, 114232, Note_on_c, 9, 44, 70
14, 114280, Note_off_c, 9, 44, 0
14, 114324, Note_on_c, 9, 44, 50
14, 114380, Note_off_c, 9, 44, 0
14, 114420, Note_on_c, 9, 44, 85
14, 114492, Note_off_c, 9, 44, 0
14, 114516, Note_on_c, 9, 44, 44
14, 114580, Note_off_c, 9, 44, 0
14, 114616, Note_on_c, 9, 44, 58
14, 114652, Note_off_c, 9, 44, 0
14, 114708, Note_on_c, 9, 44, 50
14, 114768, Note_off_c, 9, 44, 0
14, 114804, Note_on_c, 9, 44, 80
14, 114872, Note_off_c, 9, 44, 0
14, 114908, Note_on_c, 9, 44, 50
14, 114964, Note_off_c, 9, 44, 0
14, 114996, Note_on_c, 9, 44, 62
14, 115036, Note_off_c, 9, 44, 0
14, 115092, Note_on_c, 9, 44, 58
14, 115152, Note_off_c, 9, 44, 0
14, 115188, Note_on_c, 9, 44, 80
14, 115260, Note_off_c, 9, 44, 0
14, 115284, Note_on_c, 9, 44, 50
14, 115340, Note_off_c, 9, 44, 0
14, 115380, Note_on_c, 9, 44, 62
14, 115432, Note_off_c, 9, 44, 0
14, 115476, Note_on_c, 9, 44, 50
14, 115540, Note_off_c, 9, 44, 0
14, 115572, Note_on_c, 9, 44, 85
14, 115644, Note_off_c, 9, 44, 0
14, 115668, Note_on_c, 9, 44, 47
14, 115732, Note_off_c, 9, 44, 0
14, 115760, Note_on_c, 9, 44, 66
14, 115816, Note_off_c, 9, 44, 0
14, 115860, Note_on_c, 9, 44, 54
14, 115932, Note_off_c, 9, 44, 0
14, 115956, Note_on_c, 9, 44, 75
14, 116028, Note_off_c, 9, 44, 0
14, 116052, Note_on_c, 9, 44, 47
14, 116112, Note_off_c, 9, 44, 0
14, 116148, Note_on_c, 9, 44, 66
14, 116192, Note_off_c, 9, 44, 0
14, 116244, Note_on_c, 9, 44, 50
14, 116308, Note_off_c, 9, 44, 0
14, 116340, Note_on_c, 9, 44, 80
14, 116412, Note_off_c, 9, 44, 0
14, 116436, Note_on_c, 9, 44, 44
14, 116492, Note_off_c, 9, 44, 0
14, 116532, Note_on_c, 9, 44, 62
14, 116580, Note_off_c, 9, 44, 0
14, 116624, Note_on_c, 9, 44, 54
14, 116696, Note_off_c, 9, 44, 0
14, 116724, Note_on_c, 9, 44, 70
14, 116796, Note_off_c, 9, 44, 0
14, 116820, Note_on_c, 9, 44, 47
14, 116888, Note_off_c, 9, 44, 0
14, 116916, Note_on_c, 9, 44, 66
14, 116972, Note_off_c, 9, 44, 0
14, 117012, Note_on_c, 9, 44, 50
14, 117076, Note_off_c, 9, 44, 0
14, 117108, Note_on_c, 9, 44, 80
14, 117180, Note_off_c, 9, 44, 0
14, 117204, Note_on_c, 9, 44, 47
14, 117268, Note_off_c, 9, 44, 0
14, 117304, Note_on_c, 9, 44, 62
14, 117348, Note_off_c, 9, 44, 0
14, 117396, Note_on_c, 9, 44, 47
14, 117452, Note_off_c, 9, 44, 0
14, 117492, Note_on_c, 9, 44, 75
14, 117564, Note_off_c, 9, 44, 0
14, 117588, Note_on_c, 9, 44, 52
14, 117644, Note_off_c, 9, 44, 0
14, 117684, Note_on_c, 9, 44, 58
14, 117716, Note_off_c, 9, 44, 0
14, 117780, Note_on_c, 9, 44, 62
14, 117840, Note_off_c, 9, 44, 0
14, 117880, Note_on_c, 9, 44, 80
14, 117948, Note_off_c, 9, 44, 0
14, 117972, Note_on_c, 9, 44, 62
14, 118040, Note_off_c, 9, 44, 0
14, 118068, Note_on_c, 9, 44, 58
14, 118112, Note_off_c, 9, 44, 0
14, 118164, Note_on_c, 9, 44, 62
14, 118212, Note_off_c, 9, 44, 0
14, 118260, Note_on_c, 9, 44, 80
14, 118328, Note_off_c, 9, 44, 0
14, 118344, Note_on_c, 9, 44, 75
14, 118420, Note_off_c, 9, 44, 0
14, 118452, Note_on_c, 9, 44, 58
14, 118500, Note_off_c, 9, 44, 0
14, 118548, Note_on_c, 9, 44, 70
14, 118592, Note_off_c, 9, 44, 0
14, 118644, Note_on_c, 9, 44, 80
14, 118716, Note_off_c, 9, 44, 0
14, 118740, Note_on_c, 9, 44, 70
14, 118804, Note_off_c, 9, 44, 0
14, 118836, Note_on_c, 9, 44, 58
14, 118892, Note_off_c, 9, 44, 0
14, 118932, Note_on_c, 9, 44, 47
14, 118984, Note_off_c, 9, 44, 0
14, 119028, Note_on_c, 9, 44, 80
14, 119100, Note_off_c, 9, 44, 0
14, 119124, Note_on_c, 9, 44, 47
14, 119180, Note_off_c, 9, 44, 0
14, 119220, Note_on_c, 9, 44, 58
14, 119268, Note_off_c, 9, 44, 0
14, 119316, Note_on_c, 9, 44, 50
14, 119372, Note_off_c, 9, 44, 0
14, 119412, Note_on_c, 9, 44, 80
14, 119484, Note_off_c, 9, 44, 0
14, 119508, Note_on_c, 9, 44, 58
14, 119576, Note_off_c, 9, 44, 0
14, 119604, Note_on_c, 9, 44, 62
14, 119652, Note_off_c, 9, 44, 0
14, 119700, Note_on_c, 9, 44, 44
14, 119748, Note_off_c, 9, 44, 0
14, 119796, Note_on_c, 9, 44, 80
14, 119868, Note_off_c, 9, 44, 0
14, 119892, Note_on_c, 9, 44, 44
14, 119956, Note_off_c, 9, 44, 0
14, 119988, Note_on_c, 9, 44, 70
14, 120040, Note_off_c, 9, 44, 0
14, 120084, Note_on_c, 9, 44, 47
14, 120140, Note_off_c, 9, 44, 0
14, 120180, Note_on_c, 9, 44, 75
14, 120248, Note_off_c, 9, 44, 0
14, 120276, Note_on_c, 9, 44, 62
14, 120340, Note_off_c, 9, 44, 0
14, 120372, Note_on_c, 9, 44, 66
14, 120424, Note_off_c, 9, 44, 0
14, 120468, Note_on_c, 9, 44, 47
14, 120520, Note_off_c, 9, 44, 0
14, 120568, Note_on_c, 9, 44, 75
14, 120636, Note_off_c, 9, 44, 0
14, 120660, Note_on_c, 9, 44, 58
14, 120716, Note_off_c, 9, 44, 0
14, 120756, Note_on_c, 9, 44, 66
14, 120804, Note_off_c, 9, 44, 0
14, 120852, Note_on_c, 9, 44, 47
14, 120904, Note_off_c, 9, 44, 0
14, 120948, Note_on_c, 9, 44, 80
14, 121020, Note_off_c, 9, 44, 0
14, 121044, Note_on_c, 9, 44, 58
14, 121108, Note_off_c, 9, 44, 0
14, 121140, Note_on_c, 9, 44, 62
14, 121196, Note_off_c, 9, 44, 0
14, 121236, Note_on_c, 9, 44, 47
14, 121300, Note_off_c, 9, 44, 0
14, 121332, Note_on_c, 9, 44, 75
14, 121412, Note_off_c, 9, 44, 0
14, 121428, Note_on_c, 9, 44, 75
14, 121500, Note_off_c, 9, 44, 0
14, 121524, Note_on_c, 9, 44, 70
14, 121572, Note_off_c, 9, 44, 0
14, 121620, Note_on_c, 9, 44, 50
14, 121676, Note_off_c, 9, 44, 0
14, 121716, Note_on_c, 9, 44, 80
14, 121788, Note_off_c, 9, 44, 0
14, 121812, Note_on_c, 9, 44, 50
14, 121876, Note_off_c, 9, 44, 0
14, 121908, Note_on_c, 9, 44, 62
14, 121952, Note_off_c, 9, 44, 0
14, 122004, Note_on_c, 9, 44, 37
14, 122056, Note_off_c, 9, 44, 0
14, 122100, Note_on_c, 9, 44, 75
14, 122172, Note_off_c, 9, 44, 0
14, 122196, Note_on_c, 9, 44, 47
14, 122268, Note_off_c, 9, 44, 0
14, 122292, Note_on_c, 9, 44, 62
14, 122344, Note_off_c, 9, 44, 0
14, 122388, Note_on_c, 9, 44, 40
14, 122440, Note_off_c, 9, 44, 0
14, 122484, Note_on_c, 9, 44, 80
14, 122556, Note_off_c, 9, 44, 0
14, 122580, Note_on_c, 9, 44, 44
14, 122648, Note_off_c, 9, 44, 0
14, 122676, Note_on_c, 9, 44, 58
14, 122720, Note_off_c, 9, 44, 0
14, 122772, Note_on_c, 9, 44, 47
14, 122828, Note_off_c, 9, 44, 0
14, 122868, Note_on_c, 9, 44, 85
14, 122940, Note_off_c, 9, 44, 0
14, 122964, Note_on_c, 9, 44, 50
14, 123016, Note_off_c, 9, 44, 0
14, 123060, Note_on_c, 9, 44, 70
14, 123108, Note_off_c, 9, 44, 0
14, 123156, Note_on_c, 9, 44, 50
14, 123220, Note_off_c, 9, 44, 0
14, 123252, Note_on_c, 9, 44, 85
14, 123332, Note_off_c, 9, 44, 0
14, 123348, Note_on_c, 9, 44, 58
14, 123400, Note_off_c, 9, 44, 0
14, 123444, Note_on_c, 9, 44, 62
14, 123492, Note_off_c, 9, 44, 0
14, 123540, Note_on_c, 9, 44, 54
14, 123596, Note_off_c, 9, 44, 0
14, 123636, Note_on_c, 9, 44, 75
14, 123704, Note_off_c, 9, 44, 0
14, 123732, Note_on_c, 9, 44, 44
14, 123780, Note_off_c, 9, 44, 0
14, 123828, Note_on_c, 9, 44, 66
14, 123868, Note_off_c, 9, 44, 0
14, 123924, Note_on_c, 9, 44, 50
14, 123964, Note_off_c, 9, 44, 0
14, 124020, Note_on_c, 9, 44, 80
14, 124084, Note_off_c, 9, 44, 0
14, 124116, Note_on_c, 9, 44, 62
14, 124172, Note_off_c, 9, 44, 0
14, 124212, Note_on_c, 9, 44, 62
14, 124252, Note_off_c, 9, 44, 0
14, 124308, Note_on_c, 9, 44, 54
14, 124360, Note_off_c, 9, 44, 0
14, 124408, Note_on_c, 9, 44, 75
14, 124468, Note_off_c, 9, 44, 0
14, 124500, Note_on_c, 9, 44, 66
14, 124564, Note_off_c, 9, 44, 0
14, 124596, Note_on_c, 9, 44, 54
14, 124644, Note_off_c, 9, 44, 0
14, 124692, Note_on_c, 9, 44, 47
14, 124744, Note_off_c, 9, 44, 0
14, 124788, Note_on_c, 9, 44, 75
14, 124860, Note_off_c, 9, 44, 0
14, 124884, Note_on_c, 9, 44, 44
14, 124936, Note_off_c, 9, 44, 0
14, 124980, Note_on_c, 9, 44, 50
14, 125032, Note_off_c, 9, 44, 0
14, 125076, Note_on_c, 9, 44, 62
14, 125128, Note_off_c, 9, 44, 0
14, 125172, Note_on_c, 9, 44, 85
14, 125240, Note_off_c, 9, 44, 0
14, 125268, Note_on_c, 9, 44, 37
14, 125312, Note_off_c, 9, 44, 0
14, 125364, Note_on_c, 9, 44, 54
14, 125404, Note_off_c, 9, 44, 0
14, 125460, Note_on_c, 9, 44, 62
14, 125520, Note_off_c, 9, 44, 0
14, 125556, Note_on_c, 9, 44, 90
14, 125628, Note_off_c, 9, 44, 0
14, 125652, Note_on_c, 9, 44, 62
14, 125716, Note_off_c, 9, 44, 0
14, 125748, Note_on_c, 9, 44, 62
14, 125800, Note_off_c, 9, 44, 0
14, 125844, Note_on_c, 9, 44, 58
14, 125900, Note_off_c, 9, 44, 0
14, 125952, Note_on_c, 9, 44, 85
14, 126012, Note_off_c, 9, 44, 0
14, 126036, Note_on_c, 9, 44, 62
14, 126100, Note_off_c, 9, 44, 0
14, 126132, Note_on_c, 9, 44, 66
14, 126180, Note_off_c, 9, 44, 0
14, 126228, Note_on_c, 9, 44, 66
14, 126296, Note_off_c, 9, 44, 0
14, 126324, Note_on_c, 9, 44, 80
14, 126396, Note_off_c, 9, 44, 0
14, 126420, Note_on_c, 9, 44, 75
14, 126488, Note_off_c, 9, 44, 0
14, 126516, Note_on_c, 9, 44, 85
14, 126576, Note_off_c, 9, 44, 0
14, 126612, Note_on_c, 9, 44, 67
14, 126664, Note_off_c, 9, 44, 0
14, 126708, Note_on_c, 9, 44, 80
14, 126780, Note_off_c, 9, 44, 0
14, 126804, Note_on_c, 9, 44, 62
14, 126868, Note_off_c, 9, 44, 0
14, 126900, Note_on_c, 9, 44, 66
14, 126948, Note_off_c, 9, 44, 0
14, 126996, Note_on_c, 9, 44, 50
14, 127056, Note_off_c, 9, 44, 0
14, 127092, Note_on_c, 9, 44, 80
14, 127172, Note_off_c, 9, 44, 0
14, 127188, Note_on_c, 9, 44, 61
14, 127224, Note_off_c, 9, 44, 0
14, 127284, Note_on_c, 9, 44, 66
14, 127340, Note_off_c, 9, 44, 0
14, 127380, Note_on_c, 9, 44, 50
14, 127452, Note_off_c, 9, 44, 0
14, 127476, Note_on_c, 9, 44, 80
14, 127548, Note_off_c, 9, 44, 0
14, 127572, Note_on_c, 9, 44, 44
14, 127640, Note_off_c, 9, 44, 0
14, 127668, Note_on_c, 9, 44, 75
14, 127720, Note_off_c, 9, 44, 0
14, 127764, Note_on_c, 9, 44, 58
14, 127828, Note_off_c, 9, 44, 0
14, 127860, Note_on_c, 9, 44, 90
14, 127944, Note_off_c, 9, 44, 0
14, 127956, Note_on_c, 9, 44, 35
14, 128028, Note_off_c, 9, 44, 0
14, 128052, Note_on_c, 9, 44, 66
14, 128108, Note_off_c, 9, 44, 0
14, 128148, Note_on_c, 9, 44, 62
14, 128216, Note_off_c, 9, 44, 0
14, 128244, Note_on_c, 9, 44, 85
14, 128316, Note_off_c, 9, 44, 0
14, 128340, Note_on_c, 9, 44, 47
14, 128396, Note_off_c, 9, 44, 0
14, 128436, Note_on_c, 9, 44, 66
14, 128488, Note_off_c, 9, 44, 0
14, 128532, Note_on_c, 9, 44, 58
14, 128600, Note_off_c, 9, 44, 0
14, 128628, Note_on_c, 9, 44, 90
14, 128700, Note_off_c, 9, 44, 0
14, 128724, Note_on_c, 9, 44, 37
14, 128780, Note_off_c, 9, 44, 0
14, 128820, Note_on_c, 9, 44, 80
14, 128872, Note_off_c, 9, 44, 0
14, 128916, Note_on_c, 9, 44, 54
14, 128984, Note_off_c, 9, 44, 0
14, 129016, Note_on_c, 9, 44, 85
14, 129084, Note_off_c, 9, 44, 0
14, 129108, Note_on_c, 9, 44, 47
14, 129176, Note_off_c, 9, 44, 0
14, 129204, Note_on_c, 9, 44, 75
14, 129268, Note_off_c, 9, 44, 0
14, 129300, Note_on_c, 9, 44, 40
14, 129368, Note_off_c, 9, 44, 0
14, 129396, Note_on_c, 9, 44, 85
14, 129468, Note_off_c, 9, 44, 0
14, 129492, Note_on_c, 9, 44, 47
14, 129560, Note_off_c, 9, 44, 0
14, 129588, Note_on_c, 9, 44, 80
14, 129644, Note_off_c, 9, 44, 0
14, 129684, Note_on_c, 9, 44, 62
14, 129752, Note_off_c, 9, 44, 0
14, 129780, Note_on_c, 9, 44, 80
14, 129860, Note_off_c, 9, 44, 0
14, 129876, Note_on_c, 9, 44, 37
14, 129940, Note_off_c, 9, 44, 0
14, 129972, Note_on_c, 9, 44, 58
14, 130028, Note_off_c, 9, 44, 0
14, 130068, Note_on_c, 9, 44, 50
14, 130132, Note_off_c, 9, 44, 0
14, 130168, Note_on_c, 9, 44, 85
14, 130236, Note_off_c, 9, 44, 0
14, 130260, Note_on_c, 9, 44, 62
14, 130328, Note_off_c, 9, 44, 0
14, 130356, Note_on_c, 9, 44, 58
14, 130408, Note_off_c, 9, 44, 0
14, 130452, Note_on_c, 9, 44, 47
14, 130508, Note_off_c, 9, 44, 0
14, 130552, Note_on_c, 9, 44, 85
14, 130616, Note_off_c, 9, 44, 0
14, 130644, Note_on_c, 9, 44, 47
14, 130712, Note_off_c, 9, 44, 0
14, 130740, Note_on_c, 9, 44, 80
14, 130792, Note_off_c, 9, 44, 0
14, 130836, Note_on_c, 9, 44, 54
14, 130892, Note_off_c, 9, 44, 0
14, 130932, Note_on_c, 9, 44, 90
14, 131008, Note_off_c, 9, 44, 0
14, 131028, Note_on_c, 9, 44, 37
14, 131084, Note_off_c, 9, 44, 0
14, 131124, Note_on_c, 9, 44, 70
14, 131172, Note_off_c, 9, 44, 0
14, 131220, Note_on_c, 9, 44, 44
14, 131272, Note_off_c, 9, 44, 0
14, 131316, Note_on_c, 9, 44, 80
14, 131388, Note_off_c, 9, 44, 0
14, 131412, Note_on_c, 9, 44, 58
14, 131468, Note_off_c, 9, 44, 0
14, 131508, Note_on_c, 9, 44, 66
14, 131564, Note_off_c, 9, 44, 0
14, 131608, Note_on_c, 9, 44, 58
14, 131672, Note_off_c, 9, 44, 0
14, 131700, Note_on_c, 9, 44, 90
14, 131772, Note_off_c, 9, 44, 0
14, 131796, Note_on_c, 9, 44, 58
14, 131852, Note_off_c, 9, 44, 0
14, 131892, Note_on_c, 9, 44, 80
14, 131940, Note_off_c, 9, 44, 0
14, 131988, Note_on_c, 9, 44, 44
14, 132044, Note_off_c, 9, 44, 0
14, 132088, Note_on_c, 9, 44, 80
14, 132156, Note_off_c, 9, 44, 0
14, 132180, Note_on_c, 9, 44, 66
14, 132248, Note_off_c, 9, 44, 0
14, 132276, Note_on_c, 9, 44, 75
14, 132320, Note_off_c, 9, 44, 0
14, 132372, Note_on_c, 9, 44, 50
14, 132424, Note_off_c, 9, 44, 0
14, 132468, Note_on_c, 9, 44, 90
14, 132540, Note_off_c, 9, 44, 0
14, 132564, Note_on_c, 9, 44, 44
14, 132620, Note_off_c, 9, 44, 0
14, 132660, Note_on_c, 9, 44, 75
14, 132716, Note_off_c, 9, 44, 0
14, 132752, Note_on_c, 9, 44, 37
14, 132812, Note_off_c, 9, 44, 0
14, 132856, Note_on_c, 9, 44, 85
14, 132924, Note_off_c, 9, 44, 0
14, 132948, Note_on_c, 9, 44, 44
14, 133012, Note_off_c, 9, 44, 0
14, 133044, Note_on_c, 9, 44, 75
14, 133100, Note_off_c, 9, 44, 0
14, 133140, Note_on_c, 9, 44, 44
14, 133196, Note_off_c, 9, 44, 0
14, 133236, Note_on_c, 9, 44, 96
14, 133304, Note_off_c, 9, 44, 0
14, 133332, Note_on_c, 9, 44, 75
14, 133404, Note_off_c, 9, 44, 0
14, 133428, Note_on_c, 9, 44, 85
14, 133484, Note_off_c, 9, 44, 0
14, 133524, Note_on_c, 9, 44, 44
14, 133580, Note_off_c, 9, 44, 0
14, 133620, Note_on_c, 9, 44, 90
14, 133700, Note_off_c, 9, 44, 0
14, 133716, Note_on_c, 9, 44, 47
14, 133768, Note_off_c, 9, 44, 0
14, 133812, Note_on_c, 9, 44, 66
14, 133864, Note_off_c, 9, 44, 0
14, 133920, Note_on_c, 9, 44, 47
14, 133960, Note_off_c, 9, 44, 0
14, 134004, Note_on_c, 9, 44, 85
14, 134076, Note_off_c, 9, 44, 0
14, 134100, Note_on_c, 9, 44, 54
14, 134160, Note_off_c, 9, 44, 0
14, 134196, Note_on_c, 9, 44, 75
14, 134248, Note_off_c, 9, 44, 0
14, 134296, Note_on_c, 9, 44, 40
14, 134340, Note_off_c, 9, 44, 0
14, 134388, Note_on_c, 9, 44, 85
14, 134460, Note_off_c, 9, 44, 0
14, 134480, Note_on_c, 9, 44, 62
14, 134548, Note_off_c, 9, 44, 0
14, 134584, Note_on_c, 9, 44, 62
14, 134632, Note_off_c, 9, 44, 0
14, 134676, Note_on_c, 9, 44, 35
14, 134732, Note_off_c, 9, 44, 0
14, 134772, Note_on_c, 9, 44, 85
14, 134844, Note_off_c, 9, 44, 0
14, 134868, Note_on_c, 9, 44, 50
14, 134924, Note_off_c, 9, 44, 0
14, 134964, Note_on_c, 9, 44, 70
14, 135012, Note_off_c, 9, 44, 0
14, 135060, Note_on_c, 9, 44, 47
14, 135124, Note_off_c, 9, 44, 0
14, 135156, Note_on_c, 9, 44, 80
14, 135228, Note_off_c, 9, 44, 0
14, 135256, Note_on_c, 9, 44, 35
14, 135320, Note_off_c, 9, 44, 0
14, 135352, Note_on_c, 9, 44, 80
14, 135396, Note_off_c, 9, 44, 0
14, 135444, Note_on_c, 9, 44, 54
14, 135508, Note_off_c, 9, 44, 0
14, 135540, Note_on_c, 9, 44, 96
14, 135612, Note_off_c, 9, 44, 0
14, 135636, Note_on_c, 9, 44, 50
14, 135708, Note_off_c, 9, 44, 0
14, 135736, Note_on_c, 9, 44, 80
14, 135780, Note_off_c, 9, 44, 0
14, 135828, Note_on_c, 9, 44, 50
14, 135884, Note_off_c, 9, 44, 0
14, 135924, Note_on_c, 9, 44, 96
14, 135996, Note_off_c, 9, 44, 0
14, 136020, Note_on_c, 9, 44, 37
14, 136076, Note_off_c, 9, 44, 0
14, 136120, Note_on_c, 9, 44, 75
14, 136160, Note_off_c, 9, 44, 0
14, 136212, Note_on_c, 9, 44, 50
14, 136264, Note_off_c, 9, 44, 0
14, 136296, Note_on_c, 9, 44, 96
14, 136384, Note_off_c, 9, 44, 0
14, 136404, Note_on_c, 9, 44, 58
14, 136468, Note_off_c, 9, 44, 0
14, 136500, Note_on_c, 9, 44, 80
14, 136552, Note_off_c, 9, 44, 0
14, 136596, Note_on_c, 9, 44, 44
14, 136656, Note_off_c, 9, 44, 0
14, 136700, Note_on_c, 9, 44, 80
14, 136764, Note_off_c, 9, 44, 0
14, 136788, Note_on_c, 9, 44, 62
14, 136856, Note_off_c, 9, 44, 0
14, 136884, Note_on_c, 9, 44, 62
14, 136924, Note_off_c, 9, 44, 0
14, 136988, Note_on_c, 9, 44, 54
14, 137044, Note_off_c, 9, 44, 0
14, 137076, Note_on_c, 9, 44, 90
14, 137152, Note_off_c, 9, 44, 0
14, 137176, Note_on_c, 9, 44, 44
14, 137228, Note_off_c, 9, 44, 0
14, 137264, Note_on_c, 9, 44, 58
14, 137320, Note_off_c, 9, 44, 0
14, 137364, Note_on_c, 9, 44, 47
14, 137412, Note_off_c, 9, 44, 0
14, 137460, Note_on_c, 9, 44, 80
14, 137536, Note_off_c, 9, 44, 0
14, 137556, Note_on_c, 9, 44, 50
14, 137620, Note_off_c, 9, 44, 0
14, 137660, Note_on_c, 9, 44, 58
14, 137696, Note_off_c, 9, 44, 0
14, 137748, Note_on_c, 9, 44, 54
14, 137816, Note_off_c, 9, 44, 0
14, 137848, Note_on_c, 9, 44, 90
14, 137924, Note_off_c, 9, 44, 0
14, 137940, Note_on_c, 9, 44, 44
14, 138000, Note_off_c, 9, 44, 0
14, 138036, Note_on_c, 9, 44, 62
14, 138092, Note_off_c, 9, 44, 0
14, 138132, Note_on_c, 9, 44, 50
14, 138196, Note_off_c, 9, 44, 0
14, 138228, Note_on_c, 9, 44, 75
14, 138296, Note_off_c, 9, 44, 0
14, 138324, Note_on_c, 9, 44, 50
14, 138392, Note_off_c, 9, 44, 0
14, 138424, Note_on_c, 9, 44, 70
14, 138464, Note_off_c, 9, 44, 0
14, 138516, Note_on_c, 9, 44, 54
14, 138564, Note_off_c, 9, 44, 0
14, 138612, Note_on_c, 9, 44, 80
14, 138684, Note_off_c, 9, 44, 0
14, 138708, Note_on_c, 9, 44, 62
14, 138776, Note_off_c, 9, 44, 0
14, 138808, Note_on_c, 9, 44, 70
14, 138856, Note_off_c, 9, 44, 0
14, 138900, Note_on_c, 9, 44, 54
14, 138968, Note_off_c, 9, 44, 0
14, 138996, Note_on_c, 9, 44, 70
14, 139076, Note_off_c, 9, 44, 0
14, 139092, Note_on_c, 9, 44, 40
14, 139148, Note_off_c, 9, 44, 0
14, 139188, Note_on_c, 9, 44, 58
14, 139240, Note_off_c, 9, 44, 0
14, 139284, Note_on_c, 9, 44, 62
14, 139352, Note_off_c, 9, 44, 0
14, 139380, Note_on_c, 9, 44, 85
14, 139452, Note_off_c, 9, 44, 0
14, 139476, Note_on_c, 9, 44, 47
14, 139532, Note_off_c, 9, 44, 0
14, 139572, Note_on_c, 9, 44, 62
14, 139620, Note_off_c, 9, 44, 0
14, 139668, Note_on_c, 9, 44, 47
14, 139724, Note_off_c, 9, 44, 0
14, 139764, Note_on_c, 9, 44, 80
14, 139836, Note_off_c, 9, 44, 0
14, 139860, Note_on_c, 9, 44, 54
14, 139928, Note_off_c, 9, 44, 0
14, 139956, Note_on_c, 9, 44, 75
14, 140008, Note_off_c, 9, 44, 0
14, 140052, Note_on_c, 9, 44, 62
14, 140116, Note_off_c, 9, 44, 0
14, 140148, Note_on_c, 9, 44, 90
14, 140232, Note_off_c, 9, 44, 0
14, 140244, Note_on_c, 9, 44, 62
14, 140304, Note_off_c, 9, 44, 0
14, 140336, Note_on_c, 9, 44, 70
14, 140392, Note_off_c, 9, 44, 0
14, 140436, Note_on_c, 9, 44, 64
14, 140484, Note_off_c, 9, 44, 0
14, 140532, Note_on_c, 9, 44, 85
14, 140620, Note_off_c, 9, 44, 0
14, 140624, Note_on_c, 9, 44, 50
14, 140688, Note_off_c, 9, 44, 0
14, 140728, Note_on_c, 9, 44, 70
14, 140780, Note_off_c, 9, 44, 0
14, 140820, Note_on_c, 9, 44, 47
14, 140876, Note_off_c, 9, 44, 0
14, 140916, Note_on_c, 9, 44, 96
14, 140996, Note_off_c, 9, 44, 0
14, 141012, Note_on_c, 9, 44, 58
14, 141068, Note_off_c, 9, 44, 0
14, 141108, Note_on_c, 9, 44, 62
14, 141152, Note_off_c, 9, 44, 0
14, 141204, Note_on_c, 9, 44, 54
14, 141260, Note_off_c, 9, 44, 0
14, 141300, Note_on_c, 9, 44, 96
14, 141372, Note_off_c, 9, 44, 0
14, 141396, Note_on_c, 9, 44, 47
14, 141448, Note_off_c, 9, 44, 0
14, 141492, Note_on_c, 9, 44, 70
14, 141540, Note_off_c, 9, 44, 0
14, 141588, Note_on_c, 9, 44, 62
14, 141636, Note_off_c, 9, 44, 0
14, 141684, Note_on_c, 9, 44, 90
14, 141756, Note_off_c, 9, 44, 0
14, 141784, Note_on_c, 9, 44, 75
14, 141852, Note_off_c, 9, 44, 0
14, 141876, Note_on_c, 9, 44, 62
14, 141932, Note_off_c, 9, 44, 0
14, 141972, Note_on_c, 9, 44, 44
14, 142028, Note_off_c, 9, 44, 0
14, 142068, Note_on_c, 9, 44, 75
14, 142140, Note_off_c, 9, 44, 0
14, 142164, Note_on_c, 9, 44, 44
14, 142216, Note_off_c, 9, 44, 0
14, 142260, Note_on_c, 9, 44, 70
14, 142316, Note_off_c, 9, 44, 0
14, 142356, Note_on_c, 9, 44, 47
14, 142412, Note_off_c, 9, 44, 0
14, 142452, Note_on_c, 9, 44, 96
14, 142536, Note_off_c, 9, 44, 0
14, 142548, Note_on_c, 9, 44, 62
14, 142608, Note_off_c, 9, 44, 0
14, 142644, Note_on_c, 9, 44, 66
14, 142688, Note_off_c, 9, 44, 0
14, 142740, Note_on_c, 9, 44, 44
14, 142796, Note_off_c, 9, 44, 0
14, 142840, Note_on_c, 9, 44, 96
14, 142912, Note_off_c, 9, 44, 0
14, 142932, Note_on_c, 9, 44, 62
14, 142996, Note_off_c, 9, 44, 0
14, 143028, Note_on_c, 9, 44, 58
14, 143072, Note_off_c, 9, 44, 0
14, 143124, Note_on_c, 9, 44, 54
14, 143176, Note_off_c, 9, 44, 0
14, 143220, Note_on_c, 9, 44, 90
14, 143304, Note_off_c, 9, 44, 0
14, 143320, Note_on_c, 9, 44, 58
14, 143372, Note_off_c, 9, 44, 0
14, 143412, Note_on_c, 9, 44, 70
14, 143464, Note_off_c, 9, 44, 0
14, 143512, Note_on_c, 9, 44, 54
14, 143576, Note_off_c, 9, 44, 0
14, 143604, Note_on_c, 9, 44, 96
14, 143684, Note_off_c, 9, 44, 0
14, 143700, Note_on_c, 9, 44, 47
14, 143756, Note_off_c, 9, 44, 0
14, 143796, Note_on_c, 9, 44, 66
14, 143844, Note_off_c, 9, 44, 0
14, 143892, Note_on_c, 9, 44, 54
14, 143944, Note_off_c, 9, 44, 0
14, 143988, Note_on_c, 9, 44, 90
14, 144060, Note_off_c, 9, 44, 0
14, 144084, Note_on_c, 9, 44, 50
14, 144148, Note_off_c, 9, 44, 0
14, 144180, Note_on_c, 9, 44, 62
14, 144228, Note_off_c, 9, 44, 0
14, 144276, Note_on_c, 9, 44, 47
14, 144332, Note_off_c, 9, 44, 0
14, 144372, Note_on_c, 9, 44, 80
14, 144444, Note_off_c, 9, 44, 0
14, 144468, Note_on_c, 9, 44, 47
14, 144516, Note_off_c, 9, 44, 0
14, 144568, Note_on_c, 9, 44, 50
14, 144604, Note_off_c, 9, 44, 0
14, 144660, Note_on_c, 9, 44, 54
14, 144708, Note_off_c, 9, 44, 0
14, 144756, Note_on_c, 9, 44, 96
14, 144828, Note_off_c, 9, 44, 0
14, 144852, Note_on_c, 9, 44, 32
14, 144900, Note_off_c, 9, 44, 0
14, 144952, Note_on_c, 9, 44, 62
14, 144992, Note_off_c, 9, 44, 0
14, 145044, Note_on_c, 9, 44, 62
14, 145116, Note_off_c, 9, 44, 0
14, 145144, Note_on_c, 9, 44, 80
14, 145220, Note_off_c, 9, 44, 0
14, 145240, Note_on_c, 9, 44, 58
14, 145300, Note_off_c, 9, 44, 0
14, 145332, Note_on_c, 9, 44, 70
14, 145380, Note_off_c, 9, 44, 0
14, 145428, Note_on_c, 9, 44, 47
14, 145484, Note_off_c, 9, 44, 0
14, 145524, Note_on_c, 9, 44, 90
14, 145596, Note_off_c, 9, 44, 0
14, 145620, Note_on_c, 9, 44, 70
14, 145684, Note_off_c, 9, 44, 0
14, 145716, Note_on_c, 9, 44, 62
14, 145764, Note_off_c, 9, 44, 0
14, 145812, Note_on_c, 9, 44, 50
14, 145880, Note_off_c, 9, 44, 0
14, 145908, Note_on_c, 9, 44, 85
14, 145988, Note_off_c, 9, 44, 0
14, 146004, Note_on_c, 9, 44, 35
14, 146056, Note_off_c, 9, 44, 0
14, 146100, Note_on_c, 9, 44, 62
14, 146140, Note_off_c, 9, 44, 0
14, 146196, Note_on_c, 9, 44, 58
14, 146252, Note_off_c, 9, 44, 0
14, 146292, Note_on_c, 9, 44, 90
14, 146364, Note_off_c, 9, 44, 0
14, 146388, Note_on_c, 9, 44, 44
14, 146440, Note_off_c, 9, 44, 0
14, 146484, Note_on_c, 9, 44, 70
14, 146528, Note_off_c, 9, 44, 0
14, 146580, Note_on_c, 9, 44, 70
14, 146644, Note_off_c, 9, 44, 0
14, 146676, Note_on_c, 9, 44, 90
14, 146748, Note_off_c, 9, 44, 0
14, 146772, Note_on_c, 9, 44, 47
14, 146820, Note_off_c, 9, 44, 0
14, 146868, Note_on_c, 9, 44, 70
14, 146924, Note_off_c, 9, 44, 0
14, 146964, Note_on_c, 9, 44, 62
14, 147028, Note_off_c, 9, 44, 0
14, 147060, Note_on_c, 9, 44, 96
14, 147132, Note_off_c, 9, 44, 0
14, 147156, Note_on_c, 9, 44, 44
14, 147204, Note_off_c, 9, 44, 0
14, 147252, Note_on_c, 9, 44, 66
14, 147300, Note_off_c, 9, 44, 0
14, 147348, Note_on_c, 9, 44, 62
14, 147404, Note_off_c, 9, 44, 0
14, 147448, Note_on_c, 9, 44, 85
14, 147524, Note_off_c, 9, 44, 0
14, 147540, Note_on_c, 9, 44, 35
14, 147592, Note_off_c, 9, 44, 0
14, 147636, Note_on_c, 9, 44, 62
14, 147676, Note_off_c, 9, 44, 0
14, 147732, Note_on_c, 9, 44, 58
14, 147788, Note_off_c, 9, 44, 0
14, 147828, Note_on_c, 9, 44, 90
14, 147900, Note_off_c, 9, 44, 0
14, 147924, Note_on_c, 9, 44, 44
14, 147976, Note_off_c, 9, 44, 0
14, 148020, Note_on_c, 9, 44, 70
14, 148068, Note_off_c, 9, 44, 0
14, 148116, Note_on_c, 9, 44, 70
14, 148180, Note_off_c, 9, 44, 0
14, 148212, Note_on_c, 9, 44, 90
14, 148284, Note_off_c, 9, 44, 0
14, 148308, Note_on_c, 9, 44, 47
14, 148360, Note_off_c, 9, 44, 0
14, 148404, Note_on_c, 9, 44, 70
14, 148452, Note_off_c, 9, 44, 0
14, 148500, Note_on_c, 9, 44, 62
14, 148564, Note_off_c, 9, 44, 0
14, 148596, Note_on_c, 9, 44, 96
14, 148668, Note_off_c, 9, 44, 0
14, 148692, Note_on_c, 9, 44, 44
14, 148740, Note_off_c, 9, 44, 0
14, 148788, Note_on_c, 9, 44, 66
14, 148840, Note_off_c, 9, 44, 0
14, 148884, Note_on_c, 9, 44, 62
14, 148940, Note_off_c, 9, 44, 0
14, 148980, Note_on_c, 9, 44, 85
14, 149060, Note_off_c, 9, 44, 0
14, 149076, Note_on_c, 9, 44, 35
14, 149132, Note_off_c, 9, 44, 0
14, 149172, Note_on_c, 9, 44, 62
14, 149212, Note_off_c, 9, 44, 0
14, 149268, Note_on_c, 9, 44, 58
14, 149332, Note_off_c, 9, 44, 0
14, 149364, Note_on_c, 9, 44, 90
14, 149432, Note_off_c, 9, 44, 0
14, 149460, Note_on_c, 9, 44, 44
14, 149512, Note_off_c, 9, 44, 0
14, 149556, Note_on_c, 9, 44, 70
14, 149600, Note_off_c, 9, 44, 0
14, 149652, Note_on_c, 9, 44, 70
14, 149720, Note_off_c, 9, 44, 0
14, 149748, Note_on_c, 9, 44, 90
14, 149820, Note_off_c, 9, 44, 0
14, 149844, Note_on_c, 9, 44, 47
14, 149892, Note_off_c, 9, 44, 0
14, 149940, Note_on_c, 9, 44, 70
14, 149992, Note_off_c, 9, 44, 0
14, 150036, Note_on_c, 9, 44, 62
14, 150096, Note_off_c, 9, 44, 0
14, 150132, Note_on_c, 9, 44, 96
14, 150204, Note_off_c, 9, 44, 0
14, 150228, Note_on_c, 9, 44, 44
14, 150276, Note_off_c, 9, 44, 0
14, 150324, Note_on_c, 9, 44, 66
14, 150368, Note_off_c, 9, 44, 0
14, 150420, Note_on_c, 9, 44, 62
14, 150484, Note_off_c, 9, 44, 0
14, 150516, Note_on_c, 9, 44, 85
14, 150596, Note_off_c, 9, 44, 0
14, 150612, Note_on_c, 9, 44, 35
14, 150668, Note_off_c, 9, 44, 0
14, 150708, Note_on_c, 9, 44, 62
14, 150748, Note_off_c, 9, 44, 0
14, 150804, Note_on_c, 9, 44, 58
14, 150868, Note_off_c, 9, 44, 0
14, 150900, Note_on_c, 9, 44, 90
14, 150972, Note_off_c, 9, 44, 0
14, 150996, Note_on_c, 9, 44, 44
14, 151044, Note_off_c, 9, 44, 0
14, 151092, Note_on_c, 9, 44, 70
14, 151140, Note_off_c, 9, 44, 0
14, 151188, Note_on_c, 9, 44, 70
14, 151252, Note_off_c, 9, 44, 0
14, 151284, Note_on_c, 9, 44, 90
14, 151356, Note_off_c, 9, 44, 0
14, 151380, Note_on_c, 9, 44, 47
14, 151428, Note_off_c, 9, 44, 0
14, 151476, Note_on_c, 9, 44, 70
14, 151528, Note_off_c, 9, 44, 0
14, 151572, Note_on_c, 9, 44, 62
14, 151632, Note_off_c, 9, 44, 0
14, 151668, Note_on_c, 9, 44, 96
14, 151744, Note_off_c, 9, 44, 0
14, 151764, Note_on_c, 9, 44, 44
14, 151812, Note_off_c, 9, 44, 0
14, 151860, Note_on_c, 9, 44, 66
14, 151908, Note_off_c, 9, 44, 0
14, 151956, Note_on_c, 9, 44, 62
14, 152020, Note_off_c, 9, 44, 0
14, 152052, Note_on_c, 9, 44, 85
14, 152132, Note_off_c, 9, 44, 0
14, 152148, Note_on_c, 9, 44, 35
14, 152204, Note_off_c, 9, 44, 0
14, 152244, Note_on_c, 9, 44, 62
14, 152284, Note_off_c, 9, 44, 0
14, 152340, Note_on_c, 9, 44, 58
14, 152392, Note_off_c, 9, 44, 0
14, 152436, Note_on_c, 9, 44, 90
14, 152508, Note_off_c, 9, 44, 0
14, 152532, Note_on_c, 9, 44, 44
14, 152580, Note_off_c, 9, 44, 0
14, 152628, Note_on_c, 9, 44, 70
14, 152672, Note_off_c, 9, 44, 0
14, 152724, Note_on_c, 9, 44, 70
14, 152792, Note_off_c, 9, 44, 0
14, 152820, Note_on_c, 9, 44, 90
14, 152892, Note_off_c, 9, 44, 0
14, 152916, Note_on_c, 9, 44, 47
14, 152968, Note_off_c, 9, 44, 0
14, 153012, Note_on_c, 9, 44, 70
14, 153060, Note_off_c, 9, 44, 0
14, 153108, Note_on_c, 9, 44, 62
14, 153168, Note_off_c, 9, 44, 0
14, 153204, Note_on_c, 9, 44, 96
14, 153280, Note_off_c, 9, 44, 0
14, 153300, Note_on_c, 9, 44, 44
14, 153348, Note_off_c, 9, 44, 0
14, 153396, Note_on_c, 9, 44, 66
14, 153448, Note_off_c, 9, 44, 0
14, 153492, Note_on_c, 9, 44, 62
14, 153548, Note_off_c, 9, 44, 0
14, 153548, End_track
15, 0, Start_track
15, 0, Title_t, "B 2 "
15, 0, Control_c, 9, 0, 0
15, 0, Program_c, 9, 0
15, 0, Control_c, 9, 91, 100
15, 0, Key_signature, 0, "major"
15, 1912, Note_on_c, 9, 59, 44
15, 1952, Note_off_c, 9, 59, 0
15, 2296, Note_on_c, 9, 59, 44
15, 2336, Note_off_c, 9, 59, 0
15, 2684, Note_on_c, 9, 59, 44
15, 2724, Note_off_c, 9, 59, 0
15, 3064, Note_on_c, 9, 59, 44
15, 3112, Note_off_c, 9, 59, 0
15, 3448, Note_on_c, 9, 59, 44
15, 3488, Note_off_c, 9, 59, 0
15, 3832, Note_on_c, 9, 59, 44
15, 3876, Note_off_c, 9, 59, 0
15, 4216, Note_on_c, 9, 59, 44
15, 4256, Note_off_c, 9, 59, 0
15, 4604, Note_on_c, 9, 59, 44
15, 4644, Note_off_c, 9, 59, 0
15, 4984, Note_on_c, 9, 59, 44
15, 5024, Note_off_c, 9, 59, 0
15, 5368, Note_on_c, 9, 59, 44
15, 5408, Note_off_c, 9, 59, 0
15, 5752, Note_on_c, 9, 59, 44
15, 5792, Note_off_c, 9, 59, 0
15, 6136, Note_on_c, 9, 59, 44
15, 6180, Note_off_c, 9, 59, 0
15, 6520, Note_on_c, 9, 59, 44
15, 6568, Note_off_c, 9, 59, 0
15, 6904, Note_on_c, 9, 59, 44
15, 6944, Note_off_c, 9, 59, 0
15, 7288, Note_on_c, 9, 59, 44
15, 7328, Note_off_c, 9, 59, 0
15, 7676, Note_on_c, 9, 59, 44
15, 7712, Note_off_c, 9, 59, 0
15, 8056, Note_on_c, 9, 59, 44
15, 8100, Note_off_c, 9, 59, 0
15, 8440, Note_on_c, 9, 59, 44
15, 8484, Note_off_c, 9, 59, 0
15, 8828, Note_on_c, 9, 59, 44
15, 8872, Note_off_c, 9, 59, 0
15, 9208, Note_on_c, 9, 59, 44
15, 9248, Note_off_c, 9, 59, 0
15, 9592, Note_on_c, 9, 59, 44
15, 9632, Note_off_c, 9, 59, 0
15, 9980, Note_on_c, 9, 59, 44
15, 10020, Note_off_c, 9, 59, 0
15, 10364, Note_on_c, 9, 59, 44
15, 10404, Note_off_c, 9, 59, 0
15, 10748, Note_on_c, 9, 59, 44
15, 10784, Note_off_c, 9, 59, 0
15, 11128, Note_on_c, 9, 59, 44
15, 11168, Note_off_c, 9, 59, 0
15, 11516, Note_on_c, 9, 59, 44
15, 11556, Note_off_c, 9, 59, 0
15, 11904, Note_on_c, 9, 59, 44
15, 11940, Note_off_c, 9, 59, 0
15, 12280, Note_on_c, 9, 59, 44
15, 12320, Note_off_c, 9, 59, 0
15, 12668, Note_on_c, 9, 59, 44
15, 12704, Note_off_c, 9, 59, 0
15, 13056, Note_on_c, 9, 59, 44
15, 13092, Note_off_c, 9, 59, 0
15, 13432, Note_on_c, 9, 59, 44
15, 13472, Note_off_c, 9, 59, 0
15, 13820, Note_on_c, 9, 59, 44
15, 13856, Note_off_c, 9, 59, 0
15, 14200, Note_on_c, 9, 59, 44
15, 14248, Note_off_c, 9, 59, 0
15, 14588, Note_on_c, 9, 59, 44
15, 14624, Note_off_c, 9, 59, 0
15, 14976, Note_on_c, 9, 59, 44
15, 15008, Note_off_c, 9, 59, 0
15, 15352, Note_on_c, 9, 59, 44
15, 15392, Note_off_c, 9, 59, 0
15, 15736, Note_on_c, 9, 59, 44
15, 15776, Note_off_c, 9, 59, 0
15, 16120, Note_on_c, 9, 59, 44
15, 16160, Note_off_c, 9, 59, 0
15, 16508, Note_on_c, 9, 59, 44
15, 16552, Note_off_c, 9, 59, 0
15, 16892, Note_on_c, 9, 59, 44
15, 16932, Note_off_c, 9, 59, 0
15, 17272, Note_on_c, 9, 59, 44
15, 17312, Note_off_c, 9, 59, 0
15, 17660, Note_on_c, 9, 59, 44
15, 17700, Note_off_c, 9, 59, 0
15, 18044, Note_on_c, 9, 59, 44
15, 18084, Note_off_c, 9, 59, 0
15, 18424, Note_on_c, 9, 59, 44
15, 18464, Note_off_c, 9, 59, 0
15, 18816, Note_on_c, 9, 59, 44
15, 18848, Note_off_c, 9, 59, 0
15, 19196, Note_on_c, 9, 59, 44
15, 19236, Note_off_c, 9, 59, 0
15, 19576, Note_on_c, 9, 59, 44
15, 19616, Note_off_c, 9, 59, 0
15, 19960, Note_on_c, 9, 59, 44
15, 20000, Note_off_c, 9, 59, 0
15, 20344, Note_on_c, 9, 59, 44
15, 20388, Note_off_c, 9, 59, 0
15, 20728, Note_on_c, 9, 59, 44
15, 20772, Note_off_c, 9, 59, 0
15, 21112, Note_on_c, 9, 59, 44
15, 21152, Note_off_c, 9, 59, 0
15, 21500, Note_on_c, 9, 59, 44
15, 21536, Note_off_c, 9, 59, 0
15, 21880, Note_on_c, 9, 59, 44
15, 21928, Note_off_c, 9, 59, 0
15, 22264, Note_on_c, 9, 59, 44
15, 22304, Note_off_c, 9, 59, 0
15, 22652, Note_on_c, 9, 59, 44
15, 22688, Note_off_c, 9, 59, 0
15, 23036, Note_on_c, 9, 59, 44
15, 23080, Note_off_c, 9, 59, 0
15, 23416, Note_on_c, 9, 59, 44
15, 23456, Note_off_c, 9, 59, 0
15, 23800, Note_on_c, 9, 59, 44
15, 23840, Note_off_c, 9, 59, 0
15, 24184, Note_on_c, 9, 59, 44
15, 24224, Note_off_c, 9, 59, 0
15, 24568, Note_on_c, 9, 59, 44
15, 24612, Note_off_c, 9, 59, 0
15, 24952, Note_on_c, 9, 59, 44
15, 24996, Note_off_c, 9, 59, 0
15, 25336, Note_on_c, 9, 59, 44
15, 25376, Note_off_c, 9, 59, 0
15, 25720, Note_on_c, 9, 59, 44
15, 25760, Note_off_c, 9, 59, 0
15, 26104, Note_on_c, 9, 59, 44
15, 26144, Note_off_c, 9, 59, 0
15, 26488, Note_on_c, 9, 59, 44
15, 26528, Note_off_c, 9, 59, 0
15, 26872, Note_on_c, 9, 59, 44
15, 26916, Note_off_c, 9, 59, 0
15, 27256, Note_on_c, 9, 59, 44
15, 27292, Note_off_c, 9, 59, 0
15, 27640, Note_on_c, 9, 59, 44
15, 27684, Note_off_c, 9, 59, 0
15, 28028, Note_on_c, 9, 59, 44
15, 28072, Note_off_c, 9, 59, 0
15, 28412, Note_on_c, 9, 59, 44
15, 28452, Note_off_c, 9, 59, 0
15, 28792, Note_on_c, 9, 59, 44
15, 28832, Note_off_c, 9, 59, 0
15, 29176, Note_on_c, 9, 59, 44
15, 29216, Note_off_c, 9, 59, 0
15, 29560, Note_on_c, 9, 59, 44
15, 29604, Note_off_c, 9, 59, 0
15, 29944, Note_on_c, 9, 59, 44
15, 29984, Note_off_c, 9, 59, 0
15, 30328, Note_on_c, 9, 59, 44
15, 30368, Note_off_c, 9, 59, 0
15, 30712, Note_on_c, 9, 59, 44
15, 30760, Note_off_c, 9, 59, 0
15, 31096, Note_on_c, 9, 59, 44
15, 31136, Note_off_c, 9, 59, 0
15, 31484, Note_on_c, 9, 59, 44
15, 31520, Note_off_c, 9, 59, 0
15, 31864, Note_on_c, 9, 59, 44
15, 31908, Note_off_c, 9, 59, 0
15, 32248, Note_on_c, 9, 59, 44
15, 32292, Note_off_c, 9, 59, 0
15, 32632, Note_on_c, 9, 59, 44
15, 32672, Note_off_c, 9, 59, 0
15, 33016, Note_on_c, 9, 59, 44
15, 33056, Note_off_c, 9, 59, 0
15, 33400, Note_on_c, 9, 59, 44
15, 33444, Note_off_c, 9, 59, 0
15, 33784, Note_on_c, 9, 59, 44
15, 33824, Note_off_c, 9, 59, 0
15, 34168, Note_on_c, 9, 59, 44
15, 34212, Note_off_c, 9, 59, 0
15, 34552, Note_on_c, 9, 59, 44
15, 34596, Note_off_c, 9, 59, 0
15, 34936, Note_on_c, 9, 59, 44
15, 34980, Note_off_c, 9, 59, 0
15, 35320, Note_on_c, 9, 59, 44
15, 35360, Note_off_c, 9, 59, 0
15, 35704, Note_on_c, 9, 59, 44
15, 35748, Note_off_c, 9, 59, 0
15, 36088, Note_on_c, 9, 59, 44
15, 36132, Note_off_c, 9, 59, 0
15, 36476, Note_on_c, 9, 59, 44
15, 36512, Note_off_c, 9, 59, 0
15, 36856, Note_on_c, 9, 59, 44
15, 36896, Note_off_c, 9, 59, 0
15, 37240, Note_on_c, 9, 59, 44
15, 37288, Note_off_c, 9, 59, 0
15, 37624, Note_on_c, 9, 59, 44
15, 37664, Note_off_c, 9, 59, 0
15, 38008, Note_on_c, 9, 59, 44
15, 38052, Note_off_c, 9, 59, 0
15, 38396, Note_on_c, 9, 59, 44
15, 38432, Note_off_c, 9, 59, 0
15, 38776, Note_on_c, 9, 59, 44
15, 38820, Note_off_c, 9, 59, 0
15, 39168, Note_on_c, 9, 59, 44
15, 39200, Note_off_c, 9, 59, 0
15, 39548, Note_on_c, 9, 59, 44
15, 39584, Note_off_c, 9, 59, 0
15, 39932, Note_on_c, 9, 59, 44
15, 39972, Note_off_c, 9, 59, 0
15, 40316, Note_on_c, 9, 59, 44
15, 40356, Note_off_c, 9, 59, 0
15, 40696, Note_on_c, 9, 59, 44
15, 40736, Note_off_c, 9, 59, 0
15, 41080, Note_on_c, 9, 59, 44
15, 41128, Note_off_c, 9, 59, 0
15, 41468, Note_on_c, 9, 59, 44
15, 41504, Note_off_c, 9, 59, 0
15, 41848, Note_on_c, 9, 59, 44
15, 41888, Note_off_c, 9, 59, 0
15, 42232, Note_on_c, 9, 59, 44
15, 42276, Note_off_c, 9, 59, 0
15, 42616, Note_on_c, 9, 59, 44
15, 42660, Note_off_c, 9, 59, 0
15, 43008, Note_on_c, 9, 59, 44
15, 43040, Note_off_c, 9, 59, 0
15, 43384, Note_on_c, 9, 59, 44
15, 43428, Note_off_c, 9, 59, 0
15, 43768, Note_on_c, 9, 59, 44
15, 43816, Note_off_c, 9, 59, 0
15, 44152, Note_on_c, 9, 59, 44
15, 44192, Note_off_c, 9, 59, 0
15, 44536, Note_on_c, 9, 59, 44
15, 44576, Note_off_c, 9, 59, 0
15, 44924, Note_on_c, 9, 59, 44
15, 44968, Note_off_c, 9, 59, 0
15, 45304, Note_on_c, 9, 59, 44
15, 45344, Note_off_c, 9, 59, 0
15, 45688, Note_on_c, 9, 59, 44
15, 45728, Note_off_c, 9, 59, 0
15, 46076, Note_on_c, 9, 59, 44
15, 46116, Note_off_c, 9, 59, 0
15, 46456, Note_on_c, 9, 59, 44
15, 46504, Note_off_c, 9, 59, 0
15, 46844, Note_on_c, 9, 59, 44
15, 46884, Note_off_c, 9, 59, 0
15, 47228, Note_on_c, 9, 59, 44
15, 47268, Note_off_c, 9, 59, 0
15, 47612, Note_on_c, 9, 59, 44
15, 47656, Note_off_c, 9, 59, 0
15, 47996, Note_on_c, 9, 59, 44
15, 48036, Note_off_c, 9, 59, 0
15, 48384, Note_on_c, 9, 59, 44
15, 48420, Note_off_c, 9, 59, 0
15, 48760, Note_on_c, 9, 59, 44
15, 48804, Note_off_c, 9, 59, 0
15, 49144, Note_on_c, 9, 59, 44
15, 49192, Note_off_c, 9, 59, 0
15, 49528, Note_on_c, 9, 59, 44
15, 49568, Note_off_c, 9, 59, 0
15, 49924, Note_on_c, 9, 59, 44
15, 49952, Note_off_c, 9, 59, 0
15, 50300, Note_on_c, 9, 59, 44
15, 50344, Note_off_c, 9, 59, 0
15, 50684, Note_on_c, 9, 59, 44
15, 50724, Note_off_c, 9, 59, 0
15, 51064, Note_on_c, 9, 59, 44
15, 51108, Note_off_c, 9, 59, 0
15, 51452, Note_on_c, 9, 59, 44
15, 51496, Note_off_c, 9, 59, 0
15, 51832, Note_on_c, 9, 59, 44
15, 51872, Note_off_c, 9, 59, 0
15, 52216, Note_on_c, 9, 59, 44
15, 52260, Note_off_c, 9, 59, 0
15, 52600, Note_on_c, 9, 59, 44
15, 52648, Note_off_c, 9, 59, 0
15, 52996, Note_on_c, 9, 59, 44
15, 53032, Note_off_c, 9, 59, 0
15, 53368, Note_on_c, 9, 59, 44
15, 53408, Note_off_c, 9, 59, 0
15, 53756, Note_on_c, 9, 59, 44
15, 53792, Note_off_c, 9, 59, 0
15, 54140, Note_on_c, 9, 59, 44
15, 54184, Note_off_c, 9, 59, 0
15, 54524, Note_on_c, 9, 59, 44
15, 54560, Note_off_c, 9, 59, 0
15, 54908, Note_on_c, 9, 59, 44
15, 54948, Note_off_c, 9, 59, 0
15, 55288, Note_on_c, 9, 59, 44
15, 55336, Note_off_c, 9, 59, 0
15, 55676, Note_on_c, 9, 59, 44
15, 55712, Note_off_c, 9, 59, 0
15, 56064, Note_on_c, 9, 59, 44
15, 56100, Note_off_c, 9, 59, 0
15, 56444, Note_on_c, 9, 59, 44
15, 56488, Note_off_c, 9, 59, 0
15, 56828, Note_on_c, 9, 59, 44
15, 56868, Note_off_c, 9, 59, 0
15, 57208, Note_on_c, 9, 59, 44
15, 57256, Note_off_c, 9, 59, 0
15, 57596, Note_on_c, 9, 59, 44
15, 57632, Note_off_c, 9, 59, 0
15, 57976, Note_on_c, 9, 59, 44
15, 58024, Note_off_c, 9, 59, 0
15, 58368, Note_on_c, 9, 59, 44
15, 58404, Note_off_c, 9, 59, 0
15, 58748, Note_on_c, 9, 59, 44
15, 58792, Note_off_c, 9, 59, 0
15, 59136, Note_on_c, 9, 59, 44
15, 59176, Note_off_c, 9, 59, 0
15, 59512, Note_on_c, 9, 59, 44
15, 59552, Note_off_c, 9, 59, 0
15, 59904, Note_on_c, 9, 59, 44
15, 59940, Note_off_c, 9, 59, 0
15, 60288, Note_on_c, 9, 59, 44
15, 60324, Note_off_c, 9, 59, 0
15, 60668, Note_on_c, 9, 59, 44
15, 60708, Note_off_c, 9, 59, 0
15, 61052, Note_on_c, 9, 59, 44
15, 61088, Note_off_c, 9, 59, 0
15, 61436, Note_on_c, 9, 59, 44
15, 61472, Note_off_c, 9, 59, 0
15, 61824, Note_on_c, 9, 59, 44
15, 61860, Note_off_c, 9, 59, 0
15, 62200, Note_on_c, 9, 59, 44
15, 62240, Note_off_c, 9, 59, 0
15, 62584, Note_on_c, 9, 59, 44
15, 62624, Note_off_c, 9, 59, 0
15, 62972, Note_on_c, 9, 59, 44
15, 63008, Note_off_c, 9, 59, 0
15, 63352, Note_on_c, 9, 59, 44
15, 63392, Note_off_c, 9, 59, 0
15, 63740, Note_on_c, 9, 59, 44
15, 63776, Note_off_c, 9, 59, 0
15, 64120, Note_on_c, 9, 59, 44
15, 64164, Note_off_c, 9, 59, 0
15, 64512, Note_on_c, 9, 59, 44
15, 64544, Note_off_c, 9, 59, 0
15, 64888, Note_on_c, 9, 59, 44
15, 64928, Note_off_c, 9, 59, 0
15, 65272, Note_on_c, 9, 59, 44
15, 65312, Note_off_c, 9, 59, 0
15, 65656, Note_on_c, 9, 59, 44
15, 65700, Note_off_c, 9, 59, 0
15, 66040, Note_on_c, 9, 59, 44
15, 66080, Note_off_c, 9, 59, 0
15, 66424, Note_on_c, 9, 59, 44
15, 66468, Note_off_c, 9, 59, 0
15, 66812, Note_on_c, 9, 59, 44
15, 66852, Note_off_c, 9, 59, 0
15, 67192, Note_on_c, 9, 59, 44
15, 67236, Note_off_c, 9, 59, 0
15, 67576, Note_on_c, 9, 59, 44
15, 67616, Note_off_c, 9, 59, 0
15, 67960, Note_on_c, 9, 59, 44
15, 68000, Note_off_c, 9, 59, 0
15, 68348, Note_on_c, 9, 59, 44
15, 68384, Note_off_c, 9, 59, 0
15, 68728, Note_on_c, 9, 59, 44
15, 68768, Note_off_c, 9, 59, 0
15, 69112, Note_on_c, 9, 59, 44
15, 69152, Note_off_c, 9, 59, 0
15, 69496, Note_on_c, 9, 59, 44
15, 69540, Note_off_c, 9, 59, 0
15, 69880, Note_on_c, 9, 59, 44
15, 69916, Note_off_c, 9, 59, 0
15, 70264, Note_on_c, 9, 59, 44
15, 70304, Note_off_c, 9, 59, 0
15, 70656, Note_on_c, 9, 59, 44
15, 70692, Note_off_c, 9, 59, 0
15, 71032, Note_on_c, 9, 59, 44
15, 71076, Note_off_c, 9, 59, 0
15, 71424, Note_on_c, 9, 59, 44
15, 71456, Note_off_c, 9, 59, 0
15, 71800, Note_on_c, 9, 59, 44
15, 71840, Note_off_c, 9, 59, 0
15, 72188, Note_on_c, 9, 59, 44
15, 72228, Note_off_c, 9, 59, 0
15, 72568, Note_on_c, 9, 59, 44
15, 72608, Note_off_c, 9, 59, 0
15, 72956, Note_on_c, 9, 59, 44
15, 72992, Note_off_c, 9, 59, 0
15, 73336, Note_on_c, 9, 59, 44
15, 73380, Note_off_c, 9, 59, 0
15, 73720, Note_on_c, 9, 59, 44
15, 73760, Note_off_c, 9, 59, 0
15, 74104, Note_on_c, 9, 59, 44
15, 74144, Note_off_c, 9, 59, 0
15, 74492, Note_on_c, 9, 59, 44
15, 74532, Note_off_c, 9, 59, 0
15, 74872, Note_on_c, 9, 59, 44
15, 74912, Note_off_c, 9, 59, 0
15, 75264, Note_on_c, 9, 59, 44
15, 75296, Note_off_c, 9, 59, 0
15, 75640, Note_on_c, 9, 59, 44
15, 75680, Note_off_c, 9, 59, 0
15, 76024, Note_on_c, 9, 59, 44
15, 76068, Note_off_c, 9, 59, 0
15, 76408, Note_on_c, 9, 59, 44
15, 76448, Note_off_c, 9, 59, 0
15, 76796, Note_on_c, 9, 59, 44
15, 76836, Note_off_c, 9, 59, 0
15, 77176, Note_on_c, 9, 59, 44
15, 77220, Note_off_c, 9, 59, 0
15, 77560, Note_on_c, 9, 59, 44
15, 77600, Note_off_c, 9, 59, 0
15, 77948, Note_on_c, 9, 59, 44
15, 77984, Note_off_c, 9, 59, 0
15, 78336, Note_on_c, 9, 59, 44
15, 78372, Note_off_c, 9, 59, 0
15, 78712, Note_on_c, 9, 59, 44
15, 78756, Note_off_c, 9, 59, 0
15, 79100, Note_on_c, 9, 59, 44
15, 79136, Note_off_c, 9, 59, 0
15, 79480, Note_on_c, 9, 59, 44
15, 79520, Note_off_c, 9, 59, 0
15, 79868, Note_on_c, 9, 59, 44
15, 79908, Note_off_c, 9, 59, 0
15, 80248, Note_on_c, 9, 59, 44
15, 80288, Note_off_c, 9, 59, 0
15, 80636, Note_on_c, 9, 59, 44
15, 80672, Note_off_c, 9, 59, 0
15, 81016, Note_on_c, 9, 59, 44
15, 81064, Note_off_c, 9, 59, 0
15, 81400, Note_on_c, 9, 59, 44
15, 81436, Note_off_c, 9, 59, 0
15, 81784, Note_on_c, 9, 59, 44
15, 81824, Note_off_c, 9, 59, 0
15, 82168, Note_on_c, 9, 59, 44
15, 82212, Note_off_c, 9, 59, 0
15, 82552, Note_on_c, 9, 59, 44
15, 82596, Note_off_c, 9, 59, 0
15, 82936, Note_on_c, 9, 59, 44
15, 82976, Note_off_c, 9, 59, 0
15, 83320, Note_on_c, 9, 59, 44
15, 83360, Note_off_c, 9, 59, 0
15, 83712, Note_on_c, 9, 59, 44
15, 83744, Note_off_c, 9, 59, 0
15, 84092, Note_on_c, 9, 59, 44
15, 84128, Note_off_c, 9, 59, 0
15, 84472, Note_on_c, 9, 59, 44
15, 84512, Note_off_c, 9, 59, 0
15, 84860, Note_on_c, 9, 59, 44
15, 84900, Note_off_c, 9, 59, 0
15, 85244, Note_on_c, 9, 59, 44
15, 85284, Note_off_c, 9, 59, 0
15, 85624, Note_on_c, 9, 59, 44
15, 85664, Note_off_c, 9, 59, 0
15, 86008, Note_on_c, 9, 59, 44
15, 86048, Note_off_c, 9, 59, 0
15, 86396, Note_on_c, 9, 59, 44
15, 86440, Note_off_c, 9, 59, 0
15, 86784, Note_on_c, 9, 59, 44
15, 86820, Note_off_c, 9, 59, 0
15, 87160, Note_on_c, 9, 59, 44
15, 87200, Note_off_c, 9, 59, 0
15, 87548, Note_on_c, 9, 59, 44
15, 87592, Note_off_c, 9, 59, 0
15, 87928, Note_on_c, 9, 59, 44
15, 87968, Note_off_c, 9, 59, 0
15, 88312, Note_on_c, 9, 59, 44
15, 88352, Note_off_c, 9, 59, 0
15, 88700, Note_on_c, 9, 59, 44
15, 88744, Note_off_c, 9, 59, 0
15, 89080, Note_on_c, 9, 59, 44
15, 89124, Note_off_c, 9, 59, 0
15, 89468, Note_on_c, 9, 59, 44
15, 89508, Note_off_c, 9, 59, 0
15, 89856, Note_on_c, 9, 59, 44
15, 89888, Note_off_c, 9, 59, 0
15, 90236, Note_on_c, 9, 59, 44
15, 90280, Note_off_c, 9, 59, 0
15, 90616, Note_on_c, 9, 59, 44
15, 90660, Note_off_c, 9, 59, 0
15, 91000, Note_on_c, 9, 59, 44
15, 91040, Note_off_c, 9, 59, 0
15, 91392, Note_on_c, 9, 59, 44
15, 91432, Note_off_c, 9, 59, 0
15, 91768, Note_on_c, 9, 59, 44
15, 91808, Note_off_c, 9, 59, 0
15, 92152, Note_on_c, 9, 59, 44
15, 92192, Note_off_c, 9, 59, 0
15, 92536, Note_on_c, 9, 59, 44
15, 92584, Note_off_c, 9, 59, 0
15, 92936, Note_on_c, 9, 59, 44
15, 92968, Note_off_c, 9, 59, 0
15, 93308, Note_on_c, 9, 59, 44
15, 93344, Note_off_c, 9, 59, 0
15, 93692, Note_on_c, 9, 59, 44
15, 93728, Note_off_c, 9, 59, 0
15, 94076, Note_on_c, 9, 59, 44
15, 94120, Note_off_c, 9, 59, 0
15, 94456, Note_on_c, 9, 59, 44
15, 94496, Note_off_c, 9, 59, 0
15, 94840, Note_on_c, 9, 59, 44
15, 94884, Note_off_c, 9, 59, 0
15, 95228, Note_on_c, 9, 59, 44
15, 95272, Note_off_c, 9, 59, 0
15, 95612, Note_on_c, 9, 59, 44
15, 95648, Note_off_c, 9, 59, 0
15, 96004, Note_on_c, 9, 59, 44
15, 96036, Note_off_c, 9, 59, 0
15, 96380, Note_on_c, 9, 59, 44
15, 96428, Note_off_c, 9, 59, 0
15, 96760, Note_on_c, 9, 59, 44
15, 96804, Note_off_c, 9, 59, 0
15, 97144, Note_on_c, 9, 59, 44
15, 97188, Note_off_c, 9, 59, 0
15, 97528, Note_on_c, 9, 59, 44
15, 97572, Note_off_c, 9, 59, 0
15, 97912, Note_on_c, 9, 59, 44
15, 97960, Note_off_c, 9, 59, 0
15, 98304, Note_on_c, 9, 59, 44
15, 98336, Note_off_c, 9, 59, 0
15, 98680, Note_on_c, 9, 59, 44
15, 98728, Note_off_c, 9, 59, 0
15, 99076, Note_on_c, 9, 59, 44
15, 99112, Note_off_c, 9, 59, 0
15, 99456, Note_on_c, 9, 59, 44
15, 99488, Note_off_c, 9, 59, 0
15, 99844, Note_on_c, 9, 59, 44
15, 99876, Note_off_c, 9, 59, 0
15, 100220, Note_on_c, 9, 59, 44
15, 100260, Note_off_c, 9, 59, 0
15, 100608, Note_on_c, 9, 59, 44
15, 100648, Note_off_c, 9, 59, 0
15, 100984, Note_on_c, 9, 59, 44
15, 101028, Note_off_c, 9, 59, 0
15, 101368, Note_on_c, 9, 59, 44
15, 101408, Note_off_c, 9, 59, 0
15, 101760, Note_on_c, 9, 59, 44
15, 101796, Note_off_c, 9, 59, 0
15, 102136, Note_on_c, 9, 59, 44
15, 102176, Note_off_c, 9, 59, 0
15, 102528, Note_on_c, 9, 59, 44
15, 102560, Note_off_c, 9, 59, 0
15, 102904, Note_on_c, 9, 59, 44
15, 102944, Note_off_c, 9, 59, 0
15, 103288, Note_on_c, 9, 59, 44
15, 103332, Note_off_c, 9, 59, 0
15, 103676, Note_on_c, 9, 59, 44
15, 103716, Note_off_c, 9, 59, 0
15, 104056, Note_on_c, 9, 59, 44
15, 104096, Note_off_c, 9, 59, 0
15, 104448, Note_on_c, 9, 59, 44
15, 104488, Note_off_c, 9, 59, 0
15, 104828, Note_on_c, 9, 59, 44
15, 104864, Note_off_c, 9, 59, 0
15, 105208, Note_on_c, 9, 59, 44
15, 105248, Note_off_c, 9, 59, 0
15, 105600, Note_on_c, 9, 59, 44
15, 105640, Note_off_c, 9, 59, 0
15, 105976, Note_on_c, 9, 59, 44
15, 106016, Note_off_c, 9, 59, 0
15, 106360, Note_on_c, 9, 59, 44
15, 106404, Note_off_c, 9, 59, 0
15, 106748, Note_on_c, 9, 59, 44
15, 106792, Note_off_c, 9, 59, 0
15, 107128, Note_on_c, 9, 59, 44
15, 107172, Note_off_c, 9, 59, 0
15, 107512, Note_on_c, 9, 59, 44
15, 107552, Note_off_c, 9, 59, 0
15, 107896, Note_on_c, 9, 59, 44
15, 107936, Note_off_c, 9, 59, 0
15, 108280, Note_on_c, 9, 59, 44
15, 108320, Note_off_c, 9, 59, 0
15, 108668, Note_on_c, 9, 59, 44
15, 108704, Note_off_c, 9, 59, 0
15, 109048, Note_on_c, 9, 59, 44
15, 109088, Note_off_c, 9, 59, 0
15, 109432, Note_on_c, 9, 59, 44
15, 109476, Note_off_c, 9, 59, 0
15, 109816, Note_on_c, 9, 59, 44
15, 109852, Note_off_c, 9, 59, 0
15, 110196, Note_on_c, 9, 59, 44
15, 110240, Note_off_c, 9, 59, 0
15, 110588, Note_on_c, 9, 59, 44
15, 110628, Note_off_c, 9, 59, 0
15, 110968, Note_on_c, 9, 59, 44
15, 111012, Note_off_c, 9, 59, 0
15, 111356, Note_on_c, 9, 59, 44
15, 111392, Note_off_c, 9, 59, 0
15, 111744, Note_on_c, 9, 59, 44
15, 111776, Note_off_c, 9, 59, 0
15, 112128, Note_on_c, 9, 59, 44
15, 112164, Note_off_c, 9, 59, 0
15, 112508, Note_on_c, 9, 59, 44
15, 112548, Note_off_c, 9, 59, 0
15, 112892, Note_on_c, 9, 59, 44
15, 112928, Note_off_c, 9, 59, 0
15, 113272, Note_on_c, 9, 59, 44
15, 113316, Note_off_c, 9, 59, 0
15, 113660, Note_on_c, 9, 59, 44
15, 113696, Note_off_c, 9, 59, 0
15, 114040, Note_on_c, 9, 59, 44
15, 114080, Note_off_c, 9, 59, 0
15, 114432, Note_on_c, 9, 59, 44
15, 114468, Note_off_c, 9, 59, 0
15, 114808, Note_on_c, 9, 59, 44
15, 114852, Note_off_c, 9, 59, 0
15, 115192, Note_on_c, 9, 59, 44
15, 115236, Note_off_c, 9, 59, 0
15, 115576, Note_on_c, 9, 59, 44
15, 115616, Note_off_c, 9, 59, 0
15, 115964, Note_on_c, 9, 59, 44
15, 116008, Note_off_c, 9, 59, 0
15, 116344, Note_on_c, 9, 59, 44
15, 116384, Note_off_c, 9, 59, 0
15, 116728, Note_on_c, 9, 59, 44
15, 116768, Note_off_c, 9, 59, 0
15, 117112, Note_on_c, 9, 59, 44
15, 117156, Note_off_c, 9, 59, 0
15, 117496, Note_on_c, 9, 59, 44
15, 117536, Note_off_c, 9, 59, 0
15, 117884, Note_on_c, 9, 59, 44
15, 117924, Note_off_c, 9, 59, 0
15, 118264, Note_on_c, 9, 59, 44
15, 118308, Note_off_c, 9, 59, 0
15, 118648, Note_on_c, 9, 59, 44
15, 118692, Note_off_c, 9, 59, 0
15, 119032, Note_on_c, 9, 59, 44
15, 119072, Note_off_c, 9, 59, 0
15, 119416, Note_on_c, 9, 59, 44
15, 119464, Note_off_c, 9, 59, 0
15, 119808, Note_on_c, 9, 59, 44
15, 119848, Note_off_c, 9, 59, 0
15, 120188, Note_on_c, 9, 59, 44
15, 120228, Note_off_c, 9, 59, 0
15, 120576, Note_on_c, 9, 59, 44
15, 120608, Note_off_c, 9, 59, 0
15, 120952, Note_on_c, 9, 59, 44
15, 121000, Note_off_c, 9, 59, 0
15, 121340, Note_on_c, 9, 59, 44
15, 121380, Note_off_c, 9, 59, 0
15, 121720, Note_on_c, 9, 59, 44
15, 121760, Note_off_c, 9, 59, 0
15, 122108, Note_on_c, 9, 59, 44
15, 122144, Note_off_c, 9, 59, 0
15, 122492, Note_on_c, 9, 59, 44
15, 122532, Note_off_c, 9, 59, 0
15, 122880, Note_on_c, 9, 59, 44
15, 122916, Note_off_c, 9, 59, 0
15, 123260, Note_on_c, 9, 59, 44
15, 123300, Note_off_c, 9, 59, 0
15, 123640, Note_on_c, 9, 59, 44
15, 123688, Note_off_c, 9, 59, 0
15, 124028, Note_on_c, 9, 59, 44
15, 124064, Note_off_c, 9, 59, 0
15, 124416, Note_on_c, 9, 59, 44
15, 124448, Note_off_c, 9, 59, 0
15, 124796, Note_on_c, 9, 59, 44
15, 124836, Note_off_c, 9, 59, 0
15, 125176, Note_on_c, 9, 59, 44
15, 125220, Note_off_c, 9, 59, 0
15, 125564, Note_on_c, 9, 59, 44
15, 125604, Note_off_c, 9, 59, 0
15, 125956, Note_on_c, 9, 59, 44
15, 125988, Note_off_c, 9, 59, 0
15, 126328, Note_on_c, 9, 59, 44
15, 126376, Note_off_c, 9, 59, 0
15, 126712, Note_on_c, 9, 59, 44
15, 126756, Note_off_c, 9, 59, 0
15, 127096, Note_on_c, 9, 59, 44
15, 127136, Note_off_c, 9, 59, 0
15, 127488, Note_on_c, 9, 59, 44
15, 127528, Note_off_c, 9, 59, 0
15, 127864, Note_on_c, 9, 59, 44
15, 127904, Note_off_c, 9, 59, 0
15, 128248, Note_on_c, 9, 59, 44
15, 128288, Note_off_c, 9, 59, 0
15, 128636, Note_on_c, 9, 59, 44
15, 128680, Note_off_c, 9, 59, 0
15, 129028, Note_on_c, 9, 59, 44
15, 129064, Note_off_c, 9, 59, 0
15, 129400, Note_on_c, 9, 59, 44
15, 129440, Note_off_c, 9, 59, 0
15, 129788, Note_on_c, 9, 59, 44
15, 129824, Note_off_c, 9, 59, 0
15, 130176, Note_on_c, 9, 59, 44
15, 130216, Note_off_c, 9, 59, 0
15, 130556, Note_on_c, 9, 59, 44
15, 130596, Note_off_c, 9, 59, 0
15, 130940, Note_on_c, 9, 59, 44
15, 130976, Note_off_c, 9, 59, 0
15, 131324, Note_on_c, 9, 59, 44
15, 131364, Note_off_c, 9, 59, 0
15, 131704, Note_on_c, 9, 59, 44
15, 131744, Note_off_c, 9, 59, 0
15, 132100, Note_on_c, 9, 59, 44
15, 132132, Note_off_c, 9, 59, 0
15, 132476, Note_on_c, 9, 59, 44
15, 132524, Note_off_c, 9, 59, 0
15, 132872, Note_on_c, 9, 59, 44
15, 132904, Note_off_c, 9, 59, 0
15, 133240, Note_on_c, 9, 59, 44
15, 133280, Note_off_c, 9, 59, 0
15, 133632, Note_on_c, 9, 59, 44
15, 133668, Note_off_c, 9, 59, 0
15, 134008, Note_on_c, 9, 59, 44
15, 134056, Note_off_c, 9, 59, 0
15, 134396, Note_on_c, 9, 59, 44
15, 134432, Note_off_c, 9, 59, 0
15, 134784, Note_on_c, 9, 59, 44
15, 134820, Note_off_c, 9, 59, 0
15, 135164, Note_on_c, 9, 59, 44
15, 135204, Note_off_c, 9, 59, 0
15, 135544, Note_on_c, 9, 59, 44
15, 135584, Note_off_c, 9, 59, 0
15, 135928, Note_on_c, 9, 59, 44
15, 135972, Note_off_c, 9, 59, 0
15, 136308, Note_on_c, 9, 59, 44
15, 136356, Note_off_c, 9, 59, 0
15, 136704, Note_on_c, 9, 59, 44
15, 136736, Note_off_c, 9, 59, 0
15, 137080, Note_on_c, 9, 59, 44
15, 137120, Note_off_c, 9, 59, 0
15, 137468, Note_on_c, 9, 59, 44
15, 137504, Note_off_c, 9, 59, 0
15, 137856, Note_on_c, 9, 59, 44
15, 137896, Note_off_c, 9, 59, 0
15, 138232, Note_on_c, 9, 59, 44
15, 138272, Note_off_c, 9, 59, 0
15, 138620, Note_on_c, 9, 59, 44
15, 138660, Note_off_c, 9, 59, 0
15, 139000, Note_on_c, 9, 59, 44
15, 139044, Note_off_c, 9, 59, 0
15, 139384, Note_on_c, 9, 59, 44
15, 139424, Note_off_c, 9, 59, 0
15, 139772, Note_on_c, 9, 59, 44
15, 139812, Note_off_c, 9, 59, 0
15, 140152, Note_on_c, 9, 59, 44
15, 140192, Note_off_c, 9, 59, 0
15, 140540, Note_on_c, 9, 59, 44
15, 140580, Note_off_c, 9, 59, 0
15, 140924, Note_on_c, 9, 59, 44
15, 140960, Note_off_c, 9, 59, 0
15, 141304, Note_on_c, 9, 59, 44
15, 141348, Note_off_c, 9, 59, 0
15, 141692, Note_on_c, 9, 59, 44
15, 141736, Note_off_c, 9, 59, 0
15, 142072, Note_on_c, 9, 59, 44
15, 142116, Note_off_c, 9, 59, 0
15, 142460, Note_on_c, 9, 59, 44
15, 142496, Note_off_c, 9, 59, 0
15, 142844, Note_on_c, 9, 59, 44
15, 142884, Note_off_c, 9, 59, 0
15, 143224, Note_on_c, 9, 59, 44
15, 143268, Note_off_c, 9, 59, 0
15, 143608, Note_on_c, 9, 59, 44
15, 143648, Note_off_c, 9, 59, 0
15, 143996, Note_on_c, 9, 59, 44
15, 144032, Note_off_c, 9, 59, 0
15, 144376, Note_on_c, 9, 59, 44
15, 144416, Note_off_c, 9, 59, 0
15, 144760, Note_on_c, 9, 59, 44
15, 144800, Note_off_c, 9, 59, 0
15, 145148, Note_on_c, 9, 59, 44
15, 145184, Note_off_c, 9, 59, 0
15, 145532, Note_on_c, 9, 59, 44
15, 145572, Note_off_c, 9, 59, 0
15, 145912, Note_on_c, 9, 59, 44
15, 145948, Note_off_c, 9, 59, 0
15, 146296, Note_on_c, 9, 59, 44
15, 146336, Note_off_c, 9, 59, 0
15, 146680, Note_on_c, 9, 59, 44
15, 146724, Note_off_c, 9, 59, 0
15, 147064, Note_on_c, 9, 59, 44
15, 147108, Note_off_c, 9, 59, 0
15, 147452, Note_on_c, 9, 59, 44
15, 147488, Note_off_c, 9, 59, 0
15, 147836, Note_on_c, 9, 59, 44
15, 147872, Note_off_c, 9, 59, 0
15, 148216, Note_on_c, 9, 59, 44
15, 148260, Note_off_c, 9, 59, 0
15, 148600, Note_on_c, 9, 59, 44
15, 148640, Note_off_c, 9, 59, 0
15, 148984, Note_on_c, 9, 59, 44
15, 149028, Note_off_c, 9, 59, 0
15, 149368, Note_on_c, 9, 59, 44
15, 149412, Note_off_c, 9, 59, 0
15, 149752, Note_on_c, 9, 59, 44
15, 149792, Note_off_c, 9, 59, 0
15, 150136, Note_on_c, 9, 59, 44
15, 150176, Note_off_c, 9, 59, 0
15, 150520, Note_on_c, 9, 59, 44
15, 150572, Note_off_c, 9, 59, 0
15, 150904, Note_on_c, 9, 59, 44
15, 150948, Note_off_c, 9, 59, 0
15, 151288, Note_on_c, 9, 59, 44
15, 151328, Note_off_c, 9, 59, 0
15, 151672, Note_on_c, 9, 59, 44
15, 151716, Note_off_c, 9, 59, 0
15, 152056, Note_on_c, 9, 59, 44
15, 152104, Note_off_c, 9, 59, 0
15, 152440, Note_on_c, 9, 59, 44
15, 152480, Note_off_c, 9, 59, 0
15, 152824, Note_on_c, 9, 59, 44
15, 152864, Note_off_c, 9, 59, 0
15, 153208, Note_on_c, 9, 59, 44
15, 153252, Note_off_c, 9, 59, 0
15, 153252, End_track
16, 0, Start_track
16, 0, Title_t, "C 3 "
16, 0, Control_c, 9, 0, 0
16, 0, Program_c, 9, 0
16, 0, Control_c, 9, 91, 100
16, 0, Key_signature, 0, "major"
16, 46844, Note_on_c, 9, 60, 107
16, 46880, Note_off_c, 9, 60, 0
16, 52984, Note_on_c, 9, 60, 107
16, 53028, Note_off_c, 9, 60, 0
16, 56060, Note_on_c, 9, 60, 107
16, 56096, Note_off_c, 9, 60, 0
16, 58360, Note_on_c, 9, 60, 107
16, 58396, Note_off_c, 9, 60, 0
16, 59132, Note_on_c, 9, 60, 107
16, 59172, Note_off_c, 9, 60, 0
16, 59900, Note_on_c, 9, 60, 107
16, 59936, Note_off_c, 9, 60, 0
16, 60376, Note_on_c, 9, 60, 98
16, 60416, Note_off_c, 9, 60, 0
16, 60664, Note_on_c, 9, 60, 107
16, 60708, Note_off_c, 9, 60, 0
16, 86772, Note_on_c, 9, 60, 107
16, 86812, Note_off_c, 9, 60, 0
16, 92928, Note_on_c, 9, 60, 107
16, 92964, Note_off_c, 9, 60, 0
16, 95988, Note_on_c, 9, 60, 107
16, 96028, Note_off_c, 9, 60, 0
16, 98296, Note_on_c, 9, 60, 107
16, 98336, Note_off_c, 9, 60, 0
16, 99072, Note_on_c, 9, 60, 107
16, 99108, Note_off_c, 9, 60, 0
16, 99840, Note_on_c, 9, 60, 107
16, 99872, Note_off_c, 9, 60, 0
16, 100312, Note_on_c, 9, 60, 98
16, 100352, Note_off_c, 9, 60, 0
16, 100608, Note_on_c, 9, 60, 107
16, 100644, Note_off_c, 9, 60, 0
16, 119804, Note_on_c, 9, 60, 107
16, 119844, Note_off_c, 9, 60, 0
16, 125952, Note_on_c, 9, 60, 107
16, 125984, Note_off_c, 9, 60, 0
16, 129020, Note_on_c, 9, 60, 107
16, 129060, Note_off_c, 9, 60, 0
16, 131324, Note_on_c, 9, 60, 107
16, 131364, Note_off_c, 9, 60, 0
16, 132088, Note_on_c, 9, 60, 107
16, 132124, Note_off_c, 9, 60, 0
16, 132856, Note_on_c, 9, 60, 107
16, 132900, Note_off_c, 9, 60, 0
16, 133336, Note_on_c, 9, 60, 98
16, 133380, Note_off_c, 9, 60, 0
16, 133380, End_track
17, 0, Start_track
17, 0, Title_t, "C#3 "
17, 0, Control_c, 9, 0, 0
17, 0, Program_c, 9, 0
17, 0, Control_c, 9, 91, 100
17, 0, Key_signature, 0, "major"
17, 1812, Note_on_c, 9, 61, 96
17, 1860, Note_off_c, 9, 61, 0
17, 2580, Note_on_c, 9, 61, 104
17, 2624, Note_off_c, 9, 61, 0
17, 3348, Note_on_c, 9, 61, 96
17, 3396, Note_off_c, 9, 61, 0
17, 4116, Note_on_c, 9, 61, 104
17, 4160, Note_off_c, 9, 61, 0
17, 4884, Note_on_c, 9, 61, 96
17, 4924, Note_off_c, 9, 61, 0
17, 5652, Note_on_c, 9, 61, 104
17, 5696, Note_off_c, 9, 61, 0
17, 6420, Note_on_c, 9, 61, 96
17, 6464, Note_off_c, 9, 61, 0
17, 7188, Note_on_c, 9, 61, 104
17, 7236, Note_off_c, 9, 61, 0
17, 7960, Note_on_c, 9, 61, 96
17, 8000, Note_off_c, 9, 61, 0
17, 8732, Note_on_c, 9, 61, 104
17, 8772, Note_off_c, 9, 61, 0
17, 9492, Note_on_c, 9, 61, 96
17, 9540, Note_off_c, 9, 61, 0
17, 10264, Note_on_c, 9, 61, 104
17, 10300, Note_off_c, 9, 61, 0
17, 11032, Note_on_c, 9, 61, 96
17, 11080, Note_off_c, 9, 61, 0
17, 11800, Note_on_c, 9, 61, 104
17, 11844, Note_off_c, 9, 61, 0
17, 12568, Note_on_c, 9, 61, 96
17, 12608, Note_off_c, 9, 61, 0
17, 13332, Note_on_c, 9, 61, 104
17, 13380, Note_off_c, 9, 61, 0
17, 14104, Note_on_c, 9, 61, 96
17, 14140, Note_off_c, 9, 61, 0
17, 14868, Note_on_c, 9, 61, 104
17, 14912, Note_off_c, 9, 61, 0
17, 15640, Note_on_c, 9, 61, 96
17, 15676, Note_off_c, 9, 61, 0
17, 16408, Note_on_c, 9, 61, 104
17, 16448, Note_off_c, 9, 61, 0
17, 17180, Note_on_c, 9, 61, 96
17, 17220, Note_off_c, 9, 61, 0
17, 17944, Note_on_c, 9, 61, 104
17, 17988, Note_off_c, 9, 61, 0
17, 18712, Note_on_c, 9, 61, 96
17, 18756, Note_off_c, 9, 61, 0
17, 19480, Note_on_c, 9, 61, 104
17, 19524, Note_off_c, 9, 61, 0
17, 20248, Note_on_c, 9, 61, 96
17, 20288, Note_off_c, 9, 61, 0
17, 21016, Note_on_c, 9, 61, 104
17, 21060, Note_off_c, 9, 61, 0
17, 21788, Note_on_c, 9, 61, 96
17, 21824, Note_off_c, 9, 61, 0
17, 22552, Note_on_c, 9, 61, 104
17, 22596, Note_off_c, 9, 61, 0
17, 23320, Note_on_c, 9, 61, 96
17, 23360, Note_off_c, 9, 61, 0
17, 24088, Note_on_c, 9, 61, 104
17, 24124, Note_off_c, 9, 61, 0
17, 24852, Note_on_c, 9, 61, 96
17, 24900, Note_off_c, 9, 61, 0
17, 25624, Note_on_c, 9, 61, 104
17, 25664, Note_off_c, 9, 61, 0
17, 26388, Note_on_c, 9, 61, 96
17, 26436, Note_off_c, 9, 61, 0
17, 27160, Note_on_c, 9, 61, 96
17, 27200, Note_off_c, 9, 61, 0
17, 27928, Note_on_c, 9, 61, 104
17, 27968, Note_off_c, 9, 61, 0
17, 28692, Note_on_c, 9, 61, 96
17, 28740, Note_off_c, 9, 61, 0
17, 29468, Note_on_c, 9, 61, 104
17, 29508, Note_off_c, 9, 61, 0
17, 30232, Note_on_c, 9, 61, 96
17, 30268, Note_off_c, 9, 61, 0
17, 31000, Note_on_c, 9, 61, 104
17, 31044, Note_off_c, 9, 61, 0
17, 31764, Note_on_c, 9, 61, 96
17, 31804, Note_off_c, 9, 61, 0
17, 32540, Note_on_c, 9, 61, 104
17, 32580, Note_off_c, 9, 61, 0
17, 33304, Note_on_c, 9, 61, 96
17, 33340, Note_off_c, 9, 61, 0
17, 34068, Note_on_c, 9, 61, 96
17, 34116, Note_off_c, 9, 61, 0
17, 34840, Note_on_c, 9, 61, 104
17, 34880, Note_off_c, 9, 61, 0
17, 35608, Note_on_c, 9, 61, 96
17, 35652, Note_off_c, 9, 61, 0
17, 36384, Note_on_c, 9, 61, 104
17, 36416, Note_off_c, 9, 61, 0
17, 37148, Note_on_c, 9, 61, 96
17, 37184, Note_off_c, 9, 61, 0
17, 37916, Note_on_c, 9, 61, 104
17, 37956, Note_off_c, 9, 61, 0
17, 38680, Note_on_c, 9, 61, 96
17, 38720, Note_off_c, 9, 61, 0
17, 39448, Note_on_c, 9, 61, 104
17, 39492, Note_off_c, 9, 61, 0
17, 40212, Note_on_c, 9, 61, 96
17, 40256, Note_off_c, 9, 61, 0
17, 40984, Note_on_c, 9, 61, 96
17, 41028, Note_off_c, 9, 61, 0
17, 41752, Note_on_c, 9, 61, 104
17, 41796, Note_off_c, 9, 61, 0
17, 42524, Note_on_c, 9, 61, 96
17, 42560, Note_off_c, 9, 61, 0
17, 43288, Note_on_c, 9, 61, 104
17, 43332, Note_off_c, 9, 61, 0
17, 44052, Note_on_c, 9, 61, 96
17, 44092, Note_off_c, 9, 61, 0
17, 44824, Note_on_c, 9, 61, 104
17, 44868, Note_off_c, 9, 61, 0
17, 45588, Note_on_c, 9, 61, 44
17, 45636, Note_off_c, 9, 61, 0
17, 46356, Note_on_c, 9, 61, 64
17, 46396, Note_off_c, 9, 61, 0
17, 47128, Note_on_c, 9, 61, 96
17, 47172, Note_off_c, 9, 61, 0
17, 47896, Note_on_c, 9, 61, 104
17, 47936, Note_off_c, 9, 61, 0
17, 48664, Note_on_c, 9, 61, 96
17, 48704, Note_off_c, 9, 61, 0
17, 49432, Note_on_c, 9, 61, 104
17, 49476, Note_off_c, 9, 61, 0
17, 50200, Note_on_c, 9, 61, 96
17, 50240, Note_off_c, 9, 61, 0
17, 50964, Note_on_c, 9, 61, 104
17, 51012, Note_off_c, 9, 61, 0
17, 51732, Note_on_c, 9, 61, 96
17, 51772, Note_off_c, 9, 61, 0
17, 52504, Note_on_c, 9, 61, 104
17, 52544, Note_off_c, 9, 61, 0
17, 53268, Note_on_c, 9, 61, 96
17, 53312, Note_off_c, 9, 61, 0
17, 54040, Note_on_c, 9, 61, 104
17, 54084, Note_off_c, 9, 61, 0
17, 54808, Note_on_c, 9, 61, 96
17, 54852, Note_off_c, 9, 61, 0
17, 55572, Note_on_c, 9, 61, 104
17, 55612, Note_off_c, 9, 61, 0
17, 56344, Note_on_c, 9, 61, 96
17, 56392, Note_off_c, 9, 61, 0
17, 57112, Note_on_c, 9, 61, 104
17, 57156, Note_off_c, 9, 61, 0
17, 57876, Note_on_c, 9, 61, 96
17, 57920, Note_off_c, 9, 61, 0
17, 58648, Note_on_c, 9, 61, 104
17, 58688, Note_off_c, 9, 61, 0
17, 59420, Note_on_c, 9, 61, 96
17, 59456, Note_off_c, 9, 61, 0
17, 60184, Note_on_c, 9, 61, 104
17, 60224, Note_off_c, 9, 61, 0
17, 60960, Note_on_c, 9, 61, 96
17, 60996, Note_off_c, 9, 61, 0
17, 61716, Note_on_c, 9, 61, 104
17, 61760, Note_off_c, 9, 61, 0
17, 62484, Note_on_c, 9, 61, 96
17, 62532, Note_off_c, 9, 61, 0
17, 63256, Note_on_c, 9, 61, 104
17, 63296, Note_off_c, 9, 61, 0
17, 64028, Note_on_c, 9, 61, 96
17, 64060, Note_off_c, 9, 61, 0
17, 64792, Note_on_c, 9, 61, 104
17, 64836, Note_off_c, 9, 61, 0
17, 65560, Note_on_c, 9, 61, 96
17, 65600, Note_off_c, 9, 61, 0
17, 66324, Note_on_c, 9, 61, 104
17, 66368, Note_off_c, 9, 61, 0
17, 67092, Note_on_c, 9, 61, 96
17, 67132, Note_off_c, 9, 61, 0
17, 67864, Note_on_c, 9, 61, 104
17, 67904, Note_off_c, 9, 61, 0
17, 68632, Note_on_c, 9, 61, 96
17, 68676, Note_off_c, 9, 61, 0
17, 69400, Note_on_c, 9, 61, 104
17, 69440, Note_off_c, 9, 61, 0
17, 70168, Note_on_c, 9, 61, 96
17, 70208, Note_off_c, 9, 61, 0
17, 70936, Note_on_c, 9, 61, 104
17, 70976, Note_off_c, 9, 61, 0
17, 71700, Note_on_c, 9, 61, 96
17, 71744, Note_off_c, 9, 61, 0
17, 72476, Note_on_c, 9, 61, 104
17, 72512, Note_off_c, 9, 61, 0
17, 73240, Note_on_c, 9, 61, 96
17, 73280, Note_off_c, 9, 61, 0
17, 74004, Note_on_c, 9, 61, 96
17, 74052, Note_off_c, 9, 61, 0
17, 74776, Note_on_c, 9, 61, 104
17, 74816, Note_off_c, 9, 61, 0
17, 75540, Note_on_c, 9, 61, 96
17, 75588, Note_off_c, 9, 61, 0
17, 76312, Note_on_c, 9, 61, 104
17, 76352, Note_off_c, 9, 61, 0
17, 77080, Note_on_c, 9, 61, 96
17, 77120, Note_off_c, 9, 61, 0
17, 77848, Note_on_c, 9, 61, 104
17, 77892, Note_off_c, 9, 61, 0
17, 78616, Note_on_c, 9, 61, 96
17, 78656, Note_off_c, 9, 61, 0
17, 79384, Note_on_c, 9, 61, 104
17, 79436, Note_off_c, 9, 61, 0
17, 80148, Note_on_c, 9, 61, 96
17, 80188, Note_off_c, 9, 61, 0
17, 80916, Note_on_c, 9, 61, 96
17, 80956, Note_off_c, 9, 61, 0
17, 81688, Note_on_c, 9, 61, 104
17, 81732, Note_off_c, 9, 61, 0
17, 82452, Note_on_c, 9, 61, 96
17, 82492, Note_off_c, 9, 61, 0
17, 83224, Note_on_c, 9, 61, 104
17, 83268, Note_off_c, 9, 61, 0
17, 84000, Note_on_c, 9, 61, 96
17, 84028, Note_off_c, 9, 61, 0
17, 84756, Note_on_c, 9, 61, 104
17, 84800, Note_off_c, 9, 61, 0
17, 85528, Note_on_c, 9, 61, 44
17, 85572, Note_off_c, 9, 61, 0
17, 86292, Note_on_c, 9, 61, 64
17, 86336, Note_off_c, 9, 61, 0
17, 87064, Note_on_c, 9, 61, 96
17, 87104, Note_off_c, 9, 61, 0
17, 87832, Note_on_c, 9, 61, 104
17, 87872, Note_off_c, 9, 61, 0
17, 88600, Note_on_c, 9, 61, 96
17, 88644, Note_off_c, 9, 61, 0
17, 89368, Note_on_c, 9, 61, 104
17, 89412, Note_off_c, 9, 61, 0
17, 90132, Note_on_c, 9, 61, 96
17, 90172, Note_off_c, 9, 61, 0
17, 90908, Note_on_c, 9, 61, 104
17, 90948, Note_off_c, 9, 61, 0
17, 91672, Note_on_c, 9, 61, 96
17, 91720, Note_off_c, 9, 61, 0
17, 92440, Note_on_c, 9, 61, 104
17, 92484, Note_off_c, 9, 61, 0
17, 93208, Note_on_c, 9, 61, 96
17, 93252, Note_off_c, 9, 61, 0
17, 93972, Note_on_c, 9, 61, 104
17, 94012, Note_off_c, 9, 61, 0
17, 94748, Note_on_c, 9, 61, 96
17, 94788, Note_off_c, 9, 61, 0
17, 95512, Note_on_c, 9, 61, 104
17, 95552, Note_off_c, 9, 61, 0
17, 96280, Note_on_c, 9, 61, 96
17, 96320, Note_off_c, 9, 61, 0
17, 97048, Note_on_c, 9, 61, 104
17, 97092, Note_off_c, 9, 61, 0
17, 97820, Note_on_c, 9, 61, 96
17, 97856, Note_off_c, 9, 61, 0
17, 98584, Note_on_c, 9, 61, 104
17, 98628, Note_off_c, 9, 61, 0
17, 99348, Note_on_c, 9, 61, 96
17, 99388, Note_off_c, 9, 61, 0
17, 100120, Note_on_c, 9, 61, 104
17, 100160, Note_off_c, 9, 61, 0
17, 100892, Note_on_c, 9, 61, 96
17, 100932, Note_off_c, 9, 61, 0
17, 101656, Note_on_c, 9, 61, 104
17, 101696, Note_off_c, 9, 61, 0
17, 102420, Note_on_c, 9, 61, 96
17, 102472, Note_off_c, 9, 61, 0
17, 103192, Note_on_c, 9, 61, 104
17, 103232, Note_off_c, 9, 61, 0
17, 103960, Note_on_c, 9, 61, 96
17, 103996, Note_off_c, 9, 61, 0
17, 104728, Note_on_c, 9, 61, 104
17, 104768, Note_off_c, 9, 61, 0
17, 105496, Note_on_c, 9, 61, 96
17, 105536, Note_off_c, 9, 61, 0
17, 106264, Note_on_c, 9, 61, 104
17, 106308, Note_off_c, 9, 61, 0
17, 107036, Note_on_c, 9, 61, 96
17, 107072, Note_off_c, 9, 61, 0
17, 107800, Note_on_c, 9, 61, 104
17, 107844, Note_off_c, 9, 61, 0
17, 108568, Note_on_c, 9, 61, 96
17, 108608, Note_off_c, 9, 61, 0
17, 109336, Note_on_c, 9, 61, 104
17, 109376, Note_off_c, 9, 61, 0
17, 110104, Note_on_c, 9, 61, 96
17, 110148, Note_off_c, 9, 61, 0
17, 110872, Note_on_c, 9, 61, 104
17, 110912, Note_off_c, 9, 61, 0
17, 111640, Note_on_c, 9, 61, 96
17, 111684, Note_off_c, 9, 61, 0
17, 112412, Note_on_c, 9, 61, 104
17, 112448, Note_off_c, 9, 61, 0
17, 113172, Note_on_c, 9, 61, 96
17, 113212, Note_off_c, 9, 61, 0
17, 113948, Note_on_c, 9, 61, 96
17, 113988, Note_off_c, 9, 61, 0
17, 114712, Note_on_c, 9, 61, 104
17, 114760, Note_off_c, 9, 61, 0
17, 115480, Note_on_c, 9, 61, 96
17, 115524, Note_off_c, 9, 61, 0
17, 116252, Note_on_c, 9, 61, 104
17, 116292, Note_off_c, 9, 61, 0
17, 117016, Note_on_c, 9, 61, 96
17, 117056, Note_off_c, 9, 61, 0
17, 117788, Note_on_c, 9, 61, 104
17, 117828, Note_off_c, 9, 61, 0
17, 118548, Note_on_c, 9, 61, 44
17, 118592, Note_off_c, 9, 61, 0
17, 119320, Note_on_c, 9, 61, 64
17, 119364, Note_off_c, 9, 61, 0
17, 120088, Note_on_c, 9, 61, 96
17, 120128, Note_off_c, 9, 61, 0
17, 120852, Note_on_c, 9, 61, 104
17, 120892, Note_off_c, 9, 61, 0
17, 121624, Note_on_c, 9, 61, 96
17, 121668, Note_off_c, 9, 61, 0
17, 122392, Note_on_c, 9, 61, 104
17, 122436, Note_off_c, 9, 61, 0
17, 123160, Note_on_c, 9, 61, 96
17, 123200, Note_off_c, 9, 61, 0
17, 123928, Note_on_c, 9, 61, 104
17, 123968, Note_off_c, 9, 61, 0
17, 124696, Note_on_c, 9, 61, 96
17, 124736, Note_off_c, 9, 61, 0
17, 125464, Note_on_c, 9, 61, 104
17, 125504, Note_off_c, 9, 61, 0
17, 126228, Note_on_c, 9, 61, 96
17, 126268, Note_off_c, 9, 61, 0
17, 127000, Note_on_c, 9, 61, 104
17, 127044, Note_off_c, 9, 61, 0
17, 127768, Note_on_c, 9, 61, 96
17, 127808, Note_off_c, 9, 61, 0
17, 128536, Note_on_c, 9, 61, 104
17, 128580, Note_off_c, 9, 61, 0
17, 129300, Note_on_c, 9, 61, 96
17, 129348, Note_off_c, 9, 61, 0
17, 130072, Note_on_c, 9, 61, 104
17, 130112, Note_off_c, 9, 61, 0
17, 130840, Note_on_c, 9, 61, 96
17, 130884, Note_off_c, 9, 61, 0
17, 131612, Note_on_c, 9, 61, 104
17, 131648, Note_off_c, 9, 61, 0
17, 132376, Note_on_c, 9, 61, 96
17, 132416, Note_off_c, 9, 61, 0
17, 133144, Note_on_c, 9, 61, 104
17, 133184, Note_off_c, 9, 61, 0
17, 133924, Note_on_c, 9, 61, 96
17, 133952, Note_off_c, 9, 61, 0
17, 134676, Note_on_c, 9, 61, 104
17, 134724, Note_off_c, 9, 61, 0
17, 135448, Note_on_c, 9, 61, 96
17, 135488, Note_off_c, 9, 61, 0
17, 136216, Note_on_c, 9, 61, 104
17, 136256, Note_off_c, 9, 61, 0
17, 136988, Note_on_c, 9, 61, 96
17, 137028, Note_off_c, 9, 61, 0
17, 137748, Note_on_c, 9, 61, 104
17, 137792, Note_off_c, 9, 61, 0
17, 138516, Note_on_c, 9, 61, 96
17, 138564, Note_off_c, 9, 61, 0
17, 139288, Note_on_c, 9, 61, 104
17, 139328, Note_off_c, 9, 61, 0
17, 140056, Note_on_c, 9, 61, 96
17, 140092, Note_off_c, 9, 61, 0
17, 140820, Note_on_c, 9, 61, 104
17, 140868, Note_off_c, 9, 61, 0
17, 141592, Note_on_c, 9, 61, 96
17, 141628, Note_off_c, 9, 61, 0
17, 142360, Note_on_c, 9, 61, 104
17, 142404, Note_off_c, 9, 61, 0
17, 143128, Note_on_c, 9, 61, 96
17, 143168, Note_off_c, 9, 61, 0
17, 143896, Note_on_c, 9, 61, 104
17, 143940, Note_off_c, 9, 61, 0
17, 144660, Note_on_c, 9, 61, 96
17, 144704, Note_off_c, 9, 61, 0
17, 145432, Note_on_c, 9, 61, 104
17, 145476, Note_off_c, 9, 61, 0
17, 146196, Note_on_c, 9, 61, 96
17, 146240, Note_off_c, 9, 61, 0
17, 146968, Note_on_c, 9, 61, 104
17, 147012, Note_off_c, 9, 61, 0
17, 147736, Note_on_c, 9, 61, 96
17, 147780, Note_off_c, 9, 61, 0
17, 148504, Note_on_c, 9, 61, 104
17, 148544, Note_off_c, 9, 61, 0
17, 149268, Note_on_c, 9, 61, 96
17, 149312, Note_off_c, 9, 61, 0
17, 150040, Note_on_c, 9, 61, 104
17, 150084, Note_off_c, 9, 61, 0
17, 150804, Note_on_c, 9, 61, 96
17, 150848, Note_off_c, 9, 61, 0
17, 151576, Note_on_c, 9, 61, 104
17, 151616, Note_off_c, 9, 61, 0
17, 152340, Note_on_c, 9, 61, 96
17, 152384, Note_off_c, 9, 61, 0
17, 153112, Note_on_c, 9, 61, 104
17, 153152, Note_off_c, 9, 61, 0
17, 153152, End_track
18, 0, Start_track
18, 0, Title_t, "D#3 "
18, 0, Control_c, 9, 0, 0
18, 0, Program_c, 9, 0
18, 0, Control_c, 9, 91, 100
18, 0, Key_signature, 0, "major"
18, 1524, Note_on_c, 9, 63, 96
18, 1564, Note_off_c, 9, 63, 0
18, 1908, Note_on_c, 9, 63, 104
18, 1948, Note_off_c, 9, 63, 0
18, 2292, Note_on_c, 9, 63, 96
18, 2340, Note_off_c, 9, 63, 0
18, 2388, Note_on_c, 9, 63, 72
18, 2428, Note_off_c, 9, 63, 0
18, 2680, Note_on_c, 9, 63, 100
18, 2724, Note_off_c, 9, 63, 0
18, 3060, Note_on_c, 9, 63, 96
18, 3100, Note_off_c, 9, 63, 0
18, 3444, Note_on_c, 9, 63, 104
18, 3488, Note_off_c, 9, 63, 0
18, 3828, Note_on_c, 9, 63, 96
18, 3876, Note_off_c, 9, 63, 0
18, 3924, Note_on_c, 9, 63, 72
18, 3964, Note_off_c, 9, 63, 0
18, 4212, Note_on_c, 9, 63, 100
18, 4256, Note_off_c, 9, 63, 0
18, 4600, Note_on_c, 9, 63, 96
18, 4640, Note_off_c, 9, 63, 0
18, 4980, Note_on_c, 9, 63, 104
18, 5028, Note_off_c, 9, 63, 0
18, 5364, Note_on_c, 9, 63, 96
18, 5404, Note_off_c, 9, 63, 0
18, 5460, Note_on_c, 9, 63, 72
18, 5508, Note_off_c, 9, 63, 0
18, 5748, Note_on_c, 9, 63, 100
18, 5792, Note_off_c, 9, 63, 0
18, 6132, Note_on_c, 9, 63, 96
18, 6180, Note_off_c, 9, 63, 0
18, 6516, Note_on_c, 9, 63, 104
18, 6568, Note_off_c, 9, 63, 0
18, 6900, Note_on_c, 9, 63, 96
18, 6944, Note_off_c, 9, 63, 0
18, 6996, Note_on_c, 9, 63, 72
18, 7044, Note_off_c, 9, 63, 0
18, 7284, Note_on_c, 9, 63, 100
18, 7324, Note_off_c, 9, 63, 0
18, 7672, Note_on_c, 9, 63, 96
18, 7716, Note_off_c, 9, 63, 0
18, 8052, Note_on_c, 9, 63, 104
18, 8096, Note_off_c, 9, 63, 0
18, 8440, Note_on_c, 9, 63, 96
18, 8472, Note_off_c, 9, 63, 0
18, 8532, Note_on_c, 9, 63, 72
18, 8580, Note_off_c, 9, 63, 0
18, 8824, Note_on_c, 9, 63, 100
18, 8868, Note_off_c, 9, 63, 0
18, 9208, Note_on_c, 9, 63, 96
18, 9244, Note_off_c, 9, 63, 0
18, 9592, Note_on_c, 9, 63, 104
18, 9632, Note_off_c, 9, 63, 0
18, 9972, Note_on_c, 9, 63, 96
18, 10020, Note_off_c, 9, 63, 0
18, 10072, Note_on_c, 9, 63, 72
18, 10108, Note_off_c, 9, 63, 0
18, 10360, Note_on_c, 9, 63, 100
18, 10404, Note_off_c, 9, 63, 0
18, 10748, Note_on_c, 9, 63, 96
18, 10780, Note_off_c, 9, 63, 0
18, 11124, Note_on_c, 9, 63, 104
18, 11164, Note_off_c, 9, 63, 0
18, 11512, Note_on_c, 9, 63, 96
18, 11556, Note_off_c, 9, 63, 0
18, 11604, Note_on_c, 9, 63, 72
18, 11644, Note_off_c, 9, 63, 0
18, 11896, Note_on_c, 9, 63, 100
18, 11940, Note_off_c, 9, 63, 0
18, 12280, Note_on_c, 9, 63, 96
18, 12320, Note_off_c, 9, 63, 0
18, 12660, Note_on_c, 9, 63, 104
18, 12708, Note_off_c, 9, 63, 0
18, 13052, Note_on_c, 9, 63, 96
18, 13092, Note_off_c, 9, 63, 0
18, 13140, Note_on_c, 9, 63, 72
18, 13180, Note_off_c, 9, 63, 0
18, 13432, Note_on_c, 9, 63, 100
18, 13468, Note_off_c, 9, 63, 0
18, 13816, Note_on_c, 9, 63, 96
18, 13852, Note_off_c, 9, 63, 0
18, 14196, Note_on_c, 9, 63, 104
18, 14248, Note_off_c, 9, 63, 0
18, 14584, Note_on_c, 9, 63, 96
18, 14624, Note_off_c, 9, 63, 0
18, 14680, Note_on_c, 9, 63, 72
18, 14724, Note_off_c, 9, 63, 0
18, 14968, Note_on_c, 9, 63, 100
18, 15008, Note_off_c, 9, 63, 0
18, 15348, Note_on_c, 9, 63, 96
18, 15396, Note_off_c, 9, 63, 0
18, 15736, Note_on_c, 9, 63, 104
18, 15772, Note_off_c, 9, 63, 0
18, 16120, Note_on_c, 9, 63, 96
18, 16160, Note_off_c, 9, 63, 0
18, 16216, Note_on_c, 9, 63, 72
18, 16256, Note_off_c, 9, 63, 0
18, 16500, Note_on_c, 9, 63, 100
18, 16548, Note_off_c, 9, 63, 0
18, 16888, Note_on_c, 9, 63, 96
18, 16932, Note_off_c, 9, 63, 0
18, 17268, Note_on_c, 9, 63, 104
18, 17312, Note_off_c, 9, 63, 0
18, 17660, Note_on_c, 9, 63, 96
18, 17692, Note_off_c, 9, 63, 0
18, 17748, Note_on_c, 9, 63, 72
18, 17788, Note_off_c, 9, 63, 0
18, 18040, Note_on_c, 9, 63, 100
18, 18084, Note_off_c, 9, 63, 0
18, 18424, Note_on_c, 9, 63, 96
18, 18464, Note_off_c, 9, 63, 0
18, 18812, Note_on_c, 9, 63, 104
18, 18844, Note_off_c, 9, 63, 0
18, 19188, Note_on_c, 9, 63, 96
18, 19236, Note_off_c, 9, 63, 0
18, 19288, Note_on_c, 9, 63, 72
18, 19324, Note_off_c, 9, 63, 0
18, 19576, Note_on_c, 9, 63, 100
18, 19612, Note_off_c, 9, 63, 0
18, 19960, Note_on_c, 9, 63, 96
18, 20000, Note_off_c, 9, 63, 0
18, 20344, Note_on_c, 9, 63, 104
18, 20388, Note_off_c, 9, 63, 0
18, 20724, Note_on_c, 9, 63, 96
18, 20772, Note_off_c, 9, 63, 0
18, 20820, Note_on_c, 9, 63, 72
18, 20860, Note_off_c, 9, 63, 0
18, 21108, Note_on_c, 9, 63, 100
18, 21148, Note_off_c, 9, 63, 0
18, 21500, Note_on_c, 9, 63, 96
18, 21532, Note_off_c, 9, 63, 0
18, 21880, Note_on_c, 9, 63, 104
18, 21928, Note_off_c, 9, 63, 0
18, 22264, Note_on_c, 9, 63, 96
18, 22300, Note_off_c, 9, 63, 0
18, 22356, Note_on_c, 9, 63, 72
18, 22404, Note_off_c, 9, 63, 0
18, 22652, Note_on_c, 9, 63, 100
18, 22684, Note_off_c, 9, 63, 0
18, 23036, Note_on_c, 9, 63, 96
18, 23076, Note_off_c, 9, 63, 0
18, 23416, Note_on_c, 9, 63, 104
18, 23452, Note_off_c, 9, 63, 0
18, 23796, Note_on_c, 9, 63, 96
18, 23836, Note_off_c, 9, 63, 0
18, 23892, Note_on_c, 9, 63, 72
18, 23940, Note_off_c, 9, 63, 0
18, 24184, Note_on_c, 9, 63, 100
18, 24224, Note_off_c, 9, 63, 0
18, 24568, Note_on_c, 9, 63, 96
18, 24612, Note_off_c, 9, 63, 0
18, 24948, Note_on_c, 9, 63, 104
18, 24988, Note_off_c, 9, 63, 0
18, 25336, Note_on_c, 9, 63, 96
18, 25376, Note_off_c, 9, 63, 0
18, 25428, Note_on_c, 9, 63, 72
18, 25468, Note_off_c, 9, 63, 0
18, 25716, Note_on_c, 9, 63, 100
18, 25764, Note_off_c, 9, 63, 0
18, 26100, Note_on_c, 9, 63, 96
18, 26140, Note_off_c, 9, 63, 0
18, 26484, Note_on_c, 9, 63, 104
18, 26524, Note_off_c, 9, 63, 0
18, 26872, Note_on_c, 9, 63, 96
18, 26916, Note_off_c, 9, 63, 0
18, 27256, Note_on_c, 9, 63, 104
18, 27292, Note_off_c, 9, 63, 0
18, 27640, Note_on_c, 9, 63, 96
18, 27684, Note_off_c, 9, 63, 0
18, 27732, Note_on_c, 9, 63, 72
18, 27780, Note_off_c, 9, 63, 0
18, 28024, Note_on_c, 9, 63, 100
18, 28072, Note_off_c, 9, 63, 0
18, 28408, Note_on_c, 9, 63, 96
18, 28452, Note_off_c, 9, 63, 0
18, 28788, Note_on_c, 9, 63, 104
18, 28828, Note_off_c, 9, 63, 0
18, 29176, Note_on_c, 9, 63, 96
18, 29216, Note_off_c, 9, 63, 0
18, 29268, Note_on_c, 9, 63, 72
18, 29308, Note_off_c, 9, 63, 0
18, 29560, Note_on_c, 9, 63, 100
18, 29604, Note_off_c, 9, 63, 0
18, 29940, Note_on_c, 9, 63, 96
18, 29980, Note_off_c, 9, 63, 0
18, 30328, Note_on_c, 9, 63, 104
18, 30368, Note_off_c, 9, 63, 0
18, 30712, Note_on_c, 9, 63, 96
18, 30760, Note_off_c, 9, 63, 0
18, 30804, Note_on_c, 9, 63, 72
18, 30844, Note_off_c, 9, 63, 0
18, 31092, Note_on_c, 9, 63, 100
18, 31136, Note_off_c, 9, 63, 0
18, 31480, Note_on_c, 9, 63, 96
18, 31520, Note_off_c, 9, 63, 0
18, 31860, Note_on_c, 9, 63, 104
18, 31900, Note_off_c, 9, 63, 0
18, 32244, Note_on_c, 9, 63, 96
18, 32292, Note_off_c, 9, 63, 0
18, 32340, Note_on_c, 9, 63, 72
18, 32380, Note_off_c, 9, 63, 0
18, 32628, Note_on_c, 9, 63, 100
18, 32676, Note_off_c, 9, 63, 0
18, 33016, Note_on_c, 9, 63, 96
18, 33056, Note_off_c, 9, 63, 0
18, 33396, Note_on_c, 9, 63, 104
18, 33444, Note_off_c, 9, 63, 0
18, 33780, Note_on_c, 9, 63, 96
18, 33820, Note_off_c, 9, 63, 0
18, 34164, Note_on_c, 9, 63, 104
18, 34204, Note_off_c, 9, 63, 0
18, 34548, Note_on_c, 9, 63, 96
18, 34596, Note_off_c, 9, 63, 0
18, 34644, Note_on_c, 9, 63, 72
18, 34684, Note_off_c, 9, 63, 0
18, 34932, Note_on_c, 9, 63, 100
18, 34980, Note_off_c, 9, 63, 0
18, 35320, Note_on_c, 9, 63, 96
18, 35360, Note_off_c, 9, 63, 0
18, 35700, Note_on_c, 9, 63, 104
18, 35740, Note_off_c, 9, 63, 0
18, 36088, Note_on_c, 9, 63, 96
18, 36132, Note_off_c, 9, 63, 0
18, 36180, Note_on_c, 9, 63, 72
18, 36220, Note_off_c, 9, 63, 0
18, 36476, Note_on_c, 9, 63, 100
18, 36508, Note_off_c, 9, 63, 0
18, 36856, Note_on_c, 9, 63, 96
18, 36896, Note_off_c, 9, 63, 0
18, 37240, Note_on_c, 9, 63, 104
18, 37284, Note_off_c, 9, 63, 0
18, 37624, Note_on_c, 9, 63, 96
18, 37660, Note_off_c, 9, 63, 0
18, 37716, Note_on_c, 9, 63, 72
18, 37760, Note_off_c, 9, 63, 0
18, 38004, Note_on_c, 9, 63, 100
18, 38044, Note_off_c, 9, 63, 0
18, 38388, Note_on_c, 9, 63, 96
18, 38432, Note_off_c, 9, 63, 0
18, 38776, Note_on_c, 9, 63, 104
18, 38820, Note_off_c, 9, 63, 0
18, 39160, Note_on_c, 9, 63, 96
18, 39196, Note_off_c, 9, 63, 0
18, 39252, Note_on_c, 9, 63, 72
18, 39300, Note_off_c, 9, 63, 0
18, 39544, Note_on_c, 9, 63, 100
18, 39584, Note_off_c, 9, 63, 0
18, 39932, Note_on_c, 9, 63, 96
18, 39972, Note_off_c, 9, 63, 0
18, 40312, Note_on_c, 9, 63, 104
18, 40352, Note_off_c, 9, 63, 0
18, 40696, Note_on_c, 9, 63, 96
18, 40736, Note_off_c, 9, 63, 0
18, 41076, Note_on_c, 9, 63, 104
18, 41124, Note_off_c, 9, 63, 0
18, 41464, Note_on_c, 9, 63, 96
18, 41500, Note_off_c, 9, 63, 0
18, 41556, Note_on_c, 9, 63, 72
18, 41604, Note_off_c, 9, 63, 0
18, 41848, Note_on_c, 9, 63, 100
18, 41888, Note_off_c, 9, 63, 0
18, 42232, Note_on_c, 9, 63, 96
18, 42276, Note_off_c, 9, 63, 0
18, 42616, Note_on_c, 9, 63, 104
18, 42660, Note_off_c, 9, 63, 0
18, 43008, Note_on_c, 9, 63, 96
18, 43040, Note_off_c, 9, 63, 0
18, 43092, Note_on_c, 9, 63, 72
18, 43140, Note_off_c, 9, 63, 0
18, 43384, Note_on_c, 9, 63, 100
18, 43424, Note_off_c, 9, 63, 0
18, 43764, Note_on_c, 9, 63, 96
18, 43808, Note_off_c, 9, 63, 0
18, 44148, Note_on_c, 9, 63, 104
18, 44192, Note_off_c, 9, 63, 0
18, 44532, Note_on_c, 9, 63, 96
18, 44572, Note_off_c, 9, 63, 0
18, 44628, Note_on_c, 9, 63, 72
18, 44676, Note_off_c, 9, 63, 0
18, 44924, Note_on_c, 9, 63, 100
18, 44964, Note_off_c, 9, 63, 0
18, 45300, Note_on_c, 9, 63, 60
18, 45340, Note_off_c, 9, 63, 0
18, 45684, Note_on_c, 9, 63, 56
18, 45728, Note_off_c, 9, 63, 0
18, 46072, Note_on_c, 9, 63, 48
18, 46116, Note_off_c, 9, 63, 0
18, 46164, Note_on_c, 9, 63, 36
18, 46204, Note_off_c, 9, 63, 0
18, 46452, Note_on_c, 9, 63, 44
18, 46500, Note_off_c, 9, 63, 0
18, 46840, Note_on_c, 9, 63, 96
18, 46884, Note_off_c, 9, 63, 0
18, 47224, Note_on_c, 9, 63, 104
18, 47264, Note_off_c, 9, 63, 0
18, 47608, Note_on_c, 9, 63, 96
18, 47652, Note_off_c, 9, 63, 0
18, 47700, Note_on_c, 9, 63, 72
18, 47740, Note_off_c, 9, 63, 0
18, 47992, Note_on_c, 9, 63, 100
18, 48032, Note_off_c, 9, 63, 0
18, 48376, Note_on_c, 9, 63, 96
18, 48412, Note_off_c, 9, 63, 0
18, 48756, Note_on_c, 9, 63, 104
18, 48792, Note_off_c, 9, 63, 0
18, 49144, Note_on_c, 9, 63, 96
18, 49188, Note_off_c, 9, 63, 0
18, 49236, Note_on_c, 9, 63, 72
18, 49276, Note_off_c, 9, 63, 0
18, 49528, Note_on_c, 9, 63, 100
18, 49568, Note_off_c, 9, 63, 0
18, 49920, Note_on_c, 9, 63, 96
18, 49948, Note_off_c, 9, 63, 0
18, 50296, Note_on_c, 9, 63, 104
18, 50336, Note_off_c, 9, 63, 0
18, 50680, Note_on_c, 9, 63, 96
18, 50720, Note_off_c, 9, 63, 0
18, 50772, Note_on_c, 9, 63, 72
18, 50820, Note_off_c, 9, 63, 0
18, 51060, Note_on_c, 9, 63, 100
18, 51100, Note_off_c, 9, 63, 0
18, 51448, Note_on_c, 9, 63, 96
18, 51492, Note_off_c, 9, 63, 0
18, 51832, Note_on_c, 9, 63, 104
18, 51872, Note_off_c, 9, 63, 0
18, 52212, Note_on_c, 9, 63, 96
18, 52252, Note_off_c, 9, 63, 0
18, 52308, Note_on_c, 9, 63, 72
18, 52356, Note_off_c, 9, 63, 0
18, 52596, Note_on_c, 9, 63, 100
18, 52644, Note_off_c, 9, 63, 0
18, 52984, Note_on_c, 9, 63, 96
18, 53028, Note_off_c, 9, 63, 0
18, 53368, Note_on_c, 9, 63, 104
18, 53408, Note_off_c, 9, 63, 0
18, 53756, Note_on_c, 9, 63, 96
18, 53792, Note_off_c, 9, 63, 0
18, 53844, Note_on_c, 9, 63, 72
18, 53884, Note_off_c, 9, 63, 0
18, 54140, Note_on_c, 9, 63, 100
18, 54180, Note_off_c, 9, 63, 0
18, 54520, Note_on_c, 9, 63, 96
18, 54560, Note_off_c, 9, 63, 0
18, 54904, Note_on_c, 9, 63, 104
18, 54944, Note_off_c, 9, 63, 0
18, 55288, Note_on_c, 9, 63, 96
18, 55332, Note_off_c, 9, 63, 0
18, 55380, Note_on_c, 9, 63, 72
18, 55420, Note_off_c, 9, 63, 0
18, 55672, Note_on_c, 9, 63, 100
18, 55712, Note_off_c, 9, 63, 0
18, 56056, Note_on_c, 9, 63, 96
18, 56100, Note_off_c, 9, 63, 0
18, 56440, Note_on_c, 9, 63, 104
18, 56488, Note_off_c, 9, 63, 0
18, 56824, Note_on_c, 9, 63, 96
18, 56864, Note_off_c, 9, 63, 0
18, 56916, Note_on_c, 9, 63, 72
18, 56956, Note_off_c, 9, 63, 0
18, 57204, Note_on_c, 9, 63, 100
18, 57244, Note_off_c, 9, 63, 0
18, 57592, Note_on_c, 9, 63, 96
18, 57628, Note_off_c, 9, 63, 0
18, 57976, Note_on_c, 9, 63, 104
18, 58024, Note_off_c, 9, 63, 0
18, 58360, Note_on_c, 9, 63, 96
18, 58396, Note_off_c, 9, 63, 0
18, 58452, Note_on_c, 9, 63, 72
18, 58500, Note_off_c, 9, 63, 0
18, 58744, Note_on_c, 9, 63, 100
18, 58788, Note_off_c, 9, 63, 0
18, 59128, Note_on_c, 9, 63, 96
18, 59172, Note_off_c, 9, 63, 0
18, 59512, Note_on_c, 9, 63, 104
18, 59548, Note_off_c, 9, 63, 0
18, 59896, Note_on_c, 9, 63, 96
18, 59936, Note_off_c, 9, 63, 0
18, 59988, Note_on_c, 9, 63, 72
18, 60032, Note_off_c, 9, 63, 0
18, 60280, Note_on_c, 9, 63, 100
18, 60320, Note_off_c, 9, 63, 0
18, 60664, Note_on_c, 9, 63, 96
18, 60708, Note_off_c, 9, 63, 0
18, 61048, Note_on_c, 9, 63, 104
18, 61084, Note_off_c, 9, 63, 0
18, 61432, Note_on_c, 9, 63, 96
18, 61468, Note_off_c, 9, 63, 0
18, 61524, Note_on_c, 9, 63, 72
18, 61564, Note_off_c, 9, 63, 0
18, 61820, Note_on_c, 9, 63, 100
18, 61860, Note_off_c, 9, 63, 0
18, 62200, Note_on_c, 9, 63, 96
18, 62240, Note_off_c, 9, 63, 0
18, 62584, Note_on_c, 9, 63, 104
18, 62620, Note_off_c, 9, 63, 0
18, 62964, Note_on_c, 9, 63, 96
18, 63012, Note_off_c, 9, 63, 0
18, 63068, Note_on_c, 9, 63, 72
18, 63100, Note_off_c, 9, 63, 0
18, 63352, Note_on_c, 9, 63, 100
18, 63388, Note_off_c, 9, 63, 0
18, 63736, Note_on_c, 9, 63, 96
18, 63776, Note_off_c, 9, 63, 0
18, 64116, Note_on_c, 9, 63, 104
18, 64164, Note_off_c, 9, 63, 0
18, 64508, Note_on_c, 9, 63, 96
18, 64548, Note_off_c, 9, 63, 0
18, 64600, Note_on_c, 9, 63, 72
18, 64636, Note_off_c, 9, 63, 0
18, 64888, Note_on_c, 9, 63, 100
18, 64924, Note_off_c, 9, 63, 0
18, 65272, Note_on_c, 9, 63, 96
18, 65308, Note_off_c, 9, 63, 0
18, 65652, Note_on_c, 9, 63, 104
18, 65700, Note_off_c, 9, 63, 0
18, 66036, Note_on_c, 9, 63, 96
18, 66076, Note_off_c, 9, 63, 0
18, 66132, Note_on_c, 9, 63, 72
18, 66176, Note_off_c, 9, 63, 0
18, 66424, Note_on_c, 9, 63, 100
18, 66464, Note_off_c, 9, 63, 0
18, 66808, Note_on_c, 9, 63, 96
18, 66852, Note_off_c, 9, 63, 0
18, 67188, Note_on_c, 9, 63, 104
18, 67236, Note_off_c, 9, 63, 0
18, 67572, Note_on_c, 9, 63, 96
18, 67612, Note_off_c, 9, 63, 0
18, 67668, Note_on_c, 9, 63, 72
18, 67716, Note_off_c, 9, 63, 0
18, 67956, Note_on_c, 9, 63, 100
18, 67996, Note_off_c, 9, 63, 0
18, 68344, Note_on_c, 9, 63, 96
18, 68384, Note_off_c, 9, 63, 0
18, 68724, Note_on_c, 9, 63, 104
18, 68764, Note_off_c, 9, 63, 0
18, 69112, Note_on_c, 9, 63, 96
18, 69152, Note_off_c, 9, 63, 0
18, 69204, Note_on_c, 9, 63, 72
18, 69244, Note_off_c, 9, 63, 0
18, 69496, Note_on_c, 9, 63, 100
18, 69540, Note_off_c, 9, 63, 0
18, 69880, Note_on_c, 9, 63, 96
18, 69916, Note_off_c, 9, 63, 0
18, 70264, Note_on_c, 9, 63, 104
18, 70304, Note_off_c, 9, 63, 0
18, 70656, Note_on_c, 9, 63, 96
18, 70692, Note_off_c, 9, 63, 0
18, 70740, Note_on_c, 9, 63, 72
18, 70780, Note_off_c, 9, 63, 0
18, 71028, Note_on_c, 9, 63, 100
18, 71076, Note_off_c, 9, 63, 0
18, 71416, Note_on_c, 9, 63, 96
18, 71452, Note_off_c, 9, 63, 0
18, 71796, Note_on_c, 9, 63, 104
18, 71836, Note_off_c, 9, 63, 0
18, 72184, Note_on_c, 9, 63, 96
18, 72228, Note_off_c, 9, 63, 0
18, 72276, Note_on_c, 9, 63, 72
18, 72316, Note_off_c, 9, 63, 0
18, 72564, Note_on_c, 9, 63, 100
18, 72608, Note_off_c, 9, 63, 0
18, 72952, Note_on_c, 9, 63, 96
18, 72992, Note_off_c, 9, 63, 0
18, 73336, Note_on_c, 9, 63, 104
18, 73380, Note_off_c, 9, 63, 0
18, 73720, Note_on_c, 9, 63, 96
18, 73756, Note_off_c, 9, 63, 0
18, 74100, Note_on_c, 9, 63, 104
18, 74140, Note_off_c, 9, 63, 0
18, 74484, Note_on_c, 9, 63, 96
18, 74532, Note_off_c, 9, 63, 0
18, 74580, Note_on_c, 9, 63, 72
18, 74620, Note_off_c, 9, 63, 0
18, 74868, Note_on_c, 9, 63, 100
18, 74912, Note_off_c, 9, 63, 0
18, 75260, Note_on_c, 9, 63, 96
18, 75296, Note_off_c, 9, 63, 0
18, 75636, Note_on_c, 9, 63, 104
18, 75676, Note_off_c, 9, 63, 0
18, 76024, Note_on_c, 9, 63, 96
18, 76068, Note_off_c, 9, 63, 0
18, 76116, Note_on_c, 9, 63, 72
18, 76156, Note_off_c, 9, 63, 0
18, 76404, Note_on_c, 9, 63, 100
18, 76444, Note_off_c, 9, 63, 0
18, 76796, Note_on_c, 9, 63, 96
18, 76832, Note_off_c, 9, 63, 0
18, 77176, Note_on_c, 9, 63, 104
18, 77220, Note_off_c, 9, 63, 0
18, 77556, Note_on_c, 9, 63, 96
18, 77596, Note_off_c, 9, 63, 0
18, 77652, Note_on_c, 9, 63, 72
18, 77696, Note_off_c, 9, 63, 0
18, 77948, Note_on_c, 9, 63, 100
18, 77988, Note_off_c, 9, 63, 0
18, 78332, Note_on_c, 9, 63, 96
18, 78372, Note_off_c, 9, 63, 0
18, 78712, Note_on_c, 9, 63, 104
18, 78756, Note_off_c, 9, 63, 0
18, 79096, Note_on_c, 9, 63, 96
18, 79132, Note_off_c, 9, 63, 0
18, 79188, Note_on_c, 9, 63, 72
18, 79232, Note_off_c, 9, 63, 0
18, 79476, Note_on_c, 9, 63, 100
18, 79516, Note_off_c, 9, 63, 0
18, 79868, Note_on_c, 9, 63, 96
18, 79908, Note_off_c, 9, 63, 0
18, 80248, Note_on_c, 9, 63, 104
18, 80288, Note_off_c, 9, 63, 0
18, 80632, Note_on_c, 9, 63, 96
18, 80668, Note_off_c, 9, 63, 0
18, 81012, Note_on_c, 9, 63, 104
18, 81060, Note_off_c, 9, 63, 0
18, 81396, Note_on_c, 9, 63, 96
18, 81436, Note_off_c, 9, 63, 0
18, 81492, Note_on_c, 9, 63, 72
18, 81532, Note_off_c, 9, 63, 0
18, 81780, Note_on_c, 9, 63, 100
18, 81820, Note_off_c, 9, 63, 0
18, 82164, Note_on_c, 9, 63, 96
18, 82212, Note_off_c, 9, 63, 0
18, 82552, Note_on_c, 9, 63, 104
18, 82596, Note_off_c, 9, 63, 0
18, 82932, Note_on_c, 9, 63, 96
18, 82972, Note_off_c, 9, 63, 0
18, 83028, Note_on_c, 9, 63, 72
18, 83076, Note_off_c, 9, 63, 0
18, 83316, Note_on_c, 9, 63, 100
18, 83356, Note_off_c, 9, 63, 0
18, 83712, Note_on_c, 9, 63, 96
18, 83748, Note_off_c, 9, 63, 0
18, 84088, Note_on_c, 9, 63, 104
18, 84124, Note_off_c, 9, 63, 0
18, 84472, Note_on_c, 9, 63, 96
18, 84512, Note_off_c, 9, 63, 0
18, 84564, Note_on_c, 9, 63, 72
18, 84612, Note_off_c, 9, 63, 0
18, 84860, Note_on_c, 9, 63, 100
18, 84900, Note_off_c, 9, 63, 0
18, 85240, Note_on_c, 9, 63, 60
18, 85284, Note_off_c, 9, 63, 0
18, 85620, Note_on_c, 9, 63, 56
18, 85664, Note_off_c, 9, 63, 0
18, 86004, Note_on_c, 9, 63, 48
18, 86044, Note_off_c, 9, 63, 0
18, 86100, Note_on_c, 9, 63, 36
18, 86140, Note_off_c, 9, 63, 0
18, 86392, Note_on_c, 9, 63, 44
18, 86436, Note_off_c, 9, 63, 0
18, 86776, Note_on_c, 9, 63, 96
18, 86816, Note_off_c, 9, 63, 0
18, 87160, Note_on_c, 9, 63, 104
18, 87204, Note_off_c, 9, 63, 0
18, 87544, Note_on_c, 9, 63, 96
18, 87588, Note_off_c, 9, 63, 0
18, 87636, Note_on_c, 9, 63, 72
18, 87676, Note_off_c, 9, 63, 0
18, 87924, Note_on_c, 9, 63, 100
18, 87964, Note_off_c, 9, 63, 0
18, 88312, Note_on_c, 9, 63, 96
18, 88352, Note_off_c, 9, 63, 0
18, 88696, Note_on_c, 9, 63, 104
18, 88740, Note_off_c, 9, 63, 0
18, 89080, Note_on_c, 9, 63, 96
18, 89120, Note_off_c, 9, 63, 0
18, 89176, Note_on_c, 9, 63, 72
18, 89212, Note_off_c, 9, 63, 0
18, 89464, Note_on_c, 9, 63, 100
18, 89504, Note_off_c, 9, 63, 0
18, 89856, Note_on_c, 9, 63, 96
18, 89888, Note_off_c, 9, 63, 0
18, 90232, Note_on_c, 9, 63, 104
18, 90272, Note_off_c, 9, 63, 0
18, 90616, Note_on_c, 9, 63, 96
18, 90656, Note_off_c, 9, 63, 0
18, 90708, Note_on_c, 9, 63, 72
18, 90756, Note_off_c, 9, 63, 0
18, 91000, Note_on_c, 9, 63, 100
18, 91040, Note_off_c, 9, 63, 0
18, 91388, Note_on_c, 9, 63, 96
18, 91428, Note_off_c, 9, 63, 0
18, 91768, Note_on_c, 9, 63, 104
18, 91808, Note_off_c, 9, 63, 0
18, 92152, Note_on_c, 9, 63, 96
18, 92192, Note_off_c, 9, 63, 0
18, 92244, Note_on_c, 9, 63, 72
18, 92288, Note_off_c, 9, 63, 0
18, 92536, Note_on_c, 9, 63, 100
18, 92580, Note_off_c, 9, 63, 0
18, 92932, Note_on_c, 9, 63, 96
18, 92964, Note_off_c, 9, 63, 0
18, 93304, Note_on_c, 9, 63, 104
18, 93344, Note_off_c, 9, 63, 0
18, 93688, Note_on_c, 9, 63, 96
18, 93728, Note_off_c, 9, 63, 0
18, 93780, Note_on_c, 9, 63, 72
18, 93820, Note_off_c, 9, 63, 0
18, 94072, Note_on_c, 9, 63, 100
18, 94116, Note_off_c, 9, 63, 0
18, 94456, Note_on_c, 9, 63, 96
18, 94496, Note_off_c, 9, 63, 0
18, 94840, Note_on_c, 9, 63, 104
18, 94880, Note_off_c, 9, 63, 0
18, 95220, Note_on_c, 9, 63, 96
18, 95268, Note_off_c, 9, 63, 0
18, 95316, Note_on_c, 9, 63, 72
18, 95356, Note_off_c, 9, 63, 0
18, 95608, Note_on_c, 9, 63, 100
18, 95644, Note_off_c, 9, 63, 0
18, 95996, Note_on_c, 9, 63, 96
18, 96032, Note_off_c, 9, 63, 0
18, 96376, Note_on_c, 9, 63, 104
18, 96424, Note_off_c, 9, 63, 0
18, 96760, Note_on_c, 9, 63, 96
18, 96800, Note_off_c, 9, 63, 0
18, 96852, Note_on_c, 9, 63, 72
18, 96892, Note_off_c, 9, 63, 0
18, 97140, Note_on_c, 9, 63, 100
18, 97180, Note_off_c, 9, 63, 0
18, 97528, Note_on_c, 9, 63, 96
18, 97568, Note_off_c, 9, 63, 0
18, 97912, Note_on_c, 9, 63, 104
18, 97960, Note_off_c, 9, 63, 0
18, 98300, Note_on_c, 9, 63, 96
18, 98336, Note_off_c, 9, 63, 0
18, 98388, Note_on_c, 9, 63, 72
18, 98432, Note_off_c, 9, 63, 0
18, 98680, Note_on_c, 9, 63, 100
18, 98724, Note_off_c, 9, 63, 0
18, 99072, Note_on_c, 9, 63, 96
18, 99108, Note_off_c, 9, 63, 0
18, 99452, Note_on_c, 9, 63, 104
18, 99484, Note_off_c, 9, 63, 0
18, 99840, Note_on_c, 9, 63, 96
18, 99872, Note_off_c, 9, 63, 0
18, 99924, Note_on_c, 9, 63, 72
18, 99972, Note_off_c, 9, 63, 0
18, 100216, Note_on_c, 9, 63, 100
18, 100256, Note_off_c, 9, 63, 0
18, 100608, Note_on_c, 9, 63, 96
18, 100644, Note_off_c, 9, 63, 0
18, 100980, Note_on_c, 9, 63, 104
18, 101024, Note_off_c, 9, 63, 0
18, 101368, Note_on_c, 9, 63, 96
18, 101404, Note_off_c, 9, 63, 0
18, 101464, Note_on_c, 9, 63, 72
18, 101500, Note_off_c, 9, 63, 0
18, 101756, Note_on_c, 9, 63, 100
18, 101796, Note_off_c, 9, 63, 0
18, 102140, Note_on_c, 9, 63, 96
18, 102176, Note_off_c, 9, 63, 0
18, 102528, Note_on_c, 9, 63, 104
18, 102564, Note_off_c, 9, 63, 0
18, 102900, Note_on_c, 9, 63, 96
18, 102944, Note_off_c, 9, 63, 0
18, 103000, Note_on_c, 9, 63, 72
18, 103036, Note_off_c, 9, 63, 0
18, 103284, Note_on_c, 9, 63, 100
18, 103332, Note_off_c, 9, 63, 0
18, 103672, Note_on_c, 9, 63, 96
18, 103708, Note_off_c, 9, 63, 0
18, 104052, Note_on_c, 9, 63, 104
18, 104096, Note_off_c, 9, 63, 0
18, 104444, Note_on_c, 9, 63, 96
18, 104484, Note_off_c, 9, 63, 0
18, 104536, Note_on_c, 9, 63, 72
18, 104572, Note_off_c, 9, 63, 0
18, 104824, Note_on_c, 9, 63, 100
18, 104860, Note_off_c, 9, 63, 0
18, 105208, Note_on_c, 9, 63, 96
18, 105248, Note_off_c, 9, 63, 0
18, 105596, Note_on_c, 9, 63, 104
18, 105636, Note_off_c, 9, 63, 0
18, 105976, Note_on_c, 9, 63, 96
18, 106012, Note_off_c, 9, 63, 0
18, 106068, Note_on_c, 9, 63, 72
18, 106116, Note_off_c, 9, 63, 0
18, 106360, Note_on_c, 9, 63, 100
18, 106396, Note_off_c, 9, 63, 0
18, 106748, Note_on_c, 9, 63, 96
18, 106792, Note_off_c, 9, 63, 0
18, 107124, Note_on_c, 9, 63, 104
18, 107172, Note_off_c, 9, 63, 0
18, 107512, Note_on_c, 9, 63, 96
18, 107552, Note_off_c, 9, 63, 0
18, 107604, Note_on_c, 9, 63, 72
18, 107652, Note_off_c, 9, 63, 0
18, 107896, Note_on_c, 9, 63, 100
18, 107936, Note_off_c, 9, 63, 0
18, 108276, Note_on_c, 9, 63, 96
18, 108320, Note_off_c, 9, 63, 0
18, 108668, Note_on_c, 9, 63, 104
18, 108700, Note_off_c, 9, 63, 0
18, 109048, Note_on_c, 9, 63, 96
18, 109088, Note_off_c, 9, 63, 0
18, 109140, Note_on_c, 9, 63, 72
18, 109180, Note_off_c, 9, 63, 0
18, 109428, Note_on_c, 9, 63, 100
18, 109476, Note_off_c, 9, 63, 0
18, 109812, Note_on_c, 9, 63, 96
18, 109852, Note_off_c, 9, 63, 0
18, 110196, Note_on_c, 9, 63, 104
18, 110240, Note_off_c, 9, 63, 0
18, 110588, Note_on_c, 9, 63, 96
18, 110628, Note_off_c, 9, 63, 0
18, 110688, Note_on_c, 9, 63, 72
18, 110716, Note_off_c, 9, 63, 0
18, 110964, Note_on_c, 9, 63, 100
18, 111012, Note_off_c, 9, 63, 0
18, 111348, Note_on_c, 9, 63, 96
18, 111388, Note_off_c, 9, 63, 0
18, 111744, Note_on_c, 9, 63, 104
18, 111776, Note_off_c, 9, 63, 0
18, 112128, Note_on_c, 9, 63, 96
18, 112164, Note_off_c, 9, 63, 0
18, 112212, Note_on_c, 9, 63, 72
18, 112252, Note_off_c, 9, 63, 0
18, 112504, Note_on_c, 9, 63, 100
18, 112548, Note_off_c, 9, 63, 0
18, 112892, Note_on_c, 9, 63, 96
18, 112928, Note_off_c, 9, 63, 0
18, 113268, Note_on_c, 9, 63, 104
18, 113316, Note_off_c, 9, 63, 0
18, 113656, Note_on_c, 9, 63, 96
18, 113692, Note_off_c, 9, 63, 0
18, 114040, Note_on_c, 9, 63, 104
18, 114080, Note_off_c, 9, 63, 0
18, 114432, Note_on_c, 9, 63, 96
18, 114468, Note_off_c, 9, 63, 0
18, 114520, Note_on_c, 9, 63, 72
18, 114556, Note_off_c, 9, 63, 0
18, 114804, Note_on_c, 9, 63, 100
18, 114852, Note_off_c, 9, 63, 0
18, 115188, Note_on_c, 9, 63, 96
18, 115228, Note_off_c, 9, 63, 0
18, 115576, Note_on_c, 9, 63, 104
18, 115616, Note_off_c, 9, 63, 0
18, 115960, Note_on_c, 9, 63, 96
18, 116008, Note_off_c, 9, 63, 0
18, 116056, Note_on_c, 9, 63, 72
18, 116092, Note_off_c, 9, 63, 0
18, 116344, Note_on_c, 9, 63, 100
18, 116384, Note_off_c, 9, 63, 0
18, 116728, Note_on_c, 9, 63, 96
18, 116768, Note_off_c, 9, 63, 0
18, 117108, Note_on_c, 9, 63, 104
18, 117156, Note_off_c, 9, 63, 0
18, 117492, Note_on_c, 9, 63, 96
18, 117532, Note_off_c, 9, 63, 0
18, 117588, Note_on_c, 9, 63, 52
18, 117628, Note_off_c, 9, 63, 0
18, 117884, Note_on_c, 9, 63, 100
18, 117916, Note_off_c, 9, 63, 0
18, 118264, Note_on_c, 9, 63, 60
18, 118308, Note_off_c, 9, 63, 0
18, 118644, Note_on_c, 9, 63, 56
18, 118692, Note_off_c, 9, 63, 0
18, 119028, Note_on_c, 9, 63, 48
18, 119072, Note_off_c, 9, 63, 0
18, 119124, Note_on_c, 9, 63, 36
18, 119172, Note_off_c, 9, 63, 0
18, 119412, Note_on_c, 9, 63, 44
18, 119452, Note_off_c, 9, 63, 0
18, 119808, Note_on_c, 9, 63, 96
18, 119848, Note_off_c, 9, 63, 0
18, 120184, Note_on_c, 9, 63, 104
18, 120228, Note_off_c, 9, 63, 0
18, 120572, Note_on_c, 9, 63, 96
18, 120608, Note_off_c, 9, 63, 0
18, 120660, Note_on_c, 9, 63, 72
18, 120708, Note_off_c, 9, 63, 0
18, 120948, Note_on_c, 9, 63, 100
18, 120996, Note_off_c, 9, 63, 0
18, 121336, Note_on_c, 9, 63, 96
18, 121376, Note_off_c, 9, 63, 0
18, 121716, Note_on_c, 9, 63, 104
18, 121756, Note_off_c, 9, 63, 0
18, 122108, Note_on_c, 9, 63, 96
18, 122144, Note_off_c, 9, 63, 0
18, 122196, Note_on_c, 9, 63, 72
18, 122236, Note_off_c, 9, 63, 0
18, 122488, Note_on_c, 9, 63, 100
18, 122528, Note_off_c, 9, 63, 0
18, 122872, Note_on_c, 9, 63, 96
18, 122916, Note_off_c, 9, 63, 0
18, 123256, Note_on_c, 9, 63, 104
18, 123296, Note_off_c, 9, 63, 0
18, 123636, Note_on_c, 9, 63, 96
18, 123684, Note_off_c, 9, 63, 0
18, 123732, Note_on_c, 9, 63, 72
18, 123772, Note_off_c, 9, 63, 0
18, 124024, Note_on_c, 9, 63, 100
18, 124064, Note_off_c, 9, 63, 0
18, 124412, Note_on_c, 9, 63, 96
18, 124448, Note_off_c, 9, 63, 0
18, 124792, Note_on_c, 9, 63, 104
18, 124832, Note_off_c, 9, 63, 0
18, 125176, Note_on_c, 9, 63, 96
18, 125220, Note_off_c, 9, 63, 0
18, 125268, Note_on_c, 9, 63, 72
18, 125308, Note_off_c, 9, 63, 0
18, 125560, Note_on_c, 9, 63, 100
18, 125600, Note_off_c, 9, 63, 0
18, 125952, Note_on_c, 9, 63, 96
18, 125980, Note_off_c, 9, 63, 0
18, 126328, Note_on_c, 9, 63, 104
18, 126372, Note_off_c, 9, 63, 0
18, 126712, Note_on_c, 9, 63, 96
18, 126752, Note_off_c, 9, 63, 0
18, 126804, Note_on_c, 9, 63, 72
18, 126852, Note_off_c, 9, 63, 0
18, 127092, Note_on_c, 9, 63, 100
18, 127132, Note_off_c, 9, 63, 0
18, 127484, Note_on_c, 9, 63, 96
18, 127524, Note_off_c, 9, 63, 0
18, 127864, Note_on_c, 9, 63, 104
18, 127904, Note_off_c, 9, 63, 0
18, 128244, Note_on_c, 9, 63, 96
18, 128284, Note_off_c, 9, 63, 0
18, 128340, Note_on_c, 9, 63, 72
18, 128384, Note_off_c, 9, 63, 0
18, 128632, Note_on_c, 9, 63, 100
18, 128676, Note_off_c, 9, 63, 0
18, 129024, Note_on_c, 9, 63, 96
18, 129060, Note_off_c, 9, 63, 0
18, 129400, Note_on_c, 9, 63, 104
18, 129444, Note_off_c, 9, 63, 0
18, 129784, Note_on_c, 9, 63, 96
18, 129824, Note_off_c, 9, 63, 0
18, 129876, Note_on_c, 9, 63, 72
18, 129916, Note_off_c, 9, 63, 0
18, 130172, Note_on_c, 9, 63, 100
18, 130212, Note_off_c, 9, 63, 0
18, 130556, Note_on_c, 9, 63, 96
18, 130592, Note_off_c, 9, 63, 0
18, 130936, Note_on_c, 9, 63, 104
18, 130972, Note_off_c, 9, 63, 0
18, 131324, Note_on_c, 9, 63, 96
18, 131364, Note_off_c, 9, 63, 0
18, 131412, Note_on_c, 9, 63, 72
18, 131452, Note_off_c, 9, 63, 0
18, 131704, Note_on_c, 9, 63, 100
18, 131740, Note_off_c, 9, 63, 0
18, 132096, Note_on_c, 9, 63, 96
18, 132128, Note_off_c, 9, 63, 0
18, 132472, Note_on_c, 9, 63, 104
18, 132524, Note_off_c, 9, 63, 0
18, 132868, Note_on_c, 9, 63, 96
18, 132900, Note_off_c, 9, 63, 0
18, 132948, Note_on_c, 9, 63, 72
18, 132988, Note_off_c, 9, 63, 0
18, 133240, Note_on_c, 9, 63, 100
18, 133280, Note_off_c, 9, 63, 0
18, 133632, Note_on_c, 9, 63, 96
18, 133668, Note_off_c, 9, 63, 0
18, 134004, Note_on_c, 9, 63, 104
18, 134052, Note_off_c, 9, 63, 0
18, 134392, Note_on_c, 9, 63, 96
18, 134428, Note_off_c, 9, 63, 0
18, 134484, Note_on_c, 9, 63, 72
18, 134528, Note_off_c, 9, 63, 0
18, 134776, Note_on_c, 9, 63, 100
18, 134812, Note_off_c, 9, 63, 0
18, 135156, Note_on_c, 9, 63, 96
18, 135204, Note_off_c, 9, 63, 0
18, 135540, Note_on_c, 9, 63, 104
18, 135580, Note_off_c, 9, 63, 0
18, 135924, Note_on_c, 9, 63, 96
18, 135964, Note_off_c, 9, 63, 0
18, 136024, Note_on_c, 9, 63, 72
18, 136068, Note_off_c, 9, 63, 0
18, 136304, Note_on_c, 9, 63, 100
18, 136356, Note_off_c, 9, 63, 0
18, 136700, Note_on_c, 9, 63, 96
18, 136740, Note_off_c, 9, 63, 0
18, 137076, Note_on_c, 9, 63, 104
18, 137120, Note_off_c, 9, 63, 0
18, 137464, Note_on_c, 9, 63, 96
18, 137504, Note_off_c, 9, 63, 0
18, 137556, Note_on_c, 9, 63, 72
18, 137596, Note_off_c, 9, 63, 0
18, 137852, Note_on_c, 9, 63, 100
18, 137892, Note_off_c, 9, 63, 0
18, 138232, Note_on_c, 9, 63, 96
18, 138268, Note_off_c, 9, 63, 0
18, 138616, Note_on_c, 9, 63, 104
18, 138656, Note_off_c, 9, 63, 0
18, 138996, Note_on_c, 9, 63, 96
18, 139044, Note_off_c, 9, 63, 0
18, 139096, Note_on_c, 9, 63, 72
18, 139132, Note_off_c, 9, 63, 0
18, 139384, Note_on_c, 9, 63, 100
18, 139424, Note_off_c, 9, 63, 0
18, 139768, Note_on_c, 9, 63, 96
18, 139804, Note_off_c, 9, 63, 0
18, 140148, Note_on_c, 9, 63, 104
18, 140188, Note_off_c, 9, 63, 0
18, 140536, Note_on_c, 9, 63, 96
18, 140580, Note_off_c, 9, 63, 0
18, 140628, Note_on_c, 9, 63, 72
18, 140668, Note_off_c, 9, 63, 0
18, 140920, Note_on_c, 9, 63, 100
18, 140956, Note_off_c, 9, 63, 0
18, 141304, Note_on_c, 9, 63, 96
18, 141340, Note_off_c, 9, 63, 0
18, 141684, Note_on_c, 9, 63, 104
18, 141732, Note_off_c, 9, 63, 0
18, 142072, Note_on_c, 9, 63, 96
18, 142108, Note_off_c, 9, 63, 0
18, 142164, Note_on_c, 9, 63, 72
18, 142212, Note_off_c, 9, 63, 0
18, 142456, Note_on_c, 9, 63, 100
18, 142496, Note_off_c, 9, 63, 0
18, 142840, Note_on_c, 9, 63, 96
18, 142884, Note_off_c, 9, 63, 0
18, 143220, Note_on_c, 9, 63, 104
18, 143268, Note_off_c, 9, 63, 0
18, 143608, Note_on_c, 9, 63, 96
18, 143648, Note_off_c, 9, 63, 0
18, 143700, Note_on_c, 9, 63, 72
18, 143748, Note_off_c, 9, 63, 0
18, 143992, Note_on_c, 9, 63, 100
18, 144032, Note_off_c, 9, 63, 0
18, 144376, Note_on_c, 9, 63, 96
18, 144420, Note_off_c, 9, 63, 0
18, 144760, Note_on_c, 9, 63, 104
18, 144800, Note_off_c, 9, 63, 0
18, 145144, Note_on_c, 9, 63, 96
18, 145184, Note_off_c, 9, 63, 0
18, 145240, Note_on_c, 9, 63, 72
18, 145276, Note_off_c, 9, 63, 0
18, 145524, Note_on_c, 9, 63, 100
18, 145572, Note_off_c, 9, 63, 0
18, 145908, Note_on_c, 9, 63, 96
18, 145948, Note_off_c, 9, 63, 0
18, 146292, Note_on_c, 9, 63, 104
18, 146332, Note_off_c, 9, 63, 0
18, 146676, Note_on_c, 9, 63, 96
18, 146724, Note_off_c, 9, 63, 0
18, 146772, Note_on_c, 9, 63, 72
18, 146812, Note_off_c, 9, 63, 0
18, 147060, Note_on_c, 9, 63, 100
18, 147108, Note_off_c, 9, 63, 0
18, 147448, Note_on_c, 9, 63, 96
18, 147484, Note_off_c, 9, 63, 0
18, 147828, Note_on_c, 9, 63, 104
18, 147872, Note_off_c, 9, 63, 0
18, 148212, Note_on_c, 9, 63, 96
18, 148260, Note_off_c, 9, 63, 0
18, 148312, Note_on_c, 9, 63, 72
18, 148348, Note_off_c, 9, 63, 0
18, 148600, Note_on_c, 9, 63, 100
18, 148636, Note_off_c, 9, 63, 0
18, 148980, Note_on_c, 9, 63, 96
18, 149028, Note_off_c, 9, 63, 0
18, 149364, Note_on_c, 9, 63, 104
18, 149412, Note_off_c, 9, 63, 0
18, 149748, Note_on_c, 9, 63, 96
18, 149788, Note_off_c, 9, 63, 0
18, 149844, Note_on_c, 9, 63, 72
18, 149892, Note_off_c, 9, 63, 0
18, 150132, Note_on_c, 9, 63, 100
18, 150172, Note_off_c, 9, 63, 0
18, 150516, Note_on_c, 9, 63, 96
18, 150564, Note_off_c, 9, 63, 0
18, 150900, Note_on_c, 9, 63, 104
18, 150948, Note_off_c, 9, 63, 0
18, 151284, Note_on_c, 9, 63, 96
18, 151324, Note_off_c, 9, 63, 0
18, 151380, Note_on_c, 9, 63, 72
18, 151424, Note_off_c, 9, 63, 0
18, 151668, Note_on_c, 9, 63, 100
18, 151708, Note_off_c, 9, 63, 0
18, 152052, Note_on_c, 9, 63, 96
18, 152100, Note_off_c, 9, 63, 0
18, 152436, Note_on_c, 9, 63, 104
18, 152480, Note_off_c, 9, 63, 0
18, 152820, Note_on_c, 9, 63, 96
18, 152860, Note_off_c, 9, 63, 0
18, 152916, Note_on_c, 9, 63, 72
18, 152964, Note_off_c, 9, 63, 0
18, 153204, Note_on_c, 9, 63, 100
18, 153252, Note_off_c, 9, 63, 0
18, 153252, End_track
19, 0, Start_track
19, 0, Title_t, "G#3 "
19, 0, Control_c, 9, 0, 0
19, 0, Program_c, 9, 0
19, 0, Control_c, 9, 91, 100
19, 0, Key_signature, 0, "major"
19, 4788, Note_on_c, 9, 68, 62
19, 4828, Note_off_c, 9, 68, 0
19, 5076, Note_on_c, 9, 68, 31
19, 5116, Note_off_c, 9, 68, 0
19, 5268, Note_on_c, 9, 68, 67
19, 5308, Note_off_c, 9, 68, 0
19, 5652, Note_on_c, 9, 68, 50
19, 5696, Note_off_c, 9, 68, 0
19, 5944, Note_on_c, 9, 68, 67
19, 5980, Note_off_c, 9, 68, 0
19, 6036, Note_on_c, 9, 68, 46
19, 6076, Note_off_c, 9, 68, 0
19, 6328, Note_on_c, 9, 68, 62
19, 6372, Note_off_c, 9, 68, 0
19, 6612, Note_on_c, 9, 68, 31
19, 6652, Note_off_c, 9, 68, 0
19, 6804, Note_on_c, 9, 68, 67
19, 6848, Note_off_c, 9, 68, 0
19, 7192, Note_on_c, 9, 68, 50
19, 7236, Note_off_c, 9, 68, 0
19, 7476, Note_on_c, 9, 68, 67
19, 7524, Note_off_c, 9, 68, 0
19, 7572, Note_on_c, 9, 68, 46
19, 7612, Note_off_c, 9, 68, 0
19, 7860, Note_on_c, 9, 68, 62
19, 7908, Note_off_c, 9, 68, 0
19, 8152, Note_on_c, 9, 68, 31
19, 8192, Note_off_c, 9, 68, 0
19, 8348, Note_on_c, 9, 68, 67
19, 8388, Note_off_c, 9, 68, 0
19, 8728, Note_on_c, 9, 68, 50
19, 8772, Note_off_c, 9, 68, 0
19, 9016, Note_on_c, 9, 68, 67
19, 9056, Note_off_c, 9, 68, 0
19, 9112, Note_on_c, 9, 68, 46
19, 9148, Note_off_c, 9, 68, 0
19, 9400, Note_on_c, 9, 68, 62
19, 9436, Note_off_c, 9, 68, 0
19, 9688, Note_on_c, 9, 68, 31
19, 9728, Note_off_c, 9, 68, 0
19, 9880, Note_on_c, 9, 68, 67
19, 9916, Note_off_c, 9, 68, 0
19, 10264, Note_on_c, 9, 68, 50
19, 10304, Note_off_c, 9, 68, 0
19, 10552, Note_on_c, 9, 68, 67
19, 10588, Note_off_c, 9, 68, 0
19, 10648, Note_on_c, 9, 68, 46
19, 10692, Note_off_c, 9, 68, 0
19, 10932, Note_on_c, 9, 68, 62
19, 10980, Note_off_c, 9, 68, 0
19, 11228, Note_on_c, 9, 68, 31
19, 11260, Note_off_c, 9, 68, 0
19, 11416, Note_on_c, 9, 68, 67
19, 11452, Note_off_c, 9, 68, 0
19, 11796, Note_on_c, 9, 68, 50
19, 11844, Note_off_c, 9, 68, 0
19, 12088, Note_on_c, 9, 68, 67
19, 12124, Note_off_c, 9, 68, 0
19, 12180, Note_on_c, 9, 68, 46
19, 12228, Note_off_c, 9, 68, 0
19, 12468, Note_on_c, 9, 68, 62
19, 12508, Note_off_c, 9, 68, 0
19, 12756, Note_on_c, 9, 68, 31
19, 12796, Note_off_c, 9, 68, 0
19, 12952, Note_on_c, 9, 68, 67
19, 12988, Note_off_c, 9, 68, 0
19, 13336, Note_on_c, 9, 68, 50
19, 13380, Note_off_c, 9, 68, 0
19, 13624, Note_on_c, 9, 68, 67
19, 13664, Note_off_c, 9, 68, 0
19, 13716, Note_on_c, 9, 68, 46
19, 13756, Note_off_c, 9, 68, 0
19, 14004, Note_on_c, 9, 68, 62
19, 14052, Note_off_c, 9, 68, 0
19, 14296, Note_on_c, 9, 68, 31
19, 14336, Note_off_c, 9, 68, 0
19, 14492, Note_on_c, 9, 68, 67
19, 14528, Note_off_c, 9, 68, 0
19, 14868, Note_on_c, 9, 68, 50
19, 14916, Note_off_c, 9, 68, 0
19, 15156, Note_on_c, 9, 68, 67
19, 15200, Note_off_c, 9, 68, 0
19, 15256, Note_on_c, 9, 68, 46
19, 15292, Note_off_c, 9, 68, 0
19, 15544, Note_on_c, 9, 68, 62
19, 15588, Note_off_c, 9, 68, 0
19, 15832, Note_on_c, 9, 68, 31
19, 15876, Note_off_c, 9, 68, 0
19, 16020, Note_on_c, 9, 68, 67
19, 16068, Note_off_c, 9, 68, 0
19, 16408, Note_on_c, 9, 68, 50
19, 16444, Note_off_c, 9, 68, 0
19, 16692, Note_on_c, 9, 68, 67
19, 16740, Note_off_c, 9, 68, 0
19, 16788, Note_on_c, 9, 68, 46
19, 16828, Note_off_c, 9, 68, 0
19, 17076, Note_on_c, 9, 68, 62
19, 17116, Note_off_c, 9, 68, 0
19, 17368, Note_on_c, 9, 68, 31
19, 17412, Note_off_c, 9, 68, 0
19, 17560, Note_on_c, 9, 68, 67
19, 17600, Note_off_c, 9, 68, 0
19, 17940, Note_on_c, 9, 68, 50
19, 17988, Note_off_c, 9, 68, 0
19, 18232, Note_on_c, 9, 68, 67
19, 18268, Note_off_c, 9, 68, 0
19, 18324, Note_on_c, 9, 68, 46
19, 18364, Note_off_c, 9, 68, 0
19, 18616, Note_on_c, 9, 68, 62
19, 18652, Note_off_c, 9, 68, 0
19, 18904, Note_on_c, 9, 68, 31
19, 18940, Note_off_c, 9, 68, 0
19, 19096, Note_on_c, 9, 68, 67
19, 19132, Note_off_c, 9, 68, 0
19, 19480, Note_on_c, 9, 68, 50
19, 19524, Note_off_c, 9, 68, 0
19, 19768, Note_on_c, 9, 68, 67
19, 19804, Note_off_c, 9, 68, 0
19, 19860, Note_on_c, 9, 68, 46
19, 19908, Note_off_c, 9, 68, 0
19, 20148, Note_on_c, 9, 68, 62
19, 20188, Note_off_c, 9, 68, 0
19, 20436, Note_on_c, 9, 68, 31
19, 20476, Note_off_c, 9, 68, 0
19, 20628, Note_on_c, 9, 68, 67
19, 20668, Note_off_c, 9, 68, 0
19, 21012, Note_on_c, 9, 68, 50
19, 21060, Note_off_c, 9, 68, 0
19, 21300, Note_on_c, 9, 68, 67
19, 21344, Note_off_c, 9, 68, 0
19, 21400, Note_on_c, 9, 68, 46
19, 21444, Note_off_c, 9, 68, 0
19, 21684, Note_on_c, 9, 68, 62
19, 21732, Note_off_c, 9, 68, 0
19, 21972, Note_on_c, 9, 68, 31
19, 22012, Note_off_c, 9, 68, 0
19, 22164, Note_on_c, 9, 68, 67
19, 22204, Note_off_c, 9, 68, 0
19, 22552, Note_on_c, 9, 68, 50
19, 22596, Note_off_c, 9, 68, 0
19, 22836, Note_on_c, 9, 68, 67
19, 22876, Note_off_c, 9, 68, 0
19, 22932, Note_on_c, 9, 68, 46
19, 22972, Note_off_c, 9, 68, 0
19, 23220, Note_on_c, 9, 68, 62
19, 23268, Note_off_c, 9, 68, 0
19, 23508, Note_on_c, 9, 68, 31
19, 23552, Note_off_c, 9, 68, 0
19, 23700, Note_on_c, 9, 68, 67
19, 23748, Note_off_c, 9, 68, 0
19, 24084, Note_on_c, 9, 68, 50
19, 24124, Note_off_c, 9, 68, 0
19, 24372, Note_on_c, 9, 68, 67
19, 24420, Note_off_c, 9, 68, 0
19, 24468, Note_on_c, 9, 68, 46
19, 24508, Note_off_c, 9, 68, 0
19, 24756, Note_on_c, 9, 68, 62
19, 24800, Note_off_c, 9, 68, 0
19, 25044, Note_on_c, 9, 68, 31
19, 25092, Note_off_c, 9, 68, 0
19, 25240, Note_on_c, 9, 68, 67
19, 25280, Note_off_c, 9, 68, 0
19, 25624, Note_on_c, 9, 68, 50
19, 25664, Note_off_c, 9, 68, 0
19, 25908, Note_on_c, 9, 68, 67
19, 25952, Note_off_c, 9, 68, 0
19, 26004, Note_on_c, 9, 68, 46
19, 26048, Note_off_c, 9, 68, 0
19, 26292, Note_on_c, 9, 68, 62
19, 26332, Note_off_c, 9, 68, 0
19, 26580, Note_on_c, 9, 68, 31
19, 26628, Note_off_c, 9, 68, 0
19, 26772, Note_on_c, 9, 68, 67
19, 26812, Note_off_c, 9, 68, 0
19, 27060, Note_on_c, 9, 68, 62
19, 27108, Note_off_c, 9, 68, 0
19, 27348, Note_on_c, 9, 68, 31
19, 27388, Note_off_c, 9, 68, 0
19, 27540, Note_on_c, 9, 68, 67
19, 27588, Note_off_c, 9, 68, 0
19, 27928, Note_on_c, 9, 68, 50
19, 27964, Note_off_c, 9, 68, 0
19, 28212, Note_on_c, 9, 68, 67
19, 28260, Note_off_c, 9, 68, 0
19, 28308, Note_on_c, 9, 68, 46
19, 28348, Note_off_c, 9, 68, 0
19, 28596, Note_on_c, 9, 68, 62
19, 28636, Note_off_c, 9, 68, 0
19, 28884, Note_on_c, 9, 68, 31
19, 28928, Note_off_c, 9, 68, 0
19, 29080, Note_on_c, 9, 68, 67
19, 29124, Note_off_c, 9, 68, 0
19, 29468, Note_on_c, 9, 68, 50
19, 29504, Note_off_c, 9, 68, 0
19, 29748, Note_on_c, 9, 68, 67
19, 29792, Note_off_c, 9, 68, 0
19, 29844, Note_on_c, 9, 68, 46
19, 29884, Note_off_c, 9, 68, 0
19, 30132, Note_on_c, 9, 68, 62
19, 30172, Note_off_c, 9, 68, 0
19, 30420, Note_on_c, 9, 68, 31
19, 30468, Note_off_c, 9, 68, 0
19, 30612, Note_on_c, 9, 68, 67
19, 30652, Note_off_c, 9, 68, 0
19, 31000, Note_on_c, 9, 68, 50
19, 31040, Note_off_c, 9, 68, 0
19, 31284, Note_on_c, 9, 68, 67
19, 31324, Note_off_c, 9, 68, 0
19, 31380, Note_on_c, 9, 68, 46
19, 31424, Note_off_c, 9, 68, 0
19, 31672, Note_on_c, 9, 68, 62
19, 31708, Note_off_c, 9, 68, 0
19, 31956, Note_on_c, 9, 68, 31
19, 31996, Note_off_c, 9, 68, 0
19, 32148, Note_on_c, 9, 68, 67
19, 32188, Note_off_c, 9, 68, 0
19, 32540, Note_on_c, 9, 68, 50
19, 32580, Note_off_c, 9, 68, 0
19, 32820, Note_on_c, 9, 68, 67
19, 32860, Note_off_c, 9, 68, 0
19, 32920, Note_on_c, 9, 68, 46
19, 32960, Note_off_c, 9, 68, 0
19, 33204, Note_on_c, 9, 68, 62
19, 33252, Note_off_c, 9, 68, 0
19, 33492, Note_on_c, 9, 68, 31
19, 33532, Note_off_c, 9, 68, 0
19, 33684, Note_on_c, 9, 68, 67
19, 33724, Note_off_c, 9, 68, 0
19, 33976, Note_on_c, 9, 68, 62
19, 34012, Note_off_c, 9, 68, 0
19, 34260, Note_on_c, 9, 68, 31
19, 34308, Note_off_c, 9, 68, 0
19, 34452, Note_on_c, 9, 68, 67
19, 34492, Note_off_c, 9, 68, 0
19, 34840, Note_on_c, 9, 68, 50
19, 34880, Note_off_c, 9, 68, 0
19, 35124, Note_on_c, 9, 68, 67
19, 35164, Note_off_c, 9, 68, 0
19, 35220, Note_on_c, 9, 68, 46
19, 35264, Note_off_c, 9, 68, 0
19, 35508, Note_on_c, 9, 68, 62
19, 35548, Note_off_c, 9, 68, 0
19, 35796, Note_on_c, 9, 68, 31
19, 35836, Note_off_c, 9, 68, 0
19, 35988, Note_on_c, 9, 68, 67
19, 36028, Note_off_c, 9, 68, 0
19, 36380, Note_on_c, 9, 68, 50
19, 36416, Note_off_c, 9, 68, 0
19, 36660, Note_on_c, 9, 68, 67
19, 36700, Note_off_c, 9, 68, 0
19, 36756, Note_on_c, 9, 68, 46
19, 36800, Note_off_c, 9, 68, 0
19, 37044, Note_on_c, 9, 68, 62
19, 37088, Note_off_c, 9, 68, 0
19, 37332, Note_on_c, 9, 68, 31
19, 37372, Note_off_c, 9, 68, 0
19, 37524, Note_on_c, 9, 68, 67
19, 37564, Note_off_c, 9, 68, 0
19, 37916, Note_on_c, 9, 68, 50
19, 37956, Note_off_c, 9, 68, 0
19, 38196, Note_on_c, 9, 68, 67
19, 38236, Note_off_c, 9, 68, 0
19, 38292, Note_on_c, 9, 68, 46
19, 38332, Note_off_c, 9, 68, 0
19, 38580, Note_on_c, 9, 68, 62
19, 38624, Note_off_c, 9, 68, 0
19, 38868, Note_on_c, 9, 68, 31
19, 38908, Note_off_c, 9, 68, 0
19, 39060, Note_on_c, 9, 68, 67
19, 39100, Note_off_c, 9, 68, 0
19, 39448, Note_on_c, 9, 68, 50
19, 39492, Note_off_c, 9, 68, 0
19, 39732, Note_on_c, 9, 68, 67
19, 39780, Note_off_c, 9, 68, 0
19, 39832, Note_on_c, 9, 68, 46
19, 39868, Note_off_c, 9, 68, 0
19, 40116, Note_on_c, 9, 68, 62
19, 40164, Note_off_c, 9, 68, 0
19, 40404, Note_on_c, 9, 68, 31
19, 40448, Note_off_c, 9, 68, 0
19, 40596, Note_on_c, 9, 68, 67
19, 40640, Note_off_c, 9, 68, 0
19, 40884, Note_on_c, 9, 68, 62
19, 40924, Note_off_c, 9, 68, 0
19, 41172, Note_on_c, 9, 68, 31
19, 41212, Note_off_c, 9, 68, 0
19, 41364, Note_on_c, 9, 68, 67
19, 41404, Note_off_c, 9, 68, 0
19, 41752, Note_on_c, 9, 68, 50
19, 41796, Note_off_c, 9, 68, 0
19, 42036, Note_on_c, 9, 68, 67
19, 42076, Note_off_c, 9, 68, 0
19, 42132, Note_on_c, 9, 68, 46
19, 42172, Note_off_c, 9, 68, 0
19, 42420, Note_on_c, 9, 68, 62
19, 42468, Note_off_c, 9, 68, 0
19, 42708, Note_on_c, 9, 68, 31
19, 42748, Note_off_c, 9, 68, 0
19, 42900, Note_on_c, 9, 68, 67
19, 42944, Note_off_c, 9, 68, 0
19, 43288, Note_on_c, 9, 68, 50
19, 43332, Note_off_c, 9, 68, 0
19, 43572, Note_on_c, 9, 68, 67
19, 43620, Note_off_c, 9, 68, 0
19, 43668, Note_on_c, 9, 68, 46
19, 43708, Note_off_c, 9, 68, 0
19, 43956, Note_on_c, 9, 68, 62
19, 44004, Note_off_c, 9, 68, 0
19, 44244, Note_on_c, 9, 68, 31
19, 44288, Note_off_c, 9, 68, 0
19, 44436, Note_on_c, 9, 68, 67
19, 44484, Note_off_c, 9, 68, 0
19, 44820, Note_on_c, 9, 68, 50
19, 44864, Note_off_c, 9, 68, 0
19, 45108, Note_on_c, 9, 68, 67
19, 45156, Note_off_c, 9, 68, 0
19, 45204, Note_on_c, 9, 68, 46
19, 45244, Note_off_c, 9, 68, 0
19, 45492, Note_on_c, 9, 68, 62
19, 45532, Note_off_c, 9, 68, 0
19, 45780, Note_on_c, 9, 68, 31
19, 45828, Note_off_c, 9, 68, 0
19, 45972, Note_on_c, 9, 68, 67
19, 46012, Note_off_c, 9, 68, 0
19, 46360, Note_on_c, 9, 68, 50
19, 46404, Note_off_c, 9, 68, 0
19, 46644, Note_on_c, 9, 68, 67
19, 46684, Note_off_c, 9, 68, 0
19, 46740, Note_on_c, 9, 68, 46
19, 46784, Note_off_c, 9, 68, 0
19, 47028, Note_on_c, 9, 68, 62
19, 47068, Note_off_c, 9, 68, 0
19, 47316, Note_on_c, 9, 68, 31
19, 47356, Note_off_c, 9, 68, 0
19, 47508, Note_on_c, 9, 68, 67
19, 47548, Note_off_c, 9, 68, 0
19, 47892, Note_on_c, 9, 68, 50
19, 47932, Note_off_c, 9, 68, 0
19, 48180, Note_on_c, 9, 68, 67
19, 48224, Note_off_c, 9, 68, 0
19, 48276, Note_on_c, 9, 68, 46
19, 48324, Note_off_c, 9, 68, 0
19, 48564, Note_on_c, 9, 68, 62
19, 48608, Note_off_c, 9, 68, 0
19, 48852, Note_on_c, 9, 68, 31
19, 48892, Note_off_c, 9, 68, 0
19, 49048, Note_on_c, 9, 68, 67
19, 49088, Note_off_c, 9, 68, 0
19, 49432, Note_on_c, 9, 68, 50
19, 49476, Note_off_c, 9, 68, 0
19, 49720, Note_on_c, 9, 68, 67
19, 49760, Note_off_c, 9, 68, 0
19, 49812, Note_on_c, 9, 68, 46
19, 49852, Note_off_c, 9, 68, 0
19, 50104, Note_on_c, 9, 68, 62
19, 50148, Note_off_c, 9, 68, 0
19, 50388, Note_on_c, 9, 68, 31
19, 50432, Note_off_c, 9, 68, 0
19, 50584, Note_on_c, 9, 68, 67
19, 50628, Note_off_c, 9, 68, 0
19, 50968, Note_on_c, 9, 68, 50
19, 51012, Note_off_c, 9, 68, 0
19, 51252, Note_on_c, 9, 68, 67
19, 51300, Note_off_c, 9, 68, 0
19, 51348, Note_on_c, 9, 68, 46
19, 51388, Note_off_c, 9, 68, 0
19, 51636, Note_on_c, 9, 68, 62
19, 51684, Note_off_c, 9, 68, 0
19, 51924, Note_on_c, 9, 68, 31
19, 51968, Note_off_c, 9, 68, 0
19, 52116, Note_on_c, 9, 68, 67
19, 52164, Note_off_c, 9, 68, 0
19, 52504, Note_on_c, 9, 68, 50
19, 52544, Note_off_c, 9, 68, 0
19, 52792, Note_on_c, 9, 68, 67
19, 52836, Note_off_c, 9, 68, 0
19, 52884, Note_on_c, 9, 68, 46
19, 52924, Note_off_c, 9, 68, 0
19, 53172, Note_on_c, 9, 68, 62
19, 53216, Note_off_c, 9, 68, 0
19, 53460, Note_on_c, 9, 68, 31
19, 53508, Note_off_c, 9, 68, 0
19, 53652, Note_on_c, 9, 68, 67
19, 53700, Note_off_c, 9, 68, 0
19, 54040, Note_on_c, 9, 68, 50
19, 54084, Note_off_c, 9, 68, 0
19, 54324, Note_on_c, 9, 68, 67
19, 54364, Note_off_c, 9, 68, 0
19, 54420, Note_on_c, 9, 68, 46
19, 54460, Note_off_c, 9, 68, 0
19, 54708, Note_on_c, 9, 68, 62
19, 54748, Note_off_c, 9, 68, 0
19, 54996, Note_on_c, 9, 68, 31
19, 55036, Note_off_c, 9, 68, 0
19, 55188, Note_on_c, 9, 68, 67
19, 55228, Note_off_c, 9, 68, 0
19, 55576, Note_on_c, 9, 68, 50
19, 55616, Note_off_c, 9, 68, 0
19, 55864, Note_on_c, 9, 68, 67
19, 55908, Note_off_c, 9, 68, 0
19, 55956, Note_on_c, 9, 68, 46
19, 56004, Note_off_c, 9, 68, 0
19, 56244, Note_on_c, 9, 68, 62
19, 56292, Note_off_c, 9, 68, 0
19, 56532, Note_on_c, 9, 68, 31
19, 56572, Note_off_c, 9, 68, 0
19, 56724, Note_on_c, 9, 68, 67
19, 56768, Note_off_c, 9, 68, 0
19, 57112, Note_on_c, 9, 68, 50
19, 57156, Note_off_c, 9, 68, 0
19, 57396, Note_on_c, 9, 68, 67
19, 57436, Note_off_c, 9, 68, 0
19, 57492, Note_on_c, 9, 68, 46
19, 57540, Note_off_c, 9, 68, 0
19, 57780, Note_on_c, 9, 68, 62
19, 57828, Note_off_c, 9, 68, 0
19, 58068, Note_on_c, 9, 68, 31
19, 58108, Note_off_c, 9, 68, 0
19, 58264, Note_on_c, 9, 68, 67
19, 58300, Note_off_c, 9, 68, 0
19, 58648, Note_on_c, 9, 68, 50
19, 58688, Note_off_c, 9, 68, 0
19, 58936, Note_on_c, 9, 68, 67
19, 58976, Note_off_c, 9, 68, 0
19, 59028, Note_on_c, 9, 68, 46
19, 59068, Note_off_c, 9, 68, 0
19, 59316, Note_on_c, 9, 68, 62
19, 59364, Note_off_c, 9, 68, 0
19, 59604, Note_on_c, 9, 68, 31
19, 59644, Note_off_c, 9, 68, 0
19, 59796, Note_on_c, 9, 68, 67
19, 59844, Note_off_c, 9, 68, 0
19, 60184, Note_on_c, 9, 68, 50
19, 60220, Note_off_c, 9, 68, 0
19, 60468, Note_on_c, 9, 68, 67
19, 60516, Note_off_c, 9, 68, 0
19, 60564, Note_on_c, 9, 68, 46
19, 60604, Note_off_c, 9, 68, 0
19, 60852, Note_on_c, 9, 68, 62
19, 60892, Note_off_c, 9, 68, 0
19, 61144, Note_on_c, 9, 68, 31
19, 61188, Note_off_c, 9, 68, 0
19, 61336, Note_on_c, 9, 68, 67
19, 61376, Note_off_c, 9, 68, 0
19, 61716, Note_on_c, 9, 68, 50
19, 61756, Note_off_c, 9, 68, 0
19, 62008, Note_on_c, 9, 68, 67
19, 62052, Note_off_c, 9, 68, 0
19, 62100, Note_on_c, 9, 68, 46
19, 62140, Note_off_c, 9, 68, 0
19, 62396, Note_on_c, 9, 68, 62
19, 62428, Note_off_c, 9, 68, 0
19, 62680, Note_on_c, 9, 68, 31
19, 62724, Note_off_c, 9, 68, 0
19, 62872, Note_on_c, 9, 68, 67
19, 62908, Note_off_c, 9, 68, 0
19, 63256, Note_on_c, 9, 68, 50
19, 63292, Note_off_c, 9, 68, 0
19, 63544, Note_on_c, 9, 68, 67
19, 63580, Note_off_c, 9, 68, 0
19, 63636, Note_on_c, 9, 68, 46
19, 63684, Note_off_c, 9, 68, 0
19, 63924, Note_on_c, 9, 68, 62
19, 63964, Note_off_c, 9, 68, 0
19, 64216, Note_on_c, 9, 68, 31
19, 64252, Note_off_c, 9, 68, 0
19, 64408, Note_on_c, 9, 68, 67
19, 64444, Note_off_c, 9, 68, 0
19, 64792, Note_on_c, 9, 68, 50
19, 64836, Note_off_c, 9, 68, 0
19, 65080, Note_on_c, 9, 68, 67
19, 65116, Note_off_c, 9, 68, 0
19, 65176, Note_on_c, 9, 68, 46
19, 65216, Note_off_c, 9, 68, 0
19, 65460, Note_on_c, 9, 68, 62
19, 65508, Note_off_c, 9, 68, 0
19, 65752, Note_on_c, 9, 68, 31
19, 65788, Note_off_c, 9, 68, 0
19, 65944, Note_on_c, 9, 68, 67
19, 65980, Note_off_c, 9, 68, 0
19, 66324, Note_on_c, 9, 68, 50
19, 66368, Note_off_c, 9, 68, 0
19, 66612, Note_on_c, 9, 68, 67
19, 66652, Note_off_c, 9, 68, 0
19, 66708, Note_on_c, 9, 68, 46
19, 66748, Note_off_c, 9, 68, 0
19, 66996, Note_on_c, 9, 68, 62
19, 67044, Note_off_c, 9, 68, 0
19, 67284, Note_on_c, 9, 68, 31
19, 67324, Note_off_c, 9, 68, 0
19, 67476, Note_on_c, 9, 68, 67
19, 67524, Note_off_c, 9, 68, 0
19, 67864, Note_on_c, 9, 68, 50
19, 67900, Note_off_c, 9, 68, 0
19, 68148, Note_on_c, 9, 68, 67
19, 68196, Note_off_c, 9, 68, 0
19, 68244, Note_on_c, 9, 68, 46
19, 68288, Note_off_c, 9, 68, 0
19, 68532, Note_on_c, 9, 68, 62
19, 68572, Note_off_c, 9, 68, 0
19, 68820, Note_on_c, 9, 68, 31
19, 68868, Note_off_c, 9, 68, 0
19, 69012, Note_on_c, 9, 68, 67
19, 69056, Note_off_c, 9, 68, 0
19, 69400, Note_on_c, 9, 68, 50
19, 69440, Note_off_c, 9, 68, 0
19, 69684, Note_on_c, 9, 68, 67
19, 69732, Note_off_c, 9, 68, 0
19, 69780, Note_on_c, 9, 68, 46
19, 69820, Note_off_c, 9, 68, 0
19, 70068, Note_on_c, 9, 68, 62
19, 70108, Note_off_c, 9, 68, 0
19, 70356, Note_on_c, 9, 68, 31
19, 70404, Note_off_c, 9, 68, 0
19, 70548, Note_on_c, 9, 68, 67
19, 70588, Note_off_c, 9, 68, 0
19, 70936, Note_on_c, 9, 68, 50
19, 70972, Note_off_c, 9, 68, 0
19, 71220, Note_on_c, 9, 68, 67
19, 71260, Note_off_c, 9, 68, 0
19, 71316, Note_on_c, 9, 68, 46
19, 71364, Note_off_c, 9, 68, 0
19, 71604, Note_on_c, 9, 68, 62
19, 71644, Note_off_c, 9, 68, 0
19, 71892, Note_on_c, 9, 68, 31
19, 71932, Note_off_c, 9, 68, 0
19, 72084, Note_on_c, 9, 68, 67
19, 72124, Note_off_c, 9, 68, 0
19, 72476, Note_on_c, 9, 68, 50
19, 72512, Note_off_c, 9, 68, 0
19, 72756, Note_on_c, 9, 68, 67
19, 72796, Note_off_c, 9, 68, 0
19, 72856, Note_on_c, 9, 68, 46
19, 72896, Note_off_c, 9, 68, 0
19, 73140, Note_on_c, 9, 68, 62
19, 73188, Note_off_c, 9, 68, 0
19, 73428, Note_on_c, 9, 68, 31
19, 73468, Note_off_c, 9, 68, 0
19, 73620, Note_on_c, 9, 68, 67
19, 73660, Note_off_c, 9, 68, 0
19, 73908, Note_on_c, 9, 68, 62
19, 73948, Note_off_c, 9, 68, 0
19, 74196, Note_on_c, 9, 68, 31
19, 74244, Note_off_c, 9, 68, 0
19, 74388, Note_on_c, 9, 68, 67
19, 74428, Note_off_c, 9, 68, 0
19, 74776, Note_on_c, 9, 68, 50
19, 74816, Note_off_c, 9, 68, 0
19, 75060, Note_on_c, 9, 68, 67
19, 75100, Note_off_c, 9, 68, 0
19, 75156, Note_on_c, 9, 68, 46
19, 75200, Note_off_c, 9, 68, 0
19, 75444, Note_on_c, 9, 68, 62
19, 75484, Note_off_c, 9, 68, 0
19, 75732, Note_on_c, 9, 68, 31
19, 75772, Note_off_c, 9, 68, 0
19, 75924, Note_on_c, 9, 68, 67
19, 75964, Note_off_c, 9, 68, 0
19, 76312, Note_on_c, 9, 68, 50
19, 76352, Note_off_c, 9, 68, 0
19, 76596, Note_on_c, 9, 68, 67
19, 76636, Note_off_c, 9, 68, 0
19, 76692, Note_on_c, 9, 68, 46
19, 76736, Note_off_c, 9, 68, 0
19, 76980, Note_on_c, 9, 68, 62
19, 77020, Note_off_c, 9, 68, 0
19, 77268, Note_on_c, 9, 68, 31
19, 77308, Note_off_c, 9, 68, 0
19, 77460, Note_on_c, 9, 68, 67
19, 77508, Note_off_c, 9, 68, 0
19, 77844, Note_on_c, 9, 68, 50
19, 77892, Note_off_c, 9, 68, 0
19, 78132, Note_on_c, 9, 68, 67
19, 78172, Note_off_c, 9, 68, 0
19, 78228, Note_on_c, 9, 68, 46
19, 78268, Note_off_c, 9, 68, 0
19, 78516, Note_on_c, 9, 68, 62
19, 78560, Note_off_c, 9, 68, 0
19, 78804, Note_on_c, 9, 68, 31
19, 78844, Note_off_c, 9, 68, 0
19, 78996, Note_on_c, 9, 68, 67
19, 79040, Note_off_c, 9, 68, 0
19, 79384, Note_on_c, 9, 68, 50
19, 79436, Note_off_c, 9, 68, 0
19, 79668, Note_on_c, 9, 68, 67
19, 79712, Note_off_c, 9, 68, 0
19, 79764, Note_on_c, 9, 68, 46
19, 79804, Note_off_c, 9, 68, 0
19, 80056, Note_on_c, 9, 68, 62
19, 80096, Note_off_c, 9, 68, 0
19, 80344, Note_on_c, 9, 68, 31
19, 80388, Note_off_c, 9, 68, 0
19, 80532, Note_on_c, 9, 68, 67
19, 80576, Note_off_c, 9, 68, 0
19, 80820, Note_on_c, 9, 68, 62
19, 80856, Note_off_c, 9, 68, 0
19, 81108, Note_on_c, 9, 68, 31
19, 81148, Note_off_c, 9, 68, 0
19, 81300, Note_on_c, 9, 68, 67
19, 81340, Note_off_c, 9, 68, 0
19, 81688, Note_on_c, 9, 68, 50
19, 81732, Note_off_c, 9, 68, 0
19, 81972, Note_on_c, 9, 68, 67
19, 82012, Note_off_c, 9, 68, 0
19, 82068, Note_on_c, 9, 68, 46
19, 82108, Note_off_c, 9, 68, 0
19, 82356, Note_on_c, 9, 68, 62
19, 82400, Note_off_c, 9, 68, 0
19, 82644, Note_on_c, 9, 68, 31
19, 82684, Note_off_c, 9, 68, 0
19, 82836, Note_on_c, 9, 68, 67
19, 82884, Note_off_c, 9, 68, 0
19, 83224, Note_on_c, 9, 68, 50
19, 83268, Note_off_c, 9, 68, 0
19, 83508, Note_on_c, 9, 68, 67
19, 83556, Note_off_c, 9, 68, 0
19, 83604, Note_on_c, 9, 68, 46
19, 83644, Note_off_c, 9, 68, 0
19, 83892, Note_on_c, 9, 68, 62
19, 83940, Note_off_c, 9, 68, 0
19, 84180, Note_on_c, 9, 68, 31
19, 84228, Note_off_c, 9, 68, 0
19, 84376, Note_on_c, 9, 68, 67
19, 84420, Note_off_c, 9, 68, 0
19, 84756, Note_on_c, 9, 68, 50
19, 84796, Note_off_c, 9, 68, 0
19, 85044, Note_on_c, 9, 68, 67
19, 85092, Note_off_c, 9, 68, 0
19, 85140, Note_on_c, 9, 68, 46
19, 85180, Note_off_c, 9, 68, 0
19, 85428, Note_on_c, 9, 68, 62
19, 85468, Note_off_c, 9, 68, 0
19, 85716, Note_on_c, 9, 68, 31
19, 85764, Note_off_c, 9, 68, 0
19, 85908, Note_on_c, 9, 68, 67
19, 85948, Note_off_c, 9, 68, 0
19, 86292, Note_on_c, 9, 68, 50
19, 86332, Note_off_c, 9, 68, 0
19, 86580, Note_on_c, 9, 68, 67
19, 86620, Note_off_c, 9, 68, 0
19, 86680, Note_on_c, 9, 68, 46
19, 86724, Note_off_c, 9, 68, 0
19, 86964, Note_on_c, 9, 68, 62
19, 87004, Note_off_c, 9, 68, 0
19, 87252, Note_on_c, 9, 68, 31
19, 87292, Note_off_c, 9, 68, 0
19, 87444, Note_on_c, 9, 68, 67
19, 87484, Note_off_c, 9, 68, 0
19, 87832, Note_on_c, 9, 68, 50
19, 87872, Note_off_c, 9, 68, 0
19, 88116, Note_on_c, 9, 68, 67
19, 88156, Note_off_c, 9, 68, 0
19, 88212, Note_on_c, 9, 68, 46
19, 88260, Note_off_c, 9, 68, 0
19, 88500, Note_on_c, 9, 68, 62
19, 88540, Note_off_c, 9, 68, 0
19, 88788, Note_on_c, 9, 68, 31
19, 88828, Note_off_c, 9, 68, 0
19, 88980, Note_on_c, 9, 68, 67
19, 89020, Note_off_c, 9, 68, 0
19, 89372, Note_on_c, 9, 68, 50
19, 89412, Note_off_c, 9, 68, 0
19, 89656, Note_on_c, 9, 68, 67
19, 89696, Note_off_c, 9, 68, 0
19, 89748, Note_on_c, 9, 68, 46
19, 89796, Note_off_c, 9, 68, 0
19, 90040, Note_on_c, 9, 68, 62
19, 90084, Note_off_c, 9, 68, 0
19, 90324, Note_on_c, 9, 68, 31
19, 90372, Note_off_c, 9, 68, 0
19, 90516, Note_on_c, 9, 68, 67
19, 90564, Note_off_c, 9, 68, 0
19, 90908, Note_on_c, 9, 68, 50
19, 90948, Note_off_c, 9, 68, 0
19, 91188, Note_on_c, 9, 68, 67
19, 91236, Note_off_c, 9, 68, 0
19, 91284, Note_on_c, 9, 68, 46
19, 91324, Note_off_c, 9, 68, 0
19, 91572, Note_on_c, 9, 68, 62
19, 91616, Note_off_c, 9, 68, 0
19, 91860, Note_on_c, 9, 68, 31
19, 91908, Note_off_c, 9, 68, 0
19, 92052, Note_on_c, 9, 68, 67
19, 92096, Note_off_c, 9, 68, 0
19, 92440, Note_on_c, 9, 68, 50
19, 92484, Note_off_c, 9, 68, 0
19, 92728, Note_on_c, 9, 68, 67
19, 92772, Note_off_c, 9, 68, 0
19, 92820, Note_on_c, 9, 68, 46
19, 92860, Note_off_c, 9, 68, 0
19, 93108, Note_on_c, 9, 68, 62
19, 93148, Note_off_c, 9, 68, 0
19, 93396, Note_on_c, 9, 68, 31
19, 93444, Note_off_c, 9, 68, 0
19, 93588, Note_on_c, 9, 68, 67
19, 93636, Note_off_c, 9, 68, 0
19, 93976, Note_on_c, 9, 68, 50
19, 94016, Note_off_c, 9, 68, 0
19, 94260, Note_on_c, 9, 68, 67
19, 94308, Note_off_c, 9, 68, 0
19, 94360, Note_on_c, 9, 68, 46
19, 94396, Note_off_c, 9, 68, 0
19, 94644, Note_on_c, 9, 68, 62
19, 94684, Note_off_c, 9, 68, 0
19, 94932, Note_on_c, 9, 68, 31
19, 94972, Note_off_c, 9, 68, 0
19, 95124, Note_on_c, 9, 68, 67
19, 95168, Note_off_c, 9, 68, 0
19, 95508, Note_on_c, 9, 68, 50
19, 95548, Note_off_c, 9, 68, 0
19, 95796, Note_on_c, 9, 68, 67
19, 95836, Note_off_c, 9, 68, 0
19, 95892, Note_on_c, 9, 68, 46
19, 95940, Note_off_c, 9, 68, 0
19, 96180, Note_on_c, 9, 68, 62
19, 96220, Note_off_c, 9, 68, 0
19, 96468, Note_on_c, 9, 68, 31
19, 96508, Note_off_c, 9, 68, 0
19, 96660, Note_on_c, 9, 68, 67
19, 96704, Note_off_c, 9, 68, 0
19, 97048, Note_on_c, 9, 68, 50
19, 97092, Note_off_c, 9, 68, 0
19, 97336, Note_on_c, 9, 68, 67
19, 97376, Note_off_c, 9, 68, 0
19, 97428, Note_on_c, 9, 68, 46
19, 97476, Note_off_c, 9, 68, 0
19, 97720, Note_on_c, 9, 68, 62
19, 97764, Note_off_c, 9, 68, 0
19, 98004, Note_on_c, 9, 68, 31
19, 98044, Note_off_c, 9, 68, 0
19, 98196, Note_on_c, 9, 68, 67
19, 98240, Note_off_c, 9, 68, 0
19, 98584, Note_on_c, 9, 68, 50
19, 98628, Note_off_c, 9, 68, 0
19, 98868, Note_on_c, 9, 68, 67
19, 98916, Note_off_c, 9, 68, 0
19, 98964, Note_on_c, 9, 68, 46
19, 99012, Note_off_c, 9, 68, 0
19, 99252, Note_on_c, 9, 68, 62
19, 99300, Note_off_c, 9, 68, 0
19, 99540, Note_on_c, 9, 68, 31
19, 99580, Note_off_c, 9, 68, 0
19, 99736, Note_on_c, 9, 68, 67
19, 99780, Note_off_c, 9, 68, 0
19, 100120, Note_on_c, 9, 68, 50
19, 100156, Note_off_c, 9, 68, 0
19, 100404, Note_on_c, 9, 68, 67
19, 100448, Note_off_c, 9, 68, 0
19, 100500, Note_on_c, 9, 68, 46
19, 100540, Note_off_c, 9, 68, 0
19, 100788, Note_on_c, 9, 68, 62
19, 100828, Note_off_c, 9, 68, 0
19, 101084, Note_on_c, 9, 68, 31
19, 101116, Note_off_c, 9, 68, 0
19, 101272, Note_on_c, 9, 68, 67
19, 101312, Note_off_c, 9, 68, 0
19, 101652, Note_on_c, 9, 68, 50
19, 101696, Note_off_c, 9, 68, 0
19, 101944, Note_on_c, 9, 68, 67
19, 101976, Note_off_c, 9, 68, 0
19, 102044, Note_on_c, 9, 68, 46
19, 102076, Note_off_c, 9, 68, 0
19, 102328, Note_on_c, 9, 68, 62
19, 102368, Note_off_c, 9, 68, 0
19, 102616, Note_on_c, 9, 68, 31
19, 102656, Note_off_c, 9, 68, 0
19, 102808, Note_on_c, 9, 68, 67
19, 102844, Note_off_c, 9, 68, 0
19, 103192, Note_on_c, 9, 68, 50
19, 103228, Note_off_c, 9, 68, 0
19, 103480, Note_on_c, 9, 68, 67
19, 103516, Note_off_c, 9, 68, 0
19, 103572, Note_on_c, 9, 68, 46
19, 103620, Note_off_c, 9, 68, 0
19, 103860, Note_on_c, 9, 68, 62
19, 103900, Note_off_c, 9, 68, 0
19, 104152, Note_on_c, 9, 68, 31
19, 104188, Note_off_c, 9, 68, 0
19, 104348, Note_on_c, 9, 68, 67
19, 104380, Note_off_c, 9, 68, 0
19, 104724, Note_on_c, 9, 68, 50
19, 104772, Note_off_c, 9, 68, 0
19, 105016, Note_on_c, 9, 68, 67
19, 105052, Note_off_c, 9, 68, 0
19, 105112, Note_on_c, 9, 68, 46
19, 105156, Note_off_c, 9, 68, 0
19, 105400, Note_on_c, 9, 68, 62
19, 105444, Note_off_c, 9, 68, 0
19, 105688, Note_on_c, 9, 68, 31
19, 105724, Note_off_c, 9, 68, 0
19, 105880, Note_on_c, 9, 68, 67
19, 105916, Note_off_c, 9, 68, 0
19, 106260, Note_on_c, 9, 68, 50
19, 106308, Note_off_c, 9, 68, 0
19, 106552, Note_on_c, 9, 68, 67
19, 106588, Note_off_c, 9, 68, 0
19, 106644, Note_on_c, 9, 68, 46
19, 106684, Note_off_c, 9, 68, 0
19, 106932, Note_on_c, 9, 68, 62
19, 106980, Note_off_c, 9, 68, 0
19, 107220, Note_on_c, 9, 68, 31
19, 107260, Note_off_c, 9, 68, 0
19, 107412, Note_on_c, 9, 68, 67
19, 107460, Note_off_c, 9, 68, 0
19, 107796, Note_on_c, 9, 68, 50
19, 107844, Note_off_c, 9, 68, 0
19, 108084, Note_on_c, 9, 68, 67
19, 108128, Note_off_c, 9, 68, 0
19, 108180, Note_on_c, 9, 68, 46
19, 108220, Note_off_c, 9, 68, 0
19, 108468, Note_on_c, 9, 68, 62
19, 108508, Note_off_c, 9, 68, 0
19, 108756, Note_on_c, 9, 68, 31
19, 108804, Note_off_c, 9, 68, 0
19, 108952, Note_on_c, 9, 68, 67
19, 108996, Note_off_c, 9, 68, 0
19, 109332, Note_on_c, 9, 68, 50
19, 109372, Note_off_c, 9, 68, 0
19, 109620, Note_on_c, 9, 68, 67
19, 109664, Note_off_c, 9, 68, 0
19, 109716, Note_on_c, 9, 68, 46
19, 109756, Note_off_c, 9, 68, 0
19, 110008, Note_on_c, 9, 68, 62
19, 110044, Note_off_c, 9, 68, 0
19, 110296, Note_on_c, 9, 68, 31
19, 110340, Note_off_c, 9, 68, 0
19, 110484, Note_on_c, 9, 68, 67
19, 110524, Note_off_c, 9, 68, 0
19, 110872, Note_on_c, 9, 68, 50
19, 110908, Note_off_c, 9, 68, 0
19, 111156, Note_on_c, 9, 68, 67
19, 111196, Note_off_c, 9, 68, 0
19, 111252, Note_on_c, 9, 68, 46
19, 111300, Note_off_c, 9, 68, 0
19, 111540, Note_on_c, 9, 68, 62
19, 111580, Note_off_c, 9, 68, 0
19, 111832, Note_on_c, 9, 68, 31
19, 111868, Note_off_c, 9, 68, 0
19, 112020, Note_on_c, 9, 68, 67
19, 112060, Note_off_c, 9, 68, 0
19, 112412, Note_on_c, 9, 68, 50
19, 112448, Note_off_c, 9, 68, 0
19, 112692, Note_on_c, 9, 68, 67
19, 112732, Note_off_c, 9, 68, 0
19, 112788, Note_on_c, 9, 68, 61
19, 112832, Note_off_c, 9, 68, 0
19, 113076, Note_on_c, 9, 68, 62
19, 113116, Note_off_c, 9, 68, 0
19, 113364, Note_on_c, 9, 68, 31
19, 113404, Note_off_c, 9, 68, 0
19, 113556, Note_on_c, 9, 68, 67
19, 113596, Note_off_c, 9, 68, 0
19, 113848, Note_on_c, 9, 68, 62
19, 113884, Note_off_c, 9, 68, 0
19, 114136, Note_on_c, 9, 68, 31
19, 114180, Note_off_c, 9, 68, 0
19, 114324, Note_on_c, 9, 68, 67
19, 114364, Note_off_c, 9, 68, 0
19, 114712, Note_on_c, 9, 68, 50
19, 114756, Note_off_c, 9, 68, 0
19, 114996, Note_on_c, 9, 68, 67
19, 115040, Note_off_c, 9, 68, 0
19, 115092, Note_on_c, 9, 68, 46
19, 115140, Note_off_c, 9, 68, 0
19, 115380, Note_on_c, 9, 68, 62
19, 115420, Note_off_c, 9, 68, 0
19, 115668, Note_on_c, 9, 68, 31
19, 115708, Note_off_c, 9, 68, 0
19, 115860, Note_on_c, 9, 68, 67
19, 115900, Note_off_c, 9, 68, 0
19, 116252, Note_on_c, 9, 68, 50
19, 116288, Note_off_c, 9, 68, 0
19, 116536, Note_on_c, 9, 68, 67
19, 116572, Note_off_c, 9, 68, 0
19, 116624, Note_on_c, 9, 68, 46
19, 116676, Note_off_c, 9, 68, 0
19, 116916, Note_on_c, 9, 68, 62
19, 116956, Note_off_c, 9, 68, 0
19, 117204, Note_on_c, 9, 68, 31
19, 117244, Note_off_c, 9, 68, 0
19, 117400, Note_on_c, 9, 68, 67
19, 117436, Note_off_c, 9, 68, 0
19, 117784, Note_on_c, 9, 68, 50
19, 117828, Note_off_c, 9, 68, 0
19, 118068, Note_on_c, 9, 68, 67
19, 118108, Note_off_c, 9, 68, 0
19, 118164, Note_on_c, 9, 68, 46
19, 118204, Note_off_c, 9, 68, 0
19, 118452, Note_on_c, 9, 68, 62
19, 118500, Note_off_c, 9, 68, 0
19, 118740, Note_on_c, 9, 68, 31
19, 118780, Note_off_c, 9, 68, 0
19, 118932, Note_on_c, 9, 68, 67
19, 118976, Note_off_c, 9, 68, 0
19, 119316, Note_on_c, 9, 68, 50
19, 119364, Note_off_c, 9, 68, 0
19, 119604, Note_on_c, 9, 68, 67
19, 119652, Note_off_c, 9, 68, 0
19, 119700, Note_on_c, 9, 68, 46
19, 119740, Note_off_c, 9, 68, 0
19, 119988, Note_on_c, 9, 68, 62
19, 120036, Note_off_c, 9, 68, 0
19, 120276, Note_on_c, 9, 68, 31
19, 120320, Note_off_c, 9, 68, 0
19, 120468, Note_on_c, 9, 68, 67
19, 120516, Note_off_c, 9, 68, 0
19, 120856, Note_on_c, 9, 68, 50
19, 120900, Note_off_c, 9, 68, 0
19, 121140, Note_on_c, 9, 68, 67
19, 121188, Note_off_c, 9, 68, 0
19, 121236, Note_on_c, 9, 68, 46
19, 121276, Note_off_c, 9, 68, 0
19, 121524, Note_on_c, 9, 68, 62
19, 121564, Note_off_c, 9, 68, 0
19, 121812, Note_on_c, 9, 68, 31
19, 121860, Note_off_c, 9, 68, 0
19, 122004, Note_on_c, 9, 68, 67
19, 122044, Note_off_c, 9, 68, 0
19, 122392, Note_on_c, 9, 68, 50
19, 122432, Note_off_c, 9, 68, 0
19, 122676, Note_on_c, 9, 68, 67
19, 122716, Note_off_c, 9, 68, 0
19, 122776, Note_on_c, 9, 68, 46
19, 122816, Note_off_c, 9, 68, 0
19, 123060, Note_on_c, 9, 68, 62
19, 123100, Note_off_c, 9, 68, 0
19, 123348, Note_on_c, 9, 68, 31
19, 123384, Note_off_c, 9, 68, 0
19, 123540, Note_on_c, 9, 68, 67
19, 123584, Note_off_c, 9, 68, 0
19, 123924, Note_on_c, 9, 68, 50
19, 123968, Note_off_c, 9, 68, 0
19, 124212, Note_on_c, 9, 68, 67
19, 124256, Note_off_c, 9, 68, 0
19, 124308, Note_on_c, 9, 68, 46
19, 124352, Note_off_c, 9, 68, 0
19, 124596, Note_on_c, 9, 68, 62
19, 124636, Note_off_c, 9, 68, 0
19, 124884, Note_on_c, 9, 68, 31
19, 124924, Note_off_c, 9, 68, 0
19, 125076, Note_on_c, 9, 68, 67
19, 125120, Note_off_c, 9, 68, 0
19, 125464, Note_on_c, 9, 68, 50
19, 125508, Note_off_c, 9, 68, 0
19, 125752, Note_on_c, 9, 68, 67
19, 125792, Note_off_c, 9, 68, 0
19, 125844, Note_on_c, 9, 68, 46
19, 125888, Note_off_c, 9, 68, 0
19, 126132, Note_on_c, 9, 68, 62
19, 126180, Note_off_c, 9, 68, 0
19, 126420, Note_on_c, 9, 68, 31
19, 126460, Note_off_c, 9, 68, 0
19, 126612, Note_on_c, 9, 68, 67
19, 126656, Note_off_c, 9, 68, 0
19, 126996, Note_on_c, 9, 68, 50
19, 127044, Note_off_c, 9, 68, 0
19, 127284, Note_on_c, 9, 68, 67
19, 127332, Note_off_c, 9, 68, 0
19, 127380, Note_on_c, 9, 68, 46
19, 127424, Note_off_c, 9, 68, 0
19, 127668, Note_on_c, 9, 68, 62
19, 127716, Note_off_c, 9, 68, 0
19, 127956, Note_on_c, 9, 68, 31
19, 128000, Note_off_c, 9, 68, 0
19, 128148, Note_on_c, 9, 68, 67
19, 128196, Note_off_c, 9, 68, 0
19, 128536, Note_on_c, 9, 68, 50
19, 128580, Note_off_c, 9, 68, 0
19, 128828, Note_on_c, 9, 68, 67
19, 128868, Note_off_c, 9, 68, 0
19, 128916, Note_on_c, 9, 68, 46
19, 128956, Note_off_c, 9, 68, 0
19, 129204, Note_on_c, 9, 68, 62
19, 129248, Note_off_c, 9, 68, 0
19, 129492, Note_on_c, 9, 68, 31
19, 129540, Note_off_c, 9, 68, 0
19, 129688, Note_on_c, 9, 68, 67
19, 129732, Note_off_c, 9, 68, 0
19, 130068, Note_on_c, 9, 68, 50
19, 130108, Note_off_c, 9, 68, 0
19, 130356, Note_on_c, 9, 68, 67
19, 130404, Note_off_c, 9, 68, 0
19, 130452, Note_on_c, 9, 68, 46
19, 130492, Note_off_c, 9, 68, 0
19, 130740, Note_on_c, 9, 68, 62
19, 130780, Note_off_c, 9, 68, 0
19, 131032, Note_on_c, 9, 68, 31
19, 131068, Note_off_c, 9, 68, 0
19, 131220, Note_on_c, 9, 68, 67
19, 131260, Note_off_c, 9, 68, 0
19, 131612, Note_on_c, 9, 68, 50
19, 131648, Note_off_c, 9, 68, 0
19, 131892, Note_on_c, 9, 68, 67
19, 131936, Note_off_c, 9, 68, 0
19, 131988, Note_on_c, 9, 68, 46
19, 132036, Note_off_c, 9, 68, 0
19, 132276, Note_on_c, 9, 68, 62
19, 132316, Note_off_c, 9, 68, 0
19, 132564, Note_on_c, 9, 68, 31
19, 132604, Note_off_c, 9, 68, 0
19, 132756, Note_on_c, 9, 68, 67
19, 132800, Note_off_c, 9, 68, 0
19, 133144, Note_on_c, 9, 68, 50
19, 133184, Note_off_c, 9, 68, 0
19, 133428, Note_on_c, 9, 68, 67
19, 133468, Note_off_c, 9, 68, 0
19, 133524, Note_on_c, 9, 68, 46
19, 133572, Note_off_c, 9, 68, 0
19, 133812, Note_on_c, 9, 68, 62
19, 133856, Note_off_c, 9, 68, 0
19, 134104, Note_on_c, 9, 68, 31
19, 134140, Note_off_c, 9, 68, 0
19, 134296, Note_on_c, 9, 68, 67
19, 134332, Note_off_c, 9, 68, 0
19, 134676, Note_on_c, 9, 68, 50
19, 134724, Note_off_c, 9, 68, 0
19, 134964, Note_on_c, 9, 68, 67
19, 135004, Note_off_c, 9, 68, 0
19, 135064, Note_on_c, 9, 68, 46
19, 135100, Note_off_c, 9, 68, 0
19, 135352, Note_on_c, 9, 68, 62
19, 135396, Note_off_c, 9, 68, 0
19, 135636, Note_on_c, 9, 68, 31
19, 135676, Note_off_c, 9, 68, 0
19, 135828, Note_on_c, 9, 68, 67
19, 135872, Note_off_c, 9, 68, 0
19, 136216, Note_on_c, 9, 68, 50
19, 136252, Note_off_c, 9, 68, 0
19, 136500, Note_on_c, 9, 68, 67
19, 136544, Note_off_c, 9, 68, 0
19, 136596, Note_on_c, 9, 68, 46
19, 136636, Note_off_c, 9, 68, 0
19, 136884, Note_on_c, 9, 68, 62
19, 136924, Note_off_c, 9, 68, 0
19, 137176, Note_on_c, 9, 68, 31
19, 137220, Note_off_c, 9, 68, 0
19, 137368, Note_on_c, 9, 68, 67
19, 137408, Note_off_c, 9, 68, 0
19, 137748, Note_on_c, 9, 68, 50
19, 137788, Note_off_c, 9, 68, 0
19, 138040, Note_on_c, 9, 68, 67
19, 138084, Note_off_c, 9, 68, 0
19, 138136, Note_on_c, 9, 68, 46
19, 138172, Note_off_c, 9, 68, 0
19, 138424, Note_on_c, 9, 68, 62
19, 138460, Note_off_c, 9, 68, 0
19, 138712, Note_on_c, 9, 68, 31
19, 138752, Note_off_c, 9, 68, 0
19, 138904, Note_on_c, 9, 68, 67
19, 138940, Note_off_c, 9, 68, 0
19, 139288, Note_on_c, 9, 68, 50
19, 139324, Note_off_c, 9, 68, 0
19, 139576, Note_on_c, 9, 68, 67
19, 139616, Note_off_c, 9, 68, 0
19, 139668, Note_on_c, 9, 68, 46
19, 139716, Note_off_c, 9, 68, 0
19, 139956, Note_on_c, 9, 68, 62
19, 139996, Note_off_c, 9, 68, 0
19, 140248, Note_on_c, 9, 68, 31
19, 140284, Note_off_c, 9, 68, 0
19, 140440, Note_on_c, 9, 68, 64
19, 140476, Note_off_c, 9, 68, 0
19, 140820, Note_on_c, 9, 68, 50
19, 140868, Note_off_c, 9, 68, 0
19, 141112, Note_on_c, 9, 68, 67
19, 141148, Note_off_c, 9, 68, 0
19, 141208, Note_on_c, 9, 68, 46
19, 141248, Note_off_c, 9, 68, 0
19, 141496, Note_on_c, 9, 68, 62
19, 141540, Note_off_c, 9, 68, 0
19, 141784, Note_on_c, 9, 68, 31
19, 141820, Note_off_c, 9, 68, 0
19, 141976, Note_on_c, 9, 68, 67
19, 142012, Note_off_c, 9, 68, 0
19, 142356, Note_on_c, 9, 68, 50
19, 142404, Note_off_c, 9, 68, 0
19, 142648, Note_on_c, 9, 68, 67
19, 142684, Note_off_c, 9, 68, 0
19, 142740, Note_on_c, 9, 68, 46
19, 142780, Note_off_c, 9, 68, 0
19, 143028, Note_on_c, 9, 68, 62
19, 143072, Note_off_c, 9, 68, 0
19, 143320, Note_on_c, 9, 68, 31
19, 143356, Note_off_c, 9, 68, 0
19, 143516, Note_on_c, 9, 68, 67
19, 143548, Note_off_c, 9, 68, 0
19, 143892, Note_on_c, 9, 68, 50
19, 143940, Note_off_c, 9, 68, 0
19, 144180, Note_on_c, 9, 68, 67
19, 144228, Note_off_c, 9, 68, 0
19, 144280, Note_on_c, 9, 68, 46
19, 144316, Note_off_c, 9, 68, 0
19, 144568, Note_on_c, 9, 68, 62
19, 144604, Note_off_c, 9, 68, 0
19, 144856, Note_on_c, 9, 68, 31
19, 144896, Note_off_c, 9, 68, 0
19, 145048, Note_on_c, 9, 68, 67
19, 145092, Note_off_c, 9, 68, 0
19, 145432, Note_on_c, 9, 68, 50
19, 145476, Note_off_c, 9, 68, 0
19, 145720, Note_on_c, 9, 68, 67
19, 145760, Note_off_c, 9, 68, 0
19, 145812, Note_on_c, 9, 68, 46
19, 145852, Note_off_c, 9, 68, 0
19, 146100, Note_on_c, 9, 68, 62
19, 146140, Note_off_c, 9, 68, 0
19, 146392, Note_on_c, 9, 68, 31
19, 146436, Note_off_c, 9, 68, 0
19, 146580, Note_on_c, 9, 68, 67
19, 146620, Note_off_c, 9, 68, 0
19, 146964, Note_on_c, 9, 68, 50
19, 147012, Note_off_c, 9, 68, 0
19, 147256, Note_on_c, 9, 68, 67
19, 147292, Note_off_c, 9, 68, 0
19, 147348, Note_on_c, 9, 68, 46
19, 147396, Note_off_c, 9, 68, 0
19, 147640, Note_on_c, 9, 68, 62
19, 147676, Note_off_c, 9, 68, 0
19, 147928, Note_on_c, 9, 68, 31
19, 147964, Note_off_c, 9, 68, 0
19, 148120, Note_on_c, 9, 68, 67
19, 148156, Note_off_c, 9, 68, 0
19, 148500, Note_on_c, 9, 68, 50
19, 148544, Note_off_c, 9, 68, 0
19, 148792, Note_on_c, 9, 68, 67
19, 148828, Note_off_c, 9, 68, 0
19, 148884, Note_on_c, 9, 68, 46
19, 148928, Note_off_c, 9, 68, 0
19, 149172, Note_on_c, 9, 68, 62
19, 149212, Note_off_c, 9, 68, 0
19, 149460, Note_on_c, 9, 68, 31
19, 149500, Note_off_c, 9, 68, 0
19, 149652, Note_on_c, 9, 68, 67
19, 149692, Note_off_c, 9, 68, 0
19, 150036, Note_on_c, 9, 68, 50
19, 150084, Note_off_c, 9, 68, 0
19, 150324, Note_on_c, 9, 68, 67
19, 150364, Note_off_c, 9, 68, 0
19, 150420, Note_on_c, 9, 68, 46
19, 150460, Note_off_c, 9, 68, 0
19, 150708, Note_on_c, 9, 68, 62
19, 150748, Note_off_c, 9, 68, 0
19, 151000, Note_on_c, 9, 68, 31
19, 151036, Note_off_c, 9, 68, 0
19, 151188, Note_on_c, 9, 68, 67
19, 151236, Note_off_c, 9, 68, 0
19, 151572, Note_on_c, 9, 68, 50
19, 151620, Note_off_c, 9, 68, 0
19, 151860, Note_on_c, 9, 68, 67
19, 151908, Note_off_c, 9, 68, 0
19, 151956, Note_on_c, 9, 68, 46
19, 151996, Note_off_c, 9, 68, 0
19, 152244, Note_on_c, 9, 68, 62
19, 152288, Note_off_c, 9, 68, 0
19, 152532, Note_on_c, 9, 68, 31
19, 152576, Note_off_c, 9, 68, 0
19, 152724, Note_on_c, 9, 68, 67
19, 152772, Note_off_c, 9, 68, 0
19, 153108, Note_on_c, 9, 68, 50
19, 153152, Note_off_c, 9, 68, 0
19, 153396, Note_on_c, 9, 68, 67
19, 153440, Note_off_c, 9, 68, 0
19, 153492, Note_on_c, 9, 68, 46
19, 153532, Note_off_c, 9, 68, 0
19, 153532, End_track
20, 0, Start_track
20, 0, Title_t, "E 4 "
20, 0, Control_c, 9, 0, 0
20, 0, Program_c, 9, 0
20, 0, Control_c, 9, 91, 100
20, 0, Key_signature, 0, "major"
20, 46840, Note_on_c, 9, 76, 74
20, 46884, Note_off_c, 9, 76, 0
20, 46932, Note_on_c, 9, 76, 35
20, 46980, Note_off_c, 9, 76, 0
20, 47028, Note_on_c, 9, 76, 40
20, 47072, Note_off_c, 9, 76, 0
20, 47124, Note_on_c, 9, 76, 44
20, 47172, Note_off_c, 9, 76, 0
20, 47224, Note_on_c, 9, 76, 64
20, 47264, Note_off_c, 9, 76, 0
20, 47412, Note_on_c, 9, 76, 16
20, 47456, Note_off_c, 9, 76, 0
20, 47508, Note_on_c, 9, 76, 36
20, 47552, Note_off_c, 9, 76, 0
20, 47612, Note_on_c, 9, 76, 40
20, 47652, Note_off_c, 9, 76, 0
20, 47796, Note_on_c, 9, 76, 80
20, 47844, Note_off_c, 9, 76, 0
20, 47988, Note_on_c, 9, 76, 44
20, 48028, Note_off_c, 9, 76, 0
20, 48180, Note_on_c, 9, 76, 44
20, 48216, Note_off_c, 9, 76, 0
20, 48376, Note_on_c, 9, 76, 80
20, 48420, Note_off_c, 9, 76, 0
20, 48564, Note_on_c, 9, 76, 40
20, 48604, Note_off_c, 9, 76, 0
20, 48660, Note_on_c, 9, 76, 48
20, 48700, Note_off_c, 9, 76, 0
20, 48760, Note_on_c, 9, 76, 72
20, 48796, Note_off_c, 9, 76, 0
20, 48948, Note_on_c, 9, 76, 40
20, 48992, Note_off_c, 9, 76, 0
20, 49044, Note_on_c, 9, 76, 40
20, 49084, Note_off_c, 9, 76, 0
20, 49144, Note_on_c, 9, 76, 80
20, 49188, Note_off_c, 9, 76, 0
20, 49332, Note_on_c, 9, 76, 16
20, 49372, Note_off_c, 9, 76, 0
20, 49524, Note_on_c, 9, 76, 52
20, 49564, Note_off_c, 9, 76, 0
20, 49716, Note_on_c, 9, 76, 84
20, 49756, Note_off_c, 9, 76, 0
20, 49920, Note_on_c, 9, 76, 74
20, 49920, Note_off_c, 9, 76, 0
20, 49924, Note_on_c, 9, 76, 60
20, 49952, Note_off_c, 9, 76, 0
20, 50004, Note_on_c, 9, 76, 35
20, 50044, Note_off_c, 9, 76, 0
20, 50104, Note_on_c, 9, 76, 40
20, 50148, Note_off_c, 9, 76, 0
20, 50200, Note_on_c, 9, 76, 44
20, 50240, Note_off_c, 9, 76, 0
20, 50296, Note_on_c, 9, 76, 64
20, 50336, Note_off_c, 9, 76, 0
20, 50484, Note_on_c, 9, 76, 16
20, 50524, Note_off_c, 9, 76, 0
20, 50584, Note_on_c, 9, 76, 36
20, 50628, Note_off_c, 9, 76, 0
20, 50676, Note_on_c, 9, 76, 40
20, 50716, Note_off_c, 9, 76, 0
20, 50868, Note_on_c, 9, 76, 80
20, 50908, Note_off_c, 9, 76, 0
20, 51064, Note_on_c, 9, 76, 44
20, 51104, Note_off_c, 9, 76, 0
20, 51252, Note_on_c, 9, 76, 44
20, 51300, Note_off_c, 9, 76, 0
20, 51452, Note_on_c, 9, 76, 80
20, 51492, Note_off_c, 9, 76, 0
20, 51636, Note_on_c, 9, 76, 40
20, 51684, Note_off_c, 9, 76, 0
20, 51736, Note_on_c, 9, 76, 48
20, 51780, Note_off_c, 9, 76, 0
20, 51828, Note_on_c, 9, 76, 72
20, 51868, Note_off_c, 9, 76, 0
20, 52020, Note_on_c, 9, 76, 40
20, 52060, Note_off_c, 9, 76, 0
20, 52116, Note_on_c, 9, 76, 40
20, 52164, Note_off_c, 9, 76, 0
20, 52216, Note_on_c, 9, 76, 80
20, 52256, Note_off_c, 9, 76, 0
20, 52404, Note_on_c, 9, 76, 16
20, 52444, Note_off_c, 9, 76, 0
20, 52600, Note_on_c, 9, 76, 52
20, 52644, Note_off_c, 9, 76, 0
20, 52788, Note_on_c, 9, 76, 84
20, 52836, Note_off_c, 9, 76, 0
20, 52988, Note_on_c, 9, 76, 60
20, 52992, Note_off_c, 9, 76, 0
20, 52992, Note_on_c, 9, 76, 74
20, 53032, Note_off_c, 9, 76, 0
20, 53076, Note_on_c, 9, 76, 35
20, 53116, Note_off_c, 9, 76, 0
20, 53172, Note_on_c, 9, 76, 40
20, 53212, Note_off_c, 9, 76, 0
20, 53272, Note_on_c, 9, 76, 44
20, 53312, Note_off_c, 9, 76, 0
20, 53364, Note_on_c, 9, 76, 64
20, 53404, Note_off_c, 9, 76, 0
20, 53556, Note_on_c, 9, 76, 16
20, 53596, Note_off_c, 9, 76, 0
20, 53652, Note_on_c, 9, 76, 36
20, 53700, Note_off_c, 9, 76, 0
20, 53748, Note_on_c, 9, 76, 40
20, 53788, Note_off_c, 9, 76, 0
20, 53940, Note_on_c, 9, 76, 80
20, 53984, Note_off_c, 9, 76, 0
20, 54136, Note_on_c, 9, 76, 44
20, 54180, Note_off_c, 9, 76, 0
20, 54324, Note_on_c, 9, 76, 44
20, 54364, Note_off_c, 9, 76, 0
20, 54516, Note_on_c, 9, 76, 80
20, 54556, Note_off_c, 9, 76, 0
20, 54708, Note_on_c, 9, 76, 40
20, 54752, Note_off_c, 9, 76, 0
20, 54808, Note_on_c, 9, 76, 48
20, 54852, Note_off_c, 9, 76, 0
20, 54900, Note_on_c, 9, 76, 72
20, 54940, Note_off_c, 9, 76, 0
20, 55092, Note_on_c, 9, 76, 40
20, 55140, Note_off_c, 9, 76, 0
20, 55188, Note_on_c, 9, 76, 40
20, 55232, Note_off_c, 9, 76, 0
20, 55284, Note_on_c, 9, 76, 80
20, 55332, Note_off_c, 9, 76, 0
20, 55480, Note_on_c, 9, 76, 16
20, 55520, Note_off_c, 9, 76, 0
20, 55672, Note_on_c, 9, 76, 52
20, 55708, Note_off_c, 9, 76, 0
20, 55860, Note_on_c, 9, 76, 84
20, 55900, Note_off_c, 9, 76, 0
20, 56056, Note_on_c, 9, 76, 74
20, 56060, Note_off_c, 9, 76, 0
20, 56060, Note_on_c, 9, 76, 60
20, 56096, Note_off_c, 9, 76, 0
20, 56148, Note_on_c, 9, 76, 35
20, 56196, Note_off_c, 9, 76, 0
20, 56244, Note_on_c, 9, 76, 40
20, 56288, Note_off_c, 9, 76, 0
20, 56344, Note_on_c, 9, 76, 44
20, 56388, Note_off_c, 9, 76, 0
20, 56440, Note_on_c, 9, 76, 64
20, 56484, Note_off_c, 9, 76, 0
20, 56628, Note_on_c, 9, 76, 16
20, 56676, Note_off_c, 9, 76, 0
20, 56724, Note_on_c, 9, 76, 36
20, 56764, Note_off_c, 9, 76, 0
20, 56824, Note_on_c, 9, 76, 40
20, 56864, Note_off_c, 9, 76, 0
20, 57012, Note_on_c, 9, 76, 80
20, 57052, Note_off_c, 9, 76, 0
20, 57208, Note_on_c, 9, 76, 44
20, 57248, Note_off_c, 9, 76, 0
20, 57396, Note_on_c, 9, 76, 44
20, 57440, Note_off_c, 9, 76, 0
20, 57596, Note_on_c, 9, 76, 80
20, 57632, Note_off_c, 9, 76, 0
20, 57780, Note_on_c, 9, 76, 40
20, 57828, Note_off_c, 9, 76, 0
20, 57880, Note_on_c, 9, 76, 48
20, 57920, Note_off_c, 9, 76, 0
20, 57972, Note_on_c, 9, 76, 72
20, 58020, Note_off_c, 9, 76, 0
20, 58164, Note_on_c, 9, 76, 40
20, 58208, Note_off_c, 9, 76, 0
20, 58264, Note_on_c, 9, 76, 40
20, 58304, Note_off_c, 9, 76, 0
20, 58364, Note_on_c, 9, 76, 80
20, 58400, Note_off_c, 9, 76, 0
20, 58548, Note_on_c, 9, 76, 16
20, 58588, Note_off_c, 9, 76, 0
20, 58744, Note_on_c, 9, 76, 52
20, 58788, Note_off_c, 9, 76, 0
20, 58936, Note_on_c, 9, 76, 84
20, 58972, Note_off_c, 9, 76, 0
20, 59132, Note_on_c, 9, 76, 74
20, 59172, Note_off_c, 9, 76, 0
20, 59220, Note_on_c, 9, 76, 35
20, 59260, Note_off_c, 9, 76, 0
20, 59316, Note_on_c, 9, 76, 40
20, 59364, Note_off_c, 9, 76, 0
20, 59416, Note_on_c, 9, 76, 44
20, 59452, Note_off_c, 9, 76, 0
20, 59512, Note_on_c, 9, 76, 64
20, 59552, Note_off_c, 9, 76, 0
20, 59700, Note_on_c, 9, 76, 16
20, 59740, Note_off_c, 9, 76, 0
20, 59792, Note_on_c, 9, 76, 36
20, 59844, Note_off_c, 9, 76, 0
20, 59900, Note_on_c, 9, 76, 40
20, 59936, Note_off_c, 9, 76, 0
20, 60084, Note_on_c, 9, 76, 80
20, 60124, Note_off_c, 9, 76, 0
20, 60284, Note_on_c, 9, 76, 44
20, 60320, Note_off_c, 9, 76, 0
20, 60468, Note_on_c, 9, 76, 44
20, 60516, Note_off_c, 9, 76, 0
20, 86776, Note_on_c, 9, 76, 74
20, 86816, Note_off_c, 9, 76, 0
20, 86868, Note_on_c, 9, 76, 35
20, 86916, Note_off_c, 9, 76, 0
20, 86964, Note_on_c, 9, 76, 40
20, 87008, Note_off_c, 9, 76, 0
20, 87064, Note_on_c, 9, 76, 44
20, 87104, Note_off_c, 9, 76, 0
20, 87156, Note_on_c, 9, 76, 64
20, 87196, Note_off_c, 9, 76, 0
20, 87348, Note_on_c, 9, 76, 16
20, 87392, Note_off_c, 9, 76, 0
20, 87444, Note_on_c, 9, 76, 36
20, 87488, Note_off_c, 9, 76, 0
20, 87540, Note_on_c, 9, 76, 40
20, 87588, Note_off_c, 9, 76, 0
20, 87732, Note_on_c, 9, 76, 80
20, 87776, Note_off_c, 9, 76, 0
20, 87928, Note_on_c, 9, 76, 44
20, 87968, Note_off_c, 9, 76, 0
20, 88116, Note_on_c, 9, 76, 44
20, 88164, Note_off_c, 9, 76, 0
20, 88312, Note_on_c, 9, 76, 80
20, 88352, Note_off_c, 9, 76, 0
20, 88500, Note_on_c, 9, 76, 40
20, 88544, Note_off_c, 9, 76, 0
20, 88596, Note_on_c, 9, 76, 48
20, 88644, Note_off_c, 9, 76, 0
20, 88692, Note_on_c, 9, 76, 72
20, 88740, Note_off_c, 9, 76, 0
20, 88884, Note_on_c, 9, 76, 40
20, 88928, Note_off_c, 9, 76, 0
20, 88984, Note_on_c, 9, 76, 40
20, 89020, Note_off_c, 9, 76, 0
20, 89076, Note_on_c, 9, 76, 80
20, 89124, Note_off_c, 9, 76, 0
20, 89268, Note_on_c, 9, 76, 16
20, 89308, Note_off_c, 9, 76, 0
20, 89464, Note_on_c, 9, 76, 52
20, 89508, Note_off_c, 9, 76, 0
20, 89652, Note_on_c, 9, 76, 84
20, 89692, Note_off_c, 9, 76, 0
20, 89844, Note_on_c, 9, 76, 60
20, 89852, Note_off_c, 9, 76, 0
20, 89852, Note_on_c, 9, 76, 74
20, 89884, Note_off_c, 9, 76, 0
20, 89940, Note_on_c, 9, 76, 35
20, 89980, Note_off_c, 9, 76, 0
20, 90040, Note_on_c, 9, 76, 40
20, 90080, Note_off_c, 9, 76, 0
20, 90136, Note_on_c, 9, 76, 44
20, 90176, Note_off_c, 9, 76, 0
20, 90232, Note_on_c, 9, 76, 64
20, 90272, Note_off_c, 9, 76, 0
20, 90420, Note_on_c, 9, 76, 16
20, 90460, Note_off_c, 9, 76, 0
20, 90516, Note_on_c, 9, 76, 36
20, 90564, Note_off_c, 9, 76, 0
20, 90612, Note_on_c, 9, 76, 40
20, 90652, Note_off_c, 9, 76, 0
20, 90804, Note_on_c, 9, 76, 80
20, 90844, Note_off_c, 9, 76, 0
20, 91000, Note_on_c, 9, 76, 44
20, 91040, Note_off_c, 9, 76, 0
20, 91188, Note_on_c, 9, 76, 44
20, 91236, Note_off_c, 9, 76, 0
20, 91380, Note_on_c, 9, 76, 80
20, 91428, Note_off_c, 9, 76, 0
20, 91572, Note_on_c, 9, 76, 40
20, 91616, Note_off_c, 9, 76, 0
20, 91668, Note_on_c, 9, 76, 48
20, 91720, Note_off_c, 9, 76, 0
20, 91764, Note_on_c, 9, 76, 72
20, 91804, Note_off_c, 9, 76, 0
20, 91956, Note_on_c, 9, 76, 40
20, 91996, Note_off_c, 9, 76, 0
20, 92052, Note_on_c, 9, 76, 40
20, 92096, Note_off_c, 9, 76, 0
20, 92152, Note_on_c, 9, 76, 80
20, 92192, Note_off_c, 9, 76, 0
20, 92340, Note_on_c, 9, 76, 16
20, 92380, Note_off_c, 9, 76, 0
20, 92532, Note_on_c, 9, 76, 52
20, 92580, Note_off_c, 9, 76, 0
20, 92724, Note_on_c, 9, 76, 84
20, 92772, Note_off_c, 9, 76, 0
20, 92928, Note_on_c, 9, 76, 60
20, 92932, Note_off_c, 9, 76, 0
20, 92932, Note_on_c, 9, 76, 74
20, 92964, Note_off_c, 9, 76, 0
20, 93012, Note_on_c, 9, 76, 35
20, 93052, Note_off_c, 9, 76, 0
20, 93108, Note_on_c, 9, 76, 40
20, 93148, Note_off_c, 9, 76, 0
20, 93208, Note_on_c, 9, 76, 44
20, 93252, Note_off_c, 9, 76, 0
20, 93300, Note_on_c, 9, 76, 64
20, 93340, Note_off_c, 9, 76, 0
20, 93492, Note_on_c, 9, 76, 16
20, 93532, Note_off_c, 9, 76, 0
20, 93588, Note_on_c, 9, 76, 36
20, 93636, Note_off_c, 9, 76, 0
20, 93688, Note_on_c, 9, 76, 40
20, 93724, Note_off_c, 9, 76, 0
20, 93876, Note_on_c, 9, 76, 80
20, 93924, Note_off_c, 9, 76, 0
20, 94072, Note_on_c, 9, 76, 44
20, 94116, Note_off_c, 9, 76, 0
20, 94260, Note_on_c, 9, 76, 44
20, 94308, Note_off_c, 9, 76, 0
20, 94456, Note_on_c, 9, 76, 80
20, 94496, Note_off_c, 9, 76, 0
20, 94644, Note_on_c, 9, 76, 40
20, 94688, Note_off_c, 9, 76, 0
20, 94748, Note_on_c, 9, 76, 48
20, 94784, Note_off_c, 9, 76, 0
20, 94836, Note_on_c, 9, 76, 72
20, 94876, Note_off_c, 9, 76, 0
20, 95028, Note_on_c, 9, 76, 40
20, 95072, Note_off_c, 9, 76, 0
20, 95124, Note_on_c, 9, 76, 40
20, 95164, Note_off_c, 9, 76, 0
20, 95224, Note_on_c, 9, 76, 80
20, 95268, Note_off_c, 9, 76, 0
20, 95412, Note_on_c, 9, 76, 16
20, 95460, Note_off_c, 9, 76, 0
20, 95608, Note_on_c, 9, 76, 52
20, 95648, Note_off_c, 9, 76, 0
20, 95800, Note_on_c, 9, 76, 84
20, 95840, Note_off_c, 9, 76, 0
20, 95988, Note_on_c, 9, 76, 60
20, 95988, Note_off_c, 9, 76, 0
20, 95992, Note_on_c, 9, 76, 74
20, 96032, Note_off_c, 9, 76, 0
20, 96084, Note_on_c, 9, 76, 35
20, 96132, Note_off_c, 9, 76, 0
20, 96180, Note_on_c, 9, 76, 40
20, 96224, Note_off_c, 9, 76, 0
20, 96280, Note_on_c, 9, 76, 44
20, 96320, Note_off_c, 9, 76, 0
20, 96376, Note_on_c, 9, 76, 64
20, 96420, Note_off_c, 9, 76, 0
20, 96564, Note_on_c, 9, 76, 16
20, 96612, Note_off_c, 9, 76, 0
20, 96660, Note_on_c, 9, 76, 36
20, 96700, Note_off_c, 9, 76, 0
20, 96756, Note_on_c, 9, 76, 40
20, 96800, Note_off_c, 9, 76, 0
20, 96948, Note_on_c, 9, 76, 80
20, 96988, Note_off_c, 9, 76, 0
20, 97144, Note_on_c, 9, 76, 44
20, 97184, Note_off_c, 9, 76, 0
20, 97336, Note_on_c, 9, 76, 44
20, 97372, Note_off_c, 9, 76, 0
20, 97524, Note_on_c, 9, 76, 80
20, 97564, Note_off_c, 9, 76, 0
20, 97720, Note_on_c, 9, 76, 40
20, 97764, Note_off_c, 9, 76, 0
20, 97820, Note_on_c, 9, 76, 48
20, 97856, Note_off_c, 9, 76, 0
20, 97908, Note_on_c, 9, 76, 72
20, 97956, Note_off_c, 9, 76, 0
20, 98100, Note_on_c, 9, 76, 40
20, 98148, Note_off_c, 9, 76, 0
20, 98196, Note_on_c, 9, 76, 40
20, 98236, Note_off_c, 9, 76, 0
20, 98296, Note_on_c, 9, 76, 80
20, 98332, Note_off_c, 9, 76, 0
20, 98484, Note_on_c, 9, 76, 16
20, 98524, Note_off_c, 9, 76, 0
20, 98676, Note_on_c, 9, 76, 52
20, 98724, Note_off_c, 9, 76, 0
20, 98868, Note_on_c, 9, 76, 84
20, 98908, Note_off_c, 9, 76, 0
20, 99072, Note_on_c, 9, 76, 74
20, 99108, Note_off_c, 9, 76, 0
20, 99156, Note_on_c, 9, 76, 35
20, 99196, Note_off_c, 9, 76, 0
20, 99252, Note_on_c, 9, 76, 40
20, 99300, Note_off_c, 9, 76, 0
20, 99352, Note_on_c, 9, 76, 44
20, 99392, Note_off_c, 9, 76, 0
20, 99452, Note_on_c, 9, 76, 64
20, 99484, Note_off_c, 9, 76, 0
20, 99636, Note_on_c, 9, 76, 16
20, 99676, Note_off_c, 9, 76, 0
20, 99732, Note_on_c, 9, 76, 36
20, 99780, Note_off_c, 9, 76, 0
20, 99840, Note_on_c, 9, 76, 40
20, 99872, Note_off_c, 9, 76, 0
20, 100020, Note_on_c, 9, 76, 80
20, 100064, Note_off_c, 9, 76, 0
20, 100216, Note_on_c, 9, 76, 44
20, 100256, Note_off_c, 9, 76, 0
20, 100404, Note_on_c, 9, 76, 44
20, 100448, Note_off_c, 9, 76, 0
20, 119808, Note_on_c, 9, 76, 74
20, 119844, Note_off_c, 9, 76, 0
20, 119892, Note_on_c, 9, 76, 35
20, 119932, Note_off_c, 9, 76, 0
20, 119988, Note_on_c, 9, 76, 40
20, 120036, Note_off_c, 9, 76, 0
20, 120084, Note_on_c, 9, 76, 44
20, 120124, Note_off_c, 9, 76, 0
20, 120184, Note_on_c, 9, 76, 64
20, 120224, Note_off_c, 9, 76, 0
20, 120372, Note_on_c, 9, 76, 16
20, 120412, Note_off_c, 9, 76, 0
20, 120468, Note_on_c, 9, 76, 36
20, 120512, Note_off_c, 9, 76, 0
20, 120572, Note_on_c, 9, 76, 40
20, 120604, Note_off_c, 9, 76, 0
20, 120756, Note_on_c, 9, 76, 80
20, 120796, Note_off_c, 9, 76, 0
20, 120952, Note_on_c, 9, 76, 44
20, 120996, Note_off_c, 9, 76, 0
20, 121140, Note_on_c, 9, 76, 44
20, 121188, Note_off_c, 9, 76, 0
20, 121332, Note_on_c, 9, 76, 80
20, 121380, Note_off_c, 9, 76, 0
20, 121524, Note_on_c, 9, 76, 40
20, 121568, Note_off_c, 9, 76, 0
20, 121624, Note_on_c, 9, 76, 48
20, 121668, Note_off_c, 9, 76, 0
20, 121720, Note_on_c, 9, 76, 72
20, 121760, Note_off_c, 9, 76, 0
20, 121908, Note_on_c, 9, 76, 40
20, 121948, Note_off_c, 9, 76, 0
20, 122004, Note_on_c, 9, 76, 40
20, 122044, Note_off_c, 9, 76, 0
20, 122100, Note_on_c, 9, 76, 80
20, 122140, Note_off_c, 9, 76, 0
20, 122292, Note_on_c, 9, 76, 16
20, 122340, Note_off_c, 9, 76, 0
20, 122488, Note_on_c, 9, 76, 52
20, 122528, Note_off_c, 9, 76, 0
20, 122680, Note_on_c, 9, 76, 84
20, 122716, Note_off_c, 9, 76, 0
20, 122876, Note_on_c, 9, 76, 74
20, 122876, Note_off_c, 9, 76, 0
20, 122876, Note_on_c, 9, 76, 60
20, 122916, Note_off_c, 9, 76, 0
20, 122964, Note_on_c, 9, 76, 35
20, 123008, Note_off_c, 9, 76, 0
20, 123060, Note_on_c, 9, 76, 40
20, 123104, Note_off_c, 9, 76, 0
20, 123160, Note_on_c, 9, 76, 44
20, 123200, Note_off_c, 9, 76, 0
20, 123256, Note_on_c, 9, 76, 64
20, 123296, Note_off_c, 9, 76, 0
20, 123444, Note_on_c, 9, 76, 16
20, 123492, Note_off_c, 9, 76, 0
20, 123540, Note_on_c, 9, 76, 36
20, 123580, Note_off_c, 9, 76, 0
20, 123640, Note_on_c, 9, 76, 40
20, 123684, Note_off_c, 9, 76, 0
20, 123832, Note_on_c, 9, 76, 80
20, 123872, Note_off_c, 9, 76, 0
20, 124020, Note_on_c, 9, 76, 44
20, 124060, Note_off_c, 9, 76, 0
20, 124212, Note_on_c, 9, 76, 44
20, 124256, Note_off_c, 9, 76, 0
20, 124412, Note_on_c, 9, 76, 80
20, 124444, Note_off_c, 9, 76, 0
20, 124596, Note_on_c, 9, 76, 40
20, 124640, Note_off_c, 9, 76, 0
20, 124692, Note_on_c, 9, 76, 48
20, 124732, Note_off_c, 9, 76, 0
20, 124788, Note_on_c, 9, 76, 72
20, 124832, Note_off_c, 9, 76, 0
20, 124980, Note_on_c, 9, 76, 40
20, 125028, Note_off_c, 9, 76, 0
20, 125076, Note_on_c, 9, 76, 40
20, 125116, Note_off_c, 9, 76, 0
20, 125176, Note_on_c, 9, 76, 80
20, 125220, Note_off_c, 9, 76, 0
20, 125364, Note_on_c, 9, 76, 16
20, 125404, Note_off_c, 9, 76, 0
20, 125560, Note_on_c, 9, 76, 52
20, 125604, Note_off_c, 9, 76, 0
20, 125748, Note_on_c, 9, 76, 84
20, 125788, Note_off_c, 9, 76, 0
20, 125952, Note_on_c, 9, 76, 74
20, 125956, Note_off_c, 9, 76, 0
20, 125956, Note_on_c, 9, 76, 60
20, 125984, Note_off_c, 9, 76, 0
20, 126036, Note_on_c, 9, 76, 35
20, 126076, Note_off_c, 9, 76, 0
20, 126132, Note_on_c, 9, 76, 40
20, 126176, Note_off_c, 9, 76, 0
20, 126232, Note_on_c, 9, 76, 44
20, 126272, Note_off_c, 9, 76, 0
20, 126324, Note_on_c, 9, 76, 64
20, 126372, Note_off_c, 9, 76, 0
20, 126516, Note_on_c, 9, 76, 16
20, 126556, Note_off_c, 9, 76, 0
20, 126612, Note_on_c, 9, 76, 67
20, 126652, Note_off_c, 9, 76, 0
20, 126712, Note_on_c, 9, 76, 40
20, 126752, Note_off_c, 9, 76, 0
20, 126900, Note_on_c, 9, 76, 80
20, 126940, Note_off_c, 9, 76, 0
20, 127096, Note_on_c, 9, 76, 44
20, 127136, Note_off_c, 9, 76, 0
20, 127284, Note_on_c, 9, 76, 44
20, 127332, Note_off_c, 9, 76, 0
20, 127484, Note_on_c, 9, 76, 80
20, 127524, Note_off_c, 9, 76, 0
20, 127668, Note_on_c, 9, 76, 40
20, 127716, Note_off_c, 9, 76, 0
20, 127768, Note_on_c, 9, 76, 48
20, 127808, Note_off_c, 9, 76, 0
20, 127860, Note_on_c, 9, 76, 72
20, 127900, Note_off_c, 9, 76, 0
20, 128052, Note_on_c, 9, 76, 40
20, 128092, Note_off_c, 9, 76, 0
20, 128148, Note_on_c, 9, 76, 40
20, 128196, Note_off_c, 9, 76, 0
20, 128248, Note_on_c, 9, 76, 80
20, 128288, Note_off_c, 9, 76, 0
20, 128436, Note_on_c, 9, 76, 16
20, 128476, Note_off_c, 9, 76, 0
20, 128632, Note_on_c, 9, 76, 52
20, 128672, Note_off_c, 9, 76, 0
20, 128824, Note_on_c, 9, 76, 84
20, 128868, Note_off_c, 9, 76, 0
20, 129020, Note_on_c, 9, 76, 60
20, 129024, Note_off_c, 9, 76, 0
20, 129024, Note_on_c, 9, 76, 74
20, 129060, Note_off_c, 9, 76, 0
20, 129108, Note_on_c, 9, 76, 35
20, 129148, Note_off_c, 9, 76, 0
20, 129204, Note_on_c, 9, 76, 40
20, 129244, Note_off_c, 9, 76, 0
20, 129304, Note_on_c, 9, 76, 44
20, 129348, Note_off_c, 9, 76, 0
20, 129396, Note_on_c, 9, 76, 64
20, 129436, Note_off_c, 9, 76, 0
20, 129588, Note_on_c, 9, 76, 16
20, 129628, Note_off_c, 9, 76, 0
20, 129688, Note_on_c, 9, 76, 36
20, 129732, Note_off_c, 9, 76, 0
20, 129780, Note_on_c, 9, 76, 40
20, 129820, Note_off_c, 9, 76, 0
20, 129972, Note_on_c, 9, 76, 80
20, 130016, Note_off_c, 9, 76, 0
20, 130172, Note_on_c, 9, 76, 44
20, 130212, Note_off_c, 9, 76, 0
20, 130360, Note_on_c, 9, 76, 44
20, 130404, Note_off_c, 9, 76, 0
20, 130552, Note_on_c, 9, 76, 80
20, 130592, Note_off_c, 9, 76, 0
20, 130740, Note_on_c, 9, 76, 40
20, 130784, Note_off_c, 9, 76, 0
20, 130840, Note_on_c, 9, 76, 48
20, 130884, Note_off_c, 9, 76, 0
20, 130936, Note_on_c, 9, 76, 72
20, 130972, Note_off_c, 9, 76, 0
20, 131128, Note_on_c, 9, 76, 40
20, 131164, Note_off_c, 9, 76, 0
20, 131220, Note_on_c, 9, 76, 40
20, 131264, Note_off_c, 9, 76, 0
20, 131320, Note_on_c, 9, 76, 80
20, 131364, Note_off_c, 9, 76, 0
20, 131508, Note_on_c, 9, 76, 16
20, 131556, Note_off_c, 9, 76, 0
20, 131704, Note_on_c, 9, 76, 52
20, 131744, Note_off_c, 9, 76, 0
20, 131892, Note_on_c, 9, 76, 84
20, 131932, Note_off_c, 9, 76, 0
20, 132096, Note_on_c, 9, 76, 74
20, 132128, Note_off_c, 9, 76, 0
20, 132180, Note_on_c, 9, 76, 35
20, 132228, Note_off_c, 9, 76, 0
20, 132276, Note_on_c, 9, 76, 40
20, 132320, Note_off_c, 9, 76, 0
20, 132376, Note_on_c, 9, 76, 44
20, 132412, Note_off_c, 9, 76, 0
20, 132472, Note_on_c, 9, 76, 64
20, 132516, Note_off_c, 9, 76, 0
20, 132660, Note_on_c, 9, 76, 16
20, 132708, Note_off_c, 9, 76, 0
20, 132756, Note_on_c, 9, 76, 36
20, 132800, Note_off_c, 9, 76, 0
20, 132860, Note_on_c, 9, 76, 40
20, 132900, Note_off_c, 9, 76, 0
20, 133044, Note_on_c, 9, 76, 80
20, 133084, Note_off_c, 9, 76, 0
20, 133236, Note_on_c, 9, 76, 44
20, 133276, Note_off_c, 9, 76, 0
20, 133428, Note_on_c, 9, 76, 44
20, 133472, Note_off_c, 9, 76, 0
20, 133472, End_track
21, 0, Start_track
21, 0, Title_t, "D#5 "
21, 0, Control_c, 9, 0, 0
21, 0, Program_c, 9, 0
21, 0, Control_c, 9, 91, 100
21, 0, Key_signature, 0, "major"
21, 86196, Note_on_c, 9, 87, 82
21, 86212, Note_off_c, 9, 87, 0
21, 86212, Note_on_c, 9, 87, 107
21, 86240, Note_off_c, 9, 87, 0
21, 86240, End_track
22, 0, Start_track
22, 0, Title_t, "E 5 "
22, 0, Control_c, 9, 0, 0
22, 0, Program_c, 9, 0
22, 0, Control_c, 9, 91, 100
22, 0, Key_signature, 0, "major"
22, 46260, Note_on_c, 9, 88, 82
22, 46276, Note_off_c, 9, 88, 0
22, 46276, Note_on_c, 9, 88, 107
22, 46308, Note_off_c, 9, 88, 0
22, 119220, Note_on_c, 9, 88, 82
22, 119236, Note_off_c, 9, 88, 0
22, 119236, Note_on_c, 9, 88, 107
22, 119260, Note_off_c, 9, 88, 0
22, 119260, End_track
23, 0, Start_track
23, 0, Title_t, "F 5 "
23, 0, Control_c, 9, 0, 0
23, 0, Program_c, 9, 0
23, 0, Control_c, 9, 91, 100
23, 0, Key_signature, 0, "major"
23, 45572, Note_on_c, 9, 89, 83
23, 45592, Note_off_c, 9, 89, 0
23, 45592, Note_on_c, 9, 89, 107
23, 45612, Note_off_c, 9, 89, 0
23, 45948, Note_on_c, 9, 89, 78
23, 45972, Note_off_c, 9, 89, 0
23, 45972, Note_on_c, 9, 89, 107
23, 45992, Note_off_c, 9, 89, 0
23, 46432, Note_on_c, 9, 89, 91
23, 46460, Note_off_c, 9, 89, 0
23, 46460, Note_on_c, 9, 89, 107
23, 46476, Note_off_c, 9, 89, 0
23, 85508, Note_on_c, 9, 89, 83
23, 85524, Note_off_c, 9, 89, 0
23, 85524, Note_on_c, 9, 89, 107
23, 85548, Note_off_c, 9, 89, 0
23, 85884, Note_on_c, 9, 89, 78
23, 85908, Note_off_c, 9, 89, 0
23, 85908, Note_on_c, 9, 89, 107
23, 85932, Note_off_c, 9, 89, 0
23, 86372, Note_on_c, 9, 89, 91
23, 86400, Note_off_c, 9, 89, 0
23, 86400, Note_on_c, 9, 89, 107
23, 86416, Note_off_c, 9, 89, 0
23, 118532, Note_on_c, 9, 89, 83
23, 118552, Note_off_c, 9, 89, 0
23, 118552, Note_on_c, 9, 89, 107
23, 118572, Note_off_c, 9, 89, 0
23, 118908, Note_on_c, 9, 89, 78
23, 118932, Note_off_c, 9, 89, 0
23, 118932, Note_on_c, 9, 89, 107
23, 118952, Note_off_c, 9, 89, 0
23, 119396, Note_on_c, 9, 89, 91
23, 119420, Note_off_c, 9, 89, 0
23, 119420, Note_on_c, 9, 89, 107
23, 119444, Note_off_c, 9, 89, 0
23, 119444, End_track
24, 0, Start_track
24, 0, Title_t, "G 5 "
24, 0, Control_c, 9, 0, 0
24, 0, Program_c, 9, 0
24, 0, Control_c, 9, 91, 100
24, 0, Key_signature, 0, "major"
24, 45304, Note_on_c, 9, 91, 77
24, 45316, Note_off_c, 9, 91, 0
24, 45316, Note_on_c, 9, 91, 107
24, 45344, Note_off_c, 9, 91, 0
24, 45344, End_track
25, 0, Start_track
25, 0, Title_t, "A 5 "
25, 0, Control_c, 9, 0, 0
25, 0, Program_c, 9, 0
25, 0, Control_c, 9, 91, 100
25, 0, Key_signature, 0, "major"
25, 85240, Note_on_c, 9, 93, 77
25, 85260, Note_off_c, 9, 93, 0
25, 85260, Note_on_c, 9, 93, 107
25, 85284, Note_off_c, 9, 93, 0
25, 118260, Note_on_c, 9, 93, 77
25, 118276, Note_off_c, 9, 93, 0
25, 118276, Note_on_c, 9, 93, 107
25, 118312, Note_off_c, 9, 93, 0
25, 118312, End_track
26, 0, Start_track
26, 0, Key_signature, 0, "major"
26, 0, End_track
27, 0, Start_track
27, 0, Key_signature, 0, "major"
27, 0, End_track
28, 0, Start_track
28, 0, Key_signature, 0, "major"
28, 0, End_track
29, 0, Start_track
29, 0, Key_signature, 0, "major"
29, 0, End_track
30, 0, Start_track
30, 0, Key_signature, 0, "major"
30, 0, End_track
0, 0, End_of_file
