0, 0, Header, 1, 14, 384
1, 0, Start_track
1, 0, Title_t, "untitled"
1, 0, SMPTE_offset, 96, 0, 3, 0, 0
1, 0, Time_signature, 4, 2, 24, 8
1, 0, Key_signature, 0, "major"
1, 0, Tempo, 500000
1, 0, End_track
2, 0, Start_track
2, 0, MIDI_port, 0
2, 0, Title_t, "Melody"
2, 0, Control_c, 0, 0, 0
2, 0, Control_c, 0, 32, 0
2, 0, Program_c, 0, 73
2, 0, Control_c, 0, 7, 115
2, 0, Control_c, 0, 10, 64
2, 0, Control_c, 0, 91, 85
2, 0, Control_c, 0, 93, 60
2, 5308, Control_c, 0, 11, 85
2, 5308, Pitch_bend_c, 0, 7957
2, 5312, Pitch_bend_c, 0, 7372
2, 5320, Pitch_bend_c, 0, 6787
2, 5328, Pitch_bend_c, 0, 5617
2, 5336, Pitch_bend_c, 0, 4681
2, 5340, Pitch_bend_c, 0, 3862
2, 5352, Pitch_bend_c, 0, 3160
2, 5360, Pitch_bend_c, 0, 2575
2, 5368, Pitch_bend_c, 0, 2224
2, 5372, Note_on_c, 0, 62, 100
2, 5376, Pitch_bend_c, 0, 1873
2, 5404, Pitch_bend_c, 0, 2224
2, 5412, Pitch_bend_c, 0, 2575
2, 5424, Pitch_bend_c, 0, 3160
2, 5428, Pitch_bend_c, 0, 3979
2, 5436, Pitch_bend_c, 0, 5266
2, 5440, Pitch_bend_c, 0, 7372
2, 5452, Pitch_bend_c, 0, 8192
2, 5760, Note_on_c, 0, 59, 91
2, 5764, Note_on_c, 0, 62, 0
2, 5932, Note_on_c, 0, 59, 0
2, 5948, Note_on_c, 0, 55, 94
2, 6136, Pitch_bend_c, 0, 8777
2, 6148, Pitch_bend_c, 0, 11468
2, 6152, Pitch_bend_c, 0, 13925
2, 6160, Pitch_bend_c, 0, 16148
2, 6172, Pitch_bend_c, 0, 16383
2, 6564, Pitch_bend_c, 0, 16265
2, 6728, Note_on_c, 0, 55, 0
2, 6952, Pitch_bend_c, 0, 8192
2, 11428, Pitch_bend_c, 0, 7606
2, 11436, Pitch_bend_c, 0, 6670
2, 11440, Pitch_bend_c, 0, 5383
2, 11452, Pitch_bend_c, 0, 4096
2, 11460, Pitch_bend_c, 0, 3160
2, 11464, Pitch_bend_c, 0, 2341
2, 11476, Pitch_bend_c, 0, 1522
2, 11480, Pitch_bend_c, 0, 820
2, 11488, Pitch_bend_c, 0, 469
2, 11496, Pitch_bend_c, 0, 118
2, 11504, Pitch_bend_c, 0, 0
2, 11516, Note_on_c, 0, 62, 92
2, 11548, Pitch_bend_c, 0, 1
2, 11556, Pitch_bend_c, 0, 820
2, 11568, Pitch_bend_c, 0, 2341
2, 11572, Pitch_bend_c, 0, 4447
2, 11580, Pitch_bend_c, 0, 7255
2, 11584, Pitch_bend_c, 0, 8192
2, 11908, Note_on_c, 0, 59, 90
2, 11912, Note_on_c, 0, 62, 0
2, 12084, Note_on_c, 0, 59, 0
2, 12092, Note_on_c, 0, 55, 100
2, 12296, Pitch_bend_c, 0, 9596
2, 12300, Pitch_bend_c, 0, 11819
2, 12304, Pitch_bend_c, 0, 13691
2, 12316, Pitch_bend_c, 0, 15563
2, 12324, Pitch_bend_c, 0, 16383
2, 12884, Note_on_c, 0, 55, 0
2, 12940, Pitch_bend_c, 0, 16382
2, 12952, Pitch_bend_c, 0, 15914
2, 12960, Pitch_bend_c, 0, 14978
2, 12968, Pitch_bend_c, 0, 13574
2, 12976, Pitch_bend_c, 0, 12287
2, 12984, Pitch_bend_c, 0, 11000
2, 12992, Pitch_bend_c, 0, 9713
2, 12996, Pitch_bend_c, 0, 8192
2, 15656, Control_c, 0, 11, 127
2, 15656, Pitch_bend_c, 0, 7606
2, 15664, Pitch_bend_c, 0, 6904
2, 15672, Pitch_bend_c, 0, 6085
2, 15680, Pitch_bend_c, 0, 5266
2, 15684, Pitch_bend_c, 0, 4330
2, 15696, Pitch_bend_c, 0, 3628
2, 15704, Pitch_bend_c, 0, 3043
2, 15708, Pitch_bend_c, 0, 2458
2, 15720, Pitch_bend_c, 0, 1990
2, 15724, Pitch_bend_c, 0, 1873
2, 15740, Note_on_c, 0, 57, 106
2, 15744, Pitch_bend_c, 0, 2107
2, 15748, Pitch_bend_c, 0, 2809
2, 15756, Pitch_bend_c, 0, 3862
2, 15768, Pitch_bend_c, 0, 5149
2, 15772, Pitch_bend_c, 0, 6787
2, 15780, Pitch_bend_c, 0, 8192
2, 16132, Note_on_c, 0, 60, 98
2, 16168, Note_on_c, 0, 57, 0
2, 16324, Note_on_c, 0, 60, 0
2, 16324, Note_on_c, 0, 62, 86
2, 16528, Note_on_c, 0, 62, 0
2, 16700, Note_on_c, 0, 62, 108
2, 16908, Pitch_bend_c, 0, 11000
2, 16912, Pitch_bend_c, 0, 14627
2, 16920, Pitch_bend_c, 0, 16383
2, 17104, Pitch_bend_c, 0, 16265
2, 17116, Pitch_bend_c, 0, 15563
2, 17120, Pitch_bend_c, 0, 13457
2, 17128, Pitch_bend_c, 0, 10415
2, 17136, Pitch_bend_c, 0, 8192
2, 17224, Note_on_c, 0, 62, 0
2, 17284, Note_on_c, 0, 62, 87
2, 17464, Note_on_c, 0, 62, 0
2, 17472, Note_on_c, 0, 60, 92
2, 17852, Note_on_c, 0, 57, 65
2, 17856, Note_on_c, 0, 60, 0
2, 18044, Note_on_c, 0, 57, 0
2, 18044, Note_on_c, 0, 60, 95
2, 18428, Note_on_c, 0, 60, 0
2, 18812, Note_on_c, 0, 57, 94
2, 19004, Note_on_c, 0, 60, 85
2, 19016, Note_on_c, 0, 57, 0
2, 19376, Note_on_c, 0, 60, 0
2, 19384, Note_on_c, 0, 57, 78
2, 19572, Note_on_c, 0, 57, 0
2, 19576, Note_on_c, 0, 60, 95
2, 19772, Pitch_bend_c, 0, 8309
2, 19780, Pitch_bend_c, 0, 11000
2, 19788, Pitch_bend_c, 0, 13574
2, 19800, Pitch_bend_c, 0, 16148
2, 19804, Pitch_bend_c, 0, 16383
2, 19988, Pitch_bend_c, 0, 16265
2, 20068, Pitch_bend_c, 0, 16148
2, 20092, Pitch_bend_c, 0, 15914
2, 20100, Pitch_bend_c, 0, 15797
2, 20108, Pitch_bend_c, 0, 15446
2, 20116, Pitch_bend_c, 0, 15095
2, 20124, Pitch_bend_c, 0, 14744
2, 20136, Pitch_bend_c, 0, 14276
2, 20140, Pitch_bend_c, 0, 13808
2, 20148, Pitch_bend_c, 0, 13457
2, 20156, Pitch_bend_c, 0, 12989
2, 20168, Pitch_bend_c, 0, 12404
2, 20176, Pitch_bend_c, 0, 11936
2, 20184, Pitch_bend_c, 0, 11351
2, 20188, Pitch_bend_c, 0, 10766
2, 20200, Pitch_bend_c, 0, 10298
2, 20208, Pitch_bend_c, 0, 9947
2, 20216, Pitch_bend_c, 0, 9596
2, 20224, Pitch_bend_c, 0, 9245
2, 20236, Pitch_bend_c, 0, 8894
2, 20252, Pitch_bend_c, 0, 8543
2, 20256, Pitch_bend_c, 0, 8309
2, 20268, Pitch_bend_c, 0, 8192
2, 20332, Note_on_c, 0, 60, 0
2, 20344, Note_on_c, 0, 57, 94
2, 21136, Note_on_c, 0, 57, 0
2, 21884, Note_on_c, 0, 57, 108
2, 22272, Note_on_c, 0, 60, 102
2, 22296, Note_on_c, 0, 57, 0
2, 22464, Note_on_c, 0, 62, 91
2, 22488, Note_on_c, 0, 60, 0
2, 22760, Note_on_c, 0, 62, 0
2, 22844, Note_on_c, 0, 62, 106
2, 23036, Pitch_bend_c, 0, 11000
2, 23048, Pitch_bend_c, 0, 14276
2, 23052, Pitch_bend_c, 0, 16383
2, 23184, Pitch_bend_c, 0, 16382
2, 23204, Pitch_bend_c, 0, 15797
2, 23208, Pitch_bend_c, 0, 14159
2, 23220, Pitch_bend_c, 0, 11819
2, 23224, Pitch_bend_c, 0, 9011
2, 23236, Pitch_bend_c, 0, 8192
2, 23400, Note_on_c, 0, 62, 0
2, 23424, Note_on_c, 0, 60, 86
2, 23552, Note_on_c, 0, 60, 0
2, 23612, Note_on_c, 0, 60, 100
2, 23996, Note_on_c, 0, 62, 78
2, 24016, Note_on_c, 0, 60, 0
2, 24184, Note_on_c, 0, 62, 0
2, 24188, Note_on_c, 0, 55, 104
2, 24376, Pitch_bend_c, 0, 8894
2, 24384, Pitch_bend_c, 0, 12170
2, 24396, Pitch_bend_c, 0, 15446
2, 24400, Pitch_bend_c, 0, 16383
2, 24932, Pitch_bend_c, 0, 16265
2, 24936, Pitch_bend_c, 0, 15329
2, 24940, Note_on_c, 0, 55, 0
2, 24948, Pitch_bend_c, 0, 12053
2, 24952, Pitch_bend_c, 0, 8192
2, 27508, Pitch_bend_c, 0, 8074
2, 27512, Pitch_bend_c, 0, 7489
2, 27528, Pitch_bend_c, 0, 6787
2, 27532, Pitch_bend_c, 0, 5851
2, 27540, Pitch_bend_c, 0, 4798
2, 27548, Pitch_bend_c, 0, 3979
2, 27560, Pitch_bend_c, 0, 3394
2, 27572, Pitch_bend_c, 0, 2692
2, 27576, Pitch_bend_c, 0, 2107
2, 27580, Pitch_bend_c, 0, 1639
2, 27592, Pitch_bend_c, 0, 1288
2, 27600, Pitch_bend_c, 0, 820
2, 27616, Pitch_bend_c, 0, 586
2, 27936, Pitch_bend_c, 0, 7372
2, 27940, Pitch_bend_c, 0, 6319
2, 27948, Pitch_bend_c, 0, 5266
2, 27956, Pitch_bend_c, 0, 4213
2, 27968, Pitch_bend_c, 0, 3277
2, 27972, Pitch_bend_c, 0, 2458
2, 27984, Pitch_bend_c, 0, 1522
2, 27988, Pitch_bend_c, 0, 1171
2, 28000, Pitch_bend_c, 0, 820
2, 28028, Note_on_c, 0, 69, 102
2, 28052, Pitch_bend_c, 0, 703
2, 28084, Pitch_bend_c, 0, 1405
2, 28092, Pitch_bend_c, 0, 2575
2, 28100, Pitch_bend_c, 0, 4330
2, 28108, Pitch_bend_c, 0, 6787
2, 28120, Pitch_bend_c, 0, 8192
2, 28156, Note_on_c, 0, 69, 0
2, 28224, Note_on_c, 0, 69, 100
2, 28608, Note_on_c, 0, 67, 66
2, 28628, Note_on_c, 0, 69, 0
2, 28688, Note_on_c, 0, 67, 0
2, 28744, Pitch_bend_c, 0, 6553
2, 28756, Pitch_bend_c, 0, 4564
2, 28760, Pitch_bend_c, 0, 2926
2, 28772, Pitch_bend_c, 0, 1639
2, 28780, Pitch_bend_c, 0, 1054
2, 28788, Pitch_bend_c, 0, 703
2, 28796, Note_on_c, 0, 72, 106
2, 28796, Pitch_bend_c, 0, 469
2, 28808, Pitch_bend_c, 0, 703
2, 28812, Pitch_bend_c, 0, 1522
2, 28816, Pitch_bend_c, 0, 2926
2, 28828, Pitch_bend_c, 0, 5149
2, 28840, Pitch_bend_c, 0, 7723
2, 28844, Pitch_bend_c, 0, 8192
2, 28988, Note_on_c, 0, 71, 94
2, 29004, Note_on_c, 0, 72, 0
2, 29428, Note_on_c, 0, 71, 0
2, 29460, Pitch_bend_c, 0, 7957
2, 29468, Pitch_bend_c, 0, 7138
2, 29472, Pitch_bend_c, 0, 5968
2, 29484, Pitch_bend_c, 0, 4915
2, 29488, Pitch_bend_c, 0, 3862
2, 29500, Pitch_bend_c, 0, 2926
2, 29512, Pitch_bend_c, 0, 2224
2, 29516, Pitch_bend_c, 0, 1639
2, 29544, Pitch_bend_c, 0, 1756
2, 29552, Pitch_bend_c, 0, 2458
2, 29556, Pitch_bend_c, 0, 3394
2, 29560, Pitch_bend_c, 0, 4798
2, 29560, Pitch_bend_c, 0, 6670
2, 29564, Pitch_bend_c, 0, 8192
2, 29564, Note_on_c, 0, 69, 100
2, 29680, Note_on_c, 0, 69, 0
2, 29752, Note_on_c, 0, 69, 87
2, 30120, Note_on_c, 0, 69, 0
2, 30144, Note_on_c, 0, 67, 92
2, 30572, Note_on_c, 0, 67, 0
2, 30720, Note_on_c, 0, 64, 102
2, 31100, Note_on_c, 0, 64, 88
2, 31148, Pitch_bend_c, 0, 118
2, 31160, Pitch_bend_c, 0, 1171
2, 31164, Pitch_bend_c, 0, 2575
2, 31176, Pitch_bend_c, 0, 4447
2, 31184, Pitch_bend_c, 0, 6787
2, 31192, Pitch_bend_c, 0, 8192
2, 31200, Note_on_c, 0, 64, 0
2, 31236, Note_on_c, 0, 64, 0
2, 31296, Note_on_c, 0, 64, 95
2, 31576, Note_on_c, 0, 64, 0
2, 31608, Pitch_bend_c, 0, 8074
2, 31620, Pitch_bend_c, 0, 6670
2, 31624, Pitch_bend_c, 0, 4798
2, 31636, Pitch_bend_c, 0, 3160
2, 31640, Pitch_bend_c, 0, 1756
2, 31652, Pitch_bend_c, 0, 820
2, 31664, Pitch_bend_c, 0, 235
2, 31668, Pitch_bend_c, 0, 1
2, 31680, Note_on_c, 0, 64, 100
2, 31692, Pitch_bend_c, 0, 469
2, 31704, Pitch_bend_c, 0, 1288
2, 31708, Pitch_bend_c, 0, 2575
2, 31720, Pitch_bend_c, 0, 4447
2, 31732, Pitch_bend_c, 0, 6553
2, 31736, Pitch_bend_c, 0, 8192
2, 31916, Note_on_c, 0, 64, 0
2, 31920, Pitch_bend_c, 0, 7489
2, 31932, Pitch_bend_c, 0, 5968
2, 31936, Pitch_bend_c, 0, 4798
2, 31944, Pitch_bend_c, 0, 3628
2, 31956, Pitch_bend_c, 0, 2458
2, 31960, Pitch_bend_c, 0, 1522
2, 31972, Pitch_bend_c, 0, 703
2, 31984, Pitch_bend_c, 0, 118
2, 31988, Pitch_bend_c, 0, 0
2, 32036, Pitch_bend_c, 0, 586
2, 32044, Pitch_bend_c, 0, 1873
2, 32056, Note_on_c, 0, 64, 97
2, 32056, Pitch_bend_c, 0, 3862
2, 32060, Pitch_bend_c, 0, 6319
2, 32072, Pitch_bend_c, 0, 8192
2, 32336, Pitch_bend_c, 0, 7957
2, 32340, Pitch_bend_c, 0, 7840
2, 32348, Pitch_bend_c, 0, 7606
2, 32356, Pitch_bend_c, 0, 7255
2, 32364, Pitch_bend_c, 0, 7021
2, 32372, Pitch_bend_c, 0, 6553
2, 32380, Pitch_bend_c, 0, 6319
2, 32388, Pitch_bend_c, 0, 5968
2, 32396, Pitch_bend_c, 0, 5734
2, 32408, Pitch_bend_c, 0, 5383
2, 32412, Pitch_bend_c, 0, 5032
2, 32424, Pitch_bend_c, 0, 4681
2, 32432, Pitch_bend_c, 0, 4447
2, 32440, Pitch_bend_c, 0, 4096
2, 32448, Pitch_bend_c, 0, 3745
2, 32456, Pitch_bend_c, 0, 3394
2, 32464, Pitch_bend_c, 0, 3043
2, 32472, Pitch_bend_c, 0, 2809
2, 32480, Pitch_bend_c, 0, 2458
2, 32492, Pitch_bend_c, 0, 2107
2, 32496, Pitch_bend_c, 0, 1873
2, 32508, Pitch_bend_c, 0, 1639
2, 32512, Pitch_bend_c, 0, 1522
2, 32524, Pitch_bend_c, 0, 1288
2, 32532, Pitch_bend_c, 0, 1054
2, 32540, Pitch_bend_c, 0, 820
2, 32564, Pitch_bend_c, 0, 1054
2, 32576, Pitch_bend_c, 0, 1756
2, 32580, Pitch_bend_c, 0, 2575
2, 32592, Pitch_bend_c, 0, 3745
2, 32600, Pitch_bend_c, 0, 5383
2, 32608, Pitch_bend_c, 0, 7606
2, 32616, Note_on_c, 0, 64, 0
2, 32616, Pitch_bend_c, 0, 8192
2, 32632, Note_on_c, 0, 57, 90
2, 32984, Control_c, 0, 1, 18
2, 32996, Control_c, 0, 1, 68
2, 33000, Control_c, 0, 1, 104
2, 33012, Control_c, 0, 1, 118
2, 33028, Control_c, 0, 1, 125
2, 33044, Control_c, 0, 1, 127
2, 33164, Control_c, 0, 1, 95
2, 33168, Control_c, 0, 1, 17
2, 33180, Control_c, 0, 1, 1
2, 33184, Control_c, 0, 1, 0
2, 33200, Note_on_c, 0, 57, 0
2, 33572, Note_on_c, 0, 57, 86
2, 33640, Note_on_c, 0, 57, 0
2, 33708, Pitch_bend_c, 0, 6904
2, 33720, Pitch_bend_c, 0, 5149
2, 33720, Pitch_bend_c, 0, 3745
2, 33732, Pitch_bend_c, 0, 2458
2, 33744, Pitch_bend_c, 0, 1522
2, 33748, Pitch_bend_c, 0, 820
2, 33756, Pitch_bend_c, 0, 118
2, 33760, Pitch_bend_c, 0, 0
2, 33760, Note_on_c, 0, 64, 102
2, 33808, Pitch_bend_c, 0, 352
2, 33816, Pitch_bend_c, 0, 1756
2, 33828, Pitch_bend_c, 0, 3745
2, 33828, Pitch_bend_c, 0, 6787
2, 33840, Pitch_bend_c, 0, 8192
2, 33956, Note_on_c, 0, 64, 0
2, 33980, Note_on_c, 0, 62, 100
2, 34344, Pitch_bend_c, 0, 5851
2, 34352, Pitch_bend_c, 0, 1873
2, 34364, Pitch_bend_c, 0, 0
2, 34420, Note_on_c, 0, 62, 0
2, 34556, Note_on_c, 0, 62, 106
2, 34892, Note_on_c, 0, 62, 0
2, 34904, Pitch_bend_c, 0, 3394
2, 34916, Pitch_bend_c, 0, 8192
2, 34936, Note_on_c, 0, 57, 91
2, 35012, Note_on_c, 0, 57, 0
2, 35128, Note_on_c, 0, 62, 108
2, 35308, Pitch_bend_c, 0, 8894
2, 35320, Pitch_bend_c, 0, 13808
2, 35320, Pitch_bend_c, 0, 16383
2, 35360, Pitch_bend_c, 0, 16382
2, 35472, Pitch_bend_c, 0, 16148
2, 35504, Pitch_bend_c, 0, 14978
2, 35504, Pitch_bend_c, 0, 12053
2, 35512, Pitch_bend_c, 0, 8192
2, 35860, Pitch_bend_c, 0, 5968
2, 35868, Pitch_bend_c, 0, 1990
2, 35876, Pitch_bend_c, 0, 0
2, 35992, Note_on_c, 0, 62, 0
2, 36016, Pitch_bend_c, 0, 820
2, 36028, Pitch_bend_c, 0, 4213
2, 36036, Pitch_bend_c, 0, 8192
2, 36088, Note_on_c, 0, 60, 94
2, 36264, Note_on_c, 0, 60, 0
2, 36280, Note_on_c, 0, 57, 81
2, 36464, Note_on_c, 0, 57, 0
2, 36468, Note_on_c, 0, 60, 97
2, 36636, Pitch_bend_c, 0, 10883
2, 36648, Pitch_bend_c, 0, 14159
2, 36656, Pitch_bend_c, 0, 16383
2, 36788, Pitch_bend_c, 0, 16382
2, 36804, Pitch_bend_c, 0, 16031
2, 36816, Pitch_bend_c, 0, 14861
2, 36824, Pitch_bend_c, 0, 12053
2, 36836, Pitch_bend_c, 0, 8192
2, 37136, Control_c, 0, 1, 3
2, 37144, Control_c, 0, 1, 60
2, 37156, Control_c, 0, 1, 98
2, 37156, Control_c, 0, 1, 114
2, 37168, Control_c, 0, 1, 121
2, 37180, Control_c, 0, 1, 127
2, 37288, Control_c, 0, 1, 121
2, 37296, Control_c, 0, 1, 17
2, 37308, Control_c, 0, 1, 1
2, 37312, Control_c, 0, 1, 0
2, 37344, Note_on_c, 0, 60, 0
2, 37716, Pitch_bend_c, 0, 7138
2, 37728, Pitch_bend_c, 0, 5383
2, 37736, Pitch_bend_c, 0, 3745
2, 37748, Pitch_bend_c, 0, 2458
2, 37760, Pitch_bend_c, 0, 1288
2, 37772, Pitch_bend_c, 0, 235
2, 37772, Pitch_bend_c, 0, 0
2, 37820, Pitch_bend_c, 0, 1
2, 37820, Note_on_c, 0, 57, 94
2, 37820, Pitch_bend_c, 0, 1756
2, 37832, Pitch_bend_c, 0, 4096
2, 37840, Pitch_bend_c, 0, 7021
2, 37852, Pitch_bend_c, 0, 8192
2, 37920, Note_on_c, 0, 57, 0
2, 38016, Note_on_c, 0, 57, 104
2, 38192, Note_on_c, 0, 57, 0
2, 38192, Note_on_c, 0, 62, 106
2, 38424, Pitch_bend_c, 0, 10649
2, 38436, Pitch_bend_c, 0, 13574
2, 38440, Pitch_bend_c, 0, 15914
2, 38452, Pitch_bend_c, 0, 16265
2, 38580, Pitch_bend_c, 0, 15914
2, 38592, Pitch_bend_c, 0, 14393
2, 38600, Pitch_bend_c, 0, 11000
2, 38608, Pitch_bend_c, 0, 8192
2, 38704, Note_on_c, 0, 62, 0
2, 38776, Note_on_c, 0, 62, 97
2, 38972, Pitch_bend_c, 0, 6670
2, 38980, Pitch_bend_c, 0, 2692
2, 38992, Pitch_bend_c, 0, 0
2, 39076, Note_on_c, 0, 62, 0
2, 39108, Pitch_bend_c, 0, 1522
2, 39120, Pitch_bend_c, 0, 4096
2, 39128, Pitch_bend_c, 0, 7489
2, 39128, Pitch_bend_c, 0, 8192
2, 39168, Note_on_c, 0, 60, 97
2, 39436, Note_on_c, 0, 60, 0
2, 39544, Note_on_c, 0, 60, 87
2, 39712, Note_on_c, 0, 60, 0
2, 39712, Note_on_c, 0, 57, 61
2, 39844, Note_on_c, 0, 57, 0
2, 39932, Note_on_c, 0, 60, 104
2, 40136, Pitch_bend_c, 0, 9011
2, 40148, Pitch_bend_c, 0, 11702
2, 40160, Pitch_bend_c, 0, 14042
2, 40160, Pitch_bend_c, 0, 16148
2, 40168, Pitch_bend_c, 0, 16382
2, 40328, Pitch_bend_c, 0, 16148
2, 40340, Pitch_bend_c, 0, 15095
2, 40352, Pitch_bend_c, 0, 11936
2, 40356, Pitch_bend_c, 0, 8192
2, 40572, Note_on_c, 0, 60, 0
2, 40692, Note_on_c, 0, 60, 97
2, 40980, Note_on_c, 0, 60, 0
2, 41088, Note_on_c, 0, 62, 100
2, 41176, Note_on_c, 0, 62, 0
2, 41248, Pitch_bend_c, 0, 5968
2, 41248, Pitch_bend_c, 0, 3394
2, 41260, Pitch_bend_c, 0, 1171
2, 41272, Pitch_bend_c, 0, 0
2, 41280, Note_on_c, 0, 62, 100
2, 41304, Pitch_bend_c, 0, 469
2, 41316, Pitch_bend_c, 0, 3394
2, 41324, Pitch_bend_c, 0, 7372
2, 41324, Pitch_bend_c, 0, 8192
2, 41644, Pitch_bend_c, 0, 5500
2, 41656, Pitch_bend_c, 0, 1171
2, 41660, Pitch_bend_c, 0, 0
2, 42032, Note_on_c, 0, 62, 0
2, 42076, Pitch_bend_c, 0, 2575
2, 42084, Pitch_bend_c, 0, 7021
2, 42096, Pitch_bend_c, 0, 8192
2, 42428, Note_on_c, 0, 55, 80
2, 42516, Note_on_c, 0, 55, 0
2, 42620, Note_on_c, 0, 55, 106
2, 42796, Note_on_c, 0, 62, 110
2, 42808, Note_on_c, 0, 55, 0
2, 43000, Pitch_bend_c, 0, 8777
2, 43016, Pitch_bend_c, 0, 12404
2, 43020, Pitch_bend_c, 0, 15212
2, 43028, Pitch_bend_c, 0, 16383
2, 43164, Pitch_bend_c, 0, 16382
2, 43176, Pitch_bend_c, 0, 16265
2, 43188, Pitch_bend_c, 0, 15680
2, 43196, Pitch_bend_c, 0, 14276
2, 43204, Pitch_bend_c, 0, 12053
2, 43212, Pitch_bend_c, 0, 8543
2, 43224, Pitch_bend_c, 0, 8192
2, 43312, Note_on_c, 0, 62, 0
2, 43396, Note_on_c, 0, 62, 102
2, 43708, Note_on_c, 0, 62, 0
2, 43780, Note_on_c, 0, 60, 91
2, 44060, Note_on_c, 0, 60, 0
2, 44176, Note_on_c, 0, 62, 98
2, 44352, Note_on_c, 0, 62, 0
2, 44364, Note_on_c, 0, 64, 90
2, 44456, Note_on_c, 0, 64, 0
2, 44552, Note_on_c, 0, 62, 106
2, 44656, Note_on_c, 0, 62, 0
2, 44720, Note_on_c, 0, 62, 98
2, 44908, Note_on_c, 0, 60, 83
2, 44924, Note_on_c, 0, 62, 0
2, 45092, Note_on_c, 0, 57, 45
2, 45100, Note_on_c, 0, 60, 0
2, 45216, Note_on_c, 0, 57, 0
2, 45312, Note_on_c, 0, 60, 104
2, 45412, Note_on_c, 0, 60, 0
2, 45504, Note_on_c, 0, 60, 100
2, 45592, Note_on_c, 0, 60, 0
2, 45696, Note_on_c, 0, 60, 97
2, 45900, Pitch_bend_c, 0, 9245
2, 45912, Pitch_bend_c, 0, 12404
2, 45920, Pitch_bend_c, 0, 14627
2, 45932, Pitch_bend_c, 0, 16148
2, 45932, Pitch_bend_c, 0, 16382
2, 46072, Pitch_bend_c, 0, 16148
2, 46076, Pitch_bend_c, 0, 15095
2, 46088, Pitch_bend_c, 0, 11351
2, 46096, Pitch_bend_c, 0, 8192
2, 46460, Control_c, 0, 1, 52
2, 46468, Control_c, 0, 1, 118
2, 46476, Control_c, 0, 1, 125
2, 46488, Control_c, 0, 1, 127
2, 46528, Control_c, 0, 1, 125
2, 46540, Control_c, 0, 1, 66
2, 46548, Note_on_c, 0, 60, 0
2, 46548, Control_c, 0, 1, 7
2, 46560, Control_c, 0, 1, 0
2, 48104, Pitch_bend_c, 0, 7255
2, 48108, Pitch_bend_c, 0, 5617
2, 48120, Pitch_bend_c, 0, 3628
2, 48124, Pitch_bend_c, 0, 1639
2, 48136, Pitch_bend_c, 0, 118
2, 48148, Pitch_bend_c, 0, 0
2, 48168, Note_on_c, 0, 57, 95
2, 48192, Pitch_bend_c, 0, 820
2, 48196, Pitch_bend_c, 0, 2692
2, 48208, Pitch_bend_c, 0, 5266
2, 48212, Pitch_bend_c, 0, 7723
2, 48224, Pitch_bend_c, 0, 8192
2, 48388, Note_on_c, 0, 60, 94
2, 48408, Note_on_c, 0, 57, 0
2, 48564, Note_on_c, 0, 60, 0
2, 48564, Note_on_c, 0, 62, 90
2, 48660, Note_on_c, 0, 62, 0
2, 48724, Pitch_bend_c, 0, 7840
2, 48736, Pitch_bend_c, 0, 5032
2, 48740, Pitch_bend_c, 0, 1990
2, 48752, Pitch_bend_c, 0, 0
2, 48764, Note_on_c, 0, 62, 110
2, 48804, Pitch_bend_c, 0, 469
2, 48812, Pitch_bend_c, 0, 3160
2, 48824, Pitch_bend_c, 0, 7021
2, 48832, Pitch_bend_c, 0, 8192
2, 49148, Pitch_bend_c, 0, 7489
2, 49156, Pitch_bend_c, 0, 3160
2, 49160, Pitch_bend_c, 0, 0
2, 49600, Note_on_c, 0, 62, 0
2, 49656, Pitch_bend_c, 0, 1873
2, 49668, Pitch_bend_c, 0, 5851
2, 49672, Pitch_bend_c, 0, 8192
2, 51136, Pitch_bend_c, 0, 7606
2, 51148, Pitch_bend_c, 0, 6553
2, 51152, Pitch_bend_c, 0, 5266
2, 51164, Pitch_bend_c, 0, 4096
2, 51172, Pitch_bend_c, 0, 3043
2, 51180, Pitch_bend_c, 0, 2341
2, 51192, Pitch_bend_c, 0, 1756
2, 51196, Pitch_bend_c, 0, 1405
2, 51224, Pitch_bend_c, 0, 1756
2, 51236, Pitch_bend_c, 0, 2575
2, 51240, Pitch_bend_c, 0, 3979
2, 51252, Pitch_bend_c, 0, 5617
2, 51260, Pitch_bend_c, 0, 7372
2, 51264, Note_on_c, 0, 55, 91
2, 51268, Pitch_bend_c, 0, 8192
2, 51460, Note_on_c, 0, 60, 98
2, 51464, Note_on_c, 0, 55, 0
2, 51572, Note_on_c, 0, 60, 0
2, 51644, Note_on_c, 0, 60, 94
2, 51732, Note_on_c, 0, 60, 0
2, 51836, Note_on_c, 0, 67, 98
2, 51948, Pitch_bend_c, 0, 10415
2, 51952, Pitch_bend_c, 0, 13574
2, 51964, Pitch_bend_c, 0, 16148
2, 51972, Pitch_bend_c, 0, 16382
2, 52008, Pitch_bend_c, 0, 16148
2, 52016, Pitch_bend_c, 0, 16031
2, 52028, Pitch_bend_c, 0, 15797
2, 52064, Pitch_bend_c, 0, 16031
2, 52096, Pitch_bend_c, 0, 16148
2, 52196, Pitch_bend_c, 0, 15212
2, 52200, Pitch_bend_c, 0, 12287
2, 52204, Pitch_bend_c, 0, 8192
2, 52540, Control_c, 0, 1, 6
2, 52552, Control_c, 0, 1, 32
2, 52556, Control_c, 0, 1, 64
2, 52568, Control_c, 0, 1, 75
2, 52580, Control_c, 0, 1, 90
2, 52584, Control_c, 0, 1, 107
2, 52596, Control_c, 0, 1, 121
2, 52608, Control_c, 0, 1, 127
2, 52656, Note_on_c, 0, 67, 0
2, 52668, Control_c, 0, 1, 118
2, 52672, Control_c, 0, 1, 35
2, 52680, Control_c, 0, 1, 2
2, 52688, Control_c, 0, 1, 0
2, 54216, Pitch_bend_c, 0, 7372
2, 54224, Pitch_bend_c, 0, 6553
2, 54232, Pitch_bend_c, 0, 5500
2, 54244, Pitch_bend_c, 0, 4330
2, 54248, Pitch_bend_c, 0, 3160
2, 54260, Pitch_bend_c, 0, 1873
2, 54268, Pitch_bend_c, 0, 352
2, 54276, Pitch_bend_c, 0, 0
2, 54332, Note_on_c, 0, 62, 102
2, 54336, Pitch_bend_c, 0, 118
2, 54340, Pitch_bend_c, 0, 1756
2, 54352, Pitch_bend_c, 0, 3394
2, 54364, Pitch_bend_c, 0, 5032
2, 54376, Pitch_bend_c, 0, 7021
2, 54380, Pitch_bend_c, 0, 8192
2, 54464, Note_on_c, 0, 62, 0
2, 54528, Note_on_c, 0, 62, 100
2, 54624, Note_on_c, 0, 62, 0
2, 54716, Note_on_c, 0, 62, 112
2, 54824, Pitch_bend_c, 0, 10532
2, 54836, Pitch_bend_c, 0, 13574
2, 54848, Pitch_bend_c, 0, 16265
2, 54852, Pitch_bend_c, 0, 16383
2, 54880, Pitch_bend_c, 0, 16265
2, 54892, Note_on_c, 0, 62, 0
2, 54892, Pitch_bend_c, 0, 15329
2, 54896, Pitch_bend_c, 0, 12053
2, 54908, Pitch_bend_c, 0, 8192
2, 54916, Note_on_c, 0, 62, 110
2, 55116, Pitch_bend_c, 0, 6085
2, 55128, Pitch_bend_c, 0, 1873
2, 55136, Pitch_bend_c, 0, 0
2, 55984, Note_on_c, 0, 62, 0
2, 56044, Pitch_bend_c, 0, 2341
2, 56048, Pitch_bend_c, 0, 7138
2, 56060, Pitch_bend_c, 0, 8192
2, 57980, Note_on_c, 0, 63, 99
2, 58080, Note_on_c, 0, 64, 91
2, 58100, Note_on_c, 0, 63, 0
2, 58256, Note_on_c, 0, 64, 0
2, 58328, Pitch_bend_c, 0, 6787
2, 58332, Pitch_bend_c, 0, 5383
2, 58344, Pitch_bend_c, 0, 4213
2, 58348, Pitch_bend_c, 0, 3277
2, 58360, Pitch_bend_c, 0, 2341
2, 58364, Pitch_bend_c, 0, 1171
2, 58368, Pitch_bend_c, 0, 1756
2, 58372, Note_on_c, 0, 64, 102
2, 58388, Pitch_bend_c, 0, 937
2, 58404, Pitch_bend_c, 0, 1405
2, 58416, Pitch_bend_c, 0, 2341
2, 58420, Pitch_bend_c, 0, 3862
2, 58432, Pitch_bend_c, 0, 6085
2, 58444, Pitch_bend_c, 0, 8192
2, 58624, Note_on_c, 0, 64, 0
2, 58756, Note_on_c, 0, 64, 106
2, 59016, Note_on_c, 0, 64, 0
2, 59048, Pitch_bend_c, 0, 7606
2, 59052, Pitch_bend_c, 0, 6670
2, 59064, Pitch_bend_c, 0, 5734
2, 59076, Pitch_bend_c, 0, 4798
2, 59080, Pitch_bend_c, 0, 3979
2, 59092, Pitch_bend_c, 0, 3277
2, 59096, Pitch_bend_c, 0, 2692
2, 59108, Pitch_bend_c, 0, 2107
2, 59120, Pitch_bend_c, 0, 1405
2, 59124, Pitch_bend_c, 0, 1171
2, 59136, Note_on_c, 0, 64, 97
2, 59152, Pitch_bend_c, 0, 1756
2, 59160, Pitch_bend_c, 0, 2575
2, 59168, Pitch_bend_c, 0, 3745
2, 59180, Pitch_bend_c, 0, 5617
2, 59184, Pitch_bend_c, 0, 7957
2, 59196, Pitch_bend_c, 0, 8192
2, 59252, Note_on_c, 0, 64, 0
2, 59328, Note_on_c, 0, 64, 100
2, 59560, Note_on_c, 0, 64, 0
2, 59644, Pitch_bend_c, 0, 7489
2, 59652, Pitch_bend_c, 0, 5968
2, 59660, Pitch_bend_c, 0, 4330
2, 59672, Pitch_bend_c, 0, 2692
2, 59680, Pitch_bend_c, 0, 1522
2, 59688, Pitch_bend_c, 0, 820
2, 59696, Pitch_bend_c, 0, 352
2, 59708, Pitch_bend_c, 0, 118
2, 59712, Note_on_c, 0, 64, 108
2, 59724, Pitch_bend_c, 0, 352
2, 59732, Pitch_bend_c, 0, 1054
2, 59740, Pitch_bend_c, 0, 2341
2, 59748, Pitch_bend_c, 0, 4564
2, 59760, Pitch_bend_c, 0, 7723
2, 59764, Pitch_bend_c, 0, 8192
2, 60092, Pitch_bend_c, 0, 7489
2, 60100, Pitch_bend_c, 0, 5266
2, 60112, Pitch_bend_c, 0, 2809
2, 60116, Pitch_bend_c, 0, 469
2, 60128, Pitch_bend_c, 0, 0
2, 60180, Note_on_c, 0, 64, 0
2, 60216, Pitch_bend_c, 0, 586
2, 60220, Pitch_bend_c, 0, 2692
2, 60232, Pitch_bend_c, 0, 5500
2, 60244, Pitch_bend_c, 0, 8192
2, 60284, Note_on_c, 0, 62, 106
2, 60468, Pitch_bend_c, 0, 5617
2, 60480, Pitch_bend_c, 0, 2224
2, 60492, Pitch_bend_c, 0, 0
2, 60592, Note_on_c, 0, 62, 0
2, 60600, Pitch_bend_c, 0, 1
2, 60612, Pitch_bend_c, 0, 1990
2, 60616, Pitch_bend_c, 0, 4564
2, 60628, Pitch_bend_c, 0, 7840
2, 60632, Pitch_bend_c, 0, 8192
2, 60676, Note_on_c, 0, 60, 83
2, 60780, Note_on_c, 0, 60, 0
2, 60864, Note_on_c, 0, 60, 98
2, 61108, Note_on_c, 0, 60, 0
2, 61144, Pitch_bend_c, 0, 8074
2, 61156, Pitch_bend_c, 0, 6436
2, 61168, Pitch_bend_c, 0, 4447
2, 61172, Pitch_bend_c, 0, 2458
2, 61180, Pitch_bend_c, 0, 469
2, 61188, Pitch_bend_c, 0, 0
2, 61244, Note_on_c, 0, 60, 102
2, 61260, Pitch_bend_c, 0, 1054
2, 61272, Pitch_bend_c, 0, 3979
2, 61276, Pitch_bend_c, 0, 7606
2, 61288, Pitch_bend_c, 0, 8192
2, 61452, Pitch_bend_c, 0, 9947
2, 61452, Pitch_bend_c, 0, 12872
2, 61464, Pitch_bend_c, 0, 15563
2, 61468, Pitch_bend_c, 0, 16382
2, 61592, Pitch_bend_c, 0, 16265
2, 61620, Pitch_bend_c, 0, 15446
2, 61628, Pitch_bend_c, 0, 13574
2, 61636, Pitch_bend_c, 0, 10532
2, 61648, Pitch_bend_c, 0, 8192
2, 61768, Note_on_c, 0, 60, 0
2, 61824, Note_on_c, 0, 60, 97
2, 62060, Control_c, 0, 1, 64
2, 62068, Control_c, 0, 1, 125
2, 62076, Control_c, 0, 1, 127
2, 62140, Note_on_c, 0, 60, 0
2, 62164, Control_c, 0, 1, 121
2, 62176, Control_c, 0, 1, 33
2, 62184, Control_c, 0, 1, 2
2, 62192, Control_c, 0, 1, 0
2, 63120, Pitch_bend_c, 0, 7723
2, 63132, Pitch_bend_c, 0, 8192
2, 64404, Pitch_bend_c, 0, 8074
2, 64412, Pitch_bend_c, 0, 7489
2, 64416, Pitch_bend_c, 0, 6319
2, 64428, Pitch_bend_c, 0, 5032
2, 64440, Pitch_bend_c, 0, 3862
2, 64444, Pitch_bend_c, 0, 2809
2, 64456, Pitch_bend_c, 0, 1639
2, 64460, Pitch_bend_c, 0, 820
2, 64472, Pitch_bend_c, 0, 118
2, 64484, Pitch_bend_c, 0, 0
2, 64508, Note_on_c, 0, 64, 104
2, 64532, Pitch_bend_c, 0, 703
2, 64544, Pitch_bend_c, 0, 1990
2, 64552, Pitch_bend_c, 0, 3862
2, 64560, Pitch_bend_c, 0, 6202
2, 64572, Pitch_bend_c, 0, 8192
2, 64656, Note_on_c, 0, 64, 0
2, 64708, Note_on_c, 0, 64, 106
2, 65148, Note_on_c, 0, 64, 0
2, 65208, Pitch_bend_c, 0, 6904
2, 65220, Pitch_bend_c, 0, 5383
2, 65232, Pitch_bend_c, 0, 4096
2, 65236, Pitch_bend_c, 0, 2926
2, 65248, Pitch_bend_c, 0, 1990
2, 65252, Pitch_bend_c, 0, 1171
2, 65264, Pitch_bend_c, 0, 586
2, 65268, Pitch_bend_c, 0, 118
2, 65276, Note_on_c, 0, 64, 104
2, 65296, Pitch_bend_c, 0, 586
2, 65308, Pitch_bend_c, 0, 1522
2, 65312, Pitch_bend_c, 0, 3160
2, 65324, Pitch_bend_c, 0, 5734
2, 65328, Pitch_bend_c, 0, 8192
2, 65376, Note_on_c, 0, 64, 0
2, 65476, Note_on_c, 0, 64, 102
2, 65724, Note_on_c, 0, 64, 0
2, 65860, Note_on_c, 0, 67, 106
2, 66056, Pitch_bend_c, 0, 11234
2, 66060, Pitch_bend_c, 0, 14159
2, 66068, Pitch_bend_c, 0, 16382
2, 66212, Pitch_bend_c, 0, 16148
2, 66220, Pitch_bend_c, 0, 15914
2, 66232, Pitch_bend_c, 0, 14627
2, 66236, Pitch_bend_c, 0, 12755
2, 66244, Pitch_bend_c, 0, 9947
2, 66256, Pitch_bend_c, 0, 8192
2, 66320, Note_on_c, 0, 67, 0
2, 66428, Note_on_c, 0, 67, 104
2, 66668, Note_on_c, 0, 67, 0
2, 66812, Note_on_c, 0, 64, 90
2, 66916, Note_on_c, 0, 64, 0
2, 67004, Note_on_c, 0, 62, 102
2, 67212, Pitch_bend_c, 0, 10415
2, 67224, Pitch_bend_c, 0, 13106
2, 67228, Pitch_bend_c, 0, 15212
2, 67240, Pitch_bend_c, 0, 16383
2, 67332, Pitch_bend_c, 0, 16382
2, 67352, Note_on_c, 0, 62, 0
2, 67356, Pitch_bend_c, 0, 15095
2, 67360, Pitch_bend_c, 0, 11936
2, 67372, Pitch_bend_c, 0, 8192
2, 67392, Note_on_c, 0, 62, 95
2, 67608, Pitch_bend_c, 0, 9947
2, 67620, Pitch_bend_c, 0, 13340
2, 67624, Pitch_bend_c, 0, 15914
2, 67636, Pitch_bend_c, 0, 16382
2, 67844, Pitch_bend_c, 0, 16265
2, 67860, Pitch_bend_c, 0, 16031
2, 67868, Note_on_c, 0, 62, 0
2, 67872, Pitch_bend_c, 0, 15329
2, 67880, Pitch_bend_c, 0, 14159
2, 67888, Pitch_bend_c, 0, 12287
2, 67900, Pitch_bend_c, 0, 9830
2, 67904, Pitch_bend_c, 0, 8192
2, 67968, Note_on_c, 0, 62, 106
2, 68192, Pitch_bend_c, 0, 6085
2, 68196, Pitch_bend_c, 0, 3043
2, 68204, Pitch_bend_c, 0, 0
2, 68840, Note_on_c, 0, 62, 0
2, 68884, Pitch_bend_c, 0, 1
2, 68892, Pitch_bend_c, 0, 2341
2, 68900, Pitch_bend_c, 0, 5266
2, 68908, Pitch_bend_c, 0, 8192
2, 70272, Note_on_c, 0, 64, 100
2, 70460, Note_on_c, 0, 63, 97
2, 70464, Note_on_c, 0, 64, 0
2, 70576, Pitch_bend_c, 0, 7372
2, 70584, Pitch_bend_c, 0, 5734
2, 70596, Pitch_bend_c, 0, 4096
2, 70600, Note_on_c, 0, 63, 0
2, 70600, Pitch_bend_c, 0, 2458
2, 70612, Pitch_bend_c, 0, 1171
2, 70616, Pitch_bend_c, 0, 235
2, 70628, Pitch_bend_c, 0, 0
2, 70652, Pitch_bend_c, 0, 1
2, 70660, Pitch_bend_c, 0, 1054
2, 70660, Note_on_c, 0, 64, 102
2, 70672, Pitch_bend_c, 0, 2575
2, 70684, Pitch_bend_c, 0, 4447
2, 70688, Pitch_bend_c, 0, 6787
2, 70700, Pitch_bend_c, 0, 8192
2, 70764, Note_on_c, 0, 64, 0
2, 70848, Note_on_c, 0, 64, 100
2, 71280, Note_on_c, 0, 64, 0
2, 71420, Note_on_c, 0, 64, 98
2, 71616, Note_on_c, 0, 55, 100
2, 71624, Note_on_c, 0, 64, 0
2, 71804, Note_on_c, 0, 55, 0
2, 72004, Note_on_c, 0, 63, 91
2, 72100, Note_on_c, 0, 64, 95
2, 72120, Note_on_c, 0, 63, 0
2, 72396, Pitch_bend_c, 0, 6319
2, 72404, Pitch_bend_c, 0, 3277
2, 72412, Pitch_bend_c, 0, 937
2, 72420, Pitch_bend_c, 0, 0
2, 72476, Note_on_c, 0, 64, 0
2, 72512, Pitch_bend_c, 0, 820
2, 72516, Pitch_bend_c, 0, 3160
2, 72528, Pitch_bend_c, 0, 6319
2, 72532, Pitch_bend_c, 0, 8192
2, 72576, Note_on_c, 0, 62, 90
2, 72748, Pitch_bend_c, 0, 7957
2, 72756, Pitch_bend_c, 0, 4096
2, 72764, Pitch_bend_c, 0, 352
2, 72772, Pitch_bend_c, 0, 0
2, 72824, Note_on_c, 0, 62, 0
2, 72876, Pitch_bend_c, 0, 1054
2, 72888, Pitch_bend_c, 0, 3979
2, 72892, Pitch_bend_c, 0, 8074
2, 72904, Pitch_bend_c, 0, 8192
2, 72960, Note_on_c, 0, 60, 90
2, 73148, Note_on_c, 0, 55, 95
2, 73156, Note_on_c, 0, 60, 0
2, 73384, Note_on_c, 0, 55, 0
2, 73532, Note_on_c, 0, 57, 102
2, 73724, Pitch_bend_c, 0, 11000
2, 73732, Pitch_bend_c, 0, 14159
2, 73740, Pitch_bend_c, 0, 16383
2, 73800, Pitch_bend_c, 0, 16382
2, 73872, Pitch_bend_c, 0, 16265
2, 73892, Pitch_bend_c, 0, 15680
2, 73896, Pitch_bend_c, 0, 13808
2, 73908, Pitch_bend_c, 0, 10415
2, 73912, Pitch_bend_c, 0, 8192
2, 74112, Control_c, 0, 1, 58
2, 74124, Control_c, 0, 1, 114
2, 74128, Control_c, 0, 1, 127
2, 74316, Control_c, 0, 1, 125
2, 74328, Control_c, 0, 1, 18
2, 74340, Control_c, 0, 1, 1
2, 74344, Control_c, 0, 1, 0
2, 74356, Note_on_c, 0, 57, 0
2, 76748, Pitch_bend_c, 0, 7372
2, 76760, Pitch_bend_c, 0, 5968
2, 76764, Pitch_bend_c, 0, 4447
2, 76776, Pitch_bend_c, 0, 3277
2, 76780, Pitch_bend_c, 0, 1873
2, 76792, Pitch_bend_c, 0, 469
2, 76796, Note_on_c, 0, 64, 104
2, 76800, Pitch_bend_c, 0, 0
2, 76832, Pitch_bend_c, 0, 1405
2, 76844, Pitch_bend_c, 0, 3511
2, 76848, Pitch_bend_c, 0, 6202
2, 76860, Pitch_bend_c, 0, 8192
2, 77076, Note_on_c, 0, 64, 0
2, 77184, Note_on_c, 0, 64, 98
2, 77296, Note_on_c, 0, 64, 0
2, 77332, Pitch_bend_c, 0, 7606
2, 77340, Pitch_bend_c, 0, 5968
2, 77348, Pitch_bend_c, 0, 4330
2, 77356, Pitch_bend_c, 0, 2809
2, 77364, Pitch_bend_c, 0, 1639
2, 77376, Pitch_bend_c, 0, 820
2, 77376, Note_on_c, 0, 64, 100
2, 77388, Pitch_bend_c, 0, 469
2, 77404, Pitch_bend_c, 0, 1171
2, 77408, Pitch_bend_c, 0, 2341
2, 77420, Pitch_bend_c, 0, 4330
2, 77424, Pitch_bend_c, 0, 7489
2, 77440, Pitch_bend_c, 0, 8192
2, 77676, Note_on_c, 0, 64, 0
2, 77760, Note_on_c, 0, 64, 97
2, 77992, Note_on_c, 0, 64, 0
2, 78052, Pitch_bend_c, 0, 7606
2, 78064, Pitch_bend_c, 0, 5968
2, 78076, Pitch_bend_c, 0, 4213
2, 78076, Pitch_bend_c, 0, 2575
2, 78084, Pitch_bend_c, 0, 937
2, 78096, Pitch_bend_c, 0, 0
2, 78104, Pitch_bend_c, 0, 1171
2, 78108, Pitch_bend_c, 0, 3394
2, 78116, Pitch_bend_c, 0, 6202
2, 78132, Pitch_bend_c, 0, 8192
2, 78148, Note_on_c, 0, 69, 112
2, 78596, Note_on_c, 0, 69, 0
2, 78704, Note_on_c, 0, 67, 104
2, 79104, Note_on_c, 0, 64, 108
2, 79112, Note_on_c, 0, 67, 0
2, 79388, Note_on_c, 0, 64, 0
2, 79420, Pitch_bend_c, 0, 7840
2, 79424, Pitch_bend_c, 0, 5968
2, 79436, Pitch_bend_c, 0, 3745
2, 79448, Pitch_bend_c, 0, 1405
2, 79452, Pitch_bend_c, 0, 0
2, 79484, Note_on_c, 0, 64, 100
2, 79512, Pitch_bend_c, 0, 352
2, 79520, Pitch_bend_c, 0, 2458
2, 79532, Pitch_bend_c, 0, 5500
2, 79544, Pitch_bend_c, 0, 8192
2, 79684, Note_on_c, 0, 64, 0
2, 79876, Note_on_c, 0, 64, 94
2, 79964, Note_on_c, 0, 62, 108
2, 79968, Note_on_c, 0, 64, 0
2, 80044, Pitch_bend_c, 0, 8074
2, 80052, Pitch_bend_c, 0, 4447
2, 80060, Pitch_bend_c, 0, 352
2, 80068, Pitch_bend_c, 0, 0
2, 80520, Note_on_c, 0, 62, 0
2, 80592, Pitch_bend_c, 0, 2458
2, 80600, Pitch_bend_c, 0, 8074
2, 80612, Pitch_bend_c, 0, 8192
2, 82560, Note_on_c, 0, 64, 112
2, 82752, Note_on_c, 0, 64, 0
2, 82936, Note_on_c, 0, 64, 104
2, 83036, Note_on_c, 0, 62, 112
2, 83040, Note_on_c, 0, 64, 0
2, 83116, Pitch_bend_c, 0, 7138
2, 83124, Pitch_bend_c, 0, 3628
2, 83132, Pitch_bend_c, 0, 1
2, 83152, Pitch_bend_c, 0, 0
2, 83648, Note_on_c, 0, 62, 0
2, 83676, Pitch_bend_c, 0, 1990
2, 83684, Pitch_bend_c, 0, 6904
2, 83692, Pitch_bend_c, 0, 8192
2, 95528, Pitch_bend_c, 0, 7606
2, 95536, Pitch_bend_c, 0, 6904
2, 95544, Pitch_bend_c, 0, 6085
2, 95552, Pitch_bend_c, 0, 5266
2, 95556, Pitch_bend_c, 0, 4330
2, 95568, Pitch_bend_c, 0, 3628
2, 95576, Pitch_bend_c, 0, 3043
2, 95580, Pitch_bend_c, 0, 2458
2, 95592, Pitch_bend_c, 0, 1990
2, 95596, Pitch_bend_c, 0, 1873
2, 95612, Note_on_c, 0, 57, 106
2, 95616, Pitch_bend_c, 0, 2107
2, 95620, Pitch_bend_c, 0, 2809
2, 95628, Pitch_bend_c, 0, 3862
2, 95640, Pitch_bend_c, 0, 5149
2, 95644, Pitch_bend_c, 0, 6787
2, 95652, Pitch_bend_c, 0, 8192
2, 96004, Note_on_c, 0, 60, 98
2, 96040, Note_on_c, 0, 57, 0
2, 96196, Note_on_c, 0, 60, 0
2, 96196, Note_on_c, 0, 62, 86
2, 96400, Note_on_c, 0, 62, 0
2, 96572, Note_on_c, 0, 62, 108
2, 96780, Pitch_bend_c, 0, 11000
2, 96784, Pitch_bend_c, 0, 14627
2, 96792, Pitch_bend_c, 0, 16383
2, 96976, Pitch_bend_c, 0, 16265
2, 96988, Pitch_bend_c, 0, 15563
2, 96992, Pitch_bend_c, 0, 13457
2, 97000, Pitch_bend_c, 0, 10415
2, 97008, Pitch_bend_c, 0, 8192
2, 97096, Note_on_c, 0, 62, 0
2, 97156, Note_on_c, 0, 62, 87
2, 97336, Note_on_c, 0, 62, 0
2, 97344, Note_on_c, 0, 60, 92
2, 97724, Note_on_c, 0, 57, 65
2, 97728, Note_on_c, 0, 60, 0
2, 97916, Note_on_c, 0, 57, 0
2, 97916, Note_on_c, 0, 60, 95
2, 98300, Note_on_c, 0, 60, 0
2, 98684, Note_on_c, 0, 57, 94
2, 98876, Note_on_c, 0, 60, 85
2, 98888, Note_on_c, 0, 57, 0
2, 99248, Note_on_c, 0, 60, 0
2, 99256, Note_on_c, 0, 57, 78
2, 99444, Note_on_c, 0, 57, 0
2, 99448, Note_on_c, 0, 60, 95
2, 99644, Pitch_bend_c, 0, 8309
2, 99652, Pitch_bend_c, 0, 11000
2, 99660, Pitch_bend_c, 0, 13574
2, 99672, Pitch_bend_c, 0, 16148
2, 99676, Pitch_bend_c, 0, 16383
2, 99860, Pitch_bend_c, 0, 16265
2, 99940, Pitch_bend_c, 0, 16148
2, 99964, Pitch_bend_c, 0, 15914
2, 99972, Pitch_bend_c, 0, 15797
2, 99980, Pitch_bend_c, 0, 15446
2, 99988, Pitch_bend_c, 0, 15095
2, 99996, Pitch_bend_c, 0, 14744
2, 100008, Pitch_bend_c, 0, 14276
2, 100012, Pitch_bend_c, 0, 13808
2, 100020, Pitch_bend_c, 0, 13457
2, 100028, Pitch_bend_c, 0, 12989
2, 100040, Pitch_bend_c, 0, 12404
2, 100048, Pitch_bend_c, 0, 11936
2, 100056, Pitch_bend_c, 0, 11351
2, 100060, Pitch_bend_c, 0, 10766
2, 100072, Pitch_bend_c, 0, 10298
2, 100080, Pitch_bend_c, 0, 9947
2, 100088, Pitch_bend_c, 0, 9596
2, 100096, Pitch_bend_c, 0, 9245
2, 100108, Pitch_bend_c, 0, 8894
2, 100124, Pitch_bend_c, 0, 8543
2, 100128, Pitch_bend_c, 0, 8309
2, 100140, Pitch_bend_c, 0, 8192
2, 100188, Note_on_c, 0, 60, 0
2, 100216, Note_on_c, 0, 57, 94
2, 101008, Note_on_c, 0, 57, 0
2, 101756, Note_on_c, 0, 57, 94
2, 101972, Note_on_c, 0, 57, 0
2, 102140, Note_on_c, 0, 60, 95
2, 102348, Pitch_bend_c, 0, 11468
2, 102364, Pitch_bend_c, 0, 15680
2, 102372, Pitch_bend_c, 0, 16383
2, 102448, Pitch_bend_c, 0, 16265
2, 102512, Pitch_bend_c, 0, 16031
2, 102528, Pitch_bend_c, 0, 14744
2, 102532, Note_on_c, 0, 60, 0
2, 102532, Pitch_bend_c, 0, 11936
2, 102548, Pitch_bend_c, 0, 8309
2, 102556, Pitch_bend_c, 0, 8192
2, 102708, Note_on_c, 0, 62, 90
2, 102904, Pitch_bend_c, 0, 12170
2, 102912, Pitch_bend_c, 0, 16382
2, 102932, Pitch_bend_c, 0, 16383
2, 102988, Pitch_bend_c, 0, 16382
2, 103088, Pitch_bend_c, 0, 16148
2, 103104, Pitch_bend_c, 0, 15680
2, 103108, Pitch_bend_c, 0, 13340
2, 103124, Pitch_bend_c, 0, 8894
2, 103132, Pitch_bend_c, 0, 8192
2, 103532, Note_on_c, 0, 62, 0
2, 103676, Note_on_c, 0, 59, 84
2, 103868, Note_on_c, 0, 55, 91
2, 103964, Note_on_c, 0, 59, 0
2, 104276, Pitch_bend_c, 0, 9128
2, 104284, Pitch_bend_c, 0, 12638
2, 104300, Pitch_bend_c, 0, 15563
2, 104316, Pitch_bend_c, 0, 16382
2, 104960, Note_on_c, 0, 55, 0
2, 105108, Pitch_bend_c, 0, 16148
2, 105120, Pitch_bend_c, 0, 15680
2, 105136, Pitch_bend_c, 0, 12404
2, 105144, Pitch_bend_c, 0, 8192
2, 107808, Pitch_bend_c, 0, 7372
2, 107812, Pitch_bend_c, 0, 6319
2, 107820, Pitch_bend_c, 0, 5266
2, 107828, Pitch_bend_c, 0, 4213
2, 107840, Pitch_bend_c, 0, 3277
2, 107844, Pitch_bend_c, 0, 2458
2, 107856, Pitch_bend_c, 0, 1522
2, 107860, Pitch_bend_c, 0, 1171
2, 107872, Pitch_bend_c, 0, 820
2, 107900, Note_on_c, 0, 69, 102
2, 107924, Pitch_bend_c, 0, 703
2, 107956, Pitch_bend_c, 0, 1405
2, 107964, Pitch_bend_c, 0, 2575
2, 107972, Pitch_bend_c, 0, 4330
2, 107980, Pitch_bend_c, 0, 6787
2, 107992, Pitch_bend_c, 0, 8192
2, 108028, Note_on_c, 0, 69, 0
2, 108096, Note_on_c, 0, 69, 100
2, 108480, Note_on_c, 0, 67, 66
2, 108500, Note_on_c, 0, 69, 0
2, 108560, Note_on_c, 0, 67, 0
2, 108616, Pitch_bend_c, 0, 6553
2, 108628, Pitch_bend_c, 0, 4564
2, 108632, Pitch_bend_c, 0, 2926
2, 108644, Pitch_bend_c, 0, 1639
2, 108652, Pitch_bend_c, 0, 1054
2, 108660, Pitch_bend_c, 0, 703
2, 108668, Note_on_c, 0, 72, 106
2, 108668, Pitch_bend_c, 0, 469
2, 108680, Pitch_bend_c, 0, 703
2, 108684, Pitch_bend_c, 0, 1522
2, 108688, Pitch_bend_c, 0, 2926
2, 108700, Pitch_bend_c, 0, 5149
2, 108712, Pitch_bend_c, 0, 7723
2, 108716, Pitch_bend_c, 0, 8192
2, 108860, Note_on_c, 0, 71, 94
2, 108876, Note_on_c, 0, 72, 0
2, 109300, Note_on_c, 0, 71, 0
2, 109332, Pitch_bend_c, 0, 7957
2, 109340, Pitch_bend_c, 0, 7138
2, 109344, Pitch_bend_c, 0, 5968
2, 109356, Pitch_bend_c, 0, 4915
2, 109360, Pitch_bend_c, 0, 3862
2, 109372, Pitch_bend_c, 0, 2926
2, 109384, Pitch_bend_c, 0, 2224
2, 109388, Pitch_bend_c, 0, 1639
2, 109416, Pitch_bend_c, 0, 1756
2, 109424, Pitch_bend_c, 0, 2458
2, 109428, Pitch_bend_c, 0, 3394
2, 109436, Note_on_c, 0, 69, 100
2, 109440, Pitch_bend_c, 0, 4798
2, 109452, Pitch_bend_c, 0, 6670
2, 109456, Pitch_bend_c, 0, 8192
2, 109552, Note_on_c, 0, 69, 0
2, 109624, Note_on_c, 0, 69, 87
2, 110016, Note_on_c, 0, 67, 92
2, 110040, Note_on_c, 0, 69, 0
2, 110264, Note_on_c, 0, 67, 0
2, 110316, Pitch_bend_c, 0, 7138
2, 110328, Pitch_bend_c, 0, 4798
2, 110336, Pitch_bend_c, 0, 2458
2, 110344, Pitch_bend_c, 0, 469
2, 110352, Pitch_bend_c, 0, 0
2, 110400, Note_on_c, 0, 64, 102
2, 110568, Pitch_bend_c, 0, 1
2, 110580, Pitch_bend_c, 0, 1873
2, 110584, Pitch_bend_c, 0, 4330
2, 110596, Pitch_bend_c, 0, 7489
2, 110600, Pitch_bend_c, 0, 8192
2, 110884, Note_on_c, 0, 64, 0
2, 110904, Pitch_bend_c, 0, 7372
2, 110916, Pitch_bend_c, 0, 5968
2, 110920, Pitch_bend_c, 0, 4096
2, 110932, Pitch_bend_c, 0, 2458
2, 110940, Pitch_bend_c, 0, 1288
2, 110948, Pitch_bend_c, 0, 352
2, 110956, Pitch_bend_c, 0, 0
2, 110972, Note_on_c, 0, 64, 88
2, 111020, Pitch_bend_c, 0, 118
2, 111032, Pitch_bend_c, 0, 1171
2, 111036, Pitch_bend_c, 0, 2575
2, 111048, Pitch_bend_c, 0, 4447
2, 111056, Pitch_bend_c, 0, 6787
2, 111064, Pitch_bend_c, 0, 8192
2, 111108, Note_on_c, 0, 64, 0
2, 111168, Note_on_c, 0, 64, 95
2, 111448, Note_on_c, 0, 64, 0
2, 111480, Pitch_bend_c, 0, 8074
2, 111492, Pitch_bend_c, 0, 6670
2, 111496, Pitch_bend_c, 0, 4798
2, 111508, Pitch_bend_c, 0, 3160
2, 111512, Pitch_bend_c, 0, 1756
2, 111524, Pitch_bend_c, 0, 820
2, 111536, Pitch_bend_c, 0, 235
2, 111540, Pitch_bend_c, 0, 1
2, 111552, Note_on_c, 0, 64, 100
2, 111564, Pitch_bend_c, 0, 469
2, 111576, Pitch_bend_c, 0, 1288
2, 111580, Pitch_bend_c, 0, 2575
2, 111592, Pitch_bend_c, 0, 4447
2, 111604, Pitch_bend_c, 0, 6553
2, 111608, Pitch_bend_c, 0, 8192
2, 111788, Note_on_c, 0, 64, 0
2, 111792, Pitch_bend_c, 0, 7489
2, 111804, Pitch_bend_c, 0, 5968
2, 111808, Pitch_bend_c, 0, 4798
2, 111816, Pitch_bend_c, 0, 3628
2, 111828, Pitch_bend_c, 0, 2458
2, 111832, Pitch_bend_c, 0, 1522
2, 111844, Pitch_bend_c, 0, 703
2, 111856, Pitch_bend_c, 0, 118
2, 111860, Pitch_bend_c, 0, 0
2, 111908, Pitch_bend_c, 0, 586
2, 111916, Pitch_bend_c, 0, 1873
2, 111928, Note_on_c, 0, 64, 97
2, 111928, Pitch_bend_c, 0, 3862
2, 111932, Pitch_bend_c, 0, 6319
2, 111944, Pitch_bend_c, 0, 8192
2, 112208, Pitch_bend_c, 0, 7957
2, 112212, Pitch_bend_c, 0, 7840
2, 112220, Pitch_bend_c, 0, 7606
2, 112228, Pitch_bend_c, 0, 7255
2, 112236, Pitch_bend_c, 0, 7021
2, 112244, Pitch_bend_c, 0, 6553
2, 112252, Pitch_bend_c, 0, 6319
2, 112260, Pitch_bend_c, 0, 5968
2, 112268, Pitch_bend_c, 0, 5734
2, 112280, Pitch_bend_c, 0, 5383
2, 112284, Pitch_bend_c, 0, 5032
2, 112296, Pitch_bend_c, 0, 4681
2, 112304, Pitch_bend_c, 0, 4447
2, 112312, Pitch_bend_c, 0, 4096
2, 112320, Pitch_bend_c, 0, 3745
2, 112328, Pitch_bend_c, 0, 3394
2, 112336, Pitch_bend_c, 0, 3043
2, 112344, Pitch_bend_c, 0, 2809
2, 112352, Pitch_bend_c, 0, 2458
2, 112364, Pitch_bend_c, 0, 2107
2, 112368, Pitch_bend_c, 0, 1873
2, 112380, Pitch_bend_c, 0, 1639
2, 112384, Pitch_bend_c, 0, 1522
2, 112396, Pitch_bend_c, 0, 1288
2, 112404, Pitch_bend_c, 0, 1054
2, 112412, Pitch_bend_c, 0, 820
2, 112436, Pitch_bend_c, 0, 1054
2, 112448, Pitch_bend_c, 0, 1756
2, 112452, Pitch_bend_c, 0, 2575
2, 112464, Pitch_bend_c, 0, 3745
2, 112472, Pitch_bend_c, 0, 5383
2, 112480, Pitch_bend_c, 0, 7606
2, 112488, Note_on_c, 0, 64, 0
2, 112488, Pitch_bend_c, 0, 8192
2, 112508, Note_on_c, 0, 57, 90
2, 112856, Control_c, 0, 1, 18
2, 112868, Control_c, 0, 1, 68
2, 112872, Control_c, 0, 1, 104
2, 112884, Control_c, 0, 1, 118
2, 112900, Control_c, 0, 1, 125
2, 112916, Control_c, 0, 1, 127
2, 113036, Control_c, 0, 1, 95
2, 113040, Control_c, 0, 1, 17
2, 113052, Control_c, 0, 1, 1
2, 113056, Control_c, 0, 1, 0
2, 113076, Note_on_c, 0, 57, 0
2, 113372, Pitch_bend_c, 0, 7489
2, 113384, Pitch_bend_c, 0, 6553
2, 113400, Pitch_bend_c, 0, 5266
2, 113408, Pitch_bend_c, 0, 3394
2, 113416, Pitch_bend_c, 0, 1639
2, 113432, Pitch_bend_c, 0, 118
2, 113448, Pitch_bend_c, 0, 0
2, 113652, Note_on_c, 0, 64, 100
2, 113664, Pitch_bend_c, 0, 118
2, 113676, Pitch_bend_c, 0, 1639
2, 113692, Pitch_bend_c, 0, 3979
2, 113708, Pitch_bend_c, 0, 7138
2, 113716, Pitch_bend_c, 0, 8192
2, 113848, Pitch_bend_c, 0, 7138
2, 113860, Pitch_bend_c, 0, 4213
2, 113876, Pitch_bend_c, 0, 1639
2, 113884, Pitch_bend_c, 0, 0
2, 114000, Pitch_bend_c, 0, 118
2, 114008, Pitch_bend_c, 0, 2458
2, 114024, Pitch_bend_c, 0, 5968
2, 114040, Pitch_bend_c, 0, 8192
2, 114044, Note_on_c, 0, 62, 88
2, 114084, Note_on_c, 0, 64, 0
2, 114284, Note_on_c, 0, 62, 0
2, 114428, Note_on_c, 0, 60, 90
2, 114688, Note_on_c, 0, 60, 0
2, 114808, Note_on_c, 0, 57, 79
2, 114884, Note_on_c, 0, 57, 0
2, 114920, Pitch_bend_c, 0, 8074
2, 114928, Pitch_bend_c, 0, 6085
2, 114936, Pitch_bend_c, 0, 3277
2, 114952, Pitch_bend_c, 0, 703
2, 114968, Pitch_bend_c, 0, 0
2, 115004, Note_on_c, 0, 64, 104
2, 115076, Pitch_bend_c, 0, 703
2, 115092, Pitch_bend_c, 0, 3628
2, 115100, Pitch_bend_c, 0, 7606
2, 115112, Pitch_bend_c, 0, 8192
2, 115376, Pitch_bend_c, 0, 6670
2, 115384, Pitch_bend_c, 0, 3862
2, 115392, Pitch_bend_c, 0, 1054
2, 115404, Pitch_bend_c, 0, 0
2, 115528, Pitch_bend_c, 0, 235
2, 115544, Pitch_bend_c, 0, 3160
2, 115548, Note_on_c, 0, 64, 0
2, 115560, Pitch_bend_c, 0, 7489
2, 115568, Pitch_bend_c, 0, 8192
2, 115576, Note_on_c, 0, 62, 92
2, 115844, Note_on_c, 0, 62, 0
2, 115964, Note_on_c, 0, 60, 91
2, 116132, Note_on_c, 0, 60, 0
2, 116344, Note_on_c, 0, 55, 76
2, 116428, Note_on_c, 0, 55, 0
2, 116540, Note_on_c, 0, 57, 92
2, 117008, Control_c, 0, 1, 3
2, 117016, Control_c, 0, 1, 60
2, 117028, Control_c, 0, 1, 98
2, 117028, Control_c, 0, 1, 114
2, 117040, Control_c, 0, 1, 121
2, 117052, Control_c, 0, 1, 127
2, 117140, Control_c, 0, 1, 1
2, 117148, Control_c, 0, 1, 39
2, 117160, Control_c, 0, 1, 121
2, 117164, Control_c, 0, 1, 79
2, 117168, Control_c, 0, 1, 17
2, 117172, Control_c, 0, 1, 92
2, 117180, Control_c, 0, 1, 1
2, 117180, Control_c, 0, 1, 111
2, 117184, Control_c, 0, 1, 0
2, 117196, Control_c, 0, 1, 114
2, 117212, Control_c, 0, 1, 125
2, 117232, Control_c, 0, 1, 127
2, 117348, Control_c, 0, 1, 95
2, 117356, Control_c, 0, 1, 29
2, 117360, Note_on_c, 0, 57, 0
2, 117372, Control_c, 0, 1, 1
2, 117380, Control_c, 0, 1, 0
2, 117588, Pitch_bend_c, 0, 7138
2, 117600, Pitch_bend_c, 0, 5383
2, 117608, Pitch_bend_c, 0, 3745
2, 117620, Pitch_bend_c, 0, 2458
2, 117632, Pitch_bend_c, 0, 1288
2, 117644, Pitch_bend_c, 0, 235
2, 117644, Pitch_bend_c, 0, 0
2, 117660, Pitch_bend_c, 0, 1
2, 117692, Note_on_c, 0, 55, 94
2, 117692, Pitch_bend_c, 0, 1756
2, 117704, Pitch_bend_c, 0, 4096
2, 117712, Pitch_bend_c, 0, 7021
2, 117724, Pitch_bend_c, 0, 8192
2, 117792, Note_on_c, 0, 55, 0
2, 117888, Note_on_c, 0, 55, 104
2, 118064, Note_on_c, 0, 55, 0
2, 118064, Note_on_c, 0, 62, 106
2, 118296, Pitch_bend_c, 0, 10649
2, 118308, Pitch_bend_c, 0, 13574
2, 118312, Pitch_bend_c, 0, 15914
2, 118324, Pitch_bend_c, 0, 16265
2, 118452, Pitch_bend_c, 0, 15914
2, 118464, Pitch_bend_c, 0, 14393
2, 118472, Pitch_bend_c, 0, 11000
2, 118480, Pitch_bend_c, 0, 8192
2, 118576, Note_on_c, 0, 62, 0
2, 118648, Note_on_c, 0, 62, 97
2, 118844, Pitch_bend_c, 0, 6670
2, 118852, Pitch_bend_c, 0, 2692
2, 118864, Pitch_bend_c, 0, 0
2, 118948, Note_on_c, 0, 62, 0
2, 118980, Pitch_bend_c, 0, 1522
2, 118992, Pitch_bend_c, 0, 4096
2, 119000, Pitch_bend_c, 0, 7489
2, 119000, Pitch_bend_c, 0, 8192
2, 119040, Note_on_c, 0, 60, 97
2, 119308, Note_on_c, 0, 60, 0
2, 119416, Note_on_c, 0, 60, 87
2, 119584, Note_on_c, 0, 60, 0
2, 119584, Note_on_c, 0, 57, 61
2, 119716, Note_on_c, 0, 57, 0
2, 119804, Note_on_c, 0, 60, 104
2, 120008, Pitch_bend_c, 0, 9011
2, 120020, Pitch_bend_c, 0, 11702
2, 120032, Pitch_bend_c, 0, 14042
2, 120032, Pitch_bend_c, 0, 16148
2, 120040, Pitch_bend_c, 0, 16382
2, 120192, Pitch_bend_c, 0, 8192
2, 120192, Note_on_c, 0, 60, 104
2, 120280, Note_on_c, 0, 60, 0
2, 120300, Note_on_c, 0, 60, 0
2, 120564, Note_on_c, 0, 60, 97
2, 120852, Note_on_c, 0, 60, 0
2, 120960, Note_on_c, 0, 62, 100
2, 121048, Note_on_c, 0, 62, 0
2, 121120, Pitch_bend_c, 0, 5968
2, 121120, Pitch_bend_c, 0, 3394
2, 121132, Pitch_bend_c, 0, 1171
2, 121144, Pitch_bend_c, 0, 0
2, 121152, Note_on_c, 0, 62, 100
2, 121176, Pitch_bend_c, 0, 469
2, 121188, Pitch_bend_c, 0, 3394
2, 121196, Pitch_bend_c, 0, 7372
2, 121196, Pitch_bend_c, 0, 8192
2, 121516, Pitch_bend_c, 0, 5500
2, 121528, Pitch_bend_c, 0, 1171
2, 121532, Pitch_bend_c, 0, 0
2, 121904, Note_on_c, 0, 62, 0
2, 121948, Pitch_bend_c, 0, 2575
2, 121956, Pitch_bend_c, 0, 7021
2, 121968, Pitch_bend_c, 0, 8192
2, 122300, Note_on_c, 0, 55, 80
2, 122388, Note_on_c, 0, 55, 0
2, 122492, Note_on_c, 0, 55, 106
2, 122668, Note_on_c, 0, 62, 110
2, 122680, Note_on_c, 0, 55, 0
2, 122872, Pitch_bend_c, 0, 8777
2, 122888, Pitch_bend_c, 0, 12404
2, 122892, Pitch_bend_c, 0, 15212
2, 122900, Pitch_bend_c, 0, 16383
2, 123036, Pitch_bend_c, 0, 16382
2, 123048, Pitch_bend_c, 0, 16265
2, 123060, Pitch_bend_c, 0, 15680
2, 123068, Pitch_bend_c, 0, 14276
2, 123076, Pitch_bend_c, 0, 12053
2, 123084, Pitch_bend_c, 0, 8543
2, 123096, Pitch_bend_c, 0, 8192
2, 123184, Note_on_c, 0, 62, 0
2, 123268, Note_on_c, 0, 62, 102
2, 123580, Note_on_c, 0, 62, 0
2, 123652, Note_on_c, 0, 60, 91
2, 123932, Note_on_c, 0, 60, 0
2, 124048, Note_on_c, 0, 62, 98
2, 124224, Note_on_c, 0, 62, 0
2, 124236, Note_on_c, 0, 64, 90
2, 124328, Note_on_c, 0, 64, 0
2, 124424, Note_on_c, 0, 62, 106
2, 124528, Note_on_c, 0, 62, 0
2, 124592, Note_on_c, 0, 62, 98
2, 124780, Note_on_c, 0, 60, 83
2, 124796, Note_on_c, 0, 62, 0
2, 124964, Note_on_c, 0, 57, 45
2, 124972, Note_on_c, 0, 60, 0
2, 125088, Note_on_c, 0, 57, 0
2, 125188, Note_on_c, 0, 60, 104
2, 125288, Note_on_c, 0, 60, 0
2, 125376, Note_on_c, 0, 60, 100
2, 125464, Note_on_c, 0, 60, 0
2, 125568, Note_on_c, 0, 60, 97
2, 125772, Pitch_bend_c, 0, 9245
2, 125784, Pitch_bend_c, 0, 12404
2, 125792, Pitch_bend_c, 0, 14627
2, 125804, Pitch_bend_c, 0, 16148
2, 125804, Pitch_bend_c, 0, 16382
2, 125944, Pitch_bend_c, 0, 16148
2, 125948, Pitch_bend_c, 0, 15095
2, 125960, Pitch_bend_c, 0, 11351
2, 125968, Pitch_bend_c, 0, 8192
2, 126332, Control_c, 0, 1, 52
2, 126340, Control_c, 0, 1, 118
2, 126348, Control_c, 0, 1, 125
2, 126360, Control_c, 0, 1, 127
2, 126400, Control_c, 0, 1, 125
2, 126412, Control_c, 0, 1, 66
2, 126420, Note_on_c, 0, 60, 0
2, 126420, Control_c, 0, 1, 7
2, 126432, Control_c, 0, 1, 0
2, 127976, Pitch_bend_c, 0, 7255
2, 127980, Pitch_bend_c, 0, 5617
2, 127992, Pitch_bend_c, 0, 3628
2, 127996, Pitch_bend_c, 0, 1639
2, 128008, Pitch_bend_c, 0, 118
2, 128020, Pitch_bend_c, 0, 0
2, 128040, Note_on_c, 0, 57, 95
2, 128064, Pitch_bend_c, 0, 820
2, 128068, Pitch_bend_c, 0, 2692
2, 128080, Pitch_bend_c, 0, 5266
2, 128084, Pitch_bend_c, 0, 7723
2, 128096, Pitch_bend_c, 0, 8192
2, 128260, Note_on_c, 0, 60, 94
2, 128280, Note_on_c, 0, 57, 0
2, 128436, Note_on_c, 0, 60, 0
2, 128436, Note_on_c, 0, 62, 90
2, 128532, Note_on_c, 0, 62, 0
2, 128596, Pitch_bend_c, 0, 7840
2, 128608, Pitch_bend_c, 0, 5032
2, 128612, Pitch_bend_c, 0, 1990
2, 128624, Pitch_bend_c, 0, 0
2, 128636, Note_on_c, 0, 62, 110
2, 128676, Pitch_bend_c, 0, 469
2, 128684, Pitch_bend_c, 0, 3160
2, 128696, Pitch_bend_c, 0, 7021
2, 128704, Pitch_bend_c, 0, 8192
2, 129020, Pitch_bend_c, 0, 7489
2, 129028, Pitch_bend_c, 0, 3160
2, 129032, Pitch_bend_c, 0, 0
2, 129472, Note_on_c, 0, 62, 0
2, 129528, Pitch_bend_c, 0, 1873
2, 129540, Pitch_bend_c, 0, 5851
2, 129544, Pitch_bend_c, 0, 8192
2, 131008, Pitch_bend_c, 0, 7606
2, 131020, Pitch_bend_c, 0, 6553
2, 131024, Pitch_bend_c, 0, 5266
2, 131036, Pitch_bend_c, 0, 4096
2, 131044, Pitch_bend_c, 0, 3043
2, 131052, Pitch_bend_c, 0, 2341
2, 131064, Pitch_bend_c, 0, 1756
2, 131068, Pitch_bend_c, 0, 1405
2, 131096, Pitch_bend_c, 0, 1756
2, 131108, Pitch_bend_c, 0, 2575
2, 131112, Pitch_bend_c, 0, 3979
2, 131124, Pitch_bend_c, 0, 5617
2, 131128, Note_on_c, 0, 55, 91
2, 131132, Pitch_bend_c, 0, 7372
2, 131140, Pitch_bend_c, 0, 8192
2, 131332, Note_on_c, 0, 60, 98
2, 131344, Note_on_c, 0, 55, 0
2, 131444, Note_on_c, 0, 60, 0
2, 131516, Note_on_c, 0, 60, 94
2, 131604, Note_on_c, 0, 60, 0
2, 131708, Note_on_c, 0, 67, 98
2, 131820, Pitch_bend_c, 0, 10415
2, 131824, Pitch_bend_c, 0, 13574
2, 131836, Pitch_bend_c, 0, 16148
2, 131844, Pitch_bend_c, 0, 16382
2, 131880, Pitch_bend_c, 0, 16148
2, 131888, Pitch_bend_c, 0, 16031
2, 131900, Pitch_bend_c, 0, 15797
2, 131936, Pitch_bend_c, 0, 16031
2, 131968, Pitch_bend_c, 0, 16148
2, 132068, Pitch_bend_c, 0, 15212
2, 132072, Pitch_bend_c, 0, 12287
2, 132076, Pitch_bend_c, 0, 8192
2, 132412, Control_c, 0, 1, 6
2, 132424, Control_c, 0, 1, 32
2, 132428, Control_c, 0, 1, 64
2, 132440, Control_c, 0, 1, 75
2, 132452, Control_c, 0, 1, 90
2, 132456, Control_c, 0, 1, 107
2, 132468, Control_c, 0, 1, 121
2, 132480, Control_c, 0, 1, 127
2, 132528, Note_on_c, 0, 67, 0
2, 132540, Control_c, 0, 1, 118
2, 132544, Control_c, 0, 1, 35
2, 132552, Control_c, 0, 1, 2
2, 132560, Control_c, 0, 1, 0
2, 133992, Note_on_c, 0, 67, 98
2, 134404, Note_on_c, 0, 62, 74
2, 134420, Note_on_c, 0, 67, 0
2, 134508, Note_on_c, 0, 62, 0
2, 134600, Note_on_c, 0, 62, 97
2, 134660, Note_on_c, 0, 62, 0
2, 134804, Note_on_c, 0, 62, 104
2, 135172, Pitch_bend_c, 0, 7723
2, 135172, Pitch_bend_c, 0, 4096
2, 135212, Pitch_bend_c, 0, 1
2, 135220, Pitch_bend_c, 0, 0
2, 136032, Note_on_c, 0, 62, 0
2, 136104, Pitch_bend_c, 0, 820
2, 136120, Pitch_bend_c, 0, 3511
2, 136128, Pitch_bend_c, 0, 6904
2, 136148, Pitch_bend_c, 0, 8192
2, 138244, Note_on_c, 0, 64, 102
2, 138260, Pitch_bend_c, 0, 937
2, 138276, Pitch_bend_c, 0, 1405
2, 138288, Pitch_bend_c, 0, 2341
2, 138292, Pitch_bend_c, 0, 3862
2, 138304, Pitch_bend_c, 0, 6085
2, 138316, Pitch_bend_c, 0, 8192
2, 138496, Note_on_c, 0, 64, 0
2, 138620, Note_on_c, 0, 64, 106
2, 138880, Note_on_c, 0, 64, 0
2, 138920, Pitch_bend_c, 0, 7606
2, 138924, Pitch_bend_c, 0, 6670
2, 138936, Pitch_bend_c, 0, 5734
2, 138948, Pitch_bend_c, 0, 4798
2, 138952, Pitch_bend_c, 0, 3979
2, 138964, Pitch_bend_c, 0, 3277
2, 138968, Pitch_bend_c, 0, 2692
2, 138980, Pitch_bend_c, 0, 2107
2, 138992, Pitch_bend_c, 0, 1405
2, 138996, Pitch_bend_c, 0, 1171
2, 139008, Note_on_c, 0, 64, 97
2, 139024, Pitch_bend_c, 0, 1756
2, 139032, Pitch_bend_c, 0, 2575
2, 139040, Pitch_bend_c, 0, 3745
2, 139052, Pitch_bend_c, 0, 5617
2, 139056, Pitch_bend_c, 0, 7957
2, 139068, Pitch_bend_c, 0, 8192
2, 139124, Note_on_c, 0, 64, 0
2, 139200, Note_on_c, 0, 64, 100
2, 139432, Note_on_c, 0, 64, 0
2, 139516, Pitch_bend_c, 0, 7489
2, 139524, Pitch_bend_c, 0, 5968
2, 139532, Pitch_bend_c, 0, 4330
2, 139544, Pitch_bend_c, 0, 2692
2, 139552, Pitch_bend_c, 0, 1522
2, 139560, Pitch_bend_c, 0, 820
2, 139568, Pitch_bend_c, 0, 352
2, 139580, Pitch_bend_c, 0, 118
2, 139588, Note_on_c, 0, 64, 108
2, 139596, Pitch_bend_c, 0, 352
2, 139604, Pitch_bend_c, 0, 1054
2, 139612, Pitch_bend_c, 0, 2341
2, 139620, Pitch_bend_c, 0, 4564
2, 139632, Pitch_bend_c, 0, 7723
2, 139636, Pitch_bend_c, 0, 8192
2, 139964, Pitch_bend_c, 0, 7489
2, 139972, Pitch_bend_c, 0, 5266
2, 139984, Pitch_bend_c, 0, 2809
2, 139988, Pitch_bend_c, 0, 469
2, 140000, Pitch_bend_c, 0, 0
2, 140056, Note_on_c, 0, 64, 0
2, 140088, Pitch_bend_c, 0, 586
2, 140092, Pitch_bend_c, 0, 2692
2, 140104, Pitch_bend_c, 0, 5500
2, 140116, Pitch_bend_c, 0, 8192
2, 140156, Note_on_c, 0, 62, 106
2, 140340, Pitch_bend_c, 0, 5617
2, 140352, Pitch_bend_c, 0, 2224
2, 140364, Pitch_bend_c, 0, 0
2, 140464, Note_on_c, 0, 62, 0
2, 140472, Pitch_bend_c, 0, 1
2, 140484, Pitch_bend_c, 0, 1990
2, 140488, Pitch_bend_c, 0, 4564
2, 140500, Pitch_bend_c, 0, 7840
2, 140504, Pitch_bend_c, 0, 8192
2, 140548, Note_on_c, 0, 60, 83
2, 140652, Note_on_c, 0, 60, 0
2, 140736, Note_on_c, 0, 60, 98
2, 140980, Note_on_c, 0, 60, 0
2, 141016, Pitch_bend_c, 0, 8074
2, 141028, Pitch_bend_c, 0, 6436
2, 141040, Pitch_bend_c, 0, 4447
2, 141044, Pitch_bend_c, 0, 2458
2, 141052, Pitch_bend_c, 0, 469
2, 141060, Pitch_bend_c, 0, 0
2, 141116, Note_on_c, 0, 60, 102
2, 141132, Pitch_bend_c, 0, 1054
2, 141144, Pitch_bend_c, 0, 3979
2, 141148, Pitch_bend_c, 0, 7606
2, 141160, Pitch_bend_c, 0, 8192
2, 141324, Pitch_bend_c, 0, 9947
2, 141324, Pitch_bend_c, 0, 12872
2, 141336, Pitch_bend_c, 0, 15563
2, 141340, Pitch_bend_c, 0, 16382
2, 141464, Pitch_bend_c, 0, 16265
2, 141492, Pitch_bend_c, 0, 15446
2, 141500, Pitch_bend_c, 0, 13574
2, 141508, Pitch_bend_c, 0, 10532
2, 141520, Pitch_bend_c, 0, 8192
2, 141640, Note_on_c, 0, 60, 0
2, 141696, Note_on_c, 0, 60, 97
2, 141932, Control_c, 0, 1, 64
2, 141940, Control_c, 0, 1, 125
2, 141948, Control_c, 0, 1, 127
2, 142012, Note_on_c, 0, 60, 0
2, 142036, Control_c, 0, 1, 121
2, 142048, Control_c, 0, 1, 33
2, 142056, Control_c, 0, 1, 2
2, 142064, Control_c, 0, 1, 0
2, 142992, Pitch_bend_c, 0, 7723
2, 143004, Pitch_bend_c, 0, 8192
2, 144276, Pitch_bend_c, 0, 8074
2, 144284, Pitch_bend_c, 0, 7489
2, 144288, Pitch_bend_c, 0, 6319
2, 144300, Pitch_bend_c, 0, 5032
2, 144312, Pitch_bend_c, 0, 3862
2, 144316, Pitch_bend_c, 0, 2809
2, 144328, Pitch_bend_c, 0, 1639
2, 144332, Pitch_bend_c, 0, 820
2, 144344, Pitch_bend_c, 0, 118
2, 144356, Pitch_bend_c, 0, 0
2, 144380, Note_on_c, 0, 64, 104
2, 144404, Pitch_bend_c, 0, 703
2, 144416, Pitch_bend_c, 0, 1990
2, 144424, Pitch_bend_c, 0, 3862
2, 144432, Pitch_bend_c, 0, 6202
2, 144444, Pitch_bend_c, 0, 8192
2, 144528, Note_on_c, 0, 64, 0
2, 144580, Note_on_c, 0, 64, 106
2, 145020, Note_on_c, 0, 64, 0
2, 145080, Pitch_bend_c, 0, 6904
2, 145092, Pitch_bend_c, 0, 5383
2, 145104, Pitch_bend_c, 0, 4096
2, 145108, Pitch_bend_c, 0, 2926
2, 145120, Pitch_bend_c, 0, 1990
2, 145124, Pitch_bend_c, 0, 1171
2, 145136, Pitch_bend_c, 0, 586
2, 145140, Pitch_bend_c, 0, 118
2, 145148, Note_on_c, 0, 64, 104
2, 145168, Pitch_bend_c, 0, 586
2, 145180, Pitch_bend_c, 0, 1522
2, 145184, Pitch_bend_c, 0, 3160
2, 145196, Pitch_bend_c, 0, 5734
2, 145200, Pitch_bend_c, 0, 8192
2, 145248, Note_on_c, 0, 64, 0
2, 145348, Note_on_c, 0, 64, 102
2, 145596, Note_on_c, 0, 64, 0
2, 145732, Note_on_c, 0, 67, 106
2, 145928, Pitch_bend_c, 0, 11234
2, 145932, Pitch_bend_c, 0, 14159
2, 145940, Pitch_bend_c, 0, 16382
2, 146084, Pitch_bend_c, 0, 16148
2, 146092, Pitch_bend_c, 0, 15914
2, 146104, Pitch_bend_c, 0, 14627
2, 146108, Pitch_bend_c, 0, 12755
2, 146116, Pitch_bend_c, 0, 9947
2, 146128, Pitch_bend_c, 0, 8192
2, 146192, Note_on_c, 0, 67, 0
2, 146300, Note_on_c, 0, 67, 104
2, 146540, Note_on_c, 0, 67, 0
2, 146684, Note_on_c, 0, 64, 90
2, 146788, Note_on_c, 0, 64, 0
2, 146876, Note_on_c, 0, 62, 102
2, 147084, Pitch_bend_c, 0, 10415
2, 147096, Pitch_bend_c, 0, 13106
2, 147100, Pitch_bend_c, 0, 15212
2, 147112, Pitch_bend_c, 0, 16383
2, 147204, Pitch_bend_c, 0, 16382
2, 147224, Note_on_c, 0, 62, 0
2, 147228, Pitch_bend_c, 0, 15095
2, 147232, Pitch_bend_c, 0, 11936
2, 147244, Pitch_bend_c, 0, 8192
2, 147264, Note_on_c, 0, 62, 95
2, 147480, Pitch_bend_c, 0, 9947
2, 147492, Pitch_bend_c, 0, 13340
2, 147496, Pitch_bend_c, 0, 15914
2, 147508, Pitch_bend_c, 0, 16382
2, 147716, Pitch_bend_c, 0, 16265
2, 147732, Pitch_bend_c, 0, 16031
2, 147740, Note_on_c, 0, 62, 0
2, 147744, Pitch_bend_c, 0, 15329
2, 147752, Pitch_bend_c, 0, 14159
2, 147760, Pitch_bend_c, 0, 12287
2, 147772, Pitch_bend_c, 0, 9830
2, 147776, Pitch_bend_c, 0, 8192
2, 147840, Note_on_c, 0, 62, 106
2, 148064, Pitch_bend_c, 0, 6085
2, 148068, Pitch_bend_c, 0, 3043
2, 148076, Pitch_bend_c, 0, 0
2, 148712, Note_on_c, 0, 62, 0
2, 148756, Pitch_bend_c, 0, 1
2, 148764, Pitch_bend_c, 0, 2341
2, 148772, Pitch_bend_c, 0, 5266
2, 148780, Pitch_bend_c, 0, 8192
2, 150524, Note_on_c, 0, 64, 102
2, 150532, Pitch_bend_c, 0, 1054
2, 150544, Pitch_bend_c, 0, 2575
2, 150556, Pitch_bend_c, 0, 4447
2, 150560, Pitch_bend_c, 0, 6787
2, 150572, Pitch_bend_c, 0, 8192
2, 150628, Note_on_c, 0, 64, 0
2, 150720, Note_on_c, 0, 64, 100
2, 151152, Note_on_c, 0, 64, 0
2, 151292, Note_on_c, 0, 64, 98
2, 151488, Note_on_c, 0, 55, 100
2, 151496, Note_on_c, 0, 64, 0
2, 151676, Note_on_c, 0, 55, 0
2, 151876, Note_on_c, 0, 63, 91
2, 151972, Note_on_c, 0, 64, 95
2, 151992, Note_on_c, 0, 63, 0
2, 152268, Pitch_bend_c, 0, 6319
2, 152276, Pitch_bend_c, 0, 3277
2, 152284, Pitch_bend_c, 0, 937
2, 152292, Pitch_bend_c, 0, 0
2, 152348, Note_on_c, 0, 64, 0
2, 152384, Pitch_bend_c, 0, 820
2, 152388, Pitch_bend_c, 0, 3160
2, 152400, Pitch_bend_c, 0, 6319
2, 152404, Pitch_bend_c, 0, 8192
2, 152448, Note_on_c, 0, 62, 90
2, 152620, Pitch_bend_c, 0, 7957
2, 152628, Pitch_bend_c, 0, 4096
2, 152636, Pitch_bend_c, 0, 352
2, 152644, Pitch_bend_c, 0, 0
2, 152696, Note_on_c, 0, 62, 0
2, 152748, Pitch_bend_c, 0, 1054
2, 152760, Pitch_bend_c, 0, 3979
2, 152764, Pitch_bend_c, 0, 8074
2, 152776, Pitch_bend_c, 0, 8192
2, 152836, Note_on_c, 0, 60, 90
2, 153020, Note_on_c, 0, 55, 95
2, 153032, Note_on_c, 0, 60, 0
2, 153256, Note_on_c, 0, 55, 0
2, 153404, Note_on_c, 0, 57, 102
2, 153596, Pitch_bend_c, 0, 11000
2, 153604, Pitch_bend_c, 0, 14159
2, 153612, Pitch_bend_c, 0, 16383
2, 153672, Pitch_bend_c, 0, 16382
2, 153744, Pitch_bend_c, 0, 16265
2, 153764, Pitch_bend_c, 0, 15680
2, 153768, Pitch_bend_c, 0, 13808
2, 153780, Pitch_bend_c, 0, 10415
2, 153784, Pitch_bend_c, 0, 8192
2, 153984, Control_c, 0, 1, 58
2, 153996, Control_c, 0, 1, 114
2, 154000, Control_c, 0, 1, 127
2, 154188, Control_c, 0, 1, 125
2, 154200, Control_c, 0, 1, 18
2, 154212, Control_c, 0, 1, 1
2, 154216, Control_c, 0, 1, 0
2, 154228, Note_on_c, 0, 57, 0
2, 156620, Pitch_bend_c, 0, 7372
2, 156632, Pitch_bend_c, 0, 5968
2, 156636, Pitch_bend_c, 0, 4447
2, 156648, Pitch_bend_c, 0, 3277
2, 156652, Pitch_bend_c, 0, 1873
2, 156664, Pitch_bend_c, 0, 469
2, 156668, Note_on_c, 0, 64, 104
2, 156672, Pitch_bend_c, 0, 0
2, 156704, Pitch_bend_c, 0, 1405
2, 156716, Pitch_bend_c, 0, 3511
2, 156720, Pitch_bend_c, 0, 6202
2, 156732, Pitch_bend_c, 0, 8192
2, 156948, Note_on_c, 0, 64, 0
2, 157056, Note_on_c, 0, 64, 98
2, 157168, Note_on_c, 0, 64, 0
2, 157204, Pitch_bend_c, 0, 7606
2, 157212, Pitch_bend_c, 0, 5968
2, 157220, Pitch_bend_c, 0, 4330
2, 157228, Pitch_bend_c, 0, 2809
2, 157236, Pitch_bend_c, 0, 1639
2, 157248, Pitch_bend_c, 0, 820
2, 157248, Note_on_c, 0, 64, 100
2, 157260, Pitch_bend_c, 0, 469
2, 157276, Pitch_bend_c, 0, 1171
2, 157280, Pitch_bend_c, 0, 2341
2, 157292, Pitch_bend_c, 0, 4330
2, 157296, Pitch_bend_c, 0, 7489
2, 157312, Pitch_bend_c, 0, 8192
2, 157548, Note_on_c, 0, 64, 0
2, 157632, Note_on_c, 0, 64, 97
2, 157864, Note_on_c, 0, 64, 0
2, 157924, Pitch_bend_c, 0, 7606
2, 157936, Pitch_bend_c, 0, 5968
2, 157948, Pitch_bend_c, 0, 4213
2, 157948, Pitch_bend_c, 0, 2575
2, 157956, Pitch_bend_c, 0, 937
2, 157968, Pitch_bend_c, 0, 0
2, 158020, Note_on_c, 0, 69, 112
2, 158032, Pitch_bend_c, 0, 1171
2, 158032, Pitch_bend_c, 0, 3394
2, 158044, Pitch_bend_c, 0, 6202
2, 158056, Pitch_bend_c, 0, 8192
2, 158340, Pitch_bend_c, 0, 5968
2, 158344, Pitch_bend_c, 0, 2458
2, 158356, Pitch_bend_c, 0, 0
2, 158416, Pitch_bend_c, 0, 703
2, 158424, Pitch_bend_c, 0, 3862
2, 158432, Pitch_bend_c, 0, 7957
2, 158440, Note_on_c, 0, 69, 0
2, 158440, Pitch_bend_c, 0, 8192
2, 158576, Note_on_c, 0, 67, 104
2, 158980, Note_on_c, 0, 64, 108
2, 158984, Note_on_c, 0, 67, 0
2, 159264, Note_on_c, 0, 64, 0
2, 159292, Pitch_bend_c, 0, 7840
2, 159296, Pitch_bend_c, 0, 5968
2, 159308, Pitch_bend_c, 0, 3745
2, 159320, Pitch_bend_c, 0, 1405
2, 159324, Pitch_bend_c, 0, 0
2, 159356, Note_on_c, 0, 64, 100
2, 159384, Pitch_bend_c, 0, 352
2, 159392, Pitch_bend_c, 0, 2458
2, 159404, Pitch_bend_c, 0, 5500
2, 159416, Pitch_bend_c, 0, 8192
2, 159556, Note_on_c, 0, 64, 0
2, 159748, Note_on_c, 0, 64, 94
2, 159836, Note_on_c, 0, 62, 108
2, 159844, Note_on_c, 0, 64, 0
2, 159916, Pitch_bend_c, 0, 8074
2, 159924, Pitch_bend_c, 0, 4447
2, 159932, Pitch_bend_c, 0, 352
2, 159940, Pitch_bend_c, 0, 0
2, 160392, Note_on_c, 0, 62, 0
2, 160464, Pitch_bend_c, 0, 2458
2, 160472, Pitch_bend_c, 0, 8074
2, 160484, Pitch_bend_c, 0, 8192
2, 162432, Note_on_c, 0, 64, 112
2, 162624, Note_on_c, 0, 64, 0
2, 162820, Note_on_c, 0, 64, 102
2, 162820, Pitch_bend_c, 0, 1756
2, 162820, Pitch_bend_c, 0, 1171
2, 162836, Pitch_bend_c, 0, 937
2, 162852, Pitch_bend_c, 0, 1405
2, 162864, Pitch_bend_c, 0, 2341
2, 162868, Pitch_bend_c, 0, 3862
2, 162880, Pitch_bend_c, 0, 6085
2, 162892, Pitch_bend_c, 0, 8192
2, 163072, Note_on_c, 0, 64, 0
2, 163196, Note_on_c, 0, 64, 106
2, 163456, Note_on_c, 0, 64, 0
2, 163496, Pitch_bend_c, 0, 7606
2, 163500, Pitch_bend_c, 0, 6670
2, 163512, Pitch_bend_c, 0, 5734
2, 163524, Pitch_bend_c, 0, 4798
2, 163528, Pitch_bend_c, 0, 3979
2, 163540, Pitch_bend_c, 0, 3277
2, 163544, Pitch_bend_c, 0, 2692
2, 163556, Pitch_bend_c, 0, 2107
2, 163568, Pitch_bend_c, 0, 1405
2, 163572, Pitch_bend_c, 0, 1171
2, 163584, Note_on_c, 0, 64, 97
2, 163600, Pitch_bend_c, 0, 1756
2, 163608, Pitch_bend_c, 0, 2575
2, 163616, Pitch_bend_c, 0, 3745
2, 163628, Pitch_bend_c, 0, 5617
2, 163632, Pitch_bend_c, 0, 7957
2, 163644, Pitch_bend_c, 0, 8192
2, 163700, Note_on_c, 0, 64, 0
2, 163776, Note_on_c, 0, 64, 100
2, 164008, Note_on_c, 0, 64, 0
2, 164092, Pitch_bend_c, 0, 7489
2, 164100, Pitch_bend_c, 0, 5968
2, 164108, Pitch_bend_c, 0, 4330
2, 164120, Pitch_bend_c, 0, 2692
2, 164128, Pitch_bend_c, 0, 1522
2, 164136, Pitch_bend_c, 0, 820
2, 164144, Pitch_bend_c, 0, 352
2, 164156, Pitch_bend_c, 0, 118
2, 164164, Note_on_c, 0, 64, 108
2, 164172, Pitch_bend_c, 0, 352
2, 164180, Pitch_bend_c, 0, 1054
2, 164188, Pitch_bend_c, 0, 2341
2, 164196, Pitch_bend_c, 0, 4564
2, 164208, Pitch_bend_c, 0, 7723
2, 164212, Pitch_bend_c, 0, 8192
2, 164540, Pitch_bend_c, 0, 7489
2, 164548, Pitch_bend_c, 0, 5266
2, 164560, Pitch_bend_c, 0, 2809
2, 164564, Pitch_bend_c, 0, 469
2, 164576, Pitch_bend_c, 0, 0
2, 164632, Note_on_c, 0, 64, 0
2, 164664, Pitch_bend_c, 0, 586
2, 164668, Pitch_bend_c, 0, 2692
2, 164680, Pitch_bend_c, 0, 5500
2, 164692, Pitch_bend_c, 0, 8192
2, 164732, Note_on_c, 0, 62, 106
2, 164916, Pitch_bend_c, 0, 5617
2, 164928, Pitch_bend_c, 0, 2224
2, 164940, Pitch_bend_c, 0, 0
2, 165040, Note_on_c, 0, 62, 0
2, 165048, Pitch_bend_c, 0, 1
2, 165060, Pitch_bend_c, 0, 1990
2, 165064, Pitch_bend_c, 0, 4564
2, 165076, Pitch_bend_c, 0, 7840
2, 165080, Pitch_bend_c, 0, 8192
2, 165124, Note_on_c, 0, 60, 83
2, 165228, Note_on_c, 0, 60, 0
2, 165312, Note_on_c, 0, 60, 98
2, 165556, Note_on_c, 0, 60, 0
2, 165592, Pitch_bend_c, 0, 8074
2, 165604, Pitch_bend_c, 0, 6436
2, 165616, Pitch_bend_c, 0, 4447
2, 165620, Pitch_bend_c, 0, 2458
2, 165628, Pitch_bend_c, 0, 469
2, 165636, Pitch_bend_c, 0, 0
2, 165692, Note_on_c, 0, 60, 102
2, 165708, Pitch_bend_c, 0, 1054
2, 165720, Pitch_bend_c, 0, 3979
2, 165724, Pitch_bend_c, 0, 7606
2, 165736, Pitch_bend_c, 0, 8192
2, 165900, Pitch_bend_c, 0, 9947
2, 165900, Pitch_bend_c, 0, 12872
2, 165912, Pitch_bend_c, 0, 15563
2, 165916, Pitch_bend_c, 0, 16382
2, 166040, Pitch_bend_c, 0, 16265
2, 166068, Pitch_bend_c, 0, 15446
2, 166076, Pitch_bend_c, 0, 13574
2, 166084, Pitch_bend_c, 0, 10532
2, 166096, Pitch_bend_c, 0, 8192
2, 166216, Note_on_c, 0, 60, 0
2, 166272, Note_on_c, 0, 60, 97
2, 166508, Control_c, 0, 1, 64
2, 166516, Control_c, 0, 1, 125
2, 166524, Control_c, 0, 1, 127
2, 166588, Note_on_c, 0, 60, 0
2, 166612, Control_c, 0, 1, 121
2, 166624, Control_c, 0, 1, 33
2, 166632, Control_c, 0, 1, 2
2, 166640, Control_c, 0, 1, 0
2, 167568, Pitch_bend_c, 0, 7723
2, 167580, Pitch_bend_c, 0, 8192
2, 168852, Pitch_bend_c, 0, 8074
2, 168860, Pitch_bend_c, 0, 7489
2, 168864, Pitch_bend_c, 0, 6319
2, 168876, Pitch_bend_c, 0, 5032
2, 168888, Pitch_bend_c, 0, 3862
2, 168892, Pitch_bend_c, 0, 2809
2, 168904, Pitch_bend_c, 0, 1639
2, 168908, Pitch_bend_c, 0, 820
2, 168920, Pitch_bend_c, 0, 118
2, 168932, Pitch_bend_c, 0, 0
2, 168956, Note_on_c, 0, 64, 104
2, 168980, Pitch_bend_c, 0, 703
2, 168992, Pitch_bend_c, 0, 1990
2, 169000, Pitch_bend_c, 0, 3862
2, 169008, Pitch_bend_c, 0, 6202
2, 169020, Pitch_bend_c, 0, 8192
2, 169104, Note_on_c, 0, 64, 0
2, 169156, Note_on_c, 0, 64, 106
2, 169596, Note_on_c, 0, 64, 0
2, 169656, Pitch_bend_c, 0, 6904
2, 169668, Pitch_bend_c, 0, 5383
2, 169680, Pitch_bend_c, 0, 4096
2, 169684, Pitch_bend_c, 0, 2926
2, 169696, Pitch_bend_c, 0, 1990
2, 169700, Pitch_bend_c, 0, 1171
2, 169712, Pitch_bend_c, 0, 586
2, 169716, Pitch_bend_c, 0, 118
2, 169724, Note_on_c, 0, 64, 104
2, 169744, Pitch_bend_c, 0, 586
2, 169756, Pitch_bend_c, 0, 1522
2, 169760, Pitch_bend_c, 0, 3160
2, 169772, Pitch_bend_c, 0, 5734
2, 169776, Pitch_bend_c, 0, 8192
2, 169824, Note_on_c, 0, 64, 0
2, 169924, Note_on_c, 0, 64, 102
2, 170172, Note_on_c, 0, 64, 0
2, 170312, Note_on_c, 0, 67, 106
2, 170504, Pitch_bend_c, 0, 11234
2, 170508, Pitch_bend_c, 0, 14159
2, 170516, Pitch_bend_c, 0, 16382
2, 170660, Pitch_bend_c, 0, 16148
2, 170668, Pitch_bend_c, 0, 15914
2, 170680, Pitch_bend_c, 0, 14627
2, 170684, Pitch_bend_c, 0, 12755
2, 170692, Pitch_bend_c, 0, 9947
2, 170704, Pitch_bend_c, 0, 8192
2, 170772, Note_on_c, 0, 67, 0
2, 170876, Note_on_c, 0, 67, 104
2, 171116, Note_on_c, 0, 67, 0
2, 171260, Note_on_c, 0, 64, 90
2, 171364, Note_on_c, 0, 64, 0
2, 171452, Note_on_c, 0, 62, 102
2, 171660, Pitch_bend_c, 0, 10415
2, 171672, Pitch_bend_c, 0, 13106
2, 171676, Pitch_bend_c, 0, 15212
2, 171688, Pitch_bend_c, 0, 16383
2, 171780, Pitch_bend_c, 0, 16382
2, 171800, Note_on_c, 0, 62, 0
2, 171804, Pitch_bend_c, 0, 15095
2, 171808, Pitch_bend_c, 0, 11936
2, 171820, Pitch_bend_c, 0, 8192
2, 171840, Note_on_c, 0, 62, 95
2, 172056, Pitch_bend_c, 0, 9947
2, 172068, Pitch_bend_c, 0, 13340
2, 172072, Pitch_bend_c, 0, 15914
2, 172084, Pitch_bend_c, 0, 16382
2, 172292, Pitch_bend_c, 0, 16265
2, 172308, Pitch_bend_c, 0, 16031
2, 172316, Note_on_c, 0, 62, 0
2, 172320, Pitch_bend_c, 0, 15329
2, 172328, Pitch_bend_c, 0, 14159
2, 172336, Pitch_bend_c, 0, 12287
2, 172348, Pitch_bend_c, 0, 9830
2, 172352, Pitch_bend_c, 0, 8192
2, 172416, Note_on_c, 0, 62, 106
2, 172640, Pitch_bend_c, 0, 6085
2, 172644, Pitch_bend_c, 0, 3043
2, 172652, Pitch_bend_c, 0, 0
2, 173288, Note_on_c, 0, 62, 0
2, 173332, Pitch_bend_c, 0, 1
2, 173340, Pitch_bend_c, 0, 2341
2, 173348, Pitch_bend_c, 0, 5266
2, 173356, Pitch_bend_c, 0, 8192
2, 174580, Pitch_bend_c, 0, 7606
2, 174596, Pitch_bend_c, 0, 6904
2, 174604, Pitch_bend_c, 0, 5851
2, 174620, Pitch_bend_c, 0, 5032
2, 174632, Pitch_bend_c, 0, 3979
2, 174640, Pitch_bend_c, 0, 3043
2, 174656, Pitch_bend_c, 0, 2224
2, 174672, Pitch_bend_c, 0, 1522
2, 174680, Pitch_bend_c, 0, 1054
2, 174696, Pitch_bend_c, 0, 703
2, 174696, Note_on_c, 0, 64, 100
2, 174704, Pitch_bend_c, 0, 352
2, 174724, Pitch_bend_c, 0, 235
2, 174748, Pitch_bend_c, 0, 820
2, 174764, Pitch_bend_c, 0, 1522
2, 174780, Pitch_bend_c, 0, 2692
2, 174788, Pitch_bend_c, 0, 4447
2, 174804, Pitch_bend_c, 0, 6787
2, 174812, Pitch_bend_c, 0, 8192
2, 174940, Pitch_bend_c, 0, 7606
2, 174956, Pitch_bend_c, 0, 6787
2, 174964, Pitch_bend_c, 0, 5851
2, 174980, Pitch_bend_c, 0, 4915
2, 174996, Pitch_bend_c, 0, 3979
2, 175004, Pitch_bend_c, 0, 3160
2, 175008, Note_on_c, 0, 64, 0
2, 175008, Pitch_bend_c, 0, 2341
2, 175024, Pitch_bend_c, 0, 1522
2, 175040, Pitch_bend_c, 0, 1054
2, 175056, Pitch_bend_c, 0, 703
2, 175064, Pitch_bend_c, 0, 352
2, 175072, Pitch_bend_c, 0, 118
2, 175108, Note_on_c, 0, 64, 95
2, 175108, Pitch_bend_c, 0, 820
2, 175124, Pitch_bend_c, 0, 1990
2, 175140, Pitch_bend_c, 0, 3862
2, 175148, Pitch_bend_c, 0, 6670
2, 175164, Pitch_bend_c, 0, 8192
2, 175300, Note_on_c, 0, 57, 91
2, 175304, Note_on_c, 0, 64, 0
2, 175592, Note_on_c, 0, 57, 0
2, 175716, Pitch_bend_c, 0, 7957
2, 175724, Pitch_bend_c, 0, 7138
2, 175740, Pitch_bend_c, 0, 5734
2, 175748, Pitch_bend_c, 0, 4447
2, 175764, Pitch_bend_c, 0, 3394
2, 175776, Pitch_bend_c, 0, 2575
2, 175784, Pitch_bend_c, 0, 1756
2, 175800, Pitch_bend_c, 0, 937
2, 175808, Pitch_bend_c, 0, 469
2, 175824, Pitch_bend_c, 0, 1
2, 175832, Pitch_bend_c, 0, 0
2, 175864, Note_on_c, 0, 64, 108
2, 175876, Pitch_bend_c, 0, 1
2, 175884, Pitch_bend_c, 0, 703
2, 175892, Pitch_bend_c, 0, 1990
2, 175908, Pitch_bend_c, 0, 3862
2, 175924, Pitch_bend_c, 0, 6553
2, 175932, Pitch_bend_c, 0, 8192
2, 176064, Note_on_c, 0, 57, 98
2, 176080, Note_on_c, 0, 64, 0
2, 176304, Note_on_c, 0, 57, 0
2, 176452, Note_on_c, 0, 62, 110
2, 176652, Pitch_bend_c, 0, 9479
2, 176668, Pitch_bend_c, 0, 12053
2, 176684, Pitch_bend_c, 0, 14159
2, 176692, Pitch_bend_c, 0, 16031
2, 176708, Pitch_bend_c, 0, 16382
2, 176816, Pitch_bend_c, 0, 16148
2, 176844, Pitch_bend_c, 0, 13192
2, 176864, Pitch_bend_c, 0, 8192
2, 176948, Note_on_c, 0, 62, 0
2, 177024, Note_on_c, 0, 62, 95
2, 177400, Note_on_c, 0, 62, 0
2, 177412, Note_on_c, 0, 60, 94
2, 177604, Note_on_c, 0, 60, 0
2, 177788, Note_on_c, 0, 55, 88
2, 177872, Note_on_c, 0, 55, 0
2, 177920, Pitch_bend_c, 0, 7840
2, 177928, Pitch_bend_c, 0, 5851
2, 177944, Pitch_bend_c, 0, 3862
2, 177960, Pitch_bend_c, 0, 2107
2, 177968, Pitch_bend_c, 0, 469
2, 177984, Pitch_bend_c, 0, 0
2, 177988, Note_on_c, 0, 59, 94
2, 178044, Pitch_bend_c, 0, 1171
2, 178060, Pitch_bend_c, 0, 4213
2, 178068, Pitch_bend_c, 0, 7723
2, 178080, Pitch_bend_c, 0, 8192
2, 178336, Pitch_bend_c, 0, 5734
2, 178352, Pitch_bend_c, 0, 1522
2, 178368, Pitch_bend_c, 0, 0
2, 179324, Note_on_c, 0, 59, 0
2, 179332, Pitch_bend_c, 0, 1405
2, 179340, Pitch_bend_c, 0, 5032
2, 179356, Pitch_bend_c, 0, 8192
2, 181196, Pitch_bend_c, 0, 7372
2, 181208, Pitch_bend_c, 0, 5968
2, 181212, Pitch_bend_c, 0, 4447
2, 181224, Pitch_bend_c, 0, 3277
2, 181228, Pitch_bend_c, 0, 1873
2, 181240, Pitch_bend_c, 0, 469
2, 181244, Note_on_c, 0, 64, 104
2, 181248, Pitch_bend_c, 0, 0
2, 181280, Pitch_bend_c, 0, 1405
2, 181292, Pitch_bend_c, 0, 3511
2, 181296, Pitch_bend_c, 0, 6202
2, 181308, Pitch_bend_c, 0, 8192
2, 181524, Note_on_c, 0, 64, 0
2, 181632, Note_on_c, 0, 64, 98
2, 181744, Note_on_c, 0, 64, 0
2, 181780, Pitch_bend_c, 0, 7606
2, 181788, Pitch_bend_c, 0, 5968
2, 181796, Pitch_bend_c, 0, 4330
2, 181804, Pitch_bend_c, 0, 2809
2, 181812, Pitch_bend_c, 0, 1639
2, 181824, Pitch_bend_c, 0, 820
2, 181824, Note_on_c, 0, 64, 100
2, 181836, Pitch_bend_c, 0, 469
2, 181852, Pitch_bend_c, 0, 1171
2, 181856, Pitch_bend_c, 0, 2341
2, 181868, Pitch_bend_c, 0, 4330
2, 181872, Pitch_bend_c, 0, 7489
2, 181888, Pitch_bend_c, 0, 8192
2, 182124, Note_on_c, 0, 64, 0
2, 182208, Note_on_c, 0, 64, 97
2, 182440, Note_on_c, 0, 64, 0
2, 182500, Pitch_bend_c, 0, 7606
2, 182512, Pitch_bend_c, 0, 5968
2, 182524, Pitch_bend_c, 0, 4213
2, 182524, Pitch_bend_c, 0, 2575
2, 182532, Pitch_bend_c, 0, 937
2, 182544, Pitch_bend_c, 0, 0
2, 182596, Note_on_c, 0, 69, 112
2, 182608, Pitch_bend_c, 0, 1171
2, 182608, Pitch_bend_c, 0, 3394
2, 182620, Pitch_bend_c, 0, 6202
2, 182632, Pitch_bend_c, 0, 8192
2, 182916, Pitch_bend_c, 0, 5968
2, 182920, Pitch_bend_c, 0, 2458
2, 182932, Pitch_bend_c, 0, 0
2, 182992, Pitch_bend_c, 0, 703
2, 183000, Note_on_c, 0, 69, 0
2, 183000, Pitch_bend_c, 0, 3862
2, 183008, Pitch_bend_c, 0, 7957
2, 183016, Pitch_bend_c, 0, 8192
2, 183152, Note_on_c, 0, 67, 104
2, 183556, Note_on_c, 0, 64, 108
2, 183560, Note_on_c, 0, 67, 0
2, 183840, Note_on_c, 0, 64, 0
2, 183868, Pitch_bend_c, 0, 7840
2, 183872, Pitch_bend_c, 0, 5968
2, 183884, Pitch_bend_c, 0, 3745
2, 183896, Pitch_bend_c, 0, 1405
2, 183900, Pitch_bend_c, 0, 0
2, 183932, Note_on_c, 0, 64, 100
2, 183960, Pitch_bend_c, 0, 352
2, 183968, Pitch_bend_c, 0, 2458
2, 183980, Pitch_bend_c, 0, 5500
2, 183992, Pitch_bend_c, 0, 8192
2, 184132, Note_on_c, 0, 64, 0
2, 184320, Note_on_c, 0, 64, 94
2, 184412, Note_on_c, 0, 62, 108
2, 184420, Note_on_c, 0, 64, 0
2, 184492, Pitch_bend_c, 0, 8074
2, 184500, Pitch_bend_c, 0, 4447
2, 184508, Pitch_bend_c, 0, 352
2, 184516, Pitch_bend_c, 0, 0
2, 184968, Note_on_c, 0, 62, 0
2, 185040, Pitch_bend_c, 0, 2458
2, 185048, Pitch_bend_c, 0, 8074
2, 185060, Pitch_bend_c, 0, 8192
2, 186436, Pitch_bend_c, 0, 7957
2, 186452, Pitch_bend_c, 0, 7255
2, 186468, Pitch_bend_c, 0, 6319
2, 186476, Pitch_bend_c, 0, 5149
2, 186492, Pitch_bend_c, 0, 3862
2, 186500, Pitch_bend_c, 0, 2458
2, 186516, Pitch_bend_c, 0, 1171
2, 186528, Pitch_bend_c, 0, 118
2, 186536, Pitch_bend_c, 0, 0
2, 186624, Note_on_c, 0, 64, 102
2, 186660, Pitch_bend_c, 0, 235
2, 186668, Pitch_bend_c, 0, 1522
2, 186684, Pitch_bend_c, 0, 3394
2, 186700, Pitch_bend_c, 0, 5851
2, 186716, Pitch_bend_c, 0, 8192
2, 187192, Note_on_c, 0, 64, 0
2, 187392, Note_on_c, 0, 64, 106
2, 187476, Pitch_bend_c, 0, 5734
2, 187484, Pitch_bend_c, 0, 2224
2, 187488, Pitch_bend_c, 0, 0
2, 187752, Note_on_c, 0, 64, 0
2, 187768, Pitch_bend_c, 0, 3160
2, 187776, Pitch_bend_c, 0, 8192
2, 187776, Note_on_c, 0, 60, 91
2, 188832, Note_on_c, 0, 60, 0
2, 189552, Pitch_bend_c, 0, 8074
2, 189564, Pitch_bend_c, 0, 6085
2, 189576, Pitch_bend_c, 0, 3979
2, 189588, Pitch_bend_c, 0, 1756
2, 189592, Pitch_bend_c, 0, 1
2, 189604, Pitch_bend_c, 0, 0
2, 189644, Pitch_bend_c, 0, 2458
2, 189656, Pitch_bend_c, 0, 9362
2, 189664, Pitch_bend_c, 0, 8192
2, 189692, Note_on_c, 0, 64, 117
2, 189828, Note_on_c, 0, 64, 0
2, 189892, Note_on_c, 0, 64, 110
2, 190292, Note_on_c, 0, 64, 0
2, 190340, Pitch_bend_c, 0, 7606
2, 190352, Pitch_bend_c, 0, 5968
2, 190356, Pitch_bend_c, 0, 3979
2, 190368, Pitch_bend_c, 0, 1756
2, 190380, Pitch_bend_c, 0, 0
2, 190464, Pitch_bend_c, 0, 937
2, 190468, Note_on_c, 0, 62, 110
2, 190468, Pitch_bend_c, 0, 1990
2, 190480, Pitch_bend_c, 0, 3511
2, 190492, Pitch_bend_c, 0, 5383
2, 190500, Pitch_bend_c, 0, 7606
2, 190512, Pitch_bend_c, 0, 8192
2, 190828, Pitch_bend_c, 0, 7957
2, 190840, Pitch_bend_c, 0, 4330
2, 190848, Pitch_bend_c, 0, 1054
2, 190860, Pitch_bend_c, 0, 0
2, 191536, Pitch_bend_c, 0, 352
2, 191548, Pitch_bend_c, 0, 2692
2, 191552, Pitch_bend_c, 0, 5617
2, 191564, Pitch_bend_c, 0, 8192
2, 191572, Note_on_c, 0, 62, 0
2, 191712, Pitch_bend_c, 0, 6202
2, 191724, Pitch_bend_c, 0, 3394
2, 191728, Pitch_bend_c, 0, 469
2, 191740, Pitch_bend_c, 0, 0
2, 191804, Note_on_c, 0, 74, 79
2, 191808, Note_on_c, 0, 72, 97
2, 191816, Pitch_bend_c, 0, 1
2, 191828, Note_on_c, 0, 74, 0
2, 191828, Pitch_bend_c, 0, 1990
2, 191836, Pitch_bend_c, 0, 4915
2, 191848, Pitch_bend_c, 0, 8192
2, 192168, Note_on_c, 0, 72, 0
2, 192184, Note_on_c, 0, 71, 92
2, 192300, Note_on_c, 0, 71, 0
2, 192376, Note_on_c, 0, 71, 108
2, 192572, Note_on_c, 0, 71, 0
2, 192572, Note_on_c, 0, 69, 95
2, 192684, Note_on_c, 0, 69, 0
2, 192768, Note_on_c, 0, 69, 106
2, 192940, Note_on_c, 0, 69, 0
2, 192952, Note_on_c, 0, 67, 68
2, 193080, Note_on_c, 0, 67, 0
2, 193132, Pitch_bend_c, 0, 7957
2, 193144, Pitch_bend_c, 0, 5500
2, 193152, Note_on_c, 0, 67, 106
2, 193156, Pitch_bend_c, 0, 2575
2, 193156, Pitch_bend_c, 0, 118
2, 193168, Pitch_bend_c, 0, 0
2, 193208, Pitch_bend_c, 0, 1639
2, 193220, Pitch_bend_c, 0, 5734
2, 193224, Pitch_bend_c, 0, 8192
2, 193340, Note_on_c, 0, 67, 0
2, 193344, Note_on_c, 0, 62, 94
2, 193448, Note_on_c, 0, 62, 0
2, 193540, Note_on_c, 0, 62, 102
2, 193920, Pitch_bend_c, 0, 7957
2, 193932, Pitch_bend_c, 0, 5851
2, 193948, Pitch_bend_c, 0, 3277
2, 193948, Pitch_bend_c, 0, 586
2, 193960, Pitch_bend_c, 0, 0
2, 195888, Pitch_bend_c, 0, 1990
2, 195900, Note_on_c, 0, 62, 0
2, 195900, Pitch_bend_c, 0, 5968
2, 195908, Pitch_bend_c, 0, 8192
2, 195908, End_track
3, 0, Start_track
3, 0, MIDI_port, 0
3, 0, Title_t, "Drums"
3, 0, Control_c, 0, 32, 0
3, 0, Control_c, 9, 91, 65
3, 0, Control_c, 9, 93, 0
3, 672, Control_c, 9, 120, 0
3, 768, Control_c, 9, 121, 0
3, 960, Control_c, 9, 100, 0
3, 1056, Control_c, 9, 101, 0
3, 1152, Control_c, 9, 6, 2
3, 2496, Note_on_c, 9, 40, 52
3, 2544, Note_on_c, 9, 40, 0
3, 2560, Note_on_c, 9, 40, 62
3, 2608, Note_on_c, 9, 40, 0
3, 2624, Note_on_c, 9, 40, 70
3, 2672, Note_on_c, 9, 40, 0
3, 2688, Note_on_c, 9, 40, 123
3, 2760, Note_on_c, 9, 40, 0
3, 2880, Note_on_c, 9, 45, 120
3, 2952, Note_on_c, 9, 45, 0
3, 3072, Note_on_c, 9, 35, 120
3, 3144, Note_on_c, 9, 35, 0
3, 3456, Note_on_c, 9, 57, 104
3, 3456, Note_on_c, 9, 40, 122
3, 3460, Note_on_c, 9, 42, 114
3, 3528, Note_on_c, 9, 40, 0
3, 3528, Note_on_c, 9, 57, 0
3, 3532, Note_on_c, 9, 42, 0
3, 3648, Note_on_c, 9, 42, 54
3, 3648, Note_on_c, 9, 35, 120
3, 3720, Note_on_c, 9, 35, 0
3, 3720, Note_on_c, 9, 42, 0
3, 3840, Note_on_c, 9, 42, 114
3, 3840, Note_on_c, 9, 35, 120
3, 3872, Note_on_c, 9, 42, 0
3, 3912, Note_on_c, 9, 35, 0
3, 3936, Note_on_c, 9, 42, 58
3, 3968, Note_on_c, 9, 42, 0
3, 4032, Note_on_c, 9, 70, 94
3, 4032, Note_on_c, 9, 42, 54
3, 4104, Note_on_c, 9, 42, 0
3, 4112, Note_on_c, 9, 70, 0
3, 4224, Note_on_c, 9, 42, 114
3, 4224, Note_on_c, 9, 40, 122
3, 4296, Note_on_c, 9, 40, 0
3, 4296, Note_on_c, 9, 42, 0
3, 4416, Note_on_c, 9, 42, 54
3, 4440, Note_on_c, 9, 42, 0
3, 4512, Note_on_c, 9, 42, 66
3, 4536, Note_on_c, 9, 42, 0
3, 4608, Note_on_c, 9, 42, 114
3, 4608, Note_on_c, 9, 35, 120
3, 4680, Note_on_c, 9, 35, 0
3, 4680, Note_on_c, 9, 42, 0
3, 4704, Note_on_c, 9, 70, 74
3, 4784, Note_on_c, 9, 70, 0
3, 4800, Note_on_c, 9, 42, 54
3, 4800, Note_on_c, 9, 82, 64
3, 4872, Note_on_c, 9, 42, 0
3, 4896, Note_on_c, 9, 82, 0
3, 4896, Note_on_c, 9, 69, 54
3, 4944, Note_on_c, 9, 69, 0
3, 4992, Note_on_c, 9, 42, 114
3, 4992, Note_on_c, 9, 40, 122
3, 5064, Note_on_c, 9, 40, 0
3, 5064, Note_on_c, 9, 42, 0
3, 5184, Note_on_c, 9, 42, 54
3, 5184, Note_on_c, 9, 35, 120
3, 5256, Note_on_c, 9, 35, 0
3, 5256, Note_on_c, 9, 42, 0
3, 5376, Note_on_c, 9, 42, 114
3, 5376, Note_on_c, 9, 35, 120
3, 5408, Note_on_c, 9, 42, 0
3, 5448, Note_on_c, 9, 35, 0
3, 5472, Note_on_c, 9, 42, 58
3, 5504, Note_on_c, 9, 42, 0
3, 5568, Note_on_c, 9, 70, 94
3, 5568, Note_on_c, 9, 42, 54
3, 5640, Note_on_c, 9, 42, 0
3, 5648, Note_on_c, 9, 70, 0
3, 5760, Note_on_c, 9, 42, 114
3, 5760, Note_on_c, 9, 40, 122
3, 5832, Note_on_c, 9, 40, 0
3, 5832, Note_on_c, 9, 42, 0
3, 5952, Note_on_c, 9, 42, 54
3, 5976, Note_on_c, 9, 42, 0
3, 6048, Note_on_c, 9, 42, 66
3, 6072, Note_on_c, 9, 42, 0
3, 6144, Note_on_c, 9, 42, 114
3, 6144, Note_on_c, 9, 35, 120
3, 6216, Note_on_c, 9, 35, 0
3, 6216, Note_on_c, 9, 42, 0
3, 6240, Note_on_c, 9, 70, 74
3, 6320, Note_on_c, 9, 70, 0
3, 6336, Note_on_c, 9, 42, 54
3, 6336, Note_on_c, 9, 82, 64
3, 6408, Note_on_c, 9, 42, 0
3, 6432, Note_on_c, 9, 82, 0
3, 6432, Note_on_c, 9, 69, 54
3, 6480, Note_on_c, 9, 69, 0
3, 6528, Note_on_c, 9, 42, 114
3, 6528, Note_on_c, 9, 40, 122
3, 6600, Note_on_c, 9, 40, 0
3, 6600, Note_on_c, 9, 42, 0
3, 6720, Note_on_c, 9, 42, 54
3, 6720, Note_on_c, 9, 35, 120
3, 6792, Note_on_c, 9, 35, 0
3, 6792, Note_on_c, 9, 42, 0
3, 6912, Note_on_c, 9, 42, 114
3, 6912, Note_on_c, 9, 35, 120
3, 6944, Note_on_c, 9, 42, 0
3, 6984, Note_on_c, 9, 35, 0
3, 7008, Note_on_c, 9, 42, 58
3, 7040, Note_on_c, 9, 42, 0
3, 7104, Note_on_c, 9, 70, 94
3, 7104, Note_on_c, 9, 42, 54
3, 7176, Note_on_c, 9, 42, 0
3, 7184, Note_on_c, 9, 70, 0
3, 7296, Note_on_c, 9, 42, 114
3, 7296, Note_on_c, 9, 40, 122
3, 7368, Note_on_c, 9, 40, 0
3, 7368, Note_on_c, 9, 42, 0
3, 7488, Note_on_c, 9, 42, 54
3, 7512, Note_on_c, 9, 42, 0
3, 7584, Note_on_c, 9, 42, 66
3, 7608, Note_on_c, 9, 42, 0
3, 7680, Note_on_c, 9, 42, 114
3, 7680, Note_on_c, 9, 35, 120
3, 7752, Note_on_c, 9, 35, 0
3, 7752, Note_on_c, 9, 42, 0
3, 7776, Note_on_c, 9, 70, 74
3, 7856, Note_on_c, 9, 70, 0
3, 7872, Note_on_c, 9, 42, 54
3, 7872, Note_on_c, 9, 82, 64
3, 7944, Note_on_c, 9, 42, 0
3, 7968, Note_on_c, 9, 82, 0
3, 7968, Note_on_c, 9, 69, 54
3, 8016, Note_on_c, 9, 69, 0
3, 8064, Note_on_c, 9, 42, 114
3, 8064, Note_on_c, 9, 40, 122
3, 8136, Note_on_c, 9, 40, 0
3, 8136, Note_on_c, 9, 42, 0
3, 8256, Note_on_c, 9, 42, 54
3, 8256, Note_on_c, 9, 35, 120
3, 8328, Note_on_c, 9, 35, 0
3, 8328, Note_on_c, 9, 42, 0
3, 8448, Note_on_c, 9, 42, 114
3, 8448, Note_on_c, 9, 35, 120
3, 8480, Note_on_c, 9, 42, 0
3, 8520, Note_on_c, 9, 35, 0
3, 8544, Note_on_c, 9, 42, 58
3, 8576, Note_on_c, 9, 42, 0
3, 8640, Note_on_c, 9, 70, 94
3, 8640, Note_on_c, 9, 42, 54
3, 8712, Note_on_c, 9, 42, 0
3, 8720, Note_on_c, 9, 70, 0
3, 8832, Note_on_c, 9, 42, 114
3, 8832, Note_on_c, 9, 40, 122
3, 8904, Note_on_c, 9, 40, 0
3, 8904, Note_on_c, 9, 42, 0
3, 9024, Note_on_c, 9, 42, 54
3, 9048, Note_on_c, 9, 42, 0
3, 9120, Note_on_c, 9, 42, 66
3, 9144, Note_on_c, 9, 42, 0
3, 9216, Note_on_c, 9, 42, 114
3, 9216, Note_on_c, 9, 35, 120
3, 9288, Note_on_c, 9, 35, 0
3, 9288, Note_on_c, 9, 42, 0
3, 9312, Note_on_c, 9, 70, 74
3, 9392, Note_on_c, 9, 70, 0
3, 9408, Note_on_c, 9, 42, 54
3, 9408, Note_on_c, 9, 82, 64
3, 9480, Note_on_c, 9, 42, 0
3, 9504, Note_on_c, 9, 82, 0
3, 9504, Note_on_c, 9, 69, 54
3, 9552, Note_on_c, 9, 69, 0
3, 9600, Note_on_c, 9, 42, 114
3, 9600, Note_on_c, 9, 40, 122
3, 9672, Note_on_c, 9, 40, 0
3, 9672, Note_on_c, 9, 42, 0
3, 9792, Note_on_c, 9, 42, 54
3, 9792, Note_on_c, 9, 35, 120
3, 9864, Note_on_c, 9, 35, 0
3, 9864, Note_on_c, 9, 42, 0
3, 9984, Note_on_c, 9, 42, 114
3, 9984, Note_on_c, 9, 35, 120
3, 10016, Note_on_c, 9, 42, 0
3, 10056, Note_on_c, 9, 35, 0
3, 10080, Note_on_c, 9, 42, 58
3, 10112, Note_on_c, 9, 42, 0
3, 10176, Note_on_c, 9, 70, 94
3, 10176, Note_on_c, 9, 42, 54
3, 10248, Note_on_c, 9, 42, 0
3, 10256, Note_on_c, 9, 70, 0
3, 10368, Note_on_c, 9, 42, 114
3, 10368, Note_on_c, 9, 40, 122
3, 10440, Note_on_c, 9, 40, 0
3, 10440, Note_on_c, 9, 42, 0
3, 10560, Note_on_c, 9, 42, 54
3, 10584, Note_on_c, 9, 42, 0
3, 10656, Note_on_c, 9, 42, 66
3, 10680, Note_on_c, 9, 42, 0
3, 10752, Note_on_c, 9, 42, 114
3, 10752, Note_on_c, 9, 35, 120
3, 10824, Note_on_c, 9, 35, 0
3, 10824, Note_on_c, 9, 42, 0
3, 10848, Note_on_c, 9, 70, 74
3, 10928, Note_on_c, 9, 70, 0
3, 10944, Note_on_c, 9, 42, 54
3, 10944, Note_on_c, 9, 82, 64
3, 11016, Note_on_c, 9, 42, 0
3, 11040, Note_on_c, 9, 82, 0
3, 11040, Note_on_c, 9, 69, 54
3, 11088, Note_on_c, 9, 69, 0
3, 11136, Note_on_c, 9, 42, 114
3, 11136, Note_on_c, 9, 40, 122
3, 11208, Note_on_c, 9, 40, 0
3, 11208, Note_on_c, 9, 42, 0
3, 11328, Note_on_c, 9, 42, 54
3, 11328, Note_on_c, 9, 35, 120
3, 11400, Note_on_c, 9, 35, 0
3, 11400, Note_on_c, 9, 42, 0
3, 11520, Note_on_c, 9, 42, 114
3, 11520, Note_on_c, 9, 35, 120
3, 11552, Note_on_c, 9, 42, 0
3, 11592, Note_on_c, 9, 35, 0
3, 11616, Note_on_c, 9, 42, 58
3, 11648, Note_on_c, 9, 42, 0
3, 11712, Note_on_c, 9, 70, 94
3, 11712, Note_on_c, 9, 42, 54
3, 11784, Note_on_c, 9, 42, 0
3, 11792, Note_on_c, 9, 70, 0
3, 11904, Note_on_c, 9, 42, 114
3, 11904, Note_on_c, 9, 40, 122
3, 11976, Note_on_c, 9, 40, 0
3, 11976, Note_on_c, 9, 42, 0
3, 12096, Note_on_c, 9, 42, 54
3, 12120, Note_on_c, 9, 42, 0
3, 12192, Note_on_c, 9, 42, 66
3, 12216, Note_on_c, 9, 42, 0
3, 12288, Note_on_c, 9, 42, 114
3, 12288, Note_on_c, 9, 35, 120
3, 12360, Note_on_c, 9, 35, 0
3, 12360, Note_on_c, 9, 42, 0
3, 12384, Note_on_c, 9, 70, 74
3, 12464, Note_on_c, 9, 70, 0
3, 12480, Note_on_c, 9, 42, 54
3, 12480, Note_on_c, 9, 82, 64
3, 12552, Note_on_c, 9, 42, 0
3, 12576, Note_on_c, 9, 82, 0
3, 12576, Note_on_c, 9, 69, 54
3, 12624, Note_on_c, 9, 69, 0
3, 12672, Note_on_c, 9, 42, 114
3, 12672, Note_on_c, 9, 40, 122
3, 12744, Note_on_c, 9, 40, 0
3, 12744, Note_on_c, 9, 42, 0
3, 12864, Note_on_c, 9, 42, 54
3, 12864, Note_on_c, 9, 35, 120
3, 12936, Note_on_c, 9, 35, 0
3, 12936, Note_on_c, 9, 42, 0
3, 13056, Note_on_c, 9, 42, 114
3, 13056, Note_on_c, 9, 35, 120
3, 13088, Note_on_c, 9, 42, 0
3, 13128, Note_on_c, 9, 35, 0
3, 13152, Note_on_c, 9, 42, 58
3, 13184, Note_on_c, 9, 42, 0
3, 13248, Note_on_c, 9, 70, 94
3, 13248, Note_on_c, 9, 42, 54
3, 13320, Note_on_c, 9, 42, 0
3, 13328, Note_on_c, 9, 70, 0
3, 13440, Note_on_c, 9, 42, 114
3, 13440, Note_on_c, 9, 40, 122
3, 13512, Note_on_c, 9, 40, 0
3, 13512, Note_on_c, 9, 42, 0
3, 13632, Note_on_c, 9, 42, 54
3, 13656, Note_on_c, 9, 42, 0
3, 13728, Note_on_c, 9, 42, 66
3, 13752, Note_on_c, 9, 42, 0
3, 13824, Note_on_c, 9, 42, 114
3, 13824, Note_on_c, 9, 35, 120
3, 13896, Note_on_c, 9, 35, 0
3, 13896, Note_on_c, 9, 42, 0
3, 13920, Note_on_c, 9, 70, 74
3, 14000, Note_on_c, 9, 70, 0
3, 14016, Note_on_c, 9, 42, 54
3, 14016, Note_on_c, 9, 82, 64
3, 14088, Note_on_c, 9, 42, 0
3, 14112, Note_on_c, 9, 82, 0
3, 14112, Note_on_c, 9, 69, 54
3, 14160, Note_on_c, 9, 69, 0
3, 14208, Note_on_c, 9, 42, 114
3, 14208, Note_on_c, 9, 40, 122
3, 14280, Note_on_c, 9, 40, 0
3, 14280, Note_on_c, 9, 42, 0
3, 14400, Note_on_c, 9, 42, 54
3, 14400, Note_on_c, 9, 35, 120
3, 14472, Note_on_c, 9, 35, 0
3, 14472, Note_on_c, 9, 42, 0
3, 14592, Note_on_c, 9, 42, 114
3, 14592, Note_on_c, 9, 35, 120
3, 14624, Note_on_c, 9, 42, 0
3, 14664, Note_on_c, 9, 35, 0
3, 14688, Note_on_c, 9, 42, 58
3, 14720, Note_on_c, 9, 42, 0
3, 14784, Note_on_c, 9, 70, 94
3, 14784, Note_on_c, 9, 42, 54
3, 14856, Note_on_c, 9, 42, 0
3, 14864, Note_on_c, 9, 70, 0
3, 14976, Note_on_c, 9, 42, 114
3, 14976, Note_on_c, 9, 40, 122
3, 15048, Note_on_c, 9, 40, 0
3, 15048, Note_on_c, 9, 42, 0
3, 15168, Note_on_c, 9, 42, 54
3, 15192, Note_on_c, 9, 42, 0
3, 15264, Note_on_c, 9, 42, 66
3, 15288, Note_on_c, 9, 42, 0
3, 15360, Note_on_c, 9, 42, 114
3, 15360, Note_on_c, 9, 35, 120
3, 15432, Note_on_c, 9, 35, 0
3, 15432, Note_on_c, 9, 42, 0
3, 15456, Note_on_c, 9, 70, 74
3, 15536, Note_on_c, 9, 70, 0
3, 15552, Note_on_c, 9, 42, 54
3, 15552, Note_on_c, 9, 82, 64
3, 15624, Note_on_c, 9, 42, 0
3, 15648, Note_on_c, 9, 82, 0
3, 15648, Note_on_c, 9, 69, 54
3, 15696, Note_on_c, 9, 69, 0
3, 15744, Note_on_c, 9, 42, 114
3, 15744, Note_on_c, 9, 40, 122
3, 15816, Note_on_c, 9, 40, 0
3, 15816, Note_on_c, 9, 42, 0
3, 15936, Note_on_c, 9, 42, 54
3, 15936, Note_on_c, 9, 35, 120
3, 16008, Note_on_c, 9, 35, 0
3, 16008, Note_on_c, 9, 42, 0
3, 16128, Note_on_c, 9, 42, 114
3, 16128, Note_on_c, 9, 35, 120
3, 16160, Note_on_c, 9, 42, 0
3, 16200, Note_on_c, 9, 35, 0
3, 16224, Note_on_c, 9, 42, 58
3, 16256, Note_on_c, 9, 42, 0
3, 16320, Note_on_c, 9, 70, 94
3, 16320, Note_on_c, 9, 42, 54
3, 16392, Note_on_c, 9, 42, 0
3, 16400, Note_on_c, 9, 70, 0
3, 16512, Note_on_c, 9, 42, 114
3, 16512, Note_on_c, 9, 40, 122
3, 16584, Note_on_c, 9, 40, 0
3, 16584, Note_on_c, 9, 42, 0
3, 16704, Note_on_c, 9, 42, 54
3, 16728, Note_on_c, 9, 42, 0
3, 16800, Note_on_c, 9, 42, 66
3, 16824, Note_on_c, 9, 42, 0
3, 16896, Note_on_c, 9, 42, 114
3, 16896, Note_on_c, 9, 35, 120
3, 16968, Note_on_c, 9, 35, 0
3, 16968, Note_on_c, 9, 42, 0
3, 16992, Note_on_c, 9, 70, 74
3, 17072, Note_on_c, 9, 70, 0
3, 17088, Note_on_c, 9, 42, 54
3, 17088, Note_on_c, 9, 82, 64
3, 17160, Note_on_c, 9, 42, 0
3, 17184, Note_on_c, 9, 82, 0
3, 17184, Note_on_c, 9, 69, 54
3, 17232, Note_on_c, 9, 69, 0
3, 17280, Note_on_c, 9, 42, 114
3, 17280, Note_on_c, 9, 40, 122
3, 17352, Note_on_c, 9, 40, 0
3, 17352, Note_on_c, 9, 42, 0
3, 17472, Note_on_c, 9, 42, 54
3, 17472, Note_on_c, 9, 35, 120
3, 17544, Note_on_c, 9, 35, 0
3, 17544, Note_on_c, 9, 42, 0
3, 17664, Note_on_c, 9, 42, 114
3, 17664, Note_on_c, 9, 35, 120
3, 17696, Note_on_c, 9, 42, 0
3, 17736, Note_on_c, 9, 35, 0
3, 17760, Note_on_c, 9, 42, 58
3, 17792, Note_on_c, 9, 42, 0
3, 17856, Note_on_c, 9, 70, 94
3, 17856, Note_on_c, 9, 42, 54
3, 17928, Note_on_c, 9, 42, 0
3, 17936, Note_on_c, 9, 70, 0
3, 18048, Note_on_c, 9, 42, 114
3, 18048, Note_on_c, 9, 40, 122
3, 18120, Note_on_c, 9, 40, 0
3, 18120, Note_on_c, 9, 42, 0
3, 18240, Note_on_c, 9, 42, 54
3, 18264, Note_on_c, 9, 42, 0
3, 18336, Note_on_c, 9, 42, 66
3, 18360, Note_on_c, 9, 42, 0
3, 18432, Note_on_c, 9, 42, 114
3, 18432, Note_on_c, 9, 35, 120
3, 18504, Note_on_c, 9, 35, 0
3, 18504, Note_on_c, 9, 42, 0
3, 18528, Note_on_c, 9, 70, 74
3, 18608, Note_on_c, 9, 70, 0
3, 18624, Note_on_c, 9, 42, 54
3, 18624, Note_on_c, 9, 82, 64
3, 18696, Note_on_c, 9, 42, 0
3, 18720, Note_on_c, 9, 82, 0
3, 18720, Note_on_c, 9, 69, 54
3, 18768, Note_on_c, 9, 69, 0
3, 18816, Note_on_c, 9, 42, 114
3, 18816, Note_on_c, 9, 40, 122
3, 18888, Note_on_c, 9, 40, 0
3, 18888, Note_on_c, 9, 42, 0
3, 19008, Note_on_c, 9, 42, 54
3, 19008, Note_on_c, 9, 35, 120
3, 19080, Note_on_c, 9, 35, 0
3, 19080, Note_on_c, 9, 42, 0
3, 19200, Note_on_c, 9, 42, 114
3, 19200, Note_on_c, 9, 35, 120
3, 19232, Note_on_c, 9, 42, 0
3, 19272, Note_on_c, 9, 35, 0
3, 19296, Note_on_c, 9, 42, 58
3, 19328, Note_on_c, 9, 42, 0
3, 19392, Note_on_c, 9, 70, 94
3, 19392, Note_on_c, 9, 42, 54
3, 19464, Note_on_c, 9, 42, 0
3, 19472, Note_on_c, 9, 70, 0
3, 19584, Note_on_c, 9, 42, 114
3, 19584, Note_on_c, 9, 40, 122
3, 19656, Note_on_c, 9, 40, 0
3, 19656, Note_on_c, 9, 42, 0
3, 19776, Note_on_c, 9, 42, 54
3, 19800, Note_on_c, 9, 42, 0
3, 19872, Note_on_c, 9, 42, 66
3, 19896, Note_on_c, 9, 42, 0
3, 19968, Note_on_c, 9, 42, 114
3, 19968, Note_on_c, 9, 35, 120
3, 20040, Note_on_c, 9, 35, 0
3, 20040, Note_on_c, 9, 42, 0
3, 20064, Note_on_c, 9, 70, 74
3, 20144, Note_on_c, 9, 70, 0
3, 20160, Note_on_c, 9, 42, 54
3, 20160, Note_on_c, 9, 82, 64
3, 20232, Note_on_c, 9, 42, 0
3, 20256, Note_on_c, 9, 82, 0
3, 20256, Note_on_c, 9, 69, 54
3, 20304, Note_on_c, 9, 69, 0
3, 20352, Note_on_c, 9, 42, 114
3, 20352, Note_on_c, 9, 40, 122
3, 20424, Note_on_c, 9, 40, 0
3, 20424, Note_on_c, 9, 42, 0
3, 20544, Note_on_c, 9, 42, 54
3, 20544, Note_on_c, 9, 35, 120
3, 20616, Note_on_c, 9, 35, 0
3, 20616, Note_on_c, 9, 42, 0
3, 20736, Note_on_c, 9, 42, 114
3, 20736, Note_on_c, 9, 35, 120
3, 20768, Note_on_c, 9, 42, 0
3, 20808, Note_on_c, 9, 35, 0
3, 20832, Note_on_c, 9, 42, 58
3, 20864, Note_on_c, 9, 42, 0
3, 20928, Note_on_c, 9, 70, 94
3, 20928, Note_on_c, 9, 42, 54
3, 21000, Note_on_c, 9, 42, 0
3, 21008, Note_on_c, 9, 70, 0
3, 21120, Note_on_c, 9, 42, 114
3, 21120, Note_on_c, 9, 40, 122
3, 21192, Note_on_c, 9, 40, 0
3, 21192, Note_on_c, 9, 42, 0
3, 21312, Note_on_c, 9, 42, 54
3, 21336, Note_on_c, 9, 42, 0
3, 21408, Note_on_c, 9, 42, 66
3, 21432, Note_on_c, 9, 42, 0
3, 21504, Note_on_c, 9, 42, 114
3, 21504, Note_on_c, 9, 35, 120
3, 21576, Note_on_c, 9, 35, 0
3, 21576, Note_on_c, 9, 42, 0
3, 21600, Note_on_c, 9, 70, 74
3, 21680, Note_on_c, 9, 70, 0
3, 21696, Note_on_c, 9, 42, 54
3, 21696, Note_on_c, 9, 82, 64
3, 21768, Note_on_c, 9, 42, 0
3, 21792, Note_on_c, 9, 82, 0
3, 21792, Note_on_c, 9, 69, 54
3, 21840, Note_on_c, 9, 69, 0
3, 21888, Note_on_c, 9, 42, 114
3, 21888, Note_on_c, 9, 40, 122
3, 21960, Note_on_c, 9, 40, 0
3, 21960, Note_on_c, 9, 42, 0
3, 22080, Note_on_c, 9, 42, 54
3, 22080, Note_on_c, 9, 35, 120
3, 22152, Note_on_c, 9, 35, 0
3, 22152, Note_on_c, 9, 42, 0
3, 22272, Note_on_c, 9, 42, 114
3, 22272, Note_on_c, 9, 35, 120
3, 22304, Note_on_c, 9, 42, 0
3, 22344, Note_on_c, 9, 35, 0
3, 22368, Note_on_c, 9, 42, 58
3, 22400, Note_on_c, 9, 42, 0
3, 22464, Note_on_c, 9, 70, 94
3, 22464, Note_on_c, 9, 42, 54
3, 22536, Note_on_c, 9, 42, 0
3, 22544, Note_on_c, 9, 70, 0
3, 22656, Note_on_c, 9, 42, 114
3, 22656, Note_on_c, 9, 40, 122
3, 22728, Note_on_c, 9, 40, 0
3, 22728, Note_on_c, 9, 42, 0
3, 22848, Note_on_c, 9, 42, 54
3, 22872, Note_on_c, 9, 42, 0
3, 22944, Note_on_c, 9, 42, 66
3, 22968, Note_on_c, 9, 42, 0
3, 23040, Note_on_c, 9, 42, 114
3, 23040, Note_on_c, 9, 35, 120
3, 23112, Note_on_c, 9, 35, 0
3, 23112, Note_on_c, 9, 42, 0
3, 23136, Note_on_c, 9, 70, 74
3, 23216, Note_on_c, 9, 70, 0
3, 23232, Note_on_c, 9, 42, 54
3, 23232, Note_on_c, 9, 82, 64
3, 23304, Note_on_c, 9, 42, 0
3, 23328, Note_on_c, 9, 82, 0
3, 23328, Note_on_c, 9, 69, 54
3, 23376, Note_on_c, 9, 69, 0
3, 23424, Note_on_c, 9, 42, 114
3, 23424, Note_on_c, 9, 40, 122
3, 23496, Note_on_c, 9, 40, 0
3, 23496, Note_on_c, 9, 42, 0
3, 23616, Note_on_c, 9, 42, 54
3, 23616, Note_on_c, 9, 35, 120
3, 23688, Note_on_c, 9, 35, 0
3, 23688, Note_on_c, 9, 42, 0
3, 23808, Note_on_c, 9, 42, 114
3, 23808, Note_on_c, 9, 35, 120
3, 23840, Note_on_c, 9, 42, 0
3, 23880, Note_on_c, 9, 35, 0
3, 23904, Note_on_c, 9, 42, 58
3, 23936, Note_on_c, 9, 42, 0
3, 24000, Note_on_c, 9, 70, 94
3, 24000, Note_on_c, 9, 42, 54
3, 24072, Note_on_c, 9, 42, 0
3, 24080, Note_on_c, 9, 70, 0
3, 24192, Note_on_c, 9, 42, 114
3, 24192, Note_on_c, 9, 40, 122
3, 24264, Note_on_c, 9, 40, 0
3, 24264, Note_on_c, 9, 42, 0
3, 24384, Note_on_c, 9, 42, 54
3, 24408, Note_on_c, 9, 42, 0
3, 24480, Note_on_c, 9, 42, 66
3, 24504, Note_on_c, 9, 42, 0
3, 24576, Note_on_c, 9, 42, 114
3, 24576, Note_on_c, 9, 35, 120
3, 24648, Note_on_c, 9, 35, 0
3, 24648, Note_on_c, 9, 42, 0
3, 24672, Note_on_c, 9, 70, 74
3, 24752, Note_on_c, 9, 70, 0
3, 24768, Note_on_c, 9, 42, 54
3, 24768, Note_on_c, 9, 82, 64
3, 24840, Note_on_c, 9, 42, 0
3, 24864, Note_on_c, 9, 82, 0
3, 24864, Note_on_c, 9, 69, 54
3, 24912, Note_on_c, 9, 69, 0
3, 24960, Note_on_c, 9, 42, 114
3, 24960, Note_on_c, 9, 40, 122
3, 25032, Note_on_c, 9, 40, 0
3, 25032, Note_on_c, 9, 42, 0
3, 25152, Note_on_c, 9, 42, 54
3, 25152, Note_on_c, 9, 35, 120
3, 25224, Note_on_c, 9, 35, 0
3, 25224, Note_on_c, 9, 42, 0
3, 25344, Note_on_c, 9, 42, 114
3, 25344, Note_on_c, 9, 35, 120
3, 25376, Note_on_c, 9, 42, 0
3, 25416, Note_on_c, 9, 35, 0
3, 25440, Note_on_c, 9, 42, 58
3, 25472, Note_on_c, 9, 42, 0
3, 25536, Note_on_c, 9, 70, 94
3, 25536, Note_on_c, 9, 42, 54
3, 25608, Note_on_c, 9, 42, 0
3, 25616, Note_on_c, 9, 70, 0
3, 25728, Note_on_c, 9, 42, 114
3, 25728, Note_on_c, 9, 40, 122
3, 25800, Note_on_c, 9, 40, 0
3, 25800, Note_on_c, 9, 42, 0
3, 25920, Note_on_c, 9, 42, 54
3, 25944, Note_on_c, 9, 42, 0
3, 26016, Note_on_c, 9, 42, 66
3, 26040, Note_on_c, 9, 42, 0
3, 26112, Note_on_c, 9, 42, 114
3, 26112, Note_on_c, 9, 35, 120
3, 26184, Note_on_c, 9, 35, 0
3, 26184, Note_on_c, 9, 42, 0
3, 26208, Note_on_c, 9, 70, 74
3, 26288, Note_on_c, 9, 70, 0
3, 26304, Note_on_c, 9, 42, 54
3, 26304, Note_on_c, 9, 82, 64
3, 26376, Note_on_c, 9, 42, 0
3, 26400, Note_on_c, 9, 82, 0
3, 26400, Note_on_c, 9, 69, 54
3, 26448, Note_on_c, 9, 69, 0
3, 26496, Note_on_c, 9, 42, 114
3, 26496, Note_on_c, 9, 40, 122
3, 26568, Note_on_c, 9, 40, 0
3, 26568, Note_on_c, 9, 42, 0
3, 26688, Note_on_c, 9, 42, 54
3, 26688, Note_on_c, 9, 35, 120
3, 26760, Note_on_c, 9, 35, 0
3, 26760, Note_on_c, 9, 42, 0
3, 26880, Note_on_c, 9, 42, 114
3, 26880, Note_on_c, 9, 35, 120
3, 26912, Note_on_c, 9, 42, 0
3, 26952, Note_on_c, 9, 35, 0
3, 26976, Note_on_c, 9, 42, 58
3, 27008, Note_on_c, 9, 42, 0
3, 27072, Note_on_c, 9, 70, 94
3, 27072, Note_on_c, 9, 42, 54
3, 27144, Note_on_c, 9, 42, 0
3, 27152, Note_on_c, 9, 70, 0
3, 27264, Note_on_c, 9, 42, 114
3, 27264, Note_on_c, 9, 40, 122
3, 27336, Note_on_c, 9, 40, 0
3, 27336, Note_on_c, 9, 42, 0
3, 27456, Note_on_c, 9, 42, 54
3, 27480, Note_on_c, 9, 42, 0
3, 27552, Note_on_c, 9, 42, 66
3, 27576, Note_on_c, 9, 42, 0
3, 27648, Note_on_c, 9, 49, 104
3, 27648, Note_on_c, 9, 42, 114
3, 27648, Note_on_c, 9, 35, 120
3, 27712, Note_on_c, 9, 49, 0
3, 27720, Note_on_c, 9, 35, 0
3, 27720, Note_on_c, 9, 42, 0
3, 27744, Note_on_c, 9, 70, 74
3, 27824, Note_on_c, 9, 70, 0
3, 27840, Note_on_c, 9, 42, 54
3, 27840, Note_on_c, 9, 82, 64
3, 27912, Note_on_c, 9, 42, 0
3, 27936, Note_on_c, 9, 82, 0
3, 27936, Note_on_c, 9, 69, 54
3, 27984, Note_on_c, 9, 69, 0
3, 28032, Note_on_c, 9, 42, 114
3, 28032, Note_on_c, 9, 40, 122
3, 28104, Note_on_c, 9, 40, 0
3, 28104, Note_on_c, 9, 42, 0
3, 28224, Note_on_c, 9, 42, 54
3, 28224, Note_on_c, 9, 35, 120
3, 28296, Note_on_c, 9, 35, 0
3, 28296, Note_on_c, 9, 42, 0
3, 28416, Note_on_c, 9, 42, 114
3, 28416, Note_on_c, 9, 35, 120
3, 28448, Note_on_c, 9, 42, 0
3, 28488, Note_on_c, 9, 35, 0
3, 28512, Note_on_c, 9, 42, 58
3, 28544, Note_on_c, 9, 42, 0
3, 28608, Note_on_c, 9, 70, 94
3, 28608, Note_on_c, 9, 42, 54
3, 28680, Note_on_c, 9, 42, 0
3, 28688, Note_on_c, 9, 70, 0
3, 28800, Note_on_c, 9, 42, 114
3, 28800, Note_on_c, 9, 40, 122
3, 28872, Note_on_c, 9, 40, 0
3, 28872, Note_on_c, 9, 42, 0
3, 28992, Note_on_c, 9, 42, 54
3, 29016, Note_on_c, 9, 42, 0
3, 29088, Note_on_c, 9, 42, 66
3, 29112, Note_on_c, 9, 42, 0
3, 29184, Note_on_c, 9, 42, 114
3, 29184, Note_on_c, 9, 35, 120
3, 29256, Note_on_c, 9, 35, 0
3, 29256, Note_on_c, 9, 42, 0
3, 29280, Note_on_c, 9, 70, 74
3, 29360, Note_on_c, 9, 70, 0
3, 29376, Note_on_c, 9, 42, 54
3, 29376, Note_on_c, 9, 82, 64
3, 29448, Note_on_c, 9, 42, 0
3, 29472, Note_on_c, 9, 82, 0
3, 29472, Note_on_c, 9, 69, 54
3, 29520, Note_on_c, 9, 69, 0
3, 29568, Note_on_c, 9, 42, 114
3, 29568, Note_on_c, 9, 40, 122
3, 29640, Note_on_c, 9, 40, 0
3, 29640, Note_on_c, 9, 42, 0
3, 29760, Note_on_c, 9, 42, 54
3, 29760, Note_on_c, 9, 35, 120
3, 29832, Note_on_c, 9, 35, 0
3, 29832, Note_on_c, 9, 42, 0
3, 29952, Note_on_c, 9, 42, 114
3, 29952, Note_on_c, 9, 35, 120
3, 29984, Note_on_c, 9, 42, 0
3, 30024, Note_on_c, 9, 35, 0
3, 30048, Note_on_c, 9, 42, 58
3, 30080, Note_on_c, 9, 42, 0
3, 30144, Note_on_c, 9, 70, 94
3, 30144, Note_on_c, 9, 42, 54
3, 30216, Note_on_c, 9, 42, 0
3, 30224, Note_on_c, 9, 70, 0
3, 30336, Note_on_c, 9, 42, 114
3, 30336, Note_on_c, 9, 40, 122
3, 30408, Note_on_c, 9, 40, 0
3, 30408, Note_on_c, 9, 42, 0
3, 30528, Note_on_c, 9, 42, 54
3, 30552, Note_on_c, 9, 42, 0
3, 30624, Note_on_c, 9, 42, 66
3, 30648, Note_on_c, 9, 42, 0
3, 30720, Note_on_c, 9, 42, 114
3, 30720, Note_on_c, 9, 35, 120
3, 30792, Note_on_c, 9, 35, 0
3, 30792, Note_on_c, 9, 42, 0
3, 30816, Note_on_c, 9, 70, 74
3, 30896, Note_on_c, 9, 70, 0
3, 30912, Note_on_c, 9, 42, 54
3, 30912, Note_on_c, 9, 82, 64
3, 30984, Note_on_c, 9, 42, 0
3, 31008, Note_on_c, 9, 82, 0
3, 31008, Note_on_c, 9, 69, 54
3, 31056, Note_on_c, 9, 69, 0
3, 31104, Note_on_c, 9, 42, 114
3, 31104, Note_on_c, 9, 40, 122
3, 31176, Note_on_c, 9, 40, 0
3, 31176, Note_on_c, 9, 42, 0
3, 31296, Note_on_c, 9, 42, 54
3, 31296, Note_on_c, 9, 35, 120
3, 31368, Note_on_c, 9, 35, 0
3, 31368, Note_on_c, 9, 42, 0
3, 31488, Note_on_c, 9, 42, 114
3, 31488, Note_on_c, 9, 35, 120
3, 31520, Note_on_c, 9, 42, 0
3, 31560, Note_on_c, 9, 35, 0
3, 31584, Note_on_c, 9, 42, 58
3, 31616, Note_on_c, 9, 42, 0
3, 31680, Note_on_c, 9, 70, 94
3, 31680, Note_on_c, 9, 42, 54
3, 31752, Note_on_c, 9, 42, 0
3, 31760, Note_on_c, 9, 70, 0
3, 31872, Note_on_c, 9, 42, 114
3, 31872, Note_on_c, 9, 40, 122
3, 31944, Note_on_c, 9, 40, 0
3, 31944, Note_on_c, 9, 42, 0
3, 32064, Note_on_c, 9, 42, 54
3, 32088, Note_on_c, 9, 42, 0
3, 32160, Note_on_c, 9, 42, 66
3, 32184, Note_on_c, 9, 42, 0
3, 32256, Note_on_c, 9, 42, 114
3, 32256, Note_on_c, 9, 35, 120
3, 32328, Note_on_c, 9, 35, 0
3, 32328, Note_on_c, 9, 42, 0
3, 32352, Note_on_c, 9, 70, 74
3, 32432, Note_on_c, 9, 70, 0
3, 32448, Note_on_c, 9, 42, 54
3, 32448, Note_on_c, 9, 82, 64
3, 32520, Note_on_c, 9, 42, 0
3, 32544, Note_on_c, 9, 82, 0
3, 32544, Note_on_c, 9, 69, 54
3, 32592, Note_on_c, 9, 69, 0
3, 32640, Note_on_c, 9, 42, 114
3, 32640, Note_on_c, 9, 40, 122
3, 32712, Note_on_c, 9, 40, 0
3, 32712, Note_on_c, 9, 42, 0
3, 32832, Note_on_c, 9, 42, 54
3, 32832, Note_on_c, 9, 35, 120
3, 32904, Note_on_c, 9, 35, 0
3, 32904, Note_on_c, 9, 42, 0
3, 33024, Note_on_c, 9, 42, 114
3, 33024, Note_on_c, 9, 35, 120
3, 33056, Note_on_c, 9, 42, 0
3, 33096, Note_on_c, 9, 35, 0
3, 33120, Note_on_c, 9, 42, 58
3, 33152, Note_on_c, 9, 42, 0
3, 33216, Note_on_c, 9, 70, 94
3, 33216, Note_on_c, 9, 42, 54
3, 33288, Note_on_c, 9, 42, 0
3, 33296, Note_on_c, 9, 70, 0
3, 33408, Note_on_c, 9, 42, 114
3, 33408, Note_on_c, 9, 40, 122
3, 33480, Note_on_c, 9, 40, 0
3, 33480, Note_on_c, 9, 42, 0
3, 33600, Note_on_c, 9, 42, 54
3, 33624, Note_on_c, 9, 42, 0
3, 33696, Note_on_c, 9, 42, 66
3, 33720, Note_on_c, 9, 42, 0
3, 33792, Note_on_c, 9, 42, 114
3, 33792, Note_on_c, 9, 35, 120
3, 33864, Note_on_c, 9, 35, 0
3, 33864, Note_on_c, 9, 42, 0
3, 33888, Note_on_c, 9, 70, 74
3, 33968, Note_on_c, 9, 70, 0
3, 33984, Note_on_c, 9, 42, 54
3, 33984, Note_on_c, 9, 82, 64
3, 34056, Note_on_c, 9, 42, 0
3, 34080, Note_on_c, 9, 82, 0
3, 34080, Note_on_c, 9, 69, 54
3, 34128, Note_on_c, 9, 69, 0
3, 34176, Note_on_c, 9, 42, 114
3, 34176, Note_on_c, 9, 40, 122
3, 34248, Note_on_c, 9, 40, 0
3, 34248, Note_on_c, 9, 42, 0
3, 34368, Note_on_c, 9, 42, 54
3, 34368, Note_on_c, 9, 35, 120
3, 34440, Note_on_c, 9, 35, 0
3, 34440, Note_on_c, 9, 42, 0
3, 34560, Note_on_c, 9, 42, 114
3, 34560, Note_on_c, 9, 35, 120
3, 34592, Note_on_c, 9, 42, 0
3, 34632, Note_on_c, 9, 35, 0
3, 34656, Note_on_c, 9, 42, 58
3, 34688, Note_on_c, 9, 42, 0
3, 34752, Note_on_c, 9, 70, 94
3, 34752, Note_on_c, 9, 42, 54
3, 34824, Note_on_c, 9, 42, 0
3, 34832, Note_on_c, 9, 70, 0
3, 34944, Note_on_c, 9, 42, 114
3, 34944, Note_on_c, 9, 40, 122
3, 35016, Note_on_c, 9, 40, 0
3, 35016, Note_on_c, 9, 42, 0
3, 35136, Note_on_c, 9, 42, 54
3, 35160, Note_on_c, 9, 42, 0
3, 35232, Note_on_c, 9, 42, 66
3, 35256, Note_on_c, 9, 42, 0
3, 35328, Note_on_c, 9, 42, 114
3, 35328, Note_on_c, 9, 35, 120
3, 35400, Note_on_c, 9, 35, 0
3, 35400, Note_on_c, 9, 42, 0
3, 35424, Note_on_c, 9, 70, 74
3, 35504, Note_on_c, 9, 70, 0
3, 35520, Note_on_c, 9, 42, 54
3, 35520, Note_on_c, 9, 82, 64
3, 35592, Note_on_c, 9, 42, 0
3, 35616, Note_on_c, 9, 82, 0
3, 35616, Note_on_c, 9, 69, 54
3, 35664, Note_on_c, 9, 69, 0
3, 35712, Note_on_c, 9, 42, 114
3, 35712, Note_on_c, 9, 40, 122
3, 35784, Note_on_c, 9, 40, 0
3, 35784, Note_on_c, 9, 42, 0
3, 35904, Note_on_c, 9, 42, 54
3, 35904, Note_on_c, 9, 35, 120
3, 35976, Note_on_c, 9, 35, 0
3, 35976, Note_on_c, 9, 42, 0
3, 36096, Note_on_c, 9, 42, 114
3, 36096, Note_on_c, 9, 35, 120
3, 36128, Note_on_c, 9, 42, 0
3, 36168, Note_on_c, 9, 35, 0
3, 36192, Note_on_c, 9, 42, 58
3, 36224, Note_on_c, 9, 42, 0
3, 36288, Note_on_c, 9, 70, 94
3, 36288, Note_on_c, 9, 42, 54
3, 36360, Note_on_c, 9, 42, 0
3, 36368, Note_on_c, 9, 70, 0
3, 36480, Note_on_c, 9, 42, 114
3, 36480, Note_on_c, 9, 40, 122
3, 36552, Note_on_c, 9, 40, 0
3, 36552, Note_on_c, 9, 42, 0
3, 36672, Note_on_c, 9, 42, 54
3, 36696, Note_on_c, 9, 42, 0
3, 36768, Note_on_c, 9, 42, 66
3, 36792, Note_on_c, 9, 42, 0
3, 36864, Note_on_c, 9, 42, 114
3, 36864, Note_on_c, 9, 35, 120
3, 36936, Note_on_c, 9, 35, 0
3, 36936, Note_on_c, 9, 42, 0
3, 36960, Note_on_c, 9, 70, 74
3, 37040, Note_on_c, 9, 70, 0
3, 37056, Note_on_c, 9, 42, 54
3, 37056, Note_on_c, 9, 82, 64
3, 37128, Note_on_c, 9, 42, 0
3, 37152, Note_on_c, 9, 82, 0
3, 37152, Note_on_c, 9, 69, 54
3, 37200, Note_on_c, 9, 69, 0
3, 37248, Note_on_c, 9, 42, 114
3, 37248, Note_on_c, 9, 40, 122
3, 37320, Note_on_c, 9, 40, 0
3, 37320, Note_on_c, 9, 42, 0
3, 37440, Note_on_c, 9, 42, 54
3, 37440, Note_on_c, 9, 35, 120
3, 37512, Note_on_c, 9, 35, 0
3, 37512, Note_on_c, 9, 42, 0
3, 37632, Note_on_c, 9, 42, 114
3, 37632, Note_on_c, 9, 35, 120
3, 37664, Note_on_c, 9, 42, 0
3, 37704, Note_on_c, 9, 35, 0
3, 37728, Note_on_c, 9, 42, 58
3, 37760, Note_on_c, 9, 42, 0
3, 37824, Note_on_c, 9, 70, 94
3, 37824, Note_on_c, 9, 42, 54
3, 37896, Note_on_c, 9, 42, 0
3, 37904, Note_on_c, 9, 70, 0
3, 38016, Note_on_c, 9, 42, 114
3, 38016, Note_on_c, 9, 40, 122
3, 38088, Note_on_c, 9, 40, 0
3, 38088, Note_on_c, 9, 42, 0
3, 38208, Note_on_c, 9, 42, 54
3, 38232, Note_on_c, 9, 42, 0
3, 38304, Note_on_c, 9, 42, 66
3, 38328, Note_on_c, 9, 42, 0
3, 38400, Note_on_c, 9, 42, 114
3, 38400, Note_on_c, 9, 35, 120
3, 38472, Note_on_c, 9, 35, 0
3, 38472, Note_on_c, 9, 42, 0
3, 38496, Note_on_c, 9, 70, 74
3, 38576, Note_on_c, 9, 70, 0
3, 38592, Note_on_c, 9, 42, 54
3, 38592, Note_on_c, 9, 82, 64
3, 38664, Note_on_c, 9, 42, 0
3, 38688, Note_on_c, 9, 82, 0
3, 38688, Note_on_c, 9, 69, 54
3, 38736, Note_on_c, 9, 69, 0
3, 38784, Note_on_c, 9, 42, 114
3, 38784, Note_on_c, 9, 40, 122
3, 38856, Note_on_c, 9, 40, 0
3, 38856, Note_on_c, 9, 42, 0
3, 38976, Note_on_c, 9, 42, 54
3, 38976, Note_on_c, 9, 35, 120
3, 39048, Note_on_c, 9, 35, 0
3, 39048, Note_on_c, 9, 42, 0
3, 39168, Note_on_c, 9, 42, 114
3, 39168, Note_on_c, 9, 35, 120
3, 39200, Note_on_c, 9, 42, 0
3, 39240, Note_on_c, 9, 35, 0
3, 39264, Note_on_c, 9, 42, 58
3, 39296, Note_on_c, 9, 42, 0
3, 39360, Note_on_c, 9, 70, 94
3, 39360, Note_on_c, 9, 42, 54
3, 39432, Note_on_c, 9, 42, 0
3, 39440, Note_on_c, 9, 70, 0
3, 39552, Note_on_c, 9, 42, 114
3, 39552, Note_on_c, 9, 40, 122
3, 39624, Note_on_c, 9, 40, 0
3, 39624, Note_on_c, 9, 42, 0
3, 39744, Note_on_c, 9, 42, 54
3, 39768, Note_on_c, 9, 42, 0
3, 39840, Note_on_c, 9, 42, 66
3, 39864, Note_on_c, 9, 42, 0
3, 39936, Note_on_c, 9, 42, 114
3, 39936, Note_on_c, 9, 35, 120
3, 40008, Note_on_c, 9, 35, 0
3, 40008, Note_on_c, 9, 42, 0
3, 40032, Note_on_c, 9, 70, 74
3, 40112, Note_on_c, 9, 70, 0
3, 40128, Note_on_c, 9, 42, 54
3, 40128, Note_on_c, 9, 82, 64
3, 40200, Note_on_c, 9, 42, 0
3, 40224, Note_on_c, 9, 82, 0
3, 40224, Note_on_c, 9, 69, 54
3, 40272, Note_on_c, 9, 69, 0
3, 40320, Note_on_c, 9, 42, 114
3, 40320, Note_on_c, 9, 40, 122
3, 40392, Note_on_c, 9, 40, 0
3, 40392, Note_on_c, 9, 42, 0
3, 40512, Note_on_c, 9, 42, 54
3, 40512, Note_on_c, 9, 35, 120
3, 40584, Note_on_c, 9, 35, 0
3, 40584, Note_on_c, 9, 42, 0
3, 40704, Note_on_c, 9, 42, 114
3, 40704, Note_on_c, 9, 35, 120
3, 40736, Note_on_c, 9, 42, 0
3, 40776, Note_on_c, 9, 35, 0
3, 40800, Note_on_c, 9, 42, 58
3, 40832, Note_on_c, 9, 42, 0
3, 40896, Note_on_c, 9, 70, 94
3, 40896, Note_on_c, 9, 42, 54
3, 40968, Note_on_c, 9, 42, 0
3, 40976, Note_on_c, 9, 70, 0
3, 41088, Note_on_c, 9, 42, 114
3, 41088, Note_on_c, 9, 40, 122
3, 41160, Note_on_c, 9, 40, 0
3, 41160, Note_on_c, 9, 42, 0
3, 41280, Note_on_c, 9, 42, 54
3, 41304, Note_on_c, 9, 42, 0
3, 41376, Note_on_c, 9, 42, 66
3, 41400, Note_on_c, 9, 42, 0
3, 41472, Note_on_c, 9, 42, 114
3, 41472, Note_on_c, 9, 35, 120
3, 41544, Note_on_c, 9, 35, 0
3, 41544, Note_on_c, 9, 42, 0
3, 41568, Note_on_c, 9, 70, 74
3, 41648, Note_on_c, 9, 70, 0
3, 41664, Note_on_c, 9, 42, 54
3, 41664, Note_on_c, 9, 82, 64
3, 41736, Note_on_c, 9, 42, 0
3, 41760, Note_on_c, 9, 82, 0
3, 41760, Note_on_c, 9, 69, 54
3, 41808, Note_on_c, 9, 69, 0
3, 41856, Note_on_c, 9, 42, 114
3, 41856, Note_on_c, 9, 40, 122
3, 41928, Note_on_c, 9, 40, 0
3, 41928, Note_on_c, 9, 42, 0
3, 42048, Note_on_c, 9, 42, 54
3, 42048, Note_on_c, 9, 35, 120
3, 42120, Note_on_c, 9, 35, 0
3, 42120, Note_on_c, 9, 42, 0
3, 42240, Note_on_c, 9, 42, 114
3, 42240, Note_on_c, 9, 35, 120
3, 42272, Note_on_c, 9, 42, 0
3, 42312, Note_on_c, 9, 35, 0
3, 42336, Note_on_c, 9, 42, 58
3, 42368, Note_on_c, 9, 42, 0
3, 42432, Note_on_c, 9, 70, 94
3, 42432, Note_on_c, 9, 42, 54
3, 42504, Note_on_c, 9, 42, 0
3, 42512, Note_on_c, 9, 70, 0
3, 42624, Note_on_c, 9, 42, 114
3, 42624, Note_on_c, 9, 40, 122
3, 42696, Note_on_c, 9, 40, 0
3, 42696, Note_on_c, 9, 42, 0
3, 42816, Note_on_c, 9, 42, 54
3, 42840, Note_on_c, 9, 42, 0
3, 42912, Note_on_c, 9, 42, 66
3, 42936, Note_on_c, 9, 42, 0
3, 43008, Note_on_c, 9, 42, 114
3, 43008, Note_on_c, 9, 35, 120
3, 43080, Note_on_c, 9, 35, 0
3, 43080, Note_on_c, 9, 42, 0
3, 43104, Note_on_c, 9, 70, 74
3, 43184, Note_on_c, 9, 70, 0
3, 43200, Note_on_c, 9, 42, 54
3, 43200, Note_on_c, 9, 82, 64
3, 43272, Note_on_c, 9, 42, 0
3, 43296, Note_on_c, 9, 82, 0
3, 43296, Note_on_c, 9, 69, 54
3, 43344, Note_on_c, 9, 69, 0
3, 43392, Note_on_c, 9, 42, 114
3, 43392, Note_on_c, 9, 40, 122
3, 43464, Note_on_c, 9, 40, 0
3, 43464, Note_on_c, 9, 42, 0
3, 43584, Note_on_c, 9, 42, 54
3, 43584, Note_on_c, 9, 35, 120
3, 43656, Note_on_c, 9, 35, 0
3, 43656, Note_on_c, 9, 42, 0
3, 43776, Note_on_c, 9, 42, 114
3, 43776, Note_on_c, 9, 35, 120
3, 43808, Note_on_c, 9, 42, 0
3, 43848, Note_on_c, 9, 35, 0
3, 43872, Note_on_c, 9, 42, 58
3, 43904, Note_on_c, 9, 42, 0
3, 43968, Note_on_c, 9, 70, 94
3, 43968, Note_on_c, 9, 42, 54
3, 44040, Note_on_c, 9, 42, 0
3, 44048, Note_on_c, 9, 70, 0
3, 44160, Note_on_c, 9, 42, 114
3, 44160, Note_on_c, 9, 40, 122
3, 44232, Note_on_c, 9, 40, 0
3, 44232, Note_on_c, 9, 42, 0
3, 44352, Note_on_c, 9, 42, 54
3, 44376, Note_on_c, 9, 42, 0
3, 44448, Note_on_c, 9, 42, 66
3, 44472, Note_on_c, 9, 42, 0
3, 44544, Note_on_c, 9, 42, 114
3, 44544, Note_on_c, 9, 35, 120
3, 44616, Note_on_c, 9, 35, 0
3, 44616, Note_on_c, 9, 42, 0
3, 44640, Note_on_c, 9, 70, 74
3, 44720, Note_on_c, 9, 70, 0
3, 44736, Note_on_c, 9, 42, 54
3, 44736, Note_on_c, 9, 82, 64
3, 44808, Note_on_c, 9, 42, 0
3, 44832, Note_on_c, 9, 82, 0
3, 44832, Note_on_c, 9, 69, 54
3, 44880, Note_on_c, 9, 69, 0
3, 44928, Note_on_c, 9, 42, 114
3, 44928, Note_on_c, 9, 40, 122
3, 45000, Note_on_c, 9, 40, 0
3, 45000, Note_on_c, 9, 42, 0
3, 45120, Note_on_c, 9, 42, 54
3, 45120, Note_on_c, 9, 35, 120
3, 45192, Note_on_c, 9, 35, 0
3, 45192, Note_on_c, 9, 42, 0
3, 45312, Note_on_c, 9, 42, 114
3, 45312, Note_on_c, 9, 35, 120
3, 45344, Note_on_c, 9, 42, 0
3, 45384, Note_on_c, 9, 35, 0
3, 45408, Note_on_c, 9, 42, 58
3, 45440, Note_on_c, 9, 42, 0
3, 45504, Note_on_c, 9, 70, 94
3, 45504, Note_on_c, 9, 42, 54
3, 45576, Note_on_c, 9, 42, 0
3, 45584, Note_on_c, 9, 70, 0
3, 45696, Note_on_c, 9, 42, 114
3, 45696, Note_on_c, 9, 40, 122
3, 45768, Note_on_c, 9, 40, 0
3, 45768, Note_on_c, 9, 42, 0
3, 45888, Note_on_c, 9, 42, 54
3, 45912, Note_on_c, 9, 42, 0
3, 45984, Note_on_c, 9, 42, 66
3, 46008, Note_on_c, 9, 42, 0
3, 46080, Note_on_c, 9, 42, 114
3, 46080, Note_on_c, 9, 35, 120
3, 46152, Note_on_c, 9, 35, 0
3, 46152, Note_on_c, 9, 42, 0
3, 46176, Note_on_c, 9, 70, 74
3, 46256, Note_on_c, 9, 70, 0
3, 46272, Note_on_c, 9, 42, 54
3, 46272, Note_on_c, 9, 82, 64
3, 46344, Note_on_c, 9, 42, 0
3, 46368, Note_on_c, 9, 82, 0
3, 46368, Note_on_c, 9, 69, 54
3, 46416, Note_on_c, 9, 69, 0
3, 46464, Note_on_c, 9, 42, 114
3, 46464, Note_on_c, 9, 40, 122
3, 46536, Note_on_c, 9, 40, 0
3, 46536, Note_on_c, 9, 42, 0
3, 46656, Note_on_c, 9, 42, 54
3, 46656, Note_on_c, 9, 35, 120
3, 46728, Note_on_c, 9, 35, 0
3, 46728, Note_on_c, 9, 42, 0
3, 46848, Note_on_c, 9, 42, 114
3, 46848, Note_on_c, 9, 35, 120
3, 46880, Note_on_c, 9, 42, 0
3, 46920, Note_on_c, 9, 35, 0
3, 46944, Note_on_c, 9, 42, 58
3, 46976, Note_on_c, 9, 42, 0
3, 47040, Note_on_c, 9, 70, 94
3, 47040, Note_on_c, 9, 42, 54
3, 47112, Note_on_c, 9, 42, 0
3, 47120, Note_on_c, 9, 70, 0
3, 47232, Note_on_c, 9, 42, 114
3, 47232, Note_on_c, 9, 40, 122
3, 47304, Note_on_c, 9, 40, 0
3, 47304, Note_on_c, 9, 42, 0
3, 47424, Note_on_c, 9, 42, 54
3, 47448, Note_on_c, 9, 42, 0
3, 47520, Note_on_c, 9, 42, 66
3, 47544, Note_on_c, 9, 42, 0
3, 47616, Note_on_c, 9, 42, 114
3, 47616, Note_on_c, 9, 35, 120
3, 47688, Note_on_c, 9, 35, 0
3, 47688, Note_on_c, 9, 42, 0
3, 47712, Note_on_c, 9, 70, 74
3, 47792, Note_on_c, 9, 70, 0
3, 47808, Note_on_c, 9, 42, 54
3, 47808, Note_on_c, 9, 82, 64
3, 47880, Note_on_c, 9, 42, 0
3, 47904, Note_on_c, 9, 82, 0
3, 47904, Note_on_c, 9, 69, 54
3, 47952, Note_on_c, 9, 69, 0
3, 48000, Note_on_c, 9, 42, 114
3, 48000, Note_on_c, 9, 40, 122
3, 48072, Note_on_c, 9, 40, 0
3, 48072, Note_on_c, 9, 42, 0
3, 48192, Note_on_c, 9, 42, 54
3, 48192, Note_on_c, 9, 35, 120
3, 48264, Note_on_c, 9, 35, 0
3, 48264, Note_on_c, 9, 42, 0
3, 48384, Note_on_c, 9, 42, 114
3, 48384, Note_on_c, 9, 35, 120
3, 48416, Note_on_c, 9, 42, 0
3, 48456, Note_on_c, 9, 35, 0
3, 48480, Note_on_c, 9, 42, 58
3, 48512, Note_on_c, 9, 42, 0
3, 48576, Note_on_c, 9, 70, 94
3, 48576, Note_on_c, 9, 42, 54
3, 48648, Note_on_c, 9, 42, 0
3, 48656, Note_on_c, 9, 70, 0
3, 48768, Note_on_c, 9, 42, 114
3, 48768, Note_on_c, 9, 40, 122
3, 48840, Note_on_c, 9, 40, 0
3, 48840, Note_on_c, 9, 42, 0
3, 48960, Note_on_c, 9, 42, 54
3, 48984, Note_on_c, 9, 42, 0
3, 49056, Note_on_c, 9, 42, 66
3, 49080, Note_on_c, 9, 42, 0
3, 49152, Note_on_c, 9, 42, 114
3, 49152, Note_on_c, 9, 35, 120
3, 49224, Note_on_c, 9, 35, 0
3, 49224, Note_on_c, 9, 42, 0
3, 49248, Note_on_c, 9, 70, 74
3, 49328, Note_on_c, 9, 70, 0
3, 49344, Note_on_c, 9, 42, 54
3, 49344, Note_on_c, 9, 82, 64
3, 49416, Note_on_c, 9, 42, 0
3, 49440, Note_on_c, 9, 82, 0
3, 49440, Note_on_c, 9, 69, 54
3, 49488, Note_on_c, 9, 69, 0
3, 49536, Note_on_c, 9, 42, 114
3, 49536, Note_on_c, 9, 40, 122
3, 49608, Note_on_c, 9, 40, 0
3, 49608, Note_on_c, 9, 42, 0
3, 49728, Note_on_c, 9, 42, 54
3, 49728, Note_on_c, 9, 35, 120
3, 49800, Note_on_c, 9, 35, 0
3, 49800, Note_on_c, 9, 42, 0
3, 49920, Note_on_c, 9, 42, 114
3, 49920, Note_on_c, 9, 35, 120
3, 49952, Note_on_c, 9, 42, 0
3, 49992, Note_on_c, 9, 35, 0
3, 50016, Note_on_c, 9, 42, 58
3, 50048, Note_on_c, 9, 42, 0
3, 50112, Note_on_c, 9, 70, 94
3, 50112, Note_on_c, 9, 42, 54
3, 50184, Note_on_c, 9, 42, 0
3, 50192, Note_on_c, 9, 70, 0
3, 50304, Note_on_c, 9, 42, 114
3, 50304, Note_on_c, 9, 40, 122
3, 50376, Note_on_c, 9, 40, 0
3, 50376, Note_on_c, 9, 42, 0
3, 50496, Note_on_c, 9, 42, 54
3, 50520, Note_on_c, 9, 42, 0
3, 50592, Note_on_c, 9, 42, 66
3, 50616, Note_on_c, 9, 42, 0
3, 50688, Note_on_c, 9, 42, 114
3, 50688, Note_on_c, 9, 35, 120
3, 50760, Note_on_c, 9, 35, 0
3, 50760, Note_on_c, 9, 42, 0
3, 50784, Note_on_c, 9, 70, 74
3, 50864, Note_on_c, 9, 70, 0
3, 50880, Note_on_c, 9, 42, 54
3, 50880, Note_on_c, 9, 82, 64
3, 50952, Note_on_c, 9, 42, 0
3, 50976, Note_on_c, 9, 82, 0
3, 50976, Note_on_c, 9, 69, 54
3, 51024, Note_on_c, 9, 69, 0
3, 51072, Note_on_c, 9, 42, 114
3, 51072, Note_on_c, 9, 40, 122
3, 51144, Note_on_c, 9, 40, 0
3, 51144, Note_on_c, 9, 42, 0
3, 51264, Note_on_c, 9, 42, 54
3, 51264, Note_on_c, 9, 35, 120
3, 51336, Note_on_c, 9, 35, 0
3, 51336, Note_on_c, 9, 42, 0
3, 51456, Note_on_c, 9, 42, 114
3, 51456, Note_on_c, 9, 35, 120
3, 51488, Note_on_c, 9, 42, 0
3, 51528, Note_on_c, 9, 35, 0
3, 51552, Note_on_c, 9, 42, 58
3, 51584, Note_on_c, 9, 42, 0
3, 51648, Note_on_c, 9, 70, 94
3, 51648, Note_on_c, 9, 42, 54
3, 51720, Note_on_c, 9, 42, 0
3, 51728, Note_on_c, 9, 70, 0
3, 51840, Note_on_c, 9, 42, 114
3, 51840, Note_on_c, 9, 40, 122
3, 51912, Note_on_c, 9, 40, 0
3, 51912, Note_on_c, 9, 42, 0
3, 52032, Note_on_c, 9, 42, 54
3, 52056, Note_on_c, 9, 42, 0
3, 52128, Note_on_c, 9, 42, 66
3, 52152, Note_on_c, 9, 42, 0
3, 52224, Note_on_c, 9, 42, 114
3, 52224, Note_on_c, 9, 35, 120
3, 52296, Note_on_c, 9, 35, 0
3, 52296, Note_on_c, 9, 42, 0
3, 52320, Note_on_c, 9, 70, 74
3, 52400, Note_on_c, 9, 70, 0
3, 52416, Note_on_c, 9, 42, 54
3, 52416, Note_on_c, 9, 82, 64
3, 52488, Note_on_c, 9, 42, 0
3, 52512, Note_on_c, 9, 82, 0
3, 52512, Note_on_c, 9, 69, 54
3, 52560, Note_on_c, 9, 69, 0
3, 52608, Note_on_c, 9, 42, 114
3, 52608, Note_on_c, 9, 40, 122
3, 52680, Note_on_c, 9, 40, 0
3, 52680, Note_on_c, 9, 42, 0
3, 52800, Note_on_c, 9, 42, 54
3, 52800, Note_on_c, 9, 35, 120
3, 52872, Note_on_c, 9, 35, 0
3, 52872, Note_on_c, 9, 42, 0
3, 52992, Note_on_c, 9, 42, 114
3, 52992, Note_on_c, 9, 35, 120
3, 53024, Note_on_c, 9, 42, 0
3, 53064, Note_on_c, 9, 35, 0
3, 53088, Note_on_c, 9, 42, 58
3, 53120, Note_on_c, 9, 42, 0
3, 53184, Note_on_c, 9, 70, 94
3, 53184, Note_on_c, 9, 42, 54
3, 53256, Note_on_c, 9, 42, 0
3, 53264, Note_on_c, 9, 70, 0
3, 53376, Note_on_c, 9, 42, 114
3, 53376, Note_on_c, 9, 40, 122
3, 53448, Note_on_c, 9, 40, 0
3, 53448, Note_on_c, 9, 42, 0
3, 53568, Note_on_c, 9, 42, 54
3, 53592, Note_on_c, 9, 42, 0
3, 53664, Note_on_c, 9, 42, 66
3, 53688, Note_on_c, 9, 42, 0
3, 53760, Note_on_c, 9, 42, 114
3, 53760, Note_on_c, 9, 35, 120
3, 53832, Note_on_c, 9, 35, 0
3, 53832, Note_on_c, 9, 42, 0
3, 53856, Note_on_c, 9, 70, 74
3, 53936, Note_on_c, 9, 70, 0
3, 53952, Note_on_c, 9, 42, 54
3, 53952, Note_on_c, 9, 82, 64
3, 54024, Note_on_c, 9, 42, 0
3, 54048, Note_on_c, 9, 82, 0
3, 54048, Note_on_c, 9, 69, 54
3, 54096, Note_on_c, 9, 69, 0
3, 54144, Note_on_c, 9, 42, 114
3, 54144, Note_on_c, 9, 40, 122
3, 54216, Note_on_c, 9, 40, 0
3, 54216, Note_on_c, 9, 42, 0
3, 54336, Note_on_c, 9, 42, 54
3, 54336, Note_on_c, 9, 35, 120
3, 54408, Note_on_c, 9, 35, 0
3, 54408, Note_on_c, 9, 42, 0
3, 54528, Note_on_c, 9, 42, 114
3, 54528, Note_on_c, 9, 35, 120
3, 54560, Note_on_c, 9, 42, 0
3, 54600, Note_on_c, 9, 35, 0
3, 54624, Note_on_c, 9, 42, 58
3, 54656, Note_on_c, 9, 42, 0
3, 54720, Note_on_c, 9, 70, 94
3, 54720, Note_on_c, 9, 42, 54
3, 54792, Note_on_c, 9, 42, 0
3, 54800, Note_on_c, 9, 70, 0
3, 54912, Note_on_c, 9, 42, 114
3, 54912, Note_on_c, 9, 40, 122
3, 54984, Note_on_c, 9, 40, 0
3, 54984, Note_on_c, 9, 42, 0
3, 55104, Note_on_c, 9, 42, 54
3, 55128, Note_on_c, 9, 42, 0
3, 55200, Note_on_c, 9, 42, 66
3, 55224, Note_on_c, 9, 42, 0
3, 55296, Note_on_c, 9, 42, 114
3, 55296, Note_on_c, 9, 35, 120
3, 55368, Note_on_c, 9, 35, 0
3, 55368, Note_on_c, 9, 42, 0
3, 55392, Note_on_c, 9, 70, 74
3, 55472, Note_on_c, 9, 70, 0
3, 55488, Note_on_c, 9, 42, 54
3, 55488, Note_on_c, 9, 82, 64
3, 55560, Note_on_c, 9, 42, 0
3, 55584, Note_on_c, 9, 82, 0
3, 55584, Note_on_c, 9, 69, 54
3, 55632, Note_on_c, 9, 69, 0
3, 55680, Note_on_c, 9, 42, 114
3, 55680, Note_on_c, 9, 40, 122
3, 55752, Note_on_c, 9, 40, 0
3, 55752, Note_on_c, 9, 42, 0
3, 55872, Note_on_c, 9, 42, 54
3, 55872, Note_on_c, 9, 35, 120
3, 55944, Note_on_c, 9, 35, 0
3, 55944, Note_on_c, 9, 42, 0
3, 56064, Note_on_c, 9, 42, 114
3, 56064, Note_on_c, 9, 35, 120
3, 56096, Note_on_c, 9, 42, 0
3, 56136, Note_on_c, 9, 35, 0
3, 56160, Note_on_c, 9, 42, 58
3, 56192, Note_on_c, 9, 42, 0
3, 56256, Note_on_c, 9, 70, 94
3, 56256, Note_on_c, 9, 42, 54
3, 56328, Note_on_c, 9, 42, 0
3, 56336, Note_on_c, 9, 70, 0
3, 56448, Note_on_c, 9, 42, 114
3, 56448, Note_on_c, 9, 40, 122
3, 56520, Note_on_c, 9, 40, 0
3, 56520, Note_on_c, 9, 42, 0
3, 56640, Note_on_c, 9, 42, 54
3, 56664, Note_on_c, 9, 42, 0
3, 56736, Note_on_c, 9, 42, 66
3, 56760, Note_on_c, 9, 42, 0
3, 56832, Note_on_c, 9, 42, 114
3, 56832, Note_on_c, 9, 35, 120
3, 56904, Note_on_c, 9, 35, 0
3, 56904, Note_on_c, 9, 42, 0
3, 56928, Note_on_c, 9, 70, 74
3, 57008, Note_on_c, 9, 70, 0
3, 57024, Note_on_c, 9, 42, 54
3, 57024, Note_on_c, 9, 82, 64
3, 57096, Note_on_c, 9, 42, 0
3, 57120, Note_on_c, 9, 82, 0
3, 57120, Note_on_c, 9, 69, 54
3, 57168, Note_on_c, 9, 69, 0
3, 57216, Note_on_c, 9, 40, 122
3, 57220, Note_on_c, 9, 42, 114
3, 57288, Note_on_c, 9, 42, 0
3, 57288, Note_on_c, 9, 40, 0
3, 57408, Note_on_c, 9, 42, 54
3, 57408, Note_on_c, 9, 35, 120
3, 57480, Note_on_c, 9, 35, 0
3, 57480, Note_on_c, 9, 42, 0
3, 57600, Note_on_c, 9, 42, 114
3, 57600, Note_on_c, 9, 35, 120
3, 57632, Note_on_c, 9, 42, 0
3, 57672, Note_on_c, 9, 35, 0
3, 57696, Note_on_c, 9, 42, 58
3, 57728, Note_on_c, 9, 42, 0
3, 57792, Note_on_c, 9, 70, 94
3, 57792, Note_on_c, 9, 42, 54
3, 57792, Note_on_c, 9, 40, 52
3, 57840, Note_on_c, 9, 40, 0
3, 57856, Note_on_c, 9, 40, 62
3, 57864, Note_on_c, 9, 42, 0
3, 57872, Note_on_c, 9, 70, 0
3, 57904, Note_on_c, 9, 40, 0
3, 57920, Note_on_c, 9, 40, 70
3, 57968, Note_on_c, 9, 40, 0
3, 57984, Note_on_c, 9, 42, 114
3, 57984, Note_on_c, 9, 40, 122
3, 58056, Note_on_c, 9, 40, 0
3, 58060, Note_on_c, 9, 42, 0
3, 58176, Note_on_c, 9, 45, 114
3, 58176, Note_on_c, 9, 42, 54
3, 58200, Note_on_c, 9, 42, 0
3, 58248, Note_on_c, 9, 45, 0
3, 58272, Note_on_c, 9, 42, 66
3, 58296, Note_on_c, 9, 42, 0
3, 58368, Note_on_c, 9, 35, 120
3, 58368, Note_on_c, 9, 40, 122
3, 58440, Note_on_c, 9, 40, 0
3, 58440, Note_on_c, 9, 35, 0
3, 58464, Note_on_c, 9, 70, 74
3, 58544, Note_on_c, 9, 70, 0
3, 58560, Note_on_c, 9, 42, 54
3, 58560, Note_on_c, 9, 82, 64
3, 58564, Note_on_c, 9, 80, 50
3, 58616, Note_on_c, 9, 80, 0
3, 58632, Note_on_c, 9, 42, 0
3, 58656, Note_on_c, 9, 82, 0
3, 58656, Note_on_c, 9, 69, 54
3, 58704, Note_on_c, 9, 69, 0
3, 58752, Note_on_c, 9, 57, 104
3, 58752, Note_on_c, 9, 39, 114
3, 58752, Note_on_c, 9, 42, 114
3, 58752, Note_on_c, 9, 40, 122
3, 58756, Note_on_c, 9, 80, 66
3, 58816, Note_on_c, 9, 80, 0
3, 58824, Note_on_c, 9, 42, 0
3, 58824, Note_on_c, 9, 57, 0
3, 58824, Note_on_c, 9, 39, 0
3, 58824, Note_on_c, 9, 40, 0
3, 58944, Note_on_c, 9, 42, 54
3, 58944, Note_on_c, 9, 35, 120
3, 58948, Note_on_c, 9, 81, 82
3, 59016, Note_on_c, 9, 35, 0
3, 59016, Note_on_c, 9, 42, 0
3, 59024, Note_on_c, 9, 81, 0
3, 59136, Note_on_c, 9, 35, 120
3, 59136, Note_on_c, 9, 42, 114
3, 59168, Note_on_c, 9, 42, 0
3, 59208, Note_on_c, 9, 35, 0
3, 59232, Note_on_c, 9, 42, 58
3, 59232, Note_on_c, 9, 81, 78
3, 59264, Note_on_c, 9, 42, 0
3, 59304, Note_on_c, 9, 81, 0
3, 59328, Note_on_c, 9, 70, 94
3, 59328, Note_on_c, 9, 80, 62
3, 59332, Note_on_c, 9, 42, 54
3, 59400, Note_on_c, 9, 42, 0
3, 59408, Note_on_c, 9, 70, 0
3, 59416, Note_on_c, 9, 80, 0
3, 59520, Note_on_c, 9, 39, 114
3, 59520, Note_on_c, 9, 40, 122
3, 59524, Note_on_c, 9, 42, 114
3, 59524, Note_on_c, 9, 81, 72
3, 59592, Note_on_c, 9, 42, 0
3, 59592, Note_on_c, 9, 39, 0
3, 59592, Note_on_c, 9, 40, 0
3, 59632, Note_on_c, 9, 81, 0
3, 59712, Note_on_c, 9, 42, 54
3, 59712, Note_on_c, 9, 80, 80
3, 59736, Note_on_c, 9, 42, 0
3, 59776, Note_on_c, 9, 80, 0
3, 59808, Note_on_c, 9, 42, 66
3, 59832, Note_on_c, 9, 42, 0
3, 59908, Note_on_c, 9, 42, 114
3, 59908, Note_on_c, 9, 35, 120
3, 59908, Note_on_c, 9, 81, 80
3, 59976, Note_on_c, 9, 35, 0
3, 59976, Note_on_c, 9, 42, 0
3, 59992, Note_on_c, 9, 81, 0
3, 60000, Note_on_c, 9, 70, 74
3, 60080, Note_on_c, 9, 70, 0
3, 60096, Note_on_c, 9, 42, 54
3, 60096, Note_on_c, 9, 82, 64
3, 60100, Note_on_c, 9, 80, 50
3, 60152, Note_on_c, 9, 80, 0
3, 60168, Note_on_c, 9, 42, 0
3, 60192, Note_on_c, 9, 82, 0
3, 60192, Note_on_c, 9, 69, 54
3, 60240, Note_on_c, 9, 69, 0
3, 60288, Note_on_c, 9, 39, 114
3, 60288, Note_on_c, 9, 40, 122
3, 60292, Note_on_c, 9, 42, 114
3, 60292, Note_on_c, 9, 80, 66
3, 60352, Note_on_c, 9, 80, 0
3, 60360, Note_on_c, 9, 39, 0
3, 60360, Note_on_c, 9, 40, 0
3, 60364, Note_on_c, 9, 42, 0
3, 60480, Note_on_c, 9, 35, 120
3, 60480, Note_on_c, 9, 42, 54
3, 60480, Note_on_c, 9, 81, 82
3, 60552, Note_on_c, 9, 42, 0
3, 60552, Note_on_c, 9, 35, 0
3, 60560, Note_on_c, 9, 81, 0
3, 60672, Note_on_c, 9, 42, 114
3, 60672, Note_on_c, 9, 35, 120
3, 60704, Note_on_c, 9, 42, 0
3, 60744, Note_on_c, 9, 35, 0
3, 60768, Note_on_c, 9, 42, 58
3, 60768, Note_on_c, 9, 81, 78
3, 60800, Note_on_c, 9, 42, 0
3, 60840, Note_on_c, 9, 81, 0
3, 60864, Note_on_c, 9, 70, 94
3, 60864, Note_on_c, 9, 42, 54
3, 60864, Note_on_c, 9, 80, 62
3, 60936, Note_on_c, 9, 42, 0
3, 60944, Note_on_c, 9, 70, 0
3, 60952, Note_on_c, 9, 80, 0
3, 61056, Note_on_c, 9, 39, 114
3, 61056, Note_on_c, 9, 40, 122
3, 61060, Note_on_c, 9, 42, 114
3, 61060, Note_on_c, 9, 81, 72
3, 61128, Note_on_c, 9, 40, 0
3, 61128, Note_on_c, 9, 39, 0
3, 61132, Note_on_c, 9, 42, 0
3, 61168, Note_on_c, 9, 81, 0
3, 61248, Note_on_c, 9, 42, 54
3, 61248, Note_on_c, 9, 80, 80
3, 61272, Note_on_c, 9, 42, 0
3, 61312, Note_on_c, 9, 80, 0
3, 61344, Note_on_c, 9, 42, 66
3, 61368, Note_on_c, 9, 42, 0
3, 61444, Note_on_c, 9, 42, 114
3, 61444, Note_on_c, 9, 35, 120
3, 61444, Note_on_c, 9, 81, 80
3, 61512, Note_on_c, 9, 35, 0
3, 61512, Note_on_c, 9, 42, 0
3, 61528, Note_on_c, 9, 81, 0
3, 61536, Note_on_c, 9, 70, 74
3, 61616, Note_on_c, 9, 70, 0
3, 61632, Note_on_c, 9, 42, 54
3, 61632, Note_on_c, 9, 82, 64
3, 61636, Note_on_c, 9, 80, 50
3, 61688, Note_on_c, 9, 80, 0
3, 61704, Note_on_c, 9, 42, 0
3, 61728, Note_on_c, 9, 82, 0
3, 61728, Note_on_c, 9, 69, 54
3, 61776, Note_on_c, 9, 69, 0
3, 61824, Note_on_c, 9, 39, 114
3, 61824, Note_on_c, 9, 40, 122
3, 61828, Note_on_c, 9, 42, 114
3, 61828, Note_on_c, 9, 80, 66
3, 61888, Note_on_c, 9, 80, 0
3, 61896, Note_on_c, 9, 39, 0
3, 61896, Note_on_c, 9, 40, 0
3, 61900, Note_on_c, 9, 42, 0
3, 62016, Note_on_c, 9, 35, 120
3, 62016, Note_on_c, 9, 42, 54
3, 62016, Note_on_c, 9, 81, 82
3, 62088, Note_on_c, 9, 42, 0
3, 62088, Note_on_c, 9, 35, 0
3, 62096, Note_on_c, 9, 81, 0
3, 62208, Note_on_c, 9, 42, 114
3, 62208, Note_on_c, 9, 35, 120
3, 62240, Note_on_c, 9, 42, 0
3, 62280, Note_on_c, 9, 35, 0
3, 62304, Note_on_c, 9, 42, 58
3, 62304, Note_on_c, 9, 81, 78
3, 62336, Note_on_c, 9, 42, 0
3, 62376, Note_on_c, 9, 81, 0
3, 62400, Note_on_c, 9, 70, 94
3, 62400, Note_on_c, 9, 42, 54
3, 62400, Note_on_c, 9, 80, 62
3, 62472, Note_on_c, 9, 42, 0
3, 62480, Note_on_c, 9, 70, 0
3, 62488, Note_on_c, 9, 80, 0
3, 62592, Note_on_c, 9, 39, 114
3, 62592, Note_on_c, 9, 40, 122
3, 62596, Note_on_c, 9, 42, 114
3, 62596, Note_on_c, 9, 81, 72
3, 62664, Note_on_c, 9, 40, 0
3, 62664, Note_on_c, 9, 39, 0
3, 62668, Note_on_c, 9, 42, 0
3, 62704, Note_on_c, 9, 81, 0
3, 62784, Note_on_c, 9, 42, 54
3, 62784, Note_on_c, 9, 80, 80
3, 62808, Note_on_c, 9, 42, 0
3, 62848, Note_on_c, 9, 80, 0
3, 62880, Note_on_c, 9, 42, 66
3, 62904, Note_on_c, 9, 42, 0
3, 62980, Note_on_c, 9, 42, 114
3, 62980, Note_on_c, 9, 35, 120
3, 62980, Note_on_c, 9, 81, 80
3, 63048, Note_on_c, 9, 35, 0
3, 63048, Note_on_c, 9, 42, 0
3, 63064, Note_on_c, 9, 81, 0
3, 63072, Note_on_c, 9, 70, 74
3, 63152, Note_on_c, 9, 70, 0
3, 63168, Note_on_c, 9, 42, 54
3, 63168, Note_on_c, 9, 82, 64
3, 63168, Note_on_c, 9, 40, 50
3, 63168, Note_on_c, 9, 80, 50
3, 63216, Note_on_c, 9, 40, 0
3, 63224, Note_on_c, 9, 80, 0
3, 63232, Note_on_c, 9, 40, 68
3, 63240, Note_on_c, 9, 42, 0
3, 63264, Note_on_c, 9, 82, 0
3, 63268, Note_on_c, 9, 69, 54
3, 63280, Note_on_c, 9, 40, 0
3, 63296, Note_on_c, 9, 40, 70
3, 63312, Note_on_c, 9, 69, 0
3, 63344, Note_on_c, 9, 40, 0
3, 63360, Note_on_c, 9, 39, 114
3, 63360, Note_on_c, 9, 40, 122
3, 63364, Note_on_c, 9, 42, 114
3, 63364, Note_on_c, 9, 80, 66
3, 63408, Note_on_c, 9, 40, 0
3, 63424, Note_on_c, 9, 80, 0
3, 63432, Note_on_c, 9, 42, 0
3, 63432, Note_on_c, 9, 39, 0
3, 63552, Note_on_c, 9, 45, 114
3, 63552, Note_on_c, 9, 42, 54
3, 63552, Note_on_c, 9, 81, 82
3, 63624, Note_on_c, 9, 42, 0
3, 63624, Note_on_c, 9, 45, 0
3, 63632, Note_on_c, 9, 81, 0
3, 63744, Note_on_c, 9, 42, 114
3, 63744, Note_on_c, 9, 40, 122
3, 63776, Note_on_c, 9, 42, 0
3, 63816, Note_on_c, 9, 40, 0
3, 63840, Note_on_c, 9, 42, 58
3, 63840, Note_on_c, 9, 81, 78
3, 63872, Note_on_c, 9, 42, 0
3, 63912, Note_on_c, 9, 81, 0
3, 63936, Note_on_c, 9, 50, 114
3, 63936, Note_on_c, 9, 70, 94
3, 63936, Note_on_c, 9, 42, 54
3, 63936, Note_on_c, 9, 80, 62
3, 64008, Note_on_c, 9, 42, 0
3, 64008, Note_on_c, 9, 50, 0
3, 64016, Note_on_c, 9, 70, 0
3, 64024, Note_on_c, 9, 80, 0
3, 64128, Note_on_c, 9, 39, 114
3, 64128, Note_on_c, 9, 48, 114
3, 64132, Note_on_c, 9, 42, 114
3, 64132, Note_on_c, 9, 81, 72
3, 64200, Note_on_c, 9, 48, 0
3, 64200, Note_on_c, 9, 39, 0
3, 64204, Note_on_c, 9, 42, 0
3, 64240, Note_on_c, 9, 81, 0
3, 64320, Note_on_c, 9, 47, 114
3, 64324, Note_on_c, 9, 42, 54
3, 64324, Note_on_c, 9, 80, 80
3, 64344, Note_on_c, 9, 42, 0
3, 64384, Note_on_c, 9, 80, 0
3, 64392, Note_on_c, 9, 47, 0
3, 64416, Note_on_c, 9, 42, 66
3, 64440, Note_on_c, 9, 42, 0
3, 64512, Note_on_c, 9, 49, 104
3, 64516, Note_on_c, 9, 42, 114
3, 64516, Note_on_c, 9, 35, 120
3, 64516, Note_on_c, 9, 81, 80
3, 64576, Note_on_c, 9, 49, 0
3, 64584, Note_on_c, 9, 42, 0
3, 64584, Note_on_c, 9, 35, 0
3, 64600, Note_on_c, 9, 81, 0
3, 64608, Note_on_c, 9, 70, 74
3, 64688, Note_on_c, 9, 70, 0
3, 64704, Note_on_c, 9, 42, 54
3, 64704, Note_on_c, 9, 82, 64
3, 64708, Note_on_c, 9, 80, 50
3, 64760, Note_on_c, 9, 80, 0
3, 64776, Note_on_c, 9, 42, 0
3, 64800, Note_on_c, 9, 82, 0
3, 64800, Note_on_c, 9, 69, 54
3, 64848, Note_on_c, 9, 69, 0
3, 64896, Note_on_c, 9, 39, 114
3, 64896, Note_on_c, 9, 40, 122
3, 64900, Note_on_c, 9, 42, 114
3, 64900, Note_on_c, 9, 80, 66
3, 64960, Note_on_c, 9, 80, 0
3, 64968, Note_on_c, 9, 39, 0
3, 64968, Note_on_c, 9, 40, 0
3, 64972, Note_on_c, 9, 42, 0
3, 65088, Note_on_c, 9, 35, 120
3, 65088, Note_on_c, 9, 42, 54
3, 65088, Note_on_c, 9, 81, 82
3, 65160, Note_on_c, 9, 42, 0
3, 65160, Note_on_c, 9, 35, 0
3, 65168, Note_on_c, 9, 81, 0
3, 65280, Note_on_c, 9, 42, 114
3, 65280, Note_on_c, 9, 35, 120
3, 65312, Note_on_c, 9, 42, 0
3, 65352, Note_on_c, 9, 35, 0
3, 65376, Note_on_c, 9, 42, 58
3, 65376, Note_on_c, 9, 81, 78
3, 65408, Note_on_c, 9, 42, 0
3, 65448, Note_on_c, 9, 81, 0
3, 65472, Note_on_c, 9, 70, 94
3, 65472, Note_on_c, 9, 42, 54
3, 65472, Note_on_c, 9, 80, 62
3, 65544, Note_on_c, 9, 42, 0
3, 65552, Note_on_c, 9, 70, 0
3, 65560, Note_on_c, 9, 80, 0
3, 65664, Note_on_c, 9, 39, 114
3, 65664, Note_on_c, 9, 40, 122
3, 65668, Note_on_c, 9, 42, 114
3, 65668, Note_on_c, 9, 81, 72
3, 65736, Note_on_c, 9, 40, 0
3, 65736, Note_on_c, 9, 39, 0
3, 65740, Note_on_c, 9, 42, 0
3, 65776, Note_on_c, 9, 81, 0
3, 65856, Note_on_c, 9, 42, 54
3, 65856, Note_on_c, 9, 80, 80
3, 65880, Note_on_c, 9, 42, 0
3, 65920, Note_on_c, 9, 80, 0
3, 65952, Note_on_c, 9, 42, 66
3, 65976, Note_on_c, 9, 42, 0
3, 66052, Note_on_c, 9, 42, 114
3, 66052, Note_on_c, 9, 35, 120
3, 66052, Note_on_c, 9, 81, 80
3, 66120, Note_on_c, 9, 35, 0
3, 66120, Note_on_c, 9, 42, 0
3, 66136, Note_on_c, 9, 81, 0
3, 66144, Note_on_c, 9, 70, 74
3, 66224, Note_on_c, 9, 70, 0
3, 66240, Note_on_c, 9, 42, 54
3, 66240, Note_on_c, 9, 82, 64
3, 66244, Note_on_c, 9, 80, 50
3, 66296, Note_on_c, 9, 80, 0
3, 66312, Note_on_c, 9, 42, 0
3, 66336, Note_on_c, 9, 82, 0
3, 66336, Note_on_c, 9, 69, 54
3, 66384, Note_on_c, 9, 69, 0
3, 66432, Note_on_c, 9, 39, 114
3, 66432, Note_on_c, 9, 40, 122
3, 66436, Note_on_c, 9, 42, 114
3, 66436, Note_on_c, 9, 80, 66
3, 66496, Note_on_c, 9, 80, 0
3, 66504, Note_on_c, 9, 39, 0
3, 66504, Note_on_c, 9, 40, 0
3, 66508, Note_on_c, 9, 42, 0
3, 66624, Note_on_c, 9, 35, 120
3, 66624, Note_on_c, 9, 42, 54
3, 66624, Note_on_c, 9, 81, 82
3, 66696, Note_on_c, 9, 42, 0
3, 66696, Note_on_c, 9, 35, 0
3, 66704, Note_on_c, 9, 81, 0
3, 66816, Note_on_c, 9, 42, 114
3, 66816, Note_on_c, 9, 35, 120
3, 66848, Note_on_c, 9, 42, 0
3, 66888, Note_on_c, 9, 35, 0
3, 66912, Note_on_c, 9, 42, 58
3, 66912, Note_on_c, 9, 81, 78
3, 66944, Note_on_c, 9, 42, 0
3, 66984, Note_on_c, 9, 81, 0
3, 67008, Note_on_c, 9, 70, 94
3, 67008, Note_on_c, 9, 42, 54
3, 67008, Note_on_c, 9, 80, 62
3, 67080, Note_on_c, 9, 42, 0
3, 67088, Note_on_c, 9, 70, 0
3, 67096, Note_on_c, 9, 80, 0
3, 67200, Note_on_c, 9, 39, 114
3, 67200, Note_on_c, 9, 40, 122
3, 67204, Note_on_c, 9, 42, 114
3, 67204, Note_on_c, 9, 81, 72
3, 67272, Note_on_c, 9, 40, 0
3, 67272, Note_on_c, 9, 39, 0
3, 67276, Note_on_c, 9, 42, 0
3, 67312, Note_on_c, 9, 81, 0
3, 67392, Note_on_c, 9, 42, 54
3, 67392, Note_on_c, 9, 80, 80
3, 67416, Note_on_c, 9, 42, 0
3, 67456, Note_on_c, 9, 80, 0
3, 67488, Note_on_c, 9, 42, 66
3, 67512, Note_on_c, 9, 42, 0
3, 67588, Note_on_c, 9, 42, 114
3, 67588, Note_on_c, 9, 35, 120
3, 67588, Note_on_c, 9, 81, 80
3, 67656, Note_on_c, 9, 35, 0
3, 67656, Note_on_c, 9, 42, 0
3, 67672, Note_on_c, 9, 81, 0
3, 67680, Note_on_c, 9, 70, 74
3, 67760, Note_on_c, 9, 70, 0
3, 67776, Note_on_c, 9, 42, 54
3, 67776, Note_on_c, 9, 82, 64
3, 67780, Note_on_c, 9, 80, 50
3, 67832, Note_on_c, 9, 80, 0
3, 67848, Note_on_c, 9, 42, 0
3, 67872, Note_on_c, 9, 82, 0
3, 67872, Note_on_c, 9, 69, 54
3, 67920, Note_on_c, 9, 69, 0
3, 67968, Note_on_c, 9, 39, 114
3, 67968, Note_on_c, 9, 40, 122
3, 67972, Note_on_c, 9, 42, 114
3, 67972, Note_on_c, 9, 80, 66
3, 68032, Note_on_c, 9, 80, 0
3, 68040, Note_on_c, 9, 39, 0
3, 68040, Note_on_c, 9, 40, 0
3, 68044, Note_on_c, 9, 42, 0
3, 68160, Note_on_c, 9, 35, 120
3, 68160, Note_on_c, 9, 42, 54
3, 68160, Note_on_c, 9, 81, 82
3, 68232, Note_on_c, 9, 42, 0
3, 68232, Note_on_c, 9, 35, 0
3, 68240, Note_on_c, 9, 81, 0
3, 68352, Note_on_c, 9, 42, 114
3, 68352, Note_on_c, 9, 35, 120
3, 68384, Note_on_c, 9, 42, 0
3, 68424, Note_on_c, 9, 35, 0
3, 68448, Note_on_c, 9, 42, 58
3, 68448, Note_on_c, 9, 81, 78
3, 68480, Note_on_c, 9, 42, 0
3, 68520, Note_on_c, 9, 81, 0
3, 68544, Note_on_c, 9, 70, 94
3, 68544, Note_on_c, 9, 42, 54
3, 68544, Note_on_c, 9, 80, 62
3, 68616, Note_on_c, 9, 42, 0
3, 68624, Note_on_c, 9, 70, 0
3, 68632, Note_on_c, 9, 80, 0
3, 68736, Note_on_c, 9, 39, 114
3, 68736, Note_on_c, 9, 40, 122
3, 68740, Note_on_c, 9, 42, 114
3, 68740, Note_on_c, 9, 81, 72
3, 68808, Note_on_c, 9, 40, 0
3, 68808, Note_on_c, 9, 39, 0
3, 68812, Note_on_c, 9, 42, 0
3, 68848, Note_on_c, 9, 81, 0
3, 68928, Note_on_c, 9, 42, 54
3, 68928, Note_on_c, 9, 80, 80
3, 68952, Note_on_c, 9, 42, 0
3, 68992, Note_on_c, 9, 80, 0
3, 69024, Note_on_c, 9, 42, 66
3, 69048, Note_on_c, 9, 42, 0
3, 69120, Note_on_c, 9, 42, 114
3, 69120, Note_on_c, 9, 35, 120
3, 69124, Note_on_c, 9, 81, 80
3, 69192, Note_on_c, 9, 35, 0
3, 69192, Note_on_c, 9, 42, 0
3, 69208, Note_on_c, 9, 81, 0
3, 69216, Note_on_c, 9, 70, 74
3, 69296, Note_on_c, 9, 70, 0
3, 69312, Note_on_c, 9, 42, 54
3, 69312, Note_on_c, 9, 82, 64
3, 69316, Note_on_c, 9, 80, 50
3, 69368, Note_on_c, 9, 80, 0
3, 69384, Note_on_c, 9, 42, 0
3, 69408, Note_on_c, 9, 82, 0
3, 69408, Note_on_c, 9, 69, 54
3, 69456, Note_on_c, 9, 69, 0
3, 69504, Note_on_c, 9, 39, 114
3, 69504, Note_on_c, 9, 42, 114
3, 69504, Note_on_c, 9, 40, 122
3, 69504, Note_on_c, 9, 80, 66
3, 69568, Note_on_c, 9, 80, 0
3, 69576, Note_on_c, 9, 40, 0
3, 69576, Note_on_c, 9, 39, 0
3, 69580, Note_on_c, 9, 42, 0
3, 69696, Note_on_c, 9, 42, 54
3, 69696, Note_on_c, 9, 35, 120
3, 69700, Note_on_c, 9, 81, 82
3, 69768, Note_on_c, 9, 35, 0
3, 69768, Note_on_c, 9, 42, 0
3, 69776, Note_on_c, 9, 81, 0
3, 69888, Note_on_c, 9, 35, 120
3, 69888, Note_on_c, 9, 42, 114
3, 69920, Note_on_c, 9, 42, 0
3, 69960, Note_on_c, 9, 35, 0
3, 69984, Note_on_c, 9, 42, 58
3, 69984, Note_on_c, 9, 81, 78
3, 70016, Note_on_c, 9, 42, 0
3, 70056, Note_on_c, 9, 81, 0
3, 70080, Note_on_c, 9, 70, 94
3, 70080, Note_on_c, 9, 80, 62
3, 70084, Note_on_c, 9, 42, 54
3, 70152, Note_on_c, 9, 42, 0
3, 70160, Note_on_c, 9, 70, 0
3, 70168, Note_on_c, 9, 80, 0
3, 70272, Note_on_c, 9, 39, 114
3, 70272, Note_on_c, 9, 42, 114
3, 70272, Note_on_c, 9, 40, 122
3, 70272, Note_on_c, 9, 81, 72
3, 70344, Note_on_c, 9, 40, 0
3, 70344, Note_on_c, 9, 39, 0
3, 70344, Note_on_c, 9, 42, 0
3, 70384, Note_on_c, 9, 81, 0
3, 70464, Note_on_c, 9, 45, 114
3, 70464, Note_on_c, 9, 42, 54
3, 70468, Note_on_c, 9, 80, 80
3, 70488, Note_on_c, 9, 42, 0
3, 70528, Note_on_c, 9, 80, 0
3, 70536, Note_on_c, 9, 45, 0
3, 70560, Note_on_c, 9, 42, 66
3, 70584, Note_on_c, 9, 42, 0
3, 70656, Note_on_c, 9, 57, 104
3, 70660, Note_on_c, 9, 42, 114
3, 70660, Note_on_c, 9, 35, 120
3, 70660, Note_on_c, 9, 81, 80
3, 70720, Note_on_c, 9, 57, 0
3, 70728, Note_on_c, 9, 42, 0
3, 70728, Note_on_c, 9, 35, 0
3, 70744, Note_on_c, 9, 81, 0
3, 70752, Note_on_c, 9, 70, 74
3, 70832, Note_on_c, 9, 70, 0
3, 70848, Note_on_c, 9, 42, 54
3, 70848, Note_on_c, 9, 82, 64
3, 70852, Note_on_c, 9, 80, 50
3, 70904, Note_on_c, 9, 80, 0
3, 70920, Note_on_c, 9, 42, 0
3, 70944, Note_on_c, 9, 82, 0
3, 70944, Note_on_c, 9, 69, 54
3, 70992, Note_on_c, 9, 69, 0
3, 71040, Note_on_c, 9, 39, 114
3, 71040, Note_on_c, 9, 40, 122
3, 71044, Note_on_c, 9, 42, 114
3, 71044, Note_on_c, 9, 80, 66
3, 71104, Note_on_c, 9, 80, 0
3, 71112, Note_on_c, 9, 39, 0
3, 71112, Note_on_c, 9, 40, 0
3, 71116, Note_on_c, 9, 42, 0
3, 71232, Note_on_c, 9, 35, 120
3, 71232, Note_on_c, 9, 42, 54
3, 71232, Note_on_c, 9, 81, 82
3, 71304, Note_on_c, 9, 42, 0
3, 71304, Note_on_c, 9, 35, 0
3, 71312, Note_on_c, 9, 81, 0
3, 71424, Note_on_c, 9, 42, 114
3, 71424, Note_on_c, 9, 35, 120
3, 71456, Note_on_c, 9, 42, 0
3, 71496, Note_on_c, 9, 35, 0
3, 71520, Note_on_c, 9, 42, 58
3, 71520, Note_on_c, 9, 81, 78
3, 71552, Note_on_c, 9, 42, 0
3, 71592, Note_on_c, 9, 81, 0
3, 71616, Note_on_c, 9, 70, 94
3, 71616, Note_on_c, 9, 42, 54
3, 71616, Note_on_c, 9, 80, 62
3, 71688, Note_on_c, 9, 42, 0
3, 71696, Note_on_c, 9, 70, 0
3, 71704, Note_on_c, 9, 80, 0
3, 71808, Note_on_c, 9, 39, 114
3, 71808, Note_on_c, 9, 40, 122
3, 71812, Note_on_c, 9, 42, 114
3, 71812, Note_on_c, 9, 81, 72
3, 71880, Note_on_c, 9, 40, 0
3, 71880, Note_on_c, 9, 39, 0
3, 71884, Note_on_c, 9, 42, 0
3, 71920, Note_on_c, 9, 81, 0
3, 72000, Note_on_c, 9, 42, 54
3, 72000, Note_on_c, 9, 80, 80
3, 72024, Note_on_c, 9, 42, 0
3, 72064, Note_on_c, 9, 80, 0
3, 72096, Note_on_c, 9, 42, 66
3, 72120, Note_on_c, 9, 42, 0
3, 72196, Note_on_c, 9, 42, 114
3, 72196, Note_on_c, 9, 35, 120
3, 72196, Note_on_c, 9, 81, 80
3, 72264, Note_on_c, 9, 35, 0
3, 72264, Note_on_c, 9, 42, 0
3, 72280, Note_on_c, 9, 81, 0
3, 72288, Note_on_c, 9, 70, 74
3, 72368, Note_on_c, 9, 70, 0
3, 72384, Note_on_c, 9, 42, 54
3, 72384, Note_on_c, 9, 82, 64
3, 72388, Note_on_c, 9, 80, 50
3, 72440, Note_on_c, 9, 80, 0
3, 72456, Note_on_c, 9, 42, 0
3, 72480, Note_on_c, 9, 82, 0
3, 72480, Note_on_c, 9, 69, 54
3, 72528, Note_on_c, 9, 69, 0
3, 72576, Note_on_c, 9, 39, 114
3, 72576, Note_on_c, 9, 40, 122
3, 72580, Note_on_c, 9, 42, 114
3, 72580, Note_on_c, 9, 80, 66
3, 72640, Note_on_c, 9, 80, 0
3, 72648, Note_on_c, 9, 39, 0
3, 72648, Note_on_c, 9, 40, 0
3, 72652, Note_on_c, 9, 42, 0
3, 72768, Note_on_c, 9, 35, 120
3, 72768, Note_on_c, 9, 42, 54
3, 72768, Note_on_c, 9, 81, 82
3, 72840, Note_on_c, 9, 42, 0
3, 72840, Note_on_c, 9, 35, 0
3, 72848, Note_on_c, 9, 81, 0
3, 72960, Note_on_c, 9, 42, 114
3, 72960, Note_on_c, 9, 35, 120
3, 72992, Note_on_c, 9, 42, 0
3, 73032, Note_on_c, 9, 35, 0
3, 73056, Note_on_c, 9, 42, 58
3, 73056, Note_on_c, 9, 81, 78
3, 73088, Note_on_c, 9, 42, 0
3, 73128, Note_on_c, 9, 81, 0
3, 73152, Note_on_c, 9, 70, 94
3, 73152, Note_on_c, 9, 42, 54
3, 73152, Note_on_c, 9, 80, 62
3, 73224, Note_on_c, 9, 42, 0
3, 73232, Note_on_c, 9, 70, 0
3, 73240, Note_on_c, 9, 80, 0
3, 73344, Note_on_c, 9, 39, 114
3, 73344, Note_on_c, 9, 40, 122
3, 73348, Note_on_c, 9, 42, 114
3, 73348, Note_on_c, 9, 81, 72
3, 73416, Note_on_c, 9, 40, 0
3, 73416, Note_on_c, 9, 39, 0
3, 73420, Note_on_c, 9, 42, 0
3, 73456, Note_on_c, 9, 81, 0
3, 73536, Note_on_c, 9, 42, 54
3, 73536, Note_on_c, 9, 80, 80
3, 73560, Note_on_c, 9, 42, 0
3, 73600, Note_on_c, 9, 80, 0
3, 73632, Note_on_c, 9, 42, 66
3, 73656, Note_on_c, 9, 42, 0
3, 73732, Note_on_c, 9, 42, 114
3, 73732, Note_on_c, 9, 35, 120
3, 73732, Note_on_c, 9, 81, 80
3, 73800, Note_on_c, 9, 35, 0
3, 73800, Note_on_c, 9, 42, 0
3, 73816, Note_on_c, 9, 81, 0
3, 73824, Note_on_c, 9, 70, 74
3, 73904, Note_on_c, 9, 70, 0
3, 73920, Note_on_c, 9, 42, 54
3, 73920, Note_on_c, 9, 82, 64
3, 73924, Note_on_c, 9, 80, 50
3, 73976, Note_on_c, 9, 80, 0
3, 73992, Note_on_c, 9, 42, 0
3, 74016, Note_on_c, 9, 82, 0
3, 74016, Note_on_c, 9, 69, 54
3, 74064, Note_on_c, 9, 69, 0
3, 74112, Note_on_c, 9, 39, 114
3, 74112, Note_on_c, 9, 40, 122
3, 74116, Note_on_c, 9, 42, 114
3, 74116, Note_on_c, 9, 80, 66
3, 74176, Note_on_c, 9, 80, 0
3, 74184, Note_on_c, 9, 39, 0
3, 74184, Note_on_c, 9, 40, 0
3, 74188, Note_on_c, 9, 42, 0
3, 74304, Note_on_c, 9, 35, 120
3, 74304, Note_on_c, 9, 42, 54
3, 74304, Note_on_c, 9, 81, 82
3, 74376, Note_on_c, 9, 42, 0
3, 74376, Note_on_c, 9, 35, 0
3, 74384, Note_on_c, 9, 81, 0
3, 74496, Note_on_c, 9, 42, 114
3, 74496, Note_on_c, 9, 35, 120
3, 74528, Note_on_c, 9, 42, 0
3, 74568, Note_on_c, 9, 35, 0
3, 74592, Note_on_c, 9, 42, 58
3, 74592, Note_on_c, 9, 81, 78
3, 74624, Note_on_c, 9, 42, 0
3, 74664, Note_on_c, 9, 81, 0
3, 74688, Note_on_c, 9, 70, 94
3, 74688, Note_on_c, 9, 42, 54
3, 74688, Note_on_c, 9, 80, 62
3, 74760, Note_on_c, 9, 42, 0
3, 74768, Note_on_c, 9, 70, 0
3, 74776, Note_on_c, 9, 80, 0
3, 74880, Note_on_c, 9, 39, 114
3, 74880, Note_on_c, 9, 40, 122
3, 74884, Note_on_c, 9, 42, 114
3, 74884, Note_on_c, 9, 81, 72
3, 74952, Note_on_c, 9, 40, 0
3, 74952, Note_on_c, 9, 39, 0
3, 74956, Note_on_c, 9, 42, 0
3, 74992, Note_on_c, 9, 81, 0
3, 75072, Note_on_c, 9, 42, 54
3, 75072, Note_on_c, 9, 80, 80
3, 75096, Note_on_c, 9, 42, 0
3, 75136, Note_on_c, 9, 80, 0
3, 75168, Note_on_c, 9, 42, 66
3, 75192, Note_on_c, 9, 42, 0
3, 75268, Note_on_c, 9, 42, 114
3, 75268, Note_on_c, 9, 35, 120
3, 75268, Note_on_c, 9, 81, 80
3, 75336, Note_on_c, 9, 35, 0
3, 75336, Note_on_c, 9, 42, 0
3, 75352, Note_on_c, 9, 81, 0
3, 75360, Note_on_c, 9, 70, 74
3, 75440, Note_on_c, 9, 70, 0
3, 75456, Note_on_c, 9, 42, 54
3, 75456, Note_on_c, 9, 82, 64
3, 75460, Note_on_c, 9, 80, 50
3, 75512, Note_on_c, 9, 80, 0
3, 75528, Note_on_c, 9, 42, 0
3, 75552, Note_on_c, 9, 82, 0
3, 75552, Note_on_c, 9, 69, 54
3, 75600, Note_on_c, 9, 69, 0
3, 75648, Note_on_c, 9, 39, 114
3, 75648, Note_on_c, 9, 40, 122
3, 75652, Note_on_c, 9, 42, 114
3, 75652, Note_on_c, 9, 80, 66
3, 75712, Note_on_c, 9, 80, 0
3, 75720, Note_on_c, 9, 39, 0
3, 75720, Note_on_c, 9, 40, 0
3, 75724, Note_on_c, 9, 42, 0
3, 75840, Note_on_c, 9, 35, 120
3, 75840, Note_on_c, 9, 42, 54
3, 75840, Note_on_c, 9, 81, 82
3, 75912, Note_on_c, 9, 42, 0
3, 75912, Note_on_c, 9, 35, 0
3, 75920, Note_on_c, 9, 81, 0
3, 76032, Note_on_c, 9, 42, 114
3, 76032, Note_on_c, 9, 35, 120
3, 76064, Note_on_c, 9, 42, 0
3, 76104, Note_on_c, 9, 35, 0
3, 76128, Note_on_c, 9, 42, 58
3, 76128, Note_on_c, 9, 81, 78
3, 76160, Note_on_c, 9, 42, 0
3, 76200, Note_on_c, 9, 81, 0
3, 76224, Note_on_c, 9, 70, 94
3, 76224, Note_on_c, 9, 42, 54
3, 76224, Note_on_c, 9, 80, 62
3, 76296, Note_on_c, 9, 42, 0
3, 76304, Note_on_c, 9, 70, 0
3, 76312, Note_on_c, 9, 80, 0
3, 76416, Note_on_c, 9, 39, 114
3, 76416, Note_on_c, 9, 40, 122
3, 76420, Note_on_c, 9, 42, 114
3, 76420, Note_on_c, 9, 81, 72
3, 76488, Note_on_c, 9, 40, 0
3, 76488, Note_on_c, 9, 39, 0
3, 76492, Note_on_c, 9, 42, 0
3, 76528, Note_on_c, 9, 81, 0
3, 76608, Note_on_c, 9, 42, 54
3, 76608, Note_on_c, 9, 80, 80
3, 76632, Note_on_c, 9, 42, 0
3, 76672, Note_on_c, 9, 80, 0
3, 76704, Note_on_c, 9, 42, 66
3, 76728, Note_on_c, 9, 42, 0
3, 76800, Note_on_c, 9, 49, 104
3, 76804, Note_on_c, 9, 42, 114
3, 76804, Note_on_c, 9, 35, 120
3, 76804, Note_on_c, 9, 81, 80
3, 76864, Note_on_c, 9, 49, 0
3, 76872, Note_on_c, 9, 42, 0
3, 76872, Note_on_c, 9, 35, 0
3, 76888, Note_on_c, 9, 81, 0
3, 76896, Note_on_c, 9, 70, 74
3, 76976, Note_on_c, 9, 70, 0
3, 76992, Note_on_c, 9, 42, 54
3, 76992, Note_on_c, 9, 82, 64
3, 76996, Note_on_c, 9, 80, 50
3, 77048, Note_on_c, 9, 80, 0
3, 77064, Note_on_c, 9, 42, 0
3, 77088, Note_on_c, 9, 82, 0
3, 77088, Note_on_c, 9, 69, 54
3, 77136, Note_on_c, 9, 69, 0
3, 77184, Note_on_c, 9, 39, 114
3, 77184, Note_on_c, 9, 40, 122
3, 77188, Note_on_c, 9, 42, 114
3, 77188, Note_on_c, 9, 80, 66
3, 77248, Note_on_c, 9, 80, 0
3, 77256, Note_on_c, 9, 39, 0
3, 77256, Note_on_c, 9, 40, 0
3, 77260, Note_on_c, 9, 42, 0
3, 77376, Note_on_c, 9, 35, 120
3, 77376, Note_on_c, 9, 42, 54
3, 77376, Note_on_c, 9, 81, 82
3, 77448, Note_on_c, 9, 42, 0
3, 77448, Note_on_c, 9, 35, 0
3, 77456, Note_on_c, 9, 81, 0
3, 77568, Note_on_c, 9, 42, 114
3, 77568, Note_on_c, 9, 35, 120
3, 77600, Note_on_c, 9, 42, 0
3, 77640, Note_on_c, 9, 35, 0
3, 77664, Note_on_c, 9, 42, 58
3, 77664, Note_on_c, 9, 81, 78
3, 77696, Note_on_c, 9, 42, 0
3, 77736, Note_on_c, 9, 81, 0
3, 77760, Note_on_c, 9, 70, 94
3, 77760, Note_on_c, 9, 42, 54
3, 77760, Note_on_c, 9, 80, 62
3, 77832, Note_on_c, 9, 42, 0
3, 77840, Note_on_c, 9, 70, 0
3, 77848, Note_on_c, 9, 80, 0
3, 77952, Note_on_c, 9, 39, 114
3, 77952, Note_on_c, 9, 40, 122
3, 77956, Note_on_c, 9, 42, 114
3, 77956, Note_on_c, 9, 81, 72
3, 78024, Note_on_c, 9, 40, 0
3, 78024, Note_on_c, 9, 39, 0
3, 78028, Note_on_c, 9, 42, 0
3, 78064, Note_on_c, 9, 81, 0
3, 78144, Note_on_c, 9, 42, 54
3, 78144, Note_on_c, 9, 80, 80
3, 78168, Note_on_c, 9, 42, 0
3, 78208, Note_on_c, 9, 80, 0
3, 78240, Note_on_c, 9, 42, 66
3, 78264, Note_on_c, 9, 42, 0
3, 78340, Note_on_c, 9, 42, 114
3, 78340, Note_on_c, 9, 35, 120
3, 78340, Note_on_c, 9, 81, 80
3, 78408, Note_on_c, 9, 35, 0
3, 78408, Note_on_c, 9, 42, 0
3, 78424, Note_on_c, 9, 81, 0
3, 78432, Note_on_c, 9, 70, 74
3, 78512, Note_on_c, 9, 70, 0
3, 78528, Note_on_c, 9, 42, 54
3, 78528, Note_on_c, 9, 82, 64
3, 78532, Note_on_c, 9, 80, 50
3, 78584, Note_on_c, 9, 80, 0
3, 78600, Note_on_c, 9, 42, 0
3, 78624, Note_on_c, 9, 82, 0
3, 78624, Note_on_c, 9, 69, 54
3, 78672, Note_on_c, 9, 69, 0
3, 78720, Note_on_c, 9, 39, 114
3, 78720, Note_on_c, 9, 40, 122
3, 78724, Note_on_c, 9, 42, 114
3, 78724, Note_on_c, 9, 80, 66
3, 78784, Note_on_c, 9, 80, 0
3, 78792, Note_on_c, 9, 39, 0
3, 78792, Note_on_c, 9, 40, 0
3, 78796, Note_on_c, 9, 42, 0
3, 78912, Note_on_c, 9, 35, 120
3, 78912, Note_on_c, 9, 42, 54
3, 78912, Note_on_c, 9, 81, 82
3, 78984, Note_on_c, 9, 42, 0
3, 78984, Note_on_c, 9, 35, 0
3, 78992, Note_on_c, 9, 81, 0
3, 79104, Note_on_c, 9, 42, 114
3, 79104, Note_on_c, 9, 35, 120
3, 79136, Note_on_c, 9, 42, 0
3, 79176, Note_on_c, 9, 35, 0
3, 79200, Note_on_c, 9, 42, 58
3, 79200, Note_on_c, 9, 81, 78
3, 79232, Note_on_c, 9, 42, 0
3, 79272, Note_on_c, 9, 81, 0
3, 79296, Note_on_c, 9, 70, 94
3, 79296, Note_on_c, 9, 42, 54
3, 79296, Note_on_c, 9, 80, 62
3, 79368, Note_on_c, 9, 42, 0
3, 79376, Note_on_c, 9, 70, 0
3, 79384, Note_on_c, 9, 80, 0
3, 79488, Note_on_c, 9, 39, 114
3, 79488, Note_on_c, 9, 40, 122
3, 79492, Note_on_c, 9, 42, 114
3, 79492, Note_on_c, 9, 81, 72
3, 79560, Note_on_c, 9, 40, 0
3, 79560, Note_on_c, 9, 39, 0
3, 79564, Note_on_c, 9, 42, 0
3, 79600, Note_on_c, 9, 81, 0
3, 79680, Note_on_c, 9, 42, 54
3, 79680, Note_on_c, 9, 80, 80
3, 79704, Note_on_c, 9, 42, 0
3, 79744, Note_on_c, 9, 80, 0
3, 79776, Note_on_c, 9, 42, 66
3, 79800, Note_on_c, 9, 42, 0
3, 79876, Note_on_c, 9, 42, 114
3, 79876, Note_on_c, 9, 35, 120
3, 79876, Note_on_c, 9, 81, 80
3, 79944, Note_on_c, 9, 35, 0
3, 79944, Note_on_c, 9, 42, 0
3, 79960, Note_on_c, 9, 81, 0
3, 79968, Note_on_c, 9, 70, 74
3, 80048, Note_on_c, 9, 70, 0
3, 80064, Note_on_c, 9, 42, 54
3, 80064, Note_on_c, 9, 82, 64
3, 80068, Note_on_c, 9, 80, 50
3, 80120, Note_on_c, 9, 80, 0
3, 80136, Note_on_c, 9, 42, 0
3, 80160, Note_on_c, 9, 82, 0
3, 80160, Note_on_c, 9, 69, 54
3, 80208, Note_on_c, 9, 69, 0
3, 80256, Note_on_c, 9, 39, 114
3, 80256, Note_on_c, 9, 40, 122
3, 80260, Note_on_c, 9, 42, 114
3, 80260, Note_on_c, 9, 80, 66
3, 80320, Note_on_c, 9, 80, 0
3, 80328, Note_on_c, 9, 39, 0
3, 80328, Note_on_c, 9, 40, 0
3, 80332, Note_on_c, 9, 42, 0
3, 80448, Note_on_c, 9, 35, 120
3, 80448, Note_on_c, 9, 42, 54
3, 80448, Note_on_c, 9, 81, 82
3, 80520, Note_on_c, 9, 42, 0
3, 80520, Note_on_c, 9, 35, 0
3, 80528, Note_on_c, 9, 81, 0
3, 80640, Note_on_c, 9, 42, 114
3, 80640, Note_on_c, 9, 35, 120
3, 80672, Note_on_c, 9, 42, 0
3, 80712, Note_on_c, 9, 35, 0
3, 80736, Note_on_c, 9, 42, 58
3, 80736, Note_on_c, 9, 81, 78
3, 80768, Note_on_c, 9, 42, 0
3, 80808, Note_on_c, 9, 81, 0
3, 80832, Note_on_c, 9, 70, 94
3, 80832, Note_on_c, 9, 42, 54
3, 80832, Note_on_c, 9, 80, 62
3, 80904, Note_on_c, 9, 42, 0
3, 80912, Note_on_c, 9, 70, 0
3, 80920, Note_on_c, 9, 80, 0
3, 81024, Note_on_c, 9, 39, 114
3, 81024, Note_on_c, 9, 40, 122
3, 81028, Note_on_c, 9, 42, 114
3, 81028, Note_on_c, 9, 81, 72
3, 81096, Note_on_c, 9, 40, 0
3, 81096, Note_on_c, 9, 39, 0
3, 81100, Note_on_c, 9, 42, 0
3, 81136, Note_on_c, 9, 81, 0
3, 81216, Note_on_c, 9, 42, 54
3, 81216, Note_on_c, 9, 80, 80
3, 81240, Note_on_c, 9, 42, 0
3, 81280, Note_on_c, 9, 80, 0
3, 81312, Note_on_c, 9, 42, 66
3, 81336, Note_on_c, 9, 42, 0
3, 81408, Note_on_c, 9, 35, 120
3, 81412, Note_on_c, 9, 42, 114
3, 81412, Note_on_c, 9, 81, 80
3, 81480, Note_on_c, 9, 42, 0
3, 81480, Note_on_c, 9, 35, 0
3, 81496, Note_on_c, 9, 81, 0
3, 81504, Note_on_c, 9, 70, 74
3, 81584, Note_on_c, 9, 70, 0
3, 81600, Note_on_c, 9, 42, 54
3, 81600, Note_on_c, 9, 82, 64
3, 81600, Note_on_c, 9, 80, 50
3, 81656, Note_on_c, 9, 80, 0
3, 81672, Note_on_c, 9, 42, 0
3, 81696, Note_on_c, 9, 82, 0
3, 81696, Note_on_c, 9, 69, 54
3, 81744, Note_on_c, 9, 69, 0
3, 81792, Note_on_c, 9, 39, 114
3, 81792, Note_on_c, 9, 40, 122
3, 81796, Note_on_c, 9, 42, 114
3, 81796, Note_on_c, 9, 80, 66
3, 81856, Note_on_c, 9, 80, 0
3, 81864, Note_on_c, 9, 39, 0
3, 81864, Note_on_c, 9, 40, 0
3, 81868, Note_on_c, 9, 42, 0
3, 81984, Note_on_c, 9, 35, 120
3, 81988, Note_on_c, 9, 42, 54
3, 81988, Note_on_c, 9, 81, 82
3, 82056, Note_on_c, 9, 42, 0
3, 82056, Note_on_c, 9, 35, 0
3, 82064, Note_on_c, 9, 81, 0
3, 82176, Note_on_c, 9, 42, 114
3, 82176, Note_on_c, 9, 35, 120
3, 82208, Note_on_c, 9, 42, 0
3, 82248, Note_on_c, 9, 35, 0
3, 82272, Note_on_c, 9, 42, 58
3, 82272, Note_on_c, 9, 81, 78
3, 82304, Note_on_c, 9, 42, 0
3, 82344, Note_on_c, 9, 81, 0
3, 82368, Note_on_c, 9, 48, 114
3, 82368, Note_on_c, 9, 80, 62
3, 82372, Note_on_c, 9, 70, 94
3, 82372, Note_on_c, 9, 42, 54
3, 82440, Note_on_c, 9, 42, 0
3, 82440, Note_on_c, 9, 48, 0
3, 82448, Note_on_c, 9, 70, 0
3, 82456, Note_on_c, 9, 80, 0
3, 82560, Note_on_c, 9, 39, 114
3, 82560, Note_on_c, 9, 40, 122
3, 82564, Note_on_c, 9, 42, 114
3, 82564, Note_on_c, 9, 81, 72
3, 82632, Note_on_c, 9, 40, 0
3, 82632, Note_on_c, 9, 39, 0
3, 82636, Note_on_c, 9, 42, 0
3, 82672, Note_on_c, 9, 81, 0
3, 82752, Note_on_c, 9, 45, 114
3, 82752, Note_on_c, 9, 42, 54
3, 82756, Note_on_c, 9, 80, 80
3, 82776, Note_on_c, 9, 42, 0
3, 82816, Note_on_c, 9, 80, 0
3, 82824, Note_on_c, 9, 45, 0
3, 82848, Note_on_c, 9, 42, 66
3, 82872, Note_on_c, 9, 42, 0
3, 82944, Note_on_c, 9, 57, 104
3, 82944, Note_on_c, 9, 42, 114
3, 82944, Note_on_c, 9, 35, 120
3, 83008, Note_on_c, 9, 57, 0
3, 83016, Note_on_c, 9, 35, 0
3, 83016, Note_on_c, 9, 42, 0
3, 83040, Note_on_c, 9, 70, 74
3, 83120, Note_on_c, 9, 70, 0
3, 83136, Note_on_c, 9, 42, 54
3, 83136, Note_on_c, 9, 82, 64
3, 83208, Note_on_c, 9, 42, 0
3, 83232, Note_on_c, 9, 82, 0
3, 83232, Note_on_c, 9, 69, 54
3, 83280, Note_on_c, 9, 69, 0
3, 83328, Note_on_c, 9, 40, 122
3, 83332, Note_on_c, 9, 42, 114
3, 83400, Note_on_c, 9, 42, 0
3, 83400, Note_on_c, 9, 40, 0
3, 83520, Note_on_c, 9, 42, 54
3, 83520, Note_on_c, 9, 35, 120
3, 83592, Note_on_c, 9, 35, 0
3, 83592, Note_on_c, 9, 42, 0
3, 83712, Note_on_c, 9, 42, 114
3, 83712, Note_on_c, 9, 35, 120
3, 83744, Note_on_c, 9, 42, 0
3, 83784, Note_on_c, 9, 35, 0
3, 83808, Note_on_c, 9, 42, 58
3, 83840, Note_on_c, 9, 42, 0
3, 83904, Note_on_c, 9, 70, 94
3, 83904, Note_on_c, 9, 42, 54
3, 83976, Note_on_c, 9, 42, 0
3, 83984, Note_on_c, 9, 70, 0
3, 84096, Note_on_c, 9, 42, 114
3, 84096, Note_on_c, 9, 40, 122
3, 84168, Note_on_c, 9, 40, 0
3, 84168, Note_on_c, 9, 42, 0
3, 84288, Note_on_c, 9, 42, 54
3, 84288, Note_on_c, 9, 35, 120
3, 84312, Note_on_c, 9, 42, 0
3, 84360, Note_on_c, 9, 35, 0
3, 84384, Note_on_c, 9, 42, 66
3, 84408, Note_on_c, 9, 42, 0
3, 84480, Note_on_c, 9, 42, 114
3, 84480, Note_on_c, 9, 35, 120
3, 84552, Note_on_c, 9, 35, 0
3, 84552, Note_on_c, 9, 42, 0
3, 84576, Note_on_c, 9, 70, 74
3, 84656, Note_on_c, 9, 70, 0
3, 84672, Note_on_c, 9, 42, 54
3, 84672, Note_on_c, 9, 82, 64
3, 84744, Note_on_c, 9, 42, 0
3, 84768, Note_on_c, 9, 82, 0
3, 84768, Note_on_c, 9, 69, 54
3, 84816, Note_on_c, 9, 69, 0
3, 84864, Note_on_c, 9, 40, 122
3, 84868, Note_on_c, 9, 42, 114
3, 84936, Note_on_c, 9, 42, 0
3, 84936, Note_on_c, 9, 40, 0
3, 85056, Note_on_c, 9, 42, 54
3, 85056, Note_on_c, 9, 35, 120
3, 85128, Note_on_c, 9, 35, 0
3, 85128, Note_on_c, 9, 42, 0
3, 85248, Note_on_c, 9, 42, 114
3, 85248, Note_on_c, 9, 35, 120
3, 85280, Note_on_c, 9, 42, 0
3, 85320, Note_on_c, 9, 35, 0
3, 85344, Note_on_c, 9, 42, 58
3, 85376, Note_on_c, 9, 42, 0
3, 85440, Note_on_c, 9, 70, 94
3, 85440, Note_on_c, 9, 42, 54
3, 85512, Note_on_c, 9, 42, 0
3, 85520, Note_on_c, 9, 70, 0
3, 85632, Note_on_c, 9, 42, 114
3, 85632, Note_on_c, 9, 40, 122
3, 85704, Note_on_c, 9, 40, 0
3, 85704, Note_on_c, 9, 42, 0
3, 85824, Note_on_c, 9, 42, 54
3, 85824, Note_on_c, 9, 35, 120
3, 85848, Note_on_c, 9, 42, 0
3, 85896, Note_on_c, 9, 35, 0
3, 85920, Note_on_c, 9, 42, 66
3, 85944, Note_on_c, 9, 42, 0
3, 86016, Note_on_c, 9, 42, 114
3, 86088, Note_on_c, 9, 42, 0
3, 86112, Note_on_c, 9, 70, 74
3, 86192, Note_on_c, 9, 70, 0
3, 86208, Note_on_c, 9, 42, 54
3, 86208, Note_on_c, 9, 82, 64
3, 86280, Note_on_c, 9, 42, 0
3, 86304, Note_on_c, 9, 82, 0
3, 86304, Note_on_c, 9, 69, 54
3, 86352, Note_on_c, 9, 69, 0
3, 86400, Note_on_c, 9, 42, 114
3, 86400, Note_on_c, 9, 40, 122
3, 86472, Note_on_c, 9, 40, 0
3, 86472, Note_on_c, 9, 42, 0
3, 86592, Note_on_c, 9, 42, 54
3, 86592, Note_on_c, 9, 35, 120
3, 86664, Note_on_c, 9, 35, 0
3, 86664, Note_on_c, 9, 42, 0
3, 86784, Note_on_c, 9, 42, 114
3, 86784, Note_on_c, 9, 35, 120
3, 86816, Note_on_c, 9, 42, 0
3, 86856, Note_on_c, 9, 35, 0
3, 86880, Note_on_c, 9, 42, 58
3, 86912, Note_on_c, 9, 42, 0
3, 86976, Note_on_c, 9, 70, 94
3, 86976, Note_on_c, 9, 42, 54
3, 87048, Note_on_c, 9, 42, 0
3, 87056, Note_on_c, 9, 70, 0
3, 87168, Note_on_c, 9, 42, 114
3, 87168, Note_on_c, 9, 40, 122
3, 87240, Note_on_c, 9, 40, 0
3, 87240, Note_on_c, 9, 42, 0
3, 87360, Note_on_c, 9, 42, 54
3, 87360, Note_on_c, 9, 35, 120
3, 87384, Note_on_c, 9, 42, 0
3, 87432, Note_on_c, 9, 35, 0
3, 87456, Note_on_c, 9, 42, 66
3, 87480, Note_on_c, 9, 42, 0
3, 87552, Note_on_c, 9, 42, 114
3, 87624, Note_on_c, 9, 42, 0
3, 87648, Note_on_c, 9, 70, 74
3, 87728, Note_on_c, 9, 70, 0
3, 87744, Note_on_c, 9, 42, 54
3, 87744, Note_on_c, 9, 82, 64
3, 87816, Note_on_c, 9, 42, 0
3, 87840, Note_on_c, 9, 82, 0
3, 87840, Note_on_c, 9, 69, 54
3, 87888, Note_on_c, 9, 69, 0
3, 87936, Note_on_c, 9, 42, 114
3, 87936, Note_on_c, 9, 40, 122
3, 88008, Note_on_c, 9, 40, 0
3, 88008, Note_on_c, 9, 42, 0
3, 88128, Note_on_c, 9, 42, 54
3, 88128, Note_on_c, 9, 35, 120
3, 88200, Note_on_c, 9, 35, 0
3, 88200, Note_on_c, 9, 42, 0
3, 88320, Note_on_c, 9, 42, 114
3, 88320, Note_on_c, 9, 35, 120
3, 88352, Note_on_c, 9, 42, 0
3, 88392, Note_on_c, 9, 35, 0
3, 88416, Note_on_c, 9, 42, 58
3, 88448, Note_on_c, 9, 42, 0
3, 88512, Note_on_c, 9, 70, 94
3, 88512, Note_on_c, 9, 42, 54
3, 88584, Note_on_c, 9, 42, 0
3, 88592, Note_on_c, 9, 70, 0
3, 88704, Note_on_c, 9, 42, 114
3, 88704, Note_on_c, 9, 40, 122
3, 88776, Note_on_c, 9, 40, 0
3, 88776, Note_on_c, 9, 42, 0
3, 88896, Note_on_c, 9, 42, 54
3, 88896, Note_on_c, 9, 35, 120
3, 88920, Note_on_c, 9, 42, 0
3, 88968, Note_on_c, 9, 35, 0
3, 88992, Note_on_c, 9, 42, 66
3, 89016, Note_on_c, 9, 42, 0
3, 89088, Note_on_c, 9, 35, 120
3, 89092, Note_on_c, 9, 42, 114
3, 89160, Note_on_c, 9, 42, 0
3, 89160, Note_on_c, 9, 35, 0
3, 89184, Note_on_c, 9, 70, 74
3, 89264, Note_on_c, 9, 70, 0
3, 89280, Note_on_c, 9, 42, 54
3, 89280, Note_on_c, 9, 82, 64
3, 89352, Note_on_c, 9, 42, 0
3, 89376, Note_on_c, 9, 82, 0
3, 89376, Note_on_c, 9, 69, 54
3, 89424, Note_on_c, 9, 69, 0
3, 89472, Note_on_c, 9, 42, 114
3, 89472, Note_on_c, 9, 40, 122
3, 89544, Note_on_c, 9, 40, 0
3, 89544, Note_on_c, 9, 42, 0
3, 89664, Note_on_c, 9, 42, 54
3, 89664, Note_on_c, 9, 35, 120
3, 89736, Note_on_c, 9, 35, 0
3, 89736, Note_on_c, 9, 42, 0
3, 89856, Note_on_c, 9, 42, 114
3, 89856, Note_on_c, 9, 35, 120
3, 89888, Note_on_c, 9, 42, 0
3, 89928, Note_on_c, 9, 35, 0
3, 89952, Note_on_c, 9, 42, 58
3, 89984, Note_on_c, 9, 42, 0
3, 90048, Note_on_c, 9, 70, 94
3, 90048, Note_on_c, 9, 42, 54
3, 90120, Note_on_c, 9, 42, 0
3, 90128, Note_on_c, 9, 70, 0
3, 90240, Note_on_c, 9, 42, 114
3, 90240, Note_on_c, 9, 40, 122
3, 90312, Note_on_c, 9, 40, 0
3, 90312, Note_on_c, 9, 42, 0
3, 90432, Note_on_c, 9, 35, 120
3, 90436, Note_on_c, 9, 42, 54
3, 90456, Note_on_c, 9, 42, 0
3, 90504, Note_on_c, 9, 35, 0
3, 90528, Note_on_c, 9, 42, 66
3, 90552, Note_on_c, 9, 42, 0
3, 90624, Note_on_c, 9, 42, 114
3, 90696, Note_on_c, 9, 42, 0
3, 90720, Note_on_c, 9, 70, 74
3, 90800, Note_on_c, 9, 70, 0
3, 90816, Note_on_c, 9, 42, 54
3, 90816, Note_on_c, 9, 82, 64
3, 90888, Note_on_c, 9, 42, 0
3, 90912, Note_on_c, 9, 82, 0
3, 90912, Note_on_c, 9, 69, 54
3, 90960, Note_on_c, 9, 69, 0
3, 91008, Note_on_c, 9, 42, 114
3, 91008, Note_on_c, 9, 40, 122
3, 91080, Note_on_c, 9, 40, 0
3, 91080, Note_on_c, 9, 42, 0
3, 91200, Note_on_c, 9, 42, 54
3, 91200, Note_on_c, 9, 35, 120
3, 91272, Note_on_c, 9, 35, 0
3, 91272, Note_on_c, 9, 42, 0
3, 91392, Note_on_c, 9, 42, 114
3, 91392, Note_on_c, 9, 35, 120
3, 91424, Note_on_c, 9, 42, 0
3, 91464, Note_on_c, 9, 35, 0
3, 91488, Note_on_c, 9, 42, 58
3, 91520, Note_on_c, 9, 42, 0
3, 91584, Note_on_c, 9, 70, 94
3, 91584, Note_on_c, 9, 42, 54
3, 91656, Note_on_c, 9, 42, 0
3, 91664, Note_on_c, 9, 70, 0
3, 91776, Note_on_c, 9, 42, 114
3, 91776, Note_on_c, 9, 40, 122
3, 91848, Note_on_c, 9, 40, 0
3, 91848, Note_on_c, 9, 42, 0
3, 91968, Note_on_c, 9, 42, 54
3, 91968, Note_on_c, 9, 35, 120
3, 91992, Note_on_c, 9, 42, 0
3, 92040, Note_on_c, 9, 35, 0
3, 92064, Note_on_c, 9, 42, 66
3, 92088, Note_on_c, 9, 42, 0
3, 92160, Note_on_c, 9, 42, 114
3, 92232, Note_on_c, 9, 42, 0
3, 92256, Note_on_c, 9, 70, 74
3, 92336, Note_on_c, 9, 70, 0
3, 92352, Note_on_c, 9, 42, 54
3, 92352, Note_on_c, 9, 82, 64
3, 92424, Note_on_c, 9, 42, 0
3, 92448, Note_on_c, 9, 82, 0
3, 92448, Note_on_c, 9, 69, 54
3, 92496, Note_on_c, 9, 69, 0
3, 92544, Note_on_c, 9, 42, 114
3, 92544, Note_on_c, 9, 40, 122
3, 92616, Note_on_c, 9, 40, 0
3, 92616, Note_on_c, 9, 42, 0
3, 92736, Note_on_c, 9, 42, 54
3, 92736, Note_on_c, 9, 35, 120
3, 92808, Note_on_c, 9, 35, 0
3, 92808, Note_on_c, 9, 42, 0
3, 92928, Note_on_c, 9, 42, 114
3, 92928, Note_on_c, 9, 35, 120
3, 92960, Note_on_c, 9, 42, 0
3, 93000, Note_on_c, 9, 35, 0
3, 93024, Note_on_c, 9, 42, 58
3, 93056, Note_on_c, 9, 42, 0
3, 93120, Note_on_c, 9, 70, 94
3, 93120, Note_on_c, 9, 42, 54
3, 93192, Note_on_c, 9, 42, 0
3, 93200, Note_on_c, 9, 70, 0
3, 93312, Note_on_c, 9, 42, 114
3, 93312, Note_on_c, 9, 40, 122
3, 93384, Note_on_c, 9, 40, 0
3, 93384, Note_on_c, 9, 42, 0
3, 93504, Note_on_c, 9, 42, 54
3, 93504, Note_on_c, 9, 35, 120
3, 93528, Note_on_c, 9, 42, 0
3, 93576, Note_on_c, 9, 35, 0
3, 93600, Note_on_c, 9, 42, 66
3, 93624, Note_on_c, 9, 42, 0
3, 93696, Note_on_c, 9, 42, 114
3, 93768, Note_on_c, 9, 42, 0
3, 93792, Note_on_c, 9, 70, 74
3, 93872, Note_on_c, 9, 70, 0
3, 93888, Note_on_c, 9, 42, 54
3, 93888, Note_on_c, 9, 82, 64
3, 93960, Note_on_c, 9, 42, 0
3, 93984, Note_on_c, 9, 82, 0
3, 93984, Note_on_c, 9, 69, 54
3, 94032, Note_on_c, 9, 69, 0
3, 94080, Note_on_c, 9, 42, 114
3, 94080, Note_on_c, 9, 40, 122
3, 94152, Note_on_c, 9, 40, 0
3, 94152, Note_on_c, 9, 42, 0
3, 94272, Note_on_c, 9, 42, 54
3, 94272, Note_on_c, 9, 35, 120
3, 94344, Note_on_c, 9, 35, 0
3, 94344, Note_on_c, 9, 42, 0
3, 94464, Note_on_c, 9, 42, 114
3, 94464, Note_on_c, 9, 35, 120
3, 94496, Note_on_c, 9, 42, 0
3, 94536, Note_on_c, 9, 35, 0
3, 94560, Note_on_c, 9, 42, 58
3, 94592, Note_on_c, 9, 42, 0
3, 94656, Note_on_c, 9, 40, 52
3, 94656, Note_on_c, 9, 70, 94
3, 94656, Note_on_c, 9, 42, 54
3, 94704, Note_on_c, 9, 40, 0
3, 94720, Note_on_c, 9, 40, 62
3, 94728, Note_on_c, 9, 42, 0
3, 94736, Note_on_c, 9, 70, 0
3, 94768, Note_on_c, 9, 40, 0
3, 94784, Note_on_c, 9, 40, 70
3, 94832, Note_on_c, 9, 40, 0
3, 94848, Note_on_c, 9, 42, 114
3, 94848, Note_on_c, 9, 40, 122
3, 94920, Note_on_c, 9, 40, 0
3, 94920, Note_on_c, 9, 42, 0
3, 95044, Note_on_c, 9, 45, 114
3, 95044, Note_on_c, 9, 42, 54
3, 95064, Note_on_c, 9, 42, 0
3, 95112, Note_on_c, 9, 45, 0
3, 95136, Note_on_c, 9, 42, 66
3, 95160, Note_on_c, 9, 42, 0
3, 95232, Note_on_c, 9, 49, 104
3, 95232, Note_on_c, 9, 42, 114
3, 95232, Note_on_c, 9, 35, 120
3, 95296, Note_on_c, 9, 49, 0
3, 95304, Note_on_c, 9, 35, 0
3, 95304, Note_on_c, 9, 42, 0
3, 95328, Note_on_c, 9, 70, 74
3, 95408, Note_on_c, 9, 70, 0
3, 95424, Note_on_c, 9, 42, 54
3, 95424, Note_on_c, 9, 82, 64
3, 95496, Note_on_c, 9, 42, 0
3, 95520, Note_on_c, 9, 82, 0
3, 95520, Note_on_c, 9, 69, 54
3, 95568, Note_on_c, 9, 69, 0
3, 95616, Note_on_c, 9, 40, 122
3, 95620, Note_on_c, 9, 42, 114
3, 95688, Note_on_c, 9, 42, 0
3, 95688, Note_on_c, 9, 40, 0
3, 95808, Note_on_c, 9, 35, 120
3, 95808, Note_on_c, 9, 42, 54
3, 95880, Note_on_c, 9, 42, 0
3, 95880, Note_on_c, 9, 35, 0
3, 96000, Note_on_c, 9, 42, 114
3, 96000, Note_on_c, 9, 35, 120
3, 96032, Note_on_c, 9, 42, 0
3, 96072, Note_on_c, 9, 35, 0
3, 96096, Note_on_c, 9, 42, 58
3, 96128, Note_on_c, 9, 42, 0
3, 96192, Note_on_c, 9, 70, 94
3, 96192, Note_on_c, 9, 42, 54
3, 96264, Note_on_c, 9, 42, 0
3, 96272, Note_on_c, 9, 70, 0
3, 96384, Note_on_c, 9, 42, 114
3, 96384, Note_on_c, 9, 40, 122
3, 96456, Note_on_c, 9, 40, 0
3, 96456, Note_on_c, 9, 42, 0
3, 96576, Note_on_c, 9, 42, 54
3, 96600, Note_on_c, 9, 42, 0
3, 96672, Note_on_c, 9, 42, 66
3, 96696, Note_on_c, 9, 42, 0
3, 96768, Note_on_c, 9, 42, 114
3, 96768, Note_on_c, 9, 35, 120
3, 96840, Note_on_c, 9, 35, 0
3, 96840, Note_on_c, 9, 42, 0
3, 96864, Note_on_c, 9, 70, 74
3, 96944, Note_on_c, 9, 70, 0
3, 96960, Note_on_c, 9, 42, 54
3, 96960, Note_on_c, 9, 82, 64
3, 97032, Note_on_c, 9, 42, 0
3, 97056, Note_on_c, 9, 82, 0
3, 97056, Note_on_c, 9, 69, 54
3, 97104, Note_on_c, 9, 69, 0
3, 97152, Note_on_c, 9, 40, 122
3, 97156, Note_on_c, 9, 42, 114
3, 97224, Note_on_c, 9, 42, 0
3, 97224, Note_on_c, 9, 40, 0
3, 97344, Note_on_c, 9, 35, 120
3, 97344, Note_on_c, 9, 42, 54
3, 97416, Note_on_c, 9, 42, 0
3, 97416, Note_on_c, 9, 35, 0
3, 97536, Note_on_c, 9, 42, 114
3, 97536, Note_on_c, 9, 35, 120
3, 97568, Note_on_c, 9, 42, 0
3, 97608, Note_on_c, 9, 35, 0
3, 97632, Note_on_c, 9, 42, 58
3, 97664, Note_on_c, 9, 42, 0
3, 97728, Note_on_c, 9, 70, 94
3, 97728, Note_on_c, 9, 42, 54
3, 97800, Note_on_c, 9, 42, 0
3, 97808, Note_on_c, 9, 70, 0
3, 97920, Note_on_c, 9, 42, 114
3, 97920, Note_on_c, 9, 40, 122
3, 97992, Note_on_c, 9, 40, 0
3, 97992, Note_on_c, 9, 42, 0
3, 98112, Note_on_c, 9, 42, 54
3, 98136, Note_on_c, 9, 42, 0
3, 98208, Note_on_c, 9, 42, 66
3, 98232, Note_on_c, 9, 42, 0
3, 98304, Note_on_c, 9, 42, 114
3, 98304, Note_on_c, 9, 35, 120
3, 98376, Note_on_c, 9, 35, 0
3, 98376, Note_on_c, 9, 42, 0
3, 98400, Note_on_c, 9, 70, 74
3, 98480, Note_on_c, 9, 70, 0
3, 98496, Note_on_c, 9, 42, 54
3, 98496, Note_on_c, 9, 82, 64
3, 98568, Note_on_c, 9, 42, 0
3, 98592, Note_on_c, 9, 82, 0
3, 98592, Note_on_c, 9, 69, 54
3, 98640, Note_on_c, 9, 69, 0
3, 98688, Note_on_c, 9, 40, 122
3, 98692, Note_on_c, 9, 42, 114
3, 98760, Note_on_c, 9, 42, 0
3, 98760, Note_on_c, 9, 40, 0
3, 98880, Note_on_c, 9, 35, 120
3, 98880, Note_on_c, 9, 42, 54
3, 98952, Note_on_c, 9, 42, 0
3, 98952, Note_on_c, 9, 35, 0
3, 99072, Note_on_c, 9, 42, 114
3, 99072, Note_on_c, 9, 35, 120
3, 99104, Note_on_c, 9, 42, 0
3, 99144, Note_on_c, 9, 35, 0
3, 99168, Note_on_c, 9, 42, 58
3, 99200, Note_on_c, 9, 42, 0
3, 99264, Note_on_c, 9, 70, 94
3, 99264, Note_on_c, 9, 42, 54
3, 99336, Note_on_c, 9, 42, 0
3, 99344, Note_on_c, 9, 70, 0
3, 99456, Note_on_c, 9, 42, 114
3, 99456, Note_on_c, 9, 40, 122
3, 99528, Note_on_c, 9, 40, 0
3, 99528, Note_on_c, 9, 42, 0
3, 99648, Note_on_c, 9, 42, 54
3, 99672, Note_on_c, 9, 42, 0
3, 99744, Note_on_c, 9, 42, 66
3, 99768, Note_on_c, 9, 42, 0
3, 99840, Note_on_c, 9, 42, 114
3, 99840, Note_on_c, 9, 35, 120
3, 99912, Note_on_c, 9, 35, 0
3, 99912, Note_on_c, 9, 42, 0
3, 99936, Note_on_c, 9, 70, 74
3, 100016, Note_on_c, 9, 70, 0
3, 100032, Note_on_c, 9, 42, 54
3, 100032, Note_on_c, 9, 82, 64
3, 100104, Note_on_c, 9, 42, 0
3, 100128, Note_on_c, 9, 82, 0
3, 100128, Note_on_c, 9, 69, 54
3, 100176, Note_on_c, 9, 69, 0
3, 100224, Note_on_c, 9, 40, 122
3, 100228, Note_on_c, 9, 42, 114
3, 100296, Note_on_c, 9, 42, 0
3, 100296, Note_on_c, 9, 40, 0
3, 100416, Note_on_c, 9, 35, 120
3, 100416, Note_on_c, 9, 42, 54
3, 100488, Note_on_c, 9, 42, 0
3, 100488, Note_on_c, 9, 35, 0
3, 100608, Note_on_c, 9, 42, 114
3, 100608, Note_on_c, 9, 35, 120
3, 100640, Note_on_c, 9, 42, 0
3, 100680, Note_on_c, 9, 35, 0
3, 100704, Note_on_c, 9, 42, 58
3, 100736, Note_on_c, 9, 42, 0
3, 100800, Note_on_c, 9, 70, 94
3, 100800, Note_on_c, 9, 42, 54
3, 100872, Note_on_c, 9, 42, 0
3, 100880, Note_on_c, 9, 70, 0
3, 100992, Note_on_c, 9, 42, 114
3, 100992, Note_on_c, 9, 40, 122
3, 101064, Note_on_c, 9, 40, 0
3, 101064, Note_on_c, 9, 42, 0
3, 101184, Note_on_c, 9, 42, 54
3, 101208, Note_on_c, 9, 42, 0
3, 101280, Note_on_c, 9, 42, 66
3, 101304, Note_on_c, 9, 42, 0
3, 101376, Note_on_c, 9, 42, 114
3, 101376, Note_on_c, 9, 35, 120
3, 101448, Note_on_c, 9, 35, 0
3, 101448, Note_on_c, 9, 42, 0
3, 101472, Note_on_c, 9, 70, 74
3, 101552, Note_on_c, 9, 70, 0
3, 101568, Note_on_c, 9, 42, 54
3, 101568, Note_on_c, 9, 82, 64
3, 101640, Note_on_c, 9, 42, 0
3, 101664, Note_on_c, 9, 82, 0
3, 101664, Note_on_c, 9, 69, 54
3, 101712, Note_on_c, 9, 69, 0
3, 101760, Note_on_c, 9, 40, 122
3, 101764, Note_on_c, 9, 42, 114
3, 101832, Note_on_c, 9, 42, 0
3, 101832, Note_on_c, 9, 40, 0
3, 101952, Note_on_c, 9, 35, 120
3, 101952, Note_on_c, 9, 42, 54
3, 102024, Note_on_c, 9, 42, 0
3, 102024, Note_on_c, 9, 35, 0
3, 102144, Note_on_c, 9, 42, 114
3, 102144, Note_on_c, 9, 35, 120
3, 102176, Note_on_c, 9, 42, 0
3, 102216, Note_on_c, 9, 35, 0
3, 102240, Note_on_c, 9, 42, 58
3, 102272, Note_on_c, 9, 42, 0
3, 102336, Note_on_c, 9, 70, 94
3, 102336, Note_on_c, 9, 42, 54
3, 102408, Note_on_c, 9, 42, 0
3, 102416, Note_on_c, 9, 70, 0
3, 102528, Note_on_c, 9, 42, 114
3, 102528, Note_on_c, 9, 40, 122
3, 102600, Note_on_c, 9, 40, 0
3, 102600, Note_on_c, 9, 42, 0
3, 102720, Note_on_c, 9, 42, 54
3, 102744, Note_on_c, 9, 42, 0
3, 102816, Note_on_c, 9, 42, 66
3, 102840, Note_on_c, 9, 42, 0
3, 102912, Note_on_c, 9, 42, 114
3, 102912, Note_on_c, 9, 35, 120
3, 102984, Note_on_c, 9, 35, 0
3, 102984, Note_on_c, 9, 42, 0
3, 103008, Note_on_c, 9, 70, 74
3, 103088, Note_on_c, 9, 70, 0
3, 103104, Note_on_c, 9, 42, 54
3, 103104, Note_on_c, 9, 82, 64
3, 103176, Note_on_c, 9, 42, 0
3, 103200, Note_on_c, 9, 82, 0
3, 103200, Note_on_c, 9, 69, 54
3, 103248, Note_on_c, 9, 69, 0
3, 103296, Note_on_c, 9, 40, 122
3, 103300, Note_on_c, 9, 42, 114
3, 103368, Note_on_c, 9, 42, 0
3, 103368, Note_on_c, 9, 40, 0
3, 103488, Note_on_c, 9, 35, 120
3, 103488, Note_on_c, 9, 42, 54
3, 103560, Note_on_c, 9, 42, 0
3, 103560, Note_on_c, 9, 35, 0
3, 103680, Note_on_c, 9, 42, 114
3, 103680, Note_on_c, 9, 35, 120
3, 103712, Note_on_c, 9, 42, 0
3, 103752, Note_on_c, 9, 35, 0
3, 103776, Note_on_c, 9, 42, 58
3, 103808, Note_on_c, 9, 42, 0
3, 103872, Note_on_c, 9, 70, 94
3, 103872, Note_on_c, 9, 42, 54
3, 103944, Note_on_c, 9, 42, 0
3, 103952, Note_on_c, 9, 70, 0
3, 104064, Note_on_c, 9, 42, 114
3, 104064, Note_on_c, 9, 40, 122
3, 104136, Note_on_c, 9, 40, 0
3, 104136, Note_on_c, 9, 42, 0
3, 104256, Note_on_c, 9, 42, 54
3, 104280, Note_on_c, 9, 42, 0
3, 104352, Note_on_c, 9, 42, 66
3, 104376, Note_on_c, 9, 42, 0
3, 104448, Note_on_c, 9, 42, 114
3, 104448, Note_on_c, 9, 35, 120
3, 104520, Note_on_c, 9, 35, 0
3, 104520, Note_on_c, 9, 42, 0
3, 104544, Note_on_c, 9, 70, 74
3, 104624, Note_on_c, 9, 70, 0
3, 104640, Note_on_c, 9, 42, 54
3, 104640, Note_on_c, 9, 82, 64
3, 104712, Note_on_c, 9, 42, 0
3, 104736, Note_on_c, 9, 82, 0
3, 104736, Note_on_c, 9, 69, 54
3, 104784, Note_on_c, 9, 69, 0
3, 104832, Note_on_c, 9, 40, 122
3, 104836, Note_on_c, 9, 42, 114
3, 104904, Note_on_c, 9, 42, 0
3, 104904, Note_on_c, 9, 40, 0
3, 105024, Note_on_c, 9, 35, 120
3, 105024, Note_on_c, 9, 42, 54
3, 105096, Note_on_c, 9, 42, 0
3, 105096, Note_on_c, 9, 35, 0
3, 105216, Note_on_c, 9, 42, 114
3, 105216, Note_on_c, 9, 35, 120
3, 105248, Note_on_c, 9, 42, 0
3, 105288, Note_on_c, 9, 35, 0
3, 105312, Note_on_c, 9, 42, 58
3, 105344, Note_on_c, 9, 42, 0
3, 105408, Note_on_c, 9, 70, 94
3, 105408, Note_on_c, 9, 42, 54
3, 105480, Note_on_c, 9, 42, 0
3, 105488, Note_on_c, 9, 70, 0
3, 105600, Note_on_c, 9, 42, 114
3, 105600, Note_on_c, 9, 40, 122
3, 105672, Note_on_c, 9, 40, 0
3, 105672, Note_on_c, 9, 42, 0
3, 105792, Note_on_c, 9, 42, 54
3, 105816, Note_on_c, 9, 42, 0
3, 105888, Note_on_c, 9, 42, 66
3, 105912, Note_on_c, 9, 42, 0
3, 105984, Note_on_c, 9, 42, 114
3, 105984, Note_on_c, 9, 35, 120
3, 106056, Note_on_c, 9, 35, 0
3, 106056, Note_on_c, 9, 42, 0
3, 106080, Note_on_c, 9, 70, 74
3, 106160, Note_on_c, 9, 70, 0
3, 106176, Note_on_c, 9, 42, 54
3, 106176, Note_on_c, 9, 82, 64
3, 106248, Note_on_c, 9, 42, 0
3, 106272, Note_on_c, 9, 82, 0
3, 106272, Note_on_c, 9, 69, 54
3, 106320, Note_on_c, 9, 69, 0
3, 106368, Note_on_c, 9, 40, 122
3, 106372, Note_on_c, 9, 42, 114
3, 106440, Note_on_c, 9, 42, 0
3, 106440, Note_on_c, 9, 40, 0
3, 106560, Note_on_c, 9, 35, 120
3, 106560, Note_on_c, 9, 42, 54
3, 106632, Note_on_c, 9, 42, 0
3, 106632, Note_on_c, 9, 35, 0
3, 106752, Note_on_c, 9, 42, 114
3, 106752, Note_on_c, 9, 35, 120
3, 106784, Note_on_c, 9, 42, 0
3, 106824, Note_on_c, 9, 35, 0
3, 106848, Note_on_c, 9, 42, 58
3, 106880, Note_on_c, 9, 42, 0
3, 106944, Note_on_c, 9, 70, 94
3, 106944, Note_on_c, 9, 42, 54
3, 107016, Note_on_c, 9, 42, 0
3, 107024, Note_on_c, 9, 70, 0
3, 107136, Note_on_c, 9, 42, 114
3, 107136, Note_on_c, 9, 40, 122
3, 107208, Note_on_c, 9, 40, 0
3, 107208, Note_on_c, 9, 42, 0
3, 107328, Note_on_c, 9, 42, 54
3, 107352, Note_on_c, 9, 42, 0
3, 107424, Note_on_c, 9, 42, 66
3, 107448, Note_on_c, 9, 42, 0
3, 107520, Note_on_c, 9, 57, 104
3, 107520, Note_on_c, 9, 42, 114
3, 107520, Note_on_c, 9, 35, 120
3, 107584, Note_on_c, 9, 57, 0
3, 107592, Note_on_c, 9, 35, 0
3, 107592, Note_on_c, 9, 42, 0
3, 107616, Note_on_c, 9, 70, 74
3, 107696, Note_on_c, 9, 70, 0
3, 107712, Note_on_c, 9, 42, 54
3, 107712, Note_on_c, 9, 82, 64
3, 107784, Note_on_c, 9, 42, 0
3, 107808, Note_on_c, 9, 82, 0
3, 107808, Note_on_c, 9, 69, 54
3, 107856, Note_on_c, 9, 69, 0
3, 107904, Note_on_c, 9, 40, 122
3, 107908, Note_on_c, 9, 42, 114
3, 107976, Note_on_c, 9, 42, 0
3, 107976, Note_on_c, 9, 40, 0
3, 108096, Note_on_c, 9, 35, 120
3, 108096, Note_on_c, 9, 42, 54
3, 108168, Note_on_c, 9, 42, 0
3, 108168, Note_on_c, 9, 35, 0
3, 108288, Note_on_c, 9, 42, 114
3, 108288, Note_on_c, 9, 35, 120
3, 108320, Note_on_c, 9, 42, 0
3, 108360, Note_on_c, 9, 35, 0
3, 108384, Note_on_c, 9, 42, 58
3, 108416, Note_on_c, 9, 42, 0
3, 108480, Note_on_c, 9, 70, 94
3, 108480, Note_on_c, 9, 42, 54
3, 108552, Note_on_c, 9, 42, 0
3, 108560, Note_on_c, 9, 70, 0
3, 108672, Note_on_c, 9, 42, 114
3, 108672, Note_on_c, 9, 40, 122
3, 108744, Note_on_c, 9, 40, 0
3, 108744, Note_on_c, 9, 42, 0
3, 108864, Note_on_c, 9, 42, 54
3, 108888, Note_on_c, 9, 42, 0
3, 108960, Note_on_c, 9, 42, 66
3, 108984, Note_on_c, 9, 42, 0
3, 109056, Note_on_c, 9, 42, 114
3, 109056, Note_on_c, 9, 35, 120
3, 109128, Note_on_c, 9, 35, 0
3, 109128, Note_on_c, 9, 42, 0
3, 109152, Note_on_c, 9, 70, 74
3, 109232, Note_on_c, 9, 70, 0
3, 109248, Note_on_c, 9, 42, 54
3, 109248, Note_on_c, 9, 82, 64
3, 109320, Note_on_c, 9, 42, 0
3, 109344, Note_on_c, 9, 82, 0
3, 109344, Note_on_c, 9, 69, 54
3, 109392, Note_on_c, 9, 69, 0
3, 109440, Note_on_c, 9, 40, 122
3, 109444, Note_on_c, 9, 42, 114
3, 109512, Note_on_c, 9, 42, 0
3, 109512, Note_on_c, 9, 40, 0
3, 109632, Note_on_c, 9, 35, 120
3, 109632, Note_on_c, 9, 42, 54
3, 109704, Note_on_c, 9, 42, 0
3, 109704, Note_on_c, 9, 35, 0
3, 109824, Note_on_c, 9, 42, 114
3, 109824, Note_on_c, 9, 35, 120
3, 109856, Note_on_c, 9, 42, 0
3, 109896, Note_on_c, 9, 35, 0
3, 109920, Note_on_c, 9, 42, 58
3, 109952, Note_on_c, 9, 42, 0
3, 110016, Note_on_c, 9, 70, 94
3, 110016, Note_on_c, 9, 42, 54
3, 110088, Note_on_c, 9, 42, 0
3, 110096, Note_on_c, 9, 70, 0
3, 110208, Note_on_c, 9, 42, 114
3, 110208, Note_on_c, 9, 40, 122
3, 110280, Note_on_c, 9, 40, 0
3, 110280, Note_on_c, 9, 42, 0
3, 110400, Note_on_c, 9, 42, 54
3, 110424, Note_on_c, 9, 42, 0
3, 110496, Note_on_c, 9, 42, 66
3, 110520, Note_on_c, 9, 42, 0
3, 110592, Note_on_c, 9, 42, 114
3, 110592, Note_on_c, 9, 35, 120
3, 110664, Note_on_c, 9, 35, 0
3, 110664, Note_on_c, 9, 42, 0
3, 110688, Note_on_c, 9, 70, 74
3, 110768, Note_on_c, 9, 70, 0
3, 110784, Note_on_c, 9, 42, 54
3, 110784, Note_on_c, 9, 82, 64
3, 110856, Note_on_c, 9, 42, 0
3, 110880, Note_on_c, 9, 82, 0
3, 110880, Note_on_c, 9, 69, 54
3, 110928, Note_on_c, 9, 69, 0
3, 110976, Note_on_c, 9, 40, 122
3, 110980, Note_on_c, 9, 42, 114
3, 111048, Note_on_c, 9, 42, 0
3, 111048, Note_on_c, 9, 40, 0
3, 111168, Note_on_c, 9, 35, 120
3, 111168, Note_on_c, 9, 42, 54
3, 111240, Note_on_c, 9, 42, 0
3, 111240, Note_on_c, 9, 35, 0
3, 111360, Note_on_c, 9, 42, 114
3, 111360, Note_on_c, 9, 35, 120
3, 111392, Note_on_c, 9, 42, 0
3, 111432, Note_on_c, 9, 35, 0
3, 111456, Note_on_c, 9, 42, 58
3, 111488, Note_on_c, 9, 42, 0
3, 111552, Note_on_c, 9, 70, 94
3, 111552, Note_on_c, 9, 42, 54
3, 111624, Note_on_c, 9, 42, 0
3, 111632, Note_on_c, 9, 70, 0
3, 111744, Note_on_c, 9, 42, 114
3, 111744, Note_on_c, 9, 40, 122
3, 111816, Note_on_c, 9, 40, 0
3, 111816, Note_on_c, 9, 42, 0
3, 111936, Note_on_c, 9, 42, 54
3, 111960, Note_on_c, 9, 42, 0
3, 112032, Note_on_c, 9, 42, 66
3, 112056, Note_on_c, 9, 42, 0
3, 112128, Note_on_c, 9, 42, 114
3, 112128, Note_on_c, 9, 35, 120
3, 112200, Note_on_c, 9, 35, 0
3, 112200, Note_on_c, 9, 42, 0
3, 112224, Note_on_c, 9, 70, 74
3, 112304, Note_on_c, 9, 70, 0
3, 112320, Note_on_c, 9, 42, 54
3, 112320, Note_on_c, 9, 82, 64
3, 112392, Note_on_c, 9, 42, 0
3, 112416, Note_on_c, 9, 82, 0
3, 112416, Note_on_c, 9, 69, 54
3, 112464, Note_on_c, 9, 69, 0
3, 112512, Note_on_c, 9, 40, 122
3, 112516, Note_on_c, 9, 42, 114
3, 112584, Note_on_c, 9, 42, 0
3, 112584, Note_on_c, 9, 40, 0
3, 112704, Note_on_c, 9, 35, 120
3, 112704, Note_on_c, 9, 42, 54
3, 112776, Note_on_c, 9, 42, 0
3, 112776, Note_on_c, 9, 35, 0
3, 112896, Note_on_c, 9, 42, 114
3, 112896, Note_on_c, 9, 35, 120
3, 112928, Note_on_c, 9, 42, 0
3, 112968, Note_on_c, 9, 35, 0
3, 112992, Note_on_c, 9, 42, 58
3, 113024, Note_on_c, 9, 42, 0
3, 113088, Note_on_c, 9, 70, 94
3, 113088, Note_on_c, 9, 42, 54
3, 113160, Note_on_c, 9, 42, 0
3, 113168, Note_on_c, 9, 70, 0
3, 113280, Note_on_c, 9, 42, 114
3, 113280, Note_on_c, 9, 40, 122
3, 113352, Note_on_c, 9, 40, 0
3, 113352, Note_on_c, 9, 42, 0
3, 113472, Note_on_c, 9, 42, 54
3, 113496, Note_on_c, 9, 42, 0
3, 113568, Note_on_c, 9, 42, 66
3, 113592, Note_on_c, 9, 42, 0
3, 113664, Note_on_c, 9, 42, 114
3, 113664, Note_on_c, 9, 35, 120
3, 113736, Note_on_c, 9, 35, 0
3, 113736, Note_on_c, 9, 42, 0
3, 113760, Note_on_c, 9, 70, 74
3, 113840, Note_on_c, 9, 70, 0
3, 113856, Note_on_c, 9, 42, 54
3, 113856, Note_on_c, 9, 82, 64
3, 113928, Note_on_c, 9, 42, 0
3, 113952, Note_on_c, 9, 82, 0
3, 113952, Note_on_c, 9, 69, 54
3, 114000, Note_on_c, 9, 69, 0
3, 114048, Note_on_c, 9, 40, 122
3, 114052, Note_on_c, 9, 42, 114
3, 114120, Note_on_c, 9, 42, 0
3, 114120, Note_on_c, 9, 40, 0
3, 114240, Note_on_c, 9, 35, 120
3, 114240, Note_on_c, 9, 42, 54
3, 114312, Note_on_c, 9, 42, 0
3, 114312, Note_on_c, 9, 35, 0
3, 114432, Note_on_c, 9, 42, 114
3, 114432, Note_on_c, 9, 35, 120
3, 114464, Note_on_c, 9, 42, 0
3, 114504, Note_on_c, 9, 35, 0
3, 114528, Note_on_c, 9, 42, 58
3, 114560, Note_on_c, 9, 42, 0
3, 114624, Note_on_c, 9, 70, 94
3, 114624, Note_on_c, 9, 42, 54
3, 114696, Note_on_c, 9, 42, 0
3, 114704, Note_on_c, 9, 70, 0
3, 114816, Note_on_c, 9, 42, 114
3, 114816, Note_on_c, 9, 40, 122
3, 114888, Note_on_c, 9, 40, 0
3, 114888, Note_on_c, 9, 42, 0
3, 115008, Note_on_c, 9, 42, 54
3, 115032, Note_on_c, 9, 42, 0
3, 115104, Note_on_c, 9, 42, 66
3, 115128, Note_on_c, 9, 42, 0
3, 115200, Note_on_c, 9, 42, 114
3, 115200, Note_on_c, 9, 35, 120
3, 115272, Note_on_c, 9, 35, 0
3, 115272, Note_on_c, 9, 42, 0
3, 115296, Note_on_c, 9, 70, 74
3, 115376, Note_on_c, 9, 70, 0
3, 115392, Note_on_c, 9, 42, 54
3, 115392, Note_on_c, 9, 82, 64
3, 115464, Note_on_c, 9, 42, 0
3, 115488, Note_on_c, 9, 82, 0
3, 115488, Note_on_c, 9, 69, 54
3, 115536, Note_on_c, 9, 69, 0
3, 115584, Note_on_c, 9, 40, 122
3, 115588, Note_on_c, 9, 42, 114
3, 115656, Note_on_c, 9, 42, 0
3, 115656, Note_on_c, 9, 40, 0
3, 115776, Note_on_c, 9, 35, 120
3, 115776, Note_on_c, 9, 42, 54
3, 115848, Note_on_c, 9, 42, 0
3, 115848, Note_on_c, 9, 35, 0
3, 115968, Note_on_c, 9, 42, 114
3, 115968, Note_on_c, 9, 35, 120
3, 116000, Note_on_c, 9, 42, 0
3, 116040, Note_on_c, 9, 35, 0
3, 116064, Note_on_c, 9, 42, 58
3, 116096, Note_on_c, 9, 42, 0
3, 116160, Note_on_c, 9, 70, 94
3, 116160, Note_on_c, 9, 42, 54
3, 116232, Note_on_c, 9, 42, 0
3, 116240, Note_on_c, 9, 70, 0
3, 116352, Note_on_c, 9, 42, 114
3, 116352, Note_on_c, 9, 40, 122
3, 116424, Note_on_c, 9, 40, 0
3, 116424, Note_on_c, 9, 42, 0
3, 116544, Note_on_c, 9, 42, 54
3, 116568, Note_on_c, 9, 42, 0
3, 116640, Note_on_c, 9, 42, 66
3, 116664, Note_on_c, 9, 42, 0
3, 116736, Note_on_c, 9, 42, 114
3, 116736, Note_on_c, 9, 35, 120
3, 116808, Note_on_c, 9, 35, 0
3, 116808, Note_on_c, 9, 42, 0
3, 116832, Note_on_c, 9, 70, 74
3, 116912, Note_on_c, 9, 70, 0
3, 116928, Note_on_c, 9, 42, 54
3, 116928, Note_on_c, 9, 82, 64
3, 117000, Note_on_c, 9, 42, 0
3, 117024, Note_on_c, 9, 82, 0
3, 117024, Note_on_c, 9, 69, 54
3, 117072, Note_on_c, 9, 69, 0
3, 117120, Note_on_c, 9, 40, 122
3, 117124, Note_on_c, 9, 42, 114
3, 117192, Note_on_c, 9, 42, 0
3, 117192, Note_on_c, 9, 40, 0
3, 117312, Note_on_c, 9, 35, 120
3, 117312, Note_on_c, 9, 42, 54
3, 117384, Note_on_c, 9, 42, 0
3, 117384, Note_on_c, 9, 35, 0
3, 117504, Note_on_c, 9, 42, 114
3, 117504, Note_on_c, 9, 35, 120
3, 117536, Note_on_c, 9, 42, 0
3, 117576, Note_on_c, 9, 35, 0
3, 117600, Note_on_c, 9, 42, 58
3, 117632, Note_on_c, 9, 42, 0
3, 117696, Note_on_c, 9, 70, 94
3, 117696, Note_on_c, 9, 42, 54
3, 117768, Note_on_c, 9, 42, 0
3, 117776, Note_on_c, 9, 70, 0
3, 117888, Note_on_c, 9, 42, 114
3, 117888, Note_on_c, 9, 40, 122
3, 117960, Note_on_c, 9, 40, 0
3, 117960, Note_on_c, 9, 42, 0
3, 118080, Note_on_c, 9, 42, 54
3, 118104, Note_on_c, 9, 42, 0
3, 118176, Note_on_c, 9, 42, 66
3, 118200, Note_on_c, 9, 42, 0
3, 118272, Note_on_c, 9, 42, 114
3, 118272, Note_on_c, 9, 35, 120
3, 118344, Note_on_c, 9, 35, 0
3, 118344, Note_on_c, 9, 42, 0
3, 118368, Note_on_c, 9, 70, 74
3, 118448, Note_on_c, 9, 70, 0
3, 118464, Note_on_c, 9, 42, 54
3, 118464, Note_on_c, 9, 82, 64
3, 118536, Note_on_c, 9, 42, 0
3, 118560, Note_on_c, 9, 82, 0
3, 118560, Note_on_c, 9, 69, 54
3, 118608, Note_on_c, 9, 69, 0
3, 118656, Note_on_c, 9, 40, 122
3, 118660, Note_on_c, 9, 42, 114
3, 118728, Note_on_c, 9, 42, 0
3, 118728, Note_on_c, 9, 40, 0
3, 118848, Note_on_c, 9, 35, 120
3, 118848, Note_on_c, 9, 42, 54
3, 118920, Note_on_c, 9, 42, 0
3, 118920, Note_on_c, 9, 35, 0
3, 119040, Note_on_c, 9, 42, 114
3, 119040, Note_on_c, 9, 35, 120
3, 119072, Note_on_c, 9, 42, 0
3, 119112, Note_on_c, 9, 35, 0
3, 119136, Note_on_c, 9, 42, 58
3, 119168, Note_on_c, 9, 42, 0
3, 119232, Note_on_c, 9, 70, 94
3, 119232, Note_on_c, 9, 42, 54
3, 119304, Note_on_c, 9, 42, 0
3, 119312, Note_on_c, 9, 70, 0
3, 119424, Note_on_c, 9, 42, 114
3, 119424, Note_on_c, 9, 40, 122
3, 119496, Note_on_c, 9, 40, 0
3, 119496, Note_on_c, 9, 42, 0
3, 119616, Note_on_c, 9, 42, 54
3, 119640, Note_on_c, 9, 42, 0
3, 119712, Note_on_c, 9, 42, 66
3, 119736, Note_on_c, 9, 42, 0
3, 119808, Note_on_c, 9, 42, 114
3, 119808, Note_on_c, 9, 35, 120
3, 119880, Note_on_c, 9, 35, 0
3, 119880, Note_on_c, 9, 42, 0
3, 119904, Note_on_c, 9, 70, 74
3, 119984, Note_on_c, 9, 70, 0
3, 120000, Note_on_c, 9, 42, 54
3, 120000, Note_on_c, 9, 82, 64
3, 120072, Note_on_c, 9, 42, 0
3, 120096, Note_on_c, 9, 82, 0
3, 120096, Note_on_c, 9, 69, 54
3, 120144, Note_on_c, 9, 69, 0
3, 120192, Note_on_c, 9, 40, 122
3, 120196, Note_on_c, 9, 42, 114
3, 120264, Note_on_c, 9, 42, 0
3, 120264, Note_on_c, 9, 40, 0
3, 120384, Note_on_c, 9, 35, 120
3, 120384, Note_on_c, 9, 42, 54
3, 120456, Note_on_c, 9, 42, 0
3, 120456, Note_on_c, 9, 35, 0
3, 120576, Note_on_c, 9, 42, 114
3, 120576, Note_on_c, 9, 35, 120
3, 120608, Note_on_c, 9, 42, 0
3, 120648, Note_on_c, 9, 35, 0
3, 120672, Note_on_c, 9, 42, 58
3, 120704, Note_on_c, 9, 42, 0
3, 120768, Note_on_c, 9, 70, 94
3, 120768, Note_on_c, 9, 42, 54
3, 120840, Note_on_c, 9, 42, 0
3, 120848, Note_on_c, 9, 70, 0
3, 120960, Note_on_c, 9, 42, 114
3, 120960, Note_on_c, 9, 40, 122
3, 121032, Note_on_c, 9, 40, 0
3, 121032, Note_on_c, 9, 42, 0
3, 121152, Note_on_c, 9, 42, 54
3, 121176, Note_on_c, 9, 42, 0
3, 121248, Note_on_c, 9, 42, 66
3, 121272, Note_on_c, 9, 42, 0
3, 121344, Note_on_c, 9, 42, 114
3, 121344, Note_on_c, 9, 35, 120
3, 121416, Note_on_c, 9, 35, 0
3, 121416, Note_on_c, 9, 42, 0
3, 121440, Note_on_c, 9, 70, 74
3, 121520, Note_on_c, 9, 70, 0
3, 121536, Note_on_c, 9, 42, 54
3, 121536, Note_on_c, 9, 82, 64
3, 121608, Note_on_c, 9, 42, 0
3, 121632, Note_on_c, 9, 82, 0
3, 121632, Note_on_c, 9, 69, 54
3, 121680, Note_on_c, 9, 69, 0
3, 121728, Note_on_c, 9, 40, 122
3, 121732, Note_on_c, 9, 42, 114
3, 121800, Note_on_c, 9, 42, 0
3, 121800, Note_on_c, 9, 40, 0
3, 121920, Note_on_c, 9, 35, 120
3, 121920, Note_on_c, 9, 42, 54
3, 121992, Note_on_c, 9, 42, 0
3, 121992, Note_on_c, 9, 35, 0
3, 122112, Note_on_c, 9, 42, 114
3, 122112, Note_on_c, 9, 35, 120
3, 122144, Note_on_c, 9, 42, 0
3, 122184, Note_on_c, 9, 35, 0
3, 122208, Note_on_c, 9, 42, 58
3, 122240, Note_on_c, 9, 42, 0
3, 122304, Note_on_c, 9, 70, 94
3, 122304, Note_on_c, 9, 42, 54
3, 122376, Note_on_c, 9, 42, 0
3, 122384, Note_on_c, 9, 70, 0
3, 122496, Note_on_c, 9, 42, 114
3, 122496, Note_on_c, 9, 40, 122
3, 122568, Note_on_c, 9, 40, 0
3, 122568, Note_on_c, 9, 42, 0
3, 122688, Note_on_c, 9, 42, 54
3, 122712, Note_on_c, 9, 42, 0
3, 122784, Note_on_c, 9, 42, 66
3, 122808, Note_on_c, 9, 42, 0
3, 122880, Note_on_c, 9, 42, 114
3, 122880, Note_on_c, 9, 35, 120
3, 122952, Note_on_c, 9, 35, 0
3, 122952, Note_on_c, 9, 42, 0
3, 122976, Note_on_c, 9, 70, 74
3, 123056, Note_on_c, 9, 70, 0
3, 123072, Note_on_c, 9, 42, 54
3, 123072, Note_on_c, 9, 82, 64
3, 123144, Note_on_c, 9, 42, 0
3, 123168, Note_on_c, 9, 82, 0
3, 123168, Note_on_c, 9, 69, 54
3, 123216, Note_on_c, 9, 69, 0
3, 123264, Note_on_c, 9, 40, 122
3, 123268, Note_on_c, 9, 42, 114
3, 123336, Note_on_c, 9, 42, 0
3, 123336, Note_on_c, 9, 40, 0
3, 123456, Note_on_c, 9, 35, 120
3, 123456, Note_on_c, 9, 42, 54
3, 123528, Note_on_c, 9, 42, 0
3, 123528, Note_on_c, 9, 35, 0
3, 123648, Note_on_c, 9, 42, 114
3, 123648, Note_on_c, 9, 35, 120
3, 123680, Note_on_c, 9, 42, 0
3, 123720, Note_on_c, 9, 35, 0
3, 123744, Note_on_c, 9, 42, 58
3, 123776, Note_on_c, 9, 42, 0
3, 123840, Note_on_c, 9, 70, 94
3, 123840, Note_on_c, 9, 42, 54
3, 123912, Note_on_c, 9, 42, 0
3, 123920, Note_on_c, 9, 70, 0
3, 124032, Note_on_c, 9, 42, 114
3, 124032, Note_on_c, 9, 40, 122
3, 124104, Note_on_c, 9, 40, 0
3, 124104, Note_on_c, 9, 42, 0
3, 124224, Note_on_c, 9, 42, 54
3, 124248, Note_on_c, 9, 42, 0
3, 124320, Note_on_c, 9, 42, 66
3, 124344, Note_on_c, 9, 42, 0
3, 124416, Note_on_c, 9, 42, 114
3, 124416, Note_on_c, 9, 35, 120
3, 124488, Note_on_c, 9, 35, 0
3, 124488, Note_on_c, 9, 42, 0
3, 124512, Note_on_c, 9, 70, 74
3, 124592, Note_on_c, 9, 70, 0
3, 124608, Note_on_c, 9, 42, 54
3, 124608, Note_on_c, 9, 82, 64
3, 124680, Note_on_c, 9, 42, 0
3, 124704, Note_on_c, 9, 82, 0
3, 124704, Note_on_c, 9, 69, 54
3, 124752, Note_on_c, 9, 69, 0
3, 124800, Note_on_c, 9, 40, 122
3, 124804, Note_on_c, 9, 42, 114
3, 124872, Note_on_c, 9, 42, 0
3, 124872, Note_on_c, 9, 40, 0
3, 124992, Note_on_c, 9, 35, 120
3, 124992, Note_on_c, 9, 42, 54
3, 125064, Note_on_c, 9, 42, 0
3, 125064, Note_on_c, 9, 35, 0
3, 125184, Note_on_c, 9, 42, 114
3, 125184, Note_on_c, 9, 35, 120
3, 125216, Note_on_c, 9, 42, 0
3, 125256, Note_on_c, 9, 35, 0
3, 125280, Note_on_c, 9, 42, 58
3, 125312, Note_on_c, 9, 42, 0
3, 125376, Note_on_c, 9, 70, 94
3, 125376, Note_on_c, 9, 42, 54
3, 125448, Note_on_c, 9, 42, 0
3, 125456, Note_on_c, 9, 70, 0
3, 125568, Note_on_c, 9, 42, 114
3, 125568, Note_on_c, 9, 40, 122
3, 125640, Note_on_c, 9, 40, 0
3, 125640, Note_on_c, 9, 42, 0
3, 125760, Note_on_c, 9, 42, 54
3, 125784, Note_on_c, 9, 42, 0
3, 125856, Note_on_c, 9, 42, 66
3, 125880, Note_on_c, 9, 42, 0
3, 125952, Note_on_c, 9, 42, 114
3, 125952, Note_on_c, 9, 35, 120
3, 126024, Note_on_c, 9, 35, 0
3, 126024, Note_on_c, 9, 42, 0
3, 126048, Note_on_c, 9, 70, 74
3, 126128, Note_on_c, 9, 70, 0
3, 126144, Note_on_c, 9, 42, 54
3, 126144, Note_on_c, 9, 82, 64
3, 126216, Note_on_c, 9, 42, 0
3, 126240, Note_on_c, 9, 82, 0
3, 126240, Note_on_c, 9, 69, 54
3, 126288, Note_on_c, 9, 69, 0
3, 126336, Note_on_c, 9, 40, 122
3, 126340, Note_on_c, 9, 42, 114
3, 126408, Note_on_c, 9, 42, 0
3, 126408, Note_on_c, 9, 40, 0
3, 126528, Note_on_c, 9, 35, 120
3, 126528, Note_on_c, 9, 42, 54
3, 126600, Note_on_c, 9, 42, 0
3, 126600, Note_on_c, 9, 35, 0
3, 126720, Note_on_c, 9, 42, 114
3, 126720, Note_on_c, 9, 35, 120
3, 126752, Note_on_c, 9, 42, 0
3, 126792, Note_on_c, 9, 35, 0
3, 126816, Note_on_c, 9, 42, 58
3, 126848, Note_on_c, 9, 42, 0
3, 126912, Note_on_c, 9, 70, 94
3, 126912, Note_on_c, 9, 42, 54
3, 126984, Note_on_c, 9, 42, 0
3, 126992, Note_on_c, 9, 70, 0
3, 127104, Note_on_c, 9, 42, 114
3, 127104, Note_on_c, 9, 40, 122
3, 127176, Note_on_c, 9, 40, 0
3, 127176, Note_on_c, 9, 42, 0
3, 127296, Note_on_c, 9, 42, 54
3, 127320, Note_on_c, 9, 42, 0
3, 127392, Note_on_c, 9, 42, 66
3, 127416, Note_on_c, 9, 42, 0
3, 127488, Note_on_c, 9, 42, 114
3, 127488, Note_on_c, 9, 35, 120
3, 127560, Note_on_c, 9, 35, 0
3, 127560, Note_on_c, 9, 42, 0
3, 127584, Note_on_c, 9, 70, 74
3, 127664, Note_on_c, 9, 70, 0
3, 127680, Note_on_c, 9, 42, 54
3, 127680, Note_on_c, 9, 82, 64
3, 127752, Note_on_c, 9, 42, 0
3, 127776, Note_on_c, 9, 82, 0
3, 127776, Note_on_c, 9, 69, 54
3, 127824, Note_on_c, 9, 69, 0
3, 127872, Note_on_c, 9, 40, 122
3, 127876, Note_on_c, 9, 42, 114
3, 127944, Note_on_c, 9, 42, 0
3, 127944, Note_on_c, 9, 40, 0
3, 128064, Note_on_c, 9, 35, 120
3, 128064, Note_on_c, 9, 42, 54
3, 128136, Note_on_c, 9, 42, 0
3, 128136, Note_on_c, 9, 35, 0
3, 128256, Note_on_c, 9, 42, 114
3, 128256, Note_on_c, 9, 35, 120
3, 128288, Note_on_c, 9, 42, 0
3, 128328, Note_on_c, 9, 35, 0
3, 128352, Note_on_c, 9, 42, 58
3, 128384, Note_on_c, 9, 42, 0
3, 128448, Note_on_c, 9, 70, 94
3, 128448, Note_on_c, 9, 42, 54
3, 128520, Note_on_c, 9, 42, 0
3, 128528, Note_on_c, 9, 70, 0
3, 128640, Note_on_c, 9, 42, 114
3, 128640, Note_on_c, 9, 40, 122
3, 128712, Note_on_c, 9, 40, 0
3, 128712, Note_on_c, 9, 42, 0
3, 128832, Note_on_c, 9, 42, 54
3, 128856, Note_on_c, 9, 42, 0
3, 128928, Note_on_c, 9, 42, 66
3, 128952, Note_on_c, 9, 42, 0
3, 129024, Note_on_c, 9, 42, 114
3, 129024, Note_on_c, 9, 35, 120
3, 129096, Note_on_c, 9, 35, 0
3, 129096, Note_on_c, 9, 42, 0
3, 129120, Note_on_c, 9, 70, 74
3, 129200, Note_on_c, 9, 70, 0
3, 129216, Note_on_c, 9, 42, 54
3, 129216, Note_on_c, 9, 82, 64
3, 129288, Note_on_c, 9, 42, 0
3, 129312, Note_on_c, 9, 82, 0
3, 129312, Note_on_c, 9, 69, 54
3, 129360, Note_on_c, 9, 69, 0
3, 129408, Note_on_c, 9, 40, 122
3, 129412, Note_on_c, 9, 42, 114
3, 129480, Note_on_c, 9, 42, 0
3, 129480, Note_on_c, 9, 40, 0
3, 129600, Note_on_c, 9, 35, 120
3, 129600, Note_on_c, 9, 42, 54
3, 129672, Note_on_c, 9, 42, 0
3, 129672, Note_on_c, 9, 35, 0
3, 129792, Note_on_c, 9, 42, 114
3, 129792, Note_on_c, 9, 35, 120
3, 129824, Note_on_c, 9, 42, 0
3, 129864, Note_on_c, 9, 35, 0
3, 129888, Note_on_c, 9, 42, 58
3, 129920, Note_on_c, 9, 42, 0
3, 129984, Note_on_c, 9, 70, 94
3, 129984, Note_on_c, 9, 42, 54
3, 130056, Note_on_c, 9, 42, 0
3, 130064, Note_on_c, 9, 70, 0
3, 130176, Note_on_c, 9, 42, 114
3, 130176, Note_on_c, 9, 40, 122
3, 130248, Note_on_c, 9, 40, 0
3, 130248, Note_on_c, 9, 42, 0
3, 130368, Note_on_c, 9, 42, 54
3, 130392, Note_on_c, 9, 42, 0
3, 130464, Note_on_c, 9, 42, 66
3, 130488, Note_on_c, 9, 42, 0
3, 130560, Note_on_c, 9, 42, 114
3, 130560, Note_on_c, 9, 35, 120
3, 130632, Note_on_c, 9, 35, 0
3, 130632, Note_on_c, 9, 42, 0
3, 130656, Note_on_c, 9, 70, 74
3, 130736, Note_on_c, 9, 70, 0
3, 130752, Note_on_c, 9, 42, 54
3, 130752, Note_on_c, 9, 82, 64
3, 130824, Note_on_c, 9, 42, 0
3, 130848, Note_on_c, 9, 82, 0
3, 130848, Note_on_c, 9, 69, 54
3, 130896, Note_on_c, 9, 69, 0
3, 130944, Note_on_c, 9, 40, 122
3, 130948, Note_on_c, 9, 42, 114
3, 131016, Note_on_c, 9, 42, 0
3, 131016, Note_on_c, 9, 40, 0
3, 131136, Note_on_c, 9, 35, 120
3, 131136, Note_on_c, 9, 42, 54
3, 131208, Note_on_c, 9, 42, 0
3, 131208, Note_on_c, 9, 35, 0
3, 131328, Note_on_c, 9, 42, 114
3, 131328, Note_on_c, 9, 35, 120
3, 131360, Note_on_c, 9, 42, 0
3, 131400, Note_on_c, 9, 35, 0
3, 131424, Note_on_c, 9, 42, 58
3, 131456, Note_on_c, 9, 42, 0
3, 131520, Note_on_c, 9, 70, 94
3, 131520, Note_on_c, 9, 42, 54
3, 131592, Note_on_c, 9, 42, 0
3, 131600, Note_on_c, 9, 70, 0
3, 131712, Note_on_c, 9, 42, 114
3, 131712, Note_on_c, 9, 40, 122
3, 131784, Note_on_c, 9, 40, 0
3, 131784, Note_on_c, 9, 42, 0
3, 131904, Note_on_c, 9, 42, 54
3, 131928, Note_on_c, 9, 42, 0
3, 132000, Note_on_c, 9, 42, 66
3, 132024, Note_on_c, 9, 42, 0
3, 132096, Note_on_c, 9, 42, 114
3, 132096, Note_on_c, 9, 35, 120
3, 132168, Note_on_c, 9, 35, 0
3, 132168, Note_on_c, 9, 42, 0
3, 132192, Note_on_c, 9, 70, 74
3, 132272, Note_on_c, 9, 70, 0
3, 132288, Note_on_c, 9, 42, 54
3, 132288, Note_on_c, 9, 82, 64
3, 132360, Note_on_c, 9, 42, 0
3, 132384, Note_on_c, 9, 82, 0
3, 132384, Note_on_c, 9, 69, 54
3, 132432, Note_on_c, 9, 69, 0
3, 132480, Note_on_c, 9, 40, 122
3, 132484, Note_on_c, 9, 42, 114
3, 132552, Note_on_c, 9, 42, 0
3, 132552, Note_on_c, 9, 40, 0
3, 132672, Note_on_c, 9, 35, 120
3, 132672, Note_on_c, 9, 42, 54
3, 132744, Note_on_c, 9, 42, 0
3, 132744, Note_on_c, 9, 35, 0
3, 132864, Note_on_c, 9, 42, 114
3, 132864, Note_on_c, 9, 35, 120
3, 132896, Note_on_c, 9, 42, 0
3, 132936, Note_on_c, 9, 35, 0
3, 132960, Note_on_c, 9, 42, 58
3, 132992, Note_on_c, 9, 42, 0
3, 133056, Note_on_c, 9, 70, 94
3, 133056, Note_on_c, 9, 42, 54
3, 133128, Note_on_c, 9, 42, 0
3, 133136, Note_on_c, 9, 70, 0
3, 133248, Note_on_c, 9, 42, 114
3, 133248, Note_on_c, 9, 40, 122
3, 133320, Note_on_c, 9, 40, 0
3, 133320, Note_on_c, 9, 42, 0
3, 133440, Note_on_c, 9, 42, 54
3, 133464, Note_on_c, 9, 42, 0
3, 133536, Note_on_c, 9, 42, 66
3, 133560, Note_on_c, 9, 42, 0
3, 133632, Note_on_c, 9, 42, 114
3, 133632, Note_on_c, 9, 35, 120
3, 133704, Note_on_c, 9, 35, 0
3, 133704, Note_on_c, 9, 42, 0
3, 133728, Note_on_c, 9, 70, 74
3, 133808, Note_on_c, 9, 70, 0
3, 133824, Note_on_c, 9, 42, 54
3, 133824, Note_on_c, 9, 82, 64
3, 133896, Note_on_c, 9, 42, 0
3, 133920, Note_on_c, 9, 82, 0
3, 133920, Note_on_c, 9, 69, 54
3, 133968, Note_on_c, 9, 69, 0
3, 134016, Note_on_c, 9, 40, 122
3, 134020, Note_on_c, 9, 42, 114
3, 134088, Note_on_c, 9, 42, 0
3, 134088, Note_on_c, 9, 40, 0
3, 134208, Note_on_c, 9, 35, 120
3, 134208, Note_on_c, 9, 42, 54
3, 134280, Note_on_c, 9, 42, 0
3, 134280, Note_on_c, 9, 35, 0
3, 134400, Note_on_c, 9, 42, 114
3, 134400, Note_on_c, 9, 35, 120
3, 134432, Note_on_c, 9, 42, 0
3, 134472, Note_on_c, 9, 35, 0
3, 134496, Note_on_c, 9, 42, 58
3, 134528, Note_on_c, 9, 42, 0
3, 134592, Note_on_c, 9, 70, 94
3, 134592, Note_on_c, 9, 42, 54
3, 134664, Note_on_c, 9, 42, 0
3, 134672, Note_on_c, 9, 70, 0
3, 134784, Note_on_c, 9, 42, 114
3, 134784, Note_on_c, 9, 40, 122
3, 134856, Note_on_c, 9, 40, 0
3, 134856, Note_on_c, 9, 42, 0
3, 134976, Note_on_c, 9, 42, 54
3, 135000, Note_on_c, 9, 42, 0
3, 135072, Note_on_c, 9, 42, 66
3, 135096, Note_on_c, 9, 42, 0
3, 135168, Note_on_c, 9, 42, 114
3, 135168, Note_on_c, 9, 35, 120
3, 135240, Note_on_c, 9, 35, 0
3, 135240, Note_on_c, 9, 42, 0
3, 135264, Note_on_c, 9, 70, 74
3, 135344, Note_on_c, 9, 70, 0
3, 135360, Note_on_c, 9, 42, 54
3, 135360, Note_on_c, 9, 82, 64
3, 135432, Note_on_c, 9, 42, 0
3, 135456, Note_on_c, 9, 82, 0
3, 135456, Note_on_c, 9, 69, 54
3, 135504, Note_on_c, 9, 69, 0
3, 135552, Note_on_c, 9, 40, 122
3, 135556, Note_on_c, 9, 42, 114
3, 135624, Note_on_c, 9, 42, 0
3, 135624, Note_on_c, 9, 40, 0
3, 135744, Note_on_c, 9, 35, 120
3, 135744, Note_on_c, 9, 42, 54
3, 135816, Note_on_c, 9, 42, 0
3, 135816, Note_on_c, 9, 35, 0
3, 135936, Note_on_c, 9, 42, 114
3, 135936, Note_on_c, 9, 35, 120
3, 135968, Note_on_c, 9, 42, 0
3, 136008, Note_on_c, 9, 35, 0
3, 136032, Note_on_c, 9, 42, 58
3, 136064, Note_on_c, 9, 42, 0
3, 136128, Note_on_c, 9, 70, 94
3, 136128, Note_on_c, 9, 42, 54
3, 136200, Note_on_c, 9, 42, 0
3, 136208, Note_on_c, 9, 70, 0
3, 136320, Note_on_c, 9, 42, 114
3, 136320, Note_on_c, 9, 40, 122
3, 136392, Note_on_c, 9, 40, 0
3, 136392, Note_on_c, 9, 42, 0
3, 136512, Note_on_c, 9, 42, 54
3, 136536, Note_on_c, 9, 42, 0
3, 136608, Note_on_c, 9, 42, 66
3, 136632, Note_on_c, 9, 42, 0
3, 136704, Note_on_c, 9, 42, 114
3, 136704, Note_on_c, 9, 35, 120
3, 136776, Note_on_c, 9, 35, 0
3, 136776, Note_on_c, 9, 42, 0
3, 136800, Note_on_c, 9, 70, 74
3, 136880, Note_on_c, 9, 70, 0
3, 136896, Note_on_c, 9, 42, 54
3, 136896, Note_on_c, 9, 82, 64
3, 136968, Note_on_c, 9, 42, 0
3, 136992, Note_on_c, 9, 82, 0
3, 136992, Note_on_c, 9, 69, 54
3, 137040, Note_on_c, 9, 69, 0
3, 137088, Note_on_c, 9, 40, 122
3, 137088, Note_on_c, 9, 42, 114
3, 137160, Note_on_c, 9, 42, 0
3, 137160, Note_on_c, 9, 40, 0
3, 137280, Note_on_c, 9, 42, 54
3, 137280, Note_on_c, 9, 35, 120
3, 137352, Note_on_c, 9, 35, 0
3, 137356, Note_on_c, 9, 42, 0
3, 137472, Note_on_c, 9, 42, 114
3, 137472, Note_on_c, 9, 35, 120
3, 137504, Note_on_c, 9, 42, 0
3, 137544, Note_on_c, 9, 35, 0
3, 137568, Note_on_c, 9, 42, 58
3, 137600, Note_on_c, 9, 42, 0
3, 137664, Note_on_c, 9, 70, 94
3, 137664, Note_on_c, 9, 40, 52
3, 137668, Note_on_c, 9, 42, 54
3, 137712, Note_on_c, 9, 40, 0
3, 137728, Note_on_c, 9, 40, 62
3, 137736, Note_on_c, 9, 42, 0
3, 137744, Note_on_c, 9, 70, 0
3, 137776, Note_on_c, 9, 40, 0
3, 137792, Note_on_c, 9, 40, 70
3, 137840, Note_on_c, 9, 40, 0
3, 137856, Note_on_c, 9, 40, 122
3, 137860, Note_on_c, 9, 42, 114
3, 137928, Note_on_c, 9, 42, 0
3, 137928, Note_on_c, 9, 40, 0
3, 138048, Note_on_c, 9, 45, 114
3, 138048, Note_on_c, 9, 42, 54
3, 138072, Note_on_c, 9, 42, 0
3, 138120, Note_on_c, 9, 45, 0
3, 138144, Note_on_c, 9, 42, 66
3, 138168, Note_on_c, 9, 42, 0
3, 138240, Note_on_c, 9, 35, 120
3, 138240, Note_on_c, 9, 40, 122
3, 138312, Note_on_c, 9, 40, 0
3, 138312, Note_on_c, 9, 35, 0
3, 138336, Note_on_c, 9, 70, 74
3, 138416, Note_on_c, 9, 70, 0
3, 138432, Note_on_c, 9, 42, 54
3, 138432, Note_on_c, 9, 82, 64
3, 138436, Note_on_c, 9, 80, 50
3, 138488, Note_on_c, 9, 80, 0
3, 138504, Note_on_c, 9, 42, 0
3, 138528, Note_on_c, 9, 82, 0
3, 138528, Note_on_c, 9, 69, 54
3, 138576, Note_on_c, 9, 69, 0
3, 138624, Note_on_c, 9, 57, 104
3, 138624, Note_on_c, 9, 39, 114
3, 138624, Note_on_c, 9, 42, 114
3, 138624, Note_on_c, 9, 40, 122
3, 138628, Note_on_c, 9, 80, 66
3, 138688, Note_on_c, 9, 80, 0
3, 138696, Note_on_c, 9, 57, 0
3, 138696, Note_on_c, 9, 39, 0
3, 138700, Note_on_c, 9, 42, 0
3, 138700, Note_on_c, 9, 40, 0
3, 138816, Note_on_c, 9, 42, 54
3, 138816, Note_on_c, 9, 35, 120
3, 138820, Note_on_c, 9, 81, 82
3, 138888, Note_on_c, 9, 35, 0
3, 138888, Note_on_c, 9, 42, 0
3, 138896, Note_on_c, 9, 81, 0
3, 139008, Note_on_c, 9, 35, 120
3, 139008, Note_on_c, 9, 42, 114
3, 139040, Note_on_c, 9, 42, 0
3, 139080, Note_on_c, 9, 35, 0
3, 139104, Note_on_c, 9, 42, 58
3, 139104, Note_on_c, 9, 81, 78
3, 139136, Note_on_c, 9, 42, 0
3, 139176, Note_on_c, 9, 81, 0
3, 139200, Note_on_c, 9, 70, 94
3, 139200, Note_on_c, 9, 80, 62
3, 139204, Note_on_c, 9, 42, 54
3, 139272, Note_on_c, 9, 42, 0
3, 139280, Note_on_c, 9, 70, 0
3, 139288, Note_on_c, 9, 80, 0
3, 139392, Note_on_c, 9, 39, 114
3, 139392, Note_on_c, 9, 40, 122
3, 139392, Note_on_c, 9, 42, 114
3, 139392, Note_on_c, 9, 81, 72
3, 139464, Note_on_c, 9, 42, 0
3, 139464, Note_on_c, 9, 39, 0
3, 139464, Note_on_c, 9, 40, 0
3, 139504, Note_on_c, 9, 81, 0
3, 139584, Note_on_c, 9, 42, 54
3, 139584, Note_on_c, 9, 80, 80
3, 139608, Note_on_c, 9, 42, 0
3, 139648, Note_on_c, 9, 80, 0
3, 139680, Note_on_c, 9, 42, 66
3, 139704, Note_on_c, 9, 42, 0
3, 139776, Note_on_c, 9, 35, 120
3, 139780, Note_on_c, 9, 42, 114
3, 139780, Note_on_c, 9, 81, 80
3, 139848, Note_on_c, 9, 42, 0
3, 139848, Note_on_c, 9, 35, 0
3, 139864, Note_on_c, 9, 81, 0
3, 139872, Note_on_c, 9, 70, 74
3, 139952, Note_on_c, 9, 70, 0
3, 139968, Note_on_c, 9, 42, 54
3, 139968, Note_on_c, 9, 82, 64
3, 139968, Note_on_c, 9, 80, 50
3, 140024, Note_on_c, 9, 80, 0
3, 140040, Note_on_c, 9, 42, 0
3, 140064, Note_on_c, 9, 82, 0
3, 140068, Note_on_c, 9, 69, 54
3, 140112, Note_on_c, 9, 69, 0
3, 140160, Note_on_c, 9, 39, 114
3, 140160, Note_on_c, 9, 40, 122
3, 140164, Note_on_c, 9, 42, 114
3, 140164, Note_on_c, 9, 80, 66
3, 140224, Note_on_c, 9, 80, 0
3, 140236, Note_on_c, 9, 39, 0
3, 140236, Note_on_c, 9, 40, 0
3, 140236, Note_on_c, 9, 42, 0
3, 140352, Note_on_c, 9, 42, 54
3, 140352, Note_on_c, 9, 35, 120
3, 140352, Note_on_c, 9, 81, 82
3, 140424, Note_on_c, 9, 35, 0
3, 140424, Note_on_c, 9, 42, 0
3, 140432, Note_on_c, 9, 81, 0
3, 140544, Note_on_c, 9, 42, 114
3, 140544, Note_on_c, 9, 35, 120
3, 140576, Note_on_c, 9, 42, 0
3, 140616, Note_on_c, 9, 35, 0
3, 140640, Note_on_c, 9, 42, 58
3, 140640, Note_on_c, 9, 81, 78
3, 140672, Note_on_c, 9, 42, 0
3, 140712, Note_on_c, 9, 81, 0
3, 140736, Note_on_c, 9, 70, 94
3, 140736, Note_on_c, 9, 42, 54
3, 140736, Note_on_c, 9, 80, 62
3, 140808, Note_on_c, 9, 42, 0
3, 140816, Note_on_c, 9, 70, 0
3, 140824, Note_on_c, 9, 80, 0
3, 140928, Note_on_c, 9, 39, 114
3, 140928, Note_on_c, 9, 40, 122
3, 140932, Note_on_c, 9, 42, 114
3, 140932, Note_on_c, 9, 81, 72
3, 141000, Note_on_c, 9, 40, 0
3, 141000, Note_on_c, 9, 39, 0
3, 141004, Note_on_c, 9, 42, 0
3, 141040, Note_on_c, 9, 81, 0
3, 141120, Note_on_c, 9, 42, 54
3, 141120, Note_on_c, 9, 80, 80
3, 141144, Note_on_c, 9, 42, 0
3, 141184, Note_on_c, 9, 80, 0
3, 141216, Note_on_c, 9, 42, 66
3, 141240, Note_on_c, 9, 42, 0
3, 141312, Note_on_c, 9, 35, 120
3, 141316, Note_on_c, 9, 42, 114
3, 141316, Note_on_c, 9, 81, 80
3, 141384, Note_on_c, 9, 42, 0
3, 141384, Note_on_c, 9, 35, 0
3, 141400, Note_on_c, 9, 81, 0
3, 141408, Note_on_c, 9, 70, 74
3, 141488, Note_on_c, 9, 70, 0
3, 141504, Note_on_c, 9, 42, 54
3, 141504, Note_on_c, 9, 82, 64
3, 141504, Note_on_c, 9, 80, 50
3, 141560, Note_on_c, 9, 80, 0
3, 141576, Note_on_c, 9, 42, 0
3, 141600, Note_on_c, 9, 82, 0
3, 141604, Note_on_c, 9, 69, 54
3, 141648, Note_on_c, 9, 69, 0
3, 141696, Note_on_c, 9, 39, 114
3, 141696, Note_on_c, 9, 40, 122
3, 141700, Note_on_c, 9, 42, 114
3, 141700, Note_on_c, 9, 80, 66
3, 141760, Note_on_c, 9, 80, 0
3, 141772, Note_on_c, 9, 39, 0
3, 141772, Note_on_c, 9, 40, 0
3, 141772, Note_on_c, 9, 42, 0
3, 141888, Note_on_c, 9, 42, 54
3, 141888, Note_on_c, 9, 35, 120
3, 141888, Note_on_c, 9, 81, 82
3, 141960, Note_on_c, 9, 35, 0
3, 141960, Note_on_c, 9, 42, 0
3, 141968, Note_on_c, 9, 81, 0
3, 142080, Note_on_c, 9, 42, 114
3, 142080, Note_on_c, 9, 35, 120
3, 142112, Note_on_c, 9, 42, 0
3, 142152, Note_on_c, 9, 35, 0
3, 142176, Note_on_c, 9, 42, 58
3, 142176, Note_on_c, 9, 81, 78
3, 142208, Note_on_c, 9, 42, 0
3, 142248, Note_on_c, 9, 81, 0
3, 142272, Note_on_c, 9, 70, 94
3, 142272, Note_on_c, 9, 42, 54
3, 142272, Note_on_c, 9, 80, 62
3, 142344, Note_on_c, 9, 42, 0
3, 142352, Note_on_c, 9, 70, 0
3, 142360, Note_on_c, 9, 80, 0
3, 142464, Note_on_c, 9, 39, 114
3, 142464, Note_on_c, 9, 40, 122
3, 142468, Note_on_c, 9, 42, 114
3, 142468, Note_on_c, 9, 81, 72
3, 142536, Note_on_c, 9, 40, 0
3, 142536, Note_on_c, 9, 39, 0
3, 142540, Note_on_c, 9, 42, 0
3, 142576, Note_on_c, 9, 81, 0
3, 142656, Note_on_c, 9, 42, 54
3, 142656, Note_on_c, 9, 80, 80
3, 142680, Note_on_c, 9, 42, 0
3, 142720, Note_on_c, 9, 80, 0
3, 142752, Note_on_c, 9, 42, 66
3, 142776, Note_on_c, 9, 42, 0
3, 142848, Note_on_c, 9, 35, 120
3, 142852, Note_on_c, 9, 42, 114
3, 142852, Note_on_c, 9, 81, 80
3, 142920, Note_on_c, 9, 42, 0
3, 142920, Note_on_c, 9, 35, 0
3, 142936, Note_on_c, 9, 81, 0
3, 142944, Note_on_c, 9, 70, 74
3, 143024, Note_on_c, 9, 70, 0
3, 143040, Note_on_c, 9, 47, 114
3, 143040, Note_on_c, 9, 42, 54
3, 143040, Note_on_c, 9, 82, 64
3, 143040, Note_on_c, 9, 80, 50
3, 143096, Note_on_c, 9, 80, 0
3, 143104, Note_on_c, 9, 47, 0
3, 143112, Note_on_c, 9, 42, 0
3, 143136, Note_on_c, 9, 82, 0
3, 143140, Note_on_c, 9, 69, 54
3, 143184, Note_on_c, 9, 69, 0
3, 143232, Note_on_c, 9, 39, 114
3, 143232, Note_on_c, 9, 40, 122
3, 143236, Note_on_c, 9, 42, 114
3, 143236, Note_on_c, 9, 80, 66
3, 143296, Note_on_c, 9, 80, 0
3, 143308, Note_on_c, 9, 39, 0
3, 143308, Note_on_c, 9, 40, 0
3, 143308, Note_on_c, 9, 42, 0
3, 143424, Note_on_c, 9, 42, 54
3, 143424, Note_on_c, 9, 35, 120
3, 143424, Note_on_c, 9, 81, 82
3, 143496, Note_on_c, 9, 35, 0
3, 143496, Note_on_c, 9, 42, 0
3, 143504, Note_on_c, 9, 81, 0
3, 143616, Note_on_c, 9, 42, 114
3, 143616, Note_on_c, 9, 35, 120
3, 143648, Note_on_c, 9, 42, 0
3, 143688, Note_on_c, 9, 35, 0
3, 143712, Note_on_c, 9, 42, 58
3, 143712, Note_on_c, 9, 81, 78
3, 143744, Note_on_c, 9, 42, 0
3, 143784, Note_on_c, 9, 81, 0
3, 143808, Note_on_c, 9, 45, 114
3, 143808, Note_on_c, 9, 70, 94
3, 143808, Note_on_c, 9, 42, 54
3, 143808, Note_on_c, 9, 80, 62
3, 143872, Note_on_c, 9, 45, 0
3, 143880, Note_on_c, 9, 42, 0
3, 143888, Note_on_c, 9, 70, 0
3, 143896, Note_on_c, 9, 80, 0
3, 144000, Note_on_c, 9, 39, 114
3, 144000, Note_on_c, 9, 40, 122
3, 144004, Note_on_c, 9, 42, 114
3, 144004, Note_on_c, 9, 81, 72
3, 144072, Note_on_c, 9, 40, 0
3, 144072, Note_on_c, 9, 39, 0
3, 144076, Note_on_c, 9, 42, 0
3, 144112, Note_on_c, 9, 81, 0
3, 144192, Note_on_c, 9, 42, 54
3, 144192, Note_on_c, 9, 80, 80
3, 144216, Note_on_c, 9, 42, 0
3, 144256, Note_on_c, 9, 80, 0
3, 144288, Note_on_c, 9, 42, 66
3, 144312, Note_on_c, 9, 42, 0
3, 144384, Note_on_c, 9, 49, 104
3, 144384, Note_on_c, 9, 35, 120
3, 144384, Note_on_c, 9, 40, 122
3, 144388, Note_on_c, 9, 42, 114
3, 144388, Note_on_c, 9, 81, 80
3, 144448, Note_on_c, 9, 49, 0
3, 144460, Note_on_c, 9, 42, 0
3, 144460, Note_on_c, 9, 35, 0
3, 144460, Note_on_c, 9, 40, 0
3, 144472, Note_on_c, 9, 81, 0
3, 144480, Note_on_c, 9, 70, 74
3, 144560, Note_on_c, 9, 70, 0
3, 144576, Note_on_c, 9, 42, 54
3, 144576, Note_on_c, 9, 82, 64
3, 144576, Note_on_c, 9, 80, 50
3, 144632, Note_on_c, 9, 80, 0
3, 144648, Note_on_c, 9, 42, 0
3, 144672, Note_on_c, 9, 82, 0
3, 144676, Note_on_c, 9, 69, 54
3, 144720, Note_on_c, 9, 69, 0
3, 144768, Note_on_c, 9, 57, 104
3, 144768, Note_on_c, 9, 39, 114
3, 144772, Note_on_c, 9, 42, 114
3, 144772, Note_on_c, 9, 40, 122
3, 144772, Note_on_c, 9, 80, 66
3, 144832, Note_on_c, 9, 80, 0
3, 144840, Note_on_c, 9, 57, 0
3, 144844, Note_on_c, 9, 39, 0
3, 144844, Note_on_c, 9, 42, 0
3, 144844, Note_on_c, 9, 40, 0
3, 144960, Note_on_c, 9, 42, 54
3, 144960, Note_on_c, 9, 35, 120
3, 144960, Note_on_c, 9, 81, 82
3, 145032, Note_on_c, 9, 35, 0
3, 145032, Note_on_c, 9, 42, 0
3, 145040, Note_on_c, 9, 81, 0
3, 145152, Note_on_c, 9, 42, 114
3, 145152, Note_on_c, 9, 35, 120
3, 145184, Note_on_c, 9, 42, 0
3, 145224, Note_on_c, 9, 35, 0
3, 145248, Note_on_c, 9, 42, 58
3, 145248, Note_on_c, 9, 81, 78
3, 145280, Note_on_c, 9, 42, 0
3, 145320, Note_on_c, 9, 81, 0
3, 145344, Note_on_c, 9, 80, 62
3, 145344, Note_on_c, 9, 70, 94
3, 145344, Note_on_c, 9, 42, 54
3, 145416, Note_on_c, 9, 42, 0
3, 145424, Note_on_c, 9, 70, 0
3, 145432, Note_on_c, 9, 80, 0
3, 145536, Note_on_c, 9, 39, 114
3, 145536, Note_on_c, 9, 40, 122
3, 145540, Note_on_c, 9, 42, 114
3, 145540, Note_on_c, 9, 81, 72
3, 145608, Note_on_c, 9, 40, 0
3, 145608, Note_on_c, 9, 39, 0
3, 145612, Note_on_c, 9, 42, 0
3, 145648, Note_on_c, 9, 81, 0
3, 145728, Note_on_c, 9, 42, 54
3, 145728, Note_on_c, 9, 80, 80
3, 145752, Note_on_c, 9, 42, 0
3, 145792, Note_on_c, 9, 80, 0
3, 145824, Note_on_c, 9, 42, 66
3, 145848, Note_on_c, 9, 42, 0
3, 145920, Note_on_c, 9, 35, 120
3, 145924, Note_on_c, 9, 42, 114
3, 145924, Note_on_c, 9, 81, 80
3, 145992, Note_on_c, 9, 42, 0
3, 145992, Note_on_c, 9, 35, 0
3, 146008, Note_on_c, 9, 81, 0
3, 146016, Note_on_c, 9, 70, 74
3, 146096, Note_on_c, 9, 70, 0
3, 146112, Note_on_c, 9, 42, 54
3, 146112, Note_on_c, 9, 82, 64
3, 146112, Note_on_c, 9, 80, 50
3, 146168, Note_on_c, 9, 80, 0
3, 146184, Note_on_c, 9, 42, 0
3, 146208, Note_on_c, 9, 82, 0
3, 146212, Note_on_c, 9, 69, 54
3, 146256, Note_on_c, 9, 69, 0
3, 146304, Note_on_c, 9, 39, 114
3, 146304, Note_on_c, 9, 40, 122
3, 146308, Note_on_c, 9, 42, 114
3, 146308, Note_on_c, 9, 80, 66
3, 146368, Note_on_c, 9, 80, 0
3, 146380, Note_on_c, 9, 39, 0
3, 146380, Note_on_c, 9, 40, 0
3, 146380, Note_on_c, 9, 42, 0
3, 146496, Note_on_c, 9, 42, 54
3, 146496, Note_on_c, 9, 35, 120
3, 146496, Note_on_c, 9, 81, 82
3, 146568, Note_on_c, 9, 35, 0
3, 146568, Note_on_c, 9, 42, 0
3, 146576, Note_on_c, 9, 81, 0
3, 146688, Note_on_c, 9, 42, 114
3, 146688, Note_on_c, 9, 35, 120
3, 146720, Note_on_c, 9, 42, 0
3, 146760, Note_on_c, 9, 35, 0
3, 146784, Note_on_c, 9, 42, 58
3, 146784, Note_on_c, 9, 81, 78
3, 146816, Note_on_c, 9, 42, 0
3, 146856, Note_on_c, 9, 81, 0
3, 146880, Note_on_c, 9, 70, 94
3, 146880, Note_on_c, 9, 42, 54
3, 146880, Note_on_c, 9, 80, 62
3, 146952, Note_on_c, 9, 42, 0
3, 146960, Note_on_c, 9, 70, 0
3, 146968, Note_on_c, 9, 80, 0
3, 147072, Note_on_c, 9, 39, 114
3, 147072, Note_on_c, 9, 40, 122
3, 147076, Note_on_c, 9, 42, 114
3, 147076, Note_on_c, 9, 81, 72
3, 147144, Note_on_c, 9, 40, 0
3, 147144, Note_on_c, 9, 39, 0
3, 147148, Note_on_c, 9, 42, 0
3, 147184, Note_on_c, 9, 81, 0
3, 147264, Note_on_c, 9, 42, 54
3, 147264, Note_on_c, 9, 80, 80
3, 147288, Note_on_c, 9, 42, 0
3, 147328, Note_on_c, 9, 80, 0
3, 147360, Note_on_c, 9, 42, 66
3, 147384, Note_on_c, 9, 42, 0
3, 147456, Note_on_c, 9, 35, 120
3, 147460, Note_on_c, 9, 42, 114
3, 147460, Note_on_c, 9, 81, 80
3, 147528, Note_on_c, 9, 42, 0
3, 147528, Note_on_c, 9, 35, 0
3, 147544, Note_on_c, 9, 81, 0
3, 147552, Note_on_c, 9, 70, 74
3, 147632, Note_on_c, 9, 70, 0
3, 147648, Note_on_c, 9, 42, 54
3, 147648, Note_on_c, 9, 82, 64
3, 147648, Note_on_c, 9, 80, 50
3, 147704, Note_on_c, 9, 80, 0
3, 147720, Note_on_c, 9, 42, 0
3, 147744, Note_on_c, 9, 82, 0
3, 147748, Note_on_c, 9, 69, 54
3, 147792, Note_on_c, 9, 69, 0
3, 147840, Note_on_c, 9, 39, 114
3, 147840, Note_on_c, 9, 40, 122
3, 147844, Note_on_c, 9, 42, 114
3, 147844, Note_on_c, 9, 80, 66
3, 147904, Note_on_c, 9, 80, 0
3, 147916, Note_on_c, 9, 39, 0
3, 147916, Note_on_c, 9, 40, 0
3, 147916, Note_on_c, 9, 42, 0
3, 148032, Note_on_c, 9, 42, 54
3, 148032, Note_on_c, 9, 35, 120
3, 148032, Note_on_c, 9, 81, 82
3, 148104, Note_on_c, 9, 35, 0
3, 148104, Note_on_c, 9, 42, 0
3, 148112, Note_on_c, 9, 81, 0
3, 148224, Note_on_c, 9, 42, 114
3, 148224, Note_on_c, 9, 35, 120
3, 148256, Note_on_c, 9, 42, 0
3, 148296, Note_on_c, 9, 35, 0
3, 148320, Note_on_c, 9, 42, 58
3, 148320, Note_on_c, 9, 81, 78
3, 148352, Note_on_c, 9, 42, 0
3, 148392, Note_on_c, 9, 81, 0
3, 148416, Note_on_c, 9, 70, 94
3, 148416, Note_on_c, 9, 42, 54
3, 148416, Note_on_c, 9, 80, 62
3, 148488, Note_on_c, 9, 42, 0
3, 148496, Note_on_c, 9, 70, 0
3, 148504, Note_on_c, 9, 80, 0
3, 148608, Note_on_c, 9, 39, 114
3, 148608, Note_on_c, 9, 40, 122
3, 148612, Note_on_c, 9, 42, 114
3, 148612, Note_on_c, 9, 81, 72
3, 148680, Note_on_c, 9, 40, 0
3, 148680, Note_on_c, 9, 39, 0
3, 148684, Note_on_c, 9, 42, 0
3, 148720, Note_on_c, 9, 81, 0
3, 148800, Note_on_c, 9, 42, 54
3, 148800, Note_on_c, 9, 80, 80
3, 148824, Note_on_c, 9, 42, 0
3, 148864, Note_on_c, 9, 80, 0
3, 148896, Note_on_c, 9, 42, 66
3, 148920, Note_on_c, 9, 42, 0
3, 148992, Note_on_c, 9, 35, 120
3, 148996, Note_on_c, 9, 42, 114
3, 148996, Note_on_c, 9, 81, 80
3, 149064, Note_on_c, 9, 35, 0
3, 149068, Note_on_c, 9, 42, 0
3, 149080, Note_on_c, 9, 81, 0
3, 149088, Note_on_c, 9, 70, 74
3, 149168, Note_on_c, 9, 70, 0
3, 149184, Note_on_c, 9, 42, 54
3, 149184, Note_on_c, 9, 82, 64
3, 149184, Note_on_c, 9, 80, 50
3, 149240, Note_on_c, 9, 80, 0
3, 149256, Note_on_c, 9, 42, 0
3, 149280, Note_on_c, 9, 82, 0
3, 149284, Note_on_c, 9, 69, 54
3, 149328, Note_on_c, 9, 69, 0
3, 149376, Note_on_c, 9, 39, 114
3, 149376, Note_on_c, 9, 40, 122
3, 149380, Note_on_c, 9, 42, 114
3, 149380, Note_on_c, 9, 80, 66
3, 149440, Note_on_c, 9, 80, 0
3, 149448, Note_on_c, 9, 39, 0
3, 149448, Note_on_c, 9, 40, 0
3, 149452, Note_on_c, 9, 42, 0
3, 149568, Note_on_c, 9, 35, 120
3, 149572, Note_on_c, 9, 42, 54
3, 149572, Note_on_c, 9, 81, 82
3, 149640, Note_on_c, 9, 42, 0
3, 149640, Note_on_c, 9, 35, 0
3, 149648, Note_on_c, 9, 81, 0
3, 149760, Note_on_c, 9, 42, 114
3, 149760, Note_on_c, 9, 40, 88
3, 149792, Note_on_c, 9, 42, 0
3, 149832, Note_on_c, 9, 40, 0
3, 149856, Note_on_c, 9, 42, 58
3, 149856, Note_on_c, 9, 40, 98
3, 149856, Note_on_c, 9, 81, 78
3, 149888, Note_on_c, 9, 42, 0
3, 149928, Note_on_c, 9, 81, 0
3, 149928, Note_on_c, 9, 40, 0
3, 149952, Note_on_c, 9, 40, 108
3, 149956, Note_on_c, 9, 70, 94
3, 149956, Note_on_c, 9, 42, 54
3, 149956, Note_on_c, 9, 80, 62
3, 150024, Note_on_c, 9, 42, 0
3, 150024, Note_on_c, 9, 40, 0
3, 150032, Note_on_c, 9, 70, 0
3, 150040, Note_on_c, 9, 80, 0
3, 150048, Note_on_c, 9, 40, 122
3, 150120, Note_on_c, 9, 40, 0
3, 150144, Note_on_c, 9, 50, 114
3, 150144, Note_on_c, 9, 39, 114
3, 150148, Note_on_c, 9, 42, 114
3, 150148, Note_on_c, 9, 81, 72
3, 150216, Note_on_c, 9, 39, 0
3, 150216, Note_on_c, 9, 50, 0
3, 150220, Note_on_c, 9, 42, 0
3, 150240, Note_on_c, 9, 50, 114
3, 150256, Note_on_c, 9, 81, 0
3, 150312, Note_on_c, 9, 50, 0
3, 150336, Note_on_c, 9, 47, 114
3, 150336, Note_on_c, 9, 42, 54
3, 150340, Note_on_c, 9, 80, 80
3, 150360, Note_on_c, 9, 42, 0
3, 150400, Note_on_c, 9, 80, 0
3, 150412, Note_on_c, 9, 47, 0
3, 150432, Note_on_c, 9, 45, 114
3, 150432, Note_on_c, 9, 42, 66
3, 150456, Note_on_c, 9, 42, 0
3, 150504, Note_on_c, 9, 45, 0
3, 150528, Note_on_c, 9, 57, 104
3, 150528, Note_on_c, 9, 35, 120
3, 150532, Note_on_c, 9, 42, 114
3, 150532, Note_on_c, 9, 81, 80
3, 150592, Note_on_c, 9, 57, 0
3, 150600, Note_on_c, 9, 35, 0
3, 150600, Note_on_c, 9, 42, 0
3, 150616, Note_on_c, 9, 81, 0
3, 150624, Note_on_c, 9, 70, 74
3, 150704, Note_on_c, 9, 70, 0
3, 150720, Note_on_c, 9, 42, 54
3, 150720, Note_on_c, 9, 82, 64
3, 150720, Note_on_c, 9, 80, 50
3, 150776, Note_on_c, 9, 80, 0
3, 150792, Note_on_c, 9, 42, 0
3, 150816, Note_on_c, 9, 82, 0
3, 150820, Note_on_c, 9, 69, 54
3, 150864, Note_on_c, 9, 69, 0
3, 150912, Note_on_c, 9, 39, 114
3, 150912, Note_on_c, 9, 40, 122
3, 150916, Note_on_c, 9, 42, 114
3, 150916, Note_on_c, 9, 80, 66
3, 150976, Note_on_c, 9, 80, 0
3, 150988, Note_on_c, 9, 39, 0
3, 150988, Note_on_c, 9, 40, 0
3, 150988, Note_on_c, 9, 42, 0
3, 151104, Note_on_c, 9, 42, 54
3, 151104, Note_on_c, 9, 35, 120
3, 151104, Note_on_c, 9, 81, 82
3, 151176, Note_on_c, 9, 35, 0
3, 151176, Note_on_c, 9, 42, 0
3, 151184, Note_on_c, 9, 81, 0
3, 151296, Note_on_c, 9, 42, 114
3, 151296, Note_on_c, 9, 35, 120
3, 151328, Note_on_c, 9, 42, 0
3, 151368, Note_on_c, 9, 35, 0
3, 151392, Note_on_c, 9, 42, 58
3, 151392, Note_on_c, 9, 81, 78
3, 151424, Note_on_c, 9, 42, 0
3, 151464, Note_on_c, 9, 81, 0
3, 151488, Note_on_c, 9, 70, 94
3, 151488, Note_on_c, 9, 42, 54
3, 151488, Note_on_c, 9, 80, 62
3, 151560, Note_on_c, 9, 42, 0
3, 151568, Note_on_c, 9, 70, 0
3, 151576, Note_on_c, 9, 80, 0
3, 151680, Note_on_c, 9, 39, 114
3, 151680, Note_on_c, 9, 40, 122
3, 151684, Note_on_c, 9, 42, 114
3, 151684, Note_on_c, 9, 81, 72
3, 151752, Note_on_c, 9, 40, 0
3, 151752, Note_on_c, 9, 39, 0
3, 151756, Note_on_c, 9, 42, 0
3, 151792, Note_on_c, 9, 81, 0
3, 151872, Note_on_c, 9, 42, 54
3, 151872, Note_on_c, 9, 80, 80
3, 151896, Note_on_c, 9, 42, 0
3, 151936, Note_on_c, 9, 80, 0
3, 151968, Note_on_c, 9, 42, 66
3, 151992, Note_on_c, 9, 42, 0
3, 152064, Note_on_c, 9, 35, 120
3, 152068, Note_on_c, 9, 42, 114
3, 152068, Note_on_c, 9, 81, 80
3, 152136, Note_on_c, 9, 42, 0
3, 152136, Note_on_c, 9, 35, 0
3, 152152, Note_on_c, 9, 81, 0
3, 152160, Note_on_c, 9, 70, 74
3, 152240, Note_on_c, 9, 70, 0
3, 152256, Note_on_c, 9, 42, 54
3, 152256, Note_on_c, 9, 82, 64
3, 152256, Note_on_c, 9, 80, 50
3, 152312, Note_on_c, 9, 80, 0
3, 152328, Note_on_c, 9, 42, 0
3, 152352, Note_on_c, 9, 82, 0
3, 152356, Note_on_c, 9, 69, 54
3, 152400, Note_on_c, 9, 69, 0
3, 152448, Note_on_c, 9, 39, 114
3, 152448, Note_on_c, 9, 40, 122
3, 152452, Note_on_c, 9, 42, 114
3, 152452, Note_on_c, 9, 80, 66
3, 152512, Note_on_c, 9, 80, 0
3, 152524, Note_on_c, 9, 39, 0
3, 152524, Note_on_c, 9, 40, 0
3, 152524, Note_on_c, 9, 42, 0
3, 152640, Note_on_c, 9, 42, 54
3, 152640, Note_on_c, 9, 35, 120
3, 152640, Note_on_c, 9, 81, 82
3, 152712, Note_on_c, 9, 35, 0
3, 152712, Note_on_c, 9, 42, 0
3, 152720, Note_on_c, 9, 81, 0
3, 152832, Note_on_c, 9, 42, 114
3, 152832, Note_on_c, 9, 35, 120
3, 152864, Note_on_c, 9, 42, 0
3, 152904, Note_on_c, 9, 35, 0
3, 152928, Note_on_c, 9, 42, 58
3, 152928, Note_on_c, 9, 81, 78
3, 152960, Note_on_c, 9, 42, 0
3, 153000, Note_on_c, 9, 81, 0
3, 153024, Note_on_c, 9, 70, 94
3, 153024, Note_on_c, 9, 42, 54
3, 153024, Note_on_c, 9, 80, 62
3, 153096, Note_on_c, 9, 42, 0
3, 153104, Note_on_c, 9, 70, 0
3, 153112, Note_on_c, 9, 80, 0
3, 153216, Note_on_c, 9, 39, 114
3, 153216, Note_on_c, 9, 40, 122
3, 153220, Note_on_c, 9, 42, 114
3, 153220, Note_on_c, 9, 81, 72
3, 153288, Note_on_c, 9, 40, 0
3, 153288, Note_on_c, 9, 39, 0
3, 153292, Note_on_c, 9, 42, 0
3, 153328, Note_on_c, 9, 81, 0
3, 153408, Note_on_c, 9, 42, 54
3, 153408, Note_on_c, 9, 80, 80
3, 153432, Note_on_c, 9, 42, 0
3, 153472, Note_on_c, 9, 80, 0
3, 153504, Note_on_c, 9, 42, 66
3, 153528, Note_on_c, 9, 42, 0
3, 153600, Note_on_c, 9, 42, 114
3, 153600, Note_on_c, 9, 35, 120
3, 153604, Note_on_c, 9, 81, 80
3, 153672, Note_on_c, 9, 35, 0
3, 153672, Note_on_c, 9, 42, 0
3, 153688, Note_on_c, 9, 81, 0
3, 153696, Note_on_c, 9, 70, 74
3, 153776, Note_on_c, 9, 70, 0
3, 153792, Note_on_c, 9, 47, 114
3, 153792, Note_on_c, 9, 42, 54
3, 153792, Note_on_c, 9, 80, 50
3, 153796, Note_on_c, 9, 82, 64
3, 153848, Note_on_c, 9, 80, 0
3, 153864, Note_on_c, 9, 47, 0
3, 153864, Note_on_c, 9, 42, 0
3, 153888, Note_on_c, 9, 82, 0
3, 153888, Note_on_c, 9, 69, 54
3, 153936, Note_on_c, 9, 69, 0
3, 153984, Note_on_c, 9, 39, 114
3, 153984, Note_on_c, 9, 42, 114
3, 153984, Note_on_c, 9, 40, 122
3, 153988, Note_on_c, 9, 80, 66
3, 154048, Note_on_c, 9, 80, 0
3, 154056, Note_on_c, 9, 39, 0
3, 154056, Note_on_c, 9, 42, 0
3, 154056, Note_on_c, 9, 40, 0
3, 154176, Note_on_c, 9, 42, 54
3, 154176, Note_on_c, 9, 35, 120
3, 154176, Note_on_c, 9, 81, 82
3, 154248, Note_on_c, 9, 35, 0
3, 154248, Note_on_c, 9, 42, 0
3, 154256, Note_on_c, 9, 81, 0
3, 154368, Note_on_c, 9, 35, 120
3, 154372, Note_on_c, 9, 42, 114
3, 154400, Note_on_c, 9, 42, 0
3, 154440, Note_on_c, 9, 35, 0
3, 154464, Note_on_c, 9, 42, 58
3, 154464, Note_on_c, 9, 81, 78
3, 154496, Note_on_c, 9, 42, 0
3, 154536, Note_on_c, 9, 81, 0
3, 154560, Note_on_c, 9, 70, 94
3, 154560, Note_on_c, 9, 42, 54
3, 154560, Note_on_c, 9, 80, 62
3, 154632, Note_on_c, 9, 42, 0
3, 154640, Note_on_c, 9, 70, 0
3, 154648, Note_on_c, 9, 80, 0
3, 154752, Note_on_c, 9, 39, 114
3, 154752, Note_on_c, 9, 40, 122
3, 154756, Note_on_c, 9, 42, 114
3, 154756, Note_on_c, 9, 81, 72
3, 154824, Note_on_c, 9, 40, 0
3, 154824, Note_on_c, 9, 39, 0
3, 154828, Note_on_c, 9, 42, 0
3, 154864, Note_on_c, 9, 81, 0
3, 154944, Note_on_c, 9, 42, 54
3, 154944, Note_on_c, 9, 80, 80
3, 154968, Note_on_c, 9, 42, 0
3, 155008, Note_on_c, 9, 80, 0
3, 155040, Note_on_c, 9, 42, 66
3, 155064, Note_on_c, 9, 42, 0
3, 155136, Note_on_c, 9, 42, 114
3, 155136, Note_on_c, 9, 35, 120
3, 155140, Note_on_c, 9, 81, 80
3, 155208, Note_on_c, 9, 35, 0
3, 155208, Note_on_c, 9, 42, 0
3, 155224, Note_on_c, 9, 81, 0
3, 155232, Note_on_c, 9, 70, 74
3, 155312, Note_on_c, 9, 70, 0
3, 155328, Note_on_c, 9, 42, 54
3, 155328, Note_on_c, 9, 82, 64
3, 155328, Note_on_c, 9, 80, 50
3, 155384, Note_on_c, 9, 80, 0
3, 155400, Note_on_c, 9, 42, 0
3, 155424, Note_on_c, 9, 82, 0
3, 155424, Note_on_c, 9, 69, 54
3, 155472, Note_on_c, 9, 69, 0
3, 155520, Note_on_c, 9, 39, 114
3, 155520, Note_on_c, 9, 40, 122
3, 155524, Note_on_c, 9, 42, 114
3, 155524, Note_on_c, 9, 80, 66
3, 155584, Note_on_c, 9, 80, 0
3, 155592, Note_on_c, 9, 39, 0
3, 155592, Note_on_c, 9, 40, 0
3, 155596, Note_on_c, 9, 42, 0
3, 155712, Note_on_c, 9, 42, 54
3, 155712, Note_on_c, 9, 35, 120
3, 155712, Note_on_c, 9, 81, 82
3, 155784, Note_on_c, 9, 35, 0
3, 155784, Note_on_c, 9, 42, 0
3, 155792, Note_on_c, 9, 81, 0
3, 155904, Note_on_c, 9, 42, 114
3, 155904, Note_on_c, 9, 35, 120
3, 155936, Note_on_c, 9, 42, 0
3, 155976, Note_on_c, 9, 35, 0
3, 156000, Note_on_c, 9, 42, 58
3, 156000, Note_on_c, 9, 81, 78
3, 156032, Note_on_c, 9, 42, 0
3, 156072, Note_on_c, 9, 81, 0
3, 156096, Note_on_c, 9, 45, 114
3, 156096, Note_on_c, 9, 70, 94
3, 156096, Note_on_c, 9, 80, 62
3, 156100, Note_on_c, 9, 42, 54
3, 156168, Note_on_c, 9, 42, 0
3, 156168, Note_on_c, 9, 45, 0
3, 156176, Note_on_c, 9, 70, 0
3, 156184, Note_on_c, 9, 80, 0
3, 156288, Note_on_c, 9, 39, 114
3, 156288, Note_on_c, 9, 42, 114
3, 156288, Note_on_c, 9, 40, 122
3, 156292, Note_on_c, 9, 81, 72
3, 156360, Note_on_c, 9, 40, 0
3, 156360, Note_on_c, 9, 39, 0
3, 156360, Note_on_c, 9, 42, 0
3, 156400, Note_on_c, 9, 81, 0
3, 156480, Note_on_c, 9, 42, 54
3, 156480, Note_on_c, 9, 80, 80
3, 156504, Note_on_c, 9, 42, 0
3, 156544, Note_on_c, 9, 80, 0
3, 156576, Note_on_c, 9, 42, 66
3, 156600, Note_on_c, 9, 42, 0
3, 156672, Note_on_c, 9, 42, 114
3, 156672, Note_on_c, 9, 35, 120
3, 156676, Note_on_c, 9, 81, 80
3, 156744, Note_on_c, 9, 35, 0
3, 156744, Note_on_c, 9, 42, 0
3, 156760, Note_on_c, 9, 81, 0
3, 156768, Note_on_c, 9, 70, 74
3, 156848, Note_on_c, 9, 70, 0
3, 156864, Note_on_c, 9, 42, 54
3, 156864, Note_on_c, 9, 82, 64
3, 156864, Note_on_c, 9, 80, 50
3, 156920, Note_on_c, 9, 80, 0
3, 156936, Note_on_c, 9, 42, 0
3, 156960, Note_on_c, 9, 82, 0
3, 156960, Note_on_c, 9, 69, 54
3, 157008, Note_on_c, 9, 69, 0
3, 157056, Note_on_c, 9, 39, 114
3, 157056, Note_on_c, 9, 40, 122
3, 157056, Note_on_c, 9, 42, 114
3, 157060, Note_on_c, 9, 80, 66
3, 157120, Note_on_c, 9, 80, 0
3, 157128, Note_on_c, 9, 39, 0
3, 157128, Note_on_c, 9, 40, 0
3, 157128, Note_on_c, 9, 42, 0
3, 157248, Note_on_c, 9, 42, 54
3, 157248, Note_on_c, 9, 35, 120
3, 157248, Note_on_c, 9, 81, 82
3, 157320, Note_on_c, 9, 35, 0
3, 157320, Note_on_c, 9, 42, 0
3, 157328, Note_on_c, 9, 81, 0
3, 157444, Note_on_c, 9, 42, 114
3, 157444, Note_on_c, 9, 35, 120
3, 157472, Note_on_c, 9, 42, 0
3, 157512, Note_on_c, 9, 35, 0
3, 157536, Note_on_c, 9, 42, 58
3, 157536, Note_on_c, 9, 81, 78
3, 157568, Note_on_c, 9, 42, 0
3, 157608, Note_on_c, 9, 81, 0
3, 157632, Note_on_c, 9, 45, 114
3, 157632, Note_on_c, 9, 70, 94
3, 157632, Note_on_c, 9, 80, 62
3, 157636, Note_on_c, 9, 42, 54
3, 157704, Note_on_c, 9, 42, 0
3, 157704, Note_on_c, 9, 45, 0
3, 157712, Note_on_c, 9, 70, 0
3, 157720, Note_on_c, 9, 80, 0
3, 157824, Note_on_c, 9, 39, 114
3, 157828, Note_on_c, 9, 42, 114
3, 157828, Note_on_c, 9, 40, 122
3, 157828, Note_on_c, 9, 81, 72
3, 157896, Note_on_c, 9, 40, 0
3, 157896, Note_on_c, 9, 39, 0
3, 157896, Note_on_c, 9, 42, 0
3, 157936, Note_on_c, 9, 81, 0
3, 158016, Note_on_c, 9, 42, 54
3, 158016, Note_on_c, 9, 80, 80
3, 158040, Note_on_c, 9, 42, 0
3, 158080, Note_on_c, 9, 80, 0
3, 158112, Note_on_c, 9, 42, 66
3, 158136, Note_on_c, 9, 42, 0
3, 158208, Note_on_c, 9, 42, 114
3, 158208, Note_on_c, 9, 35, 120
3, 158212, Note_on_c, 9, 81, 80
3, 158280, Note_on_c, 9, 35, 0
3, 158280, Note_on_c, 9, 42, 0
3, 158296, Note_on_c, 9, 81, 0
3, 158304, Note_on_c, 9, 70, 74
3, 158384, Note_on_c, 9, 70, 0
3, 158400, Note_on_c, 9, 42, 54
3, 158400, Note_on_c, 9, 82, 64
3, 158400, Note_on_c, 9, 80, 50
3, 158456, Note_on_c, 9, 80, 0
3, 158472, Note_on_c, 9, 42, 0
3, 158496, Note_on_c, 9, 82, 0
3, 158496, Note_on_c, 9, 69, 54
3, 158544, Note_on_c, 9, 69, 0
3, 158592, Note_on_c, 9, 39, 114
3, 158592, Note_on_c, 9, 40, 122
3, 158592, Note_on_c, 9, 42, 114
3, 158596, Note_on_c, 9, 80, 66
3, 158656, Note_on_c, 9, 80, 0
3, 158664, Note_on_c, 9, 39, 0
3, 158664, Note_on_c, 9, 40, 0
3, 158664, Note_on_c, 9, 42, 0
3, 158784, Note_on_c, 9, 42, 54
3, 158784, Note_on_c, 9, 35, 120
3, 158784, Note_on_c, 9, 81, 82
3, 158856, Note_on_c, 9, 35, 0
3, 158856, Note_on_c, 9, 42, 0
3, 158864, Note_on_c, 9, 81, 0
3, 158980, Note_on_c, 9, 42, 114
3, 158980, Note_on_c, 9, 35, 120
3, 159008, Note_on_c, 9, 42, 0
3, 159048, Note_on_c, 9, 35, 0
3, 159072, Note_on_c, 9, 42, 58
3, 159072, Note_on_c, 9, 81, 78
3, 159104, Note_on_c, 9, 42, 0
3, 159144, Note_on_c, 9, 81, 0
3, 159168, Note_on_c, 9, 45, 114
3, 159168, Note_on_c, 9, 70, 94
3, 159168, Note_on_c, 9, 80, 62
3, 159172, Note_on_c, 9, 42, 54
3, 159240, Note_on_c, 9, 42, 0
3, 159240, Note_on_c, 9, 45, 0
3, 159248, Note_on_c, 9, 70, 0
3, 159256, Note_on_c, 9, 80, 0
3, 159360, Note_on_c, 9, 39, 114
3, 159364, Note_on_c, 9, 42, 114
3, 159364, Note_on_c, 9, 40, 122
3, 159364, Note_on_c, 9, 81, 72
3, 159432, Note_on_c, 9, 40, 0
3, 159432, Note_on_c, 9, 39, 0
3, 159432, Note_on_c, 9, 42, 0
3, 159472, Note_on_c, 9, 81, 0
3, 159552, Note_on_c, 9, 42, 54
3, 159552, Note_on_c, 9, 80, 80
3, 159576, Note_on_c, 9, 42, 0
3, 159616, Note_on_c, 9, 80, 0
3, 159648, Note_on_c, 9, 42, 66
3, 159672, Note_on_c, 9, 42, 0
3, 159744, Note_on_c, 9, 35, 120
3, 159748, Note_on_c, 9, 42, 114
3, 159748, Note_on_c, 9, 81, 80
3, 159816, Note_on_c, 9, 42, 0
3, 159816, Note_on_c, 9, 35, 0
3, 159832, Note_on_c, 9, 81, 0
3, 159840, Note_on_c, 9, 70, 74
3, 159920, Note_on_c, 9, 70, 0
3, 159936, Note_on_c, 9, 42, 54
3, 159936, Note_on_c, 9, 82, 64
3, 159936, Note_on_c, 9, 80, 50
3, 159992, Note_on_c, 9, 80, 0
3, 160008, Note_on_c, 9, 42, 0
3, 160032, Note_on_c, 9, 82, 0
3, 160036, Note_on_c, 9, 69, 54
3, 160080, Note_on_c, 9, 69, 0
3, 160128, Note_on_c, 9, 39, 114
3, 160128, Note_on_c, 9, 40, 122
3, 160132, Note_on_c, 9, 42, 114
3, 160132, Note_on_c, 9, 80, 66
3, 160192, Note_on_c, 9, 80, 0
3, 160204, Note_on_c, 9, 39, 0
3, 160204, Note_on_c, 9, 40, 0
3, 160204, Note_on_c, 9, 42, 0
3, 160320, Note_on_c, 9, 42, 54
3, 160320, Note_on_c, 9, 35, 120
3, 160320, Note_on_c, 9, 81, 82
3, 160392, Note_on_c, 9, 35, 0
3, 160392, Note_on_c, 9, 42, 0
3, 160400, Note_on_c, 9, 81, 0
3, 160512, Note_on_c, 9, 42, 114
3, 160512, Note_on_c, 9, 35, 120
3, 160544, Note_on_c, 9, 42, 0
3, 160584, Note_on_c, 9, 35, 0
3, 160608, Note_on_c, 9, 42, 58
3, 160608, Note_on_c, 9, 81, 78
3, 160640, Note_on_c, 9, 42, 0
3, 160680, Note_on_c, 9, 81, 0
3, 160704, Note_on_c, 9, 70, 94
3, 160704, Note_on_c, 9, 42, 54
3, 160704, Note_on_c, 9, 80, 62
3, 160776, Note_on_c, 9, 42, 0
3, 160784, Note_on_c, 9, 70, 0
3, 160792, Note_on_c, 9, 80, 0
3, 160896, Note_on_c, 9, 39, 114
3, 160896, Note_on_c, 9, 40, 122
3, 160900, Note_on_c, 9, 42, 114
3, 160900, Note_on_c, 9, 81, 72
3, 160968, Note_on_c, 9, 40, 0
3, 160968, Note_on_c, 9, 39, 0
3, 160972, Note_on_c, 9, 42, 0
3, 161008, Note_on_c, 9, 81, 0
3, 161088, Note_on_c, 9, 42, 54
3, 161088, Note_on_c, 9, 80, 80
3, 161112, Note_on_c, 9, 42, 0
3, 161152, Note_on_c, 9, 80, 0
3, 161184, Note_on_c, 9, 42, 66
3, 161208, Note_on_c, 9, 42, 0
3, 161280, Note_on_c, 9, 42, 114
3, 161280, Note_on_c, 9, 35, 120
3, 161280, Note_on_c, 9, 81, 80
3, 161352, Note_on_c, 9, 35, 0
3, 161352, Note_on_c, 9, 42, 0
3, 161368, Note_on_c, 9, 81, 0
3, 161380, Note_on_c, 9, 70, 74
3, 161456, Note_on_c, 9, 70, 0
3, 161472, Note_on_c, 9, 42, 54
3, 161472, Note_on_c, 9, 82, 64
3, 161476, Note_on_c, 9, 80, 50
3, 161528, Note_on_c, 9, 80, 0
3, 161544, Note_on_c, 9, 42, 0
3, 161568, Note_on_c, 9, 82, 0
3, 161568, Note_on_c, 9, 69, 54
3, 161616, Note_on_c, 9, 69, 0
3, 161664, Note_on_c, 9, 42, 114
3, 161664, Note_on_c, 9, 40, 122
3, 161664, Note_on_c, 9, 80, 66
3, 161728, Note_on_c, 9, 80, 0
3, 161736, Note_on_c, 9, 40, 0
3, 161736, Note_on_c, 9, 42, 0
3, 161856, Note_on_c, 9, 42, 54
3, 161856, Note_on_c, 9, 35, 120
3, 161860, Note_on_c, 9, 81, 82
3, 161928, Note_on_c, 9, 35, 0
3, 161928, Note_on_c, 9, 42, 0
3, 161936, Note_on_c, 9, 81, 0
3, 162048, Note_on_c, 9, 42, 114
3, 162048, Note_on_c, 9, 35, 120
3, 162080, Note_on_c, 9, 42, 0
3, 162120, Note_on_c, 9, 35, 0
3, 162144, Note_on_c, 9, 42, 58
3, 162148, Note_on_c, 9, 81, 78
3, 162176, Note_on_c, 9, 42, 0
3, 162216, Note_on_c, 9, 81, 0
3, 162240, Note_on_c, 9, 70, 94
3, 162240, Note_on_c, 9, 40, 52
3, 162244, Note_on_c, 9, 42, 54
3, 162244, Note_on_c, 9, 80, 62
3, 162288, Note_on_c, 9, 40, 0
3, 162304, Note_on_c, 9, 40, 62
3, 162312, Note_on_c, 9, 42, 0
3, 162320, Note_on_c, 9, 70, 0
3, 162328, Note_on_c, 9, 80, 0
3, 162352, Note_on_c, 9, 40, 0
3, 162368, Note_on_c, 9, 40, 70
3, 162416, Note_on_c, 9, 40, 0
3, 162432, Note_on_c, 9, 40, 122
3, 162432, Note_on_c, 9, 42, 114
3, 162432, Note_on_c, 9, 81, 72
3, 162504, Note_on_c, 9, 42, 0
3, 162504, Note_on_c, 9, 40, 0
3, 162544, Note_on_c, 9, 81, 0
3, 162624, Note_on_c, 9, 45, 114
3, 162624, Note_on_c, 9, 42, 54
3, 162628, Note_on_c, 9, 80, 80
3, 162648, Note_on_c, 9, 42, 0
3, 162688, Note_on_c, 9, 80, 0
3, 162696, Note_on_c, 9, 45, 0
3, 162720, Note_on_c, 9, 42, 66
3, 162744, Note_on_c, 9, 42, 0
3, 162816, Note_on_c, 9, 35, 120
3, 162816, Note_on_c, 9, 40, 122
3, 162820, Note_on_c, 9, 42, 114
3, 162820, Note_on_c, 9, 81, 80
3, 162888, Note_on_c, 9, 40, 0
3, 162888, Note_on_c, 9, 35, 0
3, 162892, Note_on_c, 9, 42, 0
3, 162904, Note_on_c, 9, 81, 0
3, 162912, Note_on_c, 9, 70, 74
3, 162992, Note_on_c, 9, 70, 0
3, 163008, Note_on_c, 9, 42, 54
3, 163008, Note_on_c, 9, 82, 64
3, 163012, Note_on_c, 9, 80, 50
3, 163064, Note_on_c, 9, 80, 0
3, 163080, Note_on_c, 9, 42, 0
3, 163104, Note_on_c, 9, 82, 0
3, 163104, Note_on_c, 9, 69, 54
3, 163152, Note_on_c, 9, 69, 0
3, 163200, Note_on_c, 9, 57, 104
3, 163200, Note_on_c, 9, 39, 114
3, 163204, Note_on_c, 9, 42, 114
3, 163204, Note_on_c, 9, 40, 122
3, 163204, Note_on_c, 9, 80, 66
3, 163264, Note_on_c, 9, 80, 0
3, 163272, Note_on_c, 9, 57, 0
3, 163272, Note_on_c, 9, 39, 0
3, 163276, Note_on_c, 9, 42, 0
3, 163276, Note_on_c, 9, 40, 0
3, 163392, Note_on_c, 9, 42, 54
3, 163392, Note_on_c, 9, 35, 120
3, 163396, Note_on_c, 9, 81, 82
3, 163464, Note_on_c, 9, 35, 0
3, 163468, Note_on_c, 9, 42, 0
3, 163472, Note_on_c, 9, 81, 0
3, 163584, Note_on_c, 9, 42, 114
3, 163584, Note_on_c, 9, 35, 120
3, 163616, Note_on_c, 9, 42, 0
3, 163656, Note_on_c, 9, 35, 0
3, 163680, Note_on_c, 9, 42, 58
3, 163680, Note_on_c, 9, 81, 78
3, 163712, Note_on_c, 9, 42, 0
3, 163752, Note_on_c, 9, 81, 0
3, 163776, Note_on_c, 9, 70, 94
3, 163776, Note_on_c, 9, 80, 62
3, 163780, Note_on_c, 9, 42, 54
3, 163848, Note_on_c, 9, 42, 0
3, 163856, Note_on_c, 9, 70, 0
3, 163864, Note_on_c, 9, 80, 0
3, 163968, Note_on_c, 9, 39, 114
3, 163968, Note_on_c, 9, 42, 114
3, 163968, Note_on_c, 9, 40, 122
3, 163968, Note_on_c, 9, 81, 72
3, 164040, Note_on_c, 9, 40, 0
3, 164040, Note_on_c, 9, 39, 0
3, 164040, Note_on_c, 9, 42, 0
3, 164080, Note_on_c, 9, 81, 0
3, 164160, Note_on_c, 9, 42, 54
3, 164160, Note_on_c, 9, 80, 80
3, 164184, Note_on_c, 9, 42, 0
3, 164224, Note_on_c, 9, 80, 0
3, 164256, Note_on_c, 9, 42, 66
3, 164280, Note_on_c, 9, 42, 0
3, 164352, Note_on_c, 9, 42, 114
3, 164352, Note_on_c, 9, 35, 120
3, 164356, Note_on_c, 9, 81, 80
3, 164424, Note_on_c, 9, 35, 0
3, 164424, Note_on_c, 9, 42, 0
3, 164440, Note_on_c, 9, 81, 0
3, 164448, Note_on_c, 9, 70, 74
3, 164528, Note_on_c, 9, 70, 0
3, 164544, Note_on_c, 9, 42, 54
3, 164548, Note_on_c, 9, 82, 64
3, 164548, Note_on_c, 9, 80, 50
3, 164600, Note_on_c, 9, 80, 0
3, 164616, Note_on_c, 9, 42, 0
3, 164640, Note_on_c, 9, 82, 0
3, 164640, Note_on_c, 9, 69, 54
3, 164688, Note_on_c, 9, 69, 0
3, 164736, Note_on_c, 9, 39, 114
3, 164736, Note_on_c, 9, 40, 122
3, 164740, Note_on_c, 9, 42, 114
3, 164740, Note_on_c, 9, 80, 66
3, 164800, Note_on_c, 9, 80, 0
3, 164808, Note_on_c, 9, 39, 0
3, 164808, Note_on_c, 9, 40, 0
3, 164812, Note_on_c, 9, 42, 0
3, 164928, Note_on_c, 9, 35, 120
3, 164932, Note_on_c, 9, 42, 54
3, 164932, Note_on_c, 9, 81, 82
3, 165000, Note_on_c, 9, 42, 0
3, 165000, Note_on_c, 9, 35, 0
3, 165008, Note_on_c, 9, 81, 0
3, 165120, Note_on_c, 9, 42, 114
3, 165120, Note_on_c, 9, 35, 120
3, 165152, Note_on_c, 9, 42, 0
3, 165192, Note_on_c, 9, 35, 0
3, 165216, Note_on_c, 9, 42, 58
3, 165216, Note_on_c, 9, 81, 78
3, 165248, Note_on_c, 9, 42, 0
3, 165288, Note_on_c, 9, 81, 0
3, 165312, Note_on_c, 9, 70, 94
3, 165312, Note_on_c, 9, 80, 62
3, 165316, Note_on_c, 9, 42, 54
3, 165388, Note_on_c, 9, 42, 0
3, 165392, Note_on_c, 9, 70, 0
3, 165400, Note_on_c, 9, 80, 0
3, 165504, Note_on_c, 9, 39, 114
3, 165504, Note_on_c, 9, 40, 122
3, 165508, Note_on_c, 9, 42, 114
3, 165508, Note_on_c, 9, 81, 72
3, 165576, Note_on_c, 9, 40, 0
3, 165576, Note_on_c, 9, 39, 0
3, 165580, Note_on_c, 9, 42, 0
3, 165616, Note_on_c, 9, 81, 0
3, 165696, Note_on_c, 9, 42, 54
3, 165696, Note_on_c, 9, 80, 80
3, 165720, Note_on_c, 9, 42, 0
3, 165760, Note_on_c, 9, 80, 0
3, 165792, Note_on_c, 9, 42, 66
3, 165816, Note_on_c, 9, 42, 0
3, 165888, Note_on_c, 9, 42, 114
3, 165888, Note_on_c, 9, 35, 120
3, 165892, Note_on_c, 9, 81, 80
3, 165960, Note_on_c, 9, 35, 0
3, 165960, Note_on_c, 9, 42, 0
3, 165976, Note_on_c, 9, 81, 0
3, 165984, Note_on_c, 9, 70, 74
3, 166064, Note_on_c, 9, 70, 0
3, 166080, Note_on_c, 9, 42, 54
3, 166084, Note_on_c, 9, 82, 64
3, 166084, Note_on_c, 9, 80, 50
3, 166136, Note_on_c, 9, 80, 0
3, 166152, Note_on_c, 9, 42, 0
3, 166176, Note_on_c, 9, 82, 0
3, 166176, Note_on_c, 9, 69, 54
3, 166224, Note_on_c, 9, 69, 0
3, 166272, Note_on_c, 9, 39, 114
3, 166272, Note_on_c, 9, 40, 122
3, 166276, Note_on_c, 9, 42, 114
3, 166276, Note_on_c, 9, 80, 66
3, 166336, Note_on_c, 9, 80, 0
3, 166344, Note_on_c, 9, 39, 0
3, 166344, Note_on_c, 9, 40, 0
3, 166348, Note_on_c, 9, 42, 0
3, 166464, Note_on_c, 9, 35, 120
3, 166468, Note_on_c, 9, 42, 54
3, 166468, Note_on_c, 9, 81, 82
3, 166536, Note_on_c, 9, 42, 0
3, 166536, Note_on_c, 9, 35, 0
3, 166544, Note_on_c, 9, 81, 0
3, 166656, Note_on_c, 9, 42, 114
3, 166656, Note_on_c, 9, 35, 120
3, 166688, Note_on_c, 9, 42, 0
3, 166728, Note_on_c, 9, 35, 0
3, 166752, Note_on_c, 9, 42, 58
3, 166752, Note_on_c, 9, 81, 78
3, 166784, Note_on_c, 9, 42, 0
3, 166824, Note_on_c, 9, 81, 0
3, 166848, Note_on_c, 9, 70, 94
3, 166848, Note_on_c, 9, 80, 62
3, 166852, Note_on_c, 9, 42, 54
3, 166924, Note_on_c, 9, 42, 0
3, 166928, Note_on_c, 9, 70, 0
3, 166936, Note_on_c, 9, 80, 0
3, 167040, Note_on_c, 9, 39, 114
3, 167040, Note_on_c, 9, 40, 122
3, 167044, Note_on_c, 9, 42, 114
3, 167044, Note_on_c, 9, 81, 72
3, 167112, Note_on_c, 9, 40, 0
3, 167112, Note_on_c, 9, 39, 0
3, 167116, Note_on_c, 9, 42, 0
3, 167152, Note_on_c, 9, 81, 0
3, 167232, Note_on_c, 9, 42, 54
3, 167232, Note_on_c, 9, 80, 80
3, 167256, Note_on_c, 9, 42, 0
3, 167296, Note_on_c, 9, 80, 0
3, 167328, Note_on_c, 9, 42, 66
3, 167352, Note_on_c, 9, 42, 0
3, 167424, Note_on_c, 9, 42, 114
3, 167424, Note_on_c, 9, 35, 120
3, 167428, Note_on_c, 9, 81, 80
3, 167496, Note_on_c, 9, 35, 0
3, 167496, Note_on_c, 9, 42, 0
3, 167512, Note_on_c, 9, 81, 0
3, 167520, Note_on_c, 9, 70, 74
3, 167600, Note_on_c, 9, 70, 0
3, 167616, Note_on_c, 9, 42, 54
3, 167616, Note_on_c, 9, 40, 50
3, 167620, Note_on_c, 9, 82, 64
3, 167620, Note_on_c, 9, 80, 50
3, 167664, Note_on_c, 9, 40, 0
3, 167672, Note_on_c, 9, 80, 0
3, 167680, Note_on_c, 9, 40, 68
3, 167688, Note_on_c, 9, 42, 0
3, 167712, Note_on_c, 9, 82, 0
3, 167712, Note_on_c, 9, 69, 54
3, 167728, Note_on_c, 9, 40, 0
3, 167744, Note_on_c, 9, 40, 70
3, 167760, Note_on_c, 9, 69, 0
3, 167792, Note_on_c, 9, 40, 0
3, 167808, Note_on_c, 9, 39, 114
3, 167808, Note_on_c, 9, 42, 114
3, 167808, Note_on_c, 9, 40, 122
3, 167808, Note_on_c, 9, 80, 66
3, 167856, Note_on_c, 9, 40, 0
3, 167872, Note_on_c, 9, 80, 0
3, 167880, Note_on_c, 9, 42, 0
3, 167880, Note_on_c, 9, 39, 0
3, 168000, Note_on_c, 9, 45, 114
3, 168000, Note_on_c, 9, 42, 54
3, 168004, Note_on_c, 9, 81, 82
3, 168072, Note_on_c, 9, 42, 0
3, 168072, Note_on_c, 9, 45, 0
3, 168080, Note_on_c, 9, 81, 0
3, 168192, Note_on_c, 9, 40, 122
3, 168192, Note_on_c, 9, 42, 114
3, 168224, Note_on_c, 9, 42, 0
3, 168264, Note_on_c, 9, 40, 0
3, 168288, Note_on_c, 9, 42, 58
3, 168288, Note_on_c, 9, 81, 78
3, 168320, Note_on_c, 9, 42, 0
3, 168360, Note_on_c, 9, 81, 0
3, 168384, Note_on_c, 9, 50, 114
3, 168384, Note_on_c, 9, 80, 62
3, 168388, Note_on_c, 9, 70, 94
3, 168388, Note_on_c, 9, 42, 54
3, 168456, Note_on_c, 9, 42, 0
3, 168456, Note_on_c, 9, 50, 0
3, 168464, Note_on_c, 9, 70, 0
3, 168472, Note_on_c, 9, 80, 0
3, 168576, Note_on_c, 9, 39, 114
3, 168576, Note_on_c, 9, 48, 114
3, 168576, Note_on_c, 9, 42, 114
3, 168576, Note_on_c, 9, 81, 72
3, 168648, Note_on_c, 9, 42, 0
3, 168648, Note_on_c, 9, 39, 0
3, 168648, Note_on_c, 9, 48, 0
3, 168688, Note_on_c, 9, 81, 0
3, 168768, Note_on_c, 9, 47, 114
3, 168768, Note_on_c, 9, 42, 54
3, 168772, Note_on_c, 9, 80, 80
3, 168792, Note_on_c, 9, 42, 0
3, 168832, Note_on_c, 9, 80, 0
3, 168840, Note_on_c, 9, 47, 0
3, 168864, Note_on_c, 9, 42, 66
3, 168888, Note_on_c, 9, 42, 0
3, 168960, Note_on_c, 9, 49, 104
3, 168960, Note_on_c, 9, 42, 114
3, 168960, Note_on_c, 9, 35, 120
3, 168964, Note_on_c, 9, 81, 80
3, 169024, Note_on_c, 9, 49, 0
3, 169032, Note_on_c, 9, 42, 0
3, 169032, Note_on_c, 9, 35, 0
3, 169048, Note_on_c, 9, 81, 0
3, 169056, Note_on_c, 9, 70, 74
3, 169136, Note_on_c, 9, 70, 0
3, 169152, Note_on_c, 9, 42, 54
3, 169156, Note_on_c, 9, 82, 64
3, 169156, Note_on_c, 9, 80, 50
3, 169208, Note_on_c, 9, 80, 0
3, 169224, Note_on_c, 9, 42, 0
3, 169248, Note_on_c, 9, 82, 0
3, 169248, Note_on_c, 9, 69, 54
3, 169296, Note_on_c, 9, 69, 0
3, 169344, Note_on_c, 9, 39, 114
3, 169344, Note_on_c, 9, 40, 122
3, 169348, Note_on_c, 9, 42, 114
3, 169348, Note_on_c, 9, 80, 66
3, 169408, Note_on_c, 9, 80, 0
3, 169416, Note_on_c, 9, 39, 0
3, 169416, Note_on_c, 9, 40, 0
3, 169420, Note_on_c, 9, 42, 0
3, 169536, Note_on_c, 9, 35, 120
3, 169540, Note_on_c, 9, 42, 54
3, 169540, Note_on_c, 9, 81, 82
3, 169608, Note_on_c, 9, 42, 0
3, 169608, Note_on_c, 9, 35, 0
3, 169616, Note_on_c, 9, 81, 0
3, 169728, Note_on_c, 9, 42, 114
3, 169728, Note_on_c, 9, 35, 120
3, 169760, Note_on_c, 9, 42, 0
3, 169800, Note_on_c, 9, 35, 0
3, 169824, Note_on_c, 9, 42, 58
3, 169824, Note_on_c, 9, 81, 78
3, 169856, Note_on_c, 9, 42, 0
3, 169896, Note_on_c, 9, 81, 0
3, 169920, Note_on_c, 9, 70, 94
3, 169920, Note_on_c, 9, 80, 62
3, 169924, Note_on_c, 9, 42, 54
3, 169996, Note_on_c, 9, 42, 0
3, 170000, Note_on_c, 9, 70, 0
3, 170008, Note_on_c, 9, 80, 0
3, 170112, Note_on_c, 9, 39, 114
3, 170112, Note_on_c, 9, 40, 122
3, 170116, Note_on_c, 9, 42, 114
3, 170116, Note_on_c, 9, 81, 72
3, 170184, Note_on_c, 9, 40, 0
3, 170184, Note_on_c, 9, 39, 0
3, 170188, Note_on_c, 9, 42, 0
3, 170224, Note_on_c, 9, 81, 0
3, 170304, Note_on_c, 9, 42, 54
3, 170304, Note_on_c, 9, 80, 80
3, 170328, Note_on_c, 9, 42, 0
3, 170368, Note_on_c, 9, 80, 0
3, 170400, Note_on_c, 9, 42, 66
3, 170424, Note_on_c, 9, 42, 0
3, 170496, Note_on_c, 9, 42, 114
3, 170496, Note_on_c, 9, 35, 120
3, 170500, Note_on_c, 9, 81, 80
3, 170568, Note_on_c, 9, 35, 0
3, 170568, Note_on_c, 9, 42, 0
3, 170584, Note_on_c, 9, 81, 0
3, 170592, Note_on_c, 9, 70, 74
3, 170672, Note_on_c, 9, 70, 0
3, 170688, Note_on_c, 9, 42, 54
3, 170692, Note_on_c, 9, 82, 64
3, 170692, Note_on_c, 9, 80, 50
3, 170744, Note_on_c, 9, 80, 0
3, 170760, Note_on_c, 9, 42, 0
3, 170784, Note_on_c, 9, 82, 0
3, 170784, Note_on_c, 9, 69, 54
3, 170832, Note_on_c, 9, 69, 0
3, 170880, Note_on_c, 9, 39, 114
3, 170880, Note_on_c, 9, 40, 122
3, 170884, Note_on_c, 9, 42, 114
3, 170884, Note_on_c, 9, 80, 66
3, 170944, Note_on_c, 9, 80, 0
3, 170952, Note_on_c, 9, 39, 0
3, 170952, Note_on_c, 9, 40, 0
3, 170956, Note_on_c, 9, 42, 0
3, 171072, Note_on_c, 9, 35, 120
3, 171076, Note_on_c, 9, 42, 54
3, 171076, Note_on_c, 9, 81, 82
3, 171144, Note_on_c, 9, 42, 0
3, 171144, Note_on_c, 9, 35, 0
3, 171152, Note_on_c, 9, 81, 0
3, 171264, Note_on_c, 9, 42, 114
3, 171264, Note_on_c, 9, 35, 120
3, 171296, Note_on_c, 9, 42, 0
3, 171336, Note_on_c, 9, 35, 0
3, 171360, Note_on_c, 9, 42, 58
3, 171360, Note_on_c, 9, 81, 78
3, 171392, Note_on_c, 9, 42, 0
3, 171432, Note_on_c, 9, 81, 0
3, 171456, Note_on_c, 9, 70, 94
3, 171456, Note_on_c, 9, 80, 62
3, 171460, Note_on_c, 9, 42, 54
3, 171532, Note_on_c, 9, 42, 0
3, 171536, Note_on_c, 9, 70, 0
3, 171544, Note_on_c, 9, 80, 0
3, 171648, Note_on_c, 9, 39, 114
3, 171648, Note_on_c, 9, 40, 122
3, 171652, Note_on_c, 9, 42, 114
3, 171652, Note_on_c, 9, 81, 72
3, 171720, Note_on_c, 9, 40, 0
3, 171720, Note_on_c, 9, 39, 0
3, 171724, Note_on_c, 9, 42, 0
3, 171760, Note_on_c, 9, 81, 0
3, 171840, Note_on_c, 9, 42, 54
3, 171840, Note_on_c, 9, 80, 80
3, 171864, Note_on_c, 9, 42, 0
3, 171904, Note_on_c, 9, 80, 0
3, 171936, Note_on_c, 9, 42, 66
3, 171960, Note_on_c, 9, 42, 0
3, 172032, Note_on_c, 9, 42, 114
3, 172032, Note_on_c, 9, 35, 120
3, 172036, Note_on_c, 9, 81, 80
3, 172104, Note_on_c, 9, 35, 0
3, 172104, Note_on_c, 9, 42, 0
3, 172120, Note_on_c, 9, 81, 0
3, 172128, Note_on_c, 9, 70, 74
3, 172208, Note_on_c, 9, 70, 0
3, 172224, Note_on_c, 9, 42, 54
3, 172228, Note_on_c, 9, 82, 64
3, 172228, Note_on_c, 9, 80, 50
3, 172280, Note_on_c, 9, 80, 0
3, 172296, Note_on_c, 9, 42, 0
3, 172320, Note_on_c, 9, 82, 0
3, 172320, Note_on_c, 9, 69, 54
3, 172368, Note_on_c, 9, 69, 0
3, 172416, Note_on_c, 9, 39, 114
3, 172416, Note_on_c, 9, 40, 122
3, 172420, Note_on_c, 9, 42, 114
3, 172420, Note_on_c, 9, 80, 66
3, 172480, Note_on_c, 9, 80, 0
3, 172488, Note_on_c, 9, 39, 0
3, 172488, Note_on_c, 9, 40, 0
3, 172492, Note_on_c, 9, 42, 0
3, 172608, Note_on_c, 9, 35, 120
3, 172612, Note_on_c, 9, 42, 54
3, 172612, Note_on_c, 9, 81, 82
3, 172680, Note_on_c, 9, 42, 0
3, 172680, Note_on_c, 9, 35, 0
3, 172688, Note_on_c, 9, 81, 0
3, 172800, Note_on_c, 9, 42, 114
3, 172800, Note_on_c, 9, 35, 120
3, 172832, Note_on_c, 9, 42, 0
3, 172872, Note_on_c, 9, 35, 0
3, 172896, Note_on_c, 9, 42, 58
3, 172896, Note_on_c, 9, 81, 78
3, 172928, Note_on_c, 9, 42, 0
3, 172968, Note_on_c, 9, 81, 0
3, 172992, Note_on_c, 9, 70, 94
3, 172992, Note_on_c, 9, 80, 62
3, 172996, Note_on_c, 9, 42, 54
3, 173068, Note_on_c, 9, 42, 0
3, 173072, Note_on_c, 9, 70, 0
3, 173080, Note_on_c, 9, 80, 0
3, 173184, Note_on_c, 9, 39, 114
3, 173184, Note_on_c, 9, 40, 122
3, 173188, Note_on_c, 9, 42, 114
3, 173188, Note_on_c, 9, 81, 72
3, 173256, Note_on_c, 9, 40, 0
3, 173256, Note_on_c, 9, 39, 0
3, 173260, Note_on_c, 9, 42, 0
3, 173296, Note_on_c, 9, 81, 0
3, 173376, Note_on_c, 9, 42, 54
3, 173376, Note_on_c, 9, 80, 80
3, 173400, Note_on_c, 9, 42, 0
3, 173440, Note_on_c, 9, 80, 0
3, 173472, Note_on_c, 9, 42, 66
3, 173496, Note_on_c, 9, 42, 0
3, 173568, Note_on_c, 9, 42, 114
3, 173568, Note_on_c, 9, 35, 120
3, 173568, Note_on_c, 9, 81, 80
3, 173640, Note_on_c, 9, 35, 0
3, 173640, Note_on_c, 9, 42, 0
3, 173656, Note_on_c, 9, 81, 0
3, 173664, Note_on_c, 9, 70, 74
3, 173744, Note_on_c, 9, 70, 0
3, 173760, Note_on_c, 9, 42, 54
3, 173764, Note_on_c, 9, 82, 64
3, 173764, Note_on_c, 9, 80, 50
3, 173816, Note_on_c, 9, 80, 0
3, 173832, Note_on_c, 9, 42, 0
3, 173856, Note_on_c, 9, 82, 0
3, 173856, Note_on_c, 9, 69, 54
3, 173904, Note_on_c, 9, 69, 0
3, 173952, Note_on_c, 9, 39, 114
3, 173952, Note_on_c, 9, 40, 122
3, 173956, Note_on_c, 9, 42, 114
3, 173956, Note_on_c, 9, 80, 66
3, 174016, Note_on_c, 9, 80, 0
3, 174024, Note_on_c, 9, 39, 0
3, 174024, Note_on_c, 9, 40, 0
3, 174028, Note_on_c, 9, 42, 0
3, 174144, Note_on_c, 9, 42, 54
3, 174144, Note_on_c, 9, 35, 120
3, 174148, Note_on_c, 9, 81, 82
3, 174216, Note_on_c, 9, 35, 0
3, 174216, Note_on_c, 9, 42, 0
3, 174224, Note_on_c, 9, 81, 0
3, 174336, Note_on_c, 9, 42, 114
3, 174336, Note_on_c, 9, 35, 120
3, 174368, Note_on_c, 9, 42, 0
3, 174408, Note_on_c, 9, 35, 0
3, 174432, Note_on_c, 9, 42, 58
3, 174436, Note_on_c, 9, 81, 78
3, 174464, Note_on_c, 9, 42, 0
3, 174504, Note_on_c, 9, 81, 0
3, 174528, Note_on_c, 9, 70, 94
3, 174528, Note_on_c, 9, 80, 62
3, 174532, Note_on_c, 9, 42, 54
3, 174600, Note_on_c, 9, 42, 0
3, 174608, Note_on_c, 9, 70, 0
3, 174616, Note_on_c, 9, 80, 0
3, 174720, Note_on_c, 9, 39, 114
3, 174720, Note_on_c, 9, 42, 114
3, 174720, Note_on_c, 9, 40, 122
3, 174720, Note_on_c, 9, 81, 72
3, 174792, Note_on_c, 9, 40, 0
3, 174792, Note_on_c, 9, 39, 0
3, 174796, Note_on_c, 9, 42, 0
3, 174832, Note_on_c, 9, 81, 0
3, 174912, Note_on_c, 9, 45, 114
3, 174912, Note_on_c, 9, 42, 54
3, 174916, Note_on_c, 9, 80, 80
3, 174936, Note_on_c, 9, 42, 0
3, 174976, Note_on_c, 9, 80, 0
3, 174984, Note_on_c, 9, 45, 0
3, 175008, Note_on_c, 9, 42, 66
3, 175032, Note_on_c, 9, 42, 0
3, 175104, Note_on_c, 9, 57, 104
3, 175104, Note_on_c, 9, 42, 114
3, 175104, Note_on_c, 9, 35, 120
3, 175108, Note_on_c, 9, 81, 80
3, 175168, Note_on_c, 9, 57, 0
3, 175176, Note_on_c, 9, 42, 0
3, 175176, Note_on_c, 9, 35, 0
3, 175192, Note_on_c, 9, 81, 0
3, 175200, Note_on_c, 9, 70, 74
3, 175280, Note_on_c, 9, 70, 0
3, 175296, Note_on_c, 9, 42, 54
3, 175300, Note_on_c, 9, 82, 64
3, 175300, Note_on_c, 9, 80, 50
3, 175352, Note_on_c, 9, 80, 0
3, 175368, Note_on_c, 9, 42, 0
3, 175392, Note_on_c, 9, 82, 0
3, 175392, Note_on_c, 9, 69, 54
3, 175440, Note_on_c, 9, 69, 0
3, 175488, Note_on_c, 9, 39, 114
3, 175488, Note_on_c, 9, 40, 122
3, 175492, Note_on_c, 9, 42, 114
3, 175492, Note_on_c, 9, 80, 66
3, 175552, Note_on_c, 9, 80, 0
3, 175560, Note_on_c, 9, 39, 0
3, 175560, Note_on_c, 9, 40, 0
3, 175564, Note_on_c, 9, 42, 0
3, 175680, Note_on_c, 9, 35, 120
3, 175684, Note_on_c, 9, 42, 54
3, 175684, Note_on_c, 9, 81, 82
3, 175752, Note_on_c, 9, 42, 0
3, 175752, Note_on_c, 9, 35, 0
3, 175760, Note_on_c, 9, 81, 0
3, 175872, Note_on_c, 9, 42, 114
3, 175872, Note_on_c, 9, 35, 120
3, 175904, Note_on_c, 9, 42, 0
3, 175944, Note_on_c, 9, 35, 0
3, 175968, Note_on_c, 9, 42, 58
3, 175968, Note_on_c, 9, 81, 78
3, 176000, Note_on_c, 9, 42, 0
3, 176040, Note_on_c, 9, 81, 0
3, 176064, Note_on_c, 9, 70, 94
3, 176064, Note_on_c, 9, 80, 62
3, 176068, Note_on_c, 9, 42, 54
3, 176140, Note_on_c, 9, 42, 0
3, 176144, Note_on_c, 9, 70, 0
3, 176152, Note_on_c, 9, 80, 0
3, 176256, Note_on_c, 9, 39, 114
3, 176256, Note_on_c, 9, 40, 122
3, 176260, Note_on_c, 9, 42, 114
3, 176260, Note_on_c, 9, 81, 72
3, 176328, Note_on_c, 9, 40, 0
3, 176328, Note_on_c, 9, 39, 0
3, 176332, Note_on_c, 9, 42, 0
3, 176368, Note_on_c, 9, 81, 0
3, 176448, Note_on_c, 9, 42, 54
3, 176448, Note_on_c, 9, 80, 80
3, 176472, Note_on_c, 9, 42, 0
3, 176512, Note_on_c, 9, 80, 0
3, 176544, Note_on_c, 9, 42, 66
3, 176568, Note_on_c, 9, 42, 0
3, 176640, Note_on_c, 9, 42, 114
3, 176640, Note_on_c, 9, 35, 120
3, 176644, Note_on_c, 9, 81, 80
3, 176712, Note_on_c, 9, 35, 0
3, 176712, Note_on_c, 9, 42, 0
3, 176728, Note_on_c, 9, 81, 0
3, 176736, Note_on_c, 9, 70, 74
3, 176816, Note_on_c, 9, 70, 0
3, 176832, Note_on_c, 9, 42, 54
3, 176836, Note_on_c, 9, 82, 64
3, 176836, Note_on_c, 9, 80, 50
3, 176888, Note_on_c, 9, 80, 0
3, 176904, Note_on_c, 9, 42, 0
3, 176928, Note_on_c, 9, 82, 0
3, 176928, Note_on_c, 9, 69, 54
3, 176976, Note_on_c, 9, 69, 0
3, 177024, Note_on_c, 9, 39, 114
3, 177024, Note_on_c, 9, 40, 122
3, 177028, Note_on_c, 9, 42, 114
3, 177028, Note_on_c, 9, 80, 66
3, 177088, Note_on_c, 9, 80, 0
3, 177096, Note_on_c, 9, 39, 0
3, 177096, Note_on_c, 9, 40, 0
3, 177100, Note_on_c, 9, 42, 0
3, 177216, Note_on_c, 9, 35, 120
3, 177220, Note_on_c, 9, 42, 54
3, 177220, Note_on_c, 9, 81, 82
3, 177288, Note_on_c, 9, 42, 0
3, 177288, Note_on_c, 9, 35, 0
3, 177296, Note_on_c, 9, 81, 0
3, 177408, Note_on_c, 9, 42, 114
3, 177408, Note_on_c, 9, 35, 120
3, 177440, Note_on_c, 9, 42, 0
3, 177480, Note_on_c, 9, 35, 0
3, 177504, Note_on_c, 9, 42, 58
3, 177504, Note_on_c, 9, 81, 78
3, 177536, Note_on_c, 9, 42, 0
3, 177576, Note_on_c, 9, 81, 0
3, 177600, Note_on_c, 9, 70, 94
3, 177600, Note_on_c, 9, 80, 62
3, 177604, Note_on_c, 9, 42, 54
3, 177676, Note_on_c, 9, 42, 0
3, 177680, Note_on_c, 9, 70, 0
3, 177688, Note_on_c, 9, 80, 0
3, 177792, Note_on_c, 9, 39, 114
3, 177792, Note_on_c, 9, 40, 122
3, 177796, Note_on_c, 9, 42, 114
3, 177796, Note_on_c, 9, 81, 72
3, 177864, Note_on_c, 9, 40, 0
3, 177864, Note_on_c, 9, 39, 0
3, 177868, Note_on_c, 9, 42, 0
3, 177904, Note_on_c, 9, 81, 0
3, 177984, Note_on_c, 9, 42, 54
3, 177984, Note_on_c, 9, 80, 80
3, 178008, Note_on_c, 9, 42, 0
3, 178048, Note_on_c, 9, 80, 0
3, 178080, Note_on_c, 9, 42, 66
3, 178104, Note_on_c, 9, 42, 0
3, 178176, Note_on_c, 9, 42, 114
3, 178176, Note_on_c, 9, 35, 120
3, 178180, Note_on_c, 9, 81, 80
3, 178248, Note_on_c, 9, 35, 0
3, 178248, Note_on_c, 9, 42, 0
3, 178264, Note_on_c, 9, 81, 0
3, 178272, Note_on_c, 9, 70, 74
3, 178352, Note_on_c, 9, 70, 0
3, 178368, Note_on_c, 9, 42, 54
3, 178372, Note_on_c, 9, 82, 64
3, 178372, Note_on_c, 9, 80, 50
3, 178424, Note_on_c, 9, 80, 0
3, 178440, Note_on_c, 9, 42, 0
3, 178464, Note_on_c, 9, 82, 0
3, 178464, Note_on_c, 9, 69, 54
3, 178512, Note_on_c, 9, 69, 0
3, 178560, Note_on_c, 9, 39, 114
3, 178560, Note_on_c, 9, 40, 122
3, 178564, Note_on_c, 9, 42, 114
3, 178564, Note_on_c, 9, 80, 66
3, 178624, Note_on_c, 9, 80, 0
3, 178632, Note_on_c, 9, 39, 0
3, 178632, Note_on_c, 9, 40, 0
3, 178636, Note_on_c, 9, 42, 0
3, 178752, Note_on_c, 9, 35, 120
3, 178756, Note_on_c, 9, 42, 54
3, 178756, Note_on_c, 9, 81, 82
3, 178824, Note_on_c, 9, 42, 0
3, 178824, Note_on_c, 9, 35, 0
3, 178832, Note_on_c, 9, 81, 0
3, 178944, Note_on_c, 9, 42, 114
3, 178944, Note_on_c, 9, 35, 120
3, 178976, Note_on_c, 9, 42, 0
3, 179016, Note_on_c, 9, 35, 0
3, 179040, Note_on_c, 9, 42, 58
3, 179040, Note_on_c, 9, 81, 78
3, 179072, Note_on_c, 9, 42, 0
3, 179112, Note_on_c, 9, 81, 0
3, 179136, Note_on_c, 9, 70, 94
3, 179136, Note_on_c, 9, 80, 62
3, 179140, Note_on_c, 9, 42, 54
3, 179212, Note_on_c, 9, 42, 0
3, 179216, Note_on_c, 9, 70, 0
3, 179224, Note_on_c, 9, 80, 0
3, 179328, Note_on_c, 9, 39, 114
3, 179328, Note_on_c, 9, 40, 122
3, 179332, Note_on_c, 9, 42, 114
3, 179332, Note_on_c, 9, 81, 72
3, 179400, Note_on_c, 9, 40, 0
3, 179400, Note_on_c, 9, 39, 0
3, 179404, Note_on_c, 9, 42, 0
3, 179440, Note_on_c, 9, 81, 0
3, 179520, Note_on_c, 9, 42, 54
3, 179520, Note_on_c, 9, 80, 80
3, 179544, Note_on_c, 9, 42, 0
3, 179584, Note_on_c, 9, 80, 0
3, 179616, Note_on_c, 9, 42, 66
3, 179640, Note_on_c, 9, 42, 0
3, 179712, Note_on_c, 9, 42, 114
3, 179712, Note_on_c, 9, 35, 120
3, 179716, Note_on_c, 9, 81, 80
3, 179784, Note_on_c, 9, 35, 0
3, 179784, Note_on_c, 9, 42, 0
3, 179800, Note_on_c, 9, 81, 0
3, 179808, Note_on_c, 9, 70, 74
3, 179888, Note_on_c, 9, 70, 0
3, 179904, Note_on_c, 9, 42, 54
3, 179908, Note_on_c, 9, 82, 64
3, 179908, Note_on_c, 9, 80, 50
3, 179960, Note_on_c, 9, 80, 0
3, 179976, Note_on_c, 9, 42, 0
3, 180000, Note_on_c, 9, 82, 0
3, 180000, Note_on_c, 9, 69, 54
3, 180048, Note_on_c, 9, 69, 0
3, 180096, Note_on_c, 9, 39, 114
3, 180096, Note_on_c, 9, 40, 122
3, 180100, Note_on_c, 9, 42, 114
3, 180100, Note_on_c, 9, 80, 66
3, 180160, Note_on_c, 9, 80, 0
3, 180168, Note_on_c, 9, 39, 0
3, 180168, Note_on_c, 9, 40, 0
3, 180172, Note_on_c, 9, 42, 0
3, 180288, Note_on_c, 9, 35, 120
3, 180292, Note_on_c, 9, 42, 54
3, 180292, Note_on_c, 9, 81, 82
3, 180360, Note_on_c, 9, 42, 0
3, 180360, Note_on_c, 9, 35, 0
3, 180368, Note_on_c, 9, 81, 0
3, 180480, Note_on_c, 9, 42, 114
3, 180480, Note_on_c, 9, 35, 120
3, 180512, Note_on_c, 9, 42, 0
3, 180552, Note_on_c, 9, 35, 0
3, 180576, Note_on_c, 9, 42, 58
3, 180576, Note_on_c, 9, 81, 78
3, 180608, Note_on_c, 9, 42, 0
3, 180648, Note_on_c, 9, 81, 0
3, 180672, Note_on_c, 9, 70, 94
3, 180672, Note_on_c, 9, 80, 62
3, 180676, Note_on_c, 9, 42, 54
3, 180748, Note_on_c, 9, 42, 0
3, 180752, Note_on_c, 9, 70, 0
3, 180760, Note_on_c, 9, 80, 0
3, 180864, Note_on_c, 9, 39, 114
3, 180864, Note_on_c, 9, 40, 122
3, 180868, Note_on_c, 9, 42, 114
3, 180868, Note_on_c, 9, 81, 72
3, 180936, Note_on_c, 9, 40, 0
3, 180936, Note_on_c, 9, 39, 0
3, 180940, Note_on_c, 9, 42, 0
3, 180976, Note_on_c, 9, 81, 0
3, 181056, Note_on_c, 9, 42, 54
3, 181056, Note_on_c, 9, 80, 80
3, 181080, Note_on_c, 9, 42, 0
3, 181120, Note_on_c, 9, 80, 0
3, 181152, Note_on_c, 9, 42, 66
3, 181176, Note_on_c, 9, 42, 0
3, 181248, Note_on_c, 9, 42, 114
3, 181248, Note_on_c, 9, 35, 120
3, 181252, Note_on_c, 9, 81, 80
3, 181320, Note_on_c, 9, 35, 0
3, 181320, Note_on_c, 9, 42, 0
3, 181336, Note_on_c, 9, 81, 0
3, 181344, Note_on_c, 9, 70, 74
3, 181424, Note_on_c, 9, 70, 0
3, 181440, Note_on_c, 9, 42, 54
3, 181444, Note_on_c, 9, 82, 64
3, 181444, Note_on_c, 9, 80, 50
3, 181496, Note_on_c, 9, 80, 0
3, 181512, Note_on_c, 9, 42, 0
3, 181536, Note_on_c, 9, 82, 0
3, 181536, Note_on_c, 9, 69, 54
3, 181584, Note_on_c, 9, 69, 0
3, 181632, Note_on_c, 9, 39, 114
3, 181632, Note_on_c, 9, 40, 122
3, 181636, Note_on_c, 9, 42, 114
3, 181636, Note_on_c, 9, 80, 66
3, 181696, Note_on_c, 9, 80, 0
3, 181704, Note_on_c, 9, 39, 0
3, 181704, Note_on_c, 9, 40, 0
3, 181708, Note_on_c, 9, 42, 0
3, 181824, Note_on_c, 9, 35, 120
3, 181828, Note_on_c, 9, 42, 54
3, 181828, Note_on_c, 9, 81, 82
3, 181896, Note_on_c, 9, 42, 0
3, 181896, Note_on_c, 9, 35, 0
3, 181904, Note_on_c, 9, 81, 0
3, 182016, Note_on_c, 9, 42, 114
3, 182016, Note_on_c, 9, 35, 120
3, 182048, Note_on_c, 9, 42, 0
3, 182088, Note_on_c, 9, 35, 0
3, 182112, Note_on_c, 9, 42, 58
3, 182112, Note_on_c, 9, 81, 78
3, 182144, Note_on_c, 9, 42, 0
3, 182184, Note_on_c, 9, 81, 0
3, 182208, Note_on_c, 9, 70, 94
3, 182208, Note_on_c, 9, 80, 62
3, 182212, Note_on_c, 9, 42, 54
3, 182284, Note_on_c, 9, 42, 0
3, 182288, Note_on_c, 9, 70, 0
3, 182296, Note_on_c, 9, 80, 0
3, 182400, Note_on_c, 9, 39, 114
3, 182400, Note_on_c, 9, 40, 122
3, 182404, Note_on_c, 9, 42, 114
3, 182404, Note_on_c, 9, 81, 72
3, 182472, Note_on_c, 9, 40, 0
3, 182472, Note_on_c, 9, 39, 0
3, 182476, Note_on_c, 9, 42, 0
3, 182512, Note_on_c, 9, 81, 0
3, 182592, Note_on_c, 9, 42, 54
3, 182592, Note_on_c, 9, 80, 80
3, 182616, Note_on_c, 9, 42, 0
3, 182656, Note_on_c, 9, 80, 0
3, 182688, Note_on_c, 9, 42, 66
3, 182712, Note_on_c, 9, 42, 0
3, 182784, Note_on_c, 9, 42, 114
3, 182784, Note_on_c, 9, 35, 120
3, 182788, Note_on_c, 9, 81, 80
3, 182856, Note_on_c, 9, 35, 0
3, 182856, Note_on_c, 9, 42, 0
3, 182872, Note_on_c, 9, 81, 0
3, 182880, Note_on_c, 9, 70, 74
3, 182960, Note_on_c, 9, 70, 0
3, 182976, Note_on_c, 9, 42, 54
3, 182980, Note_on_c, 9, 82, 64
3, 182980, Note_on_c, 9, 80, 50
3, 183032, Note_on_c, 9, 80, 0
3, 183048, Note_on_c, 9, 42, 0
3, 183072, Note_on_c, 9, 82, 0
3, 183072, Note_on_c, 9, 69, 54
3, 183120, Note_on_c, 9, 69, 0
3, 183168, Note_on_c, 9, 39, 114
3, 183168, Note_on_c, 9, 40, 122
3, 183172, Note_on_c, 9, 42, 114
3, 183172, Note_on_c, 9, 80, 66
3, 183232, Note_on_c, 9, 80, 0
3, 183240, Note_on_c, 9, 39, 0
3, 183240, Note_on_c, 9, 40, 0
3, 183244, Note_on_c, 9, 42, 0
3, 183360, Note_on_c, 9, 35, 120
3, 183364, Note_on_c, 9, 42, 54
3, 183364, Note_on_c, 9, 81, 82
3, 183432, Note_on_c, 9, 42, 0
3, 183432, Note_on_c, 9, 35, 0
3, 183440, Note_on_c, 9, 81, 0
3, 183552, Note_on_c, 9, 42, 114
3, 183552, Note_on_c, 9, 35, 120
3, 183584, Note_on_c, 9, 42, 0
3, 183624, Note_on_c, 9, 35, 0
3, 183648, Note_on_c, 9, 42, 58
3, 183648, Note_on_c, 9, 81, 78
3, 183680, Note_on_c, 9, 42, 0
3, 183720, Note_on_c, 9, 81, 0
3, 183744, Note_on_c, 9, 70, 94
3, 183744, Note_on_c, 9, 80, 62
3, 183748, Note_on_c, 9, 42, 54
3, 183820, Note_on_c, 9, 42, 0
3, 183824, Note_on_c, 9, 70, 0
3, 183832, Note_on_c, 9, 80, 0
3, 183936, Note_on_c, 9, 39, 114
3, 183936, Note_on_c, 9, 40, 122
3, 183940, Note_on_c, 9, 42, 114
3, 183940, Note_on_c, 9, 81, 72
3, 184008, Note_on_c, 9, 40, 0
3, 184008, Note_on_c, 9, 39, 0
3, 184012, Note_on_c, 9, 42, 0
3, 184048, Note_on_c, 9, 81, 0
3, 184128, Note_on_c, 9, 42, 54
3, 184128, Note_on_c, 9, 80, 80
3, 184152, Note_on_c, 9, 42, 0
3, 184192, Note_on_c, 9, 80, 0
3, 184224, Note_on_c, 9, 42, 66
3, 184248, Note_on_c, 9, 42, 0
3, 184320, Note_on_c, 9, 42, 114
3, 184320, Note_on_c, 9, 35, 120
3, 184324, Note_on_c, 9, 81, 80
3, 184392, Note_on_c, 9, 35, 0
3, 184392, Note_on_c, 9, 42, 0
3, 184408, Note_on_c, 9, 81, 0
3, 184416, Note_on_c, 9, 70, 74
3, 184496, Note_on_c, 9, 70, 0
3, 184512, Note_on_c, 9, 42, 54
3, 184516, Note_on_c, 9, 82, 64
3, 184516, Note_on_c, 9, 80, 50
3, 184568, Note_on_c, 9, 80, 0
3, 184584, Note_on_c, 9, 42, 0
3, 184608, Note_on_c, 9, 82, 0
3, 184608, Note_on_c, 9, 69, 54
3, 184656, Note_on_c, 9, 69, 0
3, 184704, Note_on_c, 9, 39, 114
3, 184704, Note_on_c, 9, 40, 122
3, 184708, Note_on_c, 9, 42, 114
3, 184708, Note_on_c, 9, 80, 66
3, 184768, Note_on_c, 9, 80, 0
3, 184776, Note_on_c, 9, 39, 0
3, 184776, Note_on_c, 9, 40, 0
3, 184780, Note_on_c, 9, 42, 0
3, 184896, Note_on_c, 9, 35, 120
3, 184900, Note_on_c, 9, 42, 54
3, 184900, Note_on_c, 9, 81, 82
3, 184968, Note_on_c, 9, 42, 0
3, 184968, Note_on_c, 9, 35, 0
3, 184976, Note_on_c, 9, 81, 0
3, 185088, Note_on_c, 9, 42, 114
3, 185088, Note_on_c, 9, 35, 120
3, 185120, Note_on_c, 9, 42, 0
3, 185160, Note_on_c, 9, 35, 0
3, 185184, Note_on_c, 9, 42, 58
3, 185184, Note_on_c, 9, 81, 78
3, 185216, Note_on_c, 9, 42, 0
3, 185256, Note_on_c, 9, 81, 0
3, 185280, Note_on_c, 9, 70, 94
3, 185280, Note_on_c, 9, 80, 62
3, 185284, Note_on_c, 9, 42, 54
3, 185356, Note_on_c, 9, 42, 0
3, 185360, Note_on_c, 9, 70, 0
3, 185368, Note_on_c, 9, 80, 0
3, 185472, Note_on_c, 9, 39, 114
3, 185472, Note_on_c, 9, 40, 122
3, 185476, Note_on_c, 9, 42, 114
3, 185476, Note_on_c, 9, 81, 72
3, 185544, Note_on_c, 9, 40, 0
3, 185544, Note_on_c, 9, 39, 0
3, 185548, Note_on_c, 9, 42, 0
3, 185584, Note_on_c, 9, 81, 0
3, 185664, Note_on_c, 9, 42, 54
3, 185664, Note_on_c, 9, 80, 80
3, 185688, Note_on_c, 9, 42, 0
3, 185728, Note_on_c, 9, 80, 0
3, 185760, Note_on_c, 9, 42, 66
3, 185784, Note_on_c, 9, 42, 0
3, 185856, Note_on_c, 9, 35, 120
3, 185860, Note_on_c, 9, 42, 114
3, 185860, Note_on_c, 9, 81, 80
3, 185928, Note_on_c, 9, 42, 0
3, 185928, Note_on_c, 9, 35, 0
3, 185944, Note_on_c, 9, 81, 0
3, 185952, Note_on_c, 9, 70, 74
3, 186032, Note_on_c, 9, 70, 0
3, 186048, Note_on_c, 9, 42, 54
3, 186048, Note_on_c, 9, 82, 64
3, 186048, Note_on_c, 9, 80, 50
3, 186104, Note_on_c, 9, 80, 0
3, 186120, Note_on_c, 9, 42, 0
3, 186144, Note_on_c, 9, 82, 0
3, 186144, Note_on_c, 9, 69, 54
3, 186192, Note_on_c, 9, 69, 0
3, 186240, Note_on_c, 9, 39, 114
3, 186240, Note_on_c, 9, 40, 122
3, 186244, Note_on_c, 9, 42, 114
3, 186244, Note_on_c, 9, 80, 66
3, 186304, Note_on_c, 9, 80, 0
3, 186312, Note_on_c, 9, 39, 0
3, 186312, Note_on_c, 9, 40, 0
3, 186316, Note_on_c, 9, 42, 0
3, 186432, Note_on_c, 9, 35, 120
3, 186432, Note_on_c, 9, 42, 54
3, 186432, Note_on_c, 9, 81, 82
3, 186504, Note_on_c, 9, 42, 0
3, 186504, Note_on_c, 9, 35, 0
3, 186512, Note_on_c, 9, 81, 0
3, 186624, Note_on_c, 9, 42, 114
3, 186624, Note_on_c, 9, 35, 120
3, 186656, Note_on_c, 9, 42, 0
3, 186696, Note_on_c, 9, 35, 0
3, 186720, Note_on_c, 9, 42, 58
3, 186720, Note_on_c, 9, 81, 78
3, 186752, Note_on_c, 9, 42, 0
3, 186792, Note_on_c, 9, 81, 0
3, 186816, Note_on_c, 9, 48, 114
3, 186820, Note_on_c, 9, 70, 94
3, 186820, Note_on_c, 9, 42, 54
3, 186820, Note_on_c, 9, 80, 62
3, 186888, Note_on_c, 9, 42, 0
3, 186888, Note_on_c, 9, 48, 0
3, 186896, Note_on_c, 9, 70, 0
3, 186904, Note_on_c, 9, 80, 0
3, 187008, Note_on_c, 9, 39, 114
3, 187008, Note_on_c, 9, 40, 122
3, 187012, Note_on_c, 9, 42, 114
3, 187012, Note_on_c, 9, 81, 72
3, 187080, Note_on_c, 9, 40, 0
3, 187080, Note_on_c, 9, 39, 0
3, 187084, Note_on_c, 9, 42, 0
3, 187120, Note_on_c, 9, 81, 0
3, 187200, Note_on_c, 9, 45, 114
3, 187204, Note_on_c, 9, 42, 54
3, 187204, Note_on_c, 9, 80, 80
3, 187224, Note_on_c, 9, 42, 0
3, 187264, Note_on_c, 9, 80, 0
3, 187272, Note_on_c, 9, 45, 0
3, 187296, Note_on_c, 9, 42, 66
3, 187320, Note_on_c, 9, 42, 0
3, 187392, Note_on_c, 9, 49, 104
3, 187392, Note_on_c, 9, 42, 114
3, 187392, Note_on_c, 9, 35, 120
3, 187456, Note_on_c, 9, 49, 0
3, 187464, Note_on_c, 9, 35, 0
3, 187464, Note_on_c, 9, 42, 0
3, 187488, Note_on_c, 9, 70, 74
3, 187568, Note_on_c, 9, 70, 0
3, 187584, Note_on_c, 9, 42, 54
3, 187588, Note_on_c, 9, 82, 64
3, 187588, Note_on_c, 9, 80, 50
3, 187640, Note_on_c, 9, 80, 0
3, 187656, Note_on_c, 9, 42, 0
3, 187680, Note_on_c, 9, 82, 0
3, 187680, Note_on_c, 9, 69, 54
3, 187728, Note_on_c, 9, 69, 0
3, 187776, Note_on_c, 9, 39, 114
3, 187776, Note_on_c, 9, 40, 122
3, 187780, Note_on_c, 9, 42, 114
3, 187780, Note_on_c, 9, 80, 66
3, 187840, Note_on_c, 9, 80, 0
3, 187848, Note_on_c, 9, 39, 0
3, 187848, Note_on_c, 9, 40, 0
3, 187852, Note_on_c, 9, 42, 0
3, 187968, Note_on_c, 9, 35, 120
3, 187972, Note_on_c, 9, 42, 54
3, 187972, Note_on_c, 9, 81, 82
3, 188040, Note_on_c, 9, 42, 0
3, 188040, Note_on_c, 9, 35, 0
3, 188048, Note_on_c, 9, 81, 0
3, 188160, Note_on_c, 9, 42, 114
3, 188160, Note_on_c, 9, 35, 120
3, 188192, Note_on_c, 9, 42, 0
3, 188232, Note_on_c, 9, 35, 0
3, 188256, Note_on_c, 9, 42, 58
3, 188256, Note_on_c, 9, 81, 78
3, 188288, Note_on_c, 9, 42, 0
3, 188328, Note_on_c, 9, 81, 0
3, 188352, Note_on_c, 9, 70, 94
3, 188352, Note_on_c, 9, 80, 62
3, 188356, Note_on_c, 9, 42, 54
3, 188428, Note_on_c, 9, 42, 0
3, 188432, Note_on_c, 9, 70, 0
3, 188440, Note_on_c, 9, 80, 0
3, 188544, Note_on_c, 9, 39, 114
3, 188544, Note_on_c, 9, 40, 122
3, 188548, Note_on_c, 9, 42, 114
3, 188548, Note_on_c, 9, 81, 72
3, 188616, Note_on_c, 9, 40, 0
3, 188616, Note_on_c, 9, 39, 0
3, 188620, Note_on_c, 9, 42, 0
3, 188656, Note_on_c, 9, 81, 0
3, 188736, Note_on_c, 9, 42, 54
3, 188736, Note_on_c, 9, 80, 80
3, 188760, Note_on_c, 9, 42, 0
3, 188800, Note_on_c, 9, 80, 0
3, 188832, Note_on_c, 9, 42, 66
3, 188856, Note_on_c, 9, 42, 0
3, 188928, Note_on_c, 9, 35, 120
3, 188932, Note_on_c, 9, 42, 114
3, 188932, Note_on_c, 9, 81, 80
3, 189000, Note_on_c, 9, 42, 0
3, 189000, Note_on_c, 9, 35, 0
3, 189016, Note_on_c, 9, 81, 0
3, 189024, Note_on_c, 9, 70, 74
3, 189104, Note_on_c, 9, 70, 0
3, 189120, Note_on_c, 9, 42, 54
3, 189120, Note_on_c, 9, 82, 64
3, 189120, Note_on_c, 9, 80, 50
3, 189176, Note_on_c, 9, 80, 0
3, 189192, Note_on_c, 9, 42, 0
3, 189216, Note_on_c, 9, 82, 0
3, 189216, Note_on_c, 9, 69, 54
3, 189264, Note_on_c, 9, 69, 0
3, 189312, Note_on_c, 9, 39, 114
3, 189312, Note_on_c, 9, 40, 122
3, 189316, Note_on_c, 9, 42, 114
3, 189316, Note_on_c, 9, 80, 66
3, 189376, Note_on_c, 9, 80, 0
3, 189384, Note_on_c, 9, 39, 0
3, 189384, Note_on_c, 9, 40, 0
3, 189388, Note_on_c, 9, 42, 0
3, 189504, Note_on_c, 9, 35, 120
3, 189504, Note_on_c, 9, 42, 54
3, 189504, Note_on_c, 9, 81, 82
3, 189576, Note_on_c, 9, 42, 0
3, 189576, Note_on_c, 9, 35, 0
3, 189584, Note_on_c, 9, 81, 0
3, 189696, Note_on_c, 9, 42, 114
3, 189696, Note_on_c, 9, 35, 120
3, 189728, Note_on_c, 9, 42, 0
3, 189768, Note_on_c, 9, 35, 0
3, 189792, Note_on_c, 9, 42, 58
3, 189792, Note_on_c, 9, 81, 78
3, 189824, Note_on_c, 9, 42, 0
3, 189864, Note_on_c, 9, 81, 0
3, 189888, Note_on_c, 9, 48, 114
3, 189892, Note_on_c, 9, 70, 94
3, 189892, Note_on_c, 9, 42, 54
3, 189892, Note_on_c, 9, 80, 62
3, 189960, Note_on_c, 9, 42, 0
3, 189960, Note_on_c, 9, 48, 0
3, 189968, Note_on_c, 9, 70, 0
3, 189976, Note_on_c, 9, 80, 0
3, 190080, Note_on_c, 9, 39, 114
3, 190080, Note_on_c, 9, 40, 122
3, 190084, Note_on_c, 9, 42, 114
3, 190084, Note_on_c, 9, 81, 72
3, 190152, Note_on_c, 9, 40, 0
3, 190152, Note_on_c, 9, 39, 0
3, 190156, Note_on_c, 9, 42, 0
3, 190192, Note_on_c, 9, 81, 0
3, 190272, Note_on_c, 9, 45, 114
3, 190276, Note_on_c, 9, 42, 54
3, 190276, Note_on_c, 9, 80, 80
3, 190296, Note_on_c, 9, 42, 0
3, 190336, Note_on_c, 9, 80, 0
3, 190344, Note_on_c, 9, 45, 0
3, 190368, Note_on_c, 9, 42, 66
3, 190392, Note_on_c, 9, 42, 0
3, 190468, Note_on_c, 9, 42, 114
3, 190468, Note_on_c, 9, 35, 120
3, 190468, Note_on_c, 9, 40, 122
3, 190468, Note_on_c, 9, 81, 80
3, 190536, Note_on_c, 9, 40, 0
3, 190536, Note_on_c, 9, 42, 0
3, 190536, Note_on_c, 9, 35, 0
3, 190552, Note_on_c, 9, 81, 0
3, 190560, Note_on_c, 9, 70, 74
3, 190640, Note_on_c, 9, 70, 0
3, 190656, Note_on_c, 9, 42, 54
3, 190656, Note_on_c, 9, 82, 64
3, 190660, Note_on_c, 9, 80, 50
3, 190712, Note_on_c, 9, 80, 0
3, 190728, Note_on_c, 9, 42, 0
3, 190752, Note_on_c, 9, 82, 0
3, 190752, Note_on_c, 9, 69, 54
3, 190800, Note_on_c, 9, 69, 0
3, 190848, Note_on_c, 9, 57, 104
3, 190848, Note_on_c, 9, 39, 114
3, 190852, Note_on_c, 9, 42, 114
3, 190852, Note_on_c, 9, 40, 122
3, 190852, Note_on_c, 9, 80, 66
3, 190912, Note_on_c, 9, 80, 0
3, 190920, Note_on_c, 9, 57, 0
3, 190924, Note_on_c, 9, 39, 0
3, 190924, Note_on_c, 9, 42, 0
3, 190924, Note_on_c, 9, 40, 0
3, 191040, Note_on_c, 9, 42, 54
3, 191040, Note_on_c, 9, 35, 120
3, 191040, Note_on_c, 9, 81, 82
3, 191112, Note_on_c, 9, 35, 0
3, 191112, Note_on_c, 9, 42, 0
3, 191120, Note_on_c, 9, 81, 0
3, 191232, Note_on_c, 9, 42, 114
3, 191232, Note_on_c, 9, 35, 120
3, 191264, Note_on_c, 9, 42, 0
3, 191304, Note_on_c, 9, 35, 0
3, 191328, Note_on_c, 9, 42, 58
3, 191328, Note_on_c, 9, 81, 78
3, 191360, Note_on_c, 9, 42, 0
3, 191400, Note_on_c, 9, 81, 0
3, 191424, Note_on_c, 9, 70, 94
3, 191424, Note_on_c, 9, 42, 54
3, 191424, Note_on_c, 9, 80, 62
3, 191496, Note_on_c, 9, 42, 0
3, 191504, Note_on_c, 9, 70, 0
3, 191512, Note_on_c, 9, 80, 0
3, 191616, Note_on_c, 9, 39, 114
3, 191616, Note_on_c, 9, 40, 122
3, 191620, Note_on_c, 9, 42, 114
3, 191620, Note_on_c, 9, 81, 72
3, 191688, Note_on_c, 9, 40, 0
3, 191688, Note_on_c, 9, 39, 0
3, 191692, Note_on_c, 9, 42, 0
3, 191728, Note_on_c, 9, 81, 0
3, 191808, Note_on_c, 9, 42, 54
3, 191808, Note_on_c, 9, 80, 80
3, 191832, Note_on_c, 9, 42, 0
3, 191872, Note_on_c, 9, 80, 0
3, 191904, Note_on_c, 9, 42, 66
3, 191928, Note_on_c, 9, 42, 0
3, 192000, Note_on_c, 9, 35, 120
3, 192004, Note_on_c, 9, 42, 114
3, 192004, Note_on_c, 9, 81, 80
3, 192072, Note_on_c, 9, 42, 0
3, 192072, Note_on_c, 9, 35, 0
3, 192088, Note_on_c, 9, 81, 0
3, 192096, Note_on_c, 9, 70, 74
3, 192176, Note_on_c, 9, 70, 0
3, 192192, Note_on_c, 9, 42, 54
3, 192192, Note_on_c, 9, 82, 64
3, 192192, Note_on_c, 9, 80, 50
3, 192248, Note_on_c, 9, 80, 0
3, 192264, Note_on_c, 9, 42, 0
3, 192288, Note_on_c, 9, 82, 0
3, 192288, Note_on_c, 9, 69, 54
3, 192336, Note_on_c, 9, 69, 0
3, 192384, Note_on_c, 9, 39, 114
3, 192384, Note_on_c, 9, 40, 122
3, 192388, Note_on_c, 9, 42, 114
3, 192388, Note_on_c, 9, 80, 66
3, 192448, Note_on_c, 9, 80, 0
3, 192456, Note_on_c, 9, 39, 0
3, 192456, Note_on_c, 9, 40, 0
3, 192460, Note_on_c, 9, 42, 0
3, 192576, Note_on_c, 9, 35, 120
3, 192576, Note_on_c, 9, 42, 54
3, 192576, Note_on_c, 9, 81, 82
3, 192648, Note_on_c, 9, 42, 0
3, 192648, Note_on_c, 9, 35, 0
3, 192656, Note_on_c, 9, 81, 0
3, 192768, Note_on_c, 9, 42, 114
3, 192768, Note_on_c, 9, 35, 120
3, 192800, Note_on_c, 9, 42, 0
3, 192840, Note_on_c, 9, 35, 0
3, 192864, Note_on_c, 9, 42, 58
3, 192864, Note_on_c, 9, 81, 78
3, 192896, Note_on_c, 9, 42, 0
3, 192936, Note_on_c, 9, 81, 0
3, 192960, Note_on_c, 9, 48, 114
3, 192964, Note_on_c, 9, 70, 94
3, 192964, Note_on_c, 9, 42, 54
3, 192964, Note_on_c, 9, 80, 62
3, 193032, Note_on_c, 9, 42, 0
3, 193032, Note_on_c, 9, 48, 0
3, 193040, Note_on_c, 9, 70, 0
3, 193048, Note_on_c, 9, 80, 0
3, 193152, Note_on_c, 9, 39, 114
3, 193152, Note_on_c, 9, 40, 122
3, 193156, Note_on_c, 9, 42, 114
3, 193156, Note_on_c, 9, 81, 72
3, 193224, Note_on_c, 9, 40, 0
3, 193224, Note_on_c, 9, 39, 0
3, 193228, Note_on_c, 9, 42, 0
3, 193264, Note_on_c, 9, 81, 0
3, 193344, Note_on_c, 9, 45, 114
3, 193348, Note_on_c, 9, 42, 54
3, 193348, Note_on_c, 9, 80, 80
3, 193368, Note_on_c, 9, 42, 0
3, 193408, Note_on_c, 9, 80, 0
3, 193416, Note_on_c, 9, 45, 0
3, 193440, Note_on_c, 9, 42, 66
3, 193464, Note_on_c, 9, 42, 0
3, 193536, Note_on_c, 9, 49, 104
3, 193536, Note_on_c, 9, 35, 120
3, 193600, Note_on_c, 9, 35, 0
3, 193600, Note_on_c, 9, 49, 0
3, 193600, End_track
4, 0, Start_track
4, 0, MIDI_port, 0
4, 0, Title_t, "Bass"
4, 0, Control_c, 0, 32, 0
4, 0, Control_c, 1, 91, 65
4, 0, Control_c, 1, 93, 80
4, 672, Control_c, 1, 120, 0
4, 768, Control_c, 1, 121, 0
4, 960, Control_c, 1, 100, 0
4, 1056, Control_c, 1, 101, 0
4, 1152, Control_c, 1, 6, 2
4, 3072, Note_on_c, 1, 29, 122
4, 3532, Note_on_c, 1, 29, 0
4, 3648, Note_on_c, 1, 29, 127
4, 3724, Note_on_c, 1, 29, 0
4, 3840, Note_on_c, 1, 29, 127
4, 4324, Note_on_c, 1, 29, 0
4, 4416, Note_on_c, 1, 29, 127
4, 4608, Note_on_c, 1, 31, 127
4, 4620, Note_on_c, 1, 29, 0
4, 5076, Note_on_c, 1, 31, 0
4, 5184, Note_on_c, 1, 31, 127
4, 5264, Note_on_c, 1, 31, 0
4, 5376, Note_on_c, 1, 31, 127
4, 5872, Note_on_c, 1, 31, 0
4, 5952, Note_on_c, 1, 31, 122
4, 6144, Note_on_c, 1, 31, 0
4, 6144, Note_on_c, 1, 29, 127
4, 6636, Note_on_c, 1, 29, 0
4, 6720, Note_on_c, 1, 29, 127
4, 6784, Note_on_c, 1, 29, 0
4, 6912, Note_on_c, 1, 29, 127
4, 7288, Note_on_c, 1, 29, 0
4, 7296, Note_on_c, 1, 36, 127
4, 7484, Note_on_c, 1, 36, 0
4, 7488, Note_on_c, 1, 29, 127
4, 7680, Note_on_c, 1, 31, 127
4, 7692, Note_on_c, 1, 29, 0
4, 8172, Note_on_c, 1, 31, 0
4, 8256, Note_on_c, 1, 31, 127
4, 8352, Note_on_c, 1, 31, 0
4, 8448, Note_on_c, 1, 31, 127
4, 8596, Note_on_c, 1, 31, 0
4, 8640, Note_on_c, 1, 31, 127
4, 8944, Note_on_c, 1, 31, 0
4, 9024, Note_on_c, 1, 31, 127
4, 9216, Note_on_c, 1, 31, 0
4, 9216, Note_on_c, 1, 29, 122
4, 9676, Note_on_c, 1, 29, 0
4, 9792, Note_on_c, 1, 29, 127
4, 9868, Note_on_c, 1, 29, 0
4, 9984, Note_on_c, 1, 29, 127
4, 10468, Note_on_c, 1, 29, 0
4, 10560, Note_on_c, 1, 29, 127
4, 10752, Note_on_c, 1, 31, 127
4, 10764, Note_on_c, 1, 29, 0
4, 11220, Note_on_c, 1, 31, 0
4, 11328, Note_on_c, 1, 31, 127
4, 11408, Note_on_c, 1, 31, 0
4, 11520, Note_on_c, 1, 31, 127
4, 12016, Note_on_c, 1, 31, 0
4, 12096, Note_on_c, 1, 31, 122
4, 12288, Note_on_c, 1, 31, 0
4, 12288, Note_on_c, 1, 29, 122
4, 12748, Note_on_c, 1, 29, 0
4, 12864, Note_on_c, 1, 29, 127
4, 12940, Note_on_c, 1, 29, 0
4, 13056, Note_on_c, 1, 29, 127
4, 13540, Note_on_c, 1, 29, 0
4, 13632, Note_on_c, 1, 29, 127
4, 13824, Note_on_c, 1, 31, 127
4, 13836, Note_on_c, 1, 29, 0
4, 14292, Note_on_c, 1, 31, 0
4, 14400, Note_on_c, 1, 31, 127
4, 14480, Note_on_c, 1, 31, 0
4, 14592, Note_on_c, 1, 31, 127
4, 15088, Note_on_c, 1, 31, 0
4, 15168, Note_on_c, 1, 31, 122
4, 15360, Note_on_c, 1, 31, 0
4, 15360, Note_on_c, 1, 29, 122
4, 15820, Note_on_c, 1, 29, 0
4, 15936, Note_on_c, 1, 29, 127
4, 16012, Note_on_c, 1, 29, 0
4, 16128, Note_on_c, 1, 29, 127
4, 16612, Note_on_c, 1, 29, 0
4, 16704, Note_on_c, 1, 29, 127
4, 16896, Note_on_c, 1, 31, 127
4, 16908, Note_on_c, 1, 29, 0
4, 17364, Note_on_c, 1, 31, 0
4, 17472, Note_on_c, 1, 31, 127
4, 17552, Note_on_c, 1, 31, 0
4, 17664, Note_on_c, 1, 31, 127
4, 18160, Note_on_c, 1, 31, 0
4, 18240, Note_on_c, 1, 31, 122
4, 18432, Note_on_c, 1, 31, 0
4, 18432, Note_on_c, 1, 29, 122
4, 18892, Note_on_c, 1, 29, 0
4, 19008, Note_on_c, 1, 29, 127
4, 19084, Note_on_c, 1, 29, 0
4, 19200, Note_on_c, 1, 29, 127
4, 19684, Note_on_c, 1, 29, 0
4, 19776, Note_on_c, 1, 29, 127
4, 19968, Note_on_c, 1, 31, 127
4, 19980, Note_on_c, 1, 29, 0
4, 20436, Note_on_c, 1, 31, 0
4, 20544, Note_on_c, 1, 31, 127
4, 20624, Note_on_c, 1, 31, 0
4, 20736, Note_on_c, 1, 31, 127
4, 21232, Note_on_c, 1, 31, 0
4, 21312, Note_on_c, 1, 31, 122
4, 21504, Note_on_c, 1, 31, 0
4, 21504, Note_on_c, 1, 29, 122
4, 21964, Note_on_c, 1, 29, 0
4, 22080, Note_on_c, 1, 29, 127
4, 22156, Note_on_c, 1, 29, 0
4, 22272, Note_on_c, 1, 29, 127
4, 22756, Note_on_c, 1, 29, 0
4, 22848, Note_on_c, 1, 29, 127
4, 23040, Note_on_c, 1, 29, 0
4, 23040, Note_on_c, 1, 31, 122
4, 23512, Note_on_c, 1, 31, 0
4, 23616, Note_on_c, 1, 31, 116
4, 23684, Note_on_c, 1, 31, 0
4, 23808, Note_on_c, 1, 31, 119
4, 24192, Note_on_c, 1, 38, 122
4, 24196, Note_on_c, 1, 31, 0
4, 24384, Note_on_c, 1, 31, 127
4, 24388, Note_on_c, 1, 38, 0
4, 24572, Note_on_c, 1, 31, 0
4, 24576, Note_on_c, 1, 29, 127
4, 25040, Note_on_c, 1, 29, 0
4, 25152, Note_on_c, 1, 29, 122
4, 25224, Note_on_c, 1, 29, 0
4, 25344, Note_on_c, 1, 29, 127
4, 25728, Note_on_c, 1, 36, 127
4, 25744, Note_on_c, 1, 29, 0
4, 25908, Note_on_c, 1, 36, 0
4, 25920, Note_on_c, 1, 29, 127
4, 26100, Note_on_c, 1, 29, 0
4, 26112, Note_on_c, 1, 31, 122
4, 26112, Note_on_c, 1, 29, 78
4, 26136, Note_on_c, 1, 29, 0
4, 26568, Note_on_c, 1, 31, 0
4, 26688, Note_on_c, 1, 31, 122
4, 26768, Note_on_c, 1, 31, 0
4, 26880, Note_on_c, 1, 31, 119
4, 27068, Note_on_c, 1, 31, 0
4, 27072, Note_on_c, 1, 38, 127
4, 27440, Note_on_c, 1, 38, 0
4, 27456, Note_on_c, 1, 31, 122
4, 27648, Note_on_c, 1, 31, 0
4, 27648, Note_on_c, 1, 29, 122
4, 28108, Note_on_c, 1, 29, 0
4, 28224, Note_on_c, 1, 29, 127
4, 28300, Note_on_c, 1, 29, 0
4, 28416, Note_on_c, 1, 29, 127
4, 28900, Note_on_c, 1, 29, 0
4, 28992, Note_on_c, 1, 29, 127
4, 29184, Note_on_c, 1, 31, 127
4, 29196, Note_on_c, 1, 29, 0
4, 29652, Note_on_c, 1, 31, 0
4, 29760, Note_on_c, 1, 31, 127
4, 29840, Note_on_c, 1, 31, 0
4, 29952, Note_on_c, 1, 31, 127
4, 30448, Note_on_c, 1, 31, 0
4, 30528, Note_on_c, 1, 31, 122
4, 30720, Note_on_c, 1, 31, 0
4, 30720, Note_on_c, 1, 29, 122
4, 31180, Note_on_c, 1, 29, 0
4, 31296, Note_on_c, 1, 29, 127
4, 31372, Note_on_c, 1, 29, 0
4, 31488, Note_on_c, 1, 29, 127
4, 31972, Note_on_c, 1, 29, 0
4, 32064, Note_on_c, 1, 29, 127
4, 32256, Note_on_c, 1, 31, 127
4, 32268, Note_on_c, 1, 29, 0
4, 32724, Note_on_c, 1, 31, 0
4, 32832, Note_on_c, 1, 31, 127
4, 32912, Note_on_c, 1, 31, 0
4, 33024, Note_on_c, 1, 31, 127
4, 33520, Note_on_c, 1, 31, 0
4, 33600, Note_on_c, 1, 31, 122
4, 33792, Note_on_c, 1, 31, 0
4, 33792, Note_on_c, 1, 29, 122
4, 34252, Note_on_c, 1, 29, 0
4, 34368, Note_on_c, 1, 29, 127
4, 34444, Note_on_c, 1, 29, 0
4, 34560, Note_on_c, 1, 29, 127
4, 35044, Note_on_c, 1, 29, 0
4, 35136, Note_on_c, 1, 29, 127
4, 35328, Note_on_c, 1, 31, 127
4, 35340, Note_on_c, 1, 29, 0
4, 35796, Note_on_c, 1, 31, 0
4, 35904, Note_on_c, 1, 31, 127
4, 35984, Note_on_c, 1, 31, 0
4, 36096, Note_on_c, 1, 31, 127
4, 36592, Note_on_c, 1, 31, 0
4, 36672, Note_on_c, 1, 31, 122
4, 36864, Note_on_c, 1, 31, 0
4, 36864, Note_on_c, 1, 29, 122
4, 37324, Note_on_c, 1, 29, 0
4, 37440, Note_on_c, 1, 29, 127
4, 37516, Note_on_c, 1, 29, 0
4, 37632, Note_on_c, 1, 29, 127
4, 38116, Note_on_c, 1, 29, 0
4, 38208, Note_on_c, 1, 29, 127
4, 38400, Note_on_c, 1, 31, 127
4, 38412, Note_on_c, 1, 29, 0
4, 38868, Note_on_c, 1, 31, 0
4, 38976, Note_on_c, 1, 31, 127
4, 39056, Note_on_c, 1, 31, 0
4, 39168, Note_on_c, 1, 31, 127
4, 39664, Note_on_c, 1, 31, 0
4, 39744, Note_on_c, 1, 38, 122
4, 39936, Note_on_c, 1, 38, 0
4, 39936, Note_on_c, 1, 29, 122
4, 40396, Note_on_c, 1, 29, 0
4, 40512, Note_on_c, 1, 29, 127
4, 40588, Note_on_c, 1, 29, 0
4, 40704, Note_on_c, 1, 29, 127
4, 41188, Note_on_c, 1, 29, 0
4, 41280, Note_on_c, 1, 29, 127
4, 41472, Note_on_c, 1, 31, 127
4, 41484, Note_on_c, 1, 29, 0
4, 41940, Note_on_c, 1, 31, 0
4, 42048, Note_on_c, 1, 31, 127
4, 42128, Note_on_c, 1, 31, 0
4, 42240, Note_on_c, 1, 31, 127
4, 42736, Note_on_c, 1, 31, 0
4, 42816, Note_on_c, 1, 31, 122
4, 43008, Note_on_c, 1, 31, 0
4, 43008, Note_on_c, 1, 29, 122
4, 43468, Note_on_c, 1, 29, 0
4, 43584, Note_on_c, 1, 29, 127
4, 43660, Note_on_c, 1, 29, 0
4, 43776, Note_on_c, 1, 29, 127
4, 44260, Note_on_c, 1, 29, 0
4, 44352, Note_on_c, 1, 29, 127
4, 44544, Note_on_c, 1, 31, 127
4, 44556, Note_on_c, 1, 29, 0
4, 45012, Note_on_c, 1, 31, 0
4, 45120, Note_on_c, 1, 31, 127
4, 45200, Note_on_c, 1, 31, 0
4, 45312, Note_on_c, 1, 31, 127
4, 45808, Note_on_c, 1, 31, 0
4, 45888, Note_on_c, 1, 31, 122
4, 46080, Note_on_c, 1, 31, 0
4, 46080, Note_on_c, 1, 29, 127
4, 46536, Note_on_c, 1, 29, 0
4, 46656, Note_on_c, 1, 29, 127
4, 46728, Note_on_c, 1, 29, 0
4, 46848, Note_on_c, 1, 29, 127
4, 47232, Note_on_c, 1, 36, 127
4, 47236, Note_on_c, 1, 29, 0
4, 47408, Note_on_c, 1, 36, 0
4, 47424, Note_on_c, 1, 29, 122
4, 47616, Note_on_c, 1, 31, 119
4, 47636, Note_on_c, 1, 29, 0
4, 48048, Note_on_c, 1, 31, 0
4, 48192, Note_on_c, 1, 31, 119
4, 48268, Note_on_c, 1, 31, 0
4, 48384, Note_on_c, 1, 31, 127
4, 48572, Note_on_c, 1, 31, 0
4, 48576, Note_on_c, 1, 38, 122
4, 48940, Note_on_c, 1, 38, 0
4, 48960, Note_on_c, 1, 30, 127
4, 49152, Note_on_c, 1, 30, 0
4, 49152, Note_on_c, 1, 29, 122
4, 49612, Note_on_c, 1, 29, 0
4, 49728, Note_on_c, 1, 29, 127
4, 49804, Note_on_c, 1, 29, 0
4, 49920, Note_on_c, 1, 29, 127
4, 50404, Note_on_c, 1, 29, 0
4, 50496, Note_on_c, 1, 29, 127
4, 50688, Note_on_c, 1, 29, 0
4, 50688, Note_on_c, 1, 31, 116
4, 51128, Note_on_c, 1, 31, 0
4, 51264, Note_on_c, 1, 31, 119
4, 51340, Note_on_c, 1, 31, 0
4, 51456, Note_on_c, 1, 31, 122
4, 51648, Note_on_c, 1, 38, 127
4, 51672, Note_on_c, 1, 31, 0
4, 51828, Note_on_c, 1, 38, 0
4, 51840, Note_on_c, 1, 31, 116
4, 52024, Note_on_c, 1, 31, 0
4, 52032, Note_on_c, 1, 30, 127
4, 52224, Note_on_c, 1, 30, 0
4, 52224, Note_on_c, 1, 29, 122
4, 52684, Note_on_c, 1, 29, 0
4, 52800, Note_on_c, 1, 29, 127
4, 52876, Note_on_c, 1, 29, 0
4, 52992, Note_on_c, 1, 29, 127
4, 53476, Note_on_c, 1, 29, 0
4, 53568, Note_on_c, 1, 29, 127
4, 53760, Note_on_c, 1, 31, 127
4, 53772, Note_on_c, 1, 29, 0
4, 54228, Note_on_c, 1, 31, 0
4, 54336, Note_on_c, 1, 31, 127
4, 54416, Note_on_c, 1, 31, 0
4, 54528, Note_on_c, 1, 31, 127
4, 55024, Note_on_c, 1, 31, 0
4, 55104, Note_on_c, 1, 31, 122
4, 55296, Note_on_c, 1, 31, 0
4, 55296, Note_on_c, 1, 29, 122
4, 55756, Note_on_c, 1, 29, 0
4, 55872, Note_on_c, 1, 29, 127
4, 55948, Note_on_c, 1, 29, 0
4, 56064, Note_on_c, 1, 29, 127
4, 56548, Note_on_c, 1, 29, 0
4, 56640, Note_on_c, 1, 29, 127
4, 56832, Note_on_c, 1, 31, 127
4, 56844, Note_on_c, 1, 29, 0
4, 57300, Note_on_c, 1, 31, 0
4, 57408, Note_on_c, 1, 31, 127
4, 57488, Note_on_c, 1, 31, 0
4, 57600, Note_on_c, 1, 31, 127
4, 58096, Note_on_c, 1, 31, 0
4, 58176, Note_on_c, 1, 31, 122
4, 58368, Note_on_c, 1, 31, 0
4, 58368, Note_on_c, 1, 29, 122
4, 58828, Note_on_c, 1, 29, 0
4, 58944, Note_on_c, 1, 29, 127
4, 59020, Note_on_c, 1, 29, 0
4, 59136, Note_on_c, 1, 29, 127
4, 59620, Note_on_c, 1, 29, 0
4, 59712, Note_on_c, 1, 29, 127
4, 59904, Note_on_c, 1, 31, 127
4, 59916, Note_on_c, 1, 29, 0
4, 60372, Note_on_c, 1, 31, 0
4, 60480, Note_on_c, 1, 31, 127
4, 60560, Note_on_c, 1, 31, 0
4, 60672, Note_on_c, 1, 31, 127
4, 61168, Note_on_c, 1, 31, 0
4, 61248, Note_on_c, 1, 31, 122
4, 61440, Note_on_c, 1, 31, 0
4, 61440, Note_on_c, 1, 29, 122
4, 61900, Note_on_c, 1, 29, 0
4, 62016, Note_on_c, 1, 29, 127
4, 62092, Note_on_c, 1, 29, 0
4, 62208, Note_on_c, 1, 29, 127
4, 62692, Note_on_c, 1, 29, 0
4, 62784, Note_on_c, 1, 29, 127
4, 62976, Note_on_c, 1, 31, 127
4, 62988, Note_on_c, 1, 29, 0
4, 63444, Note_on_c, 1, 31, 0
4, 63552, Note_on_c, 1, 31, 127
4, 63632, Note_on_c, 1, 31, 0
4, 63744, Note_on_c, 1, 31, 127
4, 64240, Note_on_c, 1, 31, 0
4, 64320, Note_on_c, 1, 31, 122
4, 64512, Note_on_c, 1, 31, 0
4, 64512, Note_on_c, 1, 29, 122
4, 64972, Note_on_c, 1, 29, 0
4, 65088, Note_on_c, 1, 29, 127
4, 65164, Note_on_c, 1, 29, 0
4, 65280, Note_on_c, 1, 29, 127
4, 65764, Note_on_c, 1, 29, 0
4, 65856, Note_on_c, 1, 29, 127
4, 66048, Note_on_c, 1, 29, 0
4, 66048, Note_on_c, 1, 31, 119
4, 66536, Note_on_c, 1, 31, 0
4, 66624, Note_on_c, 1, 31, 122
4, 66804, Note_on_c, 1, 31, 0
4, 66816, Note_on_c, 1, 31, 123
4, 66876, Note_on_c, 1, 31, 0
4, 67008, Note_on_c, 1, 31, 123
4, 67080, Note_on_c, 1, 31, 0
4, 67200, Note_on_c, 1, 31, 123
4, 67276, Note_on_c, 1, 31, 0
4, 67392, Note_on_c, 1, 31, 123
4, 67496, Note_on_c, 1, 31, 0
4, 67584, Note_on_c, 1, 29, 122
4, 68044, Note_on_c, 1, 29, 0
4, 68160, Note_on_c, 1, 29, 127
4, 68236, Note_on_c, 1, 29, 0
4, 68352, Note_on_c, 1, 29, 127
4, 68836, Note_on_c, 1, 29, 0
4, 68928, Note_on_c, 1, 29, 127
4, 69120, Note_on_c, 1, 29, 0
4, 69120, Note_on_c, 1, 31, 119
4, 69592, Note_on_c, 1, 31, 0
4, 69696, Note_on_c, 1, 31, 127
4, 69780, Note_on_c, 1, 31, 0
4, 69888, Note_on_c, 1, 31, 122
4, 70200, Note_on_c, 1, 31, 0
4, 70272, Note_on_c, 1, 31, 122
4, 70448, Note_on_c, 1, 31, 0
4, 70464, Note_on_c, 1, 30, 127
4, 70656, Note_on_c, 1, 30, 0
4, 70656, Note_on_c, 1, 29, 127
4, 71104, Note_on_c, 1, 29, 0
4, 71232, Note_on_c, 1, 29, 127
4, 71300, Note_on_c, 1, 29, 0
4, 71424, Note_on_c, 1, 29, 127
4, 71800, Note_on_c, 1, 29, 0
4, 71808, Note_on_c, 1, 36, 127
4, 71996, Note_on_c, 1, 36, 0
4, 72000, Note_on_c, 1, 29, 122
4, 72188, Note_on_c, 1, 29, 0
4, 72192, Note_on_c, 1, 31, 122
4, 72264, Note_on_c, 1, 31, 0
4, 72384, Note_on_c, 1, 31, 116
4, 72456, Note_on_c, 1, 31, 0
4, 72576, Note_on_c, 1, 31, 122
4, 72876, Note_on_c, 1, 31, 0
4, 72960, Note_on_c, 1, 31, 127
4, 73124, Note_on_c, 1, 31, 0
4, 73152, Note_on_c, 1, 38, 127
4, 73504, Note_on_c, 1, 38, 0
4, 73536, Note_on_c, 1, 30, 127
4, 73728, Note_on_c, 1, 30, 0
4, 73728, Note_on_c, 1, 29, 122
4, 74188, Note_on_c, 1, 29, 0
4, 74304, Note_on_c, 1, 29, 127
4, 74380, Note_on_c, 1, 29, 0
4, 74496, Note_on_c, 1, 29, 127
4, 74980, Note_on_c, 1, 29, 0
4, 75072, Note_on_c, 1, 29, 127
4, 75264, Note_on_c, 1, 31, 127
4, 75276, Note_on_c, 1, 29, 0
4, 75732, Note_on_c, 1, 31, 0
4, 75840, Note_on_c, 1, 31, 127
4, 75920, Note_on_c, 1, 31, 0
4, 76032, Note_on_c, 1, 31, 127
4, 76528, Note_on_c, 1, 31, 0
4, 76608, Note_on_c, 1, 31, 122
4, 76800, Note_on_c, 1, 31, 0
4, 76800, Note_on_c, 1, 29, 122
4, 77260, Note_on_c, 1, 29, 0
4, 77376, Note_on_c, 1, 29, 127
4, 77452, Note_on_c, 1, 29, 0
4, 77568, Note_on_c, 1, 29, 127
4, 78052, Note_on_c, 1, 29, 0
4, 78144, Note_on_c, 1, 29, 127
4, 78336, Note_on_c, 1, 31, 127
4, 78348, Note_on_c, 1, 29, 0
4, 78804, Note_on_c, 1, 31, 0
4, 78912, Note_on_c, 1, 31, 127
4, 78992, Note_on_c, 1, 31, 0
4, 79104, Note_on_c, 1, 31, 127
4, 79600, Note_on_c, 1, 31, 0
4, 79680, Note_on_c, 1, 31, 122
4, 79872, Note_on_c, 1, 31, 0
4, 79872, Note_on_c, 1, 29, 122
4, 80332, Note_on_c, 1, 29, 0
4, 80448, Note_on_c, 1, 29, 127
4, 80524, Note_on_c, 1, 29, 0
4, 80640, Note_on_c, 1, 29, 127
4, 81124, Note_on_c, 1, 29, 0
4, 81216, Note_on_c, 1, 29, 127
4, 81408, Note_on_c, 1, 31, 127
4, 81420, Note_on_c, 1, 29, 0
4, 81876, Note_on_c, 1, 31, 0
4, 81984, Note_on_c, 1, 31, 127
4, 82064, Note_on_c, 1, 31, 0
4, 82176, Note_on_c, 1, 31, 127
4, 82672, Note_on_c, 1, 31, 0
4, 82752, Note_on_c, 1, 31, 122
4, 82944, Note_on_c, 1, 31, 0
4, 82944, Note_on_c, 1, 29, 127
4, 83408, Note_on_c, 1, 29, 0
4, 83520, Note_on_c, 1, 29, 122
4, 83592, Note_on_c, 1, 29, 0
4, 83712, Note_on_c, 1, 29, 127
4, 84464, Note_on_c, 1, 29, 0
4, 84480, Note_on_c, 1, 43, 127
4, 85748, Note_on_c, 1, 43, 0
4, 85824, Note_on_c, 1, 43, 127
4, 86976, Note_on_c, 1, 36, 127
4, 86984, Note_on_c, 1, 43, 0
4, 87156, Note_on_c, 1, 36, 0
4, 87168, Note_on_c, 1, 38, 119
4, 87360, Note_on_c, 1, 41, 127
4, 87376, Note_on_c, 1, 38, 0
4, 88692, Note_on_c, 1, 41, 0
4, 88704, Note_on_c, 1, 43, 122
4, 88820, Pitch_bend_c, 1, 8357
4, 88828, Pitch_bend_c, 1, 8853
4, 88840, Pitch_bend_c, 1, 9267
4, 88852, Pitch_bend_c, 1, 9681
4, 88864, Pitch_bend_c, 1, 10012
4, 88876, Pitch_bend_c, 1, 10343
4, 88884, Pitch_bend_c, 1, 10756
4, 88896, Pitch_bend_c, 1, 11087
4, 88908, Pitch_bend_c, 1, 11584
4, 88920, Pitch_bend_c, 1, 12080
4, 88928, Pitch_bend_c, 1, 12576
4, 88940, Pitch_bend_c, 1, 13238
4, 88952, Pitch_bend_c, 1, 14066
4, 88964, Pitch_bend_c, 1, 14810
4, 88972, Pitch_bend_c, 1, 15720
4, 88984, Pitch_bend_c, 1, 16383
4, 89064, Note_on_c, 1, 43, 0
4, 89084, Pitch_bend_c, 1, 14231
4, 89088, Pitch_bend_c, 1, 8192
4, 89088, Note_on_c, 1, 33, 127
4, 90412, Note_on_c, 1, 33, 0
4, 90432, Note_on_c, 1, 43, 127
4, 91560, Note_on_c, 1, 43, 0
4, 91584, Note_on_c, 1, 38, 122
4, 91776, Note_on_c, 1, 40, 122
4, 91780, Note_on_c, 1, 38, 0
4, 91968, Note_on_c, 1, 43, 122
4, 91984, Note_on_c, 1, 40, 0
4, 93120, Note_on_c, 1, 45, 116
4, 93128, Note_on_c, 1, 43, 0
4, 93312, Note_on_c, 1, 43, 119
4, 93344, Note_on_c, 1, 45, 0
4, 93492, Note_on_c, 1, 43, 0
4, 93504, Note_on_c, 1, 41, 122
4, 94840, Note_on_c, 1, 41, 0
4, 94848, Note_on_c, 1, 33, 127
4, 95040, Note_on_c, 1, 36, 122
4, 95044, Note_on_c, 1, 33, 0
4, 95224, Note_on_c, 1, 36, 0
4, 95232, Note_on_c, 1, 29, 122
4, 95692, Note_on_c, 1, 29, 0
4, 95808, Note_on_c, 1, 29, 127
4, 95884, Note_on_c, 1, 29, 0
4, 96000, Note_on_c, 1, 29, 127
4, 96484, Note_on_c, 1, 29, 0
4, 96576, Note_on_c, 1, 29, 127
4, 96768, Note_on_c, 1, 31, 127
4, 96780, Note_on_c, 1, 29, 0
4, 97236, Note_on_c, 1, 31, 0
4, 97344, Note_on_c, 1, 31, 127
4, 97424, Note_on_c, 1, 31, 0
4, 97536, Note_on_c, 1, 31, 127
4, 98032, Note_on_c, 1, 31, 0
4, 98112, Note_on_c, 1, 31, 122
4, 98304, Note_on_c, 1, 31, 0
4, 98304, Note_on_c, 1, 29, 122
4, 98764, Note_on_c, 1, 29, 0
4, 98880, Note_on_c, 1, 29, 127
4, 98956, Note_on_c, 1, 29, 0
4, 99072, Note_on_c, 1, 29, 127
4, 99556, Note_on_c, 1, 29, 0
4, 99648, Note_on_c, 1, 29, 127
4, 99840, Note_on_c, 1, 31, 127
4, 99852, Note_on_c, 1, 29, 0
4, 100308, Note_on_c, 1, 31, 0
4, 100416, Note_on_c, 1, 31, 127
4, 100496, Note_on_c, 1, 31, 0
4, 100608, Note_on_c, 1, 31, 127
4, 101104, Note_on_c, 1, 31, 0
4, 101184, Note_on_c, 1, 31, 122
4, 101376, Note_on_c, 1, 31, 0
4, 101376, Note_on_c, 1, 29, 122
4, 101836, Note_on_c, 1, 29, 0
4, 101952, Note_on_c, 1, 29, 127
4, 102028, Note_on_c, 1, 29, 0
4, 102144, Note_on_c, 1, 29, 127
4, 102628, Note_on_c, 1, 29, 0
4, 102720, Note_on_c, 1, 29, 127
4, 102912, Note_on_c, 1, 29, 0
4, 102912, Note_on_c, 1, 31, 122
4, 103384, Note_on_c, 1, 31, 0
4, 103488, Note_on_c, 1, 31, 116
4, 103556, Note_on_c, 1, 31, 0
4, 103680, Note_on_c, 1, 31, 119
4, 104064, Note_on_c, 1, 38, 122
4, 104068, Note_on_c, 1, 31, 0
4, 104256, Note_on_c, 1, 31, 127
4, 104260, Note_on_c, 1, 38, 0
4, 104444, Note_on_c, 1, 31, 0
4, 104448, Note_on_c, 1, 29, 127
4, 104912, Note_on_c, 1, 29, 0
4, 105024, Note_on_c, 1, 29, 122
4, 105096, Note_on_c, 1, 29, 0
4, 105216, Note_on_c, 1, 29, 127
4, 105600, Note_on_c, 1, 36, 127
4, 105616, Note_on_c, 1, 29, 0
4, 105780, Note_on_c, 1, 36, 0
4, 105792, Note_on_c, 1, 29, 127
4, 105972, Note_on_c, 1, 29, 0
4, 105984, Note_on_c, 1, 31, 122
4, 105984, Note_on_c, 1, 29, 78
4, 106008, Note_on_c, 1, 29, 0
4, 106440, Note_on_c, 1, 31, 0
4, 106560, Note_on_c, 1, 31, 122
4, 106640, Note_on_c, 1, 31, 0
4, 106752, Note_on_c, 1, 31, 119
4, 106940, Note_on_c, 1, 31, 0
4, 106944, Note_on_c, 1, 38, 127
4, 107312, Note_on_c, 1, 38, 0
4, 107328, Note_on_c, 1, 31, 122
4, 107520, Note_on_c, 1, 31, 0
4, 107520, Note_on_c, 1, 29, 122
4, 107980, Note_on_c, 1, 29, 0
4, 108096, Note_on_c, 1, 29, 127
4, 108172, Note_on_c, 1, 29, 0
4, 108288, Note_on_c, 1, 29, 127
4, 108772, Note_on_c, 1, 29, 0
4, 108864, Note_on_c, 1, 29, 127
4, 109056, Note_on_c, 1, 31, 127
4, 109068, Note_on_c, 1, 29, 0
4, 109524, Note_on_c, 1, 31, 0
4, 109632, Note_on_c, 1, 31, 127
4, 109712, Note_on_c, 1, 31, 0
4, 109824, Note_on_c, 1, 31, 127
4, 110320, Note_on_c, 1, 31, 0
4, 110400, Note_on_c, 1, 31, 122
4, 110592, Note_on_c, 1, 31, 0
4, 110592, Note_on_c, 1, 29, 127
4, 110780, Note_on_c, 1, 29, 0
4, 110976, Note_on_c, 1, 36, 127
4, 111136, Note_on_c, 1, 36, 0
4, 111168, Note_on_c, 1, 29, 127
4, 111352, Note_on_c, 1, 29, 0
4, 111552, Note_on_c, 1, 36, 127
4, 111724, Note_on_c, 1, 36, 0
4, 111744, Note_on_c, 1, 29, 127
4, 111936, Note_on_c, 1, 30, 127
4, 111960, Note_on_c, 1, 29, 0
4, 112128, Note_on_c, 1, 30, 0
4, 112128, Note_on_c, 1, 31, 119
4, 112560, Note_on_c, 1, 31, 0
4, 112704, Note_on_c, 1, 31, 119
4, 112780, Note_on_c, 1, 31, 0
4, 112896, Note_on_c, 1, 31, 127
4, 113084, Note_on_c, 1, 31, 0
4, 113088, Note_on_c, 1, 38, 122
4, 113452, Note_on_c, 1, 38, 0
4, 113472, Note_on_c, 1, 30, 127
4, 113664, Note_on_c, 1, 30, 0
4, 113664, Note_on_c, 1, 29, 122
4, 114124, Note_on_c, 1, 29, 0
4, 114240, Note_on_c, 1, 29, 127
4, 114316, Note_on_c, 1, 29, 0
4, 114432, Note_on_c, 1, 29, 127
4, 114916, Note_on_c, 1, 29, 0
4, 115008, Note_on_c, 1, 29, 127
4, 115200, Note_on_c, 1, 31, 127
4, 115212, Note_on_c, 1, 29, 0
4, 115668, Note_on_c, 1, 31, 0
4, 115776, Note_on_c, 1, 31, 127
4, 115856, Note_on_c, 1, 31, 0
4, 115968, Note_on_c, 1, 31, 127
4, 116464, Note_on_c, 1, 31, 0
4, 116544, Note_on_c, 1, 31, 122
4, 116736, Note_on_c, 1, 31, 0
4, 116736, Note_on_c, 1, 29, 122
4, 117196, Note_on_c, 1, 29, 0
4, 117312, Note_on_c, 1, 29, 127
4, 117388, Note_on_c, 1, 29, 0
4, 117504, Note_on_c, 1, 29, 127
4, 117988, Note_on_c, 1, 29, 0
4, 118080, Note_on_c, 1, 29, 127
4, 118272, Note_on_c, 1, 31, 127
4, 118284, Note_on_c, 1, 29, 0
4, 118740, Note_on_c, 1, 31, 0
4, 118848, Note_on_c, 1, 31, 127
4, 118928, Note_on_c, 1, 31, 0
4, 119040, Note_on_c, 1, 31, 127
4, 119536, Note_on_c, 1, 31, 0
4, 119616, Note_on_c, 1, 38, 122
4, 119808, Note_on_c, 1, 38, 0
4, 119808, Note_on_c, 1, 29, 122
4, 120268, Note_on_c, 1, 29, 0
4, 120384, Note_on_c, 1, 29, 127
4, 120460, Note_on_c, 1, 29, 0
4, 120576, Note_on_c, 1, 29, 127
4, 121060, Note_on_c, 1, 29, 0
4, 121152, Note_on_c, 1, 29, 127
4, 121344, Note_on_c, 1, 31, 127
4, 121356, Note_on_c, 1, 29, 0
4, 121812, Note_on_c, 1, 31, 0
4, 121920, Note_on_c, 1, 31, 127
4, 122000, Note_on_c, 1, 31, 0
4, 122112, Note_on_c, 1, 31, 127
4, 122608, Note_on_c, 1, 31, 0
4, 122688, Note_on_c, 1, 31, 122
4, 122880, Note_on_c, 1, 31, 0
4, 122880, Note_on_c, 1, 29, 122
4, 123340, Note_on_c, 1, 29, 0
4, 123456, Note_on_c, 1, 29, 127
4, 123532, Note_on_c, 1, 29, 0
4, 123648, Note_on_c, 1, 29, 127
4, 124132, Note_on_c, 1, 29, 0
4, 124224, Note_on_c, 1, 29, 127
4, 124416, Note_on_c, 1, 31, 127
4, 124428, Note_on_c, 1, 29, 0
4, 124884, Note_on_c, 1, 31, 0
4, 124992, Note_on_c, 1, 31, 127
4, 125072, Note_on_c, 1, 31, 0
4, 125184, Note_on_c, 1, 31, 127
4, 125680, Note_on_c, 1, 31, 0
4, 125760, Note_on_c, 1, 31, 122
4, 125952, Note_on_c, 1, 31, 0
4, 125952, Note_on_c, 1, 29, 127
4, 126408, Note_on_c, 1, 29, 0
4, 126528, Note_on_c, 1, 29, 127
4, 126600, Note_on_c, 1, 29, 0
4, 126720, Note_on_c, 1, 29, 127
4, 127104, Note_on_c, 1, 36, 127
4, 127108, Note_on_c, 1, 29, 0
4, 127280, Note_on_c, 1, 36, 0
4, 127296, Note_on_c, 1, 29, 122
4, 127488, Note_on_c, 1, 31, 119
4, 127508, Note_on_c, 1, 29, 0
4, 127920, Note_on_c, 1, 31, 0
4, 128064, Note_on_c, 1, 31, 119
4, 128140, Note_on_c, 1, 31, 0
4, 128256, Note_on_c, 1, 31, 127
4, 128444, Note_on_c, 1, 31, 0
4, 128448, Note_on_c, 1, 38, 122
4, 128812, Note_on_c, 1, 38, 0
4, 128832, Note_on_c, 1, 30, 127
4, 129024, Note_on_c, 1, 30, 0
4, 129024, Note_on_c, 1, 29, 122
4, 129484, Note_on_c, 1, 29, 0
4, 129600, Note_on_c, 1, 29, 127
4, 129676, Note_on_c, 1, 29, 0
4, 129792, Note_on_c, 1, 29, 127
4, 130276, Note_on_c, 1, 29, 0
4, 130368, Note_on_c, 1, 29, 127
4, 130560, Note_on_c, 1, 29, 0
4, 130560, Note_on_c, 1, 31, 116
4, 131000, Note_on_c, 1, 31, 0
4, 131136, Note_on_c, 1, 31, 119
4, 131212, Note_on_c, 1, 31, 0
4, 131328, Note_on_c, 1, 31, 122
4, 131520, Note_on_c, 1, 38, 127
4, 131544, Note_on_c, 1, 31, 0
4, 131700, Note_on_c, 1, 38, 0
4, 131712, Note_on_c, 1, 31, 116
4, 131896, Note_on_c, 1, 31, 0
4, 131904, Note_on_c, 1, 30, 127
4, 132096, Note_on_c, 1, 30, 0
4, 132096, Note_on_c, 1, 29, 122
4, 132556, Note_on_c, 1, 29, 0
4, 132672, Note_on_c, 1, 29, 127
4, 132748, Note_on_c, 1, 29, 0
4, 132864, Note_on_c, 1, 29, 127
4, 133348, Note_on_c, 1, 29, 0
4, 133440, Note_on_c, 1, 29, 127
4, 133632, Note_on_c, 1, 31, 127
4, 133644, Note_on_c, 1, 29, 0
4, 134100, Note_on_c, 1, 31, 0
4, 134208, Note_on_c, 1, 31, 127
4, 134288, Note_on_c, 1, 31, 0
4, 134400, Note_on_c, 1, 31, 127
4, 134896, Note_on_c, 1, 31, 0
4, 134976, Note_on_c, 1, 31, 122
4, 135168, Note_on_c, 1, 31, 0
4, 135168, Note_on_c, 1, 29, 122
4, 135628, Note_on_c, 1, 29, 0
4, 135744, Note_on_c, 1, 29, 127
4, 135820, Note_on_c, 1, 29, 0
4, 135936, Note_on_c, 1, 29, 127
4, 136420, Note_on_c, 1, 29, 0
4, 136512, Note_on_c, 1, 29, 127
4, 136704, Note_on_c, 1, 31, 127
4, 136716, Note_on_c, 1, 29, 0
4, 137172, Note_on_c, 1, 31, 0
4, 137280, Note_on_c, 1, 31, 127
4, 137360, Note_on_c, 1, 31, 0
4, 137472, Note_on_c, 1, 31, 127
4, 137968, Note_on_c, 1, 31, 0
4, 138048, Note_on_c, 1, 31, 122
4, 138240, Note_on_c, 1, 31, 0
4, 138240, Note_on_c, 1, 29, 122
4, 138700, Note_on_c, 1, 29, 0
4, 138816, Note_on_c, 1, 29, 127
4, 138892, Note_on_c, 1, 29, 0
4, 139008, Note_on_c, 1, 29, 127
4, 139492, Note_on_c, 1, 29, 0
4, 139584, Note_on_c, 1, 29, 127
4, 139776, Note_on_c, 1, 31, 127
4, 139788, Note_on_c, 1, 29, 0
4, 140244, Note_on_c, 1, 31, 0
4, 140352, Note_on_c, 1, 31, 127
4, 140432, Note_on_c, 1, 31, 0
4, 140544, Note_on_c, 1, 31, 127
4, 141040, Note_on_c, 1, 31, 0
4, 141120, Note_on_c, 1, 31, 122
4, 141312, Note_on_c, 1, 31, 0
4, 141312, Note_on_c, 1, 29, 122
4, 141772, Note_on_c, 1, 29, 0
4, 141888, Note_on_c, 1, 29, 127
4, 141964, Note_on_c, 1, 29, 0
4, 142080, Note_on_c, 1, 29, 127
4, 142564, Note_on_c, 1, 29, 0
4, 142656, Note_on_c, 1, 29, 127
4, 142848, Note_on_c, 1, 31, 127
4, 142860, Note_on_c, 1, 29, 0
4, 143316, Note_on_c, 1, 31, 0
4, 143424, Note_on_c, 1, 31, 127
4, 143504, Note_on_c, 1, 31, 0
4, 143616, Note_on_c, 1, 31, 127
4, 144112, Note_on_c, 1, 31, 0
4, 144192, Note_on_c, 1, 31, 122
4, 144384, Note_on_c, 1, 31, 0
4, 144384, Note_on_c, 1, 29, 122
4, 144844, Note_on_c, 1, 29, 0
4, 144960, Note_on_c, 1, 29, 127
4, 145036, Note_on_c, 1, 29, 0
4, 145152, Note_on_c, 1, 29, 127
4, 145636, Note_on_c, 1, 29, 0
4, 145728, Note_on_c, 1, 29, 127
4, 145920, Note_on_c, 1, 29, 0
4, 145920, Note_on_c, 1, 31, 119
4, 146408, Note_on_c, 1, 31, 0
4, 146496, Note_on_c, 1, 31, 122
4, 146676, Note_on_c, 1, 31, 0
4, 146688, Note_on_c, 1, 31, 123
4, 146748, Note_on_c, 1, 31, 0
4, 146880, Note_on_c, 1, 31, 123
4, 146952, Note_on_c, 1, 31, 0
4, 147072, Note_on_c, 1, 31, 123
4, 147148, Note_on_c, 1, 31, 0
4, 147264, Note_on_c, 1, 31, 123
4, 147368, Note_on_c, 1, 31, 0
4, 147456, Note_on_c, 1, 29, 122
4, 147916, Note_on_c, 1, 29, 0
4, 148032, Note_on_c, 1, 29, 127
4, 148108, Note_on_c, 1, 29, 0
4, 148224, Note_on_c, 1, 29, 127
4, 148708, Note_on_c, 1, 29, 0
4, 148800, Note_on_c, 1, 29, 127
4, 148992, Note_on_c, 1, 29, 0
4, 148992, Note_on_c, 1, 31, 119
4, 149464, Note_on_c, 1, 31, 0
4, 149568, Note_on_c, 1, 31, 127
4, 149652, Note_on_c, 1, 31, 0
4, 149760, Note_on_c, 1, 31, 122
4, 150072, Note_on_c, 1, 31, 0
4, 150144, Note_on_c, 1, 31, 122
4, 150320, Note_on_c, 1, 31, 0
4, 150336, Note_on_c, 1, 30, 127
4, 150528, Note_on_c, 1, 30, 0
4, 150528, Note_on_c, 1, 29, 127
4, 150976, Note_on_c, 1, 29, 0
4, 151104, Note_on_c, 1, 29, 127
4, 151172, Note_on_c, 1, 29, 0
4, 151296, Note_on_c, 1, 29, 127
4, 151672, Note_on_c, 1, 29, 0
4, 151680, Note_on_c, 1, 36, 127
4, 151868, Note_on_c, 1, 36, 0
4, 151872, Note_on_c, 1, 29, 122
4, 152060, Note_on_c, 1, 29, 0
4, 152064, Note_on_c, 1, 31, 122
4, 152136, Note_on_c, 1, 31, 0
4, 152256, Note_on_c, 1, 31, 116
4, 152328, Note_on_c, 1, 31, 0
4, 152448, Note_on_c, 1, 31, 122
4, 152748, Note_on_c, 1, 31, 0
4, 152832, Note_on_c, 1, 31, 127
4, 152996, Note_on_c, 1, 31, 0
4, 153024, Note_on_c, 1, 38, 127
4, 153376, Note_on_c, 1, 38, 0
4, 153408, Note_on_c, 1, 30, 127
4, 153600, Note_on_c, 1, 30, 0
4, 153600, Note_on_c, 1, 29, 122
4, 154060, Note_on_c, 1, 29, 0
4, 154176, Note_on_c, 1, 29, 127
4, 154252, Note_on_c, 1, 29, 0
4, 154368, Note_on_c, 1, 29, 127
4, 154852, Note_on_c, 1, 29, 0
4, 154944, Note_on_c, 1, 29, 127
4, 155136, Note_on_c, 1, 31, 127
4, 155148, Note_on_c, 1, 29, 0
4, 155604, Note_on_c, 1, 31, 0
4, 155712, Note_on_c, 1, 31, 127
4, 155792, Note_on_c, 1, 31, 0
4, 155904, Note_on_c, 1, 31, 127
4, 156400, Note_on_c, 1, 31, 0
4, 156480, Note_on_c, 1, 31, 122
4, 156672, Note_on_c, 1, 31, 0
4, 156672, Note_on_c, 1, 29, 122
4, 157132, Note_on_c, 1, 29, 0
4, 157248, Note_on_c, 1, 29, 127
4, 157324, Note_on_c, 1, 29, 0
4, 157440, Note_on_c, 1, 29, 127
4, 157924, Note_on_c, 1, 29, 0
4, 158016, Note_on_c, 1, 29, 127
4, 158208, Note_on_c, 1, 31, 127
4, 158220, Note_on_c, 1, 29, 0
4, 158676, Note_on_c, 1, 31, 0
4, 158784, Note_on_c, 1, 31, 127
4, 158864, Note_on_c, 1, 31, 0
4, 158976, Note_on_c, 1, 31, 127
4, 159472, Note_on_c, 1, 31, 0
4, 159552, Note_on_c, 1, 31, 122
4, 159744, Note_on_c, 1, 31, 0
4, 159744, Note_on_c, 1, 29, 122
4, 160204, Note_on_c, 1, 29, 0
4, 160320, Note_on_c, 1, 29, 127
4, 160396, Note_on_c, 1, 29, 0
4, 160512, Note_on_c, 1, 29, 127
4, 160996, Note_on_c, 1, 29, 0
4, 161088, Note_on_c, 1, 29, 127
4, 161280, Note_on_c, 1, 31, 127
4, 161292, Note_on_c, 1, 29, 0
4, 161748, Note_on_c, 1, 31, 0
4, 161856, Note_on_c, 1, 31, 127
4, 161936, Note_on_c, 1, 31, 0
4, 162048, Note_on_c, 1, 31, 127
4, 162544, Note_on_c, 1, 31, 0
4, 162624, Note_on_c, 1, 31, 122
4, 162816, Note_on_c, 1, 31, 0
4, 162816, Note_on_c, 1, 29, 122
4, 163276, Note_on_c, 1, 29, 0
4, 163392, Note_on_c, 1, 29, 127
4, 163468, Note_on_c, 1, 29, 0
4, 163584, Note_on_c, 1, 29, 127
4, 164068, Note_on_c, 1, 29, 0
4, 164160, Note_on_c, 1, 29, 127
4, 164352, Note_on_c, 1, 31, 127
4, 164364, Note_on_c, 1, 29, 0
4, 164820, Note_on_c, 1, 31, 0
4, 164928, Note_on_c, 1, 31, 127
4, 165008, Note_on_c, 1, 31, 0
4, 165120, Note_on_c, 1, 31, 127
4, 165616, Note_on_c, 1, 31, 0
4, 165696, Note_on_c, 1, 31, 122
4, 165888, Note_on_c, 1, 31, 0
4, 165888, Note_on_c, 1, 29, 122
4, 166348, Note_on_c, 1, 29, 0
4, 166464, Note_on_c, 1, 29, 127
4, 166540, Note_on_c, 1, 29, 0
4, 166656, Note_on_c, 1, 29, 127
4, 167140, Note_on_c, 1, 29, 0
4, 167232, Note_on_c, 1, 29, 127
4, 167424, Note_on_c, 1, 31, 127
4, 167436, Note_on_c, 1, 29, 0
4, 167892, Note_on_c, 1, 31, 0
4, 168000, Note_on_c, 1, 31, 127
4, 168080, Note_on_c, 1, 31, 0
4, 168192, Note_on_c, 1, 31, 127
4, 168688, Note_on_c, 1, 31, 0
4, 168768, Note_on_c, 1, 31, 122
4, 168960, Note_on_c, 1, 31, 0
4, 168960, Note_on_c, 1, 29, 122
4, 169420, Note_on_c, 1, 29, 0
4, 169536, Note_on_c, 1, 29, 127
4, 169612, Note_on_c, 1, 29, 0
4, 169728, Note_on_c, 1, 29, 127
4, 170212, Note_on_c, 1, 29, 0
4, 170304, Note_on_c, 1, 29, 127
4, 170496, Note_on_c, 1, 29, 0
4, 170496, Note_on_c, 1, 31, 119
4, 170984, Note_on_c, 1, 31, 0
4, 171072, Note_on_c, 1, 31, 122
4, 171252, Note_on_c, 1, 31, 0
4, 171264, Note_on_c, 1, 31, 123
4, 171324, Note_on_c, 1, 31, 0
4, 171456, Note_on_c, 1, 31, 123
4, 171528, Note_on_c, 1, 31, 0
4, 171648, Note_on_c, 1, 31, 123
4, 171724, Note_on_c, 1, 31, 0
4, 171840, Note_on_c, 1, 31, 123
4, 171944, Note_on_c, 1, 31, 0
4, 172032, Note_on_c, 1, 29, 122
4, 172492, Note_on_c, 1, 29, 0
4, 172608, Note_on_c, 1, 29, 127
4, 172684, Note_on_c, 1, 29, 0
4, 172800, Note_on_c, 1, 29, 127
4, 173284, Note_on_c, 1, 29, 0
4, 173376, Note_on_c, 1, 29, 127
4, 173568, Note_on_c, 1, 29, 0
4, 173568, Note_on_c, 1, 31, 119
4, 174040, Note_on_c, 1, 31, 0
4, 174144, Note_on_c, 1, 31, 127
4, 174228, Note_on_c, 1, 31, 0
4, 174336, Note_on_c, 1, 31, 122
4, 174648, Note_on_c, 1, 31, 0
4, 174720, Note_on_c, 1, 31, 122
4, 174896, Note_on_c, 1, 31, 0
4, 174912, Note_on_c, 1, 30, 127
4, 175104, Note_on_c, 1, 30, 0
4, 175104, Note_on_c, 1, 29, 127
4, 175552, Note_on_c, 1, 29, 0
4, 175680, Note_on_c, 1, 29, 127
4, 175748, Note_on_c, 1, 29, 0
4, 175872, Note_on_c, 1, 29, 127
4, 176248, Note_on_c, 1, 29, 0
4, 176256, Note_on_c, 1, 36, 127
4, 176444, Note_on_c, 1, 36, 0
4, 176448, Note_on_c, 1, 29, 122
4, 176636, Note_on_c, 1, 29, 0
4, 176640, Note_on_c, 1, 31, 122
4, 176712, Note_on_c, 1, 31, 0
4, 176832, Note_on_c, 1, 31, 116
4, 176904, Note_on_c, 1, 31, 0
4, 177024, Note_on_c, 1, 31, 122
4, 177324, Note_on_c, 1, 31, 0
4, 177408, Note_on_c, 1, 31, 127
4, 177572, Note_on_c, 1, 31, 0
4, 177600, Note_on_c, 1, 38, 127
4, 177952, Note_on_c, 1, 38, 0
4, 177984, Note_on_c, 1, 30, 127
4, 178176, Note_on_c, 1, 30, 0
4, 178176, Note_on_c, 1, 29, 122
4, 178636, Note_on_c, 1, 29, 0
4, 178752, Note_on_c, 1, 29, 127
4, 178828, Note_on_c, 1, 29, 0
4, 178944, Note_on_c, 1, 29, 127
4, 179428, Note_on_c, 1, 29, 0
4, 179520, Note_on_c, 1, 29, 127
4, 179712, Note_on_c, 1, 31, 127
4, 179724, Note_on_c, 1, 29, 0
4, 180180, Note_on_c, 1, 31, 0
4, 180288, Note_on_c, 1, 31, 127
4, 180368, Note_on_c, 1, 31, 0
4, 180480, Note_on_c, 1, 31, 127
4, 180976, Note_on_c, 1, 31, 0
4, 181056, Note_on_c, 1, 31, 122
4, 181248, Note_on_c, 1, 31, 0
4, 181248, Note_on_c, 1, 29, 122
4, 181708, Note_on_c, 1, 29, 0
4, 181824, Note_on_c, 1, 29, 127
4, 181900, Note_on_c, 1, 29, 0
4, 182016, Note_on_c, 1, 29, 127
4, 182500, Note_on_c, 1, 29, 0
4, 182592, Note_on_c, 1, 29, 127
4, 182784, Note_on_c, 1, 31, 127
4, 182796, Note_on_c, 1, 29, 0
4, 183252, Note_on_c, 1, 31, 0
4, 183360, Note_on_c, 1, 31, 127
4, 183440, Note_on_c, 1, 31, 0
4, 183552, Note_on_c, 1, 31, 127
4, 184048, Note_on_c, 1, 31, 0
4, 184128, Note_on_c, 1, 31, 122
4, 184320, Note_on_c, 1, 31, 0
4, 184320, Note_on_c, 1, 29, 122
4, 184780, Note_on_c, 1, 29, 0
4, 184896, Note_on_c, 1, 29, 127
4, 184972, Note_on_c, 1, 29, 0
4, 185088, Note_on_c, 1, 29, 127
4, 185572, Note_on_c, 1, 29, 0
4, 185664, Note_on_c, 1, 29, 127
4, 185856, Note_on_c, 1, 31, 127
4, 185868, Note_on_c, 1, 29, 0
4, 186324, Note_on_c, 1, 31, 0
4, 186432, Note_on_c, 1, 31, 127
4, 186512, Note_on_c, 1, 31, 0
4, 186624, Note_on_c, 1, 31, 127
4, 187120, Note_on_c, 1, 31, 0
4, 187200, Note_on_c, 1, 31, 122
4, 187392, Note_on_c, 1, 31, 0
4, 187392, Note_on_c, 1, 29, 122
4, 187852, Note_on_c, 1, 29, 0
4, 187968, Note_on_c, 1, 29, 127
4, 188044, Note_on_c, 1, 29, 0
4, 188160, Note_on_c, 1, 29, 127
4, 188644, Note_on_c, 1, 29, 0
4, 188736, Note_on_c, 1, 29, 127
4, 188928, Note_on_c, 1, 31, 127
4, 188940, Note_on_c, 1, 29, 0
4, 189396, Note_on_c, 1, 31, 0
4, 189504, Note_on_c, 1, 31, 127
4, 189584, Note_on_c, 1, 31, 0
4, 189696, Note_on_c, 1, 31, 127
4, 190192, Note_on_c, 1, 31, 0
4, 190272, Note_on_c, 1, 31, 122
4, 190464, Note_on_c, 1, 31, 0
4, 190464, Note_on_c, 1, 29, 122
4, 190924, Note_on_c, 1, 29, 0
4, 191040, Note_on_c, 1, 29, 127
4, 191116, Note_on_c, 1, 29, 0
4, 191232, Note_on_c, 1, 29, 127
4, 191716, Note_on_c, 1, 29, 0
4, 191808, Note_on_c, 1, 29, 127
4, 192000, Note_on_c, 1, 31, 127
4, 192012, Note_on_c, 1, 29, 0
4, 192468, Note_on_c, 1, 31, 0
4, 192576, Note_on_c, 1, 31, 127
4, 192656, Note_on_c, 1, 31, 0
4, 192768, Note_on_c, 1, 31, 127
4, 193264, Note_on_c, 1, 31, 0
4, 193344, Note_on_c, 1, 30, 122
4, 193536, Note_on_c, 1, 30, 0
4, 193536, Note_on_c, 1, 29, 127
4, 198144, Note_on_c, 1, 29, 0
4, 198144, End_track
5, 0, Start_track
5, 0, MIDI_port, 0
5, 0, Title_t, "Keyboard"
5, 0, Control_c, 0, 32, 0
5, 0, Control_c, 2, 91, 80
5, 0, Control_c, 2, 93, 50
5, 672, Control_c, 2, 120, 0
5, 768, Control_c, 2, 121, 0
5, 960, Control_c, 2, 100, 0
5, 1056, Control_c, 2, 101, 0
5, 1152, Control_c, 2, 6, 2
5, 3068, Note_on_c, 2, 41, 95
5, 3452, Note_on_c, 2, 57, 100
5, 3452, Note_on_c, 2, 60, 94
5, 3452, Note_on_c, 2, 52, 112
5, 3536, Note_on_c, 2, 41, 0
5, 3648, Note_on_c, 2, 41, 94
5, 3700, Note_on_c, 2, 57, 0
5, 3700, Note_on_c, 2, 60, 0
5, 3716, Note_on_c, 2, 52, 0
5, 3736, Note_on_c, 2, 41, 0
5, 3844, Note_on_c, 2, 41, 102
5, 4228, Note_on_c, 2, 60, 94
5, 4228, Note_on_c, 2, 52, 108
5, 4228, Note_on_c, 2, 57, 100
5, 4280, Note_on_c, 2, 41, 0
5, 4416, Note_on_c, 2, 41, 88
5, 4492, Note_on_c, 2, 60, 0
5, 4492, Note_on_c, 2, 57, 0
5, 4492, Note_on_c, 2, 52, 0
5, 4504, Note_on_c, 2, 41, 0
5, 4612, Note_on_c, 2, 43, 102
5, 4800, Note_on_c, 2, 41, 95
5, 4812, Note_on_c, 2, 43, 0
5, 4992, Note_on_c, 2, 59, 90
5, 4992, Note_on_c, 2, 55, 92
5, 4992, Note_on_c, 2, 50, 108
5, 5124, Note_on_c, 2, 55, 0
5, 5140, Note_on_c, 2, 59, 0
5, 5148, Note_on_c, 2, 50, 0
5, 5184, Note_on_c, 2, 41, 0
5, 5368, Note_on_c, 2, 43, 106
5, 5380, Note_on_c, 2, 59, 91
5, 5380, Note_on_c, 2, 50, 106
5, 5380, Note_on_c, 2, 55, 98
5, 6040, Note_on_c, 2, 43, 0
5, 6104, Note_on_c, 2, 59, 0
5, 6104, Note_on_c, 2, 50, 0
5, 6104, Note_on_c, 2, 55, 0
5, 6144, Note_on_c, 2, 41, 94
5, 6524, Note_on_c, 2, 53, 102
5, 6524, Note_on_c, 2, 57, 94
5, 6524, Note_on_c, 2, 48, 100
5, 6596, Note_on_c, 2, 41, 0
5, 6716, Note_on_c, 2, 41, 94
5, 6728, Note_on_c, 2, 53, 0
5, 6728, Note_on_c, 2, 57, 0
5, 6744, Note_on_c, 2, 48, 0
5, 6796, Note_on_c, 2, 41, 0
5, 6912, Note_on_c, 2, 41, 97
5, 7296, Note_on_c, 2, 53, 110
5, 7296, Note_on_c, 2, 48, 112
5, 7296, Note_on_c, 2, 57, 106
5, 7320, Note_on_c, 2, 41, 0
5, 7484, Note_on_c, 2, 41, 76
5, 7508, Note_on_c, 2, 53, 0
5, 7508, Note_on_c, 2, 57, 0
5, 7508, Note_on_c, 2, 48, 0
5, 7656, Note_on_c, 2, 41, 0
5, 7672, Note_on_c, 2, 43, 97
5, 7868, Note_on_c, 2, 41, 100
5, 7900, Note_on_c, 2, 43, 0
5, 8068, Note_on_c, 2, 55, 94
5, 8068, Note_on_c, 2, 50, 102
5, 8068, Note_on_c, 2, 59, 87
5, 8148, Note_on_c, 2, 41, 0
5, 8152, Note_on_c, 2, 55, 0
5, 8152, Note_on_c, 2, 50, 0
5, 8152, Note_on_c, 2, 59, 0
5, 8448, Note_on_c, 2, 59, 97
5, 8448, Note_on_c, 2, 55, 104
5, 8448, Note_on_c, 2, 50, 114
5, 8448, Note_on_c, 2, 43, 112
5, 9116, Note_on_c, 2, 50, 0
5, 9124, Note_on_c, 2, 59, 0
5, 9124, Note_on_c, 2, 55, 0
5, 9180, Note_on_c, 2, 43, 0
5, 9208, Note_on_c, 2, 41, 91
5, 9604, Note_on_c, 2, 60, 97
5, 9604, Note_on_c, 2, 52, 108
5, 9604, Note_on_c, 2, 57, 102
5, 9688, Note_on_c, 2, 41, 0
5, 9792, Note_on_c, 2, 60, 0
5, 9792, Note_on_c, 2, 52, 0
5, 9792, Note_on_c, 2, 57, 0
5, 9792, Note_on_c, 2, 41, 92
5, 9872, Note_on_c, 2, 41, 0
5, 9984, Note_on_c, 2, 41, 100
5, 10364, Note_on_c, 2, 60, 97
5, 10364, Note_on_c, 2, 52, 112
5, 10364, Note_on_c, 2, 57, 106
5, 10420, Note_on_c, 2, 41, 0
5, 10556, Note_on_c, 2, 41, 97
5, 10600, Note_on_c, 2, 60, 0
5, 10600, Note_on_c, 2, 57, 0
5, 10600, Note_on_c, 2, 52, 0
5, 10748, Note_on_c, 2, 43, 100
5, 10780, Note_on_c, 2, 41, 0
5, 11132, Note_on_c, 2, 59, 85
5, 11132, Note_on_c, 2, 55, 100
5, 11132, Note_on_c, 2, 50, 108
5, 11212, Note_on_c, 2, 43, 0
5, 11240, Note_on_c, 2, 50, 0
5, 11240, Note_on_c, 2, 55, 0
5, 11256, Note_on_c, 2, 59, 0
5, 11328, Note_on_c, 2, 43, 84
5, 11396, Note_on_c, 2, 43, 0
5, 11516, Note_on_c, 2, 43, 100
5, 11520, Note_on_c, 2, 55, 106
5, 11520, Note_on_c, 2, 50, 110
5, 11520, Note_on_c, 2, 59, 92
5, 12000, Note_on_c, 2, 43, 0
5, 12092, Note_on_c, 2, 43, 87
5, 12208, Note_on_c, 2, 59, 0
5, 12224, Note_on_c, 2, 55, 0
5, 12224, Note_on_c, 2, 50, 0
5, 12288, Note_on_c, 2, 41, 95
5, 12312, Note_on_c, 2, 43, 0
5, 12668, Note_on_c, 2, 57, 92
5, 12668, Note_on_c, 2, 48, 108
5, 12668, Note_on_c, 2, 53, 106
5, 12740, Note_on_c, 2, 41, 0
5, 12868, Note_on_c, 2, 41, 85
5, 12904, Note_on_c, 2, 57, 0
5, 12904, Note_on_c, 2, 53, 0
5, 12920, Note_on_c, 2, 48, 0
5, 12936, Note_on_c, 2, 41, 0
5, 13056, Note_on_c, 2, 41, 95
5, 13444, Note_on_c, 2, 57, 102
5, 13444, Note_on_c, 2, 48, 110
5, 13444, Note_on_c, 2, 53, 110
5, 13524, Note_on_c, 2, 41, 0
5, 13632, Note_on_c, 2, 41, 88
5, 13648, Note_on_c, 2, 57, 0
5, 13648, Note_on_c, 2, 48, 0
5, 13660, Note_on_c, 2, 53, 0
5, 13780, Note_on_c, 2, 41, 0
5, 13820, Note_on_c, 2, 43, 94
5, 14204, Note_on_c, 2, 59, 90
5, 14204, Note_on_c, 2, 50, 102
5, 14208, Note_on_c, 2, 55, 95
5, 14304, Note_on_c, 2, 43, 0
5, 14308, Note_on_c, 2, 55, 0
5, 14328, Note_on_c, 2, 50, 0
5, 14328, Note_on_c, 2, 59, 0
5, 14404, Note_on_c, 2, 43, 90
5, 14472, Note_on_c, 2, 43, 0
5, 14592, Note_on_c, 2, 50, 108
5, 14592, Note_on_c, 2, 59, 104
5, 14592, Note_on_c, 2, 43, 102
5, 14596, Note_on_c, 2, 55, 104
5, 15052, Note_on_c, 2, 43, 0
5, 15172, Note_on_c, 2, 43, 104
5, 15264, Note_on_c, 2, 50, 0
5, 15264, Note_on_c, 2, 59, 0
5, 15268, Note_on_c, 2, 55, 0
5, 15360, Note_on_c, 2, 41, 95
5, 15388, Note_on_c, 2, 43, 0
5, 15748, Note_on_c, 2, 60, 98
5, 15748, Note_on_c, 2, 57, 104
5, 15748, Note_on_c, 2, 52, 112
5, 15820, Note_on_c, 2, 41, 0
5, 15920, Note_on_c, 2, 57, 0
5, 15932, Note_on_c, 2, 60, 0
5, 15932, Note_on_c, 2, 52, 0
5, 15936, Note_on_c, 2, 41, 80
5, 16008, Note_on_c, 2, 41, 0
5, 16128, Note_on_c, 2, 41, 95
5, 16504, Note_on_c, 2, 60, 97
5, 16504, Note_on_c, 2, 57, 106
5, 16504, Note_on_c, 2, 52, 112
5, 16576, Note_on_c, 2, 41, 0
5, 16696, Note_on_c, 2, 41, 88
5, 16748, Note_on_c, 2, 60, 0
5, 16748, Note_on_c, 2, 52, 0
5, 16748, Note_on_c, 2, 57, 0
5, 16896, Note_on_c, 2, 43, 102
5, 16932, Note_on_c, 2, 41, 0
5, 17280, Note_on_c, 2, 59, 90
5, 17280, Note_on_c, 2, 55, 98
5, 17280, Note_on_c, 2, 50, 112
5, 17356, Note_on_c, 2, 43, 0
5, 17392, Note_on_c, 2, 55, 0
5, 17404, Note_on_c, 2, 59, 0
5, 17404, Note_on_c, 2, 50, 0
5, 17476, Note_on_c, 2, 43, 92
5, 17540, Note_on_c, 2, 43, 0
5, 17664, Note_on_c, 2, 50, 110
5, 17664, Note_on_c, 2, 59, 100
5, 17664, Note_on_c, 2, 55, 106
5, 17668, Note_on_c, 2, 43, 110
5, 18324, Note_on_c, 2, 43, 0
5, 18424, Note_on_c, 2, 50, 0
5, 18424, Note_on_c, 2, 59, 0
5, 18424, Note_on_c, 2, 55, 0
5, 18428, Note_on_c, 2, 41, 90
5, 18816, Note_on_c, 2, 57, 97
5, 18816, Note_on_c, 2, 53, 106
5, 18816, Note_on_c, 2, 48, 106
5, 18864, Note_on_c, 2, 41, 0
5, 19004, Note_on_c, 2, 41, 92
5, 19020, Note_on_c, 2, 53, 0
5, 19028, Note_on_c, 2, 48, 0
5, 19028, Note_on_c, 2, 57, 0
5, 19096, Note_on_c, 2, 41, 0
5, 19204, Note_on_c, 2, 41, 97
5, 19584, Note_on_c, 2, 48, 110
5, 19584, Note_on_c, 2, 53, 108
5, 19584, Note_on_c, 2, 57, 94
5, 19616, Note_on_c, 2, 41, 0
5, 19716, Note_on_c, 2, 48, 0
5, 19724, Note_on_c, 2, 53, 0
5, 19732, Note_on_c, 2, 57, 0
5, 19772, Note_on_c, 2, 41, 92
5, 19968, Note_on_c, 2, 43, 102
5, 20000, Note_on_c, 2, 41, 0
5, 20348, Note_on_c, 2, 55, 94
5, 20348, Note_on_c, 2, 59, 87
5, 20348, Note_on_c, 2, 50, 102
5, 20400, Note_on_c, 2, 43, 0
5, 20492, Note_on_c, 2, 55, 0
5, 20492, Note_on_c, 2, 59, 0
5, 20492, Note_on_c, 2, 50, 0
5, 20540, Note_on_c, 2, 43, 102
5, 20612, Note_on_c, 2, 43, 0
5, 20736, Note_on_c, 2, 59, 98
5, 20736, Note_on_c, 2, 55, 102
5, 20736, Note_on_c, 2, 50, 114
5, 20736, Note_on_c, 2, 43, 106
5, 21376, Note_on_c, 2, 50, 0
5, 21376, Note_on_c, 2, 59, 0
5, 21384, Note_on_c, 2, 55, 0
5, 21500, Note_on_c, 2, 41, 95
5, 21524, Note_on_c, 2, 43, 0
5, 21884, Note_on_c, 2, 60, 92
5, 21884, Note_on_c, 2, 57, 98
5, 21884, Note_on_c, 2, 52, 112
5, 21924, Note_on_c, 2, 41, 0
5, 22076, Note_on_c, 2, 41, 91
5, 22080, Note_on_c, 2, 60, 0
5, 22080, Note_on_c, 2, 57, 0
5, 22096, Note_on_c, 2, 52, 0
5, 22180, Note_on_c, 2, 41, 0
5, 22272, Note_on_c, 2, 41, 98
5, 22656, Note_on_c, 2, 52, 108
5, 22656, Note_on_c, 2, 57, 102
5, 22656, Note_on_c, 2, 60, 100
5, 22732, Note_on_c, 2, 41, 0
5, 22836, Note_on_c, 2, 57, 0
5, 22844, Note_on_c, 2, 60, 0
5, 22852, Note_on_c, 2, 52, 0
5, 22852, Note_on_c, 2, 41, 100
5, 23044, Note_on_c, 2, 43, 100
5, 23080, Note_on_c, 2, 41, 0
5, 23428, Note_on_c, 2, 50, 98
5, 23428, Note_on_c, 2, 59, 80
5, 23428, Note_on_c, 2, 55, 87
5, 23460, Note_on_c, 2, 43, 0
5, 23532, Note_on_c, 2, 55, 0
5, 23532, Note_on_c, 2, 59, 0
5, 23548, Note_on_c, 2, 50, 0
5, 23616, Note_on_c, 2, 43, 100
5, 23688, Note_on_c, 2, 43, 0
5, 23804, Note_on_c, 2, 55, 104
5, 23804, Note_on_c, 2, 59, 104
5, 23804, Note_on_c, 2, 50, 112
5, 23804, Note_on_c, 2, 43, 102
5, 24524, Note_on_c, 2, 59, 0
5, 24532, Note_on_c, 2, 55, 0
5, 24540, Note_on_c, 2, 50, 0
5, 24572, Note_on_c, 2, 41, 98
5, 24600, Note_on_c, 2, 43, 0
5, 24964, Note_on_c, 2, 57, 97
5, 24964, Note_on_c, 2, 53, 106
5, 24964, Note_on_c, 2, 48, 112
5, 25004, Note_on_c, 2, 41, 0
5, 25148, Note_on_c, 2, 41, 88
5, 25192, Note_on_c, 2, 57, 0
5, 25192, Note_on_c, 2, 48, 0
5, 25192, Note_on_c, 2, 53, 0
5, 25236, Note_on_c, 2, 41, 0
5, 25348, Note_on_c, 2, 41, 95
5, 25724, Note_on_c, 2, 57, 94
5, 25724, Note_on_c, 2, 48, 108
5, 25724, Note_on_c, 2, 53, 108
5, 25740, Note_on_c, 2, 41, 0
5, 25908, Note_on_c, 2, 41, 90
5, 25928, Note_on_c, 2, 57, 0
5, 25928, Note_on_c, 2, 48, 0
5, 25936, Note_on_c, 2, 53, 0
5, 26108, Note_on_c, 2, 43, 104
5, 26136, Note_on_c, 2, 41, 0
5, 26492, Note_on_c, 2, 59, 94
5, 26492, Note_on_c, 2, 55, 100
5, 26492, Note_on_c, 2, 50, 108
5, 26592, Note_on_c, 2, 43, 0
5, 26640, Note_on_c, 2, 55, 0
5, 26656, Note_on_c, 2, 59, 0
5, 26656, Note_on_c, 2, 50, 0
5, 26696, Note_on_c, 2, 43, 87
5, 26748, Note_on_c, 2, 43, 0
5, 26876, Note_on_c, 2, 55, 106
5, 26876, Note_on_c, 2, 59, 100
5, 26876, Note_on_c, 2, 50, 110
5, 26884, Note_on_c, 2, 43, 114
5, 27516, Note_on_c, 2, 43, 0
5, 27540, Note_on_c, 2, 55, 0
5, 27540, Note_on_c, 2, 59, 0
5, 27540, Note_on_c, 2, 50, 0
5, 27648, Note_on_c, 2, 41, 97
5, 28032, Note_on_c, 2, 52, 108
5, 28032, Note_on_c, 2, 57, 104
5, 28032, Note_on_c, 2, 60, 97
5, 28084, Note_on_c, 2, 41, 0
5, 28220, Note_on_c, 2, 60, 0
5, 28220, Note_on_c, 2, 41, 86
5, 28236, Note_on_c, 2, 57, 0
5, 28236, Note_on_c, 2, 52, 0
5, 28308, Note_on_c, 2, 41, 0
5, 28420, Note_on_c, 2, 41, 95
5, 28800, Note_on_c, 2, 60, 98
5, 28800, Note_on_c, 2, 57, 100
5, 28800, Note_on_c, 2, 52, 110
5, 28856, Note_on_c, 2, 41, 0
5, 28988, Note_on_c, 2, 41, 94
5, 29068, Note_on_c, 2, 60, 0
5, 29076, Note_on_c, 2, 52, 0
5, 29076, Note_on_c, 2, 57, 0
5, 29188, Note_on_c, 2, 43, 97
5, 29192, Note_on_c, 2, 41, 0
5, 29568, Note_on_c, 2, 50, 106
5, 29568, Note_on_c, 2, 55, 102
5, 29568, Note_on_c, 2, 59, 92
5, 29632, Note_on_c, 2, 43, 0
5, 29692, Note_on_c, 2, 55, 0
5, 29700, Note_on_c, 2, 50, 0
5, 29700, Note_on_c, 2, 59, 0
5, 29760, Note_on_c, 2, 43, 88
5, 29840, Note_on_c, 2, 43, 0
5, 29948, Note_on_c, 2, 50, 106
5, 29948, Note_on_c, 2, 59, 97
5, 29948, Note_on_c, 2, 55, 104
5, 29952, Note_on_c, 2, 43, 102
5, 30720, Note_on_c, 2, 41, 102
5, 30724, Note_on_c, 2, 59, 0
5, 30736, Note_on_c, 2, 43, 0
5, 30740, Note_on_c, 2, 55, 0
5, 30748, Note_on_c, 2, 50, 0
5, 31104, Note_on_c, 2, 57, 94
5, 31104, Note_on_c, 2, 53, 108
5, 31108, Note_on_c, 2, 48, 104
5, 31156, Note_on_c, 2, 41, 0
5, 31292, Note_on_c, 2, 41, 86
5, 31376, Note_on_c, 2, 41, 0
5, 31380, Note_on_c, 2, 48, 0
5, 31392, Note_on_c, 2, 53, 0
5, 31392, Note_on_c, 2, 57, 0
5, 31488, Note_on_c, 2, 41, 95
5, 31868, Note_on_c, 2, 53, 108
5, 31868, Note_on_c, 2, 48, 110
5, 31868, Note_on_c, 2, 57, 100
5, 31904, Note_on_c, 2, 41, 0
5, 32060, Note_on_c, 2, 41, 86
5, 32104, Note_on_c, 2, 57, 0
5, 32104, Note_on_c, 2, 48, 0
5, 32112, Note_on_c, 2, 53, 0
5, 32252, Note_on_c, 2, 43, 106
5, 32288, Note_on_c, 2, 41, 0
5, 32448, Note_on_c, 2, 41, 102
5, 32480, Note_on_c, 2, 43, 0
5, 32576, Note_on_c, 2, 41, 0
5, 32636, Note_on_c, 2, 55, 95
5, 32636, Note_on_c, 2, 59, 88
5, 32636, Note_on_c, 2, 50, 104
5, 32776, Note_on_c, 2, 59, 0
5, 32776, Note_on_c, 2, 55, 0
5, 32792, Note_on_c, 2, 50, 0
5, 33024, Note_on_c, 2, 55, 104
5, 33024, Note_on_c, 2, 50, 110
5, 33024, Note_on_c, 2, 59, 100
5, 33032, Note_on_c, 2, 43, 112
5, 33720, Note_on_c, 2, 50, 0
5, 33736, Note_on_c, 2, 55, 0
5, 33736, Note_on_c, 2, 59, 0
5, 33764, Note_on_c, 2, 43, 0
5, 33788, Note_on_c, 2, 41, 92
5, 34176, Note_on_c, 2, 57, 100
5, 34180, Note_on_c, 2, 52, 108
5, 34180, Note_on_c, 2, 60, 92
5, 34248, Note_on_c, 2, 41, 0
5, 34368, Note_on_c, 2, 41, 80
5, 34408, Note_on_c, 2, 60, 0
5, 34408, Note_on_c, 2, 52, 0
5, 34420, Note_on_c, 2, 57, 0
5, 34448, Note_on_c, 2, 41, 0
5, 34564, Note_on_c, 2, 41, 102
5, 34948, Note_on_c, 2, 52, 104
5, 34948, Note_on_c, 2, 60, 88
5, 34948, Note_on_c, 2, 57, 100
5, 34972, Note_on_c, 2, 41, 0
5, 35132, Note_on_c, 2, 41, 91
5, 35180, Note_on_c, 2, 52, 0
5, 35180, Note_on_c, 2, 57, 0
5, 35180, Note_on_c, 2, 60, 0
5, 35324, Note_on_c, 2, 43, 106
5, 35352, Note_on_c, 2, 41, 0
5, 35712, Note_on_c, 2, 50, 98
5, 35712, Note_on_c, 2, 55, 87
5, 35712, Note_on_c, 2, 59, 78
5, 35828, Note_on_c, 2, 55, 0
5, 35844, Note_on_c, 2, 59, 0
5, 35860, Note_on_c, 2, 50, 0
5, 35928, Note_on_c, 2, 43, 0
5, 36096, Note_on_c, 2, 55, 104
5, 36096, Note_on_c, 2, 50, 110
5, 36096, Note_on_c, 2, 59, 95
5, 36096, Note_on_c, 2, 43, 97
5, 36728, Note_on_c, 2, 43, 0
5, 36812, Note_on_c, 2, 55, 0
5, 36812, Note_on_c, 2, 50, 0
5, 36812, Note_on_c, 2, 59, 0
5, 36860, Note_on_c, 2, 41, 91
5, 37248, Note_on_c, 2, 53, 106
5, 37252, Note_on_c, 2, 48, 106
5, 37252, Note_on_c, 2, 57, 98
5, 37288, Note_on_c, 2, 41, 0
5, 37436, Note_on_c, 2, 41, 86
5, 37468, Note_on_c, 2, 53, 0
5, 37480, Note_on_c, 2, 57, 0
5, 37480, Note_on_c, 2, 48, 0
5, 37536, Note_on_c, 2, 41, 0
5, 37636, Note_on_c, 2, 41, 95
5, 38016, Note_on_c, 2, 53, 104
5, 38016, Note_on_c, 2, 48, 104
5, 38016, Note_on_c, 2, 57, 98
5, 38080, Note_on_c, 2, 41, 0
5, 38208, Note_on_c, 2, 41, 81
5, 38232, Note_on_c, 2, 53, 0
5, 38232, Note_on_c, 2, 57, 0
5, 38232, Note_on_c, 2, 48, 0
5, 38396, Note_on_c, 2, 43, 98
5, 38404, Note_on_c, 2, 41, 0
5, 38780, Note_on_c, 2, 55, 97
5, 38784, Note_on_c, 2, 50, 106
5, 38784, Note_on_c, 2, 59, 90
5, 38880, Note_on_c, 2, 43, 0
5, 38916, Note_on_c, 2, 59, 0
5, 38916, Note_on_c, 2, 50, 0
5, 38920, Note_on_c, 2, 55, 0
5, 38980, Note_on_c, 2, 43, 94
5, 39032, Note_on_c, 2, 43, 0
5, 39168, Note_on_c, 2, 59, 102
5, 39168, Note_on_c, 2, 55, 104
5, 39168, Note_on_c, 2, 50, 110
5, 39168, Note_on_c, 2, 43, 104
5, 39856, Note_on_c, 2, 50, 0
5, 39872, Note_on_c, 2, 59, 0
5, 39872, Note_on_c, 2, 55, 0
5, 39904, Note_on_c, 2, 43, 0
5, 39932, Note_on_c, 2, 41, 100
5, 40316, Note_on_c, 2, 60, 92
5, 40320, Note_on_c, 2, 57, 97
5, 40320, Note_on_c, 2, 52, 106
5, 40384, Note_on_c, 2, 41, 0
5, 40512, Note_on_c, 2, 41, 80
5, 40560, Note_on_c, 2, 52, 0
5, 40560, Note_on_c, 2, 57, 0
5, 40568, Note_on_c, 2, 60, 0
5, 40584, Note_on_c, 2, 41, 0
5, 40700, Note_on_c, 2, 41, 97
5, 41088, Note_on_c, 2, 52, 106
5, 41088, Note_on_c, 2, 57, 100
5, 41088, Note_on_c, 2, 60, 92
5, 41152, Note_on_c, 2, 41, 0
5, 41280, Note_on_c, 2, 41, 87
5, 41364, Note_on_c, 2, 60, 0
5, 41372, Note_on_c, 2, 57, 0
5, 41380, Note_on_c, 2, 52, 0
5, 41472, Note_on_c, 2, 43, 100
5, 41476, Note_on_c, 2, 41, 0
5, 41852, Note_on_c, 2, 55, 92
5, 41852, Note_on_c, 2, 50, 100
5, 41856, Note_on_c, 2, 59, 85
5, 41924, Note_on_c, 2, 43, 0
5, 41972, Note_on_c, 2, 59, 0
5, 41984, Note_on_c, 2, 55, 0
5, 42000, Note_on_c, 2, 50, 0
5, 42052, Note_on_c, 2, 43, 84
5, 42128, Note_on_c, 2, 43, 0
5, 42236, Note_on_c, 2, 55, 104
5, 42236, Note_on_c, 2, 50, 110
5, 42236, Note_on_c, 2, 59, 102
5, 42244, Note_on_c, 2, 43, 104
5, 42996, Note_on_c, 2, 43, 0
5, 42996, Note_on_c, 2, 55, 0
5, 43004, Note_on_c, 2, 41, 100
5, 43012, Note_on_c, 2, 59, 0
5, 43012, Note_on_c, 2, 50, 0
5, 43396, Note_on_c, 2, 57, 94
5, 43396, Note_on_c, 2, 53, 104
5, 43396, Note_on_c, 2, 48, 106
5, 43480, Note_on_c, 2, 41, 0
5, 43584, Note_on_c, 2, 41, 83
5, 43636, Note_on_c, 2, 57, 0
5, 43636, Note_on_c, 2, 53, 0
5, 43652, Note_on_c, 2, 48, 0
5, 43652, Note_on_c, 2, 41, 0
5, 43776, Note_on_c, 2, 41, 95
5, 44160, Note_on_c, 2, 48, 104
5, 44160, Note_on_c, 2, 57, 92
5, 44160, Note_on_c, 2, 53, 104
5, 44224, Note_on_c, 2, 41, 0
5, 44352, Note_on_c, 2, 41, 92
5, 44380, Note_on_c, 2, 48, 0
5, 44388, Note_on_c, 2, 53, 0
5, 44388, Note_on_c, 2, 57, 0
5, 44544, Note_on_c, 2, 43, 102
5, 44556, Note_on_c, 2, 41, 0
5, 44928, Note_on_c, 2, 59, 83
5, 44928, Note_on_c, 2, 50, 100
5, 44928, Note_on_c, 2, 55, 91
5, 44968, Note_on_c, 2, 43, 0
5, 45052, Note_on_c, 2, 55, 0
5, 45060, Note_on_c, 2, 50, 0
5, 45060, Note_on_c, 2, 59, 0
5, 45120, Note_on_c, 2, 43, 104
5, 45184, Note_on_c, 2, 43, 0
5, 45308, Note_on_c, 2, 43, 102
5, 45312, Note_on_c, 2, 59, 102
5, 45312, Note_on_c, 2, 55, 104
5, 45312, Note_on_c, 2, 50, 110
5, 45960, Note_on_c, 2, 50, 0
5, 45960, Note_on_c, 2, 55, 0
5, 45960, Note_on_c, 2, 59, 0
5, 46076, Note_on_c, 2, 43, 0
5, 46076, Note_on_c, 2, 41, 95
5, 46460, Note_on_c, 2, 60, 98
5, 46460, Note_on_c, 2, 57, 102
5, 46460, Note_on_c, 2, 52, 110
5, 46528, Note_on_c, 2, 41, 0
5, 46640, Note_on_c, 2, 60, 0
5, 46640, Note_on_c, 2, 57, 0
5, 46656, Note_on_c, 2, 52, 0
5, 46660, Note_on_c, 2, 41, 94
5, 46740, Note_on_c, 2, 41, 0
5, 46852, Note_on_c, 2, 41, 94
5, 47228, Note_on_c, 2, 60, 92
5, 47228, Note_on_c, 2, 57, 98
5, 47228, Note_on_c, 2, 52, 108
5, 47308, Note_on_c, 2, 41, 0
5, 47420, Note_on_c, 2, 41, 88
5, 47488, Note_on_c, 2, 60, 0
5, 47488, Note_on_c, 2, 57, 0
5, 47500, Note_on_c, 2, 52, 0
5, 47616, Note_on_c, 2, 43, 100
5, 47648, Note_on_c, 2, 41, 0
5, 48000, Note_on_c, 2, 55, 92
5, 48000, Note_on_c, 2, 59, 90
5, 48000, Note_on_c, 2, 50, 100
5, 48068, Note_on_c, 2, 43, 0
5, 48164, Note_on_c, 2, 55, 0
5, 48164, Note_on_c, 2, 59, 0
5, 48180, Note_on_c, 2, 50, 0
5, 48196, Note_on_c, 2, 43, 86
5, 48272, Note_on_c, 2, 43, 0
5, 48384, Note_on_c, 2, 59, 97
5, 48384, Note_on_c, 2, 50, 106
5, 48384, Note_on_c, 2, 55, 102
5, 48388, Note_on_c, 2, 43, 106
5, 49124, Note_on_c, 2, 55, 0
5, 49124, Note_on_c, 2, 59, 0
5, 49124, Note_on_c, 2, 50, 0
5, 49144, Note_on_c, 2, 43, 0
5, 49152, Note_on_c, 2, 41, 100
5, 49536, Note_on_c, 2, 53, 104
5, 49536, Note_on_c, 2, 48, 102
5, 49536, Note_on_c, 2, 57, 90
5, 49584, Note_on_c, 2, 41, 0
5, 49728, Note_on_c, 2, 41, 90
5, 49804, Note_on_c, 2, 41, 0
5, 49804, Note_on_c, 2, 57, 0
5, 49804, Note_on_c, 2, 53, 0
5, 49820, Note_on_c, 2, 48, 0
5, 49924, Note_on_c, 2, 41, 97
5, 50300, Note_on_c, 2, 53, 108
5, 50300, Note_on_c, 2, 48, 108
5, 50300, Note_on_c, 2, 57, 98
5, 50376, Note_on_c, 2, 41, 0
5, 50496, Note_on_c, 2, 41, 87
5, 50536, Note_on_c, 2, 53, 0
5, 50536, Note_on_c, 2, 57, 0
5, 50536, Note_on_c, 2, 48, 0
5, 50696, Note_on_c, 2, 43, 100
5, 50724, Note_on_c, 2, 41, 0
5, 51072, Note_on_c, 2, 59, 92
5, 51072, Note_on_c, 2, 50, 104
5, 51072, Note_on_c, 2, 55, 100
5, 51116, Note_on_c, 2, 43, 0
5, 51216, Note_on_c, 2, 59, 0
5, 51216, Note_on_c, 2, 55, 0
5, 51232, Note_on_c, 2, 50, 0
5, 51268, Note_on_c, 2, 43, 92
5, 51328, Note_on_c, 2, 43, 0
5, 51452, Note_on_c, 2, 59, 100
5, 51452, Note_on_c, 2, 55, 104
5, 51452, Note_on_c, 2, 50, 110
5, 51456, Note_on_c, 2, 43, 104
5, 52108, Note_on_c, 2, 50, 0
5, 52124, Note_on_c, 2, 59, 0
5, 52124, Note_on_c, 2, 55, 0
5, 52220, Note_on_c, 2, 41, 98
5, 52236, Note_on_c, 2, 43, 0
5, 52612, Note_on_c, 2, 52, 106
5, 52612, Note_on_c, 2, 57, 100
5, 52612, Note_on_c, 2, 60, 71
5, 52660, Note_on_c, 2, 41, 0
5, 52796, Note_on_c, 2, 41, 83
5, 52872, Note_on_c, 2, 41, 0
5, 52908, Note_on_c, 2, 60, 0
5, 52908, Note_on_c, 2, 52, 0
5, 52916, Note_on_c, 2, 57, 0
5, 52992, Note_on_c, 2, 41, 98
5, 53372, Note_on_c, 2, 60, 95
5, 53372, Note_on_c, 2, 57, 97
5, 53372, Note_on_c, 2, 52, 104
5, 53560, Note_on_c, 2, 41, 0
5, 53580, Note_on_c, 2, 41, 87
5, 53640, Note_on_c, 2, 60, 0
5, 53640, Note_on_c, 2, 57, 0
5, 53656, Note_on_c, 2, 52, 0
5, 53700, Note_on_c, 2, 41, 0
5, 53760, Note_on_c, 2, 43, 104
5, 54148, Note_on_c, 2, 59, 92
5, 54148, Note_on_c, 2, 50, 100
5, 54148, Note_on_c, 2, 55, 91
5, 54216, Note_on_c, 2, 43, 0
5, 54256, Note_on_c, 2, 55, 0
5, 54272, Note_on_c, 2, 50, 0
5, 54272, Note_on_c, 2, 59, 0
5, 54336, Note_on_c, 2, 43, 73
5, 54408, Note_on_c, 2, 43, 0
5, 54524, Note_on_c, 2, 59, 98
5, 54524, Note_on_c, 2, 55, 104
5, 54524, Note_on_c, 2, 50, 108
5, 54528, Note_on_c, 2, 43, 98
5, 55292, Note_on_c, 2, 41, 92
5, 55300, Note_on_c, 2, 50, 0
5, 55300, Note_on_c, 2, 59, 0
5, 55300, Note_on_c, 2, 55, 0
5, 55308, Note_on_c, 2, 43, 0
5, 55676, Note_on_c, 2, 53, 102
5, 55676, Note_on_c, 2, 57, 97
5, 55676, Note_on_c, 2, 48, 104
5, 55736, Note_on_c, 2, 41, 0
5, 55868, Note_on_c, 2, 41, 85
5, 55948, Note_on_c, 2, 41, 0
5, 55952, Note_on_c, 2, 48, 0
5, 55952, Note_on_c, 2, 57, 0
5, 55952, Note_on_c, 2, 53, 0
5, 56064, Note_on_c, 2, 41, 98
5, 56448, Note_on_c, 2, 57, 98
5, 56448, Note_on_c, 2, 53, 104
5, 56448, Note_on_c, 2, 48, 108
5, 56512, Note_on_c, 2, 41, 0
5, 56636, Note_on_c, 2, 41, 91
5, 56748, Note_on_c, 2, 57, 0
5, 56748, Note_on_c, 2, 48, 0
5, 56748, Note_on_c, 2, 53, 0
5, 56828, Note_on_c, 2, 43, 100
5, 56848, Note_on_c, 2, 41, 0
5, 57216, Note_on_c, 2, 55, 100
5, 57220, Note_on_c, 2, 50, 102
5, 57220, Note_on_c, 2, 59, 91
5, 57296, Note_on_c, 2, 43, 0
5, 57336, Note_on_c, 2, 59, 0
5, 57344, Note_on_c, 2, 50, 0
5, 57348, Note_on_c, 2, 55, 0
5, 57416, Note_on_c, 2, 43, 90
5, 57472, Note_on_c, 2, 43, 0
5, 57596, Note_on_c, 2, 50, 108
5, 57596, Note_on_c, 2, 59, 92
5, 57596, Note_on_c, 2, 55, 104
5, 57604, Note_on_c, 2, 43, 97
5, 57888, Note_on_c, 2, 50, 0
5, 57904, Note_on_c, 2, 55, 0
5, 57912, Note_on_c, 2, 59, 0
5, 58352, Note_on_c, 2, 43, 0
5, 58372, Note_on_c, 2, 60, 95
5, 58372, Note_on_c, 2, 53, 108
5, 58372, Note_on_c, 2, 57, 98
5, 58372, Note_on_c, 2, 41, 104
5, 58372, Note_on_c, 2, 64, 86
5, 58484, Note_on_c, 2, 64, 0
5, 58488, Note_on_c, 2, 57, 0
5, 58496, Note_on_c, 2, 41, 0
5, 58512, Note_on_c, 2, 53, 0
5, 58512, Note_on_c, 2, 60, 0
5, 58752, Note_on_c, 2, 41, 110
5, 58756, Note_on_c, 2, 53, 112
5, 58756, Note_on_c, 2, 57, 102
5, 58756, Note_on_c, 2, 60, 94
5, 58756, Note_on_c, 2, 64, 88
5, 59572, Note_on_c, 2, 41, 0
5, 59592, Note_on_c, 2, 57, 0
5, 59600, Note_on_c, 2, 53, 0
5, 59600, Note_on_c, 2, 60, 0
5, 59600, Note_on_c, 2, 64, 0
5, 59712, Note_on_c, 2, 43, 110
5, 59720, Note_on_c, 2, 64, 98
5, 59720, Note_on_c, 2, 60, 95
5, 59720, Note_on_c, 2, 53, 122
5, 59720, Note_on_c, 2, 57, 98
5, 59772, Note_on_c, 2, 57, 0
5, 59796, Note_on_c, 2, 60, 0
5, 59796, Note_on_c, 2, 53, 0
5, 59812, Note_on_c, 2, 64, 0
5, 59900, Note_on_c, 2, 43, 0
5, 60092, Note_on_c, 2, 43, 114
5, 60280, Note_on_c, 2, 43, 0
5, 60288, Note_on_c, 2, 53, 100
5, 60288, Note_on_c, 2, 57, 87
5, 60288, Note_on_c, 2, 64, 88
5, 60288, Note_on_c, 2, 60, 72
5, 60420, Note_on_c, 2, 57, 0
5, 60428, Note_on_c, 2, 60, 0
5, 60444, Note_on_c, 2, 64, 0
5, 60444, Note_on_c, 2, 53, 0
5, 60476, Note_on_c, 2, 43, 92
5, 60540, Note_on_c, 2, 43, 0
5, 60668, Note_on_c, 2, 43, 114
5, 60672, Note_on_c, 2, 53, 110
5, 60672, Note_on_c, 2, 60, 98
5, 60676, Note_on_c, 2, 64, 97
5, 60676, Note_on_c, 2, 57, 97
5, 61284, Note_on_c, 2, 64, 0
5, 61292, Note_on_c, 2, 57, 0
5, 61296, Note_on_c, 2, 53, 0
5, 61304, Note_on_c, 2, 60, 0
5, 61304, Note_on_c, 2, 43, 0
5, 61436, Note_on_c, 2, 41, 98
5, 61440, Note_on_c, 2, 53, 92
5, 61444, Note_on_c, 2, 57, 83
5, 61444, Note_on_c, 2, 60, 86
5, 61444, Note_on_c, 2, 64, 84
5, 61524, Note_on_c, 2, 57, 0
5, 61532, Note_on_c, 2, 64, 0
5, 61536, Note_on_c, 2, 60, 0
5, 61548, Note_on_c, 2, 53, 0
5, 61592, Note_on_c, 2, 41, 0
5, 61828, Note_on_c, 2, 53, 110
5, 61828, Note_on_c, 2, 57, 104
5, 61828, Note_on_c, 2, 64, 98
5, 61828, Note_on_c, 2, 60, 100
5, 61828, Note_on_c, 2, 41, 100
5, 62624, Note_on_c, 2, 64, 0
5, 62632, Note_on_c, 2, 60, 0
5, 62632, Note_on_c, 2, 53, 0
5, 62632, Note_on_c, 2, 57, 0
5, 62632, Note_on_c, 2, 41, 0
5, 62784, Note_on_c, 2, 43, 114
5, 62788, Note_on_c, 2, 60, 92
5, 62788, Note_on_c, 2, 112, 57
5, 62788, Note_on_c, 2, 64, 88
5, 62944, Note_on_c, 2, 60, 0
5, 62952, Note_on_c, 2, 64, 0
5, 62972, Note_on_c, 2, 43, 0
5, 63168, Note_on_c, 2, 43, 112
5, 63332, Note_on_c, 2, 43, 0
5, 63356, Note_on_c, 2, 53, 98
5, 63356, Note_on_c, 2, 55, 87
5, 63356, Note_on_c, 2, 62, 87
5, 63356, Note_on_c, 2, 59, 66
5, 63452, Note_on_c, 2, 55, 0
5, 63460, Note_on_c, 2, 59, 0
5, 63476, Note_on_c, 2, 62, 0
5, 63484, Note_on_c, 2, 53, 0
5, 63544, Note_on_c, 2, 43, 117
5, 63604, Note_on_c, 2, 43, 0
5, 63736, Note_on_c, 2, 43, 117
5, 63740, Note_on_c, 2, 59, 104
5, 63740, Note_on_c, 2, 53, 117
5, 63740, Note_on_c, 2, 62, 97
5, 63744, Note_on_c, 2, 55, 100
5, 64316, Note_on_c, 2, 55, 0
5, 64324, Note_on_c, 2, 53, 0
5, 64332, Note_on_c, 2, 59, 0
5, 64332, Note_on_c, 2, 62, 0
5, 64456, Note_on_c, 2, 43, 0
5, 64516, Note_on_c, 2, 41, 100
5, 64664, Note_on_c, 2, 41, 0
5, 64892, Note_on_c, 2, 57, 92
5, 64892, Note_on_c, 2, 53, 102
5, 64892, Note_on_c, 2, 60, 92
5, 64896, Note_on_c, 2, 64, 94
5, 64900, Note_on_c, 2, 41, 108
5, 65556, Note_on_c, 2, 57, 0
5, 65560, Note_on_c, 2, 64, 0
5, 65564, Note_on_c, 2, 60, 0
5, 65564, Note_on_c, 2, 53, 0
5, 65688, Note_on_c, 2, 41, 0
5, 65856, Note_on_c, 2, 43, 117
5, 65860, Note_on_c, 2, 53, 106
5, 65860, Note_on_c, 2, 57, 97
5, 65860, Note_on_c, 2, 64, 95
5, 65860, Note_on_c, 2, 60, 85
5, 65932, Note_on_c, 2, 57, 0
5, 65940, Note_on_c, 2, 60, 0
5, 65956, Note_on_c, 2, 53, 0
5, 65956, Note_on_c, 2, 64, 0
5, 66068, Note_on_c, 2, 43, 0
5, 66432, Note_on_c, 2, 53, 112
5, 66432, Note_on_c, 2, 57, 102
5, 66432, Note_on_c, 2, 60, 97
5, 66432, Note_on_c, 2, 64, 97
5, 66432, Note_on_c, 2, 43, 122
5, 67364, Note_on_c, 2, 43, 0
5, 67388, Note_on_c, 2, 64, 0
5, 67396, Note_on_c, 2, 57, 0
5, 67396, Note_on_c, 2, 60, 0
5, 67396, Note_on_c, 2, 53, 0
5, 67580, Note_on_c, 2, 41, 100
5, 67580, Note_on_c, 2, 53, 100
5, 67580, Note_on_c, 2, 60, 92
5, 67584, Note_on_c, 2, 57, 91
5, 67584, Note_on_c, 2, 64, 90
5, 67712, Note_on_c, 2, 64, 0
5, 67712, Note_on_c, 2, 57, 0
5, 67716, Note_on_c, 2, 60, 0
5, 67728, Note_on_c, 2, 53, 0
5, 67736, Note_on_c, 2, 41, 0
5, 67968, Note_on_c, 2, 53, 110
5, 67968, Note_on_c, 2, 57, 104
5, 67968, Note_on_c, 2, 60, 102
5, 67968, Note_on_c, 2, 64, 100
5, 67968, Note_on_c, 2, 41, 110
5, 68748, Note_on_c, 2, 64, 0
5, 68748, Note_on_c, 2, 57, 0
5, 68748, Note_on_c, 2, 53, 0
5, 68756, Note_on_c, 2, 60, 0
5, 68764, Note_on_c, 2, 41, 0
5, 68924, Note_on_c, 2, 43, 112
5, 68932, Note_on_c, 2, 53, 110
5, 68932, Note_on_c, 2, 57, 98
5, 68932, Note_on_c, 2, 60, 95
5, 68932, Note_on_c, 2, 64, 90
5, 69016, Note_on_c, 2, 64, 0
5, 69016, Note_on_c, 2, 57, 0
5, 69032, Note_on_c, 2, 60, 0
5, 69040, Note_on_c, 2, 53, 0
5, 69104, Note_on_c, 2, 43, 0
5, 69312, Note_on_c, 2, 43, 122
5, 69492, Note_on_c, 2, 43, 0
5, 69496, Note_on_c, 2, 53, 102
5, 69500, Note_on_c, 2, 60, 91
5, 69500, Note_on_c, 2, 57, 95
5, 69500, Note_on_c, 2, 64, 88
5, 69616, Note_on_c, 2, 64, 0
5, 69616, Note_on_c, 2, 57, 0
5, 69632, Note_on_c, 2, 60, 0
5, 69644, Note_on_c, 2, 53, 0
5, 69696, Note_on_c, 2, 43, 90
5, 69768, Note_on_c, 2, 43, 0
5, 69884, Note_on_c, 2, 43, 114
5, 69888, Note_on_c, 2, 53, 110
5, 69888, Note_on_c, 2, 64, 95
5, 69888, Note_on_c, 2, 60, 97
5, 69888, Note_on_c, 2, 57, 100
5, 70460, Note_on_c, 2, 57, 0
5, 70460, Note_on_c, 2, 64, 0
5, 70460, Note_on_c, 2, 53, 0
5, 70460, Note_on_c, 2, 60, 0
5, 70488, Note_on_c, 2, 43, 0
5, 70652, Note_on_c, 2, 41, 100
5, 70656, Note_on_c, 2, 53, 102
5, 70656, Note_on_c, 2, 57, 94
5, 70656, Note_on_c, 2, 60, 92
5, 70656, Note_on_c, 2, 64, 91
5, 70776, Note_on_c, 2, 57, 0
5, 70784, Note_on_c, 2, 64, 0
5, 70792, Note_on_c, 2, 41, 0
5, 70792, Note_on_c, 2, 60, 0
5, 70808, Note_on_c, 2, 53, 0
5, 71040, Note_on_c, 2, 53, 110
5, 71040, Note_on_c, 2, 60, 102
5, 71040, Note_on_c, 2, 57, 100
5, 71040, Note_on_c, 2, 64, 95
5, 71040, Note_on_c, 2, 41, 102
5, 71796, Note_on_c, 2, 64, 0
5, 71796, Note_on_c, 2, 57, 0
5, 71796, Note_on_c, 2, 53, 0
5, 71804, Note_on_c, 2, 60, 0
5, 71828, Note_on_c, 2, 41, 0
5, 71996, Note_on_c, 2, 43, 102
5, 72000, Note_on_c, 2, 60, 98
5, 72000, Note_on_c, 2, 53, 114
5, 72000, Note_on_c, 2, 57, 104
5, 72000, Note_on_c, 2, 64, 92
5, 72104, Note_on_c, 2, 57, 0
5, 72112, Note_on_c, 2, 64, 0
5, 72120, Note_on_c, 2, 60, 0
5, 72124, Note_on_c, 2, 53, 0
5, 72184, Note_on_c, 2, 43, 0
5, 72384, Note_on_c, 2, 43, 112
5, 72572, Note_on_c, 2, 53, 102
5, 72572, Note_on_c, 2, 59, 90
5, 72572, Note_on_c, 2, 55, 95
5, 72572, Note_on_c, 2, 62, 86
5, 72580, Note_on_c, 2, 43, 0
5, 72712, Note_on_c, 2, 55, 0
5, 72712, Note_on_c, 2, 62, 0
5, 72720, Note_on_c, 2, 59, 0
5, 72728, Note_on_c, 2, 53, 0
5, 72956, Note_on_c, 2, 62, 102
5, 72956, Note_on_c, 2, 53, 112
5, 72956, Note_on_c, 2, 59, 104
5, 72956, Note_on_c, 2, 55, 104
5, 72964, Note_on_c, 2, 43, 117
5, 73548, Note_on_c, 2, 43, 0
5, 73560, Note_on_c, 2, 62, 0
5, 73560, Note_on_c, 2, 53, 0
5, 73560, Note_on_c, 2, 59, 0
5, 73560, Note_on_c, 2, 55, 0
5, 73728, Note_on_c, 2, 53, 88
5, 73728, Note_on_c, 2, 60, 83
5, 73728, Note_on_c, 2, 41, 102
5, 73732, Note_on_c, 2, 64, 80
5, 73732, Note_on_c, 2, 57, 66
5, 73732, Note_on_c, 2, 55, 62
5, 73748, Note_on_c, 2, 55, 0
5, 73840, Note_on_c, 2, 57, 0
5, 73852, Note_on_c, 2, 60, 0
5, 73856, Note_on_c, 2, 64, 0
5, 73876, Note_on_c, 2, 53, 0
5, 73892, Note_on_c, 2, 41, 0
5, 74108, Note_on_c, 2, 41, 102
5, 74112, Note_on_c, 2, 53, 110
5, 74112, Note_on_c, 2, 57, 97
5, 74112, Note_on_c, 2, 64, 97
5, 74112, Note_on_c, 2, 60, 95
5, 74856, Note_on_c, 2, 64, 0
5, 74872, Note_on_c, 2, 57, 0
5, 74872, Note_on_c, 2, 53, 0
5, 74872, Note_on_c, 2, 60, 0
5, 74952, Note_on_c, 2, 41, 0
5, 75068, Note_on_c, 2, 43, 108
5, 75072, Note_on_c, 2, 53, 108
5, 75072, Note_on_c, 2, 57, 100
5, 75072, Note_on_c, 2, 60, 94
5, 75076, Note_on_c, 2, 64, 94
5, 75240, Note_on_c, 2, 43, 0
5, 75268, Note_on_c, 2, 60, 0
5, 75268, Note_on_c, 2, 57, 0
5, 75272, Note_on_c, 2, 64, 0
5, 75284, Note_on_c, 2, 53, 0
5, 75452, Note_on_c, 2, 43, 114
5, 75624, Note_on_c, 2, 43, 0
5, 75644, Note_on_c, 2, 53, 95
5, 75644, Note_on_c, 2, 57, 88
5, 75644, Note_on_c, 2, 64, 91
5, 75648, Note_on_c, 2, 60, 75
5, 75756, Note_on_c, 2, 60, 0
5, 75784, Note_on_c, 2, 57, 0
5, 75792, Note_on_c, 2, 64, 0
5, 75792, Note_on_c, 2, 53, 0
5, 75840, Note_on_c, 2, 43, 102
5, 75896, Note_on_c, 2, 43, 0
5, 76028, Note_on_c, 2, 53, 108
5, 76028, Note_on_c, 2, 57, 98
5, 76028, Note_on_c, 2, 64, 97
5, 76028, Note_on_c, 2, 60, 102
5, 76028, Note_on_c, 2, 43, 112
5, 76576, Note_on_c, 2, 64, 0
5, 76576, Note_on_c, 2, 57, 0
5, 76584, Note_on_c, 2, 60, 0
5, 76584, Note_on_c, 2, 53, 0
5, 76676, Note_on_c, 2, 43, 0
5, 76796, Note_on_c, 2, 53, 92
5, 76796, Note_on_c, 2, 60, 86
5, 76796, Note_on_c, 2, 57, 87
5, 76796, Note_on_c, 2, 64, 84
5, 76804, Note_on_c, 2, 41, 102
5, 76936, Note_on_c, 2, 64, 0
5, 76944, Note_on_c, 2, 57, 0
5, 76944, Note_on_c, 2, 60, 0
5, 76944, Note_on_c, 2, 53, 0
5, 76984, Note_on_c, 2, 41, 0
5, 77180, Note_on_c, 2, 53, 110
5, 77184, Note_on_c, 2, 60, 95
5, 77184, Note_on_c, 2, 57, 100
5, 77184, Note_on_c, 2, 64, 97
5, 77188, Note_on_c, 2, 41, 106
5, 77944, Note_on_c, 2, 60, 0
5, 77952, Note_on_c, 2, 64, 0
5, 77952, Note_on_c, 2, 57, 0
5, 77956, Note_on_c, 2, 53, 0
5, 77992, Note_on_c, 2, 41, 0
5, 78144, Note_on_c, 2, 60, 97
5, 78144, Note_on_c, 2, 53, 108
5, 78148, Note_on_c, 2, 57, 100
5, 78148, Note_on_c, 2, 64, 80
5, 78148, Note_on_c, 2, 43, 104
5, 78328, Note_on_c, 2, 43, 0
5, 78344, Note_on_c, 2, 64, 0
5, 78380, Note_on_c, 2, 57, 0
5, 78404, Note_on_c, 2, 60, 0
5, 78428, Note_on_c, 2, 53, 0
5, 78532, Note_on_c, 2, 43, 110
5, 78688, Note_on_c, 2, 43, 0
5, 78716, Note_on_c, 2, 53, 98
5, 78716, Note_on_c, 2, 57, 91
5, 78716, Note_on_c, 2, 60, 95
5, 78720, Note_on_c, 2, 64, 72
5, 78760, Note_on_c, 2, 64, 0
5, 78892, Note_on_c, 2, 57, 0
5, 78896, Note_on_c, 2, 60, 0
5, 78900, Note_on_c, 2, 53, 0
5, 78912, Note_on_c, 2, 43, 95
5, 78968, Note_on_c, 2, 43, 0
5, 79100, Note_on_c, 2, 53, 106
5, 79104, Note_on_c, 2, 60, 97
5, 79104, Note_on_c, 2, 57, 98
5, 79104, Note_on_c, 2, 43, 114
5, 79612, Note_on_c, 2, 57, 0
5, 79632, Note_on_c, 2, 53, 0
5, 79636, Note_on_c, 2, 60, 0
5, 79728, Note_on_c, 2, 43, 0
5, 79868, Note_on_c, 2, 60, 90
5, 79868, Note_on_c, 2, 53, 108
5, 79868, Note_on_c, 2, 57, 90
5, 79868, Note_on_c, 2, 64, 86
5, 79872, Note_on_c, 2, 41, 100
5, 80012, Note_on_c, 2, 41, 0
5, 80040, Note_on_c, 2, 57, 0
5, 80040, Note_on_c, 2, 60, 0
5, 80040, Note_on_c, 2, 64, 0
5, 80056, Note_on_c, 2, 53, 0
5, 80256, Note_on_c, 2, 53, 110
5, 80256, Note_on_c, 2, 57, 98
5, 80256, Note_on_c, 2, 60, 97
5, 80256, Note_on_c, 2, 64, 100
5, 80256, Note_on_c, 2, 41, 102
5, 81024, Note_on_c, 2, 64, 0
5, 81024, Note_on_c, 2, 60, 0
5, 81028, Note_on_c, 2, 57, 0
5, 81028, Note_on_c, 2, 53, 0
5, 81108, Note_on_c, 2, 41, 0
5, 81216, Note_on_c, 2, 43, 106
5, 81216, Note_on_c, 2, 53, 110
5, 81216, Note_on_c, 2, 60, 95
5, 81216, Note_on_c, 2, 64, 100
5, 81216, Note_on_c, 2, 57, 100
5, 81408, Note_on_c, 2, 43, 0
5, 81444, Note_on_c, 2, 60, 0
5, 81452, Note_on_c, 2, 53, 0
5, 81452, Note_on_c, 2, 57, 0
5, 81472, Note_on_c, 2, 64, 0
5, 81600, Note_on_c, 2, 43, 95
5, 81764, Note_on_c, 2, 43, 0
5, 81784, Note_on_c, 2, 53, 102
5, 81784, Note_on_c, 2, 57, 95
5, 81784, Note_on_c, 2, 64, 92
5, 81784, Note_on_c, 2, 60, 92
5, 81932, Note_on_c, 2, 57, 0
5, 81940, Note_on_c, 2, 64, 0
5, 81948, Note_on_c, 2, 60, 0
5, 81948, Note_on_c, 2, 53, 0
5, 81984, Note_on_c, 2, 43, 86
5, 82032, Note_on_c, 2, 43, 0
5, 82176, Note_on_c, 2, 53, 108
5, 82176, Note_on_c, 2, 57, 98
5, 82176, Note_on_c, 2, 64, 95
5, 82176, Note_on_c, 2, 60, 95
5, 82176, Note_on_c, 2, 43, 117
5, 82692, Note_on_c, 2, 43, 0
5, 82940, Note_on_c, 2, 41, 114
5, 82996, Note_on_c, 2, 57, 0
5, 82996, Note_on_c, 2, 60, 0
5, 83012, Note_on_c, 2, 64, 0
5, 83012, Note_on_c, 2, 53, 0
5, 83324, Note_on_c, 2, 53, 104
5, 83328, Note_on_c, 2, 64, 91
5, 83328, Note_on_c, 2, 57, 94
5, 83328, Note_on_c, 2, 60, 91
5, 84116, Note_on_c, 2, 60, 0
5, 84116, Note_on_c, 2, 64, 0
5, 84116, Note_on_c, 2, 57, 0
5, 84144, Note_on_c, 2, 53, 0
5, 84368, Note_on_c, 2, 41, 0
5, 84480, Note_on_c, 2, 53, 98
5, 84480, Note_on_c, 2, 59, 95
5, 84480, Note_on_c, 2, 62, 86
5, 84480, Note_on_c, 2, 55, 91
5, 84484, Note_on_c, 2, 43, 117
5, 85608, Note_on_c, 2, 53, 0
5, 85644, Note_on_c, 2, 62, 0
5, 85660, Note_on_c, 2, 55, 0
5, 85660, Note_on_c, 2, 59, 0
5, 85676, Note_on_c, 2, 43, 0
5, 85816, Note_on_c, 2, 59, 104
5, 85816, Note_on_c, 2, 55, 102
5, 85824, Note_on_c, 2, 43, 120
5, 86936, Note_on_c, 2, 55, 0
5, 86936, Note_on_c, 2, 59, 0
5, 86956, Note_on_c, 2, 43, 0
5, 87156, Note_on_c, 2, 43, 104
5, 87160, Note_on_c, 2, 59, 98
5, 87160, Note_on_c, 2, 55, 92
5, 87236, Note_on_c, 2, 55, 0
5, 87244, Note_on_c, 2, 59, 0
5, 87352, Note_on_c, 2, 41, 102
5, 87356, Note_on_c, 2, 53, 98
5, 87356, Note_on_c, 2, 57, 106
5, 87384, Note_on_c, 2, 43, 0
5, 88160, Note_on_c, 2, 53, 0
5, 88160, Note_on_c, 2, 57, 0
5, 88180, Note_on_c, 2, 41, 0
5, 88316, Note_on_c, 2, 41, 102
5, 88320, Note_on_c, 2, 53, 98
5, 88320, Note_on_c, 2, 57, 97
5, 88532, Note_on_c, 2, 57, 0
5, 88532, Note_on_c, 2, 53, 0
5, 88700, Note_on_c, 2, 55, 98
5, 88700, Note_on_c, 2, 59, 81
5, 88704, Note_on_c, 2, 43, 120
5, 88744, Note_on_c, 2, 41, 0
5, 88888, Note_on_c, 2, 59, 0
5, 88904, Note_on_c, 2, 55, 0
5, 89088, Note_on_c, 2, 43, 0
5, 89088, Note_on_c, 2, 52, 112
5, 89088, Note_on_c, 2, 57, 108
5, 89088, Note_on_c, 2, 45, 106
5, 89092, Note_on_c, 2, 60, 92
5, 89224, Note_on_c, 2, 60, 0
5, 89224, Note_on_c, 2, 57, 0
5, 89224, Note_on_c, 2, 52, 0
5, 89244, Note_on_c, 2, 45, 0
5, 89472, Note_on_c, 2, 64, 112
5, 89472, Note_on_c, 2, 57, 108
5, 89472, Note_on_c, 2, 60, 106
5, 89472, Note_on_c, 2, 45, 100
5, 90076, Note_on_c, 2, 45, 0
5, 90112, Note_on_c, 2, 57, 0
5, 90112, Note_on_c, 2, 64, 0
5, 90120, Note_on_c, 2, 60, 0
5, 90236, Note_on_c, 2, 45, 90
5, 90236, Note_on_c, 2, 57, 94
5, 90236, Note_on_c, 2, 60, 94
5, 90240, Note_on_c, 2, 64, 94
5, 90288, Note_on_c, 2, 64, 0
5, 90292, Note_on_c, 2, 60, 0
5, 90308, Note_on_c, 2, 57, 0
5, 90432, Note_on_c, 2, 62, 116
5, 90432, Note_on_c, 2, 55, 117
5, 90432, Note_on_c, 2, 59, 110
5, 90432, Note_on_c, 2, 43, 101
5, 90460, Note_on_c, 2, 45, 0
5, 90876, Note_on_c, 2, 59, 0
5, 90876, Note_on_c, 2, 55, 0
5, 90876, Note_on_c, 2, 62, 0
5, 91004, Note_on_c, 2, 55, 108
5, 91004, Note_on_c, 2, 62, 111
5, 91004, Note_on_c, 2, 59, 111
5, 91792, Note_on_c, 2, 43, 0
5, 91824, Note_on_c, 2, 62, 0
5, 91832, Note_on_c, 2, 55, 0
5, 91848, Note_on_c, 2, 59, 0
5, 91964, Note_on_c, 2, 43, 111
5, 91964, Note_on_c, 2, 55, 117
5, 91964, Note_on_c, 2, 59, 112
5, 93356, Note_on_c, 2, 55, 0
5, 93364, Note_on_c, 2, 59, 0
5, 93500, Note_on_c, 2, 41, 102
5, 93504, Note_on_c, 2, 57, 112
5, 93504, Note_on_c, 2, 53, 117
5, 93508, Note_on_c, 2, 43, 0
5, 94984, Note_on_c, 2, 41, 0
5, 95184, Note_on_c, 2, 53, 0
5, 95192, Note_on_c, 2, 57, 0
5, 95232, Note_on_c, 2, 41, 100
5, 95620, Note_on_c, 2, 60, 98
5, 95620, Note_on_c, 2, 57, 104
5, 95620, Note_on_c, 2, 52, 112
5, 95640, Note_on_c, 2, 41, 0
5, 95792, Note_on_c, 2, 57, 0
5, 95804, Note_on_c, 2, 52, 0
5, 95804, Note_on_c, 2, 60, 0
5, 95812, Note_on_c, 2, 41, 90
5, 95880, Note_on_c, 2, 41, 0
5, 96000, Note_on_c, 2, 41, 100
5, 96376, Note_on_c, 2, 60, 97
5, 96376, Note_on_c, 2, 57, 106
5, 96376, Note_on_c, 2, 52, 112
5, 96428, Note_on_c, 2, 41, 0
5, 96576, Note_on_c, 2, 41, 100
5, 96620, Note_on_c, 2, 57, 0
5, 96620, Note_on_c, 2, 52, 0
5, 96620, Note_on_c, 2, 60, 0
5, 96776, Note_on_c, 2, 43, 110
5, 96780, Note_on_c, 2, 41, 0
5, 97152, Note_on_c, 2, 59, 90
5, 97152, Note_on_c, 2, 55, 98
5, 97152, Note_on_c, 2, 50, 112
5, 97204, Note_on_c, 2, 43, 0
5, 97264, Note_on_c, 2, 55, 0
5, 97276, Note_on_c, 2, 50, 0
5, 97276, Note_on_c, 2, 59, 0
5, 97344, Note_on_c, 2, 43, 90
5, 97420, Note_on_c, 2, 43, 0
5, 97536, Note_on_c, 2, 50, 110
5, 97536, Note_on_c, 2, 59, 100
5, 97536, Note_on_c, 2, 55, 106
5, 97540, Note_on_c, 2, 43, 112
5, 97848, Note_on_c, 2, 112, 0
5, 98296, Note_on_c, 2, 55, 0
5, 98296, Note_on_c, 2, 50, 0
5, 98296, Note_on_c, 2, 59, 0
5, 98304, Note_on_c, 2, 43, 0
5, 98304, Note_on_c, 2, 41, 98
5, 98688, Note_on_c, 2, 57, 97
5, 98688, Note_on_c, 2, 53, 106
5, 98688, Note_on_c, 2, 48, 106
5, 98724, Note_on_c, 2, 41, 0
5, 98876, Note_on_c, 2, 41, 91
5, 98892, Note_on_c, 2, 53, 0
5, 98900, Note_on_c, 2, 48, 0
5, 98900, Note_on_c, 2, 57, 0
5, 98948, Note_on_c, 2, 41, 0
5, 99072, Note_on_c, 2, 41, 104
5, 99456, Note_on_c, 2, 48, 110
5, 99456, Note_on_c, 2, 53, 108
5, 99456, Note_on_c, 2, 57, 94
5, 99512, Note_on_c, 2, 41, 0
5, 99588, Note_on_c, 2, 48, 0
5, 99596, Note_on_c, 2, 53, 0
5, 99604, Note_on_c, 2, 57, 0
5, 99644, Note_on_c, 2, 41, 90
5, 99840, Note_on_c, 2, 43, 106
5, 99880, Note_on_c, 2, 41, 0
5, 100220, Note_on_c, 2, 55, 94
5, 100220, Note_on_c, 2, 59, 87
5, 100220, Note_on_c, 2, 50, 102
5, 100292, Note_on_c, 2, 43, 0
5, 100364, Note_on_c, 2, 55, 0
5, 100364, Note_on_c, 2, 59, 0
5, 100364, Note_on_c, 2, 50, 0
5, 100420, Note_on_c, 2, 43, 108
5, 100476, Note_on_c, 2, 43, 0
5, 100608, Note_on_c, 2, 59, 98
5, 100608, Note_on_c, 2, 55, 102
5, 100608, Note_on_c, 2, 50, 114
5, 100608, Note_on_c, 2, 43, 100
5, 101248, Note_on_c, 2, 50, 0
5, 101248, Note_on_c, 2, 59, 0
5, 101256, Note_on_c, 2, 55, 0
5, 101352, Note_on_c, 2, 43, 0
5, 101368, Note_on_c, 2, 41, 92
5, 101756, Note_on_c, 2, 60, 92
5, 101756, Note_on_c, 2, 57, 98
5, 101756, Note_on_c, 2, 52, 112
5, 101816, Note_on_c, 2, 41, 0
5, 101944, Note_on_c, 2, 41, 79
5, 101952, Note_on_c, 2, 60, 0
5, 101952, Note_on_c, 2, 57, 0
5, 101968, Note_on_c, 2, 52, 0
5, 102024, Note_on_c, 2, 41, 0
5, 102140, Note_on_c, 2, 41, 100
5, 102528, Note_on_c, 2, 52, 108
5, 102528, Note_on_c, 2, 57, 102
5, 102528, Note_on_c, 2, 60, 100
5, 102652, Note_on_c, 2, 41, 0
5, 102708, Note_on_c, 2, 57, 0
5, 102716, Note_on_c, 2, 60, 0
5, 102724, Note_on_c, 2, 52, 0
5, 102724, Note_on_c, 2, 41, 94
5, 102908, Note_on_c, 2, 43, 104
5, 102928, Note_on_c, 2, 41, 0
5, 103300, Note_on_c, 2, 50, 98
5, 103300, Note_on_c, 2, 59, 80
5, 103300, Note_on_c, 2, 55, 87
5, 103364, Note_on_c, 2, 43, 0
5, 103404, Note_on_c, 2, 55, 0
5, 103404, Note_on_c, 2, 59, 0
5, 103420, Note_on_c, 2, 50, 0
5, 103492, Note_on_c, 2, 43, 94
5, 103556, Note_on_c, 2, 43, 0
5, 103676, Note_on_c, 2, 55, 104
5, 103676, Note_on_c, 2, 59, 104
5, 103676, Note_on_c, 2, 50, 112
5, 103684, Note_on_c, 2, 43, 106
5, 104396, Note_on_c, 2, 43, 0
5, 104396, Note_on_c, 2, 59, 0
5, 104404, Note_on_c, 2, 55, 0
5, 104412, Note_on_c, 2, 50, 0
5, 104440, Note_on_c, 2, 41, 86
5, 104836, Note_on_c, 2, 57, 97
5, 104836, Note_on_c, 2, 53, 106
5, 104836, Note_on_c, 2, 48, 112
5, 104896, Note_on_c, 2, 41, 0
5, 105020, Note_on_c, 2, 41, 85
5, 105064, Note_on_c, 2, 57, 0
5, 105064, Note_on_c, 2, 48, 0
5, 105064, Note_on_c, 2, 53, 0
5, 105100, Note_on_c, 2, 41, 0
5, 105212, Note_on_c, 2, 41, 98
5, 105596, Note_on_c, 2, 57, 94
5, 105596, Note_on_c, 2, 48, 108
5, 105596, Note_on_c, 2, 53, 108
5, 105644, Note_on_c, 2, 41, 0
5, 105784, Note_on_c, 2, 41, 95
5, 105800, Note_on_c, 2, 57, 0
5, 105800, Note_on_c, 2, 48, 0
5, 105808, Note_on_c, 2, 53, 0
5, 105984, Note_on_c, 2, 43, 106
5, 105988, Note_on_c, 2, 41, 0
5, 106364, Note_on_c, 2, 59, 94
5, 106364, Note_on_c, 2, 55, 100
5, 106364, Note_on_c, 2, 50, 108
5, 106416, Note_on_c, 2, 43, 0
5, 106512, Note_on_c, 2, 55, 0
5, 106528, Note_on_c, 2, 59, 0
5, 106528, Note_on_c, 2, 50, 0
5, 106560, Note_on_c, 2, 43, 86
5, 106632, Note_on_c, 2, 43, 0
5, 106748, Note_on_c, 2, 55, 106
5, 106748, Note_on_c, 2, 59, 100
5, 106748, Note_on_c, 2, 50, 110
5, 106752, Note_on_c, 2, 43, 112
5, 107412, Note_on_c, 2, 50, 0
5, 107412, Note_on_c, 2, 55, 0
5, 107412, Note_on_c, 2, 59, 0
5, 107468, Note_on_c, 2, 43, 0
5, 107524, Note_on_c, 2, 41, 95
5, 107904, Note_on_c, 2, 52, 108
5, 107904, Note_on_c, 2, 57, 104
5, 107904, Note_on_c, 2, 60, 97
5, 107932, Note_on_c, 2, 41, 0
5, 108092, Note_on_c, 2, 60, 0
5, 108092, Note_on_c, 2, 41, 80
5, 108108, Note_on_c, 2, 57, 0
5, 108108, Note_on_c, 2, 52, 0
5, 108184, Note_on_c, 2, 41, 0
5, 108288, Note_on_c, 2, 41, 97
5, 108672, Note_on_c, 2, 60, 98
5, 108672, Note_on_c, 2, 57, 100
5, 108672, Note_on_c, 2, 52, 110
5, 108712, Note_on_c, 2, 41, 0
5, 108856, Note_on_c, 2, 41, 91
5, 108940, Note_on_c, 2, 60, 0
5, 108948, Note_on_c, 2, 52, 0
5, 108948, Note_on_c, 2, 57, 0
5, 109056, Note_on_c, 2, 43, 104
5, 109084, Note_on_c, 2, 41, 0
5, 109440, Note_on_c, 2, 50, 106
5, 109440, Note_on_c, 2, 55, 102
5, 109440, Note_on_c, 2, 59, 92
5, 109528, Note_on_c, 2, 43, 0
5, 109564, Note_on_c, 2, 55, 0
5, 109572, Note_on_c, 2, 50, 0
5, 109572, Note_on_c, 2, 59, 0
5, 109636, Note_on_c, 2, 43, 85
5, 109700, Note_on_c, 2, 43, 0
5, 109820, Note_on_c, 2, 50, 106
5, 109820, Note_on_c, 2, 59, 97
5, 109820, Note_on_c, 2, 55, 104
5, 109828, Note_on_c, 2, 43, 114
5, 110468, Note_on_c, 2, 43, 0
5, 110592, Note_on_c, 2, 41, 91
5, 110596, Note_on_c, 2, 59, 0
5, 110612, Note_on_c, 2, 55, 0
5, 110620, Note_on_c, 2, 50, 0
5, 110976, Note_on_c, 2, 57, 94
5, 110976, Note_on_c, 2, 53, 108
5, 110980, Note_on_c, 2, 48, 104
5, 111012, Note_on_c, 2, 41, 0
5, 111160, Note_on_c, 2, 41, 88
5, 111252, Note_on_c, 2, 48, 0
5, 111256, Note_on_c, 2, 41, 0
5, 111264, Note_on_c, 2, 53, 0
5, 111264, Note_on_c, 2, 57, 0
5, 111356, Note_on_c, 2, 41, 98
5, 111740, Note_on_c, 2, 53, 108
5, 111740, Note_on_c, 2, 48, 110
5, 111740, Note_on_c, 2, 57, 100
5, 111772, Note_on_c, 2, 41, 0
5, 111928, Note_on_c, 2, 41, 94
5, 111976, Note_on_c, 2, 57, 0
5, 111976, Note_on_c, 2, 48, 0
5, 111984, Note_on_c, 2, 53, 0
5, 112124, Note_on_c, 2, 43, 106
5, 112168, Note_on_c, 2, 41, 0
5, 112316, Note_on_c, 2, 41, 104
5, 112344, Note_on_c, 2, 43, 0
5, 112452, Note_on_c, 2, 41, 0
5, 112508, Note_on_c, 2, 55, 95
5, 112508, Note_on_c, 2, 59, 88
5, 112508, Note_on_c, 2, 50, 104
5, 112648, Note_on_c, 2, 59, 0
5, 112648, Note_on_c, 2, 55, 0
5, 112664, Note_on_c, 2, 50, 0
5, 112896, Note_on_c, 2, 55, 104
5, 112896, Note_on_c, 2, 50, 110
5, 112896, Note_on_c, 2, 59, 100
5, 112896, Note_on_c, 2, 43, 122
5, 113592, Note_on_c, 2, 50, 0
5, 113608, Note_on_c, 2, 55, 0
5, 113608, Note_on_c, 2, 59, 0
5, 113632, Note_on_c, 2, 43, 0
5, 113656, Note_on_c, 2, 41, 98
5, 114048, Note_on_c, 2, 57, 100
5, 114052, Note_on_c, 2, 52, 108
5, 114052, Note_on_c, 2, 60, 92
5, 114104, Note_on_c, 2, 41, 0
5, 114240, Note_on_c, 2, 41, 95
5, 114280, Note_on_c, 2, 60, 0
5, 114280, Note_on_c, 2, 52, 0
5, 114292, Note_on_c, 2, 57, 0
5, 114308, Note_on_c, 2, 41, 0
5, 114428, Note_on_c, 2, 41, 102
5, 114820, Note_on_c, 2, 52, 104
5, 114820, Note_on_c, 2, 60, 88
5, 114820, Note_on_c, 2, 57, 100
5, 114856, Note_on_c, 2, 41, 0
5, 115004, Note_on_c, 2, 41, 92
5, 115052, Note_on_c, 2, 52, 0
5, 115052, Note_on_c, 2, 57, 0
5, 115052, Note_on_c, 2, 60, 0
5, 115196, Note_on_c, 2, 43, 110
5, 115212, Note_on_c, 2, 41, 0
5, 115388, Note_on_c, 2, 41, 102
5, 115416, Note_on_c, 2, 43, 0
5, 115584, Note_on_c, 2, 41, 0
5, 115584, Note_on_c, 2, 50, 98
5, 115584, Note_on_c, 2, 55, 87
5, 115584, Note_on_c, 2, 59, 78
5, 115700, Note_on_c, 2, 55, 0
5, 115716, Note_on_c, 2, 59, 0
5, 115732, Note_on_c, 2, 50, 0
5, 115968, Note_on_c, 2, 55, 104
5, 115968, Note_on_c, 2, 50, 110
5, 115968, Note_on_c, 2, 59, 95
5, 115968, Note_on_c, 2, 43, 120
5, 116684, Note_on_c, 2, 59, 0
5, 116684, Note_on_c, 2, 55, 0
5, 116684, Note_on_c, 2, 50, 0
5, 116716, Note_on_c, 2, 43, 0
5, 116728, Note_on_c, 2, 41, 91
5, 117120, Note_on_c, 2, 53, 106
5, 117124, Note_on_c, 2, 48, 106
5, 117124, Note_on_c, 2, 57, 98
5, 117184, Note_on_c, 2, 41, 0
5, 117308, Note_on_c, 2, 41, 87
5, 117340, Note_on_c, 2, 53, 0
5, 117352, Note_on_c, 2, 57, 0
5, 117352, Note_on_c, 2, 48, 0
5, 117384, Note_on_c, 2, 41, 0
5, 117504, Note_on_c, 2, 41, 100
5, 117888, Note_on_c, 2, 53, 104
5, 117888, Note_on_c, 2, 48, 104
5, 117888, Note_on_c, 2, 57, 98
5, 117940, Note_on_c, 2, 41, 0
5, 118072, Note_on_c, 2, 41, 80
5, 118104, Note_on_c, 2, 53, 0
5, 118104, Note_on_c, 2, 57, 0
5, 118104, Note_on_c, 2, 48, 0
5, 118268, Note_on_c, 2, 43, 108
5, 118300, Note_on_c, 2, 41, 0
5, 118652, Note_on_c, 2, 55, 97
5, 118656, Note_on_c, 2, 50, 106
5, 118656, Note_on_c, 2, 59, 90
5, 118708, Note_on_c, 2, 43, 0
5, 118788, Note_on_c, 2, 59, 0
5, 118788, Note_on_c, 2, 50, 0
5, 118792, Note_on_c, 2, 55, 0
5, 118852, Note_on_c, 2, 43, 84
5, 118900, Note_on_c, 2, 43, 0
5, 119040, Note_on_c, 2, 59, 102
5, 119040, Note_on_c, 2, 55, 104
5, 119040, Note_on_c, 2, 50, 110
5, 119040, Note_on_c, 2, 43, 108
5, 119728, Note_on_c, 2, 50, 0
5, 119744, Note_on_c, 2, 59, 0
5, 119744, Note_on_c, 2, 55, 0
5, 119760, Note_on_c, 2, 43, 0
5, 119800, Note_on_c, 2, 41, 98
5, 120188, Note_on_c, 2, 60, 92
5, 120192, Note_on_c, 2, 57, 97
5, 120192, Note_on_c, 2, 52, 106
5, 120244, Note_on_c, 2, 41, 0
5, 120388, Note_on_c, 2, 41, 95
5, 120432, Note_on_c, 2, 52, 0
5, 120432, Note_on_c, 2, 57, 0
5, 120440, Note_on_c, 2, 60, 0
5, 120448, Note_on_c, 2, 41, 0
5, 120576, Note_on_c, 2, 41, 100
5, 120960, Note_on_c, 2, 52, 106
5, 120960, Note_on_c, 2, 57, 100
5, 120960, Note_on_c, 2, 60, 92
5, 121028, Note_on_c, 2, 41, 0
5, 121152, Note_on_c, 2, 41, 98
5, 121236, Note_on_c, 2, 60, 0
5, 121244, Note_on_c, 2, 57, 0
5, 121252, Note_on_c, 2, 52, 0
5, 121344, Note_on_c, 2, 43, 102
5, 121364, Note_on_c, 2, 41, 0
5, 121724, Note_on_c, 2, 55, 92
5, 121724, Note_on_c, 2, 50, 100
5, 121728, Note_on_c, 2, 59, 85
5, 121788, Note_on_c, 2, 43, 0
5, 121844, Note_on_c, 2, 59, 0
5, 121856, Note_on_c, 2, 55, 0
5, 121872, Note_on_c, 2, 50, 0
5, 121924, Note_on_c, 2, 43, 90
5, 121980, Note_on_c, 2, 43, 0
5, 122108, Note_on_c, 2, 55, 104
5, 122108, Note_on_c, 2, 50, 110
5, 122108, Note_on_c, 2, 59, 102
5, 122112, Note_on_c, 2, 43, 104
5, 122848, Note_on_c, 2, 43, 0
5, 122868, Note_on_c, 2, 55, 0
5, 122872, Note_on_c, 2, 41, 97
5, 122884, Note_on_c, 2, 59, 0
5, 122884, Note_on_c, 2, 50, 0
5, 123268, Note_on_c, 2, 57, 94
5, 123268, Note_on_c, 2, 53, 104
5, 123268, Note_on_c, 2, 48, 106
5, 123284, Note_on_c, 2, 41, 0
5, 123456, Note_on_c, 2, 41, 97
5, 123508, Note_on_c, 2, 57, 0
5, 123508, Note_on_c, 2, 53, 0
5, 123512, Note_on_c, 2, 41, 0
5, 123524, Note_on_c, 2, 48, 0
5, 123644, Note_on_c, 2, 41, 98
5, 124032, Note_on_c, 2, 48, 104
5, 124032, Note_on_c, 2, 57, 92
5, 124032, Note_on_c, 2, 53, 104
5, 124092, Note_on_c, 2, 41, 0
5, 124216, Note_on_c, 2, 41, 88
5, 124252, Note_on_c, 2, 48, 0
5, 124260, Note_on_c, 2, 53, 0
5, 124260, Note_on_c, 2, 57, 0
5, 124412, Note_on_c, 2, 43, 106
5, 124436, Note_on_c, 2, 41, 0
5, 124800, Note_on_c, 2, 59, 83
5, 124800, Note_on_c, 2, 50, 100
5, 124800, Note_on_c, 2, 55, 91
5, 124840, Note_on_c, 2, 43, 0
5, 124924, Note_on_c, 2, 55, 0
5, 124932, Note_on_c, 2, 50, 0
5, 124932, Note_on_c, 2, 59, 0
5, 124992, Note_on_c, 2, 43, 100
5, 125044, Note_on_c, 2, 43, 0
5, 125180, Note_on_c, 2, 43, 102
5, 125184, Note_on_c, 2, 59, 102
5, 125184, Note_on_c, 2, 55, 104
5, 125184, Note_on_c, 2, 50, 110
5, 125832, Note_on_c, 2, 50, 0
5, 125832, Note_on_c, 2, 55, 0
5, 125832, Note_on_c, 2, 59, 0
5, 125884, Note_on_c, 2, 43, 0
5, 125944, Note_on_c, 2, 41, 98
5, 126332, Note_on_c, 2, 60, 98
5, 126332, Note_on_c, 2, 57, 102
5, 126332, Note_on_c, 2, 52, 110
5, 126392, Note_on_c, 2, 41, 0
5, 126512, Note_on_c, 2, 60, 0
5, 126512, Note_on_c, 2, 57, 0
5, 126528, Note_on_c, 2, 52, 0
5, 126532, Note_on_c, 2, 41, 91
5, 126592, Note_on_c, 2, 41, 0
5, 126724, Note_on_c, 2, 41, 92
5, 127100, Note_on_c, 2, 60, 92
5, 127100, Note_on_c, 2, 57, 98
5, 127100, Note_on_c, 2, 52, 108
5, 127128, Note_on_c, 2, 41, 0
5, 127296, Note_on_c, 2, 41, 98
5, 127360, Note_on_c, 2, 60, 0
5, 127360, Note_on_c, 2, 57, 0
5, 127372, Note_on_c, 2, 52, 0
5, 127500, Note_on_c, 2, 43, 95
5, 127548, Note_on_c, 2, 41, 0
5, 127872, Note_on_c, 2, 55, 92
5, 127872, Note_on_c, 2, 59, 90
5, 127872, Note_on_c, 2, 50, 100
5, 127900, Note_on_c, 2, 43, 0
5, 128036, Note_on_c, 2, 55, 0
5, 128036, Note_on_c, 2, 59, 0
5, 128052, Note_on_c, 2, 50, 0
5, 128072, Note_on_c, 2, 43, 88
5, 128132, Note_on_c, 2, 43, 0
5, 128256, Note_on_c, 2, 59, 97
5, 128256, Note_on_c, 2, 50, 106
5, 128256, Note_on_c, 2, 55, 102
5, 128260, Note_on_c, 2, 43, 98
5, 128996, Note_on_c, 2, 55, 0
5, 128996, Note_on_c, 2, 59, 0
5, 128996, Note_on_c, 2, 50, 0
5, 129008, Note_on_c, 2, 43, 0
5, 129024, Note_on_c, 2, 41, 92
5, 129408, Note_on_c, 2, 53, 104
5, 129408, Note_on_c, 2, 48, 102
5, 129408, Note_on_c, 2, 57, 90
5, 129424, Note_on_c, 2, 41, 0
5, 129596, Note_on_c, 2, 41, 91
5, 129652, Note_on_c, 2, 41, 0
5, 129676, Note_on_c, 2, 57, 0
5, 129676, Note_on_c, 2, 53, 0
5, 129692, Note_on_c, 2, 48, 0
5, 129792, Note_on_c, 2, 41, 97
5, 130172, Note_on_c, 2, 53, 108
5, 130172, Note_on_c, 2, 48, 108
5, 130172, Note_on_c, 2, 57, 98
5, 130212, Note_on_c, 2, 41, 0
5, 130364, Note_on_c, 2, 41, 102
5, 130408, Note_on_c, 2, 53, 0
5, 130408, Note_on_c, 2, 57, 0
5, 130408, Note_on_c, 2, 48, 0
5, 130564, Note_on_c, 2, 43, 104
5, 130592, Note_on_c, 2, 41, 0
5, 130944, Note_on_c, 2, 59, 92
5, 130944, Note_on_c, 2, 50, 104
5, 130944, Note_on_c, 2, 55, 100
5, 130972, Note_on_c, 2, 43, 0
5, 131088, Note_on_c, 2, 59, 0
5, 131088, Note_on_c, 2, 55, 0
5, 131104, Note_on_c, 2, 50, 0
5, 131140, Note_on_c, 2, 43, 87
5, 131196, Note_on_c, 2, 43, 0
5, 131324, Note_on_c, 2, 59, 100
5, 131324, Note_on_c, 2, 55, 104
5, 131324, Note_on_c, 2, 50, 110
5, 131328, Note_on_c, 2, 43, 100
5, 131980, Note_on_c, 2, 50, 0
5, 131996, Note_on_c, 2, 59, 0
5, 131996, Note_on_c, 2, 55, 0
5, 132100, Note_on_c, 2, 41, 102
5, 132124, Note_on_c, 2, 43, 0
5, 132484, Note_on_c, 2, 52, 106
5, 132484, Note_on_c, 2, 57, 100
5, 132484, Note_on_c, 2, 60, 71
5, 132500, Note_on_c, 2, 41, 0
5, 132672, Note_on_c, 2, 41, 90
5, 132736, Note_on_c, 2, 41, 0
5, 132780, Note_on_c, 2, 60, 0
5, 132780, Note_on_c, 2, 52, 0
5, 132788, Note_on_c, 2, 57, 0
5, 132860, Note_on_c, 2, 41, 95
5, 133244, Note_on_c, 2, 60, 95
5, 133244, Note_on_c, 2, 57, 97
5, 133244, Note_on_c, 2, 52, 104
5, 133304, Note_on_c, 2, 41, 0
5, 133440, Note_on_c, 2, 41, 94
5, 133512, Note_on_c, 2, 60, 0
5, 133512, Note_on_c, 2, 57, 0
5, 133528, Note_on_c, 2, 52, 0
5, 133636, Note_on_c, 2, 43, 102
5, 133656, Note_on_c, 2, 41, 0
5, 134020, Note_on_c, 2, 59, 92
5, 134020, Note_on_c, 2, 50, 100
5, 134020, Note_on_c, 2, 55, 91
5, 134072, Note_on_c, 2, 43, 0
5, 134128, Note_on_c, 2, 55, 0
5, 134144, Note_on_c, 2, 50, 0
5, 134144, Note_on_c, 2, 59, 0
5, 134212, Note_on_c, 2, 43, 85
5, 134268, Note_on_c, 2, 43, 0
5, 134396, Note_on_c, 2, 59, 98
5, 134396, Note_on_c, 2, 55, 104
5, 134396, Note_on_c, 2, 50, 108
5, 134404, Note_on_c, 2, 43, 100
5, 135060, Note_on_c, 2, 43, 0
5, 135168, Note_on_c, 2, 41, 100
5, 135172, Note_on_c, 2, 59, 0
5, 135172, Note_on_c, 2, 50, 0
5, 135172, Note_on_c, 2, 55, 0
5, 135548, Note_on_c, 2, 53, 102
5, 135548, Note_on_c, 2, 57, 97
5, 135548, Note_on_c, 2, 48, 104
5, 135592, Note_on_c, 2, 41, 0
5, 135744, Note_on_c, 2, 41, 95
5, 135824, Note_on_c, 2, 41, 0
5, 135824, Note_on_c, 2, 48, 0
5, 135824, Note_on_c, 2, 57, 0
5, 135824, Note_on_c, 2, 53, 0
5, 135940, Note_on_c, 2, 41, 94
5, 136320, Note_on_c, 2, 41, 0
5, 136320, Note_on_c, 2, 57, 98
5, 136320, Note_on_c, 2, 53, 104
5, 136320, Note_on_c, 2, 48, 108
5, 136508, Note_on_c, 2, 41, 102
5, 136620, Note_on_c, 2, 48, 0
5, 136620, Note_on_c, 2, 57, 0
5, 136620, Note_on_c, 2, 53, 0
5, 136708, Note_on_c, 2, 43, 100
5, 136736, Note_on_c, 2, 41, 0
5, 137088, Note_on_c, 2, 55, 100
5, 137092, Note_on_c, 2, 50, 102
5, 137092, Note_on_c, 2, 59, 91
5, 137140, Note_on_c, 2, 43, 0
5, 137208, Note_on_c, 2, 59, 0
5, 137216, Note_on_c, 2, 50, 0
5, 137220, Note_on_c, 2, 55, 0
5, 137284, Note_on_c, 2, 43, 95
5, 137332, Note_on_c, 2, 43, 0
5, 137468, Note_on_c, 2, 50, 108
5, 137468, Note_on_c, 2, 59, 92
5, 137468, Note_on_c, 2, 55, 104
5, 137472, Note_on_c, 2, 43, 102
5, 137760, Note_on_c, 2, 50, 0
5, 137776, Note_on_c, 2, 55, 0
5, 137784, Note_on_c, 2, 59, 0
5, 138036, Note_on_c, 2, 43, 0
5, 138236, Note_on_c, 2, 41, 102
5, 138244, Note_on_c, 2, 60, 95
5, 138244, Note_on_c, 2, 53, 108
5, 138244, Note_on_c, 2, 57, 98
5, 138244, Note_on_c, 2, 64, 86
5, 138332, Note_on_c, 2, 41, 0
5, 138356, Note_on_c, 2, 64, 0
5, 138360, Note_on_c, 2, 57, 0
5, 138384, Note_on_c, 2, 53, 0
5, 138384, Note_on_c, 2, 60, 0
5, 138624, Note_on_c, 2, 41, 110
5, 138628, Note_on_c, 2, 53, 112
5, 138628, Note_on_c, 2, 57, 102
5, 138628, Note_on_c, 2, 60, 94
5, 138628, Note_on_c, 2, 64, 88
5, 139396, Note_on_c, 2, 41, 0
5, 139464, Note_on_c, 2, 57, 0
5, 139472, Note_on_c, 2, 53, 0
5, 139472, Note_on_c, 2, 60, 0
5, 139472, Note_on_c, 2, 64, 0
5, 139584, Note_on_c, 2, 43, 120
5, 139592, Note_on_c, 2, 64, 98
5, 139592, Note_on_c, 2, 60, 95
5, 139592, Note_on_c, 2, 53, 122
5, 139592, Note_on_c, 2, 57, 98
5, 139644, Note_on_c, 2, 57, 0
5, 139668, Note_on_c, 2, 60, 0
5, 139668, Note_on_c, 2, 53, 0
5, 139684, Note_on_c, 2, 64, 0
5, 139748, Note_on_c, 2, 43, 0
5, 139972, Note_on_c, 2, 43, 112
5, 140144, Note_on_c, 2, 43, 0
5, 140160, Note_on_c, 2, 53, 100
5, 140160, Note_on_c, 2, 57, 87
5, 140160, Note_on_c, 2, 64, 88
5, 140160, Note_on_c, 2, 60, 72
5, 140292, Note_on_c, 2, 57, 0
5, 140300, Note_on_c, 2, 60, 0
5, 140316, Note_on_c, 2, 64, 0
5, 140316, Note_on_c, 2, 53, 0
5, 140352, Note_on_c, 2, 43, 88
5, 140408, Note_on_c, 2, 43, 0
5, 140544, Note_on_c, 2, 53, 110
5, 140544, Note_on_c, 2, 60, 98
5, 140544, Note_on_c, 2, 43, 112
5, 140548, Note_on_c, 2, 64, 97
5, 140548, Note_on_c, 2, 57, 97
5, 141100, Note_on_c, 2, 43, 0
5, 141156, Note_on_c, 2, 64, 0
5, 141164, Note_on_c, 2, 57, 0
5, 141168, Note_on_c, 2, 53, 0
5, 141176, Note_on_c, 2, 60, 0
5, 141312, Note_on_c, 2, 53, 92
5, 141312, Note_on_c, 2, 41, 102
5, 141316, Note_on_c, 2, 57, 83
5, 141316, Note_on_c, 2, 60, 86
5, 141316, Note_on_c, 2, 64, 84
5, 141396, Note_on_c, 2, 57, 0
5, 141404, Note_on_c, 2, 64, 0
5, 141408, Note_on_c, 2, 60, 0
5, 141420, Note_on_c, 2, 53, 0
5, 141436, Note_on_c, 2, 41, 0
5, 141692, Note_on_c, 2, 41, 100
5, 141700, Note_on_c, 2, 53, 110
5, 141700, Note_on_c, 2, 57, 104
5, 141700, Note_on_c, 2, 64, 98
5, 141700, Note_on_c, 2, 60, 100
5, 142452, Note_on_c, 2, 41, 0
5, 142496, Note_on_c, 2, 64, 0
5, 142504, Note_on_c, 2, 53, 0
5, 142504, Note_on_c, 2, 57, 0
5, 142504, Note_on_c, 2, 60, 0
5, 142652, Note_on_c, 2, 43, 110
5, 142660, Note_on_c, 2, 60, 92
5, 142660, Note_on_c, 2, 112, 57
5, 142660, Note_on_c, 2, 64, 88
5, 142816, Note_on_c, 2, 60, 0
5, 142824, Note_on_c, 2, 64, 0
5, 142836, Note_on_c, 2, 43, 0
5, 143036, Note_on_c, 2, 43, 117
5, 143184, Note_on_c, 2, 43, 0
5, 143228, Note_on_c, 2, 53, 98
5, 143228, Note_on_c, 2, 55, 87
5, 143228, Note_on_c, 2, 62, 87
5, 143228, Note_on_c, 2, 59, 66
5, 143324, Note_on_c, 2, 55, 0
5, 143332, Note_on_c, 2, 59, 0
5, 143348, Note_on_c, 2, 62, 0
5, 143356, Note_on_c, 2, 53, 0
5, 143424, Note_on_c, 2, 43, 108
5, 143488, Note_on_c, 2, 43, 0
5, 143612, Note_on_c, 2, 59, 104
5, 143612, Note_on_c, 2, 53, 117
5, 143612, Note_on_c, 2, 62, 97
5, 143616, Note_on_c, 2, 55, 100
5, 143616, Note_on_c, 2, 43, 112
5, 144156, Note_on_c, 2, 43, 0
5, 144188, Note_on_c, 2, 55, 0
5, 144196, Note_on_c, 2, 53, 0
5, 144204, Note_on_c, 2, 62, 0
5, 144204, Note_on_c, 2, 59, 0
5, 144376, Note_on_c, 2, 41, 102
5, 144380, Note_on_c, 2, 60, 87
5, 144380, Note_on_c, 2, 53, 92
5, 144384, Note_on_c, 2, 57, 57
5, 144384, Note_on_c, 2, 64, 60
5, 144460, Note_on_c, 2, 57, 0
5, 144464, Note_on_c, 2, 64, 0
5, 144468, Note_on_c, 2, 53, 0
5, 144484, Note_on_c, 2, 60, 0
5, 144572, Note_on_c, 2, 41, 0
5, 144764, Note_on_c, 2, 57, 92
5, 144764, Note_on_c, 2, 53, 102
5, 144764, Note_on_c, 2, 60, 92
5, 144768, Note_on_c, 2, 64, 94
5, 144768, Note_on_c, 2, 41, 100
5, 145428, Note_on_c, 2, 57, 0
5, 145432, Note_on_c, 2, 64, 0
5, 145436, Note_on_c, 2, 60, 0
5, 145436, Note_on_c, 2, 53, 0
5, 145536, Note_on_c, 2, 41, 0
5, 145724, Note_on_c, 2, 43, 114
5, 145732, Note_on_c, 2, 53, 106
5, 145732, Note_on_c, 2, 57, 97
5, 145732, Note_on_c, 2, 64, 95
5, 145732, Note_on_c, 2, 60, 85
5, 145804, Note_on_c, 2, 57, 0
5, 145812, Note_on_c, 2, 60, 0
5, 145828, Note_on_c, 2, 53, 0
5, 145828, Note_on_c, 2, 64, 0
5, 145896, Note_on_c, 2, 43, 0
5, 146300, Note_on_c, 2, 43, 108
5, 146304, Note_on_c, 2, 53, 112
5, 146304, Note_on_c, 2, 57, 102
5, 146304, Note_on_c, 2, 60, 97
5, 146304, Note_on_c, 2, 64, 97
5, 147260, Note_on_c, 2, 64, 0
5, 147260, Note_on_c, 2, 43, 0
5, 147268, Note_on_c, 2, 57, 0
5, 147268, Note_on_c, 2, 60, 0
5, 147268, Note_on_c, 2, 53, 0
5, 147452, Note_on_c, 2, 53, 100
5, 147452, Note_on_c, 2, 60, 92
5, 147456, Note_on_c, 2, 57, 91
5, 147456, Note_on_c, 2, 64, 90
5, 147456, Note_on_c, 2, 41, 100
5, 147584, Note_on_c, 2, 64, 0
5, 147584, Note_on_c, 2, 57, 0
5, 147588, Note_on_c, 2, 60, 0
5, 147600, Note_on_c, 2, 53, 0
5, 147600, Note_on_c, 2, 41, 0
5, 147836, Note_on_c, 2, 41, 104
5, 147840, Note_on_c, 2, 53, 110
5, 147840, Note_on_c, 2, 57, 104
5, 147840, Note_on_c, 2, 60, 102
5, 147840, Note_on_c, 2, 64, 100
5, 148620, Note_on_c, 2, 64, 0
5, 148620, Note_on_c, 2, 53, 0
5, 148620, Note_on_c, 2, 57, 0
5, 148628, Note_on_c, 2, 60, 0
5, 148648, Note_on_c, 2, 41, 0
5, 148800, Note_on_c, 2, 43, 117
5, 148804, Note_on_c, 2, 53, 110
5, 148804, Note_on_c, 2, 57, 98
5, 148804, Note_on_c, 2, 60, 95
5, 148804, Note_on_c, 2, 64, 90
5, 148888, Note_on_c, 2, 64, 0
5, 148888, Note_on_c, 2, 57, 0
5, 148904, Note_on_c, 2, 60, 0
5, 148912, Note_on_c, 2, 53, 0
5, 148964, Note_on_c, 2, 43, 0
5, 149184, Note_on_c, 2, 43, 108
5, 149324, Note_on_c, 2, 43, 0
5, 149368, Note_on_c, 2, 53, 102
5, 149372, Note_on_c, 2, 60, 91
5, 149372, Note_on_c, 2, 57, 95
5, 149372, Note_on_c, 2, 64, 88
5, 149488, Note_on_c, 2, 64, 0
5, 149488, Note_on_c, 2, 57, 0
5, 149504, Note_on_c, 2, 60, 0
5, 149516, Note_on_c, 2, 53, 0
5, 149572, Note_on_c, 2, 43, 85
5, 149628, Note_on_c, 2, 43, 0
5, 149760, Note_on_c, 2, 53, 110
5, 149760, Note_on_c, 2, 64, 95
5, 149760, Note_on_c, 2, 60, 97
5, 149760, Note_on_c, 2, 57, 100
5, 149760, Note_on_c, 2, 43, 122
5, 150332, Note_on_c, 2, 57, 0
5, 150332, Note_on_c, 2, 60, 0
5, 150332, Note_on_c, 2, 64, 0
5, 150332, Note_on_c, 2, 53, 0
5, 150504, Note_on_c, 2, 43, 0
5, 150520, Note_on_c, 2, 41, 97
5, 150528, Note_on_c, 2, 53, 102
5, 150528, Note_on_c, 2, 57, 94
5, 150528, Note_on_c, 2, 60, 92
5, 150528, Note_on_c, 2, 64, 91
5, 150648, Note_on_c, 2, 57, 0
5, 150656, Note_on_c, 2, 64, 0
5, 150660, Note_on_c, 2, 41, 0
5, 150664, Note_on_c, 2, 60, 0
5, 150680, Note_on_c, 2, 53, 0
5, 150912, Note_on_c, 2, 53, 110
5, 150912, Note_on_c, 2, 60, 102
5, 150912, Note_on_c, 2, 57, 100
5, 150912, Note_on_c, 2, 64, 95
5, 150912, Note_on_c, 2, 41, 104
5, 151668, Note_on_c, 2, 64, 0
5, 151668, Note_on_c, 2, 57, 0
5, 151668, Note_on_c, 2, 53, 0
5, 151676, Note_on_c, 2, 60, 0
5, 151700, Note_on_c, 2, 41, 0
5, 151872, Note_on_c, 2, 60, 98
5, 151872, Note_on_c, 2, 53, 114
5, 151872, Note_on_c, 2, 57, 104
5, 151872, Note_on_c, 2, 64, 92
5, 151876, Note_on_c, 2, 43, 120
5, 151976, Note_on_c, 2, 57, 0
5, 151984, Note_on_c, 2, 64, 0
5, 151992, Note_on_c, 2, 60, 0
5, 151996, Note_on_c, 2, 53, 0
5, 152056, Note_on_c, 2, 43, 0
5, 152256, Note_on_c, 2, 43, 120
5, 152444, Note_on_c, 2, 53, 102
5, 152444, Note_on_c, 2, 59, 90
5, 152444, Note_on_c, 2, 55, 95
5, 152444, Note_on_c, 2, 62, 86
5, 152460, Note_on_c, 2, 43, 0
5, 152584, Note_on_c, 2, 55, 0
5, 152584, Note_on_c, 2, 62, 0
5, 152592, Note_on_c, 2, 59, 0
5, 152600, Note_on_c, 2, 53, 0
5, 152828, Note_on_c, 2, 62, 102
5, 152828, Note_on_c, 2, 53, 112
5, 152828, Note_on_c, 2, 59, 104
5, 152828, Note_on_c, 2, 55, 104
5, 152832, Note_on_c, 2, 43, 114
5, 153432, Note_on_c, 2, 55, 0
5, 153432, Note_on_c, 2, 59, 0
5, 153432, Note_on_c, 2, 53, 0
5, 153432, Note_on_c, 2, 62, 0
5, 153584, Note_on_c, 2, 43, 0
5, 153596, Note_on_c, 2, 41, 102
5, 153600, Note_on_c, 2, 53, 88
5, 153600, Note_on_c, 2, 60, 83
5, 153604, Note_on_c, 2, 64, 80
5, 153604, Note_on_c, 2, 57, 66
5, 153604, Note_on_c, 2, 55, 62
5, 153620, Note_on_c, 2, 55, 0
5, 153712, Note_on_c, 2, 57, 0
5, 153716, Note_on_c, 2, 41, 0
5, 153724, Note_on_c, 2, 60, 0
5, 153728, Note_on_c, 2, 64, 0
5, 153748, Note_on_c, 2, 53, 0
5, 153984, Note_on_c, 2, 53, 110
5, 153984, Note_on_c, 2, 57, 97
5, 153984, Note_on_c, 2, 64, 97
5, 153984, Note_on_c, 2, 60, 95
5, 153988, Note_on_c, 2, 41, 104
5, 154720, Note_on_c, 2, 41, 0
5, 154728, Note_on_c, 2, 64, 0
5, 154744, Note_on_c, 2, 57, 0
5, 154744, Note_on_c, 2, 60, 0
5, 154744, Note_on_c, 2, 53, 0
5, 154944, Note_on_c, 2, 53, 108
5, 154944, Note_on_c, 2, 57, 100
5, 154944, Note_on_c, 2, 60, 94
5, 154948, Note_on_c, 2, 43, 117
5, 154948, Note_on_c, 2, 64, 94
5, 155096, Note_on_c, 2, 43, 0
5, 155140, Note_on_c, 2, 60, 0
5, 155140, Note_on_c, 2, 57, 0
5, 155144, Note_on_c, 2, 64, 0
5, 155156, Note_on_c, 2, 53, 0
5, 155328, Note_on_c, 2, 43, 106
5, 155400, Note_on_c, 2, 43, 0
5, 155516, Note_on_c, 2, 53, 95
5, 155516, Note_on_c, 2, 57, 88
5, 155516, Note_on_c, 2, 64, 91
5, 155520, Note_on_c, 2, 60, 75
5, 155628, Note_on_c, 2, 60, 0
5, 155656, Note_on_c, 2, 57, 0
5, 155664, Note_on_c, 2, 64, 0
5, 155664, Note_on_c, 2, 53, 0
5, 155712, Note_on_c, 2, 43, 110
5, 155760, Note_on_c, 2, 43, 0
5, 155900, Note_on_c, 2, 53, 108
5, 155900, Note_on_c, 2, 57, 98
5, 155900, Note_on_c, 2, 64, 97
5, 155900, Note_on_c, 2, 60, 102
5, 155904, Note_on_c, 2, 43, 112
5, 156448, Note_on_c, 2, 64, 0
5, 156448, Note_on_c, 2, 57, 0
5, 156456, Note_on_c, 2, 60, 0
5, 156456, Note_on_c, 2, 53, 0
5, 156652, Note_on_c, 2, 43, 0
5, 156664, Note_on_c, 2, 41, 92
5, 156668, Note_on_c, 2, 53, 92
5, 156668, Note_on_c, 2, 60, 86
5, 156668, Note_on_c, 2, 57, 87
5, 156668, Note_on_c, 2, 64, 84
5, 156808, Note_on_c, 2, 64, 0
5, 156816, Note_on_c, 2, 60, 0
5, 156816, Note_on_c, 2, 53, 0
5, 156816, Note_on_c, 2, 57, 0
5, 156868, Note_on_c, 2, 41, 0
5, 157052, Note_on_c, 2, 53, 110
5, 157056, Note_on_c, 2, 60, 95
5, 157056, Note_on_c, 2, 57, 100
5, 157056, Note_on_c, 2, 64, 97
5, 157056, Note_on_c, 2, 41, 104
5, 157816, Note_on_c, 2, 60, 0
5, 157824, Note_on_c, 2, 64, 0
5, 157824, Note_on_c, 2, 57, 0
5, 157828, Note_on_c, 2, 53, 0
5, 157916, Note_on_c, 2, 41, 0
5, 158008, Note_on_c, 2, 43, 92
5, 158016, Note_on_c, 2, 60, 97
5, 158016, Note_on_c, 2, 53, 108
5, 158020, Note_on_c, 2, 57, 100
5, 158020, Note_on_c, 2, 64, 80
5, 158164, Note_on_c, 2, 43, 0
5, 158216, Note_on_c, 2, 64, 0
5, 158252, Note_on_c, 2, 57, 0
5, 158276, Note_on_c, 2, 60, 0
5, 158300, Note_on_c, 2, 53, 0
5, 158404, Note_on_c, 2, 43, 104
5, 158504, Note_on_c, 2, 43, 0
5, 158588, Note_on_c, 2, 53, 98
5, 158588, Note_on_c, 2, 57, 91
5, 158588, Note_on_c, 2, 60, 95
5, 158592, Note_on_c, 2, 64, 72
5, 158632, Note_on_c, 2, 64, 0
5, 158764, Note_on_c, 2, 57, 0
5, 158768, Note_on_c, 2, 60, 0
5, 158772, Note_on_c, 2, 53, 0
5, 158784, Note_on_c, 2, 43, 80
5, 158824, Note_on_c, 2, 43, 0
5, 158972, Note_on_c, 2, 53, 106
5, 158976, Note_on_c, 2, 60, 97
5, 158976, Note_on_c, 2, 57, 98
5, 158976, Note_on_c, 2, 43, 112
5, 159484, Note_on_c, 2, 57, 0
5, 159504, Note_on_c, 2, 53, 0
5, 159508, Note_on_c, 2, 60, 0
5, 159740, Note_on_c, 2, 60, 90
5, 159740, Note_on_c, 2, 53, 108
5, 159740, Note_on_c, 2, 57, 90
5, 159740, Note_on_c, 2, 64, 86
5, 159740, Note_on_c, 2, 41, 97
5, 159748, Note_on_c, 2, 43, 0
5, 159904, Note_on_c, 2, 41, 0
5, 159912, Note_on_c, 2, 60, 0
5, 159912, Note_on_c, 2, 57, 0
5, 159912, Note_on_c, 2, 64, 0
5, 159928, Note_on_c, 2, 53, 0
5, 160128, Note_on_c, 2, 53, 110
5, 160128, Note_on_c, 2, 57, 98
5, 160128, Note_on_c, 2, 60, 97
5, 160128, Note_on_c, 2, 64, 100
5, 160132, Note_on_c, 2, 41, 108
5, 160896, Note_on_c, 2, 64, 0
5, 160896, Note_on_c, 2, 60, 0
5, 160900, Note_on_c, 2, 57, 0
5, 160900, Note_on_c, 2, 53, 0
5, 160904, Note_on_c, 2, 41, 0
5, 161088, Note_on_c, 2, 53, 110
5, 161088, Note_on_c, 2, 60, 95
5, 161088, Note_on_c, 2, 64, 100
5, 161088, Note_on_c, 2, 57, 100
5, 161092, Note_on_c, 2, 43, 114
5, 161256, Note_on_c, 2, 43, 0
5, 161316, Note_on_c, 2, 60, 0
5, 161324, Note_on_c, 2, 57, 0
5, 161324, Note_on_c, 2, 53, 0
5, 161344, Note_on_c, 2, 64, 0
5, 161480, Note_on_c, 2, 43, 104
5, 161596, Note_on_c, 2, 43, 0
5, 161660, Note_on_c, 2, 60, 92
5, 161660, Note_on_c, 2, 53, 110
5, 161660, Note_on_c, 2, 64, 90
5, 161660, Note_on_c, 2, 57, 94
5, 161800, Note_on_c, 2, 64, 0
5, 161808, Note_on_c, 2, 53, 0
5, 161808, Note_on_c, 2, 57, 0
5, 161808, Note_on_c, 2, 60, 0
5, 161864, Note_on_c, 2, 43, 94
5, 161904, Note_on_c, 2, 43, 0
5, 162044, Note_on_c, 2, 55, 108
5, 162044, Note_on_c, 2, 59, 104
5, 162044, Note_on_c, 2, 43, 106
5, 162544, Note_on_c, 2, 55, 0
5, 162552, Note_on_c, 2, 59, 0
5, 162708, Note_on_c, 2, 43, 0
5, 162812, Note_on_c, 2, 60, 92
5, 162812, Note_on_c, 2, 53, 110
5, 162812, Note_on_c, 2, 41, 98
5, 162816, Note_on_c, 2, 57, 90
5, 162816, Note_on_c, 2, 64, 79
5, 162916, Note_on_c, 2, 57, 0
5, 162924, Note_on_c, 2, 64, 0
5, 162936, Note_on_c, 2, 60, 0
5, 162952, Note_on_c, 2, 53, 0
5, 162976, Note_on_c, 2, 41, 0
5, 163196, Note_on_c, 2, 53, 108
5, 163200, Note_on_c, 2, 60, 97
5, 163200, Note_on_c, 2, 57, 98
5, 163200, Note_on_c, 2, 64, 95
5, 163200, Note_on_c, 2, 41, 108
5, 164004, Note_on_c, 2, 57, 0
5, 164012, Note_on_c, 2, 64, 0
5, 164012, Note_on_c, 2, 60, 0
5, 164024, Note_on_c, 2, 53, 0
5, 164160, Note_on_c, 2, 43, 102
5, 164164, Note_on_c, 2, 53, 110
5, 164164, Note_on_c, 2, 60, 98
5, 164164, Note_on_c, 2, 57, 98
5, 164164, Note_on_c, 2, 64, 86
5, 164184, Note_on_c, 2, 41, 0
5, 164288, Note_on_c, 2, 57, 0
5, 164296, Note_on_c, 2, 64, 0
5, 164304, Note_on_c, 2, 60, 0
5, 164312, Note_on_c, 2, 53, 0
5, 164324, Note_on_c, 2, 43, 0
5, 164552, Note_on_c, 2, 43, 117
5, 164636, Note_on_c, 2, 43, 0
5, 164732, Note_on_c, 2, 53, 108
5, 164732, Note_on_c, 2, 57, 95
5, 164872, Note_on_c, 2, 57, 0
5, 164904, Note_on_c, 2, 53, 0
5, 164932, Note_on_c, 2, 43, 86
5, 164980, Note_on_c, 2, 43, 0
5, 165120, Note_on_c, 2, 53, 112
5, 165120, Note_on_c, 2, 60, 100
5, 165120, Note_on_c, 2, 57, 102
5, 165120, Note_on_c, 2, 43, 106
5, 165124, Note_on_c, 2, 64, 100
5, 165704, Note_on_c, 2, 0, 64
5, 165704, Note_on_c, 2, 0, 0
5, 165704, Note_on_c, 2, 0, 60
5, 165704, Note_on_c, 2, 0, 0
5, 165704, Note_on_c, 2, 0, 53
5, 165820, Note_on_c, 2, 57, 0
5, 165856, Note_on_c, 2, 43, 0
5, 165880, Note_on_c, 2, 60, 0
5, 165880, Note_on_c, 2, 53, 0
5, 165884, Note_on_c, 2, 64, 0
5, 165884, Note_on_c, 2, 41, 92
5, 165888, Note_on_c, 2, 53, 104
5, 165888, Note_on_c, 2, 60, 92
5, 165892, Note_on_c, 2, 57, 88
5, 165892, Note_on_c, 2, 64, 90
5, 165984, Note_on_c, 2, 64, 0
5, 165984, Note_on_c, 2, 57, 0
5, 166004, Note_on_c, 2, 60, 0
5, 166012, Note_on_c, 2, 53, 0
5, 166016, Note_on_c, 2, 41, 0
5, 166272, Note_on_c, 2, 41, 104
5, 166276, Note_on_c, 2, 53, 112
5, 166276, Note_on_c, 2, 60, 98
5, 166276, Note_on_c, 2, 57, 100
5, 166276, Note_on_c, 2, 64, 95
5, 167056, Note_on_c, 2, 64, 0
5, 167056, Note_on_c, 2, 60, 0
5, 167056, Note_on_c, 2, 57, 0
5, 167072, Note_on_c, 2, 53, 0
5, 167204, Note_on_c, 2, 41, 0
5, 167224, Note_on_c, 2, 43, 100
5, 167236, Note_on_c, 2, 53, 110
5, 167236, Note_on_c, 2, 60, 97
5, 167236, Note_on_c, 2, 57, 95
5, 167236, Note_on_c, 2, 64, 91
5, 167296, Note_on_c, 2, 57, 0
5, 167304, Note_on_c, 2, 64, 0
5, 167320, Note_on_c, 2, 60, 0
5, 167328, Note_on_c, 2, 53, 0
5, 167388, Note_on_c, 2, 43, 0
5, 167616, Note_on_c, 2, 43, 106
5, 167712, Note_on_c, 2, 43, 0
5, 167804, Note_on_c, 2, 53, 110
5, 167808, Note_on_c, 2, 57, 98
5, 167808, Note_on_c, 2, 60, 94
5, 167808, Note_on_c, 2, 64, 91
5, 167948, Note_on_c, 2, 64, 0
5, 167956, Note_on_c, 2, 57, 0
5, 167964, Note_on_c, 2, 60, 0
5, 167968, Note_on_c, 2, 53, 0
5, 167996, Note_on_c, 2, 43, 90
5, 168040, Note_on_c, 2, 43, 0
5, 168188, Note_on_c, 2, 53, 110
5, 168188, Note_on_c, 2, 57, 104
5, 168192, Note_on_c, 2, 60, 97
5, 168192, Note_on_c, 2, 64, 91
5, 168192, Note_on_c, 2, 43, 117
5, 168728, Note_on_c, 2, 64, 0
5, 168728, Note_on_c, 2, 57, 0
5, 168728, Note_on_c, 2, 60, 0
5, 168744, Note_on_c, 2, 53, 0
5, 168956, Note_on_c, 2, 43, 0
5, 168956, Note_on_c, 2, 41, 97
5, 168956, Note_on_c, 2, 53, 110
5, 168956, Note_on_c, 2, 57, 95
5, 168956, Note_on_c, 2, 60, 95
5, 168956, Note_on_c, 2, 64, 95
5, 169096, Note_on_c, 2, 64, 0
5, 169096, Note_on_c, 2, 57, 0
5, 169096, Note_on_c, 2, 60, 0
5, 169104, Note_on_c, 2, 53, 0
5, 169120, Note_on_c, 2, 41, 0
5, 169344, Note_on_c, 2, 41, 98
5, 169348, Note_on_c, 2, 53, 112
5, 169348, Note_on_c, 2, 57, 100
5, 169348, Note_on_c, 2, 60, 98
5, 169348, Note_on_c, 2, 64, 98
5, 170104, Note_on_c, 2, 64, 0
5, 170120, Note_on_c, 2, 57, 0
5, 170120, Note_on_c, 2, 53, 0
5, 170120, Note_on_c, 2, 60, 0
5, 170172, Note_on_c, 2, 41, 0
5, 170308, Note_on_c, 2, 53, 112
5, 170308, Note_on_c, 2, 60, 98
5, 170308, Note_on_c, 2, 57, 102
5, 170308, Note_on_c, 2, 64, 97
5, 170308, Note_on_c, 2, 43, 112
5, 170464, Note_on_c, 2, 64, 0
5, 170464, Note_on_c, 2, 60, 0
5, 170464, Note_on_c, 2, 57, 0
5, 170472, Note_on_c, 2, 53, 0
5, 170480, Note_on_c, 2, 43, 0
5, 170684, Note_on_c, 2, 43, 108
5, 170880, Note_on_c, 2, 64, 98
5, 170880, Note_on_c, 2, 60, 95
5, 170884, Note_on_c, 2, 57, 106
5, 170884, Note_on_c, 2, 53, 114
5, 171768, Note_on_c, 2, 53, 0
5, 171768, Note_on_c, 2, 57, 0
5, 171776, Note_on_c, 2, 64, 0
5, 171776, Note_on_c, 2, 60, 0
5, 172028, Note_on_c, 2, 53, 110
5, 172028, Note_on_c, 2, 64, 95
5, 172028, Note_on_c, 2, 60, 92
5, 172028, Note_on_c, 2, 57, 100
5, 172028, Note_on_c, 2, 41, 100
5, 172036, Note_on_c, 2, 43, 0
5, 172164, Note_on_c, 2, 64, 0
5, 172164, Note_on_c, 2, 60, 0
5, 172164, Note_on_c, 2, 57, 0
5, 172184, Note_on_c, 2, 53, 0
5, 172192, Note_on_c, 2, 41, 0
5, 172416, Note_on_c, 2, 53, 120
5, 172416, Note_on_c, 2, 57, 106
5, 172416, Note_on_c, 2, 60, 100
5, 172416, Note_on_c, 2, 64, 94
5, 172416, Note_on_c, 2, 41, 106
5, 173204, Note_on_c, 2, 64, 0
5, 173204, Note_on_c, 2, 57, 0
5, 173212, Note_on_c, 2, 60, 0
5, 173212, Note_on_c, 2, 53, 0
5, 173336, Note_on_c, 2, 41, 0
5, 173376, Note_on_c, 2, 53, 110
5, 173376, Note_on_c, 2, 57, 100
5, 173376, Note_on_c, 2, 64, 97
5, 173376, Note_on_c, 2, 43, 100
5, 173380, Note_on_c, 2, 60, 94
5, 173484, Note_on_c, 2, 57, 0
5, 173496, Note_on_c, 2, 60, 0
5, 173500, Note_on_c, 2, 64, 0
5, 173500, Note_on_c, 2, 53, 0
5, 173516, Note_on_c, 2, 43, 0
5, 173764, Note_on_c, 2, 43, 106
5, 173836, Note_on_c, 2, 43, 0
5, 173956, Note_on_c, 2, 53, 110
5, 173956, Note_on_c, 2, 57, 104
5, 173956, Note_on_c, 2, 64, 95
5, 173956, Note_on_c, 2, 60, 94
5, 174096, Note_on_c, 2, 64, 0
5, 174104, Note_on_c, 2, 57, 0
5, 174104, Note_on_c, 2, 53, 0
5, 174104, Note_on_c, 2, 60, 0
5, 174144, Note_on_c, 2, 43, 102
5, 174208, Note_on_c, 2, 43, 0
5, 174332, Note_on_c, 2, 60, 100
5, 174332, Note_on_c, 2, 57, 106
5, 174336, Note_on_c, 2, 53, 117
5, 174336, Note_on_c, 2, 64, 92
5, 174336, Note_on_c, 2, 43, 112
5, 174872, Note_on_c, 2, 64, 0
5, 174872, Note_on_c, 2, 53, 0
5, 174880, Note_on_c, 2, 57, 0
5, 174888, Note_on_c, 2, 60, 0
5, 174900, Note_on_c, 2, 43, 0
5, 175104, Note_on_c, 2, 53, 110
5, 175104, Note_on_c, 2, 57, 100
5, 175104, Note_on_c, 2, 64, 98
5, 175104, Note_on_c, 2, 60, 97
5, 175108, Note_on_c, 2, 41, 106
5, 175228, Note_on_c, 2, 41, 0
5, 175244, Note_on_c, 2, 57, 0
5, 175244, Note_on_c, 2, 64, 0
5, 175260, Note_on_c, 2, 53, 0
5, 175260, Note_on_c, 2, 60, 0
5, 175488, Note_on_c, 2, 53, 110
5, 175488, Note_on_c, 2, 57, 100
5, 175488, Note_on_c, 2, 64, 98
5, 175488, Note_on_c, 2, 60, 95
5, 175488, Note_on_c, 2, 41, 106
5, 176012, Note_on_c, 2, 41, 0
5, 176292, Note_on_c, 2, 64, 0
5, 176300, Note_on_c, 2, 57, 0
5, 176300, Note_on_c, 2, 53, 0
5, 176300, Note_on_c, 2, 60, 0
5, 176452, Note_on_c, 2, 53, 112
5, 176452, Note_on_c, 2, 57, 100
5, 176452, Note_on_c, 2, 60, 98
5, 176452, Note_on_c, 2, 64, 97
5, 176452, Note_on_c, 2, 43, 114
5, 176576, Note_on_c, 2, 43, 0
5, 176632, Note_on_c, 2, 57, 0
5, 176632, Note_on_c, 2, 53, 0
5, 176632, Note_on_c, 2, 60, 0
5, 176648, Note_on_c, 2, 64, 0
5, 176832, Note_on_c, 2, 43, 117
5, 176936, Note_on_c, 2, 43, 0
5, 177020, Note_on_c, 2, 55, 100
5, 177020, Note_on_c, 2, 62, 98
5, 177020, Note_on_c, 2, 59, 98
5, 177200, Note_on_c, 2, 59, 0
5, 177200, Note_on_c, 2, 55, 0
5, 177200, Note_on_c, 2, 62, 0
5, 177212, Note_on_c, 2, 43, 102
5, 177276, Note_on_c, 2, 43, 0
5, 177404, Note_on_c, 2, 62, 102
5, 177404, Note_on_c, 2, 55, 108
5, 177404, Note_on_c, 2, 59, 100
5, 177404, Note_on_c, 2, 43, 104
5, 177720, Note_on_c, 2, 112, 0
5, 177912, Note_on_c, 2, 59, 0
5, 177912, Note_on_c, 2, 55, 0
5, 177920, Note_on_c, 2, 62, 0
5, 178036, Note_on_c, 2, 43, 0
5, 178180, Note_on_c, 2, 53, 100
5, 178180, Note_on_c, 2, 57, 86
5, 178180, Note_on_c, 2, 64, 67
5, 178180, Note_on_c, 2, 41, 108
5, 178184, Note_on_c, 2, 60, 78
5, 178256, Note_on_c, 2, 60, 0
5, 178280, Note_on_c, 2, 64, 0
5, 178304, Note_on_c, 2, 57, 0
5, 178304, Note_on_c, 2, 41, 0
5, 178328, Note_on_c, 2, 53, 0
5, 178556, Note_on_c, 2, 53, 100
5, 178556, Note_on_c, 2, 64, 91
5, 178556, Note_on_c, 2, 60, 97
5, 178560, Note_on_c, 2, 57, 78
5, 178564, Note_on_c, 2, 41, 104
5, 179292, Note_on_c, 2, 57, 0
5, 179300, Note_on_c, 2, 60, 0
5, 179300, Note_on_c, 2, 64, 0
5, 179300, Note_on_c, 2, 53, 0
5, 179320, Note_on_c, 2, 41, 0
5, 179512, Note_on_c, 2, 57, 95
5, 179512, Note_on_c, 2, 53, 104
5, 179512, Note_on_c, 2, 60, 92
5, 179512, Note_on_c, 2, 64, 90
5, 179516, Note_on_c, 2, 43, 114
5, 179660, Note_on_c, 2, 64, 0
5, 179668, Note_on_c, 2, 60, 0
5, 179668, Note_on_c, 2, 57, 0
5, 179684, Note_on_c, 2, 53, 0
5, 179696, Note_on_c, 2, 43, 0
5, 179900, Note_on_c, 2, 43, 117
5, 180040, Note_on_c, 2, 43, 0
5, 180092, Note_on_c, 2, 53, 106
5, 180092, Note_on_c, 2, 57, 95
5, 180092, Note_on_c, 2, 64, 92
5, 180092, Note_on_c, 2, 60, 90
5, 180248, Note_on_c, 2, 60, 0
5, 180248, Note_on_c, 2, 57, 0
5, 180248, Note_on_c, 2, 64, 0
5, 180264, Note_on_c, 2, 53, 0
5, 180288, Note_on_c, 2, 43, 92
5, 180340, Note_on_c, 2, 43, 0
5, 180480, Note_on_c, 2, 53, 110
5, 180480, Note_on_c, 2, 57, 104
5, 180480, Note_on_c, 2, 60, 95
5, 180480, Note_on_c, 2, 64, 98
5, 180480, Note_on_c, 2, 43, 110
5, 181036, Note_on_c, 2, 64, 0
5, 181036, Note_on_c, 2, 60, 0
5, 181036, Note_on_c, 2, 57, 0
5, 181052, Note_on_c, 2, 53, 0
5, 181244, Note_on_c, 2, 53, 106
5, 181244, Note_on_c, 2, 64, 92
5, 181248, Note_on_c, 2, 41, 97
5, 181256, Note_on_c, 2, 43, 0
5, 181400, Note_on_c, 2, 64, 0
5, 181424, Note_on_c, 2, 53, 0
5, 181628, Note_on_c, 2, 53, 112
5, 181628, Note_on_c, 2, 57, 104
5, 181632, Note_on_c, 2, 64, 100
5, 181632, Note_on_c, 2, 60, 97
5, 181772, Note_on_c, 2, 41, 0
5, 182444, Note_on_c, 2, 64, 0
5, 182452, Note_on_c, 2, 60, 0
5, 182456, Note_on_c, 2, 53, 0
5, 182456, Note_on_c, 2, 57, 0
5, 182592, Note_on_c, 2, 43, 122
5, 182596, Note_on_c, 2, 53, 114
5, 182596, Note_on_c, 2, 57, 104
5, 182596, Note_on_c, 2, 60, 98
5, 182596, Note_on_c, 2, 64, 102
5, 182744, Note_on_c, 2, 64, 0
5, 182744, Note_on_c, 2, 57, 0
5, 182744, Note_on_c, 2, 43, 0
5, 182744, Note_on_c, 2, 60, 0
5, 182752, Note_on_c, 2, 53, 0
5, 182972, Note_on_c, 2, 43, 100
5, 183128, Note_on_c, 2, 43, 0
5, 183164, Note_on_c, 2, 53, 110
5, 183164, Note_on_c, 2, 64, 98
5, 183168, Note_on_c, 2, 57, 94
5, 183168, Note_on_c, 2, 60, 87
5, 183320, Note_on_c, 2, 60, 0
5, 183320, Note_on_c, 2, 57, 0
5, 183336, Note_on_c, 2, 64, 0
5, 183344, Note_on_c, 2, 53, 0
5, 183356, Note_on_c, 2, 43, 81
5, 183404, Note_on_c, 2, 43, 0
5, 183548, Note_on_c, 2, 53, 112
5, 183548, Note_on_c, 2, 57, 104
5, 183548, Note_on_c, 2, 60, 98
5, 183548, Note_on_c, 2, 64, 95
5, 183548, Note_on_c, 2, 43, 104
5, 184112, Note_on_c, 2, 64, 0
5, 184112, Note_on_c, 2, 60, 0
5, 184112, Note_on_c, 2, 57, 0
5, 184112, Note_on_c, 2, 53, 0
5, 184304, Note_on_c, 2, 43, 0
5, 184316, Note_on_c, 2, 41, 97
5, 184316, Note_on_c, 2, 53, 102
5, 184316, Note_on_c, 2, 60, 90
5, 184316, Note_on_c, 2, 57, 94
5, 184316, Note_on_c, 2, 64, 88
5, 184480, Note_on_c, 2, 64, 0
5, 184480, Note_on_c, 2, 60, 0
5, 184480, Note_on_c, 2, 41, 0
5, 184480, Note_on_c, 2, 57, 0
5, 184496, Note_on_c, 2, 53, 0
5, 184700, Note_on_c, 2, 41, 106
5, 184704, Note_on_c, 2, 53, 112
5, 184704, Note_on_c, 2, 64, 97
5, 184704, Note_on_c, 2, 57, 102
5, 184704, Note_on_c, 2, 60, 95
5, 185528, Note_on_c, 2, 41, 0
5, 185556, Note_on_c, 2, 53, 0
5, 185556, Note_on_c, 2, 64, 0
5, 185556, Note_on_c, 2, 57, 0
5, 185556, Note_on_c, 2, 60, 0
5, 185664, Note_on_c, 2, 43, 114
5, 185668, Note_on_c, 2, 53, 112
5, 185668, Note_on_c, 2, 64, 95
5, 185668, Note_on_c, 2, 57, 102
5, 185668, Note_on_c, 2, 60, 94
5, 185820, Note_on_c, 2, 60, 0
5, 185820, Note_on_c, 2, 64, 0
5, 185820, Note_on_c, 2, 57, 0
5, 185828, Note_on_c, 2, 53, 0
5, 185916, Note_on_c, 2, 43, 0
5, 186048, Note_on_c, 2, 43, 112
5, 186240, Note_on_c, 2, 60, 92
5, 186240, Note_on_c, 2, 53, 108
5, 186240, Note_on_c, 2, 57, 95
5, 186240, Note_on_c, 2, 64, 90
5, 186292, Note_on_c, 2, 43, 0
5, 186404, Note_on_c, 2, 57, 0
5, 186412, Note_on_c, 2, 60, 0
5, 186412, Note_on_c, 2, 64, 0
5, 186420, Note_on_c, 2, 53, 0
5, 186444, Note_on_c, 2, 43, 78
5, 186472, Note_on_c, 2, 43, 0
5, 186620, Note_on_c, 2, 53, 112
5, 186620, Note_on_c, 2, 57, 102
5, 186620, Note_on_c, 2, 64, 94
5, 186620, Note_on_c, 2, 60, 91
5, 186632, Note_on_c, 2, 43, 112
5, 187072, Note_on_c, 2, 60, 0
5, 187088, Note_on_c, 2, 57, 0
5, 187088, Note_on_c, 2, 53, 0
5, 187096, Note_on_c, 2, 64, 0
5, 187240, Note_on_c, 2, 43, 0
5, 187380, Note_on_c, 2, 53, 108
5, 187380, Note_on_c, 2, 64, 90
5, 187380, Note_on_c, 2, 57, 98
5, 187380, Note_on_c, 2, 60, 91
5, 187396, Note_on_c, 2, 41, 100
5, 187544, Note_on_c, 2, 41, 0
5, 187560, Note_on_c, 2, 57, 0
5, 187560, Note_on_c, 2, 60, 0
5, 187568, Note_on_c, 2, 53, 0
5, 187568, Note_on_c, 2, 64, 0
5, 187772, Note_on_c, 2, 64, 91
5, 187772, Note_on_c, 2, 53, 110
5, 187772, Note_on_c, 2, 60, 90
5, 187772, Note_on_c, 2, 57, 95
5, 187776, Note_on_c, 2, 41, 106
5, 188636, Note_on_c, 2, 41, 0
5, 188636, Note_on_c, 2, 60, 0
5, 188636, Note_on_c, 2, 53, 0
5, 188636, Note_on_c, 2, 57, 0
5, 188644, Note_on_c, 2, 64, 0
5, 188736, Note_on_c, 2, 43, 114
5, 188744, Note_on_c, 2, 53, 110
5, 188744, Note_on_c, 2, 57, 97
5, 188744, Note_on_c, 2, 60, 92
5, 188744, Note_on_c, 2, 64, 91
5, 188876, Note_on_c, 2, 64, 0
5, 188876, Note_on_c, 2, 57, 0
5, 188876, Note_on_c, 2, 60, 0
5, 188900, Note_on_c, 2, 53, 0
5, 188980, Note_on_c, 2, 43, 0
5, 189124, Note_on_c, 2, 43, 108
5, 189280, Note_on_c, 2, 43, 0
5, 189308, Note_on_c, 2, 53, 108
5, 189308, Note_on_c, 2, 60, 94
5, 189308, Note_on_c, 2, 64, 94
5, 189308, Note_on_c, 2, 57, 98
5, 189464, Note_on_c, 2, 57, 0
5, 189464, Note_on_c, 2, 60, 0
5, 189472, Note_on_c, 2, 64, 0
5, 189472, Note_on_c, 2, 53, 0
5, 189504, Note_on_c, 2, 43, 77
5, 189560, Note_on_c, 2, 43, 0
5, 189692, Note_on_c, 2, 53, 112
5, 189692, Note_on_c, 2, 57, 104
5, 189692, Note_on_c, 2, 60, 97
5, 189692, Note_on_c, 2, 64, 97
5, 189692, Note_on_c, 2, 43, 112
5, 190256, Note_on_c, 2, 64, 0
5, 190256, Note_on_c, 2, 60, 0
5, 190256, Note_on_c, 2, 57, 0
5, 190260, Note_on_c, 2, 53, 0
5, 190364, Note_on_c, 2, 43, 0
5, 190464, Note_on_c, 2, 53, 106
5, 190464, Note_on_c, 2, 57, 98
5, 190464, Note_on_c, 2, 64, 95
5, 190464, Note_on_c, 2, 60, 90
5, 190464, Note_on_c, 2, 41, 100
5, 190636, Note_on_c, 2, 60, 0
5, 190636, Note_on_c, 2, 64, 0
5, 190644, Note_on_c, 2, 57, 0
5, 190652, Note_on_c, 2, 53, 0
5, 190652, Note_on_c, 2, 41, 0
5, 190852, Note_on_c, 2, 53, 110
5, 190852, Note_on_c, 2, 57, 102
5, 190852, Note_on_c, 2, 64, 95
5, 190852, Note_on_c, 2, 60, 95
5, 190852, Note_on_c, 2, 41, 98
5, 191680, Note_on_c, 2, 41, 0
5, 191680, Note_on_c, 2, 64, 0
5, 191680, Note_on_c, 2, 53, 0
5, 191680, Note_on_c, 2, 60, 0
5, 191688, Note_on_c, 2, 57, 0
5, 191804, Note_on_c, 2, 43, 97
5, 191812, Note_on_c, 2, 53, 110
5, 191812, Note_on_c, 2, 57, 100
5, 191812, Note_on_c, 2, 60, 95
5, 191812, Note_on_c, 2, 64, 90
5, 191976, Note_on_c, 2, 43, 0
5, 192000, Note_on_c, 2, 60, 0
5, 192000, Note_on_c, 2, 57, 0
5, 192000, Note_on_c, 2, 64, 0
5, 192020, Note_on_c, 2, 53, 0
5, 192192, Note_on_c, 2, 43, 92
5, 192328, Note_on_c, 2, 43, 0
5, 192380, Note_on_c, 2, 64, 94
5, 192380, Note_on_c, 2, 53, 114
5, 192380, Note_on_c, 2, 60, 95
5, 192380, Note_on_c, 2, 57, 102
5, 192528, Note_on_c, 2, 57, 0
5, 192528, Note_on_c, 2, 64, 0
5, 192528, Note_on_c, 2, 60, 0
5, 192536, Note_on_c, 2, 53, 0
5, 192564, Note_on_c, 2, 43, 86
5, 192640, Note_on_c, 2, 43, 0
5, 192760, Note_on_c, 2, 43, 108
5, 192764, Note_on_c, 2, 53, 112
5, 192764, Note_on_c, 2, 57, 106
5, 192764, Note_on_c, 2, 60, 97
5, 192764, Note_on_c, 2, 64, 98
5, 193260, Note_on_c, 2, 43, 0
5, 193516, Note_on_c, 2, 57, 0
5, 193520, Note_on_c, 2, 53, 0
5, 193524, Note_on_c, 2, 60, 0
5, 193528, Note_on_c, 2, 64, 0
5, 193532, Note_on_c, 2, 59, 104
5, 193532, Note_on_c, 2, 64, 100
5, 193532, Note_on_c, 2, 53, 114
5, 193532, Note_on_c, 2, 57, 98
5, 193532, Note_on_c, 2, 41, 117
5, 196640, Note_on_c, 2, 41, 0
5, 196780, Note_on_c, 2, 59, 0
5, 196788, Note_on_c, 2, 57, 0
5, 196788, Note_on_c, 2, 64, 0
5, 196796, Note_on_c, 2, 53, 0
5, 199276, Note_on_c, 2, 0, 0
5, 199276, End_track
6, 0, Start_track
6, 0, MIDI_port, 0
6, 0, Title_t, "Guitar 1"
6, 0, Control_c, 0, 32, 0
6, 0, Control_c, 3, 91, 127
6, 0, Control_c, 3, 93, 92
6, 672, Control_c, 3, 120, 0
6, 768, Control_c, 3, 121, 0
6, 960, Control_c, 3, 100, 0
6, 1056, Control_c, 3, 101, 0
6, 1152, Control_c, 3, 6, 2
6, 6152, Control_c, 3, 11, 10
6, 6156, Note_on_c, 3, 69, 127
6, 6200, Control_c, 3, 11, 11
6, 6248, Control_c, 3, 11, 13
6, 6296, Control_c, 3, 11, 15
6, 6344, Control_c, 3, 11, 17
6, 6392, Control_c, 3, 11, 19
6, 6440, Control_c, 3, 11, 21
6, 6488, Control_c, 3, 11, 23
6, 6536, Control_c, 3, 11, 25
6, 6584, Control_c, 3, 11, 26
6, 6632, Control_c, 3, 11, 28
6, 6680, Control_c, 3, 11, 30
6, 6700, Control_c, 3, 1, 2
6, 6712, Control_c, 3, 1, 4
6, 6724, Control_c, 3, 1, 7
6, 6728, Control_c, 3, 11, 32
6, 6732, Control_c, 3, 1, 9
6, 6744, Control_c, 3, 1, 11
6, 6756, Control_c, 3, 1, 13
6, 6764, Control_c, 3, 1, 15
6, 6776, Control_c, 3, 11, 34
6, 6788, Control_c, 3, 1, 17
6, 6800, Control_c, 3, 1, 18
6, 6808, Control_c, 3, 1, 19
6, 6820, Control_c, 3, 1, 20
6, 6824, Control_c, 3, 11, 36
6, 6832, Control_c, 3, 1, 22
6, 6856, Control_c, 3, 1, 23
6, 6872, Control_c, 3, 11, 38
6, 6876, Control_c, 3, 1, 25
6, 6900, Control_c, 3, 1, 26
6, 6908, Control_c, 3, 1, 27
6, 6920, Control_c, 3, 11, 40
6, 6920, Control_c, 3, 1, 28
6, 6944, Control_c, 3, 1, 29
6, 6952, Control_c, 3, 1, 30
6, 6964, Control_c, 3, 1, 31
6, 6968, Control_c, 3, 11, 41
6, 6976, Control_c, 3, 1, 33
6, 6988, Control_c, 3, 1, 34
6, 7008, Control_c, 3, 1, 35
6, 7016, Control_c, 3, 11, 43
6, 7032, Control_c, 3, 1, 36
6, 7040, Control_c, 3, 1, 37
6, 7064, Control_c, 3, 11, 45
6, 7108, Control_c, 3, 1, 38
6, 7112, Control_c, 3, 11, 47
6, 7128, Control_c, 3, 1, 39
6, 7152, Control_c, 3, 1, 41
6, 7160, Control_c, 3, 11, 49
6, 7172, Control_c, 3, 1, 42
6, 7208, Control_c, 3, 11, 51
6, 7228, Control_c, 3, 1, 43
6, 7256, Control_c, 3, 11, 53
6, 7304, Control_c, 3, 11, 55
6, 7352, Control_c, 3, 11, 56
6, 7400, Control_c, 3, 11, 58
6, 7404, Control_c, 3, 1, 37
6, 7416, Control_c, 3, 1, 27
6, 7428, Control_c, 3, 1, 1
6, 7436, Control_c, 3, 1, 0
6, 7448, Control_c, 3, 11, 60
6, 7496, Control_c, 3, 11, 62
6, 7544, Control_c, 3, 11, 64
6, 7592, Control_c, 3, 11, 66
6, 7640, Control_c, 3, 11, 68
6, 7684, Control_c, 3, 11, 70
6, 7836, Pitch_bend_c, 3, 7943
6, 7844, Pitch_bend_c, 3, 7529
6, 7856, Pitch_bend_c, 3, 7281
6, 7868, Pitch_bend_c, 3, 6867
6, 7876, Pitch_bend_c, 3, 6454
6, 7888, Pitch_bend_c, 3, 6040
6, 7900, Pitch_bend_c, 3, 5461
6, 7912, Pitch_bend_c, 3, 4882
6, 7920, Pitch_bend_c, 3, 4302
6, 7932, Pitch_bend_c, 3, 3640
6, 7944, Pitch_bend_c, 3, 3061
6, 7952, Note_on_c, 3, 69, 0
6, 7956, Pitch_bend_c, 3, 2647
6, 7968, Pitch_bend_c, 3, 2234
6, 7980, Pitch_bend_c, 3, 1820
6, 7988, Pitch_bend_c, 3, 1572
6, 8000, Pitch_bend_c, 3, 1406
6, 8044, Pitch_bend_c, 3, 2482
6, 8056, Pitch_bend_c, 3, 4220
6, 8068, Pitch_bend_c, 3, 8192
6, 8460, Note_on_c, 3, 62, 127
6, 8660, Pitch_bend_c, 3, 9598
6, 8672, Pitch_bend_c, 3, 12576
6, 8684, Pitch_bend_c, 3, 15555
6, 8696, Pitch_bend_c, 3, 16383
6, 8840, Pitch_bend_c, 3, 14728
6, 8848, Pitch_bend_c, 3, 9433
6, 8860, Pitch_bend_c, 3, 8192
6, 9036, Note_on_c, 3, 60, 119
6, 9052, Note_on_c, 3, 62, 0
6, 9224, Note_on_c, 3, 60, 0
6, 9228, Note_on_c, 3, 57, 122
6, 9724, Control_c, 3, 1, 1
6, 9732, Control_c, 3, 1, 2
6, 9744, Control_c, 3, 1, 3
6, 9756, Control_c, 3, 1, 4
6, 9768, Control_c, 3, 1, 5
6, 9780, Control_c, 3, 1, 7
6, 9788, Control_c, 3, 1, 9
6, 9800, Control_c, 3, 1, 11
6, 9812, Control_c, 3, 1, 12
6, 9820, Control_c, 3, 1, 13
6, 9832, Control_c, 3, 1, 15
6, 9900, Control_c, 3, 1, 17
6, 9932, Control_c, 3, 1, 18
6, 9952, Control_c, 3, 1, 19
6, 10000, Control_c, 3, 1, 20
6, 10032, Control_c, 3, 1, 21
6, 10088, Control_c, 3, 1, 22
6, 10120, Control_c, 3, 1, 23
6, 10416, Control_c, 3, 1, 17
6, 10428, Control_c, 3, 1, 3
6, 10440, Control_c, 3, 1, 0
6, 10860, Pitch_bend_c, 3, 8191
6, 10868, Pitch_bend_c, 3, 7778
6, 10880, Pitch_bend_c, 3, 7364
6, 10892, Pitch_bend_c, 3, 6867
6, 10900, Pitch_bend_c, 3, 6454
6, 10912, Pitch_bend_c, 3, 5874
6, 10924, Pitch_bend_c, 3, 5295
6, 10936, Pitch_bend_c, 3, 4882
6, 10944, Pitch_bend_c, 3, 4302
6, 10956, Pitch_bend_c, 3, 3723
6, 10968, Pitch_bend_c, 3, 3309
6, 10976, Note_on_c, 3, 57, 0
6, 10980, Pitch_bend_c, 3, 2813
6, 10992, Pitch_bend_c, 3, 2234
6, 11000, Pitch_bend_c, 3, 1737
6, 11012, Pitch_bend_c, 3, 1406
6, 11068, Pitch_bend_c, 3, 1489
6, 11080, Pitch_bend_c, 3, 2647
6, 11092, Pitch_bend_c, 3, 4633
6, 11100, Pitch_bend_c, 3, 7364
6, 11112, Pitch_bend_c, 3, 8192
6, 11532, Note_on_c, 3, 57, 127
6, 11708, Pitch_bend_c, 3, 8522
6, 11720, Pitch_bend_c, 3, 12825
6, 11728, Pitch_bend_c, 3, 16383
6, 11908, Pitch_bend_c, 3, 13487
6, 11916, Pitch_bend_c, 3, 8192
6, 12108, Note_on_c, 3, 55, 122
6, 12128, Note_on_c, 3, 57, 0
6, 12300, Note_on_c, 3, 52, 127
6, 12308, Note_on_c, 3, 55, 0
6, 12792, Control_c, 3, 1, 1
6, 12800, Control_c, 3, 1, 2
6, 12812, Control_c, 3, 1, 4
6, 12824, Control_c, 3, 1, 6
6, 12832, Control_c, 3, 1, 7
6, 12844, Control_c, 3, 1, 10
6, 12856, Control_c, 3, 1, 13
6, 12868, Control_c, 3, 1, 15
6, 12876, Control_c, 3, 1, 18
6, 12892, Control_c, 3, 1, 19
6, 12900, Control_c, 3, 1, 20
6, 12912, Control_c, 3, 1, 22
6, 12944, Control_c, 3, 1, 23
6, 12956, Control_c, 3, 1, 25
6, 12968, Control_c, 3, 1, 26
6, 12976, Control_c, 3, 1, 27
6, 12988, Control_c, 3, 1, 28
6, 13032, Control_c, 3, 1, 29
6, 13340, Control_c, 3, 1, 27
6, 13352, Control_c, 3, 1, 26
6, 13364, Control_c, 3, 1, 23
6, 13376, Control_c, 3, 1, 21
6, 13384, Control_c, 3, 1, 17
6, 13396, Control_c, 3, 1, 14
6, 13408, Control_c, 3, 1, 10
6, 13420, Control_c, 3, 1, 4
6, 13428, Control_c, 3, 1, 0
6, 13804, Pitch_bend_c, 3, 8026
6, 13812, Pitch_bend_c, 3, 7778
6, 13824, Pitch_bend_c, 3, 7447
6, 13836, Pitch_bend_c, 3, 7198
6, 13848, Pitch_bend_c, 3, 6867
6, 13860, Pitch_bend_c, 3, 6536
6, 13868, Pitch_bend_c, 3, 6040
6, 13880, Pitch_bend_c, 3, 5461
6, 13892, Pitch_bend_c, 3, 4882
6, 13904, Pitch_bend_c, 3, 4220
6, 13912, Pitch_bend_c, 3, 3640
6, 13924, Pitch_bend_c, 3, 2978
6, 13936, Pitch_bend_c, 3, 2234
6, 13944, Pitch_bend_c, 3, 1572
6, 13952, Note_on_c, 3, 52, 0
6, 13956, Pitch_bend_c, 3, 992
6, 13968, Pitch_bend_c, 3, 413
6, 13980, Pitch_bend_c, 3, 165
6, 13988, Pitch_bend_c, 3, 0
6, 14056, Pitch_bend_c, 3, 992
6, 14068, Pitch_bend_c, 3, 3144
6, 14080, Pitch_bend_c, 3, 7198
6, 14088, Pitch_bend_c, 3, 8192
6, 20068, Pitch_bend_c, 3, 8191
6, 20076, Pitch_bend_c, 3, 7778
6, 20088, Pitch_bend_c, 3, 7364
6, 20100, Pitch_bend_c, 3, 6867
6, 20108, Pitch_bend_c, 3, 6454
6, 20120, Pitch_bend_c, 3, 5874
6, 20132, Pitch_bend_c, 3, 5295
6, 20144, Pitch_bend_c, 3, 4882
6, 20152, Pitch_bend_c, 3, 4302
6, 20164, Pitch_bend_c, 3, 3723
6, 20176, Pitch_bend_c, 3, 3309
6, 20188, Pitch_bend_c, 3, 2813
6, 20200, Pitch_bend_c, 3, 2234
6, 20208, Pitch_bend_c, 3, 1737
6, 20220, Pitch_bend_c, 3, 1406
6, 20276, Pitch_bend_c, 3, 1489
6, 20288, Pitch_bend_c, 3, 2647
6, 20300, Pitch_bend_c, 3, 4633
6, 20308, Pitch_bend_c, 3, 7364
6, 20320, Pitch_bend_c, 3, 8192
6, 20740, Note_on_c, 3, 57, 127
6, 20916, Pitch_bend_c, 3, 8522
6, 20928, Pitch_bend_c, 3, 12825
6, 20936, Pitch_bend_c, 3, 16383
6, 21116, Pitch_bend_c, 3, 13487
6, 21124, Pitch_bend_c, 3, 8192
6, 21316, Note_on_c, 3, 55, 122
6, 21336, Note_on_c, 3, 57, 0
6, 21508, Note_on_c, 3, 52, 127
6, 21516, Note_on_c, 3, 55, 0
6, 22000, Control_c, 3, 1, 1
6, 22008, Control_c, 3, 1, 2
6, 22020, Control_c, 3, 1, 4
6, 22032, Control_c, 3, 1, 6
6, 22040, Control_c, 3, 1, 7
6, 22052, Control_c, 3, 1, 10
6, 22064, Control_c, 3, 1, 13
6, 22076, Control_c, 3, 1, 15
6, 22084, Control_c, 3, 1, 18
6, 22100, Control_c, 3, 1, 19
6, 22108, Control_c, 3, 1, 20
6, 22120, Control_c, 3, 1, 22
6, 22152, Control_c, 3, 1, 23
6, 22164, Control_c, 3, 1, 25
6, 22176, Control_c, 3, 1, 26
6, 22184, Control_c, 3, 1, 27
6, 22196, Control_c, 3, 1, 28
6, 22240, Control_c, 3, 1, 29
6, 22548, Control_c, 3, 1, 27
6, 22560, Control_c, 3, 1, 26
6, 22572, Control_c, 3, 1, 23
6, 22584, Control_c, 3, 1, 21
6, 22592, Control_c, 3, 1, 17
6, 22604, Control_c, 3, 1, 14
6, 22616, Control_c, 3, 1, 10
6, 22628, Control_c, 3, 1, 4
6, 22636, Control_c, 3, 1, 0
6, 23012, Pitch_bend_c, 3, 8026
6, 23020, Pitch_bend_c, 3, 7778
6, 23032, Pitch_bend_c, 3, 7447
6, 23044, Pitch_bend_c, 3, 7198
6, 23056, Pitch_bend_c, 3, 6867
6, 23068, Pitch_bend_c, 3, 6536
6, 23076, Pitch_bend_c, 3, 6040
6, 23088, Pitch_bend_c, 3, 5461
6, 23100, Pitch_bend_c, 3, 4882
6, 23112, Pitch_bend_c, 3, 4220
6, 23120, Pitch_bend_c, 3, 3640
6, 23132, Pitch_bend_c, 3, 2978
6, 23144, Pitch_bend_c, 3, 2234
6, 23152, Pitch_bend_c, 3, 1572
6, 23160, Note_on_c, 3, 52, 0
6, 23164, Pitch_bend_c, 3, 992
6, 23176, Pitch_bend_c, 3, 413
6, 23188, Pitch_bend_c, 3, 165
6, 23196, Pitch_bend_c, 3, 0
6, 23264, Pitch_bend_c, 3, 992
6, 23276, Pitch_bend_c, 3, 3144
6, 23288, Pitch_bend_c, 3, 7198
6, 23296, Pitch_bend_c, 3, 8192
6, 25524, Note_on_c, 3, 50, 127
6, 25696, Pitch_bend_c, 3, 8522
6, 25708, Pitch_bend_c, 3, 9350
6, 25716, Pitch_bend_c, 3, 10508
6, 25728, Pitch_bend_c, 3, 11832
6, 25740, Pitch_bend_c, 3, 13487
6, 25748, Pitch_bend_c, 3, 15389
6, 25764, Pitch_bend_c, 3, 16383
6, 25892, Note_on_c, 3, 50, 0
6, 25892, Pitch_bend_c, 3, 15472
6, 25904, Pitch_bend_c, 3, 10756
6, 25916, Pitch_bend_c, 3, 8192
6, 25920, Note_on_c, 3, 55, 127
6, 26520, Note_on_c, 3, 50, 122
6, 26532, Note_on_c, 3, 55, 0
6, 26600, Pitch_bend_c, 3, 8688
6, 26612, Pitch_bend_c, 3, 9433
6, 26624, Pitch_bend_c, 3, 10177
6, 26632, Pitch_bend_c, 3, 11004
6, 26648, Pitch_bend_c, 3, 11832
6, 26656, Pitch_bend_c, 3, 12907
6, 26668, Pitch_bend_c, 3, 13900
6, 26680, Pitch_bend_c, 3, 15058
6, 26692, Pitch_bend_c, 3, 16217
6, 26700, Pitch_bend_c, 3, 16383
6, 26748, Note_on_c, 3, 50, 0
6, 26776, Pitch_bend_c, 3, 14314
6, 26792, Pitch_bend_c, 3, 9846
6, 26800, Pitch_bend_c, 3, 8192
6, 26896, Note_on_c, 3, 50, 127
6, 27268, Note_on_c, 3, 50, 0
6, 27268, Note_on_c, 3, 48, 119
6, 27468, Note_on_c, 3, 45, 122
6, 27476, Note_on_c, 3, 48, 0
6, 27880, Pitch_bend_c, 3, 8109
6, 27892, Pitch_bend_c, 3, 7943
6, 27904, Pitch_bend_c, 3, 7860
6, 27916, Pitch_bend_c, 3, 7612
6, 27924, Pitch_bend_c, 3, 7529
6, 27936, Pitch_bend_c, 3, 7364
6, 27948, Pitch_bend_c, 3, 7281
6, 27960, Pitch_bend_c, 3, 7198
6, 27968, Pitch_bend_c, 3, 7033
6, 27980, Pitch_bend_c, 3, 6867
6, 27992, Pitch_bend_c, 3, 6785
6, 28004, Pitch_bend_c, 3, 6619
6, 28016, Pitch_bend_c, 3, 6454
6, 28024, Pitch_bend_c, 3, 6288
6, 28036, Pitch_bend_c, 3, 6040
6, 28048, Pitch_bend_c, 3, 5874
6, 28060, Pitch_bend_c, 3, 5626
6, 28068, Pitch_bend_c, 3, 5295
6, 28080, Pitch_bend_c, 3, 5047
6, 28092, Pitch_bend_c, 3, 4799
6, 28104, Pitch_bend_c, 3, 4302
6, 28112, Pitch_bend_c, 3, 3971
6, 28124, Pitch_bend_c, 3, 3475
6, 28136, Pitch_bend_c, 3, 3061
6, 28148, Pitch_bend_c, 3, 2565
6, 28156, Pitch_bend_c, 3, 2234
6, 28168, Pitch_bend_c, 3, 1737
6, 28180, Pitch_bend_c, 3, 1323
6, 28188, Note_on_c, 3, 45, 0
6, 28192, Pitch_bend_c, 3, 992
6, 28200, Pitch_bend_c, 3, 744
6, 28216, Pitch_bend_c, 3, 496
6, 28224, Pitch_bend_c, 3, 330
6, 28248, Pitch_bend_c, 3, 413
6, 28256, Pitch_bend_c, 3, 1323
6, 28268, Pitch_bend_c, 3, 4468
6, 28280, Pitch_bend_c, 3, 8192
6, 33032, Note_on_c, 3, 62, 127
6, 33184, Pitch_bend_c, 3, 8522
6, 33196, Pitch_bend_c, 3, 8936
6, 33208, Pitch_bend_c, 3, 9433
6, 33220, Pitch_bend_c, 3, 9846
6, 33232, Pitch_bend_c, 3, 10425
6, 33244, Pitch_bend_c, 3, 11004
6, 33252, Pitch_bend_c, 3, 11501
6, 33264, Pitch_bend_c, 3, 12080
6, 33276, Pitch_bend_c, 3, 12659
6, 33284, Pitch_bend_c, 3, 13404
6, 33296, Pitch_bend_c, 3, 14066
6, 33308, Pitch_bend_c, 3, 14728
6, 33320, Pitch_bend_c, 3, 15224
6, 33328, Pitch_bend_c, 3, 15720
6, 33340, Pitch_bend_c, 3, 16217
6, 33376, Pitch_bend_c, 3, 15141
6, 33384, Pitch_bend_c, 3, 11832
6, 33392, Note_on_c, 3, 62, 0
6, 33396, Pitch_bend_c, 3, 8192
6, 33416, Note_on_c, 3, 60, 127
6, 33784, Note_on_c, 3, 60, 0
6, 33784, Note_on_c, 3, 57, 119
6, 34356, Pitch_bend_c, 3, 8191
6, 34368, Pitch_bend_c, 3, 8109
6, 34380, Pitch_bend_c, 3, 7943
6, 34392, Pitch_bend_c, 3, 7695
6, 34400, Pitch_bend_c, 3, 7529
6, 34412, Pitch_bend_c, 3, 7447
6, 34424, Pitch_bend_c, 3, 7364
6, 34436, Pitch_bend_c, 3, 7281
6, 34444, Pitch_bend_c, 3, 7116
6, 34456, Pitch_bend_c, 3, 6867
6, 34468, Pitch_bend_c, 3, 6785
6, 34476, Pitch_bend_c, 3, 6619
6, 34488, Pitch_bend_c, 3, 6454
6, 34500, Pitch_bend_c, 3, 6205
6, 34512, Pitch_bend_c, 3, 5957
6, 34524, Pitch_bend_c, 3, 5709
6, 34532, Pitch_bend_c, 3, 5295
6, 34544, Pitch_bend_c, 3, 4964
6, 34556, Pitch_bend_c, 3, 4468
6, 34568, Pitch_bend_c, 3, 3889
6, 34576, Pitch_bend_c, 3, 3309
6, 34584, Note_on_c, 3, 57, 0
6, 34588, Pitch_bend_c, 3, 2896
6, 34600, Pitch_bend_c, 3, 2565
6, 34612, Pitch_bend_c, 3, 2399
6, 34656, Pitch_bend_c, 3, 2482
6, 34668, Pitch_bend_c, 3, 3723
6, 34676, Pitch_bend_c, 3, 6205
6, 34688, Pitch_bend_c, 3, 8192
6, 82960, Note_on_c, 3, 72, 127
6, 83336, Control_c, 3, 1, 3
6, 83348, Control_c, 3, 1, 5
6, 83360, Control_c, 3, 1, 9
6, 83372, Control_c, 3, 1, 12
6, 83380, Control_c, 3, 1, 15
6, 83396, Control_c, 3, 1, 18
6, 83404, Control_c, 3, 1, 19
6, 83416, Control_c, 3, 1, 20
6, 83428, Control_c, 3, 1, 22
6, 83436, Control_c, 3, 1, 25
6, 83448, Control_c, 3, 1, 27
6, 83460, Control_c, 3, 1, 29
6, 83472, Control_c, 3, 1, 31
6, 83480, Control_c, 3, 1, 33
6, 83492, Control_c, 3, 1, 34
6, 83524, Control_c, 3, 1, 35
6, 83560, Control_c, 3, 1, 36
6, 83812, Control_c, 3, 1, 37
6, 84044, Control_c, 3, 1, 36
6, 84056, Control_c, 3, 1, 5
6, 84064, Control_c, 3, 1, 0
6, 84100, Note_on_c, 3, 69, 127
6, 84120, Note_on_c, 3, 72, 0
6, 84284, Pitch_bend_c, 3, 7198
6, 84296, Pitch_bend_c, 3, 5957
6, 84308, Pitch_bend_c, 3, 5047
6, 84316, Pitch_bend_c, 3, 4220
6, 84328, Pitch_bend_c, 3, 3227
6, 84340, Pitch_bend_c, 3, 2399
6, 84348, Pitch_bend_c, 3, 1654
6, 84364, Pitch_bend_c, 3, 1075
6, 84372, Pitch_bend_c, 3, 413
6, 84384, Pitch_bend_c, 3, 82
6, 84396, Pitch_bend_c, 3, 0
6, 84448, Pitch_bend_c, 3, 910
6, 84460, Pitch_bend_c, 3, 2068
6, 84472, Pitch_bend_c, 3, 3806
6, 84484, Pitch_bend_c, 3, 5957
6, 84492, Pitch_bend_c, 3, 8192
6, 84660, Pitch_bend_c, 3, 7116
6, 84672, Pitch_bend_c, 3, 5792
6, 84680, Pitch_bend_c, 3, 4799
6, 84692, Pitch_bend_c, 3, 3640
6, 84704, Pitch_bend_c, 3, 2647
6, 84712, Pitch_bend_c, 3, 1572
6, 84728, Pitch_bend_c, 3, 661
6, 84736, Pitch_bend_c, 3, 0
6, 84836, Pitch_bend_c, 3, 330
6, 84848, Pitch_bend_c, 3, 2647
6, 84856, Pitch_bend_c, 3, 6702
6, 84872, Pitch_bend_c, 3, 8192
6, 85056, Note_on_c, 3, 69, 0
6, 85056, Note_on_c, 3, 62, 127
6, 85312, Control_c, 3, 1, 2
6, 85324, Control_c, 3, 1, 5
6, 85336, Control_c, 3, 1, 9
6, 85348, Control_c, 3, 1, 10
6, 85356, Control_c, 3, 1, 12
6, 85368, Control_c, 3, 1, 14
6, 85392, Control_c, 3, 1, 17
6, 85412, Control_c, 3, 1, 18
6, 85424, Control_c, 3, 1, 19
6, 85432, Control_c, 3, 1, 21
6, 85444, Control_c, 3, 1, 23
6, 85456, Control_c, 3, 1, 26
6, 85468, Control_c, 3, 1, 27
6, 85480, Control_c, 3, 1, 29
6, 85488, Control_c, 3, 1, 30
6, 85976, Control_c, 3, 1, 27
6, 85984, Control_c, 3, 1, 23
6, 85996, Control_c, 3, 1, 0
6, 86016, Note_on_c, 3, 62, 0
6, 86020, Note_on_c, 3, 69, 127
6, 86392, Pitch_bend_c, 3, 7860
6, 86404, Pitch_bend_c, 3, 6454
6, 86416, Pitch_bend_c, 3, 4882
6, 86424, Pitch_bend_c, 3, 3227
6, 86436, Pitch_bend_c, 3, 1820
6, 86448, Pitch_bend_c, 3, 413
6, 86460, Pitch_bend_c, 3, 0
6, 86588, Note_on_c, 3, 62, 127
6, 86592, Pitch_bend_c, 3, 4302
6, 86596, Note_on_c, 3, 69, 0
6, 86604, Pitch_bend_c, 3, 8192
6, 87192, Note_on_c, 3, 60, 127
6, 87196, Note_on_c, 3, 62, 0
6, 87272, Note_on_c, 3, 60, 0
6, 87360, Note_on_c, 3, 57, 127
6, 88008, Control_c, 3, 1, 1
6, 88020, Control_c, 3, 1, 3
6, 88028, Control_c, 3, 1, 5
6, 88040, Control_c, 3, 1, 7
6, 88064, Control_c, 3, 1, 9
6, 88072, Control_c, 3, 1, 10
6, 88084, Control_c, 3, 1, 11
6, 88096, Control_c, 3, 1, 14
6, 88108, Control_c, 3, 1, 15
6, 88116, Control_c, 3, 1, 17
6, 88128, Control_c, 3, 1, 18
6, 88152, Control_c, 3, 1, 19
6, 88216, Control_c, 3, 1, 18
6, 88228, Control_c, 3, 1, 10
6, 88240, Control_c, 3, 1, 3
6, 88248, Control_c, 3, 1, 0
6, 88512, Pitch_bend_c, 3, 8109
6, 88524, Pitch_bend_c, 3, 7778
6, 88536, Pitch_bend_c, 3, 7447
6, 88548, Pitch_bend_c, 3, 7281
6, 88556, Pitch_bend_c, 3, 6950
6, 88568, Pitch_bend_c, 3, 6619
6, 88580, Pitch_bend_c, 3, 6288
6, 88592, Pitch_bend_c, 3, 5957
6, 88600, Pitch_bend_c, 3, 5543
6, 88612, Pitch_bend_c, 3, 5213
6, 88624, Pitch_bend_c, 3, 4964
6, 88636, Pitch_bend_c, 3, 4551
6, 88644, Pitch_bend_c, 3, 4220
6, 88656, Pitch_bend_c, 3, 3889
6, 88668, Pitch_bend_c, 3, 3475
6, 88676, Pitch_bend_c, 3, 3061
6, 88688, Pitch_bend_c, 3, 2565
6, 88700, Pitch_bend_c, 3, 2234
6, 88704, Note_on_c, 3, 57, 0
6, 88712, Pitch_bend_c, 3, 1820
6, 88720, Pitch_bend_c, 3, 1489
6, 88736, Pitch_bend_c, 3, 1241
6, 88744, Pitch_bend_c, 3, 1075
6, 88788, Pitch_bend_c, 3, 1572
6, 88800, Pitch_bend_c, 3, 3889
6, 88812, Pitch_bend_c, 3, 8192
6, 89104, Note_on_c, 3, 72, 127
6, 89480, Control_c, 3, 1, 3
6, 89492, Control_c, 3, 1, 5
6, 89504, Control_c, 3, 1, 9
6, 89516, Control_c, 3, 1, 12
6, 89524, Control_c, 3, 1, 15
6, 89540, Control_c, 3, 1, 18
6, 89548, Control_c, 3, 1, 19
6, 89560, Control_c, 3, 1, 20
6, 89572, Control_c, 3, 1, 22
6, 89580, Control_c, 3, 1, 25
6, 89592, Control_c, 3, 1, 27
6, 89604, Control_c, 3, 1, 29
6, 89616, Control_c, 3, 1, 31
6, 89624, Control_c, 3, 1, 33
6, 89636, Control_c, 3, 1, 34
6, 89668, Control_c, 3, 1, 35
6, 89704, Control_c, 3, 1, 36
6, 89956, Control_c, 3, 1, 37
6, 90188, Control_c, 3, 1, 36
6, 90200, Control_c, 3, 1, 5
6, 90208, Control_c, 3, 1, 0
6, 90244, Note_on_c, 3, 69, 127
6, 90264, Note_on_c, 3, 72, 0
6, 90428, Pitch_bend_c, 3, 7198
6, 90440, Pitch_bend_c, 3, 5957
6, 90452, Pitch_bend_c, 3, 5047
6, 90460, Pitch_bend_c, 3, 4220
6, 90472, Pitch_bend_c, 3, 3227
6, 90484, Pitch_bend_c, 3, 2399
6, 90492, Pitch_bend_c, 3, 1654
6, 90508, Pitch_bend_c, 3, 1075
6, 90516, Pitch_bend_c, 3, 413
6, 90528, Pitch_bend_c, 3, 82
6, 90540, Pitch_bend_c, 3, 0
6, 90592, Pitch_bend_c, 3, 910
6, 90604, Pitch_bend_c, 3, 2068
6, 90616, Pitch_bend_c, 3, 3806
6, 90628, Pitch_bend_c, 3, 5957
6, 90636, Pitch_bend_c, 3, 8192
6, 90804, Pitch_bend_c, 3, 7116
6, 90816, Pitch_bend_c, 3, 5792
6, 90824, Pitch_bend_c, 3, 4799
6, 90836, Pitch_bend_c, 3, 3640
6, 90848, Pitch_bend_c, 3, 2647
6, 90856, Pitch_bend_c, 3, 1572
6, 90872, Pitch_bend_c, 3, 661
6, 90880, Pitch_bend_c, 3, 0
6, 90980, Pitch_bend_c, 3, 330
6, 90992, Pitch_bend_c, 3, 2647
6, 91000, Pitch_bend_c, 3, 6702
6, 91016, Pitch_bend_c, 3, 8192
6, 91200, Note_on_c, 3, 69, 0
6, 91200, Note_on_c, 3, 62, 127
6, 91456, Control_c, 3, 1, 2
6, 91468, Control_c, 3, 1, 5
6, 91480, Control_c, 3, 1, 9
6, 91492, Control_c, 3, 1, 10
6, 91500, Control_c, 3, 1, 12
6, 91512, Control_c, 3, 1, 14
6, 91536, Control_c, 3, 1, 17
6, 91556, Control_c, 3, 1, 18
6, 91568, Control_c, 3, 1, 19
6, 91576, Control_c, 3, 1, 21
6, 91588, Control_c, 3, 1, 23
6, 91600, Control_c, 3, 1, 26
6, 91612, Control_c, 3, 1, 27
6, 91624, Control_c, 3, 1, 29
6, 91632, Control_c, 3, 1, 30
6, 92120, Control_c, 3, 1, 27
6, 92128, Control_c, 3, 1, 23
6, 92140, Control_c, 3, 1, 0
6, 92160, Note_on_c, 3, 62, 0
6, 92164, Note_on_c, 3, 69, 127
6, 92536, Pitch_bend_c, 3, 7860
6, 92548, Pitch_bend_c, 3, 6454
6, 92560, Pitch_bend_c, 3, 4882
6, 92568, Pitch_bend_c, 3, 3227
6, 92580, Pitch_bend_c, 3, 1820
6, 92592, Pitch_bend_c, 3, 413
6, 92604, Pitch_bend_c, 3, 0
6, 92732, Note_on_c, 3, 60, 127
6, 92736, Pitch_bend_c, 3, 4302
6, 92740, Note_on_c, 3, 69, 0
6, 92748, Pitch_bend_c, 3, 8192
6, 93336, Note_on_c, 3, 60, 0
6, 93336, Note_on_c, 3, 62, 127
6, 93416, Note_on_c, 3, 62, 0
6, 93504, Note_on_c, 3, 57, 127
6, 93780, Control_c, 3, 1, 4
6, 93792, Control_c, 3, 1, 7
6, 93800, Control_c, 3, 1, 10
6, 93816, Control_c, 3, 1, 14
6, 93824, Control_c, 3, 1, 15
6, 93848, Control_c, 3, 1, 17
6, 93880, Control_c, 3, 1, 18
6, 93892, Control_c, 3, 1, 19
6, 93900, Control_c, 3, 1, 21
6, 93912, Control_c, 3, 1, 23
6, 93924, Control_c, 3, 1, 26
6, 93936, Control_c, 3, 1, 27
6, 93944, Control_c, 3, 1, 28
6, 93956, Control_c, 3, 1, 29
6, 93968, Control_c, 3, 1, 30
6, 93980, Control_c, 3, 1, 31
6, 94376, Control_c, 3, 1, 29
6, 94384, Control_c, 3, 1, 20
6, 94396, Control_c, 3, 1, 0
6, 94464, Note_on_c, 3, 57, 0
6, 94480, Note_on_c, 3, 69, 127
6, 94652, Pitch_bend_c, 3, 6619
6, 94664, Pitch_bend_c, 3, 4385
6, 94672, Pitch_bend_c, 3, 2647
6, 94684, Pitch_bend_c, 3, 1075
6, 94696, Pitch_bend_c, 3, 0
6, 94828, Pitch_bend_c, 3, 3144
6, 94836, Pitch_bend_c, 3, 8026
6, 94844, Note_on_c, 3, 69, 0
6, 94848, Pitch_bend_c, 3, 8192
6, 94848, Note_on_c, 3, 60, 127
6, 95040, Note_on_c, 3, 57, 122
6, 95044, Note_on_c, 3, 60, 0
6, 95456, Pitch_bend_c, 3, 8026
6, 95468, Pitch_bend_c, 3, 7778
6, 95480, Pitch_bend_c, 3, 7612
6, 95492, Pitch_bend_c, 3, 7364
6, 95500, Pitch_bend_c, 3, 7281
6, 95512, Pitch_bend_c, 3, 7116
6, 95524, Pitch_bend_c, 3, 6950
6, 95532, Pitch_bend_c, 3, 6785
6, 95544, Pitch_bend_c, 3, 6619
6, 95556, Pitch_bend_c, 3, 6288
6, 95568, Pitch_bend_c, 3, 6040
6, 95576, Pitch_bend_c, 3, 5792
6, 95592, Pitch_bend_c, 3, 5543
6, 95600, Pitch_bend_c, 3, 5295
6, 95612, Pitch_bend_c, 3, 5047
6, 95624, Pitch_bend_c, 3, 4799
6, 95632, Pitch_bend_c, 3, 4385
6, 95644, Pitch_bend_c, 3, 4137
6, 95656, Pitch_bend_c, 3, 3806
6, 95664, Pitch_bend_c, 3, 3475
6, 95676, Pitch_bend_c, 3, 3061
6, 95688, Pitch_bend_c, 3, 2482
6, 95700, Pitch_bend_c, 3, 1737
6, 95712, Pitch_bend_c, 3, 744
6, 95720, Pitch_bend_c, 3, 0
6, 95728, Note_on_c, 3, 57, 0
6, 95776, Pitch_bend_c, 3, 82
6, 95788, Pitch_bend_c, 3, 2482
6, 95796, Pitch_bend_c, 3, 5957
6, 95808, Pitch_bend_c, 3, 8192
6, 99940, Pitch_bend_c, 3, 8191
6, 99948, Pitch_bend_c, 3, 7778
6, 99960, Pitch_bend_c, 3, 7364
6, 99972, Pitch_bend_c, 3, 6867
6, 99980, Pitch_bend_c, 3, 6454
6, 99992, Pitch_bend_c, 3, 5874
6, 100004, Pitch_bend_c, 3, 5295
6, 100016, Pitch_bend_c, 3, 4882
6, 100024, Pitch_bend_c, 3, 4302
6, 100036, Pitch_bend_c, 3, 3723
6, 100048, Pitch_bend_c, 3, 3309
6, 100060, Pitch_bend_c, 3, 2813
6, 100072, Pitch_bend_c, 3, 2234
6, 100080, Pitch_bend_c, 3, 1737
6, 100092, Pitch_bend_c, 3, 1406
6, 100148, Pitch_bend_c, 3, 1489
6, 100160, Pitch_bend_c, 3, 2647
6, 100172, Pitch_bend_c, 3, 4633
6, 100180, Pitch_bend_c, 3, 7364
6, 100192, Pitch_bend_c, 3, 8192
6, 100612, Note_on_c, 3, 57, 127
6, 100788, Pitch_bend_c, 3, 8522
6, 100800, Pitch_bend_c, 3, 12825
6, 100808, Pitch_bend_c, 3, 16383
6, 100988, Pitch_bend_c, 3, 13487
6, 100996, Pitch_bend_c, 3, 8192
6, 101188, Note_on_c, 3, 55, 122
6, 101208, Note_on_c, 3, 57, 0
6, 101380, Note_on_c, 3, 52, 127
6, 101388, Note_on_c, 3, 55, 0
6, 101872, Control_c, 3, 1, 1
6, 101880, Control_c, 3, 1, 2
6, 101892, Control_c, 3, 1, 4
6, 101904, Control_c, 3, 1, 6
6, 101912, Control_c, 3, 1, 7
6, 101924, Control_c, 3, 1, 10
6, 101936, Control_c, 3, 1, 13
6, 101948, Control_c, 3, 1, 15
6, 101956, Control_c, 3, 1, 18
6, 101972, Control_c, 3, 1, 19
6, 101980, Control_c, 3, 1, 20
6, 101992, Control_c, 3, 1, 22
6, 102024, Control_c, 3, 1, 23
6, 102036, Control_c, 3, 1, 25
6, 102048, Control_c, 3, 1, 26
6, 102056, Control_c, 3, 1, 27
6, 102068, Control_c, 3, 1, 28
6, 102112, Control_c, 3, 1, 29
6, 102420, Control_c, 3, 1, 27
6, 102432, Control_c, 3, 1, 26
6, 102444, Control_c, 3, 1, 23
6, 102456, Control_c, 3, 1, 21
6, 102464, Control_c, 3, 1, 17
6, 102476, Control_c, 3, 1, 14
6, 102488, Control_c, 3, 1, 10
6, 102500, Control_c, 3, 1, 4
6, 102508, Control_c, 3, 1, 0
6, 102884, Pitch_bend_c, 3, 8026
6, 102892, Pitch_bend_c, 3, 7778
6, 102904, Pitch_bend_c, 3, 7447
6, 102916, Pitch_bend_c, 3, 7198
6, 102928, Pitch_bend_c, 3, 6867
6, 102940, Pitch_bend_c, 3, 6536
6, 102948, Pitch_bend_c, 3, 6040
6, 102960, Pitch_bend_c, 3, 5461
6, 102972, Pitch_bend_c, 3, 4882
6, 102984, Pitch_bend_c, 3, 4220
6, 102992, Pitch_bend_c, 3, 3640
6, 103004, Pitch_bend_c, 3, 2978
6, 103016, Pitch_bend_c, 3, 2234
6, 103024, Pitch_bend_c, 3, 1572
6, 103032, Note_on_c, 3, 52, 0
6, 103036, Pitch_bend_c, 3, 992
6, 103048, Pitch_bend_c, 3, 413
6, 103060, Pitch_bend_c, 3, 165
6, 103068, Pitch_bend_c, 3, 0
6, 103136, Pitch_bend_c, 3, 992
6, 103148, Pitch_bend_c, 3, 3144
6, 103160, Pitch_bend_c, 3, 7198
6, 103168, Pitch_bend_c, 3, 8192
6, 105396, Note_on_c, 3, 50, 127
6, 105568, Pitch_bend_c, 3, 8522
6, 105580, Pitch_bend_c, 3, 9350
6, 105588, Pitch_bend_c, 3, 10508
6, 105600, Pitch_bend_c, 3, 11832
6, 105612, Pitch_bend_c, 3, 13487
6, 105620, Pitch_bend_c, 3, 15389
6, 105636, Pitch_bend_c, 3, 16383
6, 105764, Note_on_c, 3, 50, 0
6, 105764, Pitch_bend_c, 3, 15472
6, 105776, Pitch_bend_c, 3, 10756
6, 105788, Pitch_bend_c, 3, 8192
6, 105792, Note_on_c, 3, 55, 127
6, 106392, Note_on_c, 3, 50, 122
6, 106404, Note_on_c, 3, 55, 0
6, 106472, Pitch_bend_c, 3, 8688
6, 106484, Pitch_bend_c, 3, 9433
6, 106496, Pitch_bend_c, 3, 10177
6, 106504, Pitch_bend_c, 3, 11004
6, 106520, Pitch_bend_c, 3, 11832
6, 106528, Pitch_bend_c, 3, 12907
6, 106540, Pitch_bend_c, 3, 13900
6, 106552, Pitch_bend_c, 3, 15058
6, 106564, Pitch_bend_c, 3, 16217
6, 106572, Pitch_bend_c, 3, 16383
6, 106620, Note_on_c, 3, 50, 0
6, 106648, Pitch_bend_c, 3, 14314
6, 106664, Pitch_bend_c, 3, 9846
6, 106672, Pitch_bend_c, 3, 8192
6, 106768, Note_on_c, 3, 50, 127
6, 107140, Note_on_c, 3, 50, 0
6, 107140, Note_on_c, 3, 48, 119
6, 107340, Note_on_c, 3, 45, 122
6, 107348, Note_on_c, 3, 48, 0
6, 107752, Pitch_bend_c, 3, 8109
6, 107764, Pitch_bend_c, 3, 7943
6, 107776, Pitch_bend_c, 3, 7860
6, 107788, Pitch_bend_c, 3, 7612
6, 107796, Pitch_bend_c, 3, 7529
6, 107808, Pitch_bend_c, 3, 7364
6, 107820, Pitch_bend_c, 3, 7281
6, 107832, Pitch_bend_c, 3, 7198
6, 107840, Pitch_bend_c, 3, 7033
6, 107852, Pitch_bend_c, 3, 6867
6, 107864, Pitch_bend_c, 3, 6785
6, 107876, Pitch_bend_c, 3, 6619
6, 107888, Pitch_bend_c, 3, 6454
6, 107896, Pitch_bend_c, 3, 6288
6, 107908, Pitch_bend_c, 3, 6040
6, 107920, Pitch_bend_c, 3, 5874
6, 107932, Pitch_bend_c, 3, 5626
6, 107940, Pitch_bend_c, 3, 5295
6, 107952, Pitch_bend_c, 3, 5047
6, 107964, Pitch_bend_c, 3, 4799
6, 107976, Pitch_bend_c, 3, 4302
6, 107984, Pitch_bend_c, 3, 3971
6, 107996, Pitch_bend_c, 3, 3475
6, 108008, Pitch_bend_c, 3, 3061
6, 108020, Pitch_bend_c, 3, 2565
6, 108028, Pitch_bend_c, 3, 2234
6, 108040, Pitch_bend_c, 3, 1737
6, 108052, Pitch_bend_c, 3, 1323
6, 108060, Note_on_c, 3, 45, 0
6, 108064, Pitch_bend_c, 3, 992
6, 108072, Pitch_bend_c, 3, 744
6, 108088, Pitch_bend_c, 3, 496
6, 108096, Pitch_bend_c, 3, 330
6, 108120, Pitch_bend_c, 3, 413
6, 108128, Pitch_bend_c, 3, 1323
6, 108140, Pitch_bend_c, 3, 4468
6, 108152, Pitch_bend_c, 3, 8192
6, 112904, Note_on_c, 3, 62, 127
6, 113056, Pitch_bend_c, 3, 8522
6, 113068, Pitch_bend_c, 3, 8936
6, 113080, Pitch_bend_c, 3, 9433
6, 113092, Pitch_bend_c, 3, 9846
6, 113104, Pitch_bend_c, 3, 10425
6, 113116, Pitch_bend_c, 3, 11004
6, 113124, Pitch_bend_c, 3, 11501
6, 113136, Pitch_bend_c, 3, 12080
6, 113148, Pitch_bend_c, 3, 12659
6, 113156, Pitch_bend_c, 3, 13404
6, 113168, Pitch_bend_c, 3, 14066
6, 113180, Pitch_bend_c, 3, 14728
6, 113192, Pitch_bend_c, 3, 15224
6, 113200, Pitch_bend_c, 3, 15720
6, 113212, Pitch_bend_c, 3, 16217
6, 113248, Pitch_bend_c, 3, 15141
6, 113256, Pitch_bend_c, 3, 11832
6, 113264, Note_on_c, 3, 62, 0
6, 113268, Pitch_bend_c, 3, 8192
6, 113288, Note_on_c, 3, 60, 127
6, 113656, Note_on_c, 3, 60, 0
6, 113656, Note_on_c, 3, 57, 119
6, 114228, Pitch_bend_c, 3, 8191
6, 114240, Pitch_bend_c, 3, 8109
6, 114252, Pitch_bend_c, 3, 7943
6, 114264, Pitch_bend_c, 3, 7695
6, 114272, Pitch_bend_c, 3, 7529
6, 114284, Pitch_bend_c, 3, 7447
6, 114296, Pitch_bend_c, 3, 7364
6, 114308, Pitch_bend_c, 3, 7281
6, 114316, Pitch_bend_c, 3, 7116
6, 114328, Pitch_bend_c, 3, 6867
6, 114340, Pitch_bend_c, 3, 6785
6, 114348, Pitch_bend_c, 3, 6619
6, 114360, Pitch_bend_c, 3, 6454
6, 114372, Pitch_bend_c, 3, 6205
6, 114384, Pitch_bend_c, 3, 5957
6, 114396, Pitch_bend_c, 3, 5709
6, 114404, Pitch_bend_c, 3, 5295
6, 114416, Pitch_bend_c, 3, 4964
6, 114428, Pitch_bend_c, 3, 4468
6, 114440, Pitch_bend_c, 3, 3889
6, 114448, Pitch_bend_c, 3, 3309
6, 114456, Note_on_c, 3, 57, 0
6, 114460, Pitch_bend_c, 3, 2896
6, 114472, Pitch_bend_c, 3, 2565
6, 114484, Pitch_bend_c, 3, 2399
6, 114528, Pitch_bend_c, 3, 2482
6, 114540, Pitch_bend_c, 3, 3723
6, 114548, Pitch_bend_c, 3, 6205
6, 114560, Pitch_bend_c, 3, 8192
6, 114560, End_track
7, 0, Start_track
7, 0, MIDI_port, 0
7, 0, Title_t, "Guitar 2"
7, 0, Control_c, 0, 32, 0
7, 0, Control_c, 4, 91, 90
7, 0, Control_c, 4, 93, 100
7, 672, Control_c, 4, 120, 0
7, 768, Control_c, 4, 121, 0
7, 960, Control_c, 4, 100, 0
7, 1056, Control_c, 4, 101, 0
7, 1152, Control_c, 4, 6, 2
7, 58952, Note_on_c, 4, 41, 127
7, 59028, Note_on_c, 4, 41, 0
7, 59144, Note_on_c, 4, 41, 127
7, 59628, Note_on_c, 4, 41, 0
7, 59720, Note_on_c, 4, 41, 127
7, 59912, Note_on_c, 4, 43, 127
7, 59924, Note_on_c, 4, 41, 0
7, 60380, Note_on_c, 4, 43, 0
7, 60488, Note_on_c, 4, 43, 127
7, 60568, Note_on_c, 4, 43, 0
7, 60680, Note_on_c, 4, 43, 127
7, 61176, Note_on_c, 4, 43, 0
7, 61256, Note_on_c, 4, 43, 122
7, 61448, Note_on_c, 4, 43, 0
7, 61448, Note_on_c, 4, 41, 122
7, 61908, Note_on_c, 4, 41, 0
7, 62024, Note_on_c, 4, 41, 127
7, 62100, Note_on_c, 4, 41, 0
7, 62216, Note_on_c, 4, 41, 127
7, 62700, Note_on_c, 4, 41, 0
7, 62792, Note_on_c, 4, 41, 127
7, 62984, Note_on_c, 4, 43, 127
7, 62996, Note_on_c, 4, 41, 0
7, 63452, Note_on_c, 4, 43, 0
7, 63560, Note_on_c, 4, 43, 127
7, 63640, Note_on_c, 4, 43, 0
7, 63752, Note_on_c, 4, 43, 127
7, 64248, Note_on_c, 4, 43, 0
7, 64328, Note_on_c, 4, 43, 122
7, 64520, Note_on_c, 4, 43, 0
7, 64520, Note_on_c, 4, 41, 122
7, 64980, Note_on_c, 4, 41, 0
7, 65096, Note_on_c, 4, 41, 127
7, 65172, Note_on_c, 4, 41, 0
7, 65288, Note_on_c, 4, 41, 127
7, 65772, Note_on_c, 4, 41, 0
7, 65864, Note_on_c, 4, 41, 127
7, 66056, Note_on_c, 4, 41, 0
7, 66056, Note_on_c, 4, 43, 119
7, 66544, Note_on_c, 4, 43, 0
7, 66632, Note_on_c, 4, 43, 122
7, 66812, Note_on_c, 4, 43, 0
7, 66824, Note_on_c, 4, 43, 123
7, 66884, Note_on_c, 4, 43, 0
7, 67016, Note_on_c, 4, 43, 123
7, 67088, Note_on_c, 4, 43, 0
7, 67208, Note_on_c, 4, 43, 123
7, 67284, Note_on_c, 4, 43, 0
7, 67400, Note_on_c, 4, 43, 123
7, 67504, Note_on_c, 4, 43, 0
7, 67592, Note_on_c, 4, 41, 122
7, 68052, Note_on_c, 4, 41, 0
7, 68168, Note_on_c, 4, 41, 127
7, 68244, Note_on_c, 4, 41, 0
7, 68360, Note_on_c, 4, 41, 127
7, 68844, Note_on_c, 4, 41, 0
7, 68936, Note_on_c, 4, 41, 127
7, 69128, Note_on_c, 4, 41, 0
7, 69128, Note_on_c, 4, 43, 119
7, 69600, Note_on_c, 4, 43, 0
7, 69704, Note_on_c, 4, 43, 127
7, 69788, Note_on_c, 4, 43, 0
7, 69896, Note_on_c, 4, 43, 122
7, 70208, Note_on_c, 4, 43, 0
7, 70280, Note_on_c, 4, 43, 122
7, 70456, Note_on_c, 4, 43, 0
7, 70472, Note_on_c, 4, 42, 127
7, 70664, Note_on_c, 4, 42, 0
7, 70664, Note_on_c, 4, 41, 127
7, 71112, Note_on_c, 4, 41, 0
7, 71240, Note_on_c, 4, 41, 127
7, 71308, Note_on_c, 4, 41, 0
7, 71432, Note_on_c, 4, 41, 127
7, 71808, Note_on_c, 4, 41, 0
7, 71816, Note_on_c, 4, 48, 127
7, 72004, Note_on_c, 4, 48, 0
7, 72008, Note_on_c, 4, 41, 122
7, 72196, Note_on_c, 4, 41, 0
7, 72200, Note_on_c, 4, 43, 122
7, 72272, Note_on_c, 4, 43, 0
7, 72392, Note_on_c, 4, 43, 116
7, 72464, Note_on_c, 4, 43, 0
7, 72584, Note_on_c, 4, 43, 122
7, 72884, Note_on_c, 4, 43, 0
7, 72968, Note_on_c, 4, 43, 127
7, 73132, Note_on_c, 4, 43, 0
7, 73160, Note_on_c, 4, 50, 127
7, 73512, Note_on_c, 4, 50, 0
7, 73544, Note_on_c, 4, 42, 127
7, 73736, Note_on_c, 4, 42, 0
7, 73736, Note_on_c, 4, 41, 122
7, 74196, Note_on_c, 4, 41, 0
7, 74312, Note_on_c, 4, 41, 127
7, 74388, Note_on_c, 4, 41, 0
7, 74504, Note_on_c, 4, 41, 127
7, 74988, Note_on_c, 4, 41, 0
7, 75080, Note_on_c, 4, 41, 127
7, 75272, Note_on_c, 4, 43, 127
7, 75284, Note_on_c, 4, 41, 0
7, 75740, Note_on_c, 4, 43, 0
7, 75848, Note_on_c, 4, 43, 127
7, 75928, Note_on_c, 4, 43, 0
7, 76040, Note_on_c, 4, 43, 127
7, 76536, Note_on_c, 4, 43, 0
7, 76616, Note_on_c, 4, 43, 122
7, 76808, Note_on_c, 4, 43, 0
7, 76808, Note_on_c, 4, 41, 122
7, 77268, Note_on_c, 4, 41, 0
7, 77384, Note_on_c, 4, 41, 127
7, 77460, Note_on_c, 4, 41, 0
7, 77576, Note_on_c, 4, 41, 127
7, 78060, Note_on_c, 4, 41, 0
7, 78152, Note_on_c, 4, 41, 127
7, 78344, Note_on_c, 4, 43, 127
7, 78356, Note_on_c, 4, 41, 0
7, 78812, Note_on_c, 4, 43, 0
7, 78920, Note_on_c, 4, 43, 127
7, 79000, Note_on_c, 4, 43, 0
7, 79112, Note_on_c, 4, 43, 127
7, 79608, Note_on_c, 4, 43, 0
7, 79688, Note_on_c, 4, 43, 122
7, 79880, Note_on_c, 4, 43, 0
7, 79880, Note_on_c, 4, 41, 122
7, 80340, Note_on_c, 4, 41, 0
7, 80456, Note_on_c, 4, 41, 127
7, 80532, Note_on_c, 4, 41, 0
7, 80648, Note_on_c, 4, 41, 127
7, 81132, Note_on_c, 4, 41, 0
7, 81224, Note_on_c, 4, 41, 127
7, 81416, Note_on_c, 4, 43, 127
7, 81428, Note_on_c, 4, 41, 0
7, 81884, Note_on_c, 4, 43, 0
7, 81992, Note_on_c, 4, 43, 127
7, 82072, Note_on_c, 4, 43, 0
7, 82184, Note_on_c, 4, 43, 127
7, 82680, Note_on_c, 4, 43, 0
7, 82760, Note_on_c, 4, 43, 122
7, 82944, Note_on_c, 4, 43, 0
7, 138824, Note_on_c, 4, 41, 127
7, 138900, Note_on_c, 4, 41, 0
7, 139016, Note_on_c, 4, 41, 127
7, 139500, Note_on_c, 4, 41, 0
7, 139592, Note_on_c, 4, 41, 127
7, 139784, Note_on_c, 4, 43, 127
7, 139796, Note_on_c, 4, 41, 0
7, 140252, Note_on_c, 4, 43, 0
7, 140360, Note_on_c, 4, 43, 127
7, 140440, Note_on_c, 4, 43, 0
7, 140552, Note_on_c, 4, 43, 127
7, 141048, Note_on_c, 4, 43, 0
7, 141128, Note_on_c, 4, 43, 122
7, 141320, Note_on_c, 4, 43, 0
7, 141320, Note_on_c, 4, 41, 122
7, 141780, Note_on_c, 4, 41, 0
7, 141896, Note_on_c, 4, 41, 127
7, 141972, Note_on_c, 4, 41, 0
7, 142088, Note_on_c, 4, 41, 127
7, 142572, Note_on_c, 4, 41, 0
7, 142664, Note_on_c, 4, 41, 127
7, 142856, Note_on_c, 4, 43, 127
7, 142868, Note_on_c, 4, 41, 0
7, 143324, Note_on_c, 4, 43, 0
7, 143432, Note_on_c, 4, 43, 127
7, 143512, Note_on_c, 4, 43, 0
7, 143624, Note_on_c, 4, 43, 127
7, 144120, Note_on_c, 4, 43, 0
7, 144200, Note_on_c, 4, 43, 122
7, 144392, Note_on_c, 4, 43, 0
7, 144392, Note_on_c, 4, 41, 122
7, 144852, Note_on_c, 4, 41, 0
7, 144968, Note_on_c, 4, 41, 127
7, 145044, Note_on_c, 4, 41, 0
7, 145160, Note_on_c, 4, 41, 127
7, 145644, Note_on_c, 4, 41, 0
7, 145736, Note_on_c, 4, 41, 127
7, 145928, Note_on_c, 4, 41, 0
7, 145928, Note_on_c, 4, 43, 119
7, 146416, Note_on_c, 4, 43, 0
7, 146504, Note_on_c, 4, 43, 122
7, 146684, Note_on_c, 4, 43, 0
7, 146696, Note_on_c, 4, 43, 123
7, 146756, Note_on_c, 4, 43, 0
7, 146888, Note_on_c, 4, 43, 123
7, 146960, Note_on_c, 4, 43, 0
7, 147080, Note_on_c, 4, 43, 123
7, 147156, Note_on_c, 4, 43, 0
7, 147272, Note_on_c, 4, 43, 123
7, 147376, Note_on_c, 4, 43, 0
7, 147464, Note_on_c, 4, 41, 122
7, 147924, Note_on_c, 4, 41, 0
7, 148040, Note_on_c, 4, 41, 127
7, 148116, Note_on_c, 4, 41, 0
7, 148232, Note_on_c, 4, 41, 127
7, 148716, Note_on_c, 4, 41, 0
7, 148808, Note_on_c, 4, 41, 127
7, 149000, Note_on_c, 4, 41, 0
7, 149000, Note_on_c, 4, 43, 119
7, 149472, Note_on_c, 4, 43, 0
7, 149576, Note_on_c, 4, 43, 127
7, 149660, Note_on_c, 4, 43, 0
7, 149768, Note_on_c, 4, 43, 122
7, 150080, Note_on_c, 4, 43, 0
7, 150152, Note_on_c, 4, 43, 122
7, 150328, Note_on_c, 4, 43, 0
7, 150344, Note_on_c, 4, 42, 127
7, 150536, Note_on_c, 4, 42, 0
7, 150536, Note_on_c, 4, 41, 127
7, 150984, Note_on_c, 4, 41, 0
7, 151112, Note_on_c, 4, 41, 127
7, 151180, Note_on_c, 4, 41, 0
7, 151304, Note_on_c, 4, 41, 127
7, 151680, Note_on_c, 4, 41, 0
7, 151688, Note_on_c, 4, 48, 127
7, 151876, Note_on_c, 4, 48, 0
7, 151880, Note_on_c, 4, 41, 122
7, 152068, Note_on_c, 4, 41, 0
7, 152072, Note_on_c, 4, 43, 122
7, 152144, Note_on_c, 4, 43, 0
7, 152264, Note_on_c, 4, 43, 116
7, 152336, Note_on_c, 4, 43, 0
7, 152456, Note_on_c, 4, 43, 122
7, 152756, Note_on_c, 4, 43, 0
7, 152840, Note_on_c, 4, 43, 127
7, 153004, Note_on_c, 4, 43, 0
7, 153032, Note_on_c, 4, 50, 127
7, 153384, Note_on_c, 4, 50, 0
7, 153416, Note_on_c, 4, 42, 127
7, 153608, Note_on_c, 4, 42, 0
7, 153608, Note_on_c, 4, 41, 122
7, 154068, Note_on_c, 4, 41, 0
7, 154184, Note_on_c, 4, 41, 127
7, 154260, Note_on_c, 4, 41, 0
7, 154376, Note_on_c, 4, 41, 127
7, 154860, Note_on_c, 4, 41, 0
7, 154952, Note_on_c, 4, 41, 127
7, 155144, Note_on_c, 4, 43, 127
7, 155156, Note_on_c, 4, 41, 0
7, 155612, Note_on_c, 4, 43, 0
7, 155720, Note_on_c, 4, 43, 127
7, 155800, Note_on_c, 4, 43, 0
7, 155912, Note_on_c, 4, 43, 127
7, 156408, Note_on_c, 4, 43, 0
7, 156488, Note_on_c, 4, 43, 122
7, 156680, Note_on_c, 4, 43, 0
7, 156680, Note_on_c, 4, 41, 122
7, 157140, Note_on_c, 4, 41, 0
7, 157256, Note_on_c, 4, 41, 127
7, 157332, Note_on_c, 4, 41, 0
7, 157448, Note_on_c, 4, 41, 127
7, 157932, Note_on_c, 4, 41, 0
7, 158024, Note_on_c, 4, 41, 127
7, 158216, Note_on_c, 4, 43, 127
7, 158228, Note_on_c, 4, 41, 0
7, 158684, Note_on_c, 4, 43, 0
7, 158792, Note_on_c, 4, 43, 127
7, 158872, Note_on_c, 4, 43, 0
7, 158984, Note_on_c, 4, 43, 127
7, 159480, Note_on_c, 4, 43, 0
7, 159560, Note_on_c, 4, 43, 122
7, 159752, Note_on_c, 4, 43, 0
7, 159752, Note_on_c, 4, 41, 122
7, 160212, Note_on_c, 4, 41, 0
7, 160328, Note_on_c, 4, 41, 127
7, 160404, Note_on_c, 4, 41, 0
7, 160520, Note_on_c, 4, 41, 127
7, 161004, Note_on_c, 4, 41, 0
7, 161096, Note_on_c, 4, 41, 127
7, 161288, Note_on_c, 4, 43, 127
7, 161300, Note_on_c, 4, 41, 0
7, 161756, Note_on_c, 4, 43, 0
7, 161864, Note_on_c, 4, 43, 127
7, 161944, Note_on_c, 4, 43, 0
7, 162056, Note_on_c, 4, 43, 127
7, 162552, Note_on_c, 4, 43, 0
7, 162632, Note_on_c, 4, 43, 122
7, 162824, Note_on_c, 4, 43, 0
7, 162824, Note_on_c, 4, 41, 122
7, 163284, Note_on_c, 4, 41, 0
7, 163400, Note_on_c, 4, 41, 127
7, 163476, Note_on_c, 4, 41, 0
7, 163592, Note_on_c, 4, 41, 127
7, 164076, Note_on_c, 4, 41, 0
7, 164168, Note_on_c, 4, 41, 127
7, 164360, Note_on_c, 4, 43, 127
7, 164372, Note_on_c, 4, 41, 0
7, 164828, Note_on_c, 4, 43, 0
7, 164936, Note_on_c, 4, 43, 127
7, 165016, Note_on_c, 4, 43, 0
7, 165128, Note_on_c, 4, 43, 127
7, 165624, Note_on_c, 4, 43, 0
7, 165704, Note_on_c, 4, 43, 122
7, 165896, Note_on_c, 4, 43, 0
7, 165896, Note_on_c, 4, 41, 122
7, 166356, Note_on_c, 4, 41, 0
7, 166472, Note_on_c, 4, 41, 127
7, 166548, Note_on_c, 4, 41, 0
7, 166664, Note_on_c, 4, 41, 127
7, 167148, Note_on_c, 4, 41, 0
7, 167240, Note_on_c, 4, 41, 127
7, 167432, Note_on_c, 4, 43, 127
7, 167444, Note_on_c, 4, 41, 0
7, 167900, Note_on_c, 4, 43, 0
7, 168008, Note_on_c, 4, 43, 127
7, 168088, Note_on_c, 4, 43, 0
7, 168200, Note_on_c, 4, 43, 127
7, 168696, Note_on_c, 4, 43, 0
7, 168776, Note_on_c, 4, 43, 122
7, 168968, Note_on_c, 4, 43, 0
7, 168968, Note_on_c, 4, 41, 122
7, 169428, Note_on_c, 4, 41, 0
7, 169544, Note_on_c, 4, 41, 127
7, 169620, Note_on_c, 4, 41, 0
7, 169736, Note_on_c, 4, 41, 127
7, 170220, Note_on_c, 4, 41, 0
7, 170312, Note_on_c, 4, 41, 127
7, 170504, Note_on_c, 4, 41, 0
7, 170504, Note_on_c, 4, 43, 119
7, 170992, Note_on_c, 4, 43, 0
7, 171080, Note_on_c, 4, 43, 122
7, 171260, Note_on_c, 4, 43, 0
7, 171272, Note_on_c, 4, 43, 123
7, 171332, Note_on_c, 4, 43, 0
7, 171464, Note_on_c, 4, 43, 123
7, 171536, Note_on_c, 4, 43, 0
7, 171656, Note_on_c, 4, 43, 123
7, 171732, Note_on_c, 4, 43, 0
7, 171848, Note_on_c, 4, 43, 123
7, 171952, Note_on_c, 4, 43, 0
7, 172040, Note_on_c, 4, 41, 122
7, 172500, Note_on_c, 4, 41, 0
7, 172616, Note_on_c, 4, 41, 127
7, 172692, Note_on_c, 4, 41, 0
7, 172808, Note_on_c, 4, 41, 127
7, 173292, Note_on_c, 4, 41, 0
7, 173384, Note_on_c, 4, 41, 127
7, 173576, Note_on_c, 4, 41, 0
7, 173576, Note_on_c, 4, 43, 119
7, 174048, Note_on_c, 4, 43, 0
7, 174152, Note_on_c, 4, 43, 127
7, 174236, Note_on_c, 4, 43, 0
7, 174344, Note_on_c, 4, 43, 122
7, 174656, Note_on_c, 4, 43, 0
7, 174728, Note_on_c, 4, 43, 122
7, 174904, Note_on_c, 4, 43, 0
7, 174920, Note_on_c, 4, 42, 127
7, 175112, Note_on_c, 4, 42, 0
7, 175112, Note_on_c, 4, 41, 127
7, 175560, Note_on_c, 4, 41, 0
7, 175688, Note_on_c, 4, 41, 127
7, 175756, Note_on_c, 4, 41, 0
7, 175880, Note_on_c, 4, 41, 127
7, 176256, Note_on_c, 4, 41, 0
7, 176264, Note_on_c, 4, 48, 127
7, 176452, Note_on_c, 4, 48, 0
7, 176456, Note_on_c, 4, 41, 122
7, 176644, Note_on_c, 4, 41, 0
7, 176648, Note_on_c, 4, 43, 122
7, 176720, Note_on_c, 4, 43, 0
7, 176840, Note_on_c, 4, 43, 116
7, 176912, Note_on_c, 4, 43, 0
7, 177032, Note_on_c, 4, 43, 122
7, 177332, Note_on_c, 4, 43, 0
7, 177416, Note_on_c, 4, 43, 127
7, 177580, Note_on_c, 4, 43, 0
7, 177608, Note_on_c, 4, 50, 127
7, 177960, Note_on_c, 4, 50, 0
7, 177992, Note_on_c, 4, 42, 127
7, 178184, Note_on_c, 4, 42, 0
7, 178184, Note_on_c, 4, 41, 122
7, 178644, Note_on_c, 4, 41, 0
7, 178760, Note_on_c, 4, 41, 127
7, 178836, Note_on_c, 4, 41, 0
7, 178952, Note_on_c, 4, 41, 127
7, 179436, Note_on_c, 4, 41, 0
7, 179528, Note_on_c, 4, 41, 127
7, 179720, Note_on_c, 4, 43, 127
7, 179732, Note_on_c, 4, 41, 0
7, 180188, Note_on_c, 4, 43, 0
7, 180296, Note_on_c, 4, 43, 127
7, 180376, Note_on_c, 4, 43, 0
7, 180488, Note_on_c, 4, 43, 127
7, 180984, Note_on_c, 4, 43, 0
7, 181064, Note_on_c, 4, 43, 122
7, 181256, Note_on_c, 4, 43, 0
7, 181256, Note_on_c, 4, 41, 122
7, 181716, Note_on_c, 4, 41, 0
7, 181832, Note_on_c, 4, 41, 127
7, 181908, Note_on_c, 4, 41, 0
7, 182024, Note_on_c, 4, 41, 127
7, 182508, Note_on_c, 4, 41, 0
7, 182600, Note_on_c, 4, 41, 127
7, 182792, Note_on_c, 4, 43, 127
7, 182804, Note_on_c, 4, 41, 0
7, 183260, Note_on_c, 4, 43, 0
7, 183368, Note_on_c, 4, 43, 127
7, 183448, Note_on_c, 4, 43, 0
7, 183560, Note_on_c, 4, 43, 127
7, 184056, Note_on_c, 4, 43, 0
7, 184136, Note_on_c, 4, 43, 122
7, 184328, Note_on_c, 4, 43, 0
7, 184328, Note_on_c, 4, 41, 122
7, 184788, Note_on_c, 4, 41, 0
7, 184904, Note_on_c, 4, 41, 127
7, 184980, Note_on_c, 4, 41, 0
7, 185096, Note_on_c, 4, 41, 127
7, 185580, Note_on_c, 4, 41, 0
7, 185672, Note_on_c, 4, 41, 127
7, 185864, Note_on_c, 4, 43, 127
7, 185876, Note_on_c, 4, 41, 0
7, 186332, Note_on_c, 4, 43, 0
7, 186440, Note_on_c, 4, 43, 127
7, 186520, Note_on_c, 4, 43, 0
7, 186632, Note_on_c, 4, 43, 127
7, 187128, Note_on_c, 4, 43, 0
7, 187208, Note_on_c, 4, 43, 122
7, 187400, Note_on_c, 4, 43, 0
7, 187400, Note_on_c, 4, 41, 122
7, 187860, Note_on_c, 4, 41, 0
7, 187976, Note_on_c, 4, 41, 127
7, 188052, Note_on_c, 4, 41, 0
7, 188168, Note_on_c, 4, 41, 127
7, 188652, Note_on_c, 4, 41, 0
7, 188744, Note_on_c, 4, 41, 127
7, 188936, Note_on_c, 4, 43, 127
7, 188948, Note_on_c, 4, 41, 0
7, 189404, Note_on_c, 4, 43, 0
7, 189512, Note_on_c, 4, 43, 127
7, 189592, Note_on_c, 4, 43, 0
7, 189704, Note_on_c, 4, 43, 127
7, 190200, Note_on_c, 4, 43, 0
7, 190280, Note_on_c, 4, 43, 122
7, 190472, Note_on_c, 4, 43, 0
7, 190472, Note_on_c, 4, 41, 122
7, 190932, Note_on_c, 4, 41, 0
7, 191048, Note_on_c, 4, 41, 127
7, 191124, Note_on_c, 4, 41, 0
7, 191240, Note_on_c, 4, 41, 127
7, 191724, Note_on_c, 4, 41, 0
7, 191816, Note_on_c, 4, 41, 127
7, 192008, Note_on_c, 4, 43, 127
7, 192020, Note_on_c, 4, 41, 0
7, 192476, Note_on_c, 4, 43, 0
7, 192584, Note_on_c, 4, 43, 127
7, 192664, Note_on_c, 4, 43, 0
7, 192776, Note_on_c, 4, 43, 127
7, 193272, Note_on_c, 4, 43, 0
7, 193352, Note_on_c, 4, 42, 122
7, 193544, Note_on_c, 4, 42, 0
7, 193544, Note_on_c, 4, 41, 127
7, 195072, Note_on_c, 4, 41, 0
7, 195072, End_track
8, 0, Start_track
8, 0, MIDI_port, 0
8, 0, Title_t, "Guitar 3"
8, 0, Control_c, 0, 32, 0
8, 0, Control_c, 5, 91, 127
8, 0, Control_c, 5, 93, 105
8, 672, Control_c, 5, 120, 0
8, 768, Control_c, 5, 121, 0
8, 960, Control_c, 5, 100, 0
8, 1056, Control_c, 5, 101, 0
8, 1152, Control_c, 5, 6, 2
8, 39936, Note_on_c, 5, 53, 127
8, 40320, Note_on_c, 5, 57, 127
8, 40328, Note_on_c, 5, 53, 0
8, 40704, Note_on_c, 5, 57, 0
8, 40704, Note_on_c, 5, 64, 127
8, 41080, Note_on_c, 5, 64, 0
8, 41088, Note_on_c, 5, 57, 127
8, 41448, Note_on_c, 5, 57, 0
8, 41472, Note_on_c, 5, 55, 127
8, 41856, Note_on_c, 5, 59, 127
8, 41872, Note_on_c, 5, 55, 0
8, 42240, Note_on_c, 5, 65, 127
8, 42248, Note_on_c, 5, 59, 0
8, 42616, Note_on_c, 5, 65, 0
8, 42624, Note_on_c, 5, 59, 127
8, 42992, Note_on_c, 5, 59, 0
8, 43008, Note_on_c, 5, 57, 127
8, 43380, Note_on_c, 5, 57, 0
8, 43392, Note_on_c, 5, 60, 127
8, 43756, Note_on_c, 5, 60, 0
8, 43776, Note_on_c, 5, 67, 127
8, 44152, Note_on_c, 5, 67, 0
8, 44160, Note_on_c, 5, 60, 127
8, 44544, Note_on_c, 5, 55, 127
8, 44548, Note_on_c, 5, 60, 0
8, 44920, Note_on_c, 5, 55, 0
8, 44928, Note_on_c, 5, 59, 127
8, 45312, Note_on_c, 5, 65, 127
8, 45316, Note_on_c, 5, 59, 0
8, 45692, Note_on_c, 5, 65, 0
8, 45696, Note_on_c, 5, 59, 127
8, 46060, Note_on_c, 5, 59, 0
8, 46080, Note_on_c, 5, 53, 127
8, 46464, Note_on_c, 5, 57, 127
8, 46472, Note_on_c, 5, 53, 0
8, 46848, Note_on_c, 5, 57, 0
8, 46848, Note_on_c, 5, 64, 127
8, 47224, Note_on_c, 5, 64, 0
8, 47232, Note_on_c, 5, 57, 127
8, 47592, Note_on_c, 5, 57, 0
8, 47616, Note_on_c, 5, 55, 127
8, 48000, Note_on_c, 5, 59, 127
8, 48016, Note_on_c, 5, 55, 0
8, 48384, Note_on_c, 5, 65, 127
8, 48392, Note_on_c, 5, 59, 0
8, 48760, Note_on_c, 5, 65, 0
8, 48768, Note_on_c, 5, 59, 127
8, 49136, Note_on_c, 5, 59, 0
8, 49152, Note_on_c, 5, 57, 127
8, 49524, Note_on_c, 5, 57, 0
8, 49536, Note_on_c, 5, 60, 127
8, 49900, Note_on_c, 5, 60, 0
8, 49920, Note_on_c, 5, 67, 127
8, 50296, Note_on_c, 5, 67, 0
8, 50304, Note_on_c, 5, 60, 127
8, 50688, Note_on_c, 5, 55, 127
8, 50692, Note_on_c, 5, 60, 0
8, 51064, Note_on_c, 5, 55, 0
8, 51072, Note_on_c, 5, 59, 127
8, 51456, Note_on_c, 5, 65, 127
8, 51460, Note_on_c, 5, 59, 0
8, 51836, Note_on_c, 5, 65, 0
8, 51840, Note_on_c, 5, 59, 127
8, 52204, Note_on_c, 5, 59, 0
8, 52224, Note_on_c, 5, 53, 127
8, 52608, Note_on_c, 5, 57, 127
8, 52616, Note_on_c, 5, 53, 0
8, 52992, Note_on_c, 5, 57, 0
8, 52992, Note_on_c, 5, 64, 127
8, 53368, Note_on_c, 5, 64, 0
8, 53376, Note_on_c, 5, 57, 127
8, 53736, Note_on_c, 5, 57, 0
8, 53760, Note_on_c, 5, 55, 127
8, 54144, Note_on_c, 5, 59, 127
8, 54160, Note_on_c, 5, 55, 0
8, 54528, Note_on_c, 5, 65, 127
8, 54536, Note_on_c, 5, 59, 0
8, 54904, Note_on_c, 5, 65, 0
8, 54912, Note_on_c, 5, 59, 127
8, 55280, Note_on_c, 5, 59, 0
8, 55296, Note_on_c, 5, 57, 127
8, 55668, Note_on_c, 5, 57, 0
8, 55680, Note_on_c, 5, 60, 127
8, 56044, Note_on_c, 5, 60, 0
8, 56064, Note_on_c, 5, 67, 127
8, 56440, Note_on_c, 5, 67, 0
8, 56448, Note_on_c, 5, 60, 127
8, 56832, Note_on_c, 5, 60, 0
8, 56832, Note_on_c, 5, 65, 127
8, 56956, Control_c, 5, 1, 5
8, 56964, Control_c, 5, 1, 10
8, 56976, Control_c, 5, 1, 15
8, 56988, Control_c, 5, 1, 20
8, 57000, Control_c, 5, 1, 25
8, 57012, Control_c, 5, 1, 30
8, 57020, Control_c, 5, 1, 37
8, 57032, Control_c, 5, 1, 45
8, 57044, Control_c, 5, 1, 50
8, 57056, Control_c, 5, 1, 54
8, 57064, Control_c, 5, 1, 58
8, 57076, Control_c, 5, 1, 61
8, 57196, Control_c, 5, 1, 59
8, 57208, Control_c, 5, 1, 54
8, 57216, Note_on_c, 5, 64, 127
8, 57220, Control_c, 5, 1, 9
8, 57232, Control_c, 5, 1, 0
8, 57240, Note_on_c, 5, 65, 0
8, 57432, Note_on_c, 5, 64, 0
8, 57600, Note_on_c, 5, 62, 127
8, 57772, Note_on_c, 5, 62, 0
8, 57792, Note_on_c, 5, 60, 122
8, 57968, Note_on_c, 5, 60, 0
8, 57984, Note_on_c, 5, 59, 127
8, 58168, Note_on_c, 5, 59, 0
8, 58176, Note_on_c, 5, 57, 127
8, 58348, Note_on_c, 5, 57, 0
8, 119808, Note_on_c, 5, 53, 127
8, 120192, Note_on_c, 5, 57, 127
8, 120200, Note_on_c, 5, 53, 0
8, 120576, Note_on_c, 5, 57, 0
8, 120576, Note_on_c, 5, 64, 127
8, 120952, Note_on_c, 5, 64, 0
8, 120960, Note_on_c, 5, 57, 127
8, 121320, Note_on_c, 5, 57, 0
8, 121344, Note_on_c, 5, 55, 127
8, 121728, Note_on_c, 5, 59, 127
8, 121744, Note_on_c, 5, 55, 0
8, 122112, Note_on_c, 5, 65, 127
8, 122120, Note_on_c, 5, 59, 0
8, 122488, Note_on_c, 5, 65, 0
8, 122496, Note_on_c, 5, 59, 127
8, 122864, Note_on_c, 5, 59, 0
8, 122880, Note_on_c, 5, 57, 127
8, 123252, Note_on_c, 5, 57, 0
8, 123264, Note_on_c, 5, 60, 127
8, 123628, Note_on_c, 5, 60, 0
8, 123648, Note_on_c, 5, 67, 127
8, 124024, Note_on_c, 5, 67, 0
8, 124032, Note_on_c, 5, 60, 127
8, 124416, Note_on_c, 5, 55, 127
8, 124420, Note_on_c, 5, 60, 0
8, 124792, Note_on_c, 5, 55, 0
8, 124800, Note_on_c, 5, 59, 127
8, 125184, Note_on_c, 5, 65, 127
8, 125188, Note_on_c, 5, 59, 0
8, 125564, Note_on_c, 5, 65, 0
8, 125568, Note_on_c, 5, 59, 127
8, 125932, Note_on_c, 5, 59, 0
8, 125952, Note_on_c, 5, 53, 127
8, 126336, Note_on_c, 5, 57, 127
8, 126344, Note_on_c, 5, 53, 0
8, 126720, Note_on_c, 5, 57, 0
8, 126720, Note_on_c, 5, 64, 127
8, 127096, Note_on_c, 5, 64, 0
8, 127104, Note_on_c, 5, 57, 127
8, 127464, Note_on_c, 5, 57, 0
8, 127488, Note_on_c, 5, 55, 127
8, 127872, Note_on_c, 5, 59, 127
8, 127888, Note_on_c, 5, 55, 0
8, 128256, Note_on_c, 5, 65, 127
8, 128264, Note_on_c, 5, 59, 0
8, 128632, Note_on_c, 5, 65, 0
8, 128640, Note_on_c, 5, 59, 127
8, 129008, Note_on_c, 5, 59, 0
8, 129024, Note_on_c, 5, 57, 127
8, 129396, Note_on_c, 5, 57, 0
8, 129408, Note_on_c, 5, 60, 127
8, 129772, Note_on_c, 5, 60, 0
8, 129792, Note_on_c, 5, 67, 127
8, 130168, Note_on_c, 5, 67, 0
8, 130176, Note_on_c, 5, 60, 127
8, 130560, Note_on_c, 5, 55, 127
8, 130564, Note_on_c, 5, 60, 0
8, 130936, Note_on_c, 5, 55, 0
8, 130944, Note_on_c, 5, 59, 127
8, 131328, Note_on_c, 5, 65, 127
8, 131332, Note_on_c, 5, 59, 0
8, 131708, Note_on_c, 5, 65, 0
8, 131712, Note_on_c, 5, 59, 127
8, 132076, Note_on_c, 5, 59, 0
8, 132096, Note_on_c, 5, 53, 127
8, 132480, Note_on_c, 5, 57, 127
8, 132488, Note_on_c, 5, 53, 0
8, 132864, Note_on_c, 5, 57, 0
8, 132864, Note_on_c, 5, 64, 127
8, 133240, Note_on_c, 5, 64, 0
8, 133248, Note_on_c, 5, 57, 127
8, 133608, Note_on_c, 5, 57, 0
8, 133632, Note_on_c, 5, 55, 127
8, 134016, Note_on_c, 5, 59, 127
8, 134032, Note_on_c, 5, 55, 0
8, 134400, Note_on_c, 5, 65, 127
8, 134408, Note_on_c, 5, 59, 0
8, 134776, Note_on_c, 5, 65, 0
8, 134784, Note_on_c, 5, 59, 127
8, 135152, Note_on_c, 5, 59, 0
8, 135168, Note_on_c, 5, 57, 127
8, 135540, Note_on_c, 5, 57, 0
8, 135552, Note_on_c, 5, 60, 127
8, 135916, Note_on_c, 5, 60, 0
8, 135936, Note_on_c, 5, 67, 127
8, 136312, Note_on_c, 5, 67, 0
8, 136320, Note_on_c, 5, 60, 127
8, 136704, Note_on_c, 5, 60, 0
8, 136704, Note_on_c, 5, 65, 127
8, 136828, Control_c, 5, 1, 5
8, 136836, Control_c, 5, 1, 10
8, 136848, Control_c, 5, 1, 15
8, 136860, Control_c, 5, 1, 20
8, 136872, Control_c, 5, 1, 25
8, 136884, Control_c, 5, 1, 30
8, 136892, Control_c, 5, 1, 37
8, 136904, Control_c, 5, 1, 45
8, 136916, Control_c, 5, 1, 50
8, 136928, Control_c, 5, 1, 54
8, 136936, Control_c, 5, 1, 58
8, 136948, Control_c, 5, 1, 61
8, 137068, Control_c, 5, 1, 59
8, 137080, Control_c, 5, 1, 54
8, 137088, Note_on_c, 5, 64, 127
8, 137092, Control_c, 5, 1, 9
8, 137104, Control_c, 5, 1, 0
8, 137112, Note_on_c, 5, 65, 0
8, 137304, Note_on_c, 5, 64, 0
8, 137472, Note_on_c, 5, 62, 127
8, 137644, Note_on_c, 5, 62, 0
8, 137664, Note_on_c, 5, 60, 122
8, 137840, Note_on_c, 5, 60, 0
8, 137856, Note_on_c, 5, 59, 127
8, 138040, Note_on_c, 5, 59, 0
8, 138048, Note_on_c, 5, 57, 127
8, 138220, Note_on_c, 5, 57, 0
8, 187392, Note_on_c, 5, 53, 127
8, 187456, Channel_aftertouch_c, 5, 1
8, 187476, Channel_aftertouch_c, 5, 0
8, 187776, Note_on_c, 5, 64, 127
8, 187792, Note_on_c, 5, 53, 0
8, 188160, Note_on_c, 5, 60, 127
8, 188176, Note_on_c, 5, 64, 0
8, 188540, Note_on_c, 5, 60, 0
8, 188544, Note_on_c, 5, 57, 119
8, 188928, Note_on_c, 5, 59, 127
8, 188960, Note_on_c, 5, 57, 0
8, 189312, Note_on_c, 5, 55, 127
8, 189324, Note_on_c, 5, 59, 0
8, 189684, Note_on_c, 5, 55, 0
8, 189696, Note_on_c, 5, 52, 127
8, 190068, Note_on_c, 5, 52, 0
8, 190080, Note_on_c, 5, 55, 127
8, 190452, Note_on_c, 5, 55, 0
8, 190464, Note_on_c, 5, 53, 127
8, 190528, Channel_aftertouch_c, 5, 1
8, 190548, Channel_aftertouch_c, 5, 0
8, 190848, Note_on_c, 5, 64, 127
8, 190864, Note_on_c, 5, 53, 0
8, 191232, Note_on_c, 5, 60, 127
8, 191248, Note_on_c, 5, 64, 0
8, 191612, Note_on_c, 5, 60, 0
8, 191616, Note_on_c, 5, 57, 119
8, 192000, Note_on_c, 5, 59, 127
8, 192032, Note_on_c, 5, 57, 0
8, 192384, Note_on_c, 5, 55, 127
8, 192396, Note_on_c, 5, 59, 0
8, 192756, Note_on_c, 5, 55, 0
8, 192768, Note_on_c, 5, 52, 127
8, 193140, Note_on_c, 5, 52, 0
8, 193152, Note_on_c, 5, 55, 127
8, 193524, Note_on_c, 5, 55, 0
8, 193536, Note_on_c, 5, 53, 117
8, 193728, Note_on_c, 5, 60, 117
8, 193740, Note_on_c, 5, 53, 0
8, 193864, Control_c, 5, 1, 1
8, 193876, Control_c, 5, 1, 2
8, 193888, Control_c, 5, 1, 3
8, 193908, Control_c, 5, 1, 4
8, 193920, Note_on_c, 5, 59, 117
8, 193920, Control_c, 5, 1, 5
8, 193932, Control_c, 5, 1, 6
8, 193936, Note_on_c, 5, 60, 0
8, 193944, Control_c, 5, 1, 7
8, 193952, Control_c, 5, 1, 9
8, 193964, Control_c, 5, 1, 10
8, 193976, Control_c, 5, 1, 11
8, 193988, Control_c, 5, 1, 13
8, 194000, Control_c, 5, 1, 15
8, 194020, Control_c, 5, 1, 17
8, 194032, Control_c, 5, 1, 18
8, 194044, Control_c, 5, 1, 19
8, 194064, Control_c, 5, 1, 20
8, 194084, Control_c, 5, 1, 21
8, 194112, Note_on_c, 5, 53, 112
8, 194132, Note_on_c, 5, 59, 0
8, 194220, Control_c, 5, 1, 22
8, 194264, Control_c, 5, 1, 23
8, 194296, Control_c, 5, 1, 25
8, 194304, Note_on_c, 5, 64, 117
8, 194352, Control_c, 5, 1, 26
8, 194372, Control_c, 5, 1, 27
8, 194384, Control_c, 5, 1, 28
8, 194396, Control_c, 5, 1, 29
8, 194416, Control_c, 5, 1, 30
8, 194492, Control_c, 5, 1, 31
8, 194516, Control_c, 5, 1, 33
8, 195188, Control_c, 5, 1, 31
8, 195244, Control_c, 5, 1, 30
8, 195276, Control_c, 5, 1, 29
8, 195288, Control_c, 5, 1, 28
8, 195332, Control_c, 5, 1, 27
8, 195376, Control_c, 5, 1, 26
8, 195408, Control_c, 5, 1, 25
8, 195440, Control_c, 5, 1, 23
8, 195476, Control_c, 5, 1, 22
8, 195576, Control_c, 5, 1, 21
8, 195628, Control_c, 5, 1, 20
8, 195676, Control_c, 5, 1, 19
8, 195708, Control_c, 5, 1, 18
8, 195772, Control_c, 5, 1, 17
8, 195816, Control_c, 5, 1, 15
8, 195896, Control_c, 5, 1, 14
8, 195928, Control_c, 5, 1, 13
8, 195940, Control_c, 5, 1, 12
8, 195960, Control_c, 5, 1, 11
8, 195980, Control_c, 5, 1, 10
8, 196004, Control_c, 5, 1, 9
8, 196016, Control_c, 5, 1, 6
8, 196024, Control_c, 5, 1, 5
8, 196040, Control_c, 5, 1, 3
8, 196048, Control_c, 5, 1, 2
8, 196060, Control_c, 5, 1, 0
8, 198108, Note_on_c, 5, 64, 0
8, 198112, Note_on_c, 5, 53, 0
8, 198112, End_track
9, 0, Start_track
9, 0, MIDI_port, 0
9, 0, Title_t, "Guitar 4"
9, 0, Control_c, 0, 32, 0
9, 0, Control_c, 6, 91, 127
9, 0, Control_c, 6, 93, 80
9, 672, Control_c, 6, 120, 0
9, 768, Control_c, 6, 121, 0
9, 960, Control_c, 6, 100, 0
9, 1056, Control_c, 6, 101, 0
9, 1152, Control_c, 6, 6, 2
9, 86392, Pitch_bend_c, 6, 7860
9, 86404, Pitch_bend_c, 6, 6454
9, 86416, Pitch_bend_c, 6, 4882
9, 86424, Pitch_bend_c, 6, 3227
9, 86436, Pitch_bend_c, 6, 1820
9, 86448, Pitch_bend_c, 6, 413
9, 86460, Pitch_bend_c, 6, 0
9, 86592, Pitch_bend_c, 6, 4302
9, 86604, Pitch_bend_c, 6, 8192
9, 87360, Note_on_c, 6, 57, 127
9, 88008, Control_c, 6, 1, 1
9, 88020, Control_c, 6, 1, 3
9, 88028, Control_c, 6, 1, 5
9, 88040, Control_c, 6, 1, 7
9, 88064, Control_c, 6, 1, 9
9, 88072, Control_c, 6, 1, 10
9, 88084, Control_c, 6, 1, 11
9, 88096, Control_c, 6, 1, 14
9, 88108, Control_c, 6, 1, 15
9, 88116, Control_c, 6, 1, 17
9, 88128, Control_c, 6, 1, 18
9, 88152, Control_c, 6, 1, 19
9, 88216, Control_c, 6, 1, 18
9, 88228, Control_c, 6, 1, 10
9, 88240, Control_c, 6, 1, 3
9, 88248, Control_c, 6, 1, 0
9, 88512, Pitch_bend_c, 6, 8109
9, 88524, Pitch_bend_c, 6, 7778
9, 88536, Pitch_bend_c, 6, 7447
9, 88548, Pitch_bend_c, 6, 7281
9, 88556, Pitch_bend_c, 6, 6950
9, 88568, Pitch_bend_c, 6, 6619
9, 88580, Pitch_bend_c, 6, 6288
9, 88592, Pitch_bend_c, 6, 5957
9, 88600, Pitch_bend_c, 6, 5543
9, 88612, Pitch_bend_c, 6, 5213
9, 88624, Pitch_bend_c, 6, 4964
9, 88636, Pitch_bend_c, 6, 4551
9, 88644, Pitch_bend_c, 6, 4220
9, 88656, Pitch_bend_c, 6, 3889
9, 88668, Pitch_bend_c, 6, 3475
9, 88676, Pitch_bend_c, 6, 3061
9, 88688, Pitch_bend_c, 6, 2565
9, 88700, Pitch_bend_c, 6, 2234
9, 88712, Pitch_bend_c, 6, 1820
9, 88720, Pitch_bend_c, 6, 1489
9, 88728, Note_on_c, 6, 57, 0
9, 88736, Pitch_bend_c, 6, 1241
9, 88744, Pitch_bend_c, 6, 1075
9, 88788, Pitch_bend_c, 6, 1572
9, 88800, Pitch_bend_c, 6, 3889
9, 88812, Pitch_bend_c, 6, 8192
9, 89480, Control_c, 6, 1, 3
9, 89492, Control_c, 6, 1, 5
9, 89504, Control_c, 6, 1, 9
9, 89516, Control_c, 6, 1, 12
9, 89524, Control_c, 6, 1, 15
9, 89540, Control_c, 6, 1, 18
9, 89548, Control_c, 6, 1, 19
9, 89560, Control_c, 6, 1, 20
9, 89572, Control_c, 6, 1, 22
9, 89580, Control_c, 6, 1, 25
9, 89592, Control_c, 6, 1, 27
9, 89604, Control_c, 6, 1, 29
9, 89616, Control_c, 6, 1, 31
9, 89624, Control_c, 6, 1, 33
9, 89636, Control_c, 6, 1, 34
9, 89668, Control_c, 6, 1, 35
9, 89704, Control_c, 6, 1, 36
9, 89956, Control_c, 6, 1, 37
9, 90188, Control_c, 6, 1, 36
9, 90200, Control_c, 6, 1, 5
9, 90208, Control_c, 6, 1, 0
9, 90428, Pitch_bend_c, 6, 7198
9, 90440, Pitch_bend_c, 6, 5957
9, 90452, Pitch_bend_c, 6, 5047
9, 90460, Pitch_bend_c, 6, 4220
9, 90472, Pitch_bend_c, 6, 3227
9, 90484, Pitch_bend_c, 6, 2399
9, 90492, Pitch_bend_c, 6, 1654
9, 90508, Pitch_bend_c, 6, 1075
9, 90516, Pitch_bend_c, 6, 413
9, 90528, Pitch_bend_c, 6, 82
9, 90540, Pitch_bend_c, 6, 0
9, 90592, Pitch_bend_c, 6, 910
9, 90604, Pitch_bend_c, 6, 2068
9, 90616, Pitch_bend_c, 6, 3806
9, 90628, Pitch_bend_c, 6, 5957
9, 90636, Pitch_bend_c, 6, 8192
9, 90804, Pitch_bend_c, 6, 7116
9, 90816, Pitch_bend_c, 6, 5792
9, 90824, Pitch_bend_c, 6, 4799
9, 90836, Pitch_bend_c, 6, 3640
9, 90848, Pitch_bend_c, 6, 2647
9, 90856, Pitch_bend_c, 6, 1572
9, 90872, Pitch_bend_c, 6, 661
9, 90880, Pitch_bend_c, 6, 0
9, 90980, Pitch_bend_c, 6, 330
9, 90992, Pitch_bend_c, 6, 2647
9, 91000, Pitch_bend_c, 6, 6702
9, 91016, Pitch_bend_c, 6, 8192
9, 91456, Control_c, 6, 1, 2
9, 91468, Control_c, 6, 1, 5
9, 91480, Control_c, 6, 1, 9
9, 91492, Control_c, 6, 1, 10
9, 91500, Control_c, 6, 1, 12
9, 91512, Control_c, 6, 1, 14
9, 91536, Control_c, 6, 1, 17
9, 91556, Control_c, 6, 1, 18
9, 91568, Control_c, 6, 1, 19
9, 91576, Control_c, 6, 1, 21
9, 91588, Control_c, 6, 1, 23
9, 91600, Control_c, 6, 1, 26
9, 91612, Control_c, 6, 1, 27
9, 91624, Control_c, 6, 1, 29
9, 91632, Control_c, 6, 1, 30
9, 92120, Control_c, 6, 1, 27
9, 92128, Control_c, 6, 1, 23
9, 92140, Control_c, 6, 1, 0
9, 92536, Pitch_bend_c, 6, 7860
9, 92548, Pitch_bend_c, 6, 6454
9, 92560, Pitch_bend_c, 6, 4882
9, 92568, Pitch_bend_c, 6, 3227
9, 92580, Pitch_bend_c, 6, 1820
9, 92592, Pitch_bend_c, 6, 413
9, 92604, Pitch_bend_c, 6, 0
9, 92736, Pitch_bend_c, 6, 4302
9, 92748, Pitch_bend_c, 6, 8192
9, 93532, Note_on_c, 6, 69, 127
9, 93780, Control_c, 6, 1, 4
9, 93792, Control_c, 6, 1, 7
9, 93800, Control_c, 6, 1, 10
9, 93816, Control_c, 6, 1, 14
9, 93824, Control_c, 6, 1, 15
9, 93848, Control_c, 6, 1, 17
9, 93880, Control_c, 6, 1, 18
9, 93892, Control_c, 6, 1, 19
9, 93900, Control_c, 6, 1, 21
9, 93912, Control_c, 6, 1, 23
9, 93924, Control_c, 6, 1, 26
9, 93936, Control_c, 6, 1, 27
9, 93944, Control_c, 6, 1, 28
9, 93956, Control_c, 6, 1, 29
9, 93968, Control_c, 6, 1, 30
9, 93980, Control_c, 6, 1, 31
9, 94376, Control_c, 6, 1, 29
9, 94384, Control_c, 6, 1, 20
9, 94396, Control_c, 6, 1, 0
9, 94472, Note_on_c, 6, 69, 0
9, 94652, Pitch_bend_c, 6, 6619
9, 94664, Pitch_bend_c, 6, 4385
9, 94672, Pitch_bend_c, 6, 2647
9, 94684, Pitch_bend_c, 6, 1075
9, 94696, Pitch_bend_c, 6, 0
9, 94828, Pitch_bend_c, 6, 3144
9, 94836, Pitch_bend_c, 6, 8026
9, 94848, Pitch_bend_c, 6, 8192
9, 95456, Pitch_bend_c, 6, 8026
9, 95468, Pitch_bend_c, 6, 7778
9, 95480, Pitch_bend_c, 6, 7612
9, 95492, Pitch_bend_c, 6, 7364
9, 95500, Pitch_bend_c, 6, 7281
9, 95512, Pitch_bend_c, 6, 7116
9, 95524, Pitch_bend_c, 6, 6950
9, 95532, Pitch_bend_c, 6, 6785
9, 95544, Pitch_bend_c, 6, 6619
9, 95556, Pitch_bend_c, 6, 6288
9, 95568, Pitch_bend_c, 6, 6040
9, 95576, Pitch_bend_c, 6, 5792
9, 95592, Pitch_bend_c, 6, 5543
9, 95600, Pitch_bend_c, 6, 5295
9, 95612, Pitch_bend_c, 6, 5047
9, 95624, Pitch_bend_c, 6, 4799
9, 95632, Pitch_bend_c, 6, 4385
9, 95644, Pitch_bend_c, 6, 4137
9, 95656, Pitch_bend_c, 6, 3806
9, 95664, Pitch_bend_c, 6, 3475
9, 95676, Pitch_bend_c, 6, 3061
9, 95688, Pitch_bend_c, 6, 2482
9, 95700, Pitch_bend_c, 6, 1737
9, 95712, Pitch_bend_c, 6, 744
9, 95720, Pitch_bend_c, 6, 0
9, 95776, Pitch_bend_c, 6, 82
9, 95788, Pitch_bend_c, 6, 2482
9, 95796, Pitch_bend_c, 6, 5957
9, 95808, Pitch_bend_c, 6, 8192
9, 95808, End_track
10, 0, Start_track
10, 0, MIDI_port, 0
10, 0, Title_t, "Strings 1"
10, 0, Control_c, 0, 32, 0
10, 0, Control_c, 7, 91, 120
10, 0, Control_c, 7, 93, 85
10, 672, Control_c, 7, 120, 0
10, 768, Control_c, 7, 121, 0
10, 960, Control_c, 7, 100, 0
10, 1056, Control_c, 7, 101, 0
10, 1152, Control_c, 7, 6, 2
10, 3076, Note_on_c, 7, 64, 114
10, 3076, Note_on_c, 7, 57, 117
10, 3076, Note_on_c, 7, 72, 122
10, 4184, Control_c, 7, 64, 127
10, 4420, Note_on_c, 7, 57, 0
10, 4428, Note_on_c, 7, 72, 0
10, 4428, Note_on_c, 7, 64, 0
10, 4600, Note_on_c, 7, 71, 122
10, 4604, Note_on_c, 7, 62, 117
10, 4604, Note_on_c, 7, 55, 122
10, 4620, Control_c, 7, 64, 0
10, 6144, Note_on_c, 7, 55, 0
10, 6144, Note_on_c, 7, 62, 0
10, 6144, Note_on_c, 7, 71, 0
10, 6148, Note_on_c, 7, 64, 114
10, 6148, Note_on_c, 7, 57, 117
10, 6148, Note_on_c, 7, 72, 122
10, 7256, Control_c, 7, 64, 127
10, 7492, Note_on_c, 7, 57, 0
10, 7500, Note_on_c, 7, 72, 0
10, 7500, Note_on_c, 7, 64, 0
10, 7672, Note_on_c, 7, 71, 122
10, 7676, Note_on_c, 7, 62, 117
10, 7676, Note_on_c, 7, 55, 122
10, 7692, Control_c, 7, 64, 0
10, 9216, Note_on_c, 7, 55, 0
10, 9216, Note_on_c, 7, 62, 0
10, 9216, Note_on_c, 7, 71, 0
10, 9220, Note_on_c, 7, 64, 114
10, 9220, Note_on_c, 7, 57, 117
10, 9220, Note_on_c, 7, 72, 122
10, 10328, Control_c, 7, 64, 127
10, 10564, Note_on_c, 7, 57, 0
10, 10572, Note_on_c, 7, 72, 0
10, 10572, Note_on_c, 7, 64, 0
10, 10744, Note_on_c, 7, 71, 122
10, 10748, Note_on_c, 7, 62, 117
10, 10748, Note_on_c, 7, 55, 122
10, 10764, Control_c, 7, 64, 0
10, 12288, Note_on_c, 7, 55, 0
10, 12288, Note_on_c, 7, 62, 0
10, 12288, Note_on_c, 7, 71, 0
10, 12292, Note_on_c, 7, 64, 114
10, 12292, Note_on_c, 7, 57, 117
10, 12292, Note_on_c, 7, 72, 122
10, 13400, Control_c, 7, 64, 127
10, 13636, Note_on_c, 7, 57, 0
10, 13644, Note_on_c, 7, 72, 0
10, 13644, Note_on_c, 7, 64, 0
10, 13816, Note_on_c, 7, 71, 122
10, 13820, Note_on_c, 7, 62, 117
10, 13820, Note_on_c, 7, 55, 122
10, 13836, Control_c, 7, 64, 0
10, 15360, Note_on_c, 7, 55, 0
10, 15360, Note_on_c, 7, 62, 0
10, 15360, Note_on_c, 7, 71, 0
10, 15364, Note_on_c, 7, 64, 114
10, 15364, Note_on_c, 7, 57, 117
10, 15364, Note_on_c, 7, 72, 122
10, 16472, Control_c, 7, 64, 127
10, 16708, Note_on_c, 7, 57, 0
10, 16716, Note_on_c, 7, 72, 0
10, 16716, Note_on_c, 7, 64, 0
10, 16888, Note_on_c, 7, 71, 122
10, 16892, Note_on_c, 7, 62, 117
10, 16892, Note_on_c, 7, 55, 122
10, 16908, Control_c, 7, 64, 0
10, 18432, Note_on_c, 7, 55, 0
10, 18432, Note_on_c, 7, 62, 0
10, 18432, Note_on_c, 7, 71, 0
10, 18436, Note_on_c, 7, 64, 114
10, 18436, Note_on_c, 7, 57, 117
10, 18436, Note_on_c, 7, 72, 122
10, 19544, Control_c, 7, 64, 127
10, 19780, Note_on_c, 7, 57, 0
10, 19788, Note_on_c, 7, 72, 0
10, 19788, Note_on_c, 7, 64, 0
10, 19960, Note_on_c, 7, 71, 122
10, 19964, Note_on_c, 7, 62, 117
10, 19964, Note_on_c, 7, 55, 122
10, 19980, Control_c, 7, 64, 0
10, 21504, Note_on_c, 7, 55, 0
10, 21504, Note_on_c, 7, 62, 0
10, 21504, Note_on_c, 7, 71, 0
10, 21508, Note_on_c, 7, 64, 114
10, 21508, Note_on_c, 7, 57, 117
10, 21508, Note_on_c, 7, 72, 122
10, 22616, Control_c, 7, 64, 127
10, 22852, Note_on_c, 7, 57, 0
10, 22860, Note_on_c, 7, 72, 0
10, 22860, Note_on_c, 7, 64, 0
10, 23032, Note_on_c, 7, 71, 122
10, 23036, Note_on_c, 7, 62, 117
10, 23036, Note_on_c, 7, 55, 122
10, 23052, Control_c, 7, 64, 0
10, 24576, Note_on_c, 7, 55, 0
10, 24576, Note_on_c, 7, 62, 0
10, 24576, Note_on_c, 7, 71, 0
10, 24580, Note_on_c, 7, 64, 114
10, 24580, Note_on_c, 7, 57, 117
10, 24580, Note_on_c, 7, 72, 122
10, 25688, Control_c, 7, 64, 127
10, 25924, Note_on_c, 7, 57, 0
10, 25932, Note_on_c, 7, 72, 0
10, 25932, Note_on_c, 7, 64, 0
10, 26104, Note_on_c, 7, 71, 122
10, 26108, Note_on_c, 7, 62, 117
10, 26108, Note_on_c, 7, 55, 122
10, 26124, Control_c, 7, 64, 0
10, 27648, Note_on_c, 7, 55, 0
10, 27648, Note_on_c, 7, 62, 0
10, 27648, Note_on_c, 7, 71, 0
10, 27652, Note_on_c, 7, 64, 114
10, 27652, Note_on_c, 7, 57, 117
10, 27652, Note_on_c, 7, 72, 122
10, 28760, Control_c, 7, 64, 127
10, 28996, Note_on_c, 7, 57, 0
10, 29004, Note_on_c, 7, 72, 0
10, 29004, Note_on_c, 7, 64, 0
10, 29176, Note_on_c, 7, 71, 122
10, 29180, Note_on_c, 7, 62, 117
10, 29180, Note_on_c, 7, 55, 122
10, 29196, Control_c, 7, 64, 0
10, 30720, Note_on_c, 7, 55, 0
10, 30720, Note_on_c, 7, 62, 0
10, 30720, Note_on_c, 7, 71, 0
10, 30724, Note_on_c, 7, 64, 114
10, 30724, Note_on_c, 7, 57, 117
10, 30724, Note_on_c, 7, 72, 122
10, 31832, Control_c, 7, 64, 127
10, 32068, Note_on_c, 7, 57, 0
10, 32076, Note_on_c, 7, 72, 0
10, 32076, Note_on_c, 7, 64, 0
10, 32248, Note_on_c, 7, 71, 122
10, 32252, Note_on_c, 7, 62, 117
10, 32252, Note_on_c, 7, 55, 122
10, 32268, Control_c, 7, 64, 0
10, 33792, Note_on_c, 7, 55, 0
10, 33792, Note_on_c, 7, 62, 0
10, 33792, Note_on_c, 7, 71, 0
10, 33796, Note_on_c, 7, 64, 114
10, 33796, Note_on_c, 7, 57, 117
10, 33796, Note_on_c, 7, 72, 122
10, 34904, Control_c, 7, 64, 127
10, 35140, Note_on_c, 7, 57, 0
10, 35148, Note_on_c, 7, 72, 0
10, 35148, Note_on_c, 7, 64, 0
10, 35320, Note_on_c, 7, 71, 122
10, 35324, Note_on_c, 7, 62, 117
10, 35324, Note_on_c, 7, 55, 122
10, 35340, Control_c, 7, 64, 0
10, 36864, Note_on_c, 7, 55, 0
10, 36864, Note_on_c, 7, 62, 0
10, 36864, Note_on_c, 7, 71, 0
10, 36868, Note_on_c, 7, 64, 114
10, 36868, Note_on_c, 7, 57, 117
10, 36868, Note_on_c, 7, 72, 122
10, 37976, Control_c, 7, 64, 127
10, 38212, Note_on_c, 7, 57, 0
10, 38220, Note_on_c, 7, 72, 0
10, 38220, Note_on_c, 7, 64, 0
10, 38392, Note_on_c, 7, 71, 122
10, 38396, Note_on_c, 7, 62, 117
10, 38396, Note_on_c, 7, 55, 122
10, 38412, Control_c, 7, 64, 0
10, 39936, Note_on_c, 7, 55, 0
10, 39936, Note_on_c, 7, 62, 0
10, 39936, Note_on_c, 7, 71, 0
10, 39940, Note_on_c, 7, 64, 114
10, 39940, Note_on_c, 7, 57, 117
10, 39940, Note_on_c, 7, 72, 122
10, 41048, Control_c, 7, 64, 127
10, 41284, Note_on_c, 7, 57, 0
10, 41292, Note_on_c, 7, 72, 0
10, 41292, Note_on_c, 7, 64, 0
10, 41464, Note_on_c, 7, 71, 122
10, 41468, Note_on_c, 7, 62, 117
10, 41468, Note_on_c, 7, 55, 122
10, 41484, Control_c, 7, 64, 0
10, 43008, Note_on_c, 7, 55, 0
10, 43008, Note_on_c, 7, 62, 0
10, 43008, Note_on_c, 7, 71, 0
10, 43012, Note_on_c, 7, 64, 114
10, 43012, Note_on_c, 7, 57, 117
10, 43012, Note_on_c, 7, 72, 122
10, 44120, Control_c, 7, 64, 127
10, 44356, Note_on_c, 7, 57, 0
10, 44364, Note_on_c, 7, 72, 0
10, 44364, Note_on_c, 7, 64, 0
10, 44536, Note_on_c, 7, 71, 122
10, 44540, Note_on_c, 7, 62, 117
10, 44540, Note_on_c, 7, 55, 122
10, 44556, Control_c, 7, 64, 0
10, 46080, Note_on_c, 7, 55, 0
10, 46080, Note_on_c, 7, 62, 0
10, 46080, Note_on_c, 7, 71, 0
10, 46084, Note_on_c, 7, 64, 114
10, 46084, Note_on_c, 7, 57, 117
10, 46084, Note_on_c, 7, 72, 122
10, 47192, Control_c, 7, 64, 127
10, 47428, Note_on_c, 7, 57, 0
10, 47436, Note_on_c, 7, 72, 0
10, 47436, Note_on_c, 7, 64, 0
10, 47608, Note_on_c, 7, 71, 122
10, 47612, Note_on_c, 7, 62, 117
10, 47612, Note_on_c, 7, 55, 122
10, 47628, Control_c, 7, 64, 0
10, 49152, Note_on_c, 7, 55, 0
10, 49152, Note_on_c, 7, 62, 0
10, 49152, Note_on_c, 7, 71, 0
10, 49156, Note_on_c, 7, 64, 114
10, 49156, Note_on_c, 7, 57, 117
10, 49156, Note_on_c, 7, 72, 122
10, 50264, Control_c, 7, 64, 127
10, 50500, Note_on_c, 7, 57, 0
10, 50508, Note_on_c, 7, 72, 0
10, 50508, Note_on_c, 7, 64, 0
10, 50680, Note_on_c, 7, 71, 122
10, 50684, Note_on_c, 7, 62, 117
10, 50684, Note_on_c, 7, 55, 122
10, 50700, Control_c, 7, 64, 0
10, 52224, Note_on_c, 7, 55, 0
10, 52224, Note_on_c, 7, 62, 0
10, 52224, Note_on_c, 7, 71, 0
10, 52228, Note_on_c, 7, 64, 114
10, 52228, Note_on_c, 7, 57, 117
10, 52228, Note_on_c, 7, 72, 122
10, 53336, Control_c, 7, 64, 127
10, 53572, Note_on_c, 7, 57, 0
10, 53580, Note_on_c, 7, 72, 0
10, 53580, Note_on_c, 7, 64, 0
10, 53752, Note_on_c, 7, 71, 122
10, 53756, Note_on_c, 7, 62, 117
10, 53756, Note_on_c, 7, 55, 122
10, 53772, Control_c, 7, 64, 0
10, 55296, Note_on_c, 7, 55, 0
10, 55296, Note_on_c, 7, 62, 0
10, 55296, Note_on_c, 7, 71, 0
10, 55300, Note_on_c, 7, 64, 114
10, 55300, Note_on_c, 7, 57, 117
10, 55300, Note_on_c, 7, 72, 122
10, 56408, Control_c, 7, 64, 127
10, 56644, Note_on_c, 7, 57, 0
10, 56652, Note_on_c, 7, 72, 0
10, 56652, Note_on_c, 7, 64, 0
10, 56824, Note_on_c, 7, 71, 122
10, 56828, Note_on_c, 7, 62, 117
10, 56828, Note_on_c, 7, 55, 122
10, 56844, Control_c, 7, 64, 0
10, 58272, Note_on_c, 7, 55, 0
10, 58272, Note_on_c, 7, 62, 0
10, 58272, Note_on_c, 7, 71, 0
10, 95236, Note_on_c, 7, 64, 114
10, 95236, Note_on_c, 7, 57, 117
10, 95236, Note_on_c, 7, 72, 122
10, 96344, Control_c, 7, 64, 127
10, 96580, Note_on_c, 7, 57, 0
10, 96588, Note_on_c, 7, 72, 0
10, 96588, Note_on_c, 7, 64, 0
10, 96760, Note_on_c, 7, 71, 122
10, 96764, Note_on_c, 7, 62, 117
10, 96764, Note_on_c, 7, 55, 122
10, 96780, Control_c, 7, 64, 0
10, 98304, Note_on_c, 7, 55, 0
10, 98304, Note_on_c, 7, 62, 0
10, 98304, Note_on_c, 7, 71, 0
10, 98308, Note_on_c, 7, 64, 114
10, 98308, Note_on_c, 7, 57, 117
10, 98308, Note_on_c, 7, 72, 122
10, 99416, Control_c, 7, 64, 127
10, 99652, Note_on_c, 7, 57, 0
10, 99660, Note_on_c, 7, 72, 0
10, 99660, Note_on_c, 7, 64, 0
10, 99832, Note_on_c, 7, 71, 122
10, 99836, Note_on_c, 7, 62, 117
10, 99836, Note_on_c, 7, 55, 122
10, 99852, Control_c, 7, 64, 0
10, 101376, Note_on_c, 7, 55, 0
10, 101376, Note_on_c, 7, 62, 0
10, 101376, Note_on_c, 7, 71, 0
10, 101380, Note_on_c, 7, 64, 114
10, 101380, Note_on_c, 7, 57, 117
10, 101380, Note_on_c, 7, 72, 122
10, 102488, Control_c, 7, 64, 127
10, 102724, Note_on_c, 7, 57, 0
10, 102732, Note_on_c, 7, 72, 0
10, 102732, Note_on_c, 7, 64, 0
10, 102904, Note_on_c, 7, 71, 122
10, 102908, Note_on_c, 7, 62, 117
10, 102908, Note_on_c, 7, 55, 122
10, 102924, Control_c, 7, 64, 0
10, 104448, Note_on_c, 7, 55, 0
10, 104448, Note_on_c, 7, 62, 0
10, 104448, Note_on_c, 7, 71, 0
10, 104452, Note_on_c, 7, 64, 114
10, 104452, Note_on_c, 7, 57, 117
10, 104452, Note_on_c, 7, 72, 122
10, 105560, Control_c, 7, 64, 127
10, 105796, Note_on_c, 7, 57, 0
10, 105804, Note_on_c, 7, 72, 0
10, 105804, Note_on_c, 7, 64, 0
10, 105976, Note_on_c, 7, 71, 122
10, 105980, Note_on_c, 7, 62, 117
10, 105980, Note_on_c, 7, 55, 122
10, 105996, Control_c, 7, 64, 0
10, 107520, Note_on_c, 7, 55, 0
10, 107520, Note_on_c, 7, 62, 0
10, 107520, Note_on_c, 7, 71, 0
10, 107524, Note_on_c, 7, 64, 114
10, 107524, Note_on_c, 7, 57, 117
10, 107524, Note_on_c, 7, 72, 122
10, 108632, Control_c, 7, 64, 127
10, 108868, Note_on_c, 7, 57, 0
10, 108876, Note_on_c, 7, 72, 0
10, 108876, Note_on_c, 7, 64, 0
10, 109048, Note_on_c, 7, 71, 122
10, 109052, Note_on_c, 7, 62, 117
10, 109052, Note_on_c, 7, 55, 122
10, 109068, Control_c, 7, 64, 0
10, 110592, Note_on_c, 7, 55, 0
10, 110592, Note_on_c, 7, 62, 0
10, 110592, Note_on_c, 7, 71, 0
10, 110596, Note_on_c, 7, 64, 114
10, 110596, Note_on_c, 7, 57, 117
10, 110596, Note_on_c, 7, 72, 122
10, 111704, Control_c, 7, 64, 127
10, 111940, Note_on_c, 7, 57, 0
10, 111948, Note_on_c, 7, 72, 0
10, 111948, Note_on_c, 7, 64, 0
10, 112120, Note_on_c, 7, 71, 122
10, 112124, Note_on_c, 7, 62, 117
10, 112124, Note_on_c, 7, 55, 122
10, 112140, Control_c, 7, 64, 0
10, 113664, Note_on_c, 7, 55, 0
10, 113664, Note_on_c, 7, 62, 0
10, 113664, Note_on_c, 7, 71, 0
10, 113668, Note_on_c, 7, 64, 114
10, 113668, Note_on_c, 7, 57, 117
10, 113668, Note_on_c, 7, 72, 122
10, 114776, Control_c, 7, 64, 127
10, 115012, Note_on_c, 7, 57, 0
10, 115020, Note_on_c, 7, 72, 0
10, 115020, Note_on_c, 7, 64, 0
10, 115192, Note_on_c, 7, 71, 122
10, 115196, Note_on_c, 7, 62, 117
10, 115196, Note_on_c, 7, 55, 122
10, 115212, Control_c, 7, 64, 0
10, 116736, Note_on_c, 7, 55, 0
10, 116736, Note_on_c, 7, 62, 0
10, 116736, Note_on_c, 7, 71, 0
10, 116740, Note_on_c, 7, 64, 114
10, 116740, Note_on_c, 7, 57, 117
10, 116740, Note_on_c, 7, 72, 122
10, 117848, Control_c, 7, 64, 127
10, 118084, Note_on_c, 7, 57, 0
10, 118092, Note_on_c, 7, 72, 0
10, 118092, Note_on_c, 7, 64, 0
10, 118264, Note_on_c, 7, 71, 122
10, 118268, Note_on_c, 7, 62, 117
10, 118268, Note_on_c, 7, 55, 122
10, 118284, Control_c, 7, 64, 0
10, 119808, Note_on_c, 7, 55, 0
10, 119808, Note_on_c, 7, 62, 0
10, 119808, Note_on_c, 7, 71, 0
10, 119812, Note_on_c, 7, 64, 114
10, 119812, Note_on_c, 7, 57, 117
10, 119812, Note_on_c, 7, 72, 122
10, 120920, Control_c, 7, 64, 127
10, 121156, Note_on_c, 7, 57, 0
10, 121164, Note_on_c, 7, 72, 0
10, 121164, Note_on_c, 7, 64, 0
10, 121336, Note_on_c, 7, 71, 122
10, 121340, Note_on_c, 7, 62, 117
10, 121340, Note_on_c, 7, 55, 122
10, 121356, Control_c, 7, 64, 0
10, 122880, Note_on_c, 7, 55, 0
10, 122880, Note_on_c, 7, 62, 0
10, 122880, Note_on_c, 7, 71, 0
10, 122884, Note_on_c, 7, 64, 114
10, 122884, Note_on_c, 7, 57, 117
10, 122884, Note_on_c, 7, 72, 122
10, 123992, Control_c, 7, 64, 127
10, 124228, Note_on_c, 7, 57, 0
10, 124236, Note_on_c, 7, 72, 0
10, 124236, Note_on_c, 7, 64, 0
10, 124408, Note_on_c, 7, 71, 122
10, 124412, Note_on_c, 7, 62, 117
10, 124412, Note_on_c, 7, 55, 122
10, 124428, Control_c, 7, 64, 0
10, 125952, Note_on_c, 7, 55, 0
10, 125952, Note_on_c, 7, 62, 0
10, 125952, Note_on_c, 7, 71, 0
10, 125956, Note_on_c, 7, 64, 114
10, 125956, Note_on_c, 7, 57, 117
10, 125956, Note_on_c, 7, 72, 122
10, 127064, Control_c, 7, 64, 127
10, 127300, Note_on_c, 7, 57, 0
10, 127308, Note_on_c, 7, 72, 0
10, 127308, Note_on_c, 7, 64, 0
10, 127480, Note_on_c, 7, 71, 122
10, 127484, Note_on_c, 7, 62, 117
10, 127484, Note_on_c, 7, 55, 122
10, 127500, Control_c, 7, 64, 0
10, 129024, Note_on_c, 7, 55, 0
10, 129024, Note_on_c, 7, 62, 0
10, 129024, Note_on_c, 7, 71, 0
10, 129028, Note_on_c, 7, 64, 114
10, 129028, Note_on_c, 7, 57, 117
10, 129028, Note_on_c, 7, 72, 122
10, 130136, Control_c, 7, 64, 127
10, 130372, Note_on_c, 7, 57, 0
10, 130380, Note_on_c, 7, 72, 0
10, 130380, Note_on_c, 7, 64, 0
10, 130552, Note_on_c, 7, 71, 122
10, 130556, Note_on_c, 7, 62, 117
10, 130556, Note_on_c, 7, 55, 122
10, 130572, Control_c, 7, 64, 0
10, 132096, Note_on_c, 7, 55, 0
10, 132096, Note_on_c, 7, 62, 0
10, 132096, Note_on_c, 7, 71, 0
10, 132100, Note_on_c, 7, 64, 114
10, 132100, Note_on_c, 7, 57, 117
10, 132100, Note_on_c, 7, 72, 122
10, 133208, Control_c, 7, 64, 127
10, 133444, Note_on_c, 7, 57, 0
10, 133452, Note_on_c, 7, 72, 0
10, 133452, Note_on_c, 7, 64, 0
10, 133624, Note_on_c, 7, 71, 122
10, 133628, Note_on_c, 7, 62, 117
10, 133628, Note_on_c, 7, 55, 122
10, 133644, Control_c, 7, 64, 0
10, 135168, Note_on_c, 7, 55, 0
10, 135168, Note_on_c, 7, 62, 0
10, 135168, Note_on_c, 7, 71, 0
10, 135172, Note_on_c, 7, 64, 114
10, 135172, Note_on_c, 7, 57, 117
10, 135172, Note_on_c, 7, 72, 122
10, 136280, Control_c, 7, 64, 127
10, 136516, Note_on_c, 7, 57, 0
10, 136524, Note_on_c, 7, 72, 0
10, 136524, Note_on_c, 7, 64, 0
10, 136696, Note_on_c, 7, 71, 122
10, 136700, Note_on_c, 7, 62, 117
10, 136700, Note_on_c, 7, 55, 122
10, 136716, Control_c, 7, 64, 0
10, 138240, Note_on_c, 7, 55, 0
10, 138240, Note_on_c, 7, 62, 0
10, 138240, Note_on_c, 7, 71, 0
10, 193608, Note_on_c, 7, 88, 122
10, 193608, Note_on_c, 7, 60, 122
10, 193608, Note_on_c, 7, 53, 122
10, 198144, Note_on_c, 7, 53, 0
10, 198144, Note_on_c, 7, 60, 0
10, 198144, Note_on_c, 7, 88, 0
10, 198144, End_track
11, 0, Start_track
11, 0, MIDI_port, 0
11, 0, Title_t, "Strings 2"
11, 0, Control_c, 0, 32, 0
11, 0, Control_c, 8, 91, 100
11, 0, Control_c, 8, 93, 75
11, 672, Control_c, 8, 120, 0
11, 768, Control_c, 8, 121, 0
11, 960, Control_c, 8, 100, 0
11, 1056, Control_c, 8, 101, 0
11, 1152, Control_c, 8, 6, 2
11, 58412, Note_on_c, 8, 57, 110
11, 58412, Note_on_c, 8, 81, 110
11, 63744, Note_on_c, 8, 81, 0
11, 63748, Note_on_c, 8, 84, 110
11, 63748, Note_on_c, 8, 60, 110
11, 63752, Note_on_c, 8, 57, 0
11, 64152, Note_on_c, 8, 84, 0
11, 64152, Note_on_c, 8, 86, 110
11, 64152, Note_on_c, 8, 62, 110
11, 64156, Note_on_c, 8, 60, 0
11, 64512, Note_on_c, 8, 62, 0
11, 64512, Note_on_c, 8, 86, 0
11, 64524, Note_on_c, 8, 88, 110
11, 64524, Note_on_c, 8, 64, 110
11, 69516, Note_on_c, 8, 86, 110
11, 69516, Note_on_c, 8, 62, 110
11, 69520, Note_on_c, 8, 64, 0
11, 69520, Note_on_c, 8, 88, 0
11, 70656, Note_on_c, 8, 86, 0
11, 70656, Note_on_c, 8, 62, 0
11, 70676, Note_on_c, 8, 81, 110
11, 70676, Note_on_c, 8, 57, 110
11, 76032, Note_on_c, 8, 84, 110
11, 76032, Note_on_c, 8, 60, 110
11, 76036, Note_on_c, 8, 57, 0
11, 76036, Note_on_c, 8, 81, 0
11, 76428, Note_on_c, 8, 86, 110
11, 76428, Note_on_c, 8, 62, 110
11, 76432, Note_on_c, 8, 84, 0
11, 76432, Note_on_c, 8, 60, 0
11, 76800, Note_on_c, 8, 86, 0
11, 76800, Note_on_c, 8, 62, 0
11, 76812, Note_on_c, 8, 88, 110
11, 76812, Note_on_c, 8, 64, 110
11, 82944, Note_on_c, 8, 64, 0
11, 82944, Note_on_c, 8, 88, 0
11, 82944, Control_c, 8, 11, 63
11, 82944, Note_on_c, 8, 88, 110
11, 82944, Note_on_c, 8, 64, 110
11, 82992, Control_c, 8, 11, 62
11, 83040, Control_c, 8, 11, 61
11, 83088, Control_c, 8, 11, 60
11, 83136, Control_c, 8, 11, 59
11, 83184, Control_c, 8, 11, 58
11, 83232, Control_c, 8, 11, 57
11, 83280, Control_c, 8, 11, 56
11, 83328, Control_c, 8, 11, 55
11, 83376, Control_c, 8, 11, 54
11, 83424, Control_c, 8, 11, 53
11, 83472, Control_c, 8, 11, 52
11, 83520, Control_c, 8, 11, 51
11, 83568, Control_c, 8, 11, 50
11, 83616, Control_c, 8, 11, 49
11, 83664, Control_c, 8, 11, 48
11, 83712, Control_c, 8, 11, 47
11, 83760, Control_c, 8, 11, 46
11, 83808, Control_c, 8, 11, 45
11, 83856, Control_c, 8, 11, 44
11, 83904, Control_c, 8, 11, 43
11, 83952, Control_c, 8, 11, 42
11, 84000, Control_c, 8, 11, 41
11, 84048, Control_c, 8, 11, 40
11, 84096, Control_c, 8, 11, 39
11, 84144, Control_c, 8, 11, 38
11, 84192, Control_c, 8, 11, 37
11, 84240, Control_c, 8, 11, 36
11, 84288, Control_c, 8, 11, 35
11, 84336, Control_c, 8, 11, 34
11, 84384, Control_c, 8, 11, 33
11, 84432, Control_c, 8, 11, 32
11, 84480, Control_c, 8, 11, 31
11, 84528, Control_c, 8, 11, 30
11, 84576, Control_c, 8, 11, 29
11, 84624, Control_c, 8, 11, 28
11, 84672, Control_c, 8, 11, 27
11, 84720, Control_c, 8, 11, 26
11, 84768, Control_c, 8, 11, 25
11, 84816, Control_c, 8, 11, 24
11, 84864, Control_c, 8, 11, 23
11, 84912, Control_c, 8, 11, 22
11, 84960, Control_c, 8, 11, 21
11, 85008, Control_c, 8, 11, 20
11, 85056, Control_c, 8, 11, 19
11, 85104, Control_c, 8, 11, 18
11, 85152, Control_c, 8, 11, 17
11, 85200, Control_c, 8, 11, 16
11, 85248, Control_c, 8, 11, 15
11, 85296, Control_c, 8, 11, 14
11, 85344, Control_c, 8, 11, 13
11, 85392, Control_c, 8, 11, 12
11, 85440, Control_c, 8, 11, 11
11, 85488, Control_c, 8, 11, 10
11, 85536, Control_c, 8, 11, 9
11, 85584, Control_c, 8, 11, 8
11, 85632, Control_c, 8, 11, 7
11, 85680, Control_c, 8, 11, 6
11, 85728, Control_c, 8, 11, 5
11, 85776, Control_c, 8, 11, 4
11, 85824, Control_c, 8, 11, 3
11, 85872, Control_c, 8, 11, 2
11, 85920, Control_c, 8, 11, 1
11, 85968, Control_c, 8, 11, 0
11, 86016, Note_on_c, 8, 64, 0
11, 86016, Note_on_c, 8, 88, 0
11, 87552, Control_c, 8, 11, 64
11, 138284, Note_on_c, 8, 57, 110
11, 138284, Note_on_c, 8, 81, 110
11, 143616, Note_on_c, 8, 81, 0
11, 143620, Note_on_c, 8, 84, 110
11, 143620, Note_on_c, 8, 60, 110
11, 143624, Note_on_c, 8, 57, 0
11, 144024, Note_on_c, 8, 84, 0
11, 144024, Note_on_c, 8, 86, 110
11, 144024, Note_on_c, 8, 62, 110
11, 144028, Note_on_c, 8, 60, 0
11, 144384, Note_on_c, 8, 62, 0
11, 144384, Note_on_c, 8, 86, 0
11, 144396, Note_on_c, 8, 88, 110
11, 144396, Note_on_c, 8, 64, 110
11, 149388, Note_on_c, 8, 86, 110
11, 149388, Note_on_c, 8, 62, 110
11, 149392, Note_on_c, 8, 64, 0
11, 149392, Note_on_c, 8, 88, 0
11, 150528, Note_on_c, 8, 86, 0
11, 150528, Note_on_c, 8, 62, 0
11, 150548, Note_on_c, 8, 81, 110
11, 150548, Note_on_c, 8, 57, 110
11, 155904, Note_on_c, 8, 84, 110
11, 155904, Note_on_c, 8, 60, 110
11, 155908, Note_on_c, 8, 57, 0
11, 155908, Note_on_c, 8, 81, 0
11, 156300, Note_on_c, 8, 86, 110
11, 156300, Note_on_c, 8, 62, 110
11, 156304, Note_on_c, 8, 84, 0
11, 156304, Note_on_c, 8, 60, 0
11, 156672, Note_on_c, 8, 86, 0
11, 156672, Note_on_c, 8, 62, 0
11, 156684, Note_on_c, 8, 88, 110
11, 156684, Note_on_c, 8, 64, 110
11, 161676, Note_on_c, 8, 86, 110
11, 161676, Note_on_c, 8, 62, 110
11, 161680, Note_on_c, 8, 64, 0
11, 161680, Note_on_c, 8, 88, 0
11, 162816, Note_on_c, 8, 86, 0
11, 162816, Note_on_c, 8, 62, 0
11, 162836, Note_on_c, 8, 81, 110
11, 162836, Note_on_c, 8, 57, 110
11, 168192, Note_on_c, 8, 84, 110
11, 168192, Note_on_c, 8, 60, 110
11, 168196, Note_on_c, 8, 57, 0
11, 168196, Note_on_c, 8, 81, 0
11, 168588, Note_on_c, 8, 86, 110
11, 168588, Note_on_c, 8, 62, 110
11, 168592, Note_on_c, 8, 84, 0
11, 168592, Note_on_c, 8, 60, 0
11, 168960, Note_on_c, 8, 86, 0
11, 168960, Note_on_c, 8, 62, 0
11, 168972, Note_on_c, 8, 88, 110
11, 168972, Note_on_c, 8, 64, 110
11, 173964, Note_on_c, 8, 86, 110
11, 173964, Note_on_c, 8, 62, 110
11, 173968, Note_on_c, 8, 64, 0
11, 173968, Note_on_c, 8, 88, 0
11, 175104, Note_on_c, 8, 86, 0
11, 175104, Note_on_c, 8, 62, 0
11, 175124, Note_on_c, 8, 81, 110
11, 175124, Note_on_c, 8, 57, 110
11, 180480, Note_on_c, 8, 84, 110
11, 180480, Note_on_c, 8, 60, 110
11, 180484, Note_on_c, 8, 57, 0
11, 180484, Note_on_c, 8, 81, 0
11, 180876, Note_on_c, 8, 86, 110
11, 180876, Note_on_c, 8, 62, 110
11, 180880, Note_on_c, 8, 84, 0
11, 180880, Note_on_c, 8, 60, 0
11, 181248, Note_on_c, 8, 86, 0
11, 181248, Note_on_c, 8, 62, 0
11, 181260, Note_on_c, 8, 88, 110
11, 181260, Note_on_c, 8, 64, 110
11, 186252, Note_on_c, 8, 86, 110
11, 186252, Note_on_c, 8, 62, 110
11, 186256, Note_on_c, 8, 64, 0
11, 186256, Note_on_c, 8, 88, 0
11, 187392, Note_on_c, 8, 86, 0
11, 187392, Note_on_c, 8, 62, 0
11, 187392, Note_on_c, 8, 88, 110
11, 187392, Note_on_c, 8, 64, 110
11, 189324, Note_on_c, 8, 86, 110
11, 189324, Note_on_c, 8, 62, 110
11, 189328, Note_on_c, 8, 64, 0
11, 189328, Note_on_c, 8, 88, 0
11, 190464, Note_on_c, 8, 86, 0
11, 190464, Note_on_c, 8, 62, 0
11, 190464, Note_on_c, 8, 88, 110
11, 190464, Note_on_c, 8, 64, 110
11, 192396, Note_on_c, 8, 86, 110
11, 192396, Note_on_c, 8, 62, 110
11, 192400, Note_on_c, 8, 64, 0
11, 192400, Note_on_c, 8, 88, 0
11, 193536, Note_on_c, 8, 86, 0
11, 193536, Note_on_c, 8, 62, 0
11, 193536, End_track
12, 0, Start_track
12, 0, MIDI_port, 0
12, 0, Title_t, "Vocals 1"
12, 0, Control_c, 10, 0, 0
12, 0, Control_c, 10, 32, 0
12, 0, Program_c, 10, 54
12, 0, Control_c, 10, 7, 100
12, 0, Control_c, 10, 10, 74
12, 0, Control_c, 10, 93, 50
12, 39812, Pitch_bend_c, 10, 7372
12, 39816, Pitch_bend_c, 10, 6202
12, 39824, Pitch_bend_c, 10, 5266
12, 39832, Pitch_bend_c, 10, 4447
12, 39844, Pitch_bend_c, 10, 3862
12, 39848, Pitch_bend_c, 10, 3043
12, 39860, Pitch_bend_c, 10, 2224
12, 39864, Pitch_bend_c, 10, 1522
12, 39876, Pitch_bend_c, 10, 1171
12, 39888, Pitch_bend_c, 10, 937
12, 39920, Pitch_bend_c, 10, 1171
12, 39928, Note_on_c, 10, 60, 92
12, 39932, Pitch_bend_c, 10, 1405
12, 39936, Pitch_bend_c, 10, 2107
12, 39948, Pitch_bend_c, 10, 3160
12, 39956, Pitch_bend_c, 10, 5149
12, 39964, Pitch_bend_c, 10, 7723
12, 39972, Pitch_bend_c, 10, 8192
12, 40736, Note_on_c, 10, 60, 0
12, 41272, Note_on_c, 10, 60, 98
12, 41472, Pitch_bend_c, 10, 8894
12, 41484, Pitch_bend_c, 10, 13106
12, 41488, Pitch_bend_c, 10, 16148
12, 41500, Pitch_bend_c, 10, 16383
12, 42228, Note_on_c, 10, 60, 0
12, 42316, Pitch_bend_c, 10, 16382
12, 42324, Pitch_bend_c, 10, 16265
12, 42332, Pitch_bend_c, 10, 15212
12, 42340, Pitch_bend_c, 10, 13340
12, 42348, Pitch_bend_c, 10, 10649
12, 42360, Pitch_bend_c, 10, 8543
12, 42364, Pitch_bend_c, 10, 8192
12, 42880, Pitch_bend_c, 10, 7957
12, 42892, Pitch_bend_c, 10, 7138
12, 42896, Pitch_bend_c, 10, 6202
12, 42908, Pitch_bend_c, 10, 5149
12, 42912, Pitch_bend_c, 10, 3862
12, 42924, Pitch_bend_c, 10, 2692
12, 42936, Pitch_bend_c, 10, 1639
12, 42940, Pitch_bend_c, 10, 820
12, 42952, Pitch_bend_c, 10, 1
12, 42956, Pitch_bend_c, 10, 0
12, 43004, Note_on_c, 10, 64, 106
12, 43012, Pitch_bend_c, 10, 352
12, 43028, Pitch_bend_c, 10, 1990
12, 43036, Pitch_bend_c, 10, 4564
12, 43044, Pitch_bend_c, 10, 7489
12, 43052, Pitch_bend_c, 10, 8192
12, 44168, Note_on_c, 10, 64, 0
12, 44220, Pitch_bend_c, 10, 7372
12, 44232, Pitch_bend_c, 10, 6553
12, 44236, Pitch_bend_c, 10, 5617
12, 44248, Pitch_bend_c, 10, 4447
12, 44252, Pitch_bend_c, 10, 3043
12, 44264, Pitch_bend_c, 10, 1990
12, 44272, Pitch_bend_c, 10, 1405
12, 44280, Pitch_bend_c, 10, 937
12, 44308, Pitch_bend_c, 10, 1171
12, 44316, Pitch_bend_c, 10, 1639
12, 44324, Pitch_bend_c, 10, 2341
12, 44332, Pitch_bend_c, 10, 3745
12, 44340, Pitch_bend_c, 10, 6085
12, 44344, Note_on_c, 10, 65, 95
12, 44348, Pitch_bend_c, 10, 8192
12, 45020, Note_on_c, 10, 65, 0
12, 46016, Pitch_bend_c, 10, 7957
12, 46020, Pitch_bend_c, 10, 7255
12, 46040, Pitch_bend_c, 10, 6670
12, 46044, Pitch_bend_c, 10, 5734
12, 46048, Pitch_bend_c, 10, 4915
12, 46060, Pitch_bend_c, 10, 4096
12, 46064, Pitch_bend_c, 10, 3511
12, 46076, Pitch_bend_c, 10, 3043
12, 46080, Pitch_bend_c, 10, 2692
12, 46084, Note_on_c, 10, 65, 91
12, 46092, Pitch_bend_c, 10, 2458
12, 46108, Pitch_bend_c, 10, 2692
12, 46120, Pitch_bend_c, 10, 3277
12, 46128, Pitch_bend_c, 10, 4213
12, 46136, Pitch_bend_c, 10, 5617
12, 46144, Pitch_bend_c, 10, 7489
12, 46156, Pitch_bend_c, 10, 8192
12, 47396, Note_on_c, 10, 65, 0
12, 47420, Note_on_c, 10, 62, 94
12, 48000, Note_on_c, 10, 62, 0
12, 49148, Note_on_c, 10, 62, 87
12, 49344, Pitch_bend_c, 10, 11468
12, 49356, Pitch_bend_c, 10, 15095
12, 49360, Pitch_bend_c, 10, 16383
12, 50404, Note_on_c, 10, 62, 0
12, 50436, Pitch_bend_c, 10, 16265
12, 50452, Pitch_bend_c, 10, 15563
12, 50456, Pitch_bend_c, 10, 13691
12, 50468, Pitch_bend_c, 10, 11000
12, 50480, Pitch_bend_c, 10, 8192
12, 50492, Note_on_c, 10, 62, 87
12, 50904, Note_on_c, 10, 62, 0
12, 51840, Note_on_c, 10, 60, 94
12, 52020, Pitch_bend_c, 10, 10649
12, 52032, Pitch_bend_c, 10, 14393
12, 52044, Pitch_bend_c, 10, 16383
12, 52140, Pitch_bend_c, 10, 16382
12, 52152, Pitch_bend_c, 10, 16031
12, 52156, Pitch_bend_c, 10, 14510
12, 52168, Pitch_bend_c, 10, 11000
12, 52176, Pitch_bend_c, 10, 8192
12, 52192, Note_on_c, 10, 60, 0
12, 52220, Note_on_c, 10, 64, 90
12, 53348, Pitch_bend_c, 10, 7138
12, 53360, Pitch_bend_c, 10, 3862
12, 53372, Pitch_bend_c, 10, 820
12, 53380, Pitch_bend_c, 10, 0
12, 53480, Pitch_bend_c, 10, 703
12, 53488, Pitch_bend_c, 10, 3160
12, 53488, Pitch_bend_c, 10, 7021
12, 53496, Note_on_c, 10, 64, 0
12, 53500, Pitch_bend_c, 10, 8192
12, 53560, Note_on_c, 10, 62, 92
12, 53836, Note_on_c, 10, 62, 0
12, 54908, Note_on_c, 10, 60, 91
12, 55092, Pitch_bend_c, 10, 11936
12, 55100, Pitch_bend_c, 10, 15329
12, 55112, Pitch_bend_c, 10, 16383
12, 55204, Pitch_bend_c, 10, 16382
12, 55232, Pitch_bend_c, 10, 15446
12, 55240, Pitch_bend_c, 10, 12872
12, 55252, Pitch_bend_c, 10, 8894
12, 55256, Pitch_bend_c, 10, 8192
12, 55280, Note_on_c, 10, 60, 0
12, 55292, Note_on_c, 10, 64, 91
12, 56436, Pitch_bend_c, 10, 6670
12, 56440, Pitch_bend_c, 10, 3277
12, 56452, Pitch_bend_c, 10, 0
12, 56544, Note_on_c, 10, 64, 0
12, 56548, Pitch_bend_c, 10, 937
12, 56560, Pitch_bend_c, 10, 3628
12, 56560, Pitch_bend_c, 10, 7372
12, 56568, Pitch_bend_c, 10, 8192
12, 56640, Note_on_c, 10, 62, 98
12, 57064, Note_on_c, 10, 62, 0
12, 58332, Pitch_bend_c, 10, 7606
12, 58336, Pitch_bend_c, 10, 6787
12, 58348, Pitch_bend_c, 10, 5734
12, 58360, Pitch_bend_c, 10, 4681
12, 58364, Pitch_bend_c, 10, 3745
12, 58368, Note_on_c, 10, 72, 98
12, 58376, Pitch_bend_c, 10, 2926
12, 58384, Pitch_bend_c, 10, 2458
12, 58416, Pitch_bend_c, 10, 3160
12, 58428, Pitch_bend_c, 10, 4096
12, 58432, Pitch_bend_c, 10, 5383
12, 58444, Pitch_bend_c, 10, 6904
12, 58456, Pitch_bend_c, 10, 8074
12, 58460, Pitch_bend_c, 10, 8192
12, 58664, Note_on_c, 10, 72, 0
12, 58752, Note_on_c, 10, 72, 102
12, 59036, Note_on_c, 10, 72, 0
12, 59084, Pitch_bend_c, 10, 7840
12, 59096, Pitch_bend_c, 10, 7138
12, 59104, Pitch_bend_c, 10, 6436
12, 59116, Pitch_bend_c, 10, 5851
12, 59120, Pitch_bend_c, 10, 5617
12, 59128, Pitch_bend_c, 10, 5383
12, 59136, Note_on_c, 10, 72, 95
12, 59164, Pitch_bend_c, 10, 5734
12, 59172, Pitch_bend_c, 10, 6085
12, 59180, Pitch_bend_c, 10, 6787
12, 59192, Pitch_bend_c, 10, 7489
12, 59196, Pitch_bend_c, 10, 8192
12, 59260, Note_on_c, 10, 72, 0
12, 59332, Note_on_c, 10, 72, 102
12, 59588, Note_on_c, 10, 72, 0
12, 59672, Pitch_bend_c, 10, 7138
12, 59680, Pitch_bend_c, 10, 5851
12, 59688, Pitch_bend_c, 10, 4798
12, 59696, Pitch_bend_c, 10, 3862
12, 59704, Pitch_bend_c, 10, 3160
12, 59708, Note_on_c, 10, 72, 102
12, 59712, Pitch_bend_c, 10, 2692
12, 59728, Pitch_bend_c, 10, 3043
12, 59740, Pitch_bend_c, 10, 4330
12, 59744, Pitch_bend_c, 10, 6436
12, 59756, Pitch_bend_c, 10, 8192
12, 60068, Note_on_c, 10, 72, 0
12, 60092, Note_on_c, 10, 69, 80
12, 60168, Note_on_c, 10, 69, 0
12, 60284, Note_on_c, 10, 69, 98
12, 60476, Note_on_c, 10, 67, 70
12, 60488, Note_on_c, 10, 69, 0
12, 60564, Note_on_c, 10, 67, 0
12, 60668, Note_on_c, 10, 67, 73
12, 60756, Note_on_c, 10, 67, 0
12, 60860, Note_on_c, 10, 67, 95
12, 61064, Note_on_c, 10, 67, 0
12, 61244, Note_on_c, 10, 67, 100
12, 61456, Pitch_bend_c, 10, 8309
12, 61464, Pitch_bend_c, 10, 13340
12, 61472, Pitch_bend_c, 10, 16382
12, 61488, Pitch_bend_c, 10, 16383
12, 61596, Pitch_bend_c, 10, 16265
12, 61604, Pitch_bend_c, 10, 15095
12, 61612, Pitch_bend_c, 10, 12053
12, 61616, Pitch_bend_c, 10, 8192
12, 61632, Note_on_c, 10, 65, 90
12, 61636, Note_on_c, 10, 67, 0
12, 61720, Note_on_c, 10, 65, 0
12, 61828, Note_on_c, 10, 65, 91
12, 62128, Control_c, 10, 1, 4
12, 62132, Control_c, 10, 1, 68
12, 62144, Control_c, 10, 1, 121
12, 62152, Control_c, 10, 1, 127
12, 62176, Note_on_c, 10, 65, 0
12, 62208, Control_c, 10, 1, 121
12, 62220, Control_c, 10, 1, 52
12, 62228, Control_c, 10, 1, 5
12, 62236, Control_c, 10, 1, 0
12, 64416, Pitch_bend_c, 10, 7723
12, 64420, Pitch_bend_c, 10, 7021
12, 64432, Pitch_bend_c, 10, 5968
12, 64444, Pitch_bend_c, 10, 4798
12, 64448, Pitch_bend_c, 10, 3628
12, 64460, Pitch_bend_c, 10, 2575
12, 64464, Pitch_bend_c, 10, 1639
12, 64476, Pitch_bend_c, 10, 937
12, 64488, Pitch_bend_c, 10, 352
12, 64492, Pitch_bend_c, 10, 118
12, 64512, Pitch_bend_c, 10, 352
12, 64520, Note_on_c, 10, 72, 97
12, 64528, Pitch_bend_c, 10, 1054
12, 64536, Pitch_bend_c, 10, 1873
12, 64544, Pitch_bend_c, 10, 2926
12, 64552, Pitch_bend_c, 10, 4330
12, 64560, Pitch_bend_c, 10, 5968
12, 64572, Pitch_bend_c, 10, 7606
12, 64576, Pitch_bend_c, 10, 8192
12, 64672, Note_on_c, 10, 72, 0
12, 64704, Note_on_c, 10, 72, 97
12, 65172, Note_on_c, 10, 72, 0
12, 65248, Pitch_bend_c, 10, 7606
12, 65256, Pitch_bend_c, 10, 6787
12, 65264, Pitch_bend_c, 10, 5851
12, 65272, Pitch_bend_c, 10, 5032
12, 65280, Pitch_bend_c, 10, 4213
12, 65284, Note_on_c, 10, 72, 100
12, 65292, Pitch_bend_c, 10, 3745
12, 65296, Pitch_bend_c, 10, 3628
12, 65324, Pitch_bend_c, 10, 4096
12, 65336, Pitch_bend_c, 10, 5149
12, 65340, Pitch_bend_c, 10, 6553
12, 65352, Pitch_bend_c, 10, 8074
12, 65356, Pitch_bend_c, 10, 8192
12, 65392, Note_on_c, 10, 72, 0
12, 65472, Note_on_c, 10, 72, 95
12, 65732, Note_on_c, 10, 72, 0
12, 65852, Note_on_c, 10, 76, 97
12, 66276, Note_on_c, 10, 76, 0
12, 66364, Pitch_bend_c, 10, 7372
12, 66372, Pitch_bend_c, 10, 6202
12, 66380, Pitch_bend_c, 10, 5149
12, 66388, Pitch_bend_c, 10, 4330
12, 66400, Pitch_bend_c, 10, 3511
12, 66404, Pitch_bend_c, 10, 3277
12, 66420, Pitch_bend_c, 10, 3628
12, 66424, Note_on_c, 10, 76, 95
12, 66432, Pitch_bend_c, 10, 4447
12, 66444, Pitch_bend_c, 10, 5851
12, 66448, Pitch_bend_c, 10, 7606
12, 66452, Pitch_bend_c, 10, 8192
12, 66704, Note_on_c, 10, 76, 0
12, 66812, Note_on_c, 10, 72, 92
12, 66900, Note_on_c, 10, 72, 0
12, 67004, Note_on_c, 10, 72, 87
12, 67388, Note_on_c, 10, 72, 0
12, 67388, Note_on_c, 10, 71, 84
12, 67552, Note_on_c, 10, 71, 0
12, 67580, Note_on_c, 10, 72, 97
12, 67804, Note_on_c, 10, 72, 0
12, 67968, Note_on_c, 10, 69, 104
12, 68148, Pitch_bend_c, 10, 7957
12, 68156, Pitch_bend_c, 10, 5968
12, 68164, Pitch_bend_c, 10, 3394
12, 68176, Pitch_bend_c, 10, 937
12, 68184, Pitch_bend_c, 10, 0
12, 68640, Note_on_c, 10, 69, 0
12, 68676, Pitch_bend_c, 10, 1054
12, 68680, Pitch_bend_c, 10, 4447
12, 68692, Pitch_bend_c, 10, 8192
12, 76700, Pitch_bend_c, 10, 7840
12, 76708, Pitch_bend_c, 10, 7138
12, 76720, Pitch_bend_c, 10, 6202
12, 76724, Pitch_bend_c, 10, 5149
12, 76732, Pitch_bend_c, 10, 4330
12, 76740, Pitch_bend_c, 10, 3628
12, 76752, Pitch_bend_c, 10, 2926
12, 76764, Pitch_bend_c, 10, 2341
12, 76768, Pitch_bend_c, 10, 1990
12, 76796, Note_on_c, 10, 72, 98
12, 76812, Pitch_bend_c, 10, 2458
12, 76812, Pitch_bend_c, 10, 3394
12, 76816, Pitch_bend_c, 10, 4681
12, 76828, Pitch_bend_c, 10, 6436
12, 76840, Pitch_bend_c, 10, 7957
12, 76848, Pitch_bend_c, 10, 8192
12, 77108, Note_on_c, 10, 72, 0
12, 77188, Note_on_c, 10, 72, 92
12, 77284, Note_on_c, 10, 72, 0
12, 77380, Note_on_c, 10, 72, 92
12, 77644, Note_on_c, 10, 72, 0
12, 77756, Note_on_c, 10, 72, 97
12, 78004, Note_on_c, 10, 72, 0
12, 78080, Pitch_bend_c, 10, 7723
12, 78092, Pitch_bend_c, 10, 6553
12, 78104, Pitch_bend_c, 10, 5383
12, 78108, Pitch_bend_c, 10, 3979
12, 78120, Pitch_bend_c, 10, 2926
12, 78124, Pitch_bend_c, 10, 2224
12, 78136, Pitch_bend_c, 10, 1873
12, 78140, Note_on_c, 10, 76, 97
12, 78152, Pitch_bend_c, 10, 2458
12, 78160, Pitch_bend_c, 10, 3745
12, 78168, Pitch_bend_c, 10, 5734
12, 78176, Pitch_bend_c, 10, 8192
12, 78600, Note_on_c, 10, 76, 0
12, 78708, Note_on_c, 10, 76, 92
12, 79012, Note_on_c, 10, 76, 0
12, 79100, Note_on_c, 10, 72, 91
12, 79380, Note_on_c, 10, 72, 0
12, 79492, Note_on_c, 10, 72, 95
12, 79732, Note_on_c, 10, 72, 0
12, 79816, Pitch_bend_c, 10, 7957
12, 79824, Pitch_bend_c, 10, 6670
12, 79832, Pitch_bend_c, 10, 5266
12, 79844, Pitch_bend_c, 10, 3979
12, 79848, Pitch_bend_c, 10, 3043
12, 79860, Pitch_bend_c, 10, 2458
12, 79868, Note_on_c, 10, 69, 94
12, 79872, Pitch_bend_c, 10, 1990
12, 79880, Pitch_bend_c, 10, 2341
12, 79892, Pitch_bend_c, 10, 3043
12, 79904, Pitch_bend_c, 10, 4330
12, 79908, Pitch_bend_c, 10, 6319
12, 79920, Pitch_bend_c, 10, 8192
12, 80612, Control_c, 10, 1, 45
12, 80624, Control_c, 10, 1, 107
12, 80628, Control_c, 10, 1, 118
12, 80656, Control_c, 10, 1, 114
12, 80668, Control_c, 10, 1, 98
12, 80676, Control_c, 10, 1, 77
12, 80684, Control_c, 10, 1, 72
12, 80688, Control_c, 10, 1, 55
12, 80700, Control_c, 10, 1, 21
12, 80708, Control_c, 10, 1, 1
12, 80712, Note_on_c, 10, 69, 0
12, 80716, Control_c, 10, 1, 0
12, 119684, Pitch_bend_c, 10, 7372
12, 119688, Pitch_bend_c, 10, 6202
12, 119696, Pitch_bend_c, 10, 5266
12, 119704, Pitch_bend_c, 10, 4447
12, 119716, Pitch_bend_c, 10, 3862
12, 119720, Pitch_bend_c, 10, 3043
12, 119732, Pitch_bend_c, 10, 2224
12, 119736, Pitch_bend_c, 10, 1522
12, 119748, Pitch_bend_c, 10, 1171
12, 119760, Pitch_bend_c, 10, 937
12, 119792, Pitch_bend_c, 10, 1171
12, 119800, Note_on_c, 10, 60, 92
12, 119804, Pitch_bend_c, 10, 1405
12, 119808, Pitch_bend_c, 10, 2107
12, 119820, Pitch_bend_c, 10, 3160
12, 119828, Pitch_bend_c, 10, 5149
12, 119836, Pitch_bend_c, 10, 7723
12, 119844, Pitch_bend_c, 10, 8192
12, 120608, Note_on_c, 10, 60, 0
12, 121144, Note_on_c, 10, 60, 98
12, 121344, Pitch_bend_c, 10, 8894
12, 121356, Pitch_bend_c, 10, 13106
12, 121360, Pitch_bend_c, 10, 16148
12, 121372, Pitch_bend_c, 10, 16383
12, 122100, Note_on_c, 10, 60, 0
12, 122188, Pitch_bend_c, 10, 16382
12, 122196, Pitch_bend_c, 10, 16265
12, 122204, Pitch_bend_c, 10, 15212
12, 122212, Pitch_bend_c, 10, 13340
12, 122220, Pitch_bend_c, 10, 10649
12, 122232, Pitch_bend_c, 10, 8543
12, 122236, Pitch_bend_c, 10, 8192
12, 122752, Pitch_bend_c, 10, 7957
12, 122764, Pitch_bend_c, 10, 7138
12, 122768, Pitch_bend_c, 10, 6202
12, 122780, Pitch_bend_c, 10, 5149
12, 122784, Pitch_bend_c, 10, 3862
12, 122796, Pitch_bend_c, 10, 2692
12, 122808, Pitch_bend_c, 10, 1639
12, 122812, Pitch_bend_c, 10, 820
12, 122824, Pitch_bend_c, 10, 1
12, 122828, Pitch_bend_c, 10, 0
12, 122876, Note_on_c, 10, 64, 106
12, 122884, Pitch_bend_c, 10, 352
12, 122900, Pitch_bend_c, 10, 1990
12, 122908, Pitch_bend_c, 10, 4564
12, 122916, Pitch_bend_c, 10, 7489
12, 122924, Pitch_bend_c, 10, 8192
12, 124040, Note_on_c, 10, 64, 0
12, 124092, Pitch_bend_c, 10, 7372
12, 124104, Pitch_bend_c, 10, 6553
12, 124108, Pitch_bend_c, 10, 5617
12, 124120, Pitch_bend_c, 10, 4447
12, 124124, Pitch_bend_c, 10, 3043
12, 124136, Pitch_bend_c, 10, 1990
12, 124144, Pitch_bend_c, 10, 1405
12, 124152, Pitch_bend_c, 10, 937
12, 124180, Pitch_bend_c, 10, 1171
12, 124188, Pitch_bend_c, 10, 1639
12, 124196, Pitch_bend_c, 10, 2341
12, 124204, Pitch_bend_c, 10, 3745
12, 124212, Pitch_bend_c, 10, 6085
12, 124216, Note_on_c, 10, 65, 95
12, 124220, Pitch_bend_c, 10, 8192
12, 124892, Note_on_c, 10, 65, 0
12, 125888, Pitch_bend_c, 10, 7957
12, 125892, Pitch_bend_c, 10, 7255
12, 125912, Pitch_bend_c, 10, 6670
12, 125916, Pitch_bend_c, 10, 5734
12, 125920, Pitch_bend_c, 10, 4915
12, 125932, Pitch_bend_c, 10, 4096
12, 125936, Pitch_bend_c, 10, 3511
12, 125948, Pitch_bend_c, 10, 3043
12, 125952, Pitch_bend_c, 10, 2692
12, 125956, Note_on_c, 10, 65, 91
12, 125964, Pitch_bend_c, 10, 2458
12, 125980, Pitch_bend_c, 10, 2692
12, 125992, Pitch_bend_c, 10, 3277
12, 126000, Pitch_bend_c, 10, 4213
12, 126008, Pitch_bend_c, 10, 5617
12, 126016, Pitch_bend_c, 10, 7489
12, 126028, Pitch_bend_c, 10, 8192
12, 127268, Note_on_c, 10, 65, 0
12, 127292, Note_on_c, 10, 62, 94
12, 127872, Note_on_c, 10, 62, 0
12, 129020, Note_on_c, 10, 62, 87
12, 129216, Pitch_bend_c, 10, 11468
12, 129228, Pitch_bend_c, 10, 15095
12, 129232, Pitch_bend_c, 10, 16383
12, 130276, Note_on_c, 10, 62, 0
12, 130308, Pitch_bend_c, 10, 16265
12, 130324, Pitch_bend_c, 10, 15563
12, 130328, Pitch_bend_c, 10, 13691
12, 130340, Pitch_bend_c, 10, 11000
12, 130352, Pitch_bend_c, 10, 8192
12, 130364, Note_on_c, 10, 62, 87
12, 130776, Note_on_c, 10, 62, 0
12, 131712, Note_on_c, 10, 60, 94
12, 131892, Pitch_bend_c, 10, 10649
12, 131904, Pitch_bend_c, 10, 14393
12, 131916, Pitch_bend_c, 10, 16383
12, 132012, Pitch_bend_c, 10, 16382
12, 132024, Pitch_bend_c, 10, 16031
12, 132028, Pitch_bend_c, 10, 14510
12, 132040, Pitch_bend_c, 10, 11000
12, 132048, Pitch_bend_c, 10, 8192
12, 132064, Note_on_c, 10, 60, 0
12, 132092, Note_on_c, 10, 64, 90
12, 133220, Pitch_bend_c, 10, 7138
12, 133232, Pitch_bend_c, 10, 3862
12, 133244, Pitch_bend_c, 10, 820
12, 133252, Pitch_bend_c, 10, 0
12, 133352, Pitch_bend_c, 10, 703
12, 133360, Pitch_bend_c, 10, 3160
12, 133360, Pitch_bend_c, 10, 7021
12, 133368, Note_on_c, 10, 64, 0
12, 133372, Pitch_bend_c, 10, 8192
12, 133432, Note_on_c, 10, 62, 92
12, 133708, Note_on_c, 10, 62, 0
12, 134780, Note_on_c, 10, 60, 91
12, 134964, Pitch_bend_c, 10, 11936
12, 134972, Pitch_bend_c, 10, 15329
12, 134984, Pitch_bend_c, 10, 16383
12, 135076, Pitch_bend_c, 10, 16382
12, 135104, Pitch_bend_c, 10, 15446
12, 135112, Pitch_bend_c, 10, 12872
12, 135124, Pitch_bend_c, 10, 8894
12, 135128, Pitch_bend_c, 10, 8192
12, 135152, Note_on_c, 10, 60, 0
12, 135164, Note_on_c, 10, 64, 91
12, 136308, Pitch_bend_c, 10, 6670
12, 136312, Pitch_bend_c, 10, 3277
12, 136324, Pitch_bend_c, 10, 0
12, 136416, Note_on_c, 10, 64, 0
12, 136420, Pitch_bend_c, 10, 937
12, 136432, Pitch_bend_c, 10, 3628
12, 136432, Pitch_bend_c, 10, 7372
12, 136440, Pitch_bend_c, 10, 8192
12, 136512, Note_on_c, 10, 62, 98
12, 136936, Note_on_c, 10, 62, 0
12, 138204, Pitch_bend_c, 10, 7606
12, 138208, Pitch_bend_c, 10, 6787
12, 138220, Pitch_bend_c, 10, 5734
12, 138232, Pitch_bend_c, 10, 4681
12, 138236, Pitch_bend_c, 10, 3745
12, 138240, Note_on_c, 10, 72, 98
12, 138248, Pitch_bend_c, 10, 2926
12, 138256, Pitch_bend_c, 10, 2458
12, 138288, Pitch_bend_c, 10, 3160
12, 138300, Pitch_bend_c, 10, 4096
12, 138304, Pitch_bend_c, 10, 5383
12, 138316, Pitch_bend_c, 10, 6904
12, 138328, Pitch_bend_c, 10, 8074
12, 138332, Pitch_bend_c, 10, 8192
12, 138536, Note_on_c, 10, 72, 0
12, 138624, Note_on_c, 10, 72, 102
12, 138908, Note_on_c, 10, 72, 0
12, 138956, Pitch_bend_c, 10, 7840
12, 138968, Pitch_bend_c, 10, 7138
12, 138976, Pitch_bend_c, 10, 6436
12, 138988, Pitch_bend_c, 10, 5851
12, 138992, Pitch_bend_c, 10, 5617
12, 139000, Pitch_bend_c, 10, 5383
12, 139008, Note_on_c, 10, 72, 95
12, 139036, Pitch_bend_c, 10, 5734
12, 139044, Pitch_bend_c, 10, 6085
12, 139052, Pitch_bend_c, 10, 6787
12, 139064, Pitch_bend_c, 10, 7489
12, 139068, Pitch_bend_c, 10, 8192
12, 139132, Note_on_c, 10, 72, 0
12, 139204, Note_on_c, 10, 72, 102
12, 139460, Note_on_c, 10, 72, 0
12, 139544, Pitch_bend_c, 10, 7138
12, 139552, Pitch_bend_c, 10, 5851
12, 139560, Pitch_bend_c, 10, 4798
12, 139568, Pitch_bend_c, 10, 3862
12, 139576, Pitch_bend_c, 10, 3160
12, 139580, Note_on_c, 10, 72, 102
12, 139584, Pitch_bend_c, 10, 2692
12, 139600, Pitch_bend_c, 10, 3043
12, 139612, Pitch_bend_c, 10, 4330
12, 139616, Pitch_bend_c, 10, 6436
12, 139628, Pitch_bend_c, 10, 8192
12, 139940, Note_on_c, 10, 72, 0
12, 139964, Note_on_c, 10, 69, 80
12, 140040, Note_on_c, 10, 69, 0
12, 140156, Note_on_c, 10, 69, 98
12, 140348, Note_on_c, 10, 67, 70
12, 140360, Note_on_c, 10, 69, 0
12, 140436, Note_on_c, 10, 67, 0
12, 140540, Note_on_c, 10, 67, 73
12, 140628, Note_on_c, 10, 67, 0
12, 140732, Note_on_c, 10, 67, 95
12, 140936, Note_on_c, 10, 67, 0
12, 141116, Note_on_c, 10, 67, 100
12, 141328, Pitch_bend_c, 10, 8309
12, 141336, Pitch_bend_c, 10, 13340
12, 141344, Pitch_bend_c, 10, 16382
12, 141360, Pitch_bend_c, 10, 16383
12, 141468, Pitch_bend_c, 10, 16265
12, 141476, Pitch_bend_c, 10, 15095
12, 141484, Pitch_bend_c, 10, 12053
12, 141488, Pitch_bend_c, 10, 8192
12, 141504, Note_on_c, 10, 65, 90
12, 141508, Note_on_c, 10, 67, 0
12, 141592, Note_on_c, 10, 65, 0
12, 141700, Note_on_c, 10, 65, 91
12, 142000, Control_c, 10, 1, 4
12, 142004, Control_c, 10, 1, 68
12, 142016, Control_c, 10, 1, 121
12, 142024, Control_c, 10, 1, 127
12, 142048, Note_on_c, 10, 65, 0
12, 142080, Control_c, 10, 1, 121
12, 142092, Control_c, 10, 1, 52
12, 142100, Control_c, 10, 1, 5
12, 142108, Control_c, 10, 1, 0
12, 144288, Pitch_bend_c, 10, 7723
12, 144292, Pitch_bend_c, 10, 7021
12, 144304, Pitch_bend_c, 10, 5968
12, 144316, Pitch_bend_c, 10, 4798
12, 144320, Pitch_bend_c, 10, 3628
12, 144332, Pitch_bend_c, 10, 2575
12, 144336, Pitch_bend_c, 10, 1639
12, 144348, Pitch_bend_c, 10, 937
12, 144360, Pitch_bend_c, 10, 352
12, 144364, Pitch_bend_c, 10, 118
12, 144384, Pitch_bend_c, 10, 352
12, 144392, Note_on_c, 10, 72, 97
12, 144400, Pitch_bend_c, 10, 1054
12, 144408, Pitch_bend_c, 10, 1873
12, 144416, Pitch_bend_c, 10, 2926
12, 144424, Pitch_bend_c, 10, 4330
12, 144432, Pitch_bend_c, 10, 5968
12, 144444, Pitch_bend_c, 10, 7606
12, 144448, Pitch_bend_c, 10, 8192
12, 144544, Note_on_c, 10, 72, 0
12, 144576, Note_on_c, 10, 72, 97
12, 145044, Note_on_c, 10, 72, 0
12, 145120, Pitch_bend_c, 10, 7606
12, 145128, Pitch_bend_c, 10, 6787
12, 145136, Pitch_bend_c, 10, 5851
12, 145144, Pitch_bend_c, 10, 5032
12, 145152, Pitch_bend_c, 10, 4213
12, 145156, Note_on_c, 10, 72, 100
12, 145164, Pitch_bend_c, 10, 3745
12, 145168, Pitch_bend_c, 10, 3628
12, 145196, Pitch_bend_c, 10, 4096
12, 145208, Pitch_bend_c, 10, 5149
12, 145212, Pitch_bend_c, 10, 6553
12, 145224, Pitch_bend_c, 10, 8074
12, 145228, Pitch_bend_c, 10, 8192
12, 145264, Note_on_c, 10, 72, 0
12, 145344, Note_on_c, 10, 72, 95
12, 145604, Note_on_c, 10, 72, 0
12, 145724, Note_on_c, 10, 76, 97
12, 146148, Note_on_c, 10, 76, 0
12, 146236, Pitch_bend_c, 10, 7372
12, 146244, Pitch_bend_c, 10, 6202
12, 146252, Pitch_bend_c, 10, 5149
12, 146260, Pitch_bend_c, 10, 4330
12, 146272, Pitch_bend_c, 10, 3511
12, 146276, Pitch_bend_c, 10, 3277
12, 146292, Pitch_bend_c, 10, 3628
12, 146296, Note_on_c, 10, 76, 95
12, 146304, Pitch_bend_c, 10, 4447
12, 146316, Pitch_bend_c, 10, 5851
12, 146320, Pitch_bend_c, 10, 7606
12, 146324, Pitch_bend_c, 10, 8192
12, 146576, Note_on_c, 10, 76, 0
12, 146684, Note_on_c, 10, 72, 92
12, 146772, Note_on_c, 10, 72, 0
12, 146876, Note_on_c, 10, 72, 87
12, 147260, Note_on_c, 10, 72, 0
12, 147260, Note_on_c, 10, 71, 84
12, 147424, Note_on_c, 10, 71, 0
12, 147452, Note_on_c, 10, 72, 97
12, 147676, Note_on_c, 10, 72, 0
12, 147840, Note_on_c, 10, 69, 104
12, 148020, Pitch_bend_c, 10, 7957
12, 148028, Pitch_bend_c, 10, 5968
12, 148036, Pitch_bend_c, 10, 3394
12, 148048, Pitch_bend_c, 10, 937
12, 148056, Pitch_bend_c, 10, 0
12, 148512, Note_on_c, 10, 69, 0
12, 148548, Pitch_bend_c, 10, 1054
12, 148552, Pitch_bend_c, 10, 4447
12, 148564, Pitch_bend_c, 10, 8192
12, 156572, Pitch_bend_c, 10, 7840
12, 156580, Pitch_bend_c, 10, 7138
12, 156592, Pitch_bend_c, 10, 6202
12, 156596, Pitch_bend_c, 10, 5149
12, 156604, Pitch_bend_c, 10, 4330
12, 156612, Pitch_bend_c, 10, 3628
12, 156624, Pitch_bend_c, 10, 2926
12, 156636, Pitch_bend_c, 10, 2341
12, 156640, Pitch_bend_c, 10, 1990
12, 156668, Note_on_c, 10, 72, 98
12, 156684, Pitch_bend_c, 10, 2458
12, 156684, Pitch_bend_c, 10, 3394
12, 156688, Pitch_bend_c, 10, 4681
12, 156700, Pitch_bend_c, 10, 6436
12, 156712, Pitch_bend_c, 10, 7957
12, 156720, Pitch_bend_c, 10, 8192
12, 156980, Note_on_c, 10, 72, 0
12, 157060, Note_on_c, 10, 72, 92
12, 157156, Note_on_c, 10, 72, 0
12, 157252, Note_on_c, 10, 72, 92
12, 157516, Note_on_c, 10, 72, 0
12, 157628, Note_on_c, 10, 72, 97
12, 157876, Note_on_c, 10, 72, 0
12, 157952, Pitch_bend_c, 10, 7723
12, 157964, Pitch_bend_c, 10, 6553
12, 157976, Pitch_bend_c, 10, 5383
12, 157980, Pitch_bend_c, 10, 3979
12, 157992, Pitch_bend_c, 10, 2926
12, 157996, Pitch_bend_c, 10, 2224
12, 158008, Pitch_bend_c, 10, 1873
12, 158012, Note_on_c, 10, 76, 97
12, 158024, Pitch_bend_c, 10, 2458
12, 158032, Pitch_bend_c, 10, 3745
12, 158040, Pitch_bend_c, 10, 5734
12, 158048, Pitch_bend_c, 10, 8192
12, 158472, Note_on_c, 10, 76, 0
12, 158580, Note_on_c, 10, 76, 92
12, 158884, Note_on_c, 10, 76, 0
12, 158972, Note_on_c, 10, 72, 91
12, 159252, Note_on_c, 10, 72, 0
12, 159364, Note_on_c, 10, 72, 95
12, 159604, Note_on_c, 10, 72, 0
12, 159688, Pitch_bend_c, 10, 7957
12, 159696, Pitch_bend_c, 10, 6670
12, 159704, Pitch_bend_c, 10, 5266
12, 159716, Pitch_bend_c, 10, 3979
12, 159720, Pitch_bend_c, 10, 3043
12, 159732, Pitch_bend_c, 10, 2458
12, 159740, Note_on_c, 10, 69, 94
12, 159744, Pitch_bend_c, 10, 1990
12, 159752, Pitch_bend_c, 10, 2341
12, 159764, Pitch_bend_c, 10, 3043
12, 159776, Pitch_bend_c, 10, 4330
12, 159780, Pitch_bend_c, 10, 6319
12, 159792, Pitch_bend_c, 10, 8192
12, 160484, Control_c, 10, 1, 45
12, 160496, Control_c, 10, 1, 107
12, 160500, Control_c, 10, 1, 118
12, 160528, Control_c, 10, 1, 114
12, 160540, Control_c, 10, 1, 98
12, 160548, Control_c, 10, 1, 77
12, 160556, Control_c, 10, 1, 72
12, 160560, Control_c, 10, 1, 55
12, 160572, Control_c, 10, 1, 21
12, 160580, Control_c, 10, 1, 1
12, 160584, Note_on_c, 10, 69, 0
12, 160588, Control_c, 10, 1, 0
12, 162816, Note_on_c, 10, 72, 98
12, 162824, Pitch_bend_c, 10, 2926
12, 162832, Pitch_bend_c, 10, 2458
12, 162864, Pitch_bend_c, 10, 3160
12, 162876, Pitch_bend_c, 10, 4096
12, 162880, Pitch_bend_c, 10, 5383
12, 162892, Pitch_bend_c, 10, 6904
12, 162904, Pitch_bend_c, 10, 8074
12, 162908, Pitch_bend_c, 10, 8192
12, 163112, Note_on_c, 10, 72, 0
12, 163200, Note_on_c, 10, 72, 102
12, 163484, Note_on_c, 10, 72, 0
12, 163532, Pitch_bend_c, 10, 7840
12, 163544, Pitch_bend_c, 10, 7138
12, 163552, Pitch_bend_c, 10, 6436
12, 163564, Pitch_bend_c, 10, 5851
12, 163568, Pitch_bend_c, 10, 5617
12, 163576, Pitch_bend_c, 10, 5383
12, 163584, Note_on_c, 10, 72, 95
12, 163612, Pitch_bend_c, 10, 5734
12, 163620, Pitch_bend_c, 10, 6085
12, 163628, Pitch_bend_c, 10, 6787
12, 163640, Pitch_bend_c, 10, 7489
12, 163644, Pitch_bend_c, 10, 8192
12, 163708, Note_on_c, 10, 72, 0
12, 163780, Note_on_c, 10, 72, 102
12, 164036, Note_on_c, 10, 72, 0
12, 164120, Pitch_bend_c, 10, 7138
12, 164128, Pitch_bend_c, 10, 5851
12, 164136, Pitch_bend_c, 10, 4798
12, 164144, Pitch_bend_c, 10, 3862
12, 164152, Pitch_bend_c, 10, 3160
12, 164156, Note_on_c, 10, 72, 102
12, 164160, Pitch_bend_c, 10, 2692
12, 164176, Pitch_bend_c, 10, 3043
12, 164188, Pitch_bend_c, 10, 4330
12, 164192, Pitch_bend_c, 10, 6436
12, 164204, Pitch_bend_c, 10, 8192
12, 164516, Note_on_c, 10, 72, 0
12, 164540, Note_on_c, 10, 69, 80
12, 164616, Note_on_c, 10, 69, 0
12, 164732, Note_on_c, 10, 69, 98
12, 164924, Note_on_c, 10, 67, 70
12, 164936, Note_on_c, 10, 69, 0
12, 165012, Note_on_c, 10, 67, 0
12, 165116, Note_on_c, 10, 67, 73
12, 165204, Note_on_c, 10, 67, 0
12, 165308, Note_on_c, 10, 67, 95
12, 165512, Note_on_c, 10, 67, 0
12, 165692, Note_on_c, 10, 67, 100
12, 165904, Pitch_bend_c, 10, 8309
12, 165912, Pitch_bend_c, 10, 13340
12, 165920, Pitch_bend_c, 10, 16382
12, 165936, Pitch_bend_c, 10, 16383
12, 166044, Pitch_bend_c, 10, 16265
12, 166052, Pitch_bend_c, 10, 15095
12, 166060, Pitch_bend_c, 10, 12053
12, 166064, Pitch_bend_c, 10, 8192
12, 166080, Note_on_c, 10, 65, 90
12, 166084, Note_on_c, 10, 67, 0
12, 166168, Note_on_c, 10, 65, 0
12, 166276, Note_on_c, 10, 65, 91
12, 166576, Control_c, 10, 1, 4
12, 166580, Control_c, 10, 1, 68
12, 166592, Control_c, 10, 1, 121
12, 166600, Control_c, 10, 1, 127
12, 166624, Note_on_c, 10, 65, 0
12, 166656, Control_c, 10, 1, 121
12, 166668, Control_c, 10, 1, 52
12, 166676, Control_c, 10, 1, 5
12, 166684, Control_c, 10, 1, 0
12, 168864, Pitch_bend_c, 10, 7723
12, 168868, Pitch_bend_c, 10, 7021
12, 168880, Pitch_bend_c, 10, 5968
12, 168892, Pitch_bend_c, 10, 4798
12, 168896, Pitch_bend_c, 10, 3628
12, 168908, Pitch_bend_c, 10, 2575
12, 168912, Pitch_bend_c, 10, 1639
12, 168924, Pitch_bend_c, 10, 937
12, 168936, Pitch_bend_c, 10, 352
12, 168940, Pitch_bend_c, 10, 118
12, 168960, Pitch_bend_c, 10, 352
12, 168968, Note_on_c, 10, 72, 97
12, 168976, Pitch_bend_c, 10, 1054
12, 168984, Pitch_bend_c, 10, 1873
12, 168992, Pitch_bend_c, 10, 2926
12, 169000, Pitch_bend_c, 10, 4330
12, 169008, Pitch_bend_c, 10, 5968
12, 169020, Pitch_bend_c, 10, 7606
12, 169024, Pitch_bend_c, 10, 8192
12, 169120, Note_on_c, 10, 72, 0
12, 169152, Note_on_c, 10, 72, 97
12, 169620, Note_on_c, 10, 72, 0
12, 169696, Pitch_bend_c, 10, 7606
12, 169704, Pitch_bend_c, 10, 6787
12, 169712, Pitch_bend_c, 10, 5851
12, 169720, Pitch_bend_c, 10, 5032
12, 169728, Pitch_bend_c, 10, 4213
12, 169732, Note_on_c, 10, 72, 100
12, 169740, Pitch_bend_c, 10, 3745
12, 169744, Pitch_bend_c, 10, 3628
12, 169772, Pitch_bend_c, 10, 4096
12, 169784, Pitch_bend_c, 10, 5149
12, 169788, Pitch_bend_c, 10, 6553
12, 169800, Pitch_bend_c, 10, 8074
12, 169804, Pitch_bend_c, 10, 8192
12, 169840, Note_on_c, 10, 72, 0
12, 169920, Note_on_c, 10, 72, 95
12, 170180, Note_on_c, 10, 72, 0
12, 170300, Note_on_c, 10, 76, 97
12, 170724, Note_on_c, 10, 76, 0
12, 170812, Pitch_bend_c, 10, 7372
12, 170820, Pitch_bend_c, 10, 6202
12, 170828, Pitch_bend_c, 10, 5149
12, 170836, Pitch_bend_c, 10, 4330
12, 170848, Pitch_bend_c, 10, 3511
12, 170852, Pitch_bend_c, 10, 3277
12, 170868, Pitch_bend_c, 10, 3628
12, 170872, Note_on_c, 10, 76, 95
12, 170880, Pitch_bend_c, 10, 4447
12, 170892, Pitch_bend_c, 10, 5851
12, 170896, Pitch_bend_c, 10, 7606
12, 170900, Pitch_bend_c, 10, 8192
12, 171152, Note_on_c, 10, 76, 0
12, 171260, Note_on_c, 10, 72, 92
12, 171348, Note_on_c, 10, 72, 0
12, 171452, Note_on_c, 10, 72, 87
12, 171836, Note_on_c, 10, 72, 0
12, 171836, Note_on_c, 10, 71, 84
12, 172000, Note_on_c, 10, 71, 0
12, 172028, Note_on_c, 10, 72, 97
12, 172252, Note_on_c, 10, 72, 0
12, 172416, Note_on_c, 10, 69, 104
12, 172596, Pitch_bend_c, 10, 7957
12, 172604, Pitch_bend_c, 10, 5968
12, 172612, Pitch_bend_c, 10, 3394
12, 172624, Pitch_bend_c, 10, 937
12, 172632, Pitch_bend_c, 10, 0
12, 173088, Note_on_c, 10, 69, 0
12, 173124, Pitch_bend_c, 10, 1054
12, 173128, Pitch_bend_c, 10, 4447
12, 173140, Pitch_bend_c, 10, 8192
12, 181148, Pitch_bend_c, 10, 7840
12, 181156, Pitch_bend_c, 10, 7138
12, 181168, Pitch_bend_c, 10, 6202
12, 181172, Pitch_bend_c, 10, 5149
12, 181180, Pitch_bend_c, 10, 4330
12, 181188, Pitch_bend_c, 10, 3628
12, 181200, Pitch_bend_c, 10, 2926
12, 181212, Pitch_bend_c, 10, 2341
12, 181216, Pitch_bend_c, 10, 1990
12, 181244, Note_on_c, 10, 72, 98
12, 181260, Pitch_bend_c, 10, 2458
12, 181260, Pitch_bend_c, 10, 3394
12, 181264, Pitch_bend_c, 10, 4681
12, 181276, Pitch_bend_c, 10, 6436
12, 181288, Pitch_bend_c, 10, 7957
12, 181296, Pitch_bend_c, 10, 8192
12, 181556, Note_on_c, 10, 72, 0
12, 181636, Note_on_c, 10, 72, 92
12, 181732, Note_on_c, 10, 72, 0
12, 181828, Note_on_c, 10, 72, 92
12, 182092, Note_on_c, 10, 72, 0
12, 182204, Note_on_c, 10, 72, 97
12, 182452, Note_on_c, 10, 72, 0
12, 182528, Pitch_bend_c, 10, 7723
12, 182540, Pitch_bend_c, 10, 6553
12, 182552, Pitch_bend_c, 10, 5383
12, 182556, Pitch_bend_c, 10, 3979
12, 182568, Pitch_bend_c, 10, 2926
12, 182572, Pitch_bend_c, 10, 2224
12, 182584, Pitch_bend_c, 10, 1873
12, 182588, Note_on_c, 10, 76, 97
12, 182600, Pitch_bend_c, 10, 2458
12, 182608, Pitch_bend_c, 10, 3745
12, 182616, Pitch_bend_c, 10, 5734
12, 182624, Pitch_bend_c, 10, 8192
12, 183048, Note_on_c, 10, 76, 0
12, 183156, Note_on_c, 10, 76, 92
12, 183460, Note_on_c, 10, 76, 0
12, 183548, Note_on_c, 10, 72, 91
12, 183828, Note_on_c, 10, 72, 0
12, 183940, Note_on_c, 10, 72, 95
12, 184180, Note_on_c, 10, 72, 0
12, 184264, Pitch_bend_c, 10, 7957
12, 184272, Pitch_bend_c, 10, 6670
12, 184280, Pitch_bend_c, 10, 5266
12, 184292, Pitch_bend_c, 10, 3979
12, 184296, Pitch_bend_c, 10, 3043
12, 184308, Pitch_bend_c, 10, 2458
12, 184316, Note_on_c, 10, 69, 94
12, 184320, Pitch_bend_c, 10, 1990
12, 184328, Pitch_bend_c, 10, 2341
12, 184340, Pitch_bend_c, 10, 3043
12, 184352, Pitch_bend_c, 10, 4330
12, 184356, Pitch_bend_c, 10, 6319
12, 184368, Pitch_bend_c, 10, 8192
12, 185060, Control_c, 10, 1, 45
12, 185072, Control_c, 10, 1, 107
12, 185076, Control_c, 10, 1, 118
12, 185104, Control_c, 10, 1, 114
12, 185116, Control_c, 10, 1, 98
12, 185124, Control_c, 10, 1, 77
12, 185132, Control_c, 10, 1, 72
12, 185136, Control_c, 10, 1, 55
12, 185148, Control_c, 10, 1, 21
12, 185156, Control_c, 10, 1, 1
12, 185160, Note_on_c, 10, 69, 0
12, 185164, Control_c, 10, 1, 0
12, 186484, Pitch_bend_c, 10, 8074
12, 186500, Pitch_bend_c, 10, 7489
12, 186508, Pitch_bend_c, 10, 6670
12, 186524, Pitch_bend_c, 10, 5734
12, 186528, Pitch_bend_c, 10, 5032
12, 186544, Pitch_bend_c, 10, 3979
12, 186552, Pitch_bend_c, 10, 3043
12, 186568, Pitch_bend_c, 10, 2107
12, 186584, Pitch_bend_c, 10, 1405
12, 186592, Pitch_bend_c, 10, 820
12, 186608, Pitch_bend_c, 10, 469
12, 186624, Note_on_c, 10, 72, 104
12, 186660, Pitch_bend_c, 10, 937
12, 186668, Pitch_bend_c, 10, 1522
12, 186676, Pitch_bend_c, 10, 2575
12, 186692, Pitch_bend_c, 10, 4213
12, 186708, Pitch_bend_c, 10, 6787
12, 186716, Pitch_bend_c, 10, 8192
12, 187360, Note_on_c, 10, 72, 0
12, 187376, Note_on_c, 10, 69, 86
12, 188764, Note_on_c, 10, 69, 0
12, 188764, End_track
13, 0, Start_track
13, 0, MIDI_port, 0
13, 0, Title_t, "Vocals 2"
13, 0, Control_c, 11, 0, 0
13, 0, Control_c, 11, 32, 0
13, 0, Program_c, 11, 54
13, 0, Control_c, 11, 7, 100
13, 0, Control_c, 11, 10, 54
13, 0, Control_c, 11, 93, 50
13, 39768, Pitch_bend_c, 11, 7606
13, 39780, Pitch_bend_c, 11, 7021
13, 39784, Pitch_bend_c, 11, 6202
13, 39792, Pitch_bend_c, 11, 5617
13, 39800, Pitch_bend_c, 11, 5032
13, 39812, Pitch_bend_c, 11, 4447
13, 39824, Pitch_bend_c, 11, 3979
13, 39824, Pitch_bend_c, 11, 3394
13, 39832, Pitch_bend_c, 11, 2926
13, 39844, Pitch_bend_c, 11, 2458
13, 39856, Pitch_bend_c, 11, 2224
13, 39864, Pitch_bend_c, 11, 1873
13, 39864, Pitch_bend_c, 11, 1522
13, 39876, Pitch_bend_c, 11, 1171
13, 39888, Pitch_bend_c, 11, 937
13, 39896, Pitch_bend_c, 11, 820
13, 39920, Pitch_bend_c, 11, 1171
13, 39932, Note_on_c, 11, 57, 92
13, 39932, Pitch_bend_c, 11, 1756
13, 39940, Pitch_bend_c, 11, 2809
13, 39940, Pitch_bend_c, 11, 4564
13, 39956, Pitch_bend_c, 11, 7138
13, 39968, Pitch_bend_c, 11, 8192
13, 40736, Note_on_c, 11, 57, 0
13, 41276, Note_on_c, 11, 57, 97
13, 41484, Pitch_bend_c, 11, 9947
13, 41496, Pitch_bend_c, 11, 15095
13, 41500, Pitch_bend_c, 11, 16383
13, 42220, Note_on_c, 11, 57, 0
13, 42248, Pitch_bend_c, 11, 16265
13, 42256, Pitch_bend_c, 11, 15446
13, 42264, Pitch_bend_c, 11, 12872
13, 42276, Pitch_bend_c, 11, 10532
13, 42280, Pitch_bend_c, 11, 8309
13, 42292, Pitch_bend_c, 11, 8192
13, 42880, Pitch_bend_c, 11, 7723
13, 42892, Pitch_bend_c, 11, 6904
13, 42904, Pitch_bend_c, 11, 5851
13, 42908, Pitch_bend_c, 11, 4915
13, 42912, Pitch_bend_c, 11, 3745
13, 42924, Pitch_bend_c, 11, 2809
13, 42936, Pitch_bend_c, 11, 1990
13, 42948, Pitch_bend_c, 11, 1171
13, 42952, Pitch_bend_c, 11, 352
13, 42964, Pitch_bend_c, 11, 0
13, 43004, Note_on_c, 11, 60, 81
13, 43012, Pitch_bend_c, 11, 235
13, 43012, Pitch_bend_c, 11, 2224
13, 43028, Pitch_bend_c, 11, 4798
13, 43036, Pitch_bend_c, 11, 7723
13, 43048, Pitch_bend_c, 11, 8192
13, 44176, Pitch_bend_c, 11, 12287
13, 44188, Pitch_bend_c, 11, 16383
13, 44240, Note_on_c, 11, 60, 0
13, 44240, Pitch_bend_c, 11, 16265
13, 44252, Pitch_bend_c, 11, 15446
13, 44264, Pitch_bend_c, 11, 13106
13, 44272, Pitch_bend_c, 11, 9245
13, 44284, Pitch_bend_c, 11, 8192
13, 44356, Note_on_c, 11, 59, 95
13, 45232, Note_on_c, 11, 59, 0
13, 45948, Pitch_bend_c, 11, 7957
13, 45956, Pitch_bend_c, 11, 7489
13, 45964, Pitch_bend_c, 11, 6904
13, 45972, Pitch_bend_c, 11, 6085
13, 45984, Pitch_bend_c, 11, 5266
13, 45988, Pitch_bend_c, 11, 4447
13, 46000, Pitch_bend_c, 11, 3511
13, 46012, Pitch_bend_c, 11, 2809
13, 46016, Pitch_bend_c, 11, 2107
13, 46028, Pitch_bend_c, 11, 1288
13, 46040, Pitch_bend_c, 11, 703
13, 46044, Pitch_bend_c, 11, 235
13, 46056, Pitch_bend_c, 11, 0
13, 46076, Note_on_c, 11, 57, 94
13, 46080, Pitch_bend_c, 11, 352
13, 46080, Pitch_bend_c, 11, 1522
13, 46096, Pitch_bend_c, 11, 3277
13, 46104, Pitch_bend_c, 11, 5617
13, 46112, Pitch_bend_c, 11, 8074
13, 46124, Pitch_bend_c, 11, 8192
13, 47192, Pitch_bend_c, 11, 7489
13, 47204, Pitch_bend_c, 11, 3745
13, 47212, Pitch_bend_c, 11, 1
13, 47220, Pitch_bend_c, 11, 0
13, 47340, Pitch_bend_c, 11, 1873
13, 47348, Pitch_bend_c, 11, 4798
13, 47356, Pitch_bend_c, 11, 8192
13, 47372, Note_on_c, 11, 57, 0
13, 47420, Note_on_c, 11, 59, 91
13, 48708, Note_on_c, 11, 59, 0
13, 49152, Note_on_c, 11, 59, 88
13, 49344, Note_on_c, 11, 60, 81
13, 49356, Note_on_c, 11, 59, 0
13, 50472, Note_on_c, 11, 60, 0
13, 50492, Note_on_c, 11, 59, 86
13, 51048, Note_on_c, 11, 59, 0
13, 51840, Note_on_c, 11, 57, 94
13, 52036, Note_on_c, 11, 59, 98
13, 52044, Note_on_c, 11, 57, 0
13, 52224, Note_on_c, 11, 60, 80
13, 52240, Note_on_c, 11, 59, 0
13, 53568, Note_on_c, 11, 59, 90
13, 53584, Note_on_c, 11, 60, 0
13, 54160, Note_on_c, 11, 59, 0
13, 54912, Note_on_c, 11, 57, 94
13, 55120, Pitch_bend_c, 11, 10415
13, 55124, Pitch_bend_c, 11, 14627
13, 55128, Pitch_bend_c, 11, 16383
13, 55252, Pitch_bend_c, 11, 16265
13, 55256, Pitch_bend_c, 11, 15095
13, 55264, Note_on_c, 11, 57, 0
13, 55268, Pitch_bend_c, 11, 11585
13, 55280, Pitch_bend_c, 11, 8192
13, 55300, Note_on_c, 11, 60, 80
13, 56628, Note_on_c, 11, 60, 0
13, 56636, Note_on_c, 11, 59, 80
13, 56728, Note_on_c, 11, 59, 0
13, 56828, Note_on_c, 11, 59, 87
13, 57312, Note_on_c, 11, 59, 0
13, 58292, Pitch_bend_c, 11, 8074
13, 58304, Pitch_bend_c, 11, 7606
13, 58308, Pitch_bend_c, 11, 7138
13, 58320, Pitch_bend_c, 11, 6436
13, 58328, Pitch_bend_c, 11, 5734
13, 58336, Pitch_bend_c, 11, 5149
13, 58348, Pitch_bend_c, 11, 4915
13, 58352, Pitch_bend_c, 11, 4564
13, 58364, Note_on_c, 11, 67, 87
13, 58376, Pitch_bend_c, 11, 4915
13, 58392, Pitch_bend_c, 11, 5500
13, 58396, Pitch_bend_c, 11, 6319
13, 58408, Pitch_bend_c, 11, 7489
13, 58416, Pitch_bend_c, 11, 8192
13, 58644, Note_on_c, 11, 67, 0
13, 58748, Note_on_c, 11, 67, 91
13, 59060, Note_on_c, 11, 67, 0
13, 59136, Note_on_c, 11, 67, 72
13, 59224, Note_on_c, 11, 67, 0
13, 59332, Note_on_c, 11, 67, 91
13, 59600, Note_on_c, 11, 67, 0
13, 59712, Note_on_c, 11, 67, 87
13, 60084, Note_on_c, 11, 67, 0
13, 60092, Note_on_c, 11, 65, 62
13, 60192, Note_on_c, 11, 65, 0
13, 60284, Note_on_c, 11, 65, 95
13, 60472, Note_on_c, 11, 65, 0
13, 60476, Note_on_c, 11, 64, 72
13, 60572, Note_on_c, 11, 64, 0
13, 60668, Note_on_c, 11, 64, 91
13, 60780, Note_on_c, 11, 64, 0
13, 60864, Note_on_c, 11, 64, 87
13, 61112, Note_on_c, 11, 64, 0
13, 61244, Note_on_c, 11, 64, 92
13, 61440, Note_on_c, 11, 65, 83
13, 61464, Note_on_c, 11, 64, 0
13, 61628, Note_on_c, 11, 65, 0
13, 61632, Note_on_c, 11, 60, 74
13, 61700, Note_on_c, 11, 60, 0
13, 61820, Note_on_c, 11, 60, 80
13, 62208, Control_c, 11, 1, 62
13, 62212, Control_c, 11, 1, 121
13, 62228, Control_c, 11, 1, 127
13, 62236, Note_on_c, 11, 60, 0
13, 62292, Control_c, 11, 1, 111
13, 62300, Control_c, 11, 1, 48
13, 62308, Control_c, 11, 1, 6
13, 62320, Control_c, 11, 1, 0
13, 64396, Pitch_bend_c, 11, 7723
13, 64404, Pitch_bend_c, 11, 7138
13, 64416, Pitch_bend_c, 11, 6553
13, 64428, Pitch_bend_c, 11, 5968
13, 64432, Pitch_bend_c, 11, 5383
13, 64444, Pitch_bend_c, 11, 4915
13, 64452, Pitch_bend_c, 11, 4447
13, 64460, Pitch_bend_c, 11, 3979
13, 64472, Pitch_bend_c, 11, 3511
13, 64480, Pitch_bend_c, 11, 3160
13, 64480, Pitch_bend_c, 11, 2926
13, 64520, Note_on_c, 11, 67, 90
13, 64528, Pitch_bend_c, 11, 3394
13, 64540, Pitch_bend_c, 11, 4096
13, 64544, Pitch_bend_c, 11, 4915
13, 64556, Pitch_bend_c, 11, 5851
13, 64560, Pitch_bend_c, 11, 7021
13, 64572, Pitch_bend_c, 11, 8192
13, 64656, Note_on_c, 11, 67, 0
13, 64708, Note_on_c, 11, 67, 95
13, 65128, Note_on_c, 11, 67, 0
13, 65224, Pitch_bend_c, 11, 7138
13, 65232, Pitch_bend_c, 11, 5851
13, 65244, Pitch_bend_c, 11, 4681
13, 65248, Pitch_bend_c, 11, 3745
13, 65260, Pitch_bend_c, 11, 3043
13, 65264, Pitch_bend_c, 11, 2458
13, 65276, Note_on_c, 11, 67, 88
13, 65276, Pitch_bend_c, 11, 2224
13, 65296, Pitch_bend_c, 11, 3043
13, 65308, Pitch_bend_c, 11, 4096
13, 65320, Pitch_bend_c, 11, 5734
13, 65324, Pitch_bend_c, 11, 7606
13, 65336, Pitch_bend_c, 11, 8192
13, 65384, Note_on_c, 11, 67, 0
13, 65468, Note_on_c, 11, 67, 97
13, 65844, Note_on_c, 11, 67, 0
13, 65852, Note_on_c, 11, 71, 80
13, 66040, Note_on_c, 11, 71, 0
13, 66044, Note_on_c, 11, 72, 86
13, 66236, Note_on_c, 11, 71, 81
13, 66264, Note_on_c, 11, 72, 0
13, 66312, Note_on_c, 11, 71, 0
13, 66432, Note_on_c, 11, 71, 81
13, 66788, Note_on_c, 11, 71, 0
13, 66812, Note_on_c, 11, 67, 73
13, 66880, Note_on_c, 11, 67, 0
13, 67004, Note_on_c, 11, 67, 83
13, 67248, Note_on_c, 11, 67, 0
13, 67320, Pitch_bend_c, 11, 6787
13, 67324, Pitch_bend_c, 11, 5149
13, 67332, Pitch_bend_c, 11, 3511
13, 67340, Pitch_bend_c, 11, 2224
13, 67352, Pitch_bend_c, 11, 703
13, 67356, Pitch_bend_c, 11, 0
13, 67388, Note_on_c, 11, 67, 88
13, 67552, Pitch_bend_c, 11, 352
13, 67556, Pitch_bend_c, 11, 1873
13, 67568, Pitch_bend_c, 11, 3862
13, 67572, Pitch_bend_c, 11, 6436
13, 67584, Pitch_bend_c, 11, 8192
13, 67828, Note_on_c, 11, 67, 0
13, 67972, Note_on_c, 11, 65, 73
13, 68152, Note_on_c, 11, 65, 0
13, 68160, Note_on_c, 11, 64, 84
13, 68760, Control_c, 11, 1, 107
13, 68764, Control_c, 11, 1, 127
13, 68792, Control_c, 11, 1, 118
13, 68804, Control_c, 11, 1, 92
13, 68808, Control_c, 11, 1, 82
13, 68820, Control_c, 11, 1, 87
13, 68824, Control_c, 11, 1, 95
13, 68848, Control_c, 11, 1, 82
13, 68852, Control_c, 11, 1, 60
13, 68864, Control_c, 11, 1, 35
13, 68868, Control_c, 11, 1, 7
13, 68872, Note_on_c, 11, 64, 0
13, 68880, Control_c, 11, 1, 0
13, 76724, Pitch_bend_c, 11, 7957
13, 76736, Pitch_bend_c, 11, 7489
13, 76748, Pitch_bend_c, 11, 6670
13, 76752, Pitch_bend_c, 11, 5851
13, 76760, Pitch_bend_c, 11, 5032
13, 76768, Pitch_bend_c, 11, 3979
13, 76780, Pitch_bend_c, 11, 3043
13, 76792, Pitch_bend_c, 11, 2107
13, 76796, Pitch_bend_c, 11, 1405
13, 76796, Note_on_c, 11, 67, 102
13, 76800, Pitch_bend_c, 11, 820
13, 76816, Pitch_bend_c, 11, 586
13, 76832, Pitch_bend_c, 11, 820
13, 76840, Pitch_bend_c, 11, 1756
13, 76844, Pitch_bend_c, 11, 3394
13, 76856, Pitch_bend_c, 11, 5734
13, 76864, Pitch_bend_c, 11, 8192
13, 77108, Note_on_c, 11, 67, 0
13, 77188, Note_on_c, 11, 67, 86
13, 77316, Note_on_c, 11, 67, 0
13, 77380, Note_on_c, 11, 67, 95
13, 77652, Note_on_c, 11, 67, 0
13, 77760, Note_on_c, 11, 67, 95
13, 78008, Note_on_c, 11, 67, 0
13, 78140, Note_on_c, 11, 71, 86
13, 78328, Note_on_c, 11, 71, 0
13, 78332, Note_on_c, 11, 72, 95
13, 78628, Note_on_c, 11, 72, 0
13, 78692, Pitch_bend_c, 11, 7489
13, 78704, Pitch_bend_c, 11, 6319
13, 78708, Pitch_bend_c, 11, 5383
13, 78716, Note_on_c, 11, 71, 92
13, 78716, Pitch_bend_c, 11, 4915
13, 78736, Pitch_bend_c, 11, 5383
13, 78740, Pitch_bend_c, 11, 6553
13, 78752, Pitch_bend_c, 11, 8074
13, 78756, Pitch_bend_c, 11, 8192
13, 79076, Note_on_c, 11, 71, 0
13, 79096, Note_on_c, 11, 67, 88
13, 79348, Note_on_c, 11, 67, 0
13, 79484, Note_on_c, 11, 67, 75
13, 79672, Note_on_c, 11, 67, 0
13, 79864, Note_on_c, 11, 67, 87
13, 79936, Pitch_bend_c, 11, 7138
13, 79948, Pitch_bend_c, 11, 4213
13, 79956, Pitch_bend_c, 11, 1288
13, 79964, Pitch_bend_c, 11, 0
13, 80176, Pitch_bend_c, 11, 2341
13, 80184, Pitch_bend_c, 11, 6670
13, 80192, Pitch_bend_c, 11, 8192
13, 80204, Note_on_c, 11, 67, 0
13, 80248, Note_on_c, 11, 64, 90
13, 80624, Control_c, 11, 1, 4
13, 80636, Control_c, 11, 1, 33
13, 80640, Control_c, 11, 1, 66
13, 80644, Control_c, 11, 1, 70
13, 80656, Control_c, 11, 1, 75
13, 80668, Control_c, 11, 1, 79
13, 80676, Control_c, 11, 1, 82
13, 80692, Control_c, 11, 1, 75
13, 80720, Control_c, 11, 1, 68
13, 80724, Control_c, 11, 1, 35
13, 80736, Control_c, 11, 1, 4
13, 80740, Control_c, 11, 1, 0
13, 80812, Note_on_c, 11, 64, 0
13, 119640, Pitch_bend_c, 11, 7606
13, 119652, Pitch_bend_c, 11, 7021
13, 119656, Pitch_bend_c, 11, 6202
13, 119664, Pitch_bend_c, 11, 5617
13, 119672, Pitch_bend_c, 11, 5032
13, 119684, Pitch_bend_c, 11, 4447
13, 119696, Pitch_bend_c, 11, 3979
13, 119696, Pitch_bend_c, 11, 3394
13, 119704, Pitch_bend_c, 11, 2926
13, 119716, Pitch_bend_c, 11, 2458
13, 119728, Pitch_bend_c, 11, 2224
13, 119736, Pitch_bend_c, 11, 1873
13, 119736, Pitch_bend_c, 11, 1522
13, 119748, Pitch_bend_c, 11, 1171
13, 119760, Pitch_bend_c, 11, 937
13, 119768, Pitch_bend_c, 11, 820
13, 119792, Pitch_bend_c, 11, 1171
13, 119804, Note_on_c, 11, 57, 92
13, 119804, Pitch_bend_c, 11, 1756
13, 119812, Pitch_bend_c, 11, 2809
13, 119812, Pitch_bend_c, 11, 4564
13, 119828, Pitch_bend_c, 11, 7138
13, 119840, Pitch_bend_c, 11, 8192
13, 120608, Note_on_c, 11, 57, 0
13, 121148, Note_on_c, 11, 57, 97
13, 121356, Pitch_bend_c, 11, 9947
13, 121368, Pitch_bend_c, 11, 15095
13, 121372, Pitch_bend_c, 11, 16383
13, 122092, Note_on_c, 11, 57, 0
13, 122120, Pitch_bend_c, 11, 16265
13, 122128, Pitch_bend_c, 11, 15446
13, 122136, Pitch_bend_c, 11, 12872
13, 122148, Pitch_bend_c, 11, 10532
13, 122152, Pitch_bend_c, 11, 8309
13, 122164, Pitch_bend_c, 11, 8192
13, 122752, Pitch_bend_c, 11, 7723
13, 122764, Pitch_bend_c, 11, 6904
13, 122776, Pitch_bend_c, 11, 5851
13, 122780, Pitch_bend_c, 11, 4915
13, 122784, Pitch_bend_c, 11, 3745
13, 122796, Pitch_bend_c, 11, 2809
13, 122808, Pitch_bend_c, 11, 1990
13, 122820, Pitch_bend_c, 11, 1171
13, 122824, Pitch_bend_c, 11, 352
13, 122836, Pitch_bend_c, 11, 0
13, 122876, Note_on_c, 11, 60, 81
13, 122884, Pitch_bend_c, 11, 235
13, 122884, Pitch_bend_c, 11, 2224
13, 122900, Pitch_bend_c, 11, 4798
13, 122908, Pitch_bend_c, 11, 7723
13, 122920, Pitch_bend_c, 11, 8192
13, 124048, Pitch_bend_c, 11, 12287
13, 124060, Pitch_bend_c, 11, 16383
13, 124112, Note_on_c, 11, 60, 0
13, 124112, Pitch_bend_c, 11, 16265
13, 124124, Pitch_bend_c, 11, 15446
13, 124136, Pitch_bend_c, 11, 13106
13, 124144, Pitch_bend_c, 11, 9245
13, 124156, Pitch_bend_c, 11, 8192
13, 124228, Note_on_c, 11, 59, 95
13, 125104, Note_on_c, 11, 59, 0
13, 125820, Pitch_bend_c, 11, 7957
13, 125828, Pitch_bend_c, 11, 7489
13, 125836, Pitch_bend_c, 11, 6904
13, 125844, Pitch_bend_c, 11, 6085
13, 125856, Pitch_bend_c, 11, 5266
13, 125860, Pitch_bend_c, 11, 4447
13, 125872, Pitch_bend_c, 11, 3511
13, 125884, Pitch_bend_c, 11, 2809
13, 125888, Pitch_bend_c, 11, 2107
13, 125900, Pitch_bend_c, 11, 1288
13, 125912, Pitch_bend_c, 11, 703
13, 125916, Pitch_bend_c, 11, 235
13, 125928, Pitch_bend_c, 11, 0
13, 125948, Note_on_c, 11, 57, 94
13, 125952, Pitch_bend_c, 11, 352
13, 125952, Pitch_bend_c, 11, 1522
13, 125968, Pitch_bend_c, 11, 3277
13, 125976, Pitch_bend_c, 11, 5617
13, 125984, Pitch_bend_c, 11, 8074
13, 125996, Pitch_bend_c, 11, 8192
13, 127064, Pitch_bend_c, 11, 7489
13, 127076, Pitch_bend_c, 11, 3745
13, 127084, Pitch_bend_c, 11, 1
13, 127092, Pitch_bend_c, 11, 0
13, 127212, Pitch_bend_c, 11, 1873
13, 127220, Pitch_bend_c, 11, 4798
13, 127228, Pitch_bend_c, 11, 8192
13, 127244, Note_on_c, 11, 57, 0
13, 127292, Note_on_c, 11, 59, 91
13, 128580, Note_on_c, 11, 59, 0
13, 129024, Note_on_c, 11, 59, 88
13, 129216, Note_on_c, 11, 60, 81
13, 129228, Note_on_c, 11, 59, 0
13, 130344, Note_on_c, 11, 60, 0
13, 130364, Note_on_c, 11, 59, 86
13, 130920, Note_on_c, 11, 59, 0
13, 131712, Note_on_c, 11, 57, 94
13, 131908, Note_on_c, 11, 59, 98
13, 131916, Note_on_c, 11, 57, 0
13, 132096, Note_on_c, 11, 60, 80
13, 132112, Note_on_c, 11, 59, 0
13, 133440, Note_on_c, 11, 59, 90
13, 133456, Note_on_c, 11, 60, 0
13, 134032, Note_on_c, 11, 59, 0
13, 134784, Note_on_c, 11, 57, 94
13, 134992, Pitch_bend_c, 11, 10415
13, 134996, Pitch_bend_c, 11, 14627
13, 135000, Pitch_bend_c, 11, 16383
13, 135124, Pitch_bend_c, 11, 16265
13, 135128, Pitch_bend_c, 11, 15095
13, 135136, Note_on_c, 11, 57, 0
13, 135140, Pitch_bend_c, 11, 11585
13, 135152, Pitch_bend_c, 11, 8192
13, 135172, Note_on_c, 11, 60, 80
13, 136500, Note_on_c, 11, 60, 0
13, 136508, Note_on_c, 11, 59, 80
13, 136600, Note_on_c, 11, 59, 0
13, 136700, Note_on_c, 11, 59, 87
13, 137184, Note_on_c, 11, 59, 0
13, 138164, Pitch_bend_c, 11, 8074
13, 138176, Pitch_bend_c, 11, 7606
13, 138180, Pitch_bend_c, 11, 7138
13, 138192, Pitch_bend_c, 11, 6436
13, 138200, Pitch_bend_c, 11, 5734
13, 138208, Pitch_bend_c, 11, 5149
13, 138220, Pitch_bend_c, 11, 4915
13, 138224, Pitch_bend_c, 11, 4564
13, 138236, Note_on_c, 11, 67, 87
13, 138248, Pitch_bend_c, 11, 4915
13, 138264, Pitch_bend_c, 11, 5500
13, 138268, Pitch_bend_c, 11, 6319
13, 138280, Pitch_bend_c, 11, 7489
13, 138288, Pitch_bend_c, 11, 8192
13, 138516, Note_on_c, 11, 67, 0
13, 138620, Note_on_c, 11, 67, 91
13, 138932, Note_on_c, 11, 67, 0
13, 139008, Note_on_c, 11, 67, 72
13, 139096, Note_on_c, 11, 67, 0
13, 139204, Note_on_c, 11, 67, 91
13, 139472, Note_on_c, 11, 67, 0
13, 139584, Note_on_c, 11, 67, 87
13, 139956, Note_on_c, 11, 67, 0
13, 139964, Note_on_c, 11, 65, 62
13, 140064, Note_on_c, 11, 65, 0
13, 140156, Note_on_c, 11, 65, 95
13, 140344, Note_on_c, 11, 65, 0
13, 140348, Note_on_c, 11, 64, 72
13, 140444, Note_on_c, 11, 64, 0
13, 140540, Note_on_c, 11, 64, 91
13, 140652, Note_on_c, 11, 64, 0
13, 140736, Note_on_c, 11, 64, 87
13, 140984, Note_on_c, 11, 64, 0
13, 141116, Note_on_c, 11, 64, 92
13, 141312, Note_on_c, 11, 65, 83
13, 141336, Note_on_c, 11, 64, 0
13, 141500, Note_on_c, 11, 65, 0
13, 141504, Note_on_c, 11, 60, 74
13, 141572, Note_on_c, 11, 60, 0
13, 141692, Note_on_c, 11, 60, 80
13, 142080, Control_c, 11, 1, 62
13, 142084, Control_c, 11, 1, 121
13, 142100, Control_c, 11, 1, 127
13, 142108, Note_on_c, 11, 60, 0
13, 142164, Control_c, 11, 1, 111
13, 142172, Control_c, 11, 1, 48
13, 142180, Control_c, 11, 1, 6
13, 142192, Control_c, 11, 1, 0
13, 144268, Pitch_bend_c, 11, 7723
13, 144276, Pitch_bend_c, 11, 7138
13, 144288, Pitch_bend_c, 11, 6553
13, 144300, Pitch_bend_c, 11, 5968
13, 144304, Pitch_bend_c, 11, 5383
13, 144316, Pitch_bend_c, 11, 4915
13, 144324, Pitch_bend_c, 11, 4447
13, 144332, Pitch_bend_c, 11, 3979
13, 144344, Pitch_bend_c, 11, 3511
13, 144352, Pitch_bend_c, 11, 3160
13, 144352, Pitch_bend_c, 11, 2926
13, 144392, Note_on_c, 11, 67, 90
13, 144400, Pitch_bend_c, 11, 3394
13, 144412, Pitch_bend_c, 11, 4096
13, 144416, Pitch_bend_c, 11, 4915
13, 144428, Pitch_bend_c, 11, 5851
13, 144432, Pitch_bend_c, 11, 7021
13, 144444, Pitch_bend_c, 11, 8192
13, 144528, Note_on_c, 11, 67, 0
13, 144580, Note_on_c, 11, 67, 95
13, 145000, Note_on_c, 11, 67, 0
13, 145096, Pitch_bend_c, 11, 7138
13, 145104, Pitch_bend_c, 11, 5851
13, 145116, Pitch_bend_c, 11, 4681
13, 145120, Pitch_bend_c, 11, 3745
13, 145132, Pitch_bend_c, 11, 3043
13, 145136, Pitch_bend_c, 11, 2458
13, 145148, Note_on_c, 11, 67, 88
13, 145148, Pitch_bend_c, 11, 2224
13, 145168, Pitch_bend_c, 11, 3043
13, 145180, Pitch_bend_c, 11, 4096
13, 145192, Pitch_bend_c, 11, 5734
13, 145196, Pitch_bend_c, 11, 7606
13, 145208, Pitch_bend_c, 11, 8192
13, 145256, Note_on_c, 11, 67, 0
13, 145340, Note_on_c, 11, 67, 97
13, 145716, Note_on_c, 11, 67, 0
13, 145724, Note_on_c, 11, 71, 80
13, 145912, Note_on_c, 11, 71, 0
13, 145916, Note_on_c, 11, 72, 86
13, 146108, Note_on_c, 11, 71, 81
13, 146136, Note_on_c, 11, 72, 0
13, 146184, Note_on_c, 11, 71, 0
13, 146304, Note_on_c, 11, 71, 81
13, 146660, Note_on_c, 11, 71, 0
13, 146684, Note_on_c, 11, 67, 73
13, 146752, Note_on_c, 11, 67, 0
13, 146876, Note_on_c, 11, 67, 83
13, 147120, Note_on_c, 11, 67, 0
13, 147192, Pitch_bend_c, 11, 6787
13, 147196, Pitch_bend_c, 11, 5149
13, 147204, Pitch_bend_c, 11, 3511
13, 147212, Pitch_bend_c, 11, 2224
13, 147224, Pitch_bend_c, 11, 703
13, 147228, Pitch_bend_c, 11, 0
13, 147260, Note_on_c, 11, 67, 88
13, 147424, Pitch_bend_c, 11, 352
13, 147428, Pitch_bend_c, 11, 1873
13, 147440, Pitch_bend_c, 11, 3862
13, 147444, Pitch_bend_c, 11, 6436
13, 147456, Pitch_bend_c, 11, 8192
13, 147700, Note_on_c, 11, 67, 0
13, 147844, Note_on_c, 11, 65, 73
13, 148024, Note_on_c, 11, 65, 0
13, 148032, Note_on_c, 11, 64, 84
13, 148632, Control_c, 11, 1, 107
13, 148636, Control_c, 11, 1, 127
13, 148664, Control_c, 11, 1, 118
13, 148676, Control_c, 11, 1, 92
13, 148680, Control_c, 11, 1, 82
13, 148692, Control_c, 11, 1, 87
13, 148696, Control_c, 11, 1, 95
13, 148720, Control_c, 11, 1, 82
13, 148724, Control_c, 11, 1, 60
13, 148736, Control_c, 11, 1, 35
13, 148740, Control_c, 11, 1, 7
13, 148744, Note_on_c, 11, 64, 0
13, 148752, Control_c, 11, 1, 0
13, 156596, Pitch_bend_c, 11, 7957
13, 156608, Pitch_bend_c, 11, 7489
13, 156620, Pitch_bend_c, 11, 6670
13, 156624, Pitch_bend_c, 11, 5851
13, 156632, Pitch_bend_c, 11, 5032
13, 156640, Pitch_bend_c, 11, 3979
13, 156652, Pitch_bend_c, 11, 3043
13, 156664, Pitch_bend_c, 11, 2107
13, 156668, Pitch_bend_c, 11, 1405
13, 156668, Note_on_c, 11, 67, 102
13, 156672, Pitch_bend_c, 11, 820
13, 156688, Pitch_bend_c, 11, 586
13, 156704, Pitch_bend_c, 11, 820
13, 156712, Pitch_bend_c, 11, 1756
13, 156716, Pitch_bend_c, 11, 3394
13, 156728, Pitch_bend_c, 11, 5734
13, 156736, Pitch_bend_c, 11, 8192
13, 156980, Note_on_c, 11, 67, 0
13, 157060, Note_on_c, 11, 67, 86
13, 157188, Note_on_c, 11, 67, 0
13, 157252, Note_on_c, 11, 67, 95
13, 157524, Note_on_c, 11, 67, 0
13, 157632, Note_on_c, 11, 67, 95
13, 157880, Note_on_c, 11, 67, 0
13, 158012, Note_on_c, 11, 71, 86
13, 158200, Note_on_c, 11, 71, 0
13, 158204, Note_on_c, 11, 72, 95
13, 158500, Note_on_c, 11, 72, 0
13, 158564, Pitch_bend_c, 11, 7489
13, 158576, Pitch_bend_c, 11, 6319
13, 158580, Pitch_bend_c, 11, 5383
13, 158588, Note_on_c, 11, 71, 92
13, 158588, Pitch_bend_c, 11, 4915
13, 158608, Pitch_bend_c, 11, 5383
13, 158612, Pitch_bend_c, 11, 6553
13, 158624, Pitch_bend_c, 11, 8074
13, 158628, Pitch_bend_c, 11, 8192
13, 158948, Note_on_c, 11, 71, 0
13, 158968, Note_on_c, 11, 67, 88
13, 159220, Note_on_c, 11, 67, 0
13, 159356, Note_on_c, 11, 67, 75
13, 159544, Note_on_c, 11, 67, 0
13, 159736, Note_on_c, 11, 67, 87
13, 159808, Pitch_bend_c, 11, 7138
13, 159820, Pitch_bend_c, 11, 4213
13, 159828, Pitch_bend_c, 11, 1288
13, 159836, Pitch_bend_c, 11, 0
13, 160048, Pitch_bend_c, 11, 2341
13, 160056, Pitch_bend_c, 11, 6670
13, 160064, Pitch_bend_c, 11, 8192
13, 160076, Note_on_c, 11, 67, 0
13, 160120, Note_on_c, 11, 64, 90
13, 160496, Control_c, 11, 1, 4
13, 160508, Control_c, 11, 1, 33
13, 160512, Control_c, 11, 1, 66
13, 160516, Control_c, 11, 1, 70
13, 160528, Control_c, 11, 1, 75
13, 160540, Control_c, 11, 1, 79
13, 160548, Control_c, 11, 1, 82
13, 160564, Control_c, 11, 1, 75
13, 160592, Control_c, 11, 1, 68
13, 160596, Control_c, 11, 1, 35
13, 160608, Control_c, 11, 1, 4
13, 160612, Control_c, 11, 1, 0
13, 160684, Note_on_c, 11, 64, 0
13, 162824, Pitch_bend_c, 11, 4915
13, 162840, Pitch_bend_c, 11, 5500
13, 162844, Pitch_bend_c, 11, 6319
13, 162856, Pitch_bend_c, 11, 7489
13, 162864, Pitch_bend_c, 11, 8192
13, 163196, Note_on_c, 11, 67, 91
13, 163508, Note_on_c, 11, 67, 0
13, 163584, Note_on_c, 11, 67, 72
13, 163672, Note_on_c, 11, 67, 0
13, 163780, Note_on_c, 11, 67, 91
13, 164048, Note_on_c, 11, 67, 0
13, 164160, Note_on_c, 11, 67, 87
13, 164532, Note_on_c, 11, 67, 0
13, 164540, Note_on_c, 11, 65, 62
13, 164640, Note_on_c, 11, 65, 0
13, 164732, Note_on_c, 11, 65, 95
13, 164920, Note_on_c, 11, 65, 0
13, 164924, Note_on_c, 11, 64, 72
13, 165020, Note_on_c, 11, 64, 0
13, 165116, Note_on_c, 11, 64, 91
13, 165228, Note_on_c, 11, 64, 0
13, 165312, Note_on_c, 11, 64, 87
13, 165560, Note_on_c, 11, 64, 0
13, 165692, Note_on_c, 11, 64, 92
13, 165888, Note_on_c, 11, 65, 83
13, 165912, Note_on_c, 11, 64, 0
13, 166076, Note_on_c, 11, 65, 0
13, 166080, Note_on_c, 11, 60, 74
13, 166148, Note_on_c, 11, 60, 0
13, 166268, Note_on_c, 11, 60, 80
13, 166656, Control_c, 11, 1, 62
13, 166660, Control_c, 11, 1, 121
13, 166676, Control_c, 11, 1, 127
13, 166684, Note_on_c, 11, 60, 0
13, 166740, Control_c, 11, 1, 111
13, 166748, Control_c, 11, 1, 48
13, 166756, Control_c, 11, 1, 6
13, 166768, Control_c, 11, 1, 0
13, 168844, Pitch_bend_c, 11, 7723
13, 168852, Pitch_bend_c, 11, 7138
13, 168864, Pitch_bend_c, 11, 6553
13, 168876, Pitch_bend_c, 11, 5968
13, 168880, Pitch_bend_c, 11, 5383
13, 168892, Pitch_bend_c, 11, 4915
13, 168900, Pitch_bend_c, 11, 4447
13, 168908, Pitch_bend_c, 11, 3979
13, 168920, Pitch_bend_c, 11, 3511
13, 168928, Pitch_bend_c, 11, 3160
13, 168928, Pitch_bend_c, 11, 2926
13, 168968, Note_on_c, 11, 67, 90
13, 168976, Pitch_bend_c, 11, 3394
13, 168988, Pitch_bend_c, 11, 4096
13, 168992, Pitch_bend_c, 11, 4915
13, 169004, Pitch_bend_c, 11, 5851
13, 169008, Pitch_bend_c, 11, 7021
13, 169020, Pitch_bend_c, 11, 8192
13, 169104, Note_on_c, 11, 67, 0
13, 169156, Note_on_c, 11, 67, 95
13, 169576, Note_on_c, 11, 67, 0
13, 169672, Pitch_bend_c, 11, 7138
13, 169680, Pitch_bend_c, 11, 5851
13, 169692, Pitch_bend_c, 11, 4681
13, 169696, Pitch_bend_c, 11, 3745
13, 169708, Pitch_bend_c, 11, 3043
13, 169712, Pitch_bend_c, 11, 2458
13, 169724, Note_on_c, 11, 67, 88
13, 169724, Pitch_bend_c, 11, 2224
13, 169744, Pitch_bend_c, 11, 3043
13, 169756, Pitch_bend_c, 11, 4096
13, 169768, Pitch_bend_c, 11, 5734
13, 169772, Pitch_bend_c, 11, 7606
13, 169784, Pitch_bend_c, 11, 8192
13, 169832, Note_on_c, 11, 67, 0
13, 169916, Note_on_c, 11, 67, 97
13, 170292, Note_on_c, 11, 67, 0
13, 170300, Note_on_c, 11, 71, 80
13, 170488, Note_on_c, 11, 71, 0
13, 170492, Note_on_c, 11, 72, 86
13, 170684, Note_on_c, 11, 71, 81
13, 170712, Note_on_c, 11, 72, 0
13, 170760, Note_on_c, 11, 71, 0
13, 170880, Note_on_c, 11, 71, 81
13, 171236, Note_on_c, 11, 71, 0
13, 171260, Note_on_c, 11, 67, 73
13, 171328, Note_on_c, 11, 67, 0
13, 171452, Note_on_c, 11, 67, 83
13, 171696, Note_on_c, 11, 67, 0
13, 171768, Pitch_bend_c, 11, 6787
13, 171772, Pitch_bend_c, 11, 5149
13, 171780, Pitch_bend_c, 11, 3511
13, 171788, Pitch_bend_c, 11, 2224
13, 171800, Pitch_bend_c, 11, 703
13, 171804, Pitch_bend_c, 11, 0
13, 171836, Note_on_c, 11, 67, 88
13, 172000, Pitch_bend_c, 11, 352
13, 172004, Pitch_bend_c, 11, 1873
13, 172016, Pitch_bend_c, 11, 3862
13, 172020, Pitch_bend_c, 11, 6436
13, 172032, Pitch_bend_c, 11, 8192
13, 172276, Note_on_c, 11, 67, 0
13, 172420, Note_on_c, 11, 65, 73
13, 172600, Note_on_c, 11, 65, 0
13, 172608, Note_on_c, 11, 64, 84
13, 173208, Control_c, 11, 1, 107
13, 173212, Control_c, 11, 1, 127
13, 173240, Control_c, 11, 1, 118
13, 173252, Control_c, 11, 1, 92
13, 173256, Control_c, 11, 1, 82
13, 173268, Control_c, 11, 1, 87
13, 173272, Control_c, 11, 1, 95
13, 173296, Control_c, 11, 1, 82
13, 173300, Control_c, 11, 1, 60
13, 173312, Control_c, 11, 1, 35
13, 173316, Control_c, 11, 1, 7
13, 173320, Note_on_c, 11, 64, 0
13, 173328, Control_c, 11, 1, 0
13, 181172, Pitch_bend_c, 11, 7957
13, 181184, Pitch_bend_c, 11, 7489
13, 181196, Pitch_bend_c, 11, 6670
13, 181200, Pitch_bend_c, 11, 5851
13, 181208, Pitch_bend_c, 11, 5032
13, 181216, Pitch_bend_c, 11, 3979
13, 181228, Pitch_bend_c, 11, 3043
13, 181240, Pitch_bend_c, 11, 2107
13, 181244, Pitch_bend_c, 11, 1405
13, 181244, Note_on_c, 11, 67, 102
13, 181248, Pitch_bend_c, 11, 820
13, 181264, Pitch_bend_c, 11, 586
13, 181280, Pitch_bend_c, 11, 820
13, 181288, Pitch_bend_c, 11, 1756
13, 181292, Pitch_bend_c, 11, 3394
13, 181304, Pitch_bend_c, 11, 5734
13, 181312, Pitch_bend_c, 11, 8192
13, 181556, Note_on_c, 11, 67, 0
13, 181636, Note_on_c, 11, 67, 86
13, 181764, Note_on_c, 11, 67, 0
13, 181828, Note_on_c, 11, 67, 95
13, 182100, Note_on_c, 11, 67, 0
13, 182208, Note_on_c, 11, 67, 95
13, 182456, Note_on_c, 11, 67, 0
13, 182588, Note_on_c, 11, 71, 86
13, 182776, Note_on_c, 11, 71, 0
13, 182780, Note_on_c, 11, 72, 95
13, 183076, Note_on_c, 11, 72, 0
13, 183140, Pitch_bend_c, 11, 7489
13, 183152, Pitch_bend_c, 11, 6319
13, 183156, Pitch_bend_c, 11, 5383
13, 183164, Note_on_c, 11, 71, 92
13, 183164, Pitch_bend_c, 11, 4915
13, 183184, Pitch_bend_c, 11, 5383
13, 183188, Pitch_bend_c, 11, 6553
13, 183200, Pitch_bend_c, 11, 8074
13, 183204, Pitch_bend_c, 11, 8192
13, 183524, Note_on_c, 11, 71, 0
13, 183544, Note_on_c, 11, 67, 88
13, 183796, Note_on_c, 11, 67, 0
13, 183932, Note_on_c, 11, 67, 75
13, 184120, Note_on_c, 11, 67, 0
13, 184312, Note_on_c, 11, 67, 87
13, 184384, Pitch_bend_c, 11, 7138
13, 184396, Pitch_bend_c, 11, 4213
13, 184404, Pitch_bend_c, 11, 1288
13, 184412, Pitch_bend_c, 11, 0
13, 184624, Pitch_bend_c, 11, 2341
13, 184632, Pitch_bend_c, 11, 6670
13, 184640, Pitch_bend_c, 11, 8192
13, 184652, Note_on_c, 11, 67, 0
13, 184696, Note_on_c, 11, 64, 90
13, 185072, Control_c, 11, 1, 4
13, 185084, Control_c, 11, 1, 33
13, 185088, Control_c, 11, 1, 66
13, 185092, Control_c, 11, 1, 70
13, 185104, Control_c, 11, 1, 75
13, 185116, Control_c, 11, 1, 79
13, 185124, Control_c, 11, 1, 82
13, 185140, Control_c, 11, 1, 75
13, 185168, Control_c, 11, 1, 68
13, 185172, Control_c, 11, 1, 35
13, 185184, Control_c, 11, 1, 4
13, 185188, Control_c, 11, 1, 0
13, 185260, Note_on_c, 11, 64, 0
13, 186536, Pitch_bend_c, 11, 7489
13, 186544, Pitch_bend_c, 11, 6202
13, 186560, Pitch_bend_c, 11, 4798
13, 186568, Pitch_bend_c, 11, 3277
13, 186584, Pitch_bend_c, 11, 1756
13, 186600, Pitch_bend_c, 11, 235
13, 186608, Pitch_bend_c, 11, 0
13, 186624, Note_on_c, 11, 67, 95
13, 186684, Pitch_bend_c, 11, 118
13, 186692, Pitch_bend_c, 11, 2341
13, 186708, Pitch_bend_c, 11, 5266
13, 186716, Pitch_bend_c, 11, 8192
13, 187204, Note_on_c, 11, 67, 0
13, 187396, Note_on_c, 11, 67, 104
13, 187484, Pitch_bend_c, 11, 7489
13, 187488, Pitch_bend_c, 11, 4096
13, 187504, Pitch_bend_c, 11, 703
13, 187520, Pitch_bend_c, 11, 0
13, 187780, Note_on_c, 11, 67, 0
13, 187780, Note_on_c, 11, 64, 98
13, 187788, Pitch_bend_c, 11, 1639
13, 187796, Pitch_bend_c, 11, 6670
13, 187812, Pitch_bend_c, 11, 8192
13, 188824, Note_on_c, 11, 64, 0
13, 189508, Pitch_bend_c, 11, 7372
13, 189524, Pitch_bend_c, 11, 6436
13, 189540, Pitch_bend_c, 11, 5266
13, 189540, Pitch_bend_c, 11, 4213
13, 189556, Pitch_bend_c, 11, 3160
13, 189572, Pitch_bend_c, 11, 1990
13, 189588, Pitch_bend_c, 11, 1054
13, 189596, Pitch_bend_c, 11, 118
13, 189608, Pitch_bend_c, 11, 0
13, 189708, Note_on_c, 11, 67, 98
13, 189740, Pitch_bend_c, 11, 1
13, 189756, Pitch_bend_c, 11, 937
13, 189772, Pitch_bend_c, 11, 2458
13, 189788, Pitch_bend_c, 11, 4681
13, 189788, Pitch_bend_c, 11, 7723
13, 189808, Pitch_bend_c, 11, 8192
13, 189824, Note_on_c, 11, 67, 0
13, 189924, Note_on_c, 11, 67, 83
13, 190464, Note_on_c, 11, 67, 0
13, 190464, Note_on_c, 11, 65, 88
13, 190832, Note_on_c, 11, 65, 0
13, 190844, Note_on_c, 11, 64, 83
13, 191732, Pitch_bend_c, 11, 7957
13, 191736, Pitch_bend_c, 11, 6904
13, 191740, Pitch_bend_c, 11, 5500
13, 191752, Pitch_bend_c, 11, 4096
13, 191760, Pitch_bend_c, 11, 2692
13, 191772, Pitch_bend_c, 11, 1522
13, 191776, Pitch_bend_c, 11, 703
13, 191788, Pitch_bend_c, 11, 0
13, 191804, Note_on_c, 11, 76, 104
13, 191828, Pitch_bend_c, 11, 820
13, 191832, Pitch_bend_c, 11, 2692
13, 191844, Pitch_bend_c, 11, 5734
13, 191848, Note_on_c, 11, 64, 0
13, 191848, Pitch_bend_c, 11, 8192
13, 192188, Note_on_c, 11, 74, 88
13, 192208, Note_on_c, 11, 76, 0
13, 192260, Note_on_c, 11, 74, 0
13, 192380, Note_on_c, 11, 74, 106
13, 192572, Note_on_c, 11, 72, 84
13, 192588, Note_on_c, 11, 74, 0
13, 192644, Note_on_c, 11, 72, 0
13, 192764, Note_on_c, 11, 72, 102
13, 192956, Note_on_c, 11, 71, 84
13, 192964, Note_on_c, 11, 72, 0
13, 193028, Note_on_c, 11, 71, 0
13, 193128, Pitch_bend_c, 11, 7957
13, 193132, Pitch_bend_c, 11, 6202
13, 193140, Pitch_bend_c, 11, 4447
13, 193148, Note_on_c, 11, 71, 104
13, 193148, Pitch_bend_c, 11, 3043
13, 193156, Pitch_bend_c, 11, 1756
13, 193168, Pitch_bend_c, 11, 937
13, 193172, Pitch_bend_c, 11, 586
13, 193196, Pitch_bend_c, 11, 1171
13, 193204, Pitch_bend_c, 11, 2224
13, 193212, Pitch_bend_c, 11, 3979
13, 193224, Pitch_bend_c, 11, 6670
13, 193228, Pitch_bend_c, 11, 8192
13, 193340, Note_on_c, 11, 67, 88
13, 193360, Note_on_c, 11, 71, 0
13, 193420, Note_on_c, 11, 67, 0
13, 193532, Note_on_c, 11, 65, 100
13, 193916, Note_on_c, 11, 65, 0
13, 193916, Note_on_c, 11, 64, 80
13, 196016, Note_on_c, 11, 64, 0
13, 196016, End_track
14, 0, Start_track
14, 0, MIDI_port, 0
14, 0, Title_t, "Vibraphone"
14, 0, Control_c, 0, 32, 0
14, 0, Control_c, 12, 91, 100
14, 0, Control_c, 12, 93, 80
14, 672, Control_c, 12, 120, 0
14, 768, Control_c, 12, 121, 0
14, 960, Control_c, 12, 100, 0
14, 1056, Control_c, 12, 101, 0
14, 1152, Control_c, 12, 6, 2
14, 39936, Note_on_c, 12, 69, 127
14, 40124, Note_on_c, 12, 69, 0
14, 40128, Note_on_c, 12, 72, 127
14, 41472, Note_on_c, 12, 71, 127
14, 41480, Note_on_c, 12, 72, 0
14, 41664, Note_on_c, 12, 71, 0
14, 41664, Note_on_c, 12, 74, 127
14, 42988, Note_on_c, 12, 74, 0
14, 43008, Note_on_c, 12, 72, 127
14, 43192, Note_on_c, 12, 72, 0
14, 43200, Note_on_c, 12, 76, 127
14, 44544, Note_on_c, 12, 71, 127
14, 44572, Note_on_c, 12, 76, 0
14, 44732, Note_on_c, 12, 71, 0
14, 44736, Note_on_c, 12, 74, 127
14, 46064, Note_on_c, 12, 74, 0
14, 46080, Note_on_c, 12, 69, 127
14, 46268, Note_on_c, 12, 69, 0
14, 46272, Note_on_c, 12, 72, 127
14, 47616, Note_on_c, 12, 71, 127
14, 47624, Note_on_c, 12, 72, 0
14, 47808, Note_on_c, 12, 71, 0
14, 47808, Note_on_c, 12, 74, 127
14, 49132, Note_on_c, 12, 74, 0
14, 49152, Note_on_c, 12, 72, 127
14, 49336, Note_on_c, 12, 72, 0
14, 49344, Note_on_c, 12, 76, 127
14, 50688, Note_on_c, 12, 71, 127
14, 50716, Note_on_c, 12, 76, 0
14, 50876, Note_on_c, 12, 71, 0
14, 50880, Note_on_c, 12, 74, 127
14, 52208, Note_on_c, 12, 74, 0
14, 52224, Note_on_c, 12, 69, 127
14, 52412, Note_on_c, 12, 69, 0
14, 52416, Note_on_c, 12, 72, 127
14, 53760, Note_on_c, 12, 71, 127
14, 53768, Note_on_c, 12, 72, 0
14, 53952, Note_on_c, 12, 71, 0
14, 53952, Note_on_c, 12, 74, 127
14, 55276, Note_on_c, 12, 74, 0
14, 55296, Note_on_c, 12, 72, 127
14, 55480, Note_on_c, 12, 72, 0
14, 55488, Note_on_c, 12, 76, 127
14, 56832, Note_on_c, 12, 71, 127
14, 56860, Note_on_c, 12, 76, 0
14, 57020, Note_on_c, 12, 71, 0
14, 57024, Note_on_c, 12, 74, 127
14, 58352, Note_on_c, 12, 74, 0
14, 119808, Note_on_c, 12, 69, 127
14, 119996, Note_on_c, 12, 69, 0
14, 120000, Note_on_c, 12, 72, 127
14, 121344, Note_on_c, 12, 71, 127
14, 121352, Note_on_c, 12, 72, 0
14, 121536, Note_on_c, 12, 71, 0
14, 121536, Note_on_c, 12, 74, 127
14, 122860, Note_on_c, 12, 74, 0
14, 122880, Note_on_c, 12, 72, 127
14, 123064, Note_on_c, 12, 72, 0
14, 123072, Note_on_c, 12, 76, 127
14, 124416, Note_on_c, 12, 71, 127
14, 124444, Note_on_c, 12, 76, 0
14, 124604, Note_on_c, 12, 71, 0
14, 124608, Note_on_c, 12, 74, 127
14, 125936, Note_on_c, 12, 74, 0
14, 125952, Note_on_c, 12, 69, 127
14, 126140, Note_on_c, 12, 69, 0
14, 126144, Note_on_c, 12, 72, 127
14, 127488, Note_on_c, 12, 71, 127
14, 127496, Note_on_c, 12, 72, 0
14, 127680, Note_on_c, 12, 71, 0
14, 127680, Note_on_c, 12, 74, 127
14, 129004, Note_on_c, 12, 74, 0
14, 129024, Note_on_c, 12, 72, 127
14, 129208, Note_on_c, 12, 72, 0
14, 129216, Note_on_c, 12, 76, 127
14, 130560, Note_on_c, 12, 71, 127
14, 130588, Note_on_c, 12, 76, 0
14, 130748, Note_on_c, 12, 71, 0
14, 130752, Note_on_c, 12, 74, 127
14, 132080, Note_on_c, 12, 74, 0
14, 132096, Note_on_c, 12, 69, 127
14, 132284, Note_on_c, 12, 69, 0
14, 132288, Note_on_c, 12, 72, 127
14, 133632, Note_on_c, 12, 71, 127
14, 133640, Note_on_c, 12, 72, 0
14, 133824, Note_on_c, 12, 71, 0
14, 133824, Note_on_c, 12, 74, 127
14, 135148, Note_on_c, 12, 74, 0
14, 135168, Note_on_c, 12, 72, 127
14, 135352, Note_on_c, 12, 72, 0
14, 135360, Note_on_c, 12, 76, 127
14, 136704, Note_on_c, 12, 71, 127
14, 136732, Note_on_c, 12, 76, 0
14, 136892, Note_on_c, 12, 71, 0
14, 136896, Note_on_c, 12, 74, 127
14, 138224, Note_on_c, 12, 74, 0
14, 138224, End_track
0, 0, End_of_file
