0, 0, Header, 1, 8, 384
1, 0, Start_track
1, 0, Tempo, 487800
1, 0, Time_signature, 4, 2, 24, 8
1, 261120, End_track
2, 0, Start_track
2, 0, Title_t, "Guitar1"
2, 0, Control_c, 0, 7, 127
2, 0, Program_c, 0, 27
2, 4608, Control_c, 0, 7, 127
2, 4608, Program_c, 0, 27
2, 5952, Note_on_c, 0, 40, 100
2, 6336, Note_off_c, 0, 40, 64
2, 6336, Note_on_c, 0, 52, 100
2, 6528, Note_off_c, 0, 52, 64
2, 6528, Note_on_c, 0, 55, 100
2, 6720, Note_off_c, 0, 55, 64
2, 6720, Note_on_c, 0, 46, 100
2, 6912, Note_off_c, 0, 46, 64
2, 6912, Note_on_c, 0, 45, 100
2, 7296, Note_off_c, 0, 45, 64
2, 7296, Note_on_c, 0, 52, 100
2, 7488, Note_off_c, 0, 52, 64
2, 7488, Note_on_c, 0, 40, 100
2, 7872, Note_off_c, 0, 40, 64
2, 7872, Note_on_c, 0, 52, 100
2, 8064, Note_off_c, 0, 52, 64
2, 8064, Note_on_c, 0, 55, 100
2, 8256, Note_off_c, 0, 55, 64
2, 8256, Note_on_c, 0, 46, 100
2, 8448, Note_off_c, 0, 46, 64
2, 8448, Note_on_c, 0, 45, 100
2, 8832, Note_off_c, 0, 45, 64
2, 8832, Note_on_c, 0, 52, 100
2, 9024, Note_off_c, 0, 52, 64
2, 9024, Note_on_c, 0, 40, 100
2, 9408, Note_off_c, 0, 40, 64
2, 9408, Note_on_c, 0, 52, 100
2, 9600, Note_off_c, 0, 52, 64
2, 9600, Note_on_c, 0, 55, 100
2, 9792, Note_off_c, 0, 55, 64
2, 9792, Note_on_c, 0, 46, 100
2, 9984, Note_off_c, 0, 46, 64
2, 9984, Note_on_c, 0, 45, 100
2, 10368, Note_off_c, 0, 45, 64
2, 10368, Note_on_c, 0, 52, 100
2, 10560, Note_off_c, 0, 52, 64
2, 10560, Note_on_c, 0, 40, 100
2, 10944, Note_off_c, 0, 40, 64
2, 10944, Note_on_c, 0, 52, 100
2, 11136, Note_off_c, 0, 52, 64
2, 11136, Note_on_c, 0, 55, 100
2, 11328, Note_off_c, 0, 55, 64
2, 11328, Note_on_c, 0, 46, 100
2, 11520, Note_off_c, 0, 46, 64
2, 11520, Note_on_c, 0, 45, 100
2, 11904, Note_off_c, 0, 45, 64
2, 11904, Note_on_c, 0, 52, 100
2, 12096, Note_off_c, 0, 52, 64
2, 12096, Note_on_c, 0, 40, 100
2, 12480, Note_off_c, 0, 40, 64
2, 12480, Note_on_c, 0, 52, 100
2, 12672, Note_off_c, 0, 52, 64
2, 12672, Note_on_c, 0, 55, 100
2, 12864, Note_off_c, 0, 55, 64
2, 12864, Note_on_c, 0, 46, 100
2, 13056, Note_off_c, 0, 46, 64
2, 13056, Note_on_c, 0, 45, 100
2, 13440, Note_off_c, 0, 45, 64
2, 13440, Note_on_c, 0, 52, 100
2, 13632, Note_off_c, 0, 52, 64
2, 13632, Note_on_c, 0, 40, 100
2, 14016, Note_off_c, 0, 40, 64
2, 14016, Note_on_c, 0, 52, 100
2, 14208, Note_off_c, 0, 52, 64
2, 14208, Note_on_c, 0, 55, 100
2, 14400, Note_off_c, 0, 55, 64
2, 14400, Note_on_c, 0, 46, 100
2, 14592, Note_off_c, 0, 46, 64
2, 14592, Note_on_c, 0, 45, 100
2, 14976, Note_off_c, 0, 45, 64
2, 14976, Note_on_c, 0, 52, 100
2, 15168, Note_off_c, 0, 52, 64
2, 15168, Note_on_c, 0, 40, 100
2, 15552, Note_off_c, 0, 40, 64
2, 15552, Note_on_c, 0, 52, 100
2, 15744, Note_off_c, 0, 52, 64
2, 15744, Note_on_c, 0, 55, 100
2, 15936, Note_off_c, 0, 55, 64
2, 15936, Note_on_c, 0, 46, 100
2, 16128, Note_off_c, 0, 46, 64
2, 16128, Note_on_c, 0, 45, 100
2, 16512, Note_off_c, 0, 45, 64
2, 16512, Note_on_c, 0, 52, 100
2, 16704, Note_off_c, 0, 52, 64
2, 16704, Note_on_c, 0, 40, 100
2, 17088, Note_off_c, 0, 40, 64
2, 17088, Note_on_c, 0, 52, 100
2, 17280, Note_off_c, 0, 52, 64
2, 17280, Note_on_c, 0, 55, 100
2, 17472, Note_off_c, 0, 55, 64
2, 17472, Note_on_c, 0, 46, 100
2, 17664, Note_off_c, 0, 46, 64
2, 17664, Note_on_c, 0, 45, 100
2, 18048, Note_off_c, 0, 45, 64
2, 18048, Note_on_c, 0, 52, 100
2, 18240, Note_off_c, 0, 52, 64
2, 18240, Note_on_c, 0, 40, 100
2, 18624, Note_off_c, 0, 40, 64
2, 18624, Note_on_c, 0, 52, 100
2, 18816, Note_off_c, 0, 52, 64
2, 18816, Note_on_c, 0, 55, 100
2, 19008, Note_off_c, 0, 55, 64
2, 19008, Note_on_c, 0, 46, 100
2, 19200, Note_off_c, 0, 46, 64
2, 19200, Note_on_c, 0, 45, 100
2, 19584, Note_off_c, 0, 45, 64
2, 19584, Note_on_c, 0, 52, 100
2, 19776, Note_off_c, 0, 52, 64
2, 19776, Note_on_c, 0, 40, 100
2, 20160, Note_off_c, 0, 40, 64
2, 20160, Note_on_c, 0, 52, 100
2, 20352, Note_off_c, 0, 52, 64
2, 20352, Note_on_c, 0, 55, 100
2, 20544, Note_off_c, 0, 55, 64
2, 20544, Note_on_c, 0, 46, 100
2, 20736, Note_off_c, 0, 46, 64
2, 20736, Note_on_c, 0, 45, 100
2, 21120, Note_off_c, 0, 45, 64
2, 21120, Note_on_c, 0, 52, 100
2, 21312, Note_off_c, 0, 52, 64
2, 21312, Note_on_c, 0, 40, 100
2, 21696, Note_off_c, 0, 40, 64
2, 21696, Note_on_c, 0, 52, 100
2, 21888, Note_off_c, 0, 52, 64
2, 21888, Note_on_c, 0, 55, 100
2, 22080, Note_off_c, 0, 55, 64
2, 22080, Note_on_c, 0, 46, 100
2, 22272, Note_off_c, 0, 46, 64
2, 22272, Note_on_c, 0, 45, 100
2, 22656, Note_off_c, 0, 45, 64
2, 22656, Note_on_c, 0, 52, 100
2, 22848, Note_off_c, 0, 52, 64
2, 22848, Note_on_c, 0, 40, 100
2, 23232, Note_off_c, 0, 40, 64
2, 23232, Note_on_c, 0, 52, 100
2, 23424, Note_off_c, 0, 52, 64
2, 23424, Note_on_c, 0, 55, 100
2, 23616, Note_off_c, 0, 55, 64
2, 23616, Note_on_c, 0, 46, 100
2, 23808, Note_off_c, 0, 46, 64
2, 23808, Note_on_c, 0, 45, 100
2, 24192, Note_off_c, 0, 45, 64
2, 24192, Note_on_c, 0, 52, 100
2, 24383, Note_off_c, 0, 52, 64
2, 167424, Control_c, 0, 7, 127
2, 167424, Program_c, 0, 27
2, 168768, Note_on_c, 0, 40, 100
2, 169152, Note_off_c, 0, 40, 64
2, 169152, Note_on_c, 0, 52, 100
2, 169344, Note_off_c, 0, 52, 64
2, 169344, Note_on_c, 0, 55, 100
2, 169536, Note_off_c, 0, 55, 64
2, 169536, Note_on_c, 0, 46, 100
2, 169728, Note_off_c, 0, 46, 64
2, 169728, Note_on_c, 0, 45, 100
2, 170112, Note_off_c, 0, 45, 64
2, 170112, Note_on_c, 0, 52, 100
2, 170304, Note_off_c, 0, 52, 64
2, 170304, Note_on_c, 0, 40, 100
2, 170688, Note_off_c, 0, 40, 64
2, 170688, Note_on_c, 0, 52, 100
2, 170880, Note_off_c, 0, 52, 64
2, 170880, Note_on_c, 0, 55, 100
2, 171072, Note_off_c, 0, 55, 64
2, 171072, Note_on_c, 0, 46, 100
2, 171264, Note_off_c, 0, 46, 64
2, 171264, Note_on_c, 0, 45, 100
2, 171648, Note_off_c, 0, 45, 64
2, 171648, Note_on_c, 0, 52, 100
2, 171840, Note_off_c, 0, 52, 64
2, 171840, Note_on_c, 0, 40, 100
2, 172224, Note_off_c, 0, 40, 64
2, 172224, Note_on_c, 0, 52, 100
2, 172416, Note_off_c, 0, 52, 64
2, 172416, Note_on_c, 0, 55, 100
2, 172608, Note_off_c, 0, 55, 64
2, 172608, Note_on_c, 0, 46, 100
2, 172800, Note_off_c, 0, 46, 64
2, 172800, Note_on_c, 0, 45, 100
2, 173184, Note_off_c, 0, 45, 64
2, 173184, Note_on_c, 0, 52, 100
2, 173376, Note_off_c, 0, 52, 64
2, 173376, Note_on_c, 0, 40, 100
2, 173760, Note_off_c, 0, 40, 64
2, 173760, Note_on_c, 0, 52, 100
2, 173952, Note_off_c, 0, 52, 64
2, 173952, Note_on_c, 0, 55, 100
2, 174144, Note_off_c, 0, 55, 64
2, 174144, Note_on_c, 0, 46, 100
2, 174336, Note_off_c, 0, 46, 64
2, 174336, Note_on_c, 0, 45, 100
2, 174720, Note_off_c, 0, 45, 64
2, 174720, Note_on_c, 0, 52, 100
2, 174912, Note_off_c, 0, 52, 64
2, 174912, Note_on_c, 0, 40, 100
2, 175296, Note_off_c, 0, 40, 64
2, 175296, Note_on_c, 0, 52, 100
2, 175488, Note_off_c, 0, 52, 64
2, 175488, Note_on_c, 0, 55, 100
2, 175680, Note_off_c, 0, 55, 64
2, 175680, Note_on_c, 0, 46, 100
2, 175872, Note_off_c, 0, 46, 64
2, 175872, Note_on_c, 0, 45, 100
2, 176256, Note_off_c, 0, 45, 64
2, 176256, Note_on_c, 0, 52, 100
2, 176448, Note_off_c, 0, 52, 64
2, 176448, Note_on_c, 0, 40, 100
2, 176832, Note_off_c, 0, 40, 64
2, 176832, Note_on_c, 0, 52, 100
2, 177024, Note_off_c, 0, 52, 64
2, 177024, Note_on_c, 0, 55, 100
2, 177216, Note_off_c, 0, 55, 64
2, 177216, Note_on_c, 0, 46, 100
2, 177408, Note_off_c, 0, 46, 64
2, 177408, Note_on_c, 0, 45, 100
2, 177792, Note_off_c, 0, 45, 64
2, 177792, Note_on_c, 0, 52, 100
2, 177984, Note_off_c, 0, 52, 64
2, 177984, Note_on_c, 0, 40, 100
2, 178368, Note_off_c, 0, 40, 64
2, 178368, Note_on_c, 0, 52, 100
2, 178560, Note_off_c, 0, 52, 64
2, 178560, Note_on_c, 0, 55, 100
2, 178752, Note_off_c, 0, 55, 64
2, 178752, Note_on_c, 0, 46, 100
2, 178944, Note_off_c, 0, 46, 64
2, 178944, Note_on_c, 0, 45, 100
2, 179328, Note_off_c, 0, 45, 64
2, 179328, Note_on_c, 0, 52, 100
2, 179520, Note_off_c, 0, 52, 64
2, 179520, Note_on_c, 0, 40, 100
2, 179904, Note_off_c, 0, 40, 64
2, 179904, Note_on_c, 0, 52, 100
2, 180096, Note_off_c, 0, 52, 64
2, 180096, Note_on_c, 0, 55, 100
2, 180288, Note_off_c, 0, 55, 64
2, 180288, Note_on_c, 0, 46, 100
2, 180480, Note_off_c, 0, 46, 64
2, 180480, Note_on_c, 0, 45, 100
2, 180864, Note_off_c, 0, 45, 64
2, 180864, Note_on_c, 0, 52, 100
2, 181056, Note_off_c, 0, 52, 64
2, 225792, Control_c, 0, 7, 127
2, 225792, Program_c, 0, 27
2, 227136, Note_on_c, 0, 40, 100
2, 227520, Note_off_c, 0, 40, 64
2, 227520, Note_on_c, 0, 52, 100
2, 227712, Note_off_c, 0, 52, 64
2, 227712, Note_on_c, 0, 55, 100
2, 227904, Note_off_c, 0, 55, 64
2, 227904, Note_on_c, 0, 46, 100
2, 228096, Note_off_c, 0, 46, 64
2, 228096, Note_on_c, 0, 45, 100
2, 228480, Note_off_c, 0, 45, 64
2, 228480, Note_on_c, 0, 52, 100
2, 228672, Note_off_c, 0, 52, 64
2, 228672, Note_on_c, 0, 40, 100
2, 229056, Note_off_c, 0, 40, 64
2, 229056, Note_on_c, 0, 52, 100
2, 229248, Note_off_c, 0, 52, 64
2, 229248, Note_on_c, 0, 55, 100
2, 229440, Note_off_c, 0, 55, 64
2, 229440, Note_on_c, 0, 46, 100
2, 229632, Note_off_c, 0, 46, 64
2, 229632, Note_on_c, 0, 45, 100
2, 230016, Note_off_c, 0, 45, 64
2, 230016, Note_on_c, 0, 52, 100
2, 230208, Note_off_c, 0, 52, 64
2, 230208, Note_on_c, 0, 40, 100
2, 230592, Note_off_c, 0, 40, 64
2, 230592, Note_on_c, 0, 52, 100
2, 230784, Note_off_c, 0, 52, 64
2, 230784, Note_on_c, 0, 55, 100
2, 230976, Note_off_c, 0, 55, 64
2, 230976, Note_on_c, 0, 46, 100
2, 231168, Note_off_c, 0, 46, 64
2, 231168, Note_on_c, 0, 45, 100
2, 231552, Note_off_c, 0, 45, 64
2, 231552, Note_on_c, 0, 52, 100
2, 231744, Note_off_c, 0, 52, 64
2, 231744, Note_on_c, 0, 40, 100
2, 232128, Note_off_c, 0, 40, 64
2, 232128, Note_on_c, 0, 52, 100
2, 232320, Note_off_c, 0, 52, 64
2, 232320, Note_on_c, 0, 55, 100
2, 232512, Note_off_c, 0, 55, 64
2, 232512, Note_on_c, 0, 46, 100
2, 232704, Note_off_c, 0, 46, 64
2, 232704, Note_on_c, 0, 45, 100
2, 233088, Note_off_c, 0, 45, 64
2, 233088, Note_on_c, 0, 52, 100
2, 233280, Note_off_c, 0, 52, 64
2, 233280, Note_on_c, 0, 40, 100
2, 233664, Note_off_c, 0, 40, 64
2, 233664, Note_on_c, 0, 52, 100
2, 233856, Note_off_c, 0, 52, 64
2, 233856, Note_on_c, 0, 55, 100
2, 234048, Note_off_c, 0, 55, 64
2, 234048, Note_on_c, 0, 46, 100
2, 234240, Note_off_c, 0, 46, 64
2, 234240, Note_on_c, 0, 45, 100
2, 234624, Note_off_c, 0, 45, 64
2, 234624, Note_on_c, 0, 52, 100
2, 234816, Note_off_c, 0, 52, 64
2, 234816, Note_on_c, 0, 40, 100
2, 235200, Note_off_c, 0, 40, 64
2, 235200, Note_on_c, 0, 52, 100
2, 235392, Note_off_c, 0, 52, 64
2, 235392, Note_on_c, 0, 55, 100
2, 235584, Note_off_c, 0, 55, 64
2, 235584, Note_on_c, 0, 46, 100
2, 235776, Note_off_c, 0, 46, 64
2, 235776, Note_on_c, 0, 45, 100
2, 236160, Note_off_c, 0, 45, 64
2, 236160, Note_on_c, 0, 52, 100
2, 236352, Note_off_c, 0, 52, 64
2, 236352, Note_on_c, 0, 40, 100
2, 236736, Note_off_c, 0, 40, 64
2, 236736, Note_on_c, 0, 52, 100
2, 236928, Note_off_c, 0, 52, 64
2, 236928, Note_on_c, 0, 55, 100
2, 237120, Note_off_c, 0, 55, 64
2, 237120, Note_on_c, 0, 46, 100
2, 237312, Note_off_c, 0, 46, 64
2, 237312, Note_on_c, 0, 45, 100
2, 237696, Note_off_c, 0, 45, 64
2, 237696, Note_on_c, 0, 52, 100
2, 237888, Note_off_c, 0, 52, 64
2, 237888, Note_on_c, 0, 40, 100
2, 238272, Note_off_c, 0, 40, 64
2, 238272, Note_on_c, 0, 52, 100
2, 238464, Note_off_c, 0, 52, 64
2, 238464, Note_on_c, 0, 55, 100
2, 238656, Note_off_c, 0, 55, 64
2, 238656, Note_on_c, 0, 46, 100
2, 238848, Note_off_c, 0, 46, 64
2, 238848, Note_on_c, 0, 45, 100
2, 239232, Note_off_c, 0, 45, 64
2, 239232, Note_on_c, 0, 52, 100
2, 239424, Note_off_c, 0, 52, 64
2, 239424, Note_on_c, 0, 40, 100
2, 239808, Note_off_c, 0, 40, 64
2, 239808, Note_on_c, 0, 52, 100
2, 240000, Note_off_c, 0, 52, 64
2, 240000, Note_on_c, 0, 55, 100
2, 240192, Note_off_c, 0, 55, 64
2, 240192, Note_on_c, 0, 46, 100
2, 240384, Note_off_c, 0, 46, 64
2, 240384, Note_on_c, 0, 45, 100
2, 240768, Note_off_c, 0, 45, 64
2, 240768, Note_on_c, 0, 52, 100
2, 240960, Note_off_c, 0, 52, 64
2, 240960, Note_on_c, 0, 40, 100
2, 241344, Note_off_c, 0, 40, 64
2, 241344, Note_on_c, 0, 52, 100
2, 241536, Note_off_c, 0, 52, 64
2, 241536, Note_on_c, 0, 55, 100
2, 241728, Note_off_c, 0, 55, 64
2, 241728, Note_on_c, 0, 46, 100
2, 241920, Note_off_c, 0, 46, 64
2, 241920, Note_on_c, 0, 45, 100
2, 242304, Note_off_c, 0, 45, 64
2, 242304, Note_on_c, 0, 52, 100
2, 242496, Note_off_c, 0, 52, 64
2, 242496, Note_on_c, 0, 40, 100
2, 242880, Note_off_c, 0, 40, 64
2, 242880, Note_on_c, 0, 52, 100
2, 243072, Note_off_c, 0, 52, 64
2, 243072, Note_on_c, 0, 55, 100
2, 243264, Note_off_c, 0, 55, 64
2, 243264, Note_on_c, 0, 46, 100
2, 243456, Note_off_c, 0, 46, 64
2, 243456, Note_on_c, 0, 45, 100
2, 243840, Note_off_c, 0, 45, 64
2, 243840, Note_on_c, 0, 52, 100
2, 244032, Note_off_c, 0, 52, 64
2, 244032, Note_on_c, 0, 40, 100
2, 244416, Note_off_c, 0, 40, 64
2, 244416, Note_on_c, 0, 52, 100
2, 244608, Note_off_c, 0, 52, 64
2, 244608, Note_on_c, 0, 55, 100
2, 244800, Note_off_c, 0, 55, 64
2, 244800, Note_on_c, 0, 46, 100
2, 244992, Note_off_c, 0, 46, 64
2, 244992, Note_on_c, 0, 45, 100
2, 245376, Note_off_c, 0, 45, 64
2, 245376, Note_on_c, 0, 52, 100
2, 245567, Note_off_c, 0, 52, 64
2, 245568, Note_on_c, 0, 40, 100
2, 245952, Note_off_c, 0, 40, 64
2, 245952, Note_on_c, 0, 52, 100
2, 246144, Note_off_c, 0, 52, 64
2, 246144, Note_on_c, 0, 55, 100
2, 246336, Note_off_c, 0, 55, 64
2, 246336, Note_on_c, 0, 46, 100
2, 246528, Note_off_c, 0, 46, 64
2, 246528, Note_on_c, 0, 45, 100
2, 246912, Note_off_c, 0, 45, 64
2, 246912, Note_on_c, 0, 52, 100
2, 247103, Note_off_c, 0, 52, 64
2, 247104, Note_on_c, 0, 40, 100
2, 247488, Note_off_c, 0, 40, 64
2, 247488, Note_on_c, 0, 52, 100
2, 247680, Note_off_c, 0, 52, 64
2, 247680, Note_on_c, 0, 55, 100
2, 247872, Note_off_c, 0, 55, 64
2, 247872, Note_on_c, 0, 46, 100
2, 248064, Note_off_c, 0, 46, 64
2, 248064, Note_on_c, 0, 45, 100
2, 248448, Note_off_c, 0, 45, 64
2, 248448, Note_on_c, 0, 52, 100
2, 248640, Note_off_c, 0, 52, 64
2, 248640, Note_on_c, 0, 40, 100
2, 249024, Note_off_c, 0, 40, 64
2, 249024, Note_on_c, 0, 52, 95
2, 249216, Note_off_c, 0, 52, 64
2, 249216, Note_on_c, 0, 55, 94
2, 249408, Note_off_c, 0, 55, 64
2, 249408, Note_on_c, 0, 46, 92
2, 249600, Note_off_c, 0, 46, 64
2, 249600, Note_on_c, 0, 45, 90
2, 249984, Note_off_c, 0, 45, 64
2, 249984, Note_on_c, 0, 52, 87
2, 250176, Note_off_c, 0, 52, 64
2, 250176, Note_on_c, 0, 40, 86
2, 250560, Note_off_c, 0, 40, 64
2, 250560, Note_on_c, 0, 52, 83
2, 250752, Note_off_c, 0, 52, 64
2, 250752, Note_on_c, 0, 55, 81
2, 250944, Note_off_c, 0, 55, 64
2, 250944, Note_on_c, 0, 46, 80
2, 251136, Note_off_c, 0, 46, 64
2, 251136, Note_on_c, 0, 45, 78
2, 251520, Note_off_c, 0, 45, 64
2, 251520, Note_on_c, 0, 52, 75
2, 251712, Note_off_c, 0, 52, 64
2, 251712, Note_on_c, 0, 40, 74
2, 252096, Note_off_c, 0, 40, 64
2, 252096, Note_on_c, 0, 52, 71
2, 252288, Note_off_c, 0, 52, 64
2, 252288, Note_on_c, 0, 55, 69
2, 252480, Note_off_c, 0, 55, 64
2, 252480, Note_on_c, 0, 46, 68
2, 252672, Note_off_c, 0, 46, 64
2, 252672, Note_on_c, 0, 45, 66
2, 253056, Note_off_c, 0, 45, 64
2, 253056, Note_on_c, 0, 52, 63
2, 253248, Note_off_c, 0, 52, 64
2, 253248, Note_on_c, 0, 40, 62
2, 253632, Note_off_c, 0, 40, 64
2, 253632, Note_on_c, 0, 52, 59
2, 253824, Note_off_c, 0, 52, 64
2, 253824, Note_on_c, 0, 55, 57
2, 254016, Note_off_c, 0, 55, 64
2, 254016, Note_on_c, 0, 46, 56
2, 254208, Note_off_c, 0, 46, 64
2, 254208, Note_on_c, 0, 45, 54
2, 254592, Note_off_c, 0, 45, 64
2, 254592, Note_on_c, 0, 52, 51
2, 254784, Note_off_c, 0, 52, 64
2, 254784, Note_on_c, 0, 40, 50
2, 255168, Note_off_c, 0, 40, 64
2, 255168, Note_on_c, 0, 52, 47
2, 255360, Note_off_c, 0, 52, 64
2, 255360, Note_on_c, 0, 55, 45
2, 255552, Note_off_c, 0, 55, 64
2, 255552, Note_on_c, 0, 46, 43
2, 255744, Note_off_c, 0, 46, 64
2, 255744, Note_on_c, 0, 45, 42
2, 256128, Note_off_c, 0, 45, 64
2, 256128, Note_on_c, 0, 52, 39
2, 256320, Note_off_c, 0, 52, 64
2, 256320, Note_on_c, 0, 40, 37
2, 256704, Note_off_c, 0, 40, 64
2, 256704, Note_on_c, 0, 52, 34
2, 256896, Note_off_c, 0, 52, 64
2, 256896, Note_on_c, 0, 55, 33
2, 257088, Note_off_c, 0, 55, 64
2, 257088, Note_on_c, 0, 46, 31
2, 257280, Note_off_c, 0, 46, 64
2, 257280, Note_on_c, 0, 45, 30
2, 257664, Note_off_c, 0, 45, 64
2, 257664, Note_on_c, 0, 52, 27
2, 257856, Note_off_c, 0, 52, 64
2, 257856, Note_on_c, 0, 40, 25
2, 258240, Note_off_c, 0, 40, 64
2, 258240, Note_on_c, 0, 52, 22
2, 258432, Note_off_c, 0, 52, 64
2, 258432, Note_on_c, 0, 55, 21
2, 258624, Note_off_c, 0, 55, 64
2, 258624, Note_on_c, 0, 46, 19
2, 258816, Note_off_c, 0, 46, 64
2, 258816, Note_on_c, 0, 45, 18
2, 259200, Note_off_c, 0, 45, 64
2, 259200, Note_on_c, 0, 52, 15
2, 259392, Note_off_c, 0, 52, 64
2, 259392, Note_on_c, 0, 40, 13
2, 259776, Note_off_c, 0, 40, 64
2, 259776, Note_on_c, 0, 52, 10
2, 259968, Note_off_c, 0, 52, 64
2, 259968, Note_on_c, 0, 55, 9
2, 260160, Note_off_c, 0, 55, 64
2, 260160, Note_on_c, 0, 46, 7
2, 260352, Note_off_c, 0, 46, 64
2, 260352, Note_on_c, 0, 45, 6
2, 260736, Note_off_c, 0, 45, 64
2, 260736, Note_on_c, 0, 52, 3
2, 260928, Note_off_c, 0, 52, 64
2, 260928, Note_on_c, 0, 40, 1
2, 261312, Note_off_c, 0, 40, 64
2, 261376, End_track
3, 0, Start_track
3, 0, Title_t, "Guitar2"
3, 0, Control_c, 12, 7, 127
3, 0, Program_c, 12, 29
3, 10752, Control_c, 12, 7, 127
3, 10752, Program_c, 12, 29
3, 12096, Note_on_c, 12, 52, 100
3, 12096, Note_on_c, 12, 55, 100
3, 12096, Note_on_c, 12, 59, 100
3, 12096, Note_on_c, 12, 64, 100
3, 15360, Note_off_c, 12, 64, 64
3, 15360, Note_off_c, 12, 59, 64
3, 15360, Note_off_c, 12, 55, 64
3, 15360, Note_off_c, 12, 52, 64
3, 16896, Control_c, 12, 7, 127
3, 16896, Program_c, 12, 29
3, 18240, Note_on_c, 12, 52, 100
3, 18240, Note_on_c, 12, 55, 100
3, 18240, Note_on_c, 12, 59, 100
3, 18240, Note_on_c, 12, 64, 100
3, 21504, Note_off_c, 12, 64, 64
3, 21504, Note_off_c, 12, 59, 64
3, 21504, Note_off_c, 12, 55, 64
3, 21504, Note_off_c, 12, 52, 64
3, 98304, Control_c, 12, 7, 127
3, 98304, Program_c, 12, 29
3, 99648, Note_on_c, 12, 71, 100
3, 99648, Note_on_c, 12, 67, 100
3, 100032, Note_off_c, 12, 67, 64
3, 100032, Note_off_c, 12, 71, 64
3, 100032, Note_on_c, 12, 64, 100
3, 100224, Note_off_c, 12, 64, 64
3, 100224, Note_on_c, 12, 67, 100
3, 100416, Note_off_c, 12, 67, 64
3, 100416, Note_on_c, 12, 69, 100
3, 100608, Note_off_c, 12, 69, 64
3, 100608, Note_on_c, 12, 69, 100
3, 100704, Note_off_c, 12, 69, 64
3, 100704, Note_on_c, 12, 67, 100
3, 100800, Note_off_c, 12, 67, 64
3, 100800, Note_on_c, 12, 64, 100
3, 100992, Note_off_c, 12, 64, 64
3, 100992, Note_on_c, 12, 67, 100
3, 101184, Note_off_c, 12, 67, 64
3, 102720, Note_on_c, 12, 76, 127
3, 102720, Note_on_c, 12, 71, 127
3, 103296, Note_off_c, 12, 71, 64
3, 103296, Note_off_c, 12, 76, 64
3, 107520, Control_c, 12, 7, 127
3, 107520, Program_c, 12, 29
3, 107904, Note_on_c, 12, 71, 100
3, 107904, Note_on_c, 12, 67, 100
3, 108288, Note_off_c, 12, 67, 64
3, 108288, Note_off_c, 12, 71, 64
3, 108288, Note_on_c, 12, 71, 100
3, 108288, Note_on_c, 12, 67, 100
3, 108672, Note_off_c, 12, 67, 64
3, 108672, Note_off_c, 12, 71, 64
3, 108672, Note_on_c, 12, 71, 100
3, 108672, Note_on_c, 12, 67, 100
3, 108864, Note_off_c, 12, 67, 64
3, 108864, Note_off_c, 12, 71, 64
3, 108864, Note_on_c, 12, 64, 100
3, 109440, Note_off_c, 12, 64, 64
3, 133632, Control_c, 12, 7, 127
3, 133632, Program_c, 12, 29
3, 133632, Note_on_c, 12, 74, 100
3, 133824, Note_off_c, 12, 74, 64
3, 133824, Note_on_c, 12, 74, 100
3, 134016, Note_off_c, 12, 74, 64
3, 134016, Note_on_c, 12, 74, 100
3, 134208, Note_off_c, 12, 74, 64
3, 134208, Note_on_c, 12, 71, 100
3, 134400, Note_off_c, 12, 71, 64
3, 134592, Note_on_c, 12, 71, 100
3, 134976, Note_off_c, 12, 71, 64
3, 135360, Note_on_c, 12, 71, 100
3, 135552, Note_off_c, 12, 71, 64
3, 135552, Note_on_c, 12, 71, 100
3, 135744, Note_off_c, 12, 71, 64
3, 135744, Note_on_c, 12, 69, 100
3, 135936, Note_off_c, 12, 69, 64
3, 135936, Note_on_c, 12, 74, 100
3, 136040, Pitch_bend_c, 12, 8242
3, 136041, Pitch_bend_c, 12, 8342
3, 136042, Pitch_bend_c, 12, 8392
3, 136046, Pitch_bend_c, 12, 8608
3, 136047, Pitch_bend_c, 12, 9041
3, 136050, Pitch_bend_c, 12, 9258
3, 136054, Pitch_bend_c, 12, 9512
3, 136056, Pitch_bend_c, 12, 10020
3, 136057, Pitch_bend_c, 12, 10274
3, 136062, Pitch_bend_c, 12, 10504
3, 136063, Pitch_bend_c, 12, 10966
3, 136065, Pitch_bend_c, 12, 11197
3, 136070, Pitch_bend_c, 12, 11412
3, 136071, Pitch_bend_c, 12, 11844
3, 136073, Pitch_bend_c, 12, 12060
3, 136077, Pitch_bend_c, 12, 12230
3, 136078, Pitch_bend_c, 12, 12570
3, 136079, Pitch_bend_c, 12, 12740
3, 136083, Pitch_bend_c, 12, 12975
3, 136084, Pitch_bend_c, 12, 13681
3, 136084, Pitch_bend_c, 12, 13445
3, 136090, Pitch_bend_c, 12, 13964
3, 136091, Pitch_bend_c, 12, 14531
3, 136093, Pitch_bend_c, 12, 14815
3, 136098, Pitch_bend_c, 12, 15179
3, 136099, Pitch_bend_c, 12, 15907
3, 136101, Pitch_bend_c, 12, 16271
3, 136105, Pitch_bend_c, 12, 16299
3, 136107, Pitch_bend_c, 12, 16355
3, 136109, Pitch_bend_c, 12, 16383
3, 136320, Note_off_c, 12, 74, 64
3, 136497, Pitch_bend_c, 12, 16016
3, 136498, Pitch_bend_c, 12, 15282
3, 136500, Pitch_bend_c, 12, 14916
3, 136505, Pitch_bend_c, 12, 14504
3, 136507, Pitch_bend_c, 12, 13681
3, 136508, Pitch_bend_c, 12, 13270
3, 136513, Pitch_bend_c, 12, 12546
3, 136514, Pitch_bend_c, 12, 11098
3, 136515, Pitch_bend_c, 12, 10374
3, 136519, Pitch_bend_c, 12, 9828
3, 136520, Pitch_bend_c, 12, 8737
3, 136521, Pitch_bend_c, 12, 8192
3, 136704, Note_on_c, 12, 67, 100
3, 136800, Note_off_c, 12, 67, 64
3, 136800, Note_on_c, 12, 69, 100
3, 136896, Note_off_c, 12, 69, 64
3, 136896, Note_on_c, 12, 69, 100
3, 136992, Note_off_c, 12, 69, 64
3, 136992, Note_on_c, 12, 69, 100
3, 137088, Note_off_c, 12, 69, 64
3, 137088, Note_on_c, 12, 69, 100
3, 137184, Note_off_c, 12, 69, 64
3, 137184, Note_on_c, 12, 67, 100
3, 137280, Note_off_c, 12, 67, 64
3, 137280, Note_on_c, 12, 67, 100
3, 137376, Note_off_c, 12, 67, 64
3, 137376, Note_on_c, 12, 67, 100
3, 137472, Note_off_c, 12, 67, 64
3, 137472, Note_on_c, 12, 67, 100
3, 137568, Note_off_c, 12, 67, 64
3, 137568, Note_on_c, 12, 69, 100
3, 137664, Note_off_c, 12, 69, 64
3, 137664, Note_on_c, 12, 69, 100
3, 137760, Note_off_c, 12, 69, 64
3, 137760, Note_on_c, 12, 69, 100
3, 137856, Note_off_c, 12, 69, 64
3, 137856, Note_on_c, 12, 69, 100
3, 137952, Note_off_c, 12, 69, 64
3, 137952, Note_on_c, 12, 67, 100
3, 138048, Note_off_c, 12, 67, 64
3, 138048, Note_on_c, 12, 67, 100
3, 138144, Note_off_c, 12, 67, 64
3, 138144, Note_on_c, 12, 67, 100
3, 138240, Note_off_c, 12, 67, 64
3, 138240, Note_on_c, 12, 69, 100
3, 138336, Note_off_c, 12, 69, 64
3, 138336, Note_on_c, 12, 67, 100
3, 138432, Note_off_c, 12, 67, 64
3, 138432, Note_on_c, 12, 64, 100
3, 138624, Note_off_c, 12, 64, 64
3, 138624, Note_on_c, 12, 64, 100
3, 138720, Note_off_c, 12, 64, 64
3, 138720, Note_on_c, 12, 62, 100
3, 138816, Note_off_c, 12, 62, 64
3, 138816, Note_on_c, 12, 59, 100
3, 139008, Note_off_c, 12, 59, 64
3, 139008, Note_on_c, 12, 59, 100
3, 139104, Note_off_c, 12, 59, 64
3, 139104, Note_on_c, 12, 57, 100
3, 139200, Note_off_c, 12, 57, 64
3, 139200, Note_on_c, 12, 55, 100
3, 139392, Note_off_c, 12, 55, 64
3, 139392, Note_on_c, 12, 52, 100
3, 139420, Control_c, 12, 1, 1
3, 139423, Control_c, 12, 1, 3
3, 139425, Control_c, 12, 1, 4
3, 139432, Control_c, 12, 1, 5
3, 139436, Control_c, 12, 1, 9
3, 139436, Control_c, 12, 1, 8
3, 139450, Control_c, 12, 1, 10
3, 139451, Control_c, 12, 1, 12
3, 139456, Control_c, 12, 1, 13
3, 139467, Control_c, 12, 1, 15
3, 139469, Control_c, 12, 1, 16
3, 139480, Control_c, 12, 1, 17
3, 139494, Control_c, 12, 1, 18
3, 139500, Control_c, 12, 1, 19
3, 139511, Control_c, 12, 1, 20
3, 139522, Control_c, 12, 1, 21
3, 139525, Control_c, 12, 1, 22
3, 139527, Control_c, 12, 1, 23
3, 139541, Control_c, 12, 1, 25
3, 139544, Control_c, 12, 1, 26
3, 139557, Control_c, 12, 1, 28
3, 139569, Control_c, 12, 1, 29
3, 139571, Control_c, 12, 1, 30
3, 139579, Control_c, 12, 1, 31
3, 139584, Note_off_c, 12, 52, 64
3, 139584, Note_on_c, 12, 52, 100
3, 139591, Control_c, 12, 1, 32
3, 139612, Control_c, 12, 1, 33
3, 139626, Control_c, 12, 1, 34
3, 139637, Control_c, 12, 1, 35
3, 139656, Control_c, 12, 1, 36
3, 139667, Control_c, 12, 1, 37
3, 139680, Control_c, 12, 1, 38
3, 139686, Control_c, 12, 1, 39
3, 139699, Control_c, 12, 1, 40
3, 139713, Control_c, 12, 1, 41
3, 139757, Control_c, 12, 1, 42
3, 139776, Note_off_c, 12, 52, 64
3, 139829, Control_c, 12, 1, 36
3, 139829, Control_c, 12, 1, 40
3, 139833, Control_c, 12, 1, 34
3, 139843, Control_c, 12, 1, 32
3, 139845, Control_c, 12, 1, 28
3, 139848, Control_c, 12, 1, 26
3, 139858, Control_c, 12, 1, 22
3, 139862, Control_c, 12, 1, 15
3, 139865, Control_c, 12, 1, 12
3, 139872, Note_on_c, 12, 76, 100
3, 139875, Control_c, 12, 1, 9
3, 139878, Control_c, 12, 1, 3
3, 139880, Control_c, 12, 1, 0
3, 139968, Note_off_c, 12, 76, 64
3, 139968, Note_on_c, 12, 76, 100
3, 140064, Note_off_c, 12, 76, 64
3, 140064, Note_on_c, 12, 76, 100
3, 140160, Note_off_c, 12, 76, 64
3, 140256, Note_on_c, 12, 76, 100
3, 140352, Note_off_c, 12, 76, 64
3, 140352, Note_on_c, 12, 76, 100
3, 140448, Note_off_c, 12, 76, 64
3, 140448, Note_on_c, 12, 76, 100
3, 140544, Note_off_c, 12, 76, 64
3, 140640, Note_on_c, 12, 76, 100
3, 140736, Note_off_c, 12, 76, 64
3, 140736, Note_on_c, 12, 76, 100
3, 140832, Note_off_c, 12, 76, 64
3, 140832, Note_on_c, 12, 76, 100
3, 140928, Note_off_c, 12, 76, 64
3, 141024, Note_on_c, 12, 76, 100
3, 141120, Note_off_c, 12, 76, 64
3, 141120, Note_on_c, 12, 76, 100
3, 141216, Note_off_c, 12, 76, 64
3, 141216, Note_on_c, 12, 76, 100
3, 141312, Note_off_c, 12, 76, 64
3, 141408, Note_on_c, 12, 76, 100
3, 141504, Note_off_c, 12, 76, 64
3, 141504, Note_on_c, 12, 76, 100
3, 141600, Note_off_c, 12, 76, 64
3, 141600, Note_on_c, 12, 76, 100
3, 141648, Note_off_c, 12, 76, 64
3, 141648, Note_on_c, 12, 79, 100
3, 141696, Note_off_c, 12, 79, 64
3, 141696, Note_on_c, 12, 76, 100
3, 141888, Note_off_c, 12, 76, 64
3, 141888, Note_on_c, 12, 76, 100
3, 141936, Note_off_c, 12, 76, 64
3, 141936, Note_on_c, 12, 79, 100
3, 141984, Note_off_c, 12, 79, 64
3, 141984, Note_on_c, 12, 76, 100
3, 142080, Note_off_c, 12, 76, 64
3, 142080, Note_on_c, 12, 76, 100
3, 142128, Note_off_c, 12, 76, 64
3, 142128, Note_on_c, 12, 79, 100
3, 142176, Note_off_c, 12, 79, 64
3, 142176, Note_on_c, 12, 76, 100
3, 142272, Note_off_c, 12, 76, 64
3, 142272, Note_on_c, 12, 76, 100
3, 142368, Note_off_c, 12, 76, 64
3, 142368, Note_on_c, 12, 79, 100
3, 142464, Note_off_c, 12, 79, 64
3, 142464, Note_on_c, 12, 76, 100
3, 142560, Note_off_c, 12, 76, 64
3, 142560, Note_on_c, 12, 76, 100
3, 142656, Note_off_c, 12, 76, 64
3, 142656, Note_on_c, 12, 78, 100
3, 142752, Note_off_c, 12, 78, 64
3, 142752, Note_on_c, 12, 78, 100
3, 142848, Note_off_c, 12, 78, 64
3, 142848, Note_on_c, 12, 81, 100
3, 142944, Note_off_c, 12, 81, 64
3, 142944, Note_on_c, 12, 78, 100
3, 143040, Note_off_c, 12, 78, 64
3, 143040, Note_on_c, 12, 74, 100
3, 143136, Note_off_c, 12, 74, 64
3, 143136, Note_on_c, 12, 81, 100
3, 143232, Note_off_c, 12, 81, 64
3, 143232, Note_on_c, 12, 78, 100
3, 143328, Note_off_c, 12, 78, 64
3, 143328, Note_on_c, 12, 74, 100
3, 143424, Note_off_c, 12, 74, 64
3, 143424, Note_on_c, 12, 81, 100
3, 143520, Note_off_c, 12, 81, 64
3, 143520, Note_on_c, 12, 78, 100
3, 143616, Note_off_c, 12, 78, 64
3, 143616, Note_on_c, 12, 83, 100
3, 143712, Note_off_c, 12, 83, 64
3, 143712, Note_on_c, 12, 79, 100
3, 143808, Note_off_c, 12, 79, 64
3, 143808, Note_on_c, 12, 76, 100
3, 143904, Note_off_c, 12, 76, 64
3, 143904, Note_on_c, 12, 83, 100
3, 144000, Note_off_c, 12, 83, 64
3, 144000, Note_on_c, 12, 79, 100
3, 144096, Note_off_c, 12, 79, 64
3, 144096, Note_on_c, 12, 76, 100
3, 144192, Note_off_c, 12, 76, 64
3, 144192, Note_on_c, 12, 83, 100
3, 144288, Note_off_c, 12, 83, 64
3, 144288, Note_on_c, 12, 79, 100
3, 144384, Note_off_c, 12, 79, 64
3, 144384, Note_on_c, 12, 85, 100
3, 144480, Note_off_c, 12, 85, 64
3, 144480, Note_on_c, 12, 81, 100
3, 144576, Note_off_c, 12, 81, 64
3, 144576, Note_on_c, 12, 76, 100
3, 144672, Note_off_c, 12, 76, 64
3, 144672, Note_on_c, 12, 85, 100
3, 144768, Note_off_c, 12, 85, 64
3, 144768, Note_on_c, 12, 81, 100
3, 144864, Note_off_c, 12, 81, 64
3, 144864, Note_on_c, 12, 76, 100
3, 144912, Note_off_c, 12, 76, 64
3, 144912, Note_on_c, 12, 85, 100
3, 144960, Note_off_c, 12, 85, 64
3, 144960, Note_on_c, 12, 81, 100
3, 145056, Note_off_c, 12, 81, 64
3, 145056, Note_on_c, 12, 76, 100
3, 145152, Note_off_c, 12, 76, 64
3, 145728, Note_on_c, 12, 68, 100
3, 146304, Note_off_c, 12, 68, 64
3, 146304, Note_on_c, 12, 68, 100
3, 146880, Note_off_c, 12, 68, 64
3, 146880, Note_on_c, 12, 68, 100
3, 147456, Note_off_c, 12, 68, 64
3, 147456, Note_on_c, 12, 68, 100
3, 147840, Note_off_c, 12, 68, 64
3, 147840, Note_on_c, 12, 68, 100
3, 148224, Note_off_c, 12, 68, 64
3, 148224, Note_on_c, 12, 62, 100
3, 148320, Note_off_c, 12, 62, 64
3, 148320, Note_on_c, 12, 59, 100
3, 148608, Note_off_c, 12, 59, 64
3, 148608, Note_on_c, 12, 57, 100
3, 148704, Note_off_c, 12, 57, 64
3, 148704, Note_on_c, 12, 59, 100
3, 148800, Note_off_c, 12, 59, 64
3, 148800, Note_on_c, 12, 62, 100
3, 148896, Note_off_c, 12, 62, 64
3, 148896, Note_on_c, 12, 69, 100
3, 149376, Note_off_c, 12, 69, 64
3, 149376, Note_on_c, 12, 69, 100
3, 149472, Note_off_c, 12, 69, 64
3, 149472, Note_on_c, 12, 67, 100
3, 149568, Note_off_c, 12, 67, 64
3, 149568, Note_on_c, 12, 66, 100
3, 149664, Note_off_c, 12, 66, 64
3, 149664, Note_on_c, 12, 64, 100
3, 149760, Note_off_c, 12, 64, 64
3, 149760, Note_on_c, 12, 67, 100
3, 149856, Note_off_c, 12, 67, 64
3, 149856, Note_on_c, 12, 66, 100
3, 149952, Note_off_c, 12, 66, 64
3, 149952, Note_on_c, 12, 64, 100
3, 150048, Note_off_c, 12, 64, 64
3, 150048, Note_on_c, 12, 66, 100
3, 150144, Note_off_c, 12, 66, 64
3, 150144, Note_on_c, 12, 64, 100
3, 150240, Note_off_c, 12, 64, 64
3, 150240, Note_on_c, 12, 62, 100
3, 150336, Note_off_c, 12, 62, 64
3, 150336, Note_on_c, 12, 59, 100
3, 150432, Note_off_c, 12, 59, 64
3, 150432, Note_on_c, 12, 62, 100
3, 150528, Note_off_c, 12, 62, 64
3, 150528, Note_on_c, 12, 64, 100
3, 150624, Note_off_c, 12, 64, 64
3, 150624, Note_on_c, 12, 62, 100
3, 150720, Note_off_c, 12, 62, 64
3, 150720, Note_on_c, 12, 59, 100
3, 150816, Note_off_c, 12, 59, 64
3, 150816, Note_on_c, 12, 57, 100
3, 150912, Note_off_c, 12, 57, 64
3, 150912, Note_on_c, 12, 54, 100
3, 151008, Note_off_c, 12, 54, 64
3, 151008, Note_on_c, 12, 57, 100
3, 151104, Note_off_c, 12, 57, 64
3, 151104, Note_on_c, 12, 59, 100
3, 151200, Note_off_c, 12, 59, 64
3, 151200, Note_on_c, 12, 57, 100
3, 151296, Note_off_c, 12, 57, 64
3, 151296, Note_on_c, 12, 54, 100
3, 151392, Note_off_c, 12, 54, 64
3, 151392, Note_on_c, 12, 53, 100
3, 151488, Note_off_c, 12, 53, 64
3, 151488, Note_on_c, 12, 52, 100
3, 151584, Note_off_c, 12, 52, 64
3, 151584, Note_on_c, 12, 50, 100
3, 151680, Note_off_c, 12, 50, 64
3, 151680, Note_on_c, 12, 47, 100
3, 151872, Note_off_c, 12, 47, 64
3, 152256, Note_on_c, 12, 69, 100
3, 152448, Note_off_c, 12, 69, 64
3, 152448, Note_on_c, 12, 66, 100
3, 152736, Note_off_c, 12, 66, 64
3, 152736, Note_on_c, 12, 69, 100
3, 152832, Note_off_c, 12, 69, 64
3, 153024, Note_on_c, 12, 69, 100
3, 153216, Note_off_c, 12, 69, 64
3, 153216, Note_on_c, 12, 66, 100
3, 153241, Control_c, 12, 1, 6
3, 153245, Control_c, 12, 1, 18
3, 153248, Control_c, 12, 1, 24
3, 153257, Control_c, 12, 1, 25
3, 153260, Control_c, 12, 1, 28
3, 153264, Control_c, 12, 1, 30
3, 153270, Control_c, 12, 1, 31
3, 153271, Control_c, 12, 1, 32
3, 153286, Control_c, 12, 1, 34
3, 153286, Control_c, 12, 1, 33
3, 153301, Control_c, 12, 1, 35
3, 153304, Control_c, 12, 1, 37
3, 153305, Control_c, 12, 1, 38
3, 153317, Control_c, 12, 1, 39
3, 153318, Control_c, 12, 1, 42
3, 153320, Control_c, 12, 1, 43
3, 153333, Control_c, 12, 1, 47
3, 153333, Control_c, 12, 1, 44
3, 153336, Control_c, 12, 1, 49
3, 153342, Control_c, 12, 1, 50
3, 153349, Control_c, 12, 1, 53
3, 153350, Control_c, 12, 1, 54
3, 153359, Control_c, 12, 1, 55
3, 153363, Control_c, 12, 1, 58
3, 153364, Control_c, 12, 1, 59
3, 153375, Control_c, 12, 1, 60
3, 153377, Control_c, 12, 1, 61
3, 153394, Control_c, 12, 1, 62
3, 153504, Note_off_c, 12, 66, 64
3, 153504, Note_on_c, 12, 69, 100
3, 153504, Control_c, 12, 1, 60
3, 153506, Control_c, 12, 1, 58
3, 153511, Control_c, 12, 1, 57
3, 153520, Control_c, 12, 1, 55
3, 153523, Control_c, 12, 1, 52
3, 153525, Control_c, 12, 1, 50
3, 153536, Control_c, 12, 1, 47
3, 153538, Control_c, 12, 1, 41
3, 153542, Control_c, 12, 1, 38
3, 153552, Control_c, 12, 1, 34
3, 153555, Control_c, 12, 1, 25
3, 153558, Control_c, 12, 1, 20
3, 153567, Control_c, 12, 1, 5
3, 153567, Control_c, 12, 1, 15
3, 153572, Control_c, 12, 1, 0
3, 153600, Note_off_c, 12, 69, 64
3, 153792, Note_on_c, 12, 69, 100
3, 153984, Note_off_c, 12, 69, 64
3, 153984, Note_on_c, 12, 66, 100
3, 154272, Note_off_c, 12, 66, 64
3, 154272, Note_on_c, 12, 69, 100
3, 154368, Note_off_c, 12, 69, 64
3, 154560, Note_on_c, 12, 69, 100
3, 154752, Note_off_c, 12, 69, 64
3, 154752, Note_on_c, 12, 66, 100
3, 154944, Note_off_c, 12, 66, 64
3, 154944, Note_on_c, 12, 66, 100
3, 155040, Note_off_c, 12, 66, 64
3, 155040, Note_on_c, 12, 69, 100
3, 155136, Note_off_c, 12, 69, 64
3, 155328, Note_on_c, 12, 76, 100
3, 155424, Note_off_c, 12, 76, 64
3, 155616, Note_on_c, 12, 76, 100
3, 155712, Note_off_c, 12, 76, 64
3, 156288, Note_on_c, 12, 76, 100
3, 156480, Note_off_c, 12, 76, 64
3, 156672, Control_c, 12, 1, 16
3, 156672, Control_c, 12, 1, 5
3, 156680, Control_c, 12, 1, 21
3, 156688, Control_c, 12, 1, 34
3, 156688, Control_c, 12, 1, 25
3, 156696, Control_c, 12, 1, 38
3, 156700, Control_c, 12, 1, 42
3, 156705, Control_c, 12, 1, 49
3, 156707, Control_c, 12, 1, 53
3, 156716, Control_c, 12, 1, 56
3, 156717, Control_c, 12, 1, 63
3, 156721, Control_c, 12, 1, 66
3, 156730, Control_c, 12, 1, 69
3, 156733, Control_c, 12, 1, 74
3, 156737, Control_c, 12, 1, 76
3, 156746, Control_c, 12, 1, 79
3, 156748, Control_c, 12, 1, 83
3, 156752, Control_c, 12, 1, 86
3, 156759, Control_c, 12, 1, 88
3, 156763, Control_c, 12, 1, 93
3, 156765, Control_c, 12, 1, 95
3, 156776, Control_c, 12, 1, 97
3, 156779, Control_c, 12, 1, 101
3, 156782, Control_c, 12, 1, 103
3, 156790, Control_c, 12, 1, 105
3, 156793, Control_c, 12, 1, 109
3, 156798, Control_c, 12, 1, 111
3, 156806, Control_c, 12, 1, 113
3, 156808, Control_c, 12, 1, 116
3, 156812, Control_c, 12, 1, 118
3, 156822, Control_c, 12, 1, 120
3, 156825, Control_c, 12, 1, 124
3, 156826, Control_c, 12, 1, 125
3, 156836, Control_c, 12, 1, 126
3, 156841, Control_c, 12, 1, 127
3, 157943, Control_c, 12, 1, 126
3, 157955, Control_c, 12, 1, 125
3, 157958, Control_c, 12, 1, 122
3, 157962, Control_c, 12, 1, 121
3, 157966, Control_c, 12, 1, 120
3, 157971, Control_c, 12, 1, 118
3, 157974, Control_c, 12, 1, 117
3, 158044, Control_c, 12, 1, 125
3, 158044, Control_c, 12, 1, 119
3, 158048, Control_c, 12, 1, 127
3, 158092, Control_c, 12, 1, 126
3, 158105, Control_c, 12, 1, 124
3, 158108, Control_c, 12, 1, 119
3, 158109, Control_c, 12, 1, 117
3, 158117, Control_c, 12, 1, 113
3, 158121, Control_c, 12, 1, 101
3, 158121, Control_c, 12, 1, 105
3, 158133, Control_c, 12, 1, 96
3, 158136, Control_c, 12, 1, 85
3, 158137, Control_c, 12, 1, 80
3, 158146, Control_c, 12, 1, 72
3, 158152, Control_c, 12, 1, 57
3, 158153, Control_c, 12, 1, 50
3, 158163, Control_c, 12, 1, 41
3, 158166, Control_c, 12, 1, 22
3, 158169, Control_c, 12, 1, 13
3, 158179, Control_c, 12, 1, 9
3, 158180, Control_c, 12, 1, 3
3, 158185, Control_c, 12, 1, 0
3, 158208, Note_on_c, 12, 85, 100
3, 158304, Note_off_c, 12, 85, 64
3, 158304, Note_on_c, 12, 81, 100
3, 158400, Note_off_c, 12, 81, 64
3, 158400, Note_on_c, 12, 76, 100
3, 158496, Note_off_c, 12, 76, 64
3, 158496, Note_on_c, 12, 85, 100
3, 158592, Note_off_c, 12, 85, 64
3, 158592, Note_on_c, 12, 81, 100
3, 158688, Note_off_c, 12, 81, 64
3, 158688, Note_on_c, 12, 76, 100
3, 158784, Note_off_c, 12, 76, 64
3, 158784, Note_on_c, 12, 85, 100
3, 158832, Note_off_c, 12, 85, 64
3, 158832, Note_on_c, 12, 81, 100
3, 158880, Note_off_c, 12, 81, 64
3, 158880, Note_on_c, 12, 76, 100
3, 158976, Note_off_c, 12, 76, 64
3, 158976, Note_on_c, 12, 85, 100
3, 159072, Note_off_c, 12, 85, 64
3, 159072, Note_on_c, 12, 81, 100
3, 159168, Note_off_c, 12, 81, 64
3, 159168, Note_on_c, 12, 76, 100
3, 159264, Note_off_c, 12, 76, 64
3, 159264, Note_on_c, 12, 85, 100
3, 159360, Note_off_c, 12, 85, 64
3, 159360, Note_on_c, 12, 81, 100
3, 159456, Note_off_c, 12, 81, 64
3, 159456, Note_on_c, 12, 76, 100
3, 159552, Note_off_c, 12, 76, 64
3, 159552, Note_on_c, 12, 85, 100
3, 159600, Note_off_c, 12, 85, 64
3, 159600, Note_on_c, 12, 81, 100
3, 159648, Note_off_c, 12, 81, 64
3, 159648, Note_on_c, 12, 76, 100
3, 159744, Note_off_c, 12, 76, 64
3, 159936, Note_on_c, 12, 86, 100
3, 160032, Note_off_c, 12, 86, 64
3, 160032, Note_on_c, 12, 86, 100
3, 160128, Note_off_c, 12, 86, 64
3, 160320, Note_on_c, 12, 86, 100
3, 160416, Note_off_c, 12, 86, 64
3, 160416, Note_on_c, 12, 86, 100
3, 160512, Note_off_c, 12, 86, 64
3, 161472, Note_on_c, 12, 69, 100
3, 161536, Note_off_c, 12, 69, 64
3, 161536, Note_on_c, 12, 67, 100
3, 161600, Note_off_c, 12, 67, 64
3, 161600, Note_on_c, 12, 66, 100
3, 161664, Note_off_c, 12, 66, 64
3, 161664, Note_on_c, 12, 64, 100
3, 161856, Note_off_c, 12, 64, 64
3, 161856, Note_on_c, 12, 64, 100
3, 161952, Note_off_c, 12, 64, 64
3, 161952, Note_on_c, 12, 62, 100
3, 162048, Note_off_c, 12, 62, 64
3, 162048, Note_on_c, 12, 59, 100
3, 162240, Note_off_c, 12, 59, 64
3, 162240, Note_on_c, 12, 59, 100
3, 162336, Note_off_c, 12, 59, 64
3, 162336, Note_on_c, 12, 57, 100
3, 162432, Note_off_c, 12, 57, 64
3, 162432, Note_on_c, 12, 55, 100
3, 162624, Note_off_c, 12, 55, 64
3, 162816, Note_on_c, 12, 55, 100
3, 162912, Note_off_c, 12, 55, 64
3, 162912, Note_on_c, 12, 52, 100
3, 163096, Control_c, 12, 1, 1
3, 163102, Control_c, 12, 1, 7
3, 163102, Control_c, 12, 1, 5
3, 163113, Control_c, 12, 1, 10
3, 163116, Control_c, 12, 1, 15
3, 163119, Control_c, 12, 1, 17
3, 163129, Control_c, 12, 1, 20
3, 163132, Control_c, 12, 1, 26
3, 163135, Control_c, 12, 1, 28
3, 163144, Control_c, 12, 1, 31
3, 163145, Control_c, 12, 1, 36
3, 163147, Control_c, 12, 1, 38
3, 163157, Control_c, 12, 1, 40
3, 163158, Control_c, 12, 1, 43
3, 163160, Control_c, 12, 1, 45
3, 163171, Control_c, 12, 1, 46
3, 163173, Control_c, 12, 1, 49
3, 163178, Control_c, 12, 1, 51
3, 163187, Control_c, 12, 1, 52
3, 163190, Control_c, 12, 1, 54
3, 163190, Control_c, 12, 1, 53
3, 163206, Control_c, 12, 1, 55
3, 163209, Control_c, 12, 1, 56
3, 163222, Control_c, 12, 1, 57
3, 163231, Control_c, 12, 1, 58
3, 163234, Control_c, 12, 1, 60
3, 163247, Control_c, 12, 1, 62
3, 163248, Control_c, 12, 1, 64
3, 163253, Control_c, 12, 1, 65
3, 163261, Control_c, 12, 1, 66
3, 163266, Control_c, 12, 1, 69
3, 163267, Control_c, 12, 1, 70
3, 163277, Control_c, 12, 1, 72
3, 163280, Control_c, 12, 1, 76
3, 163281, Control_c, 12, 1, 77
3, 163291, Control_c, 12, 1, 79
3, 163293, Control_c, 12, 1, 83
3, 163299, Control_c, 12, 1, 85
3, 163304, Control_c, 12, 1, 86
3, 163308, Control_c, 12, 1, 88
3, 163311, Control_c, 12, 1, 90
3, 163321, Control_c, 12, 1, 91
3, 163324, Control_c, 12, 1, 92
3, 163327, Control_c, 12, 1, 93
3, 163340, Control_c, 12, 1, 94
3, 163393, Control_c, 12, 1, 93
3, 163398, Control_c, 12, 1, 90
3, 163400, Control_c, 12, 1, 88
3, 163442, Control_c, 12, 1, 87
3, 163444, Control_c, 12, 1, 85
3, 163448, Control_c, 12, 1, 84
3, 163529, Control_c, 12, 1, 85
3, 163532, Control_c, 12, 1, 87
3, 163535, Control_c, 12, 1, 88
3, 163548, Control_c, 12, 1, 89
3, 163577, Control_c, 12, 1, 90
3, 164160, Note_off_c, 12, 52, 64
3, 164160, Note_on_c, 12, 50, 100
3, 164256, Note_off_c, 12, 50, 64
3, 164256, Note_on_c, 12, 52, 100
3, 164352, Note_off_c, 12, 52, 64
3, 164352, Note_on_c, 12, 49, 100
3, 165380, Control_c, 12, 1, 91
3, 165541, Control_c, 12, 1, 92
3, 165696, Note_off_c, 12, 49, 64
3, 165696, Note_on_c, 12, 45, 100
3, 165888, Note_off_c, 12, 45, 64
3, 165888, Note_on_c, 12, 47, 100
3, 165985, Control_c, 12, 1, 87
3, 165985, Control_c, 12, 1, 90
3, 165989, Control_c, 12, 1, 86
3, 166059, Control_c, 12, 1, 89
3, 166062, Control_c, 12, 1, 95
3, 166065, Control_c, 12, 1, 98
3, 166074, Control_c, 12, 1, 99
3, 166078, Control_c, 12, 1, 102
3, 166081, Control_c, 12, 1, 103
3, 166089, Control_c, 12, 1, 105
3, 166093, Control_c, 12, 1, 108
3, 166094, Control_c, 12, 1, 110
3, 166106, Control_c, 12, 1, 111
3, 166107, Control_c, 12, 1, 114
3, 166108, Control_c, 12, 1, 116
3, 166120, Control_c, 12, 1, 117
3, 166122, Control_c, 12, 1, 120
3, 166126, Control_c, 12, 1, 121
3, 166131, Control_c, 12, 1, 123
3, 166136, Control_c, 12, 1, 125
3, 166139, Control_c, 12, 1, 126
3, 166152, Control_c, 12, 1, 127
3, 168740, Control_c, 12, 1, 126
3, 168741, Control_c, 12, 1, 125
3, 168768, Control_c, 12, 1, 124
3, 168772, Control_c, 12, 1, 121
3, 168775, Control_c, 12, 1, 120
3, 168800, Control_c, 12, 1, 119
3, 168827, Control_c, 12, 1, 118
3, 168830, Control_c, 12, 1, 116
3, 168834, Control_c, 12, 1, 115
3, 168872, Control_c, 12, 1, 114
3, 168877, Control_c, 12, 1, 111
3, 168880, Control_c, 12, 1, 110
3, 168886, Control_c, 12, 1, 109
3, 168889, Control_c, 12, 1, 106
3, 168893, Control_c, 12, 1, 104
3, 168902, Control_c, 12, 1, 102
3, 168904, Control_c, 12, 1, 98
3, 168908, Control_c, 12, 1, 96
3, 168916, Control_c, 12, 1, 93
3, 168921, Control_c, 12, 1, 88
3, 168922, Control_c, 12, 1, 86
3, 168934, Control_c, 12, 1, 77
3, 168934, Control_c, 12, 1, 83
3, 168936, Control_c, 12, 1, 74
3, 168947, Control_c, 12, 1, 71
3, 168948, Control_c, 12, 1, 64
3, 168952, Control_c, 12, 1, 61
3, 168961, Control_c, 12, 1, 58
3, 168962, Control_c, 12, 1, 50
3, 168967, Control_c, 12, 1, 46
3, 168976, Control_c, 12, 1, 42
3, 168979, Control_c, 12, 1, 34
3, 168982, Control_c, 12, 1, 30
3, 168992, Control_c, 12, 1, 26
3, 168995, Control_c, 12, 1, 19
3, 168998, Control_c, 12, 1, 15
3, 169008, Control_c, 12, 1, 11
3, 169011, Control_c, 12, 1, 4
3, 169014, Control_c, 12, 1, 0
3, 170496, Note_off_c, 12, 47, 64
3, 170496, Note_on_c, 12, 40, 100
3, 171456, Note_off_c, 12, 40, 64
3, 171456, Note_on_c, 12, 59, 100
3, 172032, Note_off_c, 12, 59, 64
3, 245760, Control_c, 12, 7, 127
3, 245760, Program_c, 12, 29
3, 246720, Note_on_c, 12, 67, 100
3, 246912, Note_off_c, 12, 67, 64
3, 246912, Note_on_c, 12, 66, 100
3, 246976, Note_off_c, 12, 66, 64
3, 246976, Note_on_c, 12, 67, 100
3, 247040, Note_off_c, 12, 67, 64
3, 247040, Note_on_c, 12, 66, 100
3, 247104, Note_off_c, 12, 66, 64
3, 247104, Note_on_c, 12, 62, 100
3, 247296, Note_off_c, 12, 62, 64
3, 247296, Note_on_c, 12, 62, 100
3, 247360, Note_off_c, 12, 62, 64
3, 247360, Note_on_c, 12, 64, 100
3, 247424, Note_off_c, 12, 64, 64
3, 247424, Note_on_c, 12, 62, 100
3, 247488, Note_off_c, 12, 62, 64
3, 247488, Note_on_c, 12, 59, 100
3, 247680, Note_off_c, 12, 59, 64
3, 247680, Note_on_c, 12, 57, 100
3, 247872, Note_off_c, 12, 57, 64
3, 247872, Note_on_c, 12, 54, 100
3, 248064, Note_off_c, 12, 54, 64
3, 248064, Note_on_c, 12, 57, 100
3, 248256, Note_off_c, 12, 57, 64
3, 248256, Note_on_c, 12, 62, 100
3, 248447, Note_off_c, 12, 62, 64
3, 248640, Note_on_c, 12, 64, 100
3, 248640, Note_on_c, 12, 59, 100
3, 251136, Note_off_c, 12, 59, 64
3, 251136, Note_off_c, 12, 64, 64
3, 251904, End_track
4, 0, Start_track
4, 0, Title_t, ""
4, 0, Control_c, 13, 7, 90
4, 0, Program_c, 13, 29
4, 98304, Control_c, 13, 7, 90
4, 98304, Program_c, 13, 29
4, 101184, Note_on_c, 13, 73, 100
4, 101184, Note_on_c, 13, 69, 100
4, 101543, Pitch_bend_c, 13, 8202
4, 101546, Pitch_bend_c, 13, 8223
4, 101549, Pitch_bend_c, 13, 8234
4, 101559, Pitch_bend_c, 13, 8356
4, 101559, Pitch_bend_c, 13, 8274
4, 101563, Pitch_bend_c, 13, 8397
4, 101574, Pitch_bend_c, 13, 8417
4, 101579, Pitch_bend_c, 13, 8459
4, 101584, Pitch_bend_c, 13, 8480
4, 101592, Pitch_bend_c, 13, 8511
4, 101596, Pitch_bend_c, 13, 8573
4, 101600, Pitch_bend_c, 13, 8605
4, 101607, Pitch_bend_c, 13, 8637
4, 101611, Pitch_bend_c, 13, 8703
4, 101615, Pitch_bend_c, 13, 8736
4, 101625, Pitch_bend_c, 13, 8756
4, 101626, Pitch_bend_c, 13, 8796
4, 101631, Pitch_bend_c, 13, 8816
4, 101640, Pitch_bend_c, 13, 8867
4, 101640, Pitch_bend_c, 13, 8833
4, 101645, Pitch_bend_c, 13, 8884
4, 101653, Pitch_bend_c, 13, 8899
4, 101658, Pitch_bend_c, 13, 8931
4, 101661, Pitch_bend_c, 13, 8947
4, 101667, Pitch_bend_c, 13, 8968
4, 101670, Pitch_bend_c, 13, 9010
4, 101674, Pitch_bend_c, 13, 9032
4, 101683, Pitch_bend_c, 13, 9038
4, 101686, Pitch_bend_c, 13, 9050
4, 101689, Pitch_bend_c, 13, 9057
4, 101699, Pitch_bend_c, 13, 9074
4, 101702, Pitch_bend_c, 13, 9109
4, 101705, Pitch_bend_c, 13, 9127
4, 101714, Pitch_bend_c, 13, 9142
4, 101716, Pitch_bend_c, 13, 9172
4, 101718, Pitch_bend_c, 13, 9188
4, 101729, Pitch_bend_c, 13, 9211
4, 101730, Pitch_bend_c, 13, 9257
4, 101732, Pitch_bend_c, 13, 9280
4, 101740, Pitch_bend_c, 13, 9307
4, 101746, Pitch_bend_c, 13, 9361
4, 101748, Pitch_bend_c, 13, 9388
4, 101757, Pitch_bend_c, 13, 9425
4, 101762, Pitch_bend_c, 13, 9499
4, 101768, Pitch_bend_c, 13, 9536
4, 101779, Pitch_bend_c, 13, 9583
4, 101784, Pitch_bend_c, 13, 9677
4, 101786, Pitch_bend_c, 13, 9725
4, 101798, Pitch_bend_c, 13, 10003
4, 101798, Pitch_bend_c, 13, 9817
4, 101800, Pitch_bend_c, 13, 10096
4, 101815, Pitch_bend_c, 13, 10250
4, 101822, Pitch_bend_c, 13, 10302
4, 101826, Pitch_bend_c, 13, 10349
4, 101828, Pitch_bend_c, 13, 10443
4, 101831, Pitch_bend_c, 13, 10490
4, 101840, Pitch_bend_c, 13, 10520
4, 101844, Pitch_bend_c, 13, 10580
4, 101847, Pitch_bend_c, 13, 10610
4, 101855, Pitch_bend_c, 13, 10637
4, 101859, Pitch_bend_c, 13, 10691
4, 101862, Pitch_bend_c, 13, 10718
4, 101872, Pitch_bend_c, 13, 10740
4, 101873, Pitch_bend_c, 13, 10785
4, 101878, Pitch_bend_c, 13, 10808
4, 101885, Pitch_bend_c, 13, 10834
4, 101886, Pitch_bend_c, 13, 10887
4, 101892, Pitch_bend_c, 13, 10914
4, 101897, Pitch_bend_c, 13, 10941
4, 101902, Pitch_bend_c, 13, 10996
4, 101905, Pitch_bend_c, 13, 11024
4, 101913, Pitch_bend_c, 13, 11061
4, 101918, Pitch_bend_c, 13, 11135
4, 101921, Pitch_bend_c, 13, 11172
4, 101930, Pitch_bend_c, 13, 11219
4, 101932, Pitch_bend_c, 13, 11313
4, 101936, Pitch_bend_c, 13, 11360
4, 101946, Pitch_bend_c, 13, 11416
4, 101949, Pitch_bend_c, 13, 11528
4, 101951, Pitch_bend_c, 13, 11584
4, 101963, Pitch_bend_c, 13, 11627
4, 101968, Pitch_bend_c, 13, 11759
4, 101973, Pitch_bend_c, 13, 11806
4, 101976, Pitch_bend_c, 13, 11900
4, 101977, Pitch_bend_c, 13, 11948
4, 101990, Pitch_bend_c, 13, 11990
4, 101991, Pitch_bend_c, 13, 12074
4, 101996, Pitch_bend_c, 13, 12116
4, 102004, Pitch_bend_c, 13, 12156
4, 102010, Pitch_bend_c, 13, 12279
4, 102020, Pitch_bend_c, 13, 12315
4, 102023, Pitch_bend_c, 13, 12387
4, 102026, Pitch_bend_c, 13, 12424
4, 102036, Pitch_bend_c, 13, 12463
4, 102039, Pitch_bend_c, 13, 12542
4, 102042, Pitch_bend_c, 13, 12582
4, 102048, Pitch_bend_c, 13, 12619
4, 102051, Pitch_bend_c, 13, 12693
4, 102053, Pitch_bend_c, 13, 12730
4, 102064, Pitch_bend_c, 13, 12786
4, 102067, Pitch_bend_c, 13, 12898
4, 102070, Pitch_bend_c, 13, 12954
4, 102077, Pitch_bend_c, 13, 13006
4, 102084, Pitch_bend_c, 13, 13162
4, 102084, Pitch_bend_c, 13, 13110
4, 102096, Pitch_bend_c, 13, 13309
4, 102096, Pitch_bend_c, 13, 13211
4, 102097, Pitch_bend_c, 13, 13358
4, 102110, Pitch_bend_c, 13, 13393
4, 102111, Pitch_bend_c, 13, 13465
4, 102118, Pitch_bend_c, 13, 13501
4, 102122, Pitch_bend_c, 13, 13546
4, 102125, Pitch_bend_c, 13, 13638
4, 102129, Pitch_bend_c, 13, 13684
4, 102138, Pitch_bend_c, 13, 13721
4, 102141, Pitch_bend_c, 13, 13795
4, 102143, Pitch_bend_c, 13, 13832
4, 102159, Pitch_bend_c, 13, 13875
4, 102165, Pitch_bend_c, 13, 13961
4, 102169, Pitch_bend_c, 13, 14005
4, 102176, Pitch_bend_c, 13, 14097
4, 102180, Pitch_bend_c, 13, 14283
4, 102184, Pitch_bend_c, 13, 14376
4, 102192, Pitch_bend_c, 13, 14436
4, 102195, Pitch_bend_c, 13, 14556
4, 102199, Pitch_bend_c, 13, 14617
4, 102206, Pitch_bend_c, 13, 14694
4, 102210, Pitch_bend_c, 13, 14850
4, 102215, Pitch_bend_c, 13, 14928
4, 102221, Pitch_bend_c, 13, 15150
4, 102221, Pitch_bend_c, 13, 15002
4, 102228, Pitch_bend_c, 13, 15224
4, 102236, Pitch_bend_c, 13, 15317
4, 102239, Pitch_bend_c, 13, 15503
4, 102243, Pitch_bend_c, 13, 15596
4, 102253, Pitch_bend_c, 13, 15646
4, 102256, Pitch_bend_c, 13, 15748
4, 102257, Pitch_bend_c, 13, 15799
4, 102266, Pitch_bend_c, 13, 15869
4, 102269, Pitch_bend_c, 13, 16011
4, 102273, Pitch_bend_c, 13, 16082
4, 102280, Pitch_bend_c, 13, 16157
4, 102281, Pitch_bend_c, 13, 16307
4, 102286, Pitch_bend_c, 13, 16383
4, 102720, Note_off_c, 13, 69, 64
4, 102720, Note_off_c, 13, 73, 64
4, 103252, Pitch_bend_c, 13, 16072
4, 103254, Pitch_bend_c, 13, 15450
4, 103257, Pitch_bend_c, 13, 15139
4, 103267, Pitch_bend_c, 13, 14850
4, 103270, Pitch_bend_c, 13, 14273
4, 103271, Pitch_bend_c, 13, 13985
4, 103279, Pitch_bend_c, 13, 13688
4, 103281, Pitch_bend_c, 13, 13094
4, 103283, Pitch_bend_c, 13, 12798
4, 103295, Pitch_bend_c, 13, 12531
4, 103297, Pitch_bend_c, 13, 11998
4, 103306, Pitch_bend_c, 13, 11732
4, 103311, Pitch_bend_c, 13, 10896
4, 103317, Pitch_bend_c, 13, 10618
4, 103325, Pitch_bend_c, 13, 9946
4, 103325, Pitch_bend_c, 13, 10394
4, 103331, Pitch_bend_c, 13, 9722
4, 103339, Pitch_bend_c, 13, 9532
4, 103344, Pitch_bend_c, 13, 9152
4, 103346, Pitch_bend_c, 13, 8962
4, 103357, Pitch_bend_c, 13, 8438
4, 103360, Pitch_bend_c, 13, 8264
4, 103369, Pitch_bend_c, 13, 8246
4, 103370, Pitch_bend_c, 13, 8210
4, 103375, Pitch_bend_c, 13, 8192
4, 133632, Control_c, 13, 7, 90
4, 133632, Program_c, 13, 29
4, 134400, Note_on_c, 13, 69, 100
4, 134492, Pitch_bend_c, 13, 8209
4, 134493, Pitch_bend_c, 13, 8244
4, 134494, Pitch_bend_c, 13, 8262
4, 134497, Pitch_bend_c, 13, 8310
4, 134498, Pitch_bend_c, 13, 8408
4, 134499, Pitch_bend_c, 13, 8457
4, 134502, Pitch_bend_c, 13, 8526
4, 134504, Pitch_bend_c, 13, 8664
4, 134505, Pitch_bend_c, 13, 8733
4, 134508, Pitch_bend_c, 13, 8763
4, 134509, Pitch_bend_c, 13, 8823
4, 134510, Pitch_bend_c, 13, 8854
4, 134514, Pitch_bend_c, 13, 8977
4, 134514, Pitch_bend_c, 13, 8895
4, 134516, Pitch_bend_c, 13, 9019
4, 134519, Pitch_bend_c, 13, 9071
4, 134520, Pitch_bend_c, 13, 9177
4, 134521, Pitch_bend_c, 13, 9230
4, 134524, Pitch_bend_c, 13, 9270
4, 134525, Pitch_bend_c, 13, 9391
4, 134525, Pitch_bend_c, 13, 9350
4, 134529, Pitch_bend_c, 13, 9438
4, 134531, Pitch_bend_c, 13, 9532
4, 134532, Pitch_bend_c, 13, 9579
4, 134535, Pitch_bend_c, 13, 9626
4, 134536, Pitch_bend_c, 13, 9720
4, 134538, Pitch_bend_c, 13, 9767
4, 134541, Pitch_bend_c, 13, 9836
4, 134542, Pitch_bend_c, 13, 9974
4, 134543, Pitch_bend_c, 13, 10043
4, 134547, Pitch_bend_c, 13, 10091
4, 134548, Pitch_bend_c, 13, 10236
4, 134548, Pitch_bend_c, 13, 10187
4, 134551, Pitch_bend_c, 13, 10273
4, 134552, Pitch_bend_c, 13, 10347
4, 134553, Pitch_bend_c, 13, 10384
4, 134557, Pitch_bend_c, 13, 10444
4, 134557, Pitch_bend_c, 13, 10404
4, 134559, Pitch_bend_c, 13, 10465
4, 134562, Pitch_bend_c, 13, 10466
4, 134563, Pitch_bend_c, 13, 10468
4, 134565, Pitch_bend_c, 13, 10470
4, 134567, Pitch_bend_c, 13, 10471
4, 134568, Pitch_bend_c, 13, 10473
4, 134570, Pitch_bend_c, 13, 10475
4, 134575, Pitch_bend_c, 13, 10476
4, 134576, Pitch_bend_c, 13, 10477
4, 134589, Pitch_bend_c, 13, 10460
4, 134591, Pitch_bend_c, 13, 10426
4, 134592, Note_off_c, 13, 69, 64
4, 134592, Pitch_bend_c, 13, 10409
4, 134595, Pitch_bend_c, 13, 10408
4, 134596, Pitch_bend_c, 13, 10407
4, 134601, Pitch_bend_c, 13, 10404
4, 134601, Pitch_bend_c, 13, 10406
4, 134606, Pitch_bend_c, 13, 10403
4, 134607, Pitch_bend_c, 13, 10402
4, 134611, Pitch_bend_c, 13, 10386
4, 134612, Pitch_bend_c, 13, 10354
4, 134614, Pitch_bend_c, 13, 10339
4, 134628, Pitch_bend_c, 13, 10338
4, 134629, Pitch_bend_c, 13, 10337
4, 134633, Pitch_bend_c, 13, 10334
4, 134633, Pitch_bend_c, 13, 10336
4, 134638, Pitch_bend_c, 13, 10333
4, 134639, Pitch_bend_c, 13, 10332
4, 134644, Pitch_bend_c, 13, 10331
4, 134645, Pitch_bend_c, 13, 10329
4, 134650, Pitch_bend_c, 13, 10328
4, 134651, Pitch_bend_c, 13, 10327
4, 134656, Pitch_bend_c, 13, 10326
4, 134657, Pitch_bend_c, 13, 10324
4, 134660, Pitch_bend_c, 13, 10323
4, 134661, Pitch_bend_c, 13, 10322
4, 134665, Pitch_bend_c, 13, 10321
4, 134666, Pitch_bend_c, 13, 10319
4, 134671, Pitch_bend_c, 13, 10318
4, 134672, Pitch_bend_c, 13, 10317
4, 134676, Pitch_bend_c, 13, 10316
4, 134677, Pitch_bend_c, 13, 10314
4, 134683, Pitch_bend_c, 13, 10313
4, 134684, Pitch_bend_c, 13, 10312
4, 134687, Pitch_bend_c, 13, 10311
4, 134688, Pitch_bend_c, 13, 10309
4, 134693, Pitch_bend_c, 13, 10234
4, 134693, Pitch_bend_c, 13, 10284
4, 134695, Pitch_bend_c, 13, 10209
4, 134698, Pitch_bend_c, 13, 10190
4, 134700, Pitch_bend_c, 13, 10152
4, 134701, Pitch_bend_c, 13, 10133
4, 134704, Pitch_bend_c, 13, 10099
4, 134705, Pitch_bend_c, 13, 10031
4, 134706, Pitch_bend_c, 13, 9998
4, 134710, Pitch_bend_c, 13, 9794
4, 134710, Pitch_bend_c, 13, 9930
4, 134712, Pitch_bend_c, 13, 9727
4, 134714, Pitch_bend_c, 13, 9654
4, 134715, Pitch_bend_c, 13, 9508
4, 134717, Pitch_bend_c, 13, 9436
4, 134720, Pitch_bend_c, 13, 9325
4, 134721, Pitch_bend_c, 13, 9104
4, 134722, Pitch_bend_c, 13, 8994
4, 134726, Pitch_bend_c, 13, 8890
4, 134727, Pitch_bend_c, 13, 8682
4, 134728, Pitch_bend_c, 13, 8578
4, 134732, Pitch_bend_c, 13, 8540
4, 134733, Pitch_bend_c, 13, 8464
4, 134734, Pitch_bend_c, 13, 8427
4, 134737, Pitch_bend_c, 13, 8398
4, 134738, Pitch_bend_c, 13, 8312
4, 134738, Pitch_bend_c, 13, 8340
4, 134741, Pitch_bend_c, 13, 8282
4, 134742, Pitch_bend_c, 13, 8222
4, 134744, Pitch_bend_c, 13, 8192
4, 134976, Note_on_c, 13, 69, 100
4, 135107, Pitch_bend_c, 13, 8248
4, 135108, Pitch_bend_c, 13, 8360
4, 135109, Pitch_bend_c, 13, 8417
4, 135113, Pitch_bend_c, 13, 8823
4, 135113, Pitch_bend_c, 13, 8552
4, 135114, Pitch_bend_c, 13, 8959
4, 135118, Pitch_bend_c, 13, 9107
4, 135119, Pitch_bend_c, 13, 9403
4, 135120, Pitch_bend_c, 13, 9551
4, 135123, Pitch_bend_c, 13, 9677
4, 135124, Pitch_bend_c, 13, 9931
4, 135125, Pitch_bend_c, 13, 10058
4, 135129, Pitch_bend_c, 13, 10194
4, 135130, Pitch_bend_c, 13, 10468
4, 135131, Pitch_bend_c, 13, 10605
4, 135134, Pitch_bend_c, 13, 10758
4, 135135, Pitch_bend_c, 13, 11064
4, 135137, Pitch_bend_c, 13, 11217
4, 135140, Pitch_bend_c, 13, 11414
4, 135141, Pitch_bend_c, 13, 12008
4, 135141, Pitch_bend_c, 13, 11810
4, 135145, Pitch_bend_c, 13, 12176
4, 135146, Pitch_bend_c, 13, 12514
4, 135147, Pitch_bend_c, 13, 12683
4, 135150, Pitch_bend_c, 13, 13235
4, 135150, Pitch_bend_c, 13, 12867
4, 135152, Pitch_bend_c, 13, 13420
4, 135155, Pitch_bend_c, 13, 13597
4, 135157, Pitch_bend_c, 13, 14128
4, 135157, Pitch_bend_c, 13, 13951
4, 135161, Pitch_bend_c, 13, 14281
4, 135163, Pitch_bend_c, 13, 14587
4, 135164, Pitch_bend_c, 13, 14740
4, 135167, Pitch_bend_c, 13, 14899
4, 135168, Pitch_bend_c, 13, 15217
4, 135169, Pitch_bend_c, 13, 15377
4, 135173, Pitch_bend_c, 13, 15547
4, 135174, Pitch_bend_c, 13, 16060
4, 135174, Pitch_bend_c, 13, 15889
4, 135177, Pitch_bend_c, 13, 16140
4, 135178, Pitch_bend_c, 13, 16302
4, 135179, Pitch_bend_c, 13, 16383
4, 135249, Pitch_bend_c, 13, 16252
4, 135250, Pitch_bend_c, 13, 15859
4, 135250, Pitch_bend_c, 13, 15990
4, 135254, Pitch_bend_c, 13, 15550
4, 135256, Pitch_bend_c, 13, 14625
4, 135256, Pitch_bend_c, 13, 14933
4, 135259, Pitch_bend_c, 13, 14389
4, 135260, Pitch_bend_c, 13, 13681
4, 135260, Pitch_bend_c, 13, 13917
4, 135264, Pitch_bend_c, 13, 13460
4, 135266, Pitch_bend_c, 13, 12798
4, 135266, Pitch_bend_c, 13, 13018
4, 135270, Pitch_bend_c, 13, 12594
4, 135271, Pitch_bend_c, 13, 12188
4, 135273, Pitch_bend_c, 13, 11985
4, 135276, Pitch_bend_c, 13, 11710
4, 135277, Pitch_bend_c, 13, 11160
4, 135278, Pitch_bend_c, 13, 10886
4, 135282, Pitch_bend_c, 13, 10662
4, 135283, Pitch_bend_c, 13, 9993
4, 135283, Pitch_bend_c, 13, 10216
4, 135287, Pitch_bend_c, 13, 9328
4, 135287, Pitch_bend_c, 13, 9771
4, 135288, Pitch_bend_c, 13, 9107
4, 135292, Pitch_bend_c, 13, 8456
4, 135292, Pitch_bend_c, 13, 8890
4, 135294, Pitch_bend_c, 13, 8239
4, 135297, Pitch_bend_c, 13, 8227
4, 135298, Pitch_bend_c, 13, 8203
4, 135299, Pitch_bend_c, 13, 8192
4, 135360, Note_off_c, 13, 69, 64
4, 136320, Note_on_c, 13, 74, 100
4, 136452, Pitch_bend_c, 13, 8272
4, 136453, Pitch_bend_c, 13, 8432
4, 136454, Pitch_bend_c, 13, 8513
4, 136456, Pitch_bend_c, 13, 8634
4, 136458, Pitch_bend_c, 13, 8877
4, 136459, Pitch_bend_c, 13, 8999
4, 136463, Pitch_bend_c, 13, 9114
4, 136464, Pitch_bend_c, 13, 9345
4, 136465, Pitch_bend_c, 13, 9461
4, 136468, Pitch_bend_c, 13, 9597
4, 136469, Pitch_bend_c, 13, 9869
4, 136471, Pitch_bend_c, 13, 10006
4, 136474, Pitch_bend_c, 13, 10195
4, 136475, Pitch_bend_c, 13, 10573
4, 136476, Pitch_bend_c, 13, 10763
4, 136479, Pitch_bend_c, 13, 11023
4, 136480, Pitch_bend_c, 13, 11544
4, 136482, Pitch_bend_c, 13, 11805
4, 136483, Pitch_bend_c, 13, 12027
4, 136484, Pitch_bend_c, 13, 12471
4, 136486, Pitch_bend_c, 13, 12693
4, 136490, Pitch_bend_c, 13, 12933
4, 136491, Pitch_bend_c, 13, 13656
4, 136491, Pitch_bend_c, 13, 13415
4, 136495, Pitch_bend_c, 13, 13918
4, 136497, Pitch_bend_c, 13, 14442
4, 136498, Pitch_bend_c, 13, 14705
4, 136501, Pitch_bend_c, 13, 14962
4, 136502, Pitch_bend_c, 13, 15476
4, 136503, Pitch_bend_c, 13, 15734
4, 136507, Pitch_bend_c, 13, 15896
4, 136508, Pitch_bend_c, 13, 16383
4, 136508, Pitch_bend_c, 13, 16220
4, 136588, Pitch_bend_c, 13, 16352
4, 136589, Pitch_bend_c, 13, 16291
4, 136590, Pitch_bend_c, 13, 16261
4, 136593, Pitch_bend_c, 13, 15919
4, 136594, Pitch_bend_c, 13, 15237
4, 136595, Pitch_bend_c, 13, 14896
4, 136599, Pitch_bend_c, 13, 14645
4, 136600, Pitch_bend_c, 13, 13892
4, 136600, Pitch_bend_c, 13, 14143
4, 136604, Pitch_bend_c, 13, 13732
4, 136605, Pitch_bend_c, 13, 13412
4, 136607, Pitch_bend_c, 13, 13252
4, 136610, Pitch_bend_c, 13, 13156
4, 136611, Pitch_bend_c, 13, 12964
4, 136612, Pitch_bend_c, 13, 12868
4, 136616, Pitch_bend_c, 13, 12802
4, 136617, Pitch_bend_c, 13, 12607
4, 136617, Pitch_bend_c, 13, 12672
4, 136620, Pitch_bend_c, 13, 12550
4, 136621, Pitch_bend_c, 13, 12382
4, 136621, Pitch_bend_c, 13, 12438
4, 136626, Pitch_bend_c, 13, 12172
4, 136626, Pitch_bend_c, 13, 12312
4, 136628, Pitch_bend_c, 13, 12103
4, 136631, Pitch_bend_c, 13, 11977
4, 136632, Pitch_bend_c, 13, 11601
4, 136632, Pitch_bend_c, 13, 11726
4, 136636, Pitch_bend_c, 13, 11421
4, 136637, Pitch_bend_c, 13, 11061
4, 136639, Pitch_bend_c, 13, 10881
4, 136643, Pitch_bend_c, 13, 10724
4, 136644, Pitch_bend_c, 13, 10410
4, 136645, Pitch_bend_c, 13, 10254
4, 136647, Pitch_bend_c, 13, 10126
4, 136649, Pitch_bend_c, 13, 9870
4, 136650, Pitch_bend_c, 13, 9742
4, 136653, Pitch_bend_c, 13, 9460
4, 136653, Pitch_bend_c, 13, 9648
4, 136655, Pitch_bend_c, 13, 9366
4, 136658, Pitch_bend_c, 13, 9308
4, 136660, Pitch_bend_c, 13, 9192
4, 136661, Pitch_bend_c, 13, 9135
4, 136664, Pitch_bend_c, 13, 9102
4, 136665, Pitch_bend_c, 13, 9036
4, 136666, Pitch_bend_c, 13, 9004
4, 136669, Pitch_bend_c, 13, 8961
4, 136670, Pitch_bend_c, 13, 8876
4, 136672, Pitch_bend_c, 13, 8834
4, 136674, Pitch_bend_c, 13, 8792
4, 136676, Pitch_bend_c, 13, 8709
4, 136677, Pitch_bend_c, 13, 8668
4, 136680, Pitch_bend_c, 13, 8616
4, 136681, Pitch_bend_c, 13, 8513
4, 136683, Pitch_bend_c, 13, 8462
4, 136686, Pitch_bend_c, 13, 8394
4, 136687, Pitch_bend_c, 13, 8259
4, 136688, Pitch_bend_c, 13, 8192
4, 136704, Note_off_c, 13, 74, 64
4, 139776, Note_on_c, 13, 74, 100
4, 139843, Pitch_bend_c, 13, 8422
4, 139845, Pitch_bend_c, 13, 8884
4, 139846, Pitch_bend_c, 13, 9115
4, 139849, Pitch_bend_c, 13, 9719
4, 139850, Pitch_bend_c, 13, 10929
4, 139852, Pitch_bend_c, 13, 11534
4, 139855, Pitch_bend_c, 13, 12108
4, 139856, Pitch_bend_c, 13, 13257
4, 139857, Pitch_bend_c, 13, 13832
4, 139860, Pitch_bend_c, 13, 14413
4, 139861, Pitch_bend_c, 13, 15576
4, 139862, Pitch_bend_c, 13, 16158
4, 139866, Pitch_bend_c, 13, 16214
4, 139867, Pitch_bend_c, 13, 16326
4, 139868, Pitch_bend_c, 13, 16383
4, 139872, Note_off_c, 13, 74, 64
4, 139925, Pitch_bend_c, 13, 16043
4, 139926, Pitch_bend_c, 13, 15365
4, 139928, Pitch_bend_c, 13, 15026
4, 139931, Pitch_bend_c, 13, 14662
4, 139932, Pitch_bend_c, 13, 13934
4, 139934, Pitch_bend_c, 13, 13571
4, 139937, Pitch_bend_c, 13, 13145
4, 139938, Pitch_bend_c, 13, 12295
4, 139939, Pitch_bend_c, 13, 11870
4, 139942, Pitch_bend_c, 13, 11388
4, 139943, Pitch_bend_c, 13, 10426
4, 139944, Pitch_bend_c, 13, 9945
4, 139947, Pitch_bend_c, 13, 9525
4, 139948, Pitch_bend_c, 13, 8686
4, 139950, Pitch_bend_c, 13, 8267
4, 139953, Pitch_bend_c, 13, 8248
4, 139954, Pitch_bend_c, 13, 8210
4, 139955, Pitch_bend_c, 13, 8192
4, 140160, Note_on_c, 13, 74, 100
4, 140177, Pitch_bend_c, 13, 8711
4, 140177, Pitch_bend_c, 13, 8365
4, 140178, Pitch_bend_c, 13, 8884
4, 140181, Pitch_bend_c, 13, 9587
4, 140182, Pitch_bend_c, 13, 10993
4, 140184, Pitch_bend_c, 13, 11697
4, 140186, Pitch_bend_c, 13, 12784
4, 140187, Pitch_bend_c, 13, 14958
4, 140189, Pitch_bend_c, 13, 16045
4, 140192, Pitch_bend_c, 13, 16129
4, 140193, Pitch_bend_c, 13, 16298
4, 140194, Pitch_bend_c, 13, 16383
4, 140256, Note_off_c, 13, 74, 64
4, 140389, Pitch_bend_c, 13, 15608
4, 140390, Pitch_bend_c, 13, 14059
4, 140391, Pitch_bend_c, 13, 13285
4, 140394, Pitch_bend_c, 13, 12742
4, 140395, Pitch_bend_c, 13, 11657
4, 140396, Pitch_bend_c, 13, 11115
4, 140399, Pitch_bend_c, 13, 10556
4, 140401, Pitch_bend_c, 13, 8879
4, 140401, Pitch_bend_c, 13, 9438
4, 140404, Pitch_bend_c, 13, 8707
4, 140405, Pitch_bend_c, 13, 8363
4, 140406, Pitch_bend_c, 13, 8192
4, 140544, Note_on_c, 13, 74, 100
4, 140590, Pitch_bend_c, 13, 8438
4, 140590, Pitch_bend_c, 13, 8274
4, 140592, Pitch_bend_c, 13, 8520
4, 140594, Pitch_bend_c, 13, 9059
4, 140596, Pitch_bend_c, 13, 10138
4, 140597, Pitch_bend_c, 13, 10678
4, 140601, Pitch_bend_c, 13, 11607
4, 140602, Pitch_bend_c, 13, 13466
4, 140603, Pitch_bend_c, 13, 14396
4, 140606, Pitch_bend_c, 13, 14892
4, 140607, Pitch_bend_c, 13, 15886
4, 140609, Pitch_bend_c, 13, 16383
4, 140640, Note_off_c, 13, 74, 64
4, 140812, Pitch_bend_c, 13, 15972
4, 140814, Pitch_bend_c, 13, 14740
4, 140814, Pitch_bend_c, 13, 15150
4, 140818, Pitch_bend_c, 13, 14079
4, 140819, Pitch_bend_c, 13, 12757
4, 140821, Pitch_bend_c, 13, 12096
4, 140824, Pitch_bend_c, 13, 11471
4, 140825, Pitch_bend_c, 13, 10221
4, 140826, Pitch_bend_c, 13, 9597
4, 140830, Pitch_bend_c, 13, 9245
4, 140831, Pitch_bend_c, 13, 8543
4, 140832, Pitch_bend_c, 13, 8192
4, 140928, Note_on_c, 13, 74, 100
4, 140966, Pitch_bend_c, 13, 8282
4, 140967, Pitch_bend_c, 13, 8462
4, 140968, Pitch_bend_c, 13, 8553
4, 140971, Pitch_bend_c, 13, 9113
4, 140973, Pitch_bend_c, 13, 10235
4, 140974, Pitch_bend_c, 13, 10796
4, 140976, Pitch_bend_c, 13, 11758
4, 140977, Pitch_bend_c, 13, 13684
4, 140978, Pitch_bend_c, 13, 14647
4, 140982, Pitch_bend_c, 13, 15949
4, 140982, Pitch_bend_c, 13, 15081
4, 140984, Pitch_bend_c, 13, 16383
4, 141024, Note_off_c, 13, 74, 64
4, 141167, Pitch_bend_c, 13, 14781
4, 141167, Pitch_bend_c, 13, 15849
4, 141168, Pitch_bend_c, 13, 14248
4, 141172, Pitch_bend_c, 13, 12652
4, 141172, Pitch_bend_c, 13, 13716
4, 141175, Pitch_bend_c, 13, 12121
4, 141177, Pitch_bend_c, 13, 11611
4, 141179, Pitch_bend_c, 13, 10592
4, 141181, Pitch_bend_c, 13, 10083
4, 141183, Pitch_bend_c, 13, 9610
4, 141184, Pitch_bend_c, 13, 8664
4, 141186, Pitch_bend_c, 13, 8192
4, 141312, Note_on_c, 13, 74, 100
4, 141341, Pitch_bend_c, 13, 8397
4, 141342, Pitch_bend_c, 13, 8807
4, 141344, Pitch_bend_c, 13, 9012
4, 141347, Pitch_bend_c, 13, 9488
4, 141348, Pitch_bend_c, 13, 10440
4, 141349, Pitch_bend_c, 13, 10916
4, 141353, Pitch_bend_c, 13, 11657
4, 141354, Pitch_bend_c, 13, 13882
4, 141354, Pitch_bend_c, 13, 13140
4, 141357, Pitch_bend_c, 13, 14507
4, 141358, Pitch_bend_c, 13, 15757
4, 141359, Pitch_bend_c, 13, 16383
4, 141408, Note_off_c, 13, 74, 64
4, 141575, Pitch_bend_c, 13, 16220
4, 141576, Pitch_bend_c, 13, 15894
4, 141577, Pitch_bend_c, 13, 15731
4, 141580, Pitch_bend_c, 13, 15289
4, 141581, Pitch_bend_c, 13, 14406
4, 141583, Pitch_bend_c, 13, 13965
4, 141585, Pitch_bend_c, 13, 13537
4, 141587, Pitch_bend_c, 13, 12683
4, 141588, Pitch_bend_c, 13, 12256
4, 141592, Pitch_bend_c, 13, 11081
4, 141592, Pitch_bend_c, 13, 11864
4, 141594, Pitch_bend_c, 13, 10690
4, 141597, Pitch_bend_c, 13, 10376
4, 141599, Pitch_bend_c, 13, 9749
4, 141600, Pitch_bend_c, 13, 9436
4, 141602, Pitch_bend_c, 13, 9148
4, 141603, Pitch_bend_c, 13, 8574
4, 141604, Pitch_bend_c, 13, 8287
4, 141607, Pitch_bend_c, 13, 8263
4, 141609, Pitch_bend_c, 13, 8215
4, 141610, Pitch_bend_c, 13, 8192
4, 145152, Note_on_c, 13, 86, 100
4, 145256, Pitch_bend_c, 13, 8363
4, 145257, Pitch_bend_c, 13, 8879
4, 145257, Pitch_bend_c, 13, 8707
4, 145262, Pitch_bend_c, 13, 9102
4, 145263, Pitch_bend_c, 13, 9548
4, 145264, Pitch_bend_c, 13, 9772
4, 145267, Pitch_bend_c, 13, 9974
4, 145268, Pitch_bend_c, 13, 10378
4, 145270, Pitch_bend_c, 13, 10580
4, 145273, Pitch_bend_c, 13, 10705
4, 145274, Pitch_bend_c, 13, 11082
4, 145274, Pitch_bend_c, 13, 10956
4, 145278, Pitch_bend_c, 13, 11499
4, 145278, Pitch_bend_c, 13, 11221
4, 145279, Pitch_bend_c, 13, 11639
4, 145283, Pitch_bend_c, 13, 12015
4, 145283, Pitch_bend_c, 13, 11764
4, 145285, Pitch_bend_c, 13, 12141
4, 145288, Pitch_bend_c, 13, 12269
4, 145290, Pitch_bend_c, 13, 12655
4, 145290, Pitch_bend_c, 13, 12526
4, 145292, Control_c, 13, 1, 1
4, 145294, Pitch_bend_c, 13, 12815
4, 145295, Pitch_bend_c, 13, 13136
4, 145296, Pitch_bend_c, 13, 13297
4, 145299, Control_c, 13, 1, 6
4, 145299, Control_c, 13, 1, 4
4, 145300, Pitch_bend_c, 13, 13427
4, 145302, Pitch_bend_c, 13, 13817
4, 145302, Pitch_bend_c, 13, 13687
4, 145305, Pitch_bend_c, 13, 13983
4, 145306, Pitch_bend_c, 13, 14317
4, 145307, Pitch_bend_c, 13, 14484
4, 145307, Control_c, 13, 1, 7
4, 145308, Control_c, 13, 1, 9
4, 145310, Pitch_bend_c, 13, 14635
4, 145311, Pitch_bend_c, 13, 14939
4, 145313, Pitch_bend_c, 13, 15091
4, 145313, Control_c, 13, 1, 10
4, 145316, Pitch_bend_c, 13, 15268
4, 145317, Pitch_bend_c, 13, 15623
4, 145318, Pitch_bend_c, 13, 15801
4, 145321, Pitch_bend_c, 13, 15946
4, 145321, Control_c, 13, 1, 11
4, 145322, Pitch_bend_c, 13, 16237
4, 145323, Pitch_bend_c, 13, 16383
4, 145327, Control_c, 13, 1, 13
4, 145329, Control_c, 13, 1, 14
4, 145336, Control_c, 13, 1, 16
4, 145340, Control_c, 13, 1, 18
4, 145344, Control_c, 13, 1, 19
4, 145355, Control_c, 13, 1, 21
4, 145360, Control_c, 13, 1, 24
4, 145366, Control_c, 13, 1, 25
4, 145377, Control_c, 13, 1, 28
4, 145379, Control_c, 13, 1, 32
4, 145384, Control_c, 13, 1, 35
4, 145390, Control_c, 13, 1, 37
4, 145392, Control_c, 13, 1, 40
4, 145394, Control_c, 13, 1, 42
4, 145407, Control_c, 13, 1, 43
4, 145412, Control_c, 13, 1, 45
4, 145413, Control_c, 13, 1, 47
4, 145421, Control_c, 13, 1, 48
4, 145424, Control_c, 13, 1, 50
4, 145431, Control_c, 13, 1, 51
4, 145442, Control_c, 13, 1, 52
4, 145445, Control_c, 13, 1, 53
4, 145459, Control_c, 13, 1, 54
4, 145502, Control_c, 13, 1, 55
4, 145506, Pitch_bend_c, 13, 16173
4, 145507, Pitch_bend_c, 13, 15753
4, 145508, Pitch_bend_c, 13, 15543
4, 145512, Pitch_bend_c, 13, 14701
4, 145512, Pitch_bend_c, 13, 15262
4, 145514, Pitch_bend_c, 13, 14421
4, 145516, Control_c, 13, 1, 56
4, 145517, Pitch_bend_c, 13, 14149
4, 145519, Pitch_bend_c, 13, 13606
4, 145520, Pitch_bend_c, 13, 13335
4, 145522, Pitch_bend_c, 13, 13111
4, 145524, Pitch_bend_c, 13, 12663
4, 145525, Pitch_bend_c, 13, 12439
4, 145528, Pitch_bend_c, 13, 12301
4, 145529, Pitch_bend_c, 13, 12027
4, 145530, Control_c, 13, 1, 57
4, 145531, Pitch_bend_c, 13, 11890
4, 145534, Pitch_bend_c, 13, 11800
4, 145535, Pitch_bend_c, 13, 11620
4, 145536, Pitch_bend_c, 13, 11531
4, 145540, Pitch_bend_c, 13, 11246
4, 145540, Pitch_bend_c, 13, 11436
4, 145541, Pitch_bend_c, 13, 11152
4, 145545, Pitch_bend_c, 13, 10996
4, 145545, Pitch_bend_c, 13, 11100
4, 145545, Control_c, 13, 1, 58
4, 145546, Pitch_bend_c, 13, 10944
4, 145549, Pitch_bend_c, 13, 10871
4, 145551, Pitch_bend_c, 13, 10727
4, 145552, Pitch_bend_c, 13, 10655
4, 145555, Pitch_bend_c, 13, 10553
4, 145556, Pitch_bend_c, 13, 10350
4, 145558, Pitch_bend_c, 13, 10249
4, 145561, Pitch_bend_c, 13, 10114
4, 145562, Pitch_bend_c, 13, 9846
4, 145563, Pitch_bend_c, 13, 9712
4, 145566, Control_c, 13, 1, 59
4, 145567, Pitch_bend_c, 13, 9551
4, 145567, Control_c, 13, 1, 60
4, 145568, Pitch_bend_c, 13, 9230
4, 145569, Pitch_bend_c, 13, 9070
4, 145571, Control_c, 13, 1, 61
4, 145573, Pitch_bend_c, 13, 8899
4, 145574, Pitch_bend_c, 13, 8387
4, 145574, Pitch_bend_c, 13, 8557
4, 145577, Pitch_bend_c, 13, 8338
4, 145578, Pitch_bend_c, 13, 8240
4, 145579, Pitch_bend_c, 13, 8192
4, 145580, Control_c, 13, 1, 62
4, 145585, Control_c, 13, 1, 63
4, 145598, Control_c, 13, 1, 64
4, 145599, Control_c, 13, 1, 65
4, 145610, Control_c, 13, 1, 66
4, 145617, Control_c, 13, 1, 67
4, 145728, Note_off_c, 13, 86, 64
4, 145728, Note_on_c, 13, 64, 100
4, 145849, Pitch_bend_c, 13, 8272
4, 145850, Pitch_bend_c, 13, 8432
4, 145851, Pitch_bend_c, 13, 8513
4, 145855, Pitch_bend_c, 13, 8592
4, 145856, Pitch_bend_c, 13, 8750
4, 145857, Pitch_bend_c, 13, 8829
4, 145861, Pitch_bend_c, 13, 8935
4, 145862, Pitch_bend_c, 13, 9148
4, 145863, Pitch_bend_c, 13, 9255
4, 145866, Pitch_bend_c, 13, 9383
4, 145867, Pitch_bend_c, 13, 9639
4, 145868, Pitch_bend_c, 13, 9767
4, 145871, Pitch_bend_c, 13, 9959
4, 145873, Pitch_bend_c, 13, 10537
4, 145873, Pitch_bend_c, 13, 10344
4, 145876, Pitch_bend_c, 13, 10806
4, 145877, Pitch_bend_c, 13, 11344
4, 145878, Pitch_bend_c, 13, 11614
4, 145881, Pitch_bend_c, 13, 11849
4, 145883, Pitch_bend_c, 13, 12319
4, 145884, Pitch_bend_c, 13, 12555
4, 145888, Pitch_bend_c, 13, 13257
4, 145888, Pitch_bend_c, 13, 12789
4, 145890, Pitch_bend_c, 13, 13491
4, 145893, Pitch_bend_c, 13, 13723
4, 145895, Pitch_bend_c, 13, 14188
4, 145896, Pitch_bend_c, 13, 14421
4, 145899, Pitch_bend_c, 13, 14620
4, 145900, Pitch_bend_c, 13, 15018
4, 145901, Pitch_bend_c, 13, 15217
4, 145904, Pitch_bend_c, 13, 15457
4, 145905, Pitch_bend_c, 13, 16180
4, 145905, Pitch_bend_c, 13, 15939
4, 145909, Pitch_bend_c, 13, 16230
4, 145910, Pitch_bend_c, 13, 16332
4, 145911, Pitch_bend_c, 13, 16383
4, 146018, Control_c, 13, 1, 65
4, 146023, Control_c, 13, 1, 62
4, 146026, Control_c, 13, 1, 60
4, 146035, Control_c, 13, 1, 57
4, 146039, Control_c, 13, 1, 53
4, 146040, Control_c, 13, 1, 51
4, 146051, Control_c, 13, 1, 47
4, 146054, Control_c, 13, 1, 39
4, 146055, Control_c, 13, 1, 35
4, 146067, Control_c, 13, 1, 30
4, 146068, Control_c, 13, 1, 19
4, 146069, Control_c, 13, 1, 14
4, 146078, Control_c, 13, 1, 10
4, 146084, Control_c, 13, 1, 0
4, 146084, Control_c, 13, 1, 3
4, 146187, Pitch_bend_c, 13, 15893
4, 146188, Pitch_bend_c, 13, 14913
4, 146189, Pitch_bend_c, 13, 14424
4, 146193, Pitch_bend_c, 13, 13840
4, 146194, Pitch_bend_c, 13, 12674
4, 146195, Pitch_bend_c, 13, 12091
4, 146199, Pitch_bend_c, 13, 11475
4, 146200, Pitch_bend_c, 13, 9627
4, 146200, Pitch_bend_c, 13, 10243
4, 146203, Pitch_bend_c, 13, 9268
4, 146204, Pitch_bend_c, 13, 8550
4, 146205, Pitch_bend_c, 13, 8192
4, 146214, Pitch_bend_c, 13, 8077
4, 146215, Pitch_bend_c, 13, 7848
4, 146216, Pitch_bend_c, 13, 7734
4, 146219, Pitch_bend_c, 13, 7699
4, 146221, Pitch_bend_c, 13, 7631
4, 146222, Pitch_bend_c, 13, 7597
4, 146236, Pitch_bend_c, 13, 7984
4, 146236, Pitch_bend_c, 13, 7726
4, 146238, Pitch_bend_c, 13, 8114
4, 146241, Pitch_bend_c, 13, 8133
4, 146243, Pitch_bend_c, 13, 8172
4, 146244, Pitch_bend_c, 13, 8192
4, 146304, Note_off_c, 13, 64, 64
4, 146304, Note_on_c, 13, 64, 100
4, 146492, Pitch_bend_c, 13, 8237
4, 146494, Pitch_bend_c, 13, 8329
4, 146495, Pitch_bend_c, 13, 8375
4, 146498, Pitch_bend_c, 13, 9170
4, 146498, Pitch_bend_c, 13, 8640
4, 146499, Pitch_bend_c, 13, 9436
4, 146502, Pitch_bend_c, 13, 9767
4, 146503, Pitch_bend_c, 13, 10431
4, 146504, Pitch_bend_c, 13, 10763
4, 146507, Pitch_bend_c, 13, 11186
4, 146508, Pitch_bend_c, 13, 12033
4, 146510, Pitch_bend_c, 13, 12457
4, 146514, Pitch_bend_c, 13, 13570
4, 146514, Pitch_bend_c, 13, 12828
4, 146515, Pitch_bend_c, 13, 13942
4, 146519, Pitch_bend_c, 13, 14276
4, 146521, Pitch_bend_c, 13, 14945
4, 146522, Pitch_bend_c, 13, 15280
4, 146525, Pitch_bend_c, 13, 15555
4, 146526, Pitch_bend_c, 13, 16107
4, 146528, Pitch_bend_c, 13, 16383
4, 146856, Pitch_bend_c, 13, 16006
4, 146858, Pitch_bend_c, 13, 15252
4, 146859, Pitch_bend_c, 13, 14876
4, 146862, Pitch_bend_c, 13, 14514
4, 146863, Pitch_bend_c, 13, 13791
4, 146865, Pitch_bend_c, 13, 13430
4, 146867, Pitch_bend_c, 13, 13001
4, 146869, Pitch_bend_c, 13, 12145
4, 146870, Pitch_bend_c, 13, 11717
4, 146874, Pitch_bend_c, 13, 10349
4, 146874, Pitch_bend_c, 13, 11261
4, 146875, Pitch_bend_c, 13, 9893
4, 146879, Pitch_bend_c, 13, 9497
4, 146880, Note_off_c, 13, 64, 64
4, 146880, Note_on_c, 13, 64, 100
4, 146880, Pitch_bend_c, 13, 8707
4, 146881, Pitch_bend_c, 13, 8312
4, 146884, Pitch_bend_c, 13, 8282
4, 146885, Pitch_bend_c, 13, 8222
4, 146886, Pitch_bend_c, 13, 8192
4, 147456, Note_off_c, 13, 64, 64
4, 147456, Note_on_c, 13, 64, 100
4, 147603, Pitch_bend_c, 13, 8242
4, 147604, Pitch_bend_c, 13, 8342
4, 147605, Pitch_bend_c, 13, 8392
4, 147609, Pitch_bend_c, 13, 8908
4, 147609, Pitch_bend_c, 13, 8564
4, 147610, Pitch_bend_c, 13, 9080
4, 147614, Pitch_bend_c, 13, 9749
4, 147614, Pitch_bend_c, 13, 9303
4, 147616, Pitch_bend_c, 13, 9973
4, 147619, Pitch_bend_c, 13, 10657
4, 147619, Pitch_bend_c, 13, 10201
4, 147620, Pitch_bend_c, 13, 10886
4, 147624, Pitch_bend_c, 13, 11148
4, 147625, Pitch_bend_c, 13, 11674
4, 147627, Pitch_bend_c, 13, 11937
4, 147630, Pitch_bend_c, 13, 12151
4, 147631, Pitch_bend_c, 13, 12579
4, 147632, Pitch_bend_c, 13, 12793
4, 147636, Pitch_bend_c, 13, 13015
4, 147637, Pitch_bend_c, 13, 13459
4, 147638, Pitch_bend_c, 13, 13681
4, 147642, Pitch_bend_c, 13, 13914
4, 147643, Pitch_bend_c, 13, 14615
4, 147643, Pitch_bend_c, 13, 14381
4, 147646, Pitch_bend_c, 13, 15329
4, 147646, Pitch_bend_c, 13, 14853
4, 147648, Pitch_bend_c, 13, 15568
4, 147651, Pitch_bend_c, 13, 15771
4, 147652, Pitch_bend_c, 13, 16179
4, 147654, Pitch_bend_c, 13, 16383
4, 147826, Pitch_bend_c, 13, 15892
4, 147828, Pitch_bend_c, 13, 14911
4, 147829, Pitch_bend_c, 13, 14421
4, 147832, Pitch_bend_c, 13, 13847
4, 147833, Pitch_bend_c, 13, 12126
4, 147833, Pitch_bend_c, 13, 12699
4, 147836, Pitch_bend_c, 13, 11631
4, 147837, Pitch_bend_c, 13, 10643
4, 147839, Pitch_bend_c, 13, 10149
4, 147840, Note_off_c, 13, 64, 64
4, 147840, Note_on_c, 13, 64, 100
4, 147841, Pitch_bend_c, 13, 9810
4, 147843, Pitch_bend_c, 13, 9132
4, 147844, Pitch_bend_c, 13, 8794
4, 147848, Pitch_bend_c, 13, 8643
4, 147849, Pitch_bend_c, 13, 8342
4, 147850, Pitch_bend_c, 13, 8192
4, 148060, Pitch_bend_c, 13, 8696
4, 148060, Pitch_bend_c, 13, 8360
4, 148062, Pitch_bend_c, 13, 8864
4, 148065, Pitch_bend_c, 13, 9186
4, 148067, Pitch_bend_c, 13, 10154
4, 148067, Pitch_bend_c, 13, 9831
4, 148071, Pitch_bend_c, 13, 10575
4, 148072, Pitch_bend_c, 13, 11418
4, 148074, Pitch_bend_c, 13, 11840
4, 148077, Pitch_bend_c, 13, 12231
4, 148078, Pitch_bend_c, 13, 13013
4, 148079, Pitch_bend_c, 13, 13405
4, 148082, Pitch_bend_c, 13, 13800
4, 148083, Pitch_bend_c, 13, 14590
4, 148084, Pitch_bend_c, 13, 14986
4, 148088, Pitch_bend_c, 13, 16033
4, 148088, Pitch_bend_c, 13, 15335
4, 148090, Pitch_bend_c, 13, 16383
4, 148224, Note_off_c, 13, 64, 64
4, 148277, Pitch_bend_c, 13, 16350
4, 148278, Pitch_bend_c, 13, 16285
4, 148280, Pitch_bend_c, 13, 16253
4, 148283, Pitch_bend_c, 13, 15761
4, 148284, Pitch_bend_c, 13, 14779
4, 148285, Pitch_bend_c, 13, 14288
4, 148289, Pitch_bend_c, 13, 13824
4, 148290, Pitch_bend_c, 13, 12897
4, 148291, Pitch_bend_c, 13, 12434
4, 148295, Pitch_bend_c, 13, 12018
4, 148296, Pitch_bend_c, 13, 11188
4, 148297, Pitch_bend_c, 13, 10773
4, 148299, Pitch_bend_c, 13, 10463
4, 148300, Pitch_bend_c, 13, 9843
4, 148302, Pitch_bend_c, 13, 9534
4, 148305, Pitch_bend_c, 13, 9239
4, 148306, Pitch_bend_c, 13, 8651
4, 148307, Pitch_bend_c, 13, 8357
4, 148310, Pitch_bend_c, 13, 8315
4, 148312, Pitch_bend_c, 13, 8233
4, 148313, Pitch_bend_c, 13, 8192
4, 152064, Note_on_c, 13, 71, 100
4, 152165, Pitch_bend_c, 13, 8237
4, 152166, Pitch_bend_c, 13, 8327
4, 152167, Pitch_bend_c, 13, 8372
4, 152170, Pitch_bend_c, 13, 8537
4, 152172, Pitch_bend_c, 13, 8869
4, 152173, Pitch_bend_c, 13, 9035
4, 152176, Pitch_bend_c, 13, 9204
4, 152177, Pitch_bend_c, 13, 9542
4, 152179, Pitch_bend_c, 13, 9712
4, 152182, Pitch_bend_c, 13, 9861
4, 152183, Pitch_bend_c, 13, 10159
4, 152184, Pitch_bend_c, 13, 10309
4, 152188, Pitch_bend_c, 13, 10794
4, 152188, Pitch_bend_c, 13, 10470
4, 152189, Pitch_bend_c, 13, 10956
4, 152193, Pitch_bend_c, 13, 11652
4, 152193, Pitch_bend_c, 13, 11188
4, 152194, Pitch_bend_c, 13, 11885
4, 152198, Pitch_bend_c, 13, 12575
4, 152198, Pitch_bend_c, 13, 12115
4, 152201, Pitch_bend_c, 13, 12806
4, 152203, Pitch_bend_c, 13, 13033
4, 152205, Pitch_bend_c, 13, 13716
4, 152205, Pitch_bend_c, 13, 13488
4, 152209, Pitch_bend_c, 13, 13959
4, 152210, Pitch_bend_c, 13, 14446
4, 152211, Pitch_bend_c, 13, 14690
4, 152215, Pitch_bend_c, 13, 14916
4, 152216, Pitch_bend_c, 13, 15369
4, 152217, Pitch_bend_c, 13, 15596
4, 152220, Pitch_bend_c, 13, 15792
4, 152221, Pitch_bend_c, 13, 16186
4, 152222, Pitch_bend_c, 13, 16383
4, 152256, Note_off_c, 13, 71, 64
4, 152367, Pitch_bend_c, 13, 16081
4, 152368, Pitch_bend_c, 13, 15478
4, 152369, Pitch_bend_c, 13, 15177
4, 152373, Pitch_bend_c, 13, 14711
4, 152374, Pitch_bend_c, 13, 13780
4, 152375, Pitch_bend_c, 13, 13315
4, 152379, Pitch_bend_c, 13, 12918
4, 152380, Pitch_bend_c, 13, 11727
4, 152380, Pitch_bend_c, 13, 12124
4, 152383, Pitch_bend_c, 13, 11390
4, 152384, Pitch_bend_c, 13, 10382
4, 152384, Pitch_bend_c, 13, 10718
4, 152388, Pitch_bend_c, 13, 10199
4, 152390, Pitch_bend_c, 13, 9834
4, 152391, Pitch_bend_c, 13, 9652
4, 152394, Pitch_bend_c, 13, 9515
4, 152395, Pitch_bend_c, 13, 9241
4, 152396, Pitch_bend_c, 13, 9105
4, 152399, Pitch_bend_c, 13, 9009
4, 152401, Pitch_bend_c, 13, 8817
4, 152402, Pitch_bend_c, 13, 8721
4, 152406, Pitch_bend_c, 13, 8639
4, 152407, Pitch_bend_c, 13, 8395
4, 152407, Pitch_bend_c, 13, 8476
4, 152410, Pitch_bend_c, 13, 8344
4, 152411, Pitch_bend_c, 13, 8242
4, 152412, Pitch_bend_c, 13, 8192
4, 152832, Note_on_c, 13, 71, 100
4, 152912, Pitch_bend_c, 13, 8392
4, 152913, Pitch_bend_c, 13, 8992
4, 152913, Pitch_bend_c, 13, 8792
4, 152917, Pitch_bend_c, 13, 9357
4, 152918, Pitch_bend_c, 13, 10089
4, 152919, Pitch_bend_c, 13, 10455
4, 152923, Pitch_bend_c, 13, 10931
4, 152924, Pitch_bend_c, 13, 11885
4, 152925, Pitch_bend_c, 13, 12362
4, 152927, Pitch_bend_c, 13, 12740
4, 152929, Pitch_bend_c, 13, 13498
4, 152930, Pitch_bend_c, 13, 13877
4, 152933, Pitch_bend_c, 13, 14178
4, 152934, Pitch_bend_c, 13, 14780
4, 152936, Pitch_bend_c, 13, 15081
4, 152938, Pitch_bend_c, 13, 15338
4, 152940, Pitch_bend_c, 13, 16110
4, 152940, Pitch_bend_c, 13, 15852
4, 152944, Pitch_bend_c, 13, 16178
4, 152945, Pitch_bend_c, 13, 16314
4, 152947, Pitch_bend_c, 13, 16383
4, 153024, Note_off_c, 13, 71, 64
4, 153069, Pitch_bend_c, 13, 16008
4, 153070, Pitch_bend_c, 13, 15258
4, 153071, Pitch_bend_c, 13, 14883
4, 153074, Pitch_bend_c, 13, 14476
4, 153076, Pitch_bend_c, 13, 13663
4, 153077, Pitch_bend_c, 13, 13257
4, 153081, Pitch_bend_c, 13, 12875
4, 153082, Pitch_bend_c, 13, 12113
4, 153083, Pitch_bend_c, 13, 11732
4, 153086, Pitch_bend_c, 13, 11387
4, 153087, Pitch_bend_c, 13, 10698
4, 153088, Pitch_bend_c, 13, 10354
4, 153091, Pitch_bend_c, 13, 9714
4, 153091, Pitch_bend_c, 13, 10140
4, 153093, Pitch_bend_c, 13, 9501
4, 153097, Pitch_bend_c, 13, 8997
4, 153097, Pitch_bend_c, 13, 9333
4, 153098, Pitch_bend_c, 13, 8829
4, 153102, Pitch_bend_c, 13, 8717
4, 153103, Pitch_bend_c, 13, 8493
4, 153104, Pitch_bend_c, 13, 8382
4, 153108, Pitch_bend_c, 13, 8334
4, 153109, Pitch_bend_c, 13, 8239
4, 153110, Pitch_bend_c, 13, 8192
4, 153600, Note_on_c, 13, 71, 100
4, 153685, Pitch_bend_c, 13, 8249
4, 153686, Pitch_bend_c, 13, 8364
4, 153687, Pitch_bend_c, 13, 8422
4, 153690, Pitch_bend_c, 13, 8669
4, 153691, Pitch_bend_c, 13, 9163
4, 153692, Pitch_bend_c, 13, 9411
4, 153695, Pitch_bend_c, 13, 9727
4, 153696, Pitch_bend_c, 13, 10359
4, 153698, Pitch_bend_c, 13, 10675
4, 153701, Pitch_bend_c, 13, 11072
4, 153703, Pitch_bend_c, 13, 12266
4, 153703, Pitch_bend_c, 13, 11868
4, 153707, Pitch_bend_c, 13, 12632
4, 153708, Pitch_bend_c, 13, 13364
4, 153709, Pitch_bend_c, 13, 13731
4, 153713, Pitch_bend_c, 13, 15513
4, 153713, Pitch_bend_c, 13, 15067
4, 153713, Pitch_bend_c, 13, 14176
4, 153717, Pitch_bend_c, 13, 15730
4, 153718, Pitch_bend_c, 13, 16383
4, 153718, Pitch_bend_c, 13, 16165
4, 153792, Note_off_c, 13, 71, 64
4, 153836, Pitch_bend_c, 13, 16028
4, 153838, Pitch_bend_c, 13, 15320
4, 153839, Pitch_bend_c, 13, 14966
4, 153842, Pitch_bend_c, 13, 14543
4, 153844, Pitch_bend_c, 13, 13697
4, 153845, Pitch_bend_c, 13, 13275
4, 153849, Pitch_bend_c, 13, 12860
4, 153850, Pitch_bend_c, 13, 12030
4, 153851, Pitch_bend_c, 13, 11616
4, 153853, Pitch_bend_c, 13, 11245
4, 153854, Pitch_bend_c, 13, 10503
4, 153855, Pitch_bend_c, 13, 10133
4, 153859, Pitch_bend_c, 13, 9470
4, 153859, Pitch_bend_c, 13, 9912
4, 153861, Pitch_bend_c, 13, 9250
4, 153863, Pitch_bend_c, 13, 9093
4, 153865, Pitch_bend_c, 13, 8779
4, 153866, Pitch_bend_c, 13, 8623
4, 153870, Pitch_bend_c, 13, 8299
4, 153870, Pitch_bend_c, 13, 8515
4, 153871, Pitch_bend_c, 13, 8192
4, 154368, Note_on_c, 13, 71, 100
4, 154452, Pitch_bend_c, 13, 8270
4, 154452, Pitch_bend_c, 13, 8218
4, 154454, Pitch_bend_c, 13, 8297
4, 154457, Pitch_bend_c, 13, 8648
4, 154459, Pitch_bend_c, 13, 9350
4, 154460, Pitch_bend_c, 13, 9702
4, 154463, Pitch_bend_c, 13, 10290
4, 154464, Pitch_bend_c, 13, 12055
4, 154464, Pitch_bend_c, 13, 11466
4, 154469, Pitch_bend_c, 13, 12710
4, 154470, Pitch_bend_c, 13, 14020
4, 154471, Pitch_bend_c, 13, 14675
4, 154475, Pitch_bend_c, 13, 15102
4, 154476, Pitch_bend_c, 13, 15956
4, 154477, Pitch_bend_c, 13, 16383
4, 154560, Note_off_c, 13, 71, 64
4, 154594, Pitch_bend_c, 13, 15124
4, 154594, Pitch_bend_c, 13, 15963
4, 154596, Pitch_bend_c, 13, 14705
4, 154599, Pitch_bend_c, 13, 14282
4, 154601, Pitch_bend_c, 13, 13436
4, 154602, Pitch_bend_c, 13, 13014
4, 154605, Pitch_bend_c, 13, 12616
4, 154606, Pitch_bend_c, 13, 11423
4, 154606, Pitch_bend_c, 13, 11820
4, 154610, Pitch_bend_c, 13, 11016
4, 154612, Pitch_bend_c, 13, 9795
4, 154612, Pitch_bend_c, 13, 10202
4, 154615, Pitch_bend_c, 13, 9464
4, 154616, Pitch_bend_c, 13, 8803
4, 154617, Pitch_bend_c, 13, 8473
4, 154621, Pitch_bend_c, 13, 8402
4, 154622, Pitch_bend_c, 13, 8262
4, 154623, Pitch_bend_c, 13, 8192
4, 155136, Note_on_c, 13, 71, 100
4, 155198, Pitch_bend_c, 13, 8215
4, 155199, Pitch_bend_c, 13, 8263
4, 155200, Pitch_bend_c, 13, 8287
4, 155204, Pitch_bend_c, 13, 8603
4, 155205, Pitch_bend_c, 13, 9237
4, 155206, Pitch_bend_c, 13, 9554
4, 155210, Pitch_bend_c, 13, 9964
4, 155211, Pitch_bend_c, 13, 10786
4, 155212, Pitch_bend_c, 13, 11197
4, 155214, Pitch_bend_c, 13, 11800
4, 155215, Pitch_bend_c, 13, 13006
4, 155217, Pitch_bend_c, 13, 13609
4, 155220, Pitch_bend_c, 13, 14226
4, 155221, Pitch_bend_c, 13, 15460
4, 155222, Pitch_bend_c, 13, 16077
4, 155226, Pitch_bend_c, 13, 16153
4, 155227, Pitch_bend_c, 13, 16306
4, 155228, Pitch_bend_c, 13, 16383
4, 155307, Pitch_bend_c, 13, 16063
4, 155309, Pitch_bend_c, 13, 15106
4, 155309, Pitch_bend_c, 13, 15425
4, 155313, Pitch_bend_c, 13, 13841
4, 155313, Pitch_bend_c, 13, 14684
4, 155315, Pitch_bend_c, 13, 13420
4, 155318, Pitch_bend_c, 13, 12982
4, 155320, Pitch_bend_c, 13, 12106
4, 155321, Pitch_bend_c, 13, 11669
4, 155323, Pitch_bend_c, 13, 11230
4, 155324, Pitch_bend_c, 13, 10352
4, 155325, Pitch_bend_c, 13, 9913
4, 155328, Note_off_c, 13, 71, 64
4, 155329, Pitch_bend_c, 13, 9545
4, 155330, Pitch_bend_c, 13, 8809
4, 155331, Pitch_bend_c, 13, 8442
4, 155335, Pitch_bend_c, 13, 8379
4, 155336, Pitch_bend_c, 13, 8254
4, 155337, Pitch_bend_c, 13, 8192
4, 155424, Note_on_c, 13, 71, 100
4, 155514, Pitch_bend_c, 13, 8589
4, 155515, Pitch_bend_c, 13, 9384
4, 155516, Pitch_bend_c, 13, 9782
4, 155519, Pitch_bend_c, 13, 10428
4, 155520, Pitch_bend_c, 13, 11720
4, 155522, Pitch_bend_c, 13, 12367
4, 155525, Pitch_bend_c, 13, 13178
4, 155526, Pitch_bend_c, 13, 14801
4, 155527, Pitch_bend_c, 13, 15613
4, 155530, Pitch_bend_c, 13, 15805
4, 155532, Pitch_bend_c, 13, 16383
4, 155532, Pitch_bend_c, 13, 16190
4, 155616, Note_off_c, 13, 71, 64
4, 155682, Pitch_bend_c, 13, 16146
4, 155683, Pitch_bend_c, 13, 15672
4, 155685, Pitch_bend_c, 13, 15435
4, 155688, Pitch_bend_c, 13, 14713
4, 155689, Pitch_bend_c, 13, 13269
4, 155691, Pitch_bend_c, 13, 12547
4, 155693, Pitch_bend_c, 13, 11980
4, 155695, Pitch_bend_c, 13, 10846
4, 155696, Pitch_bend_c, 13, 10279
4, 155700, Pitch_bend_c, 13, 9757
4, 155701, Pitch_bend_c, 13, 8713
4, 155702, Pitch_bend_c, 13, 8192
4, 155712, Note_on_c, 13, 71, 100
4, 155803, Pitch_bend_c, 13, 8486
4, 155804, Pitch_bend_c, 13, 9076
4, 155805, Pitch_bend_c, 13, 9371
4, 155809, Pitch_bend_c, 13, 9853
4, 155810, Pitch_bend_c, 13, 10817
4, 155811, Pitch_bend_c, 13, 11300
4, 155813, Pitch_bend_c, 13, 11860
4, 155814, Pitch_bend_c, 13, 12980
4, 155816, Pitch_bend_c, 13, 13541
4, 155819, Pitch_bend_c, 13, 15147
4, 155819, Pitch_bend_c, 13, 14076
4, 155821, Pitch_bend_c, 13, 15683
4, 155824, Pitch_bend_c, 13, 15858
4, 155826, Pitch_bend_c, 13, 16383
4, 155826, Pitch_bend_c, 13, 16208
4, 155999, Pitch_bend_c, 13, 15759
4, 156000, Pitch_bend_c, 13, 14511
4, 156001, Pitch_bend_c, 13, 13887
4, 156004, Pitch_bend_c, 13, 13274
4, 156005, Pitch_bend_c, 13, 12050
4, 156006, Pitch_bend_c, 13, 11438
4, 156009, Pitch_bend_c, 13, 10970
4, 156010, Pitch_bend_c, 13, 10034
4, 156012, Pitch_bend_c, 13, 9566
4, 156015, Pitch_bend_c, 13, 9222
4, 156016, Pitch_bend_c, 13, 8192
4, 156016, Pitch_bend_c, 13, 8535
4, 156288, Note_off_c, 13, 71, 64
4, 156480, Note_on_c, 13, 71, 100
4, 156668, Pitch_bend_c, 13, 8200
4, 156670, Pitch_bend_c, 13, 8216
4, 156671, Pitch_bend_c, 13, 8224
4, 156674, Pitch_bend_c, 13, 8274
4, 156675, Pitch_bend_c, 13, 8427
4, 156675, Pitch_bend_c, 13, 8376
4, 156680, Pitch_bend_c, 13, 8489
4, 156680, Pitch_bend_c, 13, 8447
4, 156682, Pitch_bend_c, 13, 8510
4, 156684, Pitch_bend_c, 13, 8520
4, 156686, Pitch_bend_c, 13, 8553
4, 156686, Pitch_bend_c, 13, 8542
4, 156689, Pitch_bend_c, 13, 8566
4, 156691, Pitch_bend_c, 13, 8594
4, 156692, Pitch_bend_c, 13, 8608
4, 156696, Pitch_bend_c, 13, 8634
4, 156697, Pitch_bend_c, 13, 8686
4, 156698, Pitch_bend_c, 13, 8713
4, 156701, Pitch_bend_c, 13, 8735
4, 156703, Pitch_bend_c, 13, 8781
4, 156704, Pitch_bend_c, 13, 8804
4, 156707, Pitch_bend_c, 13, 8843
4, 156707, Pitch_bend_c, 13, 8817
4, 156709, Pitch_bend_c, 13, 8856
4, 156711, Pitch_bend_c, 13, 8868
4, 156712, Pitch_bend_c, 13, 8892
4, 156713, Pitch_bend_c, 13, 8904
4, 156717, Pitch_bend_c, 13, 8929
4, 156718, Pitch_bend_c, 13, 8979
4, 156719, Pitch_bend_c, 13, 9004
4, 156723, Pitch_bend_c, 13, 9030
4, 156724, Pitch_bend_c, 13, 9083
4, 156725, Pitch_bend_c, 13, 9110
4, 156728, Pitch_bend_c, 13, 9136
4, 156730, Pitch_bend_c, 13, 9188
4, 156731, Pitch_bend_c, 13, 9215
4, 156734, Pitch_bend_c, 13, 9232
4, 156735, Pitch_bend_c, 13, 9267
4, 156737, Pitch_bend_c, 13, 9285
4, 156739, Pitch_bend_c, 13, 9299
4, 156740, Pitch_bend_c, 13, 9327
4, 156741, Pitch_bend_c, 13, 9341
4, 156745, Pitch_bend_c, 13, 9387
4, 156745, Pitch_bend_c, 13, 9356
4, 156747, Pitch_bend_c, 13, 9403
4, 156750, Pitch_bend_c, 13, 9408
4, 156751, Pitch_bend_c, 13, 9418
4, 156752, Pitch_bend_c, 13, 9423
4, 156765, Pitch_bend_c, 13, 9351
4, 156767, Pitch_bend_c, 13, 9207
4, 156768, Pitch_bend_c, 13, 9135
4, 156772, Pitch_bend_c, 13, 9042
4, 156773, Pitch_bend_c, 13, 8856
4, 156774, Pitch_bend_c, 13, 8764
4, 156777, Pitch_bend_c, 13, 8657
4, 156779, Pitch_bend_c, 13, 8443
4, 156780, Pitch_bend_c, 13, 8337
4, 156783, Pitch_bend_c, 13, 8300
4, 156784, Pitch_bend_c, 13, 8228
4, 156785, Pitch_bend_c, 13, 8192
4, 156902, Pitch_bend_c, 13, 8114
4, 156902, Pitch_bend_c, 13, 8166
4, 156904, Pitch_bend_c, 13, 8088
4, 156908, Pitch_bend_c, 13, 8025
4, 156909, Pitch_bend_c, 13, 7899
4, 156910, Pitch_bend_c, 13, 7837
4, 156913, Pitch_bend_c, 13, 7810
4, 156915, Pitch_bend_c, 13, 7756
4, 156916, Pitch_bend_c, 13, 7730
4, 156919, Pitch_bend_c, 13, 7729
4, 156920, Pitch_bend_c, 13, 7727
4, 156925, Pitch_bend_c, 13, 7691
4, 156926, Pitch_bend_c, 13, 7586
4, 156926, Pitch_bend_c, 13, 7621
4, 156930, Pitch_bend_c, 13, 7484
4, 156930, Pitch_bend_c, 13, 7552
4, 156931, Pitch_bend_c, 13, 7450
4, 156935, Pitch_bend_c, 13, 7447
4, 156935, Pitch_bend_c, 13, 7449
4, 156937, Pitch_bend_c, 13, 7446
4, 156940, Pitch_bend_c, 13, 7412
4, 156941, Pitch_bend_c, 13, 7346
4, 156943, Pitch_bend_c, 13, 7313
4, 156946, Pitch_bend_c, 13, 7312
4, 156947, Pitch_bend_c, 13, 7310
4, 156952, Pitch_bend_c, 13, 7309
4, 156953, Pitch_bend_c, 13, 7307
4, 156954, Pitch_bend_c, 13, 7306
4, 156957, Pitch_bend_c, 13, 7264
4, 156958, Pitch_bend_c, 13, 7181
4, 156959, Pitch_bend_c, 13, 7140
4, 156962, Pitch_bend_c, 13, 7139
4, 156963, Pitch_bend_c, 13, 7137
4, 156965, Pitch_bend_c, 13, 7136
4, 156968, Pitch_bend_c, 13, 7079
4, 156969, Pitch_bend_c, 13, 6967
4, 156970, Pitch_bend_c, 13, 6911
4, 156974, Pitch_bend_c, 13, 6811
4, 156974, Pitch_bend_c, 13, 6836
4, 156974, Pitch_bend_c, 13, 6886
4, 156979, Pitch_bend_c, 13, 6810
4, 156981, Pitch_bend_c, 13, 6808
4, 156984, Pitch_bend_c, 13, 6667
4, 156984, Pitch_bend_c, 13, 6761
4, 156986, Pitch_bend_c, 13, 6620
4, 156989, Pitch_bend_c, 13, 6583
4, 156991, Pitch_bend_c, 13, 6509
4, 156992, Pitch_bend_c, 13, 6472
4, 156995, Pitch_bend_c, 13, 6429
4, 156996, Pitch_bend_c, 13, 6344
4, 156998, Pitch_bend_c, 13, 6302
4, 157001, Pitch_bend_c, 13, 6270
4, 157002, Pitch_bend_c, 13, 6208
4, 157003, Pitch_bend_c, 13, 6177
4, 157006, Pitch_bend_c, 13, 6176
4, 157007, Pitch_bend_c, 13, 6174
4, 157008, Pitch_bend_c, 13, 6173
4, 157011, Pitch_bend_c, 13, 6172
4, 157012, Pitch_bend_c, 13, 6169
4, 157012, Pitch_bend_c, 13, 6170
4, 157016, Pitch_bend_c, 13, 6134
4, 157017, Pitch_bend_c, 13, 6064
4, 157018, Pitch_bend_c, 13, 6029
4, 157022, Pitch_bend_c, 13, 6028
4, 157023, Pitch_bend_c, 13, 6026
4, 157025, Pitch_bend_c, 13, 6025
4, 157028, Pitch_bend_c, 13, 5996
4, 157029, Pitch_bend_c, 13, 5939
4, 157030, Pitch_bend_c, 13, 5911
4, 157034, Pitch_bend_c, 13, 5910
4, 157035, Pitch_bend_c, 13, 5908
4, 157036, Pitch_bend_c, 13, 5907
4, 157038, Pitch_bend_c, 13, 5876
4, 157040, Pitch_bend_c, 13, 5786
4, 157040, Pitch_bend_c, 13, 5816
4, 157044, Pitch_bend_c, 13, 5785
4, 157045, Pitch_bend_c, 13, 5783
4, 157046, Pitch_bend_c, 13, 5782
4, 157049, Pitch_bend_c, 13, 5781
4, 157051, Pitch_bend_c, 13, 5778
4, 157051, Pitch_bend_c, 13, 5779
4, 157055, Pitch_bend_c, 13, 5678
4, 157055, Pitch_bend_c, 13, 5744
4, 157058, Pitch_bend_c, 13, 5645
4, 157061, Pitch_bend_c, 13, 5619
4, 157062, Pitch_bend_c, 13, 5567
4, 157063, Pitch_bend_c, 13, 5542
4, 157065, Pitch_bend_c, 13, 5518
4, 157067, Pitch_bend_c, 13, 5470
4, 157068, Pitch_bend_c, 13, 5446
4, 157071, Pitch_bend_c, 13, 5445
4, 157072, Pitch_bend_c, 13, 5443
4, 157074, Pitch_bend_c, 13, 5442
4, 157076, Pitch_bend_c, 13, 5406
4, 157078, Pitch_bend_c, 13, 5334
4, 157079, Pitch_bend_c, 13, 5298
4, 157083, Pitch_bend_c, 13, 5295
4, 157083, Pitch_bend_c, 13, 5297
4, 157087, Pitch_bend_c, 13, 5264
4, 157088, Pitch_bend_c, 13, 5203
4, 157090, Pitch_bend_c, 13, 5173
4, 157092, Pitch_bend_c, 13, 5172
4, 157094, Pitch_bend_c, 13, 5170
4, 157095, Pitch_bend_c, 13, 5169
4, 157098, Pitch_bend_c, 13, 5146
4, 157099, Pitch_bend_c, 13, 5100
4, 157101, Pitch_bend_c, 13, 5077
4, 157104, Pitch_bend_c, 13, 5076
4, 157105, Pitch_bend_c, 13, 5074
4, 157106, Pitch_bend_c, 13, 5073
4, 157110, Pitch_bend_c, 13, 5035
4, 157111, Pitch_bend_c, 13, 4959
4, 157112, Pitch_bend_c, 13, 4922
4, 157116, Pitch_bend_c, 13, 4919
4, 157116, Pitch_bend_c, 13, 4921
4, 157117, Pitch_bend_c, 13, 4918
4, 157119, Pitch_bend_c, 13, 4895
4, 157121, Pitch_bend_c, 13, 4826
4, 157121, Pitch_bend_c, 13, 4849
4, 157125, Pitch_bend_c, 13, 4825
4, 157126, Pitch_bend_c, 13, 4823
4, 157128, Pitch_bend_c, 13, 4822
4, 157131, Pitch_bend_c, 13, 4782
4, 157133, Pitch_bend_c, 13, 4664
4, 157133, Pitch_bend_c, 13, 4703
4, 157137, Pitch_bend_c, 13, 4663
4, 157138, Pitch_bend_c, 13, 4661
4, 157139, Pitch_bend_c, 13, 4660
4, 157143, Pitch_bend_c, 13, 4631
4, 157144, Pitch_bend_c, 13, 4574
4, 157145, Pitch_bend_c, 13, 4546
4, 157147, Pitch_bend_c, 13, 4545
4, 157148, Pitch_bend_c, 13, 4543
4, 157150, Pitch_bend_c, 13, 4542
4, 157153, Pitch_bend_c, 13, 4431
4, 157153, Pitch_bend_c, 13, 4505
4, 157155, Pitch_bend_c, 13, 4394
4, 157158, Pitch_bend_c, 13, 4393
4, 157159, Pitch_bend_c, 13, 4391
4, 157164, Pitch_bend_c, 13, 4390
4, 157165, Pitch_bend_c, 13, 4388
4, 157166, Pitch_bend_c, 13, 4387
4, 157169, Pitch_bend_c, 13, 4348
4, 157171, Pitch_bend_c, 13, 4270
4, 157172, Pitch_bend_c, 13, 4232
4, 157174, Pitch_bend_c, 13, 4231
4, 157175, Pitch_bend_c, 13, 4229
4, 157177, Pitch_bend_c, 13, 4228
4, 157180, Pitch_bend_c, 13, 4227
4, 157181, Pitch_bend_c, 13, 4225
4, 157186, Pitch_bend_c, 13, 4196
4, 157187, Pitch_bend_c, 13, 4138
4, 157188, Pitch_bend_c, 13, 4110
4, 157192, Pitch_bend_c, 13, 4107
4, 157192, Pitch_bend_c, 13, 4109
4, 157197, Pitch_bend_c, 13, 4080
4, 157198, Pitch_bend_c, 13, 4026
4, 157199, Pitch_bend_c, 13, 4000
4, 157201, Pitch_bend_c, 13, 3973
4, 157203, Pitch_bend_c, 13, 3919
4, 157204, Pitch_bend_c, 13, 3893
4, 157207, Pitch_bend_c, 13, 3892
4, 157208, Pitch_bend_c, 13, 3890
4, 157209, Pitch_bend_c, 13, 3889
4, 157213, Pitch_bend_c, 13, 3866
4, 157214, Pitch_bend_c, 13, 3820
4, 157215, Pitch_bend_c, 13, 3797
4, 157219, Pitch_bend_c, 13, 3796
4, 157220, Pitch_bend_c, 13, 3794
4, 157221, Pitch_bend_c, 13, 3793
4, 157224, Pitch_bend_c, 13, 3754
4, 157226, Pitch_bend_c, 13, 3638
4, 157226, Pitch_bend_c, 13, 3676
4, 157229, Pitch_bend_c, 13, 3612
4, 157230, Pitch_bend_c, 13, 3535
4, 157230, Pitch_bend_c, 13, 3560
4, 157234, Pitch_bend_c, 13, 3534
4, 157236, Pitch_bend_c, 13, 3532
4, 157237, Pitch_bend_c, 13, 3531
4, 157240, Pitch_bend_c, 13, 3498
4, 157241, Pitch_bend_c, 13, 3434
4, 157242, Pitch_bend_c, 13, 3402
4, 157246, Pitch_bend_c, 13, 3401
4, 157247, Pitch_bend_c, 13, 3399
4, 157248, Pitch_bend_c, 13, 3398
4, 157252, Pitch_bend_c, 13, 3365
4, 157253, Pitch_bend_c, 13, 3301
4, 157254, Pitch_bend_c, 13, 3269
4, 157256, Pitch_bend_c, 13, 3245
4, 157257, Pitch_bend_c, 13, 3197
4, 157258, Pitch_bend_c, 13, 3173
4, 157262, Pitch_bend_c, 13, 3170
4, 157262, Pitch_bend_c, 13, 3172
4, 157264, Pitch_bend_c, 13, 3169
4, 157267, Pitch_bend_c, 13, 3136
4, 157269, Pitch_bend_c, 13, 3040
4, 157269, Pitch_bend_c, 13, 3072
4, 157273, Pitch_bend_c, 13, 3039
4, 157274, Pitch_bend_c, 13, 3037
4, 157275, Pitch_bend_c, 13, 3036
4, 157279, Pitch_bend_c, 13, 3012
4, 157280, Pitch_bend_c, 13, 2964
4, 157281, Pitch_bend_c, 13, 2941
4, 157283, Pitch_bend_c, 13, 2940
4, 157284, Pitch_bend_c, 13, 2938
4, 157286, Pitch_bend_c, 13, 2937
4, 157289, Pitch_bend_c, 13, 2907
4, 157290, Pitch_bend_c, 13, 2848
4, 157291, Pitch_bend_c, 13, 2819
4, 157295, Pitch_bend_c, 13, 2818
4, 157296, Pitch_bend_c, 13, 2816
4, 157297, Pitch_bend_c, 13, 2815
4, 157300, Pitch_bend_c, 13, 2814
4, 157302, Pitch_bend_c, 13, 2811
4, 157302, Pitch_bend_c, 13, 2812
4, 157306, Pitch_bend_c, 13, 2712
4, 157306, Pitch_bend_c, 13, 2778
4, 157307, Pitch_bend_c, 13, 2679
4, 157310, Pitch_bend_c, 13, 2676
4, 157310, Pitch_bend_c, 13, 2678
4, 157313, Pitch_bend_c, 13, 2675
4, 157316, Pitch_bend_c, 13, 2674
4, 157317, Pitch_bend_c, 13, 2672
4, 157318, Pitch_bend_c, 13, 2671
4, 157322, Pitch_bend_c, 13, 2566
4, 157322, Pitch_bend_c, 13, 2636
4, 157324, Pitch_bend_c, 13, 2531
4, 157328, Pitch_bend_c, 13, 2530
4, 157329, Pitch_bend_c, 13, 2528
4, 157330, Pitch_bend_c, 13, 2527
4, 157333, Pitch_bend_c, 13, 2526
4, 157334, Pitch_bend_c, 13, 2524
4, 157338, Pitch_bend_c, 13, 2521
4, 157338, Pitch_bend_c, 13, 2523
4, 157339, Pitch_bend_c, 13, 2520
4, 157343, Pitch_bend_c, 13, 2439
4, 157343, Pitch_bend_c, 13, 2493
4, 157345, Pitch_bend_c, 13, 2413
4, 157348, Pitch_bend_c, 13, 2412
4, 157350, Pitch_bend_c, 13, 2410
4, 157351, Pitch_bend_c, 13, 2409
4, 157354, Pitch_bend_c, 13, 2408
4, 157356, Pitch_bend_c, 13, 2405
4, 157356, Pitch_bend_c, 13, 2406
4, 157360, Pitch_bend_c, 13, 2376
4, 157362, Pitch_bend_c, 13, 2319
4, 157363, Pitch_bend_c, 13, 2291
4, 157365, Pitch_bend_c, 13, 2290
4, 157366, Pitch_bend_c, 13, 2288
4, 157367, Pitch_bend_c, 13, 2287
4, 157371, Pitch_bend_c, 13, 2198
4, 157371, Pitch_bend_c, 13, 2257
4, 157373, Pitch_bend_c, 13, 2169
4, 157376, Pitch_bend_c, 13, 2168
4, 157378, Pitch_bend_c, 13, 2166
4, 157382, Pitch_bend_c, 13, 2074
4, 157382, Pitch_bend_c, 13, 2135
4, 157384, Pitch_bend_c, 13, 2044
4, 157387, Pitch_bend_c, 13, 2021
4, 157388, Pitch_bend_c, 13, 1975
4, 157390, Pitch_bend_c, 13, 1952
4, 157391, Pitch_bend_c, 13, 1951
4, 157393, Pitch_bend_c, 13, 1949
4, 157394, Pitch_bend_c, 13, 1948
4, 157398, Pitch_bend_c, 13, 1925
4, 157399, Pitch_bend_c, 13, 1879
4, 157400, Pitch_bend_c, 13, 1856
4, 157404, Pitch_bend_c, 13, 1855
4, 157405, Pitch_bend_c, 13, 1853
4, 157406, Pitch_bend_c, 13, 1852
4, 157409, Pitch_bend_c, 13, 1851
4, 157411, Pitch_bend_c, 13, 1848
4, 157411, Pitch_bend_c, 13, 1849
4, 157415, Pitch_bend_c, 13, 1823
4, 157416, Pitch_bend_c, 13, 1749
4, 157416, Pitch_bend_c, 13, 1773
4, 157419, Pitch_bend_c, 13, 1748
4, 157420, Pitch_bend_c, 13, 1746
4, 157421, Pitch_bend_c, 13, 1745
4, 157424, Pitch_bend_c, 13, 1744
4, 157426, Pitch_bend_c, 13, 1742
4, 157427, Pitch_bend_c, 13, 1741
4, 157431, Pitch_bend_c, 13, 1666
4, 157431, Pitch_bend_c, 13, 1716
4, 157432, Pitch_bend_c, 13, 1642
4, 157436, Pitch_bend_c, 13, 1641
4, 157438, Pitch_bend_c, 13, 1639
4, 157439, Pitch_bend_c, 13, 1638
4, 157442, Pitch_bend_c, 13, 1612
4, 157443, Pitch_bend_c, 13, 1560
4, 157444, Pitch_bend_c, 13, 1535
4, 157447, Pitch_bend_c, 13, 1534
4, 157449, Pitch_bend_c, 13, 1531
4, 157449, Pitch_bend_c, 13, 1532
4, 157452, Pitch_bend_c, 13, 1528
4, 157452, Pitch_bend_c, 13, 1530
4, 157454, Pitch_bend_c, 13, 1527
4, 157458, Pitch_bend_c, 13, 1526
4, 157459, Pitch_bend_c, 13, 1524
4, 157463, Pitch_bend_c, 13, 1500
4, 157464, Pitch_bend_c, 13, 1454
4, 157465, Pitch_bend_c, 13, 1431
4, 157469, Pitch_bend_c, 13, 1430
4, 157470, Pitch_bend_c, 13, 1428
4, 157474, Pitch_bend_c, 13, 1427
4, 157475, Pitch_bend_c, 13, 1425
4, 157476, Pitch_bend_c, 13, 1424
4, 157480, Pitch_bend_c, 13, 1423
4, 157481, Pitch_bend_c, 13, 1421
4, 157482, Pitch_bend_c, 13, 1420
4, 157485, Pitch_bend_c, 13, 1419
4, 157487, Pitch_bend_c, 13, 1416
4, 157487, Pitch_bend_c, 13, 1417
4, 157491, Pitch_bend_c, 13, 1388
4, 157492, Pitch_bend_c, 13, 1333
4, 157493, Pitch_bend_c, 13, 1306
4, 157496, Pitch_bend_c, 13, 1305
4, 157497, Pitch_bend_c, 13, 1303
4, 157499, Pitch_bend_c, 13, 1302
4, 157501, Pitch_bend_c, 13, 1301
4, 157502, Pitch_bend_c, 13, 1299
4, 157503, Pitch_bend_c, 13, 1298
4, 157507, Pitch_bend_c, 13, 1297
4, 157508, Pitch_bend_c, 13, 1295
4, 157512, Pitch_bend_c, 13, 1294
4, 157514, Pitch_bend_c, 13, 1292
4, 157515, Pitch_bend_c, 13, 1291
4, 157518, Pitch_bend_c, 13, 1290
4, 157519, Pitch_bend_c, 13, 1288
4, 157520, Pitch_bend_c, 13, 1287
4, 157524, Pitch_bend_c, 13, 1204
4, 157524, Pitch_bend_c, 13, 1259
4, 157526, Pitch_bend_c, 13, 1177
4, 157528, Pitch_bend_c, 13, 1174
4, 157528, Pitch_bend_c, 13, 1176
4, 157529, Pitch_bend_c, 13, 1173
4, 157533, Pitch_bend_c, 13, 1172
4, 157535, Pitch_bend_c, 13, 1170
4, 157536, Pitch_bend_c, 13, 1169
4, 157540, Pitch_bend_c, 13, 1166
4, 157540, Pitch_bend_c, 13, 1168
4, 157545, Pitch_bend_c, 13, 1165
4, 157546, Pitch_bend_c, 13, 1163
4, 157548, Pitch_bend_c, 13, 1162
4, 157551, Pitch_bend_c, 13, 1137
4, 157552, Pitch_bend_c, 13, 1087
4, 157553, Pitch_bend_c, 13, 1062
4, 157572, Pitch_bend_c, 13, 1061
4, 157574, Pitch_bend_c, 13, 1059
4, 157578, Pitch_bend_c, 13, 1058
4, 157579, Pitch_bend_c, 13, 1056
4, 157580, Pitch_bend_c, 13, 1055
4, 157583, Pitch_bend_c, 13, 1030
4, 157584, Pitch_bend_c, 13, 980
4, 157585, Pitch_bend_c, 13, 955
4, 157588, Pitch_bend_c, 13, 954
4, 157590, Pitch_bend_c, 13, 952
4, 157594, Pitch_bend_c, 13, 951
4, 157595, Pitch_bend_c, 13, 949
4, 157596, Pitch_bend_c, 13, 948
4, 157600, Pitch_bend_c, 13, 945
4, 157600, Pitch_bend_c, 13, 947
4, 157602, Pitch_bend_c, 13, 944
4, 157605, Pitch_bend_c, 13, 943
4, 157607, Pitch_bend_c, 13, 940
4, 157607, Pitch_bend_c, 13, 941
4, 157610, Pitch_bend_c, 13, 937
4, 157610, Pitch_bend_c, 13, 939
4, 157616, Pitch_bend_c, 13, 911
4, 157617, Pitch_bend_c, 13, 833
4, 157617, Pitch_bend_c, 13, 859
4, 157621, Pitch_bend_c, 13, 832
4, 157622, Pitch_bend_c, 13, 830
4, 157627, Pitch_bend_c, 13, 829
4, 157628, Pitch_bend_c, 13, 827
4, 157629, Pitch_bend_c, 13, 826
4, 157633, Pitch_bend_c, 13, 823
4, 157633, Pitch_bend_c, 13, 825
4, 157634, Pitch_bend_c, 13, 822
4, 157637, Pitch_bend_c, 13, 821
4, 157638, Pitch_bend_c, 13, 819
4, 157642, Pitch_bend_c, 13, 818
4, 157644, Pitch_bend_c, 13, 816
4, 157645, Pitch_bend_c, 13, 815
4, 157648, Pitch_bend_c, 13, 814
4, 157649, Pitch_bend_c, 13, 812
4, 157651, Pitch_bend_c, 13, 811
4, 157654, Pitch_bend_c, 13, 810
4, 157655, Pitch_bend_c, 13, 808
4, 157660, Pitch_bend_c, 13, 783
4, 157661, Pitch_bend_c, 13, 733
4, 157662, Pitch_bend_c, 13, 708
4, 157665, Pitch_bend_c, 13, 707
4, 157666, Pitch_bend_c, 13, 705
4, 157667, Pitch_bend_c, 13, 704
4, 157681, Pitch_bend_c, 13, 703
4, 157682, Pitch_bend_c, 13, 701
4, 157687, Pitch_bend_c, 13, 700
4, 157688, Pitch_bend_c, 13, 698
4, 157689, Pitch_bend_c, 13, 697
4, 157692, Pitch_bend_c, 13, 696
4, 157693, Pitch_bend_c, 13, 694
4, 157694, Pitch_bend_c, 13, 693
4, 157697, Pitch_bend_c, 13, 692
4, 157699, Pitch_bend_c, 13, 690
4, 157703, Pitch_bend_c, 13, 665
4, 157704, Pitch_bend_c, 13, 615
4, 157705, Pitch_bend_c, 13, 590
4, 157709, Pitch_bend_c, 13, 589
4, 157710, Pitch_bend_c, 13, 586
4, 157710, Pitch_bend_c, 13, 587
4, 157714, Pitch_bend_c, 13, 585
4, 157715, Pitch_bend_c, 13, 583
4, 157719, Pitch_bend_c, 13, 582
4, 157720, Pitch_bend_c, 13, 580
4, 157721, Pitch_bend_c, 13, 579
4, 157724, Pitch_bend_c, 13, 578
4, 157726, Pitch_bend_c, 13, 576
4, 157727, Pitch_bend_c, 13, 575
4, 157730, Pitch_bend_c, 13, 574
4, 157731, Pitch_bend_c, 13, 572
4, 157732, Pitch_bend_c, 13, 571
4, 157736, Pitch_bend_c, 13, 570
4, 157737, Pitch_bend_c, 13, 568
4, 157742, Pitch_bend_c, 13, 567
4, 157743, Pitch_bend_c, 13, 564
4, 157743, Pitch_bend_c, 13, 565
4, 157746, Pitch_bend_c, 13, 563
4, 157747, Pitch_bend_c, 13, 561
4, 157748, Pitch_bend_c, 13, 560
4, 157751, Pitch_bend_c, 13, 535
4, 157752, Pitch_bend_c, 13, 485
4, 157754, Pitch_bend_c, 13, 461
4, 157757, Pitch_bend_c, 13, 460
4, 157758, Pitch_bend_c, 13, 458
4, 157760, Pitch_bend_c, 13, 457
4, 157762, Pitch_bend_c, 13, 456
4, 157764, Pitch_bend_c, 13, 454
4, 157765, Pitch_bend_c, 13, 453
4, 157769, Pitch_bend_c, 13, 452
4, 157770, Pitch_bend_c, 13, 450
4, 157773, Pitch_bend_c, 13, 449
4, 157775, Pitch_bend_c, 13, 447
4, 157776, Pitch_bend_c, 13, 446
4, 157779, Pitch_bend_c, 13, 443
4, 157779, Pitch_bend_c, 13, 445
4, 157781, Pitch_bend_c, 13, 442
4, 157785, Pitch_bend_c, 13, 416
4, 157786, Pitch_bend_c, 13, 339
4, 157786, Pitch_bend_c, 13, 364
4, 157790, Pitch_bend_c, 13, 338
4, 157791, Pitch_bend_c, 13, 336
4, 157793, Pitch_bend_c, 13, 335
4, 157796, Pitch_bend_c, 13, 334
4, 157797, Pitch_bend_c, 13, 332
4, 157800, Pitch_bend_c, 13, 331
4, 157802, Pitch_bend_c, 13, 329
4, 157803, Pitch_bend_c, 13, 328
4, 157806, Pitch_bend_c, 13, 293
4, 157807, Pitch_bend_c, 13, 225
4, 157808, Pitch_bend_c, 13, 191
4, 157812, Pitch_bend_c, 13, 190
4, 157813, Pitch_bend_c, 13, 188
4, 157818, Pitch_bend_c, 13, 187
4, 157819, Pitch_bend_c, 13, 184
4, 157819, Pitch_bend_c, 13, 185
4, 157823, Pitch_bend_c, 13, 183
4, 157824, Pitch_bend_c, 13, 180
4, 157824, Pitch_bend_c, 13, 181
4, 157827, Pitch_bend_c, 13, 155
4, 157828, Pitch_bend_c, 13, 105
4, 157829, Pitch_bend_c, 13, 81
4, 157833, Pitch_bend_c, 13, 80
4, 157834, Pitch_bend_c, 13, 78
4, 157835, Pitch_bend_c, 13, 77
4, 157839, Pitch_bend_c, 13, 76
4, 157840, Pitch_bend_c, 13, 74
4, 157841, Pitch_bend_c, 13, 73
4, 157845, Pitch_bend_c, 13, 72
4, 157846, Pitch_bend_c, 13, 70
4, 157851, Pitch_bend_c, 13, 69
4, 157852, Pitch_bend_c, 13, 66
4, 157852, Pitch_bend_c, 13, 67
4, 157855, Pitch_bend_c, 13, 63
4, 157855, Pitch_bend_c, 13, 65
4, 157857, Pitch_bend_c, 13, 62
4, 157860, Pitch_bend_c, 13, 61
4, 157861, Pitch_bend_c, 13, 59
4, 157866, Pitch_bend_c, 13, 58
4, 157867, Pitch_bend_c, 13, 55
4, 157867, Pitch_bend_c, 13, 56
4, 157872, Pitch_bend_c, 13, 54
4, 157873, Pitch_bend_c, 13, 52
4, 157874, Pitch_bend_c, 13, 51
4, 157878, Pitch_bend_c, 13, 38
4, 157879, Pitch_bend_c, 13, 12
4, 157880, Pitch_bend_c, 13, 0
4, 158208, Note_off_c, 13, 71, 64
4, 158259, Pitch_bend_c, 13, 22
4, 158260, Pitch_bend_c, 13, 88
4, 158260, Pitch_bend_c, 13, 66
4, 158264, Pitch_bend_c, 13, 240
4, 158264, Pitch_bend_c, 13, 138
4, 158265, Pitch_bend_c, 13, 291
4, 158269, Pitch_bend_c, 13, 476
4, 158269, Pitch_bend_c, 13, 352
4, 158271, Pitch_bend_c, 13, 538
4, 158275, Pitch_bend_c, 13, 1030
4, 158275, Pitch_bend_c, 13, 702
4, 158277, Pitch_bend_c, 13, 1195
4, 158280, Pitch_bend_c, 13, 1464
4, 158281, Pitch_bend_c, 13, 2003
4, 158283, Pitch_bend_c, 13, 2273
4, 158286, Pitch_bend_c, 13, 2643
4, 158287, Pitch_bend_c, 13, 3385
4, 158288, Pitch_bend_c, 13, 3756
4, 158291, Pitch_bend_c, 13, 4173
4, 158292, Pitch_bend_c, 13, 5007
4, 158293, Pitch_bend_c, 13, 5424
4, 158296, Pitch_bend_c, 13, 5891
4, 158297, Pitch_bend_c, 13, 6827
4, 158299, Pitch_bend_c, 13, 7295
4, 158302, Pitch_bend_c, 13, 7519
4, 158303, Pitch_bend_c, 13, 7967
4, 158304, Pitch_bend_c, 13, 8192
4, 159744, Note_on_c, 13, 86, 100
4, 159771, Control_c, 13, 1, 4
4, 159772, Control_c, 13, 1, 12
4, 159775, Control_c, 13, 1, 16
4, 159785, Control_c, 13, 1, 18
4, 159788, Control_c, 13, 1, 21
4, 159789, Control_c, 13, 1, 23
4, 159797, Control_c, 13, 1, 25
4, 159800, Control_c, 13, 1, 29
4, 159805, Control_c, 13, 1, 32
4, 159815, Control_c, 13, 1, 33
4, 159818, Control_c, 13, 1, 37
4, 159819, Control_c, 13, 1, 38
4, 159830, Control_c, 13, 1, 40
4, 159832, Control_c, 13, 1, 44
4, 159837, Control_c, 13, 1, 45
4, 159843, Control_c, 13, 1, 47
4, 159846, Control_c, 13, 1, 51
4, 159848, Control_c, 13, 1, 52
4, 159859, Control_c, 13, 1, 53
4, 159860, Control_c, 13, 1, 56
4, 159865, Control_c, 13, 1, 57
4, 159871, Control_c, 13, 1, 58
4, 159878, Control_c, 13, 1, 61
4, 159878, Control_c, 13, 1, 60
4, 159881, Pitch_bend_c, 13, 8270
4, 159882, Pitch_bend_c, 13, 8426
4, 159883, Pitch_bend_c, 13, 8505
4, 159887, Pitch_bend_c, 13, 8668
4, 159888, Pitch_bend_c, 13, 9157
4, 159888, Pitch_bend_c, 13, 8994
4, 159891, Control_c, 13, 1, 62
4, 159892, Pitch_bend_c, 13, 9332
4, 159893, Pitch_bend_c, 13, 9682
4, 159894, Pitch_bend_c, 13, 9857
4, 159897, Pitch_bend_c, 13, 10045
4, 159898, Pitch_bend_c, 13, 10610
4, 159898, Pitch_bend_c, 13, 10421
4, 159902, Pitch_bend_c, 13, 10835
4, 159903, Pitch_bend_c, 13, 11287
4, 159904, Pitch_bend_c, 13, 11513
4, 159906, Control_c, 13, 1, 63
4, 159908, Pitch_bend_c, 13, 11702
4, 159909, Pitch_bend_c, 13, 12081
4, 159910, Pitch_bend_c, 13, 12271
4, 159914, Pitch_bend_c, 13, 12450
4, 159915, Pitch_bend_c, 13, 12809
4, 159916, Pitch_bend_c, 13, 12989
4, 159919, Control_c, 13, 1, 64
4, 159920, Pitch_bend_c, 13, 13702
4, 159920, Pitch_bend_c, 13, 13226
4, 159922, Pitch_bend_c, 13, 13940
4, 159923, Control_c, 13, 1, 65
4, 159924, Pitch_bend_c, 13, 14238
4, 159925, Pitch_bend_c, 13, 14835
4, 159926, Pitch_bend_c, 13, 15134
4, 159929, Pitch_bend_c, 13, 15446
4, 159930, Pitch_bend_c, 13, 16070
4, 159932, Pitch_bend_c, 13, 16383
4, 159936, Note_off_c, 13, 86, 64
4, 159948, Control_c, 13, 1, 66
4, 159967, Control_c, 13, 1, 67
4, 160010, Control_c, 13, 1, 68
4, 160056, Pitch_bend_c, 13, 16267
4, 160057, Pitch_bend_c, 13, 16035
4, 160058, Pitch_bend_c, 13, 15919
4, 160060, Pitch_bend_c, 13, 15620
4, 160061, Pitch_bend_c, 13, 15023
4, 160062, Pitch_bend_c, 13, 14725
4, 160066, Pitch_bend_c, 13, 14371
4, 160067, Pitch_bend_c, 13, 13665
4, 160068, Pitch_bend_c, 13, 13312
4, 160071, Pitch_bend_c, 13, 12936
4, 160073, Pitch_bend_c, 13, 12185
4, 160074, Pitch_bend_c, 13, 11810
4, 160078, Pitch_bend_c, 13, 10599
4, 160078, Pitch_bend_c, 13, 11406
4, 160079, Pitch_bend_c, 13, 10196
4, 160083, Pitch_bend_c, 13, 9185
4, 160083, Pitch_bend_c, 13, 9859
4, 160084, Pitch_bend_c, 13, 8849
4, 160087, Pitch_bend_c, 13, 8684
4, 160089, Pitch_bend_c, 13, 8192
4, 160089, Pitch_bend_c, 13, 8356
4, 160128, Note_on_c, 13, 86, 100
4, 160186, Pitch_bend_c, 13, 8400
4, 160187, Pitch_bend_c, 13, 8816
4, 160188, Pitch_bend_c, 13, 9024
4, 160191, Pitch_bend_c, 13, 9491
4, 160193, Pitch_bend_c, 13, 10894
4, 160193, Pitch_bend_c, 13, 10426
4, 160196, Pitch_bend_c, 13, 12506
4, 160196, Pitch_bend_c, 13, 11431
4, 160197, Pitch_bend_c, 13, 13044
4, 160201, Pitch_bend_c, 13, 13509
4, 160203, Pitch_bend_c, 13, 14440
4, 160204, Pitch_bend_c, 13, 14906
4, 160208, Pitch_bend_c, 13, 15275
4, 160209, Pitch_bend_c, 13, 16013
4, 160210, Pitch_bend_c, 13, 16383
4, 160289, Pitch_bend_c, 13, 16275
4, 160291, Pitch_bend_c, 13, 16061
4, 160292, Pitch_bend_c, 13, 15954
4, 160295, Pitch_bend_c, 13, 15462
4, 160296, Pitch_bend_c, 13, 14478
4, 160297, Pitch_bend_c, 13, 13987
4, 160300, Pitch_bend_c, 13, 13534
4, 160301, Pitch_bend_c, 13, 12628
4, 160302, Pitch_bend_c, 13, 12176
4, 160305, Pitch_bend_c, 13, 10877
4, 160305, Pitch_bend_c, 13, 11743
4, 160307, Pitch_bend_c, 13, 10445
4, 160307, Control_c, 13, 1, 69
4, 160310, Pitch_bend_c, 13, 10141
4, 160312, Pitch_bend_c, 13, 9533
4, 160313, Pitch_bend_c, 13, 9230
4, 160316, Pitch_bend_c, 13, 9014
4, 160318, Pitch_bend_c, 13, 8582
4, 160319, Pitch_bend_c, 13, 8367
4, 160320, Note_off_c, 13, 86, 64
4, 160322, Pitch_bend_c, 13, 8323
4, 160323, Pitch_bend_c, 13, 8235
4, 160324, Pitch_bend_c, 13, 8192
4, 160334, Control_c, 13, 1, 70
4, 160512, Note_on_c, 13, 86, 100
4, 160546, Pitch_bend_c, 13, 8272
4, 160547, Pitch_bend_c, 13, 8434
4, 160548, Pitch_bend_c, 13, 8515
4, 160550, Pitch_bend_c, 13, 8643
4, 160551, Pitch_bend_c, 13, 8901
4, 160552, Pitch_bend_c, 13, 9030
4, 160555, Pitch_bend_c, 13, 9296
4, 160557, Pitch_bend_c, 13, 9829
4, 160558, Pitch_bend_c, 13, 10096
4, 160561, Pitch_bend_c, 13, 10586
4, 160562, Pitch_bend_c, 13, 11567
4, 160564, Pitch_bend_c, 13, 12058
4, 160567, Pitch_bend_c, 13, 12576
4, 160568, Pitch_bend_c, 13, 13614
4, 160569, Pitch_bend_c, 13, 14133
4, 160572, Pitch_bend_c, 13, 14623
4, 160574, Pitch_bend_c, 13, 15604
4, 160575, Pitch_bend_c, 13, 16095
4, 160577, Pitch_bend_c, 13, 16167
4, 160579, Pitch_bend_c, 13, 16311
4, 160580, Pitch_bend_c, 13, 16383
4, 160605, Control_c, 13, 1, 71
4, 161033, Control_c, 13, 1, 70
4, 161037, Control_c, 13, 1, 67
4, 161040, Control_c, 13, 1, 66
4, 161065, Control_c, 13, 1, 64
4, 161068, Control_c, 13, 1, 59
4, 161071, Control_c, 13, 1, 57
4, 161080, Control_c, 13, 1, 55
4, 161081, Control_c, 13, 1, 52
4, 161084, Pitch_bend_c, 13, 16234
4, 161085, Pitch_bend_c, 13, 15937
4, 161085, Control_c, 13, 1, 50
4, 161087, Pitch_bend_c, 13, 15789
4, 161089, Pitch_bend_c, 13, 15607
4, 161091, Pitch_bend_c, 13, 15243
4, 161092, Pitch_bend_c, 13, 15061
4, 161095, Pitch_bend_c, 13, 14874
4, 161096, Pitch_bend_c, 13, 14316
4, 161096, Pitch_bend_c, 13, 14502
4, 161099, Control_c, 13, 1, 43
4, 161100, Pitch_bend_c, 13, 14037
4, 161100, Control_c, 13, 1, 41
4, 161102, Pitch_bend_c, 13, 13480
4, 161103, Pitch_bend_c, 13, 13202
4, 161106, Pitch_bend_c, 13, 12833
4, 161106, Control_c, 13, 1, 38
4, 161107, Pitch_bend_c, 13, 12097
4, 161108, Pitch_bend_c, 13, 11729
4, 161108, Control_c, 13, 1, 33
4, 161111, Control_c, 13, 1, 31
4, 161112, Pitch_bend_c, 13, 11371
4, 161113, Pitch_bend_c, 13, 10297
4, 161113, Pitch_bend_c, 13, 10655
4, 161117, Pitch_bend_c, 13, 10061
4, 161118, Pitch_bend_c, 13, 9591
4, 161119, Pitch_bend_c, 13, 9356
4, 161122, Pitch_bend_c, 13, 8928
4, 161122, Pitch_bend_c, 13, 9213
4, 161123, Control_c, 13, 1, 28
4, 161124, Pitch_bend_c, 13, 8786
4, 161125, Control_c, 13, 1, 23
4, 161127, Pitch_bend_c, 13, 8705
4, 161128, Control_c, 13, 1, 20
4, 161129, Pitch_bend_c, 13, 8543
4, 161130, Pitch_bend_c, 13, 8462
4, 161133, Pitch_bend_c, 13, 8409
4, 161134, Pitch_bend_c, 13, 8304
4, 161135, Pitch_bend_c, 13, 8252
4, 161139, Pitch_bend_c, 13, 8237
4, 161139, Control_c, 13, 1, 18
4, 161140, Pitch_bend_c, 13, 8207
4, 161141, Pitch_bend_c, 13, 8192
4, 161141, Control_c, 13, 1, 13
4, 161145, Control_c, 13, 1, 10
4, 161154, Control_c, 13, 1, 8
4, 161158, Control_c, 13, 1, 3
4, 161161, Control_c, 13, 1, 0
4, 161279, Note_off_c, 13, 86, 64
4, 162624, Note_on_c, 13, 57, 100
4, 162739, Pitch_bend_c, 13, 8263
4, 162741, Pitch_bend_c, 13, 8478
4, 162741, Pitch_bend_c, 13, 8406
4, 162745, Pitch_bend_c, 13, 8589
4, 162746, Pitch_bend_c, 13, 8812
4, 162747, Pitch_bend_c, 13, 8924
4, 162751, Pitch_bend_c, 13, 9278
4, 162751, Pitch_bend_c, 13, 9042
4, 162753, Pitch_bend_c, 13, 9396
4, 162755, Pitch_bend_c, 13, 9508
4, 162756, Pitch_bend_c, 13, 9732
4, 162758, Pitch_bend_c, 13, 9845
4, 162761, Pitch_bend_c, 13, 9992
4, 162762, Pitch_bend_c, 13, 10287
4, 162763, Pitch_bend_c, 13, 10435
4, 162767, Pitch_bend_c, 13, 10621
4, 162768, Pitch_bend_c, 13, 10995
4, 162769, Pitch_bend_c, 13, 11182
4, 162772, Pitch_bend_c, 13, 11415
4, 162774, Pitch_bend_c, 13, 11882
4, 162775, Pitch_bend_c, 13, 12116
4, 162779, Pitch_bend_c, 13, 12748
4, 162779, Pitch_bend_c, 13, 12590
4, 162779, Pitch_bend_c, 13, 12274
4, 162782, Pitch_bend_c, 13, 12885
4, 162784, Pitch_bend_c, 13, 13159
4, 162785, Pitch_bend_c, 13, 13297
4, 162788, Pitch_bend_c, 13, 13400
4, 162789, Pitch_bend_c, 13, 13606
4, 162790, Pitch_bend_c, 13, 13709
4, 162794, Pitch_bend_c, 13, 14119
4, 162794, Pitch_bend_c, 13, 13845
4, 162796, Pitch_bend_c, 13, 14256
4, 162800, Pitch_bend_c, 13, 14394
4, 162801, Pitch_bend_c, 13, 14671
4, 162802, Pitch_bend_c, 13, 14810
4, 162805, Pitch_bend_c, 13, 14974
4, 162806, Pitch_bend_c, 13, 15303
4, 162807, Pitch_bend_c, 13, 15468
4, 162810, Pitch_bend_c, 13, 15607
4, 162811, Pitch_bend_c, 13, 16027
4, 162811, Pitch_bend_c, 13, 15887
4, 162815, Pitch_bend_c, 13, 16116
4, 162816, Note_off_c, 13, 57, 64
4, 162816, Pitch_bend_c, 13, 16294
4, 162817, Pitch_bend_c, 13, 16383
4, 163093, Pitch_bend_c, 13, 16131
4, 163094, Pitch_bend_c, 13, 15628
4, 163096, Pitch_bend_c, 13, 15377
4, 163099, Pitch_bend_c, 13, 15100
4, 163100, Pitch_bend_c, 13, 14547
4, 163101, Pitch_bend_c, 13, 14271
4, 163105, Pitch_bend_c, 13, 13981
4, 163106, Pitch_bend_c, 13, 13112
4, 163106, Pitch_bend_c, 13, 13401
4, 163109, Pitch_bend_c, 13, 12840
4, 163110, Pitch_bend_c, 13, 12296
4, 163111, Pitch_bend_c, 13, 12025
4, 163115, Pitch_bend_c, 13, 11263
4, 163115, Pitch_bend_c, 13, 11771
4, 163117, Pitch_bend_c, 13, 11009
4, 163120, Pitch_bend_c, 13, 10857
4, 163121, Pitch_bend_c, 13, 10555
4, 163122, Pitch_bend_c, 13, 10404
4, 163126, Pitch_bend_c, 13, 10286
4, 163127, Pitch_bend_c, 13, 10050
4, 163128, Pitch_bend_c, 13, 9933
4, 163132, Pitch_bend_c, 13, 9806
4, 163133, Pitch_bend_c, 13, 9554
4, 163134, Pitch_bend_c, 13, 9428
4, 163137, Pitch_bend_c, 13, 9284
4, 163138, Pitch_bend_c, 13, 8997
4, 163139, Pitch_bend_c, 13, 8854
4, 163142, Pitch_bend_c, 13, 8688
4, 163143, Pitch_bend_c, 13, 8357
4, 163145, Pitch_bend_c, 13, 8192
4, 172032, End_track
5, 0, Start_track
5, 0, Title_t, "Guitar3"
5, 0, Control_c, 2, 7, 127
5, 0, Program_c, 2, 30
5, 23040, Control_c, 2, 7, 127
5, 23040, Program_c, 2, 30
5, 24384, Note_on_c, 2, 52, 100
5, 24384, Note_on_c, 2, 59, 100
5, 24768, Note_off_c, 2, 59, 64
5, 24768, Note_off_c, 2, 52, 64
5, 24768, Note_on_c, 2, 52, 100
5, 24960, Note_off_c, 2, 52, 64
5, 24960, Note_on_c, 2, 52, 100
5, 25152, Note_off_c, 2, 52, 64
5, 25152, Note_on_c, 2, 52, 100
5, 25344, Note_off_c, 2, 52, 64
5, 25344, Note_on_c, 2, 52, 100
5, 25536, Note_off_c, 2, 52, 64
5, 25536, Note_on_c, 2, 52, 100
5, 25728, Note_off_c, 2, 52, 64
5, 25728, Note_on_c, 2, 52, 100
5, 25920, Note_off_c, 2, 52, 64
5, 25920, Note_on_c, 2, 64, 100
5, 26112, Note_off_c, 2, 64, 64
5, 26112, Note_on_c, 2, 52, 100
5, 26304, Note_off_c, 2, 52, 64
5, 26304, Note_on_c, 2, 52, 100
5, 26496, Note_off_c, 2, 52, 64
5, 26496, Note_on_c, 2, 52, 100
5, 26688, Note_off_c, 2, 52, 64
5, 26688, Note_on_c, 2, 52, 100
5, 26880, Note_off_c, 2, 52, 64
5, 26880, Note_on_c, 2, 52, 100
5, 27072, Note_off_c, 2, 52, 64
5, 27072, Note_on_c, 2, 52, 100
5, 27264, Note_off_c, 2, 52, 64
5, 27264, Note_on_c, 2, 52, 100
5, 27456, Note_off_c, 2, 52, 64
5, 27456, Note_on_c, 2, 64, 100
5, 27648, Note_off_c, 2, 64, 64
5, 27648, Note_on_c, 2, 52, 100
5, 27840, Note_off_c, 2, 52, 64
5, 27840, Note_on_c, 2, 52, 100
5, 28032, Note_off_c, 2, 52, 64
5, 28032, Note_on_c, 2, 52, 100
5, 28224, Note_off_c, 2, 52, 64
5, 28224, Note_on_c, 2, 52, 100
5, 28416, Note_off_c, 2, 52, 64
5, 28416, Note_on_c, 2, 52, 100
5, 28608, Note_off_c, 2, 52, 64
5, 28608, Note_on_c, 2, 52, 100
5, 28800, Note_off_c, 2, 52, 64
5, 28800, Note_on_c, 2, 52, 100
5, 28992, Note_off_c, 2, 52, 64
5, 28992, Note_on_c, 2, 64, 100
5, 29184, Note_off_c, 2, 64, 64
5, 29184, Note_on_c, 2, 52, 100
5, 29376, Note_off_c, 2, 52, 64
5, 29376, Note_on_c, 2, 52, 100
5, 29568, Note_off_c, 2, 52, 64
5, 29568, Note_on_c, 2, 52, 100
5, 29760, Note_off_c, 2, 52, 64
5, 29760, Note_on_c, 2, 52, 100
5, 29952, Note_off_c, 2, 52, 64
5, 29952, Note_on_c, 2, 52, 100
5, 30144, Note_off_c, 2, 52, 64
5, 30144, Note_on_c, 2, 52, 100
5, 30336, Note_off_c, 2, 52, 64
5, 30336, Note_on_c, 2, 52, 100
5, 30528, Note_off_c, 2, 52, 64
5, 30528, Note_on_c, 2, 64, 100
5, 30720, Note_off_c, 2, 64, 64
5, 30720, Note_on_c, 2, 52, 100
5, 30912, Note_off_c, 2, 52, 64
5, 30912, Note_on_c, 2, 52, 100
5, 31104, Note_off_c, 2, 52, 64
5, 31104, Note_on_c, 2, 64, 100
5, 31296, Note_off_c, 2, 64, 64
5, 31296, Note_on_c, 2, 58, 100
5, 31488, Note_off_c, 2, 58, 64
5, 31488, Note_on_c, 2, 52, 100
5, 31680, Note_off_c, 2, 52, 64
5, 31680, Note_on_c, 2, 52, 100
5, 31872, Note_off_c, 2, 52, 64
5, 31872, Note_on_c, 2, 52, 100
5, 32064, Note_off_c, 2, 52, 64
5, 32064, Note_on_c, 2, 53, 100
5, 32064, Note_on_c, 2, 60, 100
5, 32256, Note_off_c, 2, 60, 64
5, 32256, Note_off_c, 2, 53, 64
5, 32256, Note_on_c, 2, 52, 100
5, 32448, Note_off_c, 2, 52, 64
5, 32448, Note_on_c, 2, 52, 100
5, 32640, Note_off_c, 2, 52, 64
5, 32640, Note_on_c, 2, 64, 100
5, 32832, Note_off_c, 2, 64, 64
5, 32832, Note_on_c, 2, 58, 100
5, 33024, Note_off_c, 2, 58, 64
5, 33024, Note_on_c, 2, 52, 100
5, 33216, Note_off_c, 2, 52, 64
5, 33216, Note_on_c, 2, 52, 100
5, 33408, Note_off_c, 2, 52, 64
5, 33408, Note_on_c, 2, 52, 100
5, 33600, Note_off_c, 2, 52, 64
5, 33600, Note_on_c, 2, 53, 100
5, 33600, Note_on_c, 2, 60, 100
5, 33792, Note_off_c, 2, 60, 64
5, 33792, Note_off_c, 2, 53, 64
5, 33792, Note_on_c, 2, 52, 100
5, 33984, Note_off_c, 2, 52, 64
5, 33984, Note_on_c, 2, 52, 100
5, 34176, Note_off_c, 2, 52, 64
5, 34176, Note_on_c, 2, 64, 100
5, 34368, Note_off_c, 2, 64, 64
5, 34368, Note_on_c, 2, 58, 100
5, 34560, Note_off_c, 2, 58, 64
5, 34560, Note_on_c, 2, 52, 100
5, 34752, Note_off_c, 2, 52, 64
5, 34752, Note_on_c, 2, 52, 100
5, 34944, Note_off_c, 2, 52, 64
5, 34944, Note_on_c, 2, 52, 100
5, 35136, Note_off_c, 2, 52, 64
5, 35136, Note_on_c, 2, 53, 100
5, 35136, Note_on_c, 2, 60, 100
5, 35328, Note_off_c, 2, 60, 64
5, 35328, Note_off_c, 2, 53, 64
5, 35328, Note_on_c, 2, 52, 100
5, 35520, Note_off_c, 2, 52, 64
5, 35520, Note_on_c, 2, 52, 100
5, 35712, Note_off_c, 2, 52, 64
5, 35712, Note_on_c, 2, 64, 100
5, 35904, Note_off_c, 2, 64, 64
5, 35904, Note_on_c, 2, 58, 100
5, 36096, Note_off_c, 2, 58, 64
5, 36096, Note_on_c, 2, 52, 100
5, 36288, Note_off_c, 2, 52, 64
5, 36288, Note_on_c, 2, 52, 100
5, 36480, Note_off_c, 2, 52, 64
5, 36480, Note_on_c, 2, 52, 100
5, 36672, Note_off_c, 2, 52, 64
5, 36672, Note_on_c, 2, 53, 100
5, 36672, Note_on_c, 2, 60, 100
5, 36864, Note_off_c, 2, 60, 64
5, 36864, Note_off_c, 2, 53, 64
5, 36864, Note_on_c, 2, 52, 100
5, 37056, Note_off_c, 2, 52, 64
5, 37056, Note_on_c, 2, 52, 100
5, 37248, Note_off_c, 2, 52, 64
5, 37248, Note_on_c, 2, 64, 100
5, 37440, Note_off_c, 2, 64, 64
5, 37440, Note_on_c, 2, 58, 100
5, 37632, Note_off_c, 2, 58, 64
5, 37632, Note_on_c, 2, 57, 100
5, 37824, Note_off_c, 2, 57, 64
5, 37824, Note_on_c, 2, 52, 100
5, 38016, Note_off_c, 2, 52, 64
5, 38016, Note_on_c, 2, 52, 100
5, 38208, Note_off_c, 2, 52, 64
5, 38208, Note_on_c, 2, 53, 100
5, 38208, Note_on_c, 2, 60, 100
5, 38400, Note_off_c, 2, 60, 64
5, 38400, Note_off_c, 2, 53, 64
5, 38400, Note_on_c, 2, 52, 100
5, 38592, Note_off_c, 2, 52, 64
5, 38592, Note_on_c, 2, 52, 100
5, 38784, Note_off_c, 2, 52, 64
5, 38784, Note_on_c, 2, 64, 100
5, 38976, Note_off_c, 2, 64, 64
5, 38976, Note_on_c, 2, 58, 100
5, 39168, Note_off_c, 2, 58, 64
5, 39168, Note_on_c, 2, 57, 100
5, 39360, Note_off_c, 2, 57, 64
5, 39360, Note_on_c, 2, 52, 100
5, 39552, Note_off_c, 2, 52, 64
5, 39552, Note_on_c, 2, 52, 100
5, 39744, Note_off_c, 2, 52, 64
5, 39744, Note_on_c, 2, 53, 100
5, 39744, Note_on_c, 2, 60, 100
5, 39936, Note_off_c, 2, 60, 64
5, 39936, Note_off_c, 2, 53, 64
5, 39936, Note_on_c, 2, 52, 100
5, 40128, Note_off_c, 2, 52, 64
5, 40128, Note_on_c, 2, 52, 100
5, 40320, Note_off_c, 2, 52, 64
5, 40320, Note_on_c, 2, 64, 100
5, 40512, Note_off_c, 2, 64, 64
5, 40512, Note_on_c, 2, 58, 100
5, 40704, Note_off_c, 2, 58, 64
5, 40704, Note_on_c, 2, 57, 100
5, 40896, Note_off_c, 2, 57, 64
5, 40896, Note_on_c, 2, 52, 100
5, 41088, Note_off_c, 2, 52, 64
5, 41088, Note_on_c, 2, 52, 100
5, 41280, Note_off_c, 2, 52, 64
5, 41280, Note_on_c, 2, 53, 100
5, 41280, Note_on_c, 2, 60, 100
5, 41472, Note_off_c, 2, 60, 64
5, 41472, Note_off_c, 2, 53, 64
5, 41472, Note_on_c, 2, 52, 100
5, 41664, Note_off_c, 2, 52, 64
5, 41664, Note_on_c, 2, 52, 100
5, 41856, Note_off_c, 2, 52, 64
5, 41856, Note_on_c, 2, 64, 100
5, 42048, Note_off_c, 2, 64, 64
5, 42048, Note_on_c, 2, 58, 100
5, 42240, Note_off_c, 2, 58, 64
5, 42240, Note_on_c, 2, 57, 100
5, 42432, Note_off_c, 2, 57, 64
5, 42432, Note_on_c, 2, 52, 100
5, 42624, Note_off_c, 2, 52, 64
5, 42624, Note_on_c, 2, 52, 100
5, 42816, Note_off_c, 2, 52, 64
5, 42816, Note_on_c, 2, 53, 100
5, 42816, Note_on_c, 2, 60, 100
5, 43008, Note_off_c, 2, 60, 64
5, 43008, Note_off_c, 2, 53, 64
5, 43008, Note_on_c, 2, 52, 100
5, 43200, Note_off_c, 2, 52, 64
5, 43200, Note_on_c, 2, 52, 100
5, 43392, Note_off_c, 2, 52, 64
5, 43392, Note_on_c, 2, 64, 100
5, 43584, Note_off_c, 2, 64, 64
5, 43584, Note_on_c, 2, 58, 100
5, 43776, Note_off_c, 2, 58, 64
5, 43776, Note_on_c, 2, 57, 100
5, 43968, Note_off_c, 2, 57, 64
5, 43968, Note_on_c, 2, 52, 100
5, 44160, Note_off_c, 2, 52, 64
5, 44160, Note_on_c, 2, 52, 100
5, 44352, Note_off_c, 2, 52, 64
5, 44352, Note_on_c, 2, 53, 100
5, 44352, Note_on_c, 2, 60, 100
5, 44544, Note_off_c, 2, 60, 64
5, 44544, Note_off_c, 2, 53, 64
5, 44544, Note_on_c, 2, 52, 100
5, 44736, Note_off_c, 2, 52, 64
5, 44736, Note_on_c, 2, 52, 100
5, 44928, Note_off_c, 2, 52, 64
5, 44928, Note_on_c, 2, 64, 100
5, 45120, Note_off_c, 2, 64, 64
5, 45120, Note_on_c, 2, 58, 100
5, 45312, Note_off_c, 2, 58, 64
5, 45312, Note_on_c, 2, 57, 100
5, 45504, Note_off_c, 2, 57, 64
5, 45504, Note_on_c, 2, 52, 100
5, 45696, Note_off_c, 2, 52, 64
5, 45696, Note_on_c, 2, 52, 100
5, 45888, Note_off_c, 2, 52, 64
5, 45888, Note_on_c, 2, 53, 100
5, 45888, Note_on_c, 2, 60, 100
5, 46080, Note_off_c, 2, 60, 64
5, 46080, Note_off_c, 2, 53, 64
5, 46080, Note_on_c, 2, 52, 100
5, 46272, Note_off_c, 2, 52, 64
5, 46272, Note_on_c, 2, 52, 100
5, 46464, Note_off_c, 2, 52, 64
5, 46464, Note_on_c, 2, 64, 100
5, 46656, Note_off_c, 2, 64, 64
5, 46656, Note_on_c, 2, 58, 100
5, 46848, Note_off_c, 2, 58, 64
5, 46848, Note_on_c, 2, 57, 100
5, 47040, Note_off_c, 2, 57, 64
5, 47040, Note_on_c, 2, 52, 100
5, 47232, Note_off_c, 2, 52, 64
5, 47232, Note_on_c, 2, 52, 100
5, 47424, Note_off_c, 2, 52, 64
5, 47424, Note_on_c, 2, 53, 100
5, 47424, Note_on_c, 2, 60, 100
5, 47616, Note_off_c, 2, 60, 64
5, 47616, Note_off_c, 2, 53, 64
5, 47616, Note_on_c, 2, 52, 100
5, 47808, Note_off_c, 2, 52, 64
5, 47808, Note_on_c, 2, 52, 100
5, 48000, Note_off_c, 2, 52, 64
5, 48000, Note_on_c, 2, 64, 100
5, 48192, Note_off_c, 2, 64, 64
5, 48192, Note_on_c, 2, 58, 100
5, 48384, Note_off_c, 2, 58, 64
5, 48384, Note_on_c, 2, 57, 100
5, 48576, Note_off_c, 2, 57, 64
5, 48576, Note_on_c, 2, 52, 100
5, 48768, Note_off_c, 2, 52, 64
5, 48768, Note_on_c, 2, 52, 100
5, 48960, Note_off_c, 2, 52, 64
5, 48960, Note_on_c, 2, 52, 127
5, 48960, Note_on_c, 2, 59, 127
5, 49344, Note_off_c, 2, 59, 64
5, 49344, Note_off_c, 2, 52, 64
5, 49344, Note_on_c, 2, 59, 100
5, 49344, Note_on_c, 2, 52, 100
5, 49536, Note_off_c, 2, 52, 64
5, 49536, Note_off_c, 2, 59, 64
5, 49536, Note_on_c, 2, 64, 100
5, 49728, Note_off_c, 2, 64, 64
5, 49728, Note_on_c, 2, 58, 100
5, 49920, Note_off_c, 2, 58, 64
5, 49920, Note_on_c, 2, 57, 100
5, 50304, Note_off_c, 2, 57, 64
5, 50304, Note_on_c, 2, 52, 100
5, 50496, Note_off_c, 2, 52, 64
5, 50496, Note_on_c, 2, 52, 127
5, 50496, Note_on_c, 2, 59, 127
5, 50880, Note_off_c, 2, 59, 64
5, 50880, Note_off_c, 2, 52, 64
5, 50880, Note_on_c, 2, 59, 100
5, 50880, Note_on_c, 2, 52, 100
5, 51072, Note_off_c, 2, 52, 64
5, 51072, Note_off_c, 2, 59, 64
5, 51072, Note_on_c, 2, 64, 100
5, 51264, Note_off_c, 2, 64, 64
5, 51264, Note_on_c, 2, 58, 100
5, 51456, Note_off_c, 2, 58, 64
5, 51456, Note_on_c, 2, 57, 100
5, 51840, Note_off_c, 2, 57, 64
5, 51840, Note_on_c, 2, 52, 100
5, 52032, Note_off_c, 2, 52, 64
5, 52032, Note_on_c, 2, 59, 127
5, 52032, Note_on_c, 2, 52, 127
5, 52416, Note_off_c, 2, 52, 64
5, 52416, Note_off_c, 2, 59, 64
5, 52416, Note_on_c, 2, 59, 100
5, 52416, Note_on_c, 2, 52, 100
5, 52608, Note_off_c, 2, 52, 64
5, 52608, Note_off_c, 2, 59, 64
5, 52608, Note_on_c, 2, 64, 100
5, 52800, Note_off_c, 2, 64, 64
5, 52800, Note_on_c, 2, 58, 100
5, 52992, Note_off_c, 2, 58, 64
5, 52992, Note_on_c, 2, 57, 100
5, 53376, Note_off_c, 2, 57, 64
5, 53376, Note_on_c, 2, 52, 100
5, 53568, Note_off_c, 2, 52, 64
5, 53568, Note_on_c, 2, 62, 127
5, 53568, Note_on_c, 2, 55, 127
5, 53952, Note_off_c, 2, 55, 64
5, 53952, Note_off_c, 2, 62, 64
5, 53952, Note_on_c, 2, 52, 100
5, 54144, Note_off_c, 2, 52, 64
5, 54144, Note_on_c, 2, 61, 100
5, 54144, Note_on_c, 2, 54, 100
5, 54336, Note_off_c, 2, 54, 64
5, 54336, Note_off_c, 2, 61, 64
5, 54336, Note_on_c, 2, 52, 100
5, 54528, Note_off_c, 2, 52, 64
5, 54528, Note_on_c, 2, 61, 100
5, 54528, Note_on_c, 2, 54, 100
5, 54720, Note_off_c, 2, 54, 64
5, 54720, Note_off_c, 2, 61, 64
5, 54720, Note_on_c, 2, 62, 100
5, 54720, Note_on_c, 2, 55, 100
5, 54912, Note_off_c, 2, 55, 64
5, 54912, Note_off_c, 2, 62, 64
5, 54912, Note_on_c, 2, 61, 100
5, 54912, Note_on_c, 2, 54, 100
5, 55104, Note_off_c, 2, 54, 64
5, 55104, Note_off_c, 2, 61, 64
5, 55104, Note_on_c, 2, 59, 127
5, 55104, Note_on_c, 2, 52, 127
5, 55488, Note_off_c, 2, 52, 64
5, 55488, Note_off_c, 2, 59, 64
5, 55488, Note_on_c, 2, 59, 100
5, 55488, Note_on_c, 2, 52, 100
5, 55680, Note_off_c, 2, 52, 64
5, 55680, Note_off_c, 2, 59, 64
5, 55680, Note_on_c, 2, 64, 100
5, 55872, Note_off_c, 2, 64, 64
5, 55872, Note_on_c, 2, 58, 100
5, 56064, Note_off_c, 2, 58, 64
5, 56064, Note_on_c, 2, 57, 100
5, 56448, Note_off_c, 2, 57, 64
5, 56448, Note_on_c, 2, 52, 100
5, 56640, Note_off_c, 2, 52, 64
5, 56640, Note_on_c, 2, 52, 127
5, 56640, Note_on_c, 2, 59, 127
5, 57024, Note_off_c, 2, 59, 64
5, 57024, Note_off_c, 2, 52, 64
5, 57024, Note_on_c, 2, 59, 100
5, 57024, Note_on_c, 2, 52, 100
5, 57216, Note_off_c, 2, 52, 64
5, 57216, Note_off_c, 2, 59, 64
5, 57216, Note_on_c, 2, 64, 100
5, 57408, Note_off_c, 2, 64, 64
5, 57408, Note_on_c, 2, 58, 100
5, 57600, Note_off_c, 2, 58, 64
5, 57600, Note_on_c, 2, 57, 100
5, 57984, Note_off_c, 2, 57, 64
5, 57984, Note_on_c, 2, 52, 100
5, 58176, Note_off_c, 2, 52, 64
5, 58176, Note_on_c, 2, 59, 127
5, 58176, Note_on_c, 2, 52, 127
5, 58560, Note_off_c, 2, 52, 64
5, 58560, Note_off_c, 2, 59, 64
5, 58560, Note_on_c, 2, 59, 100
5, 58560, Note_on_c, 2, 52, 100
5, 58752, Note_off_c, 2, 52, 64
5, 58752, Note_off_c, 2, 59, 64
5, 58752, Note_on_c, 2, 64, 100
5, 58944, Note_off_c, 2, 64, 64
5, 58944, Note_on_c, 2, 58, 100
5, 59136, Note_off_c, 2, 58, 64
5, 59136, Note_on_c, 2, 57, 100
5, 59520, Note_off_c, 2, 57, 64
5, 59520, Note_on_c, 2, 52, 100
5, 59712, Note_off_c, 2, 52, 64
5, 59712, Note_on_c, 2, 62, 127
5, 59712, Note_on_c, 2, 55, 127
5, 60096, Note_off_c, 2, 55, 64
5, 60096, Note_off_c, 2, 62, 64
5, 60096, Note_on_c, 2, 52, 100
5, 60288, Note_off_c, 2, 52, 64
5, 60288, Note_on_c, 2, 61, 100
5, 60288, Note_on_c, 2, 54, 100
5, 60480, Note_off_c, 2, 54, 64
5, 60480, Note_off_c, 2, 61, 64
5, 60480, Note_on_c, 2, 52, 100
5, 60672, Note_off_c, 2, 52, 64
5, 60672, Note_on_c, 2, 61, 100
5, 60672, Note_on_c, 2, 54, 100
5, 60864, Note_off_c, 2, 54, 64
5, 60864, Note_off_c, 2, 61, 64
5, 60864, Note_on_c, 2, 62, 100
5, 60864, Note_on_c, 2, 55, 100
5, 61056, Note_off_c, 2, 55, 64
5, 61056, Note_off_c, 2, 62, 64
5, 61056, Note_on_c, 2, 61, 100
5, 61056, Note_on_c, 2, 54, 100
5, 61248, Note_off_c, 2, 54, 64
5, 61248, Note_off_c, 2, 61, 64
5, 61248, Note_on_c, 2, 59, 127
5, 61248, Note_on_c, 2, 52, 127
5, 61632, Note_off_c, 2, 52, 64
5, 61632, Note_off_c, 2, 59, 64
5, 61632, Note_on_c, 2, 52, 100
5, 61824, Note_off_c, 2, 52, 64
5, 61824, Note_on_c, 2, 52, 100
5, 62016, Note_off_c, 2, 52, 64
5, 62016, Note_on_c, 2, 52, 100
5, 62208, Note_off_c, 2, 52, 64
5, 62208, Note_on_c, 2, 52, 100
5, 62400, Note_off_c, 2, 52, 64
5, 62400, Note_on_c, 2, 52, 100
5, 62592, Note_off_c, 2, 52, 64
5, 62592, Note_on_c, 2, 52, 100
5, 62784, Note_off_c, 2, 52, 64
5, 62784, Note_on_c, 2, 60, 127
5, 62784, Note_on_c, 2, 53, 127
5, 63168, Note_off_c, 2, 53, 64
5, 63168, Note_off_c, 2, 60, 64
5, 63168, Note_on_c, 2, 52, 100
5, 63360, Note_off_c, 2, 52, 64
5, 63360, Note_on_c, 2, 52, 100
5, 63552, Note_off_c, 2, 52, 64
5, 63552, Note_on_c, 2, 52, 100
5, 63744, Note_off_c, 2, 52, 64
5, 63744, Note_on_c, 2, 52, 100
5, 63936, Note_off_c, 2, 52, 64
5, 63936, Note_on_c, 2, 52, 100
5, 64128, Note_off_c, 2, 52, 64
5, 64128, Note_on_c, 2, 52, 100
5, 64320, Note_off_c, 2, 52, 64
5, 64320, Note_on_c, 2, 60, 127
5, 64320, Note_on_c, 2, 53, 127
5, 64704, Note_off_c, 2, 53, 64
5, 64704, Note_off_c, 2, 60, 64
5, 64704, Note_on_c, 2, 52, 100
5, 64896, Note_off_c, 2, 52, 64
5, 64896, Note_on_c, 2, 52, 100
5, 65088, Note_off_c, 2, 52, 64
5, 65088, Note_on_c, 2, 52, 100
5, 65280, Note_off_c, 2, 52, 64
5, 65280, Note_on_c, 2, 52, 100
5, 65472, Note_off_c, 2, 52, 64
5, 65472, Note_on_c, 2, 52, 100
5, 65664, Note_off_c, 2, 52, 64
5, 65664, Note_on_c, 2, 52, 100
5, 65856, Note_off_c, 2, 52, 64
5, 65856, Note_on_c, 2, 62, 127
5, 65856, Note_on_c, 2, 55, 127
5, 66240, Note_off_c, 2, 55, 64
5, 66240, Note_off_c, 2, 62, 64
5, 66240, Note_on_c, 2, 52, 100
5, 66432, Note_off_c, 2, 52, 64
5, 66432, Note_on_c, 2, 61, 100
5, 66432, Note_on_c, 2, 54, 100
5, 66624, Note_off_c, 2, 54, 64
5, 66624, Note_off_c, 2, 61, 64
5, 66624, Note_on_c, 2, 52, 100
5, 66816, Note_off_c, 2, 52, 64
5, 66816, Note_on_c, 2, 61, 100
5, 66816, Note_on_c, 2, 54, 100
5, 67008, Note_off_c, 2, 54, 64
5, 67008, Note_off_c, 2, 61, 64
5, 67008, Note_on_c, 2, 62, 100
5, 67008, Note_on_c, 2, 55, 100
5, 67200, Note_off_c, 2, 55, 64
5, 67200, Note_off_c, 2, 62, 64
5, 67200, Note_on_c, 2, 61, 100
5, 67200, Note_on_c, 2, 54, 100
5, 67392, Note_off_c, 2, 54, 64
5, 67392, Note_off_c, 2, 61, 64
5, 67392, Note_on_c, 2, 59, 127
5, 67392, Note_on_c, 2, 52, 127
5, 67776, Note_off_c, 2, 52, 64
5, 67776, Note_off_c, 2, 59, 64
5, 67776, Note_on_c, 2, 52, 100
5, 67968, Note_off_c, 2, 52, 64
5, 67968, Note_on_c, 2, 52, 100
5, 68160, Note_off_c, 2, 52, 64
5, 68160, Note_on_c, 2, 52, 100
5, 68352, Note_off_c, 2, 52, 64
5, 68352, Note_on_c, 2, 52, 100
5, 68544, Note_off_c, 2, 52, 64
5, 68544, Note_on_c, 2, 52, 100
5, 68736, Note_off_c, 2, 52, 64
5, 68736, Note_on_c, 2, 52, 100
5, 68928, Note_off_c, 2, 52, 64
5, 68928, Note_on_c, 2, 60, 127
5, 68928, Note_on_c, 2, 53, 127
5, 69312, Note_off_c, 2, 53, 64
5, 69312, Note_off_c, 2, 60, 64
5, 69312, Note_on_c, 2, 52, 100
5, 69504, Note_off_c, 2, 52, 64
5, 69504, Note_on_c, 2, 52, 100
5, 69696, Note_off_c, 2, 52, 64
5, 69696, Note_on_c, 2, 52, 100
5, 69888, Note_off_c, 2, 52, 64
5, 69888, Note_on_c, 2, 52, 100
5, 70080, Note_off_c, 2, 52, 64
5, 70080, Note_on_c, 2, 52, 100
5, 70272, Note_off_c, 2, 52, 64
5, 70272, Note_on_c, 2, 52, 100
5, 70464, Note_off_c, 2, 52, 64
5, 70464, Note_on_c, 2, 60, 127
5, 70464, Note_on_c, 2, 53, 127
5, 70848, Note_off_c, 2, 53, 64
5, 70848, Note_off_c, 2, 60, 64
5, 70848, Note_on_c, 2, 52, 100
5, 71040, Note_off_c, 2, 52, 64
5, 71040, Note_on_c, 2, 52, 100
5, 71232, Note_off_c, 2, 52, 64
5, 71232, Note_on_c, 2, 52, 100
5, 71424, Note_off_c, 2, 52, 64
5, 71424, Note_on_c, 2, 52, 100
5, 71616, Note_off_c, 2, 52, 64
5, 71616, Note_on_c, 2, 52, 100
5, 71808, Note_off_c, 2, 52, 64
5, 71808, Note_on_c, 2, 52, 100
5, 72000, Note_off_c, 2, 52, 64
5, 72000, Note_on_c, 2, 62, 127
5, 72000, Note_on_c, 2, 55, 127
5, 72384, Note_off_c, 2, 55, 64
5, 72384, Note_off_c, 2, 62, 64
5, 72384, Note_on_c, 2, 52, 100
5, 72576, Note_off_c, 2, 52, 64
5, 72576, Note_on_c, 2, 61, 100
5, 72576, Note_on_c, 2, 54, 100
5, 72768, Note_off_c, 2, 54, 64
5, 72768, Note_off_c, 2, 61, 64
5, 72768, Note_on_c, 2, 52, 100
5, 72960, Note_off_c, 2, 52, 64
5, 72960, Note_on_c, 2, 61, 100
5, 72960, Note_on_c, 2, 54, 100
5, 73152, Note_off_c, 2, 54, 64
5, 73152, Note_off_c, 2, 61, 64
5, 73152, Note_on_c, 2, 62, 100
5, 73152, Note_on_c, 2, 55, 100
5, 73344, Note_off_c, 2, 55, 64
5, 73344, Note_off_c, 2, 62, 64
5, 73344, Note_on_c, 2, 61, 100
5, 73344, Note_on_c, 2, 54, 100
5, 73536, Note_off_c, 2, 54, 64
5, 73536, Note_off_c, 2, 61, 64
5, 73536, Note_on_c, 2, 54, 127
5, 73920, Note_off_c, 2, 54, 64
5, 73920, Note_on_c, 2, 66, 100
5, 74112, Note_off_c, 2, 66, 64
5, 74112, Note_on_c, 2, 69, 100
5, 74304, Note_off_c, 2, 69, 64
5, 74304, Note_on_c, 2, 60, 100
5, 74496, Note_off_c, 2, 60, 64
5, 74496, Note_on_c, 2, 59, 100
5, 74880, Note_off_c, 2, 59, 64
5, 74880, Note_on_c, 2, 66, 100
5, 75072, Note_off_c, 2, 66, 64
5, 75072, Note_on_c, 2, 54, 127
5, 75456, Note_off_c, 2, 54, 64
5, 75456, Note_on_c, 2, 66, 100
5, 75648, Note_off_c, 2, 66, 64
5, 75648, Note_on_c, 2, 69, 100
5, 75840, Note_off_c, 2, 69, 64
5, 75840, Note_on_c, 2, 60, 100
5, 76032, Note_off_c, 2, 60, 64
5, 76032, Note_on_c, 2, 59, 100
5, 76416, Note_off_c, 2, 59, 64
5, 76416, Note_on_c, 2, 66, 100
5, 76608, Note_off_c, 2, 66, 64
5, 76608, Note_on_c, 2, 54, 127
5, 76992, Note_off_c, 2, 54, 64
5, 76992, Note_on_c, 2, 66, 100
5, 77184, Note_off_c, 2, 66, 64
5, 77184, Note_on_c, 2, 69, 100
5, 77376, Note_off_c, 2, 69, 64
5, 77376, Note_on_c, 2, 60, 100
5, 77568, Note_off_c, 2, 60, 64
5, 77568, Note_on_c, 2, 59, 100
5, 77952, Note_off_c, 2, 59, 64
5, 77952, Note_on_c, 2, 66, 100
5, 78144, Note_off_c, 2, 66, 64
5, 78144, Note_on_c, 2, 54, 127
5, 78528, Note_off_c, 2, 54, 64
5, 78528, Note_on_c, 2, 66, 100
5, 78720, Note_off_c, 2, 66, 64
5, 78720, Note_on_c, 2, 69, 100
5, 78912, Note_off_c, 2, 69, 64
5, 78912, Note_on_c, 2, 60, 100
5, 79104, Note_off_c, 2, 60, 64
5, 79104, Note_on_c, 2, 59, 100
5, 79488, Note_off_c, 2, 59, 64
5, 79488, Note_on_c, 2, 66, 100
5, 79872, Note_off_c, 2, 66, 64
5, 79872, Note_on_c, 2, 54, 100
5, 79872, Note_on_c, 2, 61, 100
5, 80256, Note_off_c, 2, 61, 64
5, 80256, Note_off_c, 2, 54, 64
5, 80256, Note_on_c, 2, 61, 100
5, 80448, Note_off_c, 2, 61, 64
5, 80448, Note_on_c, 2, 60, 100
5, 80640, Note_off_c, 2, 60, 64
5, 80640, Note_on_c, 2, 66, 100
5, 80640, Note_on_c, 2, 59, 100
5, 81216, Note_off_c, 2, 59, 64
5, 81216, Note_off_c, 2, 66, 64
5, 81216, Note_on_c, 2, 61, 100
5, 81216, Note_on_c, 2, 54, 100
5, 81792, Note_off_c, 2, 54, 64
5, 81792, Note_off_c, 2, 61, 64
5, 81792, Note_on_c, 2, 61, 100
5, 81984, Note_off_c, 2, 61, 64
5, 81984, Note_on_c, 2, 60, 100
5, 82176, Note_off_c, 2, 60, 64
5, 82176, Note_on_c, 2, 66, 100
5, 82176, Note_on_c, 2, 59, 100
5, 82752, Note_off_c, 2, 59, 64
5, 82752, Note_off_c, 2, 66, 64
5, 82752, Note_on_c, 2, 61, 100
5, 82752, Note_on_c, 2, 54, 100
5, 83328, Note_off_c, 2, 54, 64
5, 83328, Note_off_c, 2, 61, 64
5, 83328, Note_on_c, 2, 61, 100
5, 83520, Note_off_c, 2, 61, 64
5, 83520, Note_on_c, 2, 60, 100
5, 83712, Note_off_c, 2, 60, 64
5, 83712, Note_on_c, 2, 66, 100
5, 83712, Note_on_c, 2, 59, 100
5, 84288, Note_off_c, 2, 59, 64
5, 84288, Note_off_c, 2, 66, 64
5, 84288, Note_on_c, 2, 59, 100
5, 84288, Note_on_c, 2, 52, 100
5, 86016, Note_off_c, 2, 52, 64
5, 86016, Note_off_c, 2, 59, 64
5, 86016, Note_on_c, 2, 61, 100
5, 86016, Note_on_c, 2, 54, 100
5, 86400, Note_on_c, 2, 61, 100
5, 86592, Note_off_c, 2, 61, 64
5, 86592, Note_off_c, 2, 54, 64
5, 86592, Note_off_c, 2, 61, 64
5, 86592, Note_on_c, 2, 60, 100
5, 86784, Note_off_c, 2, 60, 64
5, 86784, Note_on_c, 2, 66, 100
5, 86784, Note_on_c, 2, 59, 100
5, 87360, Note_off_c, 2, 59, 64
5, 87360, Note_off_c, 2, 66, 64
5, 87360, Note_on_c, 2, 59, 100
5, 87360, Note_on_c, 2, 52, 100
5, 89088, Note_off_c, 2, 52, 64
5, 89088, Note_off_c, 2, 59, 64
5, 89088, Note_on_c, 2, 62, 100
5, 89088, Note_on_c, 2, 55, 100
5, 89280, Note_off_c, 2, 55, 64
5, 89280, Note_off_c, 2, 62, 64
5, 89280, Note_on_c, 2, 52, 100
5, 89472, Note_off_c, 2, 52, 64
5, 89472, Note_on_c, 2, 61, 100
5, 89472, Note_on_c, 2, 54, 100
5, 89664, Note_off_c, 2, 54, 64
5, 89664, Note_off_c, 2, 61, 64
5, 89664, Note_on_c, 2, 52, 100
5, 89856, Note_off_c, 2, 52, 64
5, 89856, Note_on_c, 2, 61, 100
5, 89856, Note_on_c, 2, 54, 100
5, 90048, Note_off_c, 2, 54, 64
5, 90048, Note_off_c, 2, 61, 64
5, 90048, Note_on_c, 2, 62, 100
5, 90048, Note_on_c, 2, 55, 100
5, 90240, Note_off_c, 2, 55, 64
5, 90240, Note_off_c, 2, 62, 64
5, 90240, Note_on_c, 2, 61, 100
5, 90240, Note_on_c, 2, 54, 100
5, 90432, Note_off_c, 2, 54, 64
5, 90432, Note_off_c, 2, 61, 64
5, 90432, Note_on_c, 2, 59, 127
5, 90432, Note_on_c, 2, 52, 127
5, 90816, Note_off_c, 2, 52, 64
5, 90816, Note_off_c, 2, 59, 64
5, 90816, Note_on_c, 2, 59, 100
5, 90816, Note_on_c, 2, 52, 100
5, 91008, Note_off_c, 2, 52, 64
5, 91008, Note_off_c, 2, 59, 64
5, 91008, Note_on_c, 2, 64, 100
5, 91200, Note_off_c, 2, 64, 64
5, 91200, Note_on_c, 2, 58, 100
5, 91392, Note_off_c, 2, 58, 64
5, 91392, Note_on_c, 2, 57, 100
5, 91776, Note_off_c, 2, 57, 64
5, 91776, Note_on_c, 2, 52, 100
5, 91968, Note_off_c, 2, 52, 64
5, 91968, Note_on_c, 2, 52, 127
5, 91968, Note_on_c, 2, 59, 127
5, 92352, Note_off_c, 2, 59, 64
5, 92352, Note_off_c, 2, 52, 64
5, 92352, Note_on_c, 2, 59, 100
5, 92352, Note_on_c, 2, 52, 100
5, 92544, Note_off_c, 2, 52, 64
5, 92544, Note_off_c, 2, 59, 64
5, 92544, Note_on_c, 2, 64, 100
5, 92736, Note_off_c, 2, 64, 64
5, 92736, Note_on_c, 2, 58, 100
5, 92928, Note_off_c, 2, 58, 64
5, 92928, Note_on_c, 2, 57, 100
5, 93312, Note_off_c, 2, 57, 64
5, 93312, Note_on_c, 2, 52, 100
5, 93504, Note_off_c, 2, 52, 64
5, 93504, Note_on_c, 2, 59, 127
5, 93504, Note_on_c, 2, 52, 127
5, 93888, Note_off_c, 2, 52, 64
5, 93888, Note_off_c, 2, 59, 64
5, 93888, Note_on_c, 2, 59, 100
5, 93888, Note_on_c, 2, 52, 100
5, 94080, Note_off_c, 2, 52, 64
5, 94080, Note_off_c, 2, 59, 64
5, 94080, Note_on_c, 2, 64, 100
5, 94272, Note_off_c, 2, 64, 64
5, 94272, Note_on_c, 2, 58, 100
5, 94464, Note_off_c, 2, 58, 64
5, 94464, Note_on_c, 2, 57, 100
5, 94848, Note_off_c, 2, 57, 64
5, 94848, Note_on_c, 2, 52, 100
5, 95040, Note_off_c, 2, 52, 64
5, 95040, Note_on_c, 2, 62, 127
5, 95040, Note_on_c, 2, 55, 127
5, 95424, Note_off_c, 2, 55, 64
5, 95424, Note_off_c, 2, 62, 64
5, 95424, Note_on_c, 2, 52, 100
5, 95616, Note_off_c, 2, 52, 64
5, 95616, Note_on_c, 2, 61, 100
5, 95616, Note_on_c, 2, 54, 100
5, 95808, Note_off_c, 2, 54, 64
5, 95808, Note_off_c, 2, 61, 64
5, 95808, Note_on_c, 2, 52, 100
5, 96000, Note_off_c, 2, 52, 64
5, 96000, Note_on_c, 2, 61, 100
5, 96000, Note_on_c, 2, 54, 100
5, 96192, Note_off_c, 2, 54, 64
5, 96192, Note_off_c, 2, 61, 64
5, 96192, Note_on_c, 2, 62, 100
5, 96192, Note_on_c, 2, 55, 100
5, 96384, Note_off_c, 2, 55, 64
5, 96384, Note_off_c, 2, 62, 64
5, 96384, Note_on_c, 2, 61, 100
5, 96384, Note_on_c, 2, 54, 100
5, 96576, Note_off_c, 2, 54, 64
5, 96576, Note_off_c, 2, 61, 64
5, 96576, Note_on_c, 2, 59, 127
5, 96576, Note_on_c, 2, 52, 127
5, 96960, Note_off_c, 2, 52, 64
5, 96960, Note_off_c, 2, 59, 64
5, 96960, Note_on_c, 2, 59, 100
5, 96960, Note_on_c, 2, 52, 100
5, 97152, Note_off_c, 2, 52, 64
5, 97152, Note_off_c, 2, 59, 64
5, 97152, Note_on_c, 2, 64, 100
5, 97344, Note_off_c, 2, 64, 64
5, 97344, Note_on_c, 2, 58, 100
5, 97536, Note_off_c, 2, 58, 64
5, 97536, Note_on_c, 2, 57, 100
5, 97920, Note_off_c, 2, 57, 64
5, 97920, Note_on_c, 2, 52, 100
5, 98112, Note_off_c, 2, 52, 64
5, 98112, Note_on_c, 2, 52, 127
5, 98112, Note_on_c, 2, 59, 127
5, 98496, Note_off_c, 2, 59, 64
5, 98496, Note_off_c, 2, 52, 64
5, 98496, Note_on_c, 2, 59, 100
5, 98496, Note_on_c, 2, 52, 100
5, 98688, Note_off_c, 2, 52, 64
5, 98688, Note_off_c, 2, 59, 64
5, 98688, Note_on_c, 2, 64, 100
5, 98880, Note_off_c, 2, 64, 64
5, 98880, Note_on_c, 2, 58, 100
5, 99072, Note_off_c, 2, 58, 64
5, 99072, Note_on_c, 2, 57, 100
5, 99456, Note_off_c, 2, 57, 64
5, 99456, Note_on_c, 2, 52, 100
5, 99648, Note_off_c, 2, 52, 64
5, 99648, Note_on_c, 2, 59, 127
5, 99648, Note_on_c, 2, 52, 127
5, 100032, Note_off_c, 2, 52, 64
5, 100032, Note_off_c, 2, 59, 64
5, 100032, Note_on_c, 2, 59, 100
5, 100032, Note_on_c, 2, 52, 100
5, 100224, Note_off_c, 2, 52, 64
5, 100224, Note_off_c, 2, 59, 64
5, 100224, Note_on_c, 2, 64, 100
5, 100416, Note_off_c, 2, 64, 64
5, 100416, Note_on_c, 2, 58, 100
5, 100608, Note_off_c, 2, 58, 64
5, 100608, Note_on_c, 2, 57, 100
5, 100992, Note_off_c, 2, 57, 64
5, 100992, Note_on_c, 2, 52, 100
5, 101184, Note_off_c, 2, 52, 64
5, 101184, Note_on_c, 2, 62, 127
5, 101184, Note_on_c, 2, 55, 127
5, 101568, Note_off_c, 2, 55, 64
5, 101568, Note_off_c, 2, 62, 64
5, 101568, Note_on_c, 2, 52, 100
5, 101760, Note_off_c, 2, 52, 64
5, 101760, Note_on_c, 2, 61, 100
5, 101760, Note_on_c, 2, 54, 100
5, 101952, Note_off_c, 2, 54, 64
5, 101952, Note_off_c, 2, 61, 64
5, 101952, Note_on_c, 2, 52, 100
5, 102144, Note_off_c, 2, 52, 64
5, 102144, Note_on_c, 2, 61, 100
5, 102144, Note_on_c, 2, 54, 100
5, 102336, Note_off_c, 2, 54, 64
5, 102336, Note_off_c, 2, 61, 64
5, 102336, Note_on_c, 2, 62, 100
5, 102336, Note_on_c, 2, 55, 100
5, 102528, Note_off_c, 2, 55, 64
5, 102528, Note_off_c, 2, 62, 64
5, 102528, Note_on_c, 2, 61, 100
5, 102528, Note_on_c, 2, 54, 100
5, 102720, Note_off_c, 2, 54, 64
5, 102720, Note_off_c, 2, 61, 64
5, 102720, Note_on_c, 2, 59, 127
5, 102720, Note_on_c, 2, 52, 127
5, 103104, Note_off_c, 2, 52, 64
5, 103104, Note_off_c, 2, 59, 64
5, 103104, Note_on_c, 2, 52, 100
5, 103296, Note_off_c, 2, 52, 64
5, 103296, Note_on_c, 2, 52, 100
5, 103488, Note_off_c, 2, 52, 64
5, 103488, Note_on_c, 2, 52, 100
5, 103680, Note_off_c, 2, 52, 64
5, 103680, Note_on_c, 2, 52, 100
5, 103872, Note_off_c, 2, 52, 64
5, 103872, Note_on_c, 2, 52, 100
5, 104064, Note_off_c, 2, 52, 64
5, 104064, Note_on_c, 2, 52, 100
5, 104256, Note_off_c, 2, 52, 64
5, 104256, Note_on_c, 2, 60, 127
5, 104256, Note_on_c, 2, 53, 127
5, 104640, Note_off_c, 2, 53, 64
5, 104640, Note_off_c, 2, 60, 64
5, 104640, Note_on_c, 2, 52, 100
5, 104832, Note_off_c, 2, 52, 64
5, 104832, Note_on_c, 2, 52, 100
5, 105024, Note_off_c, 2, 52, 64
5, 105024, Note_on_c, 2, 52, 100
5, 105216, Note_off_c, 2, 52, 64
5, 105216, Note_on_c, 2, 52, 100
5, 105408, Note_off_c, 2, 52, 64
5, 105408, Note_on_c, 2, 52, 100
5, 105600, Note_off_c, 2, 52, 64
5, 105600, Note_on_c, 2, 52, 100
5, 105792, Note_off_c, 2, 52, 64
5, 105792, Note_on_c, 2, 60, 127
5, 105792, Note_on_c, 2, 53, 127
5, 106176, Note_off_c, 2, 53, 64
5, 106176, Note_off_c, 2, 60, 64
5, 106176, Note_on_c, 2, 52, 100
5, 106368, Note_off_c, 2, 52, 64
5, 106368, Note_on_c, 2, 52, 100
5, 106560, Note_off_c, 2, 52, 64
5, 106560, Note_on_c, 2, 52, 100
5, 106752, Note_off_c, 2, 52, 64
5, 106752, Note_on_c, 2, 52, 100
5, 106944, Note_off_c, 2, 52, 64
5, 106944, Note_on_c, 2, 52, 100
5, 107136, Note_off_c, 2, 52, 64
5, 107136, Note_on_c, 2, 52, 100
5, 107328, Note_off_c, 2, 52, 64
5, 107328, Note_on_c, 2, 62, 127
5, 107328, Note_on_c, 2, 55, 127
5, 107712, Note_off_c, 2, 55, 64
5, 107712, Note_off_c, 2, 62, 64
5, 107712, Note_on_c, 2, 52, 100
5, 107904, Note_off_c, 2, 52, 64
5, 107904, Note_on_c, 2, 61, 100
5, 107904, Note_on_c, 2, 54, 100
5, 108096, Note_off_c, 2, 54, 64
5, 108096, Note_off_c, 2, 61, 64
5, 108096, Note_on_c, 2, 52, 100
5, 108288, Note_off_c, 2, 52, 64
5, 108288, Note_on_c, 2, 61, 100
5, 108288, Note_on_c, 2, 54, 100
5, 108480, Note_off_c, 2, 54, 64
5, 108480, Note_off_c, 2, 61, 64
5, 108480, Note_on_c, 2, 62, 100
5, 108480, Note_on_c, 2, 55, 100
5, 108672, Note_off_c, 2, 55, 64
5, 108672, Note_off_c, 2, 62, 64
5, 108672, Note_on_c, 2, 61, 100
5, 108672, Note_on_c, 2, 54, 100
5, 108864, Note_off_c, 2, 54, 64
5, 108864, Note_off_c, 2, 61, 64
5, 108864, Note_on_c, 2, 59, 127
5, 108864, Note_on_c, 2, 52, 127
5, 109248, Note_off_c, 2, 52, 64
5, 109248, Note_off_c, 2, 59, 64
5, 109248, Note_on_c, 2, 52, 100
5, 109440, Note_off_c, 2, 52, 64
5, 109440, Note_on_c, 2, 52, 100
5, 109632, Note_off_c, 2, 52, 64
5, 109632, Note_on_c, 2, 52, 100
5, 109824, Note_off_c, 2, 52, 64
5, 109824, Note_on_c, 2, 52, 100
5, 110016, Note_off_c, 2, 52, 64
5, 110016, Note_on_c, 2, 52, 100
5, 110208, Note_off_c, 2, 52, 64
5, 110208, Note_on_c, 2, 52, 100
5, 110400, Note_off_c, 2, 52, 64
5, 110400, Note_on_c, 2, 60, 127
5, 110400, Note_on_c, 2, 53, 127
5, 110784, Note_off_c, 2, 53, 64
5, 110784, Note_off_c, 2, 60, 64
5, 110784, Note_on_c, 2, 52, 100
5, 110976, Note_off_c, 2, 52, 64
5, 110976, Note_on_c, 2, 52, 100
5, 111168, Note_off_c, 2, 52, 64
5, 111168, Note_on_c, 2, 52, 100
5, 111360, Note_off_c, 2, 52, 64
5, 111360, Note_on_c, 2, 52, 100
5, 111552, Note_off_c, 2, 52, 64
5, 111552, Note_on_c, 2, 52, 100
5, 111744, Note_off_c, 2, 52, 64
5, 111744, Note_on_c, 2, 52, 100
5, 111936, Note_off_c, 2, 52, 64
5, 111936, Note_on_c, 2, 60, 127
5, 111936, Note_on_c, 2, 53, 127
5, 112320, Note_off_c, 2, 53, 64
5, 112320, Note_off_c, 2, 60, 64
5, 112320, Note_on_c, 2, 52, 100
5, 112512, Note_off_c, 2, 52, 64
5, 112512, Note_on_c, 2, 52, 100
5, 112704, Note_off_c, 2, 52, 64
5, 112704, Note_on_c, 2, 52, 100
5, 112896, Note_off_c, 2, 52, 64
5, 112896, Note_on_c, 2, 52, 100
5, 113088, Note_off_c, 2, 52, 64
5, 113088, Note_on_c, 2, 52, 100
5, 113280, Note_off_c, 2, 52, 64
5, 113280, Note_on_c, 2, 52, 100
5, 113472, Note_off_c, 2, 52, 64
5, 113472, Note_on_c, 2, 62, 127
5, 113472, Note_on_c, 2, 55, 127
5, 113856, Note_off_c, 2, 55, 64
5, 113856, Note_off_c, 2, 62, 64
5, 113856, Note_on_c, 2, 52, 100
5, 114048, Note_off_c, 2, 52, 64
5, 114048, Note_on_c, 2, 61, 100
5, 114048, Note_on_c, 2, 54, 100
5, 114240, Note_off_c, 2, 54, 64
5, 114240, Note_off_c, 2, 61, 64
5, 114240, Note_on_c, 2, 52, 100
5, 114432, Note_off_c, 2, 52, 64
5, 114432, Note_on_c, 2, 61, 100
5, 114432, Note_on_c, 2, 54, 100
5, 114624, Note_off_c, 2, 54, 64
5, 114624, Note_off_c, 2, 61, 64
5, 114624, Note_on_c, 2, 62, 100
5, 114624, Note_on_c, 2, 55, 100
5, 114816, Note_off_c, 2, 55, 64
5, 114816, Note_off_c, 2, 62, 64
5, 114816, Note_on_c, 2, 61, 100
5, 114816, Note_on_c, 2, 54, 100
5, 115008, Note_off_c, 2, 54, 64
5, 115008, Note_off_c, 2, 61, 64
5, 115008, Note_on_c, 2, 54, 127
5, 115392, Note_off_c, 2, 54, 64
5, 115392, Note_on_c, 2, 66, 100
5, 115584, Note_off_c, 2, 66, 64
5, 115584, Note_on_c, 2, 69, 100
5, 115776, Note_off_c, 2, 69, 64
5, 115776, Note_on_c, 2, 60, 100
5, 115968, Note_off_c, 2, 60, 64
5, 115968, Note_on_c, 2, 59, 100
5, 116352, Note_off_c, 2, 59, 64
5, 116352, Note_on_c, 2, 66, 100
5, 116544, Note_off_c, 2, 66, 64
5, 116544, Note_on_c, 2, 54, 127
5, 116928, Note_off_c, 2, 54, 64
5, 116928, Note_on_c, 2, 66, 100
5, 117120, Note_off_c, 2, 66, 64
5, 117120, Note_on_c, 2, 69, 100
5, 117312, Note_off_c, 2, 69, 64
5, 117312, Note_on_c, 2, 60, 100
5, 117504, Note_off_c, 2, 60, 64
5, 117504, Note_on_c, 2, 59, 100
5, 117888, Note_off_c, 2, 59, 64
5, 117888, Note_on_c, 2, 66, 100
5, 118080, Note_off_c, 2, 66, 64
5, 118080, Note_on_c, 2, 54, 127
5, 118464, Note_off_c, 2, 54, 64
5, 118464, Note_on_c, 2, 66, 100
5, 118656, Note_off_c, 2, 66, 64
5, 118656, Note_on_c, 2, 69, 100
5, 118848, Note_off_c, 2, 69, 64
5, 118848, Note_on_c, 2, 60, 100
5, 119040, Note_off_c, 2, 60, 64
5, 119040, Note_on_c, 2, 59, 100
5, 119424, Note_off_c, 2, 59, 64
5, 119424, Note_on_c, 2, 66, 100
5, 119616, Note_off_c, 2, 66, 64
5, 119616, Note_on_c, 2, 54, 127
5, 120000, Note_off_c, 2, 54, 64
5, 120000, Note_on_c, 2, 66, 100
5, 120192, Note_off_c, 2, 66, 64
5, 120192, Note_on_c, 2, 69, 100
5, 120384, Note_off_c, 2, 69, 64
5, 120384, Note_on_c, 2, 60, 100
5, 120576, Note_off_c, 2, 60, 64
5, 120576, Note_on_c, 2, 59, 100
5, 120960, Note_off_c, 2, 59, 64
5, 120960, Note_on_c, 2, 66, 100
5, 121344, Note_off_c, 2, 66, 64
5, 121344, Note_on_c, 2, 54, 100
5, 121344, Note_on_c, 2, 61, 100
5, 121728, Note_off_c, 2, 61, 64
5, 121728, Note_off_c, 2, 54, 64
5, 121728, Note_on_c, 2, 61, 100
5, 121920, Note_off_c, 2, 61, 64
5, 121920, Note_on_c, 2, 60, 100
5, 122112, Note_off_c, 2, 60, 64
5, 122112, Note_on_c, 2, 66, 100
5, 122112, Note_on_c, 2, 59, 100
5, 122688, Note_off_c, 2, 59, 64
5, 122688, Note_off_c, 2, 66, 64
5, 122688, Note_on_c, 2, 61, 100
5, 122688, Note_on_c, 2, 54, 100
5, 123264, Note_off_c, 2, 54, 64
5, 123264, Note_off_c, 2, 61, 64
5, 123264, Note_on_c, 2, 61, 100
5, 123456, Note_off_c, 2, 61, 64
5, 123456, Note_on_c, 2, 60, 100
5, 123648, Note_off_c, 2, 60, 64
5, 123648, Note_on_c, 2, 66, 100
5, 123648, Note_on_c, 2, 59, 100
5, 124224, Note_off_c, 2, 59, 64
5, 124224, Note_off_c, 2, 66, 64
5, 124224, Note_on_c, 2, 61, 100
5, 124224, Note_on_c, 2, 54, 100
5, 124800, Note_off_c, 2, 54, 64
5, 124800, Note_off_c, 2, 61, 64
5, 124800, Note_on_c, 2, 61, 100
5, 124992, Note_off_c, 2, 61, 64
5, 124992, Note_on_c, 2, 60, 100
5, 125184, Note_off_c, 2, 60, 64
5, 125184, Note_on_c, 2, 66, 100
5, 125184, Note_on_c, 2, 59, 100
5, 125760, Note_off_c, 2, 59, 64
5, 125760, Note_off_c, 2, 66, 64
5, 125760, Note_on_c, 2, 59, 100
5, 125760, Note_on_c, 2, 52, 100
5, 127488, Note_off_c, 2, 52, 64
5, 127488, Note_off_c, 2, 59, 64
5, 127488, Note_on_c, 2, 61, 100
5, 127488, Note_on_c, 2, 54, 100
5, 127872, Note_on_c, 2, 61, 100
5, 128064, Note_off_c, 2, 61, 64
5, 128064, Note_off_c, 2, 54, 64
5, 128064, Note_off_c, 2, 61, 64
5, 128064, Note_on_c, 2, 60, 100
5, 128256, Note_off_c, 2, 60, 64
5, 128256, Note_on_c, 2, 66, 100
5, 128256, Note_on_c, 2, 59, 100
5, 128832, Note_off_c, 2, 59, 64
5, 128832, Note_off_c, 2, 66, 64
5, 128832, Note_on_c, 2, 59, 100
5, 128832, Note_on_c, 2, 52, 100
5, 130560, Note_off_c, 2, 52, 64
5, 130560, Note_off_c, 2, 59, 64
5, 130560, Note_on_c, 2, 62, 100
5, 130560, Note_on_c, 2, 55, 100
5, 130752, Note_off_c, 2, 55, 64
5, 130752, Note_off_c, 2, 62, 64
5, 130752, Note_on_c, 2, 52, 100
5, 130944, Note_off_c, 2, 52, 64
5, 130944, Note_on_c, 2, 61, 100
5, 130944, Note_on_c, 2, 54, 100
5, 131136, Note_off_c, 2, 54, 64
5, 131136, Note_off_c, 2, 61, 64
5, 131136, Note_on_c, 2, 52, 100
5, 131328, Note_off_c, 2, 52, 64
5, 131328, Note_on_c, 2, 61, 100
5, 131328, Note_on_c, 2, 54, 100
5, 131520, Note_off_c, 2, 54, 64
5, 131520, Note_off_c, 2, 61, 64
5, 131520, Note_on_c, 2, 62, 100
5, 131520, Note_on_c, 2, 55, 100
5, 131712, Note_off_c, 2, 55, 64
5, 131712, Note_off_c, 2, 62, 64
5, 131712, Note_on_c, 2, 61, 100
5, 131712, Note_on_c, 2, 54, 100
5, 131904, Note_off_c, 2, 54, 64
5, 131904, Note_off_c, 2, 61, 64
5, 131904, Note_on_c, 2, 59, 127
5, 131904, Note_on_c, 2, 52, 127
5, 133440, Note_off_c, 2, 52, 64
5, 133440, Note_off_c, 2, 59, 64
5, 133440, Note_on_c, 2, 59, 127
5, 133440, Note_on_c, 2, 52, 127
5, 133824, Note_off_c, 2, 52, 64
5, 133824, Note_off_c, 2, 59, 64
5, 133824, Note_on_c, 2, 59, 100
5, 133824, Note_on_c, 2, 52, 100
5, 134016, Note_off_c, 2, 52, 64
5, 134016, Note_off_c, 2, 59, 64
5, 134016, Note_on_c, 2, 64, 100
5, 134208, Note_off_c, 2, 64, 64
5, 134208, Note_on_c, 2, 58, 100
5, 134400, Note_off_c, 2, 58, 64
5, 134400, Note_on_c, 2, 57, 100
5, 134784, Note_off_c, 2, 57, 64
5, 134784, Note_on_c, 2, 52, 100
5, 134976, Note_off_c, 2, 52, 64
5, 134976, Note_on_c, 2, 52, 127
5, 134976, Note_on_c, 2, 59, 127
5, 135360, Note_off_c, 2, 59, 64
5, 135360, Note_off_c, 2, 52, 64
5, 135360, Note_on_c, 2, 59, 100
5, 135360, Note_on_c, 2, 52, 100
5, 135552, Note_off_c, 2, 52, 64
5, 135552, Note_off_c, 2, 59, 64
5, 135552, Note_on_c, 2, 64, 100
5, 135744, Note_off_c, 2, 64, 64
5, 135744, Note_on_c, 2, 58, 100
5, 135936, Note_off_c, 2, 58, 64
5, 135936, Note_on_c, 2, 57, 100
5, 136320, Note_off_c, 2, 57, 64
5, 136320, Note_on_c, 2, 52, 100
5, 136512, Note_off_c, 2, 52, 64
5, 136512, Note_on_c, 2, 59, 127
5, 136512, Note_on_c, 2, 52, 127
5, 136896, Note_off_c, 2, 52, 64
5, 136896, Note_off_c, 2, 59, 64
5, 136896, Note_on_c, 2, 59, 100
5, 136896, Note_on_c, 2, 52, 100
5, 137088, Note_off_c, 2, 52, 64
5, 137088, Note_off_c, 2, 59, 64
5, 137088, Note_on_c, 2, 64, 100
5, 137280, Note_off_c, 2, 64, 64
5, 137280, Note_on_c, 2, 58, 100
5, 137472, Note_off_c, 2, 58, 64
5, 137472, Note_on_c, 2, 57, 100
5, 137856, Note_off_c, 2, 57, 64
5, 137856, Note_on_c, 2, 52, 100
5, 138048, Note_off_c, 2, 52, 64
5, 138048, Note_on_c, 2, 62, 127
5, 138048, Note_on_c, 2, 55, 127
5, 138432, Note_off_c, 2, 55, 64
5, 138432, Note_off_c, 2, 62, 64
5, 138432, Note_on_c, 2, 52, 100
5, 138624, Note_off_c, 2, 52, 64
5, 138624, Note_on_c, 2, 61, 100
5, 138624, Note_on_c, 2, 54, 100
5, 138816, Note_off_c, 2, 54, 64
5, 138816, Note_off_c, 2, 61, 64
5, 138816, Note_on_c, 2, 52, 100
5, 139008, Note_off_c, 2, 52, 64
5, 139008, Note_on_c, 2, 61, 100
5, 139008, Note_on_c, 2, 54, 100
5, 139200, Note_off_c, 2, 54, 64
5, 139200, Note_off_c, 2, 61, 64
5, 139200, Note_on_c, 2, 62, 100
5, 139200, Note_on_c, 2, 55, 100
5, 139392, Note_off_c, 2, 55, 64
5, 139392, Note_off_c, 2, 62, 64
5, 139392, Note_on_c, 2, 61, 100
5, 139392, Note_on_c, 2, 54, 100
5, 139584, Note_off_c, 2, 54, 64
5, 139584, Note_off_c, 2, 61, 64
5, 139584, Note_on_c, 2, 59, 127
5, 139584, Note_on_c, 2, 52, 127
5, 139968, Note_off_c, 2, 52, 64
5, 139968, Note_off_c, 2, 59, 64
5, 139968, Note_on_c, 2, 59, 100
5, 139968, Note_on_c, 2, 52, 100
5, 140160, Note_off_c, 2, 52, 64
5, 140160, Note_off_c, 2, 59, 64
5, 140160, Note_on_c, 2, 64, 100
5, 140352, Note_off_c, 2, 64, 64
5, 140352, Note_on_c, 2, 58, 100
5, 140544, Note_off_c, 2, 58, 64
5, 140544, Note_on_c, 2, 57, 100
5, 140928, Note_off_c, 2, 57, 64
5, 140928, Note_on_c, 2, 52, 100
5, 141120, Note_off_c, 2, 52, 64
5, 141120, Note_on_c, 2, 52, 127
5, 141120, Note_on_c, 2, 59, 127
5, 141504, Note_off_c, 2, 59, 64
5, 141504, Note_off_c, 2, 52, 64
5, 141504, Note_on_c, 2, 59, 100
5, 141504, Note_on_c, 2, 52, 100
5, 141696, Note_off_c, 2, 52, 64
5, 141696, Note_off_c, 2, 59, 64
5, 141696, Note_on_c, 2, 64, 100
5, 141888, Note_off_c, 2, 64, 64
5, 141888, Note_on_c, 2, 58, 100
5, 142080, Note_off_c, 2, 58, 64
5, 142080, Note_on_c, 2, 57, 100
5, 142464, Note_off_c, 2, 57, 64
5, 142464, Note_on_c, 2, 52, 100
5, 142656, Note_off_c, 2, 52, 64
5, 142656, Note_on_c, 2, 59, 127
5, 142656, Note_on_c, 2, 52, 127
5, 143040, Note_off_c, 2, 52, 64
5, 143040, Note_off_c, 2, 59, 64
5, 143040, Note_on_c, 2, 59, 100
5, 143040, Note_on_c, 2, 52, 100
5, 143232, Note_off_c, 2, 52, 64
5, 143232, Note_off_c, 2, 59, 64
5, 143232, Note_on_c, 2, 64, 100
5, 143424, Note_off_c, 2, 64, 64
5, 143424, Note_on_c, 2, 58, 100
5, 143616, Note_off_c, 2, 58, 64
5, 143616, Note_on_c, 2, 57, 100
5, 144000, Note_off_c, 2, 57, 64
5, 144000, Note_on_c, 2, 52, 100
5, 144192, Note_off_c, 2, 52, 64
5, 144192, Note_on_c, 2, 62, 127
5, 144192, Note_on_c, 2, 55, 127
5, 144576, Note_off_c, 2, 55, 64
5, 144576, Note_off_c, 2, 62, 64
5, 144576, Note_on_c, 2, 52, 100
5, 144768, Note_off_c, 2, 52, 64
5, 144768, Note_on_c, 2, 61, 100
5, 144768, Note_on_c, 2, 54, 100
5, 144960, Note_off_c, 2, 54, 64
5, 144960, Note_off_c, 2, 61, 64
5, 144960, Note_on_c, 2, 52, 100
5, 145152, Note_off_c, 2, 52, 64
5, 145152, Note_on_c, 2, 61, 100
5, 145152, Note_on_c, 2, 54, 100
5, 145344, Note_off_c, 2, 54, 64
5, 145344, Note_off_c, 2, 61, 64
5, 145344, Note_on_c, 2, 62, 100
5, 145344, Note_on_c, 2, 55, 100
5, 145536, Note_off_c, 2, 55, 64
5, 145536, Note_off_c, 2, 62, 64
5, 145536, Note_on_c, 2, 61, 100
5, 145536, Note_on_c, 2, 54, 100
5, 145728, Note_off_c, 2, 54, 64
5, 145728, Note_off_c, 2, 61, 64
5, 145728, Note_on_c, 2, 54, 127
5, 146112, Note_off_c, 2, 54, 64
5, 146112, Note_on_c, 2, 66, 100
5, 146304, Note_off_c, 2, 66, 64
5, 146304, Note_on_c, 2, 69, 100
5, 146496, Note_off_c, 2, 69, 64
5, 146496, Note_on_c, 2, 60, 100
5, 146688, Note_off_c, 2, 60, 64
5, 146688, Note_on_c, 2, 59, 100
5, 147072, Note_off_c, 2, 59, 64
5, 147072, Note_on_c, 2, 66, 100
5, 147264, Note_off_c, 2, 66, 64
5, 147264, Note_on_c, 2, 54, 127
5, 147648, Note_off_c, 2, 54, 64
5, 147648, Note_on_c, 2, 66, 100
5, 147840, Note_off_c, 2, 66, 64
5, 147840, Note_on_c, 2, 69, 100
5, 148032, Note_off_c, 2, 69, 64
5, 148032, Note_on_c, 2, 60, 100
5, 148224, Note_off_c, 2, 60, 64
5, 148224, Note_on_c, 2, 59, 100
5, 148608, Note_off_c, 2, 59, 64
5, 148608, Note_on_c, 2, 66, 100
5, 148800, Note_off_c, 2, 66, 64
5, 148800, Note_on_c, 2, 54, 127
5, 149184, Note_off_c, 2, 54, 64
5, 149184, Note_on_c, 2, 66, 100
5, 149376, Note_off_c, 2, 66, 64
5, 149376, Note_on_c, 2, 69, 100
5, 149568, Note_off_c, 2, 69, 64
5, 149568, Note_on_c, 2, 60, 100
5, 149760, Note_off_c, 2, 60, 64
5, 149760, Note_on_c, 2, 59, 100
5, 150144, Note_off_c, 2, 59, 64
5, 150144, Note_on_c, 2, 66, 100
5, 150336, Note_off_c, 2, 66, 64
5, 150336, Note_on_c, 2, 54, 127
5, 150720, Note_off_c, 2, 54, 64
5, 150720, Note_on_c, 2, 66, 100
5, 150912, Note_off_c, 2, 66, 64
5, 150912, Note_on_c, 2, 69, 100
5, 151104, Note_off_c, 2, 69, 64
5, 151104, Note_on_c, 2, 60, 100
5, 151296, Note_off_c, 2, 60, 64
5, 151296, Note_on_c, 2, 59, 100
5, 151680, Note_off_c, 2, 59, 64
5, 151680, Note_on_c, 2, 66, 100
5, 152064, Note_off_c, 2, 66, 64
5, 152064, Note_on_c, 2, 54, 100
5, 152064, Note_on_c, 2, 61, 100
5, 152448, Note_off_c, 2, 61, 64
5, 152448, Note_off_c, 2, 54, 64
5, 152448, Note_on_c, 2, 61, 100
5, 152640, Note_off_c, 2, 61, 64
5, 152640, Note_on_c, 2, 60, 100
5, 152832, Note_off_c, 2, 60, 64
5, 152832, Note_on_c, 2, 66, 100
5, 152832, Note_on_c, 2, 59, 100
5, 153408, Note_off_c, 2, 59, 64
5, 153408, Note_off_c, 2, 66, 64
5, 153408, Note_on_c, 2, 61, 100
5, 153408, Note_on_c, 2, 54, 100
5, 153984, Note_off_c, 2, 54, 64
5, 153984, Note_off_c, 2, 61, 64
5, 153984, Note_on_c, 2, 61, 100
5, 154176, Note_off_c, 2, 61, 64
5, 154176, Note_on_c, 2, 60, 100
5, 154368, Note_off_c, 2, 60, 64
5, 154368, Note_on_c, 2, 66, 100
5, 154368, Note_on_c, 2, 59, 100
5, 154944, Note_off_c, 2, 59, 64
5, 154944, Note_off_c, 2, 66, 64
5, 154944, Note_on_c, 2, 61, 100
5, 154944, Note_on_c, 2, 54, 100
5, 155520, Note_off_c, 2, 54, 64
5, 155520, Note_off_c, 2, 61, 64
5, 155520, Note_on_c, 2, 61, 100
5, 155712, Note_off_c, 2, 61, 64
5, 155712, Note_on_c, 2, 60, 100
5, 155904, Note_off_c, 2, 60, 64
5, 155904, Note_on_c, 2, 66, 100
5, 155904, Note_on_c, 2, 59, 100
5, 156480, Note_off_c, 2, 59, 64
5, 156480, Note_off_c, 2, 66, 64
5, 156480, Note_on_c, 2, 59, 100
5, 156480, Note_on_c, 2, 52, 100
5, 158208, Note_off_c, 2, 52, 64
5, 158208, Note_off_c, 2, 59, 64
5, 158208, Note_on_c, 2, 61, 100
5, 158208, Note_on_c, 2, 54, 100
5, 158592, Note_on_c, 2, 61, 100
5, 158784, Note_off_c, 2, 61, 64
5, 158784, Note_off_c, 2, 54, 64
5, 158784, Note_off_c, 2, 61, 64
5, 158784, Note_on_c, 2, 60, 100
5, 158976, Note_off_c, 2, 60, 64
5, 158976, Note_on_c, 2, 66, 100
5, 158976, Note_on_c, 2, 59, 100
5, 159552, Note_off_c, 2, 59, 64
5, 159552, Note_off_c, 2, 66, 64
5, 159552, Note_on_c, 2, 59, 100
5, 159552, Note_on_c, 2, 52, 100
5, 161280, Note_off_c, 2, 52, 64
5, 161280, Note_off_c, 2, 59, 64
5, 161280, Note_on_c, 2, 59, 100
5, 161280, Note_on_c, 2, 52, 100
5, 161472, Note_off_c, 2, 52, 64
5, 161472, Note_off_c, 2, 59, 64
5, 179712, Control_c, 2, 7, 127
5, 179712, Program_c, 2, 30
5, 181056, Note_on_c, 2, 54, 127
5, 181440, Note_off_c, 2, 54, 64
5, 181440, Note_on_c, 2, 66, 100
5, 181632, Note_off_c, 2, 66, 64
5, 181632, Note_on_c, 2, 69, 100
5, 181824, Note_off_c, 2, 69, 64
5, 181824, Note_on_c, 2, 60, 100
5, 182016, Note_off_c, 2, 60, 64
5, 182016, Note_on_c, 2, 59, 100
5, 182400, Note_off_c, 2, 59, 64
5, 182400, Note_on_c, 2, 66, 100
5, 182592, Note_off_c, 2, 66, 64
5, 182592, Note_on_c, 2, 54, 127
5, 182976, Note_off_c, 2, 54, 64
5, 182976, Note_on_c, 2, 66, 100
5, 183168, Note_off_c, 2, 66, 64
5, 183168, Note_on_c, 2, 69, 100
5, 183360, Note_off_c, 2, 69, 64
5, 183360, Note_on_c, 2, 60, 100
5, 183552, Note_off_c, 2, 60, 64
5, 183552, Note_on_c, 2, 59, 100
5, 183936, Note_off_c, 2, 59, 64
5, 183936, Note_on_c, 2, 66, 100
5, 184128, Note_off_c, 2, 66, 64
5, 184128, Note_on_c, 2, 54, 127
5, 184512, Note_off_c, 2, 54, 64
5, 184512, Note_on_c, 2, 66, 100
5, 184704, Note_off_c, 2, 66, 64
5, 184704, Note_on_c, 2, 69, 100
5, 184896, Note_off_c, 2, 69, 64
5, 184896, Note_on_c, 2, 60, 100
5, 185088, Note_off_c, 2, 60, 64
5, 185088, Note_on_c, 2, 59, 100
5, 185472, Note_off_c, 2, 59, 64
5, 185472, Note_on_c, 2, 66, 100
5, 185664, Note_off_c, 2, 66, 64
5, 185664, Note_on_c, 2, 54, 127
5, 186048, Note_off_c, 2, 54, 64
5, 186048, Note_on_c, 2, 66, 100
5, 186240, Note_off_c, 2, 66, 64
5, 186240, Note_on_c, 2, 69, 100
5, 186432, Note_off_c, 2, 69, 64
5, 186432, Note_on_c, 2, 60, 100
5, 186624, Note_off_c, 2, 60, 64
5, 186624, Note_on_c, 2, 59, 100
5, 187008, Note_off_c, 2, 59, 64
5, 187008, Note_on_c, 2, 66, 100
5, 187200, Note_on_c, 2, 54, 127
5, 187392, Note_off_c, 2, 66, 64
5, 187584, Note_off_c, 2, 54, 64
5, 187584, Note_on_c, 2, 66, 100
5, 187776, Note_off_c, 2, 66, 64
5, 187776, Note_on_c, 2, 69, 100
5, 187968, Note_off_c, 2, 69, 64
5, 187968, Note_on_c, 2, 60, 100
5, 188160, Note_off_c, 2, 60, 64
5, 188160, Note_on_c, 2, 59, 100
5, 188544, Note_off_c, 2, 59, 64
5, 188544, Note_on_c, 2, 66, 100
5, 188736, Note_off_c, 2, 66, 64
5, 188736, Note_on_c, 2, 54, 127
5, 189120, Note_off_c, 2, 54, 64
5, 189120, Note_on_c, 2, 66, 100
5, 189312, Note_off_c, 2, 66, 64
5, 189312, Note_on_c, 2, 69, 100
5, 189504, Note_off_c, 2, 69, 64
5, 189504, Note_on_c, 2, 60, 100
5, 189696, Note_off_c, 2, 60, 64
5, 189696, Note_on_c, 2, 59, 100
5, 190080, Note_off_c, 2, 59, 64
5, 190080, Note_on_c, 2, 66, 100
5, 190272, Note_off_c, 2, 66, 64
5, 190272, Note_on_c, 2, 54, 127
5, 190656, Note_off_c, 2, 54, 64
5, 190656, Note_on_c, 2, 66, 100
5, 190848, Note_off_c, 2, 66, 64
5, 190848, Note_on_c, 2, 69, 100
5, 191040, Note_off_c, 2, 69, 64
5, 191040, Note_on_c, 2, 60, 100
5, 191232, Note_off_c, 2, 60, 64
5, 191232, Note_on_c, 2, 59, 100
5, 191616, Note_off_c, 2, 59, 64
5, 191616, Note_on_c, 2, 66, 100
5, 191808, Note_off_c, 2, 66, 64
5, 191808, Note_on_c, 2, 54, 127
5, 192192, Note_off_c, 2, 54, 64
5, 192192, Note_on_c, 2, 66, 100
5, 192384, Note_off_c, 2, 66, 64
5, 192384, Note_on_c, 2, 69, 100
5, 192576, Note_off_c, 2, 69, 64
5, 192576, Note_on_c, 2, 60, 100
5, 192768, Note_off_c, 2, 60, 64
5, 192768, Note_on_c, 2, 59, 100
5, 193152, Note_off_c, 2, 59, 64
5, 193152, Note_on_c, 2, 66, 100
5, 193536, Note_off_c, 2, 66, 64
5, 193536, Note_on_c, 2, 54, 100
5, 193536, Note_on_c, 2, 61, 100
5, 193920, Note_off_c, 2, 61, 64
5, 193920, Note_off_c, 2, 54, 64
5, 193920, Note_on_c, 2, 61, 100
5, 194112, Note_off_c, 2, 61, 64
5, 194112, Note_on_c, 2, 60, 100
5, 194304, Note_off_c, 2, 60, 64
5, 194304, Note_on_c, 2, 66, 100
5, 194304, Note_on_c, 2, 59, 100
5, 194880, Note_off_c, 2, 59, 64
5, 194880, Note_off_c, 2, 66, 64
5, 194880, Note_on_c, 2, 61, 100
5, 194880, Note_on_c, 2, 54, 100
5, 195456, Note_off_c, 2, 54, 64
5, 195456, Note_off_c, 2, 61, 64
5, 195456, Note_on_c, 2, 61, 100
5, 195648, Note_off_c, 2, 61, 64
5, 195648, Note_on_c, 2, 60, 100
5, 195840, Note_off_c, 2, 60, 64
5, 195840, Note_on_c, 2, 66, 100
5, 195840, Note_on_c, 2, 59, 100
5, 196416, Note_off_c, 2, 59, 64
5, 196416, Note_off_c, 2, 66, 64
5, 196416, Note_on_c, 2, 61, 100
5, 196416, Note_on_c, 2, 54, 100
5, 196992, Note_off_c, 2, 54, 64
5, 196992, Note_off_c, 2, 61, 64
5, 196992, Note_on_c, 2, 61, 100
5, 197184, Note_off_c, 2, 61, 64
5, 197184, Note_on_c, 2, 60, 100
5, 197376, Note_off_c, 2, 60, 64
5, 197376, Note_on_c, 2, 66, 100
5, 197376, Note_on_c, 2, 59, 100
5, 197952, Note_off_c, 2, 59, 64
5, 197952, Note_off_c, 2, 66, 64
5, 197952, Note_on_c, 2, 59, 100
5, 197952, Note_on_c, 2, 52, 100
5, 199680, Note_off_c, 2, 52, 64
5, 199680, Note_off_c, 2, 59, 64
5, 199680, Note_on_c, 2, 61, 100
5, 199680, Note_on_c, 2, 54, 100
5, 200064, Note_on_c, 2, 61, 100
5, 200256, Note_off_c, 2, 61, 64
5, 200256, Note_off_c, 2, 54, 64
5, 200256, Note_off_c, 2, 61, 64
5, 200256, Note_on_c, 2, 60, 100
5, 200448, Note_off_c, 2, 60, 64
5, 200448, Note_on_c, 2, 66, 100
5, 200448, Note_on_c, 2, 59, 100
5, 201024, Note_off_c, 2, 59, 64
5, 201024, Note_off_c, 2, 66, 64
5, 201024, Note_on_c, 2, 59, 100
5, 201024, Note_on_c, 2, 52, 100
5, 202268, Note_off_c, 2, 59, 64
5, 202368, Note_off_c, 2, 52, 64
5, 202368, Note_on_c, 2, 52, 100
5, 202560, Note_off_c, 2, 52, 64
5, 202560, Note_on_c, 2, 52, 100
5, 202752, Note_off_c, 2, 52, 64
5, 202752, Note_on_c, 2, 54, 100
5, 202752, Note_on_c, 2, 61, 100
5, 203136, Note_off_c, 2, 61, 64
5, 203136, Note_off_c, 2, 54, 64
5, 203136, Note_on_c, 2, 61, 100
5, 203328, Note_off_c, 2, 61, 64
5, 203328, Note_on_c, 2, 60, 100
5, 203520, Note_off_c, 2, 60, 64
5, 203520, Note_on_c, 2, 66, 100
5, 203520, Note_on_c, 2, 59, 100
5, 204096, Note_off_c, 2, 59, 64
5, 204096, Note_off_c, 2, 66, 64
5, 204096, Note_on_c, 2, 61, 100
5, 204096, Note_on_c, 2, 54, 100
5, 204672, Note_off_c, 2, 54, 64
5, 204672, Note_off_c, 2, 61, 64
5, 204672, Note_on_c, 2, 61, 100
5, 204864, Note_off_c, 2, 61, 64
5, 204864, Note_on_c, 2, 60, 100
5, 205056, Note_off_c, 2, 60, 64
5, 205056, Note_on_c, 2, 66, 100
5, 205056, Note_on_c, 2, 59, 100
5, 205632, Note_off_c, 2, 59, 64
5, 205632, Note_off_c, 2, 66, 64
5, 205632, Note_on_c, 2, 61, 100
5, 205632, Note_on_c, 2, 54, 100
5, 206208, Note_off_c, 2, 54, 64
5, 206208, Note_off_c, 2, 61, 64
5, 206208, Note_on_c, 2, 61, 100
5, 206400, Note_off_c, 2, 61, 64
5, 206400, Note_on_c, 2, 60, 100
5, 206592, Note_off_c, 2, 60, 64
5, 206592, Note_on_c, 2, 66, 100
5, 206592, Note_on_c, 2, 59, 100
5, 207168, Note_off_c, 2, 59, 64
5, 207168, Note_off_c, 2, 66, 64
5, 207168, Note_on_c, 2, 59, 100
5, 207168, Note_on_c, 2, 52, 100
5, 208896, Note_off_c, 2, 52, 64
5, 208896, Note_off_c, 2, 59, 64
5, 208896, Note_on_c, 2, 61, 100
5, 208896, Note_on_c, 2, 54, 100
5, 209280, Note_off_c, 2, 54, 64
5, 209280, Note_off_c, 2, 61, 64
5, 209280, Note_on_c, 2, 61, 100
5, 209472, Note_off_c, 2, 61, 64
5, 209472, Note_on_c, 2, 60, 100
5, 209664, Note_off_c, 2, 60, 64
5, 209664, Note_on_c, 2, 66, 100
5, 209664, Note_on_c, 2, 59, 100
5, 210240, Note_off_c, 2, 59, 64
5, 210240, Note_off_c, 2, 66, 64
5, 210240, Note_on_c, 2, 59, 100
5, 210240, Note_on_c, 2, 52, 100
5, 211968, Note_off_c, 2, 52, 64
5, 211968, Note_off_c, 2, 59, 64
5, 211968, Note_on_c, 2, 55, 100
5, 211968, Note_on_c, 2, 62, 100
5, 212160, Note_off_c, 2, 62, 64
5, 212160, Note_off_c, 2, 55, 64
5, 212160, Note_on_c, 2, 52, 100
5, 212352, Note_off_c, 2, 52, 64
5, 212352, Note_on_c, 2, 61, 100
5, 212352, Note_on_c, 2, 54, 100
5, 212544, Note_off_c, 2, 54, 64
5, 212544, Note_off_c, 2, 61, 64
5, 212544, Note_on_c, 2, 52, 100
5, 212736, Note_off_c, 2, 52, 64
5, 212736, Note_on_c, 2, 54, 100
5, 212736, Note_on_c, 2, 61, 100
5, 212928, Note_off_c, 2, 61, 64
5, 212928, Note_off_c, 2, 54, 64
5, 212928, Note_on_c, 2, 62, 100
5, 212928, Note_on_c, 2, 55, 100
5, 213120, Note_off_c, 2, 55, 64
5, 213120, Note_off_c, 2, 62, 64
5, 213120, Note_on_c, 2, 62, 100
5, 213120, Note_on_c, 2, 55, 100
5, 213312, Note_off_c, 2, 55, 64
5, 213312, Note_off_c, 2, 62, 64
5, 213312, Note_on_c, 2, 59, 99
5, 213312, Note_on_c, 2, 52, 127
5, 214848, Note_off_c, 2, 52, 64
5, 214848, Note_off_c, 2, 59, 64
5, 214848, Note_on_c, 2, 59, 100
5, 214848, Note_on_c, 2, 52, 100
5, 215232, Note_off_c, 2, 52, 64
5, 215232, Note_off_c, 2, 59, 64
5, 215232, Note_on_c, 2, 59, 100
5, 215232, Note_on_c, 2, 52, 100
5, 215424, Note_off_c, 2, 52, 64
5, 215424, Note_off_c, 2, 59, 64
5, 215424, Note_on_c, 2, 64, 100
5, 215616, Note_off_c, 2, 64, 64
5, 215616, Note_on_c, 2, 58, 100
5, 215808, Note_off_c, 2, 58, 64
5, 215808, Note_on_c, 2, 57, 100
5, 216192, Note_off_c, 2, 57, 64
5, 216192, Note_on_c, 2, 52, 100
5, 216384, Note_off_c, 2, 52, 64
5, 216384, Note_on_c, 2, 59, 100
5, 216384, Note_on_c, 2, 52, 100
5, 216768, Note_off_c, 2, 52, 64
5, 216768, Note_off_c, 2, 59, 64
5, 216768, Note_on_c, 2, 59, 100
5, 216768, Note_on_c, 2, 52, 100
5, 216960, Note_off_c, 2, 52, 64
5, 216960, Note_off_c, 2, 59, 64
5, 216960, Note_on_c, 2, 64, 100
5, 217152, Note_off_c, 2, 64, 64
5, 217152, Note_on_c, 2, 58, 100
5, 217344, Note_off_c, 2, 58, 64
5, 217344, Note_on_c, 2, 57, 100
5, 217728, Note_off_c, 2, 57, 64
5, 217728, Note_on_c, 2, 52, 100
5, 217920, Note_off_c, 2, 52, 64
5, 217920, Note_on_c, 2, 59, 100
5, 217920, Note_on_c, 2, 52, 100
5, 218304, Note_off_c, 2, 52, 64
5, 218304, Note_off_c, 2, 59, 64
5, 218304, Note_on_c, 2, 59, 100
5, 218304, Note_on_c, 2, 52, 100
5, 218496, Note_off_c, 2, 52, 64
5, 218496, Note_off_c, 2, 59, 64
5, 218496, Note_on_c, 2, 64, 100
5, 218688, Note_off_c, 2, 64, 64
5, 218688, Note_on_c, 2, 58, 100
5, 218880, Note_off_c, 2, 58, 64
5, 218880, Note_on_c, 2, 57, 100
5, 219264, Note_off_c, 2, 57, 64
5, 219264, Note_on_c, 2, 52, 100
5, 219456, Note_off_c, 2, 52, 64
5, 219456, Note_on_c, 2, 59, 100
5, 219456, Note_on_c, 2, 52, 100
5, 219840, Note_off_c, 2, 52, 64
5, 219840, Note_off_c, 2, 59, 64
5, 219840, Note_on_c, 2, 59, 100
5, 219840, Note_on_c, 2, 52, 100
5, 220032, Note_off_c, 2, 52, 64
5, 220032, Note_off_c, 2, 59, 64
5, 220032, Note_on_c, 2, 64, 100
5, 220224, Note_off_c, 2, 64, 64
5, 220224, Note_on_c, 2, 58, 100
5, 220416, Note_off_c, 2, 58, 64
5, 220416, Note_on_c, 2, 57, 100
5, 220800, Note_off_c, 2, 57, 64
5, 220800, Note_on_c, 2, 52, 100
5, 220992, Note_off_c, 2, 52, 64
5, 220992, Note_on_c, 2, 59, 100
5, 220992, Note_on_c, 2, 52, 100
5, 221376, Note_off_c, 2, 52, 64
5, 221376, Note_off_c, 2, 59, 64
5, 221376, Note_on_c, 2, 59, 100
5, 221376, Note_on_c, 2, 52, 100
5, 221568, Note_off_c, 2, 52, 64
5, 221568, Note_off_c, 2, 59, 64
5, 221568, Note_on_c, 2, 64, 100
5, 221760, Note_off_c, 2, 64, 64
5, 221760, Note_on_c, 2, 58, 100
5, 221952, Note_off_c, 2, 58, 64
5, 221952, Note_on_c, 2, 57, 100
5, 222336, Note_off_c, 2, 57, 64
5, 222336, Note_on_c, 2, 52, 100
5, 222528, Note_off_c, 2, 52, 64
5, 222528, Note_on_c, 2, 59, 100
5, 222528, Note_on_c, 2, 52, 100
5, 222912, Note_off_c, 2, 52, 64
5, 222912, Note_off_c, 2, 59, 64
5, 222912, Note_on_c, 2, 59, 100
5, 222912, Note_on_c, 2, 52, 100
5, 223104, Note_off_c, 2, 52, 64
5, 223104, Note_off_c, 2, 59, 64
5, 223104, Note_on_c, 2, 64, 100
5, 223296, Note_off_c, 2, 64, 64
5, 223296, Note_on_c, 2, 58, 100
5, 223488, Note_off_c, 2, 58, 64
5, 223488, Note_on_c, 2, 57, 100
5, 223872, Note_off_c, 2, 57, 64
5, 223872, Note_on_c, 2, 52, 100
5, 224064, Note_off_c, 2, 52, 64
5, 224064, Note_on_c, 2, 59, 100
5, 224064, Note_on_c, 2, 52, 100
5, 224448, Note_off_c, 2, 52, 64
5, 224448, Note_off_c, 2, 59, 64
5, 224448, Note_on_c, 2, 59, 100
5, 224448, Note_on_c, 2, 52, 100
5, 224640, Note_off_c, 2, 52, 64
5, 224640, Note_off_c, 2, 59, 64
5, 224640, Note_on_c, 2, 64, 100
5, 224832, Note_off_c, 2, 64, 64
5, 224832, Note_on_c, 2, 58, 100
5, 225024, Note_off_c, 2, 58, 64
5, 225024, Note_on_c, 2, 57, 100
5, 225408, Note_off_c, 2, 57, 64
5, 225408, Note_on_c, 2, 52, 100
5, 225600, Note_off_c, 2, 52, 64
5, 225600, Note_on_c, 2, 62, 100
5, 225600, Note_on_c, 2, 55, 100
5, 225984, Note_off_c, 2, 55, 64
5, 225984, Note_off_c, 2, 62, 64
5, 225984, Note_on_c, 2, 52, 100
5, 226176, Note_off_c, 2, 52, 64
5, 226176, Note_on_c, 2, 61, 100
5, 226176, Note_on_c, 2, 54, 100
5, 226368, Note_off_c, 2, 54, 64
5, 226368, Note_off_c, 2, 61, 64
5, 226368, Note_on_c, 2, 52, 100
5, 226560, Note_off_c, 2, 52, 64
5, 226560, Note_on_c, 2, 61, 100
5, 226560, Note_on_c, 2, 54, 100
5, 226752, Note_off_c, 2, 54, 64
5, 226752, Note_off_c, 2, 61, 64
5, 226752, Note_on_c, 2, 62, 100
5, 226752, Note_on_c, 2, 55, 100
5, 226944, Note_off_c, 2, 55, 64
5, 226944, Note_off_c, 2, 62, 64
5, 226944, Note_on_c, 2, 61, 100
5, 226944, Note_on_c, 2, 54, 100
5, 227136, Note_off_c, 2, 54, 64
5, 227136, Note_off_c, 2, 61, 64
5, 227136, Note_on_c, 2, 59, 100
5, 227136, Note_on_c, 2, 52, 100
5, 227520, Note_off_c, 2, 52, 64
5, 227520, Note_off_c, 2, 59, 64
5, 227520, Note_on_c, 2, 52, 100
5, 227712, Note_off_c, 2, 52, 64
5, 227712, Note_on_c, 2, 64, 100
5, 227904, Note_off_c, 2, 64, 64
5, 227904, Note_on_c, 2, 58, 100
5, 228096, Note_off_c, 2, 58, 64
5, 228096, Note_on_c, 2, 57, 100
5, 228288, Note_off_c, 2, 57, 64
5, 228288, Note_on_c, 2, 52, 100
5, 228480, Note_off_c, 2, 52, 64
5, 228480, Note_on_c, 2, 52, 100
5, 228672, Note_off_c, 2, 52, 64
5, 228672, Note_on_c, 2, 60, 100
5, 228672, Note_on_c, 2, 53, 100
5, 228864, Note_off_c, 2, 53, 64
5, 228864, Note_off_c, 2, 60, 64
5, 228864, Note_on_c, 2, 52, 100
5, 229056, Note_off_c, 2, 52, 64
5, 229056, Note_on_c, 2, 52, 100
5, 229248, Note_off_c, 2, 52, 64
5, 229248, Note_on_c, 2, 64, 100
5, 229440, Note_off_c, 2, 64, 64
5, 229440, Note_on_c, 2, 58, 100
5, 229632, Note_off_c, 2, 58, 64
5, 229632, Note_on_c, 2, 57, 100
5, 229824, Note_off_c, 2, 57, 64
5, 229824, Note_on_c, 2, 52, 100
5, 230016, Note_off_c, 2, 52, 64
5, 230016, Note_on_c, 2, 52, 100
5, 230208, Note_off_c, 2, 52, 64
5, 230208, Note_on_c, 2, 60, 100
5, 230208, Note_on_c, 2, 53, 100
5, 230400, Note_off_c, 2, 53, 64
5, 230400, Note_off_c, 2, 60, 64
5, 230400, Note_on_c, 2, 52, 100
5, 230592, Note_off_c, 2, 52, 64
5, 230592, Note_on_c, 2, 52, 100
5, 230784, Note_off_c, 2, 52, 64
5, 230784, Note_on_c, 2, 64, 100
5, 230976, Note_off_c, 2, 64, 64
5, 230976, Note_on_c, 2, 58, 100
5, 231168, Note_off_c, 2, 58, 64
5, 231168, Note_on_c, 2, 57, 100
5, 231360, Note_off_c, 2, 57, 64
5, 231360, Note_on_c, 2, 52, 100
5, 231552, Note_off_c, 2, 52, 64
5, 231552, Note_on_c, 2, 52, 100
5, 231744, Note_off_c, 2, 52, 64
5, 231744, Note_on_c, 2, 60, 100
5, 231744, Note_on_c, 2, 53, 100
5, 231936, Note_off_c, 2, 53, 64
5, 231936, Note_off_c, 2, 60, 64
5, 231936, Note_on_c, 2, 52, 100
5, 232128, Note_off_c, 2, 52, 64
5, 232128, Note_on_c, 2, 52, 100
5, 232320, Note_off_c, 2, 52, 64
5, 232320, Note_on_c, 2, 64, 100
5, 232512, Note_off_c, 2, 64, 64
5, 232512, Note_on_c, 2, 58, 100
5, 232704, Note_off_c, 2, 58, 64
5, 232704, Note_on_c, 2, 57, 100
5, 232896, Note_off_c, 2, 57, 64
5, 232896, Note_on_c, 2, 52, 100
5, 233088, Note_off_c, 2, 52, 64
5, 233088, Note_on_c, 2, 52, 100
5, 233280, Note_off_c, 2, 52, 64
5, 233280, Note_on_c, 2, 60, 100
5, 233280, Note_on_c, 2, 53, 100
5, 233472, Note_off_c, 2, 53, 64
5, 233472, Note_off_c, 2, 60, 64
5, 233472, Note_on_c, 2, 52, 100
5, 233664, Note_off_c, 2, 52, 64
5, 233664, Note_on_c, 2, 52, 100
5, 233856, Note_off_c, 2, 52, 64
5, 233856, Note_on_c, 2, 64, 100
5, 234048, Note_off_c, 2, 64, 64
5, 234048, Note_on_c, 2, 58, 100
5, 234240, Note_off_c, 2, 58, 64
5, 234240, Note_on_c, 2, 52, 100
5, 234432, Note_off_c, 2, 52, 64
5, 234432, Note_on_c, 2, 52, 100
5, 234624, Note_off_c, 2, 52, 64
5, 234624, Note_on_c, 2, 52, 100
5, 234816, Note_off_c, 2, 52, 64
5, 234816, Note_on_c, 2, 60, 100
5, 234816, Note_on_c, 2, 53, 100
5, 235008, Note_off_c, 2, 53, 64
5, 235008, Note_off_c, 2, 60, 64
5, 235008, Note_on_c, 2, 52, 100
5, 235200, Note_off_c, 2, 52, 64
5, 235200, Note_on_c, 2, 52, 100
5, 235392, Note_off_c, 2, 52, 64
5, 235392, Note_on_c, 2, 64, 100
5, 235584, Note_off_c, 2, 64, 64
5, 235584, Note_on_c, 2, 58, 100
5, 235776, Note_off_c, 2, 58, 64
5, 235776, Note_on_c, 2, 52, 100
5, 235968, Note_off_c, 2, 52, 64
5, 235968, Note_on_c, 2, 52, 100
5, 236160, Note_off_c, 2, 52, 64
5, 236160, Note_on_c, 2, 52, 100
5, 236352, Note_off_c, 2, 52, 64
5, 236352, Note_on_c, 2, 60, 100
5, 236352, Note_on_c, 2, 53, 100
5, 236544, Note_off_c, 2, 53, 64
5, 236544, Note_off_c, 2, 60, 64
5, 236544, Note_on_c, 2, 52, 100
5, 236736, Note_off_c, 2, 52, 64
5, 236736, Note_on_c, 2, 52, 100
5, 236928, Note_off_c, 2, 52, 64
5, 236928, Note_on_c, 2, 64, 100
5, 237120, Note_off_c, 2, 64, 64
5, 237120, Note_on_c, 2, 58, 100
5, 237312, Note_off_c, 2, 58, 64
5, 237312, Note_on_c, 2, 52, 100
5, 237504, Note_off_c, 2, 52, 64
5, 237504, Note_on_c, 2, 52, 100
5, 237696, Note_off_c, 2, 52, 64
5, 237696, Note_on_c, 2, 52, 100
5, 237888, Note_off_c, 2, 52, 64
5, 237888, Note_on_c, 2, 60, 100
5, 237888, Note_on_c, 2, 53, 100
5, 238080, Note_off_c, 2, 53, 64
5, 238080, Note_off_c, 2, 60, 64
5, 238080, Note_on_c, 2, 52, 100
5, 238272, Note_off_c, 2, 52, 64
5, 238272, Note_on_c, 2, 52, 100
5, 238464, Note_off_c, 2, 52, 64
5, 238464, Note_on_c, 2, 64, 100
5, 238656, Note_off_c, 2, 64, 64
5, 238656, Note_on_c, 2, 58, 100
5, 238848, Note_off_c, 2, 58, 64
5, 238848, Note_on_c, 2, 52, 100
5, 239040, Note_off_c, 2, 52, 64
5, 239040, Note_on_c, 2, 52, 100
5, 239232, Note_off_c, 2, 52, 64
5, 239232, Note_on_c, 2, 52, 100
5, 239424, Note_off_c, 2, 52, 64
5, 239424, Note_on_c, 2, 60, 100
5, 239424, Note_on_c, 2, 53, 100
5, 239616, Note_off_c, 2, 53, 64
5, 239616, Note_off_c, 2, 60, 64
5, 239616, Note_on_c, 2, 52, 100
5, 239808, Note_off_c, 2, 52, 64
5, 239808, Note_on_c, 2, 52, 100
5, 240000, Note_off_c, 2, 52, 64
5, 240000, Note_on_c, 2, 64, 100
5, 240192, Note_off_c, 2, 64, 64
5, 240192, Note_on_c, 2, 52, 100
5, 240384, Note_off_c, 2, 52, 64
5, 240384, Note_on_c, 2, 52, 100
5, 240576, Note_off_c, 2, 52, 64
5, 240576, Note_on_c, 2, 52, 100
5, 240768, Note_off_c, 2, 52, 64
5, 240768, Note_on_c, 2, 52, 100
5, 240960, Note_off_c, 2, 52, 64
5, 240960, Note_on_c, 2, 52, 100
5, 241152, Note_off_c, 2, 52, 64
5, 241152, Note_on_c, 2, 52, 100
5, 241344, Note_off_c, 2, 52, 64
5, 241344, Note_on_c, 2, 52, 100
5, 241536, Note_off_c, 2, 52, 64
5, 241536, Note_on_c, 2, 64, 100
5, 241728, Note_off_c, 2, 64, 64
5, 241728, Note_on_c, 2, 52, 100
5, 241920, Note_off_c, 2, 52, 64
5, 241920, Note_on_c, 2, 52, 100
5, 242112, Note_off_c, 2, 52, 64
5, 242112, Note_on_c, 2, 52, 100
5, 242304, Note_off_c, 2, 52, 64
5, 242304, Note_on_c, 2, 52, 100
5, 242496, Note_off_c, 2, 52, 64
5, 242496, Note_on_c, 2, 52, 100
5, 242688, Note_off_c, 2, 52, 64
5, 242688, Note_on_c, 2, 52, 100
5, 242880, Note_off_c, 2, 52, 64
5, 242880, Note_on_c, 2, 52, 100
5, 243072, Note_off_c, 2, 52, 64
5, 243072, Note_on_c, 2, 64, 100
5, 243264, Note_off_c, 2, 64, 64
5, 243264, Note_on_c, 2, 52, 100
5, 243456, Note_off_c, 2, 52, 64
5, 243456, Note_on_c, 2, 52, 100
5, 243648, Note_off_c, 2, 52, 64
5, 243648, Note_on_c, 2, 52, 100
5, 243840, Note_off_c, 2, 52, 64
5, 243840, Note_on_c, 2, 52, 100
5, 244032, Note_off_c, 2, 52, 64
5, 244032, Note_on_c, 2, 52, 100
5, 244224, Note_off_c, 2, 52, 64
5, 244224, Note_on_c, 2, 52, 100
5, 244416, Note_off_c, 2, 52, 64
5, 244416, Note_on_c, 2, 52, 100
5, 244608, Note_off_c, 2, 52, 64
5, 244608, Note_on_c, 2, 64, 100
5, 244800, Note_off_c, 2, 64, 64
5, 244800, Note_on_c, 2, 52, 100
5, 244992, Note_off_c, 2, 52, 64
5, 244992, Note_on_c, 2, 52, 100
5, 245184, Note_off_c, 2, 52, 64
5, 245184, Note_on_c, 2, 52, 100
5, 245376, Note_off_c, 2, 52, 64
5, 245376, Note_on_c, 2, 52, 100
5, 245568, Note_off_c, 2, 52, 64
5, 245568, Note_on_c, 2, 52, 100
5, 245760, Note_off_c, 2, 52, 64
5, 245760, Note_on_c, 2, 52, 100
5, 245952, Note_off_c, 2, 52, 64
5, 245952, Note_on_c, 2, 52, 100
5, 246144, Note_off_c, 2, 52, 64
5, 246144, Note_on_c, 2, 64, 100
5, 246336, Note_off_c, 2, 64, 64
5, 246336, Note_on_c, 2, 52, 100
5, 246528, Note_off_c, 2, 52, 64
5, 246528, Note_on_c, 2, 52, 100
5, 246720, Note_off_c, 2, 52, 64
5, 246720, Note_on_c, 2, 52, 100
5, 246912, Note_off_c, 2, 52, 64
5, 246912, Note_on_c, 2, 52, 100
5, 247104, Note_off_c, 2, 52, 64
5, 247104, Note_on_c, 2, 52, 100
5, 247296, Note_off_c, 2, 52, 64
5, 247296, Note_on_c, 2, 52, 100
5, 247488, Note_off_c, 2, 52, 64
5, 247488, Note_on_c, 2, 52, 100
5, 247680, Note_off_c, 2, 52, 64
5, 247680, Note_on_c, 2, 64, 100
5, 247872, Note_off_c, 2, 64, 64
5, 247872, Note_on_c, 2, 52, 100
5, 248064, Note_off_c, 2, 52, 64
5, 248064, Note_on_c, 2, 52, 100
5, 248256, Note_off_c, 2, 52, 64
5, 248256, Note_on_c, 2, 52, 100
5, 248448, Note_off_c, 2, 52, 64
5, 248448, Note_on_c, 2, 52, 100
5, 248640, Note_off_c, 2, 52, 64
5, 248640, Note_on_c, 2, 52, 100
5, 248832, Note_off_c, 2, 52, 64
5, 248832, Note_on_c, 2, 52, 99
5, 249024, Note_off_c, 2, 52, 64
5, 249024, Note_on_c, 2, 52, 97
5, 249216, Note_off_c, 2, 52, 64
5, 249216, Note_on_c, 2, 64, 97
5, 249408, Note_off_c, 2, 64, 64
5, 249408, Note_on_c, 2, 52, 94
5, 249600, Note_off_c, 2, 52, 64
5, 249600, Note_on_c, 2, 52, 93
5, 249792, Note_off_c, 2, 52, 64
5, 249792, Note_on_c, 2, 52, 91
5, 249984, Note_off_c, 2, 52, 64
5, 249984, Note_on_c, 2, 52, 89
5, 250176, Note_off_c, 2, 52, 64
5, 250176, Note_on_c, 2, 52, 88
5, 250368, Note_off_c, 2, 52, 64
5, 250368, Note_on_c, 2, 52, 86
5, 250560, Note_off_c, 2, 52, 64
5, 250560, Note_on_c, 2, 52, 85
5, 250752, Note_off_c, 2, 52, 64
5, 250752, Note_on_c, 2, 64, 84
5, 250944, Note_off_c, 2, 64, 64
5, 250944, Note_on_c, 2, 52, 82
5, 251136, Note_off_c, 2, 52, 64
5, 251136, Note_on_c, 2, 52, 80
5, 251328, Note_off_c, 2, 52, 64
5, 251328, Note_on_c, 2, 52, 79
5, 251520, Note_off_c, 2, 52, 64
5, 251520, Note_on_c, 2, 52, 77
5, 251712, Note_off_c, 2, 52, 64
5, 251712, Note_on_c, 2, 52, 76
5, 251904, Note_off_c, 2, 52, 64
5, 251904, Note_on_c, 2, 52, 74
5, 252096, Note_off_c, 2, 52, 64
5, 252096, Note_on_c, 2, 52, 73
5, 252288, Note_off_c, 2, 52, 64
5, 252288, Note_on_c, 2, 64, 72
5, 252480, Note_off_c, 2, 64, 64
5, 252480, Note_on_c, 2, 52, 70
5, 252672, Note_off_c, 2, 52, 64
5, 252672, Note_on_c, 2, 52, 68
5, 252864, Note_off_c, 2, 52, 64
5, 252864, Note_on_c, 2, 52, 67
5, 253056, Note_off_c, 2, 52, 64
5, 253056, Note_on_c, 2, 52, 65
5, 253248, Note_off_c, 2, 52, 64
5, 253248, Note_on_c, 2, 52, 64
5, 253440, Note_off_c, 2, 52, 64
5, 253440, Note_on_c, 2, 52, 62
5, 253632, Note_off_c, 2, 52, 64
5, 253632, Note_on_c, 2, 52, 60
5, 253824, Note_off_c, 2, 52, 64
5, 253824, Note_on_c, 2, 64, 59
5, 254016, Note_off_c, 2, 64, 64
5, 254016, Note_on_c, 2, 52, 57
5, 254208, Note_off_c, 2, 52, 64
5, 254208, Note_on_c, 2, 52, 56
5, 254400, Note_off_c, 2, 52, 64
5, 254400, Note_on_c, 2, 52, 54
5, 254592, Note_off_c, 2, 52, 64
5, 254592, Note_on_c, 2, 52, 53
5, 254784, Note_off_c, 2, 52, 64
5, 254784, Note_on_c, 2, 52, 51
5, 254976, Note_off_c, 2, 52, 64
5, 254976, Note_on_c, 2, 52, 50
5, 255168, Note_off_c, 2, 52, 64
5, 255168, Note_on_c, 2, 52, 48
5, 255360, Note_off_c, 2, 52, 64
5, 255360, Note_on_c, 2, 64, 47
5, 255552, Note_off_c, 2, 64, 64
5, 255552, Note_on_c, 2, 52, 45
5, 255744, Note_off_c, 2, 52, 64
5, 255744, Note_on_c, 2, 52, 44
5, 255936, Note_off_c, 2, 52, 64
5, 255936, Note_on_c, 2, 52, 42
5, 256128, Note_off_c, 2, 52, 64
5, 256128, Note_on_c, 2, 52, 41
5, 256320, Note_off_c, 2, 52, 64
5, 256320, Note_on_c, 2, 52, 39
5, 256512, Note_off_c, 2, 52, 64
5, 256512, Note_on_c, 2, 52, 38
5, 256704, Note_off_c, 2, 52, 64
5, 256704, Note_on_c, 2, 52, 36
5, 256896, Note_off_c, 2, 52, 64
5, 256896, Note_on_c, 2, 64, 34
5, 257088, Note_off_c, 2, 64, 64
5, 257088, Note_on_c, 2, 52, 33
5, 257280, Note_off_c, 2, 52, 64
5, 257280, Note_on_c, 2, 52, 32
5, 257472, Note_off_c, 2, 52, 64
5, 257472, Note_on_c, 2, 52, 30
5, 257664, Note_off_c, 2, 52, 64
5, 257664, Note_on_c, 2, 52, 28
5, 257856, Note_off_c, 2, 52, 64
5, 257856, Note_on_c, 2, 52, 27
5, 258048, Note_off_c, 2, 52, 64
5, 258048, Note_on_c, 2, 52, 25
5, 258240, Note_off_c, 2, 52, 64
5, 258240, Note_on_c, 2, 52, 24
5, 258432, Note_off_c, 2, 52, 64
5, 258432, Note_on_c, 2, 64, 22
5, 258624, Note_off_c, 2, 64, 64
5, 258624, Note_on_c, 2, 52, 21
5, 258816, Note_off_c, 2, 52, 64
5, 258816, Note_on_c, 2, 52, 19
5, 259008, Note_off_c, 2, 52, 64
5, 259008, Note_on_c, 2, 52, 18
5, 259200, Note_off_c, 2, 52, 64
5, 259200, Note_on_c, 2, 52, 16
5, 259392, Note_off_c, 2, 52, 64
5, 259392, Note_on_c, 2, 52, 15
5, 259584, Note_off_c, 2, 52, 64
5, 259584, Note_on_c, 2, 52, 13
5, 259776, Note_off_c, 2, 52, 64
5, 259776, Note_on_c, 2, 52, 12
5, 259968, Note_off_c, 2, 52, 64
5, 259968, Note_on_c, 2, 64, 10
5, 260160, Note_off_c, 2, 64, 64
5, 260160, Note_on_c, 2, 52, 9
5, 260352, Note_off_c, 2, 52, 64
5, 260352, Note_on_c, 2, 52, 7
5, 260544, Note_off_c, 2, 52, 64
5, 260544, Note_on_c, 2, 52, 6
5, 260736, Note_off_c, 2, 52, 64
5, 260736, Note_on_c, 2, 52, 4
5, 260928, Note_off_c, 2, 52, 64
5, 260928, Note_on_c, 2, 52, 3
5, 261120, Note_off_c, 2, 52, 64
5, 261120, End_track
6, 0, Start_track
6, 0, Title_t, "Guitar4"
6, 0, Control_c, 4, 7, 127
6, 0, Program_c, 4, 30
6, 23040, Control_c, 4, 7, 127
6, 23040, Program_c, 4, 30
6, 24384, Note_on_c, 4, 59, 100
6, 24384, Note_on_c, 4, 52, 100
6, 29760, Note_off_c, 4, 52, 64
6, 29760, Note_off_c, 4, 59, 64
6, 30528, Note_on_c, 4, 59, 100
6, 30528, Note_on_c, 4, 52, 100
6, 35904, Note_off_c, 4, 52, 64
6, 35904, Note_off_c, 4, 59, 64
6, 35904, Note_on_c, 4, 69, 100
6, 35904, Note_on_c, 4, 64, 100
6, 35904, Note_on_c, 4, 57, 100
6, 36288, Note_off_c, 4, 57, 64
6, 36288, Note_off_c, 4, 64, 64
6, 36288, Note_off_c, 4, 69, 64
6, 36288, Note_on_c, 4, 69, 100
6, 36288, Note_on_c, 4, 64, 100
6, 36288, Note_on_c, 4, 57, 100
6, 36672, Note_off_c, 4, 57, 64
6, 36672, Note_off_c, 4, 64, 64
6, 36672, Note_off_c, 4, 69, 64
6, 36672, Note_on_c, 4, 59, 100
6, 36672, Note_on_c, 4, 52, 100
6, 38208, Note_off_c, 4, 52, 64
6, 38208, Note_off_c, 4, 59, 64
6, 38208, Note_on_c, 4, 59, 100
6, 38208, Note_on_c, 4, 52, 100
6, 39744, Note_off_c, 4, 52, 64
6, 39744, Note_off_c, 4, 59, 64
6, 39744, Note_on_c, 4, 59, 100
6, 39744, Note_on_c, 4, 52, 100
6, 41280, Note_off_c, 4, 52, 64
6, 41280, Note_off_c, 4, 59, 64
6, 41280, Note_on_c, 4, 59, 100
6, 41280, Note_on_c, 4, 52, 100
6, 42816, Note_off_c, 4, 52, 64
6, 42816, Note_off_c, 4, 59, 64
6, 42816, Note_on_c, 4, 59, 100
6, 42816, Note_on_c, 4, 52, 100
6, 44352, Note_off_c, 4, 52, 64
6, 44352, Note_off_c, 4, 59, 64
6, 44352, Note_on_c, 4, 59, 100
6, 44352, Note_on_c, 4, 52, 100
6, 45888, Note_off_c, 4, 52, 64
6, 45888, Note_off_c, 4, 59, 64
6, 45888, Note_on_c, 4, 59, 100
6, 45888, Note_on_c, 4, 52, 100
6, 47424, Note_off_c, 4, 52, 64
6, 47424, Note_off_c, 4, 59, 64
6, 47424, Note_on_c, 4, 59, 100
6, 47424, Note_on_c, 4, 52, 100
6, 48960, Note_off_c, 4, 52, 64
6, 48960, Note_off_c, 4, 59, 64
6, 48960, Note_on_c, 4, 59, 100
6, 48960, Note_on_c, 4, 52, 100
6, 49344, Note_off_c, 4, 52, 64
6, 49344, Note_off_c, 4, 59, 64
6, 49344, Note_on_c, 4, 59, 100
6, 49344, Note_on_c, 4, 52, 100
6, 49536, Note_off_c, 4, 52, 64
6, 49536, Note_off_c, 4, 59, 64
6, 49536, Note_on_c, 4, 64, 100
6, 49728, Note_off_c, 4, 64, 64
6, 49728, Note_on_c, 4, 58, 100
6, 49920, Note_off_c, 4, 58, 64
6, 49920, Note_on_c, 4, 57, 100
6, 50304, Note_off_c, 4, 57, 64
6, 50304, Note_on_c, 4, 52, 100
6, 50496, Note_off_c, 4, 52, 64
6, 50496, Note_on_c, 4, 52, 127
6, 50496, Note_on_c, 4, 59, 127
6, 50880, Note_off_c, 4, 59, 64
6, 50880, Note_off_c, 4, 52, 64
6, 50880, Note_on_c, 4, 59, 100
6, 50880, Note_on_c, 4, 52, 100
6, 51072, Note_off_c, 4, 52, 64
6, 51072, Note_off_c, 4, 59, 64
6, 51072, Note_on_c, 4, 64, 100
6, 51264, Note_off_c, 4, 64, 64
6, 51264, Note_on_c, 4, 58, 100
6, 51456, Note_off_c, 4, 58, 64
6, 51456, Note_on_c, 4, 57, 100
6, 51840, Note_off_c, 4, 57, 64
6, 51840, Note_on_c, 4, 52, 100
6, 52032, Note_off_c, 4, 52, 64
6, 52032, Note_on_c, 4, 59, 127
6, 52032, Note_on_c, 4, 52, 127
6, 52416, Note_off_c, 4, 52, 64
6, 52416, Note_off_c, 4, 59, 64
6, 52416, Note_on_c, 4, 59, 100
6, 52416, Note_on_c, 4, 52, 100
6, 52608, Note_off_c, 4, 52, 64
6, 52608, Note_off_c, 4, 59, 64
6, 52608, Note_on_c, 4, 64, 100
6, 52800, Note_off_c, 4, 64, 64
6, 52800, Note_on_c, 4, 58, 100
6, 52992, Note_off_c, 4, 58, 64
6, 52992, Note_on_c, 4, 57, 100
6, 53376, Note_off_c, 4, 57, 64
6, 53376, Note_on_c, 4, 52, 100
6, 53568, Note_off_c, 4, 52, 64
6, 53568, Note_on_c, 4, 62, 127
6, 53568, Note_on_c, 4, 55, 127
6, 53952, Note_off_c, 4, 55, 64
6, 53952, Note_off_c, 4, 62, 64
6, 53952, Note_on_c, 4, 52, 100
6, 54144, Note_off_c, 4, 52, 64
6, 54144, Note_on_c, 4, 61, 100
6, 54144, Note_on_c, 4, 54, 100
6, 54336, Note_off_c, 4, 54, 64
6, 54336, Note_off_c, 4, 61, 64
6, 54336, Note_on_c, 4, 52, 100
6, 54528, Note_off_c, 4, 52, 64
6, 54528, Note_on_c, 4, 61, 100
6, 54528, Note_on_c, 4, 54, 100
6, 54720, Note_off_c, 4, 54, 64
6, 54720, Note_off_c, 4, 61, 64
6, 54720, Note_on_c, 4, 62, 100
6, 54720, Note_on_c, 4, 55, 100
6, 54912, Note_off_c, 4, 55, 64
6, 54912, Note_off_c, 4, 62, 64
6, 54912, Note_on_c, 4, 61, 100
6, 54912, Note_on_c, 4, 54, 100
6, 55104, Note_off_c, 4, 54, 64
6, 55104, Note_off_c, 4, 61, 64
6, 55104, Note_on_c, 4, 59, 127
6, 55104, Note_on_c, 4, 52, 127
6, 55488, Note_off_c, 4, 52, 64
6, 55488, Note_off_c, 4, 59, 64
6, 55488, Note_on_c, 4, 59, 100
6, 55488, Note_on_c, 4, 52, 100
6, 55680, Note_off_c, 4, 52, 64
6, 55680, Note_off_c, 4, 59, 64
6, 55680, Note_on_c, 4, 64, 100
6, 55872, Note_off_c, 4, 64, 64
6, 55872, Note_on_c, 4, 58, 100
6, 56064, Note_off_c, 4, 58, 64
6, 56064, Note_on_c, 4, 57, 100
6, 56448, Note_off_c, 4, 57, 64
6, 56448, Note_on_c, 4, 52, 100
6, 56640, Note_off_c, 4, 52, 64
6, 56640, Note_on_c, 4, 52, 127
6, 56640, Note_on_c, 4, 59, 127
6, 57024, Note_off_c, 4, 59, 64
6, 57024, Note_off_c, 4, 52, 64
6, 57024, Note_on_c, 4, 59, 100
6, 57024, Note_on_c, 4, 52, 100
6, 57216, Note_off_c, 4, 52, 64
6, 57216, Note_off_c, 4, 59, 64
6, 57216, Note_on_c, 4, 64, 100
6, 57408, Note_off_c, 4, 64, 64
6, 57408, Note_on_c, 4, 58, 100
6, 57600, Note_off_c, 4, 58, 64
6, 57600, Note_on_c, 4, 57, 100
6, 57984, Note_off_c, 4, 57, 64
6, 57984, Note_on_c, 4, 52, 100
6, 58176, Note_off_c, 4, 52, 64
6, 58176, Note_on_c, 4, 59, 127
6, 58176, Note_on_c, 4, 52, 127
6, 58560, Note_off_c, 4, 52, 64
6, 58560, Note_off_c, 4, 59, 64
6, 58560, Note_on_c, 4, 59, 100
6, 58560, Note_on_c, 4, 52, 100
6, 58752, Note_off_c, 4, 52, 64
6, 58752, Note_off_c, 4, 59, 64
6, 58752, Note_on_c, 4, 64, 100
6, 58944, Note_off_c, 4, 64, 64
6, 58944, Note_on_c, 4, 58, 100
6, 59136, Note_off_c, 4, 58, 64
6, 59136, Note_on_c, 4, 57, 100
6, 59520, Note_off_c, 4, 57, 64
6, 59520, Note_on_c, 4, 52, 100
6, 59712, Note_off_c, 4, 52, 64
6, 59712, Note_on_c, 4, 62, 127
6, 59712, Note_on_c, 4, 55, 127
6, 60096, Note_off_c, 4, 55, 64
6, 60096, Note_off_c, 4, 62, 64
6, 60096, Note_on_c, 4, 52, 100
6, 60288, Note_off_c, 4, 52, 64
6, 60288, Note_on_c, 4, 61, 100
6, 60288, Note_on_c, 4, 54, 100
6, 60480, Note_off_c, 4, 54, 64
6, 60480, Note_off_c, 4, 61, 64
6, 60480, Note_on_c, 4, 52, 100
6, 60672, Note_off_c, 4, 52, 64
6, 60672, Note_on_c, 4, 61, 100
6, 60672, Note_on_c, 4, 54, 100
6, 60864, Note_off_c, 4, 54, 64
6, 60864, Note_off_c, 4, 61, 64
6, 60864, Note_on_c, 4, 62, 100
6, 60864, Note_on_c, 4, 55, 100
6, 61056, Note_off_c, 4, 55, 64
6, 61056, Note_off_c, 4, 62, 64
6, 61056, Note_on_c, 4, 61, 100
6, 61056, Note_on_c, 4, 54, 100
6, 61248, Note_off_c, 4, 54, 64
6, 61248, Note_off_c, 4, 61, 64
6, 61248, Note_on_c, 4, 59, 127
6, 61248, Note_on_c, 4, 52, 127
6, 61632, Note_off_c, 4, 52, 64
6, 61632, Note_off_c, 4, 59, 64
6, 61632, Note_on_c, 4, 52, 100
6, 61824, Note_off_c, 4, 52, 64
6, 61824, Note_on_c, 4, 52, 100
6, 62016, Note_off_c, 4, 52, 64
6, 62016, Note_on_c, 4, 52, 100
6, 62208, Note_off_c, 4, 52, 64
6, 62208, Note_on_c, 4, 52, 100
6, 62400, Note_off_c, 4, 52, 64
6, 62400, Note_on_c, 4, 52, 100
6, 62592, Note_off_c, 4, 52, 64
6, 62592, Note_on_c, 4, 52, 100
6, 62784, Note_off_c, 4, 52, 64
6, 62784, Note_on_c, 4, 60, 127
6, 62784, Note_on_c, 4, 53, 127
6, 63168, Note_off_c, 4, 53, 64
6, 63168, Note_off_c, 4, 60, 64
6, 63168, Note_on_c, 4, 52, 100
6, 63360, Note_off_c, 4, 52, 64
6, 63360, Note_on_c, 4, 52, 100
6, 63552, Note_off_c, 4, 52, 64
6, 63552, Note_on_c, 4, 52, 100
6, 63744, Note_off_c, 4, 52, 64
6, 63744, Note_on_c, 4, 52, 100
6, 63936, Note_off_c, 4, 52, 64
6, 63936, Note_on_c, 4, 52, 100
6, 64128, Note_off_c, 4, 52, 64
6, 64128, Note_on_c, 4, 52, 100
6, 64320, Note_off_c, 4, 52, 64
6, 64320, Note_on_c, 4, 60, 127
6, 64320, Note_on_c, 4, 53, 127
6, 64704, Note_off_c, 4, 53, 64
6, 64704, Note_off_c, 4, 60, 64
6, 64704, Note_on_c, 4, 52, 100
6, 64896, Note_off_c, 4, 52, 64
6, 64896, Note_on_c, 4, 52, 100
6, 65088, Note_off_c, 4, 52, 64
6, 65088, Note_on_c, 4, 52, 100
6, 65280, Note_off_c, 4, 52, 64
6, 65280, Note_on_c, 4, 52, 100
6, 65472, Note_off_c, 4, 52, 64
6, 65472, Note_on_c, 4, 52, 100
6, 65664, Note_off_c, 4, 52, 64
6, 65664, Note_on_c, 4, 52, 100
6, 65856, Note_off_c, 4, 52, 64
6, 65856, Note_on_c, 4, 62, 127
6, 65856, Note_on_c, 4, 55, 127
6, 66240, Note_off_c, 4, 55, 64
6, 66240, Note_off_c, 4, 62, 64
6, 66240, Note_on_c, 4, 52, 100
6, 66432, Note_off_c, 4, 52, 64
6, 66432, Note_on_c, 4, 61, 100
6, 66432, Note_on_c, 4, 54, 100
6, 66624, Note_off_c, 4, 54, 64
6, 66624, Note_off_c, 4, 61, 64
6, 66624, Note_on_c, 4, 52, 100
6, 66816, Note_off_c, 4, 52, 64
6, 66816, Note_on_c, 4, 61, 100
6, 66816, Note_on_c, 4, 54, 100
6, 67008, Note_off_c, 4, 54, 64
6, 67008, Note_off_c, 4, 61, 64
6, 67008, Note_on_c, 4, 62, 100
6, 67008, Note_on_c, 4, 55, 100
6, 67200, Note_off_c, 4, 55, 64
6, 67200, Note_off_c, 4, 62, 64
6, 67200, Note_on_c, 4, 61, 100
6, 67200, Note_on_c, 4, 54, 100
6, 67392, Note_off_c, 4, 54, 64
6, 67392, Note_off_c, 4, 61, 64
6, 67392, Note_on_c, 4, 59, 127
6, 67392, Note_on_c, 4, 52, 127
6, 67776, Note_off_c, 4, 52, 64
6, 67776, Note_off_c, 4, 59, 64
6, 67776, Note_on_c, 4, 52, 100
6, 67968, Note_off_c, 4, 52, 64
6, 67968, Note_on_c, 4, 52, 100
6, 68160, Note_off_c, 4, 52, 64
6, 68160, Note_on_c, 4, 52, 100
6, 68352, Note_off_c, 4, 52, 64
6, 68352, Note_on_c, 4, 52, 100
6, 68544, Note_off_c, 4, 52, 64
6, 68544, Note_on_c, 4, 52, 100
6, 68736, Note_off_c, 4, 52, 64
6, 68736, Note_on_c, 4, 52, 100
6, 68928, Note_off_c, 4, 52, 64
6, 68928, Note_on_c, 4, 60, 127
6, 68928, Note_on_c, 4, 53, 127
6, 69312, Note_off_c, 4, 53, 64
6, 69312, Note_off_c, 4, 60, 64
6, 69312, Note_on_c, 4, 52, 100
6, 69504, Note_off_c, 4, 52, 64
6, 69504, Note_on_c, 4, 52, 100
6, 69696, Note_off_c, 4, 52, 64
6, 69696, Note_on_c, 4, 52, 100
6, 69888, Note_off_c, 4, 52, 64
6, 69888, Note_on_c, 4, 52, 100
6, 70080, Note_off_c, 4, 52, 64
6, 70080, Note_on_c, 4, 52, 100
6, 70272, Note_off_c, 4, 52, 64
6, 70272, Note_on_c, 4, 52, 100
6, 70464, Note_off_c, 4, 52, 64
6, 70464, Note_on_c, 4, 60, 127
6, 70464, Note_on_c, 4, 53, 127
6, 70848, Note_off_c, 4, 53, 64
6, 70848, Note_off_c, 4, 60, 64
6, 70848, Note_on_c, 4, 52, 100
6, 71040, Note_off_c, 4, 52, 64
6, 71040, Note_on_c, 4, 52, 100
6, 71232, Note_off_c, 4, 52, 64
6, 71232, Note_on_c, 4, 52, 100
6, 71424, Note_off_c, 4, 52, 64
6, 71424, Note_on_c, 4, 52, 100
6, 71616, Note_off_c, 4, 52, 64
6, 71616, Note_on_c, 4, 52, 100
6, 71808, Note_off_c, 4, 52, 64
6, 71808, Note_on_c, 4, 52, 100
6, 72000, Note_off_c, 4, 52, 64
6, 72000, Note_on_c, 4, 62, 127
6, 72000, Note_on_c, 4, 55, 127
6, 72384, Note_off_c, 4, 55, 64
6, 72384, Note_off_c, 4, 62, 64
6, 72384, Note_on_c, 4, 52, 100
6, 72576, Note_off_c, 4, 52, 64
6, 72576, Note_on_c, 4, 61, 100
6, 72576, Note_on_c, 4, 54, 100
6, 72768, Note_off_c, 4, 54, 64
6, 72768, Note_off_c, 4, 61, 64
6, 72768, Note_on_c, 4, 52, 100
6, 72960, Note_off_c, 4, 52, 64
6, 72960, Note_on_c, 4, 61, 100
6, 72960, Note_on_c, 4, 54, 100
6, 73152, Note_off_c, 4, 54, 64
6, 73152, Note_off_c, 4, 61, 64
6, 73152, Note_on_c, 4, 62, 100
6, 73152, Note_on_c, 4, 55, 100
6, 73344, Note_off_c, 4, 55, 64
6, 73344, Note_off_c, 4, 62, 64
6, 73344, Note_on_c, 4, 61, 100
6, 73344, Note_on_c, 4, 54, 100
6, 73536, Note_off_c, 4, 54, 64
6, 73536, Note_off_c, 4, 61, 64
6, 73536, Note_on_c, 4, 54, 127
6, 73920, Note_off_c, 4, 54, 64
6, 73920, Note_on_c, 4, 66, 100
6, 74112, Note_off_c, 4, 66, 64
6, 74112, Note_on_c, 4, 69, 100
6, 74304, Note_off_c, 4, 69, 64
6, 74304, Note_on_c, 4, 60, 100
6, 74496, Note_off_c, 4, 60, 64
6, 74496, Note_on_c, 4, 59, 100
6, 74880, Note_off_c, 4, 59, 64
6, 74880, Note_on_c, 4, 66, 100
6, 75072, Note_off_c, 4, 66, 64
6, 75072, Note_on_c, 4, 54, 127
6, 75456, Note_off_c, 4, 54, 64
6, 75456, Note_on_c, 4, 66, 100
6, 75648, Note_off_c, 4, 66, 64
6, 75648, Note_on_c, 4, 69, 100
6, 75840, Note_off_c, 4, 69, 64
6, 75840, Note_on_c, 4, 60, 100
6, 76032, Note_off_c, 4, 60, 64
6, 76032, Note_on_c, 4, 59, 100
6, 76416, Note_off_c, 4, 59, 64
6, 76416, Note_on_c, 4, 66, 100
6, 76608, Note_off_c, 4, 66, 64
6, 76608, Note_on_c, 4, 54, 127
6, 76992, Note_off_c, 4, 54, 64
6, 76992, Note_on_c, 4, 66, 100
6, 77184, Note_off_c, 4, 66, 64
6, 77184, Note_on_c, 4, 69, 100
6, 77376, Note_off_c, 4, 69, 64
6, 77376, Note_on_c, 4, 60, 100
6, 77568, Note_off_c, 4, 60, 64
6, 77568, Note_on_c, 4, 59, 100
6, 77952, Note_off_c, 4, 59, 64
6, 77952, Note_on_c, 4, 66, 100
6, 78144, Note_off_c, 4, 66, 64
6, 78144, Note_on_c, 4, 54, 127
6, 78528, Note_off_c, 4, 54, 64
6, 78528, Note_on_c, 4, 66, 100
6, 78720, Note_off_c, 4, 66, 64
6, 78720, Note_on_c, 4, 69, 100
6, 78912, Note_off_c, 4, 69, 64
6, 78912, Note_on_c, 4, 60, 100
6, 79104, Note_off_c, 4, 60, 64
6, 79104, Note_on_c, 4, 59, 100
6, 79488, Note_off_c, 4, 59, 64
6, 79488, Note_on_c, 4, 66, 100
6, 79872, Note_off_c, 4, 66, 64
6, 79872, Note_on_c, 4, 54, 100
6, 79872, Note_on_c, 4, 61, 100
6, 80256, Note_off_c, 4, 61, 64
6, 80256, Note_off_c, 4, 54, 64
6, 80256, Note_on_c, 4, 61, 100
6, 80448, Note_off_c, 4, 61, 64
6, 80448, Note_on_c, 4, 60, 100
6, 80640, Note_off_c, 4, 60, 64
6, 80640, Note_on_c, 4, 66, 100
6, 80640, Note_on_c, 4, 59, 100
6, 81216, Note_off_c, 4, 59, 64
6, 81216, Note_off_c, 4, 66, 64
6, 81216, Note_on_c, 4, 61, 100
6, 81216, Note_on_c, 4, 54, 100
6, 81792, Note_off_c, 4, 54, 64
6, 81792, Note_off_c, 4, 61, 64
6, 81792, Note_on_c, 4, 61, 100
6, 81984, Note_off_c, 4, 61, 64
6, 81984, Note_on_c, 4, 60, 100
6, 82176, Note_off_c, 4, 60, 64
6, 82176, Note_on_c, 4, 66, 100
6, 82176, Note_on_c, 4, 59, 100
6, 82752, Note_off_c, 4, 59, 64
6, 82752, Note_off_c, 4, 66, 64
6, 82752, Note_on_c, 4, 61, 100
6, 82752, Note_on_c, 4, 54, 100
6, 83328, Note_off_c, 4, 54, 64
6, 83328, Note_off_c, 4, 61, 64
6, 83328, Note_on_c, 4, 61, 100
6, 83520, Note_off_c, 4, 61, 64
6, 83520, Note_on_c, 4, 60, 100
6, 83712, Note_off_c, 4, 60, 64
6, 83712, Note_on_c, 4, 66, 100
6, 83712, Note_on_c, 4, 59, 100
6, 84288, Note_off_c, 4, 59, 64
6, 84288, Note_off_c, 4, 66, 64
6, 84288, Note_on_c, 4, 59, 100
6, 84288, Note_on_c, 4, 52, 100
6, 84864, Note_off_c, 4, 52, 64
6, 84864, Note_off_c, 4, 59, 64
6, 84864, Note_on_c, 4, 67, 100
6, 85056, Note_off_c, 4, 67, 64
6, 85056, Note_on_c, 4, 64, 100
6, 85248, Note_off_c, 4, 64, 64
6, 85248, Note_on_c, 4, 69, 100
6, 85440, Note_off_c, 4, 69, 64
6, 85440, Note_on_c, 4, 64, 100
6, 85632, Note_off_c, 4, 64, 64
6, 85632, Note_on_c, 4, 71, 100
6, 85824, Note_off_c, 4, 71, 64
6, 85824, Note_on_c, 4, 68, 100
6, 86016, Note_off_c, 4, 68, 64
6, 86016, Note_on_c, 4, 61, 100
6, 86016, Note_on_c, 4, 54, 100
6, 86400, Note_on_c, 4, 61, 100
6, 86592, Note_off_c, 4, 61, 64
6, 86592, Note_off_c, 4, 54, 64
6, 86592, Note_off_c, 4, 61, 64
6, 86592, Note_on_c, 4, 60, 100
6, 86784, Note_off_c, 4, 60, 64
6, 86784, Note_on_c, 4, 66, 100
6, 86784, Note_on_c, 4, 59, 100
6, 87360, Note_off_c, 4, 59, 64
6, 87360, Note_off_c, 4, 66, 64
6, 87360, Note_on_c, 4, 59, 100
6, 87360, Note_on_c, 4, 52, 100
6, 87744, Note_off_c, 4, 52, 64
6, 87744, Note_off_c, 4, 59, 64
6, 87936, Note_on_c, 4, 67, 100
6, 88128, Note_off_c, 4, 67, 64
6, 88128, Note_on_c, 4, 64, 100
6, 88320, Note_off_c, 4, 64, 64
6, 88320, Note_on_c, 4, 67, 100
6, 88512, Note_off_c, 4, 67, 64
6, 88512, Note_on_c, 4, 64, 100
6, 88704, Note_off_c, 4, 64, 64
6, 88704, Note_on_c, 4, 69, 100
6, 88896, Note_off_c, 4, 69, 64
6, 88896, Note_on_c, 4, 64, 100
6, 89088, Note_off_c, 4, 64, 64
6, 89088, Note_on_c, 4, 62, 100
6, 89088, Note_on_c, 4, 55, 100
6, 89280, Note_off_c, 4, 55, 64
6, 89280, Note_off_c, 4, 62, 64
6, 89280, Note_on_c, 4, 52, 100
6, 89472, Note_off_c, 4, 52, 64
6, 89472, Note_on_c, 4, 61, 100
6, 89472, Note_on_c, 4, 54, 100
6, 89664, Note_off_c, 4, 54, 64
6, 89664, Note_off_c, 4, 61, 64
6, 89664, Note_on_c, 4, 52, 100
6, 89856, Note_off_c, 4, 52, 64
6, 89856, Note_on_c, 4, 61, 100
6, 89856, Note_on_c, 4, 54, 100
6, 90048, Note_off_c, 4, 54, 64
6, 90048, Note_off_c, 4, 61, 64
6, 90048, Note_on_c, 4, 62, 100
6, 90048, Note_on_c, 4, 55, 100
6, 90240, Note_off_c, 4, 55, 64
6, 90240, Note_off_c, 4, 62, 64
6, 90240, Note_on_c, 4, 61, 100
6, 90240, Note_on_c, 4, 54, 100
6, 90432, Note_off_c, 4, 54, 64
6, 90432, Note_off_c, 4, 61, 64
6, 90432, Note_on_c, 4, 59, 127
6, 90432, Note_on_c, 4, 52, 127
6, 90816, Note_off_c, 4, 52, 64
6, 90816, Note_off_c, 4, 59, 64
6, 90816, Note_on_c, 4, 59, 100
6, 90816, Note_on_c, 4, 52, 100
6, 91008, Note_off_c, 4, 52, 64
6, 91008, Note_off_c, 4, 59, 64
6, 91008, Note_on_c, 4, 64, 100
6, 91200, Note_off_c, 4, 64, 64
6, 91200, Note_on_c, 4, 58, 100
6, 91392, Note_off_c, 4, 58, 64
6, 91392, Note_on_c, 4, 57, 100
6, 91776, Note_off_c, 4, 57, 64
6, 91776, Note_on_c, 4, 52, 100
6, 91968, Note_off_c, 4, 52, 64
6, 91968, Note_on_c, 4, 52, 127
6, 91968, Note_on_c, 4, 59, 127
6, 92352, Note_off_c, 4, 59, 64
6, 92352, Note_off_c, 4, 52, 64
6, 92352, Note_on_c, 4, 59, 100
6, 92352, Note_on_c, 4, 52, 100
6, 92544, Note_off_c, 4, 52, 64
6, 92544, Note_off_c, 4, 59, 64
6, 92544, Note_on_c, 4, 64, 100
6, 92736, Note_off_c, 4, 64, 64
6, 92736, Note_on_c, 4, 58, 100
6, 92928, Note_off_c, 4, 58, 64
6, 92928, Note_on_c, 4, 57, 100
6, 93312, Note_off_c, 4, 57, 64
6, 93312, Note_on_c, 4, 52, 100
6, 93504, Note_off_c, 4, 52, 64
6, 93504, Note_on_c, 4, 59, 127
6, 93504, Note_on_c, 4, 52, 127
6, 93888, Note_off_c, 4, 52, 64
6, 93888, Note_off_c, 4, 59, 64
6, 93888, Note_on_c, 4, 59, 100
6, 93888, Note_on_c, 4, 52, 100
6, 94080, Note_off_c, 4, 52, 64
6, 94080, Note_off_c, 4, 59, 64
6, 94080, Note_on_c, 4, 64, 100
6, 94272, Note_off_c, 4, 64, 64
6, 94272, Note_on_c, 4, 58, 100
6, 94464, Note_off_c, 4, 58, 64
6, 94464, Note_on_c, 4, 57, 100
6, 94848, Note_off_c, 4, 57, 64
6, 94848, Note_on_c, 4, 52, 100
6, 95040, Note_off_c, 4, 52, 64
6, 95040, Note_on_c, 4, 62, 127
6, 95040, Note_on_c, 4, 55, 127
6, 95424, Note_off_c, 4, 55, 64
6, 95424, Note_off_c, 4, 62, 64
6, 95424, Note_on_c, 4, 52, 100
6, 95616, Note_off_c, 4, 52, 64
6, 95616, Note_on_c, 4, 61, 100
6, 95616, Note_on_c, 4, 54, 100
6, 95808, Note_off_c, 4, 54, 64
6, 95808, Note_off_c, 4, 61, 64
6, 95808, Note_on_c, 4, 52, 100
6, 96000, Note_off_c, 4, 52, 64
6, 96000, Note_on_c, 4, 61, 100
6, 96000, Note_on_c, 4, 54, 100
6, 96192, Note_off_c, 4, 54, 64
6, 96192, Note_off_c, 4, 61, 64
6, 96192, Note_on_c, 4, 62, 100
6, 96192, Note_on_c, 4, 55, 100
6, 96384, Note_off_c, 4, 55, 64
6, 96384, Note_off_c, 4, 62, 64
6, 96384, Note_on_c, 4, 61, 100
6, 96384, Note_on_c, 4, 54, 100
6, 96576, Note_off_c, 4, 54, 64
6, 96576, Note_off_c, 4, 61, 64
6, 96576, Note_on_c, 4, 59, 127
6, 96576, Note_on_c, 4, 52, 127
6, 96960, Note_off_c, 4, 52, 64
6, 96960, Note_off_c, 4, 59, 64
6, 96960, Note_on_c, 4, 59, 100
6, 96960, Note_on_c, 4, 52, 100
6, 97152, Note_off_c, 4, 52, 64
6, 97152, Note_off_c, 4, 59, 64
6, 97152, Note_on_c, 4, 64, 100
6, 97344, Note_off_c, 4, 64, 64
6, 97344, Note_on_c, 4, 58, 100
6, 97536, Note_off_c, 4, 58, 64
6, 97536, Note_on_c, 4, 57, 100
6, 97920, Note_off_c, 4, 57, 64
6, 97920, Note_on_c, 4, 52, 100
6, 98112, Note_off_c, 4, 52, 64
6, 98112, Note_on_c, 4, 52, 127
6, 98112, Note_on_c, 4, 59, 127
6, 98496, Note_off_c, 4, 59, 64
6, 98496, Note_off_c, 4, 52, 64
6, 98496, Note_on_c, 4, 59, 100
6, 98496, Note_on_c, 4, 52, 100
6, 98688, Note_off_c, 4, 52, 64
6, 98688, Note_off_c, 4, 59, 64
6, 98688, Note_on_c, 4, 64, 100
6, 98880, Note_off_c, 4, 64, 64
6, 98880, Note_on_c, 4, 58, 100
6, 99072, Note_off_c, 4, 58, 64
6, 99072, Note_on_c, 4, 57, 100
6, 99456, Note_off_c, 4, 57, 64
6, 99456, Note_on_c, 4, 52, 100
6, 99648, Note_off_c, 4, 52, 64
6, 99648, Note_on_c, 4, 59, 127
6, 99648, Note_on_c, 4, 52, 127
6, 100032, Note_off_c, 4, 52, 64
6, 100032, Note_off_c, 4, 59, 64
6, 100032, Note_on_c, 4, 59, 100
6, 100032, Note_on_c, 4, 52, 100
6, 100224, Note_off_c, 4, 52, 64
6, 100224, Note_off_c, 4, 59, 64
6, 100224, Note_on_c, 4, 64, 100
6, 100416, Note_off_c, 4, 64, 64
6, 100416, Note_on_c, 4, 58, 100
6, 100608, Note_off_c, 4, 58, 64
6, 100608, Note_on_c, 4, 57, 100
6, 100992, Note_off_c, 4, 57, 64
6, 100992, Note_on_c, 4, 52, 100
6, 101184, Note_off_c, 4, 52, 64
6, 101184, Note_on_c, 4, 62, 127
6, 101184, Note_on_c, 4, 55, 127
6, 101568, Note_off_c, 4, 55, 64
6, 101568, Note_off_c, 4, 62, 64
6, 101568, Note_on_c, 4, 52, 100
6, 101760, Note_off_c, 4, 52, 64
6, 101760, Note_on_c, 4, 61, 100
6, 101760, Note_on_c, 4, 54, 100
6, 101952, Note_off_c, 4, 54, 64
6, 101952, Note_off_c, 4, 61, 64
6, 101952, Note_on_c, 4, 52, 100
6, 102144, Note_off_c, 4, 52, 64
6, 102144, Note_on_c, 4, 61, 100
6, 102144, Note_on_c, 4, 54, 100
6, 102336, Note_off_c, 4, 54, 64
6, 102336, Note_off_c, 4, 61, 64
6, 102336, Note_on_c, 4, 62, 100
6, 102336, Note_on_c, 4, 55, 100
6, 102528, Note_off_c, 4, 55, 64
6, 102528, Note_off_c, 4, 62, 64
6, 102528, Note_on_c, 4, 61, 100
6, 102528, Note_on_c, 4, 54, 100
6, 102720, Note_off_c, 4, 54, 64
6, 102720, Note_off_c, 4, 61, 64
6, 102720, Note_on_c, 4, 59, 127
6, 102720, Note_on_c, 4, 52, 127
6, 103104, Note_off_c, 4, 52, 64
6, 103104, Note_off_c, 4, 59, 64
6, 103104, Note_on_c, 4, 52, 100
6, 103296, Note_off_c, 4, 52, 64
6, 103296, Note_on_c, 4, 52, 100
6, 103488, Note_off_c, 4, 52, 64
6, 103488, Note_on_c, 4, 52, 100
6, 103680, Note_off_c, 4, 52, 64
6, 103680, Note_on_c, 4, 52, 100
6, 103872, Note_off_c, 4, 52, 64
6, 103872, Note_on_c, 4, 52, 100
6, 104064, Note_off_c, 4, 52, 64
6, 104064, Note_on_c, 4, 52, 100
6, 104256, Note_off_c, 4, 52, 64
6, 104256, Note_on_c, 4, 60, 127
6, 104256, Note_on_c, 4, 53, 127
6, 104640, Note_off_c, 4, 53, 64
6, 104640, Note_off_c, 4, 60, 64
6, 104640, Note_on_c, 4, 52, 100
6, 104832, Note_off_c, 4, 52, 64
6, 104832, Note_on_c, 4, 52, 100
6, 105024, Note_off_c, 4, 52, 64
6, 105024, Note_on_c, 4, 52, 100
6, 105216, Note_off_c, 4, 52, 64
6, 105216, Note_on_c, 4, 52, 100
6, 105408, Note_off_c, 4, 52, 64
6, 105408, Note_on_c, 4, 52, 100
6, 105600, Note_off_c, 4, 52, 64
6, 105600, Note_on_c, 4, 52, 100
6, 105792, Note_off_c, 4, 52, 64
6, 105792, Note_on_c, 4, 60, 127
6, 105792, Note_on_c, 4, 53, 127
6, 106176, Note_off_c, 4, 53, 64
6, 106176, Note_off_c, 4, 60, 64
6, 106176, Note_on_c, 4, 52, 100
6, 106368, Note_off_c, 4, 52, 64
6, 106368, Note_on_c, 4, 52, 100
6, 106560, Note_off_c, 4, 52, 64
6, 106560, Note_on_c, 4, 52, 100
6, 106752, Note_off_c, 4, 52, 64
6, 106752, Note_on_c, 4, 52, 100
6, 106944, Note_off_c, 4, 52, 64
6, 106944, Note_on_c, 4, 52, 100
6, 107136, Note_off_c, 4, 52, 64
6, 107136, Note_on_c, 4, 52, 100
6, 107328, Note_off_c, 4, 52, 64
6, 107328, Note_on_c, 4, 62, 127
6, 107328, Note_on_c, 4, 55, 127
6, 107712, Note_off_c, 4, 55, 64
6, 107712, Note_off_c, 4, 62, 64
6, 107712, Note_on_c, 4, 52, 100
6, 107904, Note_off_c, 4, 52, 64
6, 107904, Note_on_c, 4, 61, 100
6, 107904, Note_on_c, 4, 54, 100
6, 108096, Note_off_c, 4, 54, 64
6, 108096, Note_off_c, 4, 61, 64
6, 108096, Note_on_c, 4, 52, 100
6, 108288, Note_off_c, 4, 52, 64
6, 108288, Note_on_c, 4, 61, 100
6, 108288, Note_on_c, 4, 54, 100
6, 108480, Note_off_c, 4, 54, 64
6, 108480, Note_off_c, 4, 61, 64
6, 108480, Note_on_c, 4, 62, 100
6, 108480, Note_on_c, 4, 55, 100
6, 108672, Note_off_c, 4, 55, 64
6, 108672, Note_off_c, 4, 62, 64
6, 108672, Note_on_c, 4, 61, 100
6, 108672, Note_on_c, 4, 54, 100
6, 108864, Note_off_c, 4, 54, 64
6, 108864, Note_off_c, 4, 61, 64
6, 108864, Note_on_c, 4, 59, 127
6, 108864, Note_on_c, 4, 52, 127
6, 109248, Note_off_c, 4, 52, 64
6, 109248, Note_off_c, 4, 59, 64
6, 109248, Note_on_c, 4, 52, 100
6, 109440, Note_off_c, 4, 52, 64
6, 109440, Note_on_c, 4, 52, 100
6, 109632, Note_off_c, 4, 52, 64
6, 109632, Note_on_c, 4, 52, 100
6, 109824, Note_off_c, 4, 52, 64
6, 109824, Note_on_c, 4, 52, 100
6, 110016, Note_off_c, 4, 52, 64
6, 110016, Note_on_c, 4, 52, 100
6, 110208, Note_off_c, 4, 52, 64
6, 110208, Note_on_c, 4, 52, 100
6, 110400, Note_off_c, 4, 52, 64
6, 110400, Note_on_c, 4, 60, 127
6, 110400, Note_on_c, 4, 53, 127
6, 110784, Note_off_c, 4, 53, 64
6, 110784, Note_off_c, 4, 60, 64
6, 110784, Note_on_c, 4, 52, 100
6, 110976, Note_off_c, 4, 52, 64
6, 110976, Note_on_c, 4, 52, 100
6, 111168, Note_off_c, 4, 52, 64
6, 111168, Note_on_c, 4, 52, 100
6, 111360, Note_off_c, 4, 52, 64
6, 111360, Note_on_c, 4, 52, 100
6, 111552, Note_off_c, 4, 52, 64
6, 111552, Note_on_c, 4, 52, 100
6, 111744, Note_off_c, 4, 52, 64
6, 111744, Note_on_c, 4, 52, 100
6, 111936, Note_off_c, 4, 52, 64
6, 111936, Note_on_c, 4, 60, 127
6, 111936, Note_on_c, 4, 53, 127
6, 112320, Note_off_c, 4, 53, 64
6, 112320, Note_off_c, 4, 60, 64
6, 112320, Note_on_c, 4, 52, 100
6, 112512, Note_off_c, 4, 52, 64
6, 112512, Note_on_c, 4, 52, 100
6, 112704, Note_off_c, 4, 52, 64
6, 112704, Note_on_c, 4, 52, 100
6, 112896, Note_off_c, 4, 52, 64
6, 112896, Note_on_c, 4, 52, 100
6, 113088, Note_off_c, 4, 52, 64
6, 113088, Note_on_c, 4, 52, 100
6, 113280, Note_off_c, 4, 52, 64
6, 113280, Note_on_c, 4, 52, 100
6, 113472, Note_off_c, 4, 52, 64
6, 113472, Note_on_c, 4, 62, 127
6, 113472, Note_on_c, 4, 55, 127
6, 113856, Note_off_c, 4, 55, 64
6, 113856, Note_off_c, 4, 62, 64
6, 113856, Note_on_c, 4, 52, 100
6, 114048, Note_off_c, 4, 52, 64
6, 114048, Note_on_c, 4, 61, 100
6, 114048, Note_on_c, 4, 54, 100
6, 114240, Note_off_c, 4, 54, 64
6, 114240, Note_off_c, 4, 61, 64
6, 114240, Note_on_c, 4, 52, 100
6, 114432, Note_off_c, 4, 52, 64
6, 114432, Note_on_c, 4, 61, 100
6, 114432, Note_on_c, 4, 54, 100
6, 114624, Note_off_c, 4, 54, 64
6, 114624, Note_off_c, 4, 61, 64
6, 114624, Note_on_c, 4, 62, 100
6, 114624, Note_on_c, 4, 55, 100
6, 114816, Note_off_c, 4, 55, 64
6, 114816, Note_off_c, 4, 62, 64
6, 114816, Note_on_c, 4, 61, 100
6, 114816, Note_on_c, 4, 54, 100
6, 115008, Note_off_c, 4, 54, 64
6, 115008, Note_off_c, 4, 61, 64
6, 115008, Note_on_c, 4, 54, 127
6, 115392, Note_off_c, 4, 54, 64
6, 115392, Note_on_c, 4, 66, 100
6, 115584, Note_off_c, 4, 66, 64
6, 115584, Note_on_c, 4, 69, 100
6, 115776, Note_off_c, 4, 69, 64
6, 115776, Note_on_c, 4, 60, 100
6, 115968, Note_off_c, 4, 60, 64
6, 115968, Note_on_c, 4, 59, 100
6, 116352, Note_off_c, 4, 59, 64
6, 116352, Note_on_c, 4, 66, 100
6, 116544, Note_off_c, 4, 66, 64
6, 116544, Note_on_c, 4, 54, 127
6, 116928, Note_off_c, 4, 54, 64
6, 116928, Note_on_c, 4, 66, 100
6, 117120, Note_off_c, 4, 66, 64
6, 117120, Note_on_c, 4, 69, 100
6, 117312, Note_off_c, 4, 69, 64
6, 117312, Note_on_c, 4, 60, 100
6, 117504, Note_off_c, 4, 60, 64
6, 117504, Note_on_c, 4, 59, 100
6, 117888, Note_off_c, 4, 59, 64
6, 117888, Note_on_c, 4, 66, 100
6, 118080, Note_off_c, 4, 66, 64
6, 118080, Note_on_c, 4, 54, 127
6, 118464, Note_off_c, 4, 54, 64
6, 118464, Note_on_c, 4, 66, 100
6, 118656, Note_off_c, 4, 66, 64
6, 118656, Note_on_c, 4, 69, 100
6, 118848, Note_off_c, 4, 69, 64
6, 118848, Note_on_c, 4, 60, 100
6, 119040, Note_off_c, 4, 60, 64
6, 119040, Note_on_c, 4, 59, 100
6, 119424, Note_off_c, 4, 59, 64
6, 119424, Note_on_c, 4, 66, 100
6, 119616, Note_off_c, 4, 66, 64
6, 119616, Note_on_c, 4, 54, 127
6, 120000, Note_off_c, 4, 54, 64
6, 120000, Note_on_c, 4, 66, 100
6, 120192, Note_off_c, 4, 66, 64
6, 120192, Note_on_c, 4, 69, 100
6, 120384, Note_off_c, 4, 69, 64
6, 120384, Note_on_c, 4, 60, 100
6, 120576, Note_off_c, 4, 60, 64
6, 120576, Note_on_c, 4, 59, 100
6, 120960, Note_off_c, 4, 59, 64
6, 120960, Note_on_c, 4, 66, 100
6, 121344, Note_off_c, 4, 66, 64
6, 121344, Note_on_c, 4, 54, 100
6, 121344, Note_on_c, 4, 61, 100
6, 121728, Note_off_c, 4, 61, 64
6, 121728, Note_off_c, 4, 54, 64
6, 121728, Note_on_c, 4, 61, 100
6, 121920, Note_off_c, 4, 61, 64
6, 121920, Note_on_c, 4, 60, 100
6, 122112, Note_off_c, 4, 60, 64
6, 122112, Note_on_c, 4, 66, 100
6, 122112, Note_on_c, 4, 59, 100
6, 122688, Note_off_c, 4, 59, 64
6, 122688, Note_off_c, 4, 66, 64
6, 122688, Note_on_c, 4, 61, 100
6, 122688, Note_on_c, 4, 54, 100
6, 123264, Note_off_c, 4, 54, 64
6, 123264, Note_off_c, 4, 61, 64
6, 123264, Note_on_c, 4, 61, 100
6, 123456, Note_off_c, 4, 61, 64
6, 123456, Note_on_c, 4, 60, 100
6, 123648, Note_off_c, 4, 60, 64
6, 123648, Note_on_c, 4, 66, 100
6, 123648, Note_on_c, 4, 59, 100
6, 124224, Note_off_c, 4, 59, 64
6, 124224, Note_off_c, 4, 66, 64
6, 124224, Note_on_c, 4, 61, 100
6, 124224, Note_on_c, 4, 54, 100
6, 124800, Note_off_c, 4, 54, 64
6, 124800, Note_off_c, 4, 61, 64
6, 124800, Note_on_c, 4, 61, 100
6, 124992, Note_off_c, 4, 61, 64
6, 124992, Note_on_c, 4, 60, 100
6, 125184, Note_off_c, 4, 60, 64
6, 125184, Note_on_c, 4, 66, 100
6, 125184, Note_on_c, 4, 59, 100
6, 125760, Note_off_c, 4, 59, 64
6, 125760, Note_off_c, 4, 66, 64
6, 125760, Note_on_c, 4, 59, 100
6, 125760, Note_on_c, 4, 52, 100
6, 126144, Note_off_c, 4, 52, 64
6, 126144, Note_off_c, 4, 59, 64
6, 126336, Note_on_c, 4, 67, 100
6, 126528, Note_off_c, 4, 67, 64
6, 126528, Note_on_c, 4, 64, 100
6, 126720, Note_off_c, 4, 64, 64
6, 126720, Note_on_c, 4, 69, 100
6, 126912, Note_off_c, 4, 69, 64
6, 126912, Note_on_c, 4, 64, 100
6, 127104, Note_off_c, 4, 64, 64
6, 127104, Note_on_c, 4, 71, 100
6, 127296, Note_off_c, 4, 71, 64
6, 127296, Note_on_c, 4, 68, 100
6, 127488, Note_off_c, 4, 68, 64
6, 127488, Note_on_c, 4, 61, 100
6, 127488, Note_on_c, 4, 54, 100
6, 127872, Note_on_c, 4, 61, 100
6, 128064, Note_off_c, 4, 61, 64
6, 128064, Note_off_c, 4, 54, 64
6, 128064, Note_off_c, 4, 61, 64
6, 128064, Note_on_c, 4, 60, 100
6, 128256, Note_off_c, 4, 60, 64
6, 128256, Note_on_c, 4, 66, 100
6, 128256, Note_on_c, 4, 59, 100
6, 128832, Note_off_c, 4, 59, 64
6, 128832, Note_off_c, 4, 66, 64
6, 128832, Note_on_c, 4, 59, 100
6, 128832, Note_on_c, 4, 52, 100
6, 129216, Note_off_c, 4, 52, 64
6, 129216, Note_off_c, 4, 59, 64
6, 129408, Note_on_c, 4, 67, 100
6, 129600, Note_off_c, 4, 67, 64
6, 129600, Note_on_c, 4, 64, 100
6, 129792, Note_off_c, 4, 64, 64
6, 129792, Note_on_c, 4, 67, 100
6, 129984, Note_off_c, 4, 67, 64
6, 129984, Note_on_c, 4, 64, 100
6, 130176, Note_off_c, 4, 64, 64
6, 130176, Note_on_c, 4, 69, 100
6, 130368, Note_off_c, 4, 69, 64
6, 130368, Note_on_c, 4, 64, 100
6, 130560, Note_off_c, 4, 64, 64
6, 130560, Note_on_c, 4, 62, 100
6, 130560, Note_on_c, 4, 55, 100
6, 130752, Note_off_c, 4, 55, 64
6, 130752, Note_off_c, 4, 62, 64
6, 130752, Note_on_c, 4, 52, 100
6, 130944, Note_off_c, 4, 52, 64
6, 130944, Note_on_c, 4, 61, 100
6, 130944, Note_on_c, 4, 54, 100
6, 131136, Note_off_c, 4, 54, 64
6, 131136, Note_off_c, 4, 61, 64
6, 131136, Note_on_c, 4, 52, 100
6, 131328, Note_off_c, 4, 52, 64
6, 131328, Note_on_c, 4, 61, 100
6, 131328, Note_on_c, 4, 54, 100
6, 131520, Note_off_c, 4, 54, 64
6, 131520, Note_off_c, 4, 61, 64
6, 131520, Note_on_c, 4, 62, 100
6, 131520, Note_on_c, 4, 55, 100
6, 131712, Note_off_c, 4, 55, 64
6, 131712, Note_off_c, 4, 62, 64
6, 131712, Note_on_c, 4, 61, 100
6, 131712, Note_on_c, 4, 54, 100
6, 131904, Note_off_c, 4, 54, 64
6, 131904, Note_off_c, 4, 61, 64
6, 131904, Note_on_c, 4, 59, 127
6, 131904, Note_on_c, 4, 52, 127
6, 133440, Note_off_c, 4, 52, 64
6, 133440, Note_off_c, 4, 59, 64
6, 133440, Note_on_c, 4, 59, 127
6, 133440, Note_on_c, 4, 52, 127
6, 133824, Note_off_c, 4, 52, 64
6, 133824, Note_off_c, 4, 59, 64
6, 133824, Note_on_c, 4, 59, 100
6, 133824, Note_on_c, 4, 52, 100
6, 134016, Note_off_c, 4, 52, 64
6, 134016, Note_off_c, 4, 59, 64
6, 134016, Note_on_c, 4, 64, 100
6, 134208, Note_off_c, 4, 64, 64
6, 134208, Note_on_c, 4, 58, 100
6, 134400, Note_off_c, 4, 58, 64
6, 134400, Note_on_c, 4, 57, 100
6, 134784, Note_off_c, 4, 57, 64
6, 134784, Note_on_c, 4, 52, 100
6, 134976, Note_off_c, 4, 52, 64
6, 134976, Note_on_c, 4, 52, 127
6, 134976, Note_on_c, 4, 59, 127
6, 135360, Note_off_c, 4, 59, 64
6, 135360, Note_off_c, 4, 52, 64
6, 135360, Note_on_c, 4, 59, 100
6, 135360, Note_on_c, 4, 52, 100
6, 135552, Note_off_c, 4, 52, 64
6, 135552, Note_off_c, 4, 59, 64
6, 135552, Note_on_c, 4, 64, 100
6, 135744, Note_off_c, 4, 64, 64
6, 135744, Note_on_c, 4, 58, 100
6, 135936, Note_off_c, 4, 58, 64
6, 135936, Note_on_c, 4, 57, 100
6, 136320, Note_off_c, 4, 57, 64
6, 136320, Note_on_c, 4, 52, 100
6, 136512, Note_off_c, 4, 52, 64
6, 136512, Note_on_c, 4, 59, 127
6, 136512, Note_on_c, 4, 52, 127
6, 136896, Note_off_c, 4, 52, 64
6, 136896, Note_off_c, 4, 59, 64
6, 136896, Note_on_c, 4, 59, 100
6, 136896, Note_on_c, 4, 52, 100
6, 137088, Note_off_c, 4, 52, 64
6, 137088, Note_off_c, 4, 59, 64
6, 137088, Note_on_c, 4, 64, 100
6, 137280, Note_off_c, 4, 64, 64
6, 137280, Note_on_c, 4, 58, 100
6, 137472, Note_off_c, 4, 58, 64
6, 137472, Note_on_c, 4, 57, 100
6, 137856, Note_off_c, 4, 57, 64
6, 137856, Note_on_c, 4, 52, 100
6, 138048, Note_off_c, 4, 52, 64
6, 138048, Note_on_c, 4, 62, 127
6, 138048, Note_on_c, 4, 55, 127
6, 138432, Note_off_c, 4, 55, 64
6, 138432, Note_off_c, 4, 62, 64
6, 138432, Note_on_c, 4, 52, 100
6, 138624, Note_off_c, 4, 52, 64
6, 138624, Note_on_c, 4, 61, 100
6, 138624, Note_on_c, 4, 54, 100
6, 138816, Note_off_c, 4, 54, 64
6, 138816, Note_off_c, 4, 61, 64
6, 138816, Note_on_c, 4, 52, 100
6, 139008, Note_off_c, 4, 52, 64
6, 139008, Note_on_c, 4, 61, 100
6, 139008, Note_on_c, 4, 54, 100
6, 139200, Note_off_c, 4, 54, 64
6, 139200, Note_off_c, 4, 61, 64
6, 139200, Note_on_c, 4, 62, 100
6, 139200, Note_on_c, 4, 55, 100
6, 139392, Note_off_c, 4, 55, 64
6, 139392, Note_off_c, 4, 62, 64
6, 139392, Note_on_c, 4, 61, 100
6, 139392, Note_on_c, 4, 54, 100
6, 139584, Note_off_c, 4, 54, 64
6, 139584, Note_off_c, 4, 61, 64
6, 139584, Note_on_c, 4, 59, 127
6, 139584, Note_on_c, 4, 52, 127
6, 139968, Note_off_c, 4, 52, 64
6, 139968, Note_off_c, 4, 59, 64
6, 139968, Note_on_c, 4, 59, 100
6, 139968, Note_on_c, 4, 52, 100
6, 140160, Note_off_c, 4, 52, 64
6, 140160, Note_off_c, 4, 59, 64
6, 140160, Note_on_c, 4, 64, 100
6, 140352, Note_off_c, 4, 64, 64
6, 140352, Note_on_c, 4, 58, 100
6, 140544, Note_off_c, 4, 58, 64
6, 140544, Note_on_c, 4, 57, 100
6, 140928, Note_off_c, 4, 57, 64
6, 140928, Note_on_c, 4, 52, 100
6, 141120, Note_off_c, 4, 52, 64
6, 141120, Note_on_c, 4, 52, 127
6, 141120, Note_on_c, 4, 59, 127
6, 141504, Note_off_c, 4, 59, 64
6, 141504, Note_off_c, 4, 52, 64
6, 141504, Note_on_c, 4, 59, 100
6, 141504, Note_on_c, 4, 52, 100
6, 141696, Note_off_c, 4, 52, 64
6, 141696, Note_off_c, 4, 59, 64
6, 141696, Note_on_c, 4, 64, 100
6, 141888, Note_off_c, 4, 64, 64
6, 141888, Note_on_c, 4, 58, 100
6, 142080, Note_off_c, 4, 58, 64
6, 142080, Note_on_c, 4, 57, 100
6, 142464, Note_off_c, 4, 57, 64
6, 142464, Note_on_c, 4, 52, 100
6, 142656, Note_off_c, 4, 52, 64
6, 142656, Note_on_c, 4, 59, 127
6, 142656, Note_on_c, 4, 52, 127
6, 143040, Note_off_c, 4, 52, 64
6, 143040, Note_off_c, 4, 59, 64
6, 143040, Note_on_c, 4, 59, 100
6, 143040, Note_on_c, 4, 52, 100
6, 143232, Note_off_c, 4, 52, 64
6, 143232, Note_off_c, 4, 59, 64
6, 143232, Note_on_c, 4, 64, 100
6, 143424, Note_off_c, 4, 64, 64
6, 143424, Note_on_c, 4, 58, 100
6, 143616, Note_off_c, 4, 58, 64
6, 143616, Note_on_c, 4, 57, 100
6, 144000, Note_off_c, 4, 57, 64
6, 144000, Note_on_c, 4, 52, 100
6, 144192, Note_off_c, 4, 52, 64
6, 144192, Note_on_c, 4, 62, 127
6, 144192, Note_on_c, 4, 55, 127
6, 144576, Note_off_c, 4, 55, 64
6, 144576, Note_off_c, 4, 62, 64
6, 144576, Note_on_c, 4, 52, 100
6, 144768, Note_off_c, 4, 52, 64
6, 144768, Note_on_c, 4, 61, 100
6, 144768, Note_on_c, 4, 54, 100
6, 144960, Note_off_c, 4, 54, 64
6, 144960, Note_off_c, 4, 61, 64
6, 144960, Note_on_c, 4, 52, 100
6, 145152, Note_off_c, 4, 52, 64
6, 145152, Note_on_c, 4, 61, 100
6, 145152, Note_on_c, 4, 54, 100
6, 145344, Note_off_c, 4, 54, 64
6, 145344, Note_off_c, 4, 61, 64
6, 145344, Note_on_c, 4, 62, 100
6, 145344, Note_on_c, 4, 55, 100
6, 145536, Note_off_c, 4, 55, 64
6, 145536, Note_off_c, 4, 62, 64
6, 145536, Note_on_c, 4, 61, 100
6, 145536, Note_on_c, 4, 54, 100
6, 145728, Note_off_c, 4, 54, 64
6, 145728, Note_off_c, 4, 61, 64
6, 145728, Note_on_c, 4, 54, 127
6, 146112, Note_off_c, 4, 54, 64
6, 146112, Note_on_c, 4, 66, 100
6, 146304, Note_off_c, 4, 66, 64
6, 146304, Note_on_c, 4, 69, 100
6, 146496, Note_off_c, 4, 69, 64
6, 146496, Note_on_c, 4, 60, 100
6, 146688, Note_off_c, 4, 60, 64
6, 146688, Note_on_c, 4, 59, 100
6, 147072, Note_off_c, 4, 59, 64
6, 147072, Note_on_c, 4, 66, 100
6, 147264, Note_off_c, 4, 66, 64
6, 147264, Note_on_c, 4, 54, 127
6, 147648, Note_off_c, 4, 54, 64
6, 147648, Note_on_c, 4, 66, 100
6, 147840, Note_off_c, 4, 66, 64
6, 147840, Note_on_c, 4, 69, 100
6, 148032, Note_off_c, 4, 69, 64
6, 148032, Note_on_c, 4, 60, 100
6, 148224, Note_off_c, 4, 60, 64
6, 148224, Note_on_c, 4, 59, 100
6, 148608, Note_off_c, 4, 59, 64
6, 148608, Note_on_c, 4, 66, 100
6, 148800, Note_off_c, 4, 66, 64
6, 148800, Note_on_c, 4, 54, 127
6, 149184, Note_off_c, 4, 54, 64
6, 149184, Note_on_c, 4, 66, 100
6, 149376, Note_off_c, 4, 66, 64
6, 149376, Note_on_c, 4, 69, 100
6, 149568, Note_off_c, 4, 69, 64
6, 149568, Note_on_c, 4, 60, 100
6, 149760, Note_off_c, 4, 60, 64
6, 149760, Note_on_c, 4, 59, 100
6, 150144, Note_off_c, 4, 59, 64
6, 150144, Note_on_c, 4, 66, 100
6, 150336, Note_off_c, 4, 66, 64
6, 150336, Note_on_c, 4, 54, 127
6, 150720, Note_off_c, 4, 54, 64
6, 150720, Note_on_c, 4, 66, 100
6, 150912, Note_off_c, 4, 66, 64
6, 150912, Note_on_c, 4, 69, 100
6, 151104, Note_off_c, 4, 69, 64
6, 151104, Note_on_c, 4, 60, 100
6, 151296, Note_off_c, 4, 60, 64
6, 151296, Note_on_c, 4, 59, 100
6, 151680, Note_off_c, 4, 59, 64
6, 151680, Note_on_c, 4, 66, 100
6, 152064, Note_off_c, 4, 66, 64
6, 152064, Note_on_c, 4, 54, 100
6, 152064, Note_on_c, 4, 61, 100
6, 152448, Note_off_c, 4, 61, 64
6, 152448, Note_off_c, 4, 54, 64
6, 152448, Note_on_c, 4, 61, 100
6, 152640, Note_off_c, 4, 61, 64
6, 152640, Note_on_c, 4, 60, 100
6, 152832, Note_off_c, 4, 60, 64
6, 152832, Note_on_c, 4, 66, 100
6, 152832, Note_on_c, 4, 59, 100
6, 153408, Note_off_c, 4, 59, 64
6, 153408, Note_off_c, 4, 66, 64
6, 153408, Note_on_c, 4, 61, 100
6, 153408, Note_on_c, 4, 54, 100
6, 153984, Note_off_c, 4, 54, 64
6, 153984, Note_off_c, 4, 61, 64
6, 153984, Note_on_c, 4, 61, 100
6, 154176, Note_off_c, 4, 61, 64
6, 154176, Note_on_c, 4, 60, 100
6, 154368, Note_off_c, 4, 60, 64
6, 154368, Note_on_c, 4, 66, 100
6, 154368, Note_on_c, 4, 59, 100
6, 154944, Note_off_c, 4, 59, 64
6, 154944, Note_off_c, 4, 66, 64
6, 154944, Note_on_c, 4, 61, 100
6, 154944, Note_on_c, 4, 54, 100
6, 155520, Note_off_c, 4, 54, 64
6, 155520, Note_off_c, 4, 61, 64
6, 155520, Note_on_c, 4, 61, 100
6, 155712, Note_off_c, 4, 61, 64
6, 155712, Note_on_c, 4, 60, 100
6, 155904, Note_off_c, 4, 60, 64
6, 155904, Note_on_c, 4, 66, 100
6, 155904, Note_on_c, 4, 59, 100
6, 156480, Note_off_c, 4, 59, 64
6, 156480, Note_off_c, 4, 66, 64
6, 156480, Note_on_c, 4, 59, 100
6, 156480, Note_on_c, 4, 52, 100
6, 157056, Note_off_c, 4, 52, 64
6, 157056, Note_off_c, 4, 59, 64
6, 157056, Note_on_c, 4, 67, 100
6, 157248, Note_off_c, 4, 67, 64
6, 157248, Note_on_c, 4, 64, 100
6, 157440, Note_off_c, 4, 64, 64
6, 157440, Note_on_c, 4, 69, 100
6, 157632, Note_off_c, 4, 69, 64
6, 157632, Note_on_c, 4, 64, 100
6, 157824, Note_off_c, 4, 64, 64
6, 157824, Note_on_c, 4, 71, 100
6, 158016, Note_off_c, 4, 71, 64
6, 158016, Note_on_c, 4, 68, 100
6, 158208, Note_off_c, 4, 68, 64
6, 158208, Note_on_c, 4, 61, 100
6, 158208, Note_on_c, 4, 54, 100
6, 158592, Note_on_c, 4, 61, 100
6, 158784, Note_off_c, 4, 61, 64
6, 158784, Note_off_c, 4, 54, 64
6, 158784, Note_off_c, 4, 61, 64
6, 158784, Note_on_c, 4, 60, 100
6, 158976, Note_off_c, 4, 60, 64
6, 158976, Note_on_c, 4, 66, 100
6, 158976, Note_on_c, 4, 59, 100
6, 159552, Note_off_c, 4, 59, 64
6, 159552, Note_off_c, 4, 66, 64
6, 159552, Note_on_c, 4, 59, 100
6, 159552, Note_on_c, 4, 52, 100
6, 159936, Note_off_c, 4, 52, 64
6, 159936, Note_off_c, 4, 59, 64
6, 160128, Note_on_c, 4, 67, 100
6, 160320, Note_off_c, 4, 67, 64
6, 160320, Note_on_c, 4, 64, 100
6, 160512, Note_off_c, 4, 64, 64
6, 160512, Note_on_c, 4, 67, 100
6, 160704, Note_off_c, 4, 67, 64
6, 160704, Note_on_c, 4, 64, 100
6, 160896, Note_off_c, 4, 64, 64
6, 160896, Note_on_c, 4, 69, 100
6, 161088, Note_off_c, 4, 69, 64
6, 161088, Note_on_c, 4, 64, 100
6, 161280, Note_off_c, 4, 64, 64
6, 161280, Note_on_c, 4, 59, 100
6, 161280, Note_on_c, 4, 52, 100
6, 161472, Note_off_c, 4, 52, 64
6, 161472, Note_off_c, 4, 59, 64
6, 188928, Control_c, 4, 7, 127
6, 188928, Program_c, 4, 30
6, 190272, Note_on_c, 4, 54, 100
6, 190464, Note_off_c, 4, 54, 64
6, 190464, Note_on_c, 4, 54, 100
6, 190656, Note_off_c, 4, 54, 64
6, 190656, Note_on_c, 4, 54, 100
6, 190848, Note_off_c, 4, 54, 64
6, 190848, Note_on_c, 4, 54, 100
6, 191040, Note_off_c, 4, 54, 64
6, 191040, Note_on_c, 4, 54, 100
6, 191232, Note_off_c, 4, 54, 64
6, 191232, Note_on_c, 4, 54, 100
6, 191424, Note_off_c, 4, 54, 64
6, 191424, Note_on_c, 4, 54, 100
6, 191616, Note_off_c, 4, 54, 64
6, 191616, Note_on_c, 4, 54, 100
6, 191808, Note_off_c, 4, 54, 64
6, 191808, Note_on_c, 4, 54, 100
6, 192000, Note_off_c, 4, 54, 64
6, 192000, Note_on_c, 4, 54, 100
6, 192192, Note_off_c, 4, 54, 64
6, 192192, Note_on_c, 4, 54, 100
6, 192384, Note_off_c, 4, 54, 64
6, 192384, Note_on_c, 4, 54, 100
6, 192576, Note_off_c, 4, 54, 64
6, 192576, Note_on_c, 4, 54, 100
6, 192768, Note_off_c, 4, 54, 64
6, 192768, Note_on_c, 4, 54, 100
6, 192960, Note_off_c, 4, 54, 64
6, 192960, Note_on_c, 4, 54, 100
6, 193152, Note_off_c, 4, 54, 64
6, 193152, Note_on_c, 4, 54, 100
6, 193344, Note_off_c, 4, 54, 64
6, 193344, Note_on_c, 4, 54, 100
6, 193536, Note_off_c, 4, 54, 64
6, 193536, Note_on_c, 4, 54, 100
6, 193536, Note_on_c, 4, 61, 100
6, 193920, Note_off_c, 4, 61, 64
6, 193920, Note_off_c, 4, 54, 64
6, 193920, Note_on_c, 4, 61, 100
6, 194112, Note_off_c, 4, 61, 64
6, 194112, Note_on_c, 4, 60, 100
6, 194304, Note_off_c, 4, 60, 64
6, 194304, Note_on_c, 4, 66, 100
6, 194304, Note_on_c, 4, 59, 100
6, 194880, Note_off_c, 4, 59, 64
6, 194880, Note_off_c, 4, 66, 64
6, 194880, Note_on_c, 4, 61, 100
6, 194880, Note_on_c, 4, 54, 100
6, 195456, Note_off_c, 4, 54, 64
6, 195456, Note_off_c, 4, 61, 64
6, 195456, Note_on_c, 4, 61, 100
6, 195648, Note_off_c, 4, 61, 64
6, 195648, Note_on_c, 4, 60, 100
6, 195840, Note_off_c, 4, 60, 64
6, 195840, Note_on_c, 4, 66, 100
6, 195840, Note_on_c, 4, 59, 100
6, 196416, Note_off_c, 4, 59, 64
6, 196416, Note_off_c, 4, 66, 64
6, 196416, Note_on_c, 4, 61, 100
6, 196416, Note_on_c, 4, 54, 100
6, 196992, Note_off_c, 4, 54, 64
6, 196992, Note_off_c, 4, 61, 64
6, 196992, Note_on_c, 4, 61, 100
6, 197184, Note_off_c, 4, 61, 64
6, 197184, Note_on_c, 4, 60, 100
6, 197376, Note_off_c, 4, 60, 64
6, 197376, Note_on_c, 4, 66, 100
6, 197376, Note_on_c, 4, 59, 100
6, 197952, Note_off_c, 4, 59, 64
6, 197952, Note_off_c, 4, 66, 64
6, 197952, Note_on_c, 4, 59, 100
6, 197952, Note_on_c, 4, 52, 100
6, 198528, Note_off_c, 4, 52, 64
6, 198528, Note_off_c, 4, 59, 64
6, 198528, Note_on_c, 4, 67, 100
6, 198720, Note_off_c, 4, 67, 64
6, 198720, Note_on_c, 4, 64, 100
6, 198912, Note_off_c, 4, 64, 64
6, 198912, Note_on_c, 4, 69, 100
6, 199104, Note_off_c, 4, 69, 64
6, 199104, Note_on_c, 4, 64, 100
6, 199296, Note_off_c, 4, 64, 64
6, 199296, Note_on_c, 4, 71, 100
6, 199488, Note_off_c, 4, 71, 64
6, 199488, Note_on_c, 4, 68, 100
6, 199680, Note_off_c, 4, 68, 64
6, 199680, Note_on_c, 4, 61, 100
6, 199680, Note_on_c, 4, 54, 100
6, 200064, Note_on_c, 4, 61, 100
6, 200256, Note_off_c, 4, 61, 64
6, 200256, Note_off_c, 4, 54, 64
6, 200256, Note_off_c, 4, 61, 64
6, 200256, Note_on_c, 4, 60, 100
6, 200448, Note_off_c, 4, 60, 64
6, 200448, Note_on_c, 4, 66, 100
6, 200448, Note_on_c, 4, 59, 100
6, 201024, Note_off_c, 4, 59, 64
6, 201024, Note_off_c, 4, 66, 64
6, 201024, Note_on_c, 4, 59, 100
6, 201024, Note_on_c, 4, 52, 100
6, 202368, Note_off_c, 4, 52, 64
6, 202368, Note_off_c, 4, 59, 64
6, 202368, Note_on_c, 4, 52, 100
6, 202560, Note_off_c, 4, 52, 64
6, 202560, Note_on_c, 4, 52, 100
6, 202752, Note_off_c, 4, 52, 64
6, 202752, Note_on_c, 4, 54, 100
6, 202752, Note_on_c, 4, 61, 100
6, 203136, Note_off_c, 4, 61, 64
6, 203136, Note_off_c, 4, 54, 64
6, 203136, Note_on_c, 4, 61, 100
6, 203328, Note_off_c, 4, 61, 64
6, 203328, Note_on_c, 4, 60, 100
6, 203520, Note_off_c, 4, 60, 64
6, 203520, Note_on_c, 4, 66, 100
6, 203520, Note_on_c, 4, 59, 100
6, 204096, Note_off_c, 4, 59, 64
6, 204096, Note_off_c, 4, 66, 64
6, 204096, Note_on_c, 4, 61, 100
6, 204096, Note_on_c, 4, 54, 100
6, 204672, Note_off_c, 4, 54, 64
6, 204672, Note_off_c, 4, 61, 64
6, 204672, Note_on_c, 4, 61, 100
6, 204864, Note_off_c, 4, 61, 64
6, 204864, Note_on_c, 4, 60, 100
6, 205056, Note_off_c, 4, 60, 64
6, 205056, Note_on_c, 4, 66, 100
6, 205056, Note_on_c, 4, 59, 100
6, 205632, Note_off_c, 4, 59, 64
6, 205632, Note_off_c, 4, 66, 64
6, 205632, Note_on_c, 4, 61, 100
6, 205632, Note_on_c, 4, 54, 100
6, 206208, Note_off_c, 4, 54, 64
6, 206208, Note_off_c, 4, 61, 64
6, 206208, Note_on_c, 4, 61, 100
6, 206400, Note_off_c, 4, 61, 64
6, 206400, Note_on_c, 4, 60, 100
6, 206592, Note_off_c, 4, 60, 64
6, 206592, Note_on_c, 4, 66, 100
6, 206592, Note_on_c, 4, 59, 100
6, 207168, Note_off_c, 4, 59, 64
6, 207168, Note_off_c, 4, 66, 64
6, 207168, Note_on_c, 4, 59, 100
6, 207168, Note_on_c, 4, 52, 100
6, 207744, Note_off_c, 4, 52, 64
6, 207744, Note_off_c, 4, 59, 64
6, 207744, Note_on_c, 4, 67, 100
6, 207936, Note_off_c, 4, 67, 64
6, 207936, Note_on_c, 4, 64, 100
6, 208128, Note_off_c, 4, 64, 64
6, 208128, Note_on_c, 4, 69, 100
6, 208320, Note_off_c, 4, 69, 64
6, 208320, Note_on_c, 4, 64, 100
6, 208512, Note_off_c, 4, 64, 64
6, 208512, Note_on_c, 4, 71, 100
6, 208704, Note_off_c, 4, 71, 64
6, 208704, Note_on_c, 4, 68, 100
6, 208896, Note_off_c, 4, 68, 64
6, 208896, Note_on_c, 4, 61, 100
6, 208896, Note_on_c, 4, 54, 100
6, 209280, Note_on_c, 4, 61, 100
6, 209472, Note_off_c, 4, 61, 64
6, 209472, Note_off_c, 4, 54, 64
6, 209472, Note_off_c, 4, 61, 64
6, 209472, Note_on_c, 4, 60, 100
6, 209664, Note_off_c, 4, 60, 64
6, 209664, Note_on_c, 4, 66, 100
6, 209664, Note_on_c, 4, 59, 100
6, 210240, Note_off_c, 4, 59, 64
6, 210240, Note_off_c, 4, 66, 64
6, 210240, Note_on_c, 4, 59, 100
6, 210240, Note_on_c, 4, 52, 100
6, 210624, Note_off_c, 4, 52, 64
6, 210624, Note_off_c, 4, 59, 64
6, 210816, Note_on_c, 4, 67, 100
6, 211008, Note_off_c, 4, 67, 64
6, 211008, Note_on_c, 4, 64, 100
6, 211200, Note_off_c, 4, 64, 64
6, 211200, Note_on_c, 4, 67, 100
6, 211392, Note_off_c, 4, 67, 64
6, 211392, Note_on_c, 4, 64, 100
6, 211584, Note_off_c, 4, 64, 64
6, 211584, Note_on_c, 4, 69, 100
6, 211776, Note_off_c, 4, 69, 64
6, 211776, Note_on_c, 4, 64, 100
6, 211968, Note_off_c, 4, 64, 64
6, 213312, Note_on_c, 4, 59, 100
6, 213312, Note_on_c, 4, 52, 100
6, 217920, Note_off_c, 4, 52, 64
6, 217920, Note_off_c, 4, 59, 64
6, 217920, Note_on_c, 4, 59, 100
6, 217920, Note_on_c, 4, 52, 100
6, 218304, Note_off_c, 4, 52, 64
6, 218304, Note_off_c, 4, 59, 64
6, 218304, Note_on_c, 4, 59, 100
6, 218304, Note_on_c, 4, 52, 100
6, 218496, Note_off_c, 4, 52, 64
6, 218496, Note_off_c, 4, 59, 64
6, 218496, Note_on_c, 4, 64, 100
6, 218688, Note_off_c, 4, 64, 64
6, 218688, Note_on_c, 4, 58, 100
6, 218880, Note_off_c, 4, 58, 64
6, 218880, Note_on_c, 4, 57, 100
6, 219264, Note_off_c, 4, 57, 64
6, 219264, Note_on_c, 4, 52, 100
6, 219456, Note_off_c, 4, 52, 64
6, 219456, Note_on_c, 4, 59, 100
6, 219456, Note_on_c, 4, 52, 100
6, 219840, Note_off_c, 4, 52, 64
6, 219840, Note_off_c, 4, 59, 64
6, 219840, Note_on_c, 4, 59, 100
6, 219840, Note_on_c, 4, 52, 100
6, 220032, Note_off_c, 4, 52, 64
6, 220032, Note_off_c, 4, 59, 64
6, 220032, Note_on_c, 4, 64, 100
6, 220224, Note_off_c, 4, 64, 64
6, 220224, Note_on_c, 4, 58, 100
6, 220416, Note_off_c, 4, 58, 64
6, 220416, Note_on_c, 4, 57, 100
6, 220800, Note_off_c, 4, 57, 64
6, 220800, Note_on_c, 4, 52, 100
6, 220992, Note_off_c, 4, 52, 64
6, 220992, Note_on_c, 4, 59, 100
6, 220992, Note_on_c, 4, 52, 100
6, 221376, Note_off_c, 4, 52, 64
6, 221376, Note_off_c, 4, 59, 64
6, 221376, Note_on_c, 4, 59, 100
6, 221376, Note_on_c, 4, 52, 100
6, 221568, Note_off_c, 4, 52, 64
6, 221568, Note_off_c, 4, 59, 64
6, 221568, Note_on_c, 4, 64, 100
6, 221760, Note_off_c, 4, 64, 64
6, 221760, Note_on_c, 4, 58, 100
6, 221952, Note_off_c, 4, 58, 64
6, 221952, Note_on_c, 4, 57, 100
6, 222336, Note_off_c, 4, 57, 64
6, 222336, Note_on_c, 4, 52, 100
6, 222528, Note_off_c, 4, 52, 64
6, 222528, Note_on_c, 4, 59, 100
6, 222528, Note_on_c, 4, 52, 100
6, 222912, Note_off_c, 4, 52, 64
6, 222912, Note_off_c, 4, 59, 64
6, 222912, Note_on_c, 4, 59, 100
6, 222912, Note_on_c, 4, 52, 100
6, 223104, Note_off_c, 4, 52, 64
6, 223104, Note_off_c, 4, 59, 64
6, 223104, Note_on_c, 4, 64, 100
6, 223296, Note_off_c, 4, 64, 64
6, 223296, Note_on_c, 4, 58, 100
6, 223488, Note_off_c, 4, 58, 64
6, 223488, Note_on_c, 4, 57, 100
6, 223872, Note_off_c, 4, 57, 64
6, 223872, Note_on_c, 4, 52, 100
6, 224064, Note_off_c, 4, 52, 64
6, 224064, Note_on_c, 4, 59, 100
6, 224064, Note_on_c, 4, 52, 100
6, 224448, Note_off_c, 4, 52, 64
6, 224448, Note_off_c, 4, 59, 64
6, 224448, Note_on_c, 4, 59, 100
6, 224448, Note_on_c, 4, 52, 100
6, 224640, Note_off_c, 4, 52, 64
6, 224640, Note_off_c, 4, 59, 64
6, 224640, Note_on_c, 4, 64, 100
6, 224832, Note_off_c, 4, 64, 64
6, 224832, Note_on_c, 4, 58, 100
6, 225024, Note_off_c, 4, 58, 64
6, 225024, Note_on_c, 4, 57, 100
6, 225408, Note_off_c, 4, 57, 64
6, 225408, Note_on_c, 4, 52, 100
6, 225600, Note_off_c, 4, 52, 64
6, 225600, Note_on_c, 4, 62, 100
6, 225600, Note_on_c, 4, 55, 100
6, 225984, Note_off_c, 4, 55, 64
6, 225984, Note_off_c, 4, 62, 64
6, 225984, Note_on_c, 4, 52, 100
6, 226176, Note_off_c, 4, 52, 64
6, 226176, Note_on_c, 4, 61, 100
6, 226176, Note_on_c, 4, 54, 100
6, 226368, Note_off_c, 4, 54, 64
6, 226368, Note_off_c, 4, 61, 64
6, 226368, Note_on_c, 4, 52, 100
6, 226560, Note_off_c, 4, 52, 64
6, 226560, Note_on_c, 4, 61, 100
6, 226560, Note_on_c, 4, 54, 100
6, 226752, Note_off_c, 4, 54, 64
6, 226752, Note_off_c, 4, 61, 64
6, 226752, Note_on_c, 4, 62, 100
6, 226752, Note_on_c, 4, 55, 100
6, 226944, Note_off_c, 4, 55, 64
6, 226944, Note_off_c, 4, 62, 64
6, 226944, Note_on_c, 4, 61, 100
6, 226944, Note_on_c, 4, 54, 100
6, 227136, Note_off_c, 4, 54, 64
6, 227136, Note_off_c, 4, 61, 64
6, 227136, Note_on_c, 4, 59, 100
6, 227136, Note_on_c, 4, 52, 100
6, 227520, Note_off_c, 4, 52, 64
6, 227520, Note_off_c, 4, 59, 64
6, 227520, Note_on_c, 4, 52, 100
6, 227712, Note_off_c, 4, 52, 64
6, 227712, Note_on_c, 4, 64, 100
6, 227904, Note_off_c, 4, 64, 64
6, 227904, Note_on_c, 4, 58, 100
6, 228096, Note_off_c, 4, 58, 64
6, 228096, Note_on_c, 4, 57, 100
6, 228288, Note_off_c, 4, 57, 64
6, 228288, Note_on_c, 4, 52, 100
6, 228480, Note_off_c, 4, 52, 64
6, 228480, Note_on_c, 4, 52, 100
6, 228672, Note_off_c, 4, 52, 64
6, 228672, Note_on_c, 4, 60, 100
6, 228672, Note_on_c, 4, 53, 100
6, 228864, Note_off_c, 4, 53, 64
6, 228864, Note_off_c, 4, 60, 64
6, 228864, Note_on_c, 4, 52, 100
6, 229056, Note_off_c, 4, 52, 64
6, 229056, Note_on_c, 4, 52, 100
6, 229248, Note_off_c, 4, 52, 64
6, 229248, Note_on_c, 4, 64, 100
6, 229440, Note_off_c, 4, 64, 64
6, 229440, Note_on_c, 4, 58, 100
6, 229632, Note_off_c, 4, 58, 64
6, 229632, Note_on_c, 4, 57, 100
6, 229824, Note_off_c, 4, 57, 64
6, 229824, Note_on_c, 4, 52, 100
6, 230016, Note_off_c, 4, 52, 64
6, 230016, Note_on_c, 4, 52, 100
6, 230208, Note_off_c, 4, 52, 64
6, 230208, Note_on_c, 4, 60, 100
6, 230208, Note_on_c, 4, 53, 100
6, 230400, Note_off_c, 4, 53, 64
6, 230400, Note_off_c, 4, 60, 64
6, 230400, Note_on_c, 4, 52, 100
6, 230592, Note_off_c, 4, 52, 64
6, 230592, Note_on_c, 4, 52, 100
6, 230784, Note_off_c, 4, 52, 64
6, 230784, Note_on_c, 4, 64, 100
6, 230976, Note_off_c, 4, 64, 64
6, 230976, Note_on_c, 4, 58, 100
6, 231168, Note_off_c, 4, 58, 64
6, 231168, Note_on_c, 4, 57, 100
6, 231360, Note_off_c, 4, 57, 64
6, 231360, Note_on_c, 4, 52, 100
6, 231552, Note_off_c, 4, 52, 64
6, 231552, Note_on_c, 4, 52, 100
6, 231744, Note_off_c, 4, 52, 64
6, 231744, Note_on_c, 4, 60, 100
6, 231744, Note_on_c, 4, 53, 100
6, 231936, Note_off_c, 4, 53, 64
6, 231936, Note_off_c, 4, 60, 64
6, 231936, Note_on_c, 4, 52, 100
6, 232128, Note_off_c, 4, 52, 64
6, 232128, Note_on_c, 4, 52, 100
6, 232320, Note_off_c, 4, 52, 64
6, 232320, Note_on_c, 4, 64, 100
6, 232512, Note_off_c, 4, 64, 64
6, 232512, Note_on_c, 4, 58, 100
6, 232704, Note_off_c, 4, 58, 64
6, 232704, Note_on_c, 4, 57, 100
6, 232896, Note_off_c, 4, 57, 64
6, 232896, Note_on_c, 4, 52, 100
6, 233088, Note_off_c, 4, 52, 64
6, 233088, Note_on_c, 4, 52, 100
6, 233280, Note_off_c, 4, 52, 64
6, 233280, Note_on_c, 4, 60, 100
6, 233280, Note_on_c, 4, 53, 100
6, 233472, Note_off_c, 4, 53, 64
6, 233472, Note_off_c, 4, 60, 64
6, 233472, Note_on_c, 4, 52, 100
6, 233664, Note_off_c, 4, 52, 64
6, 233664, Note_on_c, 4, 52, 100
6, 233856, Note_off_c, 4, 52, 64
6, 233856, Note_on_c, 4, 64, 100
6, 234048, Note_off_c, 4, 64, 64
6, 234048, Note_on_c, 4, 58, 100
6, 234240, Note_off_c, 4, 58, 64
6, 234240, Note_on_c, 4, 52, 100
6, 234432, Note_off_c, 4, 52, 64
6, 234432, Note_on_c, 4, 52, 100
6, 234624, Note_off_c, 4, 52, 64
6, 234624, Note_on_c, 4, 52, 100
6, 234816, Note_off_c, 4, 52, 64
6, 234816, Note_on_c, 4, 60, 100
6, 234816, Note_on_c, 4, 53, 100
6, 235008, Note_off_c, 4, 53, 64
6, 235008, Note_off_c, 4, 60, 64
6, 235008, Note_on_c, 4, 52, 100
6, 235200, Note_off_c, 4, 52, 64
6, 235200, Note_on_c, 4, 52, 100
6, 235392, Note_off_c, 4, 52, 64
6, 235392, Note_on_c, 4, 64, 100
6, 235584, Note_off_c, 4, 64, 64
6, 235584, Note_on_c, 4, 58, 100
6, 235776, Note_off_c, 4, 58, 64
6, 235776, Note_on_c, 4, 52, 100
6, 235968, Note_off_c, 4, 52, 64
6, 235968, Note_on_c, 4, 52, 100
6, 236160, Note_off_c, 4, 52, 64
6, 236160, Note_on_c, 4, 52, 100
6, 236352, Note_off_c, 4, 52, 64
6, 236352, Note_on_c, 4, 60, 100
6, 236352, Note_on_c, 4, 53, 100
6, 236544, Note_off_c, 4, 53, 64
6, 236544, Note_off_c, 4, 60, 64
6, 236544, Note_on_c, 4, 52, 100
6, 236736, Note_off_c, 4, 52, 64
6, 236736, Note_on_c, 4, 52, 100
6, 236928, Note_off_c, 4, 52, 64
6, 236928, Note_on_c, 4, 64, 100
6, 237120, Note_off_c, 4, 64, 64
6, 237120, Note_on_c, 4, 58, 100
6, 237312, Note_off_c, 4, 58, 64
6, 237312, Note_on_c, 4, 52, 100
6, 237504, Note_off_c, 4, 52, 64
6, 237504, Note_on_c, 4, 52, 100
6, 237696, Note_off_c, 4, 52, 64
6, 237696, Note_on_c, 4, 52, 100
6, 237888, Note_off_c, 4, 52, 64
6, 237888, Note_on_c, 4, 60, 100
6, 237888, Note_on_c, 4, 53, 100
6, 238080, Note_off_c, 4, 53, 64
6, 238080, Note_off_c, 4, 60, 64
6, 238080, Note_on_c, 4, 52, 100
6, 238272, Note_off_c, 4, 52, 64
6, 238272, Note_on_c, 4, 52, 100
6, 238464, Note_off_c, 4, 52, 64
6, 238464, Note_on_c, 4, 64, 100
6, 238656, Note_off_c, 4, 64, 64
6, 238656, Note_on_c, 4, 58, 100
6, 238848, Note_off_c, 4, 58, 64
6, 238848, Note_on_c, 4, 52, 100
6, 239040, Note_off_c, 4, 52, 64
6, 239040, Note_on_c, 4, 52, 100
6, 239232, Note_off_c, 4, 52, 64
6, 239232, Note_on_c, 4, 52, 100
6, 239424, Note_off_c, 4, 52, 64
6, 239424, Note_on_c, 4, 60, 100
6, 239424, Note_on_c, 4, 53, 100
6, 239616, Note_off_c, 4, 53, 64
6, 239616, Note_off_c, 4, 60, 64
6, 239616, Note_on_c, 4, 52, 100
6, 239808, Note_off_c, 4, 52, 64
6, 239808, Note_on_c, 4, 52, 100
6, 240000, Note_off_c, 4, 52, 64
6, 240000, Note_on_c, 4, 64, 100
6, 240192, Note_off_c, 4, 64, 64
6, 240192, Note_on_c, 4, 52, 100
6, 240384, Note_off_c, 4, 52, 64
6, 240384, Note_on_c, 4, 52, 100
6, 240576, Note_off_c, 4, 52, 64
6, 240576, Note_on_c, 4, 52, 100
6, 240768, Note_off_c, 4, 52, 64
6, 240768, Note_on_c, 4, 52, 100
6, 240960, Note_off_c, 4, 52, 64
6, 240960, Note_on_c, 4, 52, 100
6, 241152, Note_off_c, 4, 52, 64
6, 241152, Note_on_c, 4, 52, 100
6, 241344, Note_off_c, 4, 52, 64
6, 241344, Note_on_c, 4, 52, 100
6, 241536, Note_off_c, 4, 52, 64
6, 241536, Note_on_c, 4, 64, 100
6, 241728, Note_off_c, 4, 64, 64
6, 241728, Note_on_c, 4, 52, 100
6, 241920, Note_off_c, 4, 52, 64
6, 241920, Note_on_c, 4, 52, 100
6, 242112, Note_off_c, 4, 52, 64
6, 242112, Note_on_c, 4, 52, 100
6, 242304, Note_off_c, 4, 52, 64
6, 242304, Note_on_c, 4, 52, 100
6, 242496, Note_off_c, 4, 52, 64
6, 242496, Note_on_c, 4, 52, 100
6, 242688, Note_off_c, 4, 52, 64
6, 242688, Note_on_c, 4, 52, 100
6, 242880, Note_off_c, 4, 52, 64
6, 242880, Note_on_c, 4, 52, 100
6, 243072, Note_off_c, 4, 52, 64
6, 243072, Note_on_c, 4, 64, 100
6, 243264, Note_off_c, 4, 64, 64
6, 243264, Note_on_c, 4, 52, 100
6, 243456, Note_off_c, 4, 52, 64
6, 243456, Note_on_c, 4, 52, 100
6, 243648, Note_off_c, 4, 52, 64
6, 243648, Note_on_c, 4, 52, 100
6, 243840, Note_off_c, 4, 52, 64
6, 243840, Note_on_c, 4, 52, 100
6, 244032, Note_off_c, 4, 52, 64
6, 244032, Note_on_c, 4, 52, 100
6, 244224, Note_off_c, 4, 52, 64
6, 244224, Note_on_c, 4, 52, 100
6, 244416, Note_off_c, 4, 52, 64
6, 244416, Note_on_c, 4, 52, 100
6, 244608, Note_off_c, 4, 52, 64
6, 244608, Note_on_c, 4, 64, 100
6, 244800, Note_off_c, 4, 64, 64
6, 244800, Note_on_c, 4, 52, 100
6, 244992, Note_off_c, 4, 52, 64
6, 244992, Note_on_c, 4, 52, 100
6, 245184, Note_off_c, 4, 52, 64
6, 245184, Note_on_c, 4, 52, 100
6, 245376, Note_off_c, 4, 52, 64
6, 245376, Note_on_c, 4, 52, 100
6, 245568, Note_off_c, 4, 52, 64
6, 245568, Note_on_c, 4, 52, 100
6, 245760, Note_off_c, 4, 52, 64
6, 245760, Note_on_c, 4, 52, 100
6, 245952, Note_off_c, 4, 52, 64
6, 245952, Note_on_c, 4, 52, 100
6, 246144, Note_off_c, 4, 52, 64
6, 246144, Note_on_c, 4, 64, 100
6, 246336, Note_off_c, 4, 64, 64
6, 246336, Note_on_c, 4, 52, 100
6, 246528, Note_off_c, 4, 52, 64
6, 246528, Note_on_c, 4, 52, 100
6, 246720, Note_off_c, 4, 52, 64
6, 246720, Note_on_c, 4, 52, 100
6, 246912, Note_off_c, 4, 52, 64
6, 246912, Note_on_c, 4, 52, 100
6, 247104, Note_off_c, 4, 52, 64
6, 247104, Note_on_c, 4, 52, 100
6, 247296, Note_off_c, 4, 52, 64
6, 247296, Note_on_c, 4, 52, 100
6, 247488, Note_off_c, 4, 52, 64
6, 247488, Note_on_c, 4, 52, 100
6, 247680, Note_off_c, 4, 52, 64
6, 247680, Note_on_c, 4, 64, 100
6, 247872, Note_off_c, 4, 64, 64
6, 247872, Note_on_c, 4, 52, 100
6, 248064, Note_off_c, 4, 52, 64
6, 248064, Note_on_c, 4, 52, 100
6, 248256, Note_off_c, 4, 52, 64
6, 248256, Note_on_c, 4, 52, 100
6, 248448, Note_off_c, 4, 52, 64
6, 248448, Note_on_c, 4, 52, 100
6, 248640, Note_off_c, 4, 52, 64
6, 248640, Note_on_c, 4, 52, 100
6, 248832, Note_off_c, 4, 52, 64
6, 248832, Note_on_c, 4, 52, 100
6, 249024, Note_off_c, 4, 52, 64
6, 249024, Note_on_c, 4, 52, 98
6, 249216, Note_off_c, 4, 52, 64
6, 249216, Note_on_c, 4, 64, 97
6, 249408, Note_off_c, 4, 64, 64
6, 249408, Note_on_c, 4, 52, 95
6, 249600, Note_off_c, 4, 52, 64
6, 249600, Note_on_c, 4, 52, 93
6, 249792, Note_off_c, 4, 52, 64
6, 249792, Note_on_c, 4, 52, 92
6, 249984, Note_off_c, 4, 52, 64
6, 249984, Note_on_c, 4, 52, 90
6, 250176, Note_off_c, 4, 52, 64
6, 250176, Note_on_c, 4, 52, 89
6, 250368, Note_off_c, 4, 52, 64
6, 250368, Note_on_c, 4, 52, 87
6, 250560, Note_off_c, 4, 52, 64
6, 250560, Note_on_c, 4, 52, 86
6, 250752, Note_off_c, 4, 52, 64
6, 250752, Note_on_c, 4, 64, 84
6, 250944, Note_off_c, 4, 64, 64
6, 250944, Note_on_c, 4, 52, 83
6, 251136, Note_off_c, 4, 52, 64
6, 251136, Note_on_c, 4, 52, 81
6, 251328, Note_off_c, 4, 52, 64
6, 251328, Note_on_c, 4, 52, 80
6, 251520, Note_off_c, 4, 52, 64
6, 251520, Note_on_c, 4, 52, 78
6, 251712, Note_off_c, 4, 52, 64
6, 251712, Note_on_c, 4, 52, 77
6, 251904, Note_off_c, 4, 52, 64
6, 251904, Note_on_c, 4, 52, 75
6, 252096, Note_off_c, 4, 52, 64
6, 252096, Note_on_c, 4, 52, 73
6, 252288, Note_off_c, 4, 52, 64
6, 252288, Note_on_c, 4, 64, 72
6, 252480, Note_off_c, 4, 64, 64
6, 252480, Note_on_c, 4, 52, 70
6, 252672, Note_off_c, 4, 52, 64
6, 252672, Note_on_c, 4, 52, 69
6, 252864, Note_off_c, 4, 52, 64
6, 252864, Note_on_c, 4, 52, 67
6, 253056, Note_off_c, 4, 52, 64
6, 253056, Note_on_c, 4, 52, 66
6, 253248, Note_off_c, 4, 52, 64
6, 253248, Note_on_c, 4, 52, 64
6, 253440, Note_off_c, 4, 52, 64
6, 253440, Note_on_c, 4, 52, 63
6, 253632, Note_off_c, 4, 52, 64
6, 253632, Note_on_c, 4, 52, 61
6, 253824, Note_off_c, 4, 52, 64
6, 253824, Note_on_c, 4, 64, 59
6, 254016, Note_off_c, 4, 64, 64
6, 254016, Note_on_c, 4, 52, 58
6, 254208, Note_off_c, 4, 52, 64
6, 254208, Note_on_c, 4, 52, 56
6, 254400, Note_off_c, 4, 52, 64
6, 254400, Note_on_c, 4, 52, 55
6, 254592, Note_off_c, 4, 52, 64
6, 254592, Note_on_c, 4, 52, 53
6, 254784, Note_off_c, 4, 52, 64
6, 254784, Note_on_c, 4, 52, 52
6, 254976, Note_off_c, 4, 52, 64
6, 254976, Note_on_c, 4, 52, 50
6, 255168, Note_off_c, 4, 52, 64
6, 255168, Note_on_c, 4, 52, 49
6, 255360, Note_off_c, 4, 52, 64
6, 255360, Note_on_c, 4, 64, 47
6, 255552, Note_off_c, 4, 64, 64
6, 255552, Note_on_c, 4, 52, 46
6, 255744, Note_off_c, 4, 52, 64
6, 255744, Note_on_c, 4, 52, 44
6, 255936, Note_off_c, 4, 52, 64
6, 255936, Note_on_c, 4, 52, 43
6, 256128, Note_off_c, 4, 52, 64
6, 256128, Note_on_c, 4, 52, 41
6, 256320, Note_off_c, 4, 52, 64
6, 256320, Note_on_c, 4, 52, 40
6, 256512, Note_off_c, 4, 52, 64
6, 256512, Note_on_c, 4, 52, 38
6, 256704, Note_off_c, 4, 52, 64
6, 256704, Note_on_c, 4, 52, 36
6, 256896, Note_off_c, 4, 52, 64
6, 256896, Note_on_c, 4, 64, 34
6, 257088, Note_off_c, 4, 64, 64
6, 257088, Note_on_c, 4, 52, 33
6, 257280, Note_off_c, 4, 52, 64
6, 257280, Note_on_c, 4, 52, 32
6, 257472, Note_off_c, 4, 52, 64
6, 257472, Note_on_c, 4, 52, 30
6, 257664, Note_off_c, 4, 52, 64
6, 257664, Note_on_c, 4, 52, 29
6, 257856, Note_off_c, 4, 52, 64
6, 257856, Note_on_c, 4, 52, 27
6, 258048, Note_off_c, 4, 52, 64
6, 258048, Note_on_c, 4, 52, 26
6, 258240, Note_off_c, 4, 52, 64
6, 258240, Note_on_c, 4, 52, 24
6, 258432, Note_off_c, 4, 52, 64
6, 258432, Note_on_c, 4, 64, 22
6, 258624, Note_off_c, 4, 64, 64
6, 258624, Note_on_c, 4, 52, 21
6, 258816, Note_off_c, 4, 52, 64
6, 258816, Note_on_c, 4, 52, 20
6, 259008, Note_off_c, 4, 52, 64
6, 259008, Note_on_c, 4, 52, 18
6, 259200, Note_off_c, 4, 52, 64
6, 259200, Note_on_c, 4, 52, 16
6, 259392, Note_off_c, 4, 52, 64
6, 259392, Note_on_c, 4, 52, 15
6, 259584, Note_off_c, 4, 52, 64
6, 259584, Note_on_c, 4, 52, 13
6, 259776, Note_off_c, 4, 52, 64
6, 259776, Note_on_c, 4, 52, 12
6, 259968, Note_off_c, 4, 52, 64
6, 259968, Note_on_c, 4, 64, 10
6, 260160, Note_off_c, 4, 64, 64
6, 260160, Note_on_c, 4, 52, 9
6, 260352, Note_off_c, 4, 52, 64
6, 260352, Note_on_c, 4, 52, 7
6, 260544, Note_off_c, 4, 52, 64
6, 260544, Note_on_c, 4, 52, 6
6, 260736, Note_off_c, 4, 52, 64
6, 260736, Note_on_c, 4, 52, 4
6, 260928, Note_off_c, 4, 52, 64
6, 260928, Note_on_c, 4, 52, 3
6, 261120, Note_off_c, 4, 52, 64
6, 261120, End_track
7, 0, Start_track
7, 0, Title_t, "Bass"
7, 0, Control_c, 11, 7, 127
7, 0, Program_c, 11, 34
7, 18432, Control_c, 11, 7, 127
7, 18432, Program_c, 11, 34
7, 18432, Note_on_c, 11, 28, 100
7, 18624, Note_off_c, 11, 28, 64
7, 18624, Note_on_c, 11, 28, 100
7, 18816, Note_off_c, 11, 28, 64
7, 18816, Note_on_c, 11, 28, 100
7, 19008, Note_off_c, 11, 28, 64
7, 19008, Note_on_c, 11, 28, 100
7, 19200, Note_off_c, 11, 28, 64
7, 19200, Note_on_c, 11, 28, 100
7, 19392, Note_off_c, 11, 28, 64
7, 19392, Note_on_c, 11, 28, 100
7, 19584, Note_off_c, 11, 28, 64
7, 19584, Note_on_c, 11, 28, 100
7, 19776, Note_off_c, 11, 28, 64
7, 19776, Note_on_c, 11, 28, 100
7, 19968, Note_off_c, 11, 28, 64
7, 19968, Note_on_c, 11, 28, 100
7, 20160, Note_off_c, 11, 28, 64
7, 20160, Note_on_c, 11, 28, 100
7, 20352, Note_off_c, 11, 28, 64
7, 20352, Note_on_c, 11, 28, 100
7, 20544, Note_off_c, 11, 28, 64
7, 20544, Note_on_c, 11, 28, 100
7, 20736, Note_off_c, 11, 28, 64
7, 20736, Note_on_c, 11, 28, 100
7, 20928, Note_off_c, 11, 28, 64
7, 20928, Note_on_c, 11, 28, 100
7, 21120, Note_off_c, 11, 28, 64
7, 21120, Note_on_c, 11, 28, 100
7, 21312, Note_off_c, 11, 28, 64
7, 21312, Note_on_c, 11, 28, 100
7, 21504, Note_off_c, 11, 28, 64
7, 21504, Note_on_c, 11, 28, 100
7, 21696, Note_off_c, 11, 28, 64
7, 21696, Note_on_c, 11, 28, 100
7, 21888, Note_off_c, 11, 28, 64
7, 21888, Note_on_c, 11, 28, 100
7, 22080, Note_off_c, 11, 28, 64
7, 22080, Note_on_c, 11, 28, 100
7, 22272, Note_off_c, 11, 28, 64
7, 22272, Note_on_c, 11, 28, 100
7, 22464, Note_off_c, 11, 28, 64
7, 22464, Note_on_c, 11, 28, 100
7, 22656, Note_off_c, 11, 28, 64
7, 22656, Note_on_c, 11, 28, 100
7, 22848, Note_off_c, 11, 28, 64
7, 22848, Note_on_c, 11, 28, 100
7, 23040, Note_off_c, 11, 28, 64
7, 23040, Note_on_c, 11, 28, 100
7, 23232, Note_off_c, 11, 28, 64
7, 23232, Note_on_c, 11, 28, 100
7, 23424, Note_off_c, 11, 28, 64
7, 23424, Note_on_c, 11, 28, 100
7, 23616, Note_off_c, 11, 28, 64
7, 23616, Note_on_c, 11, 28, 100
7, 23808, Note_off_c, 11, 28, 64
7, 23808, Note_on_c, 11, 28, 100
7, 24000, Note_off_c, 11, 28, 64
7, 24000, Note_on_c, 11, 28, 100
7, 24192, Note_off_c, 11, 28, 64
7, 24192, Note_on_c, 11, 28, 100
7, 24384, Note_off_c, 11, 28, 64
7, 24384, Note_on_c, 11, 28, 127
7, 24576, Note_off_c, 11, 28, 64
7, 24576, Note_on_c, 11, 28, 120
7, 24768, Note_off_c, 11, 28, 64
7, 24768, Note_on_c, 11, 28, 120
7, 24960, Note_off_c, 11, 28, 64
7, 24960, Note_on_c, 11, 28, 120
7, 25152, Note_off_c, 11, 28, 64
7, 25152, Note_on_c, 11, 28, 120
7, 25344, Note_off_c, 11, 28, 64
7, 25344, Note_on_c, 11, 28, 120
7, 25536, Note_off_c, 11, 28, 64
7, 25536, Note_on_c, 11, 28, 120
7, 25728, Note_off_c, 11, 28, 64
7, 25728, Note_on_c, 11, 28, 120
7, 25920, Note_off_c, 11, 28, 64
7, 25920, Note_on_c, 11, 29, 120
7, 26112, Note_off_c, 11, 29, 64
7, 26112, Note_on_c, 11, 28, 120
7, 26304, Note_off_c, 11, 28, 64
7, 26304, Note_on_c, 11, 28, 120
7, 26496, Note_off_c, 11, 28, 64
7, 26496, Note_on_c, 11, 28, 120
7, 26688, Note_off_c, 11, 28, 64
7, 26688, Note_on_c, 11, 28, 120
7, 26880, Note_off_c, 11, 28, 64
7, 26880, Note_on_c, 11, 28, 120
7, 27072, Note_off_c, 11, 28, 64
7, 27072, Note_on_c, 11, 28, 120
7, 27264, Note_off_c, 11, 28, 64
7, 27264, Note_on_c, 11, 28, 120
7, 27456, Note_off_c, 11, 28, 64
7, 27456, Note_on_c, 11, 29, 120
7, 27648, Note_off_c, 11, 29, 64
7, 27648, Note_on_c, 11, 28, 120
7, 27840, Note_off_c, 11, 28, 64
7, 27840, Note_on_c, 11, 28, 120
7, 28032, Note_off_c, 11, 28, 64
7, 28032, Note_on_c, 11, 28, 120
7, 28224, Note_off_c, 11, 28, 64
7, 28224, Note_on_c, 11, 28, 120
7, 28416, Note_off_c, 11, 28, 64
7, 28416, Note_on_c, 11, 28, 120
7, 28608, Note_off_c, 11, 28, 64
7, 28608, Note_on_c, 11, 28, 120
7, 28800, Note_off_c, 11, 28, 64
7, 28800, Note_on_c, 11, 28, 120
7, 28992, Note_off_c, 11, 28, 64
7, 28992, Note_on_c, 11, 29, 120
7, 29184, Note_off_c, 11, 29, 64
7, 29184, Note_on_c, 11, 28, 120
7, 29376, Note_off_c, 11, 28, 64
7, 29376, Note_on_c, 11, 28, 120
7, 29568, Note_off_c, 11, 28, 64
7, 29568, Note_on_c, 11, 28, 120
7, 29760, Note_off_c, 11, 28, 64
7, 29760, Note_on_c, 11, 29, 127
7, 29952, Note_off_c, 11, 29, 64
7, 29952, Note_on_c, 11, 28, 120
7, 30144, Note_off_c, 11, 28, 64
7, 30144, Note_on_c, 11, 28, 120
7, 30336, Note_off_c, 11, 28, 64
7, 30336, Note_on_c, 11, 28, 120
7, 30528, Note_off_c, 11, 28, 64
7, 30528, Note_on_c, 11, 29, 127
7, 30720, Note_off_c, 11, 29, 64
7, 30720, Note_on_c, 11, 28, 120
7, 30912, Note_off_c, 11, 28, 64
7, 30912, Note_on_c, 11, 28, 120
7, 31104, Note_off_c, 11, 28, 64
7, 31104, Note_on_c, 11, 28, 120
7, 31296, Note_off_c, 11, 28, 64
7, 31296, Note_on_c, 11, 28, 120
7, 31488, Note_off_c, 11, 28, 64
7, 31488, Note_on_c, 11, 28, 120
7, 31680, Note_off_c, 11, 28, 64
7, 31680, Note_on_c, 11, 28, 120
7, 31872, Note_off_c, 11, 28, 64
7, 31872, Note_on_c, 11, 28, 120
7, 32064, Note_off_c, 11, 28, 64
7, 32064, Note_on_c, 11, 29, 120
7, 32256, Note_off_c, 11, 29, 64
7, 32256, Note_on_c, 11, 28, 120
7, 32448, Note_off_c, 11, 28, 64
7, 32448, Note_on_c, 11, 28, 120
7, 32640, Note_off_c, 11, 28, 64
7, 32640, Note_on_c, 11, 28, 120
7, 32832, Note_off_c, 11, 28, 64
7, 32832, Note_on_c, 11, 28, 120
7, 33024, Note_off_c, 11, 28, 64
7, 33024, Note_on_c, 11, 28, 120
7, 33216, Note_off_c, 11, 28, 64
7, 33216, Note_on_c, 11, 28, 120
7, 33408, Note_off_c, 11, 28, 64
7, 33408, Note_on_c, 11, 28, 120
7, 33600, Note_off_c, 11, 28, 64
7, 33600, Note_on_c, 11, 29, 120
7, 33792, Note_off_c, 11, 29, 64
7, 33792, Note_on_c, 11, 28, 120
7, 33984, Note_off_c, 11, 28, 64
7, 33984, Note_on_c, 11, 28, 120
7, 34176, Note_off_c, 11, 28, 64
7, 34176, Note_on_c, 11, 28, 120
7, 34368, Note_off_c, 11, 28, 64
7, 34368, Note_on_c, 11, 28, 120
7, 34560, Note_off_c, 11, 28, 64
7, 34560, Note_on_c, 11, 28, 120
7, 34752, Note_off_c, 11, 28, 64
7, 34752, Note_on_c, 11, 28, 120
7, 34944, Note_off_c, 11, 28, 64
7, 34944, Note_on_c, 11, 28, 120
7, 35136, Note_off_c, 11, 28, 64
7, 35136, Note_on_c, 11, 29, 120
7, 35328, Note_off_c, 11, 29, 64
7, 35328, Note_on_c, 11, 28, 120
7, 35520, Note_off_c, 11, 28, 64
7, 35520, Note_on_c, 11, 28, 120
7, 35712, Note_off_c, 11, 28, 64
7, 35712, Note_on_c, 11, 28, 120
7, 35904, Note_off_c, 11, 28, 64
7, 35904, Note_on_c, 11, 33, 127
7, 36288, Note_off_c, 11, 33, 64
7, 36288, Note_on_c, 11, 33, 127
7, 36672, Note_off_c, 11, 33, 64
7, 36672, Note_on_c, 11, 29, 120
7, 36864, Note_off_c, 11, 29, 64
7, 36864, Note_on_c, 11, 28, 120
7, 37056, Note_off_c, 11, 28, 64
7, 37056, Note_on_c, 11, 28, 120
7, 37248, Note_off_c, 11, 28, 64
7, 37248, Note_on_c, 11, 28, 120
7, 37440, Note_off_c, 11, 28, 64
7, 37440, Note_on_c, 11, 28, 120
7, 37632, Note_off_c, 11, 28, 64
7, 37632, Note_on_c, 11, 28, 120
7, 37824, Note_off_c, 11, 28, 64
7, 37824, Note_on_c, 11, 28, 120
7, 38016, Note_off_c, 11, 28, 64
7, 38016, Note_on_c, 11, 28, 120
7, 38208, Note_off_c, 11, 28, 64
7, 38208, Note_on_c, 11, 29, 120
7, 38400, Note_off_c, 11, 29, 64
7, 38400, Note_on_c, 11, 28, 120
7, 38592, Note_off_c, 11, 28, 64
7, 38592, Note_on_c, 11, 28, 120
7, 38784, Note_off_c, 11, 28, 64
7, 38784, Note_on_c, 11, 28, 120
7, 38976, Note_off_c, 11, 28, 64
7, 38976, Note_on_c, 11, 28, 120
7, 39168, Note_off_c, 11, 28, 64
7, 39168, Note_on_c, 11, 28, 120
7, 39360, Note_off_c, 11, 28, 64
7, 39360, Note_on_c, 11, 28, 120
7, 39552, Note_off_c, 11, 28, 64
7, 39552, Note_on_c, 11, 28, 120
7, 39744, Note_off_c, 11, 28, 64
7, 39744, Note_on_c, 11, 29, 120
7, 39936, Note_off_c, 11, 29, 64
7, 39936, Note_on_c, 11, 28, 120
7, 40128, Note_off_c, 11, 28, 64
7, 40128, Note_on_c, 11, 28, 120
7, 40320, Note_off_c, 11, 28, 64
7, 40320, Note_on_c, 11, 28, 120
7, 40512, Note_off_c, 11, 28, 64
7, 40512, Note_on_c, 11, 28, 120
7, 40704, Note_off_c, 11, 28, 64
7, 40704, Note_on_c, 11, 28, 120
7, 40896, Note_off_c, 11, 28, 64
7, 40896, Note_on_c, 11, 28, 120
7, 41088, Note_off_c, 11, 28, 64
7, 41088, Note_on_c, 11, 28, 120
7, 41280, Note_off_c, 11, 28, 64
7, 41280, Note_on_c, 11, 29, 120
7, 41472, Note_off_c, 11, 29, 64
7, 41472, Note_on_c, 11, 28, 120
7, 41664, Note_off_c, 11, 28, 64
7, 41664, Note_on_c, 11, 28, 120
7, 41856, Note_off_c, 11, 28, 64
7, 41856, Note_on_c, 11, 28, 120
7, 42048, Note_off_c, 11, 28, 64
7, 42048, Note_on_c, 11, 28, 120
7, 42240, Note_off_c, 11, 28, 64
7, 42240, Note_on_c, 11, 28, 120
7, 42432, Note_off_c, 11, 28, 64
7, 42432, Note_on_c, 11, 28, 120
7, 42624, Note_off_c, 11, 28, 64
7, 42624, Note_on_c, 11, 28, 120
7, 42816, Note_off_c, 11, 28, 64
7, 42816, Note_on_c, 11, 29, 127
7, 43008, Note_off_c, 11, 29, 64
7, 43008, Note_on_c, 11, 28, 120
7, 43200, Note_off_c, 11, 28, 64
7, 43200, Note_on_c, 11, 28, 120
7, 43392, Note_off_c, 11, 28, 64
7, 43392, Note_on_c, 11, 28, 120
7, 43584, Note_off_c, 11, 28, 64
7, 43584, Note_on_c, 11, 28, 120
7, 43776, Note_off_c, 11, 28, 64
7, 43776, Note_on_c, 11, 28, 120
7, 43968, Note_off_c, 11, 28, 64
7, 43968, Note_on_c, 11, 28, 120
7, 44160, Note_off_c, 11, 28, 64
7, 44160, Note_on_c, 11, 28, 120
7, 44352, Note_off_c, 11, 28, 64
7, 44352, Note_on_c, 11, 29, 120
7, 44544, Note_off_c, 11, 29, 64
7, 44544, Note_on_c, 11, 28, 120
7, 44736, Note_off_c, 11, 28, 64
7, 44736, Note_on_c, 11, 28, 120
7, 44928, Note_off_c, 11, 28, 64
7, 44928, Note_on_c, 11, 28, 120
7, 45120, Note_off_c, 11, 28, 64
7, 45120, Note_on_c, 11, 28, 120
7, 45312, Note_off_c, 11, 28, 64
7, 45312, Note_on_c, 11, 28, 120
7, 45504, Note_off_c, 11, 28, 64
7, 45504, Note_on_c, 11, 28, 120
7, 45696, Note_off_c, 11, 28, 64
7, 45696, Note_on_c, 11, 28, 120
7, 45888, Note_off_c, 11, 28, 64
7, 45888, Note_on_c, 11, 29, 120
7, 46080, Note_off_c, 11, 29, 64
7, 46080, Note_on_c, 11, 28, 120
7, 46272, Note_off_c, 11, 28, 64
7, 46272, Note_on_c, 11, 28, 120
7, 46464, Note_off_c, 11, 28, 64
7, 46464, Note_on_c, 11, 28, 120
7, 46656, Note_off_c, 11, 28, 64
7, 46656, Note_on_c, 11, 28, 120
7, 46848, Note_off_c, 11, 28, 64
7, 46848, Note_on_c, 11, 28, 120
7, 47040, Note_off_c, 11, 28, 64
7, 47040, Note_on_c, 11, 28, 120
7, 47232, Note_off_c, 11, 28, 64
7, 47232, Note_on_c, 11, 28, 120
7, 47424, Note_off_c, 11, 28, 64
7, 47424, Note_on_c, 11, 29, 120
7, 47616, Note_off_c, 11, 29, 64
7, 47616, Note_on_c, 11, 28, 120
7, 47808, Note_off_c, 11, 28, 64
7, 47808, Note_on_c, 11, 28, 120
7, 48000, Note_off_c, 11, 28, 64
7, 48000, Note_on_c, 11, 28, 120
7, 48192, Note_off_c, 11, 28, 64
7, 48192, Note_on_c, 11, 28, 120
7, 48384, Note_off_c, 11, 28, 64
7, 48384, Note_on_c, 11, 28, 120
7, 48576, Note_off_c, 11, 28, 64
7, 48576, Note_on_c, 11, 28, 120
7, 48768, Note_off_c, 11, 28, 64
7, 48768, Note_on_c, 11, 28, 120
7, 48960, Note_off_c, 11, 28, 64
7, 48960, Note_on_c, 11, 28, 127
7, 49344, Note_off_c, 11, 28, 64
7, 49344, Note_on_c, 11, 28, 120
7, 49536, Note_off_c, 11, 28, 64
7, 49536, Note_on_c, 11, 28, 120
7, 49728, Note_off_c, 11, 28, 64
7, 49728, Note_on_c, 11, 34, 120
7, 49920, Note_off_c, 11, 34, 64
7, 49920, Note_on_c, 11, 33, 127
7, 50112, Note_off_c, 11, 33, 64
7, 50112, Note_on_c, 11, 33, 120
7, 50304, Note_off_c, 11, 33, 64
7, 50304, Note_on_c, 11, 28, 120
7, 50496, Note_off_c, 11, 28, 64
7, 50496, Note_on_c, 11, 28, 127
7, 50880, Note_off_c, 11, 28, 64
7, 50880, Note_on_c, 11, 28, 120
7, 51072, Note_off_c, 11, 28, 64
7, 51072, Note_on_c, 11, 28, 120
7, 51264, Note_off_c, 11, 28, 64
7, 51264, Note_on_c, 11, 34, 120
7, 51456, Note_off_c, 11, 34, 64
7, 51456, Note_on_c, 11, 33, 127
7, 51648, Note_off_c, 11, 33, 64
7, 51648, Note_on_c, 11, 33, 120
7, 51840, Note_off_c, 11, 33, 64
7, 51840, Note_on_c, 11, 28, 120
7, 52032, Note_off_c, 11, 28, 64
7, 52032, Note_on_c, 11, 28, 127
7, 52416, Note_off_c, 11, 28, 64
7, 52416, Note_on_c, 11, 28, 120
7, 52608, Note_off_c, 11, 28, 64
7, 52608, Note_on_c, 11, 28, 120
7, 52800, Note_off_c, 11, 28, 64
7, 52800, Note_on_c, 11, 34, 120
7, 52992, Note_off_c, 11, 34, 64
7, 52992, Note_on_c, 11, 33, 127
7, 53376, Note_off_c, 11, 33, 64
7, 53376, Note_on_c, 11, 28, 120
7, 53568, Note_off_c, 11, 28, 64
7, 53568, Note_on_c, 11, 31, 127
7, 53952, Note_off_c, 11, 31, 64
7, 53952, Note_on_c, 11, 28, 120
7, 54144, Note_off_c, 11, 28, 64
7, 54144, Note_on_c, 11, 30, 120
7, 54336, Note_off_c, 11, 30, 64
7, 54336, Note_on_c, 11, 28, 120
7, 54528, Note_off_c, 11, 28, 64
7, 54528, Note_on_c, 11, 30, 120
7, 54720, Note_off_c, 11, 30, 64
7, 54720, Note_on_c, 11, 31, 120
7, 54912, Note_off_c, 11, 31, 64
7, 54912, Note_on_c, 11, 30, 120
7, 55104, Note_off_c, 11, 30, 64
7, 55104, Note_on_c, 11, 28, 127
7, 55488, Note_off_c, 11, 28, 64
7, 55488, Note_on_c, 11, 28, 120
7, 55680, Note_off_c, 11, 28, 64
7, 55680, Note_on_c, 11, 28, 120
7, 55872, Note_off_c, 11, 28, 64
7, 55872, Note_on_c, 11, 34, 120
7, 56064, Note_off_c, 11, 34, 64
7, 56064, Note_on_c, 11, 33, 127
7, 56256, Note_off_c, 11, 33, 64
7, 56256, Note_on_c, 11, 33, 120
7, 56448, Note_off_c, 11, 33, 64
7, 56448, Note_on_c, 11, 28, 120
7, 56640, Note_off_c, 11, 28, 64
7, 56640, Note_on_c, 11, 28, 127
7, 57024, Note_off_c, 11, 28, 64
7, 57024, Note_on_c, 11, 28, 120
7, 57216, Note_off_c, 11, 28, 64
7, 57216, Note_on_c, 11, 28, 120
7, 57408, Note_off_c, 11, 28, 64
7, 57408, Note_on_c, 11, 34, 120
7, 57600, Note_off_c, 11, 34, 64
7, 57600, Note_on_c, 11, 33, 127
7, 57792, Note_off_c, 11, 33, 64
7, 57792, Note_on_c, 11, 33, 120
7, 57984, Note_off_c, 11, 33, 64
7, 57984, Note_on_c, 11, 28, 120
7, 58176, Note_off_c, 11, 28, 64
7, 58176, Note_on_c, 11, 28, 127
7, 58560, Note_off_c, 11, 28, 64
7, 58560, Note_on_c, 11, 28, 120
7, 58752, Note_off_c, 11, 28, 64
7, 58752, Note_on_c, 11, 28, 120
7, 58944, Note_off_c, 11, 28, 64
7, 58944, Note_on_c, 11, 34, 120
7, 59136, Note_off_c, 11, 34, 64
7, 59136, Note_on_c, 11, 33, 127
7, 59520, Note_off_c, 11, 33, 64
7, 59520, Note_on_c, 11, 28, 120
7, 59712, Note_off_c, 11, 28, 64
7, 59712, Note_on_c, 11, 31, 127
7, 60096, Note_off_c, 11, 31, 64
7, 60096, Note_on_c, 11, 28, 120
7, 60288, Note_off_c, 11, 28, 64
7, 60288, Note_on_c, 11, 30, 120
7, 60480, Note_off_c, 11, 30, 64
7, 60480, Note_on_c, 11, 28, 120
7, 60672, Note_off_c, 11, 28, 64
7, 60672, Note_on_c, 11, 30, 120
7, 60864, Note_off_c, 11, 30, 64
7, 60864, Note_on_c, 11, 31, 120
7, 61056, Note_off_c, 11, 31, 64
7, 61056, Note_on_c, 11, 30, 120
7, 61248, Note_off_c, 11, 30, 64
7, 61248, Note_on_c, 11, 28, 127
7, 61632, Note_off_c, 11, 28, 64
7, 61632, Note_on_c, 11, 28, 120
7, 61824, Note_off_c, 11, 28, 64
7, 61824, Note_on_c, 11, 28, 120
7, 62016, Note_off_c, 11, 28, 64
7, 62016, Note_on_c, 11, 28, 120
7, 62208, Note_off_c, 11, 28, 64
7, 62208, Note_on_c, 11, 28, 120
7, 62400, Note_off_c, 11, 28, 64
7, 62400, Note_on_c, 11, 28, 120
7, 62592, Note_off_c, 11, 28, 64
7, 62592, Note_on_c, 11, 28, 120
7, 62784, Note_off_c, 11, 28, 64
7, 62784, Note_on_c, 11, 29, 120
7, 62976, Note_off_c, 11, 29, 64
7, 62976, Note_on_c, 11, 28, 120
7, 63168, Note_off_c, 11, 28, 64
7, 63168, Note_on_c, 11, 28, 120
7, 63360, Note_off_c, 11, 28, 64
7, 63360, Note_on_c, 11, 28, 120
7, 63552, Note_off_c, 11, 28, 64
7, 63552, Note_on_c, 11, 28, 120
7, 63744, Note_off_c, 11, 28, 64
7, 63744, Note_on_c, 11, 28, 120
7, 63936, Note_off_c, 11, 28, 64
7, 63936, Note_on_c, 11, 28, 120
7, 64128, Note_off_c, 11, 28, 64
7, 64128, Note_on_c, 11, 28, 120
7, 64320, Note_off_c, 11, 28, 64
7, 64320, Note_on_c, 11, 29, 120
7, 64512, Note_off_c, 11, 29, 64
7, 64512, Note_on_c, 11, 28, 120
7, 64704, Note_off_c, 11, 28, 64
7, 64704, Note_on_c, 11, 28, 120
7, 64896, Note_off_c, 11, 28, 64
7, 64896, Note_on_c, 11, 28, 120
7, 65088, Note_off_c, 11, 28, 64
7, 65088, Note_on_c, 11, 28, 120
7, 65280, Note_off_c, 11, 28, 64
7, 65280, Note_on_c, 11, 28, 120
7, 65472, Note_off_c, 11, 28, 64
7, 65472, Note_on_c, 11, 28, 120
7, 65664, Note_off_c, 11, 28, 64
7, 65664, Note_on_c, 11, 28, 120
7, 65856, Note_off_c, 11, 28, 64
7, 65856, Note_on_c, 11, 31, 127
7, 66240, Note_off_c, 11, 31, 64
7, 66240, Note_on_c, 11, 28, 120
7, 66432, Note_off_c, 11, 28, 64
7, 66432, Note_on_c, 11, 30, 120
7, 66624, Note_off_c, 11, 30, 64
7, 66624, Note_on_c, 11, 28, 120
7, 66816, Note_off_c, 11, 28, 64
7, 66816, Note_on_c, 11, 30, 120
7, 67008, Note_off_c, 11, 30, 64
7, 67008, Note_on_c, 11, 31, 120
7, 67200, Note_off_c, 11, 31, 64
7, 67200, Note_on_c, 11, 30, 120
7, 67392, Note_off_c, 11, 30, 64
7, 67392, Note_on_c, 11, 28, 127
7, 67776, Note_off_c, 11, 28, 64
7, 67776, Note_on_c, 11, 28, 120
7, 67968, Note_off_c, 11, 28, 64
7, 67968, Note_on_c, 11, 28, 120
7, 68160, Note_off_c, 11, 28, 64
7, 68160, Note_on_c, 11, 28, 120
7, 68352, Note_off_c, 11, 28, 64
7, 68352, Note_on_c, 11, 28, 120
7, 68544, Note_off_c, 11, 28, 64
7, 68544, Note_on_c, 11, 28, 120
7, 68736, Note_off_c, 11, 28, 64
7, 68736, Note_on_c, 11, 28, 120
7, 68928, Note_off_c, 11, 28, 64
7, 68928, Note_on_c, 11, 29, 120
7, 69120, Note_off_c, 11, 29, 64
7, 69120, Note_on_c, 11, 28, 120
7, 69312, Note_off_c, 11, 28, 64
7, 69312, Note_on_c, 11, 28, 120
7, 69504, Note_off_c, 11, 28, 64
7, 69504, Note_on_c, 11, 28, 120
7, 69696, Note_off_c, 11, 28, 64
7, 69696, Note_on_c, 11, 28, 120
7, 69888, Note_off_c, 11, 28, 64
7, 69888, Note_on_c, 11, 28, 120
7, 70080, Note_off_c, 11, 28, 64
7, 70080, Note_on_c, 11, 31, 120
7, 70272, Note_off_c, 11, 31, 64
7, 70272, Note_on_c, 11, 28, 120
7, 70464, Note_off_c, 11, 28, 64
7, 70464, Note_on_c, 11, 29, 120
7, 70656, Note_off_c, 11, 29, 64
7, 70656, Note_on_c, 11, 28, 120
7, 70848, Note_off_c, 11, 28, 64
7, 70848, Note_on_c, 11, 28, 120
7, 71040, Note_off_c, 11, 28, 64
7, 71040, Note_on_c, 11, 28, 120
7, 71232, Note_off_c, 11, 28, 64
7, 71232, Note_on_c, 11, 28, 120
7, 71424, Note_off_c, 11, 28, 64
7, 71424, Note_on_c, 11, 28, 120
7, 71616, Note_off_c, 11, 28, 64
7, 71616, Note_on_c, 11, 28, 120
7, 71808, Note_off_c, 11, 28, 64
7, 71808, Note_on_c, 11, 28, 120
7, 72000, Note_off_c, 11, 28, 64
7, 72000, Note_on_c, 11, 31, 127
7, 72384, Note_off_c, 11, 31, 64
7, 72384, Note_on_c, 11, 28, 120
7, 72576, Note_off_c, 11, 28, 64
7, 72576, Note_on_c, 11, 30, 120
7, 72768, Note_off_c, 11, 30, 64
7, 72768, Note_on_c, 11, 28, 120
7, 72960, Note_off_c, 11, 28, 64
7, 72960, Note_on_c, 11, 30, 120
7, 73152, Note_off_c, 11, 30, 64
7, 73152, Note_on_c, 11, 31, 120
7, 73344, Note_off_c, 11, 31, 64
7, 73344, Note_on_c, 11, 28, 120
7, 73536, Note_off_c, 11, 28, 64
7, 73536, Note_on_c, 11, 30, 120
7, 74496, Note_off_c, 11, 30, 64
7, 74496, Note_on_c, 11, 35, 120
7, 75072, Note_off_c, 11, 35, 64
7, 75072, Note_on_c, 11, 30, 120
7, 76032, Note_off_c, 11, 30, 64
7, 76032, Note_on_c, 11, 35, 120
7, 76608, Note_off_c, 11, 35, 64
7, 76608, Note_on_c, 11, 30, 120
7, 77568, Note_off_c, 11, 30, 64
7, 77568, Note_on_c, 11, 35, 120
7, 78144, Note_off_c, 11, 35, 64
7, 78144, Note_on_c, 11, 30, 120
7, 78336, Note_off_c, 11, 30, 64
7, 78336, Note_on_c, 11, 30, 120
7, 78528, Note_off_c, 11, 30, 64
7, 78528, Note_on_c, 11, 30, 120
7, 78720, Note_off_c, 11, 30, 64
7, 78720, Note_on_c, 11, 30, 120
7, 78912, Note_off_c, 11, 30, 64
7, 78912, Note_on_c, 11, 30, 120
7, 79104, Note_off_c, 11, 30, 64
7, 79104, Note_on_c, 11, 30, 120
7, 79296, Note_off_c, 11, 30, 64
7, 79296, Note_on_c, 11, 28, 120
7, 79488, Note_off_c, 11, 28, 64
7, 79488, Note_on_c, 11, 28, 120
7, 79680, Note_off_c, 11, 28, 64
7, 79680, Note_on_c, 11, 29, 120
7, 79872, Note_off_c, 11, 29, 64
7, 79872, Note_on_c, 11, 30, 120
7, 80064, Note_off_c, 11, 30, 64
7, 80064, Note_on_c, 11, 30, 120
7, 80256, Note_off_c, 11, 30, 64
7, 80256, Note_on_c, 11, 30, 120
7, 80448, Note_off_c, 11, 30, 64
7, 80448, Note_on_c, 11, 36, 120
7, 80640, Note_off_c, 11, 36, 64
7, 80640, Note_on_c, 11, 35, 120
7, 80832, Note_off_c, 11, 35, 64
7, 80832, Note_on_c, 11, 35, 120
7, 81024, Note_off_c, 11, 35, 64
7, 81024, Note_on_c, 11, 35, 120
7, 81216, Note_off_c, 11, 35, 64
7, 81216, Note_on_c, 11, 30, 120
7, 81600, Note_off_c, 11, 30, 64
7, 81600, Note_on_c, 11, 30, 120
7, 81792, Note_off_c, 11, 30, 64
7, 81792, Note_on_c, 11, 30, 120
7, 81984, Note_off_c, 11, 30, 64
7, 81984, Note_on_c, 11, 36, 120
7, 82176, Note_off_c, 11, 36, 64
7, 82176, Note_on_c, 11, 35, 120
7, 82368, Note_off_c, 11, 35, 64
7, 82368, Note_on_c, 11, 35, 120
7, 82560, Note_off_c, 11, 35, 64
7, 82560, Note_on_c, 11, 35, 120
7, 82752, Note_off_c, 11, 35, 64
7, 82752, Note_on_c, 11, 30, 120
7, 82944, Note_off_c, 11, 30, 64
7, 82944, Note_on_c, 11, 30, 120
7, 83136, Note_off_c, 11, 30, 64
7, 83136, Note_on_c, 11, 30, 120
7, 83328, Note_off_c, 11, 30, 64
7, 83328, Note_on_c, 11, 30, 120
7, 83520, Note_off_c, 11, 30, 64
7, 83520, Note_on_c, 11, 36, 120
7, 83712, Note_off_c, 11, 36, 64
7, 83712, Note_on_c, 11, 35, 120
7, 83904, Note_off_c, 11, 35, 64
7, 83904, Note_on_c, 11, 35, 120
7, 84096, Note_off_c, 11, 35, 64
7, 84096, Note_on_c, 11, 35, 120
7, 84288, Note_off_c, 11, 35, 64
7, 84288, Note_on_c, 11, 28, 127
7, 84672, Note_off_c, 11, 28, 64
7, 84672, Note_on_c, 11, 33, 120
7, 84768, Note_off_c, 11, 33, 64
7, 84768, Note_on_c, 11, 35, 120
7, 84864, Note_off_c, 11, 35, 64
7, 84864, Note_on_c, 11, 38, 120
7, 85056, Note_off_c, 11, 38, 64
7, 85056, Note_on_c, 11, 35, 120
7, 85248, Note_off_c, 11, 35, 64
7, 85248, Note_on_c, 11, 40, 120
7, 85440, Note_off_c, 11, 40, 64
7, 85440, Note_on_c, 11, 38, 120
7, 85632, Note_off_c, 11, 38, 64
7, 85632, Note_on_c, 11, 35, 120
7, 85824, Note_off_c, 11, 35, 64
7, 85824, Note_on_c, 11, 31, 120
7, 86016, Note_off_c, 11, 31, 64
7, 86016, Note_on_c, 11, 30, 127
7, 86400, Note_off_c, 11, 30, 64
7, 86400, Note_on_c, 11, 30, 120
7, 86592, Note_off_c, 11, 30, 64
7, 86592, Note_on_c, 11, 36, 120
7, 86784, Note_off_c, 11, 36, 64
7, 86784, Note_on_c, 11, 35, 120
7, 86976, Note_off_c, 11, 35, 64
7, 86976, Note_on_c, 11, 35, 120
7, 87168, Note_off_c, 11, 35, 64
7, 87168, Note_on_c, 11, 35, 120
7, 87360, Note_off_c, 11, 35, 64
7, 87360, Note_on_c, 11, 28, 127
7, 87552, Note_off_c, 11, 28, 64
7, 87552, Note_on_c, 11, 28, 120
7, 87744, Note_off_c, 11, 28, 64
7, 87744, Note_on_c, 11, 28, 120
7, 87936, Note_off_c, 11, 28, 64
7, 87936, Note_on_c, 11, 30, 120
7, 88128, Note_off_c, 11, 30, 64
7, 88128, Note_on_c, 11, 28, 120
7, 88320, Note_off_c, 11, 28, 64
7, 88320, Note_on_c, 11, 31, 120
7, 88512, Note_off_c, 11, 31, 64
7, 88512, Note_on_c, 11, 28, 120
7, 88704, Note_off_c, 11, 28, 64
7, 88704, Note_on_c, 11, 33, 120
7, 88896, Note_off_c, 11, 33, 64
7, 88896, Note_on_c, 11, 28, 120
7, 89088, Note_off_c, 11, 28, 64
7, 89088, Note_on_c, 11, 31, 120
7, 89279, Note_off_c, 11, 31, 64
7, 90432, Note_on_c, 11, 28, 127
7, 90816, Note_off_c, 11, 28, 64
7, 90816, Note_on_c, 11, 28, 120
7, 91008, Note_off_c, 11, 28, 64
7, 91008, Note_on_c, 11, 28, 120
7, 91200, Note_off_c, 11, 28, 64
7, 91200, Note_on_c, 11, 34, 120
7, 91392, Note_off_c, 11, 34, 64
7, 91392, Note_on_c, 11, 33, 127
7, 91584, Note_off_c, 11, 33, 64
7, 91584, Note_on_c, 11, 33, 120
7, 91776, Note_off_c, 11, 33, 64
7, 91776, Note_on_c, 11, 28, 120
7, 91968, Note_off_c, 11, 28, 64
7, 91968, Note_on_c, 11, 28, 127
7, 92352, Note_off_c, 11, 28, 64
7, 92352, Note_on_c, 11, 28, 120
7, 92544, Note_off_c, 11, 28, 64
7, 92544, Note_on_c, 11, 28, 120
7, 92736, Note_off_c, 11, 28, 64
7, 92736, Note_on_c, 11, 34, 120
7, 92928, Note_off_c, 11, 34, 64
7, 92928, Note_on_c, 11, 33, 127
7, 93120, Note_off_c, 11, 33, 64
7, 93120, Note_on_c, 11, 33, 120
7, 93312, Note_off_c, 11, 33, 64
7, 93312, Note_on_c, 11, 28, 120
7, 93504, Note_off_c, 11, 28, 64
7, 93504, Note_on_c, 11, 28, 127
7, 93888, Note_off_c, 11, 28, 64
7, 93888, Note_on_c, 11, 28, 120
7, 94080, Note_off_c, 11, 28, 64
7, 94080, Note_on_c, 11, 28, 120
7, 94272, Note_off_c, 11, 28, 64
7, 94272, Note_on_c, 11, 34, 120
7, 94464, Note_off_c, 11, 34, 64
7, 94464, Note_on_c, 11, 33, 127
7, 94848, Note_off_c, 11, 33, 64
7, 94848, Note_on_c, 11, 28, 120
7, 95040, Note_off_c, 11, 28, 64
7, 95040, Note_on_c, 11, 31, 127
7, 95424, Note_off_c, 11, 31, 64
7, 95424, Note_on_c, 11, 28, 120
7, 95616, Note_off_c, 11, 28, 64
7, 95616, Note_on_c, 11, 30, 120
7, 95808, Note_off_c, 11, 30, 64
7, 95808, Note_on_c, 11, 28, 120
7, 96000, Note_off_c, 11, 28, 64
7, 96000, Note_on_c, 11, 30, 120
7, 96192, Note_off_c, 11, 30, 64
7, 96192, Note_on_c, 11, 31, 120
7, 96384, Note_off_c, 11, 31, 64
7, 96384, Note_on_c, 11, 30, 120
7, 96576, Note_off_c, 11, 30, 64
7, 96576, Note_on_c, 11, 28, 127
7, 96960, Note_off_c, 11, 28, 64
7, 96960, Note_on_c, 11, 28, 120
7, 97152, Note_off_c, 11, 28, 64
7, 97152, Note_on_c, 11, 28, 120
7, 97344, Note_off_c, 11, 28, 64
7, 97344, Note_on_c, 11, 34, 120
7, 97536, Note_off_c, 11, 34, 64
7, 97536, Note_on_c, 11, 33, 127
7, 97728, Note_off_c, 11, 33, 64
7, 97728, Note_on_c, 11, 33, 120
7, 97920, Note_off_c, 11, 33, 64
7, 97920, Note_on_c, 11, 28, 120
7, 98112, Note_off_c, 11, 28, 64
7, 98112, Note_on_c, 11, 28, 127
7, 98496, Note_off_c, 11, 28, 64
7, 98496, Note_on_c, 11, 28, 120
7, 98688, Note_off_c, 11, 28, 64
7, 98688, Note_on_c, 11, 28, 120
7, 98880, Note_off_c, 11, 28, 64
7, 98880, Note_on_c, 11, 34, 120
7, 99072, Note_off_c, 11, 34, 64
7, 99072, Note_on_c, 11, 33, 127
7, 99264, Note_off_c, 11, 33, 64
7, 99264, Note_on_c, 11, 33, 120
7, 99456, Note_off_c, 11, 33, 64
7, 99456, Note_on_c, 11, 28, 120
7, 99648, Note_off_c, 11, 28, 64
7, 99648, Note_on_c, 11, 28, 127
7, 100032, Note_off_c, 11, 28, 64
7, 100032, Note_on_c, 11, 28, 120
7, 100224, Note_off_c, 11, 28, 64
7, 100224, Note_on_c, 11, 28, 120
7, 100416, Note_off_c, 11, 28, 64
7, 100416, Note_on_c, 11, 34, 120
7, 100608, Note_off_c, 11, 34, 64
7, 100608, Note_on_c, 11, 33, 127
7, 100992, Note_off_c, 11, 33, 64
7, 100992, Note_on_c, 11, 28, 120
7, 101184, Note_off_c, 11, 28, 64
7, 101184, Note_on_c, 11, 31, 127
7, 101568, Note_off_c, 11, 31, 64
7, 101568, Note_on_c, 11, 28, 120
7, 101760, Note_off_c, 11, 28, 64
7, 101760, Note_on_c, 11, 30, 120
7, 101952, Note_off_c, 11, 30, 64
7, 101952, Note_on_c, 11, 28, 120
7, 102144, Note_off_c, 11, 28, 64
7, 102144, Note_on_c, 11, 30, 120
7, 102336, Note_off_c, 11, 30, 64
7, 102336, Note_on_c, 11, 31, 120
7, 102528, Note_off_c, 11, 31, 64
7, 102528, Note_on_c, 11, 30, 120
7, 102720, Note_off_c, 11, 30, 64
7, 102720, Note_on_c, 11, 28, 127
7, 103104, Note_off_c, 11, 28, 64
7, 103104, Note_on_c, 11, 28, 120
7, 103296, Note_off_c, 11, 28, 64
7, 103296, Note_on_c, 11, 28, 120
7, 103488, Note_off_c, 11, 28, 64
7, 103488, Note_on_c, 11, 28, 120
7, 103680, Note_off_c, 11, 28, 64
7, 103680, Note_on_c, 11, 28, 120
7, 103872, Note_off_c, 11, 28, 64
7, 103872, Note_on_c, 11, 28, 120
7, 104064, Note_off_c, 11, 28, 64
7, 104064, Note_on_c, 11, 28, 120
7, 104256, Note_off_c, 11, 28, 64
7, 104256, Note_on_c, 11, 29, 120
7, 104448, Note_off_c, 11, 29, 64
7, 104448, Note_on_c, 11, 28, 120
7, 104640, Note_off_c, 11, 28, 64
7, 104640, Note_on_c, 11, 28, 120
7, 104832, Note_off_c, 11, 28, 64
7, 104832, Note_on_c, 11, 28, 120
7, 105024, Note_off_c, 11, 28, 64
7, 105024, Note_on_c, 11, 28, 120
7, 105216, Note_off_c, 11, 28, 64
7, 105216, Note_on_c, 11, 28, 120
7, 105408, Note_off_c, 11, 28, 64
7, 105408, Note_on_c, 11, 28, 120
7, 105600, Note_off_c, 11, 28, 64
7, 105600, Note_on_c, 11, 28, 120
7, 105792, Note_off_c, 11, 28, 64
7, 105792, Note_on_c, 11, 29, 120
7, 105984, Note_off_c, 11, 29, 64
7, 105984, Note_on_c, 11, 28, 120
7, 106176, Note_off_c, 11, 28, 64
7, 106176, Note_on_c, 11, 28, 120
7, 106368, Note_off_c, 11, 28, 64
7, 106368, Note_on_c, 11, 28, 120
7, 106560, Note_off_c, 11, 28, 64
7, 106560, Note_on_c, 11, 28, 120
7, 106752, Note_off_c, 11, 28, 64
7, 106752, Note_on_c, 11, 28, 120
7, 106944, Note_off_c, 11, 28, 64
7, 106944, Note_on_c, 11, 28, 120
7, 107136, Note_off_c, 11, 28, 64
7, 107136, Note_on_c, 11, 28, 120
7, 107328, Note_off_c, 11, 28, 64
7, 107328, Note_on_c, 11, 31, 127
7, 107712, Note_off_c, 11, 31, 64
7, 107712, Note_on_c, 11, 28, 120
7, 107904, Note_off_c, 11, 28, 64
7, 107904, Note_on_c, 11, 30, 120
7, 108096, Note_off_c, 11, 30, 64
7, 108096, Note_on_c, 11, 28, 120
7, 108288, Note_off_c, 11, 28, 64
7, 108288, Note_on_c, 11, 30, 120
7, 108480, Note_off_c, 11, 30, 64
7, 108480, Note_on_c, 11, 31, 120
7, 108672, Note_off_c, 11, 31, 64
7, 108672, Note_on_c, 11, 30, 120
7, 108864, Note_off_c, 11, 30, 64
7, 108864, Note_on_c, 11, 28, 127
7, 109248, Note_off_c, 11, 28, 64
7, 109248, Note_on_c, 11, 28, 120
7, 109440, Note_off_c, 11, 28, 64
7, 109440, Note_on_c, 11, 28, 120
7, 109632, Note_off_c, 11, 28, 64
7, 109632, Note_on_c, 11, 28, 120
7, 109824, Note_off_c, 11, 28, 64
7, 109824, Note_on_c, 11, 28, 120
7, 110016, Note_off_c, 11, 28, 64
7, 110016, Note_on_c, 11, 28, 120
7, 110208, Note_off_c, 11, 28, 64
7, 110208, Note_on_c, 11, 28, 120
7, 110400, Note_off_c, 11, 28, 64
7, 110400, Note_on_c, 11, 29, 120
7, 110592, Note_off_c, 11, 29, 64
7, 110592, Note_on_c, 11, 28, 120
7, 110784, Note_off_c, 11, 28, 64
7, 110784, Note_on_c, 11, 28, 120
7, 110976, Note_off_c, 11, 28, 64
7, 110976, Note_on_c, 11, 28, 120
7, 111168, Note_off_c, 11, 28, 64
7, 111168, Note_on_c, 11, 28, 120
7, 111360, Note_off_c, 11, 28, 64
7, 111360, Note_on_c, 11, 28, 120
7, 111552, Note_off_c, 11, 28, 64
7, 111552, Note_on_c, 11, 31, 120
7, 111744, Note_off_c, 11, 31, 64
7, 111744, Note_on_c, 11, 28, 120
7, 111936, Note_off_c, 11, 28, 64
7, 111936, Note_on_c, 11, 29, 120
7, 112128, Note_off_c, 11, 29, 64
7, 112128, Note_on_c, 11, 28, 120
7, 112320, Note_off_c, 11, 28, 64
7, 112320, Note_on_c, 11, 28, 120
7, 112512, Note_off_c, 11, 28, 64
7, 112512, Note_on_c, 11, 28, 120
7, 112704, Note_off_c, 11, 28, 64
7, 112704, Note_on_c, 11, 28, 120
7, 112896, Note_off_c, 11, 28, 64
7, 112896, Note_on_c, 11, 28, 120
7, 113088, Note_off_c, 11, 28, 64
7, 113088, Note_on_c, 11, 28, 120
7, 113280, Note_off_c, 11, 28, 64
7, 113280, Note_on_c, 11, 28, 120
7, 113472, Note_off_c, 11, 28, 64
7, 113472, Note_on_c, 11, 31, 127
7, 113856, Note_off_c, 11, 31, 64
7, 113856, Note_on_c, 11, 28, 120
7, 114048, Note_off_c, 11, 28, 64
7, 114048, Note_on_c, 11, 30, 120
7, 114240, Note_off_c, 11, 30, 64
7, 114240, Note_on_c, 11, 28, 120
7, 114432, Note_off_c, 11, 28, 64
7, 114432, Note_on_c, 11, 30, 120
7, 114624, Note_off_c, 11, 30, 64
7, 114624, Note_on_c, 11, 31, 120
7, 114816, Note_off_c, 11, 31, 64
7, 114816, Note_on_c, 11, 28, 120
7, 115008, Note_off_c, 11, 28, 64
7, 115008, Note_on_c, 11, 30, 120
7, 115968, Note_off_c, 11, 30, 64
7, 115968, Note_on_c, 11, 35, 120
7, 116544, Note_off_c, 11, 35, 64
7, 116544, Note_on_c, 11, 30, 120
7, 117504, Note_off_c, 11, 30, 64
7, 117504, Note_on_c, 11, 35, 120
7, 118080, Note_off_c, 11, 35, 64
7, 118080, Note_on_c, 11, 30, 120
7, 119040, Note_off_c, 11, 30, 64
7, 119040, Note_on_c, 11, 35, 120
7, 119616, Note_off_c, 11, 35, 64
7, 119616, Note_on_c, 11, 30, 120
7, 119808, Note_off_c, 11, 30, 64
7, 119808, Note_on_c, 11, 30, 120
7, 120000, Note_off_c, 11, 30, 64
7, 120000, Note_on_c, 11, 30, 120
7, 120192, Note_off_c, 11, 30, 64
7, 120192, Note_on_c, 11, 30, 120
7, 120384, Note_off_c, 11, 30, 64
7, 120384, Note_on_c, 11, 30, 120
7, 120576, Note_off_c, 11, 30, 64
7, 120576, Note_on_c, 11, 30, 120
7, 120768, Note_off_c, 11, 30, 64
7, 120768, Note_on_c, 11, 28, 120
7, 120960, Note_off_c, 11, 28, 64
7, 120960, Note_on_c, 11, 28, 120
7, 121152, Note_off_c, 11, 28, 64
7, 121152, Note_on_c, 11, 29, 120
7, 121344, Note_off_c, 11, 29, 64
7, 121344, Note_on_c, 11, 30, 120
7, 121536, Note_off_c, 11, 30, 64
7, 121536, Note_on_c, 11, 30, 120
7, 121728, Note_off_c, 11, 30, 64
7, 121728, Note_on_c, 11, 30, 120
7, 121920, Note_off_c, 11, 30, 64
7, 121920, Note_on_c, 11, 36, 120
7, 122112, Note_off_c, 11, 36, 64
7, 122112, Note_on_c, 11, 35, 120
7, 122304, Note_off_c, 11, 35, 64
7, 122304, Note_on_c, 11, 35, 120
7, 122496, Note_off_c, 11, 35, 64
7, 122496, Note_on_c, 11, 35, 120
7, 122688, Note_off_c, 11, 35, 64
7, 122688, Note_on_c, 11, 30, 120
7, 123072, Note_off_c, 11, 30, 64
7, 123072, Note_on_c, 11, 30, 120
7, 123264, Note_off_c, 11, 30, 64
7, 123264, Note_on_c, 11, 30, 120
7, 123456, Note_off_c, 11, 30, 64
7, 123456, Note_on_c, 11, 36, 120
7, 123648, Note_off_c, 11, 36, 64
7, 123648, Note_on_c, 11, 35, 120
7, 123840, Note_off_c, 11, 35, 64
7, 123840, Note_on_c, 11, 35, 120
7, 124032, Note_off_c, 11, 35, 64
7, 124032, Note_on_c, 11, 35, 120
7, 124224, Note_off_c, 11, 35, 64
7, 124224, Note_on_c, 11, 30, 120
7, 124416, Note_off_c, 11, 30, 64
7, 124416, Note_on_c, 11, 30, 120
7, 124608, Note_off_c, 11, 30, 64
7, 124608, Note_on_c, 11, 30, 120
7, 124800, Note_off_c, 11, 30, 64
7, 124800, Note_on_c, 11, 30, 120
7, 124992, Note_off_c, 11, 30, 64
7, 124992, Note_on_c, 11, 36, 120
7, 125184, Note_off_c, 11, 36, 64
7, 125184, Note_on_c, 11, 35, 120
7, 125376, Note_off_c, 11, 35, 64
7, 125376, Note_on_c, 11, 35, 120
7, 125568, Note_off_c, 11, 35, 64
7, 125568, Note_on_c, 11, 35, 120
7, 125760, Note_off_c, 11, 35, 64
7, 125760, Note_on_c, 11, 28, 127
7, 126144, Note_off_c, 11, 28, 64
7, 126144, Note_on_c, 11, 33, 120
7, 126240, Note_off_c, 11, 33, 64
7, 126240, Note_on_c, 11, 35, 120
7, 126336, Note_off_c, 11, 35, 64
7, 126336, Note_on_c, 11, 38, 120
7, 126528, Note_off_c, 11, 38, 64
7, 126528, Note_on_c, 11, 35, 120
7, 126720, Note_off_c, 11, 35, 64
7, 126720, Note_on_c, 11, 40, 120
7, 126912, Note_off_c, 11, 40, 64
7, 126912, Note_on_c, 11, 38, 120
7, 127104, Note_off_c, 11, 38, 64
7, 127104, Note_on_c, 11, 35, 120
7, 127296, Note_off_c, 11, 35, 64
7, 127296, Note_on_c, 11, 31, 120
7, 127488, Note_off_c, 11, 31, 64
7, 127488, Note_on_c, 11, 30, 127
7, 127872, Note_off_c, 11, 30, 64
7, 127872, Note_on_c, 11, 30, 120
7, 128064, Note_off_c, 11, 30, 64
7, 128064, Note_on_c, 11, 36, 120
7, 128256, Note_off_c, 11, 36, 64
7, 128256, Note_on_c, 11, 35, 120
7, 128448, Note_off_c, 11, 35, 64
7, 128448, Note_on_c, 11, 35, 120
7, 128640, Note_off_c, 11, 35, 64
7, 128640, Note_on_c, 11, 35, 120
7, 128832, Note_off_c, 11, 35, 64
7, 128832, Note_on_c, 11, 28, 127
7, 129024, Note_off_c, 11, 28, 64
7, 129024, Note_on_c, 11, 28, 120
7, 129216, Note_off_c, 11, 28, 64
7, 129216, Note_on_c, 11, 28, 120
7, 129408, Note_off_c, 11, 28, 64
7, 129408, Note_on_c, 11, 30, 120
7, 129600, Note_off_c, 11, 30, 64
7, 129600, Note_on_c, 11, 28, 120
7, 129792, Note_off_c, 11, 28, 64
7, 129792, Note_on_c, 11, 31, 120
7, 129984, Note_off_c, 11, 31, 64
7, 129984, Note_on_c, 11, 28, 120
7, 130176, Note_off_c, 11, 28, 64
7, 130176, Note_on_c, 11, 33, 120
7, 130368, Note_off_c, 11, 33, 64
7, 130368, Note_on_c, 11, 28, 120
7, 130560, Note_off_c, 11, 28, 64
7, 130560, Note_on_c, 11, 31, 120
7, 130751, Note_off_c, 11, 31, 64
7, 131904, Note_on_c, 11, 28, 127
7, 132288, Note_off_c, 11, 28, 64
7, 132288, Note_on_c, 11, 28, 120
7, 132480, Note_off_c, 11, 28, 64
7, 132480, Note_on_c, 11, 28, 120
7, 132672, Note_off_c, 11, 28, 64
7, 132672, Note_on_c, 11, 28, 120
7, 132864, Note_off_c, 11, 28, 64
7, 132864, Note_on_c, 11, 28, 120
7, 132873, Note_on_c, 11, 40, 120
7, 133056, Note_off_c, 11, 28, 64
7, 133056, Note_on_c, 11, 28, 120
7, 133065, Note_off_c, 11, 40, 64
7, 133065, Note_on_c, 11, 40, 120
7, 133248, Note_off_c, 11, 28, 64
7, 133248, Note_on_c, 11, 28, 120
7, 133257, Note_off_c, 11, 40, 64
7, 133257, Note_on_c, 11, 40, 120
7, 133440, Note_off_c, 11, 28, 64
7, 133440, Note_on_c, 11, 28, 127
7, 133449, Note_off_c, 11, 40, 64
7, 133824, Note_off_c, 11, 28, 64
7, 133824, Note_on_c, 11, 28, 120
7, 134016, Note_off_c, 11, 28, 64
7, 134016, Note_on_c, 11, 28, 120
7, 134208, Note_off_c, 11, 28, 64
7, 134208, Note_on_c, 11, 34, 120
7, 134400, Note_off_c, 11, 34, 64
7, 134400, Note_on_c, 11, 33, 127
7, 134592, Note_off_c, 11, 33, 64
7, 134592, Note_on_c, 11, 33, 120
7, 134784, Note_off_c, 11, 33, 64
7, 134784, Note_on_c, 11, 28, 120
7, 134976, Note_off_c, 11, 28, 64
7, 134976, Note_on_c, 11, 28, 127
7, 135360, Note_off_c, 11, 28, 64
7, 135360, Note_on_c, 11, 28, 120
7, 135552, Note_off_c, 11, 28, 64
7, 135552, Note_on_c, 11, 28, 120
7, 135744, Note_off_c, 11, 28, 64
7, 135744, Note_on_c, 11, 34, 120
7, 135936, Note_off_c, 11, 34, 64
7, 135936, Note_on_c, 11, 33, 127
7, 136128, Note_off_c, 11, 33, 64
7, 136128, Note_on_c, 11, 33, 120
7, 136320, Note_off_c, 11, 33, 64
7, 136320, Note_on_c, 11, 28, 120
7, 136512, Note_off_c, 11, 28, 64
7, 136512, Note_on_c, 11, 28, 127
7, 136896, Note_off_c, 11, 28, 64
7, 136896, Note_on_c, 11, 28, 120
7, 137088, Note_off_c, 11, 28, 64
7, 137088, Note_on_c, 11, 28, 120
7, 137280, Note_off_c, 11, 28, 64
7, 137280, Note_on_c, 11, 34, 120
7, 137472, Note_off_c, 11, 34, 64
7, 137472, Note_on_c, 11, 33, 127
7, 137856, Note_off_c, 11, 33, 64
7, 137856, Note_on_c, 11, 28, 120
7, 138048, Note_off_c, 11, 28, 64
7, 138048, Note_on_c, 11, 31, 127
7, 138432, Note_off_c, 11, 31, 64
7, 138432, Note_on_c, 11, 28, 120
7, 138624, Note_off_c, 11, 28, 64
7, 138624, Note_on_c, 11, 30, 120
7, 138816, Note_off_c, 11, 30, 64
7, 138816, Note_on_c, 11, 28, 120
7, 139008, Note_off_c, 11, 28, 64
7, 139008, Note_on_c, 11, 30, 120
7, 139200, Note_off_c, 11, 30, 64
7, 139200, Note_on_c, 11, 31, 120
7, 139392, Note_off_c, 11, 31, 64
7, 139392, Note_on_c, 11, 30, 120
7, 139584, Note_off_c, 11, 30, 64
7, 139584, Note_on_c, 11, 28, 127
7, 139968, Note_off_c, 11, 28, 64
7, 139968, Note_on_c, 11, 28, 120
7, 140160, Note_off_c, 11, 28, 64
7, 140160, Note_on_c, 11, 28, 120
7, 140352, Note_off_c, 11, 28, 64
7, 140352, Note_on_c, 11, 34, 120
7, 140544, Note_off_c, 11, 34, 64
7, 140544, Note_on_c, 11, 33, 127
7, 140736, Note_off_c, 11, 33, 64
7, 140736, Note_on_c, 11, 33, 120
7, 140928, Note_off_c, 11, 33, 64
7, 140928, Note_on_c, 11, 28, 120
7, 141120, Note_off_c, 11, 28, 64
7, 141120, Note_on_c, 11, 28, 127
7, 141504, Note_off_c, 11, 28, 64
7, 141504, Note_on_c, 11, 28, 120
7, 141696, Note_off_c, 11, 28, 64
7, 141696, Note_on_c, 11, 28, 120
7, 141888, Note_off_c, 11, 28, 64
7, 141888, Note_on_c, 11, 34, 120
7, 142080, Note_off_c, 11, 34, 64
7, 142080, Note_on_c, 11, 33, 127
7, 142272, Note_off_c, 11, 33, 64
7, 142272, Note_on_c, 11, 33, 120
7, 142464, Note_off_c, 11, 33, 64
7, 142464, Note_on_c, 11, 28, 120
7, 142656, Note_off_c, 11, 28, 64
7, 142656, Note_on_c, 11, 28, 127
7, 143040, Note_off_c, 11, 28, 64
7, 143040, Note_on_c, 11, 28, 120
7, 143232, Note_off_c, 11, 28, 64
7, 143232, Note_on_c, 11, 28, 120
7, 143424, Note_off_c, 11, 28, 64
7, 143424, Note_on_c, 11, 34, 120
7, 143616, Note_off_c, 11, 34, 64
7, 143616, Note_on_c, 11, 33, 127
7, 144000, Note_off_c, 11, 33, 64
7, 144000, Note_on_c, 11, 28, 120
7, 144192, Note_off_c, 11, 28, 64
7, 144192, Note_on_c, 11, 31, 127
7, 144576, Note_off_c, 11, 31, 64
7, 144576, Note_on_c, 11, 28, 120
7, 144768, Note_off_c, 11, 28, 64
7, 144768, Note_on_c, 11, 30, 120
7, 144960, Note_off_c, 11, 30, 64
7, 144960, Note_on_c, 11, 28, 120
7, 145152, Note_off_c, 11, 28, 64
7, 145152, Note_on_c, 11, 30, 120
7, 145344, Note_off_c, 11, 30, 64
7, 145344, Note_on_c, 11, 31, 120
7, 145536, Note_off_c, 11, 31, 64
7, 145536, Note_on_c, 11, 28, 120
7, 145728, Note_off_c, 11, 28, 64
7, 145728, Note_on_c, 11, 30, 120
7, 146688, Note_off_c, 11, 30, 64
7, 146688, Note_on_c, 11, 35, 120
7, 147264, Note_off_c, 11, 35, 64
7, 147264, Note_on_c, 11, 30, 120
7, 148224, Note_off_c, 11, 30, 64
7, 148224, Note_on_c, 11, 35, 120
7, 148800, Note_off_c, 11, 35, 64
7, 148800, Note_on_c, 11, 30, 120
7, 149760, Note_off_c, 11, 30, 64
7, 149760, Note_on_c, 11, 35, 120
7, 150336, Note_off_c, 11, 35, 64
7, 150336, Note_on_c, 11, 30, 120
7, 150528, Note_off_c, 11, 30, 64
7, 150528, Note_on_c, 11, 30, 120
7, 150720, Note_off_c, 11, 30, 64
7, 150720, Note_on_c, 11, 30, 120
7, 150912, Note_off_c, 11, 30, 64
7, 150912, Note_on_c, 11, 30, 120
7, 151104, Note_off_c, 11, 30, 64
7, 151104, Note_on_c, 11, 30, 120
7, 151296, Note_off_c, 11, 30, 64
7, 151296, Note_on_c, 11, 30, 120
7, 151488, Note_off_c, 11, 30, 64
7, 151488, Note_on_c, 11, 28, 120
7, 151680, Note_off_c, 11, 28, 64
7, 151680, Note_on_c, 11, 28, 120
7, 151872, Note_off_c, 11, 28, 64
7, 151872, Note_on_c, 11, 29, 120
7, 152064, Note_off_c, 11, 29, 64
7, 152064, Note_on_c, 11, 30, 120
7, 152256, Note_off_c, 11, 30, 64
7, 152256, Note_on_c, 11, 30, 120
7, 152448, Note_off_c, 11, 30, 64
7, 152448, Note_on_c, 11, 30, 120
7, 152640, Note_off_c, 11, 30, 64
7, 152640, Note_on_c, 11, 36, 120
7, 152832, Note_off_c, 11, 36, 64
7, 152832, Note_on_c, 11, 35, 120
7, 153024, Note_off_c, 11, 35, 64
7, 153024, Note_on_c, 11, 35, 120
7, 153216, Note_off_c, 11, 35, 64
7, 153216, Note_on_c, 11, 35, 120
7, 153408, Note_off_c, 11, 35, 64
7, 153408, Note_on_c, 11, 30, 120
7, 153792, Note_off_c, 11, 30, 64
7, 153792, Note_on_c, 11, 30, 120
7, 153984, Note_off_c, 11, 30, 64
7, 153984, Note_on_c, 11, 30, 120
7, 154176, Note_off_c, 11, 30, 64
7, 154176, Note_on_c, 11, 36, 120
7, 154368, Note_off_c, 11, 36, 64
7, 154368, Note_on_c, 11, 35, 120
7, 154560, Note_off_c, 11, 35, 64
7, 154560, Note_on_c, 11, 35, 120
7, 154752, Note_off_c, 11, 35, 64
7, 154752, Note_on_c, 11, 35, 120
7, 154944, Note_off_c, 11, 35, 64
7, 154944, Note_on_c, 11, 30, 120
7, 155136, Note_off_c, 11, 30, 64
7, 155136, Note_on_c, 11, 30, 120
7, 155328, Note_off_c, 11, 30, 64
7, 155328, Note_on_c, 11, 30, 120
7, 155520, Note_off_c, 11, 30, 64
7, 155520, Note_on_c, 11, 30, 120
7, 155712, Note_off_c, 11, 30, 64
7, 155712, Note_on_c, 11, 36, 120
7, 155904, Note_off_c, 11, 36, 64
7, 155904, Note_on_c, 11, 35, 120
7, 156096, Note_off_c, 11, 35, 64
7, 156096, Note_on_c, 11, 35, 120
7, 156288, Note_off_c, 11, 35, 64
7, 156288, Note_on_c, 11, 35, 120
7, 156480, Note_off_c, 11, 35, 64
7, 156480, Note_on_c, 11, 28, 127
7, 156864, Note_off_c, 11, 28, 64
7, 156864, Note_on_c, 11, 40, 120
7, 157056, Note_off_c, 11, 40, 64
7, 157056, Note_on_c, 11, 38, 120
7, 157440, Note_off_c, 11, 38, 64
7, 157440, Note_on_c, 11, 36, 120
7, 157632, Note_off_c, 11, 36, 64
7, 157632, Note_on_c, 11, 35, 120
7, 157824, Note_off_c, 11, 35, 64
7, 157824, Note_on_c, 11, 33, 120
7, 158016, Note_off_c, 11, 33, 64
7, 158016, Note_on_c, 11, 31, 120
7, 158208, Note_off_c, 11, 31, 64
7, 158208, Note_on_c, 11, 30, 127
7, 158592, Note_off_c, 11, 30, 64
7, 158592, Note_on_c, 11, 30, 120
7, 158784, Note_off_c, 11, 30, 64
7, 158784, Note_on_c, 11, 36, 120
7, 158976, Note_off_c, 11, 36, 64
7, 158976, Note_on_c, 11, 35, 120
7, 159168, Note_off_c, 11, 35, 64
7, 159168, Note_on_c, 11, 35, 120
7, 159360, Note_off_c, 11, 35, 64
7, 159360, Note_on_c, 11, 35, 120
7, 159552, Note_off_c, 11, 35, 64
7, 159552, Note_on_c, 11, 28, 127
7, 159744, Note_off_c, 11, 28, 64
7, 159744, Note_on_c, 11, 28, 120
7, 159936, Note_off_c, 11, 28, 64
7, 159936, Note_on_c, 11, 28, 120
7, 160128, Note_off_c, 11, 28, 64
7, 160128, Note_on_c, 11, 30, 120
7, 160320, Note_off_c, 11, 30, 64
7, 160320, Note_on_c, 11, 28, 120
7, 160512, Note_off_c, 11, 28, 64
7, 160512, Note_on_c, 11, 31, 120
7, 160704, Note_off_c, 11, 31, 64
7, 160704, Note_on_c, 11, 28, 120
7, 160896, Note_off_c, 11, 28, 64
7, 160896, Note_on_c, 11, 33, 120
7, 161088, Note_off_c, 11, 33, 64
7, 161088, Note_on_c, 11, 28, 120
7, 161280, Note_off_c, 11, 28, 64
7, 161280, Note_on_c, 11, 33, 120
7, 161471, Note_off_c, 11, 33, 64
7, 179712, Control_c, 11, 7, 127
7, 179712, Program_c, 11, 34
7, 179712, Note_on_c, 11, 28, 120
7, 179904, Note_off_c, 11, 28, 64
7, 179904, Note_on_c, 11, 28, 120
7, 180096, Note_off_c, 11, 28, 64
7, 180096, Note_on_c, 11, 28, 120
7, 180288, Note_off_c, 11, 28, 64
7, 180288, Note_on_c, 11, 28, 120
7, 180480, Note_off_c, 11, 28, 64
7, 180480, Note_on_c, 11, 28, 120
7, 180672, Note_off_c, 11, 28, 64
7, 180672, Note_on_c, 11, 28, 120
7, 180864, Note_off_c, 11, 28, 64
7, 180864, Note_on_c, 11, 28, 120
7, 181056, Note_off_c, 11, 28, 64
7, 181056, Note_on_c, 11, 28, 120
7, 181248, Note_off_c, 11, 28, 64
7, 181248, Note_on_c, 11, 30, 120
7, 181440, Note_off_c, 11, 30, 64
7, 181440, Note_on_c, 11, 30, 120
7, 181632, Note_off_c, 11, 30, 64
7, 181632, Note_on_c, 11, 30, 120
7, 181824, Note_off_c, 11, 30, 64
7, 181824, Note_on_c, 11, 30, 120
7, 182016, Note_off_c, 11, 30, 64
7, 182016, Note_on_c, 11, 30, 120
7, 182208, Note_off_c, 11, 30, 64
7, 182208, Note_on_c, 11, 30, 120
7, 182400, Note_off_c, 11, 30, 64
7, 182400, Note_on_c, 11, 30, 120
7, 182592, Note_off_c, 11, 30, 64
7, 182592, Note_on_c, 11, 30, 120
7, 182784, Note_off_c, 11, 30, 64
7, 182784, Note_on_c, 11, 30, 120
7, 182976, Note_off_c, 11, 30, 64
7, 182976, Note_on_c, 11, 30, 120
7, 183168, Note_off_c, 11, 30, 64
7, 183168, Note_on_c, 11, 30, 120
7, 183360, Note_off_c, 11, 30, 64
7, 183360, Note_on_c, 11, 30, 120
7, 183552, Note_off_c, 11, 30, 64
7, 183552, Note_on_c, 11, 30, 120
7, 183744, Note_off_c, 11, 30, 64
7, 183744, Note_on_c, 11, 30, 120
7, 183936, Note_off_c, 11, 30, 64
7, 183936, Note_on_c, 11, 30, 120
7, 184128, Note_off_c, 11, 30, 64
7, 184128, Note_on_c, 11, 31, 120
7, 184320, Note_off_c, 11, 31, 64
7, 184320, Note_on_c, 11, 30, 120
7, 184512, Note_off_c, 11, 30, 64
7, 184512, Note_on_c, 11, 30, 120
7, 184704, Note_off_c, 11, 30, 64
7, 184704, Note_on_c, 11, 30, 120
7, 184896, Note_off_c, 11, 30, 64
7, 184896, Note_on_c, 11, 30, 120
7, 185088, Note_off_c, 11, 30, 64
7, 185088, Note_on_c, 11, 30, 120
7, 185280, Note_off_c, 11, 30, 64
7, 185280, Note_on_c, 11, 30, 120
7, 185472, Note_off_c, 11, 30, 64
7, 185472, Note_on_c, 11, 30, 120
7, 185664, Note_off_c, 11, 30, 64
7, 185664, Note_on_c, 11, 30, 120
7, 185856, Note_off_c, 11, 30, 64
7, 185856, Note_on_c, 11, 30, 120
7, 186048, Note_off_c, 11, 30, 64
7, 186048, Note_on_c, 11, 30, 120
7, 186240, Note_off_c, 11, 30, 64
7, 186240, Note_on_c, 11, 30, 120
7, 186432, Note_off_c, 11, 30, 64
7, 186432, Note_on_c, 11, 30, 120
7, 186624, Note_off_c, 11, 30, 64
7, 186624, Note_on_c, 11, 30, 120
7, 186816, Note_off_c, 11, 30, 64
7, 186816, Note_on_c, 11, 30, 120
7, 187008, Note_off_c, 11, 30, 64
7, 187008, Note_on_c, 11, 30, 120
7, 187200, Note_off_c, 11, 30, 64
7, 187200, Note_on_c, 11, 31, 120
7, 187392, Note_off_c, 11, 31, 64
7, 187392, Note_on_c, 11, 30, 120
7, 187584, Note_off_c, 11, 30, 64
7, 187584, Note_on_c, 11, 30, 120
7, 187776, Note_off_c, 11, 30, 64
7, 187776, Note_on_c, 11, 30, 120
7, 187968, Note_off_c, 11, 30, 64
7, 187968, Note_on_c, 11, 30, 120
7, 188160, Note_off_c, 11, 30, 64
7, 188160, Note_on_c, 11, 30, 120
7, 188352, Note_off_c, 11, 30, 64
7, 188352, Note_on_c, 11, 30, 120
7, 188544, Note_off_c, 11, 30, 64
7, 188544, Note_on_c, 11, 30, 120
7, 188736, Note_off_c, 11, 30, 64
7, 188736, Note_on_c, 11, 30, 120
7, 188928, Note_off_c, 11, 30, 64
7, 188928, Note_on_c, 11, 30, 120
7, 189120, Note_off_c, 11, 30, 64
7, 189120, Note_on_c, 11, 30, 120
7, 189312, Note_off_c, 11, 30, 64
7, 189312, Note_on_c, 11, 30, 120
7, 189504, Note_off_c, 11, 30, 64
7, 189504, Note_on_c, 11, 30, 120
7, 189696, Note_off_c, 11, 30, 64
7, 189696, Note_on_c, 11, 30, 120
7, 189888, Note_off_c, 11, 30, 64
7, 189888, Note_on_c, 11, 30, 120
7, 190080, Note_off_c, 11, 30, 64
7, 190080, Note_on_c, 11, 30, 120
7, 190272, Note_off_c, 11, 30, 64
7, 190272, Note_on_c, 11, 31, 120
7, 190464, Note_off_c, 11, 31, 64
7, 190464, Note_on_c, 11, 30, 120
7, 190656, Note_off_c, 11, 30, 64
7, 190656, Note_on_c, 11, 30, 120
7, 190848, Note_off_c, 11, 30, 64
7, 190848, Note_on_c, 11, 30, 120
7, 191040, Note_off_c, 11, 30, 64
7, 191040, Note_on_c, 11, 30, 120
7, 191232, Note_off_c, 11, 30, 64
7, 191232, Note_on_c, 11, 30, 120
7, 191424, Note_off_c, 11, 30, 64
7, 191424, Note_on_c, 11, 30, 120
7, 191616, Note_off_c, 11, 30, 64
7, 191616, Note_on_c, 11, 30, 120
7, 191808, Note_off_c, 11, 30, 64
7, 191808, Note_on_c, 11, 30, 120
7, 192000, Note_off_c, 11, 30, 64
7, 192000, Note_on_c, 11, 30, 120
7, 192192, Note_off_c, 11, 30, 64
7, 192192, Note_on_c, 11, 30, 120
7, 192384, Note_off_c, 11, 30, 64
7, 192384, Note_on_c, 11, 30, 120
7, 192576, Note_off_c, 11, 30, 64
7, 192576, Note_on_c, 11, 30, 120
7, 192768, Note_off_c, 11, 30, 64
7, 192768, Note_on_c, 11, 30, 120
7, 192960, Note_off_c, 11, 30, 64
7, 192960, Note_on_c, 11, 28, 120
7, 193152, Note_off_c, 11, 28, 64
7, 193152, Note_on_c, 11, 28, 120
7, 193344, Note_off_c, 11, 28, 64
7, 193344, Note_on_c, 11, 29, 120
7, 193536, Note_off_c, 11, 29, 64
7, 193536, Note_on_c, 11, 30, 120
7, 193920, Note_off_c, 11, 30, 64
7, 193920, Note_on_c, 11, 30, 120
7, 194112, Note_off_c, 11, 30, 64
7, 194112, Note_on_c, 11, 36, 120
7, 194304, Note_off_c, 11, 36, 64
7, 194304, Note_on_c, 11, 35, 120
7, 194496, Note_off_c, 11, 35, 64
7, 194496, Note_on_c, 11, 35, 120
7, 194688, Note_off_c, 11, 35, 64
7, 194688, Note_on_c, 11, 35, 120
7, 194880, Note_off_c, 11, 35, 64
7, 194880, Note_on_c, 11, 30, 120
7, 195264, Note_off_c, 11, 30, 64
7, 195264, Note_on_c, 11, 30, 120
7, 195456, Note_off_c, 11, 30, 64
7, 195456, Note_on_c, 11, 30, 120
7, 195648, Note_off_c, 11, 30, 64
7, 195648, Note_on_c, 11, 36, 120
7, 195840, Note_off_c, 11, 36, 64
7, 195840, Note_on_c, 11, 35, 120
7, 196032, Note_off_c, 11, 35, 64
7, 196032, Note_on_c, 11, 35, 120
7, 196224, Note_off_c, 11, 35, 64
7, 196224, Note_on_c, 11, 35, 120
7, 196416, Note_off_c, 11, 35, 64
7, 196416, Note_on_c, 11, 30, 120
7, 196608, Note_off_c, 11, 30, 64
7, 196608, Note_on_c, 11, 30, 120
7, 196800, Note_off_c, 11, 30, 64
7, 196800, Note_on_c, 11, 30, 120
7, 196992, Note_off_c, 11, 30, 64
7, 196992, Note_on_c, 11, 30, 120
7, 197184, Note_off_c, 11, 30, 64
7, 197184, Note_on_c, 11, 36, 120
7, 197376, Note_off_c, 11, 36, 64
7, 197376, Note_on_c, 11, 35, 120
7, 197568, Note_off_c, 11, 35, 64
7, 197568, Note_on_c, 11, 35, 120
7, 197760, Note_off_c, 11, 35, 64
7, 197760, Note_on_c, 11, 35, 120
7, 197952, Note_off_c, 11, 35, 64
7, 197952, Note_on_c, 11, 28, 127
7, 198336, Note_off_c, 11, 28, 64
7, 198336, Note_on_c, 11, 40, 120
7, 198528, Note_off_c, 11, 40, 64
7, 198528, Note_on_c, 11, 28, 120
7, 198720, Note_off_c, 11, 28, 64
7, 198720, Note_on_c, 11, 38, 120
7, 198912, Note_off_c, 11, 38, 64
7, 198912, Note_on_c, 11, 28, 120
7, 199104, Note_off_c, 11, 28, 64
7, 199104, Note_on_c, 11, 35, 120
7, 199296, Note_off_c, 11, 35, 64
7, 199296, Note_on_c, 11, 40, 120
7, 199488, Note_off_c, 11, 40, 64
7, 199488, Note_on_c, 11, 31, 120
7, 199680, Note_off_c, 11, 31, 64
7, 199680, Note_on_c, 11, 30, 127
7, 199872, Note_off_c, 11, 30, 64
7, 199872, Note_on_c, 11, 30, 127
7, 200064, Note_off_c, 11, 30, 64
7, 200064, Note_on_c, 11, 30, 120
7, 200256, Note_off_c, 11, 30, 64
7, 200256, Note_on_c, 11, 36, 120
7, 200448, Note_off_c, 11, 36, 64
7, 200448, Note_on_c, 11, 35, 120
7, 200640, Note_off_c, 11, 35, 64
7, 200640, Note_on_c, 11, 35, 120
7, 200832, Note_off_c, 11, 35, 64
7, 200832, Note_on_c, 11, 35, 120
7, 201024, Note_off_c, 11, 35, 64
7, 201024, Note_on_c, 11, 28, 127
7, 201408, Note_off_c, 11, 28, 64
7, 201408, Note_on_c, 11, 28, 120
7, 201600, Note_off_c, 11, 28, 64
7, 201600, Note_on_c, 11, 28, 120
7, 201792, Note_off_c, 11, 28, 64
7, 201792, Note_on_c, 11, 28, 120
7, 201984, Note_off_c, 11, 28, 64
7, 201984, Note_on_c, 11, 28, 120
7, 202176, Note_off_c, 11, 28, 64
7, 202176, Note_on_c, 11, 28, 120
7, 202368, Note_off_c, 11, 28, 64
7, 202368, Note_on_c, 11, 28, 120
7, 202560, Note_off_c, 11, 28, 64
7, 202560, Note_on_c, 11, 29, 120
7, 202752, Note_off_c, 11, 29, 64
7, 202752, Note_on_c, 11, 30, 120
7, 202944, Note_off_c, 11, 30, 64
7, 202944, Note_on_c, 11, 30, 120
7, 203136, Note_off_c, 11, 30, 64
7, 203136, Note_on_c, 11, 30, 120
7, 203328, Note_off_c, 11, 30, 64
7, 203328, Note_on_c, 11, 36, 120
7, 203520, Note_off_c, 11, 36, 64
7, 203520, Note_on_c, 11, 35, 120
7, 203712, Note_off_c, 11, 35, 64
7, 203712, Note_on_c, 11, 35, 120
7, 203904, Note_off_c, 11, 35, 64
7, 203904, Note_on_c, 11, 35, 120
7, 204096, Note_off_c, 11, 35, 64
7, 204096, Note_on_c, 11, 30, 120
7, 204480, Note_off_c, 11, 30, 64
7, 204480, Note_on_c, 11, 30, 120
7, 204672, Note_off_c, 11, 30, 64
7, 204672, Note_on_c, 11, 30, 120
7, 204864, Note_off_c, 11, 30, 64
7, 204864, Note_on_c, 11, 36, 120
7, 205056, Note_off_c, 11, 36, 64
7, 205056, Note_on_c, 11, 35, 120
7, 205248, Note_off_c, 11, 35, 64
7, 205248, Note_on_c, 11, 35, 120
7, 205440, Note_off_c, 11, 35, 64
7, 205440, Note_on_c, 11, 35, 120
7, 205632, Note_off_c, 11, 35, 64
7, 205632, Note_on_c, 11, 30, 120
7, 205824, Note_off_c, 11, 30, 64
7, 205824, Note_on_c, 11, 30, 120
7, 206016, Note_off_c, 11, 30, 64
7, 206016, Note_on_c, 11, 30, 120
7, 206208, Note_off_c, 11, 30, 64
7, 206208, Note_on_c, 11, 30, 120
7, 206400, Note_off_c, 11, 30, 64
7, 206400, Note_on_c, 11, 36, 120
7, 206592, Note_off_c, 11, 36, 64
7, 206592, Note_on_c, 11, 35, 120
7, 206784, Note_off_c, 11, 35, 64
7, 206784, Note_on_c, 11, 35, 120
7, 206976, Note_off_c, 11, 35, 64
7, 206976, Note_on_c, 11, 35, 120
7, 207168, Note_off_c, 11, 35, 64
7, 207168, Note_on_c, 11, 28, 127
7, 207552, Note_off_c, 11, 28, 64
7, 207552, Note_on_c, 11, 33, 120
7, 207648, Note_off_c, 11, 33, 64
7, 207648, Note_on_c, 11, 35, 120
7, 207744, Note_off_c, 11, 35, 64
7, 207744, Note_on_c, 11, 38, 120
7, 207936, Note_off_c, 11, 38, 64
7, 207936, Note_on_c, 11, 35, 120
7, 208128, Note_off_c, 11, 35, 64
7, 208128, Note_on_c, 11, 40, 120
7, 208320, Note_off_c, 11, 40, 64
7, 208320, Note_on_c, 11, 38, 120
7, 208512, Note_off_c, 11, 38, 64
7, 208512, Note_on_c, 11, 35, 120
7, 208704, Note_off_c, 11, 35, 64
7, 208704, Note_on_c, 11, 31, 120
7, 208896, Note_off_c, 11, 31, 64
7, 208896, Note_on_c, 11, 30, 127
7, 209088, Note_off_c, 11, 30, 64
7, 209088, Note_on_c, 11, 30, 127
7, 209280, Note_off_c, 11, 30, 64
7, 209280, Note_on_c, 11, 30, 120
7, 209472, Note_off_c, 11, 30, 64
7, 209472, Note_on_c, 11, 36, 120
7, 209664, Note_off_c, 11, 36, 64
7, 209664, Note_on_c, 11, 35, 120
7, 209856, Note_off_c, 11, 35, 64
7, 209856, Note_on_c, 11, 35, 120
7, 210048, Note_off_c, 11, 35, 64
7, 210048, Note_on_c, 11, 35, 120
7, 210240, Note_off_c, 11, 35, 64
7, 210240, Note_on_c, 11, 28, 127
7, 210624, Note_off_c, 11, 28, 64
7, 210624, Note_on_c, 11, 28, 120
7, 210816, Note_off_c, 11, 28, 64
7, 210816, Note_on_c, 11, 30, 120
7, 211008, Note_off_c, 11, 30, 64
7, 211008, Note_on_c, 11, 28, 120
7, 211200, Note_off_c, 11, 28, 64
7, 211200, Note_on_c, 11, 31, 120
7, 211392, Note_off_c, 11, 31, 64
7, 211392, Note_on_c, 11, 28, 120
7, 211584, Note_off_c, 11, 28, 64
7, 211584, Note_on_c, 11, 33, 120
7, 211776, Note_off_c, 11, 33, 64
7, 211776, Note_on_c, 11, 28, 120
7, 211968, Note_off_c, 11, 28, 64
7, 211968, Note_on_c, 11, 31, 120
7, 212159, Note_off_c, 11, 31, 64
7, 213312, Note_on_c, 11, 28, 127
7, 217920, Note_off_c, 11, 28, 64
7, 217920, Note_on_c, 11, 28, 127
7, 218304, Note_off_c, 11, 28, 64
7, 218304, Note_on_c, 11, 28, 120
7, 218496, Note_off_c, 11, 28, 64
7, 218496, Note_on_c, 11, 28, 120
7, 218688, Note_off_c, 11, 28, 64
7, 218688, Note_on_c, 11, 34, 120
7, 218880, Note_off_c, 11, 34, 64
7, 218880, Note_on_c, 11, 33, 120
7, 219072, Note_off_c, 11, 33, 64
7, 219072, Note_on_c, 11, 33, 120
7, 219264, Note_off_c, 11, 33, 64
7, 219264, Note_on_c, 11, 33, 120
7, 219456, Note_off_c, 11, 33, 64
7, 219456, Note_on_c, 11, 28, 120
7, 219648, Note_off_c, 11, 28, 64
7, 219648, Note_on_c, 11, 28, 120
7, 219840, Note_off_c, 11, 28, 64
7, 219840, Note_on_c, 11, 28, 120
7, 220032, Note_off_c, 11, 28, 64
7, 220032, Note_on_c, 11, 28, 120
7, 220224, Note_off_c, 11, 28, 64
7, 220224, Note_on_c, 11, 34, 120
7, 220416, Note_off_c, 11, 34, 64
7, 220416, Note_on_c, 11, 33, 120
7, 220608, Note_off_c, 11, 33, 64
7, 220608, Note_on_c, 11, 33, 120
7, 220800, Note_off_c, 11, 33, 64
7, 220800, Note_on_c, 11, 33, 120
7, 220992, Note_off_c, 11, 33, 64
7, 220992, Note_on_c, 11, 28, 120
7, 221376, Note_off_c, 11, 28, 64
7, 221376, Note_on_c, 11, 28, 120
7, 221568, Note_off_c, 11, 28, 64
7, 221568, Note_on_c, 11, 28, 120
7, 221760, Note_off_c, 11, 28, 64
7, 221760, Note_on_c, 11, 34, 120
7, 221952, Note_off_c, 11, 34, 64
7, 221952, Note_on_c, 11, 33, 120
7, 222144, Note_off_c, 11, 33, 64
7, 222144, Note_on_c, 11, 33, 120
7, 222336, Note_off_c, 11, 33, 64
7, 222336, Note_on_c, 11, 33, 120
7, 222528, Note_off_c, 11, 33, 64
7, 222528, Note_on_c, 11, 28, 127
7, 222912, Note_off_c, 11, 28, 64
7, 222912, Note_on_c, 11, 28, 120
7, 223104, Note_off_c, 11, 28, 64
7, 223104, Note_on_c, 11, 28, 120
7, 223296, Note_off_c, 11, 28, 64
7, 223296, Note_on_c, 11, 34, 120
7, 223488, Note_off_c, 11, 34, 64
7, 223488, Note_on_c, 11, 33, 120
7, 223680, Note_off_c, 11, 33, 64
7, 223680, Note_on_c, 11, 33, 120
7, 223872, Note_off_c, 11, 33, 64
7, 223872, Note_on_c, 11, 33, 120
7, 224064, Note_off_c, 11, 33, 64
7, 224064, Note_on_c, 11, 28, 120
7, 224448, Note_off_c, 11, 28, 64
7, 224448, Note_on_c, 11, 28, 127
7, 224640, Note_off_c, 11, 28, 64
7, 224640, Note_on_c, 11, 28, 120
7, 224832, Note_off_c, 11, 28, 64
7, 224832, Note_on_c, 11, 34, 120
7, 225024, Note_off_c, 11, 34, 64
7, 225024, Note_on_c, 11, 33, 120
7, 225216, Note_off_c, 11, 33, 64
7, 225216, Note_on_c, 11, 33, 120
7, 225408, Note_off_c, 11, 33, 64
7, 225408, Note_on_c, 11, 28, 120
7, 225600, Note_off_c, 11, 28, 64
7, 225600, Note_on_c, 11, 31, 127
7, 225984, Note_off_c, 11, 31, 64
7, 225984, Note_on_c, 11, 28, 120
7, 226176, Note_off_c, 11, 28, 64
7, 226176, Note_on_c, 11, 30, 120
7, 226368, Note_off_c, 11, 30, 64
7, 226368, Note_on_c, 11, 28, 120
7, 226560, Note_off_c, 11, 28, 64
7, 226560, Note_on_c, 11, 30, 120
7, 226752, Note_off_c, 11, 30, 64
7, 226752, Note_on_c, 11, 31, 120
7, 226944, Note_off_c, 11, 31, 64
7, 226944, Note_on_c, 11, 30, 120
7, 227136, Note_off_c, 11, 30, 64
7, 227136, Note_on_c, 11, 28, 120
7, 227328, Note_off_c, 11, 28, 64
7, 227328, Note_on_c, 11, 28, 120
7, 227519, Note_off_c, 11, 28, 64
7, 227520, Note_on_c, 11, 28, 120
7, 227711, Note_off_c, 11, 28, 64
7, 227712, Note_on_c, 11, 28, 120
7, 227903, Note_off_c, 11, 28, 64
7, 227904, Note_on_c, 11, 28, 120
7, 228095, Note_off_c, 11, 28, 64
7, 228096, Note_on_c, 11, 28, 120
7, 228287, Note_off_c, 11, 28, 64
7, 228288, Note_on_c, 11, 28, 120
7, 228479, Note_off_c, 11, 28, 64
7, 228480, Note_on_c, 11, 28, 120
7, 228671, Note_off_c, 11, 28, 64
7, 228672, Note_on_c, 11, 29, 120
7, 228863, Note_off_c, 11, 29, 64
7, 228864, Note_on_c, 11, 28, 120
7, 229055, Note_off_c, 11, 28, 64
7, 229056, Note_on_c, 11, 28, 120
7, 229247, Note_off_c, 11, 28, 64
7, 229248, Note_on_c, 11, 28, 120
7, 229439, Note_off_c, 11, 28, 64
7, 229440, Note_on_c, 11, 28, 120
7, 229631, Note_off_c, 11, 28, 64
7, 229632, Note_on_c, 11, 28, 120
7, 229823, Note_off_c, 11, 28, 64
7, 229824, Note_on_c, 11, 28, 120
7, 230015, Note_off_c, 11, 28, 64
7, 230016, Note_on_c, 11, 28, 120
7, 230207, Note_off_c, 11, 28, 64
7, 230208, Note_on_c, 11, 29, 120
7, 230399, Note_off_c, 11, 29, 64
7, 230400, Note_on_c, 11, 28, 120
7, 230591, Note_off_c, 11, 28, 64
7, 230592, Note_on_c, 11, 28, 120
7, 230783, Note_off_c, 11, 28, 64
7, 230784, Note_on_c, 11, 28, 120
7, 230975, Note_off_c, 11, 28, 64
7, 230976, Note_on_c, 11, 28, 120
7, 231167, Note_off_c, 11, 28, 64
7, 231168, Note_on_c, 11, 28, 120
7, 231359, Note_off_c, 11, 28, 64
7, 231360, Note_on_c, 11, 28, 120
7, 231551, Note_off_c, 11, 28, 64
7, 231552, Note_on_c, 11, 28, 120
7, 231743, Note_off_c, 11, 28, 64
7, 231744, Note_on_c, 11, 29, 120
7, 231935, Note_off_c, 11, 29, 64
7, 231936, Note_on_c, 11, 28, 120
7, 232127, Note_off_c, 11, 28, 64
7, 232128, Note_on_c, 11, 28, 120
7, 232319, Note_off_c, 11, 28, 64
7, 232320, Note_on_c, 11, 28, 120
7, 232511, Note_off_c, 11, 28, 64
7, 232512, Note_on_c, 11, 28, 120
7, 232703, Note_off_c, 11, 28, 64
7, 232704, Note_on_c, 11, 28, 120
7, 232895, Note_off_c, 11, 28, 64
7, 232896, Note_on_c, 11, 28, 120
7, 233087, Note_off_c, 11, 28, 64
7, 233088, Note_on_c, 11, 28, 120
7, 233279, Note_off_c, 11, 28, 64
7, 233280, Note_on_c, 11, 29, 120
7, 233471, Note_off_c, 11, 29, 64
7, 233472, Note_on_c, 11, 28, 120
7, 233663, Note_off_c, 11, 28, 64
7, 233664, Note_on_c, 11, 28, 120
7, 233855, Note_off_c, 11, 28, 64
7, 233856, Note_on_c, 11, 28, 120
7, 234047, Note_off_c, 11, 28, 64
7, 234048, Note_on_c, 11, 28, 120
7, 234239, Note_off_c, 11, 28, 64
7, 234240, Note_on_c, 11, 28, 120
7, 234431, Note_off_c, 11, 28, 64
7, 234432, Note_on_c, 11, 28, 120
7, 234623, Note_off_c, 11, 28, 64
7, 234624, Note_on_c, 11, 28, 120
7, 234815, Note_off_c, 11, 28, 64
7, 234816, Note_on_c, 11, 29, 120
7, 235007, Note_off_c, 11, 29, 64
7, 235008, Note_on_c, 11, 28, 120
7, 235199, Note_off_c, 11, 28, 64
7, 235200, Note_on_c, 11, 28, 120
7, 235391, Note_off_c, 11, 28, 64
7, 235392, Note_on_c, 11, 28, 120
7, 235583, Note_off_c, 11, 28, 64
7, 235584, Note_on_c, 11, 28, 120
7, 235775, Note_off_c, 11, 28, 64
7, 235776, Note_on_c, 11, 28, 120
7, 235967, Note_off_c, 11, 28, 64
7, 235968, Note_on_c, 11, 28, 120
7, 236159, Note_off_c, 11, 28, 64
7, 236160, Note_on_c, 11, 28, 120
7, 236351, Note_off_c, 11, 28, 64
7, 236352, Note_on_c, 11, 29, 120
7, 236543, Note_off_c, 11, 29, 64
7, 236544, Note_on_c, 11, 28, 120
7, 236735, Note_off_c, 11, 28, 64
7, 236736, Note_on_c, 11, 28, 120
7, 236927, Note_off_c, 11, 28, 64
7, 236928, Note_on_c, 11, 28, 120
7, 237119, Note_off_c, 11, 28, 64
7, 237120, Note_on_c, 11, 28, 120
7, 237311, Note_off_c, 11, 28, 64
7, 237312, Note_on_c, 11, 28, 120
7, 237503, Note_off_c, 11, 28, 64
7, 237504, Note_on_c, 11, 28, 120
7, 237695, Note_off_c, 11, 28, 64
7, 237696, Note_on_c, 11, 28, 120
7, 237887, Note_off_c, 11, 28, 64
7, 237888, Note_on_c, 11, 29, 120
7, 238079, Note_off_c, 11, 29, 64
7, 238080, Note_on_c, 11, 28, 120
7, 238271, Note_off_c, 11, 28, 64
7, 238272, Note_on_c, 11, 28, 120
7, 238463, Note_off_c, 11, 28, 64
7, 238464, Note_on_c, 11, 28, 120
7, 238655, Note_off_c, 11, 28, 64
7, 238656, Note_on_c, 11, 28, 120
7, 238847, Note_off_c, 11, 28, 64
7, 238848, Note_on_c, 11, 28, 120
7, 239039, Note_off_c, 11, 28, 64
7, 239040, Note_on_c, 11, 28, 120
7, 239231, Note_off_c, 11, 28, 64
7, 239232, Note_on_c, 11, 28, 120
7, 239423, Note_off_c, 11, 28, 64
7, 239424, Note_on_c, 11, 29, 120
7, 239615, Note_off_c, 11, 29, 64
7, 239616, Note_on_c, 11, 28, 120
7, 239807, Note_off_c, 11, 28, 64
7, 239808, Note_on_c, 11, 28, 120
7, 239999, Note_off_c, 11, 28, 64
7, 240000, Note_on_c, 11, 28, 120
7, 240191, Note_off_c, 11, 28, 64
7, 240192, Note_on_c, 11, 28, 120
7, 240383, Note_off_c, 11, 28, 64
7, 240384, Note_on_c, 11, 28, 120
7, 240575, Note_off_c, 11, 28, 64
7, 240576, Note_on_c, 11, 28, 120
7, 240767, Note_off_c, 11, 28, 64
7, 240768, Note_on_c, 11, 28, 120
7, 240959, Note_off_c, 11, 28, 64
7, 240960, Note_on_c, 11, 28, 120
7, 241151, Note_off_c, 11, 28, 64
7, 241152, Note_on_c, 11, 28, 120
7, 241343, Note_off_c, 11, 28, 64
7, 241344, Note_on_c, 11, 28, 120
7, 241535, Note_off_c, 11, 28, 64
7, 241536, Note_on_c, 11, 28, 120
7, 241727, Note_off_c, 11, 28, 64
7, 241728, Note_on_c, 11, 28, 120
7, 241919, Note_off_c, 11, 28, 64
7, 241920, Note_on_c, 11, 28, 120
7, 242111, Note_off_c, 11, 28, 64
7, 242112, Note_on_c, 11, 28, 120
7, 242303, Note_off_c, 11, 28, 64
7, 242304, Note_on_c, 11, 28, 120
7, 242495, Note_off_c, 11, 28, 64
7, 242496, Note_on_c, 11, 28, 120
7, 242687, Note_off_c, 11, 28, 64
7, 242688, Note_on_c, 11, 28, 120
7, 242879, Note_off_c, 11, 28, 64
7, 242880, Note_on_c, 11, 28, 120
7, 243071, Note_off_c, 11, 28, 64
7, 243072, Note_on_c, 11, 28, 120
7, 243263, Note_off_c, 11, 28, 64
7, 243264, Note_on_c, 11, 28, 120
7, 243455, Note_off_c, 11, 28, 64
7, 243456, Note_on_c, 11, 28, 120
7, 243647, Note_off_c, 11, 28, 64
7, 243648, Note_on_c, 11, 28, 120
7, 243839, Note_off_c, 11, 28, 64
7, 243840, Note_on_c, 11, 28, 120
7, 244031, Note_off_c, 11, 28, 64
7, 244032, Note_on_c, 11, 28, 120
7, 244223, Note_off_c, 11, 28, 64
7, 244224, Note_on_c, 11, 28, 120
7, 244415, Note_off_c, 11, 28, 64
7, 244416, Note_on_c, 11, 28, 120
7, 244607, Note_off_c, 11, 28, 64
7, 244608, Note_on_c, 11, 28, 120
7, 244799, Note_off_c, 11, 28, 64
7, 244800, Note_on_c, 11, 28, 120
7, 244991, Note_off_c, 11, 28, 64
7, 244992, Note_on_c, 11, 28, 120
7, 245183, Note_off_c, 11, 28, 64
7, 245184, Note_on_c, 11, 28, 120
7, 245375, Note_off_c, 11, 28, 64
7, 245376, Note_on_c, 11, 28, 120
7, 245567, Note_off_c, 11, 28, 64
7, 245568, Note_on_c, 11, 28, 120
7, 245759, Note_off_c, 11, 28, 64
7, 245760, Note_on_c, 11, 28, 120
7, 245951, Note_off_c, 11, 28, 64
7, 245952, Note_on_c, 11, 28, 120
7, 246143, Note_off_c, 11, 28, 64
7, 246144, Note_on_c, 11, 28, 120
7, 246335, Note_off_c, 11, 28, 64
7, 246336, Note_on_c, 11, 28, 120
7, 246527, Note_off_c, 11, 28, 64
7, 246528, Note_on_c, 11, 28, 120
7, 246719, Note_off_c, 11, 28, 64
7, 246720, Note_on_c, 11, 28, 120
7, 246911, Note_off_c, 11, 28, 64
7, 246912, Note_on_c, 11, 28, 120
7, 247103, Note_off_c, 11, 28, 64
7, 247104, Note_on_c, 11, 28, 120
7, 247295, Note_off_c, 11, 28, 64
7, 247296, Note_on_c, 11, 28, 120
7, 247487, Note_off_c, 11, 28, 64
7, 247488, Note_on_c, 11, 28, 120
7, 247679, Note_off_c, 11, 28, 64
7, 247680, Note_on_c, 11, 28, 120
7, 247871, Note_off_c, 11, 28, 64
7, 247872, Note_on_c, 11, 28, 120
7, 248063, Note_off_c, 11, 28, 64
7, 248064, Note_on_c, 11, 28, 120
7, 248255, Note_off_c, 11, 28, 64
7, 248256, Note_on_c, 11, 28, 120
7, 248447, Note_off_c, 11, 28, 64
7, 248448, Note_on_c, 11, 28, 120
7, 248639, Note_off_c, 11, 28, 64
7, 248640, Note_on_c, 11, 28, 120
7, 248831, Note_off_c, 11, 28, 64
7, 248832, Note_on_c, 11, 28, 119
7, 249023, Note_off_c, 11, 28, 64
7, 249024, Note_on_c, 11, 28, 117
7, 249215, Note_off_c, 11, 28, 64
7, 249216, Note_on_c, 11, 28, 116
7, 249407, Note_off_c, 11, 28, 64
7, 249408, Note_on_c, 11, 28, 114
7, 249599, Note_off_c, 11, 28, 64
7, 249600, Note_on_c, 11, 28, 112
7, 249791, Note_off_c, 11, 28, 64
7, 249792, Note_on_c, 11, 28, 110
7, 249983, Note_off_c, 11, 28, 64
7, 249984, Note_on_c, 11, 28, 108
7, 250175, Note_off_c, 11, 28, 64
7, 250176, Note_on_c, 11, 28, 106
7, 250367, Note_off_c, 11, 28, 64
7, 250368, Note_on_c, 11, 28, 104
7, 250559, Note_off_c, 11, 28, 64
7, 250560, Note_on_c, 11, 28, 102
7, 250751, Note_off_c, 11, 28, 64
7, 250752, Note_on_c, 11, 28, 101
7, 250943, Note_off_c, 11, 28, 64
7, 250944, Note_on_c, 11, 28, 99
7, 251135, Note_off_c, 11, 28, 64
7, 251136, Note_on_c, 11, 28, 97
7, 251327, Note_off_c, 11, 28, 64
7, 251328, Note_on_c, 11, 28, 95
7, 251519, Note_off_c, 11, 28, 64
7, 251520, Note_on_c, 11, 28, 93
7, 251711, Note_off_c, 11, 28, 64
7, 251712, Note_on_c, 11, 28, 91
7, 251903, Note_off_c, 11, 28, 64
7, 251904, Note_on_c, 11, 28, 89
7, 252095, Note_off_c, 11, 28, 64
7, 252096, Note_on_c, 11, 28, 87
7, 252287, Note_off_c, 11, 28, 64
7, 252288, Note_on_c, 11, 28, 86
7, 252479, Note_off_c, 11, 28, 64
7, 252480, Note_on_c, 11, 28, 84
7, 252671, Note_off_c, 11, 28, 64
7, 252672, Note_on_c, 11, 28, 82
7, 252863, Note_off_c, 11, 28, 64
7, 252864, Note_on_c, 11, 28, 80
7, 253055, Note_off_c, 11, 28, 64
7, 253056, Note_on_c, 11, 28, 78
7, 253247, Note_off_c, 11, 28, 64
7, 253248, Note_on_c, 11, 28, 76
7, 253439, Note_off_c, 11, 28, 64
7, 253440, Note_on_c, 11, 28, 74
7, 253631, Note_off_c, 11, 28, 64
7, 253632, Note_on_c, 11, 28, 72
7, 253823, Note_off_c, 11, 28, 64
7, 253824, Note_on_c, 11, 28, 71
7, 254015, Note_off_c, 11, 28, 64
7, 254016, Note_on_c, 11, 28, 69
7, 254207, Note_off_c, 11, 28, 64
7, 254208, Note_on_c, 11, 28, 67
7, 254399, Note_off_c, 11, 28, 64
7, 254400, Note_on_c, 11, 28, 65
7, 254591, Note_off_c, 11, 28, 64
7, 254592, Note_on_c, 11, 28, 63
7, 254783, Note_off_c, 11, 28, 64
7, 254784, Note_on_c, 11, 28, 61
7, 254975, Note_off_c, 11, 28, 64
7, 254976, Note_on_c, 11, 28, 59
7, 255167, Note_off_c, 11, 28, 64
7, 255168, Note_on_c, 11, 28, 58
7, 255359, Note_off_c, 11, 28, 64
7, 255360, Note_on_c, 11, 28, 56
7, 255551, Note_off_c, 11, 28, 64
7, 255552, Note_on_c, 11, 28, 54
7, 255743, Note_off_c, 11, 28, 64
7, 255744, Note_on_c, 11, 28, 52
7, 255935, Note_off_c, 11, 28, 64
7, 255936, Note_on_c, 11, 28, 50
7, 256127, Note_off_c, 11, 28, 64
7, 256128, Note_on_c, 11, 28, 48
7, 256319, Note_off_c, 11, 28, 64
7, 256320, Note_on_c, 11, 28, 46
7, 256511, Note_off_c, 11, 28, 64
7, 256512, Note_on_c, 11, 28, 44
7, 256703, Note_off_c, 11, 28, 64
7, 256704, Note_on_c, 11, 28, 43
7, 256895, Note_off_c, 11, 28, 64
7, 256896, Note_on_c, 11, 28, 41
7, 257087, Note_off_c, 11, 28, 64
7, 257088, Note_on_c, 11, 28, 39
7, 257279, Note_off_c, 11, 28, 64
7, 257280, Note_on_c, 11, 28, 37
7, 257471, Note_off_c, 11, 28, 64
7, 257472, Note_on_c, 11, 28, 35
7, 257663, Note_off_c, 11, 28, 64
7, 257664, Note_on_c, 11, 28, 33
7, 257855, Note_off_c, 11, 28, 64
7, 257856, Note_on_c, 11, 28, 31
7, 258047, Note_off_c, 11, 28, 64
7, 258048, Note_on_c, 11, 28, 29
7, 258239, Note_off_c, 11, 28, 64
7, 258240, Note_on_c, 11, 28, 28
7, 258431, Note_off_c, 11, 28, 64
7, 258432, Note_on_c, 11, 28, 26
7, 258623, Note_off_c, 11, 28, 64
7, 258624, Note_on_c, 11, 28, 24
7, 258815, Note_off_c, 11, 28, 64
7, 258816, Note_on_c, 11, 28, 22
7, 259007, Note_off_c, 11, 28, 64
7, 259008, Note_on_c, 11, 28, 20
7, 259199, Note_off_c, 11, 28, 64
7, 259200, Note_on_c, 11, 28, 18
7, 259391, Note_off_c, 11, 28, 64
7, 259392, Note_on_c, 11, 28, 16
7, 259583, Note_off_c, 11, 28, 64
7, 259584, Note_on_c, 11, 28, 14
7, 259775, Note_off_c, 11, 28, 64
7, 259776, Note_on_c, 11, 28, 13
7, 259967, Note_off_c, 11, 28, 64
7, 259968, Note_on_c, 11, 28, 11
7, 260159, Note_off_c, 11, 28, 64
7, 260160, Note_on_c, 11, 28, 9
7, 260351, Note_off_c, 11, 28, 64
7, 260352, Note_on_c, 11, 28, 7
7, 260543, Note_off_c, 11, 28, 64
7, 260544, Note_on_c, 11, 28, 5
7, 260735, Note_off_c, 11, 28, 64
7, 260736, Note_on_c, 11, 28, 3
7, 260927, Note_off_c, 11, 28, 64
7, 260928, Note_on_c, 11, 28, 1
7, 261119, Note_off_c, 11, 28, 64
7, 261120, End_track
8, 0, Start_track
8, 0, Title_t, "Drums"
8, 0, Control_c, 9, 7, 100
8, 4608, Control_c, 9, 7, 100
8, 6528, Note_on_c, 9, 42, 40
8, 6911, Note_off_c, 9, 42, 64
8, 7296, Note_on_c, 9, 42, 40
8, 7679, Note_off_c, 9, 42, 64
8, 8064, Note_on_c, 9, 42, 40
8, 8447, Note_off_c, 9, 42, 64
8, 8832, Note_on_c, 9, 42, 40
8, 9215, Note_off_c, 9, 42, 64
8, 9600, Note_on_c, 9, 42, 40
8, 9983, Note_off_c, 9, 42, 64
8, 10368, Note_on_c, 9, 42, 40
8, 10751, Note_off_c, 9, 42, 64
8, 11136, Note_on_c, 9, 42, 40
8, 11519, Note_off_c, 9, 42, 64
8, 11712, Note_on_c, 9, 42, 40
8, 11776, Note_off_c, 9, 42, 64
8, 11776, Note_on_c, 9, 42, 40
8, 11840, Note_off_c, 9, 42, 64
8, 11840, Note_on_c, 9, 42, 40
8, 11904, Note_off_c, 9, 42, 64
8, 11904, Note_on_c, 9, 42, 40
8, 12287, Note_off_c, 9, 42, 64
8, 12672, Note_on_c, 9, 42, 40
8, 13055, Note_off_c, 9, 42, 64
8, 13440, Note_on_c, 9, 42, 40
8, 13823, Note_off_c, 9, 42, 64
8, 14208, Note_on_c, 9, 42, 40
8, 14591, Note_off_c, 9, 42, 64
8, 14976, Note_on_c, 9, 42, 40
8, 15359, Note_off_c, 9, 42, 64
8, 15744, Note_on_c, 9, 42, 40
8, 16127, Note_off_c, 9, 42, 64
8, 16512, Note_on_c, 9, 42, 40
8, 16895, Note_off_c, 9, 42, 64
8, 16896, Note_on_c, 9, 42, 40
8, 17279, Note_off_c, 9, 42, 64
8, 17280, Note_on_c, 9, 42, 40
8, 17663, Note_off_c, 9, 42, 64
8, 17664, Note_on_c, 9, 42, 40
8, 18047, Note_off_c, 9, 42, 64
8, 18048, Note_on_c, 9, 42, 40
8, 18431, Note_off_c, 9, 42, 64
8, 18432, Note_on_c, 9, 41, 120
8, 18432, Note_on_c, 9, 36, 120
8, 18624, Note_off_c, 9, 41, 64
8, 18624, Note_on_c, 9, 41, 120
8, 18815, Note_off_c, 9, 36, 64
8, 18816, Note_off_c, 9, 41, 64
8, 18816, Note_on_c, 9, 45, 120
8, 18816, Note_on_c, 9, 41, 120
8, 18816, Note_on_c, 9, 36, 120
8, 19008, Note_off_c, 9, 41, 64
8, 19008, Note_off_c, 9, 45, 64
8, 19008, Note_on_c, 9, 41, 120
8, 19199, Note_off_c, 9, 36, 64
8, 19200, Note_off_c, 9, 41, 64
8, 19200, Note_on_c, 9, 41, 120
8, 19200, Note_on_c, 9, 36, 120
8, 19392, Note_off_c, 9, 41, 64
8, 19392, Note_on_c, 9, 41, 120
8, 19583, Note_off_c, 9, 36, 64
8, 19584, Note_off_c, 9, 41, 64
8, 19584, Note_on_c, 9, 45, 120
8, 19584, Note_on_c, 9, 41, 120
8, 19584, Note_on_c, 9, 36, 120
8, 19776, Note_off_c, 9, 41, 64
8, 19776, Note_off_c, 9, 45, 64
8, 19776, Note_on_c, 9, 43, 120
8, 19776, Note_on_c, 9, 41, 120
8, 19967, Note_off_c, 9, 36, 64
8, 19968, Note_off_c, 9, 41, 64
8, 19968, Note_off_c, 9, 43, 64
8, 19968, Note_on_c, 9, 41, 120
8, 19968, Note_on_c, 9, 36, 120
8, 20160, Note_off_c, 9, 41, 64
8, 20160, Note_on_c, 9, 41, 120
8, 20351, Note_off_c, 9, 36, 64
8, 20352, Note_off_c, 9, 41, 64
8, 20352, Note_on_c, 9, 45, 120
8, 20352, Note_on_c, 9, 41, 120
8, 20352, Note_on_c, 9, 36, 120
8, 20544, Note_off_c, 9, 41, 64
8, 20544, Note_off_c, 9, 45, 64
8, 20544, Note_on_c, 9, 41, 120
8, 20735, Note_off_c, 9, 36, 64
8, 20736, Note_off_c, 9, 41, 64
8, 20736, Note_on_c, 9, 41, 120
8, 20736, Note_on_c, 9, 36, 120
8, 20928, Note_off_c, 9, 41, 64
8, 20928, Note_on_c, 9, 41, 120
8, 21119, Note_off_c, 9, 36, 64
8, 21120, Note_off_c, 9, 41, 64
8, 21120, Note_on_c, 9, 45, 120
8, 21120, Note_on_c, 9, 41, 120
8, 21120, Note_on_c, 9, 36, 120
8, 21312, Note_off_c, 9, 41, 64
8, 21312, Note_off_c, 9, 45, 64
8, 21312, Note_on_c, 9, 43, 120
8, 21312, Note_on_c, 9, 41, 120
8, 21503, Note_off_c, 9, 36, 64
8, 21504, Note_off_c, 9, 41, 64
8, 21504, Note_off_c, 9, 43, 64
8, 21504, Note_on_c, 9, 41, 120
8, 21504, Note_on_c, 9, 36, 120
8, 21696, Note_off_c, 9, 41, 64
8, 21696, Note_on_c, 9, 41, 120
8, 21887, Note_off_c, 9, 36, 64
8, 21888, Note_off_c, 9, 41, 64
8, 21888, Note_on_c, 9, 45, 120
8, 21888, Note_on_c, 9, 41, 120
8, 21888, Note_on_c, 9, 36, 120
8, 22080, Note_off_c, 9, 41, 64
8, 22080, Note_off_c, 9, 45, 64
8, 22080, Note_on_c, 9, 41, 120
8, 22271, Note_off_c, 9, 36, 64
8, 22272, Note_off_c, 9, 41, 64
8, 22272, Note_on_c, 9, 41, 120
8, 22272, Note_on_c, 9, 36, 120
8, 22464, Note_off_c, 9, 41, 64
8, 22464, Note_on_c, 9, 41, 120
8, 22655, Note_off_c, 9, 36, 64
8, 22656, Note_off_c, 9, 41, 64
8, 22656, Note_on_c, 9, 45, 120
8, 22656, Note_on_c, 9, 41, 120
8, 22656, Note_on_c, 9, 36, 120
8, 22848, Note_off_c, 9, 41, 64
8, 22848, Note_off_c, 9, 45, 64
8, 22848, Note_on_c, 9, 43, 120
8, 22848, Note_on_c, 9, 41, 120
8, 23039, Note_off_c, 9, 36, 64
8, 23040, Note_off_c, 9, 41, 64
8, 23040, Note_off_c, 9, 43, 64
8, 23040, Note_on_c, 9, 41, 120
8, 23040, Note_on_c, 9, 36, 120
8, 23232, Note_off_c, 9, 41, 64
8, 23232, Note_on_c, 9, 41, 120
8, 23423, Note_off_c, 9, 36, 64
8, 23424, Note_off_c, 9, 41, 64
8, 23424, Note_on_c, 9, 45, 120
8, 23424, Note_on_c, 9, 41, 120
8, 23424, Note_on_c, 9, 36, 120
8, 23616, Note_off_c, 9, 41, 64
8, 23616, Note_off_c, 9, 45, 64
8, 23616, Note_on_c, 9, 41, 120
8, 23807, Note_off_c, 9, 36, 64
8, 23808, Note_off_c, 9, 41, 64
8, 23808, Note_on_c, 9, 41, 120
8, 23808, Note_on_c, 9, 36, 120
8, 24000, Note_off_c, 9, 41, 64
8, 24000, Note_on_c, 9, 41, 120
8, 24191, Note_off_c, 9, 36, 64
8, 24192, Note_off_c, 9, 41, 64
8, 24192, Note_on_c, 9, 45, 120
8, 24192, Note_on_c, 9, 41, 120
8, 24192, Note_on_c, 9, 36, 120
8, 24384, Note_off_c, 9, 41, 64
8, 24384, Note_off_c, 9, 45, 64
8, 24384, Note_on_c, 9, 49, 60
8, 24384, Note_on_c, 9, 38, 120
8, 24575, Note_off_c, 9, 36, 64
8, 24576, Note_off_c, 9, 38, 64
8, 24576, Note_off_c, 9, 49, 64
8, 24576, Note_on_c, 9, 41, 120
8, 24576, Note_on_c, 9, 36, 120
8, 24768, Note_off_c, 9, 41, 64
8, 24768, Note_on_c, 9, 41, 120
8, 24959, Note_off_c, 9, 36, 64
8, 24960, Note_off_c, 9, 41, 64
8, 24960, Note_on_c, 9, 45, 120
8, 24960, Note_on_c, 9, 41, 120
8, 24960, Note_on_c, 9, 36, 120
8, 25152, Note_off_c, 9, 41, 64
8, 25152, Note_off_c, 9, 45, 64
8, 25152, Note_on_c, 9, 41, 120
8, 25343, Note_off_c, 9, 36, 64
8, 25344, Note_off_c, 9, 41, 64
8, 25344, Note_on_c, 9, 41, 120
8, 25344, Note_on_c, 9, 36, 120
8, 25536, Note_off_c, 9, 41, 64
8, 25536, Note_on_c, 9, 41, 120
8, 25727, Note_off_c, 9, 36, 64
8, 25728, Note_off_c, 9, 41, 64
8, 25728, Note_on_c, 9, 45, 120
8, 25728, Note_on_c, 9, 41, 120
8, 25728, Note_on_c, 9, 36, 120
8, 25920, Note_off_c, 9, 41, 64
8, 25920, Note_off_c, 9, 45, 64
8, 25920, Note_on_c, 9, 43, 120
8, 25920, Note_on_c, 9, 41, 120
8, 26111, Note_off_c, 9, 36, 64
8, 26112, Note_off_c, 9, 41, 64
8, 26112, Note_off_c, 9, 43, 64
8, 26112, Note_on_c, 9, 41, 120
8, 26112, Note_on_c, 9, 36, 120
8, 26304, Note_off_c, 9, 41, 64
8, 26304, Note_on_c, 9, 41, 120
8, 26495, Note_off_c, 9, 36, 64
8, 26496, Note_off_c, 9, 41, 64
8, 26496, Note_on_c, 9, 45, 120
8, 26496, Note_on_c, 9, 41, 120
8, 26496, Note_on_c, 9, 36, 120
8, 26688, Note_off_c, 9, 41, 64
8, 26688, Note_off_c, 9, 45, 64
8, 26688, Note_on_c, 9, 41, 120
8, 26879, Note_off_c, 9, 36, 64
8, 26880, Note_off_c, 9, 41, 64
8, 26880, Note_on_c, 9, 41, 120
8, 26880, Note_on_c, 9, 36, 120
8, 27072, Note_off_c, 9, 41, 64
8, 27072, Note_on_c, 9, 41, 120
8, 27263, Note_off_c, 9, 36, 64
8, 27264, Note_off_c, 9, 41, 64
8, 27264, Note_on_c, 9, 45, 120
8, 27264, Note_on_c, 9, 41, 120
8, 27264, Note_on_c, 9, 36, 120
8, 27456, Note_off_c, 9, 41, 64
8, 27456, Note_off_c, 9, 45, 64
8, 27456, Note_on_c, 9, 43, 120
8, 27456, Note_on_c, 9, 41, 120
8, 27647, Note_off_c, 9, 36, 64
8, 27648, Note_off_c, 9, 41, 64
8, 27648, Note_off_c, 9, 43, 64
8, 27648, Note_on_c, 9, 41, 120
8, 27648, Note_on_c, 9, 36, 120
8, 27840, Note_off_c, 9, 41, 64
8, 27840, Note_on_c, 9, 41, 120
8, 28031, Note_off_c, 9, 36, 64
8, 28032, Note_off_c, 9, 41, 64
8, 28032, Note_on_c, 9, 45, 120
8, 28032, Note_on_c, 9, 41, 120
8, 28032, Note_on_c, 9, 36, 120
8, 28224, Note_off_c, 9, 41, 64
8, 28224, Note_off_c, 9, 45, 64
8, 28224, Note_on_c, 9, 41, 120
8, 28415, Note_off_c, 9, 36, 64
8, 28416, Note_off_c, 9, 41, 64
8, 28416, Note_on_c, 9, 41, 120
8, 28416, Note_on_c, 9, 36, 120
8, 28608, Note_off_c, 9, 41, 64
8, 28608, Note_on_c, 9, 41, 120
8, 28799, Note_off_c, 9, 36, 64
8, 28800, Note_off_c, 9, 41, 64
8, 28800, Note_on_c, 9, 45, 120
8, 28800, Note_on_c, 9, 41, 120
8, 28800, Note_on_c, 9, 36, 120
8, 28992, Note_off_c, 9, 41, 64
8, 28992, Note_off_c, 9, 45, 64
8, 28992, Note_on_c, 9, 43, 120
8, 28992, Note_on_c, 9, 41, 120
8, 29183, Note_off_c, 9, 36, 64
8, 29184, Note_off_c, 9, 41, 64
8, 29184, Note_off_c, 9, 43, 64
8, 29184, Note_on_c, 9, 41, 120
8, 29184, Note_on_c, 9, 36, 120
8, 29376, Note_off_c, 9, 41, 64
8, 29376, Note_on_c, 9, 41, 120
8, 29567, Note_off_c, 9, 36, 64
8, 29568, Note_off_c, 9, 41, 64
8, 29568, Note_on_c, 9, 45, 120
8, 29568, Note_on_c, 9, 41, 120
8, 29568, Note_on_c, 9, 36, 120
8, 29760, Note_off_c, 9, 41, 64
8, 29760, Note_off_c, 9, 45, 64
8, 29760, Note_on_c, 9, 49, 60
8, 29760, Note_on_c, 9, 38, 120
8, 29951, Note_off_c, 9, 36, 64
8, 29952, Note_off_c, 9, 38, 64
8, 29952, Note_off_c, 9, 49, 64
8, 29952, Note_on_c, 9, 41, 120
8, 29952, Note_on_c, 9, 36, 120
8, 30144, Note_off_c, 9, 41, 64
8, 30144, Note_on_c, 9, 41, 120
8, 30335, Note_off_c, 9, 36, 64
8, 30336, Note_off_c, 9, 41, 64
8, 30336, Note_on_c, 9, 45, 120
8, 30336, Note_on_c, 9, 41, 120
8, 30336, Note_on_c, 9, 36, 120
8, 30528, Note_off_c, 9, 41, 64
8, 30528, Note_off_c, 9, 45, 64
8, 30528, Note_on_c, 9, 49, 60
8, 30528, Note_on_c, 9, 38, 120
8, 30719, Note_off_c, 9, 36, 64
8, 30720, Note_off_c, 9, 38, 64
8, 30720, Note_off_c, 9, 49, 64
8, 30720, Note_on_c, 9, 41, 120
8, 30720, Note_on_c, 9, 36, 120
8, 30912, Note_off_c, 9, 41, 64
8, 30912, Note_on_c, 9, 41, 120
8, 31103, Note_off_c, 9, 36, 64
8, 31104, Note_off_c, 9, 41, 64
8, 31104, Note_on_c, 9, 45, 120
8, 31104, Note_on_c, 9, 41, 120
8, 31104, Note_on_c, 9, 36, 120
8, 31296, Note_off_c, 9, 41, 64
8, 31296, Note_off_c, 9, 45, 64
8, 31296, Note_on_c, 9, 41, 120
8, 31487, Note_off_c, 9, 36, 64
8, 31488, Note_off_c, 9, 41, 64
8, 31488, Note_on_c, 9, 41, 120
8, 31488, Note_on_c, 9, 36, 120
8, 31680, Note_off_c, 9, 41, 64
8, 31680, Note_on_c, 9, 41, 120
8, 31871, Note_off_c, 9, 36, 64
8, 31872, Note_off_c, 9, 41, 64
8, 31872, Note_on_c, 9, 45, 120
8, 31872, Note_on_c, 9, 41, 120
8, 31872, Note_on_c, 9, 36, 120
8, 32064, Note_off_c, 9, 41, 64
8, 32064, Note_off_c, 9, 45, 64
8, 32064, Note_on_c, 9, 43, 120
8, 32064, Note_on_c, 9, 41, 120
8, 32255, Note_off_c, 9, 36, 64
8, 32256, Note_off_c, 9, 41, 64
8, 32256, Note_off_c, 9, 43, 64
8, 32256, Note_on_c, 9, 41, 120
8, 32256, Note_on_c, 9, 36, 120
8, 32448, Note_off_c, 9, 41, 64
8, 32448, Note_on_c, 9, 41, 120
8, 32639, Note_off_c, 9, 36, 64
8, 32640, Note_off_c, 9, 41, 64
8, 32640, Note_on_c, 9, 45, 120
8, 32640, Note_on_c, 9, 41, 120
8, 32640, Note_on_c, 9, 36, 120
8, 32832, Note_off_c, 9, 41, 64
8, 32832, Note_off_c, 9, 45, 64
8, 32832, Note_on_c, 9, 41, 120
8, 33023, Note_off_c, 9, 36, 64
8, 33024, Note_off_c, 9, 41, 64
8, 33024, Note_on_c, 9, 41, 120
8, 33024, Note_on_c, 9, 36, 120
8, 33216, Note_off_c, 9, 41, 64
8, 33216, Note_on_c, 9, 41, 120
8, 33407, Note_off_c, 9, 36, 64
8, 33408, Note_off_c, 9, 41, 64
8, 33408, Note_on_c, 9, 45, 120
8, 33408, Note_on_c, 9, 41, 120
8, 33408, Note_on_c, 9, 36, 120
8, 33600, Note_off_c, 9, 41, 64
8, 33600, Note_off_c, 9, 45, 64
8, 33600, Note_on_c, 9, 43, 120
8, 33600, Note_on_c, 9, 41, 120
8, 33791, Note_off_c, 9, 36, 64
8, 33792, Note_off_c, 9, 41, 64
8, 33792, Note_off_c, 9, 43, 64
8, 33792, Note_on_c, 9, 41, 120
8, 33792, Note_on_c, 9, 36, 120
8, 33984, Note_off_c, 9, 41, 64
8, 33984, Note_on_c, 9, 41, 120
8, 34175, Note_off_c, 9, 36, 64
8, 34176, Note_off_c, 9, 41, 64
8, 34176, Note_on_c, 9, 45, 120
8, 34176, Note_on_c, 9, 41, 120
8, 34176, Note_on_c, 9, 36, 120
8, 34368, Note_off_c, 9, 41, 64
8, 34368, Note_off_c, 9, 45, 64
8, 34368, Note_on_c, 9, 41, 120
8, 34559, Note_off_c, 9, 36, 64
8, 34560, Note_off_c, 9, 41, 64
8, 34560, Note_on_c, 9, 41, 120
8, 34560, Note_on_c, 9, 36, 120
8, 34752, Note_off_c, 9, 41, 64
8, 34752, Note_on_c, 9, 41, 120
8, 34943, Note_off_c, 9, 36, 64
8, 34944, Note_off_c, 9, 41, 64
8, 34944, Note_on_c, 9, 45, 120
8, 34944, Note_on_c, 9, 41, 120
8, 34944, Note_on_c, 9, 36, 120
8, 35136, Note_off_c, 9, 41, 64
8, 35136, Note_off_c, 9, 45, 64
8, 35136, Note_on_c, 9, 43, 120
8, 35136, Note_on_c, 9, 41, 120
8, 35327, Note_off_c, 9, 36, 64
8, 35328, Note_off_c, 9, 41, 64
8, 35328, Note_off_c, 9, 43, 64
8, 35328, Note_on_c, 9, 41, 120
8, 35328, Note_on_c, 9, 36, 120
8, 35520, Note_off_c, 9, 41, 64
8, 35520, Note_on_c, 9, 41, 120
8, 35711, Note_off_c, 9, 36, 64
8, 35712, Note_off_c, 9, 41, 64
8, 35712, Note_on_c, 9, 45, 120
8, 35712, Note_on_c, 9, 41, 120
8, 35712, Note_on_c, 9, 36, 120
8, 35904, Note_off_c, 9, 41, 64
8, 35904, Note_off_c, 9, 45, 64
8, 35904, Note_on_c, 9, 49, 60
8, 35904, Note_on_c, 9, 38, 120
8, 36095, Note_off_c, 9, 38, 64
8, 36095, Note_off_c, 9, 49, 64
8, 36095, Note_off_c, 9, 36, 64
8, 36096, Note_on_c, 9, 36, 120
8, 36288, Note_on_c, 9, 49, 60
8, 36288, Note_on_c, 9, 38, 120
8, 36479, Note_off_c, 9, 38, 64
8, 36479, Note_off_c, 9, 49, 64
8, 36479, Note_off_c, 9, 36, 64
8, 36480, Note_on_c, 9, 36, 120
8, 36672, Note_on_c, 9, 49, 60
8, 36672, Note_on_c, 9, 38, 120
8, 36863, Note_off_c, 9, 36, 64
8, 36864, Note_off_c, 9, 38, 64
8, 36864, Note_off_c, 9, 49, 64
8, 36864, Note_on_c, 9, 41, 120
8, 36864, Note_on_c, 9, 36, 120
8, 37056, Note_off_c, 9, 41, 64
8, 37056, Note_on_c, 9, 41, 120
8, 37247, Note_off_c, 9, 36, 64
8, 37248, Note_off_c, 9, 41, 64
8, 37248, Note_on_c, 9, 45, 120
8, 37248, Note_on_c, 9, 41, 120
8, 37248, Note_on_c, 9, 36, 120
8, 37440, Note_off_c, 9, 41, 64
8, 37440, Note_off_c, 9, 45, 64
8, 37440, Note_on_c, 9, 41, 120
8, 37631, Note_off_c, 9, 36, 64
8, 37632, Note_off_c, 9, 41, 64
8, 37632, Note_on_c, 9, 41, 120
8, 37632, Note_on_c, 9, 36, 120
8, 37824, Note_off_c, 9, 41, 64
8, 37824, Note_on_c, 9, 41, 120
8, 38015, Note_off_c, 9, 36, 64
8, 38016, Note_off_c, 9, 41, 64
8, 38016, Note_on_c, 9, 45, 120
8, 38016, Note_on_c, 9, 41, 120
8, 38016, Note_on_c, 9, 36, 120
8, 38208, Note_off_c, 9, 41, 64
8, 38208, Note_off_c, 9, 45, 64
8, 38208, Note_on_c, 9, 38, 120
8, 38208, Note_on_c, 9, 41, 120
8, 38399, Note_off_c, 9, 36, 64
8, 38400, Note_off_c, 9, 41, 64
8, 38400, Note_off_c, 9, 38, 64
8, 38400, Note_on_c, 9, 41, 120
8, 38400, Note_on_c, 9, 36, 120
8, 38592, Note_off_c, 9, 41, 64
8, 38592, Note_on_c, 9, 41, 120
8, 38783, Note_off_c, 9, 36, 64
8, 38784, Note_off_c, 9, 41, 64
8, 38784, Note_on_c, 9, 45, 120
8, 38784, Note_on_c, 9, 41, 120
8, 38784, Note_on_c, 9, 36, 120
8, 38976, Note_off_c, 9, 41, 64
8, 38976, Note_off_c, 9, 45, 64
8, 38976, Note_on_c, 9, 41, 120
8, 39167, Note_off_c, 9, 36, 64
8, 39168, Note_off_c, 9, 41, 64
8, 39168, Note_on_c, 9, 41, 120
8, 39168, Note_on_c, 9, 36, 120
8, 39360, Note_off_c, 9, 41, 64
8, 39360, Note_on_c, 9, 41, 120
8, 39551, Note_off_c, 9, 36, 64
8, 39552, Note_off_c, 9, 41, 64
8, 39552, Note_on_c, 9, 45, 120
8, 39552, Note_on_c, 9, 41, 120
8, 39552, Note_on_c, 9, 36, 120
8, 39744, Note_off_c, 9, 41, 64
8, 39744, Note_off_c, 9, 45, 64
8, 39744, Note_on_c, 9, 38, 120
8, 39744, Note_on_c, 9, 41, 120
8, 39935, Note_off_c, 9, 36, 64
8, 39936, Note_off_c, 9, 41, 64
8, 39936, Note_off_c, 9, 38, 64
8, 39936, Note_on_c, 9, 41, 120
8, 39936, Note_on_c, 9, 36, 120
8, 40128, Note_off_c, 9, 41, 64
8, 40128, Note_on_c, 9, 41, 120
8, 40319, Note_off_c, 9, 36, 64
8, 40320, Note_off_c, 9, 41, 64
8, 40320, Note_on_c, 9, 45, 120
8, 40320, Note_on_c, 9, 41, 120
8, 40320, Note_on_c, 9, 36, 120
8, 40512, Note_off_c, 9, 41, 64
8, 40512, Note_off_c, 9, 45, 64
8, 40512, Note_on_c, 9, 41, 120
8, 40703, Note_off_c, 9, 36, 64
8, 40704, Note_off_c, 9, 41, 64
8, 40704, Note_on_c, 9, 41, 120
8, 40704, Note_on_c, 9, 36, 120
8, 40896, Note_off_c, 9, 41, 64
8, 40896, Note_on_c, 9, 41, 120
8, 41087, Note_off_c, 9, 36, 64
8, 41088, Note_off_c, 9, 41, 64
8, 41088, Note_on_c, 9, 45, 120
8, 41088, Note_on_c, 9, 41, 120
8, 41088, Note_on_c, 9, 36, 120
8, 41280, Note_off_c, 9, 41, 64
8, 41280, Note_off_c, 9, 45, 64
8, 41280, Note_on_c, 9, 38, 120
8, 41280, Note_on_c, 9, 41, 120
8, 41471, Note_off_c, 9, 36, 64
8, 41472, Note_off_c, 9, 41, 64
8, 41472, Note_off_c, 9, 38, 64
8, 41472, Note_on_c, 9, 41, 120
8, 41472, Note_on_c, 9, 36, 120
8, 41664, Note_off_c, 9, 41, 64
8, 41664, Note_on_c, 9, 41, 120
8, 41855, Note_off_c, 9, 36, 64
8, 41856, Note_off_c, 9, 41, 64
8, 41856, Note_on_c, 9, 45, 120
8, 41856, Note_on_c, 9, 41, 120
8, 41856, Note_on_c, 9, 36, 120
8, 42048, Note_off_c, 9, 41, 64
8, 42048, Note_off_c, 9, 45, 64
8, 42048, Note_on_c, 9, 41, 120
8, 42239, Note_off_c, 9, 36, 64
8, 42240, Note_off_c, 9, 41, 64
8, 42240, Note_on_c, 9, 41, 120
8, 42240, Note_on_c, 9, 36, 120
8, 42432, Note_off_c, 9, 41, 64
8, 42432, Note_on_c, 9, 41, 120
8, 42623, Note_off_c, 9, 36, 64
8, 42624, Note_off_c, 9, 41, 64
8, 42624, Note_on_c, 9, 41, 120
8, 42624, Note_on_c, 9, 36, 120
8, 42816, Note_off_c, 9, 41, 64
8, 42816, Note_on_c, 9, 49, 60
8, 42816, Note_on_c, 9, 38, 120
8, 43007, Note_off_c, 9, 36, 64
8, 43008, Note_off_c, 9, 38, 64
8, 43008, Note_off_c, 9, 49, 64
8, 43008, Note_on_c, 9, 41, 120
8, 43008, Note_on_c, 9, 36, 120
8, 43200, Note_off_c, 9, 41, 64
8, 43200, Note_on_c, 9, 41, 120
8, 43391, Note_off_c, 9, 36, 64
8, 43392, Note_off_c, 9, 41, 64
8, 43392, Note_on_c, 9, 45, 120
8, 43392, Note_on_c, 9, 41, 120
8, 43392, Note_on_c, 9, 36, 120
8, 43584, Note_off_c, 9, 41, 64
8, 43584, Note_off_c, 9, 45, 64
8, 43584, Note_on_c, 9, 41, 120
8, 43775, Note_off_c, 9, 36, 64
8, 43776, Note_off_c, 9, 41, 64
8, 43776, Note_on_c, 9, 41, 120
8, 43776, Note_on_c, 9, 36, 120
8, 43968, Note_off_c, 9, 41, 64
8, 43968, Note_on_c, 9, 41, 120
8, 44159, Note_off_c, 9, 36, 64
8, 44160, Note_off_c, 9, 41, 64
8, 44160, Note_on_c, 9, 45, 120
8, 44160, Note_on_c, 9, 41, 120
8, 44160, Note_on_c, 9, 36, 120
8, 44352, Note_off_c, 9, 41, 64
8, 44352, Note_off_c, 9, 45, 64
8, 44352, Note_on_c, 9, 38, 120
8, 44352, Note_on_c, 9, 41, 120
8, 44543, Note_off_c, 9, 36, 64
8, 44544, Note_off_c, 9, 41, 64
8, 44544, Note_off_c, 9, 38, 64
8, 44544, Note_on_c, 9, 41, 120
8, 44544, Note_on_c, 9, 36, 120
8, 44736, Note_off_c, 9, 41, 64
8, 44736, Note_on_c, 9, 41, 120
8, 44927, Note_off_c, 9, 36, 64
8, 44928, Note_off_c, 9, 41, 64
8, 44928, Note_on_c, 9, 45, 120
8, 44928, Note_on_c, 9, 41, 120
8, 44928, Note_on_c, 9, 36, 120
8, 45120, Note_off_c, 9, 41, 64
8, 45120, Note_off_c, 9, 45, 64
8, 45120, Note_on_c, 9, 41, 120
8, 45311, Note_off_c, 9, 36, 64
8, 45312, Note_off_c, 9, 41, 64
8, 45312, Note_on_c, 9, 41, 120
8, 45312, Note_on_c, 9, 36, 120
8, 45504, Note_off_c, 9, 41, 64
8, 45504, Note_on_c, 9, 41, 120
8, 45695, Note_off_c, 9, 36, 64
8, 45696, Note_off_c, 9, 41, 64
8, 45696, Note_on_c, 9, 45, 120
8, 45696, Note_on_c, 9, 41, 120
8, 45696, Note_on_c, 9, 36, 120
8, 45888, Note_off_c, 9, 41, 64
8, 45888, Note_off_c, 9, 45, 64
8, 45888, Note_on_c, 9, 38, 120
8, 45888, Note_on_c, 9, 41, 120
8, 46079, Note_off_c, 9, 36, 64
8, 46080, Note_off_c, 9, 41, 64
8, 46080, Note_off_c, 9, 38, 64
8, 46080, Note_on_c, 9, 38, 120
8, 46080, Note_on_c, 9, 43, 120
8, 46080, Note_on_c, 9, 36, 120
8, 46272, Note_off_c, 9, 43, 64
8, 46272, Note_off_c, 9, 38, 64
8, 46272, Note_on_c, 9, 38, 120
8, 46272, Note_on_c, 9, 43, 120
8, 46463, Note_off_c, 9, 36, 64
8, 46464, Note_off_c, 9, 43, 64
8, 46464, Note_off_c, 9, 38, 64
8, 46464, Note_on_c, 9, 43, 120
8, 46464, Note_on_c, 9, 38, 120
8, 46464, Note_on_c, 9, 36, 120
8, 46656, Note_off_c, 9, 38, 64
8, 46656, Note_off_c, 9, 43, 64
8, 46656, Note_on_c, 9, 38, 120
8, 46656, Note_on_c, 9, 43, 120
8, 46847, Note_off_c, 9, 36, 64
8, 46848, Note_off_c, 9, 43, 64
8, 46848, Note_off_c, 9, 38, 64
8, 46848, Note_on_c, 9, 38, 120
8, 46848, Note_on_c, 9, 43, 120
8, 46848, Note_on_c, 9, 36, 120
8, 47040, Note_off_c, 9, 43, 64
8, 47040, Note_off_c, 9, 38, 64
8, 47040, Note_on_c, 9, 38, 120
8, 47040, Note_on_c, 9, 43, 120
8, 47231, Note_off_c, 9, 36, 64
8, 47232, Note_off_c, 9, 43, 64
8, 47232, Note_off_c, 9, 38, 64
8, 47232, Note_on_c, 9, 43, 120
8, 47232, Note_on_c, 9, 38, 120
8, 47232, Note_on_c, 9, 36, 120
8, 47424, Note_off_c, 9, 38, 64
8, 47424, Note_off_c, 9, 43, 64
8, 47424, Note_on_c, 9, 43, 120
8, 47424, Note_on_c, 9, 38, 120
8, 47615, Note_off_c, 9, 36, 64
8, 47616, Note_off_c, 9, 38, 64
8, 47616, Note_off_c, 9, 43, 64
8, 47616, Note_on_c, 9, 38, 120
8, 47616, Note_on_c, 9, 43, 120
8, 47616, Note_on_c, 9, 36, 120
8, 47808, Note_off_c, 9, 43, 64
8, 47808, Note_off_c, 9, 38, 64
8, 47808, Note_on_c, 9, 38, 120
8, 47808, Note_on_c, 9, 43, 120
8, 47999, Note_off_c, 9, 36, 64
8, 48000, Note_off_c, 9, 43, 64
8, 48000, Note_off_c, 9, 38, 64
8, 48000, Note_on_c, 9, 43, 120
8, 48000, Note_on_c, 9, 38, 120
8, 48000, Note_on_c, 9, 36, 120
8, 48192, Note_off_c, 9, 38, 64
8, 48192, Note_off_c, 9, 43, 64
8, 48192, Note_on_c, 9, 38, 120
8, 48192, Note_on_c, 9, 43, 120
8, 48383, Note_off_c, 9, 36, 64
8, 48384, Note_off_c, 9, 43, 64
8, 48384, Note_off_c, 9, 38, 64
8, 48384, Note_on_c, 9, 38, 120
8, 48384, Note_on_c, 9, 43, 120
8, 48384, Note_on_c, 9, 36, 120
8, 48576, Note_off_c, 9, 43, 64
8, 48576, Note_off_c, 9, 38, 64
8, 48576, Note_on_c, 9, 38, 120
8, 48576, Note_on_c, 9, 43, 120
8, 48767, Note_off_c, 9, 36, 64
8, 48768, Note_off_c, 9, 43, 64
8, 48768, Note_off_c, 9, 38, 64
8, 48768, Note_on_c, 9, 43, 120
8, 48768, Note_on_c, 9, 38, 120
8, 48960, Note_off_c, 9, 38, 64
8, 48960, Note_off_c, 9, 43, 64
8, 48960, Note_on_c, 9, 49, 60
8, 48960, Note_on_c, 9, 36, 120
8, 49152, Note_off_c, 9, 36, 64
8, 49152, Note_off_c, 9, 49, 64
8, 49152, Note_on_c, 9, 42, 40
8, 49344, Note_off_c, 9, 42, 64
8, 49344, Note_on_c, 9, 42, 40
8, 49536, Note_off_c, 9, 42, 64
8, 49536, Note_on_c, 9, 42, 40
8, 49536, Note_on_c, 9, 38, 120
8, 49728, Note_off_c, 9, 38, 64
8, 49728, Note_off_c, 9, 42, 64
8, 49728, Note_on_c, 9, 42, 40
8, 49920, Note_off_c, 9, 42, 64
8, 49920, Note_on_c, 9, 36, 120
8, 49920, Note_on_c, 9, 42, 40
8, 50112, Note_off_c, 9, 42, 64
8, 50112, Note_on_c, 9, 42, 40
8, 50303, Note_off_c, 9, 36, 64
8, 50304, Note_off_c, 9, 42, 64
8, 50304, Note_on_c, 9, 42, 40
8, 50304, Note_on_c, 9, 38, 120
8, 50496, Note_off_c, 9, 38, 64
8, 50496, Note_off_c, 9, 42, 64
8, 50496, Note_on_c, 9, 42, 40
8, 50688, Note_off_c, 9, 42, 64
8, 50688, Note_on_c, 9, 36, 120
8, 50688, Note_on_c, 9, 42, 40
8, 50880, Note_off_c, 9, 42, 64
8, 50880, Note_on_c, 9, 42, 40
8, 51071, Note_off_c, 9, 36, 64
8, 51072, Note_off_c, 9, 42, 64
8, 51072, Note_on_c, 9, 42, 40
8, 51072, Note_on_c, 9, 38, 120
8, 51264, Note_off_c, 9, 38, 64
8, 51264, Note_off_c, 9, 42, 64
8, 51264, Note_on_c, 9, 42, 40
8, 51456, Note_off_c, 9, 42, 64
8, 51456, Note_on_c, 9, 36, 120
8, 51456, Note_on_c, 9, 42, 40
8, 51648, Note_off_c, 9, 42, 64
8, 51648, Note_on_c, 9, 42, 40
8, 51839, Note_off_c, 9, 36, 64
8, 51840, Note_off_c, 9, 42, 64
8, 51840, Note_on_c, 9, 42, 40
8, 51840, Note_on_c, 9, 38, 120
8, 52032, Note_off_c, 9, 38, 64
8, 52032, Note_off_c, 9, 42, 64
8, 52032, Note_on_c, 9, 42, 40
8, 52224, Note_off_c, 9, 42, 64
8, 52224, Note_on_c, 9, 36, 120
8, 52224, Note_on_c, 9, 42, 40
8, 52416, Note_off_c, 9, 42, 64
8, 52416, Note_on_c, 9, 42, 40
8, 52607, Note_off_c, 9, 36, 64
8, 52608, Note_off_c, 9, 42, 64
8, 52608, Note_on_c, 9, 42, 40
8, 52608, Note_on_c, 9, 38, 120
8, 52800, Note_off_c, 9, 38, 64
8, 52800, Note_off_c, 9, 42, 64
8, 52800, Note_on_c, 9, 42, 40
8, 52992, Note_off_c, 9, 42, 64
8, 52992, Note_on_c, 9, 36, 120
8, 52992, Note_on_c, 9, 42, 40
8, 53184, Note_off_c, 9, 42, 64
8, 53184, Note_on_c, 9, 42, 40
8, 53375, Note_off_c, 9, 36, 64
8, 53376, Note_off_c, 9, 42, 64
8, 53376, Note_on_c, 9, 42, 40
8, 53376, Note_on_c, 9, 38, 120
8, 53568, Note_off_c, 9, 38, 64
8, 53568, Note_off_c, 9, 42, 64
8, 53568, Note_on_c, 9, 42, 40
8, 53760, Note_off_c, 9, 42, 64
8, 53760, Note_on_c, 9, 36, 120
8, 53760, Note_on_c, 9, 42, 40
8, 53952, Note_off_c, 9, 42, 64
8, 53952, Note_on_c, 9, 42, 40
8, 54143, Note_off_c, 9, 36, 64
8, 54144, Note_off_c, 9, 42, 64
8, 54144, Note_on_c, 9, 42, 40
8, 54144, Note_on_c, 9, 38, 120
8, 54336, Note_off_c, 9, 38, 64
8, 54336, Note_off_c, 9, 42, 64
8, 54336, Note_on_c, 9, 42, 40
8, 54528, Note_off_c, 9, 42, 64
8, 54528, Note_on_c, 9, 36, 120
8, 54528, Note_on_c, 9, 42, 40
8, 54720, Note_off_c, 9, 42, 64
8, 54720, Note_on_c, 9, 42, 40
8, 54911, Note_off_c, 9, 36, 64
8, 54912, Note_off_c, 9, 42, 64
8, 54912, Note_on_c, 9, 42, 40
8, 54912, Note_on_c, 9, 38, 120
8, 55104, Note_off_c, 9, 38, 64
8, 55104, Note_off_c, 9, 42, 64
8, 55104, Note_on_c, 9, 49, 60
8, 55104, Note_on_c, 9, 36, 120
8, 55295, Note_off_c, 9, 36, 64
8, 55296, Note_off_c, 9, 49, 64
8, 55296, Note_on_c, 9, 42, 40
8, 55488, Note_off_c, 9, 42, 64
8, 55488, Note_on_c, 9, 42, 40
8, 55680, Note_off_c, 9, 42, 64
8, 55680, Note_on_c, 9, 42, 40
8, 55680, Note_on_c, 9, 38, 120
8, 55872, Note_off_c, 9, 38, 64
8, 55872, Note_off_c, 9, 42, 64
8, 55872, Note_on_c, 9, 42, 40
8, 56064, Note_off_c, 9, 42, 64
8, 56064, Note_on_c, 9, 36, 120
8, 56064, Note_on_c, 9, 42, 40
8, 56256, Note_off_c, 9, 42, 64
8, 56256, Note_on_c, 9, 42, 40
8, 56447, Note_off_c, 9, 36, 64
8, 56448, Note_off_c, 9, 42, 64
8, 56448, Note_on_c, 9, 42, 40
8, 56448, Note_on_c, 9, 38, 120
8, 56640, Note_off_c, 9, 38, 64
8, 56640, Note_off_c, 9, 42, 64
8, 56640, Note_on_c, 9, 42, 40
8, 56832, Note_off_c, 9, 42, 64
8, 56832, Note_on_c, 9, 36, 120
8, 56832, Note_on_c, 9, 42, 40
8, 57024, Note_off_c, 9, 42, 64
8, 57024, Note_on_c, 9, 42, 40
8, 57215, Note_off_c, 9, 36, 64
8, 57216, Note_off_c, 9, 42, 64
8, 57216, Note_on_c, 9, 42, 40
8, 57216, Note_on_c, 9, 38, 120
8, 57408, Note_off_c, 9, 38, 64
8, 57408, Note_off_c, 9, 42, 64
8, 57408, Note_on_c, 9, 42, 40
8, 57600, Note_off_c, 9, 42, 64
8, 57600, Note_on_c, 9, 36, 120
8, 57600, Note_on_c, 9, 42, 40
8, 57792, Note_off_c, 9, 42, 64
8, 57792, Note_on_c, 9, 42, 40
8, 57983, Note_off_c, 9, 36, 64
8, 57984, Note_off_c, 9, 42, 64
8, 57984, Note_on_c, 9, 42, 40
8, 57984, Note_on_c, 9, 38, 120
8, 58176, Note_off_c, 9, 38, 64
8, 58176, Note_off_c, 9, 42, 64
8, 58176, Note_on_c, 9, 42, 40
8, 58368, Note_off_c, 9, 42, 64
8, 58368, Note_on_c, 9, 36, 120
8, 58368, Note_on_c, 9, 42, 40
8, 58560, Note_off_c, 9, 42, 64
8, 58560, Note_on_c, 9, 42, 40
8, 58751, Note_off_c, 9, 36, 64
8, 58752, Note_off_c, 9, 42, 64
8, 58752, Note_on_c, 9, 42, 40
8, 58752, Note_on_c, 9, 38, 120
8, 58944, Note_off_c, 9, 38, 64
8, 58944, Note_off_c, 9, 42, 64
8, 58944, Note_on_c, 9, 42, 40
8, 59136, Note_off_c, 9, 42, 64
8, 59136, Note_on_c, 9, 36, 120
8, 59136, Note_on_c, 9, 42, 40
8, 59328, Note_off_c, 9, 42, 64
8, 59328, Note_on_c, 9, 42, 40
8, 59519, Note_off_c, 9, 36, 64
8, 59520, Note_off_c, 9, 42, 64
8, 59520, Note_on_c, 9, 42, 40
8, 59520, Note_on_c, 9, 38, 120
8, 59712, Note_off_c, 9, 38, 64
8, 59712, Note_off_c, 9, 42, 64
8, 59712, Note_on_c, 9, 42, 40
8, 59904, Note_off_c, 9, 42, 64
8, 59904, Note_on_c, 9, 36, 120
8, 59904, Note_on_c, 9, 42, 40
8, 60096, Note_off_c, 9, 42, 64
8, 60096, Note_on_c, 9, 42, 40
8, 60287, Note_off_c, 9, 36, 64
8, 60288, Note_off_c, 9, 42, 64
8, 60288, Note_on_c, 9, 42, 40
8, 60288, Note_on_c, 9, 38, 120
8, 60480, Note_off_c, 9, 38, 64
8, 60480, Note_off_c, 9, 42, 64
8, 60480, Note_on_c, 9, 42, 40
8, 60672, Note_off_c, 9, 42, 64
8, 60672, Note_on_c, 9, 36, 120
8, 60672, Note_on_c, 9, 42, 40
8, 60864, Note_off_c, 9, 42, 64
8, 60864, Note_on_c, 9, 42, 40
8, 61055, Note_off_c, 9, 36, 64
8, 61056, Note_off_c, 9, 42, 64
8, 61056, Note_on_c, 9, 42, 40
8, 61056, Note_on_c, 9, 38, 120
8, 61248, Note_off_c, 9, 38, 64
8, 61248, Note_off_c, 9, 42, 64
8, 61248, Note_on_c, 9, 49, 60
8, 61248, Note_on_c, 9, 36, 120
8, 61439, Note_off_c, 9, 36, 64
8, 61440, Note_off_c, 9, 49, 64
8, 61440, Note_on_c, 9, 42, 40
8, 61632, Note_off_c, 9, 42, 64
8, 61632, Note_on_c, 9, 42, 40
8, 61824, Note_off_c, 9, 42, 64
8, 61824, Note_on_c, 9, 42, 40
8, 61824, Note_on_c, 9, 38, 120
8, 62016, Note_off_c, 9, 38, 64
8, 62016, Note_off_c, 9, 42, 64
8, 62016, Note_on_c, 9, 42, 40
8, 62208, Note_off_c, 9, 42, 64
8, 62208, Note_on_c, 9, 36, 120
8, 62208, Note_on_c, 9, 42, 40
8, 62400, Note_off_c, 9, 42, 64
8, 62400, Note_on_c, 9, 42, 40
8, 62591, Note_off_c, 9, 36, 64
8, 62592, Note_off_c, 9, 42, 64
8, 62592, Note_on_c, 9, 42, 40
8, 62592, Note_on_c, 9, 38, 120
8, 62784, Note_off_c, 9, 38, 64
8, 62784, Note_off_c, 9, 42, 64
8, 62784, Note_on_c, 9, 42, 40
8, 62976, Note_off_c, 9, 42, 64
8, 62976, Note_on_c, 9, 36, 120
8, 62976, Note_on_c, 9, 42, 40
8, 63168, Note_off_c, 9, 42, 64
8, 63168, Note_on_c, 9, 42, 40
8, 63359, Note_off_c, 9, 36, 64
8, 63360, Note_off_c, 9, 42, 64
8, 63360, Note_on_c, 9, 42, 40
8, 63360, Note_on_c, 9, 38, 120
8, 63552, Note_off_c, 9, 38, 64
8, 63552, Note_off_c, 9, 42, 64
8, 63552, Note_on_c, 9, 42, 40
8, 63744, Note_off_c, 9, 42, 64
8, 63744, Note_on_c, 9, 36, 120
8, 63744, Note_on_c, 9, 42, 40
8, 63936, Note_off_c, 9, 42, 64
8, 63936, Note_on_c, 9, 42, 40
8, 64127, Note_off_c, 9, 36, 64
8, 64128, Note_off_c, 9, 42, 64
8, 64128, Note_on_c, 9, 42, 40
8, 64128, Note_on_c, 9, 38, 120
8, 64320, Note_off_c, 9, 38, 64
8, 64320, Note_off_c, 9, 42, 64
8, 64320, Note_on_c, 9, 42, 40
8, 64512, Note_off_c, 9, 42, 64
8, 64512, Note_on_c, 9, 36, 120
8, 64512, Note_on_c, 9, 42, 40
8, 64704, Note_off_c, 9, 42, 64
8, 64704, Note_on_c, 9, 42, 40
8, 64895, Note_off_c, 9, 36, 64
8, 64896, Note_off_c, 9, 42, 64
8, 64896, Note_on_c, 9, 42, 40
8, 64896, Note_on_c, 9, 38, 120
8, 65088, Note_off_c, 9, 38, 64
8, 65088, Note_off_c, 9, 42, 64
8, 65088, Note_on_c, 9, 42, 40
8, 65280, Note_off_c, 9, 42, 64
8, 65280, Note_on_c, 9, 36, 120
8, 65280, Note_on_c, 9, 42, 40
8, 65472, Note_off_c, 9, 42, 64
8, 65472, Note_on_c, 9, 42, 40
8, 65663, Note_off_c, 9, 36, 64
8, 65664, Note_off_c, 9, 42, 64
8, 65664, Note_on_c, 9, 42, 40
8, 65664, Note_on_c, 9, 38, 120
8, 65856, Note_off_c, 9, 38, 64
8, 65856, Note_off_c, 9, 42, 64
8, 65856, Note_on_c, 9, 42, 40
8, 66048, Note_off_c, 9, 42, 64
8, 66048, Note_on_c, 9, 36, 120
8, 66048, Note_on_c, 9, 42, 40
8, 66240, Note_off_c, 9, 42, 64
8, 66240, Note_on_c, 9, 42, 40
8, 66431, Note_off_c, 9, 36, 64
8, 66432, Note_off_c, 9, 42, 64
8, 66432, Note_on_c, 9, 42, 40
8, 66432, Note_on_c, 9, 38, 120
8, 66624, Note_off_c, 9, 38, 64
8, 66624, Note_off_c, 9, 42, 64
8, 66624, Note_on_c, 9, 42, 40
8, 66816, Note_off_c, 9, 42, 64
8, 66816, Note_on_c, 9, 36, 120
8, 66816, Note_on_c, 9, 42, 40
8, 67008, Note_off_c, 9, 42, 64
8, 67008, Note_on_c, 9, 42, 40
8, 67199, Note_off_c, 9, 36, 64
8, 67200, Note_off_c, 9, 42, 64
8, 67200, Note_on_c, 9, 42, 40
8, 67200, Note_on_c, 9, 38, 120
8, 67392, Note_off_c, 9, 38, 64
8, 67392, Note_off_c, 9, 42, 64
8, 67392, Note_on_c, 9, 49, 60
8, 67392, Note_on_c, 9, 36, 120
8, 67583, Note_off_c, 9, 36, 64
8, 67584, Note_off_c, 9, 49, 64
8, 67584, Note_on_c, 9, 42, 40
8, 67776, Note_off_c, 9, 42, 64
8, 67776, Note_on_c, 9, 42, 40
8, 67968, Note_off_c, 9, 42, 64
8, 67968, Note_on_c, 9, 42, 40
8, 67968, Note_on_c, 9, 38, 120
8, 68160, Note_off_c, 9, 38, 64
8, 68160, Note_off_c, 9, 42, 64
8, 68160, Note_on_c, 9, 42, 40
8, 68352, Note_off_c, 9, 42, 64
8, 68352, Note_on_c, 9, 36, 120
8, 68352, Note_on_c, 9, 42, 40
8, 68544, Note_off_c, 9, 42, 64
8, 68544, Note_on_c, 9, 42, 40
8, 68735, Note_off_c, 9, 36, 64
8, 68736, Note_off_c, 9, 42, 64
8, 68736, Note_on_c, 9, 42, 40
8, 68736, Note_on_c, 9, 38, 120
8, 68928, Note_off_c, 9, 38, 64
8, 68928, Note_off_c, 9, 42, 64
8, 68928, Note_on_c, 9, 42, 40
8, 69120, Note_off_c, 9, 42, 64
8, 69120, Note_on_c, 9, 36, 120
8, 69120, Note_on_c, 9, 42, 40
8, 69312, Note_off_c, 9, 42, 64
8, 69312, Note_on_c, 9, 42, 40
8, 69503, Note_off_c, 9, 36, 64
8, 69504, Note_off_c, 9, 42, 64
8, 69504, Note_on_c, 9, 42, 40
8, 69504, Note_on_c, 9, 38, 120
8, 69696, Note_off_c, 9, 38, 64
8, 69696, Note_off_c, 9, 42, 64
8, 69696, Note_on_c, 9, 42, 40
8, 69888, Note_off_c, 9, 42, 64
8, 69888, Note_on_c, 9, 36, 120
8, 69888, Note_on_c, 9, 42, 40
8, 70080, Note_off_c, 9, 42, 64
8, 70080, Note_on_c, 9, 42, 40
8, 70271, Note_off_c, 9, 36, 64
8, 70272, Note_off_c, 9, 42, 64
8, 70272, Note_on_c, 9, 42, 40
8, 70272, Note_on_c, 9, 38, 120
8, 70464, Note_off_c, 9, 38, 64
8, 70464, Note_off_c, 9, 42, 64
8, 70464, Note_on_c, 9, 42, 40
8, 70656, Note_off_c, 9, 42, 64
8, 70656, Note_on_c, 9, 36, 120
8, 70656, Note_on_c, 9, 42, 40
8, 70848, Note_off_c, 9, 42, 64
8, 70848, Note_on_c, 9, 42, 40
8, 71039, Note_off_c, 9, 36, 64
8, 71040, Note_off_c, 9, 42, 64
8, 71040, Note_on_c, 9, 42, 40
8, 71040, Note_on_c, 9, 38, 120
8, 71232, Note_off_c, 9, 38, 64
8, 71232, Note_off_c, 9, 42, 64
8, 71232, Note_on_c, 9, 42, 40
8, 71424, Note_off_c, 9, 42, 64
8, 71424, Note_on_c, 9, 36, 120
8, 71424, Note_on_c, 9, 42, 40
8, 71616, Note_off_c, 9, 42, 64
8, 71616, Note_on_c, 9, 42, 40
8, 71807, Note_off_c, 9, 36, 64
8, 71808, Note_off_c, 9, 42, 64
8, 71808, Note_on_c, 9, 42, 40
8, 71808, Note_on_c, 9, 38, 120
8, 72000, Note_off_c, 9, 38, 64
8, 72000, Note_off_c, 9, 42, 64
8, 72000, Note_on_c, 9, 42, 40
8, 72192, Note_off_c, 9, 42, 64
8, 72192, Note_on_c, 9, 36, 120
8, 72192, Note_on_c, 9, 42, 40
8, 72384, Note_off_c, 9, 42, 64
8, 72384, Note_on_c, 9, 42, 40
8, 72575, Note_off_c, 9, 36, 64
8, 72576, Note_off_c, 9, 42, 64
8, 72576, Note_on_c, 9, 42, 40
8, 72576, Note_on_c, 9, 38, 120
8, 72768, Note_off_c, 9, 38, 64
8, 72768, Note_off_c, 9, 42, 64
8, 72768, Note_on_c, 9, 42, 40
8, 72960, Note_off_c, 9, 42, 64
8, 72960, Note_on_c, 9, 36, 120
8, 72960, Note_on_c, 9, 42, 40
8, 73152, Note_off_c, 9, 42, 64
8, 73152, Note_on_c, 9, 42, 40
8, 73343, Note_off_c, 9, 36, 64
8, 73344, Note_off_c, 9, 42, 64
8, 73344, Note_on_c, 9, 42, 40
8, 73344, Note_on_c, 9, 38, 120
8, 73536, Note_off_c, 9, 38, 64
8, 73536, Note_off_c, 9, 42, 64
8, 73536, Note_on_c, 9, 49, 60
8, 73536, Note_on_c, 9, 36, 120
8, 73727, Note_off_c, 9, 36, 64
8, 73728, Note_off_c, 9, 49, 64
8, 73920, Note_on_c, 9, 42, 40
8, 74112, Note_off_c, 9, 42, 64
8, 74112, Note_on_c, 9, 42, 40
8, 74304, Note_off_c, 9, 42, 64
8, 74304, Note_on_c, 9, 42, 40
8, 74496, Note_off_c, 9, 42, 64
8, 74496, Note_on_c, 9, 38, 120
8, 74496, Note_on_c, 9, 42, 40
8, 74688, Note_off_c, 9, 42, 64
8, 74688, Note_off_c, 9, 38, 64
8, 74688, Note_on_c, 9, 42, 40
8, 74880, Note_off_c, 9, 42, 64
8, 74880, Note_on_c, 9, 42, 40
8, 75072, Note_off_c, 9, 42, 64
8, 75072, Note_on_c, 9, 49, 60
8, 75072, Note_on_c, 9, 36, 120
8, 75263, Note_off_c, 9, 36, 64
8, 75264, Note_off_c, 9, 49, 64
8, 75264, Note_on_c, 9, 42, 40
8, 75456, Note_off_c, 9, 42, 64
8, 75456, Note_on_c, 9, 42, 40
8, 75648, Note_off_c, 9, 42, 64
8, 75648, Note_on_c, 9, 42, 40
8, 75840, Note_off_c, 9, 42, 64
8, 75840, Note_on_c, 9, 42, 40
8, 76032, Note_off_c, 9, 42, 64
8, 76032, Note_on_c, 9, 38, 120
8, 76032, Note_on_c, 9, 42, 40
8, 76224, Note_off_c, 9, 42, 64
8, 76224, Note_off_c, 9, 38, 64
8, 76224, Note_on_c, 9, 42, 40
8, 76416, Note_off_c, 9, 42, 64
8, 76416, Note_on_c, 9, 42, 40
8, 76608, Note_off_c, 9, 42, 64
8, 76608, Note_on_c, 9, 49, 60
8, 76608, Note_on_c, 9, 36, 120
8, 76799, Note_off_c, 9, 36, 64
8, 76800, Note_off_c, 9, 49, 64
8, 76800, Note_on_c, 9, 42, 40
8, 76992, Note_off_c, 9, 42, 64
8, 76992, Note_on_c, 9, 42, 40
8, 77184, Note_off_c, 9, 42, 64
8, 77184, Note_on_c, 9, 42, 40
8, 77376, Note_off_c, 9, 42, 64
8, 77376, Note_on_c, 9, 42, 40
8, 77568, Note_off_c, 9, 42, 64
8, 77568, Note_on_c, 9, 38, 120
8, 77568, Note_on_c, 9, 42, 40
8, 77760, Note_off_c, 9, 42, 64
8, 77760, Note_off_c, 9, 38, 64
8, 77760, Note_on_c, 9, 42, 40
8, 77952, Note_off_c, 9, 42, 64
8, 77952, Note_on_c, 9, 42, 40
8, 78144, Note_off_c, 9, 42, 64
8, 78144, Note_on_c, 9, 42, 40
8, 78336, Note_off_c, 9, 42, 64
8, 78336, Note_on_c, 9, 38, 120
8, 78336, Note_on_c, 9, 43, 120
8, 78336, Note_on_c, 9, 36, 120
8, 78527, Note_off_c, 9, 43, 64
8, 78527, Note_off_c, 9, 38, 64
8, 78528, Note_on_c, 9, 38, 120
8, 78528, Note_on_c, 9, 43, 120
8, 78719, Note_off_c, 9, 43, 64
8, 78719, Note_off_c, 9, 38, 64
8, 78719, Note_off_c, 9, 36, 64
8, 78720, Note_on_c, 9, 38, 120
8, 78720, Note_on_c, 9, 43, 120
8, 78720, Note_on_c, 9, 36, 120
8, 78911, Note_off_c, 9, 43, 64
8, 78911, Note_off_c, 9, 38, 64
8, 78912, Note_on_c, 9, 38, 120
8, 78912, Note_on_c, 9, 43, 120
8, 79103, Note_off_c, 9, 43, 64
8, 79103, Note_off_c, 9, 38, 64
8, 79103, Note_off_c, 9, 36, 64
8, 79104, Note_on_c, 9, 38, 120
8, 79104, Note_on_c, 9, 43, 120
8, 79104, Note_on_c, 9, 36, 120
8, 79295, Note_off_c, 9, 43, 64
8, 79295, Note_off_c, 9, 38, 64
8, 79296, Note_on_c, 9, 38, 120
8, 79296, Note_on_c, 9, 43, 120
8, 79487, Note_off_c, 9, 43, 64
8, 79487, Note_off_c, 9, 38, 64
8, 79487, Note_off_c, 9, 36, 64
8, 79488, Note_on_c, 9, 38, 120
8, 79679, Note_off_c, 9, 38, 64
8, 79680, Note_on_c, 9, 49, 60
8, 79680, Note_on_c, 9, 38, 120
8, 79871, Note_off_c, 9, 38, 64
8, 79872, Note_off_c, 9, 49, 64
8, 79872, Note_on_c, 9, 36, 120
8, 79872, Note_on_c, 9, 49, 60
8, 80255, Note_off_c, 9, 36, 64
8, 80256, Note_off_c, 9, 49, 64
8, 80256, Note_on_c, 9, 38, 120
8, 80256, Note_on_c, 9, 42, 40
8, 80447, Note_off_c, 9, 38, 64
8, 80448, Note_off_c, 9, 42, 64
8, 80448, Note_on_c, 9, 42, 40
8, 80640, Note_off_c, 9, 42, 64
8, 80640, Note_on_c, 9, 36, 120
8, 80640, Note_on_c, 9, 42, 40
8, 80832, Note_off_c, 9, 42, 64
8, 80832, Note_on_c, 9, 42, 40
8, 81023, Note_off_c, 9, 36, 64
8, 81024, Note_off_c, 9, 42, 64
8, 81024, Note_on_c, 9, 38, 120
8, 81024, Note_on_c, 9, 42, 40
8, 81215, Note_off_c, 9, 38, 64
8, 81216, Note_off_c, 9, 42, 64
8, 81216, Note_on_c, 9, 42, 40
8, 81408, Note_off_c, 9, 42, 64
8, 81408, Note_on_c, 9, 42, 40
8, 81408, Note_on_c, 9, 36, 120
8, 81600, Note_off_c, 9, 42, 64
8, 81600, Note_on_c, 9, 42, 40
8, 81791, Note_off_c, 9, 36, 64
8, 81792, Note_off_c, 9, 42, 64
8, 81792, Note_on_c, 9, 42, 40
8, 81792, Note_on_c, 9, 38, 120
8, 81983, Note_off_c, 9, 38, 64
8, 81984, Note_off_c, 9, 42, 64
8, 81984, Note_on_c, 9, 42, 40
8, 82176, Note_off_c, 9, 42, 64
8, 82176, Note_on_c, 9, 42, 40
8, 82176, Note_on_c, 9, 36, 120
8, 82367, Note_off_c, 9, 36, 64
8, 82368, Note_off_c, 9, 42, 64
8, 82368, Note_on_c, 9, 42, 40
8, 82368, Note_on_c, 9, 36, 120
8, 82559, Note_off_c, 9, 36, 64
8, 82560, Note_off_c, 9, 42, 64
8, 82560, Note_on_c, 9, 42, 40
8, 82560, Note_on_c, 9, 38, 120
8, 82751, Note_off_c, 9, 38, 64
8, 82752, Note_off_c, 9, 42, 64
8, 82752, Note_on_c, 9, 42, 40
8, 82944, Note_off_c, 9, 42, 64
8, 82944, Note_on_c, 9, 42, 40
8, 82944, Note_on_c, 9, 36, 120
8, 83136, Note_off_c, 9, 42, 64
8, 83136, Note_on_c, 9, 42, 40
8, 83327, Note_off_c, 9, 36, 64
8, 83328, Note_off_c, 9, 42, 64
8, 83328, Note_on_c, 9, 38, 120
8, 83328, Note_on_c, 9, 42, 40
8, 83519, Note_off_c, 9, 38, 64
8, 83520, Note_off_c, 9, 42, 64
8, 83520, Note_on_c, 9, 42, 40
8, 83712, Note_off_c, 9, 42, 64
8, 83712, Note_on_c, 9, 36, 120
8, 83712, Note_on_c, 9, 42, 40
8, 83904, Note_off_c, 9, 42, 64
8, 83904, Note_on_c, 9, 42, 40
8, 84095, Note_off_c, 9, 36, 64
8, 84096, Note_off_c, 9, 42, 64
8, 84096, Note_on_c, 9, 36, 120
8, 84096, Note_on_c, 9, 42, 40
8, 84288, Note_off_c, 9, 42, 64
8, 84288, Note_on_c, 9, 38, 120
8, 84288, Note_on_c, 9, 49, 60
8, 84479, Note_off_c, 9, 38, 64
8, 84479, Note_off_c, 9, 36, 64
8, 84480, Note_off_c, 9, 49, 64
8, 84480, Note_on_c, 9, 42, 40
8, 84480, Note_on_c, 9, 36, 120
8, 84672, Note_off_c, 9, 42, 64
8, 84672, Note_on_c, 9, 42, 40
8, 84863, Note_off_c, 9, 36, 64
8, 84864, Note_off_c, 9, 42, 64
8, 84864, Note_on_c, 9, 42, 40
8, 84864, Note_on_c, 9, 38, 120
8, 85055, Note_off_c, 9, 38, 64
8, 85056, Note_off_c, 9, 42, 64
8, 85056, Note_on_c, 9, 42, 40
8, 85248, Note_off_c, 9, 42, 64
8, 85248, Note_on_c, 9, 42, 40
8, 85248, Note_on_c, 9, 36, 120
8, 85439, Note_off_c, 9, 36, 64
8, 85440, Note_off_c, 9, 42, 64
8, 85440, Note_on_c, 9, 42, 40
8, 85440, Note_on_c, 9, 36, 120
8, 85631, Note_off_c, 9, 36, 64
8, 85632, Note_off_c, 9, 42, 64
8, 85632, Note_on_c, 9, 42, 40
8, 85632, Note_on_c, 9, 38, 120
8, 85823, Note_off_c, 9, 38, 64
8, 85824, Note_off_c, 9, 42, 64
8, 85824, Note_on_c, 9, 36, 120
8, 85824, Note_on_c, 9, 42, 40
8, 86015, Note_off_c, 9, 36, 64
8, 86016, Note_off_c, 9, 42, 64
8, 86016, Note_on_c, 9, 49, 60
8, 86016, Note_on_c, 9, 36, 120
8, 86208, Note_off_c, 9, 49, 64
8, 86399, Note_off_c, 9, 36, 64
8, 86400, Note_on_c, 9, 38, 120
8, 86400, Note_on_c, 9, 42, 40
8, 86591, Note_off_c, 9, 38, 64
8, 86592, Note_off_c, 9, 42, 64
8, 86592, Note_on_c, 9, 42, 40
8, 86784, Note_off_c, 9, 42, 64
8, 86784, Note_on_c, 9, 36, 120
8, 86784, Note_on_c, 9, 42, 40
8, 86976, Note_off_c, 9, 42, 64
8, 86976, Note_on_c, 9, 42, 40
8, 87167, Note_off_c, 9, 36, 64
8, 87168, Note_off_c, 9, 42, 64
8, 87168, Note_on_c, 9, 36, 120
8, 87168, Note_on_c, 9, 42, 40
8, 87360, Note_off_c, 9, 42, 64
8, 87360, Note_on_c, 9, 38, 120
8, 87360, Note_on_c, 9, 49, 60
8, 87551, Note_off_c, 9, 38, 64
8, 87551, Note_off_c, 9, 36, 64
8, 87552, Note_off_c, 9, 49, 64
8, 87552, Note_on_c, 9, 42, 40
8, 87552, Note_on_c, 9, 36, 120
8, 87744, Note_off_c, 9, 42, 64
8, 87744, Note_on_c, 9, 42, 40
8, 87935, Note_off_c, 9, 36, 64
8, 87936, Note_off_c, 9, 42, 64
8, 87936, Note_on_c, 9, 42, 40
8, 87936, Note_on_c, 9, 38, 120
8, 88127, Note_off_c, 9, 38, 64
8, 88128, Note_off_c, 9, 42, 64
8, 88128, Note_on_c, 9, 42, 40
8, 88320, Note_off_c, 9, 42, 64
8, 88320, Note_on_c, 9, 42, 40
8, 88320, Note_on_c, 9, 36, 120
8, 88511, Note_off_c, 9, 36, 64
8, 88512, Note_off_c, 9, 42, 64
8, 88512, Note_on_c, 9, 42, 40
8, 88512, Note_on_c, 9, 36, 120
8, 88703, Note_off_c, 9, 36, 64
8, 88704, Note_off_c, 9, 42, 64
8, 88704, Note_on_c, 9, 42, 40
8, 88704, Note_on_c, 9, 38, 120
8, 88895, Note_off_c, 9, 38, 64
8, 88896, Note_off_c, 9, 42, 64
8, 88896, Note_on_c, 9, 36, 120
8, 88896, Note_on_c, 9, 42, 40
8, 89087, Note_off_c, 9, 36, 64
8, 89088, Note_off_c, 9, 42, 64
8, 89088, Note_on_c, 9, 49, 60
8, 89088, Note_on_c, 9, 36, 120
8, 89280, Note_off_c, 9, 49, 64
8, 89471, Note_off_c, 9, 36, 64
8, 90432, Note_on_c, 9, 49, 60
8, 90432, Note_on_c, 9, 36, 120
8, 90623, Note_off_c, 9, 36, 64
8, 90624, Note_off_c, 9, 49, 64
8, 90624, Note_on_c, 9, 42, 40
8, 90816, Note_off_c, 9, 42, 64
8, 90816, Note_on_c, 9, 42, 40
8, 91008, Note_off_c, 9, 42, 64
8, 91008, Note_on_c, 9, 42, 40
8, 91008, Note_on_c, 9, 38, 120
8, 91200, Note_off_c, 9, 38, 64
8, 91200, Note_off_c, 9, 42, 64
8, 91200, Note_on_c, 9, 42, 40
8, 91392, Note_off_c, 9, 42, 64
8, 91392, Note_on_c, 9, 36, 120
8, 91392, Note_on_c, 9, 42, 40
8, 91584, Note_off_c, 9, 42, 64
8, 91584, Note_on_c, 9, 42, 40
8, 91775, Note_off_c, 9, 36, 64
8, 91776, Note_off_c, 9, 42, 64
8, 91776, Note_on_c, 9, 42, 40
8, 91776, Note_on_c, 9, 38, 120
8, 91968, Note_off_c, 9, 38, 64
8, 91968, Note_off_c, 9, 42, 64
8, 91968, Note_on_c, 9, 42, 40
8, 92160, Note_off_c, 9, 42, 64
8, 92160, Note_on_c, 9, 36, 120
8, 92160, Note_on_c, 9, 42, 40
8, 92352, Note_off_c, 9, 42, 64
8, 92352, Note_on_c, 9, 42, 40
8, 92543, Note_off_c, 9, 36, 64
8, 92544, Note_off_c, 9, 42, 64
8, 92544, Note_on_c, 9, 42, 40
8, 92544, Note_on_c, 9, 38, 120
8, 92736, Note_off_c, 9, 38, 64
8, 92736, Note_off_c, 9, 42, 64
8, 92736, Note_on_c, 9, 42, 40
8, 92928, Note_off_c, 9, 42, 64
8, 92928, Note_on_c, 9, 36, 120
8, 92928, Note_on_c, 9, 42, 40
8, 93120, Note_off_c, 9, 42, 64
8, 93120, Note_on_c, 9, 42, 40
8, 93311, Note_off_c, 9, 36, 64
8, 93312, Note_off_c, 9, 42, 64
8, 93312, Note_on_c, 9, 42, 40
8, 93312, Note_on_c, 9, 38, 120
8, 93504, Note_off_c, 9, 38, 64
8, 93504, Note_off_c, 9, 42, 64
8, 93504, Note_on_c, 9, 42, 40
8, 93696, Note_off_c, 9, 42, 64
8, 93696, Note_on_c, 9, 36, 120
8, 93696, Note_on_c, 9, 42, 40
8, 93888, Note_off_c, 9, 42, 64
8, 93888, Note_on_c, 9, 42, 40
8, 94079, Note_off_c, 9, 36, 64
8, 94080, Note_off_c, 9, 42, 64
8, 94080, Note_on_c, 9, 42, 40
8, 94080, Note_on_c, 9, 38, 120
8, 94272, Note_off_c, 9, 38, 64
8, 94272, Note_off_c, 9, 42, 64
8, 94272, Note_on_c, 9, 42, 40
8, 94464, Note_off_c, 9, 42, 64
8, 94464, Note_on_c, 9, 36, 120
8, 94464, Note_on_c, 9, 42, 40
8, 94656, Note_off_c, 9, 42, 64
8, 94656, Note_on_c, 9, 42, 40
8, 94847, Note_off_c, 9, 36, 64
8, 94848, Note_off_c, 9, 42, 64
8, 94848, Note_on_c, 9, 42, 40
8, 94848, Note_on_c, 9, 38, 120
8, 95040, Note_off_c, 9, 38, 64
8, 95040, Note_off_c, 9, 42, 64
8, 95040, Note_on_c, 9, 42, 40
8, 95232, Note_off_c, 9, 42, 64
8, 95232, Note_on_c, 9, 38, 120
8, 95232, Note_on_c, 9, 42, 40
8, 95424, Note_off_c, 9, 42, 64
8, 95424, Note_off_c, 9, 38, 64
8, 95424, Note_on_c, 9, 36, 120
8, 95424, Note_on_c, 9, 42, 40
8, 95615, Note_off_c, 9, 36, 64
8, 95616, Note_off_c, 9, 42, 64
8, 95616, Note_on_c, 9, 42, 40
8, 95616, Note_on_c, 9, 38, 120
8, 95808, Note_off_c, 9, 38, 64
8, 95808, Note_off_c, 9, 42, 64
8, 95808, Note_on_c, 9, 42, 40
8, 96000, Note_off_c, 9, 42, 64
8, 96000, Note_on_c, 9, 38, 120
8, 96000, Note_on_c, 9, 42, 40
8, 96192, Note_off_c, 9, 42, 64
8, 96192, Note_off_c, 9, 38, 64
8, 96192, Note_on_c, 9, 36, 120
8, 96192, Note_on_c, 9, 42, 40
8, 96383, Note_off_c, 9, 36, 64
8, 96384, Note_off_c, 9, 42, 64
8, 96384, Note_on_c, 9, 42, 40
8, 96384, Note_on_c, 9, 38, 120
8, 96576, Note_off_c, 9, 38, 64
8, 96576, Note_off_c, 9, 42, 64
8, 96576, Note_on_c, 9, 49, 60
8, 96576, Note_on_c, 9, 36, 120
8, 96767, Note_off_c, 9, 36, 64
8, 96768, Note_off_c, 9, 49, 64
8, 96768, Note_on_c, 9, 42, 40
8, 96960, Note_off_c, 9, 42, 64
8, 96960, Note_on_c, 9, 42, 40
8, 97152, Note_off_c, 9, 42, 64
8, 97152, Note_on_c, 9, 42, 40
8, 97152, Note_on_c, 9, 38, 120
8, 97344, Note_off_c, 9, 38, 64
8, 97344, Note_off_c, 9, 42, 64
8, 97344, Note_on_c, 9, 42, 40
8, 97536, Note_off_c, 9, 42, 64
8, 97536, Note_on_c, 9, 36, 120
8, 97536, Note_on_c, 9, 42, 40
8, 97728, Note_off_c, 9, 42, 64
8, 97728, Note_on_c, 9, 42, 40
8, 97919, Note_off_c, 9, 36, 64
8, 97920, Note_off_c, 9, 42, 64
8, 97920, Note_on_c, 9, 42, 40
8, 97920, Note_on_c, 9, 38, 120
8, 98112, Note_off_c, 9, 38, 64
8, 98112, Note_off_c, 9, 42, 64
8, 98112, Note_on_c, 9, 42, 40
8, 98304, Note_off_c, 9, 42, 64
8, 98304, Note_on_c, 9, 36, 120
8, 98304, Note_on_c, 9, 42, 40
8, 98496, Note_off_c, 9, 42, 64
8, 98496, Note_on_c, 9, 42, 40
8, 98687, Note_off_c, 9, 36, 64
8, 98688, Note_off_c, 9, 42, 64
8, 98688, Note_on_c, 9, 42, 40
8, 98688, Note_on_c, 9, 38, 120
8, 98880, Note_off_c, 9, 38, 64
8, 98880, Note_off_c, 9, 42, 64
8, 98880, Note_on_c, 9, 42, 40
8, 99072, Note_off_c, 9, 42, 64
8, 99072, Note_on_c, 9, 36, 120
8, 99072, Note_on_c, 9, 42, 40
8, 99264, Note_off_c, 9, 42, 64
8, 99264, Note_on_c, 9, 42, 40
8, 99455, Note_off_c, 9, 36, 64
8, 99456, Note_off_c, 9, 42, 64
8, 99456, Note_on_c, 9, 42, 40
8, 99456, Note_on_c, 9, 38, 120
8, 99648, Note_off_c, 9, 38, 64
8, 99648, Note_off_c, 9, 42, 64
8, 99648, Note_on_c, 9, 42, 40
8, 99840, Note_off_c, 9, 42, 64
8, 99840, Note_on_c, 9, 36, 120
8, 99840, Note_on_c, 9, 42, 40
8, 100032, Note_off_c, 9, 42, 64
8, 100032, Note_on_c, 9, 42, 40
8, 100223, Note_off_c, 9, 36, 64
8, 100224, Note_off_c, 9, 42, 64
8, 100224, Note_on_c, 9, 42, 40
8, 100224, Note_on_c, 9, 38, 120
8, 100416, Note_off_c, 9, 38, 64
8, 100416, Note_off_c, 9, 42, 64
8, 100416, Note_on_c, 9, 42, 40
8, 100608, Note_off_c, 9, 42, 64
8, 100608, Note_on_c, 9, 36, 120
8, 100608, Note_on_c, 9, 42, 40
8, 100800, Note_off_c, 9, 42, 64
8, 100800, Note_on_c, 9, 42, 40
8, 100991, Note_off_c, 9, 36, 64
8, 100992, Note_off_c, 9, 42, 64
8, 100992, Note_on_c, 9, 42, 40
8, 100992, Note_on_c, 9, 38, 120
8, 101184, Note_off_c, 9, 38, 64
8, 101184, Note_off_c, 9, 42, 64
8, 101184, Note_on_c, 9, 42, 40
8, 101376, Note_off_c, 9, 42, 64
8, 101376, Note_on_c, 9, 38, 120
8, 101376, Note_on_c, 9, 49, 60
8, 101376, Note_on_c, 9, 36, 120
8, 101568, Note_off_c, 9, 49, 64
8, 101568, Note_off_c, 9, 38, 64
8, 101568, Note_on_c, 9, 45, 120
8, 101568, Note_on_c, 9, 47, 120
8, 101759, Note_off_c, 9, 36, 64
8, 101760, Note_off_c, 9, 47, 64
8, 101760, Note_off_c, 9, 45, 64
8, 101760, Note_on_c, 9, 47, 120
8, 101760, Note_on_c, 9, 45, 120
8, 101760, Note_on_c, 9, 36, 120
8, 101952, Note_off_c, 9, 45, 64
8, 101952, Note_off_c, 9, 47, 64
8, 101952, Note_on_c, 9, 47, 120
8, 101952, Note_on_c, 9, 45, 120
8, 102144, Note_off_c, 9, 45, 64
8, 102144, Note_off_c, 9, 47, 64
8, 102144, Note_off_c, 9, 36, 64
8, 102144, Note_on_c, 9, 47, 120
8, 102144, Note_on_c, 9, 45, 120
8, 102144, Note_on_c, 9, 36, 120
8, 102336, Note_off_c, 9, 45, 64
8, 102336, Note_off_c, 9, 47, 64
8, 102336, Note_on_c, 9, 47, 120
8, 102336, Note_on_c, 9, 45, 120
8, 102527, Note_off_c, 9, 36, 64
8, 102528, Note_off_c, 9, 45, 64
8, 102528, Note_off_c, 9, 47, 64
8, 102528, Note_on_c, 9, 47, 120
8, 102528, Note_on_c, 9, 45, 120
8, 102720, Note_off_c, 9, 45, 64
8, 102720, Note_off_c, 9, 47, 64
8, 102720, Note_on_c, 9, 36, 120
8, 102720, Note_on_c, 9, 49, 60
8, 102911, Note_off_c, 9, 36, 64
8, 102912, Note_off_c, 9, 49, 64
8, 102912, Note_on_c, 9, 42, 40
8, 103104, Note_off_c, 9, 42, 64
8, 103104, Note_on_c, 9, 42, 40
8, 103296, Note_off_c, 9, 42, 64
8, 103296, Note_on_c, 9, 42, 40
8, 103296, Note_on_c, 9, 38, 120
8, 103488, Note_off_c, 9, 38, 64
8, 103488, Note_off_c, 9, 42, 64
8, 103488, Note_on_c, 9, 42, 40
8, 103680, Note_off_c, 9, 42, 64
8, 103680, Note_on_c, 9, 36, 120
8, 103680, Note_on_c, 9, 42, 40
8, 103872, Note_off_c, 9, 42, 64
8, 103872, Note_on_c, 9, 42, 40
8, 104063, Note_off_c, 9, 36, 64
8, 104064, Note_off_c, 9, 42, 64
8, 104064, Note_on_c, 9, 42, 40
8, 104064, Note_on_c, 9, 38, 120
8, 104256, Note_off_c, 9, 38, 64
8, 104256, Note_off_c, 9, 42, 64
8, 104256, Note_on_c, 9, 42, 40
8, 104448, Note_off_c, 9, 42, 64
8, 104448, Note_on_c, 9, 36, 120
8, 104448, Note_on_c, 9, 42, 40
8, 104640, Note_off_c, 9, 42, 64
8, 104640, Note_on_c, 9, 42, 40
8, 104831, Note_off_c, 9, 36, 64
8, 104832, Note_off_c, 9, 42, 64
8, 104832, Note_on_c, 9, 42, 40
8, 104832, Note_on_c, 9, 38, 120
8, 105024, Note_off_c, 9, 38, 64
8, 105024, Note_off_c, 9, 42, 64
8, 105024, Note_on_c, 9, 42, 40
8, 105216, Note_off_c, 9, 42, 64
8, 105216, Note_on_c, 9, 36, 120
8, 105216, Note_on_c, 9, 42, 40
8, 105408, Note_off_c, 9, 42, 64
8, 105408, Note_on_c, 9, 42, 40
8, 105599, Note_off_c, 9, 36, 64
8, 105600, Note_off_c, 9, 42, 64
8, 105600, Note_on_c, 9, 42, 40
8, 105600, Note_on_c, 9, 38, 120
8, 105792, Note_off_c, 9, 38, 64
8, 105792, Note_off_c, 9, 42, 64
8, 105792, Note_on_c, 9, 42, 40
8, 105984, Note_off_c, 9, 42, 64
8, 105984, Note_on_c, 9, 36, 120
8, 105984, Note_on_c, 9, 42, 40
8, 106176, Note_off_c, 9, 42, 64
8, 106176, Note_on_c, 9, 42, 40
8, 106367, Note_off_c, 9, 36, 64
8, 106368, Note_off_c, 9, 42, 64
8, 106368, Note_on_c, 9, 42, 40
8, 106368, Note_on_c, 9, 38, 120
8, 106560, Note_off_c, 9, 38, 64
8, 106560, Note_off_c, 9, 42, 64
8, 106560, Note_on_c, 9, 42, 40
8, 106752, Note_off_c, 9, 42, 64
8, 106752, Note_on_c, 9, 36, 120
8, 106752, Note_on_c, 9, 42, 40
8, 106944, Note_off_c, 9, 42, 64
8, 106944, Note_on_c, 9, 42, 40
8, 107135, Note_off_c, 9, 36, 64
8, 107136, Note_off_c, 9, 42, 64
8, 107136, Note_on_c, 9, 42, 40
8, 107136, Note_on_c, 9, 38, 120
8, 107328, Note_off_c, 9, 38, 64
8, 107328, Note_off_c, 9, 42, 64
8, 107328, Note_on_c, 9, 42, 40
8, 107520, Note_off_c, 9, 42, 64
8, 107520, Note_on_c, 9, 36, 120
8, 107520, Note_on_c, 9, 42, 40
8, 107712, Note_off_c, 9, 42, 64
8, 107712, Note_on_c, 9, 42, 40
8, 107903, Note_off_c, 9, 36, 64
8, 107904, Note_off_c, 9, 42, 64
8, 107904, Note_on_c, 9, 42, 40
8, 107904, Note_on_c, 9, 38, 120
8, 108096, Note_off_c, 9, 38, 64
8, 108096, Note_off_c, 9, 42, 64
8, 108096, Note_on_c, 9, 42, 40
8, 108288, Note_off_c, 9, 42, 64
8, 108288, Note_on_c, 9, 36, 120
8, 108288, Note_on_c, 9, 42, 40
8, 108480, Note_off_c, 9, 42, 64
8, 108480, Note_on_c, 9, 42, 40
8, 108671, Note_off_c, 9, 36, 64
8, 108672, Note_off_c, 9, 42, 64
8, 108672, Note_on_c, 9, 42, 40
8, 108672, Note_on_c, 9, 38, 120
8, 108864, Note_off_c, 9, 38, 64
8, 108864, Note_off_c, 9, 42, 64
8, 108864, Note_on_c, 9, 49, 60
8, 108864, Note_on_c, 9, 36, 120
8, 109055, Note_off_c, 9, 36, 64
8, 109056, Note_off_c, 9, 49, 64
8, 109056, Note_on_c, 9, 42, 40
8, 109248, Note_off_c, 9, 42, 64
8, 109248, Note_on_c, 9, 42, 40
8, 109440, Note_off_c, 9, 42, 64
8, 109440, Note_on_c, 9, 42, 40
8, 109440, Note_on_c, 9, 38, 120
8, 109632, Note_off_c, 9, 38, 64
8, 109632, Note_off_c, 9, 42, 64
8, 109632, Note_on_c, 9, 42, 40
8, 109824, Note_off_c, 9, 42, 64
8, 109824, Note_on_c, 9, 36, 120
8, 109824, Note_on_c, 9, 42, 40
8, 110016, Note_off_c, 9, 42, 64
8, 110016, Note_on_c, 9, 42, 40
8, 110207, Note_off_c, 9, 36, 64
8, 110208, Note_off_c, 9, 42, 64
8, 110208, Note_on_c, 9, 42, 40
8, 110208, Note_on_c, 9, 38, 120
8, 110400, Note_off_c, 9, 38, 64
8, 110400, Note_off_c, 9, 42, 64
8, 110400, Note_on_c, 9, 42, 40
8, 110592, Note_off_c, 9, 42, 64
8, 110592, Note_on_c, 9, 36, 120
8, 110592, Note_on_c, 9, 42, 40
8, 110784, Note_off_c, 9, 42, 64
8, 110784, Note_on_c, 9, 42, 40
8, 110975, Note_off_c, 9, 36, 64
8, 110976, Note_off_c, 9, 42, 64
8, 110976, Note_on_c, 9, 42, 40
8, 110976, Note_on_c, 9, 38, 120
8, 111168, Note_off_c, 9, 38, 64
8, 111168, Note_off_c, 9, 42, 64
8, 111168, Note_on_c, 9, 42, 40
8, 111360, Note_off_c, 9, 42, 64
8, 111360, Note_on_c, 9, 36, 120
8, 111360, Note_on_c, 9, 42, 40
8, 111552, Note_off_c, 9, 42, 64
8, 111552, Note_on_c, 9, 42, 40
8, 111743, Note_off_c, 9, 36, 64
8, 111744, Note_off_c, 9, 42, 64
8, 111744, Note_on_c, 9, 42, 40
8, 111744, Note_on_c, 9, 38, 120
8, 111936, Note_off_c, 9, 38, 64
8, 111936, Note_off_c, 9, 42, 64
8, 111936, Note_on_c, 9, 42, 40
8, 112128, Note_off_c, 9, 42, 64
8, 112128, Note_on_c, 9, 36, 120
8, 112128, Note_on_c, 9, 42, 40
8, 112320, Note_off_c, 9, 42, 64
8, 112320, Note_on_c, 9, 42, 40
8, 112511, Note_off_c, 9, 36, 64
8, 112512, Note_off_c, 9, 42, 64
8, 112512, Note_on_c, 9, 42, 40
8, 112512, Note_on_c, 9, 38, 120
8, 112704, Note_off_c, 9, 38, 64
8, 112704, Note_off_c, 9, 42, 64
8, 112704, Note_on_c, 9, 42, 40
8, 112896, Note_off_c, 9, 42, 64
8, 112896, Note_on_c, 9, 36, 120
8, 112896, Note_on_c, 9, 42, 40
8, 113088, Note_off_c, 9, 42, 64
8, 113088, Note_on_c, 9, 42, 40
8, 113279, Note_off_c, 9, 36, 64
8, 113280, Note_off_c, 9, 42, 64
8, 113280, Note_on_c, 9, 42, 40
8, 113280, Note_on_c, 9, 38, 120
8, 113472, Note_off_c, 9, 38, 64
8, 113472, Note_off_c, 9, 42, 64
8, 113472, Note_on_c, 9, 42, 40
8, 113664, Note_off_c, 9, 42, 64
8, 113664, Note_on_c, 9, 36, 120
8, 113664, Note_on_c, 9, 42, 40
8, 113856, Note_off_c, 9, 42, 64
8, 113856, Note_on_c, 9, 42, 40
8, 114047, Note_off_c, 9, 36, 64
8, 114048, Note_off_c, 9, 42, 64
8, 114048, Note_on_c, 9, 42, 40
8, 114048, Note_on_c, 9, 38, 120
8, 114240, Note_off_c, 9, 38, 64
8, 114240, Note_off_c, 9, 42, 64
8, 114240, Note_on_c, 9, 42, 40
8, 114432, Note_off_c, 9, 42, 64
8, 114432, Note_on_c, 9, 36, 120
8, 114432, Note_on_c, 9, 42, 40
8, 114624, Note_off_c, 9, 42, 64
8, 114624, Note_on_c, 9, 42, 40
8, 114815, Note_off_c, 9, 36, 64
8, 114816, Note_off_c, 9, 42, 64
8, 114816, Note_on_c, 9, 42, 40
8, 114816, Note_on_c, 9, 38, 120
8, 115008, Note_off_c, 9, 38, 64
8, 115008, Note_off_c, 9, 42, 64
8, 115008, Note_on_c, 9, 49, 60
8, 115008, Note_on_c, 9, 36, 120
8, 115199, Note_off_c, 9, 36, 64
8, 115200, Note_off_c, 9, 49, 64
8, 115392, Note_on_c, 9, 42, 40
8, 115584, Note_off_c, 9, 42, 64
8, 115584, Note_on_c, 9, 42, 40
8, 115776, Note_off_c, 9, 42, 64
8, 115776, Note_on_c, 9, 42, 40
8, 115968, Note_off_c, 9, 42, 64
8, 115968, Note_on_c, 9, 38, 120
8, 115968, Note_on_c, 9, 42, 40
8, 116160, Note_off_c, 9, 42, 64
8, 116160, Note_off_c, 9, 38, 64
8, 116160, Note_on_c, 9, 42, 40
8, 116352, Note_off_c, 9, 42, 64
8, 116352, Note_on_c, 9, 42, 40
8, 116544, Note_off_c, 9, 42, 64
8, 116544, Note_on_c, 9, 49, 60
8, 116544, Note_on_c, 9, 36, 120
8, 116735, Note_off_c, 9, 36, 64
8, 116736, Note_off_c, 9, 49, 64
8, 116736, Note_on_c, 9, 42, 40
8, 116928, Note_off_c, 9, 42, 64
8, 116928, Note_on_c, 9, 42, 40
8, 117120, Note_off_c, 9, 42, 64
8, 117120, Note_on_c, 9, 42, 40
8, 117312, Note_off_c, 9, 42, 64
8, 117312, Note_on_c, 9, 42, 40
8, 117504, Note_off_c, 9, 42, 64
8, 117504, Note_on_c, 9, 38, 120
8, 117504, Note_on_c, 9, 42, 40
8, 117696, Note_off_c, 9, 42, 64
8, 117696, Note_off_c, 9, 38, 64
8, 117696, Note_on_c, 9, 42, 40
8, 117888, Note_off_c, 9, 42, 64
8, 117888, Note_on_c, 9, 42, 40
8, 118080, Note_off_c, 9, 42, 64
8, 118080, Note_on_c, 9, 49, 60
8, 118080, Note_on_c, 9, 36, 120
8, 118271, Note_off_c, 9, 36, 64
8, 118272, Note_off_c, 9, 49, 64
8, 118272, Note_on_c, 9, 42, 40
8, 118464, Note_off_c, 9, 42, 64
8, 118464, Note_on_c, 9, 42, 40
8, 118656, Note_off_c, 9, 42, 64
8, 118656, Note_on_c, 9, 42, 40
8, 118848, Note_off_c, 9, 42, 64
8, 118848, Note_on_c, 9, 42, 40
8, 119040, Note_off_c, 9, 42, 64
8, 119040, Note_on_c, 9, 38, 120
8, 119040, Note_on_c, 9, 42, 40
8, 119232, Note_off_c, 9, 42, 64
8, 119232, Note_off_c, 9, 38, 64
8, 119232, Note_on_c, 9, 42, 40
8, 119424, Note_off_c, 9, 42, 64
8, 119424, Note_on_c, 9, 42, 40
8, 119616, Note_off_c, 9, 42, 64
8, 119616, Note_on_c, 9, 42, 40
8, 119808, Note_off_c, 9, 42, 64
8, 119808, Note_on_c, 9, 38, 120
8, 119808, Note_on_c, 9, 43, 120
8, 119808, Note_on_c, 9, 36, 120
8, 119999, Note_off_c, 9, 43, 64
8, 119999, Note_off_c, 9, 38, 64
8, 120000, Note_on_c, 9, 38, 120
8, 120000, Note_on_c, 9, 43, 120
8, 120191, Note_off_c, 9, 43, 64
8, 120191, Note_off_c, 9, 38, 64
8, 120191, Note_off_c, 9, 36, 64
8, 120192, Note_on_c, 9, 38, 120
8, 120192, Note_on_c, 9, 43, 120
8, 120192, Note_on_c, 9, 36, 120
8, 120383, Note_off_c, 9, 43, 64
8, 120383, Note_off_c, 9, 38, 64
8, 120384, Note_on_c, 9, 38, 120
8, 120384, Note_on_c, 9, 43, 120
8, 120575, Note_off_c, 9, 43, 64
8, 120575, Note_off_c, 9, 38, 64
8, 120575, Note_off_c, 9, 36, 64
8, 120576, Note_on_c, 9, 38, 120
8, 120576, Note_on_c, 9, 43, 120
8, 120576, Note_on_c, 9, 36, 120
8, 120767, Note_off_c, 9, 43, 64
8, 120767, Note_off_c, 9, 38, 64
8, 120768, Note_on_c, 9, 38, 120
8, 120768, Note_on_c, 9, 43, 120
8, 120959, Note_off_c, 9, 43, 64
8, 120959, Note_off_c, 9, 38, 64
8, 120959, Note_off_c, 9, 36, 64
8, 120960, Note_on_c, 9, 38, 120
8, 121151, Note_off_c, 9, 38, 64
8, 121152, Note_on_c, 9, 49, 60
8, 121152, Note_on_c, 9, 38, 120
8, 121343, Note_off_c, 9, 38, 64
8, 121344, Note_off_c, 9, 49, 64
8, 121344, Note_on_c, 9, 36, 120
8, 121344, Note_on_c, 9, 49, 60
8, 121727, Note_off_c, 9, 36, 64
8, 121728, Note_off_c, 9, 49, 64
8, 121728, Note_on_c, 9, 38, 120
8, 121728, Note_on_c, 9, 42, 40
8, 121919, Note_off_c, 9, 38, 64
8, 121920, Note_off_c, 9, 42, 64
8, 121920, Note_on_c, 9, 42, 40
8, 122112, Note_off_c, 9, 42, 64
8, 122112, Note_on_c, 9, 36, 120
8, 122112, Note_on_c, 9, 42, 40
8, 122304, Note_off_c, 9, 42, 64
8, 122304, Note_on_c, 9, 42, 40
8, 122495, Note_off_c, 9, 36, 64
8, 122496, Note_off_c, 9, 42, 64
8, 122496, Note_on_c, 9, 38, 120
8, 122496, Note_on_c, 9, 42, 40
8, 122687, Note_off_c, 9, 38, 64
8, 122688, Note_off_c, 9, 42, 64
8, 122688, Note_on_c, 9, 42, 40
8, 122880, Note_off_c, 9, 42, 64
8, 122880, Note_on_c, 9, 42, 40
8, 122880, Note_on_c, 9, 36, 120
8, 123072, Note_off_c, 9, 42, 64
8, 123072, Note_on_c, 9, 42, 40
8, 123263, Note_off_c, 9, 36, 64
8, 123264, Note_off_c, 9, 42, 64
8, 123264, Note_on_c, 9, 42, 40
8, 123264, Note_on_c, 9, 38, 120
8, 123455, Note_off_c, 9, 38, 64
8, 123456, Note_off_c, 9, 42, 64
8, 123456, Note_on_c, 9, 42, 40
8, 123648, Note_off_c, 9, 42, 64
8, 123648, Note_on_c, 9, 42, 40
8, 123648, Note_on_c, 9, 36, 120
8, 123839, Note_off_c, 9, 36, 64
8, 123840, Note_off_c, 9, 42, 64
8, 123840, Note_on_c, 9, 42, 40
8, 123840, Note_on_c, 9, 36, 120
8, 124031, Note_off_c, 9, 36, 64
8, 124032, Note_off_c, 9, 42, 64
8, 124032, Note_on_c, 9, 42, 40
8, 124032, Note_on_c, 9, 38, 120
8, 124223, Note_off_c, 9, 38, 64
8, 124224, Note_off_c, 9, 42, 64
8, 124224, Note_on_c, 9, 42, 40
8, 124416, Note_off_c, 9, 42, 64
8, 124416, Note_on_c, 9, 42, 40
8, 124416, Note_on_c, 9, 36, 120
8, 124608, Note_off_c, 9, 42, 64
8, 124608, Note_on_c, 9, 42, 40
8, 124799, Note_off_c, 9, 36, 64
8, 124800, Note_off_c, 9, 42, 64
8, 124800, Note_on_c, 9, 38, 120
8, 124800, Note_on_c, 9, 42, 40
8, 124991, Note_off_c, 9, 38, 64
8, 124992, Note_off_c, 9, 42, 64
8, 124992, Note_on_c, 9, 42, 40
8, 125184, Note_off_c, 9, 42, 64
8, 125184, Note_on_c, 9, 36, 120
8, 125184, Note_on_c, 9, 42, 40
8, 125376, Note_off_c, 9, 42, 64
8, 125376, Note_on_c, 9, 42, 40
8, 125567, Note_off_c, 9, 36, 64
8, 125568, Note_off_c, 9, 42, 64
8, 125568, Note_on_c, 9, 36, 120
8, 125568, Note_on_c, 9, 42, 40
8, 125760, Note_off_c, 9, 42, 64
8, 125760, Note_on_c, 9, 38, 120
8, 125760, Note_on_c, 9, 49, 60
8, 125951, Note_off_c, 9, 38, 64
8, 125951, Note_off_c, 9, 36, 64
8, 125952, Note_off_c, 9, 49, 64
8, 125952, Note_on_c, 9, 42, 40
8, 125952, Note_on_c, 9, 36, 120
8, 126144, Note_off_c, 9, 42, 64
8, 126144, Note_on_c, 9, 42, 40
8, 126335, Note_off_c, 9, 36, 64
8, 126336, Note_off_c, 9, 42, 64
8, 126336, Note_on_c, 9, 42, 40
8, 126336, Note_on_c, 9, 38, 120
8, 126527, Note_off_c, 9, 38, 64
8, 126528, Note_off_c, 9, 42, 64
8, 126528, Note_on_c, 9, 42, 40
8, 126720, Note_off_c, 9, 42, 64
8, 126720, Note_on_c, 9, 42, 40
8, 126720, Note_on_c, 9, 36, 120
8, 126911, Note_off_c, 9, 36, 64
8, 126912, Note_off_c, 9, 42, 64
8, 126912, Note_on_c, 9, 42, 40
8, 126912, Note_on_c, 9, 36, 120
8, 127103, Note_off_c, 9, 36, 64
8, 127104, Note_off_c, 9, 42, 64
8, 127104, Note_on_c, 9, 42, 40
8, 127104, Note_on_c, 9, 38, 120
8, 127295, Note_off_c, 9, 38, 64
8, 127296, Note_off_c, 9, 42, 64
8, 127296, Note_on_c, 9, 36, 120
8, 127296, Note_on_c, 9, 42, 40
8, 127487, Note_off_c, 9, 36, 64
8, 127488, Note_off_c, 9, 42, 64
8, 127488, Note_on_c, 9, 49, 60
8, 127488, Note_on_c, 9, 36, 120
8, 127680, Note_off_c, 9, 49, 64
8, 127871, Note_off_c, 9, 36, 64
8, 127872, Note_on_c, 9, 38, 120
8, 127872, Note_on_c, 9, 42, 40
8, 128063, Note_off_c, 9, 38, 64
8, 128064, Note_off_c, 9, 42, 64
8, 128064, Note_on_c, 9, 42, 40
8, 128256, Note_off_c, 9, 42, 64
8, 128256, Note_on_c, 9, 36, 120
8, 128256, Note_on_c, 9, 42, 40
8, 128448, Note_off_c, 9, 42, 64
8, 128448, Note_on_c, 9, 42, 40
8, 128639, Note_off_c, 9, 36, 64
8, 128640, Note_off_c, 9, 42, 64
8, 128640, Note_on_c, 9, 36, 120
8, 128640, Note_on_c, 9, 42, 40
8, 128832, Note_off_c, 9, 42, 64
8, 128832, Note_on_c, 9, 38, 120
8, 128832, Note_on_c, 9, 49, 60
8, 129023, Note_off_c, 9, 38, 64
8, 129023, Note_off_c, 9, 36, 64
8, 129024, Note_off_c, 9, 49, 64
8, 129024, Note_on_c, 9, 42, 40
8, 129024, Note_on_c, 9, 36, 120
8, 129216, Note_off_c, 9, 42, 64
8, 129216, Note_on_c, 9, 42, 40
8, 129407, Note_off_c, 9, 36, 64
8, 129408, Note_off_c, 9, 42, 64
8, 129408, Note_on_c, 9, 42, 40
8, 129408, Note_on_c, 9, 38, 120
8, 129599, Note_off_c, 9, 38, 64
8, 129600, Note_off_c, 9, 42, 64
8, 129600, Note_on_c, 9, 42, 40
8, 129792, Note_off_c, 9, 42, 64
8, 129792, Note_on_c, 9, 42, 40
8, 129792, Note_on_c, 9, 36, 120
8, 129983, Note_off_c, 9, 36, 64
8, 129984, Note_off_c, 9, 42, 64
8, 129984, Note_on_c, 9, 42, 40
8, 129984, Note_on_c, 9, 36, 120
8, 130175, Note_off_c, 9, 36, 64
8, 130176, Note_off_c, 9, 42, 64
8, 130176, Note_on_c, 9, 42, 40
8, 130176, Note_on_c, 9, 38, 120
8, 130367, Note_off_c, 9, 38, 64
8, 130368, Note_off_c, 9, 42, 64
8, 130368, Note_on_c, 9, 36, 120
8, 130368, Note_on_c, 9, 42, 40
8, 130559, Note_off_c, 9, 36, 64
8, 130560, Note_off_c, 9, 42, 64
8, 130560, Note_on_c, 9, 49, 60
8, 130560, Note_on_c, 9, 36, 120
8, 130752, Note_off_c, 9, 49, 64
8, 130943, Note_off_c, 9, 36, 64
8, 131904, Note_on_c, 9, 49, 60
8, 131904, Note_on_c, 9, 36, 120
8, 132095, Note_off_c, 9, 36, 64
8, 132096, Note_off_c, 9, 49, 64
8, 132288, Note_on_c, 9, 36, 120
8, 132479, Note_off_c, 9, 36, 64
8, 132480, Note_on_c, 9, 38, 120
8, 132489, Note_on_c, 9, 38, 120
8, 132672, Note_on_c, 9, 36, 120
8, 132863, Note_off_c, 9, 36, 64
8, 132863, Note_off_c, 9, 38, 64
8, 132864, Note_on_c, 9, 38, 120
8, 132872, Note_off_c, 9, 38, 64
8, 132873, Note_on_c, 9, 38, 120
8, 133056, Note_on_c, 9, 36, 120
8, 133247, Note_off_c, 9, 36, 64
8, 133247, Note_off_c, 9, 38, 64
8, 133248, Note_on_c, 9, 38, 120
8, 133256, Note_off_c, 9, 38, 64
8, 133257, Note_on_c, 9, 38, 120
8, 133440, Note_on_c, 9, 49, 60
8, 133440, Note_on_c, 9, 36, 120
8, 133631, Note_off_c, 9, 36, 64
8, 133631, Note_off_c, 9, 38, 64
8, 133632, Note_off_c, 9, 49, 64
8, 133632, Note_on_c, 9, 42, 40
8, 133640, Note_off_c, 9, 38, 64
8, 133824, Note_off_c, 9, 42, 64
8, 133824, Note_on_c, 9, 42, 40
8, 134016, Note_off_c, 9, 42, 64
8, 134016, Note_on_c, 9, 42, 40
8, 134016, Note_on_c, 9, 38, 120
8, 134208, Note_off_c, 9, 38, 64
8, 134208, Note_off_c, 9, 42, 64
8, 134208, Note_on_c, 9, 42, 40
8, 134400, Note_off_c, 9, 42, 64
8, 134400, Note_on_c, 9, 36, 120
8, 134400, Note_on_c, 9, 42, 40
8, 134592, Note_off_c, 9, 42, 64
8, 134592, Note_on_c, 9, 42, 40
8, 134783, Note_off_c, 9, 36, 64
8, 134784, Note_off_c, 9, 42, 64
8, 134784, Note_on_c, 9, 42, 40
8, 134784, Note_on_c, 9, 38, 120
8, 134976, Note_off_c, 9, 38, 64
8, 134976, Note_off_c, 9, 42, 64
8, 134976, Note_on_c, 9, 42, 40
8, 135168, Note_off_c, 9, 42, 64
8, 135168, Note_on_c, 9, 36, 120
8, 135168, Note_on_c, 9, 42, 40
8, 135360, Note_off_c, 9, 42, 64
8, 135360, Note_on_c, 9, 42, 40
8, 135551, Note_off_c, 9, 36, 64
8, 135552, Note_off_c, 9, 42, 64
8, 135552, Note_on_c, 9, 42, 40
8, 135552, Note_on_c, 9, 38, 120
8, 135744, Note_off_c, 9, 38, 64
8, 135744, Note_off_c, 9, 42, 64
8, 135744, Note_on_c, 9, 42, 40
8, 135936, Note_off_c, 9, 42, 64
8, 135936, Note_on_c, 9, 36, 120
8, 135936, Note_on_c, 9, 42, 40
8, 136128, Note_off_c, 9, 42, 64
8, 136128, Note_on_c, 9, 42, 40
8, 136319, Note_off_c, 9, 36, 64
8, 136320, Note_off_c, 9, 42, 64
8, 136320, Note_on_c, 9, 42, 40
8, 136320, Note_on_c, 9, 38, 120
8, 136512, Note_off_c, 9, 38, 64
8, 136512, Note_off_c, 9, 42, 64
8, 136512, Note_on_c, 9, 42, 40
8, 136704, Note_off_c, 9, 42, 64
8, 136704, Note_on_c, 9, 36, 120
8, 136704, Note_on_c, 9, 42, 40
8, 136896, Note_off_c, 9, 42, 64
8, 136896, Note_on_c, 9, 42, 40
8, 137087, Note_off_c, 9, 36, 64
8, 137088, Note_off_c, 9, 42, 64
8, 137088, Note_on_c, 9, 42, 40
8, 137088, Note_on_c, 9, 38, 120
8, 137280, Note_off_c, 9, 38, 64
8, 137280, Note_off_c, 9, 42, 64
8, 137280, Note_on_c, 9, 42, 40
8, 137472, Note_off_c, 9, 42, 64
8, 137472, Note_on_c, 9, 36, 120
8, 137472, Note_on_c, 9, 42, 40
8, 137664, Note_off_c, 9, 42, 64
8, 137664, Note_on_c, 9, 42, 40
8, 137855, Note_off_c, 9, 36, 64
8, 137856, Note_off_c, 9, 42, 64
8, 137856, Note_on_c, 9, 42, 40
8, 137856, Note_on_c, 9, 38, 120
8, 138048, Note_off_c, 9, 38, 64
8, 138048, Note_off_c, 9, 42, 64
8, 138048, Note_on_c, 9, 42, 40
8, 138240, Note_off_c, 9, 42, 64
8, 138240, Note_on_c, 9, 36, 120
8, 138240, Note_on_c, 9, 42, 40
8, 138432, Note_off_c, 9, 42, 64
8, 138432, Note_on_c, 9, 42, 40
8, 138623, Note_off_c, 9, 36, 64
8, 138624, Note_off_c, 9, 42, 64
8, 138624, Note_on_c, 9, 42, 40
8, 138624, Note_on_c, 9, 38, 120
8, 138816, Note_off_c, 9, 38, 64
8, 138816, Note_off_c, 9, 42, 64
8, 138816, Note_on_c, 9, 36, 120
8, 138816, Note_on_c, 9, 42, 40
8, 139007, Note_off_c, 9, 36, 64
8, 139008, Note_off_c, 9, 42, 64
8, 139008, Note_on_c, 9, 42, 40
8, 139200, Note_off_c, 9, 42, 64
8, 139200, Note_on_c, 9, 36, 120
8, 139200, Note_on_c, 9, 42, 40
8, 139391, Note_off_c, 9, 36, 64
8, 139392, Note_off_c, 9, 42, 64
8, 139392, Note_on_c, 9, 42, 40
8, 139392, Note_on_c, 9, 38, 120
8, 139584, Note_off_c, 9, 38, 64
8, 139584, Note_off_c, 9, 42, 64
8, 139584, Note_on_c, 9, 49, 60
8, 139584, Note_on_c, 9, 36, 120
8, 139775, Note_off_c, 9, 36, 64
8, 139776, Note_off_c, 9, 49, 64
8, 139776, Note_on_c, 9, 42, 40
8, 139968, Note_off_c, 9, 42, 64
8, 139968, Note_on_c, 9, 42, 40
8, 140160, Note_off_c, 9, 42, 64
8, 140160, Note_on_c, 9, 42, 40
8, 140160, Note_on_c, 9, 38, 120
8, 140352, Note_off_c, 9, 38, 64
8, 140352, Note_off_c, 9, 42, 64
8, 140352, Note_on_c, 9, 42, 40
8, 140544, Note_off_c, 9, 42, 64
8, 140544, Note_on_c, 9, 36, 120
8, 140544, Note_on_c, 9, 42, 40
8, 140736, Note_off_c, 9, 42, 64
8, 140736, Note_on_c, 9, 42, 40
8, 140927, Note_off_c, 9, 36, 64
8, 140928, Note_off_c, 9, 42, 64
8, 140928, Note_on_c, 9, 42, 40
8, 140928, Note_on_c, 9, 38, 120
8, 141120, Note_off_c, 9, 38, 64
8, 141120, Note_off_c, 9, 42, 64
8, 141120, Note_on_c, 9, 42, 40
8, 141312, Note_off_c, 9, 42, 64
8, 141312, Note_on_c, 9, 36, 120
8, 141312, Note_on_c, 9, 42, 40
8, 141504, Note_off_c, 9, 42, 64
8, 141504, Note_on_c, 9, 42, 40
8, 141695, Note_off_c, 9, 36, 64
8, 141696, Note_off_c, 9, 42, 64
8, 141696, Note_on_c, 9, 42, 40
8, 141696, Note_on_c, 9, 38, 120
8, 141888, Note_off_c, 9, 38, 64
8, 141888, Note_off_c, 9, 42, 64
8, 141888, Note_on_c, 9, 42, 40
8, 142080, Note_off_c, 9, 42, 64
8, 142080, Note_on_c, 9, 36, 120
8, 142080, Note_on_c, 9, 42, 40
8, 142272, Note_off_c, 9, 42, 64
8, 142272, Note_on_c, 9, 42, 40
8, 142463, Note_off_c, 9, 36, 64
8, 142464, Note_off_c, 9, 42, 64
8, 142464, Note_on_c, 9, 42, 40
8, 142464, Note_on_c, 9, 38, 120
8, 142656, Note_off_c, 9, 38, 64
8, 142656, Note_off_c, 9, 42, 64
8, 142656, Note_on_c, 9, 42, 40
8, 142848, Note_off_c, 9, 42, 64
8, 142848, Note_on_c, 9, 36, 120
8, 142848, Note_on_c, 9, 42, 40
8, 143040, Note_off_c, 9, 42, 64
8, 143040, Note_on_c, 9, 42, 40
8, 143231, Note_off_c, 9, 36, 64
8, 143232, Note_off_c, 9, 42, 64
8, 143232, Note_on_c, 9, 42, 40
8, 143232, Note_on_c, 9, 38, 120
8, 143424, Note_off_c, 9, 38, 64
8, 143424, Note_off_c, 9, 42, 64
8, 143424, Note_on_c, 9, 42, 40
8, 143616, Note_off_c, 9, 42, 64
8, 143616, Note_on_c, 9, 36, 120
8, 143616, Note_on_c, 9, 42, 40
8, 143808, Note_off_c, 9, 42, 64
8, 143808, Note_on_c, 9, 38, 120
8, 143808, Note_on_c, 9, 42, 40
8, 143999, Note_off_c, 9, 36, 64
8, 144000, Note_off_c, 9, 42, 64
8, 144000, Note_off_c, 9, 38, 64
8, 144000, Note_on_c, 9, 48, 120
8, 144000, Note_on_c, 9, 42, 40
8, 144192, Note_off_c, 9, 42, 64
8, 144192, Note_off_c, 9, 48, 64
8, 144192, Note_on_c, 9, 36, 120
8, 144192, Note_on_c, 9, 42, 40
8, 144383, Note_off_c, 9, 36, 64
8, 144384, Note_off_c, 9, 42, 64
8, 144384, Note_on_c, 9, 38, 120
8, 144384, Note_on_c, 9, 42, 40
8, 144576, Note_off_c, 9, 42, 64
8, 144576, Note_off_c, 9, 38, 64
8, 144576, Note_on_c, 9, 38, 120
8, 144576, Note_on_c, 9, 42, 40
8, 144768, Note_off_c, 9, 42, 64
8, 144768, Note_off_c, 9, 38, 64
8, 144768, Note_on_c, 9, 36, 120
8, 144768, Note_on_c, 9, 42, 40
8, 144959, Note_off_c, 9, 36, 64
8, 144960, Note_off_c, 9, 42, 64
8, 144960, Note_on_c, 9, 36, 120
8, 144960, Note_on_c, 9, 42, 40
8, 145151, Note_off_c, 9, 36, 64
8, 145152, Note_off_c, 9, 42, 64
8, 145152, Note_on_c, 9, 36, 120
8, 145152, Note_on_c, 9, 42, 40
8, 145343, Note_off_c, 9, 36, 64
8, 145344, Note_off_c, 9, 42, 64
8, 145344, Note_on_c, 9, 36, 120
8, 145344, Note_on_c, 9, 42, 40
8, 145535, Note_off_c, 9, 36, 64
8, 145536, Note_off_c, 9, 42, 64
8, 145536, Note_on_c, 9, 42, 40
8, 145536, Note_on_c, 9, 38, 120
8, 145728, Note_off_c, 9, 38, 64
8, 145728, Note_off_c, 9, 42, 64
8, 145728, Note_on_c, 9, 49, 60
8, 145728, Note_on_c, 9, 36, 120
8, 145919, Note_off_c, 9, 36, 64
8, 145919, Note_off_c, 9, 49, 64
8, 145920, Note_on_c, 9, 42, 40
8, 146112, Note_off_c, 9, 42, 64
8, 146112, Note_on_c, 9, 42, 40
8, 146304, Note_off_c, 9, 42, 64
8, 146304, Note_on_c, 9, 42, 40
8, 146496, Note_off_c, 9, 42, 64
8, 146496, Note_on_c, 9, 42, 40
8, 146688, Note_off_c, 9, 42, 64
8, 146688, Note_on_c, 9, 38, 120
8, 146688, Note_on_c, 9, 42, 40
8, 146880, Note_off_c, 9, 42, 64
8, 146880, Note_off_c, 9, 38, 64
8, 146880, Note_on_c, 9, 42, 40
8, 147072, Note_off_c, 9, 42, 64
8, 147072, Note_on_c, 9, 42, 40
8, 147264, Note_off_c, 9, 42, 64
8, 147264, Note_on_c, 9, 49, 60
8, 147264, Note_on_c, 9, 36, 120
8, 147455, Note_off_c, 9, 36, 64
8, 147456, Note_off_c, 9, 49, 64
8, 147456, Note_on_c, 9, 42, 40
8, 147648, Note_off_c, 9, 42, 64
8, 147648, Note_on_c, 9, 42, 40
8, 147840, Note_off_c, 9, 42, 64
8, 147840, Note_on_c, 9, 42, 40
8, 148032, Note_off_c, 9, 42, 64
8, 148032, Note_on_c, 9, 42, 40
8, 148224, Note_off_c, 9, 42, 64
8, 148224, Note_on_c, 9, 38, 120
8, 148224, Note_on_c, 9, 42, 40
8, 148416, Note_off_c, 9, 42, 64
8, 148416, Note_off_c, 9, 38, 64
8, 148416, Note_on_c, 9, 42, 40
8, 148608, Note_off_c, 9, 42, 64
8, 148608, Note_on_c, 9, 42, 40
8, 148800, Note_off_c, 9, 42, 64
8, 148800, Note_on_c, 9, 49, 60
8, 148800, Note_on_c, 9, 36, 120
8, 148991, Note_off_c, 9, 36, 64
8, 148992, Note_off_c, 9, 49, 64
8, 148992, Note_on_c, 9, 42, 40
8, 149184, Note_off_c, 9, 42, 64
8, 149184, Note_on_c, 9, 42, 40
8, 149376, Note_off_c, 9, 42, 64
8, 149376, Note_on_c, 9, 42, 40
8, 149568, Note_off_c, 9, 42, 64
8, 149568, Note_on_c, 9, 42, 40
8, 149760, Note_off_c, 9, 42, 64
8, 149760, Note_on_c, 9, 38, 120
8, 149760, Note_on_c, 9, 42, 40
8, 149952, Note_off_c, 9, 42, 64
8, 149952, Note_off_c, 9, 38, 64
8, 149952, Note_on_c, 9, 42, 40
8, 150144, Note_off_c, 9, 42, 64
8, 150144, Note_on_c, 9, 42, 40
8, 150336, Note_off_c, 9, 42, 64
8, 150336, Note_on_c, 9, 42, 40
8, 150528, Note_off_c, 9, 42, 64
8, 150528, Note_on_c, 9, 38, 120
8, 150528, Note_on_c, 9, 43, 120
8, 150528, Note_on_c, 9, 36, 120
8, 150719, Note_off_c, 9, 43, 64
8, 150719, Note_off_c, 9, 38, 64
8, 150720, Note_on_c, 9, 38, 120
8, 150720, Note_on_c, 9, 43, 120
8, 150911, Note_off_c, 9, 43, 64
8, 150911, Note_off_c, 9, 38, 64
8, 150911, Note_off_c, 9, 36, 64
8, 150912, Note_on_c, 9, 38, 120
8, 150912, Note_on_c, 9, 43, 120
8, 150912, Note_on_c, 9, 36, 120
8, 151103, Note_off_c, 9, 43, 64
8, 151103, Note_off_c, 9, 38, 64
8, 151104, Note_on_c, 9, 38, 120
8, 151104, Note_on_c, 9, 43, 120
8, 151295, Note_off_c, 9, 43, 64
8, 151295, Note_off_c, 9, 38, 64
8, 151295, Note_off_c, 9, 36, 64
8, 151296, Note_on_c, 9, 38, 120
8, 151296, Note_on_c, 9, 43, 120
8, 151296, Note_on_c, 9, 36, 120
8, 151487, Note_off_c, 9, 43, 64
8, 151487, Note_off_c, 9, 38, 64
8, 151488, Note_on_c, 9, 38, 120
8, 151488, Note_on_c, 9, 43, 120
8, 151679, Note_off_c, 9, 43, 64
8, 151679, Note_off_c, 9, 38, 64
8, 151679, Note_off_c, 9, 36, 64
8, 151680, Note_on_c, 9, 49, 60
8, 151680, Note_on_c, 9, 38, 120
8, 152063, Note_off_c, 9, 38, 64
8, 152063, Note_off_c, 9, 49, 64
8, 152064, Note_on_c, 9, 36, 120
8, 152064, Note_on_c, 9, 49, 60
8, 152447, Note_off_c, 9, 36, 64
8, 152448, Note_off_c, 9, 49, 64
8, 152448, Note_on_c, 9, 38, 120
8, 152448, Note_on_c, 9, 42, 40
8, 152639, Note_off_c, 9, 38, 64
8, 152640, Note_off_c, 9, 42, 64
8, 152640, Note_on_c, 9, 42, 40
8, 152832, Note_off_c, 9, 42, 64
8, 152832, Note_on_c, 9, 36, 120
8, 152832, Note_on_c, 9, 42, 40
8, 153024, Note_off_c, 9, 42, 64
8, 153024, Note_on_c, 9, 42, 40
8, 153215, Note_off_c, 9, 36, 64
8, 153216, Note_off_c, 9, 42, 64
8, 153216, Note_on_c, 9, 38, 120
8, 153216, Note_on_c, 9, 42, 40
8, 153407, Note_off_c, 9, 38, 64
8, 153408, Note_off_c, 9, 42, 64
8, 153408, Note_on_c, 9, 42, 40
8, 153600, Note_off_c, 9, 42, 64
8, 153600, Note_on_c, 9, 42, 40
8, 153600, Note_on_c, 9, 36, 120
8, 153792, Note_off_c, 9, 42, 64
8, 153792, Note_on_c, 9, 42, 40
8, 153983, Note_off_c, 9, 36, 64
8, 153984, Note_off_c, 9, 42, 64
8, 153984, Note_on_c, 9, 42, 40
8, 153984, Note_on_c, 9, 38, 120
8, 154175, Note_off_c, 9, 38, 64
8, 154176, Note_off_c, 9, 42, 64
8, 154176, Note_on_c, 9, 42, 40
8, 154368, Note_off_c, 9, 42, 64
8, 154368, Note_on_c, 9, 42, 40
8, 154368, Note_on_c, 9, 36, 120
8, 154559, Note_off_c, 9, 36, 64
8, 154560, Note_off_c, 9, 42, 64
8, 154560, Note_on_c, 9, 42, 40
8, 154560, Note_on_c, 9, 36, 120
8, 154751, Note_off_c, 9, 36, 64
8, 154752, Note_off_c, 9, 42, 64
8, 154752, Note_on_c, 9, 42, 40
8, 154752, Note_on_c, 9, 38, 120
8, 154943, Note_off_c, 9, 38, 64
8, 154944, Note_off_c, 9, 42, 64
8, 154944, Note_on_c, 9, 42, 40
8, 155136, Note_off_c, 9, 42, 64
8, 155136, Note_on_c, 9, 42, 40
8, 155136, Note_on_c, 9, 36, 120
8, 155328, Note_off_c, 9, 42, 64
8, 155328, Note_on_c, 9, 42, 40
8, 155519, Note_off_c, 9, 36, 64
8, 155520, Note_off_c, 9, 42, 64
8, 155520, Note_on_c, 9, 38, 120
8, 155520, Note_on_c, 9, 42, 40
8, 155711, Note_off_c, 9, 38, 64
8, 155712, Note_off_c, 9, 42, 64
8, 155712, Note_on_c, 9, 42, 40
8, 155904, Note_off_c, 9, 42, 64
8, 155904, Note_on_c, 9, 36, 120
8, 155904, Note_on_c, 9, 42, 40
8, 156096, Note_off_c, 9, 42, 64
8, 156096, Note_on_c, 9, 42, 40
8, 156287, Note_off_c, 9, 36, 64
8, 156288, Note_off_c, 9, 42, 64
8, 156288, Note_on_c, 9, 36, 120
8, 156288, Note_on_c, 9, 42, 40
8, 156480, Note_off_c, 9, 42, 64
8, 156480, Note_on_c, 9, 38, 120
8, 156480, Note_on_c, 9, 49, 60
8, 156671, Note_off_c, 9, 38, 64
8, 156671, Note_off_c, 9, 36, 64
8, 156672, Note_off_c, 9, 49, 64
8, 156672, Note_on_c, 9, 42, 40
8, 156672, Note_on_c, 9, 36, 120
8, 156864, Note_off_c, 9, 42, 64
8, 156864, Note_on_c, 9, 42, 40
8, 157055, Note_off_c, 9, 36, 64
8, 157056, Note_off_c, 9, 42, 64
8, 157056, Note_on_c, 9, 42, 40
8, 157056, Note_on_c, 9, 38, 120
8, 157247, Note_off_c, 9, 38, 64
8, 157248, Note_off_c, 9, 42, 64
8, 157248, Note_on_c, 9, 42, 40
8, 157440, Note_off_c, 9, 42, 64
8, 157440, Note_on_c, 9, 42, 40
8, 157440, Note_on_c, 9, 36, 120
8, 157631, Note_off_c, 9, 36, 64
8, 157632, Note_off_c, 9, 42, 64
8, 157632, Note_on_c, 9, 42, 40
8, 157632, Note_on_c, 9, 36, 120
8, 157823, Note_off_c, 9, 36, 64
8, 157824, Note_off_c, 9, 42, 64
8, 157824, Note_on_c, 9, 42, 40
8, 157824, Note_on_c, 9, 38, 120
8, 158015, Note_off_c, 9, 38, 64
8, 158016, Note_off_c, 9, 42, 64
8, 158016, Note_on_c, 9, 36, 120
8, 158016, Note_on_c, 9, 42, 40
8, 158207, Note_off_c, 9, 36, 64
8, 158208, Note_off_c, 9, 42, 64
8, 158208, Note_on_c, 9, 49, 60
8, 158208, Note_on_c, 9, 36, 120
8, 158400, Note_off_c, 9, 49, 64
8, 158591, Note_off_c, 9, 36, 64
8, 158592, Note_on_c, 9, 38, 120
8, 158592, Note_on_c, 9, 42, 40
8, 158783, Note_off_c, 9, 38, 64
8, 158784, Note_off_c, 9, 42, 64
8, 158784, Note_on_c, 9, 42, 40
8, 158976, Note_off_c, 9, 42, 64
8, 158976, Note_on_c, 9, 36, 120
8, 158976, Note_on_c, 9, 42, 40
8, 159168, Note_off_c, 9, 42, 64
8, 159168, Note_on_c, 9, 42, 40
8, 159359, Note_off_c, 9, 36, 64
8, 159360, Note_off_c, 9, 42, 64
8, 159360, Note_on_c, 9, 36, 120
8, 159360, Note_on_c, 9, 42, 40
8, 159552, Note_off_c, 9, 42, 64
8, 159552, Note_on_c, 9, 38, 120
8, 159552, Note_on_c, 9, 49, 60
8, 159743, Note_off_c, 9, 38, 64
8, 159743, Note_off_c, 9, 36, 64
8, 159744, Note_off_c, 9, 49, 64
8, 159744, Note_on_c, 9, 42, 40
8, 159744, Note_on_c, 9, 36, 120
8, 159936, Note_off_c, 9, 42, 64
8, 159936, Note_on_c, 9, 42, 40
8, 160127, Note_off_c, 9, 36, 64
8, 160128, Note_off_c, 9, 42, 64
8, 160128, Note_on_c, 9, 42, 40
8, 160128, Note_on_c, 9, 38, 120
8, 160319, Note_off_c, 9, 38, 64
8, 160320, Note_off_c, 9, 42, 64
8, 160320, Note_on_c, 9, 42, 40
8, 160512, Note_off_c, 9, 42, 64
8, 160512, Note_on_c, 9, 42, 40
8, 160512, Note_on_c, 9, 36, 120
8, 160703, Note_off_c, 9, 36, 64
8, 160704, Note_off_c, 9, 42, 64
8, 160704, Note_on_c, 9, 42, 40
8, 160704, Note_on_c, 9, 36, 120
8, 160895, Note_off_c, 9, 36, 64
8, 160896, Note_off_c, 9, 42, 64
8, 160896, Note_on_c, 9, 42, 40
8, 160896, Note_on_c, 9, 38, 120
8, 161087, Note_off_c, 9, 38, 64
8, 161088, Note_off_c, 9, 42, 64
8, 161088, Note_on_c, 9, 36, 120
8, 161088, Note_on_c, 9, 42, 40
8, 161279, Note_off_c, 9, 36, 64
8, 161280, Note_off_c, 9, 42, 64
8, 161280, Note_on_c, 9, 49, 60
8, 161280, Note_on_c, 9, 36, 120
8, 161663, Note_off_c, 9, 36, 64
8, 161664, Note_off_c, 9, 49, 64
8, 162816, Note_on_c, 9, 41, 120
8, 162816, Note_on_c, 9, 36, 120
8, 163008, Note_off_c, 9, 41, 64
8, 163008, Note_on_c, 9, 41, 120
8, 163199, Note_off_c, 9, 36, 64
8, 163200, Note_off_c, 9, 41, 64
8, 163200, Note_on_c, 9, 45, 120
8, 163200, Note_on_c, 9, 41, 120
8, 163200, Note_on_c, 9, 36, 120
8, 163392, Note_off_c, 9, 41, 64
8, 163392, Note_off_c, 9, 45, 64
8, 163392, Note_on_c, 9, 41, 120
8, 163583, Note_off_c, 9, 36, 64
8, 163584, Note_off_c, 9, 41, 64
8, 163584, Note_on_c, 9, 41, 120
8, 163584, Note_on_c, 9, 36, 120
8, 163776, Note_off_c, 9, 41, 64
8, 163776, Note_on_c, 9, 41, 120
8, 163967, Note_off_c, 9, 36, 64
8, 163968, Note_off_c, 9, 41, 64
8, 163968, Note_on_c, 9, 45, 120
8, 163968, Note_on_c, 9, 41, 120
8, 163968, Note_on_c, 9, 36, 120
8, 164160, Note_off_c, 9, 41, 64
8, 164160, Note_off_c, 9, 45, 64
8, 164160, Note_on_c, 9, 45, 120
8, 164160, Note_on_c, 9, 41, 120
8, 164351, Note_off_c, 9, 36, 64
8, 164352, Note_off_c, 9, 41, 64
8, 164352, Note_off_c, 9, 45, 64
8, 164352, Note_on_c, 9, 41, 120
8, 164352, Note_on_c, 9, 36, 120
8, 164544, Note_off_c, 9, 41, 64
8, 164544, Note_on_c, 9, 41, 120
8, 164735, Note_off_c, 9, 36, 64
8, 164736, Note_off_c, 9, 41, 64
8, 164736, Note_on_c, 9, 45, 120
8, 164736, Note_on_c, 9, 41, 120
8, 164736, Note_on_c, 9, 36, 120
8, 164928, Note_off_c, 9, 41, 64
8, 164928, Note_off_c, 9, 45, 64
8, 164928, Note_on_c, 9, 41, 120
8, 165119, Note_off_c, 9, 36, 64
8, 165120, Note_off_c, 9, 41, 64
8, 165120, Note_on_c, 9, 41, 120
8, 165120, Note_on_c, 9, 36, 120
8, 165312, Note_off_c, 9, 41, 64
8, 165312, Note_on_c, 9, 41, 120
8, 165503, Note_off_c, 9, 36, 64
8, 165504, Note_off_c, 9, 41, 64
8, 165504, Note_on_c, 9, 45, 120
8, 165504, Note_on_c, 9, 41, 120
8, 165504, Note_on_c, 9, 36, 120
8, 165696, Note_off_c, 9, 41, 64
8, 165696, Note_off_c, 9, 45, 64
8, 165696, Note_on_c, 9, 45, 120
8, 165696, Note_on_c, 9, 41, 120
8, 165887, Note_off_c, 9, 36, 64
8, 165888, Note_off_c, 9, 41, 64
8, 165888, Note_off_c, 9, 45, 64
8, 165888, Note_on_c, 9, 41, 120
8, 165888, Note_on_c, 9, 36, 120
8, 166080, Note_off_c, 9, 41, 64
8, 166080, Note_on_c, 9, 41, 120
8, 166271, Note_off_c, 9, 36, 64
8, 166272, Note_off_c, 9, 41, 64
8, 166272, Note_on_c, 9, 45, 120
8, 166272, Note_on_c, 9, 41, 120
8, 166272, Note_on_c, 9, 36, 120
8, 166464, Note_off_c, 9, 41, 64
8, 166464, Note_off_c, 9, 45, 64
8, 166464, Note_on_c, 9, 41, 120
8, 166655, Note_off_c, 9, 36, 64
8, 166656, Note_off_c, 9, 41, 64
8, 166656, Note_on_c, 9, 41, 120
8, 166656, Note_on_c, 9, 36, 120
8, 166848, Note_off_c, 9, 41, 64
8, 166848, Note_on_c, 9, 41, 120
8, 167039, Note_off_c, 9, 36, 64
8, 167040, Note_off_c, 9, 41, 64
8, 167040, Note_on_c, 9, 45, 120
8, 167040, Note_on_c, 9, 41, 120
8, 167040, Note_on_c, 9, 36, 120
8, 167232, Note_off_c, 9, 41, 64
8, 167232, Note_off_c, 9, 45, 64
8, 167232, Note_on_c, 9, 45, 120
8, 167232, Note_on_c, 9, 41, 120
8, 167423, Note_off_c, 9, 36, 64
8, 167424, Note_off_c, 9, 41, 64
8, 167424, Note_off_c, 9, 45, 64
8, 167424, Note_on_c, 9, 41, 120
8, 167424, Note_on_c, 9, 36, 120
8, 167616, Note_off_c, 9, 41, 64
8, 167616, Note_on_c, 9, 49, 60
8, 167616, Note_on_c, 9, 38, 120
8, 167807, Note_off_c, 9, 38, 64
8, 167807, Note_off_c, 9, 49, 64
8, 167807, Note_off_c, 9, 36, 64
8, 167808, Note_on_c, 9, 36, 120
8, 168000, Note_on_c, 9, 49, 60
8, 168000, Note_on_c, 9, 38, 120
8, 168191, Note_off_c, 9, 38, 64
8, 168191, Note_off_c, 9, 49, 64
8, 168191, Note_off_c, 9, 36, 64
8, 168192, Note_on_c, 9, 36, 120
8, 168384, Note_on_c, 9, 49, 60
8, 168384, Note_on_c, 9, 38, 120
8, 168575, Note_off_c, 9, 38, 64
8, 168575, Note_off_c, 9, 49, 64
8, 168575, Note_off_c, 9, 36, 64
8, 168576, Note_on_c, 9, 36, 120
8, 168768, Note_on_c, 9, 49, 60
8, 168768, Note_on_c, 9, 38, 120
8, 168959, Note_off_c, 9, 38, 64
8, 168959, Note_off_c, 9, 49, 64
8, 168959, Note_off_c, 9, 36, 64
8, 168960, Note_on_c, 9, 36, 120
8, 168960, Note_on_c, 9, 41, 120
8, 169343, Note_off_c, 9, 36, 64
8, 169344, Note_off_c, 9, 41, 64
8, 169344, Note_on_c, 9, 36, 120
8, 169344, Note_on_c, 9, 45, 120
8, 169344, Note_on_c, 9, 41, 120
8, 169536, Note_off_c, 9, 41, 64
8, 169536, Note_off_c, 9, 45, 64
8, 169536, Note_on_c, 9, 41, 120
8, 169727, Note_off_c, 9, 36, 64
8, 169728, Note_off_c, 9, 41, 64
8, 169728, Note_on_c, 9, 36, 120
8, 169728, Note_on_c, 9, 41, 120
8, 169920, Note_off_c, 9, 41, 64
8, 169920, Note_on_c, 9, 41, 120
8, 170111, Note_off_c, 9, 36, 64
8, 170112, Note_off_c, 9, 41, 64
8, 170112, Note_on_c, 9, 36, 120
8, 170112, Note_on_c, 9, 45, 120
8, 170112, Note_on_c, 9, 41, 120
8, 170304, Note_off_c, 9, 41, 64
8, 170304, Note_off_c, 9, 45, 64
8, 170304, Note_on_c, 9, 43, 120
8, 170304, Note_on_c, 9, 41, 120
8, 170495, Note_off_c, 9, 36, 64
8, 170496, Note_off_c, 9, 41, 64
8, 170496, Note_off_c, 9, 43, 64
8, 170496, Note_on_c, 9, 36, 120
8, 170496, Note_on_c, 9, 41, 120
8, 170879, Note_off_c, 9, 36, 64
8, 170880, Note_off_c, 9, 41, 64
8, 170880, Note_on_c, 9, 36, 120
8, 170880, Note_on_c, 9, 45, 120
8, 170880, Note_on_c, 9, 41, 120
8, 171072, Note_off_c, 9, 41, 64
8, 171072, Note_off_c, 9, 45, 64
8, 171072, Note_on_c, 9, 41, 120
8, 171263, Note_off_c, 9, 36, 64
8, 171264, Note_off_c, 9, 41, 64
8, 171264, Note_on_c, 9, 36, 120
8, 171264, Note_on_c, 9, 41, 120
8, 171456, Note_off_c, 9, 41, 64
8, 171456, Note_on_c, 9, 41, 120
8, 171647, Note_off_c, 9, 36, 64
8, 171648, Note_off_c, 9, 41, 64
8, 171648, Note_on_c, 9, 36, 120
8, 171648, Note_on_c, 9, 45, 120
8, 171648, Note_on_c, 9, 41, 120
8, 171840, Note_off_c, 9, 41, 64
8, 171840, Note_off_c, 9, 45, 64
8, 171840, Note_on_c, 9, 43, 120
8, 171840, Note_on_c, 9, 41, 120
8, 172031, Note_off_c, 9, 36, 64
8, 172032, Note_off_c, 9, 41, 64
8, 172032, Note_off_c, 9, 43, 64
8, 172032, Note_on_c, 9, 36, 120
8, 172032, Note_on_c, 9, 41, 120
8, 172415, Note_off_c, 9, 36, 64
8, 172416, Note_off_c, 9, 41, 64
8, 172416, Note_on_c, 9, 36, 120
8, 172416, Note_on_c, 9, 45, 120
8, 172416, Note_on_c, 9, 41, 120
8, 172608, Note_off_c, 9, 41, 64
8, 172608, Note_off_c, 9, 45, 64
8, 172608, Note_on_c, 9, 41, 120
8, 172799, Note_off_c, 9, 36, 64
8, 172800, Note_off_c, 9, 41, 64
8, 172800, Note_on_c, 9, 36, 120
8, 172800, Note_on_c, 9, 41, 120
8, 172992, Note_off_c, 9, 41, 64
8, 172992, Note_on_c, 9, 41, 120
8, 173183, Note_off_c, 9, 36, 64
8, 173184, Note_off_c, 9, 41, 64
8, 173184, Note_on_c, 9, 36, 120
8, 173184, Note_on_c, 9, 45, 120
8, 173184, Note_on_c, 9, 41, 120
8, 173376, Note_off_c, 9, 41, 64
8, 173376, Note_off_c, 9, 45, 64
8, 173376, Note_on_c, 9, 43, 120
8, 173376, Note_on_c, 9, 41, 120
8, 173567, Note_off_c, 9, 36, 64
8, 173568, Note_off_c, 9, 41, 64
8, 173568, Note_off_c, 9, 43, 64
8, 173568, Note_on_c, 9, 41, 120
8, 173568, Note_on_c, 9, 36, 120
8, 173760, Note_off_c, 9, 41, 64
8, 173760, Note_on_c, 9, 45, 120
8, 173760, Note_on_c, 9, 41, 120
8, 173951, Note_off_c, 9, 36, 64
8, 173952, Note_off_c, 9, 41, 64
8, 173952, Note_off_c, 9, 45, 64
8, 173952, Note_on_c, 9, 41, 120
8, 173952, Note_on_c, 9, 36, 120
8, 174144, Note_off_c, 9, 41, 64
8, 174144, Note_on_c, 9, 45, 120
8, 174144, Note_on_c, 9, 41, 120
8, 174335, Note_off_c, 9, 36, 64
8, 174336, Note_off_c, 9, 41, 64
8, 174336, Note_off_c, 9, 45, 64
8, 174336, Note_on_c, 9, 41, 120
8, 174336, Note_on_c, 9, 36, 120
8, 174528, Note_off_c, 9, 41, 64
8, 174528, Note_on_c, 9, 49, 60
8, 174528, Note_on_c, 9, 38, 120
8, 174719, Note_off_c, 9, 38, 64
8, 174719, Note_off_c, 9, 49, 64
8, 174719, Note_off_c, 9, 36, 64
8, 174720, Note_on_c, 9, 36, 120
8, 174912, Note_on_c, 9, 49, 60
8, 174912, Note_on_c, 9, 38, 120
8, 175103, Note_off_c, 9, 36, 64
8, 175104, Note_off_c, 9, 38, 64
8, 175104, Note_off_c, 9, 49, 64
8, 175104, Note_on_c, 9, 36, 120
8, 175104, Note_on_c, 9, 41, 120
8, 175296, Note_off_c, 9, 41, 64
8, 175296, Note_on_c, 9, 41, 120
8, 175487, Note_off_c, 9, 36, 64
8, 175488, Note_off_c, 9, 41, 64
8, 175488, Note_on_c, 9, 36, 120
8, 175488, Note_on_c, 9, 45, 120
8, 175488, Note_on_c, 9, 41, 120
8, 175680, Note_off_c, 9, 41, 64
8, 175680, Note_off_c, 9, 45, 64
8, 175680, Note_on_c, 9, 41, 120
8, 175871, Note_off_c, 9, 36, 64
8, 175872, Note_off_c, 9, 41, 64
8, 175872, Note_on_c, 9, 35, 120
8, 175872, Note_on_c, 9, 41, 120
8, 176064, Note_off_c, 9, 41, 64
8, 176064, Note_on_c, 9, 41, 120
8, 176255, Note_off_c, 9, 35, 64
8, 176256, Note_off_c, 9, 41, 64
8, 176256, Note_on_c, 9, 36, 120
8, 176256, Note_on_c, 9, 45, 120
8, 176256, Note_on_c, 9, 41, 120
8, 176448, Note_off_c, 9, 41, 64
8, 176448, Note_off_c, 9, 45, 64
8, 176448, Note_on_c, 9, 43, 120
8, 176448, Note_on_c, 9, 41, 120
8, 176639, Note_off_c, 9, 36, 64
8, 176640, Note_off_c, 9, 41, 64
8, 176640, Note_off_c, 9, 43, 64
8, 176640, Note_on_c, 9, 36, 120
8, 176640, Note_on_c, 9, 41, 120
8, 176832, Note_off_c, 9, 41, 64
8, 176832, Note_on_c, 9, 41, 120
8, 177023, Note_off_c, 9, 36, 64
8, 177024, Note_off_c, 9, 41, 64
8, 177024, Note_on_c, 9, 45, 120
8, 177024, Note_on_c, 9, 36, 120
8, 177024, Note_on_c, 9, 41, 120
8, 177216, Note_off_c, 9, 41, 64
8, 177216, Note_off_c, 9, 45, 64
8, 177216, Note_on_c, 9, 41, 120
8, 177407, Note_off_c, 9, 36, 64
8, 177408, Note_off_c, 9, 41, 64
8, 177408, Note_on_c, 9, 36, 120
8, 177408, Note_on_c, 9, 41, 120
8, 177600, Note_off_c, 9, 41, 64
8, 177600, Note_on_c, 9, 41, 120
8, 177791, Note_off_c, 9, 36, 64
8, 177792, Note_off_c, 9, 41, 64
8, 177792, Note_on_c, 9, 45, 120
8, 177792, Note_on_c, 9, 36, 120
8, 177792, Note_on_c, 9, 41, 120
8, 177984, Note_off_c, 9, 41, 64
8, 177984, Note_off_c, 9, 45, 64
8, 177984, Note_on_c, 9, 43, 120
8, 177984, Note_on_c, 9, 41, 120
8, 178175, Note_off_c, 9, 36, 64
8, 178176, Note_off_c, 9, 41, 64
8, 178176, Note_off_c, 9, 43, 64
8, 178176, Note_on_c, 9, 36, 120
8, 178176, Note_on_c, 9, 41, 120
8, 178368, Note_off_c, 9, 41, 64
8, 178368, Note_on_c, 9, 41, 120
8, 178559, Note_off_c, 9, 36, 64
8, 178560, Note_off_c, 9, 41, 64
8, 178560, Note_on_c, 9, 45, 120
8, 178560, Note_on_c, 9, 36, 120
8, 178560, Note_on_c, 9, 41, 120
8, 178752, Note_off_c, 9, 41, 64
8, 178752, Note_off_c, 9, 45, 64
8, 178752, Note_on_c, 9, 41, 120
8, 178943, Note_off_c, 9, 36, 64
8, 178944, Note_off_c, 9, 41, 64
8, 178944, Note_on_c, 9, 36, 120
8, 178944, Note_on_c, 9, 41, 120
8, 179136, Note_off_c, 9, 41, 64
8, 179136, Note_on_c, 9, 41, 120
8, 179327, Note_off_c, 9, 36, 64
8, 179328, Note_off_c, 9, 41, 64
8, 179328, Note_on_c, 9, 45, 120
8, 179328, Note_on_c, 9, 36, 120
8, 179328, Note_on_c, 9, 41, 120
8, 179520, Note_off_c, 9, 41, 64
8, 179520, Note_off_c, 9, 45, 64
8, 179520, Note_on_c, 9, 47, 120
8, 179616, Note_off_c, 9, 47, 64
8, 179616, Note_on_c, 9, 47, 120
8, 179711, Note_off_c, 9, 36, 64
8, 179712, Note_off_c, 9, 47, 64
8, 179712, Note_on_c, 9, 36, 120
8, 179712, Note_on_c, 9, 47, 120
8, 179808, Note_off_c, 9, 47, 64
8, 179808, Note_on_c, 9, 47, 120
8, 179904, Note_off_c, 9, 47, 64
8, 179904, Note_on_c, 9, 47, 120
8, 180000, Note_off_c, 9, 47, 64
8, 180000, Note_on_c, 9, 47, 120
8, 180095, Note_off_c, 9, 36, 64
8, 180096, Note_off_c, 9, 47, 64
8, 180096, Note_on_c, 9, 45, 120
8, 180096, Note_on_c, 9, 36, 120
8, 180288, Note_off_c, 9, 45, 64
8, 180288, Note_on_c, 9, 45, 120
8, 180384, Note_off_c, 9, 45, 64
8, 180384, Note_on_c, 9, 45, 120
8, 180479, Note_off_c, 9, 36, 64
8, 180480, Note_off_c, 9, 45, 64
8, 180480, Note_on_c, 9, 43, 120
8, 180480, Note_on_c, 9, 36, 120
8, 180576, Note_off_c, 9, 43, 64
8, 180576, Note_on_c, 9, 43, 120
8, 180672, Note_off_c, 9, 43, 64
8, 180672, Note_on_c, 9, 43, 120
8, 180768, Note_off_c, 9, 43, 64
8, 180768, Note_on_c, 9, 43, 120
8, 180863, Note_off_c, 9, 36, 64
8, 180864, Note_off_c, 9, 43, 64
8, 180864, Note_on_c, 9, 41, 120
8, 180864, Note_on_c, 9, 36, 120
8, 181056, Note_off_c, 9, 41, 64
8, 181056, Note_on_c, 9, 41, 120
8, 181247, Note_off_c, 9, 36, 64
8, 181248, Note_off_c, 9, 41, 64
8, 181248, Note_on_c, 9, 41, 120
8, 181248, Note_on_c, 9, 36, 120
8, 181440, Note_off_c, 9, 41, 64
8, 181440, Note_on_c, 9, 41, 120
8, 181631, Note_off_c, 9, 36, 64
8, 181632, Note_off_c, 9, 41, 64
8, 181632, Note_on_c, 9, 49, 60
8, 181632, Note_on_c, 9, 38, 120
8, 181632, Note_on_c, 9, 36, 120
8, 182015, Note_off_c, 9, 36, 64
8, 182015, Note_off_c, 9, 38, 64
8, 182015, Note_off_c, 9, 49, 64
8, 182016, Note_on_c, 9, 41, 120
8, 182016, Note_on_c, 9, 36, 120
8, 182208, Note_off_c, 9, 41, 64
8, 182208, Note_on_c, 9, 41, 120
8, 182399, Note_off_c, 9, 36, 64
8, 182400, Note_off_c, 9, 41, 64
8, 182400, Note_on_c, 9, 45, 120
8, 182400, Note_on_c, 9, 41, 120
8, 182400, Note_on_c, 9, 36, 120
8, 182592, Note_off_c, 9, 41, 64
8, 182592, Note_off_c, 9, 45, 64
8, 182592, Note_on_c, 9, 41, 120
8, 182783, Note_off_c, 9, 36, 64
8, 182784, Note_off_c, 9, 41, 64
8, 182784, Note_on_c, 9, 36, 120
8, 182784, Note_on_c, 9, 41, 120
8, 182976, Note_off_c, 9, 41, 64
8, 182976, Note_on_c, 9, 41, 120
8, 183167, Note_off_c, 9, 36, 64
8, 183168, Note_off_c, 9, 41, 64
8, 183168, Note_on_c, 9, 36, 120
8, 183168, Note_on_c, 9, 45, 120
8, 183168, Note_on_c, 9, 41, 120
8, 183360, Note_off_c, 9, 41, 64
8, 183360, Note_off_c, 9, 45, 64
8, 183360, Note_on_c, 9, 41, 120
8, 183551, Note_off_c, 9, 36, 64
8, 183552, Note_off_c, 9, 41, 64
8, 183552, Note_on_c, 9, 36, 120
8, 183552, Note_on_c, 9, 41, 120
8, 183744, Note_off_c, 9, 41, 64
8, 183744, Note_on_c, 9, 49, 60
8, 183744, Note_on_c, 9, 38, 120
8, 183935, Note_off_c, 9, 38, 64
8, 183935, Note_off_c, 9, 49, 64
8, 183935, Note_off_c, 9, 36, 64
8, 183936, Note_on_c, 9, 36, 120
8, 184128, Note_on_c, 9, 49, 60
8, 184128, Note_on_c, 9, 38, 120
8, 184319, Note_off_c, 9, 38, 64
8, 184319, Note_off_c, 9, 36, 64
8, 184320, Note_off_c, 9, 49, 64
8, 184320, Note_on_c, 9, 36, 120
8, 184320, Note_on_c, 9, 41, 120
8, 184512, Note_off_c, 9, 41, 64
8, 184512, Note_on_c, 9, 41, 120
8, 184703, Note_off_c, 9, 36, 64
8, 184704, Note_off_c, 9, 41, 64
8, 184704, Note_on_c, 9, 36, 120
8, 184704, Note_on_c, 9, 45, 120
8, 184704, Note_on_c, 9, 41, 120
8, 184896, Note_off_c, 9, 41, 64
8, 184896, Note_off_c, 9, 45, 64
8, 184896, Note_on_c, 9, 41, 120
8, 185087, Note_off_c, 9, 36, 64
8, 185088, Note_off_c, 9, 41, 64
8, 185088, Note_on_c, 9, 36, 120
8, 185088, Note_on_c, 9, 41, 120
8, 185280, Note_off_c, 9, 41, 64
8, 185280, Note_on_c, 9, 41, 120
8, 185471, Note_off_c, 9, 36, 64
8, 185472, Note_off_c, 9, 41, 64
8, 185472, Note_on_c, 9, 36, 120
8, 185472, Note_on_c, 9, 45, 120
8, 185472, Note_on_c, 9, 41, 120
8, 185664, Note_off_c, 9, 41, 64
8, 185664, Note_off_c, 9, 45, 64
8, 185664, Note_on_c, 9, 43, 120
8, 185664, Note_on_c, 9, 41, 120
8, 185855, Note_off_c, 9, 36, 64
8, 185856, Note_off_c, 9, 41, 64
8, 185856, Note_off_c, 9, 43, 64
8, 185856, Note_on_c, 9, 36, 120
8, 185856, Note_on_c, 9, 41, 120
8, 186048, Note_off_c, 9, 41, 64
8, 186048, Note_on_c, 9, 41, 120
8, 186239, Note_off_c, 9, 36, 64
8, 186240, Note_off_c, 9, 41, 64
8, 186240, Note_on_c, 9, 36, 120
8, 186240, Note_on_c, 9, 45, 120
8, 186240, Note_on_c, 9, 41, 120
8, 186432, Note_off_c, 9, 41, 64
8, 186432, Note_off_c, 9, 45, 64
8, 186432, Note_on_c, 9, 41, 120
8, 186623, Note_off_c, 9, 36, 64
8, 186624, Note_off_c, 9, 41, 64
8, 186624, Note_on_c, 9, 36, 120
8, 186624, Note_on_c, 9, 41, 120
8, 186816, Note_off_c, 9, 41, 64
8, 186816, Note_on_c, 9, 49, 60
8, 186816, Note_on_c, 9, 38, 120
8, 187007, Note_off_c, 9, 38, 64
8, 187007, Note_off_c, 9, 49, 64
8, 187007, Note_off_c, 9, 36, 64
8, 187008, Note_on_c, 9, 36, 120
8, 187200, Note_on_c, 9, 49, 60
8, 187200, Note_on_c, 9, 38, 120
8, 187391, Note_off_c, 9, 38, 64
8, 187391, Note_off_c, 9, 36, 64
8, 187392, Note_off_c, 9, 49, 64
8, 187392, Note_on_c, 9, 36, 120
8, 187392, Note_on_c, 9, 41, 120
8, 187584, Note_off_c, 9, 41, 64
8, 187584, Note_on_c, 9, 41, 120
8, 187775, Note_off_c, 9, 36, 64
8, 187776, Note_off_c, 9, 41, 64
8, 187776, Note_on_c, 9, 36, 120
8, 187776, Note_on_c, 9, 45, 120
8, 187776, Note_on_c, 9, 41, 120
8, 187968, Note_off_c, 9, 41, 64
8, 187968, Note_off_c, 9, 45, 64
8, 187968, Note_on_c, 9, 41, 120
8, 188159, Note_off_c, 9, 36, 64
8, 188160, Note_off_c, 9, 41, 64
8, 188160, Note_on_c, 9, 36, 120
8, 188160, Note_on_c, 9, 41, 120
8, 188352, Note_off_c, 9, 41, 64
8, 188352, Note_on_c, 9, 41, 120
8, 188543, Note_off_c, 9, 36, 64
8, 188544, Note_off_c, 9, 41, 64
8, 188544, Note_on_c, 9, 36, 120
8, 188544, Note_on_c, 9, 45, 120
8, 188544, Note_on_c, 9, 41, 120
8, 188736, Note_off_c, 9, 41, 64
8, 188736, Note_off_c, 9, 45, 64
8, 188736, Note_on_c, 9, 43, 120
8, 188736, Note_on_c, 9, 41, 120
8, 188927, Note_off_c, 9, 36, 64
8, 188928, Note_off_c, 9, 41, 64
8, 188928, Note_off_c, 9, 43, 64
8, 188928, Note_on_c, 9, 36, 120
8, 188928, Note_on_c, 9, 41, 120
8, 189120, Note_off_c, 9, 41, 64
8, 189120, Note_on_c, 9, 41, 120
8, 189311, Note_off_c, 9, 36, 64
8, 189312, Note_off_c, 9, 41, 64
8, 189312, Note_on_c, 9, 36, 120
8, 189312, Note_on_c, 9, 45, 120
8, 189312, Note_on_c, 9, 41, 120
8, 189504, Note_off_c, 9, 41, 64
8, 189504, Note_off_c, 9, 45, 64
8, 189504, Note_on_c, 9, 41, 120
8, 189695, Note_off_c, 9, 36, 64
8, 189696, Note_off_c, 9, 41, 64
8, 189696, Note_on_c, 9, 36, 120
8, 189696, Note_on_c, 9, 41, 120
8, 189888, Note_off_c, 9, 41, 64
8, 189888, Note_on_c, 9, 41, 120
8, 190079, Note_off_c, 9, 36, 64
8, 190080, Note_off_c, 9, 41, 64
8, 190080, Note_on_c, 9, 36, 120
8, 190080, Note_on_c, 9, 45, 120
8, 190080, Note_on_c, 9, 41, 120
8, 190272, Note_off_c, 9, 41, 64
8, 190272, Note_off_c, 9, 45, 64
8, 190272, Note_on_c, 9, 43, 120
8, 190272, Note_on_c, 9, 41, 120
8, 190463, Note_off_c, 9, 36, 64
8, 190464, Note_off_c, 9, 41, 64
8, 190464, Note_off_c, 9, 43, 64
8, 190464, Note_on_c, 9, 38, 120
8, 190464, Note_on_c, 9, 43, 120
8, 190464, Note_on_c, 9, 36, 120
8, 190655, Note_off_c, 9, 43, 64
8, 190655, Note_off_c, 9, 38, 64
8, 190656, Note_on_c, 9, 38, 120
8, 190656, Note_on_c, 9, 43, 120
8, 190847, Note_off_c, 9, 43, 64
8, 190847, Note_off_c, 9, 38, 64
8, 190847, Note_off_c, 9, 36, 64
8, 190848, Note_on_c, 9, 38, 120
8, 190848, Note_on_c, 9, 43, 120
8, 190848, Note_on_c, 9, 36, 120
8, 191039, Note_off_c, 9, 43, 64
8, 191039, Note_off_c, 9, 38, 64
8, 191040, Note_on_c, 9, 38, 120
8, 191040, Note_on_c, 9, 43, 120
8, 191231, Note_off_c, 9, 43, 64
8, 191231, Note_off_c, 9, 38, 64
8, 191231, Note_off_c, 9, 36, 64
8, 191232, Note_on_c, 9, 38, 120
8, 191232, Note_on_c, 9, 43, 120
8, 191232, Note_on_c, 9, 36, 120
8, 191423, Note_off_c, 9, 43, 64
8, 191423, Note_off_c, 9, 38, 64
8, 191424, Note_on_c, 9, 38, 120
8, 191424, Note_on_c, 9, 43, 120
8, 191615, Note_off_c, 9, 43, 64
8, 191615, Note_off_c, 9, 38, 64
8, 191615, Note_off_c, 9, 36, 64
8, 191616, Note_on_c, 9, 36, 120
8, 191616, Note_on_c, 9, 43, 120
8, 191616, Note_on_c, 9, 38, 120
8, 191807, Note_off_c, 9, 38, 64
8, 191807, Note_off_c, 9, 43, 64
8, 191808, Note_on_c, 9, 43, 120
8, 191808, Note_on_c, 9, 38, 120
8, 191999, Note_off_c, 9, 38, 64
8, 191999, Note_off_c, 9, 36, 64
8, 192000, Note_off_c, 9, 43, 64
8, 192000, Note_on_c, 9, 36, 120
8, 192000, Note_on_c, 9, 38, 120
8, 192000, Note_on_c, 9, 43, 120
8, 192191, Note_off_c, 9, 43, 64
8, 192191, Note_off_c, 9, 38, 64
8, 192192, Note_on_c, 9, 38, 120
8, 192192, Note_on_c, 9, 43, 120
8, 192383, Note_off_c, 9, 43, 64
8, 192383, Note_off_c, 9, 38, 64
8, 192383, Note_off_c, 9, 36, 64
8, 192384, Note_on_c, 9, 36, 120
8, 192384, Note_on_c, 9, 38, 120
8, 192384, Note_on_c, 9, 43, 120
8, 192575, Note_off_c, 9, 43, 64
8, 192575, Note_off_c, 9, 38, 64
8, 192576, Note_on_c, 9, 38, 120
8, 192576, Note_on_c, 9, 43, 120
8, 192767, Note_off_c, 9, 38, 64
8, 192767, Note_off_c, 9, 36, 64
8, 192768, Note_off_c, 9, 43, 64
8, 192768, Note_on_c, 9, 38, 120
8, 192777, Note_on_c, 9, 38, 120
8, 192960, Note_on_c, 9, 36, 120
8, 193151, Note_off_c, 9, 36, 64
8, 193151, Note_off_c, 9, 38, 64
8, 193152, Note_on_c, 9, 38, 120
8, 193160, Note_off_c, 9, 38, 64
8, 193165, Note_on_c, 9, 38, 120
8, 193344, Note_on_c, 9, 36, 120
8, 193535, Note_off_c, 9, 36, 64
8, 193535, Note_off_c, 9, 38, 64
8, 193536, Note_on_c, 9, 49, 60
8, 193536, Note_on_c, 9, 36, 120
8, 193548, Note_off_c, 9, 38, 64
8, 193919, Note_off_c, 9, 36, 64
8, 193919, Note_off_c, 9, 49, 64
8, 193920, Note_on_c, 9, 42, 40
8, 193920, Note_on_c, 9, 38, 120
8, 194111, Note_off_c, 9, 38, 64
8, 194112, Note_off_c, 9, 42, 64
8, 194112, Note_on_c, 9, 42, 40
8, 194304, Note_off_c, 9, 42, 64
8, 194304, Note_on_c, 9, 36, 120
8, 194304, Note_on_c, 9, 42, 40
8, 194496, Note_off_c, 9, 42, 64
8, 194496, Note_on_c, 9, 42, 40
8, 194687, Note_off_c, 9, 36, 64
8, 194688, Note_off_c, 9, 42, 64
8, 194688, Note_on_c, 9, 42, 40
8, 194688, Note_on_c, 9, 38, 120
8, 194879, Note_off_c, 9, 38, 64
8, 194880, Note_off_c, 9, 42, 64
8, 194880, Note_on_c, 9, 42, 40
8, 195072, Note_off_c, 9, 42, 64
8, 195072, Note_on_c, 9, 42, 40
8, 195072, Note_on_c, 9, 36, 120
8, 195264, Note_off_c, 9, 42, 64
8, 195264, Note_on_c, 9, 42, 40
8, 195455, Note_off_c, 9, 36, 64
8, 195456, Note_off_c, 9, 42, 64
8, 195456, Note_on_c, 9, 42, 40
8, 195456, Note_on_c, 9, 38, 120
8, 195647, Note_off_c, 9, 38, 64
8, 195648, Note_off_c, 9, 42, 64
8, 195648, Note_on_c, 9, 42, 40
8, 195840, Note_off_c, 9, 42, 64
8, 195840, Note_on_c, 9, 42, 40
8, 195840, Note_on_c, 9, 36, 120
8, 196031, Note_off_c, 9, 36, 64
8, 196032, Note_off_c, 9, 42, 64
8, 196032, Note_on_c, 9, 42, 40
8, 196032, Note_on_c, 9, 36, 120
8, 196223, Note_off_c, 9, 36, 64
8, 196224, Note_off_c, 9, 42, 64
8, 196224, Note_on_c, 9, 42, 40
8, 196224, Note_on_c, 9, 38, 120
8, 196415, Note_off_c, 9, 38, 64
8, 196416, Note_off_c, 9, 42, 64
8, 196416, Note_on_c, 9, 42, 40
8, 196608, Note_off_c, 9, 42, 64
8, 196608, Note_on_c, 9, 42, 40
8, 196608, Note_on_c, 9, 36, 120
8, 196800, Note_off_c, 9, 42, 64
8, 196800, Note_on_c, 9, 42, 40
8, 196991, Note_off_c, 9, 36, 64
8, 196992, Note_off_c, 9, 42, 64
8, 196992, Note_on_c, 9, 38, 120
8, 196992, Note_on_c, 9, 42, 40
8, 197183, Note_off_c, 9, 38, 64
8, 197184, Note_off_c, 9, 42, 64
8, 197184, Note_on_c, 9, 42, 40
8, 197376, Note_off_c, 9, 42, 64
8, 197376, Note_on_c, 9, 36, 120
8, 197376, Note_on_c, 9, 42, 40
8, 197568, Note_off_c, 9, 42, 64
8, 197568, Note_on_c, 9, 42, 40
8, 197759, Note_off_c, 9, 36, 64
8, 197760, Note_off_c, 9, 42, 64
8, 197760, Note_on_c, 9, 36, 120
8, 197760, Note_on_c, 9, 42, 40
8, 197952, Note_off_c, 9, 42, 64
8, 197952, Note_on_c, 9, 38, 120
8, 197952, Note_on_c, 9, 49, 60
8, 198143, Note_off_c, 9, 38, 64
8, 198143, Note_off_c, 9, 36, 64
8, 198144, Note_off_c, 9, 49, 64
8, 198144, Note_on_c, 9, 42, 40
8, 198144, Note_on_c, 9, 36, 120
8, 198336, Note_off_c, 9, 42, 64
8, 198336, Note_on_c, 9, 42, 40
8, 198527, Note_off_c, 9, 36, 64
8, 198528, Note_off_c, 9, 42, 64
8, 198528, Note_on_c, 9, 42, 40
8, 198528, Note_on_c, 9, 38, 120
8, 198719, Note_off_c, 9, 38, 64
8, 198720, Note_off_c, 9, 42, 64
8, 198720, Note_on_c, 9, 42, 40
8, 198912, Note_off_c, 9, 42, 64
8, 198912, Note_on_c, 9, 42, 40
8, 198912, Note_on_c, 9, 36, 120
8, 199103, Note_off_c, 9, 36, 64
8, 199104, Note_off_c, 9, 42, 64
8, 199104, Note_on_c, 9, 42, 40
8, 199104, Note_on_c, 9, 36, 120
8, 199295, Note_off_c, 9, 36, 64
8, 199296, Note_off_c, 9, 42, 64
8, 199296, Note_on_c, 9, 42, 40
8, 199296, Note_on_c, 9, 38, 120
8, 199487, Note_off_c, 9, 38, 64
8, 199488, Note_off_c, 9, 42, 64
8, 199488, Note_on_c, 9, 36, 120
8, 199488, Note_on_c, 9, 42, 40
8, 199679, Note_off_c, 9, 36, 64
8, 199680, Note_off_c, 9, 42, 64
8, 199680, Note_on_c, 9, 49, 60
8, 199680, Note_on_c, 9, 36, 120
8, 199872, Note_off_c, 9, 49, 64
8, 200063, Note_off_c, 9, 36, 64
8, 200064, Note_on_c, 9, 38, 120
8, 200064, Note_on_c, 9, 42, 40
8, 200255, Note_off_c, 9, 38, 64
8, 200256, Note_off_c, 9, 42, 64
8, 200256, Note_on_c, 9, 42, 40
8, 200448, Note_off_c, 9, 42, 64
8, 200448, Note_on_c, 9, 36, 120
8, 200448, Note_on_c, 9, 42, 40
8, 200640, Note_off_c, 9, 42, 64
8, 200640, Note_on_c, 9, 42, 40
8, 200831, Note_off_c, 9, 36, 64
8, 200832, Note_off_c, 9, 42, 64
8, 200832, Note_on_c, 9, 36, 120
8, 200832, Note_on_c, 9, 42, 40
8, 201024, Note_off_c, 9, 42, 64
8, 201024, Note_on_c, 9, 38, 120
8, 201024, Note_on_c, 9, 49, 60
8, 201215, Note_off_c, 9, 38, 64
8, 201215, Note_off_c, 9, 36, 64
8, 201216, Note_off_c, 9, 49, 64
8, 201216, Note_on_c, 9, 36, 120
8, 201216, Note_on_c, 9, 42, 40
8, 201408, Note_off_c, 9, 42, 64
8, 201408, Note_on_c, 9, 42, 40
8, 201599, Note_off_c, 9, 36, 64
8, 201600, Note_off_c, 9, 42, 64
8, 201600, Note_on_c, 9, 42, 40
8, 201600, Note_on_c, 9, 38, 120
8, 201791, Note_off_c, 9, 38, 64
8, 201792, Note_off_c, 9, 42, 64
8, 201792, Note_on_c, 9, 42, 40
8, 201984, Note_off_c, 9, 42, 64
8, 201984, Note_on_c, 9, 38, 120
8, 201993, Note_on_c, 9, 38, 120
8, 202176, Note_on_c, 9, 36, 120
8, 202367, Note_off_c, 9, 36, 64
8, 202367, Note_off_c, 9, 38, 64
8, 202368, Note_on_c, 9, 38, 120
8, 202376, Note_off_c, 9, 38, 64
8, 202377, Note_on_c, 9, 38, 120
8, 202560, Note_on_c, 9, 36, 120
8, 202751, Note_off_c, 9, 36, 64
8, 202751, Note_off_c, 9, 38, 64
8, 202752, Note_on_c, 9, 49, 60
8, 202752, Note_on_c, 9, 36, 120
8, 202760, Note_off_c, 9, 38, 64
8, 203135, Note_off_c, 9, 36, 64
8, 203136, Note_off_c, 9, 49, 64
8, 203136, Note_on_c, 9, 42, 40
8, 203136, Note_on_c, 9, 38, 120
8, 203327, Note_off_c, 9, 38, 64
8, 203328, Note_off_c, 9, 42, 64
8, 203328, Note_on_c, 9, 42, 40
8, 203520, Note_off_c, 9, 42, 64
8, 203520, Note_on_c, 9, 42, 40
8, 203520, Note_on_c, 9, 36, 120
8, 203712, Note_off_c, 9, 42, 64
8, 203712, Note_on_c, 9, 42, 40
8, 203903, Note_off_c, 9, 36, 64
8, 203904, Note_off_c, 9, 42, 64
8, 203904, Note_on_c, 9, 42, 40
8, 203904, Note_on_c, 9, 38, 120
8, 204095, Note_off_c, 9, 38, 64
8, 204096, Note_off_c, 9, 42, 64
8, 204096, Note_on_c, 9, 42, 40
8, 204288, Note_off_c, 9, 42, 64
8, 204288, Note_on_c, 9, 36, 120
8, 204288, Note_on_c, 9, 42, 40
8, 204480, Note_off_c, 9, 42, 64
8, 204480, Note_on_c, 9, 42, 40
8, 204671, Note_off_c, 9, 36, 64
8, 204672, Note_off_c, 9, 42, 64
8, 204672, Note_on_c, 9, 38, 120
8, 204672, Note_on_c, 9, 42, 40
8, 204863, Note_off_c, 9, 38, 64
8, 204864, Note_off_c, 9, 42, 64
8, 204864, Note_on_c, 9, 42, 40
8, 205056, Note_off_c, 9, 42, 64
8, 205056, Note_on_c, 9, 36, 120
8, 205056, Note_on_c, 9, 42, 40
8, 205247, Note_off_c, 9, 36, 64
8, 205248, Note_off_c, 9, 42, 64
8, 205248, Note_on_c, 9, 36, 120
8, 205248, Note_on_c, 9, 42, 40
8, 205439, Note_off_c, 9, 36, 64
8, 205440, Note_off_c, 9, 42, 64
8, 205440, Note_on_c, 9, 38, 120
8, 205440, Note_on_c, 9, 42, 40
8, 205631, Note_off_c, 9, 38, 64
8, 205632, Note_off_c, 9, 42, 64
8, 205632, Note_on_c, 9, 42, 40
8, 205824, Note_off_c, 9, 42, 64
8, 205824, Note_on_c, 9, 36, 120
8, 205824, Note_on_c, 9, 42, 40
8, 206016, Note_off_c, 9, 42, 64
8, 206016, Note_on_c, 9, 42, 40
8, 206207, Note_off_c, 9, 36, 64
8, 206208, Note_off_c, 9, 42, 64
8, 206208, Note_on_c, 9, 42, 40
8, 206208, Note_on_c, 9, 38, 120
8, 206399, Note_off_c, 9, 38, 64
8, 206400, Note_off_c, 9, 42, 64
8, 206400, Note_on_c, 9, 42, 40
8, 206592, Note_off_c, 9, 42, 64
8, 206592, Note_on_c, 9, 42, 40
8, 206592, Note_on_c, 9, 36, 120
8, 206784, Note_off_c, 9, 42, 64
8, 206784, Note_on_c, 9, 42, 40
8, 206975, Note_off_c, 9, 36, 64
8, 206976, Note_off_c, 9, 42, 64
8, 206976, Note_on_c, 9, 42, 40
8, 206976, Note_on_c, 9, 36, 120
8, 207168, Note_off_c, 9, 42, 64
8, 207168, Note_on_c, 9, 49, 60
8, 207168, Note_on_c, 9, 38, 120
8, 207359, Note_off_c, 9, 38, 64
8, 207359, Note_off_c, 9, 36, 64
8, 207360, Note_off_c, 9, 49, 64
8, 207360, Note_on_c, 9, 36, 120
8, 207360, Note_on_c, 9, 42, 40
8, 207552, Note_off_c, 9, 42, 64
8, 207552, Note_on_c, 9, 42, 40
8, 207743, Note_off_c, 9, 36, 64
8, 207744, Note_off_c, 9, 42, 64
8, 207744, Note_on_c, 9, 38, 120
8, 207744, Note_on_c, 9, 42, 40
8, 207935, Note_off_c, 9, 38, 64
8, 207936, Note_off_c, 9, 42, 64
8, 207936, Note_on_c, 9, 42, 40
8, 208128, Note_off_c, 9, 42, 64
8, 208128, Note_on_c, 9, 36, 120
8, 208128, Note_on_c, 9, 42, 40
8, 208319, Note_off_c, 9, 36, 64
8, 208320, Note_off_c, 9, 42, 64
8, 208320, Note_on_c, 9, 36, 120
8, 208320, Note_on_c, 9, 42, 40
8, 208511, Note_off_c, 9, 36, 64
8, 208512, Note_off_c, 9, 42, 64
8, 208512, Note_on_c, 9, 38, 120
8, 208512, Note_on_c, 9, 42, 40
8, 208703, Note_off_c, 9, 38, 64
8, 208704, Note_off_c, 9, 42, 64
8, 208704, Note_on_c, 9, 42, 40
8, 208704, Note_on_c, 9, 36, 120
8, 208895, Note_off_c, 9, 36, 64
8, 208896, Note_off_c, 9, 42, 64
8, 208896, Note_on_c, 9, 36, 120
8, 208896, Note_on_c, 9, 49, 60
8, 209088, Note_off_c, 9, 49, 64
8, 209279, Note_off_c, 9, 36, 64
8, 209280, Note_on_c, 9, 42, 40
8, 209280, Note_on_c, 9, 38, 120
8, 209471, Note_off_c, 9, 38, 64
8, 209472, Note_off_c, 9, 42, 64
8, 209472, Note_on_c, 9, 42, 40
8, 209664, Note_off_c, 9, 42, 64
8, 209664, Note_on_c, 9, 42, 40
8, 209664, Note_on_c, 9, 36, 120
8, 209856, Note_off_c, 9, 42, 64
8, 209856, Note_on_c, 9, 42, 40
8, 210047, Note_off_c, 9, 36, 64
8, 210048, Note_off_c, 9, 42, 64
8, 210048, Note_on_c, 9, 42, 40
8, 210048, Note_on_c, 9, 36, 120
8, 210240, Note_off_c, 9, 42, 64
8, 210240, Note_on_c, 9, 49, 60
8, 210240, Note_on_c, 9, 38, 120
8, 210431, Note_off_c, 9, 38, 64
8, 210431, Note_off_c, 9, 36, 64
8, 210432, Note_off_c, 9, 49, 64
8, 210432, Note_on_c, 9, 36, 120
8, 210432, Note_on_c, 9, 42, 40
8, 210624, Note_off_c, 9, 42, 64
8, 210624, Note_on_c, 9, 42, 40
8, 210815, Note_off_c, 9, 36, 64
8, 210816, Note_off_c, 9, 42, 64
8, 210816, Note_on_c, 9, 38, 120
8, 210816, Note_on_c, 9, 42, 40
8, 211007, Note_off_c, 9, 38, 64
8, 211008, Note_off_c, 9, 42, 64
8, 211008, Note_on_c, 9, 42, 40
8, 211200, Note_off_c, 9, 42, 64
8, 211200, Note_on_c, 9, 36, 120
8, 211200, Note_on_c, 9, 42, 40
8, 211391, Note_off_c, 9, 36, 64
8, 211392, Note_off_c, 9, 42, 64
8, 211392, Note_on_c, 9, 36, 120
8, 211392, Note_on_c, 9, 42, 40
8, 211583, Note_off_c, 9, 36, 64
8, 211584, Note_off_c, 9, 42, 64
8, 211584, Note_on_c, 9, 38, 120
8, 211584, Note_on_c, 9, 42, 40
8, 211775, Note_off_c, 9, 38, 64
8, 211776, Note_off_c, 9, 42, 64
8, 211776, Note_on_c, 9, 42, 40
8, 211776, Note_on_c, 9, 36, 120
8, 211967, Note_off_c, 9, 36, 64
8, 211968, Note_off_c, 9, 42, 64
8, 211968, Note_on_c, 9, 49, 60
8, 211968, Note_on_c, 9, 36, 120
8, 212351, Note_off_c, 9, 36, 64
8, 212351, Note_off_c, 9, 49, 64
8, 213312, Note_on_c, 9, 36, 120
8, 213312, Note_on_c, 9, 49, 60
8, 213503, Note_off_c, 9, 49, 64
8, 213503, Note_off_c, 9, 36, 64
8, 216576, Control_c, 9, 7, 100
8, 217920, Note_on_c, 9, 38, 120
8, 217920, Note_on_c, 9, 49, 60
8, 218111, Note_off_c, 9, 49, 64
8, 218111, Note_off_c, 9, 38, 64
8, 218304, Note_on_c, 9, 42, 40
8, 218496, Note_off_c, 9, 42, 64
8, 218496, Note_on_c, 9, 42, 40
8, 218496, Note_on_c, 9, 38, 120
8, 218687, Note_off_c, 9, 38, 64
8, 218688, Note_off_c, 9, 42, 64
8, 218688, Note_on_c, 9, 42, 40
8, 218880, Note_off_c, 9, 42, 64
8, 218880, Note_on_c, 9, 36, 120
8, 218880, Note_on_c, 9, 42, 40
8, 219072, Note_off_c, 9, 42, 64
8, 219072, Note_on_c, 9, 42, 40
8, 219263, Note_off_c, 9, 36, 64
8, 219264, Note_off_c, 9, 42, 64
8, 219264, Note_on_c, 9, 42, 40
8, 219264, Note_on_c, 9, 38, 120
8, 219455, Note_off_c, 9, 38, 64
8, 219456, Note_off_c, 9, 42, 64
8, 219456, Note_on_c, 9, 42, 40
8, 219648, Note_off_c, 9, 42, 64
8, 219648, Note_on_c, 9, 36, 120
8, 219648, Note_on_c, 9, 42, 40
8, 219840, Note_off_c, 9, 42, 64
8, 219840, Note_on_c, 9, 42, 40
8, 220031, Note_off_c, 9, 36, 64
8, 220032, Note_off_c, 9, 42, 64
8, 220032, Note_on_c, 9, 42, 40
8, 220032, Note_on_c, 9, 38, 120
8, 220223, Note_off_c, 9, 38, 64
8, 220224, Note_off_c, 9, 42, 64
8, 220224, Note_on_c, 9, 42, 40
8, 220416, Note_off_c, 9, 42, 64
8, 220416, Note_on_c, 9, 36, 120
8, 220416, Note_on_c, 9, 42, 40
8, 220608, Note_off_c, 9, 42, 64
8, 220608, Note_on_c, 9, 42, 40
8, 220799, Note_off_c, 9, 36, 64
8, 220800, Note_off_c, 9, 42, 64
8, 220800, Note_on_c, 9, 38, 120
8, 220800, Note_on_c, 9, 42, 40
8, 220991, Note_off_c, 9, 38, 64
8, 220992, Note_off_c, 9, 42, 64
8, 220992, Note_on_c, 9, 36, 120
8, 220992, Note_on_c, 9, 49, 60
8, 221183, Note_off_c, 9, 36, 64
8, 221184, Note_off_c, 9, 49, 64
8, 221184, Note_on_c, 9, 42, 40
8, 221376, Note_off_c, 9, 42, 64
8, 221376, Note_on_c, 9, 42, 40
8, 221568, Note_off_c, 9, 42, 64
8, 221568, Note_on_c, 9, 42, 40
8, 221568, Note_on_c, 9, 38, 120
8, 221759, Note_off_c, 9, 38, 64
8, 221760, Note_off_c, 9, 42, 64
8, 221760, Note_on_c, 9, 42, 40
8, 221952, Note_off_c, 9, 42, 64
8, 221952, Note_on_c, 9, 36, 120
8, 221952, Note_on_c, 9, 42, 40
8, 222144, Note_off_c, 9, 42, 64
8, 222144, Note_on_c, 9, 42, 40
8, 222335, Note_off_c, 9, 36, 64
8, 222336, Note_off_c, 9, 42, 64
8, 222336, Note_on_c, 9, 42, 40
8, 222336, Note_on_c, 9, 38, 120
8, 222527, Note_off_c, 9, 38, 64
8, 222528, Note_off_c, 9, 42, 64
8, 222528, Note_on_c, 9, 42, 40
8, 222720, Note_off_c, 9, 42, 64
8, 222720, Note_on_c, 9, 36, 120
8, 222720, Note_on_c, 9, 42, 40
8, 222912, Note_off_c, 9, 42, 64
8, 222912, Note_on_c, 9, 42, 40
8, 223103, Note_off_c, 9, 36, 64
8, 223104, Note_off_c, 9, 42, 64
8, 223104, Note_on_c, 9, 42, 40
8, 223104, Note_on_c, 9, 38, 120
8, 223295, Note_off_c, 9, 38, 64
8, 223296, Note_off_c, 9, 42, 64
8, 223296, Note_on_c, 9, 42, 40
8, 223488, Note_off_c, 9, 42, 64
8, 223488, Note_on_c, 9, 36, 120
8, 223488, Note_on_c, 9, 42, 40
8, 223680, Note_off_c, 9, 42, 64
8, 223680, Note_on_c, 9, 42, 40
8, 223871, Note_off_c, 9, 36, 64
8, 223872, Note_off_c, 9, 42, 64
8, 223872, Note_on_c, 9, 42, 40
8, 223872, Note_on_c, 9, 38, 120
8, 224063, Note_off_c, 9, 38, 64
8, 224064, Note_off_c, 9, 42, 64
8, 224064, Note_on_c, 9, 42, 40
8, 224256, Note_off_c, 9, 42, 64
8, 224256, Note_on_c, 9, 36, 120
8, 224256, Note_on_c, 9, 42, 40
8, 224448, Note_off_c, 9, 42, 64
8, 224448, Note_on_c, 9, 42, 40
8, 224639, Note_off_c, 9, 36, 64
8, 224640, Note_off_c, 9, 42, 64
8, 224640, Note_on_c, 9, 42, 40
8, 224640, Note_on_c, 9, 38, 120
8, 224831, Note_off_c, 9, 38, 64
8, 224832, Note_off_c, 9, 42, 64
8, 224832, Note_on_c, 9, 42, 40
8, 225024, Note_off_c, 9, 42, 64
8, 225024, Note_on_c, 9, 36, 120
8, 225024, Note_on_c, 9, 42, 40
8, 225216, Note_off_c, 9, 42, 64
8, 225216, Note_on_c, 9, 42, 40
8, 225407, Note_off_c, 9, 36, 64
8, 225408, Note_off_c, 9, 42, 64
8, 225408, Note_on_c, 9, 42, 40
8, 225408, Note_on_c, 9, 38, 120
8, 225600, Note_off_c, 9, 42, 64
8, 225600, Note_on_c, 9, 42, 40
8, 225696, Note_off_c, 9, 42, 64
8, 225696, Note_off_c, 9, 38, 64
8, 225696, Note_on_c, 9, 38, 120
8, 225792, Note_off_c, 9, 38, 64
8, 225792, Note_on_c, 9, 38, 120
8, 225984, Note_off_c, 9, 38, 64
8, 225984, Note_on_c, 9, 47, 120
8, 226176, Note_off_c, 9, 47, 64
8, 226176, Note_on_c, 9, 47, 120
8, 226368, Note_off_c, 9, 47, 64
8, 226368, Note_on_c, 9, 45, 120
8, 226464, Note_off_c, 9, 45, 64
8, 226464, Note_on_c, 9, 45, 120
8, 226560, Note_off_c, 9, 45, 64
8, 226560, Note_on_c, 9, 38, 120
8, 226656, Note_off_c, 9, 38, 64
8, 226656, Note_on_c, 9, 38, 120
8, 226752, Note_off_c, 9, 38, 64
8, 226752, Note_on_c, 9, 45, 120
8, 226848, Note_off_c, 9, 45, 64
8, 226848, Note_on_c, 9, 45, 120
8, 226944, Note_off_c, 9, 45, 64
8, 226944, Note_on_c, 9, 38, 120
8, 227040, Note_off_c, 9, 38, 64
8, 227040, Note_on_c, 9, 38, 120
8, 227136, Note_off_c, 9, 38, 64
8, 227136, Note_on_c, 9, 45, 120
8, 227232, Note_off_c, 9, 45, 64
8, 227232, Note_on_c, 9, 45, 120
8, 227328, Note_off_c, 9, 45, 64
8, 227328, Note_on_c, 9, 36, 120
8, 227328, Note_on_c, 9, 41, 120
8, 227520, Note_off_c, 9, 41, 64
8, 227520, Note_on_c, 9, 41, 120
8, 227711, Note_off_c, 9, 36, 64
8, 227712, Note_off_c, 9, 41, 64
8, 227712, Note_on_c, 9, 49, 60
8, 227712, Note_on_c, 9, 38, 120
8, 227712, Note_on_c, 9, 36, 120
8, 228095, Note_off_c, 9, 36, 64
8, 228095, Note_off_c, 9, 38, 64
8, 228095, Note_off_c, 9, 49, 64
8, 228096, Note_on_c, 9, 41, 120
8, 228096, Note_on_c, 9, 36, 120
8, 228288, Note_off_c, 9, 41, 64
8, 228288, Note_on_c, 9, 41, 120
8, 228479, Note_off_c, 9, 36, 64
8, 228480, Note_off_c, 9, 41, 64
8, 228480, Note_on_c, 9, 45, 120
8, 228480, Note_on_c, 9, 41, 120
8, 228480, Note_on_c, 9, 36, 120
8, 228672, Note_off_c, 9, 41, 64
8, 228672, Note_off_c, 9, 45, 64
8, 228672, Note_on_c, 9, 38, 120
8, 228672, Note_on_c, 9, 41, 120
8, 228863, Note_off_c, 9, 36, 64
8, 228864, Note_off_c, 9, 41, 64
8, 228864, Note_off_c, 9, 38, 64
8, 228864, Note_on_c, 9, 36, 120
8, 228864, Note_on_c, 9, 41, 120
8, 229056, Note_off_c, 9, 41, 64
8, 229056, Note_on_c, 9, 41, 120
8, 229247, Note_off_c, 9, 36, 64
8, 229248, Note_off_c, 9, 41, 64
8, 229248, Note_on_c, 9, 36, 120
8, 229248, Note_on_c, 9, 45, 120
8, 229248, Note_on_c, 9, 41, 120
8, 229440, Note_off_c, 9, 41, 64
8, 229440, Note_off_c, 9, 45, 64
8, 229440, Note_on_c, 9, 41, 120
8, 229631, Note_off_c, 9, 36, 64
8, 229632, Note_off_c, 9, 41, 64
8, 229632, Note_on_c, 9, 36, 120
8, 229632, Note_on_c, 9, 41, 120
8, 229824, Note_off_c, 9, 41, 64
8, 229824, Note_on_c, 9, 41, 120
8, 230015, Note_off_c, 9, 36, 64
8, 230016, Note_off_c, 9, 41, 64
8, 230016, Note_on_c, 9, 36, 120
8, 230016, Note_on_c, 9, 45, 120
8, 230016, Note_on_c, 9, 41, 120
8, 230208, Note_off_c, 9, 41, 64
8, 230208, Note_off_c, 9, 45, 64
8, 230208, Note_on_c, 9, 38, 120
8, 230208, Note_on_c, 9, 41, 120
8, 230399, Note_off_c, 9, 36, 64
8, 230400, Note_off_c, 9, 41, 64
8, 230400, Note_off_c, 9, 38, 64
8, 230400, Note_on_c, 9, 36, 120
8, 230400, Note_on_c, 9, 41, 120
8, 230592, Note_off_c, 9, 41, 64
8, 230592, Note_on_c, 9, 41, 120
8, 230783, Note_off_c, 9, 36, 64
8, 230784, Note_off_c, 9, 41, 64
8, 230784, Note_on_c, 9, 36, 120
8, 230784, Note_on_c, 9, 45, 120
8, 230784, Note_on_c, 9, 41, 120
8, 230976, Note_off_c, 9, 41, 64
8, 230976, Note_off_c, 9, 45, 64
8, 230976, Note_on_c, 9, 41, 120
8, 231167, Note_off_c, 9, 36, 64
8, 231168, Note_off_c, 9, 41, 64
8, 231168, Note_on_c, 9, 36, 120
8, 231168, Note_on_c, 9, 41, 120
8, 231360, Note_off_c, 9, 41, 64
8, 231360, Note_on_c, 9, 41, 120
8, 231551, Note_off_c, 9, 36, 64
8, 231552, Note_off_c, 9, 41, 64
8, 231552, Note_on_c, 9, 36, 120
8, 231552, Note_on_c, 9, 45, 120
8, 231552, Note_on_c, 9, 41, 120
8, 231744, Note_off_c, 9, 41, 64
8, 231744, Note_off_c, 9, 45, 64
8, 231744, Note_on_c, 9, 38, 120
8, 231744, Note_on_c, 9, 41, 120
8, 231935, Note_off_c, 9, 36, 64
8, 231936, Note_off_c, 9, 41, 64
8, 231936, Note_off_c, 9, 38, 64
8, 231936, Note_on_c, 9, 36, 120
8, 231936, Note_on_c, 9, 41, 120
8, 232128, Note_off_c, 9, 41, 64
8, 232128, Note_on_c, 9, 49, 60
8, 232128, Note_on_c, 9, 38, 120
8, 232319, Note_off_c, 9, 38, 64
8, 232319, Note_off_c, 9, 49, 64
8, 232319, Note_off_c, 9, 36, 64
8, 232320, Note_on_c, 9, 36, 120
8, 232512, Note_on_c, 9, 49, 60
8, 232512, Note_on_c, 9, 38, 120
8, 232703, Note_off_c, 9, 36, 64
8, 232704, Note_off_c, 9, 38, 64
8, 232704, Note_off_c, 9, 49, 64
8, 232704, Note_on_c, 9, 36, 120
8, 232704, Note_on_c, 9, 41, 120
8, 232896, Note_off_c, 9, 41, 64
8, 232896, Note_on_c, 9, 41, 120
8, 233087, Note_off_c, 9, 36, 64
8, 233088, Note_off_c, 9, 41, 64
8, 233088, Note_on_c, 9, 36, 120
8, 233088, Note_on_c, 9, 41, 120
8, 233280, Note_off_c, 9, 41, 64
8, 233280, Note_on_c, 9, 41, 120
8, 233471, Note_off_c, 9, 36, 64
8, 233472, Note_off_c, 9, 41, 64
8, 233472, Note_on_c, 9, 36, 120
8, 233472, Note_on_c, 9, 41, 120
8, 233664, Note_off_c, 9, 41, 64
8, 233664, Note_on_c, 9, 41, 120
8, 233855, Note_off_c, 9, 36, 64
8, 233856, Note_off_c, 9, 41, 64
8, 233856, Note_on_c, 9, 36, 120
8, 233856, Note_on_c, 9, 49, 60
8, 233856, Note_on_c, 9, 38, 120
8, 234239, Note_off_c, 9, 38, 64
8, 234239, Note_off_c, 9, 49, 64
8, 234239, Note_off_c, 9, 36, 64
8, 234240, Note_on_c, 9, 36, 120
8, 234240, Note_on_c, 9, 41, 120
8, 234432, Note_off_c, 9, 41, 64
8, 234432, Note_on_c, 9, 41, 120
8, 234623, Note_off_c, 9, 36, 64
8, 234624, Note_off_c, 9, 41, 64
8, 234624, Note_on_c, 9, 36, 120
8, 234624, Note_on_c, 9, 45, 120
8, 234624, Note_on_c, 9, 41, 120
8, 234816, Note_off_c, 9, 41, 64
8, 234816, Note_off_c, 9, 45, 64
8, 234816, Note_on_c, 9, 49, 60
8, 234816, Note_on_c, 9, 38, 120
8, 235007, Note_off_c, 9, 38, 64
8, 235007, Note_off_c, 9, 49, 64
8, 235007, Note_off_c, 9, 36, 64
8, 235008, Note_on_c, 9, 36, 120
8, 235200, Note_on_c, 9, 49, 60
8, 235200, Note_on_c, 9, 38, 120
8, 235391, Note_off_c, 9, 38, 64
8, 235391, Note_off_c, 9, 49, 64
8, 235391, Note_off_c, 9, 36, 64
8, 235392, Note_on_c, 9, 36, 120
8, 235775, Note_off_c, 9, 36, 64
8, 235776, Note_on_c, 9, 36, 120
8, 235776, Note_on_c, 9, 41, 120
8, 235968, Note_off_c, 9, 41, 64
8, 235968, Note_on_c, 9, 41, 120
8, 236159, Note_off_c, 9, 36, 64
8, 236160, Note_off_c, 9, 41, 64
8, 236160, Note_on_c, 9, 36, 120
8, 236160, Note_on_c, 9, 41, 120
8, 236352, Note_off_c, 9, 41, 64
8, 236352, Note_on_c, 9, 47, 120
8, 236352, Note_on_c, 9, 41, 120
8, 236543, Note_off_c, 9, 36, 64
8, 236544, Note_off_c, 9, 41, 64
8, 236544, Note_off_c, 9, 47, 64
8, 236544, Note_on_c, 9, 36, 120
8, 236544, Note_on_c, 9, 47, 120
8, 236544, Note_on_c, 9, 41, 120
8, 236736, Note_off_c, 9, 41, 64
8, 236736, Note_off_c, 9, 47, 64
8, 236736, Note_on_c, 9, 47, 120
8, 236736, Note_on_c, 9, 41, 120
8, 236927, Note_off_c, 9, 36, 64
8, 236928, Note_off_c, 9, 41, 64
8, 236928, Note_off_c, 9, 47, 64
8, 236928, Note_on_c, 9, 36, 120
8, 236928, Note_on_c, 9, 47, 120
8, 236928, Note_on_c, 9, 41, 120
8, 237120, Note_off_c, 9, 41, 64
8, 237120, Note_off_c, 9, 47, 64
8, 237120, Note_on_c, 9, 47, 120
8, 237120, Note_on_c, 9, 41, 120
8, 237311, Note_off_c, 9, 36, 64
8, 237312, Note_off_c, 9, 41, 64
8, 237312, Note_off_c, 9, 47, 64
8, 237312, Note_on_c, 9, 36, 120
8, 237312, Note_on_c, 9, 47, 120
8, 237312, Note_on_c, 9, 41, 120
8, 237504, Note_off_c, 9, 41, 64
8, 237504, Note_off_c, 9, 47, 64
8, 237504, Note_on_c, 9, 47, 120
8, 237504, Note_on_c, 9, 41, 120
8, 237695, Note_off_c, 9, 36, 64
8, 237696, Note_off_c, 9, 41, 64
8, 237696, Note_off_c, 9, 47, 64
8, 237696, Note_on_c, 9, 36, 120
8, 237696, Note_on_c, 9, 47, 120
8, 237696, Note_on_c, 9, 41, 120
8, 237888, Note_off_c, 9, 41, 64
8, 237888, Note_off_c, 9, 47, 64
8, 237888, Note_on_c, 9, 47, 120
8, 237888, Note_on_c, 9, 41, 120
8, 238079, Note_off_c, 9, 36, 64
8, 238080, Note_off_c, 9, 41, 64
8, 238080, Note_off_c, 9, 47, 64
8, 238080, Note_on_c, 9, 36, 120
8, 238080, Note_on_c, 9, 41, 120
8, 238272, Note_off_c, 9, 41, 64
8, 238272, Note_on_c, 9, 41, 120
8, 238463, Note_off_c, 9, 36, 64
8, 238464, Note_off_c, 9, 41, 64
8, 238464, Note_on_c, 9, 36, 120
8, 238464, Note_on_c, 9, 49, 60
8, 238464, Note_on_c, 9, 38, 120
8, 238847, Note_off_c, 9, 38, 64
8, 238847, Note_off_c, 9, 49, 64
8, 238847, Note_off_c, 9, 36, 64
8, 238848, Note_on_c, 9, 36, 120
8, 239040, Note_on_c, 9, 45, 120
8, 239040, Note_on_c, 9, 41, 120
8, 239231, Note_off_c, 9, 41, 64
8, 239231, Note_off_c, 9, 45, 64
8, 239231, Note_off_c, 9, 36, 64
8, 239232, Note_on_c, 9, 36, 120
8, 239424, Note_on_c, 9, 45, 120
8, 239424, Note_on_c, 9, 41, 120
8, 239615, Note_off_c, 9, 36, 64
8, 239616, Note_off_c, 9, 41, 64
8, 239616, Note_off_c, 9, 45, 64
8, 239616, Note_on_c, 9, 36, 120
8, 239616, Note_on_c, 9, 41, 120
8, 239808, Note_off_c, 9, 41, 64
8, 239808, Note_on_c, 9, 41, 120
8, 239999, Note_off_c, 9, 36, 64
8, 240000, Note_off_c, 9, 41, 64
8, 240000, Note_on_c, 9, 36, 120
8, 240000, Note_on_c, 9, 49, 60
8, 240000, Note_on_c, 9, 38, 120
8, 240383, Note_off_c, 9, 38, 64
8, 240383, Note_off_c, 9, 49, 64
8, 240383, Note_off_c, 9, 36, 64
8, 240384, Note_on_c, 9, 36, 120
8, 240576, Note_on_c, 9, 45, 120
8, 240576, Note_on_c, 9, 41, 120
8, 240767, Note_off_c, 9, 41, 64
8, 240767, Note_off_c, 9, 45, 64
8, 240767, Note_off_c, 9, 36, 64
8, 240768, Note_on_c, 9, 36, 120
8, 240960, Note_on_c, 9, 45, 120
8, 240960, Note_on_c, 9, 41, 120
8, 241151, Note_off_c, 9, 36, 64
8, 241152, Note_off_c, 9, 41, 64
8, 241152, Note_off_c, 9, 45, 64
8, 241152, Note_on_c, 9, 36, 120
8, 241152, Note_on_c, 9, 41, 120
8, 241344, Note_off_c, 9, 41, 64
8, 241344, Note_on_c, 9, 41, 120
8, 241535, Note_off_c, 9, 36, 64
8, 241536, Note_off_c, 9, 41, 64
8, 241536, Note_on_c, 9, 36, 120
8, 241536, Note_on_c, 9, 49, 60
8, 241536, Note_on_c, 9, 38, 120
8, 241919, Note_off_c, 9, 38, 64
8, 241919, Note_off_c, 9, 49, 64
8, 241919, Note_off_c, 9, 36, 64
8, 241920, Note_on_c, 9, 36, 120
8, 242112, Note_on_c, 9, 45, 120
8, 242112, Note_on_c, 9, 41, 120
8, 242303, Note_off_c, 9, 41, 64
8, 242303, Note_off_c, 9, 45, 64
8, 242303, Note_off_c, 9, 36, 64
8, 242304, Note_on_c, 9, 36, 120
8, 242496, Note_on_c, 9, 45, 120
8, 242496, Note_on_c, 9, 41, 120
8, 242687, Note_off_c, 9, 36, 64
8, 242688, Note_off_c, 9, 41, 64
8, 242688, Note_off_c, 9, 45, 64
8, 242688, Note_on_c, 9, 36, 120
8, 242688, Note_on_c, 9, 41, 120
8, 242880, Note_off_c, 9, 41, 64
8, 242880, Note_on_c, 9, 41, 120
8, 243071, Note_off_c, 9, 36, 64
8, 243072, Note_off_c, 9, 41, 64
8, 243072, Note_on_c, 9, 36, 120
8, 243072, Note_on_c, 9, 41, 120
8, 243264, Note_off_c, 9, 41, 64
8, 243264, Note_on_c, 9, 49, 60
8, 243264, Note_on_c, 9, 38, 120
8, 243455, Note_off_c, 9, 38, 64
8, 243455, Note_off_c, 9, 49, 64
8, 243455, Note_off_c, 9, 36, 64
8, 243456, Note_on_c, 9, 36, 120
8, 243648, Note_on_c, 9, 49, 60
8, 243648, Note_on_c, 9, 38, 120
8, 243839, Note_off_c, 9, 38, 64
8, 243839, Note_off_c, 9, 49, 64
8, 243839, Note_off_c, 9, 36, 64
8, 243840, Note_on_c, 9, 36, 120
8, 244032, Note_on_c, 9, 49, 60
8, 244032, Note_on_c, 9, 38, 120
8, 244223, Note_off_c, 9, 38, 64
8, 244223, Note_off_c, 9, 49, 64
8, 244223, Note_off_c, 9, 36, 64
8, 244224, Note_on_c, 9, 36, 120
8, 244224, Note_on_c, 9, 41, 120
8, 244416, Note_off_c, 9, 41, 64
8, 244416, Note_on_c, 9, 41, 120
8, 244607, Note_off_c, 9, 36, 64
8, 244608, Note_off_c, 9, 41, 64
8, 244608, Note_on_c, 9, 45, 120
8, 244608, Note_on_c, 9, 36, 120
8, 244608, Note_on_c, 9, 41, 120
8, 244800, Note_off_c, 9, 41, 64
8, 244800, Note_off_c, 9, 45, 64
8, 244800, Note_on_c, 9, 41, 120
8, 244991, Note_off_c, 9, 41, 64
8, 244991, Note_off_c, 9, 36, 64
8, 244992, Note_on_c, 9, 36, 120
8, 244992, Note_on_c, 9, 41, 120
8, 245184, Note_off_c, 9, 41, 64
8, 245184, Note_on_c, 9, 41, 120
8, 245375, Note_off_c, 9, 36, 64
8, 245376, Note_off_c, 9, 41, 64
8, 245376, Note_on_c, 9, 45, 120
8, 245376, Note_on_c, 9, 36, 120
8, 245376, Note_on_c, 9, 41, 120
8, 245568, Note_off_c, 9, 41, 64
8, 245568, Note_off_c, 9, 45, 64
8, 245568, Note_on_c, 9, 43, 120
8, 245568, Note_on_c, 9, 41, 120
8, 245759, Note_off_c, 9, 41, 64
8, 245759, Note_off_c, 9, 43, 64
8, 245759, Note_off_c, 9, 36, 64
8, 245760, Note_on_c, 9, 36, 120
8, 245760, Note_on_c, 9, 41, 120
8, 245952, Note_off_c, 9, 41, 64
8, 245952, Note_on_c, 9, 41, 120
8, 246143, Note_off_c, 9, 41, 64
8, 246143, Note_off_c, 9, 36, 64
8, 246144, Note_on_c, 9, 49, 60
8, 246144, Note_on_c, 9, 38, 120
8, 246144, Note_on_c, 9, 36, 120
8, 246527, Note_off_c, 9, 36, 64
8, 246527, Note_off_c, 9, 38, 64
8, 246527, Note_off_c, 9, 49, 64
8, 246528, Note_on_c, 9, 36, 120
8, 246720, Note_on_c, 9, 49, 60
8, 246720, Note_on_c, 9, 38, 120
8, 246911, Note_off_c, 9, 38, 64
8, 246911, Note_off_c, 9, 49, 64
8, 246911, Note_off_c, 9, 36, 64
8, 246912, Note_on_c, 9, 36, 120
8, 247104, Note_on_c, 9, 49, 60
8, 247104, Note_on_c, 9, 38, 120
8, 247295, Note_off_c, 9, 38, 64
8, 247295, Note_off_c, 9, 49, 64
8, 247295, Note_off_c, 9, 36, 64
8, 247296, Note_on_c, 9, 36, 120
8, 247296, Note_on_c, 9, 41, 120
8, 247488, Note_off_c, 9, 41, 64
8, 247488, Note_on_c, 9, 41, 120
8, 247679, Note_off_c, 9, 36, 64
8, 247680, Note_off_c, 9, 41, 64
8, 247680, Note_on_c, 9, 36, 120
8, 247680, Note_on_c, 9, 49, 60
8, 247680, Note_on_c, 9, 38, 120
8, 248063, Note_off_c, 9, 38, 64
8, 248063, Note_off_c, 9, 49, 64
8, 248063, Note_off_c, 9, 36, 64
8, 248064, Note_on_c, 9, 36, 120
8, 248064, Note_on_c, 9, 41, 120
8, 248256, Note_off_c, 9, 41, 64
8, 248256, Note_on_c, 9, 41, 120
8, 248447, Note_off_c, 9, 36, 64
8, 248448, Note_off_c, 9, 41, 64
8, 248448, Note_on_c, 9, 36, 120
8, 248448, Note_on_c, 9, 41, 120
8, 248640, Note_off_c, 9, 41, 64
8, 248640, Note_on_c, 9, 38, 120
8, 248640, Note_on_c, 9, 41, 120
8, 248831, Note_off_c, 9, 41, 64
8, 248831, Note_off_c, 9, 38, 64
8, 248831, Note_off_c, 9, 36, 64
8, 248832, Note_on_c, 9, 36, 120
8, 248832, Note_on_c, 9, 41, 120
8, 249024, Note_off_c, 9, 41, 64
8, 249024, Note_on_c, 9, 41, 118
8, 249215, Note_off_c, 9, 36, 64
8, 249216, Note_off_c, 9, 41, 64
8, 249216, Note_on_c, 9, 36, 117
8, 249216, Note_on_c, 9, 41, 117
8, 249408, Note_off_c, 9, 41, 64
8, 249408, Note_on_c, 9, 38, 115
8, 249408, Note_on_c, 9, 41, 115
8, 249599, Note_off_c, 9, 41, 64
8, 249599, Note_off_c, 9, 38, 64
8, 249599, Note_off_c, 9, 36, 64
8, 249600, Note_on_c, 9, 36, 113
8, 249600, Note_on_c, 9, 41, 113
8, 249792, Note_off_c, 9, 41, 64
8, 249792, Note_on_c, 9, 38, 111
8, 249801, Note_on_c, 9, 38, 111
8, 249983, Note_off_c, 9, 36, 64
8, 249984, Note_off_c, 9, 38, 64
8, 249984, Note_on_c, 9, 36, 109
8, 249984, Note_on_c, 9, 41, 109
8, 249992, Note_off_c, 9, 38, 64
8, 250176, Note_off_c, 9, 41, 64
8, 250176, Note_on_c, 9, 41, 107
8, 250367, Note_off_c, 9, 41, 64
8, 250367, Note_off_c, 9, 36, 64
8, 250368, Note_on_c, 9, 36, 105
8, 250368, Note_on_c, 9, 41, 105
8, 250560, Note_off_c, 9, 41, 64
8, 250560, Note_on_c, 9, 41, 103
8, 250751, Note_off_c, 9, 36, 64
8, 250752, Note_off_c, 9, 41, 64
8, 250752, Note_on_c, 9, 38, 102
8, 250752, Note_on_c, 9, 36, 102
8, 250752, Note_on_c, 9, 49, 51
8, 251135, Note_off_c, 9, 49, 64
8, 251135, Note_off_c, 9, 36, 64
8, 251135, Note_off_c, 9, 38, 64
8, 251136, Note_on_c, 9, 41, 98
8, 251136, Note_on_c, 9, 36, 98
8, 251519, Note_off_c, 9, 36, 64
8, 251519, Note_off_c, 9, 41, 64
8, 251520, Note_on_c, 9, 36, 94
8, 251520, Note_on_c, 9, 45, 94
8, 251520, Note_on_c, 9, 41, 94
8, 251712, Note_off_c, 9, 41, 64
8, 251712, Note_off_c, 9, 45, 64
8, 251712, Note_on_c, 9, 43, 92
8, 251712, Note_on_c, 9, 41, 92
8, 251903, Note_off_c, 9, 41, 64
8, 251903, Note_off_c, 9, 43, 64
8, 251903, Note_off_c, 9, 36, 64
8, 251904, Note_on_c, 9, 36, 90
8, 251904, Note_on_c, 9, 41, 90
8, 252096, Note_off_c, 9, 41, 64
8, 252096, Note_on_c, 9, 41, 88
8, 252287, Note_off_c, 9, 36, 64
8, 252288, Note_off_c, 9, 41, 64
8, 252288, Note_on_c, 9, 36, 87
8, 252288, Note_on_c, 9, 38, 87
8, 252288, Note_on_c, 9, 49, 44
8, 252671, Note_off_c, 9, 49, 64
8, 252671, Note_off_c, 9, 38, 64
8, 252671, Note_off_c, 9, 36, 64
8, 252672, Note_on_c, 9, 36, 83
8, 252672, Note_on_c, 9, 41, 83
8, 253055, Note_off_c, 9, 41, 64
8, 253055, Note_off_c, 9, 36, 64
8, 253056, Note_on_c, 9, 36, 79
8, 253056, Note_on_c, 9, 45, 79
8, 253056, Note_on_c, 9, 41, 79
8, 253248, Note_off_c, 9, 41, 64
8, 253248, Note_off_c, 9, 45, 64
8, 253248, Note_on_c, 9, 43, 77
8, 253248, Note_on_c, 9, 41, 77
8, 253439, Note_off_c, 9, 41, 64
8, 253439, Note_off_c, 9, 43, 64
8, 253439, Note_off_c, 9, 36, 64
8, 253440, Note_on_c, 9, 36, 75
8, 253440, Note_on_c, 9, 41, 75
8, 253632, Note_off_c, 9, 41, 64
8, 253632, Note_on_c, 9, 41, 73
8, 253823, Note_off_c, 9, 36, 64
8, 253824, Note_off_c, 9, 41, 64
8, 253824, Note_on_c, 9, 36, 72
8, 253824, Note_on_c, 9, 38, 72
8, 253824, Note_on_c, 9, 49, 36
8, 254207, Note_off_c, 9, 49, 64
8, 254207, Note_off_c, 9, 38, 64
8, 254207, Note_off_c, 9, 36, 64
8, 254208, Note_on_c, 9, 41, 68
8, 254208, Note_on_c, 9, 36, 68
8, 254399, Note_off_c, 9, 41, 64
8, 254400, Note_on_c, 9, 38, 66
8, 254409, Note_on_c, 9, 38, 66
8, 254591, Note_off_c, 9, 38, 64
8, 254591, Note_off_c, 9, 36, 64
8, 254592, Note_on_c, 9, 38, 64
8, 254592, Note_on_c, 9, 36, 64
8, 254600, Note_off_c, 9, 38, 64
8, 254601, Note_on_c, 9, 38, 64
8, 254783, Note_off_c, 9, 38, 64
8, 254784, Note_on_c, 9, 38, 62
8, 254792, Note_off_c, 9, 38, 64
8, 254793, Note_on_c, 9, 38, 62
8, 254975, Note_off_c, 9, 38, 64
8, 254975, Note_off_c, 9, 36, 64
8, 254976, Note_on_c, 9, 36, 60
8, 254976, Note_on_c, 9, 41, 60
8, 254984, Note_off_c, 9, 38, 64
8, 255168, Note_off_c, 9, 41, 64
8, 255168, Note_on_c, 9, 41, 58
8, 255359, Note_off_c, 9, 41, 64
8, 255359, Note_off_c, 9, 36, 64
8, 255360, Note_on_c, 9, 36, 57
8, 255360, Note_on_c, 9, 38, 57
8, 255360, Note_on_c, 9, 49, 29
8, 255743, Note_off_c, 9, 49, 64
8, 255743, Note_off_c, 9, 38, 64
8, 255743, Note_off_c, 9, 36, 64
8, 255744, Note_on_c, 9, 41, 53
8, 255744, Note_on_c, 9, 36, 53
8, 255935, Note_off_c, 9, 41, 64
8, 255936, Note_on_c, 9, 38, 51
8, 255936, Note_on_c, 9, 49, 26
8, 256127, Note_off_c, 9, 49, 64
8, 256127, Note_off_c, 9, 38, 64
8, 256127, Note_off_c, 9, 36, 64
8, 256128, Note_on_c, 9, 36, 49
8, 256320, Note_on_c, 9, 38, 47
8, 256320, Note_on_c, 9, 49, 24
8, 256511, Note_off_c, 9, 49, 64
8, 256511, Note_off_c, 9, 38, 64
8, 256511, Note_off_c, 9, 36, 64
8, 256512, Note_on_c, 9, 36, 45
8, 256512, Note_on_c, 9, 41, 45
8, 256704, Note_off_c, 9, 41, 64
8, 256704, Note_on_c, 9, 41, 44
8, 256895, Note_off_c, 9, 41, 64
8, 256895, Note_off_c, 9, 36, 64
8, 256896, Note_on_c, 9, 36, 42
8, 256896, Note_on_c, 9, 38, 42
8, 256896, Note_on_c, 9, 49, 21
8, 257279, Note_off_c, 9, 49, 64
8, 257279, Note_off_c, 9, 38, 64
8, 257279, Note_off_c, 9, 36, 64
8, 257280, Note_on_c, 9, 36, 38
8, 257280, Note_on_c, 9, 41, 38
8, 257663, Note_off_c, 9, 41, 64
8, 257663, Note_off_c, 9, 36, 64
8, 257664, Note_on_c, 9, 36, 34
8, 257856, Note_on_c, 9, 38, 32
8, 257856, Note_on_c, 9, 49, 17
8, 258047, Note_off_c, 9, 49, 64
8, 258047, Note_off_c, 9, 38, 64
8, 258047, Note_off_c, 9, 36, 64
8, 258048, Note_on_c, 9, 36, 30
8, 258240, Note_on_c, 9, 38, 29
8, 258240, Note_on_c, 9, 49, 15
8, 258431, Note_off_c, 9, 49, 64
8, 258431, Note_off_c, 9, 38, 64
8, 258431, Note_off_c, 9, 36, 64
8, 258432, Note_on_c, 9, 36, 27
8, 258624, Note_on_c, 9, 38, 25
8, 258624, Note_on_c, 9, 49, 13
8, 258815, Note_off_c, 9, 49, 64
8, 258815, Note_off_c, 9, 38, 64
8, 258815, Note_off_c, 9, 36, 64
8, 258816, Note_on_c, 9, 36, 23
8, 258816, Note_on_c, 9, 41, 23
8, 259199, Note_off_c, 9, 36, 64
8, 259200, Note_off_c, 9, 41, 64
8, 259200, Note_on_c, 9, 36, 19
8, 259200, Note_on_c, 9, 41, 19
8, 259392, Note_off_c, 9, 41, 64
8, 259392, Note_on_c, 9, 38, 17
8, 259392, Note_on_c, 9, 41, 17
8, 259583, Note_off_c, 9, 41, 64
8, 259583, Note_off_c, 9, 38, 64
8, 259583, Note_off_c, 9, 36, 64
8, 259584, Note_on_c, 9, 36, 15
8, 259584, Note_on_c, 9, 41, 15
8, 259776, Note_off_c, 9, 41, 64
8, 259776, Note_on_c, 9, 41, 14
8, 259967, Note_off_c, 9, 36, 64
8, 259968, Note_off_c, 9, 41, 64
8, 259968, Note_on_c, 9, 36, 12
8, 259968, Note_on_c, 9, 41, 12
8, 260160, Note_off_c, 9, 41, 64
8, 260160, Note_on_c, 9, 38, 10
8, 260160, Note_on_c, 9, 41, 10
8, 260351, Note_off_c, 9, 41, 64
8, 260351, Note_off_c, 9, 38, 64
8, 260351, Note_off_c, 9, 36, 64
8, 260352, Note_on_c, 9, 36, 8
8, 260352, Note_on_c, 9, 41, 8
8, 260544, Note_off_c, 9, 41, 64
8, 260544, Note_on_c, 9, 38, 6
8, 260640, Note_off_c, 9, 38, 64
8, 260640, Note_on_c, 9, 38, 5
8, 260735, Note_off_c, 9, 36, 64
8, 260736, Note_off_c, 9, 38, 64
8, 260736, Note_on_c, 9, 47, 4
8, 260736, Note_on_c, 9, 36, 4
8, 260832, Note_off_c, 9, 47, 64
8, 260832, Note_on_c, 9, 47, 3
8, 260928, Note_off_c, 9, 47, 64
8, 260928, Note_on_c, 9, 38, 2
8, 261024, Note_off_c, 9, 38, 64
8, 261024, Note_on_c, 9, 38, 1
8, 261119, Note_off_c, 9, 36, 64
8, 261120, Note_off_c, 9, 38, 64
8, 261120, End_track
0, 0, End_of_file
