0, 0, Header, 1, 14, 384
1, 0, Start_track
1, 0, Time_signature, 4, 2, 24, 8
1, 0, Key_signature, 0, "major"
1, 0, Tempo, 447761
1, 0, End_track
2, 0, Start_track
2, 0, MIDI_port, 0
2, 0, Title_t, "Synth"
2, 0, Program_c, 0, 81
2, 0, Control_c, 0, 7, 127
2, 0, Control_c, 0, 10, 64
2, 0, Control_c, 0, 0, 0
2, 152, Control_c, 0, 101, 0
2, 156, Control_c, 0, 100, 0
2, 156, Control_c, 0, 6, 3
2, 244, Control_c, 0, 121, 127
2, 340, Control_c, 0, 0, 0
2, 340, Control_c, 0, 32, 0
2, 628, Control_c, 0, 91, 90
2, 724, Control_c, 0, 93, 35
2, 103296, Note_on_c, 0, 67, 127
2, 103296, Note_on_c, 0, 74, 127
2, 103296, Note_on_c, 0, 77, 127
2, 103412, Note_on_c, 0, 67, 0
2, 103416, Note_on_c, 0, 74, 0
2, 103424, Note_on_c, 0, 77, 0
2, 104064, Note_on_c, 0, 67, 127
2, 104064, Note_on_c, 0, 74, 127
2, 104064, Note_on_c, 0, 77, 127
2, 104188, Note_on_c, 0, 74, 0
2, 104196, Note_on_c, 0, 77, 0
2, 104196, Note_on_c, 0, 67, 0
2, 104832, Note_on_c, 0, 67, 127
2, 104832, Note_on_c, 0, 74, 127
2, 104832, Note_on_c, 0, 77, 127
2, 104956, Note_on_c, 0, 67, 0
2, 104968, Note_on_c, 0, 74, 0
2, 104972, Note_on_c, 0, 77, 0
2, 105600, Note_on_c, 0, 67, 127
2, 105600, Note_on_c, 0, 74, 127
2, 105600, Note_on_c, 0, 77, 127
2, 105732, Note_on_c, 0, 74, 0
2, 105732, Note_on_c, 0, 67, 0
2, 105740, Note_on_c, 0, 77, 0
2, 106368, Note_on_c, 0, 67, 127
2, 106368, Note_on_c, 0, 74, 127
2, 106368, Note_on_c, 0, 77, 127
2, 106504, Note_on_c, 0, 67, 0
2, 106508, Note_on_c, 0, 77, 0
2, 106520, Note_on_c, 0, 74, 0
2, 107136, Note_on_c, 0, 67, 127
2, 107136, Note_on_c, 0, 74, 127
2, 107136, Note_on_c, 0, 77, 127
2, 107252, Note_on_c, 0, 77, 0
2, 107252, Note_on_c, 0, 67, 0
2, 107264, Note_on_c, 0, 74, 0
2, 145388, Control_c, 0, 7, 126
2, 145400, Pitch_bend_c, 0, 8050
2, 145416, Pitch_bend_c, 0, 7838
2, 145424, Control_c, 0, 7, 122
2, 145436, Pitch_bend_c, 0, 7627
2, 145456, Pitch_bend_c, 0, 7273
2, 145460, Control_c, 0, 7, 118
2, 145472, Pitch_bend_c, 0, 6779
2, 145492, Pitch_bend_c, 0, 6285
2, 145496, Control_c, 0, 7, 110
2, 145508, Pitch_bend_c, 0, 5649
2, 145528, Pitch_bend_c, 0, 4943
2, 145536, Control_c, 0, 7, 102
2, 145544, Pitch_bend_c, 0, 4166
2, 145564, Pitch_bend_c, 0, 3319
2, 145572, Control_c, 0, 7, 89
2, 145580, Pitch_bend_c, 0, 2471
2, 145600, Pitch_bend_c, 0, 1624
2, 145608, Control_c, 0, 7, 73
2, 145620, Pitch_bend_c, 0, 706
2, 145636, Pitch_bend_c, 0, 0
2, 145644, Control_c, 0, 7, 62
2, 145680, Control_c, 0, 7, 53
2, 145716, Control_c, 0, 7, 47
2, 145808, Control_c, 0, 7, 50
2, 145848, Control_c, 0, 7, 53
2, 145884, Control_c, 0, 7, 54
2, 145920, Note_on_c, 0, 55, 127
2, 145920, Note_on_c, 0, 62, 127
2, 145920, Note_on_c, 0, 67, 127
2, 146012, Control_c, 0, 7, 55
2, 146048, Control_c, 0, 7, 57
2, 146084, Control_c, 0, 7, 58
2, 146120, Control_c, 0, 7, 59
2, 146176, Control_c, 0, 7, 61
2, 146212, Control_c, 0, 7, 62
2, 146248, Control_c, 0, 7, 64
2, 146304, Control_c, 0, 7, 66
2, 146340, Control_c, 0, 7, 68
2, 146376, Control_c, 0, 7, 70
2, 146412, Control_c, 0, 7, 72
2, 146448, Control_c, 0, 7, 73
2, 146484, Control_c, 0, 7, 75
2, 146520, Control_c, 0, 7, 77
2, 146560, Control_c, 0, 7, 79
2, 146596, Control_c, 0, 7, 81
2, 146624, Pitch_bend_c, 0, 70
2, 146652, Control_c, 0, 7, 83
2, 146660, Pitch_bend_c, 0, 211
2, 146688, Pitch_bend_c, 0, 282
2, 146704, Control_c, 0, 7, 85
2, 146708, Pitch_bend_c, 0, 353
2, 146724, Pitch_bend_c, 0, 423
2, 146740, Control_c, 0, 7, 87
2, 146744, Pitch_bend_c, 0, 494
2, 146772, Pitch_bend_c, 0, 635
2, 146776, Control_c, 0, 7, 89
2, 146796, Pitch_bend_c, 0, 776
2, 146832, Control_c, 0, 7, 91
2, 146836, Pitch_bend_c, 0, 1059
2, 146860, Pitch_bend_c, 0, 1129
2, 146868, Control_c, 0, 7, 93
2, 146880, Pitch_bend_c, 0, 1341
2, 146900, Pitch_bend_c, 0, 1412
2, 146904, Control_c, 0, 7, 96
2, 146916, Pitch_bend_c, 0, 1624
2, 146936, Pitch_bend_c, 0, 1765
2, 146944, Control_c, 0, 7, 98
2, 146952, Pitch_bend_c, 0, 1977
2, 146972, Pitch_bend_c, 0, 2118
2, 146980, Control_c, 0, 7, 99
2, 146988, Pitch_bend_c, 0, 2330
2, 147008, Pitch_bend_c, 0, 2471
2, 147016, Control_c, 0, 7, 101
2, 147024, Pitch_bend_c, 0, 2612
2, 147052, Control_c, 0, 7, 103
2, 147056, Pitch_bend_c, 0, 2966
2, 147072, Pitch_bend_c, 0, 3107
2, 147088, Control_c, 0, 7, 106
2, 147092, Pitch_bend_c, 0, 3460
2, 147108, Pitch_bend_c, 0, 3672
2, 147128, Pitch_bend_c, 0, 3954
2, 147144, Control_c, 0, 7, 109
2, 147144, Pitch_bend_c, 0, 4237
2, 147164, Pitch_bend_c, 0, 4519
2, 147180, Control_c, 0, 7, 112
2, 147180, Pitch_bend_c, 0, 4872
2, 147200, Pitch_bend_c, 0, 5225
2, 147216, Control_c, 0, 7, 114
2, 147220, Pitch_bend_c, 0, 5508
2, 147236, Pitch_bend_c, 0, 5932
2, 147252, Control_c, 0, 7, 116
2, 147256, Pitch_bend_c, 0, 6285
2, 147272, Pitch_bend_c, 0, 6638
2, 147288, Control_c, 0, 7, 119
2, 147292, Pitch_bend_c, 0, 7062
2, 147308, Pitch_bend_c, 0, 7485
2, 147328, Control_c, 0, 7, 121
2, 147328, Pitch_bend_c, 0, 7909
2, 147348, Pitch_bend_c, 0, 8192
2, 147364, Control_c, 0, 7, 123
2, 147400, Note_on_c, 0, 67, 0
2, 147400, Control_c, 0, 7, 125
2, 147420, Note_on_c, 0, 62, 0
2, 147436, Note_on_c, 0, 55, 0
2, 147436, Control_c, 0, 7, 127
2, 173036, Control_c, 0, 7, 126
2, 173048, Pitch_bend_c, 0, 8050
2, 173064, Pitch_bend_c, 0, 7838
2, 173072, Control_c, 0, 7, 122
2, 173084, Pitch_bend_c, 0, 7627
2, 173104, Pitch_bend_c, 0, 7273
2, 173108, Control_c, 0, 7, 118
2, 173120, Pitch_bend_c, 0, 6779
2, 173140, Pitch_bend_c, 0, 6285
2, 173144, Control_c, 0, 7, 110
2, 173156, Pitch_bend_c, 0, 5649
2, 173176, Pitch_bend_c, 0, 4943
2, 173184, Control_c, 0, 7, 102
2, 173192, Pitch_bend_c, 0, 4166
2, 173212, Pitch_bend_c, 0, 3319
2, 173220, Control_c, 0, 7, 89
2, 173228, Pitch_bend_c, 0, 2471
2, 173248, Pitch_bend_c, 0, 1624
2, 173256, Control_c, 0, 7, 73
2, 173268, Pitch_bend_c, 0, 706
2, 173284, Pitch_bend_c, 0, 0
2, 173292, Control_c, 0, 7, 62
2, 173328, Control_c, 0, 7, 53
2, 173364, Control_c, 0, 7, 47
2, 173456, Control_c, 0, 7, 50
2, 173496, Control_c, 0, 7, 53
2, 173532, Control_c, 0, 7, 54
2, 173568, Note_on_c, 0, 55, 127
2, 173568, Note_on_c, 0, 62, 127
2, 173568, Note_on_c, 0, 67, 127
2, 173660, Control_c, 0, 7, 55
2, 173696, Control_c, 0, 7, 57
2, 173732, Control_c, 0, 7, 58
2, 173768, Control_c, 0, 7, 59
2, 173824, Control_c, 0, 7, 61
2, 173860, Control_c, 0, 7, 62
2, 173896, Control_c, 0, 7, 64
2, 173952, Control_c, 0, 7, 66
2, 173988, Control_c, 0, 7, 68
2, 174024, Control_c, 0, 7, 70
2, 174060, Control_c, 0, 7, 72
2, 174096, Control_c, 0, 7, 73
2, 174132, Control_c, 0, 7, 75
2, 174168, Control_c, 0, 7, 77
2, 174208, Control_c, 0, 7, 79
2, 174244, Control_c, 0, 7, 81
2, 174272, Pitch_bend_c, 0, 70
2, 174300, Control_c, 0, 7, 83
2, 174308, Pitch_bend_c, 0, 211
2, 174336, Pitch_bend_c, 0, 282
2, 174352, Control_c, 0, 7, 85
2, 174356, Pitch_bend_c, 0, 353
2, 174372, Pitch_bend_c, 0, 423
2, 174388, Control_c, 0, 7, 87
2, 174392, Pitch_bend_c, 0, 494
2, 174420, Pitch_bend_c, 0, 635
2, 174424, Control_c, 0, 7, 89
2, 174444, Pitch_bend_c, 0, 776
2, 174480, Control_c, 0, 7, 91
2, 174484, Pitch_bend_c, 0, 1059
2, 174508, Pitch_bend_c, 0, 1129
2, 174516, Control_c, 0, 7, 93
2, 174528, Pitch_bend_c, 0, 1341
2, 174548, Pitch_bend_c, 0, 1412
2, 174552, Control_c, 0, 7, 96
2, 174564, Pitch_bend_c, 0, 1624
2, 174584, Pitch_bend_c, 0, 1765
2, 174592, Control_c, 0, 7, 98
2, 174600, Pitch_bend_c, 0, 1977
2, 174620, Pitch_bend_c, 0, 2118
2, 174628, Control_c, 0, 7, 99
2, 174636, Pitch_bend_c, 0, 2330
2, 174656, Pitch_bend_c, 0, 2471
2, 174664, Control_c, 0, 7, 101
2, 174672, Pitch_bend_c, 0, 2612
2, 174700, Control_c, 0, 7, 103
2, 174704, Pitch_bend_c, 0, 2966
2, 174720, Pitch_bend_c, 0, 3107
2, 174736, Control_c, 0, 7, 106
2, 174740, Pitch_bend_c, 0, 3460
2, 174756, Pitch_bend_c, 0, 3672
2, 174776, Pitch_bend_c, 0, 3954
2, 174792, Control_c, 0, 7, 109
2, 174792, Pitch_bend_c, 0, 4237
2, 174812, Pitch_bend_c, 0, 4519
2, 174828, Control_c, 0, 7, 112
2, 174828, Pitch_bend_c, 0, 4872
2, 174848, Pitch_bend_c, 0, 5225
2, 174864, Control_c, 0, 7, 114
2, 174868, Pitch_bend_c, 0, 5508
2, 174884, Pitch_bend_c, 0, 5932
2, 174900, Control_c, 0, 7, 116
2, 174904, Pitch_bend_c, 0, 6285
2, 174920, Pitch_bend_c, 0, 6638
2, 174936, Control_c, 0, 7, 119
2, 174940, Pitch_bend_c, 0, 7062
2, 174956, Pitch_bend_c, 0, 7485
2, 174976, Control_c, 0, 7, 121
2, 174976, Pitch_bend_c, 0, 7909
2, 174996, Pitch_bend_c, 0, 8192
2, 175012, Control_c, 0, 7, 123
2, 175048, Note_on_c, 0, 67, 0
2, 175048, Control_c, 0, 7, 125
2, 175068, Note_on_c, 0, 62, 0
2, 175084, Note_on_c, 0, 55, 0
2, 175084, Control_c, 0, 7, 127
2, 200684, Control_c, 0, 7, 126
2, 200696, Pitch_bend_c, 0, 8050
2, 200712, Pitch_bend_c, 0, 7838
2, 200720, Control_c, 0, 7, 122
2, 200732, Pitch_bend_c, 0, 7627
2, 200752, Pitch_bend_c, 0, 7273
2, 200756, Control_c, 0, 7, 118
2, 200768, Pitch_bend_c, 0, 6779
2, 200788, Pitch_bend_c, 0, 6285
2, 200792, Control_c, 0, 7, 110
2, 200804, Pitch_bend_c, 0, 5649
2, 200824, Pitch_bend_c, 0, 4943
2, 200832, Control_c, 0, 7, 102
2, 200840, Pitch_bend_c, 0, 4166
2, 200860, Pitch_bend_c, 0, 3319
2, 200868, Control_c, 0, 7, 89
2, 200876, Pitch_bend_c, 0, 2471
2, 200896, Pitch_bend_c, 0, 1624
2, 200904, Control_c, 0, 7, 73
2, 200916, Pitch_bend_c, 0, 706
2, 200932, Pitch_bend_c, 0, 0
2, 200940, Control_c, 0, 7, 62
2, 200976, Control_c, 0, 7, 53
2, 201012, Control_c, 0, 7, 47
2, 201104, Control_c, 0, 7, 50
2, 201144, Control_c, 0, 7, 53
2, 201180, Control_c, 0, 7, 54
2, 201216, Note_on_c, 0, 55, 127
2, 201216, Note_on_c, 0, 62, 127
2, 201216, Note_on_c, 0, 67, 127
2, 201308, Control_c, 0, 7, 55
2, 201344, Control_c, 0, 7, 57
2, 201380, Control_c, 0, 7, 58
2, 201416, Control_c, 0, 7, 59
2, 201472, Control_c, 0, 7, 61
2, 201508, Control_c, 0, 7, 62
2, 201544, Control_c, 0, 7, 64
2, 201600, Control_c, 0, 7, 66
2, 201636, Control_c, 0, 7, 68
2, 201672, Control_c, 0, 7, 70
2, 201708, Control_c, 0, 7, 72
2, 201744, Control_c, 0, 7, 73
2, 201780, Control_c, 0, 7, 75
2, 201816, Control_c, 0, 7, 77
2, 201856, Control_c, 0, 7, 79
2, 201892, Control_c, 0, 7, 81
2, 201920, Pitch_bend_c, 0, 70
2, 201948, Control_c, 0, 7, 83
2, 201956, Pitch_bend_c, 0, 211
2, 201984, Pitch_bend_c, 0, 282
2, 202000, Control_c, 0, 7, 85
2, 202004, Pitch_bend_c, 0, 353
2, 202020, Pitch_bend_c, 0, 423
2, 202036, Control_c, 0, 7, 87
2, 202040, Pitch_bend_c, 0, 494
2, 202068, Pitch_bend_c, 0, 635
2, 202072, Control_c, 0, 7, 89
2, 202092, Pitch_bend_c, 0, 776
2, 202128, Control_c, 0, 7, 91
2, 202132, Pitch_bend_c, 0, 1059
2, 202156, Pitch_bend_c, 0, 1129
2, 202164, Control_c, 0, 7, 93
2, 202176, Pitch_bend_c, 0, 1341
2, 202196, Pitch_bend_c, 0, 1412
2, 202200, Control_c, 0, 7, 96
2, 202212, Pitch_bend_c, 0, 1624
2, 202232, Pitch_bend_c, 0, 1765
2, 202240, Control_c, 0, 7, 98
2, 202248, Pitch_bend_c, 0, 1977
2, 202268, Pitch_bend_c, 0, 2118
2, 202276, Control_c, 0, 7, 99
2, 202284, Pitch_bend_c, 0, 2330
2, 202304, Pitch_bend_c, 0, 2471
2, 202312, Control_c, 0, 7, 101
2, 202320, Pitch_bend_c, 0, 2612
2, 202348, Control_c, 0, 7, 103
2, 202352, Pitch_bend_c, 0, 2966
2, 202368, Pitch_bend_c, 0, 3107
2, 202384, Control_c, 0, 7, 106
2, 202388, Pitch_bend_c, 0, 3460
2, 202404, Pitch_bend_c, 0, 3672
2, 202424, Pitch_bend_c, 0, 3954
2, 202440, Control_c, 0, 7, 109
2, 202440, Pitch_bend_c, 0, 4237
2, 202460, Pitch_bend_c, 0, 4519
2, 202476, Control_c, 0, 7, 112
2, 202476, Pitch_bend_c, 0, 4872
2, 202496, Pitch_bend_c, 0, 5225
2, 202512, Control_c, 0, 7, 114
2, 202516, Pitch_bend_c, 0, 5508
2, 202532, Pitch_bend_c, 0, 5932
2, 202548, Control_c, 0, 7, 116
2, 202552, Pitch_bend_c, 0, 6285
2, 202568, Pitch_bend_c, 0, 6638
2, 202584, Control_c, 0, 7, 119
2, 202588, Pitch_bend_c, 0, 7062
2, 202604, Pitch_bend_c, 0, 7485
2, 202624, Control_c, 0, 7, 121
2, 202624, Pitch_bend_c, 0, 7909
2, 202644, Pitch_bend_c, 0, 8192
2, 202660, Control_c, 0, 7, 123
2, 202696, Note_on_c, 0, 67, 0
2, 202696, Control_c, 0, 7, 125
2, 202716, Note_on_c, 0, 62, 0
2, 202732, Note_on_c, 0, 55, 0
2, 202732, Control_c, 0, 7, 127
2, 240620, Control_c, 0, 7, 126
2, 240632, Pitch_bend_c, 0, 8050
2, 240648, Pitch_bend_c, 0, 7838
2, 240656, Control_c, 0, 7, 122
2, 240668, Pitch_bend_c, 0, 7627
2, 240688, Pitch_bend_c, 0, 7273
2, 240692, Control_c, 0, 7, 118
2, 240704, Pitch_bend_c, 0, 6779
2, 240724, Pitch_bend_c, 0, 6285
2, 240728, Control_c, 0, 7, 110
2, 240740, Pitch_bend_c, 0, 5649
2, 240760, Pitch_bend_c, 0, 4943
2, 240768, Control_c, 0, 7, 102
2, 240776, Pitch_bend_c, 0, 4166
2, 240796, Pitch_bend_c, 0, 3319
2, 240804, Control_c, 0, 7, 89
2, 240812, Pitch_bend_c, 0, 2471
2, 240832, Pitch_bend_c, 0, 1624
2, 240840, Control_c, 0, 7, 73
2, 240852, Pitch_bend_c, 0, 706
2, 240868, Pitch_bend_c, 0, 0
2, 240876, Control_c, 0, 7, 62
2, 240912, Control_c, 0, 7, 53
2, 240948, Control_c, 0, 7, 47
2, 241040, Control_c, 0, 7, 50
2, 241080, Control_c, 0, 7, 53
2, 241116, Control_c, 0, 7, 54
2, 241152, Note_on_c, 0, 55, 127
2, 241152, Note_on_c, 0, 62, 127
2, 241152, Note_on_c, 0, 67, 127
2, 241244, Control_c, 0, 7, 55
2, 241280, Control_c, 0, 7, 57
2, 241316, Control_c, 0, 7, 58
2, 241352, Control_c, 0, 7, 59
2, 241408, Control_c, 0, 7, 61
2, 241444, Control_c, 0, 7, 62
2, 241480, Control_c, 0, 7, 64
2, 241536, Control_c, 0, 7, 66
2, 241572, Control_c, 0, 7, 68
2, 241608, Control_c, 0, 7, 70
2, 241644, Control_c, 0, 7, 72
2, 241680, Control_c, 0, 7, 73
2, 241716, Control_c, 0, 7, 75
2, 241752, Control_c, 0, 7, 77
2, 241792, Control_c, 0, 7, 79
2, 241828, Control_c, 0, 7, 81
2, 241856, Pitch_bend_c, 0, 70
2, 241884, Control_c, 0, 7, 83
2, 241892, Pitch_bend_c, 0, 211
2, 241920, Pitch_bend_c, 0, 282
2, 241936, Control_c, 0, 7, 85
2, 241940, Pitch_bend_c, 0, 353
2, 241956, Pitch_bend_c, 0, 423
2, 241972, Control_c, 0, 7, 87
2, 241976, Pitch_bend_c, 0, 494
2, 242004, Pitch_bend_c, 0, 635
2, 242008, Control_c, 0, 7, 89
2, 242028, Pitch_bend_c, 0, 776
2, 242064, Control_c, 0, 7, 91
2, 242068, Pitch_bend_c, 0, 1059
2, 242092, Pitch_bend_c, 0, 1129
2, 242100, Control_c, 0, 7, 93
2, 242112, Pitch_bend_c, 0, 1341
2, 242132, Pitch_bend_c, 0, 1412
2, 242136, Control_c, 0, 7, 96
2, 242148, Pitch_bend_c, 0, 1624
2, 242168, Pitch_bend_c, 0, 1765
2, 242176, Control_c, 0, 7, 98
2, 242184, Pitch_bend_c, 0, 1977
2, 242204, Pitch_bend_c, 0, 2118
2, 242212, Control_c, 0, 7, 99
2, 242220, Pitch_bend_c, 0, 2330
2, 242240, Pitch_bend_c, 0, 2471
2, 242248, Control_c, 0, 7, 101
2, 242256, Pitch_bend_c, 0, 2612
2, 242284, Control_c, 0, 7, 103
2, 242288, Pitch_bend_c, 0, 2966
2, 242304, Pitch_bend_c, 0, 3107
2, 242320, Control_c, 0, 7, 106
2, 242324, Pitch_bend_c, 0, 3460
2, 242340, Pitch_bend_c, 0, 3672
2, 242360, Pitch_bend_c, 0, 3954
2, 242376, Control_c, 0, 7, 109
2, 242376, Pitch_bend_c, 0, 4237
2, 242396, Pitch_bend_c, 0, 4519
2, 242412, Control_c, 0, 7, 112
2, 242412, Pitch_bend_c, 0, 4872
2, 242432, Pitch_bend_c, 0, 5225
2, 242448, Control_c, 0, 7, 114
2, 242452, Pitch_bend_c, 0, 5508
2, 242468, Pitch_bend_c, 0, 5932
2, 242484, Control_c, 0, 7, 116
2, 242488, Pitch_bend_c, 0, 6285
2, 242504, Pitch_bend_c, 0, 6638
2, 242520, Control_c, 0, 7, 119
2, 242524, Pitch_bend_c, 0, 7062
2, 242540, Pitch_bend_c, 0, 7485
2, 242560, Control_c, 0, 7, 121
2, 242560, Pitch_bend_c, 0, 7909
2, 242580, Pitch_bend_c, 0, 8192
2, 242596, Control_c, 0, 7, 123
2, 242632, Note_on_c, 0, 67, 0
2, 242632, Control_c, 0, 7, 125
2, 242652, Note_on_c, 0, 62, 0
2, 242668, Note_on_c, 0, 55, 0
2, 242668, End_track
3, 0, Start_track
3, 0, MIDI_port, 0
3, 0, Title_t, "Bass"
3, 0, Program_c, 1, 33
3, 0, Control_c, 1, 7, 127
3, 0, Control_c, 1, 10, 64
3, 0, Control_c, 1, 0, 0
3, 192, Control_c, 1, 121, 127
3, 288, Control_c, 1, 0, 0
3, 288, Control_c, 1, 32, 0
3, 576, Control_c, 1, 91, 60
3, 95232, Control_c, 1, 93, 0
3, 95232, Note_on_c, 1, 31, 127
3, 95608, Note_on_c, 1, 31, 0
3, 95808, Note_on_c, 1, 31, 127
3, 95884, Note_on_c, 1, 31, 0
3, 96000, Note_on_c, 1, 31, 127
3, 96380, Note_on_c, 1, 31, 0
3, 96576, Note_on_c, 1, 31, 127
3, 96676, Note_on_c, 1, 31, 0
3, 96768, Note_on_c, 1, 31, 127
3, 97144, Note_on_c, 1, 31, 0
3, 97344, Note_on_c, 1, 31, 127
3, 97412, Note_on_c, 1, 31, 0
3, 97536, Note_on_c, 1, 36, 127
3, 97688, Note_on_c, 1, 36, 0
3, 97728, Note_on_c, 1, 34, 127
3, 97868, Note_on_c, 1, 34, 0
3, 97920, Note_on_c, 1, 29, 127
3, 98092, Note_on_c, 1, 29, 0
3, 98112, Note_on_c, 1, 30, 127
3, 98288, Note_on_c, 1, 30, 0
3, 98304, Note_on_c, 1, 31, 127
3, 98684, Note_on_c, 1, 31, 0
3, 98880, Note_on_c, 1, 31, 127
3, 98964, Note_on_c, 1, 31, 0
3, 99072, Note_on_c, 1, 31, 127
3, 99464, Note_on_c, 1, 31, 0
3, 99648, Note_on_c, 1, 31, 127
3, 99752, Note_on_c, 1, 31, 0
3, 99840, Note_on_c, 1, 34, 127
3, 100200, Note_on_c, 1, 34, 0
3, 100416, Note_on_c, 1, 34, 127
3, 100576, Note_on_c, 1, 34, 0
3, 100608, Note_on_c, 1, 36, 127
3, 100908, Note_on_c, 1, 36, 0
3, 100992, Note_on_c, 1, 36, 127
3, 101164, Note_on_c, 1, 36, 0
3, 101184, Note_on_c, 1, 38, 127
3, 101320, Note_on_c, 1, 38, 0
3, 101376, Note_on_c, 1, 31, 127
3, 101752, Note_on_c, 1, 31, 0
3, 101952, Note_on_c, 1, 31, 127
3, 102028, Note_on_c, 1, 31, 0
3, 102144, Note_on_c, 1, 31, 127
3, 102524, Note_on_c, 1, 31, 0
3, 102720, Note_on_c, 1, 31, 127
3, 102820, Note_on_c, 1, 31, 0
3, 102912, Note_on_c, 1, 31, 127
3, 103288, Note_on_c, 1, 31, 0
3, 103488, Note_on_c, 1, 31, 127
3, 103556, Note_on_c, 1, 31, 0
3, 103680, Note_on_c, 1, 36, 127
3, 103832, Note_on_c, 1, 36, 0
3, 103872, Note_on_c, 1, 34, 127
3, 104012, Note_on_c, 1, 34, 0
3, 104064, Note_on_c, 1, 33, 127
3, 104236, Note_on_c, 1, 33, 0
3, 104256, Note_on_c, 1, 32, 127
3, 104432, Note_on_c, 1, 32, 0
3, 104448, Note_on_c, 1, 31, 127
3, 104828, Note_on_c, 1, 31, 0
3, 105024, Note_on_c, 1, 31, 127
3, 105108, Note_on_c, 1, 31, 0
3, 105216, Note_on_c, 1, 31, 127
3, 105608, Note_on_c, 1, 31, 0
3, 105792, Note_on_c, 1, 31, 127
3, 105896, Note_on_c, 1, 31, 0
3, 105984, Note_on_c, 1, 29, 127
3, 106336, Note_on_c, 1, 29, 0
3, 106368, Note_on_c, 1, 31, 127
3, 106656, Pitch_bend_c, 1, 8050
3, 106672, Pitch_bend_c, 1, 6991
3, 106684, Note_on_c, 1, 31, 0
3, 106692, Pitch_bend_c, 1, 5508
3, 106712, Pitch_bend_c, 1, 3742
3, 106728, Pitch_bend_c, 1, 2401
3, 106748, Pitch_bend_c, 1, 1412
3, 106752, Note_on_c, 1, 43, 127
3, 106764, Pitch_bend_c, 1, 1129
3, 106792, Pitch_bend_c, 1, 1341
3, 106812, Pitch_bend_c, 1, 1836
3, 106828, Pitch_bend_c, 1, 2683
3, 106848, Pitch_bend_c, 1, 3884
3, 106864, Pitch_bend_c, 1, 5084
3, 106884, Pitch_bend_c, 1, 5932
3, 106904, Pitch_bend_c, 1, 6638
3, 106920, Pitch_bend_c, 1, 7344
3, 106940, Note_on_c, 1, 43, 0
3, 106940, Pitch_bend_c, 1, 7909
3, 106944, Note_on_c, 1, 41, 127
3, 106956, Pitch_bend_c, 1, 8192
3, 107120, Note_on_c, 1, 41, 0
3, 107136, Note_on_c, 1, 38, 127
3, 107324, Note_on_c, 1, 38, 0
3, 107328, Note_on_c, 1, 36, 127
3, 107488, Note_on_c, 1, 36, 0
3, 107520, Note_on_c, 1, 31, 127
3, 107896, Note_on_c, 1, 31, 0
3, 108096, Note_on_c, 1, 31, 127
3, 108172, Note_on_c, 1, 31, 0
3, 108288, Note_on_c, 1, 31, 127
3, 108668, Note_on_c, 1, 31, 0
3, 108864, Note_on_c, 1, 29, 127
3, 108964, Note_on_c, 1, 29, 0
3, 109056, Note_on_c, 1, 31, 127
3, 109432, Note_on_c, 1, 31, 0
3, 109632, Note_on_c, 1, 31, 127
3, 109700, Note_on_c, 1, 31, 0
3, 109824, Note_on_c, 1, 36, 127
3, 109976, Note_on_c, 1, 36, 0
3, 110016, Note_on_c, 1, 34, 127
3, 110156, Note_on_c, 1, 34, 0
3, 110208, Note_on_c, 1, 29, 127
3, 110380, Note_on_c, 1, 29, 0
3, 110400, Note_on_c, 1, 30, 127
3, 110576, Note_on_c, 1, 30, 0
3, 110592, Note_on_c, 1, 31, 127
3, 110972, Note_on_c, 1, 31, 0
3, 111168, Note_on_c, 1, 31, 127
3, 111252, Note_on_c, 1, 31, 0
3, 111360, Note_on_c, 1, 31, 127
3, 111752, Note_on_c, 1, 31, 0
3, 111936, Note_on_c, 1, 31, 127
3, 112040, Note_on_c, 1, 31, 0
3, 112128, Note_on_c, 1, 34, 127
3, 112488, Note_on_c, 1, 34, 0
3, 112704, Note_on_c, 1, 34, 127
3, 112864, Note_on_c, 1, 34, 0
3, 112896, Note_on_c, 1, 36, 127
3, 113196, Note_on_c, 1, 36, 0
3, 113280, Note_on_c, 1, 36, 127
3, 113452, Note_on_c, 1, 36, 0
3, 113472, Note_on_c, 1, 38, 127
3, 113608, Note_on_c, 1, 38, 0
3, 113664, Note_on_c, 1, 31, 127
3, 114040, Note_on_c, 1, 31, 0
3, 114240, Note_on_c, 1, 31, 127
3, 114316, Note_on_c, 1, 31, 0
3, 114432, Note_on_c, 1, 31, 127
3, 114812, Note_on_c, 1, 31, 0
3, 115008, Note_on_c, 1, 29, 127
3, 115108, Note_on_c, 1, 29, 0
3, 115200, Note_on_c, 1, 31, 127
3, 115576, Note_on_c, 1, 31, 0
3, 115776, Note_on_c, 1, 31, 127
3, 115844, Note_on_c, 1, 31, 0
3, 115968, Note_on_c, 1, 36, 127
3, 116120, Note_on_c, 1, 36, 0
3, 116160, Note_on_c, 1, 34, 127
3, 116300, Note_on_c, 1, 34, 0
3, 116352, Note_on_c, 1, 33, 127
3, 116524, Note_on_c, 1, 33, 0
3, 116544, Note_on_c, 1, 32, 127
3, 116720, Note_on_c, 1, 32, 0
3, 116736, Note_on_c, 1, 31, 127
3, 117116, Note_on_c, 1, 31, 0
3, 117312, Note_on_c, 1, 31, 127
3, 117396, Note_on_c, 1, 31, 0
3, 117504, Note_on_c, 1, 31, 127
3, 117896, Note_on_c, 1, 31, 0
3, 118080, Note_on_c, 1, 31, 127
3, 118184, Note_on_c, 1, 31, 0
3, 118272, Note_on_c, 1, 29, 127
3, 118624, Note_on_c, 1, 29, 0
3, 118656, Note_on_c, 1, 31, 127
3, 118944, Pitch_bend_c, 1, 8050
3, 118960, Pitch_bend_c, 1, 6991
3, 118972, Note_on_c, 1, 31, 0
3, 118980, Pitch_bend_c, 1, 5508
3, 119000, Pitch_bend_c, 1, 3742
3, 119016, Pitch_bend_c, 1, 2401
3, 119036, Pitch_bend_c, 1, 1412
3, 119040, Note_on_c, 1, 43, 127
3, 119052, Pitch_bend_c, 1, 1129
3, 119080, Pitch_bend_c, 1, 1341
3, 119100, Pitch_bend_c, 1, 1836
3, 119116, Pitch_bend_c, 1, 2683
3, 119136, Pitch_bend_c, 1, 3884
3, 119152, Pitch_bend_c, 1, 5084
3, 119172, Pitch_bend_c, 1, 5932
3, 119192, Pitch_bend_c, 1, 6638
3, 119208, Pitch_bend_c, 1, 7344
3, 119228, Note_on_c, 1, 43, 0
3, 119228, Pitch_bend_c, 1, 7909
3, 119232, Note_on_c, 1, 41, 127
3, 119244, Pitch_bend_c, 1, 8192
3, 119408, Note_on_c, 1, 41, 0
3, 119424, Note_on_c, 1, 38, 127
3, 119612, Note_on_c, 1, 38, 0
3, 119616, Note_on_c, 1, 36, 127
3, 119776, Note_on_c, 1, 36, 0
3, 119808, Note_on_c, 1, 31, 127
3, 120184, Note_on_c, 1, 31, 0
3, 120384, Note_on_c, 1, 31, 127
3, 120460, Note_on_c, 1, 31, 0
3, 120576, Note_on_c, 1, 31, 127
3, 120956, Note_on_c, 1, 31, 0
3, 121152, Note_on_c, 1, 29, 127
3, 121252, Note_on_c, 1, 29, 0
3, 121344, Note_on_c, 1, 31, 127
3, 121720, Note_on_c, 1, 31, 0
3, 121920, Note_on_c, 1, 31, 127
3, 121988, Note_on_c, 1, 31, 0
3, 122112, Note_on_c, 1, 36, 127
3, 122264, Note_on_c, 1, 36, 0
3, 122304, Note_on_c, 1, 34, 127
3, 122444, Note_on_c, 1, 34, 0
3, 122496, Note_on_c, 1, 29, 127
3, 122668, Note_on_c, 1, 29, 0
3, 122688, Note_on_c, 1, 30, 127
3, 122864, Note_on_c, 1, 30, 0
3, 122880, Note_on_c, 1, 31, 127
3, 123260, Note_on_c, 1, 31, 0
3, 123456, Note_on_c, 1, 31, 127
3, 123540, Note_on_c, 1, 31, 0
3, 123648, Note_on_c, 1, 31, 127
3, 124040, Note_on_c, 1, 31, 0
3, 124224, Note_on_c, 1, 31, 127
3, 124328, Note_on_c, 1, 31, 0
3, 124416, Note_on_c, 1, 34, 127
3, 124776, Note_on_c, 1, 34, 0
3, 124992, Note_on_c, 1, 34, 127
3, 125152, Note_on_c, 1, 34, 0
3, 125184, Note_on_c, 1, 36, 127
3, 125484, Note_on_c, 1, 36, 0
3, 125568, Note_on_c, 1, 36, 127
3, 125740, Note_on_c, 1, 36, 0
3, 125760, Note_on_c, 1, 38, 127
3, 125896, Note_on_c, 1, 38, 0
3, 125952, Note_on_c, 1, 31, 127
3, 126328, Note_on_c, 1, 31, 0
3, 126528, Note_on_c, 1, 31, 127
3, 126604, Note_on_c, 1, 31, 0
3, 126720, Note_on_c, 1, 31, 127
3, 127100, Note_on_c, 1, 31, 0
3, 127296, Note_on_c, 1, 29, 127
3, 127396, Note_on_c, 1, 29, 0
3, 127488, Note_on_c, 1, 31, 127
3, 127864, Note_on_c, 1, 31, 0
3, 128064, Note_on_c, 1, 31, 127
3, 128132, Note_on_c, 1, 31, 0
3, 128256, Note_on_c, 1, 36, 127
3, 128408, Note_on_c, 1, 36, 0
3, 128448, Note_on_c, 1, 34, 127
3, 128588, Note_on_c, 1, 34, 0
3, 128640, Note_on_c, 1, 33, 127
3, 128812, Note_on_c, 1, 33, 0
3, 128832, Note_on_c, 1, 32, 127
3, 129008, Note_on_c, 1, 32, 0
3, 129024, Note_on_c, 1, 31, 127
3, 129404, Note_on_c, 1, 31, 0
3, 129600, Note_on_c, 1, 31, 127
3, 129684, Note_on_c, 1, 31, 0
3, 129792, Note_on_c, 1, 31, 127
3, 130184, Note_on_c, 1, 31, 0
3, 130368, Note_on_c, 1, 31, 127
3, 130472, Note_on_c, 1, 31, 0
3, 130560, Note_on_c, 1, 29, 127
3, 130912, Note_on_c, 1, 29, 0
3, 130944, Note_on_c, 1, 31, 127
3, 131232, Pitch_bend_c, 1, 8050
3, 131248, Pitch_bend_c, 1, 6991
3, 131260, Note_on_c, 1, 31, 0
3, 131268, Pitch_bend_c, 1, 5508
3, 131288, Pitch_bend_c, 1, 3742
3, 131304, Pitch_bend_c, 1, 2401
3, 131324, Pitch_bend_c, 1, 1412
3, 131328, Note_on_c, 1, 34, 127
3, 131340, Pitch_bend_c, 1, 1129
3, 131368, Pitch_bend_c, 1, 1341
3, 131388, Pitch_bend_c, 1, 1836
3, 131404, Pitch_bend_c, 1, 2683
3, 131424, Pitch_bend_c, 1, 3884
3, 131440, Pitch_bend_c, 1, 5084
3, 131460, Pitch_bend_c, 1, 5932
3, 131480, Pitch_bend_c, 1, 6638
3, 131496, Pitch_bend_c, 1, 7344
3, 131516, Note_on_c, 1, 34, 0
3, 131516, Pitch_bend_c, 1, 7909
3, 131520, Note_on_c, 1, 31, 127
3, 131532, Pitch_bend_c, 1, 8192
3, 131696, Note_on_c, 1, 31, 0
3, 131712, Note_on_c, 1, 34, 127
3, 131900, Note_on_c, 1, 34, 0
3, 131904, Note_on_c, 1, 38, 127
3, 132064, Note_on_c, 1, 38, 0
3, 132096, Note_on_c, 1, 39, 127
3, 132560, Note_on_c, 1, 39, 0
3, 132672, Note_on_c, 1, 39, 127
3, 132764, Note_on_c, 1, 39, 0
3, 132864, Note_on_c, 1, 39, 127
3, 133212, Note_on_c, 1, 39, 0
3, 133248, Note_on_c, 1, 43, 127
3, 133396, Note_on_c, 1, 43, 0
3, 133632, Note_on_c, 1, 34, 127
3, 134100, Note_on_c, 1, 34, 0
3, 134208, Note_on_c, 1, 34, 127
3, 134396, Note_on_c, 1, 34, 0
3, 134400, Note_on_c, 1, 38, 127
3, 134564, Note_on_c, 1, 38, 0
3, 134592, Note_on_c, 1, 34, 127
3, 134780, Note_on_c, 1, 34, 0
3, 134784, Note_on_c, 1, 38, 127
3, 134968, Note_on_c, 1, 38, 0
3, 134976, Note_on_c, 1, 41, 127
3, 135144, Note_on_c, 1, 41, 0
3, 135168, Note_on_c, 1, 39, 127
3, 135632, Note_on_c, 1, 39, 0
3, 135744, Note_on_c, 1, 39, 127
3, 135836, Note_on_c, 1, 39, 0
3, 135936, Note_on_c, 1, 43, 127
3, 136092, Note_on_c, 1, 43, 0
3, 136320, Note_on_c, 1, 39, 127
3, 136660, Note_on_c, 1, 39, 0
3, 136704, Note_on_c, 1, 41, 127
3, 137068, Note_on_c, 1, 41, 0
3, 137088, Note_on_c, 1, 38, 127
3, 137272, Note_on_c, 1, 38, 0
3, 137280, Note_on_c, 1, 36, 127
3, 137444, Note_on_c, 1, 36, 0
3, 137472, Note_on_c, 1, 29, 127
3, 137756, Note_on_c, 1, 29, 0
3, 137856, Note_on_c, 1, 29, 127
3, 138020, Note_on_c, 1, 29, 0
3, 138048, Note_on_c, 1, 30, 127
3, 138172, Note_on_c, 1, 30, 0
3, 138240, Note_on_c, 1, 31, 127
3, 138600, Note_on_c, 1, 31, 0
3, 138816, Note_on_c, 1, 31, 127
3, 138924, Note_on_c, 1, 31, 0
3, 139008, Note_on_c, 1, 31, 127
3, 139424, Note_on_c, 1, 31, 0
3, 139584, Note_on_c, 1, 31, 127
3, 139688, Note_on_c, 1, 31, 0
3, 139776, Note_on_c, 1, 31, 127
3, 140196, Note_on_c, 1, 31, 0
3, 140352, Note_on_c, 1, 31, 127
3, 140496, Note_on_c, 1, 31, 0
3, 140544, Note_on_c, 1, 29, 127
3, 140732, Note_on_c, 1, 29, 0
3, 140736, Note_on_c, 1, 31, 127
3, 140884, Note_on_c, 1, 31, 0
3, 140928, Note_on_c, 1, 34, 127
3, 141108, Note_on_c, 1, 34, 0
3, 141120, Note_on_c, 1, 31, 127
3, 141236, Note_on_c, 1, 31, 0
3, 141312, Note_on_c, 1, 36, 127
3, 141736, Note_on_c, 1, 36, 0
3, 141888, Note_on_c, 1, 36, 127
3, 142044, Note_on_c, 1, 36, 0
3, 142080, Note_on_c, 1, 28, 127
3, 142256, Note_on_c, 1, 28, 0
3, 142272, Note_on_c, 1, 31, 127
3, 142424, Note_on_c, 1, 31, 0
3, 142464, Note_on_c, 1, 36, 127
3, 142832, Note_on_c, 1, 36, 0
3, 142848, Note_on_c, 1, 38, 127
3, 143296, Note_on_c, 1, 38, 0
3, 143424, Note_on_c, 1, 38, 127
3, 143572, Note_on_c, 1, 38, 0
3, 143616, Note_on_c, 1, 30, 127
3, 143800, Note_on_c, 1, 30, 0
3, 143808, Note_on_c, 1, 33, 127
3, 143980, Note_on_c, 1, 33, 0
3, 144000, Note_on_c, 1, 38, 127
3, 144316, Note_on_c, 1, 38, 0
3, 144384, Note_on_c, 1, 40, 127
3, 144856, Note_on_c, 1, 40, 0
3, 144960, Note_on_c, 1, 40, 127
3, 145060, Note_on_c, 1, 40, 0
3, 145152, Note_on_c, 1, 40, 127
3, 145796, Note_on_c, 1, 40, 0
3, 145920, Note_on_c, 1, 40, 127
3, 146400, Note_on_c, 1, 40, 0
3, 146496, Note_on_c, 1, 40, 127
3, 146580, Note_on_c, 1, 40, 0
3, 146688, Note_on_c, 1, 40, 127
3, 147052, Note_on_c, 1, 40, 0
3, 147072, Note_on_c, 1, 30, 127
3, 147392, Note_on_c, 1, 30, 0
3, 147456, Note_on_c, 1, 31, 127
3, 147832, Note_on_c, 1, 31, 0
3, 148032, Note_on_c, 1, 31, 127
3, 148108, Note_on_c, 1, 31, 0
3, 148224, Note_on_c, 1, 31, 127
3, 148604, Note_on_c, 1, 31, 0
3, 148800, Note_on_c, 1, 29, 127
3, 148900, Note_on_c, 1, 29, 0
3, 148992, Note_on_c, 1, 31, 127
3, 149368, Note_on_c, 1, 31, 0
3, 149568, Note_on_c, 1, 31, 127
3, 149636, Note_on_c, 1, 31, 0
3, 149760, Note_on_c, 1, 36, 127
3, 149912, Note_on_c, 1, 36, 0
3, 149952, Note_on_c, 1, 34, 127
3, 150092, Note_on_c, 1, 34, 0
3, 150144, Note_on_c, 1, 29, 127
3, 150316, Note_on_c, 1, 29, 0
3, 150336, Note_on_c, 1, 30, 127
3, 150512, Note_on_c, 1, 30, 0
3, 150528, Note_on_c, 1, 31, 127
3, 150908, Note_on_c, 1, 31, 0
3, 151104, Note_on_c, 1, 31, 127
3, 151188, Note_on_c, 1, 31, 0
3, 151296, Note_on_c, 1, 31, 127
3, 151688, Note_on_c, 1, 31, 0
3, 151872, Note_on_c, 1, 31, 127
3, 151976, Note_on_c, 1, 31, 0
3, 152064, Note_on_c, 1, 34, 127
3, 152424, Note_on_c, 1, 34, 0
3, 152640, Note_on_c, 1, 34, 127
3, 152800, Note_on_c, 1, 34, 0
3, 152832, Note_on_c, 1, 36, 127
3, 153132, Note_on_c, 1, 36, 0
3, 153216, Note_on_c, 1, 36, 127
3, 153388, Note_on_c, 1, 36, 0
3, 153408, Note_on_c, 1, 38, 127
3, 153544, Note_on_c, 1, 38, 0
3, 153600, Note_on_c, 1, 31, 127
3, 153976, Note_on_c, 1, 31, 0
3, 154176, Note_on_c, 1, 31, 127
3, 154252, Note_on_c, 1, 31, 0
3, 154368, Note_on_c, 1, 31, 127
3, 154748, Note_on_c, 1, 31, 0
3, 154944, Note_on_c, 1, 29, 127
3, 155044, Note_on_c, 1, 29, 0
3, 155136, Note_on_c, 1, 31, 127
3, 155512, Note_on_c, 1, 31, 0
3, 155712, Note_on_c, 1, 31, 127
3, 155780, Note_on_c, 1, 31, 0
3, 155904, Note_on_c, 1, 38, 127
3, 156056, Note_on_c, 1, 38, 0
3, 156096, Note_on_c, 1, 36, 127
3, 156236, Note_on_c, 1, 36, 0
3, 156288, Note_on_c, 1, 34, 127
3, 156460, Note_on_c, 1, 34, 0
3, 156480, Note_on_c, 1, 33, 127
3, 156656, Note_on_c, 1, 33, 0
3, 156672, Note_on_c, 1, 31, 127
3, 157052, Note_on_c, 1, 31, 0
3, 157248, Note_on_c, 1, 31, 127
3, 157332, Note_on_c, 1, 31, 0
3, 157440, Note_on_c, 1, 31, 127
3, 157832, Note_on_c, 1, 31, 0
3, 158016, Note_on_c, 1, 31, 127
3, 158120, Note_on_c, 1, 31, 0
3, 158208, Note_on_c, 1, 29, 127
3, 158560, Note_on_c, 1, 29, 0
3, 158592, Note_on_c, 1, 31, 127
3, 158880, Pitch_bend_c, 1, 8050
3, 158896, Pitch_bend_c, 1, 6991
3, 158908, Note_on_c, 1, 31, 0
3, 158916, Pitch_bend_c, 1, 5508
3, 158936, Pitch_bend_c, 1, 3742
3, 158952, Pitch_bend_c, 1, 2401
3, 158972, Pitch_bend_c, 1, 1412
3, 158976, Note_on_c, 1, 34, 127
3, 158988, Pitch_bend_c, 1, 1129
3, 159016, Pitch_bend_c, 1, 1341
3, 159036, Pitch_bend_c, 1, 1836
3, 159052, Pitch_bend_c, 1, 2683
3, 159072, Pitch_bend_c, 1, 3884
3, 159088, Pitch_bend_c, 1, 5084
3, 159108, Pitch_bend_c, 1, 5932
3, 159128, Pitch_bend_c, 1, 6638
3, 159144, Pitch_bend_c, 1, 7344
3, 159164, Note_on_c, 1, 34, 0
3, 159164, Pitch_bend_c, 1, 7909
3, 159168, Note_on_c, 1, 31, 127
3, 159180, Pitch_bend_c, 1, 8192
3, 159344, Note_on_c, 1, 31, 0
3, 159360, Note_on_c, 1, 34, 127
3, 159548, Note_on_c, 1, 34, 0
3, 159552, Note_on_c, 1, 38, 127
3, 159712, Note_on_c, 1, 38, 0
3, 159744, Note_on_c, 1, 39, 127
3, 160208, Note_on_c, 1, 39, 0
3, 160320, Note_on_c, 1, 39, 127
3, 160412, Note_on_c, 1, 39, 0
3, 160512, Note_on_c, 1, 43, 127
3, 160712, Note_on_c, 1, 43, 0
3, 160896, Note_on_c, 1, 43, 127
3, 161044, Note_on_c, 1, 43, 0
3, 161280, Note_on_c, 1, 34, 127
3, 161748, Note_on_c, 1, 34, 0
3, 161856, Note_on_c, 1, 34, 127
3, 162044, Note_on_c, 1, 34, 0
3, 162048, Note_on_c, 1, 38, 127
3, 162212, Note_on_c, 1, 38, 0
3, 162240, Note_on_c, 1, 34, 127
3, 162428, Note_on_c, 1, 34, 0
3, 162432, Note_on_c, 1, 38, 127
3, 162616, Note_on_c, 1, 38, 0
3, 162624, Note_on_c, 1, 41, 127
3, 162792, Note_on_c, 1, 41, 0
3, 162816, Note_on_c, 1, 39, 127
3, 163280, Note_on_c, 1, 39, 0
3, 163392, Note_on_c, 1, 39, 127
3, 163484, Note_on_c, 1, 39, 0
3, 163584, Note_on_c, 1, 43, 127
3, 163740, Note_on_c, 1, 43, 0
3, 163968, Note_on_c, 1, 39, 127
3, 164308, Note_on_c, 1, 39, 0
3, 164352, Note_on_c, 1, 41, 127
3, 164716, Note_on_c, 1, 41, 0
3, 164736, Note_on_c, 1, 38, 127
3, 164920, Note_on_c, 1, 38, 0
3, 164928, Note_on_c, 1, 36, 127
3, 165092, Note_on_c, 1, 36, 0
3, 165120, Note_on_c, 1, 29, 127
3, 165404, Note_on_c, 1, 29, 0
3, 165504, Note_on_c, 1, 29, 127
3, 165668, Note_on_c, 1, 29, 0
3, 165696, Note_on_c, 1, 30, 127
3, 165820, Note_on_c, 1, 30, 0
3, 165888, Note_on_c, 1, 31, 127
3, 166248, Note_on_c, 1, 31, 0
3, 166464, Note_on_c, 1, 31, 127
3, 166572, Note_on_c, 1, 31, 0
3, 166656, Note_on_c, 1, 31, 127
3, 167072, Note_on_c, 1, 31, 0
3, 167232, Note_on_c, 1, 31, 127
3, 167336, Note_on_c, 1, 31, 0
3, 167424, Note_on_c, 1, 31, 127
3, 167844, Note_on_c, 1, 31, 0
3, 168000, Note_on_c, 1, 31, 127
3, 168144, Note_on_c, 1, 31, 0
3, 168192, Note_on_c, 1, 29, 127
3, 168380, Note_on_c, 1, 29, 0
3, 168384, Note_on_c, 1, 31, 127
3, 168532, Note_on_c, 1, 31, 0
3, 168576, Note_on_c, 1, 34, 127
3, 168756, Note_on_c, 1, 34, 0
3, 168768, Note_on_c, 1, 31, 127
3, 168884, Note_on_c, 1, 31, 0
3, 168960, Note_on_c, 1, 36, 127
3, 169384, Note_on_c, 1, 36, 0
3, 169536, Note_on_c, 1, 36, 127
3, 169692, Note_on_c, 1, 36, 0
3, 169728, Note_on_c, 1, 28, 127
3, 169904, Note_on_c, 1, 28, 0
3, 169920, Note_on_c, 1, 31, 127
3, 170072, Note_on_c, 1, 31, 0
3, 170112, Note_on_c, 1, 36, 127
3, 170480, Note_on_c, 1, 36, 0
3, 170496, Note_on_c, 1, 38, 127
3, 170944, Note_on_c, 1, 38, 0
3, 171072, Note_on_c, 1, 38, 127
3, 171220, Note_on_c, 1, 38, 0
3, 171264, Note_on_c, 1, 30, 127
3, 171448, Note_on_c, 1, 30, 0
3, 171456, Note_on_c, 1, 33, 127
3, 171628, Note_on_c, 1, 33, 0
3, 171648, Note_on_c, 1, 38, 127
3, 171964, Note_on_c, 1, 38, 0
3, 172032, Note_on_c, 1, 40, 127
3, 172504, Note_on_c, 1, 40, 0
3, 172608, Note_on_c, 1, 40, 127
3, 172708, Note_on_c, 1, 40, 0
3, 172800, Note_on_c, 1, 40, 127
3, 173444, Note_on_c, 1, 40, 0
3, 173568, Note_on_c, 1, 40, 127
3, 174048, Note_on_c, 1, 40, 0
3, 174144, Note_on_c, 1, 35, 127
3, 174228, Note_on_c, 1, 35, 0
3, 174336, Note_on_c, 1, 40, 127
3, 174700, Note_on_c, 1, 40, 0
3, 174720, Note_on_c, 1, 30, 127
3, 175040, Note_on_c, 1, 30, 0
3, 175104, Note_on_c, 1, 31, 127
3, 175480, Note_on_c, 1, 31, 0
3, 175680, Note_on_c, 1, 31, 127
3, 175756, Note_on_c, 1, 31, 0
3, 175872, Note_on_c, 1, 31, 127
3, 176252, Note_on_c, 1, 31, 0
3, 176448, Note_on_c, 1, 29, 127
3, 176548, Note_on_c, 1, 29, 0
3, 176640, Note_on_c, 1, 31, 127
3, 177016, Note_on_c, 1, 31, 0
3, 177216, Note_on_c, 1, 31, 127
3, 177284, Note_on_c, 1, 31, 0
3, 177408, Note_on_c, 1, 36, 127
3, 177560, Note_on_c, 1, 36, 0
3, 177600, Note_on_c, 1, 34, 127
3, 177740, Note_on_c, 1, 34, 0
3, 177792, Note_on_c, 1, 29, 127
3, 177964, Note_on_c, 1, 29, 0
3, 177984, Note_on_c, 1, 30, 127
3, 178160, Note_on_c, 1, 30, 0
3, 178176, Note_on_c, 1, 31, 127
3, 178556, Note_on_c, 1, 31, 0
3, 178752, Note_on_c, 1, 31, 127
3, 178836, Note_on_c, 1, 31, 0
3, 178944, Note_on_c, 1, 31, 127
3, 179336, Note_on_c, 1, 31, 0
3, 179520, Note_on_c, 1, 31, 127
3, 179624, Note_on_c, 1, 31, 0
3, 179712, Note_on_c, 1, 34, 127
3, 180072, Note_on_c, 1, 34, 0
3, 180288, Note_on_c, 1, 34, 127
3, 180448, Note_on_c, 1, 34, 0
3, 180480, Note_on_c, 1, 36, 127
3, 180780, Note_on_c, 1, 36, 0
3, 180864, Note_on_c, 1, 36, 127
3, 181036, Note_on_c, 1, 36, 0
3, 181056, Note_on_c, 1, 38, 127
3, 181192, Note_on_c, 1, 38, 0
3, 181248, Note_on_c, 1, 31, 127
3, 181624, Note_on_c, 1, 31, 0
3, 181824, Note_on_c, 1, 31, 127
3, 181900, Note_on_c, 1, 31, 0
3, 182016, Note_on_c, 1, 31, 127
3, 182396, Note_on_c, 1, 31, 0
3, 182592, Note_on_c, 1, 29, 127
3, 182692, Note_on_c, 1, 29, 0
3, 182784, Note_on_c, 1, 31, 127
3, 183160, Note_on_c, 1, 31, 0
3, 183360, Note_on_c, 1, 31, 127
3, 183428, Note_on_c, 1, 31, 0
3, 183552, Note_on_c, 1, 36, 127
3, 183704, Note_on_c, 1, 36, 0
3, 183744, Note_on_c, 1, 34, 127
3, 183884, Note_on_c, 1, 34, 0
3, 183936, Note_on_c, 1, 33, 127
3, 184108, Note_on_c, 1, 33, 0
3, 184128, Note_on_c, 1, 32, 127
3, 184304, Note_on_c, 1, 32, 0
3, 184320, Note_on_c, 1, 31, 127
3, 184700, Note_on_c, 1, 31, 0
3, 184896, Note_on_c, 1, 31, 127
3, 184980, Note_on_c, 1, 31, 0
3, 185088, Note_on_c, 1, 31, 127
3, 185480, Note_on_c, 1, 31, 0
3, 185664, Note_on_c, 1, 31, 127
3, 185768, Note_on_c, 1, 31, 0
3, 185856, Note_on_c, 1, 29, 127
3, 186208, Note_on_c, 1, 29, 0
3, 186240, Note_on_c, 1, 31, 127
3, 186528, Pitch_bend_c, 1, 8050
3, 186544, Pitch_bend_c, 1, 6991
3, 186556, Note_on_c, 1, 31, 0
3, 186564, Pitch_bend_c, 1, 5508
3, 186584, Pitch_bend_c, 1, 3742
3, 186600, Pitch_bend_c, 1, 2401
3, 186620, Pitch_bend_c, 1, 1412
3, 186624, Note_on_c, 1, 43, 127
3, 186636, Pitch_bend_c, 1, 1129
3, 186664, Pitch_bend_c, 1, 1341
3, 186684, Pitch_bend_c, 1, 1836
3, 186700, Pitch_bend_c, 1, 2683
3, 186720, Pitch_bend_c, 1, 3884
3, 186736, Pitch_bend_c, 1, 5084
3, 186756, Pitch_bend_c, 1, 5932
3, 186776, Pitch_bend_c, 1, 6638
3, 186792, Pitch_bend_c, 1, 7344
3, 186812, Note_on_c, 1, 43, 0
3, 186812, Pitch_bend_c, 1, 7909
3, 186816, Note_on_c, 1, 41, 127
3, 186828, Pitch_bend_c, 1, 8192
3, 186992, Note_on_c, 1, 41, 0
3, 187008, Note_on_c, 1, 38, 127
3, 187196, Note_on_c, 1, 38, 0
3, 187200, Note_on_c, 1, 36, 127
3, 187360, Note_on_c, 1, 36, 0
3, 187392, Note_on_c, 1, 39, 127
3, 187856, Note_on_c, 1, 39, 0
3, 187968, Note_on_c, 1, 39, 127
3, 188060, Note_on_c, 1, 39, 0
3, 188160, Note_on_c, 1, 43, 127
3, 188360, Note_on_c, 1, 43, 0
3, 188544, Note_on_c, 1, 43, 127
3, 188692, Note_on_c, 1, 43, 0
3, 188928, Note_on_c, 1, 34, 127
3, 189396, Note_on_c, 1, 34, 0
3, 189504, Note_on_c, 1, 34, 127
3, 189692, Note_on_c, 1, 34, 0
3, 189696, Note_on_c, 1, 38, 127
3, 189860, Note_on_c, 1, 38, 0
3, 189888, Note_on_c, 1, 34, 127
3, 190076, Note_on_c, 1, 34, 0
3, 190080, Note_on_c, 1, 38, 127
3, 190264, Note_on_c, 1, 38, 0
3, 190272, Note_on_c, 1, 41, 127
3, 190440, Note_on_c, 1, 41, 0
3, 190464, Note_on_c, 1, 39, 127
3, 190928, Note_on_c, 1, 39, 0
3, 191040, Note_on_c, 1, 39, 127
3, 191132, Note_on_c, 1, 39, 0
3, 191232, Note_on_c, 1, 43, 127
3, 191388, Note_on_c, 1, 43, 0
3, 191616, Note_on_c, 1, 39, 127
3, 191956, Note_on_c, 1, 39, 0
3, 192000, Note_on_c, 1, 41, 127
3, 192364, Note_on_c, 1, 41, 0
3, 192384, Note_on_c, 1, 38, 127
3, 192568, Note_on_c, 1, 38, 0
3, 192576, Note_on_c, 1, 36, 127
3, 192740, Note_on_c, 1, 36, 0
3, 192768, Note_on_c, 1, 29, 127
3, 193052, Note_on_c, 1, 29, 0
3, 193152, Note_on_c, 1, 29, 127
3, 193316, Note_on_c, 1, 29, 0
3, 193344, Note_on_c, 1, 30, 127
3, 193468, Note_on_c, 1, 30, 0
3, 193536, Note_on_c, 1, 31, 127
3, 193896, Note_on_c, 1, 31, 0
3, 194112, Note_on_c, 1, 31, 127
3, 194220, Note_on_c, 1, 31, 0
3, 194304, Note_on_c, 1, 31, 127
3, 194720, Note_on_c, 1, 31, 0
3, 194880, Note_on_c, 1, 31, 127
3, 194984, Note_on_c, 1, 31, 0
3, 195072, Note_on_c, 1, 31, 127
3, 195492, Note_on_c, 1, 31, 0
3, 195648, Note_on_c, 1, 31, 127
3, 195792, Note_on_c, 1, 31, 0
3, 195840, Note_on_c, 1, 29, 127
3, 196028, Note_on_c, 1, 29, 0
3, 196032, Note_on_c, 1, 31, 127
3, 196180, Note_on_c, 1, 31, 0
3, 196224, Note_on_c, 1, 34, 127
3, 196404, Note_on_c, 1, 34, 0
3, 196416, Note_on_c, 1, 31, 127
3, 196532, Note_on_c, 1, 31, 0
3, 196608, Note_on_c, 1, 36, 127
3, 197032, Note_on_c, 1, 36, 0
3, 197184, Note_on_c, 1, 36, 127
3, 197340, Note_on_c, 1, 36, 0
3, 197376, Note_on_c, 1, 28, 127
3, 197552, Note_on_c, 1, 28, 0
3, 197568, Note_on_c, 1, 31, 127
3, 197720, Note_on_c, 1, 31, 0
3, 197760, Note_on_c, 1, 36, 127
3, 198128, Note_on_c, 1, 36, 0
3, 198144, Note_on_c, 1, 38, 127
3, 198592, Note_on_c, 1, 38, 0
3, 198720, Note_on_c, 1, 38, 127
3, 198868, Note_on_c, 1, 38, 0
3, 198912, Note_on_c, 1, 30, 127
3, 199096, Note_on_c, 1, 30, 0
3, 199104, Note_on_c, 1, 33, 127
3, 199276, Note_on_c, 1, 33, 0
3, 199296, Note_on_c, 1, 38, 127
3, 199612, Note_on_c, 1, 38, 0
3, 199680, Note_on_c, 1, 40, 127
3, 200152, Note_on_c, 1, 40, 0
3, 200256, Note_on_c, 1, 40, 127
3, 200356, Note_on_c, 1, 40, 0
3, 200448, Note_on_c, 1, 40, 127
3, 201092, Note_on_c, 1, 40, 0
3, 201216, Note_on_c, 1, 40, 127
3, 201696, Note_on_c, 1, 40, 0
3, 201792, Note_on_c, 1, 35, 127
3, 201876, Note_on_c, 1, 35, 0
3, 201984, Note_on_c, 1, 40, 127
3, 202348, Note_on_c, 1, 40, 0
3, 202368, Note_on_c, 1, 30, 127
3, 202688, Note_on_c, 1, 30, 0
3, 202752, Note_on_c, 1, 31, 127
3, 203128, Note_on_c, 1, 31, 0
3, 203328, Note_on_c, 1, 31, 127
3, 203404, Note_on_c, 1, 31, 0
3, 203520, Note_on_c, 1, 31, 127
3, 203900, Note_on_c, 1, 31, 0
3, 204096, Note_on_c, 1, 29, 127
3, 204196, Note_on_c, 1, 29, 0
3, 204288, Note_on_c, 1, 31, 127
3, 204664, Note_on_c, 1, 31, 0
3, 204864, Note_on_c, 1, 31, 127
3, 204932, Note_on_c, 1, 31, 0
3, 205056, Note_on_c, 1, 36, 127
3, 205208, Note_on_c, 1, 36, 0
3, 205248, Note_on_c, 1, 34, 127
3, 205388, Note_on_c, 1, 34, 0
3, 205440, Note_on_c, 1, 29, 127
3, 205612, Note_on_c, 1, 29, 0
3, 205632, Note_on_c, 1, 30, 127
3, 205808, Note_on_c, 1, 30, 0
3, 205824, Note_on_c, 1, 31, 127
3, 206204, Note_on_c, 1, 31, 0
3, 206400, Note_on_c, 1, 31, 127
3, 206484, Note_on_c, 1, 31, 0
3, 206592, Note_on_c, 1, 31, 127
3, 206984, Note_on_c, 1, 31, 0
3, 207168, Note_on_c, 1, 31, 127
3, 207272, Note_on_c, 1, 31, 0
3, 207360, Note_on_c, 1, 34, 127
3, 207720, Note_on_c, 1, 34, 0
3, 207936, Note_on_c, 1, 34, 127
3, 208096, Note_on_c, 1, 34, 0
3, 208128, Note_on_c, 1, 36, 127
3, 208428, Note_on_c, 1, 36, 0
3, 208512, Note_on_c, 1, 36, 127
3, 208684, Note_on_c, 1, 36, 0
3, 208704, Note_on_c, 1, 38, 127
3, 208840, Note_on_c, 1, 38, 0
3, 208896, Note_on_c, 1, 31, 127
3, 209272, Note_on_c, 1, 31, 0
3, 209472, Note_on_c, 1, 31, 127
3, 209548, Note_on_c, 1, 31, 0
3, 209664, Note_on_c, 1, 31, 127
3, 210044, Note_on_c, 1, 31, 0
3, 210240, Note_on_c, 1, 29, 127
3, 210340, Note_on_c, 1, 29, 0
3, 210432, Note_on_c, 1, 31, 127
3, 210808, Note_on_c, 1, 31, 0
3, 211008, Note_on_c, 1, 31, 127
3, 211076, Note_on_c, 1, 31, 0
3, 211200, Note_on_c, 1, 38, 127
3, 211352, Note_on_c, 1, 38, 0
3, 211392, Note_on_c, 1, 36, 127
3, 211532, Note_on_c, 1, 36, 0
3, 211584, Note_on_c, 1, 34, 127
3, 211756, Note_on_c, 1, 34, 0
3, 211776, Note_on_c, 1, 33, 127
3, 211952, Note_on_c, 1, 33, 0
3, 211968, Note_on_c, 1, 31, 127
3, 212348, Note_on_c, 1, 31, 0
3, 212544, Note_on_c, 1, 31, 127
3, 212628, Note_on_c, 1, 31, 0
3, 212736, Note_on_c, 1, 31, 127
3, 213128, Note_on_c, 1, 31, 0
3, 213312, Note_on_c, 1, 31, 127
3, 213416, Note_on_c, 1, 31, 0
3, 213504, Note_on_c, 1, 29, 127
3, 213856, Note_on_c, 1, 29, 0
3, 213888, Note_on_c, 1, 31, 127
3, 214176, Pitch_bend_c, 1, 8050
3, 214192, Pitch_bend_c, 1, 6991
3, 214204, Note_on_c, 1, 31, 0
3, 214212, Pitch_bend_c, 1, 5508
3, 214232, Pitch_bend_c, 1, 3742
3, 214248, Pitch_bend_c, 1, 2401
3, 214268, Pitch_bend_c, 1, 1412
3, 214272, Note_on_c, 1, 43, 127
3, 214284, Pitch_bend_c, 1, 1129
3, 214312, Pitch_bend_c, 1, 1341
3, 214332, Pitch_bend_c, 1, 1836
3, 214348, Pitch_bend_c, 1, 2683
3, 214368, Pitch_bend_c, 1, 3884
3, 214384, Pitch_bend_c, 1, 5084
3, 214404, Pitch_bend_c, 1, 5932
3, 214424, Pitch_bend_c, 1, 6638
3, 214440, Pitch_bend_c, 1, 7344
3, 214460, Note_on_c, 1, 43, 0
3, 214460, Pitch_bend_c, 1, 7909
3, 214464, Note_on_c, 1, 41, 127
3, 214476, Pitch_bend_c, 1, 8192
3, 214640, Note_on_c, 1, 41, 0
3, 214656, Note_on_c, 1, 38, 127
3, 214844, Note_on_c, 1, 38, 0
3, 214848, Note_on_c, 1, 36, 127
3, 215008, Note_on_c, 1, 36, 0
3, 215040, Note_on_c, 1, 31, 127
3, 215416, Note_on_c, 1, 31, 0
3, 215616, Note_on_c, 1, 31, 127
3, 215692, Note_on_c, 1, 31, 0
3, 215808, Note_on_c, 1, 31, 127
3, 216188, Note_on_c, 1, 31, 0
3, 216384, Note_on_c, 1, 29, 127
3, 216484, Note_on_c, 1, 29, 0
3, 216576, Note_on_c, 1, 31, 127
3, 216952, Note_on_c, 1, 31, 0
3, 217152, Note_on_c, 1, 31, 127
3, 217220, Note_on_c, 1, 31, 0
3, 217344, Note_on_c, 1, 36, 127
3, 217496, Note_on_c, 1, 36, 0
3, 217536, Note_on_c, 1, 34, 127
3, 217676, Note_on_c, 1, 34, 0
3, 217728, Note_on_c, 1, 29, 127
3, 217900, Note_on_c, 1, 29, 0
3, 217920, Note_on_c, 1, 30, 127
3, 218096, Note_on_c, 1, 30, 0
3, 218112, Note_on_c, 1, 31, 127
3, 218492, Note_on_c, 1, 31, 0
3, 218688, Note_on_c, 1, 31, 127
3, 218772, Note_on_c, 1, 31, 0
3, 218880, Note_on_c, 1, 31, 127
3, 219272, Note_on_c, 1, 31, 0
3, 219456, Note_on_c, 1, 31, 127
3, 219560, Note_on_c, 1, 31, 0
3, 219648, Note_on_c, 1, 34, 127
3, 220008, Note_on_c, 1, 34, 0
3, 220224, Note_on_c, 1, 34, 127
3, 220384, Note_on_c, 1, 34, 0
3, 220416, Note_on_c, 1, 36, 127
3, 220716, Note_on_c, 1, 36, 0
3, 220800, Note_on_c, 1, 36, 127
3, 220972, Note_on_c, 1, 36, 0
3, 220992, Note_on_c, 1, 38, 127
3, 221128, Note_on_c, 1, 38, 0
3, 221184, Note_on_c, 1, 31, 127
3, 221560, Note_on_c, 1, 31, 0
3, 221760, Note_on_c, 1, 31, 127
3, 221836, Note_on_c, 1, 31, 0
3, 221952, Note_on_c, 1, 31, 127
3, 222332, Note_on_c, 1, 31, 0
3, 222528, Note_on_c, 1, 29, 127
3, 222628, Note_on_c, 1, 29, 0
3, 222720, Note_on_c, 1, 31, 127
3, 223096, Note_on_c, 1, 31, 0
3, 223296, Note_on_c, 1, 31, 127
3, 223364, Note_on_c, 1, 31, 0
3, 223488, Note_on_c, 1, 38, 127
3, 223640, Note_on_c, 1, 38, 0
3, 223680, Note_on_c, 1, 36, 127
3, 223820, Note_on_c, 1, 36, 0
3, 223872, Note_on_c, 1, 34, 127
3, 224044, Note_on_c, 1, 34, 0
3, 224064, Note_on_c, 1, 33, 127
3, 224240, Note_on_c, 1, 33, 0
3, 224256, Note_on_c, 1, 31, 127
3, 224636, Note_on_c, 1, 31, 0
3, 224832, Note_on_c, 1, 31, 127
3, 224916, Note_on_c, 1, 31, 0
3, 225024, Note_on_c, 1, 31, 127
3, 225416, Note_on_c, 1, 31, 0
3, 225600, Note_on_c, 1, 31, 127
3, 225704, Note_on_c, 1, 31, 0
3, 225792, Note_on_c, 1, 29, 127
3, 226144, Note_on_c, 1, 29, 0
3, 226176, Note_on_c, 1, 31, 127
3, 226464, Pitch_bend_c, 1, 8050
3, 226480, Pitch_bend_c, 1, 6991
3, 226492, Note_on_c, 1, 31, 0
3, 226500, Pitch_bend_c, 1, 5508
3, 226520, Pitch_bend_c, 1, 3742
3, 226536, Pitch_bend_c, 1, 2401
3, 226556, Pitch_bend_c, 1, 1412
3, 226560, Note_on_c, 1, 34, 127
3, 226572, Pitch_bend_c, 1, 1129
3, 226600, Pitch_bend_c, 1, 1341
3, 226620, Pitch_bend_c, 1, 1836
3, 226636, Pitch_bend_c, 1, 2683
3, 226656, Pitch_bend_c, 1, 3884
3, 226672, Pitch_bend_c, 1, 5084
3, 226692, Pitch_bend_c, 1, 5932
3, 226712, Pitch_bend_c, 1, 6638
3, 226728, Pitch_bend_c, 1, 7344
3, 226748, Note_on_c, 1, 34, 0
3, 226748, Pitch_bend_c, 1, 7909
3, 226752, Note_on_c, 1, 31, 127
3, 226764, Pitch_bend_c, 1, 8192
3, 226928, Note_on_c, 1, 31, 0
3, 226944, Note_on_c, 1, 34, 127
3, 227132, Note_on_c, 1, 34, 0
3, 227136, Note_on_c, 1, 38, 127
3, 227296, Note_on_c, 1, 38, 0
3, 227328, Note_on_c, 1, 39, 127
3, 227792, Note_on_c, 1, 39, 0
3, 227904, Note_on_c, 1, 39, 127
3, 227996, Note_on_c, 1, 39, 0
3, 228096, Note_on_c, 1, 43, 127
3, 228296, Note_on_c, 1, 43, 0
3, 228480, Note_on_c, 1, 43, 127
3, 228628, Note_on_c, 1, 43, 0
3, 228864, Note_on_c, 1, 34, 127
3, 229332, Note_on_c, 1, 34, 0
3, 229440, Note_on_c, 1, 34, 127
3, 229628, Note_on_c, 1, 34, 0
3, 229632, Note_on_c, 1, 38, 127
3, 229796, Note_on_c, 1, 38, 0
3, 229824, Note_on_c, 1, 34, 127
3, 230012, Note_on_c, 1, 34, 0
3, 230016, Note_on_c, 1, 38, 127
3, 230200, Note_on_c, 1, 38, 0
3, 230208, Note_on_c, 1, 41, 127
3, 230376, Note_on_c, 1, 41, 0
3, 230400, Note_on_c, 1, 39, 127
3, 230864, Note_on_c, 1, 39, 0
3, 230976, Note_on_c, 1, 39, 127
3, 231068, Note_on_c, 1, 39, 0
3, 231168, Note_on_c, 1, 43, 127
3, 231324, Note_on_c, 1, 43, 0
3, 231552, Note_on_c, 1, 39, 127
3, 231892, Note_on_c, 1, 39, 0
3, 231936, Note_on_c, 1, 41, 127
3, 232300, Note_on_c, 1, 41, 0
3, 232320, Note_on_c, 1, 38, 127
3, 232504, Note_on_c, 1, 38, 0
3, 232512, Note_on_c, 1, 36, 127
3, 232676, Note_on_c, 1, 36, 0
3, 232704, Note_on_c, 1, 29, 127
3, 232988, Note_on_c, 1, 29, 0
3, 233088, Note_on_c, 1, 29, 127
3, 233252, Note_on_c, 1, 29, 0
3, 233280, Note_on_c, 1, 30, 127
3, 233404, Note_on_c, 1, 30, 0
3, 233472, Note_on_c, 1, 31, 127
3, 233832, Note_on_c, 1, 31, 0
3, 234048, Note_on_c, 1, 31, 127
3, 234156, Note_on_c, 1, 31, 0
3, 234240, Note_on_c, 1, 31, 127
3, 234656, Note_on_c, 1, 31, 0
3, 234816, Note_on_c, 1, 31, 127
3, 234920, Note_on_c, 1, 31, 0
3, 235008, Note_on_c, 1, 31, 127
3, 235428, Note_on_c, 1, 31, 0
3, 235584, Note_on_c, 1, 31, 127
3, 235728, Note_on_c, 1, 31, 0
3, 235776, Note_on_c, 1, 29, 127
3, 235964, Note_on_c, 1, 29, 0
3, 235968, Note_on_c, 1, 31, 127
3, 236116, Note_on_c, 1, 31, 0
3, 236160, Note_on_c, 1, 34, 127
3, 236340, Note_on_c, 1, 34, 0
3, 236352, Note_on_c, 1, 31, 127
3, 236468, Note_on_c, 1, 31, 0
3, 236544, Note_on_c, 1, 36, 127
3, 236968, Note_on_c, 1, 36, 0
3, 237120, Note_on_c, 1, 36, 127
3, 237276, Note_on_c, 1, 36, 0
3, 237312, Note_on_c, 1, 28, 127
3, 237488, Note_on_c, 1, 28, 0
3, 237504, Note_on_c, 1, 31, 127
3, 237656, Note_on_c, 1, 31, 0
3, 237696, Note_on_c, 1, 36, 127
3, 238064, Note_on_c, 1, 36, 0
3, 238080, Note_on_c, 1, 38, 127
3, 238528, Note_on_c, 1, 38, 0
3, 238656, Note_on_c, 1, 38, 127
3, 238804, Note_on_c, 1, 38, 0
3, 238848, Note_on_c, 1, 30, 127
3, 239032, Note_on_c, 1, 30, 0
3, 239040, Note_on_c, 1, 33, 127
3, 239212, Note_on_c, 1, 33, 0
3, 239232, Note_on_c, 1, 38, 127
3, 239548, Note_on_c, 1, 38, 0
3, 239616, Note_on_c, 1, 40, 127
3, 240088, Note_on_c, 1, 40, 0
3, 240192, Note_on_c, 1, 40, 127
3, 240292, Note_on_c, 1, 40, 0
3, 240384, Note_on_c, 1, 40, 127
3, 241028, Note_on_c, 1, 40, 0
3, 241152, Note_on_c, 1, 40, 127
3, 241632, Note_on_c, 1, 40, 0
3, 241728, Note_on_c, 1, 35, 127
3, 241812, Note_on_c, 1, 35, 0
3, 241920, Note_on_c, 1, 40, 127
3, 242284, Note_on_c, 1, 40, 0
3, 242304, Note_on_c, 1, 30, 127
3, 242624, Note_on_c, 1, 30, 0
3, 242688, Note_on_c, 1, 31, 127
3, 243064, Note_on_c, 1, 31, 0
3, 243264, Note_on_c, 1, 31, 127
3, 243340, Note_on_c, 1, 31, 0
3, 243456, Note_on_c, 1, 31, 127
3, 243836, Note_on_c, 1, 31, 0
3, 244032, Note_on_c, 1, 29, 127
3, 244132, Note_on_c, 1, 29, 0
3, 244224, Note_on_c, 1, 31, 127
3, 244600, Note_on_c, 1, 31, 0
3, 244800, Note_on_c, 1, 31, 127
3, 244868, Note_on_c, 1, 31, 0
3, 244992, Note_on_c, 1, 36, 127
3, 245144, Note_on_c, 1, 36, 0
3, 245184, Note_on_c, 1, 34, 127
3, 245324, Note_on_c, 1, 34, 0
3, 245376, Note_on_c, 1, 29, 127
3, 245548, Note_on_c, 1, 29, 0
3, 245568, Note_on_c, 1, 30, 127
3, 245744, Note_on_c, 1, 30, 0
3, 245760, Note_on_c, 1, 31, 127
3, 246140, Note_on_c, 1, 31, 0
3, 246336, Note_on_c, 1, 31, 127
3, 246420, Note_on_c, 1, 31, 0
3, 246528, Note_on_c, 1, 31, 127
3, 246920, Note_on_c, 1, 31, 0
3, 247104, Note_on_c, 1, 31, 127
3, 247208, Note_on_c, 1, 31, 0
3, 247296, Note_on_c, 1, 34, 127
3, 247656, Note_on_c, 1, 34, 0
3, 247872, Note_on_c, 1, 34, 127
3, 248032, Note_on_c, 1, 34, 0
3, 248064, Note_on_c, 1, 36, 127
3, 248364, Note_on_c, 1, 36, 0
3, 248448, Note_on_c, 1, 36, 127
3, 248620, Note_on_c, 1, 36, 0
3, 248640, Note_on_c, 1, 38, 127
3, 248776, Note_on_c, 1, 38, 0
3, 248832, Note_on_c, 1, 31, 127
3, 249208, Note_on_c, 1, 31, 0
3, 249408, Note_on_c, 1, 31, 127
3, 249484, Note_on_c, 1, 31, 0
3, 249600, Note_on_c, 1, 31, 127
3, 249980, Note_on_c, 1, 31, 0
3, 250176, Note_on_c, 1, 29, 127
3, 250276, Note_on_c, 1, 29, 0
3, 250368, Note_on_c, 1, 31, 127
3, 250744, Note_on_c, 1, 31, 0
3, 250944, Note_on_c, 1, 31, 127
3, 251012, Note_on_c, 1, 31, 0
3, 251136, Note_on_c, 1, 38, 127
3, 251288, Note_on_c, 1, 38, 0
3, 251328, Note_on_c, 1, 36, 127
3, 251468, Note_on_c, 1, 36, 0
3, 251520, Note_on_c, 1, 34, 127
3, 251692, Note_on_c, 1, 34, 0
3, 251712, Note_on_c, 1, 33, 127
3, 251888, Note_on_c, 1, 33, 0
3, 251904, Note_on_c, 1, 31, 127
3, 252284, Note_on_c, 1, 31, 0
3, 252480, Note_on_c, 1, 31, 127
3, 252564, Note_on_c, 1, 31, 0
3, 252672, Note_on_c, 1, 31, 127
3, 253064, Note_on_c, 1, 31, 0
3, 253248, Note_on_c, 1, 31, 127
3, 253352, Note_on_c, 1, 31, 0
3, 253440, Note_on_c, 1, 29, 127
3, 253792, Note_on_c, 1, 29, 0
3, 253824, Note_on_c, 1, 31, 127
3, 254112, Pitch_bend_c, 1, 8050
3, 254128, Pitch_bend_c, 1, 6991
3, 254140, Note_on_c, 1, 31, 0
3, 254148, Pitch_bend_c, 1, 5508
3, 254168, Pitch_bend_c, 1, 3742
3, 254184, Pitch_bend_c, 1, 2401
3, 254204, Pitch_bend_c, 1, 1412
3, 254208, Note_on_c, 1, 43, 127
3, 254220, Pitch_bend_c, 1, 1129
3, 254248, Pitch_bend_c, 1, 1341
3, 254268, Pitch_bend_c, 1, 1836
3, 254284, Pitch_bend_c, 1, 2683
3, 254304, Pitch_bend_c, 1, 3884
3, 254320, Pitch_bend_c, 1, 5084
3, 254340, Pitch_bend_c, 1, 5932
3, 254360, Pitch_bend_c, 1, 6638
3, 254376, Pitch_bend_c, 1, 7344
3, 254396, Note_on_c, 1, 43, 0
3, 254396, Pitch_bend_c, 1, 7909
3, 254400, Note_on_c, 1, 41, 127
3, 254412, Pitch_bend_c, 1, 8192
3, 254576, Note_on_c, 1, 41, 0
3, 254592, Note_on_c, 1, 38, 127
3, 254780, Note_on_c, 1, 38, 0
3, 254784, Note_on_c, 1, 36, 127
3, 254944, Note_on_c, 1, 36, 0
3, 254976, Note_on_c, 1, 31, 127
3, 255352, Note_on_c, 1, 31, 0
3, 255552, Note_on_c, 1, 31, 127
3, 255628, Note_on_c, 1, 31, 0
3, 255744, Note_on_c, 1, 31, 127
3, 256124, Note_on_c, 1, 31, 0
3, 256320, Note_on_c, 1, 29, 127
3, 256420, Note_on_c, 1, 29, 0
3, 256512, Note_on_c, 1, 31, 127
3, 256888, Note_on_c, 1, 31, 0
3, 257088, Note_on_c, 1, 31, 127
3, 257156, Note_on_c, 1, 31, 0
3, 257280, Note_on_c, 1, 36, 127
3, 257432, Note_on_c, 1, 36, 0
3, 257472, Note_on_c, 1, 34, 127
3, 257612, Note_on_c, 1, 34, 0
3, 257664, Note_on_c, 1, 29, 127
3, 257836, Note_on_c, 1, 29, 0
3, 257856, Note_on_c, 1, 30, 127
3, 258032, Note_on_c, 1, 30, 0
3, 258048, Note_on_c, 1, 31, 127
3, 258428, Note_on_c, 1, 31, 0
3, 258624, Note_on_c, 1, 31, 127
3, 258708, Note_on_c, 1, 31, 0
3, 258816, Note_on_c, 1, 31, 127
3, 259208, Note_on_c, 1, 31, 0
3, 259392, Note_on_c, 1, 31, 127
3, 259496, Note_on_c, 1, 31, 0
3, 259584, Note_on_c, 1, 34, 127
3, 259944, Note_on_c, 1, 34, 0
3, 260160, Note_on_c, 1, 34, 127
3, 260320, Note_on_c, 1, 34, 0
3, 260352, Note_on_c, 1, 36, 127
3, 260652, Note_on_c, 1, 36, 0
3, 260736, Note_on_c, 1, 36, 127
3, 260908, Note_on_c, 1, 36, 0
3, 260928, Note_on_c, 1, 38, 127
3, 261064, Note_on_c, 1, 38, 0
3, 261120, Note_on_c, 1, 31, 127
3, 261496, Note_on_c, 1, 31, 0
3, 261696, Note_on_c, 1, 31, 127
3, 261772, Note_on_c, 1, 31, 0
3, 261888, Note_on_c, 1, 31, 127
3, 262268, Note_on_c, 1, 31, 0
3, 262464, Note_on_c, 1, 29, 127
3, 262564, Note_on_c, 1, 29, 0
3, 262656, Note_on_c, 1, 31, 127
3, 263032, Note_on_c, 1, 31, 0
3, 263232, Note_on_c, 1, 31, 127
3, 263300, Note_on_c, 1, 31, 0
3, 263424, Note_on_c, 1, 38, 127
3, 263576, Note_on_c, 1, 38, 0
3, 263616, Note_on_c, 1, 36, 127
3, 263756, Note_on_c, 1, 36, 0
3, 263808, Note_on_c, 1, 34, 127
3, 263980, Note_on_c, 1, 34, 0
3, 264000, Note_on_c, 1, 33, 127
3, 264176, Note_on_c, 1, 33, 0
3, 264192, Note_on_c, 1, 31, 127
3, 264572, Note_on_c, 1, 31, 0
3, 264768, Note_on_c, 1, 31, 127
3, 264852, Note_on_c, 1, 31, 0
3, 264960, Note_on_c, 1, 31, 127
3, 265352, Note_on_c, 1, 31, 0
3, 265536, Note_on_c, 1, 31, 127
3, 265640, Note_on_c, 1, 31, 0
3, 265728, Note_on_c, 1, 29, 127
3, 266080, Note_on_c, 1, 29, 0
3, 266112, Note_on_c, 1, 31, 127
3, 266400, Pitch_bend_c, 1, 8050
3, 266416, Pitch_bend_c, 1, 6991
3, 266428, Note_on_c, 1, 31, 0
3, 266436, Pitch_bend_c, 1, 5508
3, 266456, Pitch_bend_c, 1, 3742
3, 266472, Pitch_bend_c, 1, 2401
3, 266492, Pitch_bend_c, 1, 1412
3, 266496, Note_on_c, 1, 38, 127
3, 266508, Pitch_bend_c, 1, 1129
3, 266536, Pitch_bend_c, 1, 1341
3, 266556, Pitch_bend_c, 1, 1836
3, 266572, Pitch_bend_c, 1, 2683
3, 266592, Pitch_bend_c, 1, 3884
3, 266608, Pitch_bend_c, 1, 5084
3, 266628, Pitch_bend_c, 1, 5932
3, 266644, Note_on_c, 1, 38, 0
3, 266648, Pitch_bend_c, 1, 6638
3, 266664, Pitch_bend_c, 1, 7344
3, 266684, Pitch_bend_c, 1, 7909
3, 266688, Note_on_c, 1, 38, 127
3, 266700, Pitch_bend_c, 1, 8192
3, 266832, Note_on_c, 1, 38, 0
3, 266880, Note_on_c, 1, 38, 127
3, 267068, Note_on_c, 1, 38, 0
3, 267264, Note_on_c, 1, 31, 127
3, 267640, Note_on_c, 1, 31, 0
3, 267840, Note_on_c, 1, 31, 127
3, 267916, Note_on_c, 1, 31, 0
3, 268032, Note_on_c, 1, 31, 127
3, 268412, Note_on_c, 1, 31, 0
3, 268608, Note_on_c, 1, 29, 127
3, 268708, Note_on_c, 1, 29, 0
3, 268800, Note_on_c, 1, 31, 127
3, 269176, Note_on_c, 1, 31, 0
3, 269376, Note_on_c, 1, 31, 127
3, 269444, Note_on_c, 1, 31, 0
3, 269568, Note_on_c, 1, 36, 127
3, 269720, Note_on_c, 1, 36, 0
3, 269760, Note_on_c, 1, 34, 127
3, 269900, Note_on_c, 1, 34, 0
3, 269952, Note_on_c, 1, 29, 127
3, 270124, Note_on_c, 1, 29, 0
3, 270144, Note_on_c, 1, 30, 127
3, 270320, Note_on_c, 1, 30, 0
3, 270336, Note_on_c, 1, 31, 127
3, 270716, Note_on_c, 1, 31, 0
3, 270912, Note_on_c, 1, 31, 127
3, 270996, Note_on_c, 1, 31, 0
3, 271104, Note_on_c, 1, 31, 127
3, 271496, Note_on_c, 1, 31, 0
3, 271680, Note_on_c, 1, 31, 127
3, 271784, Note_on_c, 1, 31, 0
3, 271872, Note_on_c, 1, 34, 127
3, 272232, Note_on_c, 1, 34, 0
3, 272448, Note_on_c, 1, 34, 127
3, 272608, Note_on_c, 1, 34, 0
3, 272640, Note_on_c, 1, 36, 127
3, 272940, Note_on_c, 1, 36, 0
3, 273024, Note_on_c, 1, 36, 127
3, 273196, Note_on_c, 1, 36, 0
3, 273216, Note_on_c, 1, 38, 127
3, 273352, Note_on_c, 1, 38, 0
3, 273408, Note_on_c, 1, 31, 127
3, 273784, Note_on_c, 1, 31, 0
3, 273984, Note_on_c, 1, 31, 127
3, 274060, Note_on_c, 1, 31, 0
3, 274176, Note_on_c, 1, 31, 127
3, 274556, Note_on_c, 1, 31, 0
3, 274752, Note_on_c, 1, 29, 127
3, 274852, Note_on_c, 1, 29, 0
3, 274944, Note_on_c, 1, 31, 127
3, 275320, Note_on_c, 1, 31, 0
3, 275520, Note_on_c, 1, 31, 127
3, 275588, Note_on_c, 1, 31, 0
3, 275712, Note_on_c, 1, 38, 127
3, 275864, Note_on_c, 1, 38, 0
3, 275904, Note_on_c, 1, 36, 127
3, 276044, Note_on_c, 1, 36, 0
3, 276096, Note_on_c, 1, 34, 127
3, 276268, Note_on_c, 1, 34, 0
3, 276288, Note_on_c, 1, 33, 127
3, 276464, Note_on_c, 1, 33, 0
3, 276480, Note_on_c, 1, 31, 127
3, 276860, Note_on_c, 1, 31, 0
3, 277056, Note_on_c, 1, 31, 127
3, 277140, Note_on_c, 1, 31, 0
3, 277248, Note_on_c, 1, 31, 127
3, 277640, Note_on_c, 1, 31, 0
3, 277824, Note_on_c, 1, 31, 127
3, 277928, Note_on_c, 1, 31, 0
3, 278016, Note_on_c, 1, 29, 127
3, 278368, Note_on_c, 1, 29, 0
3, 278400, Note_on_c, 1, 31, 127
3, 278688, Pitch_bend_c, 1, 8050
3, 278704, Pitch_bend_c, 1, 6991
3, 278716, Note_on_c, 1, 31, 0
3, 278724, Pitch_bend_c, 1, 5508
3, 278744, Pitch_bend_c, 1, 3742
3, 278760, Pitch_bend_c, 1, 2401
3, 278780, Pitch_bend_c, 1, 1412
3, 278784, Note_on_c, 1, 43, 127
3, 278796, Pitch_bend_c, 1, 1129
3, 278824, Pitch_bend_c, 1, 1341
3, 278844, Pitch_bend_c, 1, 1836
3, 278860, Pitch_bend_c, 1, 2683
3, 278880, Pitch_bend_c, 1, 3884
3, 278896, Pitch_bend_c, 1, 5084
3, 278916, Pitch_bend_c, 1, 5932
3, 278936, Pitch_bend_c, 1, 6638
3, 278952, Pitch_bend_c, 1, 7344
3, 278972, Note_on_c, 1, 43, 0
3, 278972, Pitch_bend_c, 1, 7909
3, 278976, Note_on_c, 1, 41, 127
3, 278988, Pitch_bend_c, 1, 8192
3, 279152, Note_on_c, 1, 41, 0
3, 279168, Note_on_c, 1, 38, 127
3, 279356, Note_on_c, 1, 38, 0
3, 279360, Note_on_c, 1, 36, 127
3, 279520, Note_on_c, 1, 36, 0
3, 279552, Note_on_c, 1, 31, 127
3, 279928, Note_on_c, 1, 31, 0
3, 280128, Note_on_c, 1, 31, 127
3, 280204, Note_on_c, 1, 31, 0
3, 280320, Note_on_c, 1, 31, 127
3, 280700, Note_on_c, 1, 31, 0
3, 280896, Note_on_c, 1, 29, 127
3, 280996, Note_on_c, 1, 29, 0
3, 281088, Note_on_c, 1, 31, 127
3, 281464, Note_on_c, 1, 31, 0
3, 281664, Note_on_c, 1, 31, 127
3, 281732, Note_on_c, 1, 31, 0
3, 281856, Note_on_c, 1, 36, 127
3, 282008, Note_on_c, 1, 36, 0
3, 282048, Note_on_c, 1, 34, 127
3, 282188, Note_on_c, 1, 34, 0
3, 282240, Note_on_c, 1, 29, 127
3, 282412, Note_on_c, 1, 29, 0
3, 282432, Note_on_c, 1, 30, 127
3, 282608, Note_on_c, 1, 30, 0
3, 282624, Note_on_c, 1, 31, 127
3, 283004, Note_on_c, 1, 31, 0
3, 283200, Note_on_c, 1, 31, 127
3, 283284, Note_on_c, 1, 31, 0
3, 283392, Note_on_c, 1, 31, 127
3, 283784, Note_on_c, 1, 31, 0
3, 283968, Note_on_c, 1, 31, 127
3, 284072, Note_on_c, 1, 31, 0
3, 284160, Note_on_c, 1, 34, 127
3, 284520, Note_on_c, 1, 34, 0
3, 284736, Note_on_c, 1, 34, 127
3, 284896, Note_on_c, 1, 34, 0
3, 284928, Note_on_c, 1, 36, 127
3, 285228, Note_on_c, 1, 36, 0
3, 285312, Note_on_c, 1, 36, 127
3, 285484, Note_on_c, 1, 36, 0
3, 285504, Note_on_c, 1, 38, 127
3, 285640, Note_on_c, 1, 38, 0
3, 285696, Note_on_c, 1, 31, 127
3, 286072, Note_on_c, 1, 31, 0
3, 286272, Note_on_c, 1, 31, 127
3, 286348, Note_on_c, 1, 31, 0
3, 286464, Note_on_c, 1, 31, 127
3, 286844, Note_on_c, 1, 31, 0
3, 287040, Note_on_c, 1, 29, 127
3, 287140, Note_on_c, 1, 29, 0
3, 287232, Note_on_c, 1, 31, 127
3, 287608, Note_on_c, 1, 31, 0
3, 287808, Note_on_c, 1, 31, 127
3, 287876, Note_on_c, 1, 31, 0
3, 288000, Note_on_c, 1, 38, 127
3, 288152, Note_on_c, 1, 38, 0
3, 288192, Note_on_c, 1, 36, 127
3, 288332, Note_on_c, 1, 36, 0
3, 288384, Note_on_c, 1, 34, 127
3, 288556, Note_on_c, 1, 34, 0
3, 288576, Note_on_c, 1, 33, 127
3, 288752, Note_on_c, 1, 33, 0
3, 288768, Note_on_c, 1, 31, 127
3, 289148, Note_on_c, 1, 31, 0
3, 289344, Note_on_c, 1, 31, 127
3, 289428, Note_on_c, 1, 31, 0
3, 289536, Note_on_c, 1, 31, 127
3, 289928, Note_on_c, 1, 31, 0
3, 290112, Note_on_c, 1, 31, 127
3, 290216, Note_on_c, 1, 31, 0
3, 290304, Note_on_c, 1, 29, 127
3, 290656, Note_on_c, 1, 29, 0
3, 290688, Note_on_c, 1, 31, 127
3, 290976, Pitch_bend_c, 1, 8050
3, 290992, Pitch_bend_c, 1, 6991
3, 291004, Note_on_c, 1, 31, 0
3, 291012, Pitch_bend_c, 1, 5508
3, 291032, Pitch_bend_c, 1, 3742
3, 291048, Pitch_bend_c, 1, 2401
3, 291068, Pitch_bend_c, 1, 1412
3, 291072, Note_on_c, 1, 38, 127
3, 291084, Pitch_bend_c, 1, 1129
3, 291112, Pitch_bend_c, 1, 1341
3, 291132, Pitch_bend_c, 1, 1836
3, 291148, Pitch_bend_c, 1, 2683
3, 291168, Pitch_bend_c, 1, 3884
3, 291184, Pitch_bend_c, 1, 5084
3, 291204, Pitch_bend_c, 1, 5932
3, 291220, Note_on_c, 1, 38, 0
3, 291224, Pitch_bend_c, 1, 6638
3, 291240, Pitch_bend_c, 1, 7344
3, 291260, Pitch_bend_c, 1, 7909
3, 291264, Note_on_c, 1, 38, 127
3, 291276, Pitch_bend_c, 1, 8192
3, 291408, Note_on_c, 1, 38, 0
3, 291456, Note_on_c, 1, 38, 127
3, 291644, Note_on_c, 1, 38, 0
3, 291840, Note_on_c, 1, 31, 127
3, 292216, Note_on_c, 1, 31, 0
3, 292416, Note_on_c, 1, 31, 127
3, 292492, Note_on_c, 1, 31, 0
3, 292608, Note_on_c, 1, 31, 127
3, 292988, Note_on_c, 1, 31, 0
3, 293184, Note_on_c, 1, 29, 127
3, 293284, Note_on_c, 1, 29, 0
3, 293376, Note_on_c, 1, 31, 127
3, 293752, Note_on_c, 1, 31, 0
3, 293952, Note_on_c, 1, 31, 127
3, 294020, Note_on_c, 1, 31, 0
3, 294144, Note_on_c, 1, 36, 127
3, 294296, Note_on_c, 1, 36, 0
3, 294336, Note_on_c, 1, 34, 127
3, 294476, Note_on_c, 1, 34, 0
3, 294528, Note_on_c, 1, 29, 127
3, 294700, Note_on_c, 1, 29, 0
3, 294720, Note_on_c, 1, 30, 127
3, 294896, Note_on_c, 1, 30, 0
3, 294912, Note_on_c, 1, 31, 127
3, 295292, Note_on_c, 1, 31, 0
3, 295488, Note_on_c, 1, 31, 127
3, 295572, Note_on_c, 1, 31, 0
3, 295680, Note_on_c, 1, 31, 127
3, 296072, Note_on_c, 1, 31, 0
3, 296256, Note_on_c, 1, 31, 127
3, 296360, Note_on_c, 1, 31, 0
3, 296448, Note_on_c, 1, 34, 127
3, 296808, Note_on_c, 1, 34, 0
3, 297024, Note_on_c, 1, 34, 127
3, 297184, Note_on_c, 1, 34, 0
3, 297216, Note_on_c, 1, 36, 127
3, 297516, Note_on_c, 1, 36, 0
3, 297600, Note_on_c, 1, 36, 127
3, 297772, Note_on_c, 1, 36, 0
3, 297792, Note_on_c, 1, 38, 127
3, 297928, Note_on_c, 1, 38, 0
3, 297984, Note_on_c, 1, 31, 127
3, 298360, Note_on_c, 1, 31, 0
3, 298560, Note_on_c, 1, 31, 127
3, 298636, Note_on_c, 1, 31, 0
3, 298752, Note_on_c, 1, 31, 127
3, 299132, Note_on_c, 1, 31, 0
3, 299328, Note_on_c, 1, 29, 127
3, 299428, Note_on_c, 1, 29, 0
3, 299520, Note_on_c, 1, 31, 127
3, 299896, Note_on_c, 1, 31, 0
3, 300096, Note_on_c, 1, 31, 127
3, 300164, Note_on_c, 1, 31, 0
3, 300288, Note_on_c, 1, 38, 127
3, 300440, Note_on_c, 1, 38, 0
3, 300480, Note_on_c, 1, 36, 127
3, 300620, Note_on_c, 1, 36, 0
3, 300672, Note_on_c, 1, 34, 127
3, 300844, Note_on_c, 1, 34, 0
3, 300864, Note_on_c, 1, 33, 127
3, 301040, Note_on_c, 1, 33, 0
3, 301056, Note_on_c, 1, 31, 127
3, 301436, Note_on_c, 1, 31, 0
3, 301632, Note_on_c, 1, 31, 127
3, 301716, Note_on_c, 1, 31, 0
3, 301824, Note_on_c, 1, 31, 127
3, 302216, Note_on_c, 1, 31, 0
3, 302400, Note_on_c, 1, 31, 127
3, 302504, Note_on_c, 1, 31, 0
3, 302592, Note_on_c, 1, 29, 127
3, 302944, Note_on_c, 1, 29, 0
3, 302976, Note_on_c, 1, 31, 127
3, 303264, Pitch_bend_c, 1, 8050
3, 303280, Pitch_bend_c, 1, 6991
3, 303292, Note_on_c, 1, 31, 0
3, 303300, Pitch_bend_c, 1, 5508
3, 303320, Pitch_bend_c, 1, 3742
3, 303336, Pitch_bend_c, 1, 2401
3, 303356, Pitch_bend_c, 1, 1412
3, 303360, Note_on_c, 1, 43, 127
3, 303372, Pitch_bend_c, 1, 1129
3, 303400, Pitch_bend_c, 1, 1341
3, 303420, Pitch_bend_c, 1, 1836
3, 303436, Pitch_bend_c, 1, 2683
3, 303456, Pitch_bend_c, 1, 3884
3, 303472, Pitch_bend_c, 1, 5084
3, 303492, Pitch_bend_c, 1, 5932
3, 303512, Pitch_bend_c, 1, 6638
3, 303528, Pitch_bend_c, 1, 7344
3, 303548, Note_on_c, 1, 43, 0
3, 303548, Pitch_bend_c, 1, 7909
3, 303552, Note_on_c, 1, 41, 127
3, 303564, Pitch_bend_c, 1, 8192
3, 303728, Note_on_c, 1, 41, 0
3, 303744, Note_on_c, 1, 38, 127
3, 303932, Note_on_c, 1, 38, 0
3, 303936, Note_on_c, 1, 36, 127
3, 304096, Note_on_c, 1, 36, 0
3, 304128, Note_on_c, 1, 31, 127
3, 304504, Note_on_c, 1, 31, 0
3, 304704, Note_on_c, 1, 31, 127
3, 304780, Note_on_c, 1, 31, 0
3, 304896, Note_on_c, 1, 31, 127
3, 305276, Note_on_c, 1, 31, 0
3, 305472, Note_on_c, 1, 29, 127
3, 305572, Note_on_c, 1, 29, 0
3, 305664, Note_on_c, 1, 31, 127
3, 306040, Note_on_c, 1, 31, 0
3, 306240, Note_on_c, 1, 31, 127
3, 306308, Note_on_c, 1, 31, 0
3, 306432, Note_on_c, 1, 36, 127
3, 306584, Note_on_c, 1, 36, 0
3, 306624, Note_on_c, 1, 34, 127
3, 306764, Note_on_c, 1, 34, 0
3, 306816, Note_on_c, 1, 29, 127
3, 306988, Note_on_c, 1, 29, 0
3, 307008, Note_on_c, 1, 30, 127
3, 307184, Note_on_c, 1, 30, 0
3, 307200, Note_on_c, 1, 31, 127
3, 307580, Note_on_c, 1, 31, 0
3, 307776, Note_on_c, 1, 31, 127
3, 307860, Note_on_c, 1, 31, 0
3, 307968, Note_on_c, 1, 31, 127
3, 308360, Note_on_c, 1, 31, 0
3, 308544, Note_on_c, 1, 31, 127
3, 308648, Note_on_c, 1, 31, 0
3, 308736, Note_on_c, 1, 34, 127
3, 309096, Note_on_c, 1, 34, 0
3, 309312, Note_on_c, 1, 34, 127
3, 309472, Note_on_c, 1, 34, 0
3, 309504, Note_on_c, 1, 36, 127
3, 309804, Note_on_c, 1, 36, 0
3, 309888, Note_on_c, 1, 36, 127
3, 310060, Note_on_c, 1, 36, 0
3, 310080, Note_on_c, 1, 38, 127
3, 310216, Note_on_c, 1, 38, 0
3, 310272, Note_on_c, 1, 31, 127
3, 310648, Note_on_c, 1, 31, 0
3, 310848, Note_on_c, 1, 31, 127
3, 310924, Note_on_c, 1, 31, 0
3, 311040, Note_on_c, 1, 31, 127
3, 311420, Note_on_c, 1, 31, 0
3, 311616, Note_on_c, 1, 29, 127
3, 311716, Note_on_c, 1, 29, 0
3, 311808, Note_on_c, 1, 31, 127
3, 312184, Note_on_c, 1, 31, 0
3, 312384, Note_on_c, 1, 31, 127
3, 312452, Note_on_c, 1, 31, 0
3, 312576, Note_on_c, 1, 38, 127
3, 312728, Note_on_c, 1, 38, 0
3, 312768, Note_on_c, 1, 36, 127
3, 312908, Note_on_c, 1, 36, 0
3, 312960, Note_on_c, 1, 34, 127
3, 313132, Note_on_c, 1, 34, 0
3, 313152, Note_on_c, 1, 33, 127
3, 313328, Note_on_c, 1, 33, 0
3, 313344, Note_on_c, 1, 31, 127
3, 313724, Note_on_c, 1, 31, 0
3, 313920, Note_on_c, 1, 31, 127
3, 314004, Note_on_c, 1, 31, 0
3, 314112, Note_on_c, 1, 31, 127
3, 314504, Note_on_c, 1, 31, 0
3, 314688, Note_on_c, 1, 31, 127
3, 314792, Note_on_c, 1, 31, 0
3, 314880, Note_on_c, 1, 29, 127
3, 315232, Note_on_c, 1, 29, 0
3, 315264, Note_on_c, 1, 31, 127
3, 315552, Pitch_bend_c, 1, 8050
3, 315568, Pitch_bend_c, 1, 6991
3, 315580, Note_on_c, 1, 31, 0
3, 315588, Pitch_bend_c, 1, 5508
3, 315608, Pitch_bend_c, 1, 3742
3, 315624, Pitch_bend_c, 1, 2401
3, 315644, Pitch_bend_c, 1, 1412
3, 315648, Note_on_c, 1, 38, 127
3, 315660, Pitch_bend_c, 1, 1129
3, 315688, Pitch_bend_c, 1, 1341
3, 315708, Pitch_bend_c, 1, 1836
3, 315724, Pitch_bend_c, 1, 2683
3, 315744, Pitch_bend_c, 1, 3884
3, 315760, Pitch_bend_c, 1, 5084
3, 315780, Pitch_bend_c, 1, 5932
3, 315796, Note_on_c, 1, 38, 0
3, 315800, Pitch_bend_c, 1, 6638
3, 315816, Pitch_bend_c, 1, 7344
3, 315836, Pitch_bend_c, 1, 7909
3, 315840, Note_on_c, 1, 38, 127
3, 315852, Pitch_bend_c, 1, 8192
3, 315984, Note_on_c, 1, 38, 0
3, 316032, Note_on_c, 1, 38, 127
3, 316220, Note_on_c, 1, 38, 0
3, 316416, Note_on_c, 1, 31, 127
3, 316792, Note_on_c, 1, 31, 0
3, 316992, Note_on_c, 1, 31, 127
3, 317068, Note_on_c, 1, 31, 0
3, 317184, Note_on_c, 1, 31, 127
3, 317564, Note_on_c, 1, 31, 0
3, 317760, Note_on_c, 1, 29, 127
3, 317860, Note_on_c, 1, 29, 0
3, 317952, Note_on_c, 1, 31, 127
3, 318328, Note_on_c, 1, 31, 0
3, 318528, Note_on_c, 1, 31, 127
3, 318596, Note_on_c, 1, 31, 0
3, 318720, Note_on_c, 1, 36, 127
3, 318872, Note_on_c, 1, 36, 0
3, 318912, Note_on_c, 1, 34, 127
3, 319052, Note_on_c, 1, 34, 0
3, 319104, Note_on_c, 1, 29, 127
3, 319276, Note_on_c, 1, 29, 0
3, 319296, Note_on_c, 1, 30, 127
3, 319472, Note_on_c, 1, 30, 0
3, 319488, Note_on_c, 1, 31, 127
3, 319868, Note_on_c, 1, 31, 0
3, 320064, Note_on_c, 1, 31, 127
3, 320148, Note_on_c, 1, 31, 0
3, 320256, Note_on_c, 1, 31, 127
3, 320648, Note_on_c, 1, 31, 0
3, 320832, Note_on_c, 1, 31, 127
3, 320936, Note_on_c, 1, 31, 0
3, 321024, Note_on_c, 1, 34, 127
3, 321384, Note_on_c, 1, 34, 0
3, 321600, Note_on_c, 1, 34, 127
3, 321760, Note_on_c, 1, 34, 0
3, 321792, Note_on_c, 1, 36, 127
3, 322092, Note_on_c, 1, 36, 0
3, 322176, Note_on_c, 1, 36, 127
3, 322348, Note_on_c, 1, 36, 0
3, 322368, Note_on_c, 1, 38, 127
3, 322504, Note_on_c, 1, 38, 0
3, 322560, Note_on_c, 1, 31, 127
3, 322936, Note_on_c, 1, 31, 0
3, 323136, Note_on_c, 1, 31, 127
3, 323212, Note_on_c, 1, 31, 0
3, 323328, Note_on_c, 1, 31, 127
3, 323708, Note_on_c, 1, 31, 0
3, 323904, Note_on_c, 1, 29, 127
3, 324004, Note_on_c, 1, 29, 0
3, 324096, Note_on_c, 1, 31, 127
3, 324472, Note_on_c, 1, 31, 0
3, 324672, Note_on_c, 1, 31, 127
3, 324740, Note_on_c, 1, 31, 0
3, 324864, Note_on_c, 1, 38, 127
3, 325016, Note_on_c, 1, 38, 0
3, 325056, Note_on_c, 1, 36, 127
3, 325196, Note_on_c, 1, 36, 0
3, 325248, Note_on_c, 1, 34, 127
3, 325420, Note_on_c, 1, 34, 0
3, 325440, Note_on_c, 1, 33, 127
3, 325616, Note_on_c, 1, 33, 0
3, 325632, Note_on_c, 1, 31, 127
3, 326012, Note_on_c, 1, 31, 0
3, 326208, Note_on_c, 1, 31, 127
3, 326292, Note_on_c, 1, 31, 0
3, 326400, Note_on_c, 1, 31, 127
3, 326792, Note_on_c, 1, 31, 0
3, 326976, Note_on_c, 1, 31, 127
3, 327080, Note_on_c, 1, 31, 0
3, 327168, Note_on_c, 1, 29, 127
3, 327520, Note_on_c, 1, 29, 0
3, 327552, Note_on_c, 1, 31, 127
3, 327840, Pitch_bend_c, 1, 8050
3, 327856, Pitch_bend_c, 1, 6991
3, 327868, Note_on_c, 1, 31, 0
3, 327876, Pitch_bend_c, 1, 5508
3, 327896, Pitch_bend_c, 1, 3742
3, 327912, Pitch_bend_c, 1, 2401
3, 327932, Pitch_bend_c, 1, 1412
3, 327936, Note_on_c, 1, 43, 127
3, 327948, Pitch_bend_c, 1, 1129
3, 327976, Pitch_bend_c, 1, 1341
3, 327996, Pitch_bend_c, 1, 1836
3, 328012, Pitch_bend_c, 1, 2683
3, 328032, Pitch_bend_c, 1, 3884
3, 328048, Pitch_bend_c, 1, 5084
3, 328068, Pitch_bend_c, 1, 5932
3, 328088, Pitch_bend_c, 1, 6638
3, 328104, Pitch_bend_c, 1, 7344
3, 328124, Note_on_c, 1, 43, 0
3, 328124, Pitch_bend_c, 1, 7909
3, 328128, Note_on_c, 1, 41, 127
3, 328140, Pitch_bend_c, 1, 8192
3, 328304, Note_on_c, 1, 41, 0
3, 328320, Note_on_c, 1, 38, 127
3, 328508, Note_on_c, 1, 38, 0
3, 328512, Note_on_c, 1, 36, 127
3, 328672, Note_on_c, 1, 36, 0
3, 328704, Note_on_c, 1, 31, 127
3, 329080, Note_on_c, 1, 31, 0
3, 329280, Note_on_c, 1, 31, 127
3, 329356, Note_on_c, 1, 31, 0
3, 329472, Note_on_c, 1, 31, 127
3, 329852, Note_on_c, 1, 31, 0
3, 330048, Note_on_c, 1, 29, 127
3, 330148, Note_on_c, 1, 29, 0
3, 330240, Note_on_c, 1, 31, 127
3, 330616, Note_on_c, 1, 31, 0
3, 330816, Note_on_c, 1, 31, 127
3, 330884, Note_on_c, 1, 31, 0
3, 331008, Note_on_c, 1, 36, 127
3, 331160, Note_on_c, 1, 36, 0
3, 331200, Note_on_c, 1, 34, 127
3, 331340, Note_on_c, 1, 34, 0
3, 331392, Note_on_c, 1, 29, 127
3, 331564, Note_on_c, 1, 29, 0
3, 331584, Note_on_c, 1, 30, 127
3, 331760, Note_on_c, 1, 30, 0
3, 331776, Note_on_c, 1, 31, 127
3, 332156, Note_on_c, 1, 31, 0
3, 332352, Note_on_c, 1, 31, 127
3, 332436, Note_on_c, 1, 31, 0
3, 332544, Note_on_c, 1, 31, 127
3, 332936, Note_on_c, 1, 31, 0
3, 333120, Note_on_c, 1, 31, 127
3, 333224, Note_on_c, 1, 31, 0
3, 333312, Note_on_c, 1, 34, 127
3, 333672, Note_on_c, 1, 34, 0
3, 333888, Note_on_c, 1, 34, 127
3, 334048, Note_on_c, 1, 34, 0
3, 334080, Note_on_c, 1, 36, 127
3, 334380, Note_on_c, 1, 36, 0
3, 334464, Note_on_c, 1, 36, 127
3, 334636, Note_on_c, 1, 36, 0
3, 334656, Note_on_c, 1, 38, 127
3, 334792, Note_on_c, 1, 38, 0
3, 334848, Note_on_c, 1, 31, 127
3, 335224, Note_on_c, 1, 31, 0
3, 335424, Note_on_c, 1, 31, 127
3, 335500, Note_on_c, 1, 31, 0
3, 335616, Note_on_c, 1, 31, 127
3, 335996, Note_on_c, 1, 31, 0
3, 336192, Note_on_c, 1, 29, 127
3, 336292, Note_on_c, 1, 29, 0
3, 336384, Note_on_c, 1, 31, 127
3, 336760, Note_on_c, 1, 31, 0
3, 336960, Note_on_c, 1, 31, 127
3, 337028, Note_on_c, 1, 31, 0
3, 337152, Note_on_c, 1, 38, 127
3, 337304, Note_on_c, 1, 38, 0
3, 337344, Note_on_c, 1, 36, 127
3, 337484, Note_on_c, 1, 36, 0
3, 337536, Note_on_c, 1, 34, 127
3, 337708, Note_on_c, 1, 34, 0
3, 337728, Note_on_c, 1, 33, 127
3, 337904, Note_on_c, 1, 33, 0
3, 337920, Note_on_c, 1, 31, 127
3, 338300, Note_on_c, 1, 31, 0
3, 338496, Note_on_c, 1, 31, 127
3, 338580, Note_on_c, 1, 31, 0
3, 338688, Note_on_c, 1, 31, 127
3, 339080, Note_on_c, 1, 31, 0
3, 339264, Note_on_c, 1, 31, 127
3, 339368, Note_on_c, 1, 31, 0
3, 339456, Note_on_c, 1, 29, 127
3, 339808, Note_on_c, 1, 29, 0
3, 339840, Note_on_c, 1, 31, 127
3, 340128, Pitch_bend_c, 1, 8050
3, 340144, Pitch_bend_c, 1, 6991
3, 340156, Note_on_c, 1, 31, 0
3, 340164, Pitch_bend_c, 1, 5508
3, 340184, Pitch_bend_c, 1, 3742
3, 340200, Pitch_bend_c, 1, 2401
3, 340220, Pitch_bend_c, 1, 1412
3, 340224, Note_on_c, 1, 38, 127
3, 340236, Pitch_bend_c, 1, 1129
3, 340264, Pitch_bend_c, 1, 1341
3, 340284, Pitch_bend_c, 1, 1836
3, 340300, Pitch_bend_c, 1, 2683
3, 340320, Pitch_bend_c, 1, 3884
3, 340336, Pitch_bend_c, 1, 5084
3, 340356, Pitch_bend_c, 1, 5932
3, 340372, Note_on_c, 1, 38, 0
3, 340376, Pitch_bend_c, 1, 6638
3, 340392, Pitch_bend_c, 1, 7344
3, 340412, Pitch_bend_c, 1, 7909
3, 340416, Note_on_c, 1, 38, 127
3, 340428, Pitch_bend_c, 1, 8192
3, 340560, Note_on_c, 1, 38, 0
3, 340608, Note_on_c, 1, 38, 127
3, 340796, Note_on_c, 1, 38, 0
3, 340992, Note_on_c, 1, 31, 127
3, 341368, Note_on_c, 1, 31, 0
3, 341568, Note_on_c, 1, 31, 127
3, 341644, Note_on_c, 1, 31, 0
3, 341760, Note_on_c, 1, 31, 127
3, 342140, Note_on_c, 1, 31, 0
3, 342336, Note_on_c, 1, 29, 127
3, 342436, Note_on_c, 1, 29, 0
3, 342528, Note_on_c, 1, 31, 127
3, 342904, Note_on_c, 1, 31, 0
3, 343104, Note_on_c, 1, 31, 127
3, 343172, Note_on_c, 1, 31, 0
3, 343296, Note_on_c, 1, 36, 127
3, 343448, Note_on_c, 1, 36, 0
3, 343488, Note_on_c, 1, 34, 127
3, 343628, Note_on_c, 1, 34, 0
3, 343680, Note_on_c, 1, 29, 127
3, 343852, Note_on_c, 1, 29, 0
3, 343872, Note_on_c, 1, 30, 127
3, 344048, Note_on_c, 1, 30, 0
3, 344064, Note_on_c, 1, 31, 127
3, 344444, Note_on_c, 1, 31, 0
3, 344640, Note_on_c, 1, 31, 127
3, 344724, Note_on_c, 1, 31, 0
3, 344832, Note_on_c, 1, 31, 127
3, 345224, Note_on_c, 1, 31, 0
3, 345408, Note_on_c, 1, 31, 127
3, 345512, Note_on_c, 1, 31, 0
3, 345600, Note_on_c, 1, 34, 127
3, 345960, Note_on_c, 1, 34, 0
3, 346176, Note_on_c, 1, 34, 127
3, 346336, Note_on_c, 1, 34, 0
3, 346368, Note_on_c, 1, 36, 127
3, 346668, Note_on_c, 1, 36, 0
3, 346752, Note_on_c, 1, 36, 127
3, 346924, Note_on_c, 1, 36, 0
3, 346944, Note_on_c, 1, 38, 127
3, 347080, Note_on_c, 1, 38, 0
3, 347136, Note_on_c, 1, 31, 127
3, 347512, Note_on_c, 1, 31, 0
3, 347712, Note_on_c, 1, 31, 127
3, 347788, Note_on_c, 1, 31, 0
3, 347904, Note_on_c, 1, 31, 127
3, 348284, Note_on_c, 1, 31, 0
3, 348480, Note_on_c, 1, 29, 127
3, 348580, Note_on_c, 1, 29, 0
3, 348672, Note_on_c, 1, 31, 127
3, 349048, Note_on_c, 1, 31, 0
3, 349248, Note_on_c, 1, 31, 127
3, 349316, Note_on_c, 1, 31, 0
3, 349440, Note_on_c, 1, 38, 127
3, 349592, Note_on_c, 1, 38, 0
3, 349632, Note_on_c, 1, 36, 127
3, 349772, Note_on_c, 1, 36, 0
3, 349824, Note_on_c, 1, 34, 127
3, 349996, Note_on_c, 1, 34, 0
3, 350016, Note_on_c, 1, 33, 127
3, 350192, Note_on_c, 1, 33, 0
3, 350208, Note_on_c, 1, 31, 127
3, 350588, Note_on_c, 1, 31, 0
3, 350784, Note_on_c, 1, 31, 127
3, 350868, Note_on_c, 1, 31, 0
3, 350976, Note_on_c, 1, 31, 127
3, 351368, Note_on_c, 1, 31, 0
3, 351552, Note_on_c, 1, 31, 127
3, 351656, Note_on_c, 1, 31, 0
3, 351744, Note_on_c, 1, 29, 127
3, 352096, Note_on_c, 1, 29, 0
3, 352128, Note_on_c, 1, 31, 127
3, 352416, Pitch_bend_c, 1, 8050
3, 352432, Pitch_bend_c, 1, 6991
3, 352444, Note_on_c, 1, 31, 0
3, 352452, Pitch_bend_c, 1, 5508
3, 352472, Pitch_bend_c, 1, 3742
3, 352488, Pitch_bend_c, 1, 2401
3, 352508, Pitch_bend_c, 1, 1412
3, 352512, Note_on_c, 1, 43, 127
3, 352524, Pitch_bend_c, 1, 1129
3, 352552, Pitch_bend_c, 1, 1341
3, 352572, Pitch_bend_c, 1, 1836
3, 352588, Pitch_bend_c, 1, 2683
3, 352608, Pitch_bend_c, 1, 3884
3, 352624, Pitch_bend_c, 1, 5084
3, 352644, Pitch_bend_c, 1, 5932
3, 352664, Pitch_bend_c, 1, 6638
3, 352680, Pitch_bend_c, 1, 7344
3, 352700, Note_on_c, 1, 43, 0
3, 352700, Pitch_bend_c, 1, 7909
3, 352704, Note_on_c, 1, 41, 127
3, 352716, Pitch_bend_c, 1, 8192
3, 352880, Note_on_c, 1, 41, 0
3, 352896, Note_on_c, 1, 38, 127
3, 353084, Note_on_c, 1, 38, 0
3, 353088, Note_on_c, 1, 36, 127
3, 353248, Note_on_c, 1, 36, 0
3, 353280, Note_on_c, 1, 31, 127
3, 353656, Note_on_c, 1, 31, 0
3, 353856, Note_on_c, 1, 31, 127
3, 353932, Note_on_c, 1, 31, 0
3, 354048, Note_on_c, 1, 31, 127
3, 354428, Note_on_c, 1, 31, 0
3, 354624, Note_on_c, 1, 29, 127
3, 354724, Note_on_c, 1, 29, 0
3, 354816, Note_on_c, 1, 31, 127
3, 355192, Note_on_c, 1, 31, 0
3, 355392, Note_on_c, 1, 31, 127
3, 355460, Note_on_c, 1, 31, 0
3, 355584, Note_on_c, 1, 36, 127
3, 355736, Note_on_c, 1, 36, 0
3, 355776, Note_on_c, 1, 34, 127
3, 355916, Note_on_c, 1, 34, 0
3, 355968, Note_on_c, 1, 29, 127
3, 356140, Note_on_c, 1, 29, 0
3, 356160, Note_on_c, 1, 30, 127
3, 356336, Note_on_c, 1, 30, 0
3, 356352, Note_on_c, 1, 31, 127
3, 356732, Note_on_c, 1, 31, 0
3, 356928, Note_on_c, 1, 31, 127
3, 357012, Note_on_c, 1, 31, 0
3, 357120, Note_on_c, 1, 31, 127
3, 357512, Note_on_c, 1, 31, 0
3, 357696, Note_on_c, 1, 31, 127
3, 357800, Note_on_c, 1, 31, 0
3, 357888, Note_on_c, 1, 34, 127
3, 358248, Note_on_c, 1, 34, 0
3, 358464, Note_on_c, 1, 34, 127
3, 358624, Note_on_c, 1, 34, 0
3, 358656, Note_on_c, 1, 36, 127
3, 358956, Note_on_c, 1, 36, 0
3, 359040, Note_on_c, 1, 36, 127
3, 359212, Note_on_c, 1, 36, 0
3, 359232, Note_on_c, 1, 38, 127
3, 359368, Note_on_c, 1, 38, 0
3, 359424, Note_on_c, 1, 31, 127
3, 359800, Note_on_c, 1, 31, 0
3, 360000, Note_on_c, 1, 31, 127
3, 360076, Note_on_c, 1, 31, 0
3, 360192, Note_on_c, 1, 31, 127
3, 360572, Note_on_c, 1, 31, 0
3, 360768, Note_on_c, 1, 29, 127
3, 360868, Note_on_c, 1, 29, 0
3, 360960, Note_on_c, 1, 31, 127
3, 361336, Note_on_c, 1, 31, 0
3, 361536, Note_on_c, 1, 31, 127
3, 361604, Note_on_c, 1, 31, 0
3, 361728, Note_on_c, 1, 38, 127
3, 361880, Note_on_c, 1, 38, 0
3, 361920, Note_on_c, 1, 36, 127
3, 362060, Note_on_c, 1, 36, 0
3, 362112, Note_on_c, 1, 34, 127
3, 362284, Note_on_c, 1, 34, 0
3, 362304, Note_on_c, 1, 33, 127
3, 362480, Note_on_c, 1, 33, 0
3, 362496, Note_on_c, 1, 31, 127
3, 362876, Note_on_c, 1, 31, 0
3, 363072, Note_on_c, 1, 31, 127
3, 363156, Note_on_c, 1, 31, 0
3, 363264, Note_on_c, 1, 31, 127
3, 363656, Note_on_c, 1, 31, 0
3, 363840, Note_on_c, 1, 31, 127
3, 363944, Note_on_c, 1, 31, 0
3, 364032, Note_on_c, 1, 29, 127
3, 364384, Note_on_c, 1, 29, 0
3, 364416, Note_on_c, 1, 31, 127
3, 364704, Pitch_bend_c, 1, 8050
3, 364720, Pitch_bend_c, 1, 6991
3, 364732, Note_on_c, 1, 31, 0
3, 364740, Pitch_bend_c, 1, 5508
3, 364760, Pitch_bend_c, 1, 3742
3, 364776, Pitch_bend_c, 1, 2401
3, 364796, Pitch_bend_c, 1, 1412
3, 364800, Note_on_c, 1, 38, 127
3, 364812, Pitch_bend_c, 1, 1129
3, 364840, Pitch_bend_c, 1, 1341
3, 364860, Pitch_bend_c, 1, 1836
3, 364876, Pitch_bend_c, 1, 2683
3, 364896, Pitch_bend_c, 1, 3884
3, 364912, Pitch_bend_c, 1, 5084
3, 364932, Pitch_bend_c, 1, 5932
3, 364948, Note_on_c, 1, 38, 0
3, 364952, Pitch_bend_c, 1, 6638
3, 364968, Pitch_bend_c, 1, 7344
3, 364988, Pitch_bend_c, 1, 7909
3, 364992, Note_on_c, 1, 38, 127
3, 365004, Pitch_bend_c, 1, 8192
3, 365136, Note_on_c, 1, 38, 0
3, 365184, Note_on_c, 1, 38, 127
3, 365372, Note_on_c, 1, 38, 0
3, 365568, Note_on_c, 1, 31, 127
3, 365944, Note_on_c, 1, 31, 0
3, 366144, Note_on_c, 1, 31, 127
3, 366220, Note_on_c, 1, 31, 0
3, 366336, Note_on_c, 1, 31, 127
3, 366716, Note_on_c, 1, 31, 0
3, 366912, Note_on_c, 1, 29, 127
3, 367012, Note_on_c, 1, 29, 0
3, 367104, Note_on_c, 1, 31, 127
3, 367480, Note_on_c, 1, 31, 0
3, 367680, Note_on_c, 1, 31, 127
3, 367748, Note_on_c, 1, 31, 0
3, 367872, Note_on_c, 1, 36, 127
3, 368024, Note_on_c, 1, 36, 0
3, 368064, Note_on_c, 1, 34, 127
3, 368204, Note_on_c, 1, 34, 0
3, 368256, Note_on_c, 1, 29, 127
3, 368428, Note_on_c, 1, 29, 0
3, 368448, Note_on_c, 1, 30, 127
3, 368624, Note_on_c, 1, 30, 0
3, 368640, Note_on_c, 1, 31, 127
3, 369020, Note_on_c, 1, 31, 0
3, 369216, Note_on_c, 1, 31, 127
3, 369300, Note_on_c, 1, 31, 0
3, 369408, Note_on_c, 1, 31, 127
3, 369800, Note_on_c, 1, 31, 0
3, 369984, Note_on_c, 1, 31, 127
3, 370088, Note_on_c, 1, 31, 0
3, 370176, Note_on_c, 1, 34, 127
3, 370536, Note_on_c, 1, 34, 0
3, 370752, Note_on_c, 1, 34, 127
3, 370912, Note_on_c, 1, 34, 0
3, 370944, Note_on_c, 1, 36, 127
3, 371244, Note_on_c, 1, 36, 0
3, 371328, Note_on_c, 1, 36, 127
3, 371500, Note_on_c, 1, 36, 0
3, 371520, Note_on_c, 1, 38, 127
3, 371656, Note_on_c, 1, 38, 0
3, 371712, Note_on_c, 1, 31, 127
3, 372088, Note_on_c, 1, 31, 0
3, 372288, Note_on_c, 1, 31, 127
3, 372364, Note_on_c, 1, 31, 0
3, 372480, Note_on_c, 1, 31, 127
3, 372860, Note_on_c, 1, 31, 0
3, 373056, Note_on_c, 1, 29, 127
3, 373156, Note_on_c, 1, 29, 0
3, 373248, Note_on_c, 1, 31, 127
3, 373624, Note_on_c, 1, 31, 0
3, 373824, Note_on_c, 1, 31, 127
3, 373892, Note_on_c, 1, 31, 0
3, 374016, Note_on_c, 1, 38, 127
3, 374168, Note_on_c, 1, 38, 0
3, 374208, Note_on_c, 1, 36, 127
3, 374348, Note_on_c, 1, 36, 0
3, 374400, Note_on_c, 1, 34, 127
3, 374572, Note_on_c, 1, 34, 0
3, 374592, Note_on_c, 1, 33, 127
3, 374768, Note_on_c, 1, 33, 0
3, 374784, Note_on_c, 1, 31, 127
3, 375164, Note_on_c, 1, 31, 0
3, 375360, Note_on_c, 1, 31, 127
3, 375444, Note_on_c, 1, 31, 0
3, 375552, Note_on_c, 1, 31, 127
3, 375944, Note_on_c, 1, 31, 0
3, 376128, Note_on_c, 1, 31, 127
3, 376232, Note_on_c, 1, 31, 0
3, 376320, Note_on_c, 1, 29, 127
3, 376672, Note_on_c, 1, 29, 0
3, 376704, Note_on_c, 1, 31, 127
3, 376992, Pitch_bend_c, 1, 8050
3, 377008, Pitch_bend_c, 1, 6991
3, 377020, Note_on_c, 1, 31, 0
3, 377028, Pitch_bend_c, 1, 5508
3, 377048, Pitch_bend_c, 1, 3742
3, 377064, Pitch_bend_c, 1, 2401
3, 377084, Pitch_bend_c, 1, 1412
3, 377088, Note_on_c, 1, 43, 127
3, 377100, Pitch_bend_c, 1, 1129
3, 377128, Pitch_bend_c, 1, 1341
3, 377148, Pitch_bend_c, 1, 1836
3, 377164, Pitch_bend_c, 1, 2683
3, 377184, Pitch_bend_c, 1, 3884
3, 377200, Pitch_bend_c, 1, 5084
3, 377220, Pitch_bend_c, 1, 5932
3, 377240, Pitch_bend_c, 1, 6638
3, 377256, Pitch_bend_c, 1, 7344
3, 377276, Note_on_c, 1, 43, 0
3, 377276, Pitch_bend_c, 1, 7909
3, 377280, Note_on_c, 1, 41, 127
3, 377292, Pitch_bend_c, 1, 8192
3, 377456, Note_on_c, 1, 41, 0
3, 377472, Note_on_c, 1, 38, 127
3, 377660, Note_on_c, 1, 38, 0
3, 377664, Note_on_c, 1, 36, 127
3, 377824, Note_on_c, 1, 36, 0
3, 377856, Note_on_c, 1, 31, 127
3, 378232, Note_on_c, 1, 31, 0
3, 378432, Note_on_c, 1, 31, 127
3, 378508, Note_on_c, 1, 31, 0
3, 378624, Note_on_c, 1, 31, 127
3, 379004, Note_on_c, 1, 31, 0
3, 379200, Note_on_c, 1, 29, 127
3, 379300, Note_on_c, 1, 29, 0
3, 379392, Note_on_c, 1, 31, 127
3, 379768, Note_on_c, 1, 31, 0
3, 379968, Note_on_c, 1, 31, 127
3, 380036, Note_on_c, 1, 31, 0
3, 380160, Note_on_c, 1, 36, 127
3, 380312, Note_on_c, 1, 36, 0
3, 380352, Note_on_c, 1, 34, 127
3, 380492, Note_on_c, 1, 34, 0
3, 380544, Note_on_c, 1, 29, 127
3, 380716, Note_on_c, 1, 29, 0
3, 380736, Note_on_c, 1, 30, 127
3, 380912, Note_on_c, 1, 30, 0
3, 380928, Note_on_c, 1, 31, 127
3, 381308, Note_on_c, 1, 31, 0
3, 381504, Note_on_c, 1, 31, 127
3, 381588, Note_on_c, 1, 31, 0
3, 381696, Note_on_c, 1, 31, 127
3, 382088, Note_on_c, 1, 31, 0
3, 382272, Note_on_c, 1, 31, 127
3, 382376, Note_on_c, 1, 31, 0
3, 382464, Note_on_c, 1, 34, 127
3, 382824, Note_on_c, 1, 34, 0
3, 383040, Note_on_c, 1, 34, 127
3, 383200, Note_on_c, 1, 34, 0
3, 383232, Note_on_c, 1, 36, 127
3, 383532, Note_on_c, 1, 36, 0
3, 383616, Note_on_c, 1, 36, 127
3, 383788, Note_on_c, 1, 36, 0
3, 383808, Note_on_c, 1, 38, 127
3, 383944, Note_on_c, 1, 38, 0
3, 384000, Note_on_c, 1, 31, 127
3, 384376, Note_on_c, 1, 31, 0
3, 384576, Note_on_c, 1, 31, 127
3, 384652, Note_on_c, 1, 31, 0
3, 384768, Note_on_c, 1, 31, 127
3, 385148, Note_on_c, 1, 31, 0
3, 385344, Note_on_c, 1, 29, 127
3, 385444, Note_on_c, 1, 29, 0
3, 385536, Note_on_c, 1, 31, 127
3, 385912, Note_on_c, 1, 31, 0
3, 386112, Note_on_c, 1, 31, 127
3, 386180, Note_on_c, 1, 31, 0
3, 386304, Note_on_c, 1, 38, 127
3, 386456, Note_on_c, 1, 38, 0
3, 386496, Note_on_c, 1, 36, 127
3, 386636, Note_on_c, 1, 36, 0
3, 386688, Note_on_c, 1, 34, 127
3, 386860, Note_on_c, 1, 34, 0
3, 386880, Note_on_c, 1, 33, 127
3, 387056, Note_on_c, 1, 33, 0
3, 387072, Note_on_c, 1, 31, 127
3, 387452, Note_on_c, 1, 31, 0
3, 387648, Note_on_c, 1, 31, 127
3, 387732, Note_on_c, 1, 31, 0
3, 387840, Note_on_c, 1, 31, 127
3, 388232, Note_on_c, 1, 31, 0
3, 388416, Note_on_c, 1, 31, 127
3, 388520, Note_on_c, 1, 31, 0
3, 388608, Note_on_c, 1, 29, 127
3, 388960, Note_on_c, 1, 29, 0
3, 388992, Note_on_c, 1, 31, 127
3, 389280, Pitch_bend_c, 1, 8050
3, 389296, Pitch_bend_c, 1, 6991
3, 389308, Note_on_c, 1, 31, 0
3, 389316, Pitch_bend_c, 1, 5508
3, 389336, Pitch_bend_c, 1, 3742
3, 389352, Pitch_bend_c, 1, 2401
3, 389372, Pitch_bend_c, 1, 1412
3, 389376, Note_on_c, 1, 38, 127
3, 389388, Pitch_bend_c, 1, 1129
3, 389416, Pitch_bend_c, 1, 1341
3, 389436, Pitch_bend_c, 1, 1836
3, 389452, Pitch_bend_c, 1, 2683
3, 389472, Pitch_bend_c, 1, 3884
3, 389488, Pitch_bend_c, 1, 5084
3, 389508, Pitch_bend_c, 1, 5932
3, 389524, Note_on_c, 1, 38, 0
3, 389528, Pitch_bend_c, 1, 6638
3, 389544, Pitch_bend_c, 1, 7344
3, 389564, Pitch_bend_c, 1, 7909
3, 389568, Note_on_c, 1, 38, 127
3, 389580, Pitch_bend_c, 1, 8192
3, 389712, Note_on_c, 1, 38, 0
3, 389760, Note_on_c, 1, 38, 127
3, 389948, Note_on_c, 1, 38, 0
3, 390144, Note_on_c, 1, 31, 127
3, 390520, Note_on_c, 1, 31, 0
3, 390720, Note_on_c, 1, 31, 127
3, 390796, Note_on_c, 1, 31, 0
3, 390912, Note_on_c, 1, 31, 127
3, 391292, Note_on_c, 1, 31, 0
3, 391488, Note_on_c, 1, 29, 127
3, 391588, Note_on_c, 1, 29, 0
3, 391680, Note_on_c, 1, 31, 127
3, 392056, Note_on_c, 1, 31, 0
3, 392256, Note_on_c, 1, 31, 127
3, 392324, Note_on_c, 1, 31, 0
3, 392448, Note_on_c, 1, 36, 127
3, 392600, Note_on_c, 1, 36, 0
3, 392640, Note_on_c, 1, 34, 127
3, 392780, Note_on_c, 1, 34, 0
3, 392832, Note_on_c, 1, 29, 127
3, 393004, Note_on_c, 1, 29, 0
3, 393024, Note_on_c, 1, 30, 127
3, 393200, Note_on_c, 1, 30, 0
3, 393216, Note_on_c, 1, 31, 127
3, 393596, Note_on_c, 1, 31, 0
3, 393792, Note_on_c, 1, 31, 127
3, 393876, Note_on_c, 1, 31, 0
3, 393984, Note_on_c, 1, 31, 127
3, 394376, Note_on_c, 1, 31, 0
3, 394560, Note_on_c, 1, 31, 127
3, 394664, Note_on_c, 1, 31, 0
3, 394752, Note_on_c, 1, 34, 127
3, 395112, Note_on_c, 1, 34, 0
3, 395328, Note_on_c, 1, 34, 127
3, 395488, Note_on_c, 1, 34, 0
3, 395520, Note_on_c, 1, 36, 127
3, 395820, Note_on_c, 1, 36, 0
3, 395904, Note_on_c, 1, 36, 127
3, 396076, Note_on_c, 1, 36, 0
3, 396096, Note_on_c, 1, 38, 127
3, 396232, Note_on_c, 1, 38, 0
3, 396288, Note_on_c, 1, 31, 127
3, 396664, Note_on_c, 1, 31, 0
3, 396864, Note_on_c, 1, 31, 127
3, 396940, Note_on_c, 1, 31, 0
3, 397056, Note_on_c, 1, 31, 127
3, 397436, Note_on_c, 1, 31, 0
3, 397632, Note_on_c, 1, 29, 127
3, 397732, Note_on_c, 1, 29, 0
3, 397824, Note_on_c, 1, 31, 127
3, 398200, Note_on_c, 1, 31, 0
3, 398400, Note_on_c, 1, 31, 127
3, 398468, Note_on_c, 1, 31, 0
3, 398592, Note_on_c, 1, 38, 127
3, 398744, Note_on_c, 1, 38, 0
3, 398784, Note_on_c, 1, 36, 127
3, 398924, Note_on_c, 1, 36, 0
3, 398976, Note_on_c, 1, 34, 127
3, 399148, Note_on_c, 1, 34, 0
3, 399168, Note_on_c, 1, 33, 127
3, 399344, Note_on_c, 1, 33, 0
3, 399360, Note_on_c, 1, 31, 127
3, 399740, Note_on_c, 1, 31, 0
3, 399936, Note_on_c, 1, 31, 127
3, 400020, Note_on_c, 1, 31, 0
3, 400128, Note_on_c, 1, 31, 127
3, 400520, Note_on_c, 1, 31, 0
3, 400704, Note_on_c, 1, 31, 127
3, 400808, Note_on_c, 1, 31, 0
3, 400896, Note_on_c, 1, 29, 127
3, 401248, Note_on_c, 1, 29, 0
3, 401280, Note_on_c, 1, 31, 127
3, 401568, Pitch_bend_c, 1, 8050
3, 401584, Pitch_bend_c, 1, 6991
3, 401596, Note_on_c, 1, 31, 0
3, 401604, Pitch_bend_c, 1, 5508
3, 401624, Pitch_bend_c, 1, 3742
3, 401640, Pitch_bend_c, 1, 2401
3, 401660, Pitch_bend_c, 1, 1412
3, 401664, Note_on_c, 1, 43, 127
3, 401676, Pitch_bend_c, 1, 1129
3, 401704, Pitch_bend_c, 1, 1341
3, 401724, Pitch_bend_c, 1, 1836
3, 401740, Pitch_bend_c, 1, 2683
3, 401760, Pitch_bend_c, 1, 3884
3, 401776, Pitch_bend_c, 1, 5084
3, 401796, Pitch_bend_c, 1, 5932
3, 401816, Pitch_bend_c, 1, 6638
3, 401832, Pitch_bend_c, 1, 7344
3, 401852, Note_on_c, 1, 43, 0
3, 401852, Pitch_bend_c, 1, 7909
3, 401856, Note_on_c, 1, 41, 127
3, 401868, Pitch_bend_c, 1, 8192
3, 402032, Note_on_c, 1, 41, 0
3, 402048, Note_on_c, 1, 38, 127
3, 402236, Note_on_c, 1, 38, 0
3, 402240, Note_on_c, 1, 36, 127
3, 402400, Note_on_c, 1, 36, 0
3, 402432, Note_on_c, 1, 31, 127
3, 402808, Note_on_c, 1, 31, 0
3, 402828, Control_c, 1, 7, 125
3, 402868, Control_c, 1, 7, 124
3, 402992, Control_c, 1, 7, 123
3, 403008, Note_on_c, 1, 31, 127
3, 403084, Note_on_c, 1, 31, 0
3, 403200, Note_on_c, 1, 31, 127
3, 403220, Control_c, 1, 7, 122
3, 403400, Control_c, 1, 7, 121
3, 403484, Control_c, 1, 7, 120
3, 403580, Note_on_c, 1, 31, 0
3, 403616, Control_c, 1, 7, 119
3, 403688, Control_c, 1, 7, 118
3, 403776, Note_on_c, 1, 29, 127
3, 403876, Note_on_c, 1, 29, 0
3, 403920, Control_c, 1, 7, 116
3, 403968, Note_on_c, 1, 31, 127
3, 403988, Control_c, 1, 7, 115
3, 404168, Control_c, 1, 7, 114
3, 404228, Control_c, 1, 7, 113
3, 404344, Note_on_c, 1, 31, 0
3, 404372, Control_c, 1, 7, 112
3, 404444, Control_c, 1, 7, 111
3, 404544, Note_on_c, 1, 31, 127
3, 404612, Note_on_c, 1, 31, 0
3, 404612, Control_c, 1, 7, 110
3, 404672, Control_c, 1, 7, 109
3, 404736, Note_on_c, 1, 36, 127
3, 404832, Control_c, 1, 7, 107
3, 404888, Note_on_c, 1, 36, 0
3, 404904, Control_c, 1, 7, 106
3, 404928, Note_on_c, 1, 34, 127
3, 405068, Note_on_c, 1, 34, 0
3, 405072, Control_c, 1, 7, 105
3, 405116, Control_c, 1, 7, 104
3, 405120, Note_on_c, 1, 29, 127
3, 405272, Control_c, 1, 7, 103
3, 405292, Note_on_c, 1, 29, 0
3, 405312, Note_on_c, 1, 30, 127
3, 405336, Control_c, 1, 7, 102
3, 405488, Note_on_c, 1, 30, 0
3, 405504, Note_on_c, 1, 31, 127
3, 405508, Control_c, 1, 7, 101
3, 405568, Control_c, 1, 7, 100
3, 405724, Control_c, 1, 7, 98
3, 405764, Control_c, 1, 7, 97
3, 405864, Control_c, 1, 7, 96
3, 405884, Note_on_c, 1, 31, 0
3, 405924, Control_c, 1, 7, 95
3, 406024, Control_c, 1, 7, 94
3, 406080, Note_on_c, 1, 31, 127
3, 406096, Control_c, 1, 7, 93
3, 406164, Note_on_c, 1, 31, 0
3, 406196, Control_c, 1, 7, 92
3, 406272, Note_on_c, 1, 31, 127
3, 406276, Control_c, 1, 7, 91
3, 406388, Control_c, 1, 7, 89
3, 406492, Control_c, 1, 7, 88
3, 406660, Control_c, 1, 7, 87
3, 406664, Note_on_c, 1, 31, 0
3, 406776, Control_c, 1, 7, 86
3, 406848, Note_on_c, 1, 31, 127
3, 406888, Control_c, 1, 7, 85
3, 406952, Note_on_c, 1, 31, 0
3, 406988, Control_c, 1, 7, 84
3, 407040, Note_on_c, 1, 34, 127
3, 407108, Control_c, 1, 7, 83
3, 407208, Control_c, 1, 7, 82
3, 407332, Control_c, 1, 7, 80
3, 407400, Note_on_c, 1, 34, 0
3, 407436, Control_c, 1, 7, 79
3, 407568, Control_c, 1, 7, 78
3, 407616, Note_on_c, 1, 34, 127
3, 407692, Control_c, 1, 7, 77
3, 407760, Control_c, 1, 7, 76
3, 407776, Note_on_c, 1, 34, 0
3, 407808, Note_on_c, 1, 36, 127
3, 407864, Control_c, 1, 7, 75
3, 407992, Control_c, 1, 7, 74
3, 408104, Control_c, 1, 7, 73
3, 408108, Note_on_c, 1, 36, 0
3, 408176, Control_c, 1, 7, 71
3, 408192, Note_on_c, 1, 36, 127
3, 408300, Control_c, 1, 7, 70
3, 408364, Note_on_c, 1, 36, 0
3, 408372, Control_c, 1, 7, 69
3, 408384, Note_on_c, 1, 38, 127
3, 408464, Control_c, 1, 7, 68
3, 408520, Note_on_c, 1, 38, 0
3, 408524, Control_c, 1, 7, 67
3, 408576, Note_on_c, 1, 31, 127
3, 408628, Control_c, 1, 7, 66
3, 408692, Control_c, 1, 7, 65
3, 408764, Control_c, 1, 7, 64
3, 408824, Control_c, 1, 7, 62
3, 408920, Control_c, 1, 7, 61
3, 408952, Note_on_c, 1, 31, 0
3, 408984, Control_c, 1, 7, 60
3, 409084, Control_c, 1, 7, 59
3, 409152, Note_on_c, 1, 31, 127
3, 409156, Control_c, 1, 7, 58
3, 409228, Note_on_c, 1, 31, 0
3, 409240, Control_c, 1, 7, 57
3, 409340, Control_c, 1, 7, 56
3, 409344, Note_on_c, 1, 31, 127
3, 409432, Control_c, 1, 7, 55
3, 409516, Control_c, 1, 7, 53
3, 409616, Control_c, 1, 7, 52
3, 409724, Note_on_c, 1, 31, 0
3, 409732, Control_c, 1, 7, 51
3, 409844, Control_c, 1, 7, 50
3, 409920, Note_on_c, 1, 29, 127
3, 409932, Control_c, 1, 7, 49
3, 410020, Note_on_c, 1, 29, 0
3, 410044, Control_c, 1, 7, 48
3, 410112, Note_on_c, 1, 31, 127
3, 410160, Control_c, 1, 7, 47
3, 410248, Control_c, 1, 7, 46
3, 410336, Control_c, 1, 7, 44
3, 410396, Control_c, 1, 7, 43
3, 410488, Note_on_c, 1, 31, 0
3, 410528, Control_c, 1, 7, 42
3, 410588, Control_c, 1, 7, 41
3, 410688, Note_on_c, 1, 31, 127
3, 410688, Control_c, 1, 7, 40
3, 410756, Note_on_c, 1, 31, 0
3, 410788, Control_c, 1, 7, 39
3, 410880, Note_on_c, 1, 38, 127
3, 410944, Control_c, 1, 7, 38
3, 411032, Note_on_c, 1, 38, 0
3, 411032, Control_c, 1, 7, 37
3, 411072, Note_on_c, 1, 36, 127
3, 411172, Control_c, 1, 7, 35
3, 411212, Note_on_c, 1, 36, 0
3, 411260, Control_c, 1, 7, 34
3, 411264, Note_on_c, 1, 34, 127
3, 411436, Note_on_c, 1, 34, 0
3, 411456, Note_on_c, 1, 33, 127
3, 411460, Control_c, 1, 7, 33
3, 411524, Control_c, 1, 7, 32
3, 411632, Note_on_c, 1, 33, 0
3, 411668, Control_c, 1, 7, 31
3, 411732, Control_c, 1, 7, 30
3, 411884, Control_c, 1, 7, 29
3, 411944, Control_c, 1, 7, 28
3, 412060, Control_c, 1, 7, 26
3, 412100, Control_c, 1, 7, 25
3, 412188, Control_c, 1, 7, 24
3, 412232, Control_c, 1, 7, 23
3, 412332, Control_c, 1, 7, 22
3, 412372, Control_c, 1, 7, 21
3, 412540, Control_c, 1, 7, 20
3, 412604, Control_c, 1, 7, 19
3, 412728, Control_c, 1, 7, 17
3, 412796, Control_c, 1, 7, 16
3, 412924, Control_c, 1, 7, 15
3, 412968, Control_c, 1, 7, 14
3, 413100, Control_c, 1, 7, 13
3, 413160, Control_c, 1, 7, 12
3, 413296, Control_c, 1, 7, 11
3, 413356, Control_c, 1, 7, 10
3, 413416, Control_c, 1, 7, 8
3, 413460, Control_c, 1, 7, 7
3, 413564, Control_c, 1, 7, 6
3, 413612, Control_c, 1, 7, 5
3, 413688, Control_c, 1, 7, 4
3, 413748, Control_c, 1, 7, 3
3, 413836, Control_c, 1, 7, 2
3, 413856, Pitch_bend_c, 1, 8050
3, 413872, Pitch_bend_c, 1, 6991
3, 413892, Pitch_bend_c, 1, 5508
3, 413900, Control_c, 1, 7, 1
3, 413912, Pitch_bend_c, 1, 3742
3, 413928, Pitch_bend_c, 1, 2401
3, 413948, Pitch_bend_c, 1, 1412
3, 413964, Pitch_bend_c, 1, 1129
3, 413992, Pitch_bend_c, 1, 1341
3, 414012, Pitch_bend_c, 1, 1836
3, 414016, Control_c, 1, 7, 0
3, 414028, Pitch_bend_c, 1, 2683
3, 414048, Pitch_bend_c, 1, 3884
3, 414064, Pitch_bend_c, 1, 5084
3, 414084, Pitch_bend_c, 1, 5932
3, 414104, Pitch_bend_c, 1, 6638
3, 414120, Pitch_bend_c, 1, 7344
3, 414140, Pitch_bend_c, 1, 7909
3, 414140, End_track
4, 0, Start_track
4, 0, MIDI_port, 0
4, 0, Title_t, "Synth"
4, 0, Program_c, 2, 89
4, 0, Control_c, 2, 7, 10
4, 0, Control_c, 2, 10, 54
4, 0, Control_c, 2, 0, 0
4, 196, Control_c, 2, 121, 127
4, 292, Control_c, 2, 0, 0
4, 292, Control_c, 2, 32, 0
4, 580, Control_c, 2, 91, 90
4, 676, Control_c, 2, 93, 40
4, 3840, Note_on_c, 2, 55, 127
4, 3840, Note_on_c, 2, 58, 127
4, 3840, Note_on_c, 2, 62, 127
4, 3840, Note_on_c, 2, 67, 127
4, 3864, Control_c, 2, 7, 12
4, 3936, Control_c, 2, 7, 15
4, 3972, Control_c, 2, 7, 18
4, 4008, Control_c, 2, 7, 22
4, 4044, Control_c, 2, 7, 25
4, 4080, Control_c, 2, 7, 28
4, 4120, Control_c, 2, 7, 30
4, 4156, Control_c, 2, 7, 32
4, 4208, Control_c, 2, 7, 35
4, 4248, Control_c, 2, 7, 37
4, 4284, Control_c, 2, 7, 38
4, 4320, Control_c, 2, 7, 41
4, 4372, Control_c, 2, 7, 43
4, 4412, Control_c, 2, 7, 45
4, 4448, Control_c, 2, 7, 47
4, 4484, Control_c, 2, 7, 48
4, 4540, Control_c, 2, 7, 50
4, 4592, Control_c, 2, 7, 52
4, 4648, Control_c, 2, 7, 54
4, 4684, Control_c, 2, 7, 55
4, 4720, Control_c, 2, 7, 57
4, 4756, Control_c, 2, 7, 58
4, 4832, Control_c, 2, 7, 59
4, 4868, Control_c, 2, 7, 60
4, 4904, Control_c, 2, 7, 61
4, 4960, Control_c, 2, 7, 63
4, 5012, Control_c, 2, 7, 64
4, 5088, Control_c, 2, 7, 65
4, 5160, Control_c, 2, 7, 66
4, 5216, Control_c, 2, 7, 67
4, 5252, Control_c, 2, 7, 68
4, 5380, Control_c, 2, 7, 69
4, 5436, Control_c, 2, 7, 70
4, 5524, Control_c, 2, 7, 71
4, 5616, Control_c, 2, 7, 72
4, 5728, Control_c, 2, 7, 73
4, 5892, Control_c, 2, 7, 74
4, 6056, Control_c, 2, 7, 75
4, 17396, Note_on_c, 2, 67, 0
4, 17396, Note_on_c, 2, 58, 0
4, 17400, Note_on_c, 2, 55, 0
4, 17404, Note_on_c, 2, 62, 0
4, 80116, Control_c, 2, 7, 76
4, 80208, Control_c, 2, 7, 77
4, 80260, Control_c, 2, 7, 79
4, 80316, Control_c, 2, 7, 80
4, 80372, Control_c, 2, 7, 81
4, 80444, Control_c, 2, 7, 82
4, 80500, Control_c, 2, 7, 83
4, 80536, Control_c, 2, 7, 84
4, 80572, Control_c, 2, 7, 85
4, 80628, Control_c, 2, 7, 86
4, 80684, Control_c, 2, 7, 87
4, 80720, Control_c, 2, 7, 88
4, 80756, Control_c, 2, 7, 89
4, 80812, Control_c, 2, 7, 90
4, 80848, Control_c, 2, 7, 91
4, 80900, Control_c, 2, 7, 92
4, 80936, Control_c, 2, 7, 93
4, 80992, Control_c, 2, 7, 95
4, 81048, Control_c, 2, 7, 96
4, 81104, Control_c, 2, 7, 97
4, 81140, Control_c, 2, 7, 98
4, 81176, Control_c, 2, 7, 99
4, 81248, Control_c, 2, 7, 100
4, 81284, Control_c, 2, 7, 102
4, 81340, Control_c, 2, 7, 104
4, 81396, Control_c, 2, 7, 106
4, 81432, Control_c, 2, 7, 107
4, 81488, Control_c, 2, 7, 108
4, 81524, Control_c, 2, 7, 109
4, 81576, Control_c, 2, 7, 110
4, 81616, Control_c, 2, 7, 111
4, 81652, Control_c, 2, 7, 112
4, 81688, Control_c, 2, 7, 113
4, 81724, Control_c, 2, 7, 114
4, 81760, Control_c, 2, 7, 115
4, 81816, Control_c, 2, 7, 117
4, 81872, Control_c, 2, 7, 118
4, 81908, Control_c, 2, 7, 119
4, 81944, Control_c, 2, 7, 120
4, 81980, Control_c, 2, 7, 121
4, 82016, Control_c, 2, 7, 122
4, 82052, Control_c, 2, 7, 123
4, 82088, Control_c, 2, 7, 124
4, 82124, Control_c, 2, 7, 125
4, 82164, Control_c, 2, 7, 126
4, 82216, Control_c, 2, 7, 127
4, 119808, Note_on_c, 2, 67, 114
4, 119808, Note_on_c, 2, 74, 114
4, 119808, Note_on_c, 2, 77, 114
4, 124412, Note_on_c, 2, 77, 0
4, 124412, Note_on_c, 2, 74, 0
4, 124412, Note_on_c, 2, 67, 0
4, 124416, Note_on_c, 2, 72, 127
4, 125248, Pitch_bend_c, 2, 8403
4, 125264, Pitch_bend_c, 2, 9321
4, 125284, Pitch_bend_c, 2, 10734
4, 125300, Pitch_bend_c, 2, 12287
4, 125320, Pitch_bend_c, 2, 13629
4, 125336, Pitch_bend_c, 2, 14618
4, 125356, Pitch_bend_c, 2, 15324
4, 125376, Pitch_bend_c, 2, 15889
4, 125392, Pitch_bend_c, 2, 16101
4, 125420, Pitch_bend_c, 2, 15748
4, 125440, Pitch_bend_c, 2, 14900
4, 125456, Pitch_bend_c, 2, 13276
4, 125476, Pitch_bend_c, 2, 11723
4, 125492, Pitch_bend_c, 2, 10593
4, 125512, Pitch_bend_c, 2, 9533
4, 125528, Pitch_bend_c, 2, 8686
4, 125548, Pitch_bend_c, 2, 8192
4, 125892, Note_on_c, 2, 72, 0
4, 125952, Note_on_c, 2, 67, 100
4, 125952, Note_on_c, 2, 74, 109
4, 125952, Note_on_c, 2, 77, 99
4, 130548, Note_on_c, 2, 77, 0
4, 130548, Note_on_c, 2, 67, 0
4, 130552, Note_on_c, 2, 74, 0
4, 130560, Note_on_c, 2, 72, 127
4, 131320, Note_on_c, 2, 72, 0
4, 131328, Note_on_c, 2, 74, 106
4, 131984, Note_on_c, 2, 74, 0
4, 132096, Note_on_c, 2, 67, 116
4, 132096, Note_on_c, 2, 70, 114
4, 132096, Note_on_c, 2, 75, 115
4, 133616, Note_on_c, 2, 75, 0
4, 133620, Note_on_c, 2, 67, 0
4, 133632, Note_on_c, 2, 65, 118
4, 133632, Note_on_c, 2, 74, 118
4, 135160, Note_on_c, 2, 74, 0
4, 135160, Note_on_c, 2, 65, 0
4, 135168, Note_on_c, 2, 67, 119
4, 135168, Note_on_c, 2, 75, 117
4, 136684, Note_on_c, 2, 67, 0
4, 136688, Note_on_c, 2, 75, 0
4, 136696, Note_on_c, 2, 70, 0
4, 136704, Note_on_c, 2, 69, 114
4, 136704, Note_on_c, 2, 72, 115
4, 136704, Note_on_c, 2, 77, 116
4, 138228, Note_on_c, 2, 72, 0
4, 138228, Note_on_c, 2, 69, 0
4, 138240, Note_on_c, 2, 67, 115
4, 138240, Note_on_c, 2, 74, 118
4, 141292, Note_on_c, 2, 77, 0
4, 141300, Note_on_c, 2, 74, 0
4, 141300, Note_on_c, 2, 67, 0
4, 141312, Note_on_c, 2, 64, 117
4, 141312, Note_on_c, 2, 67, 115
4, 141312, Note_on_c, 2, 72, 117
4, 142836, Note_on_c, 2, 67, 0
4, 142840, Note_on_c, 2, 64, 0
4, 142844, Note_on_c, 2, 72, 0
4, 142848, Note_on_c, 2, 66, 120
4, 142848, Note_on_c, 2, 69, 113
4, 142848, Note_on_c, 2, 74, 121
4, 144368, Note_on_c, 2, 66, 0
4, 144372, Note_on_c, 2, 74, 0
4, 144372, Note_on_c, 2, 69, 0
4, 144384, Note_on_c, 2, 68, 119
4, 144384, Note_on_c, 2, 71, 117
4, 144384, Note_on_c, 2, 76, 113
4, 147440, Note_on_c, 2, 68, 0
4, 147444, Note_on_c, 2, 76, 0
4, 147444, Note_on_c, 2, 71, 0
4, 147456, Note_on_c, 2, 67, 127
4, 147456, Note_on_c, 2, 74, 127
4, 147456, Note_on_c, 2, 77, 127
4, 151988, Note_on_c, 2, 77, 0
4, 151988, Note_on_c, 2, 74, 0
4, 152004, Note_on_c, 2, 67, 0
4, 152064, Note_on_c, 2, 72, 127
4, 152796, Note_on_c, 2, 72, 0
4, 152832, Note_on_c, 2, 74, 127
4, 153564, Note_on_c, 2, 74, 0
4, 153600, Note_on_c, 2, 67, 127
4, 153600, Note_on_c, 2, 74, 127
4, 153600, Note_on_c, 2, 77, 127
4, 158132, Note_on_c, 2, 77, 0
4, 158132, Note_on_c, 2, 74, 0
4, 158148, Note_on_c, 2, 67, 0
4, 158208, Note_on_c, 2, 72, 127
4, 158940, Note_on_c, 2, 72, 0
4, 158976, Note_on_c, 2, 74, 127
4, 159708, Note_on_c, 2, 74, 0
4, 159744, Note_on_c, 2, 67, 116
4, 159744, Note_on_c, 2, 70, 114
4, 159744, Note_on_c, 2, 75, 115
4, 161264, Note_on_c, 2, 75, 0
4, 161268, Note_on_c, 2, 67, 0
4, 161280, Note_on_c, 2, 65, 118
4, 161280, Note_on_c, 2, 74, 118
4, 162808, Note_on_c, 2, 74, 0
4, 162808, Note_on_c, 2, 65, 0
4, 162816, Note_on_c, 2, 67, 119
4, 162816, Note_on_c, 2, 75, 117
4, 164332, Note_on_c, 2, 67, 0
4, 164336, Note_on_c, 2, 75, 0
4, 164344, Note_on_c, 2, 70, 0
4, 164352, Note_on_c, 2, 69, 114
4, 164352, Note_on_c, 2, 72, 115
4, 164352, Note_on_c, 2, 77, 116
4, 165876, Note_on_c, 2, 72, 0
4, 165876, Note_on_c, 2, 69, 0
4, 165888, Note_on_c, 2, 67, 115
4, 165888, Note_on_c, 2, 74, 118
4, 168940, Note_on_c, 2, 77, 0
4, 168948, Note_on_c, 2, 74, 0
4, 168948, Note_on_c, 2, 67, 0
4, 168960, Note_on_c, 2, 64, 117
4, 168960, Note_on_c, 2, 67, 115
4, 168960, Note_on_c, 2, 72, 117
4, 170484, Note_on_c, 2, 67, 0
4, 170488, Note_on_c, 2, 64, 0
4, 170492, Note_on_c, 2, 72, 0
4, 170496, Note_on_c, 2, 66, 120
4, 170496, Note_on_c, 2, 69, 113
4, 170496, Note_on_c, 2, 74, 121
4, 172016, Note_on_c, 2, 66, 0
4, 172020, Note_on_c, 2, 74, 0
4, 172020, Note_on_c, 2, 69, 0
4, 172032, Note_on_c, 2, 68, 119
4, 172032, Note_on_c, 2, 71, 117
4, 172032, Note_on_c, 2, 76, 113
4, 175088, Note_on_c, 2, 68, 0
4, 175092, Note_on_c, 2, 76, 0
4, 175092, Note_on_c, 2, 71, 0
4, 175104, Note_on_c, 2, 67, 127
4, 175104, Note_on_c, 2, 74, 127
4, 175104, Note_on_c, 2, 77, 127
4, 179636, Note_on_c, 2, 77, 0
4, 179636, Note_on_c, 2, 74, 0
4, 179652, Note_on_c, 2, 67, 0
4, 179712, Note_on_c, 2, 72, 127
4, 180444, Note_on_c, 2, 72, 0
4, 180480, Note_on_c, 2, 74, 127
4, 181212, Note_on_c, 2, 74, 0
4, 181248, Note_on_c, 2, 67, 127
4, 181248, Note_on_c, 2, 74, 127
4, 181248, Note_on_c, 2, 77, 127
4, 185780, Note_on_c, 2, 77, 0
4, 185780, Note_on_c, 2, 74, 0
4, 185796, Note_on_c, 2, 67, 0
4, 185856, Note_on_c, 2, 72, 127
4, 186588, Note_on_c, 2, 72, 0
4, 186624, Note_on_c, 2, 74, 127
4, 187356, Note_on_c, 2, 74, 0
4, 187392, Note_on_c, 2, 67, 116
4, 187392, Note_on_c, 2, 70, 114
4, 187392, Note_on_c, 2, 75, 115
4, 188912, Note_on_c, 2, 75, 0
4, 188916, Note_on_c, 2, 67, 0
4, 188928, Note_on_c, 2, 65, 118
4, 188928, Note_on_c, 2, 74, 118
4, 190456, Note_on_c, 2, 74, 0
4, 190456, Note_on_c, 2, 65, 0
4, 190464, Note_on_c, 2, 67, 119
4, 190464, Note_on_c, 2, 75, 117
4, 191980, Note_on_c, 2, 67, 0
4, 191984, Note_on_c, 2, 75, 0
4, 191992, Note_on_c, 2, 70, 0
4, 192000, Note_on_c, 2, 69, 114
4, 192000, Note_on_c, 2, 72, 115
4, 192000, Note_on_c, 2, 77, 116
4, 193524, Note_on_c, 2, 72, 0
4, 193524, Note_on_c, 2, 69, 0
4, 193536, Note_on_c, 2, 67, 115
4, 193536, Note_on_c, 2, 74, 118
4, 196588, Note_on_c, 2, 77, 0
4, 196596, Note_on_c, 2, 74, 0
4, 196596, Note_on_c, 2, 67, 0
4, 196608, Note_on_c, 2, 64, 117
4, 196608, Note_on_c, 2, 67, 115
4, 196608, Note_on_c, 2, 72, 117
4, 198132, Note_on_c, 2, 67, 0
4, 198136, Note_on_c, 2, 64, 0
4, 198140, Note_on_c, 2, 72, 0
4, 198144, Note_on_c, 2, 66, 120
4, 198144, Note_on_c, 2, 69, 113
4, 198144, Note_on_c, 2, 74, 121
4, 199664, Note_on_c, 2, 66, 0
4, 199668, Note_on_c, 2, 74, 0
4, 199668, Note_on_c, 2, 69, 0
4, 199680, Note_on_c, 2, 68, 119
4, 199680, Note_on_c, 2, 71, 117
4, 199680, Note_on_c, 2, 76, 113
4, 202736, Note_on_c, 2, 68, 0
4, 202740, Note_on_c, 2, 76, 0
4, 202740, Note_on_c, 2, 71, 0
4, 202752, Note_on_c, 2, 67, 127
4, 202752, Note_on_c, 2, 74, 127
4, 202752, Note_on_c, 2, 77, 127
4, 207284, Note_on_c, 2, 77, 0
4, 207284, Note_on_c, 2, 74, 0
4, 207300, Note_on_c, 2, 67, 0
4, 207360, Note_on_c, 2, 72, 127
4, 208092, Note_on_c, 2, 72, 0
4, 208128, Note_on_c, 2, 74, 127
4, 208860, Note_on_c, 2, 74, 0
4, 208896, Note_on_c, 2, 67, 127
4, 208896, Note_on_c, 2, 74, 127
4, 208896, Note_on_c, 2, 77, 127
4, 213428, Note_on_c, 2, 77, 0
4, 213428, Note_on_c, 2, 74, 0
4, 213444, Note_on_c, 2, 67, 0
4, 213504, Note_on_c, 2, 72, 127
4, 214236, Note_on_c, 2, 72, 0
4, 214272, Note_on_c, 2, 74, 127
4, 215004, Note_on_c, 2, 74, 0
4, 215040, Note_on_c, 2, 67, 127
4, 215040, Note_on_c, 2, 74, 127
4, 215040, Note_on_c, 2, 77, 127
4, 219572, Note_on_c, 2, 77, 0
4, 219572, Note_on_c, 2, 74, 0
4, 219588, Note_on_c, 2, 67, 0
4, 219648, Note_on_c, 2, 72, 127
4, 220380, Note_on_c, 2, 72, 0
4, 220416, Note_on_c, 2, 74, 127
4, 221148, Note_on_c, 2, 74, 0
4, 221184, Note_on_c, 2, 67, 127
4, 221184, Note_on_c, 2, 74, 127
4, 221184, Note_on_c, 2, 77, 127
4, 225716, Note_on_c, 2, 77, 0
4, 225716, Note_on_c, 2, 74, 0
4, 225732, Note_on_c, 2, 67, 0
4, 225792, Note_on_c, 2, 72, 127
4, 226524, Note_on_c, 2, 72, 0
4, 226560, Note_on_c, 2, 74, 127
4, 227292, Note_on_c, 2, 74, 0
4, 227328, Note_on_c, 2, 67, 116
4, 227328, Note_on_c, 2, 70, 114
4, 227328, Note_on_c, 2, 75, 115
4, 228848, Note_on_c, 2, 75, 0
4, 228852, Note_on_c, 2, 67, 0
4, 228864, Note_on_c, 2, 65, 118
4, 228864, Note_on_c, 2, 74, 118
4, 230392, Note_on_c, 2, 74, 0
4, 230392, Note_on_c, 2, 65, 0
4, 230400, Note_on_c, 2, 67, 119
4, 230400, Note_on_c, 2, 75, 117
4, 231916, Note_on_c, 2, 67, 0
4, 231920, Note_on_c, 2, 75, 0
4, 231928, Note_on_c, 2, 70, 0
4, 231936, Note_on_c, 2, 69, 114
4, 231936, Note_on_c, 2, 72, 115
4, 231936, Note_on_c, 2, 77, 116
4, 233460, Note_on_c, 2, 72, 0
4, 233460, Note_on_c, 2, 69, 0
4, 233472, Note_on_c, 2, 67, 115
4, 233472, Note_on_c, 2, 74, 118
4, 236524, Note_on_c, 2, 77, 0
4, 236532, Note_on_c, 2, 74, 0
4, 236532, Note_on_c, 2, 67, 0
4, 236544, Note_on_c, 2, 64, 117
4, 236544, Note_on_c, 2, 67, 115
4, 236544, Note_on_c, 2, 72, 117
4, 238068, Note_on_c, 2, 67, 0
4, 238072, Note_on_c, 2, 64, 0
4, 238076, Note_on_c, 2, 72, 0
4, 238080, Note_on_c, 2, 66, 120
4, 238080, Note_on_c, 2, 69, 113
4, 238080, Note_on_c, 2, 74, 121
4, 239600, Note_on_c, 2, 66, 0
4, 239604, Note_on_c, 2, 74, 0
4, 239604, Note_on_c, 2, 69, 0
4, 239616, Note_on_c, 2, 68, 119
4, 239616, Note_on_c, 2, 71, 117
4, 239616, Note_on_c, 2, 76, 113
4, 242672, Note_on_c, 2, 68, 0
4, 242676, Note_on_c, 2, 76, 0
4, 242676, Note_on_c, 2, 71, 0
4, 242688, Note_on_c, 2, 67, 127
4, 242688, Note_on_c, 2, 74, 127
4, 242688, Note_on_c, 2, 77, 124
4, 247272, Note_on_c, 2, 67, 0
4, 247296, Note_on_c, 2, 79, 127
4, 248816, Note_on_c, 2, 79, 0
4, 248820, Note_on_c, 2, 77, 0
4, 248832, Note_on_c, 2, 67, 127
4, 248832, Note_on_c, 2, 77, 127
4, 253416, Note_on_c, 2, 74, 0
4, 253420, Note_on_c, 2, 77, 0
4, 253420, Note_on_c, 2, 67, 0
4, 253440, Note_on_c, 2, 72, 127
4, 254192, Note_on_c, 2, 72, 0
4, 254208, Note_on_c, 2, 74, 127
4, 254948, Note_on_c, 2, 74, 0
4, 254976, Note_on_c, 2, 67, 127
4, 254976, Note_on_c, 2, 74, 127
4, 254976, Note_on_c, 2, 77, 127
4, 260332, Note_on_c, 2, 74, 0
4, 260340, Note_on_c, 2, 77, 0
4, 260352, Note_on_c, 2, 72, 127
4, 260352, Note_on_c, 2, 76, 127
4, 261088, Note_on_c, 2, 72, 0
4, 261100, Note_on_c, 2, 76, 0
4, 261120, Note_on_c, 2, 74, 127
4, 261120, Note_on_c, 2, 77, 127
4, 267232, Note_on_c, 2, 77, 0
4, 267236, Note_on_c, 2, 74, 0
4, 267244, Note_on_c, 2, 67, 0
4, 267264, Note_on_c, 2, 67, 127
4, 267264, Note_on_c, 2, 74, 127
4, 267264, Note_on_c, 2, 77, 124
4, 271848, Note_on_c, 2, 67, 0
4, 271872, Note_on_c, 2, 79, 127
4, 273392, Note_on_c, 2, 79, 0
4, 273396, Note_on_c, 2, 77, 0
4, 273408, Note_on_c, 2, 67, 127
4, 273408, Note_on_c, 2, 77, 127
4, 277992, Note_on_c, 2, 74, 0
4, 277996, Note_on_c, 2, 77, 0
4, 277996, Note_on_c, 2, 67, 0
4, 278016, Note_on_c, 2, 72, 127
4, 278768, Note_on_c, 2, 72, 0
4, 278784, Note_on_c, 2, 74, 127
4, 279524, Note_on_c, 2, 74, 0
4, 279552, Note_on_c, 2, 67, 127
4, 279552, Note_on_c, 2, 74, 127
4, 279552, Note_on_c, 2, 77, 127
4, 290288, Note_on_c, 2, 74, 0
4, 290288, Note_on_c, 2, 67, 0
4, 290292, Note_on_c, 2, 77, 0
4, 290304, Note_on_c, 2, 72, 127
4, 291056, Note_on_c, 2, 72, 0
4, 291072, Note_on_c, 2, 74, 127
4, 291800, Note_on_c, 2, 74, 0
4, 291840, Note_on_c, 2, 67, 127
4, 291840, Note_on_c, 2, 74, 127
4, 291840, Note_on_c, 2, 77, 124
4, 296424, Note_on_c, 2, 67, 0
4, 296448, Note_on_c, 2, 79, 127
4, 297968, Note_on_c, 2, 79, 0
4, 297972, Note_on_c, 2, 77, 0
4, 297984, Note_on_c, 2, 67, 127
4, 297984, Note_on_c, 2, 77, 127
4, 302568, Note_on_c, 2, 74, 0
4, 302572, Note_on_c, 2, 77, 0
4, 302572, Note_on_c, 2, 67, 0
4, 302592, Note_on_c, 2, 72, 127
4, 303344, Note_on_c, 2, 72, 0
4, 303360, Note_on_c, 2, 74, 127
4, 304100, Note_on_c, 2, 74, 0
4, 304128, Note_on_c, 2, 67, 127
4, 304128, Note_on_c, 2, 74, 127
4, 304128, Note_on_c, 2, 77, 127
4, 314864, Note_on_c, 2, 74, 0
4, 314864, Note_on_c, 2, 67, 0
4, 314868, Note_on_c, 2, 77, 0
4, 314880, Note_on_c, 2, 72, 127
4, 315632, Note_on_c, 2, 72, 0
4, 315648, Note_on_c, 2, 74, 127
4, 316376, Note_on_c, 2, 74, 0
4, 316416, Note_on_c, 2, 67, 127
4, 316416, Note_on_c, 2, 74, 127
4, 316416, Note_on_c, 2, 77, 124
4, 321000, Note_on_c, 2, 67, 0
4, 321024, Note_on_c, 2, 79, 127
4, 322544, Note_on_c, 2, 79, 0
4, 322548, Note_on_c, 2, 77, 0
4, 322560, Note_on_c, 2, 67, 127
4, 322560, Note_on_c, 2, 77, 127
4, 327144, Note_on_c, 2, 74, 0
4, 327148, Note_on_c, 2, 77, 0
4, 327148, Note_on_c, 2, 67, 0
4, 327168, Note_on_c, 2, 72, 127
4, 327920, Note_on_c, 2, 72, 0
4, 327936, Note_on_c, 2, 74, 127
4, 328676, Note_on_c, 2, 74, 0
4, 328704, Note_on_c, 2, 67, 127
4, 328704, Note_on_c, 2, 74, 127
4, 328704, Note_on_c, 2, 77, 124
4, 333288, Note_on_c, 2, 67, 0
4, 333312, Note_on_c, 2, 79, 127
4, 334832, Note_on_c, 2, 79, 0
4, 334836, Note_on_c, 2, 77, 0
4, 334848, Note_on_c, 2, 67, 127
4, 334848, Note_on_c, 2, 77, 127
4, 339432, Note_on_c, 2, 74, 0
4, 339436, Note_on_c, 2, 77, 0
4, 339436, Note_on_c, 2, 67, 0
4, 339456, Note_on_c, 2, 72, 127
4, 340208, Note_on_c, 2, 72, 0
4, 340224, Note_on_c, 2, 74, 127
4, 340964, Note_on_c, 2, 74, 0
4, 340992, Note_on_c, 2, 67, 127
4, 340992, Note_on_c, 2, 74, 127
4, 340992, Note_on_c, 2, 77, 124
4, 345576, Note_on_c, 2, 67, 0
4, 345600, Note_on_c, 2, 79, 127
4, 347120, Note_on_c, 2, 79, 0
4, 347124, Note_on_c, 2, 77, 0
4, 347136, Note_on_c, 2, 67, 127
4, 347136, Note_on_c, 2, 77, 127
4, 351720, Note_on_c, 2, 74, 0
4, 351724, Note_on_c, 2, 77, 0
4, 351724, Note_on_c, 2, 67, 0
4, 351744, Note_on_c, 2, 72, 127
4, 352496, Note_on_c, 2, 72, 0
4, 352512, Note_on_c, 2, 74, 127
4, 353252, Note_on_c, 2, 74, 0
4, 353280, Note_on_c, 2, 67, 127
4, 353280, Note_on_c, 2, 74, 127
4, 353280, Note_on_c, 2, 77, 124
4, 357864, Note_on_c, 2, 67, 0
4, 357888, Note_on_c, 2, 79, 127
4, 359408, Note_on_c, 2, 79, 0
4, 359412, Note_on_c, 2, 77, 0
4, 359424, Note_on_c, 2, 67, 127
4, 359424, Note_on_c, 2, 77, 127
4, 364008, Note_on_c, 2, 74, 0
4, 364012, Note_on_c, 2, 77, 0
4, 364012, Note_on_c, 2, 67, 0
4, 364032, Note_on_c, 2, 72, 127
4, 364784, Note_on_c, 2, 72, 0
4, 364800, Note_on_c, 2, 74, 127
4, 365540, Note_on_c, 2, 74, 0
4, 365568, Note_on_c, 2, 67, 127
4, 365568, Note_on_c, 2, 74, 127
4, 365568, Note_on_c, 2, 77, 124
4, 370152, Note_on_c, 2, 67, 0
4, 370176, Note_on_c, 2, 79, 127
4, 371696, Note_on_c, 2, 79, 0
4, 371700, Note_on_c, 2, 77, 0
4, 371712, Note_on_c, 2, 67, 127
4, 371712, Note_on_c, 2, 77, 127
4, 376296, Note_on_c, 2, 74, 0
4, 376300, Note_on_c, 2, 77, 0
4, 376300, Note_on_c, 2, 67, 0
4, 376320, Note_on_c, 2, 72, 127
4, 377072, Note_on_c, 2, 72, 0
4, 377088, Note_on_c, 2, 74, 127
4, 377828, Note_on_c, 2, 74, 0
4, 377856, Note_on_c, 2, 67, 127
4, 377856, Note_on_c, 2, 74, 127
4, 377856, Note_on_c, 2, 77, 127
4, 388592, Note_on_c, 2, 74, 0
4, 388592, Note_on_c, 2, 67, 0
4, 388596, Note_on_c, 2, 77, 0
4, 388608, Note_on_c, 2, 72, 127
4, 389360, Note_on_c, 2, 72, 0
4, 389376, Note_on_c, 2, 74, 127
4, 390104, Note_on_c, 2, 74, 0
4, 390144, Note_on_c, 2, 67, 127
4, 390144, Note_on_c, 2, 74, 127
4, 390144, Note_on_c, 2, 77, 124
4, 394728, Note_on_c, 2, 67, 0
4, 394752, Note_on_c, 2, 79, 127
4, 396272, Note_on_c, 2, 79, 0
4, 396276, Note_on_c, 2, 77, 0
4, 396288, Note_on_c, 2, 67, 127
4, 396288, Note_on_c, 2, 77, 127
4, 400872, Note_on_c, 2, 74, 0
4, 400876, Note_on_c, 2, 77, 0
4, 400876, Note_on_c, 2, 67, 0
4, 400896, Note_on_c, 2, 72, 127
4, 401648, Note_on_c, 2, 72, 0
4, 401664, Note_on_c, 2, 74, 127
4, 402404, Note_on_c, 2, 74, 0
4, 402432, Note_on_c, 2, 67, 127
4, 402432, Note_on_c, 2, 74, 127
4, 402432, Note_on_c, 2, 77, 127
4, 402836, Control_c, 2, 7, 125
4, 402876, Control_c, 2, 7, 124
4, 403000, Control_c, 2, 7, 123
4, 403224, Control_c, 2, 7, 122
4, 403408, Control_c, 2, 7, 121
4, 403492, Control_c, 2, 7, 120
4, 403624, Control_c, 2, 7, 119
4, 403696, Control_c, 2, 7, 118
4, 403928, Control_c, 2, 7, 116
4, 403996, Control_c, 2, 7, 115
4, 404176, Control_c, 2, 7, 114
4, 404232, Control_c, 2, 7, 113
4, 404376, Control_c, 2, 7, 112
4, 404452, Control_c, 2, 7, 111
4, 404620, Control_c, 2, 7, 110
4, 404680, Control_c, 2, 7, 109
4, 404840, Control_c, 2, 7, 107
4, 404912, Control_c, 2, 7, 106
4, 405080, Control_c, 2, 7, 105
4, 405128, Control_c, 2, 7, 104
4, 405280, Control_c, 2, 7, 103
4, 405344, Control_c, 2, 7, 102
4, 405516, Control_c, 2, 7, 101
4, 405580, Control_c, 2, 7, 100
4, 405732, Control_c, 2, 7, 98
4, 405772, Control_c, 2, 7, 97
4, 405872, Control_c, 2, 7, 96
4, 405932, Control_c, 2, 7, 95
4, 406032, Control_c, 2, 7, 94
4, 406104, Control_c, 2, 7, 93
4, 406204, Control_c, 2, 7, 92
4, 406284, Control_c, 2, 7, 91
4, 406396, Control_c, 2, 7, 89
4, 406500, Control_c, 2, 7, 88
4, 406668, Control_c, 2, 7, 87
4, 406784, Control_c, 2, 7, 86
4, 406896, Control_c, 2, 7, 85
4, 406996, Control_c, 2, 7, 84
4, 407116, Control_c, 2, 7, 83
4, 407216, Control_c, 2, 7, 82
4, 407340, Control_c, 2, 7, 80
4, 407444, Control_c, 2, 7, 79
4, 407572, Control_c, 2, 7, 78
4, 407700, Control_c, 2, 7, 77
4, 407768, Control_c, 2, 7, 76
4, 407876, Control_c, 2, 7, 75
4, 408000, Control_c, 2, 7, 74
4, 408112, Control_c, 2, 7, 73
4, 408188, Control_c, 2, 7, 71
4, 408308, Control_c, 2, 7, 70
4, 408380, Control_c, 2, 7, 69
4, 408468, Control_c, 2, 7, 68
4, 408528, Control_c, 2, 7, 67
4, 408640, Control_c, 2, 7, 66
4, 408700, Control_c, 2, 7, 65
4, 408772, Control_c, 2, 7, 64
4, 408832, Control_c, 2, 7, 62
4, 408928, Control_c, 2, 7, 61
4, 408992, Control_c, 2, 7, 60
4, 409092, Control_c, 2, 7, 59
4, 409164, Control_c, 2, 7, 58
4, 409248, Control_c, 2, 7, 57
4, 409352, Control_c, 2, 7, 56
4, 409440, Control_c, 2, 7, 55
4, 409524, Control_c, 2, 7, 53
4, 409624, Control_c, 2, 7, 52
4, 409740, Control_c, 2, 7, 51
4, 409852, Control_c, 2, 7, 50
4, 409940, Control_c, 2, 7, 49
4, 410052, Control_c, 2, 7, 48
4, 410168, Control_c, 2, 7, 47
4, 410256, Control_c, 2, 7, 46
4, 410344, Control_c, 2, 7, 44
4, 410404, Control_c, 2, 7, 43
4, 410536, Control_c, 2, 7, 42
4, 410596, Control_c, 2, 7, 41
4, 410696, Control_c, 2, 7, 40
4, 410796, Control_c, 2, 7, 39
4, 410952, Control_c, 2, 7, 38
4, 411040, Control_c, 2, 7, 37
4, 411180, Control_c, 2, 7, 35
4, 411272, Control_c, 2, 7, 34
4, 411468, Control_c, 2, 7, 33
4, 411532, Control_c, 2, 7, 32
4, 411632, Note_on_c, 2, 74, 0
4, 411632, Note_on_c, 2, 67, 0
4, 411636, Note_on_c, 2, 77, 0
4, 411676, Control_c, 2, 7, 31
4, 411740, Control_c, 2, 7, 30
4, 411892, Control_c, 2, 7, 29
4, 411948, Control_c, 2, 7, 28
4, 412068, Control_c, 2, 7, 26
4, 412108, Control_c, 2, 7, 25
4, 412196, Control_c, 2, 7, 24
4, 412240, Control_c, 2, 7, 23
4, 412340, Control_c, 2, 7, 22
4, 412380, Control_c, 2, 7, 21
4, 412548, Control_c, 2, 7, 20
4, 412612, Control_c, 2, 7, 19
4, 412736, Control_c, 2, 7, 17
4, 412804, Control_c, 2, 7, 16
4, 412932, Control_c, 2, 7, 15
4, 412976, Control_c, 2, 7, 14
4, 413108, Control_c, 2, 7, 13
4, 413168, Control_c, 2, 7, 12
4, 413304, Control_c, 2, 7, 11
4, 413364, Control_c, 2, 7, 10
4, 413424, Control_c, 2, 7, 8
4, 413468, Control_c, 2, 7, 7
4, 413576, Control_c, 2, 7, 6
4, 413620, Control_c, 2, 7, 5
4, 413696, Control_c, 2, 7, 4
4, 413756, Control_c, 2, 7, 3
4, 413844, Control_c, 2, 7, 2
4, 413908, Control_c, 2, 7, 1
4, 414020, Control_c, 2, 7, 0
4, 414020, End_track
5, 0, Start_track
5, 0, MIDI_port, 0
5, 0, Title_t, "Brass"
5, 0, Program_c, 3, 62
5, 0, Control_c, 3, 7, 127
5, 0, Control_c, 3, 10, 54
5, 0, Control_c, 3, 0, 0
5, 212, Control_c, 3, 121, 127
5, 308, Control_c, 3, 0, 0
5, 308, Control_c, 3, 32, 0
5, 596, Control_c, 3, 91, 80
5, 692, Control_c, 3, 93, 25
5, 107520, Note_on_c, 3, 70, 127
5, 107572, Note_on_c, 3, 70, 0
5, 107616, Note_on_c, 3, 70, 127
5, 107664, Note_on_c, 3, 70, 0
5, 107708, Note_on_c, 3, 70, 127
5, 108060, Note_on_c, 3, 70, 0
5, 108092, Note_on_c, 3, 65, 127
5, 108252, Note_on_c, 3, 65, 0
5, 108284, Note_on_c, 3, 67, 127
5, 108380, Note_on_c, 3, 67, 0
5, 108384, Note_on_c, 3, 65, 127
5, 108472, Note_on_c, 3, 65, 0
5, 108476, Note_on_c, 3, 62, 119
5, 108592, Note_on_c, 3, 62, 0
5, 109048, Note_on_c, 3, 70, 127
5, 109240, Note_on_c, 3, 70, 0
5, 109240, Note_on_c, 3, 67, 127
5, 109376, Note_on_c, 3, 67, 0
5, 109432, Note_on_c, 3, 67, 127
5, 109620, Note_on_c, 3, 67, 0
5, 109624, Note_on_c, 3, 60, 127
5, 109800, Note_on_c, 3, 60, 0
5, 109820, Note_on_c, 3, 62, 127
5, 109968, Note_on_c, 3, 62, 0
5, 110012, Note_on_c, 3, 62, 121
5, 110156, Note_on_c, 3, 62, 0
5, 110780, Note_on_c, 3, 62, 127
5, 110928, Note_on_c, 3, 62, 0
5, 110972, Note_on_c, 3, 70, 127
5, 111148, Note_on_c, 3, 70, 0
5, 111164, Note_on_c, 3, 62, 127
5, 111348, Note_on_c, 3, 62, 0
5, 111352, Note_on_c, 3, 70, 127
5, 111476, Note_on_c, 3, 70, 0
5, 111544, Note_on_c, 3, 70, 127
5, 111668, Note_on_c, 3, 70, 0
5, 111736, Note_on_c, 3, 70, 127
5, 111924, Note_on_c, 3, 70, 0
5, 111932, Note_on_c, 3, 62, 127
5, 112072, Note_on_c, 3, 62, 0
5, 112120, Note_on_c, 3, 65, 127
5, 112500, Note_on_c, 3, 65, 0
5, 112504, Note_on_c, 3, 67, 127
5, 112804, Note_on_c, 3, 67, 0
5, 112896, Note_on_c, 3, 67, 127
5, 113084, Note_on_c, 3, 67, 0
5, 113084, Note_on_c, 3, 70, 125
5, 113356, Note_on_c, 3, 70, 0
5, 113856, Note_on_c, 3, 72, 127
5, 114016, Note_on_c, 3, 72, 0
5, 114040, Note_on_c, 3, 67, 127
5, 114392, Note_on_c, 3, 67, 0
5, 114432, Note_on_c, 3, 62, 118
5, 114596, Note_on_c, 3, 62, 0
5, 114620, Note_on_c, 3, 67, 122
5, 114704, Note_on_c, 3, 67, 0
5, 115004, Note_on_c, 3, 70, 127
5, 115328, Note_on_c, 3, 70, 0
5, 115392, Note_on_c, 3, 70, 127
5, 115520, Note_on_c, 3, 70, 0
5, 115580, Note_on_c, 3, 70, 127
5, 115748, Note_on_c, 3, 70, 0
5, 115768, Note_on_c, 3, 67, 127
5, 115936, Note_on_c, 3, 67, 0
5, 115960, Note_on_c, 3, 70, 127
5, 116084, Note_on_c, 3, 70, 0
5, 116160, Note_on_c, 3, 70, 127
5, 116308, Note_on_c, 3, 70, 0
5, 116732, Note_on_c, 3, 70, 127
5, 116824, Note_on_c, 3, 70, 0
5, 116924, Note_on_c, 3, 70, 127
5, 117232, Note_on_c, 3, 70, 0
5, 117308, Note_on_c, 3, 70, 127
5, 117408, Note_on_c, 3, 70, 0
5, 117500, Note_on_c, 3, 70, 127
5, 117660, Note_on_c, 3, 70, 0
5, 117692, Note_on_c, 3, 67, 127
5, 117780, Note_on_c, 3, 67, 0
5, 117888, Note_on_c, 3, 67, 127
5, 118012, Note_on_c, 3, 67, 0
5, 118076, Note_on_c, 3, 67, 127
5, 118240, Note_on_c, 3, 67, 0
5, 118264, Note_on_c, 3, 65, 127
5, 118644, Note_on_c, 3, 65, 0
5, 118648, Note_on_c, 3, 67, 127
5, 118784, Note_on_c, 3, 67, 0
5, 118840, Note_on_c, 3, 67, 127
5, 119332, Note_on_c, 3, 67, 0
5, 120188, Note_on_c, 3, 72, 127
5, 120280, Note_on_c, 3, 72, 0
5, 120288, Note_on_c, 3, 67, 127
5, 120536, Note_on_c, 3, 67, 0
5, 120572, Note_on_c, 3, 65, 127
5, 120760, Note_on_c, 3, 65, 0
5, 120760, Note_on_c, 3, 67, 118
5, 120908, Note_on_c, 3, 67, 0
5, 121148, Note_on_c, 3, 70, 127
5, 121428, Note_on_c, 3, 70, 0
5, 121528, Note_on_c, 3, 70, 127
5, 121656, Note_on_c, 3, 70, 0
5, 121724, Note_on_c, 3, 70, 127
5, 121876, Note_on_c, 3, 70, 0
5, 121916, Note_on_c, 3, 67, 127
5, 122084, Note_on_c, 3, 67, 0
5, 122112, Note_on_c, 3, 70, 127
5, 122248, Note_on_c, 3, 70, 0
5, 122296, Note_on_c, 3, 70, 127
5, 122428, Note_on_c, 3, 70, 0
5, 123256, Note_on_c, 3, 72, 127
5, 123340, Note_on_c, 3, 72, 0
5, 123352, Note_on_c, 3, 67, 127
5, 123424, Note_on_c, 3, 67, 0
5, 123448, Note_on_c, 3, 67, 127
5, 123540, Note_on_c, 3, 67, 0
5, 123548, Note_on_c, 3, 62, 127
5, 123660, Note_on_c, 3, 62, 0
5, 124028, Note_on_c, 3, 62, 127
5, 124372, Note_on_c, 3, 62, 0
5, 124408, Note_on_c, 3, 65, 127
5, 124788, Note_on_c, 3, 65, 0
5, 124800, Note_on_c, 3, 67, 127
5, 125172, Note_on_c, 3, 67, 0
5, 125176, Note_on_c, 3, 70, 127
5, 125616, Note_on_c, 3, 70, 0
5, 125944, Note_on_c, 3, 70, 127
5, 126092, Note_on_c, 3, 70, 0
5, 126140, Note_on_c, 3, 70, 127
5, 126256, Note_on_c, 3, 70, 0
5, 126328, Note_on_c, 3, 70, 127
5, 126444, Note_on_c, 3, 70, 0
5, 126528, Note_on_c, 3, 70, 127
5, 126652, Note_on_c, 3, 70, 0
5, 126716, Note_on_c, 3, 70, 127
5, 126840, Note_on_c, 3, 70, 0
5, 126912, Note_on_c, 3, 70, 127
5, 127036, Note_on_c, 3, 70, 0
5, 127096, Note_on_c, 3, 70, 127
5, 127200, Note_on_c, 3, 70, 0
5, 127292, Note_on_c, 3, 70, 127
5, 127420, Note_on_c, 3, 70, 0
5, 127680, Note_on_c, 3, 70, 127
5, 128016, Note_on_c, 3, 70, 0
5, 128060, Note_on_c, 3, 67, 127
5, 128236, Note_on_c, 3, 67, 0
5, 128248, Note_on_c, 3, 70, 127
5, 128412, Note_on_c, 3, 70, 0
5, 128444, Note_on_c, 3, 67, 127
5, 128704, Note_on_c, 3, 67, 0
5, 129792, Note_on_c, 3, 65, 127
5, 129952, Note_on_c, 3, 65, 0
5, 129976, Note_on_c, 3, 67, 127
5, 130124, Note_on_c, 3, 67, 0
5, 130168, Note_on_c, 3, 67, 127
5, 130336, Note_on_c, 3, 67, 0
5, 130360, Note_on_c, 3, 65, 127
5, 130532, Note_on_c, 3, 65, 0
5, 130552, Note_on_c, 3, 70, 127
5, 130744, Note_on_c, 3, 70, 0
5, 130748, Note_on_c, 3, 69, 127
5, 130936, Note_on_c, 3, 69, 0
5, 130944, Note_on_c, 3, 67, 127
5, 131128, Note_on_c, 3, 67, 0
5, 131132, Note_on_c, 3, 70, 127
5, 131496, Note_on_c, 3, 70, 0
5, 131512, Note_on_c, 3, 67, 127
5, 131892, Note_on_c, 3, 67, 0
5, 132288, Note_on_c, 3, 70, 127
5, 132388, Note_on_c, 3, 70, 0
5, 132472, Note_on_c, 3, 70, 127
5, 132596, Note_on_c, 3, 70, 0
5, 132664, Note_on_c, 3, 70, 127
5, 132800, Note_on_c, 3, 70, 0
5, 132864, Note_on_c, 3, 70, 127
5, 133208, Note_on_c, 3, 70, 0
5, 133240, Note_on_c, 3, 70, 127
5, 133588, Note_on_c, 3, 70, 0
5, 133624, Note_on_c, 3, 72, 127
5, 133816, Note_on_c, 3, 72, 0
5, 133824, Note_on_c, 3, 70, 127
5, 134012, Note_on_c, 3, 70, 0
5, 134012, Note_on_c, 3, 74, 127
5, 134392, Note_on_c, 3, 74, 0
5, 134392, Note_on_c, 3, 72, 127
5, 134584, Note_on_c, 3, 72, 0
5, 134588, Note_on_c, 3, 70, 127
5, 134708, Note_on_c, 3, 70, 0
5, 135544, Note_on_c, 3, 70, 127
5, 135720, Note_on_c, 3, 70, 0
5, 135740, Note_on_c, 3, 67, 127
5, 135912, Note_on_c, 3, 67, 0
5, 135936, Note_on_c, 3, 70, 127
5, 136080, Note_on_c, 3, 70, 0
5, 136128, Note_on_c, 3, 70, 127
5, 136296, Note_on_c, 3, 70, 0
5, 136312, Note_on_c, 3, 70, 127
5, 136480, Note_on_c, 3, 70, 0
5, 136508, Note_on_c, 3, 70, 127
5, 136628, Note_on_c, 3, 70, 0
5, 136704, Note_on_c, 3, 72, 127
5, 136884, Note_on_c, 3, 72, 0
5, 136888, Note_on_c, 3, 70, 127
5, 137076, Note_on_c, 3, 70, 0
5, 137084, Note_on_c, 3, 72, 127
5, 137272, Note_on_c, 3, 72, 0
5, 137276, Note_on_c, 3, 70, 127
5, 137460, Note_on_c, 3, 70, 0
5, 137464, Note_on_c, 3, 72, 127
5, 137652, Note_on_c, 3, 72, 0
5, 137656, Note_on_c, 3, 70, 127
5, 137840, Note_on_c, 3, 70, 0
5, 137848, Note_on_c, 3, 72, 127
5, 138024, Note_on_c, 3, 72, 0
5, 138044, Note_on_c, 3, 74, 127
5, 138200, Note_on_c, 3, 74, 0
5, 138428, Note_on_c, 3, 74, 127
5, 138616, Note_on_c, 3, 74, 0
5, 138620, Note_on_c, 3, 72, 127
5, 138804, Note_on_c, 3, 72, 0
5, 138808, Note_on_c, 3, 70, 127
5, 138996, Note_on_c, 3, 70, 0
5, 139000, Note_on_c, 3, 74, 127
5, 139372, Note_on_c, 3, 74, 0
5, 139388, Note_on_c, 3, 67, 127
5, 139648, Note_on_c, 3, 67, 0
5, 139960, Note_on_c, 3, 70, 127
5, 140096, Note_on_c, 3, 70, 0
5, 140160, Note_on_c, 3, 70, 127
5, 140328, Note_on_c, 3, 70, 0
5, 140348, Note_on_c, 3, 67, 127
5, 140536, Note_on_c, 3, 67, 0
5, 140536, Note_on_c, 3, 70, 127
5, 140708, Note_on_c, 3, 70, 0
5, 140732, Note_on_c, 3, 67, 127
5, 140876, Note_on_c, 3, 67, 0
5, 141496, Note_on_c, 3, 67, 127
5, 141608, Note_on_c, 3, 67, 0
5, 141696, Note_on_c, 3, 67, 127
5, 141820, Note_on_c, 3, 67, 0
5, 141888, Note_on_c, 3, 67, 127
5, 142004, Note_on_c, 3, 67, 0
5, 142076, Note_on_c, 3, 67, 127
5, 142360, Note_on_c, 3, 67, 0
5, 142456, Note_on_c, 3, 67, 127
5, 142776, Note_on_c, 3, 67, 0
5, 142840, Note_on_c, 3, 69, 127
5, 143180, Note_on_c, 3, 69, 0
5, 143228, Note_on_c, 3, 69, 127
5, 143556, Note_on_c, 3, 69, 0
5, 143616, Note_on_c, 3, 69, 127
5, 143936, Note_on_c, 3, 69, 0
5, 144000, Note_on_c, 3, 69, 127
5, 144328, Note_on_c, 3, 69, 0
5, 144384, Note_on_c, 3, 71, 127
5, 145056, Control_c, 3, 7, 126
5, 145108, Control_c, 3, 7, 125
5, 145200, Control_c, 3, 7, 124
5, 145256, Control_c, 3, 7, 123
5, 145292, Control_c, 3, 7, 122
5, 145328, Control_c, 3, 7, 121
5, 145384, Control_c, 3, 7, 120
5, 145436, Control_c, 3, 7, 119
5, 145476, Control_c, 3, 7, 118
5, 145528, Control_c, 3, 7, 117
5, 145568, Control_c, 3, 7, 116
5, 145604, Control_c, 3, 7, 115
5, 145656, Control_c, 3, 7, 113
5, 145732, Control_c, 3, 7, 111
5, 145768, Control_c, 3, 7, 109
5, 145804, Control_c, 3, 7, 107
5, 145840, Control_c, 3, 7, 105
5, 145896, Control_c, 3, 7, 103
5, 145932, Control_c, 3, 7, 101
5, 145968, Control_c, 3, 7, 99
5, 146004, Control_c, 3, 7, 98
5, 146040, Control_c, 3, 7, 96
5, 146076, Control_c, 3, 7, 94
5, 146116, Control_c, 3, 7, 91
5, 146152, Control_c, 3, 7, 89
5, 146188, Control_c, 3, 7, 86
5, 146224, Control_c, 3, 7, 84
5, 146260, Control_c, 3, 7, 82
5, 146296, Control_c, 3, 7, 80
5, 146332, Control_c, 3, 7, 78
5, 146372, Control_c, 3, 7, 75
5, 146408, Control_c, 3, 7, 72
5, 146460, Control_c, 3, 7, 69
5, 146500, Control_c, 3, 7, 67
5, 146536, Control_c, 3, 7, 64
5, 146572, Control_c, 3, 7, 62
5, 146608, Control_c, 3, 7, 60
5, 146612, Note_on_c, 3, 71, 0
5, 146644, Control_c, 3, 7, 58
5, 146680, Control_c, 3, 7, 56
5, 146736, Control_c, 3, 7, 53
5, 146772, Control_c, 3, 7, 52
5, 146808, Control_c, 3, 7, 51
5, 147064, Control_c, 3, 7, 58
5, 147100, Control_c, 3, 7, 72
5, 147136, Control_c, 3, 7, 90
5, 147176, Control_c, 3, 7, 110
5, 147212, Control_c, 3, 7, 127
5, 147640, Note_on_c, 3, 70, 127
5, 147716, Note_on_c, 3, 70, 0
5, 147832, Note_on_c, 3, 70, 127
5, 147960, Note_on_c, 3, 70, 0
5, 148024, Note_on_c, 3, 70, 127
5, 148116, Note_on_c, 3, 70, 0
5, 148220, Note_on_c, 3, 70, 127
5, 148352, Note_on_c, 3, 70, 0
5, 148416, Note_on_c, 3, 70, 127
5, 148528, Note_on_c, 3, 70, 0
5, 148600, Note_on_c, 3, 70, 127
5, 148732, Note_on_c, 3, 70, 0
5, 148800, Note_on_c, 3, 70, 127
5, 148904, Note_on_c, 3, 70, 0
5, 148984, Note_on_c, 3, 70, 127
5, 149104, Note_on_c, 3, 70, 0
5, 149184, Note_on_c, 3, 70, 127
5, 149288, Note_on_c, 3, 70, 0
5, 149368, Note_on_c, 3, 70, 127
5, 149488, Note_on_c, 3, 70, 0
5, 149560, Note_on_c, 3, 70, 127
5, 149660, Note_on_c, 3, 70, 0
5, 149752, Note_on_c, 3, 70, 127
5, 149884, Note_on_c, 3, 70, 0
5, 149948, Note_on_c, 3, 70, 127
5, 150060, Note_on_c, 3, 70, 0
5, 150140, Note_on_c, 3, 70, 127
5, 150276, Note_on_c, 3, 70, 0
5, 151100, Note_on_c, 3, 70, 127
5, 151272, Note_on_c, 3, 70, 0
5, 151288, Note_on_c, 3, 65, 127
5, 151476, Note_on_c, 3, 65, 0
5, 151480, Note_on_c, 3, 67, 127
5, 151636, Note_on_c, 3, 67, 0
5, 152060, Note_on_c, 3, 65, 127
5, 152248, Note_on_c, 3, 65, 0
5, 152252, Note_on_c, 3, 67, 127
5, 152632, Note_on_c, 3, 67, 0
5, 152636, Note_on_c, 3, 70, 127
5, 152812, Note_on_c, 3, 70, 0
5, 152824, Note_on_c, 3, 67, 127
5, 152960, Note_on_c, 3, 67, 0
5, 153788, Note_on_c, 3, 70, 127
5, 153924, Note_on_c, 3, 70, 0
5, 153980, Note_on_c, 3, 70, 127
5, 154116, Note_on_c, 3, 70, 0
5, 154176, Note_on_c, 3, 70, 127
5, 154300, Note_on_c, 3, 70, 0
5, 154360, Note_on_c, 3, 70, 127
5, 154484, Note_on_c, 3, 70, 0
5, 154560, Note_on_c, 3, 70, 127
5, 154676, Note_on_c, 3, 70, 0
5, 154748, Note_on_c, 3, 70, 127
5, 154872, Note_on_c, 3, 70, 0
5, 154944, Note_on_c, 3, 70, 127
5, 155064, Note_on_c, 3, 70, 0
5, 155128, Note_on_c, 3, 70, 127
5, 155252, Note_on_c, 3, 70, 0
5, 155320, Note_on_c, 3, 70, 127
5, 155428, Note_on_c, 3, 70, 0
5, 155512, Note_on_c, 3, 70, 127
5, 155624, Note_on_c, 3, 70, 0
5, 155708, Note_on_c, 3, 70, 127
5, 155832, Note_on_c, 3, 70, 0
5, 156088, Note_on_c, 3, 70, 127
5, 156276, Note_on_c, 3, 70, 0
5, 156280, Note_on_c, 3, 67, 127
5, 156440, Note_on_c, 3, 67, 0
5, 156476, Note_on_c, 3, 65, 123
5, 156612, Note_on_c, 3, 65, 0
5, 156860, Note_on_c, 3, 70, 127
5, 156996, Note_on_c, 3, 70, 0
5, 157052, Note_on_c, 3, 70, 127
5, 157188, Note_on_c, 3, 70, 0
5, 157240, Note_on_c, 3, 70, 127
5, 157364, Note_on_c, 3, 70, 0
5, 157436, Note_on_c, 3, 70, 127
5, 157572, Note_on_c, 3, 70, 0
5, 157628, Note_on_c, 3, 70, 127
5, 157752, Note_on_c, 3, 70, 0
5, 157816, Note_on_c, 3, 70, 127
5, 157992, Note_on_c, 3, 70, 0
5, 158008, Note_on_c, 3, 62, 127
5, 158136, Note_on_c, 3, 62, 0
5, 158200, Note_on_c, 3, 70, 127
5, 158392, Note_on_c, 3, 70, 0
5, 158396, Note_on_c, 3, 67, 127
5, 158580, Note_on_c, 3, 67, 0
5, 158584, Note_on_c, 3, 72, 127
5, 158772, Note_on_c, 3, 72, 0
5, 158780, Note_on_c, 3, 67, 127
5, 159284, Note_on_c, 3, 67, 0
5, 159936, Note_on_c, 3, 70, 127
5, 160036, Note_on_c, 3, 70, 0
5, 160120, Note_on_c, 3, 70, 127
5, 160244, Note_on_c, 3, 70, 0
5, 160312, Note_on_c, 3, 70, 127
5, 160448, Note_on_c, 3, 70, 0
5, 160512, Note_on_c, 3, 70, 127
5, 160856, Note_on_c, 3, 70, 0
5, 160888, Note_on_c, 3, 70, 127
5, 161236, Note_on_c, 3, 70, 0
5, 161272, Note_on_c, 3, 72, 127
5, 161464, Note_on_c, 3, 72, 0
5, 161472, Note_on_c, 3, 70, 127
5, 161660, Note_on_c, 3, 70, 0
5, 161660, Note_on_c, 3, 74, 127
5, 162040, Note_on_c, 3, 74, 0
5, 162040, Note_on_c, 3, 72, 127
5, 162232, Note_on_c, 3, 72, 0
5, 162236, Note_on_c, 3, 70, 127
5, 162356, Note_on_c, 3, 70, 0
5, 163192, Note_on_c, 3, 70, 127
5, 163368, Note_on_c, 3, 70, 0
5, 163388, Note_on_c, 3, 67, 127
5, 163560, Note_on_c, 3, 67, 0
5, 163584, Note_on_c, 3, 70, 127
5, 163728, Note_on_c, 3, 70, 0
5, 163776, Note_on_c, 3, 70, 127
5, 163944, Note_on_c, 3, 70, 0
5, 163960, Note_on_c, 3, 70, 127
5, 164128, Note_on_c, 3, 70, 0
5, 164156, Note_on_c, 3, 70, 127
5, 164276, Note_on_c, 3, 70, 0
5, 164352, Note_on_c, 3, 72, 127
5, 164532, Note_on_c, 3, 72, 0
5, 164536, Note_on_c, 3, 70, 127
5, 164724, Note_on_c, 3, 70, 0
5, 164732, Note_on_c, 3, 72, 127
5, 164920, Note_on_c, 3, 72, 0
5, 164924, Note_on_c, 3, 70, 127
5, 165108, Note_on_c, 3, 70, 0
5, 165112, Note_on_c, 3, 72, 127
5, 165300, Note_on_c, 3, 72, 0
5, 165304, Note_on_c, 3, 70, 127
5, 165488, Note_on_c, 3, 70, 0
5, 165496, Note_on_c, 3, 72, 127
5, 165672, Note_on_c, 3, 72, 0
5, 165692, Note_on_c, 3, 74, 127
5, 165848, Note_on_c, 3, 74, 0
5, 166076, Note_on_c, 3, 74, 127
5, 166264, Note_on_c, 3, 74, 0
5, 166268, Note_on_c, 3, 72, 127
5, 166452, Note_on_c, 3, 72, 0
5, 166456, Note_on_c, 3, 70, 127
5, 166644, Note_on_c, 3, 70, 0
5, 166648, Note_on_c, 3, 74, 127
5, 167020, Note_on_c, 3, 74, 0
5, 167036, Note_on_c, 3, 67, 127
5, 167296, Note_on_c, 3, 67, 0
5, 167608, Note_on_c, 3, 70, 127
5, 167744, Note_on_c, 3, 70, 0
5, 167808, Note_on_c, 3, 70, 127
5, 167976, Note_on_c, 3, 70, 0
5, 167996, Note_on_c, 3, 67, 127
5, 168184, Note_on_c, 3, 67, 0
5, 168184, Note_on_c, 3, 70, 127
5, 168356, Note_on_c, 3, 70, 0
5, 168380, Note_on_c, 3, 67, 127
5, 168524, Note_on_c, 3, 67, 0
5, 169144, Note_on_c, 3, 67, 127
5, 169256, Note_on_c, 3, 67, 0
5, 169344, Note_on_c, 3, 67, 127
5, 169468, Note_on_c, 3, 67, 0
5, 169536, Note_on_c, 3, 67, 127
5, 169652, Note_on_c, 3, 67, 0
5, 169724, Note_on_c, 3, 67, 127
5, 170008, Note_on_c, 3, 67, 0
5, 170104, Note_on_c, 3, 67, 127
5, 170424, Note_on_c, 3, 67, 0
5, 170488, Note_on_c, 3, 69, 127
5, 170828, Note_on_c, 3, 69, 0
5, 170876, Note_on_c, 3, 69, 127
5, 171204, Note_on_c, 3, 69, 0
5, 171264, Note_on_c, 3, 69, 127
5, 171584, Note_on_c, 3, 69, 0
5, 171648, Note_on_c, 3, 69, 127
5, 171976, Note_on_c, 3, 69, 0
5, 172032, Note_on_c, 3, 71, 127
5, 172704, Control_c, 3, 7, 126
5, 172756, Control_c, 3, 7, 125
5, 172848, Control_c, 3, 7, 124
5, 172904, Control_c, 3, 7, 123
5, 172940, Control_c, 3, 7, 122
5, 172976, Control_c, 3, 7, 121
5, 173032, Control_c, 3, 7, 120
5, 173084, Control_c, 3, 7, 119
5, 173124, Control_c, 3, 7, 118
5, 173176, Control_c, 3, 7, 117
5, 173216, Control_c, 3, 7, 116
5, 173252, Control_c, 3, 7, 115
5, 173304, Control_c, 3, 7, 113
5, 173380, Control_c, 3, 7, 111
5, 173416, Control_c, 3, 7, 109
5, 173452, Control_c, 3, 7, 107
5, 173488, Control_c, 3, 7, 105
5, 173544, Control_c, 3, 7, 103
5, 173580, Control_c, 3, 7, 101
5, 173616, Control_c, 3, 7, 99
5, 173652, Control_c, 3, 7, 98
5, 173688, Control_c, 3, 7, 96
5, 173724, Control_c, 3, 7, 94
5, 173764, Control_c, 3, 7, 91
5, 173800, Control_c, 3, 7, 89
5, 173836, Control_c, 3, 7, 86
5, 173872, Control_c, 3, 7, 84
5, 173908, Control_c, 3, 7, 82
5, 173944, Control_c, 3, 7, 80
5, 173980, Control_c, 3, 7, 78
5, 174020, Control_c, 3, 7, 75
5, 174056, Control_c, 3, 7, 72
5, 174108, Control_c, 3, 7, 69
5, 174148, Control_c, 3, 7, 67
5, 174184, Control_c, 3, 7, 64
5, 174220, Control_c, 3, 7, 62
5, 174256, Control_c, 3, 7, 60
5, 174260, Note_on_c, 3, 71, 0
5, 174292, Control_c, 3, 7, 58
5, 174328, Control_c, 3, 7, 56
5, 174384, Control_c, 3, 7, 53
5, 174420, Control_c, 3, 7, 52
5, 174456, Control_c, 3, 7, 51
5, 174712, Control_c, 3, 7, 58
5, 174748, Control_c, 3, 7, 72
5, 174784, Control_c, 3, 7, 90
5, 174824, Control_c, 3, 7, 110
5, 174860, Control_c, 3, 7, 127
5, 177400, Note_on_c, 3, 70, 127
5, 177568, Note_on_c, 3, 70, 0
5, 177596, Note_on_c, 3, 62, 127
5, 177752, Note_on_c, 3, 62, 0
5, 177788, Note_on_c, 3, 62, 127
5, 177940, Note_on_c, 3, 62, 0
5, 177984, Note_on_c, 3, 60, 127
5, 178128, Note_on_c, 3, 60, 0
5, 181248, Note_on_c, 3, 70, 127
5, 181408, Note_on_c, 3, 70, 0
5, 193724, Note_on_c, 3, 74, 127
5, 193912, Note_on_c, 3, 74, 0
5, 193916, Note_on_c, 3, 72, 127
5, 194100, Note_on_c, 3, 72, 0
5, 194104, Note_on_c, 3, 70, 127
5, 194292, Note_on_c, 3, 70, 0
5, 194296, Note_on_c, 3, 74, 127
5, 194668, Note_on_c, 3, 74, 0
5, 194684, Note_on_c, 3, 67, 127
5, 194944, Note_on_c, 3, 67, 0
5, 195256, Note_on_c, 3, 70, 127
5, 195392, Note_on_c, 3, 70, 0
5, 195456, Note_on_c, 3, 70, 127
5, 195624, Note_on_c, 3, 70, 0
5, 195644, Note_on_c, 3, 67, 127
5, 195832, Note_on_c, 3, 67, 0
5, 195832, Note_on_c, 3, 70, 127
5, 196004, Note_on_c, 3, 70, 0
5, 196028, Note_on_c, 3, 67, 127
5, 196172, Note_on_c, 3, 67, 0
5, 201404, Note_on_c, 3, 64, 127
5, 201468, Note_on_c, 3, 64, 0
5, 201500, Note_on_c, 3, 64, 127
5, 201572, Note_on_c, 3, 64, 0
5, 201592, Note_on_c, 3, 64, 127
5, 201900, Note_on_c, 3, 64, 0
5, 201976, Note_on_c, 3, 64, 127
5, 202052, Note_on_c, 3, 64, 0
5, 202072, Note_on_c, 3, 64, 127
5, 202168, Note_on_c, 3, 64, 0
5, 202944, Note_on_c, 3, 67, 127
5, 203084, Note_on_c, 3, 67, 0
5, 203132, Note_on_c, 3, 70, 127
5, 203284, Note_on_c, 3, 70, 0
5, 203324, Note_on_c, 3, 67, 127
5, 203492, Note_on_c, 3, 67, 0
5, 203512, Note_on_c, 3, 70, 127
5, 203676, Note_on_c, 3, 70, 0
5, 203708, Note_on_c, 3, 70, 127
5, 203848, Note_on_c, 3, 70, 0
5, 204092, Note_on_c, 3, 70, 127
5, 204460, Note_on_c, 3, 70, 0
5, 204472, Note_on_c, 3, 67, 127
5, 204644, Note_on_c, 3, 67, 0
5, 204668, Note_on_c, 3, 70, 127
5, 204852, Note_on_c, 3, 70, 0
5, 204860, Note_on_c, 3, 62, 127
5, 205416, Note_on_c, 3, 62, 0
5, 206016, Note_on_c, 3, 67, 127
5, 206176, Note_on_c, 3, 67, 0
5, 206200, Note_on_c, 3, 70, 127
5, 206280, Note_on_c, 3, 70, 0
5, 206296, Note_on_c, 3, 62, 127
5, 206368, Note_on_c, 3, 62, 0
5, 206392, Note_on_c, 3, 62, 127
5, 206544, Note_on_c, 3, 62, 0
5, 206584, Note_on_c, 3, 62, 127
5, 206996, Note_on_c, 3, 62, 0
5, 207164, Note_on_c, 3, 62, 127
5, 207332, Note_on_c, 3, 62, 0
5, 207360, Note_on_c, 3, 65, 127
5, 207708, Note_on_c, 3, 65, 0
5, 207744, Note_on_c, 3, 67, 127
5, 208084, Note_on_c, 3, 67, 0
5, 208120, Note_on_c, 3, 67, 127
5, 208500, Note_on_c, 3, 67, 0
5, 208504, Note_on_c, 3, 70, 125
5, 208768, Note_on_c, 3, 70, 0
5, 208988, Note_on_c, 3, 62, 127
5, 209036, Note_on_c, 3, 62, 0
5, 209088, Note_on_c, 3, 62, 127
5, 209212, Note_on_c, 3, 62, 0
5, 209272, Note_on_c, 3, 62, 127
5, 209404, Note_on_c, 3, 62, 0
5, 209464, Note_on_c, 3, 62, 127
5, 209600, Note_on_c, 3, 62, 0
5, 209660, Note_on_c, 3, 62, 127
5, 209792, Note_on_c, 3, 62, 0
5, 209856, Note_on_c, 3, 62, 127
5, 210128, Note_on_c, 3, 62, 0
5, 210424, Note_on_c, 3, 70, 127
5, 210572, Note_on_c, 3, 70, 0
5, 210620, Note_on_c, 3, 70, 127
5, 210776, Note_on_c, 3, 70, 0
5, 210808, Note_on_c, 3, 70, 127
5, 210976, Note_on_c, 3, 70, 0
5, 211008, Note_on_c, 3, 67, 127
5, 211152, Note_on_c, 3, 67, 0
5, 211192, Note_on_c, 3, 70, 127
5, 211352, Note_on_c, 3, 70, 0
5, 211384, Note_on_c, 3, 65, 127
5, 211532, Note_on_c, 3, 65, 0
5, 211580, Note_on_c, 3, 65, 127
5, 211748, Note_on_c, 3, 65, 0
5, 211768, Note_on_c, 3, 67, 127
5, 211900, Note_on_c, 3, 67, 0
5, 211960, Note_on_c, 3, 69, 127
5, 212596, Note_on_c, 3, 69, 0
5, 213116, Note_on_c, 3, 65, 118
5, 213292, Note_on_c, 3, 65, 0
5, 213304, Note_on_c, 3, 62, 114
5, 213920, Note_on_c, 3, 62, 0
5, 215036, Note_on_c, 3, 70, 127
5, 215204, Note_on_c, 3, 70, 0
5, 215224, Note_on_c, 3, 67, 127
5, 215324, Note_on_c, 3, 67, 0
5, 215416, Note_on_c, 3, 67, 127
5, 215740, Note_on_c, 3, 67, 0
5, 216000, Note_on_c, 3, 70, 127
5, 216164, Note_on_c, 3, 70, 0
5, 216188, Note_on_c, 3, 67, 127
5, 216304, Note_on_c, 3, 67, 0
5, 216760, Note_on_c, 3, 70, 127
5, 216912, Note_on_c, 3, 70, 0
5, 216960, Note_on_c, 3, 67, 127
5, 217104, Note_on_c, 3, 67, 0
5, 217148, Note_on_c, 3, 67, 127
5, 217312, Note_on_c, 3, 67, 0
5, 217340, Note_on_c, 3, 67, 127
5, 217500, Note_on_c, 3, 67, 0
5, 217536, Note_on_c, 3, 70, 127
5, 217664, Note_on_c, 3, 70, 0
5, 218492, Note_on_c, 3, 70, 127
5, 218604, Note_on_c, 3, 70, 0
5, 218684, Note_on_c, 3, 70, 127
5, 218804, Note_on_c, 3, 70, 0
5, 218872, Note_on_c, 3, 70, 127
5, 218972, Note_on_c, 3, 70, 0
5, 219068, Note_on_c, 3, 70, 127
5, 219172, Note_on_c, 3, 70, 0
5, 219256, Note_on_c, 3, 70, 127
5, 219396, Note_on_c, 3, 70, 0
5, 219456, Note_on_c, 3, 62, 127
5, 219624, Note_on_c, 3, 62, 0
5, 219644, Note_on_c, 3, 65, 127
5, 220004, Note_on_c, 3, 65, 0
5, 220024, Note_on_c, 3, 67, 127
5, 220356, Note_on_c, 3, 67, 0
5, 220800, Note_on_c, 3, 70, 127
5, 220920, Note_on_c, 3, 70, 0
5, 220984, Note_on_c, 3, 70, 127
5, 221096, Note_on_c, 3, 70, 0
5, 221184, Note_on_c, 3, 70, 127
5, 221284, Note_on_c, 3, 70, 0
5, 221376, Note_on_c, 3, 70, 127
5, 221520, Note_on_c, 3, 70, 0
5, 221560, Note_on_c, 3, 70, 127
5, 221748, Note_on_c, 3, 70, 0
5, 221752, Note_on_c, 3, 65, 127
5, 221928, Note_on_c, 3, 65, 0
5, 221952, Note_on_c, 3, 67, 127
5, 222092, Note_on_c, 3, 67, 0
5, 222520, Note_on_c, 3, 70, 127
5, 222860, Note_on_c, 3, 70, 0
5, 222904, Note_on_c, 3, 67, 127
5, 223036, Note_on_c, 3, 67, 0
5, 223096, Note_on_c, 3, 67, 127
5, 223264, Note_on_c, 3, 67, 0
5, 223292, Note_on_c, 3, 62, 127
5, 223416, Note_on_c, 3, 62, 0
5, 223480, Note_on_c, 3, 65, 127
5, 223644, Note_on_c, 3, 65, 0
5, 223676, Note_on_c, 3, 67, 127
5, 223816, Note_on_c, 3, 67, 0
5, 224440, Note_on_c, 3, 70, 127
5, 224608, Note_on_c, 3, 70, 0
5, 224632, Note_on_c, 3, 67, 127
5, 224796, Note_on_c, 3, 67, 0
5, 224828, Note_on_c, 3, 62, 127
5, 225016, Note_on_c, 3, 62, 0
5, 225016, Note_on_c, 3, 67, 127
5, 225196, Note_on_c, 3, 67, 0
5, 225208, Note_on_c, 3, 62, 127
5, 225344, Note_on_c, 3, 62, 0
5, 225400, Note_on_c, 3, 62, 127
5, 225548, Note_on_c, 3, 62, 0
5, 225592, Note_on_c, 3, 62, 127
5, 225752, Note_on_c, 3, 62, 0
5, 225784, Note_on_c, 3, 65, 127
5, 226140, Note_on_c, 3, 65, 0
5, 226172, Note_on_c, 3, 67, 127
5, 226300, Note_on_c, 3, 67, 0
5, 226364, Note_on_c, 3, 67, 127
5, 226860, Note_on_c, 3, 67, 0
5, 227520, Note_on_c, 3, 70, 127
5, 227620, Note_on_c, 3, 70, 0
5, 227704, Note_on_c, 3, 70, 127
5, 227828, Note_on_c, 3, 70, 0
5, 227896, Note_on_c, 3, 70, 127
5, 228032, Note_on_c, 3, 70, 0
5, 228096, Note_on_c, 3, 70, 127
5, 228440, Note_on_c, 3, 70, 0
5, 228472, Note_on_c, 3, 70, 127
5, 228820, Note_on_c, 3, 70, 0
5, 228856, Note_on_c, 3, 72, 127
5, 229048, Note_on_c, 3, 72, 0
5, 229056, Note_on_c, 3, 70, 127
5, 229244, Note_on_c, 3, 70, 0
5, 229244, Note_on_c, 3, 74, 127
5, 229624, Note_on_c, 3, 74, 0
5, 229624, Note_on_c, 3, 72, 127
5, 229816, Note_on_c, 3, 72, 0
5, 229820, Note_on_c, 3, 70, 127
5, 229940, Note_on_c, 3, 70, 0
5, 230776, Note_on_c, 3, 70, 127
5, 230952, Note_on_c, 3, 70, 0
5, 230972, Note_on_c, 3, 67, 127
5, 231144, Note_on_c, 3, 67, 0
5, 231168, Note_on_c, 3, 70, 127
5, 231312, Note_on_c, 3, 70, 0
5, 231360, Note_on_c, 3, 70, 127
5, 231528, Note_on_c, 3, 70, 0
5, 231544, Note_on_c, 3, 70, 127
5, 231712, Note_on_c, 3, 70, 0
5, 231740, Note_on_c, 3, 70, 127
5, 231860, Note_on_c, 3, 70, 0
5, 231936, Note_on_c, 3, 72, 127
5, 232116, Note_on_c, 3, 72, 0
5, 232120, Note_on_c, 3, 70, 127
5, 232308, Note_on_c, 3, 70, 0
5, 232316, Note_on_c, 3, 72, 127
5, 232504, Note_on_c, 3, 72, 0
5, 232508, Note_on_c, 3, 70, 127
5, 232692, Note_on_c, 3, 70, 0
5, 232696, Note_on_c, 3, 72, 127
5, 232884, Note_on_c, 3, 72, 0
5, 232888, Note_on_c, 3, 70, 127
5, 233072, Note_on_c, 3, 70, 0
5, 233080, Note_on_c, 3, 72, 127
5, 233256, Note_on_c, 3, 72, 0
5, 233276, Note_on_c, 3, 74, 127
5, 233432, Note_on_c, 3, 74, 0
5, 233660, Note_on_c, 3, 74, 127
5, 233848, Note_on_c, 3, 74, 0
5, 233852, Note_on_c, 3, 72, 127
5, 234036, Note_on_c, 3, 72, 0
5, 234040, Note_on_c, 3, 70, 127
5, 234228, Note_on_c, 3, 70, 0
5, 234232, Note_on_c, 3, 74, 127
5, 234604, Note_on_c, 3, 74, 0
5, 234620, Note_on_c, 3, 67, 127
5, 234880, Note_on_c, 3, 67, 0
5, 235192, Note_on_c, 3, 70, 127
5, 235328, Note_on_c, 3, 70, 0
5, 235392, Note_on_c, 3, 70, 127
5, 235560, Note_on_c, 3, 70, 0
5, 235580, Note_on_c, 3, 67, 127
5, 235768, Note_on_c, 3, 67, 0
5, 235768, Note_on_c, 3, 70, 127
5, 235940, Note_on_c, 3, 70, 0
5, 235964, Note_on_c, 3, 67, 127
5, 236108, Note_on_c, 3, 67, 0
5, 236728, Note_on_c, 3, 67, 127
5, 236840, Note_on_c, 3, 67, 0
5, 236928, Note_on_c, 3, 67, 127
5, 237052, Note_on_c, 3, 67, 0
5, 237120, Note_on_c, 3, 67, 127
5, 237236, Note_on_c, 3, 67, 0
5, 237308, Note_on_c, 3, 67, 127
5, 237592, Note_on_c, 3, 67, 0
5, 237688, Note_on_c, 3, 67, 127
5, 238008, Note_on_c, 3, 67, 0
5, 238072, Note_on_c, 3, 69, 127
5, 238412, Note_on_c, 3, 69, 0
5, 238460, Note_on_c, 3, 69, 127
5, 238788, Note_on_c, 3, 69, 0
5, 238848, Note_on_c, 3, 69, 127
5, 239168, Note_on_c, 3, 69, 0
5, 239232, Note_on_c, 3, 69, 127
5, 239560, Note_on_c, 3, 69, 0
5, 239616, Note_on_c, 3, 71, 127
5, 240288, Control_c, 3, 7, 126
5, 240340, Control_c, 3, 7, 125
5, 240432, Control_c, 3, 7, 124
5, 240488, Control_c, 3, 7, 123
5, 240524, Control_c, 3, 7, 122
5, 240560, Control_c, 3, 7, 121
5, 240616, Control_c, 3, 7, 120
5, 240668, Control_c, 3, 7, 119
5, 240708, Control_c, 3, 7, 118
5, 240760, Control_c, 3, 7, 117
5, 240800, Control_c, 3, 7, 116
5, 240836, Control_c, 3, 7, 115
5, 240888, Control_c, 3, 7, 113
5, 240964, Control_c, 3, 7, 111
5, 241000, Control_c, 3, 7, 109
5, 241036, Control_c, 3, 7, 107
5, 241072, Control_c, 3, 7, 105
5, 241128, Control_c, 3, 7, 103
5, 241164, Control_c, 3, 7, 101
5, 241200, Control_c, 3, 7, 99
5, 241236, Control_c, 3, 7, 98
5, 241272, Control_c, 3, 7, 96
5, 241308, Control_c, 3, 7, 94
5, 241348, Control_c, 3, 7, 91
5, 241384, Control_c, 3, 7, 89
5, 241420, Control_c, 3, 7, 86
5, 241456, Control_c, 3, 7, 84
5, 241492, Control_c, 3, 7, 82
5, 241528, Control_c, 3, 7, 80
5, 241564, Control_c, 3, 7, 78
5, 241604, Control_c, 3, 7, 75
5, 241640, Control_c, 3, 7, 72
5, 241692, Control_c, 3, 7, 69
5, 241732, Control_c, 3, 7, 67
5, 241768, Control_c, 3, 7, 64
5, 241804, Control_c, 3, 7, 62
5, 241840, Control_c, 3, 7, 60
5, 241844, Note_on_c, 3, 71, 0
5, 241876, Control_c, 3, 7, 58
5, 241912, Control_c, 3, 7, 56
5, 241968, Control_c, 3, 7, 53
5, 242004, Control_c, 3, 7, 52
5, 242040, Control_c, 3, 7, 51
5, 242296, Control_c, 3, 7, 58
5, 242332, Control_c, 3, 7, 72
5, 242368, Control_c, 3, 7, 90
5, 242408, Control_c, 3, 7, 110
5, 242444, Control_c, 3, 7, 127
5, 253816, Note_on_c, 3, 67, 127
5, 253892, Note_on_c, 3, 67, 0
5, 253912, Note_on_c, 3, 62, 127
5, 253988, Note_on_c, 3, 62, 0
5, 254012, Note_on_c, 3, 62, 127
5, 254280, Note_on_c, 3, 62, 0
5, 254588, Note_on_c, 3, 65, 127
5, 254672, Note_on_c, 3, 65, 0
5, 254684, Note_on_c, 3, 67, 127
5, 254756, Note_on_c, 3, 67, 0
5, 254776, Note_on_c, 3, 67, 127
5, 254956, Note_on_c, 3, 67, 0
5, 255352, Note_on_c, 3, 67, 127
5, 255424, Note_on_c, 3, 67, 0
5, 255452, Note_on_c, 3, 62, 127
5, 255528, Note_on_c, 3, 62, 0
5, 255544, Note_on_c, 3, 62, 127
5, 255788, Note_on_c, 3, 62, 0
5, 256508, Note_on_c, 3, 67, 127
5, 256592, Note_on_c, 3, 67, 0
5, 256600, Note_on_c, 3, 62, 127
5, 256676, Note_on_c, 3, 62, 0
5, 256700, Note_on_c, 3, 62, 127
5, 256852, Note_on_c, 3, 62, 0
5, 256888, Note_on_c, 3, 62, 127
5, 257032, Note_on_c, 3, 62, 0
5, 257084, Note_on_c, 3, 62, 127
5, 257216, Note_on_c, 3, 62, 0
5, 258232, Note_on_c, 3, 62, 127
5, 258388, Note_on_c, 3, 62, 0
5, 258432, Note_on_c, 3, 65, 127
5, 258584, Note_on_c, 3, 65, 0
5, 258616, Note_on_c, 3, 62, 127
5, 258784, Note_on_c, 3, 62, 0
5, 258812, Note_on_c, 3, 65, 127
5, 258884, Note_on_c, 3, 65, 0
5, 258912, Note_on_c, 3, 65, 127
5, 259040, Note_on_c, 3, 65, 0
5, 259096, Note_on_c, 3, 65, 127
5, 259364, Note_on_c, 3, 65, 0
5, 259388, Note_on_c, 3, 62, 127
5, 259564, Note_on_c, 3, 62, 0
5, 259580, Note_on_c, 3, 65, 127
5, 259908, Note_on_c, 3, 65, 0
5, 259960, Note_on_c, 3, 65, 127
5, 260312, Note_on_c, 3, 65, 0
5, 260348, Note_on_c, 3, 62, 127
5, 260636, Note_on_c, 3, 62, 0
5, 261116, Note_on_c, 3, 70, 127
5, 261172, Note_on_c, 3, 70, 0
5, 261208, Note_on_c, 3, 70, 127
5, 261836, Note_on_c, 3, 70, 0
5, 261880, Note_on_c, 3, 65, 127
5, 262068, Note_on_c, 3, 65, 0
5, 262076, Note_on_c, 3, 67, 126
5, 262188, Note_on_c, 3, 67, 0
5, 262456, Note_on_c, 3, 70, 127
5, 262756, Note_on_c, 3, 70, 0
5, 262840, Note_on_c, 3, 70, 127
5, 262944, Note_on_c, 3, 70, 0
5, 263032, Note_on_c, 3, 70, 127
5, 263180, Note_on_c, 3, 70, 0
5, 263232, Note_on_c, 3, 67, 127
5, 263400, Note_on_c, 3, 67, 0
5, 263424, Note_on_c, 3, 70, 127
5, 263604, Note_on_c, 3, 70, 0
5, 263608, Note_on_c, 3, 67, 127
5, 263756, Note_on_c, 3, 67, 0
5, 264184, Note_on_c, 3, 70, 127
5, 264324, Note_on_c, 3, 70, 0
5, 264376, Note_on_c, 3, 70, 127
5, 264516, Note_on_c, 3, 70, 0
5, 264568, Note_on_c, 3, 70, 127
5, 264692, Note_on_c, 3, 70, 0
5, 264768, Note_on_c, 3, 67, 127
5, 264912, Note_on_c, 3, 67, 0
5, 264956, Note_on_c, 3, 70, 127
5, 265124, Note_on_c, 3, 70, 0
5, 265144, Note_on_c, 3, 67, 127
5, 265308, Note_on_c, 3, 67, 0
5, 265336, Note_on_c, 3, 67, 127
5, 265492, Note_on_c, 3, 67, 0
5, 265528, Note_on_c, 3, 67, 127
5, 265700, Note_on_c, 3, 67, 0
5, 265728, Note_on_c, 3, 65, 127
5, 265904, Note_on_c, 3, 65, 0
5, 266104, Note_on_c, 3, 62, 127
5, 266256, Note_on_c, 3, 62, 0
5, 266304, Note_on_c, 3, 62, 127
5, 267040, Note_on_c, 3, 62, 0
5, 267456, Note_on_c, 3, 65, 127
5, 267576, Note_on_c, 3, 65, 0
5, 267640, Note_on_c, 3, 65, 127
5, 267812, Note_on_c, 3, 65, 0
5, 267832, Note_on_c, 3, 62, 127
5, 268012, Note_on_c, 3, 62, 0
5, 268032, Note_on_c, 3, 65, 127
5, 268216, Note_on_c, 3, 65, 0
5, 268220, Note_on_c, 3, 62, 127
5, 268372, Note_on_c, 3, 62, 0
5, 270336, Note_on_c, 3, 65, 127
5, 270644, Note_on_c, 3, 65, 0
5, 270720, Note_on_c, 3, 67, 127
5, 270836, Note_on_c, 3, 67, 0
5, 270908, Note_on_c, 3, 67, 127
5, 271440, Note_on_c, 3, 67, 0
5, 273408, Note_on_c, 3, 70, 127
5, 273520, Note_on_c, 3, 70, 0
5, 273592, Note_on_c, 3, 70, 127
5, 273960, Note_on_c, 3, 70, 0
5, 273976, Note_on_c, 3, 67, 127
5, 274116, Note_on_c, 3, 67, 0
5, 274172, Note_on_c, 3, 67, 127
5, 274288, Note_on_c, 3, 67, 0
5, 274364, Note_on_c, 3, 67, 127
5, 274492, Note_on_c, 3, 67, 0
5, 276472, Note_on_c, 3, 69, 127
5, 276812, Note_on_c, 3, 69, 0
5, 276856, Note_on_c, 3, 65, 127
5, 277044, Note_on_c, 3, 65, 0
5, 277048, Note_on_c, 3, 62, 119
5, 277588, Note_on_c, 3, 62, 0
5, 279744, Note_on_c, 3, 65, 127
5, 279864, Note_on_c, 3, 65, 0
5, 279932, Note_on_c, 3, 65, 127
5, 280104, Note_on_c, 3, 65, 0
5, 280124, Note_on_c, 3, 62, 127
5, 280308, Note_on_c, 3, 62, 0
5, 280316, Note_on_c, 3, 65, 127
5, 280500, Note_on_c, 3, 65, 0
5, 280504, Note_on_c, 3, 62, 127
5, 280660, Note_on_c, 3, 62, 0
5, 282616, Note_on_c, 3, 65, 127
5, 282924, Note_on_c, 3, 65, 0
5, 283000, Note_on_c, 3, 67, 127
5, 283116, Note_on_c, 3, 67, 0
5, 283196, Note_on_c, 3, 67, 127
5, 283728, Note_on_c, 3, 67, 0
5, 285696, Note_on_c, 3, 70, 127
5, 285824, Note_on_c, 3, 70, 0
5, 285888, Note_on_c, 3, 70, 127
5, 286188, Note_on_c, 3, 70, 0
5, 286264, Note_on_c, 3, 70, 127
5, 286432, Note_on_c, 3, 70, 0
5, 286456, Note_on_c, 3, 69, 127
5, 286648, Note_on_c, 3, 69, 0
5, 286652, Note_on_c, 3, 67, 127
5, 286796, Note_on_c, 3, 67, 0
5, 288768, Note_on_c, 3, 70, 127
5, 288944, Note_on_c, 3, 70, 0
5, 289144, Note_on_c, 3, 67, 127
5, 289280, Note_on_c, 3, 67, 0
5, 289336, Note_on_c, 3, 67, 127
5, 289884, Note_on_c, 3, 67, 0
5, 292032, Note_on_c, 3, 65, 127
5, 292152, Note_on_c, 3, 65, 0
5, 292220, Note_on_c, 3, 65, 127
5, 292392, Note_on_c, 3, 65, 0
5, 292408, Note_on_c, 3, 62, 127
5, 292588, Note_on_c, 3, 62, 0
5, 292608, Note_on_c, 3, 65, 127
5, 292792, Note_on_c, 3, 65, 0
5, 292800, Note_on_c, 3, 62, 127
5, 292952, Note_on_c, 3, 62, 0
5, 294904, Note_on_c, 3, 65, 127
5, 295212, Note_on_c, 3, 65, 0
5, 295288, Note_on_c, 3, 67, 127
5, 295404, Note_on_c, 3, 67, 0
5, 295480, Note_on_c, 3, 67, 127
5, 296012, Note_on_c, 3, 67, 0
5, 297980, Note_on_c, 3, 70, 127
5, 298092, Note_on_c, 3, 70, 0
5, 298172, Note_on_c, 3, 70, 127
5, 298544, Note_on_c, 3, 70, 0
5, 298560, Note_on_c, 3, 67, 127
5, 298700, Note_on_c, 3, 67, 0
5, 298744, Note_on_c, 3, 67, 127
5, 298860, Note_on_c, 3, 67, 0
5, 298944, Note_on_c, 3, 67, 127
5, 299068, Note_on_c, 3, 67, 0
5, 301052, Note_on_c, 3, 69, 127
5, 301392, Note_on_c, 3, 69, 0
5, 301432, Note_on_c, 3, 65, 127
5, 301620, Note_on_c, 3, 65, 0
5, 301628, Note_on_c, 3, 62, 119
5, 302172, Note_on_c, 3, 62, 0
5, 314876, Note_on_c, 3, 70, 127
5, 314948, Note_on_c, 3, 70, 0
5, 314976, Note_on_c, 3, 67, 127
5, 315048, Note_on_c, 3, 67, 0
5, 315068, Note_on_c, 3, 67, 127
5, 315240, Note_on_c, 3, 67, 0
5, 315448, Note_on_c, 3, 70, 127
5, 315524, Note_on_c, 3, 70, 0
5, 315544, Note_on_c, 3, 67, 127
5, 315608, Note_on_c, 3, 67, 0
5, 315640, Note_on_c, 3, 67, 127
5, 315904, Note_on_c, 3, 67, 0
5, 315904, End_track
6, 0, Start_track
6, 0, MIDI_port, 0
6, 0, Title_t, "Choir"
6, 0, Program_c, 4, 35
6, 0, Control_c, 4, 7, 127
6, 0, Control_c, 4, 10, 74
6, 0, Control_c, 4, 0, 0
6, 216, Control_c, 4, 121, 127
6, 312, Control_c, 4, 0, 0
6, 312, Control_c, 4, 32, 0
6, 600, Control_c, 4, 91, 90
6, 5124, Control_c, 4, 93, 0
6, 5124, Note_on_c, 4, 82, 102
6, 5820, Note_on_c, 4, 81, 113
6, 5828, Note_on_c, 4, 82, 0
6, 6496, Note_on_c, 4, 81, 0
6, 6520, Note_on_c, 4, 77, 117
6, 7268, Control_c, 4, 7, 125
6, 7304, Control_c, 4, 7, 124
6, 7340, Control_c, 4, 7, 123
6, 7380, Control_c, 4, 7, 122
6, 7432, Control_c, 4, 7, 121
6, 7472, Control_c, 4, 7, 120
6, 7524, Control_c, 4, 7, 119
6, 7560, Control_c, 4, 7, 118
6, 7616, Control_c, 4, 7, 117
6, 7672, Control_c, 4, 7, 116
6, 7708, Control_c, 4, 7, 115
6, 7780, Control_c, 4, 7, 113
6, 7816, Control_c, 4, 7, 112
6, 7852, Control_c, 4, 7, 111
6, 7908, Control_c, 4, 7, 109
6, 7944, Control_c, 4, 7, 108
6, 7980, Control_c, 4, 7, 106
6, 8016, Control_c, 4, 7, 104
6, 8072, Control_c, 4, 7, 102
6, 8108, Control_c, 4, 7, 100
6, 8148, Control_c, 4, 7, 99
6, 8200, Control_c, 4, 7, 97
6, 8236, Control_c, 4, 7, 96
6, 8268, Note_on_c, 4, 77, 0
6, 8276, Control_c, 4, 7, 94
6, 8312, Control_c, 4, 7, 93
6, 8440, Control_c, 4, 7, 95
6, 8476, Control_c, 4, 7, 98
6, 8512, Control_c, 4, 7, 102
6, 8548, Control_c, 4, 7, 107
6, 8584, Control_c, 4, 7, 112
6, 8620, Control_c, 4, 7, 118
6, 8656, Control_c, 4, 7, 123
6, 8696, Control_c, 4, 7, 127
6, 9004, Note_on_c, 4, 82, 118
6, 9508, Note_on_c, 4, 81, 121
6, 9524, Note_on_c, 4, 82, 0
6, 10064, Note_on_c, 4, 77, 124
6, 10084, Note_on_c, 4, 81, 0
6, 10604, Note_on_c, 4, 77, 0
6, 10616, Note_on_c, 4, 74, 122
6, 11160, Note_on_c, 4, 79, 122
6, 11176, Note_on_c, 4, 74, 0
6, 11676, Note_on_c, 4, 79, 0
6, 11764, Note_on_c, 4, 79, 117
6, 14308, Control_c, 4, 7, 126
6, 14364, Control_c, 4, 7, 125
6, 14420, Control_c, 4, 7, 124
6, 14492, Control_c, 4, 7, 123
6, 14600, Control_c, 4, 7, 122
6, 14656, Control_c, 4, 7, 121
6, 14748, Control_c, 4, 7, 120
6, 14856, Control_c, 4, 7, 119
6, 14932, Control_c, 4, 7, 117
6, 15004, Control_c, 4, 7, 116
6, 15040, Control_c, 4, 7, 115
6, 15096, Control_c, 4, 7, 114
6, 15132, Control_c, 4, 7, 113
6, 15168, Control_c, 4, 7, 112
6, 15204, Control_c, 4, 7, 111
6, 15240, Control_c, 4, 7, 110
6, 15276, Control_c, 4, 7, 109
6, 15312, Control_c, 4, 7, 108
6, 15352, Control_c, 4, 7, 107
6, 15404, Control_c, 4, 7, 106
6, 15444, Control_c, 4, 7, 105
6, 15496, Control_c, 4, 7, 104
6, 15572, Control_c, 4, 7, 103
6, 15608, Control_c, 4, 7, 102
6, 15680, Control_c, 4, 7, 100
6, 15772, Control_c, 4, 7, 99
6, 15808, Control_c, 4, 7, 98
6, 15864, Control_c, 4, 7, 97
6, 15952, Control_c, 4, 7, 96
6, 16028, Control_c, 4, 7, 95
6, 16100, Control_c, 4, 7, 94
6, 16172, Control_c, 4, 7, 93
6, 16248, Control_c, 4, 7, 92
6, 16356, Control_c, 4, 7, 91
6, 16412, Control_c, 4, 7, 90
6, 16468, Control_c, 4, 7, 89
6, 16520, Control_c, 4, 7, 88
6, 16556, Control_c, 4, 7, 87
6, 16592, Control_c, 4, 7, 85
6, 16632, Control_c, 4, 7, 84
6, 16668, Control_c, 4, 7, 83
6, 16704, Control_c, 4, 7, 82
6, 16740, Control_c, 4, 7, 80
6, 16756, Note_on_c, 4, 79, 0
6, 16776, Control_c, 4, 7, 79
6, 16904, Control_c, 4, 7, 82
6, 16940, Control_c, 4, 7, 85
6, 16976, Control_c, 4, 7, 89
6, 17012, Control_c, 4, 7, 92
6, 17052, Control_c, 4, 7, 96
6, 17088, Control_c, 4, 7, 100
6, 17124, Control_c, 4, 7, 104
6, 17160, Control_c, 4, 7, 109
6, 17196, Control_c, 4, 7, 115
6, 17232, Control_c, 4, 7, 122
6, 17268, Control_c, 4, 7, 127
6, 17564, Note_on_c, 4, 82, 125
6, 18056, Note_on_c, 4, 82, 0
6, 18072, Note_on_c, 4, 81, 119
6, 18728, Note_on_c, 4, 77, 117
6, 18732, Note_on_c, 4, 81, 0
6, 19720, Control_c, 4, 7, 126
6, 19776, Control_c, 4, 7, 125
6, 19812, Control_c, 4, 7, 124
6, 19848, Control_c, 4, 7, 123
6, 19884, Control_c, 4, 7, 122
6, 19920, Control_c, 4, 7, 121
6, 19976, Control_c, 4, 7, 120
6, 20048, Control_c, 4, 7, 119
6, 20084, Control_c, 4, 7, 118
6, 20160, Control_c, 4, 7, 117
6, 20212, Control_c, 4, 7, 116
6, 20248, Control_c, 4, 7, 115
6, 20304, Control_c, 4, 7, 114
6, 20360, Control_c, 4, 7, 113
6, 20396, Control_c, 4, 7, 112
6, 20432, Control_c, 4, 7, 111
6, 20468, Control_c, 4, 7, 110
6, 20524, Control_c, 4, 7, 108
6, 20560, Control_c, 4, 7, 107
6, 20616, Control_c, 4, 7, 105
6, 20652, Control_c, 4, 7, 104
6, 20688, Control_c, 4, 7, 103
6, 20724, Control_c, 4, 7, 101
6, 20760, Control_c, 4, 7, 100
6, 20800, Control_c, 4, 7, 99
6, 20852, Control_c, 4, 7, 98
6, 20888, Control_c, 4, 7, 97
6, 20924, Control_c, 4, 7, 96
6, 20980, Control_c, 4, 7, 94
6, 21016, Control_c, 4, 7, 92
6, 21056, Control_c, 4, 7, 91
6, 21108, Control_c, 4, 7, 89
6, 21144, Control_c, 4, 7, 88
6, 21200, Control_c, 4, 7, 85
6, 21236, Control_c, 4, 7, 83
6, 21272, Control_c, 4, 7, 80
6, 21312, Note_on_c, 4, 77, 0
6, 21384, Control_c, 4, 7, 82
6, 21420, Control_c, 4, 7, 87
6, 21456, Control_c, 4, 7, 94
6, 21492, Control_c, 4, 7, 100
6, 21528, Control_c, 4, 7, 106
6, 21564, Control_c, 4, 7, 110
6, 21604, Control_c, 4, 7, 112
6, 21656, Control_c, 4, 7, 115
6, 21712, Control_c, 4, 7, 117
6, 21768, Control_c, 4, 7, 120
6, 21804, Control_c, 4, 7, 121
6, 21860, Control_c, 4, 7, 125
6, 21896, Control_c, 4, 7, 127
6, 23068, Note_on_c, 4, 82, 121
6, 23536, Note_on_c, 4, 81, 124
6, 23548, Note_on_c, 4, 82, 0
6, 24068, Note_on_c, 4, 77, 127
6, 24072, Note_on_c, 4, 81, 0
6, 24612, Note_on_c, 4, 77, 0
6, 24620, Note_on_c, 4, 74, 114
6, 25188, Note_on_c, 4, 79, 115
6, 25200, Note_on_c, 4, 74, 0
6, 25712, Note_on_c, 4, 79, 0
6, 25804, Note_on_c, 4, 79, 120
6, 28952, Control_c, 4, 7, 126
6, 29060, Control_c, 4, 7, 125
6, 29116, Control_c, 4, 7, 124
6, 29188, Control_c, 4, 7, 123
6, 29316, Control_c, 4, 7, 122
6, 29428, Control_c, 4, 7, 121
6, 29516, Control_c, 4, 7, 120
6, 29572, Control_c, 4, 7, 119
6, 29628, Control_c, 4, 7, 118
6, 29720, Control_c, 4, 7, 117
6, 29772, Control_c, 4, 7, 116
6, 29848, Control_c, 4, 7, 115
6, 29920, Control_c, 4, 7, 114
6, 29976, Control_c, 4, 7, 113
6, 30012, Control_c, 4, 7, 112
6, 30068, Control_c, 4, 7, 111
6, 30120, Control_c, 4, 7, 110
6, 30176, Control_c, 4, 7, 109
6, 30232, Control_c, 4, 7, 108
6, 30268, Control_c, 4, 7, 107
6, 30304, Control_c, 4, 7, 106
6, 30340, Control_c, 4, 7, 105
6, 30376, Control_c, 4, 7, 104
6, 30412, Control_c, 4, 7, 103
6, 30468, Control_c, 4, 7, 102
6, 30504, Control_c, 4, 7, 101
6, 30560, Control_c, 4, 7, 100
6, 30596, Control_c, 4, 7, 99
6, 30632, Control_c, 4, 7, 98
6, 30668, Control_c, 4, 7, 97
6, 30708, Control_c, 4, 7, 95
6, 30760, Control_c, 4, 7, 93
6, 30816, Control_c, 4, 7, 91
6, 30852, Control_c, 4, 7, 89
6, 30888, Control_c, 4, 7, 88
6, 30924, Control_c, 4, 7, 86
6, 30964, Control_c, 4, 7, 84
6, 31000, Control_c, 4, 7, 81
6, 31036, Control_c, 4, 7, 79
6, 31072, Control_c, 4, 7, 76
6, 31108, Control_c, 4, 7, 73
6, 31144, Control_c, 4, 7, 69
6, 31180, Control_c, 4, 7, 67
6, 31228, Note_on_c, 4, 79, 0
6, 31236, Control_c, 4, 7, 66
6, 31292, Control_c, 4, 7, 68
6, 31328, Control_c, 4, 7, 74
6, 31364, Control_c, 4, 7, 80
6, 31400, Control_c, 4, 7, 85
6, 31436, Control_c, 4, 7, 91
6, 31472, Control_c, 4, 7, 96
6, 31512, Control_c, 4, 7, 101
6, 31548, Control_c, 4, 7, 106
6, 31584, Control_c, 4, 7, 112
6, 31620, Control_c, 4, 7, 117
6, 31656, Control_c, 4, 7, 120
6, 31692, Control_c, 4, 7, 124
6, 31728, Control_c, 4, 7, 127
6, 32920, Note_on_c, 4, 82, 121
6, 33460, Note_on_c, 4, 81, 124
6, 33468, Note_on_c, 4, 82, 0
6, 34052, Note_on_c, 4, 81, 0
6, 34052, Note_on_c, 4, 77, 127
6, 35332, Control_c, 4, 7, 126
6, 35404, Control_c, 4, 7, 125
6, 35476, Control_c, 4, 7, 124
6, 35588, Control_c, 4, 7, 123
6, 35640, Control_c, 4, 7, 122
6, 35716, Control_c, 4, 7, 121
6, 35752, Control_c, 4, 7, 120
6, 35844, Control_c, 4, 7, 118
6, 35936, Control_c, 4, 7, 117
6, 35988, Control_c, 4, 7, 116
6, 36044, Control_c, 4, 7, 115
6, 36100, Control_c, 4, 7, 113
6, 36152, Control_c, 4, 7, 112
6, 36208, Control_c, 4, 7, 111
6, 36244, Control_c, 4, 7, 110
6, 36280, Control_c, 4, 7, 108
6, 36336, Control_c, 4, 7, 107
6, 36372, Control_c, 4, 7, 106
6, 36408, Control_c, 4, 7, 105
6, 36448, Control_c, 4, 7, 103
6, 36484, Control_c, 4, 7, 102
6, 36520, Control_c, 4, 7, 101
6, 36576, Control_c, 4, 7, 99
6, 36648, Control_c, 4, 7, 98
6, 36720, Control_c, 4, 7, 97
6, 36756, Control_c, 4, 7, 96
6, 36812, Control_c, 4, 7, 95
6, 36868, Control_c, 4, 7, 94
6, 36904, Control_c, 4, 7, 93
6, 36956, Control_c, 4, 7, 92
6, 37012, Control_c, 4, 7, 91
6, 37068, Control_c, 4, 7, 90
6, 37160, Control_c, 4, 7, 89
6, 37232, Control_c, 4, 7, 88
6, 37268, Control_c, 4, 7, 87
6, 37304, Control_c, 4, 7, 86
6, 37380, Control_c, 4, 7, 85
6, 37432, Control_c, 4, 7, 83
6, 37524, Control_c, 4, 7, 81
6, 37580, Control_c, 4, 7, 80
6, 37636, Control_c, 4, 7, 79
6, 37672, Control_c, 4, 7, 78
6, 37708, Control_c, 4, 7, 76
6, 37744, Control_c, 4, 7, 74
6, 37764, Note_on_c, 4, 77, 0
6, 37836, Control_c, 4, 7, 75
6, 37892, Control_c, 4, 7, 78
6, 37928, Control_c, 4, 7, 83
6, 37964, Control_c, 4, 7, 90
6, 38000, Control_c, 4, 7, 97
6, 38036, Control_c, 4, 7, 104
6, 38072, Control_c, 4, 7, 112
6, 38108, Control_c, 4, 7, 118
6, 38148, Control_c, 4, 7, 123
6, 38184, Control_c, 4, 7, 127
6, 38424, Note_on_c, 4, 82, 126
6, 38912, Note_on_c, 4, 82, 0
6, 38912, Note_on_c, 4, 81, 124
6, 39432, Note_on_c, 4, 77, 125
6, 39448, Note_on_c, 4, 81, 0
6, 39952, Note_on_c, 4, 77, 0
6, 39964, Note_on_c, 4, 74, 111
6, 40456, Note_on_c, 4, 79, 123
6, 40464, Note_on_c, 4, 74, 0
6, 40948, Note_on_c, 4, 79, 0
6, 41008, Note_on_c, 4, 79, 121
6, 43632, Control_c, 4, 7, 126
6, 43796, Control_c, 4, 7, 125
6, 43960, Control_c, 4, 7, 124
6, 44160, Control_c, 4, 7, 123
6, 44400, Control_c, 4, 7, 122
6, 44600, Control_c, 4, 7, 121
6, 44728, Control_c, 4, 7, 120
6, 44892, Control_c, 4, 7, 119
6, 45040, Control_c, 4, 7, 118
6, 45128, Control_c, 4, 7, 117
6, 45204, Control_c, 4, 7, 116
6, 45276, Control_c, 4, 7, 115
6, 45348, Control_c, 4, 7, 114
6, 45404, Control_c, 4, 7, 113
6, 45440, Control_c, 4, 7, 112
6, 45548, Control_c, 4, 7, 110
6, 45588, Control_c, 4, 7, 109
6, 45640, Control_c, 4, 7, 108
6, 45696, Control_c, 4, 7, 107
6, 45752, Control_c, 4, 7, 106
6, 45788, Control_c, 4, 7, 105
6, 45824, Control_c, 4, 7, 104
6, 45860, Control_c, 4, 7, 103
6, 45916, Control_c, 4, 7, 102
6, 45972, Control_c, 4, 7, 100
6, 46044, Control_c, 4, 7, 97
6, 46100, Control_c, 4, 7, 95
6, 46136, Control_c, 4, 7, 94
6, 46172, Control_c, 4, 7, 92
6, 46208, Control_c, 4, 7, 89
6, 46264, Control_c, 4, 7, 86
6, 46300, Control_c, 4, 7, 85
6, 46336, Control_c, 4, 7, 83
6, 46372, Control_c, 4, 7, 81
6, 46428, Control_c, 4, 7, 79
6, 46464, Control_c, 4, 7, 76
6, 46500, Control_c, 4, 7, 74
6, 46556, Control_c, 4, 7, 73
6, 46648, Control_c, 4, 7, 74
6, 46684, Note_on_c, 4, 79, 0
6, 46684, Control_c, 4, 7, 76
6, 46720, Control_c, 4, 7, 78
6, 46756, Control_c, 4, 7, 82
6, 46792, Control_c, 4, 7, 88
6, 46828, Control_c, 4, 7, 94
6, 46864, Control_c, 4, 7, 99
6, 46904, Control_c, 4, 7, 107
6, 46940, Control_c, 4, 7, 112
6, 46976, Control_c, 4, 7, 117
6, 47012, Control_c, 4, 7, 122
6, 47048, Control_c, 4, 7, 126
6, 47084, Control_c, 4, 7, 127
6, 47908, Note_on_c, 4, 82, 123
6, 48508, Note_on_c, 4, 82, 0
6, 48524, Note_on_c, 4, 81, 123
6, 49180, Note_on_c, 4, 81, 0
6, 49184, Note_on_c, 4, 77, 125
6, 50012, Control_c, 4, 7, 126
6, 50084, Control_c, 4, 7, 125
6, 50120, Control_c, 4, 7, 124
6, 50176, Control_c, 4, 7, 123
6, 50232, Control_c, 4, 7, 122
6, 50268, Control_c, 4, 7, 121
6, 50320, Control_c, 4, 7, 120
6, 50356, Control_c, 4, 7, 119
6, 50392, Control_c, 4, 7, 118
6, 50448, Control_c, 4, 7, 117
6, 50504, Control_c, 4, 7, 116
6, 50560, Control_c, 4, 7, 115
6, 50612, Control_c, 4, 7, 114
6, 50652, Control_c, 4, 7, 113
6, 50704, Control_c, 4, 7, 112
6, 50760, Control_c, 4, 7, 111
6, 50832, Control_c, 4, 7, 110
6, 50888, Control_c, 4, 7, 109
6, 50944, Control_c, 4, 7, 108
6, 51016, Control_c, 4, 7, 107
6, 51124, Control_c, 4, 7, 105
6, 51160, Control_c, 4, 7, 104
6, 51216, Control_c, 4, 7, 103
6, 51272, Control_c, 4, 7, 101
6, 51308, Control_c, 4, 7, 100
6, 51380, Control_c, 4, 7, 98
6, 51416, Control_c, 4, 7, 97
6, 51456, Control_c, 4, 7, 95
6, 51508, Control_c, 4, 7, 94
6, 51548, Control_c, 4, 7, 91
6, 51584, Control_c, 4, 7, 89
6, 51620, Control_c, 4, 7, 88
6, 51656, Control_c, 4, 7, 87
6, 51688, Note_on_c, 4, 77, 0
6, 51712, Control_c, 4, 7, 85
6, 51764, Control_c, 4, 7, 84
6, 51876, Control_c, 4, 7, 85
6, 51928, Control_c, 4, 7, 89
6, 51968, Control_c, 4, 7, 92
6, 52004, Control_c, 4, 7, 98
6, 52040, Control_c, 4, 7, 105
6, 52076, Control_c, 4, 7, 111
6, 52112, Control_c, 4, 7, 117
6, 52148, Control_c, 4, 7, 123
6, 52184, Control_c, 4, 7, 127
6, 53836, Note_on_c, 4, 82, 127
6, 54320, Note_on_c, 4, 82, 0
6, 54340, Note_on_c, 4, 81, 123
6, 54964, Note_on_c, 4, 81, 0
6, 54972, Note_on_c, 4, 77, 124
6, 55648, Note_on_c, 4, 77, 0
6, 55680, Note_on_c, 4, 74, 120
6, 56332, Note_on_c, 4, 74, 0
6, 56332, Note_on_c, 4, 79, 121
6, 57112, Note_on_c, 4, 79, 0
6, 57112, Note_on_c, 4, 81, 123
6, 60908, Control_c, 4, 7, 126
6, 61032, Control_c, 4, 7, 125
6, 61144, Control_c, 4, 7, 124
6, 61180, Control_c, 4, 7, 123
6, 61252, Control_c, 4, 7, 122
6, 61328, Control_c, 4, 7, 121
6, 61400, Control_c, 4, 7, 120
6, 61472, Control_c, 4, 7, 119
6, 61528, Control_c, 4, 7, 118
6, 61600, Control_c, 4, 7, 117
6, 61656, Control_c, 4, 7, 116
6, 61728, Control_c, 4, 7, 115
6, 61764, Control_c, 4, 7, 114
6, 61820, Control_c, 4, 7, 113
6, 61892, Control_c, 4, 7, 112
6, 61948, Control_c, 4, 7, 111
6, 61984, Control_c, 4, 7, 110
6, 62040, Control_c, 4, 7, 109
6, 62092, Control_c, 4, 7, 108
6, 62148, Control_c, 4, 7, 107
6, 62224, Control_c, 4, 7, 106
6, 62296, Control_c, 4, 7, 105
6, 62332, Control_c, 4, 7, 104
6, 62388, Control_c, 4, 7, 103
6, 62440, Control_c, 4, 7, 102
6, 62476, Control_c, 4, 7, 101
6, 62532, Control_c, 4, 7, 100
6, 62624, Control_c, 4, 7, 98
6, 62696, Control_c, 4, 7, 96
6, 62752, Control_c, 4, 7, 95
6, 62788, Control_c, 4, 7, 94
6, 62824, Control_c, 4, 7, 93
6, 62880, Control_c, 4, 7, 92
6, 62916, Control_c, 4, 7, 91
6, 62952, Control_c, 4, 7, 90
6, 62988, Control_c, 4, 7, 89
6, 63028, Control_c, 4, 7, 88
6, 63064, Control_c, 4, 7, 87
6, 63100, Control_c, 4, 7, 85
6, 63136, Control_c, 4, 7, 84
6, 63192, Control_c, 4, 7, 82
6, 63228, Control_c, 4, 7, 81
6, 63264, Control_c, 4, 7, 80
6, 63300, Control_c, 4, 7, 78
6, 63336, Control_c, 4, 7, 77
6, 63392, Control_c, 4, 7, 75
6, 63428, Control_c, 4, 7, 74
6, 63464, Control_c, 4, 7, 72
6, 63500, Control_c, 4, 7, 71
6, 63536, Control_c, 4, 7, 69
6, 63576, Control_c, 4, 7, 67
6, 63628, Control_c, 4, 7, 64
6, 63668, Control_c, 4, 7, 62
6, 63704, Control_c, 4, 7, 60
6, 63740, Control_c, 4, 7, 57
6, 63776, Control_c, 4, 7, 55
6, 63812, Control_c, 4, 7, 52
6, 63848, Control_c, 4, 7, 49
6, 63884, Control_c, 4, 7, 47
6, 63920, Control_c, 4, 7, 44
6, 63976, Control_c, 4, 7, 41
6, 64012, Control_c, 4, 7, 39
6, 64048, Control_c, 4, 7, 36
6, 64088, Control_c, 4, 7, 34
6, 64124, Control_c, 4, 7, 31
6, 64176, Control_c, 4, 7, 29
6, 64216, Control_c, 4, 7, 26
6, 64252, Control_c, 4, 7, 24
6, 64260, Note_on_c, 4, 81, 0
6, 64304, Control_c, 4, 7, 22
6, 64344, Control_c, 4, 7, 21
6, 64380, Control_c, 4, 7, 20
6, 64416, Control_c, 4, 7, 19
6, 64468, Control_c, 4, 7, 18
6, 66188, Control_c, 4, 7, 19
6, 66224, Control_c, 4, 7, 22
6, 66264, Control_c, 4, 7, 25
6, 66300, Control_c, 4, 7, 31
6, 66336, Control_c, 4, 7, 49
6, 66372, Control_c, 4, 7, 83
6, 66408, Control_c, 4, 7, 110
6, 66444, Control_c, 4, 7, 127
6, 121152, Note_on_c, 4, 77, 127
6, 121464, Note_on_c, 4, 77, 0
6, 121528, Note_on_c, 4, 77, 127
6, 121636, Note_on_c, 4, 77, 0
6, 121720, Note_on_c, 4, 77, 127
6, 121904, Note_on_c, 4, 77, 0
6, 121916, Note_on_c, 4, 74, 125
6, 122100, Note_on_c, 4, 74, 0
6, 122104, Note_on_c, 4, 77, 127
6, 122296, Note_on_c, 4, 77, 0
6, 122304, Note_on_c, 4, 74, 106
6, 122420, Note_on_c, 4, 74, 0
6, 132284, Note_on_c, 4, 75, 127
6, 132380, Note_on_c, 4, 75, 0
6, 132472, Note_on_c, 4, 75, 127
6, 132588, Note_on_c, 4, 75, 0
6, 132664, Note_on_c, 4, 75, 127
6, 132748, Note_on_c, 4, 75, 0
6, 132856, Note_on_c, 4, 75, 127
6, 133192, Note_on_c, 4, 75, 0
6, 133244, Note_on_c, 4, 75, 127
6, 133568, Note_on_c, 4, 75, 0
6, 133628, Note_on_c, 4, 75, 127
6, 133780, Note_on_c, 4, 75, 0
6, 133816, Note_on_c, 4, 74, 127
6, 133976, Note_on_c, 4, 74, 0
6, 134008, Note_on_c, 4, 77, 127
6, 134372, Note_on_c, 4, 77, 0
6, 134396, Note_on_c, 4, 75, 127
6, 134572, Note_on_c, 4, 75, 0
6, 134588, Note_on_c, 4, 74, 127
6, 134744, Note_on_c, 4, 74, 0
6, 135544, Note_on_c, 4, 75, 127
6, 135684, Note_on_c, 4, 75, 0
6, 135736, Note_on_c, 4, 75, 127
6, 135864, Note_on_c, 4, 75, 0
6, 135932, Note_on_c, 4, 75, 127
6, 136072, Note_on_c, 4, 75, 0
6, 136128, Note_on_c, 4, 75, 127
6, 136268, Note_on_c, 4, 75, 0
6, 136312, Note_on_c, 4, 75, 127
6, 136460, Note_on_c, 4, 75, 0
6, 136508, Note_on_c, 4, 75, 127
6, 136652, Note_on_c, 4, 75, 0
6, 136700, Note_on_c, 4, 77, 127
6, 136888, Note_on_c, 4, 77, 0
6, 136892, Note_on_c, 4, 75, 127
6, 137080, Note_on_c, 4, 75, 0
6, 137080, Note_on_c, 4, 77, 127
6, 137272, Note_on_c, 4, 77, 0
6, 137280, Note_on_c, 4, 75, 127
6, 137468, Note_on_c, 4, 75, 0
6, 137472, Note_on_c, 4, 77, 127
6, 137656, Note_on_c, 4, 77, 0
6, 137664, Note_on_c, 4, 75, 127
6, 137848, Note_on_c, 4, 75, 0
6, 137852, Note_on_c, 4, 77, 127
6, 138040, Note_on_c, 4, 77, 0
6, 138044, Note_on_c, 4, 79, 114
6, 138176, Note_on_c, 4, 79, 0
6, 138432, Note_on_c, 4, 77, 127
6, 138540, Note_on_c, 4, 77, 0
6, 138616, Note_on_c, 4, 77, 127
6, 138748, Note_on_c, 4, 77, 0
6, 138812, Note_on_c, 4, 74, 127
6, 138952, Note_on_c, 4, 74, 0
6, 139004, Note_on_c, 4, 77, 127
6, 139384, Note_on_c, 4, 77, 0
6, 139384, Note_on_c, 4, 74, 124
6, 139616, Note_on_c, 4, 74, 0
6, 139964, Note_on_c, 4, 77, 127
6, 140036, Note_on_c, 4, 77, 0
6, 140156, Note_on_c, 4, 77, 127
6, 140332, Note_on_c, 4, 77, 0
6, 140352, Note_on_c, 4, 74, 127
6, 140532, Note_on_c, 4, 74, 0
6, 140536, Note_on_c, 4, 77, 127
6, 140724, Note_on_c, 4, 77, 0
6, 140728, Note_on_c, 4, 74, 121
6, 140864, Note_on_c, 4, 74, 0
6, 141500, Note_on_c, 4, 72, 127
6, 141616, Note_on_c, 4, 72, 0
6, 141692, Note_on_c, 4, 72, 127
6, 141808, Note_on_c, 4, 72, 0
6, 141888, Note_on_c, 4, 72, 127
6, 142008, Note_on_c, 4, 72, 0
6, 142076, Note_on_c, 4, 72, 127
6, 142384, Note_on_c, 4, 72, 0
6, 142456, Note_on_c, 4, 72, 127
6, 142756, Note_on_c, 4, 72, 0
6, 142840, Note_on_c, 4, 74, 127
6, 143168, Note_on_c, 4, 74, 0
6, 143232, Note_on_c, 4, 74, 127
6, 143544, Note_on_c, 4, 74, 0
6, 143612, Note_on_c, 4, 74, 127
6, 143940, Note_on_c, 4, 74, 0
6, 143992, Note_on_c, 4, 74, 125
6, 144316, Note_on_c, 4, 74, 0
6, 144376, Note_on_c, 4, 76, 125
6, 145664, Control_c, 4, 7, 125
6, 145716, Control_c, 4, 7, 124
6, 145756, Control_c, 4, 7, 123
6, 145792, Control_c, 4, 7, 121
6, 145828, Control_c, 4, 7, 120
6, 145864, Control_c, 4, 7, 118
6, 145900, Control_c, 4, 7, 116
6, 145956, Control_c, 4, 7, 113
6, 145992, Control_c, 4, 7, 111
6, 146028, Control_c, 4, 7, 109
6, 146064, Control_c, 4, 7, 107
6, 146100, Control_c, 4, 7, 105
6, 146140, Control_c, 4, 7, 103
6, 146192, Control_c, 4, 7, 100
6, 146228, Control_c, 4, 7, 98
6, 146236, Note_on_c, 4, 76, 0
6, 146268, Control_c, 4, 7, 96
6, 146304, Control_c, 4, 7, 94
6, 146340, Control_c, 4, 7, 91
6, 146376, Control_c, 4, 7, 89
6, 146412, Control_c, 4, 7, 86
6, 146448, Control_c, 4, 7, 83
6, 146484, Control_c, 4, 7, 80
6, 146520, Control_c, 4, 7, 77
6, 146560, Control_c, 4, 7, 75
6, 146596, Control_c, 4, 7, 72
6, 146632, Control_c, 4, 7, 69
6, 146668, Control_c, 4, 7, 67
6, 146704, Control_c, 4, 7, 64
6, 146760, Control_c, 4, 7, 61
6, 147316, Control_c, 4, 7, 127
6, 159932, Note_on_c, 4, 75, 127
6, 160028, Note_on_c, 4, 75, 0
6, 160120, Note_on_c, 4, 75, 127
6, 160236, Note_on_c, 4, 75, 0
6, 160312, Note_on_c, 4, 75, 127
6, 160396, Note_on_c, 4, 75, 0
6, 160504, Note_on_c, 4, 75, 127
6, 160840, Note_on_c, 4, 75, 0
6, 160892, Note_on_c, 4, 75, 127
6, 161216, Note_on_c, 4, 75, 0
6, 161276, Note_on_c, 4, 75, 127
6, 161428, Note_on_c, 4, 75, 0
6, 161464, Note_on_c, 4, 74, 127
6, 161624, Note_on_c, 4, 74, 0
6, 161656, Note_on_c, 4, 77, 127
6, 162020, Note_on_c, 4, 77, 0
6, 162044, Note_on_c, 4, 75, 127
6, 162220, Note_on_c, 4, 75, 0
6, 162236, Note_on_c, 4, 74, 127
6, 162392, Note_on_c, 4, 74, 0
6, 163192, Note_on_c, 4, 75, 127
6, 163332, Note_on_c, 4, 75, 0
6, 163384, Note_on_c, 4, 75, 127
6, 163512, Note_on_c, 4, 75, 0
6, 163580, Note_on_c, 4, 75, 127
6, 163720, Note_on_c, 4, 75, 0
6, 163776, Note_on_c, 4, 75, 127
6, 163916, Note_on_c, 4, 75, 0
6, 163960, Note_on_c, 4, 75, 127
6, 164108, Note_on_c, 4, 75, 0
6, 164156, Note_on_c, 4, 75, 127
6, 164300, Note_on_c, 4, 75, 0
6, 164348, Note_on_c, 4, 77, 127
6, 164536, Note_on_c, 4, 77, 0
6, 164540, Note_on_c, 4, 75, 127
6, 164728, Note_on_c, 4, 75, 0
6, 164728, Note_on_c, 4, 77, 127
6, 164920, Note_on_c, 4, 77, 0
6, 164928, Note_on_c, 4, 75, 127
6, 165116, Note_on_c, 4, 75, 0
6, 165120, Note_on_c, 4, 77, 127
6, 165304, Note_on_c, 4, 77, 0
6, 165312, Note_on_c, 4, 75, 127
6, 165496, Note_on_c, 4, 75, 0
6, 165500, Note_on_c, 4, 77, 127
6, 165688, Note_on_c, 4, 77, 0
6, 165692, Note_on_c, 4, 79, 114
6, 165824, Note_on_c, 4, 79, 0
6, 166080, Note_on_c, 4, 77, 127
6, 166188, Note_on_c, 4, 77, 0
6, 166264, Note_on_c, 4, 77, 127
6, 166396, Note_on_c, 4, 77, 0
6, 166460, Note_on_c, 4, 74, 127
6, 166600, Note_on_c, 4, 74, 0
6, 166652, Note_on_c, 4, 77, 127
6, 167032, Note_on_c, 4, 77, 0
6, 167032, Note_on_c, 4, 74, 124
6, 167264, Note_on_c, 4, 74, 0
6, 167612, Note_on_c, 4, 77, 127
6, 167684, Note_on_c, 4, 77, 0
6, 167804, Note_on_c, 4, 77, 127
6, 167980, Note_on_c, 4, 77, 0
6, 168000, Note_on_c, 4, 74, 127
6, 168180, Note_on_c, 4, 74, 0
6, 168184, Note_on_c, 4, 77, 127
6, 168372, Note_on_c, 4, 77, 0
6, 168376, Note_on_c, 4, 74, 121
6, 168512, Note_on_c, 4, 74, 0
6, 169148, Note_on_c, 4, 72, 127
6, 169264, Note_on_c, 4, 72, 0
6, 169340, Note_on_c, 4, 72, 127
6, 169456, Note_on_c, 4, 72, 0
6, 169536, Note_on_c, 4, 72, 127
6, 169656, Note_on_c, 4, 72, 0
6, 169724, Note_on_c, 4, 72, 127
6, 170032, Note_on_c, 4, 72, 0
6, 170104, Note_on_c, 4, 72, 127
6, 170404, Note_on_c, 4, 72, 0
6, 170488, Note_on_c, 4, 74, 127
6, 170816, Note_on_c, 4, 74, 0
6, 170880, Note_on_c, 4, 74, 127
6, 171192, Note_on_c, 4, 74, 0
6, 171260, Note_on_c, 4, 74, 127
6, 171588, Note_on_c, 4, 74, 0
6, 171640, Note_on_c, 4, 74, 125
6, 171964, Note_on_c, 4, 74, 0
6, 172024, Note_on_c, 4, 76, 125
6, 173312, Control_c, 4, 7, 125
6, 173364, Control_c, 4, 7, 124
6, 173404, Control_c, 4, 7, 123
6, 173440, Control_c, 4, 7, 121
6, 173476, Control_c, 4, 7, 120
6, 173512, Control_c, 4, 7, 118
6, 173548, Control_c, 4, 7, 116
6, 173604, Control_c, 4, 7, 113
6, 173640, Control_c, 4, 7, 111
6, 173676, Control_c, 4, 7, 109
6, 173712, Control_c, 4, 7, 107
6, 173748, Control_c, 4, 7, 105
6, 173788, Control_c, 4, 7, 103
6, 173840, Control_c, 4, 7, 100
6, 173876, Control_c, 4, 7, 98
6, 173884, Note_on_c, 4, 76, 0
6, 173916, Control_c, 4, 7, 96
6, 173952, Control_c, 4, 7, 94
6, 173988, Control_c, 4, 7, 91
6, 174024, Control_c, 4, 7, 89
6, 174060, Control_c, 4, 7, 86
6, 174096, Control_c, 4, 7, 83
6, 174132, Control_c, 4, 7, 80
6, 174168, Control_c, 4, 7, 77
6, 174208, Control_c, 4, 7, 75
6, 174244, Control_c, 4, 7, 72
6, 174280, Control_c, 4, 7, 69
6, 174316, Control_c, 4, 7, 67
6, 174352, Control_c, 4, 7, 64
6, 174408, Control_c, 4, 7, 61
6, 174964, Control_c, 4, 7, 127
6, 187768, Note_on_c, 4, 75, 127
6, 187884, Note_on_c, 4, 75, 0
6, 187960, Note_on_c, 4, 75, 127
6, 188044, Note_on_c, 4, 75, 0
6, 188152, Note_on_c, 4, 75, 127
6, 188488, Note_on_c, 4, 75, 0
6, 188540, Note_on_c, 4, 75, 127
6, 188864, Note_on_c, 4, 75, 0
6, 188924, Note_on_c, 4, 75, 127
6, 189076, Note_on_c, 4, 75, 0
6, 189112, Note_on_c, 4, 74, 127
6, 189272, Note_on_c, 4, 74, 0
6, 189304, Note_on_c, 4, 77, 127
6, 189668, Note_on_c, 4, 77, 0
6, 189692, Note_on_c, 4, 75, 127
6, 189868, Note_on_c, 4, 75, 0
6, 189884, Note_on_c, 4, 74, 127
6, 190040, Note_on_c, 4, 74, 0
6, 190840, Note_on_c, 4, 75, 127
6, 190980, Note_on_c, 4, 75, 0
6, 191032, Note_on_c, 4, 75, 127
6, 191160, Note_on_c, 4, 75, 0
6, 191228, Note_on_c, 4, 75, 127
6, 191368, Note_on_c, 4, 75, 0
6, 191424, Note_on_c, 4, 75, 127
6, 191564, Note_on_c, 4, 75, 0
6, 191608, Note_on_c, 4, 75, 127
6, 191756, Note_on_c, 4, 75, 0
6, 191804, Note_on_c, 4, 75, 127
6, 191948, Note_on_c, 4, 75, 0
6, 191996, Note_on_c, 4, 77, 127
6, 192184, Note_on_c, 4, 77, 0
6, 192188, Note_on_c, 4, 75, 127
6, 192376, Note_on_c, 4, 75, 0
6, 192376, Note_on_c, 4, 77, 127
6, 192568, Note_on_c, 4, 77, 0
6, 192576, Note_on_c, 4, 75, 127
6, 192764, Note_on_c, 4, 75, 0
6, 192768, Note_on_c, 4, 77, 127
6, 192952, Note_on_c, 4, 77, 0
6, 192960, Note_on_c, 4, 75, 127
6, 193144, Note_on_c, 4, 75, 0
6, 193148, Note_on_c, 4, 77, 127
6, 193336, Note_on_c, 4, 77, 0
6, 193340, Note_on_c, 4, 79, 114
6, 193472, Note_on_c, 4, 79, 0
6, 193728, Note_on_c, 4, 77, 127
6, 193836, Note_on_c, 4, 77, 0
6, 193912, Note_on_c, 4, 77, 127
6, 194044, Note_on_c, 4, 77, 0
6, 194108, Note_on_c, 4, 74, 127
6, 194248, Note_on_c, 4, 74, 0
6, 194300, Note_on_c, 4, 77, 127
6, 194680, Note_on_c, 4, 77, 0
6, 194680, Note_on_c, 4, 74, 124
6, 194912, Note_on_c, 4, 74, 0
6, 195260, Note_on_c, 4, 77, 127
6, 195332, Note_on_c, 4, 77, 0
6, 195452, Note_on_c, 4, 77, 127
6, 195628, Note_on_c, 4, 77, 0
6, 195648, Note_on_c, 4, 74, 127
6, 195828, Note_on_c, 4, 74, 0
6, 195832, Note_on_c, 4, 77, 127
6, 196020, Note_on_c, 4, 77, 0
6, 196024, Note_on_c, 4, 74, 121
6, 196160, Note_on_c, 4, 74, 0
6, 196796, Note_on_c, 4, 72, 127
6, 196912, Note_on_c, 4, 72, 0
6, 196988, Note_on_c, 4, 72, 127
6, 197104, Note_on_c, 4, 72, 0
6, 197184, Note_on_c, 4, 72, 127
6, 197304, Note_on_c, 4, 72, 0
6, 197372, Note_on_c, 4, 72, 127
6, 197680, Note_on_c, 4, 72, 0
6, 197752, Note_on_c, 4, 72, 127
6, 198052, Note_on_c, 4, 72, 0
6, 198136, Note_on_c, 4, 74, 127
6, 198464, Note_on_c, 4, 74, 0
6, 198528, Note_on_c, 4, 74, 127
6, 198840, Note_on_c, 4, 74, 0
6, 198908, Note_on_c, 4, 74, 127
6, 199236, Note_on_c, 4, 74, 0
6, 199288, Note_on_c, 4, 74, 125
6, 199612, Note_on_c, 4, 74, 0
6, 199672, Note_on_c, 4, 76, 125
6, 200960, Control_c, 4, 7, 125
6, 201012, Control_c, 4, 7, 124
6, 201052, Control_c, 4, 7, 123
6, 201088, Control_c, 4, 7, 121
6, 201124, Control_c, 4, 7, 120
6, 201160, Control_c, 4, 7, 118
6, 201196, Control_c, 4, 7, 116
6, 201252, Control_c, 4, 7, 113
6, 201288, Control_c, 4, 7, 111
6, 201324, Control_c, 4, 7, 109
6, 201360, Control_c, 4, 7, 107
6, 201396, Control_c, 4, 7, 105
6, 201436, Control_c, 4, 7, 103
6, 201488, Control_c, 4, 7, 100
6, 201524, Control_c, 4, 7, 98
6, 201532, Note_on_c, 4, 76, 0
6, 201564, Control_c, 4, 7, 96
6, 201600, Control_c, 4, 7, 94
6, 201636, Control_c, 4, 7, 91
6, 201672, Control_c, 4, 7, 89
6, 201708, Control_c, 4, 7, 86
6, 201744, Control_c, 4, 7, 83
6, 201780, Control_c, 4, 7, 80
6, 201816, Control_c, 4, 7, 77
6, 201856, Control_c, 4, 7, 75
6, 201892, Control_c, 4, 7, 72
6, 201928, Control_c, 4, 7, 69
6, 201964, Control_c, 4, 7, 67
6, 202000, Control_c, 4, 7, 64
6, 202056, Control_c, 4, 7, 61
6, 202612, Control_c, 4, 7, 127
6, 222528, Note_on_c, 4, 77, 127
6, 222840, Note_on_c, 4, 77, 0
6, 222904, Note_on_c, 4, 77, 127
6, 223012, Note_on_c, 4, 77, 0
6, 223096, Note_on_c, 4, 77, 127
6, 223280, Note_on_c, 4, 77, 0
6, 223292, Note_on_c, 4, 74, 125
6, 223476, Note_on_c, 4, 74, 0
6, 223480, Note_on_c, 4, 77, 127
6, 223672, Note_on_c, 4, 77, 0
6, 223680, Note_on_c, 4, 74, 106
6, 223796, Note_on_c, 4, 74, 0
6, 224444, Note_on_c, 4, 77, 127
6, 224584, Note_on_c, 4, 77, 0
6, 224632, Note_on_c, 4, 77, 127
6, 224776, Note_on_c, 4, 77, 0
6, 224828, Note_on_c, 4, 74, 127
6, 224968, Note_on_c, 4, 74, 0
6, 225020, Note_on_c, 4, 77, 127
6, 225200, Note_on_c, 4, 77, 0
6, 225212, Note_on_c, 4, 74, 127
6, 225340, Note_on_c, 4, 74, 0
6, 225400, Note_on_c, 4, 74, 127
6, 225496, Note_on_c, 4, 74, 0
6, 225600, Note_on_c, 4, 74, 127
6, 225744, Note_on_c, 4, 74, 0
6, 225784, Note_on_c, 4, 77, 127
6, 226160, Note_on_c, 4, 77, 0
6, 226172, Note_on_c, 4, 74, 127
6, 226308, Note_on_c, 4, 74, 0
6, 226364, Note_on_c, 4, 74, 127
6, 226944, Note_on_c, 4, 74, 0
6, 227516, Note_on_c, 4, 75, 127
6, 227612, Note_on_c, 4, 75, 0
6, 227704, Note_on_c, 4, 75, 127
6, 227820, Note_on_c, 4, 75, 0
6, 227896, Note_on_c, 4, 75, 127
6, 227980, Note_on_c, 4, 75, 0
6, 228088, Note_on_c, 4, 75, 127
6, 228424, Note_on_c, 4, 75, 0
6, 228476, Note_on_c, 4, 75, 127
6, 228800, Note_on_c, 4, 75, 0
6, 228860, Note_on_c, 4, 75, 127
6, 229012, Note_on_c, 4, 75, 0
6, 229048, Note_on_c, 4, 74, 127
6, 229208, Note_on_c, 4, 74, 0
6, 229240, Note_on_c, 4, 77, 127
6, 229604, Note_on_c, 4, 77, 0
6, 229628, Note_on_c, 4, 75, 127
6, 229804, Note_on_c, 4, 75, 0
6, 229820, Note_on_c, 4, 74, 127
6, 229976, Note_on_c, 4, 74, 0
6, 230776, Note_on_c, 4, 75, 127
6, 230916, Note_on_c, 4, 75, 0
6, 230968, Note_on_c, 4, 75, 127
6, 231096, Note_on_c, 4, 75, 0
6, 231164, Note_on_c, 4, 75, 127
6, 231304, Note_on_c, 4, 75, 0
6, 231360, Note_on_c, 4, 75, 127
6, 231500, Note_on_c, 4, 75, 0
6, 231544, Note_on_c, 4, 75, 127
6, 231692, Note_on_c, 4, 75, 0
6, 231740, Note_on_c, 4, 75, 127
6, 231884, Note_on_c, 4, 75, 0
6, 231932, Note_on_c, 4, 77, 127
6, 232120, Note_on_c, 4, 77, 0
6, 232124, Note_on_c, 4, 75, 127
6, 232312, Note_on_c, 4, 75, 0
6, 232312, Note_on_c, 4, 77, 127
6, 232504, Note_on_c, 4, 77, 0
6, 232512, Note_on_c, 4, 75, 127
6, 232700, Note_on_c, 4, 75, 0
6, 232704, Note_on_c, 4, 77, 127
6, 232888, Note_on_c, 4, 77, 0
6, 232896, Note_on_c, 4, 75, 127
6, 233080, Note_on_c, 4, 75, 0
6, 233084, Note_on_c, 4, 77, 127
6, 233272, Note_on_c, 4, 77, 0
6, 233276, Note_on_c, 4, 79, 114
6, 233408, Note_on_c, 4, 79, 0
6, 233664, Note_on_c, 4, 77, 127
6, 233772, Note_on_c, 4, 77, 0
6, 233848, Note_on_c, 4, 77, 127
6, 233980, Note_on_c, 4, 77, 0
6, 234044, Note_on_c, 4, 74, 127
6, 234184, Note_on_c, 4, 74, 0
6, 234236, Note_on_c, 4, 77, 127
6, 234616, Note_on_c, 4, 77, 0
6, 234616, Note_on_c, 4, 74, 124
6, 234848, Note_on_c, 4, 74, 0
6, 235196, Note_on_c, 4, 77, 127
6, 235268, Note_on_c, 4, 77, 0
6, 235388, Note_on_c, 4, 77, 127
6, 235564, Note_on_c, 4, 77, 0
6, 235584, Note_on_c, 4, 74, 127
6, 235764, Note_on_c, 4, 74, 0
6, 235768, Note_on_c, 4, 77, 127
6, 235956, Note_on_c, 4, 77, 0
6, 235960, Note_on_c, 4, 74, 121
6, 236096, Note_on_c, 4, 74, 0
6, 236732, Note_on_c, 4, 72, 127
6, 236848, Note_on_c, 4, 72, 0
6, 236924, Note_on_c, 4, 72, 127
6, 237040, Note_on_c, 4, 72, 0
6, 237120, Note_on_c, 4, 72, 127
6, 237240, Note_on_c, 4, 72, 0
6, 237308, Note_on_c, 4, 72, 127
6, 237616, Note_on_c, 4, 72, 0
6, 237688, Note_on_c, 4, 72, 127
6, 237988, Note_on_c, 4, 72, 0
6, 238072, Note_on_c, 4, 74, 127
6, 238400, Note_on_c, 4, 74, 0
6, 238464, Note_on_c, 4, 74, 127
6, 238776, Note_on_c, 4, 74, 0
6, 238844, Note_on_c, 4, 74, 127
6, 239172, Note_on_c, 4, 74, 0
6, 239224, Note_on_c, 4, 74, 125
6, 239548, Note_on_c, 4, 74, 0
6, 239608, Note_on_c, 4, 76, 125
6, 240896, Control_c, 4, 7, 125
6, 240948, Control_c, 4, 7, 124
6, 240988, Control_c, 4, 7, 123
6, 241024, Control_c, 4, 7, 121
6, 241060, Control_c, 4, 7, 120
6, 241096, Control_c, 4, 7, 118
6, 241132, Control_c, 4, 7, 116
6, 241188, Control_c, 4, 7, 113
6, 241224, Control_c, 4, 7, 111
6, 241260, Control_c, 4, 7, 109
6, 241296, Control_c, 4, 7, 107
6, 241332, Control_c, 4, 7, 105
6, 241372, Control_c, 4, 7, 103
6, 241424, Control_c, 4, 7, 100
6, 241460, Control_c, 4, 7, 98
6, 241468, Note_on_c, 4, 76, 0
6, 241500, Control_c, 4, 7, 96
6, 241536, Control_c, 4, 7, 94
6, 241572, Control_c, 4, 7, 91
6, 241608, Control_c, 4, 7, 89
6, 241644, Control_c, 4, 7, 86
6, 241680, Control_c, 4, 7, 83
6, 241716, Control_c, 4, 7, 80
6, 241752, Control_c, 4, 7, 77
6, 241792, Control_c, 4, 7, 75
6, 241828, Control_c, 4, 7, 72
6, 241864, Control_c, 4, 7, 69
6, 241900, Control_c, 4, 7, 67
6, 241936, Control_c, 4, 7, 64
6, 241992, Control_c, 4, 7, 61
6, 242548, Control_c, 4, 7, 127
6, 262464, Note_on_c, 4, 77, 127
6, 262776, Note_on_c, 4, 77, 0
6, 262840, Note_on_c, 4, 77, 127
6, 262948, Note_on_c, 4, 77, 0
6, 263032, Note_on_c, 4, 77, 127
6, 263216, Note_on_c, 4, 77, 0
6, 263228, Note_on_c, 4, 74, 125
6, 263412, Note_on_c, 4, 74, 0
6, 263416, Note_on_c, 4, 77, 127
6, 263608, Note_on_c, 4, 77, 0
6, 263616, Note_on_c, 4, 74, 106
6, 263732, Note_on_c, 4, 74, 0
6, 264188, Note_on_c, 4, 77, 127
6, 264328, Note_on_c, 4, 77, 0
6, 264380, Note_on_c, 4, 77, 127
6, 264520, Note_on_c, 4, 77, 0
6, 264568, Note_on_c, 4, 77, 127
6, 264712, Note_on_c, 4, 77, 0
6, 264764, Note_on_c, 4, 74, 127
6, 264904, Note_on_c, 4, 74, 0
6, 264956, Note_on_c, 4, 77, 127
6, 265136, Note_on_c, 4, 77, 0
6, 265148, Note_on_c, 4, 74, 127
6, 265276, Note_on_c, 4, 74, 0
6, 265336, Note_on_c, 4, 74, 127
6, 265432, Note_on_c, 4, 74, 0
6, 265536, Note_on_c, 4, 74, 127
6, 265680, Note_on_c, 4, 74, 0
6, 265720, Note_on_c, 4, 77, 127
6, 266096, Note_on_c, 4, 77, 0
6, 266108, Note_on_c, 4, 74, 127
6, 266244, Note_on_c, 4, 74, 0
6, 266300, Note_on_c, 4, 74, 127
6, 266880, Note_on_c, 4, 74, 0
6, 267264, Note_on_c, 4, 77, 127
6, 267364, Note_on_c, 4, 77, 0
6, 267456, Note_on_c, 4, 77, 127
6, 267812, Note_on_c, 4, 77, 0
6, 267832, Note_on_c, 4, 74, 122
6, 267992, Note_on_c, 4, 74, 0
6, 268024, Note_on_c, 4, 77, 127
6, 268156, Note_on_c, 4, 77, 0
6, 268216, Note_on_c, 4, 77, 126
6, 268336, Note_on_c, 4, 77, 0
6, 270332, Note_on_c, 4, 77, 127
6, 270460, Note_on_c, 4, 77, 0
6, 270716, Note_on_c, 4, 74, 127
6, 270824, Note_on_c, 4, 74, 0
6, 270904, Note_on_c, 4, 74, 127
6, 271428, Note_on_c, 4, 74, 0
6, 273404, Note_on_c, 4, 77, 127
6, 273508, Note_on_c, 4, 77, 0
6, 273600, Note_on_c, 4, 77, 127
6, 273956, Note_on_c, 4, 77, 0
6, 273976, Note_on_c, 4, 74, 122
6, 274140, Note_on_c, 4, 74, 0
6, 274168, Note_on_c, 4, 77, 127
6, 274300, Note_on_c, 4, 77, 0
6, 274364, Note_on_c, 4, 77, 126
6, 274484, Note_on_c, 4, 77, 0
6, 276476, Note_on_c, 4, 77, 127
6, 276604, Note_on_c, 4, 77, 0
6, 276860, Note_on_c, 4, 74, 127
6, 276968, Note_on_c, 4, 74, 0
6, 277048, Note_on_c, 4, 74, 127
6, 277572, Note_on_c, 4, 74, 0
6, 279548, Note_on_c, 4, 77, 127
6, 279652, Note_on_c, 4, 77, 0
6, 279736, Note_on_c, 4, 77, 127
6, 280092, Note_on_c, 4, 77, 0
6, 280124, Note_on_c, 4, 74, 122
6, 280288, Note_on_c, 4, 74, 0
6, 280312, Note_on_c, 4, 77, 127
6, 280444, Note_on_c, 4, 77, 0
6, 280508, Note_on_c, 4, 77, 126
6, 280628, Note_on_c, 4, 77, 0
6, 282620, Note_on_c, 4, 77, 127
6, 282748, Note_on_c, 4, 77, 0
6, 283004, Note_on_c, 4, 74, 127
6, 283112, Note_on_c, 4, 74, 0
6, 283196, Note_on_c, 4, 74, 127
6, 283716, Note_on_c, 4, 74, 0
6, 285692, Note_on_c, 4, 77, 127
6, 285796, Note_on_c, 4, 77, 0
6, 285880, Note_on_c, 4, 77, 127
6, 286236, Note_on_c, 4, 77, 0
6, 286268, Note_on_c, 4, 74, 122
6, 286432, Note_on_c, 4, 74, 0
6, 286464, Note_on_c, 4, 77, 127
6, 286596, Note_on_c, 4, 77, 0
6, 286648, Note_on_c, 4, 77, 126
6, 286768, Note_on_c, 4, 77, 0
6, 288764, Note_on_c, 4, 77, 127
6, 288892, Note_on_c, 4, 77, 0
6, 289144, Note_on_c, 4, 74, 127
6, 289248, Note_on_c, 4, 74, 0
6, 289336, Note_on_c, 4, 74, 127
6, 289856, Note_on_c, 4, 74, 0
6, 291840, Note_on_c, 4, 77, 127
6, 291948, Note_on_c, 4, 77, 0
6, 292032, Note_on_c, 4, 77, 127
6, 292388, Note_on_c, 4, 77, 0
6, 292408, Note_on_c, 4, 74, 122
6, 292572, Note_on_c, 4, 74, 0
6, 292600, Note_on_c, 4, 77, 127
6, 292732, Note_on_c, 4, 77, 0
6, 292796, Note_on_c, 4, 77, 126
6, 292916, Note_on_c, 4, 77, 0
6, 294912, Note_on_c, 4, 77, 127
6, 295040, Note_on_c, 4, 77, 0
6, 295288, Note_on_c, 4, 74, 127
6, 295392, Note_on_c, 4, 74, 0
6, 295480, Note_on_c, 4, 74, 127
6, 296000, Note_on_c, 4, 74, 0
6, 297976, Note_on_c, 4, 77, 127
6, 298080, Note_on_c, 4, 77, 0
6, 298172, Note_on_c, 4, 77, 127
6, 298528, Note_on_c, 4, 77, 0
6, 298552, Note_on_c, 4, 74, 122
6, 298712, Note_on_c, 4, 74, 0
6, 298748, Note_on_c, 4, 77, 127
6, 298880, Note_on_c, 4, 77, 0
6, 298936, Note_on_c, 4, 77, 126
6, 299056, Note_on_c, 4, 77, 0
6, 301048, Note_on_c, 4, 77, 127
6, 301176, Note_on_c, 4, 77, 0
6, 301440, Note_on_c, 4, 74, 127
6, 301544, Note_on_c, 4, 74, 0
6, 301628, Note_on_c, 4, 74, 127
6, 302148, Note_on_c, 4, 74, 0
6, 304120, Note_on_c, 4, 77, 127
6, 304228, Note_on_c, 4, 77, 0
6, 304316, Note_on_c, 4, 77, 127
6, 304672, Note_on_c, 4, 77, 0
6, 304696, Note_on_c, 4, 74, 122
6, 304860, Note_on_c, 4, 74, 0
6, 304888, Note_on_c, 4, 77, 127
6, 305020, Note_on_c, 4, 77, 0
6, 305080, Note_on_c, 4, 77, 126
6, 305200, Note_on_c, 4, 77, 0
6, 307192, Note_on_c, 4, 77, 127
6, 307320, Note_on_c, 4, 77, 0
6, 307584, Note_on_c, 4, 74, 127
6, 307688, Note_on_c, 4, 74, 0
6, 307772, Note_on_c, 4, 74, 127
6, 308292, Note_on_c, 4, 74, 0
6, 310268, Note_on_c, 4, 77, 127
6, 310372, Note_on_c, 4, 77, 0
6, 310456, Note_on_c, 4, 77, 127
6, 310812, Note_on_c, 4, 77, 0
6, 310844, Note_on_c, 4, 74, 122
6, 311008, Note_on_c, 4, 74, 0
6, 311032, Note_on_c, 4, 77, 127
6, 311164, Note_on_c, 4, 77, 0
6, 311232, Note_on_c, 4, 77, 126
6, 311352, Note_on_c, 4, 77, 0
6, 313336, Note_on_c, 4, 77, 127
6, 313464, Note_on_c, 4, 77, 0
6, 313720, Note_on_c, 4, 74, 127
6, 313828, Note_on_c, 4, 74, 0
6, 313912, Note_on_c, 4, 74, 127
6, 314436, Note_on_c, 4, 74, 0
6, 316800, Note_on_c, 4, 70, 127
6, 316800, Note_on_c, 4, 82, 127
6, 317140, Note_on_c, 4, 70, 0
6, 317184, Note_on_c, 4, 69, 115
6, 317184, Note_on_c, 4, 81, 127
6, 317188, Note_on_c, 4, 82, 0
6, 317568, Note_on_c, 4, 69, 0
6, 317568, Note_on_c, 4, 65, 113
6, 317568, Note_on_c, 4, 77, 114
6, 317572, Note_on_c, 4, 81, 0
6, 317824, Note_on_c, 4, 77, 0
6, 317824, Note_on_c, 4, 65, 0
6, 318336, Note_on_c, 4, 70, 127
6, 318336, Note_on_c, 4, 82, 127
6, 318700, Note_on_c, 4, 70, 0
6, 318716, Note_on_c, 4, 82, 0
6, 318720, Note_on_c, 4, 69, 122
6, 318720, Note_on_c, 4, 81, 120
6, 319096, Note_on_c, 4, 81, 0
6, 319100, Note_on_c, 4, 69, 0
6, 319104, Note_on_c, 4, 65, 110
6, 319104, Note_on_c, 4, 77, 112
6, 319352, Note_on_c, 4, 77, 0
6, 319352, Note_on_c, 4, 65, 0
6, 319872, Note_on_c, 4, 70, 127
6, 319872, Note_on_c, 4, 82, 127
6, 320232, Note_on_c, 4, 70, 0
6, 320256, Note_on_c, 4, 69, 126
6, 320256, Note_on_c, 4, 81, 121
6, 320264, Note_on_c, 4, 82, 0
6, 320620, Note_on_c, 4, 81, 0
6, 320628, Note_on_c, 4, 69, 0
6, 320640, Note_on_c, 4, 65, 120
6, 320640, Note_on_c, 4, 77, 125
6, 321000, Note_on_c, 4, 77, 0
6, 321016, Note_on_c, 4, 65, 0
6, 321024, Note_on_c, 4, 62, 120
6, 321024, Note_on_c, 4, 74, 122
6, 321396, Note_on_c, 4, 74, 0
6, 321400, Note_on_c, 4, 62, 0
6, 321408, Note_on_c, 4, 67, 114
6, 321408, Note_on_c, 4, 79, 123
6, 321716, Note_on_c, 4, 67, 0
6, 321744, Note_on_c, 4, 79, 0
6, 321792, Note_on_c, 4, 67, 114
6, 321792, Note_on_c, 4, 79, 114
6, 322384, Note_on_c, 4, 79, 0
6, 322384, Note_on_c, 4, 67, 0
6, 322944, Note_on_c, 4, 70, 127
6, 322944, Note_on_c, 4, 82, 127
6, 323284, Note_on_c, 4, 70, 0
6, 323320, Note_on_c, 4, 82, 0
6, 323328, Note_on_c, 4, 69, 121
6, 323328, Note_on_c, 4, 81, 125
6, 323704, Note_on_c, 4, 81, 0
6, 323708, Note_on_c, 4, 69, 0
6, 323712, Note_on_c, 4, 65, 117
6, 323712, Note_on_c, 4, 77, 111
6, 323988, Note_on_c, 4, 77, 0
6, 324012, Note_on_c, 4, 65, 0
6, 324480, Note_on_c, 4, 70, 127
6, 324480, Note_on_c, 4, 82, 127
6, 324832, Note_on_c, 4, 70, 0
6, 324860, Note_on_c, 4, 82, 0
6, 324864, Note_on_c, 4, 69, 121
6, 324864, Note_on_c, 4, 81, 122
6, 325248, Note_on_c, 4, 81, 0
6, 325248, Note_on_c, 4, 65, 98
6, 325248, Note_on_c, 4, 77, 110
6, 325256, Note_on_c, 4, 69, 0
6, 325532, Note_on_c, 4, 77, 0
6, 325544, Note_on_c, 4, 65, 0
6, 326016, Note_on_c, 4, 70, 126
6, 326016, Note_on_c, 4, 82, 127
6, 326384, Note_on_c, 4, 70, 0
6, 326400, Note_on_c, 4, 69, 119
6, 326400, Note_on_c, 4, 81, 120
6, 326416, Note_on_c, 4, 82, 0
6, 326752, Note_on_c, 4, 81, 0
6, 326776, Note_on_c, 4, 69, 0
6, 326784, Note_on_c, 4, 65, 108
6, 326784, Note_on_c, 4, 77, 119
6, 327136, Note_on_c, 4, 77, 0
6, 327152, Note_on_c, 4, 65, 0
6, 327168, Note_on_c, 4, 62, 113
6, 327168, Note_on_c, 4, 74, 114
6, 327552, Note_on_c, 4, 67, 112
6, 327552, Note_on_c, 4, 79, 118
6, 327556, Note_on_c, 4, 62, 0
6, 327580, Note_on_c, 4, 74, 0
6, 327884, Note_on_c, 4, 67, 0
6, 327928, Note_on_c, 4, 79, 0
6, 327936, Note_on_c, 4, 67, 122
6, 327936, Note_on_c, 4, 79, 104
6, 328496, Note_on_c, 4, 67, 0
6, 328500, Note_on_c, 4, 79, 0
6, 329088, Note_on_c, 4, 70, 127
6, 329088, Note_on_c, 4, 82, 127
6, 329428, Note_on_c, 4, 70, 0
6, 329472, Note_on_c, 4, 69, 115
6, 329472, Note_on_c, 4, 81, 127
6, 329476, Note_on_c, 4, 82, 0
6, 329856, Note_on_c, 4, 69, 0
6, 329856, Note_on_c, 4, 65, 113
6, 329856, Note_on_c, 4, 77, 114
6, 329860, Note_on_c, 4, 81, 0
6, 330112, Note_on_c, 4, 77, 0
6, 330112, Note_on_c, 4, 65, 0
6, 330624, Note_on_c, 4, 70, 127
6, 330624, Note_on_c, 4, 82, 127
6, 330988, Note_on_c, 4, 70, 0
6, 331004, Note_on_c, 4, 82, 0
6, 331008, Note_on_c, 4, 69, 122
6, 331008, Note_on_c, 4, 81, 120
6, 331384, Note_on_c, 4, 81, 0
6, 331388, Note_on_c, 4, 69, 0
6, 331392, Note_on_c, 4, 65, 110
6, 331392, Note_on_c, 4, 77, 112
6, 331640, Note_on_c, 4, 77, 0
6, 331640, Note_on_c, 4, 65, 0
6, 332160, Note_on_c, 4, 70, 127
6, 332160, Note_on_c, 4, 82, 127
6, 332520, Note_on_c, 4, 70, 0
6, 332544, Note_on_c, 4, 69, 126
6, 332544, Note_on_c, 4, 81, 121
6, 332552, Note_on_c, 4, 82, 0
6, 332908, Note_on_c, 4, 81, 0
6, 332916, Note_on_c, 4, 69, 0
6, 332928, Note_on_c, 4, 65, 120
6, 332928, Note_on_c, 4, 77, 125
6, 333288, Note_on_c, 4, 77, 0
6, 333304, Note_on_c, 4, 65, 0
6, 333312, Note_on_c, 4, 62, 120
6, 333312, Note_on_c, 4, 74, 122
6, 333684, Note_on_c, 4, 74, 0
6, 333688, Note_on_c, 4, 62, 0
6, 333696, Note_on_c, 4, 67, 114
6, 333696, Note_on_c, 4, 79, 123
6, 334004, Note_on_c, 4, 67, 0
6, 334032, Note_on_c, 4, 79, 0
6, 334080, Note_on_c, 4, 67, 114
6, 334080, Note_on_c, 4, 79, 114
6, 334672, Note_on_c, 4, 79, 0
6, 334672, Note_on_c, 4, 67, 0
6, 335232, Note_on_c, 4, 70, 127
6, 335232, Note_on_c, 4, 82, 127
6, 335572, Note_on_c, 4, 70, 0
6, 335608, Note_on_c, 4, 82, 0
6, 335616, Note_on_c, 4, 69, 121
6, 335616, Note_on_c, 4, 81, 125
6, 335992, Note_on_c, 4, 81, 0
6, 335996, Note_on_c, 4, 69, 0
6, 336000, Note_on_c, 4, 65, 117
6, 336000, Note_on_c, 4, 77, 111
6, 336276, Note_on_c, 4, 77, 0
6, 336300, Note_on_c, 4, 65, 0
6, 336768, Note_on_c, 4, 70, 127
6, 336768, Note_on_c, 4, 82, 127
6, 337120, Note_on_c, 4, 70, 0
6, 337148, Note_on_c, 4, 82, 0
6, 337152, Note_on_c, 4, 69, 121
6, 337152, Note_on_c, 4, 81, 122
6, 337536, Note_on_c, 4, 81, 0
6, 337536, Note_on_c, 4, 65, 98
6, 337536, Note_on_c, 4, 77, 110
6, 337544, Note_on_c, 4, 69, 0
6, 337820, Note_on_c, 4, 77, 0
6, 337832, Note_on_c, 4, 65, 0
6, 338304, Note_on_c, 4, 70, 126
6, 338304, Note_on_c, 4, 82, 127
6, 338672, Note_on_c, 4, 70, 0
6, 338688, Note_on_c, 4, 69, 119
6, 338688, Note_on_c, 4, 81, 120
6, 338704, Note_on_c, 4, 82, 0
6, 339040, Note_on_c, 4, 81, 0
6, 339064, Note_on_c, 4, 69, 0
6, 339072, Note_on_c, 4, 65, 108
6, 339072, Note_on_c, 4, 77, 119
6, 339424, Note_on_c, 4, 77, 0
6, 339440, Note_on_c, 4, 65, 0
6, 339456, Note_on_c, 4, 62, 113
6, 339456, Note_on_c, 4, 74, 114
6, 339840, Note_on_c, 4, 67, 112
6, 339840, Note_on_c, 4, 79, 118
6, 339844, Note_on_c, 4, 62, 0
6, 339868, Note_on_c, 4, 74, 0
6, 340172, Note_on_c, 4, 67, 0
6, 340216, Note_on_c, 4, 79, 0
6, 340224, Note_on_c, 4, 67, 122
6, 340224, Note_on_c, 4, 79, 104
6, 340784, Note_on_c, 4, 67, 0
6, 340788, Note_on_c, 4, 79, 0
6, 341376, Note_on_c, 4, 70, 127
6, 341376, Note_on_c, 4, 82, 127
6, 341716, Note_on_c, 4, 70, 0
6, 341760, Note_on_c, 4, 69, 115
6, 341760, Note_on_c, 4, 81, 127
6, 341764, Note_on_c, 4, 82, 0
6, 342144, Note_on_c, 4, 69, 0
6, 342144, Note_on_c, 4, 65, 113
6, 342144, Note_on_c, 4, 77, 114
6, 342148, Note_on_c, 4, 81, 0
6, 342400, Note_on_c, 4, 77, 0
6, 342400, Note_on_c, 4, 65, 0
6, 342912, Note_on_c, 4, 70, 127
6, 342912, Note_on_c, 4, 82, 127
6, 343276, Note_on_c, 4, 70, 0
6, 343292, Note_on_c, 4, 82, 0
6, 343296, Note_on_c, 4, 69, 122
6, 343296, Note_on_c, 4, 81, 120
6, 343672, Note_on_c, 4, 81, 0
6, 343676, Note_on_c, 4, 69, 0
6, 343680, Note_on_c, 4, 65, 110
6, 343680, Note_on_c, 4, 77, 112
6, 343928, Note_on_c, 4, 77, 0
6, 343928, Note_on_c, 4, 65, 0
6, 344448, Note_on_c, 4, 70, 127
6, 344448, Note_on_c, 4, 82, 127
6, 344808, Note_on_c, 4, 70, 0
6, 344832, Note_on_c, 4, 69, 126
6, 344832, Note_on_c, 4, 81, 121
6, 344840, Note_on_c, 4, 82, 0
6, 345196, Note_on_c, 4, 81, 0
6, 345204, Note_on_c, 4, 69, 0
6, 345216, Note_on_c, 4, 65, 120
6, 345216, Note_on_c, 4, 77, 125
6, 345576, Note_on_c, 4, 77, 0
6, 345592, Note_on_c, 4, 65, 0
6, 345600, Note_on_c, 4, 62, 120
6, 345600, Note_on_c, 4, 74, 122
6, 345972, Note_on_c, 4, 74, 0
6, 345976, Note_on_c, 4, 62, 0
6, 345984, Note_on_c, 4, 67, 114
6, 345984, Note_on_c, 4, 79, 123
6, 346292, Note_on_c, 4, 67, 0
6, 346320, Note_on_c, 4, 79, 0
6, 346368, Note_on_c, 4, 67, 114
6, 346368, Note_on_c, 4, 79, 114
6, 346960, Note_on_c, 4, 79, 0
6, 346960, Note_on_c, 4, 67, 0
6, 347520, Note_on_c, 4, 70, 127
6, 347520, Note_on_c, 4, 82, 127
6, 347860, Note_on_c, 4, 70, 0
6, 347896, Note_on_c, 4, 82, 0
6, 347904, Note_on_c, 4, 69, 121
6, 347904, Note_on_c, 4, 81, 125
6, 348280, Note_on_c, 4, 81, 0
6, 348284, Note_on_c, 4, 69, 0
6, 348288, Note_on_c, 4, 65, 117
6, 348288, Note_on_c, 4, 77, 111
6, 348564, Note_on_c, 4, 77, 0
6, 348588, Note_on_c, 4, 65, 0
6, 349056, Note_on_c, 4, 70, 127
6, 349056, Note_on_c, 4, 82, 127
6, 349408, Note_on_c, 4, 70, 0
6, 349436, Note_on_c, 4, 82, 0
6, 349440, Note_on_c, 4, 69, 121
6, 349440, Note_on_c, 4, 81, 122
6, 349824, Note_on_c, 4, 81, 0
6, 349824, Note_on_c, 4, 65, 98
6, 349824, Note_on_c, 4, 77, 110
6, 349832, Note_on_c, 4, 69, 0
6, 350108, Note_on_c, 4, 77, 0
6, 350120, Note_on_c, 4, 65, 0
6, 350592, Note_on_c, 4, 70, 126
6, 350592, Note_on_c, 4, 82, 127
6, 350960, Note_on_c, 4, 70, 0
6, 350976, Note_on_c, 4, 69, 119
6, 350976, Note_on_c, 4, 81, 120
6, 350992, Note_on_c, 4, 82, 0
6, 351328, Note_on_c, 4, 81, 0
6, 351352, Note_on_c, 4, 69, 0
6, 351360, Note_on_c, 4, 65, 108
6, 351360, Note_on_c, 4, 77, 119
6, 351712, Note_on_c, 4, 77, 0
6, 351728, Note_on_c, 4, 65, 0
6, 351744, Note_on_c, 4, 62, 113
6, 351744, Note_on_c, 4, 74, 114
6, 352128, Note_on_c, 4, 67, 112
6, 352128, Note_on_c, 4, 79, 118
6, 352132, Note_on_c, 4, 62, 0
6, 352156, Note_on_c, 4, 74, 0
6, 352460, Note_on_c, 4, 67, 0
6, 352504, Note_on_c, 4, 79, 0
6, 352512, Note_on_c, 4, 67, 122
6, 352512, Note_on_c, 4, 79, 104
6, 353072, Note_on_c, 4, 67, 0
6, 353076, Note_on_c, 4, 79, 0
6, 353076, End_track
7, 0, Start_track
7, 0, MIDI_port, 0
7, 0, Title_t, "SynthBass"
7, 0, Program_c, 5, 39
7, 0, Control_c, 5, 7, 127
7, 0, Control_c, 5, 10, 44
7, 0, Control_c, 5, 0, 0
7, 232, Control_c, 5, 121, 127
7, 328, Control_c, 5, 0, 8
7, 328, Control_c, 5, 32, 0
7, 616, Control_c, 5, 91, 60
7, 712, Control_c, 5, 93, 40
7, 36780, Note_on_c, 5, 55, 79
7, 36996, Note_on_c, 5, 43, 95
7, 37004, Note_on_c, 5, 55, 0
7, 37536, Note_on_c, 5, 55, 94
7, 37540, Note_on_c, 5, 55, 0
7, 38156, Note_on_c, 5, 43, 0
7, 39620, Note_on_c, 5, 55, 81
7, 39852, Note_on_c, 5, 43, 96
7, 39860, Note_on_c, 5, 55, 0
7, 40364, Note_on_c, 5, 43, 0
7, 40364, Note_on_c, 5, 55, 93
7, 40880, Note_on_c, 5, 55, 0
7, 43128, Note_on_c, 5, 55, 76
7, 43380, Note_on_c, 5, 55, 0
7, 43384, Note_on_c, 5, 43, 94
7, 43928, Note_on_c, 5, 43, 0
7, 43932, Note_on_c, 5, 55, 93
7, 44520, Note_on_c, 5, 55, 0
7, 59952, Note_on_c, 5, 55, 76
7, 60156, Note_on_c, 5, 55, 0
7, 60164, Note_on_c, 5, 43, 100
7, 60644, Note_on_c, 5, 55, 96
7, 60652, Note_on_c, 5, 55, 0
7, 61040, Note_on_c, 5, 43, 0
7, 62816, Note_on_c, 5, 55, 77
7, 63032, Note_on_c, 5, 55, 0
7, 63044, Note_on_c, 5, 43, 102
7, 63508, Note_on_c, 5, 55, 99
7, 63512, Note_on_c, 5, 55, 0
7, 63964, Note_on_c, 5, 43, 0
7, 107328, Note_on_c, 5, 55, 115
7, 107480, Note_on_c, 5, 55, 0
7, 107520, Note_on_c, 5, 43, 120
7, 107880, Note_on_c, 5, 43, 0
7, 113472, Note_on_c, 5, 55, 120
7, 113652, Note_on_c, 5, 55, 0
7, 113664, Note_on_c, 5, 43, 120
7, 114076, Note_on_c, 5, 43, 0
7, 119616, Note_on_c, 5, 55, 120
7, 119788, Note_on_c, 5, 55, 0
7, 119808, Note_on_c, 5, 43, 120
7, 120176, Note_on_c, 5, 43, 0
7, 128832, Note_on_c, 5, 55, 120
7, 129020, Note_on_c, 5, 55, 0
7, 129024, Note_on_c, 5, 43, 120
7, 129420, Note_on_c, 5, 43, 0
7, 153408, Note_on_c, 5, 53, 120
7, 153596, Note_on_c, 5, 53, 0
7, 153600, Note_on_c, 5, 43, 120
7, 153996, Note_on_c, 5, 43, 0
7, 174912, Note_on_c, 5, 55, 120
7, 175100, Note_on_c, 5, 55, 0
7, 175104, Note_on_c, 5, 43, 120
7, 175500, Note_on_c, 5, 43, 0
7, 177984, Note_on_c, 5, 55, 120
7, 178172, Note_on_c, 5, 55, 0
7, 178176, Note_on_c, 5, 43, 120
7, 178572, Note_on_c, 5, 43, 0
7, 179520, Note_on_c, 5, 58, 120
7, 179708, Note_on_c, 5, 58, 0
7, 179712, Note_on_c, 5, 46, 120
7, 180108, Note_on_c, 5, 46, 0
7, 180288, Note_on_c, 5, 60, 120
7, 180476, Note_on_c, 5, 60, 0
7, 180480, Note_on_c, 5, 48, 120
7, 180876, Note_on_c, 5, 48, 0
7, 181056, Note_on_c, 5, 55, 120
7, 181244, Note_on_c, 5, 55, 0
7, 181248, Note_on_c, 5, 43, 120
7, 181644, Note_on_c, 5, 43, 0
7, 184128, Note_on_c, 5, 55, 120
7, 184316, Note_on_c, 5, 55, 0
7, 184320, Note_on_c, 5, 43, 120
7, 184716, Note_on_c, 5, 43, 0
7, 185664, Note_on_c, 5, 53, 120
7, 185852, Note_on_c, 5, 53, 0
7, 185856, Note_on_c, 5, 41, 120
7, 186252, Note_on_c, 5, 41, 0
7, 186432, Note_on_c, 5, 55, 120
7, 186620, Note_on_c, 5, 55, 0
7, 186624, Note_on_c, 5, 43, 120
7, 187020, Note_on_c, 5, 43, 0
7, 202560, Note_on_c, 5, 55, 120
7, 202748, Note_on_c, 5, 55, 0
7, 213312, Note_on_c, 5, 53, 120
7, 213500, Note_on_c, 5, 53, 0
7, 213504, Note_on_c, 5, 41, 120
7, 213900, Note_on_c, 5, 41, 0
7, 214848, Note_on_c, 5, 55, 120
7, 215036, Note_on_c, 5, 55, 0
7, 215040, Note_on_c, 5, 43, 120
7, 215436, Note_on_c, 5, 43, 0
7, 217920, Note_on_c, 5, 55, 120
7, 218108, Note_on_c, 5, 55, 0
7, 218112, Note_on_c, 5, 43, 120
7, 218508, Note_on_c, 5, 43, 0
7, 219456, Note_on_c, 5, 58, 120
7, 219644, Note_on_c, 5, 58, 0
7, 219648, Note_on_c, 5, 46, 120
7, 220044, Note_on_c, 5, 46, 0
7, 220224, Note_on_c, 5, 60, 120
7, 220412, Note_on_c, 5, 60, 0
7, 220416, Note_on_c, 5, 48, 120
7, 220812, Note_on_c, 5, 48, 0
7, 220992, Note_on_c, 5, 55, 120
7, 221180, Note_on_c, 5, 55, 0
7, 221184, Note_on_c, 5, 43, 120
7, 221580, Note_on_c, 5, 43, 0
7, 242496, Note_on_c, 5, 55, 120
7, 242684, Note_on_c, 5, 55, 0
7, 251712, Note_on_c, 5, 55, 120
7, 251900, Note_on_c, 5, 55, 0
7, 251904, Note_on_c, 5, 43, 120
7, 252300, Note_on_c, 5, 43, 0
7, 253248, Note_on_c, 5, 53, 120
7, 253436, Note_on_c, 5, 53, 0
7, 253440, Note_on_c, 5, 41, 120
7, 253836, Note_on_c, 5, 41, 0
7, 254016, Note_on_c, 5, 55, 120
7, 254204, Note_on_c, 5, 55, 0
7, 254208, Note_on_c, 5, 43, 120
7, 254604, Note_on_c, 5, 43, 0
7, 270144, Note_on_c, 5, 55, 120
7, 270332, Note_on_c, 5, 55, 0
7, 270336, Note_on_c, 5, 43, 120
7, 270732, Note_on_c, 5, 43, 0
7, 271680, Note_on_c, 5, 58, 120
7, 271868, Note_on_c, 5, 58, 0
7, 271872, Note_on_c, 5, 46, 120
7, 272268, Note_on_c, 5, 46, 0
7, 272448, Note_on_c, 5, 60, 120
7, 272636, Note_on_c, 5, 60, 0
7, 272640, Note_on_c, 5, 48, 120
7, 273036, Note_on_c, 5, 48, 0
7, 273216, Note_on_c, 5, 55, 120
7, 273404, Note_on_c, 5, 55, 0
7, 273408, Note_on_c, 5, 43, 120
7, 273804, Note_on_c, 5, 43, 0
7, 290112, Note_on_c, 5, 53, 120
7, 290300, Note_on_c, 5, 53, 0
7, 290304, Note_on_c, 5, 41, 120
7, 290700, Note_on_c, 5, 41, 0
7, 290880, Note_on_c, 5, 55, 120
7, 291068, Note_on_c, 5, 55, 0
7, 291072, Note_on_c, 5, 43, 120
7, 291468, Note_on_c, 5, 43, 0
7, 291648, Note_on_c, 5, 55, 120
7, 291836, Note_on_c, 5, 55, 0
7, 291840, Note_on_c, 5, 43, 120
7, 292236, Note_on_c, 5, 43, 0
7, 302400, Note_on_c, 5, 53, 120
7, 302588, Note_on_c, 5, 53, 0
7, 302592, Note_on_c, 5, 41, 120
7, 302988, Note_on_c, 5, 41, 0
7, 303168, Note_on_c, 5, 55, 120
7, 303356, Note_on_c, 5, 55, 0
7, 303360, Note_on_c, 5, 43, 120
7, 303756, Note_on_c, 5, 43, 0
7, 303936, Note_on_c, 5, 55, 120
7, 304124, Note_on_c, 5, 55, 0
7, 304128, Note_on_c, 5, 43, 120
7, 304524, Note_on_c, 5, 43, 0
7, 314688, Note_on_c, 5, 53, 120
7, 314876, Note_on_c, 5, 53, 0
7, 314880, Note_on_c, 5, 41, 120
7, 315276, Note_on_c, 5, 41, 0
7, 326976, Note_on_c, 5, 53, 120
7, 327164, Note_on_c, 5, 53, 0
7, 327168, Note_on_c, 5, 41, 120
7, 327564, Note_on_c, 5, 41, 0
7, 340992, Note_on_c, 5, 43, 120
7, 341388, Note_on_c, 5, 43, 0
7, 345408, Note_on_c, 5, 58, 120
7, 345596, Note_on_c, 5, 58, 0
7, 345600, Note_on_c, 5, 46, 120
7, 345996, Note_on_c, 5, 46, 0
7, 346176, Note_on_c, 5, 60, 120
7, 346364, Note_on_c, 5, 60, 0
7, 346368, Note_on_c, 5, 48, 120
7, 346764, Note_on_c, 5, 48, 0
7, 346944, Note_on_c, 5, 55, 120
7, 347132, Note_on_c, 5, 55, 0
7, 347136, Note_on_c, 5, 43, 120
7, 347532, Note_on_c, 5, 43, 0
7, 350016, Note_on_c, 5, 55, 120
7, 350204, Note_on_c, 5, 55, 0
7, 350208, Note_on_c, 5, 43, 120
7, 350604, Note_on_c, 5, 43, 0
7, 357696, Note_on_c, 5, 58, 120
7, 357884, Note_on_c, 5, 58, 0
7, 357888, Note_on_c, 5, 46, 120
7, 358284, Note_on_c, 5, 46, 0
7, 358464, Note_on_c, 5, 60, 120
7, 358652, Note_on_c, 5, 60, 0
7, 358656, Note_on_c, 5, 48, 120
7, 359052, Note_on_c, 5, 48, 0
7, 359232, Note_on_c, 5, 55, 120
7, 359420, Note_on_c, 5, 55, 0
7, 359424, Note_on_c, 5, 43, 120
7, 359820, Note_on_c, 5, 43, 0
7, 369984, Note_on_c, 5, 58, 120
7, 370172, Note_on_c, 5, 58, 0
7, 370176, Note_on_c, 5, 46, 120
7, 370572, Note_on_c, 5, 46, 0
7, 370752, Note_on_c, 5, 60, 120
7, 370940, Note_on_c, 5, 60, 0
7, 370944, Note_on_c, 5, 48, 120
7, 371340, Note_on_c, 5, 48, 0
7, 371520, Note_on_c, 5, 55, 120
7, 371708, Note_on_c, 5, 55, 0
7, 371712, Note_on_c, 5, 43, 120
7, 372108, Note_on_c, 5, 43, 0
7, 380736, Note_on_c, 5, 55, 120
7, 380924, Note_on_c, 5, 55, 0
7, 380928, Note_on_c, 5, 43, 120
7, 381324, Note_on_c, 5, 43, 0
7, 388416, Note_on_c, 5, 53, 120
7, 388604, Note_on_c, 5, 53, 0
7, 388608, Note_on_c, 5, 41, 120
7, 389004, Note_on_c, 5, 41, 0
7, 389184, Note_on_c, 5, 55, 120
7, 389372, Note_on_c, 5, 55, 0
7, 389376, Note_on_c, 5, 43, 120
7, 389772, Note_on_c, 5, 43, 0
7, 389952, Note_on_c, 5, 55, 120
7, 390140, Note_on_c, 5, 55, 0
7, 390144, Note_on_c, 5, 43, 120
7, 390540, Note_on_c, 5, 43, 0
7, 400704, Note_on_c, 5, 53, 120
7, 400892, Note_on_c, 5, 53, 0
7, 400896, Note_on_c, 5, 41, 120
7, 401292, Note_on_c, 5, 41, 0
7, 401472, Note_on_c, 5, 55, 120
7, 401660, Note_on_c, 5, 55, 0
7, 401664, Note_on_c, 5, 43, 120
7, 402060, Note_on_c, 5, 43, 0
7, 402240, Note_on_c, 5, 55, 120
7, 402428, Note_on_c, 5, 55, 0
7, 402432, Note_on_c, 5, 43, 120
7, 402828, Note_on_c, 5, 43, 0
7, 402844, Control_c, 5, 7, 125
7, 402884, Control_c, 5, 7, 124
7, 403012, Control_c, 5, 7, 123
7, 403232, Control_c, 5, 7, 122
7, 403412, Control_c, 5, 7, 121
7, 403500, Control_c, 5, 7, 120
7, 403632, Control_c, 5, 7, 119
7, 403704, Control_c, 5, 7, 118
7, 403936, Control_c, 5, 7, 116
7, 404004, Control_c, 5, 7, 115
7, 404180, Control_c, 5, 7, 114
7, 404240, Control_c, 5, 7, 113
7, 404384, Control_c, 5, 7, 112
7, 404456, Control_c, 5, 7, 111
7, 404628, Control_c, 5, 7, 110
7, 404688, Control_c, 5, 7, 109
7, 404844, Control_c, 5, 7, 107
7, 404920, Control_c, 5, 7, 106
7, 405088, Control_c, 5, 7, 105
7, 405132, Control_c, 5, 7, 104
7, 405288, Control_c, 5, 7, 103
7, 405352, Control_c, 5, 7, 102
7, 405524, Control_c, 5, 7, 101
7, 405588, Control_c, 5, 7, 100
7, 405736, Control_c, 5, 7, 98
7, 405780, Control_c, 5, 7, 97
7, 405876, Control_c, 5, 7, 96
7, 405940, Control_c, 5, 7, 95
7, 406040, Control_c, 5, 7, 94
7, 406112, Control_c, 5, 7, 93
7, 406212, Control_c, 5, 7, 92
7, 406292, Control_c, 5, 7, 91
7, 406404, Control_c, 5, 7, 89
7, 406504, Control_c, 5, 7, 88
7, 406676, Control_c, 5, 7, 87
7, 406788, Control_c, 5, 7, 86
7, 406904, Control_c, 5, 7, 85
7, 407004, Control_c, 5, 7, 84
7, 407124, Control_c, 5, 7, 83
7, 407220, Control_c, 5, 7, 82
7, 407348, Control_c, 5, 7, 80
7, 407452, Control_c, 5, 7, 79
7, 407580, Control_c, 5, 7, 78
7, 407708, Control_c, 5, 7, 77
7, 407780, Control_c, 5, 7, 76
7, 407880, Control_c, 5, 7, 75
7, 408008, Control_c, 5, 7, 74
7, 408120, Control_c, 5, 7, 73
7, 408200, Control_c, 5, 7, 71
7, 408312, Control_c, 5, 7, 70
7, 408392, Control_c, 5, 7, 69
7, 408476, Control_c, 5, 7, 68
7, 408536, Control_c, 5, 7, 67
7, 408648, Control_c, 5, 7, 66
7, 408708, Control_c, 5, 7, 65
7, 408780, Control_c, 5, 7, 64
7, 408840, Control_c, 5, 7, 62
7, 408936, Control_c, 5, 7, 61
7, 409000, Control_c, 5, 7, 60
7, 409100, Control_c, 5, 7, 59
7, 409172, Control_c, 5, 7, 58
7, 409256, Control_c, 5, 7, 57
7, 409360, Control_c, 5, 7, 56
7, 409444, Control_c, 5, 7, 55
7, 409532, Control_c, 5, 7, 53
7, 409628, Control_c, 5, 7, 52
7, 409748, Control_c, 5, 7, 51
7, 409860, Control_c, 5, 7, 50
7, 409948, Control_c, 5, 7, 49
7, 410060, Control_c, 5, 7, 48
7, 410176, Control_c, 5, 7, 47
7, 410264, Control_c, 5, 7, 46
7, 410352, Control_c, 5, 7, 44
7, 410412, Control_c, 5, 7, 43
7, 410540, Control_c, 5, 7, 42
7, 410600, Control_c, 5, 7, 41
7, 410704, Control_c, 5, 7, 40
7, 410800, Control_c, 5, 7, 39
7, 410960, Control_c, 5, 7, 38
7, 411044, Control_c, 5, 7, 37
7, 411188, Control_c, 5, 7, 35
7, 411280, Control_c, 5, 7, 34
7, 411476, Control_c, 5, 7, 33
7, 411540, Control_c, 5, 7, 32
7, 411684, Control_c, 5, 7, 31
7, 411748, Control_c, 5, 7, 30
7, 411900, Control_c, 5, 7, 29
7, 411956, Control_c, 5, 7, 28
7, 412072, Control_c, 5, 7, 26
7, 412116, Control_c, 5, 7, 25
7, 412204, Control_c, 5, 7, 24
7, 412244, Control_c, 5, 7, 23
7, 412344, Control_c, 5, 7, 22
7, 412388, Control_c, 5, 7, 21
7, 412556, Control_c, 5, 7, 20
7, 412620, Control_c, 5, 7, 19
7, 412744, Control_c, 5, 7, 17
7, 412812, Control_c, 5, 7, 16
7, 412940, Control_c, 5, 7, 15
7, 412984, Control_c, 5, 7, 14
7, 412992, Note_on_c, 5, 53, 120
7, 413116, Control_c, 5, 7, 13
7, 413176, Control_c, 5, 7, 12
7, 413180, Note_on_c, 5, 53, 0
7, 413184, Note_on_c, 5, 41, 120
7, 413308, Control_c, 5, 7, 11
7, 413372, Control_c, 5, 7, 10
7, 413432, Control_c, 5, 7, 8
7, 413476, Control_c, 5, 7, 7
7, 413580, Note_on_c, 5, 41, 0
7, 413584, Control_c, 5, 7, 6
7, 413624, Control_c, 5, 7, 5
7, 413704, Control_c, 5, 7, 4
7, 413760, Note_on_c, 5, 55, 120
7, 413764, Control_c, 5, 7, 3
7, 413848, Control_c, 5, 7, 2
7, 413916, Control_c, 5, 7, 1
7, 413948, Note_on_c, 5, 55, 0
7, 413952, Note_on_c, 5, 43, 120
7, 414028, Control_c, 5, 7, 0
7, 414348, Note_on_c, 5, 43, 0
7, 414528, Note_on_c, 5, 55, 120
7, 414716, Note_on_c, 5, 55, 0
7, 414716, End_track
8, 0, Start_track
8, 0, MIDI_port, 0
8, 0, Title_t, "Guitar"
8, 0, Program_c, 6, 29
8, 0, Control_c, 6, 7, 127
8, 0, Control_c, 6, 10, 94
8, 0, Control_c, 6, 0, 0
8, 236, Control_c, 6, 121, 127
8, 332, Control_c, 6, 0, 0
8, 332, Control_c, 6, 32, 0
8, 620, Control_c, 6, 91, 100
8, 716, Control_c, 6, 93, 40
8, 74880, Note_on_c, 6, 43, 127
8, 74880, Note_on_c, 6, 50, 127
8, 75644, Note_on_c, 6, 50, 0
8, 75644, Note_on_c, 6, 43, 0
8, 75648, Note_on_c, 6, 41, 127
8, 75648, Note_on_c, 6, 48, 127
8, 76028, Note_on_c, 6, 48, 0
8, 76028, Note_on_c, 6, 41, 0
8, 76032, Note_on_c, 6, 43, 116
8, 76032, Note_on_c, 6, 50, 115
8, 76100, Note_on_c, 6, 50, 0
8, 76120, Note_on_c, 6, 43, 0
8, 76416, Note_on_c, 6, 43, 123
8, 76416, Note_on_c, 6, 50, 127
8, 76796, Note_on_c, 6, 50, 0
8, 76796, Note_on_c, 6, 43, 0
8, 76800, Note_on_c, 6, 41, 117
8, 76800, Note_on_c, 6, 48, 116
8, 76912, Note_on_c, 6, 48, 0
8, 76932, Note_on_c, 6, 41, 0
8, 82944, Note_on_c, 6, 55, 127
8, 82944, Note_on_c, 6, 62, 127
8, 83028, Note_on_c, 6, 62, 0
8, 83028, Note_on_c, 6, 55, 0
8, 83328, Note_on_c, 6, 55, 127
8, 83328, Note_on_c, 6, 62, 127
8, 83704, Note_on_c, 6, 62, 0
8, 83704, Note_on_c, 6, 55, 0
8, 83712, Note_on_c, 6, 55, 127
8, 83712, Note_on_c, 6, 62, 127
8, 83892, Note_on_c, 6, 62, 0
8, 83904, Note_on_c, 6, 60, 127
8, 84084, Note_on_c, 6, 55, 0
8, 84092, Note_on_c, 6, 60, 0
8, 84096, Note_on_c, 6, 55, 127
8, 84096, Note_on_c, 6, 62, 127
8, 84280, Note_on_c, 6, 62, 0
8, 84288, Note_on_c, 6, 65, 127
8, 84468, Note_on_c, 6, 65, 0
8, 84468, Note_on_c, 6, 55, 0
8, 84480, Note_on_c, 6, 55, 127
8, 84480, Note_on_c, 6, 65, 127
8, 84848, Note_on_c, 6, 55, 0
8, 84852, Note_on_c, 6, 65, 0
8, 84864, Note_on_c, 6, 55, 127
8, 84864, Note_on_c, 6, 62, 127
8, 85040, Note_on_c, 6, 62, 0
8, 85056, Note_on_c, 6, 60, 127
8, 85236, Note_on_c, 6, 60, 0
8, 85236, Note_on_c, 6, 55, 0
8, 85248, Note_on_c, 6, 55, 127
8, 85248, Note_on_c, 6, 60, 127
8, 85432, Note_on_c, 6, 60, 0
8, 85440, Note_on_c, 6, 58, 127
8, 85616, Note_on_c, 6, 55, 0
8, 85632, Note_on_c, 6, 50, 127
8, 85716, Note_on_c, 6, 58, 0
8, 85812, Note_on_c, 6, 50, 0
8, 85824, Note_on_c, 6, 55, 127
8, 85900, Note_on_c, 6, 55, 0
8, 86016, Note_on_c, 6, 50, 127
8, 86016, Note_on_c, 6, 55, 127
8, 86088, Note_on_c, 6, 55, 0
8, 86092, Note_on_c, 6, 50, 0
8, 86400, Note_on_c, 6, 50, 127
8, 86400, Note_on_c, 6, 55, 127
8, 86764, Note_on_c, 6, 55, 0
8, 86768, Note_on_c, 6, 50, 0
8, 86784, Note_on_c, 6, 50, 127
8, 86784, Note_on_c, 6, 55, 127
8, 86956, Note_on_c, 6, 55, 0
8, 86976, Note_on_c, 6, 58, 127
8, 87140, Note_on_c, 6, 58, 0
8, 87156, Note_on_c, 6, 50, 0
8, 87168, Note_on_c, 6, 50, 127
8, 87244, Note_on_c, 6, 50, 0
8, 87360, Note_on_c, 6, 50, 127
8, 87432, Note_on_c, 6, 50, 0
8, 87552, Note_on_c, 6, 53, 127
8, 87552, Note_on_c, 6, 58, 127
8, 87920, Note_on_c, 6, 58, 0
8, 87928, Note_on_c, 6, 53, 0
8, 87936, Note_on_c, 6, 55, 127
8, 87936, Note_on_c, 6, 60, 127
8, 88012, Note_on_c, 6, 60, 0
8, 88016, Note_on_c, 6, 55, 0
8, 88320, Note_on_c, 6, 55, 127
8, 88320, Note_on_c, 6, 60, 127
8, 88688, Note_on_c, 6, 60, 0
8, 88692, Note_on_c, 6, 55, 0
8, 88704, Note_on_c, 6, 53, 127
8, 88704, Note_on_c, 6, 58, 127
8, 88772, Note_on_c, 6, 53, 0
8, 88868, Note_on_c, 6, 58, 0
8, 88896, Note_on_c, 6, 55, 127
8, 89000, Note_on_c, 6, 55, 0
8, 89088, Note_on_c, 6, 55, 127
8, 89088, Note_on_c, 6, 62, 127
8, 89148, Note_on_c, 6, 55, 0
8, 89168, Note_on_c, 6, 62, 0
8, 89472, Note_on_c, 6, 55, 127
8, 89472, Note_on_c, 6, 62, 127
8, 89836, Note_on_c, 6, 62, 0
8, 89844, Note_on_c, 6, 55, 0
8, 89856, Note_on_c, 6, 55, 127
8, 89856, Note_on_c, 6, 62, 127
8, 90036, Note_on_c, 6, 62, 0
8, 90048, Note_on_c, 6, 60, 127
8, 90224, Note_on_c, 6, 55, 0
8, 90232, Note_on_c, 6, 60, 0
8, 90240, Note_on_c, 6, 55, 127
8, 90240, Note_on_c, 6, 62, 127
8, 90420, Note_on_c, 6, 62, 0
8, 90432, Note_on_c, 6, 62, 127
8, 90612, Note_on_c, 6, 62, 0
8, 90612, Note_on_c, 6, 55, 0
8, 90624, Note_on_c, 6, 55, 127
8, 90624, Note_on_c, 6, 62, 127
8, 90804, Note_on_c, 6, 62, 0
8, 90816, Note_on_c, 6, 67, 127
8, 90992, Note_on_c, 6, 55, 0
8, 91004, Note_on_c, 6, 67, 0
8, 91008, Note_on_c, 6, 55, 127
8, 91008, Note_on_c, 6, 60, 127
8, 91184, Note_on_c, 6, 60, 0
8, 91200, Note_on_c, 6, 62, 127
8, 91380, Note_on_c, 6, 55, 0
8, 91384, Note_on_c, 6, 62, 0
8, 91392, Note_on_c, 6, 55, 127
8, 91392, Note_on_c, 6, 60, 127
8, 91576, Note_on_c, 6, 60, 0
8, 91584, Note_on_c, 6, 58, 127
8, 91760, Note_on_c, 6, 55, 0
8, 91764, Note_on_c, 6, 58, 0
8, 91776, Note_on_c, 6, 55, 127
8, 91884, Note_on_c, 6, 55, 0
8, 91968, Note_on_c, 6, 55, 127
8, 92064, Note_on_c, 6, 55, 0
8, 92160, Note_on_c, 6, 50, 127
8, 92160, Note_on_c, 6, 55, 127
8, 92236, Note_on_c, 6, 55, 0
8, 92236, Note_on_c, 6, 50, 0
8, 92544, Note_on_c, 6, 50, 127
8, 92544, Note_on_c, 6, 55, 127
8, 93104, Note_on_c, 6, 55, 0
8, 93120, Note_on_c, 6, 58, 127
8, 93300, Note_on_c, 6, 50, 0
8, 93304, Note_on_c, 6, 58, 0
8, 93312, Note_on_c, 6, 55, 127
8, 93492, Note_on_c, 6, 55, 0
8, 93504, Note_on_c, 6, 50, 127
8, 93584, Note_on_c, 6, 50, 0
8, 93696, Note_on_c, 6, 48, 127
8, 93696, Note_on_c, 6, 53, 127
8, 94064, Note_on_c, 6, 48, 0
8, 94068, Note_on_c, 6, 53, 0
8, 94080, Note_on_c, 6, 50, 127
8, 94080, Note_on_c, 6, 55, 127
8, 94156, Note_on_c, 6, 55, 0
8, 94160, Note_on_c, 6, 50, 0
8, 94464, Note_on_c, 6, 50, 127
8, 94464, Note_on_c, 6, 55, 127
8, 95184, Note_on_c, 6, 55, 0
8, 95188, Note_on_c, 6, 50, 0
8, 95232, Note_on_c, 6, 55, 127
8, 95232, Note_on_c, 6, 62, 127
8, 95316, Note_on_c, 6, 62, 0
8, 95316, Note_on_c, 6, 55, 0
8, 95616, Note_on_c, 6, 55, 127
8, 95616, Note_on_c, 6, 62, 127
8, 95992, Note_on_c, 6, 62, 0
8, 95992, Note_on_c, 6, 55, 0
8, 96000, Note_on_c, 6, 55, 127
8, 96000, Note_on_c, 6, 62, 127
8, 96180, Note_on_c, 6, 62, 0
8, 96192, Note_on_c, 6, 60, 127
8, 96372, Note_on_c, 6, 55, 0
8, 96380, Note_on_c, 6, 60, 0
8, 96384, Note_on_c, 6, 55, 127
8, 96384, Note_on_c, 6, 62, 127
8, 96568, Note_on_c, 6, 62, 0
8, 96576, Note_on_c, 6, 65, 127
8, 96756, Note_on_c, 6, 65, 0
8, 96756, Note_on_c, 6, 55, 0
8, 96768, Note_on_c, 6, 55, 127
8, 96768, Note_on_c, 6, 65, 127
8, 97136, Note_on_c, 6, 55, 0
8, 97140, Note_on_c, 6, 65, 0
8, 97152, Note_on_c, 6, 55, 127
8, 97152, Note_on_c, 6, 62, 127
8, 97328, Note_on_c, 6, 62, 0
8, 97344, Note_on_c, 6, 60, 127
8, 97524, Note_on_c, 6, 60, 0
8, 97524, Note_on_c, 6, 55, 0
8, 97536, Note_on_c, 6, 55, 127
8, 97536, Note_on_c, 6, 60, 127
8, 97720, Note_on_c, 6, 60, 0
8, 97728, Note_on_c, 6, 58, 127
8, 97904, Note_on_c, 6, 55, 0
8, 97920, Note_on_c, 6, 50, 127
8, 98004, Note_on_c, 6, 58, 0
8, 98100, Note_on_c, 6, 50, 0
8, 98112, Note_on_c, 6, 55, 127
8, 98188, Note_on_c, 6, 55, 0
8, 98304, Note_on_c, 6, 50, 127
8, 98304, Note_on_c, 6, 55, 127
8, 98376, Note_on_c, 6, 55, 0
8, 98380, Note_on_c, 6, 50, 0
8, 98688, Note_on_c, 6, 50, 127
8, 98688, Note_on_c, 6, 55, 127
8, 99052, Note_on_c, 6, 55, 0
8, 99056, Note_on_c, 6, 50, 0
8, 99072, Note_on_c, 6, 50, 127
8, 99072, Note_on_c, 6, 55, 127
8, 99244, Note_on_c, 6, 55, 0
8, 99264, Note_on_c, 6, 58, 127
8, 99428, Note_on_c, 6, 58, 0
8, 99444, Note_on_c, 6, 50, 0
8, 99456, Note_on_c, 6, 50, 127
8, 99532, Note_on_c, 6, 50, 0
8, 99648, Note_on_c, 6, 50, 127
8, 99720, Note_on_c, 6, 50, 0
8, 99840, Note_on_c, 6, 53, 127
8, 99840, Note_on_c, 6, 58, 127
8, 100208, Note_on_c, 6, 58, 0
8, 100216, Note_on_c, 6, 53, 0
8, 100224, Note_on_c, 6, 55, 127
8, 100224, Note_on_c, 6, 60, 127
8, 100300, Note_on_c, 6, 60, 0
8, 100304, Note_on_c, 6, 55, 0
8, 100608, Note_on_c, 6, 55, 127
8, 100608, Note_on_c, 6, 60, 127
8, 100976, Note_on_c, 6, 60, 0
8, 100980, Note_on_c, 6, 55, 0
8, 100992, Note_on_c, 6, 53, 127
8, 100992, Note_on_c, 6, 58, 127
8, 101060, Note_on_c, 6, 53, 0
8, 101156, Note_on_c, 6, 58, 0
8, 101184, Note_on_c, 6, 55, 127
8, 101288, Note_on_c, 6, 55, 0
8, 101376, Note_on_c, 6, 55, 127
8, 101376, Note_on_c, 6, 62, 127
8, 101436, Note_on_c, 6, 55, 0
8, 101456, Note_on_c, 6, 62, 0
8, 101760, Note_on_c, 6, 55, 127
8, 101760, Note_on_c, 6, 62, 127
8, 102124, Note_on_c, 6, 62, 0
8, 102132, Note_on_c, 6, 55, 0
8, 102144, Note_on_c, 6, 55, 127
8, 102144, Note_on_c, 6, 62, 127
8, 102324, Note_on_c, 6, 62, 0
8, 102336, Note_on_c, 6, 60, 127
8, 102512, Note_on_c, 6, 55, 0
8, 102520, Note_on_c, 6, 60, 0
8, 102528, Note_on_c, 6, 55, 127
8, 102528, Note_on_c, 6, 62, 127
8, 102708, Note_on_c, 6, 62, 0
8, 102720, Note_on_c, 6, 62, 127
8, 102900, Note_on_c, 6, 62, 0
8, 102900, Note_on_c, 6, 55, 0
8, 102912, Note_on_c, 6, 55, 127
8, 102912, Note_on_c, 6, 62, 127
8, 103092, Note_on_c, 6, 62, 0
8, 103104, Note_on_c, 6, 67, 127
8, 103280, Note_on_c, 6, 55, 0
8, 103292, Note_on_c, 6, 67, 0
8, 103296, Note_on_c, 6, 55, 127
8, 103296, Note_on_c, 6, 60, 127
8, 103472, Note_on_c, 6, 60, 0
8, 103488, Note_on_c, 6, 62, 127
8, 103668, Note_on_c, 6, 55, 0
8, 103672, Note_on_c, 6, 62, 0
8, 103680, Note_on_c, 6, 55, 127
8, 103680, Note_on_c, 6, 60, 127
8, 103864, Note_on_c, 6, 60, 0
8, 103872, Note_on_c, 6, 58, 127
8, 104048, Note_on_c, 6, 55, 0
8, 104052, Note_on_c, 6, 58, 0
8, 104064, Note_on_c, 6, 55, 127
8, 104172, Note_on_c, 6, 55, 0
8, 104256, Note_on_c, 6, 55, 127
8, 104352, Note_on_c, 6, 55, 0
8, 104448, Note_on_c, 6, 50, 127
8, 104448, Note_on_c, 6, 55, 127
8, 104524, Note_on_c, 6, 55, 0
8, 104524, Note_on_c, 6, 50, 0
8, 104832, Note_on_c, 6, 50, 127
8, 104832, Note_on_c, 6, 55, 127
8, 105392, Note_on_c, 6, 55, 0
8, 105408, Note_on_c, 6, 58, 127
8, 105588, Note_on_c, 6, 50, 0
8, 105592, Note_on_c, 6, 58, 0
8, 105600, Note_on_c, 6, 55, 127
8, 105780, Note_on_c, 6, 55, 0
8, 105792, Note_on_c, 6, 50, 127
8, 105872, Note_on_c, 6, 50, 0
8, 105984, Note_on_c, 6, 48, 127
8, 105984, Note_on_c, 6, 53, 127
8, 106352, Note_on_c, 6, 48, 0
8, 106356, Note_on_c, 6, 53, 0
8, 106368, Note_on_c, 6, 50, 127
8, 106368, Note_on_c, 6, 55, 127
8, 106444, Note_on_c, 6, 55, 0
8, 106448, Note_on_c, 6, 50, 0
8, 106752, Note_on_c, 6, 50, 127
8, 106752, Note_on_c, 6, 55, 127
8, 107472, Note_on_c, 6, 55, 0
8, 107476, Note_on_c, 6, 50, 0
8, 107520, Note_on_c, 6, 55, 127
8, 107520, Note_on_c, 6, 62, 127
8, 107604, Note_on_c, 6, 62, 0
8, 107604, Note_on_c, 6, 55, 0
8, 107904, Note_on_c, 6, 55, 127
8, 107904, Note_on_c, 6, 62, 127
8, 108280, Note_on_c, 6, 62, 0
8, 108280, Note_on_c, 6, 55, 0
8, 108288, Note_on_c, 6, 55, 127
8, 108288, Note_on_c, 6, 62, 127
8, 108468, Note_on_c, 6, 62, 0
8, 108480, Note_on_c, 6, 60, 127
8, 108660, Note_on_c, 6, 55, 0
8, 108668, Note_on_c, 6, 60, 0
8, 108672, Note_on_c, 6, 55, 127
8, 108672, Note_on_c, 6, 62, 127
8, 108856, Note_on_c, 6, 62, 0
8, 108864, Note_on_c, 6, 65, 127
8, 109044, Note_on_c, 6, 65, 0
8, 109044, Note_on_c, 6, 55, 0
8, 109056, Note_on_c, 6, 55, 127
8, 109056, Note_on_c, 6, 65, 127
8, 109424, Note_on_c, 6, 55, 0
8, 109428, Note_on_c, 6, 65, 0
8, 109440, Note_on_c, 6, 55, 127
8, 109440, Note_on_c, 6, 62, 127
8, 109616, Note_on_c, 6, 62, 0
8, 109632, Note_on_c, 6, 60, 127
8, 109812, Note_on_c, 6, 60, 0
8, 109812, Note_on_c, 6, 55, 0
8, 109824, Note_on_c, 6, 55, 127
8, 109824, Note_on_c, 6, 60, 127
8, 110008, Note_on_c, 6, 60, 0
8, 110016, Note_on_c, 6, 58, 127
8, 110192, Note_on_c, 6, 55, 0
8, 110208, Note_on_c, 6, 50, 127
8, 110292, Note_on_c, 6, 58, 0
8, 110388, Note_on_c, 6, 50, 0
8, 110400, Note_on_c, 6, 55, 125
8, 110476, Note_on_c, 6, 55, 0
8, 110592, Note_on_c, 6, 50, 127
8, 110592, Note_on_c, 6, 55, 127
8, 110664, Note_on_c, 6, 55, 0
8, 110668, Note_on_c, 6, 50, 0
8, 110976, Note_on_c, 6, 50, 127
8, 110976, Note_on_c, 6, 55, 127
8, 111340, Note_on_c, 6, 55, 0
8, 111344, Note_on_c, 6, 50, 0
8, 111360, Note_on_c, 6, 50, 127
8, 111360, Note_on_c, 6, 55, 127
8, 111532, Note_on_c, 6, 55, 0
8, 111552, Note_on_c, 6, 58, 127
8, 111716, Note_on_c, 6, 58, 0
8, 111732, Note_on_c, 6, 50, 0
8, 111744, Note_on_c, 6, 50, 127
8, 111820, Note_on_c, 6, 50, 0
8, 111936, Note_on_c, 6, 50, 125
8, 112008, Note_on_c, 6, 50, 0
8, 112128, Note_on_c, 6, 53, 127
8, 112128, Note_on_c, 6, 58, 127
8, 112496, Note_on_c, 6, 58, 0
8, 112504, Note_on_c, 6, 53, 0
8, 112512, Note_on_c, 6, 55, 127
8, 112512, Note_on_c, 6, 60, 127
8, 112588, Note_on_c, 6, 60, 0
8, 112592, Note_on_c, 6, 55, 0
8, 112896, Note_on_c, 6, 55, 127
8, 112896, Note_on_c, 6, 60, 127
8, 113264, Note_on_c, 6, 60, 0
8, 113268, Note_on_c, 6, 55, 0
8, 113280, Note_on_c, 6, 53, 117
8, 113280, Note_on_c, 6, 58, 127
8, 113348, Note_on_c, 6, 53, 0
8, 113444, Note_on_c, 6, 58, 0
8, 113472, Note_on_c, 6, 55, 127
8, 113576, Note_on_c, 6, 55, 0
8, 113664, Note_on_c, 6, 55, 127
8, 113664, Note_on_c, 6, 62, 127
8, 113724, Note_on_c, 6, 55, 0
8, 113744, Note_on_c, 6, 62, 0
8, 114048, Note_on_c, 6, 55, 127
8, 114048, Note_on_c, 6, 62, 127
8, 114412, Note_on_c, 6, 62, 0
8, 114420, Note_on_c, 6, 55, 0
8, 114432, Note_on_c, 6, 55, 127
8, 114432, Note_on_c, 6, 62, 127
8, 114612, Note_on_c, 6, 62, 0
8, 114624, Note_on_c, 6, 60, 127
8, 114800, Note_on_c, 6, 55, 0
8, 114808, Note_on_c, 6, 60, 0
8, 114816, Note_on_c, 6, 55, 127
8, 114816, Note_on_c, 6, 62, 127
8, 114996, Note_on_c, 6, 62, 0
8, 115008, Note_on_c, 6, 62, 127
8, 115188, Note_on_c, 6, 62, 0
8, 115188, Note_on_c, 6, 55, 0
8, 115200, Note_on_c, 6, 55, 127
8, 115200, Note_on_c, 6, 62, 127
8, 115380, Note_on_c, 6, 62, 0
8, 115392, Note_on_c, 6, 67, 127
8, 115568, Note_on_c, 6, 55, 0
8, 115580, Note_on_c, 6, 67, 0
8, 115584, Note_on_c, 6, 55, 127
8, 115584, Note_on_c, 6, 60, 127
8, 115760, Note_on_c, 6, 60, 0
8, 115776, Note_on_c, 6, 62, 127
8, 115956, Note_on_c, 6, 55, 0
8, 115960, Note_on_c, 6, 62, 0
8, 115968, Note_on_c, 6, 55, 127
8, 115968, Note_on_c, 6, 60, 127
8, 116152, Note_on_c, 6, 60, 0
8, 116160, Note_on_c, 6, 58, 126
8, 116336, Note_on_c, 6, 55, 0
8, 116340, Note_on_c, 6, 58, 0
8, 116352, Note_on_c, 6, 55, 127
8, 116460, Note_on_c, 6, 55, 0
8, 116544, Note_on_c, 6, 55, 127
8, 116640, Note_on_c, 6, 55, 0
8, 116736, Note_on_c, 6, 50, 127
8, 116736, Note_on_c, 6, 55, 127
8, 116812, Note_on_c, 6, 55, 0
8, 116812, Note_on_c, 6, 50, 0
8, 117120, Note_on_c, 6, 50, 127
8, 117120, Note_on_c, 6, 55, 127
8, 117680, Note_on_c, 6, 55, 0
8, 117696, Note_on_c, 6, 58, 127
8, 117876, Note_on_c, 6, 50, 0
8, 117880, Note_on_c, 6, 58, 0
8, 117888, Note_on_c, 6, 55, 127
8, 118068, Note_on_c, 6, 55, 0
8, 118080, Note_on_c, 6, 50, 124
8, 118160, Note_on_c, 6, 50, 0
8, 118272, Note_on_c, 6, 48, 127
8, 118272, Note_on_c, 6, 53, 127
8, 118640, Note_on_c, 6, 48, 0
8, 118644, Note_on_c, 6, 53, 0
8, 118656, Note_on_c, 6, 50, 127
8, 118656, Note_on_c, 6, 55, 127
8, 118732, Note_on_c, 6, 55, 0
8, 118736, Note_on_c, 6, 50, 0
8, 119040, Note_on_c, 6, 50, 127
8, 119040, Note_on_c, 6, 55, 127
8, 119760, Note_on_c, 6, 55, 0
8, 119764, Note_on_c, 6, 50, 0
8, 119808, Note_on_c, 6, 55, 127
8, 119808, Note_on_c, 6, 62, 127
8, 119892, Note_on_c, 6, 62, 0
8, 119892, Note_on_c, 6, 55, 0
8, 120192, Note_on_c, 6, 55, 127
8, 120192, Note_on_c, 6, 62, 127
8, 120568, Note_on_c, 6, 62, 0
8, 120568, Note_on_c, 6, 55, 0
8, 120576, Note_on_c, 6, 55, 127
8, 120576, Note_on_c, 6, 62, 127
8, 120756, Note_on_c, 6, 62, 0
8, 120768, Note_on_c, 6, 60, 127
8, 120948, Note_on_c, 6, 55, 0
8, 120956, Note_on_c, 6, 60, 0
8, 120960, Note_on_c, 6, 55, 127
8, 120960, Note_on_c, 6, 62, 127
8, 121144, Note_on_c, 6, 62, 0
8, 121152, Note_on_c, 6, 65, 127
8, 121332, Note_on_c, 6, 65, 0
8, 121332, Note_on_c, 6, 55, 0
8, 121344, Note_on_c, 6, 55, 127
8, 121344, Note_on_c, 6, 65, 127
8, 121712, Note_on_c, 6, 55, 0
8, 121716, Note_on_c, 6, 65, 0
8, 121728, Note_on_c, 6, 55, 127
8, 121728, Note_on_c, 6, 62, 127
8, 121904, Note_on_c, 6, 62, 0
8, 121920, Note_on_c, 6, 60, 127
8, 122100, Note_on_c, 6, 60, 0
8, 122100, Note_on_c, 6, 55, 0
8, 122112, Note_on_c, 6, 55, 127
8, 122112, Note_on_c, 6, 60, 127
8, 122296, Note_on_c, 6, 60, 0
8, 122304, Note_on_c, 6, 58, 127
8, 122480, Note_on_c, 6, 55, 0
8, 122496, Note_on_c, 6, 50, 127
8, 122580, Note_on_c, 6, 58, 0
8, 122676, Note_on_c, 6, 50, 0
8, 122688, Note_on_c, 6, 55, 125
8, 122764, Note_on_c, 6, 55, 0
8, 122880, Note_on_c, 6, 50, 127
8, 122880, Note_on_c, 6, 55, 127
8, 122952, Note_on_c, 6, 55, 0
8, 122956, Note_on_c, 6, 50, 0
8, 123264, Note_on_c, 6, 50, 127
8, 123264, Note_on_c, 6, 55, 127
8, 123628, Note_on_c, 6, 55, 0
8, 123632, Note_on_c, 6, 50, 0
8, 123648, Note_on_c, 6, 50, 127
8, 123648, Note_on_c, 6, 55, 127
8, 123820, Note_on_c, 6, 55, 0
8, 123840, Note_on_c, 6, 58, 127
8, 124004, Note_on_c, 6, 58, 0
8, 124020, Note_on_c, 6, 50, 0
8, 124032, Note_on_c, 6, 50, 127
8, 124108, Note_on_c, 6, 50, 0
8, 124224, Note_on_c, 6, 50, 125
8, 124296, Note_on_c, 6, 50, 0
8, 124416, Note_on_c, 6, 53, 127
8, 124416, Note_on_c, 6, 58, 127
8, 124784, Note_on_c, 6, 58, 0
8, 124792, Note_on_c, 6, 53, 0
8, 124800, Note_on_c, 6, 55, 127
8, 124800, Note_on_c, 6, 60, 127
8, 124876, Note_on_c, 6, 60, 0
8, 124880, Note_on_c, 6, 55, 0
8, 125184, Note_on_c, 6, 55, 127
8, 125184, Note_on_c, 6, 60, 127
8, 125552, Note_on_c, 6, 60, 0
8, 125556, Note_on_c, 6, 55, 0
8, 125568, Note_on_c, 6, 53, 117
8, 125568, Note_on_c, 6, 58, 127
8, 125636, Note_on_c, 6, 53, 0
8, 125732, Note_on_c, 6, 58, 0
8, 125760, Note_on_c, 6, 55, 127
8, 125864, Note_on_c, 6, 55, 0
8, 125952, Note_on_c, 6, 55, 127
8, 125952, Note_on_c, 6, 62, 127
8, 126012, Note_on_c, 6, 55, 0
8, 126032, Note_on_c, 6, 62, 0
8, 126336, Note_on_c, 6, 55, 127
8, 126336, Note_on_c, 6, 62, 127
8, 126700, Note_on_c, 6, 62, 0
8, 126708, Note_on_c, 6, 55, 0
8, 126720, Note_on_c, 6, 55, 127
8, 126720, Note_on_c, 6, 62, 127
8, 126900, Note_on_c, 6, 62, 0
8, 126912, Note_on_c, 6, 60, 127
8, 127088, Note_on_c, 6, 55, 0
8, 127096, Note_on_c, 6, 60, 0
8, 127104, Note_on_c, 6, 55, 127
8, 127104, Note_on_c, 6, 62, 127
8, 127284, Note_on_c, 6, 62, 0
8, 127296, Note_on_c, 6, 62, 127
8, 127476, Note_on_c, 6, 62, 0
8, 127476, Note_on_c, 6, 55, 0
8, 127488, Note_on_c, 6, 55, 127
8, 127488, Note_on_c, 6, 62, 127
8, 127668, Note_on_c, 6, 62, 0
8, 127680, Note_on_c, 6, 67, 127
8, 127856, Note_on_c, 6, 55, 0
8, 127868, Note_on_c, 6, 67, 0
8, 127872, Note_on_c, 6, 55, 127
8, 127872, Note_on_c, 6, 60, 127
8, 128048, Note_on_c, 6, 60, 0
8, 128064, Note_on_c, 6, 62, 127
8, 128244, Note_on_c, 6, 55, 0
8, 128248, Note_on_c, 6, 62, 0
8, 128256, Note_on_c, 6, 55, 127
8, 128256, Note_on_c, 6, 60, 127
8, 128440, Note_on_c, 6, 60, 0
8, 128448, Note_on_c, 6, 58, 126
8, 128624, Note_on_c, 6, 55, 0
8, 128628, Note_on_c, 6, 58, 0
8, 128640, Note_on_c, 6, 55, 127
8, 128748, Note_on_c, 6, 55, 0
8, 128832, Note_on_c, 6, 55, 127
8, 128928, Note_on_c, 6, 55, 0
8, 129024, Note_on_c, 6, 50, 127
8, 129024, Note_on_c, 6, 55, 127
8, 129100, Note_on_c, 6, 55, 0
8, 129100, Note_on_c, 6, 50, 0
8, 129408, Note_on_c, 6, 50, 127
8, 129408, Note_on_c, 6, 55, 127
8, 129968, Note_on_c, 6, 55, 0
8, 129984, Note_on_c, 6, 58, 127
8, 130164, Note_on_c, 6, 50, 0
8, 130168, Note_on_c, 6, 58, 0
8, 130176, Note_on_c, 6, 55, 127
8, 130356, Note_on_c, 6, 55, 0
8, 130368, Note_on_c, 6, 50, 124
8, 130448, Note_on_c, 6, 50, 0
8, 130560, Note_on_c, 6, 48, 127
8, 130560, Note_on_c, 6, 53, 127
8, 130928, Note_on_c, 6, 48, 0
8, 130932, Note_on_c, 6, 53, 0
8, 130944, Note_on_c, 6, 50, 127
8, 130944, Note_on_c, 6, 55, 127
8, 131020, Note_on_c, 6, 55, 0
8, 131024, Note_on_c, 6, 50, 0
8, 131328, Note_on_c, 6, 50, 127
8, 131328, Note_on_c, 6, 55, 127
8, 132048, Note_on_c, 6, 55, 0
8, 132052, Note_on_c, 6, 50, 0
8, 132096, Note_on_c, 6, 51, 127
8, 132096, Note_on_c, 6, 58, 127
8, 133620, Note_on_c, 6, 51, 0
8, 133628, Note_on_c, 6, 58, 0
8, 133632, Note_on_c, 6, 46, 127
8, 133632, Note_on_c, 6, 53, 127
8, 134576, Note_on_c, 6, 53, 0
8, 134580, Note_on_c, 6, 46, 0
8, 134592, Note_on_c, 6, 46, 127
8, 134592, Note_on_c, 6, 53, 127
8, 134956, Note_on_c, 6, 53, 0
8, 134960, Note_on_c, 6, 46, 0
8, 134976, Note_on_c, 6, 46, 127
8, 134976, Note_on_c, 6, 53, 127
8, 135152, Note_on_c, 6, 46, 0
8, 135160, Note_on_c, 6, 53, 0
8, 135168, Note_on_c, 6, 51, 127
8, 135168, Note_on_c, 6, 58, 127
8, 135344, Note_on_c, 6, 58, 0
8, 135352, Note_on_c, 6, 51, 0
8, 135360, Note_on_c, 6, 51, 127
8, 135360, Note_on_c, 6, 58, 127
8, 135528, Note_on_c, 6, 51, 0
8, 135532, Note_on_c, 6, 58, 0
8, 135552, Note_on_c, 6, 51, 127
8, 135552, Note_on_c, 6, 58, 127
8, 135728, Note_on_c, 6, 58, 0
8, 135728, Note_on_c, 6, 51, 0
8, 135744, Note_on_c, 6, 51, 127
8, 135744, Note_on_c, 6, 58, 127
8, 135916, Note_on_c, 6, 51, 0
8, 135924, Note_on_c, 6, 58, 0
8, 135936, Note_on_c, 6, 51, 127
8, 135936, Note_on_c, 6, 58, 127
8, 136104, Note_on_c, 6, 51, 0
8, 136116, Note_on_c, 6, 58, 0
8, 136128, Note_on_c, 6, 50, 127
8, 136128, Note_on_c, 6, 58, 127
8, 136296, Note_on_c, 6, 50, 0
8, 136300, Note_on_c, 6, 58, 0
8, 136320, Note_on_c, 6, 51, 127
8, 136320, Note_on_c, 6, 58, 127
8, 136496, Note_on_c, 6, 51, 0
8, 136500, Note_on_c, 6, 58, 0
8, 136512, Note_on_c, 6, 51, 127
8, 136512, Note_on_c, 6, 58, 127
8, 136680, Note_on_c, 6, 51, 0
8, 136688, Note_on_c, 6, 58, 0
8, 136704, Note_on_c, 6, 53, 127
8, 136704, Note_on_c, 6, 60, 127
8, 136880, Note_on_c, 6, 60, 0
8, 136884, Note_on_c, 6, 53, 0
8, 136896, Note_on_c, 6, 53, 127
8, 136896, Note_on_c, 6, 60, 127
8, 137264, Note_on_c, 6, 60, 0
8, 137264, Note_on_c, 6, 53, 0
8, 137280, Note_on_c, 6, 53, 127
8, 137280, Note_on_c, 6, 60, 127
8, 137648, Note_on_c, 6, 60, 0
8, 137648, Note_on_c, 6, 53, 0
8, 137664, Note_on_c, 6, 53, 127
8, 137664, Note_on_c, 6, 60, 127
8, 138032, Note_on_c, 6, 53, 0
8, 138036, Note_on_c, 6, 60, 0
8, 138048, Note_on_c, 6, 53, 127
8, 138048, Note_on_c, 6, 60, 127
8, 138220, Note_on_c, 6, 53, 0
8, 138224, Note_on_c, 6, 60, 0
8, 138240, Note_on_c, 6, 55, 127
8, 138240, Note_on_c, 6, 62, 127
8, 138300, Note_on_c, 6, 55, 0
8, 138320, Note_on_c, 6, 62, 0
8, 138624, Note_on_c, 6, 55, 127
8, 138624, Note_on_c, 6, 62, 127
8, 138988, Note_on_c, 6, 62, 0
8, 138996, Note_on_c, 6, 55, 0
8, 139008, Note_on_c, 6, 55, 127
8, 139008, Note_on_c, 6, 62, 127
8, 139188, Note_on_c, 6, 62, 0
8, 139200, Note_on_c, 6, 60, 127
8, 139376, Note_on_c, 6, 55, 0
8, 139384, Note_on_c, 6, 60, 0
8, 139392, Note_on_c, 6, 55, 127
8, 139392, Note_on_c, 6, 62, 127
8, 139572, Note_on_c, 6, 62, 0
8, 139584, Note_on_c, 6, 62, 127
8, 139764, Note_on_c, 6, 62, 0
8, 139764, Note_on_c, 6, 55, 0
8, 139776, Note_on_c, 6, 55, 127
8, 139776, Note_on_c, 6, 62, 127
8, 139956, Note_on_c, 6, 62, 0
8, 139968, Note_on_c, 6, 67, 127
8, 140144, Note_on_c, 6, 55, 0
8, 140156, Note_on_c, 6, 67, 0
8, 140160, Note_on_c, 6, 55, 127
8, 140160, Note_on_c, 6, 60, 127
8, 140336, Note_on_c, 6, 60, 0
8, 140352, Note_on_c, 6, 62, 127
8, 140532, Note_on_c, 6, 55, 0
8, 140536, Note_on_c, 6, 62, 0
8, 140544, Note_on_c, 6, 55, 127
8, 140544, Note_on_c, 6, 60, 127
8, 140728, Note_on_c, 6, 60, 0
8, 140736, Note_on_c, 6, 58, 126
8, 140912, Note_on_c, 6, 55, 0
8, 140916, Note_on_c, 6, 58, 0
8, 140928, Note_on_c, 6, 55, 127
8, 141036, Note_on_c, 6, 55, 0
8, 141120, Note_on_c, 6, 55, 127
8, 141216, Note_on_c, 6, 55, 0
8, 141312, Note_on_c, 6, 48, 127
8, 141312, Note_on_c, 6, 55, 127
8, 142260, Note_on_c, 6, 55, 0
8, 142260, Note_on_c, 6, 48, 0
8, 142272, Note_on_c, 6, 48, 127
8, 142272, Note_on_c, 6, 55, 127
8, 142644, Note_on_c, 6, 48, 0
8, 142648, Note_on_c, 6, 55, 0
8, 142656, Note_on_c, 6, 48, 127
8, 142656, Note_on_c, 6, 55, 127
8, 142832, Note_on_c, 6, 48, 0
8, 142840, Note_on_c, 6, 55, 0
8, 142848, Note_on_c, 6, 50, 127
8, 142848, Note_on_c, 6, 57, 127
8, 143796, Note_on_c, 6, 57, 0
8, 143796, Note_on_c, 6, 50, 0
8, 143808, Note_on_c, 6, 50, 127
8, 143808, Note_on_c, 6, 57, 127
8, 144176, Note_on_c, 6, 57, 0
8, 144180, Note_on_c, 6, 50, 0
8, 144192, Note_on_c, 6, 50, 127
8, 144192, Note_on_c, 6, 57, 127
8, 144368, Note_on_c, 6, 57, 0
8, 144372, Note_on_c, 6, 50, 0
8, 144384, Note_on_c, 6, 52, 127
8, 144384, Note_on_c, 6, 59, 127
8, 147388, Note_on_c, 6, 52, 0
8, 147400, Note_on_c, 6, 59, 0
8, 147456, Note_on_c, 6, 55, 127
8, 147456, Note_on_c, 6, 62, 127
8, 147540, Note_on_c, 6, 62, 0
8, 147540, Note_on_c, 6, 55, 0
8, 147840, Note_on_c, 6, 55, 127
8, 147840, Note_on_c, 6, 62, 127
8, 148216, Note_on_c, 6, 62, 0
8, 148216, Note_on_c, 6, 55, 0
8, 148224, Note_on_c, 6, 55, 127
8, 148224, Note_on_c, 6, 62, 127
8, 148404, Note_on_c, 6, 62, 0
8, 148416, Note_on_c, 6, 60, 127
8, 148596, Note_on_c, 6, 55, 0
8, 148604, Note_on_c, 6, 60, 0
8, 148608, Note_on_c, 6, 55, 127
8, 148608, Note_on_c, 6, 62, 127
8, 148792, Note_on_c, 6, 62, 0
8, 148800, Note_on_c, 6, 65, 127
8, 148980, Note_on_c, 6, 65, 0
8, 148980, Note_on_c, 6, 55, 0
8, 148992, Note_on_c, 6, 55, 127
8, 148992, Note_on_c, 6, 65, 127
8, 149360, Note_on_c, 6, 55, 0
8, 149364, Note_on_c, 6, 65, 0
8, 149376, Note_on_c, 6, 55, 127
8, 149376, Note_on_c, 6, 62, 127
8, 149552, Note_on_c, 6, 62, 0
8, 149568, Note_on_c, 6, 60, 127
8, 149748, Note_on_c, 6, 60, 0
8, 149748, Note_on_c, 6, 55, 0
8, 149760, Note_on_c, 6, 55, 127
8, 149760, Note_on_c, 6, 60, 127
8, 149944, Note_on_c, 6, 60, 0
8, 149952, Note_on_c, 6, 58, 127
8, 150128, Note_on_c, 6, 55, 0
8, 150144, Note_on_c, 6, 50, 127
8, 150228, Note_on_c, 6, 58, 0
8, 150324, Note_on_c, 6, 50, 0
8, 150336, Note_on_c, 6, 55, 125
8, 150412, Note_on_c, 6, 55, 0
8, 150528, Note_on_c, 6, 50, 127
8, 150528, Note_on_c, 6, 55, 127
8, 150600, Note_on_c, 6, 55, 0
8, 150604, Note_on_c, 6, 50, 0
8, 150912, Note_on_c, 6, 50, 127
8, 150912, Note_on_c, 6, 55, 127
8, 151276, Note_on_c, 6, 55, 0
8, 151280, Note_on_c, 6, 50, 0
8, 151296, Note_on_c, 6, 50, 127
8, 151296, Note_on_c, 6, 55, 127
8, 151468, Note_on_c, 6, 55, 0
8, 151488, Note_on_c, 6, 58, 127
8, 151652, Note_on_c, 6, 58, 0
8, 151668, Note_on_c, 6, 50, 0
8, 151680, Note_on_c, 6, 50, 127
8, 151756, Note_on_c, 6, 50, 0
8, 151872, Note_on_c, 6, 50, 125
8, 151944, Note_on_c, 6, 50, 0
8, 152064, Note_on_c, 6, 53, 127
8, 152064, Note_on_c, 6, 58, 127
8, 152432, Note_on_c, 6, 58, 0
8, 152440, Note_on_c, 6, 53, 0
8, 152448, Note_on_c, 6, 55, 127
8, 152448, Note_on_c, 6, 60, 127
8, 152524, Note_on_c, 6, 60, 0
8, 152528, Note_on_c, 6, 55, 0
8, 152832, Note_on_c, 6, 55, 127
8, 152832, Note_on_c, 6, 60, 127
8, 153200, Note_on_c, 6, 60, 0
8, 153204, Note_on_c, 6, 55, 0
8, 153216, Note_on_c, 6, 53, 117
8, 153216, Note_on_c, 6, 58, 127
8, 153284, Note_on_c, 6, 53, 0
8, 153380, Note_on_c, 6, 58, 0
8, 153408, Note_on_c, 6, 55, 127
8, 153512, Note_on_c, 6, 55, 0
8, 153600, Note_on_c, 6, 55, 127
8, 153600, Note_on_c, 6, 62, 127
8, 153660, Note_on_c, 6, 55, 0
8, 153680, Note_on_c, 6, 62, 0
8, 153984, Note_on_c, 6, 55, 127
8, 153984, Note_on_c, 6, 62, 127
8, 154348, Note_on_c, 6, 62, 0
8, 154356, Note_on_c, 6, 55, 0
8, 154368, Note_on_c, 6, 55, 127
8, 154368, Note_on_c, 6, 62, 127
8, 154548, Note_on_c, 6, 62, 0
8, 154560, Note_on_c, 6, 60, 127
8, 154736, Note_on_c, 6, 55, 0
8, 154744, Note_on_c, 6, 60, 0
8, 154752, Note_on_c, 6, 55, 127
8, 154752, Note_on_c, 6, 62, 127
8, 154932, Note_on_c, 6, 62, 0
8, 154944, Note_on_c, 6, 62, 127
8, 155124, Note_on_c, 6, 62, 0
8, 155124, Note_on_c, 6, 55, 0
8, 155136, Note_on_c, 6, 55, 127
8, 155136, Note_on_c, 6, 62, 127
8, 155316, Note_on_c, 6, 62, 0
8, 155328, Note_on_c, 6, 67, 127
8, 155504, Note_on_c, 6, 55, 0
8, 155516, Note_on_c, 6, 67, 0
8, 155520, Note_on_c, 6, 55, 127
8, 155520, Note_on_c, 6, 60, 127
8, 155696, Note_on_c, 6, 60, 0
8, 155712, Note_on_c, 6, 62, 127
8, 155892, Note_on_c, 6, 55, 0
8, 155896, Note_on_c, 6, 62, 0
8, 155904, Note_on_c, 6, 55, 127
8, 155904, Note_on_c, 6, 60, 127
8, 156088, Note_on_c, 6, 60, 0
8, 156096, Note_on_c, 6, 58, 126
8, 156272, Note_on_c, 6, 55, 0
8, 156276, Note_on_c, 6, 58, 0
8, 156288, Note_on_c, 6, 55, 127
8, 156396, Note_on_c, 6, 55, 0
8, 156480, Note_on_c, 6, 55, 127
8, 156576, Note_on_c, 6, 55, 0
8, 156672, Note_on_c, 6, 50, 127
8, 156672, Note_on_c, 6, 55, 127
8, 156748, Note_on_c, 6, 55, 0
8, 156748, Note_on_c, 6, 50, 0
8, 157056, Note_on_c, 6, 50, 127
8, 157056, Note_on_c, 6, 55, 127
8, 157616, Note_on_c, 6, 55, 0
8, 157632, Note_on_c, 6, 58, 127
8, 157812, Note_on_c, 6, 50, 0
8, 157816, Note_on_c, 6, 58, 0
8, 157824, Note_on_c, 6, 55, 127
8, 158004, Note_on_c, 6, 55, 0
8, 158016, Note_on_c, 6, 50, 124
8, 158096, Note_on_c, 6, 50, 0
8, 158208, Note_on_c, 6, 48, 127
8, 158208, Note_on_c, 6, 53, 127
8, 158576, Note_on_c, 6, 48, 0
8, 158580, Note_on_c, 6, 53, 0
8, 158592, Note_on_c, 6, 50, 127
8, 158592, Note_on_c, 6, 55, 127
8, 158668, Note_on_c, 6, 55, 0
8, 158672, Note_on_c, 6, 50, 0
8, 158976, Note_on_c, 6, 50, 127
8, 158976, Note_on_c, 6, 55, 127
8, 159696, Note_on_c, 6, 55, 0
8, 159700, Note_on_c, 6, 50, 0
8, 159744, Note_on_c, 6, 51, 127
8, 159744, Note_on_c, 6, 58, 127
8, 161268, Note_on_c, 6, 51, 0
8, 161276, Note_on_c, 6, 58, 0
8, 161280, Note_on_c, 6, 46, 127
8, 161280, Note_on_c, 6, 53, 127
8, 162224, Note_on_c, 6, 53, 0
8, 162228, Note_on_c, 6, 46, 0
8, 162240, Note_on_c, 6, 46, 127
8, 162240, Note_on_c, 6, 53, 127
8, 162604, Note_on_c, 6, 53, 0
8, 162608, Note_on_c, 6, 46, 0
8, 162624, Note_on_c, 6, 46, 127
8, 162624, Note_on_c, 6, 53, 127
8, 162800, Note_on_c, 6, 46, 0
8, 162808, Note_on_c, 6, 53, 0
8, 162816, Note_on_c, 6, 51, 127
8, 162816, Note_on_c, 6, 58, 127
8, 162992, Note_on_c, 6, 58, 0
8, 163000, Note_on_c, 6, 51, 0
8, 163008, Note_on_c, 6, 51, 127
8, 163008, Note_on_c, 6, 58, 127
8, 163176, Note_on_c, 6, 51, 0
8, 163180, Note_on_c, 6, 58, 0
8, 163200, Note_on_c, 6, 51, 127
8, 163200, Note_on_c, 6, 58, 127
8, 163376, Note_on_c, 6, 58, 0
8, 163376, Note_on_c, 6, 51, 0
8, 163392, Note_on_c, 6, 51, 127
8, 163392, Note_on_c, 6, 58, 127
8, 163564, Note_on_c, 6, 51, 0
8, 163572, Note_on_c, 6, 58, 0
8, 163584, Note_on_c, 6, 51, 127
8, 163584, Note_on_c, 6, 58, 127
8, 163752, Note_on_c, 6, 51, 0
8, 163764, Note_on_c, 6, 58, 0
8, 163776, Note_on_c, 6, 50, 127
8, 163776, Note_on_c, 6, 58, 127
8, 163944, Note_on_c, 6, 50, 0
8, 163948, Note_on_c, 6, 58, 0
8, 163968, Note_on_c, 6, 51, 127
8, 163968, Note_on_c, 6, 58, 127
8, 164144, Note_on_c, 6, 51, 0
8, 164148, Note_on_c, 6, 58, 0
8, 164160, Note_on_c, 6, 51, 127
8, 164160, Note_on_c, 6, 58, 127
8, 164328, Note_on_c, 6, 51, 0
8, 164336, Note_on_c, 6, 58, 0
8, 164352, Note_on_c, 6, 53, 127
8, 164352, Note_on_c, 6, 60, 127
8, 164528, Note_on_c, 6, 60, 0
8, 164532, Note_on_c, 6, 53, 0
8, 164544, Note_on_c, 6, 53, 127
8, 164544, Note_on_c, 6, 60, 127
8, 164912, Note_on_c, 6, 60, 0
8, 164912, Note_on_c, 6, 53, 0
8, 164928, Note_on_c, 6, 53, 127
8, 164928, Note_on_c, 6, 60, 127
8, 165296, Note_on_c, 6, 60, 0
8, 165296, Note_on_c, 6, 53, 0
8, 165312, Note_on_c, 6, 53, 127
8, 165312, Note_on_c, 6, 60, 127
8, 165680, Note_on_c, 6, 53, 0
8, 165684, Note_on_c, 6, 60, 0
8, 165696, Note_on_c, 6, 53, 127
8, 165696, Note_on_c, 6, 60, 127
8, 165868, Note_on_c, 6, 53, 0
8, 165872, Note_on_c, 6, 60, 0
8, 165888, Note_on_c, 6, 55, 127
8, 165888, Note_on_c, 6, 62, 127
8, 165948, Note_on_c, 6, 55, 0
8, 165968, Note_on_c, 6, 62, 0
8, 166272, Note_on_c, 6, 55, 127
8, 166272, Note_on_c, 6, 62, 127
8, 166636, Note_on_c, 6, 62, 0
8, 166644, Note_on_c, 6, 55, 0
8, 166656, Note_on_c, 6, 55, 127
8, 166656, Note_on_c, 6, 62, 127
8, 166836, Note_on_c, 6, 62, 0
8, 166848, Note_on_c, 6, 60, 127
8, 167024, Note_on_c, 6, 55, 0
8, 167032, Note_on_c, 6, 60, 0
8, 167040, Note_on_c, 6, 55, 127
8, 167040, Note_on_c, 6, 62, 127
8, 167220, Note_on_c, 6, 62, 0
8, 167232, Note_on_c, 6, 62, 127
8, 167412, Note_on_c, 6, 62, 0
8, 167412, Note_on_c, 6, 55, 0
8, 167424, Note_on_c, 6, 55, 127
8, 167424, Note_on_c, 6, 62, 127
8, 167604, Note_on_c, 6, 62, 0
8, 167616, Note_on_c, 6, 67, 127
8, 167792, Note_on_c, 6, 55, 0
8, 167804, Note_on_c, 6, 67, 0
8, 167808, Note_on_c, 6, 55, 127
8, 167808, Note_on_c, 6, 60, 127
8, 167984, Note_on_c, 6, 60, 0
8, 168000, Note_on_c, 6, 62, 127
8, 168180, Note_on_c, 6, 55, 0
8, 168184, Note_on_c, 6, 62, 0
8, 168192, Note_on_c, 6, 55, 127
8, 168192, Note_on_c, 6, 60, 127
8, 168376, Note_on_c, 6, 60, 0
8, 168384, Note_on_c, 6, 58, 126
8, 168560, Note_on_c, 6, 55, 0
8, 168564, Note_on_c, 6, 58, 0
8, 168576, Note_on_c, 6, 55, 127
8, 168684, Note_on_c, 6, 55, 0
8, 168768, Note_on_c, 6, 55, 127
8, 168864, Note_on_c, 6, 55, 0
8, 168960, Note_on_c, 6, 48, 127
8, 168960, Note_on_c, 6, 55, 127
8, 169908, Note_on_c, 6, 55, 0
8, 169908, Note_on_c, 6, 48, 0
8, 169920, Note_on_c, 6, 48, 127
8, 169920, Note_on_c, 6, 55, 127
8, 170292, Note_on_c, 6, 48, 0
8, 170296, Note_on_c, 6, 55, 0
8, 170304, Note_on_c, 6, 48, 127
8, 170304, Note_on_c, 6, 55, 127
8, 170480, Note_on_c, 6, 48, 0
8, 170488, Note_on_c, 6, 55, 0
8, 170496, Note_on_c, 6, 50, 127
8, 170496, Note_on_c, 6, 57, 127
8, 171444, Note_on_c, 6, 57, 0
8, 171444, Note_on_c, 6, 50, 0
8, 171456, Note_on_c, 6, 50, 127
8, 171456, Note_on_c, 6, 57, 127
8, 171824, Note_on_c, 6, 57, 0
8, 171828, Note_on_c, 6, 50, 0
8, 171840, Note_on_c, 6, 50, 127
8, 171840, Note_on_c, 6, 57, 127
8, 172016, Note_on_c, 6, 57, 0
8, 172020, Note_on_c, 6, 50, 0
8, 172032, Note_on_c, 6, 52, 127
8, 172032, Note_on_c, 6, 59, 127
8, 175036, Note_on_c, 6, 52, 0
8, 175048, Note_on_c, 6, 59, 0
8, 175104, Note_on_c, 6, 55, 127
8, 175104, Note_on_c, 6, 62, 127
8, 175188, Note_on_c, 6, 62, 0
8, 175188, Note_on_c, 6, 55, 0
8, 175488, Note_on_c, 6, 55, 127
8, 175488, Note_on_c, 6, 62, 127
8, 175864, Note_on_c, 6, 62, 0
8, 175864, Note_on_c, 6, 55, 0
8, 175872, Note_on_c, 6, 55, 127
8, 175872, Note_on_c, 6, 62, 127
8, 176052, Note_on_c, 6, 62, 0
8, 176064, Note_on_c, 6, 60, 127
8, 176244, Note_on_c, 6, 55, 0
8, 176252, Note_on_c, 6, 60, 0
8, 176256, Note_on_c, 6, 55, 127
8, 176256, Note_on_c, 6, 62, 127
8, 176440, Note_on_c, 6, 62, 0
8, 176448, Note_on_c, 6, 65, 127
8, 176628, Note_on_c, 6, 65, 0
8, 176628, Note_on_c, 6, 55, 0
8, 176640, Note_on_c, 6, 55, 127
8, 176640, Note_on_c, 6, 65, 127
8, 177008, Note_on_c, 6, 55, 0
8, 177012, Note_on_c, 6, 65, 0
8, 177024, Note_on_c, 6, 55, 127
8, 177024, Note_on_c, 6, 62, 127
8, 177200, Note_on_c, 6, 62, 0
8, 177216, Note_on_c, 6, 60, 127
8, 177396, Note_on_c, 6, 60, 0
8, 177396, Note_on_c, 6, 55, 0
8, 177408, Note_on_c, 6, 55, 127
8, 177408, Note_on_c, 6, 60, 127
8, 177592, Note_on_c, 6, 60, 0
8, 177600, Note_on_c, 6, 58, 127
8, 177776, Note_on_c, 6, 55, 0
8, 177792, Note_on_c, 6, 50, 127
8, 177876, Note_on_c, 6, 58, 0
8, 177972, Note_on_c, 6, 50, 0
8, 177984, Note_on_c, 6, 55, 125
8, 178060, Note_on_c, 6, 55, 0
8, 178176, Note_on_c, 6, 50, 127
8, 178176, Note_on_c, 6, 55, 127
8, 178248, Note_on_c, 6, 55, 0
8, 178252, Note_on_c, 6, 50, 0
8, 178560, Note_on_c, 6, 50, 127
8, 178560, Note_on_c, 6, 55, 127
8, 178924, Note_on_c, 6, 55, 0
8, 178928, Note_on_c, 6, 50, 0
8, 178944, Note_on_c, 6, 50, 127
8, 178944, Note_on_c, 6, 55, 127
8, 179116, Note_on_c, 6, 55, 0
8, 179136, Note_on_c, 6, 58, 127
8, 179300, Note_on_c, 6, 58, 0
8, 179316, Note_on_c, 6, 50, 0
8, 179328, Note_on_c, 6, 50, 127
8, 179404, Note_on_c, 6, 50, 0
8, 179520, Note_on_c, 6, 50, 125
8, 179592, Note_on_c, 6, 50, 0
8, 179712, Note_on_c, 6, 53, 127
8, 179712, Note_on_c, 6, 58, 127
8, 180080, Note_on_c, 6, 58, 0
8, 180088, Note_on_c, 6, 53, 0
8, 180096, Note_on_c, 6, 55, 127
8, 180096, Note_on_c, 6, 60, 127
8, 180172, Note_on_c, 6, 60, 0
8, 180176, Note_on_c, 6, 55, 0
8, 180480, Note_on_c, 6, 55, 127
8, 180480, Note_on_c, 6, 60, 127
8, 180848, Note_on_c, 6, 60, 0
8, 180852, Note_on_c, 6, 55, 0
8, 180864, Note_on_c, 6, 53, 117
8, 180864, Note_on_c, 6, 58, 127
8, 180932, Note_on_c, 6, 53, 0
8, 181028, Note_on_c, 6, 58, 0
8, 181056, Note_on_c, 6, 55, 127
8, 181160, Note_on_c, 6, 55, 0
8, 181248, Note_on_c, 6, 55, 127
8, 181248, Note_on_c, 6, 62, 127
8, 181308, Note_on_c, 6, 55, 0
8, 181328, Note_on_c, 6, 62, 0
8, 181632, Note_on_c, 6, 55, 127
8, 181632, Note_on_c, 6, 62, 127
8, 181996, Note_on_c, 6, 62, 0
8, 182004, Note_on_c, 6, 55, 0
8, 182016, Note_on_c, 6, 55, 127
8, 182016, Note_on_c, 6, 62, 127
8, 182196, Note_on_c, 6, 62, 0
8, 182208, Note_on_c, 6, 60, 127
8, 182384, Note_on_c, 6, 55, 0
8, 182392, Note_on_c, 6, 60, 0
8, 182400, Note_on_c, 6, 55, 127
8, 182400, Note_on_c, 6, 62, 127
8, 182580, Note_on_c, 6, 62, 0
8, 182592, Note_on_c, 6, 62, 127
8, 182772, Note_on_c, 6, 62, 0
8, 182772, Note_on_c, 6, 55, 0
8, 182784, Note_on_c, 6, 55, 127
8, 182784, Note_on_c, 6, 62, 127
8, 182964, Note_on_c, 6, 62, 0
8, 182976, Note_on_c, 6, 67, 127
8, 183152, Note_on_c, 6, 55, 0
8, 183164, Note_on_c, 6, 67, 0
8, 183168, Note_on_c, 6, 55, 127
8, 183168, Note_on_c, 6, 60, 127
8, 183344, Note_on_c, 6, 60, 0
8, 183360, Note_on_c, 6, 62, 127
8, 183540, Note_on_c, 6, 55, 0
8, 183544, Note_on_c, 6, 62, 0
8, 183552, Note_on_c, 6, 55, 127
8, 183552, Note_on_c, 6, 60, 127
8, 183736, Note_on_c, 6, 60, 0
8, 183744, Note_on_c, 6, 58, 126
8, 183920, Note_on_c, 6, 55, 0
8, 183924, Note_on_c, 6, 58, 0
8, 183936, Note_on_c, 6, 55, 127
8, 184044, Note_on_c, 6, 55, 0
8, 184128, Note_on_c, 6, 55, 127
8, 184224, Note_on_c, 6, 55, 0
8, 184320, Note_on_c, 6, 50, 127
8, 184320, Note_on_c, 6, 55, 127
8, 184396, Note_on_c, 6, 55, 0
8, 184396, Note_on_c, 6, 50, 0
8, 184704, Note_on_c, 6, 50, 127
8, 184704, Note_on_c, 6, 55, 127
8, 185264, Note_on_c, 6, 55, 0
8, 185280, Note_on_c, 6, 58, 127
8, 185460, Note_on_c, 6, 50, 0
8, 185464, Note_on_c, 6, 58, 0
8, 185472, Note_on_c, 6, 55, 127
8, 185652, Note_on_c, 6, 55, 0
8, 185664, Note_on_c, 6, 50, 124
8, 185744, Note_on_c, 6, 50, 0
8, 185856, Note_on_c, 6, 48, 127
8, 185856, Note_on_c, 6, 53, 127
8, 186224, Note_on_c, 6, 48, 0
8, 186228, Note_on_c, 6, 53, 0
8, 186240, Note_on_c, 6, 50, 127
8, 186240, Note_on_c, 6, 55, 127
8, 186316, Note_on_c, 6, 55, 0
8, 186320, Note_on_c, 6, 50, 0
8, 186624, Note_on_c, 6, 50, 127
8, 186624, Note_on_c, 6, 55, 127
8, 187344, Note_on_c, 6, 55, 0
8, 187348, Note_on_c, 6, 50, 0
8, 187392, Note_on_c, 6, 51, 127
8, 187392, Note_on_c, 6, 58, 127
8, 188916, Note_on_c, 6, 51, 0
8, 188924, Note_on_c, 6, 58, 0
8, 188928, Note_on_c, 6, 46, 127
8, 188928, Note_on_c, 6, 53, 127
8, 189872, Note_on_c, 6, 53, 0
8, 189876, Note_on_c, 6, 46, 0
8, 189888, Note_on_c, 6, 46, 127
8, 189888, Note_on_c, 6, 53, 127
8, 190252, Note_on_c, 6, 53, 0
8, 190256, Note_on_c, 6, 46, 0
8, 190272, Note_on_c, 6, 46, 127
8, 190272, Note_on_c, 6, 53, 127
8, 190448, Note_on_c, 6, 46, 0
8, 190456, Note_on_c, 6, 53, 0
8, 190464, Note_on_c, 6, 51, 127
8, 190464, Note_on_c, 6, 58, 127
8, 190640, Note_on_c, 6, 58, 0
8, 190648, Note_on_c, 6, 51, 0
8, 190656, Note_on_c, 6, 51, 127
8, 190656, Note_on_c, 6, 58, 127
8, 190824, Note_on_c, 6, 51, 0
8, 190828, Note_on_c, 6, 58, 0
8, 190848, Note_on_c, 6, 51, 127
8, 190848, Note_on_c, 6, 58, 127
8, 191024, Note_on_c, 6, 58, 0
8, 191024, Note_on_c, 6, 51, 0
8, 191040, Note_on_c, 6, 51, 127
8, 191040, Note_on_c, 6, 58, 127
8, 191212, Note_on_c, 6, 51, 0
8, 191220, Note_on_c, 6, 58, 0
8, 191232, Note_on_c, 6, 51, 127
8, 191232, Note_on_c, 6, 58, 127
8, 191400, Note_on_c, 6, 51, 0
8, 191412, Note_on_c, 6, 58, 0
8, 191424, Note_on_c, 6, 50, 127
8, 191424, Note_on_c, 6, 58, 127
8, 191592, Note_on_c, 6, 50, 0
8, 191596, Note_on_c, 6, 58, 0
8, 191616, Note_on_c, 6, 51, 127
8, 191616, Note_on_c, 6, 58, 127
8, 191792, Note_on_c, 6, 51, 0
8, 191796, Note_on_c, 6, 58, 0
8, 191808, Note_on_c, 6, 51, 127
8, 191808, Note_on_c, 6, 58, 127
8, 191976, Note_on_c, 6, 51, 0
8, 191984, Note_on_c, 6, 58, 0
8, 192000, Note_on_c, 6, 53, 127
8, 192000, Note_on_c, 6, 60, 127
8, 192176, Note_on_c, 6, 60, 0
8, 192180, Note_on_c, 6, 53, 0
8, 192192, Note_on_c, 6, 53, 127
8, 192192, Note_on_c, 6, 60, 127
8, 192560, Note_on_c, 6, 60, 0
8, 192560, Note_on_c, 6, 53, 0
8, 192576, Note_on_c, 6, 53, 127
8, 192576, Note_on_c, 6, 60, 127
8, 192944, Note_on_c, 6, 60, 0
8, 192944, Note_on_c, 6, 53, 0
8, 192960, Note_on_c, 6, 53, 127
8, 192960, Note_on_c, 6, 60, 127
8, 193328, Note_on_c, 6, 53, 0
8, 193332, Note_on_c, 6, 60, 0
8, 193344, Note_on_c, 6, 53, 127
8, 193344, Note_on_c, 6, 60, 127
8, 193516, Note_on_c, 6, 53, 0
8, 193520, Note_on_c, 6, 60, 0
8, 193536, Note_on_c, 6, 55, 127
8, 193536, Note_on_c, 6, 62, 127
8, 193596, Note_on_c, 6, 55, 0
8, 193616, Note_on_c, 6, 62, 0
8, 193920, Note_on_c, 6, 55, 127
8, 193920, Note_on_c, 6, 62, 127
8, 194284, Note_on_c, 6, 62, 0
8, 194292, Note_on_c, 6, 55, 0
8, 194304, Note_on_c, 6, 55, 127
8, 194304, Note_on_c, 6, 62, 127
8, 194484, Note_on_c, 6, 62, 0
8, 194496, Note_on_c, 6, 60, 127
8, 194672, Note_on_c, 6, 55, 0
8, 194680, Note_on_c, 6, 60, 0
8, 194688, Note_on_c, 6, 55, 127
8, 194688, Note_on_c, 6, 62, 127
8, 194868, Note_on_c, 6, 62, 0
8, 194880, Note_on_c, 6, 62, 127
8, 195060, Note_on_c, 6, 62, 0
8, 195060, Note_on_c, 6, 55, 0
8, 195072, Note_on_c, 6, 55, 127
8, 195072, Note_on_c, 6, 62, 127
8, 195252, Note_on_c, 6, 62, 0
8, 195264, Note_on_c, 6, 67, 127
8, 195440, Note_on_c, 6, 55, 0
8, 195452, Note_on_c, 6, 67, 0
8, 195456, Note_on_c, 6, 55, 127
8, 195456, Note_on_c, 6, 60, 127
8, 195632, Note_on_c, 6, 60, 0
8, 195648, Note_on_c, 6, 62, 127
8, 195828, Note_on_c, 6, 55, 0
8, 195832, Note_on_c, 6, 62, 0
8, 195840, Note_on_c, 6, 55, 127
8, 195840, Note_on_c, 6, 60, 127
8, 196024, Note_on_c, 6, 60, 0
8, 196032, Note_on_c, 6, 58, 126
8, 196208, Note_on_c, 6, 55, 0
8, 196212, Note_on_c, 6, 58, 0
8, 196224, Note_on_c, 6, 55, 127
8, 196332, Note_on_c, 6, 55, 0
8, 196416, Note_on_c, 6, 55, 127
8, 196512, Note_on_c, 6, 55, 0
8, 196608, Note_on_c, 6, 48, 127
8, 196608, Note_on_c, 6, 55, 127
8, 197556, Note_on_c, 6, 55, 0
8, 197556, Note_on_c, 6, 48, 0
8, 197568, Note_on_c, 6, 48, 127
8, 197568, Note_on_c, 6, 55, 127
8, 197940, Note_on_c, 6, 48, 0
8, 197944, Note_on_c, 6, 55, 0
8, 197952, Note_on_c, 6, 48, 127
8, 197952, Note_on_c, 6, 55, 127
8, 198128, Note_on_c, 6, 48, 0
8, 198136, Note_on_c, 6, 55, 0
8, 198144, Note_on_c, 6, 50, 127
8, 198144, Note_on_c, 6, 57, 127
8, 199092, Note_on_c, 6, 57, 0
8, 199092, Note_on_c, 6, 50, 0
8, 199104, Note_on_c, 6, 50, 127
8, 199104, Note_on_c, 6, 57, 127
8, 199472, Note_on_c, 6, 57, 0
8, 199476, Note_on_c, 6, 50, 0
8, 199488, Note_on_c, 6, 50, 127
8, 199488, Note_on_c, 6, 57, 127
8, 199664, Note_on_c, 6, 57, 0
8, 199668, Note_on_c, 6, 50, 0
8, 199680, Note_on_c, 6, 52, 127
8, 199680, Note_on_c, 6, 59, 127
8, 202684, Note_on_c, 6, 52, 0
8, 202696, Note_on_c, 6, 59, 0
8, 202752, Note_on_c, 6, 55, 127
8, 202752, Note_on_c, 6, 62, 127
8, 202836, Note_on_c, 6, 62, 0
8, 202836, Note_on_c, 6, 55, 0
8, 203136, Note_on_c, 6, 55, 127
8, 203136, Note_on_c, 6, 62, 127
8, 203512, Note_on_c, 6, 62, 0
8, 203512, Note_on_c, 6, 55, 0
8, 203520, Note_on_c, 6, 55, 127
8, 203520, Note_on_c, 6, 62, 127
8, 203700, Note_on_c, 6, 62, 0
8, 203712, Note_on_c, 6, 60, 127
8, 203892, Note_on_c, 6, 55, 0
8, 203900, Note_on_c, 6, 60, 0
8, 203904, Note_on_c, 6, 55, 127
8, 203904, Note_on_c, 6, 62, 127
8, 204088, Note_on_c, 6, 62, 0
8, 204096, Note_on_c, 6, 65, 127
8, 204276, Note_on_c, 6, 65, 0
8, 204276, Note_on_c, 6, 55, 0
8, 204288, Note_on_c, 6, 55, 127
8, 204288, Note_on_c, 6, 65, 127
8, 204656, Note_on_c, 6, 55, 0
8, 204660, Note_on_c, 6, 65, 0
8, 204672, Note_on_c, 6, 55, 127
8, 204672, Note_on_c, 6, 62, 127
8, 204848, Note_on_c, 6, 62, 0
8, 204864, Note_on_c, 6, 60, 127
8, 205044, Note_on_c, 6, 60, 0
8, 205044, Note_on_c, 6, 55, 0
8, 205056, Note_on_c, 6, 55, 127
8, 205056, Note_on_c, 6, 60, 127
8, 205240, Note_on_c, 6, 60, 0
8, 205248, Note_on_c, 6, 58, 127
8, 205424, Note_on_c, 6, 55, 0
8, 205440, Note_on_c, 6, 50, 127
8, 205524, Note_on_c, 6, 58, 0
8, 205620, Note_on_c, 6, 50, 0
8, 205632, Note_on_c, 6, 55, 125
8, 205708, Note_on_c, 6, 55, 0
8, 205824, Note_on_c, 6, 50, 127
8, 205824, Note_on_c, 6, 55, 127
8, 205896, Note_on_c, 6, 55, 0
8, 205900, Note_on_c, 6, 50, 0
8, 206208, Note_on_c, 6, 50, 127
8, 206208, Note_on_c, 6, 55, 127
8, 206572, Note_on_c, 6, 55, 0
8, 206576, Note_on_c, 6, 50, 0
8, 206592, Note_on_c, 6, 50, 127
8, 206592, Note_on_c, 6, 55, 127
8, 206764, Note_on_c, 6, 55, 0
8, 206784, Note_on_c, 6, 58, 127
8, 206948, Note_on_c, 6, 58, 0
8, 206964, Note_on_c, 6, 50, 0
8, 206976, Note_on_c, 6, 50, 127
8, 207052, Note_on_c, 6, 50, 0
8, 207168, Note_on_c, 6, 50, 125
8, 207240, Note_on_c, 6, 50, 0
8, 207360, Note_on_c, 6, 53, 127
8, 207360, Note_on_c, 6, 58, 127
8, 207728, Note_on_c, 6, 58, 0
8, 207736, Note_on_c, 6, 53, 0
8, 207744, Note_on_c, 6, 55, 127
8, 207744, Note_on_c, 6, 60, 127
8, 207820, Note_on_c, 6, 60, 0
8, 207824, Note_on_c, 6, 55, 0
8, 208128, Note_on_c, 6, 55, 127
8, 208128, Note_on_c, 6, 60, 127
8, 208496, Note_on_c, 6, 60, 0
8, 208500, Note_on_c, 6, 55, 0
8, 208512, Note_on_c, 6, 53, 117
8, 208512, Note_on_c, 6, 58, 127
8, 208580, Note_on_c, 6, 53, 0
8, 208676, Note_on_c, 6, 58, 0
8, 208704, Note_on_c, 6, 55, 127
8, 208808, Note_on_c, 6, 55, 0
8, 208896, Note_on_c, 6, 55, 127
8, 208896, Note_on_c, 6, 62, 127
8, 208956, Note_on_c, 6, 55, 0
8, 208976, Note_on_c, 6, 62, 0
8, 209280, Note_on_c, 6, 55, 127
8, 209280, Note_on_c, 6, 62, 127
8, 209644, Note_on_c, 6, 62, 0
8, 209652, Note_on_c, 6, 55, 0
8, 209664, Note_on_c, 6, 55, 127
8, 209664, Note_on_c, 6, 62, 127
8, 209844, Note_on_c, 6, 62, 0
8, 209856, Note_on_c, 6, 60, 127
8, 210032, Note_on_c, 6, 55, 0
8, 210040, Note_on_c, 6, 60, 0
8, 210048, Note_on_c, 6, 55, 127
8, 210048, Note_on_c, 6, 62, 127
8, 210228, Note_on_c, 6, 62, 0
8, 210240, Note_on_c, 6, 62, 127
8, 210420, Note_on_c, 6, 62, 0
8, 210420, Note_on_c, 6, 55, 0
8, 210432, Note_on_c, 6, 55, 127
8, 210432, Note_on_c, 6, 62, 127
8, 210612, Note_on_c, 6, 62, 0
8, 210624, Note_on_c, 6, 67, 127
8, 210800, Note_on_c, 6, 55, 0
8, 210812, Note_on_c, 6, 67, 0
8, 210816, Note_on_c, 6, 55, 127
8, 210816, Note_on_c, 6, 60, 127
8, 210992, Note_on_c, 6, 60, 0
8, 211008, Note_on_c, 6, 62, 127
8, 211188, Note_on_c, 6, 55, 0
8, 211192, Note_on_c, 6, 62, 0
8, 211200, Note_on_c, 6, 55, 127
8, 211200, Note_on_c, 6, 60, 127
8, 211384, Note_on_c, 6, 60, 0
8, 211392, Note_on_c, 6, 58, 126
8, 211568, Note_on_c, 6, 55, 0
8, 211572, Note_on_c, 6, 58, 0
8, 211584, Note_on_c, 6, 55, 127
8, 211692, Note_on_c, 6, 55, 0
8, 211776, Note_on_c, 6, 55, 127
8, 211872, Note_on_c, 6, 55, 0
8, 211968, Note_on_c, 6, 50, 127
8, 211968, Note_on_c, 6, 55, 127
8, 212044, Note_on_c, 6, 55, 0
8, 212044, Note_on_c, 6, 50, 0
8, 212352, Note_on_c, 6, 50, 127
8, 212352, Note_on_c, 6, 55, 127
8, 212912, Note_on_c, 6, 55, 0
8, 212928, Note_on_c, 6, 58, 127
8, 213108, Note_on_c, 6, 50, 0
8, 213112, Note_on_c, 6, 58, 0
8, 213120, Note_on_c, 6, 55, 127
8, 213300, Note_on_c, 6, 55, 0
8, 213312, Note_on_c, 6, 50, 124
8, 213392, Note_on_c, 6, 50, 0
8, 213504, Note_on_c, 6, 48, 127
8, 213504, Note_on_c, 6, 53, 127
8, 213872, Note_on_c, 6, 48, 0
8, 213876, Note_on_c, 6, 53, 0
8, 213888, Note_on_c, 6, 50, 127
8, 213888, Note_on_c, 6, 55, 127
8, 213964, Note_on_c, 6, 55, 0
8, 213968, Note_on_c, 6, 50, 0
8, 214272, Note_on_c, 6, 50, 127
8, 214272, Note_on_c, 6, 55, 127
8, 214992, Note_on_c, 6, 55, 0
8, 214996, Note_on_c, 6, 50, 0
8, 215040, Note_on_c, 6, 55, 127
8, 215040, Note_on_c, 6, 62, 127
8, 215124, Note_on_c, 6, 62, 0
8, 215124, Note_on_c, 6, 55, 0
8, 215424, Note_on_c, 6, 55, 127
8, 215424, Note_on_c, 6, 62, 127
8, 215800, Note_on_c, 6, 62, 0
8, 215800, Note_on_c, 6, 55, 0
8, 215808, Note_on_c, 6, 55, 127
8, 215808, Note_on_c, 6, 62, 127
8, 215988, Note_on_c, 6, 62, 0
8, 216000, Note_on_c, 6, 60, 127
8, 216180, Note_on_c, 6, 55, 0
8, 216188, Note_on_c, 6, 60, 0
8, 216192, Note_on_c, 6, 55, 127
8, 216192, Note_on_c, 6, 62, 127
8, 216376, Note_on_c, 6, 62, 0
8, 216384, Note_on_c, 6, 65, 127
8, 216564, Note_on_c, 6, 65, 0
8, 216564, Note_on_c, 6, 55, 0
8, 216576, Note_on_c, 6, 55, 127
8, 216576, Note_on_c, 6, 65, 127
8, 216944, Note_on_c, 6, 55, 0
8, 216948, Note_on_c, 6, 65, 0
8, 216960, Note_on_c, 6, 55, 127
8, 216960, Note_on_c, 6, 62, 127
8, 217136, Note_on_c, 6, 62, 0
8, 217152, Note_on_c, 6, 60, 127
8, 217332, Note_on_c, 6, 60, 0
8, 217332, Note_on_c, 6, 55, 0
8, 217344, Note_on_c, 6, 55, 127
8, 217344, Note_on_c, 6, 60, 127
8, 217528, Note_on_c, 6, 60, 0
8, 217536, Note_on_c, 6, 58, 127
8, 217712, Note_on_c, 6, 55, 0
8, 217728, Note_on_c, 6, 50, 127
8, 217812, Note_on_c, 6, 58, 0
8, 217908, Note_on_c, 6, 50, 0
8, 217920, Note_on_c, 6, 55, 125
8, 217996, Note_on_c, 6, 55, 0
8, 218112, Note_on_c, 6, 50, 127
8, 218112, Note_on_c, 6, 55, 127
8, 218184, Note_on_c, 6, 55, 0
8, 218188, Note_on_c, 6, 50, 0
8, 218496, Note_on_c, 6, 50, 127
8, 218496, Note_on_c, 6, 55, 127
8, 218860, Note_on_c, 6, 55, 0
8, 218864, Note_on_c, 6, 50, 0
8, 218880, Note_on_c, 6, 50, 127
8, 218880, Note_on_c, 6, 55, 127
8, 219052, Note_on_c, 6, 55, 0
8, 219072, Note_on_c, 6, 58, 127
8, 219236, Note_on_c, 6, 58, 0
8, 219252, Note_on_c, 6, 50, 0
8, 219264, Note_on_c, 6, 50, 127
8, 219340, Note_on_c, 6, 50, 0
8, 219456, Note_on_c, 6, 50, 125
8, 219528, Note_on_c, 6, 50, 0
8, 219648, Note_on_c, 6, 53, 127
8, 219648, Note_on_c, 6, 58, 127
8, 220016, Note_on_c, 6, 58, 0
8, 220024, Note_on_c, 6, 53, 0
8, 220032, Note_on_c, 6, 55, 127
8, 220032, Note_on_c, 6, 60, 127
8, 220108, Note_on_c, 6, 60, 0
8, 220112, Note_on_c, 6, 55, 0
8, 220416, Note_on_c, 6, 55, 127
8, 220416, Note_on_c, 6, 60, 127
8, 220784, Note_on_c, 6, 60, 0
8, 220788, Note_on_c, 6, 55, 0
8, 220800, Note_on_c, 6, 53, 117
8, 220800, Note_on_c, 6, 58, 127
8, 220868, Note_on_c, 6, 53, 0
8, 220964, Note_on_c, 6, 58, 0
8, 220992, Note_on_c, 6, 55, 127
8, 221096, Note_on_c, 6, 55, 0
8, 221184, Note_on_c, 6, 55, 127
8, 221184, Note_on_c, 6, 62, 127
8, 221244, Note_on_c, 6, 55, 0
8, 221264, Note_on_c, 6, 62, 0
8, 221568, Note_on_c, 6, 55, 127
8, 221568, Note_on_c, 6, 62, 127
8, 221932, Note_on_c, 6, 62, 0
8, 221940, Note_on_c, 6, 55, 0
8, 221952, Note_on_c, 6, 55, 127
8, 221952, Note_on_c, 6, 62, 127
8, 222132, Note_on_c, 6, 62, 0
8, 222144, Note_on_c, 6, 60, 127
8, 222320, Note_on_c, 6, 55, 0
8, 222328, Note_on_c, 6, 60, 0
8, 222336, Note_on_c, 6, 55, 127
8, 222336, Note_on_c, 6, 62, 127
8, 222516, Note_on_c, 6, 62, 0
8, 222528, Note_on_c, 6, 62, 127
8, 222708, Note_on_c, 6, 62, 0
8, 222708, Note_on_c, 6, 55, 0
8, 222720, Note_on_c, 6, 55, 127
8, 222720, Note_on_c, 6, 62, 127
8, 222900, Note_on_c, 6, 62, 0
8, 222912, Note_on_c, 6, 67, 127
8, 223088, Note_on_c, 6, 55, 0
8, 223100, Note_on_c, 6, 67, 0
8, 223104, Note_on_c, 6, 55, 127
8, 223104, Note_on_c, 6, 60, 127
8, 223280, Note_on_c, 6, 60, 0
8, 223296, Note_on_c, 6, 62, 127
8, 223476, Note_on_c, 6, 55, 0
8, 223480, Note_on_c, 6, 62, 0
8, 223488, Note_on_c, 6, 55, 127
8, 223488, Note_on_c, 6, 60, 127
8, 223672, Note_on_c, 6, 60, 0
8, 223680, Note_on_c, 6, 58, 126
8, 223856, Note_on_c, 6, 55, 0
8, 223860, Note_on_c, 6, 58, 0
8, 223872, Note_on_c, 6, 55, 127
8, 223980, Note_on_c, 6, 55, 0
8, 224064, Note_on_c, 6, 55, 127
8, 224160, Note_on_c, 6, 55, 0
8, 224256, Note_on_c, 6, 50, 127
8, 224256, Note_on_c, 6, 55, 127
8, 224332, Note_on_c, 6, 55, 0
8, 224332, Note_on_c, 6, 50, 0
8, 224640, Note_on_c, 6, 50, 127
8, 224640, Note_on_c, 6, 55, 127
8, 225200, Note_on_c, 6, 55, 0
8, 225216, Note_on_c, 6, 58, 127
8, 225396, Note_on_c, 6, 50, 0
8, 225400, Note_on_c, 6, 58, 0
8, 225408, Note_on_c, 6, 55, 127
8, 225588, Note_on_c, 6, 55, 0
8, 225600, Note_on_c, 6, 50, 124
8, 225680, Note_on_c, 6, 50, 0
8, 225792, Note_on_c, 6, 48, 127
8, 225792, Note_on_c, 6, 53, 127
8, 226160, Note_on_c, 6, 48, 0
8, 226164, Note_on_c, 6, 53, 0
8, 226176, Note_on_c, 6, 50, 127
8, 226176, Note_on_c, 6, 55, 127
8, 226252, Note_on_c, 6, 55, 0
8, 226256, Note_on_c, 6, 50, 0
8, 226560, Note_on_c, 6, 50, 127
8, 226560, Note_on_c, 6, 55, 127
8, 227280, Note_on_c, 6, 55, 0
8, 227284, Note_on_c, 6, 50, 0
8, 227328, Note_on_c, 6, 51, 127
8, 227328, Note_on_c, 6, 58, 127
8, 228852, Note_on_c, 6, 51, 0
8, 228860, Note_on_c, 6, 58, 0
8, 228864, Note_on_c, 6, 46, 127
8, 228864, Note_on_c, 6, 53, 127
8, 229808, Note_on_c, 6, 53, 0
8, 229812, Note_on_c, 6, 46, 0
8, 229824, Note_on_c, 6, 46, 127
8, 229824, Note_on_c, 6, 53, 127
8, 230188, Note_on_c, 6, 53, 0
8, 230192, Note_on_c, 6, 46, 0
8, 230208, Note_on_c, 6, 46, 127
8, 230208, Note_on_c, 6, 53, 127
8, 230384, Note_on_c, 6, 46, 0
8, 230392, Note_on_c, 6, 53, 0
8, 230400, Note_on_c, 6, 51, 127
8, 230400, Note_on_c, 6, 58, 127
8, 230576, Note_on_c, 6, 58, 0
8, 230584, Note_on_c, 6, 51, 0
8, 230592, Note_on_c, 6, 51, 127
8, 230592, Note_on_c, 6, 58, 127
8, 230760, Note_on_c, 6, 51, 0
8, 230764, Note_on_c, 6, 58, 0
8, 230784, Note_on_c, 6, 51, 127
8, 230784, Note_on_c, 6, 58, 127
8, 230960, Note_on_c, 6, 58, 0
8, 230960, Note_on_c, 6, 51, 0
8, 230976, Note_on_c, 6, 51, 127
8, 230976, Note_on_c, 6, 58, 127
8, 231148, Note_on_c, 6, 51, 0
8, 231156, Note_on_c, 6, 58, 0
8, 231168, Note_on_c, 6, 51, 127
8, 231168, Note_on_c, 6, 58, 127
8, 231336, Note_on_c, 6, 51, 0
8, 231348, Note_on_c, 6, 58, 0
8, 231360, Note_on_c, 6, 50, 127
8, 231360, Note_on_c, 6, 58, 127
8, 231528, Note_on_c, 6, 50, 0
8, 231532, Note_on_c, 6, 58, 0
8, 231552, Note_on_c, 6, 51, 127
8, 231552, Note_on_c, 6, 58, 127
8, 231728, Note_on_c, 6, 51, 0
8, 231732, Note_on_c, 6, 58, 0
8, 231744, Note_on_c, 6, 51, 127
8, 231744, Note_on_c, 6, 58, 127
8, 231912, Note_on_c, 6, 51, 0
8, 231920, Note_on_c, 6, 58, 0
8, 231936, Note_on_c, 6, 53, 127
8, 231936, Note_on_c, 6, 60, 127
8, 232112, Note_on_c, 6, 60, 0
8, 232116, Note_on_c, 6, 53, 0
8, 232128, Note_on_c, 6, 53, 127
8, 232128, Note_on_c, 6, 60, 127
8, 232496, Note_on_c, 6, 60, 0
8, 232496, Note_on_c, 6, 53, 0
8, 232512, Note_on_c, 6, 53, 127
8, 232512, Note_on_c, 6, 60, 127
8, 232880, Note_on_c, 6, 60, 0
8, 232880, Note_on_c, 6, 53, 0
8, 232896, Note_on_c, 6, 53, 127
8, 232896, Note_on_c, 6, 60, 127
8, 233264, Note_on_c, 6, 53, 0
8, 233268, Note_on_c, 6, 60, 0
8, 233280, Note_on_c, 6, 53, 127
8, 233280, Note_on_c, 6, 60, 127
8, 233452, Note_on_c, 6, 53, 0
8, 233456, Note_on_c, 6, 60, 0
8, 233472, Note_on_c, 6, 55, 127
8, 233472, Note_on_c, 6, 62, 127
8, 233532, Note_on_c, 6, 55, 0
8, 233552, Note_on_c, 6, 62, 0
8, 233856, Note_on_c, 6, 55, 127
8, 233856, Note_on_c, 6, 62, 127
8, 234220, Note_on_c, 6, 62, 0
8, 234228, Note_on_c, 6, 55, 0
8, 234240, Note_on_c, 6, 55, 127
8, 234240, Note_on_c, 6, 62, 127
8, 234420, Note_on_c, 6, 62, 0
8, 234432, Note_on_c, 6, 60, 127
8, 234608, Note_on_c, 6, 55, 0
8, 234616, Note_on_c, 6, 60, 0
8, 234624, Note_on_c, 6, 55, 127
8, 234624, Note_on_c, 6, 62, 127
8, 234804, Note_on_c, 6, 62, 0
8, 234816, Note_on_c, 6, 62, 127
8, 234996, Note_on_c, 6, 62, 0
8, 234996, Note_on_c, 6, 55, 0
8, 235008, Note_on_c, 6, 55, 127
8, 235008, Note_on_c, 6, 62, 127
8, 235188, Note_on_c, 6, 62, 0
8, 235200, Note_on_c, 6, 67, 127
8, 235376, Note_on_c, 6, 55, 0
8, 235388, Note_on_c, 6, 67, 0
8, 235392, Note_on_c, 6, 55, 127
8, 235392, Note_on_c, 6, 60, 127
8, 235568, Note_on_c, 6, 60, 0
8, 235584, Note_on_c, 6, 62, 127
8, 235764, Note_on_c, 6, 55, 0
8, 235768, Note_on_c, 6, 62, 0
8, 235776, Note_on_c, 6, 55, 127
8, 235776, Note_on_c, 6, 60, 127
8, 235960, Note_on_c, 6, 60, 0
8, 235968, Note_on_c, 6, 58, 126
8, 236144, Note_on_c, 6, 55, 0
8, 236148, Note_on_c, 6, 58, 0
8, 236160, Note_on_c, 6, 55, 127
8, 236268, Note_on_c, 6, 55, 0
8, 236352, Note_on_c, 6, 55, 127
8, 236448, Note_on_c, 6, 55, 0
8, 236544, Note_on_c, 6, 48, 127
8, 236544, Note_on_c, 6, 55, 127
8, 237492, Note_on_c, 6, 55, 0
8, 237492, Note_on_c, 6, 48, 0
8, 237504, Note_on_c, 6, 48, 127
8, 237504, Note_on_c, 6, 55, 127
8, 237876, Note_on_c, 6, 48, 0
8, 237880, Note_on_c, 6, 55, 0
8, 237888, Note_on_c, 6, 48, 127
8, 237888, Note_on_c, 6, 55, 127
8, 238064, Note_on_c, 6, 48, 0
8, 238072, Note_on_c, 6, 55, 0
8, 238080, Note_on_c, 6, 50, 127
8, 238080, Note_on_c, 6, 57, 127
8, 239028, Note_on_c, 6, 57, 0
8, 239028, Note_on_c, 6, 50, 0
8, 239040, Note_on_c, 6, 50, 127
8, 239040, Note_on_c, 6, 57, 127
8, 239408, Note_on_c, 6, 57, 0
8, 239412, Note_on_c, 6, 50, 0
8, 239424, Note_on_c, 6, 50, 127
8, 239424, Note_on_c, 6, 57, 127
8, 239600, Note_on_c, 6, 57, 0
8, 239604, Note_on_c, 6, 50, 0
8, 239616, Note_on_c, 6, 52, 127
8, 239616, Note_on_c, 6, 59, 127
8, 242620, Note_on_c, 6, 52, 0
8, 242632, Note_on_c, 6, 59, 0
8, 242688, Note_on_c, 6, 55, 127
8, 242688, Note_on_c, 6, 62, 127
8, 242772, Note_on_c, 6, 62, 0
8, 242772, Note_on_c, 6, 55, 0
8, 243072, Note_on_c, 6, 55, 127
8, 243072, Note_on_c, 6, 62, 127
8, 243448, Note_on_c, 6, 62, 0
8, 243448, Note_on_c, 6, 55, 0
8, 243456, Note_on_c, 6, 55, 127
8, 243456, Note_on_c, 6, 62, 127
8, 243636, Note_on_c, 6, 62, 0
8, 243648, Note_on_c, 6, 60, 127
8, 243828, Note_on_c, 6, 55, 0
8, 243836, Note_on_c, 6, 60, 0
8, 243840, Note_on_c, 6, 55, 127
8, 243840, Note_on_c, 6, 62, 127
8, 244024, Note_on_c, 6, 62, 0
8, 244032, Note_on_c, 6, 65, 127
8, 244212, Note_on_c, 6, 65, 0
8, 244212, Note_on_c, 6, 55, 0
8, 244224, Note_on_c, 6, 55, 127
8, 244224, Note_on_c, 6, 65, 127
8, 244592, Note_on_c, 6, 55, 0
8, 244596, Note_on_c, 6, 65, 0
8, 244608, Note_on_c, 6, 55, 127
8, 244608, Note_on_c, 6, 62, 127
8, 244784, Note_on_c, 6, 62, 0
8, 244800, Note_on_c, 6, 60, 127
8, 244980, Note_on_c, 6, 60, 0
8, 244980, Note_on_c, 6, 55, 0
8, 244992, Note_on_c, 6, 55, 127
8, 244992, Note_on_c, 6, 60, 127
8, 245176, Note_on_c, 6, 60, 0
8, 245184, Note_on_c, 6, 58, 127
8, 245360, Note_on_c, 6, 55, 0
8, 245376, Note_on_c, 6, 50, 127
8, 245460, Note_on_c, 6, 58, 0
8, 245556, Note_on_c, 6, 50, 0
8, 245568, Note_on_c, 6, 55, 125
8, 245644, Note_on_c, 6, 55, 0
8, 245760, Note_on_c, 6, 50, 127
8, 245760, Note_on_c, 6, 55, 127
8, 245832, Note_on_c, 6, 55, 0
8, 245836, Note_on_c, 6, 50, 0
8, 246144, Note_on_c, 6, 50, 127
8, 246144, Note_on_c, 6, 55, 127
8, 246508, Note_on_c, 6, 55, 0
8, 246512, Note_on_c, 6, 50, 0
8, 246528, Note_on_c, 6, 50, 127
8, 246528, Note_on_c, 6, 55, 127
8, 246700, Note_on_c, 6, 55, 0
8, 246720, Note_on_c, 6, 58, 127
8, 246884, Note_on_c, 6, 58, 0
8, 246900, Note_on_c, 6, 50, 0
8, 246912, Note_on_c, 6, 50, 127
8, 246988, Note_on_c, 6, 50, 0
8, 247104, Note_on_c, 6, 50, 125
8, 247176, Note_on_c, 6, 50, 0
8, 247296, Note_on_c, 6, 53, 127
8, 247296, Note_on_c, 6, 58, 127
8, 247664, Note_on_c, 6, 58, 0
8, 247672, Note_on_c, 6, 53, 0
8, 247680, Note_on_c, 6, 55, 127
8, 247680, Note_on_c, 6, 60, 127
8, 247756, Note_on_c, 6, 60, 0
8, 247760, Note_on_c, 6, 55, 0
8, 248064, Note_on_c, 6, 55, 127
8, 248064, Note_on_c, 6, 60, 127
8, 248432, Note_on_c, 6, 60, 0
8, 248436, Note_on_c, 6, 55, 0
8, 248448, Note_on_c, 6, 53, 117
8, 248448, Note_on_c, 6, 58, 127
8, 248516, Note_on_c, 6, 53, 0
8, 248612, Note_on_c, 6, 58, 0
8, 248640, Note_on_c, 6, 55, 127
8, 248744, Note_on_c, 6, 55, 0
8, 248832, Note_on_c, 6, 55, 127
8, 248832, Note_on_c, 6, 62, 127
8, 248892, Note_on_c, 6, 55, 0
8, 248912, Note_on_c, 6, 62, 0
8, 249216, Note_on_c, 6, 55, 127
8, 249216, Note_on_c, 6, 62, 127
8, 249580, Note_on_c, 6, 62, 0
8, 249588, Note_on_c, 6, 55, 0
8, 249600, Note_on_c, 6, 55, 127
8, 249600, Note_on_c, 6, 62, 127
8, 249780, Note_on_c, 6, 62, 0
8, 249792, Note_on_c, 6, 60, 127
8, 249968, Note_on_c, 6, 55, 0
8, 249976, Note_on_c, 6, 60, 0
8, 249984, Note_on_c, 6, 55, 127
8, 249984, Note_on_c, 6, 62, 127
8, 250164, Note_on_c, 6, 62, 0
8, 250176, Note_on_c, 6, 62, 127
8, 250356, Note_on_c, 6, 62, 0
8, 250356, Note_on_c, 6, 55, 0
8, 250368, Note_on_c, 6, 55, 127
8, 250368, Note_on_c, 6, 62, 127
8, 250548, Note_on_c, 6, 62, 0
8, 250560, Note_on_c, 6, 67, 127
8, 250736, Note_on_c, 6, 55, 0
8, 250748, Note_on_c, 6, 67, 0
8, 250752, Note_on_c, 6, 55, 127
8, 250752, Note_on_c, 6, 60, 127
8, 250928, Note_on_c, 6, 60, 0
8, 250944, Note_on_c, 6, 62, 127
8, 251124, Note_on_c, 6, 55, 0
8, 251128, Note_on_c, 6, 62, 0
8, 251136, Note_on_c, 6, 55, 127
8, 251136, Note_on_c, 6, 60, 127
8, 251320, Note_on_c, 6, 60, 0
8, 251328, Note_on_c, 6, 58, 126
8, 251504, Note_on_c, 6, 55, 0
8, 251508, Note_on_c, 6, 58, 0
8, 251520, Note_on_c, 6, 55, 127
8, 251628, Note_on_c, 6, 55, 0
8, 251712, Note_on_c, 6, 55, 127
8, 251808, Note_on_c, 6, 55, 0
8, 251904, Note_on_c, 6, 50, 127
8, 251904, Note_on_c, 6, 55, 127
8, 251980, Note_on_c, 6, 55, 0
8, 251980, Note_on_c, 6, 50, 0
8, 252288, Note_on_c, 6, 50, 127
8, 252288, Note_on_c, 6, 55, 127
8, 252848, Note_on_c, 6, 55, 0
8, 252864, Note_on_c, 6, 58, 127
8, 253044, Note_on_c, 6, 50, 0
8, 253048, Note_on_c, 6, 58, 0
8, 253056, Note_on_c, 6, 55, 127
8, 253236, Note_on_c, 6, 55, 0
8, 253248, Note_on_c, 6, 50, 124
8, 253328, Note_on_c, 6, 50, 0
8, 253440, Note_on_c, 6, 48, 127
8, 253440, Note_on_c, 6, 53, 127
8, 253808, Note_on_c, 6, 48, 0
8, 253812, Note_on_c, 6, 53, 0
8, 253824, Note_on_c, 6, 50, 127
8, 253824, Note_on_c, 6, 55, 127
8, 253900, Note_on_c, 6, 55, 0
8, 253904, Note_on_c, 6, 50, 0
8, 254208, Note_on_c, 6, 50, 127
8, 254208, Note_on_c, 6, 55, 127
8, 254928, Note_on_c, 6, 55, 0
8, 254932, Note_on_c, 6, 50, 0
8, 254976, Note_on_c, 6, 55, 127
8, 254976, Note_on_c, 6, 62, 127
8, 255060, Note_on_c, 6, 62, 0
8, 255060, Note_on_c, 6, 55, 0
8, 255360, Note_on_c, 6, 55, 127
8, 255360, Note_on_c, 6, 62, 127
8, 255736, Note_on_c, 6, 62, 0
8, 255736, Note_on_c, 6, 55, 0
8, 255744, Note_on_c, 6, 55, 127
8, 255744, Note_on_c, 6, 62, 127
8, 255924, Note_on_c, 6, 62, 0
8, 255936, Note_on_c, 6, 60, 127
8, 256116, Note_on_c, 6, 55, 0
8, 256124, Note_on_c, 6, 60, 0
8, 256128, Note_on_c, 6, 55, 127
8, 256128, Note_on_c, 6, 62, 127
8, 256312, Note_on_c, 6, 62, 0
8, 256320, Note_on_c, 6, 65, 127
8, 256500, Note_on_c, 6, 65, 0
8, 256500, Note_on_c, 6, 55, 0
8, 256512, Note_on_c, 6, 55, 127
8, 256512, Note_on_c, 6, 65, 127
8, 256880, Note_on_c, 6, 55, 0
8, 256884, Note_on_c, 6, 65, 0
8, 256896, Note_on_c, 6, 55, 127
8, 256896, Note_on_c, 6, 62, 127
8, 257072, Note_on_c, 6, 62, 0
8, 257088, Note_on_c, 6, 60, 127
8, 257268, Note_on_c, 6, 60, 0
8, 257268, Note_on_c, 6, 55, 0
8, 257280, Note_on_c, 6, 55, 127
8, 257280, Note_on_c, 6, 60, 127
8, 257464, Note_on_c, 6, 60, 0
8, 257472, Note_on_c, 6, 58, 127
8, 257648, Note_on_c, 6, 55, 0
8, 257664, Note_on_c, 6, 50, 127
8, 257748, Note_on_c, 6, 58, 0
8, 257844, Note_on_c, 6, 50, 0
8, 257856, Note_on_c, 6, 55, 125
8, 257932, Note_on_c, 6, 55, 0
8, 258048, Note_on_c, 6, 50, 127
8, 258048, Note_on_c, 6, 55, 127
8, 258120, Note_on_c, 6, 55, 0
8, 258124, Note_on_c, 6, 50, 0
8, 258432, Note_on_c, 6, 50, 127
8, 258432, Note_on_c, 6, 55, 127
8, 258796, Note_on_c, 6, 55, 0
8, 258800, Note_on_c, 6, 50, 0
8, 258816, Note_on_c, 6, 50, 127
8, 258816, Note_on_c, 6, 55, 127
8, 258988, Note_on_c, 6, 55, 0
8, 259008, Note_on_c, 6, 58, 127
8, 259172, Note_on_c, 6, 58, 0
8, 259188, Note_on_c, 6, 50, 0
8, 259200, Note_on_c, 6, 50, 127
8, 259276, Note_on_c, 6, 50, 0
8, 259392, Note_on_c, 6, 50, 125
8, 259464, Note_on_c, 6, 50, 0
8, 259584, Note_on_c, 6, 53, 127
8, 259584, Note_on_c, 6, 58, 127
8, 259952, Note_on_c, 6, 58, 0
8, 259960, Note_on_c, 6, 53, 0
8, 259968, Note_on_c, 6, 55, 127
8, 259968, Note_on_c, 6, 60, 127
8, 260044, Note_on_c, 6, 60, 0
8, 260048, Note_on_c, 6, 55, 0
8, 260352, Note_on_c, 6, 55, 127
8, 260352, Note_on_c, 6, 60, 127
8, 260720, Note_on_c, 6, 60, 0
8, 260724, Note_on_c, 6, 55, 0
8, 260736, Note_on_c, 6, 53, 117
8, 260736, Note_on_c, 6, 58, 127
8, 260804, Note_on_c, 6, 53, 0
8, 260900, Note_on_c, 6, 58, 0
8, 260928, Note_on_c, 6, 55, 127
8, 261032, Note_on_c, 6, 55, 0
8, 261120, Note_on_c, 6, 55, 127
8, 261120, Note_on_c, 6, 62, 127
8, 261180, Note_on_c, 6, 55, 0
8, 261200, Note_on_c, 6, 62, 0
8, 261504, Note_on_c, 6, 55, 127
8, 261504, Note_on_c, 6, 62, 127
8, 261868, Note_on_c, 6, 62, 0
8, 261876, Note_on_c, 6, 55, 0
8, 261888, Note_on_c, 6, 55, 127
8, 261888, Note_on_c, 6, 62, 127
8, 262068, Note_on_c, 6, 62, 0
8, 262080, Note_on_c, 6, 60, 127
8, 262256, Note_on_c, 6, 55, 0
8, 262264, Note_on_c, 6, 60, 0
8, 262272, Note_on_c, 6, 55, 127
8, 262272, Note_on_c, 6, 62, 127
8, 262452, Note_on_c, 6, 62, 0
8, 262464, Note_on_c, 6, 62, 127
8, 262644, Note_on_c, 6, 62, 0
8, 262644, Note_on_c, 6, 55, 0
8, 262656, Note_on_c, 6, 55, 127
8, 262656, Note_on_c, 6, 62, 127
8, 262836, Note_on_c, 6, 62, 0
8, 262848, Note_on_c, 6, 67, 127
8, 263024, Note_on_c, 6, 55, 0
8, 263036, Note_on_c, 6, 67, 0
8, 263040, Note_on_c, 6, 55, 127
8, 263040, Note_on_c, 6, 60, 127
8, 263216, Note_on_c, 6, 60, 0
8, 263232, Note_on_c, 6, 62, 127
8, 263412, Note_on_c, 6, 55, 0
8, 263416, Note_on_c, 6, 62, 0
8, 263424, Note_on_c, 6, 55, 127
8, 263424, Note_on_c, 6, 60, 127
8, 263608, Note_on_c, 6, 60, 0
8, 263616, Note_on_c, 6, 58, 126
8, 263792, Note_on_c, 6, 55, 0
8, 263796, Note_on_c, 6, 58, 0
8, 263808, Note_on_c, 6, 55, 127
8, 263916, Note_on_c, 6, 55, 0
8, 264000, Note_on_c, 6, 55, 127
8, 264096, Note_on_c, 6, 55, 0
8, 264192, Note_on_c, 6, 50, 127
8, 264192, Note_on_c, 6, 55, 127
8, 264268, Note_on_c, 6, 55, 0
8, 264268, Note_on_c, 6, 50, 0
8, 264576, Note_on_c, 6, 50, 127
8, 264576, Note_on_c, 6, 55, 127
8, 265136, Note_on_c, 6, 55, 0
8, 265152, Note_on_c, 6, 58, 127
8, 265332, Note_on_c, 6, 50, 0
8, 265336, Note_on_c, 6, 58, 0
8, 265344, Note_on_c, 6, 55, 127
8, 265524, Note_on_c, 6, 55, 0
8, 265536, Note_on_c, 6, 50, 124
8, 265616, Note_on_c, 6, 50, 0
8, 265728, Note_on_c, 6, 48, 127
8, 265728, Note_on_c, 6, 53, 127
8, 266096, Note_on_c, 6, 48, 0
8, 266100, Note_on_c, 6, 53, 0
8, 266112, Note_on_c, 6, 50, 127
8, 266112, Note_on_c, 6, 55, 127
8, 266188, Note_on_c, 6, 55, 0
8, 266192, Note_on_c, 6, 50, 0
8, 266496, Note_on_c, 6, 50, 127
8, 266496, Note_on_c, 6, 55, 127
8, 267216, Note_on_c, 6, 55, 0
8, 267220, Note_on_c, 6, 50, 0
8, 267264, Note_on_c, 6, 55, 127
8, 267264, Note_on_c, 6, 62, 127
8, 267348, Note_on_c, 6, 62, 0
8, 267348, Note_on_c, 6, 55, 0
8, 267648, Note_on_c, 6, 55, 127
8, 267648, Note_on_c, 6, 62, 127
8, 268024, Note_on_c, 6, 62, 0
8, 268024, Note_on_c, 6, 55, 0
8, 268032, Note_on_c, 6, 55, 127
8, 268032, Note_on_c, 6, 62, 127
8, 268212, Note_on_c, 6, 62, 0
8, 268224, Note_on_c, 6, 60, 127
8, 268404, Note_on_c, 6, 55, 0
8, 268412, Note_on_c, 6, 60, 0
8, 268416, Note_on_c, 6, 55, 127
8, 268416, Note_on_c, 6, 62, 127
8, 268600, Note_on_c, 6, 62, 0
8, 268608, Note_on_c, 6, 65, 127
8, 268788, Note_on_c, 6, 65, 0
8, 268788, Note_on_c, 6, 55, 0
8, 268800, Note_on_c, 6, 55, 127
8, 268800, Note_on_c, 6, 65, 127
8, 269168, Note_on_c, 6, 55, 0
8, 269172, Note_on_c, 6, 65, 0
8, 269184, Note_on_c, 6, 55, 127
8, 269184, Note_on_c, 6, 62, 127
8, 269360, Note_on_c, 6, 62, 0
8, 269376, Note_on_c, 6, 60, 127
8, 269556, Note_on_c, 6, 60, 0
8, 269556, Note_on_c, 6, 55, 0
8, 269568, Note_on_c, 6, 55, 127
8, 269568, Note_on_c, 6, 60, 127
8, 269752, Note_on_c, 6, 60, 0
8, 269760, Note_on_c, 6, 58, 127
8, 269936, Note_on_c, 6, 55, 0
8, 269952, Note_on_c, 6, 50, 127
8, 270036, Note_on_c, 6, 58, 0
8, 270132, Note_on_c, 6, 50, 0
8, 270144, Note_on_c, 6, 55, 125
8, 270220, Note_on_c, 6, 55, 0
8, 270336, Note_on_c, 6, 50, 127
8, 270336, Note_on_c, 6, 55, 127
8, 270408, Note_on_c, 6, 55, 0
8, 270412, Note_on_c, 6, 50, 0
8, 270720, Note_on_c, 6, 50, 127
8, 270720, Note_on_c, 6, 55, 127
8, 271084, Note_on_c, 6, 55, 0
8, 271088, Note_on_c, 6, 50, 0
8, 271104, Note_on_c, 6, 50, 127
8, 271104, Note_on_c, 6, 55, 127
8, 271276, Note_on_c, 6, 55, 0
8, 271296, Note_on_c, 6, 58, 127
8, 271460, Note_on_c, 6, 58, 0
8, 271476, Note_on_c, 6, 50, 0
8, 271488, Note_on_c, 6, 50, 127
8, 271564, Note_on_c, 6, 50, 0
8, 271680, Note_on_c, 6, 50, 125
8, 271752, Note_on_c, 6, 50, 0
8, 271872, Note_on_c, 6, 53, 127
8, 271872, Note_on_c, 6, 58, 127
8, 272240, Note_on_c, 6, 58, 0
8, 272248, Note_on_c, 6, 53, 0
8, 272256, Note_on_c, 6, 55, 127
8, 272256, Note_on_c, 6, 60, 127
8, 272332, Note_on_c, 6, 60, 0
8, 272336, Note_on_c, 6, 55, 0
8, 272640, Note_on_c, 6, 55, 127
8, 272640, Note_on_c, 6, 60, 127
8, 273008, Note_on_c, 6, 60, 0
8, 273012, Note_on_c, 6, 55, 0
8, 273024, Note_on_c, 6, 53, 117
8, 273024, Note_on_c, 6, 58, 127
8, 273092, Note_on_c, 6, 53, 0
8, 273188, Note_on_c, 6, 58, 0
8, 273216, Note_on_c, 6, 55, 127
8, 273320, Note_on_c, 6, 55, 0
8, 273408, Note_on_c, 6, 55, 127
8, 273408, Note_on_c, 6, 62, 127
8, 273468, Note_on_c, 6, 55, 0
8, 273488, Note_on_c, 6, 62, 0
8, 273792, Note_on_c, 6, 55, 127
8, 273792, Note_on_c, 6, 62, 127
8, 274156, Note_on_c, 6, 62, 0
8, 274164, Note_on_c, 6, 55, 0
8, 274176, Note_on_c, 6, 55, 127
8, 274176, Note_on_c, 6, 62, 127
8, 274356, Note_on_c, 6, 62, 0
8, 274368, Note_on_c, 6, 60, 127
8, 274544, Note_on_c, 6, 55, 0
8, 274552, Note_on_c, 6, 60, 0
8, 274560, Note_on_c, 6, 55, 127
8, 274560, Note_on_c, 6, 62, 127
8, 274740, Note_on_c, 6, 62, 0
8, 274752, Note_on_c, 6, 62, 127
8, 274932, Note_on_c, 6, 62, 0
8, 274932, Note_on_c, 6, 55, 0
8, 274944, Note_on_c, 6, 55, 127
8, 274944, Note_on_c, 6, 62, 127
8, 275124, Note_on_c, 6, 62, 0
8, 275136, Note_on_c, 6, 67, 127
8, 275312, Note_on_c, 6, 55, 0
8, 275324, Note_on_c, 6, 67, 0
8, 275328, Note_on_c, 6, 55, 127
8, 275328, Note_on_c, 6, 60, 127
8, 275504, Note_on_c, 6, 60, 0
8, 275520, Note_on_c, 6, 62, 127
8, 275700, Note_on_c, 6, 55, 0
8, 275704, Note_on_c, 6, 62, 0
8, 275712, Note_on_c, 6, 55, 127
8, 275712, Note_on_c, 6, 60, 127
8, 275896, Note_on_c, 6, 60, 0
8, 275904, Note_on_c, 6, 58, 126
8, 276080, Note_on_c, 6, 55, 0
8, 276084, Note_on_c, 6, 58, 0
8, 276096, Note_on_c, 6, 55, 127
8, 276204, Note_on_c, 6, 55, 0
8, 276288, Note_on_c, 6, 55, 127
8, 276384, Note_on_c, 6, 55, 0
8, 276480, Note_on_c, 6, 50, 127
8, 276480, Note_on_c, 6, 55, 127
8, 276556, Note_on_c, 6, 55, 0
8, 276556, Note_on_c, 6, 50, 0
8, 276864, Note_on_c, 6, 50, 127
8, 276864, Note_on_c, 6, 55, 127
8, 277424, Note_on_c, 6, 55, 0
8, 277440, Note_on_c, 6, 58, 127
8, 277620, Note_on_c, 6, 50, 0
8, 277624, Note_on_c, 6, 58, 0
8, 277632, Note_on_c, 6, 55, 127
8, 277812, Note_on_c, 6, 55, 0
8, 277824, Note_on_c, 6, 50, 124
8, 277904, Note_on_c, 6, 50, 0
8, 278016, Note_on_c, 6, 48, 127
8, 278016, Note_on_c, 6, 53, 127
8, 278384, Note_on_c, 6, 48, 0
8, 278388, Note_on_c, 6, 53, 0
8, 278400, Note_on_c, 6, 50, 127
8, 278400, Note_on_c, 6, 55, 127
8, 278476, Note_on_c, 6, 55, 0
8, 278480, Note_on_c, 6, 50, 0
8, 278784, Note_on_c, 6, 50, 127
8, 278784, Note_on_c, 6, 55, 127
8, 279504, Note_on_c, 6, 55, 0
8, 279508, Note_on_c, 6, 50, 0
8, 279552, Note_on_c, 6, 55, 127
8, 279552, Note_on_c, 6, 62, 127
8, 279636, Note_on_c, 6, 62, 0
8, 279636, Note_on_c, 6, 55, 0
8, 279936, Note_on_c, 6, 55, 127
8, 279936, Note_on_c, 6, 62, 127
8, 280312, Note_on_c, 6, 62, 0
8, 280312, Note_on_c, 6, 55, 0
8, 280320, Note_on_c, 6, 55, 127
8, 280320, Note_on_c, 6, 62, 127
8, 280500, Note_on_c, 6, 62, 0
8, 280512, Note_on_c, 6, 60, 127
8, 280692, Note_on_c, 6, 55, 0
8, 280700, Note_on_c, 6, 60, 0
8, 280704, Note_on_c, 6, 55, 127
8, 280704, Note_on_c, 6, 62, 127
8, 280888, Note_on_c, 6, 62, 0
8, 280896, Note_on_c, 6, 65, 127
8, 281076, Note_on_c, 6, 65, 0
8, 281076, Note_on_c, 6, 55, 0
8, 281088, Note_on_c, 6, 55, 127
8, 281088, Note_on_c, 6, 65, 127
8, 281456, Note_on_c, 6, 55, 0
8, 281460, Note_on_c, 6, 65, 0
8, 281472, Note_on_c, 6, 55, 127
8, 281472, Note_on_c, 6, 62, 127
8, 281648, Note_on_c, 6, 62, 0
8, 281664, Note_on_c, 6, 60, 127
8, 281844, Note_on_c, 6, 60, 0
8, 281844, Note_on_c, 6, 55, 0
8, 281856, Note_on_c, 6, 55, 127
8, 281856, Note_on_c, 6, 60, 127
8, 282040, Note_on_c, 6, 60, 0
8, 282048, Note_on_c, 6, 58, 127
8, 282224, Note_on_c, 6, 55, 0
8, 282240, Note_on_c, 6, 50, 127
8, 282324, Note_on_c, 6, 58, 0
8, 282420, Note_on_c, 6, 50, 0
8, 282432, Note_on_c, 6, 55, 125
8, 282508, Note_on_c, 6, 55, 0
8, 282624, Note_on_c, 6, 50, 127
8, 282624, Note_on_c, 6, 55, 127
8, 282696, Note_on_c, 6, 55, 0
8, 282700, Note_on_c, 6, 50, 0
8, 283008, Note_on_c, 6, 50, 127
8, 283008, Note_on_c, 6, 55, 127
8, 283372, Note_on_c, 6, 55, 0
8, 283376, Note_on_c, 6, 50, 0
8, 283392, Note_on_c, 6, 50, 127
8, 283392, Note_on_c, 6, 55, 127
8, 283564, Note_on_c, 6, 55, 0
8, 283584, Note_on_c, 6, 58, 127
8, 283748, Note_on_c, 6, 58, 0
8, 283764, Note_on_c, 6, 50, 0
8, 283776, Note_on_c, 6, 50, 127
8, 283852, Note_on_c, 6, 50, 0
8, 283968, Note_on_c, 6, 50, 125
8, 284040, Note_on_c, 6, 50, 0
8, 284160, Note_on_c, 6, 53, 127
8, 284160, Note_on_c, 6, 58, 127
8, 284528, Note_on_c, 6, 58, 0
8, 284536, Note_on_c, 6, 53, 0
8, 284544, Note_on_c, 6, 55, 127
8, 284544, Note_on_c, 6, 60, 127
8, 284620, Note_on_c, 6, 60, 0
8, 284624, Note_on_c, 6, 55, 0
8, 284928, Note_on_c, 6, 55, 127
8, 284928, Note_on_c, 6, 60, 127
8, 285296, Note_on_c, 6, 60, 0
8, 285300, Note_on_c, 6, 55, 0
8, 285312, Note_on_c, 6, 53, 117
8, 285312, Note_on_c, 6, 58, 127
8, 285380, Note_on_c, 6, 53, 0
8, 285476, Note_on_c, 6, 58, 0
8, 285504, Note_on_c, 6, 55, 127
8, 285608, Note_on_c, 6, 55, 0
8, 285696, Note_on_c, 6, 55, 127
8, 285696, Note_on_c, 6, 62, 127
8, 285756, Note_on_c, 6, 55, 0
8, 285776, Note_on_c, 6, 62, 0
8, 286080, Note_on_c, 6, 55, 127
8, 286080, Note_on_c, 6, 62, 127
8, 286444, Note_on_c, 6, 62, 0
8, 286452, Note_on_c, 6, 55, 0
8, 286464, Note_on_c, 6, 55, 127
8, 286464, Note_on_c, 6, 62, 127
8, 286644, Note_on_c, 6, 62, 0
8, 286656, Note_on_c, 6, 60, 127
8, 286832, Note_on_c, 6, 55, 0
8, 286840, Note_on_c, 6, 60, 0
8, 286848, Note_on_c, 6, 55, 127
8, 286848, Note_on_c, 6, 62, 127
8, 287028, Note_on_c, 6, 62, 0
8, 287040, Note_on_c, 6, 62, 127
8, 287220, Note_on_c, 6, 62, 0
8, 287220, Note_on_c, 6, 55, 0
8, 287232, Note_on_c, 6, 55, 127
8, 287232, Note_on_c, 6, 62, 127
8, 287412, Note_on_c, 6, 62, 0
8, 287424, Note_on_c, 6, 67, 127
8, 287600, Note_on_c, 6, 55, 0
8, 287612, Note_on_c, 6, 67, 0
8, 287616, Note_on_c, 6, 55, 127
8, 287616, Note_on_c, 6, 60, 127
8, 287792, Note_on_c, 6, 60, 0
8, 287808, Note_on_c, 6, 62, 127
8, 287988, Note_on_c, 6, 55, 0
8, 287992, Note_on_c, 6, 62, 0
8, 288000, Note_on_c, 6, 55, 127
8, 288000, Note_on_c, 6, 60, 127
8, 288184, Note_on_c, 6, 60, 0
8, 288192, Note_on_c, 6, 58, 126
8, 288368, Note_on_c, 6, 55, 0
8, 288372, Note_on_c, 6, 58, 0
8, 288384, Note_on_c, 6, 55, 127
8, 288492, Note_on_c, 6, 55, 0
8, 288576, Note_on_c, 6, 55, 127
8, 288672, Note_on_c, 6, 55, 0
8, 288768, Note_on_c, 6, 50, 127
8, 288768, Note_on_c, 6, 55, 127
8, 288844, Note_on_c, 6, 55, 0
8, 288844, Note_on_c, 6, 50, 0
8, 289152, Note_on_c, 6, 50, 127
8, 289152, Note_on_c, 6, 55, 127
8, 289712, Note_on_c, 6, 55, 0
8, 289728, Note_on_c, 6, 58, 127
8, 289908, Note_on_c, 6, 50, 0
8, 289912, Note_on_c, 6, 58, 0
8, 289920, Note_on_c, 6, 55, 127
8, 290100, Note_on_c, 6, 55, 0
8, 290112, Note_on_c, 6, 50, 124
8, 290192, Note_on_c, 6, 50, 0
8, 290304, Note_on_c, 6, 48, 127
8, 290304, Note_on_c, 6, 53, 127
8, 290672, Note_on_c, 6, 48, 0
8, 290676, Note_on_c, 6, 53, 0
8, 290688, Note_on_c, 6, 50, 127
8, 290688, Note_on_c, 6, 55, 127
8, 290764, Note_on_c, 6, 55, 0
8, 290768, Note_on_c, 6, 50, 0
8, 291072, Note_on_c, 6, 50, 127
8, 291072, Note_on_c, 6, 55, 127
8, 291792, Note_on_c, 6, 55, 0
8, 291796, Note_on_c, 6, 50, 0
8, 291840, Note_on_c, 6, 55, 127
8, 291840, Note_on_c, 6, 62, 127
8, 291924, Note_on_c, 6, 62, 0
8, 291924, Note_on_c, 6, 55, 0
8, 292224, Note_on_c, 6, 55, 127
8, 292224, Note_on_c, 6, 62, 127
8, 292600, Note_on_c, 6, 62, 0
8, 292600, Note_on_c, 6, 55, 0
8, 292608, Note_on_c, 6, 55, 127
8, 292608, Note_on_c, 6, 62, 127
8, 292788, Note_on_c, 6, 62, 0
8, 292800, Note_on_c, 6, 60, 127
8, 292980, Note_on_c, 6, 55, 0
8, 292988, Note_on_c, 6, 60, 0
8, 292992, Note_on_c, 6, 55, 127
8, 292992, Note_on_c, 6, 62, 127
8, 293176, Note_on_c, 6, 62, 0
8, 293184, Note_on_c, 6, 65, 127
8, 293364, Note_on_c, 6, 65, 0
8, 293364, Note_on_c, 6, 55, 0
8, 293376, Note_on_c, 6, 55, 127
8, 293376, Note_on_c, 6, 65, 127
8, 293744, Note_on_c, 6, 55, 0
8, 293748, Note_on_c, 6, 65, 0
8, 293760, Note_on_c, 6, 55, 127
8, 293760, Note_on_c, 6, 62, 127
8, 293936, Note_on_c, 6, 62, 0
8, 293952, Note_on_c, 6, 60, 127
8, 294132, Note_on_c, 6, 60, 0
8, 294132, Note_on_c, 6, 55, 0
8, 294144, Note_on_c, 6, 55, 127
8, 294144, Note_on_c, 6, 60, 127
8, 294328, Note_on_c, 6, 60, 0
8, 294336, Note_on_c, 6, 58, 127
8, 294512, Note_on_c, 6, 55, 0
8, 294528, Note_on_c, 6, 50, 127
8, 294612, Note_on_c, 6, 58, 0
8, 294708, Note_on_c, 6, 50, 0
8, 294720, Note_on_c, 6, 55, 125
8, 294796, Note_on_c, 6, 55, 0
8, 294912, Note_on_c, 6, 50, 127
8, 294912, Note_on_c, 6, 55, 127
8, 294984, Note_on_c, 6, 55, 0
8, 294988, Note_on_c, 6, 50, 0
8, 295296, Note_on_c, 6, 50, 127
8, 295296, Note_on_c, 6, 55, 127
8, 295660, Note_on_c, 6, 55, 0
8, 295664, Note_on_c, 6, 50, 0
8, 295680, Note_on_c, 6, 50, 127
8, 295680, Note_on_c, 6, 55, 127
8, 295852, Note_on_c, 6, 55, 0
8, 295872, Note_on_c, 6, 58, 127
8, 296036, Note_on_c, 6, 58, 0
8, 296052, Note_on_c, 6, 50, 0
8, 296064, Note_on_c, 6, 50, 127
8, 296140, Note_on_c, 6, 50, 0
8, 296256, Note_on_c, 6, 50, 125
8, 296328, Note_on_c, 6, 50, 0
8, 296448, Note_on_c, 6, 53, 127
8, 296448, Note_on_c, 6, 58, 127
8, 296816, Note_on_c, 6, 58, 0
8, 296824, Note_on_c, 6, 53, 0
8, 296832, Note_on_c, 6, 55, 127
8, 296832, Note_on_c, 6, 60, 127
8, 296908, Note_on_c, 6, 60, 0
8, 296912, Note_on_c, 6, 55, 0
8, 297216, Note_on_c, 6, 55, 127
8, 297216, Note_on_c, 6, 60, 127
8, 297584, Note_on_c, 6, 60, 0
8, 297588, Note_on_c, 6, 55, 0
8, 297600, Note_on_c, 6, 53, 117
8, 297600, Note_on_c, 6, 58, 127
8, 297668, Note_on_c, 6, 53, 0
8, 297764, Note_on_c, 6, 58, 0
8, 297792, Note_on_c, 6, 55, 127
8, 297896, Note_on_c, 6, 55, 0
8, 297984, Note_on_c, 6, 55, 127
8, 297984, Note_on_c, 6, 62, 127
8, 298044, Note_on_c, 6, 55, 0
8, 298064, Note_on_c, 6, 62, 0
8, 298368, Note_on_c, 6, 55, 127
8, 298368, Note_on_c, 6, 62, 127
8, 298732, Note_on_c, 6, 62, 0
8, 298740, Note_on_c, 6, 55, 0
8, 298752, Note_on_c, 6, 55, 127
8, 298752, Note_on_c, 6, 62, 127
8, 298932, Note_on_c, 6, 62, 0
8, 298944, Note_on_c, 6, 60, 127
8, 299120, Note_on_c, 6, 55, 0
8, 299128, Note_on_c, 6, 60, 0
8, 299136, Note_on_c, 6, 55, 127
8, 299136, Note_on_c, 6, 62, 127
8, 299316, Note_on_c, 6, 62, 0
8, 299328, Note_on_c, 6, 62, 127
8, 299508, Note_on_c, 6, 62, 0
8, 299508, Note_on_c, 6, 55, 0
8, 299520, Note_on_c, 6, 55, 127
8, 299520, Note_on_c, 6, 62, 127
8, 299700, Note_on_c, 6, 62, 0
8, 299712, Note_on_c, 6, 67, 127
8, 299888, Note_on_c, 6, 55, 0
8, 299900, Note_on_c, 6, 67, 0
8, 299904, Note_on_c, 6, 55, 127
8, 299904, Note_on_c, 6, 60, 127
8, 300080, Note_on_c, 6, 60, 0
8, 300096, Note_on_c, 6, 62, 127
8, 300276, Note_on_c, 6, 55, 0
8, 300280, Note_on_c, 6, 62, 0
8, 300288, Note_on_c, 6, 55, 127
8, 300288, Note_on_c, 6, 60, 127
8, 300472, Note_on_c, 6, 60, 0
8, 300480, Note_on_c, 6, 58, 126
8, 300656, Note_on_c, 6, 55, 0
8, 300660, Note_on_c, 6, 58, 0
8, 300672, Note_on_c, 6, 55, 127
8, 300780, Note_on_c, 6, 55, 0
8, 300864, Note_on_c, 6, 55, 127
8, 300960, Note_on_c, 6, 55, 0
8, 301056, Note_on_c, 6, 50, 127
8, 301056, Note_on_c, 6, 55, 127
8, 301132, Note_on_c, 6, 55, 0
8, 301132, Note_on_c, 6, 50, 0
8, 301440, Note_on_c, 6, 50, 127
8, 301440, Note_on_c, 6, 55, 127
8, 302000, Note_on_c, 6, 55, 0
8, 302016, Note_on_c, 6, 58, 127
8, 302196, Note_on_c, 6, 50, 0
8, 302200, Note_on_c, 6, 58, 0
8, 302208, Note_on_c, 6, 55, 127
8, 302388, Note_on_c, 6, 55, 0
8, 302400, Note_on_c, 6, 50, 124
8, 302480, Note_on_c, 6, 50, 0
8, 302592, Note_on_c, 6, 48, 127
8, 302592, Note_on_c, 6, 53, 127
8, 302960, Note_on_c, 6, 48, 0
8, 302964, Note_on_c, 6, 53, 0
8, 302976, Note_on_c, 6, 50, 127
8, 302976, Note_on_c, 6, 55, 127
8, 303052, Note_on_c, 6, 55, 0
8, 303056, Note_on_c, 6, 50, 0
8, 303360, Note_on_c, 6, 50, 127
8, 303360, Note_on_c, 6, 55, 127
8, 304080, Note_on_c, 6, 55, 0
8, 304084, Note_on_c, 6, 50, 0
8, 304128, Note_on_c, 6, 55, 127
8, 304128, Note_on_c, 6, 62, 127
8, 304212, Note_on_c, 6, 62, 0
8, 304212, Note_on_c, 6, 55, 0
8, 304512, Note_on_c, 6, 55, 127
8, 304512, Note_on_c, 6, 62, 127
8, 304888, Note_on_c, 6, 62, 0
8, 304888, Note_on_c, 6, 55, 0
8, 304896, Note_on_c, 6, 55, 127
8, 304896, Note_on_c, 6, 62, 127
8, 305076, Note_on_c, 6, 62, 0
8, 305088, Note_on_c, 6, 60, 127
8, 305268, Note_on_c, 6, 55, 0
8, 305276, Note_on_c, 6, 60, 0
8, 305280, Note_on_c, 6, 55, 127
8, 305280, Note_on_c, 6, 62, 127
8, 305464, Note_on_c, 6, 62, 0
8, 305472, Note_on_c, 6, 65, 127
8, 305652, Note_on_c, 6, 65, 0
8, 305652, Note_on_c, 6, 55, 0
8, 305664, Note_on_c, 6, 55, 127
8, 305664, Note_on_c, 6, 65, 127
8, 306032, Note_on_c, 6, 55, 0
8, 306036, Note_on_c, 6, 65, 0
8, 306048, Note_on_c, 6, 55, 127
8, 306048, Note_on_c, 6, 62, 127
8, 306224, Note_on_c, 6, 62, 0
8, 306240, Note_on_c, 6, 60, 127
8, 306420, Note_on_c, 6, 60, 0
8, 306420, Note_on_c, 6, 55, 0
8, 306432, Note_on_c, 6, 55, 127
8, 306432, Note_on_c, 6, 60, 127
8, 306616, Note_on_c, 6, 60, 0
8, 306624, Note_on_c, 6, 58, 127
8, 306800, Note_on_c, 6, 55, 0
8, 306816, Note_on_c, 6, 50, 127
8, 306900, Note_on_c, 6, 58, 0
8, 306996, Note_on_c, 6, 50, 0
8, 307008, Note_on_c, 6, 55, 125
8, 307084, Note_on_c, 6, 55, 0
8, 307200, Note_on_c, 6, 50, 127
8, 307200, Note_on_c, 6, 55, 127
8, 307272, Note_on_c, 6, 55, 0
8, 307276, Note_on_c, 6, 50, 0
8, 307584, Note_on_c, 6, 50, 127
8, 307584, Note_on_c, 6, 55, 127
8, 307948, Note_on_c, 6, 55, 0
8, 307952, Note_on_c, 6, 50, 0
8, 307968, Note_on_c, 6, 50, 127
8, 307968, Note_on_c, 6, 55, 127
8, 308140, Note_on_c, 6, 55, 0
8, 308160, Note_on_c, 6, 58, 127
8, 308324, Note_on_c, 6, 58, 0
8, 308340, Note_on_c, 6, 50, 0
8, 308352, Note_on_c, 6, 50, 127
8, 308428, Note_on_c, 6, 50, 0
8, 308544, Note_on_c, 6, 50, 125
8, 308616, Note_on_c, 6, 50, 0
8, 308736, Note_on_c, 6, 53, 127
8, 308736, Note_on_c, 6, 58, 127
8, 309104, Note_on_c, 6, 58, 0
8, 309112, Note_on_c, 6, 53, 0
8, 309120, Note_on_c, 6, 55, 127
8, 309120, Note_on_c, 6, 60, 127
8, 309196, Note_on_c, 6, 60, 0
8, 309200, Note_on_c, 6, 55, 0
8, 309504, Note_on_c, 6, 55, 127
8, 309504, Note_on_c, 6, 60, 127
8, 309872, Note_on_c, 6, 60, 0
8, 309876, Note_on_c, 6, 55, 0
8, 309888, Note_on_c, 6, 53, 117
8, 309888, Note_on_c, 6, 58, 127
8, 309956, Note_on_c, 6, 53, 0
8, 310052, Note_on_c, 6, 58, 0
8, 310080, Note_on_c, 6, 55, 127
8, 310184, Note_on_c, 6, 55, 0
8, 310272, Note_on_c, 6, 55, 127
8, 310272, Note_on_c, 6, 62, 127
8, 310332, Note_on_c, 6, 55, 0
8, 310352, Note_on_c, 6, 62, 0
8, 310656, Note_on_c, 6, 55, 127
8, 310656, Note_on_c, 6, 62, 127
8, 311020, Note_on_c, 6, 62, 0
8, 311028, Note_on_c, 6, 55, 0
8, 311040, Note_on_c, 6, 55, 127
8, 311040, Note_on_c, 6, 62, 127
8, 311220, Note_on_c, 6, 62, 0
8, 311232, Note_on_c, 6, 60, 127
8, 311408, Note_on_c, 6, 55, 0
8, 311416, Note_on_c, 6, 60, 0
8, 311424, Note_on_c, 6, 55, 127
8, 311424, Note_on_c, 6, 62, 127
8, 311604, Note_on_c, 6, 62, 0
8, 311616, Note_on_c, 6, 62, 127
8, 311796, Note_on_c, 6, 62, 0
8, 311796, Note_on_c, 6, 55, 0
8, 311808, Note_on_c, 6, 55, 127
8, 311808, Note_on_c, 6, 62, 127
8, 311988, Note_on_c, 6, 62, 0
8, 312000, Note_on_c, 6, 67, 127
8, 312176, Note_on_c, 6, 55, 0
8, 312188, Note_on_c, 6, 67, 0
8, 312192, Note_on_c, 6, 55, 127
8, 312192, Note_on_c, 6, 60, 127
8, 312368, Note_on_c, 6, 60, 0
8, 312384, Note_on_c, 6, 62, 127
8, 312564, Note_on_c, 6, 55, 0
8, 312568, Note_on_c, 6, 62, 0
8, 312576, Note_on_c, 6, 55, 127
8, 312576, Note_on_c, 6, 60, 127
8, 312760, Note_on_c, 6, 60, 0
8, 312768, Note_on_c, 6, 58, 126
8, 312944, Note_on_c, 6, 55, 0
8, 312948, Note_on_c, 6, 58, 0
8, 312960, Note_on_c, 6, 55, 127
8, 313068, Note_on_c, 6, 55, 0
8, 313152, Note_on_c, 6, 55, 127
8, 313248, Note_on_c, 6, 55, 0
8, 313344, Note_on_c, 6, 50, 127
8, 313344, Note_on_c, 6, 55, 127
8, 313420, Note_on_c, 6, 55, 0
8, 313420, Note_on_c, 6, 50, 0
8, 313728, Note_on_c, 6, 50, 127
8, 313728, Note_on_c, 6, 55, 127
8, 314288, Note_on_c, 6, 55, 0
8, 314304, Note_on_c, 6, 58, 127
8, 314484, Note_on_c, 6, 50, 0
8, 314488, Note_on_c, 6, 58, 0
8, 314496, Note_on_c, 6, 55, 127
8, 314676, Note_on_c, 6, 55, 0
8, 314688, Note_on_c, 6, 50, 124
8, 314768, Note_on_c, 6, 50, 0
8, 314880, Note_on_c, 6, 48, 127
8, 314880, Note_on_c, 6, 53, 127
8, 315248, Note_on_c, 6, 48, 0
8, 315252, Note_on_c, 6, 53, 0
8, 315264, Note_on_c, 6, 50, 127
8, 315264, Note_on_c, 6, 55, 127
8, 315340, Note_on_c, 6, 55, 0
8, 315344, Note_on_c, 6, 50, 0
8, 315648, Note_on_c, 6, 50, 127
8, 315648, Note_on_c, 6, 55, 127
8, 316368, Note_on_c, 6, 55, 0
8, 316372, Note_on_c, 6, 50, 0
8, 316416, Note_on_c, 6, 55, 127
8, 316416, Note_on_c, 6, 62, 127
8, 316500, Note_on_c, 6, 62, 0
8, 316500, Note_on_c, 6, 55, 0
8, 316800, Note_on_c, 6, 55, 127
8, 316800, Note_on_c, 6, 62, 127
8, 317176, Note_on_c, 6, 62, 0
8, 317176, Note_on_c, 6, 55, 0
8, 317184, Note_on_c, 6, 55, 127
8, 317184, Note_on_c, 6, 62, 127
8, 317364, Note_on_c, 6, 62, 0
8, 317376, Note_on_c, 6, 60, 127
8, 317556, Note_on_c, 6, 55, 0
8, 317564, Note_on_c, 6, 60, 0
8, 317568, Note_on_c, 6, 55, 127
8, 317568, Note_on_c, 6, 62, 127
8, 317752, Note_on_c, 6, 62, 0
8, 317760, Note_on_c, 6, 65, 127
8, 317940, Note_on_c, 6, 65, 0
8, 317940, Note_on_c, 6, 55, 0
8, 317952, Note_on_c, 6, 55, 127
8, 317952, Note_on_c, 6, 65, 127
8, 318320, Note_on_c, 6, 55, 0
8, 318324, Note_on_c, 6, 65, 0
8, 318336, Note_on_c, 6, 55, 127
8, 318336, Note_on_c, 6, 62, 127
8, 318512, Note_on_c, 6, 62, 0
8, 318528, Note_on_c, 6, 60, 127
8, 318708, Note_on_c, 6, 60, 0
8, 318708, Note_on_c, 6, 55, 0
8, 318720, Note_on_c, 6, 55, 127
8, 318720, Note_on_c, 6, 60, 127
8, 318904, Note_on_c, 6, 60, 0
8, 318912, Note_on_c, 6, 58, 127
8, 319088, Note_on_c, 6, 55, 0
8, 319104, Note_on_c, 6, 50, 127
8, 319188, Note_on_c, 6, 58, 0
8, 319284, Note_on_c, 6, 50, 0
8, 319296, Note_on_c, 6, 55, 125
8, 319372, Note_on_c, 6, 55, 0
8, 319488, Note_on_c, 6, 50, 127
8, 319488, Note_on_c, 6, 55, 127
8, 319560, Note_on_c, 6, 55, 0
8, 319564, Note_on_c, 6, 50, 0
8, 319872, Note_on_c, 6, 50, 127
8, 319872, Note_on_c, 6, 55, 127
8, 320236, Note_on_c, 6, 55, 0
8, 320240, Note_on_c, 6, 50, 0
8, 320256, Note_on_c, 6, 50, 127
8, 320256, Note_on_c, 6, 55, 127
8, 320428, Note_on_c, 6, 55, 0
8, 320448, Note_on_c, 6, 58, 127
8, 320612, Note_on_c, 6, 58, 0
8, 320628, Note_on_c, 6, 50, 0
8, 320640, Note_on_c, 6, 50, 127
8, 320716, Note_on_c, 6, 50, 0
8, 320832, Note_on_c, 6, 50, 125
8, 320904, Note_on_c, 6, 50, 0
8, 321024, Note_on_c, 6, 53, 127
8, 321024, Note_on_c, 6, 58, 127
8, 321392, Note_on_c, 6, 58, 0
8, 321400, Note_on_c, 6, 53, 0
8, 321408, Note_on_c, 6, 55, 127
8, 321408, Note_on_c, 6, 60, 127
8, 321484, Note_on_c, 6, 60, 0
8, 321488, Note_on_c, 6, 55, 0
8, 321792, Note_on_c, 6, 55, 127
8, 321792, Note_on_c, 6, 60, 127
8, 322160, Note_on_c, 6, 60, 0
8, 322164, Note_on_c, 6, 55, 0
8, 322176, Note_on_c, 6, 53, 117
8, 322176, Note_on_c, 6, 58, 127
8, 322244, Note_on_c, 6, 53, 0
8, 322340, Note_on_c, 6, 58, 0
8, 322368, Note_on_c, 6, 55, 127
8, 322472, Note_on_c, 6, 55, 0
8, 322560, Note_on_c, 6, 55, 127
8, 322560, Note_on_c, 6, 62, 127
8, 322620, Note_on_c, 6, 55, 0
8, 322640, Note_on_c, 6, 62, 0
8, 322944, Note_on_c, 6, 55, 127
8, 322944, Note_on_c, 6, 62, 127
8, 323308, Note_on_c, 6, 62, 0
8, 323316, Note_on_c, 6, 55, 0
8, 323328, Note_on_c, 6, 55, 127
8, 323328, Note_on_c, 6, 62, 127
8, 323508, Note_on_c, 6, 62, 0
8, 323520, Note_on_c, 6, 60, 127
8, 323696, Note_on_c, 6, 55, 0
8, 323704, Note_on_c, 6, 60, 0
8, 323712, Note_on_c, 6, 55, 127
8, 323712, Note_on_c, 6, 62, 127
8, 323892, Note_on_c, 6, 62, 0
8, 323904, Note_on_c, 6, 62, 127
8, 324084, Note_on_c, 6, 62, 0
8, 324084, Note_on_c, 6, 55, 0
8, 324096, Note_on_c, 6, 55, 127
8, 324096, Note_on_c, 6, 62, 127
8, 324276, Note_on_c, 6, 62, 0
8, 324288, Note_on_c, 6, 67, 127
8, 324464, Note_on_c, 6, 55, 0
8, 324476, Note_on_c, 6, 67, 0
8, 324480, Note_on_c, 6, 55, 127
8, 324480, Note_on_c, 6, 60, 127
8, 324656, Note_on_c, 6, 60, 0
8, 324672, Note_on_c, 6, 62, 127
8, 324852, Note_on_c, 6, 55, 0
8, 324856, Note_on_c, 6, 62, 0
8, 324864, Note_on_c, 6, 55, 127
8, 324864, Note_on_c, 6, 60, 127
8, 325048, Note_on_c, 6, 60, 0
8, 325056, Note_on_c, 6, 58, 126
8, 325232, Note_on_c, 6, 55, 0
8, 325236, Note_on_c, 6, 58, 0
8, 325248, Note_on_c, 6, 55, 127
8, 325356, Note_on_c, 6, 55, 0
8, 325440, Note_on_c, 6, 55, 127
8, 325536, Note_on_c, 6, 55, 0
8, 325632, Note_on_c, 6, 50, 127
8, 325632, Note_on_c, 6, 55, 127
8, 325708, Note_on_c, 6, 55, 0
8, 325708, Note_on_c, 6, 50, 0
8, 326016, Note_on_c, 6, 50, 127
8, 326016, Note_on_c, 6, 55, 127
8, 326576, Note_on_c, 6, 55, 0
8, 326592, Note_on_c, 6, 58, 127
8, 326772, Note_on_c, 6, 50, 0
8, 326776, Note_on_c, 6, 58, 0
8, 326784, Note_on_c, 6, 55, 127
8, 326964, Note_on_c, 6, 55, 0
8, 326976, Note_on_c, 6, 50, 124
8, 327056, Note_on_c, 6, 50, 0
8, 327168, Note_on_c, 6, 48, 127
8, 327168, Note_on_c, 6, 53, 127
8, 327536, Note_on_c, 6, 48, 0
8, 327540, Note_on_c, 6, 53, 0
8, 327552, Note_on_c, 6, 50, 127
8, 327552, Note_on_c, 6, 55, 127
8, 327628, Note_on_c, 6, 55, 0
8, 327632, Note_on_c, 6, 50, 0
8, 327936, Note_on_c, 6, 50, 127
8, 327936, Note_on_c, 6, 55, 127
8, 328656, Note_on_c, 6, 55, 0
8, 328660, Note_on_c, 6, 50, 0
8, 328704, Note_on_c, 6, 55, 127
8, 328704, Note_on_c, 6, 62, 127
8, 328788, Note_on_c, 6, 62, 0
8, 328788, Note_on_c, 6, 55, 0
8, 329088, Note_on_c, 6, 55, 127
8, 329088, Note_on_c, 6, 62, 127
8, 329464, Note_on_c, 6, 62, 0
8, 329464, Note_on_c, 6, 55, 0
8, 329472, Note_on_c, 6, 55, 127
8, 329472, Note_on_c, 6, 62, 127
8, 329652, Note_on_c, 6, 62, 0
8, 329664, Note_on_c, 6, 60, 127
8, 329844, Note_on_c, 6, 55, 0
8, 329852, Note_on_c, 6, 60, 0
8, 329856, Note_on_c, 6, 55, 127
8, 329856, Note_on_c, 6, 62, 127
8, 330040, Note_on_c, 6, 62, 0
8, 330048, Note_on_c, 6, 65, 127
8, 330228, Note_on_c, 6, 65, 0
8, 330228, Note_on_c, 6, 55, 0
8, 330240, Note_on_c, 6, 55, 127
8, 330240, Note_on_c, 6, 65, 127
8, 330608, Note_on_c, 6, 55, 0
8, 330612, Note_on_c, 6, 65, 0
8, 330624, Note_on_c, 6, 55, 127
8, 330624, Note_on_c, 6, 62, 127
8, 330800, Note_on_c, 6, 62, 0
8, 330816, Note_on_c, 6, 60, 127
8, 330996, Note_on_c, 6, 60, 0
8, 330996, Note_on_c, 6, 55, 0
8, 331008, Note_on_c, 6, 55, 127
8, 331008, Note_on_c, 6, 60, 127
8, 331192, Note_on_c, 6, 60, 0
8, 331200, Note_on_c, 6, 58, 127
8, 331376, Note_on_c, 6, 55, 0
8, 331392, Note_on_c, 6, 50, 127
8, 331476, Note_on_c, 6, 58, 0
8, 331572, Note_on_c, 6, 50, 0
8, 331584, Note_on_c, 6, 55, 125
8, 331660, Note_on_c, 6, 55, 0
8, 331776, Note_on_c, 6, 50, 127
8, 331776, Note_on_c, 6, 55, 127
8, 331848, Note_on_c, 6, 55, 0
8, 331852, Note_on_c, 6, 50, 0
8, 332160, Note_on_c, 6, 50, 127
8, 332160, Note_on_c, 6, 55, 127
8, 332524, Note_on_c, 6, 55, 0
8, 332528, Note_on_c, 6, 50, 0
8, 332544, Note_on_c, 6, 50, 127
8, 332544, Note_on_c, 6, 55, 127
8, 332716, Note_on_c, 6, 55, 0
8, 332736, Note_on_c, 6, 58, 127
8, 332900, Note_on_c, 6, 58, 0
8, 332916, Note_on_c, 6, 50, 0
8, 332928, Note_on_c, 6, 50, 127
8, 333004, Note_on_c, 6, 50, 0
8, 333120, Note_on_c, 6, 50, 125
8, 333192, Note_on_c, 6, 50, 0
8, 333312, Note_on_c, 6, 53, 127
8, 333312, Note_on_c, 6, 58, 127
8, 333680, Note_on_c, 6, 58, 0
8, 333688, Note_on_c, 6, 53, 0
8, 333696, Note_on_c, 6, 55, 127
8, 333696, Note_on_c, 6, 60, 127
8, 333772, Note_on_c, 6, 60, 0
8, 333776, Note_on_c, 6, 55, 0
8, 334080, Note_on_c, 6, 55, 127
8, 334080, Note_on_c, 6, 60, 127
8, 334448, Note_on_c, 6, 60, 0
8, 334452, Note_on_c, 6, 55, 0
8, 334464, Note_on_c, 6, 53, 117
8, 334464, Note_on_c, 6, 58, 127
8, 334532, Note_on_c, 6, 53, 0
8, 334628, Note_on_c, 6, 58, 0
8, 334656, Note_on_c, 6, 55, 127
8, 334760, Note_on_c, 6, 55, 0
8, 334848, Note_on_c, 6, 55, 127
8, 334848, Note_on_c, 6, 62, 127
8, 334908, Note_on_c, 6, 55, 0
8, 334928, Note_on_c, 6, 62, 0
8, 335232, Note_on_c, 6, 55, 127
8, 335232, Note_on_c, 6, 62, 127
8, 335596, Note_on_c, 6, 62, 0
8, 335604, Note_on_c, 6, 55, 0
8, 335616, Note_on_c, 6, 55, 127
8, 335616, Note_on_c, 6, 62, 127
8, 335796, Note_on_c, 6, 62, 0
8, 335808, Note_on_c, 6, 60, 127
8, 335984, Note_on_c, 6, 55, 0
8, 335992, Note_on_c, 6, 60, 0
8, 336000, Note_on_c, 6, 55, 127
8, 336000, Note_on_c, 6, 62, 127
8, 336180, Note_on_c, 6, 62, 0
8, 336192, Note_on_c, 6, 62, 127
8, 336372, Note_on_c, 6, 62, 0
8, 336372, Note_on_c, 6, 55, 0
8, 336384, Note_on_c, 6, 55, 127
8, 336384, Note_on_c, 6, 62, 127
8, 336564, Note_on_c, 6, 62, 0
8, 336576, Note_on_c, 6, 67, 127
8, 336752, Note_on_c, 6, 55, 0
8, 336764, Note_on_c, 6, 67, 0
8, 336768, Note_on_c, 6, 55, 127
8, 336768, Note_on_c, 6, 60, 127
8, 336944, Note_on_c, 6, 60, 0
8, 336960, Note_on_c, 6, 62, 127
8, 337140, Note_on_c, 6, 55, 0
8, 337144, Note_on_c, 6, 62, 0
8, 337152, Note_on_c, 6, 55, 127
8, 337152, Note_on_c, 6, 60, 127
8, 337336, Note_on_c, 6, 60, 0
8, 337344, Note_on_c, 6, 58, 126
8, 337520, Note_on_c, 6, 55, 0
8, 337524, Note_on_c, 6, 58, 0
8, 337536, Note_on_c, 6, 55, 127
8, 337644, Note_on_c, 6, 55, 0
8, 337728, Note_on_c, 6, 55, 127
8, 337824, Note_on_c, 6, 55, 0
8, 337920, Note_on_c, 6, 50, 127
8, 337920, Note_on_c, 6, 55, 127
8, 337996, Note_on_c, 6, 55, 0
8, 337996, Note_on_c, 6, 50, 0
8, 338304, Note_on_c, 6, 50, 127
8, 338304, Note_on_c, 6, 55, 127
8, 338864, Note_on_c, 6, 55, 0
8, 338880, Note_on_c, 6, 58, 127
8, 339060, Note_on_c, 6, 50, 0
8, 339064, Note_on_c, 6, 58, 0
8, 339072, Note_on_c, 6, 55, 127
8, 339252, Note_on_c, 6, 55, 0
8, 339264, Note_on_c, 6, 50, 124
8, 339344, Note_on_c, 6, 50, 0
8, 339456, Note_on_c, 6, 48, 127
8, 339456, Note_on_c, 6, 53, 127
8, 339824, Note_on_c, 6, 48, 0
8, 339828, Note_on_c, 6, 53, 0
8, 339840, Note_on_c, 6, 50, 127
8, 339840, Note_on_c, 6, 55, 127
8, 339916, Note_on_c, 6, 55, 0
8, 339920, Note_on_c, 6, 50, 0
8, 340224, Note_on_c, 6, 50, 127
8, 340224, Note_on_c, 6, 55, 127
8, 340944, Note_on_c, 6, 55, 0
8, 340948, Note_on_c, 6, 50, 0
8, 340992, Note_on_c, 6, 55, 127
8, 340992, Note_on_c, 6, 62, 127
8, 341076, Note_on_c, 6, 62, 0
8, 341076, Note_on_c, 6, 55, 0
8, 341376, Note_on_c, 6, 55, 127
8, 341376, Note_on_c, 6, 62, 127
8, 341752, Note_on_c, 6, 62, 0
8, 341752, Note_on_c, 6, 55, 0
8, 341760, Note_on_c, 6, 55, 127
8, 341760, Note_on_c, 6, 62, 127
8, 341940, Note_on_c, 6, 62, 0
8, 341952, Note_on_c, 6, 60, 127
8, 342132, Note_on_c, 6, 55, 0
8, 342140, Note_on_c, 6, 60, 0
8, 342144, Note_on_c, 6, 55, 127
8, 342144, Note_on_c, 6, 62, 127
8, 342328, Note_on_c, 6, 62, 0
8, 342336, Note_on_c, 6, 65, 127
8, 342516, Note_on_c, 6, 65, 0
8, 342516, Note_on_c, 6, 55, 0
8, 342528, Note_on_c, 6, 55, 127
8, 342528, Note_on_c, 6, 65, 127
8, 342896, Note_on_c, 6, 55, 0
8, 342900, Note_on_c, 6, 65, 0
8, 342912, Note_on_c, 6, 55, 127
8, 342912, Note_on_c, 6, 62, 127
8, 343088, Note_on_c, 6, 62, 0
8, 343104, Note_on_c, 6, 60, 127
8, 343284, Note_on_c, 6, 60, 0
8, 343284, Note_on_c, 6, 55, 0
8, 343296, Note_on_c, 6, 55, 127
8, 343296, Note_on_c, 6, 60, 127
8, 343480, Note_on_c, 6, 60, 0
8, 343488, Note_on_c, 6, 58, 127
8, 343664, Note_on_c, 6, 55, 0
8, 343680, Note_on_c, 6, 50, 127
8, 343764, Note_on_c, 6, 58, 0
8, 343860, Note_on_c, 6, 50, 0
8, 343872, Note_on_c, 6, 55, 125
8, 343948, Note_on_c, 6, 55, 0
8, 344064, Note_on_c, 6, 50, 127
8, 344064, Note_on_c, 6, 55, 127
8, 344136, Note_on_c, 6, 55, 0
8, 344140, Note_on_c, 6, 50, 0
8, 344448, Note_on_c, 6, 50, 127
8, 344448, Note_on_c, 6, 55, 127
8, 344812, Note_on_c, 6, 55, 0
8, 344816, Note_on_c, 6, 50, 0
8, 344832, Note_on_c, 6, 50, 127
8, 344832, Note_on_c, 6, 55, 127
8, 345004, Note_on_c, 6, 55, 0
8, 345024, Note_on_c, 6, 58, 127
8, 345188, Note_on_c, 6, 58, 0
8, 345204, Note_on_c, 6, 50, 0
8, 345216, Note_on_c, 6, 50, 127
8, 345292, Note_on_c, 6, 50, 0
8, 345408, Note_on_c, 6, 50, 125
8, 345480, Note_on_c, 6, 50, 0
8, 345600, Note_on_c, 6, 53, 127
8, 345600, Note_on_c, 6, 58, 127
8, 345968, Note_on_c, 6, 58, 0
8, 345976, Note_on_c, 6, 53, 0
8, 345984, Note_on_c, 6, 55, 127
8, 345984, Note_on_c, 6, 60, 127
8, 346060, Note_on_c, 6, 60, 0
8, 346064, Note_on_c, 6, 55, 0
8, 346368, Note_on_c, 6, 55, 127
8, 346368, Note_on_c, 6, 60, 127
8, 346736, Note_on_c, 6, 60, 0
8, 346740, Note_on_c, 6, 55, 0
8, 346752, Note_on_c, 6, 53, 117
8, 346752, Note_on_c, 6, 58, 127
8, 346820, Note_on_c, 6, 53, 0
8, 346916, Note_on_c, 6, 58, 0
8, 346944, Note_on_c, 6, 55, 127
8, 347048, Note_on_c, 6, 55, 0
8, 347500, Pitch_bend_c, 6, 15342
8, 347516, Pitch_bend_c, 6, 4731
8, 347532, Note_on_c, 6, 55, 127
8, 347532, Note_on_c, 6, 65, 127
8, 347536, Pitch_bend_c, 6, 5508
8, 347552, Pitch_bend_c, 6, 6567
8, 347572, Pitch_bend_c, 6, 7556
8, 347588, Pitch_bend_c, 6, 8192
8, 347900, Note_on_c, 6, 55, 0
8, 347904, Note_on_c, 6, 65, 0
8, 347916, Note_on_c, 6, 55, 127
8, 347916, Note_on_c, 6, 65, 127
8, 348084, Note_on_c, 6, 55, 0
8, 348092, Note_on_c, 6, 65, 0
8, 348108, Note_on_c, 6, 55, 127
8, 348108, Note_on_c, 6, 65, 127
8, 348284, Note_on_c, 6, 65, 0
8, 348288, Note_on_c, 6, 55, 0
8, 348492, Note_on_c, 6, 55, 127
8, 348492, Note_on_c, 6, 65, 127
8, 348676, Note_on_c, 6, 65, 0
8, 348680, Note_on_c, 6, 55, 0
8, 348876, Note_on_c, 6, 55, 127
8, 348876, Note_on_c, 6, 65, 127
8, 349252, Note_on_c, 6, 65, 0
8, 349252, Note_on_c, 6, 55, 0
8, 349260, Note_on_c, 6, 60, 127
8, 349640, Note_on_c, 6, 60, 0
8, 349644, Note_on_c, 6, 58, 127
8, 349828, Note_on_c, 6, 58, 0
8, 349836, Note_on_c, 6, 55, 127
8, 350016, Note_on_c, 6, 55, 0
8, 350028, Note_on_c, 6, 53, 127
8, 350208, Note_on_c, 6, 50, 127
8, 350208, Note_on_c, 6, 55, 127
8, 350216, Note_on_c, 6, 53, 0
8, 350284, Note_on_c, 6, 55, 0
8, 350284, Note_on_c, 6, 50, 0
8, 350592, Note_on_c, 6, 50, 127
8, 350592, Note_on_c, 6, 55, 127
8, 351152, Note_on_c, 6, 55, 0
8, 351168, Note_on_c, 6, 58, 127
8, 351348, Note_on_c, 6, 50, 0
8, 351352, Note_on_c, 6, 58, 0
8, 351360, Note_on_c, 6, 55, 127
8, 351540, Note_on_c, 6, 55, 0
8, 351552, Note_on_c, 6, 50, 124
8, 351632, Note_on_c, 6, 50, 0
8, 351744, Note_on_c, 6, 48, 127
8, 351744, Note_on_c, 6, 53, 127
8, 352112, Note_on_c, 6, 48, 0
8, 352116, Note_on_c, 6, 53, 0
8, 352128, Note_on_c, 6, 50, 127
8, 352128, Note_on_c, 6, 55, 127
8, 352204, Note_on_c, 6, 55, 0
8, 352208, Note_on_c, 6, 50, 0
8, 352512, Note_on_c, 6, 50, 127
8, 352512, Note_on_c, 6, 55, 127
8, 353232, Note_on_c, 6, 55, 0
8, 353236, Note_on_c, 6, 50, 0
8, 353280, Note_on_c, 6, 67, 127
8, 353280, Note_on_c, 6, 74, 127
8, 353652, Note_on_c, 6, 74, 0
8, 353656, Note_on_c, 6, 67, 0
8, 353664, Note_on_c, 6, 55, 127
8, 353664, Note_on_c, 6, 62, 127
8, 354796, Note_on_c, 6, 55, 0
8, 354800, Note_on_c, 6, 62, 0
8, 354816, Note_on_c, 6, 50, 127
8, 354816, Note_on_c, 6, 55, 127
8, 355188, Note_on_c, 6, 55, 0
8, 355188, Note_on_c, 6, 50, 0
8, 355200, Note_on_c, 6, 55, 127
8, 355200, Note_on_c, 6, 62, 127
8, 355368, Note_on_c, 6, 55, 0
8, 355376, Note_on_c, 6, 62, 0
8, 355392, Note_on_c, 6, 55, 127
8, 355392, Note_on_c, 6, 62, 127
8, 356152, Note_on_c, 6, 62, 0
8, 356156, Note_on_c, 6, 55, 0
8, 356160, Note_on_c, 6, 50, 127
8, 356160, Note_on_c, 6, 55, 127
8, 356724, Note_on_c, 6, 55, 0
8, 356724, Note_on_c, 6, 50, 0
8, 356736, Note_on_c, 6, 55, 127
8, 356736, Note_on_c, 6, 62, 127
8, 356904, Note_on_c, 6, 55, 0
8, 356912, Note_on_c, 6, 62, 0
8, 356928, Note_on_c, 6, 55, 127
8, 356928, Note_on_c, 6, 62, 127
8, 357864, Note_on_c, 6, 62, 0
8, 357868, Note_on_c, 6, 55, 0
8, 357888, Note_on_c, 6, 53, 127
8, 357888, Note_on_c, 6, 58, 127
8, 358256, Note_on_c, 6, 58, 0
8, 358264, Note_on_c, 6, 53, 0
8, 358272, Note_on_c, 6, 55, 127
8, 358272, Note_on_c, 6, 60, 127
8, 358348, Note_on_c, 6, 60, 0
8, 358352, Note_on_c, 6, 55, 0
8, 358656, Note_on_c, 6, 55, 127
8, 358656, Note_on_c, 6, 60, 127
8, 359024, Note_on_c, 6, 60, 0
8, 359028, Note_on_c, 6, 55, 0
8, 359040, Note_on_c, 6, 53, 117
8, 359040, Note_on_c, 6, 58, 127
8, 359108, Note_on_c, 6, 53, 0
8, 359204, Note_on_c, 6, 58, 0
8, 359232, Note_on_c, 6, 55, 127
8, 359336, Note_on_c, 6, 55, 0
8, 359424, Note_on_c, 6, 55, 127
8, 359424, Note_on_c, 6, 62, 127
8, 359484, Note_on_c, 6, 55, 0
8, 359504, Note_on_c, 6, 62, 0
8, 359808, Note_on_c, 6, 55, 127
8, 359808, Note_on_c, 6, 62, 127
8, 360172, Note_on_c, 6, 62, 0
8, 360180, Note_on_c, 6, 55, 0
8, 360192, Note_on_c, 6, 55, 127
8, 360192, Note_on_c, 6, 62, 127
8, 360372, Note_on_c, 6, 62, 0
8, 360384, Note_on_c, 6, 60, 127
8, 360560, Note_on_c, 6, 55, 0
8, 360568, Note_on_c, 6, 60, 0
8, 360576, Note_on_c, 6, 55, 127
8, 360576, Note_on_c, 6, 62, 127
8, 360756, Note_on_c, 6, 62, 0
8, 360768, Note_on_c, 6, 62, 127
8, 360948, Note_on_c, 6, 62, 0
8, 360948, Note_on_c, 6, 55, 0
8, 360960, Note_on_c, 6, 55, 127
8, 360960, Note_on_c, 6, 62, 127
8, 361140, Note_on_c, 6, 62, 0
8, 361152, Note_on_c, 6, 67, 127
8, 361328, Note_on_c, 6, 55, 0
8, 361340, Note_on_c, 6, 67, 0
8, 361344, Note_on_c, 6, 55, 127
8, 361344, Note_on_c, 6, 60, 127
8, 361520, Note_on_c, 6, 60, 0
8, 361536, Note_on_c, 6, 62, 127
8, 361716, Note_on_c, 6, 55, 0
8, 361720, Note_on_c, 6, 62, 0
8, 361728, Note_on_c, 6, 55, 127
8, 361728, Note_on_c, 6, 60, 127
8, 361912, Note_on_c, 6, 60, 0
8, 361920, Note_on_c, 6, 58, 126
8, 362096, Note_on_c, 6, 55, 0
8, 362100, Note_on_c, 6, 58, 0
8, 362112, Note_on_c, 6, 55, 127
8, 362220, Note_on_c, 6, 55, 0
8, 362304, Note_on_c, 6, 55, 127
8, 362400, Note_on_c, 6, 55, 0
8, 362496, Note_on_c, 6, 50, 127
8, 362496, Note_on_c, 6, 55, 127
8, 362572, Note_on_c, 6, 55, 0
8, 362572, Note_on_c, 6, 50, 0
8, 362880, Note_on_c, 6, 50, 127
8, 362880, Note_on_c, 6, 55, 127
8, 363440, Note_on_c, 6, 55, 0
8, 363456, Note_on_c, 6, 58, 127
8, 363636, Note_on_c, 6, 50, 0
8, 363640, Note_on_c, 6, 58, 0
8, 363648, Note_on_c, 6, 55, 127
8, 363828, Note_on_c, 6, 55, 0
8, 363840, Note_on_c, 6, 50, 124
8, 363920, Note_on_c, 6, 50, 0
8, 364032, Note_on_c, 6, 48, 127
8, 364032, Note_on_c, 6, 53, 127
8, 364400, Note_on_c, 6, 48, 0
8, 364404, Note_on_c, 6, 53, 0
8, 364416, Note_on_c, 6, 50, 127
8, 364416, Note_on_c, 6, 55, 127
8, 364492, Note_on_c, 6, 55, 0
8, 364496, Note_on_c, 6, 50, 0
8, 364800, Note_on_c, 6, 55, 127
8, 364884, Note_on_c, 6, 55, 0
8, 364992, Note_on_c, 6, 59, 127
8, 365140, Note_on_c, 6, 59, 0
8, 365184, Note_on_c, 6, 60, 127
8, 365352, Note_on_c, 6, 60, 0
8, 365376, Note_on_c, 6, 59, 127
8, 365532, Note_on_c, 6, 59, 0
8, 365568, Pitch_bend_c, 6, 2754
8, 365572, Note_on_c, 6, 62, 127
8, 365576, Pitch_bend_c, 6, 3036
8, 365600, Pitch_bend_c, 6, 3460
8, 365620, Pitch_bend_c, 6, 4025
8, 365636, Pitch_bend_c, 6, 4590
8, 365656, Pitch_bend_c, 6, 5014
8, 365676, Pitch_bend_c, 6, 5508
8, 365692, Pitch_bend_c, 6, 5932
8, 365708, Pitch_bend_c, 6, 6355
8, 365728, Pitch_bend_c, 6, 6850
8, 365748, Pitch_bend_c, 6, 7132
8, 365764, Pitch_bend_c, 6, 7415
8, 365784, Pitch_bend_c, 6, 7627
8, 365800, Pitch_bend_c, 6, 7697
8, 365820, Pitch_bend_c, 6, 7838
8, 365840, Pitch_bend_c, 6, 8050
8, 365856, Pitch_bend_c, 6, 8121
8, 365876, Pitch_bend_c, 6, 8192
8, 366712, Note_on_c, 6, 62, 0
8, 366720, Note_on_c, 6, 60, 127
8, 366908, Note_on_c, 6, 60, 0
8, 366912, Note_on_c, 6, 62, 127
8, 367092, Note_on_c, 6, 62, 0
8, 367104, Note_on_c, 6, 65, 127
8, 367212, Note_on_c, 6, 65, 0
8, 367296, Note_on_c, 6, 65, 127
8, 367388, Note_on_c, 6, 65, 0
8, 367392, Note_on_c, 6, 62, 127
8, 367484, Note_on_c, 6, 62, 0
8, 367488, Note_on_c, 6, 60, 127
8, 367676, Note_on_c, 6, 60, 0
8, 367680, Note_on_c, 6, 62, 127
8, 367868, Note_on_c, 6, 62, 0
8, 367872, Note_on_c, 6, 67, 127
8, 368056, Note_on_c, 6, 67, 0
8, 368064, Note_on_c, 6, 65, 127
8, 368568, Note_on_c, 6, 65, 0
8, 368640, Note_on_c, 6, 50, 127
8, 368640, Note_on_c, 6, 55, 127
8, 368712, Note_on_c, 6, 55, 0
8, 368716, Note_on_c, 6, 50, 0
8, 369024, Note_on_c, 6, 50, 127
8, 369024, Note_on_c, 6, 55, 127
8, 369388, Note_on_c, 6, 55, 0
8, 369392, Note_on_c, 6, 50, 0
8, 369408, Note_on_c, 6, 50, 127
8, 369408, Note_on_c, 6, 55, 127
8, 369580, Note_on_c, 6, 55, 0
8, 369600, Note_on_c, 6, 58, 127
8, 369764, Note_on_c, 6, 58, 0
8, 369780, Note_on_c, 6, 50, 0
8, 369792, Note_on_c, 6, 50, 127
8, 369868, Note_on_c, 6, 50, 0
8, 369984, Note_on_c, 6, 50, 125
8, 370056, Note_on_c, 6, 50, 0
8, 370176, Note_on_c, 6, 53, 127
8, 370176, Note_on_c, 6, 58, 127
8, 370544, Note_on_c, 6, 58, 0
8, 370552, Note_on_c, 6, 53, 0
8, 370560, Note_on_c, 6, 55, 127
8, 370560, Note_on_c, 6, 60, 127
8, 370636, Note_on_c, 6, 60, 0
8, 370640, Note_on_c, 6, 55, 0
8, 370944, Note_on_c, 6, 55, 127
8, 370944, Note_on_c, 6, 60, 127
8, 371312, Note_on_c, 6, 60, 0
8, 371316, Note_on_c, 6, 55, 0
8, 371328, Note_on_c, 6, 53, 117
8, 371328, Note_on_c, 6, 58, 127
8, 371396, Note_on_c, 6, 53, 0
8, 371492, Note_on_c, 6, 58, 0
8, 371520, Note_on_c, 6, 55, 127
8, 371624, Note_on_c, 6, 55, 0
8, 371712, Pitch_bend_c, 6, 70
8, 371712, Note_on_c, 6, 62, 127
8, 371732, Pitch_bend_c, 6, 211
8, 371748, Pitch_bend_c, 6, 635
8, 371768, Pitch_bend_c, 6, 1412
8, 371784, Pitch_bend_c, 6, 2401
8, 371804, Pitch_bend_c, 6, 3601
8, 371820, Pitch_bend_c, 6, 4519
8, 371840, Pitch_bend_c, 6, 5155
8, 371856, Pitch_bend_c, 6, 5790
8, 371876, Pitch_bend_c, 6, 6567
8, 371896, Pitch_bend_c, 6, 7273
8, 371912, Pitch_bend_c, 6, 7980
8, 371932, Pitch_bend_c, 6, 8192
8, 372096, Note_on_c, 6, 67, 127
8, 372180, Note_on_c, 6, 62, 0
8, 372208, Note_on_c, 6, 67, 0
8, 372672, Note_on_c, 6, 62, 127
8, 372672, Note_on_c, 6, 67, 127
8, 372820, Note_on_c, 6, 62, 0
8, 372828, Note_on_c, 6, 67, 0
8, 373248, Note_on_c, 6, 55, 127
8, 373248, Note_on_c, 6, 62, 127
8, 373428, Note_on_c, 6, 62, 0
8, 373440, Note_on_c, 6, 67, 127
8, 373616, Note_on_c, 6, 55, 0
8, 373628, Note_on_c, 6, 67, 0
8, 373632, Note_on_c, 6, 55, 127
8, 373632, Note_on_c, 6, 60, 127
8, 373808, Note_on_c, 6, 60, 0
8, 373824, Note_on_c, 6, 62, 127
8, 374004, Note_on_c, 6, 55, 0
8, 374008, Note_on_c, 6, 62, 0
8, 374016, Note_on_c, 6, 55, 127
8, 374016, Note_on_c, 6, 60, 127
8, 374200, Note_on_c, 6, 60, 0
8, 374208, Note_on_c, 6, 58, 126
8, 374384, Note_on_c, 6, 55, 0
8, 374388, Note_on_c, 6, 58, 0
8, 374400, Note_on_c, 6, 55, 127
8, 374508, Note_on_c, 6, 55, 0
8, 374592, Note_on_c, 6, 55, 127
8, 374688, Note_on_c, 6, 55, 0
8, 374784, Note_on_c, 6, 50, 127
8, 374784, Note_on_c, 6, 55, 127
8, 374860, Note_on_c, 6, 55, 0
8, 374860, Note_on_c, 6, 50, 0
8, 375168, Note_on_c, 6, 50, 127
8, 375168, Note_on_c, 6, 55, 127
8, 375728, Note_on_c, 6, 55, 0
8, 375744, Note_on_c, 6, 58, 127
8, 375924, Note_on_c, 6, 50, 0
8, 375928, Note_on_c, 6, 58, 0
8, 375936, Note_on_c, 6, 55, 127
8, 376116, Note_on_c, 6, 55, 0
8, 376128, Note_on_c, 6, 50, 124
8, 376208, Note_on_c, 6, 50, 0
8, 376320, Note_on_c, 6, 48, 127
8, 376320, Note_on_c, 6, 53, 127
8, 376688, Note_on_c, 6, 48, 0
8, 376692, Note_on_c, 6, 53, 0
8, 376704, Note_on_c, 6, 50, 127
8, 376704, Note_on_c, 6, 55, 127
8, 376780, Note_on_c, 6, 55, 0
8, 376784, Note_on_c, 6, 50, 0
8, 377088, Note_on_c, 6, 50, 127
8, 377088, Note_on_c, 6, 55, 127
8, 377808, Note_on_c, 6, 55, 0
8, 377812, Note_on_c, 6, 50, 0
8, 377856, Note_on_c, 6, 55, 127
8, 377856, Note_on_c, 6, 62, 127
8, 377940, Note_on_c, 6, 62, 0
8, 377940, Note_on_c, 6, 55, 0
8, 378240, Note_on_c, 6, 55, 127
8, 378240, Note_on_c, 6, 62, 127
8, 378616, Note_on_c, 6, 62, 0
8, 378616, Note_on_c, 6, 55, 0
8, 378624, Note_on_c, 6, 55, 127
8, 378624, Note_on_c, 6, 62, 127
8, 378804, Note_on_c, 6, 62, 0
8, 378816, Note_on_c, 6, 60, 127
8, 378996, Note_on_c, 6, 55, 0
8, 379004, Note_on_c, 6, 60, 0
8, 379008, Note_on_c, 6, 55, 127
8, 379008, Note_on_c, 6, 62, 127
8, 379192, Note_on_c, 6, 62, 0
8, 379200, Note_on_c, 6, 65, 127
8, 379380, Note_on_c, 6, 65, 0
8, 379380, Note_on_c, 6, 55, 0
8, 379392, Note_on_c, 6, 55, 127
8, 379392, Note_on_c, 6, 65, 127
8, 379760, Note_on_c, 6, 55, 0
8, 379764, Note_on_c, 6, 65, 0
8, 379776, Note_on_c, 6, 55, 127
8, 379776, Note_on_c, 6, 62, 127
8, 379952, Note_on_c, 6, 62, 0
8, 379968, Note_on_c, 6, 60, 127
8, 380148, Note_on_c, 6, 60, 0
8, 380148, Note_on_c, 6, 55, 0
8, 380160, Note_on_c, 6, 55, 127
8, 380160, Note_on_c, 6, 60, 127
8, 380344, Note_on_c, 6, 60, 0
8, 380352, Note_on_c, 6, 58, 127
8, 380528, Note_on_c, 6, 55, 0
8, 380544, Note_on_c, 6, 50, 127
8, 380628, Note_on_c, 6, 58, 0
8, 380724, Note_on_c, 6, 50, 0
8, 380736, Note_on_c, 6, 55, 125
8, 380812, Note_on_c, 6, 55, 0
8, 380928, Note_on_c, 6, 50, 127
8, 380928, Note_on_c, 6, 55, 127
8, 381000, Note_on_c, 6, 55, 0
8, 381004, Note_on_c, 6, 50, 0
8, 381312, Note_on_c, 6, 50, 127
8, 381312, Note_on_c, 6, 55, 127
8, 381676, Note_on_c, 6, 55, 0
8, 381680, Note_on_c, 6, 50, 0
8, 381696, Note_on_c, 6, 50, 127
8, 381696, Note_on_c, 6, 55, 127
8, 381868, Note_on_c, 6, 55, 0
8, 381888, Note_on_c, 6, 58, 127
8, 382052, Note_on_c, 6, 58, 0
8, 382068, Note_on_c, 6, 50, 0
8, 382080, Note_on_c, 6, 50, 127
8, 382156, Note_on_c, 6, 50, 0
8, 382272, Note_on_c, 6, 50, 125
8, 382344, Note_on_c, 6, 50, 0
8, 382464, Note_on_c, 6, 53, 127
8, 382464, Note_on_c, 6, 58, 127
8, 382832, Note_on_c, 6, 58, 0
8, 382840, Note_on_c, 6, 53, 0
8, 382848, Note_on_c, 6, 55, 127
8, 382848, Note_on_c, 6, 60, 127
8, 382924, Note_on_c, 6, 60, 0
8, 382928, Note_on_c, 6, 55, 0
8, 383232, Note_on_c, 6, 55, 127
8, 383232, Note_on_c, 6, 60, 127
8, 383600, Note_on_c, 6, 60, 0
8, 383604, Note_on_c, 6, 55, 0
8, 383616, Note_on_c, 6, 53, 117
8, 383616, Note_on_c, 6, 58, 127
8, 383684, Note_on_c, 6, 53, 0
8, 383780, Note_on_c, 6, 58, 0
8, 383808, Note_on_c, 6, 55, 127
8, 383912, Note_on_c, 6, 55, 0
8, 384000, Note_on_c, 6, 55, 127
8, 384000, Note_on_c, 6, 62, 127
8, 384060, Note_on_c, 6, 55, 0
8, 384080, Note_on_c, 6, 62, 0
8, 384384, Note_on_c, 6, 55, 127
8, 384384, Note_on_c, 6, 62, 127
8, 384748, Note_on_c, 6, 62, 0
8, 384756, Note_on_c, 6, 55, 0
8, 384768, Note_on_c, 6, 55, 127
8, 384768, Note_on_c, 6, 62, 127
8, 384948, Note_on_c, 6, 62, 0
8, 384960, Note_on_c, 6, 60, 127
8, 385136, Note_on_c, 6, 55, 0
8, 385144, Note_on_c, 6, 60, 0
8, 385152, Note_on_c, 6, 55, 127
8, 385152, Note_on_c, 6, 62, 127
8, 385332, Note_on_c, 6, 62, 0
8, 385344, Note_on_c, 6, 62, 127
8, 385524, Note_on_c, 6, 62, 0
8, 385524, Note_on_c, 6, 55, 0
8, 385536, Note_on_c, 6, 55, 127
8, 385536, Note_on_c, 6, 62, 127
8, 385716, Note_on_c, 6, 62, 0
8, 385728, Note_on_c, 6, 67, 127
8, 385904, Note_on_c, 6, 55, 0
8, 385916, Note_on_c, 6, 67, 0
8, 385920, Note_on_c, 6, 55, 127
8, 385920, Note_on_c, 6, 60, 127
8, 386096, Note_on_c, 6, 60, 0
8, 386112, Note_on_c, 6, 62, 127
8, 386292, Note_on_c, 6, 55, 0
8, 386296, Note_on_c, 6, 62, 0
8, 386304, Note_on_c, 6, 55, 127
8, 386304, Note_on_c, 6, 60, 127
8, 386488, Note_on_c, 6, 60, 0
8, 386496, Note_on_c, 6, 58, 126
8, 386672, Note_on_c, 6, 55, 0
8, 386676, Note_on_c, 6, 58, 0
8, 386688, Note_on_c, 6, 55, 127
8, 386796, Note_on_c, 6, 55, 0
8, 386880, Note_on_c, 6, 55, 127
8, 386976, Note_on_c, 6, 55, 0
8, 387072, Note_on_c, 6, 50, 127
8, 387072, Note_on_c, 6, 55, 127
8, 387148, Note_on_c, 6, 55, 0
8, 387148, Note_on_c, 6, 50, 0
8, 387456, Note_on_c, 6, 50, 127
8, 387456, Note_on_c, 6, 55, 127
8, 388016, Note_on_c, 6, 55, 0
8, 388032, Note_on_c, 6, 58, 127
8, 388212, Note_on_c, 6, 50, 0
8, 388216, Note_on_c, 6, 58, 0
8, 388224, Note_on_c, 6, 55, 127
8, 388404, Note_on_c, 6, 55, 0
8, 388416, Note_on_c, 6, 50, 124
8, 388496, Note_on_c, 6, 50, 0
8, 388608, Note_on_c, 6, 48, 127
8, 388608, Note_on_c, 6, 53, 127
8, 388976, Note_on_c, 6, 48, 0
8, 388980, Note_on_c, 6, 53, 0
8, 388992, Note_on_c, 6, 50, 127
8, 388992, Note_on_c, 6, 55, 127
8, 389068, Note_on_c, 6, 55, 0
8, 389072, Note_on_c, 6, 50, 0
8, 389376, Note_on_c, 6, 50, 127
8, 389376, Note_on_c, 6, 55, 127
8, 390096, Note_on_c, 6, 55, 0
8, 390100, Note_on_c, 6, 50, 0
8, 390144, Note_on_c, 6, 55, 127
8, 390144, Note_on_c, 6, 62, 127
8, 390228, Note_on_c, 6, 62, 0
8, 390228, Note_on_c, 6, 55, 0
8, 390528, Note_on_c, 6, 55, 127
8, 390528, Note_on_c, 6, 62, 127
8, 390904, Note_on_c, 6, 62, 0
8, 390904, Note_on_c, 6, 55, 0
8, 390912, Note_on_c, 6, 55, 127
8, 390912, Note_on_c, 6, 62, 127
8, 391092, Note_on_c, 6, 62, 0
8, 391104, Note_on_c, 6, 60, 127
8, 391284, Note_on_c, 6, 55, 0
8, 391292, Note_on_c, 6, 60, 0
8, 391296, Note_on_c, 6, 55, 127
8, 391296, Note_on_c, 6, 62, 127
8, 391480, Note_on_c, 6, 62, 0
8, 391488, Note_on_c, 6, 65, 127
8, 391668, Note_on_c, 6, 65, 0
8, 391668, Note_on_c, 6, 55, 0
8, 391680, Note_on_c, 6, 55, 127
8, 391680, Note_on_c, 6, 65, 127
8, 392048, Note_on_c, 6, 55, 0
8, 392052, Note_on_c, 6, 65, 0
8, 392064, Note_on_c, 6, 55, 127
8, 392064, Note_on_c, 6, 62, 127
8, 392240, Note_on_c, 6, 62, 0
8, 392256, Note_on_c, 6, 60, 127
8, 392436, Note_on_c, 6, 60, 0
8, 392436, Note_on_c, 6, 55, 0
8, 392448, Note_on_c, 6, 55, 127
8, 392448, Note_on_c, 6, 60, 127
8, 392632, Note_on_c, 6, 60, 0
8, 392640, Note_on_c, 6, 58, 127
8, 392816, Note_on_c, 6, 55, 0
8, 392832, Note_on_c, 6, 50, 127
8, 392916, Note_on_c, 6, 58, 0
8, 393012, Note_on_c, 6, 50, 0
8, 393024, Note_on_c, 6, 55, 125
8, 393100, Note_on_c, 6, 55, 0
8, 393216, Note_on_c, 6, 50, 127
8, 393216, Note_on_c, 6, 55, 127
8, 393288, Note_on_c, 6, 55, 0
8, 393292, Note_on_c, 6, 50, 0
8, 393600, Note_on_c, 6, 50, 127
8, 393600, Note_on_c, 6, 55, 127
8, 393964, Note_on_c, 6, 55, 0
8, 393968, Note_on_c, 6, 50, 0
8, 393984, Note_on_c, 6, 50, 127
8, 393984, Note_on_c, 6, 55, 127
8, 394156, Note_on_c, 6, 55, 0
8, 394176, Note_on_c, 6, 58, 127
8, 394340, Note_on_c, 6, 58, 0
8, 394356, Note_on_c, 6, 50, 0
8, 394368, Note_on_c, 6, 50, 127
8, 394444, Note_on_c, 6, 50, 0
8, 394560, Note_on_c, 6, 50, 125
8, 394632, Note_on_c, 6, 50, 0
8, 394752, Note_on_c, 6, 53, 127
8, 394752, Note_on_c, 6, 58, 127
8, 395120, Note_on_c, 6, 58, 0
8, 395128, Note_on_c, 6, 53, 0
8, 395136, Note_on_c, 6, 55, 127
8, 395136, Note_on_c, 6, 60, 127
8, 395212, Note_on_c, 6, 60, 0
8, 395216, Note_on_c, 6, 55, 0
8, 395520, Note_on_c, 6, 55, 127
8, 395520, Note_on_c, 6, 60, 127
8, 395888, Note_on_c, 6, 60, 0
8, 395892, Note_on_c, 6, 55, 0
8, 395904, Note_on_c, 6, 53, 117
8, 395904, Note_on_c, 6, 58, 127
8, 395972, Note_on_c, 6, 53, 0
8, 396068, Note_on_c, 6, 58, 0
8, 396096, Note_on_c, 6, 55, 127
8, 396200, Note_on_c, 6, 55, 0
8, 396288, Note_on_c, 6, 55, 127
8, 396288, Note_on_c, 6, 62, 127
8, 396348, Note_on_c, 6, 55, 0
8, 396368, Note_on_c, 6, 62, 0
8, 396672, Note_on_c, 6, 55, 127
8, 396672, Note_on_c, 6, 62, 127
8, 397036, Note_on_c, 6, 62, 0
8, 397044, Note_on_c, 6, 55, 0
8, 397056, Note_on_c, 6, 55, 127
8, 397056, Note_on_c, 6, 62, 127
8, 397236, Note_on_c, 6, 62, 0
8, 397248, Note_on_c, 6, 60, 127
8, 397424, Note_on_c, 6, 55, 0
8, 397432, Note_on_c, 6, 60, 0
8, 397440, Note_on_c, 6, 55, 127
8, 397440, Note_on_c, 6, 62, 127
8, 397620, Note_on_c, 6, 62, 0
8, 397632, Note_on_c, 6, 62, 127
8, 397812, Note_on_c, 6, 62, 0
8, 397812, Note_on_c, 6, 55, 0
8, 397824, Note_on_c, 6, 55, 127
8, 397824, Note_on_c, 6, 62, 127
8, 398004, Note_on_c, 6, 62, 0
8, 398016, Note_on_c, 6, 67, 127
8, 398192, Note_on_c, 6, 55, 0
8, 398204, Note_on_c, 6, 67, 0
8, 398208, Note_on_c, 6, 55, 127
8, 398208, Note_on_c, 6, 60, 127
8, 398384, Note_on_c, 6, 60, 0
8, 398400, Note_on_c, 6, 62, 127
8, 398580, Note_on_c, 6, 55, 0
8, 398584, Note_on_c, 6, 62, 0
8, 398592, Note_on_c, 6, 55, 127
8, 398592, Note_on_c, 6, 60, 127
8, 398776, Note_on_c, 6, 60, 0
8, 398784, Note_on_c, 6, 58, 126
8, 398960, Note_on_c, 6, 55, 0
8, 398964, Note_on_c, 6, 58, 0
8, 398976, Note_on_c, 6, 55, 127
8, 399084, Note_on_c, 6, 55, 0
8, 399168, Note_on_c, 6, 55, 127
8, 399264, Note_on_c, 6, 55, 0
8, 399360, Note_on_c, 6, 50, 127
8, 399360, Note_on_c, 6, 55, 127
8, 399436, Note_on_c, 6, 55, 0
8, 399436, Note_on_c, 6, 50, 0
8, 399744, Note_on_c, 6, 50, 127
8, 399744, Note_on_c, 6, 55, 127
8, 400304, Note_on_c, 6, 55, 0
8, 400320, Note_on_c, 6, 58, 127
8, 400500, Note_on_c, 6, 50, 0
8, 400504, Note_on_c, 6, 58, 0
8, 400512, Note_on_c, 6, 55, 127
8, 400692, Note_on_c, 6, 55, 0
8, 400704, Note_on_c, 6, 50, 124
8, 400784, Note_on_c, 6, 50, 0
8, 400896, Note_on_c, 6, 48, 127
8, 400896, Note_on_c, 6, 53, 127
8, 401264, Note_on_c, 6, 48, 0
8, 401268, Note_on_c, 6, 53, 0
8, 401280, Note_on_c, 6, 50, 127
8, 401280, Note_on_c, 6, 55, 127
8, 401356, Note_on_c, 6, 55, 0
8, 401360, Note_on_c, 6, 50, 0
8, 401664, Note_on_c, 6, 50, 127
8, 401664, Note_on_c, 6, 55, 127
8, 402384, Note_on_c, 6, 55, 0
8, 402388, Note_on_c, 6, 50, 0
8, 402432, Note_on_c, 6, 55, 127
8, 402432, Note_on_c, 6, 62, 127
8, 402516, Note_on_c, 6, 62, 0
8, 402516, Note_on_c, 6, 55, 0
8, 402816, Note_on_c, 6, 55, 127
8, 402816, Note_on_c, 6, 62, 127
8, 402852, Control_c, 6, 7, 125
8, 402892, Control_c, 6, 7, 124
8, 403016, Control_c, 6, 7, 123
8, 403192, Note_on_c, 6, 62, 0
8, 403192, Note_on_c, 6, 55, 0
8, 403200, Note_on_c, 6, 55, 127
8, 403200, Note_on_c, 6, 62, 127
8, 403240, Control_c, 6, 7, 122
8, 403380, Note_on_c, 6, 62, 0
8, 403392, Note_on_c, 6, 60, 127
8, 403420, Control_c, 6, 7, 121
8, 403504, Control_c, 6, 7, 120
8, 403572, Note_on_c, 6, 55, 0
8, 403580, Note_on_c, 6, 60, 0
8, 403584, Note_on_c, 6, 55, 127
8, 403584, Note_on_c, 6, 62, 127
8, 403636, Control_c, 6, 7, 119
8, 403712, Control_c, 6, 7, 118
8, 403768, Note_on_c, 6, 62, 0
8, 403776, Note_on_c, 6, 65, 127
8, 403940, Control_c, 6, 7, 116
8, 403956, Note_on_c, 6, 65, 0
8, 403956, Note_on_c, 6, 55, 0
8, 403968, Note_on_c, 6, 55, 127
8, 403968, Note_on_c, 6, 65, 127
8, 404012, Control_c, 6, 7, 115
8, 404188, Control_c, 6, 7, 114
8, 404248, Control_c, 6, 7, 113
8, 404336, Note_on_c, 6, 55, 0
8, 404340, Note_on_c, 6, 65, 0
8, 404352, Note_on_c, 6, 55, 127
8, 404352, Note_on_c, 6, 62, 127
8, 404392, Control_c, 6, 7, 112
8, 404464, Control_c, 6, 7, 111
8, 404528, Note_on_c, 6, 62, 0
8, 404544, Note_on_c, 6, 60, 127
8, 404632, Control_c, 6, 7, 110
8, 404692, Control_c, 6, 7, 109
8, 404724, Note_on_c, 6, 60, 0
8, 404724, Note_on_c, 6, 55, 0
8, 404736, Note_on_c, 6, 55, 127
8, 404736, Note_on_c, 6, 60, 127
8, 404852, Control_c, 6, 7, 107
8, 404920, Note_on_c, 6, 60, 0
8, 404928, Note_on_c, 6, 58, 127
8, 404932, Control_c, 6, 7, 106
8, 405096, Control_c, 6, 7, 105
8, 405104, Note_on_c, 6, 55, 0
8, 405120, Note_on_c, 6, 50, 127
8, 405140, Control_c, 6, 7, 104
8, 405204, Note_on_c, 6, 58, 0
8, 405296, Control_c, 6, 7, 103
8, 405300, Note_on_c, 6, 50, 0
8, 405312, Note_on_c, 6, 55, 125
8, 405360, Control_c, 6, 7, 102
8, 405388, Note_on_c, 6, 55, 0
8, 405504, Note_on_c, 6, 50, 127
8, 405504, Note_on_c, 6, 55, 127
8, 405532, Control_c, 6, 7, 101
8, 405576, Note_on_c, 6, 55, 0
8, 405580, Note_on_c, 6, 50, 0
8, 405592, Control_c, 6, 7, 100
8, 405744, Control_c, 6, 7, 98
8, 405784, Control_c, 6, 7, 97
8, 405884, Control_c, 6, 7, 96
8, 405888, Note_on_c, 6, 50, 127
8, 405888, Note_on_c, 6, 55, 127
8, 405948, Control_c, 6, 7, 95
8, 406044, Control_c, 6, 7, 94
8, 406116, Control_c, 6, 7, 93
8, 406216, Control_c, 6, 7, 92
8, 406252, Note_on_c, 6, 55, 0
8, 406256, Note_on_c, 6, 50, 0
8, 406272, Note_on_c, 6, 50, 127
8, 406272, Note_on_c, 6, 55, 127
8, 406296, Control_c, 6, 7, 91
8, 406412, Control_c, 6, 7, 89
8, 406444, Note_on_c, 6, 55, 0
8, 406464, Note_on_c, 6, 58, 127
8, 406512, Control_c, 6, 7, 88
8, 406628, Note_on_c, 6, 58, 0
8, 406644, Note_on_c, 6, 50, 0
8, 406656, Note_on_c, 6, 50, 127
8, 406684, Control_c, 6, 7, 87
8, 406732, Note_on_c, 6, 50, 0
8, 406796, Control_c, 6, 7, 86
8, 406848, Note_on_c, 6, 50, 125
8, 406908, Control_c, 6, 7, 85
8, 406920, Note_on_c, 6, 50, 0
8, 407012, Control_c, 6, 7, 84
8, 407040, Note_on_c, 6, 53, 127
8, 407040, Note_on_c, 6, 58, 127
8, 407132, Control_c, 6, 7, 83
8, 407228, Control_c, 6, 7, 82
8, 407352, Control_c, 6, 7, 80
8, 407408, Note_on_c, 6, 58, 0
8, 407416, Note_on_c, 6, 53, 0
8, 407424, Note_on_c, 6, 55, 127
8, 407424, Note_on_c, 6, 60, 127
8, 407460, Control_c, 6, 7, 79
8, 407500, Note_on_c, 6, 60, 0
8, 407504, Note_on_c, 6, 55, 0
8, 407588, Control_c, 6, 7, 78
8, 407712, Control_c, 6, 7, 77
8, 407784, Control_c, 6, 7, 76
8, 407808, Note_on_c, 6, 55, 127
8, 407808, Note_on_c, 6, 60, 127
8, 407888, Control_c, 6, 7, 75
8, 408012, Control_c, 6, 7, 74
8, 408124, Control_c, 6, 7, 73
8, 408176, Note_on_c, 6, 60, 0
8, 408180, Note_on_c, 6, 55, 0
8, 408192, Note_on_c, 6, 53, 117
8, 408192, Note_on_c, 6, 58, 127
8, 408204, Control_c, 6, 7, 71
8, 408260, Note_on_c, 6, 53, 0
8, 408320, Control_c, 6, 7, 70
8, 408356, Note_on_c, 6, 58, 0
8, 408384, Note_on_c, 6, 55, 127
8, 408396, Control_c, 6, 7, 69
8, 408484, Control_c, 6, 7, 68
8, 408488, Note_on_c, 6, 55, 0
8, 408544, Control_c, 6, 7, 67
8, 408576, Note_on_c, 6, 55, 127
8, 408576, Note_on_c, 6, 62, 127
8, 408636, Note_on_c, 6, 55, 0
8, 408656, Note_on_c, 6, 62, 0
8, 408656, Control_c, 6, 7, 66
8, 408716, Control_c, 6, 7, 65
8, 408788, Control_c, 6, 7, 64
8, 408844, Control_c, 6, 7, 62
8, 408944, Control_c, 6, 7, 61
8, 408960, Note_on_c, 6, 55, 127
8, 408960, Note_on_c, 6, 62, 127
8, 409004, Control_c, 6, 7, 60
8, 409104, Control_c, 6, 7, 59
8, 409176, Control_c, 6, 7, 58
8, 409264, Control_c, 6, 7, 57
8, 409324, Note_on_c, 6, 62, 0
8, 409332, Note_on_c, 6, 55, 0
8, 409344, Note_on_c, 6, 55, 127
8, 409344, Note_on_c, 6, 62, 127
8, 409368, Control_c, 6, 7, 56
8, 409452, Control_c, 6, 7, 55
8, 409524, Note_on_c, 6, 62, 0
8, 409536, Note_on_c, 6, 60, 127
8, 409540, Control_c, 6, 7, 53
8, 409636, Control_c, 6, 7, 52
8, 409712, Note_on_c, 6, 55, 0
8, 409720, Note_on_c, 6, 60, 0
8, 409728, Note_on_c, 6, 55, 127
8, 409728, Note_on_c, 6, 62, 127
8, 409756, Control_c, 6, 7, 51
8, 409868, Control_c, 6, 7, 50
8, 409908, Note_on_c, 6, 62, 0
8, 409920, Note_on_c, 6, 62, 127
8, 409956, Control_c, 6, 7, 49
8, 410064, Control_c, 6, 7, 48
8, 410100, Note_on_c, 6, 62, 0
8, 410100, Note_on_c, 6, 55, 0
8, 410112, Note_on_c, 6, 55, 127
8, 410112, Note_on_c, 6, 62, 127
8, 410184, Control_c, 6, 7, 47
8, 410268, Control_c, 6, 7, 46
8, 410292, Note_on_c, 6, 62, 0
8, 410304, Note_on_c, 6, 67, 127
8, 410360, Control_c, 6, 7, 44
8, 410416, Control_c, 6, 7, 43
8, 410480, Note_on_c, 6, 55, 0
8, 410492, Note_on_c, 6, 67, 0
8, 410496, Note_on_c, 6, 55, 127
8, 410496, Note_on_c, 6, 60, 127
8, 410548, Control_c, 6, 7, 42
8, 410612, Control_c, 6, 7, 41
8, 410672, Note_on_c, 6, 60, 0
8, 410688, Note_on_c, 6, 62, 127
8, 410712, Control_c, 6, 7, 40
8, 410808, Control_c, 6, 7, 39
8, 410868, Note_on_c, 6, 55, 0
8, 410872, Note_on_c, 6, 62, 0
8, 410880, Note_on_c, 6, 55, 127
8, 410880, Note_on_c, 6, 60, 127
8, 410968, Control_c, 6, 7, 38
8, 411052, Control_c, 6, 7, 37
8, 411064, Note_on_c, 6, 60, 0
8, 411072, Note_on_c, 6, 58, 126
8, 411192, Control_c, 6, 7, 35
8, 411248, Note_on_c, 6, 55, 0
8, 411252, Note_on_c, 6, 58, 0
8, 411264, Note_on_c, 6, 55, 127
8, 411288, Control_c, 6, 7, 34
8, 411372, Note_on_c, 6, 55, 0
8, 411456, Note_on_c, 6, 55, 127
8, 411480, Control_c, 6, 7, 33
8, 411548, Control_c, 6, 7, 32
8, 411552, Note_on_c, 6, 55, 0
8, 411688, Control_c, 6, 7, 31
8, 411752, Control_c, 6, 7, 30
8, 411904, Control_c, 6, 7, 29
8, 411964, Control_c, 6, 7, 28
8, 412080, Control_c, 6, 7, 26
8, 412124, Control_c, 6, 7, 25
8, 412208, Control_c, 6, 7, 24
8, 412252, Control_c, 6, 7, 23
8, 412352, Control_c, 6, 7, 22
8, 412392, Control_c, 6, 7, 21
8, 412564, Control_c, 6, 7, 20
8, 412628, Control_c, 6, 7, 19
8, 412752, Control_c, 6, 7, 17
8, 412820, Control_c, 6, 7, 16
8, 412948, Control_c, 6, 7, 15
8, 412996, Control_c, 6, 7, 14
8, 413120, Control_c, 6, 7, 13
8, 413192, Control_c, 6, 7, 12
8, 413316, Control_c, 6, 7, 11
8, 413380, Control_c, 6, 7, 10
8, 413440, Control_c, 6, 7, 8
8, 413480, Control_c, 6, 7, 7
8, 413592, Control_c, 6, 7, 6
8, 413632, Control_c, 6, 7, 5
8, 413708, Control_c, 6, 7, 4
8, 413768, Control_c, 6, 7, 3
8, 413856, Control_c, 6, 7, 2
8, 413920, Control_c, 6, 7, 1
8, 414036, Control_c, 6, 7, 0
8, 414036, End_track
9, 0, Start_track
9, 0, MIDI_port, 0
9, 0, Title_t, "Guitar"
9, 0, Program_c, 7, 28
9, 0, Control_c, 7, 7, 127
9, 0, Control_c, 7, 10, 24
9, 0, Control_c, 7, 0, 0
9, 240, Control_c, 7, 121, 127
9, 336, Control_c, 7, 0, 0
9, 336, Control_c, 7, 32, 0
9, 624, Control_c, 7, 91, 80
9, 720, Control_c, 7, 93, 20
9, 132096, Note_on_c, 7, 51, 127
9, 132096, Note_on_c, 7, 58, 127
9, 133520, Note_on_c, 7, 58, 0
9, 133592, Note_on_c, 7, 51, 0
9, 133632, Note_on_c, 7, 46, 127
9, 133632, Note_on_c, 7, 53, 127
9, 133632, Note_on_c, 7, 58, 127
9, 135096, Note_on_c, 7, 53, 0
9, 135120, Note_on_c, 7, 58, 0
9, 135144, Note_on_c, 7, 46, 0
9, 135168, Note_on_c, 7, 51, 127
9, 135168, Note_on_c, 7, 58, 127
9, 136696, Note_on_c, 7, 51, 0
9, 136700, Note_on_c, 7, 58, 0
9, 136704, Note_on_c, 7, 53, 127
9, 136704, Note_on_c, 7, 60, 127
9, 138196, Note_on_c, 7, 60, 0
9, 138196, Pitch_bend_c, 7, 7697
9, 138204, Note_on_c, 7, 53, 0
9, 138216, Pitch_bend_c, 7, 6567
9, 138232, Pitch_bend_c, 7, 5296
9, 138252, Pitch_bend_c, 7, 3813
9, 138268, Pitch_bend_c, 7, 2189
9, 138288, Pitch_bend_c, 7, 706
9, 138304, Pitch_bend_c, 7, 0
9, 138432, Note_on_c, 7, 55, 127
9, 138432, Note_on_c, 7, 62, 127
9, 138572, Pitch_bend_c, 7, 70
9, 138588, Pitch_bend_c, 7, 494
9, 138608, Pitch_bend_c, 7, 847
9, 138628, Pitch_bend_c, 7, 1271
9, 138644, Pitch_bend_c, 7, 1624
9, 138664, Pitch_bend_c, 7, 1906
9, 138680, Pitch_bend_c, 7, 2189
9, 138700, Pitch_bend_c, 7, 2612
9, 138716, Pitch_bend_c, 7, 2895
9, 138736, Pitch_bend_c, 7, 3177
9, 138756, Pitch_bend_c, 7, 3389
9, 138772, Pitch_bend_c, 7, 3601
9, 138792, Pitch_bend_c, 7, 3884
9, 138808, Pitch_bend_c, 7, 4025
9, 138828, Pitch_bend_c, 7, 4237
9, 138844, Pitch_bend_c, 7, 4449
9, 138864, Pitch_bend_c, 7, 4660
9, 138884, Pitch_bend_c, 7, 4802
9, 138900, Pitch_bend_c, 7, 4943
9, 138928, Pitch_bend_c, 7, 5155
9, 138956, Pitch_bend_c, 7, 5296
9, 138984, Pitch_bend_c, 7, 5437
9, 139028, Pitch_bend_c, 7, 5579
9, 139064, Pitch_bend_c, 7, 5790
9, 139084, Pitch_bend_c, 7, 5861
9, 139100, Pitch_bend_c, 7, 5932
9, 139140, Pitch_bend_c, 7, 6073
9, 139164, Pitch_bend_c, 7, 6285
9, 139192, Pitch_bend_c, 7, 6355
9, 139220, Pitch_bend_c, 7, 6497
9, 139256, Pitch_bend_c, 7, 6638
9, 139284, Pitch_bend_c, 7, 6850
9, 139304, Pitch_bend_c, 7, 6920
9, 139320, Pitch_bend_c, 7, 6920
9, 139340, Pitch_bend_c, 7, 6991
9, 139356, Pitch_bend_c, 7, 7062
9, 139384, Pitch_bend_c, 7, 7203
9, 139420, Pitch_bend_c, 7, 7273
9, 139448, Pitch_bend_c, 7, 7485
9, 139468, Pitch_bend_c, 7, 7556
9, 139512, Pitch_bend_c, 7, 7697
9, 139560, Pitch_bend_c, 7, 7838
9, 139576, Pitch_bend_c, 7, 7909
9, 139624, Pitch_bend_c, 7, 7980
9, 139648, Pitch_bend_c, 7, 8050
9, 139676, Pitch_bend_c, 7, 8121
9, 139712, Pitch_bend_c, 7, 8192
9, 141156, Note_on_c, 7, 55, 0
9, 141160, Note_on_c, 7, 62, 0
9, 141312, Note_on_c, 7, 48, 127
9, 141312, Note_on_c, 7, 55, 127
9, 142824, Note_on_c, 7, 55, 0
9, 142836, Note_on_c, 7, 48, 0
9, 142848, Note_on_c, 7, 50, 127
9, 142848, Note_on_c, 7, 57, 127
9, 144340, Note_on_c, 7, 57, 0
9, 144352, Note_on_c, 7, 50, 0
9, 144384, Note_on_c, 7, 52, 127
9, 144384, Note_on_c, 7, 59, 127
9, 147416, Note_on_c, 7, 52, 0
9, 147424, Note_on_c, 7, 59, 0
9, 147456, Note_on_c, 7, 55, 127
9, 147456, Note_on_c, 7, 62, 127
9, 147540, Note_on_c, 7, 62, 0
9, 147540, Note_on_c, 7, 55, 0
9, 147840, Note_on_c, 7, 55, 127
9, 147840, Note_on_c, 7, 62, 127
9, 148216, Note_on_c, 7, 62, 0
9, 148216, Note_on_c, 7, 55, 0
9, 148224, Note_on_c, 7, 55, 127
9, 148224, Note_on_c, 7, 62, 127
9, 148404, Note_on_c, 7, 62, 0
9, 148416, Note_on_c, 7, 60, 127
9, 148596, Note_on_c, 7, 55, 0
9, 148604, Note_on_c, 7, 60, 0
9, 148608, Note_on_c, 7, 55, 127
9, 148608, Note_on_c, 7, 62, 127
9, 148792, Note_on_c, 7, 62, 0
9, 148800, Note_on_c, 7, 65, 127
9, 148980, Note_on_c, 7, 65, 0
9, 148980, Note_on_c, 7, 55, 0
9, 148992, Note_on_c, 7, 55, 127
9, 148992, Note_on_c, 7, 65, 127
9, 149360, Note_on_c, 7, 55, 0
9, 149364, Note_on_c, 7, 65, 0
9, 149376, Note_on_c, 7, 55, 127
9, 149376, Note_on_c, 7, 62, 127
9, 149552, Note_on_c, 7, 62, 0
9, 149568, Note_on_c, 7, 60, 127
9, 149748, Note_on_c, 7, 60, 0
9, 149748, Note_on_c, 7, 55, 0
9, 149760, Note_on_c, 7, 55, 127
9, 149760, Note_on_c, 7, 60, 127
9, 149944, Note_on_c, 7, 60, 0
9, 149952, Note_on_c, 7, 58, 127
9, 150128, Note_on_c, 7, 55, 0
9, 150144, Note_on_c, 7, 50, 127
9, 150228, Note_on_c, 7, 58, 0
9, 150324, Note_on_c, 7, 50, 0
9, 150336, Note_on_c, 7, 55, 125
9, 150412, Note_on_c, 7, 55, 0
9, 150528, Note_on_c, 7, 50, 127
9, 150528, Note_on_c, 7, 55, 127
9, 150600, Note_on_c, 7, 55, 0
9, 150604, Note_on_c, 7, 50, 0
9, 150912, Note_on_c, 7, 50, 127
9, 150912, Note_on_c, 7, 55, 127
9, 151276, Note_on_c, 7, 55, 0
9, 151280, Note_on_c, 7, 50, 0
9, 151296, Note_on_c, 7, 50, 127
9, 151296, Note_on_c, 7, 55, 127
9, 151468, Note_on_c, 7, 55, 0
9, 151488, Note_on_c, 7, 58, 127
9, 151652, Note_on_c, 7, 58, 0
9, 151668, Note_on_c, 7, 50, 0
9, 151680, Note_on_c, 7, 50, 127
9, 151756, Note_on_c, 7, 50, 0
9, 151872, Note_on_c, 7, 50, 125
9, 151944, Note_on_c, 7, 50, 0
9, 152064, Note_on_c, 7, 53, 127
9, 152064, Note_on_c, 7, 58, 127
9, 152432, Note_on_c, 7, 58, 0
9, 152440, Note_on_c, 7, 53, 0
9, 152448, Note_on_c, 7, 55, 127
9, 152448, Note_on_c, 7, 60, 127
9, 152524, Note_on_c, 7, 60, 0
9, 152528, Note_on_c, 7, 55, 0
9, 152832, Note_on_c, 7, 55, 127
9, 152832, Note_on_c, 7, 60, 127
9, 153200, Note_on_c, 7, 60, 0
9, 153204, Note_on_c, 7, 55, 0
9, 153216, Note_on_c, 7, 53, 117
9, 153216, Note_on_c, 7, 58, 127
9, 153284, Note_on_c, 7, 53, 0
9, 153380, Note_on_c, 7, 58, 0
9, 153408, Note_on_c, 7, 55, 127
9, 153512, Note_on_c, 7, 55, 0
9, 153600, Note_on_c, 7, 55, 127
9, 153600, Note_on_c, 7, 62, 127
9, 153660, Note_on_c, 7, 55, 0
9, 153680, Note_on_c, 7, 62, 0
9, 153984, Note_on_c, 7, 55, 127
9, 153984, Note_on_c, 7, 62, 127
9, 154348, Note_on_c, 7, 62, 0
9, 154356, Note_on_c, 7, 55, 0
9, 154368, Note_on_c, 7, 55, 127
9, 154368, Note_on_c, 7, 62, 127
9, 154548, Note_on_c, 7, 62, 0
9, 154560, Note_on_c, 7, 60, 127
9, 154736, Note_on_c, 7, 55, 0
9, 154744, Note_on_c, 7, 60, 0
9, 154752, Note_on_c, 7, 55, 127
9, 154752, Note_on_c, 7, 62, 127
9, 154932, Note_on_c, 7, 62, 0
9, 154944, Note_on_c, 7, 62, 127
9, 155124, Note_on_c, 7, 62, 0
9, 155124, Note_on_c, 7, 55, 0
9, 155136, Note_on_c, 7, 55, 127
9, 155136, Note_on_c, 7, 62, 127
9, 155316, Note_on_c, 7, 62, 0
9, 155328, Note_on_c, 7, 67, 127
9, 155504, Note_on_c, 7, 55, 0
9, 155516, Note_on_c, 7, 67, 0
9, 155520, Note_on_c, 7, 55, 127
9, 155520, Note_on_c, 7, 60, 127
9, 155696, Note_on_c, 7, 60, 0
9, 155712, Note_on_c, 7, 62, 127
9, 155892, Note_on_c, 7, 55, 0
9, 155896, Note_on_c, 7, 62, 0
9, 155904, Note_on_c, 7, 55, 127
9, 155904, Note_on_c, 7, 60, 127
9, 156088, Note_on_c, 7, 60, 0
9, 156096, Note_on_c, 7, 58, 126
9, 156272, Note_on_c, 7, 55, 0
9, 156276, Note_on_c, 7, 58, 0
9, 156288, Note_on_c, 7, 55, 127
9, 156396, Note_on_c, 7, 55, 0
9, 156480, Note_on_c, 7, 55, 127
9, 156576, Note_on_c, 7, 55, 0
9, 156672, Note_on_c, 7, 50, 127
9, 156672, Note_on_c, 7, 55, 127
9, 156748, Note_on_c, 7, 55, 0
9, 156748, Note_on_c, 7, 50, 0
9, 157056, Note_on_c, 7, 50, 127
9, 157056, Note_on_c, 7, 55, 127
9, 157616, Note_on_c, 7, 55, 0
9, 157632, Note_on_c, 7, 58, 127
9, 157812, Note_on_c, 7, 50, 0
9, 157816, Note_on_c, 7, 58, 0
9, 157824, Note_on_c, 7, 55, 127
9, 158004, Note_on_c, 7, 55, 0
9, 158016, Note_on_c, 7, 50, 124
9, 158096, Note_on_c, 7, 50, 0
9, 158208, Note_on_c, 7, 53, 127
9, 158208, Note_on_c, 7, 58, 127
9, 158400, Note_on_c, 7, 52, 127
9, 158400, Note_on_c, 7, 57, 127
9, 158404, Note_on_c, 7, 53, 0
9, 158452, Note_on_c, 7, 58, 0
9, 158536, Note_on_c, 7, 52, 0
9, 158552, Note_on_c, 7, 57, 0
9, 158592, Note_on_c, 7, 50, 127
9, 158592, Note_on_c, 7, 55, 127
9, 158760, Note_on_c, 7, 50, 0
9, 158784, Note_on_c, 7, 53, 127
9, 158784, Note_on_c, 7, 58, 127
9, 158792, Note_on_c, 7, 55, 0
9, 158956, Note_on_c, 7, 53, 0
9, 158976, Note_on_c, 7, 52, 127
9, 158976, Note_on_c, 7, 57, 127
9, 158984, Note_on_c, 7, 58, 0
9, 159144, Note_on_c, 7, 52, 0
9, 159148, Note_on_c, 7, 57, 0
9, 159168, Note_on_c, 7, 50, 127
9, 159168, Note_on_c, 7, 55, 127
9, 159644, Note_on_c, 7, 55, 0
9, 159656, Note_on_c, 7, 50, 0
9, 159744, Note_on_c, 7, 51, 127
9, 159744, Note_on_c, 7, 58, 127
9, 161168, Note_on_c, 7, 58, 0
9, 161240, Note_on_c, 7, 51, 0
9, 161280, Note_on_c, 7, 46, 127
9, 161280, Note_on_c, 7, 53, 127
9, 161280, Note_on_c, 7, 58, 127
9, 162744, Note_on_c, 7, 53, 0
9, 162768, Note_on_c, 7, 58, 0
9, 162792, Note_on_c, 7, 46, 0
9, 162816, Note_on_c, 7, 51, 127
9, 162816, Note_on_c, 7, 58, 127
9, 164344, Note_on_c, 7, 51, 0
9, 164348, Note_on_c, 7, 58, 0
9, 164352, Note_on_c, 7, 53, 127
9, 164352, Note_on_c, 7, 60, 127
9, 165844, Note_on_c, 7, 60, 0
9, 165844, Pitch_bend_c, 7, 7697
9, 165852, Note_on_c, 7, 53, 0
9, 165864, Pitch_bend_c, 7, 6567
9, 165880, Pitch_bend_c, 7, 5296
9, 165900, Pitch_bend_c, 7, 3813
9, 165916, Pitch_bend_c, 7, 2189
9, 165936, Pitch_bend_c, 7, 706
9, 165952, Pitch_bend_c, 7, 0
9, 166080, Note_on_c, 7, 55, 127
9, 166080, Note_on_c, 7, 62, 127
9, 166220, Pitch_bend_c, 7, 70
9, 166236, Pitch_bend_c, 7, 494
9, 166256, Pitch_bend_c, 7, 847
9, 166276, Pitch_bend_c, 7, 1271
9, 166292, Pitch_bend_c, 7, 1624
9, 166312, Pitch_bend_c, 7, 1906
9, 166328, Pitch_bend_c, 7, 2189
9, 166348, Pitch_bend_c, 7, 2612
9, 166364, Pitch_bend_c, 7, 2895
9, 166384, Pitch_bend_c, 7, 3177
9, 166404, Pitch_bend_c, 7, 3389
9, 166420, Pitch_bend_c, 7, 3601
9, 166440, Pitch_bend_c, 7, 3884
9, 166456, Pitch_bend_c, 7, 4025
9, 166476, Pitch_bend_c, 7, 4237
9, 166492, Pitch_bend_c, 7, 4449
9, 166512, Pitch_bend_c, 7, 4660
9, 166532, Pitch_bend_c, 7, 4802
9, 166548, Pitch_bend_c, 7, 4943
9, 166576, Pitch_bend_c, 7, 5155
9, 166604, Pitch_bend_c, 7, 5296
9, 166632, Pitch_bend_c, 7, 5437
9, 166676, Pitch_bend_c, 7, 5579
9, 166712, Pitch_bend_c, 7, 5790
9, 166732, Pitch_bend_c, 7, 5861
9, 166748, Pitch_bend_c, 7, 5932
9, 166788, Pitch_bend_c, 7, 6073
9, 166812, Pitch_bend_c, 7, 6285
9, 166840, Pitch_bend_c, 7, 6355
9, 166868, Pitch_bend_c, 7, 6497
9, 166904, Pitch_bend_c, 7, 6638
9, 166932, Pitch_bend_c, 7, 6850
9, 166952, Pitch_bend_c, 7, 6920
9, 166968, Pitch_bend_c, 7, 6920
9, 166988, Pitch_bend_c, 7, 6991
9, 167004, Pitch_bend_c, 7, 7062
9, 167032, Pitch_bend_c, 7, 7203
9, 167068, Pitch_bend_c, 7, 7273
9, 167096, Pitch_bend_c, 7, 7485
9, 167116, Pitch_bend_c, 7, 7556
9, 167160, Pitch_bend_c, 7, 7697
9, 167208, Pitch_bend_c, 7, 7838
9, 167224, Pitch_bend_c, 7, 7909
9, 167272, Pitch_bend_c, 7, 7980
9, 167296, Pitch_bend_c, 7, 8050
9, 167324, Pitch_bend_c, 7, 8121
9, 167360, Pitch_bend_c, 7, 8192
9, 168804, Note_on_c, 7, 55, 0
9, 168808, Note_on_c, 7, 62, 0
9, 168960, Note_on_c, 7, 48, 127
9, 168960, Note_on_c, 7, 55, 127
9, 170472, Note_on_c, 7, 55, 0
9, 170484, Note_on_c, 7, 48, 0
9, 170496, Note_on_c, 7, 50, 127
9, 170496, Note_on_c, 7, 57, 127
9, 171988, Note_on_c, 7, 57, 0
9, 172000, Note_on_c, 7, 50, 0
9, 172032, Note_on_c, 7, 52, 127
9, 172032, Note_on_c, 7, 59, 127
9, 173528, Note_on_c, 7, 52, 0
9, 173536, Note_on_c, 7, 59, 0
9, 173760, Note_on_c, 7, 57, 127
9, 173760, Note_on_c, 7, 62, 127
9, 173900, Note_on_c, 7, 62, 0
9, 173904, Note_on_c, 7, 57, 0
9, 174144, Note_on_c, 7, 57, 127
9, 174144, Note_on_c, 7, 62, 127
9, 174668, Note_on_c, 7, 57, 0
9, 174680, Note_on_c, 7, 62, 0
9, 174720, Note_on_c, 7, 57, 127
9, 174720, Note_on_c, 7, 62, 127
9, 174996, Note_on_c, 7, 57, 0
9, 175016, Note_on_c, 7, 62, 0
9, 175104, Note_on_c, 7, 55, 127
9, 175104, Note_on_c, 7, 62, 127
9, 175188, Note_on_c, 7, 62, 0
9, 175188, Note_on_c, 7, 55, 0
9, 175488, Note_on_c, 7, 55, 127
9, 175488, Note_on_c, 7, 62, 127
9, 175864, Note_on_c, 7, 62, 0
9, 175864, Note_on_c, 7, 55, 0
9, 175872, Note_on_c, 7, 55, 127
9, 175872, Note_on_c, 7, 62, 127
9, 176052, Note_on_c, 7, 62, 0
9, 176064, Note_on_c, 7, 60, 127
9, 176244, Note_on_c, 7, 55, 0
9, 176252, Note_on_c, 7, 60, 0
9, 176256, Note_on_c, 7, 55, 127
9, 176256, Note_on_c, 7, 62, 127
9, 176440, Note_on_c, 7, 62, 0
9, 176448, Note_on_c, 7, 65, 127
9, 176628, Note_on_c, 7, 65, 0
9, 176628, Note_on_c, 7, 55, 0
9, 176640, Note_on_c, 7, 55, 127
9, 176640, Note_on_c, 7, 65, 127
9, 177008, Note_on_c, 7, 55, 0
9, 177012, Note_on_c, 7, 65, 0
9, 177024, Note_on_c, 7, 55, 127
9, 177024, Note_on_c, 7, 62, 127
9, 177200, Note_on_c, 7, 62, 0
9, 177216, Note_on_c, 7, 60, 127
9, 177396, Note_on_c, 7, 60, 0
9, 177396, Note_on_c, 7, 55, 0
9, 177408, Note_on_c, 7, 55, 127
9, 177408, Note_on_c, 7, 60, 127
9, 177592, Note_on_c, 7, 60, 0
9, 177600, Note_on_c, 7, 58, 127
9, 177776, Note_on_c, 7, 55, 0
9, 177792, Note_on_c, 7, 50, 127
9, 177876, Note_on_c, 7, 58, 0
9, 177972, Note_on_c, 7, 50, 0
9, 177984, Note_on_c, 7, 55, 125
9, 178060, Note_on_c, 7, 55, 0
9, 178176, Note_on_c, 7, 50, 127
9, 178176, Note_on_c, 7, 55, 127
9, 178248, Note_on_c, 7, 55, 0
9, 178252, Note_on_c, 7, 50, 0
9, 178560, Note_on_c, 7, 50, 127
9, 178560, Note_on_c, 7, 55, 127
9, 178924, Note_on_c, 7, 55, 0
9, 178928, Note_on_c, 7, 50, 0
9, 178944, Note_on_c, 7, 50, 127
9, 178944, Note_on_c, 7, 55, 127
9, 179116, Note_on_c, 7, 55, 0
9, 179136, Note_on_c, 7, 58, 127
9, 179300, Note_on_c, 7, 58, 0
9, 179316, Note_on_c, 7, 50, 0
9, 179328, Note_on_c, 7, 50, 127
9, 179404, Note_on_c, 7, 50, 0
9, 179520, Note_on_c, 7, 50, 125
9, 179592, Note_on_c, 7, 50, 0
9, 179712, Note_on_c, 7, 53, 127
9, 179712, Note_on_c, 7, 58, 127
9, 180080, Note_on_c, 7, 58, 0
9, 180088, Note_on_c, 7, 53, 0
9, 180096, Note_on_c, 7, 55, 127
9, 180096, Note_on_c, 7, 60, 127
9, 180172, Note_on_c, 7, 60, 0
9, 180176, Note_on_c, 7, 55, 0
9, 180480, Note_on_c, 7, 55, 127
9, 180480, Note_on_c, 7, 60, 127
9, 180848, Note_on_c, 7, 60, 0
9, 180852, Note_on_c, 7, 55, 0
9, 180864, Note_on_c, 7, 53, 117
9, 180864, Note_on_c, 7, 58, 127
9, 180932, Note_on_c, 7, 53, 0
9, 181028, Note_on_c, 7, 58, 0
9, 181056, Note_on_c, 7, 55, 127
9, 181160, Note_on_c, 7, 55, 0
9, 181248, Note_on_c, 7, 55, 127
9, 181248, Note_on_c, 7, 62, 127
9, 181308, Note_on_c, 7, 55, 0
9, 181328, Note_on_c, 7, 62, 0
9, 181632, Note_on_c, 7, 55, 127
9, 181632, Note_on_c, 7, 62, 127
9, 181996, Note_on_c, 7, 62, 0
9, 182004, Note_on_c, 7, 55, 0
9, 182016, Note_on_c, 7, 55, 127
9, 182016, Note_on_c, 7, 62, 127
9, 182196, Note_on_c, 7, 62, 0
9, 182208, Note_on_c, 7, 60, 127
9, 182384, Note_on_c, 7, 55, 0
9, 182392, Note_on_c, 7, 60, 0
9, 182400, Note_on_c, 7, 55, 127
9, 182400, Note_on_c, 7, 62, 127
9, 182580, Note_on_c, 7, 62, 0
9, 182592, Note_on_c, 7, 62, 127
9, 182772, Note_on_c, 7, 62, 0
9, 182772, Note_on_c, 7, 55, 0
9, 182784, Note_on_c, 7, 55, 127
9, 182784, Note_on_c, 7, 62, 127
9, 182964, Note_on_c, 7, 62, 0
9, 182976, Note_on_c, 7, 67, 127
9, 183152, Note_on_c, 7, 55, 0
9, 183164, Note_on_c, 7, 67, 0
9, 183168, Note_on_c, 7, 55, 127
9, 183168, Note_on_c, 7, 60, 127
9, 183344, Note_on_c, 7, 60, 0
9, 183360, Note_on_c, 7, 62, 127
9, 183540, Note_on_c, 7, 55, 0
9, 183544, Note_on_c, 7, 62, 0
9, 183552, Note_on_c, 7, 55, 127
9, 183552, Note_on_c, 7, 60, 127
9, 183736, Note_on_c, 7, 60, 0
9, 183744, Note_on_c, 7, 58, 126
9, 183920, Note_on_c, 7, 55, 0
9, 183924, Note_on_c, 7, 58, 0
9, 183936, Note_on_c, 7, 55, 127
9, 184044, Note_on_c, 7, 55, 0
9, 184128, Note_on_c, 7, 55, 127
9, 184224, Note_on_c, 7, 55, 0
9, 184320, Note_on_c, 7, 50, 127
9, 184320, Note_on_c, 7, 55, 127
9, 184396, Note_on_c, 7, 55, 0
9, 184396, Note_on_c, 7, 50, 0
9, 184704, Note_on_c, 7, 50, 127
9, 184704, Note_on_c, 7, 55, 127
9, 185264, Note_on_c, 7, 55, 0
9, 185280, Note_on_c, 7, 58, 127
9, 185460, Note_on_c, 7, 50, 0
9, 185464, Note_on_c, 7, 58, 0
9, 185472, Note_on_c, 7, 55, 127
9, 185652, Note_on_c, 7, 55, 0
9, 185664, Note_on_c, 7, 50, 124
9, 185744, Note_on_c, 7, 50, 0
9, 185856, Note_on_c, 7, 48, 127
9, 185856, Note_on_c, 7, 53, 127
9, 186232, Note_on_c, 7, 53, 0
9, 186232, Note_on_c, 7, 48, 0
9, 186240, Note_on_c, 7, 50, 127
9, 186240, Note_on_c, 7, 55, 127
9, 186792, Note_on_c, 7, 50, 0
9, 186796, Note_on_c, 7, 55, 0
9, 186816, Note_on_c, 7, 53, 127
9, 186816, Note_on_c, 7, 58, 127
9, 186988, Note_on_c, 7, 53, 0
9, 187004, Note_on_c, 7, 58, 0
9, 187008, Note_on_c, 7, 50, 127
9, 187008, Note_on_c, 7, 55, 127
9, 187292, Note_on_c, 7, 55, 0
9, 187304, Note_on_c, 7, 50, 0
9, 187392, Note_on_c, 7, 51, 127
9, 187392, Note_on_c, 7, 58, 127
9, 188816, Note_on_c, 7, 58, 0
9, 188888, Note_on_c, 7, 51, 0
9, 188928, Note_on_c, 7, 46, 127
9, 188928, Note_on_c, 7, 53, 127
9, 188928, Note_on_c, 7, 58, 127
9, 190392, Note_on_c, 7, 53, 0
9, 190416, Note_on_c, 7, 58, 0
9, 190440, Note_on_c, 7, 46, 0
9, 190464, Note_on_c, 7, 51, 127
9, 190464, Note_on_c, 7, 58, 127
9, 191992, Note_on_c, 7, 51, 0
9, 191996, Note_on_c, 7, 58, 0
9, 192000, Note_on_c, 7, 53, 127
9, 192000, Note_on_c, 7, 60, 127
9, 193492, Note_on_c, 7, 60, 0
9, 193492, Pitch_bend_c, 7, 7697
9, 193500, Note_on_c, 7, 53, 0
9, 193512, Pitch_bend_c, 7, 6567
9, 193528, Pitch_bend_c, 7, 5296
9, 193548, Pitch_bend_c, 7, 3813
9, 193564, Pitch_bend_c, 7, 2189
9, 193584, Pitch_bend_c, 7, 706
9, 193600, Pitch_bend_c, 7, 0
9, 193728, Note_on_c, 7, 55, 127
9, 193728, Note_on_c, 7, 62, 127
9, 193868, Pitch_bend_c, 7, 70
9, 193884, Pitch_bend_c, 7, 494
9, 193904, Pitch_bend_c, 7, 847
9, 193924, Pitch_bend_c, 7, 1271
9, 193940, Pitch_bend_c, 7, 1624
9, 193960, Pitch_bend_c, 7, 1906
9, 193976, Pitch_bend_c, 7, 2189
9, 193996, Pitch_bend_c, 7, 2612
9, 194012, Pitch_bend_c, 7, 2895
9, 194032, Pitch_bend_c, 7, 3177
9, 194052, Pitch_bend_c, 7, 3389
9, 194068, Pitch_bend_c, 7, 3601
9, 194088, Pitch_bend_c, 7, 3884
9, 194104, Pitch_bend_c, 7, 4025
9, 194124, Pitch_bend_c, 7, 4237
9, 194140, Pitch_bend_c, 7, 4449
9, 194160, Pitch_bend_c, 7, 4660
9, 194180, Pitch_bend_c, 7, 4802
9, 194196, Pitch_bend_c, 7, 4943
9, 194224, Pitch_bend_c, 7, 5155
9, 194252, Pitch_bend_c, 7, 5296
9, 194280, Pitch_bend_c, 7, 5437
9, 194324, Pitch_bend_c, 7, 5579
9, 194360, Pitch_bend_c, 7, 5790
9, 194380, Pitch_bend_c, 7, 5861
9, 194396, Pitch_bend_c, 7, 5932
9, 194436, Pitch_bend_c, 7, 6073
9, 194460, Pitch_bend_c, 7, 6285
9, 194488, Pitch_bend_c, 7, 6355
9, 194516, Pitch_bend_c, 7, 6497
9, 194552, Pitch_bend_c, 7, 6638
9, 194580, Pitch_bend_c, 7, 6850
9, 194600, Pitch_bend_c, 7, 6920
9, 194616, Pitch_bend_c, 7, 6920
9, 194636, Pitch_bend_c, 7, 6991
9, 194652, Pitch_bend_c, 7, 7062
9, 194680, Pitch_bend_c, 7, 7203
9, 194716, Pitch_bend_c, 7, 7273
9, 194744, Pitch_bend_c, 7, 7485
9, 194764, Pitch_bend_c, 7, 7556
9, 194808, Pitch_bend_c, 7, 7697
9, 194856, Pitch_bend_c, 7, 7838
9, 194872, Pitch_bend_c, 7, 7909
9, 194920, Pitch_bend_c, 7, 7980
9, 194944, Pitch_bend_c, 7, 8050
9, 194972, Pitch_bend_c, 7, 8121
9, 195008, Pitch_bend_c, 7, 8192
9, 196452, Note_on_c, 7, 55, 0
9, 196456, Note_on_c, 7, 62, 0
9, 196608, Note_on_c, 7, 48, 127
9, 196608, Note_on_c, 7, 55, 127
9, 198120, Note_on_c, 7, 55, 0
9, 198132, Note_on_c, 7, 48, 0
9, 198144, Note_on_c, 7, 50, 127
9, 198144, Note_on_c, 7, 57, 127
9, 199636, Note_on_c, 7, 57, 0
9, 199648, Note_on_c, 7, 50, 0
9, 199680, Note_on_c, 7, 52, 127
9, 199680, Note_on_c, 7, 59, 127
9, 201176, Note_on_c, 7, 52, 0
9, 201184, Note_on_c, 7, 59, 0
9, 201408, Note_on_c, 7, 57, 127
9, 201408, Note_on_c, 7, 62, 127
9, 201548, Note_on_c, 7, 62, 0
9, 201552, Note_on_c, 7, 57, 0
9, 201792, Note_on_c, 7, 57, 127
9, 201792, Note_on_c, 7, 62, 127
9, 202316, Note_on_c, 7, 57, 0
9, 202328, Note_on_c, 7, 62, 0
9, 202368, Note_on_c, 7, 57, 127
9, 202368, Note_on_c, 7, 62, 127
9, 202644, Note_on_c, 7, 57, 0
9, 202664, Note_on_c, 7, 62, 0
9, 202752, Note_on_c, 7, 55, 127
9, 202752, Note_on_c, 7, 62, 127
9, 202836, Note_on_c, 7, 62, 0
9, 202836, Note_on_c, 7, 55, 0
9, 203136, Note_on_c, 7, 55, 127
9, 203136, Note_on_c, 7, 62, 127
9, 203512, Note_on_c, 7, 62, 0
9, 203512, Note_on_c, 7, 55, 0
9, 203520, Note_on_c, 7, 55, 127
9, 203520, Note_on_c, 7, 62, 127
9, 203700, Note_on_c, 7, 62, 0
9, 203712, Note_on_c, 7, 60, 127
9, 203892, Note_on_c, 7, 55, 0
9, 203900, Note_on_c, 7, 60, 0
9, 203904, Note_on_c, 7, 55, 127
9, 203904, Note_on_c, 7, 62, 127
9, 204088, Note_on_c, 7, 62, 0
9, 204096, Note_on_c, 7, 65, 127
9, 204276, Note_on_c, 7, 65, 0
9, 204276, Note_on_c, 7, 55, 0
9, 204288, Note_on_c, 7, 55, 127
9, 204288, Note_on_c, 7, 65, 127
9, 204656, Note_on_c, 7, 55, 0
9, 204660, Note_on_c, 7, 65, 0
9, 204672, Note_on_c, 7, 55, 127
9, 204672, Note_on_c, 7, 62, 127
9, 204848, Note_on_c, 7, 62, 0
9, 204864, Note_on_c, 7, 60, 127
9, 205044, Note_on_c, 7, 60, 0
9, 205044, Note_on_c, 7, 55, 0
9, 205056, Note_on_c, 7, 55, 127
9, 205056, Note_on_c, 7, 60, 127
9, 205240, Note_on_c, 7, 60, 0
9, 205248, Note_on_c, 7, 58, 127
9, 205424, Note_on_c, 7, 55, 0
9, 205440, Note_on_c, 7, 50, 127
9, 205524, Note_on_c, 7, 58, 0
9, 205620, Note_on_c, 7, 50, 0
9, 205632, Note_on_c, 7, 55, 125
9, 205708, Note_on_c, 7, 55, 0
9, 205824, Note_on_c, 7, 50, 127
9, 205824, Note_on_c, 7, 55, 127
9, 205896, Note_on_c, 7, 55, 0
9, 205900, Note_on_c, 7, 50, 0
9, 206208, Note_on_c, 7, 50, 127
9, 206208, Note_on_c, 7, 55, 127
9, 206572, Note_on_c, 7, 55, 0
9, 206576, Note_on_c, 7, 50, 0
9, 206592, Note_on_c, 7, 50, 127
9, 206592, Note_on_c, 7, 55, 127
9, 206764, Note_on_c, 7, 55, 0
9, 206784, Note_on_c, 7, 58, 127
9, 206948, Note_on_c, 7, 58, 0
9, 206964, Note_on_c, 7, 50, 0
9, 206976, Note_on_c, 7, 50, 127
9, 207052, Note_on_c, 7, 50, 0
9, 207168, Note_on_c, 7, 50, 125
9, 207240, Note_on_c, 7, 50, 0
9, 207360, Note_on_c, 7, 53, 127
9, 207360, Note_on_c, 7, 58, 127
9, 207728, Note_on_c, 7, 58, 0
9, 207736, Note_on_c, 7, 53, 0
9, 207744, Note_on_c, 7, 55, 127
9, 207744, Note_on_c, 7, 60, 127
9, 207820, Note_on_c, 7, 60, 0
9, 207824, Note_on_c, 7, 55, 0
9, 208128, Note_on_c, 7, 55, 127
9, 208128, Note_on_c, 7, 60, 127
9, 208496, Note_on_c, 7, 60, 0
9, 208500, Note_on_c, 7, 55, 0
9, 208512, Note_on_c, 7, 53, 117
9, 208512, Note_on_c, 7, 58, 127
9, 208580, Note_on_c, 7, 53, 0
9, 208676, Note_on_c, 7, 58, 0
9, 208704, Note_on_c, 7, 55, 127
9, 208808, Note_on_c, 7, 55, 0
9, 208896, Note_on_c, 7, 55, 127
9, 208896, Note_on_c, 7, 62, 127
9, 208956, Note_on_c, 7, 55, 0
9, 208976, Note_on_c, 7, 62, 0
9, 209280, Note_on_c, 7, 55, 127
9, 209280, Note_on_c, 7, 62, 127
9, 209644, Note_on_c, 7, 62, 0
9, 209652, Note_on_c, 7, 55, 0
9, 209664, Note_on_c, 7, 55, 127
9, 209664, Note_on_c, 7, 62, 127
9, 209844, Note_on_c, 7, 62, 0
9, 209856, Note_on_c, 7, 60, 127
9, 210032, Note_on_c, 7, 55, 0
9, 210040, Note_on_c, 7, 60, 0
9, 210048, Note_on_c, 7, 55, 127
9, 210048, Note_on_c, 7, 62, 127
9, 210228, Note_on_c, 7, 62, 0
9, 210240, Note_on_c, 7, 62, 127
9, 210420, Note_on_c, 7, 62, 0
9, 210420, Note_on_c, 7, 55, 0
9, 210432, Note_on_c, 7, 55, 127
9, 210432, Note_on_c, 7, 62, 127
9, 210612, Note_on_c, 7, 62, 0
9, 210624, Note_on_c, 7, 67, 127
9, 210800, Note_on_c, 7, 55, 0
9, 210812, Note_on_c, 7, 67, 0
9, 210816, Note_on_c, 7, 55, 127
9, 210816, Note_on_c, 7, 60, 127
9, 210992, Note_on_c, 7, 60, 0
9, 211008, Note_on_c, 7, 62, 127
9, 211188, Note_on_c, 7, 55, 0
9, 211192, Note_on_c, 7, 62, 0
9, 211200, Note_on_c, 7, 55, 127
9, 211200, Note_on_c, 7, 60, 127
9, 211384, Note_on_c, 7, 60, 0
9, 211392, Note_on_c, 7, 58, 126
9, 211568, Note_on_c, 7, 55, 0
9, 211572, Note_on_c, 7, 58, 0
9, 211584, Note_on_c, 7, 55, 127
9, 211692, Note_on_c, 7, 55, 0
9, 211776, Note_on_c, 7, 55, 127
9, 211872, Note_on_c, 7, 55, 0
9, 211968, Note_on_c, 7, 50, 127
9, 211968, Note_on_c, 7, 55, 127
9, 212044, Note_on_c, 7, 55, 0
9, 212044, Note_on_c, 7, 50, 0
9, 212352, Note_on_c, 7, 50, 127
9, 212352, Note_on_c, 7, 55, 127
9, 212912, Note_on_c, 7, 55, 0
9, 212928, Note_on_c, 7, 58, 127
9, 213108, Note_on_c, 7, 50, 0
9, 213112, Note_on_c, 7, 58, 0
9, 213120, Note_on_c, 7, 55, 127
9, 213300, Note_on_c, 7, 55, 0
9, 213312, Note_on_c, 7, 50, 124
9, 213392, Note_on_c, 7, 50, 0
9, 213504, Note_on_c, 7, 48, 127
9, 213504, Note_on_c, 7, 53, 127
9, 213872, Note_on_c, 7, 48, 0
9, 213876, Note_on_c, 7, 53, 0
9, 213888, Note_on_c, 7, 50, 127
9, 213888, Note_on_c, 7, 55, 127
9, 213964, Note_on_c, 7, 55, 0
9, 213968, Note_on_c, 7, 50, 0
9, 214272, Note_on_c, 7, 50, 127
9, 214272, Note_on_c, 7, 55, 127
9, 214992, Note_on_c, 7, 55, 0
9, 214996, Note_on_c, 7, 50, 0
9, 215040, Note_on_c, 7, 55, 127
9, 215040, Note_on_c, 7, 62, 127
9, 215124, Note_on_c, 7, 62, 0
9, 215124, Note_on_c, 7, 55, 0
9, 215424, Note_on_c, 7, 55, 127
9, 215424, Note_on_c, 7, 62, 127
9, 215800, Note_on_c, 7, 62, 0
9, 215800, Note_on_c, 7, 55, 0
9, 215808, Note_on_c, 7, 55, 127
9, 215808, Note_on_c, 7, 62, 127
9, 215988, Note_on_c, 7, 62, 0
9, 216000, Note_on_c, 7, 60, 127
9, 216180, Note_on_c, 7, 55, 0
9, 216188, Note_on_c, 7, 60, 0
9, 216192, Note_on_c, 7, 55, 127
9, 216192, Note_on_c, 7, 62, 127
9, 216376, Note_on_c, 7, 62, 0
9, 216384, Note_on_c, 7, 65, 127
9, 216564, Note_on_c, 7, 65, 0
9, 216564, Note_on_c, 7, 55, 0
9, 216576, Note_on_c, 7, 55, 127
9, 216576, Note_on_c, 7, 65, 127
9, 216944, Note_on_c, 7, 55, 0
9, 216948, Note_on_c, 7, 65, 0
9, 216960, Note_on_c, 7, 55, 127
9, 216960, Note_on_c, 7, 62, 127
9, 217136, Note_on_c, 7, 62, 0
9, 217152, Note_on_c, 7, 60, 127
9, 217332, Note_on_c, 7, 60, 0
9, 217332, Note_on_c, 7, 55, 0
9, 217344, Note_on_c, 7, 55, 127
9, 217344, Note_on_c, 7, 60, 127
9, 217528, Note_on_c, 7, 60, 0
9, 217536, Note_on_c, 7, 58, 127
9, 217712, Note_on_c, 7, 55, 0
9, 217728, Note_on_c, 7, 50, 127
9, 217812, Note_on_c, 7, 58, 0
9, 217908, Note_on_c, 7, 50, 0
9, 217920, Note_on_c, 7, 55, 125
9, 217996, Note_on_c, 7, 55, 0
9, 218112, Note_on_c, 7, 50, 127
9, 218112, Note_on_c, 7, 55, 127
9, 218184, Note_on_c, 7, 55, 0
9, 218188, Note_on_c, 7, 50, 0
9, 218496, Note_on_c, 7, 50, 127
9, 218496, Note_on_c, 7, 55, 127
9, 218860, Note_on_c, 7, 55, 0
9, 218864, Note_on_c, 7, 50, 0
9, 218880, Note_on_c, 7, 50, 127
9, 218880, Note_on_c, 7, 55, 127
9, 219052, Note_on_c, 7, 55, 0
9, 219072, Note_on_c, 7, 58, 127
9, 219236, Note_on_c, 7, 58, 0
9, 219252, Note_on_c, 7, 50, 0
9, 219264, Note_on_c, 7, 50, 127
9, 219340, Note_on_c, 7, 50, 0
9, 219456, Note_on_c, 7, 50, 125
9, 219528, Note_on_c, 7, 50, 0
9, 219648, Note_on_c, 7, 53, 127
9, 219648, Note_on_c, 7, 58, 127
9, 220016, Note_on_c, 7, 58, 0
9, 220024, Note_on_c, 7, 53, 0
9, 220032, Note_on_c, 7, 55, 127
9, 220032, Note_on_c, 7, 60, 127
9, 220108, Note_on_c, 7, 60, 0
9, 220112, Note_on_c, 7, 55, 0
9, 220416, Note_on_c, 7, 55, 127
9, 220416, Note_on_c, 7, 60, 127
9, 220784, Note_on_c, 7, 60, 0
9, 220788, Note_on_c, 7, 55, 0
9, 220800, Note_on_c, 7, 53, 117
9, 220800, Note_on_c, 7, 58, 127
9, 220868, Note_on_c, 7, 53, 0
9, 220964, Note_on_c, 7, 58, 0
9, 220992, Note_on_c, 7, 55, 127
9, 221096, Note_on_c, 7, 55, 0
9, 221184, Note_on_c, 7, 55, 127
9, 221184, Note_on_c, 7, 62, 127
9, 221244, Note_on_c, 7, 55, 0
9, 221264, Note_on_c, 7, 62, 0
9, 221568, Note_on_c, 7, 55, 127
9, 221568, Note_on_c, 7, 62, 127
9, 221932, Note_on_c, 7, 62, 0
9, 221940, Note_on_c, 7, 55, 0
9, 221952, Note_on_c, 7, 55, 127
9, 221952, Note_on_c, 7, 62, 127
9, 222132, Note_on_c, 7, 62, 0
9, 222144, Note_on_c, 7, 60, 127
9, 222320, Note_on_c, 7, 55, 0
9, 222328, Note_on_c, 7, 60, 0
9, 222336, Note_on_c, 7, 55, 127
9, 222336, Note_on_c, 7, 62, 127
9, 222516, Note_on_c, 7, 62, 0
9, 222528, Note_on_c, 7, 62, 127
9, 222708, Note_on_c, 7, 62, 0
9, 222708, Note_on_c, 7, 55, 0
9, 222720, Note_on_c, 7, 55, 127
9, 222720, Note_on_c, 7, 62, 127
9, 222900, Note_on_c, 7, 62, 0
9, 222912, Note_on_c, 7, 67, 127
9, 223088, Note_on_c, 7, 55, 0
9, 223100, Note_on_c, 7, 67, 0
9, 223104, Note_on_c, 7, 55, 127
9, 223104, Note_on_c, 7, 60, 127
9, 223280, Note_on_c, 7, 60, 0
9, 223296, Note_on_c, 7, 62, 127
9, 223476, Note_on_c, 7, 55, 0
9, 223480, Note_on_c, 7, 62, 0
9, 223488, Note_on_c, 7, 55, 127
9, 223488, Note_on_c, 7, 60, 127
9, 223672, Note_on_c, 7, 60, 0
9, 223680, Note_on_c, 7, 58, 126
9, 223856, Note_on_c, 7, 55, 0
9, 223860, Note_on_c, 7, 58, 0
9, 223872, Note_on_c, 7, 55, 127
9, 223980, Note_on_c, 7, 55, 0
9, 224064, Note_on_c, 7, 55, 127
9, 224160, Note_on_c, 7, 55, 0
9, 224256, Note_on_c, 7, 50, 127
9, 224256, Note_on_c, 7, 55, 127
9, 224332, Note_on_c, 7, 55, 0
9, 224332, Note_on_c, 7, 50, 0
9, 224640, Note_on_c, 7, 50, 127
9, 224640, Note_on_c, 7, 55, 127
9, 225200, Note_on_c, 7, 55, 0
9, 225216, Note_on_c, 7, 58, 127
9, 225396, Note_on_c, 7, 50, 0
9, 225400, Note_on_c, 7, 58, 0
9, 225408, Note_on_c, 7, 55, 127
9, 225588, Note_on_c, 7, 55, 0
9, 225600, Note_on_c, 7, 50, 124
9, 225680, Note_on_c, 7, 50, 0
9, 225792, Note_on_c, 7, 48, 127
9, 225792, Note_on_c, 7, 53, 127
9, 226160, Note_on_c, 7, 48, 0
9, 226164, Note_on_c, 7, 53, 0
9, 226176, Note_on_c, 7, 50, 127
9, 226176, Note_on_c, 7, 55, 127
9, 226252, Note_on_c, 7, 55, 0
9, 226256, Note_on_c, 7, 50, 0
9, 226560, Note_on_c, 7, 50, 127
9, 226560, Note_on_c, 7, 55, 127
9, 227280, Note_on_c, 7, 55, 0
9, 227284, Note_on_c, 7, 50, 0
9, 227328, Note_on_c, 7, 51, 127
9, 227328, Note_on_c, 7, 58, 127
9, 228752, Note_on_c, 7, 58, 0
9, 228824, Note_on_c, 7, 51, 0
9, 228864, Note_on_c, 7, 46, 127
9, 228864, Note_on_c, 7, 53, 127
9, 228864, Note_on_c, 7, 58, 127
9, 230328, Note_on_c, 7, 53, 0
9, 230352, Note_on_c, 7, 58, 0
9, 230376, Note_on_c, 7, 46, 0
9, 230400, Note_on_c, 7, 51, 127
9, 230400, Note_on_c, 7, 58, 127
9, 231928, Note_on_c, 7, 51, 0
9, 231932, Note_on_c, 7, 58, 0
9, 231936, Note_on_c, 7, 53, 127
9, 231936, Note_on_c, 7, 60, 127
9, 233428, Note_on_c, 7, 60, 0
9, 233428, Pitch_bend_c, 7, 7697
9, 233436, Note_on_c, 7, 53, 0
9, 233448, Pitch_bend_c, 7, 6567
9, 233464, Pitch_bend_c, 7, 5296
9, 233484, Pitch_bend_c, 7, 3813
9, 233500, Pitch_bend_c, 7, 2189
9, 233520, Pitch_bend_c, 7, 706
9, 233536, Pitch_bend_c, 7, 0
9, 233664, Note_on_c, 7, 55, 127
9, 233664, Note_on_c, 7, 62, 127
9, 233804, Pitch_bend_c, 7, 70
9, 233820, Pitch_bend_c, 7, 494
9, 233840, Pitch_bend_c, 7, 847
9, 233860, Pitch_bend_c, 7, 1271
9, 233876, Pitch_bend_c, 7, 1624
9, 233896, Pitch_bend_c, 7, 1906
9, 233912, Pitch_bend_c, 7, 2189
9, 233932, Pitch_bend_c, 7, 2612
9, 233948, Pitch_bend_c, 7, 2895
9, 233968, Pitch_bend_c, 7, 3177
9, 233988, Pitch_bend_c, 7, 3389
9, 234004, Pitch_bend_c, 7, 3601
9, 234024, Pitch_bend_c, 7, 3884
9, 234040, Pitch_bend_c, 7, 4025
9, 234060, Pitch_bend_c, 7, 4237
9, 234076, Pitch_bend_c, 7, 4449
9, 234096, Pitch_bend_c, 7, 4660
9, 234116, Pitch_bend_c, 7, 4802
9, 234132, Pitch_bend_c, 7, 4943
9, 234160, Pitch_bend_c, 7, 5155
9, 234188, Pitch_bend_c, 7, 5296
9, 234216, Pitch_bend_c, 7, 5437
9, 234260, Pitch_bend_c, 7, 5579
9, 234296, Pitch_bend_c, 7, 5790
9, 234316, Pitch_bend_c, 7, 5861
9, 234332, Pitch_bend_c, 7, 5932
9, 234372, Pitch_bend_c, 7, 6073
9, 234396, Pitch_bend_c, 7, 6285
9, 234424, Pitch_bend_c, 7, 6355
9, 234452, Pitch_bend_c, 7, 6497
9, 234488, Pitch_bend_c, 7, 6638
9, 234516, Pitch_bend_c, 7, 6850
9, 234536, Pitch_bend_c, 7, 6920
9, 234552, Pitch_bend_c, 7, 6920
9, 234572, Pitch_bend_c, 7, 6991
9, 234588, Pitch_bend_c, 7, 7062
9, 234616, Pitch_bend_c, 7, 7203
9, 234652, Pitch_bend_c, 7, 7273
9, 234680, Pitch_bend_c, 7, 7485
9, 234700, Pitch_bend_c, 7, 7556
9, 234744, Pitch_bend_c, 7, 7697
9, 234792, Pitch_bend_c, 7, 7838
9, 234808, Pitch_bend_c, 7, 7909
9, 234856, Pitch_bend_c, 7, 7980
9, 234880, Pitch_bend_c, 7, 8050
9, 234908, Pitch_bend_c, 7, 8121
9, 234944, Pitch_bend_c, 7, 8192
9, 236388, Note_on_c, 7, 55, 0
9, 236392, Note_on_c, 7, 62, 0
9, 236544, Note_on_c, 7, 48, 127
9, 236544, Note_on_c, 7, 55, 127
9, 238056, Note_on_c, 7, 55, 0
9, 238068, Note_on_c, 7, 48, 0
9, 238080, Note_on_c, 7, 50, 127
9, 238080, Note_on_c, 7, 57, 127
9, 239572, Note_on_c, 7, 57, 0
9, 239584, Note_on_c, 7, 50, 0
9, 239616, Note_on_c, 7, 52, 127
9, 239616, Note_on_c, 7, 59, 127
9, 241112, Note_on_c, 7, 52, 0
9, 241120, Note_on_c, 7, 59, 0
9, 241344, Note_on_c, 7, 57, 127
9, 241344, Note_on_c, 7, 62, 127
9, 241484, Note_on_c, 7, 62, 0
9, 241488, Note_on_c, 7, 57, 0
9, 241728, Note_on_c, 7, 57, 127
9, 241728, Note_on_c, 7, 62, 127
9, 242252, Note_on_c, 7, 57, 0
9, 242264, Note_on_c, 7, 62, 0
9, 242304, Note_on_c, 7, 57, 127
9, 242304, Note_on_c, 7, 62, 127
9, 242580, Note_on_c, 7, 57, 0
9, 242600, Note_on_c, 7, 62, 0
9, 242688, Note_on_c, 7, 55, 127
9, 242688, Note_on_c, 7, 62, 127
9, 242772, Note_on_c, 7, 62, 0
9, 242772, Note_on_c, 7, 55, 0
9, 243072, Note_on_c, 7, 55, 127
9, 243072, Note_on_c, 7, 62, 127
9, 243448, Note_on_c, 7, 62, 0
9, 243448, Note_on_c, 7, 55, 0
9, 243456, Note_on_c, 7, 55, 127
9, 243456, Note_on_c, 7, 62, 127
9, 243636, Note_on_c, 7, 62, 0
9, 243648, Note_on_c, 7, 60, 127
9, 243828, Note_on_c, 7, 55, 0
9, 243836, Note_on_c, 7, 60, 0
9, 243840, Note_on_c, 7, 55, 127
9, 243840, Note_on_c, 7, 62, 127
9, 244024, Note_on_c, 7, 62, 0
9, 244032, Note_on_c, 7, 65, 127
9, 244212, Note_on_c, 7, 65, 0
9, 244212, Note_on_c, 7, 55, 0
9, 244224, Note_on_c, 7, 55, 127
9, 244224, Note_on_c, 7, 65, 127
9, 244592, Note_on_c, 7, 55, 0
9, 244596, Note_on_c, 7, 65, 0
9, 244608, Note_on_c, 7, 55, 127
9, 244608, Note_on_c, 7, 62, 127
9, 244784, Note_on_c, 7, 62, 0
9, 244800, Note_on_c, 7, 60, 127
9, 244980, Note_on_c, 7, 60, 0
9, 244980, Note_on_c, 7, 55, 0
9, 244992, Note_on_c, 7, 55, 127
9, 244992, Note_on_c, 7, 60, 127
9, 245176, Note_on_c, 7, 60, 0
9, 245184, Note_on_c, 7, 58, 127
9, 245360, Note_on_c, 7, 55, 0
9, 245376, Note_on_c, 7, 50, 127
9, 245460, Note_on_c, 7, 58, 0
9, 245556, Note_on_c, 7, 50, 0
9, 245568, Note_on_c, 7, 55, 125
9, 245644, Note_on_c, 7, 55, 0
9, 245760, Note_on_c, 7, 50, 127
9, 245760, Note_on_c, 7, 55, 127
9, 245832, Note_on_c, 7, 55, 0
9, 245836, Note_on_c, 7, 50, 0
9, 246144, Note_on_c, 7, 50, 127
9, 246144, Note_on_c, 7, 55, 127
9, 246508, Note_on_c, 7, 55, 0
9, 246512, Note_on_c, 7, 50, 0
9, 246528, Note_on_c, 7, 50, 127
9, 246528, Note_on_c, 7, 55, 127
9, 246700, Note_on_c, 7, 55, 0
9, 246720, Note_on_c, 7, 58, 127
9, 246884, Note_on_c, 7, 58, 0
9, 246900, Note_on_c, 7, 50, 0
9, 246912, Note_on_c, 7, 50, 127
9, 246988, Note_on_c, 7, 50, 0
9, 247104, Note_on_c, 7, 50, 125
9, 247176, Note_on_c, 7, 50, 0
9, 247296, Note_on_c, 7, 53, 127
9, 247296, Note_on_c, 7, 58, 127
9, 247664, Note_on_c, 7, 58, 0
9, 247672, Note_on_c, 7, 53, 0
9, 247680, Note_on_c, 7, 55, 127
9, 247680, Note_on_c, 7, 60, 127
9, 247756, Note_on_c, 7, 60, 0
9, 247760, Note_on_c, 7, 55, 0
9, 248064, Note_on_c, 7, 55, 127
9, 248064, Note_on_c, 7, 60, 127
9, 248432, Note_on_c, 7, 60, 0
9, 248436, Note_on_c, 7, 55, 0
9, 248448, Note_on_c, 7, 53, 117
9, 248448, Note_on_c, 7, 58, 127
9, 248516, Note_on_c, 7, 53, 0
9, 248612, Note_on_c, 7, 58, 0
9, 248640, Note_on_c, 7, 55, 127
9, 248744, Note_on_c, 7, 55, 0
9, 248832, Note_on_c, 7, 55, 127
9, 248832, Note_on_c, 7, 62, 127
9, 248892, Note_on_c, 7, 55, 0
9, 248912, Note_on_c, 7, 62, 0
9, 249216, Note_on_c, 7, 55, 127
9, 249216, Note_on_c, 7, 62, 127
9, 249580, Note_on_c, 7, 62, 0
9, 249588, Note_on_c, 7, 55, 0
9, 249600, Note_on_c, 7, 55, 127
9, 249600, Note_on_c, 7, 62, 127
9, 249780, Note_on_c, 7, 62, 0
9, 249792, Note_on_c, 7, 60, 127
9, 249968, Note_on_c, 7, 55, 0
9, 249976, Note_on_c, 7, 60, 0
9, 249984, Note_on_c, 7, 55, 127
9, 249984, Note_on_c, 7, 62, 127
9, 250164, Note_on_c, 7, 62, 0
9, 250176, Note_on_c, 7, 62, 127
9, 250356, Note_on_c, 7, 62, 0
9, 250356, Note_on_c, 7, 55, 0
9, 250368, Note_on_c, 7, 55, 127
9, 250368, Note_on_c, 7, 62, 127
9, 250548, Note_on_c, 7, 62, 0
9, 250560, Note_on_c, 7, 67, 127
9, 250736, Note_on_c, 7, 55, 0
9, 250748, Note_on_c, 7, 67, 0
9, 250752, Note_on_c, 7, 55, 127
9, 250752, Note_on_c, 7, 60, 127
9, 250928, Note_on_c, 7, 60, 0
9, 250944, Note_on_c, 7, 62, 127
9, 251124, Note_on_c, 7, 55, 0
9, 251128, Note_on_c, 7, 62, 0
9, 251136, Note_on_c, 7, 55, 127
9, 251136, Note_on_c, 7, 60, 127
9, 251320, Note_on_c, 7, 60, 0
9, 251328, Note_on_c, 7, 58, 126
9, 251504, Note_on_c, 7, 55, 0
9, 251508, Note_on_c, 7, 58, 0
9, 251520, Note_on_c, 7, 55, 127
9, 251628, Note_on_c, 7, 55, 0
9, 251712, Note_on_c, 7, 55, 127
9, 251808, Note_on_c, 7, 55, 0
9, 251904, Note_on_c, 7, 50, 127
9, 251904, Note_on_c, 7, 55, 127
9, 251980, Note_on_c, 7, 55, 0
9, 251980, Note_on_c, 7, 50, 0
9, 252288, Note_on_c, 7, 50, 127
9, 252288, Note_on_c, 7, 55, 127
9, 252848, Note_on_c, 7, 55, 0
9, 252864, Note_on_c, 7, 58, 127
9, 253044, Note_on_c, 7, 50, 0
9, 253048, Note_on_c, 7, 58, 0
9, 253056, Note_on_c, 7, 55, 127
9, 253236, Note_on_c, 7, 55, 0
9, 253248, Note_on_c, 7, 50, 124
9, 253328, Note_on_c, 7, 50, 0
9, 253440, Note_on_c, 7, 48, 127
9, 253440, Note_on_c, 7, 53, 127
9, 253808, Note_on_c, 7, 48, 0
9, 253812, Note_on_c, 7, 53, 0
9, 253824, Note_on_c, 7, 50, 127
9, 253824, Note_on_c, 7, 55, 127
9, 253900, Note_on_c, 7, 55, 0
9, 253904, Note_on_c, 7, 50, 0
9, 254208, Note_on_c, 7, 50, 127
9, 254208, Note_on_c, 7, 55, 127
9, 254928, Note_on_c, 7, 55, 0
9, 254932, Note_on_c, 7, 50, 0
9, 254976, Note_on_c, 7, 55, 127
9, 254976, Note_on_c, 7, 62, 127
9, 255060, Note_on_c, 7, 62, 0
9, 255060, Note_on_c, 7, 55, 0
9, 255360, Note_on_c, 7, 55, 127
9, 255360, Note_on_c, 7, 62, 127
9, 255736, Note_on_c, 7, 62, 0
9, 255736, Note_on_c, 7, 55, 0
9, 255744, Note_on_c, 7, 55, 127
9, 255744, Note_on_c, 7, 62, 127
9, 255924, Note_on_c, 7, 62, 0
9, 255936, Note_on_c, 7, 60, 127
9, 256116, Note_on_c, 7, 55, 0
9, 256124, Note_on_c, 7, 60, 0
9, 256128, Note_on_c, 7, 55, 127
9, 256128, Note_on_c, 7, 62, 127
9, 256312, Note_on_c, 7, 62, 0
9, 256320, Note_on_c, 7, 65, 127
9, 256500, Note_on_c, 7, 65, 0
9, 256500, Note_on_c, 7, 55, 0
9, 256512, Note_on_c, 7, 55, 127
9, 256512, Note_on_c, 7, 65, 127
9, 256880, Note_on_c, 7, 55, 0
9, 256884, Note_on_c, 7, 65, 0
9, 256896, Note_on_c, 7, 55, 127
9, 256896, Note_on_c, 7, 62, 127
9, 257072, Note_on_c, 7, 62, 0
9, 257088, Note_on_c, 7, 60, 127
9, 257268, Note_on_c, 7, 60, 0
9, 257268, Note_on_c, 7, 55, 0
9, 257280, Note_on_c, 7, 55, 127
9, 257280, Note_on_c, 7, 60, 127
9, 257464, Note_on_c, 7, 60, 0
9, 257472, Note_on_c, 7, 58, 127
9, 257648, Note_on_c, 7, 55, 0
9, 257664, Note_on_c, 7, 50, 127
9, 257748, Note_on_c, 7, 58, 0
9, 257844, Note_on_c, 7, 50, 0
9, 257856, Note_on_c, 7, 55, 125
9, 257932, Note_on_c, 7, 55, 0
9, 258048, Note_on_c, 7, 50, 127
9, 258048, Note_on_c, 7, 55, 127
9, 258120, Note_on_c, 7, 55, 0
9, 258124, Note_on_c, 7, 50, 0
9, 258432, Note_on_c, 7, 50, 127
9, 258432, Note_on_c, 7, 55, 127
9, 258796, Note_on_c, 7, 55, 0
9, 258800, Note_on_c, 7, 50, 0
9, 258816, Note_on_c, 7, 50, 127
9, 258816, Note_on_c, 7, 55, 127
9, 258988, Note_on_c, 7, 55, 0
9, 259008, Note_on_c, 7, 58, 127
9, 259172, Note_on_c, 7, 58, 0
9, 259188, Note_on_c, 7, 50, 0
9, 259200, Note_on_c, 7, 50, 127
9, 259276, Note_on_c, 7, 50, 0
9, 259392, Note_on_c, 7, 50, 125
9, 259464, Note_on_c, 7, 50, 0
9, 259584, Note_on_c, 7, 53, 127
9, 259584, Note_on_c, 7, 58, 127
9, 259952, Note_on_c, 7, 58, 0
9, 259960, Note_on_c, 7, 53, 0
9, 259968, Note_on_c, 7, 55, 127
9, 259968, Note_on_c, 7, 60, 127
9, 260044, Note_on_c, 7, 60, 0
9, 260048, Note_on_c, 7, 55, 0
9, 260352, Note_on_c, 7, 55, 127
9, 260352, Note_on_c, 7, 60, 127
9, 260720, Note_on_c, 7, 60, 0
9, 260724, Note_on_c, 7, 55, 0
9, 260736, Note_on_c, 7, 53, 117
9, 260736, Note_on_c, 7, 58, 127
9, 260804, Note_on_c, 7, 53, 0
9, 260900, Note_on_c, 7, 58, 0
9, 260928, Note_on_c, 7, 55, 127
9, 261032, Note_on_c, 7, 55, 0
9, 261120, Note_on_c, 7, 55, 127
9, 261120, Note_on_c, 7, 62, 127
9, 261180, Note_on_c, 7, 55, 0
9, 261200, Note_on_c, 7, 62, 0
9, 261504, Note_on_c, 7, 55, 127
9, 261504, Note_on_c, 7, 62, 127
9, 261868, Note_on_c, 7, 62, 0
9, 261876, Note_on_c, 7, 55, 0
9, 261888, Note_on_c, 7, 55, 127
9, 261888, Note_on_c, 7, 62, 127
9, 262068, Note_on_c, 7, 62, 0
9, 262080, Note_on_c, 7, 60, 127
9, 262256, Note_on_c, 7, 55, 0
9, 262264, Note_on_c, 7, 60, 0
9, 262272, Note_on_c, 7, 55, 127
9, 262272, Note_on_c, 7, 62, 127
9, 262452, Note_on_c, 7, 62, 0
9, 262464, Note_on_c, 7, 62, 127
9, 262644, Note_on_c, 7, 62, 0
9, 262644, Note_on_c, 7, 55, 0
9, 262656, Note_on_c, 7, 55, 127
9, 262656, Note_on_c, 7, 62, 127
9, 262836, Note_on_c, 7, 62, 0
9, 262848, Note_on_c, 7, 67, 127
9, 263024, Note_on_c, 7, 55, 0
9, 263036, Note_on_c, 7, 67, 0
9, 263040, Note_on_c, 7, 55, 127
9, 263040, Note_on_c, 7, 60, 127
9, 263216, Note_on_c, 7, 60, 0
9, 263232, Note_on_c, 7, 62, 127
9, 263412, Note_on_c, 7, 55, 0
9, 263416, Note_on_c, 7, 62, 0
9, 263424, Note_on_c, 7, 55, 127
9, 263424, Note_on_c, 7, 60, 127
9, 263608, Note_on_c, 7, 60, 0
9, 263616, Note_on_c, 7, 58, 126
9, 263792, Note_on_c, 7, 55, 0
9, 263796, Note_on_c, 7, 58, 0
9, 263808, Note_on_c, 7, 55, 127
9, 263916, Note_on_c, 7, 55, 0
9, 264000, Note_on_c, 7, 55, 127
9, 264096, Note_on_c, 7, 55, 0
9, 264192, Note_on_c, 7, 50, 127
9, 264192, Note_on_c, 7, 55, 127
9, 264268, Note_on_c, 7, 55, 0
9, 264268, Note_on_c, 7, 50, 0
9, 264576, Note_on_c, 7, 50, 127
9, 264576, Note_on_c, 7, 55, 127
9, 265136, Note_on_c, 7, 55, 0
9, 265152, Note_on_c, 7, 58, 127
9, 265332, Note_on_c, 7, 50, 0
9, 265336, Note_on_c, 7, 58, 0
9, 265344, Note_on_c, 7, 55, 127
9, 265524, Note_on_c, 7, 55, 0
9, 265536, Note_on_c, 7, 50, 124
9, 265616, Note_on_c, 7, 50, 0
9, 265728, Note_on_c, 7, 48, 127
9, 265728, Note_on_c, 7, 53, 127
9, 266096, Note_on_c, 7, 48, 0
9, 266100, Note_on_c, 7, 53, 0
9, 266112, Note_on_c, 7, 50, 127
9, 266112, Note_on_c, 7, 55, 127
9, 266188, Note_on_c, 7, 55, 0
9, 266192, Note_on_c, 7, 50, 0
9, 266496, Note_on_c, 7, 50, 127
9, 266496, Note_on_c, 7, 55, 127
9, 267216, Note_on_c, 7, 55, 0
9, 267220, Note_on_c, 7, 50, 0
9, 267264, Note_on_c, 7, 55, 127
9, 267264, Note_on_c, 7, 62, 127
9, 267348, Note_on_c, 7, 62, 0
9, 267348, Note_on_c, 7, 55, 0
9, 267648, Note_on_c, 7, 55, 127
9, 267648, Note_on_c, 7, 62, 127
9, 268024, Note_on_c, 7, 62, 0
9, 268024, Note_on_c, 7, 55, 0
9, 268032, Note_on_c, 7, 55, 127
9, 268032, Note_on_c, 7, 62, 127
9, 268212, Note_on_c, 7, 62, 0
9, 268224, Note_on_c, 7, 60, 127
9, 268404, Note_on_c, 7, 55, 0
9, 268412, Note_on_c, 7, 60, 0
9, 268416, Note_on_c, 7, 55, 127
9, 268416, Note_on_c, 7, 62, 127
9, 268600, Note_on_c, 7, 62, 0
9, 268608, Note_on_c, 7, 65, 127
9, 268788, Note_on_c, 7, 65, 0
9, 268788, Note_on_c, 7, 55, 0
9, 268800, Note_on_c, 7, 55, 127
9, 268800, Note_on_c, 7, 65, 127
9, 269168, Note_on_c, 7, 55, 0
9, 269172, Note_on_c, 7, 65, 0
9, 269184, Note_on_c, 7, 55, 127
9, 269184, Note_on_c, 7, 62, 127
9, 269360, Note_on_c, 7, 62, 0
9, 269376, Note_on_c, 7, 60, 127
9, 269556, Note_on_c, 7, 60, 0
9, 269556, Note_on_c, 7, 55, 0
9, 269568, Note_on_c, 7, 55, 127
9, 269568, Note_on_c, 7, 60, 127
9, 269752, Note_on_c, 7, 60, 0
9, 269760, Note_on_c, 7, 58, 127
9, 269936, Note_on_c, 7, 55, 0
9, 269952, Note_on_c, 7, 50, 127
9, 270036, Note_on_c, 7, 58, 0
9, 270132, Note_on_c, 7, 50, 0
9, 270144, Note_on_c, 7, 55, 125
9, 270220, Note_on_c, 7, 55, 0
9, 270336, Note_on_c, 7, 50, 127
9, 270336, Note_on_c, 7, 55, 127
9, 270408, Note_on_c, 7, 55, 0
9, 270412, Note_on_c, 7, 50, 0
9, 270720, Note_on_c, 7, 50, 127
9, 270720, Note_on_c, 7, 55, 127
9, 271084, Note_on_c, 7, 55, 0
9, 271088, Note_on_c, 7, 50, 0
9, 271104, Note_on_c, 7, 50, 127
9, 271104, Note_on_c, 7, 55, 127
9, 271276, Note_on_c, 7, 55, 0
9, 271296, Note_on_c, 7, 58, 127
9, 271460, Note_on_c, 7, 58, 0
9, 271476, Note_on_c, 7, 50, 0
9, 271488, Note_on_c, 7, 50, 127
9, 271564, Note_on_c, 7, 50, 0
9, 271680, Note_on_c, 7, 50, 125
9, 271752, Note_on_c, 7, 50, 0
9, 271872, Note_on_c, 7, 53, 127
9, 271872, Note_on_c, 7, 58, 127
9, 272240, Note_on_c, 7, 58, 0
9, 272248, Note_on_c, 7, 53, 0
9, 272256, Note_on_c, 7, 55, 127
9, 272256, Note_on_c, 7, 60, 127
9, 272332, Note_on_c, 7, 60, 0
9, 272336, Note_on_c, 7, 55, 0
9, 272640, Note_on_c, 7, 55, 127
9, 272640, Note_on_c, 7, 60, 127
9, 273008, Note_on_c, 7, 60, 0
9, 273012, Note_on_c, 7, 55, 0
9, 273024, Note_on_c, 7, 53, 117
9, 273024, Note_on_c, 7, 58, 127
9, 273092, Note_on_c, 7, 53, 0
9, 273188, Note_on_c, 7, 58, 0
9, 273216, Note_on_c, 7, 55, 127
9, 273320, Note_on_c, 7, 55, 0
9, 273408, Note_on_c, 7, 55, 127
9, 273408, Note_on_c, 7, 62, 127
9, 273468, Note_on_c, 7, 55, 0
9, 273488, Note_on_c, 7, 62, 0
9, 273792, Note_on_c, 7, 55, 127
9, 273792, Note_on_c, 7, 62, 127
9, 274156, Note_on_c, 7, 62, 0
9, 274164, Note_on_c, 7, 55, 0
9, 274176, Note_on_c, 7, 55, 127
9, 274176, Note_on_c, 7, 62, 127
9, 274356, Note_on_c, 7, 62, 0
9, 274368, Note_on_c, 7, 60, 127
9, 274544, Note_on_c, 7, 55, 0
9, 274552, Note_on_c, 7, 60, 0
9, 274560, Note_on_c, 7, 55, 127
9, 274560, Note_on_c, 7, 62, 127
9, 274740, Note_on_c, 7, 62, 0
9, 274752, Note_on_c, 7, 62, 127
9, 274932, Note_on_c, 7, 62, 0
9, 274932, Note_on_c, 7, 55, 0
9, 274944, Note_on_c, 7, 55, 127
9, 274944, Note_on_c, 7, 62, 127
9, 275124, Note_on_c, 7, 62, 0
9, 275136, Note_on_c, 7, 67, 127
9, 275312, Note_on_c, 7, 55, 0
9, 275324, Note_on_c, 7, 67, 0
9, 275328, Note_on_c, 7, 55, 127
9, 275328, Note_on_c, 7, 60, 127
9, 275504, Note_on_c, 7, 60, 0
9, 275520, Note_on_c, 7, 62, 127
9, 275700, Note_on_c, 7, 55, 0
9, 275704, Note_on_c, 7, 62, 0
9, 275712, Note_on_c, 7, 55, 127
9, 275712, Note_on_c, 7, 60, 127
9, 275896, Note_on_c, 7, 60, 0
9, 275904, Note_on_c, 7, 58, 126
9, 276080, Note_on_c, 7, 55, 0
9, 276084, Note_on_c, 7, 58, 0
9, 276096, Note_on_c, 7, 55, 127
9, 276204, Note_on_c, 7, 55, 0
9, 276288, Note_on_c, 7, 55, 127
9, 276384, Note_on_c, 7, 55, 0
9, 276480, Note_on_c, 7, 50, 127
9, 276480, Note_on_c, 7, 55, 127
9, 276556, Note_on_c, 7, 55, 0
9, 276556, Note_on_c, 7, 50, 0
9, 276864, Note_on_c, 7, 50, 127
9, 276864, Note_on_c, 7, 55, 127
9, 277424, Note_on_c, 7, 55, 0
9, 277440, Note_on_c, 7, 58, 127
9, 277620, Note_on_c, 7, 50, 0
9, 277624, Note_on_c, 7, 58, 0
9, 277632, Note_on_c, 7, 55, 127
9, 277812, Note_on_c, 7, 55, 0
9, 277824, Note_on_c, 7, 50, 124
9, 277904, Note_on_c, 7, 50, 0
9, 278016, Note_on_c, 7, 48, 127
9, 278016, Note_on_c, 7, 53, 127
9, 278384, Note_on_c, 7, 48, 0
9, 278388, Note_on_c, 7, 53, 0
9, 278400, Note_on_c, 7, 50, 127
9, 278400, Note_on_c, 7, 55, 127
9, 278476, Note_on_c, 7, 55, 0
9, 278480, Note_on_c, 7, 50, 0
9, 278784, Note_on_c, 7, 50, 127
9, 278784, Note_on_c, 7, 55, 127
9, 279504, Note_on_c, 7, 55, 0
9, 279508, Note_on_c, 7, 50, 0
9, 279552, Note_on_c, 7, 55, 127
9, 279552, Note_on_c, 7, 62, 127
9, 279636, Note_on_c, 7, 62, 0
9, 279636, Note_on_c, 7, 55, 0
9, 279936, Note_on_c, 7, 55, 127
9, 279936, Note_on_c, 7, 62, 127
9, 280312, Note_on_c, 7, 62, 0
9, 280312, Note_on_c, 7, 55, 0
9, 280320, Note_on_c, 7, 55, 127
9, 280320, Note_on_c, 7, 62, 127
9, 280500, Note_on_c, 7, 62, 0
9, 280512, Note_on_c, 7, 60, 127
9, 280692, Note_on_c, 7, 55, 0
9, 280700, Note_on_c, 7, 60, 0
9, 280704, Note_on_c, 7, 55, 127
9, 280704, Note_on_c, 7, 62, 127
9, 280888, Note_on_c, 7, 62, 0
9, 280896, Note_on_c, 7, 65, 127
9, 281076, Note_on_c, 7, 65, 0
9, 281076, Note_on_c, 7, 55, 0
9, 281088, Note_on_c, 7, 55, 127
9, 281088, Note_on_c, 7, 65, 127
9, 281456, Note_on_c, 7, 55, 0
9, 281460, Note_on_c, 7, 65, 0
9, 281472, Note_on_c, 7, 55, 127
9, 281472, Note_on_c, 7, 62, 127
9, 281648, Note_on_c, 7, 62, 0
9, 281664, Note_on_c, 7, 60, 127
9, 281844, Note_on_c, 7, 60, 0
9, 281844, Note_on_c, 7, 55, 0
9, 281856, Note_on_c, 7, 55, 127
9, 281856, Note_on_c, 7, 60, 127
9, 282040, Note_on_c, 7, 60, 0
9, 282048, Note_on_c, 7, 58, 127
9, 282224, Note_on_c, 7, 55, 0
9, 282240, Note_on_c, 7, 50, 127
9, 282324, Note_on_c, 7, 58, 0
9, 282420, Note_on_c, 7, 50, 0
9, 282432, Note_on_c, 7, 55, 125
9, 282508, Note_on_c, 7, 55, 0
9, 282624, Note_on_c, 7, 50, 127
9, 282624, Note_on_c, 7, 55, 127
9, 282696, Note_on_c, 7, 55, 0
9, 282700, Note_on_c, 7, 50, 0
9, 283008, Note_on_c, 7, 50, 127
9, 283008, Note_on_c, 7, 55, 127
9, 283372, Note_on_c, 7, 55, 0
9, 283376, Note_on_c, 7, 50, 0
9, 283392, Note_on_c, 7, 50, 127
9, 283392, Note_on_c, 7, 55, 127
9, 283564, Note_on_c, 7, 55, 0
9, 283584, Note_on_c, 7, 58, 127
9, 283748, Note_on_c, 7, 58, 0
9, 283764, Note_on_c, 7, 50, 0
9, 283776, Note_on_c, 7, 50, 127
9, 283852, Note_on_c, 7, 50, 0
9, 283968, Note_on_c, 7, 50, 125
9, 284040, Note_on_c, 7, 50, 0
9, 284160, Note_on_c, 7, 53, 127
9, 284160, Note_on_c, 7, 58, 127
9, 284528, Note_on_c, 7, 58, 0
9, 284536, Note_on_c, 7, 53, 0
9, 284544, Note_on_c, 7, 55, 127
9, 284544, Note_on_c, 7, 60, 127
9, 284620, Note_on_c, 7, 60, 0
9, 284624, Note_on_c, 7, 55, 0
9, 284928, Note_on_c, 7, 55, 127
9, 284928, Note_on_c, 7, 60, 127
9, 285296, Note_on_c, 7, 60, 0
9, 285300, Note_on_c, 7, 55, 0
9, 285312, Note_on_c, 7, 53, 117
9, 285312, Note_on_c, 7, 58, 127
9, 285380, Note_on_c, 7, 53, 0
9, 285476, Note_on_c, 7, 58, 0
9, 285504, Note_on_c, 7, 55, 127
9, 285608, Note_on_c, 7, 55, 0
9, 285696, Note_on_c, 7, 55, 127
9, 285696, Note_on_c, 7, 62, 127
9, 285756, Note_on_c, 7, 55, 0
9, 285776, Note_on_c, 7, 62, 0
9, 286080, Note_on_c, 7, 55, 127
9, 286080, Note_on_c, 7, 62, 127
9, 286444, Note_on_c, 7, 62, 0
9, 286452, Note_on_c, 7, 55, 0
9, 286464, Note_on_c, 7, 55, 127
9, 286464, Note_on_c, 7, 62, 127
9, 286644, Note_on_c, 7, 62, 0
9, 286656, Note_on_c, 7, 60, 127
9, 286832, Note_on_c, 7, 55, 0
9, 286840, Note_on_c, 7, 60, 0
9, 286848, Note_on_c, 7, 55, 127
9, 286848, Note_on_c, 7, 62, 127
9, 287028, Note_on_c, 7, 62, 0
9, 287040, Note_on_c, 7, 62, 127
9, 287220, Note_on_c, 7, 62, 0
9, 287220, Note_on_c, 7, 55, 0
9, 287232, Note_on_c, 7, 55, 127
9, 287232, Note_on_c, 7, 62, 127
9, 287412, Note_on_c, 7, 62, 0
9, 287424, Note_on_c, 7, 67, 127
9, 287600, Note_on_c, 7, 55, 0
9, 287612, Note_on_c, 7, 67, 0
9, 287616, Note_on_c, 7, 55, 127
9, 287616, Note_on_c, 7, 60, 127
9, 287792, Note_on_c, 7, 60, 0
9, 287808, Note_on_c, 7, 62, 127
9, 287988, Note_on_c, 7, 55, 0
9, 287992, Note_on_c, 7, 62, 0
9, 288000, Note_on_c, 7, 55, 127
9, 288000, Note_on_c, 7, 60, 127
9, 288184, Note_on_c, 7, 60, 0
9, 288192, Note_on_c, 7, 58, 126
9, 288368, Note_on_c, 7, 55, 0
9, 288372, Note_on_c, 7, 58, 0
9, 288384, Note_on_c, 7, 55, 127
9, 288492, Note_on_c, 7, 55, 0
9, 288576, Note_on_c, 7, 55, 127
9, 288672, Note_on_c, 7, 55, 0
9, 288768, Note_on_c, 7, 50, 127
9, 288768, Note_on_c, 7, 55, 127
9, 288844, Note_on_c, 7, 55, 0
9, 288844, Note_on_c, 7, 50, 0
9, 289152, Note_on_c, 7, 50, 127
9, 289152, Note_on_c, 7, 55, 127
9, 289712, Note_on_c, 7, 55, 0
9, 289728, Note_on_c, 7, 58, 127
9, 289908, Note_on_c, 7, 50, 0
9, 289912, Note_on_c, 7, 58, 0
9, 289920, Note_on_c, 7, 55, 127
9, 290100, Note_on_c, 7, 55, 0
9, 290112, Note_on_c, 7, 50, 124
9, 290192, Note_on_c, 7, 50, 0
9, 290304, Note_on_c, 7, 48, 127
9, 290304, Note_on_c, 7, 53, 127
9, 290672, Note_on_c, 7, 48, 0
9, 290676, Note_on_c, 7, 53, 0
9, 290688, Note_on_c, 7, 50, 127
9, 290688, Note_on_c, 7, 55, 127
9, 290764, Note_on_c, 7, 55, 0
9, 290768, Note_on_c, 7, 50, 0
9, 291072, Note_on_c, 7, 50, 127
9, 291072, Note_on_c, 7, 55, 127
9, 291792, Note_on_c, 7, 55, 0
9, 291796, Note_on_c, 7, 50, 0
9, 291840, Note_on_c, 7, 55, 127
9, 291840, Note_on_c, 7, 62, 127
9, 291924, Note_on_c, 7, 62, 0
9, 291924, Note_on_c, 7, 55, 0
9, 292224, Note_on_c, 7, 55, 127
9, 292224, Note_on_c, 7, 62, 127
9, 292600, Note_on_c, 7, 62, 0
9, 292600, Note_on_c, 7, 55, 0
9, 292608, Note_on_c, 7, 55, 127
9, 292608, Note_on_c, 7, 62, 127
9, 292788, Note_on_c, 7, 62, 0
9, 292800, Note_on_c, 7, 60, 127
9, 292980, Note_on_c, 7, 55, 0
9, 292988, Note_on_c, 7, 60, 0
9, 292992, Note_on_c, 7, 55, 127
9, 292992, Note_on_c, 7, 62, 127
9, 293176, Note_on_c, 7, 62, 0
9, 293184, Note_on_c, 7, 65, 127
9, 293364, Note_on_c, 7, 65, 0
9, 293364, Note_on_c, 7, 55, 0
9, 293376, Note_on_c, 7, 55, 127
9, 293376, Note_on_c, 7, 65, 127
9, 293744, Note_on_c, 7, 55, 0
9, 293748, Note_on_c, 7, 65, 0
9, 293760, Note_on_c, 7, 55, 127
9, 293760, Note_on_c, 7, 62, 127
9, 293936, Note_on_c, 7, 62, 0
9, 293952, Note_on_c, 7, 60, 127
9, 294132, Note_on_c, 7, 60, 0
9, 294132, Note_on_c, 7, 55, 0
9, 294144, Note_on_c, 7, 55, 127
9, 294144, Note_on_c, 7, 60, 127
9, 294328, Note_on_c, 7, 60, 0
9, 294336, Note_on_c, 7, 58, 127
9, 294512, Note_on_c, 7, 55, 0
9, 294528, Note_on_c, 7, 50, 127
9, 294612, Note_on_c, 7, 58, 0
9, 294708, Note_on_c, 7, 50, 0
9, 294720, Note_on_c, 7, 55, 125
9, 294796, Note_on_c, 7, 55, 0
9, 294912, Note_on_c, 7, 50, 127
9, 294912, Note_on_c, 7, 55, 127
9, 294984, Note_on_c, 7, 55, 0
9, 294988, Note_on_c, 7, 50, 0
9, 295296, Note_on_c, 7, 50, 127
9, 295296, Note_on_c, 7, 55, 127
9, 295660, Note_on_c, 7, 55, 0
9, 295664, Note_on_c, 7, 50, 0
9, 295680, Note_on_c, 7, 50, 127
9, 295680, Note_on_c, 7, 55, 127
9, 295852, Note_on_c, 7, 55, 0
9, 295872, Note_on_c, 7, 58, 127
9, 296036, Note_on_c, 7, 58, 0
9, 296052, Note_on_c, 7, 50, 0
9, 296064, Note_on_c, 7, 50, 127
9, 296140, Note_on_c, 7, 50, 0
9, 296256, Note_on_c, 7, 50, 125
9, 296328, Note_on_c, 7, 50, 0
9, 296448, Note_on_c, 7, 53, 127
9, 296448, Note_on_c, 7, 58, 127
9, 296816, Note_on_c, 7, 58, 0
9, 296824, Note_on_c, 7, 53, 0
9, 296832, Note_on_c, 7, 55, 127
9, 296832, Note_on_c, 7, 60, 127
9, 296908, Note_on_c, 7, 60, 0
9, 296912, Note_on_c, 7, 55, 0
9, 297216, Note_on_c, 7, 55, 127
9, 297216, Note_on_c, 7, 60, 127
9, 297584, Note_on_c, 7, 60, 0
9, 297588, Note_on_c, 7, 55, 0
9, 297600, Note_on_c, 7, 53, 117
9, 297600, Note_on_c, 7, 58, 127
9, 297668, Note_on_c, 7, 53, 0
9, 297764, Note_on_c, 7, 58, 0
9, 297792, Note_on_c, 7, 55, 127
9, 297896, Note_on_c, 7, 55, 0
9, 297984, Note_on_c, 7, 55, 127
9, 297984, Note_on_c, 7, 62, 127
9, 298044, Note_on_c, 7, 55, 0
9, 298064, Note_on_c, 7, 62, 0
9, 298368, Note_on_c, 7, 55, 127
9, 298368, Note_on_c, 7, 62, 127
9, 298732, Note_on_c, 7, 62, 0
9, 298740, Note_on_c, 7, 55, 0
9, 298752, Note_on_c, 7, 55, 127
9, 298752, Note_on_c, 7, 62, 127
9, 298932, Note_on_c, 7, 62, 0
9, 298944, Note_on_c, 7, 60, 127
9, 299120, Note_on_c, 7, 55, 0
9, 299128, Note_on_c, 7, 60, 0
9, 299136, Note_on_c, 7, 55, 127
9, 299136, Note_on_c, 7, 62, 127
9, 299316, Note_on_c, 7, 62, 0
9, 299328, Note_on_c, 7, 62, 127
9, 299508, Note_on_c, 7, 62, 0
9, 299508, Note_on_c, 7, 55, 0
9, 299520, Note_on_c, 7, 55, 127
9, 299520, Note_on_c, 7, 62, 127
9, 299700, Note_on_c, 7, 62, 0
9, 299712, Note_on_c, 7, 67, 127
9, 299888, Note_on_c, 7, 55, 0
9, 299900, Note_on_c, 7, 67, 0
9, 299904, Note_on_c, 7, 55, 127
9, 299904, Note_on_c, 7, 60, 127
9, 300080, Note_on_c, 7, 60, 0
9, 300096, Note_on_c, 7, 62, 127
9, 300276, Note_on_c, 7, 55, 0
9, 300280, Note_on_c, 7, 62, 0
9, 300288, Note_on_c, 7, 55, 127
9, 300288, Note_on_c, 7, 60, 127
9, 300472, Note_on_c, 7, 60, 0
9, 300480, Note_on_c, 7, 58, 126
9, 300656, Note_on_c, 7, 55, 0
9, 300660, Note_on_c, 7, 58, 0
9, 300672, Note_on_c, 7, 55, 127
9, 300780, Note_on_c, 7, 55, 0
9, 300864, Note_on_c, 7, 55, 127
9, 300960, Note_on_c, 7, 55, 0
9, 301056, Note_on_c, 7, 50, 127
9, 301056, Note_on_c, 7, 55, 127
9, 301132, Note_on_c, 7, 55, 0
9, 301132, Note_on_c, 7, 50, 0
9, 301440, Note_on_c, 7, 50, 127
9, 301440, Note_on_c, 7, 55, 127
9, 302000, Note_on_c, 7, 55, 0
9, 302016, Note_on_c, 7, 58, 127
9, 302196, Note_on_c, 7, 50, 0
9, 302200, Note_on_c, 7, 58, 0
9, 302208, Note_on_c, 7, 55, 127
9, 302388, Note_on_c, 7, 55, 0
9, 302400, Note_on_c, 7, 50, 124
9, 302480, Note_on_c, 7, 50, 0
9, 302592, Note_on_c, 7, 48, 127
9, 302592, Note_on_c, 7, 53, 127
9, 302960, Note_on_c, 7, 48, 0
9, 302964, Note_on_c, 7, 53, 0
9, 302976, Note_on_c, 7, 50, 127
9, 302976, Note_on_c, 7, 55, 127
9, 303052, Note_on_c, 7, 55, 0
9, 303056, Note_on_c, 7, 50, 0
9, 303360, Note_on_c, 7, 50, 127
9, 303360, Note_on_c, 7, 55, 127
9, 304080, Note_on_c, 7, 55, 0
9, 304084, Note_on_c, 7, 50, 0
9, 304128, Note_on_c, 7, 60, 127
9, 304128, Note_on_c, 7, 65, 127
9, 304484, Note_on_c, 7, 65, 0
9, 304500, Note_on_c, 7, 60, 0
9, 304512, Note_on_c, 7, 60, 127
9, 304512, Note_on_c, 7, 65, 127
9, 304604, Note_on_c, 7, 65, 0
9, 304616, Note_on_c, 7, 60, 0
9, 304704, Note_on_c, 7, 60, 127
9, 304704, Note_on_c, 7, 65, 127
9, 304804, Note_on_c, 7, 65, 0
9, 304832, Note_on_c, 7, 60, 0
9, 305088, Note_on_c, 7, 60, 127
9, 305088, Note_on_c, 7, 65, 127
9, 305176, Note_on_c, 7, 65, 0
9, 305212, Note_on_c, 7, 60, 0
9, 305472, Note_on_c, 7, 60, 127
9, 305472, Note_on_c, 7, 65, 127
9, 305568, Note_on_c, 7, 65, 0
9, 305580, Note_on_c, 7, 60, 0
9, 305856, Note_on_c, 7, 60, 127
9, 305856, Note_on_c, 7, 65, 127
9, 305944, Note_on_c, 7, 65, 0
9, 305964, Note_on_c, 7, 60, 0
9, 306192, Control_c, 7, 1, 16
9, 306232, Control_c, 7, 1, 45
9, 306240, Note_on_c, 7, 60, 127
9, 306240, Note_on_c, 7, 65, 127
9, 306268, Control_c, 7, 1, 68
9, 306304, Control_c, 7, 1, 77
9, 306340, Control_c, 7, 1, 80
9, 306488, Control_c, 7, 1, 83
9, 306524, Control_c, 7, 1, 84
9, 306572, Note_on_c, 7, 65, 0
9, 306584, Note_on_c, 7, 60, 0
9, 306596, Control_c, 7, 1, 82
9, 306620, Control_c, 7, 1, 0
9, 306624, Note_on_c, 7, 60, 127
9, 306624, Note_on_c, 7, 65, 127
9, 306736, Note_on_c, 7, 60, 0
9, 306772, Note_on_c, 7, 65, 0
9, 306816, Note_on_c, 7, 62, 127
9, 306996, Note_on_c, 7, 62, 0
9, 307008, Note_on_c, 7, 60, 127
9, 307140, Note_on_c, 7, 60, 0
9, 307200, Note_on_c, 7, 62, 127
9, 307568, Note_on_c, 7, 62, 0
9, 307584, Note_on_c, 7, 67, 127
9, 307764, Note_on_c, 7, 67, 0
9, 307776, Note_on_c, 7, 62, 127
9, 308148, Note_on_c, 7, 62, 0
9, 308160, Note_on_c, 7, 67, 127
9, 308328, Note_on_c, 7, 67, 0
9, 308352, Note_on_c, 7, 62, 127
9, 308520, Note_on_c, 7, 62, 0
9, 308544, Note_on_c, 7, 55, 127
9, 308700, Note_on_c, 7, 55, 0
9, 308736, Note_on_c, 7, 53, 127
9, 308736, Note_on_c, 7, 58, 127
9, 308900, Note_on_c, 7, 58, 0
9, 308928, Note_on_c, 7, 60, 127
9, 309112, Note_on_c, 7, 60, 0
9, 309120, Note_on_c, 7, 62, 127
9, 309280, Note_on_c, 7, 53, 0
9, 309296, Note_on_c, 7, 62, 0
9, 309312, Note_on_c, 7, 55, 127
9, 309312, Note_on_c, 7, 60, 127
9, 309780, Note_on_c, 7, 60, 0
9, 309780, Note_on_c, 7, 55, 0
9, 309888, Note_on_c, 7, 58, 127
9, 310044, Note_on_c, 7, 58, 0
9, 310080, Note_on_c, 7, 55, 127
9, 310236, Note_on_c, 7, 55, 0
9, 310268, Pitch_bend_c, 7, 3954
9, 310272, Note_on_c, 7, 55, 127
9, 310272, Note_on_c, 7, 62, 127
9, 310292, Pitch_bend_c, 7, 4378
9, 310312, Pitch_bend_c, 7, 5014
9, 310332, Pitch_bend_c, 7, 5720
9, 310348, Pitch_bend_c, 7, 6355
9, 310368, Pitch_bend_c, 7, 6850
9, 310384, Pitch_bend_c, 7, 7273
9, 310404, Pitch_bend_c, 7, 7697
9, 310420, Pitch_bend_c, 7, 8121
9, 310448, Pitch_bend_c, 7, 8192
9, 311168, Note_on_c, 7, 55, 0
9, 311232, Note_on_c, 7, 55, 127
9, 311232, Note_on_c, 7, 60, 127
9, 311236, Note_on_c, 7, 62, 0
9, 311696, Control_c, 7, 1, 5
9, 311736, Control_c, 7, 1, 12
9, 311772, Control_c, 7, 1, 16
9, 311808, Control_c, 7, 1, 23
9, 311844, Control_c, 7, 1, 30
9, 311880, Control_c, 7, 1, 36
9, 311916, Control_c, 7, 1, 42
9, 311952, Control_c, 7, 1, 48
9, 311992, Control_c, 7, 1, 56
9, 312028, Control_c, 7, 1, 63
9, 312064, Control_c, 7, 1, 70
9, 312100, Control_c, 7, 1, 76
9, 312136, Control_c, 7, 1, 83
9, 312172, Control_c, 7, 1, 88
9, 312208, Control_c, 7, 1, 93
9, 312248, Control_c, 7, 1, 97
9, 312284, Control_c, 7, 1, 100
9, 312320, Control_c, 7, 1, 101
9, 312392, Control_c, 7, 1, 98
9, 312428, Control_c, 7, 1, 93
9, 312468, Control_c, 7, 1, 85
9, 312504, Control_c, 7, 1, 74
9, 312540, Control_c, 7, 1, 59
9, 312576, Control_c, 7, 1, 42
9, 312612, Control_c, 7, 1, 21
9, 312648, Control_c, 7, 1, 0
9, 312656, Note_on_c, 7, 60, 0
9, 312664, Note_on_c, 7, 55, 0
9, 312768, Note_on_c, 7, 60, 127
9, 312900, Note_on_c, 7, 60, 0
9, 312960, Note_on_c, 7, 58, 127
9, 313116, Note_on_c, 7, 58, 0
9, 313152, Note_on_c, 7, 55, 127
9, 313256, Note_on_c, 7, 55, 0
9, 313344, Note_on_c, 7, 53, 127
9, 313344, Note_on_c, 7, 58, 127
9, 313476, Note_on_c, 7, 53, 0
9, 313532, Note_on_c, 7, 58, 0
9, 313536, Note_on_c, 7, 50, 127
9, 313536, Note_on_c, 7, 55, 127
9, 313620, Note_on_c, 7, 55, 0
9, 313624, Note_on_c, 7, 50, 0
9, 313728, Note_on_c, 7, 50, 127
9, 313728, Note_on_c, 7, 55, 127
9, 313876, Note_on_c, 7, 50, 0
9, 313884, Note_on_c, 7, 55, 0
9, 313920, Note_on_c, 7, 50, 127
9, 314016, Note_on_c, 7, 50, 0
9, 314112, Note_on_c, 7, 53, 127
9, 314112, Note_on_c, 7, 58, 127
9, 314420, Note_on_c, 7, 53, 0
9, 314464, Note_on_c, 7, 58, 0
9, 314496, Note_on_c, 7, 50, 127
9, 314496, Note_on_c, 7, 55, 127
9, 314640, Note_on_c, 7, 50, 0
9, 314680, Note_on_c, 7, 55, 0
9, 314688, Note_on_c, 7, 53, 127
9, 314688, Note_on_c, 7, 58, 127
9, 315208, Note_on_c, 7, 58, 0
9, 315220, Note_on_c, 7, 53, 0
9, 315264, Note_on_c, 7, 50, 127
9, 315264, Note_on_c, 7, 55, 127
9, 315408, Note_on_c, 7, 50, 0
9, 315440, Note_on_c, 7, 55, 0
9, 315456, Note_on_c, 7, 50, 127
9, 315456, Note_on_c, 7, 55, 127
9, 316288, Note_on_c, 7, 55, 0
9, 316288, Note_on_c, 7, 50, 0
9, 316416, Note_on_c, 7, 55, 127
9, 316416, Note_on_c, 7, 62, 127
9, 316500, Note_on_c, 7, 62, 0
9, 316500, Note_on_c, 7, 55, 0
9, 316800, Note_on_c, 7, 55, 127
9, 316800, Note_on_c, 7, 62, 127
9, 317176, Note_on_c, 7, 62, 0
9, 317176, Note_on_c, 7, 55, 0
9, 317184, Note_on_c, 7, 55, 127
9, 317184, Note_on_c, 7, 62, 127
9, 317364, Note_on_c, 7, 62, 0
9, 317376, Note_on_c, 7, 60, 127
9, 317556, Note_on_c, 7, 55, 0
9, 317564, Note_on_c, 7, 60, 0
9, 317568, Note_on_c, 7, 55, 127
9, 317568, Note_on_c, 7, 62, 127
9, 317752, Note_on_c, 7, 62, 0
9, 317760, Note_on_c, 7, 65, 127
9, 317940, Note_on_c, 7, 65, 0
9, 317940, Note_on_c, 7, 55, 0
9, 317952, Note_on_c, 7, 55, 127
9, 317952, Note_on_c, 7, 65, 127
9, 318320, Note_on_c, 7, 55, 0
9, 318324, Note_on_c, 7, 65, 0
9, 318336, Note_on_c, 7, 55, 127
9, 318336, Note_on_c, 7, 62, 127
9, 318512, Note_on_c, 7, 62, 0
9, 318528, Note_on_c, 7, 60, 127
9, 318708, Note_on_c, 7, 60, 0
9, 318708, Note_on_c, 7, 55, 0
9, 318720, Note_on_c, 7, 55, 127
9, 318720, Note_on_c, 7, 60, 127
9, 318904, Note_on_c, 7, 60, 0
9, 318912, Note_on_c, 7, 58, 127
9, 319088, Note_on_c, 7, 55, 0
9, 319104, Note_on_c, 7, 50, 127
9, 319188, Note_on_c, 7, 58, 0
9, 319284, Note_on_c, 7, 50, 0
9, 319296, Note_on_c, 7, 55, 125
9, 319372, Note_on_c, 7, 55, 0
9, 319488, Note_on_c, 7, 50, 127
9, 319488, Note_on_c, 7, 55, 127
9, 319560, Note_on_c, 7, 55, 0
9, 319564, Note_on_c, 7, 50, 0
9, 319872, Note_on_c, 7, 50, 127
9, 319872, Note_on_c, 7, 55, 127
9, 320236, Note_on_c, 7, 55, 0
9, 320240, Note_on_c, 7, 50, 0
9, 320256, Note_on_c, 7, 50, 127
9, 320256, Note_on_c, 7, 55, 127
9, 320428, Note_on_c, 7, 55, 0
9, 320448, Note_on_c, 7, 58, 127
9, 320612, Note_on_c, 7, 58, 0
9, 320628, Note_on_c, 7, 50, 0
9, 320640, Note_on_c, 7, 50, 127
9, 320716, Note_on_c, 7, 50, 0
9, 320832, Note_on_c, 7, 50, 125
9, 320904, Note_on_c, 7, 50, 0
9, 321024, Note_on_c, 7, 53, 127
9, 321024, Note_on_c, 7, 58, 127
9, 321392, Note_on_c, 7, 58, 0
9, 321400, Note_on_c, 7, 53, 0
9, 321408, Note_on_c, 7, 55, 127
9, 321408, Note_on_c, 7, 60, 127
9, 321484, Note_on_c, 7, 60, 0
9, 321488, Note_on_c, 7, 55, 0
9, 321792, Note_on_c, 7, 55, 127
9, 321792, Note_on_c, 7, 60, 127
9, 322160, Note_on_c, 7, 60, 0
9, 322164, Note_on_c, 7, 55, 0
9, 322176, Note_on_c, 7, 53, 117
9, 322176, Note_on_c, 7, 58, 127
9, 322244, Note_on_c, 7, 53, 0
9, 322340, Note_on_c, 7, 58, 0
9, 322368, Note_on_c, 7, 55, 127
9, 322472, Note_on_c, 7, 55, 0
9, 322560, Note_on_c, 7, 55, 127
9, 322560, Note_on_c, 7, 62, 127
9, 322620, Note_on_c, 7, 55, 0
9, 322640, Note_on_c, 7, 62, 0
9, 322944, Note_on_c, 7, 55, 127
9, 322944, Note_on_c, 7, 62, 127
9, 323308, Note_on_c, 7, 62, 0
9, 323316, Note_on_c, 7, 55, 0
9, 323328, Note_on_c, 7, 55, 127
9, 323328, Note_on_c, 7, 62, 127
9, 323508, Note_on_c, 7, 62, 0
9, 323520, Note_on_c, 7, 60, 127
9, 323696, Note_on_c, 7, 55, 0
9, 323704, Note_on_c, 7, 60, 0
9, 323712, Note_on_c, 7, 55, 127
9, 323712, Note_on_c, 7, 62, 127
9, 323892, Note_on_c, 7, 62, 0
9, 323904, Note_on_c, 7, 62, 127
9, 324084, Note_on_c, 7, 62, 0
9, 324084, Note_on_c, 7, 55, 0
9, 324096, Note_on_c, 7, 55, 127
9, 324096, Note_on_c, 7, 62, 127
9, 324276, Note_on_c, 7, 62, 0
9, 324288, Note_on_c, 7, 67, 127
9, 324464, Note_on_c, 7, 55, 0
9, 324476, Note_on_c, 7, 67, 0
9, 324480, Note_on_c, 7, 55, 127
9, 324480, Note_on_c, 7, 60, 127
9, 324656, Note_on_c, 7, 60, 0
9, 324672, Note_on_c, 7, 62, 127
9, 324852, Note_on_c, 7, 55, 0
9, 324856, Note_on_c, 7, 62, 0
9, 324864, Note_on_c, 7, 55, 127
9, 324864, Note_on_c, 7, 60, 127
9, 325048, Note_on_c, 7, 60, 0
9, 325056, Note_on_c, 7, 58, 126
9, 325232, Note_on_c, 7, 55, 0
9, 325236, Note_on_c, 7, 58, 0
9, 325248, Note_on_c, 7, 55, 127
9, 325356, Note_on_c, 7, 55, 0
9, 325440, Note_on_c, 7, 55, 127
9, 325536, Note_on_c, 7, 55, 0
9, 325632, Note_on_c, 7, 50, 127
9, 325632, Note_on_c, 7, 55, 127
9, 325708, Note_on_c, 7, 55, 0
9, 325708, Note_on_c, 7, 50, 0
9, 326016, Note_on_c, 7, 50, 127
9, 326016, Note_on_c, 7, 55, 127
9, 326576, Note_on_c, 7, 55, 0
9, 326592, Note_on_c, 7, 58, 127
9, 326772, Note_on_c, 7, 50, 0
9, 326776, Note_on_c, 7, 58, 0
9, 326784, Note_on_c, 7, 55, 127
9, 326964, Note_on_c, 7, 55, 0
9, 326976, Note_on_c, 7, 50, 124
9, 327056, Note_on_c, 7, 50, 0
9, 327168, Note_on_c, 7, 48, 127
9, 327168, Note_on_c, 7, 53, 127
9, 327536, Note_on_c, 7, 48, 0
9, 327540, Note_on_c, 7, 53, 0
9, 327552, Note_on_c, 7, 50, 127
9, 327552, Note_on_c, 7, 55, 127
9, 327628, Note_on_c, 7, 55, 0
9, 327632, Note_on_c, 7, 50, 0
9, 327936, Note_on_c, 7, 50, 127
9, 327936, Note_on_c, 7, 55, 127
9, 328656, Note_on_c, 7, 55, 0
9, 328660, Note_on_c, 7, 50, 0
9, 328704, Note_on_c, 7, 55, 127
9, 328704, Note_on_c, 7, 62, 127
9, 328788, Note_on_c, 7, 62, 0
9, 328788, Note_on_c, 7, 55, 0
9, 329088, Note_on_c, 7, 55, 127
9, 329088, Note_on_c, 7, 62, 127
9, 329464, Note_on_c, 7, 62, 0
9, 329464, Note_on_c, 7, 55, 0
9, 329472, Note_on_c, 7, 55, 127
9, 329472, Note_on_c, 7, 62, 127
9, 329652, Note_on_c, 7, 62, 0
9, 329664, Note_on_c, 7, 60, 127
9, 329844, Note_on_c, 7, 55, 0
9, 329852, Note_on_c, 7, 60, 0
9, 329856, Note_on_c, 7, 55, 127
9, 329856, Note_on_c, 7, 62, 127
9, 330040, Note_on_c, 7, 62, 0
9, 330048, Note_on_c, 7, 65, 127
9, 330228, Note_on_c, 7, 65, 0
9, 330228, Note_on_c, 7, 55, 0
9, 330240, Note_on_c, 7, 55, 127
9, 330240, Note_on_c, 7, 65, 127
9, 330608, Note_on_c, 7, 55, 0
9, 330612, Note_on_c, 7, 65, 0
9, 330624, Note_on_c, 7, 55, 127
9, 330624, Note_on_c, 7, 62, 127
9, 330800, Note_on_c, 7, 62, 0
9, 330816, Note_on_c, 7, 60, 127
9, 330996, Note_on_c, 7, 60, 0
9, 330996, Note_on_c, 7, 55, 0
9, 331008, Note_on_c, 7, 55, 127
9, 331008, Note_on_c, 7, 60, 127
9, 331192, Note_on_c, 7, 60, 0
9, 331200, Note_on_c, 7, 58, 127
9, 331376, Note_on_c, 7, 55, 0
9, 331392, Note_on_c, 7, 50, 127
9, 331476, Note_on_c, 7, 58, 0
9, 331572, Note_on_c, 7, 50, 0
9, 331584, Note_on_c, 7, 55, 125
9, 331660, Note_on_c, 7, 55, 0
9, 331776, Note_on_c, 7, 50, 127
9, 331776, Note_on_c, 7, 55, 127
9, 331848, Note_on_c, 7, 55, 0
9, 331852, Note_on_c, 7, 50, 0
9, 332160, Note_on_c, 7, 50, 127
9, 332160, Note_on_c, 7, 55, 127
9, 332524, Note_on_c, 7, 55, 0
9, 332528, Note_on_c, 7, 50, 0
9, 332544, Note_on_c, 7, 50, 127
9, 332544, Note_on_c, 7, 55, 127
9, 332716, Note_on_c, 7, 55, 0
9, 332736, Note_on_c, 7, 58, 127
9, 332900, Note_on_c, 7, 58, 0
9, 332916, Note_on_c, 7, 50, 0
9, 332928, Note_on_c, 7, 50, 127
9, 333004, Note_on_c, 7, 50, 0
9, 333120, Note_on_c, 7, 50, 125
9, 333192, Note_on_c, 7, 50, 0
9, 333312, Note_on_c, 7, 53, 127
9, 333312, Note_on_c, 7, 58, 127
9, 333680, Note_on_c, 7, 58, 0
9, 333688, Note_on_c, 7, 53, 0
9, 333696, Note_on_c, 7, 55, 127
9, 333696, Note_on_c, 7, 60, 127
9, 333772, Note_on_c, 7, 60, 0
9, 333776, Note_on_c, 7, 55, 0
9, 334080, Note_on_c, 7, 55, 127
9, 334080, Note_on_c, 7, 60, 127
9, 334448, Note_on_c, 7, 60, 0
9, 334452, Note_on_c, 7, 55, 0
9, 334464, Note_on_c, 7, 53, 117
9, 334464, Note_on_c, 7, 58, 127
9, 334532, Note_on_c, 7, 53, 0
9, 334628, Note_on_c, 7, 58, 0
9, 334656, Note_on_c, 7, 55, 127
9, 334760, Note_on_c, 7, 55, 0
9, 334848, Note_on_c, 7, 55, 127
9, 334848, Note_on_c, 7, 62, 127
9, 334908, Note_on_c, 7, 55, 0
9, 334928, Note_on_c, 7, 62, 0
9, 335232, Note_on_c, 7, 55, 127
9, 335232, Note_on_c, 7, 62, 127
9, 335596, Note_on_c, 7, 62, 0
9, 335604, Note_on_c, 7, 55, 0
9, 335616, Note_on_c, 7, 55, 127
9, 335616, Note_on_c, 7, 62, 127
9, 335796, Note_on_c, 7, 62, 0
9, 335808, Note_on_c, 7, 60, 127
9, 335984, Note_on_c, 7, 55, 0
9, 335992, Note_on_c, 7, 60, 0
9, 336000, Note_on_c, 7, 55, 127
9, 336000, Note_on_c, 7, 62, 127
9, 336180, Note_on_c, 7, 62, 0
9, 336192, Note_on_c, 7, 62, 127
9, 336372, Note_on_c, 7, 62, 0
9, 336372, Note_on_c, 7, 55, 0
9, 336384, Note_on_c, 7, 55, 127
9, 336384, Note_on_c, 7, 62, 127
9, 336564, Note_on_c, 7, 62, 0
9, 336576, Note_on_c, 7, 67, 127
9, 336752, Note_on_c, 7, 55, 0
9, 336764, Note_on_c, 7, 67, 0
9, 336768, Note_on_c, 7, 55, 127
9, 336768, Note_on_c, 7, 60, 127
9, 336944, Note_on_c, 7, 60, 0
9, 336960, Note_on_c, 7, 62, 127
9, 337140, Note_on_c, 7, 55, 0
9, 337144, Note_on_c, 7, 62, 0
9, 337152, Note_on_c, 7, 55, 127
9, 337152, Note_on_c, 7, 60, 127
9, 337336, Note_on_c, 7, 60, 0
9, 337344, Note_on_c, 7, 58, 126
9, 337520, Note_on_c, 7, 55, 0
9, 337524, Note_on_c, 7, 58, 0
9, 337536, Note_on_c, 7, 55, 127
9, 337644, Note_on_c, 7, 55, 0
9, 337728, Note_on_c, 7, 55, 127
9, 337824, Note_on_c, 7, 55, 0
9, 337920, Note_on_c, 7, 50, 127
9, 337920, Note_on_c, 7, 55, 127
9, 337996, Note_on_c, 7, 55, 0
9, 337996, Note_on_c, 7, 50, 0
9, 338304, Note_on_c, 7, 50, 127
9, 338304, Note_on_c, 7, 55, 127
9, 338864, Note_on_c, 7, 55, 0
9, 338880, Note_on_c, 7, 58, 127
9, 339060, Note_on_c, 7, 50, 0
9, 339064, Note_on_c, 7, 58, 0
9, 339072, Note_on_c, 7, 55, 127
9, 339252, Note_on_c, 7, 55, 0
9, 339264, Note_on_c, 7, 50, 124
9, 339344, Note_on_c, 7, 50, 0
9, 339456, Note_on_c, 7, 48, 127
9, 339456, Note_on_c, 7, 53, 127
9, 339824, Note_on_c, 7, 48, 0
9, 339828, Note_on_c, 7, 53, 0
9, 339840, Note_on_c, 7, 50, 127
9, 339840, Note_on_c, 7, 55, 127
9, 339916, Note_on_c, 7, 55, 0
9, 339920, Note_on_c, 7, 50, 0
9, 340224, Note_on_c, 7, 50, 127
9, 340224, Note_on_c, 7, 55, 127
9, 340944, Note_on_c, 7, 55, 0
9, 340948, Note_on_c, 7, 50, 0
9, 340992, Note_on_c, 7, 55, 127
9, 340992, Note_on_c, 7, 62, 127
9, 341076, Note_on_c, 7, 62, 0
9, 341076, Note_on_c, 7, 55, 0
9, 341376, Note_on_c, 7, 55, 127
9, 341376, Note_on_c, 7, 62, 127
9, 341752, Note_on_c, 7, 62, 0
9, 341752, Note_on_c, 7, 55, 0
9, 341760, Note_on_c, 7, 55, 127
9, 341760, Note_on_c, 7, 62, 127
9, 341940, Note_on_c, 7, 62, 0
9, 341952, Note_on_c, 7, 60, 127
9, 342132, Note_on_c, 7, 55, 0
9, 342140, Note_on_c, 7, 60, 0
9, 342144, Note_on_c, 7, 55, 127
9, 342144, Note_on_c, 7, 62, 127
9, 342328, Note_on_c, 7, 62, 0
9, 342336, Note_on_c, 7, 65, 127
9, 342516, Note_on_c, 7, 65, 0
9, 342516, Note_on_c, 7, 55, 0
9, 342528, Note_on_c, 7, 55, 127
9, 342528, Note_on_c, 7, 65, 127
9, 342896, Note_on_c, 7, 55, 0
9, 342900, Note_on_c, 7, 65, 0
9, 342912, Note_on_c, 7, 55, 127
9, 342912, Note_on_c, 7, 62, 127
9, 343088, Note_on_c, 7, 62, 0
9, 343104, Note_on_c, 7, 60, 127
9, 343284, Note_on_c, 7, 60, 0
9, 343284, Note_on_c, 7, 55, 0
9, 343296, Note_on_c, 7, 55, 127
9, 343296, Note_on_c, 7, 60, 127
9, 343480, Note_on_c, 7, 60, 0
9, 343488, Note_on_c, 7, 58, 127
9, 343664, Note_on_c, 7, 55, 0
9, 343680, Note_on_c, 7, 50, 127
9, 343764, Note_on_c, 7, 58, 0
9, 343860, Note_on_c, 7, 50, 0
9, 343872, Note_on_c, 7, 55, 125
9, 343948, Note_on_c, 7, 55, 0
9, 344064, Note_on_c, 7, 50, 127
9, 344064, Note_on_c, 7, 55, 127
9, 344136, Note_on_c, 7, 55, 0
9, 344140, Note_on_c, 7, 50, 0
9, 344448, Note_on_c, 7, 50, 127
9, 344448, Note_on_c, 7, 55, 127
9, 344812, Note_on_c, 7, 55, 0
9, 344816, Note_on_c, 7, 50, 0
9, 344832, Note_on_c, 7, 50, 127
9, 344832, Note_on_c, 7, 55, 127
9, 345004, Note_on_c, 7, 55, 0
9, 345024, Note_on_c, 7, 58, 127
9, 345188, Note_on_c, 7, 58, 0
9, 345204, Note_on_c, 7, 50, 0
9, 345216, Note_on_c, 7, 50, 127
9, 345292, Note_on_c, 7, 50, 0
9, 345408, Note_on_c, 7, 50, 125
9, 345480, Note_on_c, 7, 50, 0
9, 345600, Note_on_c, 7, 53, 127
9, 345600, Note_on_c, 7, 58, 127
9, 345968, Note_on_c, 7, 58, 0
9, 345976, Note_on_c, 7, 53, 0
9, 345984, Note_on_c, 7, 55, 127
9, 345984, Note_on_c, 7, 60, 127
9, 346060, Note_on_c, 7, 60, 0
9, 346064, Note_on_c, 7, 55, 0
9, 346368, Note_on_c, 7, 55, 127
9, 346368, Note_on_c, 7, 60, 127
9, 346736, Note_on_c, 7, 60, 0
9, 346740, Note_on_c, 7, 55, 0
9, 346752, Note_on_c, 7, 53, 117
9, 346752, Note_on_c, 7, 58, 127
9, 346820, Note_on_c, 7, 53, 0
9, 346916, Note_on_c, 7, 58, 0
9, 346944, Note_on_c, 7, 55, 127
9, 347048, Note_on_c, 7, 55, 0
9, 347500, Pitch_bend_c, 7, 15342
9, 347516, Pitch_bend_c, 7, 4731
9, 347532, Note_on_c, 7, 55, 127
9, 347532, Note_on_c, 7, 65, 127
9, 347536, Pitch_bend_c, 7, 5508
9, 347552, Pitch_bend_c, 7, 6567
9, 347572, Pitch_bend_c, 7, 7556
9, 347588, Pitch_bend_c, 7, 8192
9, 347900, Note_on_c, 7, 55, 0
9, 347904, Note_on_c, 7, 65, 0
9, 347916, Note_on_c, 7, 55, 127
9, 347916, Note_on_c, 7, 65, 127
9, 348084, Note_on_c, 7, 55, 0
9, 348092, Note_on_c, 7, 65, 0
9, 348108, Note_on_c, 7, 55, 127
9, 348108, Note_on_c, 7, 65, 127
9, 348284, Note_on_c, 7, 65, 0
9, 348288, Note_on_c, 7, 55, 0
9, 348492, Note_on_c, 7, 55, 127
9, 348492, Note_on_c, 7, 65, 127
9, 348676, Note_on_c, 7, 65, 0
9, 348680, Note_on_c, 7, 55, 0
9, 348876, Note_on_c, 7, 55, 127
9, 348876, Note_on_c, 7, 65, 127
9, 349252, Note_on_c, 7, 65, 0
9, 349252, Note_on_c, 7, 55, 0
9, 349260, Note_on_c, 7, 60, 127
9, 349640, Note_on_c, 7, 60, 0
9, 349644, Note_on_c, 7, 58, 127
9, 349828, Note_on_c, 7, 58, 0
9, 349836, Note_on_c, 7, 55, 127
9, 350016, Note_on_c, 7, 55, 0
9, 350028, Note_on_c, 7, 53, 127
9, 350208, Note_on_c, 7, 50, 127
9, 350208, Note_on_c, 7, 55, 127
9, 350216, Note_on_c, 7, 53, 0
9, 350284, Note_on_c, 7, 55, 0
9, 350284, Note_on_c, 7, 50, 0
9, 350592, Note_on_c, 7, 50, 127
9, 350592, Note_on_c, 7, 55, 127
9, 351152, Note_on_c, 7, 55, 0
9, 351168, Note_on_c, 7, 58, 127
9, 351348, Note_on_c, 7, 50, 0
9, 351352, Note_on_c, 7, 58, 0
9, 351360, Note_on_c, 7, 55, 127
9, 351540, Note_on_c, 7, 55, 0
9, 351552, Note_on_c, 7, 50, 124
9, 351632, Note_on_c, 7, 50, 0
9, 351744, Note_on_c, 7, 48, 127
9, 351744, Note_on_c, 7, 53, 127
9, 352112, Note_on_c, 7, 48, 0
9, 352116, Note_on_c, 7, 53, 0
9, 352128, Note_on_c, 7, 50, 127
9, 352128, Note_on_c, 7, 55, 127
9, 352204, Note_on_c, 7, 55, 0
9, 352208, Note_on_c, 7, 50, 0
9, 352512, Note_on_c, 7, 50, 127
9, 352512, Note_on_c, 7, 55, 127
9, 353232, Note_on_c, 7, 55, 0
9, 353236, Note_on_c, 7, 50, 0
9, 353280, Note_on_c, 7, 55, 127
9, 353280, Note_on_c, 7, 62, 127
9, 353280, Note_on_c, 7, 67, 127
9, 353280, Note_on_c, 7, 74, 127
9, 353364, Note_on_c, 7, 62, 0
9, 353364, Note_on_c, 7, 55, 0
9, 353652, Note_on_c, 7, 74, 0
9, 353656, Note_on_c, 7, 67, 0
9, 353664, Note_on_c, 7, 55, 127
9, 353664, Note_on_c, 7, 55, 127
9, 353664, Note_on_c, 7, 62, 127
9, 353664, Note_on_c, 7, 62, 127
9, 354040, Note_on_c, 7, 62, 0
9, 354040, Note_on_c, 7, 55, 0
9, 354048, Note_on_c, 7, 55, 127
9, 354048, Note_on_c, 7, 62, 127
9, 354228, Note_on_c, 7, 62, 0
9, 354240, Note_on_c, 7, 60, 127
9, 354420, Note_on_c, 7, 55, 0
9, 354428, Note_on_c, 7, 60, 0
9, 354432, Note_on_c, 7, 55, 127
9, 354432, Note_on_c, 7, 62, 127
9, 354616, Note_on_c, 7, 62, 0
9, 354624, Note_on_c, 7, 65, 127
9, 354796, Note_on_c, 7, 55, 0
9, 354804, Note_on_c, 7, 65, 0
9, 354816, Note_on_c, 7, 55, 0
9, 354816, Note_on_c, 7, 50, 127
9, 354816, Note_on_c, 7, 55, 127
9, 354816, Note_on_c, 7, 55, 127
9, 354816, Note_on_c, 7, 65, 127
9, 355184, Note_on_c, 7, 55, 0
9, 355188, Note_on_c, 7, 50, 0
9, 355188, Note_on_c, 7, 65, 0
9, 355200, Note_on_c, 7, 55, 0
9, 355200, Note_on_c, 7, 62, 0
9, 355200, Note_on_c, 7, 55, 127
9, 355200, Note_on_c, 7, 55, 127
9, 355200, Note_on_c, 7, 62, 127
9, 355200, Note_on_c, 7, 62, 127
9, 355368, Note_on_c, 7, 55, 0
9, 355376, Note_on_c, 7, 62, 0
9, 355392, Note_on_c, 7, 55, 127
9, 355392, Note_on_c, 7, 60, 127
9, 355392, Note_on_c, 7, 62, 127
9, 355572, Note_on_c, 7, 60, 0
9, 355572, Note_on_c, 7, 55, 0
9, 355584, Note_on_c, 7, 55, 127
9, 355584, Note_on_c, 7, 60, 127
9, 355768, Note_on_c, 7, 60, 0
9, 355776, Note_on_c, 7, 58, 127
9, 355952, Note_on_c, 7, 55, 0
9, 355968, Note_on_c, 7, 50, 127
9, 356052, Note_on_c, 7, 58, 0
9, 356148, Note_on_c, 7, 50, 0
9, 356152, Note_on_c, 7, 62, 0
9, 356160, Note_on_c, 7, 55, 0
9, 356160, Note_on_c, 7, 50, 127
9, 356160, Note_on_c, 7, 55, 127
9, 356160, Note_on_c, 7, 55, 125
9, 356236, Note_on_c, 7, 55, 0
9, 356352, Note_on_c, 7, 50, 0
9, 356352, Note_on_c, 7, 50, 127
9, 356352, Note_on_c, 7, 55, 127
9, 356424, Note_on_c, 7, 55, 0
9, 356428, Note_on_c, 7, 50, 0
9, 356736, Note_on_c, 7, 55, 0
9, 356736, Note_on_c, 7, 50, 127
9, 356736, Note_on_c, 7, 55, 127
9, 356736, Note_on_c, 7, 55, 127
9, 356736, Note_on_c, 7, 62, 127
9, 356904, Note_on_c, 7, 55, 0
9, 356912, Note_on_c, 7, 62, 0
9, 356928, Note_on_c, 7, 55, 127
9, 356928, Note_on_c, 7, 62, 127
9, 357100, Note_on_c, 7, 55, 0
9, 357104, Note_on_c, 7, 50, 0
9, 357120, Note_on_c, 7, 50, 127
9, 357120, Note_on_c, 7, 55, 127
9, 357292, Note_on_c, 7, 55, 0
9, 357312, Note_on_c, 7, 58, 127
9, 357476, Note_on_c, 7, 58, 0
9, 357492, Note_on_c, 7, 50, 0
9, 357504, Note_on_c, 7, 50, 127
9, 357580, Note_on_c, 7, 50, 0
9, 357696, Note_on_c, 7, 50, 125
9, 357768, Note_on_c, 7, 50, 0
9, 357864, Note_on_c, 7, 62, 0
9, 357888, Note_on_c, 7, 53, 127
9, 357888, Note_on_c, 7, 58, 127
9, 358256, Note_on_c, 7, 58, 0
9, 358264, Note_on_c, 7, 53, 0
9, 358272, Note_on_c, 7, 55, 127
9, 358272, Note_on_c, 7, 60, 127
9, 358348, Note_on_c, 7, 60, 0
9, 358352, Note_on_c, 7, 55, 0
9, 358656, Note_on_c, 7, 55, 127
9, 358656, Note_on_c, 7, 60, 127
9, 359024, Note_on_c, 7, 60, 0
9, 359028, Note_on_c, 7, 55, 0
9, 359040, Note_on_c, 7, 53, 117
9, 359040, Note_on_c, 7, 58, 127
9, 359108, Note_on_c, 7, 53, 0
9, 359204, Note_on_c, 7, 58, 0
9, 359232, Note_on_c, 7, 55, 127
9, 359336, Note_on_c, 7, 55, 0
9, 359424, Note_on_c, 7, 55, 127
9, 359424, Note_on_c, 7, 62, 127
9, 359484, Note_on_c, 7, 55, 0
9, 359504, Note_on_c, 7, 62, 0
9, 359808, Note_on_c, 7, 55, 127
9, 359808, Note_on_c, 7, 62, 127
9, 360172, Note_on_c, 7, 62, 0
9, 360180, Note_on_c, 7, 55, 0
9, 360192, Note_on_c, 7, 55, 127
9, 360192, Note_on_c, 7, 62, 127
9, 360372, Note_on_c, 7, 62, 0
9, 360384, Note_on_c, 7, 60, 127
9, 360560, Note_on_c, 7, 55, 0
9, 360568, Note_on_c, 7, 60, 0
9, 360576, Note_on_c, 7, 55, 127
9, 360576, Note_on_c, 7, 62, 127
9, 360756, Note_on_c, 7, 62, 0
9, 360768, Note_on_c, 7, 62, 127
9, 360948, Note_on_c, 7, 62, 0
9, 360948, Note_on_c, 7, 55, 0
9, 360960, Note_on_c, 7, 55, 127
9, 360960, Note_on_c, 7, 62, 127
9, 361140, Note_on_c, 7, 62, 0
9, 361152, Note_on_c, 7, 67, 127
9, 361328, Note_on_c, 7, 55, 0
9, 361340, Note_on_c, 7, 67, 0
9, 361344, Note_on_c, 7, 55, 127
9, 361344, Note_on_c, 7, 60, 127
9, 361520, Note_on_c, 7, 60, 0
9, 361536, Note_on_c, 7, 62, 127
9, 361716, Note_on_c, 7, 55, 0
9, 361720, Note_on_c, 7, 62, 0
9, 361728, Note_on_c, 7, 55, 127
9, 361728, Note_on_c, 7, 60, 127
9, 361912, Note_on_c, 7, 60, 0
9, 361920, Note_on_c, 7, 58, 126
9, 362096, Note_on_c, 7, 55, 0
9, 362100, Note_on_c, 7, 58, 0
9, 362112, Note_on_c, 7, 55, 127
9, 362220, Note_on_c, 7, 55, 0
9, 362304, Note_on_c, 7, 55, 127
9, 362400, Note_on_c, 7, 55, 0
9, 362496, Note_on_c, 7, 50, 127
9, 362496, Note_on_c, 7, 55, 127
9, 362860, Note_on_c, 7, 55, 0
9, 362868, Note_on_c, 7, 50, 0
9, 362880, Note_on_c, 7, 53, 127
9, 362880, Note_on_c, 7, 58, 127
9, 363056, Note_on_c, 7, 53, 0
9, 363064, Note_on_c, 7, 58, 0
9, 363072, Note_on_c, 7, 52, 127
9, 363072, Note_on_c, 7, 57, 127
9, 363256, Note_on_c, 7, 57, 0
9, 363260, Note_on_c, 7, 52, 0
9, 363264, Note_on_c, 7, 53, 127
9, 363264, Note_on_c, 7, 58, 127
9, 363444, Note_on_c, 7, 53, 0
9, 363452, Note_on_c, 7, 58, 0
9, 363456, Note_on_c, 7, 52, 127
9, 363456, Note_on_c, 7, 57, 127
9, 363632, Note_on_c, 7, 52, 0
9, 363636, Note_on_c, 7, 57, 0
9, 363648, Note_on_c, 7, 50, 127
9, 363648, Note_on_c, 7, 55, 127
9, 364000, Note_on_c, 7, 55, 0
9, 364008, Note_on_c, 7, 50, 0
9, 364032, Note_on_c, 7, 48, 127
9, 364032, Note_on_c, 7, 53, 127
9, 364400, Note_on_c, 7, 48, 0
9, 364404, Note_on_c, 7, 53, 0
9, 364416, Note_on_c, 7, 50, 127
9, 364416, Note_on_c, 7, 55, 127
9, 364492, Note_on_c, 7, 55, 0
9, 364496, Note_on_c, 7, 50, 0
9, 364800, Note_on_c, 7, 50, 127
9, 364800, Note_on_c, 7, 55, 127
9, 365520, Note_on_c, 7, 55, 0
9, 365524, Note_on_c, 7, 50, 0
9, 365568, Note_on_c, 7, 55, 127
9, 365568, Note_on_c, 7, 62, 127
9, 365652, Note_on_c, 7, 62, 0
9, 365652, Note_on_c, 7, 55, 0
9, 365952, Note_on_c, 7, 55, 127
9, 365952, Note_on_c, 7, 62, 127
9, 366328, Note_on_c, 7, 62, 0
9, 366328, Note_on_c, 7, 55, 0
9, 366336, Note_on_c, 7, 55, 127
9, 366336, Note_on_c, 7, 62, 127
9, 366516, Note_on_c, 7, 62, 0
9, 366528, Note_on_c, 7, 60, 127
9, 366708, Note_on_c, 7, 55, 0
9, 366716, Note_on_c, 7, 60, 0
9, 366720, Note_on_c, 7, 55, 127
9, 366720, Note_on_c, 7, 62, 127
9, 366904, Note_on_c, 7, 62, 0
9, 366912, Note_on_c, 7, 65, 127
9, 367092, Note_on_c, 7, 65, 0
9, 367092, Note_on_c, 7, 55, 0
9, 367104, Note_on_c, 7, 55, 127
9, 367104, Note_on_c, 7, 65, 127
9, 367472, Note_on_c, 7, 55, 0
9, 367476, Note_on_c, 7, 65, 0
9, 367488, Note_on_c, 7, 55, 127
9, 367488, Note_on_c, 7, 62, 127
9, 367664, Note_on_c, 7, 62, 0
9, 367680, Note_on_c, 7, 60, 127
9, 367860, Note_on_c, 7, 60, 0
9, 367860, Note_on_c, 7, 55, 0
9, 367872, Note_on_c, 7, 55, 127
9, 367872, Note_on_c, 7, 60, 127
9, 368056, Note_on_c, 7, 60, 0
9, 368064, Note_on_c, 7, 58, 127
9, 368240, Note_on_c, 7, 55, 0
9, 368256, Note_on_c, 7, 50, 127
9, 368340, Note_on_c, 7, 58, 0
9, 368436, Note_on_c, 7, 50, 0
9, 368448, Note_on_c, 7, 55, 125
9, 368524, Note_on_c, 7, 55, 0
9, 368640, Note_on_c, 7, 50, 127
9, 368640, Note_on_c, 7, 55, 127
9, 368712, Note_on_c, 7, 55, 0
9, 368716, Note_on_c, 7, 50, 0
9, 369024, Note_on_c, 7, 50, 127
9, 369024, Note_on_c, 7, 55, 127
9, 369388, Note_on_c, 7, 55, 0
9, 369392, Note_on_c, 7, 50, 0
9, 369408, Note_on_c, 7, 50, 127
9, 369408, Note_on_c, 7, 55, 127
9, 369580, Note_on_c, 7, 55, 0
9, 369600, Note_on_c, 7, 58, 127
9, 369764, Note_on_c, 7, 58, 0
9, 369780, Note_on_c, 7, 50, 0
9, 369792, Note_on_c, 7, 50, 127
9, 369868, Note_on_c, 7, 50, 0
9, 369984, Note_on_c, 7, 50, 125
9, 370056, Note_on_c, 7, 50, 0
9, 370176, Note_on_c, 7, 53, 127
9, 370176, Note_on_c, 7, 58, 127
9, 370544, Note_on_c, 7, 58, 0
9, 370552, Note_on_c, 7, 53, 0
9, 370560, Note_on_c, 7, 55, 127
9, 370560, Note_on_c, 7, 60, 127
9, 370636, Note_on_c, 7, 60, 0
9, 370640, Note_on_c, 7, 55, 0
9, 370944, Note_on_c, 7, 55, 127
9, 370944, Note_on_c, 7, 60, 127
9, 371312, Note_on_c, 7, 60, 0
9, 371316, Note_on_c, 7, 55, 0
9, 371328, Note_on_c, 7, 53, 117
9, 371328, Note_on_c, 7, 58, 127
9, 371396, Note_on_c, 7, 53, 0
9, 371492, Note_on_c, 7, 58, 0
9, 371520, Note_on_c, 7, 55, 127
9, 371624, Note_on_c, 7, 55, 0
9, 371712, Note_on_c, 7, 55, 127
9, 371712, Note_on_c, 7, 62, 127
9, 371772, Note_on_c, 7, 55, 0
9, 371792, Note_on_c, 7, 62, 0
9, 372096, Note_on_c, 7, 55, 127
9, 372096, Note_on_c, 7, 62, 127
9, 372460, Note_on_c, 7, 62, 0
9, 372468, Note_on_c, 7, 55, 0
9, 372480, Note_on_c, 7, 55, 127
9, 372480, Note_on_c, 7, 62, 127
9, 372660, Note_on_c, 7, 62, 0
9, 372672, Note_on_c, 7, 60, 127
9, 372848, Note_on_c, 7, 55, 0
9, 372856, Note_on_c, 7, 60, 0
9, 372864, Note_on_c, 7, 55, 127
9, 372864, Note_on_c, 7, 62, 127
9, 373044, Note_on_c, 7, 62, 0
9, 373056, Note_on_c, 7, 62, 127
9, 373236, Note_on_c, 7, 62, 0
9, 373236, Note_on_c, 7, 55, 0
9, 373248, Note_on_c, 7, 55, 127
9, 373248, Note_on_c, 7, 62, 127
9, 373428, Note_on_c, 7, 62, 0
9, 373440, Note_on_c, 7, 67, 127
9, 373616, Note_on_c, 7, 55, 0
9, 373628, Note_on_c, 7, 67, 0
9, 373632, Note_on_c, 7, 55, 127
9, 373632, Note_on_c, 7, 60, 127
9, 373808, Note_on_c, 7, 60, 0
9, 373824, Note_on_c, 7, 62, 127
9, 374004, Note_on_c, 7, 55, 0
9, 374008, Note_on_c, 7, 62, 0
9, 374016, Note_on_c, 7, 55, 127
9, 374016, Note_on_c, 7, 60, 127
9, 374200, Note_on_c, 7, 60, 0
9, 374208, Note_on_c, 7, 58, 126
9, 374384, Note_on_c, 7, 55, 0
9, 374388, Note_on_c, 7, 58, 0
9, 374400, Note_on_c, 7, 55, 127
9, 374508, Note_on_c, 7, 55, 0
9, 374592, Note_on_c, 7, 55, 127
9, 374688, Note_on_c, 7, 55, 0
9, 374784, Note_on_c, 7, 50, 127
9, 374784, Note_on_c, 7, 55, 127
9, 374860, Note_on_c, 7, 55, 0
9, 374860, Note_on_c, 7, 50, 0
9, 375168, Note_on_c, 7, 50, 127
9, 375168, Note_on_c, 7, 55, 127
9, 375728, Note_on_c, 7, 55, 0
9, 375744, Note_on_c, 7, 58, 127
9, 375924, Note_on_c, 7, 50, 0
9, 375928, Note_on_c, 7, 58, 0
9, 375936, Note_on_c, 7, 55, 127
9, 376116, Note_on_c, 7, 55, 0
9, 376128, Note_on_c, 7, 50, 124
9, 376208, Note_on_c, 7, 50, 0
9, 376320, Note_on_c, 7, 48, 127
9, 376320, Note_on_c, 7, 53, 127
9, 376688, Note_on_c, 7, 48, 0
9, 376692, Note_on_c, 7, 53, 0
9, 376704, Note_on_c, 7, 50, 127
9, 376704, Note_on_c, 7, 55, 127
9, 376780, Note_on_c, 7, 55, 0
9, 376784, Note_on_c, 7, 50, 0
9, 377088, Note_on_c, 7, 50, 127
9, 377088, Note_on_c, 7, 55, 127
9, 377808, Note_on_c, 7, 55, 0
9, 377812, Note_on_c, 7, 50, 0
9, 377856, Pitch_bend_c, 7, 2683
9, 377856, Note_on_c, 7, 62, 127
9, 377856, Note_on_c, 7, 65, 127
9, 377872, Pitch_bend_c, 7, 3531
9, 377888, Pitch_bend_c, 7, 4590
9, 377908, Pitch_bend_c, 7, 5296
9, 377928, Pitch_bend_c, 7, 6002
9, 377944, Pitch_bend_c, 7, 6567
9, 377964, Pitch_bend_c, 7, 7203
9, 377980, Pitch_bend_c, 7, 7627
9, 378000, Pitch_bend_c, 7, 8121
9, 378020, Pitch_bend_c, 7, 8192
9, 378548, Pitch_bend_c, 7, 8121
9, 378568, Note_on_c, 7, 65, 0
9, 378568, Pitch_bend_c, 7, 7627
9, 378576, Note_on_c, 7, 62, 0
9, 378584, Pitch_bend_c, 7, 6214
9, 378604, Pitch_bend_c, 7, 4731
9, 378620, Note_on_c, 7, 62, 127
9, 378620, Note_on_c, 7, 65, 127
9, 378620, Pitch_bend_c, 7, 3954
9, 378640, Pitch_bend_c, 7, 3601
9, 378668, Pitch_bend_c, 7, 4237
9, 378684, Pitch_bend_c, 7, 5225
9, 378704, Pitch_bend_c, 7, 6355
9, 378724, Pitch_bend_c, 7, 7344
9, 378740, Pitch_bend_c, 7, 7980
9, 378760, Pitch_bend_c, 7, 8192
9, 379252, Pitch_bend_c, 7, 8050
9, 379268, Note_on_c, 7, 65, 0
9, 379272, Pitch_bend_c, 7, 7838
9, 379288, Note_on_c, 7, 62, 0
9, 379288, Pitch_bend_c, 7, 7344
9, 379308, Pitch_bend_c, 7, 6426
9, 379324, Pitch_bend_c, 7, 5225
9, 379344, Pitch_bend_c, 7, 4237
9, 379360, Pitch_bend_c, 7, 3672
9, 379380, Pitch_bend_c, 7, 3389
9, 379388, Note_on_c, 7, 62, 127
9, 379388, Note_on_c, 7, 65, 127
9, 379408, Pitch_bend_c, 7, 4307
9, 379424, Pitch_bend_c, 7, 6002
9, 379444, Pitch_bend_c, 7, 7485
9, 379464, Pitch_bend_c, 7, 8192
9, 379696, Note_on_c, 7, 65, 0
9, 379716, Note_on_c, 7, 62, 0
9, 379776, Note_on_c, 7, 62, 127
9, 379776, Note_on_c, 7, 65, 127
9, 380120, Note_on_c, 7, 62, 0
9, 380132, Note_on_c, 7, 65, 0
9, 380160, Note_on_c, 7, 60, 127
9, 380332, Note_on_c, 7, 60, 0
9, 380352, Note_on_c, 7, 58, 127
9, 380528, Note_on_c, 7, 58, 0
9, 380544, Note_on_c, 7, 55, 127
9, 380724, Note_on_c, 7, 55, 0
9, 380736, Note_on_c, 7, 58, 127
9, 380856, Note_on_c, 7, 58, 0
9, 380928, Note_on_c, 7, 50, 127
9, 380928, Note_on_c, 7, 55, 127
9, 381000, Note_on_c, 7, 55, 0
9, 381004, Note_on_c, 7, 50, 0
9, 381312, Note_on_c, 7, 50, 127
9, 381312, Note_on_c, 7, 55, 127
9, 381676, Note_on_c, 7, 55, 0
9, 381680, Note_on_c, 7, 50, 0
9, 381696, Note_on_c, 7, 50, 127
9, 381696, Note_on_c, 7, 55, 127
9, 381868, Note_on_c, 7, 55, 0
9, 381888, Note_on_c, 7, 58, 127
9, 382052, Note_on_c, 7, 58, 0
9, 382068, Note_on_c, 7, 50, 0
9, 382080, Note_on_c, 7, 50, 127
9, 382156, Note_on_c, 7, 50, 0
9, 382272, Note_on_c, 7, 50, 125
9, 382344, Note_on_c, 7, 50, 0
9, 382464, Note_on_c, 7, 53, 127
9, 382464, Note_on_c, 7, 58, 127
9, 382832, Note_on_c, 7, 58, 0
9, 382840, Note_on_c, 7, 53, 0
9, 382848, Note_on_c, 7, 55, 127
9, 382848, Note_on_c, 7, 60, 127
9, 382924, Note_on_c, 7, 60, 0
9, 382928, Note_on_c, 7, 55, 0
9, 383232, Note_on_c, 7, 55, 127
9, 383232, Note_on_c, 7, 60, 127
9, 383600, Note_on_c, 7, 60, 0
9, 383604, Note_on_c, 7, 55, 0
9, 383616, Note_on_c, 7, 53, 117
9, 383616, Note_on_c, 7, 58, 127
9, 383684, Note_on_c, 7, 53, 0
9, 383780, Note_on_c, 7, 58, 0
9, 383808, Note_on_c, 7, 55, 127
9, 383912, Note_on_c, 7, 55, 0
9, 384384, Note_on_c, 7, 55, 127
9, 384384, Note_on_c, 7, 62, 127
9, 384712, Note_on_c, 7, 62, 0
9, 384716, Note_on_c, 7, 55, 0
9, 384768, Note_on_c, 7, 55, 127
9, 384768, Note_on_c, 7, 62, 127
9, 384924, Note_on_c, 7, 62, 0
9, 384960, Note_on_c, 7, 60, 127
9, 385124, Note_on_c, 7, 60, 0
9, 385152, Note_on_c, 7, 62, 127
9, 385268, Note_on_c, 7, 62, 0
9, 385344, Note_on_c, 7, 62, 127
9, 385448, Note_on_c, 7, 62, 0
9, 385448, Note_on_c, 7, 55, 0
9, 385536, Note_on_c, 7, 55, 127
9, 385536, Note_on_c, 7, 62, 127
9, 385712, Note_on_c, 7, 62, 0
9, 385728, Note_on_c, 7, 65, 127
9, 385860, Note_on_c, 7, 65, 0
9, 385920, Note_on_c, 7, 62, 127
9, 386068, Note_on_c, 7, 62, 0
9, 386112, Note_on_c, 7, 62, 127
9, 386224, Note_on_c, 7, 62, 0
9, 386240, Note_on_c, 7, 55, 0
9, 386304, Note_on_c, 7, 55, 127
9, 386304, Note_on_c, 7, 60, 127
9, 386460, Note_on_c, 7, 60, 0
9, 386496, Note_on_c, 7, 58, 127
9, 386628, Note_on_c, 7, 55, 0
9, 386668, Note_on_c, 7, 58, 0
9, 386688, Note_on_c, 7, 55, 127
9, 386828, Note_on_c, 7, 55, 0
9, 386880, Note_on_c, 7, 55, 127
9, 386988, Note_on_c, 7, 55, 0
9, 387072, Note_on_c, 7, 67, 127
9, 387256, Note_on_c, 7, 67, 0
9, 387264, Note_on_c, 7, 65, 127
9, 387348, Note_on_c, 7, 65, 0
9, 387360, Note_on_c, 7, 62, 127
9, 387452, Note_on_c, 7, 62, 0
9, 387456, Note_on_c, 7, 60, 127
9, 387636, Note_on_c, 7, 60, 0
9, 387648, Note_on_c, 7, 58, 127
9, 387824, Note_on_c, 7, 58, 0
9, 387840, Note_on_c, 7, 55, 127
9, 388520, Note_on_c, 7, 55, 0
9, 388608, Note_on_c, 7, 48, 127
9, 388608, Note_on_c, 7, 53, 127
9, 388976, Note_on_c, 7, 48, 0
9, 388980, Note_on_c, 7, 53, 0
9, 388992, Note_on_c, 7, 50, 127
9, 388992, Note_on_c, 7, 55, 127
9, 389068, Note_on_c, 7, 55, 0
9, 389072, Note_on_c, 7, 50, 0
9, 389376, Note_on_c, 7, 50, 127
9, 389376, Note_on_c, 7, 55, 127
9, 390096, Note_on_c, 7, 55, 0
9, 390100, Note_on_c, 7, 50, 0
9, 390144, Note_on_c, 7, 55, 127
9, 390144, Note_on_c, 7, 62, 127
9, 390228, Note_on_c, 7, 62, 0
9, 390228, Note_on_c, 7, 55, 0
9, 390528, Note_on_c, 7, 55, 127
9, 390528, Note_on_c, 7, 62, 127
9, 390904, Note_on_c, 7, 62, 0
9, 390904, Note_on_c, 7, 55, 0
9, 390912, Note_on_c, 7, 55, 127
9, 390912, Note_on_c, 7, 62, 127
9, 391092, Note_on_c, 7, 62, 0
9, 391104, Note_on_c, 7, 60, 127
9, 391284, Note_on_c, 7, 55, 0
9, 391292, Note_on_c, 7, 60, 0
9, 391296, Note_on_c, 7, 55, 127
9, 391296, Note_on_c, 7, 62, 127
9, 391480, Note_on_c, 7, 62, 0
9, 391488, Note_on_c, 7, 65, 127
9, 391668, Note_on_c, 7, 65, 0
9, 391668, Note_on_c, 7, 55, 0
9, 391680, Note_on_c, 7, 55, 127
9, 391680, Note_on_c, 7, 65, 127
9, 392048, Note_on_c, 7, 55, 0
9, 392052, Note_on_c, 7, 65, 0
9, 392064, Note_on_c, 7, 55, 127
9, 392064, Note_on_c, 7, 62, 127
9, 392240, Note_on_c, 7, 62, 0
9, 392256, Note_on_c, 7, 60, 127
9, 392436, Note_on_c, 7, 60, 0
9, 392436, Note_on_c, 7, 55, 0
9, 392448, Note_on_c, 7, 55, 127
9, 392448, Note_on_c, 7, 60, 127
9, 392632, Note_on_c, 7, 60, 0
9, 392640, Note_on_c, 7, 58, 127
9, 392816, Note_on_c, 7, 55, 0
9, 392832, Note_on_c, 7, 50, 127
9, 392916, Note_on_c, 7, 58, 0
9, 393012, Note_on_c, 7, 50, 0
9, 393024, Note_on_c, 7, 55, 125
9, 393100, Note_on_c, 7, 55, 0
9, 393216, Note_on_c, 7, 50, 127
9, 393216, Note_on_c, 7, 55, 127
9, 393288, Note_on_c, 7, 55, 0
9, 393292, Note_on_c, 7, 50, 0
9, 393600, Note_on_c, 7, 50, 127
9, 393600, Note_on_c, 7, 55, 127
9, 393964, Note_on_c, 7, 55, 0
9, 393968, Note_on_c, 7, 50, 0
9, 393984, Note_on_c, 7, 50, 127
9, 393984, Note_on_c, 7, 55, 127
9, 394156, Note_on_c, 7, 55, 0
9, 394176, Note_on_c, 7, 58, 127
9, 394340, Note_on_c, 7, 58, 0
9, 394356, Note_on_c, 7, 50, 0
9, 394368, Note_on_c, 7, 50, 127
9, 394444, Note_on_c, 7, 50, 0
9, 394560, Note_on_c, 7, 50, 125
9, 394632, Note_on_c, 7, 50, 0
9, 394752, Note_on_c, 7, 53, 127
9, 394752, Note_on_c, 7, 58, 127
9, 395120, Note_on_c, 7, 58, 0
9, 395128, Note_on_c, 7, 53, 0
9, 395136, Note_on_c, 7, 55, 127
9, 395136, Note_on_c, 7, 60, 127
9, 395212, Note_on_c, 7, 60, 0
9, 395216, Note_on_c, 7, 55, 0
9, 395520, Note_on_c, 7, 55, 127
9, 395520, Note_on_c, 7, 60, 127
9, 395888, Note_on_c, 7, 60, 0
9, 395892, Note_on_c, 7, 55, 0
9, 395904, Note_on_c, 7, 53, 117
9, 395904, Note_on_c, 7, 58, 127
9, 395972, Note_on_c, 7, 53, 0
9, 396068, Note_on_c, 7, 58, 0
9, 396096, Note_on_c, 7, 55, 127
9, 396200, Note_on_c, 7, 55, 0
9, 396288, Note_on_c, 7, 55, 127
9, 396288, Note_on_c, 7, 62, 127
9, 396348, Note_on_c, 7, 55, 0
9, 396368, Note_on_c, 7, 62, 0
9, 396672, Note_on_c, 7, 55, 127
9, 396672, Note_on_c, 7, 62, 127
9, 397036, Note_on_c, 7, 62, 0
9, 397044, Note_on_c, 7, 55, 0
9, 397056, Note_on_c, 7, 55, 127
9, 397056, Note_on_c, 7, 62, 127
9, 397236, Note_on_c, 7, 62, 0
9, 397248, Note_on_c, 7, 60, 127
9, 397424, Note_on_c, 7, 55, 0
9, 397432, Note_on_c, 7, 60, 0
9, 397440, Note_on_c, 7, 55, 127
9, 397440, Note_on_c, 7, 62, 127
9, 397620, Note_on_c, 7, 62, 0
9, 397632, Note_on_c, 7, 62, 127
9, 397812, Note_on_c, 7, 62, 0
9, 397812, Note_on_c, 7, 55, 0
9, 397824, Note_on_c, 7, 55, 127
9, 397824, Note_on_c, 7, 62, 127
9, 398004, Note_on_c, 7, 62, 0
9, 398016, Note_on_c, 7, 67, 127
9, 398192, Note_on_c, 7, 55, 0
9, 398204, Note_on_c, 7, 67, 0
9, 398208, Note_on_c, 7, 55, 127
9, 398208, Note_on_c, 7, 60, 127
9, 398384, Note_on_c, 7, 60, 0
9, 398400, Note_on_c, 7, 62, 127
9, 398580, Note_on_c, 7, 55, 0
9, 398584, Note_on_c, 7, 62, 0
9, 398592, Note_on_c, 7, 55, 127
9, 398592, Note_on_c, 7, 60, 127
9, 398776, Note_on_c, 7, 60, 0
9, 398784, Note_on_c, 7, 58, 126
9, 398960, Note_on_c, 7, 55, 0
9, 398964, Note_on_c, 7, 58, 0
9, 398976, Note_on_c, 7, 55, 127
9, 399084, Note_on_c, 7, 55, 0
9, 399168, Note_on_c, 7, 55, 127
9, 399264, Note_on_c, 7, 55, 0
9, 399360, Note_on_c, 7, 50, 127
9, 399360, Note_on_c, 7, 55, 127
9, 399436, Note_on_c, 7, 55, 0
9, 399436, Note_on_c, 7, 50, 0
9, 399744, Note_on_c, 7, 50, 127
9, 399744, Note_on_c, 7, 55, 127
9, 400304, Note_on_c, 7, 55, 0
9, 400320, Note_on_c, 7, 58, 127
9, 400500, Note_on_c, 7, 50, 0
9, 400504, Note_on_c, 7, 58, 0
9, 400512, Note_on_c, 7, 55, 127
9, 400692, Note_on_c, 7, 55, 0
9, 400704, Note_on_c, 7, 50, 124
9, 400784, Note_on_c, 7, 50, 0
9, 400896, Note_on_c, 7, 48, 127
9, 400896, Note_on_c, 7, 53, 127
9, 401264, Note_on_c, 7, 48, 0
9, 401268, Note_on_c, 7, 53, 0
9, 401280, Note_on_c, 7, 50, 127
9, 401280, Note_on_c, 7, 55, 127
9, 401356, Note_on_c, 7, 55, 0
9, 401360, Note_on_c, 7, 50, 0
9, 401664, Note_on_c, 7, 50, 127
9, 401664, Note_on_c, 7, 55, 127
9, 402384, Note_on_c, 7, 55, 0
9, 402388, Note_on_c, 7, 50, 0
9, 402432, Note_on_c, 7, 55, 127
9, 402432, Note_on_c, 7, 62, 127
9, 402516, Note_on_c, 7, 62, 0
9, 402516, Note_on_c, 7, 55, 0
9, 402816, Note_on_c, 7, 55, 127
9, 402816, Note_on_c, 7, 62, 127
9, 402856, Control_c, 7, 7, 125
9, 402896, Control_c, 7, 7, 124
9, 403024, Control_c, 7, 7, 123
9, 403192, Note_on_c, 7, 62, 0
9, 403192, Note_on_c, 7, 55, 0
9, 403200, Note_on_c, 7, 55, 127
9, 403200, Note_on_c, 7, 62, 127
9, 403244, Control_c, 7, 7, 122
9, 403380, Note_on_c, 7, 62, 0
9, 403392, Note_on_c, 7, 60, 127
9, 403428, Control_c, 7, 7, 121
9, 403512, Control_c, 7, 7, 120
9, 403572, Note_on_c, 7, 55, 0
9, 403580, Note_on_c, 7, 60, 0
9, 403584, Note_on_c, 7, 55, 127
9, 403584, Note_on_c, 7, 62, 127
9, 403644, Control_c, 7, 7, 119
9, 403716, Control_c, 7, 7, 118
9, 403768, Note_on_c, 7, 62, 0
9, 403776, Note_on_c, 7, 65, 127
9, 403948, Control_c, 7, 7, 116
9, 403956, Note_on_c, 7, 65, 0
9, 403956, Note_on_c, 7, 55, 0
9, 403968, Note_on_c, 7, 55, 127
9, 403968, Note_on_c, 7, 65, 127
9, 404016, Control_c, 7, 7, 115
9, 404196, Control_c, 7, 7, 114
9, 404252, Control_c, 7, 7, 113
9, 404336, Note_on_c, 7, 55, 0
9, 404340, Note_on_c, 7, 65, 0
9, 404352, Note_on_c, 7, 55, 127
9, 404352, Note_on_c, 7, 62, 127
9, 404396, Control_c, 7, 7, 112
9, 404472, Control_c, 7, 7, 111
9, 404528, Note_on_c, 7, 62, 0
9, 404544, Note_on_c, 7, 60, 127
9, 404640, Control_c, 7, 7, 110
9, 404700, Control_c, 7, 7, 109
9, 404724, Note_on_c, 7, 60, 0
9, 404724, Note_on_c, 7, 55, 0
9, 404736, Note_on_c, 7, 55, 127
9, 404736, Note_on_c, 7, 60, 127
9, 404856, Control_c, 7, 7, 107
9, 404920, Note_on_c, 7, 60, 0
9, 404928, Note_on_c, 7, 58, 127
9, 404936, Control_c, 7, 7, 106
9, 405100, Control_c, 7, 7, 105
9, 405104, Note_on_c, 7, 55, 0
9, 405120, Note_on_c, 7, 50, 127
9, 405144, Control_c, 7, 7, 104
9, 405204, Note_on_c, 7, 58, 0
9, 405300, Note_on_c, 7, 50, 0
9, 405304, Control_c, 7, 7, 103
9, 405312, Note_on_c, 7, 55, 125
9, 405364, Control_c, 7, 7, 102
9, 405388, Note_on_c, 7, 55, 0
9, 405504, Note_on_c, 7, 50, 127
9, 405504, Note_on_c, 7, 55, 127
9, 405536, Control_c, 7, 7, 101
9, 405576, Note_on_c, 7, 55, 0
9, 405580, Note_on_c, 7, 50, 0
9, 405600, Control_c, 7, 7, 100
9, 405752, Control_c, 7, 7, 98
9, 405792, Control_c, 7, 7, 97
9, 405888, Note_on_c, 7, 50, 127
9, 405888, Note_on_c, 7, 55, 127
9, 405896, Control_c, 7, 7, 96
9, 405952, Control_c, 7, 7, 95
9, 406052, Control_c, 7, 7, 94
9, 406124, Control_c, 7, 7, 93
9, 406224, Control_c, 7, 7, 92
9, 406252, Note_on_c, 7, 55, 0
9, 406256, Note_on_c, 7, 50, 0
9, 406272, Note_on_c, 7, 50, 127
9, 406272, Note_on_c, 7, 55, 127
9, 406304, Control_c, 7, 7, 91
9, 406416, Control_c, 7, 7, 89
9, 406444, Note_on_c, 7, 55, 0
9, 406464, Note_on_c, 7, 58, 127
9, 406520, Control_c, 7, 7, 88
9, 406628, Note_on_c, 7, 58, 0
9, 406644, Note_on_c, 7, 50, 0
9, 406656, Note_on_c, 7, 50, 127
9, 406688, Control_c, 7, 7, 87
9, 406732, Note_on_c, 7, 50, 0
9, 406800, Control_c, 7, 7, 86
9, 406848, Note_on_c, 7, 50, 125
9, 406916, Control_c, 7, 7, 85
9, 406920, Note_on_c, 7, 50, 0
9, 407016, Control_c, 7, 7, 84
9, 407040, Note_on_c, 7, 53, 127
9, 407040, Note_on_c, 7, 58, 127
9, 407136, Control_c, 7, 7, 83
9, 407236, Control_c, 7, 7, 82
9, 407360, Control_c, 7, 7, 80
9, 407408, Note_on_c, 7, 58, 0
9, 407416, Note_on_c, 7, 53, 0
9, 407424, Note_on_c, 7, 55, 127
9, 407424, Note_on_c, 7, 60, 127
9, 407464, Control_c, 7, 7, 79
9, 407500, Note_on_c, 7, 60, 0
9, 407504, Note_on_c, 7, 55, 0
9, 407592, Control_c, 7, 7, 78
9, 407720, Control_c, 7, 7, 77
9, 407792, Control_c, 7, 7, 76
9, 407808, Note_on_c, 7, 55, 127
9, 407808, Note_on_c, 7, 60, 127
9, 407896, Control_c, 7, 7, 75
9, 408020, Control_c, 7, 7, 74
9, 408132, Control_c, 7, 7, 73
9, 408176, Note_on_c, 7, 60, 0
9, 408180, Note_on_c, 7, 55, 0
9, 408192, Note_on_c, 7, 53, 117
9, 408192, Note_on_c, 7, 58, 127
9, 408212, Control_c, 7, 7, 71
9, 408260, Note_on_c, 7, 53, 0
9, 408324, Control_c, 7, 7, 70
9, 408356, Note_on_c, 7, 58, 0
9, 408384, Note_on_c, 7, 55, 127
9, 408404, Control_c, 7, 7, 69
9, 408488, Note_on_c, 7, 55, 0
9, 408492, Control_c, 7, 7, 68
9, 408548, Control_c, 7, 7, 67
9, 408576, Note_on_c, 7, 55, 127
9, 408576, Note_on_c, 7, 62, 127
9, 408636, Note_on_c, 7, 55, 0
9, 408656, Note_on_c, 7, 62, 0
9, 408660, Control_c, 7, 7, 66
9, 408720, Control_c, 7, 7, 65
9, 408792, Control_c, 7, 7, 64
9, 408852, Control_c, 7, 7, 62
9, 408948, Control_c, 7, 7, 61
9, 408960, Note_on_c, 7, 55, 127
9, 408960, Note_on_c, 7, 62, 127
9, 409012, Control_c, 7, 7, 60
9, 409112, Control_c, 7, 7, 59
9, 409184, Control_c, 7, 7, 58
9, 409268, Control_c, 7, 7, 57
9, 409324, Note_on_c, 7, 62, 0
9, 409332, Note_on_c, 7, 55, 0
9, 409344, Note_on_c, 7, 55, 127
9, 409344, Note_on_c, 7, 62, 127
9, 409372, Control_c, 7, 7, 56
9, 409460, Control_c, 7, 7, 55
9, 409524, Note_on_c, 7, 62, 0
9, 409536, Note_on_c, 7, 60, 127
9, 409544, Control_c, 7, 7, 53
9, 409640, Control_c, 7, 7, 52
9, 409712, Note_on_c, 7, 55, 0
9, 409720, Note_on_c, 7, 60, 0
9, 409728, Note_on_c, 7, 55, 127
9, 409728, Note_on_c, 7, 62, 127
9, 409760, Control_c, 7, 7, 51
9, 409872, Control_c, 7, 7, 50
9, 409908, Note_on_c, 7, 62, 0
9, 409920, Note_on_c, 7, 62, 127
9, 409960, Control_c, 7, 7, 49
9, 410072, Control_c, 7, 7, 48
9, 410100, Note_on_c, 7, 62, 0
9, 410100, Note_on_c, 7, 55, 0
9, 410112, Note_on_c, 7, 55, 127
9, 410112, Note_on_c, 7, 62, 127
9, 410192, Control_c, 7, 7, 47
9, 410276, Control_c, 7, 7, 46
9, 410292, Note_on_c, 7, 62, 0
9, 410304, Note_on_c, 7, 67, 127
9, 410364, Control_c, 7, 7, 44
9, 410424, Control_c, 7, 7, 43
9, 410480, Note_on_c, 7, 55, 0
9, 410492, Note_on_c, 7, 67, 0
9, 410496, Note_on_c, 7, 55, 127
9, 410496, Note_on_c, 7, 60, 127
9, 410556, Control_c, 7, 7, 42
9, 410616, Control_c, 7, 7, 41
9, 410672, Note_on_c, 7, 60, 0
9, 410688, Note_on_c, 7, 62, 0
9, 410688, Note_on_c, 7, 62, 127
9, 410716, Control_c, 7, 7, 40
9, 410816, Control_c, 7, 7, 39
9, 410868, Note_on_c, 7, 55, 0
9, 410872, Note_on_c, 7, 62, 0
9, 410880, Note_on_c, 7, 55, 127
9, 410880, Note_on_c, 7, 60, 127
9, 410972, Control_c, 7, 7, 38
9, 411060, Control_c, 7, 7, 37
9, 411064, Note_on_c, 7, 60, 0
9, 411072, Note_on_c, 7, 58, 126
9, 411200, Control_c, 7, 7, 35
9, 411248, Note_on_c, 7, 55, 0
9, 411252, Note_on_c, 7, 58, 0
9, 411264, Note_on_c, 7, 55, 127
9, 411292, Control_c, 7, 7, 34
9, 411372, Note_on_c, 7, 55, 0
9, 411456, Note_on_c, 7, 55, 0
9, 411456, Note_on_c, 7, 55, 127
9, 411488, Control_c, 7, 7, 33
9, 411552, Note_on_c, 7, 55, 0
9, 411552, Control_c, 7, 7, 32
9, 411696, Control_c, 7, 7, 31
9, 411760, Control_c, 7, 7, 30
9, 411912, Control_c, 7, 7, 29
9, 411968, Control_c, 7, 7, 28
9, 412088, Control_c, 7, 7, 26
9, 412128, Control_c, 7, 7, 25
9, 412216, Control_c, 7, 7, 24
9, 412260, Control_c, 7, 7, 23
9, 412360, Control_c, 7, 7, 22
9, 412400, Control_c, 7, 7, 21
9, 412568, Control_c, 7, 7, 20
9, 412632, Control_c, 7, 7, 19
9, 412756, Control_c, 7, 7, 17
9, 412828, Control_c, 7, 7, 16
9, 412952, Control_c, 7, 7, 15
9, 413000, Control_c, 7, 7, 14
9, 413128, Control_c, 7, 7, 13
9, 413196, Control_c, 7, 7, 12
9, 413324, Control_c, 7, 7, 11
9, 413384, Control_c, 7, 7, 10
9, 413448, Control_c, 7, 7, 8
9, 413488, Control_c, 7, 7, 7
9, 413596, Control_c, 7, 7, 6
9, 413640, Control_c, 7, 7, 5
9, 413716, Control_c, 7, 7, 4
9, 413776, Control_c, 7, 7, 3
9, 413864, Control_c, 7, 7, 2
9, 413928, Control_c, 7, 7, 1
9, 414044, Control_c, 7, 7, 0
9, 414044, End_track
10, 0, Start_track
10, 0, MIDI_port, 0
10, 0, Title_t, "Strings"
10, 0, Program_c, 8, 48
10, 0, Control_c, 8, 7, 0
10, 0, Control_c, 8, 10, 34
10, 0, Control_c, 8, 0, 0
10, 144, Control_c, 8, 101, 0
10, 144, Control_c, 8, 100, 0
10, 148, Control_c, 8, 6, 12
10, 220, Control_c, 8, 121, 127
10, 316, Control_c, 8, 0, 0
10, 316, Control_c, 8, 32, 0
10, 604, Control_c, 8, 91, 90
10, 700, Control_c, 8, 93, 40
10, 57320, Pitch_bend_c, 8, 7980
10, 57336, Pitch_bend_c, 8, 7838
10, 57356, Pitch_bend_c, 8, 7627
10, 57372, Pitch_bend_c, 8, 7415
10, 57392, Pitch_bend_c, 8, 7062
10, 57408, Pitch_bend_c, 8, 6497
10, 57428, Pitch_bend_c, 8, 6002
10, 57444, Pitch_bend_c, 8, 5649
10, 57464, Pitch_bend_c, 8, 5296
10, 57484, Pitch_bend_c, 8, 4943
10, 57500, Pitch_bend_c, 8, 4519
10, 57520, Pitch_bend_c, 8, 4166
10, 57536, Pitch_bend_c, 8, 3813
10, 57556, Pitch_bend_c, 8, 3531
10, 57572, Pitch_bend_c, 8, 3319
10, 57592, Pitch_bend_c, 8, 3036
10, 57612, Pitch_bend_c, 8, 2683
10, 57628, Pitch_bend_c, 8, 2401
10, 57648, Pitch_bend_c, 8, 2118
10, 57676, Pitch_bend_c, 8, 1836
10, 57692, Pitch_bend_c, 8, 1694
10, 57712, Pitch_bend_c, 8, 1341
10, 57728, Pitch_bend_c, 8, 1129
10, 57748, Pitch_bend_c, 8, 847
10, 57768, Pitch_bend_c, 8, 564
10, 57784, Pitch_bend_c, 8, 282
10, 57804, Pitch_bend_c, 8, 0
10, 66064, Note_on_c, 8, 70, 127
10, 66072, Note_on_c, 8, 74, 127
10, 66072, Note_on_c, 8, 67, 127
10, 66336, Control_c, 8, 7, 1
10, 66368, Control_c, 8, 7, 5
10, 66408, Control_c, 8, 7, 7
10, 66460, Control_c, 8, 7, 10
10, 66500, Control_c, 8, 7, 11
10, 66552, Control_c, 8, 7, 13
10, 66560, Pitch_bend_c, 8, 211
10, 66576, Pitch_bend_c, 8, 353
10, 66592, Control_c, 8, 7, 15
10, 66612, Pitch_bend_c, 8, 706
10, 66628, Control_c, 8, 7, 16
10, 66632, Pitch_bend_c, 8, 847
10, 66660, Pitch_bend_c, 8, 1059
10, 66680, Pitch_bend_c, 8, 1129
10, 66680, Control_c, 8, 7, 18
10, 66696, Pitch_bend_c, 8, 1200
10, 66720, Control_c, 8, 7, 19
10, 66724, Pitch_bend_c, 8, 1412
10, 66740, Pitch_bend_c, 8, 1412
10, 66756, Control_c, 8, 7, 20
10, 66780, Pitch_bend_c, 8, 1553
10, 66792, Control_c, 8, 7, 22
10, 66808, Pitch_bend_c, 8, 1624
10, 66828, Control_c, 8, 7, 23
10, 66852, Pitch_bend_c, 8, 1765
10, 66884, Control_c, 8, 7, 24
10, 66908, Pitch_bend_c, 8, 1836
10, 66920, Control_c, 8, 7, 25
10, 66924, Pitch_bend_c, 8, 1977
10, 66952, Pitch_bend_c, 8, 1977
10, 66976, Control_c, 8, 7, 26
10, 66988, Pitch_bend_c, 8, 2118
10, 67016, Pitch_bend_c, 8, 2189
10, 67028, Control_c, 8, 7, 27
10, 67036, Pitch_bend_c, 8, 2259
10, 67060, Pitch_bend_c, 8, 2401
10, 67064, Control_c, 8, 7, 29
10, 67088, Pitch_bend_c, 8, 2471
10, 67116, Pitch_bend_c, 8, 2542
10, 67120, Control_c, 8, 7, 30
10, 67144, Pitch_bend_c, 8, 2754
10, 67164, Pitch_bend_c, 8, 2754
10, 67176, Control_c, 8, 7, 32
10, 67180, Pitch_bend_c, 8, 2895
10, 67200, Pitch_bend_c, 8, 3036
10, 67216, Pitch_bend_c, 8, 3107
10, 67228, Control_c, 8, 7, 34
10, 67236, Pitch_bend_c, 8, 3177
10, 67264, Pitch_bend_c, 8, 3389
10, 67268, Control_c, 8, 7, 36
10, 67280, Pitch_bend_c, 8, 3460
10, 67300, Pitch_bend_c, 8, 3601
10, 67304, Control_c, 8, 7, 37
10, 67320, Pitch_bend_c, 8, 3672
10, 67336, Pitch_bend_c, 8, 3742
10, 67340, Control_c, 8, 7, 39
10, 67356, Pitch_bend_c, 8, 3813
10, 67372, Pitch_bend_c, 8, 3954
10, 67376, Control_c, 8, 7, 41
10, 67412, Control_c, 8, 7, 42
10, 67420, Pitch_bend_c, 8, 4096
10, 67444, Pitch_bend_c, 8, 4237
10, 67464, Pitch_bend_c, 8, 4307
10, 67468, Control_c, 8, 7, 44
10, 67500, Pitch_bend_c, 8, 4378
10, 67524, Control_c, 8, 7, 45
10, 67536, Pitch_bend_c, 8, 4519
10, 67556, Pitch_bend_c, 8, 4519
10, 67560, Control_c, 8, 7, 46
10, 67576, Pitch_bend_c, 8, 4660
10, 67616, Control_c, 8, 7, 47
10, 67620, Pitch_bend_c, 8, 4802
10, 67668, Control_c, 8, 7, 48
10, 67684, Pitch_bend_c, 8, 4872
10, 67724, Control_c, 8, 7, 49
10, 67728, Pitch_bend_c, 8, 5084
10, 67756, Pitch_bend_c, 8, 5084
10, 67780, Control_c, 8, 7, 50
10, 67812, Pitch_bend_c, 8, 5155
10, 67816, Control_c, 8, 7, 51
10, 67828, Pitch_bend_c, 8, 5225
10, 67868, Control_c, 8, 7, 52
10, 67876, Pitch_bend_c, 8, 5296
10, 67892, Pitch_bend_c, 8, 5367
10, 67908, Control_c, 8, 7, 53
10, 67912, Pitch_bend_c, 8, 5367
10, 67944, Control_c, 8, 7, 54
10, 67968, Pitch_bend_c, 8, 5367
10, 68000, Control_c, 8, 7, 55
10, 68012, Pitch_bend_c, 8, 5508
10, 68032, Pitch_bend_c, 8, 5579
10, 68036, Control_c, 8, 7, 56
10, 68056, Pitch_bend_c, 8, 5579
10, 68072, Control_c, 8, 7, 57
10, 68076, Pitch_bend_c, 8, 5649
10, 68104, Pitch_bend_c, 8, 5649
10, 68108, Control_c, 8, 7, 58
10, 68140, Pitch_bend_c, 8, 5720
10, 68144, Control_c, 8, 7, 59
10, 68180, Control_c, 8, 7, 60
10, 68188, Pitch_bend_c, 8, 5790
10, 68212, Pitch_bend_c, 8, 5861
10, 68216, Control_c, 8, 7, 61
10, 68240, Pitch_bend_c, 8, 6002
10, 68252, Control_c, 8, 7, 62
10, 68260, Pitch_bend_c, 8, 6073
10, 68288, Pitch_bend_c, 8, 6143
10, 68308, Control_c, 8, 7, 64
10, 68316, Pitch_bend_c, 8, 6285
10, 68340, Pitch_bend_c, 8, 6355
10, 68364, Control_c, 8, 7, 66
10, 68380, Pitch_bend_c, 8, 6497
10, 68396, Pitch_bend_c, 8, 6567
10, 68400, Control_c, 8, 7, 67
10, 68432, Pitch_bend_c, 8, 6708
10, 68456, Control_c, 8, 7, 69
10, 68460, Pitch_bend_c, 8, 6850
10, 68488, Pitch_bend_c, 8, 6991
10, 68504, Pitch_bend_c, 8, 7062
10, 68508, Control_c, 8, 7, 70
10, 68524, Pitch_bend_c, 8, 7132
10, 68548, Control_c, 8, 7, 71
10, 68560, Pitch_bend_c, 8, 7203
10, 68580, Pitch_bend_c, 8, 7273
10, 68584, Control_c, 8, 7, 72
10, 68596, Pitch_bend_c, 8, 7273
10, 68616, Pitch_bend_c, 8, 7415
10, 68672, Pitch_bend_c, 8, 7556
10, 68676, Control_c, 8, 7, 74
10, 68700, Pitch_bend_c, 8, 7627
10, 68712, Control_c, 8, 7, 75
10, 68732, Pitch_bend_c, 8, 7697
10, 68748, Control_c, 8, 7, 76
10, 68764, Pitch_bend_c, 8, 7768
10, 68780, Pitch_bend_c, 8, 7909
10, 68800, Control_c, 8, 7, 78
10, 68816, Pitch_bend_c, 8, 8050
10, 68844, Pitch_bend_c, 8, 8121
10, 68856, Control_c, 8, 7, 79
10, 68872, Pitch_bend_c, 8, 8192
10, 68912, Control_c, 8, 7, 80
10, 68964, Control_c, 8, 7, 81
10, 69056, Control_c, 8, 7, 82
10, 69112, Control_c, 8, 7, 83
10, 69184, Control_c, 8, 7, 84
10, 69296, Control_c, 8, 7, 85
10, 69368, Control_c, 8, 7, 86
10, 69480, Control_c, 8, 7, 87
10, 69604, Control_c, 8, 7, 88
10, 69788, Control_c, 8, 7, 89
10, 69860, Control_c, 8, 7, 90
10, 70044, Control_c, 8, 7, 91
10, 72312, Control_c, 8, 7, 92
10, 72364, Control_c, 8, 7, 93
10, 72420, Control_c, 8, 7, 94
10, 72456, Control_c, 8, 7, 95
10, 72548, Control_c, 8, 7, 96
10, 72584, Control_c, 8, 7, 97
10, 72660, Control_c, 8, 7, 99
10, 72712, Control_c, 8, 7, 100
10, 72748, Control_c, 8, 7, 101
10, 72804, Control_c, 8, 7, 102
10, 72860, Control_c, 8, 7, 103
10, 72952, Control_c, 8, 7, 104
10, 73044, Control_c, 8, 7, 105
10, 73116, Control_c, 8, 7, 106
10, 73260, Control_c, 8, 7, 107
10, 73352, Control_c, 8, 7, 108
10, 73444, Control_c, 8, 7, 109
10, 73592, Control_c, 8, 7, 110
10, 73700, Control_c, 8, 7, 111
10, 73920, Control_c, 8, 7, 112
10, 74084, Control_c, 8, 7, 113
10, 74176, Control_c, 8, 7, 114
10, 74324, Control_c, 8, 7, 115
10, 74488, Control_c, 8, 7, 116
10, 74616, Control_c, 8, 7, 117
10, 74744, Control_c, 8, 7, 118
10, 74836, Control_c, 8, 7, 119
10, 74964, Control_c, 8, 7, 120
10, 75164, Control_c, 8, 7, 121
10, 75256, Control_c, 8, 7, 122
10, 75420, Control_c, 8, 7, 123
10, 75472, Control_c, 8, 7, 124
10, 75564, Control_c, 8, 7, 125
10, 75620, Control_c, 8, 7, 126
10, 75748, Control_c, 8, 7, 127
10, 81384, Note_on_c, 8, 67, 0
10, 81384, Note_on_c, 8, 74, 0
10, 81384, Note_on_c, 8, 70, 0
10, 81384, End_track
11, 0, Start_track
11, 0, MIDI_port, 0
11, 0, Title_t, "Strings"
11, 0, Program_c, 10, 50
11, 0, Control_c, 10, 7, 50
11, 0, Control_c, 10, 10, 94
11, 0, Control_c, 10, 0, 0
11, 200, Control_c, 10, 121, 127
11, 296, Control_c, 10, 0, 127
11, 296, Control_c, 10, 32, 0
11, 584, Control_c, 10, 91, 90
11, 680, Control_c, 10, 93, 40
11, 3840, Note_on_c, 10, 31, 127
11, 3876, Control_c, 10, 7, 51
11, 3928, Control_c, 10, 7, 53
11, 4004, Control_c, 10, 7, 54
11, 4040, Control_c, 10, 7, 55
11, 4076, Control_c, 10, 7, 56
11, 4112, Control_c, 10, 7, 57
11, 4184, Control_c, 10, 7, 58
11, 4260, Control_c, 10, 7, 59
11, 4296, Control_c, 10, 7, 60
11, 4332, Control_c, 10, 7, 61
11, 4368, Control_c, 10, 7, 62
11, 4404, Control_c, 10, 7, 63
11, 4440, Control_c, 10, 7, 64
11, 4532, Control_c, 10, 7, 65
11, 4608, Control_c, 10, 7, 66
11, 4660, Control_c, 10, 7, 67
11, 4808, Control_c, 10, 7, 68
11, 4916, Control_c, 10, 7, 69
11, 4992, Control_c, 10, 7, 70
11, 5064, Control_c, 10, 7, 71
11, 5228, Control_c, 10, 7, 72
11, 5448, Control_c, 10, 7, 73
11, 5520, Control_c, 10, 7, 74
11, 5684, Control_c, 10, 7, 75
11, 5796, Control_c, 10, 7, 76
11, 5904, Control_c, 10, 7, 77
11, 6016, Control_c, 10, 7, 78
11, 6288, Control_c, 10, 7, 79
11, 6600, Control_c, 10, 7, 80
11, 7128, Control_c, 10, 7, 81
11, 26876, Note_on_c, 10, 31, 0
11, 26880, Note_on_c, 10, 32, 127
11, 43004, Note_on_c, 10, 32, 0
11, 43008, Note_on_c, 10, 27, 127
11, 58356, Note_on_c, 10, 27, 0
11, 58368, Note_on_c, 10, 31, 127
11, 63964, Control_c, 10, 7, 82
11, 64056, Control_c, 10, 7, 83
11, 64272, Control_c, 10, 7, 84
11, 64676, Control_c, 10, 7, 85
11, 65188, Control_c, 10, 7, 86
11, 65572, Control_c, 10, 7, 87
11, 65772, Control_c, 10, 7, 88
11, 65900, Control_c, 10, 7, 89
11, 66140, Control_c, 10, 7, 90
11, 66412, Control_c, 10, 7, 91
11, 66852, Control_c, 10, 7, 92
11, 67036, Control_c, 10, 7, 93
11, 67236, Control_c, 10, 7, 94
11, 67344, Control_c, 10, 7, 95
11, 67492, Control_c, 10, 7, 96
11, 67620, Control_c, 10, 7, 97
11, 67912, Control_c, 10, 7, 98
11, 68132, Control_c, 10, 7, 99
11, 68352, Control_c, 10, 7, 100
11, 68516, Control_c, 10, 7, 101
11, 68808, Control_c, 10, 7, 102
11, 69120, Control_c, 10, 7, 103
11, 69504, Control_c, 10, 7, 104
11, 69648, Control_c, 10, 7, 105
11, 69796, Control_c, 10, 7, 106
11, 69996, Control_c, 10, 7, 107
11, 70216, Control_c, 10, 7, 108
11, 70488, Control_c, 10, 7, 109
11, 70708, Control_c, 10, 7, 110
11, 70800, Control_c, 10, 7, 111
11, 71076, Control_c, 10, 7, 112
11, 71348, Control_c, 10, 7, 113
11, 71532, Control_c, 10, 7, 114
11, 71712, Control_c, 10, 7, 115
11, 71840, Control_c, 10, 7, 116
11, 71952, Control_c, 10, 7, 117
11, 72080, Control_c, 10, 7, 118
11, 72208, Control_c, 10, 7, 119
11, 72352, Control_c, 10, 7, 120
11, 72464, Control_c, 10, 7, 121
11, 72628, Control_c, 10, 7, 122
11, 72720, Control_c, 10, 7, 123
11, 72884, Control_c, 10, 7, 124
11, 72976, Control_c, 10, 7, 125
11, 73068, Control_c, 10, 7, 126
11, 73196, Control_c, 10, 7, 127
11, 82936, Note_on_c, 10, 31, 0
11, 82936, End_track
12, 0, Start_track
12, 0, MIDI_port, 0
12, 0, Title_t, "Strings"
12, 0, Program_c, 11, 49
12, 0, Control_c, 11, 7, 0
12, 0, Control_c, 11, 10, 104
12, 0, Control_c, 11, 0, 0
12, 208, Control_c, 11, 121, 127
12, 304, Control_c, 11, 0, 0
12, 304, Control_c, 11, 32, 0
12, 592, Control_c, 11, 91, 100
12, 688, Control_c, 11, 93, 50
12, 13120, Note_on_c, 11, 82, 80
12, 13136, Note_on_c, 11, 74, 79
12, 13144, Note_on_c, 11, 79, 81
12, 13324, Control_c, 11, 7, 1
12, 13396, Control_c, 11, 7, 3
12, 13432, Control_c, 11, 7, 6
12, 13468, Control_c, 11, 7, 9
12, 13504, Control_c, 11, 7, 11
12, 13540, Control_c, 11, 7, 14
12, 13596, Control_c, 11, 7, 16
12, 13632, Control_c, 11, 7, 17
12, 13668, Control_c, 11, 7, 19
12, 13704, Control_c, 11, 7, 21
12, 13760, Control_c, 11, 7, 24
12, 13796, Control_c, 11, 7, 25
12, 13852, Control_c, 11, 7, 27
12, 13888, Control_c, 11, 7, 29
12, 13924, Control_c, 11, 7, 30
12, 13960, Control_c, 11, 7, 32
12, 14016, Control_c, 11, 7, 36
12, 14052, Control_c, 11, 7, 38
12, 14108, Control_c, 11, 7, 39
12, 14144, Control_c, 11, 7, 40
12, 14180, Control_c, 11, 7, 41
12, 14216, Control_c, 11, 7, 42
12, 14256, Control_c, 11, 7, 43
12, 14292, Control_c, 11, 7, 45
12, 14328, Control_c, 11, 7, 46
12, 14384, Control_c, 11, 7, 48
12, 14436, Control_c, 11, 7, 50
12, 14472, Control_c, 11, 7, 51
12, 14508, Control_c, 11, 7, 52
12, 14548, Control_c, 11, 7, 53
12, 14584, Control_c, 11, 7, 55
12, 14640, Control_c, 11, 7, 57
12, 14692, Control_c, 11, 7, 59
12, 14728, Control_c, 11, 7, 61
12, 14784, Control_c, 11, 7, 63
12, 14820, Control_c, 11, 7, 64
12, 14856, Control_c, 11, 7, 65
12, 14912, Control_c, 11, 7, 68
12, 14948, Control_c, 11, 7, 69
12, 15004, Control_c, 11, 7, 71
12, 15040, Control_c, 11, 7, 72
12, 15076, Control_c, 11, 7, 73
12, 15112, Control_c, 11, 7, 74
12, 15148, Control_c, 11, 7, 75
12, 15204, Control_c, 11, 7, 78
12, 15260, Control_c, 11, 7, 80
12, 15296, Control_c, 11, 7, 82
12, 15332, Control_c, 11, 7, 83
12, 15404, Control_c, 11, 7, 85
12, 15460, Control_c, 11, 7, 87
12, 15496, Control_c, 11, 7, 88
12, 15532, Control_c, 11, 7, 89
12, 15572, Control_c, 11, 7, 91
12, 15624, Control_c, 11, 7, 93
12, 15680, Control_c, 11, 7, 94
12, 15808, Control_c, 11, 7, 93
12, 15880, Control_c, 11, 7, 92
12, 15936, Control_c, 11, 7, 91
12, 15972, Control_c, 11, 7, 90
12, 16008, Control_c, 11, 7, 89
12, 16064, Control_c, 11, 7, 87
12, 16120, Control_c, 11, 7, 85
12, 16172, Control_c, 11, 7, 84
12, 16212, Control_c, 11, 7, 83
12, 16264, Control_c, 11, 7, 81
12, 16300, Control_c, 11, 7, 80
12, 16356, Control_c, 11, 7, 78
12, 16412, Control_c, 11, 7, 76
12, 16448, Control_c, 11, 7, 75
12, 16484, Control_c, 11, 7, 73
12, 16540, Control_c, 11, 7, 72
12, 16576, Control_c, 11, 7, 70
12, 16612, Control_c, 11, 7, 68
12, 16668, Control_c, 11, 7, 66
12, 16704, Control_c, 11, 7, 65
12, 16760, Control_c, 11, 7, 63
12, 16812, Control_c, 11, 7, 61
12, 16868, Control_c, 11, 7, 59
12, 16904, Control_c, 11, 7, 57
12, 16940, Control_c, 11, 7, 56
12, 16980, Control_c, 11, 7, 55
12, 17016, Control_c, 11, 7, 54
12, 17052, Control_c, 11, 7, 53
12, 17104, Control_c, 11, 7, 51
12, 17144, Control_c, 11, 7, 50
12, 17180, Control_c, 11, 7, 49
12, 17236, Control_c, 11, 7, 48
12, 17272, Control_c, 11, 7, 47
12, 17324, Control_c, 11, 7, 45
12, 17400, Control_c, 11, 7, 44
12, 17436, Control_c, 11, 7, 43
12, 17472, Control_c, 11, 7, 42
12, 17508, Control_c, 11, 7, 41
12, 17544, Control_c, 11, 7, 40
12, 17580, Control_c, 11, 7, 38
12, 17636, Control_c, 11, 7, 36
12, 17672, Control_c, 11, 7, 35
12, 17708, Control_c, 11, 7, 33
12, 17748, Control_c, 11, 7, 31
12, 17784, Control_c, 11, 7, 30
12, 17836, Control_c, 11, 7, 27
12, 17872, Control_c, 11, 7, 25
12, 17928, Control_c, 11, 7, 21
12, 17964, Control_c, 11, 7, 19
12, 18000, Control_c, 11, 7, 17
12, 18056, Control_c, 11, 7, 14
12, 18112, Control_c, 11, 7, 12
12, 18148, Control_c, 11, 7, 10
12, 18204, Control_c, 11, 7, 8
12, 18256, Control_c, 11, 7, 6
12, 18296, Control_c, 11, 7, 5
12, 18332, Control_c, 11, 7, 3
12, 18368, Control_c, 11, 7, 1
12, 18404, Control_c, 11, 7, 0
12, 18888, Note_on_c, 11, 74, 0
12, 18896, Note_on_c, 11, 82, 0
12, 18916, Note_on_c, 11, 79, 0
12, 18956, Note_on_c, 11, 82, 82
12, 18968, Note_on_c, 11, 74, 80
12, 18968, Note_on_c, 11, 79, 84
12, 19056, Note_on_c, 11, 86, 82
12, 19148, Control_c, 11, 7, 2
12, 19184, Control_c, 11, 7, 4
12, 19240, Control_c, 11, 7, 7
12, 19296, Control_c, 11, 7, 9
12, 19332, Control_c, 11, 7, 11
12, 19368, Control_c, 11, 7, 14
12, 19404, Control_c, 11, 7, 16
12, 19444, Control_c, 11, 7, 18
12, 19480, Control_c, 11, 7, 21
12, 19516, Control_c, 11, 7, 23
12, 19552, Control_c, 11, 7, 24
12, 19588, Control_c, 11, 7, 26
12, 19624, Control_c, 11, 7, 28
12, 19660, Control_c, 11, 7, 29
12, 19696, Control_c, 11, 7, 30
12, 19736, Control_c, 11, 7, 32
12, 19772, Control_c, 11, 7, 34
12, 19808, Control_c, 11, 7, 35
12, 19844, Control_c, 11, 7, 36
12, 19900, Control_c, 11, 7, 37
12, 19936, Control_c, 11, 7, 38
12, 19972, Control_c, 11, 7, 39
12, 20008, Control_c, 11, 7, 40
12, 20044, Control_c, 11, 7, 41
12, 20080, Control_c, 11, 7, 42
12, 20136, Control_c, 11, 7, 44
12, 20208, Control_c, 11, 7, 45
12, 20244, Control_c, 11, 7, 46
12, 20320, Control_c, 11, 7, 47
12, 20376, Control_c, 11, 7, 48
12, 20412, Control_c, 11, 7, 49
12, 20504, Control_c, 11, 7, 51
12, 20556, Control_c, 11, 7, 52
12, 20632, Control_c, 11, 7, 54
12, 20668, Control_c, 11, 7, 55
12, 20720, Control_c, 11, 7, 56
12, 20776, Control_c, 11, 7, 58
12, 20832, Control_c, 11, 7, 59
12, 20868, Control_c, 11, 7, 60
12, 20940, Control_c, 11, 7, 61
12, 20976, Control_c, 11, 7, 62
12, 21052, Control_c, 11, 7, 63
12, 21088, Control_c, 11, 7, 64
12, 21160, Control_c, 11, 7, 65
12, 21196, Control_c, 11, 7, 66
12, 21252, Control_c, 11, 7, 67
12, 21308, Control_c, 11, 7, 68
12, 21380, Control_c, 11, 7, 69
12, 21452, Control_c, 11, 7, 70
12, 21488, Control_c, 11, 7, 71
12, 21564, Control_c, 11, 7, 72
12, 21652, Control_c, 11, 7, 73
12, 21744, Control_c, 11, 7, 74
12, 21820, Control_c, 11, 7, 75
12, 21948, Control_c, 11, 7, 76
12, 22020, Control_c, 11, 7, 77
12, 22076, Control_c, 11, 7, 78
12, 22164, Control_c, 11, 7, 79
12, 22200, Control_c, 11, 7, 80
12, 22256, Control_c, 11, 7, 81
12, 22348, Control_c, 11, 7, 82
12, 22440, Control_c, 11, 7, 83
12, 22512, Control_c, 11, 7, 84
12, 22568, Control_c, 11, 7, 85
12, 22696, Control_c, 11, 7, 86
12, 22752, Control_c, 11, 7, 87
12, 22788, Control_c, 11, 7, 88
12, 22860, Control_c, 11, 7, 89
12, 22916, Control_c, 11, 7, 90
12, 23044, Control_c, 11, 7, 91
12, 23152, Control_c, 11, 7, 92
12, 23392, Control_c, 11, 7, 93
12, 23572, Control_c, 11, 7, 94
12, 23736, Control_c, 11, 7, 95
12, 24032, Control_c, 11, 7, 96
12, 24212, Control_c, 11, 7, 97
12, 24416, Control_c, 11, 7, 98
12, 24672, Control_c, 11, 7, 99
12, 24836, Control_c, 11, 7, 100
12, 25052, Control_c, 11, 7, 101
12, 25272, Control_c, 11, 7, 102
12, 26796, Note_on_c, 11, 79, 0
12, 26968, Note_on_c, 11, 86, 0
12, 26992, Note_on_c, 11, 77, 80
12, 26992, Note_on_c, 11, 80, 81
12, 27024, Note_on_c, 11, 82, 0
12, 28712, Control_c, 11, 7, 101
12, 28840, Control_c, 11, 7, 100
12, 28984, Control_c, 11, 7, 99
12, 29112, Control_c, 11, 7, 98
12, 29204, Control_c, 11, 7, 97
12, 29260, Control_c, 11, 7, 96
12, 29352, Control_c, 11, 7, 95
12, 29476, Control_c, 11, 7, 94
12, 29552, Control_c, 11, 7, 93
12, 29680, Control_c, 11, 7, 92
12, 29788, Control_c, 11, 7, 91
12, 29860, Control_c, 11, 7, 90
12, 29900, Control_c, 11, 7, 89
12, 30008, Control_c, 11, 7, 88
12, 30156, Control_c, 11, 7, 87
12, 30208, Control_c, 11, 7, 86
12, 30320, Control_c, 11, 7, 85
12, 30392, Control_c, 11, 7, 84
12, 30464, Control_c, 11, 7, 83
12, 30520, Control_c, 11, 7, 82
12, 30576, Control_c, 11, 7, 81
12, 30664, Control_c, 11, 7, 80
12, 30740, Control_c, 11, 7, 79
12, 30776, Control_c, 11, 7, 78
12, 30848, Control_c, 11, 7, 76
12, 30924, Control_c, 11, 7, 75
12, 30996, Control_c, 11, 7, 74
12, 31068, Control_c, 11, 7, 73
12, 31180, Control_c, 11, 7, 72
12, 31268, Control_c, 11, 7, 71
12, 31304, Control_c, 11, 7, 70
12, 31396, Control_c, 11, 7, 69
12, 31472, Control_c, 11, 7, 68
12, 31524, Control_c, 11, 7, 67
12, 31580, Control_c, 11, 7, 66
12, 31616, Control_c, 11, 7, 65
12, 31728, Control_c, 11, 7, 64
12, 31780, Control_c, 11, 7, 63
12, 31856, Control_c, 11, 7, 62
12, 31908, Control_c, 11, 7, 61
12, 31944, Control_c, 11, 7, 60
12, 31984, Control_c, 11, 7, 59
12, 32020, Control_c, 11, 7, 58
12, 32056, Control_c, 11, 7, 57
12, 32112, Control_c, 11, 7, 56
12, 32164, Control_c, 11, 7, 55
12, 32220, Control_c, 11, 7, 54
12, 32292, Control_c, 11, 7, 52
12, 32328, Control_c, 11, 7, 51
12, 32364, Control_c, 11, 7, 50
12, 32404, Control_c, 11, 7, 49
12, 32440, Control_c, 11, 7, 48
12, 32476, Control_c, 11, 7, 47
12, 32532, Control_c, 11, 7, 45
12, 32584, Control_c, 11, 7, 44
12, 32624, Control_c, 11, 7, 42
12, 32732, Control_c, 11, 7, 40
12, 32768, Control_c, 11, 7, 39
12, 32804, Control_c, 11, 7, 38
12, 32860, Control_c, 11, 7, 37
12, 32916, Control_c, 11, 7, 36
12, 32952, Control_c, 11, 7, 34
12, 32988, Control_c, 11, 7, 33
12, 33024, Control_c, 11, 7, 31
12, 33060, Control_c, 11, 7, 30
12, 33096, Control_c, 11, 7, 29
12, 33136, Control_c, 11, 7, 28
12, 33188, Control_c, 11, 7, 26
12, 33224, Control_c, 11, 7, 25
12, 33264, Control_c, 11, 7, 24
12, 33316, Control_c, 11, 7, 22
12, 33352, Control_c, 11, 7, 21
12, 33408, Control_c, 11, 7, 19
12, 33464, Control_c, 11, 7, 16
12, 33500, Control_c, 11, 7, 15
12, 33536, Control_c, 11, 7, 13
12, 33572, Control_c, 11, 7, 11
12, 33608, Control_c, 11, 7, 9
12, 33648, Control_c, 11, 7, 8
12, 33684, Control_c, 11, 7, 7
12, 33720, Control_c, 11, 7, 6
12, 33756, Control_c, 11, 7, 5
12, 33792, Control_c, 11, 7, 3
12, 33848, Control_c, 11, 7, 0
12, 34340, Note_on_c, 11, 74, 0
12, 34352, Note_on_c, 11, 77, 0
12, 34360, Note_on_c, 11, 80, 0
12, 43796, Note_on_c, 11, 75, 117
12, 43808, Note_on_c, 11, 82, 115
12, 43912, Control_c, 11, 7, 1
12, 43964, Control_c, 11, 7, 2
12, 44000, Control_c, 11, 7, 3
12, 44036, Control_c, 11, 7, 4
12, 44072, Control_c, 11, 7, 6
12, 44112, Control_c, 11, 7, 7
12, 44144, Note_on_c, 11, 79, 118
12, 44148, Control_c, 11, 7, 8
12, 44184, Control_c, 11, 7, 10
12, 44220, Control_c, 11, 7, 13
12, 44256, Control_c, 11, 7, 14
12, 44292, Control_c, 11, 7, 17
12, 44328, Control_c, 11, 7, 20
12, 44384, Control_c, 11, 7, 24
12, 44440, Control_c, 11, 7, 26
12, 44476, Control_c, 11, 7, 28
12, 44512, Control_c, 11, 7, 30
12, 44568, Control_c, 11, 7, 32
12, 44604, Control_c, 11, 7, 34
12, 44640, Control_c, 11, 7, 36
12, 44676, Control_c, 11, 7, 37
12, 44712, Control_c, 11, 7, 41
12, 44752, Control_c, 11, 7, 44
12, 44788, Control_c, 11, 7, 45
12, 44824, Control_c, 11, 7, 48
12, 44860, Control_c, 11, 7, 49
12, 44896, Control_c, 11, 7, 51
12, 44932, Control_c, 11, 7, 52
12, 44988, Control_c, 11, 7, 54
12, 45044, Control_c, 11, 7, 55
12, 45096, Control_c, 11, 7, 56
12, 45136, Control_c, 11, 7, 58
12, 45208, Control_c, 11, 7, 60
12, 45264, Control_c, 11, 7, 61
12, 45316, Control_c, 11, 7, 62
12, 45372, Control_c, 11, 7, 63
12, 45428, Control_c, 11, 7, 64
12, 45516, Control_c, 11, 7, 65
12, 45556, Control_c, 11, 7, 66
12, 45592, Control_c, 11, 7, 67
12, 45664, Control_c, 11, 7, 68
12, 45776, Control_c, 11, 7, 69
12, 45828, Control_c, 11, 7, 70
12, 45864, Control_c, 11, 7, 71
12, 45940, Control_c, 11, 7, 72
12, 46012, Control_c, 11, 7, 73
12, 46048, Control_c, 11, 7, 74
12, 46104, Control_c, 11, 7, 75
12, 46156, Control_c, 11, 7, 76
12, 46248, Control_c, 11, 7, 77
12, 46304, Control_c, 11, 7, 78
12, 46360, Control_c, 11, 7, 79
12, 46412, Control_c, 11, 7, 80
12, 46452, Control_c, 11, 7, 81
12, 46504, Control_c, 11, 7, 82
12, 46540, Control_c, 11, 7, 83
12, 46632, Control_c, 11, 7, 84
12, 46688, Control_c, 11, 7, 85
12, 46724, Control_c, 11, 7, 86
12, 46796, Control_c, 11, 7, 87
12, 46852, Control_c, 11, 7, 88
12, 46888, Control_c, 11, 7, 89
12, 47000, Control_c, 11, 7, 90
12, 47072, Control_c, 11, 7, 91
12, 47128, Control_c, 11, 7, 92
12, 47164, Control_c, 11, 7, 93
12, 47200, Control_c, 11, 7, 94
12, 47236, Control_c, 11, 7, 95
12, 47292, Control_c, 11, 7, 96
12, 47400, Control_c, 11, 7, 97
12, 47492, Control_c, 11, 7, 98
12, 47564, Control_c, 11, 7, 100
12, 47600, Control_c, 11, 7, 101
12, 47932, Control_c, 11, 7, 100
12, 47984, Control_c, 11, 7, 99
12, 48060, Control_c, 11, 7, 97
12, 48096, Control_c, 11, 7, 96
12, 48132, Control_c, 11, 7, 95
12, 48168, Control_c, 11, 7, 94
12, 48204, Control_c, 11, 7, 93
12, 48260, Control_c, 11, 7, 92
12, 48316, Control_c, 11, 7, 91
12, 48368, Control_c, 11, 7, 90
12, 48408, Control_c, 11, 7, 89
12, 48480, Control_c, 11, 7, 88
12, 48588, Control_c, 11, 7, 87
12, 48624, Control_c, 11, 7, 86
12, 48808, Control_c, 11, 7, 85
12, 48880, Control_c, 11, 7, 84
12, 48972, Control_c, 11, 7, 83
12, 49048, Control_c, 11, 7, 81
12, 49120, Control_c, 11, 7, 80
12, 49212, Control_c, 11, 7, 79
12, 49248, Control_c, 11, 7, 78
12, 49340, Control_c, 11, 7, 77
12, 49376, Control_c, 11, 7, 76
12, 49428, Control_c, 11, 7, 75
12, 49468, Control_c, 11, 7, 74
12, 49504, Control_c, 11, 7, 73
12, 49540, Control_c, 11, 7, 72
12, 49612, Control_c, 11, 7, 71
12, 49648, Control_c, 11, 7, 70
12, 49688, Control_c, 11, 7, 69
12, 49776, Control_c, 11, 7, 68
12, 49832, Control_c, 11, 7, 67
12, 49868, Control_c, 11, 7, 66
12, 49924, Control_c, 11, 7, 64
12, 49980, Control_c, 11, 7, 63
12, 50016, Control_c, 11, 7, 62
12, 50052, Control_c, 11, 7, 61
12, 50108, Control_c, 11, 7, 60
12, 50160, Control_c, 11, 7, 59
12, 50196, Control_c, 11, 7, 58
12, 50252, Control_c, 11, 7, 57
12, 50288, Control_c, 11, 7, 56
12, 50344, Control_c, 11, 7, 55
12, 50400, Control_c, 11, 7, 54
12, 50472, Control_c, 11, 7, 53
12, 50528, Control_c, 11, 7, 52
12, 50564, Control_c, 11, 7, 51
12, 50600, Control_c, 11, 7, 50
12, 50672, Control_c, 11, 7, 49
12, 50728, Control_c, 11, 7, 48
12, 50784, Control_c, 11, 7, 47
12, 50856, Control_c, 11, 7, 46
12, 50912, Control_c, 11, 7, 45
12, 50984, Control_c, 11, 7, 43
12, 51056, Control_c, 11, 7, 42
12, 51092, Control_c, 11, 7, 41
12, 51168, Control_c, 11, 7, 40
12, 51240, Control_c, 11, 7, 38
12, 51332, Control_c, 11, 7, 37
12, 51384, Control_c, 11, 7, 36
12, 51424, Control_c, 11, 7, 35
12, 51476, Control_c, 11, 7, 34
12, 51512, Control_c, 11, 7, 33
12, 51568, Control_c, 11, 7, 31
12, 51604, Control_c, 11, 7, 30
12, 51644, Control_c, 11, 7, 29
12, 51680, Control_c, 11, 7, 28
12, 51716, Control_c, 11, 7, 26
12, 51768, Control_c, 11, 7, 24
12, 51824, Control_c, 11, 7, 23
12, 51860, Control_c, 11, 7, 21
12, 51896, Control_c, 11, 7, 19
12, 51936, Control_c, 11, 7, 17
12, 51972, Control_c, 11, 7, 16
12, 52008, Control_c, 11, 7, 15
12, 52064, Control_c, 11, 7, 13
12, 52116, Control_c, 11, 7, 10
12, 52152, Control_c, 11, 7, 9
12, 52208, Control_c, 11, 7, 6
12, 52244, Control_c, 11, 7, 4
12, 52280, Control_c, 11, 7, 2
12, 52320, Control_c, 11, 7, 0
12, 52892, Note_on_c, 11, 79, 0
12, 52896, Note_on_c, 11, 75, 0
12, 52904, Note_on_c, 11, 82, 0
12, 58932, Note_on_c, 11, 82, 117
12, 59004, Note_on_c, 11, 79, 114
12, 59072, Note_on_c, 11, 74, 115
12, 59304, Control_c, 11, 7, 1
12, 59336, Control_c, 11, 7, 2
12, 59376, Control_c, 11, 7, 4
12, 59412, Control_c, 11, 7, 5
12, 59448, Control_c, 11, 7, 7
12, 59520, Control_c, 11, 7, 9
12, 59556, Control_c, 11, 7, 10
12, 59632, Control_c, 11, 7, 12
12, 59684, Control_c, 11, 7, 14
12, 59720, Control_c, 11, 7, 15
12, 59776, Control_c, 11, 7, 16
12, 59812, Control_c, 11, 7, 17
12, 59868, Control_c, 11, 7, 19
12, 59904, Control_c, 11, 7, 20
12, 59960, Control_c, 11, 7, 23
12, 59996, Control_c, 11, 7, 24
12, 60032, Control_c, 11, 7, 25
12, 60068, Control_c, 11, 7, 27
12, 60104, Control_c, 11, 7, 29
12, 60144, Control_c, 11, 7, 31
12, 60180, Control_c, 11, 7, 33
12, 60216, Control_c, 11, 7, 34
12, 60272, Control_c, 11, 7, 36
12, 60308, Control_c, 11, 7, 37
12, 60344, Control_c, 11, 7, 38
12, 60400, Control_c, 11, 7, 40
12, 60436, Control_c, 11, 7, 41
12, 60508, Control_c, 11, 7, 42
12, 60600, Control_c, 11, 7, 44
12, 60692, Control_c, 11, 7, 45
12, 60728, Control_c, 11, 7, 46
12, 60836, Control_c, 11, 7, 47
12, 60892, Control_c, 11, 7, 48
12, 60964, Control_c, 11, 7, 49
12, 61056, Control_c, 11, 7, 50
12, 61092, Control_c, 11, 7, 51
12, 61148, Control_c, 11, 7, 52
12, 61204, Control_c, 11, 7, 53
12, 61296, Control_c, 11, 7, 54
12, 61332, Control_c, 11, 7, 55
12, 61384, Control_c, 11, 7, 56
12, 61440, Control_c, 11, 7, 57
12, 61496, Control_c, 11, 7, 58
12, 61568, Control_c, 11, 7, 59
12, 61604, Control_c, 11, 7, 60
12, 61676, Control_c, 11, 7, 61
12, 61716, Control_c, 11, 7, 62
12, 61768, Control_c, 11, 7, 64
12, 61824, Control_c, 11, 7, 65
12, 61896, Control_c, 11, 7, 66
12, 61932, Control_c, 11, 7, 67
12, 61972, Control_c, 11, 7, 68
12, 62024, Control_c, 11, 7, 70
12, 62060, Control_c, 11, 7, 71
12, 62116, Control_c, 11, 7, 72
12, 62244, Control_c, 11, 7, 73
12, 62280, Control_c, 11, 7, 74
12, 62316, Control_c, 11, 7, 75
12, 62372, Control_c, 11, 7, 76
12, 62428, Control_c, 11, 7, 77
12, 62484, Control_c, 11, 7, 78
12, 62628, Control_c, 11, 7, 79
12, 62776, Control_c, 11, 7, 80
12, 62904, Control_c, 11, 7, 81
12, 63068, Control_c, 11, 7, 82
12, 63596, Control_c, 11, 7, 83
12, 63724, Control_c, 11, 7, 84
12, 63872, Control_c, 11, 7, 85
12, 64072, Control_c, 11, 7, 86
12, 64272, Control_c, 11, 7, 87
12, 64348, Control_c, 11, 7, 88
12, 64640, Control_c, 11, 7, 89
12, 64788, Control_c, 11, 7, 90
12, 65024, Control_c, 11, 7, 91
12, 65316, Control_c, 11, 7, 92
12, 65664, Control_c, 11, 7, 93
12, 66824, Note_on_c, 11, 82, 0
12, 66872, Note_on_c, 11, 84, 117
12, 67528, Control_c, 11, 7, 94
12, 68588, Control_c, 11, 7, 93
12, 72232, Note_on_c, 11, 82, 120
12, 72236, Note_on_c, 11, 84, 0
12, 74764, Note_on_c, 11, 86, 114
12, 74800, Note_on_c, 11, 74, 0
12, 75884, Control_c, 11, 7, 94
12, 76064, Control_c, 11, 7, 95
12, 76632, Control_c, 11, 7, 96
12, 76740, Control_c, 11, 7, 97
12, 76980, Control_c, 11, 7, 98
12, 77124, Control_c, 11, 7, 99
12, 77364, Control_c, 11, 7, 100
12, 77436, Control_c, 11, 7, 101
12, 77584, Control_c, 11, 7, 102
12, 77708, Control_c, 11, 7, 103
12, 77928, Control_c, 11, 7, 104
12, 78112, Control_c, 11, 7, 105
12, 78240, Control_c, 11, 7, 106
12, 78532, Control_c, 11, 7, 107
12, 78640, Note_on_c, 11, 91, 116
12, 78680, Note_on_c, 11, 79, 0
12, 78880, Control_c, 11, 7, 108
12, 79156, Control_c, 11, 7, 109
12, 79244, Control_c, 11, 7, 111
12, 79336, Control_c, 11, 7, 112
12, 79412, Control_c, 11, 7, 113
12, 79520, Control_c, 11, 7, 114
12, 79556, Control_c, 11, 7, 115
12, 79668, Control_c, 11, 7, 116
12, 79776, Control_c, 11, 7, 117
12, 79832, Control_c, 11, 7, 118
12, 79920, Control_c, 11, 7, 119
12, 79996, Control_c, 11, 7, 120
12, 80032, Control_c, 11, 7, 121
12, 80104, Control_c, 11, 7, 122
12, 80196, Control_c, 11, 7, 124
12, 80232, Control_c, 11, 7, 125
12, 80268, Control_c, 11, 7, 126
12, 80324, Control_c, 11, 7, 127
12, 82928, Note_on_c, 11, 91, 0
12, 82964, Note_on_c, 11, 82, 0
12, 82968, Note_on_c, 11, 86, 0
12, 82968, End_track
13, 0, Start_track
13, 0, MIDI_port, 0
13, 0, Title_t, "Synth"
13, 0, Program_c, 12, 87
13, 0, Control_c, 12, 7, 127
13, 0, Control_c, 12, 10, 84
13, 0, Control_c, 12, 0, 0
13, 228, Control_c, 12, 121, 127
13, 324, Control_c, 12, 0, 0
13, 324, Control_c, 12, 32, 0
13, 612, Control_c, 12, 91, 100
13, 15628, Control_c, 12, 93, 0
13, 15628, Note_on_c, 12, 67, 90
13, 16408, Note_on_c, 12, 67, 0
13, 16436, Note_on_c, 12, 69, 101
13, 16668, Note_on_c, 12, 69, 0
13, 16672, Note_on_c, 12, 70, 114
13, 16940, Note_on_c, 12, 70, 0
13, 16944, Note_on_c, 12, 72, 108
13, 18024, Control_c, 12, 7, 125
13, 18080, Control_c, 12, 7, 122
13, 18132, Control_c, 12, 7, 121
13, 18168, Control_c, 12, 7, 120
13, 18208, Control_c, 12, 7, 118
13, 18244, Control_c, 12, 7, 116
13, 18280, Control_c, 12, 7, 114
13, 18316, Control_c, 12, 7, 112
13, 18352, Control_c, 12, 7, 110
13, 18388, Control_c, 12, 7, 108
13, 18424, Control_c, 12, 7, 106
13, 18460, Control_c, 12, 7, 104
13, 18500, Control_c, 12, 7, 101
13, 18536, Control_c, 12, 7, 99
13, 18572, Control_c, 12, 7, 97
13, 18608, Control_c, 12, 7, 95
13, 18644, Control_c, 12, 7, 92
13, 18680, Control_c, 12, 7, 90
13, 18720, Control_c, 12, 7, 87
13, 18756, Control_c, 12, 7, 85
13, 18792, Control_c, 12, 7, 82
13, 18828, Control_c, 12, 7, 80
13, 18864, Control_c, 12, 7, 79
13, 18920, Control_c, 12, 7, 76
13, 18956, Control_c, 12, 7, 75
13, 18992, Control_c, 12, 7, 73
13, 19028, Control_c, 12, 7, 72
13, 19064, Control_c, 12, 7, 69
13, 19100, Control_c, 12, 7, 68
13, 19140, Control_c, 12, 7, 65
13, 19176, Control_c, 12, 7, 63
13, 19212, Control_c, 12, 7, 61
13, 19248, Control_c, 12, 7, 59
13, 19284, Control_c, 12, 7, 57
13, 19320, Control_c, 12, 7, 55
13, 19360, Control_c, 12, 7, 53
13, 19396, Control_c, 12, 7, 51
13, 19432, Control_c, 12, 7, 49
13, 19468, Control_c, 12, 7, 47
13, 19504, Control_c, 12, 7, 45
13, 19560, Control_c, 12, 7, 42
13, 19596, Control_c, 12, 7, 40
13, 19632, Control_c, 12, 7, 38
13, 19668, Control_c, 12, 7, 37
13, 19704, Control_c, 12, 7, 34
13, 19740, Control_c, 12, 7, 33
13, 19780, Control_c, 12, 7, 31
13, 19788, Note_on_c, 12, 72, 0
13, 19832, Control_c, 12, 7, 30
13, 19868, Control_c, 12, 7, 28
13, 19924, Control_c, 12, 7, 26
13, 19980, Control_c, 12, 7, 24
13, 20052, Control_c, 12, 7, 23
13, 20088, Control_c, 12, 7, 22
13, 20420, Control_c, 12, 7, 21
13, 21516, Control_c, 12, 7, 19
13, 21552, Control_c, 12, 7, 8
13, 21588, Control_c, 12, 7, 0
13, 26416, Control_c, 12, 7, 3
13, 26452, Control_c, 12, 7, 9
13, 26488, Control_c, 12, 7, 15
13, 26524, Control_c, 12, 7, 24
13, 26560, Control_c, 12, 7, 45
13, 26596, Control_c, 12, 7, 75
13, 26636, Control_c, 12, 7, 100
13, 26672, Control_c, 12, 7, 118
13, 26708, Control_c, 12, 7, 127
13, 26876, Note_on_c, 12, 74, 120
13, 28224, Note_on_c, 12, 74, 0
13, 28244, Note_on_c, 12, 72, 120
13, 28452, Note_on_c, 12, 72, 0
13, 28452, Note_on_c, 12, 77, 123
13, 28672, Note_on_c, 12, 77, 0
13, 28676, Note_on_c, 12, 72, 116
13, 28748, Note_on_c, 12, 72, 0
13, 28748, Note_on_c, 12, 74, 123
13, 30076, Note_on_c, 12, 74, 0
13, 30080, Note_on_c, 12, 72, 121
13, 30300, Note_on_c, 12, 72, 0
13, 30300, Note_on_c, 12, 77, 125
13, 30552, Note_on_c, 12, 77, 0
13, 30552, Note_on_c, 12, 72, 118
13, 30632, Note_on_c, 12, 72, 0
13, 30632, Note_on_c, 12, 74, 120
13, 31440, Control_c, 12, 7, 126
13, 31460, Pitch_bend_c, 12, 8121
13, 31476, Control_c, 12, 7, 124
13, 31476, Pitch_bend_c, 12, 7980
13, 31496, Pitch_bend_c, 12, 7909
13, 31512, Control_c, 12, 7, 121
13, 31512, Pitch_bend_c, 12, 7768
13, 31532, Pitch_bend_c, 12, 7627
13, 31548, Control_c, 12, 7, 119
13, 31548, Pitch_bend_c, 12, 7415
13, 31576, Pitch_bend_c, 12, 7132
13, 31588, Control_c, 12, 7, 115
13, 31596, Pitch_bend_c, 12, 6920
13, 31612, Pitch_bend_c, 12, 6638
13, 31624, Control_c, 12, 7, 110
13, 31632, Pitch_bend_c, 12, 6355
13, 31648, Pitch_bend_c, 12, 6073
13, 31660, Control_c, 12, 7, 105
13, 31668, Pitch_bend_c, 12, 5861
13, 31684, Pitch_bend_c, 12, 5508
13, 31696, Control_c, 12, 7, 98
13, 31704, Pitch_bend_c, 12, 5225
13, 31724, Pitch_bend_c, 12, 4872
13, 31732, Control_c, 12, 7, 92
13, 31740, Pitch_bend_c, 12, 4590
13, 31760, Pitch_bend_c, 12, 4237
13, 31768, Control_c, 12, 7, 85
13, 31776, Pitch_bend_c, 12, 3813
13, 31796, Pitch_bend_c, 12, 3389
13, 31808, Control_c, 12, 7, 77
13, 31812, Pitch_bend_c, 12, 3036
13, 31832, Note_on_c, 12, 74, 0
13, 31832, Pitch_bend_c, 12, 2471
13, 31844, Control_c, 12, 7, 67
13, 31852, Pitch_bend_c, 12, 1977
13, 31868, Pitch_bend_c, 12, 1483
13, 31880, Control_c, 12, 7, 57
13, 31888, Pitch_bend_c, 12, 1059
13, 31904, Pitch_bend_c, 12, 706
13, 31916, Control_c, 12, 7, 47
13, 31924, Pitch_bend_c, 12, 564
13, 31952, Pitch_bend_c, 12, 776
13, 31952, Control_c, 12, 7, 36
13, 31968, Pitch_bend_c, 12, 1200
13, 31988, Pitch_bend_c, 12, 1836
13, 31988, Control_c, 12, 7, 28
13, 32004, Pitch_bend_c, 12, 2259
13, 32024, Control_c, 12, 7, 28
13, 32024, Pitch_bend_c, 12, 2754
13, 32044, Pitch_bend_c, 12, 3319
13, 32060, Pitch_bend_c, 12, 4025
13, 32064, Control_c, 12, 7, 34
13, 32080, Pitch_bend_c, 12, 4660
13, 32096, Pitch_bend_c, 12, 5155
13, 32100, Control_c, 12, 7, 48
13, 32116, Pitch_bend_c, 12, 5437
13, 32132, Pitch_bend_c, 12, 5932
13, 32136, Control_c, 12, 7, 68
13, 32152, Pitch_bend_c, 12, 6285
13, 32172, Control_c, 12, 7, 89
13, 32172, Pitch_bend_c, 12, 6638
13, 32188, Pitch_bend_c, 12, 7062
13, 32208, Control_c, 12, 7, 107
13, 32216, Pitch_bend_c, 12, 7203
13, 32236, Pitch_bend_c, 12, 7556
13, 32244, Control_c, 12, 7, 119
13, 32260, Pitch_bend_c, 12, 7980
13, 32280, Pitch_bend_c, 12, 8192
13, 32280, Control_c, 12, 7, 127
13, 41440, Control_c, 12, 7, 123
13, 41476, Control_c, 12, 7, 117
13, 41512, Control_c, 12, 7, 106
13, 41548, Control_c, 12, 7, 93
13, 41588, Control_c, 12, 7, 78
13, 41624, Control_c, 12, 7, 67
13, 41660, Control_c, 12, 7, 57
13, 41696, Control_c, 12, 7, 48
13, 41732, Control_c, 12, 7, 42
13, 41768, Control_c, 12, 7, 39
13, 41804, Control_c, 12, 7, 36
13, 41844, Control_c, 12, 7, 34
13, 41880, Control_c, 12, 7, 33
13, 41916, Control_c, 12, 7, 31
13, 41952, Control_c, 12, 7, 29
13, 42008, Control_c, 12, 7, 28
13, 42060, Control_c, 12, 7, 26
13, 42100, Control_c, 12, 7, 24
13, 42152, Control_c, 12, 7, 23
13, 42212, Note_on_c, 12, 74, 124
13, 42228, Control_c, 12, 7, 24
13, 42280, Control_c, 12, 7, 27
13, 42320, Control_c, 12, 7, 30
13, 42356, Control_c, 12, 7, 32
13, 42392, Control_c, 12, 7, 35
13, 42428, Control_c, 12, 7, 38
13, 42464, Control_c, 12, 7, 41
13, 42500, Control_c, 12, 7, 47
13, 42536, Control_c, 12, 7, 52
13, 42572, Control_c, 12, 7, 57
13, 42612, Control_c, 12, 7, 62
13, 42648, Control_c, 12, 7, 65
13, 42684, Control_c, 12, 7, 68
13, 42720, Control_c, 12, 7, 72
13, 42776, Control_c, 12, 7, 74
13, 42812, Control_c, 12, 7, 76
13, 42848, Control_c, 12, 7, 79
13, 42884, Control_c, 12, 7, 81
13, 42920, Control_c, 12, 7, 83
13, 42956, Control_c, 12, 7, 86
13, 42996, Control_c, 12, 7, 88
13, 43032, Control_c, 12, 7, 90
13, 43068, Control_c, 12, 7, 93
13, 43104, Control_c, 12, 7, 95
13, 43140, Control_c, 12, 7, 98
13, 43176, Control_c, 12, 7, 100
13, 43212, Control_c, 12, 7, 102
13, 43252, Control_c, 12, 7, 103
13, 43288, Control_c, 12, 7, 105
13, 43324, Control_c, 12, 7, 107
13, 43360, Control_c, 12, 7, 110
13, 43396, Control_c, 12, 7, 112
13, 43432, Control_c, 12, 7, 113
13, 43468, Control_c, 12, 7, 115
13, 43504, Control_c, 12, 7, 116
13, 43580, Control_c, 12, 7, 117
13, 43652, Control_c, 12, 7, 118
13, 43724, Control_c, 12, 7, 119
13, 43780, Control_c, 12, 7, 120
13, 43812, Note_on_c, 12, 74, 0
13, 43812, Note_on_c, 12, 75, 118
13, 43836, Control_c, 12, 7, 122
13, 43892, Control_c, 12, 7, 125
13, 43928, Control_c, 12, 7, 126
13, 43980, Control_c, 12, 7, 127
13, 44108, Note_on_c, 12, 75, 0
13, 44116, Note_on_c, 12, 72, 120
13, 45116, Note_on_c, 12, 72, 0
13, 45120, Note_on_c, 12, 74, 88
13, 45172, Note_on_c, 12, 74, 0
13, 45176, Note_on_c, 12, 75, 121
13, 45468, Note_on_c, 12, 75, 0
13, 45468, Note_on_c, 12, 74, 120
13, 45836, Note_on_c, 12, 74, 0
13, 45840, Note_on_c, 12, 75, 122
13, 46196, Note_on_c, 12, 75, 0
13, 46200, Note_on_c, 12, 74, 117
13, 46732, Note_on_c, 12, 74, 0
13, 46788, Note_on_c, 12, 74, 105
13, 46828, Note_on_c, 12, 74, 0
13, 46832, Note_on_c, 12, 75, 117
13, 47088, Note_on_c, 12, 75, 0
13, 47092, Note_on_c, 12, 72, 114
13, 47564, Control_c, 12, 7, 126
13, 47600, Control_c, 12, 7, 125
13, 47636, Control_c, 12, 7, 124
13, 47672, Control_c, 12, 7, 123
13, 47712, Control_c, 12, 7, 122
13, 47748, Control_c, 12, 7, 120
13, 47804, Control_c, 12, 7, 118
13, 47840, Control_c, 12, 7, 116
13, 47892, Control_c, 12, 7, 113
13, 47932, Control_c, 12, 7, 111
13, 47968, Control_c, 12, 7, 110
13, 48004, Control_c, 12, 7, 107
13, 48040, Control_c, 12, 7, 105
13, 48076, Control_c, 12, 7, 103
13, 48112, Control_c, 12, 7, 100
13, 48168, Control_c, 12, 7, 97
13, 48204, Control_c, 12, 7, 95
13, 48240, Control_c, 12, 7, 92
13, 48276, Control_c, 12, 7, 89
13, 48312, Control_c, 12, 7, 86
13, 48352, Control_c, 12, 7, 83
13, 48388, Control_c, 12, 7, 79
13, 48424, Control_c, 12, 7, 76
13, 48460, Control_c, 12, 7, 73
13, 48496, Control_c, 12, 7, 69
13, 48532, Control_c, 12, 7, 66
13, 48568, Control_c, 12, 7, 62
13, 48608, Control_c, 12, 7, 58
13, 48644, Control_c, 12, 7, 54
13, 48680, Control_c, 12, 7, 50
13, 48716, Control_c, 12, 7, 45
13, 48752, Control_c, 12, 7, 42
13, 48788, Control_c, 12, 7, 38
13, 48844, Control_c, 12, 7, 36
13, 48900, Control_c, 12, 7, 34
13, 48944, Note_on_c, 12, 72, 0
13, 48956, Control_c, 12, 7, 32
13, 48992, Control_c, 12, 7, 31
13, 49028, Control_c, 12, 7, 30
13, 49172, Control_c, 12, 7, 29
13, 49628, Control_c, 12, 7, 36
13, 49668, Control_c, 12, 7, 46
13, 49704, Control_c, 12, 7, 60
13, 49740, Control_c, 12, 7, 80
13, 49776, Control_c, 12, 7, 97
13, 49812, Control_c, 12, 7, 109
13, 49848, Control_c, 12, 7, 120
13, 49888, Control_c, 12, 7, 127
13, 58940, Note_on_c, 12, 67, 114
13, 59148, Note_on_c, 12, 67, 0
13, 59152, Note_on_c, 12, 69, 120
13, 59344, Note_on_c, 12, 69, 0
13, 59348, Note_on_c, 12, 70, 127
13, 59552, Note_on_c, 12, 70, 0
13, 59552, Note_on_c, 12, 72, 127
13, 60820, Note_on_c, 12, 72, 0
13, 60824, Note_on_c, 12, 70, 123
13, 61020, Note_on_c, 12, 70, 0
13, 61032, Note_on_c, 12, 69, 121
13, 61224, Note_on_c, 12, 69, 0
13, 61228, Note_on_c, 12, 67, 118
13, 61396, Pitch_bend_c, 12, 8050
13, 61416, Pitch_bend_c, 12, 7768
13, 61432, Pitch_bend_c, 12, 7556
13, 61452, Pitch_bend_c, 12, 7062
13, 61456, Note_on_c, 12, 67, 0
13, 61456, Note_on_c, 12, 74, 124
13, 61472, Pitch_bend_c, 12, 6497
13, 61488, Pitch_bend_c, 12, 6214
13, 61504, Pitch_bend_c, 12, 6143
13, 61544, Pitch_bend_c, 12, 6214
13, 61568, Pitch_bend_c, 12, 6497
13, 61588, Pitch_bend_c, 12, 6638
13, 61616, Pitch_bend_c, 12, 6991
13, 61632, Pitch_bend_c, 12, 7132
13, 61652, Pitch_bend_c, 12, 7344
13, 61668, Pitch_bend_c, 12, 7415
13, 61696, Pitch_bend_c, 12, 7556
13, 61716, Pitch_bend_c, 12, 7627
13, 61744, Pitch_bend_c, 12, 7697
13, 61780, Pitch_bend_c, 12, 7909
13, 61844, Pitch_bend_c, 12, 7980
13, 61872, Pitch_bend_c, 12, 8050
13, 61924, Pitch_bend_c, 12, 8121
13, 61944, Pitch_bend_c, 12, 8192
13, 62480, Note_on_c, 12, 74, 0
13, 62488, Note_on_c, 12, 72, 120
13, 62696, Note_on_c, 12, 72, 0
13, 62700, Note_on_c, 12, 70, 119
13, 62860, Note_on_c, 12, 70, 0
13, 62868, Note_on_c, 12, 69, 116
13, 62968, Note_on_c, 12, 69, 0
13, 62968, Note_on_c, 12, 70, 118
13, 63060, Note_on_c, 12, 70, 0
13, 63064, Note_on_c, 12, 69, 116
13, 63156, Note_on_c, 12, 69, 0
13, 63160, Note_on_c, 12, 67, 111
13, 63308, Note_on_c, 12, 67, 0
13, 63308, Note_on_c, 12, 72, 121
13, 64048, Pitch_bend_c, 12, 8121
13, 64092, Pitch_bend_c, 12, 8050
13, 64112, Pitch_bend_c, 12, 7909
13, 64128, Pitch_bend_c, 12, 7768
13, 64148, Pitch_bend_c, 12, 7697
13, 64184, Pitch_bend_c, 12, 7485
13, 64200, Pitch_bend_c, 12, 7344
13, 64292, Pitch_bend_c, 12, 7627
13, 64320, Pitch_bend_c, 12, 7909
13, 64340, Pitch_bend_c, 12, 8121
13, 64356, Pitch_bend_c, 12, 8192
13, 64492, Note_on_c, 12, 72, 0
13, 64492, Note_on_c, 12, 70, 120
13, 64772, Note_on_c, 12, 70, 0
13, 64776, Note_on_c, 12, 69, 117
13, 65488, Note_on_c, 12, 69, 0
13, 65520, Note_on_c, 12, 67, 113
13, 65796, Note_on_c, 12, 67, 0
13, 65804, Note_on_c, 12, 65, 112
13, 65984, Note_on_c, 12, 65, 0
13, 65988, Note_on_c, 12, 67, 120
13, 66172, Note_on_c, 12, 67, 0
13, 66172, Note_on_c, 12, 69, 115
13, 66324, Note_on_c, 12, 69, 0
13, 66328, Note_on_c, 12, 65, 111
13, 66520, Note_on_c, 12, 65, 0
13, 66524, Note_on_c, 12, 67, 120
13, 67312, Control_c, 12, 7, 126
13, 67384, Control_c, 12, 7, 125
13, 67440, Control_c, 12, 7, 123
13, 67496, Control_c, 12, 7, 121
13, 67532, Control_c, 12, 7, 119
13, 67568, Control_c, 12, 7, 117
13, 67624, Control_c, 12, 7, 115
13, 67660, Control_c, 12, 7, 113
13, 67716, Control_c, 12, 7, 110
13, 67752, Control_c, 12, 7, 108
13, 67788, Control_c, 12, 7, 106
13, 67824, Control_c, 12, 7, 104
13, 67860, Control_c, 12, 7, 102
13, 67896, Control_c, 12, 7, 100
13, 67952, Control_c, 12, 7, 98
13, 68008, Control_c, 12, 7, 97
13, 68044, Control_c, 12, 7, 95
13, 68116, Control_c, 12, 7, 93
13, 68172, Control_c, 12, 7, 91
13, 68208, Control_c, 12, 7, 89
13, 68264, Control_c, 12, 7, 87
13, 68320, Control_c, 12, 7, 84
13, 68356, Control_c, 12, 7, 82
13, 68392, Control_c, 12, 7, 80
13, 68428, Control_c, 12, 7, 79
13, 68464, Control_c, 12, 7, 78
13, 68468, Note_on_c, 12, 67, 0
13, 68612, Control_c, 12, 7, 80
13, 68648, Control_c, 12, 7, 81
13, 68684, Control_c, 12, 7, 83
13, 68720, Control_c, 12, 7, 85
13, 68776, Control_c, 12, 7, 87
13, 68812, Control_c, 12, 7, 89
13, 68848, Control_c, 12, 7, 92
13, 68884, Control_c, 12, 7, 95
13, 68920, Control_c, 12, 7, 98
13, 68960, Control_c, 12, 7, 101
13, 68996, Control_c, 12, 7, 104
13, 69032, Control_c, 12, 7, 109
13, 69068, Control_c, 12, 7, 112
13, 69104, Control_c, 12, 7, 116
13, 69140, Control_c, 12, 7, 120
13, 69176, Control_c, 12, 7, 124
13, 69216, Control_c, 12, 7, 127
13, 69608, Note_on_c, 12, 72, 115
13, 69728, Note_on_c, 12, 72, 0
13, 69732, Note_on_c, 12, 77, 120
13, 69860, Note_on_c, 12, 77, 0
13, 69864, Note_on_c, 12, 74, 118
13, 70620, Note_on_c, 12, 74, 0
13, 70624, Note_on_c, 12, 72, 118
13, 70744, Note_on_c, 12, 72, 0
13, 70744, Note_on_c, 12, 77, 126
13, 70888, Note_on_c, 12, 77, 0
13, 70896, Note_on_c, 12, 74, 120
13, 71956, Control_c, 12, 7, 126
13, 71992, Control_c, 12, 7, 123
13, 72028, Control_c, 12, 7, 122
13, 72084, Control_c, 12, 7, 120
13, 72140, Control_c, 12, 7, 118
13, 72176, Control_c, 12, 7, 116
13, 72212, Control_c, 12, 7, 115
13, 72268, Control_c, 12, 7, 113
13, 72304, Control_c, 12, 7, 112
13, 72340, Control_c, 12, 7, 110
13, 72396, Control_c, 12, 7, 107
13, 72432, Control_c, 12, 7, 105
13, 72488, Control_c, 12, 7, 102
13, 72524, Control_c, 12, 7, 100
13, 72576, Control_c, 12, 7, 97
13, 72600, Note_on_c, 12, 74, 0
13, 72616, Control_c, 12, 7, 95
13, 72668, Control_c, 12, 7, 92
13, 72704, Control_c, 12, 7, 89
13, 72740, Control_c, 12, 7, 88
13, 72888, Control_c, 12, 7, 91
13, 72924, Control_c, 12, 7, 94
13, 72960, Control_c, 12, 7, 98
13, 72996, Control_c, 12, 7, 103
13, 73036, Control_c, 12, 7, 108
13, 73072, Control_c, 12, 7, 115
13, 73108, Control_c, 12, 7, 120
13, 73144, Control_c, 12, 7, 127
13, 73516, Note_on_c, 12, 72, 117
13, 73628, Note_on_c, 12, 72, 0
13, 73640, Note_on_c, 12, 77, 125
13, 73740, Note_on_c, 12, 77, 0
13, 73748, Note_on_c, 12, 74, 121
13, 74364, Note_on_c, 12, 74, 0
13, 74380, Note_on_c, 12, 72, 115
13, 74484, Note_on_c, 12, 72, 0
13, 74488, Note_on_c, 12, 77, 124
13, 74588, Note_on_c, 12, 77, 0
13, 74604, Note_on_c, 12, 74, 121
13, 75376, Control_c, 12, 7, 126
13, 75412, Control_c, 12, 7, 123
13, 75448, Control_c, 12, 7, 122
13, 75504, Control_c, 12, 7, 119
13, 75540, Control_c, 12, 7, 117
13, 75576, Control_c, 12, 7, 115
13, 75612, Control_c, 12, 7, 113
13, 75648, Control_c, 12, 7, 112
13, 75684, Control_c, 12, 7, 110
13, 75720, Control_c, 12, 7, 108
13, 75760, Control_c, 12, 7, 107
13, 75796, Control_c, 12, 7, 104
13, 75848, Control_c, 12, 7, 102
13, 75888, Control_c, 12, 7, 100
13, 75924, Control_c, 12, 7, 99
13, 75960, Control_c, 12, 7, 97
13, 76016, Control_c, 12, 7, 94
13, 76068, Control_c, 12, 7, 92
13, 76108, Control_c, 12, 7, 90
13, 76160, Control_c, 12, 7, 88
13, 76196, Control_c, 12, 7, 86
13, 76232, Control_c, 12, 7, 83
13, 76272, Control_c, 12, 7, 81
13, 76308, Note_on_c, 12, 74, 0
13, 76324, Control_c, 12, 7, 80
13, 76400, Control_c, 12, 7, 83
13, 76436, Control_c, 12, 7, 89
13, 76472, Control_c, 12, 7, 97
13, 76508, Control_c, 12, 7, 104
13, 76544, Control_c, 12, 7, 110
13, 76580, Control_c, 12, 7, 115
13, 76616, Control_c, 12, 7, 120
13, 76652, Control_c, 12, 7, 124
13, 76692, Control_c, 12, 7, 127
13, 77136, Note_on_c, 12, 79, 113
13, 77228, Note_on_c, 12, 79, 0
13, 77232, Note_on_c, 12, 81, 124
13, 77308, Note_on_c, 12, 81, 0
13, 77312, Note_on_c, 12, 82, 127
13, 77408, Note_on_c, 12, 82, 0
13, 77408, Note_on_c, 12, 84, 127
13, 79048, Note_on_c, 12, 84, 0
13, 79052, Note_on_c, 12, 86, 127
13, 79152, Note_on_c, 12, 86, 0
13, 79152, Note_on_c, 12, 89, 127
13, 79252, Note_on_c, 12, 89, 0
13, 79252, Note_on_c, 12, 91, 127
13, 80072, Note_on_c, 12, 91, 0
13, 80072, Note_on_c, 12, 93, 127
13, 80160, Note_on_c, 12, 93, 0
13, 80164, Note_on_c, 12, 94, 127
13, 80288, Note_on_c, 12, 94, 0
13, 80292, Note_on_c, 12, 96, 127
13, 82984, Note_on_c, 12, 96, 0
13, 82984, End_track
14, 0, Start_track
14, 0, MIDI_port, 0
14, 0, Title_t, "Drums"
14, 0, Program_c, 9, 0
14, 0, Control_c, 9, 7, 127
14, 0, Control_c, 9, 10, 64
14, 0, Control_c, 9, 0, 0
14, 224, Control_c, 9, 121, 127
14, 320, Control_c, 9, 0, 0
14, 320, Control_c, 9, 32, 0
14, 608, Control_c, 9, 91, 60
14, 2304, Control_c, 9, 93, 0
14, 2304, Note_on_c, 9, 37, 120
14, 2444, Note_on_c, 9, 37, 0
14, 2688, Note_on_c, 9, 37, 100
14, 2828, Note_on_c, 9, 37, 0
14, 3072, Note_on_c, 9, 37, 100
14, 3236, Note_on_c, 9, 37, 0
14, 3456, Note_on_c, 9, 37, 100
14, 3588, Note_on_c, 9, 37, 0
14, 63552, Note_on_c, 9, 47, 127
14, 63628, Note_on_c, 9, 47, 0
14, 63648, Note_on_c, 9, 47, 127
14, 63708, Note_on_c, 9, 47, 0
14, 63744, Note_on_c, 9, 43, 127
14, 63824, Note_on_c, 9, 43, 0
14, 65088, Note_on_c, 9, 47, 127
14, 65164, Note_on_c, 9, 47, 0
14, 65184, Note_on_c, 9, 47, 127
14, 65244, Note_on_c, 9, 47, 0
14, 65280, Note_on_c, 9, 43, 127
14, 65360, Note_on_c, 9, 43, 0
14, 65472, Note_on_c, 9, 43, 127
14, 65552, Note_on_c, 9, 43, 0
14, 66048, Note_on_c, 9, 47, 127
14, 66124, Note_on_c, 9, 47, 0
14, 66144, Note_on_c, 9, 47, 127
14, 66204, Note_on_c, 9, 47, 0
14, 66336, Note_on_c, 9, 47, 127
14, 66416, Note_on_c, 9, 47, 0
14, 66432, Note_on_c, 9, 43, 127
14, 66512, Note_on_c, 9, 43, 0
14, 66624, Note_on_c, 9, 43, 127
14, 66704, Note_on_c, 9, 43, 0
14, 66816, Note_on_c, 9, 38, 127
14, 66892, Note_on_c, 9, 38, 0
14, 66912, Note_on_c, 9, 38, 127
14, 66972, Note_on_c, 9, 38, 0
14, 67008, Note_on_c, 9, 38, 127
14, 67088, Note_on_c, 9, 38, 0
14, 67968, Note_on_c, 9, 47, 127
14, 68044, Note_on_c, 9, 47, 0
14, 68064, Note_on_c, 9, 47, 127
14, 68124, Note_on_c, 9, 47, 0
14, 68256, Note_on_c, 9, 47, 127
14, 68336, Note_on_c, 9, 47, 0
14, 68352, Note_on_c, 9, 43, 127
14, 68432, Note_on_c, 9, 43, 0
14, 68544, Note_on_c, 9, 43, 127
14, 68624, Note_on_c, 9, 43, 0
14, 69888, Note_on_c, 9, 38, 127
14, 69964, Note_on_c, 9, 38, 0
14, 69984, Note_on_c, 9, 43, 127
14, 70044, Note_on_c, 9, 43, 0
14, 70080, Note_on_c, 9, 43, 127
14, 70140, Note_on_c, 9, 43, 0
14, 70176, Note_on_c, 9, 43, 127
14, 70256, Note_on_c, 9, 43, 0
14, 70272, Note_on_c, 9, 38, 127
14, 70348, Note_on_c, 9, 38, 0
14, 70464, Note_on_c, 9, 43, 127
14, 70524, Note_on_c, 9, 43, 0
14, 70560, Note_on_c, 9, 43, 127
14, 70640, Note_on_c, 9, 43, 0
14, 70656, Note_on_c, 9, 38, 127
14, 70732, Note_on_c, 9, 38, 0
14, 70752, Note_on_c, 9, 43, 127
14, 70812, Note_on_c, 9, 43, 0
14, 70848, Note_on_c, 9, 43, 127
14, 70908, Note_on_c, 9, 43, 0
14, 70944, Note_on_c, 9, 43, 127
14, 71024, Note_on_c, 9, 43, 0
14, 71040, Note_on_c, 9, 38, 127
14, 71116, Note_on_c, 9, 38, 0
14, 72192, Note_on_c, 9, 43, 127
14, 72268, Note_on_c, 9, 43, 0
14, 72288, Note_on_c, 9, 43, 127
14, 72348, Note_on_c, 9, 43, 0
14, 72480, Note_on_c, 9, 43, 127
14, 72560, Note_on_c, 9, 43, 0
14, 72576, Note_on_c, 9, 43, 127
14, 72652, Note_on_c, 9, 43, 0
14, 72768, Note_on_c, 9, 43, 127
14, 72828, Note_on_c, 9, 43, 0
14, 72864, Note_on_c, 9, 43, 127
14, 72944, Note_on_c, 9, 43, 0
14, 72960, Note_on_c, 9, 43, 127
14, 73036, Note_on_c, 9, 43, 0
14, 73056, Note_on_c, 9, 43, 127
14, 73116, Note_on_c, 9, 43, 0
14, 73152, Note_on_c, 9, 43, 127
14, 73212, Note_on_c, 9, 43, 0
14, 73248, Note_on_c, 9, 43, 127
14, 73328, Note_on_c, 9, 43, 0
14, 73344, Note_on_c, 9, 43, 127
14, 73420, Note_on_c, 9, 43, 0
14, 73440, Note_on_c, 9, 43, 127
14, 73500, Note_on_c, 9, 43, 0
14, 73536, Note_on_c, 9, 38, 127
14, 73612, Note_on_c, 9, 38, 0
14, 73728, Note_on_c, 9, 43, 127
14, 73804, Note_on_c, 9, 43, 0
14, 73920, Note_on_c, 9, 38, 127
14, 73980, Note_on_c, 9, 38, 0
14, 74016, Note_on_c, 9, 43, 127
14, 74096, Note_on_c, 9, 43, 0
14, 74112, Note_on_c, 9, 43, 127
14, 74188, Note_on_c, 9, 43, 0
14, 75264, Note_on_c, 9, 43, 127
14, 75340, Note_on_c, 9, 43, 0
14, 75360, Note_on_c, 9, 43, 127
14, 75420, Note_on_c, 9, 43, 0
14, 75456, Note_on_c, 9, 38, 127
14, 75532, Note_on_c, 9, 38, 0
14, 75552, Note_on_c, 9, 43, 127
14, 75632, Note_on_c, 9, 43, 0
14, 75648, Note_on_c, 9, 43, 127
14, 75724, Note_on_c, 9, 43, 0
14, 75744, Note_on_c, 9, 43, 127
14, 75804, Note_on_c, 9, 43, 0
14, 75840, Note_on_c, 9, 38, 127
14, 75916, Note_on_c, 9, 38, 0
14, 75936, Note_on_c, 9, 43, 127
14, 76016, Note_on_c, 9, 43, 0
14, 76032, Note_on_c, 9, 43, 127
14, 76108, Note_on_c, 9, 43, 0
14, 76224, Note_on_c, 9, 38, 127
14, 76284, Note_on_c, 9, 38, 0
14, 76320, Note_on_c, 9, 43, 127
14, 76400, Note_on_c, 9, 43, 0
14, 76416, Note_on_c, 9, 43, 127
14, 76492, Note_on_c, 9, 43, 0
14, 76512, Note_on_c, 9, 43, 127
14, 76572, Note_on_c, 9, 43, 0
14, 76608, Note_on_c, 9, 38, 127
14, 76684, Note_on_c, 9, 38, 0
14, 76704, Note_on_c, 9, 43, 127
14, 76784, Note_on_c, 9, 43, 0
14, 76800, Note_on_c, 9, 43, 127
14, 76876, Note_on_c, 9, 43, 0
14, 76896, Note_on_c, 9, 43, 127
14, 76956, Note_on_c, 9, 43, 0
14, 76992, Note_on_c, 9, 43, 127
14, 77060, Note_on_c, 9, 43, 0
14, 77568, Note_on_c, 9, 43, 127
14, 77644, Note_on_c, 9, 43, 0
14, 77664, Note_on_c, 9, 38, 127
14, 77724, Note_on_c, 9, 38, 0
14, 77760, Note_on_c, 9, 38, 127
14, 77820, Note_on_c, 9, 38, 0
14, 77856, Note_on_c, 9, 43, 127
14, 77936, Note_on_c, 9, 43, 0
14, 77952, Note_on_c, 9, 38, 127
14, 78028, Note_on_c, 9, 38, 0
14, 78144, Note_on_c, 9, 43, 127
14, 78220, Note_on_c, 9, 43, 0
14, 78336, Note_on_c, 9, 38, 127
14, 78412, Note_on_c, 9, 38, 0
14, 78528, Note_on_c, 9, 43, 127
14, 78604, Note_on_c, 9, 43, 0
14, 79200, Note_on_c, 9, 43, 127
14, 79260, Note_on_c, 9, 43, 0
14, 79296, Note_on_c, 9, 47, 127
14, 79356, Note_on_c, 9, 47, 0
14, 79392, Note_on_c, 9, 47, 127
14, 79472, Note_on_c, 9, 47, 0
14, 79488, Note_on_c, 9, 38, 127
14, 79564, Note_on_c, 9, 38, 0
14, 80352, Note_on_c, 9, 43, 127
14, 80412, Note_on_c, 9, 43, 0
14, 80448, Note_on_c, 9, 38, 127
14, 80508, Note_on_c, 9, 38, 0
14, 80544, Note_on_c, 9, 38, 127
14, 80624, Note_on_c, 9, 38, 0
14, 80640, Note_on_c, 9, 43, 127
14, 80716, Note_on_c, 9, 43, 0
14, 80736, Note_on_c, 9, 43, 127
14, 80796, Note_on_c, 9, 43, 0
14, 80832, Note_on_c, 9, 43, 127
14, 80900, Note_on_c, 9, 43, 0
14, 81408, Note_on_c, 9, 43, 127
14, 81468, Note_on_c, 9, 43, 0
14, 81504, Note_on_c, 9, 38, 127
14, 81584, Note_on_c, 9, 38, 0
14, 81600, Note_on_c, 9, 38, 127
14, 81676, Note_on_c, 9, 38, 0
14, 81696, Note_on_c, 9, 43, 127
14, 81756, Note_on_c, 9, 43, 0
14, 81792, Note_on_c, 9, 38, 127
14, 81868, Note_on_c, 9, 38, 0
14, 81888, Note_on_c, 9, 38, 127
14, 81948, Note_on_c, 9, 38, 0
14, 81984, Note_on_c, 9, 38, 127
14, 82052, Note_on_c, 9, 38, 0
14, 82080, Note_on_c, 9, 38, 127
14, 82148, Note_on_c, 9, 38, 0
14, 82176, Note_on_c, 9, 38, 127
14, 82252, Note_on_c, 9, 38, 0
14, 82272, Note_on_c, 9, 38, 127
14, 82332, Note_on_c, 9, 38, 0
14, 82368, Note_on_c, 9, 38, 127
14, 82436, Note_on_c, 9, 38, 0
14, 82464, Note_on_c, 9, 38, 127
14, 82532, Note_on_c, 9, 38, 0
14, 82560, Note_on_c, 9, 38, 127
14, 82604, Note_on_c, 9, 38, 0
14, 82624, Note_on_c, 9, 38, 127
14, 82664, Note_on_c, 9, 38, 0
14, 82688, Note_on_c, 9, 38, 127
14, 82732, Note_on_c, 9, 38, 0
14, 82752, Note_on_c, 9, 38, 127
14, 82796, Note_on_c, 9, 38, 0
14, 82816, Note_on_c, 9, 38, 127
14, 82856, Note_on_c, 9, 38, 0
14, 82880, Note_on_c, 9, 38, 127
14, 82920, Note_on_c, 9, 38, 0
14, 93696, Note_on_c, 9, 47, 127
14, 93760, Note_on_c, 9, 47, 0
14, 93792, Note_on_c, 9, 47, 127
14, 93868, Note_on_c, 9, 47, 0
14, 93888, Note_on_c, 9, 43, 127
14, 93964, Note_on_c, 9, 43, 0
14, 94080, Note_on_c, 9, 47, 127
14, 94156, Note_on_c, 9, 47, 0
14, 94272, Note_on_c, 9, 43, 127
14, 94336, Note_on_c, 9, 43, 0
14, 94464, Note_on_c, 9, 41, 127
14, 94532, Note_on_c, 9, 41, 0
14, 94656, Note_on_c, 9, 41, 127
14, 94728, Note_on_c, 9, 41, 0
14, 94828, Note_on_c, 9, 38, 112
14, 94840, Note_on_c, 9, 38, 0
14, 94848, Note_on_c, 9, 38, 127
14, 94848, Note_on_c, 9, 46, 127
14, 94924, Note_on_c, 9, 38, 0
14, 95012, Note_on_c, 9, 46, 0
14, 95232, Note_on_c, 9, 36, 127
14, 95232, Note_on_c, 9, 42, 127
14, 95292, Note_on_c, 9, 42, 0
14, 95424, Note_on_c, 9, 36, 0
14, 95424, Note_on_c, 9, 42, 127
14, 95468, Note_on_c, 9, 42, 0
14, 95616, Note_on_c, 9, 38, 127
14, 95616, Note_on_c, 9, 42, 127
14, 95680, Note_on_c, 9, 42, 0
14, 95692, Note_on_c, 9, 38, 0
14, 95808, Note_on_c, 9, 42, 127
14, 95852, Note_on_c, 9, 42, 0
14, 96000, Note_on_c, 9, 36, 127
14, 96000, Note_on_c, 9, 42, 127
14, 96060, Note_on_c, 9, 42, 0
14, 96128, Note_on_c, 9, 36, 0
14, 96192, Note_on_c, 9, 42, 127
14, 96240, Note_on_c, 9, 42, 0
14, 96384, Note_on_c, 9, 38, 127
14, 96384, Note_on_c, 9, 42, 127
14, 96448, Note_on_c, 9, 42, 0
14, 96464, Note_on_c, 9, 38, 0
14, 96576, Note_on_c, 9, 42, 127
14, 96632, Note_on_c, 9, 42, 0
14, 96768, Note_on_c, 9, 36, 127
14, 96768, Note_on_c, 9, 42, 127
14, 96832, Note_on_c, 9, 42, 0
14, 96932, Note_on_c, 9, 36, 0
14, 96960, Note_on_c, 9, 42, 127
14, 97016, Note_on_c, 9, 42, 0
14, 97152, Note_on_c, 9, 38, 127
14, 97152, Note_on_c, 9, 42, 127
14, 97220, Note_on_c, 9, 42, 0
14, 97232, Note_on_c, 9, 38, 0
14, 97344, Note_on_c, 9, 42, 127
14, 97404, Note_on_c, 9, 42, 0
14, 97536, Note_on_c, 9, 36, 127
14, 97536, Note_on_c, 9, 42, 127
14, 97600, Note_on_c, 9, 42, 0
14, 97696, Note_on_c, 9, 36, 0
14, 97728, Note_on_c, 9, 42, 127
14, 97784, Note_on_c, 9, 42, 0
14, 97920, Note_on_c, 9, 38, 127
14, 97920, Note_on_c, 9, 42, 127
14, 97988, Note_on_c, 9, 42, 0
14, 98020, Note_on_c, 9, 38, 0
14, 98112, Note_on_c, 9, 46, 127
14, 98160, Note_on_c, 9, 46, 0
14, 98304, Note_on_c, 9, 36, 127
14, 98304, Note_on_c, 9, 42, 127
14, 98364, Note_on_c, 9, 42, 0
14, 98412, Note_on_c, 9, 36, 0
14, 98496, Note_on_c, 9, 42, 127
14, 98548, Note_on_c, 9, 42, 0
14, 98688, Note_on_c, 9, 38, 127
14, 98688, Note_on_c, 9, 42, 127
14, 98748, Note_on_c, 9, 42, 0
14, 98784, Note_on_c, 9, 38, 0
14, 98880, Note_on_c, 9, 42, 127
14, 98932, Note_on_c, 9, 42, 0
14, 99072, Note_on_c, 9, 36, 127
14, 99072, Note_on_c, 9, 42, 127
14, 99136, Note_on_c, 9, 42, 0
14, 99188, Note_on_c, 9, 36, 0
14, 99264, Note_on_c, 9, 42, 127
14, 99316, Note_on_c, 9, 42, 0
14, 99456, Note_on_c, 9, 38, 127
14, 99456, Note_on_c, 9, 42, 127
14, 99520, Note_on_c, 9, 42, 0
14, 99564, Note_on_c, 9, 38, 0
14, 99648, Note_on_c, 9, 42, 127
14, 99700, Note_on_c, 9, 42, 0
14, 99840, Note_on_c, 9, 36, 127
14, 99840, Note_on_c, 9, 42, 127
14, 99904, Note_on_c, 9, 42, 0
14, 99972, Note_on_c, 9, 36, 0
14, 100032, Note_on_c, 9, 42, 127
14, 100084, Note_on_c, 9, 42, 0
14, 100224, Note_on_c, 9, 38, 127
14, 100224, Note_on_c, 9, 42, 127
14, 100288, Note_on_c, 9, 42, 0
14, 100336, Note_on_c, 9, 38, 0
14, 100416, Note_on_c, 9, 42, 127
14, 100468, Note_on_c, 9, 42, 0
14, 100608, Note_on_c, 9, 36, 127
14, 100608, Note_on_c, 9, 42, 127
14, 100672, Note_on_c, 9, 42, 0
14, 100728, Note_on_c, 9, 36, 0
14, 100800, Note_on_c, 9, 42, 127
14, 100848, Note_on_c, 9, 42, 0
14, 100992, Note_on_c, 9, 38, 127
14, 100992, Note_on_c, 9, 42, 127
14, 101052, Note_on_c, 9, 42, 0
14, 101092, Note_on_c, 9, 38, 0
14, 101184, Note_on_c, 9, 46, 127
14, 101240, Note_on_c, 9, 46, 0
14, 101376, Note_on_c, 9, 36, 127
14, 101376, Note_on_c, 9, 42, 127
14, 101436, Note_on_c, 9, 42, 0
14, 101468, Note_on_c, 9, 36, 0
14, 101568, Note_on_c, 9, 42, 127
14, 101620, Note_on_c, 9, 42, 0
14, 101760, Note_on_c, 9, 38, 127
14, 101760, Note_on_c, 9, 42, 127
14, 101820, Note_on_c, 9, 42, 0
14, 101888, Note_on_c, 9, 38, 0
14, 101952, Note_on_c, 9, 42, 127
14, 102008, Note_on_c, 9, 42, 0
14, 102144, Note_on_c, 9, 36, 127
14, 102144, Note_on_c, 9, 42, 127
14, 102208, Note_on_c, 9, 42, 0
14, 102264, Note_on_c, 9, 36, 0
14, 102336, Note_on_c, 9, 42, 127
14, 102396, Note_on_c, 9, 42, 0
14, 102528, Note_on_c, 9, 38, 127
14, 102528, Note_on_c, 9, 42, 127
14, 102596, Note_on_c, 9, 42, 0
14, 102648, Note_on_c, 9, 38, 0
14, 102720, Note_on_c, 9, 42, 127
14, 102772, Note_on_c, 9, 42, 0
14, 102912, Note_on_c, 9, 36, 127
14, 102912, Note_on_c, 9, 42, 127
14, 102980, Note_on_c, 9, 42, 0
14, 103060, Note_on_c, 9, 36, 0
14, 103104, Note_on_c, 9, 42, 127
14, 103164, Note_on_c, 9, 42, 0
14, 103296, Note_on_c, 9, 38, 127
14, 103296, Note_on_c, 9, 42, 127
14, 103368, Note_on_c, 9, 42, 0
14, 103408, Note_on_c, 9, 38, 0
14, 103488, Note_on_c, 9, 42, 127
14, 103552, Note_on_c, 9, 42, 0
14, 103680, Note_on_c, 9, 36, 127
14, 103680, Note_on_c, 9, 42, 127
14, 103744, Note_on_c, 9, 42, 0
14, 103812, Note_on_c, 9, 36, 0
14, 103872, Note_on_c, 9, 42, 127
14, 103932, Note_on_c, 9, 42, 0
14, 104064, Note_on_c, 9, 38, 127
14, 104064, Note_on_c, 9, 42, 127
14, 104128, Note_on_c, 9, 42, 0
14, 104168, Note_on_c, 9, 38, 0
14, 104256, Note_on_c, 9, 36, 127
14, 104256, Note_on_c, 9, 46, 127
14, 104320, Note_on_c, 9, 46, 0
14, 104320, Note_on_c, 9, 36, 0
14, 104448, Note_on_c, 9, 36, 127
14, 104448, Note_on_c, 9, 42, 127
14, 104512, Note_on_c, 9, 42, 0
14, 104564, Note_on_c, 9, 36, 0
14, 104640, Note_on_c, 9, 42, 127
14, 104696, Note_on_c, 9, 42, 0
14, 104832, Note_on_c, 9, 38, 127
14, 104832, Note_on_c, 9, 42, 127
14, 104904, Note_on_c, 9, 42, 0
14, 104952, Note_on_c, 9, 38, 0
14, 105024, Note_on_c, 9, 42, 127
14, 105084, Note_on_c, 9, 42, 0
14, 105216, Note_on_c, 9, 36, 127
14, 105216, Note_on_c, 9, 42, 127
14, 105280, Note_on_c, 9, 42, 0
14, 105352, Note_on_c, 9, 36, 0
14, 105408, Note_on_c, 9, 42, 127
14, 105468, Note_on_c, 9, 42, 0
14, 105600, Note_on_c, 9, 38, 127
14, 105600, Note_on_c, 9, 42, 127
14, 105664, Note_on_c, 9, 42, 0
14, 105680, Note_on_c, 9, 38, 0
14, 105792, Note_on_c, 9, 42, 127
14, 105848, Note_on_c, 9, 42, 0
14, 105984, Note_on_c, 9, 36, 127
14, 105984, Note_on_c, 9, 42, 127
14, 106044, Note_on_c, 9, 42, 0
14, 106128, Note_on_c, 9, 36, 0
14, 106176, Note_on_c, 9, 42, 127
14, 106236, Note_on_c, 9, 42, 0
14, 106368, Note_on_c, 9, 38, 127
14, 106368, Note_on_c, 9, 42, 127
14, 106428, Note_on_c, 9, 42, 0
14, 106440, Note_on_c, 9, 38, 0
14, 106560, Note_on_c, 9, 42, 127
14, 106616, Note_on_c, 9, 42, 0
14, 106752, Note_on_c, 9, 36, 127
14, 106752, Note_on_c, 9, 42, 127
14, 106812, Note_on_c, 9, 42, 0
14, 106848, Note_on_c, 9, 42, 127
14, 106872, Note_on_c, 9, 36, 0
14, 106900, Note_on_c, 9, 42, 0
14, 106944, Note_on_c, 9, 42, 127
14, 106996, Note_on_c, 9, 42, 0
14, 107040, Note_on_c, 9, 38, 120
14, 107124, Note_on_c, 9, 38, 0
14, 107136, Note_on_c, 9, 38, 127
14, 107220, Note_on_c, 9, 38, 0
14, 107328, Note_on_c, 9, 38, 127
14, 107412, Note_on_c, 9, 38, 0
14, 107520, Note_on_c, 9, 36, 127
14, 107520, Note_on_c, 9, 42, 127
14, 107580, Note_on_c, 9, 42, 0
14, 107712, Note_on_c, 9, 36, 0
14, 107712, Note_on_c, 9, 42, 127
14, 107756, Note_on_c, 9, 42, 0
14, 107904, Note_on_c, 9, 38, 127
14, 107904, Note_on_c, 9, 42, 127
14, 107968, Note_on_c, 9, 42, 0
14, 107980, Note_on_c, 9, 38, 0
14, 108096, Note_on_c, 9, 42, 127
14, 108140, Note_on_c, 9, 42, 0
14, 108288, Note_on_c, 9, 36, 127
14, 108288, Note_on_c, 9, 42, 127
14, 108348, Note_on_c, 9, 42, 0
14, 108416, Note_on_c, 9, 36, 0
14, 108480, Note_on_c, 9, 42, 127
14, 108528, Note_on_c, 9, 42, 0
14, 108672, Note_on_c, 9, 38, 127
14, 108672, Note_on_c, 9, 42, 127
14, 108736, Note_on_c, 9, 42, 0
14, 108752, Note_on_c, 9, 38, 0
14, 108864, Note_on_c, 9, 42, 127
14, 108920, Note_on_c, 9, 42, 0
14, 109056, Note_on_c, 9, 36, 127
14, 109056, Note_on_c, 9, 42, 127
14, 109120, Note_on_c, 9, 42, 0
14, 109220, Note_on_c, 9, 36, 0
14, 109248, Note_on_c, 9, 42, 127
14, 109304, Note_on_c, 9, 42, 0
14, 109440, Note_on_c, 9, 38, 127
14, 109440, Note_on_c, 9, 42, 127
14, 109508, Note_on_c, 9, 42, 0
14, 109520, Note_on_c, 9, 38, 0
14, 109632, Note_on_c, 9, 42, 127
14, 109692, Note_on_c, 9, 42, 0
14, 109824, Note_on_c, 9, 36, 127
14, 109824, Note_on_c, 9, 42, 127
14, 109888, Note_on_c, 9, 42, 0
14, 109984, Note_on_c, 9, 36, 0
14, 110016, Note_on_c, 9, 42, 127
14, 110072, Note_on_c, 9, 42, 0
14, 110208, Note_on_c, 9, 38, 127
14, 110208, Note_on_c, 9, 42, 127
14, 110276, Note_on_c, 9, 42, 0
14, 110308, Note_on_c, 9, 38, 0
14, 110400, Note_on_c, 9, 42, 127
14, 110456, Note_on_c, 9, 42, 0
14, 110592, Note_on_c, 9, 36, 127
14, 110592, Note_on_c, 9, 42, 127
14, 110652, Note_on_c, 9, 42, 0
14, 110700, Note_on_c, 9, 36, 0
14, 110784, Note_on_c, 9, 42, 127
14, 110836, Note_on_c, 9, 42, 0
14, 110976, Note_on_c, 9, 38, 127
14, 110976, Note_on_c, 9, 42, 127
14, 111036, Note_on_c, 9, 42, 0
14, 111072, Note_on_c, 9, 38, 0
14, 111168, Note_on_c, 9, 42, 127
14, 111220, Note_on_c, 9, 42, 0
14, 111360, Note_on_c, 9, 36, 127
14, 111360, Note_on_c, 9, 42, 127
14, 111424, Note_on_c, 9, 42, 0
14, 111476, Note_on_c, 9, 36, 0
14, 111552, Note_on_c, 9, 42, 127
14, 111604, Note_on_c, 9, 42, 0
14, 111744, Note_on_c, 9, 38, 127
14, 111744, Note_on_c, 9, 42, 127
14, 111808, Note_on_c, 9, 42, 0
14, 111852, Note_on_c, 9, 38, 0
14, 111936, Note_on_c, 9, 42, 127
14, 111988, Note_on_c, 9, 42, 0
14, 112128, Note_on_c, 9, 36, 127
14, 112128, Note_on_c, 9, 42, 127
14, 112192, Note_on_c, 9, 42, 0
14, 112260, Note_on_c, 9, 36, 0
14, 112320, Note_on_c, 9, 42, 127
14, 112372, Note_on_c, 9, 42, 0
14, 112512, Note_on_c, 9, 38, 127
14, 112512, Note_on_c, 9, 42, 127
14, 112576, Note_on_c, 9, 42, 0
14, 112624, Note_on_c, 9, 38, 0
14, 112704, Note_on_c, 9, 42, 127
14, 112756, Note_on_c, 9, 42, 0
14, 112896, Note_on_c, 9, 36, 127
14, 112896, Note_on_c, 9, 42, 127
14, 112960, Note_on_c, 9, 42, 0
14, 113016, Note_on_c, 9, 36, 0
14, 113088, Note_on_c, 9, 42, 127
14, 113136, Note_on_c, 9, 42, 0
14, 113280, Note_on_c, 9, 38, 127
14, 113280, Note_on_c, 9, 42, 127
14, 113340, Note_on_c, 9, 42, 0
14, 113380, Note_on_c, 9, 38, 0
14, 113472, Note_on_c, 9, 46, 127
14, 113528, Note_on_c, 9, 46, 0
14, 113664, Note_on_c, 9, 36, 127
14, 113664, Note_on_c, 9, 42, 127
14, 113724, Note_on_c, 9, 42, 0
14, 113756, Note_on_c, 9, 36, 0
14, 113856, Note_on_c, 9, 42, 127
14, 113908, Note_on_c, 9, 42, 0
14, 114048, Note_on_c, 9, 38, 127
14, 114048, Note_on_c, 9, 42, 127
14, 114108, Note_on_c, 9, 42, 0
14, 114176, Note_on_c, 9, 38, 0
14, 114240, Note_on_c, 9, 42, 127
14, 114296, Note_on_c, 9, 42, 0
14, 114432, Note_on_c, 9, 36, 127
14, 114432, Note_on_c, 9, 42, 127
14, 114496, Note_on_c, 9, 42, 0
14, 114552, Note_on_c, 9, 36, 0
14, 114624, Note_on_c, 9, 42, 127
14, 114684, Note_on_c, 9, 42, 0
14, 114816, Note_on_c, 9, 38, 127
14, 114816, Note_on_c, 9, 42, 127
14, 114884, Note_on_c, 9, 42, 0
14, 114936, Note_on_c, 9, 38, 0
14, 115008, Note_on_c, 9, 42, 127
14, 115060, Note_on_c, 9, 42, 0
14, 115200, Note_on_c, 9, 36, 127
14, 115200, Note_on_c, 9, 42, 127
14, 115268, Note_on_c, 9, 42, 0
14, 115348, Note_on_c, 9, 36, 0
14, 115392, Note_on_c, 9, 42, 127
14, 115452, Note_on_c, 9, 42, 0
14, 115584, Note_on_c, 9, 38, 127
14, 115584, Note_on_c, 9, 42, 127
14, 115656, Note_on_c, 9, 42, 0
14, 115696, Note_on_c, 9, 38, 0
14, 115776, Note_on_c, 9, 42, 127
14, 115840, Note_on_c, 9, 42, 0
14, 115968, Note_on_c, 9, 36, 127
14, 115968, Note_on_c, 9, 42, 127
14, 116032, Note_on_c, 9, 42, 0
14, 116100, Note_on_c, 9, 36, 0
14, 116160, Note_on_c, 9, 42, 127
14, 116220, Note_on_c, 9, 42, 0
14, 116352, Note_on_c, 9, 38, 127
14, 116352, Note_on_c, 9, 42, 127
14, 116416, Note_on_c, 9, 42, 0
14, 116456, Note_on_c, 9, 38, 0
14, 116544, Note_on_c, 9, 42, 127
14, 116600, Note_on_c, 9, 42, 0
14, 116736, Note_on_c, 9, 36, 127
14, 116736, Note_on_c, 9, 42, 127
14, 116800, Note_on_c, 9, 42, 0
14, 116852, Note_on_c, 9, 36, 0
14, 116928, Note_on_c, 9, 42, 127
14, 116984, Note_on_c, 9, 42, 0
14, 117120, Note_on_c, 9, 38, 127
14, 117120, Note_on_c, 9, 42, 127
14, 117192, Note_on_c, 9, 42, 0
14, 117240, Note_on_c, 9, 38, 0
14, 117312, Note_on_c, 9, 42, 127
14, 117372, Note_on_c, 9, 42, 0
14, 117504, Note_on_c, 9, 36, 127
14, 117504, Note_on_c, 9, 42, 127
14, 117568, Note_on_c, 9, 42, 0
14, 117640, Note_on_c, 9, 36, 0
14, 117696, Note_on_c, 9, 42, 127
14, 117756, Note_on_c, 9, 42, 0
14, 117888, Note_on_c, 9, 38, 127
14, 117888, Note_on_c, 9, 42, 127
14, 117952, Note_on_c, 9, 42, 0
14, 117992, Note_on_c, 9, 38, 0
14, 118080, Note_on_c, 9, 42, 127
14, 118136, Note_on_c, 9, 42, 0
14, 118272, Note_on_c, 9, 36, 127
14, 118272, Note_on_c, 9, 42, 127
14, 118332, Note_on_c, 9, 42, 0
14, 118416, Note_on_c, 9, 36, 0
14, 118464, Note_on_c, 9, 42, 127
14, 118524, Note_on_c, 9, 42, 0
14, 118656, Note_on_c, 9, 38, 127
14, 118656, Note_on_c, 9, 42, 127
14, 118716, Note_on_c, 9, 42, 0
14, 118772, Note_on_c, 9, 38, 0
14, 118848, Note_on_c, 9, 42, 127
14, 118904, Note_on_c, 9, 42, 0
14, 119040, Note_on_c, 9, 36, 127
14, 119040, Note_on_c, 9, 42, 127
14, 119100, Note_on_c, 9, 42, 0
14, 119160, Note_on_c, 9, 36, 0
14, 119232, Note_on_c, 9, 46, 127
14, 119288, Note_on_c, 9, 46, 0
14, 119424, Note_on_c, 9, 38, 127
14, 119424, Note_on_c, 9, 42, 127
14, 119480, Note_on_c, 9, 42, 0
14, 119508, Note_on_c, 9, 38, 0
14, 119616, Note_on_c, 9, 36, 127
14, 119616, Note_on_c, 9, 42, 127
14, 119672, Note_on_c, 9, 42, 0
14, 119692, Note_on_c, 9, 36, 0
14, 119808, Note_on_c, 9, 36, 127
14, 119808, Note_on_c, 9, 42, 127
14, 119868, Note_on_c, 9, 42, 0
14, 120000, Note_on_c, 9, 36, 0
14, 120000, Note_on_c, 9, 42, 127
14, 120044, Note_on_c, 9, 42, 0
14, 120192, Note_on_c, 9, 38, 127
14, 120192, Note_on_c, 9, 42, 127
14, 120256, Note_on_c, 9, 42, 0
14, 120268, Note_on_c, 9, 38, 0
14, 120384, Note_on_c, 9, 42, 127
14, 120428, Note_on_c, 9, 42, 0
14, 120576, Note_on_c, 9, 36, 127
14, 120576, Note_on_c, 9, 42, 127
14, 120636, Note_on_c, 9, 42, 0
14, 120704, Note_on_c, 9, 36, 0
14, 120768, Note_on_c, 9, 42, 127
14, 120816, Note_on_c, 9, 42, 0
14, 120960, Note_on_c, 9, 38, 127
14, 120960, Note_on_c, 9, 42, 127
14, 121024, Note_on_c, 9, 42, 0
14, 121040, Note_on_c, 9, 38, 0
14, 121152, Note_on_c, 9, 42, 127
14, 121208, Note_on_c, 9, 42, 0
14, 121344, Note_on_c, 9, 36, 127
14, 121344, Note_on_c, 9, 42, 127
14, 121408, Note_on_c, 9, 42, 0
14, 121508, Note_on_c, 9, 36, 0
14, 121536, Note_on_c, 9, 42, 127
14, 121592, Note_on_c, 9, 42, 0
14, 121728, Note_on_c, 9, 38, 127
14, 121728, Note_on_c, 9, 42, 127
14, 121796, Note_on_c, 9, 42, 0
14, 121808, Note_on_c, 9, 38, 0
14, 121920, Note_on_c, 9, 42, 127
14, 121980, Note_on_c, 9, 42, 0
14, 122112, Note_on_c, 9, 36, 127
14, 122112, Note_on_c, 9, 42, 127
14, 122176, Note_on_c, 9, 42, 0
14, 122272, Note_on_c, 9, 36, 0
14, 122304, Note_on_c, 9, 42, 127
14, 122360, Note_on_c, 9, 42, 0
14, 122496, Note_on_c, 9, 38, 127
14, 122496, Note_on_c, 9, 42, 127
14, 122564, Note_on_c, 9, 42, 0
14, 122596, Note_on_c, 9, 38, 0
14, 122688, Note_on_c, 9, 42, 127
14, 122744, Note_on_c, 9, 42, 0
14, 122880, Note_on_c, 9, 36, 127
14, 122880, Note_on_c, 9, 42, 127
14, 122940, Note_on_c, 9, 42, 0
14, 122988, Note_on_c, 9, 36, 0
14, 123072, Note_on_c, 9, 42, 127
14, 123124, Note_on_c, 9, 42, 0
14, 123264, Note_on_c, 9, 38, 127
14, 123264, Note_on_c, 9, 42, 127
14, 123324, Note_on_c, 9, 42, 0
14, 123360, Note_on_c, 9, 38, 0
14, 123456, Note_on_c, 9, 42, 127
14, 123508, Note_on_c, 9, 42, 0
14, 123648, Note_on_c, 9, 36, 127
14, 123648, Note_on_c, 9, 42, 127
14, 123712, Note_on_c, 9, 42, 0
14, 123764, Note_on_c, 9, 36, 0
14, 123840, Note_on_c, 9, 42, 127
14, 123892, Note_on_c, 9, 42, 0
14, 124032, Note_on_c, 9, 38, 127
14, 124032, Note_on_c, 9, 42, 127
14, 124096, Note_on_c, 9, 42, 0
14, 124140, Note_on_c, 9, 38, 0
14, 124224, Note_on_c, 9, 42, 127
14, 124276, Note_on_c, 9, 42, 0
14, 124416, Note_on_c, 9, 36, 127
14, 124416, Note_on_c, 9, 42, 127
14, 124480, Note_on_c, 9, 42, 0
14, 124548, Note_on_c, 9, 36, 0
14, 124608, Note_on_c, 9, 42, 127
14, 124660, Note_on_c, 9, 42, 0
14, 124800, Note_on_c, 9, 38, 127
14, 124800, Note_on_c, 9, 42, 127
14, 124864, Note_on_c, 9, 42, 0
14, 124912, Note_on_c, 9, 38, 0
14, 124992, Note_on_c, 9, 42, 127
14, 125044, Note_on_c, 9, 42, 0
14, 125184, Note_on_c, 9, 36, 127
14, 125184, Note_on_c, 9, 42, 127
14, 125248, Note_on_c, 9, 42, 0
14, 125304, Note_on_c, 9, 36, 0
14, 125376, Note_on_c, 9, 42, 127
14, 125424, Note_on_c, 9, 42, 0
14, 125568, Note_on_c, 9, 38, 127
14, 125568, Note_on_c, 9, 42, 127
14, 125628, Note_on_c, 9, 42, 0
14, 125668, Note_on_c, 9, 38, 0
14, 125760, Note_on_c, 9, 36, 127
14, 125760, Note_on_c, 9, 46, 127
14, 125816, Note_on_c, 9, 46, 0
14, 125828, Note_on_c, 9, 36, 0
14, 125952, Note_on_c, 9, 36, 127
14, 125952, Note_on_c, 9, 42, 127
14, 126012, Note_on_c, 9, 42, 0
14, 126044, Note_on_c, 9, 36, 0
14, 126144, Note_on_c, 9, 42, 127
14, 126196, Note_on_c, 9, 42, 0
14, 126336, Note_on_c, 9, 38, 127
14, 126336, Note_on_c, 9, 42, 127
14, 126396, Note_on_c, 9, 42, 0
14, 126464, Note_on_c, 9, 38, 0
14, 126528, Note_on_c, 9, 42, 127
14, 126584, Note_on_c, 9, 42, 0
14, 126720, Note_on_c, 9, 36, 127
14, 126720, Note_on_c, 9, 42, 127
14, 126784, Note_on_c, 9, 42, 0
14, 126840, Note_on_c, 9, 36, 0
14, 126912, Note_on_c, 9, 42, 127
14, 126972, Note_on_c, 9, 42, 0
14, 127104, Note_on_c, 9, 38, 127
14, 127104, Note_on_c, 9, 42, 127
14, 127172, Note_on_c, 9, 42, 0
14, 127224, Note_on_c, 9, 38, 0
14, 127296, Note_on_c, 9, 42, 127
14, 127348, Note_on_c, 9, 42, 0
14, 127488, Note_on_c, 9, 36, 127
14, 127488, Note_on_c, 9, 42, 127
14, 127556, Note_on_c, 9, 42, 0
14, 127636, Note_on_c, 9, 36, 0
14, 127680, Note_on_c, 9, 42, 127
14, 127740, Note_on_c, 9, 42, 0
14, 127872, Note_on_c, 9, 38, 127
14, 127872, Note_on_c, 9, 42, 127
14, 127944, Note_on_c, 9, 42, 0
14, 127984, Note_on_c, 9, 38, 0
14, 128064, Note_on_c, 9, 42, 127
14, 128128, Note_on_c, 9, 42, 0
14, 128256, Note_on_c, 9, 36, 127
14, 128256, Note_on_c, 9, 42, 127
14, 128320, Note_on_c, 9, 42, 0
14, 128388, Note_on_c, 9, 36, 0
14, 128448, Note_on_c, 9, 42, 127
14, 128508, Note_on_c, 9, 42, 0
14, 128640, Note_on_c, 9, 38, 127
14, 128640, Note_on_c, 9, 42, 127
14, 128704, Note_on_c, 9, 42, 0
14, 128744, Note_on_c, 9, 38, 0
14, 128832, Note_on_c, 9, 42, 127
14, 128888, Note_on_c, 9, 42, 0
14, 129024, Note_on_c, 9, 36, 127
14, 129024, Note_on_c, 9, 42, 127
14, 129088, Note_on_c, 9, 42, 0
14, 129140, Note_on_c, 9, 36, 0
14, 129216, Note_on_c, 9, 42, 127
14, 129272, Note_on_c, 9, 42, 0
14, 129408, Note_on_c, 9, 38, 127
14, 129408, Note_on_c, 9, 42, 127
14, 129480, Note_on_c, 9, 42, 0
14, 129528, Note_on_c, 9, 38, 0
14, 129600, Note_on_c, 9, 42, 127
14, 129660, Note_on_c, 9, 42, 0
14, 129792, Note_on_c, 9, 36, 127
14, 129792, Note_on_c, 9, 42, 127
14, 129856, Note_on_c, 9, 42, 0
14, 129928, Note_on_c, 9, 36, 0
14, 129984, Note_on_c, 9, 42, 127
14, 130044, Note_on_c, 9, 42, 0
14, 130176, Note_on_c, 9, 38, 127
14, 130176, Note_on_c, 9, 42, 127
14, 130240, Note_on_c, 9, 42, 0
14, 130280, Note_on_c, 9, 38, 0
14, 130368, Note_on_c, 9, 42, 127
14, 130424, Note_on_c, 9, 42, 0
14, 130560, Note_on_c, 9, 36, 127
14, 130560, Note_on_c, 9, 42, 127
14, 130620, Note_on_c, 9, 42, 0
14, 130704, Note_on_c, 9, 36, 0
14, 130752, Note_on_c, 9, 42, 127
14, 130812, Note_on_c, 9, 42, 0
14, 130944, Note_on_c, 9, 38, 127
14, 130944, Note_on_c, 9, 42, 127
14, 131004, Note_on_c, 9, 42, 0
14, 131016, Note_on_c, 9, 38, 0
14, 131136, Note_on_c, 9, 42, 127
14, 131192, Note_on_c, 9, 42, 0
14, 131328, Note_on_c, 9, 36, 127
14, 131328, Note_on_c, 9, 42, 127
14, 131388, Note_on_c, 9, 42, 0
14, 131448, Note_on_c, 9, 36, 0
14, 131520, Note_on_c, 9, 42, 127
14, 131572, Note_on_c, 9, 42, 0
14, 131616, Note_on_c, 9, 38, 120
14, 131700, Note_on_c, 9, 38, 0
14, 131712, Note_on_c, 9, 38, 127
14, 131796, Note_on_c, 9, 38, 0
14, 131904, Note_on_c, 9, 36, 127
14, 131980, Note_on_c, 9, 36, 0
14, 132096, Note_on_c, 9, 36, 127
14, 132096, Note_on_c, 9, 49, 127
14, 132144, Note_on_c, 9, 49, 0
14, 132288, Note_on_c, 9, 36, 0
14, 132288, Note_on_c, 9, 42, 127
14, 132332, Note_on_c, 9, 42, 0
14, 132480, Note_on_c, 9, 38, 127
14, 132480, Note_on_c, 9, 42, 127
14, 132544, Note_on_c, 9, 42, 0
14, 132556, Note_on_c, 9, 38, 0
14, 132672, Note_on_c, 9, 42, 127
14, 132716, Note_on_c, 9, 42, 0
14, 132864, Note_on_c, 9, 36, 127
14, 132864, Note_on_c, 9, 42, 127
14, 132924, Note_on_c, 9, 42, 0
14, 132992, Note_on_c, 9, 36, 0
14, 133056, Note_on_c, 9, 42, 127
14, 133104, Note_on_c, 9, 42, 0
14, 133248, Note_on_c, 9, 38, 127
14, 133248, Note_on_c, 9, 42, 127
14, 133312, Note_on_c, 9, 42, 0
14, 133328, Note_on_c, 9, 38, 0
14, 133440, Note_on_c, 9, 46, 127
14, 133488, Note_on_c, 9, 46, 0
14, 133632, Note_on_c, 9, 36, 127
14, 133632, Note_on_c, 9, 42, 127
14, 133696, Note_on_c, 9, 42, 0
14, 133796, Note_on_c, 9, 36, 0
14, 133824, Note_on_c, 9, 42, 127
14, 133880, Note_on_c, 9, 42, 0
14, 134016, Note_on_c, 9, 38, 127
14, 134016, Note_on_c, 9, 42, 127
14, 134084, Note_on_c, 9, 42, 0
14, 134096, Note_on_c, 9, 38, 0
14, 134208, Note_on_c, 9, 42, 127
14, 134268, Note_on_c, 9, 42, 0
14, 134400, Note_on_c, 9, 36, 127
14, 134400, Note_on_c, 9, 42, 127
14, 134464, Note_on_c, 9, 42, 0
14, 134560, Note_on_c, 9, 36, 0
14, 134592, Note_on_c, 9, 42, 127
14, 134648, Note_on_c, 9, 42, 0
14, 134784, Note_on_c, 9, 38, 127
14, 134784, Note_on_c, 9, 42, 127
14, 134852, Note_on_c, 9, 42, 0
14, 134884, Note_on_c, 9, 38, 0
14, 134976, Note_on_c, 9, 42, 127
14, 135032, Note_on_c, 9, 42, 0
14, 135168, Note_on_c, 9, 36, 127
14, 135168, Note_on_c, 9, 42, 127
14, 135228, Note_on_c, 9, 42, 0
14, 135276, Note_on_c, 9, 36, 0
14, 135360, Note_on_c, 9, 42, 127
14, 135412, Note_on_c, 9, 42, 0
14, 135552, Note_on_c, 9, 38, 127
14, 135552, Note_on_c, 9, 42, 127
14, 135612, Note_on_c, 9, 42, 0
14, 135648, Note_on_c, 9, 38, 0
14, 135744, Note_on_c, 9, 42, 127
14, 135796, Note_on_c, 9, 42, 0
14, 135936, Note_on_c, 9, 36, 127
14, 135936, Note_on_c, 9, 42, 127
14, 136000, Note_on_c, 9, 42, 0
14, 136052, Note_on_c, 9, 36, 0
14, 136128, Note_on_c, 9, 42, 127
14, 136180, Note_on_c, 9, 42, 0
14, 136320, Note_on_c, 9, 38, 127
14, 136320, Note_on_c, 9, 42, 127
14, 136384, Note_on_c, 9, 42, 0
14, 136428, Note_on_c, 9, 38, 0
14, 136512, Note_on_c, 9, 42, 127
14, 136564, Note_on_c, 9, 42, 0
14, 136704, Note_on_c, 9, 36, 127
14, 136704, Note_on_c, 9, 42, 127
14, 136768, Note_on_c, 9, 42, 0
14, 136836, Note_on_c, 9, 36, 0
14, 136896, Note_on_c, 9, 42, 127
14, 136948, Note_on_c, 9, 42, 0
14, 137088, Note_on_c, 9, 38, 127
14, 137088, Note_on_c, 9, 42, 127
14, 137152, Note_on_c, 9, 42, 0
14, 137200, Note_on_c, 9, 38, 0
14, 137280, Note_on_c, 9, 42, 127
14, 137332, Note_on_c, 9, 42, 0
14, 137472, Note_on_c, 9, 36, 127
14, 137472, Note_on_c, 9, 42, 127
14, 137536, Note_on_c, 9, 42, 0
14, 137592, Note_on_c, 9, 36, 0
14, 137664, Note_on_c, 9, 42, 127
14, 137712, Note_on_c, 9, 42, 0
14, 137856, Note_on_c, 9, 38, 127
14, 137856, Note_on_c, 9, 42, 127
14, 137916, Note_on_c, 9, 42, 0
14, 137956, Note_on_c, 9, 38, 0
14, 138048, Note_on_c, 9, 46, 127
14, 138104, Note_on_c, 9, 46, 0
14, 138240, Note_on_c, 9, 36, 127
14, 138240, Note_on_c, 9, 42, 127
14, 138300, Note_on_c, 9, 42, 0
14, 138332, Note_on_c, 9, 36, 0
14, 138432, Note_on_c, 9, 42, 127
14, 138484, Note_on_c, 9, 42, 0
14, 138624, Note_on_c, 9, 38, 127
14, 138624, Note_on_c, 9, 42, 127
14, 138684, Note_on_c, 9, 42, 0
14, 138752, Note_on_c, 9, 38, 0
14, 138816, Note_on_c, 9, 42, 127
14, 138872, Note_on_c, 9, 42, 0
14, 139008, Note_on_c, 9, 36, 127
14, 139008, Note_on_c, 9, 42, 127
14, 139072, Note_on_c, 9, 42, 0
14, 139128, Note_on_c, 9, 36, 0
14, 139200, Note_on_c, 9, 42, 127
14, 139260, Note_on_c, 9, 42, 0
14, 139392, Note_on_c, 9, 38, 127
14, 139392, Note_on_c, 9, 42, 127
14, 139460, Note_on_c, 9, 42, 0
14, 139512, Note_on_c, 9, 38, 0
14, 139584, Note_on_c, 9, 42, 127
14, 139636, Note_on_c, 9, 42, 0
14, 139776, Note_on_c, 9, 36, 127
14, 139776, Note_on_c, 9, 42, 127
14, 139844, Note_on_c, 9, 42, 0
14, 139924, Note_on_c, 9, 36, 0
14, 139968, Note_on_c, 9, 42, 127
14, 140028, Note_on_c, 9, 42, 0
14, 140160, Note_on_c, 9, 38, 127
14, 140160, Note_on_c, 9, 42, 127
14, 140232, Note_on_c, 9, 42, 0
14, 140272, Note_on_c, 9, 38, 0
14, 140352, Note_on_c, 9, 42, 127
14, 140416, Note_on_c, 9, 42, 0
14, 140544, Note_on_c, 9, 36, 127
14, 140544, Note_on_c, 9, 42, 127
14, 140608, Note_on_c, 9, 42, 0
14, 140676, Note_on_c, 9, 36, 0
14, 140736, Note_on_c, 9, 42, 127
14, 140796, Note_on_c, 9, 42, 0
14, 140928, Note_on_c, 9, 38, 127
14, 140928, Note_on_c, 9, 42, 127
14, 140992, Note_on_c, 9, 42, 0
14, 141032, Note_on_c, 9, 38, 0
14, 141120, Note_on_c, 9, 36, 127
14, 141120, Note_on_c, 9, 46, 127
14, 141184, Note_on_c, 9, 46, 0
14, 141184, Note_on_c, 9, 36, 0
14, 141312, Note_on_c, 9, 36, 127
14, 141312, Note_on_c, 9, 42, 127
14, 141376, Note_on_c, 9, 42, 0
14, 141428, Note_on_c, 9, 36, 0
14, 141504, Note_on_c, 9, 42, 127
14, 141560, Note_on_c, 9, 42, 0
14, 141696, Note_on_c, 9, 38, 127
14, 141696, Note_on_c, 9, 42, 127
14, 141768, Note_on_c, 9, 42, 0
14, 141816, Note_on_c, 9, 38, 0
14, 141888, Note_on_c, 9, 42, 127
14, 141948, Note_on_c, 9, 42, 0
14, 142080, Note_on_c, 9, 36, 127
14, 142080, Note_on_c, 9, 42, 127
14, 142144, Note_on_c, 9, 42, 0
14, 142216, Note_on_c, 9, 36, 0
14, 142272, Note_on_c, 9, 42, 127
14, 142332, Note_on_c, 9, 42, 0
14, 142464, Note_on_c, 9, 38, 127
14, 142464, Note_on_c, 9, 42, 127
14, 142528, Note_on_c, 9, 42, 0
14, 142568, Note_on_c, 9, 38, 0
14, 142656, Note_on_c, 9, 42, 127
14, 142712, Note_on_c, 9, 42, 0
14, 142848, Note_on_c, 9, 36, 127
14, 142848, Note_on_c, 9, 42, 127
14, 142908, Note_on_c, 9, 42, 0
14, 142992, Note_on_c, 9, 36, 0
14, 143040, Note_on_c, 9, 42, 127
14, 143100, Note_on_c, 9, 42, 0
14, 143232, Note_on_c, 9, 38, 127
14, 143232, Note_on_c, 9, 42, 127
14, 143292, Note_on_c, 9, 42, 0
14, 143348, Note_on_c, 9, 38, 0
14, 143424, Note_on_c, 9, 42, 127
14, 143480, Note_on_c, 9, 42, 0
14, 143616, Note_on_c, 9, 36, 127
14, 143616, Note_on_c, 9, 42, 127
14, 143676, Note_on_c, 9, 42, 0
14, 143736, Note_on_c, 9, 36, 0
14, 143808, Note_on_c, 9, 42, 127
14, 143860, Note_on_c, 9, 42, 0
14, 144000, Note_on_c, 9, 38, 127
14, 144000, Note_on_c, 9, 42, 127
14, 144056, Note_on_c, 9, 42, 0
14, 144084, Note_on_c, 9, 38, 0
14, 144192, Note_on_c, 9, 36, 127
14, 144192, Note_on_c, 9, 42, 127
14, 144248, Note_on_c, 9, 42, 0
14, 144268, Note_on_c, 9, 36, 0
14, 144384, Note_on_c, 9, 36, 127
14, 144384, Note_on_c, 9, 42, 127
14, 144444, Note_on_c, 9, 42, 0
14, 144576, Note_on_c, 9, 36, 0
14, 144576, Note_on_c, 9, 42, 127
14, 144620, Note_on_c, 9, 42, 0
14, 144768, Note_on_c, 9, 38, 127
14, 144768, Note_on_c, 9, 42, 127
14, 144832, Note_on_c, 9, 42, 0
14, 144844, Note_on_c, 9, 38, 0
14, 144960, Note_on_c, 9, 42, 127
14, 145004, Note_on_c, 9, 42, 0
14, 145152, Note_on_c, 9, 36, 127
14, 145152, Note_on_c, 9, 42, 127
14, 145212, Note_on_c, 9, 42, 0
14, 145280, Note_on_c, 9, 36, 0
14, 145344, Note_on_c, 9, 42, 127
14, 145392, Note_on_c, 9, 42, 0
14, 145536, Note_on_c, 9, 38, 127
14, 145536, Note_on_c, 9, 42, 127
14, 145600, Note_on_c, 9, 42, 0
14, 145616, Note_on_c, 9, 38, 0
14, 145728, Note_on_c, 9, 47, 127
14, 145788, Note_on_c, 9, 47, 0
14, 145824, Note_on_c, 9, 47, 127
14, 145900, Note_on_c, 9, 47, 0
14, 145920, Note_on_c, 9, 36, 127
14, 145920, Note_on_c, 9, 47, 127
14, 145992, Note_on_c, 9, 47, 0
14, 146084, Note_on_c, 9, 36, 0
14, 146112, Note_on_c, 9, 47, 127
14, 146188, Note_on_c, 9, 47, 0
14, 146304, Note_on_c, 9, 43, 127
14, 146376, Note_on_c, 9, 43, 0
14, 146496, Note_on_c, 9, 41, 127
14, 146560, Note_on_c, 9, 41, 0
14, 146688, Note_on_c, 9, 36, 127
14, 146688, Note_on_c, 9, 41, 127
14, 146756, Note_on_c, 9, 41, 0
14, 146848, Note_on_c, 9, 36, 0
14, 146880, Note_on_c, 9, 41, 127
14, 146948, Note_on_c, 9, 41, 0
14, 147052, Note_on_c, 9, 38, 104
14, 147064, Note_on_c, 9, 38, 0
14, 147072, Note_on_c, 9, 38, 127
14, 147156, Note_on_c, 9, 38, 0
14, 147456, Note_on_c, 9, 36, 127
14, 147456, Note_on_c, 9, 49, 127
14, 147520, Note_on_c, 9, 49, 0
14, 147648, Note_on_c, 9, 36, 0
14, 147648, Note_on_c, 9, 42, 127
14, 147692, Note_on_c, 9, 42, 0
14, 147840, Note_on_c, 9, 38, 127
14, 147840, Note_on_c, 9, 42, 127
14, 147904, Note_on_c, 9, 42, 0
14, 147916, Note_on_c, 9, 38, 0
14, 148032, Note_on_c, 9, 42, 127
14, 148076, Note_on_c, 9, 42, 0
14, 148224, Note_on_c, 9, 36, 127
14, 148224, Note_on_c, 9, 42, 127
14, 148284, Note_on_c, 9, 42, 0
14, 148352, Note_on_c, 9, 36, 0
14, 148416, Note_on_c, 9, 42, 127
14, 148464, Note_on_c, 9, 42, 0
14, 148608, Note_on_c, 9, 38, 127
14, 148608, Note_on_c, 9, 42, 127
14, 148672, Note_on_c, 9, 42, 0
14, 148688, Note_on_c, 9, 38, 0
14, 148800, Note_on_c, 9, 42, 127
14, 148856, Note_on_c, 9, 42, 0
14, 148992, Note_on_c, 9, 36, 127
14, 148992, Note_on_c, 9, 42, 127
14, 149056, Note_on_c, 9, 42, 0
14, 149156, Note_on_c, 9, 36, 0
14, 149184, Note_on_c, 9, 42, 127
14, 149240, Note_on_c, 9, 42, 0
14, 149376, Note_on_c, 9, 38, 127
14, 149376, Note_on_c, 9, 42, 127
14, 149444, Note_on_c, 9, 42, 0
14, 149456, Note_on_c, 9, 38, 0
14, 149568, Note_on_c, 9, 42, 127
14, 149628, Note_on_c, 9, 42, 0
14, 149760, Note_on_c, 9, 36, 127
14, 149760, Note_on_c, 9, 42, 127
14, 149824, Note_on_c, 9, 42, 0
14, 149920, Note_on_c, 9, 36, 0
14, 149952, Note_on_c, 9, 42, 127
14, 150008, Note_on_c, 9, 42, 0
14, 150144, Note_on_c, 9, 38, 127
14, 150144, Note_on_c, 9, 42, 127
14, 150212, Note_on_c, 9, 42, 0
14, 150244, Note_on_c, 9, 38, 0
14, 150336, Note_on_c, 9, 46, 127
14, 150384, Note_on_c, 9, 46, 0
14, 150528, Note_on_c, 9, 36, 127
14, 150528, Note_on_c, 9, 42, 127
14, 150588, Note_on_c, 9, 42, 0
14, 150636, Note_on_c, 9, 36, 0
14, 150720, Note_on_c, 9, 42, 127
14, 150772, Note_on_c, 9, 42, 0
14, 150912, Note_on_c, 9, 38, 127
14, 150912, Note_on_c, 9, 42, 127
14, 150972, Note_on_c, 9, 42, 0
14, 151008, Note_on_c, 9, 38, 0
14, 151104, Note_on_c, 9, 42, 127
14, 151156, Note_on_c, 9, 42, 0
14, 151296, Note_on_c, 9, 36, 127
14, 151296, Note_on_c, 9, 42, 127
14, 151360, Note_on_c, 9, 42, 0
14, 151412, Note_on_c, 9, 36, 0
14, 151488, Note_on_c, 9, 42, 127
14, 151540, Note_on_c, 9, 42, 0
14, 151680, Note_on_c, 9, 38, 127
14, 151680, Note_on_c, 9, 42, 127
14, 151744, Note_on_c, 9, 42, 0
14, 151788, Note_on_c, 9, 38, 0
14, 151872, Note_on_c, 9, 42, 127
14, 151924, Note_on_c, 9, 42, 0
14, 152064, Note_on_c, 9, 36, 127
14, 152064, Note_on_c, 9, 42, 127
14, 152128, Note_on_c, 9, 42, 0
14, 152196, Note_on_c, 9, 36, 0
14, 152256, Note_on_c, 9, 42, 127
14, 152308, Note_on_c, 9, 42, 0
14, 152448, Note_on_c, 9, 38, 127
14, 152448, Note_on_c, 9, 42, 127
14, 152512, Note_on_c, 9, 42, 0
14, 152560, Note_on_c, 9, 38, 0
14, 152640, Note_on_c, 9, 42, 127
14, 152692, Note_on_c, 9, 42, 0
14, 152832, Note_on_c, 9, 36, 127
14, 152832, Note_on_c, 9, 42, 127
14, 152896, Note_on_c, 9, 42, 0
14, 152952, Note_on_c, 9, 36, 0
14, 153024, Note_on_c, 9, 42, 127
14, 153072, Note_on_c, 9, 42, 0
14, 153216, Note_on_c, 9, 38, 127
14, 153216, Note_on_c, 9, 42, 127
14, 153276, Note_on_c, 9, 42, 0
14, 153316, Note_on_c, 9, 38, 0
14, 153408, Note_on_c, 9, 36, 127
14, 153408, Note_on_c, 9, 42, 127
14, 153464, Note_on_c, 9, 42, 0
14, 153476, Note_on_c, 9, 36, 0
14, 153600, Note_on_c, 9, 36, 127
14, 153600, Note_on_c, 9, 42, 127
14, 153660, Note_on_c, 9, 42, 0
14, 153692, Note_on_c, 9, 36, 0
14, 153792, Note_on_c, 9, 42, 127
14, 153844, Note_on_c, 9, 42, 0
14, 153984, Note_on_c, 9, 38, 127
14, 153984, Note_on_c, 9, 42, 127
14, 154044, Note_on_c, 9, 42, 0
14, 154112, Note_on_c, 9, 38, 0
14, 154176, Note_on_c, 9, 42, 127
14, 154232, Note_on_c, 9, 42, 0
14, 154368, Note_on_c, 9, 36, 127
14, 154368, Note_on_c, 9, 42, 127
14, 154432, Note_on_c, 9, 42, 0
14, 154488, Note_on_c, 9, 36, 0
14, 154560, Note_on_c, 9, 42, 127
14, 154620, Note_on_c, 9, 42, 0
14, 154752, Note_on_c, 9, 38, 127
14, 154752, Note_on_c, 9, 42, 127
14, 154820, Note_on_c, 9, 42, 0
14, 154872, Note_on_c, 9, 38, 0
14, 154944, Note_on_c, 9, 42, 127
14, 154996, Note_on_c, 9, 42, 0
14, 155136, Note_on_c, 9, 36, 127
14, 155136, Note_on_c, 9, 42, 127
14, 155204, Note_on_c, 9, 42, 0
14, 155284, Note_on_c, 9, 36, 0
14, 155328, Note_on_c, 9, 42, 127
14, 155388, Note_on_c, 9, 42, 0
14, 155520, Note_on_c, 9, 38, 127
14, 155520, Note_on_c, 9, 42, 127
14, 155592, Note_on_c, 9, 42, 0
14, 155632, Note_on_c, 9, 38, 0
14, 155712, Note_on_c, 9, 42, 127
14, 155776, Note_on_c, 9, 42, 0
14, 155904, Note_on_c, 9, 36, 127
14, 155904, Note_on_c, 9, 42, 127
14, 155968, Note_on_c, 9, 42, 0
14, 156036, Note_on_c, 9, 36, 0
14, 156096, Note_on_c, 9, 42, 127
14, 156156, Note_on_c, 9, 42, 0
14, 156288, Note_on_c, 9, 38, 127
14, 156288, Note_on_c, 9, 42, 127
14, 156352, Note_on_c, 9, 42, 0
14, 156392, Note_on_c, 9, 38, 0
14, 156480, Note_on_c, 9, 36, 127
14, 156480, Note_on_c, 9, 42, 127
14, 156536, Note_on_c, 9, 42, 0
14, 156544, Note_on_c, 9, 36, 0
14, 156672, Note_on_c, 9, 36, 127
14, 156672, Note_on_c, 9, 42, 127
14, 156736, Note_on_c, 9, 42, 0
14, 156788, Note_on_c, 9, 36, 0
14, 156864, Note_on_c, 9, 42, 127
14, 156920, Note_on_c, 9, 42, 0
14, 157056, Note_on_c, 9, 38, 127
14, 157056, Note_on_c, 9, 42, 127
14, 157128, Note_on_c, 9, 42, 0
14, 157176, Note_on_c, 9, 38, 0
14, 157248, Note_on_c, 9, 42, 127
14, 157308, Note_on_c, 9, 42, 0
14, 157440, Note_on_c, 9, 36, 127
14, 157440, Note_on_c, 9, 42, 127
14, 157504, Note_on_c, 9, 42, 0
14, 157576, Note_on_c, 9, 36, 0
14, 157632, Note_on_c, 9, 42, 127
14, 157692, Note_on_c, 9, 42, 0
14, 157824, Note_on_c, 9, 38, 127
14, 157824, Note_on_c, 9, 42, 127
14, 157888, Note_on_c, 9, 42, 0
14, 157928, Note_on_c, 9, 38, 0
14, 158016, Note_on_c, 9, 42, 127
14, 158072, Note_on_c, 9, 42, 0
14, 158208, Note_on_c, 9, 36, 127
14, 158208, Note_on_c, 9, 42, 127
14, 158268, Note_on_c, 9, 42, 0
14, 158352, Note_on_c, 9, 36, 0
14, 158400, Note_on_c, 9, 42, 127
14, 158460, Note_on_c, 9, 42, 0
14, 158592, Note_on_c, 9, 38, 127
14, 158592, Note_on_c, 9, 42, 127
14, 158652, Note_on_c, 9, 42, 0
14, 158708, Note_on_c, 9, 38, 0
14, 158784, Note_on_c, 9, 42, 127
14, 158840, Note_on_c, 9, 42, 0
14, 158976, Note_on_c, 9, 36, 127
14, 158976, Note_on_c, 9, 42, 127
14, 159036, Note_on_c, 9, 42, 0
14, 159096, Note_on_c, 9, 36, 0
14, 159168, Note_on_c, 9, 42, 127
14, 159220, Note_on_c, 9, 42, 0
14, 159264, Note_on_c, 9, 38, 127
14, 159348, Note_on_c, 9, 38, 0
14, 159360, Note_on_c, 9, 38, 127
14, 159360, Note_on_c, 9, 42, 127
14, 159416, Note_on_c, 9, 42, 0
14, 159444, Note_on_c, 9, 38, 0
14, 159552, Note_on_c, 9, 36, 127
14, 159552, Note_on_c, 9, 42, 127
14, 159608, Note_on_c, 9, 42, 0
14, 159628, Note_on_c, 9, 36, 0
14, 159744, Note_on_c, 9, 36, 127
14, 159744, Note_on_c, 9, 42, 127
14, 159804, Note_on_c, 9, 42, 0
14, 159936, Note_on_c, 9, 36, 0
14, 159936, Note_on_c, 9, 42, 127
14, 159980, Note_on_c, 9, 42, 0
14, 160128, Note_on_c, 9, 38, 127
14, 160128, Note_on_c, 9, 42, 127
14, 160192, Note_on_c, 9, 42, 0
14, 160204, Note_on_c, 9, 38, 0
14, 160320, Note_on_c, 9, 42, 127
14, 160364, Note_on_c, 9, 42, 0
14, 160512, Note_on_c, 9, 36, 127
14, 160512, Note_on_c, 9, 42, 127
14, 160572, Note_on_c, 9, 42, 0
14, 160640, Note_on_c, 9, 36, 0
14, 160704, Note_on_c, 9, 42, 127
14, 160752, Note_on_c, 9, 42, 0
14, 160896, Note_on_c, 9, 38, 127
14, 160896, Note_on_c, 9, 42, 127
14, 160960, Note_on_c, 9, 42, 0
14, 160976, Note_on_c, 9, 38, 0
14, 161088, Note_on_c, 9, 42, 127
14, 161144, Note_on_c, 9, 42, 0
14, 161280, Note_on_c, 9, 36, 127
14, 161280, Note_on_c, 9, 42, 127
14, 161344, Note_on_c, 9, 42, 0
14, 161444, Note_on_c, 9, 36, 0
14, 161472, Note_on_c, 9, 42, 127
14, 161528, Note_on_c, 9, 42, 0
14, 161664, Note_on_c, 9, 38, 127
14, 161664, Note_on_c, 9, 42, 127
14, 161732, Note_on_c, 9, 42, 0
14, 161744, Note_on_c, 9, 38, 0
14, 161856, Note_on_c, 9, 42, 127
14, 161916, Note_on_c, 9, 42, 0
14, 162048, Note_on_c, 9, 36, 127
14, 162048, Note_on_c, 9, 42, 127
14, 162112, Note_on_c, 9, 42, 0
14, 162208, Note_on_c, 9, 36, 0
14, 162240, Note_on_c, 9, 42, 127
14, 162296, Note_on_c, 9, 42, 0
14, 162432, Note_on_c, 9, 38, 127
14, 162432, Note_on_c, 9, 42, 127
14, 162500, Note_on_c, 9, 42, 0
14, 162532, Note_on_c, 9, 38, 0
14, 162624, Note_on_c, 9, 46, 127
14, 162672, Note_on_c, 9, 46, 0
14, 162816, Note_on_c, 9, 36, 127
14, 162816, Note_on_c, 9, 42, 127
14, 162876, Note_on_c, 9, 42, 0
14, 162924, Note_on_c, 9, 36, 0
14, 163008, Note_on_c, 9, 42, 127
14, 163060, Note_on_c, 9, 42, 0
14, 163200, Note_on_c, 9, 38, 127
14, 163200, Note_on_c, 9, 42, 127
14, 163260, Note_on_c, 9, 42, 0
14, 163296, Note_on_c, 9, 38, 0
14, 163392, Note_on_c, 9, 42, 127
14, 163444, Note_on_c, 9, 42, 0
14, 163584, Note_on_c, 9, 36, 127
14, 163584, Note_on_c, 9, 42, 127
14, 163648, Note_on_c, 9, 42, 0
14, 163700, Note_on_c, 9, 36, 0
14, 163776, Note_on_c, 9, 42, 127
14, 163828, Note_on_c, 9, 42, 0
14, 163968, Note_on_c, 9, 38, 127
14, 163968, Note_on_c, 9, 42, 127
14, 164032, Note_on_c, 9, 42, 0
14, 164076, Note_on_c, 9, 38, 0
14, 164160, Note_on_c, 9, 42, 127
14, 164212, Note_on_c, 9, 42, 0
14, 164352, Note_on_c, 9, 36, 127
14, 164352, Note_on_c, 9, 42, 127
14, 164416, Note_on_c, 9, 42, 0
14, 164484, Note_on_c, 9, 36, 0
14, 164544, Note_on_c, 9, 42, 127
14, 164596, Note_on_c, 9, 42, 0
14, 164736, Note_on_c, 9, 38, 127
14, 164736, Note_on_c, 9, 42, 127
14, 164800, Note_on_c, 9, 42, 0
14, 164848, Note_on_c, 9, 38, 0
14, 164928, Note_on_c, 9, 42, 127
14, 164980, Note_on_c, 9, 42, 0
14, 165120, Note_on_c, 9, 36, 127
14, 165120, Note_on_c, 9, 42, 127
14, 165184, Note_on_c, 9, 42, 0
14, 165240, Note_on_c, 9, 36, 0
14, 165312, Note_on_c, 9, 42, 127
14, 165360, Note_on_c, 9, 42, 0
14, 165504, Note_on_c, 9, 38, 127
14, 165504, Note_on_c, 9, 42, 127
14, 165564, Note_on_c, 9, 42, 0
14, 165604, Note_on_c, 9, 38, 0
14, 165696, Note_on_c, 9, 36, 127
14, 165760, Note_on_c, 9, 36, 0
14, 165888, Note_on_c, 9, 36, 127
14, 165888, Note_on_c, 9, 42, 127
14, 165948, Note_on_c, 9, 42, 0
14, 165980, Note_on_c, 9, 36, 0
14, 166080, Note_on_c, 9, 42, 127
14, 166132, Note_on_c, 9, 42, 0
14, 166272, Note_on_c, 9, 38, 127
14, 166272, Note_on_c, 9, 42, 127
14, 166332, Note_on_c, 9, 42, 0
14, 166400, Note_on_c, 9, 38, 0
14, 166464, Note_on_c, 9, 42, 127
14, 166520, Note_on_c, 9, 42, 0
14, 166656, Note_on_c, 9, 36, 127
14, 166656, Note_on_c, 9, 42, 127
14, 166720, Note_on_c, 9, 42, 0
14, 166776, Note_on_c, 9, 36, 0
14, 166848, Note_on_c, 9, 42, 127
14, 166908, Note_on_c, 9, 42, 0
14, 167040, Note_on_c, 9, 38, 127
14, 167040, Note_on_c, 9, 42, 127
14, 167108, Note_on_c, 9, 42, 0
14, 167160, Note_on_c, 9, 38, 0
14, 167232, Note_on_c, 9, 42, 127
14, 167284, Note_on_c, 9, 42, 0
14, 167424, Note_on_c, 9, 36, 127
14, 167424, Note_on_c, 9, 42, 127
14, 167492, Note_on_c, 9, 42, 0
14, 167572, Note_on_c, 9, 36, 0
14, 167616, Note_on_c, 9, 42, 127
14, 167676, Note_on_c, 9, 42, 0
14, 167808, Note_on_c, 9, 38, 127
14, 167808, Note_on_c, 9, 42, 127
14, 167880, Note_on_c, 9, 42, 0
14, 167920, Note_on_c, 9, 38, 0
14, 168000, Note_on_c, 9, 42, 127
14, 168064, Note_on_c, 9, 42, 0
14, 168192, Note_on_c, 9, 36, 127
14, 168192, Note_on_c, 9, 42, 127
14, 168256, Note_on_c, 9, 42, 0
14, 168324, Note_on_c, 9, 36, 0
14, 168384, Note_on_c, 9, 42, 127
14, 168444, Note_on_c, 9, 42, 0
14, 168576, Note_on_c, 9, 38, 127
14, 168576, Note_on_c, 9, 42, 127
14, 168640, Note_on_c, 9, 42, 0
14, 168680, Note_on_c, 9, 38, 0
14, 168768, Note_on_c, 9, 36, 127
14, 168768, Note_on_c, 9, 46, 127
14, 168832, Note_on_c, 9, 46, 0
14, 168832, Note_on_c, 9, 36, 0
14, 168960, Note_on_c, 9, 36, 127
14, 168960, Note_on_c, 9, 42, 127
14, 169024, Note_on_c, 9, 42, 0
14, 169076, Note_on_c, 9, 36, 0
14, 169152, Note_on_c, 9, 42, 127
14, 169208, Note_on_c, 9, 42, 0
14, 169344, Note_on_c, 9, 38, 127
14, 169344, Note_on_c, 9, 42, 127
14, 169416, Note_on_c, 9, 42, 0
14, 169464, Note_on_c, 9, 38, 0
14, 169536, Note_on_c, 9, 42, 127
14, 169596, Note_on_c, 9, 42, 0
14, 169728, Note_on_c, 9, 36, 127
14, 169728, Note_on_c, 9, 42, 127
14, 169792, Note_on_c, 9, 42, 0
14, 169864, Note_on_c, 9, 36, 0
14, 169920, Note_on_c, 9, 42, 127
14, 169980, Note_on_c, 9, 42, 0
14, 170112, Note_on_c, 9, 38, 127
14, 170112, Note_on_c, 9, 42, 127
14, 170176, Note_on_c, 9, 42, 0
14, 170216, Note_on_c, 9, 38, 0
14, 170304, Note_on_c, 9, 42, 127
14, 170360, Note_on_c, 9, 42, 0
14, 170496, Note_on_c, 9, 36, 127
14, 170496, Note_on_c, 9, 42, 127
14, 170556, Note_on_c, 9, 42, 0
14, 170640, Note_on_c, 9, 36, 0
14, 170688, Note_on_c, 9, 42, 127
14, 170748, Note_on_c, 9, 42, 0
14, 170880, Note_on_c, 9, 38, 127
14, 170880, Note_on_c, 9, 42, 127
14, 170940, Note_on_c, 9, 42, 0
14, 170996, Note_on_c, 9, 38, 0
14, 171072, Note_on_c, 9, 42, 127
14, 171128, Note_on_c, 9, 42, 0
14, 171264, Note_on_c, 9, 36, 127
14, 171264, Note_on_c, 9, 42, 127
14, 171324, Note_on_c, 9, 42, 0
14, 171384, Note_on_c, 9, 36, 0
14, 171456, Note_on_c, 9, 38, 127
14, 171456, Note_on_c, 9, 42, 127
14, 171508, Note_on_c, 9, 42, 0
14, 171540, Note_on_c, 9, 38, 0
14, 171648, Note_on_c, 9, 38, 127
14, 171648, Note_on_c, 9, 42, 127
14, 171704, Note_on_c, 9, 42, 0
14, 171732, Note_on_c, 9, 38, 0
14, 171840, Note_on_c, 9, 36, 127
14, 171840, Note_on_c, 9, 42, 127
14, 171896, Note_on_c, 9, 42, 0
14, 171916, Note_on_c, 9, 36, 0
14, 172032, Note_on_c, 9, 36, 127
14, 172032, Note_on_c, 9, 49, 127
14, 172080, Note_on_c, 9, 49, 0
14, 172224, Note_on_c, 9, 36, 0
14, 172224, Note_on_c, 9, 42, 127
14, 172268, Note_on_c, 9, 42, 0
14, 172416, Note_on_c, 9, 38, 127
14, 172416, Note_on_c, 9, 42, 127
14, 172480, Note_on_c, 9, 42, 0
14, 172492, Note_on_c, 9, 38, 0
14, 172608, Note_on_c, 9, 42, 127
14, 172652, Note_on_c, 9, 42, 0
14, 172800, Note_on_c, 9, 36, 127
14, 172800, Note_on_c, 9, 42, 127
14, 172860, Note_on_c, 9, 42, 0
14, 172928, Note_on_c, 9, 36, 0
14, 172992, Note_on_c, 9, 42, 127
14, 173040, Note_on_c, 9, 42, 0
14, 173184, Note_on_c, 9, 38, 127
14, 173184, Note_on_c, 9, 42, 127
14, 173248, Note_on_c, 9, 42, 0
14, 173264, Note_on_c, 9, 38, 0
14, 173376, Note_on_c, 9, 42, 127
14, 173424, Note_on_c, 9, 42, 0
14, 173568, Note_on_c, 9, 36, 127
14, 173568, Note_on_c, 9, 47, 127
14, 173628, Note_on_c, 9, 47, 0
14, 173664, Note_on_c, 9, 47, 127
14, 173732, Note_on_c, 9, 36, 0
14, 173740, Note_on_c, 9, 47, 0
14, 173760, Note_on_c, 9, 43, 127
14, 173832, Note_on_c, 9, 43, 0
14, 173952, Note_on_c, 9, 47, 127
14, 174028, Note_on_c, 9, 47, 0
14, 174144, Note_on_c, 9, 43, 127
14, 174216, Note_on_c, 9, 43, 0
14, 174336, Note_on_c, 9, 41, 127
14, 174404, Note_on_c, 9, 41, 0
14, 174528, Note_on_c, 9, 41, 127
14, 174596, Note_on_c, 9, 41, 0
14, 174700, Note_on_c, 9, 38, 104
14, 174712, Note_on_c, 9, 38, 0
14, 174720, Note_on_c, 9, 38, 127
14, 174720, Note_on_c, 9, 46, 127
14, 174784, Note_on_c, 9, 46, 0
14, 174804, Note_on_c, 9, 38, 0
14, 175104, Note_on_c, 9, 36, 127
14, 175104, Note_on_c, 9, 49, 127
14, 175168, Note_on_c, 9, 49, 0
14, 175296, Note_on_c, 9, 36, 0
14, 175296, Note_on_c, 9, 42, 127
14, 175340, Note_on_c, 9, 42, 0
14, 175488, Note_on_c, 9, 38, 127
14, 175488, Note_on_c, 9, 42, 127
14, 175552, Note_on_c, 9, 42, 0
14, 175564, Note_on_c, 9, 38, 0
14, 175680, Note_on_c, 9, 42, 127
14, 175724, Note_on_c, 9, 42, 0
14, 175872, Note_on_c, 9, 36, 127
14, 175872, Note_on_c, 9, 42, 127
14, 175932, Note_on_c, 9, 42, 0
14, 176000, Note_on_c, 9, 36, 0
14, 176064, Note_on_c, 9, 42, 127
14, 176112, Note_on_c, 9, 42, 0
14, 176256, Note_on_c, 9, 38, 127
14, 176256, Note_on_c, 9, 42, 127
14, 176320, Note_on_c, 9, 42, 0
14, 176336, Note_on_c, 9, 38, 0
14, 176448, Note_on_c, 9, 42, 127
14, 176504, Note_on_c, 9, 42, 0
14, 176640, Note_on_c, 9, 36, 127
14, 176640, Note_on_c, 9, 42, 127
14, 176704, Note_on_c, 9, 42, 0
14, 176804, Note_on_c, 9, 36, 0
14, 176832, Note_on_c, 9, 42, 127
14, 176888, Note_on_c, 9, 42, 0
14, 177024, Note_on_c, 9, 38, 127
14, 177024, Note_on_c, 9, 42, 127
14, 177092, Note_on_c, 9, 42, 0
14, 177104, Note_on_c, 9, 38, 0
14, 177216, Note_on_c, 9, 42, 127
14, 177276, Note_on_c, 9, 42, 0
14, 177408, Note_on_c, 9, 36, 127
14, 177408, Note_on_c, 9, 42, 127
14, 177472, Note_on_c, 9, 42, 0
14, 177568, Note_on_c, 9, 36, 0
14, 177600, Note_on_c, 9, 42, 127
14, 177656, Note_on_c, 9, 42, 0
14, 177792, Note_on_c, 9, 38, 127
14, 177792, Note_on_c, 9, 42, 127
14, 177860, Note_on_c, 9, 42, 0
14, 177892, Note_on_c, 9, 38, 0
14, 177984, Note_on_c, 9, 36, 127
14, 177984, Note_on_c, 9, 42, 127
14, 178040, Note_on_c, 9, 42, 0
14, 178056, Note_on_c, 9, 36, 0
14, 178176, Note_on_c, 9, 36, 127
14, 178176, Note_on_c, 9, 42, 127
14, 178236, Note_on_c, 9, 42, 0
14, 178284, Note_on_c, 9, 36, 0
14, 178368, Note_on_c, 9, 42, 127
14, 178420, Note_on_c, 9, 42, 0
14, 178560, Note_on_c, 9, 38, 127
14, 178560, Note_on_c, 9, 42, 127
14, 178620, Note_on_c, 9, 42, 0
14, 178656, Note_on_c, 9, 38, 0
14, 178752, Note_on_c, 9, 42, 127
14, 178804, Note_on_c, 9, 42, 0
14, 178944, Note_on_c, 9, 36, 127
14, 178944, Note_on_c, 9, 42, 127
14, 179008, Note_on_c, 9, 42, 0
14, 179060, Note_on_c, 9, 36, 0
14, 179136, Note_on_c, 9, 42, 127
14, 179188, Note_on_c, 9, 42, 0
14, 179328, Note_on_c, 9, 38, 127
14, 179328, Note_on_c, 9, 42, 127
14, 179392, Note_on_c, 9, 42, 0
14, 179436, Note_on_c, 9, 38, 0
14, 179520, Note_on_c, 9, 42, 127
14, 179572, Note_on_c, 9, 42, 0
14, 179712, Note_on_c, 9, 36, 127
14, 179712, Note_on_c, 9, 42, 127
14, 179776, Note_on_c, 9, 42, 0
14, 179844, Note_on_c, 9, 36, 0
14, 179904, Note_on_c, 9, 42, 127
14, 179956, Note_on_c, 9, 42, 0
14, 180096, Note_on_c, 9, 38, 127
14, 180096, Note_on_c, 9, 42, 127
14, 180160, Note_on_c, 9, 42, 0
14, 180208, Note_on_c, 9, 38, 0
14, 180288, Note_on_c, 9, 42, 127
14, 180340, Note_on_c, 9, 42, 0
14, 180480, Note_on_c, 9, 36, 127
14, 180480, Note_on_c, 9, 42, 127
14, 180544, Note_on_c, 9, 42, 0
14, 180600, Note_on_c, 9, 36, 0
14, 180672, Note_on_c, 9, 42, 127
14, 180720, Note_on_c, 9, 42, 0
14, 180864, Note_on_c, 9, 38, 127
14, 180864, Note_on_c, 9, 42, 127
14, 180924, Note_on_c, 9, 42, 0
14, 180964, Note_on_c, 9, 38, 0
14, 181056, Note_on_c, 9, 46, 127
14, 181112, Note_on_c, 9, 46, 0
14, 181248, Note_on_c, 9, 36, 127
14, 181248, Note_on_c, 9, 42, 127
14, 181308, Note_on_c, 9, 42, 0
14, 181340, Note_on_c, 9, 36, 0
14, 181440, Note_on_c, 9, 42, 127
14, 181492, Note_on_c, 9, 42, 0
14, 181632, Note_on_c, 9, 38, 127
14, 181632, Note_on_c, 9, 42, 127
14, 181692, Note_on_c, 9, 42, 0
14, 181760, Note_on_c, 9, 38, 0
14, 181824, Note_on_c, 9, 42, 127
14, 181880, Note_on_c, 9, 42, 0
14, 182016, Note_on_c, 9, 36, 127
14, 182016, Note_on_c, 9, 42, 127
14, 182080, Note_on_c, 9, 42, 0
14, 182136, Note_on_c, 9, 36, 0
14, 182208, Note_on_c, 9, 42, 127
14, 182268, Note_on_c, 9, 42, 0
14, 182400, Note_on_c, 9, 38, 127
14, 182400, Note_on_c, 9, 42, 127
14, 182468, Note_on_c, 9, 42, 0
14, 182520, Note_on_c, 9, 38, 0
14, 182592, Note_on_c, 9, 42, 127
14, 182644, Note_on_c, 9, 42, 0
14, 182784, Note_on_c, 9, 36, 127
14, 182784, Note_on_c, 9, 42, 127
14, 182852, Note_on_c, 9, 42, 0
14, 182932, Note_on_c, 9, 36, 0
14, 182976, Note_on_c, 9, 42, 127
14, 183036, Note_on_c, 9, 42, 0
14, 183168, Note_on_c, 9, 38, 127
14, 183168, Note_on_c, 9, 42, 127
14, 183240, Note_on_c, 9, 42, 0
14, 183280, Note_on_c, 9, 38, 0
14, 183360, Note_on_c, 9, 42, 127
14, 183424, Note_on_c, 9, 42, 0
14, 183552, Note_on_c, 9, 36, 127
14, 183552, Note_on_c, 9, 42, 127
14, 183616, Note_on_c, 9, 42, 0
14, 183684, Note_on_c, 9, 36, 0
14, 183744, Note_on_c, 9, 42, 127
14, 183804, Note_on_c, 9, 42, 0
14, 183936, Note_on_c, 9, 38, 127
14, 183936, Note_on_c, 9, 42, 127
14, 184000, Note_on_c, 9, 42, 0
14, 184040, Note_on_c, 9, 38, 0
14, 184128, Note_on_c, 9, 36, 127
14, 184128, Note_on_c, 9, 42, 127
14, 184180, Note_on_c, 9, 42, 0
14, 184192, Note_on_c, 9, 36, 0
14, 184320, Note_on_c, 9, 36, 127
14, 184320, Note_on_c, 9, 42, 127
14, 184384, Note_on_c, 9, 42, 0
14, 184436, Note_on_c, 9, 36, 0
14, 184512, Note_on_c, 9, 42, 127
14, 184568, Note_on_c, 9, 42, 0
14, 184704, Note_on_c, 9, 38, 127
14, 184704, Note_on_c, 9, 42, 127
14, 184776, Note_on_c, 9, 42, 0
14, 184824, Note_on_c, 9, 38, 0
14, 184896, Note_on_c, 9, 42, 127
14, 184956, Note_on_c, 9, 42, 0
14, 185088, Note_on_c, 9, 36, 127
14, 185088, Note_on_c, 9, 42, 127
14, 185152, Note_on_c, 9, 42, 0
14, 185224, Note_on_c, 9, 36, 0
14, 185280, Note_on_c, 9, 42, 127
14, 185340, Note_on_c, 9, 42, 0
14, 185472, Note_on_c, 9, 38, 127
14, 185472, Note_on_c, 9, 42, 127
14, 185536, Note_on_c, 9, 42, 0
14, 185576, Note_on_c, 9, 38, 0
14, 185664, Note_on_c, 9, 42, 127
14, 185720, Note_on_c, 9, 42, 0
14, 185856, Note_on_c, 9, 36, 127
14, 185856, Note_on_c, 9, 42, 127
14, 185916, Note_on_c, 9, 42, 0
14, 186000, Note_on_c, 9, 36, 0
14, 186048, Note_on_c, 9, 42, 127
14, 186108, Note_on_c, 9, 42, 0
14, 186240, Note_on_c, 9, 38, 127
14, 186240, Note_on_c, 9, 42, 127
14, 186300, Note_on_c, 9, 42, 0
14, 186356, Note_on_c, 9, 38, 0
14, 186432, Note_on_c, 9, 46, 127
14, 186496, Note_on_c, 9, 46, 0
14, 186624, Note_on_c, 9, 36, 127
14, 186624, Note_on_c, 9, 42, 127
14, 186684, Note_on_c, 9, 42, 0
14, 186744, Note_on_c, 9, 36, 0
14, 186816, Note_on_c, 9, 36, 127
14, 186816, Note_on_c, 9, 42, 127
14, 186868, Note_on_c, 9, 42, 0
14, 186892, Note_on_c, 9, 36, 0
14, 187008, Note_on_c, 9, 38, 127
14, 187008, Note_on_c, 9, 42, 127
14, 187064, Note_on_c, 9, 42, 0
14, 187092, Note_on_c, 9, 38, 0
14, 187200, Note_on_c, 9, 46, 127
14, 187256, Note_on_c, 9, 46, 0
14, 187392, Note_on_c, 9, 36, 127
14, 187392, Note_on_c, 9, 42, 127
14, 187452, Note_on_c, 9, 42, 0
14, 187584, Note_on_c, 9, 36, 0
14, 187584, Note_on_c, 9, 42, 127
14, 187628, Note_on_c, 9, 42, 0
14, 187776, Note_on_c, 9, 38, 127
14, 187776, Note_on_c, 9, 42, 127
14, 187840, Note_on_c, 9, 42, 0
14, 187852, Note_on_c, 9, 38, 0
14, 187968, Note_on_c, 9, 42, 127
14, 188012, Note_on_c, 9, 42, 0
14, 188160, Note_on_c, 9, 36, 127
14, 188160, Note_on_c, 9, 42, 127
14, 188220, Note_on_c, 9, 42, 0
14, 188288, Note_on_c, 9, 36, 0
14, 188352, Note_on_c, 9, 42, 127
14, 188400, Note_on_c, 9, 42, 0
14, 188544, Note_on_c, 9, 38, 127
14, 188544, Note_on_c, 9, 42, 127
14, 188608, Note_on_c, 9, 42, 0
14, 188624, Note_on_c, 9, 38, 0
14, 188736, Note_on_c, 9, 36, 127
14, 188736, Note_on_c, 9, 42, 127
14, 188792, Note_on_c, 9, 42, 0
14, 188808, Note_on_c, 9, 36, 0
14, 188928, Note_on_c, 9, 36, 127
14, 188928, Note_on_c, 9, 42, 127
14, 188992, Note_on_c, 9, 42, 0
14, 189092, Note_on_c, 9, 36, 0
14, 189120, Note_on_c, 9, 42, 127
14, 189176, Note_on_c, 9, 42, 0
14, 189312, Note_on_c, 9, 38, 127
14, 189312, Note_on_c, 9, 42, 127
14, 189380, Note_on_c, 9, 42, 0
14, 189392, Note_on_c, 9, 38, 0
14, 189504, Note_on_c, 9, 42, 127
14, 189564, Note_on_c, 9, 42, 0
14, 189696, Note_on_c, 9, 36, 127
14, 189696, Note_on_c, 9, 42, 127
14, 189760, Note_on_c, 9, 42, 0
14, 189856, Note_on_c, 9, 36, 0
14, 189888, Note_on_c, 9, 42, 127
14, 189944, Note_on_c, 9, 42, 0
14, 190080, Note_on_c, 9, 38, 127
14, 190080, Note_on_c, 9, 42, 127
14, 190148, Note_on_c, 9, 42, 0
14, 190180, Note_on_c, 9, 38, 0
14, 190272, Note_on_c, 9, 46, 127
14, 190320, Note_on_c, 9, 46, 0
14, 190464, Note_on_c, 9, 36, 127
14, 190464, Note_on_c, 9, 42, 127
14, 190524, Note_on_c, 9, 42, 0
14, 190572, Note_on_c, 9, 36, 0
14, 190656, Note_on_c, 9, 42, 127
14, 190708, Note_on_c, 9, 42, 0
14, 190848, Note_on_c, 9, 38, 127
14, 190848, Note_on_c, 9, 42, 127
14, 190908, Note_on_c, 9, 42, 0
14, 190944, Note_on_c, 9, 38, 0
14, 191040, Note_on_c, 9, 42, 127
14, 191092, Note_on_c, 9, 42, 0
14, 191232, Note_on_c, 9, 36, 127
14, 191232, Note_on_c, 9, 42, 127
14, 191296, Note_on_c, 9, 42, 0
14, 191348, Note_on_c, 9, 36, 0
14, 191424, Note_on_c, 9, 42, 127
14, 191476, Note_on_c, 9, 42, 0
14, 191616, Note_on_c, 9, 38, 127
14, 191616, Note_on_c, 9, 42, 127
14, 191680, Note_on_c, 9, 42, 0
14, 191724, Note_on_c, 9, 38, 0
14, 191808, Note_on_c, 9, 42, 127
14, 191860, Note_on_c, 9, 42, 0
14, 192000, Note_on_c, 9, 36, 127
14, 192000, Note_on_c, 9, 42, 127
14, 192064, Note_on_c, 9, 42, 0
14, 192132, Note_on_c, 9, 36, 0
14, 192192, Note_on_c, 9, 42, 127
14, 192244, Note_on_c, 9, 42, 0
14, 192384, Note_on_c, 9, 38, 127
14, 192384, Note_on_c, 9, 42, 127
14, 192448, Note_on_c, 9, 42, 0
14, 192496, Note_on_c, 9, 38, 0
14, 192576, Note_on_c, 9, 42, 127
14, 192628, Note_on_c, 9, 42, 0
14, 192768, Note_on_c, 9, 36, 127
14, 192768, Note_on_c, 9, 42, 127
14, 192832, Note_on_c, 9, 42, 0
14, 192888, Note_on_c, 9, 36, 0
14, 192960, Note_on_c, 9, 42, 127
14, 193008, Note_on_c, 9, 42, 0
14, 193152, Note_on_c, 9, 38, 127
14, 193152, Note_on_c, 9, 42, 127
14, 193212, Note_on_c, 9, 42, 0
14, 193252, Note_on_c, 9, 38, 0
14, 193344, Note_on_c, 9, 46, 127
14, 193400, Note_on_c, 9, 46, 0
14, 193536, Note_on_c, 9, 36, 127
14, 193536, Note_on_c, 9, 42, 127
14, 193596, Note_on_c, 9, 42, 0
14, 193628, Note_on_c, 9, 36, 0
14, 193728, Note_on_c, 9, 42, 127
14, 193780, Note_on_c, 9, 42, 0
14, 193920, Note_on_c, 9, 38, 127
14, 193920, Note_on_c, 9, 42, 127
14, 193980, Note_on_c, 9, 42, 0
14, 194048, Note_on_c, 9, 38, 0
14, 194112, Note_on_c, 9, 42, 127
14, 194168, Note_on_c, 9, 42, 0
14, 194304, Note_on_c, 9, 36, 127
14, 194304, Note_on_c, 9, 42, 127
14, 194368, Note_on_c, 9, 42, 0
14, 194424, Note_on_c, 9, 36, 0
14, 194496, Note_on_c, 9, 42, 127
14, 194556, Note_on_c, 9, 42, 0
14, 194688, Note_on_c, 9, 38, 127
14, 194688, Note_on_c, 9, 42, 127
14, 194756, Note_on_c, 9, 42, 0
14, 194808, Note_on_c, 9, 38, 0
14, 194880, Note_on_c, 9, 42, 127
14, 194932, Note_on_c, 9, 42, 0
14, 195072, Note_on_c, 9, 36, 127
14, 195072, Note_on_c, 9, 42, 127
14, 195140, Note_on_c, 9, 42, 0
14, 195220, Note_on_c, 9, 36, 0
14, 195264, Note_on_c, 9, 42, 127
14, 195324, Note_on_c, 9, 42, 0
14, 195456, Note_on_c, 9, 38, 127
14, 195456, Note_on_c, 9, 42, 127
14, 195528, Note_on_c, 9, 42, 0
14, 195568, Note_on_c, 9, 38, 0
14, 195648, Note_on_c, 9, 42, 127
14, 195712, Note_on_c, 9, 42, 0
14, 195840, Note_on_c, 9, 36, 127
14, 195840, Note_on_c, 9, 42, 127
14, 195904, Note_on_c, 9, 42, 0
14, 195972, Note_on_c, 9, 36, 0
14, 196032, Note_on_c, 9, 42, 127
14, 196092, Note_on_c, 9, 42, 0
14, 196224, Note_on_c, 9, 38, 127
14, 196224, Note_on_c, 9, 42, 127
14, 196288, Note_on_c, 9, 42, 0
14, 196328, Note_on_c, 9, 38, 0
14, 196416, Note_on_c, 9, 36, 127
14, 196416, Note_on_c, 9, 46, 127
14, 196480, Note_on_c, 9, 46, 0
14, 196480, Note_on_c, 9, 36, 0
14, 196608, Note_on_c, 9, 36, 127
14, 196608, Note_on_c, 9, 42, 127
14, 196672, Note_on_c, 9, 42, 0
14, 196724, Note_on_c, 9, 36, 0
14, 196800, Note_on_c, 9, 42, 127
14, 196856, Note_on_c, 9, 42, 0
14, 196992, Note_on_c, 9, 38, 127
14, 196992, Note_on_c, 9, 42, 127
14, 197064, Note_on_c, 9, 42, 0
14, 197072, Note_on_c, 9, 38, 0
14, 197184, Note_on_c, 9, 42, 127
14, 197244, Note_on_c, 9, 42, 0
14, 197376, Note_on_c, 9, 36, 127
14, 197376, Note_on_c, 9, 42, 127
14, 197440, Note_on_c, 9, 42, 0
14, 197512, Note_on_c, 9, 36, 0
14, 197568, Note_on_c, 9, 42, 127
14, 197628, Note_on_c, 9, 42, 0
14, 197760, Note_on_c, 9, 38, 127
14, 197760, Note_on_c, 9, 42, 127
14, 197824, Note_on_c, 9, 42, 0
14, 197828, Note_on_c, 9, 38, 0
14, 197952, Note_on_c, 9, 36, 127
14, 197952, Note_on_c, 9, 42, 127
14, 198008, Note_on_c, 9, 42, 0
14, 198016, Note_on_c, 9, 36, 0
14, 198144, Note_on_c, 9, 38, 127
14, 198224, Note_on_c, 9, 38, 0
14, 198240, Note_on_c, 9, 38, 127
14, 198320, Note_on_c, 9, 38, 0
14, 198336, Note_on_c, 9, 38, 127
14, 198416, Note_on_c, 9, 38, 0
14, 198528, Note_on_c, 9, 36, 127
14, 198672, Note_on_c, 9, 36, 0
14, 198720, Note_on_c, 9, 36, 127
14, 198864, Note_on_c, 9, 36, 0
14, 198912, Note_on_c, 9, 38, 127
14, 198984, Note_on_c, 9, 38, 0
14, 199104, Note_on_c, 9, 36, 127
14, 199224, Note_on_c, 9, 36, 0
14, 199296, Note_on_c, 9, 38, 127
14, 199364, Note_on_c, 9, 38, 0
14, 199488, Note_on_c, 9, 36, 127
14, 199564, Note_on_c, 9, 36, 0
14, 199584, Note_on_c, 9, 38, 127
14, 199652, Note_on_c, 9, 38, 0
14, 199680, Note_on_c, 9, 36, 127
14, 199680, Note_on_c, 9, 49, 126
14, 199756, Note_on_c, 9, 49, 0
14, 199872, Note_on_c, 9, 36, 0
14, 199872, Note_on_c, 9, 42, 127
14, 199916, Note_on_c, 9, 42, 0
14, 200064, Note_on_c, 9, 38, 127
14, 200064, Note_on_c, 9, 42, 127
14, 200128, Note_on_c, 9, 42, 0
14, 200140, Note_on_c, 9, 38, 0
14, 200256, Note_on_c, 9, 42, 127
14, 200300, Note_on_c, 9, 42, 0
14, 200448, Note_on_c, 9, 36, 127
14, 200448, Note_on_c, 9, 42, 127
14, 200508, Note_on_c, 9, 42, 0
14, 200576, Note_on_c, 9, 36, 0
14, 200640, Note_on_c, 9, 42, 127
14, 200688, Note_on_c, 9, 42, 0
14, 200832, Note_on_c, 9, 38, 127
14, 200832, Note_on_c, 9, 42, 127
14, 200896, Note_on_c, 9, 42, 0
14, 200912, Note_on_c, 9, 38, 0
14, 201024, Note_on_c, 9, 42, 127
14, 201080, Note_on_c, 9, 42, 0
14, 201216, Note_on_c, 9, 36, 127
14, 201216, Note_on_c, 9, 47, 127
14, 201260, Note_on_c, 9, 47, 0
14, 201312, Note_on_c, 9, 47, 127
14, 201368, Note_on_c, 9, 47, 0
14, 201380, Note_on_c, 9, 36, 0
14, 201408, Note_on_c, 9, 47, 127
14, 201476, Note_on_c, 9, 47, 0
14, 201600, Note_on_c, 9, 43, 127
14, 201660, Note_on_c, 9, 43, 0
14, 201792, Note_on_c, 9, 43, 127
14, 201856, Note_on_c, 9, 43, 0
14, 201984, Note_on_c, 9, 41, 127
14, 202020, Note_on_c, 9, 41, 0
14, 202080, Note_on_c, 9, 41, 127
14, 202120, Note_on_c, 9, 41, 0
14, 202176, Note_on_c, 9, 41, 127
14, 202228, Note_on_c, 9, 41, 0
14, 202348, Note_on_c, 9, 38, 119
14, 202356, Note_on_c, 9, 38, 0
14, 202368, Note_on_c, 9, 38, 127
14, 202444, Note_on_c, 9, 38, 0
14, 202752, Note_on_c, 9, 36, 127
14, 202752, Note_on_c, 9, 49, 126
14, 202828, Note_on_c, 9, 49, 0
14, 202944, Note_on_c, 9, 36, 0
14, 202944, Note_on_c, 9, 42, 127
14, 202988, Note_on_c, 9, 42, 0
14, 203136, Note_on_c, 9, 38, 127
14, 203136, Note_on_c, 9, 42, 127
14, 203200, Note_on_c, 9, 42, 0
14, 203212, Note_on_c, 9, 38, 0
14, 203328, Note_on_c, 9, 42, 127
14, 203372, Note_on_c, 9, 42, 0
14, 203520, Note_on_c, 9, 36, 127
14, 203520, Note_on_c, 9, 42, 127
14, 203580, Note_on_c, 9, 42, 0
14, 203648, Note_on_c, 9, 36, 0
14, 203712, Note_on_c, 9, 42, 127
14, 203760, Note_on_c, 9, 42, 0
14, 203904, Note_on_c, 9, 38, 127
14, 203904, Note_on_c, 9, 42, 127
14, 203968, Note_on_c, 9, 42, 0
14, 203984, Note_on_c, 9, 38, 0
14, 204096, Note_on_c, 9, 42, 127
14, 204152, Note_on_c, 9, 42, 0
14, 204288, Note_on_c, 9, 36, 127
14, 204288, Note_on_c, 9, 42, 127
14, 204352, Note_on_c, 9, 42, 0
14, 204452, Note_on_c, 9, 36, 0
14, 204480, Note_on_c, 9, 42, 127
14, 204536, Note_on_c, 9, 42, 0
14, 204672, Note_on_c, 9, 38, 127
14, 204672, Note_on_c, 9, 42, 127
14, 204740, Note_on_c, 9, 42, 0
14, 204752, Note_on_c, 9, 38, 0
14, 204864, Note_on_c, 9, 42, 127
14, 204924, Note_on_c, 9, 42, 0
14, 205056, Note_on_c, 9, 36, 127
14, 205056, Note_on_c, 9, 42, 127
14, 205120, Note_on_c, 9, 42, 0
14, 205216, Note_on_c, 9, 36, 0
14, 205248, Note_on_c, 9, 42, 127
14, 205304, Note_on_c, 9, 42, 0
14, 205440, Note_on_c, 9, 38, 127
14, 205440, Note_on_c, 9, 42, 127
14, 205508, Note_on_c, 9, 42, 0
14, 205540, Note_on_c, 9, 38, 0
14, 205632, Note_on_c, 9, 46, 127
14, 205680, Note_on_c, 9, 46, 0
14, 205824, Note_on_c, 9, 36, 127
14, 205824, Note_on_c, 9, 42, 127
14, 205884, Note_on_c, 9, 42, 0
14, 205932, Note_on_c, 9, 36, 0
14, 206016, Note_on_c, 9, 42, 127
14, 206068, Note_on_c, 9, 42, 0
14, 206208, Note_on_c, 9, 38, 127
14, 206208, Note_on_c, 9, 42, 127
14, 206268, Note_on_c, 9, 42, 0
14, 206304, Note_on_c, 9, 38, 0
14, 206400, Note_on_c, 9, 42, 127
14, 206452, Note_on_c, 9, 42, 0
14, 206592, Note_on_c, 9, 36, 127
14, 206592, Note_on_c, 9, 42, 127
14, 206656, Note_on_c, 9, 42, 0
14, 206708, Note_on_c, 9, 36, 0
14, 206784, Note_on_c, 9, 42, 127
14, 206836, Note_on_c, 9, 42, 0
14, 206976, Note_on_c, 9, 38, 127
14, 206976, Note_on_c, 9, 42, 127
14, 207040, Note_on_c, 9, 42, 0
14, 207084, Note_on_c, 9, 38, 0
14, 207168, Note_on_c, 9, 42, 127
14, 207220, Note_on_c, 9, 42, 0
14, 207360, Note_on_c, 9, 36, 127
14, 207360, Note_on_c, 9, 42, 127
14, 207424, Note_on_c, 9, 42, 0
14, 207492, Note_on_c, 9, 36, 0
14, 207552, Note_on_c, 9, 42, 127
14, 207604, Note_on_c, 9, 42, 0
14, 207744, Note_on_c, 9, 38, 127
14, 207744, Note_on_c, 9, 42, 127
14, 207808, Note_on_c, 9, 42, 0
14, 207856, Note_on_c, 9, 38, 0
14, 207936, Note_on_c, 9, 42, 127
14, 207988, Note_on_c, 9, 42, 0
14, 208128, Note_on_c, 9, 36, 127
14, 208128, Note_on_c, 9, 42, 127
14, 208192, Note_on_c, 9, 42, 0
14, 208248, Note_on_c, 9, 36, 0
14, 208320, Note_on_c, 9, 42, 127
14, 208368, Note_on_c, 9, 42, 0
14, 208512, Note_on_c, 9, 38, 127
14, 208512, Note_on_c, 9, 42, 127
14, 208572, Note_on_c, 9, 42, 0
14, 208612, Note_on_c, 9, 38, 0
14, 208704, Note_on_c, 9, 46, 127
14, 208760, Note_on_c, 9, 46, 0
14, 208896, Note_on_c, 9, 36, 127
14, 208896, Note_on_c, 9, 42, 127
14, 208956, Note_on_c, 9, 42, 0
14, 208988, Note_on_c, 9, 36, 0
14, 209088, Note_on_c, 9, 42, 127
14, 209140, Note_on_c, 9, 42, 0
14, 209280, Note_on_c, 9, 38, 127
14, 209280, Note_on_c, 9, 42, 127
14, 209340, Note_on_c, 9, 42, 0
14, 209408, Note_on_c, 9, 38, 0
14, 209472, Note_on_c, 9, 42, 127
14, 209528, Note_on_c, 9, 42, 0
14, 209664, Note_on_c, 9, 36, 127
14, 209664, Note_on_c, 9, 42, 127
14, 209728, Note_on_c, 9, 42, 0
14, 209784, Note_on_c, 9, 36, 0
14, 209856, Note_on_c, 9, 42, 127
14, 209916, Note_on_c, 9, 42, 0
14, 210048, Note_on_c, 9, 38, 127
14, 210048, Note_on_c, 9, 42, 127
14, 210116, Note_on_c, 9, 42, 0
14, 210168, Note_on_c, 9, 38, 0
14, 210240, Note_on_c, 9, 42, 127
14, 210292, Note_on_c, 9, 42, 0
14, 210432, Note_on_c, 9, 36, 127
14, 210432, Note_on_c, 9, 42, 127
14, 210500, Note_on_c, 9, 42, 0
14, 210580, Note_on_c, 9, 36, 0
14, 210624, Note_on_c, 9, 42, 127
14, 210684, Note_on_c, 9, 42, 0
14, 210816, Note_on_c, 9, 38, 127
14, 210816, Note_on_c, 9, 42, 127
14, 210888, Note_on_c, 9, 42, 0
14, 210928, Note_on_c, 9, 38, 0
14, 211008, Note_on_c, 9, 42, 127
14, 211072, Note_on_c, 9, 42, 0
14, 211200, Note_on_c, 9, 36, 127
14, 211200, Note_on_c, 9, 42, 127
14, 211264, Note_on_c, 9, 42, 0
14, 211332, Note_on_c, 9, 36, 0
14, 211392, Note_on_c, 9, 42, 127
14, 211452, Note_on_c, 9, 42, 0
14, 211584, Note_on_c, 9, 38, 127
14, 211584, Note_on_c, 9, 42, 127
14, 211648, Note_on_c, 9, 42, 0
14, 211688, Note_on_c, 9, 38, 0
14, 211776, Note_on_c, 9, 42, 127
14, 211832, Note_on_c, 9, 42, 0
14, 211968, Note_on_c, 9, 36, 127
14, 211968, Note_on_c, 9, 42, 127
14, 212032, Note_on_c, 9, 42, 0
14, 212084, Note_on_c, 9, 36, 0
14, 212160, Note_on_c, 9, 42, 127
14, 212216, Note_on_c, 9, 42, 0
14, 212352, Note_on_c, 9, 38, 127
14, 212352, Note_on_c, 9, 42, 127
14, 212424, Note_on_c, 9, 42, 0
14, 212472, Note_on_c, 9, 38, 0
14, 212544, Note_on_c, 9, 42, 127
14, 212604, Note_on_c, 9, 42, 0
14, 212736, Note_on_c, 9, 36, 127
14, 212736, Note_on_c, 9, 42, 127
14, 212800, Note_on_c, 9, 42, 0
14, 212872, Note_on_c, 9, 36, 0
14, 212928, Note_on_c, 9, 42, 127
14, 212988, Note_on_c, 9, 42, 0
14, 213120, Note_on_c, 9, 38, 127
14, 213120, Note_on_c, 9, 42, 127
14, 213184, Note_on_c, 9, 42, 0
14, 213224, Note_on_c, 9, 38, 0
14, 213312, Note_on_c, 9, 42, 127
14, 213368, Note_on_c, 9, 42, 0
14, 213504, Note_on_c, 9, 36, 127
14, 213504, Note_on_c, 9, 42, 127
14, 213564, Note_on_c, 9, 42, 0
14, 213648, Note_on_c, 9, 36, 0
14, 213696, Note_on_c, 9, 42, 127
14, 213756, Note_on_c, 9, 42, 0
14, 213888, Note_on_c, 9, 38, 127
14, 213888, Note_on_c, 9, 42, 127
14, 213948, Note_on_c, 9, 42, 0
14, 214004, Note_on_c, 9, 38, 0
14, 214080, Note_on_c, 9, 42, 127
14, 214136, Note_on_c, 9, 42, 0
14, 214272, Note_on_c, 9, 36, 127
14, 214272, Note_on_c, 9, 42, 127
14, 214332, Note_on_c, 9, 42, 0
14, 214392, Note_on_c, 9, 36, 0
14, 214464, Note_on_c, 9, 36, 127
14, 214464, Note_on_c, 9, 42, 127
14, 214516, Note_on_c, 9, 42, 0
14, 214540, Note_on_c, 9, 36, 0
14, 214656, Note_on_c, 9, 38, 127
14, 214656, Note_on_c, 9, 42, 127
14, 214712, Note_on_c, 9, 42, 0
14, 214740, Note_on_c, 9, 38, 0
14, 214848, Note_on_c, 9, 46, 127
14, 214904, Note_on_c, 9, 46, 0
14, 215040, Note_on_c, 9, 36, 127
14, 215040, Note_on_c, 9, 42, 127
14, 215100, Note_on_c, 9, 42, 0
14, 215232, Note_on_c, 9, 36, 0
14, 215232, Note_on_c, 9, 42, 127
14, 215276, Note_on_c, 9, 42, 0
14, 215424, Note_on_c, 9, 38, 127
14, 215424, Note_on_c, 9, 42, 127
14, 215488, Note_on_c, 9, 42, 0
14, 215500, Note_on_c, 9, 38, 0
14, 215616, Note_on_c, 9, 42, 127
14, 215660, Note_on_c, 9, 42, 0
14, 215808, Note_on_c, 9, 36, 127
14, 215808, Note_on_c, 9, 42, 127
14, 215868, Note_on_c, 9, 42, 0
14, 215936, Note_on_c, 9, 36, 0
14, 216000, Note_on_c, 9, 42, 127
14, 216048, Note_on_c, 9, 42, 0
14, 216192, Note_on_c, 9, 38, 127
14, 216192, Note_on_c, 9, 42, 127
14, 216256, Note_on_c, 9, 42, 0
14, 216272, Note_on_c, 9, 38, 0
14, 216384, Note_on_c, 9, 42, 127
14, 216440, Note_on_c, 9, 42, 0
14, 216576, Note_on_c, 9, 36, 127
14, 216576, Note_on_c, 9, 42, 127
14, 216640, Note_on_c, 9, 42, 0
14, 216740, Note_on_c, 9, 36, 0
14, 216768, Note_on_c, 9, 42, 127
14, 216824, Note_on_c, 9, 42, 0
14, 216960, Note_on_c, 9, 38, 127
14, 216960, Note_on_c, 9, 42, 127
14, 217028, Note_on_c, 9, 42, 0
14, 217040, Note_on_c, 9, 38, 0
14, 217152, Note_on_c, 9, 42, 127
14, 217212, Note_on_c, 9, 42, 0
14, 217344, Note_on_c, 9, 36, 127
14, 217344, Note_on_c, 9, 42, 127
14, 217408, Note_on_c, 9, 42, 0
14, 217504, Note_on_c, 9, 36, 0
14, 217536, Note_on_c, 9, 42, 127
14, 217592, Note_on_c, 9, 42, 0
14, 217728, Note_on_c, 9, 38, 127
14, 217728, Note_on_c, 9, 42, 127
14, 217796, Note_on_c, 9, 42, 0
14, 217828, Note_on_c, 9, 38, 0
14, 217920, Note_on_c, 9, 42, 127
14, 217976, Note_on_c, 9, 42, 0
14, 218112, Note_on_c, 9, 36, 127
14, 218112, Note_on_c, 9, 42, 127
14, 218172, Note_on_c, 9, 42, 0
14, 218220, Note_on_c, 9, 36, 0
14, 218304, Note_on_c, 9, 42, 127
14, 218356, Note_on_c, 9, 42, 0
14, 218496, Note_on_c, 9, 38, 127
14, 218496, Note_on_c, 9, 42, 127
14, 218556, Note_on_c, 9, 42, 0
14, 218592, Note_on_c, 9, 38, 0
14, 218688, Note_on_c, 9, 42, 127
14, 218740, Note_on_c, 9, 42, 0
14, 218880, Note_on_c, 9, 36, 127
14, 218880, Note_on_c, 9, 42, 127
14, 218944, Note_on_c, 9, 42, 0
14, 218996, Note_on_c, 9, 36, 0
14, 219072, Note_on_c, 9, 42, 127
14, 219124, Note_on_c, 9, 42, 0
14, 219264, Note_on_c, 9, 38, 127
14, 219264, Note_on_c, 9, 42, 127
14, 219328, Note_on_c, 9, 42, 0
14, 219372, Note_on_c, 9, 38, 0
14, 219456, Note_on_c, 9, 42, 127
14, 219508, Note_on_c, 9, 42, 0
14, 219648, Note_on_c, 9, 36, 127
14, 219648, Note_on_c, 9, 42, 127
14, 219712, Note_on_c, 9, 42, 0
14, 219780, Note_on_c, 9, 36, 0
14, 219840, Note_on_c, 9, 42, 127
14, 219892, Note_on_c, 9, 42, 0
14, 220032, Note_on_c, 9, 38, 127
14, 220032, Note_on_c, 9, 42, 127
14, 220096, Note_on_c, 9, 42, 0
14, 220144, Note_on_c, 9, 38, 0
14, 220224, Note_on_c, 9, 42, 127
14, 220276, Note_on_c, 9, 42, 0
14, 220416, Note_on_c, 9, 36, 127
14, 220416, Note_on_c, 9, 42, 127
14, 220480, Note_on_c, 9, 42, 0
14, 220536, Note_on_c, 9, 36, 0
14, 220608, Note_on_c, 9, 42, 127
14, 220656, Note_on_c, 9, 42, 0
14, 220800, Note_on_c, 9, 38, 127
14, 220800, Note_on_c, 9, 42, 127
14, 220860, Note_on_c, 9, 42, 0
14, 220900, Note_on_c, 9, 38, 0
14, 220992, Note_on_c, 9, 46, 127
14, 221048, Note_on_c, 9, 46, 0
14, 221184, Note_on_c, 9, 36, 127
14, 221184, Note_on_c, 9, 42, 127
14, 221244, Note_on_c, 9, 42, 0
14, 221276, Note_on_c, 9, 36, 0
14, 221376, Note_on_c, 9, 42, 127
14, 221428, Note_on_c, 9, 42, 0
14, 221568, Note_on_c, 9, 38, 127
14, 221568, Note_on_c, 9, 42, 127
14, 221628, Note_on_c, 9, 42, 0
14, 221696, Note_on_c, 9, 38, 0
14, 221760, Note_on_c, 9, 42, 127
14, 221816, Note_on_c, 9, 42, 0
14, 221952, Note_on_c, 9, 36, 127
14, 221952, Note_on_c, 9, 42, 127
14, 222016, Note_on_c, 9, 42, 0
14, 222072, Note_on_c, 9, 36, 0
14, 222144, Note_on_c, 9, 42, 127
14, 222204, Note_on_c, 9, 42, 0
14, 222336, Note_on_c, 9, 38, 127
14, 222336, Note_on_c, 9, 42, 127
14, 222404, Note_on_c, 9, 42, 0
14, 222456, Note_on_c, 9, 38, 0
14, 222528, Note_on_c, 9, 42, 127
14, 222580, Note_on_c, 9, 42, 0
14, 222720, Note_on_c, 9, 36, 127
14, 222720, Note_on_c, 9, 42, 127
14, 222788, Note_on_c, 9, 42, 0
14, 222868, Note_on_c, 9, 36, 0
14, 222912, Note_on_c, 9, 42, 127
14, 222972, Note_on_c, 9, 42, 0
14, 223104, Note_on_c, 9, 38, 127
14, 223104, Note_on_c, 9, 42, 127
14, 223176, Note_on_c, 9, 42, 0
14, 223216, Note_on_c, 9, 38, 0
14, 223296, Note_on_c, 9, 42, 127
14, 223360, Note_on_c, 9, 42, 0
14, 223488, Note_on_c, 9, 36, 127
14, 223488, Note_on_c, 9, 42, 127
14, 223552, Note_on_c, 9, 42, 0
14, 223620, Note_on_c, 9, 36, 0
14, 223680, Note_on_c, 9, 42, 127
14, 223740, Note_on_c, 9, 42, 0
14, 223872, Note_on_c, 9, 38, 127
14, 223872, Note_on_c, 9, 42, 127
14, 223936, Note_on_c, 9, 42, 0
14, 223976, Note_on_c, 9, 38, 0
14, 224064, Note_on_c, 9, 42, 127
14, 224120, Note_on_c, 9, 42, 0
14, 224256, Note_on_c, 9, 36, 127
14, 224256, Note_on_c, 9, 42, 127
14, 224320, Note_on_c, 9, 42, 0
14, 224372, Note_on_c, 9, 36, 0
14, 224448, Note_on_c, 9, 42, 127
14, 224504, Note_on_c, 9, 42, 0
14, 224640, Note_on_c, 9, 38, 127
14, 224640, Note_on_c, 9, 42, 127
14, 224712, Note_on_c, 9, 42, 0
14, 224760, Note_on_c, 9, 38, 0
14, 224832, Note_on_c, 9, 42, 127
14, 224892, Note_on_c, 9, 42, 0
14, 225024, Note_on_c, 9, 36, 127
14, 225024, Note_on_c, 9, 42, 127
14, 225088, Note_on_c, 9, 42, 0
14, 225160, Note_on_c, 9, 36, 0
14, 225216, Note_on_c, 9, 42, 127
14, 225276, Note_on_c, 9, 42, 0
14, 225408, Note_on_c, 9, 38, 127
14, 225408, Note_on_c, 9, 42, 127
14, 225472, Note_on_c, 9, 42, 0
14, 225512, Note_on_c, 9, 38, 0
14, 225600, Note_on_c, 9, 42, 127
14, 225656, Note_on_c, 9, 42, 0
14, 225792, Note_on_c, 9, 36, 127
14, 225792, Note_on_c, 9, 42, 127
14, 225852, Note_on_c, 9, 42, 0
14, 225936, Note_on_c, 9, 36, 0
14, 225984, Note_on_c, 9, 38, 127
14, 226044, Note_on_c, 9, 38, 0
14, 226176, Note_on_c, 9, 38, 127
14, 226236, Note_on_c, 9, 38, 0
14, 226272, Note_on_c, 9, 38, 127
14, 226332, Note_on_c, 9, 38, 0
14, 226368, Note_on_c, 9, 36, 127
14, 226488, Note_on_c, 9, 36, 0
14, 226560, Note_on_c, 9, 38, 127
14, 226620, Note_on_c, 9, 38, 0
14, 226848, Note_on_c, 9, 38, 127
14, 226908, Note_on_c, 9, 38, 0
14, 226944, Note_on_c, 9, 38, 127
14, 227028, Note_on_c, 9, 38, 0
14, 227136, Note_on_c, 9, 36, 127
14, 227212, Note_on_c, 9, 36, 0
14, 227328, Note_on_c, 9, 36, 127
14, 227520, Note_on_c, 9, 36, 0
14, 227520, Note_on_c, 9, 42, 127
14, 227564, Note_on_c, 9, 42, 0
14, 227712, Note_on_c, 9, 38, 127
14, 227712, Note_on_c, 9, 42, 127
14, 227776, Note_on_c, 9, 42, 0
14, 227788, Note_on_c, 9, 38, 0
14, 227904, Note_on_c, 9, 42, 127
14, 227948, Note_on_c, 9, 42, 0
14, 228096, Note_on_c, 9, 36, 127
14, 228096, Note_on_c, 9, 42, 127
14, 228156, Note_on_c, 9, 42, 0
14, 228224, Note_on_c, 9, 36, 0
14, 228288, Note_on_c, 9, 42, 127
14, 228336, Note_on_c, 9, 42, 0
14, 228480, Note_on_c, 9, 38, 127
14, 228480, Note_on_c, 9, 42, 127
14, 228544, Note_on_c, 9, 42, 0
14, 228560, Note_on_c, 9, 38, 0
14, 228672, Note_on_c, 9, 42, 127
14, 228728, Note_on_c, 9, 42, 0
14, 228864, Note_on_c, 9, 36, 127
14, 228864, Note_on_c, 9, 42, 127
14, 228928, Note_on_c, 9, 42, 0
14, 229028, Note_on_c, 9, 36, 0
14, 229056, Note_on_c, 9, 42, 127
14, 229112, Note_on_c, 9, 42, 0
14, 229248, Note_on_c, 9, 38, 127
14, 229248, Note_on_c, 9, 42, 127
14, 229316, Note_on_c, 9, 42, 0
14, 229328, Note_on_c, 9, 38, 0
14, 229440, Note_on_c, 9, 42, 127
14, 229500, Note_on_c, 9, 42, 0
14, 229632, Note_on_c, 9, 36, 127
14, 229632, Note_on_c, 9, 42, 127
14, 229696, Note_on_c, 9, 42, 0
14, 229792, Note_on_c, 9, 36, 0
14, 229824, Note_on_c, 9, 42, 127
14, 229880, Note_on_c, 9, 42, 0
14, 230016, Note_on_c, 9, 38, 127
14, 230016, Note_on_c, 9, 42, 127
14, 230084, Note_on_c, 9, 42, 0
14, 230116, Note_on_c, 9, 38, 0
14, 230208, Note_on_c, 9, 42, 127
14, 230264, Note_on_c, 9, 42, 0
14, 230400, Note_on_c, 9, 36, 127
14, 230400, Note_on_c, 9, 42, 127
14, 230460, Note_on_c, 9, 42, 0
14, 230508, Note_on_c, 9, 36, 0
14, 230592, Note_on_c, 9, 42, 127
14, 230644, Note_on_c, 9, 42, 0
14, 230784, Note_on_c, 9, 38, 127
14, 230784, Note_on_c, 9, 42, 127
14, 230844, Note_on_c, 9, 42, 0
14, 230880, Note_on_c, 9, 38, 0
14, 230976, Note_on_c, 9, 42, 127
14, 231028, Note_on_c, 9, 42, 0
14, 231168, Note_on_c, 9, 36, 127
14, 231168, Note_on_c, 9, 42, 127
14, 231232, Note_on_c, 9, 42, 0
14, 231284, Note_on_c, 9, 36, 0
14, 231360, Note_on_c, 9, 42, 127
14, 231412, Note_on_c, 9, 42, 0
14, 231552, Note_on_c, 9, 38, 127
14, 231552, Note_on_c, 9, 42, 127
14, 231616, Note_on_c, 9, 42, 0
14, 231660, Note_on_c, 9, 38, 0
14, 231744, Note_on_c, 9, 42, 127
14, 231796, Note_on_c, 9, 42, 0
14, 231936, Note_on_c, 9, 36, 127
14, 231936, Note_on_c, 9, 42, 127
14, 232000, Note_on_c, 9, 42, 0
14, 232068, Note_on_c, 9, 36, 0
14, 232128, Note_on_c, 9, 42, 127
14, 232180, Note_on_c, 9, 42, 0
14, 232320, Note_on_c, 9, 38, 127
14, 232320, Note_on_c, 9, 42, 127
14, 232384, Note_on_c, 9, 42, 0
14, 232432, Note_on_c, 9, 38, 0
14, 232512, Note_on_c, 9, 42, 127
14, 232564, Note_on_c, 9, 42, 0
14, 232704, Note_on_c, 9, 36, 127
14, 232704, Note_on_c, 9, 42, 127
14, 232768, Note_on_c, 9, 42, 0
14, 232824, Note_on_c, 9, 36, 0
14, 232896, Note_on_c, 9, 42, 127
14, 232944, Note_on_c, 9, 42, 0
14, 233088, Note_on_c, 9, 38, 127
14, 233088, Note_on_c, 9, 42, 127
14, 233148, Note_on_c, 9, 42, 0
14, 233188, Note_on_c, 9, 38, 0
14, 233280, Note_on_c, 9, 36, 127
14, 233280, Note_on_c, 9, 46, 127
14, 233336, Note_on_c, 9, 46, 0
14, 233348, Note_on_c, 9, 36, 0
14, 233472, Note_on_c, 9, 36, 127
14, 233472, Note_on_c, 9, 42, 127
14, 233532, Note_on_c, 9, 42, 0
14, 233564, Note_on_c, 9, 36, 0
14, 233664, Note_on_c, 9, 42, 127
14, 233716, Note_on_c, 9, 42, 0
14, 233856, Note_on_c, 9, 38, 127
14, 233856, Note_on_c, 9, 42, 127
14, 233916, Note_on_c, 9, 42, 0
14, 233984, Note_on_c, 9, 38, 0
14, 234048, Note_on_c, 9, 42, 127
14, 234104, Note_on_c, 9, 42, 0
14, 234240, Note_on_c, 9, 36, 127
14, 234240, Note_on_c, 9, 42, 127
14, 234304, Note_on_c, 9, 42, 0
14, 234360, Note_on_c, 9, 36, 0
14, 234432, Note_on_c, 9, 42, 127
14, 234492, Note_on_c, 9, 42, 0
14, 234624, Note_on_c, 9, 38, 127
14, 234624, Note_on_c, 9, 42, 127
14, 234692, Note_on_c, 9, 42, 0
14, 234744, Note_on_c, 9, 38, 0
14, 234816, Note_on_c, 9, 42, 127
14, 234868, Note_on_c, 9, 42, 0
14, 235008, Note_on_c, 9, 36, 127
14, 235008, Note_on_c, 9, 42, 127
14, 235076, Note_on_c, 9, 42, 0
14, 235156, Note_on_c, 9, 36, 0
14, 235200, Note_on_c, 9, 42, 127
14, 235260, Note_on_c, 9, 42, 0
14, 235392, Note_on_c, 9, 38, 127
14, 235392, Note_on_c, 9, 42, 127
14, 235464, Note_on_c, 9, 42, 0
14, 235504, Note_on_c, 9, 38, 0
14, 235584, Note_on_c, 9, 42, 127
14, 235648, Note_on_c, 9, 42, 0
14, 235776, Note_on_c, 9, 36, 127
14, 235776, Note_on_c, 9, 42, 127
14, 235840, Note_on_c, 9, 42, 0
14, 235908, Note_on_c, 9, 36, 0
14, 235968, Note_on_c, 9, 42, 127
14, 236028, Note_on_c, 9, 42, 0
14, 236160, Note_on_c, 9, 38, 127
14, 236160, Note_on_c, 9, 42, 127
14, 236224, Note_on_c, 9, 42, 0
14, 236264, Note_on_c, 9, 38, 0
14, 236352, Note_on_c, 9, 36, 127
14, 236352, Note_on_c, 9, 46, 127
14, 236416, Note_on_c, 9, 46, 0
14, 236416, Note_on_c, 9, 36, 0
14, 236544, Note_on_c, 9, 36, 127
14, 236544, Note_on_c, 9, 42, 127
14, 236608, Note_on_c, 9, 42, 0
14, 236660, Note_on_c, 9, 36, 0
14, 236736, Note_on_c, 9, 42, 127
14, 236792, Note_on_c, 9, 42, 0
14, 236928, Note_on_c, 9, 38, 127
14, 236928, Note_on_c, 9, 42, 127
14, 237000, Note_on_c, 9, 42, 0
14, 237048, Note_on_c, 9, 38, 0
14, 237120, Note_on_c, 9, 42, 127
14, 237180, Note_on_c, 9, 42, 0
14, 237312, Note_on_c, 9, 36, 127
14, 237312, Note_on_c, 9, 42, 127
14, 237376, Note_on_c, 9, 42, 0
14, 237448, Note_on_c, 9, 36, 0
14, 237504, Note_on_c, 9, 42, 127
14, 237564, Note_on_c, 9, 42, 0
14, 237696, Note_on_c, 9, 38, 127
14, 237696, Note_on_c, 9, 42, 127
14, 237760, Note_on_c, 9, 42, 0
14, 237800, Note_on_c, 9, 38, 0
14, 237888, Note_on_c, 9, 42, 127
14, 237944, Note_on_c, 9, 42, 0
14, 238080, Note_on_c, 9, 36, 127
14, 238080, Note_on_c, 9, 42, 127
14, 238140, Note_on_c, 9, 42, 0
14, 238224, Note_on_c, 9, 36, 0
14, 238272, Note_on_c, 9, 42, 127
14, 238332, Note_on_c, 9, 42, 0
14, 238464, Note_on_c, 9, 38, 127
14, 238464, Note_on_c, 9, 42, 127
14, 238524, Note_on_c, 9, 42, 0
14, 238580, Note_on_c, 9, 38, 0
14, 238656, Note_on_c, 9, 42, 127
14, 238712, Note_on_c, 9, 42, 0
14, 238848, Note_on_c, 9, 36, 127
14, 238848, Note_on_c, 9, 42, 127
14, 238908, Note_on_c, 9, 42, 0
14, 238968, Note_on_c, 9, 36, 0
14, 239040, Note_on_c, 9, 42, 127
14, 239092, Note_on_c, 9, 42, 0
14, 239232, Note_on_c, 9, 38, 127
14, 239232, Note_on_c, 9, 42, 127
14, 239288, Note_on_c, 9, 42, 0
14, 239316, Note_on_c, 9, 38, 0
14, 239424, Note_on_c, 9, 36, 127
14, 239424, Note_on_c, 9, 42, 127
14, 239480, Note_on_c, 9, 42, 0
14, 239500, Note_on_c, 9, 36, 0
14, 239616, Note_on_c, 9, 36, 127
14, 239616, Note_on_c, 9, 49, 126
14, 239692, Note_on_c, 9, 49, 0
14, 239808, Note_on_c, 9, 36, 0
14, 239808, Note_on_c, 9, 42, 127
14, 239852, Note_on_c, 9, 42, 0
14, 240000, Note_on_c, 9, 38, 127
14, 240000, Note_on_c, 9, 42, 127
14, 240064, Note_on_c, 9, 42, 0
14, 240076, Note_on_c, 9, 38, 0
14, 240192, Note_on_c, 9, 42, 127
14, 240236, Note_on_c, 9, 42, 0
14, 240384, Note_on_c, 9, 36, 127
14, 240384, Note_on_c, 9, 42, 127
14, 240444, Note_on_c, 9, 42, 0
14, 240512, Note_on_c, 9, 36, 0
14, 240576, Note_on_c, 9, 42, 127
14, 240624, Note_on_c, 9, 42, 0
14, 240768, Note_on_c, 9, 38, 127
14, 240768, Note_on_c, 9, 42, 127
14, 240832, Note_on_c, 9, 42, 0
14, 240848, Note_on_c, 9, 38, 0
14, 240960, Note_on_c, 9, 42, 127
14, 241016, Note_on_c, 9, 42, 0
14, 241152, Note_on_c, 9, 36, 127
14, 241152, Note_on_c, 9, 47, 127
14, 241216, Note_on_c, 9, 47, 0
14, 241248, Note_on_c, 9, 47, 127
14, 241316, Note_on_c, 9, 36, 0
14, 241324, Note_on_c, 9, 47, 0
14, 241344, Note_on_c, 9, 43, 127
14, 241420, Note_on_c, 9, 43, 0
14, 241536, Note_on_c, 9, 47, 127
14, 241612, Note_on_c, 9, 47, 0
14, 241728, Note_on_c, 9, 43, 127
14, 241792, Note_on_c, 9, 43, 0
14, 241920, Note_on_c, 9, 41, 127
14, 241988, Note_on_c, 9, 41, 0
14, 242112, Note_on_c, 9, 41, 127
14, 242184, Note_on_c, 9, 41, 0
14, 242284, Note_on_c, 9, 38, 112
14, 242296, Note_on_c, 9, 38, 0
14, 242304, Note_on_c, 9, 38, 127
14, 242304, Note_on_c, 9, 46, 127
14, 242380, Note_on_c, 9, 38, 0
14, 242468, Note_on_c, 9, 46, 0
14, 242688, Note_on_c, 9, 36, 127
14, 242688, Note_on_c, 9, 49, 127
14, 242756, Note_on_c, 9, 49, 0
14, 242880, Note_on_c, 9, 36, 0
14, 242880, Note_on_c, 9, 42, 127
14, 242924, Note_on_c, 9, 42, 0
14, 243072, Note_on_c, 9, 38, 127
14, 243072, Note_on_c, 9, 42, 127
14, 243136, Note_on_c, 9, 42, 0
14, 243148, Note_on_c, 9, 38, 0
14, 243264, Note_on_c, 9, 42, 127
14, 243308, Note_on_c, 9, 42, 0
14, 243456, Note_on_c, 9, 36, 127
14, 243456, Note_on_c, 9, 42, 127
14, 243516, Note_on_c, 9, 42, 0
14, 243584, Note_on_c, 9, 36, 0
14, 243648, Note_on_c, 9, 42, 127
14, 243696, Note_on_c, 9, 42, 0
14, 243840, Note_on_c, 9, 38, 127
14, 243840, Note_on_c, 9, 42, 127
14, 243904, Note_on_c, 9, 42, 0
14, 243920, Note_on_c, 9, 38, 0
14, 244032, Note_on_c, 9, 42, 127
14, 244088, Note_on_c, 9, 42, 0
14, 244224, Note_on_c, 9, 36, 127
14, 244224, Note_on_c, 9, 42, 127
14, 244288, Note_on_c, 9, 42, 0
14, 244388, Note_on_c, 9, 36, 0
14, 244416, Note_on_c, 9, 42, 127
14, 244472, Note_on_c, 9, 42, 0
14, 244608, Note_on_c, 9, 38, 127
14, 244608, Note_on_c, 9, 42, 127
14, 244676, Note_on_c, 9, 42, 0
14, 244688, Note_on_c, 9, 38, 0
14, 244800, Note_on_c, 9, 42, 127
14, 244860, Note_on_c, 9, 42, 0
14, 244992, Note_on_c, 9, 36, 127
14, 244992, Note_on_c, 9, 42, 127
14, 245056, Note_on_c, 9, 42, 0
14, 245152, Note_on_c, 9, 36, 0
14, 245184, Note_on_c, 9, 42, 127
14, 245240, Note_on_c, 9, 42, 0
14, 245376, Note_on_c, 9, 38, 127
14, 245376, Note_on_c, 9, 42, 127
14, 245444, Note_on_c, 9, 42, 0
14, 245476, Note_on_c, 9, 38, 0
14, 245568, Note_on_c, 9, 36, 127
14, 245568, Note_on_c, 9, 42, 127
14, 245624, Note_on_c, 9, 42, 0
14, 245640, Note_on_c, 9, 36, 0
14, 245760, Note_on_c, 9, 36, 127
14, 245760, Note_on_c, 9, 42, 127
14, 245820, Note_on_c, 9, 42, 0
14, 245868, Note_on_c, 9, 36, 0
14, 245952, Note_on_c, 9, 42, 127
14, 246004, Note_on_c, 9, 42, 0
14, 246144, Note_on_c, 9, 38, 127
14, 246144, Note_on_c, 9, 42, 127
14, 246204, Note_on_c, 9, 42, 0
14, 246240, Note_on_c, 9, 38, 0
14, 246336, Note_on_c, 9, 42, 127
14, 246388, Note_on_c, 9, 42, 0
14, 246528, Note_on_c, 9, 36, 127
14, 246528, Note_on_c, 9, 42, 127
14, 246592, Note_on_c, 9, 42, 0
14, 246644, Note_on_c, 9, 36, 0
14, 246720, Note_on_c, 9, 42, 127
14, 246772, Note_on_c, 9, 42, 0
14, 246912, Note_on_c, 9, 38, 127
14, 246912, Note_on_c, 9, 42, 127
14, 246976, Note_on_c, 9, 42, 0
14, 247020, Note_on_c, 9, 38, 0
14, 247104, Note_on_c, 9, 42, 127
14, 247156, Note_on_c, 9, 42, 0
14, 247296, Note_on_c, 9, 36, 127
14, 247296, Note_on_c, 9, 42, 127
14, 247360, Note_on_c, 9, 42, 0
14, 247428, Note_on_c, 9, 36, 0
14, 247488, Note_on_c, 9, 42, 127
14, 247540, Note_on_c, 9, 42, 0
14, 247680, Note_on_c, 9, 38, 127
14, 247680, Note_on_c, 9, 42, 127
14, 247744, Note_on_c, 9, 42, 0
14, 247792, Note_on_c, 9, 38, 0
14, 247872, Note_on_c, 9, 42, 127
14, 247924, Note_on_c, 9, 42, 0
14, 248064, Note_on_c, 9, 36, 127
14, 248064, Note_on_c, 9, 42, 127
14, 248128, Note_on_c, 9, 42, 0
14, 248184, Note_on_c, 9, 36, 0
14, 248256, Note_on_c, 9, 46, 127
14, 248304, Note_on_c, 9, 46, 0
14, 248448, Note_on_c, 9, 38, 127
14, 248448, Note_on_c, 9, 42, 127
14, 248508, Note_on_c, 9, 42, 0
14, 248548, Note_on_c, 9, 38, 0
14, 248640, Note_on_c, 9, 46, 127
14, 248696, Note_on_c, 9, 46, 0
14, 248832, Note_on_c, 9, 36, 127
14, 248832, Note_on_c, 9, 42, 127
14, 248892, Note_on_c, 9, 42, 0
14, 248924, Note_on_c, 9, 36, 0
14, 249024, Note_on_c, 9, 42, 127
14, 249076, Note_on_c, 9, 42, 0
14, 249216, Note_on_c, 9, 38, 127
14, 249216, Note_on_c, 9, 42, 127
14, 249276, Note_on_c, 9, 42, 0
14, 249344, Note_on_c, 9, 38, 0
14, 249408, Note_on_c, 9, 42, 127
14, 249464, Note_on_c, 9, 42, 0
14, 249600, Note_on_c, 9, 36, 127
14, 249600, Note_on_c, 9, 42, 127
14, 249664, Note_on_c, 9, 42, 0
14, 249720, Note_on_c, 9, 36, 0
14, 249792, Note_on_c, 9, 42, 127
14, 249852, Note_on_c, 9, 42, 0
14, 249984, Note_on_c, 9, 38, 127
14, 249984, Note_on_c, 9, 42, 127
14, 250052, Note_on_c, 9, 42, 0
14, 250104, Note_on_c, 9, 38, 0
14, 250176, Note_on_c, 9, 42, 127
14, 250228, Note_on_c, 9, 42, 0
14, 250368, Note_on_c, 9, 36, 127
14, 250368, Note_on_c, 9, 42, 127
14, 250436, Note_on_c, 9, 42, 0
14, 250516, Note_on_c, 9, 36, 0
14, 250560, Note_on_c, 9, 42, 127
14, 250620, Note_on_c, 9, 42, 0
14, 250752, Note_on_c, 9, 38, 127
14, 250752, Note_on_c, 9, 42, 127
14, 250824, Note_on_c, 9, 42, 0
14, 250864, Note_on_c, 9, 38, 0
14, 250944, Note_on_c, 9, 42, 127
14, 251008, Note_on_c, 9, 42, 0
14, 251136, Note_on_c, 9, 36, 127
14, 251136, Note_on_c, 9, 42, 127
14, 251200, Note_on_c, 9, 42, 0
14, 251268, Note_on_c, 9, 36, 0
14, 251328, Note_on_c, 9, 42, 127
14, 251388, Note_on_c, 9, 42, 0
14, 251520, Note_on_c, 9, 38, 127
14, 251520, Note_on_c, 9, 42, 127
14, 251584, Note_on_c, 9, 42, 0
14, 251624, Note_on_c, 9, 38, 0
14, 251712, Note_on_c, 9, 36, 127
14, 251712, Note_on_c, 9, 42, 127
14, 251768, Note_on_c, 9, 42, 0
14, 251776, Note_on_c, 9, 36, 0
14, 251904, Note_on_c, 9, 36, 127
14, 251904, Note_on_c, 9, 42, 127
14, 251968, Note_on_c, 9, 42, 0
14, 252020, Note_on_c, 9, 36, 0
14, 252096, Note_on_c, 9, 42, 127
14, 252152, Note_on_c, 9, 42, 0
14, 252288, Note_on_c, 9, 38, 127
14, 252288, Note_on_c, 9, 42, 127
14, 252360, Note_on_c, 9, 42, 0
14, 252408, Note_on_c, 9, 38, 0
14, 252480, Note_on_c, 9, 42, 127
14, 252540, Note_on_c, 9, 42, 0
14, 252672, Note_on_c, 9, 36, 127
14, 252672, Note_on_c, 9, 42, 127
14, 252736, Note_on_c, 9, 42, 0
14, 252808, Note_on_c, 9, 36, 0
14, 252864, Note_on_c, 9, 42, 127
14, 252924, Note_on_c, 9, 42, 0
14, 253056, Note_on_c, 9, 38, 127
14, 253056, Note_on_c, 9, 42, 127
14, 253120, Note_on_c, 9, 42, 0
14, 253160, Note_on_c, 9, 38, 0
14, 253248, Note_on_c, 9, 42, 127
14, 253304, Note_on_c, 9, 42, 0
14, 253440, Note_on_c, 9, 36, 127
14, 253440, Note_on_c, 9, 42, 127
14, 253500, Note_on_c, 9, 42, 0
14, 253584, Note_on_c, 9, 36, 0
14, 253632, Note_on_c, 9, 42, 127
14, 253692, Note_on_c, 9, 42, 0
14, 253824, Note_on_c, 9, 38, 127
14, 253824, Note_on_c, 9, 42, 127
14, 253884, Note_on_c, 9, 42, 0
14, 253940, Note_on_c, 9, 38, 0
14, 254016, Note_on_c, 9, 46, 127
14, 254080, Note_on_c, 9, 46, 0
14, 254208, Note_on_c, 9, 36, 127
14, 254208, Note_on_c, 9, 42, 127
14, 254268, Note_on_c, 9, 42, 0
14, 254328, Note_on_c, 9, 36, 0
14, 254400, Note_on_c, 9, 42, 127
14, 254452, Note_on_c, 9, 42, 0
14, 254496, Note_on_c, 9, 38, 127
14, 254580, Note_on_c, 9, 38, 0
14, 254592, Note_on_c, 9, 38, 127
14, 254592, Note_on_c, 9, 46, 127
14, 254648, Note_on_c, 9, 46, 0
14, 254676, Note_on_c, 9, 38, 0
14, 254784, Note_on_c, 9, 36, 127
14, 254860, Note_on_c, 9, 36, 0
14, 254976, Note_on_c, 9, 36, 127
14, 254976, Note_on_c, 9, 42, 127
14, 255036, Note_on_c, 9, 42, 0
14, 255168, Note_on_c, 9, 36, 0
14, 255168, Note_on_c, 9, 42, 127
14, 255212, Note_on_c, 9, 42, 0
14, 255360, Note_on_c, 9, 38, 127
14, 255360, Note_on_c, 9, 42, 127
14, 255424, Note_on_c, 9, 42, 0
14, 255436, Note_on_c, 9, 38, 0
14, 255552, Note_on_c, 9, 42, 127
14, 255596, Note_on_c, 9, 42, 0
14, 255744, Note_on_c, 9, 36, 127
14, 255744, Note_on_c, 9, 42, 127
14, 255804, Note_on_c, 9, 42, 0
14, 255872, Note_on_c, 9, 36, 0
14, 255936, Note_on_c, 9, 42, 127
14, 255984, Note_on_c, 9, 42, 0
14, 256128, Note_on_c, 9, 38, 127
14, 256128, Note_on_c, 9, 42, 127
14, 256192, Note_on_c, 9, 42, 0
14, 256208, Note_on_c, 9, 38, 0
14, 256320, Note_on_c, 9, 42, 127
14, 256376, Note_on_c, 9, 42, 0
14, 256512, Note_on_c, 9, 36, 127
14, 256512, Note_on_c, 9, 42, 127
14, 256576, Note_on_c, 9, 42, 0
14, 256676, Note_on_c, 9, 36, 0
14, 256704, Note_on_c, 9, 42, 127
14, 256760, Note_on_c, 9, 42, 0
14, 256896, Note_on_c, 9, 38, 127
14, 256896, Note_on_c, 9, 42, 127
14, 256964, Note_on_c, 9, 42, 0
14, 256976, Note_on_c, 9, 38, 0
14, 257088, Note_on_c, 9, 42, 127
14, 257148, Note_on_c, 9, 42, 0
14, 257280, Note_on_c, 9, 36, 127
14, 257280, Note_on_c, 9, 42, 127
14, 257344, Note_on_c, 9, 42, 0
14, 257440, Note_on_c, 9, 36, 0
14, 257472, Note_on_c, 9, 42, 127
14, 257528, Note_on_c, 9, 42, 0
14, 257664, Note_on_c, 9, 38, 127
14, 257664, Note_on_c, 9, 42, 127
14, 257732, Note_on_c, 9, 42, 0
14, 257764, Note_on_c, 9, 38, 0
14, 257856, Note_on_c, 9, 46, 127
14, 257904, Note_on_c, 9, 46, 0
14, 258048, Note_on_c, 9, 36, 127
14, 258048, Note_on_c, 9, 42, 127
14, 258108, Note_on_c, 9, 42, 0
14, 258156, Note_on_c, 9, 36, 0
14, 258240, Note_on_c, 9, 42, 127
14, 258292, Note_on_c, 9, 42, 0
14, 258432, Note_on_c, 9, 38, 127
14, 258432, Note_on_c, 9, 42, 127
14, 258492, Note_on_c, 9, 42, 0
14, 258528, Note_on_c, 9, 38, 0
14, 258624, Note_on_c, 9, 42, 127
14, 258676, Note_on_c, 9, 42, 0
14, 258816, Note_on_c, 9, 36, 127
14, 258816, Note_on_c, 9, 42, 127
14, 258880, Note_on_c, 9, 42, 0
14, 258932, Note_on_c, 9, 36, 0
14, 259008, Note_on_c, 9, 42, 127
14, 259060, Note_on_c, 9, 42, 0
14, 259200, Note_on_c, 9, 38, 127
14, 259200, Note_on_c, 9, 42, 127
14, 259264, Note_on_c, 9, 42, 0
14, 259308, Note_on_c, 9, 38, 0
14, 259392, Note_on_c, 9, 42, 127
14, 259444, Note_on_c, 9, 42, 0
14, 259584, Note_on_c, 9, 36, 127
14, 259584, Note_on_c, 9, 42, 127
14, 259648, Note_on_c, 9, 42, 0
14, 259716, Note_on_c, 9, 36, 0
14, 259776, Note_on_c, 9, 42, 127
14, 259828, Note_on_c, 9, 42, 0
14, 259968, Note_on_c, 9, 38, 127
14, 259968, Note_on_c, 9, 42, 127
14, 260032, Note_on_c, 9, 42, 0
14, 260080, Note_on_c, 9, 38, 0
14, 260160, Note_on_c, 9, 42, 127
14, 260212, Note_on_c, 9, 42, 0
14, 260352, Note_on_c, 9, 36, 127
14, 260352, Note_on_c, 9, 42, 127
14, 260416, Note_on_c, 9, 42, 0
14, 260472, Note_on_c, 9, 36, 0
14, 260544, Note_on_c, 9, 42, 127
14, 260592, Note_on_c, 9, 42, 0
14, 260736, Note_on_c, 9, 38, 127
14, 260736, Note_on_c, 9, 42, 127
14, 260796, Note_on_c, 9, 42, 0
14, 260836, Note_on_c, 9, 38, 0
14, 260928, Note_on_c, 9, 46, 127
14, 260984, Note_on_c, 9, 46, 0
14, 261120, Note_on_c, 9, 36, 127
14, 261120, Note_on_c, 9, 42, 127
14, 261180, Note_on_c, 9, 42, 0
14, 261212, Note_on_c, 9, 36, 0
14, 261312, Note_on_c, 9, 42, 127
14, 261364, Note_on_c, 9, 42, 0
14, 261504, Note_on_c, 9, 38, 127
14, 261504, Note_on_c, 9, 42, 127
14, 261564, Note_on_c, 9, 42, 0
14, 261632, Note_on_c, 9, 38, 0
14, 261696, Note_on_c, 9, 42, 127
14, 261752, Note_on_c, 9, 42, 0
14, 261888, Note_on_c, 9, 36, 127
14, 261888, Note_on_c, 9, 42, 127
14, 261952, Note_on_c, 9, 42, 0
14, 262008, Note_on_c, 9, 36, 0
14, 262080, Note_on_c, 9, 42, 127
14, 262140, Note_on_c, 9, 42, 0
14, 262272, Note_on_c, 9, 38, 127
14, 262272, Note_on_c, 9, 42, 127
14, 262340, Note_on_c, 9, 42, 0
14, 262392, Note_on_c, 9, 38, 0
14, 262464, Note_on_c, 9, 42, 127
14, 262516, Note_on_c, 9, 42, 0
14, 262656, Note_on_c, 9, 36, 127
14, 262656, Note_on_c, 9, 42, 127
14, 262724, Note_on_c, 9, 42, 0
14, 262804, Note_on_c, 9, 36, 0
14, 262848, Note_on_c, 9, 42, 127
14, 262908, Note_on_c, 9, 42, 0
14, 263040, Note_on_c, 9, 38, 127
14, 263040, Note_on_c, 9, 42, 127
14, 263112, Note_on_c, 9, 42, 0
14, 263152, Note_on_c, 9, 38, 0
14, 263232, Note_on_c, 9, 42, 127
14, 263296, Note_on_c, 9, 42, 0
14, 263424, Note_on_c, 9, 36, 127
14, 263424, Note_on_c, 9, 42, 127
14, 263488, Note_on_c, 9, 42, 0
14, 263556, Note_on_c, 9, 36, 0
14, 263616, Note_on_c, 9, 42, 127
14, 263676, Note_on_c, 9, 42, 0
14, 263808, Note_on_c, 9, 38, 127
14, 263808, Note_on_c, 9, 42, 127
14, 263872, Note_on_c, 9, 42, 0
14, 263912, Note_on_c, 9, 38, 0
14, 264000, Note_on_c, 9, 42, 127
14, 264056, Note_on_c, 9, 42, 0
14, 264192, Note_on_c, 9, 36, 127
14, 264192, Note_on_c, 9, 42, 127
14, 264256, Note_on_c, 9, 42, 0
14, 264308, Note_on_c, 9, 36, 0
14, 264384, Note_on_c, 9, 42, 127
14, 264440, Note_on_c, 9, 42, 0
14, 264576, Note_on_c, 9, 38, 127
14, 264576, Note_on_c, 9, 42, 127
14, 264648, Note_on_c, 9, 42, 0
14, 264696, Note_on_c, 9, 38, 0
14, 264768, Note_on_c, 9, 42, 127
14, 264828, Note_on_c, 9, 42, 0
14, 264960, Note_on_c, 9, 36, 127
14, 264960, Note_on_c, 9, 42, 127
14, 265024, Note_on_c, 9, 42, 0
14, 265096, Note_on_c, 9, 36, 0
14, 265152, Note_on_c, 9, 42, 127
14, 265212, Note_on_c, 9, 42, 0
14, 265344, Note_on_c, 9, 38, 127
14, 265344, Note_on_c, 9, 42, 127
14, 265408, Note_on_c, 9, 42, 0
14, 265448, Note_on_c, 9, 38, 0
14, 265536, Note_on_c, 9, 42, 127
14, 265592, Note_on_c, 9, 42, 0
14, 265728, Note_on_c, 9, 36, 127
14, 265728, Note_on_c, 9, 42, 127
14, 265788, Note_on_c, 9, 42, 0
14, 265872, Note_on_c, 9, 36, 0
14, 265920, Note_on_c, 9, 42, 127
14, 265980, Note_on_c, 9, 42, 0
14, 266112, Note_on_c, 9, 38, 127
14, 266112, Note_on_c, 9, 42, 127
14, 266172, Note_on_c, 9, 42, 0
14, 266228, Note_on_c, 9, 38, 0
14, 266304, Note_on_c, 9, 42, 127
14, 266360, Note_on_c, 9, 42, 0
14, 266496, Note_on_c, 9, 36, 127
14, 266496, Note_on_c, 9, 42, 127
14, 266556, Note_on_c, 9, 42, 0
14, 266616, Note_on_c, 9, 36, 0
14, 266688, Note_on_c, 9, 38, 127
14, 266688, Note_on_c, 9, 42, 127
14, 266740, Note_on_c, 9, 42, 0
14, 266772, Note_on_c, 9, 38, 0
14, 266880, Note_on_c, 9, 38, 127
14, 266880, Note_on_c, 9, 42, 127
14, 266936, Note_on_c, 9, 42, 0
14, 266964, Note_on_c, 9, 38, 0
14, 267072, Note_on_c, 9, 46, 127
14, 267128, Note_on_c, 9, 46, 0
14, 267264, Note_on_c, 9, 36, 127
14, 267264, Note_on_c, 9, 42, 127
14, 267264, Note_on_c, 9, 56, 127
14, 267324, Note_on_c, 9, 42, 0
14, 267328, Note_on_c, 9, 56, 0
14, 267456, Note_on_c, 9, 36, 0
14, 267456, Note_on_c, 9, 42, 127
14, 267500, Note_on_c, 9, 42, 0
14, 267648, Note_on_c, 9, 38, 127
14, 267648, Note_on_c, 9, 42, 127
14, 267712, Note_on_c, 9, 42, 0
14, 267724, Note_on_c, 9, 38, 0
14, 267840, Note_on_c, 9, 42, 127
14, 267884, Note_on_c, 9, 42, 0
14, 268032, Note_on_c, 9, 36, 127
14, 268032, Note_on_c, 9, 42, 127
14, 268032, Note_on_c, 9, 56, 127
14, 268092, Note_on_c, 9, 56, 0
14, 268092, Note_on_c, 9, 42, 0
14, 268160, Note_on_c, 9, 36, 0
14, 268224, Note_on_c, 9, 42, 127
14, 268272, Note_on_c, 9, 42, 0
14, 268416, Note_on_c, 9, 38, 127
14, 268416, Note_on_c, 9, 42, 127
14, 268480, Note_on_c, 9, 42, 0
14, 268496, Note_on_c, 9, 38, 0
14, 268608, Note_on_c, 9, 42, 127
14, 268664, Note_on_c, 9, 42, 0
14, 268800, Note_on_c, 9, 36, 127
14, 268800, Note_on_c, 9, 42, 127
14, 268800, Note_on_c, 9, 56, 127
14, 268864, Note_on_c, 9, 42, 0
14, 268868, Note_on_c, 9, 56, 0
14, 268964, Note_on_c, 9, 36, 0
14, 268992, Note_on_c, 9, 42, 127
14, 269048, Note_on_c, 9, 42, 0
14, 269184, Note_on_c, 9, 38, 127
14, 269184, Note_on_c, 9, 42, 127
14, 269252, Note_on_c, 9, 42, 0
14, 269264, Note_on_c, 9, 38, 0
14, 269376, Note_on_c, 9, 42, 127
14, 269436, Note_on_c, 9, 42, 0
14, 269568, Note_on_c, 9, 36, 127
14, 269568, Note_on_c, 9, 42, 127
14, 269568, Note_on_c, 9, 56, 127
14, 269632, Note_on_c, 9, 42, 0
14, 269640, Note_on_c, 9, 56, 0
14, 269728, Note_on_c, 9, 36, 0
14, 269760, Note_on_c, 9, 42, 127
14, 269816, Note_on_c, 9, 42, 0
14, 269952, Note_on_c, 9, 38, 127
14, 269952, Note_on_c, 9, 42, 127
14, 270020, Note_on_c, 9, 42, 0
14, 270052, Note_on_c, 9, 38, 0
14, 270144, Note_on_c, 9, 46, 127
14, 270192, Note_on_c, 9, 46, 0
14, 270336, Note_on_c, 9, 36, 127
14, 270336, Note_on_c, 9, 42, 127
14, 270336, Note_on_c, 9, 56, 127
14, 270396, Note_on_c, 9, 42, 0
14, 270408, Note_on_c, 9, 56, 0
14, 270444, Note_on_c, 9, 36, 0
14, 270528, Note_on_c, 9, 42, 127
14, 270580, Note_on_c, 9, 42, 0
14, 270720, Note_on_c, 9, 38, 127
14, 270720, Note_on_c, 9, 42, 127
14, 270780, Note_on_c, 9, 42, 0
14, 270816, Note_on_c, 9, 38, 0
14, 270912, Note_on_c, 9, 42, 127
14, 270964, Note_on_c, 9, 42, 0
14, 271104, Note_on_c, 9, 36, 127
14, 271104, Note_on_c, 9, 42, 127
14, 271104, Note_on_c, 9, 56, 127
14, 271168, Note_on_c, 9, 42, 0
14, 271180, Note_on_c, 9, 56, 0
14, 271220, Note_on_c, 9, 36, 0
14, 271296, Note_on_c, 9, 42, 127
14, 271348, Note_on_c, 9, 42, 0
14, 271488, Note_on_c, 9, 38, 127
14, 271488, Note_on_c, 9, 42, 127
14, 271552, Note_on_c, 9, 42, 0
14, 271596, Note_on_c, 9, 38, 0
14, 271680, Note_on_c, 9, 42, 127
14, 271732, Note_on_c, 9, 42, 0
14, 271872, Note_on_c, 9, 36, 127
14, 271872, Note_on_c, 9, 42, 127
14, 271872, Note_on_c, 9, 56, 127
14, 271936, Note_on_c, 9, 42, 0
14, 271948, Note_on_c, 9, 56, 0
14, 272004, Note_on_c, 9, 36, 0
14, 272064, Note_on_c, 9, 42, 127
14, 272116, Note_on_c, 9, 42, 0
14, 272256, Note_on_c, 9, 38, 127
14, 272256, Note_on_c, 9, 42, 127
14, 272320, Note_on_c, 9, 42, 0
14, 272368, Note_on_c, 9, 38, 0
14, 272448, Note_on_c, 9, 42, 127
14, 272500, Note_on_c, 9, 42, 0
14, 272640, Note_on_c, 9, 36, 127
14, 272640, Note_on_c, 9, 42, 127
14, 272640, Note_on_c, 9, 56, 127
14, 272704, Note_on_c, 9, 42, 0
14, 272716, Note_on_c, 9, 56, 0
14, 272760, Note_on_c, 9, 36, 0
14, 272832, Note_on_c, 9, 42, 127
14, 272880, Note_on_c, 9, 42, 0
14, 273024, Note_on_c, 9, 38, 127
14, 273024, Note_on_c, 9, 42, 127
14, 273084, Note_on_c, 9, 42, 0
14, 273124, Note_on_c, 9, 38, 0
14, 273216, Note_on_c, 9, 36, 127
14, 273216, Note_on_c, 9, 46, 127
14, 273272, Note_on_c, 9, 46, 0
14, 273284, Note_on_c, 9, 36, 0
14, 273408, Note_on_c, 9, 36, 127
14, 273408, Note_on_c, 9, 42, 127
14, 273408, Note_on_c, 9, 56, 127
14, 273468, Note_on_c, 9, 42, 0
14, 273484, Note_on_c, 9, 56, 0
14, 273500, Note_on_c, 9, 36, 0
14, 273600, Note_on_c, 9, 42, 127
14, 273652, Note_on_c, 9, 42, 0
14, 273792, Note_on_c, 9, 38, 127
14, 273792, Note_on_c, 9, 42, 127
14, 273852, Note_on_c, 9, 42, 0
14, 273920, Note_on_c, 9, 38, 0
14, 273984, Note_on_c, 9, 42, 127
14, 274040, Note_on_c, 9, 42, 0
14, 274176, Note_on_c, 9, 36, 127
14, 274176, Note_on_c, 9, 42, 127
14, 274176, Note_on_c, 9, 56, 127
14, 274240, Note_on_c, 9, 42, 0
14, 274252, Note_on_c, 9, 56, 0
14, 274296, Note_on_c, 9, 36, 0
14, 274368, Note_on_c, 9, 42, 127
14, 274428, Note_on_c, 9, 42, 0
14, 274560, Note_on_c, 9, 38, 127
14, 274560, Note_on_c, 9, 42, 127
14, 274628, Note_on_c, 9, 42, 0
14, 274680, Note_on_c, 9, 38, 0
14, 274752, Note_on_c, 9, 42, 127
14, 274804, Note_on_c, 9, 42, 0
14, 274944, Note_on_c, 9, 36, 127
14, 274944, Note_on_c, 9, 42, 127
14, 274944, Note_on_c, 9, 56, 127
14, 275012, Note_on_c, 9, 42, 0
14, 275020, Note_on_c, 9, 56, 0
14, 275092, Note_on_c, 9, 36, 0
14, 275136, Note_on_c, 9, 42, 127
14, 275196, Note_on_c, 9, 42, 0
14, 275328, Note_on_c, 9, 38, 127
14, 275328, Note_on_c, 9, 42, 127
14, 275400, Note_on_c, 9, 42, 0
14, 275440, Note_on_c, 9, 38, 0
14, 275520, Note_on_c, 9, 42, 127
14, 275584, Note_on_c, 9, 42, 0
14, 275712, Note_on_c, 9, 36, 127
14, 275712, Note_on_c, 9, 42, 127
14, 275712, Note_on_c, 9, 56, 127
14, 275776, Note_on_c, 9, 42, 0
14, 275788, Note_on_c, 9, 56, 0
14, 275844, Note_on_c, 9, 36, 0
14, 275904, Note_on_c, 9, 42, 127
14, 275964, Note_on_c, 9, 42, 0
14, 276096, Note_on_c, 9, 38, 127
14, 276096, Note_on_c, 9, 42, 127
14, 276160, Note_on_c, 9, 42, 0
14, 276200, Note_on_c, 9, 38, 0
14, 276288, Note_on_c, 9, 36, 127
14, 276288, Note_on_c, 9, 42, 127
14, 276344, Note_on_c, 9, 42, 0
14, 276352, Note_on_c, 9, 36, 0
14, 276480, Note_on_c, 9, 36, 127
14, 276480, Note_on_c, 9, 42, 127
14, 276480, Note_on_c, 9, 56, 127
14, 276544, Note_on_c, 9, 42, 0
14, 276556, Note_on_c, 9, 56, 0
14, 276596, Note_on_c, 9, 36, 0
14, 276672, Note_on_c, 9, 42, 127
14, 276728, Note_on_c, 9, 42, 0
14, 276864, Note_on_c, 9, 38, 127
14, 276864, Note_on_c, 9, 42, 127
14, 276936, Note_on_c, 9, 42, 0
14, 276984, Note_on_c, 9, 38, 0
14, 277056, Note_on_c, 9, 42, 127
14, 277116, Note_on_c, 9, 42, 0
14, 277248, Note_on_c, 9, 36, 127
14, 277248, Note_on_c, 9, 42, 127
14, 277248, Note_on_c, 9, 56, 127
14, 277312, Note_on_c, 9, 42, 0
14, 277328, Note_on_c, 9, 56, 0
14, 277384, Note_on_c, 9, 36, 0
14, 277440, Note_on_c, 9, 42, 127
14, 277500, Note_on_c, 9, 42, 0
14, 277632, Note_on_c, 9, 38, 127
14, 277632, Note_on_c, 9, 42, 127
14, 277696, Note_on_c, 9, 42, 0
14, 277736, Note_on_c, 9, 38, 0
14, 277824, Note_on_c, 9, 36, 127
14, 277824, Note_on_c, 9, 42, 127
14, 277880, Note_on_c, 9, 42, 0
14, 277888, Note_on_c, 9, 36, 0
14, 278016, Note_on_c, 9, 36, 127
14, 278016, Note_on_c, 9, 42, 127
14, 278016, Note_on_c, 9, 56, 127
14, 278076, Note_on_c, 9, 42, 0
14, 278084, Note_on_c, 9, 56, 0
14, 278160, Note_on_c, 9, 36, 0
14, 278208, Note_on_c, 9, 38, 127
14, 278324, Note_on_c, 9, 38, 0
14, 278400, Note_on_c, 9, 38, 127
14, 278472, Note_on_c, 9, 38, 0
14, 278496, Note_on_c, 9, 38, 127
14, 278568, Note_on_c, 9, 38, 0
14, 278592, Note_on_c, 9, 36, 127
14, 278712, Note_on_c, 9, 36, 0
14, 278784, Note_on_c, 9, 38, 127
14, 278784, Note_on_c, 9, 56, 127
14, 278848, Note_on_c, 9, 56, 0
14, 278900, Note_on_c, 9, 38, 0
14, 279072, Note_on_c, 9, 38, 127
14, 279144, Note_on_c, 9, 38, 0
14, 279168, Note_on_c, 9, 38, 127
14, 279252, Note_on_c, 9, 38, 0
14, 279360, Note_on_c, 9, 36, 127
14, 279436, Note_on_c, 9, 36, 0
14, 279552, Note_on_c, 9, 36, 127
14, 279552, Note_on_c, 9, 49, 127
14, 279552, Note_on_c, 9, 56, 127
14, 279616, Note_on_c, 9, 56, 0
14, 279620, Note_on_c, 9, 49, 0
14, 279744, Note_on_c, 9, 36, 0
14, 279744, Note_on_c, 9, 42, 127
14, 279788, Note_on_c, 9, 42, 0
14, 279936, Note_on_c, 9, 38, 127
14, 279936, Note_on_c, 9, 42, 127
14, 280000, Note_on_c, 9, 42, 0
14, 280012, Note_on_c, 9, 38, 0
14, 280128, Note_on_c, 9, 42, 127
14, 280172, Note_on_c, 9, 42, 0
14, 280320, Note_on_c, 9, 36, 127
14, 280320, Note_on_c, 9, 42, 127
14, 280320, Note_on_c, 9, 56, 127
14, 280380, Note_on_c, 9, 56, 0
14, 280380, Note_on_c, 9, 42, 0
14, 280448, Note_on_c, 9, 36, 0
14, 280512, Note_on_c, 9, 42, 127
14, 280560, Note_on_c, 9, 42, 0
14, 280704, Note_on_c, 9, 38, 127
14, 280704, Note_on_c, 9, 42, 127
14, 280768, Note_on_c, 9, 42, 0
14, 280784, Note_on_c, 9, 38, 0
14, 280896, Note_on_c, 9, 42, 127
14, 280952, Note_on_c, 9, 42, 0
14, 281088, Note_on_c, 9, 36, 127
14, 281088, Note_on_c, 9, 42, 127
14, 281088, Note_on_c, 9, 56, 127
14, 281152, Note_on_c, 9, 42, 0
14, 281156, Note_on_c, 9, 56, 0
14, 281252, Note_on_c, 9, 36, 0
14, 281280, Note_on_c, 9, 42, 127
14, 281336, Note_on_c, 9, 42, 0
14, 281472, Note_on_c, 9, 38, 127
14, 281472, Note_on_c, 9, 42, 127
14, 281540, Note_on_c, 9, 42, 0
14, 281552, Note_on_c, 9, 38, 0
14, 281664, Note_on_c, 9, 42, 127
14, 281724, Note_on_c, 9, 42, 0
14, 281856, Note_on_c, 9, 36, 127
14, 281856, Note_on_c, 9, 42, 127
14, 281856, Note_on_c, 9, 56, 127
14, 281920, Note_on_c, 9, 42, 0
14, 281928, Note_on_c, 9, 56, 0
14, 282016, Note_on_c, 9, 36, 0
14, 282048, Note_on_c, 9, 42, 127
14, 282104, Note_on_c, 9, 42, 0
14, 282240, Note_on_c, 9, 38, 127
14, 282240, Note_on_c, 9, 42, 127
14, 282308, Note_on_c, 9, 42, 0
14, 282340, Note_on_c, 9, 38, 0
14, 282432, Note_on_c, 9, 36, 127
14, 282432, Note_on_c, 9, 46, 127
14, 282480, Note_on_c, 9, 46, 0
14, 282504, Note_on_c, 9, 36, 0
14, 282624, Note_on_c, 9, 36, 127
14, 282624, Note_on_c, 9, 42, 127
14, 282624, Note_on_c, 9, 56, 127
14, 282684, Note_on_c, 9, 42, 0
14, 282696, Note_on_c, 9, 56, 0
14, 282732, Note_on_c, 9, 36, 0
14, 282816, Note_on_c, 9, 42, 127
14, 282868, Note_on_c, 9, 42, 0
14, 283008, Note_on_c, 9, 38, 127
14, 283008, Note_on_c, 9, 42, 127
14, 283068, Note_on_c, 9, 42, 0
14, 283104, Note_on_c, 9, 38, 0
14, 283200, Note_on_c, 9, 42, 127
14, 283252, Note_on_c, 9, 42, 0
14, 283392, Note_on_c, 9, 36, 127
14, 283392, Note_on_c, 9, 42, 127
14, 283392, Note_on_c, 9, 56, 127
14, 283456, Note_on_c, 9, 42, 0
14, 283468, Note_on_c, 9, 56, 0
14, 283508, Note_on_c, 9, 36, 0
14, 283584, Note_on_c, 9, 42, 127
14, 283636, Note_on_c, 9, 42, 0
14, 283776, Note_on_c, 9, 38, 127
14, 283776, Note_on_c, 9, 42, 127
14, 283840, Note_on_c, 9, 42, 0
14, 283884, Note_on_c, 9, 38, 0
14, 283968, Note_on_c, 9, 42, 127
14, 284020, Note_on_c, 9, 42, 0
14, 284160, Note_on_c, 9, 36, 127
14, 284160, Note_on_c, 9, 42, 127
14, 284160, Note_on_c, 9, 56, 127
14, 284224, Note_on_c, 9, 42, 0
14, 284236, Note_on_c, 9, 56, 0
14, 284292, Note_on_c, 9, 36, 0
14, 284352, Note_on_c, 9, 42, 127
14, 284404, Note_on_c, 9, 42, 0
14, 284544, Note_on_c, 9, 38, 127
14, 284544, Note_on_c, 9, 42, 127
14, 284608, Note_on_c, 9, 42, 0
14, 284656, Note_on_c, 9, 38, 0
14, 284736, Note_on_c, 9, 42, 127
14, 284788, Note_on_c, 9, 42, 0
14, 284928, Note_on_c, 9, 36, 127
14, 284928, Note_on_c, 9, 42, 127
14, 284928, Note_on_c, 9, 56, 127
14, 284992, Note_on_c, 9, 42, 0
14, 285004, Note_on_c, 9, 56, 0
14, 285048, Note_on_c, 9, 36, 0
14, 285120, Note_on_c, 9, 42, 127
14, 285168, Note_on_c, 9, 42, 0
14, 285312, Note_on_c, 9, 38, 127
14, 285312, Note_on_c, 9, 42, 127
14, 285372, Note_on_c, 9, 42, 0
14, 285412, Note_on_c, 9, 38, 0
14, 285504, Note_on_c, 9, 36, 127
14, 285504, Note_on_c, 9, 46, 127
14, 285560, Note_on_c, 9, 46, 0
14, 285572, Note_on_c, 9, 36, 0
14, 285696, Note_on_c, 9, 36, 127
14, 285696, Note_on_c, 9, 42, 127
14, 285696, Note_on_c, 9, 56, 127
14, 285756, Note_on_c, 9, 42, 0
14, 285772, Note_on_c, 9, 56, 0
14, 285788, Note_on_c, 9, 36, 0
14, 285888, Note_on_c, 9, 42, 127
14, 285940, Note_on_c, 9, 42, 0
14, 286080, Note_on_c, 9, 38, 127
14, 286080, Note_on_c, 9, 42, 127
14, 286140, Note_on_c, 9, 42, 0
14, 286208, Note_on_c, 9, 38, 0
14, 286272, Note_on_c, 9, 42, 127
14, 286328, Note_on_c, 9, 42, 0
14, 286464, Note_on_c, 9, 36, 127
14, 286464, Note_on_c, 9, 42, 127
14, 286464, Note_on_c, 9, 56, 127
14, 286528, Note_on_c, 9, 42, 0
14, 286540, Note_on_c, 9, 56, 0
14, 286584, Note_on_c, 9, 36, 0
14, 286656, Note_on_c, 9, 42, 127
14, 286716, Note_on_c, 9, 42, 0
14, 286848, Note_on_c, 9, 38, 127
14, 286848, Note_on_c, 9, 42, 127
14, 286916, Note_on_c, 9, 42, 0
14, 286968, Note_on_c, 9, 38, 0
14, 287040, Note_on_c, 9, 42, 127
14, 287092, Note_on_c, 9, 42, 0
14, 287232, Note_on_c, 9, 36, 127
14, 287232, Note_on_c, 9, 42, 127
14, 287232, Note_on_c, 9, 56, 127
14, 287300, Note_on_c, 9, 42, 0
14, 287308, Note_on_c, 9, 56, 0
14, 287380, Note_on_c, 9, 36, 0
14, 287424, Note_on_c, 9, 42, 127
14, 287484, Note_on_c, 9, 42, 0
14, 287616, Note_on_c, 9, 38, 127
14, 287616, Note_on_c, 9, 42, 127
14, 287688, Note_on_c, 9, 42, 0
14, 287728, Note_on_c, 9, 38, 0
14, 287808, Note_on_c, 9, 42, 127
14, 287872, Note_on_c, 9, 42, 0
14, 288000, Note_on_c, 9, 36, 127
14, 288000, Note_on_c, 9, 42, 127
14, 288000, Note_on_c, 9, 56, 127
14, 288064, Note_on_c, 9, 42, 0
14, 288076, Note_on_c, 9, 56, 0
14, 288132, Note_on_c, 9, 36, 0
14, 288192, Note_on_c, 9, 42, 127
14, 288252, Note_on_c, 9, 42, 0
14, 288384, Note_on_c, 9, 38, 127
14, 288384, Note_on_c, 9, 42, 127
14, 288448, Note_on_c, 9, 42, 0
14, 288488, Note_on_c, 9, 38, 0
14, 288576, Note_on_c, 9, 36, 127
14, 288576, Note_on_c, 9, 42, 127
14, 288632, Note_on_c, 9, 42, 0
14, 288640, Note_on_c, 9, 36, 0
14, 288768, Note_on_c, 9, 36, 127
14, 288768, Note_on_c, 9, 42, 127
14, 288768, Note_on_c, 9, 56, 127
14, 288832, Note_on_c, 9, 42, 0
14, 288844, Note_on_c, 9, 56, 0
14, 288884, Note_on_c, 9, 36, 0
14, 288960, Note_on_c, 9, 42, 127
14, 289016, Note_on_c, 9, 42, 0
14, 289152, Note_on_c, 9, 38, 127
14, 289152, Note_on_c, 9, 42, 127
14, 289224, Note_on_c, 9, 42, 0
14, 289272, Note_on_c, 9, 38, 0
14, 289344, Note_on_c, 9, 42, 127
14, 289404, Note_on_c, 9, 42, 0
14, 289536, Note_on_c, 9, 36, 127
14, 289536, Note_on_c, 9, 42, 127
14, 289536, Note_on_c, 9, 56, 127
14, 289600, Note_on_c, 9, 42, 0
14, 289616, Note_on_c, 9, 56, 0
14, 289672, Note_on_c, 9, 36, 0
14, 289728, Note_on_c, 9, 42, 127
14, 289788, Note_on_c, 9, 42, 0
14, 289920, Note_on_c, 9, 38, 127
14, 289920, Note_on_c, 9, 42, 127
14, 289984, Note_on_c, 9, 42, 0
14, 290024, Note_on_c, 9, 38, 0
14, 290112, Note_on_c, 9, 42, 127
14, 290168, Note_on_c, 9, 42, 0
14, 290304, Note_on_c, 9, 36, 127
14, 290304, Note_on_c, 9, 42, 127
14, 290304, Note_on_c, 9, 56, 127
14, 290364, Note_on_c, 9, 42, 0
14, 290372, Note_on_c, 9, 56, 0
14, 290448, Note_on_c, 9, 36, 0
14, 290592, Note_on_c, 9, 38, 127
14, 290660, Note_on_c, 9, 38, 0
14, 290688, Note_on_c, 9, 38, 127
14, 290760, Note_on_c, 9, 38, 0
14, 290880, Note_on_c, 9, 36, 127
14, 291000, Note_on_c, 9, 36, 0
14, 291072, Note_on_c, 9, 38, 127
14, 291072, Note_on_c, 9, 56, 127
14, 291136, Note_on_c, 9, 56, 0
14, 291188, Note_on_c, 9, 38, 0
14, 291360, Note_on_c, 9, 38, 127
14, 291432, Note_on_c, 9, 38, 0
14, 291456, Note_on_c, 9, 38, 127
14, 291540, Note_on_c, 9, 38, 0
14, 291648, Note_on_c, 9, 36, 127
14, 291724, Note_on_c, 9, 36, 0
14, 291840, Note_on_c, 9, 36, 127
14, 291840, Note_on_c, 9, 49, 127
14, 291840, Note_on_c, 9, 56, 127
14, 291904, Note_on_c, 9, 56, 0
14, 291908, Note_on_c, 9, 49, 0
14, 292032, Note_on_c, 9, 36, 0
14, 292032, Note_on_c, 9, 42, 127
14, 292076, Note_on_c, 9, 42, 0
14, 292224, Note_on_c, 9, 38, 127
14, 292224, Note_on_c, 9, 42, 127
14, 292288, Note_on_c, 9, 42, 0
14, 292300, Note_on_c, 9, 38, 0
14, 292416, Note_on_c, 9, 42, 127
14, 292460, Note_on_c, 9, 42, 0
14, 292608, Note_on_c, 9, 36, 127
14, 292608, Note_on_c, 9, 42, 127
14, 292608, Note_on_c, 9, 56, 127
14, 292668, Note_on_c, 9, 56, 0
14, 292668, Note_on_c, 9, 42, 0
14, 292736, Note_on_c, 9, 36, 0
14, 292800, Note_on_c, 9, 42, 127
14, 292848, Note_on_c, 9, 42, 0
14, 292992, Note_on_c, 9, 38, 127
14, 292992, Note_on_c, 9, 42, 127
14, 293056, Note_on_c, 9, 42, 0
14, 293072, Note_on_c, 9, 38, 0
14, 293184, Note_on_c, 9, 42, 127
14, 293240, Note_on_c, 9, 42, 0
14, 293376, Note_on_c, 9, 36, 127
14, 293376, Note_on_c, 9, 42, 127
14, 293376, Note_on_c, 9, 56, 127
14, 293440, Note_on_c, 9, 42, 0
14, 293444, Note_on_c, 9, 56, 0
14, 293540, Note_on_c, 9, 36, 0
14, 293568, Note_on_c, 9, 42, 127
14, 293624, Note_on_c, 9, 42, 0
14, 293760, Note_on_c, 9, 38, 127
14, 293760, Note_on_c, 9, 42, 127
14, 293828, Note_on_c, 9, 42, 0
14, 293840, Note_on_c, 9, 38, 0
14, 293952, Note_on_c, 9, 42, 127
14, 294012, Note_on_c, 9, 42, 0
14, 294144, Note_on_c, 9, 36, 127
14, 294144, Note_on_c, 9, 42, 127
14, 294144, Note_on_c, 9, 56, 127
14, 294208, Note_on_c, 9, 42, 0
14, 294216, Note_on_c, 9, 56, 0
14, 294304, Note_on_c, 9, 36, 0
14, 294336, Note_on_c, 9, 42, 127
14, 294392, Note_on_c, 9, 42, 0
14, 294528, Note_on_c, 9, 38, 127
14, 294528, Note_on_c, 9, 42, 127
14, 294596, Note_on_c, 9, 42, 0
14, 294628, Note_on_c, 9, 38, 0
14, 294720, Note_on_c, 9, 36, 127
14, 294720, Note_on_c, 9, 46, 127
14, 294768, Note_on_c, 9, 46, 0
14, 294792, Note_on_c, 9, 36, 0
14, 294912, Note_on_c, 9, 36, 127
14, 294912, Note_on_c, 9, 42, 127
14, 294912, Note_on_c, 9, 56, 127
14, 294972, Note_on_c, 9, 42, 0
14, 294984, Note_on_c, 9, 56, 0
14, 295020, Note_on_c, 9, 36, 0
14, 295104, Note_on_c, 9, 42, 127
14, 295156, Note_on_c, 9, 42, 0
14, 295296, Note_on_c, 9, 38, 127
14, 295296, Note_on_c, 9, 42, 127
14, 295356, Note_on_c, 9, 42, 0
14, 295392, Note_on_c, 9, 38, 0
14, 295488, Note_on_c, 9, 42, 127
14, 295540, Note_on_c, 9, 42, 0
14, 295680, Note_on_c, 9, 36, 127
14, 295680, Note_on_c, 9, 42, 127
14, 295680, Note_on_c, 9, 56, 127
14, 295744, Note_on_c, 9, 42, 0
14, 295756, Note_on_c, 9, 56, 0
14, 295796, Note_on_c, 9, 36, 0
14, 295872, Note_on_c, 9, 42, 127
14, 295924, Note_on_c, 9, 42, 0
14, 296064, Note_on_c, 9, 38, 127
14, 296064, Note_on_c, 9, 42, 127
14, 296128, Note_on_c, 9, 42, 0
14, 296172, Note_on_c, 9, 38, 0
14, 296256, Note_on_c, 9, 42, 127
14, 296308, Note_on_c, 9, 42, 0
14, 296448, Note_on_c, 9, 36, 127
14, 296448, Note_on_c, 9, 42, 127
14, 296448, Note_on_c, 9, 56, 127
14, 296512, Note_on_c, 9, 42, 0
14, 296524, Note_on_c, 9, 56, 0
14, 296580, Note_on_c, 9, 36, 0
14, 296640, Note_on_c, 9, 42, 127
14, 296692, Note_on_c, 9, 42, 0
14, 296832, Note_on_c, 9, 38, 127
14, 296832, Note_on_c, 9, 42, 127
14, 296896, Note_on_c, 9, 42, 0
14, 296944, Note_on_c, 9, 38, 0
14, 297024, Note_on_c, 9, 42, 127
14, 297076, Note_on_c, 9, 42, 0
14, 297216, Note_on_c, 9, 36, 127
14, 297216, Note_on_c, 9, 42, 127
14, 297216, Note_on_c, 9, 56, 127
14, 297280, Note_on_c, 9, 42, 0
14, 297292, Note_on_c, 9, 56, 0
14, 297336, Note_on_c, 9, 36, 0
14, 297408, Note_on_c, 9, 42, 127
14, 297456, Note_on_c, 9, 42, 0
14, 297600, Note_on_c, 9, 38, 127
14, 297600, Note_on_c, 9, 42, 127
14, 297660, Note_on_c, 9, 42, 0
14, 297700, Note_on_c, 9, 38, 0
14, 297792, Note_on_c, 9, 36, 127
14, 297792, Note_on_c, 9, 46, 127
14, 297848, Note_on_c, 9, 46, 0
14, 297860, Note_on_c, 9, 36, 0
14, 297984, Note_on_c, 9, 36, 127
14, 297984, Note_on_c, 9, 42, 127
14, 297984, Note_on_c, 9, 56, 127
14, 298044, Note_on_c, 9, 42, 0
14, 298060, Note_on_c, 9, 56, 0
14, 298076, Note_on_c, 9, 36, 0
14, 298176, Note_on_c, 9, 42, 127
14, 298228, Note_on_c, 9, 42, 0
14, 298368, Note_on_c, 9, 38, 127
14, 298368, Note_on_c, 9, 42, 127
14, 298428, Note_on_c, 9, 42, 0
14, 298496, Note_on_c, 9, 38, 0
14, 298560, Note_on_c, 9, 42, 127
14, 298616, Note_on_c, 9, 42, 0
14, 298752, Note_on_c, 9, 36, 127
14, 298752, Note_on_c, 9, 42, 127
14, 298752, Note_on_c, 9, 56, 127
14, 298816, Note_on_c, 9, 42, 0
14, 298828, Note_on_c, 9, 56, 0
14, 298872, Note_on_c, 9, 36, 0
14, 298944, Note_on_c, 9, 42, 127
14, 299004, Note_on_c, 9, 42, 0
14, 299136, Note_on_c, 9, 38, 127
14, 299136, Note_on_c, 9, 42, 127
14, 299204, Note_on_c, 9, 42, 0
14, 299256, Note_on_c, 9, 38, 0
14, 299328, Note_on_c, 9, 42, 127
14, 299380, Note_on_c, 9, 42, 0
14, 299520, Note_on_c, 9, 36, 127
14, 299520, Note_on_c, 9, 42, 127
14, 299520, Note_on_c, 9, 56, 127
14, 299588, Note_on_c, 9, 42, 0
14, 299596, Note_on_c, 9, 56, 0
14, 299668, Note_on_c, 9, 36, 0
14, 299712, Note_on_c, 9, 42, 127
14, 299772, Note_on_c, 9, 42, 0
14, 299904, Note_on_c, 9, 38, 127
14, 299904, Note_on_c, 9, 42, 127
14, 299976, Note_on_c, 9, 42, 0
14, 300016, Note_on_c, 9, 38, 0
14, 300096, Note_on_c, 9, 42, 127
14, 300160, Note_on_c, 9, 42, 0
14, 300288, Note_on_c, 9, 36, 127
14, 300288, Note_on_c, 9, 42, 127
14, 300288, Note_on_c, 9, 56, 127
14, 300352, Note_on_c, 9, 42, 0
14, 300364, Note_on_c, 9, 56, 0
14, 300420, Note_on_c, 9, 36, 0
14, 300480, Note_on_c, 9, 42, 127
14, 300540, Note_on_c, 9, 42, 0
14, 300672, Note_on_c, 9, 38, 127
14, 300672, Note_on_c, 9, 42, 127
14, 300736, Note_on_c, 9, 42, 0
14, 300776, Note_on_c, 9, 38, 0
14, 300864, Note_on_c, 9, 36, 127
14, 300864, Note_on_c, 9, 46, 127
14, 300928, Note_on_c, 9, 46, 0
14, 300928, Note_on_c, 9, 36, 0
14, 301056, Note_on_c, 9, 36, 127
14, 301056, Note_on_c, 9, 42, 127
14, 301056, Note_on_c, 9, 56, 127
14, 301120, Note_on_c, 9, 42, 0
14, 301132, Note_on_c, 9, 56, 0
14, 301172, Note_on_c, 9, 36, 0
14, 301248, Note_on_c, 9, 42, 127
14, 301304, Note_on_c, 9, 42, 0
14, 301440, Note_on_c, 9, 38, 127
14, 301440, Note_on_c, 9, 42, 127
14, 301512, Note_on_c, 9, 42, 0
14, 301560, Note_on_c, 9, 38, 0
14, 301632, Note_on_c, 9, 42, 127
14, 301692, Note_on_c, 9, 42, 0
14, 301824, Note_on_c, 9, 36, 127
14, 301824, Note_on_c, 9, 42, 127
14, 301824, Note_on_c, 9, 56, 127
14, 301888, Note_on_c, 9, 42, 0
14, 301904, Note_on_c, 9, 56, 0
14, 301960, Note_on_c, 9, 36, 0
14, 302016, Note_on_c, 9, 42, 127
14, 302076, Note_on_c, 9, 42, 0
14, 302208, Note_on_c, 9, 38, 127
14, 302208, Note_on_c, 9, 42, 127
14, 302272, Note_on_c, 9, 42, 0
14, 302312, Note_on_c, 9, 38, 0
14, 302400, Note_on_c, 9, 42, 127
14, 302456, Note_on_c, 9, 42, 0
14, 302592, Note_on_c, 9, 36, 127
14, 302592, Note_on_c, 9, 42, 127
14, 302592, Note_on_c, 9, 56, 127
14, 302652, Note_on_c, 9, 42, 0
14, 302660, Note_on_c, 9, 56, 0
14, 302736, Note_on_c, 9, 36, 0
14, 302784, Note_on_c, 9, 42, 127
14, 302844, Note_on_c, 9, 42, 0
14, 302976, Note_on_c, 9, 38, 127
14, 302976, Note_on_c, 9, 42, 127
14, 303036, Note_on_c, 9, 42, 0
14, 303092, Note_on_c, 9, 38, 0
14, 303168, Note_on_c, 9, 36, 127
14, 303168, Note_on_c, 9, 42, 127
14, 303224, Note_on_c, 9, 42, 0
14, 303288, Note_on_c, 9, 36, 0
14, 303360, Note_on_c, 9, 42, 127
14, 303360, Note_on_c, 9, 56, 127
14, 303420, Note_on_c, 9, 42, 0
14, 303424, Note_on_c, 9, 56, 0
14, 303552, Note_on_c, 9, 46, 127
14, 303608, Note_on_c, 9, 46, 0
14, 303744, Note_on_c, 9, 38, 127
14, 303744, Note_on_c, 9, 42, 127
14, 303800, Note_on_c, 9, 42, 0
14, 303828, Note_on_c, 9, 38, 0
14, 303936, Note_on_c, 9, 36, 127
14, 303936, Note_on_c, 9, 46, 127
14, 303992, Note_on_c, 9, 46, 0
14, 304012, Note_on_c, 9, 36, 0
14, 304128, Note_on_c, 9, 36, 127
14, 304128, Note_on_c, 9, 49, 127
14, 304128, Note_on_c, 9, 56, 127
14, 304192, Note_on_c, 9, 56, 0
14, 304196, Note_on_c, 9, 49, 0
14, 304320, Note_on_c, 9, 36, 0
14, 304320, Note_on_c, 9, 42, 127
14, 304364, Note_on_c, 9, 42, 0
14, 304512, Note_on_c, 9, 38, 127
14, 304512, Note_on_c, 9, 42, 127
14, 304576, Note_on_c, 9, 42, 0
14, 304588, Note_on_c, 9, 38, 0
14, 304704, Note_on_c, 9, 42, 127
14, 304748, Note_on_c, 9, 42, 0
14, 304896, Note_on_c, 9, 36, 127
14, 304896, Note_on_c, 9, 42, 127
14, 304896, Note_on_c, 9, 56, 127
14, 304956, Note_on_c, 9, 56, 0
14, 304956, Note_on_c, 9, 42, 0
14, 305024, Note_on_c, 9, 36, 0
14, 305088, Note_on_c, 9, 42, 127
14, 305136, Note_on_c, 9, 42, 0
14, 305280, Note_on_c, 9, 38, 127
14, 305280, Note_on_c, 9, 42, 127
14, 305344, Note_on_c, 9, 42, 0
14, 305360, Note_on_c, 9, 38, 0
14, 305472, Note_on_c, 9, 42, 127
14, 305528, Note_on_c, 9, 42, 0
14, 305664, Note_on_c, 9, 36, 127
14, 305664, Note_on_c, 9, 42, 127
14, 305664, Note_on_c, 9, 56, 127
14, 305728, Note_on_c, 9, 42, 0
14, 305732, Note_on_c, 9, 56, 0
14, 305828, Note_on_c, 9, 36, 0
14, 305856, Note_on_c, 9, 42, 127
14, 305912, Note_on_c, 9, 42, 0
14, 306048, Note_on_c, 9, 38, 127
14, 306048, Note_on_c, 9, 42, 127
14, 306116, Note_on_c, 9, 42, 0
14, 306128, Note_on_c, 9, 38, 0
14, 306240, Note_on_c, 9, 42, 127
14, 306300, Note_on_c, 9, 42, 0
14, 306432, Note_on_c, 9, 36, 127
14, 306432, Note_on_c, 9, 42, 127
14, 306432, Note_on_c, 9, 56, 127
14, 306496, Note_on_c, 9, 42, 0
14, 306504, Note_on_c, 9, 56, 0
14, 306592, Note_on_c, 9, 36, 0
14, 306624, Note_on_c, 9, 42, 127
14, 306680, Note_on_c, 9, 42, 0
14, 306816, Note_on_c, 9, 38, 127
14, 306816, Note_on_c, 9, 42, 127
14, 306884, Note_on_c, 9, 42, 0
14, 306916, Note_on_c, 9, 38, 0
14, 307008, Note_on_c, 9, 36, 127
14, 307008, Note_on_c, 9, 42, 127
14, 307064, Note_on_c, 9, 42, 0
14, 307080, Note_on_c, 9, 36, 0
14, 307200, Note_on_c, 9, 36, 127
14, 307200, Note_on_c, 9, 42, 127
14, 307200, Note_on_c, 9, 56, 127
14, 307260, Note_on_c, 9, 42, 0
14, 307272, Note_on_c, 9, 56, 0
14, 307308, Note_on_c, 9, 36, 0
14, 307392, Note_on_c, 9, 42, 127
14, 307444, Note_on_c, 9, 42, 0
14, 307584, Note_on_c, 9, 38, 127
14, 307584, Note_on_c, 9, 42, 127
14, 307644, Note_on_c, 9, 42, 0
14, 307680, Note_on_c, 9, 38, 0
14, 307776, Note_on_c, 9, 42, 127
14, 307828, Note_on_c, 9, 42, 0
14, 307968, Note_on_c, 9, 36, 127
14, 307968, Note_on_c, 9, 42, 127
14, 307968, Note_on_c, 9, 56, 127
14, 308032, Note_on_c, 9, 42, 0
14, 308044, Note_on_c, 9, 56, 0
14, 308084, Note_on_c, 9, 36, 0
14, 308160, Note_on_c, 9, 42, 127
14, 308212, Note_on_c, 9, 42, 0
14, 308352, Note_on_c, 9, 38, 127
14, 308352, Note_on_c, 9, 42, 127
14, 308416, Note_on_c, 9, 42, 0
14, 308460, Note_on_c, 9, 38, 0
14, 308544, Note_on_c, 9, 42, 127
14, 308596, Note_on_c, 9, 42, 0
14, 308736, Note_on_c, 9, 36, 127
14, 308736, Note_on_c, 9, 42, 127
14, 308736, Note_on_c, 9, 56, 127
14, 308800, Note_on_c, 9, 42, 0
14, 308812, Note_on_c, 9, 56, 0
14, 308868, Note_on_c, 9, 36, 0
14, 308928, Note_on_c, 9, 42, 127
14, 308980, Note_on_c, 9, 42, 0
14, 309120, Note_on_c, 9, 38, 127
14, 309120, Note_on_c, 9, 42, 127
14, 309184, Note_on_c, 9, 42, 0
14, 309232, Note_on_c, 9, 38, 0
14, 309312, Note_on_c, 9, 42, 127
14, 309364, Note_on_c, 9, 42, 0
14, 309504, Note_on_c, 9, 36, 127
14, 309504, Note_on_c, 9, 42, 127
14, 309504, Note_on_c, 9, 56, 127
14, 309568, Note_on_c, 9, 42, 0
14, 309580, Note_on_c, 9, 56, 0
14, 309624, Note_on_c, 9, 36, 0
14, 309696, Note_on_c, 9, 42, 127
14, 309744, Note_on_c, 9, 42, 0
14, 309888, Note_on_c, 9, 38, 127
14, 309888, Note_on_c, 9, 42, 127
14, 309948, Note_on_c, 9, 42, 0
14, 309988, Note_on_c, 9, 38, 0
14, 310080, Note_on_c, 9, 46, 127
14, 310136, Note_on_c, 9, 46, 0
14, 310272, Note_on_c, 9, 36, 127
14, 310272, Note_on_c, 9, 42, 127
14, 310272, Note_on_c, 9, 56, 127
14, 310332, Note_on_c, 9, 42, 0
14, 310348, Note_on_c, 9, 56, 0
14, 310364, Note_on_c, 9, 36, 0
14, 310464, Note_on_c, 9, 42, 127
14, 310516, Note_on_c, 9, 42, 0
14, 310656, Note_on_c, 9, 38, 127
14, 310656, Note_on_c, 9, 42, 127
14, 310716, Note_on_c, 9, 42, 0
14, 310784, Note_on_c, 9, 38, 0
14, 310848, Note_on_c, 9, 42, 127
14, 310904, Note_on_c, 9, 42, 0
14, 311040, Note_on_c, 9, 36, 127
14, 311040, Note_on_c, 9, 42, 127
14, 311040, Note_on_c, 9, 56, 127
14, 311104, Note_on_c, 9, 42, 0
14, 311116, Note_on_c, 9, 56, 0
14, 311160, Note_on_c, 9, 36, 0
14, 311232, Note_on_c, 9, 42, 127
14, 311292, Note_on_c, 9, 42, 0
14, 311424, Note_on_c, 9, 38, 127
14, 311424, Note_on_c, 9, 42, 127
14, 311492, Note_on_c, 9, 42, 0
14, 311544, Note_on_c, 9, 38, 0
14, 311616, Note_on_c, 9, 42, 127
14, 311668, Note_on_c, 9, 42, 0
14, 311808, Note_on_c, 9, 36, 127
14, 311808, Note_on_c, 9, 42, 127
14, 311808, Note_on_c, 9, 56, 127
14, 311876, Note_on_c, 9, 42, 0
14, 311884, Note_on_c, 9, 56, 0
14, 311956, Note_on_c, 9, 36, 0
14, 312000, Note_on_c, 9, 42, 127
14, 312060, Note_on_c, 9, 42, 0
14, 312192, Note_on_c, 9, 38, 127
14, 312192, Note_on_c, 9, 42, 127
14, 312264, Note_on_c, 9, 42, 0
14, 312304, Note_on_c, 9, 38, 0
14, 312384, Note_on_c, 9, 42, 127
14, 312448, Note_on_c, 9, 42, 0
14, 312576, Note_on_c, 9, 36, 127
14, 312576, Note_on_c, 9, 42, 127
14, 312576, Note_on_c, 9, 56, 127
14, 312640, Note_on_c, 9, 42, 0
14, 312652, Note_on_c, 9, 56, 0
14, 312708, Note_on_c, 9, 36, 0
14, 312768, Note_on_c, 9, 42, 127
14, 312828, Note_on_c, 9, 42, 0
14, 312960, Note_on_c, 9, 38, 127
14, 312960, Note_on_c, 9, 42, 127
14, 313024, Note_on_c, 9, 42, 0
14, 313064, Note_on_c, 9, 38, 0
14, 313152, Note_on_c, 9, 36, 127
14, 313152, Note_on_c, 9, 42, 127
14, 313208, Note_on_c, 9, 42, 0
14, 313216, Note_on_c, 9, 36, 0
14, 313344, Note_on_c, 9, 36, 127
14, 313344, Note_on_c, 9, 42, 127
14, 313344, Note_on_c, 9, 56, 127
14, 313408, Note_on_c, 9, 42, 0
14, 313420, Note_on_c, 9, 56, 0
14, 313460, Note_on_c, 9, 36, 0
14, 313536, Note_on_c, 9, 42, 127
14, 313592, Note_on_c, 9, 42, 0
14, 313728, Note_on_c, 9, 38, 127
14, 313728, Note_on_c, 9, 42, 127
14, 313800, Note_on_c, 9, 42, 0
14, 313848, Note_on_c, 9, 38, 0
14, 313920, Note_on_c, 9, 42, 127
14, 313980, Note_on_c, 9, 42, 0
14, 314112, Note_on_c, 9, 36, 127
14, 314112, Note_on_c, 9, 42, 127
14, 314112, Note_on_c, 9, 56, 127
14, 314176, Note_on_c, 9, 42, 0
14, 314192, Note_on_c, 9, 56, 0
14, 314248, Note_on_c, 9, 36, 0
14, 314304, Note_on_c, 9, 42, 127
14, 314364, Note_on_c, 9, 42, 0
14, 314496, Note_on_c, 9, 38, 127
14, 314496, Note_on_c, 9, 42, 127
14, 314560, Note_on_c, 9, 42, 0
14, 314600, Note_on_c, 9, 38, 0
14, 314688, Note_on_c, 9, 42, 127
14, 314744, Note_on_c, 9, 42, 0
14, 314880, Note_on_c, 9, 36, 127
14, 314880, Note_on_c, 9, 42, 127
14, 314880, Note_on_c, 9, 56, 127
14, 314940, Note_on_c, 9, 42, 0
14, 314948, Note_on_c, 9, 56, 0
14, 315024, Note_on_c, 9, 36, 0
14, 315072, Note_on_c, 9, 42, 127
14, 315132, Note_on_c, 9, 42, 0
14, 315264, Note_on_c, 9, 38, 127
14, 315264, Note_on_c, 9, 42, 127
14, 315324, Note_on_c, 9, 42, 0
14, 315380, Note_on_c, 9, 38, 0
14, 315456, Note_on_c, 9, 42, 127
14, 315512, Note_on_c, 9, 42, 0
14, 315648, Note_on_c, 9, 42, 127
14, 315648, Note_on_c, 9, 56, 127
14, 315708, Note_on_c, 9, 42, 0
14, 315712, Note_on_c, 9, 56, 0
14, 315840, Note_on_c, 9, 36, 127
14, 315840, Note_on_c, 9, 42, 127
14, 315892, Note_on_c, 9, 42, 0
14, 315960, Note_on_c, 9, 36, 0
14, 316012, Note_on_c, 9, 38, 111
14, 316020, Note_on_c, 9, 38, 0
14, 316032, Note_on_c, 9, 38, 127
14, 316032, Note_on_c, 9, 46, 127
14, 316088, Note_on_c, 9, 46, 0
14, 316116, Note_on_c, 9, 38, 0
14, 316416, Note_on_c, 9, 36, 127
14, 316416, Note_on_c, 9, 49, 127
14, 316416, Note_on_c, 9, 56, 127
14, 316480, Note_on_c, 9, 56, 0
14, 316484, Note_on_c, 9, 49, 0
14, 316608, Note_on_c, 9, 36, 0
14, 316608, Note_on_c, 9, 42, 127
14, 316652, Note_on_c, 9, 42, 0
14, 316800, Note_on_c, 9, 38, 127
14, 316800, Note_on_c, 9, 42, 127
14, 316864, Note_on_c, 9, 42, 0
14, 316876, Note_on_c, 9, 38, 0
14, 316992, Note_on_c, 9, 42, 127
14, 317036, Note_on_c, 9, 42, 0
14, 317184, Note_on_c, 9, 36, 127
14, 317184, Note_on_c, 9, 42, 127
14, 317184, Note_on_c, 9, 56, 127
14, 317244, Note_on_c, 9, 56, 0
14, 317244, Note_on_c, 9, 42, 0
14, 317312, Note_on_c, 9, 36, 0
14, 317376, Note_on_c, 9, 42, 127
14, 317424, Note_on_c, 9, 42, 0
14, 317568, Note_on_c, 9, 38, 127
14, 317568, Note_on_c, 9, 42, 127
14, 317632, Note_on_c, 9, 42, 0
14, 317648, Note_on_c, 9, 38, 0
14, 317760, Note_on_c, 9, 42, 127
14, 317816, Note_on_c, 9, 42, 0
14, 317952, Note_on_c, 9, 36, 127
14, 317952, Note_on_c, 9, 42, 127
14, 317952, Note_on_c, 9, 56, 127
14, 318016, Note_on_c, 9, 42, 0
14, 318020, Note_on_c, 9, 56, 0
14, 318116, Note_on_c, 9, 36, 0
14, 318144, Note_on_c, 9, 42, 127
14, 318200, Note_on_c, 9, 42, 0
14, 318336, Note_on_c, 9, 38, 127
14, 318336, Note_on_c, 9, 42, 127
14, 318404, Note_on_c, 9, 42, 0
14, 318416, Note_on_c, 9, 38, 0
14, 318528, Note_on_c, 9, 42, 127
14, 318588, Note_on_c, 9, 42, 0
14, 318720, Note_on_c, 9, 36, 127
14, 318720, Note_on_c, 9, 42, 127
14, 318720, Note_on_c, 9, 56, 127
14, 318784, Note_on_c, 9, 42, 0
14, 318792, Note_on_c, 9, 56, 0
14, 318880, Note_on_c, 9, 36, 0
14, 318912, Note_on_c, 9, 42, 127
14, 318968, Note_on_c, 9, 42, 0
14, 319104, Note_on_c, 9, 38, 127
14, 319104, Note_on_c, 9, 42, 127
14, 319172, Note_on_c, 9, 42, 0
14, 319204, Note_on_c, 9, 38, 0
14, 319296, Note_on_c, 9, 36, 127
14, 319296, Note_on_c, 9, 42, 127
14, 319296, Note_on_c, 9, 46, 127
14, 319344, Note_on_c, 9, 46, 0
14, 319352, Note_on_c, 9, 42, 0
14, 319368, Note_on_c, 9, 36, 0
14, 319488, Note_on_c, 9, 36, 127
14, 319488, Note_on_c, 9, 42, 127
14, 319488, Note_on_c, 9, 56, 127
14, 319548, Note_on_c, 9, 42, 0
14, 319560, Note_on_c, 9, 56, 0
14, 319596, Note_on_c, 9, 36, 0
14, 319680, Note_on_c, 9, 42, 127
14, 319732, Note_on_c, 9, 42, 0
14, 319872, Note_on_c, 9, 38, 127
14, 319872, Note_on_c, 9, 42, 127
14, 319932, Note_on_c, 9, 42, 0
14, 319968, Note_on_c, 9, 38, 0
14, 320064, Note_on_c, 9, 42, 127
14, 320116, Note_on_c, 9, 42, 0
14, 320256, Note_on_c, 9, 36, 127
14, 320256, Note_on_c, 9, 42, 127
14, 320256, Note_on_c, 9, 56, 127
14, 320320, Note_on_c, 9, 42, 0
14, 320332, Note_on_c, 9, 56, 0
14, 320372, Note_on_c, 9, 36, 0
14, 320448, Note_on_c, 9, 42, 127
14, 320500, Note_on_c, 9, 42, 0
14, 320640, Note_on_c, 9, 38, 127
14, 320640, Note_on_c, 9, 42, 127
14, 320704, Note_on_c, 9, 42, 0
14, 320748, Note_on_c, 9, 38, 0
14, 320832, Note_on_c, 9, 42, 127
14, 320884, Note_on_c, 9, 42, 0
14, 320884, End_track
0, 0, End_of_file
