0, 0, Header, 1, 23, 240
1, 0, Start_track
1, 0, Time_signature, 4, 2, 24, 8
1, 0, Key_signature, 0, "major"
1, 0, Tempo, 461538
1, 0, Marker_t, "Beginning"
1, 3840, Marker_t, "Guitars"
1, 11520, Marker_t, "Clean Begins"
1, 32640, Marker_t, "First Verse"
1, 48000, Marker_t, "Vocal Bridge (""ah-ahs"")"
1, 71040, Marker_t, "Second Verse"
1, 87360, Marker_t, "Refrain"
1, 97920, Marker_t, "Second Vocal Bridge"
1, 123840, Marker_t, """Sorta"" Solo"
1, 136320, Marker_t, "Closing Refrain"
1, 136320, End_track
2, 0, Start_track
2, 0, MIDI_port, 0
2, 0, Title_t, "Main Overdriven Guitar"
2, 0, Program_c, 8, 29
2, 0, Control_c, 8, 7, 121
2, 0, Control_c, 8, 10, 53
2, 3840, Note_on_c, 8, 45, 120
2, 3900, Note_on_c, 8, 45, 0
2, 3900, Note_on_c, 8, 45, 120
2, 3960, Note_on_c, 8, 45, 0
2, 3960, Note_on_c, 8, 45, 120
2, 4020, Note_on_c, 8, 45, 0
2, 4020, Note_on_c, 8, 45, 120
2, 4080, Note_on_c, 8, 45, 0
2, 4080, Note_on_c, 8, 45, 120
2, 4140, Note_on_c, 8, 45, 0
2, 4140, Note_on_c, 8, 45, 120
2, 4200, Note_on_c, 8, 45, 0
2, 4200, Note_on_c, 8, 46, 120
2, 4260, Note_on_c, 8, 46, 0
2, 4260, Note_on_c, 8, 46, 120
2, 4320, Note_on_c, 8, 46, 0
2, 4320, Note_on_c, 8, 45, 120
2, 4440, Note_on_c, 8, 45, 0
2, 4440, Note_on_c, 8, 40, 120
2, 4500, Note_on_c, 8, 40, 0
2, 4500, Note_on_c, 8, 40, 120
2, 4560, Note_on_c, 8, 40, 0
2, 4560, Note_on_c, 8, 43, 120
2, 4680, Note_on_c, 8, 43, 0
2, 4680, Note_on_c, 8, 40, 120
2, 4740, Note_on_c, 8, 40, 0
2, 4740, Note_on_c, 8, 40, 120
2, 4800, Note_on_c, 8, 40, 0
2, 4800, Note_on_c, 8, 41, 120
2, 4860, Note_on_c, 8, 41, 0
2, 4860, Note_on_c, 8, 40, 120
2, 4920, Note_on_c, 8, 40, 0
2, 4920, Note_on_c, 8, 40, 120
2, 4980, Note_on_c, 8, 40, 0
2, 4980, Note_on_c, 8, 41, 120
2, 5040, Note_on_c, 8, 41, 0
2, 5040, Note_on_c, 8, 40, 120
2, 5100, Note_on_c, 8, 40, 0
2, 5100, Note_on_c, 8, 40, 120
2, 5160, Note_on_c, 8, 40, 0
2, 5160, Note_on_c, 8, 40, 120
2, 5220, Note_on_c, 8, 40, 0
2, 5220, Note_on_c, 8, 40, 120
2, 5280, Note_on_c, 8, 40, 0
2, 5280, Note_on_c, 8, 41, 120
2, 5340, Note_on_c, 8, 41, 0
2, 5340, Note_on_c, 8, 40, 120
2, 5400, Note_on_c, 8, 40, 0
2, 5400, Note_on_c, 8, 40, 120
2, 5460, Note_on_c, 8, 40, 0
2, 5460, Note_on_c, 8, 41, 120
2, 5520, Note_on_c, 8, 41, 0
2, 5520, Note_on_c, 8, 40, 120
2, 5580, Note_on_c, 8, 40, 0
2, 5580, Note_on_c, 8, 40, 120
2, 5640, Note_on_c, 8, 40, 0
2, 5640, Note_on_c, 8, 40, 120
2, 5700, Note_on_c, 8, 40, 0
2, 5700, Note_on_c, 8, 40, 120
2, 5760, Note_on_c, 8, 40, 0
2, 5760, Note_on_c, 8, 45, 120
2, 5820, Note_on_c, 8, 45, 0
2, 5820, Note_on_c, 8, 45, 120
2, 5880, Note_on_c, 8, 45, 0
2, 5880, Note_on_c, 8, 45, 120
2, 5940, Note_on_c, 8, 45, 0
2, 5940, Note_on_c, 8, 45, 120
2, 6000, Note_on_c, 8, 45, 0
2, 6000, Note_on_c, 8, 45, 120
2, 6060, Note_on_c, 8, 45, 0
2, 6060, Note_on_c, 8, 45, 120
2, 6120, Note_on_c, 8, 45, 0
2, 6120, Note_on_c, 8, 46, 120
2, 6180, Note_on_c, 8, 46, 0
2, 6180, Note_on_c, 8, 46, 120
2, 6240, Note_on_c, 8, 46, 0
2, 6240, Note_on_c, 8, 45, 120
2, 6360, Note_on_c, 8, 45, 0
2, 6360, Note_on_c, 8, 40, 120
2, 6420, Note_on_c, 8, 40, 0
2, 6420, Note_on_c, 8, 40, 120
2, 6480, Note_on_c, 8, 40, 0
2, 6480, Note_on_c, 8, 43, 120
2, 6600, Note_on_c, 8, 43, 0
2, 6600, Note_on_c, 8, 40, 120
2, 6660, Note_on_c, 8, 40, 0
2, 6660, Note_on_c, 8, 40, 120
2, 6720, Note_on_c, 8, 40, 0
2, 6720, Note_on_c, 8, 41, 120
2, 6780, Note_on_c, 8, 41, 0
2, 6780, Note_on_c, 8, 40, 120
2, 6840, Note_on_c, 8, 40, 0
2, 6840, Note_on_c, 8, 40, 120
2, 6900, Note_on_c, 8, 40, 0
2, 6900, Note_on_c, 8, 40, 120
2, 6960, Note_on_c, 8, 40, 0
2, 6960, Note_on_c, 8, 40, 120
2, 7020, Note_on_c, 8, 40, 0
2, 7020, Note_on_c, 8, 40, 120
2, 7080, Note_on_c, 8, 40, 0
2, 7080, Note_on_c, 8, 41, 120
2, 7140, Note_on_c, 8, 41, 0
2, 7140, Note_on_c, 8, 40, 120
2, 7200, Note_on_c, 8, 40, 0
2, 7200, Note_on_c, 8, 41, 120
2, 7260, Note_on_c, 8, 41, 0
2, 7260, Note_on_c, 8, 40, 120
2, 7320, Note_on_c, 8, 40, 0
2, 7320, Note_on_c, 8, 40, 120
2, 7380, Note_on_c, 8, 40, 0
2, 7380, Note_on_c, 8, 40, 120
2, 7440, Note_on_c, 8, 40, 0
2, 7440, Note_on_c, 8, 41, 120
2, 7500, Note_on_c, 8, 41, 0
2, 7500, Note_on_c, 8, 40, 120
2, 7560, Note_on_c, 8, 40, 0
2, 7560, Note_on_c, 8, 40, 120
2, 7620, Note_on_c, 8, 40, 0
2, 7620, Note_on_c, 8, 40, 120
2, 7680, Note_on_c, 8, 40, 0
2, 7680, Note_on_c, 8, 45, 120
2, 7740, Note_on_c, 8, 45, 0
2, 7740, Note_on_c, 8, 45, 120
2, 7800, Note_on_c, 8, 45, 0
2, 7800, Note_on_c, 8, 45, 120
2, 7860, Note_on_c, 8, 45, 0
2, 7860, Note_on_c, 8, 45, 120
2, 7920, Note_on_c, 8, 45, 0
2, 7920, Note_on_c, 8, 45, 120
2, 7980, Note_on_c, 8, 45, 0
2, 7980, Note_on_c, 8, 45, 120
2, 8040, Note_on_c, 8, 45, 0
2, 8040, Note_on_c, 8, 46, 120
2, 8100, Note_on_c, 8, 46, 0
2, 8100, Note_on_c, 8, 46, 120
2, 8160, Note_on_c, 8, 46, 0
2, 8160, Note_on_c, 8, 45, 120
2, 8280, Note_on_c, 8, 45, 0
2, 8280, Note_on_c, 8, 40, 120
2, 8340, Note_on_c, 8, 40, 0
2, 8340, Note_on_c, 8, 40, 120
2, 8400, Note_on_c, 8, 40, 0
2, 8400, Note_on_c, 8, 43, 120
2, 8520, Note_on_c, 8, 43, 0
2, 8520, Note_on_c, 8, 40, 120
2, 8580, Note_on_c, 8, 40, 0
2, 8580, Note_on_c, 8, 40, 120
2, 8640, Note_on_c, 8, 40, 0
2, 8640, Note_on_c, 8, 41, 120
2, 8700, Note_on_c, 8, 41, 0
2, 8700, Note_on_c, 8, 40, 120
2, 8760, Note_on_c, 8, 40, 0
2, 8760, Note_on_c, 8, 40, 120
2, 8820, Note_on_c, 8, 40, 0
2, 8820, Note_on_c, 8, 40, 120
2, 8880, Note_on_c, 8, 40, 0
2, 8880, Note_on_c, 8, 40, 120
2, 8940, Note_on_c, 8, 40, 0
2, 8940, Note_on_c, 8, 40, 120
2, 9000, Note_on_c, 8, 40, 0
2, 9000, Note_on_c, 8, 41, 120
2, 9060, Note_on_c, 8, 41, 0
2, 9060, Note_on_c, 8, 40, 120
2, 9120, Note_on_c, 8, 40, 0
2, 9120, Note_on_c, 8, 41, 120
2, 9180, Note_on_c, 8, 41, 0
2, 9180, Note_on_c, 8, 40, 120
2, 9240, Note_on_c, 8, 40, 0
2, 9240, Note_on_c, 8, 40, 120
2, 9300, Note_on_c, 8, 40, 0
2, 9300, Note_on_c, 8, 40, 120
2, 9360, Note_on_c, 8, 40, 0
2, 9360, Note_on_c, 8, 41, 120
2, 9420, Note_on_c, 8, 41, 0
2, 9420, Note_on_c, 8, 40, 120
2, 9480, Note_on_c, 8, 40, 0
2, 9480, Note_on_c, 8, 40, 120
2, 9540, Note_on_c, 8, 40, 0
2, 9540, Note_on_c, 8, 40, 120
2, 9600, Note_on_c, 8, 40, 0
2, 9600, Note_on_c, 8, 45, 120
2, 9660, Note_on_c, 8, 45, 0
2, 9660, Note_on_c, 8, 45, 120
2, 9720, Note_on_c, 8, 45, 0
2, 9720, Note_on_c, 8, 45, 120
2, 9780, Note_on_c, 8, 45, 0
2, 9780, Note_on_c, 8, 45, 120
2, 9840, Note_on_c, 8, 45, 0
2, 9840, Note_on_c, 8, 45, 120
2, 9900, Note_on_c, 8, 45, 0
2, 9900, Note_on_c, 8, 45, 120
2, 9960, Note_on_c, 8, 45, 0
2, 9960, Note_on_c, 8, 46, 120
2, 10020, Note_on_c, 8, 46, 0
2, 10020, Note_on_c, 8, 46, 120
2, 10080, Note_on_c, 8, 46, 0
2, 10080, Note_on_c, 8, 45, 120
2, 10200, Note_on_c, 8, 45, 0
2, 10200, Note_on_c, 8, 40, 120
2, 10260, Note_on_c, 8, 40, 0
2, 10260, Note_on_c, 8, 40, 120
2, 10320, Note_on_c, 8, 40, 0
2, 10320, Note_on_c, 8, 43, 120
2, 10440, Note_on_c, 8, 43, 0
2, 10440, Note_on_c, 8, 40, 120
2, 10500, Note_on_c, 8, 40, 0
2, 10500, Note_on_c, 8, 40, 120
2, 10560, Note_on_c, 8, 40, 0
2, 10560, Note_on_c, 8, 41, 120
2, 10620, Note_on_c, 8, 41, 0
2, 10620, Note_on_c, 8, 40, 120
2, 10680, Note_on_c, 8, 40, 0
2, 10680, Note_on_c, 8, 40, 120
2, 10740, Note_on_c, 8, 40, 0
2, 10740, Note_on_c, 8, 40, 120
2, 10800, Note_on_c, 8, 40, 0
2, 10800, Note_on_c, 8, 40, 120
2, 10860, Note_on_c, 8, 40, 0
2, 10860, Note_on_c, 8, 40, 120
2, 10920, Note_on_c, 8, 40, 0
2, 10920, Note_on_c, 8, 41, 120
2, 10980, Note_on_c, 8, 41, 0
2, 10980, Note_on_c, 8, 40, 120
2, 11040, Note_on_c, 8, 40, 0
2, 11040, Note_on_c, 8, 41, 120
2, 11100, Note_on_c, 8, 41, 0
2, 11100, Note_on_c, 8, 40, 120
2, 11160, Note_on_c, 8, 40, 0
2, 11160, Note_on_c, 8, 40, 120
2, 11220, Note_on_c, 8, 40, 0
2, 11220, Note_on_c, 8, 40, 120
2, 11280, Note_on_c, 8, 40, 0
2, 11280, Note_on_c, 8, 41, 120
2, 11340, Note_on_c, 8, 41, 0
2, 11340, Note_on_c, 8, 40, 120
2, 11400, Note_on_c, 8, 40, 0
2, 11400, Note_on_c, 8, 40, 120
2, 11460, Note_on_c, 8, 40, 0
2, 11460, Note_on_c, 8, 40, 120
2, 11520, Note_on_c, 8, 40, 0
2, 11520, Note_on_c, 8, 40, 120
2, 11640, Note_on_c, 8, 40, 0
2, 11640, Note_on_c, 8, 40, 120
2, 11880, Note_on_c, 8, 40, 0
2, 11880, Note_on_c, 8, 40, 120
2, 12000, Note_on_c, 8, 40, 0
2, 12000, Note_on_c, 8, 40, 120
2, 12120, Note_on_c, 8, 40, 0
2, 14400, Note_on_c, 8, 40, 120
2, 14520, Note_on_c, 8, 40, 0
2, 14520, Note_on_c, 8, 40, 120
2, 14700, Note_on_c, 8, 40, 0
2, 14700, Note_on_c, 8, 40, 120
2, 14760, Note_on_c, 8, 40, 0
2, 14760, Note_on_c, 8, 40, 120
2, 14880, Note_on_c, 8, 40, 0
2, 14880, Note_on_c, 8, 40, 120
2, 15000, Note_on_c, 8, 40, 0
2, 17280, Note_on_c, 8, 40, 120
2, 17400, Note_on_c, 8, 40, 0
2, 17400, Note_on_c, 8, 40, 120
2, 17580, Note_on_c, 8, 40, 0
2, 17580, Note_on_c, 8, 40, 120
2, 17640, Note_on_c, 8, 40, 0
2, 17640, Note_on_c, 8, 40, 120
2, 17760, Note_on_c, 8, 40, 0
2, 17760, Note_on_c, 8, 40, 120
2, 17880, Note_on_c, 8, 40, 0
2, 18960, Note_on_c, 8, 40, 120
2, 19080, Note_on_c, 8, 40, 0
2, 19080, Note_on_c, 8, 40, 120
2, 19260, Note_on_c, 8, 40, 0
2, 19260, Note_on_c, 8, 40, 120
2, 19320, Note_on_c, 8, 40, 0
2, 19320, Note_on_c, 8, 40, 120
2, 19440, Note_on_c, 8, 40, 0
2, 19440, Note_on_c, 8, 44, 85
2, 19440, Note_on_c, 8, 46, 85
2, 19440, Note_on_c, 8, 52, 85
2, 19440, Note_on_c, 8, 57, 85
2, 19560, Note_on_c, 8, 57, 0
2, 19560, Note_on_c, 8, 44, 0
2, 19560, Note_on_c, 8, 46, 0
2, 19560, Note_on_c, 8, 52, 0
2, 19560, Note_on_c, 8, 52, 85
2, 19560, Note_on_c, 8, 44, 85
2, 19560, Note_on_c, 8, 46, 85
2, 19560, Note_on_c, 8, 57, 85
2, 19620, Note_on_c, 8, 57, 0
2, 19620, Note_on_c, 8, 52, 0
2, 19620, Note_on_c, 8, 44, 0
2, 19620, Note_on_c, 8, 46, 0
2, 19620, Note_on_c, 8, 57, 85
2, 19620, Note_on_c, 8, 52, 85
2, 19620, Note_on_c, 8, 46, 85
2, 19620, Note_on_c, 8, 44, 85
2, 19740, Note_on_c, 8, 44, 0
2, 19740, Note_on_c, 8, 57, 0
2, 19740, Note_on_c, 8, 52, 0
2, 19740, Note_on_c, 8, 46, 0
2, 19740, Note_on_c, 8, 57, 85
2, 19740, Note_on_c, 8, 52, 85
2, 19740, Note_on_c, 8, 46, 85
2, 19740, Note_on_c, 8, 44, 85
2, 19799, Note_on_c, 8, 57, 0
2, 19800, Note_on_c, 8, 52, 0
2, 19800, Note_on_c, 8, 46, 0
2, 19800, Note_on_c, 8, 44, 0
2, 19800, Note_on_c, 8, 45, 85
2, 19800, Note_on_c, 8, 58, 85
2, 19860, Note_on_c, 8, 58, 0
2, 19860, Note_on_c, 8, 45, 0
2, 19860, Note_on_c, 8, 45, 85
2, 19860, Note_on_c, 8, 58, 85
2, 19920, Note_on_c, 8, 58, 0
2, 19920, Note_on_c, 8, 45, 0
2, 19920, Note_on_c, 8, 58, 85
2, 19920, Note_on_c, 8, 45, 85
2, 20040, Note_on_c, 8, 45, 0
2, 20040, Note_on_c, 8, 58, 0
2, 20040, Note_on_c, 8, 55, 85
2, 20040, Note_on_c, 8, 43, 85
2, 20100, Note_on_c, 8, 43, 0
2, 20100, Note_on_c, 8, 55, 0
2, 20100, Note_on_c, 8, 55, 85
2, 20100, Note_on_c, 8, 43, 85
2, 20160, Note_on_c, 8, 43, 0
2, 20160, Note_on_c, 8, 55, 0
2, 20160, Note_on_c, 8, 43, 85
2, 20160, Note_on_c, 8, 55, 85
2, 20280, Note_on_c, 8, 55, 0
2, 20280, Note_on_c, 8, 43, 0
2, 20280, Note_on_c, 8, 40, 85
2, 20280, Note_on_c, 8, 52, 85
2, 20340, Note_on_c, 8, 52, 0
2, 20340, Note_on_c, 8, 40, 0
2, 20340, Note_on_c, 8, 40, 85
2, 20340, Note_on_c, 8, 52, 85
2, 20400, Note_on_c, 8, 52, 0
2, 20400, Note_on_c, 8, 40, 0
2, 20400, Note_on_c, 8, 40, 85
2, 20400, Note_on_c, 8, 52, 85
2, 20520, Note_on_c, 8, 52, 0
2, 20520, Note_on_c, 8, 40, 0
2, 20520, Note_on_c, 8, 40, 85
2, 20520, Note_on_c, 8, 52, 85
2, 20580, Note_on_c, 8, 52, 0
2, 20580, Note_on_c, 8, 40, 0
2, 20580, Note_on_c, 8, 40, 85
2, 20580, Note_on_c, 8, 52, 85
2, 20700, Note_on_c, 8, 52, 0
2, 20700, Note_on_c, 8, 40, 0
2, 20700, Note_on_c, 8, 40, 85
2, 20700, Note_on_c, 8, 52, 85
2, 20820, Note_on_c, 8, 52, 0
2, 20820, Note_on_c, 8, 40, 0
2, 20820, Note_on_c, 8, 40, 85
2, 20820, Note_on_c, 8, 52, 85
2, 20880, Note_on_c, 8, 52, 0
2, 20880, Note_on_c, 8, 40, 0
2, 20880, Note_on_c, 8, 40, 85
2, 20880, Note_on_c, 8, 52, 85
2, 21000, Note_on_c, 8, 52, 0
2, 21000, Note_on_c, 8, 40, 0
2, 21000, Note_on_c, 8, 40, 85
2, 21000, Note_on_c, 8, 52, 85
2, 21060, Note_on_c, 8, 52, 0
2, 21060, Note_on_c, 8, 40, 0
2, 21060, Note_on_c, 8, 40, 85
2, 21060, Note_on_c, 8, 52, 85
2, 21120, Note_on_c, 8, 52, 0
2, 21120, Note_on_c, 8, 40, 0
2, 21120, Note_on_c, 8, 40, 85
2, 21120, Note_on_c, 8, 52, 85
2, 21180, Note_on_c, 8, 52, 0
2, 21180, Note_on_c, 8, 40, 0
2, 21180, Note_on_c, 8, 40, 85
2, 21180, Note_on_c, 8, 52, 85
2, 21240, Note_on_c, 8, 52, 0
2, 21240, Note_on_c, 8, 40, 0
2, 21240, Note_on_c, 8, 40, 85
2, 21240, Note_on_c, 8, 52, 85
2, 21300, Note_on_c, 8, 52, 0
2, 21300, Note_on_c, 8, 40, 0
2, 21300, Note_on_c, 8, 40, 85
2, 21300, Note_on_c, 8, 52, 85
2, 21360, Note_on_c, 8, 52, 0
2, 21360, Note_on_c, 8, 40, 0
2, 21360, Note_on_c, 8, 45, 85
2, 21360, Note_on_c, 8, 47, 85
2, 21360, Note_on_c, 8, 52, 85
2, 21360, Note_on_c, 8, 57, 85
2, 21480, Note_on_c, 8, 57, 0
2, 21480, Note_on_c, 8, 45, 0
2, 21480, Note_on_c, 8, 47, 0
2, 21480, Note_on_c, 8, 52, 0
2, 21480, Note_on_c, 8, 45, 85
2, 21480, Note_on_c, 8, 47, 85
2, 21480, Note_on_c, 8, 52, 85
2, 21480, Note_on_c, 8, 57, 85
2, 21540, Note_on_c, 8, 57, 0
2, 21540, Note_on_c, 8, 45, 0
2, 21540, Note_on_c, 8, 47, 0
2, 21540, Note_on_c, 8, 52, 0
2, 21540, Note_on_c, 8, 45, 85
2, 21540, Note_on_c, 8, 47, 85
2, 21540, Note_on_c, 8, 52, 85
2, 21540, Note_on_c, 8, 57, 85
2, 21660, Note_on_c, 8, 57, 0
2, 21660, Note_on_c, 8, 45, 0
2, 21660, Note_on_c, 8, 47, 0
2, 21660, Note_on_c, 8, 52, 0
2, 21660, Note_on_c, 8, 45, 85
2, 21660, Note_on_c, 8, 47, 85
2, 21660, Note_on_c, 8, 52, 85
2, 21660, Note_on_c, 8, 57, 85
2, 21720, Note_on_c, 8, 57, 0
2, 21720, Note_on_c, 8, 45, 0
2, 21720, Note_on_c, 8, 47, 0
2, 21720, Note_on_c, 8, 52, 0
2, 21720, Note_on_c, 8, 46, 85
2, 21720, Note_on_c, 8, 58, 85
2, 21780, Note_on_c, 8, 58, 0
2, 21780, Note_on_c, 8, 46, 0
2, 21780, Note_on_c, 8, 46, 85
2, 21780, Note_on_c, 8, 58, 85
2, 21840, Note_on_c, 8, 58, 0
2, 21840, Note_on_c, 8, 46, 0
2, 21840, Note_on_c, 8, 45, 85
2, 21840, Note_on_c, 8, 57, 85
2, 21960, Note_on_c, 8, 57, 0
2, 21960, Note_on_c, 8, 45, 0
2, 21960, Note_on_c, 8, 43, 85
2, 21960, Note_on_c, 8, 55, 85
2, 22020, Note_on_c, 8, 55, 0
2, 22020, Note_on_c, 8, 43, 0
2, 22020, Note_on_c, 8, 43, 85
2, 22020, Note_on_c, 8, 55, 85
2, 22080, Note_on_c, 8, 55, 0
2, 22080, Note_on_c, 8, 43, 0
2, 22080, Note_on_c, 8, 43, 85
2, 22080, Note_on_c, 8, 55, 85
2, 22200, Note_on_c, 8, 55, 0
2, 22200, Note_on_c, 8, 43, 0
2, 22200, Note_on_c, 8, 40, 85
2, 22200, Note_on_c, 8, 52, 85
2, 22260, Note_on_c, 8, 52, 0
2, 22260, Note_on_c, 8, 40, 0
2, 22260, Note_on_c, 8, 40, 85
2, 22260, Note_on_c, 8, 52, 85
2, 22320, Note_on_c, 8, 52, 0
2, 22320, Note_on_c, 8, 40, 0
2, 22320, Note_on_c, 8, 40, 85
2, 22320, Note_on_c, 8, 52, 85
2, 22440, Note_on_c, 8, 52, 0
2, 22440, Note_on_c, 8, 40, 0
2, 22440, Note_on_c, 8, 40, 85
2, 22440, Note_on_c, 8, 52, 85
2, 22500, Note_on_c, 8, 52, 0
2, 22500, Note_on_c, 8, 40, 0
2, 22500, Note_on_c, 8, 40, 85
2, 22500, Note_on_c, 8, 52, 85
2, 22620, Note_on_c, 8, 52, 0
2, 22620, Note_on_c, 8, 40, 0
2, 22620, Note_on_c, 8, 40, 85
2, 22620, Note_on_c, 8, 52, 85
2, 22740, Note_on_c, 8, 52, 0
2, 22740, Note_on_c, 8, 40, 0
2, 22740, Note_on_c, 8, 40, 85
2, 22740, Note_on_c, 8, 52, 85
2, 22800, Note_on_c, 8, 52, 0
2, 22800, Note_on_c, 8, 40, 0
2, 22800, Note_on_c, 8, 38, 85
2, 22800, Note_on_c, 8, 50, 85
2, 22860, Note_on_c, 8, 50, 0
2, 22860, Note_on_c, 8, 38, 0
2, 22860, Note_on_c, 8, 40, 85
2, 22860, Note_on_c, 8, 52, 85
2, 22920, Note_on_c, 8, 52, 0
2, 22920, Note_on_c, 8, 40, 0
2, 22920, Note_on_c, 8, 40, 85
2, 22920, Note_on_c, 8, 52, 85
2, 22980, Note_on_c, 8, 52, 0
2, 22980, Note_on_c, 8, 40, 0
2, 22980, Note_on_c, 8, 40, 85
2, 22980, Note_on_c, 8, 52, 85
2, 23040, Note_on_c, 8, 52, 0
2, 23040, Note_on_c, 8, 40, 0
2, 23040, Note_on_c, 8, 40, 85
2, 23040, Note_on_c, 8, 52, 85
2, 23100, Note_on_c, 8, 52, 0
2, 23100, Note_on_c, 8, 40, 0
2, 23100, Note_on_c, 8, 40, 85
2, 23100, Note_on_c, 8, 52, 85
2, 23160, Note_on_c, 8, 52, 0
2, 23160, Note_on_c, 8, 40, 0
2, 23160, Note_on_c, 8, 40, 85
2, 23160, Note_on_c, 8, 52, 85
2, 23220, Note_on_c, 8, 52, 0
2, 23220, Note_on_c, 8, 40, 0
2, 23220, Note_on_c, 8, 40, 85
2, 23220, Note_on_c, 8, 52, 85
2, 23280, Note_on_c, 8, 52, 0
2, 23280, Note_on_c, 8, 40, 0
2, 23280, Note_on_c, 8, 45, 85
2, 23280, Note_on_c, 8, 47, 85
2, 23280, Note_on_c, 8, 52, 85
2, 23280, Note_on_c, 8, 57, 85
2, 23400, Note_on_c, 8, 57, 0
2, 23400, Note_on_c, 8, 45, 0
2, 23400, Note_on_c, 8, 47, 0
2, 23400, Note_on_c, 8, 52, 0
2, 23400, Note_on_c, 8, 45, 85
2, 23400, Note_on_c, 8, 47, 85
2, 23400, Note_on_c, 8, 52, 85
2, 23400, Note_on_c, 8, 57, 85
2, 23460, Note_on_c, 8, 57, 0
2, 23460, Note_on_c, 8, 45, 0
2, 23460, Note_on_c, 8, 47, 0
2, 23460, Note_on_c, 8, 52, 0
2, 23460, Note_on_c, 8, 45, 85
2, 23460, Note_on_c, 8, 47, 85
2, 23460, Note_on_c, 8, 52, 85
2, 23460, Note_on_c, 8, 57, 85
2, 23580, Note_on_c, 8, 57, 0
2, 23580, Note_on_c, 8, 45, 0
2, 23580, Note_on_c, 8, 47, 0
2, 23580, Note_on_c, 8, 52, 0
2, 23580, Note_on_c, 8, 45, 85
2, 23580, Note_on_c, 8, 47, 85
2, 23580, Note_on_c, 8, 52, 85
2, 23580, Note_on_c, 8, 57, 85
2, 23640, Note_on_c, 8, 57, 0
2, 23640, Note_on_c, 8, 45, 0
2, 23640, Note_on_c, 8, 47, 0
2, 23640, Note_on_c, 8, 52, 0
2, 23640, Note_on_c, 8, 46, 85
2, 23640, Note_on_c, 8, 58, 85
2, 23700, Note_on_c, 8, 58, 0
2, 23700, Note_on_c, 8, 46, 0
2, 23700, Note_on_c, 8, 46, 85
2, 23700, Note_on_c, 8, 58, 85
2, 23760, Note_on_c, 8, 58, 0
2, 23760, Note_on_c, 8, 46, 0
2, 23760, Note_on_c, 8, 45, 85
2, 23760, Note_on_c, 8, 57, 85
2, 23880, Note_on_c, 8, 57, 0
2, 23880, Note_on_c, 8, 45, 0
2, 23880, Note_on_c, 8, 43, 85
2, 23880, Note_on_c, 8, 55, 85
2, 23940, Note_on_c, 8, 55, 0
2, 23940, Note_on_c, 8, 43, 0
2, 23940, Note_on_c, 8, 43, 85
2, 23940, Note_on_c, 8, 55, 85
2, 24000, Note_on_c, 8, 55, 0
2, 24000, Note_on_c, 8, 43, 0
2, 24000, Note_on_c, 8, 43, 85
2, 24000, Note_on_c, 8, 55, 85
2, 24120, Note_on_c, 8, 55, 0
2, 24120, Note_on_c, 8, 43, 0
2, 24120, Note_on_c, 8, 40, 85
2, 24120, Note_on_c, 8, 52, 85
2, 24180, Note_on_c, 8, 52, 0
2, 24180, Note_on_c, 8, 40, 0
2, 24180, Note_on_c, 8, 40, 85
2, 24180, Note_on_c, 8, 52, 85
2, 24240, Note_on_c, 8, 52, 0
2, 24240, Note_on_c, 8, 40, 0
2, 24240, Note_on_c, 8, 40, 85
2, 24240, Note_on_c, 8, 52, 85
2, 24360, Note_on_c, 8, 52, 0
2, 24360, Note_on_c, 8, 40, 0
2, 24360, Note_on_c, 8, 40, 85
2, 24360, Note_on_c, 8, 52, 85
2, 24420, Note_on_c, 8, 52, 0
2, 24420, Note_on_c, 8, 40, 0
2, 24420, Note_on_c, 8, 40, 85
2, 24420, Note_on_c, 8, 52, 85
2, 24540, Note_on_c, 8, 52, 0
2, 24540, Note_on_c, 8, 40, 0
2, 24540, Note_on_c, 8, 40, 85
2, 24540, Note_on_c, 8, 52, 85
2, 24660, Note_on_c, 8, 52, 0
2, 24660, Note_on_c, 8, 40, 0
2, 24660, Note_on_c, 8, 40, 85
2, 24660, Note_on_c, 8, 52, 85
2, 24720, Note_on_c, 8, 52, 0
2, 24720, Note_on_c, 8, 40, 0
2, 24720, Note_on_c, 8, 38, 85
2, 24720, Note_on_c, 8, 50, 85
2, 24780, Note_on_c, 8, 50, 0
2, 24780, Note_on_c, 8, 38, 0
2, 24780, Note_on_c, 8, 40, 85
2, 24780, Note_on_c, 8, 52, 85
2, 24840, Note_on_c, 8, 52, 0
2, 24840, Note_on_c, 8, 40, 0
2, 24840, Note_on_c, 8, 40, 85
2, 24840, Note_on_c, 8, 52, 85
2, 24900, Note_on_c, 8, 52, 0
2, 24900, Note_on_c, 8, 40, 0
2, 24900, Note_on_c, 8, 40, 85
2, 24900, Note_on_c, 8, 52, 85
2, 24960, Note_on_c, 8, 52, 0
2, 24960, Note_on_c, 8, 40, 0
2, 24960, Note_on_c, 8, 40, 85
2, 24960, Note_on_c, 8, 52, 85
2, 25020, Note_on_c, 8, 52, 0
2, 25020, Note_on_c, 8, 40, 0
2, 25020, Note_on_c, 8, 40, 85
2, 25020, Note_on_c, 8, 52, 85
2, 25080, Note_on_c, 8, 52, 0
2, 25080, Note_on_c, 8, 40, 0
2, 25080, Note_on_c, 8, 40, 85
2, 25080, Note_on_c, 8, 52, 85
2, 25140, Note_on_c, 8, 52, 0
2, 25140, Note_on_c, 8, 40, 0
2, 25140, Note_on_c, 8, 40, 85
2, 25140, Note_on_c, 8, 52, 85
2, 25200, Note_on_c, 8, 52, 0
2, 25200, Note_on_c, 8, 40, 0
2, 25200, Note_on_c, 8, 45, 85
2, 25200, Note_on_c, 8, 47, 85
2, 25200, Note_on_c, 8, 52, 85
2, 25200, Note_on_c, 8, 57, 85
2, 25320, Note_on_c, 8, 57, 0
2, 25320, Note_on_c, 8, 45, 0
2, 25320, Note_on_c, 8, 47, 0
2, 25320, Note_on_c, 8, 52, 0
2, 25320, Note_on_c, 8, 45, 85
2, 25320, Note_on_c, 8, 47, 85
2, 25320, Note_on_c, 8, 52, 85
2, 25320, Note_on_c, 8, 57, 85
2, 25380, Note_on_c, 8, 57, 0
2, 25380, Note_on_c, 8, 45, 0
2, 25380, Note_on_c, 8, 47, 0
2, 25380, Note_on_c, 8, 52, 0
2, 25380, Note_on_c, 8, 45, 85
2, 25380, Note_on_c, 8, 47, 85
2, 25380, Note_on_c, 8, 52, 85
2, 25380, Note_on_c, 8, 57, 85
2, 25500, Note_on_c, 8, 57, 0
2, 25500, Note_on_c, 8, 45, 0
2, 25500, Note_on_c, 8, 47, 0
2, 25500, Note_on_c, 8, 52, 0
2, 25500, Note_on_c, 8, 45, 85
2, 25500, Note_on_c, 8, 47, 85
2, 25500, Note_on_c, 8, 52, 85
2, 25500, Note_on_c, 8, 57, 85
2, 25560, Note_on_c, 8, 57, 0
2, 25560, Note_on_c, 8, 45, 0
2, 25560, Note_on_c, 8, 47, 0
2, 25560, Note_on_c, 8, 52, 0
2, 25560, Note_on_c, 8, 46, 85
2, 25560, Note_on_c, 8, 58, 85
2, 25620, Note_on_c, 8, 58, 0
2, 25620, Note_on_c, 8, 46, 0
2, 25620, Note_on_c, 8, 46, 85
2, 25620, Note_on_c, 8, 58, 85
2, 25680, Note_on_c, 8, 58, 0
2, 25680, Note_on_c, 8, 46, 0
2, 25680, Note_on_c, 8, 45, 85
2, 25680, Note_on_c, 8, 57, 85
2, 25800, Note_on_c, 8, 57, 0
2, 25800, Note_on_c, 8, 45, 0
2, 25800, Note_on_c, 8, 43, 85
2, 25800, Note_on_c, 8, 55, 85
2, 25860, Note_on_c, 8, 55, 0
2, 25860, Note_on_c, 8, 43, 0
2, 25860, Note_on_c, 8, 43, 85
2, 25860, Note_on_c, 8, 55, 85
2, 25920, Note_on_c, 8, 55, 0
2, 25920, Note_on_c, 8, 43, 0
2, 25920, Note_on_c, 8, 43, 85
2, 25920, Note_on_c, 8, 55, 85
2, 26040, Note_on_c, 8, 55, 0
2, 26040, Note_on_c, 8, 43, 0
2, 26040, Note_on_c, 8, 40, 85
2, 26040, Note_on_c, 8, 52, 85
2, 26100, Note_on_c, 8, 52, 0
2, 26100, Note_on_c, 8, 40, 0
2, 26100, Note_on_c, 8, 40, 85
2, 26100, Note_on_c, 8, 52, 85
2, 26160, Note_on_c, 8, 52, 0
2, 26160, Note_on_c, 8, 40, 0
2, 26160, Note_on_c, 8, 40, 85
2, 26160, Note_on_c, 8, 52, 85
2, 26280, Note_on_c, 8, 52, 0
2, 26280, Note_on_c, 8, 40, 0
2, 26280, Note_on_c, 8, 40, 85
2, 26280, Note_on_c, 8, 52, 85
2, 26340, Note_on_c, 8, 52, 0
2, 26340, Note_on_c, 8, 40, 0
2, 26340, Note_on_c, 8, 40, 85
2, 26340, Note_on_c, 8, 52, 85
2, 26460, Note_on_c, 8, 52, 0
2, 26460, Note_on_c, 8, 40, 0
2, 26460, Note_on_c, 8, 40, 85
2, 26460, Note_on_c, 8, 52, 85
2, 26580, Note_on_c, 8, 52, 0
2, 26580, Note_on_c, 8, 40, 0
2, 26580, Note_on_c, 8, 40, 85
2, 26580, Note_on_c, 8, 52, 85
2, 26640, Note_on_c, 8, 52, 0
2, 26640, Note_on_c, 8, 40, 0
2, 26640, Note_on_c, 8, 38, 85
2, 26640, Note_on_c, 8, 50, 85
2, 26700, Note_on_c, 8, 50, 0
2, 26700, Note_on_c, 8, 38, 0
2, 26700, Note_on_c, 8, 40, 85
2, 26700, Note_on_c, 8, 52, 85
2, 26760, Note_on_c, 8, 52, 0
2, 26760, Note_on_c, 8, 40, 0
2, 26760, Note_on_c, 8, 40, 85
2, 26760, Note_on_c, 8, 52, 85
2, 26820, Note_on_c, 8, 52, 0
2, 26820, Note_on_c, 8, 40, 0
2, 26820, Note_on_c, 8, 40, 85
2, 26820, Note_on_c, 8, 52, 85
2, 26880, Note_on_c, 8, 52, 0
2, 26880, Note_on_c, 8, 40, 0
2, 26880, Note_on_c, 8, 40, 85
2, 26880, Note_on_c, 8, 52, 85
2, 26940, Note_on_c, 8, 52, 0
2, 26940, Note_on_c, 8, 40, 0
2, 26940, Note_on_c, 8, 40, 85
2, 26940, Note_on_c, 8, 52, 85
2, 27000, Note_on_c, 8, 52, 0
2, 27000, Note_on_c, 8, 40, 0
2, 27000, Note_on_c, 8, 40, 85
2, 27000, Note_on_c, 8, 52, 85
2, 27060, Note_on_c, 8, 52, 0
2, 27060, Note_on_c, 8, 40, 0
2, 27060, Note_on_c, 8, 40, 85
2, 27060, Note_on_c, 8, 52, 85
2, 27120, Note_on_c, 8, 52, 0
2, 27120, Note_on_c, 8, 40, 0
2, 27120, Note_on_c, 8, 45, 85
2, 27120, Note_on_c, 8, 47, 85
2, 27120, Note_on_c, 8, 52, 85
2, 27120, Note_on_c, 8, 57, 85
2, 27240, Note_on_c, 8, 57, 0
2, 27240, Note_on_c, 8, 45, 0
2, 27240, Note_on_c, 8, 47, 0
2, 27240, Note_on_c, 8, 52, 0
2, 27240, Note_on_c, 8, 45, 85
2, 27240, Note_on_c, 8, 47, 85
2, 27240, Note_on_c, 8, 52, 85
2, 27240, Note_on_c, 8, 57, 85
2, 27300, Note_on_c, 8, 57, 0
2, 27300, Note_on_c, 8, 45, 0
2, 27300, Note_on_c, 8, 47, 0
2, 27300, Note_on_c, 8, 52, 0
2, 27300, Note_on_c, 8, 45, 85
2, 27300, Note_on_c, 8, 47, 85
2, 27300, Note_on_c, 8, 52, 85
2, 27300, Note_on_c, 8, 57, 85
2, 27420, Note_on_c, 8, 57, 0
2, 27420, Note_on_c, 8, 45, 0
2, 27420, Note_on_c, 8, 47, 0
2, 27420, Note_on_c, 8, 52, 0
2, 27420, Note_on_c, 8, 45, 85
2, 27420, Note_on_c, 8, 47, 85
2, 27420, Note_on_c, 8, 52, 85
2, 27420, Note_on_c, 8, 57, 85
2, 27480, Note_on_c, 8, 57, 0
2, 27480, Note_on_c, 8, 45, 0
2, 27480, Note_on_c, 8, 47, 0
2, 27480, Note_on_c, 8, 52, 0
2, 27480, Note_on_c, 8, 46, 85
2, 27480, Note_on_c, 8, 58, 85
2, 27540, Note_on_c, 8, 58, 0
2, 27540, Note_on_c, 8, 46, 0
2, 27540, Note_on_c, 8, 46, 85
2, 27540, Note_on_c, 8, 58, 85
2, 27600, Note_on_c, 8, 58, 0
2, 27600, Note_on_c, 8, 46, 0
2, 27600, Note_on_c, 8, 45, 85
2, 27600, Note_on_c, 8, 57, 85
2, 27720, Note_on_c, 8, 57, 0
2, 27720, Note_on_c, 8, 45, 0
2, 27720, Note_on_c, 8, 43, 85
2, 27720, Note_on_c, 8, 55, 85
2, 27780, Note_on_c, 8, 55, 0
2, 27780, Note_on_c, 8, 43, 0
2, 27780, Note_on_c, 8, 43, 85
2, 27780, Note_on_c, 8, 55, 85
2, 27840, Note_on_c, 8, 55, 0
2, 27840, Note_on_c, 8, 43, 0
2, 27840, Note_on_c, 8, 55, 85
2, 27840, Note_on_c, 8, 43, 85
2, 27960, Note_on_c, 8, 43, 0
2, 27960, Note_on_c, 8, 55, 0
2, 27960, Note_on_c, 8, 40, 85
2, 27960, Note_on_c, 8, 52, 85
2, 28020, Note_on_c, 8, 52, 0
2, 28020, Note_on_c, 8, 40, 0
2, 28020, Note_on_c, 8, 40, 85
2, 28020, Note_on_c, 8, 52, 85
2, 28080, Note_on_c, 8, 52, 0
2, 28080, Note_on_c, 8, 40, 0
2, 28080, Note_on_c, 8, 40, 85
2, 28080, Note_on_c, 8, 52, 85
2, 28200, Note_on_c, 8, 52, 0
2, 28200, Note_on_c, 8, 40, 0
2, 28200, Note_on_c, 8, 40, 85
2, 28200, Note_on_c, 8, 52, 85
2, 28260, Note_on_c, 8, 52, 0
2, 28260, Note_on_c, 8, 40, 0
2, 28260, Note_on_c, 8, 40, 85
2, 28260, Note_on_c, 8, 52, 85
2, 28380, Note_on_c, 8, 52, 0
2, 28380, Note_on_c, 8, 40, 0
2, 28380, Note_on_c, 8, 40, 85
2, 28380, Note_on_c, 8, 52, 85
2, 28500, Note_on_c, 8, 52, 0
2, 28500, Note_on_c, 8, 40, 0
2, 28500, Note_on_c, 8, 40, 85
2, 28500, Note_on_c, 8, 52, 85
2, 28560, Note_on_c, 8, 52, 0
2, 28560, Note_on_c, 8, 40, 0
2, 28560, Note_on_c, 8, 38, 85
2, 28560, Note_on_c, 8, 50, 85
2, 28620, Note_on_c, 8, 50, 0
2, 28620, Note_on_c, 8, 38, 0
2, 28620, Note_on_c, 8, 40, 85
2, 28620, Note_on_c, 8, 52, 85
2, 28680, Note_on_c, 8, 52, 0
2, 28680, Note_on_c, 8, 40, 0
2, 28680, Note_on_c, 8, 40, 85
2, 28680, Note_on_c, 8, 52, 85
2, 28740, Note_on_c, 8, 52, 0
2, 28740, Note_on_c, 8, 40, 0
2, 28740, Note_on_c, 8, 40, 85
2, 28740, Note_on_c, 8, 52, 85
2, 28800, Note_on_c, 8, 52, 0
2, 28800, Note_on_c, 8, 40, 0
2, 28800, Note_on_c, 8, 40, 85
2, 28800, Note_on_c, 8, 52, 85
2, 28860, Note_on_c, 8, 52, 0
2, 28860, Note_on_c, 8, 40, 0
2, 28860, Note_on_c, 8, 40, 85
2, 28860, Note_on_c, 8, 52, 85
2, 28920, Note_on_c, 8, 52, 0
2, 28920, Note_on_c, 8, 40, 0
2, 28920, Note_on_c, 8, 40, 85
2, 28920, Note_on_c, 8, 52, 85
2, 28980, Note_on_c, 8, 52, 0
2, 28980, Note_on_c, 8, 40, 0
2, 28980, Note_on_c, 8, 40, 85
2, 28980, Note_on_c, 8, 52, 85
2, 29040, Note_on_c, 8, 52, 0
2, 29040, Note_on_c, 8, 40, 0
2, 29040, Note_on_c, 8, 40, 85
2, 29280, Note_on_c, 8, 40, 0
2, 29280, Note_on_c, 8, 52, 85
2, 29400, Note_on_c, 8, 52, 0
2, 29400, Note_on_c, 8, 52, 85
2, 29520, Note_on_c, 8, 52, 0
2, 29520, Note_on_c, 8, 50, 85
2, 29760, Note_on_c, 8, 50, 0
2, 29760, Note_on_c, 8, 52, 85
2, 29880, Note_on_c, 8, 52, 0
2, 29880, Note_on_c, 8, 50, 85
2, 30000, Note_on_c, 8, 50, 0
2, 30000, Note_on_c, 8, 52, 85
2, 30120, Note_on_c, 8, 52, 0
2, 30120, Note_on_c, 8, 50, 85
2, 30240, Note_on_c, 8, 50, 0
2, 30240, Note_on_c, 8, 45, 85
2, 30360, Note_on_c, 8, 45, 0
2, 30360, Note_on_c, 8, 43, 85
2, 30480, Note_on_c, 8, 43, 0
2, 30480, Note_on_c, 8, 45, 85
2, 30600, Note_on_c, 8, 45, 0
2, 30600, Note_on_c, 8, 43, 85
2, 30720, Note_on_c, 8, 43, 0
2, 30720, Note_on_c, 8, 40, 85
2, 30960, Note_on_c, 8, 40, 0
2, 30960, Note_on_c, 8, 40, 85
2, 31200, Note_on_c, 8, 40, 0
2, 31200, Note_on_c, 8, 52, 85
2, 31320, Note_on_c, 8, 52, 0
2, 31320, Note_on_c, 8, 52, 85
2, 31440, Note_on_c, 8, 52, 0
2, 31440, Note_on_c, 8, 50, 85
2, 31680, Note_on_c, 8, 50, 0
2, 31680, Note_on_c, 8, 52, 85
2, 31800, Note_on_c, 8, 52, 0
2, 31800, Note_on_c, 8, 50, 85
2, 31920, Note_on_c, 8, 50, 0
2, 31920, Note_on_c, 8, 52, 85
2, 32040, Note_on_c, 8, 52, 0
2, 32040, Note_on_c, 8, 50, 85
2, 32160, Note_on_c, 8, 50, 0
2, 32160, Note_on_c, 8, 45, 85
2, 32280, Note_on_c, 8, 45, 0
2, 32280, Note_on_c, 8, 43, 85
2, 32400, Note_on_c, 8, 43, 0
2, 32400, Note_on_c, 8, 45, 85
2, 32520, Note_on_c, 8, 45, 0
2, 32520, Note_on_c, 8, 43, 85
2, 32640, Note_on_c, 8, 43, 0
2, 32640, Note_on_c, 8, 40, 85
2, 32880, Note_on_c, 8, 40, 0
2, 32880, Note_on_c, 8, 40, 85
2, 33120, Note_on_c, 8, 40, 0
2, 33120, Note_on_c, 8, 52, 85
2, 33240, Note_on_c, 8, 52, 0
2, 33240, Note_on_c, 8, 52, 85
2, 33360, Note_on_c, 8, 52, 0
2, 33360, Note_on_c, 8, 50, 85
2, 33600, Note_on_c, 8, 50, 0
2, 33600, Note_on_c, 8, 52, 85
2, 33720, Note_on_c, 8, 52, 0
2, 33720, Note_on_c, 8, 50, 85
2, 33840, Note_on_c, 8, 50, 0
2, 33840, Note_on_c, 8, 52, 85
2, 33960, Note_on_c, 8, 52, 0
2, 33960, Note_on_c, 8, 50, 85
2, 34080, Note_on_c, 8, 50, 0
2, 34080, Note_on_c, 8, 45, 85
2, 34200, Note_on_c, 8, 45, 0
2, 34200, Note_on_c, 8, 43, 85
2, 34320, Note_on_c, 8, 43, 0
2, 34320, Note_on_c, 8, 45, 85
2, 34440, Note_on_c, 8, 45, 0
2, 34440, Note_on_c, 8, 43, 85
2, 34560, Note_on_c, 8, 43, 0
2, 34560, Note_on_c, 8, 40, 85
2, 34800, Note_on_c, 8, 40, 0
2, 34800, Note_on_c, 8, 40, 85
2, 35040, Note_on_c, 8, 40, 0
2, 35040, Note_on_c, 8, 52, 85
2, 35160, Note_on_c, 8, 52, 0
2, 35160, Note_on_c, 8, 52, 85
2, 35280, Note_on_c, 8, 52, 0
2, 35280, Note_on_c, 8, 50, 85
2, 35520, Note_on_c, 8, 50, 0
2, 35520, Note_on_c, 8, 52, 85
2, 35640, Note_on_c, 8, 52, 0
2, 35640, Note_on_c, 8, 50, 85
2, 35760, Note_on_c, 8, 50, 0
2, 35760, Note_on_c, 8, 52, 85
2, 35880, Note_on_c, 8, 52, 0
2, 35880, Note_on_c, 8, 50, 85
2, 36000, Note_on_c, 8, 50, 0
2, 36000, Note_on_c, 8, 45, 85
2, 36120, Note_on_c, 8, 45, 0
2, 36120, Note_on_c, 8, 43, 85
2, 36240, Note_on_c, 8, 43, 0
2, 36240, Note_on_c, 8, 45, 85
2, 36360, Note_on_c, 8, 45, 0
2, 36360, Note_on_c, 8, 43, 85
2, 36480, Note_on_c, 8, 43, 0
2, 36480, Note_on_c, 8, 40, 85
2, 36720, Note_on_c, 8, 40, 0
2, 36720, Note_on_c, 8, 40, 85
2, 36960, Note_on_c, 8, 40, 0
2, 36960, Note_on_c, 8, 52, 85
2, 37080, Note_on_c, 8, 52, 0
2, 37080, Note_on_c, 8, 52, 85
2, 37200, Note_on_c, 8, 52, 0
2, 37200, Note_on_c, 8, 50, 85
2, 37440, Note_on_c, 8, 50, 0
2, 37440, Note_on_c, 8, 52, 85
2, 37560, Note_on_c, 8, 52, 0
2, 37560, Note_on_c, 8, 50, 85
2, 37680, Note_on_c, 8, 50, 0
2, 37680, Note_on_c, 8, 52, 85
2, 37800, Note_on_c, 8, 52, 0
2, 37800, Note_on_c, 8, 50, 85
2, 37920, Note_on_c, 8, 50, 0
2, 37920, Note_on_c, 8, 45, 85
2, 38040, Note_on_c, 8, 45, 0
2, 38040, Note_on_c, 8, 43, 85
2, 38160, Note_on_c, 8, 43, 0
2, 38160, Note_on_c, 8, 45, 85
2, 38280, Note_on_c, 8, 45, 0
2, 38280, Note_on_c, 8, 43, 85
2, 38400, Note_on_c, 8, 43, 0
2, 38400, Note_on_c, 8, 40, 85
2, 38640, Note_on_c, 8, 40, 0
2, 38640, Note_on_c, 8, 40, 85
2, 38880, Note_on_c, 8, 40, 0
2, 38880, Note_on_c, 8, 52, 85
2, 39000, Note_on_c, 8, 52, 0
2, 39000, Note_on_c, 8, 52, 85
2, 39120, Note_on_c, 8, 52, 0
2, 39120, Note_on_c, 8, 50, 85
2, 39360, Note_on_c, 8, 50, 0
2, 39360, Note_on_c, 8, 52, 85
2, 39480, Note_on_c, 8, 52, 0
2, 39480, Note_on_c, 8, 50, 85
2, 39600, Note_on_c, 8, 50, 0
2, 39600, Note_on_c, 8, 52, 85
2, 39720, Note_on_c, 8, 52, 0
2, 39720, Note_on_c, 8, 50, 85
2, 39840, Note_on_c, 8, 50, 0
2, 39840, Note_on_c, 8, 45, 85
2, 39960, Note_on_c, 8, 45, 0
2, 39960, Note_on_c, 8, 43, 85
2, 40080, Note_on_c, 8, 43, 0
2, 40080, Note_on_c, 8, 45, 85
2, 40200, Note_on_c, 8, 45, 0
2, 40200, Note_on_c, 8, 43, 85
2, 40320, Note_on_c, 8, 43, 0
2, 40320, Note_on_c, 8, 40, 85
2, 40560, Note_on_c, 8, 40, 0
2, 40560, Note_on_c, 8, 40, 85
2, 40800, Note_on_c, 8, 40, 0
2, 40800, Note_on_c, 8, 52, 85
2, 40920, Note_on_c, 8, 52, 0
2, 40920, Note_on_c, 8, 52, 85
2, 41040, Note_on_c, 8, 52, 0
2, 41040, Note_on_c, 8, 50, 85
2, 41280, Note_on_c, 8, 50, 0
2, 41280, Note_on_c, 8, 52, 85
2, 41400, Note_on_c, 8, 52, 0
2, 41400, Note_on_c, 8, 50, 85
2, 41520, Note_on_c, 8, 50, 0
2, 41520, Note_on_c, 8, 52, 85
2, 41640, Note_on_c, 8, 52, 0
2, 41640, Note_on_c, 8, 50, 85
2, 41760, Note_on_c, 8, 50, 0
2, 41760, Note_on_c, 8, 45, 85
2, 41880, Note_on_c, 8, 45, 0
2, 41880, Note_on_c, 8, 43, 85
2, 42000, Note_on_c, 8, 43, 0
2, 42000, Note_on_c, 8, 45, 85
2, 42120, Note_on_c, 8, 45, 0
2, 42120, Note_on_c, 8, 43, 85
2, 42240, Note_on_c, 8, 43, 0
2, 42240, Note_on_c, 8, 40, 85
2, 42480, Note_on_c, 8, 40, 0
2, 42480, Note_on_c, 8, 40, 85
2, 42720, Note_on_c, 8, 40, 0
2, 42720, Note_on_c, 8, 52, 85
2, 42840, Note_on_c, 8, 52, 0
2, 42840, Note_on_c, 8, 52, 85
2, 42960, Note_on_c, 8, 52, 0
2, 42960, Note_on_c, 8, 50, 85
2, 43200, Note_on_c, 8, 50, 0
2, 43200, Note_on_c, 8, 52, 85
2, 43320, Note_on_c, 8, 52, 0
2, 43320, Note_on_c, 8, 50, 85
2, 43440, Note_on_c, 8, 50, 0
2, 43440, Note_on_c, 8, 52, 85
2, 43560, Note_on_c, 8, 52, 0
2, 43560, Note_on_c, 8, 50, 85
2, 43680, Note_on_c, 8, 50, 0
2, 43680, Note_on_c, 8, 45, 85
2, 43800, Note_on_c, 8, 45, 0
2, 43800, Note_on_c, 8, 43, 85
2, 43920, Note_on_c, 8, 43, 0
2, 43920, Note_on_c, 8, 45, 85
2, 44040, Note_on_c, 8, 45, 0
2, 44040, Note_on_c, 8, 43, 85
2, 44160, Note_on_c, 8, 43, 0
2, 44160, Note_on_c, 8, 40, 85
2, 44400, Note_on_c, 8, 40, 0
2, 44400, Note_on_c, 8, 40, 85
2, 44640, Note_on_c, 8, 40, 0
2, 44640, Note_on_c, 8, 52, 85
2, 44760, Note_on_c, 8, 52, 0
2, 44760, Note_on_c, 8, 52, 85
2, 44880, Note_on_c, 8, 52, 0
2, 44880, Note_on_c, 8, 50, 85
2, 45120, Note_on_c, 8, 50, 0
2, 45120, Note_on_c, 8, 52, 85
2, 45240, Note_on_c, 8, 52, 0
2, 45240, Note_on_c, 8, 50, 85
2, 45360, Note_on_c, 8, 50, 0
2, 45360, Note_on_c, 8, 52, 85
2, 45480, Note_on_c, 8, 52, 0
2, 45480, Note_on_c, 8, 50, 85
2, 45600, Note_on_c, 8, 50, 0
2, 45600, Note_on_c, 8, 45, 85
2, 45720, Note_on_c, 8, 45, 0
2, 45720, Note_on_c, 8, 43, 85
2, 45840, Note_on_c, 8, 43, 0
2, 45840, Note_on_c, 8, 45, 85
2, 45960, Note_on_c, 8, 45, 0
2, 45960, Note_on_c, 8, 43, 85
2, 46080, Note_on_c, 8, 43, 0
2, 46080, Note_on_c, 8, 40, 85
2, 46320, Note_on_c, 8, 40, 0
2, 46320, Note_on_c, 8, 40, 85
2, 46560, Note_on_c, 8, 40, 0
2, 46560, Note_on_c, 8, 52, 85
2, 46680, Note_on_c, 8, 52, 0
2, 46680, Note_on_c, 8, 52, 85
2, 46800, Note_on_c, 8, 52, 0
2, 46800, Note_on_c, 8, 50, 85
2, 47040, Note_on_c, 8, 50, 0
2, 47040, Note_on_c, 8, 52, 85
2, 47160, Note_on_c, 8, 52, 0
2, 47160, Note_on_c, 8, 50, 85
2, 47280, Note_on_c, 8, 50, 0
2, 47280, Note_on_c, 8, 52, 85
2, 47400, Note_on_c, 8, 52, 0
2, 47400, Note_on_c, 8, 50, 85
2, 47520, Note_on_c, 8, 50, 0
2, 47520, Note_on_c, 8, 45, 85
2, 47640, Note_on_c, 8, 45, 0
2, 47640, Note_on_c, 8, 43, 85
2, 47760, Note_on_c, 8, 43, 0
2, 47760, Note_on_c, 8, 45, 85
2, 47880, Note_on_c, 8, 45, 0
2, 47880, Note_on_c, 8, 43, 85
2, 48000, Note_on_c, 8, 43, 0
2, 48000, Note_on_c, 8, 40, 85
2, 48240, Note_on_c, 8, 40, 0
2, 67920, Note_on_c, 8, 52, 85
2, 68040, Note_on_c, 8, 52, 0
2, 68040, Note_on_c, 8, 52, 85
2, 68160, Note_on_c, 8, 52, 0
2, 68160, Note_on_c, 8, 52, 85
2, 68280, Note_on_c, 8, 52, 0
2, 68280, Note_on_c, 8, 52, 85
2, 68399, Note_on_c, 8, 52, 0
2, 68400, Note_on_c, 8, 50, 85
2, 68640, Note_on_c, 8, 50, 0
2, 68640, Note_on_c, 8, 52, 85
2, 68760, Note_on_c, 8, 52, 0
2, 68760, Note_on_c, 8, 50, 85
2, 68880, Note_on_c, 8, 50, 0
2, 68880, Note_on_c, 8, 52, 85
2, 69000, Note_on_c, 8, 52, 0
2, 69000, Note_on_c, 8, 50, 85
2, 69120, Note_on_c, 8, 50, 0
2, 69120, Note_on_c, 8, 45, 85
2, 69240, Note_on_c, 8, 45, 0
2, 69240, Note_on_c, 8, 43, 85
2, 69360, Note_on_c, 8, 43, 0
2, 69360, Note_on_c, 8, 45, 85
2, 69480, Note_on_c, 8, 45, 0
2, 69480, Note_on_c, 8, 43, 85
2, 69600, Note_on_c, 8, 43, 0
2, 69600, Note_on_c, 8, 40, 85
2, 69840, Note_on_c, 8, 40, 0
2, 69840, Note_on_c, 8, 52, 85
2, 69960, Note_on_c, 8, 52, 0
2, 69960, Note_on_c, 8, 52, 85
2, 70080, Note_on_c, 8, 52, 0
2, 70080, Note_on_c, 8, 50, 85
2, 70320, Note_on_c, 8, 50, 0
2, 70320, Note_on_c, 8, 52, 85
2, 70560, Note_on_c, 8, 52, 0
2, 70560, Note_on_c, 8, 52, 85
2, 70680, Note_on_c, 8, 52, 0
2, 70680, Note_on_c, 8, 50, 85
2, 70800, Note_on_c, 8, 50, 0
2, 70800, Note_on_c, 8, 52, 85
2, 70920, Note_on_c, 8, 52, 0
2, 70920, Note_on_c, 8, 50, 85
2, 71040, Note_on_c, 8, 50, 0
2, 71040, Note_on_c, 8, 45, 85
2, 71160, Note_on_c, 8, 45, 0
2, 71160, Note_on_c, 8, 43, 85
2, 71280, Note_on_c, 8, 43, 0
2, 71280, Note_on_c, 8, 45, 85
2, 71400, Note_on_c, 8, 45, 0
2, 71400, Note_on_c, 8, 43, 85
2, 71520, Note_on_c, 8, 43, 0
2, 71520, Note_on_c, 8, 40, 85
2, 71760, Note_on_c, 8, 40, 0
2, 71760, Note_on_c, 8, 40, 85
2, 72000, Note_on_c, 8, 40, 0
2, 72000, Note_on_c, 8, 52, 85
2, 72120, Note_on_c, 8, 52, 0
2, 72120, Note_on_c, 8, 52, 85
2, 72240, Note_on_c, 8, 52, 0
2, 72240, Note_on_c, 8, 50, 85
2, 72480, Note_on_c, 8, 50, 0
2, 72480, Note_on_c, 8, 52, 85
2, 72600, Note_on_c, 8, 52, 0
2, 72600, Note_on_c, 8, 50, 85
2, 72720, Note_on_c, 8, 50, 0
2, 72720, Note_on_c, 8, 52, 85
2, 72840, Note_on_c, 8, 52, 0
2, 72840, Note_on_c, 8, 50, 85
2, 72960, Note_on_c, 8, 50, 0
2, 72960, Note_on_c, 8, 45, 85
2, 73080, Note_on_c, 8, 45, 0
2, 73080, Note_on_c, 8, 43, 85
2, 73200, Note_on_c, 8, 43, 0
2, 73200, Note_on_c, 8, 45, 85
2, 73320, Note_on_c, 8, 45, 0
2, 73320, Note_on_c, 8, 43, 85
2, 73440, Note_on_c, 8, 43, 0
2, 73440, Note_on_c, 8, 40, 85
2, 73680, Note_on_c, 8, 40, 0
2, 73680, Note_on_c, 8, 40, 85
2, 73920, Note_on_c, 8, 40, 0
2, 73920, Note_on_c, 8, 52, 85
2, 74040, Note_on_c, 8, 52, 0
2, 74040, Note_on_c, 8, 52, 85
2, 74160, Note_on_c, 8, 52, 0
2, 74160, Note_on_c, 8, 50, 85
2, 74400, Note_on_c, 8, 50, 0
2, 74400, Note_on_c, 8, 52, 85
2, 74520, Note_on_c, 8, 52, 0
2, 74520, Note_on_c, 8, 50, 85
2, 74640, Note_on_c, 8, 50, 0
2, 74640, Note_on_c, 8, 52, 85
2, 74760, Note_on_c, 8, 52, 0
2, 74760, Note_on_c, 8, 50, 85
2, 74880, Note_on_c, 8, 50, 0
2, 74880, Note_on_c, 8, 45, 85
2, 75000, Note_on_c, 8, 45, 0
2, 75000, Note_on_c, 8, 43, 85
2, 75120, Note_on_c, 8, 43, 0
2, 75120, Note_on_c, 8, 45, 85
2, 75240, Note_on_c, 8, 45, 0
2, 75240, Note_on_c, 8, 43, 85
2, 75360, Note_on_c, 8, 43, 0
2, 75360, Note_on_c, 8, 40, 85
2, 75600, Note_on_c, 8, 40, 0
2, 75600, Note_on_c, 8, 40, 85
2, 75840, Note_on_c, 8, 40, 0
2, 75840, Note_on_c, 8, 52, 85
2, 75960, Note_on_c, 8, 52, 0
2, 75960, Note_on_c, 8, 52, 85
2, 76080, Note_on_c, 8, 52, 0
2, 76080, Note_on_c, 8, 50, 85
2, 76320, Note_on_c, 8, 50, 0
2, 76320, Note_on_c, 8, 52, 85
2, 76440, Note_on_c, 8, 52, 0
2, 76440, Note_on_c, 8, 50, 85
2, 76560, Note_on_c, 8, 50, 0
2, 76560, Note_on_c, 8, 52, 85
2, 76680, Note_on_c, 8, 52, 0
2, 76680, Note_on_c, 8, 50, 85
2, 76800, Note_on_c, 8, 50, 0
2, 76800, Note_on_c, 8, 45, 85
2, 76920, Note_on_c, 8, 45, 0
2, 76920, Note_on_c, 8, 43, 85
2, 77040, Note_on_c, 8, 43, 0
2, 77040, Note_on_c, 8, 45, 85
2, 77160, Note_on_c, 8, 45, 0
2, 77160, Note_on_c, 8, 43, 85
2, 77280, Note_on_c, 8, 43, 0
2, 77280, Note_on_c, 8, 40, 85
2, 77520, Note_on_c, 8, 40, 0
2, 77520, Note_on_c, 8, 40, 85
2, 77760, Note_on_c, 8, 40, 0
2, 77760, Note_on_c, 8, 52, 85
2, 77880, Note_on_c, 8, 52, 0
2, 77880, Note_on_c, 8, 52, 85
2, 78000, Note_on_c, 8, 52, 0
2, 78000, Note_on_c, 8, 50, 85
2, 78240, Note_on_c, 8, 50, 0
2, 78240, Note_on_c, 8, 52, 85
2, 78360, Note_on_c, 8, 52, 0
2, 78360, Note_on_c, 8, 50, 85
2, 78480, Note_on_c, 8, 50, 0
2, 78480, Note_on_c, 8, 52, 85
2, 78600, Note_on_c, 8, 52, 0
2, 78600, Note_on_c, 8, 50, 85
2, 78720, Note_on_c, 8, 50, 0
2, 78720, Note_on_c, 8, 45, 85
2, 78840, Note_on_c, 8, 45, 0
2, 78840, Note_on_c, 8, 43, 85
2, 78960, Note_on_c, 8, 43, 0
2, 78960, Note_on_c, 8, 45, 85
2, 79080, Note_on_c, 8, 45, 0
2, 79080, Note_on_c, 8, 43, 85
2, 79200, Note_on_c, 8, 43, 0
2, 79200, Note_on_c, 8, 40, 85
2, 79440, Note_on_c, 8, 40, 0
2, 79440, Note_on_c, 8, 40, 85
2, 79680, Note_on_c, 8, 40, 0
2, 79680, Note_on_c, 8, 52, 85
2, 79800, Note_on_c, 8, 52, 0
2, 79800, Note_on_c, 8, 52, 85
2, 79920, Note_on_c, 8, 52, 0
2, 79920, Note_on_c, 8, 50, 85
2, 80160, Note_on_c, 8, 50, 0
2, 80160, Note_on_c, 8, 52, 85
2, 80280, Note_on_c, 8, 52, 0
2, 80280, Note_on_c, 8, 50, 85
2, 80400, Note_on_c, 8, 50, 0
2, 80400, Note_on_c, 8, 52, 85
2, 80520, Note_on_c, 8, 52, 0
2, 80520, Note_on_c, 8, 50, 85
2, 80640, Note_on_c, 8, 50, 0
2, 80640, Note_on_c, 8, 45, 85
2, 80760, Note_on_c, 8, 45, 0
2, 80760, Note_on_c, 8, 43, 85
2, 80880, Note_on_c, 8, 43, 0
2, 80880, Note_on_c, 8, 45, 85
2, 81000, Note_on_c, 8, 45, 0
2, 81000, Note_on_c, 8, 43, 85
2, 81120, Note_on_c, 8, 43, 0
2, 81120, Note_on_c, 8, 40, 85
2, 81360, Note_on_c, 8, 40, 0
2, 81360, Note_on_c, 8, 40, 85
2, 81600, Note_on_c, 8, 40, 0
2, 81600, Note_on_c, 8, 52, 85
2, 81720, Note_on_c, 8, 52, 0
2, 81720, Note_on_c, 8, 52, 85
2, 81840, Note_on_c, 8, 52, 0
2, 81840, Note_on_c, 8, 50, 85
2, 82080, Note_on_c, 8, 50, 0
2, 82080, Note_on_c, 8, 52, 85
2, 82200, Note_on_c, 8, 52, 0
2, 82200, Note_on_c, 8, 50, 85
2, 82320, Note_on_c, 8, 50, 0
2, 82320, Note_on_c, 8, 52, 85
2, 82440, Note_on_c, 8, 52, 0
2, 82440, Note_on_c, 8, 50, 85
2, 82560, Note_on_c, 8, 50, 0
2, 82560, Note_on_c, 8, 45, 85
2, 82680, Note_on_c, 8, 45, 0
2, 82680, Note_on_c, 8, 43, 85
2, 82800, Note_on_c, 8, 43, 0
2, 82800, Note_on_c, 8, 45, 85
2, 82920, Note_on_c, 8, 45, 0
2, 82920, Note_on_c, 8, 43, 85
2, 83040, Note_on_c, 8, 43, 0
2, 83040, Note_on_c, 8, 40, 85
2, 83280, Note_on_c, 8, 40, 0
2, 83280, Note_on_c, 8, 40, 85
2, 83520, Note_on_c, 8, 40, 0
2, 83520, Note_on_c, 8, 52, 85
2, 83640, Note_on_c, 8, 52, 0
2, 83640, Note_on_c, 8, 52, 85
2, 83760, Note_on_c, 8, 52, 0
2, 83760, Note_on_c, 8, 50, 85
2, 84000, Note_on_c, 8, 50, 0
2, 84000, Note_on_c, 8, 52, 85
2, 84120, Note_on_c, 8, 52, 0
2, 84120, Note_on_c, 8, 50, 85
2, 84240, Note_on_c, 8, 50, 0
2, 84240, Note_on_c, 8, 52, 85
2, 84360, Note_on_c, 8, 52, 0
2, 84360, Note_on_c, 8, 50, 85
2, 84480, Note_on_c, 8, 50, 0
2, 84480, Note_on_c, 8, 45, 85
2, 84600, Note_on_c, 8, 45, 0
2, 84600, Note_on_c, 8, 43, 85
2, 84720, Note_on_c, 8, 43, 0
2, 84720, Note_on_c, 8, 45, 85
2, 84840, Note_on_c, 8, 45, 0
2, 84840, Note_on_c, 8, 43, 85
2, 84960, Note_on_c, 8, 43, 0
2, 84960, Note_on_c, 8, 40, 85
2, 85200, Note_on_c, 8, 40, 0
2, 85200, Note_on_c, 8, 40, 85
2, 85440, Note_on_c, 8, 40, 0
2, 85440, Note_on_c, 8, 52, 85
2, 85560, Note_on_c, 8, 52, 0
2, 85560, Note_on_c, 8, 52, 85
2, 85680, Note_on_c, 8, 52, 0
2, 85680, Note_on_c, 8, 50, 85
2, 85920, Note_on_c, 8, 50, 0
2, 85920, Note_on_c, 8, 52, 85
2, 86040, Note_on_c, 8, 52, 0
2, 86040, Note_on_c, 8, 50, 85
2, 86160, Note_on_c, 8, 50, 0
2, 86160, Note_on_c, 8, 52, 85
2, 86280, Note_on_c, 8, 52, 0
2, 86280, Note_on_c, 8, 50, 85
2, 86400, Note_on_c, 8, 50, 0
2, 86400, Note_on_c, 8, 45, 95
2, 86520, Note_on_c, 8, 45, 0
2, 86520, Note_on_c, 8, 43, 95
2, 86880, Note_on_c, 8, 43, 0
2, 87120, Note_on_c, 8, 52, 95
2, 87240, Note_on_c, 8, 52, 0
2, 87240, Note_on_c, 8, 52, 95
2, 87360, Note_on_c, 8, 52, 0
2, 87360, Note_on_c, 8, 50, 95
2, 87600, Note_on_c, 8, 50, 0
2, 87600, Note_on_c, 8, 52, 95
2, 87600, Note_on_c, 8, 40, 95
2, 87840, Note_on_c, 8, 40, 0
2, 87840, Note_on_c, 8, 52, 0
2, 87840, Note_on_c, 8, 52, 95
2, 87960, Note_on_c, 8, 52, 0
2, 87960, Note_on_c, 8, 50, 95
2, 88080, Note_on_c, 8, 50, 0
2, 88080, Note_on_c, 8, 52, 95
2, 88200, Note_on_c, 8, 52, 0
2, 88200, Note_on_c, 8, 50, 95
2, 88320, Note_on_c, 8, 50, 0
2, 88320, Note_on_c, 8, 45, 95
2, 88440, Note_on_c, 8, 45, 0
2, 88440, Note_on_c, 8, 43, 95
2, 88560, Note_on_c, 8, 43, 0
2, 88560, Note_on_c, 8, 45, 95
2, 88680, Note_on_c, 8, 45, 0
2, 88680, Note_on_c, 8, 43, 95
2, 88800, Note_on_c, 8, 43, 0
2, 88800, Note_on_c, 8, 40, 95
2, 88920, Note_on_c, 8, 40, 0
2, 88920, Note_on_c, 8, 40, 95
2, 89040, Note_on_c, 8, 40, 0
2, 89040, Note_on_c, 8, 52, 95
2, 89160, Note_on_c, 8, 52, 0
2, 89160, Note_on_c, 8, 52, 95
2, 89280, Note_on_c, 8, 52, 0
2, 89280, Note_on_c, 8, 50, 95
2, 89520, Note_on_c, 8, 50, 0
2, 89520, Note_on_c, 8, 52, 95
2, 89520, Note_on_c, 8, 40, 95
2, 89760, Note_on_c, 8, 40, 0
2, 89760, Note_on_c, 8, 52, 0
2, 89760, Note_on_c, 8, 52, 95
2, 89880, Note_on_c, 8, 52, 0
2, 89880, Note_on_c, 8, 50, 95
2, 90000, Note_on_c, 8, 50, 0
2, 90000, Note_on_c, 8, 52, 95
2, 90120, Note_on_c, 8, 52, 0
2, 90120, Note_on_c, 8, 50, 95
2, 90240, Note_on_c, 8, 50, 0
2, 90240, Note_on_c, 8, 45, 95
2, 90360, Note_on_c, 8, 45, 0
2, 90360, Note_on_c, 8, 43, 95
2, 90480, Note_on_c, 8, 43, 0
2, 90480, Note_on_c, 8, 45, 95
2, 90600, Note_on_c, 8, 45, 0
2, 90600, Note_on_c, 8, 43, 95
2, 90720, Note_on_c, 8, 43, 0
2, 90720, Note_on_c, 8, 40, 95
2, 90840, Note_on_c, 8, 40, 0
2, 90840, Note_on_c, 8, 40, 95
2, 90960, Note_on_c, 8, 40, 0
2, 90960, Note_on_c, 8, 52, 95
2, 91080, Note_on_c, 8, 52, 0
2, 91080, Note_on_c, 8, 52, 95
2, 91200, Note_on_c, 8, 52, 0
2, 91200, Note_on_c, 8, 50, 95
2, 91440, Note_on_c, 8, 50, 0
2, 91440, Note_on_c, 8, 52, 95
2, 91440, Note_on_c, 8, 40, 95
2, 91680, Note_on_c, 8, 40, 0
2, 91680, Note_on_c, 8, 52, 0
2, 91680, Note_on_c, 8, 52, 95
2, 91800, Note_on_c, 8, 52, 0
2, 91800, Note_on_c, 8, 50, 95
2, 91920, Note_on_c, 8, 50, 0
2, 91920, Note_on_c, 8, 52, 95
2, 92040, Note_on_c, 8, 52, 0
2, 92040, Note_on_c, 8, 50, 95
2, 92160, Note_on_c, 8, 50, 0
2, 92160, Note_on_c, 8, 45, 95
2, 92280, Note_on_c, 8, 45, 0
2, 92280, Note_on_c, 8, 43, 95
2, 92400, Note_on_c, 8, 43, 0
2, 92400, Note_on_c, 8, 45, 95
2, 92520, Note_on_c, 8, 45, 0
2, 92520, Note_on_c, 8, 43, 95
2, 92640, Note_on_c, 8, 43, 0
2, 92640, Note_on_c, 8, 40, 95
2, 92760, Note_on_c, 8, 40, 0
2, 92760, Note_on_c, 8, 40, 95
2, 92880, Note_on_c, 8, 40, 0
2, 92880, Note_on_c, 8, 52, 95
2, 93000, Note_on_c, 8, 52, 0
2, 93000, Note_on_c, 8, 52, 95
2, 93120, Note_on_c, 8, 52, 0
2, 93120, Note_on_c, 8, 50, 95
2, 93360, Note_on_c, 8, 50, 0
2, 93360, Note_on_c, 8, 52, 95
2, 93360, Note_on_c, 8, 40, 95
2, 93600, Note_on_c, 8, 40, 0
2, 93600, Note_on_c, 8, 52, 0
2, 93600, Note_on_c, 8, 52, 95
2, 93720, Note_on_c, 8, 52, 0
2, 93720, Note_on_c, 8, 50, 95
2, 93840, Note_on_c, 8, 50, 0
2, 93840, Note_on_c, 8, 52, 95
2, 93960, Note_on_c, 8, 52, 0
2, 93960, Note_on_c, 8, 50, 95
2, 94080, Note_on_c, 8, 50, 0
2, 94080, Note_on_c, 8, 45, 95
2, 94200, Note_on_c, 8, 45, 0
2, 94200, Note_on_c, 8, 43, 95
2, 94320, Note_on_c, 8, 43, 0
2, 94320, Note_on_c, 8, 45, 95
2, 94440, Note_on_c, 8, 45, 0
2, 94440, Note_on_c, 8, 43, 95
2, 94560, Note_on_c, 8, 43, 0
2, 94560, Note_on_c, 8, 40, 95
2, 94680, Note_on_c, 8, 40, 0
2, 94680, Note_on_c, 8, 40, 95
2, 94800, Note_on_c, 8, 40, 0
2, 94800, Note_on_c, 8, 52, 95
2, 94920, Note_on_c, 8, 52, 0
2, 94920, Note_on_c, 8, 52, 95
2, 95040, Note_on_c, 8, 52, 0
2, 95040, Note_on_c, 8, 50, 95
2, 95280, Note_on_c, 8, 50, 0
2, 95280, Note_on_c, 8, 52, 95
2, 95280, Note_on_c, 8, 40, 95
2, 95520, Note_on_c, 8, 40, 0
2, 95520, Note_on_c, 8, 52, 0
2, 95520, Note_on_c, 8, 52, 95
2, 95640, Note_on_c, 8, 52, 0
2, 95640, Note_on_c, 8, 50, 95
2, 95760, Note_on_c, 8, 50, 0
2, 95760, Note_on_c, 8, 52, 95
2, 95880, Note_on_c, 8, 52, 0
2, 95880, Note_on_c, 8, 50, 95
2, 96000, Note_on_c, 8, 50, 0
2, 96000, Note_on_c, 8, 45, 95
2, 96120, Note_on_c, 8, 45, 0
2, 96120, Note_on_c, 8, 43, 95
2, 96240, Note_on_c, 8, 43, 0
2, 96240, Note_on_c, 8, 45, 95
2, 96360, Note_on_c, 8, 45, 0
2, 96360, Note_on_c, 8, 43, 95
2, 96480, Note_on_c, 8, 43, 0
2, 96480, Note_on_c, 8, 40, 95
2, 96600, Note_on_c, 8, 40, 0
2, 96600, Note_on_c, 8, 40, 95
2, 96720, Note_on_c, 8, 40, 0
2, 96720, Note_on_c, 8, 40, 95
2, 96840, Note_on_c, 8, 40, 0
2, 96840, Note_on_c, 8, 40, 95
2, 96960, Note_on_c, 8, 40, 0
2, 96960, Note_on_c, 8, 38, 95
2, 97200, Note_on_c, 8, 38, 0
2, 97200, Note_on_c, 8, 40, 95
2, 97680, Note_on_c, 8, 40, 0
2, 98400, Note_on_c, 8, 45, 85
2, 98400, Note_on_c, 8, 47, 85
2, 98400, Note_on_c, 8, 52, 85
2, 98400, Note_on_c, 8, 57, 85
2, 98520, Note_on_c, 8, 57, 0
2, 98520, Note_on_c, 8, 45, 0
2, 98520, Note_on_c, 8, 47, 0
2, 98520, Note_on_c, 8, 52, 0
2, 98520, Note_on_c, 8, 45, 85
2, 98520, Note_on_c, 8, 47, 85
2, 98520, Note_on_c, 8, 52, 85
2, 98520, Note_on_c, 8, 57, 85
2, 98580, Note_on_c, 8, 57, 0
2, 98580, Note_on_c, 8, 45, 0
2, 98580, Note_on_c, 8, 47, 0
2, 98580, Note_on_c, 8, 52, 0
2, 98580, Note_on_c, 8, 45, 85
2, 98580, Note_on_c, 8, 47, 85
2, 98580, Note_on_c, 8, 52, 85
2, 98580, Note_on_c, 8, 57, 85
2, 98700, Note_on_c, 8, 57, 0
2, 98700, Note_on_c, 8, 45, 0
2, 98700, Note_on_c, 8, 47, 0
2, 98700, Note_on_c, 8, 52, 0
2, 98700, Note_on_c, 8, 45, 85
2, 98700, Note_on_c, 8, 47, 85
2, 98700, Note_on_c, 8, 52, 85
2, 98700, Note_on_c, 8, 57, 85
2, 98760, Note_on_c, 8, 57, 0
2, 98760, Note_on_c, 8, 45, 0
2, 98760, Note_on_c, 8, 47, 0
2, 98760, Note_on_c, 8, 52, 0
2, 98760, Note_on_c, 8, 46, 85
2, 98760, Note_on_c, 8, 58, 85
2, 98820, Note_on_c, 8, 58, 0
2, 98820, Note_on_c, 8, 46, 0
2, 98820, Note_on_c, 8, 46, 85
2, 98820, Note_on_c, 8, 58, 85
2, 98880, Note_on_c, 8, 58, 0
2, 98880, Note_on_c, 8, 46, 0
2, 98880, Note_on_c, 8, 45, 85
2, 98880, Note_on_c, 8, 57, 85
2, 99000, Note_on_c, 8, 57, 0
2, 99000, Note_on_c, 8, 45, 0
2, 99000, Note_on_c, 8, 43, 85
2, 99000, Note_on_c, 8, 55, 85
2, 99060, Note_on_c, 8, 55, 0
2, 99060, Note_on_c, 8, 43, 0
2, 99060, Note_on_c, 8, 43, 85
2, 99060, Note_on_c, 8, 55, 85
2, 99120, Note_on_c, 8, 55, 0
2, 99120, Note_on_c, 8, 43, 0
2, 99120, Note_on_c, 8, 43, 85
2, 99120, Note_on_c, 8, 55, 85
2, 99240, Note_on_c, 8, 55, 0
2, 99240, Note_on_c, 8, 43, 0
2, 99240, Note_on_c, 8, 40, 85
2, 99240, Note_on_c, 8, 52, 85
2, 99300, Note_on_c, 8, 52, 0
2, 99300, Note_on_c, 8, 40, 0
2, 99300, Note_on_c, 8, 40, 85
2, 99300, Note_on_c, 8, 52, 85
2, 99360, Note_on_c, 8, 52, 0
2, 99360, Note_on_c, 8, 40, 0
2, 99360, Note_on_c, 8, 40, 85
2, 99360, Note_on_c, 8, 52, 85
2, 99480, Note_on_c, 8, 52, 0
2, 99480, Note_on_c, 8, 40, 0
2, 99480, Note_on_c, 8, 40, 85
2, 99480, Note_on_c, 8, 52, 85
2, 99540, Note_on_c, 8, 52, 0
2, 99540, Note_on_c, 8, 40, 0
2, 99540, Note_on_c, 8, 40, 85
2, 99540, Note_on_c, 8, 52, 85
2, 99660, Note_on_c, 8, 52, 0
2, 99660, Note_on_c, 8, 40, 0
2, 99660, Note_on_c, 8, 40, 85
2, 99660, Note_on_c, 8, 52, 85
2, 99780, Note_on_c, 8, 52, 0
2, 99780, Note_on_c, 8, 40, 0
2, 99780, Note_on_c, 8, 40, 85
2, 99780, Note_on_c, 8, 52, 85
2, 99840, Note_on_c, 8, 52, 0
2, 99840, Note_on_c, 8, 40, 0
2, 99840, Note_on_c, 8, 40, 85
2, 99840, Note_on_c, 8, 52, 85
2, 99960, Note_on_c, 8, 52, 0
2, 99960, Note_on_c, 8, 40, 0
2, 99960, Note_on_c, 8, 40, 85
2, 99960, Note_on_c, 8, 52, 85
2, 100020, Note_on_c, 8, 52, 0
2, 100020, Note_on_c, 8, 40, 0
2, 100020, Note_on_c, 8, 40, 85
2, 100020, Note_on_c, 8, 52, 85
2, 100080, Note_on_c, 8, 52, 0
2, 100080, Note_on_c, 8, 40, 0
2, 100080, Note_on_c, 8, 40, 85
2, 100080, Note_on_c, 8, 52, 85
2, 100140, Note_on_c, 8, 52, 0
2, 100140, Note_on_c, 8, 40, 0
2, 100140, Note_on_c, 8, 40, 85
2, 100140, Note_on_c, 8, 52, 85
2, 100200, Note_on_c, 8, 52, 0
2, 100200, Note_on_c, 8, 40, 0
2, 100200, Note_on_c, 8, 40, 85
2, 100200, Note_on_c, 8, 52, 85
2, 100260, Note_on_c, 8, 52, 0
2, 100260, Note_on_c, 8, 40, 0
2, 100260, Note_on_c, 8, 40, 85
2, 100260, Note_on_c, 8, 52, 85
2, 100320, Note_on_c, 8, 52, 0
2, 100320, Note_on_c, 8, 40, 0
2, 100320, Note_on_c, 8, 45, 85
2, 100320, Note_on_c, 8, 47, 85
2, 100320, Note_on_c, 8, 52, 85
2, 100320, Note_on_c, 8, 57, 85
2, 100440, Note_on_c, 8, 57, 0
2, 100440, Note_on_c, 8, 45, 0
2, 100440, Note_on_c, 8, 47, 0
2, 100440, Note_on_c, 8, 52, 0
2, 100440, Note_on_c, 8, 45, 85
2, 100440, Note_on_c, 8, 47, 85
2, 100440, Note_on_c, 8, 52, 85
2, 100440, Note_on_c, 8, 57, 85
2, 100500, Note_on_c, 8, 57, 0
2, 100500, Note_on_c, 8, 45, 0
2, 100500, Note_on_c, 8, 47, 0
2, 100500, Note_on_c, 8, 52, 0
2, 100500, Note_on_c, 8, 45, 85
2, 100500, Note_on_c, 8, 47, 85
2, 100500, Note_on_c, 8, 52, 85
2, 100500, Note_on_c, 8, 57, 85
2, 100620, Note_on_c, 8, 57, 0
2, 100620, Note_on_c, 8, 45, 0
2, 100620, Note_on_c, 8, 47, 0
2, 100620, Note_on_c, 8, 52, 0
2, 100620, Note_on_c, 8, 45, 85
2, 100620, Note_on_c, 8, 47, 85
2, 100620, Note_on_c, 8, 52, 85
2, 100620, Note_on_c, 8, 57, 85
2, 100680, Note_on_c, 8, 57, 0
2, 100680, Note_on_c, 8, 45, 0
2, 100680, Note_on_c, 8, 47, 0
2, 100680, Note_on_c, 8, 52, 0
2, 100680, Note_on_c, 8, 46, 85
2, 100680, Note_on_c, 8, 58, 85
2, 100740, Note_on_c, 8, 58, 0
2, 100740, Note_on_c, 8, 46, 0
2, 100740, Note_on_c, 8, 46, 85
2, 100740, Note_on_c, 8, 58, 85
2, 100800, Note_on_c, 8, 58, 0
2, 100800, Note_on_c, 8, 46, 0
2, 100800, Note_on_c, 8, 45, 85
2, 100800, Note_on_c, 8, 57, 85
2, 100920, Note_on_c, 8, 57, 0
2, 100920, Note_on_c, 8, 45, 0
2, 100920, Note_on_c, 8, 43, 85
2, 100920, Note_on_c, 8, 55, 85
2, 100980, Note_on_c, 8, 55, 0
2, 100980, Note_on_c, 8, 43, 0
2, 100980, Note_on_c, 8, 43, 85
2, 100980, Note_on_c, 8, 55, 85
2, 101040, Note_on_c, 8, 55, 0
2, 101040, Note_on_c, 8, 43, 0
2, 101040, Note_on_c, 8, 43, 85
2, 101040, Note_on_c, 8, 55, 85
2, 101160, Note_on_c, 8, 55, 0
2, 101160, Note_on_c, 8, 43, 0
2, 101160, Note_on_c, 8, 40, 85
2, 101160, Note_on_c, 8, 52, 85
2, 101220, Note_on_c, 8, 52, 0
2, 101220, Note_on_c, 8, 40, 0
2, 101220, Note_on_c, 8, 40, 85
2, 101220, Note_on_c, 8, 52, 85
2, 101280, Note_on_c, 8, 52, 0
2, 101280, Note_on_c, 8, 40, 0
2, 101280, Note_on_c, 8, 40, 85
2, 101280, Note_on_c, 8, 52, 85
2, 101400, Note_on_c, 8, 52, 0
2, 101400, Note_on_c, 8, 40, 0
2, 101400, Note_on_c, 8, 40, 85
2, 101400, Note_on_c, 8, 52, 85
2, 101460, Note_on_c, 8, 52, 0
2, 101460, Note_on_c, 8, 40, 0
2, 101460, Note_on_c, 8, 40, 85
2, 101460, Note_on_c, 8, 52, 85
2, 101580, Note_on_c, 8, 52, 0
2, 101580, Note_on_c, 8, 40, 0
2, 101580, Note_on_c, 8, 40, 85
2, 101580, Note_on_c, 8, 52, 85
2, 101700, Note_on_c, 8, 52, 0
2, 101700, Note_on_c, 8, 40, 0
2, 101700, Note_on_c, 8, 40, 85
2, 101700, Note_on_c, 8, 52, 85
2, 101760, Note_on_c, 8, 52, 0
2, 101760, Note_on_c, 8, 40, 0
2, 101760, Note_on_c, 8, 40, 85
2, 101760, Note_on_c, 8, 52, 85
2, 101880, Note_on_c, 8, 52, 0
2, 101880, Note_on_c, 8, 40, 0
2, 101880, Note_on_c, 8, 40, 85
2, 101880, Note_on_c, 8, 52, 85
2, 101940, Note_on_c, 8, 52, 0
2, 101940, Note_on_c, 8, 40, 0
2, 101940, Note_on_c, 8, 40, 85
2, 101940, Note_on_c, 8, 52, 85
2, 102000, Note_on_c, 8, 52, 0
2, 102000, Note_on_c, 8, 40, 0
2, 102000, Note_on_c, 8, 40, 85
2, 102000, Note_on_c, 8, 52, 85
2, 102060, Note_on_c, 8, 52, 0
2, 102060, Note_on_c, 8, 40, 0
2, 102060, Note_on_c, 8, 40, 85
2, 102060, Note_on_c, 8, 52, 85
2, 102120, Note_on_c, 8, 52, 0
2, 102120, Note_on_c, 8, 40, 0
2, 102120, Note_on_c, 8, 40, 85
2, 102120, Note_on_c, 8, 52, 85
2, 102180, Note_on_c, 8, 52, 0
2, 102180, Note_on_c, 8, 40, 0
2, 102180, Note_on_c, 8, 40, 85
2, 102180, Note_on_c, 8, 52, 85
2, 102240, Note_on_c, 8, 52, 0
2, 102240, Note_on_c, 8, 40, 0
2, 102240, Note_on_c, 8, 45, 85
2, 102240, Note_on_c, 8, 47, 85
2, 102240, Note_on_c, 8, 52, 85
2, 102240, Note_on_c, 8, 57, 85
2, 102360, Note_on_c, 8, 57, 0
2, 102360, Note_on_c, 8, 45, 0
2, 102360, Note_on_c, 8, 47, 0
2, 102360, Note_on_c, 8, 52, 0
2, 102360, Note_on_c, 8, 45, 85
2, 102360, Note_on_c, 8, 47, 85
2, 102360, Note_on_c, 8, 52, 85
2, 102360, Note_on_c, 8, 57, 85
2, 102420, Note_on_c, 8, 57, 0
2, 102420, Note_on_c, 8, 45, 0
2, 102420, Note_on_c, 8, 47, 0
2, 102420, Note_on_c, 8, 52, 0
2, 102420, Note_on_c, 8, 45, 85
2, 102420, Note_on_c, 8, 47, 85
2, 102420, Note_on_c, 8, 52, 85
2, 102420, Note_on_c, 8, 57, 85
2, 102540, Note_on_c, 8, 57, 0
2, 102540, Note_on_c, 8, 45, 0
2, 102540, Note_on_c, 8, 47, 0
2, 102540, Note_on_c, 8, 52, 0
2, 102540, Note_on_c, 8, 45, 85
2, 102540, Note_on_c, 8, 47, 85
2, 102540, Note_on_c, 8, 52, 85
2, 102540, Note_on_c, 8, 57, 85
2, 102600, Note_on_c, 8, 57, 0
2, 102600, Note_on_c, 8, 45, 0
2, 102600, Note_on_c, 8, 47, 0
2, 102600, Note_on_c, 8, 52, 0
2, 102600, Note_on_c, 8, 46, 85
2, 102600, Note_on_c, 8, 58, 85
2, 102660, Note_on_c, 8, 58, 0
2, 102660, Note_on_c, 8, 46, 0
2, 102660, Note_on_c, 8, 46, 85
2, 102660, Note_on_c, 8, 58, 85
2, 102720, Note_on_c, 8, 58, 0
2, 102720, Note_on_c, 8, 46, 0
2, 102720, Note_on_c, 8, 45, 85
2, 102720, Note_on_c, 8, 57, 85
2, 102840, Note_on_c, 8, 57, 0
2, 102840, Note_on_c, 8, 45, 0
2, 102840, Note_on_c, 8, 43, 85
2, 102840, Note_on_c, 8, 55, 85
2, 102900, Note_on_c, 8, 55, 0
2, 102900, Note_on_c, 8, 43, 0
2, 102900, Note_on_c, 8, 43, 85
2, 102900, Note_on_c, 8, 55, 85
2, 102960, Note_on_c, 8, 55, 0
2, 102960, Note_on_c, 8, 43, 0
2, 102960, Note_on_c, 8, 43, 85
2, 102960, Note_on_c, 8, 55, 85
2, 103080, Note_on_c, 8, 55, 0
2, 103080, Note_on_c, 8, 43, 0
2, 103080, Note_on_c, 8, 40, 85
2, 103080, Note_on_c, 8, 52, 85
2, 103140, Note_on_c, 8, 52, 0
2, 103140, Note_on_c, 8, 40, 0
2, 103140, Note_on_c, 8, 40, 85
2, 103140, Note_on_c, 8, 52, 85
2, 103200, Note_on_c, 8, 52, 0
2, 103200, Note_on_c, 8, 40, 0
2, 103200, Note_on_c, 8, 40, 85
2, 103200, Note_on_c, 8, 52, 85
2, 103320, Note_on_c, 8, 52, 0
2, 103320, Note_on_c, 8, 40, 0
2, 103320, Note_on_c, 8, 40, 85
2, 103320, Note_on_c, 8, 52, 85
2, 103380, Note_on_c, 8, 52, 0
2, 103380, Note_on_c, 8, 40, 0
2, 103380, Note_on_c, 8, 40, 85
2, 103380, Note_on_c, 8, 52, 85
2, 103500, Note_on_c, 8, 52, 0
2, 103500, Note_on_c, 8, 40, 0
2, 103500, Note_on_c, 8, 40, 85
2, 103500, Note_on_c, 8, 52, 85
2, 103620, Note_on_c, 8, 52, 0
2, 103620, Note_on_c, 8, 40, 0
2, 103620, Note_on_c, 8, 40, 85
2, 103620, Note_on_c, 8, 52, 85
2, 103680, Note_on_c, 8, 52, 0
2, 103680, Note_on_c, 8, 40, 0
2, 103680, Note_on_c, 8, 40, 85
2, 103680, Note_on_c, 8, 52, 85
2, 103800, Note_on_c, 8, 52, 0
2, 103800, Note_on_c, 8, 40, 0
2, 103800, Note_on_c, 8, 40, 85
2, 103800, Note_on_c, 8, 52, 85
2, 103860, Note_on_c, 8, 52, 0
2, 103860, Note_on_c, 8, 40, 0
2, 103860, Note_on_c, 8, 40, 85
2, 103860, Note_on_c, 8, 52, 85
2, 103920, Note_on_c, 8, 52, 0
2, 103920, Note_on_c, 8, 40, 0
2, 103920, Note_on_c, 8, 40, 85
2, 103920, Note_on_c, 8, 52, 85
2, 103980, Note_on_c, 8, 52, 0
2, 103980, Note_on_c, 8, 40, 0
2, 103980, Note_on_c, 8, 40, 85
2, 103980, Note_on_c, 8, 52, 85
2, 104040, Note_on_c, 8, 52, 0
2, 104040, Note_on_c, 8, 40, 0
2, 104040, Note_on_c, 8, 40, 85
2, 104040, Note_on_c, 8, 52, 85
2, 104100, Note_on_c, 8, 52, 0
2, 104100, Note_on_c, 8, 40, 0
2, 104100, Note_on_c, 8, 40, 85
2, 104100, Note_on_c, 8, 52, 85
2, 104160, Note_on_c, 8, 52, 0
2, 104160, Note_on_c, 8, 40, 0
2, 104160, Note_on_c, 8, 45, 85
2, 104160, Note_on_c, 8, 47, 85
2, 104160, Note_on_c, 8, 52, 85
2, 104160, Note_on_c, 8, 57, 85
2, 104280, Note_on_c, 8, 57, 0
2, 104280, Note_on_c, 8, 45, 0
2, 104280, Note_on_c, 8, 47, 0
2, 104280, Note_on_c, 8, 52, 0
2, 104280, Note_on_c, 8, 45, 85
2, 104280, Note_on_c, 8, 47, 85
2, 104280, Note_on_c, 8, 52, 85
2, 104280, Note_on_c, 8, 57, 85
2, 104340, Note_on_c, 8, 57, 0
2, 104340, Note_on_c, 8, 45, 0
2, 104340, Note_on_c, 8, 47, 0
2, 104340, Note_on_c, 8, 52, 0
2, 104340, Note_on_c, 8, 45, 85
2, 104340, Note_on_c, 8, 47, 85
2, 104340, Note_on_c, 8, 52, 85
2, 104340, Note_on_c, 8, 57, 85
2, 104460, Note_on_c, 8, 57, 0
2, 104460, Note_on_c, 8, 45, 0
2, 104460, Note_on_c, 8, 47, 0
2, 104460, Note_on_c, 8, 52, 0
2, 104460, Note_on_c, 8, 45, 85
2, 104460, Note_on_c, 8, 47, 85
2, 104460, Note_on_c, 8, 52, 85
2, 104460, Note_on_c, 8, 57, 85
2, 104520, Note_on_c, 8, 57, 0
2, 104520, Note_on_c, 8, 45, 0
2, 104520, Note_on_c, 8, 47, 0
2, 104520, Note_on_c, 8, 52, 0
2, 104520, Note_on_c, 8, 46, 85
2, 104520, Note_on_c, 8, 58, 85
2, 104580, Note_on_c, 8, 58, 0
2, 104580, Note_on_c, 8, 46, 0
2, 104580, Note_on_c, 8, 46, 85
2, 104580, Note_on_c, 8, 58, 85
2, 104640, Note_on_c, 8, 58, 0
2, 104640, Note_on_c, 8, 46, 0
2, 104640, Note_on_c, 8, 45, 85
2, 104640, Note_on_c, 8, 57, 85
2, 104760, Note_on_c, 8, 57, 0
2, 104760, Note_on_c, 8, 45, 0
2, 104760, Note_on_c, 8, 43, 85
2, 104760, Note_on_c, 8, 55, 85
2, 104820, Note_on_c, 8, 55, 0
2, 104820, Note_on_c, 8, 43, 0
2, 104820, Note_on_c, 8, 43, 85
2, 104820, Note_on_c, 8, 55, 85
2, 104880, Note_on_c, 8, 55, 0
2, 104880, Note_on_c, 8, 43, 0
2, 104880, Note_on_c, 8, 43, 85
2, 104880, Note_on_c, 8, 55, 85
2, 105000, Note_on_c, 8, 55, 0
2, 105000, Note_on_c, 8, 43, 0
2, 105000, Note_on_c, 8, 40, 85
2, 105000, Note_on_c, 8, 52, 85
2, 105060, Note_on_c, 8, 52, 0
2, 105060, Note_on_c, 8, 40, 0
2, 105060, Note_on_c, 8, 40, 85
2, 105060, Note_on_c, 8, 52, 85
2, 105120, Note_on_c, 8, 52, 0
2, 105120, Note_on_c, 8, 40, 0
2, 105120, Note_on_c, 8, 40, 85
2, 105120, Note_on_c, 8, 52, 85
2, 105240, Note_on_c, 8, 52, 0
2, 105240, Note_on_c, 8, 40, 0
2, 105240, Note_on_c, 8, 40, 85
2, 105240, Note_on_c, 8, 52, 85
2, 105300, Note_on_c, 8, 52, 0
2, 105300, Note_on_c, 8, 40, 0
2, 105300, Note_on_c, 8, 40, 85
2, 105300, Note_on_c, 8, 52, 85
2, 105420, Note_on_c, 8, 52, 0
2, 105420, Note_on_c, 8, 40, 0
2, 105420, Note_on_c, 8, 40, 85
2, 105420, Note_on_c, 8, 52, 85
2, 105540, Note_on_c, 8, 52, 0
2, 105540, Note_on_c, 8, 40, 0
2, 105540, Note_on_c, 8, 40, 85
2, 105540, Note_on_c, 8, 52, 85
2, 105600, Note_on_c, 8, 52, 0
2, 105600, Note_on_c, 8, 40, 0
2, 105600, Note_on_c, 8, 40, 85
2, 105600, Note_on_c, 8, 52, 85
2, 105720, Note_on_c, 8, 52, 0
2, 105720, Note_on_c, 8, 40, 0
2, 105720, Note_on_c, 8, 40, 85
2, 105720, Note_on_c, 8, 52, 85
2, 105780, Note_on_c, 8, 52, 0
2, 105780, Note_on_c, 8, 40, 0
2, 105780, Note_on_c, 8, 40, 85
2, 105780, Note_on_c, 8, 52, 85
2, 105840, Note_on_c, 8, 52, 0
2, 105840, Note_on_c, 8, 40, 0
2, 105840, Note_on_c, 8, 40, 85
2, 105840, Note_on_c, 8, 52, 85
2, 105900, Note_on_c, 8, 52, 0
2, 105900, Note_on_c, 8, 40, 0
2, 105900, Note_on_c, 8, 40, 85
2, 105900, Note_on_c, 8, 52, 85
2, 105960, Note_on_c, 8, 52, 0
2, 105960, Note_on_c, 8, 40, 0
2, 105960, Note_on_c, 8, 40, 85
2, 105960, Note_on_c, 8, 52, 85
2, 106020, Note_on_c, 8, 52, 0
2, 106020, Note_on_c, 8, 40, 0
2, 106020, Note_on_c, 8, 40, 85
2, 106020, Note_on_c, 8, 52, 85
2, 106080, Note_on_c, 8, 52, 0
2, 106080, Note_on_c, 8, 40, 0
2, 106080, Note_on_c, 8, 45, 85
2, 106080, Note_on_c, 8, 47, 85
2, 106080, Note_on_c, 8, 52, 85
2, 106080, Note_on_c, 8, 57, 85
2, 106200, Note_on_c, 8, 57, 0
2, 106200, Note_on_c, 8, 45, 0
2, 106200, Note_on_c, 8, 47, 0
2, 106200, Note_on_c, 8, 52, 0
2, 106200, Note_on_c, 8, 45, 85
2, 106200, Note_on_c, 8, 47, 85
2, 106200, Note_on_c, 8, 52, 85
2, 106200, Note_on_c, 8, 57, 85
2, 106260, Note_on_c, 8, 57, 0
2, 106260, Note_on_c, 8, 45, 0
2, 106260, Note_on_c, 8, 47, 0
2, 106260, Note_on_c, 8, 52, 0
2, 106260, Note_on_c, 8, 45, 85
2, 106260, Note_on_c, 8, 47, 85
2, 106260, Note_on_c, 8, 52, 85
2, 106260, Note_on_c, 8, 57, 85
2, 106380, Note_on_c, 8, 57, 0
2, 106380, Note_on_c, 8, 45, 0
2, 106380, Note_on_c, 8, 47, 0
2, 106380, Note_on_c, 8, 52, 0
2, 106380, Note_on_c, 8, 45, 85
2, 106380, Note_on_c, 8, 47, 85
2, 106380, Note_on_c, 8, 52, 85
2, 106380, Note_on_c, 8, 57, 85
2, 106440, Note_on_c, 8, 57, 0
2, 106440, Note_on_c, 8, 45, 0
2, 106440, Note_on_c, 8, 47, 0
2, 106440, Note_on_c, 8, 52, 0
2, 106440, Note_on_c, 8, 46, 85
2, 106440, Note_on_c, 8, 58, 85
2, 106500, Note_on_c, 8, 58, 0
2, 106500, Note_on_c, 8, 46, 0
2, 106500, Note_on_c, 8, 46, 85
2, 106500, Note_on_c, 8, 58, 85
2, 106560, Note_on_c, 8, 58, 0
2, 106560, Note_on_c, 8, 46, 0
2, 106560, Note_on_c, 8, 45, 85
2, 106560, Note_on_c, 8, 57, 85
2, 106680, Note_on_c, 8, 57, 0
2, 106680, Note_on_c, 8, 45, 0
2, 106680, Note_on_c, 8, 43, 85
2, 106680, Note_on_c, 8, 55, 85
2, 106740, Note_on_c, 8, 55, 0
2, 106740, Note_on_c, 8, 43, 0
2, 106740, Note_on_c, 8, 43, 85
2, 106740, Note_on_c, 8, 55, 85
2, 106800, Note_on_c, 8, 55, 0
2, 106800, Note_on_c, 8, 43, 0
2, 106800, Note_on_c, 8, 43, 85
2, 106800, Note_on_c, 8, 55, 85
2, 106920, Note_on_c, 8, 55, 0
2, 106920, Note_on_c, 8, 43, 0
2, 106920, Note_on_c, 8, 40, 85
2, 106920, Note_on_c, 8, 52, 85
2, 106980, Note_on_c, 8, 52, 0
2, 106980, Note_on_c, 8, 40, 0
2, 106980, Note_on_c, 8, 40, 85
2, 106980, Note_on_c, 8, 52, 85
2, 107040, Note_on_c, 8, 52, 0
2, 107040, Note_on_c, 8, 40, 0
2, 107040, Note_on_c, 8, 40, 85
2, 107040, Note_on_c, 8, 52, 85
2, 107160, Note_on_c, 8, 52, 0
2, 107160, Note_on_c, 8, 40, 0
2, 107160, Note_on_c, 8, 40, 85
2, 107160, Note_on_c, 8, 52, 85
2, 107220, Note_on_c, 8, 52, 0
2, 107220, Note_on_c, 8, 40, 0
2, 107220, Note_on_c, 8, 40, 85
2, 107220, Note_on_c, 8, 52, 85
2, 107340, Note_on_c, 8, 52, 0
2, 107340, Note_on_c, 8, 40, 0
2, 107340, Note_on_c, 8, 40, 85
2, 107340, Note_on_c, 8, 52, 85
2, 107460, Note_on_c, 8, 52, 0
2, 107460, Note_on_c, 8, 40, 0
2, 107460, Note_on_c, 8, 40, 85
2, 107460, Note_on_c, 8, 52, 85
2, 107520, Note_on_c, 8, 52, 0
2, 107520, Note_on_c, 8, 40, 0
2, 107520, Note_on_c, 8, 40, 85
2, 107520, Note_on_c, 8, 52, 85
2, 107640, Note_on_c, 8, 52, 0
2, 107640, Note_on_c, 8, 40, 0
2, 107640, Note_on_c, 8, 40, 85
2, 107640, Note_on_c, 8, 52, 85
2, 107700, Note_on_c, 8, 52, 0
2, 107700, Note_on_c, 8, 40, 0
2, 107700, Note_on_c, 8, 40, 85
2, 107700, Note_on_c, 8, 52, 85
2, 107760, Note_on_c, 8, 52, 0
2, 107760, Note_on_c, 8, 40, 0
2, 107760, Note_on_c, 8, 40, 85
2, 107760, Note_on_c, 8, 52, 85
2, 107820, Note_on_c, 8, 52, 0
2, 107820, Note_on_c, 8, 40, 0
2, 107820, Note_on_c, 8, 40, 85
2, 107820, Note_on_c, 8, 52, 85
2, 107880, Note_on_c, 8, 52, 0
2, 107880, Note_on_c, 8, 40, 0
2, 107880, Note_on_c, 8, 40, 85
2, 107880, Note_on_c, 8, 52, 85
2, 107940, Note_on_c, 8, 52, 0
2, 107940, Note_on_c, 8, 40, 0
2, 107940, Note_on_c, 8, 40, 85
2, 107940, Note_on_c, 8, 52, 85
2, 108000, Note_on_c, 8, 52, 0
2, 108000, Note_on_c, 8, 40, 0
2, 108000, Note_on_c, 8, 45, 85
2, 108000, Note_on_c, 8, 47, 85
2, 108000, Note_on_c, 8, 52, 85
2, 108000, Note_on_c, 8, 57, 85
2, 108120, Note_on_c, 8, 57, 0
2, 108120, Note_on_c, 8, 45, 0
2, 108120, Note_on_c, 8, 47, 0
2, 108120, Note_on_c, 8, 52, 0
2, 108120, Note_on_c, 8, 45, 85
2, 108120, Note_on_c, 8, 47, 85
2, 108120, Note_on_c, 8, 52, 85
2, 108120, Note_on_c, 8, 57, 85
2, 108180, Note_on_c, 8, 57, 0
2, 108180, Note_on_c, 8, 45, 0
2, 108180, Note_on_c, 8, 47, 0
2, 108180, Note_on_c, 8, 52, 0
2, 108180, Note_on_c, 8, 45, 85
2, 108180, Note_on_c, 8, 47, 85
2, 108180, Note_on_c, 8, 52, 85
2, 108180, Note_on_c, 8, 57, 85
2, 108300, Note_on_c, 8, 57, 0
2, 108300, Note_on_c, 8, 45, 0
2, 108300, Note_on_c, 8, 47, 0
2, 108300, Note_on_c, 8, 52, 0
2, 108300, Note_on_c, 8, 45, 85
2, 108300, Note_on_c, 8, 47, 85
2, 108300, Note_on_c, 8, 52, 85
2, 108300, Note_on_c, 8, 57, 85
2, 108360, Note_on_c, 8, 57, 0
2, 108360, Note_on_c, 8, 45, 0
2, 108360, Note_on_c, 8, 47, 0
2, 108360, Note_on_c, 8, 52, 0
2, 108360, Note_on_c, 8, 46, 85
2, 108360, Note_on_c, 8, 58, 85
2, 108420, Note_on_c, 8, 58, 0
2, 108420, Note_on_c, 8, 46, 0
2, 108420, Note_on_c, 8, 46, 85
2, 108420, Note_on_c, 8, 58, 85
2, 108480, Note_on_c, 8, 58, 0
2, 108480, Note_on_c, 8, 46, 0
2, 108480, Note_on_c, 8, 45, 85
2, 108480, Note_on_c, 8, 57, 85
2, 108600, Note_on_c, 8, 57, 0
2, 108600, Note_on_c, 8, 45, 0
2, 108600, Note_on_c, 8, 43, 85
2, 108600, Note_on_c, 8, 55, 85
2, 108660, Note_on_c, 8, 55, 0
2, 108660, Note_on_c, 8, 43, 0
2, 108660, Note_on_c, 8, 43, 85
2, 108660, Note_on_c, 8, 55, 85
2, 108720, Note_on_c, 8, 55, 0
2, 108720, Note_on_c, 8, 43, 0
2, 108720, Note_on_c, 8, 43, 85
2, 108720, Note_on_c, 8, 55, 85
2, 108840, Note_on_c, 8, 55, 0
2, 108840, Note_on_c, 8, 43, 0
2, 108840, Note_on_c, 8, 40, 85
2, 108840, Note_on_c, 8, 52, 85
2, 108900, Note_on_c, 8, 52, 0
2, 108900, Note_on_c, 8, 40, 0
2, 108900, Note_on_c, 8, 40, 85
2, 108900, Note_on_c, 8, 52, 85
2, 108960, Note_on_c, 8, 52, 0
2, 108960, Note_on_c, 8, 40, 0
2, 108960, Note_on_c, 8, 40, 85
2, 108960, Note_on_c, 8, 52, 85
2, 109080, Note_on_c, 8, 52, 0
2, 109080, Note_on_c, 8, 40, 0
2, 109080, Note_on_c, 8, 40, 85
2, 109080, Note_on_c, 8, 52, 85
2, 109140, Note_on_c, 8, 52, 0
2, 109140, Note_on_c, 8, 40, 0
2, 109140, Note_on_c, 8, 40, 85
2, 109140, Note_on_c, 8, 52, 85
2, 109260, Note_on_c, 8, 52, 0
2, 109260, Note_on_c, 8, 40, 0
2, 109260, Note_on_c, 8, 40, 85
2, 109260, Note_on_c, 8, 52, 85
2, 109380, Note_on_c, 8, 52, 0
2, 109380, Note_on_c, 8, 40, 0
2, 109380, Note_on_c, 8, 40, 85
2, 109380, Note_on_c, 8, 52, 85
2, 109440, Note_on_c, 8, 52, 0
2, 109440, Note_on_c, 8, 40, 0
2, 109440, Note_on_c, 8, 40, 85
2, 109440, Note_on_c, 8, 52, 85
2, 109560, Note_on_c, 8, 52, 0
2, 109560, Note_on_c, 8, 40, 0
2, 109560, Note_on_c, 8, 40, 85
2, 109560, Note_on_c, 8, 52, 85
2, 109620, Note_on_c, 8, 52, 0
2, 109620, Note_on_c, 8, 40, 0
2, 109620, Note_on_c, 8, 40, 85
2, 109620, Note_on_c, 8, 52, 85
2, 109680, Note_on_c, 8, 52, 0
2, 109680, Note_on_c, 8, 40, 0
2, 109680, Note_on_c, 8, 40, 85
2, 109680, Note_on_c, 8, 52, 85
2, 109740, Note_on_c, 8, 52, 0
2, 109740, Note_on_c, 8, 40, 0
2, 109740, Note_on_c, 8, 40, 85
2, 109740, Note_on_c, 8, 52, 85
2, 109800, Note_on_c, 8, 52, 0
2, 109800, Note_on_c, 8, 40, 0
2, 109800, Note_on_c, 8, 40, 85
2, 109800, Note_on_c, 8, 52, 85
2, 109860, Note_on_c, 8, 52, 0
2, 109860, Note_on_c, 8, 40, 0
2, 109860, Note_on_c, 8, 40, 85
2, 109860, Note_on_c, 8, 52, 85
2, 109920, Note_on_c, 8, 52, 0
2, 109920, Note_on_c, 8, 40, 0
2, 109920, Note_on_c, 8, 45, 85
2, 109920, Note_on_c, 8, 47, 85
2, 109920, Note_on_c, 8, 52, 85
2, 109920, Note_on_c, 8, 57, 85
2, 110040, Note_on_c, 8, 57, 0
2, 110040, Note_on_c, 8, 45, 0
2, 110040, Note_on_c, 8, 47, 0
2, 110040, Note_on_c, 8, 52, 0
2, 110040, Note_on_c, 8, 45, 85
2, 110040, Note_on_c, 8, 47, 85
2, 110040, Note_on_c, 8, 52, 85
2, 110040, Note_on_c, 8, 57, 85
2, 110100, Note_on_c, 8, 57, 0
2, 110100, Note_on_c, 8, 45, 0
2, 110100, Note_on_c, 8, 47, 0
2, 110100, Note_on_c, 8, 52, 0
2, 110100, Note_on_c, 8, 45, 85
2, 110100, Note_on_c, 8, 47, 85
2, 110100, Note_on_c, 8, 52, 85
2, 110100, Note_on_c, 8, 57, 85
2, 110220, Note_on_c, 8, 57, 0
2, 110220, Note_on_c, 8, 45, 0
2, 110220, Note_on_c, 8, 47, 0
2, 110220, Note_on_c, 8, 52, 0
2, 110220, Note_on_c, 8, 45, 85
2, 110220, Note_on_c, 8, 47, 85
2, 110220, Note_on_c, 8, 52, 85
2, 110220, Note_on_c, 8, 57, 85
2, 110280, Note_on_c, 8, 57, 0
2, 110280, Note_on_c, 8, 45, 0
2, 110280, Note_on_c, 8, 47, 0
2, 110280, Note_on_c, 8, 52, 0
2, 110280, Note_on_c, 8, 46, 85
2, 110280, Note_on_c, 8, 58, 85
2, 110340, Note_on_c, 8, 58, 0
2, 110340, Note_on_c, 8, 46, 0
2, 110340, Note_on_c, 8, 46, 85
2, 110340, Note_on_c, 8, 58, 85
2, 110400, Note_on_c, 8, 58, 0
2, 110400, Note_on_c, 8, 46, 0
2, 110400, Note_on_c, 8, 45, 85
2, 110400, Note_on_c, 8, 57, 85
2, 110520, Note_on_c, 8, 57, 0
2, 110520, Note_on_c, 8, 45, 0
2, 110520, Note_on_c, 8, 43, 85
2, 110520, Note_on_c, 8, 55, 85
2, 110580, Note_on_c, 8, 55, 0
2, 110580, Note_on_c, 8, 43, 0
2, 110580, Note_on_c, 8, 43, 85
2, 110580, Note_on_c, 8, 55, 85
2, 110640, Note_on_c, 8, 55, 0
2, 110640, Note_on_c, 8, 43, 0
2, 110640, Note_on_c, 8, 43, 85
2, 110640, Note_on_c, 8, 55, 85
2, 110760, Note_on_c, 8, 55, 0
2, 110760, Note_on_c, 8, 43, 0
2, 110760, Note_on_c, 8, 40, 85
2, 110760, Note_on_c, 8, 52, 85
2, 110820, Note_on_c, 8, 52, 0
2, 110820, Note_on_c, 8, 40, 0
2, 110820, Note_on_c, 8, 40, 85
2, 110820, Note_on_c, 8, 52, 85
2, 110880, Note_on_c, 8, 52, 0
2, 110880, Note_on_c, 8, 40, 0
2, 110880, Note_on_c, 8, 40, 85
2, 110880, Note_on_c, 8, 52, 85
2, 111000, Note_on_c, 8, 52, 0
2, 111000, Note_on_c, 8, 40, 0
2, 111000, Note_on_c, 8, 40, 85
2, 111000, Note_on_c, 8, 52, 85
2, 111060, Note_on_c, 8, 52, 0
2, 111060, Note_on_c, 8, 40, 0
2, 111060, Note_on_c, 8, 40, 85
2, 111060, Note_on_c, 8, 52, 85
2, 111180, Note_on_c, 8, 52, 0
2, 111180, Note_on_c, 8, 40, 0
2, 111180, Note_on_c, 8, 40, 85
2, 111180, Note_on_c, 8, 52, 85
2, 111300, Note_on_c, 8, 52, 0
2, 111300, Note_on_c, 8, 40, 0
2, 111300, Note_on_c, 8, 40, 85
2, 111300, Note_on_c, 8, 52, 85
2, 111360, Note_on_c, 8, 52, 0
2, 111360, Note_on_c, 8, 40, 0
2, 111360, Note_on_c, 8, 40, 85
2, 111360, Note_on_c, 8, 52, 85
2, 111480, Note_on_c, 8, 52, 0
2, 111480, Note_on_c, 8, 40, 0
2, 111480, Note_on_c, 8, 40, 85
2, 111480, Note_on_c, 8, 52, 85
2, 111540, Note_on_c, 8, 52, 0
2, 111540, Note_on_c, 8, 40, 0
2, 111540, Note_on_c, 8, 40, 85
2, 111540, Note_on_c, 8, 52, 85
2, 111600, Note_on_c, 8, 52, 0
2, 111600, Note_on_c, 8, 40, 0
2, 111600, Note_on_c, 8, 40, 85
2, 111600, Note_on_c, 8, 52, 85
2, 111660, Note_on_c, 8, 52, 0
2, 111660, Note_on_c, 8, 40, 0
2, 111660, Note_on_c, 8, 40, 85
2, 111660, Note_on_c, 8, 52, 85
2, 111720, Note_on_c, 8, 52, 0
2, 111720, Note_on_c, 8, 40, 0
2, 111720, Note_on_c, 8, 40, 85
2, 111720, Note_on_c, 8, 52, 85
2, 111780, Note_on_c, 8, 52, 0
2, 111780, Note_on_c, 8, 40, 0
2, 111780, Note_on_c, 8, 40, 85
2, 111780, Note_on_c, 8, 52, 85
2, 111840, Note_on_c, 8, 52, 0
2, 111840, Note_on_c, 8, 40, 0
2, 111840, Note_on_c, 8, 45, 85
2, 111840, Note_on_c, 8, 47, 85
2, 111840, Note_on_c, 8, 52, 85
2, 111840, Note_on_c, 8, 57, 85
2, 111960, Note_on_c, 8, 57, 0
2, 111960, Note_on_c, 8, 45, 0
2, 111960, Note_on_c, 8, 47, 0
2, 111960, Note_on_c, 8, 52, 0
2, 111960, Note_on_c, 8, 45, 85
2, 111960, Note_on_c, 8, 47, 85
2, 111960, Note_on_c, 8, 52, 85
2, 111960, Note_on_c, 8, 57, 85
2, 112020, Note_on_c, 8, 57, 0
2, 112020, Note_on_c, 8, 45, 0
2, 112020, Note_on_c, 8, 47, 0
2, 112020, Note_on_c, 8, 52, 0
2, 112020, Note_on_c, 8, 45, 85
2, 112020, Note_on_c, 8, 47, 85
2, 112020, Note_on_c, 8, 52, 85
2, 112020, Note_on_c, 8, 57, 85
2, 112140, Note_on_c, 8, 57, 0
2, 112140, Note_on_c, 8, 45, 0
2, 112140, Note_on_c, 8, 47, 0
2, 112140, Note_on_c, 8, 52, 0
2, 112140, Note_on_c, 8, 45, 85
2, 112140, Note_on_c, 8, 47, 85
2, 112140, Note_on_c, 8, 52, 85
2, 112140, Note_on_c, 8, 57, 85
2, 112200, Note_on_c, 8, 57, 0
2, 112200, Note_on_c, 8, 45, 0
2, 112200, Note_on_c, 8, 47, 0
2, 112200, Note_on_c, 8, 52, 0
2, 112200, Note_on_c, 8, 46, 85
2, 112200, Note_on_c, 8, 58, 85
2, 112260, Note_on_c, 8, 58, 0
2, 112260, Note_on_c, 8, 46, 0
2, 112260, Note_on_c, 8, 46, 85
2, 112260, Note_on_c, 8, 58, 85
2, 112320, Note_on_c, 8, 58, 0
2, 112320, Note_on_c, 8, 46, 0
2, 112320, Note_on_c, 8, 45, 85
2, 112320, Note_on_c, 8, 57, 85
2, 112440, Note_on_c, 8, 57, 0
2, 112440, Note_on_c, 8, 45, 0
2, 112440, Note_on_c, 8, 43, 85
2, 112440, Note_on_c, 8, 55, 85
2, 112500, Note_on_c, 8, 55, 0
2, 112500, Note_on_c, 8, 43, 0
2, 112500, Note_on_c, 8, 43, 85
2, 112500, Note_on_c, 8, 55, 85
2, 112560, Note_on_c, 8, 55, 0
2, 112560, Note_on_c, 8, 43, 0
2, 112560, Note_on_c, 8, 43, 85
2, 112560, Note_on_c, 8, 55, 85
2, 112680, Note_on_c, 8, 55, 0
2, 112680, Note_on_c, 8, 43, 0
2, 112680, Note_on_c, 8, 40, 85
2, 112680, Note_on_c, 8, 52, 85
2, 112740, Note_on_c, 8, 52, 0
2, 112740, Note_on_c, 8, 40, 0
2, 112740, Note_on_c, 8, 40, 85
2, 112740, Note_on_c, 8, 52, 85
2, 112800, Note_on_c, 8, 52, 0
2, 112800, Note_on_c, 8, 40, 0
2, 112800, Note_on_c, 8, 40, 85
2, 112800, Note_on_c, 8, 52, 85
2, 112920, Note_on_c, 8, 52, 0
2, 112920, Note_on_c, 8, 40, 0
2, 112920, Note_on_c, 8, 40, 85
2, 112920, Note_on_c, 8, 52, 85
2, 112980, Note_on_c, 8, 52, 0
2, 112980, Note_on_c, 8, 40, 0
2, 112980, Note_on_c, 8, 40, 85
2, 112980, Note_on_c, 8, 52, 85
2, 113100, Note_on_c, 8, 52, 0
2, 113100, Note_on_c, 8, 40, 0
2, 113100, Note_on_c, 8, 40, 85
2, 113100, Note_on_c, 8, 52, 85
2, 113220, Note_on_c, 8, 52, 0
2, 113220, Note_on_c, 8, 40, 0
2, 113220, Note_on_c, 8, 40, 85
2, 113220, Note_on_c, 8, 52, 85
2, 113280, Note_on_c, 8, 52, 0
2, 113280, Note_on_c, 8, 40, 0
2, 113280, Note_on_c, 8, 40, 85
2, 113280, Note_on_c, 8, 52, 85
2, 113400, Note_on_c, 8, 52, 0
2, 113400, Note_on_c, 8, 40, 0
2, 113400, Note_on_c, 8, 40, 85
2, 113400, Note_on_c, 8, 52, 85
2, 113460, Note_on_c, 8, 52, 0
2, 113460, Note_on_c, 8, 40, 0
2, 113460, Note_on_c, 8, 40, 85
2, 113460, Note_on_c, 8, 52, 85
2, 113520, Note_on_c, 8, 52, 0
2, 113520, Note_on_c, 8, 40, 0
2, 113520, Note_on_c, 8, 40, 85
2, 113520, Note_on_c, 8, 52, 85
2, 113580, Note_on_c, 8, 52, 0
2, 113580, Note_on_c, 8, 40, 0
2, 113580, Note_on_c, 8, 40, 85
2, 113580, Note_on_c, 8, 52, 85
2, 113640, Note_on_c, 8, 52, 0
2, 113640, Note_on_c, 8, 40, 0
2, 113640, Note_on_c, 8, 40, 85
2, 113640, Note_on_c, 8, 52, 85
2, 113700, Note_on_c, 8, 52, 0
2, 113700, Note_on_c, 8, 40, 0
2, 113700, Note_on_c, 8, 40, 85
2, 113700, Note_on_c, 8, 52, 85
2, 113760, Note_on_c, 8, 52, 0
2, 113760, Note_on_c, 8, 40, 0
2, 114960, Note_on_c, 8, 40, 120
2, 115080, Note_on_c, 8, 40, 0
2, 115080, Note_on_c, 8, 40, 120
2, 115260, Note_on_c, 8, 40, 0
2, 115260, Note_on_c, 8, 40, 120
2, 115320, Note_on_c, 8, 40, 0
2, 115320, Note_on_c, 8, 40, 120
2, 115440, Note_on_c, 8, 40, 0
2, 115440, Note_on_c, 8, 40, 120
2, 115560, Note_on_c, 8, 40, 0
2, 117840, Note_on_c, 8, 40, 120
2, 117960, Note_on_c, 8, 40, 0
2, 117960, Note_on_c, 8, 40, 120
2, 118140, Note_on_c, 8, 40, 0
2, 118140, Note_on_c, 8, 40, 120
2, 118200, Note_on_c, 8, 40, 0
2, 118200, Note_on_c, 8, 40, 120
2, 118320, Note_on_c, 8, 40, 0
2, 118320, Note_on_c, 8, 40, 120
2, 118440, Note_on_c, 8, 40, 0
2, 120720, Note_on_c, 8, 40, 120
2, 120840, Note_on_c, 8, 40, 0
2, 120840, Note_on_c, 8, 40, 120
2, 121020, Note_on_c, 8, 40, 0
2, 121020, Note_on_c, 8, 40, 120
2, 121080, Note_on_c, 8, 40, 0
2, 121080, Note_on_c, 8, 40, 120
2, 121200, Note_on_c, 8, 40, 0
2, 121200, Note_on_c, 8, 40, 120
2, 121320, Note_on_c, 8, 40, 0
2, 122640, Note_on_c, 8, 40, 120
2, 122880, Note_on_c, 8, 40, 0
2, 122880, Note_on_c, 8, 52, 120
2, 123000, Note_on_c, 8, 52, 0
2, 123000, Note_on_c, 8, 52, 120
2, 123120, Note_on_c, 8, 52, 0
2, 123120, Note_on_c, 8, 50, 120
2, 123360, Note_on_c, 8, 50, 0
2, 123360, Note_on_c, 8, 52, 120
2, 123480, Note_on_c, 8, 52, 0
2, 123480, Note_on_c, 8, 50, 120
2, 123600, Note_on_c, 8, 50, 0
2, 123600, Note_on_c, 8, 52, 120
2, 123720, Note_on_c, 8, 52, 0
2, 123720, Note_on_c, 8, 50, 120
2, 123840, Note_on_c, 8, 50, 0
2, 123840, Note_on_c, 8, 45, 120
2, 123960, Note_on_c, 8, 45, 0
2, 123960, Note_on_c, 8, 43, 120
2, 124080, Note_on_c, 8, 43, 0
2, 124080, Note_on_c, 8, 45, 120
2, 124200, Note_on_c, 8, 45, 0
2, 124200, Note_on_c, 8, 43, 120
2, 124320, Note_on_c, 8, 43, 0
2, 124320, Note_on_c, 8, 40, 120
2, 124560, Note_on_c, 8, 40, 0
2, 124560, Note_on_c, 8, 40, 120
2, 124800, Note_on_c, 8, 40, 0
2, 124800, Note_on_c, 8, 52, 120
2, 124920, Note_on_c, 8, 52, 0
2, 124920, Note_on_c, 8, 52, 120
2, 125040, Note_on_c, 8, 52, 0
2, 125040, Note_on_c, 8, 50, 120
2, 125280, Note_on_c, 8, 50, 0
2, 125280, Note_on_c, 8, 52, 120
2, 125400, Note_on_c, 8, 52, 0
2, 125400, Note_on_c, 8, 50, 120
2, 125520, Note_on_c, 8, 50, 0
2, 125520, Note_on_c, 8, 52, 120
2, 125640, Note_on_c, 8, 52, 0
2, 125640, Note_on_c, 8, 50, 120
2, 125760, Note_on_c, 8, 50, 0
2, 125760, Note_on_c, 8, 45, 120
2, 125880, Note_on_c, 8, 45, 0
2, 125880, Note_on_c, 8, 43, 120
2, 126000, Note_on_c, 8, 43, 0
2, 126000, Note_on_c, 8, 45, 120
2, 126120, Note_on_c, 8, 45, 0
2, 126120, Note_on_c, 8, 43, 120
2, 126240, Note_on_c, 8, 43, 0
2, 126240, Note_on_c, 8, 40, 120
2, 126480, Note_on_c, 8, 40, 0
2, 126480, Note_on_c, 8, 40, 120
2, 126720, Note_on_c, 8, 40, 0
2, 126720, Note_on_c, 8, 52, 120
2, 126840, Note_on_c, 8, 52, 0
2, 126840, Note_on_c, 8, 52, 120
2, 126960, Note_on_c, 8, 52, 0
2, 126960, Note_on_c, 8, 50, 120
2, 127200, Note_on_c, 8, 50, 0
2, 127200, Note_on_c, 8, 52, 120
2, 127320, Note_on_c, 8, 52, 0
2, 127320, Note_on_c, 8, 50, 120
2, 127440, Note_on_c, 8, 50, 0
2, 127440, Note_on_c, 8, 52, 120
2, 127560, Note_on_c, 8, 52, 0
2, 127560, Note_on_c, 8, 50, 120
2, 127680, Note_on_c, 8, 50, 0
2, 127680, Note_on_c, 8, 45, 120
2, 127800, Note_on_c, 8, 45, 0
2, 127800, Note_on_c, 8, 43, 120
2, 127920, Note_on_c, 8, 43, 0
2, 127920, Note_on_c, 8, 45, 120
2, 128040, Note_on_c, 8, 45, 0
2, 128040, Note_on_c, 8, 43, 120
2, 128160, Note_on_c, 8, 43, 0
2, 128160, Note_on_c, 8, 40, 120
2, 128400, Note_on_c, 8, 40, 0
2, 128400, Note_on_c, 8, 40, 120
2, 128640, Note_on_c, 8, 40, 0
2, 128640, Note_on_c, 8, 52, 120
2, 128760, Note_on_c, 8, 52, 0
2, 128760, Note_on_c, 8, 52, 120
2, 128880, Note_on_c, 8, 52, 0
2, 128880, Note_on_c, 8, 50, 120
2, 129120, Note_on_c, 8, 50, 0
2, 129120, Note_on_c, 8, 52, 120
2, 129240, Note_on_c, 8, 52, 0
2, 129240, Note_on_c, 8, 50, 120
2, 129360, Note_on_c, 8, 50, 0
2, 129360, Note_on_c, 8, 52, 120
2, 129480, Note_on_c, 8, 52, 0
2, 129480, Note_on_c, 8, 50, 120
2, 129600, Note_on_c, 8, 50, 0
2, 129600, Note_on_c, 8, 45, 120
2, 129720, Note_on_c, 8, 45, 0
2, 129720, Note_on_c, 8, 43, 120
2, 129840, Note_on_c, 8, 43, 0
2, 129840, Note_on_c, 8, 45, 120
2, 129960, Note_on_c, 8, 45, 0
2, 129960, Note_on_c, 8, 43, 120
2, 130080, Note_on_c, 8, 43, 0
2, 130080, Note_on_c, 8, 40, 120
2, 130320, Note_on_c, 8, 40, 0
2, 130320, Note_on_c, 8, 40, 120
2, 130560, Note_on_c, 8, 40, 0
2, 130560, Note_on_c, 8, 52, 120
2, 130680, Note_on_c, 8, 52, 0
2, 130680, Note_on_c, 8, 52, 120
2, 130800, Note_on_c, 8, 52, 0
2, 130800, Note_on_c, 8, 50, 120
2, 131040, Note_on_c, 8, 50, 0
2, 131040, Note_on_c, 8, 52, 120
2, 131160, Note_on_c, 8, 52, 0
2, 131160, Note_on_c, 8, 50, 120
2, 131280, Note_on_c, 8, 50, 0
2, 131280, Note_on_c, 8, 52, 120
2, 131400, Note_on_c, 8, 52, 0
2, 131400, Note_on_c, 8, 50, 120
2, 131520, Note_on_c, 8, 50, 0
2, 131520, Note_on_c, 8, 45, 120
2, 131640, Note_on_c, 8, 45, 0
2, 131640, Note_on_c, 8, 43, 120
2, 131760, Note_on_c, 8, 43, 0
2, 131760, Note_on_c, 8, 45, 120
2, 131880, Note_on_c, 8, 45, 0
2, 131880, Note_on_c, 8, 43, 120
2, 132000, Note_on_c, 8, 43, 0
2, 132000, Note_on_c, 8, 40, 120
2, 132240, Note_on_c, 8, 40, 0
2, 132240, Note_on_c, 8, 40, 120
2, 132480, Note_on_c, 8, 40, 0
2, 132480, Note_on_c, 8, 52, 120
2, 132600, Note_on_c, 8, 52, 0
2, 132600, Note_on_c, 8, 52, 120
2, 132720, Note_on_c, 8, 52, 0
2, 132720, Note_on_c, 8, 50, 120
2, 132960, Note_on_c, 8, 50, 0
2, 132960, Note_on_c, 8, 52, 120
2, 133080, Note_on_c, 8, 52, 0
2, 133080, Note_on_c, 8, 50, 120
2, 133200, Note_on_c, 8, 50, 0
2, 133200, Note_on_c, 8, 52, 120
2, 133320, Note_on_c, 8, 52, 0
2, 133320, Note_on_c, 8, 50, 120
2, 133440, Note_on_c, 8, 50, 0
2, 133440, Note_on_c, 8, 45, 120
2, 133560, Note_on_c, 8, 45, 0
2, 133560, Note_on_c, 8, 43, 120
2, 133680, Note_on_c, 8, 43, 0
2, 133680, Note_on_c, 8, 45, 120
2, 133800, Note_on_c, 8, 45, 0
2, 133800, Note_on_c, 8, 43, 120
2, 133920, Note_on_c, 8, 43, 0
2, 133920, Note_on_c, 8, 40, 120
2, 134160, Note_on_c, 8, 40, 0
2, 134160, Note_on_c, 8, 28, 120
2, 134280, Note_on_c, 8, 28, 0
2, 134280, Note_on_c, 8, 28, 120
2, 134400, Note_on_c, 8, 28, 0
2, 134400, Note_on_c, 8, 40, 95
2, 134400, Note_on_c, 8, 47, 95
2, 134400, Note_on_c, 8, 52, 95
2, 134400, Note_on_c, 8, 56, 95
2, 134520, Note_on_c, 8, 56, 0
2, 134520, Note_on_c, 8, 40, 0
2, 134520, Note_on_c, 8, 47, 0
2, 134520, Note_on_c, 8, 52, 0
2, 134520, Note_on_c, 8, 40, 95
2, 134520, Note_on_c, 8, 47, 95
2, 134520, Note_on_c, 8, 52, 95
2, 134520, Note_on_c, 8, 56, 95
2, 134640, Note_on_c, 8, 56, 0
2, 134640, Note_on_c, 8, 40, 0
2, 134640, Note_on_c, 8, 47, 0
2, 134640, Note_on_c, 8, 52, 0
2, 134640, Note_on_c, 8, 38, 95
2, 134640, Note_on_c, 8, 45, 95
2, 134640, Note_on_c, 8, 50, 95
2, 134640, Note_on_c, 8, 54, 95
2, 134880, Note_on_c, 8, 54, 0
2, 134880, Note_on_c, 8, 38, 0
2, 134880, Note_on_c, 8, 45, 0
2, 134880, Note_on_c, 8, 50, 0
2, 134880, Note_on_c, 8, 40, 95
2, 134880, Note_on_c, 8, 47, 95
2, 134880, Note_on_c, 8, 52, 95
2, 134880, Note_on_c, 8, 56, 95
2, 135120, Note_on_c, 8, 56, 0
2, 135120, Note_on_c, 8, 40, 0
2, 135120, Note_on_c, 8, 47, 0
2, 135120, Note_on_c, 8, 52, 0
2, 135120, Note_on_c, 8, 28, 95
2, 135240, Note_on_c, 8, 28, 0
2, 135240, Note_on_c, 8, 50, 95
2, 135240, Note_on_c, 8, 55, 95
2, 135360, Note_on_c, 8, 55, 0
2, 135360, Note_on_c, 8, 50, 0
2, 135360, Note_on_c, 8, 52, 95
2, 135360, Note_on_c, 8, 57, 95
2, 135480, Note_on_c, 8, 57, 0
2, 135480, Note_on_c, 8, 52, 0
2, 135480, Note_on_c, 8, 50, 95
2, 135480, Note_on_c, 8, 55, 95
2, 135600, Note_on_c, 8, 55, 0
2, 135600, Note_on_c, 8, 50, 0
2, 135600, Note_on_c, 8, 52, 95
2, 135600, Note_on_c, 8, 57, 95
2, 135720, Note_on_c, 8, 57, 0
2, 135720, Note_on_c, 8, 52, 0
2, 135720, Note_on_c, 8, 50, 95
2, 135720, Note_on_c, 8, 55, 95
2, 135840, Note_on_c, 8, 55, 0
2, 135840, Note_on_c, 8, 50, 0
2, 135840, Note_on_c, 8, 52, 95
2, 135960, Note_on_c, 8, 52, 0
2, 135960, Note_on_c, 8, 50, 95
2, 136080, Note_on_c, 8, 50, 0
2, 136080, Note_on_c, 8, 52, 95
2, 136200, Note_on_c, 8, 52, 0
2, 136200, Note_on_c, 8, 52, 95
2, 136320, Note_on_c, 8, 52, 0
2, 136320, Note_on_c, 8, 50, 95
2, 136560, Note_on_c, 8, 50, 0
2, 136560, Note_on_c, 8, 52, 95
2, 136560, Note_on_c, 8, 40, 95
2, 136800, Note_on_c, 8, 40, 0
2, 136800, Note_on_c, 8, 52, 0
2, 136800, Note_on_c, 8, 52, 95
2, 136920, Note_on_c, 8, 52, 0
2, 136920, Note_on_c, 8, 50, 95
2, 137040, Note_on_c, 8, 50, 0
2, 137040, Note_on_c, 8, 52, 95
2, 137160, Note_on_c, 8, 52, 0
2, 137160, Note_on_c, 8, 50, 95
2, 137280, Note_on_c, 8, 50, 0
2, 137280, Note_on_c, 8, 45, 95
2, 137400, Note_on_c, 8, 45, 0
2, 137400, Note_on_c, 8, 43, 95
2, 137520, Note_on_c, 8, 43, 0
2, 137520, Note_on_c, 8, 45, 95
2, 137640, Note_on_c, 8, 45, 0
2, 137640, Note_on_c, 8, 43, 95
2, 137760, Note_on_c, 8, 43, 0
2, 137760, Note_on_c, 8, 40, 95
2, 137880, Note_on_c, 8, 40, 0
2, 137880, Note_on_c, 8, 40, 95
2, 138000, Note_on_c, 8, 40, 0
2, 138000, Note_on_c, 8, 52, 95
2, 138120, Note_on_c, 8, 52, 0
2, 138120, Note_on_c, 8, 52, 95
2, 138240, Note_on_c, 8, 52, 0
2, 138240, Note_on_c, 8, 50, 95
2, 138480, Note_on_c, 8, 50, 0
2, 138480, Note_on_c, 8, 52, 95
2, 138480, Note_on_c, 8, 40, 95
2, 138720, Note_on_c, 8, 40, 0
2, 138720, Note_on_c, 8, 52, 0
2, 138720, Note_on_c, 8, 52, 95
2, 138840, Note_on_c, 8, 52, 0
2, 138840, Note_on_c, 8, 50, 95
2, 138960, Note_on_c, 8, 50, 0
2, 138960, Note_on_c, 8, 52, 95
2, 139080, Note_on_c, 8, 52, 0
2, 139080, Note_on_c, 8, 50, 95
2, 139200, Note_on_c, 8, 50, 0
2, 139200, Note_on_c, 8, 45, 95
2, 139320, Note_on_c, 8, 45, 0
2, 139320, Note_on_c, 8, 43, 95
2, 139440, Note_on_c, 8, 43, 0
2, 139440, Note_on_c, 8, 45, 95
2, 139560, Note_on_c, 8, 45, 0
2, 139560, Note_on_c, 8, 43, 95
2, 139680, Note_on_c, 8, 43, 0
2, 139680, Note_on_c, 8, 40, 95
2, 139800, Note_on_c, 8, 40, 0
2, 139800, Note_on_c, 8, 40, 95
2, 139920, Note_on_c, 8, 40, 0
2, 139920, Note_on_c, 8, 52, 95
2, 140040, Note_on_c, 8, 52, 0
2, 140040, Note_on_c, 8, 52, 95
2, 140160, Note_on_c, 8, 52, 0
2, 140160, Note_on_c, 8, 50, 95
2, 140400, Note_on_c, 8, 50, 0
2, 140400, Note_on_c, 8, 52, 95
2, 140400, Note_on_c, 8, 40, 95
2, 140640, Note_on_c, 8, 40, 0
2, 140640, Note_on_c, 8, 52, 0
2, 140640, Note_on_c, 8, 52, 95
2, 140760, Note_on_c, 8, 52, 0
2, 140760, Note_on_c, 8, 50, 95
2, 140880, Note_on_c, 8, 50, 0
2, 140880, Note_on_c, 8, 52, 95
2, 141000, Note_on_c, 8, 52, 0
2, 141000, Note_on_c, 8, 50, 95
2, 141120, Note_on_c, 8, 50, 0
2, 141120, Note_on_c, 8, 45, 95
2, 141240, Note_on_c, 8, 45, 0
2, 141240, Note_on_c, 8, 43, 95
2, 141360, Note_on_c, 8, 43, 0
2, 141360, Note_on_c, 8, 45, 95
2, 141480, Note_on_c, 8, 45, 0
2, 141480, Note_on_c, 8, 43, 95
2, 141600, Note_on_c, 8, 43, 0
2, 141600, Note_on_c, 8, 40, 95
2, 141720, Note_on_c, 8, 40, 0
2, 141720, Note_on_c, 8, 40, 95
2, 141840, Note_on_c, 8, 40, 0
2, 141840, Note_on_c, 8, 52, 95
2, 141960, Note_on_c, 8, 52, 0
2, 141960, Note_on_c, 8, 52, 95
2, 142080, Note_on_c, 8, 52, 0
2, 142080, Note_on_c, 8, 50, 95
2, 142320, Note_on_c, 8, 50, 0
2, 142320, Note_on_c, 8, 52, 95
2, 142320, Note_on_c, 8, 40, 95
2, 142560, Note_on_c, 8, 40, 0
2, 142560, Note_on_c, 8, 52, 0
2, 142560, Note_on_c, 8, 52, 95
2, 142680, Note_on_c, 8, 52, 0
2, 142680, Note_on_c, 8, 50, 95
2, 142800, Note_on_c, 8, 50, 0
2, 142800, Note_on_c, 8, 52, 95
2, 142920, Note_on_c, 8, 52, 0
2, 142920, Note_on_c, 8, 50, 95
2, 143040, Note_on_c, 8, 50, 0
2, 143040, Note_on_c, 8, 45, 95
2, 143160, Note_on_c, 8, 45, 0
2, 143160, Note_on_c, 8, 43, 95
2, 143280, Note_on_c, 8, 43, 0
2, 143280, Note_on_c, 8, 45, 95
2, 143400, Note_on_c, 8, 45, 0
2, 143400, Note_on_c, 8, 43, 95
2, 143520, Note_on_c, 8, 43, 0
2, 143520, Note_on_c, 8, 40, 95
2, 143640, Note_on_c, 8, 40, 0
2, 143640, Note_on_c, 8, 40, 95
2, 143760, Note_on_c, 8, 40, 0
2, 143760, Note_on_c, 8, 45, 107
2, 143820, Note_on_c, 8, 45, 0
2, 143820, Note_on_c, 8, 45, 107
2, 143880, Note_on_c, 8, 45, 0
2, 143880, Note_on_c, 8, 45, 107
2, 143940, Note_on_c, 8, 45, 0
2, 143940, Note_on_c, 8, 45, 107
2, 144000, Note_on_c, 8, 45, 0
2, 144000, Note_on_c, 8, 45, 107
2, 144060, Note_on_c, 8, 45, 0
2, 144060, Note_on_c, 8, 45, 107
2, 144120, Note_on_c, 8, 45, 0
2, 144120, Note_on_c, 8, 46, 107
2, 144180, Note_on_c, 8, 46, 0
2, 144180, Note_on_c, 8, 46, 107
2, 144240, Note_on_c, 8, 46, 0
2, 144240, Note_on_c, 8, 45, 107
2, 144360, Note_on_c, 8, 45, 0
2, 144360, Note_on_c, 8, 40, 107
2, 144420, Note_on_c, 8, 40, 0
2, 144420, Note_on_c, 8, 40, 107
2, 144480, Note_on_c, 8, 40, 0
2, 144480, Note_on_c, 8, 43, 107
2, 144600, Note_on_c, 8, 43, 0
2, 144600, Note_on_c, 8, 40, 107
2, 144660, Note_on_c, 8, 40, 0
2, 144660, Note_on_c, 8, 40, 107
2, 144720, Note_on_c, 8, 40, 0
2, 144720, Note_on_c, 8, 41, 107
2, 144780, Note_on_c, 8, 41, 0
2, 144780, Note_on_c, 8, 40, 107
2, 144840, Note_on_c, 8, 40, 0
2, 144840, Note_on_c, 8, 40, 107
2, 144900, Note_on_c, 8, 40, 0
2, 144900, Note_on_c, 8, 41, 107
2, 144960, Note_on_c, 8, 41, 0
2, 144960, Note_on_c, 8, 40, 107
2, 145020, Note_on_c, 8, 40, 0
2, 145020, Note_on_c, 8, 40, 107
2, 145080, Note_on_c, 8, 40, 0
2, 145080, Note_on_c, 8, 40, 107
2, 145140, Note_on_c, 8, 40, 0
2, 145140, Note_on_c, 8, 40, 107
2, 145200, Note_on_c, 8, 40, 0
2, 145200, Note_on_c, 8, 41, 107
2, 145260, Note_on_c, 8, 41, 0
2, 145260, Note_on_c, 8, 40, 107
2, 145320, Note_on_c, 8, 40, 0
2, 145320, Note_on_c, 8, 40, 107
2, 145380, Note_on_c, 8, 40, 0
2, 145380, Note_on_c, 8, 41, 107
2, 145440, Note_on_c, 8, 41, 0
2, 145440, Note_on_c, 8, 40, 107
2, 145500, Note_on_c, 8, 40, 0
2, 145500, Note_on_c, 8, 40, 107
2, 145560, Note_on_c, 8, 40, 0
2, 145560, Note_on_c, 8, 40, 107
2, 145620, Note_on_c, 8, 40, 0
2, 145620, Note_on_c, 8, 40, 107
2, 145680, Note_on_c, 8, 40, 0
2, 145680, Note_on_c, 8, 45, 107
2, 145740, Note_on_c, 8, 45, 0
2, 145740, Note_on_c, 8, 45, 107
2, 145800, Note_on_c, 8, 45, 0
2, 145800, Note_on_c, 8, 45, 107
2, 145860, Note_on_c, 8, 45, 0
2, 145860, Note_on_c, 8, 45, 107
2, 145920, Note_on_c, 8, 45, 0
2, 145920, Note_on_c, 8, 45, 107
2, 145980, Note_on_c, 8, 45, 0
2, 145980, Note_on_c, 8, 45, 107
2, 146040, Note_on_c, 8, 45, 0
2, 146040, Note_on_c, 8, 46, 107
2, 146100, Note_on_c, 8, 46, 0
2, 146100, Note_on_c, 8, 46, 107
2, 146160, Note_on_c, 8, 46, 0
2, 146160, Note_on_c, 8, 45, 107
2, 146280, Note_on_c, 8, 45, 0
2, 146280, Note_on_c, 8, 40, 107
2, 146340, Note_on_c, 8, 40, 0
2, 146340, Note_on_c, 8, 40, 107
2, 146400, Note_on_c, 8, 40, 0
2, 146400, Note_on_c, 8, 43, 107
2, 146520, Note_on_c, 8, 43, 0
2, 146520, Note_on_c, 8, 40, 107
2, 146580, Note_on_c, 8, 40, 0
2, 146580, Note_on_c, 8, 40, 107
2, 146640, Note_on_c, 8, 40, 0
2, 146640, Note_on_c, 8, 41, 107
2, 146700, Note_on_c, 8, 41, 0
2, 146700, Note_on_c, 8, 40, 107
2, 146760, Note_on_c, 8, 40, 0
2, 146760, Note_on_c, 8, 40, 107
2, 146820, Note_on_c, 8, 40, 0
2, 146820, Note_on_c, 8, 40, 107
2, 146880, Note_on_c, 8, 40, 0
2, 146880, Note_on_c, 8, 40, 107
2, 146940, Note_on_c, 8, 40, 0
2, 146940, Note_on_c, 8, 40, 107
2, 147000, Note_on_c, 8, 40, 0
2, 147000, Note_on_c, 8, 41, 107
2, 147060, Note_on_c, 8, 41, 0
2, 147060, Note_on_c, 8, 40, 107
2, 147120, Note_on_c, 8, 40, 0
2, 147120, Note_on_c, 8, 41, 107
2, 147180, Note_on_c, 8, 41, 0
2, 147180, Note_on_c, 8, 40, 107
2, 147240, Note_on_c, 8, 40, 0
2, 147240, Note_on_c, 8, 40, 107
2, 147300, Note_on_c, 8, 40, 0
2, 147300, Note_on_c, 8, 40, 107
2, 147360, Note_on_c, 8, 40, 0
2, 147360, Note_on_c, 8, 41, 107
2, 147420, Note_on_c, 8, 41, 0
2, 147420, Note_on_c, 8, 40, 107
2, 147480, Note_on_c, 8, 40, 0
2, 147480, Note_on_c, 8, 40, 107
2, 147540, Note_on_c, 8, 40, 0
2, 147540, Note_on_c, 8, 40, 107
2, 147600, Note_on_c, 8, 40, 0
2, 147600, Note_on_c, 8, 45, 107
2, 147660, Note_on_c, 8, 45, 0
2, 147660, Note_on_c, 8, 45, 107
2, 147720, Note_on_c, 8, 45, 0
2, 147720, Note_on_c, 8, 45, 107
2, 147780, Note_on_c, 8, 45, 0
2, 147780, Note_on_c, 8, 45, 107
2, 147840, Note_on_c, 8, 45, 0
2, 147840, Note_on_c, 8, 45, 107
2, 147900, Note_on_c, 8, 45, 0
2, 147900, Note_on_c, 8, 45, 107
2, 147960, Note_on_c, 8, 45, 0
2, 147960, Note_on_c, 8, 46, 107
2, 148020, Note_on_c, 8, 46, 0
2, 148020, Note_on_c, 8, 46, 107
2, 148080, Note_on_c, 8, 46, 0
2, 148080, Note_on_c, 8, 45, 107
2, 148200, Note_on_c, 8, 45, 0
2, 148200, Note_on_c, 8, 40, 107
2, 148260, Note_on_c, 8, 40, 0
2, 148260, Note_on_c, 8, 40, 107
2, 148320, Note_on_c, 8, 40, 0
2, 148320, Note_on_c, 8, 43, 107
2, 148440, Note_on_c, 8, 43, 0
2, 148440, Note_on_c, 8, 40, 107
2, 148500, Note_on_c, 8, 40, 0
2, 148500, Note_on_c, 8, 40, 107
2, 148560, Note_on_c, 8, 40, 0
2, 148560, Note_on_c, 8, 41, 107
2, 148620, Note_on_c, 8, 41, 0
2, 148620, Note_on_c, 8, 40, 107
2, 148680, Note_on_c, 8, 40, 0
2, 148680, Note_on_c, 8, 40, 107
2, 148740, Note_on_c, 8, 40, 0
2, 148740, Note_on_c, 8, 40, 107
2, 148800, Note_on_c, 8, 40, 0
2, 148800, Note_on_c, 8, 40, 107
2, 148860, Note_on_c, 8, 40, 0
2, 148860, Note_on_c, 8, 40, 107
2, 148920, Note_on_c, 8, 40, 0
2, 148920, Note_on_c, 8, 41, 107
2, 148980, Note_on_c, 8, 41, 0
2, 148980, Note_on_c, 8, 40, 107
2, 149040, Note_on_c, 8, 40, 0
2, 149040, Note_on_c, 8, 41, 107
2, 149100, Note_on_c, 8, 41, 0
2, 149100, Note_on_c, 8, 40, 107
2, 149160, Note_on_c, 8, 40, 0
2, 149160, Note_on_c, 8, 40, 107
2, 149220, Note_on_c, 8, 40, 0
2, 149220, Note_on_c, 8, 40, 107
2, 149280, Note_on_c, 8, 40, 0
2, 149280, Note_on_c, 8, 41, 107
2, 149340, Note_on_c, 8, 41, 0
2, 149340, Note_on_c, 8, 40, 107
2, 149400, Note_on_c, 8, 40, 0
2, 149400, Note_on_c, 8, 40, 107
2, 149460, Note_on_c, 8, 40, 0
2, 149460, Note_on_c, 8, 40, 107
2, 149520, Note_on_c, 8, 40, 0
2, 149520, Note_on_c, 8, 45, 107
2, 149580, Note_on_c, 8, 45, 0
2, 149580, Note_on_c, 8, 45, 107
2, 149640, Note_on_c, 8, 45, 0
2, 149640, Note_on_c, 8, 45, 107
2, 149700, Note_on_c, 8, 45, 0
2, 149700, Note_on_c, 8, 45, 107
2, 149760, Note_on_c, 8, 45, 0
2, 149760, Note_on_c, 8, 45, 107
2, 149820, Note_on_c, 8, 45, 0
2, 149820, Note_on_c, 8, 45, 107
2, 149880, Note_on_c, 8, 45, 0
2, 149880, Note_on_c, 8, 46, 107
2, 149940, Note_on_c, 8, 46, 0
2, 149940, Note_on_c, 8, 46, 107
2, 150000, Note_on_c, 8, 46, 0
2, 150000, Note_on_c, 8, 45, 107
2, 150120, Note_on_c, 8, 45, 0
2, 150120, Note_on_c, 8, 40, 107
2, 150180, Note_on_c, 8, 40, 0
2, 150180, Note_on_c, 8, 40, 107
2, 150240, Note_on_c, 8, 40, 0
2, 150240, Note_on_c, 8, 43, 107
2, 150360, Note_on_c, 8, 43, 0
2, 150360, Note_on_c, 8, 40, 107
2, 150420, Note_on_c, 8, 40, 0
2, 150420, Note_on_c, 8, 40, 107
2, 150480, Note_on_c, 8, 40, 0
2, 150480, Note_on_c, 8, 41, 107
2, 150540, Note_on_c, 8, 41, 0
2, 150540, Note_on_c, 8, 40, 107
2, 150600, Note_on_c, 8, 40, 0
2, 150600, Note_on_c, 8, 40, 107
2, 150660, Note_on_c, 8, 40, 0
2, 150660, Note_on_c, 8, 40, 107
2, 150720, Note_on_c, 8, 40, 0
2, 150720, Note_on_c, 8, 40, 107
2, 150780, Note_on_c, 8, 40, 0
2, 150780, Note_on_c, 8, 40, 107
2, 150840, Note_on_c, 8, 40, 0
2, 150840, Note_on_c, 8, 41, 107
2, 150900, Note_on_c, 8, 41, 0
2, 150900, Note_on_c, 8, 40, 107
2, 150960, Note_on_c, 8, 40, 0
2, 150960, Note_on_c, 8, 41, 107
2, 151020, Note_on_c, 8, 41, 0
2, 151020, Note_on_c, 8, 40, 107
2, 151080, Note_on_c, 8, 40, 0
2, 151080, Note_on_c, 8, 40, 107
2, 151140, Note_on_c, 8, 40, 0
2, 151140, Note_on_c, 8, 40, 107
2, 151200, Note_on_c, 8, 40, 0
2, 151200, Note_on_c, 8, 41, 107
2, 151260, Note_on_c, 8, 41, 0
2, 151260, Note_on_c, 8, 40, 107
2, 151320, Note_on_c, 8, 40, 0
2, 151320, Note_on_c, 8, 40, 107
2, 151380, Note_on_c, 8, 40, 0
2, 151380, Note_on_c, 8, 40, 107
2, 151440, Note_on_c, 8, 40, 0
2, 151440, Note_on_c, 8, 52, 85
2, 151440, Note_on_c, 8, 47, 85
2, 151440, Note_on_c, 8, 45, 85
2, 151440, Note_on_c, 8, 57, 85
2, 151560, Note_on_c, 8, 57, 0
2, 151560, Note_on_c, 8, 52, 0
2, 151560, Note_on_c, 8, 47, 0
2, 151560, Note_on_c, 8, 45, 0
2, 151560, Note_on_c, 8, 52, 85
2, 151560, Note_on_c, 8, 47, 85
2, 151560, Note_on_c, 8, 45, 85
2, 151560, Note_on_c, 8, 57, 85
2, 151620, Note_on_c, 8, 57, 0
2, 151620, Note_on_c, 8, 52, 0
2, 151620, Note_on_c, 8, 47, 0
2, 151620, Note_on_c, 8, 45, 0
2, 151620, Note_on_c, 8, 57, 85
2, 151620, Note_on_c, 8, 52, 85
2, 151620, Note_on_c, 8, 47, 85
2, 151620, Note_on_c, 8, 45, 85
2, 151740, Note_on_c, 8, 45, 0
2, 151740, Note_on_c, 8, 57, 0
2, 151740, Note_on_c, 8, 52, 0
2, 151740, Note_on_c, 8, 47, 0
2, 151740, Note_on_c, 8, 45, 85
2, 151740, Note_on_c, 8, 47, 85
2, 151740, Note_on_c, 8, 52, 85
2, 151740, Note_on_c, 8, 57, 85
2, 151800, Note_on_c, 8, 57, 0
2, 151800, Note_on_c, 8, 45, 0
2, 151800, Note_on_c, 8, 47, 0
2, 151800, Note_on_c, 8, 52, 0
2, 151800, Note_on_c, 8, 46, 85
2, 151800, Note_on_c, 8, 58, 85
2, 151860, Note_on_c, 8, 58, 0
2, 151860, Note_on_c, 8, 46, 0
2, 151860, Note_on_c, 8, 46, 85
2, 151860, Note_on_c, 8, 58, 85
2, 151920, Note_on_c, 8, 58, 0
2, 151920, Note_on_c, 8, 46, 0
2, 151920, Note_on_c, 8, 45, 85
2, 151920, Note_on_c, 8, 57, 85
2, 152040, Note_on_c, 8, 57, 0
2, 152040, Note_on_c, 8, 45, 0
2, 152040, Note_on_c, 8, 43, 85
2, 152040, Note_on_c, 8, 55, 85
2, 152100, Note_on_c, 8, 55, 0
2, 152100, Note_on_c, 8, 43, 0
2, 152100, Note_on_c, 8, 43, 85
2, 152100, Note_on_c, 8, 55, 85
2, 152160, Note_on_c, 8, 55, 0
2, 152160, Note_on_c, 8, 43, 0
2, 152160, Note_on_c, 8, 43, 85
2, 152160, Note_on_c, 8, 55, 85
2, 152280, Note_on_c, 8, 55, 0
2, 152280, Note_on_c, 8, 43, 0
2, 152280, Note_on_c, 8, 40, 85
2, 152280, Note_on_c, 8, 52, 85
2, 152340, Note_on_c, 8, 52, 0
2, 152340, Note_on_c, 8, 40, 0
2, 152340, Note_on_c, 8, 40, 85
2, 152340, Note_on_c, 8, 52, 85
2, 152400, Note_on_c, 8, 52, 0
2, 152400, Note_on_c, 8, 40, 0
2, 152400, Note_on_c, 8, 40, 85
2, 152400, Note_on_c, 8, 52, 85
2, 152520, Note_on_c, 8, 52, 0
2, 152520, Note_on_c, 8, 40, 0
2, 152520, Note_on_c, 8, 40, 85
2, 152520, Note_on_c, 8, 52, 85
2, 152580, Note_on_c, 8, 52, 0
2, 152580, Note_on_c, 8, 40, 0
2, 152580, Note_on_c, 8, 40, 85
2, 152580, Note_on_c, 8, 52, 85
2, 152700, Note_on_c, 8, 52, 0
2, 152700, Note_on_c, 8, 40, 0
2, 152700, Note_on_c, 8, 40, 85
2, 152700, Note_on_c, 8, 52, 85
2, 152820, Note_on_c, 8, 52, 0
2, 152820, Note_on_c, 8, 40, 0
2, 152820, Note_on_c, 8, 40, 85
2, 152820, Note_on_c, 8, 52, 85
2, 152880, Note_on_c, 8, 52, 0
2, 152880, Note_on_c, 8, 40, 0
2, 152880, Note_on_c, 8, 40, 85
2, 152880, Note_on_c, 8, 52, 85
2, 153000, Note_on_c, 8, 52, 0
2, 153000, Note_on_c, 8, 40, 0
2, 153000, Note_on_c, 8, 40, 85
2, 153000, Note_on_c, 8, 52, 85
2, 153060, Note_on_c, 8, 52, 0
2, 153060, Note_on_c, 8, 40, 0
2, 153060, Note_on_c, 8, 40, 85
2, 153060, Note_on_c, 8, 52, 85
2, 153120, Note_on_c, 8, 52, 0
2, 153120, Note_on_c, 8, 40, 0
2, 153120, Note_on_c, 8, 40, 85
2, 153120, Note_on_c, 8, 52, 85
2, 153180, Note_on_c, 8, 52, 0
2, 153180, Note_on_c, 8, 40, 0
2, 153180, Note_on_c, 8, 40, 85
2, 153180, Note_on_c, 8, 52, 85
2, 153240, Note_on_c, 8, 52, 0
2, 153240, Note_on_c, 8, 40, 0
2, 153240, Note_on_c, 8, 40, 85
2, 153240, Note_on_c, 8, 52, 85
2, 153300, Note_on_c, 8, 52, 0
2, 153300, Note_on_c, 8, 40, 0
2, 153300, Note_on_c, 8, 40, 85
2, 153300, Note_on_c, 8, 52, 85
2, 153360, Note_on_c, 8, 52, 0
2, 153360, Note_on_c, 8, 40, 0
2, 153360, Note_on_c, 8, 45, 85
2, 153360, Note_on_c, 8, 47, 85
2, 153360, Note_on_c, 8, 52, 85
2, 153360, Note_on_c, 8, 57, 85
2, 153480, Note_on_c, 8, 57, 0
2, 153480, Note_on_c, 8, 45, 0
2, 153480, Note_on_c, 8, 47, 0
2, 153480, Note_on_c, 8, 52, 0
2, 153480, Note_on_c, 8, 45, 85
2, 153480, Note_on_c, 8, 47, 85
2, 153480, Note_on_c, 8, 52, 85
2, 153480, Note_on_c, 8, 57, 85
2, 153540, Note_on_c, 8, 57, 0
2, 153540, Note_on_c, 8, 45, 0
2, 153540, Note_on_c, 8, 47, 0
2, 153540, Note_on_c, 8, 52, 0
2, 153540, Note_on_c, 8, 45, 85
2, 153540, Note_on_c, 8, 47, 85
2, 153540, Note_on_c, 8, 52, 85
2, 153540, Note_on_c, 8, 57, 85
2, 153660, Note_on_c, 8, 57, 0
2, 153660, Note_on_c, 8, 45, 0
2, 153660, Note_on_c, 8, 47, 0
2, 153660, Note_on_c, 8, 52, 0
2, 153660, Note_on_c, 8, 45, 85
2, 153660, Note_on_c, 8, 47, 85
2, 153660, Note_on_c, 8, 52, 85
2, 153660, Note_on_c, 8, 57, 85
2, 153720, Note_on_c, 8, 57, 0
2, 153720, Note_on_c, 8, 45, 0
2, 153720, Note_on_c, 8, 47, 0
2, 153720, Note_on_c, 8, 52, 0
2, 153720, Note_on_c, 8, 46, 85
2, 153720, Note_on_c, 8, 58, 85
2, 153780, Note_on_c, 8, 58, 0
2, 153780, Note_on_c, 8, 46, 0
2, 153780, Note_on_c, 8, 46, 85
2, 153780, Note_on_c, 8, 58, 85
2, 153840, Note_on_c, 8, 58, 0
2, 153840, Note_on_c, 8, 46, 0
2, 153840, Note_on_c, 8, 45, 85
2, 153840, Note_on_c, 8, 57, 85
2, 153960, Note_on_c, 8, 57, 0
2, 153960, Note_on_c, 8, 45, 0
2, 153960, Note_on_c, 8, 43, 85
2, 153960, Note_on_c, 8, 55, 85
2, 154020, Note_on_c, 8, 55, 0
2, 154020, Note_on_c, 8, 43, 0
2, 154020, Note_on_c, 8, 43, 85
2, 154020, Note_on_c, 8, 55, 85
2, 154080, Note_on_c, 8, 55, 0
2, 154080, Note_on_c, 8, 43, 0
2, 154080, Note_on_c, 8, 43, 85
2, 154080, Note_on_c, 8, 55, 85
2, 154200, Note_on_c, 8, 55, 0
2, 154200, Note_on_c, 8, 43, 0
2, 154200, Note_on_c, 8, 40, 85
2, 154200, Note_on_c, 8, 52, 85
2, 154260, Note_on_c, 8, 52, 0
2, 154260, Note_on_c, 8, 40, 0
2, 154260, Note_on_c, 8, 40, 85
2, 154260, Note_on_c, 8, 52, 85
2, 154320, Note_on_c, 8, 52, 0
2, 154320, Note_on_c, 8, 40, 0
2, 154320, Note_on_c, 8, 40, 85
2, 154320, Note_on_c, 8, 52, 85
2, 154440, Note_on_c, 8, 52, 0
2, 154440, Note_on_c, 8, 40, 0
2, 154440, Note_on_c, 8, 40, 85
2, 154440, Note_on_c, 8, 52, 85
2, 154500, Note_on_c, 8, 52, 0
2, 154500, Note_on_c, 8, 40, 0
2, 154500, Note_on_c, 8, 40, 85
2, 154500, Note_on_c, 8, 52, 85
2, 154620, Note_on_c, 8, 52, 0
2, 154620, Note_on_c, 8, 40, 0
2, 154620, Note_on_c, 8, 40, 85
2, 154620, Note_on_c, 8, 52, 85
2, 154740, Note_on_c, 8, 52, 0
2, 154740, Note_on_c, 8, 40, 0
2, 154740, Note_on_c, 8, 40, 85
2, 154740, Note_on_c, 8, 52, 85
2, 154800, Note_on_c, 8, 52, 0
2, 154800, Note_on_c, 8, 40, 0
2, 154800, Note_on_c, 8, 40, 85
2, 154800, Note_on_c, 8, 52, 85
2, 154920, Note_on_c, 8, 52, 0
2, 154920, Note_on_c, 8, 40, 0
2, 154920, Note_on_c, 8, 40, 85
2, 154920, Note_on_c, 8, 52, 85
2, 154980, Note_on_c, 8, 52, 0
2, 154980, Note_on_c, 8, 40, 0
2, 154980, Note_on_c, 8, 40, 85
2, 154980, Note_on_c, 8, 52, 85
2, 155040, Note_on_c, 8, 52, 0
2, 155040, Note_on_c, 8, 40, 0
2, 155040, Note_on_c, 8, 40, 85
2, 155040, Note_on_c, 8, 52, 85
2, 155100, Note_on_c, 8, 52, 0
2, 155100, Note_on_c, 8, 40, 0
2, 155100, Note_on_c, 8, 40, 85
2, 155100, Note_on_c, 8, 52, 85
2, 155160, Note_on_c, 8, 52, 0
2, 155160, Note_on_c, 8, 40, 0
2, 155160, Note_on_c, 8, 40, 85
2, 155160, Note_on_c, 8, 52, 85
2, 155220, Note_on_c, 8, 52, 0
2, 155220, Note_on_c, 8, 40, 0
2, 155220, Note_on_c, 8, 40, 85
2, 155220, Note_on_c, 8, 52, 85
2, 155280, Note_on_c, 8, 52, 0
2, 155280, Note_on_c, 8, 40, 0
2, 155280, Note_on_c, 8, 45, 85
2, 155280, Note_on_c, 8, 47, 85
2, 155280, Note_on_c, 8, 52, 85
2, 155280, Note_on_c, 8, 57, 85
2, 155400, Note_on_c, 8, 57, 0
2, 155400, Note_on_c, 8, 45, 0
2, 155400, Note_on_c, 8, 47, 0
2, 155400, Note_on_c, 8, 52, 0
2, 155400, Note_on_c, 8, 45, 85
2, 155400, Note_on_c, 8, 47, 85
2, 155400, Note_on_c, 8, 52, 85
2, 155400, Note_on_c, 8, 57, 85
2, 155460, Note_on_c, 8, 57, 0
2, 155460, Note_on_c, 8, 45, 0
2, 155460, Note_on_c, 8, 47, 0
2, 155460, Note_on_c, 8, 52, 0
2, 155460, Note_on_c, 8, 45, 85
2, 155460, Note_on_c, 8, 47, 85
2, 155460, Note_on_c, 8, 52, 85
2, 155460, Note_on_c, 8, 57, 85
2, 155580, Note_on_c, 8, 57, 0
2, 155580, Note_on_c, 8, 45, 0
2, 155580, Note_on_c, 8, 47, 0
2, 155580, Note_on_c, 8, 52, 0
2, 155580, Note_on_c, 8, 45, 85
2, 155580, Note_on_c, 8, 47, 85
2, 155580, Note_on_c, 8, 52, 85
2, 155580, Note_on_c, 8, 57, 85
2, 155640, Note_on_c, 8, 57, 0
2, 155640, Note_on_c, 8, 45, 0
2, 155640, Note_on_c, 8, 47, 0
2, 155640, Note_on_c, 8, 52, 0
2, 155640, Note_on_c, 8, 46, 85
2, 155640, Note_on_c, 8, 58, 85
2, 155700, Note_on_c, 8, 58, 0
2, 155700, Note_on_c, 8, 46, 0
2, 155700, Note_on_c, 8, 46, 85
2, 155700, Note_on_c, 8, 58, 85
2, 155760, Note_on_c, 8, 58, 0
2, 155760, Note_on_c, 8, 46, 0
2, 155760, Note_on_c, 8, 45, 85
2, 155760, Note_on_c, 8, 57, 85
2, 155880, Note_on_c, 8, 57, 0
2, 155880, Note_on_c, 8, 45, 0
2, 155880, Note_on_c, 8, 43, 85
2, 155880, Note_on_c, 8, 55, 85
2, 155940, Note_on_c, 8, 55, 0
2, 155940, Note_on_c, 8, 43, 0
2, 155940, Note_on_c, 8, 43, 85
2, 155940, Note_on_c, 8, 55, 85
2, 156000, Note_on_c, 8, 55, 0
2, 156000, Note_on_c, 8, 43, 0
2, 156000, Note_on_c, 8, 43, 85
2, 156000, Note_on_c, 8, 55, 85
2, 156120, Note_on_c, 8, 55, 0
2, 156120, Note_on_c, 8, 43, 0
2, 156120, Note_on_c, 8, 40, 85
2, 156120, Note_on_c, 8, 52, 85
2, 156180, Note_on_c, 8, 52, 0
2, 156180, Note_on_c, 8, 40, 0
2, 156180, Note_on_c, 8, 40, 85
2, 156180, Note_on_c, 8, 52, 85
2, 156240, Note_on_c, 8, 52, 0
2, 156240, Note_on_c, 8, 40, 0
2, 156240, Note_on_c, 8, 40, 85
2, 156240, Note_on_c, 8, 52, 85
2, 156360, Note_on_c, 8, 52, 0
2, 156360, Note_on_c, 8, 40, 0
2, 156360, Note_on_c, 8, 40, 85
2, 156360, Note_on_c, 8, 52, 85
2, 156420, Note_on_c, 8, 52, 0
2, 156420, Note_on_c, 8, 40, 0
2, 156420, Note_on_c, 8, 40, 85
2, 156420, Note_on_c, 8, 52, 85
2, 156540, Note_on_c, 8, 52, 0
2, 156540, Note_on_c, 8, 40, 0
2, 156540, Note_on_c, 8, 40, 85
2, 156540, Note_on_c, 8, 52, 85
2, 156660, Note_on_c, 8, 52, 0
2, 156660, Note_on_c, 8, 40, 0
2, 156660, Note_on_c, 8, 40, 85
2, 156660, Note_on_c, 8, 52, 85
2, 156720, Note_on_c, 8, 52, 0
2, 156720, Note_on_c, 8, 40, 0
2, 156720, Note_on_c, 8, 40, 85
2, 156720, Note_on_c, 8, 52, 85
2, 156840, Note_on_c, 8, 52, 0
2, 156840, Note_on_c, 8, 40, 0
2, 156840, Note_on_c, 8, 40, 85
2, 156840, Note_on_c, 8, 52, 85
2, 156900, Note_on_c, 8, 52, 0
2, 156900, Note_on_c, 8, 40, 0
2, 156900, Note_on_c, 8, 40, 85
2, 156900, Note_on_c, 8, 52, 85
2, 156960, Note_on_c, 8, 52, 0
2, 156960, Note_on_c, 8, 40, 0
2, 156960, Note_on_c, 8, 40, 85
2, 156960, Note_on_c, 8, 52, 85
2, 157020, Note_on_c, 8, 52, 0
2, 157020, Note_on_c, 8, 40, 0
2, 157020, Note_on_c, 8, 40, 85
2, 157020, Note_on_c, 8, 52, 85
2, 157080, Note_on_c, 8, 52, 0
2, 157080, Note_on_c, 8, 40, 0
2, 157080, Note_on_c, 8, 40, 85
2, 157080, Note_on_c, 8, 52, 85
2, 157140, Note_on_c, 8, 52, 0
2, 157140, Note_on_c, 8, 40, 0
2, 157140, Note_on_c, 8, 40, 85
2, 157140, Note_on_c, 8, 52, 85
2, 157200, Note_on_c, 8, 52, 0
2, 157200, Note_on_c, 8, 40, 0
2, 157200, Note_on_c, 8, 45, 85
2, 157200, Note_on_c, 8, 47, 85
2, 157200, Note_on_c, 8, 52, 85
2, 157200, Note_on_c, 8, 57, 85
2, 157320, Note_on_c, 8, 57, 0
2, 157320, Note_on_c, 8, 45, 0
2, 157320, Note_on_c, 8, 47, 0
2, 157320, Note_on_c, 8, 52, 0
2, 157320, Note_on_c, 8, 45, 85
2, 157320, Note_on_c, 8, 47, 85
2, 157320, Note_on_c, 8, 52, 85
2, 157320, Note_on_c, 8, 57, 85
2, 157380, Note_on_c, 8, 57, 0
2, 157380, Note_on_c, 8, 45, 0
2, 157380, Note_on_c, 8, 47, 0
2, 157380, Note_on_c, 8, 52, 0
2, 157380, Note_on_c, 8, 45, 85
2, 157380, Note_on_c, 8, 47, 85
2, 157380, Note_on_c, 8, 52, 85
2, 157380, Note_on_c, 8, 57, 85
2, 157500, Note_on_c, 8, 57, 0
2, 157500, Note_on_c, 8, 45, 0
2, 157500, Note_on_c, 8, 47, 0
2, 157500, Note_on_c, 8, 52, 0
2, 157500, Note_on_c, 8, 45, 85
2, 157500, Note_on_c, 8, 47, 85
2, 157500, Note_on_c, 8, 52, 85
2, 157500, Note_on_c, 8, 57, 85
2, 157560, Note_on_c, 8, 57, 0
2, 157560, Note_on_c, 8, 45, 0
2, 157560, Note_on_c, 8, 47, 0
2, 157560, Note_on_c, 8, 52, 0
2, 157560, Note_on_c, 8, 46, 85
2, 157560, Note_on_c, 8, 58, 85
2, 157620, Note_on_c, 8, 58, 0
2, 157620, Note_on_c, 8, 46, 0
2, 157620, Note_on_c, 8, 46, 85
2, 157620, Note_on_c, 8, 58, 85
2, 157680, Note_on_c, 8, 58, 0
2, 157680, Note_on_c, 8, 46, 0
2, 157680, Note_on_c, 8, 45, 85
2, 157680, Note_on_c, 8, 57, 85
2, 157800, Note_on_c, 8, 57, 0
2, 157800, Note_on_c, 8, 45, 0
2, 157800, Note_on_c, 8, 43, 85
2, 157800, Note_on_c, 8, 55, 85
2, 157860, Note_on_c, 8, 55, 0
2, 157860, Note_on_c, 8, 43, 0
2, 157860, Note_on_c, 8, 43, 85
2, 157860, Note_on_c, 8, 55, 85
2, 157920, Note_on_c, 8, 55, 0
2, 157920, Note_on_c, 8, 43, 0
2, 157920, Note_on_c, 8, 43, 85
2, 157920, Note_on_c, 8, 55, 85
2, 158040, Note_on_c, 8, 55, 0
2, 158040, Note_on_c, 8, 43, 0
2, 158040, Note_on_c, 8, 40, 85
2, 158040, Note_on_c, 8, 52, 85
2, 158100, Note_on_c, 8, 52, 0
2, 158100, Note_on_c, 8, 40, 0
2, 158100, Note_on_c, 8, 40, 85
2, 158100, Note_on_c, 8, 52, 85
2, 158160, Note_on_c, 8, 52, 0
2, 158160, Note_on_c, 8, 40, 0
2, 158160, Note_on_c, 8, 40, 85
2, 158160, Note_on_c, 8, 52, 85
2, 158280, Note_on_c, 8, 52, 0
2, 158280, Note_on_c, 8, 40, 0
2, 158280, End_track
3, 0, Start_track
3, 0, MIDI_port, 0
3, 0, Title_t, "Bass Guitar"
3, 0, Program_c, 1, 34
3, 0, Control_c, 1, 7, 127
3, 0, Control_c, 1, 10, 64
3, 7680, Note_on_c, 1, 45, 100
3, 7740, Note_on_c, 1, 45, 0
3, 7740, Note_on_c, 1, 45, 100
3, 7800, Note_on_c, 1, 45, 0
3, 7800, Note_on_c, 1, 45, 100
3, 7860, Note_on_c, 1, 45, 0
3, 7860, Note_on_c, 1, 45, 100
3, 7920, Note_on_c, 1, 45, 0
3, 7920, Note_on_c, 1, 45, 100
3, 7980, Note_on_c, 1, 45, 0
3, 7980, Note_on_c, 1, 45, 100
3, 8040, Note_on_c, 1, 45, 0
3, 8040, Note_on_c, 1, 46, 100
3, 8100, Note_on_c, 1, 46, 0
3, 8100, Note_on_c, 1, 43, 100
3, 8160, Note_on_c, 1, 43, 0
3, 8160, Note_on_c, 1, 45, 100
3, 8190, Note_on_c, 1, 45, 0
3, 8190, Note_on_c, 1, 46, 100
3, 8220, Note_on_c, 1, 46, 0
3, 8220, Note_on_c, 1, 45, 100
3, 8340, Note_on_c, 1, 45, 0
3, 8340, Note_on_c, 1, 43, 100
3, 8400, Note_on_c, 1, 43, 0
3, 8400, Note_on_c, 1, 43, 100
3, 8460, Note_on_c, 1, 43, 0
3, 8460, Note_on_c, 1, 40, 100
3, 8520, Note_on_c, 1, 40, 0
3, 8520, Note_on_c, 1, 41, 100
3, 8580, Note_on_c, 1, 41, 0
3, 8580, Note_on_c, 1, 40, 100
3, 8640, Note_on_c, 1, 40, 0
3, 8640, Note_on_c, 1, 41, 100
3, 8700, Note_on_c, 1, 41, 0
3, 8700, Note_on_c, 1, 40, 100
3, 8760, Note_on_c, 1, 40, 0
3, 8760, Note_on_c, 1, 40, 100
3, 8820, Note_on_c, 1, 40, 0
3, 8820, Note_on_c, 1, 41, 100
3, 8880, Note_on_c, 1, 41, 0
3, 8880, Note_on_c, 1, 40, 100
3, 8940, Note_on_c, 1, 40, 0
3, 8940, Note_on_c, 1, 41, 100
3, 9060, Note_on_c, 1, 41, 0
3, 9060, Note_on_c, 1, 40, 100
3, 9120, Note_on_c, 1, 40, 0
3, 9120, Note_on_c, 1, 41, 100
3, 9180, Note_on_c, 1, 41, 0
3, 9180, Note_on_c, 1, 40, 100
3, 9240, Note_on_c, 1, 40, 0
3, 9240, Note_on_c, 1, 40, 100
3, 9300, Note_on_c, 1, 40, 0
3, 9300, Note_on_c, 1, 41, 100
3, 9420, Note_on_c, 1, 41, 0
3, 9420, Note_on_c, 1, 40, 100
3, 9480, Note_on_c, 1, 40, 0
3, 9480, Note_on_c, 1, 41, 100
3, 9540, Note_on_c, 1, 41, 0
3, 9540, Note_on_c, 1, 40, 100
3, 9600, Note_on_c, 1, 40, 0
3, 9600, Note_on_c, 1, 45, 100
3, 9660, Note_on_c, 1, 45, 0
3, 9660, Note_on_c, 1, 45, 100
3, 9720, Note_on_c, 1, 45, 0
3, 9720, Note_on_c, 1, 45, 100
3, 9780, Note_on_c, 1, 45, 0
3, 9780, Note_on_c, 1, 45, 100
3, 9840, Note_on_c, 1, 45, 0
3, 9840, Note_on_c, 1, 45, 100
3, 9900, Note_on_c, 1, 45, 0
3, 9900, Note_on_c, 1, 45, 100
3, 9960, Note_on_c, 1, 45, 0
3, 9960, Note_on_c, 1, 46, 100
3, 10020, Note_on_c, 1, 46, 0
3, 10020, Note_on_c, 1, 43, 100
3, 10080, Note_on_c, 1, 43, 0
3, 10080, Note_on_c, 1, 45, 100
3, 10110, Note_on_c, 1, 45, 0
3, 10110, Note_on_c, 1, 46, 100
3, 10140, Note_on_c, 1, 46, 0
3, 10140, Note_on_c, 1, 45, 100
3, 10260, Note_on_c, 1, 45, 0
3, 10260, Note_on_c, 1, 43, 100
3, 10320, Note_on_c, 1, 43, 0
3, 10320, Note_on_c, 1, 43, 100
3, 10380, Note_on_c, 1, 43, 0
3, 10380, Note_on_c, 1, 40, 100
3, 10440, Note_on_c, 1, 40, 0
3, 10440, Note_on_c, 1, 41, 100
3, 10500, Note_on_c, 1, 41, 0
3, 10500, Note_on_c, 1, 40, 100
3, 10560, Note_on_c, 1, 40, 0
3, 10560, Note_on_c, 1, 41, 100
3, 10620, Note_on_c, 1, 41, 0
3, 10620, Note_on_c, 1, 40, 100
3, 10680, Note_on_c, 1, 40, 0
3, 10680, Note_on_c, 1, 40, 100
3, 10740, Note_on_c, 1, 40, 0
3, 10740, Note_on_c, 1, 41, 100
3, 10800, Note_on_c, 1, 41, 0
3, 10800, Note_on_c, 1, 40, 100
3, 10860, Note_on_c, 1, 40, 0
3, 10860, Note_on_c, 1, 41, 100
3, 10980, Note_on_c, 1, 41, 0
3, 10980, Note_on_c, 1, 40, 100
3, 11040, Note_on_c, 1, 40, 0
3, 11040, Note_on_c, 1, 41, 100
3, 11100, Note_on_c, 1, 41, 0
3, 11100, Note_on_c, 1, 40, 100
3, 11160, Note_on_c, 1, 40, 0
3, 11160, Note_on_c, 1, 40, 100
3, 11220, Note_on_c, 1, 40, 0
3, 11220, Note_on_c, 1, 41, 100
3, 11340, Note_on_c, 1, 41, 0
3, 11340, Note_on_c, 1, 40, 100
3, 11400, Note_on_c, 1, 40, 0
3, 11400, Note_on_c, 1, 41, 100
3, 11460, Note_on_c, 1, 41, 0
3, 11460, Note_on_c, 1, 40, 100
3, 11520, Note_on_c, 1, 40, 0
3, 11520, Note_on_c, 1, 40, 100
3, 11520, Note_on_c, 1, 28, 100
3, 11640, Note_on_c, 1, 28, 0
3, 11640, Note_on_c, 1, 40, 0
3, 11640, Note_on_c, 1, 28, 100
3, 11640, Note_on_c, 1, 40, 100
3, 11880, Note_on_c, 1, 40, 0
3, 11880, Note_on_c, 1, 28, 0
3, 11880, Note_on_c, 1, 28, 100
3, 11880, Note_on_c, 1, 40, 100
3, 12000, Note_on_c, 1, 40, 0
3, 12000, Note_on_c, 1, 28, 0
3, 12000, Note_on_c, 1, 28, 100
3, 12000, Note_on_c, 1, 40, 100
3, 13440, Note_on_c, 1, 40, 0
3, 13440, Note_on_c, 1, 28, 0
3, 13440, Note_on_c, 1, 52, 100
3, 13920, Note_on_c, 1, 52, 0
3, 13920, Note_on_c, 1, 40, 100
3, 13920, Note_on_c, 1, 28, 100
3, 14400, Note_on_c, 1, 28, 0
3, 14400, Note_on_c, 1, 40, 0
3, 14400, Note_on_c, 1, 40, 100
3, 14400, Note_on_c, 1, 28, 100
3, 14520, Note_on_c, 1, 28, 0
3, 14520, Note_on_c, 1, 40, 0
3, 14520, Note_on_c, 1, 40, 100
3, 14520, Note_on_c, 1, 28, 100
3, 14700, Note_on_c, 1, 28, 0
3, 14700, Note_on_c, 1, 40, 0
3, 14700, Note_on_c, 1, 28, 100
3, 14700, Note_on_c, 1, 40, 100
3, 14760, Note_on_c, 1, 40, 0
3, 14760, Note_on_c, 1, 28, 0
3, 14760, Note_on_c, 1, 28, 100
3, 14760, Note_on_c, 1, 40, 100
3, 14880, Note_on_c, 1, 40, 0
3, 14880, Note_on_c, 1, 28, 0
3, 14880, Note_on_c, 1, 28, 100
3, 14880, Note_on_c, 1, 40, 100
3, 15360, Note_on_c, 1, 40, 0
3, 15360, Note_on_c, 1, 28, 0
3, 15360, Note_on_c, 1, 40, 100
3, 15480, Note_on_c, 1, 40, 0
3, 15480, Note_on_c, 1, 40, 100
3, 15720, Note_on_c, 1, 40, 0
3, 15720, Note_on_c, 1, 40, 100
3, 15840, Note_on_c, 1, 40, 0
3, 15840, Note_on_c, 1, 40, 100
3, 16440, Note_on_c, 1, 40, 0
3, 16440, Note_on_c, 1, 40, 100
3, 16800, Note_on_c, 1, 40, 0
3, 16800, Note_on_c, 1, 46, 100
3, 16860, Note_on_c, 1, 46, 0
3, 16860, Note_on_c, 1, 47, 100
3, 16920, Note_on_c, 1, 47, 0
3, 16920, Note_on_c, 1, 47, 100
3, 16980, Note_on_c, 1, 47, 0
3, 16980, Note_on_c, 1, 47, 100
3, 17040, Note_on_c, 1, 47, 0
3, 17040, Note_on_c, 1, 46, 100
3, 17100, Note_on_c, 1, 46, 0
3, 17100, Note_on_c, 1, 47, 100
3, 17160, Note_on_c, 1, 47, 0
3, 17160, Note_on_c, 1, 47, 100
3, 17220, Note_on_c, 1, 47, 0
3, 17220, Note_on_c, 1, 47, 100
3, 17280, Note_on_c, 1, 47, 0
3, 17280, Note_on_c, 1, 47, 100
3, 17400, Note_on_c, 1, 47, 0
3, 17400, Note_on_c, 1, 47, 100
3, 17580, Note_on_c, 1, 47, 0
3, 17580, Note_on_c, 1, 47, 100
3, 17640, Note_on_c, 1, 47, 0
3, 17640, Note_on_c, 1, 47, 100
3, 17760, Note_on_c, 1, 47, 0
3, 17760, Note_on_c, 1, 47, 100
3, 18240, Note_on_c, 1, 47, 0
3, 18240, Note_on_c, 1, 28, 100
3, 18240, Note_on_c, 1, 40, 100
3, 18960, Note_on_c, 1, 40, 0
3, 18960, Note_on_c, 1, 28, 0
3, 18960, Note_on_c, 1, 28, 100
3, 18960, Note_on_c, 1, 40, 100
3, 19080, Note_on_c, 1, 40, 0
3, 19080, Note_on_c, 1, 28, 0
3, 19080, Note_on_c, 1, 28, 100
3, 19080, Note_on_c, 1, 40, 100
3, 19260, Note_on_c, 1, 40, 0
3, 19260, Note_on_c, 1, 28, 0
3, 19260, Note_on_c, 1, 28, 100
3, 19260, Note_on_c, 1, 40, 100
3, 19320, Note_on_c, 1, 40, 0
3, 19320, Note_on_c, 1, 28, 0
3, 19320, Note_on_c, 1, 28, 100
3, 19320, Note_on_c, 1, 40, 100
3, 19440, Note_on_c, 1, 40, 0
3, 19440, Note_on_c, 1, 28, 0
3, 19440, Note_on_c, 1, 28, 100
3, 19440, Note_on_c, 1, 40, 100
3, 21360, Note_on_c, 1, 40, 0
3, 21360, Note_on_c, 1, 28, 0
3, 23280, Note_on_c, 1, 43, 100
3, 23340, Note_on_c, 1, 43, 0
3, 23340, Note_on_c, 1, 45, 100
3, 23400, Note_on_c, 1, 45, 0
3, 23400, Note_on_c, 1, 45, 100
3, 23460, Note_on_c, 1, 45, 0
3, 23460, Note_on_c, 1, 45, 100
3, 23520, Note_on_c, 1, 45, 0
3, 23520, Note_on_c, 1, 45, 100
3, 23580, Note_on_c, 1, 45, 0
3, 23580, Note_on_c, 1, 45, 100
3, 23640, Note_on_c, 1, 45, 0
3, 23640, Note_on_c, 1, 46, 100
3, 23700, Note_on_c, 1, 46, 0
3, 23700, Note_on_c, 1, 46, 100
3, 23760, Note_on_c, 1, 46, 0
3, 23760, Note_on_c, 1, 45, 100
3, 23880, Note_on_c, 1, 45, 0
3, 23880, Note_on_c, 1, 45, 100
3, 24000, Note_on_c, 1, 45, 0
3, 24000, Note_on_c, 1, 43, 100
3, 24120, Note_on_c, 1, 43, 0
3, 24120, Note_on_c, 1, 45, 100
3, 24240, Note_on_c, 1, 45, 0
3, 24240, Note_on_c, 1, 41, 100
3, 24300, Note_on_c, 1, 41, 0
3, 24300, Note_on_c, 1, 40, 100
3, 24360, Note_on_c, 1, 40, 0
3, 24360, Note_on_c, 1, 40, 100
3, 24420, Note_on_c, 1, 40, 0
3, 24420, Note_on_c, 1, 40, 100
3, 24480, Note_on_c, 1, 40, 0
3, 24480, Note_on_c, 1, 40, 100
3, 24540, Note_on_c, 1, 40, 0
3, 24540, Note_on_c, 1, 40, 100
3, 24600, Note_on_c, 1, 40, 0
3, 24600, Note_on_c, 1, 40, 100
3, 24660, Note_on_c, 1, 40, 0
3, 24660, Note_on_c, 1, 40, 100
3, 24720, Note_on_c, 1, 40, 0
3, 24720, Note_on_c, 1, 41, 100
3, 24780, Note_on_c, 1, 41, 0
3, 24780, Note_on_c, 1, 40, 100
3, 24840, Note_on_c, 1, 40, 0
3, 24840, Note_on_c, 1, 40, 100
3, 24900, Note_on_c, 1, 40, 0
3, 24900, Note_on_c, 1, 40, 100
3, 24960, Note_on_c, 1, 40, 0
3, 24960, Note_on_c, 1, 40, 100
3, 25020, Note_on_c, 1, 40, 0
3, 25020, Note_on_c, 1, 40, 100
3, 25080, Note_on_c, 1, 40, 0
3, 25080, Note_on_c, 1, 40, 100
3, 25140, Note_on_c, 1, 40, 0
3, 25140, Note_on_c, 1, 40, 100
3, 25200, Note_on_c, 1, 40, 0
3, 25200, Note_on_c, 1, 43, 100
3, 25260, Note_on_c, 1, 43, 0
3, 25260, Note_on_c, 1, 45, 100
3, 25320, Note_on_c, 1, 45, 0
3, 25320, Note_on_c, 1, 45, 100
3, 25380, Note_on_c, 1, 45, 0
3, 25380, Note_on_c, 1, 45, 100
3, 25440, Note_on_c, 1, 45, 0
3, 25440, Note_on_c, 1, 45, 100
3, 25500, Note_on_c, 1, 45, 0
3, 25500, Note_on_c, 1, 45, 100
3, 25560, Note_on_c, 1, 45, 0
3, 25560, Note_on_c, 1, 46, 100
3, 25680, Note_on_c, 1, 46, 0
3, 25680, Note_on_c, 1, 43, 100
3, 25800, Note_on_c, 1, 43, 0
3, 25800, Note_on_c, 1, 43, 100
3, 25920, Note_on_c, 1, 43, 0
3, 25920, Note_on_c, 1, 43, 100
3, 26040, Note_on_c, 1, 43, 0
3, 26040, Note_on_c, 1, 45, 100
3, 26160, Note_on_c, 1, 45, 0
3, 26160, Note_on_c, 1, 40, 100
3, 26220, Note_on_c, 1, 40, 0
3, 26220, Note_on_c, 1, 40, 100
3, 26280, Note_on_c, 1, 40, 0
3, 26280, Note_on_c, 1, 40, 100
3, 26340, Note_on_c, 1, 40, 0
3, 26340, Note_on_c, 1, 40, 100
3, 26400, Note_on_c, 1, 40, 0
3, 26400, Note_on_c, 1, 40, 100
3, 26460, Note_on_c, 1, 40, 0
3, 26460, Note_on_c, 1, 40, 100
3, 26520, Note_on_c, 1, 40, 0
3, 26520, Note_on_c, 1, 40, 100
3, 26640, Note_on_c, 1, 40, 0
3, 26640, Note_on_c, 1, 47, 100
3, 26700, Note_on_c, 1, 47, 0
3, 26700, Note_on_c, 1, 47, 100
3, 26760, Note_on_c, 1, 47, 0
3, 26760, Note_on_c, 1, 47, 100
3, 26820, Note_on_c, 1, 47, 0
3, 26820, Note_on_c, 1, 47, 100
3, 26880, Note_on_c, 1, 47, 0
3, 26880, Note_on_c, 1, 45, 100
3, 26940, Note_on_c, 1, 45, 0
3, 26940, Note_on_c, 1, 47, 100
3, 27000, Note_on_c, 1, 47, 0
3, 27000, Note_on_c, 1, 45, 100
3, 27060, Note_on_c, 1, 45, 0
3, 27060, Note_on_c, 1, 45, 100
3, 27120, Note_on_c, 1, 45, 0
3, 27120, Note_on_c, 1, 43, 100
3, 27180, Note_on_c, 1, 43, 0
3, 27180, Note_on_c, 1, 45, 100
3, 27240, Note_on_c, 1, 45, 0
3, 27240, Note_on_c, 1, 45, 100
3, 27300, Note_on_c, 1, 45, 0
3, 27300, Note_on_c, 1, 45, 100
3, 27420, Note_on_c, 1, 45, 0
3, 27420, Note_on_c, 1, 45, 100
3, 27480, Note_on_c, 1, 45, 0
3, 27480, Note_on_c, 1, 45, 100
3, 27510, Note_on_c, 1, 45, 0
3, 27510, Note_on_c, 1, 46, 100
3, 27540, Note_on_c, 1, 46, 0
3, 27540, Note_on_c, 1, 45, 100
3, 27570, Note_on_c, 1, 45, 0
3, 27570, Note_on_c, 1, 43, 100
3, 27600, Note_on_c, 1, 43, 0
3, 27600, Note_on_c, 1, 43, 100
3, 27720, Note_on_c, 1, 43, 0
3, 27720, Note_on_c, 1, 43, 100
3, 27840, Note_on_c, 1, 43, 0
3, 27840, Note_on_c, 1, 43, 100
3, 27960, Note_on_c, 1, 43, 0
3, 27960, Note_on_c, 1, 45, 100
3, 28080, Note_on_c, 1, 45, 0
3, 28080, Note_on_c, 1, 40, 100
3, 28140, Note_on_c, 1, 40, 0
3, 28140, Note_on_c, 1, 41, 100
3, 28200, Note_on_c, 1, 41, 0
3, 28200, Note_on_c, 1, 40, 100
3, 28260, Note_on_c, 1, 40, 0
3, 28260, Note_on_c, 1, 40, 100
3, 28380, Note_on_c, 1, 40, 0
3, 28380, Note_on_c, 1, 40, 100
3, 28440, Note_on_c, 1, 40, 0
3, 28440, Note_on_c, 1, 40, 100
3, 28500, Note_on_c, 1, 40, 0
3, 28500, Note_on_c, 1, 40, 100
3, 28560, Note_on_c, 1, 40, 0
3, 28560, Note_on_c, 1, 40, 100
3, 28620, Note_on_c, 1, 40, 0
3, 28620, Note_on_c, 1, 41, 100
3, 28680, Note_on_c, 1, 41, 0
3, 28680, Note_on_c, 1, 40, 100
3, 28800, Note_on_c, 1, 40, 0
3, 28800, Note_on_c, 1, 38, 100
3, 28920, Note_on_c, 1, 38, 0
3, 28920, Note_on_c, 1, 40, 100
3, 29040, Note_on_c, 1, 40, 0
3, 29040, Note_on_c, 1, 28, 100
3, 29280, Note_on_c, 1, 28, 0
3, 29280, Note_on_c, 1, 40, 100
3, 29400, Note_on_c, 1, 40, 0
3, 29400, Note_on_c, 1, 40, 100
3, 29460, Note_on_c, 1, 40, 0
3, 29460, Note_on_c, 1, 40, 100
3, 29520, Note_on_c, 1, 40, 0
3, 29520, Note_on_c, 1, 38, 100
3, 29640, Note_on_c, 1, 38, 0
3, 29640, Note_on_c, 1, 38, 100
3, 29700, Note_on_c, 1, 38, 0
3, 29700, Note_on_c, 1, 38, 100
3, 29760, Note_on_c, 1, 38, 0
3, 29760, Note_on_c, 1, 40, 100
3, 29880, Note_on_c, 1, 40, 0
3, 29880, Note_on_c, 1, 38, 100
3, 29940, Note_on_c, 1, 38, 0
3, 29940, Note_on_c, 1, 38, 100
3, 30000, Note_on_c, 1, 38, 0
3, 30000, Note_on_c, 1, 40, 100
3, 30120, Note_on_c, 1, 40, 0
3, 30120, Note_on_c, 1, 38, 100
3, 30240, Note_on_c, 1, 38, 0
3, 30240, Note_on_c, 1, 35, 100
3, 30360, Note_on_c, 1, 35, 0
3, 30360, Note_on_c, 1, 31, 100
3, 30480, Note_on_c, 1, 31, 0
3, 30480, Note_on_c, 1, 33, 100
3, 30600, Note_on_c, 1, 33, 0
3, 30600, Note_on_c, 1, 31, 100
3, 30720, Note_on_c, 1, 31, 0
3, 30720, Note_on_c, 1, 28, 100
3, 30960, Note_on_c, 1, 28, 0
3, 30960, Note_on_c, 1, 28, 100
3, 31200, Note_on_c, 1, 28, 0
3, 31200, Note_on_c, 1, 40, 100
3, 31320, Note_on_c, 1, 40, 0
3, 31320, Note_on_c, 1, 40, 100
3, 31440, Note_on_c, 1, 40, 0
3, 31440, Note_on_c, 1, 38, 100
3, 31620, Note_on_c, 1, 38, 0
3, 31620, Note_on_c, 1, 38, 100
3, 31680, Note_on_c, 1, 38, 0
3, 31680, Note_on_c, 1, 40, 100
3, 31860, Note_on_c, 1, 40, 0
3, 31860, Note_on_c, 1, 38, 100
3, 31920, Note_on_c, 1, 38, 0
3, 31920, Note_on_c, 1, 40, 100
3, 32040, Note_on_c, 1, 40, 0
3, 32040, Note_on_c, 1, 38, 100
3, 32160, Note_on_c, 1, 38, 0
3, 32160, Note_on_c, 1, 35, 100
3, 32280, Note_on_c, 1, 35, 0
3, 32280, Note_on_c, 1, 31, 100
3, 32400, Note_on_c, 1, 31, 0
3, 32400, Note_on_c, 1, 33, 100
3, 32520, Note_on_c, 1, 33, 0
3, 32520, Note_on_c, 1, 31, 100
3, 32640, Note_on_c, 1, 31, 0
3, 32640, Note_on_c, 1, 28, 100
3, 32880, Note_on_c, 1, 28, 0
3, 32880, Note_on_c, 1, 28, 100
3, 33120, Note_on_c, 1, 28, 0
3, 33120, Note_on_c, 1, 40, 100
3, 33240, Note_on_c, 1, 40, 0
3, 33240, Note_on_c, 1, 40, 100
3, 33360, Note_on_c, 1, 40, 0
3, 33360, Note_on_c, 1, 38, 100
3, 33480, Note_on_c, 1, 38, 0
3, 33480, Note_on_c, 1, 38, 100
3, 33540, Note_on_c, 1, 38, 0
3, 33540, Note_on_c, 1, 38, 100
3, 33600, Note_on_c, 1, 38, 0
3, 33600, Note_on_c, 1, 40, 100
3, 33720, Note_on_c, 1, 40, 0
3, 33720, Note_on_c, 1, 38, 100
3, 33840, Note_on_c, 1, 38, 0
3, 33840, Note_on_c, 1, 40, 100
3, 33960, Note_on_c, 1, 40, 0
3, 33960, Note_on_c, 1, 38, 100
3, 34080, Note_on_c, 1, 38, 0
3, 34080, Note_on_c, 1, 35, 100
3, 34200, Note_on_c, 1, 35, 0
3, 34200, Note_on_c, 1, 31, 100
3, 34320, Note_on_c, 1, 31, 0
3, 34320, Note_on_c, 1, 33, 100
3, 34440, Note_on_c, 1, 33, 0
3, 34440, Note_on_c, 1, 31, 100
3, 34560, Note_on_c, 1, 31, 0
3, 34560, Note_on_c, 1, 28, 100
3, 34800, Note_on_c, 1, 28, 0
3, 34800, Note_on_c, 1, 28, 100
3, 35040, Note_on_c, 1, 28, 0
3, 35040, Note_on_c, 1, 40, 100
3, 35160, Note_on_c, 1, 40, 0
3, 35160, Note_on_c, 1, 40, 100
3, 35220, Note_on_c, 1, 40, 0
3, 35220, Note_on_c, 1, 40, 100
3, 35280, Note_on_c, 1, 40, 0
3, 35280, Note_on_c, 1, 38, 100
3, 35340, Note_on_c, 1, 38, 0
3, 35340, Note_on_c, 1, 38, 100
3, 35400, Note_on_c, 1, 38, 0
3, 35400, Note_on_c, 1, 38, 100
3, 35460, Note_on_c, 1, 38, 0
3, 35460, Note_on_c, 1, 38, 100
3, 35520, Note_on_c, 1, 38, 0
3, 35520, Note_on_c, 1, 40, 100
3, 35640, Note_on_c, 1, 40, 0
3, 35640, Note_on_c, 1, 38, 100
3, 35700, Note_on_c, 1, 38, 0
3, 35700, Note_on_c, 1, 38, 100
3, 35760, Note_on_c, 1, 38, 0
3, 35760, Note_on_c, 1, 40, 100
3, 35880, Note_on_c, 1, 40, 0
3, 35880, Note_on_c, 1, 38, 100
3, 36000, Note_on_c, 1, 38, 0
3, 36000, Note_on_c, 1, 35, 100
3, 36120, Note_on_c, 1, 35, 0
3, 36120, Note_on_c, 1, 31, 100
3, 36240, Note_on_c, 1, 31, 0
3, 36240, Note_on_c, 1, 33, 100
3, 36360, Note_on_c, 1, 33, 0
3, 36360, Note_on_c, 1, 31, 100
3, 36480, Note_on_c, 1, 31, 0
3, 36480, Note_on_c, 1, 28, 100
3, 36720, Note_on_c, 1, 28, 0
3, 36720, Note_on_c, 1, 28, 100
3, 36960, Note_on_c, 1, 28, 0
3, 36960, Note_on_c, 1, 40, 100
3, 37080, Note_on_c, 1, 40, 0
3, 37080, Note_on_c, 1, 40, 100
3, 37200, Note_on_c, 1, 40, 0
3, 37200, Note_on_c, 1, 38, 100
3, 37320, Note_on_c, 1, 38, 0
3, 37320, Note_on_c, 1, 38, 100
3, 37380, Note_on_c, 1, 38, 0
3, 37380, Note_on_c, 1, 38, 100
3, 37440, Note_on_c, 1, 38, 0
3, 37440, Note_on_c, 1, 40, 100
3, 37560, Note_on_c, 1, 40, 0
3, 37560, Note_on_c, 1, 38, 100
3, 37680, Note_on_c, 1, 38, 0
3, 37680, Note_on_c, 1, 40, 100
3, 37800, Note_on_c, 1, 40, 0
3, 37800, Note_on_c, 1, 38, 100
3, 37920, Note_on_c, 1, 38, 0
3, 37920, Note_on_c, 1, 35, 100
3, 38040, Note_on_c, 1, 35, 0
3, 38040, Note_on_c, 1, 31, 100
3, 38160, Note_on_c, 1, 31, 0
3, 38160, Note_on_c, 1, 33, 100
3, 38280, Note_on_c, 1, 33, 0
3, 38280, Note_on_c, 1, 31, 100
3, 38400, Note_on_c, 1, 31, 0
3, 38400, Note_on_c, 1, 28, 100
3, 38640, Note_on_c, 1, 28, 0
3, 38640, Note_on_c, 1, 28, 100
3, 38880, Note_on_c, 1, 28, 0
3, 38880, Note_on_c, 1, 40, 100
3, 39000, Note_on_c, 1, 40, 0
3, 39000, Note_on_c, 1, 40, 100
3, 39060, Note_on_c, 1, 40, 0
3, 39060, Note_on_c, 1, 40, 100
3, 39120, Note_on_c, 1, 40, 0
3, 39120, Note_on_c, 1, 38, 100
3, 39360, Note_on_c, 1, 38, 0
3, 39360, Note_on_c, 1, 40, 100
3, 39480, Note_on_c, 1, 40, 0
3, 39480, Note_on_c, 1, 38, 100
3, 39600, Note_on_c, 1, 38, 0
3, 39600, Note_on_c, 1, 40, 100
3, 39720, Note_on_c, 1, 40, 0
3, 39720, Note_on_c, 1, 38, 100
3, 39840, Note_on_c, 1, 38, 0
3, 39840, Note_on_c, 1, 35, 100
3, 39960, Note_on_c, 1, 35, 0
3, 39960, Note_on_c, 1, 31, 100
3, 40080, Note_on_c, 1, 31, 0
3, 40080, Note_on_c, 1, 33, 100
3, 40200, Note_on_c, 1, 33, 0
3, 40200, Note_on_c, 1, 31, 100
3, 40320, Note_on_c, 1, 31, 0
3, 40320, Note_on_c, 1, 28, 100
3, 40440, Note_on_c, 1, 28, 0
3, 40440, Note_on_c, 1, 28, 100
3, 40500, Note_on_c, 1, 28, 0
3, 40500, Note_on_c, 1, 28, 100
3, 40560, Note_on_c, 1, 28, 0
3, 40560, Note_on_c, 1, 28, 100
3, 40800, Note_on_c, 1, 28, 0
3, 40800, Note_on_c, 1, 40, 100
3, 40920, Note_on_c, 1, 40, 0
3, 40920, Note_on_c, 1, 40, 100
3, 40980, Note_on_c, 1, 40, 0
3, 40980, Note_on_c, 1, 40, 100
3, 41040, Note_on_c, 1, 40, 0
3, 41040, Note_on_c, 1, 38, 100
3, 41160, Note_on_c, 1, 38, 0
3, 41160, Note_on_c, 1, 38, 100
3, 41220, Note_on_c, 1, 38, 0
3, 41220, Note_on_c, 1, 38, 100
3, 41280, Note_on_c, 1, 38, 0
3, 41280, Note_on_c, 1, 40, 100
3, 41400, Note_on_c, 1, 40, 0
3, 41400, Note_on_c, 1, 38, 100
3, 41520, Note_on_c, 1, 38, 0
3, 41520, Note_on_c, 1, 40, 100
3, 41640, Note_on_c, 1, 40, 0
3, 41640, Note_on_c, 1, 38, 100
3, 41760, Note_on_c, 1, 38, 0
3, 41760, Note_on_c, 1, 35, 100
3, 41880, Note_on_c, 1, 35, 0
3, 41880, Note_on_c, 1, 31, 100
3, 42000, Note_on_c, 1, 31, 0
3, 42000, Note_on_c, 1, 33, 100
3, 42120, Note_on_c, 1, 33, 0
3, 42120, Note_on_c, 1, 31, 100
3, 42240, Note_on_c, 1, 31, 0
3, 42240, Note_on_c, 1, 28, 100
3, 42480, Note_on_c, 1, 28, 0
3, 42480, Note_on_c, 1, 28, 100
3, 42720, Note_on_c, 1, 28, 0
3, 42720, Note_on_c, 1, 40, 100
3, 42780, Note_on_c, 1, 40, 0
3, 42780, Note_on_c, 1, 40, 100
3, 42840, Note_on_c, 1, 40, 0
3, 42840, Note_on_c, 1, 40, 100
3, 42960, Note_on_c, 1, 40, 0
3, 42960, Note_on_c, 1, 40, 100
3, 43080, Note_on_c, 1, 40, 0
3, 43080, Note_on_c, 1, 38, 100
3, 43320, Note_on_c, 1, 38, 0
3, 43320, Note_on_c, 1, 40, 100
3, 43440, Note_on_c, 1, 40, 0
3, 43440, Note_on_c, 1, 38, 100
3, 43500, Note_on_c, 1, 38, 0
3, 43500, Note_on_c, 1, 38, 100
3, 43560, Note_on_c, 1, 38, 0
3, 43560, Note_on_c, 1, 40, 100
3, 43680, Note_on_c, 1, 40, 0
3, 43680, Note_on_c, 1, 38, 100
3, 43800, Note_on_c, 1, 38, 0
3, 43800, Note_on_c, 1, 35, 100
3, 43920, Note_on_c, 1, 35, 0
3, 43920, Note_on_c, 1, 31, 100
3, 44040, Note_on_c, 1, 31, 0
3, 44040, Note_on_c, 1, 33, 100
3, 44160, Note_on_c, 1, 33, 0
3, 44160, Note_on_c, 1, 31, 100
3, 44280, Note_on_c, 1, 31, 0
3, 44280, Note_on_c, 1, 28, 100
3, 44400, Note_on_c, 1, 28, 0
3, 44400, Note_on_c, 1, 28, 100
3, 44640, Note_on_c, 1, 28, 0
3, 44640, Note_on_c, 1, 40, 100
3, 44760, Note_on_c, 1, 40, 0
3, 44760, Note_on_c, 1, 40, 100
3, 44820, Note_on_c, 1, 40, 0
3, 44820, Note_on_c, 1, 40, 100
3, 44880, Note_on_c, 1, 40, 0
3, 44880, Note_on_c, 1, 38, 100
3, 45000, Note_on_c, 1, 38, 0
3, 45000, Note_on_c, 1, 38, 100
3, 45060, Note_on_c, 1, 38, 0
3, 45060, Note_on_c, 1, 38, 100
3, 45120, Note_on_c, 1, 38, 0
3, 45120, Note_on_c, 1, 40, 100
3, 45240, Note_on_c, 1, 40, 0
3, 45240, Note_on_c, 1, 38, 100
3, 45300, Note_on_c, 1, 38, 0
3, 45300, Note_on_c, 1, 38, 100
3, 45360, Note_on_c, 1, 38, 0
3, 45360, Note_on_c, 1, 40, 100
3, 45480, Note_on_c, 1, 40, 0
3, 45480, Note_on_c, 1, 38, 100
3, 45600, Note_on_c, 1, 38, 0
3, 45600, Note_on_c, 1, 35, 100
3, 45720, Note_on_c, 1, 35, 0
3, 45720, Note_on_c, 1, 31, 100
3, 45840, Note_on_c, 1, 31, 0
3, 45840, Note_on_c, 1, 33, 100
3, 45960, Note_on_c, 1, 33, 0
3, 45960, Note_on_c, 1, 31, 100
3, 46080, Note_on_c, 1, 31, 0
3, 46080, Note_on_c, 1, 28, 100
3, 46320, Note_on_c, 1, 28, 0
3, 46320, Note_on_c, 1, 28, 100
3, 46440, Note_on_c, 1, 28, 0
3, 46440, Note_on_c, 1, 28, 100
3, 46560, Note_on_c, 1, 28, 0
3, 46560, Note_on_c, 1, 40, 100
3, 46680, Note_on_c, 1, 40, 0
3, 46680, Note_on_c, 1, 40, 100
3, 46800, Note_on_c, 1, 40, 0
3, 46800, Note_on_c, 1, 38, 100
3, 47040, Note_on_c, 1, 38, 0
3, 47040, Note_on_c, 1, 40, 100
3, 47160, Note_on_c, 1, 40, 0
3, 47160, Note_on_c, 1, 38, 100
3, 47220, Note_on_c, 1, 38, 0
3, 47220, Note_on_c, 1, 38, 100
3, 47280, Note_on_c, 1, 38, 0
3, 47280, Note_on_c, 1, 40, 100
3, 47400, Note_on_c, 1, 40, 0
3, 47400, Note_on_c, 1, 38, 100
3, 47520, Note_on_c, 1, 38, 0
3, 47520, Note_on_c, 1, 35, 100
3, 47640, Note_on_c, 1, 35, 0
3, 47640, Note_on_c, 1, 31, 100
3, 47760, Note_on_c, 1, 31, 0
3, 47760, Note_on_c, 1, 33, 100
3, 47880, Note_on_c, 1, 33, 0
3, 47880, Note_on_c, 1, 31, 100
3, 48000, Note_on_c, 1, 31, 0
3, 48000, Note_on_c, 1, 33, 100
3, 48120, Note_on_c, 1, 33, 0
3, 48120, Note_on_c, 1, 31, 100
3, 48240, Note_on_c, 1, 31, 0
3, 48240, Note_on_c, 1, 28, 100
3, 50160, Note_on_c, 1, 28, 0
3, 52080, Note_on_c, 1, 38, 100
3, 52140, Note_on_c, 1, 38, 0
3, 52140, Note_on_c, 1, 40, 100
3, 52200, Note_on_c, 1, 40, 0
3, 52200, Note_on_c, 1, 40, 100
3, 52260, Note_on_c, 1, 40, 0
3, 52260, Note_on_c, 1, 40, 100
3, 52320, Note_on_c, 1, 40, 0
3, 52320, Note_on_c, 1, 38, 100
3, 52380, Note_on_c, 1, 38, 0
3, 52380, Note_on_c, 1, 40, 100
3, 52440, Note_on_c, 1, 40, 0
3, 52440, Note_on_c, 1, 40, 100
3, 52500, Note_on_c, 1, 40, 0
3, 52500, Note_on_c, 1, 40, 100
3, 52560, Note_on_c, 1, 40, 0
3, 52560, Note_on_c, 1, 38, 100
3, 52620, Note_on_c, 1, 38, 0
3, 52620, Note_on_c, 1, 40, 100
3, 52680, Note_on_c, 1, 40, 0
3, 52680, Note_on_c, 1, 40, 100
3, 52740, Note_on_c, 1, 40, 0
3, 52740, Note_on_c, 1, 40, 100
3, 52800, Note_on_c, 1, 40, 0
3, 52800, Note_on_c, 1, 38, 100
3, 52860, Note_on_c, 1, 38, 0
3, 52860, Note_on_c, 1, 40, 100
3, 52920, Note_on_c, 1, 40, 0
3, 52920, Note_on_c, 1, 40, 100
3, 52980, Note_on_c, 1, 40, 0
3, 52980, Note_on_c, 1, 40, 100
3, 53040, Note_on_c, 1, 40, 0
3, 53040, Note_on_c, 1, 43, 100
3, 53100, Note_on_c, 1, 43, 0
3, 53100, Note_on_c, 1, 45, 100
3, 53160, Note_on_c, 1, 45, 0
3, 53160, Note_on_c, 1, 45, 100
3, 53220, Note_on_c, 1, 45, 0
3, 53220, Note_on_c, 1, 45, 100
3, 53280, Note_on_c, 1, 45, 0
3, 53280, Note_on_c, 1, 43, 100
3, 53340, Note_on_c, 1, 43, 0
3, 53340, Note_on_c, 1, 45, 100
3, 53400, Note_on_c, 1, 45, 0
3, 53400, Note_on_c, 1, 45, 100
3, 53460, Note_on_c, 1, 45, 0
3, 53460, Note_on_c, 1, 45, 100
3, 53520, Note_on_c, 1, 45, 0
3, 53520, Note_on_c, 1, 45, 100
3, 53640, Note_on_c, 1, 45, 0
3, 53640, Note_on_c, 1, 45, 100
3, 53760, Note_on_c, 1, 45, 0
3, 53760, Note_on_c, 1, 43, 100
3, 53880, Note_on_c, 1, 43, 0
3, 53880, Note_on_c, 1, 45, 100
3, 54000, Note_on_c, 1, 45, 0
3, 54000, Note_on_c, 1, 40, 100
3, 54120, Note_on_c, 1, 40, 0
3, 54120, Note_on_c, 1, 40, 100
3, 54180, Note_on_c, 1, 40, 0
3, 54180, Note_on_c, 1, 40, 100
3, 54240, Note_on_c, 1, 40, 0
3, 54240, Note_on_c, 1, 38, 100
3, 54300, Note_on_c, 1, 38, 0
3, 54300, Note_on_c, 1, 40, 100
3, 54360, Note_on_c, 1, 40, 0
3, 54360, Note_on_c, 1, 40, 100
3, 54420, Note_on_c, 1, 40, 0
3, 54420, Note_on_c, 1, 40, 100
3, 54480, Note_on_c, 1, 40, 0
3, 54480, Note_on_c, 1, 38, 100
3, 54540, Note_on_c, 1, 38, 0
3, 54540, Note_on_c, 1, 40, 100
3, 54600, Note_on_c, 1, 40, 0
3, 54600, Note_on_c, 1, 40, 100
3, 54660, Note_on_c, 1, 40, 0
3, 54660, Note_on_c, 1, 40, 100
3, 54720, Note_on_c, 1, 40, 0
3, 54720, Note_on_c, 1, 38, 100
3, 54840, Note_on_c, 1, 38, 0
3, 54840, Note_on_c, 1, 45, 100
3, 54960, Note_on_c, 1, 45, 0
3, 54960, Note_on_c, 1, 43, 100
3, 55020, Note_on_c, 1, 43, 0
3, 55020, Note_on_c, 1, 45, 100
3, 55080, Note_on_c, 1, 45, 0
3, 55080, Note_on_c, 1, 45, 100
3, 55140, Note_on_c, 1, 45, 0
3, 55140, Note_on_c, 1, 45, 100
3, 55200, Note_on_c, 1, 45, 0
3, 55200, Note_on_c, 1, 45, 100
3, 55260, Note_on_c, 1, 45, 0
3, 55260, Note_on_c, 1, 45, 100
3, 55320, Note_on_c, 1, 45, 0
3, 55320, Note_on_c, 1, 45, 100
3, 55380, Note_on_c, 1, 45, 0
3, 55380, Note_on_c, 1, 45, 100
3, 55440, Note_on_c, 1, 45, 0
3, 55440, Note_on_c, 1, 43, 100
3, 55560, Note_on_c, 1, 43, 0
3, 55560, Note_on_c, 1, 45, 100
3, 55680, Note_on_c, 1, 45, 0
3, 55680, Note_on_c, 1, 43, 100
3, 55800, Note_on_c, 1, 43, 0
3, 55800, Note_on_c, 1, 45, 100
3, 55920, Note_on_c, 1, 45, 0
3, 55920, Note_on_c, 1, 38, 100
3, 55980, Note_on_c, 1, 38, 0
3, 55980, Note_on_c, 1, 40, 100
3, 56040, Note_on_c, 1, 40, 0
3, 56040, Note_on_c, 1, 40, 100
3, 56100, Note_on_c, 1, 40, 0
3, 56100, Note_on_c, 1, 40, 100
3, 56280, Note_on_c, 1, 40, 0
3, 56280, Note_on_c, 1, 45, 100
3, 56400, Note_on_c, 1, 45, 0
3, 56400, Note_on_c, 1, 52, 100
3, 56520, Note_on_c, 1, 52, 0
3, 56520, Note_on_c, 1, 47, 100
3, 56640, Note_on_c, 1, 47, 0
3, 56640, Note_on_c, 1, 52, 100
3, 56760, Note_on_c, 1, 52, 0
3, 56760, Note_on_c, 1, 47, 100
3, 56880, Note_on_c, 1, 47, 0
3, 56880, Note_on_c, 1, 45, 100
3, 57000, Note_on_c, 1, 45, 0
3, 57000, Note_on_c, 1, 45, 100
3, 57060, Note_on_c, 1, 45, 0
3, 57060, Note_on_c, 1, 45, 100
3, 57120, Note_on_c, 1, 45, 0
3, 57120, Note_on_c, 1, 45, 100
3, 57180, Note_on_c, 1, 45, 0
3, 57180, Note_on_c, 1, 45, 100
3, 57240, Note_on_c, 1, 45, 0
3, 57240, Note_on_c, 1, 45, 100
3, 57300, Note_on_c, 1, 45, 0
3, 57300, Note_on_c, 1, 45, 100
3, 57360, Note_on_c, 1, 45, 0
3, 57360, Note_on_c, 1, 45, 100
3, 57480, Note_on_c, 1, 45, 0
3, 57480, Note_on_c, 1, 43, 100
3, 57600, Note_on_c, 1, 43, 0
3, 57600, Note_on_c, 1, 43, 100
3, 57720, Note_on_c, 1, 43, 0
3, 57720, Note_on_c, 1, 45, 100
3, 57840, Note_on_c, 1, 45, 0
3, 57840, Note_on_c, 1, 40, 100
3, 57960, Note_on_c, 1, 40, 0
3, 57960, Note_on_c, 1, 40, 100
3, 58020, Note_on_c, 1, 40, 0
3, 58020, Note_on_c, 1, 40, 100
3, 58080, Note_on_c, 1, 40, 0
3, 58080, Note_on_c, 1, 40, 100
3, 58140, Note_on_c, 1, 40, 0
3, 58140, Note_on_c, 1, 40, 100
3, 58200, Note_on_c, 1, 40, 0
3, 58200, Note_on_c, 1, 38, 100
3, 58260, Note_on_c, 1, 38, 0
3, 58260, Note_on_c, 1, 38, 100
3, 58320, Note_on_c, 1, 38, 0
3, 58320, Note_on_c, 1, 40, 100
3, 58560, Note_on_c, 1, 40, 0
3, 58560, Note_on_c, 1, 38, 100
3, 58680, Note_on_c, 1, 38, 0
3, 58680, Note_on_c, 1, 40, 100
3, 58800, Note_on_c, 1, 40, 0
3, 58800, Note_on_c, 1, 43, 100
3, 58860, Note_on_c, 1, 43, 0
3, 58860, Note_on_c, 1, 45, 100
3, 58920, Note_on_c, 1, 45, 0
3, 58920, Note_on_c, 1, 45, 100
3, 58980, Note_on_c, 1, 45, 0
3, 58980, Note_on_c, 1, 45, 100
3, 59040, Note_on_c, 1, 45, 0
3, 59040, Note_on_c, 1, 45, 100
3, 59100, Note_on_c, 1, 45, 0
3, 59100, Note_on_c, 1, 45, 100
3, 59160, Note_on_c, 1, 45, 0
3, 59160, Note_on_c, 1, 45, 100
3, 59220, Note_on_c, 1, 45, 0
3, 59220, Note_on_c, 1, 45, 100
3, 59280, Note_on_c, 1, 45, 0
3, 59280, Note_on_c, 1, 45, 100
3, 59400, Note_on_c, 1, 45, 0
3, 59400, Note_on_c, 1, 45, 100
3, 59520, Note_on_c, 1, 45, 0
3, 59520, Note_on_c, 1, 43, 100
3, 59640, Note_on_c, 1, 43, 0
3, 59640, Note_on_c, 1, 43, 100
3, 59760, Note_on_c, 1, 43, 0
3, 59760, Note_on_c, 1, 40, 100
3, 59880, Note_on_c, 1, 40, 0
3, 59880, Note_on_c, 1, 40, 100
3, 60000, Note_on_c, 1, 40, 0
3, 60000, Note_on_c, 1, 40, 100
3, 60120, Note_on_c, 1, 40, 0
3, 60120, Note_on_c, 1, 40, 100
3, 60240, Note_on_c, 1, 40, 0
3, 60240, Note_on_c, 1, 40, 100
3, 60360, Note_on_c, 1, 40, 0
3, 60360, Note_on_c, 1, 52, 100
3, 60420, Note_on_c, 1, 52, 0
3, 60420, Note_on_c, 1, 52, 100
3, 60480, Note_on_c, 1, 52, 0
3, 60480, Note_on_c, 1, 47, 100
3, 60540, Note_on_c, 1, 47, 0
3, 60540, Note_on_c, 1, 47, 100
3, 60600, Note_on_c, 1, 47, 0
3, 60600, Note_on_c, 1, 52, 100
3, 60720, Note_on_c, 1, 52, 0
3, 60720, Note_on_c, 1, 45, 100
3, 60840, Note_on_c, 1, 45, 0
3, 60840, Note_on_c, 1, 45, 100
3, 60900, Note_on_c, 1, 45, 0
3, 60900, Note_on_c, 1, 45, 100
3, 60960, Note_on_c, 1, 45, 0
3, 60960, Note_on_c, 1, 45, 100
3, 61020, Note_on_c, 1, 45, 0
3, 61020, Note_on_c, 1, 45, 100
3, 61080, Note_on_c, 1, 45, 0
3, 61080, Note_on_c, 1, 45, 100
3, 61140, Note_on_c, 1, 45, 0
3, 61140, Note_on_c, 1, 45, 100
3, 61200, Note_on_c, 1, 45, 0
3, 61200, Note_on_c, 1, 45, 100
3, 61320, Note_on_c, 1, 45, 0
3, 61320, Note_on_c, 1, 43, 100
3, 61440, Note_on_c, 1, 43, 0
3, 61440, Note_on_c, 1, 43, 100
3, 61560, Note_on_c, 1, 43, 0
3, 61560, Note_on_c, 1, 45, 100
3, 61680, Note_on_c, 1, 45, 0
3, 61680, Note_on_c, 1, 40, 100
3, 61800, Note_on_c, 1, 40, 0
3, 61800, Note_on_c, 1, 40, 100
3, 61860, Note_on_c, 1, 40, 0
3, 61860, Note_on_c, 1, 28, 100
3, 61920, Note_on_c, 1, 28, 0
3, 61920, Note_on_c, 1, 40, 100
3, 62040, Note_on_c, 1, 40, 0
3, 62040, Note_on_c, 1, 40, 100
3, 62160, Note_on_c, 1, 40, 0
3, 62160, Note_on_c, 1, 40, 100
3, 62280, Note_on_c, 1, 40, 0
3, 62280, Note_on_c, 1, 40, 100
3, 62340, Note_on_c, 1, 40, 0
3, 62340, Note_on_c, 1, 40, 100
3, 62400, Note_on_c, 1, 40, 0
3, 62400, Note_on_c, 1, 40, 100
3, 62460, Note_on_c, 1, 40, 0
3, 62460, Note_on_c, 1, 40, 100
3, 62520, Note_on_c, 1, 40, 0
3, 62520, Note_on_c, 1, 40, 100
3, 62640, Note_on_c, 1, 40, 0
3, 62640, Note_on_c, 1, 57, 100
3, 62760, Note_on_c, 1, 57, 0
3, 62760, Note_on_c, 1, 57, 100
3, 62820, Note_on_c, 1, 57, 0
3, 62820, Note_on_c, 1, 57, 100
3, 62880, Note_on_c, 1, 57, 0
3, 62880, Note_on_c, 1, 57, 100
3, 62940, Note_on_c, 1, 57, 0
3, 62940, Note_on_c, 1, 57, 100
3, 63000, Note_on_c, 1, 57, 0
3, 63000, Note_on_c, 1, 57, 100
3, 63060, Note_on_c, 1, 57, 0
3, 63060, Note_on_c, 1, 57, 100
3, 63120, Note_on_c, 1, 57, 0
3, 63120, Note_on_c, 1, 55, 100
3, 63240, Note_on_c, 1, 55, 0
3, 63240, Note_on_c, 1, 57, 100
3, 63360, Note_on_c, 1, 57, 0
3, 63360, Note_on_c, 1, 55, 100
3, 63480, Note_on_c, 1, 55, 0
3, 63480, Note_on_c, 1, 57, 100
3, 63600, Note_on_c, 1, 57, 0
3, 63600, Note_on_c, 1, 28, 100
3, 65520, Note_on_c, 1, 28, 0
3, 65520, Note_on_c, 1, 28, 100
3, 65640, Note_on_c, 1, 28, 0
3, 65640, Note_on_c, 1, 28, 100
3, 65760, Note_on_c, 1, 28, 0
3, 65760, Note_on_c, 1, 28, 100
3, 65880, Note_on_c, 1, 28, 0
3, 65880, Note_on_c, 1, 28, 100
3, 66000, Note_on_c, 1, 28, 0
3, 66000, Note_on_c, 1, 28, 100
3, 66120, Note_on_c, 1, 28, 0
3, 66120, Note_on_c, 1, 28, 100
3, 66240, Note_on_c, 1, 28, 0
3, 66240, Note_on_c, 1, 28, 100
3, 66360, Note_on_c, 1, 28, 0
3, 66360, Note_on_c, 1, 28, 100
3, 66480, Note_on_c, 1, 28, 0
3, 66480, Note_on_c, 1, 40, 100
3, 66600, Note_on_c, 1, 40, 0
3, 66600, Note_on_c, 1, 40, 100
3, 66720, Note_on_c, 1, 40, 0
3, 66720, Note_on_c, 1, 40, 100
3, 66840, Note_on_c, 1, 40, 0
3, 66840, Note_on_c, 1, 40, 100
3, 66960, Note_on_c, 1, 40, 0
3, 66960, Note_on_c, 1, 40, 100
3, 67080, Note_on_c, 1, 40, 0
3, 67080, Note_on_c, 1, 40, 100
3, 67200, Note_on_c, 1, 40, 0
3, 67200, Note_on_c, 1, 40, 100
3, 67320, Note_on_c, 1, 40, 0
3, 67320, Note_on_c, 1, 40, 100
3, 67440, Note_on_c, 1, 40, 0
3, 67440, Note_on_c, 1, 40, 100
3, 67920, Note_on_c, 1, 40, 0
3, 67920, Note_on_c, 1, 40, 100
3, 68040, Note_on_c, 1, 40, 0
3, 68040, Note_on_c, 1, 40, 100
3, 68160, Note_on_c, 1, 40, 0
3, 68160, Note_on_c, 1, 40, 100
3, 68280, Note_on_c, 1, 40, 0
3, 68280, Note_on_c, 1, 40, 100
3, 68400, Note_on_c, 1, 40, 0
3, 68400, Note_on_c, 1, 38, 100
3, 68460, Note_on_c, 1, 38, 0
3, 68460, Note_on_c, 1, 40, 100
3, 68520, Note_on_c, 1, 40, 0
3, 68520, Note_on_c, 1, 40, 100
3, 68580, Note_on_c, 1, 40, 0
3, 68580, Note_on_c, 1, 40, 100
3, 68640, Note_on_c, 1, 40, 0
3, 68640, Note_on_c, 1, 40, 100
3, 68760, Note_on_c, 1, 40, 0
3, 68760, Note_on_c, 1, 38, 100
3, 68880, Note_on_c, 1, 38, 0
3, 68880, Note_on_c, 1, 40, 100
3, 69000, Note_on_c, 1, 40, 0
3, 69000, Note_on_c, 1, 38, 100
3, 69120, Note_on_c, 1, 38, 0
3, 69120, Note_on_c, 1, 33, 100
3, 69180, Note_on_c, 1, 33, 0
3, 69180, Note_on_c, 1, 33, 100
3, 69240, Note_on_c, 1, 33, 0
3, 69240, Note_on_c, 1, 31, 100
3, 69360, Note_on_c, 1, 31, 0
3, 69360, Note_on_c, 1, 33, 100
3, 69480, Note_on_c, 1, 33, 0
3, 69480, Note_on_c, 1, 31, 100
3, 69600, Note_on_c, 1, 31, 0
3, 69600, Note_on_c, 1, 28, 100
3, 69840, Note_on_c, 1, 28, 0
3, 69840, Note_on_c, 1, 40, 100
3, 69960, Note_on_c, 1, 40, 0
3, 69960, Note_on_c, 1, 40, 100
3, 70020, Note_on_c, 1, 40, 0
3, 70020, Note_on_c, 1, 40, 100
3, 70080, Note_on_c, 1, 40, 0
3, 70080, Note_on_c, 1, 38, 100
3, 70320, Note_on_c, 1, 38, 0
3, 70320, Note_on_c, 1, 40, 100
3, 70440, Note_on_c, 1, 40, 0
3, 70440, Note_on_c, 1, 40, 100
3, 70500, Note_on_c, 1, 40, 0
3, 70500, Note_on_c, 1, 40, 100
3, 70560, Note_on_c, 1, 40, 0
3, 70560, Note_on_c, 1, 40, 100
3, 70680, Note_on_c, 1, 40, 0
3, 70680, Note_on_c, 1, 38, 100
3, 70800, Note_on_c, 1, 38, 0
3, 70800, Note_on_c, 1, 40, 100
3, 70920, Note_on_c, 1, 40, 0
3, 70920, Note_on_c, 1, 38, 100
3, 71040, Note_on_c, 1, 38, 0
3, 71040, Note_on_c, 1, 35, 100
3, 71160, Note_on_c, 1, 35, 0
3, 71160, Note_on_c, 1, 31, 100
3, 71280, Note_on_c, 1, 31, 0
3, 71280, Note_on_c, 1, 33, 100
3, 71400, Note_on_c, 1, 33, 0
3, 71400, Note_on_c, 1, 31, 100
3, 71520, Note_on_c, 1, 31, 0
3, 71520, Note_on_c, 1, 28, 100
3, 71760, Note_on_c, 1, 28, 0
3, 71760, Note_on_c, 1, 28, 100
3, 72000, Note_on_c, 1, 28, 0
3, 72000, Note_on_c, 1, 40, 100
3, 72120, Note_on_c, 1, 40, 0
3, 72120, Note_on_c, 1, 40, 100
3, 72240, Note_on_c, 1, 40, 0
3, 72240, Note_on_c, 1, 38, 100
3, 72360, Note_on_c, 1, 38, 0
3, 72360, Note_on_c, 1, 40, 100
3, 72480, Note_on_c, 1, 40, 0
3, 72480, Note_on_c, 1, 38, 100
3, 72720, Note_on_c, 1, 38, 0
3, 72720, Note_on_c, 1, 40, 100
3, 72840, Note_on_c, 1, 40, 0
3, 72840, Note_on_c, 1, 38, 100
3, 72960, Note_on_c, 1, 38, 0
3, 72960, Note_on_c, 1, 35, 100
3, 73080, Note_on_c, 1, 35, 0
3, 73080, Note_on_c, 1, 31, 100
3, 73200, Note_on_c, 1, 31, 0
3, 73200, Note_on_c, 1, 33, 100
3, 73320, Note_on_c, 1, 33, 0
3, 73320, Note_on_c, 1, 31, 100
3, 73440, Note_on_c, 1, 31, 0
3, 73440, Note_on_c, 1, 28, 100
3, 73680, Note_on_c, 1, 28, 0
3, 73680, Note_on_c, 1, 28, 100
3, 73920, Note_on_c, 1, 28, 0
3, 73920, Note_on_c, 1, 40, 100
3, 74040, Note_on_c, 1, 40, 0
3, 74040, Note_on_c, 1, 40, 100
3, 74160, Note_on_c, 1, 40, 0
3, 74160, Note_on_c, 1, 38, 100
3, 74340, Note_on_c, 1, 38, 0
3, 74340, Note_on_c, 1, 38, 100
3, 74400, Note_on_c, 1, 38, 0
3, 74400, Note_on_c, 1, 40, 100
3, 74520, Note_on_c, 1, 40, 0
3, 74520, Note_on_c, 1, 38, 100
3, 74640, Note_on_c, 1, 38, 0
3, 74640, Note_on_c, 1, 40, 100
3, 74760, Note_on_c, 1, 40, 0
3, 74760, Note_on_c, 1, 38, 100
3, 74880, Note_on_c, 1, 38, 0
3, 74880, Note_on_c, 1, 35, 100
3, 75000, Note_on_c, 1, 35, 0
3, 75000, Note_on_c, 1, 31, 100
3, 75120, Note_on_c, 1, 31, 0
3, 75120, Note_on_c, 1, 33, 100
3, 75240, Note_on_c, 1, 33, 0
3, 75240, Note_on_c, 1, 31, 100
3, 75360, Note_on_c, 1, 31, 0
3, 75360, Note_on_c, 1, 28, 100
3, 75600, Note_on_c, 1, 28, 0
3, 75600, Note_on_c, 1, 28, 100
3, 75840, Note_on_c, 1, 28, 0
3, 75840, Note_on_c, 1, 40, 100
3, 75960, Note_on_c, 1, 40, 0
3, 75960, Note_on_c, 1, 40, 100
3, 76080, Note_on_c, 1, 40, 0
3, 76080, Note_on_c, 1, 38, 100
3, 76200, Note_on_c, 1, 38, 0
3, 76200, Note_on_c, 1, 38, 100
3, 76260, Note_on_c, 1, 38, 0
3, 76260, Note_on_c, 1, 38, 100
3, 76320, Note_on_c, 1, 38, 0
3, 76320, Note_on_c, 1, 40, 100
3, 76440, Note_on_c, 1, 40, 0
3, 76440, Note_on_c, 1, 38, 100
3, 76500, Note_on_c, 1, 38, 0
3, 76500, Note_on_c, 1, 38, 100
3, 76560, Note_on_c, 1, 38, 0
3, 76560, Note_on_c, 1, 40, 100
3, 76680, Note_on_c, 1, 40, 0
3, 76680, Note_on_c, 1, 38, 100
3, 76800, Note_on_c, 1, 38, 0
3, 76800, Note_on_c, 1, 35, 100
3, 76920, Note_on_c, 1, 35, 0
3, 76920, Note_on_c, 1, 31, 100
3, 77040, Note_on_c, 1, 31, 0
3, 77040, Note_on_c, 1, 33, 100
3, 77160, Note_on_c, 1, 33, 0
3, 77160, Note_on_c, 1, 31, 100
3, 77280, Note_on_c, 1, 31, 0
3, 77280, Note_on_c, 1, 28, 100
3, 77520, Note_on_c, 1, 28, 0
3, 77520, Note_on_c, 1, 28, 100
3, 77760, Note_on_c, 1, 28, 0
3, 77760, Note_on_c, 1, 40, 100
3, 77880, Note_on_c, 1, 40, 0
3, 77880, Note_on_c, 1, 40, 100
3, 78000, Note_on_c, 1, 40, 0
3, 78000, Note_on_c, 1, 38, 100
3, 78180, Note_on_c, 1, 38, 0
3, 78180, Note_on_c, 1, 38, 100
3, 78240, Note_on_c, 1, 38, 0
3, 78240, Note_on_c, 1, 40, 100
3, 78360, Note_on_c, 1, 40, 0
3, 78360, Note_on_c, 1, 38, 100
3, 78480, Note_on_c, 1, 38, 0
3, 78480, Note_on_c, 1, 40, 100
3, 78600, Note_on_c, 1, 40, 0
3, 78600, Note_on_c, 1, 38, 100
3, 78720, Note_on_c, 1, 38, 0
3, 78720, Note_on_c, 1, 35, 100
3, 78840, Note_on_c, 1, 35, 0
3, 78840, Note_on_c, 1, 31, 100
3, 78960, Note_on_c, 1, 31, 0
3, 78960, Note_on_c, 1, 33, 100
3, 79080, Note_on_c, 1, 33, 0
3, 79080, Note_on_c, 1, 31, 100
3, 79200, Note_on_c, 1, 31, 0
3, 79200, Note_on_c, 1, 28, 100
3, 79440, Note_on_c, 1, 28, 0
3, 79440, Note_on_c, 1, 28, 100
3, 79680, Note_on_c, 1, 28, 0
3, 79680, Note_on_c, 1, 40, 100
3, 79800, Note_on_c, 1, 40, 0
3, 79800, Note_on_c, 1, 40, 100
3, 79920, Note_on_c, 1, 40, 0
3, 79920, Note_on_c, 1, 38, 100
3, 80040, Note_on_c, 1, 38, 0
3, 80040, Note_on_c, 1, 38, 100
3, 80100, Note_on_c, 1, 38, 0
3, 80100, Note_on_c, 1, 38, 100
3, 80160, Note_on_c, 1, 38, 0
3, 80160, Note_on_c, 1, 40, 100
3, 80280, Note_on_c, 1, 40, 0
3, 80280, Note_on_c, 1, 38, 100
3, 80340, Note_on_c, 1, 38, 0
3, 80340, Note_on_c, 1, 38, 100
3, 80400, Note_on_c, 1, 38, 0
3, 80400, Note_on_c, 1, 40, 100
3, 80520, Note_on_c, 1, 40, 0
3, 80520, Note_on_c, 1, 38, 100
3, 80640, Note_on_c, 1, 38, 0
3, 80640, Note_on_c, 1, 35, 100
3, 80760, Note_on_c, 1, 35, 0
3, 80760, Note_on_c, 1, 31, 100
3, 80880, Note_on_c, 1, 31, 0
3, 80880, Note_on_c, 1, 33, 100
3, 81000, Note_on_c, 1, 33, 0
3, 81000, Note_on_c, 1, 31, 100
3, 81120, Note_on_c, 1, 31, 0
3, 81120, Note_on_c, 1, 28, 100
3, 81360, Note_on_c, 1, 28, 0
3, 81360, Note_on_c, 1, 28, 100
3, 81600, Note_on_c, 1, 28, 0
3, 81600, Note_on_c, 1, 40, 100
3, 81720, Note_on_c, 1, 40, 0
3, 81720, Note_on_c, 1, 40, 100
3, 81840, Note_on_c, 1, 40, 0
3, 81840, Note_on_c, 1, 38, 100
3, 81960, Note_on_c, 1, 38, 0
3, 81960, Note_on_c, 1, 38, 100
3, 82020, Note_on_c, 1, 38, 0
3, 82020, Note_on_c, 1, 38, 100
3, 82080, Note_on_c, 1, 38, 0
3, 82080, Note_on_c, 1, 40, 100
3, 82200, Note_on_c, 1, 40, 0
3, 82200, Note_on_c, 1, 38, 100
3, 82320, Note_on_c, 1, 38, 0
3, 82320, Note_on_c, 1, 40, 100
3, 82440, Note_on_c, 1, 40, 0
3, 82440, Note_on_c, 1, 38, 100
3, 82560, Note_on_c, 1, 38, 0
3, 82560, Note_on_c, 1, 35, 100
3, 82680, Note_on_c, 1, 35, 0
3, 82680, Note_on_c, 1, 31, 100
3, 82800, Note_on_c, 1, 31, 0
3, 82800, Note_on_c, 1, 33, 100
3, 82920, Note_on_c, 1, 33, 0
3, 82920, Note_on_c, 1, 31, 100
3, 83040, Note_on_c, 1, 31, 0
3, 83040, Note_on_c, 1, 28, 100
3, 83280, Note_on_c, 1, 28, 0
3, 83280, Note_on_c, 1, 28, 100
3, 83520, Note_on_c, 1, 28, 0
3, 83520, Note_on_c, 1, 40, 100
3, 83640, Note_on_c, 1, 40, 0
3, 83640, Note_on_c, 1, 40, 100
3, 83760, Note_on_c, 1, 40, 0
3, 83760, Note_on_c, 1, 38, 100
3, 84000, Note_on_c, 1, 38, 0
3, 84000, Note_on_c, 1, 40, 100
3, 84120, Note_on_c, 1, 40, 0
3, 84120, Note_on_c, 1, 38, 100
3, 84240, Note_on_c, 1, 38, 0
3, 84240, Note_on_c, 1, 40, 100
3, 84360, Note_on_c, 1, 40, 0
3, 84360, Note_on_c, 1, 38, 100
3, 84480, Note_on_c, 1, 38, 0
3, 84480, Note_on_c, 1, 35, 100
3, 84600, Note_on_c, 1, 35, 0
3, 84600, Note_on_c, 1, 31, 100
3, 84720, Note_on_c, 1, 31, 0
3, 84720, Note_on_c, 1, 33, 100
3, 84840, Note_on_c, 1, 33, 0
3, 84840, Note_on_c, 1, 31, 100
3, 84960, Note_on_c, 1, 31, 0
3, 84960, Note_on_c, 1, 28, 100
3, 85200, Note_on_c, 1, 28, 0
3, 85200, Note_on_c, 1, 28, 100
3, 85440, Note_on_c, 1, 28, 0
3, 85440, Note_on_c, 1, 40, 100
3, 85560, Note_on_c, 1, 40, 0
3, 85560, Note_on_c, 1, 40, 100
3, 85680, Note_on_c, 1, 40, 0
3, 85680, Note_on_c, 1, 38, 100
3, 85920, Note_on_c, 1, 38, 0
3, 85920, Note_on_c, 1, 40, 100
3, 86040, Note_on_c, 1, 40, 0
3, 86040, Note_on_c, 1, 38, 100
3, 86160, Note_on_c, 1, 38, 0
3, 86160, Note_on_c, 1, 40, 100
3, 86280, Note_on_c, 1, 40, 0
3, 86280, Note_on_c, 1, 38, 100
3, 86400, Note_on_c, 1, 38, 0
3, 86400, Note_on_c, 1, 35, 100
3, 86520, Note_on_c, 1, 35, 0
3, 86520, Note_on_c, 1, 31, 100
3, 86640, Note_on_c, 1, 31, 0
3, 86640, Note_on_c, 1, 33, 100
3, 86760, Note_on_c, 1, 33, 0
3, 86760, Note_on_c, 1, 31, 100
3, 86880, Note_on_c, 1, 31, 0
3, 86880, Note_on_c, 1, 28, 100
3, 87120, Note_on_c, 1, 28, 0
3, 87120, Note_on_c, 1, 40, 100
3, 87240, Note_on_c, 1, 40, 0
3, 87240, Note_on_c, 1, 35, 100
3, 87300, Note_on_c, 1, 35, 0
3, 87300, Note_on_c, 1, 35, 100
3, 87360, Note_on_c, 1, 35, 0
3, 87360, Note_on_c, 1, 38, 100
3, 87480, Note_on_c, 1, 38, 0
3, 87480, Note_on_c, 1, 40, 100
3, 87600, Note_on_c, 1, 40, 0
3, 87600, Note_on_c, 1, 43, 100
3, 87720, Note_on_c, 1, 43, 0
3, 87720, Note_on_c, 1, 40, 100
3, 87840, Note_on_c, 1, 40, 0
3, 87840, Note_on_c, 1, 35, 100
3, 87960, Note_on_c, 1, 35, 0
3, 87960, Note_on_c, 1, 38, 100
3, 88080, Note_on_c, 1, 38, 0
3, 88080, Note_on_c, 1, 40, 100
3, 88200, Note_on_c, 1, 40, 0
3, 88200, Note_on_c, 1, 35, 100
3, 88320, Note_on_c, 1, 35, 0
3, 88320, Note_on_c, 1, 38, 100
3, 88440, Note_on_c, 1, 38, 0
3, 88440, Note_on_c, 1, 40, 100
3, 88560, Note_on_c, 1, 40, 0
3, 88560, Note_on_c, 1, 45, 100
3, 88680, Note_on_c, 1, 45, 0
3, 88680, Note_on_c, 1, 43, 100
3, 88800, Note_on_c, 1, 43, 0
3, 88800, Note_on_c, 1, 45, 100
3, 88920, Note_on_c, 1, 45, 0
3, 88920, Note_on_c, 1, 43, 100
3, 89040, Note_on_c, 1, 43, 0
3, 89040, Note_on_c, 1, 40, 100
3, 89160, Note_on_c, 1, 40, 0
3, 89160, Note_on_c, 1, 35, 100
3, 89220, Note_on_c, 1, 35, 0
3, 89220, Note_on_c, 1, 35, 100
3, 89280, Note_on_c, 1, 35, 0
3, 89280, Note_on_c, 1, 38, 100
3, 89400, Note_on_c, 1, 38, 0
3, 89400, Note_on_c, 1, 40, 100
3, 89520, Note_on_c, 1, 40, 0
3, 89520, Note_on_c, 1, 43, 100
3, 89640, Note_on_c, 1, 43, 0
3, 89640, Note_on_c, 1, 40, 100
3, 89760, Note_on_c, 1, 40, 0
3, 89760, Note_on_c, 1, 35, 100
3, 89880, Note_on_c, 1, 35, 0
3, 89880, Note_on_c, 1, 38, 100
3, 90000, Note_on_c, 1, 38, 0
3, 90000, Note_on_c, 1, 40, 100
3, 90120, Note_on_c, 1, 40, 0
3, 90120, Note_on_c, 1, 35, 100
3, 90240, Note_on_c, 1, 35, 0
3, 90240, Note_on_c, 1, 38, 100
3, 90360, Note_on_c, 1, 38, 0
3, 90360, Note_on_c, 1, 40, 100
3, 90420, Note_on_c, 1, 40, 0
3, 90420, Note_on_c, 1, 40, 100
3, 90480, Note_on_c, 1, 40, 0
3, 90480, Note_on_c, 1, 45, 100
3, 90600, Note_on_c, 1, 45, 0
3, 90600, Note_on_c, 1, 40, 100
3, 90660, Note_on_c, 1, 40, 0
3, 90660, Note_on_c, 1, 40, 100
3, 90720, Note_on_c, 1, 40, 0
3, 90720, Note_on_c, 1, 45, 100
3, 90780, Note_on_c, 1, 45, 0
3, 90780, Note_on_c, 1, 45, 100
3, 90840, Note_on_c, 1, 45, 0
3, 90840, Note_on_c, 1, 47, 100
3, 90960, Note_on_c, 1, 47, 0
3, 90960, Note_on_c, 1, 40, 100
3, 91080, Note_on_c, 1, 40, 0
3, 91080, Note_on_c, 1, 35, 100
3, 91140, Note_on_c, 1, 35, 0
3, 91140, Note_on_c, 1, 35, 100
3, 91200, Note_on_c, 1, 35, 0
3, 91200, Note_on_c, 1, 38, 100
3, 91320, Note_on_c, 1, 38, 0
3, 91320, Note_on_c, 1, 40, 100
3, 91440, Note_on_c, 1, 40, 0
3, 91440, Note_on_c, 1, 43, 100
3, 91560, Note_on_c, 1, 43, 0
3, 91560, Note_on_c, 1, 40, 100
3, 91680, Note_on_c, 1, 40, 0
3, 91680, Note_on_c, 1, 35, 100
3, 91800, Note_on_c, 1, 35, 0
3, 91800, Note_on_c, 1, 38, 100
3, 91920, Note_on_c, 1, 38, 0
3, 91920, Note_on_c, 1, 40, 100
3, 92040, Note_on_c, 1, 40, 0
3, 92040, Note_on_c, 1, 35, 100
3, 92160, Note_on_c, 1, 35, 0
3, 92160, Note_on_c, 1, 38, 100
3, 92280, Note_on_c, 1, 38, 0
3, 92280, Note_on_c, 1, 40, 100
3, 92400, Note_on_c, 1, 40, 0
3, 92400, Note_on_c, 1, 45, 100
3, 92520, Note_on_c, 1, 45, 0
3, 92520, Note_on_c, 1, 40, 100
3, 92580, Note_on_c, 1, 40, 0
3, 92580, Note_on_c, 1, 40, 100
3, 92640, Note_on_c, 1, 40, 0
3, 92640, Note_on_c, 1, 45, 100
3, 92760, Note_on_c, 1, 45, 0
3, 92760, Note_on_c, 1, 43, 100
3, 92880, Note_on_c, 1, 43, 0
3, 92880, Note_on_c, 1, 40, 100
3, 93000, Note_on_c, 1, 40, 0
3, 93000, Note_on_c, 1, 35, 100
3, 93060, Note_on_c, 1, 35, 0
3, 93060, Note_on_c, 1, 35, 100
3, 93120, Note_on_c, 1, 35, 0
3, 93120, Note_on_c, 1, 38, 100
3, 93240, Note_on_c, 1, 38, 0
3, 93240, Note_on_c, 1, 40, 100
3, 93360, Note_on_c, 1, 40, 0
3, 93360, Note_on_c, 1, 43, 100
3, 93480, Note_on_c, 1, 43, 0
3, 93480, Note_on_c, 1, 40, 100
3, 93600, Note_on_c, 1, 40, 0
3, 93600, Note_on_c, 1, 35, 100
3, 93720, Note_on_c, 1, 35, 0
3, 93720, Note_on_c, 1, 38, 100
3, 93840, Note_on_c, 1, 38, 0
3, 93840, Note_on_c, 1, 40, 100
3, 93960, Note_on_c, 1, 40, 0
3, 93960, Note_on_c, 1, 35, 100
3, 94080, Note_on_c, 1, 35, 0
3, 94080, Note_on_c, 1, 38, 100
3, 94200, Note_on_c, 1, 38, 0
3, 94200, Note_on_c, 1, 40, 100
3, 94320, Note_on_c, 1, 40, 0
3, 94320, Note_on_c, 1, 45, 100
3, 94440, Note_on_c, 1, 45, 0
3, 94440, Note_on_c, 1, 40, 100
3, 94500, Note_on_c, 1, 40, 0
3, 94500, Note_on_c, 1, 40, 100
3, 94560, Note_on_c, 1, 40, 0
3, 94560, Note_on_c, 1, 45, 100
3, 94680, Note_on_c, 1, 45, 0
3, 94680, Note_on_c, 1, 45, 100
3, 94740, Note_on_c, 1, 45, 0
3, 94740, Note_on_c, 1, 47, 100
3, 94800, Note_on_c, 1, 47, 0
3, 94800, Note_on_c, 1, 40, 100
3, 94920, Note_on_c, 1, 40, 0
3, 94920, Note_on_c, 1, 35, 100
3, 94980, Note_on_c, 1, 35, 0
3, 94980, Note_on_c, 1, 35, 100
3, 95040, Note_on_c, 1, 35, 0
3, 95040, Note_on_c, 1, 38, 100
3, 95160, Note_on_c, 1, 38, 0
3, 95160, Note_on_c, 1, 40, 100
3, 95280, Note_on_c, 1, 40, 0
3, 95280, Note_on_c, 1, 43, 100
3, 95400, Note_on_c, 1, 43, 0
3, 95400, Note_on_c, 1, 40, 100
3, 95520, Note_on_c, 1, 40, 0
3, 95520, Note_on_c, 1, 35, 100
3, 95640, Note_on_c, 1, 35, 0
3, 95640, Note_on_c, 1, 38, 100
3, 95760, Note_on_c, 1, 38, 0
3, 95760, Note_on_c, 1, 40, 100
3, 95880, Note_on_c, 1, 40, 0
3, 95880, Note_on_c, 1, 35, 100
3, 96000, Note_on_c, 1, 35, 0
3, 96000, Note_on_c, 1, 38, 100
3, 96120, Note_on_c, 1, 38, 0
3, 96120, Note_on_c, 1, 40, 100
3, 96240, Note_on_c, 1, 40, 0
3, 96240, Note_on_c, 1, 43, 100
3, 96360, Note_on_c, 1, 43, 0
3, 96360, Note_on_c, 1, 38, 100
3, 96480, Note_on_c, 1, 38, 0
3, 96480, Note_on_c, 1, 43, 100
3, 96600, Note_on_c, 1, 43, 0
3, 96600, Note_on_c, 1, 42, 100
3, 96720, Note_on_c, 1, 42, 0
3, 96720, Note_on_c, 1, 40, 100
3, 96960, Note_on_c, 1, 40, 0
3, 96960, Note_on_c, 1, 38, 100
3, 97200, Note_on_c, 1, 38, 0
3, 97200, Note_on_c, 1, 40, 100
3, 97920, Note_on_c, 1, 40, 0
3, 98400, Note_on_c, 1, 45, 100
3, 98460, Note_on_c, 1, 45, 0
3, 98460, Note_on_c, 1, 45, 100
3, 98520, Note_on_c, 1, 45, 0
3, 98520, Note_on_c, 1, 45, 100
3, 98580, Note_on_c, 1, 45, 0
3, 98580, Note_on_c, 1, 45, 100
3, 98700, Note_on_c, 1, 45, 0
3, 98700, Note_on_c, 1, 45, 100
3, 98760, Note_on_c, 1, 45, 0
3, 98760, Note_on_c, 1, 45, 100
3, 98820, Note_on_c, 1, 45, 0
3, 98820, Note_on_c, 1, 45, 100
3, 98880, Note_on_c, 1, 45, 0
3, 98880, Note_on_c, 1, 45, 100
3, 98940, Note_on_c, 1, 45, 0
3, 98940, Note_on_c, 1, 46, 100
3, 99000, Note_on_c, 1, 46, 0
3, 99000, Note_on_c, 1, 45, 100
3, 99120, Note_on_c, 1, 45, 0
3, 99120, Note_on_c, 1, 43, 100
3, 99240, Note_on_c, 1, 43, 0
3, 99240, Note_on_c, 1, 45, 100
3, 99360, Note_on_c, 1, 45, 0
3, 99360, Note_on_c, 1, 40, 100
3, 99420, Note_on_c, 1, 40, 0
3, 99420, Note_on_c, 1, 41, 100
3, 99480, Note_on_c, 1, 41, 0
3, 99480, Note_on_c, 1, 40, 100
3, 99540, Note_on_c, 1, 40, 0
3, 99540, Note_on_c, 1, 40, 100
3, 99660, Note_on_c, 1, 40, 0
3, 99660, Note_on_c, 1, 40, 100
3, 99720, Note_on_c, 1, 40, 0
3, 99720, Note_on_c, 1, 40, 100
3, 99780, Note_on_c, 1, 40, 0
3, 99780, Note_on_c, 1, 40, 100
3, 99840, Note_on_c, 1, 40, 0
3, 99840, Note_on_c, 1, 40, 100
3, 99900, Note_on_c, 1, 40, 0
3, 99900, Note_on_c, 1, 41, 100
3, 99960, Note_on_c, 1, 41, 0
3, 99960, Note_on_c, 1, 40, 100
3, 100080, Note_on_c, 1, 40, 0
3, 100080, Note_on_c, 1, 40, 100
3, 100140, Note_on_c, 1, 40, 0
3, 100140, Note_on_c, 1, 41, 100
3, 100200, Note_on_c, 1, 41, 0
3, 100200, Note_on_c, 1, 40, 100
3, 100320, Note_on_c, 1, 40, 0
3, 100320, Note_on_c, 1, 45, 100
3, 100380, Note_on_c, 1, 45, 0
3, 100380, Note_on_c, 1, 45, 100
3, 100440, Note_on_c, 1, 45, 0
3, 100440, Note_on_c, 1, 45, 100
3, 100500, Note_on_c, 1, 45, 0
3, 100500, Note_on_c, 1, 45, 100
3, 100620, Note_on_c, 1, 45, 0
3, 100620, Note_on_c, 1, 45, 100
3, 100680, Note_on_c, 1, 45, 0
3, 100680, Note_on_c, 1, 45, 100
3, 100740, Note_on_c, 1, 45, 0
3, 100740, Note_on_c, 1, 45, 100
3, 100800, Note_on_c, 1, 45, 0
3, 100800, Note_on_c, 1, 45, 100
3, 100860, Note_on_c, 1, 45, 0
3, 100860, Note_on_c, 1, 46, 100
3, 100920, Note_on_c, 1, 46, 0
3, 100920, Note_on_c, 1, 45, 100
3, 101040, Note_on_c, 1, 45, 0
3, 101040, Note_on_c, 1, 43, 100
3, 101160, Note_on_c, 1, 43, 0
3, 101160, Note_on_c, 1, 45, 100
3, 101280, Note_on_c, 1, 45, 0
3, 101280, Note_on_c, 1, 40, 100
3, 101340, Note_on_c, 1, 40, 0
3, 101340, Note_on_c, 1, 41, 100
3, 101400, Note_on_c, 1, 41, 0
3, 101400, Note_on_c, 1, 40, 100
3, 101460, Note_on_c, 1, 40, 0
3, 101460, Note_on_c, 1, 40, 100
3, 101580, Note_on_c, 1, 40, 0
3, 101580, Note_on_c, 1, 40, 100
3, 101640, Note_on_c, 1, 40, 0
3, 101640, Note_on_c, 1, 40, 100
3, 101700, Note_on_c, 1, 40, 0
3, 101700, Note_on_c, 1, 41, 100
3, 101760, Note_on_c, 1, 41, 0
3, 101760, Note_on_c, 1, 43, 100
3, 101880, Note_on_c, 1, 43, 0
3, 101880, Note_on_c, 1, 40, 100
3, 102000, Note_on_c, 1, 40, 0
3, 102000, Note_on_c, 1, 40, 100
3, 102060, Note_on_c, 1, 40, 0
3, 102060, Note_on_c, 1, 40, 100
3, 102120, Note_on_c, 1, 40, 0
3, 102120, Note_on_c, 1, 43, 100
3, 102180, Note_on_c, 1, 43, 0
3, 102180, Note_on_c, 1, 45, 100
3, 102240, Note_on_c, 1, 45, 0
3, 102240, Note_on_c, 1, 45, 100
3, 102300, Note_on_c, 1, 45, 0
3, 102300, Note_on_c, 1, 45, 100
3, 102360, Note_on_c, 1, 45, 0
3, 102360, Note_on_c, 1, 45, 100
3, 102420, Note_on_c, 1, 45, 0
3, 102420, Note_on_c, 1, 45, 100
3, 102540, Note_on_c, 1, 45, 0
3, 102540, Note_on_c, 1, 45, 100
3, 102600, Note_on_c, 1, 45, 0
3, 102600, Note_on_c, 1, 45, 100
3, 102660, Note_on_c, 1, 45, 0
3, 102660, Note_on_c, 1, 45, 100
3, 102720, Note_on_c, 1, 45, 0
3, 102720, Note_on_c, 1, 46, 100
3, 102840, Note_on_c, 1, 46, 0
3, 102840, Note_on_c, 1, 45, 100
3, 102960, Note_on_c, 1, 45, 0
3, 102960, Note_on_c, 1, 43, 100
3, 103080, Note_on_c, 1, 43, 0
3, 103080, Note_on_c, 1, 45, 100
3, 103200, Note_on_c, 1, 45, 0
3, 103200, Note_on_c, 1, 40, 100
3, 103260, Note_on_c, 1, 40, 0
3, 103260, Note_on_c, 1, 41, 100
3, 103320, Note_on_c, 1, 41, 0
3, 103320, Note_on_c, 1, 40, 100
3, 103440, Note_on_c, 1, 40, 0
3, 103440, Note_on_c, 1, 52, 100
3, 103500, Note_on_c, 1, 52, 0
3, 103500, Note_on_c, 1, 53, 100
3, 103560, Note_on_c, 1, 53, 0
3, 103560, Note_on_c, 1, 52, 100
3, 103620, Note_on_c, 1, 52, 0
3, 103620, Note_on_c, 1, 47, 100
3, 103680, Note_on_c, 1, 47, 0
3, 103680, Note_on_c, 1, 52, 100
3, 103740, Note_on_c, 1, 52, 0
3, 103740, Note_on_c, 1, 53, 100
3, 103800, Note_on_c, 1, 53, 0
3, 103800, Note_on_c, 1, 52, 100
3, 103860, Note_on_c, 1, 52, 0
3, 103860, Note_on_c, 1, 53, 100
3, 103920, Note_on_c, 1, 53, 0
3, 103920, Note_on_c, 1, 52, 100
3, 103980, Note_on_c, 1, 52, 0
3, 103980, Note_on_c, 1, 53, 100
3, 104040, Note_on_c, 1, 53, 0
3, 104040, Note_on_c, 1, 47, 100
3, 104160, Note_on_c, 1, 47, 0
3, 104160, Note_on_c, 1, 45, 100
3, 104220, Note_on_c, 1, 45, 0
3, 104220, Note_on_c, 1, 46, 100
3, 104280, Note_on_c, 1, 46, 0
3, 104280, Note_on_c, 1, 45, 100
3, 104340, Note_on_c, 1, 45, 0
3, 104340, Note_on_c, 1, 45, 100
3, 104460, Note_on_c, 1, 45, 0
3, 104460, Note_on_c, 1, 45, 100
3, 104520, Note_on_c, 1, 45, 0
3, 104520, Note_on_c, 1, 45, 100
3, 104580, Note_on_c, 1, 45, 0
3, 104580, Note_on_c, 1, 45, 100
3, 104640, Note_on_c, 1, 45, 0
3, 104640, Note_on_c, 1, 45, 100
3, 104700, Note_on_c, 1, 45, 0
3, 104700, Note_on_c, 1, 46, 100
3, 104760, Note_on_c, 1, 46, 0
3, 104760, Note_on_c, 1, 45, 100
3, 104880, Note_on_c, 1, 45, 0
3, 104880, Note_on_c, 1, 43, 100
3, 105000, Note_on_c, 1, 43, 0
3, 105000, Note_on_c, 1, 45, 100
3, 105120, Note_on_c, 1, 45, 0
3, 105120, Note_on_c, 1, 40, 100
3, 105180, Note_on_c, 1, 40, 0
3, 105180, Note_on_c, 1, 41, 100
3, 105240, Note_on_c, 1, 41, 0
3, 105240, Note_on_c, 1, 40, 100
3, 105300, Note_on_c, 1, 40, 0
3, 105300, Note_on_c, 1, 40, 100
3, 105420, Note_on_c, 1, 40, 0
3, 105420, Note_on_c, 1, 40, 100
3, 105480, Note_on_c, 1, 40, 0
3, 105480, Note_on_c, 1, 40, 100
3, 105540, Note_on_c, 1, 40, 0
3, 105540, Note_on_c, 1, 40, 100
3, 105600, Note_on_c, 1, 40, 0
3, 105600, Note_on_c, 1, 40, 100
3, 105660, Note_on_c, 1, 40, 0
3, 105660, Note_on_c, 1, 41, 100
3, 105720, Note_on_c, 1, 41, 0
3, 105720, Note_on_c, 1, 40, 100
3, 105840, Note_on_c, 1, 40, 0
3, 105840, Note_on_c, 1, 38, 100
3, 105960, Note_on_c, 1, 38, 0
3, 105960, Note_on_c, 1, 40, 100
3, 106080, Note_on_c, 1, 40, 0
3, 106080, Note_on_c, 1, 43, 100
3, 106140, Note_on_c, 1, 43, 0
3, 106140, Note_on_c, 1, 45, 100
3, 106200, Note_on_c, 1, 45, 0
3, 106200, Note_on_c, 1, 45, 100
3, 106260, Note_on_c, 1, 45, 0
3, 106260, Note_on_c, 1, 45, 100
3, 106380, Note_on_c, 1, 45, 0
3, 106380, Note_on_c, 1, 45, 100
3, 106440, Note_on_c, 1, 45, 0
3, 106440, Note_on_c, 1, 45, 100
3, 106500, Note_on_c, 1, 45, 0
3, 106500, Note_on_c, 1, 45, 100
3, 106560, Note_on_c, 1, 45, 0
3, 106560, Note_on_c, 1, 46, 100
3, 106680, Note_on_c, 1, 46, 0
3, 106680, Note_on_c, 1, 45, 100
3, 106800, Note_on_c, 1, 45, 0
3, 106800, Note_on_c, 1, 43, 100
3, 106920, Note_on_c, 1, 43, 0
3, 106920, Note_on_c, 1, 45, 100
3, 107040, Note_on_c, 1, 45, 0
3, 107040, Note_on_c, 1, 40, 100
3, 107100, Note_on_c, 1, 40, 0
3, 107100, Note_on_c, 1, 41, 100
3, 107160, Note_on_c, 1, 41, 0
3, 107160, Note_on_c, 1, 35, 100
3, 107220, Note_on_c, 1, 35, 0
3, 107220, Note_on_c, 1, 47, 100
3, 107280, Note_on_c, 1, 47, 0
3, 107280, Note_on_c, 1, 52, 100
3, 107340, Note_on_c, 1, 52, 0
3, 107340, Note_on_c, 1, 52, 100
3, 107400, Note_on_c, 1, 52, 0
3, 107400, Note_on_c, 1, 47, 100
3, 107460, Note_on_c, 1, 47, 0
3, 107460, Note_on_c, 1, 47, 100
3, 107520, Note_on_c, 1, 47, 0
3, 107520, Note_on_c, 1, 47, 100
3, 107580, Note_on_c, 1, 47, 0
3, 107580, Note_on_c, 1, 47, 100
3, 107640, Note_on_c, 1, 47, 0
3, 107640, Note_on_c, 1, 47, 100
3, 107700, Note_on_c, 1, 47, 0
3, 107700, Note_on_c, 1, 47, 100
3, 107760, Note_on_c, 1, 47, 0
3, 107760, Note_on_c, 1, 52, 100
3, 107820, Note_on_c, 1, 52, 0
3, 107820, Note_on_c, 1, 52, 100
3, 107880, Note_on_c, 1, 52, 0
3, 107880, Note_on_c, 1, 47, 100
3, 108000, Note_on_c, 1, 47, 0
3, 108000, Note_on_c, 1, 45, 100
3, 108120, Note_on_c, 1, 45, 0
3, 108120, Note_on_c, 1, 45, 100
3, 108180, Note_on_c, 1, 45, 0
3, 108180, Note_on_c, 1, 45, 100
3, 108240, Note_on_c, 1, 45, 0
3, 108240, Note_on_c, 1, 45, 100
3, 108360, Note_on_c, 1, 45, 0
3, 108360, Note_on_c, 1, 45, 100
3, 108480, Note_on_c, 1, 45, 0
3, 108480, Note_on_c, 1, 45, 100
3, 108600, Note_on_c, 1, 45, 0
3, 108600, Note_on_c, 1, 45, 100
3, 108720, Note_on_c, 1, 45, 0
3, 108720, Note_on_c, 1, 43, 100
3, 108840, Note_on_c, 1, 43, 0
3, 108840, Note_on_c, 1, 40, 100
3, 108960, Note_on_c, 1, 40, 0
3, 108960, Note_on_c, 1, 40, 100
3, 109020, Note_on_c, 1, 40, 0
3, 109020, Note_on_c, 1, 41, 100
3, 109080, Note_on_c, 1, 41, 0
3, 109080, Note_on_c, 1, 40, 100
3, 109140, Note_on_c, 1, 40, 0
3, 109140, Note_on_c, 1, 40, 100
3, 109200, Note_on_c, 1, 40, 0
3, 109200, Note_on_c, 1, 40, 100
3, 109260, Note_on_c, 1, 40, 0
3, 109260, Note_on_c, 1, 40, 100
3, 109320, Note_on_c, 1, 40, 0
3, 109320, Note_on_c, 1, 40, 100
3, 109380, Note_on_c, 1, 40, 0
3, 109380, Note_on_c, 1, 40, 100
3, 109440, Note_on_c, 1, 40, 0
3, 109440, Note_on_c, 1, 40, 100
3, 109500, Note_on_c, 1, 40, 0
3, 109500, Note_on_c, 1, 41, 100
3, 109560, Note_on_c, 1, 41, 0
3, 109560, Note_on_c, 1, 40, 100
3, 109620, Note_on_c, 1, 40, 0
3, 109620, Note_on_c, 1, 40, 100
3, 109680, Note_on_c, 1, 40, 0
3, 109680, Note_on_c, 1, 40, 100
3, 109740, Note_on_c, 1, 40, 0
3, 109740, Note_on_c, 1, 40, 100
3, 109800, Note_on_c, 1, 40, 0
3, 109800, Note_on_c, 1, 40, 100
3, 109920, Note_on_c, 1, 40, 0
3, 109920, Note_on_c, 1, 45, 100
3, 110040, Note_on_c, 1, 45, 0
3, 110040, Note_on_c, 1, 45, 100
3, 110100, Note_on_c, 1, 45, 0
3, 110100, Note_on_c, 1, 45, 100
3, 110160, Note_on_c, 1, 45, 0
3, 110160, Note_on_c, 1, 43, 100
3, 110280, Note_on_c, 1, 43, 0
3, 110280, Note_on_c, 1, 45, 100
3, 110400, Note_on_c, 1, 45, 0
3, 110520, Note_on_c, 1, 45, 100
3, 110640, Note_on_c, 1, 45, 0
3, 110640, Note_on_c, 1, 43, 100
3, 110760, Note_on_c, 1, 43, 0
3, 110760, Note_on_c, 1, 40, 100
3, 110880, Note_on_c, 1, 40, 0
3, 110880, Note_on_c, 1, 41, 100
3, 111000, Note_on_c, 1, 41, 0
3, 111000, Note_on_c, 1, 40, 100
3, 111060, Note_on_c, 1, 40, 0
3, 111060, Note_on_c, 1, 41, 100
3, 111120, Note_on_c, 1, 41, 0
3, 111120, Note_on_c, 1, 40, 100
3, 111180, Note_on_c, 1, 40, 0
3, 111180, Note_on_c, 1, 41, 100
3, 111240, Note_on_c, 1, 41, 0
3, 111240, Note_on_c, 1, 40, 100
3, 111360, Note_on_c, 1, 40, 0
3, 111360, Note_on_c, 1, 41, 100
3, 111480, Note_on_c, 1, 41, 0
3, 111480, Note_on_c, 1, 40, 100
3, 111540, Note_on_c, 1, 40, 0
3, 111540, Note_on_c, 1, 41, 100
3, 111600, Note_on_c, 1, 41, 0
3, 111600, Note_on_c, 1, 40, 100
3, 111660, Note_on_c, 1, 40, 0
3, 111660, Note_on_c, 1, 41, 100
3, 111720, Note_on_c, 1, 41, 0
3, 111720, Note_on_c, 1, 40, 100
3, 111840, Note_on_c, 1, 40, 0
3, 111840, Note_on_c, 1, 45, 100
3, 111960, Note_on_c, 1, 45, 0
3, 111960, Note_on_c, 1, 45, 100
3, 112020, Note_on_c, 1, 45, 0
3, 112020, Note_on_c, 1, 45, 100
3, 112080, Note_on_c, 1, 45, 0
3, 112080, Note_on_c, 1, 45, 100
3, 112140, Note_on_c, 1, 45, 0
3, 112140, Note_on_c, 1, 45, 100
3, 112200, Note_on_c, 1, 45, 0
3, 112200, Note_on_c, 1, 45, 100
3, 112260, Note_on_c, 1, 45, 0
3, 112260, Note_on_c, 1, 45, 100
3, 112320, Note_on_c, 1, 45, 0
3, 112320, Note_on_c, 1, 45, 100
3, 112380, Note_on_c, 1, 45, 0
3, 112380, Note_on_c, 1, 45, 100
3, 112440, Note_on_c, 1, 45, 0
3, 112440, Note_on_c, 1, 45, 100
3, 112560, Note_on_c, 1, 45, 0
3, 112560, Note_on_c, 1, 43, 100
3, 112680, Note_on_c, 1, 43, 0
3, 112680, Note_on_c, 1, 40, 100
3, 112800, Note_on_c, 1, 40, 0
3, 112800, Note_on_c, 1, 40, 100
3, 112920, Note_on_c, 1, 40, 0
3, 112920, Note_on_c, 1, 40, 100
3, 112980, Note_on_c, 1, 40, 0
3, 112980, Note_on_c, 1, 40, 100
3, 113040, Note_on_c, 1, 40, 0
3, 113040, Note_on_c, 1, 38, 100
3, 113100, Note_on_c, 1, 38, 0
3, 113100, Note_on_c, 1, 38, 100
3, 113160, Note_on_c, 1, 38, 0
3, 113160, Note_on_c, 1, 40, 100
3, 113220, Note_on_c, 1, 40, 0
3, 113220, Note_on_c, 1, 40, 100
3, 113280, Note_on_c, 1, 40, 0
3, 113280, Note_on_c, 1, 43, 100
3, 113400, Note_on_c, 1, 43, 0
3, 113400, Note_on_c, 1, 40, 100
3, 113520, Note_on_c, 1, 40, 0
3, 113520, Note_on_c, 1, 38, 100
3, 113640, Note_on_c, 1, 38, 0
3, 113640, Note_on_c, 1, 40, 100
3, 113760, Note_on_c, 1, 40, 0
3, 113760, Note_on_c, 1, 45, 100
3, 114000, Note_on_c, 1, 45, 0
3, 114960, Note_on_c, 1, 28, 100
3, 115080, Note_on_c, 1, 28, 0
3, 115080, Note_on_c, 1, 28, 100
3, 115260, Note_on_c, 1, 28, 0
3, 115260, Note_on_c, 1, 28, 100
3, 115320, Note_on_c, 1, 28, 0
3, 115320, Note_on_c, 1, 28, 100
3, 115440, Note_on_c, 1, 28, 0
3, 115440, Note_on_c, 1, 28, 100
3, 116400, Note_on_c, 1, 40, 100
3, 116880, Note_on_c, 1, 40, 0
3, 116880, Note_on_c, 1, 40, 100
3, 117360, Note_on_c, 1, 40, 0
3, 117360, Note_on_c, 1, 40, 100
3, 117840, Note_on_c, 1, 40, 0
3, 117840, Note_on_c, 1, 28, 0
3, 117840, Note_on_c, 1, 28, 100
3, 117960, Note_on_c, 1, 28, 0
3, 117960, Note_on_c, 1, 28, 100
3, 118140, Note_on_c, 1, 28, 0
3, 118140, Note_on_c, 1, 28, 100
3, 118200, Note_on_c, 1, 28, 0
3, 118200, Note_on_c, 1, 28, 100
3, 118320, Note_on_c, 1, 28, 0
3, 118320, Note_on_c, 1, 28, 100
3, 118800, Note_on_c, 1, 40, 100
3, 118800, Note_on_c, 1, 47, 100
3, 118800, Note_on_c, 1, 52, 100
3, 119280, Note_on_c, 1, 52, 0
3, 119280, Note_on_c, 1, 47, 0
3, 119280, Note_on_c, 1, 40, 0
3, 119280, Note_on_c, 1, 40, 100
3, 119760, Note_on_c, 1, 40, 0
3, 119760, Note_on_c, 1, 40, 100
3, 120720, Note_on_c, 1, 40, 0
3, 120720, Note_on_c, 1, 28, 0
3, 120720, Note_on_c, 1, 28, 100
3, 120720, Note_on_c, 1, 40, 100
3, 120840, Note_on_c, 1, 40, 0
3, 120840, Note_on_c, 1, 28, 0
3, 120840, Note_on_c, 1, 28, 100
3, 120840, Note_on_c, 1, 47, 100
3, 120840, Note_on_c, 1, 52, 100
3, 121020, Note_on_c, 1, 52, 0
3, 121020, Note_on_c, 1, 47, 0
3, 121020, Note_on_c, 1, 28, 0
3, 121020, Note_on_c, 1, 28, 100
3, 121020, Note_on_c, 1, 47, 100
3, 121020, Note_on_c, 1, 52, 100
3, 121080, Note_on_c, 1, 52, 0
3, 121080, Note_on_c, 1, 47, 0
3, 121080, Note_on_c, 1, 28, 0
3, 121080, Note_on_c, 1, 28, 100
3, 121080, Note_on_c, 1, 45, 100
3, 121080, Note_on_c, 1, 50, 100
3, 121200, Note_on_c, 1, 50, 0
3, 121200, Note_on_c, 1, 45, 0
3, 121200, Note_on_c, 1, 28, 0
3, 121200, Note_on_c, 1, 28, 100
3, 121200, Note_on_c, 1, 47, 100
3, 121200, Note_on_c, 1, 52, 100
3, 121440, Note_on_c, 1, 52, 0
3, 121440, Note_on_c, 1, 47, 0
3, 121680, Note_on_c, 1, 28, 0
3, 122640, Note_on_c, 1, 28, 100
3, 122880, Note_on_c, 1, 28, 0
3, 122880, Note_on_c, 1, 40, 100
3, 123000, Note_on_c, 1, 40, 0
3, 123000, Note_on_c, 1, 40, 100
3, 123060, Note_on_c, 1, 40, 0
3, 123060, Note_on_c, 1, 40, 100
3, 123120, Note_on_c, 1, 40, 0
3, 123120, Note_on_c, 1, 38, 100
3, 123240, Note_on_c, 1, 38, 0
3, 123240, Note_on_c, 1, 38, 100
3, 123300, Note_on_c, 1, 38, 0
3, 123300, Note_on_c, 1, 38, 100
3, 123360, Note_on_c, 1, 38, 0
3, 123360, Note_on_c, 1, 40, 100
3, 123480, Note_on_c, 1, 40, 0
3, 123480, Note_on_c, 1, 38, 100
3, 123540, Note_on_c, 1, 38, 0
3, 123540, Note_on_c, 1, 38, 100
3, 123600, Note_on_c, 1, 38, 0
3, 123600, Note_on_c, 1, 40, 100
3, 123720, Note_on_c, 1, 40, 0
3, 123720, Note_on_c, 1, 38, 100
3, 123840, Note_on_c, 1, 38, 0
3, 123840, Note_on_c, 1, 35, 100
3, 123960, Note_on_c, 1, 35, 0
3, 123960, Note_on_c, 1, 31, 100
3, 124080, Note_on_c, 1, 31, 0
3, 124080, Note_on_c, 1, 33, 100
3, 124200, Note_on_c, 1, 33, 0
3, 124200, Note_on_c, 1, 31, 100
3, 124320, Note_on_c, 1, 31, 0
3, 124320, Note_on_c, 1, 28, 100
3, 124560, Note_on_c, 1, 28, 0
3, 124560, Note_on_c, 1, 28, 100
3, 124800, Note_on_c, 1, 28, 0
3, 124800, Note_on_c, 1, 40, 100
3, 124920, Note_on_c, 1, 40, 0
3, 124920, Note_on_c, 1, 40, 100
3, 125040, Note_on_c, 1, 40, 0
3, 125040, Note_on_c, 1, 38, 100
3, 125280, Note_on_c, 1, 38, 0
3, 125280, Note_on_c, 1, 40, 100
3, 125400, Note_on_c, 1, 40, 0
3, 125400, Note_on_c, 1, 38, 100
3, 125520, Note_on_c, 1, 38, 0
3, 125520, Note_on_c, 1, 40, 100
3, 125640, Note_on_c, 1, 40, 0
3, 125640, Note_on_c, 1, 38, 100
3, 125760, Note_on_c, 1, 38, 0
3, 125760, Note_on_c, 1, 35, 100
3, 125880, Note_on_c, 1, 35, 0
3, 125880, Note_on_c, 1, 31, 100
3, 126000, Note_on_c, 1, 31, 0
3, 126000, Note_on_c, 1, 33, 100
3, 126120, Note_on_c, 1, 33, 0
3, 126120, Note_on_c, 1, 31, 100
3, 126240, Note_on_c, 1, 31, 0
3, 126240, Note_on_c, 1, 28, 100
3, 126360, Note_on_c, 1, 28, 0
3, 126360, Note_on_c, 1, 28, 100
3, 126480, Note_on_c, 1, 28, 0
3, 126480, Note_on_c, 1, 28, 100
3, 126720, Note_on_c, 1, 28, 0
3, 126720, Note_on_c, 1, 40, 100
3, 126840, Note_on_c, 1, 40, 0
3, 126840, Note_on_c, 1, 40, 100
3, 126900, Note_on_c, 1, 40, 0
3, 126900, Note_on_c, 1, 40, 100
3, 126960, Note_on_c, 1, 40, 0
3, 126960, Note_on_c, 1, 38, 100
3, 127080, Note_on_c, 1, 38, 0
3, 127080, Note_on_c, 1, 38, 100
3, 127140, Note_on_c, 1, 38, 0
3, 127140, Note_on_c, 1, 38, 100
3, 127200, Note_on_c, 1, 38, 0
3, 127200, Note_on_c, 1, 40, 100
3, 127320, Note_on_c, 1, 40, 0
3, 127320, Note_on_c, 1, 38, 100
3, 127380, Note_on_c, 1, 38, 0
3, 127380, Note_on_c, 1, 38, 100
3, 127440, Note_on_c, 1, 38, 0
3, 127440, Note_on_c, 1, 40, 100
3, 127560, Note_on_c, 1, 40, 0
3, 127560, Note_on_c, 1, 38, 100
3, 127680, Note_on_c, 1, 38, 0
3, 127680, Note_on_c, 1, 35, 100
3, 127800, Note_on_c, 1, 35, 0
3, 127800, Note_on_c, 1, 31, 100
3, 127920, Note_on_c, 1, 31, 0
3, 127920, Note_on_c, 1, 33, 100
3, 128040, Note_on_c, 1, 33, 0
3, 128040, Note_on_c, 1, 31, 100
3, 128160, Note_on_c, 1, 31, 0
3, 128160, Note_on_c, 1, 28, 100
3, 128400, Note_on_c, 1, 28, 0
3, 128400, Note_on_c, 1, 28, 100
3, 128640, Note_on_c, 1, 28, 0
3, 128640, Note_on_c, 1, 40, 100
3, 128760, Note_on_c, 1, 40, 0
3, 128760, Note_on_c, 1, 40, 100
3, 128880, Note_on_c, 1, 40, 0
3, 128880, Note_on_c, 1, 38, 100
3, 129060, Note_on_c, 1, 38, 0
3, 129060, Note_on_c, 1, 38, 100
3, 129120, Note_on_c, 1, 38, 0
3, 129120, Note_on_c, 1, 40, 100
3, 129240, Note_on_c, 1, 40, 0
3, 129240, Note_on_c, 1, 38, 100
3, 129360, Note_on_c, 1, 38, 0
3, 129360, Note_on_c, 1, 40, 100
3, 129480, Note_on_c, 1, 40, 0
3, 129480, Note_on_c, 1, 38, 100
3, 129600, Note_on_c, 1, 38, 0
3, 129600, Note_on_c, 1, 35, 100
3, 129720, Note_on_c, 1, 35, 0
3, 129720, Note_on_c, 1, 31, 100
3, 129840, Note_on_c, 1, 31, 0
3, 129840, Note_on_c, 1, 33, 100
3, 129960, Note_on_c, 1, 33, 0
3, 129960, Note_on_c, 1, 31, 100
3, 130080, Note_on_c, 1, 31, 0
3, 130080, Note_on_c, 1, 28, 100
3, 130320, Note_on_c, 1, 28, 0
3, 130320, Note_on_c, 1, 28, 100
3, 130560, Note_on_c, 1, 28, 0
3, 130560, Note_on_c, 1, 40, 100
3, 130680, Note_on_c, 1, 40, 0
3, 130680, Note_on_c, 1, 40, 100
3, 130800, Note_on_c, 1, 40, 0
3, 130800, Note_on_c, 1, 38, 100
3, 131040, Note_on_c, 1, 38, 0
3, 131040, Note_on_c, 1, 40, 100
3, 131160, Note_on_c, 1, 40, 0
3, 131160, Note_on_c, 1, 38, 100
3, 131280, Note_on_c, 1, 38, 0
3, 131280, Note_on_c, 1, 40, 100
3, 131400, Note_on_c, 1, 40, 0
3, 131400, Note_on_c, 1, 38, 100
3, 131520, Note_on_c, 1, 38, 0
3, 131520, Note_on_c, 1, 35, 100
3, 131640, Note_on_c, 1, 35, 0
3, 131640, Note_on_c, 1, 31, 100
3, 131760, Note_on_c, 1, 31, 0
3, 131760, Note_on_c, 1, 33, 100
3, 131880, Note_on_c, 1, 33, 0
3, 131880, Note_on_c, 1, 31, 100
3, 132000, Note_on_c, 1, 31, 0
3, 132000, Note_on_c, 1, 28, 100
3, 132240, Note_on_c, 1, 28, 0
3, 132240, Note_on_c, 1, 28, 100
3, 132480, Note_on_c, 1, 28, 0
3, 132480, Note_on_c, 1, 40, 100
3, 132600, Note_on_c, 1, 40, 0
3, 132600, Note_on_c, 1, 40, 100
3, 132720, Note_on_c, 1, 40, 0
3, 132720, Note_on_c, 1, 38, 100
3, 132960, Note_on_c, 1, 38, 0
3, 132960, Note_on_c, 1, 40, 100
3, 133080, Note_on_c, 1, 40, 0
3, 133080, Note_on_c, 1, 38, 100
3, 133200, Note_on_c, 1, 38, 0
3, 133200, Note_on_c, 1, 40, 100
3, 133320, Note_on_c, 1, 40, 0
3, 133320, Note_on_c, 1, 38, 100
3, 133440, Note_on_c, 1, 38, 0
3, 133440, Note_on_c, 1, 35, 100
3, 133560, Note_on_c, 1, 35, 0
3, 133560, Note_on_c, 1, 31, 100
3, 133680, Note_on_c, 1, 31, 0
3, 133680, Note_on_c, 1, 33, 100
3, 133800, Note_on_c, 1, 33, 0
3, 133800, Note_on_c, 1, 31, 100
3, 133920, Note_on_c, 1, 31, 0
3, 133920, Note_on_c, 1, 28, 100
3, 134160, Note_on_c, 1, 28, 0
3, 134160, Note_on_c, 1, 28, 100
3, 134280, Note_on_c, 1, 28, 0
3, 134280, Note_on_c, 1, 28, 100
3, 134400, Note_on_c, 1, 28, 0
3, 134400, Note_on_c, 1, 40, 100
3, 134520, Note_on_c, 1, 40, 0
3, 134520, Note_on_c, 1, 40, 100
3, 134640, Note_on_c, 1, 40, 0
3, 134640, Note_on_c, 1, 38, 100
3, 134880, Note_on_c, 1, 38, 0
3, 134880, Note_on_c, 1, 40, 100
3, 135120, Note_on_c, 1, 40, 0
3, 135120, Note_on_c, 1, 40, 100
3, 135240, Note_on_c, 1, 40, 0
3, 135240, Note_on_c, 1, 38, 100
3, 135360, Note_on_c, 1, 38, 0
3, 135360, Note_on_c, 1, 35, 100
3, 135480, Note_on_c, 1, 35, 0
3, 135480, Note_on_c, 1, 31, 100
3, 135600, Note_on_c, 1, 31, 0
3, 135600, Note_on_c, 1, 33, 100
3, 135720, Note_on_c, 1, 33, 0
3, 135720, Note_on_c, 1, 31, 100
3, 135840, Note_on_c, 1, 31, 0
3, 135840, Note_on_c, 1, 28, 100
3, 136080, Note_on_c, 1, 28, 0
3, 136080, Note_on_c, 1, 28, 100
3, 136200, Note_on_c, 1, 28, 0
3, 136200, Note_on_c, 1, 40, 100
3, 136320, Note_on_c, 1, 40, 0
3, 136320, Note_on_c, 1, 40, 100
3, 136440, Note_on_c, 1, 40, 0
3, 136440, Note_on_c, 1, 43, 100
3, 136560, Note_on_c, 1, 43, 0
3, 136560, Note_on_c, 1, 40, 100
3, 136680, Note_on_c, 1, 40, 0
3, 136680, Note_on_c, 1, 35, 100
3, 136800, Note_on_c, 1, 35, 0
3, 136800, Note_on_c, 1, 38, 100
3, 136920, Note_on_c, 1, 38, 0
3, 136920, Note_on_c, 1, 40, 100
3, 137040, Note_on_c, 1, 40, 0
3, 137040, Note_on_c, 1, 40, 100
3, 137160, Note_on_c, 1, 40, 0
3, 137160, Note_on_c, 1, 35, 100
3, 137280, Note_on_c, 1, 35, 0
3, 137280, Note_on_c, 1, 38, 100
3, 137400, Note_on_c, 1, 38, 0
3, 137400, Note_on_c, 1, 40, 100
3, 137520, Note_on_c, 1, 40, 0
3, 137520, Note_on_c, 1, 45, 100
3, 137640, Note_on_c, 1, 45, 0
3, 137640, Note_on_c, 1, 40, 100
3, 137760, Note_on_c, 1, 40, 0
3, 137760, Note_on_c, 1, 45, 100
3, 137880, Note_on_c, 1, 45, 0
3, 137880, Note_on_c, 1, 43, 100
3, 138000, Note_on_c, 1, 43, 0
3, 138000, Note_on_c, 1, 40, 100
3, 138120, Note_on_c, 1, 40, 0
3, 138120, Note_on_c, 1, 35, 100
3, 138240, Note_on_c, 1, 35, 0
3, 138240, Note_on_c, 1, 38, 100
3, 138360, Note_on_c, 1, 38, 0
3, 138360, Note_on_c, 1, 40, 100
3, 138480, Note_on_c, 1, 40, 0
3, 138480, Note_on_c, 1, 43, 100
3, 138600, Note_on_c, 1, 43, 0
3, 138600, Note_on_c, 1, 40, 100
3, 138720, Note_on_c, 1, 40, 0
3, 138720, Note_on_c, 1, 35, 100
3, 138840, Note_on_c, 1, 35, 0
3, 138840, Note_on_c, 1, 38, 100
3, 138960, Note_on_c, 1, 38, 0
3, 138960, Note_on_c, 1, 40, 100
3, 139080, Note_on_c, 1, 40, 0
3, 139080, Note_on_c, 1, 35, 100
3, 139200, Note_on_c, 1, 35, 0
3, 139200, Note_on_c, 1, 38, 100
3, 139320, Note_on_c, 1, 38, 0
3, 139320, Note_on_c, 1, 40, 100
3, 139440, Note_on_c, 1, 40, 0
3, 139440, Note_on_c, 1, 45, 100
3, 139560, Note_on_c, 1, 45, 0
3, 139560, Note_on_c, 1, 40, 100
3, 139680, Note_on_c, 1, 40, 0
3, 139680, Note_on_c, 1, 45, 100
3, 139800, Note_on_c, 1, 45, 0
3, 139800, Note_on_c, 1, 45, 100
3, 139920, Note_on_c, 1, 45, 0
3, 139920, Note_on_c, 1, 40, 100
3, 140040, Note_on_c, 1, 40, 0
3, 140040, Note_on_c, 1, 35, 100
3, 140160, Note_on_c, 1, 35, 0
3, 140160, Note_on_c, 1, 38, 100
3, 140280, Note_on_c, 1, 38, 0
3, 140280, Note_on_c, 1, 40, 100
3, 140400, Note_on_c, 1, 40, 0
3, 140400, Note_on_c, 1, 43, 100
3, 140520, Note_on_c, 1, 43, 0
3, 140520, Note_on_c, 1, 40, 100
3, 140640, Note_on_c, 1, 40, 0
3, 140640, Note_on_c, 1, 35, 100
3, 140760, Note_on_c, 1, 35, 0
3, 140760, Note_on_c, 1, 38, 100
3, 140880, Note_on_c, 1, 38, 0
3, 140880, Note_on_c, 1, 40, 100
3, 141000, Note_on_c, 1, 40, 0
3, 141000, Note_on_c, 1, 35, 100
3, 141120, Note_on_c, 1, 35, 0
3, 141120, Note_on_c, 1, 38, 100
3, 141240, Note_on_c, 1, 38, 0
3, 141240, Note_on_c, 1, 40, 100
3, 141360, Note_on_c, 1, 40, 0
3, 141360, Note_on_c, 1, 43, 100
3, 141480, Note_on_c, 1, 43, 0
3, 141480, Note_on_c, 1, 40, 100
3, 141600, Note_on_c, 1, 40, 0
3, 141600, Note_on_c, 1, 43, 100
3, 141720, Note_on_c, 1, 43, 0
3, 141720, Note_on_c, 1, 42, 100
3, 141840, Note_on_c, 1, 42, 0
3, 141840, Note_on_c, 1, 40, 100
3, 141960, Note_on_c, 1, 40, 0
3, 141960, Note_on_c, 1, 35, 100
3, 142080, Note_on_c, 1, 35, 0
3, 142080, Note_on_c, 1, 38, 100
3, 142200, Note_on_c, 1, 38, 0
3, 142200, Note_on_c, 1, 40, 100
3, 142320, Note_on_c, 1, 40, 0
3, 142320, Note_on_c, 1, 43, 100
3, 142440, Note_on_c, 1, 43, 0
3, 142440, Note_on_c, 1, 40, 100
3, 142560, Note_on_c, 1, 40, 0
3, 142560, Note_on_c, 1, 35, 100
3, 142680, Note_on_c, 1, 35, 0
3, 142680, Note_on_c, 1, 38, 100
3, 142800, Note_on_c, 1, 38, 0
3, 142800, Note_on_c, 1, 40, 100
3, 142920, Note_on_c, 1, 40, 0
3, 142920, Note_on_c, 1, 35, 100
3, 143040, Note_on_c, 1, 35, 0
3, 143040, Note_on_c, 1, 38, 100
3, 143160, Note_on_c, 1, 38, 0
3, 143160, Note_on_c, 1, 40, 100
3, 143280, Note_on_c, 1, 40, 0
3, 143280, Note_on_c, 1, 45, 100
3, 143400, Note_on_c, 1, 45, 0
3, 143400, Note_on_c, 1, 40, 100
3, 143520, Note_on_c, 1, 40, 0
3, 143520, Note_on_c, 1, 45, 100
3, 143640, Note_on_c, 1, 45, 0
3, 143640, Note_on_c, 1, 43, 100
3, 143760, Note_on_c, 1, 43, 0
3, 147600, Note_on_c, 1, 57, 100
3, 147660, Note_on_c, 1, 57, 0
3, 147660, Note_on_c, 1, 57, 100
3, 147720, Note_on_c, 1, 57, 0
3, 147720, Note_on_c, 1, 57, 100
3, 147780, Note_on_c, 1, 57, 0
3, 147780, Note_on_c, 1, 57, 100
3, 147840, Note_on_c, 1, 57, 0
3, 147840, Note_on_c, 1, 57, 100
3, 147900, Note_on_c, 1, 57, 0
3, 147900, Note_on_c, 1, 57, 100
3, 147960, Note_on_c, 1, 57, 0
3, 147960, Note_on_c, 1, 57, 100
3, 148020, Note_on_c, 1, 57, 0
3, 148020, Note_on_c, 1, 57, 100
3, 148080, Note_on_c, 1, 57, 0
3, 148080, Note_on_c, 1, 55, 100
3, 148140, Note_on_c, 1, 55, 0
3, 148140, Note_on_c, 1, 55, 100
3, 148200, Note_on_c, 1, 55, 0
3, 148200, Note_on_c, 1, 55, 100
3, 148260, Note_on_c, 1, 55, 0
3, 148260, Note_on_c, 1, 55, 100
3, 148320, Note_on_c, 1, 55, 0
3, 148320, Note_on_c, 1, 55, 100
3, 148380, Note_on_c, 1, 55, 0
3, 148380, Note_on_c, 1, 55, 100
3, 148440, Note_on_c, 1, 55, 0
3, 148440, Note_on_c, 1, 55, 100
3, 148500, Note_on_c, 1, 55, 0
3, 148500, Note_on_c, 1, 55, 100
3, 148560, Note_on_c, 1, 55, 0
3, 148560, Note_on_c, 1, 52, 100
3, 148620, Note_on_c, 1, 52, 0
3, 148620, Note_on_c, 1, 52, 100
3, 148680, Note_on_c, 1, 52, 0
3, 148680, Note_on_c, 1, 52, 100
3, 148740, Note_on_c, 1, 52, 0
3, 148740, Note_on_c, 1, 52, 100
3, 148800, Note_on_c, 1, 52, 0
3, 148800, Note_on_c, 1, 52, 100
3, 148860, Note_on_c, 1, 52, 0
3, 148860, Note_on_c, 1, 52, 100
3, 148920, Note_on_c, 1, 52, 0
3, 148920, Note_on_c, 1, 52, 100
3, 148980, Note_on_c, 1, 52, 0
3, 148980, Note_on_c, 1, 52, 100
3, 149040, Note_on_c, 1, 52, 0
3, 149040, Note_on_c, 1, 52, 100
3, 149100, Note_on_c, 1, 52, 0
3, 149100, Note_on_c, 1, 52, 100
3, 149160, Note_on_c, 1, 52, 0
3, 149160, Note_on_c, 1, 52, 100
3, 149220, Note_on_c, 1, 52, 0
3, 149220, Note_on_c, 1, 52, 100
3, 149280, Note_on_c, 1, 52, 0
3, 149280, Note_on_c, 1, 52, 100
3, 149340, Note_on_c, 1, 52, 0
3, 149340, Note_on_c, 1, 52, 100
3, 149400, Note_on_c, 1, 52, 0
3, 149400, Note_on_c, 1, 52, 100
3, 149460, Note_on_c, 1, 52, 0
3, 149460, Note_on_c, 1, 52, 100
3, 149520, Note_on_c, 1, 52, 0
3, 149520, Note_on_c, 1, 52, 100
3, 149580, Note_on_c, 1, 52, 0
3, 149580, Note_on_c, 1, 52, 100
3, 149640, Note_on_c, 1, 52, 0
3, 149640, Note_on_c, 1, 52, 100
3, 149700, Note_on_c, 1, 52, 0
3, 149700, Note_on_c, 1, 52, 100
3, 149760, Note_on_c, 1, 52, 0
3, 149760, Note_on_c, 1, 52, 100
3, 149820, Note_on_c, 1, 52, 0
3, 149820, Note_on_c, 1, 52, 100
3, 149880, Note_on_c, 1, 52, 0
3, 149880, Note_on_c, 1, 52, 100
3, 149940, Note_on_c, 1, 52, 0
3, 149940, Note_on_c, 1, 52, 100
3, 150000, Note_on_c, 1, 52, 0
3, 150000, Note_on_c, 1, 52, 100
3, 150060, Note_on_c, 1, 52, 0
3, 150060, Note_on_c, 1, 52, 100
3, 150120, Note_on_c, 1, 52, 0
3, 150120, Note_on_c, 1, 52, 100
3, 150180, Note_on_c, 1, 52, 0
3, 150180, Note_on_c, 1, 52, 100
3, 150240, Note_on_c, 1, 52, 0
3, 150240, Note_on_c, 1, 52, 100
3, 150300, Note_on_c, 1, 52, 0
3, 150300, Note_on_c, 1, 52, 100
3, 150360, Note_on_c, 1, 52, 0
3, 150360, Note_on_c, 1, 52, 100
3, 150420, Note_on_c, 1, 52, 0
3, 150420, Note_on_c, 1, 52, 100
3, 150480, Note_on_c, 1, 52, 0
3, 150480, Note_on_c, 1, 52, 100
3, 150540, Note_on_c, 1, 52, 0
3, 150540, Note_on_c, 1, 52, 100
3, 150600, Note_on_c, 1, 52, 0
3, 150600, Note_on_c, 1, 52, 100
3, 150660, Note_on_c, 1, 52, 0
3, 150660, Note_on_c, 1, 52, 100
3, 150720, Note_on_c, 1, 52, 0
3, 150720, Note_on_c, 1, 52, 100
3, 150780, Note_on_c, 1, 52, 0
3, 150780, Note_on_c, 1, 52, 100
3, 150840, Note_on_c, 1, 52, 0
3, 150840, Note_on_c, 1, 52, 100
3, 150900, Note_on_c, 1, 52, 0
3, 150900, Note_on_c, 1, 52, 100
3, 150960, Note_on_c, 1, 52, 0
3, 150960, Note_on_c, 1, 52, 100
3, 151020, Note_on_c, 1, 52, 0
3, 151020, Note_on_c, 1, 52, 100
3, 151080, Note_on_c, 1, 52, 0
3, 151080, Note_on_c, 1, 52, 100
3, 151140, Note_on_c, 1, 52, 0
3, 151140, Note_on_c, 1, 52, 100
3, 151200, Note_on_c, 1, 52, 0
3, 151200, Note_on_c, 1, 52, 100
3, 151440, Note_on_c, 1, 52, 0
3, 151440, Note_on_c, 1, 45, 100
3, 151560, Note_on_c, 1, 45, 0
3, 151560, Note_on_c, 1, 45, 100
3, 151620, Note_on_c, 1, 45, 0
3, 151620, Note_on_c, 1, 45, 100
3, 151680, Note_on_c, 1, 45, 0
3, 151680, Note_on_c, 1, 45, 100
3, 151740, Note_on_c, 1, 45, 0
3, 151740, Note_on_c, 1, 45, 100
3, 151800, Note_on_c, 1, 45, 0
3, 151800, Note_on_c, 1, 46, 100
3, 151920, Note_on_c, 1, 46, 0
3, 151920, Note_on_c, 1, 45, 100
3, 152040, Note_on_c, 1, 45, 0
3, 152040, Note_on_c, 1, 45, 100
3, 152100, Note_on_c, 1, 45, 0
3, 152100, Note_on_c, 1, 45, 100
3, 152160, Note_on_c, 1, 45, 0
3, 152160, Note_on_c, 1, 43, 100
3, 152280, Note_on_c, 1, 43, 0
3, 152280, Note_on_c, 1, 40, 100
3, 152400, Note_on_c, 1, 40, 0
3, 152400, Note_on_c, 1, 41, 100
3, 152520, Note_on_c, 1, 41, 0
3, 152520, Note_on_c, 1, 40, 100
3, 152580, Note_on_c, 1, 40, 0
3, 152580, Note_on_c, 1, 40, 100
3, 152640, Note_on_c, 1, 40, 0
3, 152640, Note_on_c, 1, 40, 100
3, 152700, Note_on_c, 1, 40, 0
3, 152700, Note_on_c, 1, 40, 100
3, 152760, Note_on_c, 1, 40, 0
3, 152760, Note_on_c, 1, 40, 100
3, 152880, Note_on_c, 1, 40, 0
3, 152880, Note_on_c, 1, 41, 100
3, 153000, Note_on_c, 1, 41, 0
3, 153000, Note_on_c, 1, 40, 100
3, 153060, Note_on_c, 1, 40, 0
3, 153060, Note_on_c, 1, 40, 100
3, 153120, Note_on_c, 1, 40, 0
3, 153120, Note_on_c, 1, 40, 100
3, 153180, Note_on_c, 1, 40, 0
3, 153180, Note_on_c, 1, 40, 100
3, 153240, Note_on_c, 1, 40, 0
3, 153240, Note_on_c, 1, 40, 100
3, 153360, Note_on_c, 1, 40, 0
3, 153360, Note_on_c, 1, 45, 100
3, 153480, Note_on_c, 1, 45, 0
3, 153480, Note_on_c, 1, 45, 100
3, 153540, Note_on_c, 1, 45, 0
3, 153540, Note_on_c, 1, 45, 100
3, 153600, Note_on_c, 1, 45, 0
3, 153600, Note_on_c, 1, 45, 100
3, 153660, Note_on_c, 1, 45, 0
3, 153660, Note_on_c, 1, 45, 100
3, 153720, Note_on_c, 1, 45, 0
3, 153720, Note_on_c, 1, 46, 100
3, 153840, Note_on_c, 1, 46, 0
3, 153840, Note_on_c, 1, 45, 100
3, 153960, Note_on_c, 1, 45, 0
3, 153960, Note_on_c, 1, 45, 100
3, 154020, Note_on_c, 1, 45, 0
3, 154020, Note_on_c, 1, 45, 100
3, 154080, Note_on_c, 1, 45, 0
3, 154080, Note_on_c, 1, 43, 100
3, 154200, Note_on_c, 1, 43, 0
3, 154200, Note_on_c, 1, 40, 100
3, 154320, Note_on_c, 1, 40, 0
3, 154320, Note_on_c, 1, 41, 100
3, 154440, Note_on_c, 1, 41, 0
3, 154440, Note_on_c, 1, 40, 100
3, 154500, Note_on_c, 1, 40, 0
3, 154500, Note_on_c, 1, 40, 100
3, 154560, Note_on_c, 1, 40, 0
3, 154560, Note_on_c, 1, 40, 100
3, 154620, Note_on_c, 1, 40, 0
3, 154620, Note_on_c, 1, 40, 100
3, 154680, Note_on_c, 1, 40, 0
3, 154680, Note_on_c, 1, 40, 100
3, 154800, Note_on_c, 1, 40, 0
3, 154800, Note_on_c, 1, 41, 100
3, 154920, Note_on_c, 1, 41, 0
3, 154920, Note_on_c, 1, 40, 100
3, 154980, Note_on_c, 1, 40, 0
3, 154980, Note_on_c, 1, 40, 100
3, 155040, Note_on_c, 1, 40, 0
3, 155040, Note_on_c, 1, 40, 100
3, 155100, Note_on_c, 1, 40, 0
3, 155100, Note_on_c, 1, 40, 100
3, 155160, Note_on_c, 1, 40, 0
3, 155160, Note_on_c, 1, 40, 100
3, 155280, Note_on_c, 1, 40, 0
3, 155280, Note_on_c, 1, 45, 100
3, 155400, Note_on_c, 1, 45, 0
3, 155400, Note_on_c, 1, 45, 100
3, 155460, Note_on_c, 1, 45, 0
3, 155460, Note_on_c, 1, 45, 100
3, 155520, Note_on_c, 1, 45, 0
3, 155520, Note_on_c, 1, 45, 100
3, 155580, Note_on_c, 1, 45, 0
3, 155580, Note_on_c, 1, 45, 100
3, 155640, Note_on_c, 1, 45, 0
3, 155640, Note_on_c, 1, 46, 100
3, 155760, Note_on_c, 1, 46, 0
3, 155760, Note_on_c, 1, 45, 100
3, 156000, Note_on_c, 1, 45, 0
3, 156000, Note_on_c, 1, 43, 100
3, 156120, Note_on_c, 1, 43, 0
3, 156120, Note_on_c, 1, 40, 100
3, 156240, Note_on_c, 1, 40, 0
3, 156240, Note_on_c, 1, 41, 100
3, 156360, Note_on_c, 1, 41, 0
3, 156360, Note_on_c, 1, 40, 100
3, 156420, Note_on_c, 1, 40, 0
3, 156420, Note_on_c, 1, 40, 100
3, 156480, Note_on_c, 1, 40, 0
3, 156480, Note_on_c, 1, 40, 100
3, 156540, Note_on_c, 1, 40, 0
3, 156540, Note_on_c, 1, 40, 100
3, 156600, Note_on_c, 1, 40, 0
3, 156600, Note_on_c, 1, 40, 100
3, 156720, Note_on_c, 1, 40, 0
3, 156720, Note_on_c, 1, 41, 100
3, 156840, Note_on_c, 1, 41, 0
3, 156840, Note_on_c, 1, 40, 100
3, 156900, Note_on_c, 1, 40, 0
3, 156900, Note_on_c, 1, 40, 100
3, 156960, Note_on_c, 1, 40, 0
3, 156960, Note_on_c, 1, 40, 100
3, 157020, Note_on_c, 1, 40, 0
3, 157020, Note_on_c, 1, 40, 100
3, 157080, Note_on_c, 1, 40, 0
3, 157080, Note_on_c, 1, 40, 100
3, 157200, Note_on_c, 1, 40, 0
3, 157200, Note_on_c, 1, 45, 100
3, 157320, Note_on_c, 1, 45, 0
3, 157320, Note_on_c, 1, 45, 100
3, 157380, Note_on_c, 1, 45, 0
3, 157380, Note_on_c, 1, 45, 100
3, 157440, Note_on_c, 1, 45, 0
3, 157440, Note_on_c, 1, 45, 100
3, 157500, Note_on_c, 1, 45, 0
3, 157500, Note_on_c, 1, 45, 100
3, 157560, Note_on_c, 1, 45, 0
3, 157560, Note_on_c, 1, 46, 100
3, 157620, Note_on_c, 1, 46, 0
3, 157620, Note_on_c, 1, 46, 100
3, 157680, Note_on_c, 1, 46, 0
3, 157680, Note_on_c, 1, 45, 100
3, 157800, Note_on_c, 1, 45, 0
3, 157800, Note_on_c, 1, 45, 100
3, 157920, Note_on_c, 1, 45, 0
3, 157920, Note_on_c, 1, 43, 100
3, 158040, Note_on_c, 1, 43, 0
3, 158040, Note_on_c, 1, 40, 100
3, 158160, Note_on_c, 1, 40, 0
3, 158160, Note_on_c, 1, 40, 100
3, 158400, Note_on_c, 1, 40, 0
3, 158400, End_track
4, 0, Start_track
4, 0, MIDI_port, 0
4, 0, Title_t, "Second Guitar"
4, 0, Program_c, 2, 30
4, 0, Control_c, 2, 7, 124
4, 0, Control_c, 2, 10, 85
4, 0, Control_c, 2, 64, 0
4, 5760, Note_on_c, 2, 45, 100
4, 5820, Note_on_c, 2, 45, 0
4, 5820, Note_on_c, 2, 45, 100
4, 5880, Note_on_c, 2, 45, 0
4, 5880, Note_on_c, 2, 45, 100
4, 5940, Note_on_c, 2, 45, 0
4, 5940, Note_on_c, 2, 45, 100
4, 6000, Note_on_c, 2, 45, 0
4, 6000, Note_on_c, 2, 45, 100
4, 6060, Note_on_c, 2, 45, 0
4, 6060, Note_on_c, 2, 45, 100
4, 6120, Note_on_c, 2, 45, 0
4, 6120, Note_on_c, 2, 46, 100
4, 6180, Note_on_c, 2, 46, 0
4, 6180, Note_on_c, 2, 46, 100
4, 6240, Note_on_c, 2, 46, 0
4, 6240, Note_on_c, 2, 45, 100
4, 6360, Note_on_c, 2, 45, 0
4, 6360, Note_on_c, 2, 40, 100
4, 6420, Note_on_c, 2, 40, 0
4, 6420, Note_on_c, 2, 40, 100
4, 6480, Note_on_c, 2, 40, 0
4, 6480, Note_on_c, 2, 43, 100
4, 6600, Note_on_c, 2, 43, 0
4, 6600, Note_on_c, 2, 40, 100
4, 6660, Note_on_c, 2, 40, 0
4, 6660, Note_on_c, 2, 40, 100
4, 6720, Note_on_c, 2, 40, 0
4, 6720, Note_on_c, 2, 41, 100
4, 6780, Note_on_c, 2, 41, 0
4, 6780, Note_on_c, 2, 40, 100
4, 6840, Note_on_c, 2, 40, 0
4, 6840, Note_on_c, 2, 40, 100
4, 6900, Note_on_c, 2, 40, 0
4, 6900, Note_on_c, 2, 40, 100
4, 6960, Note_on_c, 2, 40, 0
4, 6960, Note_on_c, 2, 40, 100
4, 7020, Note_on_c, 2, 40, 0
4, 7020, Note_on_c, 2, 40, 100
4, 7080, Note_on_c, 2, 40, 0
4, 7080, Note_on_c, 2, 41, 100
4, 7140, Note_on_c, 2, 41, 0
4, 7140, Note_on_c, 2, 40, 100
4, 7200, Note_on_c, 2, 40, 0
4, 7200, Note_on_c, 2, 41, 100
4, 7260, Note_on_c, 2, 41, 0
4, 7260, Note_on_c, 2, 40, 100
4, 7320, Note_on_c, 2, 40, 0
4, 7320, Note_on_c, 2, 40, 100
4, 7380, Note_on_c, 2, 40, 0
4, 7380, Note_on_c, 2, 40, 100
4, 7440, Note_on_c, 2, 40, 0
4, 7440, Note_on_c, 2, 41, 100
4, 7500, Note_on_c, 2, 41, 0
4, 7500, Note_on_c, 2, 40, 100
4, 7560, Note_on_c, 2, 40, 0
4, 7560, Note_on_c, 2, 40, 100
4, 7620, Note_on_c, 2, 40, 0
4, 7620, Note_on_c, 2, 40, 100
4, 7680, Note_on_c, 2, 40, 0
4, 7680, Note_on_c, 2, 45, 100
4, 7740, Note_on_c, 2, 45, 0
4, 7740, Note_on_c, 2, 45, 100
4, 7800, Note_on_c, 2, 45, 0
4, 7800, Note_on_c, 2, 45, 100
4, 7860, Note_on_c, 2, 45, 0
4, 7860, Note_on_c, 2, 45, 100
4, 7920, Note_on_c, 2, 45, 0
4, 7920, Note_on_c, 2, 45, 100
4, 7980, Note_on_c, 2, 45, 0
4, 7980, Note_on_c, 2, 45, 100
4, 8040, Note_on_c, 2, 45, 0
4, 8040, Note_on_c, 2, 46, 100
4, 8100, Note_on_c, 2, 46, 0
4, 8100, Note_on_c, 2, 46, 100
4, 8160, Note_on_c, 2, 46, 0
4, 8160, Note_on_c, 2, 45, 100
4, 8280, Note_on_c, 2, 45, 0
4, 8280, Note_on_c, 2, 40, 100
4, 8340, Note_on_c, 2, 40, 0
4, 8340, Note_on_c, 2, 40, 100
4, 8400, Note_on_c, 2, 40, 0
4, 8400, Note_on_c, 2, 43, 100
4, 8520, Note_on_c, 2, 43, 0
4, 8520, Note_on_c, 2, 40, 100
4, 8580, Note_on_c, 2, 40, 0
4, 8580, Note_on_c, 2, 40, 100
4, 8640, Note_on_c, 2, 40, 0
4, 8640, Note_on_c, 2, 41, 100
4, 8700, Note_on_c, 2, 41, 0
4, 8700, Note_on_c, 2, 40, 100
4, 8760, Note_on_c, 2, 40, 0
4, 8760, Note_on_c, 2, 40, 100
4, 8820, Note_on_c, 2, 40, 0
4, 8820, Note_on_c, 2, 40, 100
4, 8880, Note_on_c, 2, 40, 0
4, 8880, Note_on_c, 2, 40, 100
4, 8940, Note_on_c, 2, 40, 0
4, 8940, Note_on_c, 2, 40, 100
4, 9000, Note_on_c, 2, 40, 0
4, 9000, Note_on_c, 2, 41, 100
4, 9060, Note_on_c, 2, 41, 0
4, 9060, Note_on_c, 2, 40, 100
4, 9120, Note_on_c, 2, 40, 0
4, 9120, Note_on_c, 2, 41, 100
4, 9180, Note_on_c, 2, 41, 0
4, 9180, Note_on_c, 2, 40, 100
4, 9240, Note_on_c, 2, 40, 0
4, 9240, Note_on_c, 2, 40, 100
4, 9300, Note_on_c, 2, 40, 0
4, 9300, Note_on_c, 2, 40, 100
4, 9360, Note_on_c, 2, 40, 0
4, 9360, Note_on_c, 2, 41, 100
4, 9420, Note_on_c, 2, 41, 0
4, 9420, Note_on_c, 2, 40, 100
4, 9480, Note_on_c, 2, 40, 0
4, 9480, Note_on_c, 2, 40, 100
4, 9540, Note_on_c, 2, 40, 0
4, 9540, Note_on_c, 2, 40, 100
4, 9600, Note_on_c, 2, 40, 0
4, 9600, Note_on_c, 2, 45, 100
4, 9660, Note_on_c, 2, 45, 0
4, 9660, Note_on_c, 2, 45, 100
4, 9720, Note_on_c, 2, 45, 0
4, 9720, Note_on_c, 2, 45, 100
4, 9780, Note_on_c, 2, 45, 0
4, 9780, Note_on_c, 2, 45, 100
4, 9840, Note_on_c, 2, 45, 0
4, 9840, Note_on_c, 2, 45, 100
4, 9900, Note_on_c, 2, 45, 0
4, 9900, Note_on_c, 2, 45, 100
4, 9960, Note_on_c, 2, 45, 0
4, 9960, Note_on_c, 2, 46, 100
4, 10020, Note_on_c, 2, 46, 0
4, 10020, Note_on_c, 2, 46, 100
4, 10080, Note_on_c, 2, 46, 0
4, 10080, Note_on_c, 2, 45, 100
4, 10200, Note_on_c, 2, 45, 0
4, 10200, Note_on_c, 2, 40, 100
4, 10260, Note_on_c, 2, 40, 0
4, 10260, Note_on_c, 2, 40, 100
4, 10320, Note_on_c, 2, 40, 0
4, 10320, Note_on_c, 2, 43, 100
4, 10440, Note_on_c, 2, 43, 0
4, 10440, Note_on_c, 2, 40, 100
4, 10500, Note_on_c, 2, 40, 0
4, 10500, Note_on_c, 2, 40, 100
4, 10560, Note_on_c, 2, 40, 0
4, 10560, Note_on_c, 2, 41, 100
4, 10620, Note_on_c, 2, 41, 0
4, 10620, Note_on_c, 2, 40, 100
4, 10680, Note_on_c, 2, 40, 0
4, 10680, Note_on_c, 2, 40, 100
4, 10740, Note_on_c, 2, 40, 0
4, 10740, Note_on_c, 2, 40, 100
4, 10800, Note_on_c, 2, 40, 0
4, 10800, Note_on_c, 2, 40, 100
4, 10860, Note_on_c, 2, 40, 0
4, 10860, Note_on_c, 2, 40, 100
4, 10920, Note_on_c, 2, 40, 0
4, 10920, Note_on_c, 2, 41, 100
4, 10980, Note_on_c, 2, 41, 0
4, 10980, Note_on_c, 2, 40, 100
4, 11040, Note_on_c, 2, 40, 0
4, 11040, Note_on_c, 2, 41, 100
4, 11100, Note_on_c, 2, 41, 0
4, 11100, Note_on_c, 2, 40, 100
4, 11160, Note_on_c, 2, 40, 0
4, 11160, Note_on_c, 2, 40, 100
4, 11220, Note_on_c, 2, 40, 0
4, 11220, Note_on_c, 2, 40, 100
4, 11280, Note_on_c, 2, 40, 0
4, 11280, Note_on_c, 2, 41, 100
4, 11340, Note_on_c, 2, 41, 0
4, 11340, Note_on_c, 2, 40, 100
4, 11400, Note_on_c, 2, 40, 0
4, 11400, Note_on_c, 2, 40, 100
4, 11460, Note_on_c, 2, 40, 0
4, 11460, Note_on_c, 2, 40, 100
4, 11520, Note_on_c, 2, 40, 0
4, 79440, Note_on_c, 2, 71, 110
4, 79560, Note_on_c, 2, 71, 0
4, 79560, Note_on_c, 2, 71, 110
4, 79680, Note_on_c, 2, 71, 0
4, 79680, Note_on_c, 2, 71, 110
4, 79800, Note_on_c, 2, 71, 0
4, 79800, Note_on_c, 2, 71, 110
4, 79920, Note_on_c, 2, 71, 0
4, 79920, Note_on_c, 2, 69, 110
4, 80160, Note_on_c, 2, 69, 0
4, 80160, Note_on_c, 2, 67, 110
4, 80280, Note_on_c, 2, 67, 0
4, 80280, Note_on_c, 2, 71, 110
4, 80400, Note_on_c, 2, 71, 0
4, 80520, Note_on_c, 2, 67, 110
4, 81360, Note_on_c, 2, 67, 0
4, 81360, Note_on_c, 2, 59, 110
4, 81480, Note_on_c, 2, 59, 0
4, 81480, Note_on_c, 2, 59, 110
4, 81600, Note_on_c, 2, 59, 0
4, 81600, Note_on_c, 2, 59, 110
4, 81720, Note_on_c, 2, 59, 0
4, 81720, Note_on_c, 2, 59, 110
4, 81840, Note_on_c, 2, 59, 0
4, 81840, Note_on_c, 2, 57, 110
4, 82080, Note_on_c, 2, 57, 0
4, 82080, Note_on_c, 2, 55, 110
4, 82200, Note_on_c, 2, 55, 0
4, 82200, Note_on_c, 2, 59, 110
4, 83160, Note_on_c, 2, 59, 0
4, 83160, Note_on_c, 2, 62, 110
4, 83280, Note_on_c, 2, 62, 0
4, 83280, Note_on_c, 2, 71, 110
4, 83400, Note_on_c, 2, 71, 0
4, 83400, Note_on_c, 2, 71, 110
4, 83520, Note_on_c, 2, 71, 0
4, 83520, Note_on_c, 2, 71, 110
4, 83640, Note_on_c, 2, 71, 0
4, 83640, Note_on_c, 2, 71, 110
4, 83760, Note_on_c, 2, 71, 0
4, 83760, Note_on_c, 2, 69, 110
4, 84000, Note_on_c, 2, 69, 0
4, 84000, Note_on_c, 2, 67, 110
4, 84120, Note_on_c, 2, 67, 0
4, 84120, Note_on_c, 2, 71, 110
4, 84240, Note_on_c, 2, 71, 0
4, 84360, Note_on_c, 2, 67, 110
4, 85080, Note_on_c, 2, 67, 0
4, 85080, Note_on_c, 2, 62, 110
4, 85200, Note_on_c, 2, 62, 0
4, 85200, Note_on_c, 2, 71, 110
4, 85320, Note_on_c, 2, 71, 0
4, 85320, Note_on_c, 2, 71, 110
4, 85440, Note_on_c, 2, 71, 0
4, 85440, Note_on_c, 2, 71, 110
4, 85560, Note_on_c, 2, 71, 0
4, 85560, Note_on_c, 2, 71, 110
4, 85680, Note_on_c, 2, 71, 0
4, 85680, Note_on_c, 2, 69, 110
4, 85920, Note_on_c, 2, 69, 0
4, 85920, Note_on_c, 2, 67, 110
4, 86100, Note_on_c, 2, 67, 0
4, 86100, Note_on_c, 2, 71, 110
4, 86160, Note_on_c, 2, 71, 0
4, 86280, Note_on_c, 2, 67, 110
4, 86400, Note_on_c, 2, 67, 0
4, 86520, Note_on_c, 2, 64, 110
4, 87120, Note_on_c, 2, 64, 0
4, 87120, End_track
5, 0, Start_track
5, 0, MIDI_port, 0
5, 0, Title_t, "Clean Guitar W/Sustain"
5, 0, Program_c, 3, 27
5, 0, Control_c, 3, 7, 95
5, 0, Control_c, 3, 10, 70
5, 0, Control_c, 3, 64, 127
5, 12000, Note_on_c, 3, 80, 100
5, 12120, Note_on_c, 3, 80, 0
5, 12120, Note_on_c, 3, 76, 100
5, 12240, Note_on_c, 3, 76, 0
5, 12240, Note_on_c, 3, 80, 100
5, 12360, Note_on_c, 3, 80, 0
5, 12360, Note_on_c, 3, 67, 100
5, 12480, Note_on_c, 3, 67, 0
5, 12480, Note_on_c, 3, 62, 100
5, 12600, Note_on_c, 3, 62, 0
5, 12600, Note_on_c, 3, 64, 100
5, 12720, Note_on_c, 3, 64, 0
5, 12720, Note_on_c, 3, 67, 100
5, 12960, Note_on_c, 3, 67, 0
5, 12960, Note_on_c, 3, 80, 100
5, 13080, Note_on_c, 3, 80, 0
5, 13080, Note_on_c, 3, 74, 100
5, 13200, Note_on_c, 3, 74, 0
5, 13200, Note_on_c, 3, 76, 100
5, 13320, Note_on_c, 3, 76, 0
5, 13320, Note_on_c, 3, 71, 100
5, 13440, Note_on_c, 3, 71, 0
5, 13440, Note_on_c, 3, 62, 100
5, 13560, Note_on_c, 3, 62, 0
5, 13560, Note_on_c, 3, 64, 100
5, 13680, Note_on_c, 3, 64, 0
5, 13680, Note_on_c, 3, 62, 100
5, 13800, Note_on_c, 3, 62, 0
5, 13800, Note_on_c, 3, 67, 100
5, 13920, Note_on_c, 3, 67, 0
5, 13920, Note_on_c, 3, 80, 100
5, 14040, Note_on_c, 3, 80, 0
5, 14040, Note_on_c, 3, 76, 100
5, 14160, Note_on_c, 3, 76, 0
5, 14160, Note_on_c, 3, 80, 100
5, 14280, Note_on_c, 3, 80, 0
5, 14280, Note_on_c, 3, 76, 100
5, 14400, Note_on_c, 3, 76, 0
5, 14400, Note_on_c, 3, 62, 100
5, 14520, Note_on_c, 3, 62, 0
5, 14520, Note_on_c, 3, 64, 100
5, 14640, Note_on_c, 3, 64, 0
5, 14640, Note_on_c, 3, 67, 100
5, 14880, Note_on_c, 3, 67, 0
5, 14880, Note_on_c, 3, 80, 100
5, 15000, Note_on_c, 3, 80, 0
5, 15000, Note_on_c, 3, 74, 100
5, 15120, Note_on_c, 3, 74, 0
5, 15120, Note_on_c, 3, 76, 100
5, 15240, Note_on_c, 3, 76, 0
5, 15240, Note_on_c, 3, 71, 100
5, 15360, Note_on_c, 3, 71, 0
5, 15360, Note_on_c, 3, 62, 100
5, 15480, Note_on_c, 3, 62, 0
5, 15480, Note_on_c, 3, 64, 100
5, 15600, Note_on_c, 3, 64, 0
5, 15600, Note_on_c, 3, 62, 100
5, 15720, Note_on_c, 3, 62, 0
5, 15720, Note_on_c, 3, 67, 100
5, 15840, Note_on_c, 3, 67, 0
5, 15840, Note_on_c, 3, 80, 100
5, 15960, Note_on_c, 3, 80, 0
5, 15960, Note_on_c, 3, 76, 100
5, 16080, Note_on_c, 3, 76, 0
5, 16080, Note_on_c, 3, 80, 100
5, 16200, Note_on_c, 3, 80, 0
5, 16200, Note_on_c, 3, 76, 100
5, 16320, Note_on_c, 3, 76, 0
5, 16320, Note_on_c, 3, 62, 100
5, 16440, Note_on_c, 3, 62, 0
5, 16440, Note_on_c, 3, 64, 100
5, 16560, Note_on_c, 3, 64, 0
5, 16560, Note_on_c, 3, 67, 100
5, 16800, Note_on_c, 3, 67, 0
5, 16800, Note_on_c, 3, 80, 100
5, 16920, Note_on_c, 3, 80, 0
5, 16920, Note_on_c, 3, 74, 100
5, 17040, Note_on_c, 3, 74, 0
5, 17040, Note_on_c, 3, 76, 100
5, 17160, Note_on_c, 3, 76, 0
5, 17160, Note_on_c, 3, 71, 100
5, 17280, Note_on_c, 3, 71, 0
5, 17280, Note_on_c, 3, 62, 100
5, 17400, Note_on_c, 3, 62, 0
5, 17400, Note_on_c, 3, 64, 100
5, 17520, Note_on_c, 3, 64, 0
5, 17520, Note_on_c, 3, 62, 100
5, 17640, Note_on_c, 3, 62, 0
5, 17640, Note_on_c, 3, 67, 100
5, 17760, Note_on_c, 3, 67, 0
5, 17760, Note_on_c, 3, 80, 100
5, 17880, Note_on_c, 3, 80, 0
5, 17880, Note_on_c, 3, 76, 100
5, 18000, Note_on_c, 3, 76, 0
5, 18000, Note_on_c, 3, 80, 100
5, 18120, Note_on_c, 3, 80, 0
5, 18120, Note_on_c, 3, 76, 100
5, 18240, Note_on_c, 3, 76, 0
5, 18240, Note_on_c, 3, 62, 100
5, 18360, Note_on_c, 3, 62, 0
5, 18360, Note_on_c, 3, 64, 100
5, 18480, Note_on_c, 3, 64, 0
5, 18480, Note_on_c, 3, 67, 100
5, 18720, Note_on_c, 3, 67, 0
5, 18720, Note_on_c, 3, 80, 100
5, 18840, Note_on_c, 3, 80, 0
5, 18840, Note_on_c, 3, 74, 100
5, 18960, Note_on_c, 3, 74, 0
5, 18960, Note_on_c, 3, 76, 100
5, 19080, Note_on_c, 3, 76, 0
5, 19080, Note_on_c, 3, 71, 100
5, 19440, Note_on_c, 3, 71, 0
5, 63600, Note_on_c, 3, 62, 100
5, 63840, Note_on_c, 3, 62, 0
5, 63840, Note_on_c, 3, 67, 100
5, 64080, Note_on_c, 3, 67, 0
5, 64080, Note_on_c, 3, 80, 100
5, 64320, Note_on_c, 3, 80, 0
5, 64320, Note_on_c, 3, 76, 100
5, 64560, Note_on_c, 3, 76, 0
5, 64560, Note_on_c, 3, 52, 100
5, 64680, Note_on_c, 3, 52, 0
5, 64680, Note_on_c, 3, 64, 100
5, 64800, Note_on_c, 3, 64, 0
5, 64800, Note_on_c, 3, 62, 100
5, 64920, Note_on_c, 3, 62, 0
5, 64920, Note_on_c, 3, 67, 100
5, 65040, Note_on_c, 3, 67, 0
5, 65040, Note_on_c, 3, 80, 100
5, 65160, Note_on_c, 3, 80, 0
5, 65160, Note_on_c, 3, 76, 100
5, 65280, Note_on_c, 3, 76, 0
5, 65280, Note_on_c, 3, 80, 100
5, 65400, Note_on_c, 3, 80, 0
5, 65400, Note_on_c, 3, 67, 100
5, 65520, Note_on_c, 3, 67, 0
5, 65520, Note_on_c, 3, 62, 100
5, 65760, Note_on_c, 3, 62, 0
5, 65760, Note_on_c, 3, 67, 100
5, 66000, Note_on_c, 3, 67, 0
5, 66000, Note_on_c, 3, 80, 100
5, 66240, Note_on_c, 3, 80, 0
5, 66240, Note_on_c, 3, 76, 100
5, 66480, Note_on_c, 3, 76, 0
5, 66480, Note_on_c, 3, 52, 100
5, 66600, Note_on_c, 3, 52, 0
5, 66600, Note_on_c, 3, 64, 100
5, 66720, Note_on_c, 3, 64, 0
5, 66720, Note_on_c, 3, 62, 100
5, 66840, Note_on_c, 3, 62, 0
5, 66840, Note_on_c, 3, 67, 100
5, 66960, Note_on_c, 3, 67, 0
5, 66960, Note_on_c, 3, 80, 100
5, 67080, Note_on_c, 3, 80, 0
5, 67080, Note_on_c, 3, 76, 100
5, 67200, Note_on_c, 3, 76, 0
5, 67200, Note_on_c, 3, 80, 100
5, 67320, Note_on_c, 3, 80, 0
5, 67320, Note_on_c, 3, 67, 100
5, 67440, Note_on_c, 3, 67, 0
5, 67440, Note_on_c, 3, 62, 100
5, 67680, Note_on_c, 3, 62, 0
5, 67680, Note_on_c, 3, 67, 100
5, 67920, Note_on_c, 3, 67, 0
5, 67920, Note_on_c, 3, 80, 100
5, 68160, Note_on_c, 3, 80, 0
5, 68160, Note_on_c, 3, 76, 100
5, 68400, Note_on_c, 3, 76, 0
5, 68400, Note_on_c, 3, 52, 100
5, 68520, Note_on_c, 3, 52, 0
5, 68520, Note_on_c, 3, 64, 100
5, 68640, Note_on_c, 3, 64, 0
5, 68640, Note_on_c, 3, 62, 100
5, 68760, Note_on_c, 3, 62, 0
5, 68760, Note_on_c, 3, 67, 100
5, 68880, Note_on_c, 3, 67, 0
5, 68880, Note_on_c, 3, 80, 100
5, 69000, Note_on_c, 3, 80, 0
5, 69000, Note_on_c, 3, 76, 100
5, 69120, Note_on_c, 3, 76, 0
5, 69120, Note_on_c, 3, 80, 100
5, 69240, Note_on_c, 3, 80, 0
5, 69240, Note_on_c, 3, 67, 100
5, 69360, Note_on_c, 3, 67, 0
5, 69360, Note_on_c, 3, 62, 100
5, 69600, Note_on_c, 3, 62, 0
5, 69600, Note_on_c, 3, 67, 100
5, 69840, Note_on_c, 3, 67, 0
5, 69840, Note_on_c, 3, 80, 100
5, 70080, Note_on_c, 3, 80, 0
5, 70080, Note_on_c, 3, 76, 100
5, 70320, Note_on_c, 3, 76, 0
5, 70320, Note_on_c, 3, 64, 100
5, 70680, Note_on_c, 3, 64, 0
5, 70680, Note_on_c, 3, 64, 100
5, 70800, Note_on_c, 3, 64, 0
5, 70800, Note_on_c, 3, 64, 100
5, 70920, Note_on_c, 3, 64, 0
5, 70920, Note_on_c, 3, 62, 100
5, 71040, Note_on_c, 3, 62, 0
5, 71040, Note_on_c, 3, 64, 100
5, 71760, Note_on_c, 3, 64, 0
5, 115440, Note_on_c, 3, 80, 100
5, 115560, Note_on_c, 3, 80, 0
5, 115560, Note_on_c, 3, 76, 100
5, 115680, Note_on_c, 3, 76, 0
5, 115680, Note_on_c, 3, 80, 100
5, 115800, Note_on_c, 3, 80, 0
5, 115800, Note_on_c, 3, 67, 100
5, 115920, Note_on_c, 3, 67, 0
5, 115920, Note_on_c, 3, 62, 100
5, 116160, Note_on_c, 3, 62, 0
5, 116160, Note_on_c, 3, 67, 100
5, 116400, Note_on_c, 3, 67, 0
5, 116400, Note_on_c, 3, 80, 100
5, 116640, Note_on_c, 3, 80, 0
5, 116640, Note_on_c, 3, 76, 100
5, 116880, Note_on_c, 3, 76, 0
5, 116880, Note_on_c, 3, 52, 100
5, 117000, Note_on_c, 3, 52, 0
5, 117000, Note_on_c, 3, 64, 100
5, 117120, Note_on_c, 3, 64, 0
5, 117120, Note_on_c, 3, 62, 100
5, 117240, Note_on_c, 3, 62, 0
5, 117240, Note_on_c, 3, 67, 100
5, 117360, Note_on_c, 3, 67, 0
5, 117360, Note_on_c, 3, 80, 100
5, 117480, Note_on_c, 3, 80, 0
5, 117480, Note_on_c, 3, 76, 100
5, 117600, Note_on_c, 3, 76, 0
5, 117600, Note_on_c, 3, 80, 100
5, 117720, Note_on_c, 3, 80, 0
5, 117720, Note_on_c, 3, 67, 100
5, 117840, Note_on_c, 3, 67, 0
5, 117840, Note_on_c, 3, 62, 100
5, 118080, Note_on_c, 3, 62, 0
5, 118080, Note_on_c, 3, 67, 100
5, 118320, Note_on_c, 3, 67, 0
5, 118320, Note_on_c, 3, 80, 100
5, 118560, Note_on_c, 3, 80, 0
5, 118560, Note_on_c, 3, 76, 100
5, 118800, Note_on_c, 3, 76, 0
5, 118800, Note_on_c, 3, 52, 100
5, 118920, Note_on_c, 3, 52, 0
5, 118920, Note_on_c, 3, 64, 100
5, 119040, Note_on_c, 3, 64, 0
5, 119040, Note_on_c, 3, 62, 100
5, 119160, Note_on_c, 3, 62, 0
5, 119160, Note_on_c, 3, 67, 100
5, 119280, Note_on_c, 3, 67, 0
5, 119280, Note_on_c, 3, 80, 100
5, 119400, Note_on_c, 3, 80, 0
5, 119400, Note_on_c, 3, 76, 100
5, 119520, Note_on_c, 3, 76, 0
5, 119520, Note_on_c, 3, 80, 100
5, 119640, Note_on_c, 3, 80, 0
5, 119640, Note_on_c, 3, 67, 100
5, 119760, Note_on_c, 3, 67, 0
5, 119760, Note_on_c, 3, 62, 100
5, 120000, Note_on_c, 3, 62, 0
5, 120000, Note_on_c, 3, 67, 100
5, 120240, Note_on_c, 3, 67, 0
5, 120240, Note_on_c, 3, 80, 100
5, 120480, Note_on_c, 3, 80, 0
5, 120480, Note_on_c, 3, 76, 100
5, 120720, Note_on_c, 3, 76, 0
5, 120720, Note_on_c, 3, 52, 100
5, 120840, Note_on_c, 3, 52, 0
5, 120840, Note_on_c, 3, 64, 100
5, 120960, Note_on_c, 3, 64, 0
5, 120960, Note_on_c, 3, 62, 100
5, 121080, Note_on_c, 3, 62, 0
5, 121080, Note_on_c, 3, 67, 100
5, 121200, Note_on_c, 3, 67, 0
5, 121200, Note_on_c, 3, 80, 100
5, 121320, Note_on_c, 3, 80, 0
5, 121320, Note_on_c, 3, 76, 100
5, 121440, Note_on_c, 3, 76, 0
5, 121440, Note_on_c, 3, 80, 100
5, 121560, Note_on_c, 3, 80, 0
5, 121560, Note_on_c, 3, 67, 100
5, 121680, Note_on_c, 3, 67, 0
5, 121680, Note_on_c, 3, 62, 100
5, 121920, Note_on_c, 3, 62, 0
5, 121920, Note_on_c, 3, 67, 100
5, 122160, Note_on_c, 3, 67, 0
5, 122160, Note_on_c, 3, 80, 100
5, 122400, Note_on_c, 3, 80, 0
5, 122400, Note_on_c, 3, 76, 100
5, 122640, Note_on_c, 3, 76, 0
5, 122640, End_track
6, 0, Start_track
6, 0, MIDI_port, 0
6, 0, Title_t, "Lead Vocals"
6, 0, Program_c, 15, 81
6, 0, Control_c, 15, 7, 127
6, 0, Control_c, 15, 10, 70
6, 32760, Note_on_c, 15, 64, 100
6, 32880, Note_on_c, 15, 64, 0
6, 32880, Note_on_c, 15, 70, 100
6, 33000, Note_on_c, 15, 70, 0
6, 33000, Note_on_c, 15, 70, 100
6, 33240, Note_on_c, 15, 70, 0
6, 33240, Note_on_c, 15, 69, 100
6, 33480, Note_on_c, 15, 69, 0
6, 33480, Note_on_c, 15, 67, 100
6, 33600, Note_on_c, 15, 67, 0
6, 33600, Note_on_c, 15, 64, 100
6, 33720, Note_on_c, 15, 64, 0
6, 33720, Note_on_c, 15, 67, 100
6, 33840, Note_on_c, 15, 67, 0
6, 33840, Note_on_c, 15, 64, 100
6, 33960, Note_on_c, 15, 64, 0
6, 33960, Note_on_c, 15, 67, 100
6, 34560, Note_on_c, 15, 67, 0
6, 34680, Note_on_c, 15, 70, 100
6, 34920, Note_on_c, 15, 70, 0
6, 34920, Note_on_c, 15, 70, 100
6, 35040, Note_on_c, 15, 70, 0
6, 35040, Note_on_c, 15, 70, 100
6, 35160, Note_on_c, 15, 70, 0
6, 35160, Note_on_c, 15, 70, 100
6, 35280, Note_on_c, 15, 70, 0
6, 35280, Note_on_c, 15, 69, 100
6, 35400, Note_on_c, 15, 69, 0
6, 35400, Note_on_c, 15, 67, 100
6, 35520, Note_on_c, 15, 67, 0
6, 35520, Note_on_c, 15, 70, 100
6, 35640, Note_on_c, 15, 70, 0
6, 35640, Note_on_c, 15, 69, 100
6, 35880, Note_on_c, 15, 69, 0
6, 35880, Note_on_c, 15, 67, 100
6, 36240, Note_on_c, 15, 67, 0
6, 36600, Note_on_c, 15, 64, 100
6, 36720, Note_on_c, 15, 64, 0
6, 36720, Note_on_c, 15, 70, 100
6, 36840, Note_on_c, 15, 70, 0
6, 36840, Note_on_c, 15, 70, 100
6, 36960, Note_on_c, 15, 70, 0
6, 36960, Note_on_c, 15, 70, 100
6, 37080, Note_on_c, 15, 70, 0
6, 37080, Note_on_c, 15, 69, 100
6, 37320, Note_on_c, 15, 69, 0
6, 37320, Note_on_c, 15, 67, 100
6, 37440, Note_on_c, 15, 67, 0
6, 37440, Note_on_c, 15, 64, 100
6, 37560, Note_on_c, 15, 64, 0
6, 37560, Note_on_c, 15, 71, 100
6, 37800, Note_on_c, 15, 71, 0
6, 37800, Note_on_c, 15, 64, 100
6, 38040, Note_on_c, 15, 64, 0
6, 38040, Note_on_c, 15, 67, 100
6, 38280, Note_on_c, 15, 67, 0
6, 38280, Note_on_c, 15, 64, 100
6, 38520, Note_on_c, 15, 64, 0
6, 38520, Note_on_c, 15, 64, 100
6, 38640, Note_on_c, 15, 64, 0
6, 38640, Note_on_c, 15, 70, 100
6, 38760, Note_on_c, 15, 70, 0
6, 38760, Note_on_c, 15, 70, 100
6, 38880, Note_on_c, 15, 70, 0
6, 38880, Note_on_c, 15, 70, 100
6, 39120, Note_on_c, 15, 70, 0
6, 39120, Note_on_c, 15, 69, 100
6, 39240, Note_on_c, 15, 69, 0
6, 39240, Note_on_c, 15, 67, 100
6, 39360, Note_on_c, 15, 67, 0
6, 39360, Note_on_c, 15, 64, 100
6, 39480, Note_on_c, 15, 64, 0
6, 39480, Note_on_c, 15, 67, 100
6, 39600, Note_on_c, 15, 67, 0
6, 39600, Note_on_c, 15, 64, 100
6, 40320, Note_on_c, 15, 64, 0
6, 40440, Note_on_c, 15, 76, 100
6, 40560, Note_on_c, 15, 76, 0
6, 40560, Note_on_c, 15, 83, 100
6, 40680, Note_on_c, 15, 83, 0
6, 40680, Note_on_c, 15, 83, 100
6, 40800, Note_on_c, 15, 83, 0
6, 40800, Note_on_c, 15, 83, 100
6, 40920, Note_on_c, 15, 83, 0
6, 40920, Note_on_c, 15, 81, 100
6, 41160, Note_on_c, 15, 81, 0
6, 41160, Note_on_c, 15, 79, 100
6, 41280, Note_on_c, 15, 79, 0
6, 41280, Note_on_c, 15, 76, 100
6, 41400, Note_on_c, 15, 76, 0
6, 41400, Note_on_c, 15, 81, 100
6, 41640, Note_on_c, 15, 81, 0
6, 41640, Note_on_c, 15, 79, 100
6, 41760, Note_on_c, 15, 79, 0
6, 41760, Note_on_c, 15, 76, 100
6, 42000, Note_on_c, 15, 76, 0
6, 42240, Note_on_c, 15, 76, 100
6, 42360, Note_on_c, 15, 76, 0
6, 42360, Note_on_c, 15, 76, 100
6, 42480, Note_on_c, 15, 76, 0
6, 42480, Note_on_c, 15, 83, 100
6, 42600, Note_on_c, 15, 83, 0
6, 42600, Note_on_c, 15, 83, 100
6, 42720, Note_on_c, 15, 83, 0
6, 42720, Note_on_c, 15, 83, 100
6, 42960, Note_on_c, 15, 83, 0
6, 42960, Note_on_c, 15, 81, 100
6, 43080, Note_on_c, 15, 81, 0
6, 43080, Note_on_c, 15, 79, 100
6, 43200, Note_on_c, 15, 79, 0
6, 43200, Note_on_c, 15, 83, 100
6, 43320, Note_on_c, 15, 83, 0
6, 43320, Note_on_c, 15, 83, 100
6, 44160, Note_on_c, 15, 83, 0
6, 44280, Note_on_c, 15, 76, 100
6, 44400, Note_on_c, 15, 76, 0
6, 44400, Note_on_c, 15, 83, 100
6, 44520, Note_on_c, 15, 83, 0
6, 44520, Note_on_c, 15, 83, 100
6, 44760, Note_on_c, 15, 83, 0
6, 44760, Note_on_c, 15, 81, 100
6, 45120, Note_on_c, 15, 81, 0
6, 45120, Note_on_c, 15, 79, 100
6, 45240, Note_on_c, 15, 79, 0
6, 45240, Note_on_c, 15, 81, 100
6, 45480, Note_on_c, 15, 81, 0
6, 45480, Note_on_c, 15, 79, 100
6, 45600, Note_on_c, 15, 79, 0
6, 45600, Note_on_c, 15, 76, 100
6, 45840, Note_on_c, 15, 76, 0
6, 46080, Note_on_c, 15, 76, 100
6, 46200, Note_on_c, 15, 76, 0
6, 46200, Note_on_c, 15, 76, 100
6, 46320, Note_on_c, 15, 76, 0
6, 46320, Note_on_c, 15, 83, 100
6, 46440, Note_on_c, 15, 83, 0
6, 46440, Note_on_c, 15, 76, 100
6, 46560, Note_on_c, 15, 76, 0
6, 46560, Note_on_c, 15, 76, 100
6, 46680, Note_on_c, 15, 76, 0
6, 46680, Note_on_c, 15, 76, 100
6, 46800, Note_on_c, 15, 76, 0
6, 46800, Note_on_c, 15, 79, 100
6, 47040, Note_on_c, 15, 79, 0
6, 47040, Note_on_c, 15, 76, 100
6, 47160, Note_on_c, 15, 76, 0
6, 47160, Note_on_c, 15, 79, 100
6, 47400, Note_on_c, 15, 79, 0
6, 47400, Note_on_c, 15, 79, 100
6, 47640, Note_on_c, 15, 79, 0
6, 47640, Note_on_c, 15, 76, 100
6, 47880, Note_on_c, 15, 76, 0
6, 47880, Note_on_c, 15, 71, 100
6, 48000, Note_on_c, 15, 71, 0
6, 48000, Note_on_c, 15, 76, 100
6, 48600, Note_on_c, 15, 76, 0
6, 48600, Note_on_c, 15, 74, 100
6, 48720, Note_on_c, 15, 74, 0
6, 48720, Note_on_c, 15, 71, 100
6, 49200, Note_on_c, 15, 71, 0
6, 49440, Note_on_c, 15, 76, 100
6, 49560, Note_on_c, 15, 76, 0
6, 49560, Note_on_c, 15, 76, 100
6, 49680, Note_on_c, 15, 76, 0
6, 49680, Note_on_c, 15, 76, 100
6, 49920, Note_on_c, 15, 76, 0
6, 49920, Note_on_c, 15, 76, 100
6, 50040, Note_on_c, 15, 76, 0
6, 50040, Note_on_c, 15, 79, 100
6, 50160, Note_on_c, 15, 79, 0
6, 50160, Note_on_c, 15, 76, 100
6, 50400, Note_on_c, 15, 76, 0
6, 50760, Note_on_c, 15, 76, 100
6, 50880, Note_on_c, 15, 76, 0
6, 50880, Note_on_c, 15, 76, 100
6, 51000, Note_on_c, 15, 76, 0
6, 51000, Note_on_c, 15, 76, 100
6, 51240, Note_on_c, 15, 76, 0
6, 51240, Note_on_c, 15, 74, 100
6, 51360, Note_on_c, 15, 74, 0
6, 51360, Note_on_c, 15, 74, 100
6, 51480, Note_on_c, 15, 74, 0
6, 51480, Note_on_c, 15, 76, 100
6, 51720, Note_on_c, 15, 76, 0
6, 51720, Note_on_c, 15, 71, 100
6, 51960, Note_on_c, 15, 71, 0
6, 51960, Note_on_c, 15, 71, 100
6, 52560, Note_on_c, 15, 71, 0
6, 53160, Note_on_c, 15, 76, 100
6, 53280, Note_on_c, 15, 76, 0
6, 53280, Note_on_c, 15, 76, 100
6, 53400, Note_on_c, 15, 76, 0
6, 53400, Note_on_c, 15, 76, 100
6, 53520, Note_on_c, 15, 76, 0
6, 53520, Note_on_c, 15, 76, 100
6, 53760, Note_on_c, 15, 76, 0
6, 53760, Note_on_c, 15, 76, 100
6, 53880, Note_on_c, 15, 76, 0
6, 53880, Note_on_c, 15, 79, 100
6, 54000, Note_on_c, 15, 79, 0
6, 54000, Note_on_c, 15, 76, 100
6, 54120, Note_on_c, 15, 76, 0
6, 54120, Note_on_c, 15, 79, 100
6, 54720, Note_on_c, 15, 79, 0
6, 55080, Note_on_c, 15, 76, 100
6, 55200, Note_on_c, 15, 76, 0
6, 55200, Note_on_c, 15, 76, 100
6, 55320, Note_on_c, 15, 76, 0
6, 55320, Note_on_c, 15, 76, 100
6, 55440, Note_on_c, 15, 76, 0
6, 55440, Note_on_c, 15, 79, 100
6, 55560, Note_on_c, 15, 79, 0
6, 55560, Note_on_c, 15, 76, 100
6, 55680, Note_on_c, 15, 76, 0
6, 55680, Note_on_c, 15, 76, 100
6, 55800, Note_on_c, 15, 76, 0
6, 55800, Note_on_c, 15, 74, 100
6, 56640, Note_on_c, 15, 74, 0
6, 57000, Note_on_c, 15, 76, 100
6, 57120, Note_on_c, 15, 76, 0
6, 57120, Note_on_c, 15, 76, 100
6, 57240, Note_on_c, 15, 76, 0
6, 57240, Note_on_c, 15, 76, 100
6, 57360, Note_on_c, 15, 76, 0
6, 57360, Note_on_c, 15, 76, 100
6, 57600, Note_on_c, 15, 76, 0
6, 57600, Note_on_c, 15, 76, 100
6, 57720, Note_on_c, 15, 76, 0
6, 57720, Note_on_c, 15, 79, 100
6, 57840, Note_on_c, 15, 79, 0
6, 57840, Note_on_c, 15, 76, 100
6, 58080, Note_on_c, 15, 76, 0
6, 58920, Note_on_c, 15, 76, 100
6, 59040, Note_on_c, 15, 76, 0
6, 59040, Note_on_c, 15, 76, 100
6, 59160, Note_on_c, 15, 76, 0
6, 59160, Note_on_c, 15, 76, 100
6, 59280, Note_on_c, 15, 76, 0
6, 59280, Note_on_c, 15, 71, 100
6, 59400, Note_on_c, 15, 71, 0
6, 59400, Note_on_c, 15, 71, 100
6, 59520, Note_on_c, 15, 71, 0
6, 59520, Note_on_c, 15, 71, 100
6, 59640, Note_on_c, 15, 71, 0
6, 59640, Note_on_c, 15, 71, 100
6, 60720, Note_on_c, 15, 71, 0
6, 60840, Note_on_c, 15, 76, 100
6, 60960, Note_on_c, 15, 76, 0
6, 61080, Note_on_c, 15, 76, 100
6, 61320, Note_on_c, 15, 76, 0
6, 61320, Note_on_c, 15, 76, 100
6, 61440, Note_on_c, 15, 76, 0
6, 61440, Note_on_c, 15, 76, 100
6, 61560, Note_on_c, 15, 76, 0
6, 61560, Note_on_c, 15, 79, 100
6, 61680, Note_on_c, 15, 79, 0
6, 61680, Note_on_c, 15, 76, 100
6, 61800, Note_on_c, 15, 76, 0
6, 61800, Note_on_c, 15, 80, 100
6, 62160, Note_on_c, 15, 80, 0
6, 62520, Note_on_c, 15, 76, 100
6, 62640, Note_on_c, 15, 76, 0
6, 62640, Note_on_c, 15, 76, 100
6, 62760, Note_on_c, 15, 76, 0
6, 62760, Note_on_c, 15, 76, 100
6, 63000, Note_on_c, 15, 76, 0
6, 63000, Note_on_c, 15, 79, 100
6, 63240, Note_on_c, 15, 79, 0
6, 63240, Note_on_c, 15, 76, 100
6, 63360, Note_on_c, 15, 76, 0
6, 63360, Note_on_c, 15, 74, 100
6, 63480, Note_on_c, 15, 74, 0
6, 63480, Note_on_c, 15, 76, 100
6, 65760, Note_on_c, 15, 76, 0
6, 66360, Note_on_c, 15, 71, 100
6, 66480, Note_on_c, 15, 71, 0
6, 66480, Note_on_c, 15, 71, 100
6, 66600, Note_on_c, 15, 71, 0
6, 66600, Note_on_c, 15, 71, 100
6, 66840, Note_on_c, 15, 71, 0
6, 66840, Note_on_c, 15, 74, 100
6, 67080, Note_on_c, 15, 74, 0
6, 67080, Note_on_c, 15, 76, 100
6, 67200, Note_on_c, 15, 76, 0
6, 67200, Note_on_c, 15, 74, 100
6, 67320, Note_on_c, 15, 74, 0
6, 67320, Note_on_c, 15, 76, 100
6, 67440, Note_on_c, 15, 76, 0
6, 67440, Note_on_c, 15, 74, 100
6, 67800, Note_on_c, 15, 74, 0
6, 67800, Note_on_c, 15, 74, 100
6, 68040, Note_on_c, 15, 74, 0
6, 68040, Note_on_c, 15, 76, 100
6, 68160, Note_on_c, 15, 76, 0
6, 68160, Note_on_c, 15, 76, 100
6, 68280, Note_on_c, 15, 76, 0
6, 68280, Note_on_c, 15, 81, 100
6, 68520, Note_on_c, 15, 81, 0
6, 68520, Note_on_c, 15, 76, 100
6, 68760, Note_on_c, 15, 76, 0
6, 68760, Note_on_c, 15, 79, 100
6, 70800, Note_on_c, 15, 79, 0
6, 71640, Note_on_c, 15, 69, 100
6, 71760, Note_on_c, 15, 69, 0
6, 71760, Note_on_c, 15, 70, 100
6, 71880, Note_on_c, 15, 70, 0
6, 71880, Note_on_c, 15, 70, 100
6, 72120, Note_on_c, 15, 70, 0
6, 72120, Note_on_c, 15, 69, 100
6, 72360, Note_on_c, 15, 69, 0
6, 72360, Note_on_c, 15, 67, 100
6, 72480, Note_on_c, 15, 67, 0
6, 72480, Note_on_c, 15, 64, 100
6, 72600, Note_on_c, 15, 64, 0
6, 72600, Note_on_c, 15, 67, 100
6, 72720, Note_on_c, 15, 67, 0
6, 72720, Note_on_c, 15, 64, 100
6, 72840, Note_on_c, 15, 64, 0
6, 72840, Note_on_c, 15, 67, 100
6, 73440, Note_on_c, 15, 67, 0
6, 73560, Note_on_c, 15, 70, 100
6, 73679, Note_on_c, 15, 70, 0
6, 73680, Note_on_c, 15, 70, 100
6, 73799, Note_on_c, 15, 70, 0
6, 73800, Note_on_c, 15, 70, 100
6, 73920, Note_on_c, 15, 70, 0
6, 73920, Note_on_c, 15, 70, 100
6, 74040, Note_on_c, 15, 70, 0
6, 74040, Note_on_c, 15, 69, 100
6, 74279, Note_on_c, 15, 69, 0
6, 74280, Note_on_c, 15, 67, 100
6, 74519, Note_on_c, 15, 67, 0
6, 74520, Note_on_c, 15, 69, 100
6, 74879, Note_on_c, 15, 69, 0
6, 74880, Note_on_c, 15, 67, 100
6, 74939, Note_on_c, 15, 67, 0
6, 74940, Note_on_c, 15, 69, 100
6, 74999, Note_on_c, 15, 69, 0
6, 75000, Note_on_c, 15, 67, 100
6, 75359, Note_on_c, 15, 67, 0
6, 75480, Note_on_c, 15, 64, 100
6, 75600, Note_on_c, 15, 64, 0
6, 75600, Note_on_c, 15, 70, 100
6, 75720, Note_on_c, 15, 70, 0
6, 75720, Note_on_c, 15, 70, 100
6, 75840, Note_on_c, 15, 70, 0
6, 75840, Note_on_c, 15, 70, 100
6, 75960, Note_on_c, 15, 70, 0
6, 75960, Note_on_c, 15, 69, 100
6, 76200, Note_on_c, 15, 69, 0
6, 76200, Note_on_c, 15, 67, 100
6, 76320, Note_on_c, 15, 67, 0
6, 76320, Note_on_c, 15, 64, 100
6, 76440, Note_on_c, 15, 64, 0
6, 76440, Note_on_c, 15, 69, 100
6, 76680, Note_on_c, 15, 69, 0
6, 76680, Note_on_c, 15, 64, 100
6, 76920, Note_on_c, 15, 64, 0
6, 76920, Note_on_c, 15, 67, 100
6, 77160, Note_on_c, 15, 67, 0
6, 77160, Note_on_c, 15, 64, 100
6, 77400, Note_on_c, 15, 64, 0
6, 77400, Note_on_c, 15, 70, 100
6, 77639, Note_on_c, 15, 70, 0
6, 77640, Note_on_c, 15, 70, 100
6, 77760, Note_on_c, 15, 70, 0
6, 77760, Note_on_c, 15, 70, 100
6, 77879, Note_on_c, 15, 70, 0
6, 77880, Note_on_c, 15, 70, 100
6, 77999, Note_on_c, 15, 70, 0
6, 78000, Note_on_c, 15, 69, 100
6, 78120, Note_on_c, 15, 69, 0
6, 78120, Note_on_c, 15, 67, 100
6, 78240, Note_on_c, 15, 67, 0
6, 78240, Note_on_c, 15, 64, 100
6, 78360, Note_on_c, 15, 64, 0
6, 78360, Note_on_c, 15, 67, 100
6, 78480, Note_on_c, 15, 67, 0
6, 78480, Note_on_c, 15, 64, 100
6, 79200, Note_on_c, 15, 64, 0
6, 79320, Note_on_c, 15, 76, 100
6, 79440, Note_on_c, 15, 76, 0
6, 79440, Note_on_c, 15, 83, 100
6, 79560, Note_on_c, 15, 83, 0
6, 79560, Note_on_c, 15, 83, 100
6, 79680, Note_on_c, 15, 83, 0
6, 79680, Note_on_c, 15, 83, 100
6, 79800, Note_on_c, 15, 83, 0
6, 79800, Note_on_c, 15, 81, 100
6, 80040, Note_on_c, 15, 81, 0
6, 80040, Note_on_c, 15, 79, 100
6, 80160, Note_on_c, 15, 79, 0
6, 80160, Note_on_c, 15, 76, 100
6, 80280, Note_on_c, 15, 76, 0
6, 80280, Note_on_c, 15, 81, 100
6, 80520, Note_on_c, 15, 81, 0
6, 80520, Note_on_c, 15, 79, 100
6, 80640, Note_on_c, 15, 79, 0
6, 80640, Note_on_c, 15, 76, 100
6, 80880, Note_on_c, 15, 76, 0
6, 81120, Note_on_c, 15, 76, 100
6, 81240, Note_on_c, 15, 76, 0
6, 81240, Note_on_c, 15, 76, 100
6, 81360, Note_on_c, 15, 76, 0
6, 81360, Note_on_c, 15, 83, 100
6, 81480, Note_on_c, 15, 83, 0
6, 81480, Note_on_c, 15, 83, 100
6, 81600, Note_on_c, 15, 83, 0
6, 81600, Note_on_c, 15, 83, 100
6, 81840, Note_on_c, 15, 83, 0
6, 81840, Note_on_c, 15, 81, 100
6, 81960, Note_on_c, 15, 81, 0
6, 81960, Note_on_c, 15, 79, 100
6, 82080, Note_on_c, 15, 79, 0
6, 82080, Note_on_c, 15, 83, 100
6, 82200, Note_on_c, 15, 83, 0
6, 82200, Note_on_c, 15, 83, 100
6, 83040, Note_on_c, 15, 83, 0
6, 83160, Note_on_c, 15, 76, 100
6, 83280, Note_on_c, 15, 76, 0
6, 83280, Note_on_c, 15, 83, 100
6, 83399, Note_on_c, 15, 83, 0
6, 83400, Note_on_c, 15, 83, 100
6, 83639, Note_on_c, 15, 83, 0
6, 83640, Note_on_c, 15, 81, 100
6, 83759, Note_on_c, 15, 81, 0
6, 83760, Note_on_c, 15, 81, 100
6, 83999, Note_on_c, 15, 81, 0
6, 84000, Note_on_c, 15, 79, 100
6, 84120, Note_on_c, 15, 79, 0
6, 84120, Note_on_c, 15, 81, 100
6, 84360, Note_on_c, 15, 81, 0
6, 84360, Note_on_c, 15, 79, 100
6, 84480, Note_on_c, 15, 79, 0
6, 84480, Note_on_c, 15, 76, 100
6, 84720, Note_on_c, 15, 76, 0
6, 84960, Note_on_c, 15, 76, 100
6, 85199, Note_on_c, 15, 76, 0
6, 85200, Note_on_c, 15, 83, 100
6, 85320, Note_on_c, 15, 83, 0
6, 85320, Note_on_c, 15, 76, 100
6, 85440, Note_on_c, 15, 76, 0
6, 85440, Note_on_c, 15, 76, 100
6, 85560, Note_on_c, 15, 76, 0
6, 85560, Note_on_c, 15, 76, 100
6, 85680, Note_on_c, 15, 76, 0
6, 85680, Note_on_c, 15, 79, 100
6, 85920, Note_on_c, 15, 79, 0
6, 85920, Note_on_c, 15, 76, 100
6, 86040, Note_on_c, 15, 76, 0
6, 86040, Note_on_c, 15, 79, 100
6, 86280, Note_on_c, 15, 79, 0
6, 86280, Note_on_c, 15, 79, 100
6, 86520, Note_on_c, 15, 79, 0
6, 86520, Note_on_c, 15, 76, 100
6, 86700, Note_on_c, 15, 76, 0
6, 86700, Note_on_c, 15, 74, 100
6, 86760, Note_on_c, 15, 74, 0
6, 86760, Note_on_c, 15, 76, 100
6, 87360, Note_on_c, 15, 76, 0
6, 87360, Note_on_c, 15, 74, 100
6, 87420, Note_on_c, 15, 74, 0
6, 87420, Note_on_c, 15, 71, 100
6, 87600, Note_on_c, 15, 71, 0
6, 91320, Note_on_c, 15, 79, 100
6, 91680, Note_on_c, 15, 79, 0
6, 91680, Note_on_c, 15, 76, 100
6, 91800, Note_on_c, 15, 76, 0
6, 91800, Note_on_c, 15, 74, 100
6, 91920, Note_on_c, 15, 74, 0
6, 91920, Note_on_c, 15, 76, 100
6, 92280, Note_on_c, 15, 76, 0
6, 92280, Note_on_c, 15, 76, 100
6, 92520, Note_on_c, 15, 76, 0
6, 92520, Note_on_c, 15, 74, 100
6, 92640, Note_on_c, 15, 74, 0
6, 92640, Note_on_c, 15, 76, 100
6, 92880, Note_on_c, 15, 76, 0
6, 100560, Note_on_c, 15, 76, 110
6, 100680, Note_on_c, 15, 76, 0
6, 100680, Note_on_c, 15, 76, 110
6, 100800, Note_on_c, 15, 76, 0
6, 100800, Note_on_c, 15, 76, 110
6, 101040, Note_on_c, 15, 76, 0
6, 101040, Note_on_c, 15, 76, 110
6, 101160, Note_on_c, 15, 76, 0
6, 101160, Note_on_c, 15, 79, 110
6, 101280, Note_on_c, 15, 79, 0
6, 101280, Note_on_c, 15, 76, 110
6, 101520, Note_on_c, 15, 76, 0
6, 101880, Note_on_c, 15, 76, 110
6, 102000, Note_on_c, 15, 76, 0
6, 102000, Note_on_c, 15, 76, 110
6, 102120, Note_on_c, 15, 76, 0
6, 102120, Note_on_c, 15, 76, 110
6, 102360, Note_on_c, 15, 76, 0
6, 102360, Note_on_c, 15, 74, 110
6, 102480, Note_on_c, 15, 74, 0
6, 102480, Note_on_c, 15, 74, 110
6, 102600, Note_on_c, 15, 74, 0
6, 102600, Note_on_c, 15, 76, 110
6, 102840, Note_on_c, 15, 76, 0
6, 102840, Note_on_c, 15, 71, 110
6, 103080, Note_on_c, 15, 71, 0
6, 103080, Note_on_c, 15, 71, 110
6, 103680, Note_on_c, 15, 71, 0
6, 104280, Note_on_c, 15, 76, 110
6, 104400, Note_on_c, 15, 76, 0
6, 104400, Note_on_c, 15, 76, 110
6, 104520, Note_on_c, 15, 76, 0
6, 104520, Note_on_c, 15, 76, 110
6, 104640, Note_on_c, 15, 76, 0
6, 104640, Note_on_c, 15, 76, 110
6, 104880, Note_on_c, 15, 76, 0
6, 104880, Note_on_c, 15, 76, 110
6, 105000, Note_on_c, 15, 76, 0
6, 105000, Note_on_c, 15, 76, 110
6, 105120, Note_on_c, 15, 76, 0
6, 105120, Note_on_c, 15, 76, 110
6, 105240, Note_on_c, 15, 76, 0
6, 105240, Note_on_c, 15, 79, 110
6, 105840, Note_on_c, 15, 79, 0
6, 106200, Note_on_c, 15, 76, 110
6, 106320, Note_on_c, 15, 76, 0
6, 106320, Note_on_c, 15, 76, 110
6, 106440, Note_on_c, 15, 76, 0
6, 106440, Note_on_c, 15, 76, 110
6, 106560, Note_on_c, 15, 76, 0
6, 106560, Note_on_c, 15, 79, 110
6, 106680, Note_on_c, 15, 79, 0
6, 106680, Note_on_c, 15, 76, 110
6, 106800, Note_on_c, 15, 76, 0
6, 106800, Note_on_c, 15, 76, 110
6, 106920, Note_on_c, 15, 76, 0
6, 106920, Note_on_c, 15, 74, 110
6, 107040, Note_on_c, 15, 74, 0
6, 107040, Note_on_c, 15, 76, 110
6, 107760, Note_on_c, 15, 76, 0
6, 108120, Note_on_c, 15, 76, 110
6, 108240, Note_on_c, 15, 76, 0
6, 108240, Note_on_c, 15, 76, 110
6, 108360, Note_on_c, 15, 76, 0
6, 108360, Note_on_c, 15, 76, 110
6, 108480, Note_on_c, 15, 76, 0
6, 108480, Note_on_c, 15, 76, 110
6, 108720, Note_on_c, 15, 76, 0
6, 108720, Note_on_c, 15, 76, 110
6, 108840, Note_on_c, 15, 76, 0
6, 108840, Note_on_c, 15, 79, 110
6, 108960, Note_on_c, 15, 79, 0
6, 108960, Note_on_c, 15, 76, 110
6, 109200, Note_on_c, 15, 76, 0
6, 110040, Note_on_c, 15, 76, 110
6, 110160, Note_on_c, 15, 76, 0
6, 110160, Note_on_c, 15, 76, 110
6, 110280, Note_on_c, 15, 76, 0
6, 110280, Note_on_c, 15, 76, 110
6, 110400, Note_on_c, 15, 76, 0
6, 110400, Note_on_c, 15, 71, 110
6, 110520, Note_on_c, 15, 71, 0
6, 110520, Note_on_c, 15, 71, 110
6, 110640, Note_on_c, 15, 71, 0
6, 110640, Note_on_c, 15, 71, 110
6, 110760, Note_on_c, 15, 71, 0
6, 110760, Note_on_c, 15, 71, 110
6, 111840, Note_on_c, 15, 71, 0
6, 111960, Note_on_c, 15, 76, 110
6, 112200, Note_on_c, 15, 76, 0
6, 112200, Note_on_c, 15, 76, 110
6, 112440, Note_on_c, 15, 76, 0
6, 112440, Note_on_c, 15, 76, 110
6, 112560, Note_on_c, 15, 76, 0
6, 112560, Note_on_c, 15, 76, 110
6, 112680, Note_on_c, 15, 76, 0
6, 112680, Note_on_c, 15, 79, 110
6, 112800, Note_on_c, 15, 79, 0
6, 112800, Note_on_c, 15, 76, 110
6, 112920, Note_on_c, 15, 76, 0
6, 112920, Note_on_c, 15, 80, 110
6, 113280, Note_on_c, 15, 80, 0
6, 113640, Note_on_c, 15, 76, 110
6, 113760, Note_on_c, 15, 76, 0
6, 113760, Note_on_c, 15, 76, 110
6, 113880, Note_on_c, 15, 76, 0
6, 113880, Note_on_c, 15, 76, 110
6, 114120, Note_on_c, 15, 76, 0
6, 114120, Note_on_c, 15, 79, 110
6, 114360, Note_on_c, 15, 79, 0
6, 114360, Note_on_c, 15, 76, 110
6, 114480, Note_on_c, 15, 76, 0
6, 114480, Note_on_c, 15, 74, 110
6, 114600, Note_on_c, 15, 74, 0
6, 114600, Note_on_c, 15, 76, 110
6, 116160, Note_on_c, 15, 76, 0
6, 117720, Note_on_c, 15, 76, 110
6, 117840, Note_on_c, 15, 76, 0
6, 117840, Note_on_c, 15, 76, 110
6, 117960, Note_on_c, 15, 76, 0
6, 117960, Note_on_c, 15, 76, 110
6, 118200, Note_on_c, 15, 76, 0
6, 118200, Note_on_c, 15, 76, 110
6, 118440, Note_on_c, 15, 76, 0
6, 118440, Note_on_c, 15, 76, 110
6, 118560, Note_on_c, 15, 76, 0
6, 118560, Note_on_c, 15, 74, 110
6, 118680, Note_on_c, 15, 74, 0
6, 118680, Note_on_c, 15, 76, 110
6, 118800, Note_on_c, 15, 76, 0
6, 118800, Note_on_c, 15, 74, 110
6, 119160, Note_on_c, 15, 74, 0
6, 119160, Note_on_c, 15, 74, 110
6, 119400, Note_on_c, 15, 74, 0
6, 119400, Note_on_c, 15, 76, 110
6, 119520, Note_on_c, 15, 76, 0
6, 119520, Note_on_c, 15, 76, 110
6, 119640, Note_on_c, 15, 76, 0
6, 119640, Note_on_c, 15, 76, 110
6, 119760, Note_on_c, 15, 76, 0
6, 119760, Note_on_c, 15, 76, 110
6, 119880, Note_on_c, 15, 76, 0
6, 119880, Note_on_c, 15, 76, 110
6, 120000, Note_on_c, 15, 76, 0
6, 120000, Note_on_c, 15, 80, 110
6, 120960, Note_on_c, 15, 80, 0
6, 121320, Note_on_c, 15, 71, 110
6, 121440, Note_on_c, 15, 71, 0
6, 121440, Note_on_c, 15, 71, 110
6, 121560, Note_on_c, 15, 71, 0
6, 121560, Note_on_c, 15, 71, 110
6, 121800, Note_on_c, 15, 71, 0
6, 121800, Note_on_c, 15, 74, 110
6, 122040, Note_on_c, 15, 74, 0
6, 122040, Note_on_c, 15, 76, 110
6, 122280, Note_on_c, 15, 76, 0
6, 122280, Note_on_c, 15, 76, 110
6, 122400, Note_on_c, 15, 76, 0
6, 122400, Note_on_c, 15, 74, 110
6, 122760, Note_on_c, 15, 74, 0
6, 122760, Note_on_c, 15, 74, 110
6, 123000, Note_on_c, 15, 74, 0
6, 123000, Note_on_c, 15, 76, 110
6, 123120, Note_on_c, 15, 76, 0
6, 123120, Note_on_c, 15, 76, 110
6, 123240, Note_on_c, 15, 76, 0
6, 123240, Note_on_c, 15, 81, 110
6, 123480, Note_on_c, 15, 81, 0
6, 123480, Note_on_c, 15, 76, 110
6, 123720, Note_on_c, 15, 76, 0
6, 123720, Note_on_c, 15, 79, 110
6, 125760, Note_on_c, 15, 79, 0
6, 136440, Note_on_c, 15, 79, 110
6, 136800, Note_on_c, 15, 79, 0
6, 136800, Note_on_c, 15, 76, 110
6, 136920, Note_on_c, 15, 76, 0
6, 136920, Note_on_c, 15, 74, 110
6, 137040, Note_on_c, 15, 74, 0
6, 137040, Note_on_c, 15, 76, 110
6, 137160, Note_on_c, 15, 76, 0
6, 137400, Note_on_c, 15, 76, 110
6, 137640, Note_on_c, 15, 76, 0
6, 137640, Note_on_c, 15, 74, 110
6, 137760, Note_on_c, 15, 74, 0
6, 137760, Note_on_c, 15, 76, 110
6, 138000, Note_on_c, 15, 76, 0
6, 138360, Note_on_c, 15, 79, 110
6, 138720, Note_on_c, 15, 79, 0
6, 138720, Note_on_c, 15, 76, 110
6, 138840, Note_on_c, 15, 76, 0
6, 138840, Note_on_c, 15, 74, 110
6, 138960, Note_on_c, 15, 74, 0
6, 138960, Note_on_c, 15, 76, 110
6, 139080, Note_on_c, 15, 76, 0
6, 139320, Note_on_c, 15, 76, 110
6, 139560, Note_on_c, 15, 76, 0
6, 139560, Note_on_c, 15, 74, 110
6, 139680, Note_on_c, 15, 74, 0
6, 139680, Note_on_c, 15, 81, 110
6, 139800, Note_on_c, 15, 81, 0
6, 139800, Note_on_c, 15, 79, 110
6, 140160, Note_on_c, 15, 79, 0
6, 140280, Note_on_c, 15, 79, 110
6, 140640, Note_on_c, 15, 79, 0
6, 140640, Note_on_c, 15, 76, 110
6, 140760, Note_on_c, 15, 76, 0
6, 140760, Note_on_c, 15, 74, 110
6, 140880, Note_on_c, 15, 74, 0
6, 140880, Note_on_c, 15, 76, 110
6, 141000, Note_on_c, 15, 76, 0
6, 141240, Note_on_c, 15, 76, 110
6, 141480, Note_on_c, 15, 76, 0
6, 141480, Note_on_c, 15, 74, 110
6, 141600, Note_on_c, 15, 74, 0
6, 141600, Note_on_c, 15, 76, 110
6, 141840, Note_on_c, 15, 76, 0
6, 142200, Note_on_c, 15, 79, 110
6, 142560, Note_on_c, 15, 79, 0
6, 142560, Note_on_c, 15, 76, 110
6, 142680, Note_on_c, 15, 76, 0
6, 142680, Note_on_c, 15, 74, 110
6, 142800, Note_on_c, 15, 74, 0
6, 142800, Note_on_c, 15, 76, 110
6, 142920, Note_on_c, 15, 76, 0
6, 143160, Note_on_c, 15, 76, 110
6, 143520, Note_on_c, 15, 76, 0
6, 143520, Note_on_c, 15, 81, 110
6, 143640, Note_on_c, 15, 81, 0
6, 143640, Note_on_c, 15, 79, 110
6, 144720, Note_on_c, 15, 79, 0
6, 147720, Note_on_c, 15, 76, 115
6, 147960, Note_on_c, 15, 76, 0
6, 147960, Note_on_c, 15, 76, 115
6, 148200, Note_on_c, 15, 76, 0
6, 148200, Note_on_c, 15, 76, 115
6, 148320, Note_on_c, 15, 76, 0
6, 148320, Note_on_c, 15, 76, 115
6, 148440, Note_on_c, 15, 76, 0
6, 148440, Note_on_c, 15, 76, 115
6, 148560, Note_on_c, 15, 76, 0
6, 148560, Note_on_c, 15, 76, 115
6, 148620, Note_on_c, 15, 76, 0
6, 148620, Note_on_c, 15, 76, 115
6, 148800, Note_on_c, 15, 76, 0
6, 148800, Note_on_c, 15, 79, 115
6, 149280, Note_on_c, 15, 79, 0
6, 149280, Note_on_c, 15, 76, 115
6, 150000, Note_on_c, 15, 76, 0
6, 150600, Note_on_c, 15, 76, 115
6, 150840, Note_on_c, 15, 76, 0
6, 150840, Note_on_c, 15, 76, 115
6, 151080, Note_on_c, 15, 76, 0
6, 151080, Note_on_c, 15, 76, 115
6, 151200, Note_on_c, 15, 76, 0
6, 151200, Note_on_c, 15, 76, 115
6, 151320, Note_on_c, 15, 76, 0
6, 151320, Note_on_c, 15, 81, 115
6, 151560, Note_on_c, 15, 81, 0
6, 151560, Note_on_c, 15, 79, 115
6, 151680, Note_on_c, 15, 79, 0
6, 151680, Note_on_c, 15, 76, 115
6, 151800, Note_on_c, 15, 76, 0
6, 151800, Note_on_c, 15, 81, 115
6, 152040, Note_on_c, 15, 81, 0
6, 152040, Note_on_c, 15, 79, 115
6, 153360, Note_on_c, 15, 79, 0
6, 153720, Note_on_c, 15, 76, 115
6, 153960, Note_on_c, 15, 76, 0
6, 153960, Note_on_c, 15, 76, 115
6, 154080, Note_on_c, 15, 76, 0
6, 154080, Note_on_c, 15, 76, 115
6, 154200, Note_on_c, 15, 76, 0
6, 154200, Note_on_c, 15, 76, 115
6, 154320, Note_on_c, 15, 76, 0
6, 154320, Note_on_c, 15, 76, 115
6, 154440, Note_on_c, 15, 76, 0
6, 154440, Note_on_c, 15, 79, 115
6, 155160, Note_on_c, 15, 79, 0
6, 155160, Note_on_c, 15, 76, 115
6, 155520, Note_on_c, 15, 76, 0
6, 155640, Note_on_c, 15, 76, 115
6, 155880, Note_on_c, 15, 76, 0
6, 155880, Note_on_c, 15, 76, 115
6, 156000, Note_on_c, 15, 76, 0
6, 156000, Note_on_c, 15, 76, 115
6, 156120, Note_on_c, 15, 76, 0
6, 156120, Note_on_c, 15, 81, 115
6, 156360, Note_on_c, 15, 81, 0
6, 156360, Note_on_c, 15, 79, 115
6, 156480, Note_on_c, 15, 79, 0
6, 156480, Note_on_c, 15, 76, 115
6, 156600, Note_on_c, 15, 76, 0
6, 156600, Note_on_c, 15, 81, 115
6, 157080, Note_on_c, 15, 81, 0
6, 157080, Note_on_c, 15, 79, 115
6, 158160, Note_on_c, 15, 79, 0
6, 158160, End_track
7, 0, Start_track
7, 0, MIDI_port, 0
7, 0, Title_t, "Back Vocals"
7, 0, Program_c, 7, 81
7, 0, Control_c, 7, 7, 127
7, 0, Control_c, 7, 10, 50
7, 48720, Note_on_c, 7, 70, 107
7, 49080, Note_on_c, 7, 70, 0
7, 49080, Note_on_c, 7, 69, 107
7, 49320, Note_on_c, 7, 69, 0
7, 49320, Note_on_c, 7, 67, 107
7, 49440, Note_on_c, 7, 67, 0
7, 49440, Note_on_c, 7, 64, 107
7, 49920, Note_on_c, 7, 64, 0
7, 50640, Note_on_c, 7, 70, 107
7, 51000, Note_on_c, 7, 70, 0
7, 51000, Note_on_c, 7, 69, 107
7, 51240, Note_on_c, 7, 69, 0
7, 51240, Note_on_c, 7, 67, 107
7, 51360, Note_on_c, 7, 67, 0
7, 51360, Note_on_c, 7, 64, 107
7, 51840, Note_on_c, 7, 64, 0
7, 52560, Note_on_c, 7, 70, 107
7, 52920, Note_on_c, 7, 70, 0
7, 52920, Note_on_c, 7, 69, 107
7, 53160, Note_on_c, 7, 69, 0
7, 53160, Note_on_c, 7, 67, 107
7, 53280, Note_on_c, 7, 67, 0
7, 53280, Note_on_c, 7, 64, 107
7, 53760, Note_on_c, 7, 64, 0
7, 54480, Note_on_c, 7, 70, 107
7, 54840, Note_on_c, 7, 70, 0
7, 54840, Note_on_c, 7, 69, 107
7, 55080, Note_on_c, 7, 69, 0
7, 55080, Note_on_c, 7, 67, 107
7, 55200, Note_on_c, 7, 67, 0
7, 55200, Note_on_c, 7, 64, 107
7, 55680, Note_on_c, 7, 64, 0
7, 56400, Note_on_c, 7, 70, 107
7, 56760, Note_on_c, 7, 70, 0
7, 56760, Note_on_c, 7, 69, 107
7, 57000, Note_on_c, 7, 69, 0
7, 57000, Note_on_c, 7, 67, 107
7, 57120, Note_on_c, 7, 67, 0
7, 57120, Note_on_c, 7, 64, 107
7, 57600, Note_on_c, 7, 64, 0
7, 58320, Note_on_c, 7, 70, 107
7, 58680, Note_on_c, 7, 70, 0
7, 58680, Note_on_c, 7, 69, 107
7, 58920, Note_on_c, 7, 69, 0
7, 58920, Note_on_c, 7, 67, 107
7, 59040, Note_on_c, 7, 67, 0
7, 59040, Note_on_c, 7, 64, 107
7, 59520, Note_on_c, 7, 64, 0
7, 60240, Note_on_c, 7, 70, 107
7, 60600, Note_on_c, 7, 70, 0
7, 60600, Note_on_c, 7, 69, 107
7, 60840, Note_on_c, 7, 69, 0
7, 60840, Note_on_c, 7, 67, 107
7, 60960, Note_on_c, 7, 67, 0
7, 60960, Note_on_c, 7, 64, 107
7, 61440, Note_on_c, 7, 64, 0
7, 62160, Note_on_c, 7, 70, 107
7, 62520, Note_on_c, 7, 70, 0
7, 62520, Note_on_c, 7, 69, 107
7, 62760, Note_on_c, 7, 69, 0
7, 62760, Note_on_c, 7, 67, 107
7, 62880, Note_on_c, 7, 67, 0
7, 62880, Note_on_c, 7, 64, 107
7, 63360, Note_on_c, 7, 64, 0
7, 64440, Note_on_c, 7, 74, 107
7, 64800, Note_on_c, 7, 74, 0
7, 64800, Note_on_c, 7, 76, 107
7, 64920, Note_on_c, 7, 76, 0
7, 64920, Note_on_c, 7, 76, 107
7, 65040, Note_on_c, 7, 76, 0
7, 65040, Note_on_c, 7, 80, 107
7, 65160, Note_on_c, 7, 80, 0
7, 65160, Note_on_c, 7, 76, 107
7, 65280, Note_on_c, 7, 76, 0
7, 65280, Note_on_c, 7, 80, 107
7, 66000, Note_on_c, 7, 80, 0
7, 87600, Note_on_c, 7, 70, 107
7, 87960, Note_on_c, 7, 70, 0
7, 87960, Note_on_c, 7, 69, 107
7, 88200, Note_on_c, 7, 69, 0
7, 88200, Note_on_c, 7, 67, 107
7, 88320, Note_on_c, 7, 67, 0
7, 88320, Note_on_c, 7, 64, 107
7, 88800, Note_on_c, 7, 64, 0
7, 89520, Note_on_c, 7, 70, 107
7, 89880, Note_on_c, 7, 70, 0
7, 89880, Note_on_c, 7, 69, 107
7, 90120, Note_on_c, 7, 69, 0
7, 90120, Note_on_c, 7, 67, 107
7, 90240, Note_on_c, 7, 67, 0
7, 90240, Note_on_c, 7, 64, 107
7, 90720, Note_on_c, 7, 64, 0
7, 91440, Note_on_c, 7, 70, 107
7, 91800, Note_on_c, 7, 70, 0
7, 91800, Note_on_c, 7, 69, 107
7, 92040, Note_on_c, 7, 69, 0
7, 92040, Note_on_c, 7, 67, 107
7, 92160, Note_on_c, 7, 67, 0
7, 92160, Note_on_c, 7, 64, 107
7, 92640, Note_on_c, 7, 64, 0
7, 93360, Note_on_c, 7, 70, 107
7, 93720, Note_on_c, 7, 70, 0
7, 93720, Note_on_c, 7, 69, 107
7, 93960, Note_on_c, 7, 69, 0
7, 93960, Note_on_c, 7, 67, 107
7, 94080, Note_on_c, 7, 67, 0
7, 94080, Note_on_c, 7, 64, 107
7, 94560, Note_on_c, 7, 64, 0
7, 95280, Note_on_c, 7, 70, 107
7, 95640, Note_on_c, 7, 70, 0
7, 95640, Note_on_c, 7, 69, 107
7, 95880, Note_on_c, 7, 69, 0
7, 95880, Note_on_c, 7, 67, 107
7, 96000, Note_on_c, 7, 67, 0
7, 96000, Note_on_c, 7, 64, 107
7, 97920, Note_on_c, 7, 64, 0
7, 107520, Note_on_c, 7, 70, 117
7, 107880, Note_on_c, 7, 70, 0
7, 107880, Note_on_c, 7, 69, 117
7, 108120, Note_on_c, 7, 69, 0
7, 108120, Note_on_c, 7, 67, 117
7, 108240, Note_on_c, 7, 67, 0
7, 108240, Note_on_c, 7, 64, 117
7, 108720, Note_on_c, 7, 64, 0
7, 109440, Note_on_c, 7, 70, 117
7, 109800, Note_on_c, 7, 70, 0
7, 109800, Note_on_c, 7, 69, 117
7, 110040, Note_on_c, 7, 69, 0
7, 110040, Note_on_c, 7, 67, 117
7, 110160, Note_on_c, 7, 67, 0
7, 110160, Note_on_c, 7, 64, 117
7, 110640, Note_on_c, 7, 64, 0
7, 111360, Note_on_c, 7, 70, 117
7, 111720, Note_on_c, 7, 70, 0
7, 111720, Note_on_c, 7, 69, 117
7, 111960, Note_on_c, 7, 69, 0
7, 111960, Note_on_c, 7, 67, 117
7, 112080, Note_on_c, 7, 67, 0
7, 112080, Note_on_c, 7, 64, 117
7, 112560, Note_on_c, 7, 64, 0
7, 113280, Note_on_c, 7, 70, 117
7, 113640, Note_on_c, 7, 70, 0
7, 113640, Note_on_c, 7, 69, 117
7, 113880, Note_on_c, 7, 69, 0
7, 113880, Note_on_c, 7, 67, 117
7, 114000, Note_on_c, 7, 67, 0
7, 114000, Note_on_c, 7, 64, 117
7, 114480, Note_on_c, 7, 64, 0
7, 147120, Note_on_c, 7, 70, 107
7, 147480, Note_on_c, 7, 70, 0
7, 147480, Note_on_c, 7, 69, 107
7, 147720, Note_on_c, 7, 69, 0
7, 147720, Note_on_c, 7, 67, 107
7, 147840, Note_on_c, 7, 67, 0
7, 147840, Note_on_c, 7, 64, 107
7, 148320, Note_on_c, 7, 64, 0
7, 149040, Note_on_c, 7, 70, 107
7, 149400, Note_on_c, 7, 70, 0
7, 149400, Note_on_c, 7, 69, 107
7, 149640, Note_on_c, 7, 69, 0
7, 149640, Note_on_c, 7, 67, 107
7, 149760, Note_on_c, 7, 67, 0
7, 149760, Note_on_c, 7, 64, 107
7, 150240, Note_on_c, 7, 64, 0
7, 150960, Note_on_c, 7, 70, 107
7, 151320, Note_on_c, 7, 70, 0
7, 151320, Note_on_c, 7, 69, 107
7, 151560, Note_on_c, 7, 69, 0
7, 151560, Note_on_c, 7, 67, 107
7, 151680, Note_on_c, 7, 67, 0
7, 151680, Note_on_c, 7, 64, 107
7, 152160, Note_on_c, 7, 64, 0
7, 152880, Note_on_c, 7, 70, 107
7, 153240, Note_on_c, 7, 70, 0
7, 153240, Note_on_c, 7, 69, 107
7, 153480, Note_on_c, 7, 69, 0
7, 153480, Note_on_c, 7, 67, 107
7, 153600, Note_on_c, 7, 67, 0
7, 153600, Note_on_c, 7, 64, 107
7, 154080, Note_on_c, 7, 64, 0
7, 154800, Note_on_c, 7, 70, 107
7, 155160, Note_on_c, 7, 70, 0
7, 155160, Note_on_c, 7, 69, 107
7, 155400, Note_on_c, 7, 69, 0
7, 155400, Note_on_c, 7, 67, 107
7, 155520, Note_on_c, 7, 67, 0
7, 155520, Note_on_c, 7, 64, 107
7, 156000, Note_on_c, 7, 64, 0
7, 156720, Note_on_c, 7, 70, 107
7, 157080, Note_on_c, 7, 70, 0
7, 157080, Note_on_c, 7, 69, 107
7, 157320, Note_on_c, 7, 69, 0
7, 157320, Note_on_c, 7, 67, 107
7, 157440, Note_on_c, 7, 67, 0
7, 157440, Note_on_c, 7, 64, 107
7, 157920, Note_on_c, 7, 64, 0
7, 157920, End_track
8, 0, Start_track
8, 0, MIDI_port, 0
8, 0, Title_t, "Secondary Clean Guitar"
8, 0, Program_c, 14, 27
8, 0, Control_c, 14, 7, 86
8, 0, Control_c, 14, 10, 50
8, 48240, Note_on_c, 14, 52, 100
8, 48250, Note_on_c, 14, 64, 100
8, 48260, Note_on_c, 14, 68, 100
8, 48270, Note_on_c, 14, 76, 100
8, 48300, Note_on_c, 14, 76, 0
8, 48300, Note_on_c, 14, 52, 0
8, 48300, Note_on_c, 14, 64, 0
8, 48300, Note_on_c, 14, 68, 0
8, 48300, Note_on_c, 14, 52, 100
8, 48310, Note_on_c, 14, 64, 100
8, 48320, Note_on_c, 14, 68, 100
8, 48330, Note_on_c, 14, 76, 100
8, 48360, Note_on_c, 14, 76, 0
8, 48360, Note_on_c, 14, 52, 0
8, 48360, Note_on_c, 14, 64, 0
8, 48360, Note_on_c, 14, 68, 0
8, 48360, Note_on_c, 14, 52, 100
8, 48370, Note_on_c, 14, 64, 100
8, 48380, Note_on_c, 14, 68, 100
8, 48390, Note_on_c, 14, 76, 100
8, 48420, Note_on_c, 14, 76, 0
8, 48420, Note_on_c, 14, 52, 0
8, 48420, Note_on_c, 14, 64, 0
8, 48420, Note_on_c, 14, 68, 0
8, 48420, Note_on_c, 14, 52, 100
8, 48430, Note_on_c, 14, 64, 100
8, 48440, Note_on_c, 14, 68, 100
8, 48450, Note_on_c, 14, 76, 100
8, 48540, Note_on_c, 14, 76, 0
8, 48540, Note_on_c, 14, 52, 0
8, 48540, Note_on_c, 14, 64, 0
8, 48540, Note_on_c, 14, 68, 0
8, 48540, Note_on_c, 14, 52, 100
8, 48550, Note_on_c, 14, 64, 100
8, 48560, Note_on_c, 14, 68, 100
8, 48570, Note_on_c, 14, 76, 100
8, 48660, Note_on_c, 14, 76, 0
8, 48660, Note_on_c, 14, 52, 0
8, 48660, Note_on_c, 14, 64, 0
8, 48660, Note_on_c, 14, 68, 0
8, 48660, Note_on_c, 14, 52, 100
8, 48670, Note_on_c, 14, 64, 100
8, 48680, Note_on_c, 14, 68, 100
8, 48690, Note_on_c, 14, 76, 100
8, 48720, Note_on_c, 14, 76, 0
8, 48720, Note_on_c, 14, 52, 0
8, 48720, Note_on_c, 14, 64, 0
8, 48720, Note_on_c, 14, 68, 0
8, 48720, Note_on_c, 14, 52, 100
8, 48730, Note_on_c, 14, 64, 100
8, 48740, Note_on_c, 14, 68, 100
8, 48750, Note_on_c, 14, 76, 100
8, 48780, Note_on_c, 14, 76, 0
8, 48780, Note_on_c, 14, 52, 0
8, 48780, Note_on_c, 14, 64, 0
8, 48780, Note_on_c, 14, 68, 0
8, 48780, Note_on_c, 14, 52, 100
8, 48790, Note_on_c, 14, 64, 100
8, 48800, Note_on_c, 14, 68, 100
8, 48810, Note_on_c, 14, 76, 100
8, 48840, Note_on_c, 14, 76, 0
8, 48840, Note_on_c, 14, 52, 0
8, 48840, Note_on_c, 14, 64, 0
8, 48840, Note_on_c, 14, 68, 0
8, 48840, Note_on_c, 14, 52, 100
8, 48850, Note_on_c, 14, 64, 100
8, 48860, Note_on_c, 14, 68, 100
8, 48870, Note_on_c, 14, 76, 100
8, 48900, Note_on_c, 14, 76, 0
8, 48900, Note_on_c, 14, 52, 0
8, 48900, Note_on_c, 14, 64, 0
8, 48900, Note_on_c, 14, 68, 0
8, 48900, Note_on_c, 14, 52, 100
8, 48910, Note_on_c, 14, 64, 100
8, 48920, Note_on_c, 14, 68, 100
8, 48930, Note_on_c, 14, 76, 100
8, 48960, Note_on_c, 14, 76, 0
8, 48960, Note_on_c, 14, 52, 0
8, 48960, Note_on_c, 14, 64, 0
8, 48960, Note_on_c, 14, 68, 0
8, 48960, Note_on_c, 14, 52, 100
8, 48970, Note_on_c, 14, 64, 100
8, 48980, Note_on_c, 14, 68, 100
8, 48990, Note_on_c, 14, 76, 100
8, 49020, Note_on_c, 14, 76, 0
8, 49020, Note_on_c, 14, 52, 0
8, 49020, Note_on_c, 14, 64, 0
8, 49020, Note_on_c, 14, 68, 0
8, 49020, Note_on_c, 14, 52, 100
8, 49030, Note_on_c, 14, 64, 100
8, 49040, Note_on_c, 14, 68, 100
8, 49050, Note_on_c, 14, 76, 100
8, 49080, Note_on_c, 14, 76, 0
8, 49080, Note_on_c, 14, 52, 0
8, 49080, Note_on_c, 14, 64, 0
8, 49080, Note_on_c, 14, 68, 0
8, 49080, Note_on_c, 14, 52, 100
8, 49090, Note_on_c, 14, 64, 100
8, 49100, Note_on_c, 14, 68, 100
8, 49110, Note_on_c, 14, 76, 100
8, 49200, Note_on_c, 14, 76, 0
8, 49200, Note_on_c, 14, 52, 0
8, 49200, Note_on_c, 14, 64, 0
8, 49200, Note_on_c, 14, 68, 0
8, 49200, Note_on_c, 14, 57, 100
8, 49210, Note_on_c, 14, 69, 100
8, 49220, Note_on_c, 14, 73, 100
8, 49230, Note_on_c, 14, 76, 100
8, 49260, Note_on_c, 14, 76, 0
8, 49260, Note_on_c, 14, 57, 0
8, 49260, Note_on_c, 14, 69, 0
8, 49260, Note_on_c, 14, 73, 0
8, 49260, Note_on_c, 14, 57, 100
8, 49270, Note_on_c, 14, 69, 100
8, 49280, Note_on_c, 14, 73, 100
8, 49290, Note_on_c, 14, 76, 100
8, 49320, Note_on_c, 14, 76, 0
8, 49320, Note_on_c, 14, 57, 0
8, 49320, Note_on_c, 14, 69, 0
8, 49320, Note_on_c, 14, 73, 0
8, 49320, Note_on_c, 14, 57, 100
8, 49330, Note_on_c, 14, 69, 100
8, 49340, Note_on_c, 14, 73, 100
8, 49350, Note_on_c, 14, 76, 100
8, 49380, Note_on_c, 14, 76, 0
8, 49380, Note_on_c, 14, 57, 0
8, 49380, Note_on_c, 14, 69, 0
8, 49380, Note_on_c, 14, 73, 0
8, 49380, Note_on_c, 14, 57, 100
8, 49390, Note_on_c, 14, 69, 100
8, 49400, Note_on_c, 14, 73, 100
8, 49410, Note_on_c, 14, 76, 100
8, 49500, Note_on_c, 14, 76, 0
8, 49500, Note_on_c, 14, 57, 0
8, 49500, Note_on_c, 14, 69, 0
8, 49500, Note_on_c, 14, 73, 0
8, 49500, Note_on_c, 14, 57, 100
8, 49510, Note_on_c, 14, 69, 100
8, 49520, Note_on_c, 14, 73, 100
8, 49530, Note_on_c, 14, 76, 100
8, 49560, Note_on_c, 14, 76, 0
8, 49560, Note_on_c, 14, 57, 0
8, 49560, Note_on_c, 14, 69, 0
8, 49560, Note_on_c, 14, 73, 0
8, 49560, Note_on_c, 14, 57, 100
8, 49570, Note_on_c, 14, 69, 100
8, 49580, Note_on_c, 14, 73, 100
8, 49590, Note_on_c, 14, 76, 100
8, 49620, Note_on_c, 14, 76, 0
8, 49620, Note_on_c, 14, 57, 0
8, 49620, Note_on_c, 14, 69, 0
8, 49620, Note_on_c, 14, 73, 0
8, 49620, Note_on_c, 14, 57, 100
8, 49630, Note_on_c, 14, 69, 100
8, 49640, Note_on_c, 14, 73, 100
8, 49650, Note_on_c, 14, 76, 100
8, 49680, Note_on_c, 14, 76, 0
8, 49680, Note_on_c, 14, 57, 0
8, 49680, Note_on_c, 14, 69, 0
8, 49680, Note_on_c, 14, 73, 0
8, 49680, Note_on_c, 14, 57, 100
8, 49690, Note_on_c, 14, 69, 100
8, 49700, Note_on_c, 14, 73, 100
8, 49710, Note_on_c, 14, 76, 100
8, 49800, Note_on_c, 14, 76, 0
8, 49800, Note_on_c, 14, 57, 0
8, 49800, Note_on_c, 14, 69, 0
8, 49800, Note_on_c, 14, 73, 0
8, 49800, Note_on_c, 14, 57, 100
8, 49810, Note_on_c, 14, 69, 100
8, 49820, Note_on_c, 14, 73, 100
8, 49830, Note_on_c, 14, 76, 100
8, 49920, Note_on_c, 14, 76, 0
8, 49920, Note_on_c, 14, 57, 0
8, 49920, Note_on_c, 14, 69, 0
8, 49920, Note_on_c, 14, 73, 0
8, 49920, Note_on_c, 14, 55, 100
8, 49930, Note_on_c, 14, 67, 100
8, 49940, Note_on_c, 14, 71, 100
8, 49950, Note_on_c, 14, 76, 100
8, 50040, Note_on_c, 14, 76, 0
8, 50040, Note_on_c, 14, 55, 0
8, 50040, Note_on_c, 14, 67, 0
8, 50040, Note_on_c, 14, 71, 0
8, 50040, Note_on_c, 14, 55, 100
8, 50050, Note_on_c, 14, 67, 100
8, 50060, Note_on_c, 14, 71, 100
8, 50070, Note_on_c, 14, 76, 100
8, 50160, Note_on_c, 14, 76, 0
8, 50160, Note_on_c, 14, 55, 0
8, 50160, Note_on_c, 14, 67, 0
8, 50160, Note_on_c, 14, 71, 0
8, 50160, Note_on_c, 14, 52, 100
8, 50170, Note_on_c, 14, 64, 100
8, 50180, Note_on_c, 14, 68, 100
8, 50190, Note_on_c, 14, 76, 100
8, 50220, Note_on_c, 14, 76, 0
8, 50220, Note_on_c, 14, 52, 0
8, 50220, Note_on_c, 14, 64, 0
8, 50220, Note_on_c, 14, 68, 0
8, 50220, Note_on_c, 14, 52, 100
8, 50230, Note_on_c, 14, 64, 100
8, 50240, Note_on_c, 14, 68, 100
8, 50250, Note_on_c, 14, 76, 100
8, 50280, Note_on_c, 14, 76, 0
8, 50280, Note_on_c, 14, 52, 0
8, 50280, Note_on_c, 14, 64, 0
8, 50280, Note_on_c, 14, 68, 0
8, 50280, Note_on_c, 14, 52, 100
8, 50290, Note_on_c, 14, 64, 100
8, 50300, Note_on_c, 14, 68, 100
8, 50310, Note_on_c, 14, 76, 100
8, 50340, Note_on_c, 14, 76, 0
8, 50340, Note_on_c, 14, 52, 0
8, 50340, Note_on_c, 14, 64, 0
8, 50340, Note_on_c, 14, 68, 0
8, 50340, Note_on_c, 14, 52, 100
8, 50350, Note_on_c, 14, 64, 100
8, 50360, Note_on_c, 14, 68, 100
8, 50370, Note_on_c, 14, 76, 100
8, 50460, Note_on_c, 14, 76, 0
8, 50460, Note_on_c, 14, 52, 0
8, 50460, Note_on_c, 14, 64, 0
8, 50460, Note_on_c, 14, 68, 0
8, 50460, Note_on_c, 14, 52, 100
8, 50470, Note_on_c, 14, 64, 100
8, 50480, Note_on_c, 14, 68, 100
8, 50490, Note_on_c, 14, 76, 100
8, 50580, Note_on_c, 14, 76, 0
8, 50580, Note_on_c, 14, 52, 0
8, 50580, Note_on_c, 14, 64, 0
8, 50580, Note_on_c, 14, 68, 0
8, 50580, Note_on_c, 14, 52, 100
8, 50590, Note_on_c, 14, 64, 100
8, 50600, Note_on_c, 14, 68, 100
8, 50610, Note_on_c, 14, 76, 100
8, 50640, Note_on_c, 14, 76, 0
8, 50640, Note_on_c, 14, 52, 0
8, 50640, Note_on_c, 14, 64, 0
8, 50640, Note_on_c, 14, 68, 0
8, 50640, Note_on_c, 14, 52, 100
8, 50650, Note_on_c, 14, 64, 100
8, 50660, Note_on_c, 14, 68, 100
8, 50670, Note_on_c, 14, 76, 100
8, 50700, Note_on_c, 14, 76, 0
8, 50700, Note_on_c, 14, 52, 0
8, 50700, Note_on_c, 14, 64, 0
8, 50700, Note_on_c, 14, 68, 0
8, 50700, Note_on_c, 14, 52, 100
8, 50710, Note_on_c, 14, 64, 100
8, 50720, Note_on_c, 14, 68, 100
8, 50730, Note_on_c, 14, 76, 100
8, 50760, Note_on_c, 14, 76, 0
8, 50760, Note_on_c, 14, 52, 0
8, 50760, Note_on_c, 14, 64, 0
8, 50760, Note_on_c, 14, 68, 0
8, 50760, Note_on_c, 14, 52, 100
8, 50770, Note_on_c, 14, 64, 100
8, 50780, Note_on_c, 14, 68, 100
8, 50790, Note_on_c, 14, 76, 100
8, 50820, Note_on_c, 14, 76, 0
8, 50820, Note_on_c, 14, 52, 0
8, 50820, Note_on_c, 14, 64, 0
8, 50820, Note_on_c, 14, 68, 0
8, 50820, Note_on_c, 14, 52, 100
8, 50830, Note_on_c, 14, 64, 100
8, 50840, Note_on_c, 14, 68, 100
8, 50850, Note_on_c, 14, 76, 100
8, 50880, Note_on_c, 14, 76, 0
8, 50880, Note_on_c, 14, 52, 0
8, 50880, Note_on_c, 14, 64, 0
8, 50880, Note_on_c, 14, 68, 0
8, 50880, Note_on_c, 14, 52, 100
8, 50890, Note_on_c, 14, 64, 100
8, 50900, Note_on_c, 14, 68, 100
8, 50910, Note_on_c, 14, 76, 100
8, 50940, Note_on_c, 14, 76, 0
8, 50940, Note_on_c, 14, 52, 0
8, 50940, Note_on_c, 14, 64, 0
8, 50940, Note_on_c, 14, 68, 0
8, 50940, Note_on_c, 14, 52, 100
8, 50950, Note_on_c, 14, 64, 100
8, 50960, Note_on_c, 14, 68, 100
8, 50970, Note_on_c, 14, 76, 100
8, 51000, Note_on_c, 14, 76, 0
8, 51000, Note_on_c, 14, 52, 0
8, 51000, Note_on_c, 14, 64, 0
8, 51000, Note_on_c, 14, 68, 0
8, 51000, Note_on_c, 14, 52, 100
8, 51010, Note_on_c, 14, 64, 100
8, 51020, Note_on_c, 14, 68, 100
8, 51030, Note_on_c, 14, 76, 100
8, 51120, Note_on_c, 14, 76, 0
8, 51120, Note_on_c, 14, 52, 0
8, 51120, Note_on_c, 14, 64, 0
8, 51120, Note_on_c, 14, 68, 0
8, 51120, Note_on_c, 14, 57, 100
8, 51130, Note_on_c, 14, 69, 100
8, 51140, Note_on_c, 14, 73, 100
8, 51150, Note_on_c, 14, 76, 100
8, 51180, Note_on_c, 14, 76, 0
8, 51180, Note_on_c, 14, 57, 0
8, 51180, Note_on_c, 14, 69, 0
8, 51180, Note_on_c, 14, 73, 0
8, 51180, Note_on_c, 14, 57, 100
8, 51190, Note_on_c, 14, 69, 100
8, 51200, Note_on_c, 14, 73, 100
8, 51210, Note_on_c, 14, 76, 100
8, 51240, Note_on_c, 14, 76, 0
8, 51240, Note_on_c, 14, 57, 0
8, 51240, Note_on_c, 14, 69, 0
8, 51240, Note_on_c, 14, 73, 0
8, 51240, Note_on_c, 14, 57, 100
8, 51250, Note_on_c, 14, 69, 100
8, 51260, Note_on_c, 14, 73, 100
8, 51270, Note_on_c, 14, 76, 100
8, 51300, Note_on_c, 14, 76, 0
8, 51300, Note_on_c, 14, 57, 0
8, 51300, Note_on_c, 14, 69, 0
8, 51300, Note_on_c, 14, 73, 0
8, 51300, Note_on_c, 14, 57, 100
8, 51310, Note_on_c, 14, 69, 100
8, 51320, Note_on_c, 14, 73, 100
8, 51330, Note_on_c, 14, 76, 100
8, 51420, Note_on_c, 14, 76, 0
8, 51420, Note_on_c, 14, 57, 0
8, 51420, Note_on_c, 14, 69, 0
8, 51420, Note_on_c, 14, 73, 0
8, 51420, Note_on_c, 14, 57, 100
8, 51430, Note_on_c, 14, 69, 100
8, 51440, Note_on_c, 14, 73, 100
8, 51450, Note_on_c, 14, 76, 100
8, 51480, Note_on_c, 14, 76, 0
8, 51480, Note_on_c, 14, 57, 0
8, 51480, Note_on_c, 14, 69, 0
8, 51480, Note_on_c, 14, 73, 0
8, 51480, Note_on_c, 14, 57, 100
8, 51490, Note_on_c, 14, 69, 100
8, 51500, Note_on_c, 14, 73, 100
8, 51510, Note_on_c, 14, 76, 100
8, 51540, Note_on_c, 14, 76, 0
8, 51540, Note_on_c, 14, 57, 0
8, 51540, Note_on_c, 14, 69, 0
8, 51540, Note_on_c, 14, 73, 0
8, 51540, Note_on_c, 14, 57, 100
8, 51550, Note_on_c, 14, 69, 100
8, 51560, Note_on_c, 14, 73, 100
8, 51570, Note_on_c, 14, 76, 100
8, 51600, Note_on_c, 14, 76, 0
8, 51600, Note_on_c, 14, 57, 0
8, 51600, Note_on_c, 14, 69, 0
8, 51600, Note_on_c, 14, 73, 0
8, 51600, Note_on_c, 14, 57, 100
8, 51610, Note_on_c, 14, 69, 100
8, 51620, Note_on_c, 14, 73, 100
8, 51630, Note_on_c, 14, 76, 100
8, 51720, Note_on_c, 14, 76, 0
8, 51720, Note_on_c, 14, 57, 0
8, 51720, Note_on_c, 14, 69, 0
8, 51720, Note_on_c, 14, 73, 0
8, 51720, Note_on_c, 14, 57, 100
8, 51730, Note_on_c, 14, 69, 100
8, 51740, Note_on_c, 14, 73, 100
8, 51750, Note_on_c, 14, 76, 100
8, 51840, Note_on_c, 14, 76, 0
8, 51840, Note_on_c, 14, 57, 0
8, 51840, Note_on_c, 14, 69, 0
8, 51840, Note_on_c, 14, 73, 0
8, 51840, Note_on_c, 14, 55, 100
8, 51850, Note_on_c, 14, 67, 100
8, 51860, Note_on_c, 14, 71, 100
8, 51870, Note_on_c, 14, 76, 100
8, 51960, Note_on_c, 14, 76, 0
8, 51960, Note_on_c, 14, 55, 0
8, 51960, Note_on_c, 14, 67, 0
8, 51960, Note_on_c, 14, 71, 0
8, 51960, Note_on_c, 14, 55, 100
8, 51970, Note_on_c, 14, 67, 100
8, 51980, Note_on_c, 14, 71, 100
8, 51990, Note_on_c, 14, 76, 100
8, 52080, Note_on_c, 14, 76, 0
8, 52080, Note_on_c, 14, 55, 0
8, 52080, Note_on_c, 14, 67, 0
8, 52080, Note_on_c, 14, 71, 0
8, 52080, Note_on_c, 14, 52, 100
8, 52090, Note_on_c, 14, 64, 100
8, 52100, Note_on_c, 14, 68, 100
8, 52110, Note_on_c, 14, 76, 100
8, 52140, Note_on_c, 14, 76, 0
8, 52140, Note_on_c, 14, 52, 0
8, 52140, Note_on_c, 14, 64, 0
8, 52140, Note_on_c, 14, 68, 0
8, 52140, Note_on_c, 14, 52, 100
8, 52150, Note_on_c, 14, 64, 100
8, 52160, Note_on_c, 14, 68, 100
8, 52170, Note_on_c, 14, 76, 100
8, 52200, Note_on_c, 14, 76, 0
8, 52200, Note_on_c, 14, 52, 0
8, 52200, Note_on_c, 14, 64, 0
8, 52200, Note_on_c, 14, 68, 0
8, 52200, Note_on_c, 14, 52, 100
8, 52210, Note_on_c, 14, 64, 100
8, 52220, Note_on_c, 14, 68, 100
8, 52230, Note_on_c, 14, 76, 100
8, 52260, Note_on_c, 14, 76, 0
8, 52260, Note_on_c, 14, 52, 0
8, 52260, Note_on_c, 14, 64, 0
8, 52260, Note_on_c, 14, 68, 0
8, 52260, Note_on_c, 14, 52, 100
8, 52270, Note_on_c, 14, 64, 100
8, 52280, Note_on_c, 14, 68, 100
8, 52290, Note_on_c, 14, 76, 100
8, 52380, Note_on_c, 14, 76, 0
8, 52380, Note_on_c, 14, 52, 0
8, 52380, Note_on_c, 14, 64, 0
8, 52380, Note_on_c, 14, 68, 0
8, 52380, Note_on_c, 14, 52, 100
8, 52390, Note_on_c, 14, 64, 100
8, 52400, Note_on_c, 14, 68, 100
8, 52410, Note_on_c, 14, 76, 100
8, 52500, Note_on_c, 14, 76, 0
8, 52500, Note_on_c, 14, 52, 0
8, 52500, Note_on_c, 14, 64, 0
8, 52500, Note_on_c, 14, 68, 0
8, 52500, Note_on_c, 14, 52, 100
8, 52510, Note_on_c, 14, 64, 100
8, 52520, Note_on_c, 14, 68, 100
8, 52530, Note_on_c, 14, 76, 100
8, 52560, Note_on_c, 14, 76, 0
8, 52560, Note_on_c, 14, 52, 0
8, 52560, Note_on_c, 14, 64, 0
8, 52560, Note_on_c, 14, 68, 0
8, 52560, Note_on_c, 14, 52, 100
8, 52570, Note_on_c, 14, 64, 100
8, 52580, Note_on_c, 14, 68, 100
8, 52590, Note_on_c, 14, 76, 100
8, 52620, Note_on_c, 14, 76, 0
8, 52620, Note_on_c, 14, 52, 0
8, 52620, Note_on_c, 14, 64, 0
8, 52620, Note_on_c, 14, 68, 0
8, 52620, Note_on_c, 14, 52, 100
8, 52630, Note_on_c, 14, 64, 100
8, 52640, Note_on_c, 14, 68, 100
8, 52650, Note_on_c, 14, 76, 100
8, 52680, Note_on_c, 14, 76, 0
8, 52680, Note_on_c, 14, 52, 0
8, 52680, Note_on_c, 14, 64, 0
8, 52680, Note_on_c, 14, 68, 0
8, 52680, Note_on_c, 14, 52, 100
8, 52690, Note_on_c, 14, 64, 100
8, 52700, Note_on_c, 14, 68, 100
8, 52710, Note_on_c, 14, 76, 100
8, 52740, Note_on_c, 14, 76, 0
8, 52740, Note_on_c, 14, 52, 0
8, 52740, Note_on_c, 14, 64, 0
8, 52740, Note_on_c, 14, 68, 0
8, 52740, Note_on_c, 14, 52, 100
8, 52750, Note_on_c, 14, 64, 100
8, 52760, Note_on_c, 14, 68, 100
8, 52770, Note_on_c, 14, 76, 100
8, 52800, Note_on_c, 14, 76, 0
8, 52800, Note_on_c, 14, 52, 0
8, 52800, Note_on_c, 14, 64, 0
8, 52800, Note_on_c, 14, 68, 0
8, 52800, Note_on_c, 14, 52, 100
8, 52810, Note_on_c, 14, 64, 100
8, 52820, Note_on_c, 14, 68, 100
8, 52830, Note_on_c, 14, 76, 100
8, 52860, Note_on_c, 14, 76, 0
8, 52860, Note_on_c, 14, 52, 0
8, 52860, Note_on_c, 14, 64, 0
8, 52860, Note_on_c, 14, 68, 0
8, 52860, Note_on_c, 14, 52, 100
8, 52870, Note_on_c, 14, 64, 100
8, 52880, Note_on_c, 14, 68, 100
8, 52890, Note_on_c, 14, 76, 100
8, 52920, Note_on_c, 14, 76, 0
8, 52920, Note_on_c, 14, 52, 0
8, 52920, Note_on_c, 14, 64, 0
8, 52920, Note_on_c, 14, 68, 0
8, 52920, Note_on_c, 14, 52, 100
8, 52930, Note_on_c, 14, 64, 100
8, 52940, Note_on_c, 14, 68, 100
8, 52950, Note_on_c, 14, 76, 100
8, 53040, Note_on_c, 14, 76, 0
8, 53040, Note_on_c, 14, 52, 0
8, 53040, Note_on_c, 14, 64, 0
8, 53040, Note_on_c, 14, 68, 0
8, 53040, Note_on_c, 14, 57, 100
8, 53050, Note_on_c, 14, 69, 100
8, 53060, Note_on_c, 14, 73, 100
8, 53070, Note_on_c, 14, 76, 100
8, 53100, Note_on_c, 14, 76, 0
8, 53100, Note_on_c, 14, 57, 0
8, 53100, Note_on_c, 14, 69, 0
8, 53100, Note_on_c, 14, 73, 0
8, 53100, Note_on_c, 14, 57, 100
8, 53110, Note_on_c, 14, 69, 100
8, 53120, Note_on_c, 14, 73, 100
8, 53130, Note_on_c, 14, 76, 100
8, 53160, Note_on_c, 14, 76, 0
8, 53160, Note_on_c, 14, 57, 0
8, 53160, Note_on_c, 14, 69, 0
8, 53160, Note_on_c, 14, 73, 0
8, 53160, Note_on_c, 14, 57, 100
8, 53170, Note_on_c, 14, 69, 100
8, 53180, Note_on_c, 14, 73, 100
8, 53190, Note_on_c, 14, 76, 100
8, 53220, Note_on_c, 14, 76, 0
8, 53220, Note_on_c, 14, 57, 0
8, 53220, Note_on_c, 14, 69, 0
8, 53220, Note_on_c, 14, 73, 0
8, 53220, Note_on_c, 14, 57, 100
8, 53230, Note_on_c, 14, 69, 100
8, 53240, Note_on_c, 14, 73, 100
8, 53250, Note_on_c, 14, 76, 100
8, 53340, Note_on_c, 14, 76, 0
8, 53340, Note_on_c, 14, 57, 0
8, 53340, Note_on_c, 14, 69, 0
8, 53340, Note_on_c, 14, 73, 0
8, 53340, Note_on_c, 14, 57, 100
8, 53350, Note_on_c, 14, 69, 100
8, 53360, Note_on_c, 14, 73, 100
8, 53370, Note_on_c, 14, 76, 100
8, 53400, Note_on_c, 14, 76, 0
8, 53400, Note_on_c, 14, 57, 0
8, 53400, Note_on_c, 14, 69, 0
8, 53400, Note_on_c, 14, 73, 0
8, 53400, Note_on_c, 14, 57, 100
8, 53410, Note_on_c, 14, 69, 100
8, 53420, Note_on_c, 14, 73, 100
8, 53430, Note_on_c, 14, 76, 100
8, 53460, Note_on_c, 14, 76, 0
8, 53460, Note_on_c, 14, 57, 0
8, 53460, Note_on_c, 14, 69, 0
8, 53460, Note_on_c, 14, 73, 0
8, 53460, Note_on_c, 14, 57, 100
8, 53470, Note_on_c, 14, 69, 100
8, 53480, Note_on_c, 14, 73, 100
8, 53490, Note_on_c, 14, 76, 100
8, 53520, Note_on_c, 14, 76, 0
8, 53520, Note_on_c, 14, 57, 0
8, 53520, Note_on_c, 14, 69, 0
8, 53520, Note_on_c, 14, 73, 0
8, 53520, Note_on_c, 14, 57, 100
8, 53530, Note_on_c, 14, 69, 100
8, 53540, Note_on_c, 14, 73, 100
8, 53550, Note_on_c, 14, 76, 100
8, 53640, Note_on_c, 14, 76, 0
8, 53640, Note_on_c, 14, 57, 0
8, 53640, Note_on_c, 14, 69, 0
8, 53640, Note_on_c, 14, 73, 0
8, 53640, Note_on_c, 14, 57, 100
8, 53650, Note_on_c, 14, 69, 100
8, 53660, Note_on_c, 14, 73, 100
8, 53670, Note_on_c, 14, 76, 100
8, 53760, Note_on_c, 14, 76, 0
8, 53760, Note_on_c, 14, 57, 0
8, 53760, Note_on_c, 14, 69, 0
8, 53760, Note_on_c, 14, 73, 0
8, 53760, Note_on_c, 14, 55, 100
8, 53770, Note_on_c, 14, 67, 100
8, 53780, Note_on_c, 14, 71, 100
8, 53790, Note_on_c, 14, 76, 100
8, 53880, Note_on_c, 14, 76, 0
8, 53880, Note_on_c, 14, 55, 0
8, 53880, Note_on_c, 14, 67, 0
8, 53880, Note_on_c, 14, 71, 0
8, 53880, Note_on_c, 14, 55, 100
8, 53890, Note_on_c, 14, 67, 100
8, 53900, Note_on_c, 14, 71, 100
8, 53910, Note_on_c, 14, 76, 100
8, 54000, Note_on_c, 14, 76, 0
8, 54000, Note_on_c, 14, 55, 0
8, 54000, Note_on_c, 14, 67, 0
8, 54000, Note_on_c, 14, 71, 0
8, 54000, Note_on_c, 14, 52, 100
8, 54010, Note_on_c, 14, 64, 100
8, 54020, Note_on_c, 14, 68, 100
8, 54030, Note_on_c, 14, 76, 100
8, 54060, Note_on_c, 14, 76, 0
8, 54060, Note_on_c, 14, 52, 0
8, 54060, Note_on_c, 14, 64, 0
8, 54060, Note_on_c, 14, 68, 0
8, 54060, Note_on_c, 14, 52, 100
8, 54070, Note_on_c, 14, 64, 100
8, 54080, Note_on_c, 14, 68, 100
8, 54090, Note_on_c, 14, 76, 100
8, 54120, Note_on_c, 14, 76, 0
8, 54120, Note_on_c, 14, 52, 0
8, 54120, Note_on_c, 14, 64, 0
8, 54120, Note_on_c, 14, 68, 0
8, 54120, Note_on_c, 14, 52, 100
8, 54130, Note_on_c, 14, 64, 100
8, 54140, Note_on_c, 14, 68, 100
8, 54150, Note_on_c, 14, 76, 100
8, 54180, Note_on_c, 14, 76, 0
8, 54180, Note_on_c, 14, 52, 0
8, 54180, Note_on_c, 14, 64, 0
8, 54180, Note_on_c, 14, 68, 0
8, 54180, Note_on_c, 14, 52, 100
8, 54190, Note_on_c, 14, 64, 100
8, 54200, Note_on_c, 14, 68, 100
8, 54210, Note_on_c, 14, 76, 100
8, 54300, Note_on_c, 14, 76, 0
8, 54300, Note_on_c, 14, 52, 0
8, 54300, Note_on_c, 14, 64, 0
8, 54300, Note_on_c, 14, 68, 0
8, 54300, Note_on_c, 14, 52, 100
8, 54310, Note_on_c, 14, 64, 100
8, 54320, Note_on_c, 14, 68, 100
8, 54330, Note_on_c, 14, 76, 100
8, 54420, Note_on_c, 14, 76, 0
8, 54420, Note_on_c, 14, 52, 0
8, 54420, Note_on_c, 14, 64, 0
8, 54420, Note_on_c, 14, 68, 0
8, 54420, Note_on_c, 14, 52, 100
8, 54430, Note_on_c, 14, 64, 100
8, 54440, Note_on_c, 14, 68, 100
8, 54450, Note_on_c, 14, 76, 100
8, 54480, Note_on_c, 14, 76, 0
8, 54480, Note_on_c, 14, 52, 0
8, 54480, Note_on_c, 14, 64, 0
8, 54480, Note_on_c, 14, 68, 0
8, 54480, Note_on_c, 14, 52, 100
8, 54490, Note_on_c, 14, 64, 100
8, 54500, Note_on_c, 14, 68, 100
8, 54510, Note_on_c, 14, 76, 100
8, 54540, Note_on_c, 14, 76, 0
8, 54540, Note_on_c, 14, 52, 0
8, 54540, Note_on_c, 14, 64, 0
8, 54540, Note_on_c, 14, 68, 0
8, 54540, Note_on_c, 14, 52, 100
8, 54550, Note_on_c, 14, 64, 100
8, 54560, Note_on_c, 14, 68, 100
8, 54570, Note_on_c, 14, 76, 100
8, 54600, Note_on_c, 14, 76, 0
8, 54600, Note_on_c, 14, 52, 0
8, 54600, Note_on_c, 14, 64, 0
8, 54600, Note_on_c, 14, 68, 0
8, 54600, Note_on_c, 14, 52, 100
8, 54610, Note_on_c, 14, 64, 100
8, 54620, Note_on_c, 14, 68, 100
8, 54630, Note_on_c, 14, 76, 100
8, 54660, Note_on_c, 14, 76, 0
8, 54660, Note_on_c, 14, 52, 0
8, 54660, Note_on_c, 14, 64, 0
8, 54660, Note_on_c, 14, 68, 0
8, 54660, Note_on_c, 14, 52, 100
8, 54670, Note_on_c, 14, 64, 100
8, 54680, Note_on_c, 14, 68, 100
8, 54690, Note_on_c, 14, 76, 100
8, 54720, Note_on_c, 14, 76, 0
8, 54720, Note_on_c, 14, 52, 0
8, 54720, Note_on_c, 14, 64, 0
8, 54720, Note_on_c, 14, 68, 0
8, 54720, Note_on_c, 14, 52, 100
8, 54730, Note_on_c, 14, 64, 100
8, 54740, Note_on_c, 14, 68, 100
8, 54750, Note_on_c, 14, 76, 100
8, 54780, Note_on_c, 14, 76, 0
8, 54780, Note_on_c, 14, 52, 0
8, 54780, Note_on_c, 14, 64, 0
8, 54780, Note_on_c, 14, 68, 0
8, 54780, Note_on_c, 14, 52, 100
8, 54790, Note_on_c, 14, 64, 100
8, 54800, Note_on_c, 14, 68, 100
8, 54810, Note_on_c, 14, 76, 100
8, 54840, Note_on_c, 14, 76, 0
8, 54840, Note_on_c, 14, 52, 0
8, 54840, Note_on_c, 14, 64, 0
8, 54840, Note_on_c, 14, 68, 0
8, 54840, Note_on_c, 14, 52, 100
8, 54850, Note_on_c, 14, 64, 100
8, 54860, Note_on_c, 14, 68, 100
8, 54870, Note_on_c, 14, 76, 100
8, 54960, Note_on_c, 14, 76, 0
8, 54960, Note_on_c, 14, 52, 0
8, 54960, Note_on_c, 14, 64, 0
8, 54960, Note_on_c, 14, 68, 0
8, 54960, Note_on_c, 14, 57, 100
8, 54970, Note_on_c, 14, 69, 100
8, 54980, Note_on_c, 14, 73, 100
8, 54990, Note_on_c, 14, 76, 100
8, 55020, Note_on_c, 14, 76, 0
8, 55020, Note_on_c, 14, 57, 0
8, 55020, Note_on_c, 14, 69, 0
8, 55020, Note_on_c, 14, 73, 0
8, 55020, Note_on_c, 14, 57, 100
8, 55030, Note_on_c, 14, 69, 100
8, 55040, Note_on_c, 14, 73, 100
8, 55050, Note_on_c, 14, 76, 100
8, 55080, Note_on_c, 14, 76, 0
8, 55080, Note_on_c, 14, 57, 0
8, 55080, Note_on_c, 14, 69, 0
8, 55080, Note_on_c, 14, 73, 0
8, 55080, Note_on_c, 14, 57, 100
8, 55090, Note_on_c, 14, 69, 100
8, 55100, Note_on_c, 14, 73, 100
8, 55110, Note_on_c, 14, 76, 100
8, 55140, Note_on_c, 14, 76, 0
8, 55140, Note_on_c, 14, 57, 0
8, 55140, Note_on_c, 14, 69, 0
8, 55140, Note_on_c, 14, 73, 0
8, 55140, Note_on_c, 14, 57, 100
8, 55150, Note_on_c, 14, 69, 100
8, 55160, Note_on_c, 14, 73, 100
8, 55170, Note_on_c, 14, 76, 100
8, 55260, Note_on_c, 14, 76, 0
8, 55260, Note_on_c, 14, 57, 0
8, 55260, Note_on_c, 14, 69, 0
8, 55260, Note_on_c, 14, 73, 0
8, 55260, Note_on_c, 14, 57, 100
8, 55270, Note_on_c, 14, 69, 100
8, 55280, Note_on_c, 14, 73, 100
8, 55290, Note_on_c, 14, 76, 100
8, 55320, Note_on_c, 14, 76, 0
8, 55320, Note_on_c, 14, 57, 0
8, 55320, Note_on_c, 14, 69, 0
8, 55320, Note_on_c, 14, 73, 0
8, 55320, Note_on_c, 14, 57, 100
8, 55330, Note_on_c, 14, 69, 100
8, 55340, Note_on_c, 14, 73, 100
8, 55350, Note_on_c, 14, 76, 100
8, 55380, Note_on_c, 14, 76, 0
8, 55380, Note_on_c, 14, 57, 0
8, 55380, Note_on_c, 14, 69, 0
8, 55380, Note_on_c, 14, 73, 0
8, 55380, Note_on_c, 14, 57, 100
8, 55390, Note_on_c, 14, 69, 100
8, 55400, Note_on_c, 14, 73, 100
8, 55410, Note_on_c, 14, 76, 100
8, 55440, Note_on_c, 14, 76, 0
8, 55440, Note_on_c, 14, 57, 0
8, 55440, Note_on_c, 14, 69, 0
8, 55440, Note_on_c, 14, 73, 0
8, 55440, Note_on_c, 14, 57, 100
8, 55450, Note_on_c, 14, 69, 100
8, 55460, Note_on_c, 14, 73, 100
8, 55470, Note_on_c, 14, 76, 100
8, 55560, Note_on_c, 14, 76, 0
8, 55560, Note_on_c, 14, 57, 0
8, 55560, Note_on_c, 14, 69, 0
8, 55560, Note_on_c, 14, 73, 0
8, 55560, Note_on_c, 14, 57, 100
8, 55570, Note_on_c, 14, 69, 100
8, 55580, Note_on_c, 14, 73, 100
8, 55590, Note_on_c, 14, 76, 100
8, 55680, Note_on_c, 14, 76, 0
8, 55680, Note_on_c, 14, 57, 0
8, 55680, Note_on_c, 14, 69, 0
8, 55680, Note_on_c, 14, 73, 0
8, 55680, Note_on_c, 14, 55, 100
8, 55690, Note_on_c, 14, 67, 100
8, 55700, Note_on_c, 14, 71, 100
8, 55710, Note_on_c, 14, 76, 100
8, 55800, Note_on_c, 14, 76, 0
8, 55800, Note_on_c, 14, 55, 0
8, 55800, Note_on_c, 14, 67, 0
8, 55800, Note_on_c, 14, 71, 0
8, 55800, Note_on_c, 14, 55, 100
8, 55810, Note_on_c, 14, 67, 100
8, 55820, Note_on_c, 14, 71, 100
8, 55830, Note_on_c, 14, 76, 100
8, 55920, Note_on_c, 14, 76, 0
8, 55920, Note_on_c, 14, 55, 0
8, 55920, Note_on_c, 14, 67, 0
8, 55920, Note_on_c, 14, 71, 0
8, 55920, Note_on_c, 14, 52, 100
8, 55930, Note_on_c, 14, 64, 100
8, 55940, Note_on_c, 14, 68, 100
8, 55950, Note_on_c, 14, 76, 100
8, 55980, Note_on_c, 14, 76, 0
8, 55980, Note_on_c, 14, 52, 0
8, 55980, Note_on_c, 14, 64, 0
8, 55980, Note_on_c, 14, 68, 0
8, 55980, Note_on_c, 14, 52, 100
8, 55990, Note_on_c, 14, 64, 100
8, 56000, Note_on_c, 14, 68, 100
8, 56010, Note_on_c, 14, 76, 100
8, 56040, Note_on_c, 14, 76, 0
8, 56040, Note_on_c, 14, 52, 0
8, 56040, Note_on_c, 14, 64, 0
8, 56040, Note_on_c, 14, 68, 0
8, 56040, Note_on_c, 14, 52, 100
8, 56050, Note_on_c, 14, 64, 100
8, 56060, Note_on_c, 14, 68, 100
8, 56070, Note_on_c, 14, 76, 100
8, 56100, Note_on_c, 14, 76, 0
8, 56100, Note_on_c, 14, 52, 0
8, 56100, Note_on_c, 14, 64, 0
8, 56100, Note_on_c, 14, 68, 0
8, 56100, Note_on_c, 14, 52, 100
8, 56110, Note_on_c, 14, 64, 100
8, 56120, Note_on_c, 14, 68, 100
8, 56130, Note_on_c, 14, 76, 100
8, 56220, Note_on_c, 14, 76, 0
8, 56220, Note_on_c, 14, 52, 0
8, 56220, Note_on_c, 14, 64, 0
8, 56220, Note_on_c, 14, 68, 0
8, 56220, Note_on_c, 14, 52, 100
8, 56230, Note_on_c, 14, 64, 100
8, 56240, Note_on_c, 14, 68, 100
8, 56250, Note_on_c, 14, 76, 100
8, 56340, Note_on_c, 14, 76, 0
8, 56340, Note_on_c, 14, 52, 0
8, 56340, Note_on_c, 14, 64, 0
8, 56340, Note_on_c, 14, 68, 0
8, 56340, Note_on_c, 14, 52, 100
8, 56350, Note_on_c, 14, 64, 100
8, 56360, Note_on_c, 14, 68, 100
8, 56370, Note_on_c, 14, 76, 100
8, 56400, Note_on_c, 14, 76, 0
8, 56400, Note_on_c, 14, 52, 0
8, 56400, Note_on_c, 14, 64, 0
8, 56400, Note_on_c, 14, 68, 0
8, 56400, Note_on_c, 14, 52, 100
8, 56410, Note_on_c, 14, 64, 100
8, 56420, Note_on_c, 14, 68, 100
8, 56430, Note_on_c, 14, 76, 100
8, 56460, Note_on_c, 14, 76, 0
8, 56460, Note_on_c, 14, 52, 0
8, 56460, Note_on_c, 14, 64, 0
8, 56460, Note_on_c, 14, 68, 0
8, 56460, Note_on_c, 14, 52, 100
8, 56470, Note_on_c, 14, 64, 100
8, 56480, Note_on_c, 14, 68, 100
8, 56490, Note_on_c, 14, 76, 100
8, 56520, Note_on_c, 14, 76, 0
8, 56520, Note_on_c, 14, 52, 0
8, 56520, Note_on_c, 14, 64, 0
8, 56520, Note_on_c, 14, 68, 0
8, 56520, Note_on_c, 14, 52, 100
8, 56530, Note_on_c, 14, 64, 100
8, 56540, Note_on_c, 14, 68, 100
8, 56550, Note_on_c, 14, 76, 100
8, 56580, Note_on_c, 14, 76, 0
8, 56580, Note_on_c, 14, 52, 0
8, 56580, Note_on_c, 14, 64, 0
8, 56580, Note_on_c, 14, 68, 0
8, 56580, Note_on_c, 14, 52, 100
8, 56590, Note_on_c, 14, 64, 100
8, 56600, Note_on_c, 14, 68, 100
8, 56610, Note_on_c, 14, 76, 100
8, 56640, Note_on_c, 14, 76, 0
8, 56640, Note_on_c, 14, 52, 0
8, 56640, Note_on_c, 14, 64, 0
8, 56640, Note_on_c, 14, 68, 0
8, 56640, Note_on_c, 14, 52, 100
8, 56650, Note_on_c, 14, 64, 100
8, 56660, Note_on_c, 14, 68, 100
8, 56670, Note_on_c, 14, 76, 100
8, 56700, Note_on_c, 14, 76, 0
8, 56700, Note_on_c, 14, 52, 0
8, 56700, Note_on_c, 14, 64, 0
8, 56700, Note_on_c, 14, 68, 0
8, 56700, Note_on_c, 14, 52, 100
8, 56710, Note_on_c, 14, 64, 100
8, 56720, Note_on_c, 14, 68, 100
8, 56730, Note_on_c, 14, 76, 100
8, 56760, Note_on_c, 14, 76, 0
8, 56760, Note_on_c, 14, 52, 0
8, 56760, Note_on_c, 14, 64, 0
8, 56760, Note_on_c, 14, 68, 0
8, 56760, Note_on_c, 14, 52, 100
8, 56770, Note_on_c, 14, 64, 100
8, 56780, Note_on_c, 14, 68, 100
8, 56790, Note_on_c, 14, 76, 100
8, 56880, Note_on_c, 14, 76, 0
8, 56880, Note_on_c, 14, 52, 0
8, 56880, Note_on_c, 14, 64, 0
8, 56880, Note_on_c, 14, 68, 0
8, 56880, Note_on_c, 14, 57, 100
8, 56890, Note_on_c, 14, 69, 100
8, 56900, Note_on_c, 14, 73, 100
8, 56910, Note_on_c, 14, 76, 100
8, 56940, Note_on_c, 14, 76, 0
8, 56940, Note_on_c, 14, 57, 0
8, 56940, Note_on_c, 14, 69, 0
8, 56940, Note_on_c, 14, 73, 0
8, 56940, Note_on_c, 14, 57, 100
8, 56950, Note_on_c, 14, 69, 100
8, 56960, Note_on_c, 14, 73, 100
8, 56970, Note_on_c, 14, 76, 100
8, 57000, Note_on_c, 14, 76, 0
8, 57000, Note_on_c, 14, 57, 0
8, 57000, Note_on_c, 14, 69, 0
8, 57000, Note_on_c, 14, 73, 0
8, 57000, Note_on_c, 14, 57, 100
8, 57010, Note_on_c, 14, 69, 100
8, 57020, Note_on_c, 14, 73, 100
8, 57030, Note_on_c, 14, 76, 100
8, 57060, Note_on_c, 14, 76, 0
8, 57060, Note_on_c, 14, 57, 0
8, 57060, Note_on_c, 14, 69, 0
8, 57060, Note_on_c, 14, 73, 0
8, 57060, Note_on_c, 14, 57, 100
8, 57070, Note_on_c, 14, 69, 100
8, 57080, Note_on_c, 14, 73, 100
8, 57090, Note_on_c, 14, 76, 100
8, 57180, Note_on_c, 14, 76, 0
8, 57180, Note_on_c, 14, 57, 0
8, 57180, Note_on_c, 14, 69, 0
8, 57180, Note_on_c, 14, 73, 0
8, 57180, Note_on_c, 14, 57, 100
8, 57190, Note_on_c, 14, 69, 100
8, 57200, Note_on_c, 14, 73, 100
8, 57210, Note_on_c, 14, 76, 100
8, 57240, Note_on_c, 14, 76, 0
8, 57240, Note_on_c, 14, 57, 0
8, 57240, Note_on_c, 14, 69, 0
8, 57240, Note_on_c, 14, 73, 0
8, 57240, Note_on_c, 14, 57, 100
8, 57250, Note_on_c, 14, 69, 100
8, 57260, Note_on_c, 14, 73, 100
8, 57270, Note_on_c, 14, 76, 100
8, 57300, Note_on_c, 14, 76, 0
8, 57300, Note_on_c, 14, 57, 0
8, 57300, Note_on_c, 14, 69, 0
8, 57300, Note_on_c, 14, 73, 0
8, 57300, Note_on_c, 14, 57, 100
8, 57310, Note_on_c, 14, 69, 100
8, 57320, Note_on_c, 14, 73, 100
8, 57330, Note_on_c, 14, 76, 100
8, 57360, Note_on_c, 14, 76, 0
8, 57360, Note_on_c, 14, 57, 0
8, 57360, Note_on_c, 14, 69, 0
8, 57360, Note_on_c, 14, 73, 0
8, 57360, Note_on_c, 14, 57, 100
8, 57370, Note_on_c, 14, 69, 100
8, 57380, Note_on_c, 14, 73, 100
8, 57390, Note_on_c, 14, 76, 100
8, 57480, Note_on_c, 14, 76, 0
8, 57480, Note_on_c, 14, 57, 0
8, 57480, Note_on_c, 14, 69, 0
8, 57480, Note_on_c, 14, 73, 0
8, 57480, Note_on_c, 14, 57, 100
8, 57490, Note_on_c, 14, 69, 100
8, 57500, Note_on_c, 14, 73, 100
8, 57510, Note_on_c, 14, 76, 100
8, 57600, Note_on_c, 14, 76, 0
8, 57600, Note_on_c, 14, 57, 0
8, 57600, Note_on_c, 14, 69, 0
8, 57600, Note_on_c, 14, 73, 0
8, 57600, Note_on_c, 14, 55, 100
8, 57610, Note_on_c, 14, 67, 100
8, 57620, Note_on_c, 14, 71, 100
8, 57630, Note_on_c, 14, 76, 100
8, 57720, Note_on_c, 14, 76, 0
8, 57720, Note_on_c, 14, 55, 0
8, 57720, Note_on_c, 14, 67, 0
8, 57720, Note_on_c, 14, 71, 0
8, 57720, Note_on_c, 14, 55, 100
8, 57730, Note_on_c, 14, 67, 100
8, 57740, Note_on_c, 14, 71, 100
8, 57750, Note_on_c, 14, 76, 100
8, 57840, Note_on_c, 14, 76, 0
8, 57840, Note_on_c, 14, 55, 0
8, 57840, Note_on_c, 14, 67, 0
8, 57840, Note_on_c, 14, 71, 0
8, 57840, Note_on_c, 14, 52, 100
8, 57850, Note_on_c, 14, 64, 100
8, 57860, Note_on_c, 14, 68, 100
8, 57870, Note_on_c, 14, 76, 100
8, 57900, Note_on_c, 14, 76, 0
8, 57900, Note_on_c, 14, 52, 0
8, 57900, Note_on_c, 14, 64, 0
8, 57900, Note_on_c, 14, 68, 0
8, 57900, Note_on_c, 14, 52, 100
8, 57910, Note_on_c, 14, 64, 100
8, 57920, Note_on_c, 14, 68, 100
8, 57930, Note_on_c, 14, 76, 100
8, 57960, Note_on_c, 14, 76, 0
8, 57960, Note_on_c, 14, 52, 0
8, 57960, Note_on_c, 14, 64, 0
8, 57960, Note_on_c, 14, 68, 0
8, 57960, Note_on_c, 14, 52, 100
8, 57970, Note_on_c, 14, 64, 100
8, 57980, Note_on_c, 14, 68, 100
8, 57990, Note_on_c, 14, 76, 100
8, 58020, Note_on_c, 14, 76, 0
8, 58020, Note_on_c, 14, 52, 0
8, 58020, Note_on_c, 14, 64, 0
8, 58020, Note_on_c, 14, 68, 0
8, 58020, Note_on_c, 14, 52, 100
8, 58030, Note_on_c, 14, 64, 100
8, 58040, Note_on_c, 14, 68, 100
8, 58050, Note_on_c, 14, 76, 100
8, 58140, Note_on_c, 14, 76, 0
8, 58140, Note_on_c, 14, 52, 0
8, 58140, Note_on_c, 14, 64, 0
8, 58140, Note_on_c, 14, 68, 0
8, 58140, Note_on_c, 14, 52, 100
8, 58150, Note_on_c, 14, 64, 100
8, 58160, Note_on_c, 14, 68, 100
8, 58170, Note_on_c, 14, 76, 100
8, 58260, Note_on_c, 14, 76, 0
8, 58260, Note_on_c, 14, 52, 0
8, 58260, Note_on_c, 14, 64, 0
8, 58260, Note_on_c, 14, 68, 0
8, 58260, Note_on_c, 14, 52, 100
8, 58270, Note_on_c, 14, 64, 100
8, 58280, Note_on_c, 14, 68, 100
8, 58290, Note_on_c, 14, 76, 100
8, 58320, Note_on_c, 14, 76, 0
8, 58320, Note_on_c, 14, 52, 0
8, 58320, Note_on_c, 14, 64, 0
8, 58320, Note_on_c, 14, 68, 0
8, 58320, Note_on_c, 14, 52, 100
8, 58330, Note_on_c, 14, 64, 100
8, 58340, Note_on_c, 14, 68, 100
8, 58350, Note_on_c, 14, 76, 100
8, 58380, Note_on_c, 14, 76, 0
8, 58380, Note_on_c, 14, 52, 0
8, 58380, Note_on_c, 14, 64, 0
8, 58380, Note_on_c, 14, 68, 0
8, 58380, Note_on_c, 14, 52, 100
8, 58390, Note_on_c, 14, 64, 100
8, 58400, Note_on_c, 14, 68, 100
8, 58410, Note_on_c, 14, 76, 100
8, 58440, Note_on_c, 14, 76, 0
8, 58440, Note_on_c, 14, 52, 0
8, 58440, Note_on_c, 14, 64, 0
8, 58440, Note_on_c, 14, 68, 0
8, 58440, Note_on_c, 14, 52, 100
8, 58450, Note_on_c, 14, 64, 100
8, 58460, Note_on_c, 14, 68, 100
8, 58470, Note_on_c, 14, 76, 100
8, 58500, Note_on_c, 14, 76, 0
8, 58500, Note_on_c, 14, 52, 0
8, 58500, Note_on_c, 14, 64, 0
8, 58500, Note_on_c, 14, 68, 0
8, 58500, Note_on_c, 14, 52, 100
8, 58510, Note_on_c, 14, 64, 100
8, 58520, Note_on_c, 14, 68, 100
8, 58530, Note_on_c, 14, 76, 100
8, 58560, Note_on_c, 14, 76, 0
8, 58560, Note_on_c, 14, 52, 0
8, 58560, Note_on_c, 14, 64, 0
8, 58560, Note_on_c, 14, 68, 0
8, 58560, Note_on_c, 14, 52, 100
8, 58570, Note_on_c, 14, 64, 100
8, 58580, Note_on_c, 14, 68, 100
8, 58590, Note_on_c, 14, 76, 100
8, 58620, Note_on_c, 14, 76, 0
8, 58620, Note_on_c, 14, 52, 0
8, 58620, Note_on_c, 14, 64, 0
8, 58620, Note_on_c, 14, 68, 0
8, 58620, Note_on_c, 14, 52, 100
8, 58630, Note_on_c, 14, 64, 100
8, 58640, Note_on_c, 14, 68, 100
8, 58650, Note_on_c, 14, 76, 100
8, 58680, Note_on_c, 14, 76, 0
8, 58680, Note_on_c, 14, 52, 0
8, 58680, Note_on_c, 14, 64, 0
8, 58680, Note_on_c, 14, 68, 0
8, 58680, Note_on_c, 14, 52, 100
8, 58690, Note_on_c, 14, 64, 100
8, 58700, Note_on_c, 14, 68, 100
8, 58710, Note_on_c, 14, 76, 100
8, 58800, Note_on_c, 14, 76, 0
8, 58800, Note_on_c, 14, 52, 0
8, 58800, Note_on_c, 14, 64, 0
8, 58800, Note_on_c, 14, 68, 0
8, 58800, Note_on_c, 14, 57, 100
8, 58810, Note_on_c, 14, 69, 100
8, 58820, Note_on_c, 14, 73, 100
8, 58830, Note_on_c, 14, 76, 100
8, 58860, Note_on_c, 14, 76, 0
8, 58860, Note_on_c, 14, 57, 0
8, 58860, Note_on_c, 14, 69, 0
8, 58860, Note_on_c, 14, 73, 0
8, 58860, Note_on_c, 14, 57, 100
8, 58870, Note_on_c, 14, 69, 100
8, 58880, Note_on_c, 14, 73, 100
8, 58890, Note_on_c, 14, 76, 100
8, 58920, Note_on_c, 14, 76, 0
8, 58920, Note_on_c, 14, 57, 0
8, 58920, Note_on_c, 14, 69, 0
8, 58920, Note_on_c, 14, 73, 0
8, 58920, Note_on_c, 14, 57, 100
8, 58930, Note_on_c, 14, 69, 100
8, 58940, Note_on_c, 14, 73, 100
8, 58950, Note_on_c, 14, 76, 100
8, 58980, Note_on_c, 14, 76, 0
8, 58980, Note_on_c, 14, 57, 0
8, 58980, Note_on_c, 14, 69, 0
8, 58980, Note_on_c, 14, 73, 0
8, 58980, Note_on_c, 14, 57, 100
8, 58990, Note_on_c, 14, 69, 100
8, 59000, Note_on_c, 14, 73, 100
8, 59010, Note_on_c, 14, 76, 100
8, 59100, Note_on_c, 14, 76, 0
8, 59100, Note_on_c, 14, 57, 0
8, 59100, Note_on_c, 14, 69, 0
8, 59100, Note_on_c, 14, 73, 0
8, 59100, Note_on_c, 14, 57, 100
8, 59110, Note_on_c, 14, 69, 100
8, 59120, Note_on_c, 14, 73, 100
8, 59130, Note_on_c, 14, 76, 100
8, 59160, Note_on_c, 14, 76, 0
8, 59160, Note_on_c, 14, 57, 0
8, 59160, Note_on_c, 14, 69, 0
8, 59160, Note_on_c, 14, 73, 0
8, 59160, Note_on_c, 14, 57, 100
8, 59170, Note_on_c, 14, 69, 100
8, 59180, Note_on_c, 14, 73, 100
8, 59190, Note_on_c, 14, 76, 100
8, 59220, Note_on_c, 14, 76, 0
8, 59220, Note_on_c, 14, 57, 0
8, 59220, Note_on_c, 14, 69, 0
8, 59220, Note_on_c, 14, 73, 0
8, 59220, Note_on_c, 14, 57, 100
8, 59230, Note_on_c, 14, 69, 100
8, 59240, Note_on_c, 14, 73, 100
8, 59250, Note_on_c, 14, 76, 100
8, 59280, Note_on_c, 14, 76, 0
8, 59280, Note_on_c, 14, 57, 0
8, 59280, Note_on_c, 14, 69, 0
8, 59280, Note_on_c, 14, 73, 0
8, 59280, Note_on_c, 14, 57, 100
8, 59290, Note_on_c, 14, 69, 100
8, 59300, Note_on_c, 14, 73, 100
8, 59310, Note_on_c, 14, 76, 100
8, 59400, Note_on_c, 14, 76, 0
8, 59400, Note_on_c, 14, 57, 0
8, 59400, Note_on_c, 14, 69, 0
8, 59400, Note_on_c, 14, 73, 0
8, 59400, Note_on_c, 14, 57, 100
8, 59410, Note_on_c, 14, 69, 100
8, 59420, Note_on_c, 14, 73, 100
8, 59430, Note_on_c, 14, 76, 100
8, 59520, Note_on_c, 14, 76, 0
8, 59520, Note_on_c, 14, 57, 0
8, 59520, Note_on_c, 14, 69, 0
8, 59520, Note_on_c, 14, 73, 0
8, 59520, Note_on_c, 14, 55, 100
8, 59530, Note_on_c, 14, 67, 100
8, 59540, Note_on_c, 14, 71, 100
8, 59550, Note_on_c, 14, 76, 100
8, 59640, Note_on_c, 14, 76, 0
8, 59640, Note_on_c, 14, 55, 0
8, 59640, Note_on_c, 14, 67, 0
8, 59640, Note_on_c, 14, 71, 0
8, 59640, Note_on_c, 14, 55, 100
8, 59650, Note_on_c, 14, 67, 100
8, 59660, Note_on_c, 14, 71, 100
8, 59670, Note_on_c, 14, 76, 100
8, 59760, Note_on_c, 14, 76, 0
8, 59760, Note_on_c, 14, 55, 0
8, 59760, Note_on_c, 14, 67, 0
8, 59760, Note_on_c, 14, 71, 0
8, 59760, Note_on_c, 14, 52, 100
8, 59770, Note_on_c, 14, 64, 100
8, 59780, Note_on_c, 14, 68, 100
8, 59790, Note_on_c, 14, 76, 100
8, 59820, Note_on_c, 14, 76, 0
8, 59820, Note_on_c, 14, 52, 0
8, 59820, Note_on_c, 14, 64, 0
8, 59820, Note_on_c, 14, 68, 0
8, 59820, Note_on_c, 14, 52, 100
8, 59830, Note_on_c, 14, 64, 100
8, 59840, Note_on_c, 14, 68, 100
8, 59850, Note_on_c, 14, 76, 100
8, 59880, Note_on_c, 14, 76, 0
8, 59880, Note_on_c, 14, 52, 0
8, 59880, Note_on_c, 14, 64, 0
8, 59880, Note_on_c, 14, 68, 0
8, 59880, Note_on_c, 14, 52, 100
8, 59890, Note_on_c, 14, 64, 100
8, 59900, Note_on_c, 14, 68, 100
8, 59910, Note_on_c, 14, 76, 100
8, 59940, Note_on_c, 14, 76, 0
8, 59940, Note_on_c, 14, 52, 0
8, 59940, Note_on_c, 14, 64, 0
8, 59940, Note_on_c, 14, 68, 0
8, 59940, Note_on_c, 14, 52, 100
8, 59950, Note_on_c, 14, 64, 100
8, 59960, Note_on_c, 14, 68, 100
8, 59970, Note_on_c, 14, 76, 100
8, 60060, Note_on_c, 14, 76, 0
8, 60060, Note_on_c, 14, 52, 0
8, 60060, Note_on_c, 14, 64, 0
8, 60060, Note_on_c, 14, 68, 0
8, 60060, Note_on_c, 14, 52, 100
8, 60070, Note_on_c, 14, 64, 100
8, 60080, Note_on_c, 14, 68, 100
8, 60090, Note_on_c, 14, 76, 100
8, 60180, Note_on_c, 14, 76, 0
8, 60180, Note_on_c, 14, 52, 0
8, 60180, Note_on_c, 14, 64, 0
8, 60180, Note_on_c, 14, 68, 0
8, 60180, Note_on_c, 14, 52, 100
8, 60190, Note_on_c, 14, 64, 100
8, 60200, Note_on_c, 14, 68, 100
8, 60210, Note_on_c, 14, 76, 100
8, 60240, Note_on_c, 14, 76, 0
8, 60240, Note_on_c, 14, 52, 0
8, 60240, Note_on_c, 14, 64, 0
8, 60240, Note_on_c, 14, 68, 0
8, 60240, Note_on_c, 14, 52, 100
8, 60250, Note_on_c, 14, 64, 100
8, 60260, Note_on_c, 14, 68, 100
8, 60270, Note_on_c, 14, 76, 100
8, 60300, Note_on_c, 14, 76, 0
8, 60300, Note_on_c, 14, 52, 0
8, 60300, Note_on_c, 14, 64, 0
8, 60300, Note_on_c, 14, 68, 0
8, 60300, Note_on_c, 14, 52, 100
8, 60310, Note_on_c, 14, 64, 100
8, 60320, Note_on_c, 14, 68, 100
8, 60330, Note_on_c, 14, 76, 100
8, 60360, Note_on_c, 14, 76, 0
8, 60360, Note_on_c, 14, 52, 0
8, 60360, Note_on_c, 14, 64, 0
8, 60360, Note_on_c, 14, 68, 0
8, 60360, Note_on_c, 14, 52, 100
8, 60370, Note_on_c, 14, 64, 100
8, 60380, Note_on_c, 14, 68, 100
8, 60390, Note_on_c, 14, 76, 100
8, 60420, Note_on_c, 14, 76, 0
8, 60420, Note_on_c, 14, 52, 0
8, 60420, Note_on_c, 14, 64, 0
8, 60420, Note_on_c, 14, 68, 0
8, 60420, Note_on_c, 14, 52, 100
8, 60430, Note_on_c, 14, 64, 100
8, 60440, Note_on_c, 14, 68, 100
8, 60450, Note_on_c, 14, 76, 100
8, 60480, Note_on_c, 14, 76, 0
8, 60480, Note_on_c, 14, 52, 0
8, 60480, Note_on_c, 14, 64, 0
8, 60480, Note_on_c, 14, 68, 0
8, 60480, Note_on_c, 14, 52, 100
8, 60490, Note_on_c, 14, 64, 100
8, 60500, Note_on_c, 14, 68, 100
8, 60510, Note_on_c, 14, 76, 100
8, 60540, Note_on_c, 14, 76, 0
8, 60540, Note_on_c, 14, 52, 0
8, 60540, Note_on_c, 14, 64, 0
8, 60540, Note_on_c, 14, 68, 0
8, 60540, Note_on_c, 14, 52, 100
8, 60550, Note_on_c, 14, 64, 100
8, 60560, Note_on_c, 14, 68, 100
8, 60570, Note_on_c, 14, 76, 100
8, 60600, Note_on_c, 14, 76, 0
8, 60600, Note_on_c, 14, 52, 0
8, 60600, Note_on_c, 14, 64, 0
8, 60600, Note_on_c, 14, 68, 0
8, 60600, Note_on_c, 14, 52, 100
8, 60610, Note_on_c, 14, 64, 100
8, 60620, Note_on_c, 14, 68, 100
8, 60630, Note_on_c, 14, 76, 100
8, 60720, Note_on_c, 14, 76, 0
8, 60720, Note_on_c, 14, 52, 0
8, 60720, Note_on_c, 14, 64, 0
8, 60720, Note_on_c, 14, 68, 0
8, 60720, Note_on_c, 14, 57, 100
8, 60730, Note_on_c, 14, 69, 100
8, 60740, Note_on_c, 14, 73, 100
8, 60750, Note_on_c, 14, 76, 100
8, 60780, Note_on_c, 14, 76, 0
8, 60780, Note_on_c, 14, 57, 0
8, 60780, Note_on_c, 14, 69, 0
8, 60780, Note_on_c, 14, 73, 0
8, 60780, Note_on_c, 14, 57, 100
8, 60790, Note_on_c, 14, 69, 100
8, 60800, Note_on_c, 14, 73, 100
8, 60810, Note_on_c, 14, 76, 100
8, 60840, Note_on_c, 14, 76, 0
8, 60840, Note_on_c, 14, 57, 0
8, 60840, Note_on_c, 14, 69, 0
8, 60840, Note_on_c, 14, 73, 0
8, 60840, Note_on_c, 14, 57, 100
8, 60850, Note_on_c, 14, 69, 100
8, 60860, Note_on_c, 14, 73, 100
8, 60870, Note_on_c, 14, 76, 100
8, 60900, Note_on_c, 14, 76, 0
8, 60900, Note_on_c, 14, 57, 0
8, 60900, Note_on_c, 14, 69, 0
8, 60900, Note_on_c, 14, 73, 0
8, 60900, Note_on_c, 14, 57, 100
8, 60910, Note_on_c, 14, 69, 100
8, 60920, Note_on_c, 14, 73, 100
8, 60930, Note_on_c, 14, 76, 100
8, 61020, Note_on_c, 14, 76, 0
8, 61020, Note_on_c, 14, 57, 0
8, 61020, Note_on_c, 14, 69, 0
8, 61020, Note_on_c, 14, 73, 0
8, 61020, Note_on_c, 14, 57, 100
8, 61030, Note_on_c, 14, 69, 100
8, 61040, Note_on_c, 14, 73, 100
8, 61050, Note_on_c, 14, 76, 100
8, 61080, Note_on_c, 14, 76, 0
8, 61080, Note_on_c, 14, 57, 0
8, 61080, Note_on_c, 14, 69, 0
8, 61080, Note_on_c, 14, 73, 0
8, 61080, Note_on_c, 14, 57, 100
8, 61090, Note_on_c, 14, 69, 100
8, 61100, Note_on_c, 14, 73, 100
8, 61110, Note_on_c, 14, 76, 100
8, 61140, Note_on_c, 14, 76, 0
8, 61140, Note_on_c, 14, 57, 0
8, 61140, Note_on_c, 14, 69, 0
8, 61140, Note_on_c, 14, 73, 0
8, 61140, Note_on_c, 14, 57, 100
8, 61150, Note_on_c, 14, 69, 100
8, 61160, Note_on_c, 14, 73, 100
8, 61170, Note_on_c, 14, 76, 100
8, 61200, Note_on_c, 14, 76, 0
8, 61200, Note_on_c, 14, 57, 0
8, 61200, Note_on_c, 14, 69, 0
8, 61200, Note_on_c, 14, 73, 0
8, 61200, Note_on_c, 14, 57, 100
8, 61210, Note_on_c, 14, 69, 100
8, 61220, Note_on_c, 14, 73, 100
8, 61230, Note_on_c, 14, 76, 100
8, 61320, Note_on_c, 14, 76, 0
8, 61320, Note_on_c, 14, 57, 0
8, 61320, Note_on_c, 14, 69, 0
8, 61320, Note_on_c, 14, 73, 0
8, 61320, Note_on_c, 14, 57, 100
8, 61330, Note_on_c, 14, 69, 100
8, 61340, Note_on_c, 14, 73, 100
8, 61350, Note_on_c, 14, 76, 100
8, 61440, Note_on_c, 14, 76, 0
8, 61440, Note_on_c, 14, 57, 0
8, 61440, Note_on_c, 14, 69, 0
8, 61440, Note_on_c, 14, 73, 0
8, 61440, Note_on_c, 14, 55, 100
8, 61450, Note_on_c, 14, 67, 100
8, 61460, Note_on_c, 14, 71, 100
8, 61470, Note_on_c, 14, 76, 100
8, 61560, Note_on_c, 14, 76, 0
8, 61560, Note_on_c, 14, 55, 0
8, 61560, Note_on_c, 14, 67, 0
8, 61560, Note_on_c, 14, 71, 0
8, 61560, Note_on_c, 14, 55, 100
8, 61570, Note_on_c, 14, 67, 100
8, 61580, Note_on_c, 14, 71, 100
8, 61590, Note_on_c, 14, 76, 100
8, 61680, Note_on_c, 14, 76, 0
8, 61680, Note_on_c, 14, 55, 0
8, 61680, Note_on_c, 14, 67, 0
8, 61680, Note_on_c, 14, 71, 0
8, 61680, Note_on_c, 14, 52, 100
8, 61690, Note_on_c, 14, 64, 100
8, 61700, Note_on_c, 14, 68, 100
8, 61710, Note_on_c, 14, 76, 100
8, 61740, Note_on_c, 14, 76, 0
8, 61740, Note_on_c, 14, 52, 0
8, 61740, Note_on_c, 14, 64, 0
8, 61740, Note_on_c, 14, 68, 0
8, 61740, Note_on_c, 14, 52, 100
8, 61750, Note_on_c, 14, 64, 100
8, 61760, Note_on_c, 14, 68, 100
8, 61770, Note_on_c, 14, 76, 100
8, 61800, Note_on_c, 14, 76, 0
8, 61800, Note_on_c, 14, 52, 0
8, 61800, Note_on_c, 14, 64, 0
8, 61800, Note_on_c, 14, 68, 0
8, 61800, Note_on_c, 14, 52, 100
8, 61810, Note_on_c, 14, 64, 100
8, 61820, Note_on_c, 14, 68, 100
8, 61830, Note_on_c, 14, 76, 100
8, 61860, Note_on_c, 14, 76, 0
8, 61860, Note_on_c, 14, 52, 0
8, 61860, Note_on_c, 14, 64, 0
8, 61860, Note_on_c, 14, 68, 0
8, 61860, Note_on_c, 14, 52, 100
8, 61870, Note_on_c, 14, 64, 100
8, 61880, Note_on_c, 14, 68, 100
8, 61890, Note_on_c, 14, 76, 100
8, 61980, Note_on_c, 14, 76, 0
8, 61980, Note_on_c, 14, 52, 0
8, 61980, Note_on_c, 14, 64, 0
8, 61980, Note_on_c, 14, 68, 0
8, 61980, Note_on_c, 14, 52, 100
8, 61990, Note_on_c, 14, 64, 100
8, 62000, Note_on_c, 14, 68, 100
8, 62010, Note_on_c, 14, 76, 100
8, 62100, Note_on_c, 14, 76, 0
8, 62100, Note_on_c, 14, 52, 0
8, 62100, Note_on_c, 14, 64, 0
8, 62100, Note_on_c, 14, 68, 0
8, 62100, Note_on_c, 14, 52, 100
8, 62110, Note_on_c, 14, 64, 100
8, 62120, Note_on_c, 14, 68, 100
8, 62130, Note_on_c, 14, 76, 100
8, 62160, Note_on_c, 14, 76, 0
8, 62160, Note_on_c, 14, 52, 0
8, 62160, Note_on_c, 14, 64, 0
8, 62160, Note_on_c, 14, 68, 0
8, 62160, Note_on_c, 14, 52, 100
8, 62170, Note_on_c, 14, 64, 100
8, 62180, Note_on_c, 14, 68, 100
8, 62190, Note_on_c, 14, 76, 100
8, 62220, Note_on_c, 14, 76, 0
8, 62220, Note_on_c, 14, 52, 0
8, 62220, Note_on_c, 14, 64, 0
8, 62220, Note_on_c, 14, 68, 0
8, 62220, Note_on_c, 14, 52, 100
8, 62230, Note_on_c, 14, 64, 100
8, 62240, Note_on_c, 14, 68, 100
8, 62250, Note_on_c, 14, 76, 100
8, 62280, Note_on_c, 14, 76, 0
8, 62280, Note_on_c, 14, 52, 0
8, 62280, Note_on_c, 14, 64, 0
8, 62280, Note_on_c, 14, 68, 0
8, 62280, Note_on_c, 14, 52, 100
8, 62290, Note_on_c, 14, 64, 100
8, 62300, Note_on_c, 14, 68, 100
8, 62310, Note_on_c, 14, 76, 100
8, 62340, Note_on_c, 14, 76, 0
8, 62340, Note_on_c, 14, 52, 0
8, 62340, Note_on_c, 14, 64, 0
8, 62340, Note_on_c, 14, 68, 0
8, 62340, Note_on_c, 14, 52, 100
8, 62350, Note_on_c, 14, 64, 100
8, 62360, Note_on_c, 14, 68, 100
8, 62370, Note_on_c, 14, 76, 100
8, 62400, Note_on_c, 14, 76, 0
8, 62400, Note_on_c, 14, 52, 0
8, 62400, Note_on_c, 14, 64, 0
8, 62400, Note_on_c, 14, 68, 0
8, 62400, Note_on_c, 14, 52, 100
8, 62410, Note_on_c, 14, 64, 100
8, 62420, Note_on_c, 14, 68, 100
8, 62430, Note_on_c, 14, 76, 100
8, 62460, Note_on_c, 14, 76, 0
8, 62460, Note_on_c, 14, 52, 0
8, 62460, Note_on_c, 14, 64, 0
8, 62460, Note_on_c, 14, 68, 0
8, 62460, Note_on_c, 14, 52, 100
8, 62470, Note_on_c, 14, 64, 100
8, 62480, Note_on_c, 14, 68, 100
8, 62490, Note_on_c, 14, 76, 100
8, 62520, Note_on_c, 14, 76, 0
8, 62520, Note_on_c, 14, 52, 0
8, 62520, Note_on_c, 14, 64, 0
8, 62520, Note_on_c, 14, 68, 0
8, 62520, Note_on_c, 14, 52, 100
8, 62530, Note_on_c, 14, 64, 100
8, 62540, Note_on_c, 14, 68, 100
8, 62550, Note_on_c, 14, 76, 100
8, 62640, Note_on_c, 14, 76, 0
8, 62640, Note_on_c, 14, 52, 0
8, 62640, Note_on_c, 14, 64, 0
8, 62640, Note_on_c, 14, 68, 0
8, 62640, Note_on_c, 14, 57, 100
8, 62650, Note_on_c, 14, 69, 100
8, 62660, Note_on_c, 14, 73, 100
8, 62670, Note_on_c, 14, 76, 100
8, 62700, Note_on_c, 14, 76, 0
8, 62700, Note_on_c, 14, 57, 0
8, 62700, Note_on_c, 14, 69, 0
8, 62700, Note_on_c, 14, 73, 0
8, 62700, Note_on_c, 14, 57, 100
8, 62710, Note_on_c, 14, 69, 100
8, 62720, Note_on_c, 14, 73, 100
8, 62730, Note_on_c, 14, 76, 100
8, 62760, Note_on_c, 14, 76, 0
8, 62760, Note_on_c, 14, 57, 0
8, 62760, Note_on_c, 14, 69, 0
8, 62760, Note_on_c, 14, 73, 0
8, 62760, Note_on_c, 14, 57, 100
8, 62770, Note_on_c, 14, 69, 100
8, 62780, Note_on_c, 14, 73, 100
8, 62790, Note_on_c, 14, 76, 100
8, 62820, Note_on_c, 14, 76, 0
8, 62820, Note_on_c, 14, 57, 0
8, 62820, Note_on_c, 14, 69, 0
8, 62820, Note_on_c, 14, 73, 0
8, 62820, Note_on_c, 14, 57, 100
8, 62830, Note_on_c, 14, 69, 100
8, 62840, Note_on_c, 14, 73, 100
8, 62850, Note_on_c, 14, 76, 100
8, 62940, Note_on_c, 14, 76, 0
8, 62940, Note_on_c, 14, 57, 0
8, 62940, Note_on_c, 14, 69, 0
8, 62940, Note_on_c, 14, 73, 0
8, 62940, Note_on_c, 14, 57, 100
8, 62950, Note_on_c, 14, 69, 100
8, 62960, Note_on_c, 14, 73, 100
8, 62970, Note_on_c, 14, 76, 100
8, 63000, Note_on_c, 14, 76, 0
8, 63000, Note_on_c, 14, 57, 0
8, 63000, Note_on_c, 14, 69, 0
8, 63000, Note_on_c, 14, 73, 0
8, 63000, Note_on_c, 14, 57, 100
8, 63010, Note_on_c, 14, 69, 100
8, 63020, Note_on_c, 14, 73, 100
8, 63030, Note_on_c, 14, 76, 100
8, 63060, Note_on_c, 14, 76, 0
8, 63060, Note_on_c, 14, 57, 0
8, 63060, Note_on_c, 14, 69, 0
8, 63060, Note_on_c, 14, 73, 0
8, 63060, Note_on_c, 14, 57, 100
8, 63070, Note_on_c, 14, 69, 100
8, 63080, Note_on_c, 14, 73, 100
8, 63090, Note_on_c, 14, 76, 100
8, 63120, Note_on_c, 14, 76, 0
8, 63120, Note_on_c, 14, 57, 0
8, 63120, Note_on_c, 14, 69, 0
8, 63120, Note_on_c, 14, 73, 0
8, 63120, Note_on_c, 14, 57, 100
8, 63130, Note_on_c, 14, 69, 100
8, 63140, Note_on_c, 14, 73, 100
8, 63150, Note_on_c, 14, 76, 100
8, 63240, Note_on_c, 14, 76, 0
8, 63240, Note_on_c, 14, 57, 0
8, 63240, Note_on_c, 14, 69, 0
8, 63240, Note_on_c, 14, 73, 0
8, 63240, Note_on_c, 14, 57, 100
8, 63250, Note_on_c, 14, 69, 100
8, 63260, Note_on_c, 14, 73, 100
8, 63270, Note_on_c, 14, 76, 100
8, 63360, Note_on_c, 14, 76, 0
8, 63360, Note_on_c, 14, 57, 0
8, 63360, Note_on_c, 14, 69, 0
8, 63360, Note_on_c, 14, 73, 0
8, 63360, Note_on_c, 14, 55, 100
8, 63370, Note_on_c, 14, 67, 100
8, 63380, Note_on_c, 14, 71, 100
8, 63390, Note_on_c, 14, 76, 100
8, 63480, Note_on_c, 14, 76, 0
8, 63480, Note_on_c, 14, 55, 0
8, 63480, Note_on_c, 14, 67, 0
8, 63480, Note_on_c, 14, 71, 0
8, 63480, Note_on_c, 14, 55, 100
8, 63490, Note_on_c, 14, 67, 100
8, 63500, Note_on_c, 14, 71, 100
8, 63510, Note_on_c, 14, 76, 100
8, 63600, Note_on_c, 14, 76, 0
8, 63600, Note_on_c, 14, 55, 0
8, 63600, Note_on_c, 14, 67, 0
8, 63600, Note_on_c, 14, 71, 0
8, 63600, End_track
9, 0, Start_track
9, 0, MIDI_port, 0
9, 0, Title_t, "Secondary Back Vocals"
9, 0, Program_c, 12, 81
9, 0, Control_c, 12, 7, 127
9, 0, Control_c, 12, 10, 30
9, 87480, Note_on_c, 12, 79, 107
9, 87840, Note_on_c, 12, 79, 0
9, 87840, Note_on_c, 12, 76, 107
9, 87960, Note_on_c, 12, 76, 0
9, 87960, Note_on_c, 12, 74, 107
9, 88080, Note_on_c, 12, 74, 0
9, 88080, Note_on_c, 12, 76, 107
9, 88440, Note_on_c, 12, 76, 0
9, 88440, Note_on_c, 12, 76, 107
9, 88680, Note_on_c, 12, 76, 0
9, 88680, Note_on_c, 12, 74, 107
9, 88800, Note_on_c, 12, 74, 0
9, 88800, Note_on_c, 12, 76, 107
9, 89040, Note_on_c, 12, 76, 0
9, 89400, Note_on_c, 12, 79, 107
9, 89760, Note_on_c, 12, 79, 0
9, 89760, Note_on_c, 12, 76, 107
9, 89880, Note_on_c, 12, 76, 0
9, 89880, Note_on_c, 12, 74, 107
9, 90000, Note_on_c, 12, 74, 0
9, 90000, Note_on_c, 12, 76, 107
9, 90360, Note_on_c, 12, 76, 0
9, 90360, Note_on_c, 12, 76, 107
9, 90720, Note_on_c, 12, 76, 0
9, 90720, Note_on_c, 12, 81, 107
9, 90840, Note_on_c, 12, 81, 0
9, 90840, Note_on_c, 12, 79, 107
9, 91920, Note_on_c, 12, 79, 0
9, 93240, Note_on_c, 12, 79, 107
9, 93600, Note_on_c, 12, 79, 0
9, 93600, Note_on_c, 12, 76, 107
9, 93720, Note_on_c, 12, 76, 0
9, 93720, Note_on_c, 12, 74, 107
9, 93840, Note_on_c, 12, 74, 0
9, 93840, Note_on_c, 12, 76, 107
9, 94200, Note_on_c, 12, 76, 0
9, 94200, Note_on_c, 12, 76, 107
9, 94560, Note_on_c, 12, 76, 0
9, 94560, Note_on_c, 12, 81, 107
9, 94680, Note_on_c, 12, 81, 0
9, 94680, Note_on_c, 12, 79, 107
9, 95880, Note_on_c, 12, 79, 0
9, 95880, End_track
10, 0, Start_track
10, 0, MIDI_port, 0
10, 0, Title_t, "Overdriven Guitar ""solo"""
10, 0, Program_c, 10, 29
10, 0, Control_c, 10, 7, 110
10, 0, Control_c, 10, 10, 61
10, 0, Control_c, 10, 101, 0
10, 0, Control_c, 10, 100, 0
10, 0, Control_c, 10, 6, 32
10, 0, Control_c, 10, 38, 0
10, 121920, Control_c, 10, 64, 0
10, 124440, Note_on_c, 10, 69, 120
10, 124500, Note_on_c, 10, 69, 0
10, 124558, Control_c, 10, 1, 31
10, 124560, Note_on_c, 10, 71, 120
10, 124680, Note_on_c, 10, 71, 0
10, 124680, Note_on_c, 10, 71, 120
10, 124800, Note_on_c, 10, 71, 0
10, 124800, Note_on_c, 10, 71, 120
10, 124920, Note_on_c, 10, 71, 0
10, 124920, Note_on_c, 10, 71, 120
10, 125040, Note_on_c, 10, 71, 0
10, 125040, Note_on_c, 10, 69, 120
10, 125280, Note_on_c, 10, 69, 0
10, 125280, Note_on_c, 10, 67, 120
10, 125400, Note_on_c, 10, 67, 0
10, 125400, Note_on_c, 10, 71, 120
10, 125520, Note_on_c, 10, 71, 0
10, 125640, Note_on_c, 10, 67, 120
10, 125760, Note_on_c, 10, 67, 0
10, 125760, Note_on_c, 10, 69, 120
10, 125880, Note_on_c, 10, 69, 0
10, 125880, Note_on_c, 10, 71, 120
10, 126360, Note_on_c, 10, 71, 0
10, 126360, Note_on_c, 10, 69, 120
10, 126480, Note_on_c, 10, 69, 0
10, 126480, Note_on_c, 10, 71, 120
10, 126600, Note_on_c, 10, 71, 0
10, 126600, Note_on_c, 10, 71, 120
10, 126720, Note_on_c, 10, 71, 0
10, 126720, Note_on_c, 10, 71, 120
10, 126840, Note_on_c, 10, 71, 0
10, 126840, Note_on_c, 10, 71, 120
10, 126960, Note_on_c, 10, 71, 0
10, 126960, Note_on_c, 10, 69, 120
10, 127200, Note_on_c, 10, 69, 0
10, 127200, Note_on_c, 10, 67, 120
10, 127320, Note_on_c, 10, 67, 0
10, 127320, Note_on_c, 10, 71, 120
10, 127380, Note_on_c, 10, 71, 0
10, 127380, Note_on_c, 10, 69, 120
10, 127440, Note_on_c, 10, 69, 0
10, 127440, Note_on_c, 10, 67, 120
10, 127620, Note_on_c, 10, 67, 0
10, 127620, Note_on_c, 10, 64, 120
10, 128280, Note_on_c, 10, 64, 0
10, 128400, Note_on_c, 10, 71, 120
10, 128580, Note_on_c, 10, 71, 0
10, 128580, Note_on_c, 10, 71, 120
10, 128640, Note_on_c, 10, 71, 0
10, 128640, Note_on_c, 10, 71, 120
10, 128760, Note_on_c, 10, 71, 0
10, 128760, Note_on_c, 10, 71, 120
10, 128880, Note_on_c, 10, 71, 0
10, 128880, Note_on_c, 10, 69, 120
10, 129120, Note_on_c, 10, 69, 0
10, 129120, Note_on_c, 10, 67, 120
10, 129240, Note_on_c, 10, 67, 0
10, 129240, Note_on_c, 10, 71, 120
10, 129360, Note_on_c, 10, 71, 0
10, 129480, Note_on_c, 10, 67, 120
10, 129600, Note_on_c, 10, 67, 0
10, 129600, Note_on_c, 10, 69, 120
10, 129720, Note_on_c, 10, 69, 0
10, 129720, Note_on_c, 10, 71, 120
10, 130200, Note_on_c, 10, 71, 0
10, 130200, Note_on_c, 10, 69, 120
10, 130320, Note_on_c, 10, 69, 0
10, 130320, Note_on_c, 10, 71, 120
10, 130440, Note_on_c, 10, 71, 0
10, 130440, Note_on_c, 10, 71, 120
10, 130560, Note_on_c, 10, 71, 0
10, 130560, Note_on_c, 10, 71, 120
10, 130680, Note_on_c, 10, 71, 0
10, 130680, Note_on_c, 10, 71, 120
10, 130800, Note_on_c, 10, 71, 0
10, 130800, Note_on_c, 10, 69, 120
10, 131040, Note_on_c, 10, 69, 0
10, 131040, Note_on_c, 10, 67, 120
10, 131160, Note_on_c, 10, 67, 0
10, 131160, Note_on_c, 10, 71, 120
10, 131280, Note_on_c, 10, 71, 0
10, 131400, Note_on_c, 10, 67, 120
10, 131520, Note_on_c, 10, 67, 0
10, 131520, Note_on_c, 10, 69, 120
10, 131640, Note_on_c, 10, 69, 0
10, 131640, Note_on_c, 10, 67, 120
10, 131760, Note_on_c, 10, 67, 0
10, 131760, Note_on_c, 10, 64, 120
10, 132120, Note_on_c, 10, 64, 0
10, 132120, Note_on_c, 10, 69, 120
10, 132240, Note_on_c, 10, 69, 0
10, 132240, Note_on_c, 10, 70, 120
10, 132360, Note_on_c, 10, 70, 0
10, 132360, Note_on_c, 10, 69, 120
10, 132480, Note_on_c, 10, 69, 0
10, 132480, Note_on_c, 10, 70, 120
10, 132600, Note_on_c, 10, 70, 0
10, 132600, Note_on_c, 10, 69, 120
10, 132720, Note_on_c, 10, 69, 0
10, 132720, Note_on_c, 10, 70, 120
10, 132840, Note_on_c, 10, 70, 0
10, 132840, Note_on_c, 10, 69, 120
10, 132960, Note_on_c, 10, 69, 0
10, 132960, Note_on_c, 10, 67, 120
10, 133080, Note_on_c, 10, 67, 0
10, 133080, Note_on_c, 10, 64, 120
10, 133080, Pitch_bend_c, 10, 8192
10, 133200, Pitch_bend_c, 10, 8214
10, 133203, Pitch_bend_c, 10, 8192
10, 133217, Pitch_bend_c, 10, 8170
10, 133224, Pitch_bend_c, 10, 8147
10, 133244, Pitch_bend_c, 10, 8125
10, 133257, Pitch_bend_c, 10, 8103
10, 133278, Pitch_bend_c, 10, 8081
10, 133285, Pitch_bend_c, 10, 8058
10, 133288, Pitch_bend_c, 10, 8036
10, 133295, Pitch_bend_c, 10, 8014
10, 133308, Pitch_bend_c, 10, 7992
10, 133315, Pitch_bend_c, 10, 7969
10, 133328, Pitch_bend_c, 10, 7947
10, 133339, Pitch_bend_c, 10, 7925
10, 133349, Pitch_bend_c, 10, 7903
10, 133352, Pitch_bend_c, 10, 7880
10, 133366, Pitch_bend_c, 10, 7858
10, 133386, Pitch_bend_c, 10, 7836
10, 133426, Pitch_bend_c, 10, 7814
10, 133447, Pitch_bend_c, 10, 7791
10, 133474, Pitch_bend_c, 10, 7769
10, 133487, Pitch_bend_c, 10, 7747
10, 133494, Pitch_bend_c, 10, 7725
10, 133497, Pitch_bend_c, 10, 7702
10, 133501, Pitch_bend_c, 10, 7680
10, 133511, Pitch_bend_c, 10, 7658
10, 133579, Pitch_bend_c, 10, 7613
10, 133606, Pitch_bend_c, 10, 7591
10, 133616, Pitch_bend_c, 10, 7569
10, 133639, Pitch_bend_c, 10, 7546
10, 133680, Pitch_bend_c, 10, 7524
10, 133792, Pitch_bend_c, 10, 7546
10, 133812, Pitch_bend_c, 10, 7569
10, 133825, Pitch_bend_c, 10, 7591
10, 133835, Pitch_bend_c, 10, 7613
10, 133842, Pitch_bend_c, 10, 7635
10, 133849, Pitch_bend_c, 10, 7658
10, 133863, Pitch_bend_c, 10, 7680
10, 133873, Pitch_bend_c, 10, 7702
10, 133879, Pitch_bend_c, 10, 7725
10, 133890, Pitch_bend_c, 10, 7747
10, 133893, Pitch_bend_c, 10, 7769
10, 133903, Pitch_bend_c, 10, 7791
10, 133913, Pitch_bend_c, 10, 7814
10, 133934, Pitch_bend_c, 10, 7836
10, 133944, Pitch_bend_c, 10, 7858
10, 133954, Pitch_bend_c, 10, 7880
10, 133961, Pitch_bend_c, 10, 7903
10, 133971, Pitch_bend_c, 10, 7925
10, 133977, Pitch_bend_c, 10, 7947
10, 133984, Pitch_bend_c, 10, 7969
10, 133998, Pitch_bend_c, 10, 7992
10, 134015, Pitch_bend_c, 10, 8014
10, 134028, Pitch_bend_c, 10, 8036
10, 134045, Pitch_bend_c, 10, 8081
10, 134062, Pitch_bend_c, 10, 8103
10, 134069, Pitch_bend_c, 10, 8125
10, 134079, Pitch_bend_c, 10, 8147
10, 134086, Pitch_bend_c, 10, 8170
10, 134119, Pitch_bend_c, 10, 8192
10, 134160, Note_on_c, 10, 64, 0
10, 134160, Note_on_c, 10, 40, 105
10, 134280, Note_on_c, 10, 40, 0
10, 134280, Note_on_c, 10, 40, 105
10, 134400, Note_on_c, 10, 40, 0
10, 134400, Note_on_c, 10, 52, 105
10, 134400, Note_on_c, 10, 59, 105
10, 134400, Note_on_c, 10, 64, 105
10, 134400, Note_on_c, 10, 68, 105
10, 134520, Note_on_c, 10, 68, 0
10, 134520, Note_on_c, 10, 52, 0
10, 134520, Note_on_c, 10, 59, 0
10, 134520, Note_on_c, 10, 64, 0
10, 134520, Note_on_c, 10, 52, 105
10, 134520, Note_on_c, 10, 59, 105
10, 134520, Note_on_c, 10, 64, 105
10, 134520, Note_on_c, 10, 68, 105
10, 134640, Note_on_c, 10, 68, 0
10, 134640, Note_on_c, 10, 52, 0
10, 134640, Note_on_c, 10, 59, 0
10, 134640, Note_on_c, 10, 64, 0
10, 134640, Note_on_c, 10, 50, 105
10, 134640, Note_on_c, 10, 57, 105
10, 134640, Note_on_c, 10, 62, 105
10, 134640, Note_on_c, 10, 66, 105
10, 134880, Note_on_c, 10, 66, 0
10, 134880, Note_on_c, 10, 50, 0
10, 134880, Note_on_c, 10, 57, 0
10, 134880, Note_on_c, 10, 62, 0
10, 134880, Note_on_c, 10, 52, 105
10, 134880, Note_on_c, 10, 59, 105
10, 134880, Note_on_c, 10, 64, 105
10, 134880, Note_on_c, 10, 68, 105
10, 135120, Note_on_c, 10, 68, 0
10, 135120, Note_on_c, 10, 52, 0
10, 135120, Note_on_c, 10, 59, 0
10, 135120, Note_on_c, 10, 64, 0
10, 135120, Note_on_c, 10, 40, 105
10, 135240, Note_on_c, 10, 40, 0
10, 135240, Note_on_c, 10, 62, 105
10, 135240, Note_on_c, 10, 67, 105
10, 135360, Note_on_c, 10, 67, 0
10, 135360, Note_on_c, 10, 62, 0
10, 135360, Note_on_c, 10, 64, 105
10, 135360, Note_on_c, 10, 69, 105
10, 135480, Note_on_c, 10, 69, 0
10, 135480, Note_on_c, 10, 64, 0
10, 135480, Note_on_c, 10, 62, 105
10, 135480, Note_on_c, 10, 67, 105
10, 135600, Note_on_c, 10, 67, 0
10, 135600, Note_on_c, 10, 62, 0
10, 135600, Note_on_c, 10, 64, 105
10, 135600, Note_on_c, 10, 69, 105
10, 135720, Note_on_c, 10, 69, 0
10, 135720, Note_on_c, 10, 64, 0
10, 135720, Note_on_c, 10, 62, 105
10, 135720, Note_on_c, 10, 67, 105
10, 135840, Note_on_c, 10, 67, 0
10, 135840, Note_on_c, 10, 62, 0
10, 135840, Note_on_c, 10, 64, 105
10, 135960, Note_on_c, 10, 64, 0
10, 135960, Note_on_c, 10, 62, 105
10, 136080, Note_on_c, 10, 62, 0
10, 136080, End_track
11, 0, Start_track
11, 0, MIDI_port, 0
11, 0, Title_t, "Drums"
11, 0, Program_c, 9, 0
11, 0, Control_c, 9, 7, 127
11, 0, Control_c, 9, 10, 64
11, 0, Note_on_c, 9, 35, 127
11, 0, Note_on_c, 9, 46, 107
11, 60, Note_on_c, 9, 46, 0
11, 60, Note_on_c, 9, 35, 0
11, 60, Note_on_c, 9, 36, 127
11, 120, Note_on_c, 9, 36, 0
11, 120, Note_on_c, 9, 35, 127
11, 120, Note_on_c, 9, 38, 117
11, 180, Note_on_c, 9, 38, 0
11, 180, Note_on_c, 9, 35, 0
11, 180, Note_on_c, 9, 36, 127
11, 180, Note_on_c, 9, 38, 117
11, 240, Note_on_c, 9, 38, 0
11, 240, Note_on_c, 9, 36, 0
11, 240, Note_on_c, 9, 35, 127
11, 240, Note_on_c, 9, 46, 107
11, 300, Note_on_c, 9, 46, 0
11, 300, Note_on_c, 9, 35, 0
11, 300, Note_on_c, 9, 36, 127
11, 360, Note_on_c, 9, 36, 0
11, 360, Note_on_c, 9, 35, 127
11, 360, Note_on_c, 9, 38, 117
11, 420, Note_on_c, 9, 38, 0
11, 420, Note_on_c, 9, 35, 0
11, 420, Note_on_c, 9, 36, 127
11, 480, Note_on_c, 9, 36, 0
11, 480, Note_on_c, 9, 35, 127
11, 480, Note_on_c, 9, 46, 107
11, 540, Note_on_c, 9, 46, 0
11, 540, Note_on_c, 9, 35, 0
11, 540, Note_on_c, 9, 36, 127
11, 600, Note_on_c, 9, 36, 0
11, 600, Note_on_c, 9, 35, 127
11, 600, Note_on_c, 9, 38, 117
11, 660, Note_on_c, 9, 38, 0
11, 660, Note_on_c, 9, 35, 0
11, 660, Note_on_c, 9, 36, 127
11, 720, Note_on_c, 9, 36, 0
11, 720, Note_on_c, 9, 35, 127
11, 720, Note_on_c, 9, 46, 107
11, 780, Note_on_c, 9, 46, 0
11, 780, Note_on_c, 9, 35, 0
11, 780, Note_on_c, 9, 36, 127
11, 780, Note_on_c, 9, 38, 117
11, 840, Note_on_c, 9, 38, 0
11, 840, Note_on_c, 9, 36, 0
11, 840, Note_on_c, 9, 35, 127
11, 840, Note_on_c, 9, 38, 117
11, 900, Note_on_c, 9, 38, 0
11, 900, Note_on_c, 9, 35, 0
11, 900, Note_on_c, 9, 36, 127
11, 960, Note_on_c, 9, 36, 0
11, 960, Note_on_c, 9, 35, 127
11, 960, Note_on_c, 9, 46, 107
11, 1020, Note_on_c, 9, 46, 0
11, 1020, Note_on_c, 9, 35, 0
11, 1020, Note_on_c, 9, 36, 127
11, 1080, Note_on_c, 9, 36, 0
11, 1080, Note_on_c, 9, 35, 127
11, 1080, Note_on_c, 9, 38, 117
11, 1140, Note_on_c, 9, 38, 0
11, 1140, Note_on_c, 9, 35, 0
11, 1140, Note_on_c, 9, 36, 127
11, 1140, Note_on_c, 9, 38, 117
11, 1200, Note_on_c, 9, 38, 0
11, 1200, Note_on_c, 9, 36, 0
11, 1200, Note_on_c, 9, 35, 127
11, 1200, Note_on_c, 9, 46, 107
11, 1260, Note_on_c, 9, 46, 0
11, 1260, Note_on_c, 9, 35, 0
11, 1260, Note_on_c, 9, 36, 127
11, 1320, Note_on_c, 9, 36, 0
11, 1320, Note_on_c, 9, 35, 127
11, 1320, Note_on_c, 9, 38, 117
11, 1380, Note_on_c, 9, 38, 0
11, 1380, Note_on_c, 9, 35, 0
11, 1380, Note_on_c, 9, 36, 127
11, 1440, Note_on_c, 9, 36, 0
11, 1440, Note_on_c, 9, 35, 127
11, 1440, Note_on_c, 9, 46, 107
11, 1500, Note_on_c, 9, 46, 0
11, 1500, Note_on_c, 9, 35, 0
11, 1500, Note_on_c, 9, 36, 127
11, 1500, Note_on_c, 9, 38, 117
11, 1560, Note_on_c, 9, 38, 0
11, 1560, Note_on_c, 9, 36, 0
11, 1560, Note_on_c, 9, 35, 127
11, 1560, Note_on_c, 9, 38, 117
11, 1620, Note_on_c, 9, 38, 0
11, 1620, Note_on_c, 9, 35, 0
11, 1620, Note_on_c, 9, 36, 127
11, 1680, Note_on_c, 9, 36, 0
11, 1680, Note_on_c, 9, 35, 127
11, 1680, Note_on_c, 9, 46, 107
11, 1740, Note_on_c, 9, 46, 0
11, 1740, Note_on_c, 9, 35, 0
11, 1740, Note_on_c, 9, 36, 127
11, 1740, Note_on_c, 9, 38, 117
11, 1800, Note_on_c, 9, 38, 0
11, 1800, Note_on_c, 9, 36, 0
11, 1800, Note_on_c, 9, 35, 127
11, 1800, Note_on_c, 9, 38, 117
11, 1860, Note_on_c, 9, 38, 0
11, 1860, Note_on_c, 9, 35, 0
11, 1860, Note_on_c, 9, 36, 127
11, 1920, Note_on_c, 9, 36, 0
11, 1920, Note_on_c, 9, 35, 127
11, 1920, Note_on_c, 9, 46, 107
11, 1980, Note_on_c, 9, 46, 0
11, 1980, Note_on_c, 9, 35, 0
11, 1980, Note_on_c, 9, 36, 127
11, 2040, Note_on_c, 9, 36, 0
11, 2040, Note_on_c, 9, 35, 127
11, 2040, Note_on_c, 9, 38, 117
11, 2100, Note_on_c, 9, 38, 0
11, 2100, Note_on_c, 9, 35, 0
11, 2100, Note_on_c, 9, 36, 127
11, 2100, Note_on_c, 9, 38, 117
11, 2160, Note_on_c, 9, 38, 0
11, 2160, Note_on_c, 9, 36, 0
11, 2160, Note_on_c, 9, 35, 127
11, 2160, Note_on_c, 9, 46, 107
11, 2220, Note_on_c, 9, 46, 0
11, 2220, Note_on_c, 9, 35, 0
11, 2220, Note_on_c, 9, 36, 127
11, 2280, Note_on_c, 9, 36, 0
11, 2280, Note_on_c, 9, 35, 127
11, 2280, Note_on_c, 9, 38, 117
11, 2340, Note_on_c, 9, 38, 0
11, 2340, Note_on_c, 9, 35, 0
11, 2340, Note_on_c, 9, 36, 127
11, 2400, Note_on_c, 9, 36, 0
11, 2400, Note_on_c, 9, 35, 127
11, 2400, Note_on_c, 9, 46, 107
11, 2460, Note_on_c, 9, 46, 0
11, 2460, Note_on_c, 9, 35, 0
11, 2460, Note_on_c, 9, 36, 127
11, 2520, Note_on_c, 9, 36, 0
11, 2520, Note_on_c, 9, 35, 127
11, 2520, Note_on_c, 9, 38, 117
11, 2580, Note_on_c, 9, 38, 0
11, 2580, Note_on_c, 9, 35, 0
11, 2580, Note_on_c, 9, 36, 127
11, 2640, Note_on_c, 9, 36, 0
11, 2640, Note_on_c, 9, 35, 127
11, 2640, Note_on_c, 9, 46, 107
11, 2700, Note_on_c, 9, 46, 0
11, 2700, Note_on_c, 9, 35, 0
11, 2700, Note_on_c, 9, 36, 127
11, 2700, Note_on_c, 9, 38, 117
11, 2760, Note_on_c, 9, 38, 0
11, 2760, Note_on_c, 9, 36, 0
11, 2760, Note_on_c, 9, 35, 127
11, 2760, Note_on_c, 9, 38, 117
11, 2820, Note_on_c, 9, 38, 0
11, 2820, Note_on_c, 9, 35, 0
11, 2820, Note_on_c, 9, 36, 127
11, 2880, Note_on_c, 9, 36, 0
11, 2880, Note_on_c, 9, 35, 127
11, 2880, Note_on_c, 9, 46, 107
11, 2940, Note_on_c, 9, 46, 0
11, 2940, Note_on_c, 9, 35, 0
11, 2940, Note_on_c, 9, 36, 127
11, 3000, Note_on_c, 9, 36, 0
11, 3000, Note_on_c, 9, 35, 127
11, 3000, Note_on_c, 9, 38, 117
11, 3060, Note_on_c, 9, 38, 0
11, 3060, Note_on_c, 9, 35, 0
11, 3060, Note_on_c, 9, 36, 127
11, 3060, Note_on_c, 9, 38, 117
11, 3120, Note_on_c, 9, 38, 0
11, 3120, Note_on_c, 9, 36, 0
11, 3120, Note_on_c, 9, 35, 127
11, 3120, Note_on_c, 9, 46, 107
11, 3180, Note_on_c, 9, 46, 0
11, 3180, Note_on_c, 9, 35, 0
11, 3180, Note_on_c, 9, 36, 127
11, 3180, Note_on_c, 9, 38, 117
11, 3240, Note_on_c, 9, 38, 0
11, 3240, Note_on_c, 9, 36, 0
11, 3240, Note_on_c, 9, 35, 127
11, 3240, Note_on_c, 9, 38, 117
11, 3300, Note_on_c, 9, 38, 0
11, 3300, Note_on_c, 9, 35, 0
11, 3300, Note_on_c, 9, 36, 127
11, 3300, Note_on_c, 9, 38, 117
11, 3360, Note_on_c, 9, 38, 0
11, 3360, Note_on_c, 9, 36, 0
11, 3360, Note_on_c, 9, 35, 127
11, 3360, Note_on_c, 9, 38, 117
11, 3390, Note_on_c, 9, 38, 0
11, 3390, Note_on_c, 9, 38, 117
11, 3420, Note_on_c, 9, 38, 0
11, 3420, Note_on_c, 9, 35, 0
11, 3420, Note_on_c, 9, 36, 127
11, 3420, Note_on_c, 9, 38, 117
11, 3450, Note_on_c, 9, 38, 0
11, 3450, Note_on_c, 9, 38, 117
11, 3480, Note_on_c, 9, 38, 0
11, 3480, Note_on_c, 9, 36, 0
11, 3480, Note_on_c, 9, 35, 127
11, 3480, Note_on_c, 9, 38, 117
11, 3540, Note_on_c, 9, 38, 0
11, 3540, Note_on_c, 9, 35, 0
11, 3540, Note_on_c, 9, 36, 127
11, 3540, Note_on_c, 9, 38, 117
11, 3600, Note_on_c, 9, 38, 0
11, 3600, Note_on_c, 9, 36, 0
11, 3600, Note_on_c, 9, 35, 127
11, 3660, Note_on_c, 9, 35, 0
11, 3660, Note_on_c, 9, 36, 127
11, 3660, Note_on_c, 9, 38, 117
11, 3720, Note_on_c, 9, 38, 0
11, 3720, Note_on_c, 9, 36, 0
11, 3720, Note_on_c, 9, 35, 127
11, 3720, Note_on_c, 9, 38, 117
11, 3780, Note_on_c, 9, 38, 0
11, 3780, Note_on_c, 9, 35, 0
11, 3780, Note_on_c, 9, 36, 127
11, 3780, Note_on_c, 9, 38, 117
11, 3840, Note_on_c, 9, 38, 0
11, 3840, Note_on_c, 9, 36, 0
11, 3840, Note_on_c, 9, 35, 127
11, 3840, Note_on_c, 9, 46, 107
11, 3900, Note_on_c, 9, 46, 0
11, 3900, Note_on_c, 9, 35, 0
11, 3900, Note_on_c, 9, 36, 127
11, 3960, Note_on_c, 9, 36, 0
11, 3960, Note_on_c, 9, 35, 127
11, 3960, Note_on_c, 9, 38, 117
11, 4020, Note_on_c, 9, 38, 0
11, 4020, Note_on_c, 9, 35, 0
11, 4020, Note_on_c, 9, 36, 127
11, 4020, Note_on_c, 9, 38, 117
11, 4080, Note_on_c, 9, 38, 0
11, 4080, Note_on_c, 9, 36, 0
11, 4080, Note_on_c, 9, 35, 127
11, 4080, Note_on_c, 9, 46, 107
11, 4140, Note_on_c, 9, 46, 0
11, 4140, Note_on_c, 9, 35, 0
11, 4140, Note_on_c, 9, 36, 127
11, 4200, Note_on_c, 9, 36, 0
11, 4200, Note_on_c, 9, 35, 127
11, 4200, Note_on_c, 9, 38, 117
11, 4260, Note_on_c, 9, 38, 0
11, 4260, Note_on_c, 9, 35, 0
11, 4260, Note_on_c, 9, 36, 127
11, 4320, Note_on_c, 9, 36, 0
11, 4320, Note_on_c, 9, 35, 127
11, 4320, Note_on_c, 9, 46, 107
11, 4380, Note_on_c, 9, 46, 0
11, 4380, Note_on_c, 9, 35, 0
11, 4380, Note_on_c, 9, 36, 127
11, 4440, Note_on_c, 9, 36, 0
11, 4440, Note_on_c, 9, 35, 127
11, 4440, Note_on_c, 9, 38, 117
11, 4500, Note_on_c, 9, 38, 0
11, 4500, Note_on_c, 9, 35, 0
11, 4500, Note_on_c, 9, 36, 127
11, 4560, Note_on_c, 9, 36, 0
11, 4560, Note_on_c, 9, 35, 127
11, 4560, Note_on_c, 9, 46, 107
11, 4620, Note_on_c, 9, 46, 0
11, 4620, Note_on_c, 9, 35, 0
11, 4620, Note_on_c, 9, 36, 127
11, 4620, Note_on_c, 9, 38, 117
11, 4680, Note_on_c, 9, 38, 0
11, 4680, Note_on_c, 9, 36, 0
11, 4680, Note_on_c, 9, 35, 127
11, 4680, Note_on_c, 9, 38, 117
11, 4740, Note_on_c, 9, 38, 0
11, 4740, Note_on_c, 9, 35, 0
11, 4740, Note_on_c, 9, 36, 127
11, 4800, Note_on_c, 9, 36, 0
11, 4800, Note_on_c, 9, 35, 127
11, 4800, Note_on_c, 9, 46, 107
11, 4860, Note_on_c, 9, 46, 0
11, 4860, Note_on_c, 9, 35, 0
11, 4860, Note_on_c, 9, 36, 127
11, 4920, Note_on_c, 9, 36, 0
11, 4920, Note_on_c, 9, 35, 127
11, 4920, Note_on_c, 9, 38, 117
11, 4980, Note_on_c, 9, 38, 0
11, 4980, Note_on_c, 9, 35, 0
11, 4980, Note_on_c, 9, 36, 127
11, 4980, Note_on_c, 9, 38, 117
11, 5040, Note_on_c, 9, 38, 0
11, 5040, Note_on_c, 9, 36, 0
11, 5040, Note_on_c, 9, 35, 127
11, 5040, Note_on_c, 9, 46, 107
11, 5100, Note_on_c, 9, 46, 0
11, 5100, Note_on_c, 9, 35, 0
11, 5100, Note_on_c, 9, 36, 127
11, 5160, Note_on_c, 9, 36, 0
11, 5160, Note_on_c, 9, 35, 127
11, 5160, Note_on_c, 9, 38, 117
11, 5220, Note_on_c, 9, 38, 0
11, 5220, Note_on_c, 9, 35, 0
11, 5220, Note_on_c, 9, 36, 127
11, 5280, Note_on_c, 9, 36, 0
11, 5280, Note_on_c, 9, 35, 127
11, 5280, Note_on_c, 9, 46, 107
11, 5340, Note_on_c, 9, 46, 0
11, 5340, Note_on_c, 9, 35, 0
11, 5340, Note_on_c, 9, 36, 127
11, 5340, Note_on_c, 9, 38, 117
11, 5400, Note_on_c, 9, 38, 0
11, 5400, Note_on_c, 9, 36, 0
11, 5400, Note_on_c, 9, 35, 127
11, 5400, Note_on_c, 9, 38, 117
11, 5460, Note_on_c, 9, 38, 0
11, 5460, Note_on_c, 9, 35, 0
11, 5460, Note_on_c, 9, 36, 127
11, 5520, Note_on_c, 9, 36, 0
11, 5520, Note_on_c, 9, 35, 127
11, 5520, Note_on_c, 9, 46, 107
11, 5580, Note_on_c, 9, 46, 0
11, 5580, Note_on_c, 9, 35, 0
11, 5580, Note_on_c, 9, 36, 127
11, 5580, Note_on_c, 9, 38, 117
11, 5640, Note_on_c, 9, 38, 0
11, 5640, Note_on_c, 9, 36, 0
11, 5640, Note_on_c, 9, 35, 127
11, 5640, Note_on_c, 9, 38, 117
11, 5700, Note_on_c, 9, 38, 0
11, 5700, Note_on_c, 9, 35, 0
11, 5700, Note_on_c, 9, 36, 127
11, 5760, Note_on_c, 9, 36, 0
11, 5760, Note_on_c, 9, 35, 127
11, 5760, Note_on_c, 9, 46, 107
11, 5820, Note_on_c, 9, 46, 0
11, 5820, Note_on_c, 9, 35, 0
11, 5820, Note_on_c, 9, 36, 127
11, 5880, Note_on_c, 9, 36, 0
11, 5880, Note_on_c, 9, 35, 127
11, 5880, Note_on_c, 9, 38, 117
11, 5940, Note_on_c, 9, 38, 0
11, 5940, Note_on_c, 9, 35, 0
11, 5940, Note_on_c, 9, 36, 127
11, 5940, Note_on_c, 9, 38, 117
11, 6000, Note_on_c, 9, 38, 0
11, 6000, Note_on_c, 9, 36, 0
11, 6000, Note_on_c, 9, 35, 127
11, 6000, Note_on_c, 9, 46, 107
11, 6060, Note_on_c, 9, 46, 0
11, 6060, Note_on_c, 9, 35, 0
11, 6060, Note_on_c, 9, 36, 127
11, 6120, Note_on_c, 9, 36, 0
11, 6120, Note_on_c, 9, 35, 127
11, 6120, Note_on_c, 9, 38, 117
11, 6180, Note_on_c, 9, 38, 0
11, 6180, Note_on_c, 9, 35, 0
11, 6180, Note_on_c, 9, 36, 127
11, 6240, Note_on_c, 9, 36, 0
11, 6240, Note_on_c, 9, 35, 127
11, 6240, Note_on_c, 9, 46, 107
11, 6300, Note_on_c, 9, 46, 0
11, 6300, Note_on_c, 9, 35, 0
11, 6300, Note_on_c, 9, 36, 127
11, 6360, Note_on_c, 9, 36, 0
11, 6360, Note_on_c, 9, 35, 127
11, 6360, Note_on_c, 9, 38, 117
11, 6420, Note_on_c, 9, 38, 0
11, 6420, Note_on_c, 9, 35, 0
11, 6420, Note_on_c, 9, 36, 127
11, 6480, Note_on_c, 9, 36, 0
11, 6480, Note_on_c, 9, 35, 127
11, 6480, Note_on_c, 9, 46, 107
11, 6540, Note_on_c, 9, 46, 0
11, 6540, Note_on_c, 9, 35, 0
11, 6540, Note_on_c, 9, 36, 127
11, 6540, Note_on_c, 9, 38, 117
11, 6600, Note_on_c, 9, 38, 0
11, 6600, Note_on_c, 9, 36, 0
11, 6600, Note_on_c, 9, 35, 127
11, 6600, Note_on_c, 9, 38, 117
11, 6660, Note_on_c, 9, 38, 0
11, 6660, Note_on_c, 9, 35, 0
11, 6660, Note_on_c, 9, 36, 127
11, 6720, Note_on_c, 9, 36, 0
11, 6720, Note_on_c, 9, 35, 127
11, 6720, Note_on_c, 9, 46, 107
11, 6780, Note_on_c, 9, 46, 0
11, 6780, Note_on_c, 9, 35, 0
11, 6780, Note_on_c, 9, 36, 127
11, 6840, Note_on_c, 9, 36, 0
11, 6840, Note_on_c, 9, 35, 127
11, 6840, Note_on_c, 9, 38, 117
11, 6900, Note_on_c, 9, 38, 0
11, 6900, Note_on_c, 9, 35, 0
11, 6900, Note_on_c, 9, 36, 127
11, 6900, Note_on_c, 9, 38, 117
11, 6960, Note_on_c, 9, 38, 0
11, 6960, Note_on_c, 9, 36, 0
11, 6960, Note_on_c, 9, 35, 127
11, 6960, Note_on_c, 9, 46, 107
11, 7020, Note_on_c, 9, 46, 0
11, 7020, Note_on_c, 9, 35, 0
11, 7020, Note_on_c, 9, 36, 127
11, 7080, Note_on_c, 9, 36, 0
11, 7080, Note_on_c, 9, 35, 127
11, 7080, Note_on_c, 9, 38, 117
11, 7140, Note_on_c, 9, 38, 0
11, 7140, Note_on_c, 9, 35, 0
11, 7140, Note_on_c, 9, 36, 127
11, 7200, Note_on_c, 9, 36, 0
11, 7200, Note_on_c, 9, 35, 127
11, 7200, Note_on_c, 9, 46, 107
11, 7260, Note_on_c, 9, 46, 0
11, 7260, Note_on_c, 9, 35, 0
11, 7260, Note_on_c, 9, 36, 127
11, 7320, Note_on_c, 9, 36, 0
11, 7320, Note_on_c, 9, 35, 127
11, 7380, Note_on_c, 9, 35, 0
11, 7380, Note_on_c, 9, 36, 127
11, 7440, Note_on_c, 9, 36, 0
11, 7440, Note_on_c, 9, 35, 127
11, 7440, Note_on_c, 9, 38, 117
11, 7440, Note_on_c, 9, 49, 127
11, 7500, Note_on_c, 9, 49, 0
11, 7500, Note_on_c, 9, 38, 0
11, 7500, Note_on_c, 9, 35, 0
11, 7500, Note_on_c, 9, 36, 127
11, 7560, Note_on_c, 9, 36, 0
11, 7560, Note_on_c, 9, 35, 127
11, 7620, Note_on_c, 9, 35, 0
11, 7620, Note_on_c, 9, 36, 127
11, 7680, Note_on_c, 9, 36, 0
11, 7680, Note_on_c, 9, 35, 127
11, 7680, Note_on_c, 9, 46, 107
11, 7740, Note_on_c, 9, 46, 0
11, 7740, Note_on_c, 9, 35, 0
11, 7740, Note_on_c, 9, 36, 127
11, 7800, Note_on_c, 9, 36, 0
11, 7800, Note_on_c, 9, 35, 127
11, 7800, Note_on_c, 9, 38, 117
11, 7860, Note_on_c, 9, 38, 0
11, 7860, Note_on_c, 9, 35, 0
11, 7860, Note_on_c, 9, 36, 127
11, 7860, Note_on_c, 9, 38, 117
11, 7920, Note_on_c, 9, 38, 0
11, 7920, Note_on_c, 9, 36, 0
11, 7920, Note_on_c, 9, 35, 127
11, 7920, Note_on_c, 9, 46, 107
11, 7980, Note_on_c, 9, 46, 0
11, 7980, Note_on_c, 9, 35, 0
11, 7980, Note_on_c, 9, 36, 127
11, 8040, Note_on_c, 9, 36, 0
11, 8040, Note_on_c, 9, 35, 127
11, 8040, Note_on_c, 9, 38, 117
11, 8100, Note_on_c, 9, 38, 0
11, 8100, Note_on_c, 9, 35, 0
11, 8100, Note_on_c, 9, 36, 127
11, 8160, Note_on_c, 9, 36, 0
11, 8160, Note_on_c, 9, 35, 127
11, 8160, Note_on_c, 9, 46, 107
11, 8220, Note_on_c, 9, 46, 0
11, 8220, Note_on_c, 9, 35, 0
11, 8220, Note_on_c, 9, 36, 127
11, 8280, Note_on_c, 9, 36, 0
11, 8280, Note_on_c, 9, 35, 127
11, 8280, Note_on_c, 9, 38, 117
11, 8340, Note_on_c, 9, 38, 0
11, 8340, Note_on_c, 9, 35, 0
11, 8340, Note_on_c, 9, 36, 127
11, 8400, Note_on_c, 9, 36, 0
11, 8400, Note_on_c, 9, 35, 127
11, 8400, Note_on_c, 9, 46, 107
11, 8460, Note_on_c, 9, 46, 0
11, 8460, Note_on_c, 9, 35, 0
11, 8460, Note_on_c, 9, 36, 127
11, 8460, Note_on_c, 9, 38, 117
11, 8520, Note_on_c, 9, 38, 0
11, 8520, Note_on_c, 9, 36, 0
11, 8520, Note_on_c, 9, 35, 127
11, 8520, Note_on_c, 9, 38, 117
11, 8580, Note_on_c, 9, 38, 0
11, 8580, Note_on_c, 9, 35, 0
11, 8580, Note_on_c, 9, 36, 127
11, 8640, Note_on_c, 9, 36, 0
11, 8640, Note_on_c, 9, 35, 127
11, 8640, Note_on_c, 9, 46, 107
11, 8700, Note_on_c, 9, 46, 0
11, 8700, Note_on_c, 9, 35, 0
11, 8700, Note_on_c, 9, 36, 127
11, 8760, Note_on_c, 9, 36, 0
11, 8760, Note_on_c, 9, 35, 127
11, 8760, Note_on_c, 9, 38, 117
11, 8820, Note_on_c, 9, 38, 0
11, 8820, Note_on_c, 9, 35, 0
11, 8820, Note_on_c, 9, 36, 127
11, 8820, Note_on_c, 9, 38, 117
11, 8880, Note_on_c, 9, 38, 0
11, 8880, Note_on_c, 9, 36, 0
11, 8880, Note_on_c, 9, 35, 127
11, 8880, Note_on_c, 9, 46, 107
11, 8940, Note_on_c, 9, 46, 0
11, 8940, Note_on_c, 9, 35, 0
11, 8940, Note_on_c, 9, 36, 127
11, 9000, Note_on_c, 9, 36, 0
11, 9000, Note_on_c, 9, 35, 127
11, 9000, Note_on_c, 9, 38, 117
11, 9060, Note_on_c, 9, 38, 0
11, 9060, Note_on_c, 9, 35, 0
11, 9060, Note_on_c, 9, 36, 127
11, 9120, Note_on_c, 9, 36, 0
11, 9120, Note_on_c, 9, 35, 127
11, 9120, Note_on_c, 9, 46, 107
11, 9180, Note_on_c, 9, 46, 0
11, 9180, Note_on_c, 9, 35, 0
11, 9180, Note_on_c, 9, 36, 127
11, 9180, Note_on_c, 9, 38, 117
11, 9240, Note_on_c, 9, 38, 0
11, 9240, Note_on_c, 9, 36, 0
11, 9240, Note_on_c, 9, 35, 127
11, 9240, Note_on_c, 9, 38, 117
11, 9300, Note_on_c, 9, 38, 0
11, 9300, Note_on_c, 9, 35, 0
11, 9300, Note_on_c, 9, 36, 127
11, 9360, Note_on_c, 9, 36, 0
11, 9360, Note_on_c, 9, 35, 127
11, 9360, Note_on_c, 9, 46, 107
11, 9420, Note_on_c, 9, 46, 0
11, 9420, Note_on_c, 9, 35, 0
11, 9420, Note_on_c, 9, 36, 127
11, 9420, Note_on_c, 9, 38, 117
11, 9480, Note_on_c, 9, 38, 0
11, 9480, Note_on_c, 9, 36, 0
11, 9480, Note_on_c, 9, 35, 127
11, 9480, Note_on_c, 9, 38, 117
11, 9540, Note_on_c, 9, 38, 0
11, 9540, Note_on_c, 9, 35, 0
11, 9540, Note_on_c, 9, 36, 127
11, 9600, Note_on_c, 9, 36, 0
11, 9600, Note_on_c, 9, 35, 127
11, 9600, Note_on_c, 9, 46, 107
11, 9660, Note_on_c, 9, 46, 0
11, 9660, Note_on_c, 9, 35, 0
11, 9660, Note_on_c, 9, 36, 127
11, 9720, Note_on_c, 9, 36, 0
11, 9720, Note_on_c, 9, 35, 127
11, 9720, Note_on_c, 9, 38, 117
11, 9780, Note_on_c, 9, 38, 0
11, 9780, Note_on_c, 9, 35, 0
11, 9780, Note_on_c, 9, 36, 127
11, 9780, Note_on_c, 9, 38, 117
11, 9840, Note_on_c, 9, 38, 0
11, 9840, Note_on_c, 9, 36, 0
11, 9840, Note_on_c, 9, 35, 127
11, 9840, Note_on_c, 9, 46, 107
11, 9900, Note_on_c, 9, 46, 0
11, 9900, Note_on_c, 9, 35, 0
11, 9900, Note_on_c, 9, 36, 127
11, 9960, Note_on_c, 9, 36, 0
11, 9960, Note_on_c, 9, 35, 127
11, 9960, Note_on_c, 9, 38, 117
11, 10020, Note_on_c, 9, 38, 0
11, 10020, Note_on_c, 9, 35, 0
11, 10020, Note_on_c, 9, 36, 127
11, 10080, Note_on_c, 9, 36, 0
11, 10080, Note_on_c, 9, 35, 127
11, 10080, Note_on_c, 9, 46, 107
11, 10140, Note_on_c, 9, 46, 0
11, 10140, Note_on_c, 9, 35, 0
11, 10140, Note_on_c, 9, 36, 127
11, 10200, Note_on_c, 9, 36, 0
11, 10200, Note_on_c, 9, 35, 127
11, 10200, Note_on_c, 9, 38, 117
11, 10260, Note_on_c, 9, 38, 0
11, 10260, Note_on_c, 9, 35, 0
11, 10260, Note_on_c, 9, 36, 127
11, 10320, Note_on_c, 9, 36, 0
11, 10320, Note_on_c, 9, 35, 127
11, 10320, Note_on_c, 9, 46, 107
11, 10380, Note_on_c, 9, 46, 0
11, 10380, Note_on_c, 9, 35, 0
11, 10380, Note_on_c, 9, 36, 127
11, 10380, Note_on_c, 9, 38, 117
11, 10440, Note_on_c, 9, 38, 0
11, 10440, Note_on_c, 9, 36, 0
11, 10440, Note_on_c, 9, 35, 127
11, 10440, Note_on_c, 9, 38, 117
11, 10500, Note_on_c, 9, 38, 0
11, 10500, Note_on_c, 9, 35, 0
11, 10500, Note_on_c, 9, 36, 127
11, 10560, Note_on_c, 9, 36, 0
11, 10560, Note_on_c, 9, 35, 127
11, 10560, Note_on_c, 9, 46, 107
11, 10620, Note_on_c, 9, 46, 0
11, 10620, Note_on_c, 9, 35, 0
11, 10620, Note_on_c, 9, 36, 127
11, 10680, Note_on_c, 9, 36, 0
11, 10680, Note_on_c, 9, 35, 127
11, 10680, Note_on_c, 9, 38, 117
11, 10740, Note_on_c, 9, 38, 0
11, 10740, Note_on_c, 9, 35, 0
11, 10740, Note_on_c, 9, 36, 127
11, 10740, Note_on_c, 9, 38, 117
11, 10800, Note_on_c, 9, 38, 0
11, 10800, Note_on_c, 9, 36, 0
11, 10800, Note_on_c, 9, 35, 127
11, 10800, Note_on_c, 9, 46, 107
11, 10860, Note_on_c, 9, 46, 0
11, 10860, Note_on_c, 9, 35, 0
11, 10860, Note_on_c, 9, 36, 127
11, 10920, Note_on_c, 9, 36, 0
11, 10920, Note_on_c, 9, 35, 127
11, 10980, Note_on_c, 9, 35, 0
11, 10980, Note_on_c, 9, 36, 127
11, 10980, Note_on_c, 9, 38, 117
11, 11040, Note_on_c, 9, 38, 0
11, 11040, Note_on_c, 9, 36, 0
11, 11040, Note_on_c, 9, 35, 127
11, 11040, Note_on_c, 9, 38, 117
11, 11100, Note_on_c, 9, 38, 0
11, 11100, Note_on_c, 9, 35, 0
11, 11100, Note_on_c, 9, 36, 127
11, 11100, Note_on_c, 9, 38, 117
11, 11160, Note_on_c, 9, 38, 0
11, 11160, Note_on_c, 9, 36, 0
11, 11160, Note_on_c, 9, 35, 127
11, 11160, Note_on_c, 9, 38, 117
11, 11220, Note_on_c, 9, 38, 0
11, 11220, Note_on_c, 9, 35, 0
11, 11220, Note_on_c, 9, 36, 127
11, 11220, Note_on_c, 9, 43, 127
11, 11280, Note_on_c, 9, 43, 0
11, 11280, Note_on_c, 9, 36, 0
11, 11280, Note_on_c, 9, 35, 127
11, 11280, Note_on_c, 9, 43, 127
11, 11340, Note_on_c, 9, 43, 0
11, 11340, Note_on_c, 9, 35, 0
11, 11340, Note_on_c, 9, 36, 127
11, 11340, Note_on_c, 9, 41, 127
11, 11400, Note_on_c, 9, 41, 0
11, 11400, Note_on_c, 9, 36, 0
11, 11400, Note_on_c, 9, 35, 127
11, 11400, Note_on_c, 9, 41, 127
11, 11460, Note_on_c, 9, 41, 0
11, 11460, Note_on_c, 9, 35, 0
11, 11460, Note_on_c, 9, 36, 127
11, 11520, Note_on_c, 9, 36, 0
11, 11520, Note_on_c, 9, 43, 127
11, 11640, Note_on_c, 9, 43, 0
11, 11640, Note_on_c, 9, 43, 127
11, 11880, Note_on_c, 9, 43, 0
11, 11880, Note_on_c, 9, 43, 127
11, 12000, Note_on_c, 9, 43, 0
11, 12000, Note_on_c, 9, 43, 127
11, 12240, Note_on_c, 9, 43, 0
11, 12240, Note_on_c, 9, 44, 107
11, 12480, Note_on_c, 9, 44, 0
11, 12480, Note_on_c, 9, 35, 127
11, 12480, Note_on_c, 9, 44, 107
11, 12720, Note_on_c, 9, 44, 0
11, 12720, Note_on_c, 9, 35, 0
11, 12720, Note_on_c, 9, 44, 107
11, 12840, Note_on_c, 9, 44, 0
11, 12840, Note_on_c, 9, 35, 127
11, 12960, Note_on_c, 9, 35, 0
11, 12960, Note_on_c, 9, 35, 127
11, 12960, Note_on_c, 9, 44, 107
11, 13200, Note_on_c, 9, 44, 0
11, 13200, Note_on_c, 9, 35, 0
11, 13200, Note_on_c, 9, 44, 107
11, 13440, Note_on_c, 9, 44, 0
11, 13440, Note_on_c, 9, 35, 127
11, 13440, Note_on_c, 9, 44, 107
11, 13680, Note_on_c, 9, 44, 0
11, 13680, Note_on_c, 9, 35, 0
11, 13680, Note_on_c, 9, 44, 107
11, 13800, Note_on_c, 9, 44, 0
11, 13800, Note_on_c, 9, 35, 127
11, 13920, Note_on_c, 9, 35, 0
11, 13920, Note_on_c, 9, 35, 127
11, 13920, Note_on_c, 9, 44, 107
11, 14160, Note_on_c, 9, 44, 0
11, 14160, Note_on_c, 9, 35, 0
11, 14160, Note_on_c, 9, 44, 107
11, 14400, Note_on_c, 9, 44, 0
11, 14400, Note_on_c, 9, 43, 127
11, 14520, Note_on_c, 9, 43, 0
11, 14520, Note_on_c, 9, 43, 127
11, 14700, Note_on_c, 9, 43, 0
11, 14700, Note_on_c, 9, 43, 127
11, 14760, Note_on_c, 9, 43, 0
11, 14760, Note_on_c, 9, 43, 127
11, 14880, Note_on_c, 9, 43, 0
11, 14880, Note_on_c, 9, 43, 127
11, 15120, Note_on_c, 9, 43, 0
11, 15120, Note_on_c, 9, 44, 107
11, 15360, Note_on_c, 9, 44, 0
11, 15360, Note_on_c, 9, 35, 127
11, 15360, Note_on_c, 9, 44, 107
11, 15480, Note_on_c, 9, 44, 0
11, 15480, Note_on_c, 9, 35, 0
11, 15480, Note_on_c, 9, 35, 127
11, 15600, Note_on_c, 9, 35, 0
11, 15600, Note_on_c, 9, 44, 107
11, 15720, Note_on_c, 9, 44, 0
11, 15720, Note_on_c, 9, 35, 127
11, 15840, Note_on_c, 9, 35, 0
11, 15840, Note_on_c, 9, 35, 127
11, 15840, Note_on_c, 9, 44, 107
11, 15960, Note_on_c, 9, 44, 0
11, 15960, Note_on_c, 9, 35, 0
11, 16080, Note_on_c, 9, 44, 107
11, 16200, Note_on_c, 9, 44, 0
11, 16320, Note_on_c, 9, 35, 127
11, 16320, Note_on_c, 9, 44, 107
11, 16440, Note_on_c, 9, 44, 0
11, 16440, Note_on_c, 9, 35, 0
11, 16560, Note_on_c, 9, 44, 107
11, 16680, Note_on_c, 9, 44, 0
11, 16680, Note_on_c, 9, 35, 127
11, 16800, Note_on_c, 9, 35, 0
11, 16800, Note_on_c, 9, 35, 127
11, 16800, Note_on_c, 9, 44, 107
11, 16920, Note_on_c, 9, 44, 0
11, 16920, Note_on_c, 9, 35, 0
11, 17040, Note_on_c, 9, 44, 107
11, 17160, Note_on_c, 9, 44, 0
11, 17280, Note_on_c, 9, 43, 127
11, 17400, Note_on_c, 9, 43, 0
11, 17400, Note_on_c, 9, 43, 127
11, 17580, Note_on_c, 9, 43, 0
11, 17580, Note_on_c, 9, 43, 127
11, 17640, Note_on_c, 9, 43, 0
11, 17640, Note_on_c, 9, 43, 127
11, 17760, Note_on_c, 9, 43, 0
11, 17760, Note_on_c, 9, 43, 127
11, 18000, Note_on_c, 9, 43, 0
11, 18000, Note_on_c, 9, 44, 107
11, 18240, Note_on_c, 9, 44, 0
11, 18240, Note_on_c, 9, 35, 127
11, 18240, Note_on_c, 9, 44, 107
11, 18300, Note_on_c, 9, 35, 0
11, 18360, Note_on_c, 9, 44, 0
11, 18360, Note_on_c, 9, 44, 107
11, 18480, Note_on_c, 9, 44, 0
11, 18600, Note_on_c, 9, 35, 127
11, 18660, Note_on_c, 9, 35, 0
11, 18720, Note_on_c, 9, 35, 127
11, 18720, Note_on_c, 9, 44, 107
11, 18780, Note_on_c, 9, 35, 0
11, 18840, Note_on_c, 9, 44, 0
11, 18960, Note_on_c, 9, 43, 127
11, 19080, Note_on_c, 9, 43, 0
11, 19080, Note_on_c, 9, 43, 127
11, 19140, Note_on_c, 9, 43, 0
11, 19260, Note_on_c, 9, 43, 127
11, 19320, Note_on_c, 9, 43, 0
11, 19320, Note_on_c, 9, 43, 127
11, 19380, Note_on_c, 9, 43, 0
11, 19440, Note_on_c, 9, 43, 127
11, 19500, Note_on_c, 9, 43, 0
11, 21360, Note_on_c, 9, 35, 127
11, 21360, Note_on_c, 9, 38, 70
11, 21420, Note_on_c, 9, 38, 0
11, 21420, Note_on_c, 9, 35, 0
11, 21420, Note_on_c, 9, 38, 72
11, 21480, Note_on_c, 9, 38, 0
11, 21480, Note_on_c, 9, 38, 73
11, 21540, Note_on_c, 9, 38, 0
11, 21540, Note_on_c, 9, 38, 75
11, 21600, Note_on_c, 9, 38, 0
11, 21600, Note_on_c, 9, 35, 127
11, 21600, Note_on_c, 9, 38, 77
11, 21660, Note_on_c, 9, 38, 0
11, 21660, Note_on_c, 9, 35, 0
11, 21660, Note_on_c, 9, 38, 78
11, 21720, Note_on_c, 9, 38, 0
11, 21720, Note_on_c, 9, 38, 80
11, 21780, Note_on_c, 9, 38, 0
11, 21780, Note_on_c, 9, 38, 82
11, 21840, Note_on_c, 9, 38, 0
11, 21840, Note_on_c, 9, 35, 127
11, 21840, Note_on_c, 9, 38, 83
11, 21900, Note_on_c, 9, 38, 0
11, 21900, Note_on_c, 9, 35, 0
11, 21900, Note_on_c, 9, 38, 85
11, 21960, Note_on_c, 9, 38, 0
11, 21960, Note_on_c, 9, 38, 87
11, 22020, Note_on_c, 9, 38, 0
11, 22020, Note_on_c, 9, 38, 88
11, 22080, Note_on_c, 9, 38, 0
11, 22080, Note_on_c, 9, 35, 127
11, 22080, Note_on_c, 9, 38, 90
11, 22140, Note_on_c, 9, 38, 0
11, 22140, Note_on_c, 9, 35, 0
11, 22140, Note_on_c, 9, 38, 92
11, 22200, Note_on_c, 9, 38, 0
11, 22200, Note_on_c, 9, 38, 93
11, 22260, Note_on_c, 9, 38, 0
11, 22260, Note_on_c, 9, 38, 95
11, 22320, Note_on_c, 9, 38, 0
11, 22320, Note_on_c, 9, 35, 127
11, 22320, Note_on_c, 9, 38, 97
11, 22380, Note_on_c, 9, 38, 0
11, 22380, Note_on_c, 9, 35, 0
11, 22380, Note_on_c, 9, 38, 98
11, 22440, Note_on_c, 9, 38, 0
11, 22440, Note_on_c, 9, 38, 100
11, 22500, Note_on_c, 9, 38, 0
11, 22500, Note_on_c, 9, 38, 102
11, 22560, Note_on_c, 9, 38, 0
11, 22560, Note_on_c, 9, 35, 127
11, 22560, Note_on_c, 9, 38, 103
11, 22620, Note_on_c, 9, 38, 0
11, 22620, Note_on_c, 9, 35, 0
11, 22620, Note_on_c, 9, 38, 105
11, 22680, Note_on_c, 9, 38, 0
11, 22680, Note_on_c, 9, 38, 107
11, 22740, Note_on_c, 9, 38, 0
11, 22740, Note_on_c, 9, 38, 108
11, 22800, Note_on_c, 9, 38, 0
11, 22800, Note_on_c, 9, 35, 127
11, 22800, Note_on_c, 9, 38, 110
11, 22860, Note_on_c, 9, 38, 0
11, 22860, Note_on_c, 9, 35, 0
11, 22860, Note_on_c, 9, 38, 112
11, 22920, Note_on_c, 9, 38, 0
11, 22920, Note_on_c, 9, 38, 113
11, 22980, Note_on_c, 9, 38, 0
11, 22980, Note_on_c, 9, 38, 115
11, 23040, Note_on_c, 9, 38, 0
11, 23040, Note_on_c, 9, 35, 127
11, 23040, Note_on_c, 9, 38, 117
11, 23100, Note_on_c, 9, 38, 0
11, 23100, Note_on_c, 9, 35, 0
11, 23100, Note_on_c, 9, 38, 117
11, 23160, Note_on_c, 9, 38, 0
11, 23160, Note_on_c, 9, 38, 117
11, 23220, Note_on_c, 9, 38, 0
11, 23220, Note_on_c, 9, 38, 117
11, 23280, Note_on_c, 9, 38, 0
11, 23280, Note_on_c, 9, 35, 127
11, 23280, Note_on_c, 9, 49, 127
11, 23340, Note_on_c, 9, 49, 0
11, 23340, Note_on_c, 9, 35, 0
11, 23400, Note_on_c, 9, 38, 117
11, 23460, Note_on_c, 9, 38, 0
11, 23460, Note_on_c, 9, 38, 117
11, 23520, Note_on_c, 9, 38, 0
11, 23520, Note_on_c, 9, 35, 127
11, 23520, Note_on_c, 9, 46, 107
11, 23580, Note_on_c, 9, 46, 0
11, 23580, Note_on_c, 9, 35, 0
11, 23640, Note_on_c, 9, 38, 117
11, 23700, Note_on_c, 9, 38, 0
11, 23760, Note_on_c, 9, 35, 127
11, 23760, Note_on_c, 9, 46, 107
11, 23820, Note_on_c, 9, 46, 0
11, 23820, Note_on_c, 9, 35, 0
11, 23880, Note_on_c, 9, 38, 117
11, 23940, Note_on_c, 9, 38, 0
11, 24000, Note_on_c, 9, 35, 127
11, 24000, Note_on_c, 9, 46, 107
11, 24060, Note_on_c, 9, 46, 0
11, 24060, Note_on_c, 9, 35, 0
11, 24060, Note_on_c, 9, 38, 117
11, 24120, Note_on_c, 9, 38, 0
11, 24120, Note_on_c, 9, 38, 117
11, 24180, Note_on_c, 9, 38, 0
11, 24240, Note_on_c, 9, 35, 127
11, 24240, Note_on_c, 9, 46, 107
11, 24300, Note_on_c, 9, 46, 0
11, 24300, Note_on_c, 9, 35, 0
11, 24360, Note_on_c, 9, 38, 117
11, 24420, Note_on_c, 9, 38, 0
11, 24420, Note_on_c, 9, 38, 117
11, 24480, Note_on_c, 9, 38, 0
11, 24480, Note_on_c, 9, 35, 127
11, 24480, Note_on_c, 9, 46, 107
11, 24540, Note_on_c, 9, 46, 0
11, 24540, Note_on_c, 9, 35, 0
11, 24600, Note_on_c, 9, 38, 117
11, 24660, Note_on_c, 9, 38, 0
11, 24720, Note_on_c, 9, 35, 127
11, 24720, Note_on_c, 9, 46, 107
11, 24780, Note_on_c, 9, 46, 0
11, 24780, Note_on_c, 9, 35, 0
11, 24840, Note_on_c, 9, 38, 117
11, 24900, Note_on_c, 9, 38, 0
11, 24900, Note_on_c, 9, 38, 117
11, 24960, Note_on_c, 9, 38, 0
11, 24960, Note_on_c, 9, 35, 127
11, 24960, Note_on_c, 9, 46, 107
11, 25020, Note_on_c, 9, 46, 0
11, 25020, Note_on_c, 9, 35, 0
11, 25080, Note_on_c, 9, 38, 117
11, 25140, Note_on_c, 9, 38, 0
11, 25140, Note_on_c, 9, 38, 117
11, 25200, Note_on_c, 9, 38, 0
11, 25200, Note_on_c, 9, 35, 127
11, 25260, Note_on_c, 9, 35, 0
11, 25320, Note_on_c, 9, 38, 117
11, 25380, Note_on_c, 9, 38, 0
11, 25380, Note_on_c, 9, 38, 117
11, 25440, Note_on_c, 9, 38, 0
11, 25440, Note_on_c, 9, 35, 127
11, 25440, Note_on_c, 9, 46, 107
11, 25500, Note_on_c, 9, 46, 0
11, 25500, Note_on_c, 9, 35, 0
11, 25560, Note_on_c, 9, 38, 117
11, 25620, Note_on_c, 9, 38, 0
11, 25680, Note_on_c, 9, 35, 127
11, 25680, Note_on_c, 9, 46, 107
11, 25740, Note_on_c, 9, 46, 0
11, 25740, Note_on_c, 9, 35, 0
11, 25800, Note_on_c, 9, 38, 117
11, 25860, Note_on_c, 9, 38, 0
11, 25920, Note_on_c, 9, 35, 127
11, 25920, Note_on_c, 9, 46, 107
11, 25980, Note_on_c, 9, 46, 0
11, 25980, Note_on_c, 9, 35, 0
11, 25980, Note_on_c, 9, 38, 117
11, 26040, Note_on_c, 9, 38, 0
11, 26040, Note_on_c, 9, 38, 117
11, 26100, Note_on_c, 9, 38, 0
11, 26160, Note_on_c, 9, 35, 127
11, 26160, Note_on_c, 9, 46, 107
11, 26220, Note_on_c, 9, 46, 0
11, 26220, Note_on_c, 9, 35, 0
11, 26280, Note_on_c, 9, 38, 117
11, 26340, Note_on_c, 9, 38, 0
11, 26340, Note_on_c, 9, 38, 117
11, 26400, Note_on_c, 9, 38, 0
11, 26400, Note_on_c, 9, 35, 127
11, 26400, Note_on_c, 9, 46, 107
11, 26460, Note_on_c, 9, 46, 0
11, 26460, Note_on_c, 9, 35, 0
11, 26520, Note_on_c, 9, 38, 117
11, 26580, Note_on_c, 9, 38, 0
11, 26580, Note_on_c, 9, 38, 117
11, 26640, Note_on_c, 9, 38, 0
11, 26640, Note_on_c, 9, 35, 127
11, 26640, Note_on_c, 9, 46, 107
11, 26700, Note_on_c, 9, 46, 0
11, 26700, Note_on_c, 9, 35, 0
11, 26700, Note_on_c, 9, 38, 117
11, 26760, Note_on_c, 9, 38, 0
11, 26760, Note_on_c, 9, 38, 117
11, 26820, Note_on_c, 9, 38, 0
11, 26880, Note_on_c, 9, 35, 127
11, 26880, Note_on_c, 9, 38, 117
11, 26880, Note_on_c, 9, 49, 127
11, 26940, Note_on_c, 9, 49, 0
11, 26940, Note_on_c, 9, 38, 0
11, 26940, Note_on_c, 9, 35, 0
11, 27120, Note_on_c, 9, 35, 127
11, 27180, Note_on_c, 9, 35, 0
11, 27240, Note_on_c, 9, 38, 117
11, 27300, Note_on_c, 9, 38, 0
11, 27300, Note_on_c, 9, 38, 117
11, 27360, Note_on_c, 9, 38, 0
11, 27360, Note_on_c, 9, 35, 127
11, 27360, Note_on_c, 9, 46, 107
11, 27420, Note_on_c, 9, 46, 0
11, 27420, Note_on_c, 9, 35, 0
11, 27480, Note_on_c, 9, 38, 117
11, 27540, Note_on_c, 9, 38, 0
11, 27600, Note_on_c, 9, 35, 127
11, 27600, Note_on_c, 9, 46, 107
11, 27660, Note_on_c, 9, 46, 0
11, 27660, Note_on_c, 9, 35, 0
11, 27720, Note_on_c, 9, 38, 117
11, 27780, Note_on_c, 9, 38, 0
11, 27840, Note_on_c, 9, 35, 127
11, 27840, Note_on_c, 9, 46, 107
11, 27900, Note_on_c, 9, 46, 0
11, 27900, Note_on_c, 9, 35, 0
11, 27900, Note_on_c, 9, 38, 117
11, 27960, Note_on_c, 9, 38, 0
11, 27960, Note_on_c, 9, 38, 117
11, 28020, Note_on_c, 9, 38, 0
11, 28080, Note_on_c, 9, 35, 127
11, 28080, Note_on_c, 9, 46, 107
11, 28140, Note_on_c, 9, 46, 0
11, 28140, Note_on_c, 9, 35, 0
11, 28200, Note_on_c, 9, 38, 117
11, 28260, Note_on_c, 9, 38, 0
11, 28260, Note_on_c, 9, 38, 117
11, 28320, Note_on_c, 9, 38, 0
11, 28320, Note_on_c, 9, 35, 127
11, 28320, Note_on_c, 9, 46, 107
11, 28380, Note_on_c, 9, 46, 0
11, 28380, Note_on_c, 9, 35, 0
11, 28440, Note_on_c, 9, 38, 117
11, 28500, Note_on_c, 9, 38, 0
11, 28500, Note_on_c, 9, 38, 117
11, 28560, Note_on_c, 9, 38, 0
11, 28560, Note_on_c, 9, 35, 127
11, 28560, Note_on_c, 9, 46, 107
11, 28620, Note_on_c, 9, 46, 0
11, 28620, Note_on_c, 9, 35, 0
11, 28620, Note_on_c, 9, 38, 117
11, 28680, Note_on_c, 9, 38, 0
11, 28680, Note_on_c, 9, 38, 117
11, 28740, Note_on_c, 9, 38, 0
11, 28800, Note_on_c, 9, 35, 127
11, 28800, Note_on_c, 9, 38, 117
11, 28800, Note_on_c, 9, 49, 127
11, 28860, Note_on_c, 9, 49, 0
11, 28860, Note_on_c, 9, 38, 0
11, 28860, Note_on_c, 9, 35, 0
11, 29040, Note_on_c, 9, 35, 127
11, 29040, Note_on_c, 9, 42, 107
11, 29100, Note_on_c, 9, 42, 0
11, 29100, Note_on_c, 9, 35, 0
11, 29160, Note_on_c, 9, 35, 127
11, 29160, Note_on_c, 9, 42, 107
11, 29220, Note_on_c, 9, 42, 0
11, 29220, Note_on_c, 9, 35, 0
11, 29280, Note_on_c, 9, 38, 117
11, 29280, Note_on_c, 9, 42, 107
11, 29340, Note_on_c, 9, 42, 0
11, 29340, Note_on_c, 9, 38, 0
11, 29400, Note_on_c, 9, 35, 127
11, 29400, Note_on_c, 9, 42, 107
11, 29460, Note_on_c, 9, 42, 0
11, 29460, Note_on_c, 9, 35, 0
11, 29520, Note_on_c, 9, 35, 127
11, 29520, Note_on_c, 9, 42, 107
11, 29580, Note_on_c, 9, 42, 0
11, 29580, Note_on_c, 9, 35, 0
11, 29640, Note_on_c, 9, 42, 107
11, 29700, Note_on_c, 9, 42, 0
11, 29760, Note_on_c, 9, 38, 117
11, 29760, Note_on_c, 9, 42, 107
11, 29820, Note_on_c, 9, 42, 0
11, 29820, Note_on_c, 9, 38, 0
11, 29880, Note_on_c, 9, 35, 127
11, 29880, Note_on_c, 9, 42, 107
11, 29940, Note_on_c, 9, 42, 0
11, 29940, Note_on_c, 9, 35, 0
11, 30000, Note_on_c, 9, 35, 127
11, 30000, Note_on_c, 9, 42, 107
11, 30060, Note_on_c, 9, 42, 0
11, 30060, Note_on_c, 9, 35, 0
11, 30120, Note_on_c, 9, 35, 127
11, 30120, Note_on_c, 9, 42, 107
11, 30180, Note_on_c, 9, 42, 0
11, 30180, Note_on_c, 9, 35, 0
11, 30240, Note_on_c, 9, 38, 117
11, 30240, Note_on_c, 9, 42, 107
11, 30300, Note_on_c, 9, 42, 0
11, 30300, Note_on_c, 9, 38, 0
11, 30360, Note_on_c, 9, 35, 127
11, 30420, Note_on_c, 9, 35, 0
11, 30480, Note_on_c, 9, 47, 127
11, 30540, Note_on_c, 9, 47, 0
11, 30600, Note_on_c, 9, 47, 127
11, 30660, Note_on_c, 9, 47, 0
11, 30720, Note_on_c, 9, 38, 117
11, 30720, Note_on_c, 9, 42, 107
11, 30780, Note_on_c, 9, 42, 0
11, 30780, Note_on_c, 9, 38, 0
11, 30840, Note_on_c, 9, 42, 107
11, 30900, Note_on_c, 9, 42, 0
11, 30960, Note_on_c, 9, 35, 127
11, 30960, Note_on_c, 9, 42, 107
11, 31020, Note_on_c, 9, 42, 0
11, 31020, Note_on_c, 9, 35, 0
11, 31080, Note_on_c, 9, 35, 127
11, 31080, Note_on_c, 9, 42, 107
11, 31140, Note_on_c, 9, 42, 0
11, 31140, Note_on_c, 9, 35, 0
11, 31200, Note_on_c, 9, 38, 117
11, 31200, Note_on_c, 9, 42, 107
11, 31260, Note_on_c, 9, 42, 0
11, 31260, Note_on_c, 9, 38, 0
11, 31320, Note_on_c, 9, 35, 127
11, 31320, Note_on_c, 9, 42, 107
11, 31380, Note_on_c, 9, 42, 0
11, 31380, Note_on_c, 9, 35, 0
11, 31440, Note_on_c, 9, 35, 127
11, 31440, Note_on_c, 9, 42, 107
11, 31500, Note_on_c, 9, 42, 0
11, 31500, Note_on_c, 9, 35, 0
11, 31560, Note_on_c, 9, 42, 107
11, 31620, Note_on_c, 9, 42, 0
11, 31680, Note_on_c, 9, 38, 117
11, 31680, Note_on_c, 9, 42, 107
11, 31740, Note_on_c, 9, 42, 0
11, 31740, Note_on_c, 9, 38, 0
11, 31800, Note_on_c, 9, 35, 127
11, 31800, Note_on_c, 9, 42, 107
11, 31860, Note_on_c, 9, 42, 0
11, 31860, Note_on_c, 9, 35, 0
11, 31920, Note_on_c, 9, 35, 127
11, 31920, Note_on_c, 9, 42, 107
11, 31980, Note_on_c, 9, 42, 0
11, 31980, Note_on_c, 9, 35, 0
11, 32040, Note_on_c, 9, 35, 127
11, 32040, Note_on_c, 9, 42, 107
11, 32100, Note_on_c, 9, 42, 0
11, 32100, Note_on_c, 9, 35, 0
11, 32160, Note_on_c, 9, 38, 117
11, 32160, Note_on_c, 9, 42, 107
11, 32220, Note_on_c, 9, 42, 0
11, 32220, Note_on_c, 9, 38, 0
11, 32280, Note_on_c, 9, 35, 127
11, 32340, Note_on_c, 9, 35, 0
11, 32400, Note_on_c, 9, 48, 127
11, 32460, Note_on_c, 9, 48, 0
11, 32520, Note_on_c, 9, 47, 127
11, 32580, Note_on_c, 9, 47, 0
11, 32640, Note_on_c, 9, 38, 117
11, 32640, Note_on_c, 9, 42, 107
11, 32700, Note_on_c, 9, 42, 0
11, 32700, Note_on_c, 9, 38, 0
11, 32760, Note_on_c, 9, 42, 107
11, 32820, Note_on_c, 9, 42, 0
11, 32880, Note_on_c, 9, 35, 127
11, 32880, Note_on_c, 9, 42, 107
11, 32940, Note_on_c, 9, 42, 0
11, 32940, Note_on_c, 9, 35, 0
11, 33000, Note_on_c, 9, 35, 127
11, 33000, Note_on_c, 9, 42, 107
11, 33060, Note_on_c, 9, 42, 0
11, 33060, Note_on_c, 9, 35, 0
11, 33120, Note_on_c, 9, 38, 117
11, 33120, Note_on_c, 9, 42, 107
11, 33180, Note_on_c, 9, 42, 0
11, 33180, Note_on_c, 9, 38, 0
11, 33240, Note_on_c, 9, 35, 127
11, 33240, Note_on_c, 9, 42, 107
11, 33300, Note_on_c, 9, 42, 0
11, 33300, Note_on_c, 9, 35, 0
11, 33360, Note_on_c, 9, 35, 127
11, 33360, Note_on_c, 9, 42, 107
11, 33420, Note_on_c, 9, 42, 0
11, 33420, Note_on_c, 9, 35, 0
11, 33480, Note_on_c, 9, 42, 107
11, 33540, Note_on_c, 9, 42, 0
11, 33600, Note_on_c, 9, 38, 117
11, 33600, Note_on_c, 9, 42, 107
11, 33660, Note_on_c, 9, 42, 0
11, 33660, Note_on_c, 9, 38, 0
11, 33720, Note_on_c, 9, 35, 127
11, 33720, Note_on_c, 9, 42, 107
11, 33780, Note_on_c, 9, 42, 0
11, 33780, Note_on_c, 9, 35, 0
11, 33840, Note_on_c, 9, 35, 127
11, 33840, Note_on_c, 9, 42, 107
11, 33900, Note_on_c, 9, 42, 0
11, 33900, Note_on_c, 9, 35, 0
11, 33960, Note_on_c, 9, 35, 127
11, 33960, Note_on_c, 9, 42, 107
11, 34020, Note_on_c, 9, 42, 0
11, 34020, Note_on_c, 9, 35, 0
11, 34080, Note_on_c, 9, 38, 117
11, 34080, Note_on_c, 9, 42, 107
11, 34140, Note_on_c, 9, 42, 0
11, 34140, Note_on_c, 9, 38, 0
11, 34200, Note_on_c, 9, 35, 127
11, 34260, Note_on_c, 9, 35, 0
11, 34320, Note_on_c, 9, 47, 127
11, 34380, Note_on_c, 9, 47, 0
11, 34440, Note_on_c, 9, 47, 127
11, 34500, Note_on_c, 9, 47, 0
11, 34560, Note_on_c, 9, 38, 117
11, 34560, Note_on_c, 9, 42, 107
11, 34620, Note_on_c, 9, 42, 0
11, 34620, Note_on_c, 9, 38, 0
11, 34680, Note_on_c, 9, 42, 107
11, 34740, Note_on_c, 9, 42, 0
11, 34800, Note_on_c, 9, 35, 127
11, 34800, Note_on_c, 9, 42, 107
11, 34860, Note_on_c, 9, 42, 0
11, 34860, Note_on_c, 9, 35, 0
11, 34920, Note_on_c, 9, 35, 127
11, 34920, Note_on_c, 9, 42, 107
11, 34980, Note_on_c, 9, 42, 0
11, 34980, Note_on_c, 9, 35, 0
11, 35040, Note_on_c, 9, 38, 117
11, 35040, Note_on_c, 9, 42, 107
11, 35100, Note_on_c, 9, 42, 0
11, 35100, Note_on_c, 9, 38, 0
11, 35160, Note_on_c, 9, 35, 127
11, 35160, Note_on_c, 9, 42, 107
11, 35220, Note_on_c, 9, 42, 0
11, 35220, Note_on_c, 9, 35, 0
11, 35280, Note_on_c, 9, 35, 127
11, 35280, Note_on_c, 9, 42, 107
11, 35340, Note_on_c, 9, 42, 0
11, 35340, Note_on_c, 9, 35, 0
11, 35400, Note_on_c, 9, 42, 107
11, 35460, Note_on_c, 9, 42, 0
11, 35520, Note_on_c, 9, 38, 117
11, 35520, Note_on_c, 9, 42, 107
11, 35580, Note_on_c, 9, 42, 0
11, 35580, Note_on_c, 9, 38, 0
11, 35640, Note_on_c, 9, 35, 127
11, 35640, Note_on_c, 9, 42, 107
11, 35700, Note_on_c, 9, 42, 0
11, 35700, Note_on_c, 9, 35, 0
11, 35760, Note_on_c, 9, 35, 127
11, 35760, Note_on_c, 9, 42, 107
11, 35820, Note_on_c, 9, 42, 0
11, 35820, Note_on_c, 9, 35, 0
11, 35880, Note_on_c, 9, 35, 127
11, 35880, Note_on_c, 9, 42, 107
11, 35940, Note_on_c, 9, 42, 0
11, 35940, Note_on_c, 9, 35, 0
11, 36000, Note_on_c, 9, 38, 117
11, 36000, Note_on_c, 9, 42, 107
11, 36060, Note_on_c, 9, 42, 0
11, 36060, Note_on_c, 9, 38, 0
11, 36120, Note_on_c, 9, 35, 127
11, 36180, Note_on_c, 9, 35, 0
11, 36240, Note_on_c, 9, 48, 127
11, 36300, Note_on_c, 9, 48, 0
11, 36360, Note_on_c, 9, 47, 127
11, 36420, Note_on_c, 9, 47, 0
11, 36480, Note_on_c, 9, 38, 117
11, 36480, Note_on_c, 9, 42, 107
11, 36540, Note_on_c, 9, 42, 0
11, 36540, Note_on_c, 9, 38, 0
11, 36600, Note_on_c, 9, 42, 107
11, 36660, Note_on_c, 9, 42, 0
11, 36720, Note_on_c, 9, 35, 127
11, 36720, Note_on_c, 9, 42, 107
11, 36780, Note_on_c, 9, 42, 0
11, 36780, Note_on_c, 9, 35, 0
11, 36840, Note_on_c, 9, 35, 127
11, 36840, Note_on_c, 9, 42, 107
11, 36900, Note_on_c, 9, 42, 0
11, 36900, Note_on_c, 9, 35, 0
11, 36960, Note_on_c, 9, 38, 117
11, 36960, Note_on_c, 9, 42, 107
11, 37020, Note_on_c, 9, 42, 0
11, 37020, Note_on_c, 9, 38, 0
11, 37080, Note_on_c, 9, 35, 127
11, 37080, Note_on_c, 9, 42, 107
11, 37140, Note_on_c, 9, 42, 0
11, 37140, Note_on_c, 9, 35, 0
11, 37200, Note_on_c, 9, 35, 127
11, 37200, Note_on_c, 9, 42, 107
11, 37260, Note_on_c, 9, 42, 0
11, 37260, Note_on_c, 9, 35, 0
11, 37320, Note_on_c, 9, 42, 107
11, 37380, Note_on_c, 9, 42, 0
11, 37440, Note_on_c, 9, 38, 117
11, 37440, Note_on_c, 9, 42, 107
11, 37500, Note_on_c, 9, 42, 0
11, 37500, Note_on_c, 9, 38, 0
11, 37560, Note_on_c, 9, 35, 127
11, 37560, Note_on_c, 9, 42, 107
11, 37620, Note_on_c, 9, 42, 0
11, 37620, Note_on_c, 9, 35, 0
11, 37680, Note_on_c, 9, 35, 127
11, 37680, Note_on_c, 9, 42, 107
11, 37740, Note_on_c, 9, 42, 0
11, 37740, Note_on_c, 9, 35, 0
11, 37800, Note_on_c, 9, 35, 127
11, 37800, Note_on_c, 9, 42, 107
11, 37860, Note_on_c, 9, 42, 0
11, 37860, Note_on_c, 9, 35, 0
11, 37920, Note_on_c, 9, 38, 117
11, 37920, Note_on_c, 9, 42, 107
11, 37980, Note_on_c, 9, 42, 0
11, 37980, Note_on_c, 9, 38, 0
11, 38040, Note_on_c, 9, 35, 127
11, 38100, Note_on_c, 9, 35, 0
11, 38160, Note_on_c, 9, 47, 127
11, 38220, Note_on_c, 9, 47, 0
11, 38280, Note_on_c, 9, 47, 127
11, 38340, Note_on_c, 9, 47, 0
11, 38400, Note_on_c, 9, 38, 117
11, 38400, Note_on_c, 9, 42, 107
11, 38460, Note_on_c, 9, 42, 0
11, 38460, Note_on_c, 9, 38, 0
11, 38520, Note_on_c, 9, 42, 107
11, 38580, Note_on_c, 9, 42, 0
11, 38640, Note_on_c, 9, 35, 127
11, 38640, Note_on_c, 9, 42, 107
11, 38700, Note_on_c, 9, 42, 0
11, 38700, Note_on_c, 9, 35, 0
11, 38760, Note_on_c, 9, 35, 127
11, 38760, Note_on_c, 9, 42, 107
11, 38820, Note_on_c, 9, 42, 0
11, 38820, Note_on_c, 9, 35, 0
11, 38880, Note_on_c, 9, 38, 117
11, 38880, Note_on_c, 9, 42, 107
11, 38940, Note_on_c, 9, 42, 0
11, 38940, Note_on_c, 9, 38, 0
11, 39000, Note_on_c, 9, 35, 127
11, 39000, Note_on_c, 9, 42, 107
11, 39060, Note_on_c, 9, 42, 0
11, 39060, Note_on_c, 9, 35, 0
11, 39120, Note_on_c, 9, 35, 127
11, 39120, Note_on_c, 9, 42, 107
11, 39180, Note_on_c, 9, 42, 0
11, 39180, Note_on_c, 9, 35, 0
11, 39240, Note_on_c, 9, 42, 107
11, 39300, Note_on_c, 9, 42, 0
11, 39360, Note_on_c, 9, 38, 117
11, 39360, Note_on_c, 9, 42, 107
11, 39420, Note_on_c, 9, 42, 0
11, 39420, Note_on_c, 9, 38, 0
11, 39480, Note_on_c, 9, 35, 127
11, 39480, Note_on_c, 9, 42, 107
11, 39540, Note_on_c, 9, 42, 0
11, 39540, Note_on_c, 9, 35, 0
11, 39600, Note_on_c, 9, 35, 127
11, 39600, Note_on_c, 9, 42, 107
11, 39660, Note_on_c, 9, 42, 0
11, 39660, Note_on_c, 9, 35, 0
11, 39720, Note_on_c, 9, 35, 127
11, 39720, Note_on_c, 9, 42, 107
11, 39780, Note_on_c, 9, 42, 0
11, 39780, Note_on_c, 9, 35, 0
11, 39840, Note_on_c, 9, 38, 117
11, 39840, Note_on_c, 9, 42, 107
11, 39900, Note_on_c, 9, 42, 0
11, 39900, Note_on_c, 9, 38, 0
11, 39960, Note_on_c, 9, 47, 127
11, 40020, Note_on_c, 9, 47, 0
11, 40020, Note_on_c, 9, 47, 127
11, 40080, Note_on_c, 9, 47, 0
11, 40080, Note_on_c, 9, 47, 127
11, 40140, Note_on_c, 9, 47, 0
11, 40200, Note_on_c, 9, 47, 127
11, 40260, Note_on_c, 9, 47, 0
11, 40320, Note_on_c, 9, 38, 117
11, 40380, Note_on_c, 9, 38, 0
11, 40440, Note_on_c, 9, 42, 107
11, 40500, Note_on_c, 9, 42, 0
11, 40560, Note_on_c, 9, 35, 127
11, 40560, Note_on_c, 9, 42, 107
11, 40620, Note_on_c, 9, 42, 0
11, 40620, Note_on_c, 9, 35, 0
11, 40680, Note_on_c, 9, 35, 127
11, 40680, Note_on_c, 9, 42, 107
11, 40740, Note_on_c, 9, 42, 0
11, 40740, Note_on_c, 9, 35, 0
11, 40800, Note_on_c, 9, 38, 117
11, 40800, Note_on_c, 9, 42, 107
11, 40860, Note_on_c, 9, 42, 0
11, 40860, Note_on_c, 9, 38, 0
11, 40920, Note_on_c, 9, 35, 127
11, 40920, Note_on_c, 9, 42, 107
11, 40980, Note_on_c, 9, 42, 0
11, 40980, Note_on_c, 9, 35, 0
11, 41040, Note_on_c, 9, 35, 127
11, 41040, Note_on_c, 9, 42, 107
11, 41100, Note_on_c, 9, 42, 0
11, 41100, Note_on_c, 9, 35, 0
11, 41160, Note_on_c, 9, 42, 107
11, 41220, Note_on_c, 9, 42, 0
11, 41280, Note_on_c, 9, 38, 117
11, 41280, Note_on_c, 9, 42, 107
11, 41309, Note_on_c, 9, 42, 0
11, 41309, Note_on_c, 9, 38, 0
11, 41400, Note_on_c, 9, 35, 127
11, 41400, Note_on_c, 9, 42, 107
11, 41429, Note_on_c, 9, 42, 0
11, 41429, Note_on_c, 9, 35, 0
11, 41520, Note_on_c, 9, 35, 127
11, 41520, Note_on_c, 9, 42, 107
11, 41549, Note_on_c, 9, 42, 0
11, 41549, Note_on_c, 9, 35, 0
11, 41640, Note_on_c, 9, 35, 127
11, 41640, Note_on_c, 9, 42, 107
11, 41669, Note_on_c, 9, 42, 0
11, 41669, Note_on_c, 9, 35, 0
11, 41760, Note_on_c, 9, 38, 117
11, 41760, Note_on_c, 9, 42, 107
11, 41789, Note_on_c, 9, 42, 0
11, 41789, Note_on_c, 9, 38, 0
11, 41880, Note_on_c, 9, 35, 127
11, 41909, Note_on_c, 9, 35, 0
11, 42000, Note_on_c, 9, 47, 127
11, 42029, Note_on_c, 9, 47, 0
11, 42120, Note_on_c, 9, 47, 127
11, 42149, Note_on_c, 9, 47, 0
11, 42240, Note_on_c, 9, 38, 117
11, 42240, Note_on_c, 9, 42, 107
11, 42269, Note_on_c, 9, 42, 0
11, 42269, Note_on_c, 9, 38, 0
11, 42360, Note_on_c, 9, 42, 107
11, 42389, Note_on_c, 9, 42, 0
11, 42480, Note_on_c, 9, 35, 127
11, 42480, Note_on_c, 9, 42, 107
11, 42509, Note_on_c, 9, 42, 0
11, 42509, Note_on_c, 9, 35, 0
11, 42600, Note_on_c, 9, 35, 127
11, 42600, Note_on_c, 9, 42, 107
11, 42629, Note_on_c, 9, 42, 0
11, 42629, Note_on_c, 9, 35, 0
11, 42720, Note_on_c, 9, 38, 117
11, 42720, Note_on_c, 9, 42, 107
11, 42749, Note_on_c, 9, 42, 0
11, 42749, Note_on_c, 9, 38, 0
11, 42840, Note_on_c, 9, 35, 127
11, 42840, Note_on_c, 9, 42, 107
11, 42869, Note_on_c, 9, 42, 0
11, 42869, Note_on_c, 9, 35, 0
11, 42960, Note_on_c, 9, 35, 127
11, 42960, Note_on_c, 9, 42, 107
11, 42989, Note_on_c, 9, 42, 0
11, 42989, Note_on_c, 9, 35, 0
11, 43080, Note_on_c, 9, 42, 107
11, 43109, Note_on_c, 9, 42, 0
11, 43200, Note_on_c, 9, 38, 117
11, 43200, Note_on_c, 9, 42, 107
11, 43260, Note_on_c, 9, 42, 0
11, 43260, Note_on_c, 9, 38, 0
11, 43320, Note_on_c, 9, 35, 127
11, 43320, Note_on_c, 9, 42, 107
11, 43380, Note_on_c, 9, 42, 0
11, 43380, Note_on_c, 9, 35, 0
11, 43440, Note_on_c, 9, 35, 127
11, 43440, Note_on_c, 9, 42, 107
11, 43500, Note_on_c, 9, 42, 0
11, 43500, Note_on_c, 9, 35, 0
11, 43560, Note_on_c, 9, 35, 127
11, 43560, Note_on_c, 9, 42, 107
11, 43620, Note_on_c, 9, 42, 0
11, 43620, Note_on_c, 9, 35, 0
11, 43680, Note_on_c, 9, 38, 117
11, 43680, Note_on_c, 9, 42, 107
11, 43740, Note_on_c, 9, 42, 0
11, 43740, Note_on_c, 9, 38, 0
11, 43800, Note_on_c, 9, 35, 127
11, 43860, Note_on_c, 9, 35, 0
11, 43920, Note_on_c, 9, 48, 127
11, 43980, Note_on_c, 9, 48, 0
11, 44040, Note_on_c, 9, 47, 127
11, 44100, Note_on_c, 9, 47, 0
11, 44160, Note_on_c, 9, 38, 117
11, 44160, Note_on_c, 9, 42, 107
11, 44220, Note_on_c, 9, 42, 0
11, 44220, Note_on_c, 9, 38, 0
11, 44280, Note_on_c, 9, 42, 107
11, 44340, Note_on_c, 9, 42, 0
11, 44400, Note_on_c, 9, 35, 127
11, 44400, Note_on_c, 9, 42, 107
11, 44460, Note_on_c, 9, 42, 0
11, 44460, Note_on_c, 9, 35, 0
11, 44520, Note_on_c, 9, 35, 127
11, 44520, Note_on_c, 9, 42, 107
11, 44580, Note_on_c, 9, 42, 0
11, 44580, Note_on_c, 9, 35, 0
11, 44640, Note_on_c, 9, 38, 117
11, 44640, Note_on_c, 9, 42, 107
11, 44700, Note_on_c, 9, 42, 0
11, 44700, Note_on_c, 9, 38, 0
11, 44760, Note_on_c, 9, 35, 127
11, 44760, Note_on_c, 9, 42, 107
11, 44820, Note_on_c, 9, 42, 0
11, 44820, Note_on_c, 9, 35, 0
11, 44880, Note_on_c, 9, 35, 127
11, 44880, Note_on_c, 9, 42, 107
11, 44940, Note_on_c, 9, 42, 0
11, 44940, Note_on_c, 9, 35, 0
11, 45000, Note_on_c, 9, 42, 107
11, 45060, Note_on_c, 9, 42, 0
11, 45120, Note_on_c, 9, 38, 117
11, 45120, Note_on_c, 9, 42, 107
11, 45180, Note_on_c, 9, 42, 0
11, 45180, Note_on_c, 9, 38, 0
11, 45240, Note_on_c, 9, 35, 127
11, 45240, Note_on_c, 9, 42, 107
11, 45300, Note_on_c, 9, 42, 0
11, 45300, Note_on_c, 9, 35, 0
11, 45360, Note_on_c, 9, 35, 127
11, 45360, Note_on_c, 9, 42, 107
11, 45420, Note_on_c, 9, 42, 0
11, 45420, Note_on_c, 9, 35, 0
11, 45480, Note_on_c, 9, 35, 127
11, 45480, Note_on_c, 9, 42, 107
11, 45540, Note_on_c, 9, 42, 0
11, 45540, Note_on_c, 9, 35, 0
11, 45600, Note_on_c, 9, 38, 117
11, 45600, Note_on_c, 9, 42, 107
11, 45660, Note_on_c, 9, 42, 0
11, 45660, Note_on_c, 9, 38, 0
11, 45720, Note_on_c, 9, 35, 127
11, 45780, Note_on_c, 9, 35, 0
11, 45840, Note_on_c, 9, 47, 127
11, 45900, Note_on_c, 9, 47, 0
11, 45960, Note_on_c, 9, 47, 127
11, 46020, Note_on_c, 9, 47, 0
11, 46080, Note_on_c, 9, 38, 117
11, 46080, Note_on_c, 9, 42, 107
11, 46140, Note_on_c, 9, 42, 0
11, 46140, Note_on_c, 9, 38, 0
11, 46200, Note_on_c, 9, 42, 107
11, 46260, Note_on_c, 9, 42, 0
11, 46320, Note_on_c, 9, 35, 127
11, 46320, Note_on_c, 9, 42, 107
11, 46380, Note_on_c, 9, 42, 0
11, 46380, Note_on_c, 9, 35, 0
11, 46440, Note_on_c, 9, 35, 127
11, 46440, Note_on_c, 9, 42, 107
11, 46500, Note_on_c, 9, 42, 0
11, 46500, Note_on_c, 9, 35, 0
11, 46560, Note_on_c, 9, 38, 117
11, 46560, Note_on_c, 9, 42, 107
11, 46620, Note_on_c, 9, 42, 0
11, 46620, Note_on_c, 9, 38, 0
11, 46680, Note_on_c, 9, 35, 127
11, 46680, Note_on_c, 9, 42, 107
11, 46740, Note_on_c, 9, 42, 0
11, 46740, Note_on_c, 9, 35, 0
11, 46800, Note_on_c, 9, 35, 127
11, 46800, Note_on_c, 9, 42, 107
11, 46860, Note_on_c, 9, 42, 0
11, 46860, Note_on_c, 9, 35, 0
11, 46920, Note_on_c, 9, 42, 107
11, 46980, Note_on_c, 9, 42, 0
11, 47040, Note_on_c, 9, 38, 117
11, 47040, Note_on_c, 9, 42, 107
11, 47100, Note_on_c, 9, 42, 0
11, 47100, Note_on_c, 9, 38, 0
11, 47160, Note_on_c, 9, 35, 127
11, 47160, Note_on_c, 9, 42, 107
11, 47220, Note_on_c, 9, 42, 0
11, 47220, Note_on_c, 9, 35, 0
11, 47280, Note_on_c, 9, 35, 127
11, 47280, Note_on_c, 9, 42, 107
11, 47340, Note_on_c, 9, 42, 0
11, 47340, Note_on_c, 9, 35, 0
11, 47400, Note_on_c, 9, 35, 127
11, 47400, Note_on_c, 9, 42, 107
11, 47460, Note_on_c, 9, 42, 0
11, 47460, Note_on_c, 9, 35, 0
11, 47520, Note_on_c, 9, 38, 117
11, 47520, Note_on_c, 9, 42, 107
11, 47580, Note_on_c, 9, 42, 0
11, 47580, Note_on_c, 9, 38, 0
11, 47640, Note_on_c, 9, 47, 127
11, 47700, Note_on_c, 9, 47, 0
11, 47760, Note_on_c, 9, 48, 127
11, 47820, Note_on_c, 9, 48, 0
11, 47880, Note_on_c, 9, 47, 127
11, 47940, Note_on_c, 9, 47, 0
11, 48000, Note_on_c, 9, 38, 117
11, 48060, Note_on_c, 9, 38, 0
11, 48120, Note_on_c, 9, 45, 127
11, 48180, Note_on_c, 9, 45, 0
11, 48180, Note_on_c, 9, 45, 127
11, 48240, Note_on_c, 9, 45, 0
11, 48240, Note_on_c, 9, 57, 127
11, 48240, Note_on_c, 9, 35, 127
11, 48240, Note_on_c, 9, 49, 127
11, 48300, Note_on_c, 9, 49, 0
11, 48300, Note_on_c, 9, 35, 0
11, 48300, Note_on_c, 9, 57, 0
11, 48360, Note_on_c, 9, 42, 107
11, 48420, Note_on_c, 9, 42, 0
11, 48480, Note_on_c, 9, 35, 127
11, 48480, Note_on_c, 9, 42, 107
11, 48540, Note_on_c, 9, 42, 0
11, 48540, Note_on_c, 9, 35, 0
11, 48600, Note_on_c, 9, 42, 107
11, 48660, Note_on_c, 9, 42, 0
11, 48720, Note_on_c, 9, 35, 127
11, 48720, Note_on_c, 9, 42, 107
11, 48780, Note_on_c, 9, 42, 0
11, 48780, Note_on_c, 9, 35, 0
11, 48840, Note_on_c, 9, 42, 107
11, 48900, Note_on_c, 9, 42, 0
11, 48960, Note_on_c, 9, 35, 127
11, 48960, Note_on_c, 9, 42, 107
11, 49020, Note_on_c, 9, 42, 0
11, 49020, Note_on_c, 9, 35, 0
11, 49080, Note_on_c, 9, 42, 107
11, 49140, Note_on_c, 9, 42, 0
11, 49200, Note_on_c, 9, 35, 127
11, 49200, Note_on_c, 9, 42, 107
11, 49260, Note_on_c, 9, 42, 0
11, 49260, Note_on_c, 9, 35, 0
11, 49320, Note_on_c, 9, 42, 107
11, 49380, Note_on_c, 9, 42, 0
11, 49440, Note_on_c, 9, 35, 127
11, 49440, Note_on_c, 9, 42, 107
11, 49500, Note_on_c, 9, 42, 0
11, 49500, Note_on_c, 9, 35, 0
11, 49560, Note_on_c, 9, 42, 107
11, 49620, Note_on_c, 9, 42, 0
11, 49680, Note_on_c, 9, 35, 127
11, 49680, Note_on_c, 9, 42, 107
11, 49740, Note_on_c, 9, 42, 0
11, 49740, Note_on_c, 9, 35, 0
11, 49800, Note_on_c, 9, 42, 107
11, 49860, Note_on_c, 9, 42, 0
11, 49920, Note_on_c, 9, 35, 127
11, 49920, Note_on_c, 9, 42, 107
11, 49980, Note_on_c, 9, 42, 0
11, 49980, Note_on_c, 9, 35, 0
11, 50040, Note_on_c, 9, 42, 107
11, 50100, Note_on_c, 9, 42, 0
11, 50160, Note_on_c, 9, 35, 127
11, 50160, Note_on_c, 9, 42, 107
11, 50220, Note_on_c, 9, 42, 0
11, 50220, Note_on_c, 9, 35, 0
11, 50280, Note_on_c, 9, 42, 107
11, 50340, Note_on_c, 9, 42, 0
11, 50400, Note_on_c, 9, 35, 127
11, 50400, Note_on_c, 9, 42, 107
11, 50460, Note_on_c, 9, 42, 0
11, 50460, Note_on_c, 9, 35, 0
11, 50520, Note_on_c, 9, 42, 107
11, 50580, Note_on_c, 9, 42, 0
11, 50640, Note_on_c, 9, 35, 127
11, 50640, Note_on_c, 9, 42, 107
11, 50700, Note_on_c, 9, 42, 0
11, 50700, Note_on_c, 9, 35, 0
11, 50760, Note_on_c, 9, 42, 107
11, 50820, Note_on_c, 9, 42, 0
11, 50880, Note_on_c, 9, 35, 127
11, 50880, Note_on_c, 9, 42, 107
11, 50940, Note_on_c, 9, 42, 0
11, 50940, Note_on_c, 9, 35, 0
11, 51000, Note_on_c, 9, 42, 107
11, 51060, Note_on_c, 9, 42, 0
11, 51120, Note_on_c, 9, 35, 127
11, 51120, Note_on_c, 9, 42, 107
11, 51180, Note_on_c, 9, 42, 0
11, 51180, Note_on_c, 9, 35, 0
11, 51240, Note_on_c, 9, 42, 107
11, 51300, Note_on_c, 9, 42, 0
11, 51360, Note_on_c, 9, 35, 127
11, 51360, Note_on_c, 9, 42, 107
11, 51420, Note_on_c, 9, 42, 0
11, 51420, Note_on_c, 9, 35, 0
11, 51480, Note_on_c, 9, 42, 107
11, 51540, Note_on_c, 9, 42, 0
11, 51600, Note_on_c, 9, 35, 127
11, 51600, Note_on_c, 9, 42, 107
11, 51660, Note_on_c, 9, 42, 0
11, 51660, Note_on_c, 9, 35, 0
11, 51720, Note_on_c, 9, 42, 107
11, 51780, Note_on_c, 9, 42, 0
11, 51840, Note_on_c, 9, 35, 127
11, 51840, Note_on_c, 9, 42, 107
11, 51900, Note_on_c, 9, 42, 0
11, 51900, Note_on_c, 9, 35, 0
11, 51960, Note_on_c, 9, 42, 107
11, 52020, Note_on_c, 9, 42, 0
11, 52080, Note_on_c, 9, 35, 127
11, 52080, Note_on_c, 9, 42, 107
11, 52140, Note_on_c, 9, 42, 0
11, 52140, Note_on_c, 9, 35, 0
11, 52200, Note_on_c, 9, 42, 107
11, 52260, Note_on_c, 9, 42, 0
11, 52320, Note_on_c, 9, 35, 127
11, 52320, Note_on_c, 9, 42, 107
11, 52380, Note_on_c, 9, 42, 0
11, 52380, Note_on_c, 9, 35, 0
11, 52440, Note_on_c, 9, 42, 107
11, 52500, Note_on_c, 9, 42, 0
11, 52560, Note_on_c, 9, 35, 127
11, 52560, Note_on_c, 9, 42, 107
11, 52620, Note_on_c, 9, 42, 0
11, 52620, Note_on_c, 9, 35, 0
11, 52680, Note_on_c, 9, 42, 107
11, 52740, Note_on_c, 9, 42, 0
11, 52800, Note_on_c, 9, 35, 127
11, 52800, Note_on_c, 9, 42, 107
11, 52860, Note_on_c, 9, 42, 0
11, 52860, Note_on_c, 9, 35, 0
11, 52920, Note_on_c, 9, 42, 107
11, 52980, Note_on_c, 9, 42, 0
11, 53040, Note_on_c, 9, 35, 127
11, 53040, Note_on_c, 9, 46, 107
11, 53100, Note_on_c, 9, 46, 0
11, 53100, Note_on_c, 9, 35, 0
11, 53160, Note_on_c, 9, 38, 117
11, 53220, Note_on_c, 9, 38, 0
11, 53220, Note_on_c, 9, 38, 117
11, 53280, Note_on_c, 9, 38, 0
11, 53280, Note_on_c, 9, 35, 127
11, 53280, Note_on_c, 9, 46, 107
11, 53340, Note_on_c, 9, 46, 0
11, 53340, Note_on_c, 9, 35, 0
11, 53400, Note_on_c, 9, 38, 117
11, 53460, Note_on_c, 9, 38, 0
11, 53520, Note_on_c, 9, 35, 127
11, 53520, Note_on_c, 9, 46, 107
11, 53580, Note_on_c, 9, 46, 0
11, 53580, Note_on_c, 9, 35, 0
11, 53640, Note_on_c, 9, 38, 117
11, 53700, Note_on_c, 9, 38, 0
11, 53760, Note_on_c, 9, 35, 127
11, 53760, Note_on_c, 9, 46, 107
11, 53820, Note_on_c, 9, 46, 0
11, 53820, Note_on_c, 9, 35, 0
11, 53820, Note_on_c, 9, 38, 117
11, 53880, Note_on_c, 9, 38, 0
11, 53880, Note_on_c, 9, 38, 117
11, 53940, Note_on_c, 9, 38, 0
11, 54000, Note_on_c, 9, 35, 127
11, 54000, Note_on_c, 9, 46, 107
11, 54060, Note_on_c, 9, 46, 0
11, 54060, Note_on_c, 9, 35, 0
11, 54120, Note_on_c, 9, 38, 117
11, 54180, Note_on_c, 9, 38, 0
11, 54180, Note_on_c, 9, 38, 117
11, 54240, Note_on_c, 9, 38, 0
11, 54240, Note_on_c, 9, 35, 127
11, 54240, Note_on_c, 9, 46, 107
11, 54300, Note_on_c, 9, 46, 0
11, 54300, Note_on_c, 9, 35, 0
11, 54360, Note_on_c, 9, 38, 117
11, 54420, Note_on_c, 9, 38, 0
11, 54420, Note_on_c, 9, 38, 117
11, 54480, Note_on_c, 9, 38, 0
11, 54480, Note_on_c, 9, 35, 127
11, 54480, Note_on_c, 9, 46, 107
11, 54540, Note_on_c, 9, 46, 0
11, 54540, Note_on_c, 9, 35, 0
11, 54540, Note_on_c, 9, 38, 117
11, 54600, Note_on_c, 9, 38, 0
11, 54600, Note_on_c, 9, 38, 117
11, 54660, Note_on_c, 9, 38, 0
11, 54720, Note_on_c, 9, 35, 127
11, 54720, Note_on_c, 9, 38, 117
11, 54720, Note_on_c, 9, 49, 127
11, 54780, Note_on_c, 9, 49, 0
11, 54780, Note_on_c, 9, 38, 0
11, 54780, Note_on_c, 9, 35, 0
11, 54960, Note_on_c, 9, 35, 127
11, 54960, Note_on_c, 9, 46, 107
11, 55020, Note_on_c, 9, 46, 0
11, 55020, Note_on_c, 9, 35, 0
11, 55080, Note_on_c, 9, 38, 117
11, 55140, Note_on_c, 9, 38, 0
11, 55140, Note_on_c, 9, 38, 117
11, 55200, Note_on_c, 9, 38, 0
11, 55200, Note_on_c, 9, 35, 127
11, 55200, Note_on_c, 9, 46, 107
11, 55260, Note_on_c, 9, 46, 0
11, 55260, Note_on_c, 9, 35, 0
11, 55320, Note_on_c, 9, 38, 117
11, 55380, Note_on_c, 9, 38, 0
11, 55440, Note_on_c, 9, 35, 127
11, 55440, Note_on_c, 9, 46, 107
11, 55500, Note_on_c, 9, 46, 0
11, 55500, Note_on_c, 9, 35, 0
11, 55560, Note_on_c, 9, 38, 117
11, 55620, Note_on_c, 9, 38, 0
11, 55680, Note_on_c, 9, 35, 127
11, 55680, Note_on_c, 9, 46, 107
11, 55740, Note_on_c, 9, 46, 0
11, 55740, Note_on_c, 9, 35, 0
11, 55740, Note_on_c, 9, 38, 117
11, 55800, Note_on_c, 9, 38, 0
11, 55800, Note_on_c, 9, 38, 117
11, 55860, Note_on_c, 9, 38, 0
11, 55920, Note_on_c, 9, 35, 127
11, 55920, Note_on_c, 9, 46, 107
11, 55980, Note_on_c, 9, 46, 0
11, 55980, Note_on_c, 9, 35, 0
11, 56040, Note_on_c, 9, 38, 117
11, 56100, Note_on_c, 9, 38, 0
11, 56100, Note_on_c, 9, 38, 117
11, 56160, Note_on_c, 9, 38, 0
11, 56160, Note_on_c, 9, 35, 127
11, 56160, Note_on_c, 9, 46, 107
11, 56220, Note_on_c, 9, 46, 0
11, 56220, Note_on_c, 9, 35, 0
11, 56280, Note_on_c, 9, 38, 117
11, 56340, Note_on_c, 9, 38, 0
11, 56340, Note_on_c, 9, 38, 117
11, 56400, Note_on_c, 9, 38, 0
11, 56400, Note_on_c, 9, 35, 127
11, 56400, Note_on_c, 9, 46, 107
11, 56460, Note_on_c, 9, 46, 0
11, 56460, Note_on_c, 9, 35, 0
11, 56460, Note_on_c, 9, 38, 117
11, 56520, Note_on_c, 9, 38, 0
11, 56520, Note_on_c, 9, 38, 117
11, 56580, Note_on_c, 9, 38, 0
11, 56640, Note_on_c, 9, 35, 127
11, 56640, Note_on_c, 9, 38, 117
11, 56640, Note_on_c, 9, 49, 127
11, 56700, Note_on_c, 9, 49, 0
11, 56700, Note_on_c, 9, 38, 0
11, 56700, Note_on_c, 9, 35, 0
11, 56880, Note_on_c, 9, 57, 127
11, 56880, Note_on_c, 9, 35, 127
11, 56940, Note_on_c, 9, 35, 0
11, 56940, Note_on_c, 9, 57, 0
11, 57000, Note_on_c, 9, 35, 127
11, 57060, Note_on_c, 9, 35, 0
11, 57120, Note_on_c, 9, 38, 117
11, 57120, Note_on_c, 9, 46, 107
11, 57180, Note_on_c, 9, 46, 0
11, 57180, Note_on_c, 9, 38, 0
11, 57240, Note_on_c, 9, 35, 127
11, 57300, Note_on_c, 9, 35, 0
11, 57360, Note_on_c, 9, 35, 127
11, 57360, Note_on_c, 9, 46, 107
11, 57420, Note_on_c, 9, 46, 0
11, 57420, Note_on_c, 9, 35, 0
11, 57600, Note_on_c, 9, 38, 117
11, 57600, Note_on_c, 9, 46, 107
11, 57660, Note_on_c, 9, 46, 0
11, 57660, Note_on_c, 9, 38, 0
11, 57840, Note_on_c, 9, 35, 127
11, 57840, Note_on_c, 9, 46, 107
11, 57900, Note_on_c, 9, 46, 0
11, 57900, Note_on_c, 9, 35, 0
11, 57960, Note_on_c, 9, 35, 127
11, 58020, Note_on_c, 9, 35, 0
11, 58080, Note_on_c, 9, 38, 117
11, 58080, Note_on_c, 9, 46, 107
11, 58140, Note_on_c, 9, 46, 0
11, 58140, Note_on_c, 9, 38, 0
11, 58200, Note_on_c, 9, 35, 127
11, 58260, Note_on_c, 9, 35, 0
11, 58320, Note_on_c, 9, 35, 127
11, 58320, Note_on_c, 9, 46, 107
11, 58380, Note_on_c, 9, 46, 0
11, 58380, Note_on_c, 9, 35, 0
11, 58500, Note_on_c, 9, 35, 127
11, 58560, Note_on_c, 9, 35, 0
11, 58560, Note_on_c, 9, 38, 117
11, 58560, Note_on_c, 9, 46, 107
11, 58620, Note_on_c, 9, 46, 0
11, 58620, Note_on_c, 9, 38, 0
11, 58680, Note_on_c, 9, 35, 127
11, 58740, Note_on_c, 9, 35, 0
11, 58800, Note_on_c, 9, 35, 127
11, 58800, Note_on_c, 9, 46, 107
11, 58860, Note_on_c, 9, 46, 0
11, 58860, Note_on_c, 9, 35, 0
11, 58980, Note_on_c, 9, 35, 127
11, 59040, Note_on_c, 9, 35, 0
11, 59040, Note_on_c, 9, 38, 117
11, 59040, Note_on_c, 9, 46, 107
11, 59100, Note_on_c, 9, 46, 0
11, 59100, Note_on_c, 9, 38, 0
11, 59160, Note_on_c, 9, 35, 127
11, 59220, Note_on_c, 9, 35, 0
11, 59280, Note_on_c, 9, 35, 127
11, 59280, Note_on_c, 9, 46, 107
11, 59340, Note_on_c, 9, 46, 0
11, 59340, Note_on_c, 9, 35, 0
11, 59520, Note_on_c, 9, 38, 117
11, 59520, Note_on_c, 9, 46, 107
11, 59580, Note_on_c, 9, 46, 0
11, 59580, Note_on_c, 9, 38, 0
11, 59760, Note_on_c, 9, 35, 127
11, 59760, Note_on_c, 9, 46, 107
11, 59820, Note_on_c, 9, 46, 0
11, 59820, Note_on_c, 9, 35, 0
11, 59880, Note_on_c, 9, 35, 127
11, 59940, Note_on_c, 9, 35, 0
11, 60000, Note_on_c, 9, 38, 117
11, 60000, Note_on_c, 9, 46, 107
11, 60060, Note_on_c, 9, 46, 0
11, 60060, Note_on_c, 9, 38, 0
11, 60120, Note_on_c, 9, 35, 127
11, 60180, Note_on_c, 9, 35, 0
11, 60240, Note_on_c, 9, 35, 127
11, 60240, Note_on_c, 9, 46, 107
11, 60300, Note_on_c, 9, 46, 0
11, 60300, Note_on_c, 9, 35, 0
11, 60420, Note_on_c, 9, 35, 127
11, 60480, Note_on_c, 9, 35, 0
11, 60480, Note_on_c, 9, 38, 117
11, 60480, Note_on_c, 9, 49, 127
11, 60540, Note_on_c, 9, 49, 0
11, 60540, Note_on_c, 9, 38, 0
11, 60600, Note_on_c, 9, 35, 127
11, 60660, Note_on_c, 9, 35, 0
11, 60720, Note_on_c, 9, 57, 127
11, 60720, Note_on_c, 9, 35, 127
11, 60780, Note_on_c, 9, 35, 0
11, 60780, Note_on_c, 9, 57, 0
11, 60900, Note_on_c, 9, 35, 127
11, 60960, Note_on_c, 9, 35, 0
11, 60960, Note_on_c, 9, 38, 117
11, 60960, Note_on_c, 9, 46, 107
11, 61020, Note_on_c, 9, 46, 0
11, 61020, Note_on_c, 9, 38, 0
11, 61080, Note_on_c, 9, 35, 127
11, 61140, Note_on_c, 9, 35, 0
11, 61200, Note_on_c, 9, 35, 127
11, 61200, Note_on_c, 9, 46, 107
11, 61260, Note_on_c, 9, 46, 0
11, 61260, Note_on_c, 9, 35, 0
11, 61440, Note_on_c, 9, 38, 117
11, 61440, Note_on_c, 9, 46, 107
11, 61500, Note_on_c, 9, 46, 0
11, 61500, Note_on_c, 9, 38, 0
11, 61680, Note_on_c, 9, 35, 127
11, 61680, Note_on_c, 9, 46, 107
11, 61740, Note_on_c, 9, 46, 0
11, 61740, Note_on_c, 9, 35, 0
11, 61800, Note_on_c, 9, 35, 127
11, 61860, Note_on_c, 9, 35, 0
11, 61920, Note_on_c, 9, 38, 117
11, 61920, Note_on_c, 9, 46, 107
11, 61980, Note_on_c, 9, 46, 0
11, 61980, Note_on_c, 9, 38, 0
11, 62040, Note_on_c, 9, 35, 127
11, 62100, Note_on_c, 9, 35, 0
11, 62160, Note_on_c, 9, 35, 127
11, 62160, Note_on_c, 9, 46, 107
11, 62220, Note_on_c, 9, 46, 0
11, 62220, Note_on_c, 9, 35, 0
11, 62340, Note_on_c, 9, 35, 127
11, 62400, Note_on_c, 9, 35, 0
11, 62400, Note_on_c, 9, 38, 117
11, 62400, Note_on_c, 9, 46, 107
11, 62460, Note_on_c, 9, 46, 0
11, 62460, Note_on_c, 9, 38, 0
11, 62520, Note_on_c, 9, 35, 127
11, 62580, Note_on_c, 9, 35, 0
11, 62640, Note_on_c, 9, 35, 127
11, 62640, Note_on_c, 9, 46, 107
11, 62700, Note_on_c, 9, 46, 0
11, 62700, Note_on_c, 9, 35, 0
11, 62820, Note_on_c, 9, 35, 127
11, 62880, Note_on_c, 9, 35, 0
11, 62880, Note_on_c, 9, 38, 117
11, 62880, Note_on_c, 9, 46, 107
11, 62940, Note_on_c, 9, 46, 0
11, 62940, Note_on_c, 9, 38, 0
11, 63000, Note_on_c, 9, 35, 127
11, 63060, Note_on_c, 9, 35, 0
11, 63120, Note_on_c, 9, 35, 127
11, 63120, Note_on_c, 9, 46, 107
11, 63180, Note_on_c, 9, 46, 0
11, 63180, Note_on_c, 9, 35, 0
11, 63360, Note_on_c, 9, 38, 117
11, 63360, Note_on_c, 9, 46, 107
11, 63420, Note_on_c, 9, 46, 0
11, 63420, Note_on_c, 9, 38, 0
11, 63480, Note_on_c, 9, 38, 117
11, 63540, Note_on_c, 9, 38, 0
11, 63540, Note_on_c, 9, 38, 117
11, 63600, Note_on_c, 9, 38, 0
11, 63600, Note_on_c, 9, 57, 127
11, 63600, Note_on_c, 9, 35, 127
11, 63600, Note_on_c, 9, 49, 127
11, 63660, Note_on_c, 9, 49, 0
11, 63660, Note_on_c, 9, 35, 0
11, 63660, Note_on_c, 9, 57, 0
11, 65520, Note_on_c, 9, 35, 127
11, 65580, Note_on_c, 9, 35, 0
11, 65640, Note_on_c, 9, 35, 127
11, 65700, Note_on_c, 9, 35, 0
11, 65760, Note_on_c, 9, 35, 127
11, 65820, Note_on_c, 9, 35, 0
11, 65880, Note_on_c, 9, 35, 127
11, 65940, Note_on_c, 9, 35, 0
11, 66000, Note_on_c, 9, 35, 127
11, 66060, Note_on_c, 9, 35, 0
11, 66120, Note_on_c, 9, 35, 127
11, 66180, Note_on_c, 9, 35, 0
11, 66240, Note_on_c, 9, 35, 127
11, 66300, Note_on_c, 9, 35, 0
11, 66360, Note_on_c, 9, 35, 127
11, 66420, Note_on_c, 9, 35, 0
11, 66480, Note_on_c, 9, 35, 127
11, 66540, Note_on_c, 9, 35, 0
11, 66600, Note_on_c, 9, 35, 127
11, 66660, Note_on_c, 9, 35, 0
11, 66720, Note_on_c, 9, 35, 127
11, 66780, Note_on_c, 9, 35, 0
11, 66840, Note_on_c, 9, 35, 127
11, 66900, Note_on_c, 9, 35, 0
11, 66960, Note_on_c, 9, 35, 127
11, 67020, Note_on_c, 9, 35, 0
11, 67080, Note_on_c, 9, 35, 127
11, 67140, Note_on_c, 9, 35, 0
11, 67200, Note_on_c, 9, 35, 127
11, 67260, Note_on_c, 9, 35, 0
11, 67320, Note_on_c, 9, 35, 127
11, 67380, Note_on_c, 9, 35, 0
11, 67440, Note_on_c, 9, 35, 127
11, 67440, Note_on_c, 9, 46, 107
11, 67500, Note_on_c, 9, 46, 0
11, 67500, Note_on_c, 9, 35, 0
11, 67560, Note_on_c, 9, 38, 117
11, 67620, Note_on_c, 9, 38, 0
11, 67620, Note_on_c, 9, 38, 117
11, 67680, Note_on_c, 9, 38, 0
11, 67680, Note_on_c, 9, 35, 127
11, 67680, Note_on_c, 9, 46, 107
11, 67740, Note_on_c, 9, 46, 0
11, 67740, Note_on_c, 9, 35, 0
11, 67800, Note_on_c, 9, 38, 117
11, 67860, Note_on_c, 9, 38, 0
11, 67920, Note_on_c, 9, 35, 127
11, 67920, Note_on_c, 9, 46, 107
11, 67980, Note_on_c, 9, 46, 0
11, 67980, Note_on_c, 9, 35, 0
11, 68040, Note_on_c, 9, 38, 117
11, 68100, Note_on_c, 9, 38, 0
11, 68160, Note_on_c, 9, 35, 127
11, 68160, Note_on_c, 9, 46, 107
11, 68220, Note_on_c, 9, 46, 0
11, 68220, Note_on_c, 9, 35, 0
11, 68220, Note_on_c, 9, 38, 117
11, 68280, Note_on_c, 9, 38, 0
11, 68280, Note_on_c, 9, 38, 117
11, 68340, Note_on_c, 9, 38, 0
11, 68400, Note_on_c, 9, 35, 127
11, 68400, Note_on_c, 9, 38, 117
11, 68400, Note_on_c, 9, 49, 127
11, 68460, Note_on_c, 9, 49, 0
11, 68460, Note_on_c, 9, 38, 0
11, 68460, Note_on_c, 9, 35, 0
11, 68520, Note_on_c, 9, 38, 117
11, 68580, Note_on_c, 9, 38, 0
11, 68580, Note_on_c, 9, 38, 117
11, 68640, Note_on_c, 9, 38, 0
11, 68640, Note_on_c, 9, 35, 127
11, 68640, Note_on_c, 9, 46, 107
11, 68700, Note_on_c, 9, 46, 0
11, 68700, Note_on_c, 9, 35, 0
11, 68760, Note_on_c, 9, 38, 117
11, 68820, Note_on_c, 9, 38, 0
11, 68880, Note_on_c, 9, 35, 127
11, 68880, Note_on_c, 9, 46, 107
11, 68940, Note_on_c, 9, 46, 0
11, 68940, Note_on_c, 9, 35, 0
11, 69000, Note_on_c, 9, 38, 117
11, 69060, Note_on_c, 9, 38, 0
11, 69120, Note_on_c, 9, 35, 127
11, 69120, Note_on_c, 9, 46, 107
11, 69180, Note_on_c, 9, 46, 0
11, 69180, Note_on_c, 9, 35, 0
11, 69180, Note_on_c, 9, 38, 117
11, 69240, Note_on_c, 9, 38, 0
11, 69240, Note_on_c, 9, 38, 117
11, 69300, Note_on_c, 9, 38, 0
11, 69360, Note_on_c, 9, 35, 127
11, 69360, Note_on_c, 9, 46, 107
11, 69420, Note_on_c, 9, 46, 0
11, 69420, Note_on_c, 9, 35, 0
11, 69480, Note_on_c, 9, 38, 117
11, 69540, Note_on_c, 9, 38, 0
11, 69540, Note_on_c, 9, 38, 117
11, 69600, Note_on_c, 9, 38, 0
11, 69600, Note_on_c, 9, 35, 127
11, 69600, Note_on_c, 9, 46, 107
11, 69660, Note_on_c, 9, 46, 0
11, 69660, Note_on_c, 9, 35, 0
11, 69720, Note_on_c, 9, 38, 117
11, 69780, Note_on_c, 9, 38, 0
11, 69840, Note_on_c, 9, 35, 127
11, 69840, Note_on_c, 9, 38, 117
11, 69840, Note_on_c, 9, 49, 127
11, 69900, Note_on_c, 9, 49, 0
11, 69900, Note_on_c, 9, 38, 0
11, 69900, Note_on_c, 9, 35, 0
11, 69960, Note_on_c, 9, 38, 117
11, 70020, Note_on_c, 9, 38, 0
11, 70020, Note_on_c, 9, 38, 117
11, 70080, Note_on_c, 9, 38, 0
11, 70080, Note_on_c, 9, 35, 127
11, 70080, Note_on_c, 9, 46, 107
11, 70140, Note_on_c, 9, 46, 0
11, 70140, Note_on_c, 9, 35, 0
11, 70200, Note_on_c, 9, 38, 117
11, 70260, Note_on_c, 9, 38, 0
11, 70320, Note_on_c, 9, 35, 127
11, 70320, Note_on_c, 9, 46, 107
11, 70380, Note_on_c, 9, 46, 0
11, 70380, Note_on_c, 9, 35, 0
11, 70440, Note_on_c, 9, 38, 117
11, 70500, Note_on_c, 9, 38, 0
11, 70560, Note_on_c, 9, 35, 127
11, 70560, Note_on_c, 9, 46, 107
11, 70620, Note_on_c, 9, 46, 0
11, 70620, Note_on_c, 9, 35, 0
11, 70680, Note_on_c, 9, 38, 117
11, 70740, Note_on_c, 9, 38, 0
11, 70740, Note_on_c, 9, 38, 117
11, 70800, Note_on_c, 9, 38, 0
11, 70800, Note_on_c, 9, 35, 127
11, 70800, Note_on_c, 9, 46, 107
11, 70860, Note_on_c, 9, 46, 0
11, 70860, Note_on_c, 9, 35, 0
11, 70980, Note_on_c, 9, 38, 117
11, 71040, Note_on_c, 9, 38, 0
11, 71040, Note_on_c, 9, 35, 127
11, 71040, Note_on_c, 9, 46, 107
11, 71100, Note_on_c, 9, 46, 0
11, 71100, Note_on_c, 9, 35, 0
11, 71100, Note_on_c, 9, 38, 117
11, 71160, Note_on_c, 9, 38, 0
11, 71160, Note_on_c, 9, 38, 117
11, 71220, Note_on_c, 9, 38, 0
11, 71220, Note_on_c, 9, 38, 117
11, 71280, Note_on_c, 9, 38, 0
11, 71280, Note_on_c, 9, 35, 127
11, 71280, Note_on_c, 9, 46, 107
11, 71340, Note_on_c, 9, 46, 0
11, 71340, Note_on_c, 9, 35, 0
11, 71340, Note_on_c, 9, 38, 117
11, 71400, Note_on_c, 9, 38, 0
11, 71400, Note_on_c, 9, 38, 117
11, 71460, Note_on_c, 9, 38, 0
11, 71520, Note_on_c, 9, 35, 127
11, 71520, Note_on_c, 9, 38, 117
11, 71520, Note_on_c, 9, 49, 127
11, 71580, Note_on_c, 9, 49, 0
11, 71580, Note_on_c, 9, 38, 0
11, 71580, Note_on_c, 9, 35, 0
11, 71760, Note_on_c, 9, 57, 127
11, 71760, Note_on_c, 9, 35, 127
11, 71820, Note_on_c, 9, 35, 0
11, 71820, Note_on_c, 9, 57, 0
11, 71880, Note_on_c, 9, 35, 127
11, 71880, Note_on_c, 9, 42, 107
11, 71940, Note_on_c, 9, 42, 0
11, 71940, Note_on_c, 9, 35, 0
11, 72000, Note_on_c, 9, 38, 117
11, 72000, Note_on_c, 9, 42, 107
11, 72060, Note_on_c, 9, 42, 0
11, 72060, Note_on_c, 9, 38, 0
11, 72120, Note_on_c, 9, 35, 127
11, 72120, Note_on_c, 9, 42, 107
11, 72180, Note_on_c, 9, 42, 0
11, 72180, Note_on_c, 9, 35, 0
11, 72240, Note_on_c, 9, 35, 127
11, 72240, Note_on_c, 9, 42, 107
11, 72300, Note_on_c, 9, 42, 0
11, 72300, Note_on_c, 9, 35, 0
11, 72360, Note_on_c, 9, 42, 107
11, 72420, Note_on_c, 9, 42, 0
11, 72480, Note_on_c, 9, 38, 117
11, 72480, Note_on_c, 9, 42, 107
11, 72540, Note_on_c, 9, 42, 0
11, 72540, Note_on_c, 9, 38, 0
11, 72600, Note_on_c, 9, 35, 127
11, 72600, Note_on_c, 9, 42, 107
11, 72660, Note_on_c, 9, 42, 0
11, 72660, Note_on_c, 9, 35, 0
11, 72720, Note_on_c, 9, 35, 127
11, 72720, Note_on_c, 9, 42, 107
11, 72780, Note_on_c, 9, 42, 0
11, 72780, Note_on_c, 9, 35, 0
11, 72840, Note_on_c, 9, 35, 127
11, 72840, Note_on_c, 9, 42, 107
11, 72900, Note_on_c, 9, 42, 0
11, 72900, Note_on_c, 9, 35, 0
11, 72960, Note_on_c, 9, 38, 117
11, 72960, Note_on_c, 9, 42, 107
11, 73020, Note_on_c, 9, 42, 0
11, 73020, Note_on_c, 9, 38, 0
11, 73080, Note_on_c, 9, 35, 127
11, 73080, Note_on_c, 9, 42, 107
11, 73140, Note_on_c, 9, 42, 0
11, 73140, Note_on_c, 9, 35, 0
11, 73200, Note_on_c, 9, 35, 127
11, 73200, Note_on_c, 9, 42, 107
11, 73260, Note_on_c, 9, 42, 0
11, 73260, Note_on_c, 9, 35, 0
11, 73320, Note_on_c, 9, 47, 127
11, 73380, Note_on_c, 9, 47, 0
11, 73440, Note_on_c, 9, 38, 117
11, 73500, Note_on_c, 9, 38, 0
11, 73560, Note_on_c, 9, 35, 127
11, 73620, Note_on_c, 9, 35, 0
11, 73680, Note_on_c, 9, 35, 127
11, 73680, Note_on_c, 9, 42, 107
11, 73740, Note_on_c, 9, 42, 0
11, 73740, Note_on_c, 9, 35, 0
11, 73800, Note_on_c, 9, 42, 107
11, 73860, Note_on_c, 9, 42, 0
11, 73920, Note_on_c, 9, 38, 117
11, 73920, Note_on_c, 9, 42, 107
11, 73980, Note_on_c, 9, 42, 0
11, 73980, Note_on_c, 9, 38, 0
11, 74040, Note_on_c, 9, 35, 127
11, 74040, Note_on_c, 9, 42, 107
11, 74100, Note_on_c, 9, 42, 0
11, 74100, Note_on_c, 9, 35, 0
11, 74160, Note_on_c, 9, 35, 127
11, 74160, Note_on_c, 9, 42, 107
11, 74220, Note_on_c, 9, 42, 0
11, 74220, Note_on_c, 9, 35, 0
11, 74280, Note_on_c, 9, 42, 107
11, 74340, Note_on_c, 9, 42, 0
11, 74400, Note_on_c, 9, 38, 117
11, 74400, Note_on_c, 9, 42, 107
11, 74460, Note_on_c, 9, 42, 0
11, 74460, Note_on_c, 9, 38, 0
11, 74520, Note_on_c, 9, 35, 127
11, 74520, Note_on_c, 9, 42, 107
11, 74580, Note_on_c, 9, 42, 0
11, 74580, Note_on_c, 9, 35, 0
11, 74640, Note_on_c, 9, 35, 127
11, 74640, Note_on_c, 9, 42, 107
11, 74700, Note_on_c, 9, 42, 0
11, 74700, Note_on_c, 9, 35, 0
11, 74760, Note_on_c, 9, 35, 127
11, 74760, Note_on_c, 9, 42, 107
11, 74820, Note_on_c, 9, 42, 0
11, 74820, Note_on_c, 9, 35, 0
11, 74880, Note_on_c, 9, 38, 117
11, 74880, Note_on_c, 9, 42, 107
11, 74940, Note_on_c, 9, 42, 0
11, 74940, Note_on_c, 9, 38, 0
11, 75000, Note_on_c, 9, 35, 127
11, 75000, Note_on_c, 9, 42, 107
11, 75060, Note_on_c, 9, 42, 0
11, 75060, Note_on_c, 9, 35, 0
11, 75120, Note_on_c, 9, 35, 127
11, 75120, Note_on_c, 9, 42, 107
11, 75180, Note_on_c, 9, 42, 0
11, 75180, Note_on_c, 9, 35, 0
11, 75240, Note_on_c, 9, 47, 127
11, 75300, Note_on_c, 9, 47, 0
11, 75360, Note_on_c, 9, 38, 117
11, 75420, Note_on_c, 9, 38, 0
11, 75480, Note_on_c, 9, 35, 127
11, 75540, Note_on_c, 9, 35, 0
11, 75600, Note_on_c, 9, 35, 127
11, 75600, Note_on_c, 9, 42, 107
11, 75660, Note_on_c, 9, 42, 0
11, 75660, Note_on_c, 9, 35, 0
11, 75720, Note_on_c, 9, 42, 107
11, 75780, Note_on_c, 9, 42, 0
11, 75840, Note_on_c, 9, 38, 117
11, 75840, Note_on_c, 9, 42, 107
11, 75900, Note_on_c, 9, 42, 0
11, 75900, Note_on_c, 9, 38, 0
11, 75960, Note_on_c, 9, 42, 107
11, 76020, Note_on_c, 9, 42, 0
11, 76080, Note_on_c, 9, 42, 107
11, 76140, Note_on_c, 9, 42, 0
11, 76200, Note_on_c, 9, 35, 127
11, 76200, Note_on_c, 9, 42, 107
11, 76260, Note_on_c, 9, 42, 0
11, 76260, Note_on_c, 9, 35, 0
11, 76320, Note_on_c, 9, 38, 117
11, 76320, Note_on_c, 9, 42, 107
11, 76380, Note_on_c, 9, 42, 0
11, 76380, Note_on_c, 9, 38, 0
11, 76440, Note_on_c, 9, 35, 127
11, 76440, Note_on_c, 9, 42, 107
11, 76500, Note_on_c, 9, 42, 0
11, 76500, Note_on_c, 9, 35, 0
11, 76560, Note_on_c, 9, 35, 127
11, 76560, Note_on_c, 9, 42, 107
11, 76620, Note_on_c, 9, 42, 0
11, 76620, Note_on_c, 9, 35, 0
11, 76680, Note_on_c, 9, 35, 127
11, 76680, Note_on_c, 9, 42, 107
11, 76740, Note_on_c, 9, 42, 0
11, 76740, Note_on_c, 9, 35, 0
11, 76800, Note_on_c, 9, 38, 117
11, 76800, Note_on_c, 9, 42, 107
11, 76860, Note_on_c, 9, 42, 0
11, 76860, Note_on_c, 9, 38, 0
11, 76920, Note_on_c, 9, 42, 107
11, 76980, Note_on_c, 9, 42, 0
11, 77040, Note_on_c, 9, 42, 107
11, 77100, Note_on_c, 9, 42, 0
11, 77160, Note_on_c, 9, 47, 127
11, 77220, Note_on_c, 9, 47, 0
11, 77280, Note_on_c, 9, 38, 117
11, 77340, Note_on_c, 9, 38, 0
11, 77400, Note_on_c, 9, 35, 127
11, 77460, Note_on_c, 9, 35, 0
11, 77520, Note_on_c, 9, 35, 127
11, 77520, Note_on_c, 9, 42, 107
11, 77580, Note_on_c, 9, 42, 0
11, 77580, Note_on_c, 9, 35, 0
11, 77640, Note_on_c, 9, 42, 107
11, 77700, Note_on_c, 9, 42, 0
11, 77760, Note_on_c, 9, 38, 117
11, 77760, Note_on_c, 9, 42, 107
11, 77820, Note_on_c, 9, 42, 0
11, 77820, Note_on_c, 9, 38, 0
11, 77880, Note_on_c, 9, 42, 107
11, 77940, Note_on_c, 9, 42, 0
11, 78000, Note_on_c, 9, 42, 107
11, 78060, Note_on_c, 9, 42, 0
11, 78120, Note_on_c, 9, 35, 127
11, 78120, Note_on_c, 9, 42, 107
11, 78180, Note_on_c, 9, 42, 0
11, 78180, Note_on_c, 9, 35, 0
11, 78240, Note_on_c, 9, 38, 117
11, 78240, Note_on_c, 9, 42, 107
11, 78300, Note_on_c, 9, 42, 0
11, 78300, Note_on_c, 9, 38, 0
11, 78360, Note_on_c, 9, 35, 127
11, 78360, Note_on_c, 9, 42, 107
11, 78420, Note_on_c, 9, 42, 0
11, 78420, Note_on_c, 9, 35, 0
11, 78480, Note_on_c, 9, 35, 127
11, 78480, Note_on_c, 9, 42, 107
11, 78540, Note_on_c, 9, 42, 0
11, 78540, Note_on_c, 9, 35, 0
11, 78600, Note_on_c, 9, 42, 107
11, 78660, Note_on_c, 9, 42, 0
11, 78720, Note_on_c, 9, 35, 127
11, 78720, Note_on_c, 9, 38, 117
11, 78720, Note_on_c, 9, 42, 107
11, 78780, Note_on_c, 9, 42, 0
11, 78780, Note_on_c, 9, 38, 0
11, 78780, Note_on_c, 9, 35, 0
11, 78840, Note_on_c, 9, 50, 127
11, 78900, Note_on_c, 9, 50, 0
11, 78960, Note_on_c, 9, 35, 127
11, 78960, Note_on_c, 9, 50, 127
11, 79020, Note_on_c, 9, 50, 0
11, 79020, Note_on_c, 9, 35, 0
11, 79020, Note_on_c, 9, 50, 127
11, 79080, Note_on_c, 9, 50, 0
11, 79080, Note_on_c, 9, 43, 127
11, 79140, Note_on_c, 9, 43, 0
11, 79140, Note_on_c, 9, 43, 127
11, 79200, Note_on_c, 9, 43, 0
11, 79200, Note_on_c, 9, 35, 127
11, 79200, Note_on_c, 9, 38, 117
11, 79260, Note_on_c, 9, 38, 0
11, 79260, Note_on_c, 9, 35, 0
11, 79440, Note_on_c, 9, 35, 127
11, 79440, Note_on_c, 9, 42, 107
11, 79500, Note_on_c, 9, 42, 0
11, 79500, Note_on_c, 9, 35, 0
11, 79560, Note_on_c, 9, 42, 107
11, 79620, Note_on_c, 9, 42, 0
11, 79680, Note_on_c, 9, 38, 117
11, 79680, Note_on_c, 9, 42, 107
11, 79740, Note_on_c, 9, 42, 0
11, 79740, Note_on_c, 9, 38, 0
11, 79800, Note_on_c, 9, 42, 107
11, 79860, Note_on_c, 9, 42, 0
11, 79920, Note_on_c, 9, 42, 107
11, 79980, Note_on_c, 9, 42, 0
11, 80040, Note_on_c, 9, 35, 127
11, 80040, Note_on_c, 9, 42, 107
11, 80100, Note_on_c, 9, 42, 0
11, 80100, Note_on_c, 9, 35, 0
11, 80160, Note_on_c, 9, 38, 117
11, 80160, Note_on_c, 9, 42, 107
11, 80220, Note_on_c, 9, 42, 0
11, 80220, Note_on_c, 9, 38, 0
11, 80280, Note_on_c, 9, 35, 127
11, 80280, Note_on_c, 9, 42, 107
11, 80340, Note_on_c, 9, 42, 0
11, 80340, Note_on_c, 9, 35, 0
11, 80400, Note_on_c, 9, 35, 127
11, 80400, Note_on_c, 9, 42, 107
11, 80460, Note_on_c, 9, 42, 0
11, 80460, Note_on_c, 9, 35, 0
11, 80520, Note_on_c, 9, 42, 107
11, 80580, Note_on_c, 9, 42, 0
11, 80640, Note_on_c, 9, 38, 117
11, 80640, Note_on_c, 9, 42, 107
11, 80700, Note_on_c, 9, 42, 0
11, 80700, Note_on_c, 9, 38, 0
11, 80760, Note_on_c, 9, 42, 107
11, 80820, Note_on_c, 9, 42, 0
11, 80880, Note_on_c, 9, 42, 107
11, 80940, Note_on_c, 9, 42, 0
11, 81000, Note_on_c, 9, 47, 127
11, 81060, Note_on_c, 9, 47, 0
11, 81120, Note_on_c, 9, 38, 117
11, 81180, Note_on_c, 9, 38, 0
11, 81240, Note_on_c, 9, 35, 127
11, 81240, Note_on_c, 9, 42, 107
11, 81300, Note_on_c, 9, 42, 0
11, 81300, Note_on_c, 9, 35, 0
11, 81360, Note_on_c, 9, 35, 127
11, 81360, Note_on_c, 9, 42, 107
11, 81420, Note_on_c, 9, 42, 0
11, 81420, Note_on_c, 9, 35, 0
11, 81480, Note_on_c, 9, 42, 107
11, 81540, Note_on_c, 9, 42, 0
11, 81600, Note_on_c, 9, 38, 117
11, 81600, Note_on_c, 9, 42, 107
11, 81660, Note_on_c, 9, 42, 0
11, 81660, Note_on_c, 9, 38, 0
11, 81720, Note_on_c, 9, 42, 107
11, 81780, Note_on_c, 9, 42, 0
11, 81840, Note_on_c, 9, 42, 107
11, 81900, Note_on_c, 9, 42, 0
11, 81960, Note_on_c, 9, 35, 127
11, 81960, Note_on_c, 9, 42, 107
11, 82020, Note_on_c, 9, 42, 0
11, 82020, Note_on_c, 9, 35, 0
11, 82080, Note_on_c, 9, 38, 117
11, 82080, Note_on_c, 9, 42, 107
11, 82140, Note_on_c, 9, 42, 0
11, 82140, Note_on_c, 9, 38, 0
11, 82200, Note_on_c, 9, 35, 127
11, 82200, Note_on_c, 9, 42, 107
11, 82260, Note_on_c, 9, 42, 0
11, 82260, Note_on_c, 9, 35, 0
11, 82320, Note_on_c, 9, 35, 127
11, 82320, Note_on_c, 9, 42, 107
11, 82380, Note_on_c, 9, 42, 0
11, 82380, Note_on_c, 9, 35, 0
11, 82440, Note_on_c, 9, 42, 107
11, 82500, Note_on_c, 9, 42, 0
11, 82560, Note_on_c, 9, 38, 117
11, 82560, Note_on_c, 9, 42, 107
11, 82620, Note_on_c, 9, 42, 0
11, 82620, Note_on_c, 9, 38, 0
11, 82680, Note_on_c, 9, 42, 107
11, 82740, Note_on_c, 9, 42, 0
11, 82800, Note_on_c, 9, 42, 107
11, 82860, Note_on_c, 9, 42, 0
11, 82920, Note_on_c, 9, 43, 127
11, 82980, Note_on_c, 9, 43, 0
11, 83040, Note_on_c, 9, 38, 117
11, 83100, Note_on_c, 9, 38, 0
11, 83160, Note_on_c, 9, 35, 127
11, 83220, Note_on_c, 9, 35, 0
11, 83280, Note_on_c, 9, 35, 127
11, 83280, Note_on_c, 9, 42, 107
11, 83340, Note_on_c, 9, 42, 0
11, 83340, Note_on_c, 9, 35, 0
11, 83400, Note_on_c, 9, 42, 107
11, 83460, Note_on_c, 9, 42, 0
11, 83520, Note_on_c, 9, 38, 117
11, 83520, Note_on_c, 9, 42, 107
11, 83580, Note_on_c, 9, 42, 0
11, 83580, Note_on_c, 9, 38, 0
11, 83640, Note_on_c, 9, 42, 107
11, 83700, Note_on_c, 9, 42, 0
11, 83760, Note_on_c, 9, 42, 107
11, 83820, Note_on_c, 9, 42, 0
11, 83880, Note_on_c, 9, 35, 127
11, 83880, Note_on_c, 9, 42, 107
11, 83940, Note_on_c, 9, 42, 0
11, 83940, Note_on_c, 9, 35, 0
11, 84000, Note_on_c, 9, 38, 117
11, 84000, Note_on_c, 9, 42, 107
11, 84060, Note_on_c, 9, 42, 0
11, 84060, Note_on_c, 9, 38, 0
11, 84120, Note_on_c, 9, 35, 127
11, 84120, Note_on_c, 9, 42, 107
11, 84180, Note_on_c, 9, 42, 0
11, 84180, Note_on_c, 9, 35, 0
11, 84240, Note_on_c, 9, 35, 127
11, 84240, Note_on_c, 9, 42, 107
11, 84300, Note_on_c, 9, 42, 0
11, 84300, Note_on_c, 9, 35, 0
11, 84360, Note_on_c, 9, 42, 107
11, 84420, Note_on_c, 9, 42, 0
11, 84480, Note_on_c, 9, 38, 117
11, 84480, Note_on_c, 9, 42, 107
11, 84540, Note_on_c, 9, 42, 0
11, 84540, Note_on_c, 9, 38, 0
11, 84600, Note_on_c, 9, 42, 107
11, 84660, Note_on_c, 9, 42, 0
11, 84720, Note_on_c, 9, 42, 107
11, 84780, Note_on_c, 9, 42, 0
11, 84840, Note_on_c, 9, 47, 127
11, 84900, Note_on_c, 9, 47, 0
11, 84960, Note_on_c, 9, 38, 117
11, 85020, Note_on_c, 9, 38, 0
11, 85080, Note_on_c, 9, 35, 127
11, 85140, Note_on_c, 9, 35, 0
11, 85200, Note_on_c, 9, 35, 127
11, 85200, Note_on_c, 9, 42, 107
11, 85260, Note_on_c, 9, 42, 0
11, 85260, Note_on_c, 9, 35, 0
11, 85320, Note_on_c, 9, 42, 107
11, 85380, Note_on_c, 9, 42, 0
11, 85440, Note_on_c, 9, 38, 117
11, 85440, Note_on_c, 9, 42, 107
11, 85500, Note_on_c, 9, 42, 0
11, 85500, Note_on_c, 9, 38, 0
11, 85560, Note_on_c, 9, 42, 107
11, 85620, Note_on_c, 9, 42, 0
11, 85680, Note_on_c, 9, 42, 107
11, 85740, Note_on_c, 9, 42, 0
11, 85800, Note_on_c, 9, 35, 127
11, 85800, Note_on_c, 9, 42, 107
11, 85860, Note_on_c, 9, 42, 0
11, 85860, Note_on_c, 9, 35, 0
11, 85920, Note_on_c, 9, 38, 117
11, 85920, Note_on_c, 9, 42, 107
11, 85980, Note_on_c, 9, 42, 0
11, 85980, Note_on_c, 9, 38, 0
11, 86040, Note_on_c, 9, 35, 127
11, 86040, Note_on_c, 9, 42, 107
11, 86100, Note_on_c, 9, 42, 0
11, 86100, Note_on_c, 9, 35, 0
11, 86160, Note_on_c, 9, 35, 127
11, 86160, Note_on_c, 9, 42, 107
11, 86220, Note_on_c, 9, 42, 0
11, 86220, Note_on_c, 9, 35, 0
11, 86280, Note_on_c, 9, 42, 107
11, 86340, Note_on_c, 9, 42, 0
11, 86400, Note_on_c, 9, 38, 117
11, 86400, Note_on_c, 9, 42, 107
11, 86460, Note_on_c, 9, 42, 0
11, 86460, Note_on_c, 9, 38, 0
11, 86520, Note_on_c, 9, 50, 127
11, 86580, Note_on_c, 9, 50, 0
11, 86640, Note_on_c, 9, 50, 127
11, 86700, Note_on_c, 9, 50, 0
11, 86760, Note_on_c, 9, 43, 127
11, 86820, Note_on_c, 9, 43, 0
11, 86880, Note_on_c, 9, 38, 117
11, 86940, Note_on_c, 9, 38, 0
11, 87000, Note_on_c, 9, 38, 117
11, 87060, Note_on_c, 9, 38, 0
11, 87060, Note_on_c, 9, 38, 117
11, 87120, Note_on_c, 9, 38, 0
11, 87120, Note_on_c, 9, 57, 127
11, 87120, Note_on_c, 9, 35, 127
11, 87120, Note_on_c, 9, 49, 127
11, 87180, Note_on_c, 9, 49, 0
11, 87180, Note_on_c, 9, 35, 0
11, 87180, Note_on_c, 9, 57, 0
11, 87300, Note_on_c, 9, 35, 127
11, 87360, Note_on_c, 9, 35, 0
11, 87360, Note_on_c, 9, 38, 117
11, 87360, Note_on_c, 9, 46, 107
11, 87420, Note_on_c, 9, 46, 0
11, 87420, Note_on_c, 9, 38, 0
11, 87480, Note_on_c, 9, 35, 127
11, 87540, Note_on_c, 9, 35, 0
11, 87600, Note_on_c, 9, 35, 127
11, 87600, Note_on_c, 9, 46, 107
11, 87660, Note_on_c, 9, 46, 0
11, 87660, Note_on_c, 9, 35, 0
11, 87840, Note_on_c, 9, 38, 117
11, 87840, Note_on_c, 9, 46, 107
11, 87900, Note_on_c, 9, 46, 0
11, 87900, Note_on_c, 9, 38, 0
11, 87960, Note_on_c, 9, 35, 127
11, 88020, Note_on_c, 9, 35, 0
11, 88080, Note_on_c, 9, 35, 127
11, 88080, Note_on_c, 9, 46, 107
11, 88140, Note_on_c, 9, 46, 0
11, 88140, Note_on_c, 9, 35, 0
11, 88320, Note_on_c, 9, 38, 117
11, 88320, Note_on_c, 9, 46, 107
11, 88380, Note_on_c, 9, 46, 0
11, 88380, Note_on_c, 9, 38, 0
11, 88440, Note_on_c, 9, 35, 127
11, 88500, Note_on_c, 9, 35, 0
11, 88560, Note_on_c, 9, 35, 127
11, 88560, Note_on_c, 9, 46, 107
11, 88620, Note_on_c, 9, 46, 0
11, 88620, Note_on_c, 9, 35, 0
11, 88680, Note_on_c, 9, 35, 127
11, 88740, Note_on_c, 9, 35, 0
11, 88800, Note_on_c, 9, 38, 117
11, 88800, Note_on_c, 9, 46, 107
11, 88860, Note_on_c, 9, 46, 0
11, 88860, Note_on_c, 9, 38, 0
11, 88920, Note_on_c, 9, 35, 127
11, 88980, Note_on_c, 9, 35, 0
11, 89040, Note_on_c, 9, 57, 127
11, 89040, Note_on_c, 9, 35, 127
11, 89040, Note_on_c, 9, 49, 127
11, 89100, Note_on_c, 9, 49, 0
11, 89100, Note_on_c, 9, 35, 0
11, 89100, Note_on_c, 9, 57, 0
11, 89220, Note_on_c, 9, 35, 127
11, 89280, Note_on_c, 9, 35, 0
11, 89280, Note_on_c, 9, 38, 117
11, 89280, Note_on_c, 9, 46, 107
11, 89340, Note_on_c, 9, 46, 0
11, 89340, Note_on_c, 9, 38, 0
11, 89400, Note_on_c, 9, 35, 127
11, 89460, Note_on_c, 9, 35, 0
11, 89520, Note_on_c, 9, 35, 127
11, 89520, Note_on_c, 9, 46, 107
11, 89580, Note_on_c, 9, 46, 0
11, 89580, Note_on_c, 9, 35, 0
11, 89760, Note_on_c, 9, 38, 117
11, 89760, Note_on_c, 9, 46, 107
11, 89820, Note_on_c, 9, 46, 0
11, 89820, Note_on_c, 9, 38, 0
11, 89880, Note_on_c, 9, 35, 127
11, 89940, Note_on_c, 9, 35, 0
11, 90000, Note_on_c, 9, 35, 127
11, 90000, Note_on_c, 9, 46, 107
11, 90060, Note_on_c, 9, 46, 0
11, 90060, Note_on_c, 9, 35, 0
11, 90120, Note_on_c, 9, 35, 127
11, 90180, Note_on_c, 9, 35, 0
11, 90240, Note_on_c, 9, 38, 117
11, 90240, Note_on_c, 9, 46, 107
11, 90300, Note_on_c, 9, 46, 0
11, 90300, Note_on_c, 9, 38, 0
11, 90360, Note_on_c, 9, 35, 127
11, 90420, Note_on_c, 9, 35, 0
11, 90480, Note_on_c, 9, 35, 127
11, 90480, Note_on_c, 9, 46, 107
11, 90540, Note_on_c, 9, 46, 0
11, 90540, Note_on_c, 9, 35, 0
11, 90660, Note_on_c, 9, 35, 127
11, 90720, Note_on_c, 9, 35, 0
11, 90720, Note_on_c, 9, 38, 117
11, 90720, Note_on_c, 9, 49, 127
11, 90780, Note_on_c, 9, 49, 0
11, 90780, Note_on_c, 9, 38, 0
11, 90840, Note_on_c, 9, 35, 127
11, 90900, Note_on_c, 9, 35, 0
11, 90960, Note_on_c, 9, 57, 127
11, 90960, Note_on_c, 9, 35, 127
11, 91020, Note_on_c, 9, 35, 0
11, 91020, Note_on_c, 9, 57, 0
11, 91140, Note_on_c, 9, 35, 127
11, 91200, Note_on_c, 9, 35, 0
11, 91200, Note_on_c, 9, 38, 117
11, 91200, Note_on_c, 9, 46, 107
11, 91260, Note_on_c, 9, 46, 0
11, 91260, Note_on_c, 9, 38, 0
11, 91320, Note_on_c, 9, 35, 127
11, 91380, Note_on_c, 9, 35, 0
11, 91440, Note_on_c, 9, 35, 127
11, 91440, Note_on_c, 9, 46, 107
11, 91500, Note_on_c, 9, 46, 0
11, 91500, Note_on_c, 9, 35, 0
11, 91680, Note_on_c, 9, 38, 117
11, 91680, Note_on_c, 9, 46, 107
11, 91740, Note_on_c, 9, 46, 0
11, 91740, Note_on_c, 9, 38, 0
11, 91920, Note_on_c, 9, 35, 127
11, 91920, Note_on_c, 9, 46, 107
11, 91980, Note_on_c, 9, 46, 0
11, 91980, Note_on_c, 9, 35, 0
11, 92040, Note_on_c, 9, 35, 127
11, 92100, Note_on_c, 9, 35, 0
11, 92160, Note_on_c, 9, 38, 117
11, 92160, Note_on_c, 9, 46, 107
11, 92220, Note_on_c, 9, 46, 0
11, 92220, Note_on_c, 9, 38, 0
11, 92280, Note_on_c, 9, 35, 127
11, 92340, Note_on_c, 9, 35, 0
11, 92400, Note_on_c, 9, 35, 127
11, 92400, Note_on_c, 9, 46, 107
11, 92460, Note_on_c, 9, 46, 0
11, 92460, Note_on_c, 9, 35, 0
11, 92520, Note_on_c, 9, 35, 127
11, 92580, Note_on_c, 9, 35, 0
11, 92640, Note_on_c, 9, 38, 117
11, 92640, Note_on_c, 9, 46, 107
11, 92700, Note_on_c, 9, 46, 0
11, 92700, Note_on_c, 9, 38, 0
11, 92760, Note_on_c, 9, 35, 127
11, 92820, Note_on_c, 9, 35, 0
11, 92880, Note_on_c, 9, 57, 127
11, 92880, Note_on_c, 9, 35, 127
11, 92880, Note_on_c, 9, 49, 127
11, 92940, Note_on_c, 9, 49, 0
11, 92940, Note_on_c, 9, 35, 0
11, 92940, Note_on_c, 9, 57, 0
11, 93060, Note_on_c, 9, 35, 127
11, 93120, Note_on_c, 9, 35, 0
11, 93120, Note_on_c, 9, 38, 117
11, 93120, Note_on_c, 9, 46, 107
11, 93180, Note_on_c, 9, 46, 0
11, 93180, Note_on_c, 9, 38, 0
11, 93240, Note_on_c, 9, 35, 127
11, 93300, Note_on_c, 9, 35, 0
11, 93360, Note_on_c, 9, 35, 127
11, 93360, Note_on_c, 9, 46, 107
11, 93420, Note_on_c, 9, 46, 0
11, 93420, Note_on_c, 9, 35, 0
11, 93600, Note_on_c, 9, 38, 117
11, 93600, Note_on_c, 9, 46, 107
11, 93660, Note_on_c, 9, 46, 0
11, 93660, Note_on_c, 9, 38, 0
11, 93840, Note_on_c, 9, 35, 127
11, 93840, Note_on_c, 9, 46, 107
11, 93900, Note_on_c, 9, 46, 0
11, 93900, Note_on_c, 9, 35, 0
11, 93960, Note_on_c, 9, 35, 127
11, 94020, Note_on_c, 9, 35, 0
11, 94080, Note_on_c, 9, 38, 117
11, 94080, Note_on_c, 9, 46, 107
11, 94140, Note_on_c, 9, 46, 0
11, 94140, Note_on_c, 9, 38, 0
11, 94200, Note_on_c, 9, 35, 127
11, 94260, Note_on_c, 9, 35, 0
11, 94320, Note_on_c, 9, 35, 127
11, 94320, Note_on_c, 9, 46, 107
11, 94380, Note_on_c, 9, 46, 0
11, 94380, Note_on_c, 9, 35, 0
11, 94440, Note_on_c, 9, 35, 127
11, 94500, Note_on_c, 9, 35, 0
11, 94560, Note_on_c, 9, 38, 117
11, 94560, Note_on_c, 9, 46, 107
11, 94620, Note_on_c, 9, 46, 0
11, 94620, Note_on_c, 9, 38, 0
11, 94680, Note_on_c, 9, 35, 127
11, 94740, Note_on_c, 9, 35, 0
11, 94800, Note_on_c, 9, 35, 127
11, 94800, Note_on_c, 9, 46, 107
11, 94860, Note_on_c, 9, 46, 0
11, 94860, Note_on_c, 9, 35, 0
11, 94980, Note_on_c, 9, 35, 127
11, 95040, Note_on_c, 9, 35, 0
11, 95040, Note_on_c, 9, 38, 117
11, 95040, Note_on_c, 9, 46, 107
11, 95100, Note_on_c, 9, 46, 0
11, 95100, Note_on_c, 9, 38, 0
11, 95160, Note_on_c, 9, 35, 127
11, 95220, Note_on_c, 9, 35, 0
11, 95280, Note_on_c, 9, 35, 127
11, 95280, Note_on_c, 9, 46, 107
11, 95340, Note_on_c, 9, 46, 0
11, 95340, Note_on_c, 9, 35, 0
11, 95520, Note_on_c, 9, 38, 117
11, 95520, Note_on_c, 9, 46, 107
11, 95580, Note_on_c, 9, 46, 0
11, 95580, Note_on_c, 9, 38, 0
11, 95760, Note_on_c, 9, 35, 127
11, 95760, Note_on_c, 9, 46, 107
11, 95820, Note_on_c, 9, 46, 0
11, 95820, Note_on_c, 9, 35, 0
11, 95880, Note_on_c, 9, 35, 127
11, 95940, Note_on_c, 9, 35, 0
11, 96000, Note_on_c, 9, 38, 117
11, 96000, Note_on_c, 9, 46, 107
11, 96060, Note_on_c, 9, 46, 0
11, 96060, Note_on_c, 9, 38, 0
11, 96120, Note_on_c, 9, 35, 127
11, 96180, Note_on_c, 9, 35, 0
11, 96240, Note_on_c, 9, 35, 127
11, 96240, Note_on_c, 9, 49, 127
11, 96360, Note_on_c, 9, 49, 0
11, 96360, Note_on_c, 9, 35, 0
11, 96400, Note_on_c, 9, 35, 127
11, 96420, Note_on_c, 9, 57, 127
11, 96480, Note_on_c, 9, 57, 0
11, 96520, Note_on_c, 9, 35, 0
11, 96560, Note_on_c, 9, 35, 127
11, 96560, Note_on_c, 9, 49, 127
11, 96680, Note_on_c, 9, 49, 0
11, 96680, Note_on_c, 9, 35, 0
11, 96720, Note_on_c, 9, 57, 127
11, 96720, Note_on_c, 9, 35, 127
11, 96780, Note_on_c, 9, 35, 0
11, 96780, Note_on_c, 9, 57, 0
11, 96960, Note_on_c, 9, 35, 127
11, 96960, Note_on_c, 9, 49, 127
11, 97020, Note_on_c, 9, 49, 0
11, 97020, Note_on_c, 9, 35, 0
11, 97200, Note_on_c, 9, 57, 127
11, 97200, Note_on_c, 9, 35, 127
11, 97260, Note_on_c, 9, 35, 0
11, 97260, Note_on_c, 9, 57, 0
11, 98400, Note_on_c, 9, 35, 127
11, 98400, Note_on_c, 9, 46, 107
11, 98460, Note_on_c, 9, 46, 0
11, 98460, Note_on_c, 9, 35, 0
11, 98520, Note_on_c, 9, 38, 117
11, 98580, Note_on_c, 9, 38, 0
11, 98580, Note_on_c, 9, 38, 117
11, 98640, Note_on_c, 9, 38, 0
11, 98640, Note_on_c, 9, 35, 127
11, 98640, Note_on_c, 9, 46, 107
11, 98700, Note_on_c, 9, 46, 0
11, 98700, Note_on_c, 9, 35, 0
11, 98760, Note_on_c, 9, 38, 117
11, 98820, Note_on_c, 9, 38, 0
11, 98880, Note_on_c, 9, 35, 127
11, 98880, Note_on_c, 9, 46, 107
11, 98940, Note_on_c, 9, 46, 0
11, 98940, Note_on_c, 9, 35, 0
11, 99000, Note_on_c, 9, 38, 117
11, 99060, Note_on_c, 9, 38, 0
11, 99120, Note_on_c, 9, 35, 127
11, 99120, Note_on_c, 9, 46, 107
11, 99180, Note_on_c, 9, 46, 0
11, 99180, Note_on_c, 9, 35, 0
11, 99180, Note_on_c, 9, 38, 117
11, 99240, Note_on_c, 9, 38, 0
11, 99240, Note_on_c, 9, 38, 117
11, 99300, Note_on_c, 9, 38, 0
11, 99360, Note_on_c, 9, 35, 127
11, 99360, Note_on_c, 9, 46, 107
11, 99420, Note_on_c, 9, 46, 0
11, 99420, Note_on_c, 9, 35, 0
11, 99480, Note_on_c, 9, 38, 117
11, 99540, Note_on_c, 9, 38, 0
11, 99540, Note_on_c, 9, 38, 117
11, 99600, Note_on_c, 9, 38, 0
11, 99600, Note_on_c, 9, 35, 127
11, 99600, Note_on_c, 9, 46, 107
11, 99660, Note_on_c, 9, 46, 0
11, 99660, Note_on_c, 9, 35, 0
11, 99720, Note_on_c, 9, 38, 117
11, 99780, Note_on_c, 9, 38, 0
11, 99780, Note_on_c, 9, 38, 117
11, 99840, Note_on_c, 9, 38, 0
11, 99840, Note_on_c, 9, 35, 127
11, 99840, Note_on_c, 9, 46, 107
11, 99900, Note_on_c, 9, 46, 0
11, 99900, Note_on_c, 9, 35, 0
11, 99900, Note_on_c, 9, 38, 117
11, 99960, Note_on_c, 9, 38, 0
11, 99960, Note_on_c, 9, 38, 117
11, 100020, Note_on_c, 9, 38, 0
11, 100080, Note_on_c, 9, 35, 127
11, 100080, Note_on_c, 9, 38, 117
11, 100080, Note_on_c, 9, 46, 107
11, 100140, Note_on_c, 9, 46, 0
11, 100140, Note_on_c, 9, 38, 0
11, 100140, Note_on_c, 9, 35, 0
11, 100320, Note_on_c, 9, 35, 127
11, 100380, Note_on_c, 9, 35, 0
11, 100440, Note_on_c, 9, 38, 117
11, 100500, Note_on_c, 9, 38, 0
11, 100500, Note_on_c, 9, 38, 117
11, 100560, Note_on_c, 9, 38, 0
11, 100560, Note_on_c, 9, 35, 127
11, 100560, Note_on_c, 9, 46, 107
11, 100620, Note_on_c, 9, 46, 0
11, 100620, Note_on_c, 9, 35, 0
11, 100680, Note_on_c, 9, 38, 117
11, 100740, Note_on_c, 9, 38, 0
11, 100800, Note_on_c, 9, 35, 127
11, 100800, Note_on_c, 9, 46, 107
11, 100860, Note_on_c, 9, 46, 0
11, 100860, Note_on_c, 9, 35, 0
11, 100920, Note_on_c, 9, 38, 117
11, 100980, Note_on_c, 9, 38, 0
11, 101040, Note_on_c, 9, 35, 127
11, 101040, Note_on_c, 9, 46, 107
11, 101100, Note_on_c, 9, 46, 0
11, 101100, Note_on_c, 9, 35, 0
11, 101100, Note_on_c, 9, 38, 117
11, 101160, Note_on_c, 9, 38, 0
11, 101160, Note_on_c, 9, 38, 117
11, 101220, Note_on_c, 9, 38, 0
11, 101280, Note_on_c, 9, 35, 127
11, 101280, Note_on_c, 9, 46, 107
11, 101340, Note_on_c, 9, 46, 0
11, 101340, Note_on_c, 9, 35, 0
11, 101400, Note_on_c, 9, 38, 117
11, 101460, Note_on_c, 9, 38, 0
11, 101460, Note_on_c, 9, 38, 117
11, 101520, Note_on_c, 9, 38, 0
11, 101520, Note_on_c, 9, 35, 127
11, 101520, Note_on_c, 9, 46, 107
11, 101580, Note_on_c, 9, 46, 0
11, 101580, Note_on_c, 9, 35, 0
11, 101640, Note_on_c, 9, 38, 117
11, 101700, Note_on_c, 9, 38, 0
11, 101760, Note_on_c, 9, 35, 127
11, 101760, Note_on_c, 9, 46, 107
11, 101820, Note_on_c, 9, 46, 0
11, 101820, Note_on_c, 9, 35, 0
11, 101880, Note_on_c, 9, 38, 117
11, 101940, Note_on_c, 9, 38, 0
11, 101940, Note_on_c, 9, 38, 117
11, 102000, Note_on_c, 9, 38, 0
11, 102000, Note_on_c, 9, 35, 127
11, 102000, Note_on_c, 9, 46, 107
11, 102060, Note_on_c, 9, 46, 0
11, 102060, Note_on_c, 9, 35, 0
11, 102120, Note_on_c, 9, 38, 117
11, 102180, Note_on_c, 9, 38, 0
11, 102180, Note_on_c, 9, 38, 117
11, 102240, Note_on_c, 9, 38, 0
11, 102240, Note_on_c, 9, 35, 127
11, 102300, Note_on_c, 9, 35, 0
11, 102360, Note_on_c, 9, 38, 117
11, 102420, Note_on_c, 9, 38, 0
11, 102420, Note_on_c, 9, 38, 117
11, 102480, Note_on_c, 9, 38, 0
11, 102480, Note_on_c, 9, 35, 127
11, 102480, Note_on_c, 9, 46, 107
11, 102540, Note_on_c, 9, 46, 0
11, 102540, Note_on_c, 9, 35, 0
11, 102600, Note_on_c, 9, 38, 117
11, 102660, Note_on_c, 9, 38, 0
11, 102720, Note_on_c, 9, 35, 127
11, 102720, Note_on_c, 9, 46, 107
11, 102780, Note_on_c, 9, 46, 0
11, 102780, Note_on_c, 9, 35, 0
11, 102840, Note_on_c, 9, 38, 117
11, 102900, Note_on_c, 9, 38, 0
11, 102960, Note_on_c, 9, 35, 127
11, 102960, Note_on_c, 9, 46, 107
11, 103020, Note_on_c, 9, 46, 0
11, 103020, Note_on_c, 9, 35, 0
11, 103020, Note_on_c, 9, 38, 117
11, 103080, Note_on_c, 9, 38, 0
11, 103080, Note_on_c, 9, 38, 117
11, 103140, Note_on_c, 9, 38, 0
11, 103200, Note_on_c, 9, 35, 127
11, 103200, Note_on_c, 9, 46, 107
11, 103260, Note_on_c, 9, 46, 0
11, 103260, Note_on_c, 9, 35, 0
11, 103320, Note_on_c, 9, 38, 117
11, 103380, Note_on_c, 9, 38, 0
11, 103380, Note_on_c, 9, 38, 117
11, 103440, Note_on_c, 9, 38, 0
11, 103440, Note_on_c, 9, 35, 127
11, 103440, Note_on_c, 9, 46, 107
11, 103500, Note_on_c, 9, 46, 0
11, 103500, Note_on_c, 9, 35, 0
11, 103500, Note_on_c, 9, 38, 117
11, 103560, Note_on_c, 9, 38, 0
11, 103560, Note_on_c, 9, 38, 117
11, 103620, Note_on_c, 9, 38, 0
11, 103620, Note_on_c, 9, 38, 117
11, 103680, Note_on_c, 9, 38, 0
11, 103680, Note_on_c, 9, 35, 127
11, 103680, Note_on_c, 9, 46, 107
11, 103740, Note_on_c, 9, 46, 0
11, 103740, Note_on_c, 9, 35, 0
11, 103740, Note_on_c, 9, 38, 117
11, 103800, Note_on_c, 9, 38, 0
11, 103800, Note_on_c, 9, 38, 117
11, 103860, Note_on_c, 9, 38, 0
11, 103920, Note_on_c, 9, 35, 127
11, 103920, Note_on_c, 9, 38, 117
11, 103920, Note_on_c, 9, 49, 127
11, 103980, Note_on_c, 9, 49, 0
11, 103980, Note_on_c, 9, 38, 0
11, 103980, Note_on_c, 9, 35, 0
11, 104160, Note_on_c, 9, 35, 127
11, 104220, Note_on_c, 9, 35, 0
11, 104280, Note_on_c, 9, 38, 117
11, 104340, Note_on_c, 9, 38, 0
11, 104340, Note_on_c, 9, 38, 117
11, 104400, Note_on_c, 9, 38, 0
11, 104400, Note_on_c, 9, 35, 127
11, 104400, Note_on_c, 9, 46, 107
11, 104460, Note_on_c, 9, 46, 0
11, 104460, Note_on_c, 9, 35, 0
11, 104520, Note_on_c, 9, 38, 117
11, 104580, Note_on_c, 9, 38, 0
11, 104640, Note_on_c, 9, 35, 127
11, 104640, Note_on_c, 9, 46, 107
11, 104700, Note_on_c, 9, 46, 0
11, 104700, Note_on_c, 9, 35, 0
11, 104760, Note_on_c, 9, 38, 117
11, 104820, Note_on_c, 9, 38, 0
11, 104880, Note_on_c, 9, 35, 127
11, 104880, Note_on_c, 9, 46, 107
11, 104940, Note_on_c, 9, 46, 0
11, 104940, Note_on_c, 9, 35, 0
11, 104940, Note_on_c, 9, 38, 117
11, 105000, Note_on_c, 9, 38, 0
11, 105000, Note_on_c, 9, 38, 117
11, 105060, Note_on_c, 9, 38, 0
11, 105120, Note_on_c, 9, 35, 127
11, 105120, Note_on_c, 9, 46, 107
11, 105180, Note_on_c, 9, 46, 0
11, 105180, Note_on_c, 9, 35, 0
11, 105240, Note_on_c, 9, 38, 117
11, 105300, Note_on_c, 9, 38, 0
11, 105300, Note_on_c, 9, 38, 117
11, 105360, Note_on_c, 9, 38, 0
11, 105360, Note_on_c, 9, 35, 127
11, 105360, Note_on_c, 9, 46, 107
11, 105420, Note_on_c, 9, 46, 0
11, 105420, Note_on_c, 9, 35, 0
11, 105480, Note_on_c, 9, 38, 117
11, 105540, Note_on_c, 9, 38, 0
11, 105600, Note_on_c, 9, 35, 127
11, 105600, Note_on_c, 9, 46, 107
11, 105660, Note_on_c, 9, 46, 0
11, 105660, Note_on_c, 9, 35, 0
11, 105660, Note_on_c, 9, 38, 117
11, 105720, Note_on_c, 9, 38, 0
11, 105720, Note_on_c, 9, 38, 117
11, 105780, Note_on_c, 9, 38, 0
11, 105840, Note_on_c, 9, 35, 127
11, 105840, Note_on_c, 9, 46, 107
11, 105900, Note_on_c, 9, 46, 0
11, 105900, Note_on_c, 9, 35, 0
11, 105900, Note_on_c, 9, 38, 117
11, 105960, Note_on_c, 9, 38, 0
11, 105960, Note_on_c, 9, 38, 117
11, 106020, Note_on_c, 9, 38, 0
11, 106080, Note_on_c, 9, 35, 127
11, 106140, Note_on_c, 9, 35, 0
11, 106200, Note_on_c, 9, 38, 117
11, 106260, Note_on_c, 9, 38, 0
11, 106260, Note_on_c, 9, 38, 117
11, 106320, Note_on_c, 9, 38, 0
11, 106320, Note_on_c, 9, 35, 127
11, 106320, Note_on_c, 9, 46, 107
11, 106380, Note_on_c, 9, 46, 0
11, 106380, Note_on_c, 9, 35, 0
11, 106440, Note_on_c, 9, 38, 117
11, 106500, Note_on_c, 9, 38, 0
11, 106560, Note_on_c, 9, 35, 127
11, 106560, Note_on_c, 9, 46, 107
11, 106620, Note_on_c, 9, 46, 0
11, 106620, Note_on_c, 9, 35, 0
11, 106680, Note_on_c, 9, 38, 117
11, 106740, Note_on_c, 9, 38, 0
11, 106800, Note_on_c, 9, 35, 127
11, 106800, Note_on_c, 9, 46, 107
11, 106860, Note_on_c, 9, 46, 0
11, 106860, Note_on_c, 9, 35, 0
11, 106860, Note_on_c, 9, 38, 117
11, 106920, Note_on_c, 9, 38, 0
11, 106920, Note_on_c, 9, 38, 117
11, 106980, Note_on_c, 9, 38, 0
11, 107040, Note_on_c, 9, 35, 127
11, 107040, Note_on_c, 9, 46, 107
11, 107100, Note_on_c, 9, 46, 0
11, 107100, Note_on_c, 9, 35, 0
11, 107160, Note_on_c, 9, 38, 117
11, 107220, Note_on_c, 9, 38, 0
11, 107220, Note_on_c, 9, 38, 117
11, 107280, Note_on_c, 9, 38, 0
11, 107280, Note_on_c, 9, 35, 127
11, 107280, Note_on_c, 9, 46, 107
11, 107340, Note_on_c, 9, 46, 0
11, 107340, Note_on_c, 9, 35, 0
11, 107400, Note_on_c, 9, 38, 117
11, 107460, Note_on_c, 9, 38, 0
11, 107460, Note_on_c, 9, 38, 117
11, 107520, Note_on_c, 9, 38, 0
11, 107520, Note_on_c, 9, 38, 117
11, 107580, Note_on_c, 9, 38, 0
11, 107580, Note_on_c, 9, 38, 117
11, 107640, Note_on_c, 9, 38, 0
11, 107640, Note_on_c, 9, 38, 117
11, 107700, Note_on_c, 9, 38, 0
11, 107700, Note_on_c, 9, 38, 117
11, 107760, Note_on_c, 9, 38, 0
11, 107760, Note_on_c, 9, 35, 127
11, 107760, Note_on_c, 9, 49, 127
11, 107820, Note_on_c, 9, 49, 0
11, 107820, Note_on_c, 9, 35, 0
11, 108000, Note_on_c, 9, 57, 127
11, 108000, Note_on_c, 9, 35, 127
11, 108060, Note_on_c, 9, 35, 0
11, 108060, Note_on_c, 9, 57, 0
11, 108120, Note_on_c, 9, 35, 127
11, 108180, Note_on_c, 9, 35, 0
11, 108240, Note_on_c, 9, 38, 117
11, 108240, Note_on_c, 9, 46, 107
11, 108300, Note_on_c, 9, 46, 0
11, 108300, Note_on_c, 9, 38, 0
11, 108360, Note_on_c, 9, 35, 127
11, 108420, Note_on_c, 9, 35, 0
11, 108480, Note_on_c, 9, 35, 127
11, 108480, Note_on_c, 9, 46, 107
11, 108540, Note_on_c, 9, 46, 0
11, 108540, Note_on_c, 9, 35, 0
11, 108720, Note_on_c, 9, 38, 117
11, 108720, Note_on_c, 9, 46, 107
11, 108780, Note_on_c, 9, 46, 0
11, 108780, Note_on_c, 9, 38, 0
11, 108960, Note_on_c, 9, 35, 127
11, 108960, Note_on_c, 9, 46, 107
11, 109020, Note_on_c, 9, 46, 0
11, 109020, Note_on_c, 9, 35, 0
11, 109200, Note_on_c, 9, 38, 117
11, 109200, Note_on_c, 9, 46, 107
11, 109260, Note_on_c, 9, 46, 0
11, 109260, Note_on_c, 9, 38, 0
11, 109320, Note_on_c, 9, 35, 127
11, 109380, Note_on_c, 9, 35, 0
11, 109440, Note_on_c, 9, 35, 127
11, 109440, Note_on_c, 9, 46, 107
11, 109500, Note_on_c, 9, 46, 0
11, 109500, Note_on_c, 9, 35, 0
11, 109620, Note_on_c, 9, 35, 127
11, 109680, Note_on_c, 9, 35, 0
11, 109680, Note_on_c, 9, 38, 117
11, 109680, Note_on_c, 9, 49, 127
11, 109740, Note_on_c, 9, 49, 0
11, 109740, Note_on_c, 9, 38, 0
11, 109800, Note_on_c, 9, 35, 127
11, 109860, Note_on_c, 9, 35, 0
11, 109920, Note_on_c, 9, 57, 127
11, 109920, Note_on_c, 9, 35, 127
11, 109980, Note_on_c, 9, 35, 0
11, 109980, Note_on_c, 9, 57, 0
11, 110100, Note_on_c, 9, 35, 127
11, 110160, Note_on_c, 9, 35, 0
11, 110160, Note_on_c, 9, 38, 117
11, 110160, Note_on_c, 9, 46, 107
11, 110220, Note_on_c, 9, 46, 0
11, 110220, Note_on_c, 9, 38, 0
11, 110280, Note_on_c, 9, 35, 127
11, 110340, Note_on_c, 9, 35, 0
11, 110400, Note_on_c, 9, 35, 127
11, 110400, Note_on_c, 9, 46, 107
11, 110460, Note_on_c, 9, 46, 0
11, 110460, Note_on_c, 9, 35, 0
11, 110640, Note_on_c, 9, 38, 117
11, 110640, Note_on_c, 9, 46, 107
11, 110700, Note_on_c, 9, 46, 0
11, 110700, Note_on_c, 9, 38, 0
11, 110880, Note_on_c, 9, 35, 127
11, 110880, Note_on_c, 9, 46, 107
11, 110940, Note_on_c, 9, 46, 0
11, 110940, Note_on_c, 9, 35, 0
11, 111000, Note_on_c, 9, 35, 127
11, 111060, Note_on_c, 9, 35, 0
11, 111120, Note_on_c, 9, 38, 117
11, 111120, Note_on_c, 9, 46, 107
11, 111180, Note_on_c, 9, 46, 0
11, 111180, Note_on_c, 9, 38, 0
11, 111240, Note_on_c, 9, 35, 127
11, 111300, Note_on_c, 9, 35, 0
11, 111360, Note_on_c, 9, 35, 127
11, 111360, Note_on_c, 9, 49, 127
11, 111420, Note_on_c, 9, 49, 0
11, 111420, Note_on_c, 9, 35, 0
11, 111540, Note_on_c, 9, 35, 127
11, 111600, Note_on_c, 9, 35, 0
11, 111600, Note_on_c, 9, 57, 127
11, 111600, Note_on_c, 9, 38, 117
11, 111660, Note_on_c, 9, 38, 0
11, 111660, Note_on_c, 9, 57, 0
11, 111720, Note_on_c, 9, 35, 127
11, 111780, Note_on_c, 9, 35, 0
11, 111840, Note_on_c, 9, 35, 127
11, 111840, Note_on_c, 9, 49, 127
11, 111900, Note_on_c, 9, 49, 0
11, 111900, Note_on_c, 9, 35, 0
11, 112020, Note_on_c, 9, 35, 127
11, 112080, Note_on_c, 9, 35, 0
11, 112080, Note_on_c, 9, 38, 117
11, 112080, Note_on_c, 9, 46, 107
11, 112140, Note_on_c, 9, 46, 0
11, 112140, Note_on_c, 9, 38, 0
11, 112200, Note_on_c, 9, 35, 127
11, 112260, Note_on_c, 9, 35, 0
11, 112320, Note_on_c, 9, 35, 127
11, 112320, Note_on_c, 9, 46, 107
11, 112380, Note_on_c, 9, 46, 0
11, 112380, Note_on_c, 9, 35, 0
11, 112560, Note_on_c, 9, 38, 117
11, 112560, Note_on_c, 9, 46, 107
11, 112620, Note_on_c, 9, 46, 0
11, 112620, Note_on_c, 9, 38, 0
11, 112800, Note_on_c, 9, 35, 127
11, 112800, Note_on_c, 9, 46, 107
11, 112860, Note_on_c, 9, 46, 0
11, 112860, Note_on_c, 9, 35, 0
11, 112920, Note_on_c, 9, 35, 127
11, 112980, Note_on_c, 9, 35, 0
11, 113040, Note_on_c, 9, 38, 117
11, 113040, Note_on_c, 9, 46, 107
11, 113100, Note_on_c, 9, 46, 0
11, 113100, Note_on_c, 9, 38, 0
11, 113160, Note_on_c, 9, 35, 127
11, 113220, Note_on_c, 9, 35, 0
11, 113280, Note_on_c, 9, 35, 127
11, 113280, Note_on_c, 9, 49, 127
11, 113340, Note_on_c, 9, 49, 0
11, 113340, Note_on_c, 9, 35, 0
11, 113460, Note_on_c, 9, 57, 127
11, 113460, Note_on_c, 9, 35, 127
11, 113520, Note_on_c, 9, 35, 0
11, 113520, Note_on_c, 9, 57, 0
11, 113520, Note_on_c, 9, 38, 117
11, 113580, Note_on_c, 9, 38, 0
11, 113640, Note_on_c, 9, 35, 127
11, 113640, Note_on_c, 9, 49, 127
11, 113700, Note_on_c, 9, 49, 0
11, 113700, Note_on_c, 9, 35, 0
11, 113760, Note_on_c, 9, 57, 127
11, 113760, Note_on_c, 9, 35, 127
11, 113820, Note_on_c, 9, 35, 0
11, 113820, Note_on_c, 9, 57, 0
11, 114960, Note_on_c, 9, 43, 127
11, 115020, Note_on_c, 9, 43, 0
11, 115080, Note_on_c, 9, 43, 127
11, 115140, Note_on_c, 9, 43, 0
11, 115260, Note_on_c, 9, 43, 127
11, 115320, Note_on_c, 9, 43, 0
11, 115320, Note_on_c, 9, 43, 127
11, 115380, Note_on_c, 9, 43, 0
11, 115440, Note_on_c, 9, 43, 127
11, 115500, Note_on_c, 9, 43, 0
11, 115680, Note_on_c, 9, 44, 107
11, 115740, Note_on_c, 9, 44, 0
11, 115920, Note_on_c, 9, 35, 127
11, 115920, Note_on_c, 9, 44, 107
11, 115980, Note_on_c, 9, 44, 0
11, 115980, Note_on_c, 9, 35, 0
11, 116040, Note_on_c, 9, 35, 127
11, 116100, Note_on_c, 9, 35, 0
11, 116160, Note_on_c, 9, 44, 107
11, 116220, Note_on_c, 9, 44, 0
11, 116280, Note_on_c, 9, 35, 127
11, 116340, Note_on_c, 9, 35, 0
11, 116400, Note_on_c, 9, 35, 127
11, 116400, Note_on_c, 9, 44, 107
11, 116460, Note_on_c, 9, 44, 0
11, 116460, Note_on_c, 9, 35, 0
11, 116640, Note_on_c, 9, 44, 107
11, 116700, Note_on_c, 9, 44, 0
11, 116880, Note_on_c, 9, 35, 127
11, 116880, Note_on_c, 9, 44, 107
11, 116940, Note_on_c, 9, 44, 0
11, 116940, Note_on_c, 9, 35, 0
11, 117120, Note_on_c, 9, 44, 107
11, 117180, Note_on_c, 9, 44, 0
11, 117240, Note_on_c, 9, 35, 127
11, 117300, Note_on_c, 9, 35, 0
11, 117360, Note_on_c, 9, 35, 127
11, 117360, Note_on_c, 9, 44, 107
11, 117420, Note_on_c, 9, 44, 0
11, 117420, Note_on_c, 9, 35, 0
11, 117600, Note_on_c, 9, 44, 107
11, 117660, Note_on_c, 9, 44, 0
11, 117840, Note_on_c, 9, 35, 127
11, 117840, Note_on_c, 9, 44, 107
11, 117900, Note_on_c, 9, 44, 0
11, 117900, Note_on_c, 9, 35, 0
11, 117960, Note_on_c, 9, 35, 127
11, 118020, Note_on_c, 9, 35, 0
11, 118080, Note_on_c, 9, 44, 107
11, 118140, Note_on_c, 9, 44, 0
11, 118200, Note_on_c, 9, 35, 127
11, 118260, Note_on_c, 9, 35, 0
11, 118320, Note_on_c, 9, 35, 127
11, 118320, Note_on_c, 9, 44, 107
11, 118380, Note_on_c, 9, 44, 0
11, 118380, Note_on_c, 9, 35, 0
11, 118560, Note_on_c, 9, 44, 107
11, 118620, Note_on_c, 9, 44, 0
11, 118800, Note_on_c, 9, 35, 127
11, 118800, Note_on_c, 9, 44, 107
11, 118860, Note_on_c, 9, 44, 0
11, 118860, Note_on_c, 9, 35, 0
11, 119040, Note_on_c, 9, 44, 107
11, 119100, Note_on_c, 9, 44, 0
11, 119160, Note_on_c, 9, 35, 127
11, 119220, Note_on_c, 9, 35, 0
11, 119280, Note_on_c, 9, 35, 127
11, 119280, Note_on_c, 9, 44, 107
11, 119340, Note_on_c, 9, 44, 0
11, 119340, Note_on_c, 9, 35, 0
11, 119520, Note_on_c, 9, 44, 107
11, 119580, Note_on_c, 9, 44, 0
11, 119760, Note_on_c, 9, 35, 127
11, 119760, Note_on_c, 9, 44, 107
11, 119820, Note_on_c, 9, 44, 0
11, 119820, Note_on_c, 9, 35, 0
11, 119880, Note_on_c, 9, 35, 127
11, 119940, Note_on_c, 9, 35, 0
11, 120000, Note_on_c, 9, 44, 107
11, 120060, Note_on_c, 9, 44, 0
11, 120120, Note_on_c, 9, 35, 127
11, 120180, Note_on_c, 9, 35, 0
11, 120240, Note_on_c, 9, 35, 127
11, 120240, Note_on_c, 9, 44, 107
11, 120300, Note_on_c, 9, 44, 0
11, 120300, Note_on_c, 9, 35, 0
11, 120480, Note_on_c, 9, 44, 107
11, 120540, Note_on_c, 9, 44, 0
11, 120720, Note_on_c, 9, 35, 127
11, 120720, Note_on_c, 9, 44, 107
11, 120780, Note_on_c, 9, 44, 0
11, 120780, Note_on_c, 9, 35, 0
11, 120960, Note_on_c, 9, 44, 107
11, 121020, Note_on_c, 9, 44, 0
11, 121080, Note_on_c, 9, 35, 127
11, 121140, Note_on_c, 9, 35, 0
11, 121200, Note_on_c, 9, 35, 127
11, 121200, Note_on_c, 9, 44, 107
11, 121260, Note_on_c, 9, 44, 0
11, 121260, Note_on_c, 9, 35, 0
11, 121440, Note_on_c, 9, 44, 107
11, 121500, Note_on_c, 9, 44, 0
11, 121680, Note_on_c, 9, 43, 127
11, 121740, Note_on_c, 9, 43, 0
11, 121800, Note_on_c, 9, 43, 127
11, 121860, Note_on_c, 9, 43, 0
11, 121860, Note_on_c, 9, 43, 127
11, 121920, Note_on_c, 9, 43, 0
11, 121980, Note_on_c, 9, 43, 127
11, 122040, Note_on_c, 9, 43, 0
11, 122040, Note_on_c, 9, 43, 127
11, 122100, Note_on_c, 9, 43, 0
11, 122160, Note_on_c, 9, 41, 127
11, 122220, Note_on_c, 9, 41, 0
11, 122280, Note_on_c, 9, 41, 127
11, 122340, Note_on_c, 9, 41, 0
11, 122400, Note_on_c, 9, 38, 117
11, 122400, Note_on_c, 9, 49, 127
11, 122460, Note_on_c, 9, 49, 0
11, 122460, Note_on_c, 9, 38, 0
11, 122640, Note_on_c, 9, 35, 127
11, 122640, Note_on_c, 9, 42, 107
11, 122700, Note_on_c, 9, 42, 0
11, 122700, Note_on_c, 9, 35, 0
11, 122760, Note_on_c, 9, 35, 127
11, 122760, Note_on_c, 9, 42, 107
11, 122820, Note_on_c, 9, 42, 0
11, 122820, Note_on_c, 9, 35, 0
11, 122880, Note_on_c, 9, 38, 117
11, 122880, Note_on_c, 9, 42, 107
11, 122940, Note_on_c, 9, 42, 0
11, 122940, Note_on_c, 9, 38, 0
11, 123000, Note_on_c, 9, 35, 127
11, 123000, Note_on_c, 9, 42, 107
11, 123060, Note_on_c, 9, 42, 0
11, 123060, Note_on_c, 9, 35, 0
11, 123120, Note_on_c, 9, 35, 127
11, 123120, Note_on_c, 9, 42, 107
11, 123180, Note_on_c, 9, 42, 0
11, 123180, Note_on_c, 9, 35, 0
11, 123240, Note_on_c, 9, 42, 107
11, 123300, Note_on_c, 9, 42, 0
11, 123360, Note_on_c, 9, 38, 117
11, 123360, Note_on_c, 9, 42, 107
11, 123420, Note_on_c, 9, 42, 0
11, 123420, Note_on_c, 9, 38, 0
11, 123480, Note_on_c, 9, 42, 107
11, 123540, Note_on_c, 9, 42, 0
11, 123600, Note_on_c, 9, 35, 127
11, 123600, Note_on_c, 9, 42, 107
11, 123660, Note_on_c, 9, 42, 0
11, 123660, Note_on_c, 9, 35, 0
11, 123720, Note_on_c, 9, 35, 127
11, 123720, Note_on_c, 9, 42, 107
11, 123780, Note_on_c, 9, 42, 0
11, 123780, Note_on_c, 9, 35, 0
11, 123840, Note_on_c, 9, 38, 117
11, 123840, Note_on_c, 9, 42, 107
11, 123900, Note_on_c, 9, 42, 0
11, 123900, Note_on_c, 9, 38, 0
11, 123960, Note_on_c, 9, 35, 127
11, 123960, Note_on_c, 9, 42, 107
11, 124020, Note_on_c, 9, 42, 0
11, 124020, Note_on_c, 9, 35, 0
11, 124080, Note_on_c, 9, 35, 127
11, 124080, Note_on_c, 9, 42, 107
11, 124140, Note_on_c, 9, 42, 0
11, 124140, Note_on_c, 9, 35, 0
11, 124200, Note_on_c, 9, 42, 107
11, 124260, Note_on_c, 9, 42, 0
11, 124320, Note_on_c, 9, 38, 117
11, 124320, Note_on_c, 9, 42, 107
11, 124380, Note_on_c, 9, 42, 0
11, 124380, Note_on_c, 9, 38, 0
11, 124440, Note_on_c, 9, 38, 117
11, 124460, Note_on_c, 9, 38, 0
11, 124480, Note_on_c, 9, 38, 117
11, 124500, Note_on_c, 9, 38, 0
11, 124520, Note_on_c, 9, 38, 117
11, 124540, Note_on_c, 9, 38, 0
11, 124560, Note_on_c, 9, 38, 117
11, 124620, Note_on_c, 9, 38, 0
11, 124680, Note_on_c, 9, 35, 127
11, 124740, Note_on_c, 9, 35, 0
11, 124800, Note_on_c, 9, 38, 117
11, 124800, Note_on_c, 9, 42, 107
11, 124860, Note_on_c, 9, 42, 0
11, 124860, Note_on_c, 9, 38, 0
11, 124920, Note_on_c, 9, 35, 127
11, 124920, Note_on_c, 9, 42, 107
11, 124980, Note_on_c, 9, 42, 0
11, 124980, Note_on_c, 9, 35, 0
11, 125040, Note_on_c, 9, 35, 127
11, 125040, Note_on_c, 9, 42, 107
11, 125100, Note_on_c, 9, 42, 0
11, 125100, Note_on_c, 9, 35, 0
11, 125160, Note_on_c, 9, 42, 107
11, 125220, Note_on_c, 9, 42, 0
11, 125280, Note_on_c, 9, 38, 117
11, 125280, Note_on_c, 9, 42, 107
11, 125340, Note_on_c, 9, 42, 0
11, 125340, Note_on_c, 9, 38, 0
11, 125400, Note_on_c, 9, 42, 107
11, 125460, Note_on_c, 9, 42, 0
11, 125520, Note_on_c, 9, 35, 127
11, 125520, Note_on_c, 9, 42, 107
11, 125580, Note_on_c, 9, 42, 0
11, 125580, Note_on_c, 9, 35, 0
11, 125640, Note_on_c, 9, 42, 107
11, 125700, Note_on_c, 9, 42, 0
11, 125760, Note_on_c, 9, 38, 117
11, 125760, Note_on_c, 9, 42, 107
11, 125820, Note_on_c, 9, 42, 0
11, 125820, Note_on_c, 9, 38, 0
11, 125880, Note_on_c, 9, 38, 117
11, 125900, Note_on_c, 9, 38, 0
11, 125920, Note_on_c, 9, 38, 117
11, 125940, Note_on_c, 9, 38, 0
11, 125960, Note_on_c, 9, 38, 117
11, 125980, Note_on_c, 9, 38, 0
11, 126000, Note_on_c, 9, 38, 117
11, 126060, Note_on_c, 9, 38, 0
11, 126120, Note_on_c, 9, 35, 127
11, 126120, Note_on_c, 9, 42, 107
11, 126180, Note_on_c, 9, 42, 0
11, 126180, Note_on_c, 9, 35, 0
11, 126240, Note_on_c, 9, 38, 117
11, 126240, Note_on_c, 9, 42, 107
11, 126300, Note_on_c, 9, 42, 0
11, 126300, Note_on_c, 9, 38, 0
11, 126360, Note_on_c, 9, 42, 107
11, 126420, Note_on_c, 9, 42, 0
11, 126480, Note_on_c, 9, 35, 127
11, 126480, Note_on_c, 9, 42, 107
11, 126540, Note_on_c, 9, 42, 0
11, 126540, Note_on_c, 9, 35, 0
11, 126600, Note_on_c, 9, 35, 127
11, 126600, Note_on_c, 9, 42, 107
11, 126660, Note_on_c, 9, 42, 0
11, 126660, Note_on_c, 9, 35, 0
11, 126720, Note_on_c, 9, 38, 117
11, 126720, Note_on_c, 9, 42, 107
11, 126780, Note_on_c, 9, 42, 0
11, 126780, Note_on_c, 9, 38, 0
11, 126840, Note_on_c, 9, 35, 127
11, 126840, Note_on_c, 9, 42, 107
11, 126900, Note_on_c, 9, 42, 0
11, 126900, Note_on_c, 9, 35, 0
11, 126960, Note_on_c, 9, 35, 127
11, 126960, Note_on_c, 9, 42, 107
11, 127020, Note_on_c, 9, 42, 0
11, 127020, Note_on_c, 9, 35, 0
11, 127080, Note_on_c, 9, 42, 107
11, 127140, Note_on_c, 9, 42, 0
11, 127200, Note_on_c, 9, 38, 117
11, 127200, Note_on_c, 9, 42, 107
11, 127260, Note_on_c, 9, 42, 0
11, 127260, Note_on_c, 9, 38, 0
11, 127320, Note_on_c, 9, 38, 117
11, 127340, Note_on_c, 9, 38, 0
11, 127360, Note_on_c, 9, 38, 117
11, 127380, Note_on_c, 9, 38, 0
11, 127400, Note_on_c, 9, 38, 117
11, 127420, Note_on_c, 9, 38, 0
11, 127440, Note_on_c, 9, 38, 117
11, 127500, Note_on_c, 9, 38, 0
11, 127560, Note_on_c, 9, 35, 127
11, 127620, Note_on_c, 9, 35, 0
11, 127680, Note_on_c, 9, 38, 117
11, 127680, Note_on_c, 9, 42, 107
11, 127740, Note_on_c, 9, 42, 0
11, 127740, Note_on_c, 9, 38, 0
11, 127800, Note_on_c, 9, 35, 127
11, 127800, Note_on_c, 9, 42, 107
11, 127860, Note_on_c, 9, 42, 0
11, 127860, Note_on_c, 9, 35, 0
11, 127920, Note_on_c, 9, 35, 127
11, 127920, Note_on_c, 9, 42, 107
11, 127980, Note_on_c, 9, 42, 0
11, 127980, Note_on_c, 9, 35, 0
11, 128040, Note_on_c, 9, 38, 117
11, 128100, Note_on_c, 9, 38, 0
11, 128100, Note_on_c, 9, 38, 117
11, 128160, Note_on_c, 9, 38, 0
11, 128160, Note_on_c, 9, 43, 127
11, 128220, Note_on_c, 9, 43, 0
11, 128220, Note_on_c, 9, 43, 127
11, 128280, Note_on_c, 9, 43, 0
11, 128280, Note_on_c, 9, 41, 127
11, 128340, Note_on_c, 9, 41, 0
11, 128340, Note_on_c, 9, 41, 127
11, 128400, Note_on_c, 9, 41, 0
11, 128400, Note_on_c, 9, 35, 127
11, 128400, Note_on_c, 9, 49, 127
11, 128460, Note_on_c, 9, 49, 0
11, 128460, Note_on_c, 9, 35, 0
11, 128640, Note_on_c, 9, 57, 127
11, 128640, Note_on_c, 9, 38, 117
11, 128700, Note_on_c, 9, 38, 0
11, 128700, Note_on_c, 9, 57, 0
11, 128760, Note_on_c, 9, 35, 127
11, 128760, Note_on_c, 9, 46, 107
11, 128820, Note_on_c, 9, 46, 0
11, 128820, Note_on_c, 9, 35, 0
11, 128880, Note_on_c, 9, 35, 127
11, 128880, Note_on_c, 9, 46, 107
11, 128940, Note_on_c, 9, 46, 0
11, 128940, Note_on_c, 9, 35, 0
11, 129000, Note_on_c, 9, 46, 107
11, 129060, Note_on_c, 9, 46, 0
11, 129120, Note_on_c, 9, 38, 117
11, 129120, Note_on_c, 9, 46, 107
11, 129180, Note_on_c, 9, 46, 0
11, 129180, Note_on_c, 9, 38, 0
11, 129240, Note_on_c, 9, 38, 117
11, 129260, Note_on_c, 9, 38, 0
11, 129280, Note_on_c, 9, 38, 117
11, 129300, Note_on_c, 9, 38, 0
11, 129320, Note_on_c, 9, 38, 117
11, 129340, Note_on_c, 9, 38, 0
11, 129360, Note_on_c, 9, 38, 117
11, 129420, Note_on_c, 9, 38, 0
11, 129480, Note_on_c, 9, 35, 127
11, 129540, Note_on_c, 9, 35, 0
11, 129600, Note_on_c, 9, 38, 117
11, 129600, Note_on_c, 9, 46, 107
11, 129660, Note_on_c, 9, 46, 0
11, 129660, Note_on_c, 9, 38, 0
11, 129720, Note_on_c, 9, 35, 127
11, 129720, Note_on_c, 9, 46, 107
11, 129780, Note_on_c, 9, 46, 0
11, 129780, Note_on_c, 9, 35, 0
11, 129840, Note_on_c, 9, 35, 127
11, 129840, Note_on_c, 9, 46, 107
11, 129900, Note_on_c, 9, 46, 0
11, 129900, Note_on_c, 9, 35, 0
11, 129960, Note_on_c, 9, 38, 117
11, 130020, Note_on_c, 9, 38, 0
11, 130020, Note_on_c, 9, 38, 117
11, 130080, Note_on_c, 9, 38, 0
11, 130080, Note_on_c, 9, 43, 127
11, 130140, Note_on_c, 9, 43, 0
11, 130140, Note_on_c, 9, 43, 127
11, 130200, Note_on_c, 9, 43, 0
11, 130200, Note_on_c, 9, 41, 127
11, 130260, Note_on_c, 9, 41, 0
11, 130260, Note_on_c, 9, 41, 127
11, 130320, Note_on_c, 9, 41, 0
11, 130320, Note_on_c, 9, 35, 127
11, 130320, Note_on_c, 9, 49, 127
11, 130380, Note_on_c, 9, 49, 0
11, 130380, Note_on_c, 9, 35, 0
11, 130560, Note_on_c, 9, 57, 127
11, 130560, Note_on_c, 9, 38, 117
11, 130620, Note_on_c, 9, 38, 0
11, 130620, Note_on_c, 9, 57, 0
11, 130680, Note_on_c, 9, 35, 127
11, 130680, Note_on_c, 9, 46, 107
11, 130740, Note_on_c, 9, 46, 0
11, 130740, Note_on_c, 9, 35, 0
11, 130800, Note_on_c, 9, 35, 127
11, 130800, Note_on_c, 9, 46, 107
11, 130860, Note_on_c, 9, 46, 0
11, 130860, Note_on_c, 9, 35, 0
11, 130920, Note_on_c, 9, 46, 107
11, 130980, Note_on_c, 9, 46, 0
11, 131040, Note_on_c, 9, 38, 117
11, 131040, Note_on_c, 9, 46, 107
11, 131100, Note_on_c, 9, 46, 0
11, 131100, Note_on_c, 9, 38, 0
11, 131160, Note_on_c, 9, 38, 117
11, 131180, Note_on_c, 9, 38, 0
11, 131200, Note_on_c, 9, 38, 117
11, 131220, Note_on_c, 9, 38, 0
11, 131240, Note_on_c, 9, 38, 117
11, 131260, Note_on_c, 9, 38, 0
11, 131280, Note_on_c, 9, 38, 117
11, 131340, Note_on_c, 9, 38, 0
11, 131400, Note_on_c, 9, 35, 127
11, 131460, Note_on_c, 9, 35, 0
11, 131520, Note_on_c, 9, 38, 117
11, 131520, Note_on_c, 9, 46, 107
11, 131580, Note_on_c, 9, 46, 0
11, 131580, Note_on_c, 9, 38, 0
11, 131640, Note_on_c, 9, 35, 127
11, 131640, Note_on_c, 9, 46, 107
11, 131700, Note_on_c, 9, 46, 0
11, 131700, Note_on_c, 9, 35, 0
11, 131760, Note_on_c, 9, 35, 127
11, 131760, Note_on_c, 9, 46, 107
11, 131820, Note_on_c, 9, 46, 0
11, 131820, Note_on_c, 9, 35, 0
11, 131880, Note_on_c, 9, 38, 117
11, 131940, Note_on_c, 9, 38, 0
11, 131940, Note_on_c, 9, 38, 117
11, 132000, Note_on_c, 9, 38, 0
11, 132000, Note_on_c, 9, 43, 127
11, 132060, Note_on_c, 9, 43, 0
11, 132060, Note_on_c, 9, 43, 127
11, 132120, Note_on_c, 9, 43, 0
11, 132120, Note_on_c, 9, 41, 127
11, 132180, Note_on_c, 9, 41, 0
11, 132180, Note_on_c, 9, 41, 127
11, 132240, Note_on_c, 9, 41, 0
11, 132240, Note_on_c, 9, 35, 127
11, 132240, Note_on_c, 9, 49, 127
11, 132300, Note_on_c, 9, 49, 0
11, 132300, Note_on_c, 9, 35, 0
11, 132480, Note_on_c, 9, 57, 127
11, 132480, Note_on_c, 9, 38, 117
11, 132540, Note_on_c, 9, 38, 0
11, 132540, Note_on_c, 9, 57, 0
11, 132600, Note_on_c, 9, 35, 127
11, 132600, Note_on_c, 9, 46, 107
11, 132660, Note_on_c, 9, 46, 0
11, 132660, Note_on_c, 9, 35, 0
11, 132720, Note_on_c, 9, 35, 127
11, 132720, Note_on_c, 9, 46, 107
11, 132780, Note_on_c, 9, 46, 0
11, 132780, Note_on_c, 9, 35, 0
11, 132840, Note_on_c, 9, 46, 107
11, 132900, Note_on_c, 9, 46, 0
11, 132960, Note_on_c, 9, 38, 117
11, 132960, Note_on_c, 9, 46, 107
11, 133020, Note_on_c, 9, 46, 0
11, 133020, Note_on_c, 9, 38, 0
11, 133080, Note_on_c, 9, 38, 117
11, 133100, Note_on_c, 9, 38, 0
11, 133120, Note_on_c, 9, 38, 117
11, 133140, Note_on_c, 9, 38, 0
11, 133160, Note_on_c, 9, 38, 117
11, 133180, Note_on_c, 9, 38, 0
11, 133200, Note_on_c, 9, 38, 117
11, 133260, Note_on_c, 9, 38, 0
11, 133320, Note_on_c, 9, 35, 127
11, 133380, Note_on_c, 9, 35, 0
11, 133440, Note_on_c, 9, 38, 117
11, 133440, Note_on_c, 9, 46, 107
11, 133500, Note_on_c, 9, 46, 0
11, 133500, Note_on_c, 9, 38, 0
11, 133560, Note_on_c, 9, 35, 127
11, 133560, Note_on_c, 9, 46, 107
11, 133620, Note_on_c, 9, 46, 0
11, 133620, Note_on_c, 9, 35, 0
11, 133680, Note_on_c, 9, 35, 127
11, 133680, Note_on_c, 9, 46, 107
11, 133740, Note_on_c, 9, 46, 0
11, 133740, Note_on_c, 9, 35, 0
11, 133800, Note_on_c, 9, 38, 117
11, 133860, Note_on_c, 9, 38, 0
11, 133860, Note_on_c, 9, 38, 117
11, 133920, Note_on_c, 9, 38, 0
11, 133920, Note_on_c, 9, 43, 127
11, 133980, Note_on_c, 9, 43, 0
11, 133980, Note_on_c, 9, 43, 127
11, 134040, Note_on_c, 9, 43, 0
11, 134040, Note_on_c, 9, 41, 127
11, 134100, Note_on_c, 9, 41, 0
11, 134100, Note_on_c, 9, 41, 127
11, 134160, Note_on_c, 9, 41, 0
11, 134160, Note_on_c, 9, 57, 127
11, 134160, Note_on_c, 9, 35, 127
11, 134160, Note_on_c, 9, 49, 127
11, 134220, Note_on_c, 9, 49, 0
11, 134220, Note_on_c, 9, 35, 0
11, 134220, Note_on_c, 9, 57, 0
11, 134280, Note_on_c, 9, 35, 127
11, 134280, Note_on_c, 9, 46, 107
11, 134340, Note_on_c, 9, 46, 0
11, 134340, Note_on_c, 9, 35, 0
11, 134400, Note_on_c, 9, 38, 117
11, 134400, Note_on_c, 9, 46, 107
11, 134460, Note_on_c, 9, 46, 0
11, 134460, Note_on_c, 9, 38, 0
11, 134520, Note_on_c, 9, 35, 127
11, 134520, Note_on_c, 9, 46, 107
11, 134580, Note_on_c, 9, 46, 0
11, 134580, Note_on_c, 9, 35, 0
11, 134640, Note_on_c, 9, 35, 127
11, 134640, Note_on_c, 9, 46, 107
11, 134700, Note_on_c, 9, 46, 0
11, 134700, Note_on_c, 9, 35, 0
11, 134760, Note_on_c, 9, 46, 107
11, 134820, Note_on_c, 9, 46, 0
11, 134880, Note_on_c, 9, 38, 117
11, 134880, Note_on_c, 9, 46, 107
11, 134940, Note_on_c, 9, 46, 0
11, 134940, Note_on_c, 9, 38, 0
11, 135000, Note_on_c, 9, 38, 117
11, 135020, Note_on_c, 9, 38, 0
11, 135040, Note_on_c, 9, 38, 117
11, 135060, Note_on_c, 9, 38, 0
11, 135080, Note_on_c, 9, 38, 117
11, 135100, Note_on_c, 9, 38, 0
11, 135120, Note_on_c, 9, 38, 117
11, 135180, Note_on_c, 9, 38, 0
11, 135240, Note_on_c, 9, 35, 127
11, 135300, Note_on_c, 9, 35, 0
11, 135360, Note_on_c, 9, 38, 117
11, 135360, Note_on_c, 9, 49, 127
11, 135420, Note_on_c, 9, 49, 0
11, 135420, Note_on_c, 9, 38, 0
11, 135480, Note_on_c, 9, 35, 127
11, 135540, Note_on_c, 9, 35, 0
11, 135600, Note_on_c, 9, 35, 127
11, 135600, Note_on_c, 9, 51, 127
11, 135660, Note_on_c, 9, 51, 0
11, 135660, Note_on_c, 9, 35, 0
11, 135720, Note_on_c, 9, 51, 127
11, 135780, Note_on_c, 9, 51, 0
11, 135840, Note_on_c, 9, 38, 117
11, 135840, Note_on_c, 9, 51, 127
11, 135900, Note_on_c, 9, 51, 0
11, 135900, Note_on_c, 9, 38, 0
11, 135960, Note_on_c, 9, 38, 117
11, 135980, Note_on_c, 9, 38, 0
11, 136000, Note_on_c, 9, 43, 127
11, 136020, Note_on_c, 9, 43, 0
11, 136040, Note_on_c, 9, 43, 127
11, 136060, Note_on_c, 9, 43, 0
11, 136080, Note_on_c, 9, 41, 127
11, 136140, Note_on_c, 9, 41, 0
11, 136200, Note_on_c, 9, 35, 127
11, 136200, Note_on_c, 9, 49, 127
11, 136260, Note_on_c, 9, 49, 0
11, 136260, Note_on_c, 9, 35, 0
11, 136320, Note_on_c, 9, 57, 127
11, 136320, Note_on_c, 9, 38, 117
11, 136380, Note_on_c, 9, 38, 0
11, 136380, Note_on_c, 9, 57, 0
11, 136440, Note_on_c, 9, 35, 127
11, 136500, Note_on_c, 9, 35, 0
11, 136560, Note_on_c, 9, 35, 127
11, 136560, Note_on_c, 9, 51, 127
11, 136620, Note_on_c, 9, 51, 0
11, 136620, Note_on_c, 9, 35, 0
11, 136680, Note_on_c, 9, 51, 127
11, 136740, Note_on_c, 9, 51, 0
11, 136800, Note_on_c, 9, 38, 117
11, 136800, Note_on_c, 9, 49, 127
11, 136860, Note_on_c, 9, 49, 0
11, 136860, Note_on_c, 9, 38, 0
11, 136920, Note_on_c, 9, 51, 127
11, 136980, Note_on_c, 9, 51, 0
11, 137040, Note_on_c, 9, 51, 127
11, 137040, Note_on_c, 9, 38, 117
11, 137100, Note_on_c, 9, 38, 0
11, 137100, Note_on_c, 9, 51, 0
11, 137160, Note_on_c, 9, 35, 127
11, 137160, Note_on_c, 9, 51, 127
11, 137220, Note_on_c, 9, 51, 0
11, 137220, Note_on_c, 9, 35, 0
11, 137280, Note_on_c, 9, 38, 117
11, 137280, Note_on_c, 9, 49, 127
11, 137340, Note_on_c, 9, 49, 0
11, 137340, Note_on_c, 9, 38, 0
11, 137400, Note_on_c, 9, 35, 127
11, 137400, Note_on_c, 9, 51, 127
11, 137460, Note_on_c, 9, 51, 0
11, 137460, Note_on_c, 9, 35, 0
11, 137520, Note_on_c, 9, 51, 127
11, 137520, Note_on_c, 9, 35, 127
11, 137580, Note_on_c, 9, 35, 0
11, 137580, Note_on_c, 9, 51, 0
11, 137640, Note_on_c, 9, 51, 127
11, 137700, Note_on_c, 9, 51, 0
11, 137760, Note_on_c, 9, 38, 117
11, 137760, Note_on_c, 9, 49, 127
11, 137820, Note_on_c, 9, 49, 0
11, 137820, Note_on_c, 9, 38, 0
11, 137880, Note_on_c, 9, 38, 117
11, 137900, Note_on_c, 9, 38, 0
11, 137920, Note_on_c, 9, 38, 117
11, 137940, Note_on_c, 9, 38, 0
11, 137960, Note_on_c, 9, 38, 117
11, 137980, Note_on_c, 9, 38, 0
11, 138000, Note_on_c, 9, 35, 127
11, 138000, Note_on_c, 9, 51, 127
11, 138060, Note_on_c, 9, 51, 0
11, 138060, Note_on_c, 9, 35, 0
11, 138120, Note_on_c, 9, 35, 127
11, 138120, Note_on_c, 9, 51, 127
11, 138180, Note_on_c, 9, 51, 0
11, 138180, Note_on_c, 9, 35, 0
11, 138240, Note_on_c, 9, 38, 117
11, 138240, Note_on_c, 9, 49, 127
11, 138300, Note_on_c, 9, 49, 0
11, 138300, Note_on_c, 9, 38, 0
11, 138360, Note_on_c, 9, 35, 127
11, 138360, Note_on_c, 9, 51, 127
11, 138420, Note_on_c, 9, 51, 0
11, 138420, Note_on_c, 9, 35, 0
11, 138480, Note_on_c, 9, 35, 127
11, 138480, Note_on_c, 9, 51, 127
11, 138540, Note_on_c, 9, 51, 0
11, 138540, Note_on_c, 9, 35, 0
11, 138600, Note_on_c, 9, 51, 127
11, 138660, Note_on_c, 9, 51, 0
11, 138720, Note_on_c, 9, 38, 117
11, 138720, Note_on_c, 9, 49, 127
11, 138780, Note_on_c, 9, 49, 0
11, 138780, Note_on_c, 9, 38, 0
11, 138840, Note_on_c, 9, 35, 127
11, 138840, Note_on_c, 9, 51, 127
11, 138900, Note_on_c, 9, 51, 0
11, 138900, Note_on_c, 9, 35, 0
11, 138960, Note_on_c, 9, 38, 117
11, 138960, Note_on_c, 9, 51, 127
11, 139020, Note_on_c, 9, 51, 0
11, 139020, Note_on_c, 9, 38, 0
11, 139080, Note_on_c, 9, 35, 127
11, 139080, Note_on_c, 9, 51, 127
11, 139140, Note_on_c, 9, 51, 0
11, 139140, Note_on_c, 9, 35, 0
11, 139200, Note_on_c, 9, 38, 117
11, 139200, Note_on_c, 9, 49, 127
11, 139260, Note_on_c, 9, 49, 0
11, 139260, Note_on_c, 9, 38, 0
11, 139320, Note_on_c, 9, 35, 127
11, 139320, Note_on_c, 9, 51, 127
11, 139380, Note_on_c, 9, 51, 0
11, 139380, Note_on_c, 9, 35, 0
11, 139440, Note_on_c, 9, 35, 127
11, 139440, Note_on_c, 9, 51, 127
11, 139500, Note_on_c, 9, 51, 0
11, 139500, Note_on_c, 9, 35, 0
11, 139560, Note_on_c, 9, 51, 127
11, 139620, Note_on_c, 9, 51, 0
11, 139680, Note_on_c, 9, 38, 117
11, 139680, Note_on_c, 9, 49, 127
11, 139740, Note_on_c, 9, 49, 0
11, 139740, Note_on_c, 9, 38, 0
11, 139800, Note_on_c, 9, 38, 117
11, 139820, Note_on_c, 9, 38, 0
11, 139840, Note_on_c, 9, 38, 117
11, 139860, Note_on_c, 9, 38, 0
11, 139880, Note_on_c, 9, 38, 117
11, 139900, Note_on_c, 9, 38, 0
11, 139920, Note_on_c, 9, 35, 127
11, 139920, Note_on_c, 9, 51, 127
11, 139980, Note_on_c, 9, 51, 0
11, 139980, Note_on_c, 9, 35, 0
11, 140040, Note_on_c, 9, 35, 127
11, 140040, Note_on_c, 9, 51, 127
11, 140100, Note_on_c, 9, 51, 0
11, 140100, Note_on_c, 9, 35, 0
11, 140160, Note_on_c, 9, 38, 117
11, 140160, Note_on_c, 9, 49, 127
11, 140220, Note_on_c, 9, 49, 0
11, 140220, Note_on_c, 9, 38, 0
11, 140280, Note_on_c, 9, 35, 127
11, 140280, Note_on_c, 9, 51, 127
11, 140340, Note_on_c, 9, 51, 0
11, 140340, Note_on_c, 9, 35, 0
11, 140400, Note_on_c, 9, 35, 127
11, 140400, Note_on_c, 9, 51, 127
11, 140460, Note_on_c, 9, 51, 0
11, 140460, Note_on_c, 9, 35, 0
11, 140520, Note_on_c, 9, 51, 127
11, 140580, Note_on_c, 9, 51, 0
11, 140640, Note_on_c, 9, 38, 117
11, 140640, Note_on_c, 9, 49, 127
11, 140700, Note_on_c, 9, 49, 0
11, 140700, Note_on_c, 9, 38, 0
11, 140760, Note_on_c, 9, 35, 127
11, 140760, Note_on_c, 9, 51, 127
11, 140820, Note_on_c, 9, 51, 0
11, 140820, Note_on_c, 9, 35, 0
11, 140880, Note_on_c, 9, 38, 117
11, 140880, Note_on_c, 9, 51, 127
11, 140940, Note_on_c, 9, 51, 0
11, 140940, Note_on_c, 9, 38, 0
11, 141000, Note_on_c, 9, 35, 127
11, 141000, Note_on_c, 9, 51, 127
11, 141060, Note_on_c, 9, 51, 0
11, 141060, Note_on_c, 9, 35, 0
11, 141120, Note_on_c, 9, 38, 117
11, 141120, Note_on_c, 9, 49, 127
11, 141180, Note_on_c, 9, 49, 0
11, 141180, Note_on_c, 9, 38, 0
11, 141240, Note_on_c, 9, 35, 127
11, 141240, Note_on_c, 9, 51, 127
11, 141300, Note_on_c, 9, 51, 0
11, 141300, Note_on_c, 9, 35, 0
11, 141360, Note_on_c, 9, 35, 127
11, 141360, Note_on_c, 9, 51, 127
11, 141420, Note_on_c, 9, 51, 0
11, 141420, Note_on_c, 9, 35, 0
11, 141480, Note_on_c, 9, 51, 127
11, 141540, Note_on_c, 9, 51, 0
11, 141600, Note_on_c, 9, 38, 117
11, 141600, Note_on_c, 9, 49, 127
11, 141660, Note_on_c, 9, 49, 0
11, 141660, Note_on_c, 9, 38, 0
11, 141720, Note_on_c, 9, 38, 117
11, 141740, Note_on_c, 9, 38, 0
11, 141760, Note_on_c, 9, 38, 117
11, 141780, Note_on_c, 9, 38, 0
11, 141800, Note_on_c, 9, 38, 117
11, 141820, Note_on_c, 9, 38, 0
11, 141840, Note_on_c, 9, 35, 127
11, 141840, Note_on_c, 9, 51, 127
11, 141900, Note_on_c, 9, 51, 0
11, 141900, Note_on_c, 9, 35, 0
11, 141960, Note_on_c, 9, 35, 127
11, 141960, Note_on_c, 9, 51, 127
11, 142020, Note_on_c, 9, 51, 0
11, 142020, Note_on_c, 9, 35, 0
11, 142080, Note_on_c, 9, 38, 117
11, 142080, Note_on_c, 9, 49, 127
11, 142140, Note_on_c, 9, 49, 0
11, 142140, Note_on_c, 9, 38, 0
11, 142200, Note_on_c, 9, 35, 127
11, 142200, Note_on_c, 9, 51, 127
11, 142260, Note_on_c, 9, 51, 0
11, 142260, Note_on_c, 9, 35, 0
11, 142320, Note_on_c, 9, 35, 127
11, 142320, Note_on_c, 9, 51, 127
11, 142380, Note_on_c, 9, 51, 0
11, 142380, Note_on_c, 9, 35, 0
11, 142440, Note_on_c, 9, 51, 127
11, 142500, Note_on_c, 9, 51, 0
11, 142560, Note_on_c, 9, 38, 117
11, 142560, Note_on_c, 9, 49, 127
11, 142620, Note_on_c, 9, 49, 0
11, 142620, Note_on_c, 9, 38, 0
11, 142680, Note_on_c, 9, 35, 127
11, 142680, Note_on_c, 9, 51, 127
11, 142740, Note_on_c, 9, 51, 0
11, 142740, Note_on_c, 9, 35, 0
11, 142800, Note_on_c, 9, 35, 127
11, 142800, Note_on_c, 9, 51, 127
11, 142860, Note_on_c, 9, 51, 0
11, 142860, Note_on_c, 9, 35, 0
11, 142920, Note_on_c, 9, 35, 127
11, 142920, Note_on_c, 9, 51, 127
11, 142980, Note_on_c, 9, 51, 0
11, 142980, Note_on_c, 9, 35, 0
11, 143040, Note_on_c, 9, 38, 117
11, 143040, Note_on_c, 9, 49, 127
11, 143100, Note_on_c, 9, 49, 0
11, 143100, Note_on_c, 9, 38, 0
11, 143160, Note_on_c, 9, 35, 127
11, 143160, Note_on_c, 9, 51, 127
11, 143220, Note_on_c, 9, 51, 0
11, 143220, Note_on_c, 9, 35, 0
11, 143280, Note_on_c, 9, 35, 127
11, 143280, Note_on_c, 9, 51, 127
11, 143340, Note_on_c, 9, 51, 0
11, 143340, Note_on_c, 9, 35, 0
11, 143400, Note_on_c, 9, 51, 127
11, 143460, Note_on_c, 9, 51, 0
11, 143520, Note_on_c, 9, 38, 117
11, 143580, Note_on_c, 9, 38, 0
11, 143640, Note_on_c, 9, 35, 127
11, 143640, Note_on_c, 9, 49, 127
11, 143700, Note_on_c, 9, 49, 0
11, 143700, Note_on_c, 9, 35, 0
11, 143760, Note_on_c, 9, 35, 127
11, 143760, Note_on_c, 9, 46, 107
11, 143820, Note_on_c, 9, 46, 0
11, 143820, Note_on_c, 9, 35, 0
11, 143820, Note_on_c, 9, 36, 127
11, 143880, Note_on_c, 9, 36, 0
11, 143880, Note_on_c, 9, 35, 127
11, 143880, Note_on_c, 9, 38, 117
11, 143940, Note_on_c, 9, 38, 0
11, 143940, Note_on_c, 9, 35, 0
11, 143940, Note_on_c, 9, 36, 127
11, 143940, Note_on_c, 9, 38, 117
11, 144000, Note_on_c, 9, 38, 0
11, 144000, Note_on_c, 9, 36, 0
11, 144000, Note_on_c, 9, 35, 127
11, 144000, Note_on_c, 9, 46, 107
11, 144060, Note_on_c, 9, 46, 0
11, 144060, Note_on_c, 9, 35, 0
11, 144060, Note_on_c, 9, 36, 127
11, 144120, Note_on_c, 9, 36, 0
11, 144120, Note_on_c, 9, 35, 127
11, 144120, Note_on_c, 9, 38, 117
11, 144180, Note_on_c, 9, 38, 0
11, 144180, Note_on_c, 9, 35, 0
11, 144180, Note_on_c, 9, 36, 127
11, 144240, Note_on_c, 9, 36, 0
11, 144240, Note_on_c, 9, 35, 127
11, 144240, Note_on_c, 9, 46, 107
11, 144300, Note_on_c, 9, 46, 0
11, 144300, Note_on_c, 9, 35, 0
11, 144300, Note_on_c, 9, 36, 127
11, 144360, Note_on_c, 9, 36, 0
11, 144360, Note_on_c, 9, 35, 127
11, 144360, Note_on_c, 9, 38, 117
11, 144420, Note_on_c, 9, 38, 0
11, 144420, Note_on_c, 9, 35, 0
11, 144420, Note_on_c, 9, 36, 127
11, 144480, Note_on_c, 9, 36, 0
11, 144480, Note_on_c, 9, 35, 127
11, 144480, Note_on_c, 9, 46, 107
11, 144540, Note_on_c, 9, 46, 0
11, 144540, Note_on_c, 9, 35, 0
11, 144540, Note_on_c, 9, 36, 127
11, 144540, Note_on_c, 9, 38, 117
11, 144600, Note_on_c, 9, 38, 0
11, 144600, Note_on_c, 9, 36, 0
11, 144600, Note_on_c, 9, 35, 127
11, 144600, Note_on_c, 9, 38, 117
11, 144660, Note_on_c, 9, 38, 0
11, 144660, Note_on_c, 9, 35, 0
11, 144660, Note_on_c, 9, 36, 127
11, 144720, Note_on_c, 9, 36, 0
11, 144720, Note_on_c, 9, 35, 127
11, 144720, Note_on_c, 9, 46, 107
11, 144780, Note_on_c, 9, 46, 0
11, 144780, Note_on_c, 9, 35, 0
11, 144780, Note_on_c, 9, 36, 127
11, 144840, Note_on_c, 9, 36, 0
11, 144840, Note_on_c, 9, 35, 127
11, 144840, Note_on_c, 9, 38, 117
11, 144900, Note_on_c, 9, 38, 0
11, 144900, Note_on_c, 9, 35, 0
11, 144900, Note_on_c, 9, 36, 127
11, 144900, Note_on_c, 9, 38, 117
11, 144960, Note_on_c, 9, 38, 0
11, 144960, Note_on_c, 9, 36, 0
11, 144960, Note_on_c, 9, 35, 127
11, 144960, Note_on_c, 9, 46, 107
11, 145020, Note_on_c, 9, 46, 0
11, 145020, Note_on_c, 9, 35, 0
11, 145020, Note_on_c, 9, 36, 127
11, 145020, Note_on_c, 9, 38, 117
11, 145080, Note_on_c, 9, 38, 0
11, 145080, Note_on_c, 9, 36, 0
11, 145080, Note_on_c, 9, 35, 127
11, 145080, Note_on_c, 9, 38, 117
11, 145140, Note_on_c, 9, 38, 0
11, 145140, Note_on_c, 9, 35, 0
11, 145140, Note_on_c, 9, 36, 127
11, 145200, Note_on_c, 9, 36, 0
11, 145200, Note_on_c, 9, 35, 127
11, 145200, Note_on_c, 9, 46, 107
11, 145260, Note_on_c, 9, 46, 0
11, 145260, Note_on_c, 9, 35, 0
11, 145260, Note_on_c, 9, 36, 127
11, 145260, Note_on_c, 9, 38, 117
11, 145320, Note_on_c, 9, 38, 0
11, 145320, Note_on_c, 9, 36, 0
11, 145320, Note_on_c, 9, 35, 127
11, 145320, Note_on_c, 9, 38, 117
11, 145380, Note_on_c, 9, 38, 0
11, 145380, Note_on_c, 9, 35, 0
11, 145380, Note_on_c, 9, 36, 127
11, 145440, Note_on_c, 9, 36, 0
11, 145440, Note_on_c, 9, 35, 127
11, 145440, Note_on_c, 9, 38, 117
11, 145440, Note_on_c, 9, 49, 127
11, 145500, Note_on_c, 9, 49, 0
11, 145500, Note_on_c, 9, 38, 0
11, 145500, Note_on_c, 9, 35, 0
11, 145500, Note_on_c, 9, 36, 127
11, 145560, Note_on_c, 9, 36, 0
11, 145560, Note_on_c, 9, 35, 127
11, 145620, Note_on_c, 9, 35, 0
11, 145620, Note_on_c, 9, 36, 127
11, 145680, Note_on_c, 9, 36, 0
11, 145680, Note_on_c, 9, 35, 127
11, 145680, Note_on_c, 9, 46, 107
11, 145740, Note_on_c, 9, 46, 0
11, 145740, Note_on_c, 9, 35, 0
11, 145740, Note_on_c, 9, 36, 127
11, 145800, Note_on_c, 9, 36, 0
11, 145800, Note_on_c, 9, 35, 127
11, 145800, Note_on_c, 9, 38, 117
11, 145860, Note_on_c, 9, 38, 0
11, 145860, Note_on_c, 9, 35, 0
11, 145860, Note_on_c, 9, 36, 127
11, 145860, Note_on_c, 9, 38, 117
11, 145920, Note_on_c, 9, 38, 0
11, 145920, Note_on_c, 9, 36, 0
11, 145920, Note_on_c, 9, 35, 127
11, 145920, Note_on_c, 9, 46, 107
11, 145980, Note_on_c, 9, 46, 0
11, 145980, Note_on_c, 9, 35, 0
11, 145980, Note_on_c, 9, 36, 127
11, 146040, Note_on_c, 9, 36, 0
11, 146040, Note_on_c, 9, 35, 127
11, 146040, Note_on_c, 9, 38, 117
11, 146100, Note_on_c, 9, 38, 0
11, 146100, Note_on_c, 9, 35, 0
11, 146100, Note_on_c, 9, 36, 127
11, 146160, Note_on_c, 9, 36, 0
11, 146160, Note_on_c, 9, 35, 127
11, 146160, Note_on_c, 9, 46, 107
11, 146220, Note_on_c, 9, 46, 0
11, 146220, Note_on_c, 9, 35, 0
11, 146220, Note_on_c, 9, 36, 127
11, 146280, Note_on_c, 9, 36, 0
11, 146280, Note_on_c, 9, 35, 127
11, 146280, Note_on_c, 9, 38, 117
11, 146340, Note_on_c, 9, 38, 0
11, 146340, Note_on_c, 9, 35, 0
11, 146340, Note_on_c, 9, 36, 127
11, 146400, Note_on_c, 9, 36, 0
11, 146400, Note_on_c, 9, 35, 127
11, 146400, Note_on_c, 9, 46, 107
11, 146460, Note_on_c, 9, 46, 0
11, 146460, Note_on_c, 9, 35, 0
11, 146460, Note_on_c, 9, 36, 127
11, 146460, Note_on_c, 9, 38, 117
11, 146520, Note_on_c, 9, 38, 0
11, 146520, Note_on_c, 9, 36, 0
11, 146520, Note_on_c, 9, 35, 127
11, 146520, Note_on_c, 9, 38, 117
11, 146580, Note_on_c, 9, 38, 0
11, 146580, Note_on_c, 9, 35, 0
11, 146580, Note_on_c, 9, 36, 127
11, 146640, Note_on_c, 9, 36, 0
11, 146640, Note_on_c, 9, 35, 127
11, 146640, Note_on_c, 9, 46, 107
11, 146700, Note_on_c, 9, 46, 0
11, 146700, Note_on_c, 9, 35, 0
11, 146700, Note_on_c, 9, 36, 127
11, 146760, Note_on_c, 9, 36, 0
11, 146760, Note_on_c, 9, 35, 127
11, 146760, Note_on_c, 9, 38, 117
11, 146820, Note_on_c, 9, 38, 0
11, 146820, Note_on_c, 9, 35, 0
11, 146820, Note_on_c, 9, 36, 127
11, 146820, Note_on_c, 9, 38, 117
11, 146880, Note_on_c, 9, 38, 0
11, 146880, Note_on_c, 9, 36, 0
11, 146880, Note_on_c, 9, 35, 127
11, 146880, Note_on_c, 9, 46, 107
11, 146940, Note_on_c, 9, 46, 0
11, 146940, Note_on_c, 9, 35, 0
11, 146940, Note_on_c, 9, 36, 127
11, 146940, Note_on_c, 9, 38, 117
11, 147000, Note_on_c, 9, 38, 0
11, 147000, Note_on_c, 9, 36, 0
11, 147000, Note_on_c, 9, 35, 127
11, 147000, Note_on_c, 9, 38, 117
11, 147060, Note_on_c, 9, 38, 0
11, 147060, Note_on_c, 9, 35, 0
11, 147060, Note_on_c, 9, 36, 127
11, 147060, Note_on_c, 9, 38, 117
11, 147120, Note_on_c, 9, 38, 0
11, 147120, Note_on_c, 9, 36, 0
11, 147120, Note_on_c, 9, 35, 127
11, 147120, Note_on_c, 9, 46, 107
11, 147180, Note_on_c, 9, 46, 0
11, 147180, Note_on_c, 9, 35, 0
11, 147180, Note_on_c, 9, 36, 127
11, 147180, Note_on_c, 9, 38, 117
11, 147240, Note_on_c, 9, 38, 0
11, 147240, Note_on_c, 9, 36, 0
11, 147240, Note_on_c, 9, 35, 127
11, 147240, Note_on_c, 9, 38, 117
11, 147300, Note_on_c, 9, 38, 0
11, 147300, Note_on_c, 9, 35, 0
11, 147300, Note_on_c, 9, 36, 127
11, 147360, Note_on_c, 9, 36, 0
11, 147360, Note_on_c, 9, 35, 127
11, 147360, Note_on_c, 9, 38, 117
11, 147360, Note_on_c, 9, 49, 127
11, 147420, Note_on_c, 9, 49, 0
11, 147420, Note_on_c, 9, 38, 0
11, 147420, Note_on_c, 9, 35, 0
11, 147420, Note_on_c, 9, 36, 127
11, 147480, Note_on_c, 9, 36, 0
11, 147480, Note_on_c, 9, 35, 127
11, 147540, Note_on_c, 9, 35, 0
11, 147540, Note_on_c, 9, 36, 127
11, 147600, Note_on_c, 9, 36, 0
11, 147600, Note_on_c, 9, 35, 127
11, 147600, Note_on_c, 9, 46, 107
11, 147660, Note_on_c, 9, 46, 0
11, 147660, Note_on_c, 9, 35, 0
11, 147660, Note_on_c, 9, 36, 127
11, 147720, Note_on_c, 9, 36, 0
11, 147720, Note_on_c, 9, 35, 127
11, 147720, Note_on_c, 9, 38, 117
11, 147780, Note_on_c, 9, 38, 0
11, 147780, Note_on_c, 9, 35, 0
11, 147780, Note_on_c, 9, 36, 127
11, 147780, Note_on_c, 9, 38, 117
11, 147840, Note_on_c, 9, 38, 0
11, 147840, Note_on_c, 9, 36, 0
11, 147840, Note_on_c, 9, 35, 127
11, 147840, Note_on_c, 9, 46, 107
11, 147900, Note_on_c, 9, 46, 0
11, 147900, Note_on_c, 9, 35, 0
11, 147900, Note_on_c, 9, 36, 127
11, 147960, Note_on_c, 9, 36, 0
11, 147960, Note_on_c, 9, 35, 127
11, 147960, Note_on_c, 9, 38, 117
11, 148020, Note_on_c, 9, 38, 0
11, 148020, Note_on_c, 9, 35, 0
11, 148020, Note_on_c, 9, 36, 127
11, 148080, Note_on_c, 9, 36, 0
11, 148080, Note_on_c, 9, 35, 127
11, 148080, Note_on_c, 9, 46, 107
11, 148140, Note_on_c, 9, 46, 0
11, 148140, Note_on_c, 9, 35, 0
11, 148140, Note_on_c, 9, 36, 127
11, 148200, Note_on_c, 9, 36, 0
11, 148200, Note_on_c, 9, 35, 127
11, 148200, Note_on_c, 9, 38, 117
11, 148260, Note_on_c, 9, 38, 0
11, 148260, Note_on_c, 9, 35, 0
11, 148260, Note_on_c, 9, 36, 127
11, 148320, Note_on_c, 9, 36, 0
11, 148320, Note_on_c, 9, 35, 127
11, 148320, Note_on_c, 9, 46, 107
11, 148380, Note_on_c, 9, 46, 0
11, 148380, Note_on_c, 9, 35, 0
11, 148380, Note_on_c, 9, 36, 127
11, 148380, Note_on_c, 9, 38, 117
11, 148440, Note_on_c, 9, 38, 0
11, 148440, Note_on_c, 9, 36, 0
11, 148440, Note_on_c, 9, 35, 127
11, 148440, Note_on_c, 9, 38, 117
11, 148500, Note_on_c, 9, 38, 0
11, 148500, Note_on_c, 9, 35, 0
11, 148500, Note_on_c, 9, 36, 127
11, 148560, Note_on_c, 9, 36, 0
11, 148560, Note_on_c, 9, 35, 127
11, 148560, Note_on_c, 9, 46, 107
11, 148620, Note_on_c, 9, 46, 0
11, 148620, Note_on_c, 9, 35, 0
11, 148620, Note_on_c, 9, 36, 127
11, 148680, Note_on_c, 9, 36, 0
11, 148680, Note_on_c, 9, 35, 127
11, 148680, Note_on_c, 9, 38, 117
11, 148740, Note_on_c, 9, 38, 0
11, 148740, Note_on_c, 9, 35, 0
11, 148740, Note_on_c, 9, 36, 127
11, 148740, Note_on_c, 9, 38, 117
11, 148800, Note_on_c, 9, 38, 0
11, 148800, Note_on_c, 9, 36, 0
11, 148800, Note_on_c, 9, 35, 127
11, 148800, Note_on_c, 9, 46, 107
11, 148860, Note_on_c, 9, 46, 0
11, 148860, Note_on_c, 9, 35, 0
11, 148860, Note_on_c, 9, 36, 127
11, 148860, Note_on_c, 9, 38, 117
11, 148920, Note_on_c, 9, 38, 0
11, 148920, Note_on_c, 9, 36, 0
11, 148920, Note_on_c, 9, 35, 127
11, 148920, Note_on_c, 9, 38, 117
11, 148980, Note_on_c, 9, 38, 0
11, 148980, Note_on_c, 9, 35, 0
11, 148980, Note_on_c, 9, 36, 127
11, 148980, Note_on_c, 9, 38, 117
11, 149040, Note_on_c, 9, 38, 0
11, 149040, Note_on_c, 9, 36, 0
11, 149040, Note_on_c, 9, 35, 127
11, 149040, Note_on_c, 9, 46, 107
11, 149100, Note_on_c, 9, 46, 0
11, 149100, Note_on_c, 9, 35, 0
11, 149100, Note_on_c, 9, 36, 127
11, 149100, Note_on_c, 9, 38, 117
11, 149160, Note_on_c, 9, 38, 0
11, 149160, Note_on_c, 9, 36, 0
11, 149160, Note_on_c, 9, 35, 127
11, 149160, Note_on_c, 9, 38, 117
11, 149220, Note_on_c, 9, 38, 0
11, 149220, Note_on_c, 9, 35, 0
11, 149220, Note_on_c, 9, 36, 127
11, 149280, Note_on_c, 9, 36, 0
11, 149280, Note_on_c, 9, 35, 127
11, 149280, Note_on_c, 9, 38, 117
11, 149280, Note_on_c, 9, 49, 127
11, 149340, Note_on_c, 9, 49, 0
11, 149340, Note_on_c, 9, 38, 0
11, 149340, Note_on_c, 9, 35, 0
11, 149340, Note_on_c, 9, 36, 127
11, 149400, Note_on_c, 9, 36, 0
11, 149400, Note_on_c, 9, 35, 127
11, 149460, Note_on_c, 9, 35, 0
11, 149460, Note_on_c, 9, 36, 127
11, 149520, Note_on_c, 9, 36, 0
11, 149520, Note_on_c, 9, 35, 127
11, 149520, Note_on_c, 9, 46, 107
11, 149580, Note_on_c, 9, 46, 0
11, 149580, Note_on_c, 9, 35, 0
11, 149580, Note_on_c, 9, 36, 127
11, 149640, Note_on_c, 9, 36, 0
11, 149640, Note_on_c, 9, 35, 127
11, 149640, Note_on_c, 9, 38, 117
11, 149700, Note_on_c, 9, 38, 0
11, 149700, Note_on_c, 9, 35, 0
11, 149700, Note_on_c, 9, 36, 127
11, 149700, Note_on_c, 9, 38, 117
11, 149760, Note_on_c, 9, 38, 0
11, 149760, Note_on_c, 9, 36, 0
11, 149760, Note_on_c, 9, 35, 127
11, 149760, Note_on_c, 9, 46, 107
11, 149820, Note_on_c, 9, 46, 0
11, 149820, Note_on_c, 9, 35, 0
11, 149820, Note_on_c, 9, 36, 127
11, 149880, Note_on_c, 9, 36, 0
11, 149880, Note_on_c, 9, 35, 127
11, 149880, Note_on_c, 9, 38, 117
11, 149940, Note_on_c, 9, 38, 0
11, 149940, Note_on_c, 9, 35, 0
11, 149940, Note_on_c, 9, 36, 127
11, 150000, Note_on_c, 9, 36, 0
11, 150000, Note_on_c, 9, 35, 127
11, 150000, Note_on_c, 9, 46, 107
11, 150060, Note_on_c, 9, 46, 0
11, 150060, Note_on_c, 9, 35, 0
11, 150060, Note_on_c, 9, 36, 127
11, 150120, Note_on_c, 9, 36, 0
11, 150120, Note_on_c, 9, 35, 127
11, 150120, Note_on_c, 9, 38, 117
11, 150180, Note_on_c, 9, 38, 0
11, 150180, Note_on_c, 9, 35, 0
11, 150180, Note_on_c, 9, 36, 127
11, 150240, Note_on_c, 9, 36, 0
11, 150240, Note_on_c, 9, 35, 127
11, 150240, Note_on_c, 9, 46, 107
11, 150300, Note_on_c, 9, 46, 0
11, 150300, Note_on_c, 9, 35, 0
11, 150300, Note_on_c, 9, 36, 127
11, 150300, Note_on_c, 9, 38, 117
11, 150360, Note_on_c, 9, 38, 0
11, 150360, Note_on_c, 9, 36, 0
11, 150360, Note_on_c, 9, 35, 127
11, 150360, Note_on_c, 9, 38, 117
11, 150420, Note_on_c, 9, 38, 0
11, 150420, Note_on_c, 9, 35, 0
11, 150420, Note_on_c, 9, 36, 127
11, 150480, Note_on_c, 9, 36, 0
11, 150480, Note_on_c, 9, 35, 127
11, 150480, Note_on_c, 9, 46, 107
11, 150540, Note_on_c, 9, 46, 0
11, 150540, Note_on_c, 9, 35, 0
11, 150540, Note_on_c, 9, 36, 127
11, 150600, Note_on_c, 9, 36, 0
11, 150600, Note_on_c, 9, 35, 127
11, 150600, Note_on_c, 9, 38, 117
11, 150660, Note_on_c, 9, 38, 0
11, 150660, Note_on_c, 9, 35, 0
11, 150660, Note_on_c, 9, 36, 127
11, 150660, Note_on_c, 9, 38, 117
11, 150720, Note_on_c, 9, 38, 0
11, 150720, Note_on_c, 9, 36, 0
11, 150720, Note_on_c, 9, 35, 127
11, 150720, Note_on_c, 9, 46, 107
11, 150780, Note_on_c, 9, 46, 0
11, 150780, Note_on_c, 9, 35, 0
11, 150780, Note_on_c, 9, 36, 127
11, 150780, Note_on_c, 9, 38, 117
11, 150840, Note_on_c, 9, 38, 0
11, 150840, Note_on_c, 9, 36, 0
11, 150840, Note_on_c, 9, 35, 127
11, 150840, Note_on_c, 9, 38, 117
11, 150900, Note_on_c, 9, 38, 0
11, 150900, Note_on_c, 9, 35, 0
11, 150900, Note_on_c, 9, 36, 127
11, 150900, Note_on_c, 9, 38, 117
11, 150960, Note_on_c, 9, 38, 0
11, 150960, Note_on_c, 9, 36, 0
11, 150960, Note_on_c, 9, 35, 127
11, 150960, Note_on_c, 9, 46, 107
11, 151020, Note_on_c, 9, 46, 0
11, 151020, Note_on_c, 9, 35, 0
11, 151020, Note_on_c, 9, 36, 127
11, 151020, Note_on_c, 9, 38, 117
11, 151080, Note_on_c, 9, 38, 0
11, 151080, Note_on_c, 9, 36, 0
11, 151080, Note_on_c, 9, 35, 127
11, 151080, Note_on_c, 9, 38, 117
11, 151140, Note_on_c, 9, 38, 0
11, 151140, Note_on_c, 9, 35, 0
11, 151140, Note_on_c, 9, 36, 127
11, 151200, Note_on_c, 9, 36, 0
11, 151200, Note_on_c, 9, 35, 127
11, 151200, Note_on_c, 9, 38, 117
11, 151200, Note_on_c, 9, 49, 127
11, 151260, Note_on_c, 9, 49, 0
11, 151260, Note_on_c, 9, 38, 0
11, 151260, Note_on_c, 9, 35, 0
11, 151260, Note_on_c, 9, 36, 127
11, 151320, Note_on_c, 9, 36, 0
11, 151320, Note_on_c, 9, 35, 127
11, 151380, Note_on_c, 9, 35, 0
11, 151380, Note_on_c, 9, 36, 127
11, 151440, Note_on_c, 9, 36, 0
11, 151440, Note_on_c, 9, 35, 127
11, 151440, Note_on_c, 9, 46, 107
11, 151500, Note_on_c, 9, 46, 0
11, 151500, Note_on_c, 9, 35, 0
11, 151620, Note_on_c, 9, 35, 127
11, 151680, Note_on_c, 9, 35, 0
11, 151680, Note_on_c, 9, 38, 117
11, 151680, Note_on_c, 9, 46, 107
11, 151740, Note_on_c, 9, 46, 0
11, 151740, Note_on_c, 9, 38, 0
11, 151800, Note_on_c, 9, 35, 127
11, 151860, Note_on_c, 9, 35, 0
11, 151920, Note_on_c, 9, 35, 127
11, 151920, Note_on_c, 9, 46, 107
11, 151980, Note_on_c, 9, 46, 0
11, 151980, Note_on_c, 9, 35, 0
11, 152100, Note_on_c, 9, 35, 127
11, 152160, Note_on_c, 9, 35, 0
11, 152160, Note_on_c, 9, 38, 117
11, 152160, Note_on_c, 9, 46, 107
11, 152220, Note_on_c, 9, 46, 0
11, 152220, Note_on_c, 9, 38, 0
11, 152280, Note_on_c, 9, 35, 127
11, 152340, Note_on_c, 9, 35, 0
11, 152400, Note_on_c, 9, 35, 127
11, 152400, Note_on_c, 9, 46, 107
11, 152460, Note_on_c, 9, 46, 0
11, 152460, Note_on_c, 9, 35, 0
11, 152580, Note_on_c, 9, 35, 127
11, 152640, Note_on_c, 9, 35, 0
11, 152640, Note_on_c, 9, 38, 117
11, 152640, Note_on_c, 9, 46, 107
11, 152700, Note_on_c, 9, 46, 0
11, 152700, Note_on_c, 9, 38, 0
11, 152760, Note_on_c, 9, 35, 127
11, 152820, Note_on_c, 9, 35, 0
11, 152880, Note_on_c, 9, 35, 127
11, 152880, Note_on_c, 9, 46, 107
11, 152940, Note_on_c, 9, 46, 0
11, 152940, Note_on_c, 9, 35, 0
11, 153060, Note_on_c, 9, 35, 127
11, 153120, Note_on_c, 9, 35, 0
11, 153120, Note_on_c, 9, 38, 117
11, 153120, Note_on_c, 9, 46, 107
11, 153180, Note_on_c, 9, 46, 0
11, 153180, Note_on_c, 9, 38, 0
11, 153240, Note_on_c, 9, 35, 127
11, 153300, Note_on_c, 9, 35, 0
11, 153360, Note_on_c, 9, 35, 127
11, 153360, Note_on_c, 9, 46, 107
11, 153420, Note_on_c, 9, 46, 0
11, 153420, Note_on_c, 9, 35, 0
11, 153540, Note_on_c, 9, 35, 127
11, 153600, Note_on_c, 9, 35, 0
11, 153600, Note_on_c, 9, 38, 117
11, 153600, Note_on_c, 9, 46, 107
11, 153660, Note_on_c, 9, 46, 0
11, 153660, Note_on_c, 9, 38, 0
11, 153720, Note_on_c, 9, 35, 127
11, 153780, Note_on_c, 9, 35, 0
11, 153840, Note_on_c, 9, 35, 127
11, 153840, Note_on_c, 9, 46, 107
11, 153900, Note_on_c, 9, 46, 0
11, 153900, Note_on_c, 9, 35, 0
11, 154020, Note_on_c, 9, 35, 127
11, 154080, Note_on_c, 9, 35, 0
11, 154080, Note_on_c, 9, 38, 117
11, 154080, Note_on_c, 9, 46, 107
11, 154140, Note_on_c, 9, 46, 0
11, 154140, Note_on_c, 9, 38, 0
11, 154200, Note_on_c, 9, 35, 127
11, 154260, Note_on_c, 9, 35, 0
11, 154320, Note_on_c, 9, 35, 127
11, 154320, Note_on_c, 9, 46, 107
11, 154380, Note_on_c, 9, 46, 0
11, 154380, Note_on_c, 9, 35, 0
11, 154500, Note_on_c, 9, 35, 127
11, 154560, Note_on_c, 9, 35, 0
11, 154560, Note_on_c, 9, 38, 117
11, 154560, Note_on_c, 9, 46, 107
11, 154620, Note_on_c, 9, 46, 0
11, 154620, Note_on_c, 9, 38, 0
11, 154680, Note_on_c, 9, 35, 127
11, 154740, Note_on_c, 9, 35, 0
11, 154800, Note_on_c, 9, 35, 127
11, 154800, Note_on_c, 9, 49, 127
11, 154860, Note_on_c, 9, 49, 0
11, 154860, Note_on_c, 9, 35, 0
11, 155040, Note_on_c, 9, 57, 127
11, 155040, Note_on_c, 9, 38, 117
11, 155100, Note_on_c, 9, 38, 0
11, 155100, Note_on_c, 9, 57, 0
11, 155280, Note_on_c, 9, 35, 127
11, 155280, Note_on_c, 9, 49, 127
11, 155340, Note_on_c, 9, 49, 0
11, 155340, Note_on_c, 9, 35, 0
11, 155460, Note_on_c, 9, 35, 127
11, 155520, Note_on_c, 9, 35, 0
11, 155520, Note_on_c, 9, 38, 117
11, 155520, Note_on_c, 9, 46, 107
11, 155580, Note_on_c, 9, 46, 0
11, 155580, Note_on_c, 9, 38, 0
11, 155640, Note_on_c, 9, 35, 127
11, 155700, Note_on_c, 9, 35, 0
11, 155760, Note_on_c, 9, 35, 127
11, 155760, Note_on_c, 9, 46, 107
11, 155820, Note_on_c, 9, 46, 0
11, 155820, Note_on_c, 9, 35, 0
11, 156000, Note_on_c, 9, 38, 117
11, 156000, Note_on_c, 9, 46, 107
11, 156060, Note_on_c, 9, 46, 0
11, 156060, Note_on_c, 9, 38, 0
11, 156120, Note_on_c, 9, 35, 127
11, 156180, Note_on_c, 9, 35, 0
11, 156240, Note_on_c, 9, 35, 127
11, 156240, Note_on_c, 9, 46, 107
11, 156300, Note_on_c, 9, 46, 0
11, 156300, Note_on_c, 9, 35, 0
11, 156420, Note_on_c, 9, 35, 127
11, 156480, Note_on_c, 9, 35, 0
11, 156480, Note_on_c, 9, 38, 117
11, 156480, Note_on_c, 9, 46, 107
11, 156540, Note_on_c, 9, 46, 0
11, 156540, Note_on_c, 9, 38, 0
11, 156600, Note_on_c, 9, 35, 127
11, 156660, Note_on_c, 9, 35, 0
11, 156720, Note_on_c, 9, 35, 127
11, 156720, Note_on_c, 9, 46, 107
11, 156780, Note_on_c, 9, 46, 0
11, 156780, Note_on_c, 9, 35, 0
11, 156900, Note_on_c, 9, 35, 127
11, 156960, Note_on_c, 9, 35, 0
11, 156960, Note_on_c, 9, 38, 117
11, 156960, Note_on_c, 9, 46, 107
11, 157020, Note_on_c, 9, 46, 0
11, 157020, Note_on_c, 9, 38, 0
11, 157080, Note_on_c, 9, 35, 127
11, 157140, Note_on_c, 9, 35, 0
11, 157200, Note_on_c, 9, 35, 127
11, 157200, Note_on_c, 9, 46, 107
11, 157260, Note_on_c, 9, 46, 0
11, 157260, Note_on_c, 9, 35, 0
11, 157380, Note_on_c, 9, 35, 127
11, 157440, Note_on_c, 9, 35, 0
11, 157440, Note_on_c, 9, 46, 107
11, 157500, Note_on_c, 9, 46, 0
11, 157560, Note_on_c, 9, 35, 127
11, 157620, Note_on_c, 9, 35, 0
11, 157680, Note_on_c, 9, 35, 127
11, 157680, Note_on_c, 9, 49, 127
11, 157740, Note_on_c, 9, 49, 0
11, 157740, Note_on_c, 9, 35, 0
11, 157920, Note_on_c, 9, 57, 127
11, 157920, Note_on_c, 9, 38, 117
11, 157980, Note_on_c, 9, 38, 0
11, 157980, Note_on_c, 9, 57, 0
11, 158160, Note_on_c, 9, 57, 117
11, 158160, Note_on_c, 9, 35, 127
11, 158160, Note_on_c, 9, 49, 127
11, 158220, Note_on_c, 9, 49, 0
11, 158220, Note_on_c, 9, 35, 0
11, 158220, Note_on_c, 9, 57, 0
11, 158220, End_track
12, 0, Start_track
12, 0, MIDI_port, 0
12, 0, Title_t, "Third Guitar"
12, 0, Program_c, 6, 30
12, 0, Control_c, 6, 7, 80
12, 0, Control_c, 6, 10, 54
12, 19440, Note_on_c, 6, 69, 110
12, 19450, Note_on_c, 6, 71, 110
12, 19460, Note_on_c, 6, 76, 110
12, 19470, Note_on_c, 6, 81, 110
12, 19560, Note_on_c, 6, 81, 0
12, 19560, Note_on_c, 6, 69, 0
12, 19560, Note_on_c, 6, 71, 0
12, 19560, Note_on_c, 6, 76, 0
12, 19560, Note_on_c, 6, 69, 110
12, 19570, Note_on_c, 6, 71, 110
12, 19580, Note_on_c, 6, 76, 110
12, 19590, Note_on_c, 6, 81, 110
12, 19620, Note_on_c, 6, 81, 0
12, 19620, Note_on_c, 6, 69, 0
12, 19620, Note_on_c, 6, 71, 0
12, 19620, Note_on_c, 6, 76, 0
12, 19620, Note_on_c, 6, 69, 110
12, 19630, Note_on_c, 6, 71, 110
12, 19640, Note_on_c, 6, 76, 110
12, 19650, Note_on_c, 6, 81, 110
12, 19740, Note_on_c, 6, 81, 0
12, 19740, Note_on_c, 6, 69, 0
12, 19740, Note_on_c, 6, 71, 0
12, 19740, Note_on_c, 6, 76, 0
12, 19740, Note_on_c, 6, 69, 110
12, 19750, Note_on_c, 6, 71, 110
12, 19760, Note_on_c, 6, 76, 110
12, 19770, Note_on_c, 6, 81, 110
12, 19800, Note_on_c, 6, 81, 0
12, 19800, Note_on_c, 6, 69, 0
12, 19800, Note_on_c, 6, 71, 0
12, 19800, Note_on_c, 6, 76, 0
12, 19800, Note_on_c, 6, 70, 110
12, 19810, Note_on_c, 6, 82, 110
12, 19860, Note_on_c, 6, 82, 0
12, 19860, Note_on_c, 6, 70, 0
12, 19860, Note_on_c, 6, 70, 110
12, 19870, Note_on_c, 6, 82, 110
12, 19920, Note_on_c, 6, 82, 0
12, 19920, Note_on_c, 6, 70, 0
12, 19920, Note_on_c, 6, 69, 110
12, 19930, Note_on_c, 6, 81, 110
12, 20040, Note_on_c, 6, 81, 0
12, 20040, Note_on_c, 6, 69, 0
12, 20040, Note_on_c, 6, 67, 110
12, 20050, Note_on_c, 6, 79, 110
12, 20100, Note_on_c, 6, 79, 0
12, 20100, Note_on_c, 6, 67, 0
12, 20100, Note_on_c, 6, 67, 110
12, 20110, Note_on_c, 6, 79, 110
12, 20160, Note_on_c, 6, 79, 0
12, 20160, Note_on_c, 6, 67, 0
12, 20160, Note_on_c, 6, 67, 110
12, 20170, Note_on_c, 6, 79, 110
12, 20280, Note_on_c, 6, 79, 0
12, 20280, Note_on_c, 6, 67, 0
12, 20280, Note_on_c, 6, 64, 110
12, 20290, Note_on_c, 6, 76, 110
12, 20340, Note_on_c, 6, 76, 0
12, 20340, Note_on_c, 6, 64, 0
12, 20340, Note_on_c, 6, 64, 110
12, 20350, Note_on_c, 6, 76, 110
12, 20400, Note_on_c, 6, 76, 0
12, 20400, Note_on_c, 6, 64, 0
12, 20400, Note_on_c, 6, 64, 110
12, 20410, Note_on_c, 6, 76, 110
12, 20520, Note_on_c, 6, 76, 0
12, 20520, Note_on_c, 6, 64, 0
12, 20520, Note_on_c, 6, 64, 110
12, 20530, Note_on_c, 6, 76, 110
12, 20580, Note_on_c, 6, 76, 0
12, 20580, Note_on_c, 6, 64, 0
12, 20580, Note_on_c, 6, 64, 110
12, 20590, Note_on_c, 6, 76, 110
12, 20700, Note_on_c, 6, 76, 0
12, 20700, Note_on_c, 6, 64, 0
12, 20700, Note_on_c, 6, 64, 110
12, 20710, Note_on_c, 6, 76, 110
12, 20820, Note_on_c, 6, 76, 0
12, 20820, Note_on_c, 6, 64, 0
12, 20820, Note_on_c, 6, 64, 110
12, 20830, Note_on_c, 6, 76, 110
12, 20880, Note_on_c, 6, 76, 0
12, 20880, Note_on_c, 6, 64, 0
12, 20880, Note_on_c, 6, 64, 110
12, 20890, Note_on_c, 6, 76, 110
12, 21000, Note_on_c, 6, 76, 0
12, 21000, Note_on_c, 6, 64, 0
12, 21000, Note_on_c, 6, 64, 110
12, 21010, Note_on_c, 6, 76, 110
12, 21060, Note_on_c, 6, 76, 0
12, 21060, Note_on_c, 6, 64, 0
12, 21060, Note_on_c, 6, 64, 110
12, 21070, Note_on_c, 6, 76, 110
12, 21120, Note_on_c, 6, 76, 0
12, 21120, Note_on_c, 6, 64, 0
12, 21120, Note_on_c, 6, 64, 110
12, 21130, Note_on_c, 6, 76, 110
12, 21180, Note_on_c, 6, 76, 0
12, 21180, Note_on_c, 6, 64, 0
12, 21180, Note_on_c, 6, 64, 110
12, 21190, Note_on_c, 6, 76, 110
12, 21240, Note_on_c, 6, 76, 0
12, 21240, Note_on_c, 6, 64, 0
12, 21240, Note_on_c, 6, 64, 110
12, 21250, Note_on_c, 6, 76, 110
12, 21300, Note_on_c, 6, 76, 0
12, 21300, Note_on_c, 6, 64, 0
12, 21300, Note_on_c, 6, 64, 110
12, 21310, Note_on_c, 6, 76, 110
12, 21360, Note_on_c, 6, 76, 0
12, 21360, Note_on_c, 6, 64, 0
12, 21360, Note_on_c, 6, 69, 110
12, 21370, Note_on_c, 6, 71, 110
12, 21380, Note_on_c, 6, 76, 110
12, 21390, Note_on_c, 6, 81, 110
12, 21480, Note_on_c, 6, 81, 0
12, 21480, Note_on_c, 6, 69, 0
12, 21480, Note_on_c, 6, 71, 0
12, 21480, Note_on_c, 6, 76, 0
12, 21480, Note_on_c, 6, 69, 110
12, 21490, Note_on_c, 6, 71, 110
12, 21500, Note_on_c, 6, 76, 110
12, 21510, Note_on_c, 6, 81, 110
12, 21540, Note_on_c, 6, 81, 0
12, 21540, Note_on_c, 6, 69, 0
12, 21540, Note_on_c, 6, 71, 0
12, 21540, Note_on_c, 6, 76, 0
12, 21540, Note_on_c, 6, 69, 110
12, 21550, Note_on_c, 6, 71, 110
12, 21560, Note_on_c, 6, 76, 110
12, 21570, Note_on_c, 6, 81, 110
12, 21660, Note_on_c, 6, 81, 0
12, 21660, Note_on_c, 6, 69, 0
12, 21660, Note_on_c, 6, 71, 0
12, 21660, Note_on_c, 6, 76, 0
12, 21660, Note_on_c, 6, 69, 110
12, 21670, Note_on_c, 6, 71, 110
12, 21680, Note_on_c, 6, 76, 110
12, 21690, Note_on_c, 6, 81, 110
12, 21720, Note_on_c, 6, 81, 0
12, 21720, Note_on_c, 6, 69, 0
12, 21720, Note_on_c, 6, 71, 0
12, 21720, Note_on_c, 6, 76, 0
12, 21720, Note_on_c, 6, 70, 110
12, 21730, Note_on_c, 6, 82, 110
12, 21780, Note_on_c, 6, 82, 0
12, 21780, Note_on_c, 6, 70, 0
12, 21780, Note_on_c, 6, 70, 110
12, 21790, Note_on_c, 6, 82, 110
12, 21840, Note_on_c, 6, 82, 0
12, 21840, Note_on_c, 6, 70, 0
12, 21840, Note_on_c, 6, 69, 110
12, 21850, Note_on_c, 6, 81, 110
12, 21960, Note_on_c, 6, 81, 0
12, 21960, Note_on_c, 6, 69, 0
12, 21960, Note_on_c, 6, 67, 110
12, 21970, Note_on_c, 6, 79, 110
12, 22020, Note_on_c, 6, 79, 0
12, 22020, Note_on_c, 6, 67, 0
12, 22020, Note_on_c, 6, 67, 110
12, 22030, Note_on_c, 6, 79, 110
12, 22080, Note_on_c, 6, 79, 0
12, 22080, Note_on_c, 6, 67, 0
12, 22080, Note_on_c, 6, 67, 110
12, 22090, Note_on_c, 6, 79, 110
12, 22200, Note_on_c, 6, 79, 0
12, 22200, Note_on_c, 6, 67, 0
12, 22200, Note_on_c, 6, 64, 110
12, 22210, Note_on_c, 6, 76, 110
12, 22260, Note_on_c, 6, 76, 0
12, 22260, Note_on_c, 6, 64, 0
12, 22260, Note_on_c, 6, 64, 110
12, 22270, Note_on_c, 6, 76, 110
12, 22320, Note_on_c, 6, 76, 0
12, 22320, Note_on_c, 6, 64, 0
12, 22320, Note_on_c, 6, 64, 110
12, 22330, Note_on_c, 6, 76, 110
12, 22440, Note_on_c, 6, 76, 0
12, 22440, Note_on_c, 6, 64, 0
12, 22440, Note_on_c, 6, 64, 110
12, 22450, Note_on_c, 6, 76, 110
12, 22500, Note_on_c, 6, 76, 0
12, 22500, Note_on_c, 6, 64, 0
12, 22500, Note_on_c, 6, 64, 110
12, 22510, Note_on_c, 6, 76, 110
12, 22620, Note_on_c, 6, 76, 0
12, 22620, Note_on_c, 6, 64, 0
12, 22620, Note_on_c, 6, 64, 110
12, 22630, Note_on_c, 6, 76, 110
12, 22740, Note_on_c, 6, 76, 0
12, 22740, Note_on_c, 6, 64, 0
12, 22740, Note_on_c, 6, 64, 110
12, 22750, Note_on_c, 6, 76, 110
12, 22800, Note_on_c, 6, 76, 0
12, 22800, Note_on_c, 6, 64, 0
12, 22800, Note_on_c, 6, 62, 110
12, 22810, Note_on_c, 6, 74, 110
12, 22860, Note_on_c, 6, 74, 0
12, 22860, Note_on_c, 6, 62, 0
12, 22860, Note_on_c, 6, 64, 110
12, 22870, Note_on_c, 6, 76, 110
12, 22920, Note_on_c, 6, 76, 0
12, 22920, Note_on_c, 6, 64, 0
12, 22920, Note_on_c, 6, 64, 110
12, 22930, Note_on_c, 6, 76, 110
12, 22980, Note_on_c, 6, 76, 0
12, 22980, Note_on_c, 6, 64, 0
12, 22980, Note_on_c, 6, 64, 110
12, 22990, Note_on_c, 6, 76, 110
12, 23040, Note_on_c, 6, 76, 0
12, 23040, Note_on_c, 6, 64, 0
12, 23040, Note_on_c, 6, 64, 110
12, 23050, Note_on_c, 6, 76, 110
12, 23100, Note_on_c, 6, 76, 0
12, 23100, Note_on_c, 6, 64, 0
12, 23100, Note_on_c, 6, 64, 110
12, 23110, Note_on_c, 6, 76, 110
12, 23160, Note_on_c, 6, 76, 0
12, 23160, Note_on_c, 6, 64, 0
12, 23160, Note_on_c, 6, 64, 110
12, 23170, Note_on_c, 6, 76, 110
12, 23220, Note_on_c, 6, 76, 0
12, 23220, Note_on_c, 6, 64, 0
12, 23220, Note_on_c, 6, 64, 110
12, 23230, Note_on_c, 6, 76, 110
12, 23280, Note_on_c, 6, 76, 0
12, 23280, Note_on_c, 6, 64, 0
12, 23280, Note_on_c, 6, 69, 110
12, 23290, Note_on_c, 6, 71, 110
12, 23300, Note_on_c, 6, 76, 110
12, 23310, Note_on_c, 6, 81, 110
12, 23400, Note_on_c, 6, 81, 0
12, 23400, Note_on_c, 6, 69, 0
12, 23400, Note_on_c, 6, 71, 0
12, 23400, Note_on_c, 6, 76, 0
12, 23400, Note_on_c, 6, 69, 110
12, 23410, Note_on_c, 6, 71, 110
12, 23420, Note_on_c, 6, 76, 110
12, 23430, Note_on_c, 6, 81, 110
12, 23460, Note_on_c, 6, 81, 0
12, 23460, Note_on_c, 6, 69, 0
12, 23460, Note_on_c, 6, 71, 0
12, 23460, Note_on_c, 6, 76, 0
12, 23460, Note_on_c, 6, 69, 110
12, 23470, Note_on_c, 6, 71, 110
12, 23480, Note_on_c, 6, 76, 110
12, 23490, Note_on_c, 6, 81, 110
12, 23580, Note_on_c, 6, 81, 0
12, 23580, Note_on_c, 6, 69, 0
12, 23580, Note_on_c, 6, 71, 0
12, 23580, Note_on_c, 6, 76, 0
12, 23580, Note_on_c, 6, 69, 110
12, 23590, Note_on_c, 6, 71, 110
12, 23600, Note_on_c, 6, 76, 110
12, 23610, Note_on_c, 6, 81, 110
12, 23640, Note_on_c, 6, 81, 0
12, 23640, Note_on_c, 6, 69, 0
12, 23640, Note_on_c, 6, 71, 0
12, 23640, Note_on_c, 6, 76, 0
12, 23640, Note_on_c, 6, 70, 110
12, 23650, Note_on_c, 6, 82, 110
12, 23700, Note_on_c, 6, 82, 0
12, 23700, Note_on_c, 6, 70, 0
12, 23700, Note_on_c, 6, 70, 110
12, 23710, Note_on_c, 6, 82, 110
12, 23760, Note_on_c, 6, 82, 0
12, 23760, Note_on_c, 6, 70, 0
12, 23760, Note_on_c, 6, 69, 110
12, 23770, Note_on_c, 6, 81, 110
12, 23880, Note_on_c, 6, 81, 0
12, 23880, Note_on_c, 6, 69, 0
12, 23880, Note_on_c, 6, 67, 110
12, 23890, Note_on_c, 6, 79, 110
12, 23940, Note_on_c, 6, 79, 0
12, 23940, Note_on_c, 6, 67, 0
12, 23940, Note_on_c, 6, 67, 110
12, 23950, Note_on_c, 6, 79, 110
12, 24000, Note_on_c, 6, 79, 0
12, 24000, Note_on_c, 6, 67, 0
12, 24000, Note_on_c, 6, 67, 110
12, 24010, Note_on_c, 6, 79, 110
12, 24120, Note_on_c, 6, 79, 0
12, 24120, Note_on_c, 6, 67, 0
12, 24120, Note_on_c, 6, 64, 110
12, 24130, Note_on_c, 6, 76, 110
12, 24180, Note_on_c, 6, 76, 0
12, 24180, Note_on_c, 6, 64, 0
12, 24180, Note_on_c, 6, 64, 110
12, 24190, Note_on_c, 6, 76, 110
12, 24240, Note_on_c, 6, 76, 0
12, 24240, Note_on_c, 6, 64, 0
12, 24240, Note_on_c, 6, 64, 110
12, 24250, Note_on_c, 6, 76, 110
12, 24360, Note_on_c, 6, 76, 0
12, 24360, Note_on_c, 6, 64, 0
12, 24360, Note_on_c, 6, 64, 110
12, 24370, Note_on_c, 6, 76, 110
12, 24420, Note_on_c, 6, 76, 0
12, 24420, Note_on_c, 6, 64, 0
12, 24420, Note_on_c, 6, 64, 110
12, 24430, Note_on_c, 6, 76, 110
12, 24540, Note_on_c, 6, 76, 0
12, 24540, Note_on_c, 6, 64, 0
12, 24540, Note_on_c, 6, 64, 110
12, 24550, Note_on_c, 6, 76, 110
12, 24660, Note_on_c, 6, 76, 0
12, 24660, Note_on_c, 6, 64, 0
12, 24660, Note_on_c, 6, 64, 110
12, 24670, Note_on_c, 6, 76, 110
12, 24720, Note_on_c, 6, 76, 0
12, 24720, Note_on_c, 6, 64, 0
12, 24720, Note_on_c, 6, 62, 110
12, 24730, Note_on_c, 6, 74, 110
12, 24780, Note_on_c, 6, 74, 0
12, 24780, Note_on_c, 6, 62, 0
12, 24780, Note_on_c, 6, 64, 110
12, 24790, Note_on_c, 6, 76, 110
12, 24840, Note_on_c, 6, 76, 0
12, 24840, Note_on_c, 6, 64, 0
12, 24840, Note_on_c, 6, 64, 110
12, 24850, Note_on_c, 6, 76, 110
12, 24900, Note_on_c, 6, 76, 0
12, 24900, Note_on_c, 6, 64, 0
12, 24900, Note_on_c, 6, 64, 110
12, 24910, Note_on_c, 6, 76, 110
12, 24960, Note_on_c, 6, 76, 0
12, 24960, Note_on_c, 6, 64, 0
12, 24960, Note_on_c, 6, 64, 110
12, 24970, Note_on_c, 6, 76, 110
12, 25020, Note_on_c, 6, 76, 0
12, 25020, Note_on_c, 6, 64, 0
12, 25020, Note_on_c, 6, 64, 110
12, 25030, Note_on_c, 6, 76, 110
12, 25080, Note_on_c, 6, 76, 0
12, 25080, Note_on_c, 6, 64, 0
12, 25080, Note_on_c, 6, 64, 110
12, 25090, Note_on_c, 6, 76, 110
12, 25140, Note_on_c, 6, 76, 0
12, 25140, Note_on_c, 6, 64, 0
12, 25140, Note_on_c, 6, 64, 110
12, 25150, Note_on_c, 6, 76, 110
12, 25200, Note_on_c, 6, 76, 0
12, 25200, Note_on_c, 6, 64, 0
12, 25200, Note_on_c, 6, 69, 110
12, 25210, Note_on_c, 6, 71, 110
12, 25220, Note_on_c, 6, 76, 110
12, 25230, Note_on_c, 6, 81, 110
12, 25320, Note_on_c, 6, 81, 0
12, 25320, Note_on_c, 6, 69, 0
12, 25320, Note_on_c, 6, 71, 0
12, 25320, Note_on_c, 6, 76, 0
12, 25320, Note_on_c, 6, 69, 110
12, 25330, Note_on_c, 6, 71, 110
12, 25340, Note_on_c, 6, 76, 110
12, 25350, Note_on_c, 6, 81, 110
12, 25380, Note_on_c, 6, 81, 0
12, 25380, Note_on_c, 6, 69, 0
12, 25380, Note_on_c, 6, 71, 0
12, 25380, Note_on_c, 6, 76, 0
12, 25380, Note_on_c, 6, 69, 110
12, 25390, Note_on_c, 6, 71, 110
12, 25400, Note_on_c, 6, 76, 110
12, 25410, Note_on_c, 6, 81, 110
12, 25500, Note_on_c, 6, 81, 0
12, 25500, Note_on_c, 6, 69, 0
12, 25500, Note_on_c, 6, 71, 0
12, 25500, Note_on_c, 6, 76, 0
12, 25500, Note_on_c, 6, 69, 110
12, 25510, Note_on_c, 6, 71, 110
12, 25520, Note_on_c, 6, 76, 110
12, 25530, Note_on_c, 6, 81, 110
12, 25560, Note_on_c, 6, 81, 0
12, 25560, Note_on_c, 6, 69, 0
12, 25560, Note_on_c, 6, 71, 0
12, 25560, Note_on_c, 6, 76, 0
12, 25560, Note_on_c, 6, 70, 110
12, 25570, Note_on_c, 6, 82, 110
12, 25620, Note_on_c, 6, 82, 0
12, 25620, Note_on_c, 6, 70, 0
12, 25620, Note_on_c, 6, 70, 110
12, 25630, Note_on_c, 6, 82, 110
12, 25680, Note_on_c, 6, 82, 0
12, 25680, Note_on_c, 6, 70, 0
12, 25680, Note_on_c, 6, 69, 110
12, 25690, Note_on_c, 6, 81, 110
12, 25800, Note_on_c, 6, 81, 0
12, 25800, Note_on_c, 6, 69, 0
12, 25800, Note_on_c, 6, 67, 110
12, 25810, Note_on_c, 6, 79, 110
12, 25860, Note_on_c, 6, 79, 0
12, 25860, Note_on_c, 6, 67, 0
12, 25860, Note_on_c, 6, 67, 110
12, 25870, Note_on_c, 6, 79, 110
12, 25920, Note_on_c, 6, 79, 0
12, 25920, Note_on_c, 6, 67, 0
12, 25920, Note_on_c, 6, 67, 110
12, 25930, Note_on_c, 6, 79, 110
12, 26040, Note_on_c, 6, 79, 0
12, 26040, Note_on_c, 6, 67, 0
12, 26040, Note_on_c, 6, 64, 110
12, 26050, Note_on_c, 6, 76, 110
12, 26100, Note_on_c, 6, 76, 0
12, 26100, Note_on_c, 6, 64, 0
12, 26100, Note_on_c, 6, 64, 110
12, 26110, Note_on_c, 6, 76, 110
12, 26160, Note_on_c, 6, 76, 0
12, 26160, Note_on_c, 6, 64, 0
12, 26160, Note_on_c, 6, 64, 110
12, 26170, Note_on_c, 6, 76, 110
12, 26280, Note_on_c, 6, 76, 0
12, 26280, Note_on_c, 6, 64, 0
12, 26280, Note_on_c, 6, 64, 110
12, 26290, Note_on_c, 6, 76, 110
12, 26340, Note_on_c, 6, 76, 0
12, 26340, Note_on_c, 6, 64, 0
12, 26340, Note_on_c, 6, 64, 110
12, 26350, Note_on_c, 6, 76, 110
12, 26460, Note_on_c, 6, 76, 0
12, 26460, Note_on_c, 6, 64, 0
12, 26460, Note_on_c, 6, 64, 110
12, 26470, Note_on_c, 6, 76, 110
12, 26580, Note_on_c, 6, 76, 0
12, 26580, Note_on_c, 6, 64, 0
12, 26580, Note_on_c, 6, 64, 110
12, 26590, Note_on_c, 6, 76, 110
12, 26640, Note_on_c, 6, 76, 0
12, 26640, Note_on_c, 6, 64, 0
12, 26640, Note_on_c, 6, 62, 110
12, 26650, Note_on_c, 6, 74, 110
12, 26700, Note_on_c, 6, 74, 0
12, 26700, Note_on_c, 6, 62, 0
12, 26700, Note_on_c, 6, 64, 110
12, 26710, Note_on_c, 6, 76, 110
12, 26760, Note_on_c, 6, 76, 0
12, 26760, Note_on_c, 6, 64, 0
12, 26760, Note_on_c, 6, 64, 110
12, 26770, Note_on_c, 6, 76, 110
12, 26820, Note_on_c, 6, 76, 0
12, 26820, Note_on_c, 6, 64, 0
12, 26820, Note_on_c, 6, 64, 110
12, 26830, Note_on_c, 6, 76, 110
12, 26880, Note_on_c, 6, 76, 0
12, 26880, Note_on_c, 6, 64, 0
12, 26880, Note_on_c, 6, 64, 110
12, 26890, Note_on_c, 6, 76, 110
12, 26940, Note_on_c, 6, 76, 0
12, 26940, Note_on_c, 6, 64, 0
12, 26940, Note_on_c, 6, 64, 110
12, 26950, Note_on_c, 6, 76, 110
12, 27000, Note_on_c, 6, 76, 0
12, 27000, Note_on_c, 6, 64, 0
12, 27000, Note_on_c, 6, 64, 110
12, 27010, Note_on_c, 6, 76, 110
12, 27060, Note_on_c, 6, 76, 0
12, 27060, Note_on_c, 6, 64, 0
12, 27060, Note_on_c, 6, 64, 110
12, 27070, Note_on_c, 6, 76, 110
12, 27120, Note_on_c, 6, 76, 0
12, 27120, Note_on_c, 6, 64, 0
12, 27120, Note_on_c, 6, 69, 110
12, 27130, Note_on_c, 6, 71, 110
12, 27140, Note_on_c, 6, 76, 110
12, 27150, Note_on_c, 6, 81, 110
12, 27240, Note_on_c, 6, 81, 0
12, 27240, Note_on_c, 6, 69, 0
12, 27240, Note_on_c, 6, 71, 0
12, 27240, Note_on_c, 6, 76, 0
12, 27240, Note_on_c, 6, 69, 110
12, 27250, Note_on_c, 6, 71, 110
12, 27260, Note_on_c, 6, 76, 110
12, 27270, Note_on_c, 6, 81, 110
12, 27300, Note_on_c, 6, 81, 0
12, 27300, Note_on_c, 6, 69, 0
12, 27300, Note_on_c, 6, 71, 0
12, 27300, Note_on_c, 6, 76, 0
12, 27300, Note_on_c, 6, 69, 110
12, 27310, Note_on_c, 6, 71, 110
12, 27320, Note_on_c, 6, 76, 110
12, 27330, Note_on_c, 6, 81, 110
12, 27420, Note_on_c, 6, 81, 0
12, 27420, Note_on_c, 6, 69, 0
12, 27420, Note_on_c, 6, 71, 0
12, 27420, Note_on_c, 6, 76, 0
12, 27420, Note_on_c, 6, 69, 110
12, 27430, Note_on_c, 6, 71, 110
12, 27440, Note_on_c, 6, 76, 110
12, 27450, Note_on_c, 6, 81, 110
12, 27480, Note_on_c, 6, 81, 0
12, 27480, Note_on_c, 6, 69, 0
12, 27480, Note_on_c, 6, 71, 0
12, 27480, Note_on_c, 6, 76, 0
12, 27480, Note_on_c, 6, 70, 110
12, 27490, Note_on_c, 6, 82, 110
12, 27540, Note_on_c, 6, 82, 0
12, 27540, Note_on_c, 6, 70, 0
12, 27540, Note_on_c, 6, 70, 110
12, 27550, Note_on_c, 6, 82, 110
12, 27600, Note_on_c, 6, 82, 0
12, 27600, Note_on_c, 6, 70, 0
12, 27600, Note_on_c, 6, 69, 110
12, 27610, Note_on_c, 6, 81, 110
12, 27720, Note_on_c, 6, 81, 0
12, 27720, Note_on_c, 6, 69, 0
12, 27720, Note_on_c, 6, 67, 110
12, 27730, Note_on_c, 6, 79, 110
12, 27780, Note_on_c, 6, 79, 0
12, 27780, Note_on_c, 6, 67, 0
12, 27780, Note_on_c, 6, 67, 110
12, 27790, Note_on_c, 6, 79, 110
12, 27840, Note_on_c, 6, 79, 0
12, 27840, Note_on_c, 6, 67, 0
12, 27840, Note_on_c, 6, 67, 110
12, 27850, Note_on_c, 6, 79, 110
12, 27960, Note_on_c, 6, 79, 0
12, 27960, Note_on_c, 6, 67, 0
12, 27960, Note_on_c, 6, 64, 110
12, 27970, Note_on_c, 6, 76, 110
12, 28020, Note_on_c, 6, 76, 0
12, 28020, Note_on_c, 6, 64, 0
12, 28020, Note_on_c, 6, 64, 110
12, 28030, Note_on_c, 6, 76, 110
12, 28080, Note_on_c, 6, 76, 0
12, 28080, Note_on_c, 6, 64, 0
12, 28080, Note_on_c, 6, 64, 110
12, 28090, Note_on_c, 6, 76, 110
12, 28200, Note_on_c, 6, 76, 0
12, 28200, Note_on_c, 6, 64, 0
12, 28200, Note_on_c, 6, 64, 110
12, 28210, Note_on_c, 6, 76, 110
12, 28260, Note_on_c, 6, 76, 0
12, 28260, Note_on_c, 6, 64, 0
12, 28260, Note_on_c, 6, 64, 110
12, 28270, Note_on_c, 6, 76, 110
12, 28380, Note_on_c, 6, 76, 0
12, 28380, Note_on_c, 6, 64, 0
12, 28380, Note_on_c, 6, 64, 110
12, 28390, Note_on_c, 6, 76, 110
12, 28500, Note_on_c, 6, 76, 0
12, 28500, Note_on_c, 6, 64, 0
12, 28500, Note_on_c, 6, 64, 110
12, 28510, Note_on_c, 6, 76, 110
12, 28560, Note_on_c, 6, 76, 0
12, 28560, Note_on_c, 6, 64, 0
12, 28560, Note_on_c, 6, 62, 110
12, 28570, Note_on_c, 6, 74, 110
12, 28620, Note_on_c, 6, 74, 0
12, 28620, Note_on_c, 6, 62, 0
12, 28620, Note_on_c, 6, 64, 110
12, 28630, Note_on_c, 6, 76, 110
12, 28680, Note_on_c, 6, 76, 0
12, 28680, Note_on_c, 6, 64, 0
12, 28680, Note_on_c, 6, 64, 110
12, 28690, Note_on_c, 6, 76, 110
12, 28740, Note_on_c, 6, 76, 0
12, 28740, Note_on_c, 6, 64, 0
12, 28740, Note_on_c, 6, 64, 110
12, 28750, Note_on_c, 6, 76, 110
12, 28800, Note_on_c, 6, 76, 0
12, 28800, Note_on_c, 6, 64, 0
12, 28800, Note_on_c, 6, 64, 120
12, 28810, Note_on_c, 6, 76, 120
12, 28860, Note_on_c, 6, 76, 0
12, 28860, Note_on_c, 6, 64, 0
12, 28860, Note_on_c, 6, 64, 120
12, 28870, Note_on_c, 6, 76, 120
12, 28920, Note_on_c, 6, 76, 0
12, 28920, Note_on_c, 6, 64, 0
12, 28920, Note_on_c, 6, 64, 120
12, 28930, Note_on_c, 6, 76, 120
12, 28980, Note_on_c, 6, 76, 0
12, 28980, Note_on_c, 6, 64, 0
12, 28980, Note_on_c, 6, 64, 120
12, 28990, Note_on_c, 6, 76, 120
12, 29040, Note_on_c, 6, 76, 0
12, 29040, Note_on_c, 6, 64, 0
12, 98400, Note_on_c, 6, 69, 110
12, 98410, Note_on_c, 6, 71, 110
12, 98420, Note_on_c, 6, 76, 110
12, 98430, Note_on_c, 6, 81, 110
12, 98520, Note_on_c, 6, 81, 0
12, 98520, Note_on_c, 6, 69, 0
12, 98520, Note_on_c, 6, 71, 0
12, 98520, Note_on_c, 6, 76, 0
12, 98520, Note_on_c, 6, 69, 110
12, 98530, Note_on_c, 6, 71, 110
12, 98540, Note_on_c, 6, 76, 110
12, 98550, Note_on_c, 6, 81, 110
12, 98580, Note_on_c, 6, 81, 0
12, 98580, Note_on_c, 6, 69, 0
12, 98580, Note_on_c, 6, 71, 0
12, 98580, Note_on_c, 6, 76, 0
12, 98580, Note_on_c, 6, 69, 110
12, 98590, Note_on_c, 6, 71, 110
12, 98600, Note_on_c, 6, 76, 110
12, 98610, Note_on_c, 6, 81, 110
12, 98700, Note_on_c, 6, 81, 0
12, 98700, Note_on_c, 6, 69, 0
12, 98700, Note_on_c, 6, 71, 0
12, 98700, Note_on_c, 6, 76, 0
12, 98700, Note_on_c, 6, 69, 110
12, 98710, Note_on_c, 6, 71, 110
12, 98720, Note_on_c, 6, 76, 110
12, 98730, Note_on_c, 6, 81, 110
12, 98760, Note_on_c, 6, 81, 0
12, 98760, Note_on_c, 6, 69, 0
12, 98760, Note_on_c, 6, 71, 0
12, 98760, Note_on_c, 6, 76, 0
12, 98760, Note_on_c, 6, 70, 110
12, 98770, Note_on_c, 6, 82, 110
12, 98820, Note_on_c, 6, 82, 0
12, 98820, Note_on_c, 6, 70, 0
12, 98820, Note_on_c, 6, 70, 110
12, 98830, Note_on_c, 6, 82, 110
12, 98880, Note_on_c, 6, 82, 0
12, 98880, Note_on_c, 6, 70, 0
12, 98880, Note_on_c, 6, 69, 110
12, 98890, Note_on_c, 6, 81, 110
12, 99000, Note_on_c, 6, 81, 0
12, 99000, Note_on_c, 6, 69, 0
12, 99000, Note_on_c, 6, 67, 110
12, 99010, Note_on_c, 6, 79, 110
12, 99060, Note_on_c, 6, 79, 0
12, 99060, Note_on_c, 6, 67, 0
12, 99060, Note_on_c, 6, 67, 110
12, 99070, Note_on_c, 6, 79, 110
12, 99120, Note_on_c, 6, 79, 0
12, 99120, Note_on_c, 6, 67, 0
12, 99120, Note_on_c, 6, 67, 110
12, 99130, Note_on_c, 6, 79, 110
12, 99240, Note_on_c, 6, 79, 0
12, 99240, Note_on_c, 6, 67, 0
12, 99240, Note_on_c, 6, 64, 110
12, 99250, Note_on_c, 6, 76, 110
12, 99300, Note_on_c, 6, 76, 0
12, 99300, Note_on_c, 6, 64, 0
12, 99300, Note_on_c, 6, 64, 110
12, 99310, Note_on_c, 6, 76, 110
12, 99360, Note_on_c, 6, 76, 0
12, 99360, Note_on_c, 6, 64, 0
12, 99360, Note_on_c, 6, 64, 110
12, 99370, Note_on_c, 6, 76, 110
12, 99480, Note_on_c, 6, 76, 0
12, 99480, Note_on_c, 6, 64, 0
12, 99480, Note_on_c, 6, 64, 110
12, 99490, Note_on_c, 6, 76, 110
12, 99540, Note_on_c, 6, 76, 0
12, 99540, Note_on_c, 6, 64, 0
12, 99540, Note_on_c, 6, 64, 110
12, 99550, Note_on_c, 6, 76, 110
12, 99660, Note_on_c, 6, 76, 0
12, 99660, Note_on_c, 6, 64, 0
12, 99660, Note_on_c, 6, 64, 110
12, 99670, Note_on_c, 6, 76, 110
12, 99780, Note_on_c, 6, 76, 0
12, 99780, Note_on_c, 6, 64, 0
12, 99780, Note_on_c, 6, 64, 110
12, 99790, Note_on_c, 6, 76, 110
12, 99840, Note_on_c, 6, 76, 0
12, 99840, Note_on_c, 6, 64, 0
12, 99840, Note_on_c, 6, 64, 110
12, 99850, Note_on_c, 6, 76, 110
12, 99960, Note_on_c, 6, 76, 0
12, 99960, Note_on_c, 6, 64, 0
12, 99960, Note_on_c, 6, 64, 110
12, 99970, Note_on_c, 6, 76, 110
12, 100020, Note_on_c, 6, 76, 0
12, 100020, Note_on_c, 6, 64, 0
12, 100020, Note_on_c, 6, 64, 110
12, 100030, Note_on_c, 6, 76, 110
12, 100080, Note_on_c, 6, 76, 0
12, 100080, Note_on_c, 6, 64, 0
12, 100080, Note_on_c, 6, 64, 110
12, 100090, Note_on_c, 6, 76, 110
12, 100140, Note_on_c, 6, 76, 0
12, 100140, Note_on_c, 6, 64, 0
12, 100140, Note_on_c, 6, 64, 110
12, 100150, Note_on_c, 6, 76, 110
12, 100200, Note_on_c, 6, 76, 0
12, 100200, Note_on_c, 6, 64, 0
12, 100200, Note_on_c, 6, 64, 110
12, 100210, Note_on_c, 6, 76, 110
12, 100260, Note_on_c, 6, 76, 0
12, 100260, Note_on_c, 6, 64, 0
12, 100260, Note_on_c, 6, 64, 110
12, 100270, Note_on_c, 6, 76, 110
12, 100320, Note_on_c, 6, 76, 0
12, 100320, Note_on_c, 6, 64, 0
12, 100320, Note_on_c, 6, 69, 110
12, 100330, Note_on_c, 6, 71, 110
12, 100340, Note_on_c, 6, 76, 110
12, 100350, Note_on_c, 6, 81, 110
12, 100440, Note_on_c, 6, 81, 0
12, 100440, Note_on_c, 6, 69, 0
12, 100440, Note_on_c, 6, 71, 0
12, 100440, Note_on_c, 6, 76, 0
12, 100440, Note_on_c, 6, 69, 110
12, 100450, Note_on_c, 6, 71, 110
12, 100460, Note_on_c, 6, 76, 110
12, 100470, Note_on_c, 6, 81, 110
12, 100500, Note_on_c, 6, 81, 0
12, 100500, Note_on_c, 6, 69, 0
12, 100500, Note_on_c, 6, 71, 0
12, 100500, Note_on_c, 6, 76, 0
12, 100500, Note_on_c, 6, 69, 110
12, 100510, Note_on_c, 6, 71, 110
12, 100520, Note_on_c, 6, 76, 110
12, 100530, Note_on_c, 6, 81, 110
12, 100620, Note_on_c, 6, 81, 0
12, 100620, Note_on_c, 6, 69, 0
12, 100620, Note_on_c, 6, 71, 0
12, 100620, Note_on_c, 6, 76, 0
12, 100620, Note_on_c, 6, 69, 110
12, 100630, Note_on_c, 6, 71, 110
12, 100640, Note_on_c, 6, 76, 110
12, 100650, Note_on_c, 6, 81, 110
12, 100680, Note_on_c, 6, 81, 0
12, 100680, Note_on_c, 6, 69, 0
12, 100680, Note_on_c, 6, 71, 0
12, 100680, Note_on_c, 6, 76, 0
12, 100680, Note_on_c, 6, 70, 110
12, 100690, Note_on_c, 6, 82, 110
12, 100740, Note_on_c, 6, 82, 0
12, 100740, Note_on_c, 6, 70, 0
12, 100740, Note_on_c, 6, 70, 110
12, 100750, Note_on_c, 6, 82, 110
12, 100800, Note_on_c, 6, 82, 0
12, 100800, Note_on_c, 6, 70, 0
12, 100800, Note_on_c, 6, 69, 110
12, 100810, Note_on_c, 6, 81, 110
12, 100920, Note_on_c, 6, 81, 0
12, 100920, Note_on_c, 6, 69, 0
12, 100920, Note_on_c, 6, 67, 110
12, 100930, Note_on_c, 6, 79, 110
12, 100980, Note_on_c, 6, 79, 0
12, 100980, Note_on_c, 6, 67, 0
12, 100980, Note_on_c, 6, 67, 110
12, 100990, Note_on_c, 6, 79, 110
12, 101040, Note_on_c, 6, 79, 0
12, 101040, Note_on_c, 6, 67, 0
12, 101040, Note_on_c, 6, 67, 110
12, 101050, Note_on_c, 6, 79, 110
12, 101160, Note_on_c, 6, 79, 0
12, 101160, Note_on_c, 6, 67, 0
12, 101160, Note_on_c, 6, 64, 110
12, 101170, Note_on_c, 6, 76, 110
12, 101220, Note_on_c, 6, 76, 0
12, 101220, Note_on_c, 6, 64, 0
12, 101220, Note_on_c, 6, 64, 110
12, 101230, Note_on_c, 6, 76, 110
12, 101280, Note_on_c, 6, 76, 0
12, 101280, Note_on_c, 6, 64, 0
12, 101280, Note_on_c, 6, 64, 110
12, 101290, Note_on_c, 6, 76, 110
12, 101400, Note_on_c, 6, 76, 0
12, 101400, Note_on_c, 6, 64, 0
12, 101400, Note_on_c, 6, 64, 110
12, 101410, Note_on_c, 6, 76, 110
12, 101460, Note_on_c, 6, 76, 0
12, 101460, Note_on_c, 6, 64, 0
12, 101460, Note_on_c, 6, 64, 110
12, 101470, Note_on_c, 6, 76, 110
12, 101580, Note_on_c, 6, 76, 0
12, 101580, Note_on_c, 6, 64, 0
12, 101580, Note_on_c, 6, 64, 110
12, 101590, Note_on_c, 6, 76, 110
12, 101700, Note_on_c, 6, 76, 0
12, 101700, Note_on_c, 6, 64, 0
12, 101700, Note_on_c, 6, 64, 110
12, 101710, Note_on_c, 6, 76, 110
12, 101760, Note_on_c, 6, 76, 0
12, 101760, Note_on_c, 6, 64, 0
12, 101760, Note_on_c, 6, 64, 110
12, 101770, Note_on_c, 6, 76, 110
12, 101880, Note_on_c, 6, 76, 0
12, 101880, Note_on_c, 6, 64, 0
12, 101880, Note_on_c, 6, 64, 110
12, 101890, Note_on_c, 6, 76, 110
12, 101940, Note_on_c, 6, 76, 0
12, 101940, Note_on_c, 6, 64, 0
12, 101940, Note_on_c, 6, 64, 110
12, 101950, Note_on_c, 6, 76, 110
12, 102000, Note_on_c, 6, 76, 0
12, 102000, Note_on_c, 6, 64, 0
12, 102000, Note_on_c, 6, 64, 110
12, 102010, Note_on_c, 6, 76, 110
12, 102060, Note_on_c, 6, 76, 0
12, 102060, Note_on_c, 6, 64, 0
12, 102060, Note_on_c, 6, 64, 110
12, 102070, Note_on_c, 6, 76, 110
12, 102120, Note_on_c, 6, 76, 0
12, 102120, Note_on_c, 6, 64, 0
12, 102120, Note_on_c, 6, 64, 110
12, 102130, Note_on_c, 6, 76, 110
12, 102180, Note_on_c, 6, 76, 0
12, 102180, Note_on_c, 6, 64, 0
12, 102180, Note_on_c, 6, 64, 110
12, 102190, Note_on_c, 6, 76, 110
12, 102240, Note_on_c, 6, 76, 0
12, 102240, Note_on_c, 6, 64, 0
12, 102240, Note_on_c, 6, 69, 110
12, 102250, Note_on_c, 6, 71, 110
12, 102260, Note_on_c, 6, 76, 110
12, 102270, Note_on_c, 6, 81, 110
12, 102360, Note_on_c, 6, 81, 0
12, 102360, Note_on_c, 6, 69, 0
12, 102360, Note_on_c, 6, 71, 0
12, 102360, Note_on_c, 6, 76, 0
12, 102360, Note_on_c, 6, 69, 110
12, 102370, Note_on_c, 6, 71, 110
12, 102380, Note_on_c, 6, 76, 110
12, 102390, Note_on_c, 6, 81, 110
12, 102420, Note_on_c, 6, 81, 0
12, 102420, Note_on_c, 6, 69, 0
12, 102420, Note_on_c, 6, 71, 0
12, 102420, Note_on_c, 6, 76, 0
12, 102420, Note_on_c, 6, 69, 110
12, 102430, Note_on_c, 6, 71, 110
12, 102440, Note_on_c, 6, 76, 110
12, 102450, Note_on_c, 6, 81, 110
12, 102540, Note_on_c, 6, 81, 0
12, 102540, Note_on_c, 6, 69, 0
12, 102540, Note_on_c, 6, 71, 0
12, 102540, Note_on_c, 6, 76, 0
12, 102540, Note_on_c, 6, 69, 110
12, 102550, Note_on_c, 6, 71, 110
12, 102560, Note_on_c, 6, 76, 110
12, 102570, Note_on_c, 6, 81, 110
12, 102600, Note_on_c, 6, 81, 0
12, 102600, Note_on_c, 6, 69, 0
12, 102600, Note_on_c, 6, 71, 0
12, 102600, Note_on_c, 6, 76, 0
12, 102600, Note_on_c, 6, 70, 110
12, 102610, Note_on_c, 6, 82, 110
12, 102660, Note_on_c, 6, 82, 0
12, 102660, Note_on_c, 6, 70, 0
12, 102660, Note_on_c, 6, 70, 110
12, 102670, Note_on_c, 6, 82, 110
12, 102720, Note_on_c, 6, 82, 0
12, 102720, Note_on_c, 6, 70, 0
12, 102720, Note_on_c, 6, 69, 110
12, 102730, Note_on_c, 6, 81, 110
12, 102840, Note_on_c, 6, 81, 0
12, 102840, Note_on_c, 6, 69, 0
12, 102840, Note_on_c, 6, 67, 110
12, 102850, Note_on_c, 6, 79, 110
12, 102900, Note_on_c, 6, 79, 0
12, 102900, Note_on_c, 6, 67, 0
12, 102900, Note_on_c, 6, 67, 110
12, 102910, Note_on_c, 6, 79, 110
12, 102960, Note_on_c, 6, 79, 0
12, 102960, Note_on_c, 6, 67, 0
12, 102960, Note_on_c, 6, 67, 110
12, 102970, Note_on_c, 6, 79, 110
12, 103080, Note_on_c, 6, 79, 0
12, 103080, Note_on_c, 6, 67, 0
12, 103080, Note_on_c, 6, 64, 110
12, 103090, Note_on_c, 6, 76, 110
12, 103140, Note_on_c, 6, 76, 0
12, 103140, Note_on_c, 6, 64, 0
12, 103140, Note_on_c, 6, 64, 110
12, 103150, Note_on_c, 6, 76, 110
12, 103200, Note_on_c, 6, 76, 0
12, 103200, Note_on_c, 6, 64, 0
12, 103200, Note_on_c, 6, 64, 110
12, 103210, Note_on_c, 6, 76, 110
12, 103320, Note_on_c, 6, 76, 0
12, 103320, Note_on_c, 6, 64, 0
12, 103320, Note_on_c, 6, 64, 110
12, 103330, Note_on_c, 6, 76, 110
12, 103380, Note_on_c, 6, 76, 0
12, 103380, Note_on_c, 6, 64, 0
12, 103380, Note_on_c, 6, 64, 110
12, 103390, Note_on_c, 6, 76, 110
12, 103500, Note_on_c, 6, 76, 0
12, 103500, Note_on_c, 6, 64, 0
12, 103500, Note_on_c, 6, 64, 110
12, 103510, Note_on_c, 6, 76, 110
12, 103620, Note_on_c, 6, 76, 0
12, 103620, Note_on_c, 6, 64, 0
12, 103620, Note_on_c, 6, 64, 110
12, 103630, Note_on_c, 6, 76, 110
12, 103680, Note_on_c, 6, 76, 0
12, 103680, Note_on_c, 6, 64, 0
12, 103680, Note_on_c, 6, 64, 110
12, 103690, Note_on_c, 6, 76, 110
12, 103800, Note_on_c, 6, 76, 0
12, 103800, Note_on_c, 6, 64, 0
12, 103800, Note_on_c, 6, 64, 110
12, 103810, Note_on_c, 6, 76, 110
12, 103860, Note_on_c, 6, 76, 0
12, 103860, Note_on_c, 6, 64, 0
12, 103860, Note_on_c, 6, 64, 110
12, 103870, Note_on_c, 6, 76, 110
12, 103920, Note_on_c, 6, 76, 0
12, 103920, Note_on_c, 6, 64, 0
12, 103920, Note_on_c, 6, 64, 110
12, 103930, Note_on_c, 6, 76, 110
12, 103980, Note_on_c, 6, 76, 0
12, 103980, Note_on_c, 6, 64, 0
12, 103980, Note_on_c, 6, 64, 110
12, 103990, Note_on_c, 6, 76, 110
12, 104040, Note_on_c, 6, 76, 0
12, 104040, Note_on_c, 6, 64, 0
12, 104040, Note_on_c, 6, 64, 110
12, 104050, Note_on_c, 6, 76, 110
12, 104100, Note_on_c, 6, 76, 0
12, 104100, Note_on_c, 6, 64, 0
12, 104100, Note_on_c, 6, 64, 110
12, 104110, Note_on_c, 6, 76, 110
12, 104160, Note_on_c, 6, 76, 0
12, 104160, Note_on_c, 6, 64, 0
12, 104160, Note_on_c, 6, 69, 110
12, 104170, Note_on_c, 6, 71, 110
12, 104180, Note_on_c, 6, 76, 110
12, 104190, Note_on_c, 6, 81, 110
12, 104280, Note_on_c, 6, 81, 0
12, 104280, Note_on_c, 6, 69, 0
12, 104280, Note_on_c, 6, 71, 0
12, 104280, Note_on_c, 6, 76, 0
12, 104280, Note_on_c, 6, 69, 110
12, 104290, Note_on_c, 6, 71, 110
12, 104300, Note_on_c, 6, 76, 110
12, 104310, Note_on_c, 6, 81, 110
12, 104340, Note_on_c, 6, 81, 0
12, 104340, Note_on_c, 6, 69, 0
12, 104340, Note_on_c, 6, 71, 0
12, 104340, Note_on_c, 6, 76, 0
12, 104340, Note_on_c, 6, 69, 110
12, 104350, Note_on_c, 6, 71, 110
12, 104360, Note_on_c, 6, 76, 110
12, 104370, Note_on_c, 6, 81, 110
12, 104460, Note_on_c, 6, 81, 0
12, 104460, Note_on_c, 6, 69, 0
12, 104460, Note_on_c, 6, 71, 0
12, 104460, Note_on_c, 6, 76, 0
12, 104460, Note_on_c, 6, 69, 110
12, 104470, Note_on_c, 6, 71, 110
12, 104480, Note_on_c, 6, 76, 110
12, 104490, Note_on_c, 6, 81, 110
12, 104520, Note_on_c, 6, 81, 0
12, 104520, Note_on_c, 6, 69, 0
12, 104520, Note_on_c, 6, 71, 0
12, 104520, Note_on_c, 6, 76, 0
12, 104520, Note_on_c, 6, 70, 110
12, 104530, Note_on_c, 6, 82, 110
12, 104580, Note_on_c, 6, 82, 0
12, 104580, Note_on_c, 6, 70, 0
12, 104580, Note_on_c, 6, 70, 110
12, 104590, Note_on_c, 6, 82, 110
12, 104640, Note_on_c, 6, 82, 0
12, 104640, Note_on_c, 6, 70, 0
12, 104640, Note_on_c, 6, 69, 110
12, 104650, Note_on_c, 6, 81, 110
12, 104760, Note_on_c, 6, 81, 0
12, 104760, Note_on_c, 6, 69, 0
12, 104760, Note_on_c, 6, 67, 110
12, 104770, Note_on_c, 6, 79, 110
12, 104820, Note_on_c, 6, 79, 0
12, 104820, Note_on_c, 6, 67, 0
12, 104820, Note_on_c, 6, 67, 110
12, 104830, Note_on_c, 6, 79, 110
12, 104880, Note_on_c, 6, 79, 0
12, 104880, Note_on_c, 6, 67, 0
12, 104880, Note_on_c, 6, 67, 110
12, 104890, Note_on_c, 6, 79, 110
12, 105000, Note_on_c, 6, 79, 0
12, 105000, Note_on_c, 6, 67, 0
12, 105000, Note_on_c, 6, 64, 110
12, 105010, Note_on_c, 6, 76, 110
12, 105060, Note_on_c, 6, 76, 0
12, 105060, Note_on_c, 6, 64, 0
12, 105060, Note_on_c, 6, 64, 110
12, 105070, Note_on_c, 6, 76, 110
12, 105120, Note_on_c, 6, 76, 0
12, 105120, Note_on_c, 6, 64, 0
12, 105120, Note_on_c, 6, 64, 110
12, 105130, Note_on_c, 6, 76, 110
12, 105240, Note_on_c, 6, 76, 0
12, 105240, Note_on_c, 6, 64, 0
12, 105240, Note_on_c, 6, 64, 110
12, 105250, Note_on_c, 6, 76, 110
12, 105300, Note_on_c, 6, 76, 0
12, 105300, Note_on_c, 6, 64, 0
12, 105300, Note_on_c, 6, 64, 110
12, 105310, Note_on_c, 6, 76, 110
12, 105420, Note_on_c, 6, 76, 0
12, 105420, Note_on_c, 6, 64, 0
12, 105420, Note_on_c, 6, 64, 110
12, 105430, Note_on_c, 6, 76, 110
12, 105540, Note_on_c, 6, 76, 0
12, 105540, Note_on_c, 6, 64, 0
12, 105540, Note_on_c, 6, 64, 110
12, 105550, Note_on_c, 6, 76, 110
12, 105600, Note_on_c, 6, 76, 0
12, 105600, Note_on_c, 6, 64, 0
12, 105600, Note_on_c, 6, 64, 110
12, 105610, Note_on_c, 6, 76, 110
12, 105720, Note_on_c, 6, 76, 0
12, 105720, Note_on_c, 6, 64, 0
12, 105720, Note_on_c, 6, 64, 110
12, 105730, Note_on_c, 6, 76, 110
12, 105780, Note_on_c, 6, 76, 0
12, 105780, Note_on_c, 6, 64, 0
12, 105780, Note_on_c, 6, 64, 110
12, 105790, Note_on_c, 6, 76, 110
12, 105840, Note_on_c, 6, 76, 0
12, 105840, Note_on_c, 6, 64, 0
12, 105840, Note_on_c, 6, 64, 110
12, 105850, Note_on_c, 6, 76, 110
12, 105900, Note_on_c, 6, 76, 0
12, 105900, Note_on_c, 6, 64, 0
12, 105900, Note_on_c, 6, 64, 110
12, 105910, Note_on_c, 6, 76, 110
12, 105960, Note_on_c, 6, 76, 0
12, 105960, Note_on_c, 6, 64, 0
12, 105960, Note_on_c, 6, 64, 110
12, 105970, Note_on_c, 6, 76, 110
12, 106020, Note_on_c, 6, 76, 0
12, 106020, Note_on_c, 6, 64, 0
12, 106020, Note_on_c, 6, 64, 110
12, 106030, Note_on_c, 6, 76, 110
12, 106080, Note_on_c, 6, 76, 0
12, 106080, Note_on_c, 6, 64, 0
12, 106080, Note_on_c, 6, 69, 110
12, 106090, Note_on_c, 6, 71, 110
12, 106100, Note_on_c, 6, 76, 110
12, 106110, Note_on_c, 6, 81, 110
12, 106200, Note_on_c, 6, 81, 0
12, 106200, Note_on_c, 6, 69, 0
12, 106200, Note_on_c, 6, 71, 0
12, 106200, Note_on_c, 6, 76, 0
12, 106200, Note_on_c, 6, 69, 110
12, 106210, Note_on_c, 6, 71, 110
12, 106220, Note_on_c, 6, 76, 110
12, 106230, Note_on_c, 6, 81, 110
12, 106260, Note_on_c, 6, 81, 0
12, 106260, Note_on_c, 6, 69, 0
12, 106260, Note_on_c, 6, 71, 0
12, 106260, Note_on_c, 6, 76, 0
12, 106260, Note_on_c, 6, 69, 110
12, 106270, Note_on_c, 6, 71, 110
12, 106280, Note_on_c, 6, 76, 110
12, 106290, Note_on_c, 6, 81, 110
12, 106380, Note_on_c, 6, 81, 0
12, 106380, Note_on_c, 6, 69, 0
12, 106380, Note_on_c, 6, 71, 0
12, 106380, Note_on_c, 6, 76, 0
12, 106380, Note_on_c, 6, 69, 110
12, 106390, Note_on_c, 6, 71, 110
12, 106400, Note_on_c, 6, 76, 110
12, 106410, Note_on_c, 6, 81, 110
12, 106440, Note_on_c, 6, 81, 0
12, 106440, Note_on_c, 6, 69, 0
12, 106440, Note_on_c, 6, 71, 0
12, 106440, Note_on_c, 6, 76, 0
12, 106440, Note_on_c, 6, 70, 110
12, 106450, Note_on_c, 6, 82, 110
12, 106500, Note_on_c, 6, 82, 0
12, 106500, Note_on_c, 6, 70, 0
12, 106500, Note_on_c, 6, 70, 110
12, 106510, Note_on_c, 6, 82, 110
12, 106560, Note_on_c, 6, 82, 0
12, 106560, Note_on_c, 6, 70, 0
12, 106560, Note_on_c, 6, 69, 110
12, 106570, Note_on_c, 6, 81, 110
12, 106680, Note_on_c, 6, 81, 0
12, 106680, Note_on_c, 6, 69, 0
12, 106680, Note_on_c, 6, 67, 110
12, 106690, Note_on_c, 6, 79, 110
12, 106740, Note_on_c, 6, 79, 0
12, 106740, Note_on_c, 6, 67, 0
12, 106740, Note_on_c, 6, 67, 110
12, 106750, Note_on_c, 6, 79, 110
12, 106800, Note_on_c, 6, 79, 0
12, 106800, Note_on_c, 6, 67, 0
12, 106800, Note_on_c, 6, 67, 110
12, 106810, Note_on_c, 6, 79, 110
12, 106920, Note_on_c, 6, 79, 0
12, 106920, Note_on_c, 6, 67, 0
12, 106920, Note_on_c, 6, 64, 110
12, 106930, Note_on_c, 6, 76, 110
12, 106980, Note_on_c, 6, 76, 0
12, 106980, Note_on_c, 6, 64, 0
12, 106980, Note_on_c, 6, 64, 110
12, 106990, Note_on_c, 6, 76, 110
12, 107040, Note_on_c, 6, 76, 0
12, 107040, Note_on_c, 6, 64, 0
12, 107040, Note_on_c, 6, 64, 110
12, 107050, Note_on_c, 6, 76, 110
12, 107160, Note_on_c, 6, 76, 0
12, 107160, Note_on_c, 6, 64, 0
12, 107160, Note_on_c, 6, 64, 110
12, 107170, Note_on_c, 6, 76, 110
12, 107220, Note_on_c, 6, 76, 0
12, 107220, Note_on_c, 6, 64, 0
12, 107220, Note_on_c, 6, 64, 110
12, 107230, Note_on_c, 6, 76, 110
12, 107340, Note_on_c, 6, 76, 0
12, 107340, Note_on_c, 6, 64, 0
12, 107340, Note_on_c, 6, 64, 110
12, 107350, Note_on_c, 6, 76, 110
12, 107460, Note_on_c, 6, 76, 0
12, 107460, Note_on_c, 6, 64, 0
12, 107460, Note_on_c, 6, 64, 110
12, 107470, Note_on_c, 6, 76, 110
12, 107520, Note_on_c, 6, 76, 0
12, 107520, Note_on_c, 6, 64, 0
12, 107520, Note_on_c, 6, 64, 110
12, 107530, Note_on_c, 6, 76, 110
12, 107640, Note_on_c, 6, 76, 0
12, 107640, Note_on_c, 6, 64, 0
12, 107640, Note_on_c, 6, 64, 110
12, 107650, Note_on_c, 6, 76, 110
12, 107700, Note_on_c, 6, 76, 0
12, 107700, Note_on_c, 6, 64, 0
12, 107700, Note_on_c, 6, 64, 110
12, 107710, Note_on_c, 6, 76, 110
12, 107760, Note_on_c, 6, 76, 0
12, 107760, Note_on_c, 6, 64, 0
12, 107760, Note_on_c, 6, 64, 110
12, 107770, Note_on_c, 6, 76, 110
12, 107820, Note_on_c, 6, 76, 0
12, 107820, Note_on_c, 6, 64, 0
12, 107820, Note_on_c, 6, 64, 110
12, 107830, Note_on_c, 6, 76, 110
12, 107880, Note_on_c, 6, 76, 0
12, 107880, Note_on_c, 6, 64, 0
12, 107880, Note_on_c, 6, 64, 110
12, 107890, Note_on_c, 6, 76, 110
12, 107940, Note_on_c, 6, 76, 0
12, 107940, Note_on_c, 6, 64, 0
12, 107940, Note_on_c, 6, 64, 110
12, 107950, Note_on_c, 6, 76, 110
12, 108000, Note_on_c, 6, 76, 0
12, 108000, Note_on_c, 6, 64, 0
12, 108000, Note_on_c, 6, 69, 110
12, 108010, Note_on_c, 6, 71, 110
12, 108020, Note_on_c, 6, 76, 110
12, 108030, Note_on_c, 6, 81, 110
12, 108120, Note_on_c, 6, 81, 0
12, 108120, Note_on_c, 6, 69, 0
12, 108120, Note_on_c, 6, 71, 0
12, 108120, Note_on_c, 6, 76, 0
12, 108120, Note_on_c, 6, 69, 110
12, 108130, Note_on_c, 6, 71, 110
12, 108140, Note_on_c, 6, 76, 110
12, 108150, Note_on_c, 6, 81, 110
12, 108180, Note_on_c, 6, 81, 0
12, 108180, Note_on_c, 6, 69, 0
12, 108180, Note_on_c, 6, 71, 0
12, 108180, Note_on_c, 6, 76, 0
12, 108180, Note_on_c, 6, 69, 110
12, 108190, Note_on_c, 6, 71, 110
12, 108200, Note_on_c, 6, 76, 110
12, 108210, Note_on_c, 6, 81, 110
12, 108300, Note_on_c, 6, 81, 0
12, 108300, Note_on_c, 6, 69, 0
12, 108300, Note_on_c, 6, 71, 0
12, 108300, Note_on_c, 6, 76, 0
12, 108300, Note_on_c, 6, 69, 110
12, 108310, Note_on_c, 6, 71, 110
12, 108320, Note_on_c, 6, 76, 110
12, 108330, Note_on_c, 6, 81, 110
12, 108360, Note_on_c, 6, 81, 0
12, 108360, Note_on_c, 6, 69, 0
12, 108360, Note_on_c, 6, 71, 0
12, 108360, Note_on_c, 6, 76, 0
12, 108360, Note_on_c, 6, 70, 110
12, 108370, Note_on_c, 6, 82, 110
12, 108420, Note_on_c, 6, 82, 0
12, 108420, Note_on_c, 6, 70, 0
12, 108420, Note_on_c, 6, 70, 110
12, 108430, Note_on_c, 6, 82, 110
12, 108480, Note_on_c, 6, 82, 0
12, 108480, Note_on_c, 6, 70, 0
12, 108480, Note_on_c, 6, 69, 110
12, 108490, Note_on_c, 6, 81, 110
12, 108600, Note_on_c, 6, 81, 0
12, 108600, Note_on_c, 6, 69, 0
12, 108600, Note_on_c, 6, 67, 110
12, 108610, Note_on_c, 6, 79, 110
12, 108660, Note_on_c, 6, 79, 0
12, 108660, Note_on_c, 6, 67, 0
12, 108660, Note_on_c, 6, 67, 110
12, 108670, Note_on_c, 6, 79, 110
12, 108720, Note_on_c, 6, 79, 0
12, 108720, Note_on_c, 6, 67, 0
12, 108720, Note_on_c, 6, 67, 110
12, 108730, Note_on_c, 6, 79, 110
12, 108840, Note_on_c, 6, 79, 0
12, 108840, Note_on_c, 6, 67, 0
12, 108840, Note_on_c, 6, 64, 110
12, 108850, Note_on_c, 6, 76, 110
12, 108900, Note_on_c, 6, 76, 0
12, 108900, Note_on_c, 6, 64, 0
12, 108900, Note_on_c, 6, 64, 110
12, 108910, Note_on_c, 6, 76, 110
12, 108960, Note_on_c, 6, 76, 0
12, 108960, Note_on_c, 6, 64, 0
12, 108960, Note_on_c, 6, 64, 110
12, 108970, Note_on_c, 6, 76, 110
12, 109080, Note_on_c, 6, 76, 0
12, 109080, Note_on_c, 6, 64, 0
12, 109080, Note_on_c, 6, 64, 110
12, 109090, Note_on_c, 6, 76, 110
12, 109140, Note_on_c, 6, 76, 0
12, 109140, Note_on_c, 6, 64, 0
12, 109140, Note_on_c, 6, 64, 110
12, 109150, Note_on_c, 6, 76, 110
12, 109260, Note_on_c, 6, 76, 0
12, 109260, Note_on_c, 6, 64, 0
12, 109260, Note_on_c, 6, 64, 110
12, 109270, Note_on_c, 6, 76, 110
12, 109380, Note_on_c, 6, 76, 0
12, 109380, Note_on_c, 6, 64, 0
12, 109380, Note_on_c, 6, 64, 110
12, 109390, Note_on_c, 6, 76, 110
12, 109440, Note_on_c, 6, 76, 0
12, 109440, Note_on_c, 6, 64, 0
12, 109440, Note_on_c, 6, 64, 110
12, 109450, Note_on_c, 6, 76, 110
12, 109560, Note_on_c, 6, 76, 0
12, 109560, Note_on_c, 6, 64, 0
12, 109560, Note_on_c, 6, 64, 110
12, 109570, Note_on_c, 6, 76, 110
12, 109620, Note_on_c, 6, 76, 0
12, 109620, Note_on_c, 6, 64, 0
12, 109620, Note_on_c, 6, 64, 110
12, 109630, Note_on_c, 6, 76, 110
12, 109680, Note_on_c, 6, 76, 0
12, 109680, Note_on_c, 6, 64, 0
12, 109680, Note_on_c, 6, 64, 110
12, 109690, Note_on_c, 6, 76, 110
12, 109740, Note_on_c, 6, 76, 0
12, 109740, Note_on_c, 6, 64, 0
12, 109740, Note_on_c, 6, 64, 110
12, 109750, Note_on_c, 6, 76, 110
12, 109800, Note_on_c, 6, 76, 0
12, 109800, Note_on_c, 6, 64, 0
12, 109800, Note_on_c, 6, 64, 110
12, 109810, Note_on_c, 6, 76, 110
12, 109860, Note_on_c, 6, 76, 0
12, 109860, Note_on_c, 6, 64, 0
12, 109860, Note_on_c, 6, 64, 110
12, 109870, Note_on_c, 6, 76, 110
12, 109920, Note_on_c, 6, 76, 0
12, 109920, Note_on_c, 6, 64, 0
12, 109920, Note_on_c, 6, 69, 110
12, 109930, Note_on_c, 6, 71, 110
12, 109940, Note_on_c, 6, 76, 110
12, 109950, Note_on_c, 6, 81, 110
12, 110040, Note_on_c, 6, 81, 0
12, 110040, Note_on_c, 6, 69, 0
12, 110040, Note_on_c, 6, 71, 0
12, 110040, Note_on_c, 6, 76, 0
12, 110040, Note_on_c, 6, 69, 110
12, 110050, Note_on_c, 6, 71, 110
12, 110060, Note_on_c, 6, 76, 110
12, 110070, Note_on_c, 6, 81, 110
12, 110100, Note_on_c, 6, 81, 0
12, 110100, Note_on_c, 6, 69, 0
12, 110100, Note_on_c, 6, 71, 0
12, 110100, Note_on_c, 6, 76, 0
12, 110100, Note_on_c, 6, 69, 110
12, 110110, Note_on_c, 6, 71, 110
12, 110120, Note_on_c, 6, 76, 110
12, 110130, Note_on_c, 6, 81, 110
12, 110220, Note_on_c, 6, 81, 0
12, 110220, Note_on_c, 6, 69, 0
12, 110220, Note_on_c, 6, 71, 0
12, 110220, Note_on_c, 6, 76, 0
12, 110220, Note_on_c, 6, 69, 110
12, 110230, Note_on_c, 6, 71, 110
12, 110240, Note_on_c, 6, 76, 110
12, 110250, Note_on_c, 6, 81, 110
12, 110280, Note_on_c, 6, 81, 0
12, 110280, Note_on_c, 6, 69, 0
12, 110280, Note_on_c, 6, 71, 0
12, 110280, Note_on_c, 6, 76, 0
12, 110280, Note_on_c, 6, 70, 110
12, 110290, Note_on_c, 6, 82, 110
12, 110340, Note_on_c, 6, 82, 0
12, 110340, Note_on_c, 6, 70, 0
12, 110340, Note_on_c, 6, 70, 110
12, 110350, Note_on_c, 6, 82, 110
12, 110400, Note_on_c, 6, 82, 0
12, 110400, Note_on_c, 6, 70, 0
12, 110400, Note_on_c, 6, 69, 110
12, 110410, Note_on_c, 6, 81, 110
12, 110520, Note_on_c, 6, 81, 0
12, 110520, Note_on_c, 6, 69, 0
12, 110520, Note_on_c, 6, 67, 110
12, 110530, Note_on_c, 6, 79, 110
12, 110580, Note_on_c, 6, 79, 0
12, 110580, Note_on_c, 6, 67, 0
12, 110580, Note_on_c, 6, 67, 110
12, 110590, Note_on_c, 6, 79, 110
12, 110640, Note_on_c, 6, 79, 0
12, 110640, Note_on_c, 6, 67, 0
12, 110640, Note_on_c, 6, 67, 110
12, 110650, Note_on_c, 6, 79, 110
12, 110760, Note_on_c, 6, 79, 0
12, 110760, Note_on_c, 6, 67, 0
12, 110760, Note_on_c, 6, 64, 110
12, 110770, Note_on_c, 6, 76, 110
12, 110820, Note_on_c, 6, 76, 0
12, 110820, Note_on_c, 6, 64, 0
12, 110820, Note_on_c, 6, 64, 110
12, 110830, Note_on_c, 6, 76, 110
12, 110880, Note_on_c, 6, 76, 0
12, 110880, Note_on_c, 6, 64, 0
12, 110880, Note_on_c, 6, 64, 110
12, 110890, Note_on_c, 6, 76, 110
12, 111000, Note_on_c, 6, 76, 0
12, 111000, Note_on_c, 6, 64, 0
12, 111000, Note_on_c, 6, 64, 110
12, 111010, Note_on_c, 6, 76, 110
12, 111060, Note_on_c, 6, 76, 0
12, 111060, Note_on_c, 6, 64, 0
12, 111060, Note_on_c, 6, 64, 110
12, 111070, Note_on_c, 6, 76, 110
12, 111180, Note_on_c, 6, 76, 0
12, 111180, Note_on_c, 6, 64, 0
12, 111180, Note_on_c, 6, 64, 110
12, 111190, Note_on_c, 6, 76, 110
12, 111300, Note_on_c, 6, 76, 0
12, 111300, Note_on_c, 6, 64, 0
12, 111300, Note_on_c, 6, 64, 110
12, 111310, Note_on_c, 6, 76, 110
12, 111360, Note_on_c, 6, 76, 0
12, 111360, Note_on_c, 6, 64, 0
12, 111360, Note_on_c, 6, 64, 110
12, 111370, Note_on_c, 6, 76, 110
12, 111480, Note_on_c, 6, 76, 0
12, 111480, Note_on_c, 6, 64, 0
12, 111480, Note_on_c, 6, 64, 110
12, 111490, Note_on_c, 6, 76, 110
12, 111540, Note_on_c, 6, 76, 0
12, 111540, Note_on_c, 6, 64, 0
12, 111540, Note_on_c, 6, 64, 110
12, 111550, Note_on_c, 6, 76, 110
12, 111600, Note_on_c, 6, 76, 0
12, 111600, Note_on_c, 6, 64, 0
12, 111600, Note_on_c, 6, 64, 110
12, 111610, Note_on_c, 6, 76, 110
12, 111660, Note_on_c, 6, 76, 0
12, 111660, Note_on_c, 6, 64, 0
12, 111660, Note_on_c, 6, 64, 110
12, 111670, Note_on_c, 6, 76, 110
12, 111720, Note_on_c, 6, 76, 0
12, 111720, Note_on_c, 6, 64, 0
12, 111720, Note_on_c, 6, 64, 110
12, 111730, Note_on_c, 6, 76, 110
12, 111780, Note_on_c, 6, 76, 0
12, 111780, Note_on_c, 6, 64, 0
12, 111780, Note_on_c, 6, 64, 110
12, 111790, Note_on_c, 6, 76, 110
12, 111840, Note_on_c, 6, 76, 0
12, 111840, Note_on_c, 6, 64, 0
12, 111840, Note_on_c, 6, 69, 110
12, 111850, Note_on_c, 6, 71, 110
12, 111860, Note_on_c, 6, 76, 110
12, 111870, Note_on_c, 6, 81, 110
12, 111960, Note_on_c, 6, 81, 0
12, 111960, Note_on_c, 6, 69, 0
12, 111960, Note_on_c, 6, 71, 0
12, 111960, Note_on_c, 6, 76, 0
12, 111960, Note_on_c, 6, 69, 110
12, 111970, Note_on_c, 6, 71, 110
12, 111980, Note_on_c, 6, 76, 110
12, 111990, Note_on_c, 6, 81, 110
12, 112020, Note_on_c, 6, 81, 0
12, 112020, Note_on_c, 6, 69, 0
12, 112020, Note_on_c, 6, 71, 0
12, 112020, Note_on_c, 6, 76, 0
12, 112020, Note_on_c, 6, 69, 110
12, 112030, Note_on_c, 6, 71, 110
12, 112040, Note_on_c, 6, 76, 110
12, 112050, Note_on_c, 6, 81, 110
12, 112140, Note_on_c, 6, 81, 0
12, 112140, Note_on_c, 6, 69, 0
12, 112140, Note_on_c, 6, 71, 0
12, 112140, Note_on_c, 6, 76, 0
12, 112140, Note_on_c, 6, 69, 110
12, 112150, Note_on_c, 6, 71, 110
12, 112160, Note_on_c, 6, 76, 110
12, 112170, Note_on_c, 6, 81, 110
12, 112200, Note_on_c, 6, 81, 0
12, 112200, Note_on_c, 6, 69, 0
12, 112200, Note_on_c, 6, 71, 0
12, 112200, Note_on_c, 6, 76, 0
12, 112200, Note_on_c, 6, 70, 110
12, 112210, Note_on_c, 6, 82, 110
12, 112260, Note_on_c, 6, 82, 0
12, 112260, Note_on_c, 6, 70, 0
12, 112260, Note_on_c, 6, 70, 110
12, 112270, Note_on_c, 6, 82, 110
12, 112320, Note_on_c, 6, 82, 0
12, 112320, Note_on_c, 6, 70, 0
12, 112320, Note_on_c, 6, 69, 110
12, 112330, Note_on_c, 6, 81, 110
12, 112440, Note_on_c, 6, 81, 0
12, 112440, Note_on_c, 6, 69, 0
12, 112440, Note_on_c, 6, 67, 110
12, 112450, Note_on_c, 6, 79, 110
12, 112500, Note_on_c, 6, 79, 0
12, 112500, Note_on_c, 6, 67, 0
12, 112500, Note_on_c, 6, 67, 110
12, 112510, Note_on_c, 6, 79, 110
12, 112560, Note_on_c, 6, 79, 0
12, 112560, Note_on_c, 6, 67, 0
12, 112560, Note_on_c, 6, 67, 110
12, 112570, Note_on_c, 6, 79, 110
12, 112680, Note_on_c, 6, 79, 0
12, 112680, Note_on_c, 6, 67, 0
12, 112680, Note_on_c, 6, 64, 110
12, 112690, Note_on_c, 6, 76, 110
12, 112740, Note_on_c, 6, 76, 0
12, 112740, Note_on_c, 6, 64, 0
12, 112740, Note_on_c, 6, 64, 110
12, 112750, Note_on_c, 6, 76, 110
12, 112800, Note_on_c, 6, 76, 0
12, 112800, Note_on_c, 6, 64, 0
12, 112800, Note_on_c, 6, 64, 110
12, 112810, Note_on_c, 6, 76, 110
12, 112920, Note_on_c, 6, 76, 0
12, 112920, Note_on_c, 6, 64, 0
12, 112920, Note_on_c, 6, 64, 110
12, 112930, Note_on_c, 6, 76, 110
12, 112980, Note_on_c, 6, 76, 0
12, 112980, Note_on_c, 6, 64, 0
12, 112980, Note_on_c, 6, 64, 110
12, 112990, Note_on_c, 6, 76, 110
12, 113100, Note_on_c, 6, 76, 0
12, 113100, Note_on_c, 6, 64, 0
12, 113100, Note_on_c, 6, 64, 110
12, 113110, Note_on_c, 6, 76, 110
12, 113220, Note_on_c, 6, 76, 0
12, 113220, Note_on_c, 6, 64, 0
12, 113220, Note_on_c, 6, 64, 110
12, 113230, Note_on_c, 6, 76, 110
12, 113280, Note_on_c, 6, 76, 0
12, 113280, Note_on_c, 6, 64, 0
12, 113280, Note_on_c, 6, 64, 110
12, 113290, Note_on_c, 6, 76, 110
12, 113400, Note_on_c, 6, 76, 0
12, 113400, Note_on_c, 6, 64, 0
12, 113400, Note_on_c, 6, 64, 110
12, 113410, Note_on_c, 6, 76, 110
12, 113460, Note_on_c, 6, 76, 0
12, 113460, Note_on_c, 6, 64, 0
12, 113460, Note_on_c, 6, 64, 110
12, 113470, Note_on_c, 6, 76, 110
12, 113520, Note_on_c, 6, 76, 0
12, 113520, Note_on_c, 6, 64, 0
12, 113520, Note_on_c, 6, 64, 110
12, 113530, Note_on_c, 6, 76, 110
12, 113580, Note_on_c, 6, 76, 0
12, 113580, Note_on_c, 6, 64, 0
12, 113580, Note_on_c, 6, 64, 110
12, 113590, Note_on_c, 6, 76, 110
12, 113640, Note_on_c, 6, 76, 0
12, 113640, Note_on_c, 6, 64, 0
12, 113640, Note_on_c, 6, 64, 110
12, 113650, Note_on_c, 6, 76, 110
12, 113700, Note_on_c, 6, 76, 0
12, 113700, Note_on_c, 6, 64, 0
12, 113700, Note_on_c, 6, 64, 110
12, 113710, Note_on_c, 6, 76, 110
12, 113760, Note_on_c, 6, 76, 0
12, 113760, Note_on_c, 6, 64, 0
12, 151440, Note_on_c, 6, 69, 110
12, 151450, Note_on_c, 6, 71, 110
12, 151460, Note_on_c, 6, 76, 110
12, 151470, Note_on_c, 6, 81, 110
12, 151560, Note_on_c, 6, 81, 0
12, 151560, Note_on_c, 6, 69, 0
12, 151560, Note_on_c, 6, 71, 0
12, 151560, Note_on_c, 6, 76, 0
12, 151560, Note_on_c, 6, 69, 110
12, 151570, Note_on_c, 6, 71, 110
12, 151580, Note_on_c, 6, 76, 110
12, 151590, Note_on_c, 6, 81, 110
12, 151620, Note_on_c, 6, 81, 0
12, 151620, Note_on_c, 6, 69, 0
12, 151620, Note_on_c, 6, 71, 0
12, 151620, Note_on_c, 6, 76, 0
12, 151620, Note_on_c, 6, 69, 110
12, 151630, Note_on_c, 6, 71, 110
12, 151640, Note_on_c, 6, 76, 110
12, 151650, Note_on_c, 6, 81, 110
12, 151740, Note_on_c, 6, 81, 0
12, 151740, Note_on_c, 6, 69, 0
12, 151740, Note_on_c, 6, 71, 0
12, 151740, Note_on_c, 6, 76, 0
12, 151740, Note_on_c, 6, 69, 110
12, 151750, Note_on_c, 6, 71, 110
12, 151760, Note_on_c, 6, 76, 110
12, 151770, Note_on_c, 6, 81, 110
12, 151800, Note_on_c, 6, 81, 0
12, 151800, Note_on_c, 6, 69, 0
12, 151800, Note_on_c, 6, 71, 0
12, 151800, Note_on_c, 6, 76, 0
12, 151800, Note_on_c, 6, 70, 110
12, 151810, Note_on_c, 6, 82, 110
12, 151860, Note_on_c, 6, 82, 0
12, 151860, Note_on_c, 6, 70, 0
12, 151860, Note_on_c, 6, 70, 110
12, 151870, Note_on_c, 6, 82, 110
12, 151920, Note_on_c, 6, 82, 0
12, 151920, Note_on_c, 6, 70, 0
12, 151920, Note_on_c, 6, 69, 110
12, 151930, Note_on_c, 6, 81, 110
12, 152040, Note_on_c, 6, 81, 0
12, 152040, Note_on_c, 6, 69, 0
12, 152040, Note_on_c, 6, 67, 110
12, 152050, Note_on_c, 6, 79, 110
12, 152100, Note_on_c, 6, 79, 0
12, 152100, Note_on_c, 6, 67, 0
12, 152100, Note_on_c, 6, 67, 110
12, 152110, Note_on_c, 6, 79, 110
12, 152160, Note_on_c, 6, 79, 0
12, 152160, Note_on_c, 6, 67, 0
12, 152160, Note_on_c, 6, 67, 110
12, 152170, Note_on_c, 6, 79, 110
12, 152280, Note_on_c, 6, 79, 0
12, 152280, Note_on_c, 6, 67, 0
12, 152280, Note_on_c, 6, 64, 110
12, 152290, Note_on_c, 6, 76, 110
12, 152340, Note_on_c, 6, 76, 0
12, 152340, Note_on_c, 6, 64, 0
12, 152340, Note_on_c, 6, 64, 110
12, 152350, Note_on_c, 6, 76, 110
12, 152400, Note_on_c, 6, 76, 0
12, 152400, Note_on_c, 6, 64, 0
12, 152400, Note_on_c, 6, 64, 110
12, 152410, Note_on_c, 6, 76, 110
12, 152520, Note_on_c, 6, 76, 0
12, 152520, Note_on_c, 6, 64, 0
12, 152520, Note_on_c, 6, 64, 110
12, 152530, Note_on_c, 6, 76, 110
12, 152580, Note_on_c, 6, 76, 0
12, 152580, Note_on_c, 6, 64, 0
12, 152580, Note_on_c, 6, 64, 110
12, 152590, Note_on_c, 6, 76, 110
12, 152700, Note_on_c, 6, 76, 0
12, 152700, Note_on_c, 6, 64, 0
12, 152700, Note_on_c, 6, 64, 110
12, 152710, Note_on_c, 6, 76, 110
12, 152820, Note_on_c, 6, 76, 0
12, 152820, Note_on_c, 6, 64, 0
12, 152820, Note_on_c, 6, 64, 110
12, 152830, Note_on_c, 6, 76, 110
12, 152880, Note_on_c, 6, 76, 0
12, 152880, Note_on_c, 6, 64, 0
12, 152880, Note_on_c, 6, 64, 110
12, 152890, Note_on_c, 6, 76, 110
12, 153000, Note_on_c, 6, 76, 0
12, 153000, Note_on_c, 6, 64, 0
12, 153000, Note_on_c, 6, 64, 110
12, 153010, Note_on_c, 6, 76, 110
12, 153060, Note_on_c, 6, 76, 0
12, 153060, Note_on_c, 6, 64, 0
12, 153060, Note_on_c, 6, 64, 110
12, 153070, Note_on_c, 6, 76, 110
12, 153120, Note_on_c, 6, 76, 0
12, 153120, Note_on_c, 6, 64, 0
12, 153120, Note_on_c, 6, 64, 110
12, 153130, Note_on_c, 6, 76, 110
12, 153180, Note_on_c, 6, 76, 0
12, 153180, Note_on_c, 6, 64, 0
12, 153180, Note_on_c, 6, 64, 110
12, 153190, Note_on_c, 6, 76, 110
12, 153240, Note_on_c, 6, 76, 0
12, 153240, Note_on_c, 6, 64, 0
12, 153240, Note_on_c, 6, 64, 110
12, 153250, Note_on_c, 6, 76, 110
12, 153300, Note_on_c, 6, 76, 0
12, 153300, Note_on_c, 6, 64, 0
12, 153300, Note_on_c, 6, 64, 110
12, 153310, Note_on_c, 6, 76, 110
12, 153360, Note_on_c, 6, 76, 0
12, 153360, Note_on_c, 6, 64, 0
12, 153360, Note_on_c, 6, 69, 110
12, 153370, Note_on_c, 6, 71, 110
12, 153380, Note_on_c, 6, 76, 110
12, 153390, Note_on_c, 6, 81, 110
12, 153480, Note_on_c, 6, 81, 0
12, 153480, Note_on_c, 6, 69, 0
12, 153480, Note_on_c, 6, 71, 0
12, 153480, Note_on_c, 6, 76, 0
12, 153480, Note_on_c, 6, 69, 110
12, 153490, Note_on_c, 6, 71, 110
12, 153500, Note_on_c, 6, 76, 110
12, 153510, Note_on_c, 6, 81, 110
12, 153540, Note_on_c, 6, 81, 0
12, 153540, Note_on_c, 6, 69, 0
12, 153540, Note_on_c, 6, 71, 0
12, 153540, Note_on_c, 6, 76, 0
12, 153540, Note_on_c, 6, 69, 110
12, 153550, Note_on_c, 6, 71, 110
12, 153560, Note_on_c, 6, 76, 110
12, 153570, Note_on_c, 6, 81, 110
12, 153660, Note_on_c, 6, 81, 0
12, 153660, Note_on_c, 6, 69, 0
12, 153660, Note_on_c, 6, 71, 0
12, 153660, Note_on_c, 6, 76, 0
12, 153660, Note_on_c, 6, 69, 110
12, 153670, Note_on_c, 6, 71, 110
12, 153680, Note_on_c, 6, 76, 110
12, 153690, Note_on_c, 6, 81, 110
12, 153720, Note_on_c, 6, 81, 0
12, 153720, Note_on_c, 6, 69, 0
12, 153720, Note_on_c, 6, 71, 0
12, 153720, Note_on_c, 6, 76, 0
12, 153720, Note_on_c, 6, 70, 110
12, 153730, Note_on_c, 6, 82, 110
12, 153780, Note_on_c, 6, 82, 0
12, 153780, Note_on_c, 6, 70, 0
12, 153780, Note_on_c, 6, 70, 110
12, 153790, Note_on_c, 6, 82, 110
12, 153840, Note_on_c, 6, 82, 0
12, 153840, Note_on_c, 6, 70, 0
12, 153840, Note_on_c, 6, 69, 110
12, 153850, Note_on_c, 6, 81, 110
12, 153960, Note_on_c, 6, 81, 0
12, 153960, Note_on_c, 6, 69, 0
12, 153960, Note_on_c, 6, 67, 110
12, 153970, Note_on_c, 6, 79, 110
12, 154020, Note_on_c, 6, 79, 0
12, 154020, Note_on_c, 6, 67, 0
12, 154020, Note_on_c, 6, 67, 110
12, 154030, Note_on_c, 6, 79, 110
12, 154080, Note_on_c, 6, 79, 0
12, 154080, Note_on_c, 6, 67, 0
12, 154080, Note_on_c, 6, 67, 110
12, 154090, Note_on_c, 6, 79, 110
12, 154200, Note_on_c, 6, 79, 0
12, 154200, Note_on_c, 6, 67, 0
12, 154200, Note_on_c, 6, 64, 110
12, 154210, Note_on_c, 6, 76, 110
12, 154260, Note_on_c, 6, 76, 0
12, 154260, Note_on_c, 6, 64, 0
12, 154260, Note_on_c, 6, 64, 110
12, 154270, Note_on_c, 6, 76, 110
12, 154320, Note_on_c, 6, 76, 0
12, 154320, Note_on_c, 6, 64, 0
12, 154320, Note_on_c, 6, 64, 110
12, 154330, Note_on_c, 6, 76, 110
12, 154440, Note_on_c, 6, 76, 0
12, 154440, Note_on_c, 6, 64, 0
12, 154440, Note_on_c, 6, 64, 110
12, 154450, Note_on_c, 6, 76, 110
12, 154500, Note_on_c, 6, 76, 0
12, 154500, Note_on_c, 6, 64, 0
12, 154500, Note_on_c, 6, 64, 110
12, 154510, Note_on_c, 6, 76, 110
12, 154620, Note_on_c, 6, 76, 0
12, 154620, Note_on_c, 6, 64, 0
12, 154620, Note_on_c, 6, 64, 110
12, 154630, Note_on_c, 6, 76, 110
12, 154740, Note_on_c, 6, 76, 0
12, 154740, Note_on_c, 6, 64, 0
12, 154740, Note_on_c, 6, 64, 110
12, 154750, Note_on_c, 6, 76, 110
12, 154800, Note_on_c, 6, 76, 0
12, 154800, Note_on_c, 6, 64, 0
12, 154800, Note_on_c, 6, 64, 110
12, 154810, Note_on_c, 6, 76, 110
12, 154920, Note_on_c, 6, 76, 0
12, 154920, Note_on_c, 6, 64, 0
12, 154920, Note_on_c, 6, 64, 110
12, 154930, Note_on_c, 6, 76, 110
12, 154980, Note_on_c, 6, 76, 0
12, 154980, Note_on_c, 6, 64, 0
12, 154980, Note_on_c, 6, 64, 110
12, 154990, Note_on_c, 6, 76, 110
12, 155040, Note_on_c, 6, 76, 0
12, 155040, Note_on_c, 6, 64, 0
12, 155040, Note_on_c, 6, 64, 110
12, 155050, Note_on_c, 6, 76, 110
12, 155100, Note_on_c, 6, 76, 0
12, 155100, Note_on_c, 6, 64, 0
12, 155100, Note_on_c, 6, 64, 110
12, 155110, Note_on_c, 6, 76, 110
12, 155160, Note_on_c, 6, 76, 0
12, 155160, Note_on_c, 6, 64, 0
12, 155160, Note_on_c, 6, 64, 110
12, 155170, Note_on_c, 6, 76, 110
12, 155220, Note_on_c, 6, 76, 0
12, 155220, Note_on_c, 6, 64, 0
12, 155220, Note_on_c, 6, 64, 110
12, 155230, Note_on_c, 6, 76, 110
12, 155280, Note_on_c, 6, 76, 0
12, 155280, Note_on_c, 6, 64, 0
12, 155280, Note_on_c, 6, 69, 110
12, 155290, Note_on_c, 6, 71, 110
12, 155300, Note_on_c, 6, 76, 110
12, 155310, Note_on_c, 6, 81, 110
12, 155400, Note_on_c, 6, 81, 0
12, 155400, Note_on_c, 6, 69, 0
12, 155400, Note_on_c, 6, 71, 0
12, 155400, Note_on_c, 6, 76, 0
12, 155400, Note_on_c, 6, 69, 110
12, 155410, Note_on_c, 6, 71, 110
12, 155420, Note_on_c, 6, 76, 110
12, 155430, Note_on_c, 6, 81, 110
12, 155460, Note_on_c, 6, 81, 0
12, 155460, Note_on_c, 6, 69, 0
12, 155460, Note_on_c, 6, 71, 0
12, 155460, Note_on_c, 6, 76, 0
12, 155460, Note_on_c, 6, 69, 110
12, 155470, Note_on_c, 6, 71, 110
12, 155480, Note_on_c, 6, 76, 110
12, 155490, Note_on_c, 6, 81, 110
12, 155580, Note_on_c, 6, 81, 0
12, 155580, Note_on_c, 6, 69, 0
12, 155580, Note_on_c, 6, 71, 0
12, 155580, Note_on_c, 6, 76, 0
12, 155580, Note_on_c, 6, 69, 110
12, 155590, Note_on_c, 6, 71, 110
12, 155600, Note_on_c, 6, 76, 110
12, 155610, Note_on_c, 6, 81, 110
12, 155640, Note_on_c, 6, 81, 0
12, 155640, Note_on_c, 6, 69, 0
12, 155640, Note_on_c, 6, 71, 0
12, 155640, Note_on_c, 6, 76, 0
12, 155640, Note_on_c, 6, 70, 110
12, 155650, Note_on_c, 6, 82, 110
12, 155700, Note_on_c, 6, 82, 0
12, 155700, Note_on_c, 6, 70, 0
12, 155700, Note_on_c, 6, 70, 110
12, 155710, Note_on_c, 6, 82, 110
12, 155760, Note_on_c, 6, 82, 0
12, 155760, Note_on_c, 6, 70, 0
12, 155760, Note_on_c, 6, 69, 110
12, 155770, Note_on_c, 6, 81, 110
12, 155880, Note_on_c, 6, 81, 0
12, 155880, Note_on_c, 6, 69, 0
12, 155880, Note_on_c, 6, 67, 110
12, 155890, Note_on_c, 6, 79, 110
12, 155940, Note_on_c, 6, 79, 0
12, 155940, Note_on_c, 6, 67, 0
12, 155940, Note_on_c, 6, 67, 110
12, 155950, Note_on_c, 6, 79, 110
12, 156000, Note_on_c, 6, 79, 0
12, 156000, Note_on_c, 6, 67, 0
12, 156000, Note_on_c, 6, 67, 110
12, 156010, Note_on_c, 6, 79, 110
12, 156120, Note_on_c, 6, 79, 0
12, 156120, Note_on_c, 6, 67, 0
12, 156120, Note_on_c, 6, 64, 110
12, 156130, Note_on_c, 6, 76, 110
12, 156180, Note_on_c, 6, 76, 0
12, 156180, Note_on_c, 6, 64, 0
12, 156180, Note_on_c, 6, 64, 110
12, 156190, Note_on_c, 6, 76, 110
12, 156240, Note_on_c, 6, 76, 0
12, 156240, Note_on_c, 6, 64, 0
12, 156240, Note_on_c, 6, 64, 110
12, 156250, Note_on_c, 6, 76, 110
12, 156360, Note_on_c, 6, 76, 0
12, 156360, Note_on_c, 6, 64, 0
12, 156360, Note_on_c, 6, 64, 110
12, 156370, Note_on_c, 6, 76, 110
12, 156420, Note_on_c, 6, 76, 0
12, 156420, Note_on_c, 6, 64, 0
12, 156420, Note_on_c, 6, 64, 110
12, 156430, Note_on_c, 6, 76, 110
12, 156540, Note_on_c, 6, 76, 0
12, 156540, Note_on_c, 6, 64, 0
12, 156540, Note_on_c, 6, 64, 110
12, 156550, Note_on_c, 6, 76, 110
12, 156660, Note_on_c, 6, 76, 0
12, 156660, Note_on_c, 6, 64, 0
12, 156660, Note_on_c, 6, 64, 110
12, 156670, Note_on_c, 6, 76, 110
12, 156720, Note_on_c, 6, 76, 0
12, 156720, Note_on_c, 6, 64, 0
12, 156720, Note_on_c, 6, 64, 110
12, 156730, Note_on_c, 6, 76, 110
12, 156840, Note_on_c, 6, 76, 0
12, 156840, Note_on_c, 6, 64, 0
12, 156840, Note_on_c, 6, 64, 110
12, 156850, Note_on_c, 6, 76, 110
12, 156900, Note_on_c, 6, 76, 0
12, 156900, Note_on_c, 6, 64, 0
12, 156900, Note_on_c, 6, 64, 110
12, 156910, Note_on_c, 6, 76, 110
12, 156960, Note_on_c, 6, 76, 0
12, 156960, Note_on_c, 6, 64, 0
12, 156960, Note_on_c, 6, 64, 110
12, 156970, Note_on_c, 6, 76, 110
12, 157020, Note_on_c, 6, 76, 0
12, 157020, Note_on_c, 6, 64, 0
12, 157020, Note_on_c, 6, 64, 110
12, 157030, Note_on_c, 6, 76, 110
12, 157080, Note_on_c, 6, 76, 0
12, 157080, Note_on_c, 6, 64, 0
12, 157080, Note_on_c, 6, 64, 110
12, 157090, Note_on_c, 6, 76, 110
12, 157140, Note_on_c, 6, 76, 0
12, 157140, Note_on_c, 6, 64, 0
12, 157140, Note_on_c, 6, 64, 110
12, 157150, Note_on_c, 6, 76, 110
12, 157200, Note_on_c, 6, 76, 0
12, 157200, Note_on_c, 6, 64, 0
12, 157200, Note_on_c, 6, 69, 110
12, 157210, Note_on_c, 6, 71, 110
12, 157220, Note_on_c, 6, 76, 110
12, 157230, Note_on_c, 6, 81, 110
12, 157320, Note_on_c, 6, 81, 0
12, 157320, Note_on_c, 6, 69, 0
12, 157320, Note_on_c, 6, 71, 0
12, 157320, Note_on_c, 6, 76, 0
12, 157320, Note_on_c, 6, 69, 110
12, 157330, Note_on_c, 6, 71, 110
12, 157340, Note_on_c, 6, 76, 110
12, 157350, Note_on_c, 6, 81, 110
12, 157380, Note_on_c, 6, 81, 0
12, 157380, Note_on_c, 6, 69, 0
12, 157380, Note_on_c, 6, 71, 0
12, 157380, Note_on_c, 6, 76, 0
12, 157380, Note_on_c, 6, 69, 110
12, 157390, Note_on_c, 6, 71, 110
12, 157400, Note_on_c, 6, 76, 110
12, 157410, Note_on_c, 6, 81, 110
12, 157500, Note_on_c, 6, 81, 0
12, 157500, Note_on_c, 6, 69, 0
12, 157500, Note_on_c, 6, 71, 0
12, 157500, Note_on_c, 6, 76, 0
12, 157500, Note_on_c, 6, 69, 110
12, 157510, Note_on_c, 6, 71, 110
12, 157520, Note_on_c, 6, 76, 110
12, 157530, Note_on_c, 6, 81, 110
12, 157560, Note_on_c, 6, 81, 0
12, 157560, Note_on_c, 6, 69, 0
12, 157560, Note_on_c, 6, 71, 0
12, 157560, Note_on_c, 6, 76, 0
12, 157560, Note_on_c, 6, 70, 110
12, 157570, Note_on_c, 6, 82, 110
12, 157620, Note_on_c, 6, 82, 0
12, 157620, Note_on_c, 6, 70, 0
12, 157620, Note_on_c, 6, 70, 110
12, 157630, Note_on_c, 6, 82, 110
12, 157680, Note_on_c, 6, 82, 0
12, 157680, Note_on_c, 6, 70, 0
12, 157680, Note_on_c, 6, 69, 110
12, 157690, Note_on_c, 6, 81, 110
12, 157800, Note_on_c, 6, 81, 0
12, 157800, Note_on_c, 6, 69, 0
12, 157800, Note_on_c, 6, 67, 110
12, 157810, Note_on_c, 6, 79, 110
12, 157860, Note_on_c, 6, 79, 0
12, 157860, Note_on_c, 6, 67, 0
12, 157860, Note_on_c, 6, 67, 110
12, 157870, Note_on_c, 6, 79, 110
12, 157920, Note_on_c, 6, 79, 0
12, 157920, Note_on_c, 6, 67, 0
12, 157920, Note_on_c, 6, 67, 110
12, 157930, Note_on_c, 6, 79, 110
12, 158040, Note_on_c, 6, 79, 0
12, 158040, Note_on_c, 6, 67, 0
12, 158040, Note_on_c, 6, 64, 110
12, 158050, Note_on_c, 6, 76, 110
12, 158100, Note_on_c, 6, 76, 0
12, 158100, Note_on_c, 6, 64, 0
12, 158100, Note_on_c, 6, 64, 110
12, 158110, Note_on_c, 6, 76, 110
12, 158160, Note_on_c, 6, 76, 0
12, 158160, Note_on_c, 6, 64, 0
12, 158160, Note_on_c, 6, 64, 110
12, 158170, Note_on_c, 6, 76, 110
12, 158280, Note_on_c, 6, 76, 0
12, 158280, Note_on_c, 6, 64, 0
12, 158280, End_track
13, 0, Start_track
13, 0, MIDI_port, 0
13, 0, Title_t, "-------------------------------"
13, 0, End_track
14, 0, Start_track
14, 0, MIDI_port, 0
14, 0, Title_t, """One Little Victory"""
14, 0, End_track
15, 0, Start_track
15, 0, MIDI_port, 0
15, 0, Title_t, "by Rush"
15, 0, End_track
16, 0, Start_track
16, 0, MIDI_port, 0
16, 0, Title_t, "------------------------------"
16, 0, End_track
17, 0, Start_track
17, 0, MIDI_port, 0
17, 0, Title_t, "Sequenced by:"
17, 0, End_track
18, 0, Start_track
18, 0, MIDI_port, 0
18, 0, Title_t, "Dean Falcione"
18, 0, End_track
19, 0, Start_track
19, 0, MIDI_port, 0
19, 0, Title_t, "November, 2002"
19, 0, End_track
20, 0, Start_track
20, 0, MIDI_port, 0
20, 0, Title_t, "------------------------------"
20, 0, End_track
21, 0, Start_track
21, 0, MIDI_port, 0
21, 0, Title_t, "Be sure to visit"
21, 0, End_track
22, 0, Start_track
22, 0, MIDI_port, 0
22, 0, Title_t, "MIDI-Town Dreams"
22, 0, End_track
23, 0, Start_track
23, 0, MIDI_port, 0
23, 0, Title_t, "(dtfb.org/rush)"
23, 0, End_track
0, 0, End_of_file
