0, 0, Header, 1, 7, 192
1, 0, Start_track
1, 0, Tempo, 390000
1, 0, Time_signature, 4, 2, 24, 8
1, 0, Key_signature, 0, "major"
1, 3072, Tempo, 390000
1, 4608, Tempo, 387096
1, 6144, Tempo, 377358
1, 9168, Tempo, 390000
1, 12192, Tempo, 390000
1, 15264, Tempo, 390000
1, 18336, Tempo, 390000
1, 21360, Tempo, 389610
1, 30528, Tempo, 390000
1, 33552, Tempo, 390000
1, 36576, Tempo, 390000
1, 39600, Tempo, 390000
1, 42624, Tempo, 390000
1, 45648, Tempo, 390000
1, 48672, Tempo, 390000
1, 51696, Tempo, 390000
1, 54720, Tempo, 390000
1, 57744, Tempo, 390000
1, 60768, Tempo, 390000
1, 63792, Tempo, 390000
1, 66816, Tempo, 390000
1, 69840, Tempo, 390000
1, 72912, Tempo, 390000
1, 75984, Tempo, 390000
1, 79008, Tempo, 390000
1, 79008, End_track
2, 0, Start_track
2, 0, Title_t, "Pariniod      "
2, 0, End_track
3, 0, Start_track
3, 0, Channel_prefix, 1
3, 0, Control_c, 1, 7, 127
3, 0, Control_c, 1, 10, 127
3, 0, Program_c, 1, 37
3, 576, Control_c, 1, 7, 127
3, 576, Program_c, 1, 30
3, 576, Note_on_c, 1, 40, 100
3, 576, Note_on_c, 1, 47, 100
3, 2112, Note_off_c, 1, 47, 0
3, 2112, Note_off_c, 1, 40, 0
3, 2112, Note_on_c, 1, 40, 100
3, 2112, Note_on_c, 1, 47, 100
3, 3072, Note_off_c, 1, 47, 0
3, 3072, Note_off_c, 1, 40, 0
3, 3072, Program_c, 1, 36
3, 3072, Note_on_c, 1, 40, 100
3, 3360, Note_off_c, 1, 40, 0
3, 3360, Note_on_c, 1, 40, 100
3, 3648, Note_off_c, 1, 40, 0
3, 3648, Note_on_c, 1, 40, 100
3, 3840, Note_off_c, 1, 40, 0
3, 3840, Note_on_c, 1, 45, 100
3, 3936, Note_off_c, 1, 45, 0
3, 3936, Note_on_c, 1, 47, 100
3, 4032, Note_off_c, 1, 47, 0
3, 4032, Note_on_c, 1, 50, 100
3, 4128, Note_off_c, 1, 50, 0
3, 4128, Note_on_c, 1, 52, 100
3, 4224, Note_off_c, 1, 52, 0
3, 4224, Note_on_c, 1, 45, 100
3, 4320, Note_off_c, 1, 45, 0
3, 4320, Note_on_c, 1, 47, 100
3, 4416, Note_off_c, 1, 47, 0
3, 4416, Note_on_c, 1, 50, 100
3, 4512, Note_off_c, 1, 50, 0
3, 4512, Note_on_c, 1, 52, 100
3, 4608, Note_off_c, 1, 52, 0
3, 4608, Note_on_c, 1, 40, 100
3, 4896, Note_off_c, 1, 40, 0
3, 4896, Note_on_c, 1, 40, 100
3, 5184, Note_off_c, 1, 40, 0
3, 5184, Note_on_c, 1, 40, 100
3, 5376, Note_off_c, 1, 40, 0
3, 5376, Note_on_c, 1, 45, 100
3, 5472, Note_off_c, 1, 45, 0
3, 5472, Note_on_c, 1, 47, 100
3, 5568, Note_off_c, 1, 47, 0
3, 5568, Note_on_c, 1, 50, 100
3, 5664, Note_off_c, 1, 50, 0
3, 5664, Note_on_c, 1, 52, 100
3, 5760, Note_off_c, 1, 52, 0
3, 5760, Note_on_c, 1, 45, 100
3, 5856, Note_off_c, 1, 45, 0
3, 5856, Note_on_c, 1, 47, 100
3, 5952, Note_off_c, 1, 47, 0
3, 5952, Note_on_c, 1, 50, 100
3, 6048, Note_off_c, 1, 50, 0
3, 6048, Note_on_c, 1, 52, 100
3, 6144, Note_off_c, 1, 52, 0
3, 6144, Note_on_c, 1, 40, 100
3, 6240, Note_off_c, 1, 40, 0
3, 6240, Note_on_c, 1, 40, 100
3, 6336, Note_off_c, 1, 40, 0
3, 6336, Note_on_c, 1, 40, 100
3, 6432, Note_off_c, 1, 40, 0
3, 6432, Note_on_c, 1, 40, 100
3, 6528, Note_off_c, 1, 40, 0
3, 6528, Note_on_c, 1, 40, 100
3, 6624, Note_off_c, 1, 40, 0
3, 6624, Note_on_c, 1, 40, 100
3, 6720, Note_off_c, 1, 40, 0
3, 6720, Note_on_c, 1, 40, 100
3, 6816, Note_off_c, 1, 40, 0
3, 6816, Note_on_c, 1, 40, 100
3, 6912, Note_off_c, 1, 40, 0
3, 6912, Note_on_c, 1, 40, 100
3, 7008, Note_off_c, 1, 40, 0
3, 7008, Note_on_c, 1, 40, 100
3, 7104, Note_off_c, 1, 40, 0
3, 7104, Note_on_c, 1, 40, 100
3, 7200, Note_off_c, 1, 40, 0
3, 7200, Note_on_c, 1, 40, 100
3, 7296, Note_off_c, 1, 40, 0
3, 7296, Note_on_c, 1, 45, 100
3, 7392, Note_off_c, 1, 45, 0
3, 7392, Note_on_c, 1, 47, 100
3, 7488, Note_off_c, 1, 47, 0
3, 7488, Note_on_c, 1, 38, 100
3, 7584, Note_off_c, 1, 38, 0
3, 7584, Note_on_c, 1, 52, 100
3, 7680, Note_off_c, 1, 52, 0
3, 7680, Note_on_c, 1, 50, 100
3, 7776, Note_off_c, 1, 50, 0
3, 7776, Note_on_c, 1, 50, 100
3, 7872, Note_off_c, 1, 50, 0
3, 7872, Note_on_c, 1, 50, 100
3, 7968, Note_off_c, 1, 50, 0
3, 7968, Note_on_c, 1, 50, 100
3, 8064, Note_off_c, 1, 50, 0
3, 8064, Note_on_c, 1, 50, 100
3, 8160, Note_off_c, 1, 50, 0
3, 8160, Note_on_c, 1, 50, 100
3, 8256, Note_off_c, 1, 50, 0
3, 8256, Note_on_c, 1, 50, 100
3, 8352, Note_off_c, 1, 50, 0
3, 8352, Note_on_c, 1, 50, 100
3, 8448, Note_off_c, 1, 50, 0
3, 8448, Note_on_c, 1, 55, 100
3, 8544, Note_off_c, 1, 55, 0
3, 8544, Note_on_c, 1, 50, 100
3, 8784, Note_off_c, 1, 50, 0
3, 8784, Note_on_c, 1, 52, 100
3, 8976, Note_off_c, 1, 52, 0
3, 8976, Note_on_c, 1, 55, 100
3, 9168, Note_off_c, 1, 55, 0
3, 9168, Note_on_c, 1, 40, 100
3, 9264, Note_off_c, 1, 40, 0
3, 9264, Note_on_c, 1, 40, 100
3, 9360, Note_off_c, 1, 40, 0
3, 9360, Note_on_c, 1, 40, 100
3, 9456, Note_off_c, 1, 40, 0
3, 9456, Note_on_c, 1, 40, 100
3, 9552, Note_off_c, 1, 40, 0
3, 9552, Note_on_c, 1, 40, 100
3, 9648, Note_off_c, 1, 40, 0
3, 9648, Note_on_c, 1, 40, 100
3, 9744, Note_off_c, 1, 40, 0
3, 9744, Note_on_c, 1, 40, 100
3, 9840, Note_off_c, 1, 40, 0
3, 9840, Note_on_c, 1, 40, 100
3, 9936, Note_off_c, 1, 40, 0
3, 9936, Note_on_c, 1, 40, 100
3, 10032, Note_off_c, 1, 40, 0
3, 10032, Note_on_c, 1, 40, 100
3, 10128, Note_off_c, 1, 40, 0
3, 10128, Note_on_c, 1, 40, 100
3, 10224, Note_off_c, 1, 40, 0
3, 10224, Note_on_c, 1, 40, 100
3, 10320, Note_off_c, 1, 40, 0
3, 10320, Note_on_c, 1, 45, 100
3, 10416, Note_off_c, 1, 45, 0
3, 10416, Note_on_c, 1, 47, 100
3, 10512, Note_off_c, 1, 47, 0
3, 10512, Note_on_c, 1, 38, 100
3, 10608, Note_off_c, 1, 38, 0
3, 10608, Note_on_c, 1, 52, 100
3, 10704, Note_off_c, 1, 52, 0
3, 10704, Note_on_c, 1, 50, 100
3, 10800, Note_off_c, 1, 50, 0
3, 10800, Note_on_c, 1, 50, 100
3, 10896, Note_off_c, 1, 50, 0
3, 10896, Note_on_c, 1, 50, 100
3, 10992, Note_off_c, 1, 50, 0
3, 10992, Note_on_c, 1, 50, 100
3, 11088, Note_off_c, 1, 50, 0
3, 11088, Note_on_c, 1, 50, 100
3, 11184, Note_off_c, 1, 50, 0
3, 11184, Note_on_c, 1, 50, 100
3, 11280, Note_off_c, 1, 50, 0
3, 11280, Note_on_c, 1, 50, 100
3, 11376, Note_off_c, 1, 50, 0
3, 11376, Note_on_c, 1, 50, 100
3, 11472, Note_off_c, 1, 50, 0
3, 11472, Note_on_c, 1, 55, 100
3, 11568, Note_off_c, 1, 55, 0
3, 11568, Note_on_c, 1, 50, 100
3, 11808, Note_off_c, 1, 50, 0
3, 11808, Note_on_c, 1, 52, 100
3, 12000, Note_off_c, 1, 52, 0
3, 12000, Note_on_c, 1, 55, 100
3, 12192, Note_off_c, 1, 55, 0
3, 12192, Program_c, 1, 30
3, 12192, Note_on_c, 1, 40, 100
3, 12192, Note_on_c, 1, 47, 100
3, 12960, Note_off_c, 1, 47, 0
3, 12960, Note_off_c, 1, 40, 0
3, 12960, Note_on_c, 1, 36, 100
3, 12960, Note_on_c, 1, 43, 100
3, 13344, Note_off_c, 1, 43, 0
3, 13344, Note_off_c, 1, 36, 0
3, 13344, Note_on_c, 1, 38, 100
3, 13344, Note_on_c, 1, 45, 100
3, 13728, Note_off_c, 1, 45, 0
3, 13728, Note_off_c, 1, 38, 0
3, 13728, Note_on_c, 1, 52, 100
3, 13728, Note_on_c, 1, 59, 100
3, 13824, Note_off_c, 1, 59, 0
3, 13824, Note_off_c, 1, 52, 0
3, 13824, Note_on_c, 1, 52, 100
3, 13824, Note_on_c, 1, 59, 100
3, 13920, Note_off_c, 1, 59, 0
3, 13920, Note_off_c, 1, 52, 0
3, 13920, Note_on_c, 1, 52, 100
3, 13920, Note_on_c, 1, 59, 100
3, 14016, Note_off_c, 1, 59, 0
3, 14016, Note_off_c, 1, 52, 0
3, 14016, Note_on_c, 1, 52, 100
3, 14016, Note_on_c, 1, 59, 100
3, 14112, Note_off_c, 1, 59, 0
3, 14112, Note_off_c, 1, 52, 0
3, 14112, Note_on_c, 1, 52, 100
3, 14112, Note_on_c, 1, 59, 100
3, 14208, Note_off_c, 1, 59, 0
3, 14208, Note_off_c, 1, 52, 0
3, 14208, Note_on_c, 1, 52, 100
3, 14208, Note_on_c, 1, 59, 100
3, 14304, Note_off_c, 1, 59, 0
3, 14304, Note_off_c, 1, 52, 0
3, 14304, Note_on_c, 1, 52, 100
3, 14304, Note_on_c, 1, 59, 100
3, 14400, Note_off_c, 1, 59, 0
3, 14400, Note_off_c, 1, 52, 0
3, 14400, Note_on_c, 1, 52, 100
3, 14400, Note_on_c, 1, 59, 100
3, 14496, Note_off_c, 1, 59, 0
3, 14496, Note_off_c, 1, 52, 0
3, 14496, Note_on_c, 1, 52, 100
3, 14496, Note_on_c, 1, 59, 100
3, 14592, Note_off_c, 1, 59, 0
3, 14592, Note_off_c, 1, 52, 0
3, 14592, Note_on_c, 1, 52, 100
3, 14592, Note_on_c, 1, 59, 100
3, 14688, Note_off_c, 1, 59, 0
3, 14688, Note_off_c, 1, 52, 0
3, 14688, Note_on_c, 1, 52, 100
3, 14688, Note_on_c, 1, 59, 100
3, 14784, Note_off_c, 1, 59, 0
3, 14784, Note_off_c, 1, 52, 0
3, 14784, Note_on_c, 1, 52, 100
3, 14784, Note_on_c, 1, 59, 100
3, 14880, Note_off_c, 1, 59, 0
3, 14880, Note_off_c, 1, 52, 0
3, 14880, Note_on_c, 1, 52, 100
3, 14880, Note_on_c, 1, 59, 100
3, 14976, Note_off_c, 1, 59, 0
3, 14976, Note_off_c, 1, 52, 0
3, 14976, Note_on_c, 1, 52, 100
3, 14976, Note_on_c, 1, 59, 100
3, 15072, Note_off_c, 1, 59, 0
3, 15072, Note_off_c, 1, 52, 0
3, 15072, Note_on_c, 1, 52, 100
3, 15072, Note_on_c, 1, 59, 100
3, 15168, Note_off_c, 1, 59, 0
3, 15168, Note_off_c, 1, 52, 0
3, 15168, Note_on_c, 1, 52, 100
3, 15168, Note_on_c, 1, 59, 100
3, 15264, Note_off_c, 1, 59, 0
3, 15264, Note_off_c, 1, 52, 0
3, 15264, Note_on_c, 1, 40, 100
3, 15264, Note_on_c, 1, 47, 100
3, 16032, Note_off_c, 1, 47, 0
3, 16032, Note_off_c, 1, 40, 0
3, 16032, Note_on_c, 1, 36, 100
3, 16032, Note_on_c, 1, 43, 100
3, 16416, Note_off_c, 1, 43, 0
3, 16416, Note_off_c, 1, 36, 0
3, 16416, Note_on_c, 1, 38, 100
3, 16416, Note_on_c, 1, 45, 100
3, 16800, Note_off_c, 1, 45, 0
3, 16800, Note_off_c, 1, 38, 0
3, 16800, Note_on_c, 1, 52, 100
3, 16800, Note_on_c, 1, 59, 100
3, 16896, Note_off_c, 1, 59, 0
3, 16896, Note_off_c, 1, 52, 0
3, 16896, Note_on_c, 1, 52, 100
3, 16896, Note_on_c, 1, 59, 100
3, 16992, Note_off_c, 1, 59, 0
3, 16992, Note_off_c, 1, 52, 0
3, 16992, Note_on_c, 1, 52, 100
3, 16992, Note_on_c, 1, 59, 100
3, 17088, Note_off_c, 1, 59, 0
3, 17088, Note_off_c, 1, 52, 0
3, 17088, Note_on_c, 1, 52, 100
3, 17088, Note_on_c, 1, 59, 100
3, 17184, Note_off_c, 1, 59, 0
3, 17184, Note_off_c, 1, 52, 0
3, 17184, Note_on_c, 1, 52, 100
3, 17184, Note_on_c, 1, 59, 100
3, 17280, Note_off_c, 1, 59, 0
3, 17280, Note_off_c, 1, 52, 0
3, 17280, Note_on_c, 1, 52, 100
3, 17280, Note_on_c, 1, 59, 100
3, 17376, Note_off_c, 1, 59, 0
3, 17376, Note_off_c, 1, 52, 0
3, 17376, Note_on_c, 1, 52, 100
3, 17376, Note_on_c, 1, 59, 100
3, 17472, Note_off_c, 1, 59, 0
3, 17472, Note_off_c, 1, 52, 0
3, 17472, Note_on_c, 1, 52, 100
3, 17472, Note_on_c, 1, 59, 100
3, 17568, Note_off_c, 1, 59, 0
3, 17568, Note_off_c, 1, 52, 0
3, 17568, Note_on_c, 1, 52, 100
3, 17568, Note_on_c, 1, 59, 100
3, 17664, Note_off_c, 1, 59, 0
3, 17664, Note_off_c, 1, 52, 0
3, 17664, Note_on_c, 1, 52, 100
3, 17664, Note_on_c, 1, 59, 100
3, 17760, Note_off_c, 1, 59, 0
3, 17760, Note_off_c, 1, 52, 0
3, 17760, Note_on_c, 1, 52, 100
3, 17760, Note_on_c, 1, 59, 100
3, 17856, Note_off_c, 1, 59, 0
3, 17856, Note_off_c, 1, 52, 0
3, 17856, Note_on_c, 1, 52, 100
3, 17856, Note_on_c, 1, 59, 100
3, 17952, Note_off_c, 1, 59, 0
3, 17952, Note_off_c, 1, 52, 0
3, 17952, Note_on_c, 1, 52, 100
3, 17952, Note_on_c, 1, 59, 100
3, 18048, Note_off_c, 1, 59, 0
3, 18048, Note_off_c, 1, 52, 0
3, 18048, Note_on_c, 1, 52, 100
3, 18048, Note_on_c, 1, 59, 100
3, 18144, Note_off_c, 1, 59, 0
3, 18144, Note_off_c, 1, 52, 0
3, 18144, Note_on_c, 1, 52, 100
3, 18144, Note_on_c, 1, 59, 100
3, 18240, Note_off_c, 1, 59, 0
3, 18240, Note_off_c, 1, 52, 0
3, 18240, Note_on_c, 1, 52, 100
3, 18240, Note_on_c, 1, 59, 100
3, 18336, Note_off_c, 1, 59, 0
3, 18336, Note_off_c, 1, 52, 0
3, 18336, Program_c, 1, 36
3, 18336, Note_on_c, 1, 40, 100
3, 18432, Note_off_c, 1, 40, 0
3, 18432, Note_on_c, 1, 40, 100
3, 18528, Note_off_c, 1, 40, 0
3, 18528, Note_on_c, 1, 40, 100
3, 18624, Note_off_c, 1, 40, 0
3, 18624, Note_on_c, 1, 40, 100
3, 18720, Note_off_c, 1, 40, 0
3, 18720, Note_on_c, 1, 40, 100
3, 18816, Note_off_c, 1, 40, 0
3, 18816, Note_on_c, 1, 40, 100
3, 18912, Note_off_c, 1, 40, 0
3, 18912, Note_on_c, 1, 40, 100
3, 19008, Note_off_c, 1, 40, 0
3, 19008, Note_on_c, 1, 40, 100
3, 19104, Note_off_c, 1, 40, 0
3, 19104, Note_on_c, 1, 40, 100
3, 19200, Note_off_c, 1, 40, 0
3, 19200, Note_on_c, 1, 40, 100
3, 19296, Note_off_c, 1, 40, 0
3, 19296, Note_on_c, 1, 40, 100
3, 19392, Note_off_c, 1, 40, 0
3, 19392, Note_on_c, 1, 40, 100
3, 19488, Note_off_c, 1, 40, 0
3, 19488, Note_on_c, 1, 45, 100
3, 19584, Note_off_c, 1, 45, 0
3, 19584, Note_on_c, 1, 47, 100
3, 19680, Note_off_c, 1, 47, 0
3, 19680, Note_on_c, 1, 38, 100
3, 19776, Note_off_c, 1, 38, 0
3, 19776, Note_on_c, 1, 52, 100
3, 19872, Note_off_c, 1, 52, 0
3, 19872, Note_on_c, 1, 50, 100
3, 19968, Note_off_c, 1, 50, 0
3, 19968, Note_on_c, 1, 50, 100
3, 20064, Note_off_c, 1, 50, 0
3, 20064, Note_on_c, 1, 50, 100
3, 20160, Note_off_c, 1, 50, 0
3, 20160, Note_on_c, 1, 50, 100
3, 20256, Note_off_c, 1, 50, 0
3, 20256, Note_on_c, 1, 50, 100
3, 20352, Note_off_c, 1, 50, 0
3, 20352, Note_on_c, 1, 50, 100
3, 20448, Note_off_c, 1, 50, 0
3, 20448, Note_on_c, 1, 50, 100
3, 20544, Note_off_c, 1, 50, 0
3, 20544, Note_on_c, 1, 50, 100
3, 20640, Note_off_c, 1, 50, 0
3, 20640, Note_on_c, 1, 55, 100
3, 20736, Note_off_c, 1, 55, 0
3, 20736, Note_on_c, 1, 50, 100
3, 20976, Note_off_c, 1, 50, 0
3, 20976, Note_on_c, 1, 52, 100
3, 21168, Note_off_c, 1, 52, 0
3, 21168, Note_on_c, 1, 55, 100
3, 21360, Note_off_c, 1, 55, 0
3, 21360, Note_on_c, 1, 40, 100
3, 21456, Note_off_c, 1, 40, 0
3, 21456, Note_on_c, 1, 40, 100
3, 21552, Note_off_c, 1, 40, 0
3, 21552, Note_on_c, 1, 40, 100
3, 21648, Note_off_c, 1, 40, 0
3, 21648, Note_on_c, 1, 40, 100
3, 21744, Note_off_c, 1, 40, 0
3, 21744, Note_on_c, 1, 40, 100
3, 21840, Note_off_c, 1, 40, 0
3, 21840, Note_on_c, 1, 40, 100
3, 21936, Note_off_c, 1, 40, 0
3, 21936, Note_on_c, 1, 40, 100
3, 22032, Note_off_c, 1, 40, 0
3, 22032, Note_on_c, 1, 40, 100
3, 22128, Note_off_c, 1, 40, 0
3, 22128, Note_on_c, 1, 40, 100
3, 22224, Note_off_c, 1, 40, 0
3, 22224, Note_on_c, 1, 40, 100
3, 22320, Note_off_c, 1, 40, 0
3, 22320, Note_on_c, 1, 40, 100
3, 22416, Note_off_c, 1, 40, 0
3, 22416, Note_on_c, 1, 40, 100
3, 22512, Note_off_c, 1, 40, 0
3, 22512, Note_on_c, 1, 45, 100
3, 22608, Note_off_c, 1, 45, 0
3, 22608, Note_on_c, 1, 47, 100
3, 22704, Note_off_c, 1, 47, 0
3, 22704, Note_on_c, 1, 38, 100
3, 22800, Note_off_c, 1, 38, 0
3, 22800, Note_on_c, 1, 52, 100
3, 22896, Note_off_c, 1, 52, 0
3, 22896, Note_on_c, 1, 50, 100
3, 22992, Note_off_c, 1, 50, 0
3, 22992, Note_on_c, 1, 50, 100
3, 23088, Note_off_c, 1, 50, 0
3, 23088, Note_on_c, 1, 50, 100
3, 23184, Note_off_c, 1, 50, 0
3, 23184, Note_on_c, 1, 50, 100
3, 23280, Note_off_c, 1, 50, 0
3, 23280, Note_on_c, 1, 50, 100
3, 23376, Note_off_c, 1, 50, 0
3, 23376, Note_on_c, 1, 50, 100
3, 23472, Note_off_c, 1, 50, 0
3, 23472, Note_on_c, 1, 50, 100
3, 23568, Note_off_c, 1, 50, 0
3, 23568, Note_on_c, 1, 50, 100
3, 23664, Note_off_c, 1, 50, 0
3, 23664, Note_on_c, 1, 55, 100
3, 23760, Note_off_c, 1, 55, 0
3, 23760, Note_on_c, 1, 50, 100
3, 24000, Note_off_c, 1, 50, 0
3, 24000, Note_on_c, 1, 52, 100
3, 24192, Note_off_c, 1, 52, 0
3, 24192, Note_on_c, 1, 55, 100
3, 24384, Note_off_c, 1, 55, 0
3, 24384, Program_c, 1, 30
3, 24384, Note_on_c, 1, 40, 100
3, 24384, Note_on_c, 1, 47, 100
3, 25920, Note_off_c, 1, 47, 0
3, 25920, Note_off_c, 1, 40, 0
3, 25920, Note_on_c, 1, 38, 100
3, 25920, Note_on_c, 1, 45, 100
3, 27456, Note_off_c, 1, 45, 0
3, 27456, Note_off_c, 1, 38, 0
3, 27456, Note_on_c, 1, 40, 100
3, 27456, Note_on_c, 1, 47, 100
3, 28992, Note_off_c, 1, 47, 0
3, 28992, Note_off_c, 1, 40, 0
3, 28992, Note_on_c, 1, 38, 100
3, 28992, Note_on_c, 1, 45, 100
3, 30528, Note_off_c, 1, 45, 0
3, 30528, Note_off_c, 1, 38, 0
3, 30528, Program_c, 1, 36
3, 30528, Note_on_c, 1, 40, 100
3, 30624, Note_off_c, 1, 40, 0
3, 30624, Note_on_c, 1, 40, 100
3, 30720, Note_off_c, 1, 40, 0
3, 30720, Note_on_c, 1, 40, 100
3, 30816, Note_off_c, 1, 40, 0
3, 30816, Note_on_c, 1, 40, 100
3, 30912, Note_off_c, 1, 40, 0
3, 30912, Note_on_c, 1, 40, 100
3, 31008, Note_off_c, 1, 40, 0
3, 31008, Note_on_c, 1, 40, 100
3, 31104, Note_off_c, 1, 40, 0
3, 31104, Note_on_c, 1, 40, 100
3, 31200, Note_off_c, 1, 40, 0
3, 31200, Note_on_c, 1, 40, 100
3, 31296, Note_off_c, 1, 40, 0
3, 31296, Note_on_c, 1, 40, 100
3, 31392, Note_off_c, 1, 40, 0
3, 31392, Note_on_c, 1, 40, 100
3, 31488, Note_off_c, 1, 40, 0
3, 31488, Note_on_c, 1, 40, 100
3, 31584, Note_off_c, 1, 40, 0
3, 31584, Note_on_c, 1, 40, 100
3, 31680, Note_off_c, 1, 40, 0
3, 31680, Note_on_c, 1, 45, 100
3, 31776, Note_off_c, 1, 45, 0
3, 31776, Note_on_c, 1, 47, 100
3, 31872, Note_off_c, 1, 47, 0
3, 31872, Note_on_c, 1, 38, 100
3, 31968, Note_off_c, 1, 38, 0
3, 31968, Note_on_c, 1, 52, 100
3, 32064, Note_off_c, 1, 52, 0
3, 32064, Note_on_c, 1, 50, 100
3, 32160, Note_off_c, 1, 50, 0
3, 32160, Note_on_c, 1, 50, 100
3, 32256, Note_off_c, 1, 50, 0
3, 32256, Note_on_c, 1, 50, 100
3, 32352, Note_off_c, 1, 50, 0
3, 32352, Note_on_c, 1, 50, 100
3, 32448, Note_off_c, 1, 50, 0
3, 32448, Note_on_c, 1, 50, 100
3, 32544, Note_off_c, 1, 50, 0
3, 32544, Note_on_c, 1, 50, 100
3, 32640, Note_off_c, 1, 50, 0
3, 32640, Note_on_c, 1, 50, 100
3, 32736, Note_off_c, 1, 50, 0
3, 32736, Note_on_c, 1, 50, 100
3, 32832, Note_off_c, 1, 50, 0
3, 32832, Note_on_c, 1, 55, 100
3, 32928, Note_off_c, 1, 55, 0
3, 32928, Note_on_c, 1, 50, 100
3, 33168, Note_off_c, 1, 50, 0
3, 33168, Note_on_c, 1, 52, 100
3, 33360, Note_off_c, 1, 52, 0
3, 33360, Note_on_c, 1, 55, 100
3, 33552, Note_off_c, 1, 55, 0
3, 33552, Note_on_c, 1, 40, 100
3, 33648, Note_off_c, 1, 40, 0
3, 33648, Note_on_c, 1, 40, 100
3, 33744, Note_off_c, 1, 40, 0
3, 33744, Note_on_c, 1, 40, 100
3, 33840, Note_off_c, 1, 40, 0
3, 33840, Note_on_c, 1, 40, 100
3, 33936, Note_off_c, 1, 40, 0
3, 33936, Note_on_c, 1, 40, 100
3, 34032, Note_off_c, 1, 40, 0
3, 34032, Note_on_c, 1, 40, 100
3, 34128, Note_off_c, 1, 40, 0
3, 34128, Note_on_c, 1, 40, 100
3, 34224, Note_off_c, 1, 40, 0
3, 34224, Note_on_c, 1, 40, 100
3, 34320, Note_off_c, 1, 40, 0
3, 34320, Note_on_c, 1, 40, 100
3, 34416, Note_off_c, 1, 40, 0
3, 34416, Note_on_c, 1, 40, 100
3, 34512, Note_off_c, 1, 40, 0
3, 34512, Note_on_c, 1, 40, 100
3, 34608, Note_off_c, 1, 40, 0
3, 34608, Note_on_c, 1, 40, 100
3, 34704, Note_off_c, 1, 40, 0
3, 34704, Note_on_c, 1, 45, 100
3, 34800, Note_off_c, 1, 45, 0
3, 34800, Note_on_c, 1, 47, 100
3, 34896, Note_off_c, 1, 47, 0
3, 34896, Note_on_c, 1, 38, 100
3, 34992, Note_off_c, 1, 38, 0
3, 34992, Note_on_c, 1, 52, 100
3, 35088, Note_off_c, 1, 52, 0
3, 35088, Note_on_c, 1, 50, 100
3, 35184, Note_off_c, 1, 50, 0
3, 35184, Note_on_c, 1, 50, 100
3, 35280, Note_off_c, 1, 50, 0
3, 35280, Note_on_c, 1, 50, 100
3, 35376, Note_off_c, 1, 50, 0
3, 35376, Note_on_c, 1, 50, 100
3, 35472, Note_off_c, 1, 50, 0
3, 35472, Note_on_c, 1, 50, 100
3, 35568, Note_off_c, 1, 50, 0
3, 35568, Note_on_c, 1, 50, 100
3, 35664, Note_off_c, 1, 50, 0
3, 35664, Note_on_c, 1, 50, 100
3, 35760, Note_off_c, 1, 50, 0
3, 35760, Note_on_c, 1, 50, 100
3, 35856, Note_off_c, 1, 50, 0
3, 35856, Note_on_c, 1, 55, 100
3, 35952, Note_off_c, 1, 55, 0
3, 35952, Note_on_c, 1, 50, 100
3, 36192, Note_off_c, 1, 50, 0
3, 36192, Note_on_c, 1, 52, 100
3, 36384, Note_off_c, 1, 52, 0
3, 36384, Note_on_c, 1, 55, 100
3, 36576, Note_off_c, 1, 55, 0
3, 36576, Note_on_c, 1, 40, 100
3, 36672, Note_off_c, 1, 40, 0
3, 36672, Note_on_c, 1, 40, 100
3, 36768, Note_off_c, 1, 40, 0
3, 36768, Note_on_c, 1, 40, 100
3, 36864, Note_off_c, 1, 40, 0
3, 36864, Note_on_c, 1, 40, 100
3, 36960, Note_off_c, 1, 40, 0
3, 36960, Note_on_c, 1, 40, 100
3, 37056, Note_off_c, 1, 40, 0
3, 37056, Note_on_c, 1, 40, 100
3, 37152, Note_off_c, 1, 40, 0
3, 37152, Note_on_c, 1, 40, 100
3, 37248, Note_off_c, 1, 40, 0
3, 37248, Note_on_c, 1, 40, 100
3, 37344, Note_off_c, 1, 40, 0
3, 37344, Note_on_c, 1, 40, 100
3, 37440, Note_off_c, 1, 40, 0
3, 37440, Note_on_c, 1, 40, 100
3, 37536, Note_off_c, 1, 40, 0
3, 37536, Note_on_c, 1, 40, 100
3, 37632, Note_off_c, 1, 40, 0
3, 37632, Note_on_c, 1, 40, 100
3, 37728, Note_off_c, 1, 40, 0
3, 37728, Note_on_c, 1, 45, 100
3, 37824, Note_off_c, 1, 45, 0
3, 37824, Note_on_c, 1, 47, 100
3, 37920, Note_off_c, 1, 47, 0
3, 37920, Note_on_c, 1, 38, 100
3, 38016, Note_off_c, 1, 38, 0
3, 38016, Note_on_c, 1, 52, 100
3, 38112, Note_off_c, 1, 52, 0
3, 38112, Note_on_c, 1, 50, 100
3, 38208, Note_off_c, 1, 50, 0
3, 38208, Note_on_c, 1, 50, 100
3, 38304, Note_off_c, 1, 50, 0
3, 38304, Note_on_c, 1, 50, 100
3, 38400, Note_off_c, 1, 50, 0
3, 38400, Note_on_c, 1, 50, 100
3, 38496, Note_off_c, 1, 50, 0
3, 38496, Note_on_c, 1, 50, 100
3, 38592, Note_off_c, 1, 50, 0
3, 38592, Note_on_c, 1, 50, 100
3, 38688, Note_off_c, 1, 50, 0
3, 38688, Note_on_c, 1, 50, 100
3, 38784, Note_off_c, 1, 50, 0
3, 38784, Note_on_c, 1, 50, 100
3, 38880, Note_off_c, 1, 50, 0
3, 38880, Note_on_c, 1, 55, 100
3, 38976, Note_off_c, 1, 55, 0
3, 38976, Note_on_c, 1, 50, 100
3, 39216, Note_off_c, 1, 50, 0
3, 39216, Note_on_c, 1, 52, 100
3, 39408, Note_off_c, 1, 52, 0
3, 39408, Note_on_c, 1, 55, 100
3, 39600, Note_off_c, 1, 55, 0
3, 39600, Note_on_c, 1, 40, 100
3, 39696, Note_off_c, 1, 40, 0
3, 39696, Note_on_c, 1, 40, 100
3, 39792, Note_off_c, 1, 40, 0
3, 39792, Note_on_c, 1, 40, 100
3, 39888, Note_off_c, 1, 40, 0
3, 39888, Note_on_c, 1, 40, 100
3, 39984, Note_off_c, 1, 40, 0
3, 39984, Note_on_c, 1, 40, 100
3, 40080, Note_off_c, 1, 40, 0
3, 40080, Note_on_c, 1, 40, 100
3, 40176, Note_off_c, 1, 40, 0
3, 40176, Note_on_c, 1, 40, 100
3, 40272, Note_off_c, 1, 40, 0
3, 40272, Note_on_c, 1, 40, 100
3, 40368, Note_off_c, 1, 40, 0
3, 40368, Note_on_c, 1, 40, 100
3, 40464, Note_off_c, 1, 40, 0
3, 40464, Note_on_c, 1, 40, 100
3, 40560, Note_off_c, 1, 40, 0
3, 40560, Note_on_c, 1, 40, 100
3, 40656, Note_off_c, 1, 40, 0
3, 40656, Note_on_c, 1, 40, 100
3, 40752, Note_off_c, 1, 40, 0
3, 40752, Note_on_c, 1, 45, 100
3, 40848, Note_off_c, 1, 45, 0
3, 40848, Note_on_c, 1, 47, 100
3, 40944, Note_off_c, 1, 47, 0
3, 40944, Note_on_c, 1, 38, 100
3, 41040, Note_off_c, 1, 38, 0
3, 41040, Note_on_c, 1, 52, 100
3, 41136, Note_off_c, 1, 52, 0
3, 41136, Note_on_c, 1, 50, 100
3, 41232, Note_off_c, 1, 50, 0
3, 41232, Note_on_c, 1, 50, 100
3, 41328, Note_off_c, 1, 50, 0
3, 41328, Note_on_c, 1, 50, 100
3, 41424, Note_off_c, 1, 50, 0
3, 41424, Note_on_c, 1, 50, 100
3, 41520, Note_off_c, 1, 50, 0
3, 41520, Note_on_c, 1, 50, 100
3, 41616, Note_off_c, 1, 50, 0
3, 41616, Note_on_c, 1, 50, 100
3, 41712, Note_off_c, 1, 50, 0
3, 41712, Note_on_c, 1, 50, 100
3, 41808, Note_off_c, 1, 50, 0
3, 41808, Note_on_c, 1, 50, 100
3, 41904, Note_off_c, 1, 50, 0
3, 41904, Note_on_c, 1, 55, 100
3, 42000, Note_off_c, 1, 55, 0
3, 42000, Note_on_c, 1, 50, 100
3, 42240, Note_off_c, 1, 50, 0
3, 42240, Note_on_c, 1, 52, 100
3, 42432, Note_off_c, 1, 52, 0
3, 42432, Note_on_c, 1, 55, 100
3, 42624, Note_off_c, 1, 55, 0
3, 42624, Note_on_c, 1, 40, 100
3, 42720, Note_off_c, 1, 40, 0
3, 42720, Note_on_c, 1, 40, 100
3, 42816, Note_off_c, 1, 40, 0
3, 42816, Note_on_c, 1, 40, 100
3, 42912, Note_off_c, 1, 40, 0
3, 42912, Note_on_c, 1, 40, 100
3, 43008, Note_off_c, 1, 40, 0
3, 43008, Note_on_c, 1, 40, 100
3, 43104, Note_off_c, 1, 40, 0
3, 43104, Note_on_c, 1, 40, 100
3, 43200, Note_off_c, 1, 40, 0
3, 43200, Note_on_c, 1, 40, 100
3, 43296, Note_off_c, 1, 40, 0
3, 43296, Note_on_c, 1, 40, 100
3, 43392, Note_off_c, 1, 40, 0
3, 43392, Note_on_c, 1, 40, 100
3, 43488, Note_off_c, 1, 40, 0
3, 43488, Note_on_c, 1, 40, 100
3, 43584, Note_off_c, 1, 40, 0
3, 43584, Note_on_c, 1, 40, 100
3, 43680, Note_off_c, 1, 40, 0
3, 43680, Note_on_c, 1, 40, 100
3, 43776, Note_off_c, 1, 40, 0
3, 43776, Note_on_c, 1, 45, 100
3, 43872, Note_off_c, 1, 45, 0
3, 43872, Note_on_c, 1, 47, 100
3, 43968, Note_off_c, 1, 47, 0
3, 43968, Note_on_c, 1, 38, 100
3, 44064, Note_off_c, 1, 38, 0
3, 44064, Note_on_c, 1, 52, 100
3, 44160, Note_off_c, 1, 52, 0
3, 44160, Note_on_c, 1, 50, 100
3, 44256, Note_off_c, 1, 50, 0
3, 44256, Note_on_c, 1, 50, 100
3, 44352, Note_off_c, 1, 50, 0
3, 44352, Note_on_c, 1, 50, 100
3, 44448, Note_off_c, 1, 50, 0
3, 44448, Note_on_c, 1, 50, 100
3, 44544, Note_off_c, 1, 50, 0
3, 44544, Note_on_c, 1, 50, 100
3, 44640, Note_off_c, 1, 50, 0
3, 44640, Note_on_c, 1, 50, 100
3, 44736, Note_off_c, 1, 50, 0
3, 44736, Note_on_c, 1, 50, 100
3, 44832, Note_off_c, 1, 50, 0
3, 44832, Note_on_c, 1, 50, 100
3, 44928, Note_off_c, 1, 50, 0
3, 44928, Note_on_c, 1, 55, 100
3, 45024, Note_off_c, 1, 55, 0
3, 45024, Note_on_c, 1, 50, 100
3, 45264, Note_off_c, 1, 50, 0
3, 45264, Note_on_c, 1, 52, 100
3, 45456, Note_off_c, 1, 52, 0
3, 45456, Note_on_c, 1, 55, 100
3, 45648, Note_off_c, 1, 55, 0
3, 45648, Note_on_c, 1, 40, 100
3, 45744, Note_off_c, 1, 40, 0
3, 45744, Note_on_c, 1, 40, 100
3, 45840, Note_off_c, 1, 40, 0
3, 45840, Note_on_c, 1, 40, 100
3, 45936, Note_off_c, 1, 40, 0
3, 45936, Note_on_c, 1, 40, 100
3, 46032, Note_off_c, 1, 40, 0
3, 46032, Note_on_c, 1, 40, 100
3, 46128, Note_off_c, 1, 40, 0
3, 46128, Note_on_c, 1, 40, 100
3, 46224, Note_off_c, 1, 40, 0
3, 46224, Note_on_c, 1, 40, 100
3, 46320, Note_off_c, 1, 40, 0
3, 46320, Note_on_c, 1, 40, 100
3, 46416, Note_off_c, 1, 40, 0
3, 46416, Note_on_c, 1, 40, 100
3, 46512, Note_off_c, 1, 40, 0
3, 46512, Note_on_c, 1, 40, 100
3, 46608, Note_off_c, 1, 40, 0
3, 46608, Note_on_c, 1, 40, 100
3, 46704, Note_off_c, 1, 40, 0
3, 46704, Note_on_c, 1, 40, 100
3, 46800, Note_off_c, 1, 40, 0
3, 46800, Note_on_c, 1, 45, 100
3, 46896, Note_off_c, 1, 45, 0
3, 46896, Note_on_c, 1, 47, 100
3, 46992, Note_off_c, 1, 47, 0
3, 46992, Note_on_c, 1, 38, 100
3, 47088, Note_off_c, 1, 38, 0
3, 47088, Note_on_c, 1, 52, 100
3, 47184, Note_off_c, 1, 52, 0
3, 47184, Note_on_c, 1, 50, 100
3, 47280, Note_off_c, 1, 50, 0
3, 47280, Note_on_c, 1, 50, 100
3, 47376, Note_off_c, 1, 50, 0
3, 47376, Note_on_c, 1, 50, 100
3, 47472, Note_off_c, 1, 50, 0
3, 47472, Note_on_c, 1, 50, 100
3, 47568, Note_off_c, 1, 50, 0
3, 47568, Note_on_c, 1, 50, 100
3, 47664, Note_off_c, 1, 50, 0
3, 47664, Note_on_c, 1, 50, 100
3, 47760, Note_off_c, 1, 50, 0
3, 47760, Note_on_c, 1, 50, 100
3, 47856, Note_off_c, 1, 50, 0
3, 47856, Note_on_c, 1, 50, 100
3, 47952, Note_off_c, 1, 50, 0
3, 47952, Note_on_c, 1, 55, 100
3, 48048, Note_off_c, 1, 55, 0
3, 48048, Note_on_c, 1, 50, 100
3, 48288, Note_off_c, 1, 50, 0
3, 48288, Note_on_c, 1, 52, 100
3, 48480, Note_off_c, 1, 52, 0
3, 48480, Note_on_c, 1, 55, 100
3, 48672, Note_off_c, 1, 55, 0
3, 48672, Note_on_c, 1, 40, 100
3, 48768, Note_off_c, 1, 40, 0
3, 48768, Note_on_c, 1, 40, 100
3, 48864, Note_off_c, 1, 40, 0
3, 48864, Note_on_c, 1, 40, 100
3, 48960, Note_off_c, 1, 40, 0
3, 48960, Note_on_c, 1, 40, 100
3, 49056, Note_off_c, 1, 40, 0
3, 49056, Note_on_c, 1, 40, 100
3, 49152, Note_off_c, 1, 40, 0
3, 49152, Note_on_c, 1, 40, 100
3, 49248, Note_off_c, 1, 40, 0
3, 49248, Note_on_c, 1, 40, 100
3, 49344, Note_off_c, 1, 40, 0
3, 49344, Note_on_c, 1, 40, 100
3, 49440, Note_off_c, 1, 40, 0
3, 49440, Note_on_c, 1, 40, 100
3, 49536, Note_off_c, 1, 40, 0
3, 49536, Note_on_c, 1, 40, 100
3, 49632, Note_off_c, 1, 40, 0
3, 49632, Note_on_c, 1, 40, 100
3, 49728, Note_off_c, 1, 40, 0
3, 49728, Note_on_c, 1, 40, 100
3, 49824, Note_off_c, 1, 40, 0
3, 49824, Note_on_c, 1, 45, 100
3, 49920, Note_off_c, 1, 45, 0
3, 49920, Note_on_c, 1, 47, 100
3, 50016, Note_off_c, 1, 47, 0
3, 50016, Note_on_c, 1, 38, 100
3, 50112, Note_off_c, 1, 38, 0
3, 50112, Note_on_c, 1, 52, 100
3, 50208, Note_off_c, 1, 52, 0
3, 50208, Note_on_c, 1, 50, 100
3, 50304, Note_off_c, 1, 50, 0
3, 50304, Note_on_c, 1, 50, 100
3, 50400, Note_off_c, 1, 50, 0
3, 50400, Note_on_c, 1, 50, 100
3, 50496, Note_off_c, 1, 50, 0
3, 50496, Note_on_c, 1, 50, 100
3, 50592, Note_off_c, 1, 50, 0
3, 50592, Note_on_c, 1, 50, 100
3, 50688, Note_off_c, 1, 50, 0
3, 50688, Note_on_c, 1, 50, 100
3, 50784, Note_off_c, 1, 50, 0
3, 50784, Note_on_c, 1, 50, 100
3, 50880, Note_off_c, 1, 50, 0
3, 50880, Note_on_c, 1, 50, 100
3, 50976, Note_off_c, 1, 50, 0
3, 50976, Note_on_c, 1, 55, 100
3, 51072, Note_off_c, 1, 55, 0
3, 51072, Note_on_c, 1, 50, 100
3, 51312, Note_off_c, 1, 50, 0
3, 51312, Note_on_c, 1, 52, 100
3, 51504, Note_off_c, 1, 52, 0
3, 51504, Note_on_c, 1, 55, 100
3, 51696, Note_off_c, 1, 55, 0
3, 51696, Note_on_c, 1, 40, 100
3, 51792, Note_off_c, 1, 40, 0
3, 51792, Note_on_c, 1, 40, 100
3, 51888, Note_off_c, 1, 40, 0
3, 51888, Note_on_c, 1, 40, 100
3, 51984, Note_off_c, 1, 40, 0
3, 51984, Note_on_c, 1, 40, 100
3, 52080, Note_off_c, 1, 40, 0
3, 52080, Note_on_c, 1, 40, 100
3, 52176, Note_off_c, 1, 40, 0
3, 52176, Note_on_c, 1, 40, 100
3, 52272, Note_off_c, 1, 40, 0
3, 52272, Note_on_c, 1, 40, 100
3, 52368, Note_off_c, 1, 40, 0
3, 52368, Note_on_c, 1, 40, 100
3, 52464, Note_off_c, 1, 40, 0
3, 52464, Note_on_c, 1, 40, 100
3, 52560, Note_off_c, 1, 40, 0
3, 52560, Note_on_c, 1, 40, 100
3, 52656, Note_off_c, 1, 40, 0
3, 52656, Note_on_c, 1, 40, 100
3, 52752, Note_off_c, 1, 40, 0
3, 52752, Note_on_c, 1, 40, 100
3, 52848, Note_off_c, 1, 40, 0
3, 52848, Note_on_c, 1, 45, 100
3, 52944, Note_off_c, 1, 45, 0
3, 52944, Note_on_c, 1, 47, 100
3, 53040, Note_off_c, 1, 47, 0
3, 53040, Note_on_c, 1, 38, 100
3, 53136, Note_off_c, 1, 38, 0
3, 53136, Note_on_c, 1, 52, 100
3, 53232, Note_off_c, 1, 52, 0
3, 53232, Note_on_c, 1, 50, 100
3, 53328, Note_off_c, 1, 50, 0
3, 53328, Note_on_c, 1, 50, 100
3, 53424, Note_off_c, 1, 50, 0
3, 53424, Note_on_c, 1, 50, 100
3, 53520, Note_off_c, 1, 50, 0
3, 53520, Note_on_c, 1, 50, 100
3, 53616, Note_off_c, 1, 50, 0
3, 53616, Note_on_c, 1, 50, 100
3, 53712, Note_off_c, 1, 50, 0
3, 53712, Note_on_c, 1, 50, 100
3, 53808, Note_off_c, 1, 50, 0
3, 53808, Note_on_c, 1, 50, 100
3, 53904, Note_off_c, 1, 50, 0
3, 53904, Note_on_c, 1, 50, 100
3, 54000, Note_off_c, 1, 50, 0
3, 54000, Note_on_c, 1, 55, 100
3, 54096, Note_off_c, 1, 55, 0
3, 54096, Note_on_c, 1, 50, 100
3, 54336, Note_off_c, 1, 50, 0
3, 54336, Note_on_c, 1, 52, 100
3, 54528, Note_off_c, 1, 52, 0
3, 54528, Note_on_c, 1, 55, 100
3, 54720, Note_off_c, 1, 55, 0
3, 54720, Note_on_c, 1, 40, 100
3, 54816, Note_off_c, 1, 40, 0
3, 54816, Note_on_c, 1, 40, 100
3, 54912, Note_off_c, 1, 40, 0
3, 54912, Note_on_c, 1, 40, 100
3, 55008, Note_off_c, 1, 40, 0
3, 55008, Note_on_c, 1, 40, 100
3, 55104, Note_off_c, 1, 40, 0
3, 55104, Note_on_c, 1, 40, 100
3, 55200, Note_off_c, 1, 40, 0
3, 55200, Note_on_c, 1, 40, 100
3, 55296, Note_off_c, 1, 40, 0
3, 55296, Note_on_c, 1, 40, 100
3, 55392, Note_off_c, 1, 40, 0
3, 55392, Note_on_c, 1, 40, 100
3, 55488, Note_off_c, 1, 40, 0
3, 55488, Note_on_c, 1, 40, 100
3, 55584, Note_off_c, 1, 40, 0
3, 55584, Note_on_c, 1, 40, 100
3, 55680, Note_off_c, 1, 40, 0
3, 55680, Note_on_c, 1, 40, 100
3, 55776, Note_off_c, 1, 40, 0
3, 55776, Note_on_c, 1, 40, 100
3, 55872, Note_off_c, 1, 40, 0
3, 55872, Note_on_c, 1, 45, 100
3, 55968, Note_off_c, 1, 45, 0
3, 55968, Note_on_c, 1, 47, 100
3, 56064, Note_off_c, 1, 47, 0
3, 56064, Note_on_c, 1, 38, 100
3, 56160, Note_off_c, 1, 38, 0
3, 56160, Note_on_c, 1, 52, 100
3, 56256, Note_off_c, 1, 52, 0
3, 56256, Note_on_c, 1, 50, 100
3, 56352, Note_off_c, 1, 50, 0
3, 56352, Note_on_c, 1, 50, 100
3, 56448, Note_off_c, 1, 50, 0
3, 56448, Note_on_c, 1, 50, 100
3, 56544, Note_off_c, 1, 50, 0
3, 56544, Note_on_c, 1, 50, 100
3, 56640, Note_off_c, 1, 50, 0
3, 56640, Note_on_c, 1, 50, 100
3, 56736, Note_off_c, 1, 50, 0
3, 56736, Note_on_c, 1, 50, 100
3, 56832, Note_off_c, 1, 50, 0
3, 56832, Note_on_c, 1, 50, 100
3, 56928, Note_off_c, 1, 50, 0
3, 56928, Note_on_c, 1, 50, 100
3, 57024, Note_off_c, 1, 50, 0
3, 57024, Note_on_c, 1, 55, 100
3, 57120, Note_off_c, 1, 55, 0
3, 57120, Note_on_c, 1, 50, 100
3, 57360, Note_off_c, 1, 50, 0
3, 57360, Note_on_c, 1, 52, 100
3, 57552, Note_off_c, 1, 52, 0
3, 57552, Note_on_c, 1, 55, 100
3, 57744, Note_off_c, 1, 55, 0
3, 57744, Note_on_c, 1, 40, 100
3, 57840, Note_off_c, 1, 40, 0
3, 57840, Note_on_c, 1, 40, 100
3, 57936, Note_off_c, 1, 40, 0
3, 57936, Note_on_c, 1, 40, 100
3, 58032, Note_off_c, 1, 40, 0
3, 58032, Note_on_c, 1, 40, 100
3, 58128, Note_off_c, 1, 40, 0
3, 58128, Note_on_c, 1, 40, 100
3, 58224, Note_off_c, 1, 40, 0
3, 58224, Note_on_c, 1, 40, 100
3, 58320, Note_off_c, 1, 40, 0
3, 58320, Note_on_c, 1, 40, 100
3, 58416, Note_off_c, 1, 40, 0
3, 58416, Note_on_c, 1, 40, 100
3, 58512, Note_off_c, 1, 40, 0
3, 58512, Note_on_c, 1, 40, 100
3, 58608, Note_off_c, 1, 40, 0
3, 58608, Note_on_c, 1, 40, 100
3, 58704, Note_off_c, 1, 40, 0
3, 58704, Note_on_c, 1, 40, 100
3, 58800, Note_off_c, 1, 40, 0
3, 58800, Note_on_c, 1, 40, 100
3, 58896, Note_off_c, 1, 40, 0
3, 58896, Note_on_c, 1, 45, 100
3, 58992, Note_off_c, 1, 45, 0
3, 58992, Note_on_c, 1, 47, 100
3, 59088, Note_off_c, 1, 47, 0
3, 59088, Note_on_c, 1, 38, 100
3, 59184, Note_off_c, 1, 38, 0
3, 59184, Note_on_c, 1, 52, 100
3, 59280, Note_off_c, 1, 52, 0
3, 59280, Note_on_c, 1, 50, 100
3, 59376, Note_off_c, 1, 50, 0
3, 59376, Note_on_c, 1, 50, 100
3, 59472, Note_off_c, 1, 50, 0
3, 59472, Note_on_c, 1, 50, 100
3, 59568, Note_off_c, 1, 50, 0
3, 59568, Note_on_c, 1, 50, 100
3, 59664, Note_off_c, 1, 50, 0
3, 59664, Note_on_c, 1, 50, 100
3, 59760, Note_off_c, 1, 50, 0
3, 59760, Note_on_c, 1, 50, 100
3, 59856, Note_off_c, 1, 50, 0
3, 59856, Note_on_c, 1, 50, 100
3, 59952, Note_off_c, 1, 50, 0
3, 59952, Note_on_c, 1, 50, 100
3, 60048, Note_off_c, 1, 50, 0
3, 60048, Note_on_c, 1, 55, 100
3, 60144, Note_off_c, 1, 55, 0
3, 60144, Note_on_c, 1, 50, 100
3, 60384, Note_off_c, 1, 50, 0
3, 60384, Note_on_c, 1, 52, 100
3, 60576, Note_off_c, 1, 52, 0
3, 60576, Note_on_c, 1, 55, 100
3, 60768, Note_off_c, 1, 55, 0
3, 60768, Note_on_c, 1, 40, 100
3, 60864, Note_off_c, 1, 40, 0
3, 60864, Note_on_c, 1, 40, 100
3, 60960, Note_off_c, 1, 40, 0
3, 60960, Note_on_c, 1, 40, 100
3, 61056, Note_off_c, 1, 40, 0
3, 61056, Note_on_c, 1, 40, 100
3, 61152, Note_off_c, 1, 40, 0
3, 61152, Note_on_c, 1, 40, 100
3, 61248, Note_off_c, 1, 40, 0
3, 61248, Note_on_c, 1, 40, 100
3, 61344, Note_off_c, 1, 40, 0
3, 61344, Note_on_c, 1, 40, 100
3, 61440, Note_off_c, 1, 40, 0
3, 61440, Note_on_c, 1, 40, 100
3, 61536, Note_off_c, 1, 40, 0
3, 61536, Note_on_c, 1, 40, 100
3, 61632, Note_off_c, 1, 40, 0
3, 61632, Note_on_c, 1, 40, 100
3, 61728, Note_off_c, 1, 40, 0
3, 61728, Note_on_c, 1, 40, 100
3, 61824, Note_off_c, 1, 40, 0
3, 61824, Note_on_c, 1, 40, 100
3, 61920, Note_off_c, 1, 40, 0
3, 61920, Note_on_c, 1, 45, 100
3, 62016, Note_off_c, 1, 45, 0
3, 62016, Note_on_c, 1, 47, 100
3, 62112, Note_off_c, 1, 47, 0
3, 62112, Note_on_c, 1, 38, 100
3, 62208, Note_off_c, 1, 38, 0
3, 62208, Note_on_c, 1, 52, 100
3, 62304, Note_off_c, 1, 52, 0
3, 62304, Note_on_c, 1, 50, 100
3, 62400, Note_off_c, 1, 50, 0
3, 62400, Note_on_c, 1, 50, 100
3, 62496, Note_off_c, 1, 50, 0
3, 62496, Note_on_c, 1, 50, 100
3, 62592, Note_off_c, 1, 50, 0
3, 62592, Note_on_c, 1, 50, 100
3, 62688, Note_off_c, 1, 50, 0
3, 62688, Note_on_c, 1, 50, 100
3, 62784, Note_off_c, 1, 50, 0
3, 62784, Note_on_c, 1, 50, 100
3, 62880, Note_off_c, 1, 50, 0
3, 62880, Note_on_c, 1, 50, 100
3, 62976, Note_off_c, 1, 50, 0
3, 62976, Note_on_c, 1, 50, 100
3, 63072, Note_off_c, 1, 50, 0
3, 63072, Note_on_c, 1, 55, 100
3, 63168, Note_off_c, 1, 55, 0
3, 63168, Note_on_c, 1, 50, 100
3, 63408, Note_off_c, 1, 50, 0
3, 63408, Note_on_c, 1, 52, 100
3, 63600, Note_off_c, 1, 52, 0
3, 63600, Note_on_c, 1, 55, 100
3, 63792, Note_off_c, 1, 55, 0
3, 63792, Note_on_c, 1, 40, 100
3, 63888, Note_off_c, 1, 40, 0
3, 63888, Note_on_c, 1, 40, 100
3, 63984, Note_off_c, 1, 40, 0
3, 63984, Note_on_c, 1, 40, 100
3, 64080, Note_off_c, 1, 40, 0
3, 64080, Note_on_c, 1, 40, 100
3, 64176, Note_off_c, 1, 40, 0
3, 64176, Note_on_c, 1, 40, 100
3, 64272, Note_off_c, 1, 40, 0
3, 64272, Note_on_c, 1, 40, 100
3, 64368, Note_off_c, 1, 40, 0
3, 64368, Note_on_c, 1, 40, 100
3, 64464, Note_off_c, 1, 40, 0
3, 64464, Note_on_c, 1, 40, 100
3, 64560, Note_off_c, 1, 40, 0
3, 64560, Note_on_c, 1, 40, 100
3, 64656, Note_off_c, 1, 40, 0
3, 64656, Note_on_c, 1, 40, 100
3, 64752, Note_off_c, 1, 40, 0
3, 64752, Note_on_c, 1, 40, 100
3, 64848, Note_off_c, 1, 40, 0
3, 64848, Note_on_c, 1, 40, 100
3, 64944, Note_off_c, 1, 40, 0
3, 64944, Note_on_c, 1, 45, 100
3, 65040, Note_off_c, 1, 45, 0
3, 65040, Note_on_c, 1, 47, 100
3, 65136, Note_off_c, 1, 47, 0
3, 65136, Note_on_c, 1, 38, 100
3, 65232, Note_off_c, 1, 38, 0
3, 65232, Note_on_c, 1, 52, 100
3, 65328, Note_off_c, 1, 52, 0
3, 65328, Note_on_c, 1, 50, 100
3, 65424, Note_off_c, 1, 50, 0
3, 65424, Note_on_c, 1, 50, 100
3, 65520, Note_off_c, 1, 50, 0
3, 65520, Note_on_c, 1, 50, 100
3, 65616, Note_off_c, 1, 50, 0
3, 65616, Note_on_c, 1, 50, 100
3, 65712, Note_off_c, 1, 50, 0
3, 65712, Note_on_c, 1, 50, 100
3, 65808, Note_off_c, 1, 50, 0
3, 65808, Note_on_c, 1, 50, 100
3, 65904, Note_off_c, 1, 50, 0
3, 65904, Note_on_c, 1, 50, 100
3, 66000, Note_off_c, 1, 50, 0
3, 66000, Note_on_c, 1, 50, 100
3, 66096, Note_off_c, 1, 50, 0
3, 66096, Note_on_c, 1, 55, 100
3, 66192, Note_off_c, 1, 55, 0
3, 66192, Note_on_c, 1, 50, 100
3, 66432, Note_off_c, 1, 50, 0
3, 66432, Note_on_c, 1, 52, 100
3, 66624, Note_off_c, 1, 52, 0
3, 66624, Note_on_c, 1, 55, 100
3, 66816, Note_off_c, 1, 55, 0
3, 66816, Note_on_c, 1, 40, 100
3, 66912, Note_off_c, 1, 40, 0
3, 66912, Note_on_c, 1, 40, 100
3, 67008, Note_off_c, 1, 40, 0
3, 67008, Note_on_c, 1, 40, 100
3, 67104, Note_off_c, 1, 40, 0
3, 67104, Note_on_c, 1, 40, 100
3, 67200, Note_off_c, 1, 40, 0
3, 67200, Note_on_c, 1, 40, 100
3, 67296, Note_off_c, 1, 40, 0
3, 67296, Note_on_c, 1, 40, 100
3, 67392, Note_off_c, 1, 40, 0
3, 67392, Note_on_c, 1, 40, 100
3, 67488, Note_off_c, 1, 40, 0
3, 67488, Note_on_c, 1, 40, 100
3, 67584, Note_off_c, 1, 40, 0
3, 67584, Note_on_c, 1, 40, 100
3, 67680, Note_off_c, 1, 40, 0
3, 67680, Note_on_c, 1, 40, 100
3, 67776, Note_off_c, 1, 40, 0
3, 67776, Note_on_c, 1, 40, 100
3, 67872, Note_off_c, 1, 40, 0
3, 67872, Note_on_c, 1, 40, 100
3, 67968, Note_off_c, 1, 40, 0
3, 67968, Note_on_c, 1, 45, 100
3, 68064, Note_off_c, 1, 45, 0
3, 68064, Note_on_c, 1, 47, 100
3, 68160, Note_off_c, 1, 47, 0
3, 68160, Note_on_c, 1, 38, 100
3, 68256, Note_off_c, 1, 38, 0
3, 68256, Note_on_c, 1, 52, 100
3, 68352, Note_off_c, 1, 52, 0
3, 68352, Note_on_c, 1, 50, 100
3, 68448, Note_off_c, 1, 50, 0
3, 68448, Note_on_c, 1, 50, 100
3, 68544, Note_off_c, 1, 50, 0
3, 68544, Note_on_c, 1, 50, 100
3, 68640, Note_off_c, 1, 50, 0
3, 68640, Note_on_c, 1, 50, 100
3, 68736, Note_off_c, 1, 50, 0
3, 68736, Note_on_c, 1, 50, 100
3, 68832, Note_off_c, 1, 50, 0
3, 68832, Note_on_c, 1, 50, 100
3, 68928, Note_off_c, 1, 50, 0
3, 68928, Note_on_c, 1, 50, 100
3, 69024, Note_off_c, 1, 50, 0
3, 69024, Note_on_c, 1, 50, 100
3, 69120, Note_off_c, 1, 50, 0
3, 69120, Note_on_c, 1, 55, 100
3, 69216, Note_off_c, 1, 55, 0
3, 69216, Note_on_c, 1, 50, 100
3, 69456, Note_off_c, 1, 50, 0
3, 69456, Note_on_c, 1, 52, 100
3, 69648, Note_off_c, 1, 52, 0
3, 69648, Note_on_c, 1, 55, 100
3, 69840, Note_off_c, 1, 55, 0
3, 69840, Program_c, 1, 30
3, 69840, Note_on_c, 1, 40, 100
3, 69840, Note_on_c, 1, 47, 100
3, 70608, Note_off_c, 1, 47, 0
3, 70608, Note_off_c, 1, 40, 0
3, 70608, Note_on_c, 1, 36, 100
3, 70608, Note_on_c, 1, 43, 100
3, 70992, Note_off_c, 1, 43, 0
3, 70992, Note_off_c, 1, 36, 0
3, 70992, Note_on_c, 1, 38, 100
3, 70992, Note_on_c, 1, 45, 100
3, 71376, Note_off_c, 1, 45, 0
3, 71376, Note_off_c, 1, 38, 0
3, 71376, Note_on_c, 1, 52, 100
3, 71376, Note_on_c, 1, 59, 100
3, 71472, Note_off_c, 1, 59, 0
3, 71472, Note_off_c, 1, 52, 0
3, 71472, Note_on_c, 1, 52, 100
3, 71472, Note_on_c, 1, 59, 100
3, 71568, Note_off_c, 1, 59, 0
3, 71568, Note_off_c, 1, 52, 0
3, 71568, Note_on_c, 1, 52, 100
3, 71568, Note_on_c, 1, 59, 100
3, 71664, Note_off_c, 1, 59, 0
3, 71664, Note_off_c, 1, 52, 0
3, 71664, Note_on_c, 1, 52, 100
3, 71664, Note_on_c, 1, 59, 100
3, 71760, Note_off_c, 1, 59, 0
3, 71760, Note_off_c, 1, 52, 0
3, 71760, Note_on_c, 1, 52, 100
3, 71760, Note_on_c, 1, 59, 100
3, 71856, Note_off_c, 1, 59, 0
3, 71856, Note_off_c, 1, 52, 0
3, 71856, Note_on_c, 1, 52, 100
3, 71856, Note_on_c, 1, 59, 100
3, 71952, Note_off_c, 1, 59, 0
3, 71952, Note_off_c, 1, 52, 0
3, 71952, Note_on_c, 1, 52, 100
3, 71952, Note_on_c, 1, 59, 100
3, 72048, Note_off_c, 1, 59, 0
3, 72048, Note_off_c, 1, 52, 0
3, 72048, Note_on_c, 1, 52, 100
3, 72048, Note_on_c, 1, 59, 100
3, 72144, Note_off_c, 1, 59, 0
3, 72144, Note_off_c, 1, 52, 0
3, 72144, Note_on_c, 1, 52, 100
3, 72144, Note_on_c, 1, 59, 100
3, 72240, Note_off_c, 1, 59, 0
3, 72240, Note_off_c, 1, 52, 0
3, 72240, Note_on_c, 1, 52, 100
3, 72240, Note_on_c, 1, 59, 100
3, 72336, Note_off_c, 1, 59, 0
3, 72336, Note_off_c, 1, 52, 0
3, 72336, Note_on_c, 1, 52, 100
3, 72336, Note_on_c, 1, 59, 100
3, 72432, Note_off_c, 1, 59, 0
3, 72432, Note_off_c, 1, 52, 0
3, 72432, Note_on_c, 1, 52, 100
3, 72432, Note_on_c, 1, 59, 100
3, 72528, Note_off_c, 1, 59, 0
3, 72528, Note_off_c, 1, 52, 0
3, 72528, Note_on_c, 1, 52, 100
3, 72528, Note_on_c, 1, 59, 100
3, 72624, Note_off_c, 1, 59, 0
3, 72624, Note_off_c, 1, 52, 0
3, 72624, Note_on_c, 1, 52, 100
3, 72624, Note_on_c, 1, 59, 100
3, 72720, Note_off_c, 1, 59, 0
3, 72720, Note_off_c, 1, 52, 0
3, 72720, Note_on_c, 1, 52, 100
3, 72720, Note_on_c, 1, 59, 100
3, 72816, Note_off_c, 1, 59, 0
3, 72816, Note_off_c, 1, 52, 0
3, 72816, Note_on_c, 1, 52, 100
3, 72816, Note_on_c, 1, 59, 100
3, 72912, Note_off_c, 1, 59, 0
3, 72912, Note_off_c, 1, 52, 0
3, 72912, Note_on_c, 1, 40, 100
3, 72912, Note_on_c, 1, 47, 100
3, 73680, Note_off_c, 1, 47, 0
3, 73680, Note_off_c, 1, 40, 0
3, 73680, Note_on_c, 1, 36, 100
3, 73680, Note_on_c, 1, 43, 100
3, 74064, Note_off_c, 1, 43, 0
3, 74064, Note_off_c, 1, 36, 0
3, 74064, Note_on_c, 1, 38, 100
3, 74064, Note_on_c, 1, 45, 100
3, 74448, Note_off_c, 1, 45, 0
3, 74448, Note_off_c, 1, 38, 0
3, 74448, Note_on_c, 1, 52, 100
3, 74448, Note_on_c, 1, 59, 100
3, 74544, Note_off_c, 1, 59, 0
3, 74544, Note_off_c, 1, 52, 0
3, 74544, Note_on_c, 1, 52, 100
3, 74544, Note_on_c, 1, 59, 100
3, 74640, Note_off_c, 1, 59, 0
3, 74640, Note_off_c, 1, 52, 0
3, 74640, Note_on_c, 1, 52, 100
3, 74640, Note_on_c, 1, 59, 100
3, 74736, Note_off_c, 1, 59, 0
3, 74736, Note_off_c, 1, 52, 0
3, 74736, Note_on_c, 1, 52, 100
3, 74736, Note_on_c, 1, 59, 100
3, 74832, Note_off_c, 1, 59, 0
3, 74832, Note_off_c, 1, 52, 0
3, 74832, Note_on_c, 1, 52, 100
3, 74832, Note_on_c, 1, 59, 100
3, 74928, Note_off_c, 1, 59, 0
3, 74928, Note_off_c, 1, 52, 0
3, 74928, Note_on_c, 1, 52, 100
3, 74928, Note_on_c, 1, 59, 100
3, 75024, Note_off_c, 1, 59, 0
3, 75024, Note_off_c, 1, 52, 0
3, 75024, Note_on_c, 1, 52, 100
3, 75024, Note_on_c, 1, 59, 100
3, 75120, Note_off_c, 1, 59, 0
3, 75120, Note_off_c, 1, 52, 0
3, 75120, Note_on_c, 1, 52, 100
3, 75120, Note_on_c, 1, 59, 100
3, 75216, Note_off_c, 1, 59, 0
3, 75216, Note_off_c, 1, 52, 0
3, 75216, Note_on_c, 1, 52, 100
3, 75216, Note_on_c, 1, 59, 100
3, 75312, Note_off_c, 1, 59, 0
3, 75312, Note_off_c, 1, 52, 0
3, 75312, Note_on_c, 1, 52, 100
3, 75312, Note_on_c, 1, 59, 100
3, 75408, Note_off_c, 1, 59, 0
3, 75408, Note_off_c, 1, 52, 0
3, 75408, Note_on_c, 1, 52, 100
3, 75408, Note_on_c, 1, 59, 100
3, 75504, Note_off_c, 1, 59, 0
3, 75504, Note_off_c, 1, 52, 0
3, 75504, Note_on_c, 1, 52, 100
3, 75504, Note_on_c, 1, 59, 100
3, 75600, Note_off_c, 1, 59, 0
3, 75600, Note_off_c, 1, 52, 0
3, 75600, Note_on_c, 1, 52, 100
3, 75600, Note_on_c, 1, 59, 100
3, 75696, Note_off_c, 1, 59, 0
3, 75696, Note_off_c, 1, 52, 0
3, 75696, Note_on_c, 1, 52, 100
3, 75696, Note_on_c, 1, 59, 100
3, 75792, Note_off_c, 1, 59, 0
3, 75792, Note_off_c, 1, 52, 0
3, 75792, Note_on_c, 1, 52, 100
3, 75792, Note_on_c, 1, 59, 100
3, 75888, Note_off_c, 1, 59, 0
3, 75888, Note_off_c, 1, 52, 0
3, 75888, Note_on_c, 1, 52, 100
3, 75888, Note_on_c, 1, 59, 100
3, 75984, Note_off_c, 1, 59, 0
3, 75984, Note_off_c, 1, 52, 0
3, 75984, Program_c, 1, 36
3, 75984, Note_on_c, 1, 40, 100
3, 76080, Note_off_c, 1, 40, 0
3, 76080, Note_on_c, 1, 40, 100
3, 76176, Note_off_c, 1, 40, 0
3, 76176, Note_on_c, 1, 40, 100
3, 76272, Note_off_c, 1, 40, 0
3, 76272, Note_on_c, 1, 40, 100
3, 76368, Note_off_c, 1, 40, 0
3, 76368, Note_on_c, 1, 40, 100
3, 76464, Note_off_c, 1, 40, 0
3, 76464, Note_on_c, 1, 40, 100
3, 76560, Note_off_c, 1, 40, 0
3, 76560, Note_on_c, 1, 40, 100
3, 76656, Note_off_c, 1, 40, 0
3, 76656, Note_on_c, 1, 40, 100
3, 76752, Note_off_c, 1, 40, 0
3, 76752, Note_on_c, 1, 40, 100
3, 76848, Note_off_c, 1, 40, 0
3, 76848, Note_on_c, 1, 40, 100
3, 76944, Note_off_c, 1, 40, 0
3, 76944, Note_on_c, 1, 40, 100
3, 77040, Note_off_c, 1, 40, 0
3, 77040, Note_on_c, 1, 40, 100
3, 77136, Note_off_c, 1, 40, 0
3, 77136, Note_on_c, 1, 45, 100
3, 77232, Note_off_c, 1, 45, 0
3, 77232, Note_on_c, 1, 47, 100
3, 77328, Note_off_c, 1, 47, 0
3, 77328, Note_on_c, 1, 38, 100
3, 77424, Note_off_c, 1, 38, 0
3, 77424, Note_on_c, 1, 52, 100
3, 77520, Note_off_c, 1, 52, 0
3, 77520, Note_on_c, 1, 50, 100
3, 77616, Note_off_c, 1, 50, 0
3, 77616, Note_on_c, 1, 50, 100
3, 77712, Note_off_c, 1, 50, 0
3, 77712, Note_on_c, 1, 50, 100
3, 77808, Note_off_c, 1, 50, 0
3, 77808, Note_on_c, 1, 50, 100
3, 77904, Note_off_c, 1, 50, 0
3, 77904, Note_on_c, 1, 50, 100
3, 78000, Note_off_c, 1, 50, 0
3, 78000, Note_on_c, 1, 50, 100
3, 78096, Note_off_c, 1, 50, 0
3, 78096, Note_on_c, 1, 50, 100
3, 78192, Note_off_c, 1, 50, 0
3, 78192, Note_on_c, 1, 50, 100
3, 78288, Note_off_c, 1, 50, 0
3, 78288, Note_on_c, 1, 55, 100
3, 78384, Note_off_c, 1, 55, 0
3, 78384, Note_on_c, 1, 50, 100
3, 78624, Note_off_c, 1, 50, 0
3, 78624, Note_on_c, 1, 52, 100
3, 78816, Note_off_c, 1, 52, 0
3, 78816, Note_on_c, 1, 55, 100
3, 79008, Note_off_c, 1, 55, 0
3, 79008, Note_on_c, 1, 40, 100
3, 79104, Note_off_c, 1, 40, 0
3, 79104, Note_on_c, 1, 40, 100
3, 79200, Note_off_c, 1, 40, 0
3, 79200, Note_on_c, 1, 40, 100
3, 79296, Note_off_c, 1, 40, 0
3, 79296, Note_on_c, 1, 40, 100
3, 79392, Note_off_c, 1, 40, 0
3, 79392, Note_on_c, 1, 40, 100
3, 79488, Note_off_c, 1, 40, 0
3, 79488, Note_on_c, 1, 40, 100
3, 79584, Note_off_c, 1, 40, 0
3, 79584, Note_on_c, 1, 40, 100
3, 79680, Note_off_c, 1, 40, 0
3, 79680, Note_on_c, 1, 40, 100
3, 79776, Note_off_c, 1, 40, 0
3, 79776, Note_on_c, 1, 40, 100
3, 79872, Note_off_c, 1, 40, 0
3, 79872, Note_on_c, 1, 40, 100
3, 79968, Note_off_c, 1, 40, 0
3, 79968, Note_on_c, 1, 40, 100
3, 80064, Note_off_c, 1, 40, 0
3, 80064, Note_on_c, 1, 40, 100
3, 80160, Note_off_c, 1, 40, 0
3, 80160, Note_on_c, 1, 45, 100
3, 80256, Note_off_c, 1, 45, 0
3, 80256, Note_on_c, 1, 47, 100
3, 80352, Note_off_c, 1, 47, 0
3, 80352, Note_on_c, 1, 50, 100
3, 80448, Note_off_c, 1, 50, 0
3, 80448, Note_on_c, 1, 52, 100
3, 80544, Note_off_c, 1, 52, 0
3, 80544, Note_on_c, 1, 50, 100
3, 80640, Note_off_c, 1, 50, 0
3, 80640, Note_on_c, 1, 50, 100
3, 80736, Note_off_c, 1, 50, 0
3, 80736, Note_on_c, 1, 50, 100
3, 80832, Note_off_c, 1, 50, 0
3, 80832, Note_on_c, 1, 50, 100
3, 80928, Note_off_c, 1, 50, 0
3, 80928, Note_on_c, 1, 50, 100
3, 81024, Note_off_c, 1, 50, 0
3, 81024, Note_on_c, 1, 50, 100
3, 81120, Note_off_c, 1, 50, 0
3, 81120, Note_on_c, 1, 50, 100
3, 81216, Note_off_c, 1, 50, 0
3, 81216, Note_on_c, 1, 50, 100
3, 81312, Note_off_c, 1, 50, 0
3, 81312, Note_on_c, 1, 43, 100
3, 81408, Note_off_c, 1, 43, 0
3, 81408, Note_on_c, 1, 38, 100
3, 81648, Note_off_c, 1, 38, 0
3, 81648, Note_on_c, 1, 40, 100
3, 82560, Note_off_c, 1, 40, 0
3, 82560, End_track
4, 0, Start_track
4, 0, Channel_prefix, 2
4, 0, Control_c, 2, 7, 127
4, 0, Control_c, 2, 10, 0
4, 0, Program_c, 2, 30
4, 0, Note_on_c, 2, 40, 100
4, 0, Note_on_c, 2, 47, 100
4, 288, Note_off_c, 2, 47, 0
4, 288, Note_off_c, 2, 40, 0
4, 288, Note_on_c, 2, 40, 100
4, 288, Note_on_c, 2, 47, 100
4, 768, Note_off_c, 2, 47, 0
4, 768, Note_off_c, 2, 40, 0
4, 768, Program_c, 2, 40
4, 768, Note_on_c, 2, 57, 100
4, 864, Note_off_c, 2, 57, 0
4, 864, Note_on_c, 2, 59, 100
4, 960, Note_off_c, 2, 59, 0
4, 960, Note_on_c, 2, 62, 100
4, 1056, Note_off_c, 2, 62, 0
4, 1056, Note_on_c, 2, 64, 100
4, 1152, Note_off_c, 2, 64, 0
4, 1152, Note_on_c, 2, 57, 100
4, 1248, Note_off_c, 2, 57, 0
4, 1248, Note_on_c, 2, 59, 100
4, 1344, Note_off_c, 2, 59, 0
4, 1344, Note_on_c, 2, 62, 100
4, 1440, Note_off_c, 2, 62, 0
4, 1440, Note_on_c, 2, 64, 100
4, 1536, Note_off_c, 2, 64, 0
4, 1536, Program_c, 2, 30
4, 1536, Note_on_c, 2, 40, 100
4, 1536, Note_on_c, 2, 47, 100
4, 1824, Note_off_c, 2, 47, 0
4, 1824, Note_off_c, 2, 40, 0
4, 1824, Note_on_c, 2, 40, 100
4, 1824, Note_on_c, 2, 47, 100
4, 2304, Note_off_c, 2, 47, 0
4, 2304, Note_off_c, 2, 40, 0
4, 2304, Program_c, 2, 40
4, 2304, Note_on_c, 2, 57, 100
4, 2400, Note_off_c, 2, 57, 0
4, 2400, Note_on_c, 2, 59, 100
4, 2496, Note_off_c, 2, 59, 0
4, 2496, Note_on_c, 2, 62, 100
4, 2592, Note_off_c, 2, 62, 0
4, 2592, Note_on_c, 2, 64, 100
4, 2688, Note_off_c, 2, 64, 0
4, 2688, Note_on_c, 2, 57, 100
4, 2784, Note_off_c, 2, 57, 0
4, 2784, Note_on_c, 2, 59, 100
4, 2880, Note_off_c, 2, 59, 0
4, 2880, Note_on_c, 2, 62, 100
4, 2976, Note_off_c, 2, 62, 0
4, 2976, Note_on_c, 2, 64, 100
4, 3072, Note_off_c, 2, 64, 0
4, 3072, Program_c, 2, 30
4, 3072, Note_on_c, 2, 40, 100
4, 3072, Note_on_c, 2, 47, 100
4, 3360, Note_off_c, 2, 47, 0
4, 3360, Note_off_c, 2, 40, 0
4, 3360, Note_on_c, 2, 40, 100
4, 3360, Note_on_c, 2, 47, 100
4, 3840, Note_off_c, 2, 47, 0
4, 3840, Note_off_c, 2, 40, 0
4, 3840, Program_c, 2, 40
4, 3840, Note_on_c, 2, 57, 100
4, 3936, Note_off_c, 2, 57, 0
4, 3936, Note_on_c, 2, 59, 100
4, 4032, Note_off_c, 2, 59, 0
4, 4032, Note_on_c, 2, 62, 100
4, 4128, Note_off_c, 2, 62, 0
4, 4128, Note_on_c, 2, 64, 100
4, 4224, Note_off_c, 2, 64, 0
4, 4224, Note_on_c, 2, 57, 100
4, 4320, Note_off_c, 2, 57, 0
4, 4320, Note_on_c, 2, 59, 100
4, 4416, Note_off_c, 2, 59, 0
4, 4416, Note_on_c, 2, 62, 100
4, 4512, Note_off_c, 2, 62, 0
4, 4512, Note_on_c, 2, 64, 100
4, 4608, Note_off_c, 2, 64, 0
4, 4608, Program_c, 2, 30
4, 4608, Note_on_c, 2, 40, 100
4, 4608, Note_on_c, 2, 47, 100
4, 4896, Note_off_c, 2, 47, 0
4, 4896, Note_off_c, 2, 40, 0
4, 4896, Note_on_c, 2, 40, 100
4, 4896, Note_on_c, 2, 47, 100
4, 5376, Note_off_c, 2, 47, 0
4, 5376, Note_off_c, 2, 40, 0
4, 5376, Program_c, 2, 40
4, 5376, Note_on_c, 2, 57, 100
4, 5472, Note_off_c, 2, 57, 0
4, 5472, Note_on_c, 2, 59, 100
4, 5568, Note_off_c, 2, 59, 0
4, 5568, Note_on_c, 2, 62, 100
4, 5664, Note_off_c, 2, 62, 0
4, 5664, Note_on_c, 2, 64, 100
4, 5760, Note_off_c, 2, 64, 0
4, 5760, Note_on_c, 2, 57, 100
4, 5856, Note_off_c, 2, 57, 0
4, 5856, Note_on_c, 2, 59, 100
4, 5952, Note_off_c, 2, 59, 0
4, 5952, Note_on_c, 2, 62, 100
4, 6048, Note_off_c, 2, 62, 0
4, 6048, Note_on_c, 2, 64, 100
4, 6144, Note_off_c, 2, 64, 0
4, 6144, Program_c, 2, 30
4, 6144, Note_on_c, 2, 52, 100
4, 6144, Note_on_c, 2, 59, 100
4, 6240, Note_off_c, 2, 59, 0
4, 6240, Note_off_c, 2, 52, 0
4, 6240, Note_on_c, 2, 52, 100
4, 6240, Note_on_c, 2, 59, 100
4, 6336, Note_off_c, 2, 59, 0
4, 6336, Note_off_c, 2, 52, 0
4, 6336, Note_on_c, 2, 52, 100
4, 6336, Note_on_c, 2, 59, 100
4, 6432, Note_off_c, 2, 59, 0
4, 6432, Note_off_c, 2, 52, 0
4, 6432, Note_on_c, 2, 52, 100
4, 6432, Note_on_c, 2, 59, 100
4, 6528, Note_off_c, 2, 59, 0
4, 6528, Note_off_c, 2, 52, 0
4, 6528, Note_on_c, 2, 52, 100
4, 6528, Note_on_c, 2, 59, 100
4, 6624, Note_off_c, 2, 59, 0
4, 6624, Note_off_c, 2, 52, 0
4, 6624, Note_on_c, 2, 52, 100
4, 6624, Note_on_c, 2, 59, 100
4, 6720, Note_off_c, 2, 59, 0
4, 6720, Note_off_c, 2, 52, 0
4, 6720, Note_on_c, 2, 52, 100
4, 6720, Note_on_c, 2, 59, 100
4, 6816, Note_off_c, 2, 59, 0
4, 6816, Note_off_c, 2, 52, 0
4, 6816, Note_on_c, 2, 52, 100
4, 6816, Note_on_c, 2, 59, 100
4, 6912, Note_off_c, 2, 59, 0
4, 6912, Note_off_c, 2, 52, 0
4, 6912, Note_on_c, 2, 52, 100
4, 6912, Note_on_c, 2, 59, 100
4, 7008, Note_off_c, 2, 59, 0
4, 7008, Note_off_c, 2, 52, 0
4, 7008, Note_on_c, 2, 52, 100
4, 7008, Note_on_c, 2, 59, 100
4, 7104, Note_off_c, 2, 59, 0
4, 7104, Note_off_c, 2, 52, 0
4, 7104, Note_on_c, 2, 52, 100
4, 7104, Note_on_c, 2, 59, 100
4, 7200, Note_off_c, 2, 59, 0
4, 7200, Note_off_c, 2, 52, 0
4, 7200, Note_on_c, 2, 52, 100
4, 7200, Note_on_c, 2, 59, 100
4, 7296, Note_off_c, 2, 59, 0
4, 7296, Note_off_c, 2, 52, 0
4, 7296, Note_on_c, 2, 52, 100
4, 7296, Note_on_c, 2, 59, 100
4, 7392, Note_off_c, 2, 59, 0
4, 7392, Note_off_c, 2, 52, 0
4, 7392, Note_on_c, 2, 52, 100
4, 7392, Note_on_c, 2, 59, 100
4, 7488, Note_off_c, 2, 59, 0
4, 7488, Note_off_c, 2, 52, 0
4, 7488, Note_on_c, 2, 52, 100
4, 7488, Note_on_c, 2, 59, 100
4, 7584, Note_off_c, 2, 59, 0
4, 7584, Note_off_c, 2, 52, 0
4, 7584, Note_on_c, 2, 52, 100
4, 7584, Note_on_c, 2, 59, 100
4, 7680, Note_off_c, 2, 59, 0
4, 7680, Note_off_c, 2, 52, 0
4, 7680, Note_on_c, 2, 50, 100
4, 7680, Note_on_c, 2, 57, 100
4, 7776, Note_off_c, 2, 57, 0
4, 7776, Note_off_c, 2, 50, 0
4, 7776, Note_on_c, 2, 50, 100
4, 7776, Note_on_c, 2, 57, 100
4, 7872, Note_off_c, 2, 57, 0
4, 7872, Note_off_c, 2, 50, 0
4, 7872, Note_on_c, 2, 50, 100
4, 7872, Note_on_c, 2, 57, 100
4, 7968, Note_off_c, 2, 57, 0
4, 7968, Note_off_c, 2, 50, 0
4, 7968, Note_on_c, 2, 50, 100
4, 7968, Note_on_c, 2, 57, 100
4, 8064, Note_off_c, 2, 57, 0
4, 8064, Note_off_c, 2, 50, 0
4, 8064, Note_on_c, 2, 50, 100
4, 8064, Note_on_c, 2, 57, 100
4, 8160, Note_off_c, 2, 57, 0
4, 8160, Note_off_c, 2, 50, 0
4, 8160, Note_on_c, 2, 50, 100
4, 8160, Note_on_c, 2, 57, 100
4, 8256, Note_off_c, 2, 57, 0
4, 8256, Note_off_c, 2, 50, 0
4, 8256, Note_on_c, 2, 50, 100
4, 8256, Note_on_c, 2, 57, 100
4, 8352, Note_off_c, 2, 57, 0
4, 8352, Note_off_c, 2, 50, 0
4, 8352, Note_on_c, 2, 50, 100
4, 8352, Note_on_c, 2, 57, 100
4, 8448, Note_off_c, 2, 57, 0
4, 8448, Note_off_c, 2, 50, 0
4, 8448, Note_on_c, 2, 43, 100
4, 8448, Note_on_c, 2, 50, 100
4, 8544, Note_off_c, 2, 50, 0
4, 8544, Note_off_c, 2, 43, 0
4, 8544, Note_on_c, 2, 38, 100
4, 8544, Note_on_c, 2, 45, 100
4, 8784, Note_off_c, 2, 45, 0
4, 8784, Note_off_c, 2, 38, 0
4, 8784, Note_on_c, 2, 40, 100
4, 8784, Note_on_c, 2, 47, 100
4, 8976, Note_off_c, 2, 47, 0
4, 8976, Note_off_c, 2, 40, 0
4, 8976, Note_on_c, 2, 55, 100
4, 8976, Note_on_c, 2, 62, 100
4, 9168, Note_off_c, 2, 62, 0
4, 9168, Note_off_c, 2, 55, 0
4, 9168, Note_on_c, 2, 52, 100
4, 9168, Note_on_c, 2, 59, 100
4, 9264, Note_off_c, 2, 59, 0
4, 9264, Note_off_c, 2, 52, 0
4, 9264, Note_on_c, 2, 52, 100
4, 9264, Note_on_c, 2, 59, 100
4, 9360, Note_off_c, 2, 59, 0
4, 9360, Note_off_c, 2, 52, 0
4, 9360, Note_on_c, 2, 52, 100
4, 9360, Note_on_c, 2, 59, 100
4, 9456, Note_off_c, 2, 59, 0
4, 9456, Note_off_c, 2, 52, 0
4, 9456, Note_on_c, 2, 52, 100
4, 9456, Note_on_c, 2, 59, 100
4, 9552, Note_off_c, 2, 59, 0
4, 9552, Note_off_c, 2, 52, 0
4, 9552, Note_on_c, 2, 52, 100
4, 9552, Note_on_c, 2, 59, 100
4, 9648, Note_off_c, 2, 59, 0
4, 9648, Note_off_c, 2, 52, 0
4, 9648, Note_on_c, 2, 52, 100
4, 9648, Note_on_c, 2, 59, 100
4, 9744, Note_off_c, 2, 59, 0
4, 9744, Note_off_c, 2, 52, 0
4, 9744, Note_on_c, 2, 52, 100
4, 9744, Note_on_c, 2, 59, 100
4, 9840, Note_off_c, 2, 59, 0
4, 9840, Note_off_c, 2, 52, 0
4, 9840, Note_on_c, 2, 52, 100
4, 9840, Note_on_c, 2, 59, 100
4, 9936, Note_off_c, 2, 59, 0
4, 9936, Note_off_c, 2, 52, 0
4, 9936, Note_on_c, 2, 52, 100
4, 9936, Note_on_c, 2, 59, 100
4, 10032, Note_off_c, 2, 59, 0
4, 10032, Note_off_c, 2, 52, 0
4, 10032, Note_on_c, 2, 52, 100
4, 10032, Note_on_c, 2, 59, 100
4, 10128, Note_off_c, 2, 59, 0
4, 10128, Note_off_c, 2, 52, 0
4, 10128, Note_on_c, 2, 52, 100
4, 10128, Note_on_c, 2, 59, 100
4, 10224, Note_off_c, 2, 59, 0
4, 10224, Note_off_c, 2, 52, 0
4, 10224, Note_on_c, 2, 52, 100
4, 10224, Note_on_c, 2, 59, 100
4, 10320, Note_off_c, 2, 59, 0
4, 10320, Note_off_c, 2, 52, 0
4, 10320, Note_on_c, 2, 52, 100
4, 10320, Note_on_c, 2, 59, 100
4, 10416, Note_off_c, 2, 59, 0
4, 10416, Note_off_c, 2, 52, 0
4, 10416, Note_on_c, 2, 52, 100
4, 10416, Note_on_c, 2, 59, 100
4, 10512, Note_off_c, 2, 59, 0
4, 10512, Note_off_c, 2, 52, 0
4, 10512, Note_on_c, 2, 52, 100
4, 10512, Note_on_c, 2, 59, 100
4, 10608, Note_off_c, 2, 59, 0
4, 10608, Note_off_c, 2, 52, 0
4, 10608, Note_on_c, 2, 52, 100
4, 10608, Note_on_c, 2, 59, 100
4, 10704, Note_off_c, 2, 59, 0
4, 10704, Note_off_c, 2, 52, 0
4, 10704, Note_on_c, 2, 50, 100
4, 10704, Note_on_c, 2, 57, 100
4, 10800, Note_off_c, 2, 57, 0
4, 10800, Note_off_c, 2, 50, 0
4, 10800, Note_on_c, 2, 50, 100
4, 10800, Note_on_c, 2, 57, 100
4, 10896, Note_off_c, 2, 57, 0
4, 10896, Note_off_c, 2, 50, 0
4, 10896, Note_on_c, 2, 50, 100
4, 10896, Note_on_c, 2, 57, 100
4, 10992, Note_off_c, 2, 57, 0
4, 10992, Note_off_c, 2, 50, 0
4, 10992, Note_on_c, 2, 50, 100
4, 10992, Note_on_c, 2, 57, 100
4, 11088, Note_off_c, 2, 57, 0
4, 11088, Note_off_c, 2, 50, 0
4, 11088, Note_on_c, 2, 50, 100
4, 11088, Note_on_c, 2, 57, 100
4, 11184, Note_off_c, 2, 57, 0
4, 11184, Note_off_c, 2, 50, 0
4, 11184, Note_on_c, 2, 50, 100
4, 11184, Note_on_c, 2, 57, 100
4, 11280, Note_off_c, 2, 57, 0
4, 11280, Note_off_c, 2, 50, 0
4, 11280, Note_on_c, 2, 50, 100
4, 11280, Note_on_c, 2, 57, 100
4, 11376, Note_off_c, 2, 57, 0
4, 11376, Note_off_c, 2, 50, 0
4, 11376, Note_on_c, 2, 50, 100
4, 11376, Note_on_c, 2, 57, 100
4, 11472, Note_off_c, 2, 57, 0
4, 11472, Note_off_c, 2, 50, 0
4, 11472, Note_on_c, 2, 43, 100
4, 11472, Note_on_c, 2, 50, 100
4, 11568, Note_off_c, 2, 50, 0
4, 11568, Note_off_c, 2, 43, 0
4, 11568, Note_on_c, 2, 38, 100
4, 11568, Note_on_c, 2, 45, 100
4, 11808, Note_off_c, 2, 45, 0
4, 11808, Note_off_c, 2, 38, 0
4, 11808, Note_on_c, 2, 40, 100
4, 11808, Note_on_c, 2, 47, 100
4, 12000, Note_off_c, 2, 47, 0
4, 12000, Note_off_c, 2, 40, 0
4, 12000, Note_on_c, 2, 55, 100
4, 12000, Note_on_c, 2, 62, 100
4, 12192, Note_off_c, 2, 62, 0
4, 12192, Note_off_c, 2, 55, 0
4, 12192, Program_c, 2, 36
4, 12192, Note_on_c, 2, 40, 100
4, 12288, Note_off_c, 2, 40, 0
4, 12288, Note_on_c, 2, 40, 100
4, 12384, Note_off_c, 2, 40, 0
4, 12384, Note_on_c, 2, 40, 100
4, 12480, Note_off_c, 2, 40, 0
4, 12480, Note_on_c, 2, 40, 100
4, 12576, Note_off_c, 2, 40, 0
4, 12576, Note_on_c, 2, 40, 100
4, 12672, Note_off_c, 2, 40, 0
4, 12672, Note_on_c, 2, 40, 100
4, 12768, Note_off_c, 2, 40, 0
4, 12768, Note_on_c, 2, 40, 100
4, 12864, Note_off_c, 2, 40, 0
4, 12864, Note_on_c, 2, 40, 100
4, 12960, Note_off_c, 2, 40, 0
4, 12960, Note_on_c, 2, 36, 100
4, 13056, Note_off_c, 2, 36, 0
4, 13056, Note_on_c, 2, 36, 100
4, 13152, Note_off_c, 2, 36, 0
4, 13152, Note_on_c, 2, 36, 100
4, 13248, Note_off_c, 2, 36, 0
4, 13248, Note_on_c, 2, 36, 100
4, 13344, Note_off_c, 2, 36, 0
4, 13344, Note_on_c, 2, 50, 100
4, 13440, Note_off_c, 2, 50, 0
4, 13440, Note_on_c, 2, 50, 100
4, 13536, Note_off_c, 2, 50, 0
4, 13536, Note_on_c, 2, 50, 100
4, 13632, Note_off_c, 2, 50, 0
4, 13632, Note_on_c, 2, 50, 100
4, 13728, Note_off_c, 2, 50, 0
4, 13728, Note_on_c, 2, 40, 100
4, 13824, Note_off_c, 2, 40, 0
4, 13824, Note_on_c, 2, 40, 100
4, 13920, Note_off_c, 2, 40, 0
4, 13920, Note_on_c, 2, 40, 100
4, 14016, Note_off_c, 2, 40, 0
4, 14016, Note_on_c, 2, 40, 100
4, 14112, Note_off_c, 2, 40, 0
4, 14112, Note_on_c, 2, 40, 100
4, 14208, Note_off_c, 2, 40, 0
4, 14208, Note_on_c, 2, 40, 100
4, 14304, Note_off_c, 2, 40, 0
4, 14304, Note_on_c, 2, 40, 100
4, 14400, Note_off_c, 2, 40, 0
4, 14400, Note_on_c, 2, 40, 100
4, 14496, Note_off_c, 2, 40, 0
4, 14496, Note_on_c, 2, 40, 100
4, 14592, Note_off_c, 2, 40, 0
4, 14592, Note_on_c, 2, 40, 100
4, 14688, Note_off_c, 2, 40, 0
4, 14688, Note_on_c, 2, 40, 100
4, 14784, Note_off_c, 2, 40, 0
4, 14784, Note_on_c, 2, 40, 100
4, 14880, Note_off_c, 2, 40, 0
4, 14880, Note_on_c, 2, 45, 100
4, 14976, Note_off_c, 2, 45, 0
4, 14976, Note_on_c, 2, 47, 100
4, 15072, Note_off_c, 2, 47, 0
4, 15072, Note_on_c, 2, 38, 100
4, 15168, Note_off_c, 2, 38, 0
4, 15168, Note_on_c, 2, 40, 100
4, 15264, Note_off_c, 2, 40, 0
4, 15264, Note_on_c, 2, 40, 100
4, 15360, Note_off_c, 2, 40, 0
4, 15360, Note_on_c, 2, 40, 100
4, 15456, Note_off_c, 2, 40, 0
4, 15456, Note_on_c, 2, 40, 100
4, 15552, Note_off_c, 2, 40, 0
4, 15552, Note_on_c, 2, 40, 100
4, 15648, Note_off_c, 2, 40, 0
4, 15648, Note_on_c, 2, 40, 100
4, 15744, Note_off_c, 2, 40, 0
4, 15744, Note_on_c, 2, 40, 100
4, 15840, Note_off_c, 2, 40, 0
4, 15840, Note_on_c, 2, 40, 100
4, 15936, Note_off_c, 2, 40, 0
4, 15936, Note_on_c, 2, 40, 100
4, 16032, Note_off_c, 2, 40, 0
4, 16032, Note_on_c, 2, 36, 100
4, 16128, Note_off_c, 2, 36, 0
4, 16128, Note_on_c, 2, 36, 100
4, 16224, Note_off_c, 2, 36, 0
4, 16224, Note_on_c, 2, 36, 100
4, 16320, Note_off_c, 2, 36, 0
4, 16320, Note_on_c, 2, 36, 100
4, 16416, Note_off_c, 2, 36, 0
4, 16416, Note_on_c, 2, 50, 100
4, 16512, Note_off_c, 2, 50, 0
4, 16512, Note_on_c, 2, 50, 100
4, 16608, Note_off_c, 2, 50, 0
4, 16608, Note_on_c, 2, 50, 100
4, 16704, Note_off_c, 2, 50, 0
4, 16704, Note_on_c, 2, 50, 100
4, 16800, Note_off_c, 2, 50, 0
4, 16800, Note_on_c, 2, 40, 100
4, 16896, Note_off_c, 2, 40, 0
4, 16896, Note_on_c, 2, 40, 100
4, 16992, Note_off_c, 2, 40, 0
4, 16992, Note_on_c, 2, 40, 100
4, 17088, Note_off_c, 2, 40, 0
4, 17088, Note_on_c, 2, 40, 100
4, 17184, Note_off_c, 2, 40, 0
4, 17184, Note_on_c, 2, 40, 100
4, 17280, Note_off_c, 2, 40, 0
4, 17280, Note_on_c, 2, 40, 100
4, 17376, Note_off_c, 2, 40, 0
4, 17376, Note_on_c, 2, 40, 100
4, 17472, Note_off_c, 2, 40, 0
4, 17472, Note_on_c, 2, 40, 100
4, 17568, Note_off_c, 2, 40, 0
4, 17568, Note_on_c, 2, 40, 100
4, 17664, Note_off_c, 2, 40, 0
4, 17664, Note_on_c, 2, 40, 100
4, 17760, Note_off_c, 2, 40, 0
4, 17760, Note_on_c, 2, 40, 100
4, 17856, Note_off_c, 2, 40, 0
4, 17856, Note_on_c, 2, 40, 100
4, 17952, Note_off_c, 2, 40, 0
4, 17952, Note_on_c, 2, 45, 100
4, 18048, Note_off_c, 2, 45, 0
4, 18048, Note_on_c, 2, 47, 100
4, 18144, Note_off_c, 2, 47, 0
4, 18144, Note_on_c, 2, 38, 100
4, 18240, Note_off_c, 2, 38, 0
4, 18240, Note_on_c, 2, 40, 100
4, 18336, Note_off_c, 2, 40, 0
4, 18336, Program_c, 2, 30
4, 18336, Note_on_c, 2, 52, 100
4, 18336, Note_on_c, 2, 59, 100
4, 18432, Note_off_c, 2, 59, 0
4, 18432, Note_off_c, 2, 52, 0
4, 18432, Note_on_c, 2, 52, 100
4, 18432, Note_on_c, 2, 59, 100
4, 18528, Note_off_c, 2, 59, 0
4, 18528, Note_off_c, 2, 52, 0
4, 18528, Note_on_c, 2, 52, 100
4, 18528, Note_on_c, 2, 59, 100
4, 18624, Note_off_c, 2, 59, 0
4, 18624, Note_off_c, 2, 52, 0
4, 18624, Note_on_c, 2, 52, 100
4, 18624, Note_on_c, 2, 59, 100
4, 18720, Note_off_c, 2, 59, 0
4, 18720, Note_off_c, 2, 52, 0
4, 18720, Note_on_c, 2, 52, 100
4, 18720, Note_on_c, 2, 59, 100
4, 18816, Note_off_c, 2, 59, 0
4, 18816, Note_off_c, 2, 52, 0
4, 18816, Note_on_c, 2, 52, 100
4, 18816, Note_on_c, 2, 59, 100
4, 18912, Note_off_c, 2, 59, 0
4, 18912, Note_off_c, 2, 52, 0
4, 18912, Note_on_c, 2, 52, 100
4, 18912, Note_on_c, 2, 59, 100
4, 19008, Note_off_c, 2, 59, 0
4, 19008, Note_off_c, 2, 52, 0
4, 19008, Note_on_c, 2, 52, 100
4, 19008, Note_on_c, 2, 59, 100
4, 19104, Note_off_c, 2, 59, 0
4, 19104, Note_off_c, 2, 52, 0
4, 19104, Note_on_c, 2, 52, 100
4, 19104, Note_on_c, 2, 59, 100
4, 19200, Note_off_c, 2, 59, 0
4, 19200, Note_off_c, 2, 52, 0
4, 19200, Note_on_c, 2, 52, 100
4, 19200, Note_on_c, 2, 59, 100
4, 19296, Note_off_c, 2, 59, 0
4, 19296, Note_off_c, 2, 52, 0
4, 19296, Note_on_c, 2, 52, 100
4, 19296, Note_on_c, 2, 59, 100
4, 19392, Note_off_c, 2, 59, 0
4, 19392, Note_off_c, 2, 52, 0
4, 19392, Note_on_c, 2, 52, 100
4, 19392, Note_on_c, 2, 59, 100
4, 19488, Note_off_c, 2, 59, 0
4, 19488, Note_off_c, 2, 52, 0
4, 19488, Note_on_c, 2, 52, 100
4, 19488, Note_on_c, 2, 59, 100
4, 19584, Note_off_c, 2, 59, 0
4, 19584, Note_off_c, 2, 52, 0
4, 19584, Note_on_c, 2, 52, 100
4, 19584, Note_on_c, 2, 59, 100
4, 19680, Note_off_c, 2, 59, 0
4, 19680, Note_off_c, 2, 52, 0
4, 19680, Note_on_c, 2, 52, 100
4, 19680, Note_on_c, 2, 59, 100
4, 19776, Note_off_c, 2, 59, 0
4, 19776, Note_off_c, 2, 52, 0
4, 19776, Note_on_c, 2, 52, 100
4, 19776, Note_on_c, 2, 59, 100
4, 19872, Note_off_c, 2, 59, 0
4, 19872, Note_off_c, 2, 52, 0
4, 19872, Note_on_c, 2, 50, 100
4, 19872, Note_on_c, 2, 57, 100
4, 19968, Note_off_c, 2, 57, 0
4, 19968, Note_off_c, 2, 50, 0
4, 19968, Note_on_c, 2, 50, 100
4, 19968, Note_on_c, 2, 57, 100
4, 20064, Note_off_c, 2, 57, 0
4, 20064, Note_off_c, 2, 50, 0
4, 20064, Note_on_c, 2, 50, 100
4, 20064, Note_on_c, 2, 57, 100
4, 20160, Note_off_c, 2, 57, 0
4, 20160, Note_off_c, 2, 50, 0
4, 20160, Note_on_c, 2, 50, 100
4, 20160, Note_on_c, 2, 57, 100
4, 20256, Note_off_c, 2, 57, 0
4, 20256, Note_off_c, 2, 50, 0
4, 20256, Note_on_c, 2, 50, 100
4, 20256, Note_on_c, 2, 57, 100
4, 20352, Note_off_c, 2, 57, 0
4, 20352, Note_off_c, 2, 50, 0
4, 20352, Note_on_c, 2, 50, 100
4, 20352, Note_on_c, 2, 57, 100
4, 20448, Note_off_c, 2, 57, 0
4, 20448, Note_off_c, 2, 50, 0
4, 20448, Note_on_c, 2, 50, 100
4, 20448, Note_on_c, 2, 57, 100
4, 20544, Note_off_c, 2, 57, 0
4, 20544, Note_off_c, 2, 50, 0
4, 20544, Note_on_c, 2, 50, 100
4, 20544, Note_on_c, 2, 57, 100
4, 20640, Note_off_c, 2, 57, 0
4, 20640, Note_off_c, 2, 50, 0
4, 20640, Note_on_c, 2, 43, 100
4, 20640, Note_on_c, 2, 50, 100
4, 20736, Note_off_c, 2, 50, 0
4, 20736, Note_off_c, 2, 43, 0
4, 20736, Note_on_c, 2, 38, 100
4, 20736, Note_on_c, 2, 45, 100
4, 20976, Note_off_c, 2, 45, 0
4, 20976, Note_off_c, 2, 38, 0
4, 20976, Note_on_c, 2, 40, 100
4, 20976, Note_on_c, 2, 47, 100
4, 21168, Note_off_c, 2, 47, 0
4, 21168, Note_off_c, 2, 40, 0
4, 21168, Note_on_c, 2, 55, 100
4, 21168, Note_on_c, 2, 62, 100
4, 21360, Note_off_c, 2, 62, 0
4, 21360, Note_off_c, 2, 55, 0
4, 21360, Note_on_c, 2, 52, 100
4, 21360, Note_on_c, 2, 59, 100
4, 21456, Note_off_c, 2, 59, 0
4, 21456, Note_off_c, 2, 52, 0
4, 21456, Note_on_c, 2, 52, 100
4, 21456, Note_on_c, 2, 59, 100
4, 21552, Note_off_c, 2, 59, 0
4, 21552, Note_off_c, 2, 52, 0
4, 21552, Note_on_c, 2, 52, 100
4, 21552, Note_on_c, 2, 59, 100
4, 21648, Note_off_c, 2, 59, 0
4, 21648, Note_off_c, 2, 52, 0
4, 21648, Note_on_c, 2, 52, 100
4, 21648, Note_on_c, 2, 59, 100
4, 21744, Note_off_c, 2, 59, 0
4, 21744, Note_off_c, 2, 52, 0
4, 21744, Note_on_c, 2, 52, 100
4, 21744, Note_on_c, 2, 59, 100
4, 21840, Note_off_c, 2, 59, 0
4, 21840, Note_off_c, 2, 52, 0
4, 21840, Note_on_c, 2, 52, 100
4, 21840, Note_on_c, 2, 59, 100
4, 21936, Note_off_c, 2, 59, 0
4, 21936, Note_off_c, 2, 52, 0
4, 21936, Note_on_c, 2, 52, 100
4, 21936, Note_on_c, 2, 59, 100
4, 22032, Note_off_c, 2, 59, 0
4, 22032, Note_off_c, 2, 52, 0
4, 22032, Note_on_c, 2, 52, 100
4, 22032, Note_on_c, 2, 59, 100
4, 22128, Note_off_c, 2, 59, 0
4, 22128, Note_off_c, 2, 52, 0
4, 22128, Note_on_c, 2, 52, 100
4, 22128, Note_on_c, 2, 59, 100
4, 22224, Note_off_c, 2, 59, 0
4, 22224, Note_off_c, 2, 52, 0
4, 22224, Note_on_c, 2, 52, 100
4, 22224, Note_on_c, 2, 59, 100
4, 22320, Note_off_c, 2, 59, 0
4, 22320, Note_off_c, 2, 52, 0
4, 22320, Note_on_c, 2, 52, 100
4, 22320, Note_on_c, 2, 59, 100
4, 22416, Note_off_c, 2, 59, 0
4, 22416, Note_off_c, 2, 52, 0
4, 22416, Note_on_c, 2, 52, 100
4, 22416, Note_on_c, 2, 59, 100
4, 22512, Note_off_c, 2, 59, 0
4, 22512, Note_off_c, 2, 52, 0
4, 22512, Note_on_c, 2, 52, 100
4, 22512, Note_on_c, 2, 59, 100
4, 22608, Note_off_c, 2, 59, 0
4, 22608, Note_off_c, 2, 52, 0
4, 22608, Note_on_c, 2, 52, 100
4, 22608, Note_on_c, 2, 59, 100
4, 22704, Note_off_c, 2, 59, 0
4, 22704, Note_off_c, 2, 52, 0
4, 22704, Note_on_c, 2, 52, 100
4, 22704, Note_on_c, 2, 59, 100
4, 22800, Note_off_c, 2, 59, 0
4, 22800, Note_off_c, 2, 52, 0
4, 22800, Note_on_c, 2, 52, 100
4, 22800, Note_on_c, 2, 59, 100
4, 22896, Note_off_c, 2, 59, 0
4, 22896, Note_off_c, 2, 52, 0
4, 22896, Note_on_c, 2, 50, 100
4, 22896, Note_on_c, 2, 57, 100
4, 22992, Note_off_c, 2, 57, 0
4, 22992, Note_off_c, 2, 50, 0
4, 22992, Note_on_c, 2, 50, 100
4, 22992, Note_on_c, 2, 57, 100
4, 23088, Note_off_c, 2, 57, 0
4, 23088, Note_off_c, 2, 50, 0
4, 23088, Note_on_c, 2, 50, 100
4, 23088, Note_on_c, 2, 57, 100
4, 23184, Note_off_c, 2, 57, 0
4, 23184, Note_off_c, 2, 50, 0
4, 23184, Note_on_c, 2, 50, 100
4, 23184, Note_on_c, 2, 57, 100
4, 23280, Note_off_c, 2, 57, 0
4, 23280, Note_off_c, 2, 50, 0
4, 23280, Note_on_c, 2, 50, 100
4, 23280, Note_on_c, 2, 57, 100
4, 23376, Note_off_c, 2, 57, 0
4, 23376, Note_off_c, 2, 50, 0
4, 23376, Note_on_c, 2, 50, 100
4, 23376, Note_on_c, 2, 57, 100
4, 23472, Note_off_c, 2, 57, 0
4, 23472, Note_off_c, 2, 50, 0
4, 23472, Note_on_c, 2, 50, 100
4, 23472, Note_on_c, 2, 57, 100
4, 23568, Note_off_c, 2, 57, 0
4, 23568, Note_off_c, 2, 50, 0
4, 23568, Note_on_c, 2, 50, 100
4, 23568, Note_on_c, 2, 57, 100
4, 23664, Note_off_c, 2, 57, 0
4, 23664, Note_off_c, 2, 50, 0
4, 23664, Note_on_c, 2, 43, 100
4, 23664, Note_on_c, 2, 50, 100
4, 23760, Note_off_c, 2, 50, 0
4, 23760, Note_off_c, 2, 43, 0
4, 23760, Note_on_c, 2, 38, 100
4, 23760, Note_on_c, 2, 45, 100
4, 24000, Note_off_c, 2, 45, 0
4, 24000, Note_off_c, 2, 38, 0
4, 24000, Note_on_c, 2, 40, 100
4, 24000, Note_on_c, 2, 47, 100
4, 24192, Note_off_c, 2, 47, 0
4, 24192, Note_off_c, 2, 40, 0
4, 24192, Note_on_c, 2, 55, 100
4, 24192, Note_on_c, 2, 62, 100
4, 24384, Note_off_c, 2, 62, 0
4, 24384, Note_off_c, 2, 55, 0
4, 24384, Program_c, 2, 36
4, 24384, Note_on_c, 2, 40, 100
4, 24480, Note_off_c, 2, 40, 0
4, 24480, Note_on_c, 2, 40, 100
4, 24576, Note_off_c, 2, 40, 0
4, 24576, Note_on_c, 2, 40, 100
4, 24672, Note_off_c, 2, 40, 0
4, 24672, Note_on_c, 2, 40, 100
4, 24768, Note_off_c, 2, 40, 0
4, 24768, Note_on_c, 2, 40, 100
4, 24864, Note_off_c, 2, 40, 0
4, 24864, Note_on_c, 2, 40, 100
4, 24960, Note_off_c, 2, 40, 0
4, 24960, Note_on_c, 2, 40, 100
4, 25056, Note_off_c, 2, 40, 0
4, 25056, Note_on_c, 2, 40, 100
4, 25152, Note_off_c, 2, 40, 0
4, 25152, Note_on_c, 2, 40, 100
4, 25248, Note_off_c, 2, 40, 0
4, 25248, Note_on_c, 2, 40, 100
4, 25344, Note_off_c, 2, 40, 0
4, 25344, Note_on_c, 2, 40, 100
4, 25440, Note_off_c, 2, 40, 0
4, 25440, Note_on_c, 2, 40, 100
4, 25536, Note_off_c, 2, 40, 0
4, 25536, Note_on_c, 2, 40, 100
4, 25632, Note_off_c, 2, 40, 0
4, 25632, Note_on_c, 2, 40, 100
4, 25728, Note_off_c, 2, 40, 0
4, 25728, Note_on_c, 2, 40, 100
4, 25824, Note_off_c, 2, 40, 0
4, 25824, Note_on_c, 2, 40, 100
4, 25920, Note_off_c, 2, 40, 0
4, 25920, Note_on_c, 2, 38, 100
4, 26016, Note_off_c, 2, 38, 0
4, 26016, Note_on_c, 2, 38, 100
4, 26112, Note_off_c, 2, 38, 0
4, 26112, Note_on_c, 2, 38, 100
4, 26208, Note_off_c, 2, 38, 0
4, 26208, Note_on_c, 2, 38, 100
4, 26304, Note_off_c, 2, 38, 0
4, 26304, Note_on_c, 2, 38, 100
4, 26400, Note_off_c, 2, 38, 0
4, 26400, Note_on_c, 2, 38, 100
4, 26496, Note_off_c, 2, 38, 0
4, 26496, Note_on_c, 2, 38, 100
4, 26592, Note_off_c, 2, 38, 0
4, 26592, Note_on_c, 2, 38, 100
4, 26688, Note_off_c, 2, 38, 0
4, 26688, Note_on_c, 2, 38, 100
4, 26784, Note_off_c, 2, 38, 0
4, 26784, Note_on_c, 2, 38, 100
4, 26880, Note_off_c, 2, 38, 0
4, 26880, Note_on_c, 2, 38, 100
4, 26976, Note_off_c, 2, 38, 0
4, 26976, Note_on_c, 2, 38, 100
4, 27072, Note_off_c, 2, 38, 0
4, 27072, Note_on_c, 2, 38, 100
4, 27168, Note_off_c, 2, 38, 0
4, 27168, Note_on_c, 2, 38, 100
4, 27264, Note_off_c, 2, 38, 0
4, 27264, Note_on_c, 2, 38, 100
4, 27360, Note_off_c, 2, 38, 0
4, 27360, Note_on_c, 2, 38, 100
4, 27456, Note_off_c, 2, 38, 0
4, 27456, Note_on_c, 2, 40, 100
4, 27552, Note_off_c, 2, 40, 0
4, 27552, Note_on_c, 2, 40, 100
4, 27648, Note_off_c, 2, 40, 0
4, 27648, Note_on_c, 2, 40, 100
4, 27744, Note_off_c, 2, 40, 0
4, 27744, Note_on_c, 2, 40, 100
4, 27840, Note_off_c, 2, 40, 0
4, 27840, Note_on_c, 2, 40, 100
4, 27936, Note_off_c, 2, 40, 0
4, 27936, Note_on_c, 2, 40, 100
4, 28032, Note_off_c, 2, 40, 0
4, 28032, Note_on_c, 2, 40, 100
4, 28128, Note_off_c, 2, 40, 0
4, 28128, Note_on_c, 2, 40, 100
4, 28224, Note_off_c, 2, 40, 0
4, 28224, Note_on_c, 2, 40, 100
4, 28320, Note_off_c, 2, 40, 0
4, 28320, Note_on_c, 2, 40, 100
4, 28416, Note_off_c, 2, 40, 0
4, 28416, Note_on_c, 2, 40, 100
4, 28512, Note_off_c, 2, 40, 0
4, 28512, Note_on_c, 2, 40, 100
4, 28608, Note_off_c, 2, 40, 0
4, 28608, Note_on_c, 2, 40, 100
4, 28704, Note_off_c, 2, 40, 0
4, 28704, Note_on_c, 2, 40, 100
4, 28800, Note_off_c, 2, 40, 0
4, 28800, Note_on_c, 2, 40, 100
4, 28896, Note_off_c, 2, 40, 0
4, 28896, Note_on_c, 2, 40, 100
4, 28992, Note_off_c, 2, 40, 0
4, 28992, Note_on_c, 2, 38, 100
4, 29088, Note_off_c, 2, 38, 0
4, 29088, Note_on_c, 2, 38, 100
4, 29184, Note_off_c, 2, 38, 0
4, 29184, Note_on_c, 2, 38, 100
4, 29280, Note_off_c, 2, 38, 0
4, 29280, Note_on_c, 2, 38, 100
4, 29376, Note_off_c, 2, 38, 0
4, 29376, Note_on_c, 2, 38, 100
4, 29472, Note_off_c, 2, 38, 0
4, 29472, Note_on_c, 2, 38, 100
4, 29568, Note_off_c, 2, 38, 0
4, 29568, Note_on_c, 2, 38, 100
4, 29664, Note_off_c, 2, 38, 0
4, 29664, Note_on_c, 2, 38, 100
4, 29760, Note_off_c, 2, 38, 0
4, 29760, Note_on_c, 2, 38, 100
4, 29856, Note_off_c, 2, 38, 0
4, 29856, Note_on_c, 2, 38, 100
4, 29952, Note_off_c, 2, 38, 0
4, 29952, Note_on_c, 2, 38, 100
4, 30048, Note_off_c, 2, 38, 0
4, 30048, Note_on_c, 2, 38, 100
4, 30144, Note_off_c, 2, 38, 0
4, 30144, Note_on_c, 2, 38, 100
4, 30240, Note_off_c, 2, 38, 0
4, 30240, Note_on_c, 2, 38, 100
4, 30336, Note_off_c, 2, 38, 0
4, 30336, Note_on_c, 2, 38, 100
4, 30432, Note_off_c, 2, 38, 0
4, 30432, Note_on_c, 2, 38, 100
4, 30528, Note_off_c, 2, 38, 0
4, 30528, Program_c, 2, 30
4, 30528, Note_on_c, 2, 52, 100
4, 30528, Note_on_c, 2, 59, 100
4, 30624, Note_off_c, 2, 59, 0
4, 30624, Note_off_c, 2, 52, 0
4, 30624, Note_on_c, 2, 52, 100
4, 30624, Note_on_c, 2, 59, 100
4, 30720, Note_off_c, 2, 59, 0
4, 30720, Note_off_c, 2, 52, 0
4, 30720, Note_on_c, 2, 52, 100
4, 30720, Note_on_c, 2, 59, 100
4, 30816, Note_off_c, 2, 59, 0
4, 30816, Note_off_c, 2, 52, 0
4, 30816, Note_on_c, 2, 52, 100
4, 30816, Note_on_c, 2, 59, 100
4, 30912, Note_off_c, 2, 59, 0
4, 30912, Note_off_c, 2, 52, 0
4, 30912, Note_on_c, 2, 52, 100
4, 30912, Note_on_c, 2, 59, 100
4, 31008, Note_off_c, 2, 59, 0
4, 31008, Note_off_c, 2, 52, 0
4, 31008, Note_on_c, 2, 52, 100
4, 31008, Note_on_c, 2, 59, 100
4, 31104, Note_off_c, 2, 59, 0
4, 31104, Note_off_c, 2, 52, 0
4, 31104, Note_on_c, 2, 52, 100
4, 31104, Note_on_c, 2, 59, 100
4, 31200, Note_off_c, 2, 59, 0
4, 31200, Note_off_c, 2, 52, 0
4, 31200, Note_on_c, 2, 52, 100
4, 31200, Note_on_c, 2, 59, 100
4, 31296, Note_off_c, 2, 59, 0
4, 31296, Note_off_c, 2, 52, 0
4, 31296, Note_on_c, 2, 52, 100
4, 31296, Note_on_c, 2, 59, 100
4, 31392, Note_off_c, 2, 59, 0
4, 31392, Note_off_c, 2, 52, 0
4, 31392, Note_on_c, 2, 52, 100
4, 31392, Note_on_c, 2, 59, 100
4, 31488, Note_off_c, 2, 59, 0
4, 31488, Note_off_c, 2, 52, 0
4, 31488, Note_on_c, 2, 52, 100
4, 31488, Note_on_c, 2, 59, 100
4, 31584, Note_off_c, 2, 59, 0
4, 31584, Note_off_c, 2, 52, 0
4, 31584, Note_on_c, 2, 52, 100
4, 31584, Note_on_c, 2, 59, 100
4, 31680, Note_off_c, 2, 59, 0
4, 31680, Note_off_c, 2, 52, 0
4, 31680, Note_on_c, 2, 52, 100
4, 31680, Note_on_c, 2, 59, 100
4, 31776, Note_off_c, 2, 59, 0
4, 31776, Note_off_c, 2, 52, 0
4, 31776, Note_on_c, 2, 52, 100
4, 31776, Note_on_c, 2, 59, 100
4, 31872, Note_off_c, 2, 59, 0
4, 31872, Note_off_c, 2, 52, 0
4, 31872, Note_on_c, 2, 52, 100
4, 31872, Note_on_c, 2, 59, 100
4, 31968, Note_off_c, 2, 59, 0
4, 31968, Note_off_c, 2, 52, 0
4, 31968, Note_on_c, 2, 52, 100
4, 31968, Note_on_c, 2, 59, 100
4, 32064, Note_off_c, 2, 59, 0
4, 32064, Note_off_c, 2, 52, 0
4, 32064, Note_on_c, 2, 50, 100
4, 32064, Note_on_c, 2, 57, 100
4, 32160, Note_off_c, 2, 57, 0
4, 32160, Note_off_c, 2, 50, 0
4, 32160, Note_on_c, 2, 50, 100
4, 32160, Note_on_c, 2, 57, 100
4, 32256, Note_off_c, 2, 57, 0
4, 32256, Note_off_c, 2, 50, 0
4, 32256, Note_on_c, 2, 50, 100
4, 32256, Note_on_c, 2, 57, 100
4, 32352, Note_off_c, 2, 57, 0
4, 32352, Note_off_c, 2, 50, 0
4, 32352, Note_on_c, 2, 50, 100
4, 32352, Note_on_c, 2, 57, 100
4, 32448, Note_off_c, 2, 57, 0
4, 32448, Note_off_c, 2, 50, 0
4, 32448, Note_on_c, 2, 50, 100
4, 32448, Note_on_c, 2, 57, 100
4, 32544, Note_off_c, 2, 57, 0
4, 32544, Note_off_c, 2, 50, 0
4, 32544, Note_on_c, 2, 50, 100
4, 32544, Note_on_c, 2, 57, 100
4, 32640, Note_off_c, 2, 57, 0
4, 32640, Note_off_c, 2, 50, 0
4, 32640, Note_on_c, 2, 50, 100
4, 32640, Note_on_c, 2, 57, 100
4, 32736, Note_off_c, 2, 57, 0
4, 32736, Note_off_c, 2, 50, 0
4, 32736, Note_on_c, 2, 50, 100
4, 32736, Note_on_c, 2, 57, 100
4, 32832, Note_off_c, 2, 57, 0
4, 32832, Note_off_c, 2, 50, 0
4, 32832, Note_on_c, 2, 43, 100
4, 32832, Note_on_c, 2, 50, 100
4, 32928, Note_off_c, 2, 50, 0
4, 32928, Note_off_c, 2, 43, 0
4, 32928, Note_on_c, 2, 38, 100
4, 32928, Note_on_c, 2, 45, 100
4, 33168, Note_off_c, 2, 45, 0
4, 33168, Note_off_c, 2, 38, 0
4, 33168, Note_on_c, 2, 40, 100
4, 33168, Note_on_c, 2, 47, 100
4, 33360, Note_off_c, 2, 47, 0
4, 33360, Note_off_c, 2, 40, 0
4, 33360, Note_on_c, 2, 55, 100
4, 33360, Note_on_c, 2, 62, 100
4, 33552, Note_off_c, 2, 62, 0
4, 33552, Note_off_c, 2, 55, 0
4, 33552, Note_on_c, 2, 52, 100
4, 33552, Note_on_c, 2, 59, 100
4, 33648, Note_off_c, 2, 59, 0
4, 33648, Note_off_c, 2, 52, 0
4, 33648, Note_on_c, 2, 52, 100
4, 33648, Note_on_c, 2, 59, 100
4, 33744, Note_off_c, 2, 59, 0
4, 33744, Note_off_c, 2, 52, 0
4, 33744, Note_on_c, 2, 52, 100
4, 33744, Note_on_c, 2, 59, 100
4, 33840, Note_off_c, 2, 59, 0
4, 33840, Note_off_c, 2, 52, 0
4, 33840, Note_on_c, 2, 52, 100
4, 33840, Note_on_c, 2, 59, 100
4, 33936, Note_off_c, 2, 59, 0
4, 33936, Note_off_c, 2, 52, 0
4, 33936, Note_on_c, 2, 52, 100
4, 33936, Note_on_c, 2, 59, 100
4, 34032, Note_off_c, 2, 59, 0
4, 34032, Note_off_c, 2, 52, 0
4, 34032, Note_on_c, 2, 52, 100
4, 34032, Note_on_c, 2, 59, 100
4, 34128, Note_off_c, 2, 59, 0
4, 34128, Note_off_c, 2, 52, 0
4, 34128, Note_on_c, 2, 52, 100
4, 34128, Note_on_c, 2, 59, 100
4, 34224, Note_off_c, 2, 59, 0
4, 34224, Note_off_c, 2, 52, 0
4, 34224, Note_on_c, 2, 52, 100
4, 34224, Note_on_c, 2, 59, 100
4, 34320, Note_off_c, 2, 59, 0
4, 34320, Note_off_c, 2, 52, 0
4, 34320, Note_on_c, 2, 52, 100
4, 34320, Note_on_c, 2, 59, 100
4, 34416, Note_off_c, 2, 59, 0
4, 34416, Note_off_c, 2, 52, 0
4, 34416, Note_on_c, 2, 52, 100
4, 34416, Note_on_c, 2, 59, 100
4, 34512, Note_off_c, 2, 59, 0
4, 34512, Note_off_c, 2, 52, 0
4, 34512, Note_on_c, 2, 52, 100
4, 34512, Note_on_c, 2, 59, 100
4, 34608, Note_off_c, 2, 59, 0
4, 34608, Note_off_c, 2, 52, 0
4, 34608, Note_on_c, 2, 52, 100
4, 34608, Note_on_c, 2, 59, 100
4, 34704, Note_off_c, 2, 59, 0
4, 34704, Note_off_c, 2, 52, 0
4, 34704, Note_on_c, 2, 52, 100
4, 34704, Note_on_c, 2, 59, 100
4, 34800, Note_off_c, 2, 59, 0
4, 34800, Note_off_c, 2, 52, 0
4, 34800, Note_on_c, 2, 52, 100
4, 34800, Note_on_c, 2, 59, 100
4, 34896, Note_off_c, 2, 59, 0
4, 34896, Note_off_c, 2, 52, 0
4, 34896, Note_on_c, 2, 52, 100
4, 34896, Note_on_c, 2, 59, 100
4, 34992, Note_off_c, 2, 59, 0
4, 34992, Note_off_c, 2, 52, 0
4, 34992, Note_on_c, 2, 52, 100
4, 34992, Note_on_c, 2, 59, 100
4, 35088, Note_off_c, 2, 59, 0
4, 35088, Note_off_c, 2, 52, 0
4, 35088, Note_on_c, 2, 50, 100
4, 35088, Note_on_c, 2, 57, 100
4, 35184, Note_off_c, 2, 57, 0
4, 35184, Note_off_c, 2, 50, 0
4, 35184, Note_on_c, 2, 50, 100
4, 35184, Note_on_c, 2, 57, 100
4, 35280, Note_off_c, 2, 57, 0
4, 35280, Note_off_c, 2, 50, 0
4, 35280, Note_on_c, 2, 50, 100
4, 35280, Note_on_c, 2, 57, 100
4, 35376, Note_off_c, 2, 57, 0
4, 35376, Note_off_c, 2, 50, 0
4, 35376, Note_on_c, 2, 50, 100
4, 35376, Note_on_c, 2, 57, 100
4, 35472, Note_off_c, 2, 57, 0
4, 35472, Note_off_c, 2, 50, 0
4, 35472, Note_on_c, 2, 50, 100
4, 35472, Note_on_c, 2, 57, 100
4, 35568, Note_off_c, 2, 57, 0
4, 35568, Note_off_c, 2, 50, 0
4, 35568, Note_on_c, 2, 50, 100
4, 35568, Note_on_c, 2, 57, 100
4, 35664, Note_off_c, 2, 57, 0
4, 35664, Note_off_c, 2, 50, 0
4, 35664, Note_on_c, 2, 50, 100
4, 35664, Note_on_c, 2, 57, 100
4, 35760, Note_off_c, 2, 57, 0
4, 35760, Note_off_c, 2, 50, 0
4, 35760, Note_on_c, 2, 50, 100
4, 35760, Note_on_c, 2, 57, 100
4, 35856, Note_off_c, 2, 57, 0
4, 35856, Note_off_c, 2, 50, 0
4, 35856, Note_on_c, 2, 43, 100
4, 35856, Note_on_c, 2, 50, 100
4, 35952, Note_off_c, 2, 50, 0
4, 35952, Note_off_c, 2, 43, 0
4, 35952, Note_on_c, 2, 38, 100
4, 35952, Note_on_c, 2, 45, 100
4, 36192, Note_off_c, 2, 45, 0
4, 36192, Note_off_c, 2, 38, 0
4, 36192, Note_on_c, 2, 40, 100
4, 36192, Note_on_c, 2, 47, 100
4, 36384, Note_off_c, 2, 47, 0
4, 36384, Note_off_c, 2, 40, 0
4, 36384, Note_on_c, 2, 55, 100
4, 36384, Note_on_c, 2, 62, 100
4, 36576, Note_off_c, 2, 62, 0
4, 36576, Note_off_c, 2, 55, 0
4, 36576, Note_on_c, 2, 52, 100
4, 36576, Note_on_c, 2, 59, 100
4, 36672, Note_off_c, 2, 59, 0
4, 36672, Note_off_c, 2, 52, 0
4, 36672, Note_on_c, 2, 52, 100
4, 36672, Note_on_c, 2, 59, 100
4, 36768, Note_off_c, 2, 59, 0
4, 36768, Note_off_c, 2, 52, 0
4, 36768, Note_on_c, 2, 52, 100
4, 36768, Note_on_c, 2, 59, 100
4, 36864, Note_off_c, 2, 59, 0
4, 36864, Note_off_c, 2, 52, 0
4, 36864, Note_on_c, 2, 52, 100
4, 36864, Note_on_c, 2, 59, 100
4, 36960, Note_off_c, 2, 59, 0
4, 36960, Note_off_c, 2, 52, 0
4, 36960, Note_on_c, 2, 52, 100
4, 36960, Note_on_c, 2, 59, 100
4, 37056, Note_off_c, 2, 59, 0
4, 37056, Note_off_c, 2, 52, 0
4, 37056, Note_on_c, 2, 52, 100
4, 37056, Note_on_c, 2, 59, 100
4, 37152, Note_off_c, 2, 59, 0
4, 37152, Note_off_c, 2, 52, 0
4, 37152, Note_on_c, 2, 52, 100
4, 37152, Note_on_c, 2, 59, 100
4, 37248, Note_off_c, 2, 59, 0
4, 37248, Note_off_c, 2, 52, 0
4, 37248, Note_on_c, 2, 52, 100
4, 37248, Note_on_c, 2, 59, 100
4, 37344, Note_off_c, 2, 59, 0
4, 37344, Note_off_c, 2, 52, 0
4, 37344, Note_on_c, 2, 52, 100
4, 37344, Note_on_c, 2, 59, 100
4, 37440, Note_off_c, 2, 59, 0
4, 37440, Note_off_c, 2, 52, 0
4, 37440, Note_on_c, 2, 52, 100
4, 37440, Note_on_c, 2, 59, 100
4, 37536, Note_off_c, 2, 59, 0
4, 37536, Note_off_c, 2, 52, 0
4, 37536, Note_on_c, 2, 52, 100
4, 37536, Note_on_c, 2, 59, 100
4, 37632, Note_off_c, 2, 59, 0
4, 37632, Note_off_c, 2, 52, 0
4, 37632, Note_on_c, 2, 52, 100
4, 37632, Note_on_c, 2, 59, 100
4, 37728, Note_off_c, 2, 59, 0
4, 37728, Note_off_c, 2, 52, 0
4, 37728, Note_on_c, 2, 52, 100
4, 37728, Note_on_c, 2, 59, 100
4, 37824, Note_off_c, 2, 59, 0
4, 37824, Note_off_c, 2, 52, 0
4, 37824, Note_on_c, 2, 52, 100
4, 37824, Note_on_c, 2, 59, 100
4, 37920, Note_off_c, 2, 59, 0
4, 37920, Note_off_c, 2, 52, 0
4, 37920, Note_on_c, 2, 52, 100
4, 37920, Note_on_c, 2, 59, 100
4, 38016, Note_off_c, 2, 59, 0
4, 38016, Note_off_c, 2, 52, 0
4, 38016, Note_on_c, 2, 52, 100
4, 38016, Note_on_c, 2, 59, 100
4, 38112, Note_off_c, 2, 59, 0
4, 38112, Note_off_c, 2, 52, 0
4, 38112, Note_on_c, 2, 50, 100
4, 38112, Note_on_c, 2, 57, 100
4, 38208, Note_off_c, 2, 57, 0
4, 38208, Note_off_c, 2, 50, 0
4, 38208, Note_on_c, 2, 50, 100
4, 38208, Note_on_c, 2, 57, 100
4, 38304, Note_off_c, 2, 57, 0
4, 38304, Note_off_c, 2, 50, 0
4, 38304, Note_on_c, 2, 50, 100
4, 38304, Note_on_c, 2, 57, 100
4, 38400, Note_off_c, 2, 57, 0
4, 38400, Note_off_c, 2, 50, 0
4, 38400, Note_on_c, 2, 50, 100
4, 38400, Note_on_c, 2, 57, 100
4, 38496, Note_off_c, 2, 57, 0
4, 38496, Note_off_c, 2, 50, 0
4, 38496, Note_on_c, 2, 50, 100
4, 38496, Note_on_c, 2, 57, 100
4, 38592, Note_off_c, 2, 57, 0
4, 38592, Note_off_c, 2, 50, 0
4, 38592, Note_on_c, 2, 50, 100
4, 38592, Note_on_c, 2, 57, 100
4, 38688, Note_off_c, 2, 57, 0
4, 38688, Note_off_c, 2, 50, 0
4, 38688, Note_on_c, 2, 50, 100
4, 38688, Note_on_c, 2, 57, 100
4, 38784, Note_off_c, 2, 57, 0
4, 38784, Note_off_c, 2, 50, 0
4, 38784, Note_on_c, 2, 50, 100
4, 38784, Note_on_c, 2, 57, 100
4, 38880, Note_off_c, 2, 57, 0
4, 38880, Note_off_c, 2, 50, 0
4, 38880, Note_on_c, 2, 43, 100
4, 38880, Note_on_c, 2, 50, 100
4, 38976, Note_off_c, 2, 50, 0
4, 38976, Note_off_c, 2, 43, 0
4, 38976, Note_on_c, 2, 38, 100
4, 38976, Note_on_c, 2, 45, 100
4, 39216, Note_off_c, 2, 45, 0
4, 39216, Note_off_c, 2, 38, 0
4, 39216, Note_on_c, 2, 40, 100
4, 39216, Note_on_c, 2, 47, 100
4, 39408, Note_off_c, 2, 47, 0
4, 39408, Note_off_c, 2, 40, 0
4, 39408, Note_on_c, 2, 55, 100
4, 39408, Note_on_c, 2, 62, 100
4, 39600, Note_off_c, 2, 62, 0
4, 39600, Note_off_c, 2, 55, 0
4, 39600, Note_on_c, 2, 52, 100
4, 39600, Note_on_c, 2, 59, 100
4, 39696, Note_off_c, 2, 59, 0
4, 39696, Note_off_c, 2, 52, 0
4, 39696, Note_on_c, 2, 52, 100
4, 39696, Note_on_c, 2, 59, 100
4, 39792, Note_off_c, 2, 59, 0
4, 39792, Note_off_c, 2, 52, 0
4, 39792, Note_on_c, 2, 52, 100
4, 39792, Note_on_c, 2, 59, 100
4, 39888, Note_off_c, 2, 59, 0
4, 39888, Note_off_c, 2, 52, 0
4, 39888, Note_on_c, 2, 52, 100
4, 39888, Note_on_c, 2, 59, 100
4, 39984, Note_off_c, 2, 59, 0
4, 39984, Note_off_c, 2, 52, 0
4, 39984, Note_on_c, 2, 52, 100
4, 39984, Note_on_c, 2, 59, 100
4, 40080, Note_off_c, 2, 59, 0
4, 40080, Note_off_c, 2, 52, 0
4, 40080, Note_on_c, 2, 52, 100
4, 40080, Note_on_c, 2, 59, 100
4, 40176, Note_off_c, 2, 59, 0
4, 40176, Note_off_c, 2, 52, 0
4, 40176, Note_on_c, 2, 52, 100
4, 40176, Note_on_c, 2, 59, 100
4, 40272, Note_off_c, 2, 59, 0
4, 40272, Note_off_c, 2, 52, 0
4, 40272, Note_on_c, 2, 52, 100
4, 40272, Note_on_c, 2, 59, 100
4, 40368, Note_off_c, 2, 59, 0
4, 40368, Note_off_c, 2, 52, 0
4, 40368, Note_on_c, 2, 52, 100
4, 40368, Note_on_c, 2, 59, 100
4, 40464, Note_off_c, 2, 59, 0
4, 40464, Note_off_c, 2, 52, 0
4, 40464, Note_on_c, 2, 52, 100
4, 40464, Note_on_c, 2, 59, 100
4, 40560, Note_off_c, 2, 59, 0
4, 40560, Note_off_c, 2, 52, 0
4, 40560, Note_on_c, 2, 52, 100
4, 40560, Note_on_c, 2, 59, 100
4, 40656, Note_off_c, 2, 59, 0
4, 40656, Note_off_c, 2, 52, 0
4, 40656, Note_on_c, 2, 52, 100
4, 40656, Note_on_c, 2, 59, 100
4, 40752, Note_off_c, 2, 59, 0
4, 40752, Note_off_c, 2, 52, 0
4, 40752, Note_on_c, 2, 52, 100
4, 40752, Note_on_c, 2, 59, 100
4, 40848, Note_off_c, 2, 59, 0
4, 40848, Note_off_c, 2, 52, 0
4, 40848, Note_on_c, 2, 52, 100
4, 40848, Note_on_c, 2, 59, 100
4, 40944, Note_off_c, 2, 59, 0
4, 40944, Note_off_c, 2, 52, 0
4, 40944, Note_on_c, 2, 52, 100
4, 40944, Note_on_c, 2, 59, 100
4, 41040, Note_off_c, 2, 59, 0
4, 41040, Note_off_c, 2, 52, 0
4, 41040, Note_on_c, 2, 52, 100
4, 41040, Note_on_c, 2, 59, 100
4, 41136, Note_off_c, 2, 59, 0
4, 41136, Note_off_c, 2, 52, 0
4, 41136, Note_on_c, 2, 50, 100
4, 41136, Note_on_c, 2, 57, 100
4, 41232, Note_off_c, 2, 57, 0
4, 41232, Note_off_c, 2, 50, 0
4, 41232, Note_on_c, 2, 50, 100
4, 41232, Note_on_c, 2, 57, 100
4, 41328, Note_off_c, 2, 57, 0
4, 41328, Note_off_c, 2, 50, 0
4, 41328, Note_on_c, 2, 50, 100
4, 41328, Note_on_c, 2, 57, 100
4, 41424, Note_off_c, 2, 57, 0
4, 41424, Note_off_c, 2, 50, 0
4, 41424, Note_on_c, 2, 50, 100
4, 41424, Note_on_c, 2, 57, 100
4, 41520, Note_off_c, 2, 57, 0
4, 41520, Note_off_c, 2, 50, 0
4, 41520, Note_on_c, 2, 50, 100
4, 41520, Note_on_c, 2, 57, 100
4, 41616, Note_off_c, 2, 57, 0
4, 41616, Note_off_c, 2, 50, 0
4, 41616, Note_on_c, 2, 50, 100
4, 41616, Note_on_c, 2, 57, 100
4, 41712, Note_off_c, 2, 57, 0
4, 41712, Note_off_c, 2, 50, 0
4, 41712, Note_on_c, 2, 50, 100
4, 41712, Note_on_c, 2, 57, 100
4, 41808, Note_off_c, 2, 57, 0
4, 41808, Note_off_c, 2, 50, 0
4, 41808, Note_on_c, 2, 50, 100
4, 41808, Note_on_c, 2, 57, 100
4, 41904, Note_off_c, 2, 57, 0
4, 41904, Note_off_c, 2, 50, 0
4, 41904, Note_on_c, 2, 43, 100
4, 41904, Note_on_c, 2, 50, 100
4, 42000, Note_off_c, 2, 50, 0
4, 42000, Note_off_c, 2, 43, 0
4, 42000, Note_on_c, 2, 38, 100
4, 42000, Note_on_c, 2, 45, 100
4, 42240, Note_off_c, 2, 45, 0
4, 42240, Note_off_c, 2, 38, 0
4, 42240, Note_on_c, 2, 40, 100
4, 42240, Note_on_c, 2, 47, 100
4, 42432, Note_off_c, 2, 47, 0
4, 42432, Note_off_c, 2, 40, 0
4, 42432, Note_on_c, 2, 55, 100
4, 42432, Note_on_c, 2, 62, 100
4, 57744, Note_off_c, 2, 62, 0
4, 57744, Note_off_c, 2, 55, 0
4, 57744, Note_on_c, 2, 52, 100
4, 57744, Note_on_c, 2, 59, 100
4, 57840, Note_off_c, 2, 59, 0
4, 57840, Note_off_c, 2, 52, 0
4, 57840, Note_on_c, 2, 52, 100
4, 57840, Note_on_c, 2, 59, 100
4, 57936, Note_off_c, 2, 59, 0
4, 57936, Note_off_c, 2, 52, 0
4, 57936, Note_on_c, 2, 52, 100
4, 57936, Note_on_c, 2, 59, 100
4, 58032, Note_off_c, 2, 59, 0
4, 58032, Note_off_c, 2, 52, 0
4, 58032, Note_on_c, 2, 52, 100
4, 58032, Note_on_c, 2, 59, 100
4, 58128, Note_off_c, 2, 59, 0
4, 58128, Note_off_c, 2, 52, 0
4, 58128, Note_on_c, 2, 52, 100
4, 58128, Note_on_c, 2, 59, 100
4, 58224, Note_off_c, 2, 59, 0
4, 58224, Note_off_c, 2, 52, 0
4, 58224, Note_on_c, 2, 52, 100
4, 58224, Note_on_c, 2, 59, 100
4, 58320, Note_off_c, 2, 59, 0
4, 58320, Note_off_c, 2, 52, 0
4, 58320, Note_on_c, 2, 52, 100
4, 58320, Note_on_c, 2, 59, 100
4, 58416, Note_off_c, 2, 59, 0
4, 58416, Note_off_c, 2, 52, 0
4, 58416, Note_on_c, 2, 52, 100
4, 58416, Note_on_c, 2, 59, 100
4, 58512, Note_off_c, 2, 59, 0
4, 58512, Note_off_c, 2, 52, 0
4, 58512, Note_on_c, 2, 52, 100
4, 58512, Note_on_c, 2, 59, 100
4, 58608, Note_off_c, 2, 59, 0
4, 58608, Note_off_c, 2, 52, 0
4, 58608, Note_on_c, 2, 52, 100
4, 58608, Note_on_c, 2, 59, 100
4, 58704, Note_off_c, 2, 59, 0
4, 58704, Note_off_c, 2, 52, 0
4, 58704, Note_on_c, 2, 52, 100
4, 58704, Note_on_c, 2, 59, 100
4, 58800, Note_off_c, 2, 59, 0
4, 58800, Note_off_c, 2, 52, 0
4, 58800, Note_on_c, 2, 52, 100
4, 58800, Note_on_c, 2, 59, 100
4, 58896, Note_off_c, 2, 59, 0
4, 58896, Note_off_c, 2, 52, 0
4, 58896, Note_on_c, 2, 52, 100
4, 58896, Note_on_c, 2, 59, 100
4, 58992, Note_off_c, 2, 59, 0
4, 58992, Note_off_c, 2, 52, 0
4, 58992, Note_on_c, 2, 52, 100
4, 58992, Note_on_c, 2, 59, 100
4, 59088, Note_off_c, 2, 59, 0
4, 59088, Note_off_c, 2, 52, 0
4, 59088, Note_on_c, 2, 52, 100
4, 59088, Note_on_c, 2, 59, 100
4, 59184, Note_off_c, 2, 59, 0
4, 59184, Note_off_c, 2, 52, 0
4, 59184, Note_on_c, 2, 52, 100
4, 59184, Note_on_c, 2, 59, 100
4, 59280, Note_off_c, 2, 59, 0
4, 59280, Note_off_c, 2, 52, 0
4, 59280, Note_on_c, 2, 50, 100
4, 59280, Note_on_c, 2, 57, 100
4, 59376, Note_off_c, 2, 57, 0
4, 59376, Note_off_c, 2, 50, 0
4, 59376, Note_on_c, 2, 50, 100
4, 59376, Note_on_c, 2, 57, 100
4, 59472, Note_off_c, 2, 57, 0
4, 59472, Note_off_c, 2, 50, 0
4, 59472, Note_on_c, 2, 50, 100
4, 59472, Note_on_c, 2, 57, 100
4, 59568, Note_off_c, 2, 57, 0
4, 59568, Note_off_c, 2, 50, 0
4, 59568, Note_on_c, 2, 50, 100
4, 59568, Note_on_c, 2, 57, 100
4, 59664, Note_off_c, 2, 57, 0
4, 59664, Note_off_c, 2, 50, 0
4, 59664, Note_on_c, 2, 50, 100
4, 59664, Note_on_c, 2, 57, 100
4, 59760, Note_off_c, 2, 57, 0
4, 59760, Note_off_c, 2, 50, 0
4, 59760, Note_on_c, 2, 50, 100
4, 59760, Note_on_c, 2, 57, 100
4, 59856, Note_off_c, 2, 57, 0
4, 59856, Note_off_c, 2, 50, 0
4, 59856, Note_on_c, 2, 50, 100
4, 59856, Note_on_c, 2, 57, 100
4, 59952, Note_off_c, 2, 57, 0
4, 59952, Note_off_c, 2, 50, 0
4, 59952, Note_on_c, 2, 50, 100
4, 59952, Note_on_c, 2, 57, 100
4, 60048, Note_off_c, 2, 57, 0
4, 60048, Note_off_c, 2, 50, 0
4, 60048, Note_on_c, 2, 43, 100
4, 60048, Note_on_c, 2, 50, 100
4, 60144, Note_off_c, 2, 50, 0
4, 60144, Note_off_c, 2, 43, 0
4, 60144, Note_on_c, 2, 38, 100
4, 60144, Note_on_c, 2, 45, 100
4, 60384, Note_off_c, 2, 45, 0
4, 60384, Note_off_c, 2, 38, 0
4, 60384, Note_on_c, 2, 40, 100
4, 60384, Note_on_c, 2, 47, 100
4, 60576, Note_off_c, 2, 47, 0
4, 60576, Note_off_c, 2, 40, 0
4, 60576, Note_on_c, 2, 55, 100
4, 60576, Note_on_c, 2, 62, 100
4, 60768, Note_off_c, 2, 62, 0
4, 60768, Note_off_c, 2, 55, 0
4, 60768, Note_on_c, 2, 52, 100
4, 60768, Note_on_c, 2, 59, 100
4, 60864, Note_off_c, 2, 59, 0
4, 60864, Note_off_c, 2, 52, 0
4, 60864, Note_on_c, 2, 52, 100
4, 60864, Note_on_c, 2, 59, 100
4, 60960, Note_off_c, 2, 59, 0
4, 60960, Note_off_c, 2, 52, 0
4, 60960, Note_on_c, 2, 52, 100
4, 60960, Note_on_c, 2, 59, 100
4, 61056, Note_off_c, 2, 59, 0
4, 61056, Note_off_c, 2, 52, 0
4, 61056, Note_on_c, 2, 52, 100
4, 61056, Note_on_c, 2, 59, 100
4, 61152, Note_off_c, 2, 59, 0
4, 61152, Note_off_c, 2, 52, 0
4, 61152, Note_on_c, 2, 52, 100
4, 61152, Note_on_c, 2, 59, 100
4, 61248, Note_off_c, 2, 59, 0
4, 61248, Note_off_c, 2, 52, 0
4, 61248, Note_on_c, 2, 52, 100
4, 61248, Note_on_c, 2, 59, 100
4, 61344, Note_off_c, 2, 59, 0
4, 61344, Note_off_c, 2, 52, 0
4, 61344, Note_on_c, 2, 52, 100
4, 61344, Note_on_c, 2, 59, 100
4, 61440, Note_off_c, 2, 59, 0
4, 61440, Note_off_c, 2, 52, 0
4, 61440, Note_on_c, 2, 52, 100
4, 61440, Note_on_c, 2, 59, 100
4, 61536, Note_off_c, 2, 59, 0
4, 61536, Note_off_c, 2, 52, 0
4, 61536, Note_on_c, 2, 52, 100
4, 61536, Note_on_c, 2, 59, 100
4, 61632, Note_off_c, 2, 59, 0
4, 61632, Note_off_c, 2, 52, 0
4, 61632, Note_on_c, 2, 52, 100
4, 61632, Note_on_c, 2, 59, 100
4, 61728, Note_off_c, 2, 59, 0
4, 61728, Note_off_c, 2, 52, 0
4, 61728, Note_on_c, 2, 52, 100
4, 61728, Note_on_c, 2, 59, 100
4, 61824, Note_off_c, 2, 59, 0
4, 61824, Note_off_c, 2, 52, 0
4, 61824, Note_on_c, 2, 52, 100
4, 61824, Note_on_c, 2, 59, 100
4, 61920, Note_off_c, 2, 59, 0
4, 61920, Note_off_c, 2, 52, 0
4, 61920, Note_on_c, 2, 52, 100
4, 61920, Note_on_c, 2, 59, 100
4, 62016, Note_off_c, 2, 59, 0
4, 62016, Note_off_c, 2, 52, 0
4, 62016, Note_on_c, 2, 52, 100
4, 62016, Note_on_c, 2, 59, 100
4, 62112, Note_off_c, 2, 59, 0
4, 62112, Note_off_c, 2, 52, 0
4, 62112, Note_on_c, 2, 52, 100
4, 62112, Note_on_c, 2, 59, 100
4, 62208, Note_off_c, 2, 59, 0
4, 62208, Note_off_c, 2, 52, 0
4, 62208, Note_on_c, 2, 52, 100
4, 62208, Note_on_c, 2, 59, 100
4, 62304, Note_off_c, 2, 59, 0
4, 62304, Note_off_c, 2, 52, 0
4, 62304, Note_on_c, 2, 50, 100
4, 62304, Note_on_c, 2, 57, 100
4, 62400, Note_off_c, 2, 57, 0
4, 62400, Note_off_c, 2, 50, 0
4, 62400, Note_on_c, 2, 50, 100
4, 62400, Note_on_c, 2, 57, 100
4, 62496, Note_off_c, 2, 57, 0
4, 62496, Note_off_c, 2, 50, 0
4, 62496, Note_on_c, 2, 50, 100
4, 62496, Note_on_c, 2, 57, 100
4, 62592, Note_off_c, 2, 57, 0
4, 62592, Note_off_c, 2, 50, 0
4, 62592, Note_on_c, 2, 50, 100
4, 62592, Note_on_c, 2, 57, 100
4, 62688, Note_off_c, 2, 57, 0
4, 62688, Note_off_c, 2, 50, 0
4, 62688, Note_on_c, 2, 50, 100
4, 62688, Note_on_c, 2, 57, 100
4, 62784, Note_off_c, 2, 57, 0
4, 62784, Note_off_c, 2, 50, 0
4, 62784, Note_on_c, 2, 50, 100
4, 62784, Note_on_c, 2, 57, 100
4, 62880, Note_off_c, 2, 57, 0
4, 62880, Note_off_c, 2, 50, 0
4, 62880, Note_on_c, 2, 50, 100
4, 62880, Note_on_c, 2, 57, 100
4, 62976, Note_off_c, 2, 57, 0
4, 62976, Note_off_c, 2, 50, 0
4, 62976, Note_on_c, 2, 50, 100
4, 62976, Note_on_c, 2, 57, 100
4, 63072, Note_off_c, 2, 57, 0
4, 63072, Note_off_c, 2, 50, 0
4, 63072, Note_on_c, 2, 43, 100
4, 63072, Note_on_c, 2, 50, 100
4, 63168, Note_off_c, 2, 50, 0
4, 63168, Note_off_c, 2, 43, 0
4, 63168, Note_on_c, 2, 38, 100
4, 63168, Note_on_c, 2, 45, 100
4, 63408, Note_off_c, 2, 45, 0
4, 63408, Note_off_c, 2, 38, 0
4, 63408, Note_on_c, 2, 40, 100
4, 63408, Note_on_c, 2, 47, 100
4, 63600, Note_off_c, 2, 47, 0
4, 63600, Note_off_c, 2, 40, 0
4, 63600, Note_on_c, 2, 55, 100
4, 63600, Note_on_c, 2, 62, 100
4, 63792, Note_off_c, 2, 62, 0
4, 63792, Note_off_c, 2, 55, 0
4, 63792, Note_on_c, 2, 52, 100
4, 63792, Note_on_c, 2, 59, 100
4, 63888, Note_off_c, 2, 59, 0
4, 63888, Note_off_c, 2, 52, 0
4, 63888, Note_on_c, 2, 52, 100
4, 63888, Note_on_c, 2, 59, 100
4, 63984, Note_off_c, 2, 59, 0
4, 63984, Note_off_c, 2, 52, 0
4, 63984, Note_on_c, 2, 52, 100
4, 63984, Note_on_c, 2, 59, 100
4, 64080, Note_off_c, 2, 59, 0
4, 64080, Note_off_c, 2, 52, 0
4, 64080, Note_on_c, 2, 52, 100
4, 64080, Note_on_c, 2, 59, 100
4, 64176, Note_off_c, 2, 59, 0
4, 64176, Note_off_c, 2, 52, 0
4, 64176, Note_on_c, 2, 52, 100
4, 64176, Note_on_c, 2, 59, 100
4, 64272, Note_off_c, 2, 59, 0
4, 64272, Note_off_c, 2, 52, 0
4, 64272, Note_on_c, 2, 52, 100
4, 64272, Note_on_c, 2, 59, 100
4, 64368, Note_off_c, 2, 59, 0
4, 64368, Note_off_c, 2, 52, 0
4, 64368, Note_on_c, 2, 52, 100
4, 64368, Note_on_c, 2, 59, 100
4, 64464, Note_off_c, 2, 59, 0
4, 64464, Note_off_c, 2, 52, 0
4, 64464, Note_on_c, 2, 52, 100
4, 64464, Note_on_c, 2, 59, 100
4, 64560, Note_off_c, 2, 59, 0
4, 64560, Note_off_c, 2, 52, 0
4, 64560, Note_on_c, 2, 52, 100
4, 64560, Note_on_c, 2, 59, 100
4, 64656, Note_off_c, 2, 59, 0
4, 64656, Note_off_c, 2, 52, 0
4, 64656, Note_on_c, 2, 52, 100
4, 64656, Note_on_c, 2, 59, 100
4, 64752, Note_off_c, 2, 59, 0
4, 64752, Note_off_c, 2, 52, 0
4, 64752, Note_on_c, 2, 52, 100
4, 64752, Note_on_c, 2, 59, 100
4, 64848, Note_off_c, 2, 59, 0
4, 64848, Note_off_c, 2, 52, 0
4, 64848, Note_on_c, 2, 52, 100
4, 64848, Note_on_c, 2, 59, 100
4, 64944, Note_off_c, 2, 59, 0
4, 64944, Note_off_c, 2, 52, 0
4, 64944, Note_on_c, 2, 52, 100
4, 64944, Note_on_c, 2, 59, 100
4, 65040, Note_off_c, 2, 59, 0
4, 65040, Note_off_c, 2, 52, 0
4, 65040, Note_on_c, 2, 52, 100
4, 65040, Note_on_c, 2, 59, 100
4, 65136, Note_off_c, 2, 59, 0
4, 65136, Note_off_c, 2, 52, 0
4, 65136, Note_on_c, 2, 52, 100
4, 65136, Note_on_c, 2, 59, 100
4, 65232, Note_off_c, 2, 59, 0
4, 65232, Note_off_c, 2, 52, 0
4, 65232, Note_on_c, 2, 52, 100
4, 65232, Note_on_c, 2, 59, 100
4, 65328, Note_off_c, 2, 59, 0
4, 65328, Note_off_c, 2, 52, 0
4, 65328, Note_on_c, 2, 50, 100
4, 65328, Note_on_c, 2, 57, 100
4, 65424, Note_off_c, 2, 57, 0
4, 65424, Note_off_c, 2, 50, 0
4, 65424, Note_on_c, 2, 50, 100
4, 65424, Note_on_c, 2, 57, 100
4, 65520, Note_off_c, 2, 57, 0
4, 65520, Note_off_c, 2, 50, 0
4, 65520, Note_on_c, 2, 50, 100
4, 65520, Note_on_c, 2, 57, 100
4, 65616, Note_off_c, 2, 57, 0
4, 65616, Note_off_c, 2, 50, 0
4, 65616, Note_on_c, 2, 50, 100
4, 65616, Note_on_c, 2, 57, 100
4, 65712, Note_off_c, 2, 57, 0
4, 65712, Note_off_c, 2, 50, 0
4, 65712, Note_on_c, 2, 50, 100
4, 65712, Note_on_c, 2, 57, 100
4, 65808, Note_off_c, 2, 57, 0
4, 65808, Note_off_c, 2, 50, 0
4, 65808, Note_on_c, 2, 50, 100
4, 65808, Note_on_c, 2, 57, 100
4, 65904, Note_off_c, 2, 57, 0
4, 65904, Note_off_c, 2, 50, 0
4, 65904, Note_on_c, 2, 50, 100
4, 65904, Note_on_c, 2, 57, 100
4, 66000, Note_off_c, 2, 57, 0
4, 66000, Note_off_c, 2, 50, 0
4, 66000, Note_on_c, 2, 50, 100
4, 66000, Note_on_c, 2, 57, 100
4, 66096, Note_off_c, 2, 57, 0
4, 66096, Note_off_c, 2, 50, 0
4, 66096, Note_on_c, 2, 43, 100
4, 66096, Note_on_c, 2, 50, 100
4, 66192, Note_off_c, 2, 50, 0
4, 66192, Note_off_c, 2, 43, 0
4, 66192, Note_on_c, 2, 38, 100
4, 66192, Note_on_c, 2, 45, 100
4, 66432, Note_off_c, 2, 45, 0
4, 66432, Note_off_c, 2, 38, 0
4, 66432, Note_on_c, 2, 40, 100
4, 66432, Note_on_c, 2, 47, 100
4, 66624, Note_off_c, 2, 47, 0
4, 66624, Note_off_c, 2, 40, 0
4, 66624, Note_on_c, 2, 55, 100
4, 66624, Note_on_c, 2, 62, 100
4, 66816, Note_off_c, 2, 62, 0
4, 66816, Note_off_c, 2, 55, 0
4, 66816, Note_on_c, 2, 52, 100
4, 66816, Note_on_c, 2, 59, 100
4, 66912, Note_off_c, 2, 59, 0
4, 66912, Note_off_c, 2, 52, 0
4, 66912, Note_on_c, 2, 52, 100
4, 66912, Note_on_c, 2, 59, 100
4, 67008, Note_off_c, 2, 59, 0
4, 67008, Note_off_c, 2, 52, 0
4, 67008, Note_on_c, 2, 52, 100
4, 67008, Note_on_c, 2, 59, 100
4, 67104, Note_off_c, 2, 59, 0
4, 67104, Note_off_c, 2, 52, 0
4, 67104, Note_on_c, 2, 52, 100
4, 67104, Note_on_c, 2, 59, 100
4, 67200, Note_off_c, 2, 59, 0
4, 67200, Note_off_c, 2, 52, 0
4, 67200, Note_on_c, 2, 52, 100
4, 67200, Note_on_c, 2, 59, 100
4, 67296, Note_off_c, 2, 59, 0
4, 67296, Note_off_c, 2, 52, 0
4, 67296, Note_on_c, 2, 52, 100
4, 67296, Note_on_c, 2, 59, 100
4, 67392, Note_off_c, 2, 59, 0
4, 67392, Note_off_c, 2, 52, 0
4, 67392, Note_on_c, 2, 52, 100
4, 67392, Note_on_c, 2, 59, 100
4, 67488, Note_off_c, 2, 59, 0
4, 67488, Note_off_c, 2, 52, 0
4, 67488, Note_on_c, 2, 52, 100
4, 67488, Note_on_c, 2, 59, 100
4, 67584, Note_off_c, 2, 59, 0
4, 67584, Note_off_c, 2, 52, 0
4, 67584, Note_on_c, 2, 52, 100
4, 67584, Note_on_c, 2, 59, 100
4, 67680, Note_off_c, 2, 59, 0
4, 67680, Note_off_c, 2, 52, 0
4, 67680, Note_on_c, 2, 52, 100
4, 67680, Note_on_c, 2, 59, 100
4, 67776, Note_off_c, 2, 59, 0
4, 67776, Note_off_c, 2, 52, 0
4, 67776, Note_on_c, 2, 52, 100
4, 67776, Note_on_c, 2, 59, 100
4, 67872, Note_off_c, 2, 59, 0
4, 67872, Note_off_c, 2, 52, 0
4, 67872, Note_on_c, 2, 52, 100
4, 67872, Note_on_c, 2, 59, 100
4, 67968, Note_off_c, 2, 59, 0
4, 67968, Note_off_c, 2, 52, 0
4, 67968, Note_on_c, 2, 52, 100
4, 67968, Note_on_c, 2, 59, 100
4, 68064, Note_off_c, 2, 59, 0
4, 68064, Note_off_c, 2, 52, 0
4, 68064, Note_on_c, 2, 52, 100
4, 68064, Note_on_c, 2, 59, 100
4, 68160, Note_off_c, 2, 59, 0
4, 68160, Note_off_c, 2, 52, 0
4, 68160, Note_on_c, 2, 52, 100
4, 68160, Note_on_c, 2, 59, 100
4, 68256, Note_off_c, 2, 59, 0
4, 68256, Note_off_c, 2, 52, 0
4, 68256, Note_on_c, 2, 52, 100
4, 68256, Note_on_c, 2, 59, 100
4, 68352, Note_off_c, 2, 59, 0
4, 68352, Note_off_c, 2, 52, 0
4, 68352, Note_on_c, 2, 50, 100
4, 68352, Note_on_c, 2, 57, 100
4, 68448, Note_off_c, 2, 57, 0
4, 68448, Note_off_c, 2, 50, 0
4, 68448, Note_on_c, 2, 50, 100
4, 68448, Note_on_c, 2, 57, 100
4, 68544, Note_off_c, 2, 57, 0
4, 68544, Note_off_c, 2, 50, 0
4, 68544, Note_on_c, 2, 50, 100
4, 68544, Note_on_c, 2, 57, 100
4, 68640, Note_off_c, 2, 57, 0
4, 68640, Note_off_c, 2, 50, 0
4, 68640, Note_on_c, 2, 50, 100
4, 68640, Note_on_c, 2, 57, 100
4, 68736, Note_off_c, 2, 57, 0
4, 68736, Note_off_c, 2, 50, 0
4, 68736, Note_on_c, 2, 50, 100
4, 68736, Note_on_c, 2, 57, 100
4, 68832, Note_off_c, 2, 57, 0
4, 68832, Note_off_c, 2, 50, 0
4, 68832, Note_on_c, 2, 50, 100
4, 68832, Note_on_c, 2, 57, 100
4, 68928, Note_off_c, 2, 57, 0
4, 68928, Note_off_c, 2, 50, 0
4, 68928, Note_on_c, 2, 50, 100
4, 68928, Note_on_c, 2, 57, 100
4, 69024, Note_off_c, 2, 57, 0
4, 69024, Note_off_c, 2, 50, 0
4, 69024, Note_on_c, 2, 50, 100
4, 69024, Note_on_c, 2, 57, 100
4, 69120, Note_off_c, 2, 57, 0
4, 69120, Note_off_c, 2, 50, 0
4, 69120, Note_on_c, 2, 43, 100
4, 69120, Note_on_c, 2, 50, 100
4, 69216, Note_off_c, 2, 50, 0
4, 69216, Note_off_c, 2, 43, 0
4, 69216, Note_on_c, 2, 38, 100
4, 69216, Note_on_c, 2, 45, 100
4, 69456, Note_off_c, 2, 45, 0
4, 69456, Note_off_c, 2, 38, 0
4, 69456, Note_on_c, 2, 40, 100
4, 69456, Note_on_c, 2, 47, 100
4, 69648, Note_off_c, 2, 47, 0
4, 69648, Note_off_c, 2, 40, 0
4, 69648, Note_on_c, 2, 55, 100
4, 69648, Note_on_c, 2, 62, 100
4, 69840, Note_off_c, 2, 62, 0
4, 69840, Note_off_c, 2, 55, 0
4, 69840, Program_c, 2, 36
4, 69840, Note_on_c, 2, 40, 100
4, 69936, Note_off_c, 2, 40, 0
4, 69936, Note_on_c, 2, 40, 100
4, 70032, Note_off_c, 2, 40, 0
4, 70032, Note_on_c, 2, 40, 100
4, 70128, Note_off_c, 2, 40, 0
4, 70128, Note_on_c, 2, 40, 100
4, 70224, Note_off_c, 2, 40, 0
4, 70224, Note_on_c, 2, 40, 100
4, 70320, Note_off_c, 2, 40, 0
4, 70320, Note_on_c, 2, 40, 100
4, 70416, Note_off_c, 2, 40, 0
4, 70416, Note_on_c, 2, 40, 100
4, 70512, Note_off_c, 2, 40, 0
4, 70512, Note_on_c, 2, 40, 100
4, 70608, Note_off_c, 2, 40, 0
4, 70608, Note_on_c, 2, 36, 100
4, 70704, Note_off_c, 2, 36, 0
4, 70704, Note_on_c, 2, 36, 100
4, 70800, Note_off_c, 2, 36, 0
4, 70800, Note_on_c, 2, 36, 100
4, 70896, Note_off_c, 2, 36, 0
4, 70896, Note_on_c, 2, 36, 100
4, 70992, Note_off_c, 2, 36, 0
4, 70992, Note_on_c, 2, 38, 100
4, 71088, Note_off_c, 2, 38, 0
4, 71088, Note_on_c, 2, 38, 100
4, 71184, Note_off_c, 2, 38, 0
4, 71184, Note_on_c, 2, 38, 100
4, 71280, Note_off_c, 2, 38, 0
4, 71280, Note_on_c, 2, 38, 100
4, 71376, Note_off_c, 2, 38, 0
4, 71376, Note_on_c, 2, 52, 100
4, 71472, Note_off_c, 2, 52, 0
4, 71472, Note_on_c, 2, 52, 100
4, 71568, Note_off_c, 2, 52, 0
4, 71568, Note_on_c, 2, 52, 100
4, 71664, Note_off_c, 2, 52, 0
4, 71664, Note_on_c, 2, 52, 100
4, 71760, Note_off_c, 2, 52, 0
4, 71760, Note_on_c, 2, 52, 100
4, 71856, Note_off_c, 2, 52, 0
4, 71856, Note_on_c, 2, 52, 100
4, 71952, Note_off_c, 2, 52, 0
4, 71952, Note_on_c, 2, 52, 100
4, 72048, Note_off_c, 2, 52, 0
4, 72048, Note_on_c, 2, 52, 100
4, 72144, Note_off_c, 2, 52, 0
4, 72144, Note_on_c, 2, 52, 100
4, 72240, Note_off_c, 2, 52, 0
4, 72240, Note_on_c, 2, 52, 100
4, 72336, Note_off_c, 2, 52, 0
4, 72336, Note_on_c, 2, 52, 100
4, 72432, Note_off_c, 2, 52, 0
4, 72432, Note_on_c, 2, 52, 100
4, 72528, Note_off_c, 2, 52, 0
4, 72528, Note_on_c, 2, 57, 100
4, 72624, Note_off_c, 2, 57, 0
4, 72624, Note_on_c, 2, 59, 100
4, 72720, Note_off_c, 2, 59, 0
4, 72720, Note_on_c, 2, 62, 100
4, 72816, Note_off_c, 2, 62, 0
4, 72816, Note_on_c, 2, 64, 100
4, 72912, Note_off_c, 2, 64, 0
4, 72912, Note_on_c, 2, 40, 100
4, 73008, Note_off_c, 2, 40, 0
4, 73008, Note_on_c, 2, 40, 100
4, 73104, Note_off_c, 2, 40, 0
4, 73104, Note_on_c, 2, 40, 100
4, 73200, Note_off_c, 2, 40, 0
4, 73200, Note_on_c, 2, 40, 100
4, 73296, Note_off_c, 2, 40, 0
4, 73296, Note_on_c, 2, 40, 100
4, 73392, Note_off_c, 2, 40, 0
4, 73392, Note_on_c, 2, 40, 100
4, 73488, Note_off_c, 2, 40, 0
4, 73488, Note_on_c, 2, 40, 100
4, 73584, Note_off_c, 2, 40, 0
4, 73584, Note_on_c, 2, 40, 100
4, 73680, Note_off_c, 2, 40, 0
4, 73680, Note_on_c, 2, 36, 100
4, 73776, Note_off_c, 2, 36, 0
4, 73776, Note_on_c, 2, 36, 100
4, 73872, Note_off_c, 2, 36, 0
4, 73872, Note_on_c, 2, 36, 100
4, 73968, Note_off_c, 2, 36, 0
4, 73968, Note_on_c, 2, 36, 100
4, 74064, Note_off_c, 2, 36, 0
4, 74064, Note_on_c, 2, 38, 100
4, 74160, Note_off_c, 2, 38, 0
4, 74160, Note_on_c, 2, 38, 100
4, 74256, Note_off_c, 2, 38, 0
4, 74256, Note_on_c, 2, 38, 100
4, 74352, Note_off_c, 2, 38, 0
4, 74352, Note_on_c, 2, 38, 100
4, 74448, Note_off_c, 2, 38, 0
4, 74448, Note_on_c, 2, 52, 100
4, 74544, Note_off_c, 2, 52, 0
4, 74544, Note_on_c, 2, 52, 100
4, 74640, Note_off_c, 2, 52, 0
4, 74640, Note_on_c, 2, 52, 100
4, 74736, Note_off_c, 2, 52, 0
4, 74736, Note_on_c, 2, 52, 100
4, 74832, Note_off_c, 2, 52, 0
4, 74832, Note_on_c, 2, 52, 100
4, 74928, Note_off_c, 2, 52, 0
4, 74928, Note_on_c, 2, 52, 100
4, 75024, Note_off_c, 2, 52, 0
4, 75024, Note_on_c, 2, 52, 100
4, 75120, Note_off_c, 2, 52, 0
4, 75120, Note_on_c, 2, 52, 100
4, 75216, Note_off_c, 2, 52, 0
4, 75216, Note_on_c, 2, 52, 100
4, 75312, Note_off_c, 2, 52, 0
4, 75312, Note_on_c, 2, 52, 100
4, 75408, Note_off_c, 2, 52, 0
4, 75408, Note_on_c, 2, 52, 100
4, 75504, Note_off_c, 2, 52, 0
4, 75504, Note_on_c, 2, 52, 100
4, 75600, Note_off_c, 2, 52, 0
4, 75600, Note_on_c, 2, 57, 100
4, 75696, Note_off_c, 2, 57, 0
4, 75696, Note_on_c, 2, 59, 100
4, 75792, Note_off_c, 2, 59, 0
4, 75792, Note_on_c, 2, 62, 100
4, 75888, Note_off_c, 2, 62, 0
4, 75888, Note_on_c, 2, 64, 100
4, 75984, Note_off_c, 2, 64, 0
4, 75984, Program_c, 2, 30
4, 75984, Note_on_c, 2, 52, 100
4, 75984, Note_on_c, 2, 59, 100
4, 76080, Note_off_c, 2, 59, 0
4, 76080, Note_off_c, 2, 52, 0
4, 76080, Note_on_c, 2, 52, 100
4, 76080, Note_on_c, 2, 59, 100
4, 76176, Note_off_c, 2, 59, 0
4, 76176, Note_off_c, 2, 52, 0
4, 76176, Note_on_c, 2, 52, 100
4, 76176, Note_on_c, 2, 59, 100
4, 76272, Note_off_c, 2, 59, 0
4, 76272, Note_off_c, 2, 52, 0
4, 76272, Note_on_c, 2, 52, 100
4, 76272, Note_on_c, 2, 59, 100
4, 76368, Note_off_c, 2, 59, 0
4, 76368, Note_off_c, 2, 52, 0
4, 76368, Note_on_c, 2, 52, 100
4, 76368, Note_on_c, 2, 59, 100
4, 76464, Note_off_c, 2, 59, 0
4, 76464, Note_off_c, 2, 52, 0
4, 76464, Note_on_c, 2, 52, 100
4, 76464, Note_on_c, 2, 59, 100
4, 76560, Note_off_c, 2, 59, 0
4, 76560, Note_off_c, 2, 52, 0
4, 76560, Note_on_c, 2, 52, 100
4, 76560, Note_on_c, 2, 59, 100
4, 76656, Note_off_c, 2, 59, 0
4, 76656, Note_off_c, 2, 52, 0
4, 76656, Note_on_c, 2, 52, 100
4, 76656, Note_on_c, 2, 59, 100
4, 76752, Note_off_c, 2, 59, 0
4, 76752, Note_off_c, 2, 52, 0
4, 76752, Note_on_c, 2, 52, 100
4, 76752, Note_on_c, 2, 59, 100
4, 76848, Note_off_c, 2, 59, 0
4, 76848, Note_off_c, 2, 52, 0
4, 76848, Note_on_c, 2, 52, 100
4, 76848, Note_on_c, 2, 59, 100
4, 76944, Note_off_c, 2, 59, 0
4, 76944, Note_off_c, 2, 52, 0
4, 76944, Note_on_c, 2, 52, 100
4, 76944, Note_on_c, 2, 59, 100
4, 77040, Note_off_c, 2, 59, 0
4, 77040, Note_off_c, 2, 52, 0
4, 77040, Note_on_c, 2, 52, 100
4, 77040, Note_on_c, 2, 59, 100
4, 77136, Note_off_c, 2, 59, 0
4, 77136, Note_off_c, 2, 52, 0
4, 77136, Note_on_c, 2, 52, 100
4, 77136, Note_on_c, 2, 59, 100
4, 77232, Note_off_c, 2, 59, 0
4, 77232, Note_off_c, 2, 52, 0
4, 77232, Note_on_c, 2, 52, 100
4, 77232, Note_on_c, 2, 59, 100
4, 77328, Note_off_c, 2, 59, 0
4, 77328, Note_off_c, 2, 52, 0
4, 77328, Note_on_c, 2, 52, 100
4, 77328, Note_on_c, 2, 59, 100
4, 77424, Note_off_c, 2, 59, 0
4, 77424, Note_off_c, 2, 52, 0
4, 77424, Note_on_c, 2, 52, 100
4, 77424, Note_on_c, 2, 59, 100
4, 77520, Note_off_c, 2, 59, 0
4, 77520, Note_off_c, 2, 52, 0
4, 77520, Note_on_c, 2, 50, 100
4, 77520, Note_on_c, 2, 57, 100
4, 77616, Note_off_c, 2, 57, 0
4, 77616, Note_off_c, 2, 50, 0
4, 77616, Note_on_c, 2, 50, 100
4, 77616, Note_on_c, 2, 57, 100
4, 77712, Note_off_c, 2, 57, 0
4, 77712, Note_off_c, 2, 50, 0
4, 77712, Note_on_c, 2, 50, 100
4, 77712, Note_on_c, 2, 57, 100
4, 77808, Note_off_c, 2, 57, 0
4, 77808, Note_off_c, 2, 50, 0
4, 77808, Note_on_c, 2, 50, 100
4, 77808, Note_on_c, 2, 57, 100
4, 77904, Note_off_c, 2, 57, 0
4, 77904, Note_off_c, 2, 50, 0
4, 77904, Note_on_c, 2, 50, 100
4, 77904, Note_on_c, 2, 57, 100
4, 78000, Note_off_c, 2, 57, 0
4, 78000, Note_off_c, 2, 50, 0
4, 78000, Note_on_c, 2, 50, 100
4, 78000, Note_on_c, 2, 57, 100
4, 78096, Note_off_c, 2, 57, 0
4, 78096, Note_off_c, 2, 50, 0
4, 78096, Note_on_c, 2, 50, 100
4, 78096, Note_on_c, 2, 57, 100
4, 78192, Note_off_c, 2, 57, 0
4, 78192, Note_off_c, 2, 50, 0
4, 78192, Note_on_c, 2, 50, 100
4, 78192, Note_on_c, 2, 57, 100
4, 78288, Note_off_c, 2, 57, 0
4, 78288, Note_off_c, 2, 50, 0
4, 78288, Note_on_c, 2, 43, 100
4, 78288, Note_on_c, 2, 50, 100
4, 78384, Note_off_c, 2, 50, 0
4, 78384, Note_off_c, 2, 43, 0
4, 78384, Note_on_c, 2, 38, 100
4, 78384, Note_on_c, 2, 45, 100
4, 78624, Note_off_c, 2, 45, 0
4, 78624, Note_off_c, 2, 38, 0
4, 78624, Note_on_c, 2, 40, 100
4, 78624, Note_on_c, 2, 47, 100
4, 78816, Note_off_c, 2, 47, 0
4, 78816, Note_off_c, 2, 40, 0
4, 78816, Note_on_c, 2, 55, 100
4, 78816, Note_on_c, 2, 62, 100
4, 79008, Note_off_c, 2, 62, 0
4, 79008, Note_off_c, 2, 55, 0
4, 79008, Note_on_c, 2, 52, 100
4, 79008, Note_on_c, 2, 59, 100
4, 79104, Note_off_c, 2, 59, 0
4, 79104, Note_off_c, 2, 52, 0
4, 79104, Note_on_c, 2, 52, 100
4, 79104, Note_on_c, 2, 59, 100
4, 79200, Note_off_c, 2, 59, 0
4, 79200, Note_off_c, 2, 52, 0
4, 79200, Note_on_c, 2, 52, 100
4, 79200, Note_on_c, 2, 59, 100
4, 79296, Note_off_c, 2, 59, 0
4, 79296, Note_off_c, 2, 52, 0
4, 79296, Note_on_c, 2, 52, 100
4, 79296, Note_on_c, 2, 59, 100
4, 79392, Note_off_c, 2, 59, 0
4, 79392, Note_off_c, 2, 52, 0
4, 79392, Note_on_c, 2, 52, 100
4, 79392, Note_on_c, 2, 59, 100
4, 79488, Note_off_c, 2, 59, 0
4, 79488, Note_off_c, 2, 52, 0
4, 79488, Note_on_c, 2, 52, 100
4, 79488, Note_on_c, 2, 59, 100
4, 79584, Note_off_c, 2, 59, 0
4, 79584, Note_off_c, 2, 52, 0
4, 79584, Note_on_c, 2, 52, 100
4, 79584, Note_on_c, 2, 59, 100
4, 79680, Note_off_c, 2, 59, 0
4, 79680, Note_off_c, 2, 52, 0
4, 79680, Note_on_c, 2, 52, 100
4, 79680, Note_on_c, 2, 59, 100
4, 79776, Note_off_c, 2, 59, 0
4, 79776, Note_off_c, 2, 52, 0
4, 79776, Note_on_c, 2, 52, 100
4, 79776, Note_on_c, 2, 59, 100
4, 79872, Note_off_c, 2, 59, 0
4, 79872, Note_off_c, 2, 52, 0
4, 79872, Note_on_c, 2, 52, 100
4, 79872, Note_on_c, 2, 59, 100
4, 79968, Note_off_c, 2, 59, 0
4, 79968, Note_off_c, 2, 52, 0
4, 79968, Note_on_c, 2, 52, 100
4, 79968, Note_on_c, 2, 59, 100
4, 80064, Note_off_c, 2, 59, 0
4, 80064, Note_off_c, 2, 52, 0
4, 80064, Note_on_c, 2, 52, 100
4, 80064, Note_on_c, 2, 59, 100
4, 80160, Note_off_c, 2, 59, 0
4, 80160, Note_off_c, 2, 52, 0
4, 80160, Note_on_c, 2, 52, 100
4, 80160, Note_on_c, 2, 59, 100
4, 80256, Note_off_c, 2, 59, 0
4, 80256, Note_off_c, 2, 52, 0
4, 80256, Note_on_c, 2, 52, 100
4, 80256, Note_on_c, 2, 59, 100
4, 80352, Note_off_c, 2, 59, 0
4, 80352, Note_off_c, 2, 52, 0
4, 80352, Note_on_c, 2, 52, 100
4, 80352, Note_on_c, 2, 59, 100
4, 80448, Note_off_c, 2, 59, 0
4, 80448, Note_off_c, 2, 52, 0
4, 80448, Note_on_c, 2, 52, 100
4, 80448, Note_on_c, 2, 59, 100
4, 80544, Note_off_c, 2, 59, 0
4, 80544, Note_off_c, 2, 52, 0
4, 80544, Note_on_c, 2, 50, 100
4, 80544, Note_on_c, 2, 57, 100
4, 80640, Note_off_c, 2, 57, 0
4, 80640, Note_off_c, 2, 50, 0
4, 80640, Note_on_c, 2, 50, 100
4, 80640, Note_on_c, 2, 57, 100
4, 80736, Note_off_c, 2, 57, 0
4, 80736, Note_off_c, 2, 50, 0
4, 80736, Note_on_c, 2, 50, 100
4, 80736, Note_on_c, 2, 57, 100
4, 80832, Note_off_c, 2, 57, 0
4, 80832, Note_off_c, 2, 50, 0
4, 80832, Note_on_c, 2, 50, 100
4, 80832, Note_on_c, 2, 57, 100
4, 80928, Note_off_c, 2, 57, 0
4, 80928, Note_off_c, 2, 50, 0
4, 80928, Note_on_c, 2, 50, 100
4, 80928, Note_on_c, 2, 57, 100
4, 81024, Note_off_c, 2, 57, 0
4, 81024, Note_off_c, 2, 50, 0
4, 81024, Note_on_c, 2, 50, 100
4, 81024, Note_on_c, 2, 57, 100
4, 81120, Note_off_c, 2, 57, 0
4, 81120, Note_off_c, 2, 50, 0
4, 81120, Note_on_c, 2, 50, 100
4, 81120, Note_on_c, 2, 57, 100
4, 81216, Note_off_c, 2, 57, 0
4, 81216, Note_off_c, 2, 50, 0
4, 81216, Note_on_c, 2, 50, 100
4, 81216, Note_on_c, 2, 57, 100
4, 81312, Note_off_c, 2, 57, 0
4, 81312, Note_off_c, 2, 50, 0
4, 81312, Note_on_c, 2, 43, 100
4, 81312, Note_on_c, 2, 50, 100
4, 81408, Note_off_c, 2, 50, 0
4, 81408, Note_off_c, 2, 43, 0
4, 81408, Note_on_c, 2, 38, 100
4, 81408, Note_on_c, 2, 45, 100
4, 81648, Note_off_c, 2, 45, 0
4, 81648, Note_off_c, 2, 38, 0
4, 81648, Note_on_c, 2, 40, 100
4, 81648, Note_on_c, 2, 47, 100
4, 82560, Note_off_c, 2, 47, 0
4, 82560, Note_off_c, 2, 40, 0
4, 82560, End_track
5, 0, Start_track
5, 0, Channel_prefix, 3
5, 0, Control_c, 3, 7, 127
5, 0, Control_c, 3, 10, 0
5, 0, Program_c, 3, 30
5, 0, Note_on_c, 3, 40, 100
5, 288, Note_off_c, 3, 40, 0
5, 288, Note_on_c, 3, 40, 100
5, 576, Note_off_c, 3, 40, 0
5, 576, Note_on_c, 3, 40, 100
5, 768, Note_off_c, 3, 40, 0
5, 768, Note_on_c, 3, 45, 100
5, 864, Note_off_c, 3, 45, 0
5, 864, Note_on_c, 3, 47, 100
5, 960, Note_off_c, 3, 47, 0
5, 960, Note_on_c, 3, 50, 100
5, 1056, Note_off_c, 3, 50, 0
5, 1056, Note_on_c, 3, 52, 100
5, 1152, Note_off_c, 3, 52, 0
5, 1152, Note_on_c, 3, 45, 100
5, 1248, Note_off_c, 3, 45, 0
5, 1248, Note_on_c, 3, 47, 100
5, 1344, Note_off_c, 3, 47, 0
5, 1344, Note_on_c, 3, 50, 100
5, 1440, Note_off_c, 3, 50, 0
5, 1440, Note_on_c, 3, 52, 100
5, 1536, Note_off_c, 3, 52, 0
5, 1536, Note_on_c, 3, 40, 100
5, 1824, Note_off_c, 3, 40, 0
5, 1824, Note_on_c, 3, 40, 100
5, 2112, Note_off_c, 3, 40, 0
5, 2112, Note_on_c, 3, 40, 100
5, 2304, Note_off_c, 3, 40, 0
5, 2304, Note_on_c, 3, 45, 100
5, 2400, Note_off_c, 3, 45, 0
5, 2400, Note_on_c, 3, 47, 100
5, 2496, Note_off_c, 3, 47, 0
5, 2496, Note_on_c, 3, 50, 100
5, 2592, Note_off_c, 3, 50, 0
5, 2592, Note_on_c, 3, 52, 100
5, 2688, Note_off_c, 3, 52, 0
5, 2688, Note_on_c, 3, 45, 100
5, 2784, Note_off_c, 3, 45, 0
5, 2784, Note_on_c, 3, 47, 100
5, 2880, Note_off_c, 3, 47, 0
5, 2880, Note_on_c, 3, 50, 100
5, 2976, Note_off_c, 3, 50, 0
5, 2976, Note_on_c, 3, 52, 100
5, 3648, Note_off_c, 3, 52, 0
5, 3648, Program_c, 3, 30
5, 3648, Note_on_c, 3, 40, 100
5, 3648, Note_on_c, 3, 47, 100
5, 5184, Note_off_c, 3, 47, 0
5, 5184, Note_off_c, 3, 40, 0
5, 5184, Note_on_c, 3, 40, 100
5, 5184, Note_on_c, 3, 47, 100
5, 5760, Note_off_c, 3, 47, 0
5, 5760, Note_off_c, 3, 40, 0
5, 9168, Program_c, 3, 30
5, 9168, Note_on_c, 3, 40, 100
5, 9168, Note_on_c, 3, 47, 100
5, 10512, Note_off_c, 3, 47, 0
5, 10512, Note_off_c, 3, 40, 0
5, 12192, Program_c, 3, 30
5, 12192, Note_on_c, 3, 40, 100
5, 12192, Note_on_c, 3, 47, 100
5, 12960, Note_off_c, 3, 47, 0
5, 12960, Note_off_c, 3, 40, 0
5, 12960, Note_on_c, 3, 40, 100
5, 12960, Note_on_c, 3, 47, 100
5, 13344, Note_off_c, 3, 47, 0
5, 13344, Note_off_c, 3, 40, 0
5, 13344, Note_on_c, 3, 40, 100
5, 13344, Note_on_c, 3, 47, 100
5, 15264, Note_off_c, 3, 47, 0
5, 15264, Note_off_c, 3, 40, 0
5, 15264, Note_on_c, 3, 40, 100
5, 15264, Note_on_c, 3, 47, 100
5, 16032, Note_off_c, 3, 47, 0
5, 16032, Note_off_c, 3, 40, 0
5, 16032, Note_on_c, 3, 40, 100
5, 16032, Note_on_c, 3, 47, 100
5, 16416, Note_off_c, 3, 47, 0
5, 16416, Note_off_c, 3, 40, 0
5, 16416, Note_on_c, 3, 40, 100
5, 16416, Note_on_c, 3, 47, 100
5, 18336, Note_off_c, 3, 47, 0
5, 18336, Note_off_c, 3, 40, 0
5, 18336, Note_on_c, 3, 40, 100
5, 18336, Note_on_c, 3, 47, 100
5, 19872, Note_off_c, 3, 47, 0
5, 19872, Note_off_c, 3, 40, 0
5, 21360, Program_c, 3, 30
5, 21360, Note_on_c, 3, 40, 100
5, 21360, Note_on_c, 3, 47, 100
5, 22896, Note_off_c, 3, 47, 0
5, 22896, Note_off_c, 3, 40, 0
5, 30528, Program_c, 3, 30
5, 30528, Note_on_c, 3, 40, 100
5, 30528, Note_on_c, 3, 47, 100
5, 32064, Note_off_c, 3, 47, 0
5, 32064, Note_off_c, 3, 40, 0
5, 33552, Program_c, 3, 30
5, 33552, Note_on_c, 3, 40, 100
5, 33552, Note_on_c, 3, 47, 100
5, 35088, Note_off_c, 3, 47, 0
5, 35088, Note_off_c, 3, 40, 0
5, 36576, Program_c, 3, 30
5, 36576, Note_on_c, 3, 40, 100
5, 36576, Note_on_c, 3, 47, 100
5, 38112, Note_off_c, 3, 47, 0
5, 38112, Note_off_c, 3, 40, 0
5, 39600, Program_c, 3, 30
5, 39600, Note_on_c, 3, 40, 100
5, 39600, Note_on_c, 3, 47, 100
5, 41136, Note_off_c, 3, 47, 0
5, 41136, Note_off_c, 3, 40, 0
5, 42624, Control_c, 3, 7, 111
5, 42624, Program_c, 3, 29
5, 42624, Note_on_c, 3, 69, 100
5, 42720, Note_off_c, 3, 69, 0
5, 42720, Note_on_c, 3, 60, 100
5, 42816, Note_off_c, 3, 60, 0
5, 42816, Note_on_c, 3, 67, 100
5, 42912, Note_off_c, 3, 67, 0
5, 42912, Note_on_c, 3, 69, 100
5, 43392, Note_off_c, 3, 69, 0
5, 43392, Note_on_c, 3, 69, 100
5, 43488, Note_off_c, 3, 69, 0
5, 43488, Note_on_c, 3, 67, 100
5, 43584, Note_off_c, 3, 67, 0
5, 43584, Note_on_c, 3, 64, 100
5, 43680, Note_off_c, 3, 64, 0
5, 43680, Note_on_c, 3, 62, 100
5, 43776, Note_off_c, 3, 62, 0
5, 43776, Note_on_c, 3, 64, 100
5, 43872, Note_off_c, 3, 64, 0
5, 43872, Note_on_c, 3, 62, 100
5, 43968, Note_off_c, 3, 62, 0
5, 43968, Note_on_c, 3, 64, 100
5, 44064, Note_off_c, 3, 64, 0
5, 44064, Note_on_c, 3, 62, 100
5, 44160, Note_off_c, 3, 62, 0
5, 44160, Note_on_c, 3, 64, 100
5, 44928, Note_off_c, 3, 64, 0
5, 44928, Control_c, 3, 7, 127
5, 44928, Program_c, 3, 40
5, 44928, Note_on_c, 3, 67, 100
5, 45024, Note_off_c, 3, 67, 0
5, 45024, Note_on_c, 3, 62, 100
5, 45264, Note_off_c, 3, 62, 0
5, 45264, Note_on_c, 3, 64, 100
5, 45456, Note_off_c, 3, 64, 0
5, 45456, Note_on_c, 3, 67, 100
5, 45648, Note_off_c, 3, 67, 0
5, 45648, Control_c, 3, 7, 111
5, 45648, Program_c, 3, 29
5, 45648, Note_on_c, 3, 52, 100
5, 45744, Note_off_c, 3, 52, 0
5, 45744, Note_on_c, 3, 55, 100
5, 45840, Note_off_c, 3, 55, 0
5, 45840, Note_on_c, 3, 55, 100
5, 45936, Note_off_c, 3, 55, 0
5, 45936, Note_on_c, 3, 57, 100
5, 46032, Note_off_c, 3, 57, 0
5, 46032, Note_on_c, 3, 57, 100
5, 46128, Note_off_c, 3, 57, 0
5, 46128, Note_on_c, 3, 59, 100
5, 46224, Note_off_c, 3, 59, 0
5, 46224, Note_on_c, 3, 59, 100
5, 46320, Note_off_c, 3, 59, 0
5, 46320, Note_on_c, 3, 62, 100
5, 46416, Note_off_c, 3, 62, 0
5, 46416, Note_on_c, 3, 62, 100
5, 46512, Note_off_c, 3, 62, 0
5, 46512, Note_on_c, 3, 64, 100
5, 47184, Note_off_c, 3, 64, 0
5, 47184, Note_on_c, 3, 69, 100
5, 47280, Note_off_c, 3, 69, 0
5, 47280, Note_on_c, 3, 64, 100
5, 47376, Note_off_c, 3, 64, 0
5, 47376, Note_on_c, 3, 69, 100
5, 47472, Note_off_c, 3, 69, 0
5, 47472, Note_on_c, 3, 64, 100
5, 47952, Note_off_c, 3, 64, 0
5, 47952, Note_on_c, 3, 67, 100
5, 48048, Note_off_c, 3, 67, 0
5, 48048, Note_on_c, 3, 62, 100
5, 48288, Note_off_c, 3, 62, 0
5, 48288, Note_on_c, 3, 64, 100
5, 48480, Note_off_c, 3, 64, 0
5, 48480, Note_on_c, 3, 67, 100
5, 48672, Note_off_c, 3, 67, 0
5, 48672, Note_on_c, 3, 40, 100
5, 48864, Note_off_c, 3, 40, 0
5, 48864, Note_on_c, 3, 42, 100
5, 49056, Note_off_c, 3, 42, 0
5, 49056, Note_on_c, 3, 43, 100
5, 49248, Note_off_c, 3, 43, 0
5, 49248, Note_on_c, 3, 45, 100
5, 49440, Note_off_c, 3, 45, 0
5, 49440, Note_on_c, 3, 47, 100
5, 49632, Note_off_c, 3, 47, 0
5, 49632, Note_on_c, 3, 50, 100
5, 49824, Note_off_c, 3, 50, 0
5, 49824, Note_on_c, 3, 52, 100
5, 50016, Note_off_c, 3, 52, 0
5, 50016, Note_on_c, 3, 55, 100
5, 50208, Note_off_c, 3, 55, 0
5, 50208, Note_on_c, 3, 57, 100
5, 50976, Note_off_c, 3, 57, 0
5, 50976, Note_on_c, 3, 67, 100
5, 51072, Note_off_c, 3, 67, 0
5, 51072, Note_on_c, 3, 62, 100
5, 51312, Note_off_c, 3, 62, 0
5, 51312, Note_on_c, 3, 64, 100
5, 51504, Note_off_c, 3, 64, 0
5, 51504, Note_on_c, 3, 67, 100
5, 51696, Note_off_c, 3, 67, 0
5, 51696, Note_on_c, 3, 64, 100
5, 51744, Note_off_c, 3, 64, 0
5, 51744, Note_on_c, 3, 67, 100
5, 51792, Note_off_c, 3, 67, 0
5, 51792, Note_on_c, 3, 66, 100
5, 52464, Note_off_c, 3, 66, 0
5, 52464, Note_on_c, 3, 64, 100
5, 52512, Note_off_c, 3, 64, 0
5, 52512, Note_on_c, 3, 67, 100
5, 52560, Note_off_c, 3, 67, 0
5, 52560, Note_on_c, 3, 66, 100
5, 53232, Note_off_c, 3, 66, 0
5, 53232, Note_on_c, 3, 64, 100
5, 53280, Note_off_c, 3, 64, 0
5, 53280, Note_on_c, 3, 67, 100
5, 53328, Note_off_c, 3, 67, 0
5, 53328, Note_on_c, 3, 66, 100
5, 53376, Note_off_c, 3, 66, 0
5, 53376, Note_on_c, 3, 64, 100
5, 53424, Note_off_c, 3, 64, 0
5, 53424, Note_on_c, 3, 67, 100
5, 53472, Note_off_c, 3, 67, 0
5, 53472, Note_on_c, 3, 66, 100
5, 53520, Note_off_c, 3, 66, 0
5, 53520, Note_on_c, 3, 64, 100
5, 53568, Note_off_c, 3, 64, 0
5, 53568, Note_on_c, 3, 67, 100
5, 53616, Note_off_c, 3, 67, 0
5, 53616, Note_on_c, 3, 66, 100
5, 53664, Note_off_c, 3, 66, 0
5, 53664, Note_on_c, 3, 64, 100
5, 53712, Note_off_c, 3, 64, 0
5, 53712, Note_on_c, 3, 67, 100
5, 53760, Note_off_c, 3, 67, 0
5, 53760, Note_on_c, 3, 54, 100
5, 53808, Note_off_c, 3, 54, 0
5, 53808, Note_on_c, 3, 64, 100
5, 53856, Note_off_c, 3, 64, 0
5, 53856, Note_on_c, 3, 67, 100
5, 53904, Note_off_c, 3, 67, 0
5, 53904, Note_on_c, 3, 66, 100
5, 53952, Note_off_c, 3, 66, 0
5, 53952, Note_on_c, 3, 64, 100
5, 54096, Note_off_c, 3, 64, 0
5, 54096, Note_on_c, 3, 62, 100
5, 54336, Note_off_c, 3, 62, 0
5, 54336, Note_on_c, 3, 64, 100
5, 54528, Note_off_c, 3, 64, 0
5, 54528, Note_on_c, 3, 67, 100
5, 54576, Note_off_c, 3, 67, 0
5, 54576, Note_on_c, 3, 67, 100
5, 54624, Note_off_c, 3, 67, 0
5, 54624, Note_on_c, 3, 66, 100
5, 54672, Note_off_c, 3, 66, 0
5, 54672, Note_on_c, 3, 64, 100
5, 54720, Note_off_c, 3, 64, 0
5, 54720, Note_on_c, 3, 66, 100
5, 55488, Note_off_c, 3, 66, 0
5, 55488, Note_on_c, 3, 38, 100
5, 55584, Note_off_c, 3, 38, 0
5, 55584, Note_on_c, 3, 40, 100
5, 55680, Note_off_c, 3, 40, 0
5, 55680, Note_on_c, 3, 43, 100
5, 55776, Note_off_c, 3, 43, 0
5, 55776, Note_on_c, 3, 45, 100
5, 55872, Note_off_c, 3, 45, 0
5, 55872, Note_on_c, 3, 45, 100
5, 55968, Note_off_c, 3, 45, 0
5, 55968, Note_on_c, 3, 47, 100
5, 56064, Note_off_c, 3, 47, 0
5, 56064, Note_on_c, 3, 50, 100
5, 56160, Note_off_c, 3, 50, 0
5, 56160, Note_on_c, 3, 52, 100
5, 57024, Note_off_c, 3, 52, 0
5, 57024, Note_on_c, 3, 67, 100
5, 57120, Note_off_c, 3, 67, 0
5, 57120, Note_on_c, 3, 62, 100
5, 57360, Note_off_c, 3, 62, 0
5, 57360, Note_on_c, 3, 64, 100
5, 57552, Note_off_c, 3, 64, 0
5, 57552, Note_on_c, 3, 67, 100
5, 57744, Note_off_c, 3, 67, 0
5, 57744, Control_c, 3, 7, 127
5, 57744, Program_c, 3, 30
5, 57744, Note_on_c, 3, 40, 100
5, 57744, Note_on_c, 3, 47, 100
5, 59280, Note_off_c, 3, 47, 0
5, 59280, Note_off_c, 3, 40, 0
5, 60768, Program_c, 3, 30
5, 60768, Note_on_c, 3, 40, 100
5, 60768, Note_on_c, 3, 47, 100
5, 62304, Note_off_c, 3, 47, 0
5, 62304, Note_off_c, 3, 40, 0
5, 63792, Program_c, 3, 30
5, 63792, Note_on_c, 3, 40, 100
5, 63792, Note_on_c, 3, 47, 100
5, 65328, Note_off_c, 3, 47, 0
5, 65328, Note_off_c, 3, 40, 0
5, 66816, Program_c, 3, 30
5, 66816, Note_on_c, 3, 40, 100
5, 66816, Note_on_c, 3, 47, 100
5, 68352, Note_off_c, 3, 47, 0
5, 68352, Note_off_c, 3, 40, 0
5, 69840, Program_c, 3, 30
5, 69840, Note_on_c, 3, 40, 100
5, 69840, Note_on_c, 3, 47, 100
5, 70608, Note_off_c, 3, 47, 0
5, 70608, Note_off_c, 3, 40, 0
5, 71376, Program_c, 3, 30
5, 71376, Note_on_c, 3, 40, 100
5, 71376, Note_on_c, 3, 47, 100
5, 72912, Note_off_c, 3, 47, 0
5, 72912, Note_off_c, 3, 40, 0
5, 72912, Note_on_c, 3, 40, 100
5, 72912, Note_on_c, 3, 47, 100
5, 73680, Note_off_c, 3, 47, 0
5, 73680, Note_off_c, 3, 40, 0
5, 74448, Program_c, 3, 30
5, 74448, Note_on_c, 3, 40, 100
5, 74448, Note_on_c, 3, 47, 100
5, 75984, Note_off_c, 3, 47, 0
5, 75984, Note_off_c, 3, 40, 0
5, 75984, Note_on_c, 3, 40, 100
5, 75984, Note_on_c, 3, 47, 100
5, 79008, Note_off_c, 3, 47, 0
5, 79008, Note_off_c, 3, 40, 0
5, 79008, Note_on_c, 3, 40, 100
5, 79008, Note_on_c, 3, 47, 100
5, 82560, Note_off_c, 3, 47, 0
5, 82560, Note_off_c, 3, 40, 0
5, 82560, End_track
6, 0, Start_track
6, 0, Channel_prefix, 4
6, 0, Control_c, 4, 7, 127
6, 0, Control_c, 4, 10, 127
6, 0, Program_c, 4, 0
6, 0, End_track
7, 0, Start_track
7, 0, Channel_prefix, 9
7, 0, Control_c, 9, 7, 115
7, 0, Program_c, 9, 0
7, 3072, Note_on_c, 9, 36, 127
7, 3264, Note_off_c, 9, 36, 0
7, 3264, Note_on_c, 9, 38, 127
7, 3456, Note_off_c, 9, 38, 0
7, 3456, Note_on_c, 9, 36, 127
7, 3648, Note_off_c, 9, 36, 0
7, 3648, Note_on_c, 9, 38, 127
7, 3840, Note_off_c, 9, 38, 0
7, 3840, Note_on_c, 9, 36, 127
7, 4032, Note_off_c, 9, 36, 0
7, 4032, Note_on_c, 9, 38, 127
7, 4224, Note_off_c, 9, 38, 0
7, 4224, Note_on_c, 9, 36, 127
7, 4416, Note_off_c, 9, 36, 0
7, 4416, Note_on_c, 9, 38, 127
7, 4608, Note_off_c, 9, 38, 0
7, 4608, Note_on_c, 9, 36, 127
7, 4800, Note_off_c, 9, 36, 0
7, 4800, Note_on_c, 9, 38, 127
7, 4992, Note_off_c, 9, 38, 0
7, 4992, Note_on_c, 9, 36, 127
7, 5184, Note_off_c, 9, 36, 0
7, 5184, Note_on_c, 9, 38, 127
7, 5376, Note_off_c, 9, 38, 0
7, 5376, Note_on_c, 9, 36, 127
7, 5568, Note_off_c, 9, 36, 0
7, 5568, Note_on_c, 9, 38, 127
7, 5760, Note_off_c, 9, 38, 0
7, 5760, Note_on_c, 9, 38, 127
7, 5760, Note_on_c, 9, 38, 127
7, 5856, Note_off_c, 9, 38, 0
7, 5856, Note_off_c, 9, 38, 0
7, 5856, Note_on_c, 9, 38, 127
7, 5856, Note_on_c, 9, 38, 127
7, 5952, Note_off_c, 9, 38, 0
7, 5952, Note_off_c, 9, 38, 0
7, 5952, Note_on_c, 9, 38, 127
7, 5952, Note_on_c, 9, 38, 127
7, 6048, Note_off_c, 9, 38, 0
7, 6048, Note_off_c, 9, 38, 0
7, 6048, Note_on_c, 9, 38, 127
7, 6048, Note_on_c, 9, 38, 127
7, 6144, Note_off_c, 9, 38, 0
7, 6144, Note_on_c, 9, 36, 127
7, 6336, Note_off_c, 9, 36, 0
7, 6336, Note_on_c, 9, 38, 127
7, 6528, Note_off_c, 9, 38, 0
7, 6528, Note_on_c, 9, 36, 127
7, 6720, Note_off_c, 9, 36, 0
7, 6720, Note_on_c, 9, 38, 127
7, 6912, Note_off_c, 9, 38, 0
7, 6912, Note_on_c, 9, 36, 127
7, 7104, Note_off_c, 9, 36, 0
7, 7104, Note_on_c, 9, 38, 127
7, 7296, Note_off_c, 9, 38, 0
7, 7296, Note_on_c, 9, 36, 127
7, 7392, Note_off_c, 9, 36, 0
7, 7392, Note_on_c, 9, 36, 127
7, 7488, Note_off_c, 9, 36, 0
7, 7488, Note_on_c, 9, 38, 127
7, 7680, Note_off_c, 9, 38, 0
7, 7680, Note_off_c, 9, 38, 0
7, 7680, Note_on_c, 9, 49, 127
7, 7680, Note_on_c, 9, 36, 127
7, 7872, Note_off_c, 9, 36, 0
7, 7872, Note_on_c, 9, 38, 127
7, 8064, Note_off_c, 9, 38, 0
7, 8064, Note_on_c, 9, 36, 127
7, 8160, Note_off_c, 9, 36, 0
7, 8160, Note_on_c, 9, 36, 127
7, 8256, Note_off_c, 9, 36, 0
7, 8256, Note_on_c, 9, 38, 127
7, 8448, Note_off_c, 9, 49, 0
7, 8448, Note_off_c, 9, 38, 0
7, 8448, Note_on_c, 9, 49, 127
7, 8448, Note_on_c, 9, 36, 127
7, 8544, Note_off_c, 9, 36, 0
7, 8544, Note_off_c, 9, 49, 0
7, 8544, Note_on_c, 9, 49, 127
7, 8544, Note_on_c, 9, 38, 127
7, 8784, Note_off_c, 9, 38, 0
7, 8784, Note_off_c, 9, 49, 0
7, 8784, Note_on_c, 9, 49, 127
7, 8784, Note_on_c, 9, 38, 127
7, 8976, Note_off_c, 9, 38, 0
7, 8976, Note_on_c, 9, 38, 127
7, 9168, Note_off_c, 9, 49, 0
7, 9168, Note_off_c, 9, 38, 0
7, 9168, Note_on_c, 9, 36, 127
7, 9360, Note_off_c, 9, 36, 0
7, 9360, Note_on_c, 9, 38, 127
7, 9552, Note_off_c, 9, 38, 0
7, 9552, Note_on_c, 9, 36, 127
7, 9744, Note_off_c, 9, 36, 0
7, 9744, Note_on_c, 9, 38, 127
7, 9936, Note_off_c, 9, 38, 0
7, 9936, Note_on_c, 9, 36, 127
7, 10128, Note_off_c, 9, 36, 0
7, 10128, Note_on_c, 9, 38, 127
7, 10320, Note_off_c, 9, 38, 0
7, 10320, Note_on_c, 9, 36, 127
7, 10416, Note_off_c, 9, 36, 0
7, 10416, Note_on_c, 9, 36, 127
7, 10512, Note_off_c, 9, 36, 0
7, 10512, Note_on_c, 9, 38, 127
7, 10512, Note_on_c, 9, 38, 127
7, 10608, Note_off_c, 9, 38, 0
7, 10608, Note_on_c, 9, 38, 127
7, 10704, Note_off_c, 9, 38, 0
7, 10704, Note_off_c, 9, 38, 0
7, 10704, Note_on_c, 9, 49, 127
7, 10704, Note_on_c, 9, 36, 127
7, 10896, Note_off_c, 9, 36, 0
7, 10896, Note_on_c, 9, 38, 127
7, 11088, Note_off_c, 9, 38, 0
7, 11088, Note_on_c, 9, 36, 127
7, 11184, Note_off_c, 9, 36, 0
7, 11184, Note_on_c, 9, 36, 127
7, 11280, Note_off_c, 9, 36, 0
7, 11280, Note_on_c, 9, 38, 127
7, 11472, Note_off_c, 9, 38, 0
7, 11472, Note_on_c, 9, 36, 127
7, 11568, Note_off_c, 9, 36, 0
7, 11568, Note_on_c, 9, 38, 127
7, 11808, Note_off_c, 9, 38, 0
7, 11808, Note_on_c, 9, 38, 127
7, 12000, Note_off_c, 9, 38, 0
7, 12000, Note_on_c, 9, 38, 127
7, 12048, Note_off_c, 9, 49, 0
7, 12048, Note_on_c, 9, 38, 127
7, 12144, Note_off_c, 9, 38, 0
7, 12144, Note_off_c, 9, 38, 0
7, 12144, Note_on_c, 9, 38, 127
7, 12144, Note_on_c, 9, 38, 127
7, 12192, Note_off_c, 9, 38, 0
7, 12192, Note_off_c, 9, 38, 0
7, 12192, Note_on_c, 9, 36, 127
7, 12384, Note_off_c, 9, 36, 0
7, 12384, Note_on_c, 9, 38, 127
7, 12576, Note_off_c, 9, 38, 0
7, 12576, Note_on_c, 9, 36, 127
7, 12672, Note_off_c, 9, 36, 0
7, 12672, Note_on_c, 9, 36, 127
7, 12768, Note_off_c, 9, 36, 0
7, 12768, Note_on_c, 9, 38, 127
7, 12960, Note_off_c, 9, 38, 0
7, 12960, Note_on_c, 9, 36, 127
7, 13152, Note_off_c, 9, 36, 0
7, 13152, Note_on_c, 9, 38, 127
7, 13344, Note_off_c, 9, 38, 0
7, 13344, Note_on_c, 9, 36, 127
7, 13440, Note_off_c, 9, 36, 0
7, 13440, Note_on_c, 9, 36, 127
7, 13536, Note_off_c, 9, 36, 0
7, 13536, Note_on_c, 9, 38, 127
7, 13728, Note_off_c, 9, 38, 0
7, 13728, Note_on_c, 9, 36, 127
7, 13920, Note_off_c, 9, 36, 0
7, 13920, Note_on_c, 9, 38, 127
7, 14112, Note_off_c, 9, 38, 0
7, 14112, Note_on_c, 9, 36, 127
7, 14208, Note_off_c, 9, 36, 0
7, 14208, Note_on_c, 9, 36, 127
7, 14304, Note_off_c, 9, 36, 0
7, 14304, Note_on_c, 9, 38, 127
7, 14496, Note_off_c, 9, 38, 0
7, 14496, Note_on_c, 9, 36, 127
7, 14688, Note_off_c, 9, 36, 0
7, 14688, Note_on_c, 9, 38, 127
7, 14880, Note_off_c, 9, 38, 0
7, 14880, Note_on_c, 9, 38, 127
7, 14976, Note_off_c, 9, 38, 0
7, 14976, Note_on_c, 9, 38, 127
7, 15072, Note_off_c, 9, 38, 0
7, 15072, Note_on_c, 9, 38, 127
7, 15168, Note_off_c, 9, 38, 0
7, 15168, Note_on_c, 9, 38, 127
7, 15264, Note_off_c, 9, 38, 0
7, 15264, Note_on_c, 9, 36, 127
7, 15456, Note_off_c, 9, 36, 0
7, 15456, Note_on_c, 9, 38, 127
7, 15648, Note_off_c, 9, 38, 0
7, 15648, Note_on_c, 9, 36, 127
7, 15744, Note_off_c, 9, 36, 0
7, 15744, Note_on_c, 9, 36, 127
7, 15840, Note_off_c, 9, 36, 0
7, 15840, Note_on_c, 9, 38, 127
7, 16032, Note_off_c, 9, 38, 0
7, 16032, Note_on_c, 9, 36, 127
7, 16224, Note_off_c, 9, 36, 0
7, 16224, Note_on_c, 9, 38, 127
7, 16416, Note_off_c, 9, 38, 0
7, 16416, Note_on_c, 9, 36, 127
7, 16512, Note_off_c, 9, 36, 0
7, 16512, Note_on_c, 9, 36, 127
7, 16608, Note_off_c, 9, 36, 0
7, 16608, Note_on_c, 9, 38, 127
7, 16800, Note_off_c, 9, 38, 0
7, 16800, Note_on_c, 9, 36, 127
7, 16992, Note_off_c, 9, 36, 0
7, 16992, Note_on_c, 9, 38, 127
7, 17184, Note_off_c, 9, 38, 0
7, 17184, Note_on_c, 9, 36, 127
7, 17280, Note_off_c, 9, 36, 0
7, 17280, Note_on_c, 9, 36, 127
7, 17376, Note_off_c, 9, 36, 0
7, 17376, Note_on_c, 9, 38, 127
7, 17568, Note_off_c, 9, 38, 0
7, 17568, Note_on_c, 9, 36, 127
7, 17760, Note_off_c, 9, 36, 0
7, 17760, Note_on_c, 9, 38, 127
7, 17952, Note_off_c, 9, 38, 0
7, 17952, Note_on_c, 9, 38, 127
7, 18048, Note_off_c, 9, 38, 0
7, 18048, Note_on_c, 9, 38, 127
7, 18144, Note_off_c, 9, 38, 0
7, 18144, Note_on_c, 9, 38, 127
7, 18240, Note_off_c, 9, 38, 0
7, 18240, Note_on_c, 9, 38, 127
7, 18336, Note_off_c, 9, 38, 0
7, 18336, Note_on_c, 9, 36, 127
7, 18528, Note_off_c, 9, 36, 0
7, 18528, Note_on_c, 9, 38, 127
7, 18720, Note_off_c, 9, 38, 0
7, 18720, Note_on_c, 9, 36, 127
7, 18912, Note_off_c, 9, 36, 0
7, 18912, Note_on_c, 9, 38, 127
7, 19104, Note_off_c, 9, 38, 0
7, 19104, Note_on_c, 9, 36, 127
7, 19296, Note_off_c, 9, 36, 0
7, 19296, Note_on_c, 9, 38, 127
7, 19488, Note_off_c, 9, 38, 0
7, 19488, Note_on_c, 9, 36, 127
7, 19584, Note_off_c, 9, 36, 0
7, 19584, Note_on_c, 9, 36, 127
7, 19680, Note_off_c, 9, 36, 0
7, 19680, Note_on_c, 9, 38, 127
7, 19872, Note_off_c, 9, 38, 0
7, 19872, Note_on_c, 9, 49, 127
7, 19872, Note_on_c, 9, 36, 127
7, 20064, Note_off_c, 9, 36, 0
7, 20064, Note_on_c, 9, 38, 127
7, 20256, Note_off_c, 9, 38, 0
7, 20256, Note_on_c, 9, 36, 127
7, 20352, Note_off_c, 9, 36, 0
7, 20352, Note_on_c, 9, 36, 127
7, 20448, Note_off_c, 9, 36, 0
7, 20448, Note_on_c, 9, 38, 127
7, 20640, Note_off_c, 9, 38, 0
7, 20640, Note_on_c, 9, 36, 127
7, 20736, Note_off_c, 9, 36, 0
7, 20736, Note_on_c, 9, 38, 127
7, 20976, Note_off_c, 9, 38, 0
7, 20976, Note_on_c, 9, 38, 127
7, 21168, Note_off_c, 9, 38, 0
7, 21168, Note_on_c, 9, 38, 127
7, 21360, Note_off_c, 9, 49, 0
7, 21360, Note_off_c, 9, 38, 0
7, 21360, Note_on_c, 9, 36, 127
7, 21552, Note_off_c, 9, 36, 0
7, 21552, Note_on_c, 9, 38, 127
7, 21744, Note_off_c, 9, 38, 0
7, 21744, Note_on_c, 9, 36, 127
7, 21936, Note_off_c, 9, 36, 0
7, 21936, Note_on_c, 9, 38, 127
7, 22128, Note_off_c, 9, 38, 0
7, 22128, Note_on_c, 9, 36, 127
7, 22320, Note_off_c, 9, 36, 0
7, 22320, Note_on_c, 9, 38, 127
7, 22512, Note_off_c, 9, 38, 0
7, 22512, Note_on_c, 9, 36, 127
7, 22608, Note_off_c, 9, 36, 0
7, 22608, Note_on_c, 9, 36, 127
7, 22704, Note_off_c, 9, 36, 0
7, 22704, Note_on_c, 9, 38, 127
7, 22896, Note_off_c, 9, 38, 0
7, 22896, Note_on_c, 9, 49, 127
7, 22896, Note_on_c, 9, 36, 127
7, 23088, Note_off_c, 9, 36, 0
7, 23088, Note_on_c, 9, 38, 127
7, 23280, Note_off_c, 9, 38, 0
7, 23280, Note_on_c, 9, 36, 127
7, 23376, Note_off_c, 9, 36, 0
7, 23376, Note_on_c, 9, 36, 127
7, 23472, Note_off_c, 9, 36, 0
7, 23472, Note_on_c, 9, 38, 127
7, 23664, Note_off_c, 9, 38, 0
7, 23664, Note_on_c, 9, 36, 127
7, 23760, Note_off_c, 9, 36, 0
7, 23760, Note_on_c, 9, 38, 127
7, 24000, Note_off_c, 9, 38, 0
7, 24000, Note_on_c, 9, 38, 127
7, 24144, Note_off_c, 9, 38, 0
7, 24144, Note_on_c, 9, 38, 127
7, 24192, Note_off_c, 9, 38, 0
7, 24192, Note_on_c, 9, 38, 127
7, 24288, Note_off_c, 9, 38, 0
7, 24288, Note_on_c, 9, 38, 127
7, 24384, Note_off_c, 9, 49, 0
7, 24384, Note_off_c, 9, 38, 0
7, 24384, Note_on_c, 9, 49, 127
7, 24384, Note_on_c, 9, 36, 127
7, 24576, Note_off_c, 9, 36, 0
7, 24576, Note_on_c, 9, 38, 127
7, 24768, Note_off_c, 9, 38, 0
7, 24768, Note_on_c, 9, 36, 127
7, 24864, Note_off_c, 9, 36, 0
7, 24864, Note_on_c, 9, 36, 127
7, 24960, Note_off_c, 9, 36, 0
7, 24960, Note_on_c, 9, 38, 127
7, 25152, Note_off_c, 9, 38, 0
7, 25152, Note_on_c, 9, 36, 127
7, 25344, Note_off_c, 9, 36, 0
7, 25344, Note_on_c, 9, 38, 127
7, 25536, Note_off_c, 9, 38, 0
7, 25536, Note_on_c, 9, 36, 127
7, 25632, Note_off_c, 9, 49, 0
7, 25632, Note_off_c, 9, 36, 0
7, 25632, Note_on_c, 9, 38, 127
7, 25632, Note_on_c, 9, 36, 127
7, 25728, Note_off_c, 9, 36, 0
7, 25728, Note_off_c, 9, 38, 0
7, 25728, Note_on_c, 9, 38, 127
7, 25728, Note_on_c, 9, 38, 127
7, 25824, Note_off_c, 9, 38, 0
7, 25824, Note_on_c, 9, 38, 127
7, 25920, Note_off_c, 9, 38, 0
7, 25920, Note_off_c, 9, 38, 0
7, 25920, Note_on_c, 9, 49, 127
7, 25920, Note_on_c, 9, 36, 127
7, 26112, Note_off_c, 9, 36, 0
7, 26112, Note_on_c, 9, 38, 127
7, 26304, Note_off_c, 9, 38, 0
7, 26304, Note_on_c, 9, 36, 127
7, 26400, Note_off_c, 9, 36, 0
7, 26400, Note_on_c, 9, 36, 127
7, 26496, Note_off_c, 9, 36, 0
7, 26496, Note_on_c, 9, 38, 127
7, 26688, Note_off_c, 9, 38, 0
7, 26688, Note_on_c, 9, 36, 127
7, 26880, Note_off_c, 9, 36, 0
7, 26880, Note_on_c, 9, 38, 127
7, 27072, Note_off_c, 9, 38, 0
7, 27072, Note_on_c, 9, 36, 127
7, 27168, Note_off_c, 9, 49, 0
7, 27168, Note_on_c, 9, 38, 127
7, 27264, Note_off_c, 9, 36, 0
7, 27264, Note_off_c, 9, 38, 0
7, 27264, Note_on_c, 9, 38, 127
7, 27264, Note_on_c, 9, 38, 127
7, 27312, Note_off_c, 9, 38, 0
7, 27312, Note_on_c, 9, 38, 127
7, 27360, Note_off_c, 9, 38, 0
7, 27360, Note_on_c, 9, 38, 127
7, 27456, Note_off_c, 9, 38, 0
7, 27456, Note_off_c, 9, 38, 0
7, 27456, Note_on_c, 9, 49, 127
7, 27456, Note_on_c, 9, 36, 127
7, 27648, Note_off_c, 9, 36, 0
7, 27648, Note_on_c, 9, 38, 127
7, 27840, Note_off_c, 9, 38, 0
7, 27840, Note_on_c, 9, 36, 127
7, 27936, Note_off_c, 9, 36, 0
7, 27936, Note_on_c, 9, 36, 127
7, 28032, Note_off_c, 9, 36, 0
7, 28032, Note_on_c, 9, 38, 127
7, 28224, Note_off_c, 9, 38, 0
7, 28224, Note_on_c, 9, 36, 127
7, 28416, Note_off_c, 9, 36, 0
7, 28416, Note_on_c, 9, 38, 127
7, 28608, Note_off_c, 9, 38, 0
7, 28608, Note_on_c, 9, 36, 127
7, 28704, Note_off_c, 9, 36, 0
7, 28704, Note_on_c, 9, 36, 127
7, 28800, Note_off_c, 9, 36, 0
7, 28800, Note_on_c, 9, 38, 127
7, 28896, Note_off_c, 9, 38, 0
7, 28896, Note_on_c, 9, 38, 127
7, 28992, Note_off_c, 9, 49, 0
7, 28992, Note_off_c, 9, 38, 0
7, 28992, Note_on_c, 9, 49, 127
7, 28992, Note_on_c, 9, 36, 127
7, 29184, Note_off_c, 9, 36, 0
7, 29184, Note_on_c, 9, 38, 127
7, 29376, Note_off_c, 9, 38, 0
7, 29376, Note_on_c, 9, 36, 127
7, 29472, Note_off_c, 9, 36, 0
7, 29472, Note_on_c, 9, 36, 127
7, 29568, Note_off_c, 9, 36, 0
7, 29568, Note_on_c, 9, 38, 127
7, 29760, Note_off_c, 9, 38, 0
7, 29760, Note_on_c, 9, 36, 127
7, 29952, Note_off_c, 9, 36, 0
7, 29952, Note_on_c, 9, 38, 127
7, 30144, Note_off_c, 9, 38, 0
7, 30144, Note_on_c, 9, 36, 127
7, 30288, Note_off_c, 9, 36, 0
7, 30288, Note_on_c, 9, 38, 127
7, 30336, Note_off_c, 9, 38, 0
7, 30336, Note_on_c, 9, 38, 127
7, 30432, Note_off_c, 9, 38, 0
7, 30432, Note_on_c, 9, 38, 127
7, 30528, Note_off_c, 9, 49, 0
7, 30528, Note_off_c, 9, 38, 0
7, 30528, Note_on_c, 9, 36, 127
7, 30720, Note_off_c, 9, 36, 0
7, 30720, Note_on_c, 9, 38, 127
7, 30912, Note_off_c, 9, 38, 0
7, 30912, Note_on_c, 9, 36, 127
7, 31104, Note_off_c, 9, 36, 0
7, 31104, Note_on_c, 9, 38, 127
7, 31296, Note_off_c, 9, 38, 0
7, 31296, Note_on_c, 9, 36, 127
7, 31488, Note_off_c, 9, 36, 0
7, 31488, Note_on_c, 9, 38, 127
7, 31680, Note_off_c, 9, 38, 0
7, 31680, Note_on_c, 9, 36, 127
7, 31776, Note_off_c, 9, 36, 0
7, 31776, Note_on_c, 9, 36, 127
7, 31872, Note_off_c, 9, 36, 0
7, 31872, Note_on_c, 9, 38, 127
7, 32064, Note_off_c, 9, 38, 0
7, 32064, Note_on_c, 9, 49, 127
7, 32064, Note_on_c, 9, 36, 127
7, 32256, Note_off_c, 9, 36, 0
7, 32256, Note_on_c, 9, 38, 127
7, 32448, Note_off_c, 9, 38, 0
7, 32448, Note_on_c, 9, 36, 127
7, 32544, Note_off_c, 9, 36, 0
7, 32544, Note_on_c, 9, 36, 127
7, 32640, Note_off_c, 9, 36, 0
7, 32640, Note_on_c, 9, 38, 127
7, 32832, Note_off_c, 9, 38, 0
7, 32832, Note_on_c, 9, 36, 127
7, 32928, Note_off_c, 9, 36, 0
7, 32928, Note_on_c, 9, 38, 127
7, 33168, Note_off_c, 9, 38, 0
7, 33168, Note_on_c, 9, 38, 127
7, 33360, Note_off_c, 9, 38, 0
7, 33360, Note_on_c, 9, 38, 127
7, 33552, Note_off_c, 9, 49, 0
7, 33552, Note_off_c, 9, 38, 0
7, 33552, Note_on_c, 9, 36, 127
7, 33744, Note_off_c, 9, 36, 0
7, 33744, Note_on_c, 9, 38, 127
7, 33936, Note_off_c, 9, 38, 0
7, 33936, Note_on_c, 9, 36, 127
7, 34128, Note_off_c, 9, 36, 0
7, 34128, Note_on_c, 9, 38, 127
7, 34320, Note_off_c, 9, 38, 0
7, 34320, Note_on_c, 9, 36, 127
7, 34512, Note_off_c, 9, 36, 0
7, 34512, Note_on_c, 9, 38, 127
7, 34704, Note_off_c, 9, 38, 0
7, 34704, Note_on_c, 9, 36, 127
7, 34800, Note_off_c, 9, 36, 0
7, 34800, Note_on_c, 9, 36, 127
7, 34896, Note_off_c, 9, 36, 0
7, 34896, Note_on_c, 9, 38, 127
7, 35088, Note_off_c, 9, 38, 0
7, 35088, Note_on_c, 9, 49, 127
7, 35088, Note_on_c, 9, 36, 127
7, 35280, Note_off_c, 9, 36, 0
7, 35280, Note_on_c, 9, 38, 127
7, 35472, Note_off_c, 9, 38, 0
7, 35472, Note_on_c, 9, 36, 127
7, 35568, Note_off_c, 9, 36, 0
7, 35568, Note_on_c, 9, 36, 127
7, 35664, Note_off_c, 9, 36, 0
7, 35664, Note_on_c, 9, 38, 127
7, 35856, Note_off_c, 9, 38, 0
7, 35856, Note_on_c, 9, 36, 127
7, 35952, Note_off_c, 9, 36, 0
7, 35952, Note_on_c, 9, 38, 127
7, 36192, Note_off_c, 9, 38, 0
7, 36192, Note_on_c, 9, 38, 127
7, 36384, Note_off_c, 9, 38, 0
7, 36384, Note_on_c, 9, 38, 127
7, 36576, Note_off_c, 9, 49, 0
7, 36576, Note_off_c, 9, 38, 0
7, 36576, Note_on_c, 9, 36, 127
7, 36768, Note_off_c, 9, 36, 0
7, 36768, Note_on_c, 9, 38, 127
7, 36960, Note_off_c, 9, 38, 0
7, 36960, Note_on_c, 9, 36, 127
7, 37152, Note_off_c, 9, 36, 0
7, 37152, Note_on_c, 9, 38, 127
7, 37344, Note_off_c, 9, 38, 0
7, 37344, Note_on_c, 9, 36, 127
7, 37536, Note_off_c, 9, 36, 0
7, 37536, Note_on_c, 9, 38, 127
7, 37728, Note_off_c, 9, 38, 0
7, 37728, Note_on_c, 9, 36, 127
7, 37824, Note_off_c, 9, 36, 0
7, 37824, Note_on_c, 9, 36, 127
7, 37920, Note_off_c, 9, 36, 0
7, 37920, Note_on_c, 9, 38, 127
7, 38112, Note_off_c, 9, 38, 0
7, 38112, Note_on_c, 9, 49, 127
7, 38112, Note_on_c, 9, 36, 127
7, 38304, Note_off_c, 9, 36, 0
7, 38304, Note_on_c, 9, 38, 127
7, 38496, Note_off_c, 9, 38, 0
7, 38496, Note_on_c, 9, 36, 127
7, 38592, Note_off_c, 9, 36, 0
7, 38592, Note_on_c, 9, 36, 127
7, 38688, Note_off_c, 9, 36, 0
7, 38688, Note_on_c, 9, 38, 127
7, 38880, Note_off_c, 9, 38, 0
7, 38880, Note_on_c, 9, 36, 127
7, 38976, Note_off_c, 9, 36, 0
7, 38976, Note_on_c, 9, 38, 127
7, 39216, Note_off_c, 9, 38, 0
7, 39216, Note_on_c, 9, 38, 127
7, 39408, Note_off_c, 9, 38, 0
7, 39408, Note_on_c, 9, 38, 127
7, 39600, Note_off_c, 9, 49, 0
7, 39600, Note_off_c, 9, 38, 0
7, 39600, Note_on_c, 9, 36, 127
7, 39792, Note_off_c, 9, 36, 0
7, 39792, Note_on_c, 9, 38, 127
7, 39984, Note_off_c, 9, 38, 0
7, 39984, Note_on_c, 9, 36, 127
7, 40176, Note_off_c, 9, 36, 0
7, 40176, Note_on_c, 9, 38, 127
7, 40368, Note_off_c, 9, 38, 0
7, 40368, Note_on_c, 9, 36, 127
7, 40560, Note_off_c, 9, 36, 0
7, 40560, Note_on_c, 9, 38, 127
7, 40752, Note_off_c, 9, 38, 0
7, 40752, Note_on_c, 9, 36, 127
7, 40848, Note_off_c, 9, 36, 0
7, 40848, Note_on_c, 9, 36, 127
7, 40944, Note_off_c, 9, 36, 0
7, 40944, Note_on_c, 9, 38, 127
7, 41136, Note_off_c, 9, 38, 0
7, 41136, Note_on_c, 9, 49, 127
7, 41136, Note_on_c, 9, 36, 127
7, 41328, Note_off_c, 9, 36, 0
7, 41328, Note_on_c, 9, 38, 127
7, 41520, Note_off_c, 9, 38, 0
7, 41520, Note_on_c, 9, 36, 127
7, 41616, Note_off_c, 9, 36, 0
7, 41616, Note_on_c, 9, 36, 127
7, 41712, Note_off_c, 9, 36, 0
7, 41712, Note_on_c, 9, 38, 127
7, 41904, Note_off_c, 9, 38, 0
7, 41904, Note_on_c, 9, 36, 127
7, 42000, Note_off_c, 9, 36, 0
7, 42000, Note_on_c, 9, 38, 127
7, 42240, Note_off_c, 9, 38, 0
7, 42240, Note_on_c, 9, 38, 127
7, 42432, Note_off_c, 9, 38, 0
7, 42432, Note_on_c, 9, 38, 127
7, 42624, Note_off_c, 9, 49, 0
7, 42624, Note_off_c, 9, 38, 0
7, 42624, Note_on_c, 9, 36, 127
7, 42816, Note_off_c, 9, 36, 0
7, 42816, Note_on_c, 9, 38, 127
7, 43008, Note_off_c, 9, 38, 0
7, 43008, Note_on_c, 9, 36, 127
7, 43200, Note_off_c, 9, 36, 0
7, 43200, Note_on_c, 9, 38, 127
7, 43392, Note_off_c, 9, 38, 0
7, 43392, Note_on_c, 9, 36, 127
7, 43584, Note_off_c, 9, 36, 0
7, 43584, Note_on_c, 9, 38, 127
7, 43776, Note_off_c, 9, 38, 0
7, 43776, Note_on_c, 9, 36, 127
7, 43872, Note_off_c, 9, 36, 0
7, 43872, Note_on_c, 9, 36, 127
7, 43968, Note_off_c, 9, 36, 0
7, 43968, Note_on_c, 9, 38, 127
7, 44160, Note_off_c, 9, 38, 0
7, 44160, Note_on_c, 9, 36, 127
7, 44352, Note_off_c, 9, 36, 0
7, 44352, Note_on_c, 9, 38, 127
7, 44544, Note_off_c, 9, 38, 0
7, 44544, Note_on_c, 9, 36, 127
7, 44640, Note_off_c, 9, 36, 0
7, 44640, Note_on_c, 9, 36, 127
7, 44736, Note_off_c, 9, 36, 0
7, 44736, Note_on_c, 9, 38, 127
7, 44928, Note_off_c, 9, 38, 0
7, 44928, Note_on_c, 9, 36, 127
7, 45024, Note_off_c, 9, 36, 0
7, 45024, Note_on_c, 9, 38, 127
7, 45264, Note_off_c, 9, 38, 0
7, 45264, Note_on_c, 9, 38, 127
7, 45456, Note_off_c, 9, 38, 0
7, 45456, Note_on_c, 9, 38, 127
7, 45648, Note_off_c, 9, 38, 0
7, 45648, Note_on_c, 9, 36, 127
7, 45840, Note_off_c, 9, 36, 0
7, 45840, Note_on_c, 9, 38, 127
7, 46032, Note_off_c, 9, 38, 0
7, 46032, Note_on_c, 9, 36, 127
7, 46224, Note_off_c, 9, 36, 0
7, 46224, Note_on_c, 9, 38, 127
7, 46416, Note_off_c, 9, 38, 0
7, 46416, Note_on_c, 9, 36, 127
7, 46608, Note_off_c, 9, 36, 0
7, 46608, Note_on_c, 9, 38, 127
7, 46800, Note_off_c, 9, 38, 0
7, 46800, Note_on_c, 9, 36, 127
7, 46896, Note_off_c, 9, 36, 0
7, 46896, Note_on_c, 9, 36, 127
7, 46992, Note_off_c, 9, 36, 0
7, 46992, Note_on_c, 9, 38, 127
7, 47184, Note_off_c, 9, 38, 0
7, 47184, Note_on_c, 9, 36, 127
7, 47376, Note_off_c, 9, 36, 0
7, 47376, Note_on_c, 9, 38, 127
7, 47568, Note_off_c, 9, 38, 0
7, 47568, Note_on_c, 9, 36, 127
7, 47664, Note_off_c, 9, 36, 0
7, 47664, Note_on_c, 9, 36, 127
7, 47760, Note_off_c, 9, 36, 0
7, 47760, Note_on_c, 9, 38, 127
7, 47952, Note_off_c, 9, 38, 0
7, 47952, Note_on_c, 9, 36, 127
7, 48048, Note_off_c, 9, 36, 0
7, 48048, Note_on_c, 9, 38, 127
7, 48288, Note_off_c, 9, 38, 0
7, 48288, Note_on_c, 9, 38, 127
7, 48480, Note_off_c, 9, 38, 0
7, 48480, Note_on_c, 9, 38, 127
7, 48672, Note_off_c, 9, 38, 0
7, 48672, Note_on_c, 9, 36, 127
7, 48864, Note_off_c, 9, 36, 0
7, 48864, Note_on_c, 9, 38, 127
7, 49056, Note_off_c, 9, 38, 0
7, 49056, Note_on_c, 9, 36, 127
7, 49248, Note_off_c, 9, 36, 0
7, 49248, Note_on_c, 9, 38, 127
7, 49440, Note_off_c, 9, 38, 0
7, 49440, Note_on_c, 9, 36, 127
7, 49632, Note_off_c, 9, 36, 0
7, 49632, Note_on_c, 9, 38, 127
7, 49824, Note_off_c, 9, 38, 0
7, 49824, Note_on_c, 9, 36, 127
7, 49920, Note_off_c, 9, 36, 0
7, 49920, Note_on_c, 9, 36, 127
7, 50016, Note_off_c, 9, 36, 0
7, 50016, Note_on_c, 9, 38, 127
7, 50208, Note_off_c, 9, 38, 0
7, 50208, Note_on_c, 9, 36, 127
7, 50400, Note_off_c, 9, 36, 0
7, 50400, Note_on_c, 9, 38, 127
7, 50592, Note_off_c, 9, 38, 0
7, 50592, Note_on_c, 9, 36, 127
7, 50688, Note_off_c, 9, 36, 0
7, 50688, Note_on_c, 9, 36, 127
7, 50784, Note_off_c, 9, 36, 0
7, 50784, Note_on_c, 9, 38, 127
7, 50976, Note_off_c, 9, 38, 0
7, 50976, Note_on_c, 9, 36, 127
7, 51072, Note_off_c, 9, 36, 0
7, 51072, Note_on_c, 9, 38, 127
7, 51312, Note_off_c, 9, 38, 0
7, 51312, Note_on_c, 9, 38, 127
7, 51504, Note_off_c, 9, 38, 0
7, 51504, Note_on_c, 9, 38, 127
7, 51696, Note_off_c, 9, 38, 0
7, 51696, Note_on_c, 9, 36, 127
7, 51888, Note_off_c, 9, 36, 0
7, 51888, Note_on_c, 9, 38, 127
7, 52080, Note_off_c, 9, 38, 0
7, 52080, Note_on_c, 9, 36, 127
7, 52272, Note_off_c, 9, 36, 0
7, 52272, Note_on_c, 9, 38, 127
7, 52464, Note_off_c, 9, 38, 0
7, 52464, Note_on_c, 9, 36, 127
7, 52656, Note_off_c, 9, 36, 0
7, 52656, Note_on_c, 9, 38, 127
7, 52848, Note_off_c, 9, 38, 0
7, 52848, Note_on_c, 9, 36, 127
7, 52944, Note_off_c, 9, 36, 0
7, 52944, Note_on_c, 9, 36, 127
7, 53040, Note_off_c, 9, 36, 0
7, 53040, Note_on_c, 9, 38, 127
7, 53232, Note_off_c, 9, 38, 0
7, 53232, Note_on_c, 9, 36, 127
7, 53424, Note_off_c, 9, 36, 0
7, 53424, Note_on_c, 9, 38, 127
7, 53616, Note_off_c, 9, 38, 0
7, 53616, Note_on_c, 9, 36, 127
7, 53712, Note_off_c, 9, 36, 0
7, 53712, Note_on_c, 9, 36, 127
7, 53808, Note_off_c, 9, 36, 0
7, 53808, Note_on_c, 9, 38, 127
7, 54000, Note_off_c, 9, 38, 0
7, 54000, Note_on_c, 9, 36, 127
7, 54096, Note_off_c, 9, 36, 0
7, 54096, Note_on_c, 9, 38, 127
7, 54336, Note_off_c, 9, 38, 0
7, 54336, Note_on_c, 9, 38, 127
7, 54528, Note_off_c, 9, 38, 0
7, 54528, Note_on_c, 9, 38, 127
7, 54720, Note_off_c, 9, 38, 0
7, 54720, Note_on_c, 9, 36, 127
7, 54912, Note_off_c, 9, 36, 0
7, 54912, Note_on_c, 9, 38, 127
7, 55104, Note_off_c, 9, 38, 0
7, 55104, Note_on_c, 9, 36, 127
7, 55296, Note_off_c, 9, 36, 0
7, 55296, Note_on_c, 9, 38, 127
7, 55488, Note_off_c, 9, 38, 0
7, 55488, Note_on_c, 9, 36, 127
7, 55680, Note_off_c, 9, 36, 0
7, 55680, Note_on_c, 9, 38, 127
7, 55872, Note_off_c, 9, 38, 0
7, 55872, Note_on_c, 9, 36, 127
7, 55968, Note_off_c, 9, 36, 0
7, 55968, Note_on_c, 9, 36, 127
7, 56064, Note_off_c, 9, 36, 0
7, 56064, Note_on_c, 9, 38, 127
7, 56256, Note_off_c, 9, 38, 0
7, 56256, Note_on_c, 9, 36, 127
7, 56448, Note_off_c, 9, 36, 0
7, 56448, Note_on_c, 9, 38, 127
7, 56640, Note_off_c, 9, 38, 0
7, 56640, Note_on_c, 9, 36, 127
7, 56736, Note_off_c, 9, 36, 0
7, 56736, Note_on_c, 9, 36, 127
7, 56832, Note_off_c, 9, 36, 0
7, 56832, Note_on_c, 9, 38, 127
7, 57024, Note_off_c, 9, 38, 0
7, 57024, Note_on_c, 9, 36, 127
7, 57120, Note_off_c, 9, 36, 0
7, 57120, Note_on_c, 9, 38, 127
7, 57360, Note_off_c, 9, 38, 0
7, 57360, Note_on_c, 9, 38, 127
7, 57552, Note_off_c, 9, 38, 0
7, 57552, Note_on_c, 9, 38, 127
7, 57744, Note_off_c, 9, 38, 0
7, 57744, Note_on_c, 9, 36, 127
7, 57936, Note_off_c, 9, 36, 0
7, 57936, Note_on_c, 9, 38, 127
7, 58128, Note_off_c, 9, 38, 0
7, 58128, Note_on_c, 9, 36, 127
7, 58320, Note_off_c, 9, 36, 0
7, 58320, Note_on_c, 9, 38, 127
7, 58512, Note_off_c, 9, 38, 0
7, 58512, Note_on_c, 9, 36, 127
7, 58704, Note_off_c, 9, 36, 0
7, 58704, Note_on_c, 9, 38, 127
7, 58896, Note_off_c, 9, 38, 0
7, 58896, Note_on_c, 9, 36, 127
7, 58992, Note_off_c, 9, 36, 0
7, 58992, Note_on_c, 9, 36, 127
7, 59088, Note_off_c, 9, 36, 0
7, 59088, Note_on_c, 9, 38, 127
7, 59280, Note_off_c, 9, 38, 0
7, 59280, Note_on_c, 9, 49, 127
7, 59280, Note_on_c, 9, 36, 127
7, 59472, Note_off_c, 9, 36, 0
7, 59472, Note_on_c, 9, 38, 127
7, 59664, Note_off_c, 9, 38, 0
7, 59664, Note_on_c, 9, 36, 127
7, 59760, Note_off_c, 9, 36, 0
7, 59760, Note_on_c, 9, 36, 127
7, 59856, Note_off_c, 9, 36, 0
7, 59856, Note_on_c, 9, 38, 127
7, 60048, Note_off_c, 9, 38, 0
7, 60048, Note_on_c, 9, 36, 127
7, 60144, Note_off_c, 9, 36, 0
7, 60144, Note_on_c, 9, 38, 127
7, 60384, Note_off_c, 9, 38, 0
7, 60384, Note_on_c, 9, 38, 127
7, 60576, Note_off_c, 9, 38, 0
7, 60576, Note_on_c, 9, 38, 127
7, 60768, Note_off_c, 9, 49, 0
7, 60768, Note_off_c, 9, 38, 0
7, 60768, Note_on_c, 9, 36, 127
7, 60960, Note_off_c, 9, 36, 0
7, 60960, Note_on_c, 9, 38, 127
7, 61152, Note_off_c, 9, 38, 0
7, 61152, Note_on_c, 9, 36, 127
7, 61344, Note_off_c, 9, 36, 0
7, 61344, Note_on_c, 9, 38, 127
7, 61536, Note_off_c, 9, 38, 0
7, 61536, Note_on_c, 9, 36, 127
7, 61728, Note_off_c, 9, 36, 0
7, 61728, Note_on_c, 9, 38, 127
7, 61920, Note_off_c, 9, 38, 0
7, 61920, Note_on_c, 9, 36, 127
7, 62016, Note_off_c, 9, 36, 0
7, 62016, Note_on_c, 9, 36, 127
7, 62112, Note_off_c, 9, 36, 0
7, 62112, Note_on_c, 9, 38, 127
7, 62304, Note_off_c, 9, 38, 0
7, 62304, Note_on_c, 9, 49, 127
7, 62304, Note_on_c, 9, 36, 127
7, 62496, Note_off_c, 9, 36, 0
7, 62496, Note_on_c, 9, 38, 127
7, 62688, Note_off_c, 9, 38, 0
7, 62688, Note_on_c, 9, 36, 127
7, 62784, Note_off_c, 9, 36, 0
7, 62784, Note_on_c, 9, 36, 127
7, 62880, Note_off_c, 9, 36, 0
7, 62880, Note_on_c, 9, 38, 127
7, 63072, Note_off_c, 9, 49, 0
7, 63072, Note_off_c, 9, 38, 0
7, 63072, Note_on_c, 9, 49, 127
7, 63072, Note_on_c, 9, 36, 127
7, 63168, Note_off_c, 9, 36, 0
7, 63168, Note_off_c, 9, 49, 0
7, 63168, Note_on_c, 9, 49, 127
7, 63168, Note_on_c, 9, 38, 127
7, 63408, Note_off_c, 9, 38, 0
7, 63408, Note_off_c, 9, 49, 0
7, 63408, Note_on_c, 9, 49, 127
7, 63408, Note_on_c, 9, 38, 127
7, 63600, Note_off_c, 9, 38, 0
7, 63600, Note_off_c, 9, 49, 0
7, 63600, Note_on_c, 9, 49, 127
7, 63600, Note_on_c, 9, 38, 127
7, 63696, Note_off_c, 9, 49, 0
7, 63696, Note_on_c, 9, 38, 127
7, 63792, Note_off_c, 9, 38, 0
7, 63792, Note_off_c, 9, 38, 0
7, 63792, Note_on_c, 9, 36, 127
7, 63984, Note_off_c, 9, 36, 0
7, 63984, Note_on_c, 9, 38, 127
7, 64176, Note_off_c, 9, 38, 0
7, 64176, Note_on_c, 9, 36, 127
7, 64368, Note_off_c, 9, 36, 0
7, 64368, Note_on_c, 9, 38, 127
7, 64560, Note_off_c, 9, 38, 0
7, 64560, Note_on_c, 9, 36, 127
7, 64752, Note_off_c, 9, 36, 0
7, 64752, Note_on_c, 9, 38, 127
7, 64944, Note_off_c, 9, 38, 0
7, 64944, Note_on_c, 9, 36, 127
7, 65040, Note_off_c, 9, 36, 0
7, 65040, Note_on_c, 9, 36, 127
7, 65136, Note_off_c, 9, 36, 0
7, 65136, Note_on_c, 9, 38, 127
7, 65328, Note_off_c, 9, 38, 0
7, 65328, Note_on_c, 9, 49, 127
7, 65328, Note_on_c, 9, 36, 127
7, 65520, Note_off_c, 9, 36, 0
7, 65520, Note_on_c, 9, 38, 127
7, 65712, Note_off_c, 9, 38, 0
7, 65712, Note_on_c, 9, 36, 127
7, 65808, Note_off_c, 9, 36, 0
7, 65808, Note_on_c, 9, 36, 127
7, 65904, Note_off_c, 9, 36, 0
7, 65904, Note_on_c, 9, 38, 127
7, 66096, Note_off_c, 9, 49, 0
7, 66096, Note_off_c, 9, 38, 0
7, 66096, Note_on_c, 9, 49, 127
7, 66096, Note_on_c, 9, 36, 127
7, 66192, Note_off_c, 9, 36, 0
7, 66192, Note_off_c, 9, 49, 0
7, 66192, Note_on_c, 9, 49, 127
7, 66192, Note_on_c, 9, 38, 127
7, 66432, Note_off_c, 9, 38, 0
7, 66432, Note_off_c, 9, 49, 0
7, 66432, Note_on_c, 9, 49, 127
7, 66432, Note_on_c, 9, 38, 127
7, 66624, Note_off_c, 9, 38, 0
7, 66624, Note_off_c, 9, 49, 0
7, 66624, Note_on_c, 9, 49, 127
7, 66624, Note_on_c, 9, 38, 127
7, 66816, Note_off_c, 9, 38, 0
7, 66816, Note_off_c, 9, 49, 0
7, 66816, Note_on_c, 9, 36, 127
7, 67008, Note_off_c, 9, 36, 0
7, 67008, Note_on_c, 9, 38, 127
7, 67200, Note_off_c, 9, 38, 0
7, 67200, Note_on_c, 9, 36, 127
7, 67392, Note_off_c, 9, 36, 0
7, 67392, Note_on_c, 9, 38, 127
7, 67584, Note_off_c, 9, 38, 0
7, 67584, Note_on_c, 9, 36, 127
7, 67776, Note_off_c, 9, 36, 0
7, 67776, Note_on_c, 9, 38, 127
7, 67968, Note_off_c, 9, 38, 0
7, 67968, Note_on_c, 9, 36, 127
7, 68064, Note_off_c, 9, 36, 0
7, 68064, Note_on_c, 9, 36, 127
7, 68160, Note_off_c, 9, 36, 0
7, 68160, Note_on_c, 9, 38, 127
7, 68352, Note_off_c, 9, 38, 0
7, 68352, Note_on_c, 9, 49, 127
7, 68352, Note_on_c, 9, 36, 127
7, 68544, Note_off_c, 9, 36, 0
7, 68544, Note_on_c, 9, 38, 127
7, 68736, Note_off_c, 9, 38, 0
7, 68736, Note_on_c, 9, 36, 127
7, 68832, Note_off_c, 9, 36, 0
7, 68832, Note_on_c, 9, 36, 127
7, 68928, Note_off_c, 9, 36, 0
7, 68928, Note_on_c, 9, 38, 127
7, 69120, Note_off_c, 9, 49, 0
7, 69120, Note_off_c, 9, 38, 0
7, 69120, Note_on_c, 9, 49, 127
7, 69120, Note_on_c, 9, 36, 127
7, 69216, Note_off_c, 9, 36, 0
7, 69216, Note_off_c, 9, 49, 0
7, 69216, Note_on_c, 9, 49, 127
7, 69216, Note_on_c, 9, 38, 127
7, 69456, Note_off_c, 9, 38, 0
7, 69456, Note_off_c, 9, 49, 0
7, 69456, Note_on_c, 9, 49, 127
7, 69456, Note_on_c, 9, 38, 127
7, 69648, Note_off_c, 9, 38, 0
7, 69648, Note_on_c, 9, 38, 127
7, 69840, Note_off_c, 9, 49, 0
7, 69840, Note_off_c, 9, 38, 0
7, 69840, Note_on_c, 9, 36, 127
7, 70032, Note_off_c, 9, 36, 0
7, 70032, Note_on_c, 9, 38, 127
7, 70224, Note_off_c, 9, 38, 0
7, 70224, Note_on_c, 9, 36, 127
7, 70320, Note_off_c, 9, 36, 0
7, 70320, Note_on_c, 9, 36, 127
7, 70416, Note_off_c, 9, 36, 0
7, 70416, Note_on_c, 9, 38, 127
7, 70608, Note_off_c, 9, 38, 0
7, 70608, Note_on_c, 9, 49, 127
7, 70608, Note_on_c, 9, 36, 127
7, 70800, Note_off_c, 9, 36, 0
7, 70800, Note_on_c, 9, 38, 127
7, 70992, Note_off_c, 9, 49, 0
7, 70992, Note_off_c, 9, 38, 0
7, 70992, Note_on_c, 9, 49, 127
7, 70992, Note_on_c, 9, 36, 127
7, 71088, Note_off_c, 9, 36, 0
7, 71088, Note_on_c, 9, 36, 127
7, 71184, Note_off_c, 9, 36, 0
7, 71184, Note_on_c, 9, 38, 127
7, 71376, Note_off_c, 9, 49, 0
7, 71376, Note_off_c, 9, 38, 0
7, 71376, Note_on_c, 9, 36, 127
7, 71568, Note_off_c, 9, 36, 0
7, 71568, Note_on_c, 9, 38, 127
7, 71760, Note_off_c, 9, 38, 0
7, 71760, Note_on_c, 9, 36, 127
7, 71856, Note_off_c, 9, 36, 0
7, 71856, Note_on_c, 9, 36, 127
7, 71952, Note_off_c, 9, 36, 0
7, 71952, Note_on_c, 9, 38, 127
7, 72144, Note_off_c, 9, 38, 0
7, 72144, Note_on_c, 9, 36, 127
7, 72336, Note_off_c, 9, 36, 0
7, 72336, Note_on_c, 9, 38, 127
7, 72528, Note_off_c, 9, 38, 0
7, 72528, Note_on_c, 9, 38, 127
7, 72624, Note_off_c, 9, 38, 0
7, 72624, Note_on_c, 9, 38, 127
7, 72720, Note_off_c, 9, 38, 0
7, 72720, Note_on_c, 9, 38, 127
7, 72816, Note_off_c, 9, 38, 0
7, 72816, Note_on_c, 9, 38, 127
7, 72912, Note_off_c, 9, 38, 0
7, 72912, Note_on_c, 9, 36, 127
7, 73104, Note_off_c, 9, 36, 0
7, 73104, Note_on_c, 9, 38, 127
7, 73296, Note_off_c, 9, 38, 0
7, 73296, Note_on_c, 9, 36, 127
7, 73392, Note_off_c, 9, 36, 0
7, 73392, Note_on_c, 9, 36, 127
7, 73488, Note_off_c, 9, 36, 0
7, 73488, Note_on_c, 9, 38, 127
7, 73680, Note_off_c, 9, 38, 0
7, 73680, Note_on_c, 9, 49, 127
7, 73680, Note_on_c, 9, 36, 127
7, 73872, Note_off_c, 9, 36, 0
7, 73872, Note_on_c, 9, 38, 127
7, 74064, Note_off_c, 9, 49, 0
7, 74064, Note_off_c, 9, 38, 0
7, 74064, Note_on_c, 9, 49, 127
7, 74064, Note_on_c, 9, 36, 127
7, 74160, Note_off_c, 9, 36, 0
7, 74160, Note_on_c, 9, 36, 127
7, 74256, Note_off_c, 9, 36, 0
7, 74256, Note_on_c, 9, 38, 127
7, 74448, Note_off_c, 9, 49, 0
7, 74448, Note_off_c, 9, 38, 0
7, 74448, Note_on_c, 9, 36, 127
7, 74640, Note_off_c, 9, 36, 0
7, 74640, Note_on_c, 9, 38, 127
7, 74832, Note_off_c, 9, 38, 0
7, 74832, Note_on_c, 9, 36, 127
7, 74928, Note_off_c, 9, 36, 0
7, 74928, Note_on_c, 9, 36, 127
7, 75024, Note_off_c, 9, 36, 0
7, 75024, Note_on_c, 9, 38, 127
7, 75216, Note_off_c, 9, 38, 0
7, 75216, Note_on_c, 9, 36, 127
7, 75408, Note_off_c, 9, 36, 0
7, 75408, Note_on_c, 9, 38, 127
7, 75600, Note_off_c, 9, 38, 0
7, 75600, Note_on_c, 9, 38, 127
7, 75696, Note_off_c, 9, 38, 0
7, 75696, Note_on_c, 9, 38, 127
7, 75792, Note_off_c, 9, 38, 0
7, 75792, Note_on_c, 9, 38, 127
7, 75888, Note_off_c, 9, 38, 0
7, 75888, Note_on_c, 9, 38, 127
7, 75984, Note_off_c, 9, 38, 0
7, 75984, Note_on_c, 9, 36, 127
7, 76176, Note_off_c, 9, 36, 0
7, 76176, Note_on_c, 9, 38, 127
7, 76368, Note_off_c, 9, 38, 0
7, 76368, Note_on_c, 9, 36, 127
7, 76560, Note_off_c, 9, 36, 0
7, 76560, Note_on_c, 9, 38, 127
7, 76752, Note_off_c, 9, 38, 0
7, 76752, Note_on_c, 9, 36, 127
7, 76944, Note_off_c, 9, 36, 0
7, 76944, Note_on_c, 9, 38, 127
7, 77136, Note_off_c, 9, 38, 0
7, 77136, Note_on_c, 9, 36, 127
7, 77232, Note_off_c, 9, 36, 0
7, 77232, Note_on_c, 9, 36, 127
7, 77328, Note_off_c, 9, 36, 0
7, 77328, Note_on_c, 9, 38, 127
7, 77520, Note_off_c, 9, 38, 0
7, 77520, Note_on_c, 9, 36, 127
7, 77712, Note_off_c, 9, 36, 0
7, 77712, Note_on_c, 9, 38, 127
7, 77904, Note_off_c, 9, 38, 0
7, 77904, Note_on_c, 9, 36, 127
7, 78000, Note_off_c, 9, 36, 0
7, 78000, Note_on_c, 9, 36, 127
7, 78096, Note_off_c, 9, 36, 0
7, 78096, Note_on_c, 9, 38, 127
7, 78288, Note_off_c, 9, 38, 0
7, 78288, Note_on_c, 9, 36, 127
7, 78384, Note_off_c, 9, 36, 0
7, 78384, Note_on_c, 9, 38, 127
7, 78624, Note_off_c, 9, 38, 0
7, 78624, Note_on_c, 9, 38, 127
7, 78816, Note_off_c, 9, 38, 0
7, 78816, Note_on_c, 9, 38, 127
7, 79008, Note_off_c, 9, 38, 0
7, 79008, Note_on_c, 9, 36, 127
7, 79200, Note_off_c, 9, 36, 0
7, 79200, Note_on_c, 9, 38, 127
7, 79392, Note_off_c, 9, 38, 0
7, 79392, Note_on_c, 9, 36, 127
7, 79584, Note_off_c, 9, 36, 0
7, 79584, Note_on_c, 9, 38, 127
7, 79776, Note_off_c, 9, 38, 0
7, 79776, Note_on_c, 9, 36, 127
7, 79968, Note_off_c, 9, 36, 0
7, 79968, Note_on_c, 9, 38, 127
7, 80160, Note_off_c, 9, 38, 0
7, 80160, Note_on_c, 9, 36, 127
7, 80256, Note_off_c, 9, 36, 0
7, 80256, Note_on_c, 9, 36, 127
7, 80352, Note_off_c, 9, 36, 0
7, 80352, Note_on_c, 9, 38, 127
7, 80544, Note_off_c, 9, 38, 0
7, 80544, Note_on_c, 9, 36, 127
7, 80736, Note_off_c, 9, 36, 0
7, 80736, Note_on_c, 9, 38, 127
7, 80928, Note_off_c, 9, 38, 0
7, 80928, Note_on_c, 9, 36, 127
7, 81024, Note_off_c, 9, 36, 0
7, 81024, Note_on_c, 9, 36, 127
7, 81120, Note_off_c, 9, 36, 0
7, 81120, Note_on_c, 9, 38, 127
7, 81312, Note_off_c, 9, 38, 0
7, 81312, Note_on_c, 9, 36, 127
7, 81408, Note_off_c, 9, 36, 0
7, 81408, Note_on_c, 9, 38, 127
7, 81648, Note_off_c, 9, 38, 0
7, 81648, Note_on_c, 9, 38, 127
7, 82560, Note_off_c, 9, 38, 0
7, 82560, End_track
0, 0, End_of_file
