0, 0, Header, 0, 1, 120
1, 0, Start_track
1, 0, Title_t, "Led Zeppelin Trampled Under Foot"
1, 0, Copyright_t, "Copyright © 1997 by Dave Anderson"
1, 0, Time_signature, 4, 2, 24, 8
1, 0, Key_signature, -2, "major"
1, 0, Tempo, 545455
1, 0, Program_c, 0, 7
1, 0, Control_c, 0, 7, 100
1, 0, Control_c, 0, 10, 1
1, 0, Note_on_c, 0, 43, 100
1, 0, Program_c, 1, 30
1, 0, Control_c, 1, 7, 100
1, 0, Control_c, 1, 10, 2
1, 0, Program_c, 2, 34
1, 0, Control_c, 2, 7, 120
1, 0, Control_c, 2, 10, 2
1, 0, Program_c, 3, 21
1, 0, Control_c, 3, 7, 127
1, 0, Control_c, 3, 10, 1
1, 0, Program_c, 4, 2
1, 0, Control_c, 4, 7, 127
1, 0, Control_c, 4, 10, 3
1, 0, Program_c, 5, 83
1, 0, Control_c, 5, 7, 127
1, 0, Control_c, 5, 10, 7
1, 0, Control_c, 9, 7, 127
1, 0, Control_c, 9, 10, 1
1, 60, Note_on_c, 0, 43, 0
1, 60, Note_on_c, 0, 67, 100
1, 60, Note_on_c, 0, 55, 100
1, 120, Note_on_c, 0, 55, 0
1, 120, Note_on_c, 0, 67, 0
1, 120, Note_on_c, 0, 65, 100
1, 120, Note_on_c, 0, 43, 100
1, 180, Note_on_c, 0, 43, 0
1, 180, Note_on_c, 0, 65, 0
1, 180, Note_on_c, 0, 67, 100
1, 180, Note_on_c, 0, 55, 100
1, 240, Note_on_c, 0, 55, 0
1, 240, Note_on_c, 0, 67, 0
1, 240, Note_on_c, 0, 74, 100
1, 240, Note_on_c, 0, 69, 100
1, 240, Note_on_c, 0, 43, 100
1, 270, Note_on_c, 0, 69, 0
1, 270, Note_on_c, 0, 70, 100
1, 300, Note_on_c, 0, 43, 0
1, 300, Note_on_c, 0, 55, 100
1, 330, Note_on_c, 0, 70, 0
1, 330, Note_on_c, 0, 74, 0
1, 330, Note_on_c, 0, 74, 100
1, 330, Note_on_c, 0, 67, 100
1, 360, Note_on_c, 0, 55, 0
1, 360, Note_on_c, 0, 43, 100
1, 390, Note_on_c, 0, 67, 0
1, 390, Note_on_c, 0, 74, 0
1, 390, Note_on_c, 0, 65, 100
1, 420, Note_on_c, 0, 65, 0
1, 420, Note_on_c, 0, 43, 0
1, 420, Note_on_c, 0, 62, 100
1, 420, Note_on_c, 0, 55, 100
1, 450, Note_on_c, 0, 62, 0
1, 480, Note_on_c, 0, 55, 0
1, 480, Note_on_c, 0, 43, 100
1, 540, Note_on_c, 0, 43, 0
1, 540, Note_on_c, 0, 67, 100
1, 540, Note_on_c, 0, 55, 100
1, 600, Note_on_c, 0, 55, 0
1, 600, Note_on_c, 0, 67, 0
1, 600, Note_on_c, 0, 65, 100
1, 600, Note_on_c, 0, 43, 100
1, 660, Note_on_c, 0, 43, 0
1, 660, Note_on_c, 0, 65, 0
1, 660, Note_on_c, 0, 67, 100
1, 660, Note_on_c, 0, 55, 100
1, 720, Note_on_c, 0, 55, 0
1, 720, Note_on_c, 0, 67, 0
1, 720, Note_on_c, 0, 74, 100
1, 720, Note_on_c, 0, 69, 100
1, 720, Note_on_c, 0, 43, 100
1, 750, Note_on_c, 0, 69, 0
1, 750, Note_on_c, 0, 70, 100
1, 780, Note_on_c, 0, 43, 0
1, 780, Note_on_c, 0, 55, 100
1, 780, Note_on_c, 9, 40, 100
1, 810, Note_on_c, 0, 70, 0
1, 810, Note_on_c, 0, 74, 0
1, 810, Note_on_c, 0, 74, 100
1, 810, Note_on_c, 0, 65, 100
1, 840, Note_on_c, 0, 55, 0
1, 840, Note_on_c, 9, 40, 0
1, 840, Note_on_c, 0, 43, 100
1, 840, Note_on_c, 9, 38, 100
1, 870, Note_on_c, 0, 74, 0
1, 870, Note_on_c, 0, 65, 0
1, 870, Note_on_c, 0, 72, 100
1, 870, Note_on_c, 0, 65, 100
1, 900, Note_on_c, 0, 72, 0
1, 900, Note_on_c, 9, 38, 0
1, 900, Note_on_c, 0, 43, 0
1, 900, Note_on_c, 0, 70, 100
1, 900, Note_on_c, 0, 55, 100
1, 900, Note_on_c, 9, 40, 100
1, 930, Note_on_c, 9, 40, 0
1, 930, Note_on_c, 0, 65, 0
1, 930, Note_on_c, 0, 70, 0
1, 930, Note_on_c, 0, 70, 100
1, 930, Note_on_c, 0, 65, 100
1, 930, Note_on_c, 9, 40, 100
1, 960, Note_on_c, 9, 40, 0
1, 960, Note_on_c, 0, 55, 0
1, 960, Note_on_c, 0, 70, 0
1, 960, Note_on_c, 0, 65, 0
1, 960, Note_on_c, 0, 43, 100
1, 960, Note_on_c, 2, 43, 100
1, 960, Note_on_c, 3, 77, 100
1, 960, Note_on_c, 9, 36, 100
1, 960, Note_on_c, 9, 49, 100
1, 1020, Note_on_c, 9, 49, 0
1, 1020, Note_on_c, 3, 77, 0
1, 1020, Note_on_c, 0, 43, 0
1, 1020, Note_on_c, 2, 43, 0
1, 1020, Note_on_c, 9, 36, 0
1, 1020, Note_on_c, 0, 67, 100
1, 1020, Note_on_c, 0, 55, 100
1, 1020, Note_on_c, 1, 70, 100
1, 1020, Note_on_c, 1, 74, 100
1, 1020, Note_on_c, 3, 79, 100
1, 1020, Note_on_c, 9, 36, 100
1, 1020, Note_on_c, 9, 46, 100
1, 1080, Note_on_c, 9, 46, 0
1, 1080, Note_on_c, 3, 79, 0
1, 1080, Note_on_c, 0, 55, 0
1, 1080, Note_on_c, 1, 70, 0
1, 1080, Note_on_c, 0, 67, 0
1, 1080, Note_on_c, 9, 36, 0
1, 1080, Note_on_c, 1, 74, 0
1, 1080, Note_on_c, 0, 65, 100
1, 1080, Note_on_c, 0, 43, 100
1, 1080, Note_on_c, 1, 69, 100
1, 1080, Note_on_c, 1, 73, 100
1, 1080, Note_on_c, 2, 43, 100
1, 1080, Note_on_c, 3, 79, 100
1, 1080, Note_on_c, 9, 36, 100
1, 1080, Note_on_c, 9, 38, 100
1, 1080, Note_on_c, 9, 46, 100
1, 1140, Note_on_c, 9, 46, 0
1, 1140, Note_on_c, 0, 65, 0
1, 1140, Note_on_c, 3, 79, 0
1, 1140, Note_on_c, 1, 73, 0
1, 1140, Note_on_c, 0, 43, 0
1, 1140, Note_on_c, 1, 69, 0
1, 1140, Note_on_c, 2, 43, 0
1, 1140, Note_on_c, 0, 67, 100
1, 1140, Note_on_c, 0, 55, 100
1, 1140, Note_on_c, 1, 74, 100
1, 1140, Note_on_c, 1, 70, 100
1, 1140, Note_on_c, 3, 79, 100
1, 1140, Note_on_c, 9, 46, 100
1, 1200, Note_on_c, 9, 46, 0
1, 1200, Note_on_c, 9, 36, 0
1, 1200, Note_on_c, 1, 70, 0
1, 1200, Note_on_c, 9, 38, 0
1, 1200, Note_on_c, 0, 67, 0
1, 1200, Note_on_c, 0, 55, 0
1, 1200, Note_on_c, 1, 74, 0
1, 1200, Note_on_c, 0, 74, 100
1, 1200, Note_on_c, 0, 69, 100
1, 1200, Note_on_c, 0, 43, 100
1, 1200, Note_on_c, 1, 69, 100
1, 1200, Note_on_c, 2, 43, 100
1, 1200, Note_on_c, 9, 36, 100
1, 1200, Note_on_c, 9, 46, 100
1, 1230, Note_on_c, 1, 69, 0
1, 1230, Note_on_c, 0, 69, 0
1, 1230, Note_on_c, 0, 70, 100
1, 1230, Note_on_c, 1, 70, 100
1, 1260, Note_on_c, 1, 70, 0
1, 1260, Note_on_c, 2, 43, 0
1, 1260, Note_on_c, 9, 46, 0
1, 1260, Note_on_c, 0, 43, 0
1, 1260, Note_on_c, 9, 36, 0
1, 1260, Note_on_c, 0, 55, 100
1, 1260, Note_on_c, 1, 67, 100
1, 1260, Note_on_c, 2, 43, 100
1, 1260, Note_on_c, 9, 36, 100
1, 1260, Note_on_c, 9, 46, 100
1, 1290, Note_on_c, 9, 36, 0
1, 1290, Note_on_c, 0, 74, 0
1, 1290, Note_on_c, 1, 67, 0
1, 1290, Note_on_c, 0, 70, 0
1, 1290, Note_on_c, 2, 43, 0
1, 1290, Note_on_c, 0, 74, 100
1, 1290, Note_on_c, 0, 67, 100
1, 1290, Note_on_c, 1, 65, 100
1, 1290, Note_on_c, 2, 43, 100
1, 1290, Note_on_c, 9, 36, 100
1, 1320, Note_on_c, 9, 36, 0
1, 1320, Note_on_c, 2, 43, 0
1, 1320, Note_on_c, 9, 46, 0
1, 1320, Note_on_c, 0, 55, 0
1, 1320, Note_on_c, 3, 79, 0
1, 1320, Note_on_c, 1, 65, 0
1, 1320, Note_on_c, 0, 43, 100
1, 1320, Note_on_c, 1, 62, 100
1, 1320, Note_on_c, 2, 43, 100
1, 1320, Note_on_c, 9, 36, 100
1, 1320, Note_on_c, 9, 40, 100
1, 1320, Note_on_c, 9, 46, 100
1, 1350, Note_on_c, 1, 62, 0
1, 1350, Note_on_c, 0, 74, 0
1, 1350, Note_on_c, 0, 67, 0
1, 1350, Note_on_c, 0, 65, 100
1, 1350, Note_on_c, 1, 65, 100
1, 1380, Note_on_c, 1, 65, 0
1, 1380, Note_on_c, 9, 46, 0
1, 1380, Note_on_c, 0, 43, 0
1, 1380, Note_on_c, 2, 43, 0
1, 1380, Note_on_c, 0, 65, 0
1, 1380, Note_on_c, 0, 62, 100
1, 1380, Note_on_c, 0, 55, 100
1, 1380, Note_on_c, 1, 67, 100
1, 1380, Note_on_c, 9, 46, 100
1, 1410, Note_on_c, 0, 62, 0
1, 1440, Note_on_c, 9, 40, 0
1, 1440, Note_on_c, 0, 55, 0
1, 1440, Note_on_c, 9, 36, 0
1, 1440, Note_on_c, 9, 46, 0
1, 1440, Note_on_c, 1, 67, 0
1, 1440, Note_on_c, 0, 43, 100
1, 1440, Note_on_c, 2, 43, 100
1, 1440, Note_on_c, 3, 79, 100
1, 1440, Note_on_c, 9, 36, 100
1, 1440, Note_on_c, 9, 46, 100
1, 1500, Note_on_c, 9, 46, 0
1, 1500, Note_on_c, 0, 43, 0
1, 1500, Note_on_c, 2, 43, 0
1, 1500, Note_on_c, 0, 67, 100
1, 1500, Note_on_c, 0, 55, 100
1, 1500, Note_on_c, 1, 70, 100
1, 1500, Note_on_c, 1, 74, 100
1, 1500, Note_on_c, 9, 46, 100
1, 1560, Note_on_c, 9, 46, 0
1, 1560, Note_on_c, 1, 70, 0
1, 1560, Note_on_c, 3, 79, 0
1, 1560, Note_on_c, 0, 67, 0
1, 1560, Note_on_c, 9, 36, 0
1, 1560, Note_on_c, 1, 74, 0
1, 1560, Note_on_c, 0, 55, 0
1, 1560, Note_on_c, 0, 65, 100
1, 1560, Note_on_c, 0, 43, 100
1, 1560, Note_on_c, 1, 69, 100
1, 1560, Note_on_c, 1, 73, 100
1, 1560, Note_on_c, 2, 43, 100
1, 1560, Note_on_c, 3, 79, 100
1, 1560, Note_on_c, 9, 36, 100
1, 1560, Note_on_c, 9, 38, 100
1, 1560, Note_on_c, 9, 46, 100
1, 1620, Note_on_c, 9, 46, 0
1, 1620, Note_on_c, 0, 65, 0
1, 1620, Note_on_c, 2, 43, 0
1, 1620, Note_on_c, 1, 73, 0
1, 1620, Note_on_c, 1, 69, 0
1, 1620, Note_on_c, 0, 43, 0
1, 1620, Note_on_c, 0, 67, 100
1, 1620, Note_on_c, 0, 55, 100
1, 1620, Note_on_c, 1, 74, 100
1, 1620, Note_on_c, 1, 70, 100
1, 1620, Note_on_c, 9, 46, 100
1, 1680, Note_on_c, 9, 46, 0
1, 1680, Note_on_c, 3, 79, 0
1, 1680, Note_on_c, 0, 55, 0
1, 1680, Note_on_c, 9, 36, 0
1, 1680, Note_on_c, 9, 38, 0
1, 1680, Note_on_c, 0, 67, 0
1, 1680, Note_on_c, 1, 74, 0
1, 1680, Note_on_c, 1, 70, 0
1, 1680, Note_on_c, 0, 74, 100
1, 1680, Note_on_c, 0, 69, 100
1, 1680, Note_on_c, 0, 43, 100
1, 1680, Note_on_c, 1, 69, 100
1, 1680, Note_on_c, 2, 43, 100
1, 1680, Note_on_c, 3, 79, 100
1, 1680, Note_on_c, 9, 36, 100
1, 1680, Note_on_c, 9, 46, 100
1, 1710, Note_on_c, 1, 69, 0
1, 1710, Note_on_c, 0, 69, 0
1, 1710, Note_on_c, 0, 70, 100
1, 1710, Note_on_c, 1, 70, 100
1, 1740, Note_on_c, 1, 70, 0
1, 1740, Note_on_c, 3, 79, 0
1, 1740, Note_on_c, 9, 46, 0
1, 1740, Note_on_c, 0, 43, 0
1, 1740, Note_on_c, 2, 43, 0
1, 1740, Note_on_c, 9, 36, 0
1, 1740, Note_on_c, 0, 55, 100
1, 1740, Note_on_c, 1, 67, 100
1, 1740, Note_on_c, 2, 43, 100
1, 1740, Note_on_c, 3, 74, 100
1, 1740, Note_on_c, 9, 36, 100
1, 1740, Note_on_c, 9, 46, 100
1, 1770, Note_on_c, 9, 36, 0
1, 1770, Note_on_c, 1, 67, 0
1, 1770, Note_on_c, 0, 70, 0
1, 1770, Note_on_c, 0, 74, 0
1, 1770, Note_on_c, 2, 43, 0
1, 1770, Note_on_c, 0, 74, 100
1, 1770, Note_on_c, 0, 67, 100
1, 1770, Note_on_c, 1, 65, 100
1, 1770, Note_on_c, 2, 43, 100
1, 1770, Note_on_c, 9, 36, 100
1, 1800, Note_on_c, 9, 36, 0
1, 1800, Note_on_c, 2, 43, 0
1, 1800, Note_on_c, 9, 46, 0
1, 1800, Note_on_c, 3, 74, 0
1, 1800, Note_on_c, 0, 55, 0
1, 1800, Note_on_c, 1, 65, 0
1, 1800, Note_on_c, 0, 43, 100
1, 1800, Note_on_c, 1, 62, 100
1, 1800, Note_on_c, 2, 43, 100
1, 1800, Note_on_c, 9, 36, 100
1, 1800, Note_on_c, 9, 40, 100
1, 1800, Note_on_c, 9, 46, 100
1, 1830, Note_on_c, 1, 62, 0
1, 1830, Note_on_c, 0, 74, 0
1, 1830, Note_on_c, 0, 67, 0
1, 1830, Note_on_c, 0, 65, 100
1, 1830, Note_on_c, 1, 65, 100
1, 1860, Note_on_c, 1, 65, 0
1, 1860, Note_on_c, 9, 46, 0
1, 1860, Note_on_c, 0, 43, 0
1, 1860, Note_on_c, 2, 43, 0
1, 1860, Note_on_c, 0, 65, 0
1, 1860, Note_on_c, 0, 62, 100
1, 1860, Note_on_c, 0, 55, 100
1, 1860, Note_on_c, 1, 67, 100
1, 1860, Note_on_c, 9, 46, 100
1, 1890, Note_on_c, 0, 62, 0
1, 1890, Note_on_c, 3, 77, 100
1, 1920, Note_on_c, 3, 77, 0
1, 1920, Note_on_c, 9, 46, 0
1, 1920, Note_on_c, 0, 55, 0
1, 1920, Note_on_c, 9, 36, 0
1, 1920, Note_on_c, 9, 40, 0
1, 1920, Note_on_c, 1, 67, 0
1, 1920, Note_on_c, 0, 43, 100
1, 1920, Note_on_c, 2, 43, 100
1, 1920, Note_on_c, 3, 79, 100
1, 1920, Note_on_c, 9, 36, 100
1, 1920, Note_on_c, 9, 46, 100
1, 1980, Note_on_c, 9, 46, 0
1, 1980, Note_on_c, 3, 79, 0
1, 1980, Note_on_c, 0, 43, 0
1, 1980, Note_on_c, 2, 43, 0
1, 1980, Note_on_c, 9, 36, 0
1, 1980, Note_on_c, 0, 67, 100
1, 1980, Note_on_c, 0, 55, 100
1, 1980, Note_on_c, 1, 70, 100
1, 1980, Note_on_c, 1, 74, 100
1, 1980, Note_on_c, 3, 79, 100
1, 1980, Note_on_c, 9, 36, 100
1, 1980, Note_on_c, 9, 46, 100
1, 2040, Note_on_c, 9, 46, 0
1, 2040, Note_on_c, 3, 79, 0
1, 2040, Note_on_c, 0, 55, 0
1, 2040, Note_on_c, 1, 70, 0
1, 2040, Note_on_c, 0, 67, 0
1, 2040, Note_on_c, 9, 36, 0
1, 2040, Note_on_c, 1, 74, 0
1, 2040, Note_on_c, 0, 65, 100
1, 2040, Note_on_c, 0, 43, 100
1, 2040, Note_on_c, 1, 69, 100
1, 2040, Note_on_c, 1, 73, 100
1, 2040, Note_on_c, 2, 43, 100
1, 2040, Note_on_c, 3, 79, 100
1, 2040, Note_on_c, 9, 36, 100
1, 2040, Note_on_c, 9, 38, 100
1, 2040, Note_on_c, 9, 46, 100
1, 2100, Note_on_c, 9, 46, 0
1, 2100, Note_on_c, 0, 65, 0
1, 2100, Note_on_c, 3, 79, 0
1, 2100, Note_on_c, 1, 73, 0
1, 2100, Note_on_c, 0, 43, 0
1, 2100, Note_on_c, 1, 69, 0
1, 2100, Note_on_c, 2, 43, 0
1, 2100, Note_on_c, 0, 67, 100
1, 2100, Note_on_c, 0, 55, 100
1, 2100, Note_on_c, 1, 74, 100
1, 2100, Note_on_c, 1, 70, 100
1, 2100, Note_on_c, 3, 79, 100
1, 2100, Note_on_c, 9, 46, 100
1, 2130, Note_on_c, 3, 79, 0
1, 2130, Note_on_c, 3, 82, 100
1, 2160, Note_on_c, 9, 36, 0
1, 2160, Note_on_c, 9, 46, 0
1, 2160, Note_on_c, 1, 74, 0
1, 2160, Note_on_c, 9, 38, 0
1, 2160, Note_on_c, 0, 67, 0
1, 2160, Note_on_c, 0, 55, 0
1, 2160, Note_on_c, 1, 70, 0
1, 2160, Note_on_c, 0, 74, 100
1, 2160, Note_on_c, 0, 69, 100
1, 2160, Note_on_c, 0, 43, 100
1, 2160, Note_on_c, 1, 69, 100
1, 2160, Note_on_c, 2, 43, 100
1, 2160, Note_on_c, 9, 36, 100
1, 2160, Note_on_c, 9, 46, 100
1, 2190, Note_on_c, 1, 69, 0
1, 2190, Note_on_c, 0, 69, 0
1, 2190, Note_on_c, 0, 70, 100
1, 2190, Note_on_c, 1, 70, 100
1, 2220, Note_on_c, 1, 70, 0
1, 2220, Note_on_c, 2, 43, 0
1, 2220, Note_on_c, 9, 46, 0
1, 2220, Note_on_c, 3, 82, 0
1, 2220, Note_on_c, 0, 43, 0
1, 2220, Note_on_c, 9, 36, 0
1, 2220, Note_on_c, 0, 55, 100
1, 2220, Note_on_c, 1, 67, 100
1, 2220, Note_on_c, 2, 43, 100
1, 2220, Note_on_c, 3, 79, 100
1, 2220, Note_on_c, 9, 36, 100
1, 2220, Note_on_c, 9, 46, 100
1, 2250, Note_on_c, 9, 36, 0
1, 2250, Note_on_c, 1, 67, 0
1, 2250, Note_on_c, 0, 70, 0
1, 2250, Note_on_c, 0, 74, 0
1, 2250, Note_on_c, 2, 43, 0
1, 2250, Note_on_c, 0, 74, 100
1, 2250, Note_on_c, 0, 67, 100
1, 2250, Note_on_c, 1, 65, 100
1, 2250, Note_on_c, 2, 43, 100
1, 2250, Note_on_c, 9, 36, 100
1, 2280, Note_on_c, 9, 36, 0
1, 2280, Note_on_c, 2, 43, 0
1, 2280, Note_on_c, 9, 46, 0
1, 2280, Note_on_c, 3, 79, 0
1, 2280, Note_on_c, 0, 55, 0
1, 2280, Note_on_c, 1, 65, 0
1, 2280, Note_on_c, 0, 43, 100
1, 2280, Note_on_c, 1, 62, 100
1, 2280, Note_on_c, 2, 43, 100
1, 2280, Note_on_c, 3, 79, 100
1, 2280, Note_on_c, 9, 36, 100
1, 2280, Note_on_c, 9, 40, 100
1, 2280, Note_on_c, 9, 46, 100
1, 2310, Note_on_c, 1, 62, 0
1, 2310, Note_on_c, 0, 74, 0
1, 2310, Note_on_c, 0, 67, 0
1, 2310, Note_on_c, 0, 65, 100
1, 2310, Note_on_c, 1, 65, 100
1, 2340, Note_on_c, 1, 65, 0
1, 2340, Note_on_c, 0, 65, 0
1, 2340, Note_on_c, 0, 43, 0
1, 2340, Note_on_c, 2, 43, 0
1, 2340, Note_on_c, 9, 46, 0
1, 2340, Note_on_c, 0, 62, 100
1, 2340, Note_on_c, 0, 55, 100
1, 2340, Note_on_c, 1, 67, 100
1, 2340, Note_on_c, 9, 46, 100
1, 2370, Note_on_c, 0, 62, 0
1, 2400, Note_on_c, 1, 67, 0
1, 2400, Note_on_c, 9, 36, 0
1, 2400, Note_on_c, 9, 40, 0
1, 2400, Note_on_c, 3, 79, 0
1, 2400, Note_on_c, 9, 46, 0
1, 2400, Note_on_c, 0, 55, 0
1, 2400, Note_on_c, 0, 43, 100
1, 2400, Note_on_c, 2, 43, 100
1, 2400, Note_on_c, 3, 77, 100
1, 2400, Note_on_c, 9, 36, 100
1, 2400, Note_on_c, 9, 42, 100
1, 2430, Note_on_c, 3, 77, 0
1, 2430, Note_on_c, 3, 79, 100
1, 2460, Note_on_c, 3, 79, 0
1, 2460, Note_on_c, 9, 42, 0
1, 2460, Note_on_c, 0, 43, 0
1, 2460, Note_on_c, 2, 43, 0
1, 2460, Note_on_c, 9, 36, 0
1, 2460, Note_on_c, 0, 67, 100
1, 2460, Note_on_c, 0, 55, 100
1, 2460, Note_on_c, 1, 70, 100
1, 2460, Note_on_c, 1, 74, 100
1, 2460, Note_on_c, 3, 79, 100
1, 2460, Note_on_c, 9, 36, 100
1, 2460, Note_on_c, 9, 46, 100
1, 2490, Note_on_c, 3, 79, 0
1, 2490, Note_on_c, 3, 79, 100
1, 2520, Note_on_c, 9, 36, 0
1, 2520, Note_on_c, 1, 74, 0
1, 2520, Note_on_c, 0, 55, 0
1, 2520, Note_on_c, 1, 70, 0
1, 2520, Note_on_c, 0, 67, 0
1, 2520, Note_on_c, 9, 46, 0
1, 2520, Note_on_c, 0, 65, 100
1, 2520, Note_on_c, 0, 43, 100
1, 2520, Note_on_c, 1, 69, 100
1, 2520, Note_on_c, 1, 73, 100
1, 2520, Note_on_c, 2, 43, 100
1, 2520, Note_on_c, 9, 36, 100
1, 2520, Note_on_c, 9, 38, 100
1, 2520, Note_on_c, 9, 46, 100
1, 2550, Note_on_c, 3, 79, 0
1, 2550, Note_on_c, 3, 79, 100
1, 2580, Note_on_c, 0, 65, 0
1, 2580, Note_on_c, 9, 46, 0
1, 2580, Note_on_c, 1, 73, 0
1, 2580, Note_on_c, 1, 69, 0
1, 2580, Note_on_c, 0, 43, 0
1, 2580, Note_on_c, 2, 43, 0
1, 2580, Note_on_c, 0, 67, 100
1, 2580, Note_on_c, 0, 55, 100
1, 2580, Note_on_c, 1, 74, 100
1, 2580, Note_on_c, 1, 70, 100
1, 2580, Note_on_c, 9, 46, 100
1, 2640, Note_on_c, 9, 46, 0
1, 2640, Note_on_c, 9, 36, 0
1, 2640, Note_on_c, 0, 55, 0
1, 2640, Note_on_c, 9, 38, 0
1, 2640, Note_on_c, 3, 79, 0
1, 2640, Note_on_c, 0, 67, 0
1, 2640, Note_on_c, 1, 74, 0
1, 2640, Note_on_c, 1, 70, 0
1, 2640, Note_on_c, 0, 74, 100
1, 2640, Note_on_c, 0, 69, 100
1, 2640, Note_on_c, 0, 43, 100
1, 2640, Note_on_c, 1, 69, 100
1, 2640, Note_on_c, 2, 43, 100
1, 2640, Note_on_c, 3, 79, 100
1, 2640, Note_on_c, 9, 36, 100
1, 2640, Note_on_c, 9, 46, 100
1, 2670, Note_on_c, 1, 69, 0
1, 2670, Note_on_c, 0, 69, 0
1, 2670, Note_on_c, 0, 70, 100
1, 2670, Note_on_c, 1, 70, 100
1, 2700, Note_on_c, 1, 70, 0
1, 2700, Note_on_c, 0, 43, 0
1, 2700, Note_on_c, 9, 46, 0
1, 2700, Note_on_c, 2, 43, 0
1, 2700, Note_on_c, 9, 36, 0
1, 2700, Note_on_c, 0, 55, 100
1, 2700, Note_on_c, 1, 67, 100
1, 2700, Note_on_c, 2, 43, 100
1, 2700, Note_on_c, 9, 36, 100
1, 2700, Note_on_c, 9, 46, 100
1, 2730, Note_on_c, 9, 36, 0
1, 2730, Note_on_c, 0, 74, 0
1, 2730, Note_on_c, 1, 67, 0
1, 2730, Note_on_c, 0, 70, 0
1, 2730, Note_on_c, 2, 43, 0
1, 2730, Note_on_c, 0, 74, 100
1, 2730, Note_on_c, 0, 67, 100
1, 2730, Note_on_c, 1, 65, 100
1, 2730, Note_on_c, 2, 43, 100
1, 2730, Note_on_c, 9, 36, 100
1, 2760, Note_on_c, 9, 36, 0
1, 2760, Note_on_c, 2, 43, 0
1, 2760, Note_on_c, 9, 46, 0
1, 2760, Note_on_c, 0, 55, 0
1, 2760, Note_on_c, 3, 79, 0
1, 2760, Note_on_c, 1, 65, 0
1, 2760, Note_on_c, 0, 43, 100
1, 2760, Note_on_c, 1, 62, 100
1, 2760, Note_on_c, 2, 43, 100
1, 2760, Note_on_c, 3, 77, 100
1, 2760, Note_on_c, 9, 36, 100
1, 2760, Note_on_c, 9, 40, 100
1, 2760, Note_on_c, 9, 46, 100
1, 2780, Note_on_c, 3, 77, 0
1, 2780, Note_on_c, 3, 79, 100
1, 2790, Note_on_c, 0, 74, 0
1, 2790, Note_on_c, 0, 67, 0
1, 2790, Note_on_c, 1, 62, 0
1, 2790, Note_on_c, 0, 65, 100
1, 2790, Note_on_c, 1, 65, 100
1, 2800, Note_on_c, 3, 79, 0
1, 2800, Note_on_c, 3, 79, 100
1, 2820, Note_on_c, 3, 79, 0
1, 2820, Note_on_c, 1, 65, 0
1, 2820, Note_on_c, 0, 43, 0
1, 2820, Note_on_c, 9, 46, 0
1, 2820, Note_on_c, 2, 43, 0
1, 2820, Note_on_c, 0, 65, 0
1, 2820, Note_on_c, 0, 62, 100
1, 2820, Note_on_c, 0, 55, 100
1, 2820, Note_on_c, 1, 67, 100
1, 2820, Note_on_c, 3, 79, 100
1, 2820, Note_on_c, 9, 46, 100
1, 2850, Note_on_c, 0, 62, 0
1, 2880, Note_on_c, 3, 79, 0
1, 2880, Note_on_c, 9, 36, 0
1, 2880, Note_on_c, 0, 55, 0
1, 2880, Note_on_c, 9, 40, 0
1, 2880, Note_on_c, 9, 46, 0
1, 2880, Note_on_c, 1, 67, 0
1, 2880, Note_on_c, 0, 43, 100
1, 2880, Note_on_c, 2, 43, 100
1, 2880, Note_on_c, 3, 82, 100
1, 2880, Note_on_c, 9, 36, 100
1, 2880, Note_on_c, 9, 49, 100
1, 2940, Note_on_c, 9, 49, 0
1, 2940, Note_on_c, 2, 43, 0
1, 2940, Note_on_c, 0, 43, 0
1, 2940, Note_on_c, 9, 36, 0
1, 2940, Note_on_c, 0, 67, 100
1, 2940, Note_on_c, 0, 55, 100
1, 2940, Note_on_c, 1, 70, 100
1, 2940, Note_on_c, 1, 74, 100
1, 2940, Note_on_c, 9, 36, 100
1, 2940, Note_on_c, 9, 46, 100
1, 3000, Note_on_c, 9, 46, 0
1, 3000, Note_on_c, 1, 74, 0
1, 3000, Note_on_c, 0, 67, 0
1, 3000, Note_on_c, 0, 55, 0
1, 3000, Note_on_c, 3, 82, 0
1, 3000, Note_on_c, 9, 36, 0
1, 3000, Note_on_c, 1, 70, 0
1, 3000, Note_on_c, 0, 65, 100
1, 3000, Note_on_c, 0, 43, 100
1, 3000, Note_on_c, 1, 69, 100
1, 3000, Note_on_c, 1, 73, 100
1, 3000, Note_on_c, 2, 43, 100
1, 3000, Note_on_c, 9, 36, 100
1, 3000, Note_on_c, 9, 38, 100
1, 3000, Note_on_c, 9, 46, 100
1, 3060, Note_on_c, 9, 46, 0
1, 3060, Note_on_c, 0, 65, 0
1, 3060, Note_on_c, 2, 43, 0
1, 3060, Note_on_c, 1, 73, 0
1, 3060, Note_on_c, 1, 69, 0
1, 3060, Note_on_c, 0, 43, 0
1, 3060, Note_on_c, 0, 67, 100
1, 3060, Note_on_c, 0, 55, 100
1, 3060, Note_on_c, 1, 74, 100
1, 3060, Note_on_c, 1, 70, 100
1, 3060, Note_on_c, 9, 46, 100
1, 3120, Note_on_c, 9, 46, 0
1, 3120, Note_on_c, 1, 74, 0
1, 3120, Note_on_c, 9, 38, 0
1, 3120, Note_on_c, 0, 67, 0
1, 3120, Note_on_c, 9, 36, 0
1, 3120, Note_on_c, 1, 70, 0
1, 3120, Note_on_c, 0, 55, 0
1, 3120, Note_on_c, 0, 74, 100
1, 3120, Note_on_c, 0, 69, 100
1, 3120, Note_on_c, 0, 43, 100
1, 3120, Note_on_c, 1, 69, 100
1, 3120, Note_on_c, 2, 43, 100
1, 3120, Note_on_c, 9, 36, 100
1, 3120, Note_on_c, 9, 46, 100
1, 3150, Note_on_c, 1, 69, 0
1, 3150, Note_on_c, 0, 69, 0
1, 3150, Note_on_c, 0, 70, 100
1, 3150, Note_on_c, 1, 70, 100
1, 3180, Note_on_c, 1, 70, 0
1, 3180, Note_on_c, 9, 46, 0
1, 3180, Note_on_c, 9, 36, 0
1, 3180, Note_on_c, 2, 43, 0
1, 3180, Note_on_c, 0, 43, 0
1, 3180, Note_on_c, 0, 55, 100
1, 3180, Note_on_c, 1, 67, 100
1, 3180, Note_on_c, 2, 43, 100
1, 3180, Note_on_c, 9, 36, 100
1, 3180, Note_on_c, 9, 46, 100
1, 3210, Note_on_c, 9, 36, 0
1, 3210, Note_on_c, 1, 67, 0
1, 3210, Note_on_c, 0, 70, 0
1, 3210, Note_on_c, 0, 74, 0
1, 3210, Note_on_c, 2, 43, 0
1, 3210, Note_on_c, 0, 74, 100
1, 3210, Note_on_c, 0, 67, 100
1, 3210, Note_on_c, 1, 65, 100
1, 3210, Note_on_c, 2, 43, 100
1, 3210, Note_on_c, 9, 36, 100
1, 3240, Note_on_c, 9, 36, 0
1, 3240, Note_on_c, 1, 65, 0
1, 3240, Note_on_c, 9, 46, 0
1, 3240, Note_on_c, 0, 55, 0
1, 3240, Note_on_c, 2, 43, 0
1, 3240, Note_on_c, 0, 43, 100
1, 3240, Note_on_c, 1, 62, 100
1, 3240, Note_on_c, 2, 43, 100
1, 3240, Note_on_c, 3, 77, 100
1, 3240, Note_on_c, 9, 36, 100
1, 3240, Note_on_c, 9, 40, 100
1, 3240, Note_on_c, 9, 46, 100
1, 3260, Note_on_c, 3, 77, 0
1, 3260, Note_on_c, 3, 79, 100
1, 3270, Note_on_c, 0, 67, 0
1, 3270, Note_on_c, 0, 74, 0
1, 3270, Note_on_c, 1, 62, 0
1, 3270, Note_on_c, 0, 65, 100
1, 3270, Note_on_c, 1, 65, 100
1, 3280, Note_on_c, 3, 79, 0
1, 3280, Note_on_c, 3, 79, 100
1, 3300, Note_on_c, 3, 79, 0
1, 3300, Note_on_c, 1, 65, 0
1, 3300, Note_on_c, 0, 43, 0
1, 3300, Note_on_c, 9, 46, 0
1, 3300, Note_on_c, 2, 43, 0
1, 3300, Note_on_c, 0, 65, 0
1, 3300, Note_on_c, 0, 62, 100
1, 3300, Note_on_c, 0, 55, 100
1, 3300, Note_on_c, 1, 67, 100
1, 3300, Note_on_c, 3, 79, 100
1, 3300, Note_on_c, 9, 46, 100
1, 3330, Note_on_c, 0, 62, 0
1, 3360, Note_on_c, 3, 79, 0
1, 3360, Note_on_c, 9, 36, 0
1, 3360, Note_on_c, 0, 55, 0
1, 3360, Note_on_c, 9, 40, 0
1, 3360, Note_on_c, 9, 46, 0
1, 3360, Note_on_c, 1, 67, 0
1, 3360, Note_on_c, 0, 43, 100
1, 3360, Note_on_c, 2, 43, 100
1, 3360, Note_on_c, 3, 79, 100
1, 3360, Note_on_c, 9, 36, 100
1, 3360, Note_on_c, 9, 46, 100
1, 3420, Note_on_c, 9, 46, 0
1, 3420, Note_on_c, 2, 43, 0
1, 3420, Note_on_c, 0, 43, 0
1, 3420, Note_on_c, 9, 36, 0
1, 3420, Note_on_c, 0, 67, 100
1, 3420, Note_on_c, 0, 55, 100
1, 3420, Note_on_c, 1, 70, 100
1, 3420, Note_on_c, 1, 74, 100
1, 3420, Note_on_c, 9, 36, 100
1, 3420, Note_on_c, 9, 46, 100
1, 3480, Note_on_c, 9, 46, 0
1, 3480, Note_on_c, 1, 74, 0
1, 3480, Note_on_c, 0, 67, 0
1, 3480, Note_on_c, 0, 55, 0
1, 3480, Note_on_c, 3, 79, 0
1, 3480, Note_on_c, 9, 36, 0
1, 3480, Note_on_c, 1, 70, 0
1, 3480, Note_on_c, 0, 65, 100
1, 3480, Note_on_c, 0, 43, 100
1, 3480, Note_on_c, 1, 69, 100
1, 3480, Note_on_c, 1, 73, 100
1, 3480, Note_on_c, 2, 43, 100
1, 3480, Note_on_c, 9, 36, 100
1, 3480, Note_on_c, 9, 38, 100
1, 3480, Note_on_c, 9, 46, 100
1, 3540, Note_on_c, 9, 46, 0
1, 3540, Note_on_c, 0, 65, 0
1, 3540, Note_on_c, 2, 43, 0
1, 3540, Note_on_c, 1, 73, 0
1, 3540, Note_on_c, 1, 69, 0
1, 3540, Note_on_c, 0, 43, 0
1, 3540, Note_on_c, 0, 67, 100
1, 3540, Note_on_c, 0, 55, 100
1, 3540, Note_on_c, 1, 74, 100
1, 3540, Note_on_c, 1, 70, 100
1, 3540, Note_on_c, 9, 46, 100
1, 3600, Note_on_c, 9, 46, 0
1, 3600, Note_on_c, 1, 74, 0
1, 3600, Note_on_c, 9, 38, 0
1, 3600, Note_on_c, 0, 67, 0
1, 3600, Note_on_c, 9, 36, 0
1, 3600, Note_on_c, 1, 70, 0
1, 3600, Note_on_c, 0, 55, 0
1, 3600, Note_on_c, 0, 74, 100
1, 3600, Note_on_c, 0, 69, 100
1, 3600, Note_on_c, 0, 43, 100
1, 3600, Note_on_c, 1, 69, 100
1, 3600, Note_on_c, 2, 43, 100
1, 3600, Note_on_c, 9, 36, 100
1, 3600, Note_on_c, 9, 46, 100
1, 3630, Note_on_c, 1, 69, 0
1, 3630, Note_on_c, 0, 69, 0
1, 3630, Note_on_c, 0, 70, 100
1, 3630, Note_on_c, 1, 70, 100
1, 3660, Note_on_c, 1, 70, 0
1, 3660, Note_on_c, 9, 46, 0
1, 3660, Note_on_c, 9, 36, 0
1, 3660, Note_on_c, 2, 43, 0
1, 3660, Note_on_c, 0, 43, 0
1, 3660, Note_on_c, 0, 55, 100
1, 3660, Note_on_c, 1, 67, 100
1, 3660, Note_on_c, 2, 43, 100
1, 3660, Note_on_c, 9, 36, 100
1, 3660, Note_on_c, 9, 46, 100
1, 3690, Note_on_c, 9, 36, 0
1, 3690, Note_on_c, 1, 67, 0
1, 3690, Note_on_c, 0, 70, 0
1, 3690, Note_on_c, 0, 74, 0
1, 3690, Note_on_c, 2, 43, 0
1, 3690, Note_on_c, 0, 74, 100
1, 3690, Note_on_c, 0, 67, 100
1, 3690, Note_on_c, 1, 65, 100
1, 3690, Note_on_c, 2, 43, 100
1, 3690, Note_on_c, 9, 36, 100
1, 3720, Note_on_c, 9, 36, 0
1, 3720, Note_on_c, 1, 65, 0
1, 3720, Note_on_c, 9, 46, 0
1, 3720, Note_on_c, 0, 55, 0
1, 3720, Note_on_c, 2, 43, 0
1, 3720, Note_on_c, 0, 43, 100
1, 3720, Note_on_c, 1, 62, 100
1, 3720, Note_on_c, 2, 43, 100
1, 3720, Note_on_c, 3, 77, 100
1, 3720, Note_on_c, 9, 36, 100
1, 3720, Note_on_c, 9, 40, 100
1, 3720, Note_on_c, 9, 46, 100
1, 3740, Note_on_c, 3, 77, 0
1, 3740, Note_on_c, 3, 79, 100
1, 3750, Note_on_c, 0, 67, 0
1, 3750, Note_on_c, 0, 74, 0
1, 3750, Note_on_c, 1, 62, 0
1, 3750, Note_on_c, 0, 65, 100
1, 3750, Note_on_c, 1, 65, 100
1, 3760, Note_on_c, 3, 79, 0
1, 3760, Note_on_c, 3, 79, 100
1, 3780, Note_on_c, 3, 79, 0
1, 3780, Note_on_c, 1, 65, 0
1, 3780, Note_on_c, 0, 43, 0
1, 3780, Note_on_c, 9, 46, 0
1, 3780, Note_on_c, 2, 43, 0
1, 3780, Note_on_c, 0, 65, 0
1, 3780, Note_on_c, 0, 62, 100
1, 3780, Note_on_c, 0, 55, 100
1, 3780, Note_on_c, 1, 67, 100
1, 3780, Note_on_c, 3, 79, 100
1, 3780, Note_on_c, 9, 46, 100
1, 3810, Note_on_c, 0, 62, 0
1, 3840, Note_on_c, 3, 79, 0
1, 3840, Note_on_c, 9, 36, 0
1, 3840, Note_on_c, 0, 55, 0
1, 3840, Note_on_c, 9, 40, 0
1, 3840, Note_on_c, 9, 46, 0
1, 3840, Note_on_c, 1, 67, 0
1, 3840, Note_on_c, 0, 46, 100
1, 3840, Note_on_c, 0, 65, 100
1, 3840, Note_on_c, 0, 74, 100
1, 3840, Note_on_c, 0, 70, 100
1, 3840, Note_on_c, 1, 74, 100
1, 3840, Note_on_c, 2, 46, 100
1, 3840, Note_on_c, 9, 36, 100
1, 3840, Note_on_c, 9, 49, 100
1, 3870, Note_on_c, 1, 74, 0
1, 3870, Note_on_c, 1, 74, 100
1, 3900, Note_on_c, 9, 49, 0
1, 3900, Note_on_c, 9, 36, 0
1, 3900, Note_on_c, 9, 36, 100
1, 3900, Note_on_c, 9, 46, 100
1, 3930, Note_on_c, 1, 82, 100
1, 3960, Note_on_c, 9, 46, 0
1, 3960, Note_on_c, 9, 36, 0
1, 3960, Note_on_c, 9, 40, 100
1, 3960, Note_on_c, 9, 46, 100
1, 3990, Note_on_c, 1, 82, 0
1, 3990, Note_on_c, 1, 82, 100
1, 4020, Note_on_c, 1, 82, 0
1, 4020, Note_on_c, 9, 46, 0
1, 4020, Note_on_c, 9, 40, 0
1, 4020, Note_on_c, 0, 46, 0
1, 4020, Note_on_c, 0, 46, 100
1, 4020, Note_on_c, 1, 74, 100
1, 4020, Note_on_c, 9, 36, 100
1, 4020, Note_on_c, 9, 46, 100
1, 4080, Note_on_c, 9, 46, 0
1, 4080, Note_on_c, 2, 46, 0
1, 4080, Note_on_c, 1, 74, 0
1, 4080, Note_on_c, 0, 74, 0
1, 4080, Note_on_c, 0, 65, 0
1, 4080, Note_on_c, 0, 70, 0
1, 4080, Note_on_c, 1, 74, 0
1, 4080, Note_on_c, 0, 46, 0
1, 4080, Note_on_c, 9, 36, 0
1, 4080, Note_on_c, 0, 48, 100
1, 4080, Note_on_c, 0, 76, 100
1, 4080, Note_on_c, 0, 72, 100
1, 4080, Note_on_c, 0, 67, 100
1, 4080, Note_on_c, 1, 74, 100
1, 4080, Note_on_c, 2, 48, 100
1, 4080, Note_on_c, 9, 36, 100
1, 4080, Note_on_c, 9, 49, 100
1, 4110, Note_on_c, 1, 74, 0
1, 4110, Note_on_c, 1, 76, 100
1, 4140, Note_on_c, 9, 49, 0
1, 4140, Note_on_c, 9, 36, 0
1, 4140, Note_on_c, 9, 36, 100
1, 4140, Note_on_c, 9, 46, 100
1, 4170, Note_on_c, 1, 84, 100
1, 4200, Note_on_c, 9, 46, 0
1, 4200, Note_on_c, 9, 36, 0
1, 4200, Note_on_c, 1, 76, 0
1, 4200, Note_on_c, 1, 76, 100
1, 4200, Note_on_c, 9, 46, 100
1, 4230, Note_on_c, 1, 84, 0
1, 4230, Note_on_c, 1, 84, 100
1, 4230, Note_on_c, 9, 40, 100
1, 4260, Note_on_c, 9, 40, 0
1, 4260, Note_on_c, 0, 48, 0
1, 4260, Note_on_c, 1, 84, 0
1, 4260, Note_on_c, 9, 46, 0
1, 4260, Note_on_c, 2, 48, 0
1, 4260, Note_on_c, 0, 48, 100
1, 4260, Note_on_c, 1, 76, 100
1, 4260, Note_on_c, 2, 43, 100
1, 4260, Note_on_c, 9, 40, 100
1, 4290, Note_on_c, 9, 40, 0
1, 4290, Note_on_c, 9, 38, 100
1, 4320, Note_on_c, 9, 38, 0
1, 4320, Note_on_c, 0, 67, 0
1, 4320, Note_on_c, 0, 48, 0
1, 4320, Note_on_c, 0, 72, 0
1, 4320, Note_on_c, 1, 76, 0
1, 4320, Note_on_c, 2, 43, 0
1, 4320, Note_on_c, 1, 76, 0
1, 4320, Note_on_c, 0, 76, 0
1, 4320, Note_on_c, 0, 43, 100
1, 4320, Note_on_c, 2, 43, 100
1, 4320, Note_on_c, 9, 36, 100
1, 4320, Note_on_c, 9, 46, 100
1, 4380, Note_on_c, 9, 46, 0
1, 4380, Note_on_c, 0, 43, 0
1, 4380, Note_on_c, 2, 43, 0
1, 4380, Note_on_c, 9, 36, 0
1, 4380, Note_on_c, 0, 67, 100
1, 4380, Note_on_c, 0, 55, 100
1, 4380, Note_on_c, 1, 86, 100
1, 4380, Note_on_c, 1, 81, 100
1, 4380, Note_on_c, 9, 36, 100
1, 4380, Note_on_c, 9, 46, 100
1, 4440, Note_on_c, 9, 46, 0
1, 4440, Note_on_c, 0, 55, 0
1, 4440, Note_on_c, 1, 86, 0
1, 4440, Note_on_c, 0, 67, 0
1, 4440, Note_on_c, 9, 36, 0
1, 4440, Note_on_c, 1, 81, 0
1, 4440, Note_on_c, 0, 65, 100
1, 4440, Note_on_c, 0, 43, 100
1, 4440, Note_on_c, 1, 86, 100
1, 4440, Note_on_c, 1, 82, 100
1, 4440, Note_on_c, 2, 43, 100
1, 4440, Note_on_c, 9, 36, 100
1, 4440, Note_on_c, 9, 38, 100
1, 4440, Note_on_c, 9, 46, 100
1, 4500, Note_on_c, 9, 46, 0
1, 4500, Note_on_c, 0, 65, 0
1, 4500, Note_on_c, 2, 43, 0
1, 4500, Note_on_c, 1, 82, 0
1, 4500, Note_on_c, 1, 86, 0
1, 4500, Note_on_c, 0, 43, 0
1, 4500, Note_on_c, 0, 67, 100
1, 4500, Note_on_c, 0, 55, 100
1, 4500, Note_on_c, 9, 46, 100
1, 4560, Note_on_c, 9, 46, 0
1, 4560, Note_on_c, 0, 67, 0
1, 4560, Note_on_c, 9, 36, 0
1, 4560, Note_on_c, 9, 38, 0
1, 4560, Note_on_c, 0, 55, 0
1, 4560, Note_on_c, 0, 74, 100
1, 4560, Note_on_c, 0, 69, 100
1, 4560, Note_on_c, 0, 43, 100
1, 4560, Note_on_c, 1, 81, 100
1, 4560, Note_on_c, 2, 43, 100
1, 4560, Note_on_c, 9, 36, 100
1, 4560, Note_on_c, 9, 46, 100
1, 4590, Note_on_c, 1, 81, 0
1, 4590, Note_on_c, 0, 69, 0
1, 4590, Note_on_c, 0, 70, 100
1, 4590, Note_on_c, 1, 82, 100
1, 4620, Note_on_c, 1, 82, 0
1, 4620, Note_on_c, 9, 46, 0
1, 4620, Note_on_c, 9, 36, 0
1, 4620, Note_on_c, 2, 43, 0
1, 4620, Note_on_c, 0, 43, 0
1, 4620, Note_on_c, 0, 55, 100
1, 4620, Note_on_c, 1, 79, 100
1, 4620, Note_on_c, 9, 36, 100
1, 4620, Note_on_c, 9, 46, 100
1, 4650, Note_on_c, 9, 36, 0
1, 4650, Note_on_c, 1, 79, 0
1, 4650, Note_on_c, 0, 74, 0
1, 4650, Note_on_c, 0, 70, 0
1, 4650, Note_on_c, 0, 74, 100
1, 4650, Note_on_c, 0, 67, 100
1, 4650, Note_on_c, 1, 77, 100
1, 4650, Note_on_c, 9, 36, 100
1, 4680, Note_on_c, 9, 36, 0
1, 4680, Note_on_c, 9, 46, 0
1, 4680, Note_on_c, 0, 55, 0
1, 4680, Note_on_c, 1, 77, 0
1, 4680, Note_on_c, 0, 43, 100
1, 4680, Note_on_c, 1, 74, 100
1, 4680, Note_on_c, 2, 43, 100
1, 4680, Note_on_c, 9, 36, 100
1, 4680, Note_on_c, 9, 40, 100
1, 4680, Note_on_c, 9, 46, 100
1, 4710, Note_on_c, 1, 74, 0
1, 4710, Note_on_c, 0, 67, 0
1, 4710, Note_on_c, 0, 74, 0
1, 4710, Note_on_c, 0, 65, 100
1, 4710, Note_on_c, 1, 77, 100
1, 4740, Note_on_c, 1, 77, 0
1, 4740, Note_on_c, 9, 46, 0
1, 4740, Note_on_c, 0, 43, 0
1, 4740, Note_on_c, 2, 43, 0
1, 4740, Note_on_c, 0, 65, 0
1, 4740, Note_on_c, 0, 62, 100
1, 4740, Note_on_c, 0, 55, 100
1, 4740, Note_on_c, 1, 79, 100
1, 4740, Note_on_c, 9, 46, 100
1, 4770, Note_on_c, 0, 62, 0
1, 4800, Note_on_c, 9, 40, 0
1, 4800, Note_on_c, 0, 55, 0
1, 4800, Note_on_c, 9, 36, 0
1, 4800, Note_on_c, 9, 46, 0
1, 4800, Note_on_c, 1, 79, 0
1, 4800, Note_on_c, 0, 43, 100
1, 4800, Note_on_c, 2, 43, 100
1, 4800, Note_on_c, 9, 36, 100
1, 4800, Note_on_c, 9, 46, 100
1, 4860, Note_on_c, 9, 46, 0
1, 4860, Note_on_c, 0, 43, 0
1, 4860, Note_on_c, 2, 43, 0
1, 4860, Note_on_c, 9, 36, 0
1, 4860, Note_on_c, 0, 67, 100
1, 4860, Note_on_c, 0, 55, 100
1, 4860, Note_on_c, 1, 86, 100
1, 4860, Note_on_c, 1, 81, 100
1, 4860, Note_on_c, 9, 36, 100
1, 4860, Note_on_c, 9, 46, 100
1, 4920, Note_on_c, 9, 46, 0
1, 4920, Note_on_c, 0, 55, 0
1, 4920, Note_on_c, 1, 86, 0
1, 4920, Note_on_c, 0, 67, 0
1, 4920, Note_on_c, 9, 36, 0
1, 4920, Note_on_c, 1, 81, 0
1, 4920, Note_on_c, 0, 65, 100
1, 4920, Note_on_c, 0, 43, 100
1, 4920, Note_on_c, 1, 86, 100
1, 4920, Note_on_c, 1, 82, 100
1, 4920, Note_on_c, 2, 43, 100
1, 4920, Note_on_c, 9, 36, 100
1, 4920, Note_on_c, 9, 38, 100
1, 4920, Note_on_c, 9, 46, 100
1, 4980, Note_on_c, 9, 46, 0
1, 4980, Note_on_c, 0, 65, 0
1, 4980, Note_on_c, 2, 43, 0
1, 4980, Note_on_c, 1, 82, 0
1, 4980, Note_on_c, 1, 86, 0
1, 4980, Note_on_c, 0, 43, 0
1, 4980, Note_on_c, 0, 67, 100
1, 4980, Note_on_c, 0, 55, 100
1, 4980, Note_on_c, 9, 46, 100
1, 5040, Note_on_c, 9, 46, 0
1, 5040, Note_on_c, 0, 67, 0
1, 5040, Note_on_c, 9, 36, 0
1, 5040, Note_on_c, 9, 38, 0
1, 5040, Note_on_c, 0, 55, 0
1, 5040, Note_on_c, 0, 74, 100
1, 5040, Note_on_c, 0, 69, 100
1, 5040, Note_on_c, 0, 43, 100
1, 5040, Note_on_c, 1, 81, 100
1, 5040, Note_on_c, 2, 43, 100
1, 5040, Note_on_c, 9, 36, 100
1, 5040, Note_on_c, 9, 46, 100
1, 5070, Note_on_c, 1, 81, 0
1, 5070, Note_on_c, 0, 69, 0
1, 5070, Note_on_c, 0, 70, 100
1, 5070, Note_on_c, 1, 82, 100
1, 5100, Note_on_c, 1, 82, 0
1, 5100, Note_on_c, 9, 46, 0
1, 5100, Note_on_c, 9, 36, 0
1, 5100, Note_on_c, 2, 43, 0
1, 5100, Note_on_c, 0, 43, 0
1, 5100, Note_on_c, 0, 55, 100
1, 5100, Note_on_c, 1, 79, 100
1, 5100, Note_on_c, 9, 36, 100
1, 5100, Note_on_c, 9, 46, 100
1, 5130, Note_on_c, 9, 36, 0
1, 5130, Note_on_c, 1, 79, 0
1, 5130, Note_on_c, 0, 74, 0
1, 5130, Note_on_c, 0, 70, 0
1, 5130, Note_on_c, 0, 74, 100
1, 5130, Note_on_c, 0, 67, 100
1, 5130, Note_on_c, 1, 77, 100
1, 5130, Note_on_c, 9, 36, 100
1, 5160, Note_on_c, 9, 36, 0
1, 5160, Note_on_c, 9, 46, 0
1, 5160, Note_on_c, 0, 55, 0
1, 5160, Note_on_c, 1, 77, 0
1, 5160, Note_on_c, 0, 43, 100
1, 5160, Note_on_c, 1, 74, 100
1, 5160, Note_on_c, 2, 43, 100
1, 5160, Note_on_c, 3, 82, 100
1, 5160, Note_on_c, 9, 36, 100
1, 5160, Note_on_c, 9, 40, 100
1, 5160, Note_on_c, 9, 46, 100
1, 5190, Note_on_c, 1, 74, 0
1, 5190, Note_on_c, 0, 67, 0
1, 5190, Note_on_c, 0, 74, 0
1, 5190, Note_on_c, 0, 65, 100
1, 5190, Note_on_c, 1, 77, 100
1, 5220, Note_on_c, 1, 77, 0
1, 5220, Note_on_c, 0, 65, 0
1, 5220, Note_on_c, 0, 43, 0
1, 5220, Note_on_c, 2, 43, 0
1, 5220, Note_on_c, 9, 46, 0
1, 5220, Note_on_c, 0, 62, 100
1, 5220, Note_on_c, 0, 55, 100
1, 5220, Note_on_c, 1, 79, 100
1, 5220, Note_on_c, 9, 46, 100
1, 5250, Note_on_c, 0, 62, 0
1, 5280, Note_on_c, 1, 79, 0
1, 5280, Note_on_c, 9, 36, 0
1, 5280, Note_on_c, 9, 40, 0
1, 5280, Note_on_c, 3, 82, 0
1, 5280, Note_on_c, 9, 46, 0
1, 5280, Note_on_c, 0, 55, 0
1, 5280, Note_on_c, 0, 43, 100
1, 5280, Note_on_c, 2, 43, 100
1, 5280, Note_on_c, 3, 77, 100
1, 5280, Note_on_c, 9, 36, 100
1, 5280, Note_on_c, 9, 46, 100
1, 5310, Note_on_c, 3, 77, 0
1, 5310, Note_on_c, 3, 79, 100
1, 5340, Note_on_c, 9, 36, 0
1, 5340, Note_on_c, 9, 46, 0
1, 5340, Note_on_c, 0, 43, 0
1, 5340, Note_on_c, 2, 43, 0
1, 5340, Note_on_c, 0, 67, 100
1, 5340, Note_on_c, 0, 55, 100
1, 5340, Note_on_c, 1, 69, 100
1, 5340, Note_on_c, 9, 36, 100
1, 5340, Note_on_c, 9, 46, 100
1, 5370, Note_on_c, 3, 79, 0
1, 5370, Note_on_c, 3, 79, 100
1, 5400, Note_on_c, 0, 55, 0
1, 5400, Note_on_c, 9, 36, 0
1, 5400, Note_on_c, 1, 69, 0
1, 5400, Note_on_c, 0, 67, 0
1, 5400, Note_on_c, 9, 46, 0
1, 5400, Note_on_c, 0, 65, 100
1, 5400, Note_on_c, 0, 43, 100
1, 5400, Note_on_c, 1, 70, 100
1, 5400, Note_on_c, 2, 43, 100
1, 5400, Note_on_c, 9, 36, 100
1, 5400, Note_on_c, 9, 38, 100
1, 5400, Note_on_c, 9, 46, 100
1, 5460, Note_on_c, 9, 46, 0
1, 5460, Note_on_c, 3, 79, 0
1, 5460, Note_on_c, 2, 43, 0
1, 5460, Note_on_c, 1, 70, 0
1, 5460, Note_on_c, 0, 43, 0
1, 5460, Note_on_c, 0, 65, 0
1, 5460, Note_on_c, 0, 67, 100
1, 5460, Note_on_c, 0, 55, 100
1, 5460, Note_on_c, 3, 79, 100
1, 5460, Note_on_c, 9, 46, 100
1, 5520, Note_on_c, 9, 46, 0
1, 5520, Note_on_c, 9, 38, 0
1, 5520, Note_on_c, 0, 67, 0
1, 5520, Note_on_c, 9, 36, 0
1, 5520, Note_on_c, 0, 55, 0
1, 5520, Note_on_c, 0, 74, 100
1, 5520, Note_on_c, 0, 69, 100
1, 5520, Note_on_c, 0, 43, 100
1, 5520, Note_on_c, 1, 69, 100
1, 5520, Note_on_c, 2, 43, 100
1, 5520, Note_on_c, 9, 36, 100
1, 5520, Note_on_c, 9, 46, 100
1, 5550, Note_on_c, 1, 69, 0
1, 5550, Note_on_c, 0, 69, 0
1, 5550, Note_on_c, 0, 70, 100
1, 5550, Note_on_c, 1, 70, 100
1, 5580, Note_on_c, 1, 70, 0
1, 5580, Note_on_c, 2, 43, 0
1, 5580, Note_on_c, 9, 46, 0
1, 5580, Note_on_c, 3, 79, 0
1, 5580, Note_on_c, 0, 43, 0
1, 5580, Note_on_c, 9, 36, 0
1, 5580, Note_on_c, 0, 55, 100
1, 5580, Note_on_c, 1, 67, 100
1, 5580, Note_on_c, 2, 43, 100
1, 5580, Note_on_c, 3, 79, 100
1, 5580, Note_on_c, 9, 36, 100
1, 5580, Note_on_c, 9, 46, 100
1, 5610, Note_on_c, 9, 36, 0
1, 5610, Note_on_c, 1, 67, 0
1, 5610, Note_on_c, 2, 43, 0
1, 5610, Note_on_c, 0, 70, 0
1, 5610, Note_on_c, 0, 74, 0
1, 5610, Note_on_c, 3, 79, 0
1, 5610, Note_on_c, 0, 74, 100
1, 5610, Note_on_c, 0, 67, 100
1, 5610, Note_on_c, 1, 65, 100
1, 5610, Note_on_c, 2, 43, 100
1, 5610, Note_on_c, 3, 74, 100
1, 5610, Note_on_c, 9, 36, 100
1, 5640, Note_on_c, 9, 36, 0
1, 5640, Note_on_c, 2, 43, 0
1, 5640, Note_on_c, 9, 46, 0
1, 5640, Note_on_c, 0, 55, 0
1, 5640, Note_on_c, 1, 65, 0
1, 5640, Note_on_c, 0, 43, 100
1, 5640, Note_on_c, 1, 62, 100
1, 5640, Note_on_c, 2, 43, 100
1, 5640, Note_on_c, 9, 36, 100
1, 5640, Note_on_c, 9, 40, 100
1, 5640, Note_on_c, 9, 46, 100
1, 5670, Note_on_c, 1, 62, 0
1, 5670, Note_on_c, 0, 67, 0
1, 5670, Note_on_c, 0, 74, 0
1, 5670, Note_on_c, 0, 65, 100
1, 5670, Note_on_c, 1, 65, 100
1, 5700, Note_on_c, 1, 65, 0
1, 5700, Note_on_c, 0, 65, 0
1, 5700, Note_on_c, 2, 43, 0
1, 5700, Note_on_c, 0, 43, 0
1, 5700, Note_on_c, 9, 46, 0
1, 5700, Note_on_c, 0, 62, 100
1, 5700, Note_on_c, 0, 55, 100
1, 5700, Note_on_c, 1, 67, 100
1, 5700, Note_on_c, 9, 46, 100
1, 5730, Note_on_c, 0, 62, 0
1, 5760, Note_on_c, 1, 67, 0
1, 5760, Note_on_c, 9, 36, 0
1, 5760, Note_on_c, 9, 40, 0
1, 5760, Note_on_c, 3, 74, 0
1, 5760, Note_on_c, 9, 46, 0
1, 5760, Note_on_c, 0, 55, 0
1, 5760, Note_on_c, 0, 43, 100
1, 5760, Note_on_c, 2, 43, 100
1, 5760, Note_on_c, 3, 77, 100
1, 5760, Note_on_c, 9, 36, 100
1, 5760, Note_on_c, 9, 46, 100
1, 5820, Note_on_c, 9, 46, 0
1, 5820, Note_on_c, 3, 77, 0
1, 5820, Note_on_c, 0, 43, 0
1, 5820, Note_on_c, 2, 43, 0
1, 5820, Note_on_c, 9, 36, 0
1, 5820, Note_on_c, 0, 67, 100
1, 5820, Note_on_c, 0, 55, 100
1, 5820, Note_on_c, 1, 69, 100
1, 5820, Note_on_c, 1, 73, 100
1, 5820, Note_on_c, 3, 79, 100
1, 5820, Note_on_c, 9, 36, 100
1, 5820, Note_on_c, 9, 46, 100
1, 5850, Note_on_c, 3, 79, 0
1, 5850, Note_on_c, 3, 79, 100
1, 5880, Note_on_c, 9, 36, 0
1, 5880, Note_on_c, 1, 73, 0
1, 5880, Note_on_c, 0, 55, 0
1, 5880, Note_on_c, 1, 69, 0
1, 5880, Note_on_c, 0, 67, 0
1, 5880, Note_on_c, 9, 46, 0
1, 5880, Note_on_c, 0, 65, 100
1, 5880, Note_on_c, 0, 43, 100
1, 5880, Note_on_c, 1, 70, 100
1, 5880, Note_on_c, 1, 74, 100
1, 5880, Note_on_c, 2, 43, 100
1, 5880, Note_on_c, 9, 36, 100
1, 5880, Note_on_c, 9, 38, 100
1, 5880, Note_on_c, 9, 46, 100
1, 5940, Note_on_c, 9, 46, 0
1, 5940, Note_on_c, 3, 79, 0
1, 5940, Note_on_c, 2, 43, 0
1, 5940, Note_on_c, 1, 70, 0
1, 5940, Note_on_c, 0, 65, 0
1, 5940, Note_on_c, 0, 43, 0
1, 5940, Note_on_c, 1, 74, 0
1, 5940, Note_on_c, 0, 67, 100
1, 5940, Note_on_c, 0, 55, 100
1, 5940, Note_on_c, 3, 79, 100
1, 5940, Note_on_c, 9, 46, 100
1, 6000, Note_on_c, 9, 46, 0
1, 6000, Note_on_c, 9, 38, 0
1, 6000, Note_on_c, 0, 67, 0
1, 6000, Note_on_c, 9, 36, 0
1, 6000, Note_on_c, 3, 79, 0
1, 6000, Note_on_c, 0, 55, 0
1, 6000, Note_on_c, 0, 74, 100
1, 6000, Note_on_c, 0, 69, 100
1, 6000, Note_on_c, 0, 43, 100
1, 6000, Note_on_c, 1, 69, 100
1, 6000, Note_on_c, 2, 43, 100
1, 6000, Note_on_c, 3, 82, 100
1, 6000, Note_on_c, 9, 36, 100
1, 6000, Note_on_c, 9, 46, 100
1, 6030, Note_on_c, 1, 69, 0
1, 6030, Note_on_c, 0, 69, 0
1, 6030, Note_on_c, 0, 70, 100
1, 6030, Note_on_c, 1, 70, 100
1, 6060, Note_on_c, 1, 70, 0
1, 6060, Note_on_c, 0, 43, 0
1, 6060, Note_on_c, 9, 46, 0
1, 6060, Note_on_c, 2, 43, 0
1, 6060, Note_on_c, 9, 36, 0
1, 6060, Note_on_c, 0, 55, 100
1, 6060, Note_on_c, 1, 67, 100
1, 6060, Note_on_c, 2, 43, 100
1, 6060, Note_on_c, 9, 36, 100
1, 6060, Note_on_c, 9, 46, 100
1, 6090, Note_on_c, 9, 36, 0
1, 6090, Note_on_c, 0, 74, 0
1, 6090, Note_on_c, 1, 67, 0
1, 6090, Note_on_c, 0, 70, 0
1, 6090, Note_on_c, 2, 43, 0
1, 6090, Note_on_c, 0, 74, 100
1, 6090, Note_on_c, 0, 67, 100
1, 6090, Note_on_c, 1, 65, 100
1, 6090, Note_on_c, 2, 43, 100
1, 6090, Note_on_c, 9, 36, 100
1, 6120, Note_on_c, 9, 36, 0
1, 6120, Note_on_c, 2, 43, 0
1, 6120, Note_on_c, 9, 46, 0
1, 6120, Note_on_c, 0, 55, 0
1, 6120, Note_on_c, 3, 82, 0
1, 6120, Note_on_c, 1, 65, 0
1, 6120, Note_on_c, 0, 43, 100
1, 6120, Note_on_c, 1, 62, 100
1, 6120, Note_on_c, 2, 43, 100
1, 6120, Note_on_c, 9, 36, 100
1, 6120, Note_on_c, 9, 40, 100
1, 6120, Note_on_c, 9, 46, 100
1, 6150, Note_on_c, 1, 62, 0
1, 6150, Note_on_c, 0, 74, 0
1, 6150, Note_on_c, 0, 67, 0
1, 6150, Note_on_c, 0, 65, 100
1, 6150, Note_on_c, 1, 65, 100
1, 6180, Note_on_c, 1, 65, 0
1, 6180, Note_on_c, 9, 46, 0
1, 6180, Note_on_c, 0, 43, 0
1, 6180, Note_on_c, 2, 43, 0
1, 6180, Note_on_c, 0, 65, 0
1, 6180, Note_on_c, 0, 62, 100
1, 6180, Note_on_c, 0, 55, 100
1, 6180, Note_on_c, 1, 67, 100
1, 6180, Note_on_c, 9, 46, 100
1, 6210, Note_on_c, 0, 62, 0
1, 6240, Note_on_c, 9, 40, 0
1, 6240, Note_on_c, 0, 55, 0
1, 6240, Note_on_c, 9, 36, 0
1, 6240, Note_on_c, 9, 46, 0
1, 6240, Note_on_c, 1, 67, 0
1, 6240, Note_on_c, 0, 43, 100
1, 6240, Note_on_c, 2, 43, 100
1, 6240, Note_on_c, 3, 77, 100
1, 6240, Note_on_c, 9, 36, 100
1, 6240, Note_on_c, 9, 46, 100
1, 6270, Note_on_c, 3, 77, 0
1, 6270, Note_on_c, 3, 79, 100
1, 6300, Note_on_c, 9, 36, 0
1, 6300, Note_on_c, 9, 46, 0
1, 6300, Note_on_c, 0, 43, 0
1, 6300, Note_on_c, 2, 43, 0
1, 6300, Note_on_c, 0, 67, 100
1, 6300, Note_on_c, 0, 55, 100
1, 6300, Note_on_c, 1, 69, 100
1, 6300, Note_on_c, 1, 73, 100
1, 6300, Note_on_c, 9, 36, 100
1, 6300, Note_on_c, 9, 46, 100
1, 6330, Note_on_c, 3, 79, 0
1, 6330, Note_on_c, 3, 79, 100
1, 6360, Note_on_c, 9, 36, 0
1, 6360, Note_on_c, 1, 73, 0
1, 6360, Note_on_c, 0, 55, 0
1, 6360, Note_on_c, 1, 69, 0
1, 6360, Note_on_c, 0, 67, 0
1, 6360, Note_on_c, 9, 46, 0
1, 6360, Note_on_c, 0, 65, 100
1, 6360, Note_on_c, 0, 43, 100
1, 6360, Note_on_c, 1, 70, 100
1, 6360, Note_on_c, 1, 74, 100
1, 6360, Note_on_c, 2, 43, 100
1, 6360, Note_on_c, 9, 36, 100
1, 6360, Note_on_c, 9, 38, 100
1, 6360, Note_on_c, 9, 46, 100
1, 6390, Note_on_c, 3, 79, 0
1, 6390, Note_on_c, 3, 79, 100
1, 6420, Note_on_c, 0, 65, 0
1, 6420, Note_on_c, 9, 46, 0
1, 6420, Note_on_c, 1, 74, 0
1, 6420, Note_on_c, 1, 70, 0
1, 6420, Note_on_c, 0, 43, 0
1, 6420, Note_on_c, 2, 43, 0
1, 6420, Note_on_c, 0, 67, 100
1, 6420, Note_on_c, 0, 55, 100
1, 6420, Note_on_c, 9, 46, 100
1, 6450, Note_on_c, 3, 79, 0
1, 6480, Note_on_c, 9, 38, 0
1, 6480, Note_on_c, 0, 67, 0
1, 6480, Note_on_c, 9, 36, 0
1, 6480, Note_on_c, 9, 46, 0
1, 6480, Note_on_c, 0, 55, 0
1, 6480, Note_on_c, 0, 74, 100
1, 6480, Note_on_c, 0, 69, 100
1, 6480, Note_on_c, 0, 43, 100
1, 6480, Note_on_c, 1, 69, 100
1, 6480, Note_on_c, 2, 43, 100
1, 6480, Note_on_c, 3, 82, 100
1, 6480, Note_on_c, 9, 36, 100
1, 6480, Note_on_c, 9, 46, 100
1, 6510, Note_on_c, 1, 69, 0
1, 6510, Note_on_c, 0, 69, 0
1, 6510, Note_on_c, 0, 70, 100
1, 6510, Note_on_c, 1, 70, 100
1, 6540, Note_on_c, 1, 70, 0
1, 6540, Note_on_c, 3, 82, 0
1, 6540, Note_on_c, 9, 46, 0
1, 6540, Note_on_c, 0, 43, 0
1, 6540, Note_on_c, 2, 43, 0
1, 6540, Note_on_c, 9, 36, 0
1, 6540, Note_on_c, 0, 55, 100
1, 6540, Note_on_c, 1, 67, 100
1, 6540, Note_on_c, 2, 43, 100
1, 6540, Note_on_c, 3, 79, 100
1, 6540, Note_on_c, 9, 36, 100
1, 6540, Note_on_c, 9, 46, 100
1, 6570, Note_on_c, 9, 36, 0
1, 6570, Note_on_c, 1, 67, 0
1, 6570, Note_on_c, 2, 43, 0
1, 6570, Note_on_c, 0, 70, 0
1, 6570, Note_on_c, 0, 74, 0
1, 6570, Note_on_c, 3, 79, 0
1, 6570, Note_on_c, 0, 74, 100
1, 6570, Note_on_c, 0, 67, 100
1, 6570, Note_on_c, 1, 65, 100
1, 6570, Note_on_c, 2, 43, 100
1, 6570, Note_on_c, 3, 79, 100
1, 6570, Note_on_c, 9, 36, 100
1, 6600, Note_on_c, 9, 36, 0
1, 6600, Note_on_c, 2, 43, 0
1, 6600, Note_on_c, 9, 46, 0
1, 6600, Note_on_c, 0, 55, 0
1, 6600, Note_on_c, 1, 65, 0
1, 6600, Note_on_c, 0, 43, 100
1, 6600, Note_on_c, 1, 62, 100
1, 6600, Note_on_c, 2, 43, 100
1, 6600, Note_on_c, 9, 36, 100
1, 6600, Note_on_c, 9, 40, 100
1, 6600, Note_on_c, 9, 46, 100
1, 6630, Note_on_c, 1, 62, 0
1, 6630, Note_on_c, 0, 67, 0
1, 6630, Note_on_c, 0, 74, 0
1, 6630, Note_on_c, 0, 65, 100
1, 6630, Note_on_c, 1, 65, 100
1, 6660, Note_on_c, 1, 65, 0
1, 6660, Note_on_c, 0, 65, 0
1, 6660, Note_on_c, 2, 43, 0
1, 6660, Note_on_c, 0, 43, 0
1, 6660, Note_on_c, 9, 46, 0
1, 6660, Note_on_c, 0, 62, 100
1, 6660, Note_on_c, 0, 55, 100
1, 6660, Note_on_c, 1, 67, 100
1, 6660, Note_on_c, 9, 46, 100
1, 6690, Note_on_c, 0, 62, 0
1, 6720, Note_on_c, 1, 67, 0
1, 6720, Note_on_c, 9, 36, 0
1, 6720, Note_on_c, 9, 40, 0
1, 6720, Note_on_c, 3, 79, 0
1, 6720, Note_on_c, 9, 46, 0
1, 6720, Note_on_c, 0, 55, 0
1, 6720, Note_on_c, 0, 43, 100
1, 6720, Note_on_c, 2, 43, 100
1, 6720, Note_on_c, 3, 82, 100
1, 6720, Note_on_c, 9, 36, 100
1, 6720, Note_on_c, 9, 46, 100
1, 6750, Note_on_c, 3, 82, 0
1, 6750, Note_on_c, 3, 82, 100
1, 6780, Note_on_c, 3, 82, 0
1, 6780, Note_on_c, 9, 46, 0
1, 6780, Note_on_c, 0, 43, 0
1, 6780, Note_on_c, 2, 43, 0
1, 6780, Note_on_c, 9, 36, 0
1, 6780, Note_on_c, 0, 67, 100
1, 6780, Note_on_c, 0, 55, 100
1, 6780, Note_on_c, 1, 69, 100
1, 6780, Note_on_c, 1, 73, 100
1, 6780, Note_on_c, 3, 82, 100
1, 6780, Note_on_c, 9, 36, 100
1, 6780, Note_on_c, 9, 46, 100
1, 6810, Note_on_c, 3, 82, 0
1, 6810, Note_on_c, 3, 82, 100
1, 6840, Note_on_c, 3, 82, 0
1, 6840, Note_on_c, 9, 46, 0
1, 6840, Note_on_c, 0, 55, 0
1, 6840, Note_on_c, 1, 69, 0
1, 6840, Note_on_c, 0, 67, 0
1, 6840, Note_on_c, 9, 36, 0
1, 6840, Note_on_c, 1, 73, 0
1, 6840, Note_on_c, 0, 65, 100
1, 6840, Note_on_c, 0, 43, 100
1, 6840, Note_on_c, 1, 70, 100
1, 6840, Note_on_c, 1, 74, 100
1, 6840, Note_on_c, 2, 43, 100
1, 6840, Note_on_c, 3, 82, 100
1, 6840, Note_on_c, 9, 36, 100
1, 6840, Note_on_c, 9, 38, 100
1, 6840, Note_on_c, 9, 46, 100
1, 6870, Note_on_c, 3, 82, 0
1, 6870, Note_on_c, 3, 79, 100
1, 6900, Note_on_c, 0, 65, 0
1, 6900, Note_on_c, 9, 46, 0
1, 6900, Note_on_c, 1, 74, 0
1, 6900, Note_on_c, 1, 70, 0
1, 6900, Note_on_c, 0, 43, 0
1, 6900, Note_on_c, 2, 43, 0
1, 6900, Note_on_c, 0, 67, 100
1, 6900, Note_on_c, 0, 55, 100
1, 6900, Note_on_c, 9, 46, 100
1, 6930, Note_on_c, 3, 79, 0
1, 6930, Note_on_c, 3, 79, 100
1, 6960, Note_on_c, 9, 38, 0
1, 6960, Note_on_c, 0, 55, 0
1, 6960, Note_on_c, 0, 67, 0
1, 6960, Note_on_c, 9, 36, 0
1, 6960, Note_on_c, 9, 46, 0
1, 6960, Note_on_c, 0, 74, 100
1, 6960, Note_on_c, 0, 69, 100
1, 6960, Note_on_c, 0, 43, 100
1, 6960, Note_on_c, 1, 69, 100
1, 6960, Note_on_c, 2, 43, 100
1, 6960, Note_on_c, 9, 36, 100
1, 6960, Note_on_c, 9, 46, 100
1, 6990, Note_on_c, 1, 69, 0
1, 6990, Note_on_c, 0, 69, 0
1, 6990, Note_on_c, 0, 70, 100
1, 6990, Note_on_c, 1, 70, 100
1, 7020, Note_on_c, 1, 70, 0
1, 7020, Note_on_c, 2, 43, 0
1, 7020, Note_on_c, 9, 46, 0
1, 7020, Note_on_c, 0, 43, 0
1, 7020, Note_on_c, 9, 36, 0
1, 7020, Note_on_c, 0, 55, 100
1, 7020, Note_on_c, 1, 67, 100
1, 7020, Note_on_c, 2, 43, 100
1, 7020, Note_on_c, 9, 36, 100
1, 7020, Note_on_c, 9, 46, 100
1, 7050, Note_on_c, 9, 36, 0
1, 7050, Note_on_c, 0, 74, 0
1, 7050, Note_on_c, 1, 67, 0
1, 7050, Note_on_c, 0, 70, 0
1, 7050, Note_on_c, 2, 43, 0
1, 7050, Note_on_c, 0, 74, 100
1, 7050, Note_on_c, 0, 67, 100
1, 7050, Note_on_c, 1, 65, 100
1, 7050, Note_on_c, 2, 43, 100
1, 7050, Note_on_c, 9, 36, 100
1, 7080, Note_on_c, 9, 36, 0
1, 7080, Note_on_c, 2, 43, 0
1, 7080, Note_on_c, 9, 46, 0
1, 7080, Note_on_c, 0, 55, 0
1, 7080, Note_on_c, 3, 79, 0
1, 7080, Note_on_c, 1, 65, 0
1, 7080, Note_on_c, 0, 43, 100
1, 7080, Note_on_c, 1, 62, 100
1, 7080, Note_on_c, 2, 43, 100
1, 7080, Note_on_c, 3, 77, 100
1, 7080, Note_on_c, 9, 36, 100
1, 7080, Note_on_c, 9, 40, 100
1, 7080, Note_on_c, 9, 46, 100
1, 7100, Note_on_c, 3, 77, 0
1, 7100, Note_on_c, 3, 79, 100
1, 7110, Note_on_c, 0, 74, 0
1, 7110, Note_on_c, 0, 67, 0
1, 7110, Note_on_c, 1, 62, 0
1, 7110, Note_on_c, 0, 65, 100
1, 7110, Note_on_c, 1, 65, 100
1, 7120, Note_on_c, 3, 79, 0
1, 7120, Note_on_c, 3, 79, 100
1, 7140, Note_on_c, 3, 79, 0
1, 7140, Note_on_c, 1, 65, 0
1, 7140, Note_on_c, 0, 43, 0
1, 7140, Note_on_c, 9, 46, 0
1, 7140, Note_on_c, 2, 43, 0
1, 7140, Note_on_c, 0, 65, 0
1, 7140, Note_on_c, 0, 62, 100
1, 7140, Note_on_c, 0, 55, 100
1, 7140, Note_on_c, 1, 67, 100
1, 7140, Note_on_c, 3, 79, 100
1, 7140, Note_on_c, 9, 46, 100
1, 7170, Note_on_c, 0, 62, 0
1, 7200, Note_on_c, 3, 79, 0
1, 7200, Note_on_c, 9, 36, 0
1, 7200, Note_on_c, 0, 55, 0
1, 7200, Note_on_c, 9, 40, 0
1, 7200, Note_on_c, 9, 46, 0
1, 7200, Note_on_c, 1, 67, 0
1, 7200, Note_on_c, 0, 43, 100
1, 7200, Note_on_c, 2, 43, 100
1, 7200, Note_on_c, 3, 82, 100
1, 7200, Note_on_c, 9, 36, 100
1, 7200, Note_on_c, 9, 46, 100
1, 7260, Note_on_c, 9, 46, 0
1, 7260, Note_on_c, 2, 43, 0
1, 7260, Note_on_c, 0, 43, 0
1, 7260, Note_on_c, 9, 36, 0
1, 7260, Note_on_c, 0, 67, 100
1, 7260, Note_on_c, 0, 55, 100
1, 7260, Note_on_c, 1, 69, 100
1, 7260, Note_on_c, 1, 73, 100
1, 7260, Note_on_c, 9, 36, 100
1, 7260, Note_on_c, 9, 46, 100
1, 7320, Note_on_c, 9, 46, 0
1, 7320, Note_on_c, 1, 73, 0
1, 7320, Note_on_c, 0, 67, 0
1, 7320, Note_on_c, 0, 55, 0
1, 7320, Note_on_c, 3, 82, 0
1, 7320, Note_on_c, 9, 36, 0
1, 7320, Note_on_c, 1, 69, 0
1, 7320, Note_on_c, 0, 65, 100
1, 7320, Note_on_c, 0, 43, 100
1, 7320, Note_on_c, 1, 70, 100
1, 7320, Note_on_c, 1, 74, 100
1, 7320, Note_on_c, 2, 43, 100
1, 7320, Note_on_c, 9, 36, 100
1, 7320, Note_on_c, 9, 38, 100
1, 7320, Note_on_c, 9, 46, 100
1, 7380, Note_on_c, 9, 46, 0
1, 7380, Note_on_c, 0, 65, 0
1, 7380, Note_on_c, 2, 43, 0
1, 7380, Note_on_c, 1, 74, 0
1, 7380, Note_on_c, 1, 70, 0
1, 7380, Note_on_c, 0, 43, 0
1, 7380, Note_on_c, 0, 67, 100
1, 7380, Note_on_c, 0, 55, 100
1, 7380, Note_on_c, 9, 46, 100
1, 7440, Note_on_c, 9, 46, 0
1, 7440, Note_on_c, 0, 67, 0
1, 7440, Note_on_c, 9, 36, 0
1, 7440, Note_on_c, 9, 38, 0
1, 7440, Note_on_c, 0, 55, 0
1, 7440, Note_on_c, 0, 74, 100
1, 7440, Note_on_c, 0, 69, 100
1, 7440, Note_on_c, 0, 43, 100
1, 7440, Note_on_c, 1, 69, 100
1, 7440, Note_on_c, 2, 43, 100
1, 7440, Note_on_c, 9, 36, 100
1, 7440, Note_on_c, 9, 46, 100
1, 7470, Note_on_c, 1, 69, 0
1, 7470, Note_on_c, 0, 69, 0
1, 7470, Note_on_c, 0, 70, 100
1, 7470, Note_on_c, 1, 70, 100
1, 7500, Note_on_c, 1, 70, 0
1, 7500, Note_on_c, 9, 46, 0
1, 7500, Note_on_c, 9, 36, 0
1, 7500, Note_on_c, 2, 43, 0
1, 7500, Note_on_c, 0, 43, 0
1, 7500, Note_on_c, 0, 55, 100
1, 7500, Note_on_c, 1, 67, 100
1, 7500, Note_on_c, 2, 43, 100
1, 7500, Note_on_c, 9, 36, 100
1, 7500, Note_on_c, 9, 46, 100
1, 7530, Note_on_c, 9, 36, 0
1, 7530, Note_on_c, 1, 67, 0
1, 7530, Note_on_c, 0, 70, 0
1, 7530, Note_on_c, 0, 74, 0
1, 7530, Note_on_c, 2, 43, 0
1, 7530, Note_on_c, 0, 74, 100
1, 7530, Note_on_c, 0, 67, 100
1, 7530, Note_on_c, 1, 65, 100
1, 7530, Note_on_c, 2, 43, 100
1, 7530, Note_on_c, 9, 36, 100
1, 7560, Note_on_c, 9, 36, 0
1, 7560, Note_on_c, 1, 65, 0
1, 7560, Note_on_c, 9, 46, 0
1, 7560, Note_on_c, 0, 55, 0
1, 7560, Note_on_c, 2, 43, 0
1, 7560, Note_on_c, 0, 43, 100
1, 7560, Note_on_c, 1, 62, 100
1, 7560, Note_on_c, 2, 43, 100
1, 7560, Note_on_c, 3, 77, 100
1, 7560, Note_on_c, 9, 36, 100
1, 7560, Note_on_c, 9, 40, 100
1, 7560, Note_on_c, 9, 46, 100
1, 7580, Note_on_c, 3, 77, 0
1, 7580, Note_on_c, 3, 79, 100
1, 7590, Note_on_c, 0, 67, 0
1, 7590, Note_on_c, 0, 74, 0
1, 7590, Note_on_c, 1, 62, 0
1, 7590, Note_on_c, 0, 65, 100
1, 7590, Note_on_c, 1, 65, 100
1, 7600, Note_on_c, 3, 79, 0
1, 7600, Note_on_c, 3, 79, 100
1, 7620, Note_on_c, 3, 79, 0
1, 7620, Note_on_c, 1, 65, 0
1, 7620, Note_on_c, 0, 43, 0
1, 7620, Note_on_c, 9, 46, 0
1, 7620, Note_on_c, 2, 43, 0
1, 7620, Note_on_c, 0, 65, 0
1, 7620, Note_on_c, 0, 62, 100
1, 7620, Note_on_c, 0, 55, 100
1, 7620, Note_on_c, 1, 67, 100
1, 7620, Note_on_c, 3, 79, 100
1, 7620, Note_on_c, 9, 46, 100
1, 7650, Note_on_c, 0, 62, 0
1, 7680, Note_on_c, 9, 36, 0
1, 7680, Note_on_c, 1, 67, 0
1, 7680, Note_on_c, 0, 55, 0
1, 7680, Note_on_c, 9, 40, 0
1, 7680, Note_on_c, 9, 46, 0
1, 7680, Note_on_c, 0, 43, 100
1, 7680, Note_on_c, 2, 43, 100
1, 7680, Note_on_c, 9, 36, 100
1, 7680, Note_on_c, 9, 46, 100
1, 7740, Note_on_c, 9, 46, 0
1, 7740, Note_on_c, 2, 43, 0
1, 7740, Note_on_c, 3, 79, 0
1, 7740, Note_on_c, 0, 43, 0
1, 7740, Note_on_c, 9, 36, 0
1, 7740, Note_on_c, 0, 67, 100
1, 7740, Note_on_c, 0, 55, 100
1, 7740, Note_on_c, 1, 69, 100
1, 7740, Note_on_c, 1, 73, 100
1, 7740, Note_on_c, 3, 79, 100
1, 7740, Note_on_c, 9, 36, 100
1, 7740, Note_on_c, 9, 46, 100
1, 7800, Note_on_c, 9, 46, 0
1, 7800, Note_on_c, 1, 73, 0
1, 7800, Note_on_c, 0, 55, 0
1, 7800, Note_on_c, 1, 69, 0
1, 7800, Note_on_c, 0, 67, 0
1, 7800, Note_on_c, 9, 36, 0
1, 7800, Note_on_c, 0, 65, 100
1, 7800, Note_on_c, 0, 43, 100
1, 7800, Note_on_c, 1, 70, 100
1, 7800, Note_on_c, 1, 74, 100
1, 7800, Note_on_c, 2, 43, 100
1, 7800, Note_on_c, 9, 36, 100
1, 7800, Note_on_c, 9, 38, 100
1, 7800, Note_on_c, 9, 46, 100
1, 7860, Note_on_c, 9, 46, 0
1, 7860, Note_on_c, 3, 79, 0
1, 7860, Note_on_c, 2, 43, 0
1, 7860, Note_on_c, 1, 70, 0
1, 7860, Note_on_c, 0, 65, 0
1, 7860, Note_on_c, 0, 43, 0
1, 7860, Note_on_c, 1, 74, 0
1, 7860, Note_on_c, 0, 67, 100
1, 7860, Note_on_c, 0, 55, 100
1, 7860, Note_on_c, 9, 46, 100
1, 7920, Note_on_c, 9, 46, 0
1, 7920, Note_on_c, 0, 67, 0
1, 7920, Note_on_c, 9, 36, 0
1, 7920, Note_on_c, 9, 38, 0
1, 7920, Note_on_c, 0, 55, 0
1, 7920, Note_on_c, 0, 74, 100
1, 7920, Note_on_c, 0, 69, 100
1, 7920, Note_on_c, 0, 43, 100
1, 7920, Note_on_c, 1, 69, 100
1, 7920, Note_on_c, 2, 43, 100
1, 7920, Note_on_c, 3, 79, 100
1, 7920, Note_on_c, 9, 36, 100
1, 7920, Note_on_c, 9, 46, 100
1, 7950, Note_on_c, 1, 69, 0
1, 7950, Note_on_c, 0, 69, 0
1, 7950, Note_on_c, 0, 70, 100
1, 7950, Note_on_c, 1, 70, 100
1, 7980, Note_on_c, 1, 70, 0
1, 7980, Note_on_c, 0, 43, 0
1, 7980, Note_on_c, 9, 46, 0
1, 7980, Note_on_c, 2, 43, 0
1, 7980, Note_on_c, 9, 36, 0
1, 7980, Note_on_c, 0, 55, 100
1, 7980, Note_on_c, 1, 67, 100
1, 7980, Note_on_c, 2, 43, 100
1, 7980, Note_on_c, 9, 36, 100
1, 7980, Note_on_c, 9, 46, 100
1, 8010, Note_on_c, 9, 36, 0
1, 8010, Note_on_c, 0, 74, 0
1, 8010, Note_on_c, 1, 67, 0
1, 8010, Note_on_c, 0, 70, 0
1, 8010, Note_on_c, 2, 43, 0
1, 8010, Note_on_c, 0, 74, 100
1, 8010, Note_on_c, 0, 67, 100
1, 8010, Note_on_c, 1, 65, 100
1, 8010, Note_on_c, 2, 43, 100
1, 8010, Note_on_c, 9, 36, 100
1, 8040, Note_on_c, 9, 36, 0
1, 8040, Note_on_c, 2, 43, 0
1, 8040, Note_on_c, 9, 46, 0
1, 8040, Note_on_c, 0, 55, 0
1, 8040, Note_on_c, 3, 79, 0
1, 8040, Note_on_c, 1, 65, 0
1, 8040, Note_on_c, 0, 43, 100
1, 8040, Note_on_c, 1, 62, 100
1, 8040, Note_on_c, 2, 43, 100
1, 8040, Note_on_c, 3, 77, 100
1, 8040, Note_on_c, 9, 36, 100
1, 8040, Note_on_c, 9, 40, 100
1, 8040, Note_on_c, 9, 46, 100
1, 8060, Note_on_c, 3, 77, 0
1, 8060, Note_on_c, 3, 79, 100
1, 8070, Note_on_c, 0, 74, 0
1, 8070, Note_on_c, 0, 67, 0
1, 8070, Note_on_c, 1, 62, 0
1, 8070, Note_on_c, 0, 65, 100
1, 8070, Note_on_c, 1, 65, 100
1, 8080, Note_on_c, 3, 79, 0
1, 8080, Note_on_c, 3, 79, 100
1, 8100, Note_on_c, 3, 79, 0
1, 8100, Note_on_c, 1, 65, 0
1, 8100, Note_on_c, 0, 43, 0
1, 8100, Note_on_c, 9, 46, 0
1, 8100, Note_on_c, 2, 43, 0
1, 8100, Note_on_c, 0, 65, 0
1, 8100, Note_on_c, 0, 62, 100
1, 8100, Note_on_c, 0, 55, 100
1, 8100, Note_on_c, 1, 67, 100
1, 8100, Note_on_c, 3, 79, 100
1, 8100, Note_on_c, 9, 46, 100
1, 8130, Note_on_c, 0, 62, 0
1, 8160, Note_on_c, 3, 79, 0
1, 8160, Note_on_c, 9, 36, 0
1, 8160, Note_on_c, 0, 55, 0
1, 8160, Note_on_c, 9, 40, 0
1, 8160, Note_on_c, 9, 46, 0
1, 8160, Note_on_c, 1, 67, 0
1, 8160, Note_on_c, 0, 46, 100
1, 8160, Note_on_c, 0, 65, 100
1, 8160, Note_on_c, 0, 74, 100
1, 8160, Note_on_c, 0, 70, 100
1, 8160, Note_on_c, 1, 74, 100
1, 8160, Note_on_c, 2, 46, 100
1, 8160, Note_on_c, 9, 36, 100
1, 8160, Note_on_c, 9, 49, 100
1, 8190, Note_on_c, 1, 74, 0
1, 8190, Note_on_c, 1, 74, 100
1, 8220, Note_on_c, 9, 49, 0
1, 8220, Note_on_c, 9, 36, 0
1, 8220, Note_on_c, 9, 36, 100
1, 8220, Note_on_c, 9, 46, 100
1, 8250, Note_on_c, 1, 82, 100
1, 8280, Note_on_c, 9, 46, 0
1, 8280, Note_on_c, 9, 36, 0
1, 8280, Note_on_c, 9, 40, 100
1, 8280, Note_on_c, 9, 46, 100
1, 8310, Note_on_c, 1, 82, 0
1, 8310, Note_on_c, 1, 82, 100
1, 8340, Note_on_c, 1, 82, 0
1, 8340, Note_on_c, 9, 46, 0
1, 8340, Note_on_c, 9, 40, 0
1, 8340, Note_on_c, 0, 46, 0
1, 8340, Note_on_c, 0, 46, 100
1, 8340, Note_on_c, 1, 74, 100
1, 8340, Note_on_c, 9, 36, 100
1, 8340, Note_on_c, 9, 46, 100
1, 8400, Note_on_c, 9, 46, 0
1, 8400, Note_on_c, 2, 46, 0
1, 8400, Note_on_c, 1, 74, 0
1, 8400, Note_on_c, 0, 74, 0
1, 8400, Note_on_c, 0, 65, 0
1, 8400, Note_on_c, 0, 70, 0
1, 8400, Note_on_c, 1, 74, 0
1, 8400, Note_on_c, 0, 46, 0
1, 8400, Note_on_c, 9, 36, 0
1, 8400, Note_on_c, 0, 48, 100
1, 8400, Note_on_c, 0, 76, 100
1, 8400, Note_on_c, 0, 72, 100
1, 8400, Note_on_c, 0, 67, 100
1, 8400, Note_on_c, 1, 74, 100
1, 8400, Note_on_c, 2, 48, 100
1, 8400, Note_on_c, 9, 36, 100
1, 8400, Note_on_c, 9, 49, 100
1, 8430, Note_on_c, 1, 74, 0
1, 8430, Note_on_c, 1, 76, 100
1, 8460, Note_on_c, 9, 49, 0
1, 8460, Note_on_c, 9, 36, 0
1, 8460, Note_on_c, 9, 36, 100
1, 8460, Note_on_c, 9, 46, 100
1, 8490, Note_on_c, 1, 84, 100
1, 8520, Note_on_c, 9, 46, 0
1, 8520, Note_on_c, 9, 36, 0
1, 8520, Note_on_c, 1, 76, 0
1, 8520, Note_on_c, 1, 76, 100
1, 8520, Note_on_c, 9, 46, 100
1, 8550, Note_on_c, 1, 84, 0
1, 8550, Note_on_c, 1, 84, 100
1, 8550, Note_on_c, 9, 40, 100
1, 8580, Note_on_c, 9, 40, 0
1, 8580, Note_on_c, 0, 48, 0
1, 8580, Note_on_c, 1, 84, 0
1, 8580, Note_on_c, 9, 46, 0
1, 8580, Note_on_c, 0, 48, 100
1, 8580, Note_on_c, 1, 76, 100
1, 8580, Note_on_c, 9, 40, 100
1, 8610, Note_on_c, 9, 40, 0
1, 8610, Note_on_c, 9, 38, 100
1, 8640, Note_on_c, 9, 38, 0
1, 8640, Note_on_c, 2, 48, 0
1, 8640, Note_on_c, 0, 72, 0
1, 8640, Note_on_c, 1, 76, 0
1, 8640, Note_on_c, 0, 67, 0
1, 8640, Note_on_c, 1, 76, 0
1, 8640, Note_on_c, 0, 48, 0
1, 8640, Note_on_c, 0, 76, 0
1, 8640, Note_on_c, 0, 43, 100
1, 8640, Note_on_c, 2, 43, 100
1, 8640, Note_on_c, 9, 36, 100
1, 8640, Note_on_c, 9, 46, 100
1, 8700, Note_on_c, 9, 46, 0
1, 8700, Note_on_c, 0, 43, 0
1, 8700, Note_on_c, 2, 43, 0
1, 8700, Note_on_c, 9, 36, 0
1, 8700, Note_on_c, 0, 67, 100
1, 8700, Note_on_c, 0, 55, 100
1, 8700, Note_on_c, 1, 86, 100
1, 8700, Note_on_c, 1, 81, 100
1, 8700, Note_on_c, 9, 36, 100
1, 8700, Note_on_c, 9, 46, 100
1, 8760, Note_on_c, 9, 46, 0
1, 8760, Note_on_c, 0, 55, 0
1, 8760, Note_on_c, 1, 86, 0
1, 8760, Note_on_c, 0, 67, 0
1, 8760, Note_on_c, 9, 36, 0
1, 8760, Note_on_c, 1, 81, 0
1, 8760, Note_on_c, 0, 65, 100
1, 8760, Note_on_c, 0, 43, 100
1, 8760, Note_on_c, 1, 86, 100
1, 8760, Note_on_c, 1, 82, 100
1, 8760, Note_on_c, 2, 43, 100
1, 8760, Note_on_c, 9, 36, 100
1, 8760, Note_on_c, 9, 38, 100
1, 8760, Note_on_c, 9, 46, 100
1, 8820, Note_on_c, 9, 46, 0
1, 8820, Note_on_c, 0, 65, 0
1, 8820, Note_on_c, 2, 43, 0
1, 8820, Note_on_c, 1, 82, 0
1, 8820, Note_on_c, 1, 86, 0
1, 8820, Note_on_c, 0, 43, 0
1, 8820, Note_on_c, 0, 67, 100
1, 8820, Note_on_c, 0, 55, 100
1, 8820, Note_on_c, 9, 46, 100
1, 8880, Note_on_c, 9, 46, 0
1, 8880, Note_on_c, 0, 67, 0
1, 8880, Note_on_c, 9, 36, 0
1, 8880, Note_on_c, 9, 38, 0
1, 8880, Note_on_c, 0, 55, 0
1, 8880, Note_on_c, 0, 74, 100
1, 8880, Note_on_c, 0, 69, 100
1, 8880, Note_on_c, 0, 43, 100
1, 8880, Note_on_c, 1, 81, 100
1, 8880, Note_on_c, 2, 43, 100
1, 8880, Note_on_c, 9, 36, 100
1, 8880, Note_on_c, 9, 46, 100
1, 8910, Note_on_c, 1, 81, 0
1, 8910, Note_on_c, 0, 69, 0
1, 8910, Note_on_c, 0, 70, 100
1, 8910, Note_on_c, 1, 82, 100
1, 8940, Note_on_c, 1, 82, 0
1, 8940, Note_on_c, 9, 46, 0
1, 8940, Note_on_c, 9, 36, 0
1, 8940, Note_on_c, 2, 43, 0
1, 8940, Note_on_c, 0, 43, 0
1, 8940, Note_on_c, 0, 55, 100
1, 8940, Note_on_c, 1, 79, 100
1, 8940, Note_on_c, 9, 36, 100
1, 8940, Note_on_c, 9, 46, 100
1, 8970, Note_on_c, 9, 36, 0
1, 8970, Note_on_c, 1, 79, 0
1, 8970, Note_on_c, 0, 74, 0
1, 8970, Note_on_c, 0, 70, 0
1, 8970, Note_on_c, 0, 74, 100
1, 8970, Note_on_c, 0, 67, 100
1, 8970, Note_on_c, 1, 77, 100
1, 8970, Note_on_c, 9, 36, 100
1, 9000, Note_on_c, 9, 36, 0
1, 9000, Note_on_c, 9, 46, 0
1, 9000, Note_on_c, 0, 55, 0
1, 9000, Note_on_c, 1, 77, 0
1, 9000, Note_on_c, 0, 43, 100
1, 9000, Note_on_c, 1, 74, 100
1, 9000, Note_on_c, 2, 43, 100
1, 9000, Note_on_c, 9, 36, 100
1, 9000, Note_on_c, 9, 40, 100
1, 9000, Note_on_c, 9, 46, 100
1, 9030, Note_on_c, 1, 74, 0
1, 9030, Note_on_c, 0, 67, 0
1, 9030, Note_on_c, 0, 74, 0
1, 9030, Note_on_c, 0, 65, 100
1, 9030, Note_on_c, 1, 77, 100
1, 9060, Note_on_c, 1, 77, 0
1, 9060, Note_on_c, 9, 46, 0
1, 9060, Note_on_c, 0, 43, 0
1, 9060, Note_on_c, 2, 43, 0
1, 9060, Note_on_c, 0, 65, 0
1, 9060, Note_on_c, 0, 62, 100
1, 9060, Note_on_c, 0, 55, 100
1, 9060, Note_on_c, 1, 79, 100
1, 9060, Note_on_c, 9, 46, 100
1, 9090, Note_on_c, 0, 62, 0
1, 9120, Note_on_c, 9, 40, 0
1, 9120, Note_on_c, 0, 55, 0
1, 9120, Note_on_c, 9, 36, 0
1, 9120, Note_on_c, 9, 46, 0
1, 9120, Note_on_c, 1, 79, 0
1, 9120, Note_on_c, 0, 43, 100
1, 9120, Note_on_c, 2, 43, 100
1, 9120, Note_on_c, 9, 36, 100
1, 9120, Note_on_c, 9, 46, 100
1, 9180, Note_on_c, 9, 46, 0
1, 9180, Note_on_c, 0, 43, 0
1, 9180, Note_on_c, 2, 43, 0
1, 9180, Note_on_c, 9, 36, 0
1, 9180, Note_on_c, 0, 67, 100
1, 9180, Note_on_c, 0, 55, 100
1, 9180, Note_on_c, 1, 86, 100
1, 9180, Note_on_c, 1, 81, 100
1, 9180, Note_on_c, 9, 36, 100
1, 9180, Note_on_c, 9, 46, 100
1, 9240, Note_on_c, 9, 46, 0
1, 9240, Note_on_c, 0, 55, 0
1, 9240, Note_on_c, 1, 86, 0
1, 9240, Note_on_c, 0, 67, 0
1, 9240, Note_on_c, 9, 36, 0
1, 9240, Note_on_c, 1, 81, 0
1, 9240, Note_on_c, 0, 65, 100
1, 9240, Note_on_c, 0, 43, 100
1, 9240, Note_on_c, 1, 86, 100
1, 9240, Note_on_c, 1, 82, 100
1, 9240, Note_on_c, 2, 43, 100
1, 9240, Note_on_c, 9, 36, 100
1, 9240, Note_on_c, 9, 38, 100
1, 9240, Note_on_c, 9, 46, 100
1, 9300, Note_on_c, 9, 46, 0
1, 9300, Note_on_c, 0, 65, 0
1, 9300, Note_on_c, 2, 43, 0
1, 9300, Note_on_c, 1, 82, 0
1, 9300, Note_on_c, 1, 86, 0
1, 9300, Note_on_c, 0, 43, 0
1, 9300, Note_on_c, 0, 67, 100
1, 9300, Note_on_c, 0, 55, 100
1, 9300, Note_on_c, 9, 46, 100
1, 9360, Note_on_c, 9, 46, 0
1, 9360, Note_on_c, 0, 67, 0
1, 9360, Note_on_c, 9, 36, 0
1, 9360, Note_on_c, 9, 38, 0
1, 9360, Note_on_c, 0, 55, 0
1, 9360, Note_on_c, 0, 74, 100
1, 9360, Note_on_c, 0, 69, 100
1, 9360, Note_on_c, 0, 43, 100
1, 9360, Note_on_c, 1, 81, 100
1, 9360, Note_on_c, 2, 43, 100
1, 9360, Note_on_c, 9, 36, 100
1, 9360, Note_on_c, 9, 46, 100
1, 9390, Note_on_c, 1, 81, 0
1, 9390, Note_on_c, 0, 69, 0
1, 9390, Note_on_c, 0, 70, 100
1, 9390, Note_on_c, 1, 82, 100
1, 9420, Note_on_c, 1, 82, 0
1, 9420, Note_on_c, 9, 46, 0
1, 9420, Note_on_c, 9, 36, 0
1, 9420, Note_on_c, 2, 43, 0
1, 9420, Note_on_c, 0, 43, 0
1, 9420, Note_on_c, 0, 55, 100
1, 9420, Note_on_c, 1, 79, 100
1, 9420, Note_on_c, 9, 36, 100
1, 9420, Note_on_c, 9, 46, 100
1, 9450, Note_on_c, 9, 36, 0
1, 9450, Note_on_c, 1, 79, 0
1, 9450, Note_on_c, 0, 74, 0
1, 9450, Note_on_c, 0, 70, 0
1, 9450, Note_on_c, 0, 74, 100
1, 9450, Note_on_c, 0, 67, 100
1, 9450, Note_on_c, 1, 77, 100
1, 9450, Note_on_c, 9, 36, 100
1, 9480, Note_on_c, 9, 36, 0
1, 9480, Note_on_c, 9, 46, 0
1, 9480, Note_on_c, 0, 55, 0
1, 9480, Note_on_c, 1, 77, 0
1, 9480, Note_on_c, 0, 43, 100
1, 9480, Note_on_c, 1, 74, 100
1, 9480, Note_on_c, 2, 43, 100
1, 9480, Note_on_c, 9, 36, 100
1, 9480, Note_on_c, 9, 40, 100
1, 9480, Note_on_c, 9, 46, 100
1, 9510, Note_on_c, 1, 74, 0
1, 9510, Note_on_c, 0, 67, 0
1, 9510, Note_on_c, 0, 74, 0
1, 9510, Note_on_c, 0, 65, 100
1, 9510, Note_on_c, 1, 77, 100
1, 9540, Note_on_c, 1, 77, 0
1, 9540, Note_on_c, 9, 46, 0
1, 9540, Note_on_c, 0, 43, 0
1, 9540, Note_on_c, 2, 43, 0
1, 9540, Note_on_c, 0, 65, 0
1, 9540, Note_on_c, 0, 62, 100
1, 9540, Note_on_c, 0, 55, 100
1, 9540, Note_on_c, 1, 79, 100
1, 9540, Note_on_c, 9, 46, 100
1, 9570, Note_on_c, 0, 62, 0
1, 9600, Note_on_c, 9, 40, 0
1, 9600, Note_on_c, 0, 55, 0
1, 9600, Note_on_c, 9, 36, 0
1, 9600, Note_on_c, 9, 46, 0
1, 9600, Note_on_c, 1, 79, 0
1, 9600, Note_on_c, 0, 43, 100
1, 9600, Note_on_c, 2, 43, 100
1, 9600, Note_on_c, 3, 77, 100
1, 9600, Note_on_c, 9, 36, 100
1, 9600, Note_on_c, 9, 46, 100
1, 9660, Note_on_c, 9, 46, 0
1, 9660, Note_on_c, 3, 77, 0
1, 9660, Note_on_c, 0, 43, 0
1, 9660, Note_on_c, 2, 43, 0
1, 9660, Note_on_c, 9, 36, 0
1, 9660, Note_on_c, 0, 67, 100
1, 9660, Note_on_c, 0, 55, 100
1, 9660, Note_on_c, 1, 69, 100
1, 9660, Note_on_c, 3, 79, 100
1, 9660, Note_on_c, 9, 36, 100
1, 9660, Note_on_c, 9, 46, 100
1, 9720, Note_on_c, 9, 46, 0
1, 9720, Note_on_c, 0, 55, 0
1, 9720, Note_on_c, 1, 69, 0
1, 9720, Note_on_c, 0, 67, 0
1, 9720, Note_on_c, 9, 36, 0
1, 9720, Note_on_c, 3, 79, 0
1, 9720, Note_on_c, 0, 65, 100
1, 9720, Note_on_c, 0, 43, 100
1, 9720, Note_on_c, 1, 70, 100
1, 9720, Note_on_c, 2, 43, 100
1, 9720, Note_on_c, 3, 79, 100
1, 9720, Note_on_c, 9, 36, 100
1, 9720, Note_on_c, 9, 38, 100
1, 9720, Note_on_c, 9, 46, 100
1, 9780, Note_on_c, 9, 46, 0
1, 9780, Note_on_c, 0, 65, 0
1, 9780, Note_on_c, 3, 79, 0
1, 9780, Note_on_c, 2, 43, 0
1, 9780, Note_on_c, 1, 70, 0
1, 9780, Note_on_c, 0, 43, 0
1, 9780, Note_on_c, 0, 67, 100
1, 9780, Note_on_c, 0, 55, 100
1, 9780, Note_on_c, 3, 79, 100
1, 9780, Note_on_c, 9, 46, 100
1, 9810, Note_on_c, 3, 79, 0
1, 9810, Note_on_c, 3, 79, 100
1, 9840, Note_on_c, 3, 79, 0
1, 9840, Note_on_c, 9, 46, 0
1, 9840, Note_on_c, 0, 67, 0
1, 9840, Note_on_c, 9, 36, 0
1, 9840, Note_on_c, 9, 38, 0
1, 9840, Note_on_c, 0, 55, 0
1, 9840, Note_on_c, 0, 74, 100
1, 9840, Note_on_c, 0, 69, 100
1, 9840, Note_on_c, 0, 43, 100
1, 9840, Note_on_c, 1, 69, 100
1, 9840, Note_on_c, 2, 43, 100
1, 9840, Note_on_c, 3, 79, 100
1, 9840, Note_on_c, 9, 36, 100
1, 9840, Note_on_c, 9, 46, 100
1, 9870, Note_on_c, 1, 69, 0
1, 9870, Note_on_c, 0, 69, 0
1, 9870, Note_on_c, 0, 70, 100
1, 9870, Note_on_c, 1, 70, 100
1, 9900, Note_on_c, 1, 70, 0
1, 9900, Note_on_c, 0, 43, 0
1, 9900, Note_on_c, 9, 46, 0
1, 9900, Note_on_c, 2, 43, 0
1, 9900, Note_on_c, 9, 36, 0
1, 9900, Note_on_c, 0, 55, 100
1, 9900, Note_on_c, 1, 67, 100
1, 9900, Note_on_c, 2, 43, 100
1, 9900, Note_on_c, 9, 36, 100
1, 9900, Note_on_c, 9, 46, 100
1, 9930, Note_on_c, 9, 36, 0
1, 9930, Note_on_c, 0, 74, 0
1, 9930, Note_on_c, 1, 67, 0
1, 9930, Note_on_c, 0, 70, 0
1, 9930, Note_on_c, 2, 43, 0
1, 9930, Note_on_c, 0, 74, 100
1, 9930, Note_on_c, 0, 67, 100
1, 9930, Note_on_c, 1, 65, 100
1, 9930, Note_on_c, 2, 43, 100
1, 9930, Note_on_c, 9, 36, 100
1, 9960, Note_on_c, 9, 36, 0
1, 9960, Note_on_c, 2, 43, 0
1, 9960, Note_on_c, 9, 46, 0
1, 9960, Note_on_c, 0, 55, 0
1, 9960, Note_on_c, 3, 79, 0
1, 9960, Note_on_c, 1, 65, 0
1, 9960, Note_on_c, 0, 43, 100
1, 9960, Note_on_c, 1, 62, 100
1, 9960, Note_on_c, 2, 43, 100
1, 9960, Note_on_c, 9, 36, 100
1, 9960, Note_on_c, 9, 40, 100
1, 9960, Note_on_c, 9, 46, 100
1, 9990, Note_on_c, 1, 62, 0
1, 9990, Note_on_c, 0, 74, 0
1, 9990, Note_on_c, 0, 67, 0
1, 9990, Note_on_c, 0, 65, 100
1, 9990, Note_on_c, 1, 65, 100
1, 10020, Note_on_c, 1, 65, 0
1, 10020, Note_on_c, 9, 46, 0
1, 10020, Note_on_c, 0, 43, 0
1, 10020, Note_on_c, 2, 43, 0
1, 10020, Note_on_c, 0, 65, 0
1, 10020, Note_on_c, 0, 62, 100
1, 10020, Note_on_c, 0, 55, 100
1, 10020, Note_on_c, 1, 67, 100
1, 10020, Note_on_c, 9, 46, 100
1, 10050, Note_on_c, 0, 62, 0
1, 10080, Note_on_c, 9, 40, 0
1, 10080, Note_on_c, 0, 55, 0
1, 10080, Note_on_c, 9, 36, 0
1, 10080, Note_on_c, 9, 46, 0
1, 10080, Note_on_c, 1, 67, 0
1, 10080, Note_on_c, 0, 43, 100
1, 10080, Note_on_c, 2, 43, 100
1, 10080, Note_on_c, 3, 77, 100
1, 10080, Note_on_c, 9, 36, 100
1, 10080, Note_on_c, 9, 46, 100
1, 10140, Note_on_c, 9, 46, 0
1, 10140, Note_on_c, 3, 77, 0
1, 10140, Note_on_c, 0, 43, 0
1, 10140, Note_on_c, 2, 43, 0
1, 10140, Note_on_c, 9, 36, 0
1, 10140, Note_on_c, 0, 67, 100
1, 10140, Note_on_c, 0, 55, 100
1, 10140, Note_on_c, 1, 69, 100
1, 10140, Note_on_c, 1, 73, 100
1, 10140, Note_on_c, 3, 79, 100
1, 10140, Note_on_c, 9, 36, 100
1, 10140, Note_on_c, 9, 46, 100
1, 10170, Note_on_c, 3, 79, 0
1, 10170, Note_on_c, 3, 79, 100
1, 10200, Note_on_c, 9, 36, 0
1, 10200, Note_on_c, 1, 73, 0
1, 10200, Note_on_c, 0, 55, 0
1, 10200, Note_on_c, 1, 69, 0
1, 10200, Note_on_c, 0, 67, 0
1, 10200, Note_on_c, 9, 46, 0
1, 10200, Note_on_c, 0, 65, 100
1, 10200, Note_on_c, 0, 43, 100
1, 10200, Note_on_c, 1, 70, 100
1, 10200, Note_on_c, 1, 74, 100
1, 10200, Note_on_c, 2, 43, 100
1, 10200, Note_on_c, 9, 36, 100
1, 10200, Note_on_c, 9, 38, 100
1, 10200, Note_on_c, 9, 46, 100
1, 10260, Note_on_c, 9, 46, 0
1, 10260, Note_on_c, 3, 79, 0
1, 10260, Note_on_c, 2, 43, 0
1, 10260, Note_on_c, 1, 70, 0
1, 10260, Note_on_c, 0, 65, 0
1, 10260, Note_on_c, 0, 43, 0
1, 10260, Note_on_c, 1, 74, 0
1, 10260, Note_on_c, 0, 67, 100
1, 10260, Note_on_c, 0, 55, 100
1, 10260, Note_on_c, 3, 79, 100
1, 10260, Note_on_c, 9, 46, 100
1, 10290, Note_on_c, 3, 79, 0
1, 10290, Note_on_c, 3, 82, 100
1, 10320, Note_on_c, 9, 38, 0
1, 10320, Note_on_c, 0, 55, 0
1, 10320, Note_on_c, 0, 67, 0
1, 10320, Note_on_c, 9, 36, 0
1, 10320, Note_on_c, 9, 46, 0
1, 10320, Note_on_c, 0, 74, 100
1, 10320, Note_on_c, 0, 69, 100
1, 10320, Note_on_c, 0, 43, 100
1, 10320, Note_on_c, 1, 69, 100
1, 10320, Note_on_c, 2, 43, 100
1, 10320, Note_on_c, 9, 36, 100
1, 10320, Note_on_c, 9, 46, 100
1, 10350, Note_on_c, 1, 69, 0
1, 10350, Note_on_c, 0, 69, 0
1, 10350, Note_on_c, 0, 70, 100
1, 10350, Note_on_c, 1, 70, 100
1, 10380, Note_on_c, 1, 70, 0
1, 10380, Note_on_c, 2, 43, 0
1, 10380, Note_on_c, 9, 46, 0
1, 10380, Note_on_c, 0, 43, 0
1, 10380, Note_on_c, 9, 36, 0
1, 10380, Note_on_c, 0, 55, 100
1, 10380, Note_on_c, 1, 67, 100
1, 10380, Note_on_c, 2, 43, 100
1, 10380, Note_on_c, 9, 36, 100
1, 10380, Note_on_c, 9, 46, 100
1, 10410, Note_on_c, 9, 36, 0
1, 10410, Note_on_c, 0, 74, 0
1, 10410, Note_on_c, 1, 67, 0
1, 10410, Note_on_c, 0, 70, 0
1, 10410, Note_on_c, 2, 43, 0
1, 10410, Note_on_c, 0, 74, 100
1, 10410, Note_on_c, 0, 67, 100
1, 10410, Note_on_c, 1, 65, 100
1, 10410, Note_on_c, 2, 43, 100
1, 10410, Note_on_c, 9, 36, 100
1, 10440, Note_on_c, 9, 36, 0
1, 10440, Note_on_c, 2, 43, 0
1, 10440, Note_on_c, 9, 46, 0
1, 10440, Note_on_c, 0, 55, 0
1, 10440, Note_on_c, 3, 82, 0
1, 10440, Note_on_c, 1, 65, 0
1, 10440, Note_on_c, 0, 43, 100
1, 10440, Note_on_c, 1, 62, 100
1, 10440, Note_on_c, 2, 43, 100
1, 10440, Note_on_c, 9, 36, 100
1, 10440, Note_on_c, 9, 40, 100
1, 10440, Note_on_c, 9, 46, 100
1, 10470, Note_on_c, 1, 62, 0
1, 10470, Note_on_c, 0, 74, 0
1, 10470, Note_on_c, 0, 67, 0
1, 10470, Note_on_c, 0, 65, 100
1, 10470, Note_on_c, 1, 65, 100
1, 10500, Note_on_c, 1, 65, 0
1, 10500, Note_on_c, 9, 46, 0
1, 10500, Note_on_c, 0, 43, 0
1, 10500, Note_on_c, 2, 43, 0
1, 10500, Note_on_c, 0, 65, 0
1, 10500, Note_on_c, 0, 62, 100
1, 10500, Note_on_c, 0, 55, 100
1, 10500, Note_on_c, 1, 67, 100
1, 10500, Note_on_c, 9, 46, 100
1, 10530, Note_on_c, 0, 62, 0
1, 10560, Note_on_c, 9, 40, 0
1, 10560, Note_on_c, 0, 55, 0
1, 10560, Note_on_c, 9, 36, 0
1, 10560, Note_on_c, 9, 46, 0
1, 10560, Note_on_c, 1, 67, 0
1, 10560, Note_on_c, 0, 43, 100
1, 10560, Note_on_c, 2, 43, 100
1, 10560, Note_on_c, 3, 77, 100
1, 10560, Note_on_c, 9, 36, 100
1, 10560, Note_on_c, 9, 46, 100
1, 10620, Note_on_c, 9, 46, 0
1, 10620, Note_on_c, 3, 77, 0
1, 10620, Note_on_c, 0, 43, 0
1, 10620, Note_on_c, 2, 43, 0
1, 10620, Note_on_c, 9, 36, 0
1, 10620, Note_on_c, 0, 67, 100
1, 10620, Note_on_c, 0, 55, 100
1, 10620, Note_on_c, 1, 69, 100
1, 10620, Note_on_c, 1, 73, 100
1, 10620, Note_on_c, 3, 79, 100
1, 10620, Note_on_c, 9, 36, 100
1, 10620, Note_on_c, 9, 46, 100
1, 10650, Note_on_c, 3, 79, 0
1, 10650, Note_on_c, 3, 82, 100
1, 10680, Note_on_c, 9, 36, 0
1, 10680, Note_on_c, 1, 73, 0
1, 10680, Note_on_c, 0, 55, 0
1, 10680, Note_on_c, 1, 69, 0
1, 10680, Note_on_c, 0, 67, 0
1, 10680, Note_on_c, 9, 46, 0
1, 10680, Note_on_c, 0, 65, 100
1, 10680, Note_on_c, 0, 43, 100
1, 10680, Note_on_c, 1, 70, 100
1, 10680, Note_on_c, 1, 74, 100
1, 10680, Note_on_c, 2, 43, 100
1, 10680, Note_on_c, 9, 36, 100
1, 10680, Note_on_c, 9, 38, 100
1, 10680, Note_on_c, 9, 46, 100
1, 10740, Note_on_c, 9, 46, 0
1, 10740, Note_on_c, 3, 82, 0
1, 10740, Note_on_c, 2, 43, 0
1, 10740, Note_on_c, 1, 70, 0
1, 10740, Note_on_c, 0, 65, 0
1, 10740, Note_on_c, 0, 43, 0
1, 10740, Note_on_c, 1, 74, 0
1, 10740, Note_on_c, 0, 67, 100
1, 10740, Note_on_c, 0, 55, 100
1, 10740, Note_on_c, 3, 77, 100
1, 10740, Note_on_c, 9, 46, 100
1, 10800, Note_on_c, 9, 46, 0
1, 10800, Note_on_c, 9, 38, 0
1, 10800, Note_on_c, 0, 67, 0
1, 10800, Note_on_c, 9, 36, 0
1, 10800, Note_on_c, 3, 77, 0
1, 10800, Note_on_c, 0, 55, 0
1, 10800, Note_on_c, 0, 74, 100
1, 10800, Note_on_c, 0, 69, 100
1, 10800, Note_on_c, 0, 43, 100
1, 10800, Note_on_c, 1, 69, 100
1, 10800, Note_on_c, 2, 43, 100
1, 10800, Note_on_c, 3, 82, 100
1, 10800, Note_on_c, 9, 36, 100
1, 10800, Note_on_c, 9, 46, 100
1, 10830, Note_on_c, 3, 82, 0
1, 10830, Note_on_c, 0, 69, 0
1, 10830, Note_on_c, 1, 69, 0
1, 10830, Note_on_c, 0, 70, 100
1, 10830, Note_on_c, 1, 70, 100
1, 10830, Note_on_c, 3, 82, 100
1, 10860, Note_on_c, 1, 70, 0
1, 10860, Note_on_c, 9, 46, 0
1, 10860, Note_on_c, 9, 36, 0
1, 10860, Note_on_c, 2, 43, 0
1, 10860, Note_on_c, 0, 43, 0
1, 10860, Note_on_c, 0, 55, 100
1, 10860, Note_on_c, 1, 67, 100
1, 10860, Note_on_c, 2, 43, 100
1, 10860, Note_on_c, 9, 36, 100
1, 10860, Note_on_c, 9, 46, 100
1, 10890, Note_on_c, 9, 36, 0
1, 10890, Note_on_c, 3, 82, 0
1, 10890, Note_on_c, 1, 67, 0
1, 10890, Note_on_c, 0, 74, 0
1, 10890, Note_on_c, 0, 70, 0
1, 10890, Note_on_c, 2, 43, 0
1, 10890, Note_on_c, 0, 74, 100
1, 10890, Note_on_c, 0, 67, 100
1, 10890, Note_on_c, 1, 65, 100
1, 10890, Note_on_c, 2, 43, 100
1, 10890, Note_on_c, 3, 82, 100
1, 10890, Note_on_c, 9, 36, 100
1, 10920, Note_on_c, 9, 36, 0
1, 10920, Note_on_c, 2, 43, 0
1, 10920, Note_on_c, 9, 46, 0
1, 10920, Note_on_c, 0, 55, 0
1, 10920, Note_on_c, 1, 65, 0
1, 10920, Note_on_c, 0, 43, 100
1, 10920, Note_on_c, 1, 62, 100
1, 10920, Note_on_c, 2, 43, 100
1, 10920, Note_on_c, 9, 36, 100
1, 10920, Note_on_c, 9, 40, 100
1, 10920, Note_on_c, 9, 46, 100
1, 10950, Note_on_c, 1, 62, 0
1, 10950, Note_on_c, 0, 67, 0
1, 10950, Note_on_c, 0, 74, 0
1, 10950, Note_on_c, 0, 65, 100
1, 10950, Note_on_c, 1, 65, 100
1, 10980, Note_on_c, 1, 65, 0
1, 10980, Note_on_c, 0, 65, 0
1, 10980, Note_on_c, 2, 43, 0
1, 10980, Note_on_c, 3, 82, 0
1, 10980, Note_on_c, 0, 43, 0
1, 10980, Note_on_c, 9, 46, 0
1, 10980, Note_on_c, 0, 62, 100
1, 10980, Note_on_c, 0, 55, 100
1, 10980, Note_on_c, 1, 67, 100
1, 10980, Note_on_c, 9, 46, 100
1, 11010, Note_on_c, 0, 62, 0
1, 11040, Note_on_c, 9, 40, 0
1, 11040, Note_on_c, 0, 55, 0
1, 11040, Note_on_c, 9, 36, 0
1, 11040, Note_on_c, 9, 46, 0
1, 11040, Note_on_c, 1, 67, 0
1, 11040, Note_on_c, 0, 43, 100
1, 11040, Note_on_c, 2, 43, 100
1, 11040, Note_on_c, 3, 77, 100
1, 11040, Note_on_c, 9, 36, 100
1, 11040, Note_on_c, 9, 46, 100
1, 11070, Note_on_c, 3, 77, 0
1, 11070, Note_on_c, 3, 79, 100
1, 11100, Note_on_c, 3, 79, 0
1, 11100, Note_on_c, 9, 46, 0
1, 11100, Note_on_c, 0, 43, 0
1, 11100, Note_on_c, 2, 43, 0
1, 11100, Note_on_c, 9, 36, 0
1, 11100, Note_on_c, 0, 67, 100
1, 11100, Note_on_c, 0, 55, 100
1, 11100, Note_on_c, 1, 69, 100
1, 11100, Note_on_c, 1, 73, 100
1, 11100, Note_on_c, 3, 79, 100
1, 11100, Note_on_c, 9, 36, 100
1, 11100, Note_on_c, 9, 46, 100
1, 11130, Note_on_c, 3, 79, 0
1, 11130, Note_on_c, 3, 79, 100
1, 11160, Note_on_c, 3, 79, 0
1, 11160, Note_on_c, 9, 46, 0
1, 11160, Note_on_c, 0, 55, 0
1, 11160, Note_on_c, 1, 69, 0
1, 11160, Note_on_c, 0, 67, 0
1, 11160, Note_on_c, 9, 36, 0
1, 11160, Note_on_c, 1, 73, 0
1, 11160, Note_on_c, 0, 65, 100
1, 11160, Note_on_c, 0, 43, 100
1, 11160, Note_on_c, 1, 70, 100
1, 11160, Note_on_c, 1, 74, 100
1, 11160, Note_on_c, 2, 43, 100
1, 11160, Note_on_c, 3, 82, 100
1, 11160, Note_on_c, 9, 36, 100
1, 11160, Note_on_c, 9, 38, 100
1, 11160, Note_on_c, 9, 46, 100
1, 11190, Note_on_c, 3, 82, 0
1, 11190, Note_on_c, 3, 82, 100
1, 11220, Note_on_c, 0, 65, 0
1, 11220, Note_on_c, 9, 46, 0
1, 11220, Note_on_c, 1, 74, 0
1, 11220, Note_on_c, 1, 70, 0
1, 11220, Note_on_c, 0, 43, 0
1, 11220, Note_on_c, 2, 43, 0
1, 11220, Note_on_c, 0, 67, 100
1, 11220, Note_on_c, 0, 55, 100
1, 11220, Note_on_c, 9, 46, 100
1, 11250, Note_on_c, 3, 82, 0
1, 11250, Note_on_c, 3, 82, 100
1, 11280, Note_on_c, 9, 38, 0
1, 11280, Note_on_c, 0, 55, 0
1, 11280, Note_on_c, 0, 67, 0
1, 11280, Note_on_c, 9, 36, 0
1, 11280, Note_on_c, 9, 46, 0
1, 11280, Note_on_c, 0, 74, 100
1, 11280, Note_on_c, 0, 69, 100
1, 11280, Note_on_c, 0, 43, 100
1, 11280, Note_on_c, 1, 69, 100
1, 11280, Note_on_c, 2, 43, 100
1, 11280, Note_on_c, 9, 36, 100
1, 11280, Note_on_c, 9, 46, 100
1, 11310, Note_on_c, 1, 69, 0
1, 11310, Note_on_c, 0, 69, 0
1, 11310, Note_on_c, 0, 70, 100
1, 11310, Note_on_c, 1, 70, 100
1, 11340, Note_on_c, 1, 70, 0
1, 11340, Note_on_c, 2, 43, 0
1, 11340, Note_on_c, 9, 46, 0
1, 11340, Note_on_c, 3, 82, 0
1, 11340, Note_on_c, 0, 43, 0
1, 11340, Note_on_c, 9, 36, 0
1, 11340, Note_on_c, 0, 55, 100
1, 11340, Note_on_c, 1, 67, 100
1, 11340, Note_on_c, 2, 43, 100
1, 11340, Note_on_c, 9, 36, 100
1, 11340, Note_on_c, 9, 46, 100
1, 11370, Note_on_c, 9, 36, 0
1, 11370, Note_on_c, 1, 67, 0
1, 11370, Note_on_c, 0, 70, 0
1, 11370, Note_on_c, 0, 74, 0
1, 11370, Note_on_c, 2, 43, 0
1, 11370, Note_on_c, 0, 74, 100
1, 11370, Note_on_c, 0, 67, 100
1, 11370, Note_on_c, 1, 65, 100
1, 11370, Note_on_c, 2, 43, 100
1, 11370, Note_on_c, 9, 36, 100
1, 11400, Note_on_c, 9, 36, 0
1, 11400, Note_on_c, 1, 65, 0
1, 11400, Note_on_c, 9, 46, 0
1, 11400, Note_on_c, 0, 55, 0
1, 11400, Note_on_c, 2, 43, 0
1, 11400, Note_on_c, 0, 43, 100
1, 11400, Note_on_c, 1, 62, 100
1, 11400, Note_on_c, 2, 43, 100
1, 11400, Note_on_c, 3, 77, 100
1, 11400, Note_on_c, 9, 36, 100
1, 11400, Note_on_c, 9, 40, 100
1, 11400, Note_on_c, 9, 46, 100
1, 11420, Note_on_c, 3, 77, 0
1, 11420, Note_on_c, 3, 79, 100
1, 11430, Note_on_c, 0, 67, 0
1, 11430, Note_on_c, 0, 74, 0
1, 11430, Note_on_c, 1, 62, 0
1, 11430, Note_on_c, 0, 65, 100
1, 11430, Note_on_c, 1, 65, 100
1, 11440, Note_on_c, 3, 79, 0
1, 11440, Note_on_c, 3, 79, 100
1, 11460, Note_on_c, 3, 79, 0
1, 11460, Note_on_c, 1, 65, 0
1, 11460, Note_on_c, 0, 43, 0
1, 11460, Note_on_c, 9, 46, 0
1, 11460, Note_on_c, 2, 43, 0
1, 11460, Note_on_c, 0, 65, 0
1, 11460, Note_on_c, 0, 62, 100
1, 11460, Note_on_c, 0, 55, 100
1, 11460, Note_on_c, 1, 67, 100
1, 11460, Note_on_c, 3, 79, 100
1, 11460, Note_on_c, 9, 46, 100
1, 11490, Note_on_c, 0, 62, 0
1, 11520, Note_on_c, 3, 79, 0
1, 11520, Note_on_c, 9, 36, 0
1, 11520, Note_on_c, 0, 55, 0
1, 11520, Note_on_c, 9, 40, 0
1, 11520, Note_on_c, 9, 46, 0
1, 11520, Note_on_c, 1, 67, 0
1, 11520, Note_on_c, 0, 43, 100
1, 11520, Note_on_c, 2, 43, 100
1, 11520, Note_on_c, 9, 36, 100
1, 11520, Note_on_c, 9, 46, 100
1, 11580, Note_on_c, 9, 46, 0
1, 11580, Note_on_c, 0, 43, 0
1, 11580, Note_on_c, 2, 43, 0
1, 11580, Note_on_c, 9, 36, 0
1, 11580, Note_on_c, 0, 67, 100
1, 11580, Note_on_c, 0, 55, 100
1, 11580, Note_on_c, 1, 69, 100
1, 11580, Note_on_c, 1, 73, 100
1, 11580, Note_on_c, 3, 82, 100
1, 11580, Note_on_c, 9, 36, 100
1, 11580, Note_on_c, 9, 46, 100
1, 11610, Note_on_c, 3, 82, 0
1, 11610, Note_on_c, 3, 84, 100
1, 11640, Note_on_c, 3, 84, 0
1, 11640, Note_on_c, 9, 46, 0
1, 11640, Note_on_c, 0, 55, 0
1, 11640, Note_on_c, 1, 69, 0
1, 11640, Note_on_c, 0, 67, 0
1, 11640, Note_on_c, 9, 36, 0
1, 11640, Note_on_c, 1, 73, 0
1, 11640, Note_on_c, 0, 65, 100
1, 11640, Note_on_c, 0, 43, 100
1, 11640, Note_on_c, 1, 70, 100
1, 11640, Note_on_c, 1, 74, 100
1, 11640, Note_on_c, 2, 43, 100
1, 11640, Note_on_c, 3, 82, 100
1, 11640, Note_on_c, 9, 36, 100
1, 11640, Note_on_c, 9, 38, 100
1, 11640, Note_on_c, 9, 46, 100
1, 11700, Note_on_c, 9, 46, 0
1, 11700, Note_on_c, 0, 65, 0
1, 11700, Note_on_c, 2, 43, 0
1, 11700, Note_on_c, 1, 74, 0
1, 11700, Note_on_c, 1, 70, 0
1, 11700, Note_on_c, 0, 43, 0
1, 11700, Note_on_c, 0, 67, 100
1, 11700, Note_on_c, 0, 55, 100
1, 11700, Note_on_c, 9, 46, 100
1, 11760, Note_on_c, 9, 46, 0
1, 11760, Note_on_c, 9, 36, 0
1, 11760, Note_on_c, 9, 38, 0
1, 11760, Note_on_c, 3, 82, 0
1, 11760, Note_on_c, 0, 55, 0
1, 11760, Note_on_c, 0, 67, 0
1, 11760, Note_on_c, 0, 74, 100
1, 11760, Note_on_c, 0, 69, 100
1, 11760, Note_on_c, 0, 43, 100
1, 11760, Note_on_c, 1, 69, 100
1, 11760, Note_on_c, 2, 43, 100
1, 11760, Note_on_c, 9, 36, 100
1, 11760, Note_on_c, 9, 46, 100
1, 11790, Note_on_c, 1, 69, 0
1, 11790, Note_on_c, 0, 69, 0
1, 11790, Note_on_c, 0, 70, 100
1, 11790, Note_on_c, 1, 70, 100
1, 11820, Note_on_c, 1, 70, 0
1, 11820, Note_on_c, 9, 46, 0
1, 11820, Note_on_c, 9, 36, 0
1, 11820, Note_on_c, 2, 43, 0
1, 11820, Note_on_c, 0, 43, 0
1, 11820, Note_on_c, 0, 55, 100
1, 11820, Note_on_c, 1, 67, 100
1, 11820, Note_on_c, 2, 43, 100
1, 11820, Note_on_c, 9, 36, 100
1, 11820, Note_on_c, 9, 46, 100
1, 11850, Note_on_c, 9, 36, 0
1, 11850, Note_on_c, 1, 67, 0
1, 11850, Note_on_c, 0, 70, 0
1, 11850, Note_on_c, 0, 74, 0
1, 11850, Note_on_c, 2, 43, 0
1, 11850, Note_on_c, 0, 74, 100
1, 11850, Note_on_c, 0, 67, 100
1, 11850, Note_on_c, 1, 65, 100
1, 11850, Note_on_c, 2, 43, 100
1, 11850, Note_on_c, 9, 36, 100
1, 11880, Note_on_c, 9, 36, 0
1, 11880, Note_on_c, 1, 65, 0
1, 11880, Note_on_c, 9, 46, 0
1, 11880, Note_on_c, 0, 55, 0
1, 11880, Note_on_c, 2, 43, 0
1, 11880, Note_on_c, 0, 43, 100
1, 11880, Note_on_c, 1, 62, 100
1, 11880, Note_on_c, 2, 43, 100
1, 11880, Note_on_c, 3, 77, 100
1, 11880, Note_on_c, 9, 36, 100
1, 11880, Note_on_c, 9, 40, 100
1, 11880, Note_on_c, 9, 46, 100
1, 11900, Note_on_c, 3, 77, 0
1, 11900, Note_on_c, 3, 79, 100
1, 11910, Note_on_c, 0, 67, 0
1, 11910, Note_on_c, 0, 74, 0
1, 11910, Note_on_c, 1, 62, 0
1, 11910, Note_on_c, 0, 65, 100
1, 11910, Note_on_c, 1, 65, 100
1, 11920, Note_on_c, 3, 79, 0
1, 11920, Note_on_c, 3, 79, 100
1, 11940, Note_on_c, 3, 79, 0
1, 11940, Note_on_c, 1, 65, 0
1, 11940, Note_on_c, 0, 43, 0
1, 11940, Note_on_c, 9, 46, 0
1, 11940, Note_on_c, 2, 43, 0
1, 11940, Note_on_c, 0, 65, 0
1, 11940, Note_on_c, 0, 62, 100
1, 11940, Note_on_c, 0, 55, 100
1, 11940, Note_on_c, 1, 67, 100
1, 11940, Note_on_c, 3, 79, 100
1, 11940, Note_on_c, 9, 46, 100
1, 11970, Note_on_c, 0, 62, 0
1, 12000, Note_on_c, 9, 36, 0
1, 12000, Note_on_c, 1, 67, 0
1, 12000, Note_on_c, 0, 55, 0
1, 12000, Note_on_c, 9, 40, 0
1, 12000, Note_on_c, 9, 46, 0
1, 12000, Note_on_c, 0, 43, 100
1, 12000, Note_on_c, 2, 43, 100
1, 12000, Note_on_c, 9, 36, 100
1, 12000, Note_on_c, 9, 46, 100
1, 12060, Note_on_c, 9, 46, 0
1, 12060, Note_on_c, 2, 43, 0
1, 12060, Note_on_c, 3, 79, 0
1, 12060, Note_on_c, 0, 43, 0
1, 12060, Note_on_c, 9, 36, 0
1, 12060, Note_on_c, 0, 67, 100
1, 12060, Note_on_c, 0, 55, 100
1, 12060, Note_on_c, 1, 69, 100
1, 12060, Note_on_c, 1, 73, 100
1, 12060, Note_on_c, 3, 82, 100
1, 12060, Note_on_c, 9, 36, 100
1, 12060, Note_on_c, 9, 46, 100
1, 12090, Note_on_c, 3, 82, 0
1, 12090, Note_on_c, 3, 84, 100
1, 12120, Note_on_c, 3, 84, 0
1, 12120, Note_on_c, 9, 46, 0
1, 12120, Note_on_c, 0, 55, 0
1, 12120, Note_on_c, 1, 69, 0
1, 12120, Note_on_c, 0, 67, 0
1, 12120, Note_on_c, 9, 36, 0
1, 12120, Note_on_c, 1, 73, 0
1, 12120, Note_on_c, 0, 65, 100
1, 12120, Note_on_c, 0, 43, 100
1, 12120, Note_on_c, 1, 70, 100
1, 12120, Note_on_c, 1, 74, 100
1, 12120, Note_on_c, 2, 43, 100
1, 12120, Note_on_c, 3, 82, 100
1, 12120, Note_on_c, 9, 36, 100
1, 12120, Note_on_c, 9, 38, 100
1, 12120, Note_on_c, 9, 46, 100
1, 12180, Note_on_c, 9, 46, 0
1, 12180, Note_on_c, 0, 65, 0
1, 12180, Note_on_c, 2, 43, 0
1, 12180, Note_on_c, 1, 74, 0
1, 12180, Note_on_c, 1, 70, 0
1, 12180, Note_on_c, 0, 43, 0
1, 12180, Note_on_c, 0, 67, 100
1, 12180, Note_on_c, 0, 55, 100
1, 12180, Note_on_c, 9, 46, 100
1, 12240, Note_on_c, 9, 46, 0
1, 12240, Note_on_c, 9, 36, 0
1, 12240, Note_on_c, 9, 38, 0
1, 12240, Note_on_c, 3, 82, 0
1, 12240, Note_on_c, 0, 55, 0
1, 12240, Note_on_c, 0, 67, 0
1, 12240, Note_on_c, 0, 74, 100
1, 12240, Note_on_c, 0, 69, 100
1, 12240, Note_on_c, 0, 43, 100
1, 12240, Note_on_c, 1, 69, 100
1, 12240, Note_on_c, 2, 43, 100
1, 12240, Note_on_c, 9, 36, 100
1, 12240, Note_on_c, 9, 46, 100
1, 12270, Note_on_c, 1, 69, 0
1, 12270, Note_on_c, 0, 69, 0
1, 12270, Note_on_c, 0, 70, 100
1, 12270, Note_on_c, 1, 70, 100
1, 12300, Note_on_c, 1, 70, 0
1, 12300, Note_on_c, 9, 46, 0
1, 12300, Note_on_c, 9, 36, 0
1, 12300, Note_on_c, 2, 43, 0
1, 12300, Note_on_c, 0, 43, 0
1, 12300, Note_on_c, 0, 55, 100
1, 12300, Note_on_c, 1, 67, 100
1, 12300, Note_on_c, 2, 43, 100
1, 12300, Note_on_c, 9, 36, 100
1, 12300, Note_on_c, 9, 46, 100
1, 12330, Note_on_c, 9, 36, 0
1, 12330, Note_on_c, 1, 67, 0
1, 12330, Note_on_c, 0, 70, 0
1, 12330, Note_on_c, 0, 74, 0
1, 12330, Note_on_c, 2, 43, 0
1, 12330, Note_on_c, 0, 74, 100
1, 12330, Note_on_c, 0, 67, 100
1, 12330, Note_on_c, 1, 65, 100
1, 12330, Note_on_c, 2, 43, 100
1, 12330, Note_on_c, 9, 36, 100
1, 12360, Note_on_c, 9, 36, 0
1, 12360, Note_on_c, 1, 65, 0
1, 12360, Note_on_c, 9, 46, 0
1, 12360, Note_on_c, 0, 55, 0
1, 12360, Note_on_c, 2, 43, 0
1, 12360, Note_on_c, 0, 43, 100
1, 12360, Note_on_c, 1, 62, 100
1, 12360, Note_on_c, 2, 43, 100
1, 12360, Note_on_c, 3, 77, 100
1, 12360, Note_on_c, 9, 36, 100
1, 12360, Note_on_c, 9, 40, 100
1, 12360, Note_on_c, 9, 46, 100
1, 12380, Note_on_c, 3, 77, 0
1, 12380, Note_on_c, 3, 79, 100
1, 12390, Note_on_c, 0, 67, 0
1, 12390, Note_on_c, 0, 74, 0
1, 12390, Note_on_c, 1, 62, 0
1, 12390, Note_on_c, 0, 65, 100
1, 12390, Note_on_c, 1, 65, 100
1, 12400, Note_on_c, 3, 79, 0
1, 12400, Note_on_c, 3, 79, 100
1, 12420, Note_on_c, 3, 79, 0
1, 12420, Note_on_c, 1, 65, 0
1, 12420, Note_on_c, 0, 43, 0
1, 12420, Note_on_c, 9, 46, 0
1, 12420, Note_on_c, 2, 43, 0
1, 12420, Note_on_c, 0, 65, 0
1, 12420, Note_on_c, 0, 62, 100
1, 12420, Note_on_c, 0, 55, 100
1, 12420, Note_on_c, 1, 67, 100
1, 12420, Note_on_c, 3, 79, 100
1, 12420, Note_on_c, 9, 46, 100
1, 12450, Note_on_c, 0, 62, 0
1, 12480, Note_on_c, 3, 79, 0
1, 12480, Note_on_c, 9, 36, 0
1, 12480, Note_on_c, 0, 55, 0
1, 12480, Note_on_c, 9, 40, 0
1, 12480, Note_on_c, 9, 46, 0
1, 12480, Note_on_c, 1, 67, 0
1, 12480, Note_on_c, 0, 46, 100
1, 12480, Note_on_c, 0, 65, 100
1, 12480, Note_on_c, 0, 74, 100
1, 12480, Note_on_c, 0, 70, 100
1, 12480, Note_on_c, 1, 74, 100
1, 12480, Note_on_c, 2, 46, 100
1, 12480, Note_on_c, 9, 36, 100
1, 12480, Note_on_c, 9, 49, 100
1, 12510, Note_on_c, 1, 74, 0
1, 12510, Note_on_c, 1, 74, 100
1, 12540, Note_on_c, 9, 49, 0
1, 12540, Note_on_c, 9, 36, 0
1, 12540, Note_on_c, 9, 36, 100
1, 12540, Note_on_c, 9, 46, 100
1, 12570, Note_on_c, 1, 82, 100
1, 12600, Note_on_c, 9, 46, 0
1, 12600, Note_on_c, 9, 36, 0
1, 12600, Note_on_c, 9, 40, 100
1, 12600, Note_on_c, 9, 46, 100
1, 12630, Note_on_c, 1, 82, 0
1, 12630, Note_on_c, 1, 82, 100
1, 12660, Note_on_c, 1, 82, 0
1, 12660, Note_on_c, 9, 46, 0
1, 12660, Note_on_c, 0, 46, 0
1, 12660, Note_on_c, 0, 46, 100
1, 12660, Note_on_c, 1, 74, 100
1, 12660, Note_on_c, 9, 46, 100
1, 12690, Note_on_c, 9, 40, 0
1, 12690, Note_on_c, 9, 38, 100
1, 12720, Note_on_c, 9, 38, 0
1, 12720, Note_on_c, 1, 74, 0
1, 12720, Note_on_c, 1, 74, 0
1, 12720, Note_on_c, 2, 46, 0
1, 12720, Note_on_c, 0, 74, 0
1, 12720, Note_on_c, 0, 70, 0
1, 12720, Note_on_c, 9, 46, 0
1, 12720, Note_on_c, 0, 46, 0
1, 12720, Note_on_c, 0, 65, 0
1, 12720, Note_on_c, 0, 48, 100
1, 12720, Note_on_c, 0, 76, 100
1, 12720, Note_on_c, 0, 72, 100
1, 12720, Note_on_c, 0, 67, 100
1, 12720, Note_on_c, 1, 74, 100
1, 12720, Note_on_c, 2, 48, 100
1, 12720, Note_on_c, 9, 36, 100
1, 12720, Note_on_c, 9, 49, 100
1, 12750, Note_on_c, 1, 74, 0
1, 12750, Note_on_c, 1, 76, 100
1, 12780, Note_on_c, 9, 49, 0
1, 12780, Note_on_c, 9, 36, 0
1, 12780, Note_on_c, 9, 36, 100
1, 12780, Note_on_c, 9, 42, 100
1, 12810, Note_on_c, 1, 84, 100
1, 12840, Note_on_c, 9, 42, 0
1, 12840, Note_on_c, 9, 36, 0
1, 12840, Note_on_c, 1, 76, 0
1, 12840, Note_on_c, 1, 76, 100
1, 12840, Note_on_c, 9, 38, 100
1, 12840, Note_on_c, 9, 42, 100
1, 12870, Note_on_c, 1, 84, 0
1, 12870, Note_on_c, 1, 84, 100
1, 12900, Note_on_c, 1, 84, 0
1, 12900, Note_on_c, 9, 42, 0
1, 12900, Note_on_c, 0, 48, 0
1, 12900, Note_on_c, 0, 48, 100
1, 12900, Note_on_c, 1, 76, 100
1, 12900, Note_on_c, 9, 42, 100
1, 12930, Note_on_c, 9, 38, 0
1, 12930, Note_on_c, 9, 38, 100
1, 12960, Note_on_c, 9, 38, 0
1, 12960, Note_on_c, 1, 76, 0
1, 12960, Note_on_c, 0, 76, 0
1, 12960, Note_on_c, 1, 76, 0
1, 12960, Note_on_c, 0, 72, 0
1, 12960, Note_on_c, 0, 67, 0
1, 12960, Note_on_c, 9, 42, 0
1, 12960, Note_on_c, 0, 48, 0
1, 12960, Note_on_c, 2, 48, 0
1, 12960, Note_on_c, 0, 51, 100
1, 12960, Note_on_c, 0, 67, 100
1, 12960, Note_on_c, 0, 70, 100
1, 12960, Note_on_c, 0, 75, 100
1, 12960, Note_on_c, 1, 77, 100
1, 12960, Note_on_c, 2, 51, 100
1, 12960, Note_on_c, 9, 36, 100
1, 12960, Note_on_c, 9, 49, 100
1, 12990, Note_on_c, 1, 77, 0
1, 12990, Note_on_c, 1, 79, 100
1, 13020, Note_on_c, 9, 49, 0
1, 13020, Note_on_c, 9, 36, 0
1, 13020, Note_on_c, 9, 36, 100
1, 13020, Note_on_c, 9, 42, 100
1, 13050, Note_on_c, 1, 87, 100
1, 13080, Note_on_c, 9, 42, 0
1, 13080, Note_on_c, 9, 36, 0
1, 13080, Note_on_c, 9, 40, 100
1, 13080, Note_on_c, 9, 42, 100
1, 13110, Note_on_c, 1, 87, 0
1, 13110, Note_on_c, 1, 87, 100
1, 13140, Note_on_c, 1, 87, 0
1, 13140, Note_on_c, 9, 42, 0
1, 13140, Note_on_c, 1, 79, 100
1, 13140, Note_on_c, 9, 42, 100
1, 13170, Note_on_c, 9, 40, 0
1, 13170, Note_on_c, 9, 40, 100
1, 13200, Note_on_c, 9, 40, 0
1, 13200, Note_on_c, 1, 79, 0
1, 13200, Note_on_c, 0, 51, 0
1, 13200, Note_on_c, 0, 75, 0
1, 13200, Note_on_c, 0, 67, 0
1, 13200, Note_on_c, 0, 70, 0
1, 13200, Note_on_c, 9, 42, 0
1, 13200, Note_on_c, 2, 51, 0
1, 13200, Note_on_c, 1, 79, 0
1, 13200, Note_on_c, 0, 53, 100
1, 13200, Note_on_c, 0, 75, 100
1, 13200, Note_on_c, 0, 69, 100
1, 13200, Note_on_c, 0, 65, 100
1, 13200, Note_on_c, 1, 79, 100
1, 13200, Note_on_c, 2, 53, 100
1, 13200, Note_on_c, 9, 36, 100
1, 13200, Note_on_c, 9, 38, 100
1, 13200, Note_on_c, 9, 49, 100
1, 13230, Note_on_c, 9, 38, 0
1, 13230, Note_on_c, 9, 36, 0
1, 13230, Note_on_c, 1, 79, 0
1, 13230, Note_on_c, 1, 81, 100
1, 13230, Note_on_c, 9, 40, 100
1, 13260, Note_on_c, 9, 40, 0
1, 13260, Note_on_c, 9, 49, 0
1, 13260, Note_on_c, 2, 53, 0
1, 13260, Note_on_c, 2, 53, 100
1, 13260, Note_on_c, 9, 38, 100
1, 13260, Note_on_c, 9, 42, 100
1, 13290, Note_on_c, 0, 53, 0
1, 13290, Note_on_c, 0, 53, 100
1, 13290, Note_on_c, 1, 89, 100
1, 13320, Note_on_c, 9, 42, 0
1, 13320, Note_on_c, 9, 38, 0
1, 13320, Note_on_c, 9, 38, 100
1, 13320, Note_on_c, 9, 42, 100
1, 13350, Note_on_c, 1, 89, 0
1, 13350, Note_on_c, 0, 53, 0
1, 13350, Note_on_c, 0, 53, 100
1, 13350, Note_on_c, 1, 89, 100
1, 13380, Note_on_c, 1, 89, 0
1, 13380, Note_on_c, 9, 42, 0
1, 13380, Note_on_c, 0, 53, 0
1, 13380, Note_on_c, 9, 38, 0
1, 13380, Note_on_c, 2, 53, 0
1, 13380, Note_on_c, 0, 53, 100
1, 13380, Note_on_c, 1, 81, 100
1, 13380, Note_on_c, 2, 41, 100
1, 13380, Note_on_c, 9, 38, 100
1, 13380, Note_on_c, 9, 42, 100
1, 13410, Note_on_c, 9, 38, 0
1, 13410, Note_on_c, 9, 40, 100
1, 13440, Note_on_c, 9, 40, 0
1, 13440, Note_on_c, 2, 41, 0
1, 13440, Note_on_c, 0, 69, 0
1, 13440, Note_on_c, 0, 53, 0
1, 13440, Note_on_c, 1, 81, 0
1, 13440, Note_on_c, 0, 75, 0
1, 13440, Note_on_c, 9, 42, 0
1, 13440, Note_on_c, 1, 81, 0
1, 13440, Note_on_c, 0, 65, 0
1, 13440, Note_on_c, 0, 43, 100
1, 13440, Note_on_c, 2, 43, 100
1, 13440, Note_on_c, 9, 36, 100
1, 13500, Note_on_c, 9, 36, 0
1, 13500, Note_on_c, 2, 43, 0
1, 13500, Note_on_c, 0, 43, 0
1, 13500, Note_on_c, 0, 67, 100
1, 13500, Note_on_c, 0, 55, 100
1, 13500, Note_on_c, 1, 86, 100
1, 13500, Note_on_c, 1, 81, 100
1, 13500, Note_on_c, 9, 46, 100
1, 13500, Note_on_c, 9, 36, 100
1, 13560, Note_on_c, 9, 36, 0
1, 13560, Note_on_c, 0, 55, 0
1, 13560, Note_on_c, 1, 86, 0
1, 13560, Note_on_c, 0, 67, 0
1, 13560, Note_on_c, 9, 46, 0
1, 13560, Note_on_c, 1, 81, 0
1, 13560, Note_on_c, 0, 65, 100
1, 13560, Note_on_c, 0, 43, 100
1, 13560, Note_on_c, 1, 86, 100
1, 13560, Note_on_c, 1, 82, 100
1, 13560, Note_on_c, 2, 43, 100
1, 13560, Note_on_c, 9, 46, 100
1, 13560, Note_on_c, 9, 40, 100
1, 13560, Note_on_c, 9, 36, 100
1, 13620, Note_on_c, 9, 46, 0
1, 13620, Note_on_c, 1, 82, 0
1, 13620, Note_on_c, 0, 65, 0
1, 13620, Note_on_c, 0, 43, 0
1, 13620, Note_on_c, 1, 86, 0
1, 13620, Note_on_c, 2, 43, 0
1, 13620, Note_on_c, 0, 67, 100
1, 13620, Note_on_c, 0, 55, 100
1, 13620, Note_on_c, 9, 46, 100
1, 13680, Note_on_c, 9, 46, 0
1, 13680, Note_on_c, 0, 67, 0
1, 13680, Note_on_c, 9, 40, 0
1, 13680, Note_on_c, 9, 36, 0
1, 13680, Note_on_c, 0, 55, 0
1, 13680, Note_on_c, 0, 74, 100
1, 13680, Note_on_c, 0, 69, 100
1, 13680, Note_on_c, 0, 43, 100
1, 13680, Note_on_c, 1, 81, 100
1, 13680, Note_on_c, 2, 43, 100
1, 13680, Note_on_c, 9, 46, 100
1, 13680, Note_on_c, 9, 36, 100
1, 13710, Note_on_c, 1, 81, 0
1, 13710, Note_on_c, 0, 69, 0
1, 13710, Note_on_c, 0, 70, 100
1, 13710, Note_on_c, 1, 82, 100
1, 13740, Note_on_c, 1, 82, 0
1, 13740, Note_on_c, 9, 46, 0
1, 13740, Note_on_c, 2, 43, 0
1, 13740, Note_on_c, 0, 43, 0
1, 13740, Note_on_c, 0, 55, 100
1, 13740, Note_on_c, 1, 79, 100
1, 13740, Note_on_c, 9, 46, 100
1, 13770, Note_on_c, 1, 79, 0
1, 13770, Note_on_c, 0, 74, 0
1, 13770, Note_on_c, 0, 70, 0
1, 13770, Note_on_c, 0, 74, 100
1, 13770, Note_on_c, 0, 67, 100
1, 13770, Note_on_c, 1, 77, 100
1, 13800, Note_on_c, 1, 77, 0
1, 13800, Note_on_c, 9, 46, 0
1, 13800, Note_on_c, 9, 36, 0
1, 13800, Note_on_c, 0, 55, 0
1, 13800, Note_on_c, 0, 43, 100
1, 13800, Note_on_c, 1, 74, 100
1, 13800, Note_on_c, 2, 43, 100
1, 13800, Note_on_c, 9, 46, 100
1, 13800, Note_on_c, 9, 36, 100
1, 13800, Note_on_c, 9, 40, 100
1, 13830, Note_on_c, 1, 74, 0
1, 13830, Note_on_c, 0, 74, 0
1, 13830, Note_on_c, 0, 67, 0
1, 13830, Note_on_c, 0, 65, 100
1, 13830, Note_on_c, 1, 77, 100
1, 13860, Note_on_c, 1, 77, 0
1, 13860, Note_on_c, 0, 43, 0
1, 13860, Note_on_c, 9, 46, 0
1, 13860, Note_on_c, 2, 43, 0
1, 13860, Note_on_c, 0, 65, 0
1, 13860, Note_on_c, 0, 62, 100
1, 13860, Note_on_c, 0, 55, 100
1, 13860, Note_on_c, 1, 79, 100
1, 13860, Note_on_c, 9, 46, 100
1, 13890, Note_on_c, 0, 62, 0
1, 13920, Note_on_c, 9, 40, 0
1, 13920, Note_on_c, 0, 55, 0
1, 13920, Note_on_c, 9, 36, 0
1, 13920, Note_on_c, 9, 46, 0
1, 13920, Note_on_c, 1, 79, 0
1, 13920, Note_on_c, 0, 43, 100
1, 13920, Note_on_c, 2, 43, 100
1, 13920, Note_on_c, 9, 36, 100
1, 13920, Note_on_c, 9, 46, 100
1, 13980, Note_on_c, 9, 46, 0
1, 13980, Note_on_c, 0, 43, 0
1, 13980, Note_on_c, 2, 43, 0
1, 13980, Note_on_c, 9, 36, 0
1, 13980, Note_on_c, 0, 67, 100
1, 13980, Note_on_c, 0, 55, 100
1, 13980, Note_on_c, 1, 86, 100
1, 13980, Note_on_c, 1, 81, 100
1, 13980, Note_on_c, 9, 36, 100
1, 13980, Note_on_c, 9, 46, 100
1, 14040, Note_on_c, 9, 46, 0
1, 14040, Note_on_c, 0, 55, 0
1, 14040, Note_on_c, 1, 86, 0
1, 14040, Note_on_c, 0, 67, 0
1, 14040, Note_on_c, 9, 36, 0
1, 14040, Note_on_c, 1, 81, 0
1, 14040, Note_on_c, 0, 65, 100
1, 14040, Note_on_c, 0, 43, 100
1, 14040, Note_on_c, 1, 86, 100
1, 14040, Note_on_c, 1, 82, 100
1, 14040, Note_on_c, 2, 43, 100
1, 14040, Note_on_c, 9, 40, 100
1, 14040, Note_on_c, 9, 36, 100
1, 14040, Note_on_c, 9, 46, 100
1, 14100, Note_on_c, 9, 46, 0
1, 14100, Note_on_c, 0, 65, 0
1, 14100, Note_on_c, 2, 43, 0
1, 14100, Note_on_c, 1, 82, 0
1, 14100, Note_on_c, 1, 86, 0
1, 14100, Note_on_c, 0, 43, 0
1, 14100, Note_on_c, 0, 67, 100
1, 14100, Note_on_c, 0, 55, 100
1, 14100, Note_on_c, 9, 46, 100
1, 14160, Note_on_c, 9, 46, 0
1, 14160, Note_on_c, 0, 67, 0
1, 14160, Note_on_c, 9, 40, 0
1, 14160, Note_on_c, 9, 36, 0
1, 14160, Note_on_c, 0, 55, 0
1, 14160, Note_on_c, 0, 74, 100
1, 14160, Note_on_c, 0, 69, 100
1, 14160, Note_on_c, 0, 43, 100
1, 14160, Note_on_c, 1, 81, 100
1, 14160, Note_on_c, 2, 43, 100
1, 14160, Note_on_c, 9, 36, 100
1, 14160, Note_on_c, 9, 46, 100
1, 14190, Note_on_c, 1, 81, 0
1, 14190, Note_on_c, 0, 69, 0
1, 14190, Note_on_c, 0, 70, 100
1, 14190, Note_on_c, 1, 82, 100
1, 14220, Note_on_c, 1, 82, 0
1, 14220, Note_on_c, 9, 36, 0
1, 14220, Note_on_c, 2, 43, 0
1, 14220, Note_on_c, 0, 43, 0
1, 14220, Note_on_c, 0, 55, 100
1, 14220, Note_on_c, 1, 79, 100
1, 14220, Note_on_c, 9, 38, 100
1, 14250, Note_on_c, 9, 38, 0
1, 14250, Note_on_c, 0, 74, 0
1, 14250, Note_on_c, 0, 70, 0
1, 14250, Note_on_c, 1, 79, 0
1, 14250, Note_on_c, 0, 74, 100
1, 14250, Note_on_c, 0, 65, 100
1, 14250, Note_on_c, 1, 77, 100
1, 14250, Note_on_c, 9, 40, 100
1, 14280, Note_on_c, 9, 40, 0
1, 14280, Note_on_c, 0, 55, 0
1, 14280, Note_on_c, 9, 46, 0
1, 14280, Note_on_c, 1, 77, 0
1, 14280, Note_on_c, 0, 43, 100
1, 14280, Note_on_c, 1, 74, 100
1, 14280, Note_on_c, 2, 43, 100
1, 14280, Note_on_c, 9, 36, 100
1, 14280, Note_on_c, 9, 38, 100
1, 14310, Note_on_c, 9, 38, 0
1, 14310, Note_on_c, 1, 74, 0
1, 14310, Note_on_c, 0, 65, 0
1, 14310, Note_on_c, 0, 74, 0
1, 14310, Note_on_c, 9, 36, 0
1, 14310, Note_on_c, 0, 72, 100
1, 14310, Note_on_c, 0, 65, 100
1, 14310, Note_on_c, 1, 77, 100
1, 14310, Note_on_c, 9, 40, 100
1, 14340, Note_on_c, 9, 40, 0
1, 14340, Note_on_c, 0, 43, 0
1, 14340, Note_on_c, 2, 43, 0
1, 14340, Note_on_c, 0, 72, 0
1, 14340, Note_on_c, 1, 77, 0
1, 14340, Note_on_c, 0, 70, 100
1, 14340, Note_on_c, 0, 55, 100
1, 14340, Note_on_c, 1, 79, 100
1, 14340, Note_on_c, 9, 38, 100
1, 14370, Note_on_c, 9, 38, 0
1, 14370, Note_on_c, 0, 65, 0
1, 14370, Note_on_c, 0, 70, 0
1, 14370, Note_on_c, 0, 70, 100
1, 14370, Note_on_c, 0, 65, 100
1, 14370, Note_on_c, 9, 38, 100
1, 14400, Note_on_c, 9, 38, 0
1, 14400, Note_on_c, 0, 70, 0
1, 14400, Note_on_c, 1, 79, 0
1, 14400, Note_on_c, 0, 55, 0
1, 14400, Note_on_c, 0, 65, 0
1, 14400, Note_on_c, 0, 43, 100
1, 14400, Note_on_c, 2, 43, 100
1, 14400, Note_on_c, 3, 77, 100
1, 14400, Note_on_c, 9, 36, 100
1, 14400, Note_on_c, 9, 49, 100
1, 14430, Note_on_c, 3, 77, 0
1, 14430, Note_on_c, 3, 79, 100
1, 14460, Note_on_c, 3, 79, 0
1, 14460, Note_on_c, 0, 43, 0
1, 14460, Note_on_c, 2, 43, 0
1, 14460, Note_on_c, 0, 67, 100
1, 14460, Note_on_c, 0, 55, 100
1, 14460, Note_on_c, 1, 69, 100
1, 14460, Note_on_c, 3, 79, 100
1, 14490, Note_on_c, 3, 79, 0
1, 14490, Note_on_c, 3, 79, 100
1, 14520, Note_on_c, 9, 36, 0
1, 14520, Note_on_c, 0, 55, 0
1, 14520, Note_on_c, 0, 67, 0
1, 14520, Note_on_c, 9, 49, 0
1, 14520, Note_on_c, 1, 69, 0
1, 14520, Note_on_c, 0, 65, 100
1, 14520, Note_on_c, 0, 43, 100
1, 14520, Note_on_c, 1, 70, 100
1, 14520, Note_on_c, 2, 43, 100
1, 14520, Note_on_c, 9, 46, 100
1, 14520, Note_on_c, 9, 38, 100
1, 14520, Note_on_c, 9, 36, 100
1, 14550, Note_on_c, 3, 79, 0
1, 14550, Note_on_c, 3, 79, 100
1, 14580, Note_on_c, 2, 43, 0
1, 14580, Note_on_c, 0, 65, 0
1, 14580, Note_on_c, 1, 70, 0
1, 14580, Note_on_c, 0, 43, 0
1, 14580, Note_on_c, 9, 46, 0
1, 14580, Note_on_c, 0, 67, 100
1, 14580, Note_on_c, 0, 55, 100
1, 14580, Note_on_c, 9, 46, 100
1, 14610, Note_on_c, 3, 79, 0
1, 14610, Note_on_c, 3, 82, 100
1, 14640, Note_on_c, 9, 36, 0
1, 14640, Note_on_c, 0, 55, 0
1, 14640, Note_on_c, 0, 67, 0
1, 14640, Note_on_c, 9, 38, 0
1, 14640, Note_on_c, 9, 46, 0
1, 14640, Note_on_c, 0, 74, 100
1, 14640, Note_on_c, 0, 69, 100
1, 14640, Note_on_c, 0, 43, 100
1, 14640, Note_on_c, 1, 69, 100
1, 14640, Note_on_c, 2, 43, 100
1, 14640, Note_on_c, 9, 46, 100
1, 14640, Note_on_c, 9, 36, 100
1, 14670, Note_on_c, 1, 69, 0
1, 14670, Note_on_c, 0, 69, 0
1, 14670, Note_on_c, 3, 82, 0
1, 14670, Note_on_c, 0, 70, 100
1, 14670, Note_on_c, 1, 70, 100
1, 14670, Note_on_c, 3, 82, 100
1, 14700, Note_on_c, 1, 70, 0
1, 14700, Note_on_c, 9, 36, 0
1, 14700, Note_on_c, 9, 46, 0
1, 14700, Note_on_c, 0, 43, 0
1, 14700, Note_on_c, 2, 43, 0
1, 14700, Note_on_c, 0, 55, 100
1, 14700, Note_on_c, 1, 67, 100
1, 14700, Note_on_c, 2, 43, 100
1, 14700, Note_on_c, 9, 46, 100
1, 14700, Note_on_c, 9, 36, 100
1, 14730, Note_on_c, 9, 36, 0
1, 14730, Note_on_c, 2, 43, 0
1, 14730, Note_on_c, 0, 74, 0
1, 14730, Note_on_c, 0, 70, 0
1, 14730, Note_on_c, 1, 67, 0
1, 14730, Note_on_c, 0, 74, 100
1, 14730, Note_on_c, 0, 67, 100
1, 14730, Note_on_c, 1, 65, 100
1, 14730, Note_on_c, 2, 43, 100
1, 14730, Note_on_c, 9, 36, 100
1, 14760, Note_on_c, 9, 36, 0
1, 14760, Note_on_c, 2, 43, 0
1, 14760, Note_on_c, 0, 55, 0
1, 14760, Note_on_c, 9, 46, 0
1, 14760, Note_on_c, 3, 82, 0
1, 14760, Note_on_c, 1, 65, 0
1, 14760, Note_on_c, 0, 43, 100
1, 14760, Note_on_c, 1, 62, 100
1, 14760, Note_on_c, 2, 43, 100
1, 14760, Note_on_c, 5, 84, 100
1, 14760, Note_on_c, 9, 46, 100
1, 14760, Note_on_c, 9, 40, 100
1, 14760, Note_on_c, 9, 36, 100
1, 14775, Note_on_c, 5, 84, 0
1, 14775, Note_on_c, 5, 82, 100
1, 14790, Note_on_c, 5, 82, 0
1, 14790, Note_on_c, 0, 74, 0
1, 14790, Note_on_c, 0, 67, 0
1, 14790, Note_on_c, 1, 62, 0
1, 14790, Note_on_c, 0, 65, 100
1, 14790, Note_on_c, 1, 65, 100
1, 14790, Note_on_c, 5, 79, 100
1, 14820, Note_on_c, 1, 65, 0
1, 14820, Note_on_c, 2, 43, 0
1, 14820, Note_on_c, 0, 43, 0
1, 14820, Note_on_c, 9, 46, 0
1, 14820, Note_on_c, 0, 65, 0
1, 14820, Note_on_c, 0, 62, 100
1, 14820, Note_on_c, 0, 55, 100
1, 14820, Note_on_c, 1, 67, 100
1, 14820, Note_on_c, 9, 46, 100
1, 14850, Note_on_c, 0, 62, 0
1, 14880, Note_on_c, 1, 67, 0
1, 14880, Note_on_c, 9, 40, 0
1, 14880, Note_on_c, 9, 36, 0
1, 14880, Note_on_c, 0, 55, 0
1, 14880, Note_on_c, 9, 46, 0
1, 14880, Note_on_c, 0, 43, 100
1, 14880, Note_on_c, 2, 43, 100
1, 14880, Note_on_c, 3, 77, 100
1, 14880, Note_on_c, 9, 36, 100
1, 14880, Note_on_c, 9, 46, 100
1, 14910, Note_on_c, 3, 77, 0
1, 14910, Note_on_c, 3, 79, 100
1, 14940, Note_on_c, 3, 79, 0
1, 14940, Note_on_c, 9, 46, 0
1, 14940, Note_on_c, 2, 43, 0
1, 14940, Note_on_c, 9, 36, 0
1, 14940, Note_on_c, 0, 43, 0
1, 14940, Note_on_c, 0, 67, 100
1, 14940, Note_on_c, 0, 55, 100
1, 14940, Note_on_c, 1, 69, 100
1, 14940, Note_on_c, 1, 73, 100
1, 14940, Note_on_c, 3, 79, 100
1, 14940, Note_on_c, 9, 36, 100
1, 14940, Note_on_c, 9, 46, 100
1, 15000, Note_on_c, 9, 46, 0
1, 15000, Note_on_c, 9, 36, 0
1, 15000, Note_on_c, 0, 67, 0
1, 15000, Note_on_c, 1, 69, 0
1, 15000, Note_on_c, 0, 55, 0
1, 15000, Note_on_c, 1, 73, 0
1, 15000, Note_on_c, 0, 65, 100
1, 15000, Note_on_c, 0, 43, 100
1, 15000, Note_on_c, 1, 70, 100
1, 15000, Note_on_c, 1, 74, 100
1, 15000, Note_on_c, 2, 43, 100
1, 15000, Note_on_c, 9, 36, 100
1, 15000, Note_on_c, 9, 38, 100
1, 15000, Note_on_c, 9, 46, 100
1, 15060, Note_on_c, 9, 46, 0
1, 15060, Note_on_c, 0, 65, 0
1, 15060, Note_on_c, 2, 43, 0
1, 15060, Note_on_c, 0, 43, 0
1, 15060, Note_on_c, 1, 70, 0
1, 15060, Note_on_c, 1, 74, 0
1, 15060, Note_on_c, 0, 67, 100
1, 15060, Note_on_c, 0, 55, 100
1, 15060, Note_on_c, 9, 46, 100
1, 15080, Note_on_c, 5, 79, 0
1, 15080, Note_on_c, 5, 84, 100
1, 15120, Note_on_c, 5, 84, 0
1, 15120, Note_on_c, 9, 46, 0
1, 15120, Note_on_c, 9, 36, 0
1, 15120, Note_on_c, 3, 79, 0
1, 15120, Note_on_c, 9, 38, 0
1, 15120, Note_on_c, 0, 55, 0
1, 15120, Note_on_c, 0, 67, 0
1, 15120, Note_on_c, 0, 74, 100
1, 15120, Note_on_c, 0, 69, 100
1, 15120, Note_on_c, 0, 43, 100
1, 15120, Note_on_c, 1, 69, 100
1, 15120, Note_on_c, 2, 43, 100
1, 15120, Note_on_c, 3, 79, 100
1, 15120, Note_on_c, 5, 86, 100
1, 15120, Note_on_c, 9, 36, 100
1, 15120, Note_on_c, 9, 46, 100
1, 15150, Note_on_c, 1, 69, 0
1, 15150, Note_on_c, 0, 69, 0
1, 15150, Note_on_c, 0, 70, 100
1, 15150, Note_on_c, 1, 70, 100
1, 15180, Note_on_c, 1, 70, 0
1, 15180, Note_on_c, 9, 36, 0
1, 15180, Note_on_c, 9, 46, 0
1, 15180, Note_on_c, 2, 43, 0
1, 15180, Note_on_c, 0, 43, 0
1, 15180, Note_on_c, 0, 55, 100
1, 15180, Note_on_c, 1, 67, 100
1, 15180, Note_on_c, 2, 43, 100
1, 15180, Note_on_c, 9, 36, 100
1, 15180, Note_on_c, 9, 46, 100
1, 15210, Note_on_c, 9, 36, 0
1, 15210, Note_on_c, 2, 43, 0
1, 15210, Note_on_c, 0, 70, 0
1, 15210, Note_on_c, 0, 74, 0
1, 15210, Note_on_c, 1, 67, 0
1, 15210, Note_on_c, 0, 74, 100
1, 15210, Note_on_c, 0, 67, 100
1, 15210, Note_on_c, 1, 65, 100
1, 15210, Note_on_c, 2, 43, 100
1, 15210, Note_on_c, 9, 36, 100
1, 15240, Note_on_c, 9, 36, 0
1, 15240, Note_on_c, 9, 46, 0
1, 15240, Note_on_c, 2, 43, 0
1, 15240, Note_on_c, 3, 79, 0
1, 15240, Note_on_c, 1, 65, 0
1, 15240, Note_on_c, 0, 55, 0
1, 15240, Note_on_c, 0, 43, 100
1, 15240, Note_on_c, 1, 62, 100
1, 15240, Note_on_c, 2, 43, 100
1, 15240, Note_on_c, 9, 36, 100
1, 15240, Note_on_c, 9, 40, 100
1, 15240, Note_on_c, 9, 46, 100
1, 15270, Note_on_c, 1, 62, 0
1, 15270, Note_on_c, 0, 67, 0
1, 15270, Note_on_c, 0, 74, 0
1, 15270, Note_on_c, 0, 65, 100
1, 15270, Note_on_c, 1, 65, 100
1, 15300, Note_on_c, 1, 65, 0
1, 15300, Note_on_c, 0, 65, 0
1, 15300, Note_on_c, 2, 43, 0
1, 15300, Note_on_c, 9, 46, 0
1, 15300, Note_on_c, 0, 43, 0
1, 15300, Note_on_c, 5, 86, 0
1, 15300, Note_on_c, 0, 62, 100
1, 15300, Note_on_c, 0, 55, 100
1, 15300, Note_on_c, 1, 67, 100
1, 15300, Note_on_c, 5, 84, 100
1, 15300, Note_on_c, 9, 46, 100
1, 15330, Note_on_c, 5, 84, 0
1, 15330, Note_on_c, 0, 62, 0
1, 15330, Note_on_c, 5, 82, 100
1, 15360, Note_on_c, 5, 82, 0
1, 15360, Note_on_c, 9, 46, 0
1, 15360, Note_on_c, 0, 55, 0
1, 15360, Note_on_c, 9, 40, 0
1, 15360, Note_on_c, 9, 36, 0
1, 15360, Note_on_c, 1, 67, 0
1, 15360, Note_on_c, 0, 43, 100
1, 15360, Note_on_c, 2, 43, 100
1, 15360, Note_on_c, 3, 77, 100
1, 15360, Note_on_c, 5, 79, 100
1, 15360, Note_on_c, 9, 36, 100
1, 15360, Note_on_c, 9, 46, 100
1, 15420, Note_on_c, 9, 46, 0
1, 15420, Note_on_c, 2, 43, 0
1, 15420, Note_on_c, 0, 43, 0
1, 15420, Note_on_c, 3, 77, 0
1, 15420, Note_on_c, 9, 36, 0
1, 15420, Note_on_c, 0, 67, 100
1, 15420, Note_on_c, 0, 55, 100
1, 15420, Note_on_c, 1, 69, 100
1, 15420, Note_on_c, 1, 73, 100
1, 15420, Note_on_c, 3, 79, 100
1, 15420, Note_on_c, 9, 36, 100
1, 15420, Note_on_c, 9, 46, 100
1, 15450, Note_on_c, 3, 79, 0
1, 15450, Note_on_c, 3, 79, 100
1, 15480, Note_on_c, 5, 79, 0
1, 15480, Note_on_c, 9, 46, 0
1, 15480, Note_on_c, 1, 73, 0
1, 15480, Note_on_c, 0, 67, 0
1, 15480, Note_on_c, 0, 55, 0
1, 15480, Note_on_c, 1, 69, 0
1, 15480, Note_on_c, 9, 36, 0
1, 15480, Note_on_c, 0, 65, 100
1, 15480, Note_on_c, 0, 43, 100
1, 15480, Note_on_c, 1, 70, 100
1, 15480, Note_on_c, 1, 74, 100
1, 15480, Note_on_c, 2, 43, 100
1, 15480, Note_on_c, 9, 36, 100
1, 15480, Note_on_c, 9, 38, 100
1, 15480, Note_on_c, 9, 46, 100
1, 15540, Note_on_c, 9, 46, 0
1, 15540, Note_on_c, 3, 79, 0
1, 15540, Note_on_c, 2, 43, 0
1, 15540, Note_on_c, 1, 70, 0
1, 15540, Note_on_c, 0, 65, 0
1, 15540, Note_on_c, 0, 43, 0
1, 15540, Note_on_c, 1, 74, 0
1, 15540, Note_on_c, 0, 67, 100
1, 15540, Note_on_c, 0, 55, 100
1, 15540, Note_on_c, 3, 79, 100
1, 15540, Note_on_c, 9, 46, 100
1, 15600, Note_on_c, 9, 46, 0
1, 15600, Note_on_c, 9, 38, 0
1, 15600, Note_on_c, 0, 67, 0
1, 15600, Note_on_c, 9, 36, 0
1, 15600, Note_on_c, 3, 79, 0
1, 15600, Note_on_c, 0, 55, 0
1, 15600, Note_on_c, 0, 74, 100
1, 15600, Note_on_c, 0, 69, 100
1, 15600, Note_on_c, 0, 43, 100
1, 15600, Note_on_c, 1, 69, 100
1, 15600, Note_on_c, 2, 43, 100
1, 15600, Note_on_c, 3, 82, 100
1, 15600, Note_on_c, 9, 36, 100
1, 15600, Note_on_c, 9, 46, 100
1, 15630, Note_on_c, 1, 69, 0
1, 15630, Note_on_c, 0, 69, 0
1, 15630, Note_on_c, 0, 70, 100
1, 15630, Note_on_c, 1, 70, 100
1, 15660, Note_on_c, 1, 70, 0
1, 15660, Note_on_c, 3, 82, 0
1, 15660, Note_on_c, 9, 46, 0
1, 15660, Note_on_c, 0, 43, 0
1, 15660, Note_on_c, 2, 43, 0
1, 15660, Note_on_c, 9, 36, 0
1, 15660, Note_on_c, 0, 55, 100
1, 15660, Note_on_c, 1, 67, 100
1, 15660, Note_on_c, 2, 43, 100
1, 15660, Note_on_c, 3, 82, 100
1, 15660, Note_on_c, 9, 36, 100
1, 15660, Note_on_c, 9, 46, 100
1, 15690, Note_on_c, 9, 36, 0
1, 15690, Note_on_c, 1, 67, 0
1, 15690, Note_on_c, 0, 70, 0
1, 15690, Note_on_c, 0, 74, 0
1, 15690, Note_on_c, 2, 43, 0
1, 15690, Note_on_c, 0, 74, 100
1, 15690, Note_on_c, 0, 67, 100
1, 15690, Note_on_c, 1, 65, 100
1, 15690, Note_on_c, 2, 43, 100
1, 15690, Note_on_c, 9, 36, 100
1, 15720, Note_on_c, 9, 36, 0
1, 15720, Note_on_c, 2, 43, 0
1, 15720, Note_on_c, 9, 46, 0
1, 15720, Note_on_c, 3, 82, 0
1, 15720, Note_on_c, 0, 55, 0
1, 15720, Note_on_c, 1, 65, 0
1, 15720, Note_on_c, 0, 43, 100
1, 15720, Note_on_c, 1, 62, 100
1, 15720, Note_on_c, 2, 43, 100
1, 15720, Note_on_c, 9, 36, 100
1, 15720, Note_on_c, 9, 40, 100
1, 15720, Note_on_c, 9, 46, 100
1, 15750, Note_on_c, 1, 62, 0
1, 15750, Note_on_c, 0, 74, 0
1, 15750, Note_on_c, 0, 67, 0
1, 15750, Note_on_c, 0, 65, 100
1, 15750, Note_on_c, 1, 65, 100
1, 15780, Note_on_c, 1, 65, 0
1, 15780, Note_on_c, 9, 46, 0
1, 15780, Note_on_c, 0, 43, 0
1, 15780, Note_on_c, 2, 43, 0
1, 15780, Note_on_c, 0, 65, 0
1, 15780, Note_on_c, 0, 62, 100
1, 15780, Note_on_c, 0, 55, 100
1, 15780, Note_on_c, 1, 67, 100
1, 15780, Note_on_c, 5, 81, 100
1, 15780, Note_on_c, 9, 46, 100
1, 15810, Note_on_c, 0, 62, 0
1, 15840, Note_on_c, 5, 81, 0
1, 15840, Note_on_c, 9, 40, 0
1, 15840, Note_on_c, 0, 55, 0
1, 15840, Note_on_c, 9, 36, 0
1, 15840, Note_on_c, 9, 46, 0
1, 15840, Note_on_c, 1, 67, 0
1, 15840, Note_on_c, 0, 43, 100
1, 15840, Note_on_c, 2, 43, 100
1, 15840, Note_on_c, 3, 82, 100
1, 15840, Note_on_c, 5, 82, 100
1, 15840, Note_on_c, 9, 36, 100
1, 15840, Note_on_c, 9, 46, 100
1, 15870, Note_on_c, 3, 82, 0
1, 15870, Note_on_c, 3, 82, 100
1, 15900, Note_on_c, 3, 82, 0
1, 15900, Note_on_c, 9, 46, 0
1, 15900, Note_on_c, 5, 82, 0
1, 15900, Note_on_c, 0, 43, 0
1, 15900, Note_on_c, 2, 43, 0
1, 15900, Note_on_c, 9, 36, 0
1, 15900, Note_on_c, 0, 67, 100
1, 15900, Note_on_c, 0, 55, 100
1, 15900, Note_on_c, 1, 69, 100
1, 15900, Note_on_c, 1, 73, 100
1, 15900, Note_on_c, 3, 82, 100
1, 15900, Note_on_c, 5, 81, 100
1, 15900, Note_on_c, 9, 36, 100
1, 15900, Note_on_c, 9, 46, 100
1, 15930, Note_on_c, 3, 82, 0
1, 15930, Note_on_c, 3, 82, 100
1, 15960, Note_on_c, 3, 82, 0
1, 15960, Note_on_c, 1, 73, 0
1, 15960, Note_on_c, 5, 81, 0
1, 15960, Note_on_c, 0, 55, 0
1, 15960, Note_on_c, 1, 69, 0
1, 15960, Note_on_c, 9, 46, 0
1, 15960, Note_on_c, 9, 36, 0
1, 15960, Note_on_c, 0, 67, 0
1, 15960, Note_on_c, 0, 65, 100
1, 15960, Note_on_c, 0, 43, 100
1, 15960, Note_on_c, 1, 70, 100
1, 15960, Note_on_c, 1, 74, 100
1, 15960, Note_on_c, 2, 43, 100
1, 15960, Note_on_c, 3, 82, 100
1, 15960, Note_on_c, 5, 79, 100
1, 15960, Note_on_c, 9, 36, 100
1, 15960, Note_on_c, 9, 38, 100
1, 15960, Note_on_c, 9, 46, 100
1, 16020, Note_on_c, 9, 46, 0
1, 16020, Note_on_c, 1, 70, 0
1, 16020, Note_on_c, 5, 79, 0
1, 16020, Note_on_c, 0, 65, 0
1, 16020, Note_on_c, 2, 43, 0
1, 16020, Note_on_c, 0, 43, 0
1, 16020, Note_on_c, 1, 74, 0
1, 16020, Note_on_c, 3, 82, 0
1, 16020, Note_on_c, 0, 67, 100
1, 16020, Note_on_c, 0, 55, 100
1, 16020, Note_on_c, 3, 79, 100
1, 16020, Note_on_c, 5, 81, 100
1, 16020, Note_on_c, 9, 46, 100
1, 16050, Note_on_c, 3, 79, 0
1, 16050, Note_on_c, 3, 82, 100
1, 16080, Note_on_c, 5, 81, 0
1, 16080, Note_on_c, 0, 55, 0
1, 16080, Note_on_c, 9, 38, 0
1, 16080, Note_on_c, 0, 67, 0
1, 16080, Note_on_c, 9, 36, 0
1, 16080, Note_on_c, 9, 46, 0
1, 16080, Note_on_c, 0, 74, 100
1, 16080, Note_on_c, 0, 69, 100
1, 16080, Note_on_c, 0, 43, 100
1, 16080, Note_on_c, 1, 69, 100
1, 16080, Note_on_c, 2, 43, 100
1, 16080, Note_on_c, 5, 82, 100
1, 16080, Note_on_c, 9, 36, 100
1, 16080, Note_on_c, 9, 46, 100
1, 16110, Note_on_c, 1, 69, 0
1, 16110, Note_on_c, 0, 69, 0
1, 16110, Note_on_c, 0, 70, 100
1, 16110, Note_on_c, 1, 70, 100
1, 16140, Note_on_c, 1, 70, 0
1, 16140, Note_on_c, 9, 36, 0
1, 16140, Note_on_c, 9, 46, 0
1, 16140, Note_on_c, 2, 43, 0
1, 16140, Note_on_c, 0, 43, 0
1, 16140, Note_on_c, 5, 82, 0
1, 16140, Note_on_c, 0, 55, 100
1, 16140, Note_on_c, 1, 67, 100
1, 16140, Note_on_c, 2, 43, 100
1, 16140, Note_on_c, 5, 81, 100
1, 16140, Note_on_c, 9, 36, 100
1, 16140, Note_on_c, 9, 46, 100
1, 16170, Note_on_c, 9, 36, 0
1, 16170, Note_on_c, 2, 43, 0
1, 16170, Note_on_c, 0, 70, 0
1, 16170, Note_on_c, 0, 74, 0
1, 16170, Note_on_c, 1, 67, 0
1, 16170, Note_on_c, 0, 74, 100
1, 16170, Note_on_c, 0, 67, 100
1, 16170, Note_on_c, 1, 65, 100
1, 16170, Note_on_c, 2, 43, 100
1, 16170, Note_on_c, 9, 36, 100
1, 16200, Note_on_c, 9, 36, 0
1, 16200, Note_on_c, 5, 81, 0
1, 16200, Note_on_c, 9, 46, 0
1, 16200, Note_on_c, 3, 82, 0
1, 16200, Note_on_c, 2, 43, 0
1, 16200, Note_on_c, 1, 65, 0
1, 16200, Note_on_c, 0, 55, 0
1, 16200, Note_on_c, 0, 43, 100
1, 16200, Note_on_c, 1, 62, 100
1, 16200, Note_on_c, 2, 43, 100
1, 16200, Note_on_c, 3, 77, 100
1, 16200, Note_on_c, 5, 79, 100
1, 16200, Note_on_c, 9, 36, 100
1, 16200, Note_on_c, 9, 40, 100
1, 16200, Note_on_c, 9, 46, 100
1, 16220, Note_on_c, 3, 77, 0
1, 16220, Note_on_c, 3, 79, 100
1, 16230, Note_on_c, 0, 67, 0
1, 16230, Note_on_c, 0, 74, 0
1, 16230, Note_on_c, 5, 79, 0
1, 16230, Note_on_c, 1, 62, 0
1, 16230, Note_on_c, 0, 65, 100
1, 16230, Note_on_c, 1, 65, 100
1, 16230, Note_on_c, 5, 81, 100
1, 16240, Note_on_c, 3, 79, 0
1, 16240, Note_on_c, 3, 79, 100
1, 16260, Note_on_c, 3, 79, 0
1, 16260, Note_on_c, 1, 65, 0
1, 16260, Note_on_c, 2, 43, 0
1, 16260, Note_on_c, 0, 43, 0
1, 16260, Note_on_c, 5, 81, 0
1, 16260, Note_on_c, 9, 46, 0
1, 16260, Note_on_c, 0, 65, 0
1, 16260, Note_on_c, 0, 62, 100
1, 16260, Note_on_c, 0, 55, 100
1, 16260, Note_on_c, 1, 67, 100
1, 16260, Note_on_c, 3, 79, 100
1, 16260, Note_on_c, 5, 82, 100
1, 16260, Note_on_c, 9, 46, 100
1, 16290, Note_on_c, 0, 62, 0
1, 16320, Note_on_c, 9, 36, 0
1, 16320, Note_on_c, 9, 46, 0
1, 16320, Note_on_c, 1, 67, 0
1, 16320, Note_on_c, 0, 55, 0
1, 16320, Note_on_c, 9, 40, 0
1, 16320, Note_on_c, 0, 43, 100
1, 16320, Note_on_c, 2, 43, 100
1, 16320, Note_on_c, 9, 36, 100
1, 16320, Note_on_c, 9, 46, 100
1, 16380, Note_on_c, 9, 46, 0
1, 16380, Note_on_c, 3, 79, 0
1, 16380, Note_on_c, 0, 43, 0
1, 16380, Note_on_c, 2, 43, 0
1, 16380, Note_on_c, 9, 36, 0
1, 16380, Note_on_c, 0, 67, 100
1, 16380, Note_on_c, 0, 55, 100
1, 16380, Note_on_c, 1, 69, 100
1, 16380, Note_on_c, 1, 73, 100
1, 16380, Note_on_c, 3, 82, 100
1, 16380, Note_on_c, 9, 36, 100
1, 16380, Note_on_c, 9, 46, 100
1, 16440, Note_on_c, 9, 46, 0
1, 16440, Note_on_c, 5, 82, 0
1, 16440, Note_on_c, 1, 73, 0
1, 16440, Note_on_c, 0, 67, 0
1, 16440, Note_on_c, 0, 55, 0
1, 16440, Note_on_c, 1, 69, 0
1, 16440, Note_on_c, 3, 82, 0
1, 16440, Note_on_c, 9, 36, 0
1, 16440, Note_on_c, 0, 65, 100
1, 16440, Note_on_c, 0, 43, 100
1, 16440, Note_on_c, 1, 70, 100
1, 16440, Note_on_c, 1, 74, 100
1, 16440, Note_on_c, 2, 43, 100
1, 16440, Note_on_c, 3, 84, 100
1, 16440, Note_on_c, 5, 84, 100
1, 16440, Note_on_c, 9, 36, 100
1, 16440, Note_on_c, 9, 38, 100
1, 16440, Note_on_c, 9, 46, 100
1, 16500, Note_on_c, 9, 46, 0
1, 16500, Note_on_c, 1, 70, 0
1, 16500, Note_on_c, 2, 43, 0
1, 16500, Note_on_c, 0, 65, 0
1, 16500, Note_on_c, 1, 74, 0
1, 16500, Note_on_c, 0, 43, 0
1, 16500, Note_on_c, 0, 67, 100
1, 16500, Note_on_c, 0, 55, 100
1, 16500, Note_on_c, 9, 46, 100
1, 16560, Note_on_c, 9, 46, 0
1, 16560, Note_on_c, 0, 67, 0
1, 16560, Note_on_c, 3, 84, 0
1, 16560, Note_on_c, 5, 84, 0
1, 16560, Note_on_c, 9, 38, 0
1, 16560, Note_on_c, 0, 55, 0
1, 16560, Note_on_c, 9, 36, 0
1, 16560, Note_on_c, 0, 74, 100
1, 16560, Note_on_c, 0, 69, 100
1, 16560, Note_on_c, 0, 43, 100
1, 16560, Note_on_c, 1, 69, 100
1, 16560, Note_on_c, 2, 43, 100
1, 16560, Note_on_c, 9, 36, 100
1, 16560, Note_on_c, 9, 46, 100
1, 16590, Note_on_c, 1, 69, 0
1, 16590, Note_on_c, 0, 69, 0
1, 16590, Note_on_c, 0, 70, 100
1, 16590, Note_on_c, 1, 70, 100
1, 16620, Note_on_c, 1, 70, 0
1, 16620, Note_on_c, 9, 46, 0
1, 16620, Note_on_c, 9, 36, 0
1, 16620, Note_on_c, 2, 43, 0
1, 16620, Note_on_c, 0, 43, 0
1, 16620, Note_on_c, 0, 55, 100
1, 16620, Note_on_c, 1, 67, 100
1, 16620, Note_on_c, 2, 43, 100
1, 16620, Note_on_c, 9, 36, 100
1, 16620, Note_on_c, 9, 46, 100
1, 16650, Note_on_c, 9, 36, 0
1, 16650, Note_on_c, 1, 67, 0
1, 16650, Note_on_c, 0, 70, 0
1, 16650, Note_on_c, 0, 74, 0
1, 16650, Note_on_c, 2, 43, 0
1, 16650, Note_on_c, 0, 74, 100
1, 16650, Note_on_c, 0, 67, 100
1, 16650, Note_on_c, 1, 65, 100
1, 16650, Note_on_c, 2, 43, 100
1, 16650, Note_on_c, 9, 36, 100
1, 16680, Note_on_c, 9, 36, 0
1, 16680, Note_on_c, 1, 65, 0
1, 16680, Note_on_c, 9, 46, 0
1, 16680, Note_on_c, 0, 55, 0
1, 16680, Note_on_c, 2, 43, 0
1, 16680, Note_on_c, 0, 43, 100
1, 16680, Note_on_c, 1, 62, 100
1, 16680, Note_on_c, 2, 43, 100
1, 16680, Note_on_c, 3, 77, 100
1, 16680, Note_on_c, 9, 36, 100
1, 16680, Note_on_c, 9, 40, 100
1, 16680, Note_on_c, 9, 46, 100
1, 16700, Note_on_c, 3, 77, 0
1, 16700, Note_on_c, 3, 79, 100
1, 16710, Note_on_c, 0, 67, 0
1, 16710, Note_on_c, 0, 74, 0
1, 16710, Note_on_c, 1, 62, 0
1, 16710, Note_on_c, 0, 65, 100
1, 16710, Note_on_c, 1, 65, 100
1, 16720, Note_on_c, 3, 79, 0
1, 16720, Note_on_c, 3, 79, 100
1, 16740, Note_on_c, 3, 79, 0
1, 16740, Note_on_c, 1, 65, 0
1, 16740, Note_on_c, 0, 43, 0
1, 16740, Note_on_c, 9, 46, 0
1, 16740, Note_on_c, 2, 43, 0
1, 16740, Note_on_c, 0, 65, 0
1, 16740, Note_on_c, 0, 62, 100
1, 16740, Note_on_c, 0, 55, 100
1, 16740, Note_on_c, 1, 67, 100
1, 16740, Note_on_c, 3, 79, 100
1, 16740, Note_on_c, 5, 84, 100
1, 16740, Note_on_c, 9, 46, 100
1, 16770, Note_on_c, 0, 62, 0
1, 16800, Note_on_c, 9, 40, 0
1, 16800, Note_on_c, 9, 46, 0
1, 16800, Note_on_c, 1, 67, 0
1, 16800, Note_on_c, 0, 55, 0
1, 16800, Note_on_c, 9, 36, 0
1, 16800, Note_on_c, 0, 43, 100
1, 16800, Note_on_c, 2, 43, 100
1, 16800, Note_on_c, 9, 36, 100
1, 16800, Note_on_c, 9, 46, 100
1, 16860, Note_on_c, 9, 46, 0
1, 16860, Note_on_c, 3, 79, 0
1, 16860, Note_on_c, 0, 43, 0
1, 16860, Note_on_c, 2, 43, 0
1, 16860, Note_on_c, 9, 36, 0
1, 16860, Note_on_c, 0, 67, 100
1, 16860, Note_on_c, 0, 55, 100
1, 16860, Note_on_c, 1, 69, 100
1, 16860, Note_on_c, 1, 73, 100
1, 16860, Note_on_c, 3, 84, 100
1, 16860, Note_on_c, 9, 36, 100
1, 16860, Note_on_c, 9, 46, 100
1, 16920, Note_on_c, 9, 46, 0
1, 16920, Note_on_c, 5, 84, 0
1, 16920, Note_on_c, 0, 67, 0
1, 16920, Note_on_c, 9, 36, 0
1, 16920, Note_on_c, 0, 55, 0
1, 16920, Note_on_c, 1, 69, 0
1, 16920, Note_on_c, 1, 73, 0
1, 16920, Note_on_c, 0, 65, 100
1, 16920, Note_on_c, 0, 43, 100
1, 16920, Note_on_c, 1, 70, 100
1, 16920, Note_on_c, 1, 74, 100
1, 16920, Note_on_c, 2, 43, 100
1, 16920, Note_on_c, 5, 82, 100
1, 16920, Note_on_c, 9, 36, 100
1, 16920, Note_on_c, 9, 38, 100
1, 16920, Note_on_c, 9, 46, 100
1, 16950, Note_on_c, 5, 82, 0
1, 16950, Note_on_c, 5, 79, 100
1, 16980, Note_on_c, 5, 79, 0
1, 16980, Note_on_c, 1, 70, 0
1, 16980, Note_on_c, 0, 43, 0
1, 16980, Note_on_c, 9, 46, 0
1, 16980, Note_on_c, 1, 74, 0
1, 16980, Note_on_c, 0, 65, 0
1, 16980, Note_on_c, 2, 43, 0
1, 16980, Note_on_c, 0, 67, 100
1, 16980, Note_on_c, 0, 55, 100
1, 16980, Note_on_c, 5, 79, 100
1, 16980, Note_on_c, 9, 46, 100
1, 17040, Note_on_c, 9, 46, 0
1, 17040, Note_on_c, 0, 55, 0
1, 17040, Note_on_c, 9, 36, 0
1, 17040, Note_on_c, 9, 38, 0
1, 17040, Note_on_c, 3, 84, 0
1, 17040, Note_on_c, 5, 79, 0
1, 17040, Note_on_c, 0, 67, 0
1, 17040, Note_on_c, 0, 74, 100
1, 17040, Note_on_c, 0, 69, 100
1, 17040, Note_on_c, 0, 43, 100
1, 17040, Note_on_c, 1, 69, 100
1, 17040, Note_on_c, 2, 43, 100
1, 17040, Note_on_c, 5, 79, 100
1, 17040, Note_on_c, 9, 36, 100
1, 17040, Note_on_c, 9, 46, 100
1, 17070, Note_on_c, 1, 69, 0
1, 17070, Note_on_c, 0, 69, 0
1, 17070, Note_on_c, 0, 70, 100
1, 17070, Note_on_c, 1, 70, 100
1, 17100, Note_on_c, 1, 70, 0
1, 17100, Note_on_c, 0, 43, 0
1, 17100, Note_on_c, 9, 46, 0
1, 17100, Note_on_c, 2, 43, 0
1, 17100, Note_on_c, 9, 36, 0
1, 17100, Note_on_c, 0, 55, 100
1, 17100, Note_on_c, 1, 67, 100
1, 17100, Note_on_c, 2, 43, 100
1, 17100, Note_on_c, 9, 36, 100
1, 17100, Note_on_c, 9, 46, 100
1, 17130, Note_on_c, 9, 36, 0
1, 17130, Note_on_c, 0, 74, 0
1, 17130, Note_on_c, 1, 67, 0
1, 17130, Note_on_c, 0, 70, 0
1, 17130, Note_on_c, 2, 43, 0
1, 17130, Note_on_c, 0, 74, 100
1, 17130, Note_on_c, 0, 67, 100
1, 17130, Note_on_c, 1, 65, 100
1, 17130, Note_on_c, 2, 43, 100
1, 17130, Note_on_c, 9, 36, 100
1, 17160, Note_on_c, 9, 36, 0
1, 17160, Note_on_c, 2, 43, 0
1, 17160, Note_on_c, 9, 46, 0
1, 17160, Note_on_c, 0, 55, 0
1, 17160, Note_on_c, 1, 65, 0
1, 17160, Note_on_c, 0, 43, 100
1, 17160, Note_on_c, 1, 62, 100
1, 17160, Note_on_c, 2, 43, 100
1, 17160, Note_on_c, 3, 77, 100
1, 17160, Note_on_c, 9, 36, 100
1, 17160, Note_on_c, 9, 40, 100
1, 17160, Note_on_c, 9, 46, 100
1, 17180, Note_on_c, 3, 77, 0
1, 17180, Note_on_c, 3, 79, 100
1, 17190, Note_on_c, 0, 67, 0
1, 17190, Note_on_c, 1, 62, 0
1, 17190, Note_on_c, 0, 74, 0
1, 17190, Note_on_c, 0, 65, 100
1, 17190, Note_on_c, 1, 65, 100
1, 17200, Note_on_c, 3, 79, 0
1, 17200, Note_on_c, 3, 79, 100
1, 17220, Note_on_c, 3, 79, 0
1, 17220, Note_on_c, 0, 65, 0
1, 17220, Note_on_c, 5, 79, 0
1, 17220, Note_on_c, 9, 46, 0
1, 17220, Note_on_c, 1, 65, 0
1, 17220, Note_on_c, 0, 43, 0
1, 17220, Note_on_c, 2, 43, 0
1, 17220, Note_on_c, 0, 62, 100
1, 17220, Note_on_c, 0, 55, 100
1, 17220, Note_on_c, 1, 67, 100
1, 17220, Note_on_c, 3, 79, 100
1, 17220, Note_on_c, 9, 46, 100
1, 17250, Note_on_c, 0, 62, 0
1, 17280, Note_on_c, 3, 79, 0
1, 17280, Note_on_c, 9, 36, 0
1, 17280, Note_on_c, 0, 55, 0
1, 17280, Note_on_c, 9, 40, 0
1, 17280, Note_on_c, 9, 46, 0
1, 17280, Note_on_c, 1, 67, 0
1, 17280, Note_on_c, 0, 46, 100
1, 17280, Note_on_c, 0, 65, 100
1, 17280, Note_on_c, 0, 74, 100
1, 17280, Note_on_c, 0, 70, 100
1, 17280, Note_on_c, 1, 74, 100
1, 17280, Note_on_c, 2, 46, 100
1, 17280, Note_on_c, 5, 74, 100
1, 17280, Note_on_c, 9, 36, 100
1, 17280, Note_on_c, 9, 49, 100
1, 17310, Note_on_c, 5, 74, 0
1, 17310, Note_on_c, 1, 74, 0
1, 17310, Note_on_c, 1, 74, 100
1, 17310, Note_on_c, 5, 74, 100
1, 17340, Note_on_c, 9, 49, 0
1, 17340, Note_on_c, 9, 36, 0
1, 17340, Note_on_c, 9, 36, 100
1, 17340, Note_on_c, 9, 46, 100
1, 17370, Note_on_c, 1, 82, 100
1, 17370, Note_on_c, 5, 82, 100
1, 17400, Note_on_c, 9, 46, 0
1, 17400, Note_on_c, 9, 36, 0
1, 17400, Note_on_c, 9, 38, 100
1, 17400, Note_on_c, 9, 46, 100
1, 17430, Note_on_c, 1, 82, 0
1, 17430, Note_on_c, 5, 82, 0
1, 17430, Note_on_c, 1, 82, 100
1, 17430, Note_on_c, 5, 82, 100
1, 17460, Note_on_c, 5, 82, 0
1, 17460, Note_on_c, 9, 46, 0
1, 17460, Note_on_c, 1, 82, 0
1, 17460, Note_on_c, 0, 46, 0
1, 17460, Note_on_c, 0, 46, 100
1, 17460, Note_on_c, 1, 74, 100
1, 17460, Note_on_c, 5, 74, 100
1, 17460, Note_on_c, 9, 46, 100
1, 17490, Note_on_c, 9, 38, 0
1, 17490, Note_on_c, 9, 36, 100
1, 17520, Note_on_c, 9, 36, 0
1, 17520, Note_on_c, 5, 74, 0
1, 17520, Note_on_c, 0, 70, 0
1, 17520, Note_on_c, 5, 74, 0
1, 17520, Note_on_c, 1, 74, 0
1, 17520, Note_on_c, 2, 46, 0
1, 17520, Note_on_c, 0, 74, 0
1, 17520, Note_on_c, 9, 46, 0
1, 17520, Note_on_c, 0, 46, 0
1, 17520, Note_on_c, 0, 65, 0
1, 17520, Note_on_c, 1, 74, 0
1, 17520, Note_on_c, 0, 48, 100
1, 17520, Note_on_c, 0, 76, 100
1, 17520, Note_on_c, 0, 72, 100
1, 17520, Note_on_c, 0, 67, 100
1, 17520, Note_on_c, 1, 74, 100
1, 17520, Note_on_c, 2, 48, 100
1, 17520, Note_on_c, 5, 74, 100
1, 17520, Note_on_c, 9, 36, 100
1, 17520, Note_on_c, 9, 46, 100
1, 17550, Note_on_c, 5, 74, 0
1, 17550, Note_on_c, 1, 74, 0
1, 17550, Note_on_c, 1, 76, 100
1, 17550, Note_on_c, 5, 76, 100
1, 17580, Note_on_c, 9, 46, 0
1, 17580, Note_on_c, 9, 36, 0
1, 17580, Note_on_c, 9, 36, 100
1, 17580, Note_on_c, 9, 46, 100
1, 17610, Note_on_c, 1, 84, 100
1, 17610, Note_on_c, 5, 84, 100
1, 17640, Note_on_c, 9, 46, 0
1, 17640, Note_on_c, 9, 36, 0
1, 17640, Note_on_c, 1, 76, 0
1, 17640, Note_on_c, 5, 76, 0
1, 17640, Note_on_c, 1, 76, 100
1, 17640, Note_on_c, 5, 76, 100
1, 17640, Note_on_c, 9, 46, 100
1, 17670, Note_on_c, 1, 84, 0
1, 17670, Note_on_c, 5, 84, 0
1, 17670, Note_on_c, 1, 84, 100
1, 17670, Note_on_c, 5, 84, 100
1, 17670, Note_on_c, 9, 38, 100
1, 17685, Note_on_c, 9, 38, 0
1, 17685, Note_on_c, 9, 38, 100
1, 17700, Note_on_c, 9, 38, 0
1, 17700, Note_on_c, 1, 84, 0
1, 17700, Note_on_c, 0, 48, 0
1, 17700, Note_on_c, 5, 84, 0
1, 17700, Note_on_c, 0, 48, 100
1, 17700, Note_on_c, 1, 76, 100
1, 17700, Note_on_c, 5, 76, 100
1, 17700, Note_on_c, 9, 38, 100
1, 17715, Note_on_c, 9, 38, 0
1, 17715, Note_on_c, 9, 38, 100
1, 17730, Note_on_c, 9, 38, 0
1, 17730, Note_on_c, 9, 38, 100
1, 17745, Note_on_c, 9, 38, 0
1, 17745, Note_on_c, 9, 38, 100
1, 17760, Note_on_c, 9, 38, 0
1, 17760, Note_on_c, 0, 48, 0
1, 17760, Note_on_c, 9, 46, 0
1, 17760, Note_on_c, 5, 76, 0
1, 17760, Note_on_c, 0, 76, 0
1, 17760, Note_on_c, 2, 48, 0
1, 17760, Note_on_c, 0, 72, 0
1, 17760, Note_on_c, 1, 76, 0
1, 17760, Note_on_c, 0, 67, 0
1, 17760, Note_on_c, 1, 76, 0
1, 17760, Note_on_c, 5, 76, 0
1, 17760, Note_on_c, 0, 43, 100
1, 17760, Note_on_c, 2, 43, 100
1, 17760, Note_on_c, 9, 36, 100
1, 17760, Note_on_c, 9, 49, 100
1, 17820, Note_on_c, 9, 49, 0
1, 17820, Note_on_c, 0, 43, 0
1, 17820, Note_on_c, 2, 43, 0
1, 17820, Note_on_c, 9, 36, 0
1, 17820, Note_on_c, 0, 67, 100
1, 17820, Note_on_c, 0, 55, 100
1, 17820, Note_on_c, 1, 86, 100
1, 17820, Note_on_c, 1, 81, 100
1, 17820, Note_on_c, 5, 86, 100
1, 17820, Note_on_c, 5, 81, 100
1, 17820, Note_on_c, 9, 36, 100
1, 17820, Note_on_c, 9, 46, 100
1, 17880, Note_on_c, 9, 46, 0
1, 17880, Note_on_c, 0, 67, 0
1, 17880, Note_on_c, 5, 86, 0
1, 17880, Note_on_c, 0, 55, 0
1, 17880, Note_on_c, 1, 86, 0
1, 17880, Note_on_c, 1, 81, 0
1, 17880, Note_on_c, 5, 81, 0
1, 17880, Note_on_c, 9, 36, 0
1, 17880, Note_on_c, 0, 65, 100
1, 17880, Note_on_c, 0, 43, 100
1, 17880, Note_on_c, 1, 86, 100
1, 17880, Note_on_c, 1, 82, 100
1, 17880, Note_on_c, 2, 43, 100
1, 17880, Note_on_c, 5, 86, 100
1, 17880, Note_on_c, 5, 82, 100
1, 17880, Note_on_c, 9, 36, 100
1, 17880, Note_on_c, 9, 38, 100
1, 17880, Note_on_c, 9, 46, 100
1, 17940, Note_on_c, 9, 46, 0
1, 17940, Note_on_c, 1, 86, 0
1, 17940, Note_on_c, 5, 82, 0
1, 17940, Note_on_c, 0, 65, 0
1, 17940, Note_on_c, 2, 43, 0
1, 17940, Note_on_c, 0, 43, 0
1, 17940, Note_on_c, 1, 82, 0
1, 17940, Note_on_c, 5, 86, 0
1, 17940, Note_on_c, 0, 67, 100
1, 17940, Note_on_c, 0, 55, 100
1, 17940, Note_on_c, 9, 46, 100
1, 18000, Note_on_c, 9, 46, 0
1, 18000, Note_on_c, 0, 67, 0
1, 18000, Note_on_c, 9, 36, 0
1, 18000, Note_on_c, 9, 38, 0
1, 18000, Note_on_c, 0, 55, 0
1, 18000, Note_on_c, 0, 74, 100
1, 18000, Note_on_c, 0, 69, 100
1, 18000, Note_on_c, 0, 43, 100
1, 18000, Note_on_c, 1, 81, 100
1, 18000, Note_on_c, 2, 43, 100
1, 18000, Note_on_c, 5, 81, 100
1, 18000, Note_on_c, 9, 36, 100
1, 18000, Note_on_c, 9, 46, 100
1, 18030, Note_on_c, 5, 81, 0
1, 18030, Note_on_c, 0, 69, 0
1, 18030, Note_on_c, 1, 81, 0
1, 18030, Note_on_c, 0, 70, 100
1, 18030, Note_on_c, 1, 82, 100
1, 18030, Note_on_c, 5, 82, 100
1, 18060, Note_on_c, 5, 82, 0
1, 18060, Note_on_c, 1, 82, 0
1, 18060, Note_on_c, 9, 36, 0
1, 18060, Note_on_c, 9, 46, 0
1, 18060, Note_on_c, 2, 43, 0
1, 18060, Note_on_c, 0, 43, 0
1, 18060, Note_on_c, 0, 55, 100
1, 18060, Note_on_c, 1, 79, 100
1, 18060, Note_on_c, 5, 79, 100
1, 18060, Note_on_c, 9, 36, 100
1, 18060, Note_on_c, 9, 46, 100
1, 18090, Note_on_c, 9, 36, 0
1, 18090, Note_on_c, 1, 79, 0
1, 18090, Note_on_c, 0, 70, 0
1, 18090, Note_on_c, 0, 74, 0
1, 18090, Note_on_c, 5, 79, 0
1, 18090, Note_on_c, 0, 74, 100
1, 18090, Note_on_c, 0, 67, 100
1, 18090, Note_on_c, 1, 77, 100
1, 18090, Note_on_c, 5, 77, 100
1, 18090, Note_on_c, 9, 36, 100
1, 18120, Note_on_c, 9, 36, 0
1, 18120, Note_on_c, 1, 77, 0
1, 18120, Note_on_c, 9, 46, 0
1, 18120, Note_on_c, 0, 55, 0
1, 18120, Note_on_c, 5, 77, 0
1, 18120, Note_on_c, 0, 43, 100
1, 18120, Note_on_c, 1, 74, 100
1, 18120, Note_on_c, 2, 43, 100
1, 18120, Note_on_c, 5, 74, 100
1, 18120, Note_on_c, 9, 36, 100
1, 18120, Note_on_c, 9, 40, 100
1, 18120, Note_on_c, 9, 46, 100
1, 18150, Note_on_c, 5, 74, 0
1, 18150, Note_on_c, 0, 67, 0
1, 18150, Note_on_c, 0, 74, 0
1, 18150, Note_on_c, 1, 74, 0
1, 18150, Note_on_c, 0, 65, 100
1, 18150, Note_on_c, 1, 77, 100
1, 18150, Note_on_c, 5, 77, 100
1, 18180, Note_on_c, 5, 77, 0
1, 18180, Note_on_c, 1, 77, 0
1, 18180, Note_on_c, 9, 46, 0
1, 18180, Note_on_c, 0, 43, 0
1, 18180, Note_on_c, 2, 43, 0
1, 18180, Note_on_c, 0, 65, 0
1, 18180, Note_on_c, 0, 62, 100
1, 18180, Note_on_c, 0, 55, 100
1, 18180, Note_on_c, 1, 79, 100
1, 18180, Note_on_c, 5, 79, 100
1, 18180, Note_on_c, 9, 46, 100
1, 18210, Note_on_c, 0, 62, 0
1, 18240, Note_on_c, 5, 79, 0
1, 18240, Note_on_c, 9, 40, 0
1, 18240, Note_on_c, 0, 55, 0
1, 18240, Note_on_c, 9, 36, 0
1, 18240, Note_on_c, 9, 46, 0
1, 18240, Note_on_c, 1, 79, 0
1, 18240, Note_on_c, 0, 43, 100
1, 18240, Note_on_c, 2, 43, 100
1, 18240, Note_on_c, 9, 36, 100
1, 18240, Note_on_c, 9, 46, 100
1, 18300, Note_on_c, 9, 46, 0
1, 18300, Note_on_c, 0, 43, 0
1, 18300, Note_on_c, 2, 43, 0
1, 18300, Note_on_c, 9, 36, 0
1, 18300, Note_on_c, 0, 67, 100
1, 18300, Note_on_c, 0, 55, 100
1, 18300, Note_on_c, 1, 86, 100
1, 18300, Note_on_c, 1, 81, 100
1, 18300, Note_on_c, 5, 86, 100
1, 18300, Note_on_c, 5, 81, 100
1, 18300, Note_on_c, 9, 36, 100
1, 18300, Note_on_c, 9, 46, 100
1, 18360, Note_on_c, 9, 46, 0
1, 18360, Note_on_c, 0, 67, 0
1, 18360, Note_on_c, 5, 86, 0
1, 18360, Note_on_c, 0, 55, 0
1, 18360, Note_on_c, 1, 86, 0
1, 18360, Note_on_c, 1, 81, 0
1, 18360, Note_on_c, 5, 81, 0
1, 18360, Note_on_c, 9, 36, 0
1, 18360, Note_on_c, 0, 65, 100
1, 18360, Note_on_c, 0, 43, 100
1, 18360, Note_on_c, 1, 86, 100
1, 18360, Note_on_c, 1, 82, 100
1, 18360, Note_on_c, 2, 43, 100
1, 18360, Note_on_c, 5, 86, 100
1, 18360, Note_on_c, 5, 82, 100
1, 18360, Note_on_c, 9, 36, 100
1, 18360, Note_on_c, 9, 38, 100
1, 18360, Note_on_c, 9, 46, 100
1, 18420, Note_on_c, 9, 46, 0
1, 18420, Note_on_c, 1, 86, 0
1, 18420, Note_on_c, 5, 82, 0
1, 18420, Note_on_c, 0, 65, 0
1, 18420, Note_on_c, 2, 43, 0
1, 18420, Note_on_c, 0, 43, 0
1, 18420, Note_on_c, 1, 82, 0
1, 18420, Note_on_c, 5, 86, 0
1, 18420, Note_on_c, 0, 67, 100
1, 18420, Note_on_c, 0, 55, 100
1, 18420, Note_on_c, 9, 46, 100
1, 18480, Note_on_c, 9, 46, 0
1, 18480, Note_on_c, 0, 67, 0
1, 18480, Note_on_c, 9, 36, 0
1, 18480, Note_on_c, 9, 38, 0
1, 18480, Note_on_c, 0, 55, 0
1, 18480, Note_on_c, 0, 74, 100
1, 18480, Note_on_c, 0, 69, 100
1, 18480, Note_on_c, 0, 43, 100
1, 18480, Note_on_c, 1, 81, 100
1, 18480, Note_on_c, 2, 43, 100
1, 18480, Note_on_c, 5, 81, 100
1, 18480, Note_on_c, 9, 36, 100
1, 18480, Note_on_c, 9, 46, 100
1, 18510, Note_on_c, 5, 81, 0
1, 18510, Note_on_c, 0, 69, 0
1, 18510, Note_on_c, 1, 81, 0
1, 18510, Note_on_c, 0, 70, 100
1, 18510, Note_on_c, 1, 82, 100
1, 18510, Note_on_c, 5, 82, 100
1, 18540, Note_on_c, 5, 82, 0
1, 18540, Note_on_c, 1, 82, 0
1, 18540, Note_on_c, 9, 36, 0
1, 18540, Note_on_c, 9, 46, 0
1, 18540, Note_on_c, 2, 43, 0
1, 18540, Note_on_c, 0, 43, 0
1, 18540, Note_on_c, 0, 55, 100
1, 18540, Note_on_c, 1, 79, 100
1, 18540, Note_on_c, 5, 79, 100
1, 18540, Note_on_c, 9, 36, 100
1, 18540, Note_on_c, 9, 46, 100
1, 18570, Note_on_c, 9, 36, 0
1, 18570, Note_on_c, 1, 79, 0
1, 18570, Note_on_c, 0, 70, 0
1, 18570, Note_on_c, 0, 74, 0
1, 18570, Note_on_c, 5, 79, 0
1, 18570, Note_on_c, 0, 74, 100
1, 18570, Note_on_c, 0, 67, 100
1, 18570, Note_on_c, 1, 77, 100
1, 18570, Note_on_c, 5, 77, 100
1, 18570, Note_on_c, 9, 36, 100
1, 18600, Note_on_c, 9, 36, 0
1, 18600, Note_on_c, 1, 77, 0
1, 18600, Note_on_c, 9, 46, 0
1, 18600, Note_on_c, 0, 55, 0
1, 18600, Note_on_c, 5, 77, 0
1, 18600, Note_on_c, 0, 43, 100
1, 18600, Note_on_c, 1, 74, 100
1, 18600, Note_on_c, 2, 43, 100
1, 18600, Note_on_c, 5, 74, 100
1, 18600, Note_on_c, 9, 36, 100
1, 18600, Note_on_c, 9, 40, 100
1, 18600, Note_on_c, 9, 46, 100
1, 18630, Note_on_c, 5, 74, 0
1, 18630, Note_on_c, 0, 67, 0
1, 18630, Note_on_c, 0, 74, 0
1, 18630, Note_on_c, 1, 74, 0
1, 18630, Note_on_c, 0, 65, 100
1, 18630, Note_on_c, 1, 77, 100
1, 18630, Note_on_c, 5, 77, 100
1, 18660, Note_on_c, 5, 77, 0
1, 18660, Note_on_c, 1, 77, 0
1, 18660, Note_on_c, 9, 46, 0
1, 18660, Note_on_c, 0, 43, 0
1, 18660, Note_on_c, 2, 43, 0
1, 18660, Note_on_c, 0, 65, 0
1, 18660, Note_on_c, 0, 62, 100
1, 18660, Note_on_c, 0, 55, 100
1, 18660, Note_on_c, 1, 79, 100
1, 18660, Note_on_c, 5, 79, 100
1, 18660, Note_on_c, 9, 46, 100
1, 18690, Note_on_c, 0, 62, 0
1, 18720, Note_on_c, 5, 79, 0
1, 18720, Note_on_c, 9, 40, 0
1, 18720, Note_on_c, 0, 55, 0
1, 18720, Note_on_c, 9, 36, 0
1, 18720, Note_on_c, 9, 46, 0
1, 18720, Note_on_c, 1, 79, 0
1, 18720, Note_on_c, 0, 43, 100
1, 18720, Note_on_c, 2, 43, 100
1, 18720, Note_on_c, 3, 77, 100
1, 18720, Note_on_c, 9, 36, 100
1, 18720, Note_on_c, 9, 46, 100
1, 18780, Note_on_c, 9, 46, 0
1, 18780, Note_on_c, 3, 77, 0
1, 18780, Note_on_c, 0, 43, 0
1, 18780, Note_on_c, 2, 43, 0
1, 18780, Note_on_c, 9, 36, 0
1, 18780, Note_on_c, 0, 67, 100
1, 18780, Note_on_c, 0, 55, 100
1, 18780, Note_on_c, 1, 69, 100
1, 18780, Note_on_c, 3, 79, 100
1, 18780, Note_on_c, 9, 36, 100
1, 18780, Note_on_c, 9, 46, 100
1, 18840, Note_on_c, 9, 46, 0
1, 18840, Note_on_c, 0, 55, 0
1, 18840, Note_on_c, 1, 69, 0
1, 18840, Note_on_c, 0, 67, 0
1, 18840, Note_on_c, 9, 36, 0
1, 18840, Note_on_c, 3, 79, 0
1, 18840, Note_on_c, 0, 65, 100
1, 18840, Note_on_c, 0, 43, 100
1, 18840, Note_on_c, 1, 70, 100
1, 18840, Note_on_c, 2, 43, 100
1, 18840, Note_on_c, 3, 79, 100
1, 18840, Note_on_c, 9, 36, 100
1, 18840, Note_on_c, 9, 38, 100
1, 18840, Note_on_c, 9, 46, 100
1, 18900, Note_on_c, 9, 46, 0
1, 18900, Note_on_c, 0, 65, 0
1, 18900, Note_on_c, 3, 79, 0
1, 18900, Note_on_c, 2, 43, 0
1, 18900, Note_on_c, 1, 70, 0
1, 18900, Note_on_c, 0, 43, 0
1, 18900, Note_on_c, 0, 67, 100
1, 18900, Note_on_c, 0, 55, 100
1, 18900, Note_on_c, 3, 79, 100
1, 18900, Note_on_c, 9, 46, 100
1, 18930, Note_on_c, 3, 79, 0
1, 18930, Note_on_c, 3, 79, 100
1, 18960, Note_on_c, 9, 38, 0
1, 18960, Note_on_c, 0, 55, 0
1, 18960, Note_on_c, 0, 67, 0
1, 18960, Note_on_c, 9, 36, 0
1, 18960, Note_on_c, 9, 46, 0
1, 18960, Note_on_c, 0, 74, 100
1, 18960, Note_on_c, 0, 69, 100
1, 18960, Note_on_c, 0, 43, 100
1, 18960, Note_on_c, 1, 69, 100
1, 18960, Note_on_c, 2, 43, 100
1, 18960, Note_on_c, 9, 36, 100
1, 18960, Note_on_c, 9, 46, 100
1, 18990, Note_on_c, 1, 69, 0
1, 18990, Note_on_c, 0, 69, 0
1, 18990, Note_on_c, 3, 79, 0
1, 18990, Note_on_c, 0, 70, 100
1, 18990, Note_on_c, 1, 70, 100
1, 18990, Note_on_c, 3, 79, 100
1, 19020, Note_on_c, 1, 70, 0
1, 19020, Note_on_c, 9, 46, 0
1, 19020, Note_on_c, 9, 36, 0
1, 19020, Note_on_c, 0, 43, 0
1, 19020, Note_on_c, 2, 43, 0
1, 19020, Note_on_c, 0, 55, 100
1, 19020, Note_on_c, 1, 67, 100
1, 19020, Note_on_c, 2, 43, 100
1, 19020, Note_on_c, 5, 82, 100
1, 19020, Note_on_c, 9, 36, 100
1, 19020, Note_on_c, 9, 46, 100
1, 19050, Note_on_c, 9, 36, 0
1, 19050, Note_on_c, 5, 82, 0
1, 19050, Note_on_c, 0, 74, 0
1, 19050, Note_on_c, 1, 67, 0
1, 19050, Note_on_c, 0, 70, 0
1, 19050, Note_on_c, 2, 43, 0
1, 19050, Note_on_c, 0, 74, 100
1, 19050, Note_on_c, 0, 67, 100
1, 19050, Note_on_c, 1, 65, 100
1, 19050, Note_on_c, 2, 43, 100
1, 19050, Note_on_c, 5, 81, 100
1, 19050, Note_on_c, 9, 36, 100
1, 19080, Note_on_c, 9, 36, 0
1, 19080, Note_on_c, 3, 79, 0
1, 19080, Note_on_c, 5, 81, 0
1, 19080, Note_on_c, 9, 46, 0
1, 19080, Note_on_c, 0, 55, 0
1, 19080, Note_on_c, 2, 43, 0
1, 19080, Note_on_c, 1, 65, 0
1, 19080, Note_on_c, 0, 43, 100
1, 19080, Note_on_c, 1, 62, 100
1, 19080, Note_on_c, 2, 43, 100
1, 19080, Note_on_c, 5, 82, 100
1, 19080, Note_on_c, 9, 36, 100
1, 19080, Note_on_c, 9, 40, 100
1, 19080, Note_on_c, 9, 46, 100
1, 19110, Note_on_c, 5, 82, 0
1, 19110, Note_on_c, 0, 74, 0
1, 19110, Note_on_c, 0, 67, 0
1, 19110, Note_on_c, 1, 62, 0
1, 19110, Note_on_c, 0, 65, 100
1, 19110, Note_on_c, 1, 65, 100
1, 19110, Note_on_c, 5, 81, 100
1, 19140, Note_on_c, 5, 81, 0
1, 19140, Note_on_c, 1, 65, 0
1, 19140, Note_on_c, 9, 46, 0
1, 19140, Note_on_c, 0, 43, 0
1, 19140, Note_on_c, 2, 43, 0
1, 19140, Note_on_c, 0, 65, 0
1, 19140, Note_on_c, 0, 62, 100
1, 19140, Note_on_c, 0, 55, 100
1, 19140, Note_on_c, 1, 67, 100
1, 19140, Note_on_c, 5, 79, 100
1, 19140, Note_on_c, 9, 46, 100
1, 19170, Note_on_c, 0, 62, 0
1, 19200, Note_on_c, 9, 40, 0
1, 19200, Note_on_c, 1, 67, 0
1, 19200, Note_on_c, 0, 55, 0
1, 19200, Note_on_c, 9, 36, 0
1, 19200, Note_on_c, 9, 46, 0
1, 19200, Note_on_c, 0, 43, 100
1, 19200, Note_on_c, 2, 43, 100
1, 19200, Note_on_c, 3, 77, 100
1, 19200, Note_on_c, 9, 36, 100
1, 19200, Note_on_c, 9, 46, 100
1, 19260, Note_on_c, 9, 46, 0
1, 19260, Note_on_c, 0, 43, 0
1, 19260, Note_on_c, 2, 43, 0
1, 19260, Note_on_c, 3, 77, 0
1, 19260, Note_on_c, 9, 36, 0
1, 19260, Note_on_c, 0, 67, 100
1, 19260, Note_on_c, 0, 55, 100
1, 19260, Note_on_c, 1, 69, 100
1, 19260, Note_on_c, 1, 73, 100
1, 19260, Note_on_c, 3, 79, 100
1, 19260, Note_on_c, 9, 36, 100
1, 19260, Note_on_c, 9, 46, 100
1, 19290, Note_on_c, 3, 79, 0
1, 19290, Note_on_c, 3, 79, 100
1, 19320, Note_on_c, 9, 46, 0
1, 19320, Note_on_c, 1, 69, 0
1, 19320, Note_on_c, 1, 73, 0
1, 19320, Note_on_c, 0, 67, 0
1, 19320, Note_on_c, 0, 55, 0
1, 19320, Note_on_c, 9, 36, 0
1, 19320, Note_on_c, 0, 65, 100
1, 19320, Note_on_c, 0, 43, 100
1, 19320, Note_on_c, 1, 70, 100
1, 19320, Note_on_c, 1, 74, 100
1, 19320, Note_on_c, 2, 43, 100
1, 19320, Note_on_c, 9, 36, 100
1, 19320, Note_on_c, 9, 38, 100
1, 19320, Note_on_c, 9, 46, 100
1, 19380, Note_on_c, 9, 46, 0
1, 19380, Note_on_c, 0, 65, 0
1, 19380, Note_on_c, 2, 43, 0
1, 19380, Note_on_c, 0, 43, 0
1, 19380, Note_on_c, 1, 70, 0
1, 19380, Note_on_c, 1, 74, 0
1, 19380, Note_on_c, 0, 67, 100
1, 19380, Note_on_c, 0, 55, 100
1, 19380, Note_on_c, 9, 46, 100
1, 19410, Note_on_c, 3, 79, 0
1, 19410, Note_on_c, 3, 79, 100
1, 19440, Note_on_c, 3, 79, 0
1, 19440, Note_on_c, 9, 46, 0
1, 19440, Note_on_c, 9, 36, 0
1, 19440, Note_on_c, 5, 79, 0
1, 19440, Note_on_c, 9, 38, 0
1, 19440, Note_on_c, 0, 55, 0
1, 19440, Note_on_c, 0, 67, 0
1, 19440, Note_on_c, 0, 74, 100
1, 19440, Note_on_c, 0, 69, 100
1, 19440, Note_on_c, 0, 43, 100
1, 19440, Note_on_c, 1, 69, 100
1, 19440, Note_on_c, 2, 43, 100
1, 19440, Note_on_c, 3, 79, 100
1, 19440, Note_on_c, 9, 36, 100
1, 19440, Note_on_c, 9, 46, 100
1, 19470, Note_on_c, 1, 69, 0
1, 19470, Note_on_c, 0, 69, 0
1, 19470, Note_on_c, 0, 70, 100
1, 19470, Note_on_c, 1, 70, 100
1, 19500, Note_on_c, 1, 70, 0
1, 19500, Note_on_c, 0, 43, 0
1, 19500, Note_on_c, 9, 46, 0
1, 19500, Note_on_c, 2, 43, 0
1, 19500, Note_on_c, 9, 36, 0
1, 19500, Note_on_c, 0, 55, 100
1, 19500, Note_on_c, 1, 67, 100
1, 19500, Note_on_c, 2, 43, 100
1, 19500, Note_on_c, 5, 82, 100
1, 19500, Note_on_c, 9, 36, 100
1, 19500, Note_on_c, 9, 46, 100
1, 19530, Note_on_c, 9, 36, 0
1, 19530, Note_on_c, 5, 82, 0
1, 19530, Note_on_c, 0, 74, 0
1, 19530, Note_on_c, 1, 67, 0
1, 19530, Note_on_c, 0, 70, 0
1, 19530, Note_on_c, 2, 43, 0
1, 19530, Note_on_c, 0, 74, 100
1, 19530, Note_on_c, 0, 67, 100
1, 19530, Note_on_c, 1, 65, 100
1, 19530, Note_on_c, 2, 43, 100
1, 19530, Note_on_c, 5, 81, 100
1, 19530, Note_on_c, 9, 36, 100
1, 19560, Note_on_c, 9, 36, 0
1, 19560, Note_on_c, 3, 79, 0
1, 19560, Note_on_c, 5, 81, 0
1, 19560, Note_on_c, 9, 46, 0
1, 19560, Note_on_c, 0, 55, 0
1, 19560, Note_on_c, 2, 43, 0
1, 19560, Note_on_c, 1, 65, 0
1, 19560, Note_on_c, 0, 43, 100
1, 19560, Note_on_c, 1, 62, 100
1, 19560, Note_on_c, 2, 43, 100
1, 19560, Note_on_c, 5, 82, 100
1, 19560, Note_on_c, 9, 36, 100
1, 19560, Note_on_c, 9, 40, 100
1, 19560, Note_on_c, 9, 46, 100
1, 19590, Note_on_c, 5, 82, 0
1, 19590, Note_on_c, 0, 74, 0
1, 19590, Note_on_c, 0, 67, 0
1, 19590, Note_on_c, 1, 62, 0
1, 19590, Note_on_c, 0, 65, 100
1, 19590, Note_on_c, 1, 65, 100
1, 19590, Note_on_c, 5, 81, 100
1, 19620, Note_on_c, 5, 81, 0
1, 19620, Note_on_c, 1, 65, 0
1, 19620, Note_on_c, 9, 46, 0
1, 19620, Note_on_c, 0, 43, 0
1, 19620, Note_on_c, 2, 43, 0
1, 19620, Note_on_c, 0, 65, 0
1, 19620, Note_on_c, 0, 62, 100
1, 19620, Note_on_c, 0, 55, 100
1, 19620, Note_on_c, 1, 67, 100
1, 19620, Note_on_c, 5, 79, 100
1, 19620, Note_on_c, 9, 46, 100
1, 19650, Note_on_c, 0, 62, 0
1, 19680, Note_on_c, 9, 40, 0
1, 19680, Note_on_c, 1, 67, 0
1, 19680, Note_on_c, 0, 55, 0
1, 19680, Note_on_c, 9, 36, 0
1, 19680, Note_on_c, 9, 46, 0
1, 19680, Note_on_c, 0, 43, 100
1, 19680, Note_on_c, 2, 43, 100
1, 19680, Note_on_c, 3, 77, 100
1, 19680, Note_on_c, 9, 36, 100
1, 19680, Note_on_c, 9, 46, 100
1, 19740, Note_on_c, 9, 46, 0
1, 19740, Note_on_c, 0, 43, 0
1, 19740, Note_on_c, 2, 43, 0
1, 19740, Note_on_c, 3, 77, 0
1, 19740, Note_on_c, 9, 36, 0
1, 19740, Note_on_c, 0, 67, 100
1, 19740, Note_on_c, 0, 55, 100
1, 19740, Note_on_c, 1, 69, 100
1, 19740, Note_on_c, 1, 73, 100
1, 19740, Note_on_c, 3, 79, 100
1, 19740, Note_on_c, 9, 36, 100
1, 19740, Note_on_c, 9, 46, 100
1, 19800, Note_on_c, 9, 46, 0
1, 19800, Note_on_c, 5, 79, 0
1, 19800, Note_on_c, 1, 73, 0
1, 19800, Note_on_c, 0, 67, 0
1, 19800, Note_on_c, 0, 55, 0
1, 19800, Note_on_c, 1, 69, 0
1, 19800, Note_on_c, 3, 79, 0
1, 19800, Note_on_c, 9, 36, 0
1, 19800, Note_on_c, 0, 65, 100
1, 19800, Note_on_c, 0, 43, 100
1, 19800, Note_on_c, 1, 70, 100
1, 19800, Note_on_c, 1, 74, 100
1, 19800, Note_on_c, 2, 43, 100
1, 19800, Note_on_c, 3, 79, 100
1, 19800, Note_on_c, 9, 36, 100
1, 19800, Note_on_c, 9, 38, 100
1, 19800, Note_on_c, 9, 46, 100
1, 19860, Note_on_c, 9, 46, 0
1, 19860, Note_on_c, 0, 65, 0
1, 19860, Note_on_c, 3, 79, 0
1, 19860, Note_on_c, 1, 74, 0
1, 19860, Note_on_c, 0, 43, 0
1, 19860, Note_on_c, 1, 70, 0
1, 19860, Note_on_c, 2, 43, 0
1, 19860, Note_on_c, 0, 67, 100
1, 19860, Note_on_c, 0, 55, 100
1, 19860, Note_on_c, 3, 79, 100
1, 19860, Note_on_c, 9, 46, 100
1, 19890, Note_on_c, 3, 79, 0
1, 19890, Note_on_c, 3, 82, 100
1, 19920, Note_on_c, 9, 38, 0
1, 19920, Note_on_c, 0, 55, 0
1, 19920, Note_on_c, 0, 67, 0
1, 19920, Note_on_c, 9, 36, 0
1, 19920, Note_on_c, 9, 46, 0
1, 19920, Note_on_c, 0, 74, 100
1, 19920, Note_on_c, 0, 69, 100
1, 19920, Note_on_c, 0, 43, 100
1, 19920, Note_on_c, 1, 69, 100
1, 19920, Note_on_c, 2, 43, 100
1, 19920, Note_on_c, 9, 36, 100
1, 19920, Note_on_c, 9, 46, 100
1, 19950, Note_on_c, 1, 69, 0
1, 19950, Note_on_c, 0, 69, 0
1, 19950, Note_on_c, 3, 82, 0
1, 19950, Note_on_c, 0, 70, 100
1, 19950, Note_on_c, 1, 70, 100
1, 19950, Note_on_c, 3, 82, 100
1, 19980, Note_on_c, 3, 82, 0
1, 19980, Note_on_c, 1, 70, 0
1, 19980, Note_on_c, 9, 36, 0
1, 19980, Note_on_c, 9, 46, 0
1, 19980, Note_on_c, 0, 43, 0
1, 19980, Note_on_c, 2, 43, 0
1, 19980, Note_on_c, 0, 55, 100
1, 19980, Note_on_c, 1, 67, 100
1, 19980, Note_on_c, 2, 43, 100
1, 19980, Note_on_c, 3, 84, 100
1, 19980, Note_on_c, 9, 36, 100
1, 19980, Note_on_c, 9, 46, 100
1, 20010, Note_on_c, 9, 36, 0
1, 20010, Note_on_c, 1, 67, 0
1, 20010, Note_on_c, 0, 70, 0
1, 20010, Note_on_c, 0, 74, 0
1, 20010, Note_on_c, 2, 43, 0
1, 20010, Note_on_c, 0, 74, 100
1, 20010, Note_on_c, 0, 67, 100
1, 20010, Note_on_c, 1, 65, 100
1, 20010, Note_on_c, 2, 43, 100
1, 20010, Note_on_c, 9, 36, 100
1, 20040, Note_on_c, 9, 36, 0
1, 20040, Note_on_c, 2, 43, 0
1, 20040, Note_on_c, 9, 46, 0
1, 20040, Note_on_c, 3, 84, 0
1, 20040, Note_on_c, 0, 55, 0
1, 20040, Note_on_c, 1, 65, 0
1, 20040, Note_on_c, 0, 43, 100
1, 20040, Note_on_c, 1, 62, 100
1, 20040, Note_on_c, 2, 43, 100
1, 20040, Note_on_c, 3, 82, 100
1, 20040, Note_on_c, 9, 36, 100
1, 20040, Note_on_c, 9, 40, 100
1, 20040, Note_on_c, 9, 46, 100
1, 20070, Note_on_c, 1, 62, 0
1, 20070, Note_on_c, 0, 74, 0
1, 20070, Note_on_c, 0, 67, 0
1, 20070, Note_on_c, 0, 65, 100
1, 20070, Note_on_c, 1, 65, 100
1, 20070, Note_on_c, 5, 62, 100
1, 20100, Note_on_c, 5, 62, 0
1, 20100, Note_on_c, 2, 43, 0
1, 20100, Note_on_c, 1, 65, 0
1, 20100, Note_on_c, 3, 82, 0
1, 20100, Note_on_c, 0, 43, 0
1, 20100, Note_on_c, 0, 65, 0
1, 20100, Note_on_c, 9, 46, 0
1, 20100, Note_on_c, 0, 62, 100
1, 20100, Note_on_c, 0, 55, 100
1, 20100, Note_on_c, 1, 67, 100
1, 20100, Note_on_c, 5, 67, 100
1, 20100, Note_on_c, 9, 46, 100
1, 20130, Note_on_c, 5, 67, 0
1, 20130, Note_on_c, 0, 62, 0
1, 20130, Note_on_c, 5, 74, 100
1, 20160, Note_on_c, 5, 74, 0
1, 20160, Note_on_c, 9, 46, 0
1, 20160, Note_on_c, 0, 55, 0
1, 20160, Note_on_c, 9, 36, 0
1, 20160, Note_on_c, 9, 40, 0
1, 20160, Note_on_c, 1, 67, 0
1, 20160, Note_on_c, 0, 43, 100
1, 20160, Note_on_c, 2, 43, 100
1, 20160, Note_on_c, 3, 82, 100
1, 20160, Note_on_c, 5, 74, 100
1, 20160, Note_on_c, 9, 36, 100
1, 20160, Note_on_c, 9, 46, 100
1, 20190, Note_on_c, 3, 82, 0
1, 20190, Note_on_c, 3, 82, 100
1, 20220, Note_on_c, 3, 82, 0
1, 20220, Note_on_c, 9, 46, 0
1, 20220, Note_on_c, 5, 74, 0
1, 20220, Note_on_c, 0, 43, 0
1, 20220, Note_on_c, 2, 43, 0
1, 20220, Note_on_c, 9, 36, 0
1, 20220, Note_on_c, 0, 67, 100
1, 20220, Note_on_c, 0, 55, 100
1, 20220, Note_on_c, 1, 69, 100
1, 20220, Note_on_c, 1, 73, 100
1, 20220, Note_on_c, 3, 82, 100
1, 20220, Note_on_c, 5, 70, 100
1, 20220, Note_on_c, 9, 36, 100
1, 20220, Note_on_c, 9, 46, 100
1, 20250, Note_on_c, 5, 70, 0
1, 20250, Note_on_c, 3, 82, 0
1, 20250, Note_on_c, 3, 82, 100
1, 20250, Note_on_c, 5, 69, 100
1, 20280, Note_on_c, 5, 69, 0
1, 20280, Note_on_c, 1, 73, 0
1, 20280, Note_on_c, 0, 67, 0
1, 20280, Note_on_c, 0, 55, 0
1, 20280, Note_on_c, 1, 69, 0
1, 20280, Note_on_c, 9, 46, 0
1, 20280, Note_on_c, 9, 36, 0
1, 20280, Note_on_c, 3, 82, 0
1, 20280, Note_on_c, 0, 65, 100
1, 20280, Note_on_c, 0, 43, 100
1, 20280, Note_on_c, 1, 70, 100
1, 20280, Note_on_c, 1, 74, 100
1, 20280, Note_on_c, 2, 43, 100
1, 20280, Note_on_c, 3, 81, 100
1, 20280, Note_on_c, 5, 70, 100
1, 20280, Note_on_c, 9, 36, 100
1, 20280, Note_on_c, 9, 38, 100
1, 20280, Note_on_c, 9, 46, 100
1, 20310, Note_on_c, 5, 70, 0
1, 20310, Note_on_c, 3, 81, 0
1, 20310, Note_on_c, 3, 79, 100
1, 20310, Note_on_c, 5, 69, 100
1, 20340, Note_on_c, 5, 69, 0
1, 20340, Note_on_c, 1, 74, 0
1, 20340, Note_on_c, 9, 46, 0
1, 20340, Note_on_c, 0, 65, 0
1, 20340, Note_on_c, 2, 43, 0
1, 20340, Note_on_c, 0, 43, 0
1, 20340, Note_on_c, 1, 70, 0
1, 20340, Note_on_c, 0, 67, 100
1, 20340, Note_on_c, 0, 55, 100
1, 20340, Note_on_c, 5, 67, 100
1, 20340, Note_on_c, 9, 46, 100
1, 20370, Note_on_c, 5, 67, 0
1, 20370, Note_on_c, 3, 79, 0
1, 20370, Note_on_c, 3, 79, 100
1, 20370, Note_on_c, 5, 65, 100
1, 20400, Note_on_c, 5, 65, 0
1, 20400, Note_on_c, 9, 46, 0
1, 20400, Note_on_c, 0, 55, 0
1, 20400, Note_on_c, 0, 67, 0
1, 20400, Note_on_c, 9, 36, 0
1, 20400, Note_on_c, 9, 38, 0
1, 20400, Note_on_c, 0, 74, 100
1, 20400, Note_on_c, 0, 69, 100
1, 20400, Note_on_c, 0, 43, 100
1, 20400, Note_on_c, 1, 69, 100
1, 20400, Note_on_c, 2, 43, 100
1, 20400, Note_on_c, 5, 67, 100
1, 20400, Note_on_c, 9, 36, 100
1, 20400, Note_on_c, 9, 46, 100
1, 20430, Note_on_c, 5, 67, 0
1, 20430, Note_on_c, 0, 69, 0
1, 20430, Note_on_c, 1, 69, 0
1, 20430, Note_on_c, 0, 70, 100
1, 20430, Note_on_c, 1, 70, 100
1, 20430, Note_on_c, 5, 65, 100
1, 20460, Note_on_c, 5, 65, 0
1, 20460, Note_on_c, 9, 46, 0
1, 20460, Note_on_c, 1, 70, 0
1, 20460, Note_on_c, 9, 36, 0
1, 20460, Note_on_c, 0, 43, 0
1, 20460, Note_on_c, 2, 43, 0
1, 20460, Note_on_c, 0, 55, 100
1, 20460, Note_on_c, 1, 67, 100
1, 20460, Note_on_c, 5, 62, 100
1, 20460, Note_on_c, 9, 36, 100
1, 20460, Note_on_c, 9, 46, 100
1, 20490, Note_on_c, 9, 36, 0
1, 20490, Note_on_c, 0, 74, 0
1, 20490, Note_on_c, 1, 67, 0
1, 20490, Note_on_c, 0, 70, 0
1, 20490, Note_on_c, 5, 62, 0
1, 20490, Note_on_c, 0, 74, 100
1, 20490, Note_on_c, 0, 67, 100
1, 20490, Note_on_c, 1, 65, 100
1, 20490, Note_on_c, 5, 65, 100
1, 20490, Note_on_c, 9, 36, 100
1, 20520, Note_on_c, 9, 36, 0
1, 20520, Note_on_c, 5, 65, 0
1, 20520, Note_on_c, 9, 46, 0
1, 20520, Note_on_c, 0, 55, 0
1, 20520, Note_on_c, 3, 79, 0
1, 20520, Note_on_c, 1, 65, 0
1, 20520, Note_on_c, 0, 43, 100
1, 20520, Note_on_c, 1, 62, 100
1, 20520, Note_on_c, 2, 43, 100
1, 20520, Note_on_c, 3, 77, 100
1, 20520, Note_on_c, 5, 67, 100
1, 20520, Note_on_c, 9, 36, 100
1, 20520, Note_on_c, 9, 40, 100
1, 20520, Note_on_c, 9, 46, 100
1, 20540, Note_on_c, 3, 77, 0
1, 20540, Note_on_c, 3, 79, 100
1, 20550, Note_on_c, 0, 74, 0
1, 20550, Note_on_c, 0, 67, 0
1, 20550, Note_on_c, 5, 67, 0
1, 20550, Note_on_c, 1, 62, 0
1, 20550, Note_on_c, 0, 65, 100
1, 20550, Note_on_c, 1, 65, 100
1, 20550, Note_on_c, 5, 65, 100
1, 20560, Note_on_c, 3, 79, 0
1, 20560, Note_on_c, 3, 79, 100
1, 20580, Note_on_c, 3, 79, 0
1, 20580, Note_on_c, 1, 65, 0
1, 20580, Note_on_c, 2, 43, 0
1, 20580, Note_on_c, 0, 43, 0
1, 20580, Note_on_c, 5, 65, 0
1, 20580, Note_on_c, 9, 46, 0
1, 20580, Note_on_c, 0, 65, 0
1, 20580, Note_on_c, 0, 62, 100
1, 20580, Note_on_c, 0, 55, 100
1, 20580, Note_on_c, 1, 67, 100
1, 20580, Note_on_c, 3, 79, 100
1, 20580, Note_on_c, 5, 67, 100
1, 20580, Note_on_c, 9, 46, 100
1, 20610, Note_on_c, 5, 67, 0
1, 20610, Note_on_c, 0, 62, 0
1, 20610, Note_on_c, 5, 72, 100
1, 20640, Note_on_c, 5, 72, 0
1, 20640, Note_on_c, 9, 36, 0
1, 20640, Note_on_c, 9, 40, 0
1, 20640, Note_on_c, 0, 55, 0
1, 20640, Note_on_c, 1, 67, 0
1, 20640, Note_on_c, 3, 79, 0
1, 20640, Note_on_c, 9, 46, 0
1, 20640, Note_on_c, 0, 43, 100
1, 20640, Note_on_c, 2, 43, 100
1, 20640, Note_on_c, 3, 82, 100
1, 20640, Note_on_c, 5, 70, 100
1, 20640, Note_on_c, 9, 36, 100
1, 20640, Note_on_c, 9, 46, 100
1, 20700, Note_on_c, 9, 46, 0
1, 20700, Note_on_c, 5, 70, 0
1, 20700, Note_on_c, 2, 43, 0
1, 20700, Note_on_c, 0, 43, 0
1, 20700, Note_on_c, 9, 36, 0
1, 20700, Note_on_c, 0, 67, 100
1, 20700, Note_on_c, 0, 55, 100
1, 20700, Note_on_c, 1, 69, 100
1, 20700, Note_on_c, 1, 73, 100
1, 20700, Note_on_c, 5, 72, 100
1, 20700, Note_on_c, 9, 36, 100
1, 20700, Note_on_c, 9, 46, 100
1, 20760, Note_on_c, 9, 46, 0
1, 20760, Note_on_c, 3, 82, 0
1, 20760, Note_on_c, 1, 73, 0
1, 20760, Note_on_c, 0, 67, 0
1, 20760, Note_on_c, 0, 55, 0
1, 20760, Note_on_c, 1, 69, 0
1, 20760, Note_on_c, 5, 72, 0
1, 20760, Note_on_c, 9, 36, 0
1, 20760, Note_on_c, 0, 65, 100
1, 20760, Note_on_c, 0, 43, 100
1, 20760, Note_on_c, 1, 70, 100
1, 20760, Note_on_c, 1, 74, 100
1, 20760, Note_on_c, 2, 43, 100
1, 20760, Note_on_c, 5, 74, 100
1, 20760, Note_on_c, 9, 36, 100
1, 20760, Note_on_c, 9, 38, 100
1, 20760, Note_on_c, 9, 46, 100
1, 20820, Note_on_c, 9, 46, 0
1, 20820, Note_on_c, 0, 65, 0
1, 20820, Note_on_c, 5, 74, 0
1, 20820, Note_on_c, 1, 74, 0
1, 20820, Note_on_c, 0, 43, 0
1, 20820, Note_on_c, 1, 70, 0
1, 20820, Note_on_c, 2, 43, 0
1, 20820, Note_on_c, 0, 67, 100
1, 20820, Note_on_c, 0, 55, 100
1, 20820, Note_on_c, 9, 46, 100
1, 20880, Note_on_c, 9, 46, 0
1, 20880, Note_on_c, 0, 67, 0
1, 20880, Note_on_c, 9, 36, 0
1, 20880, Note_on_c, 9, 38, 0
1, 20880, Note_on_c, 0, 55, 0
1, 20880, Note_on_c, 0, 74, 100
1, 20880, Note_on_c, 0, 69, 100
1, 20880, Note_on_c, 0, 43, 100
1, 20880, Note_on_c, 1, 69, 100
1, 20880, Note_on_c, 2, 43, 100
1, 20880, Note_on_c, 9, 36, 100
1, 20880, Note_on_c, 9, 46, 100
1, 20910, Note_on_c, 1, 69, 0
1, 20910, Note_on_c, 0, 69, 0
1, 20910, Note_on_c, 0, 70, 100
1, 20910, Note_on_c, 1, 70, 100
1, 20940, Note_on_c, 1, 70, 0
1, 20940, Note_on_c, 9, 46, 0
1, 20940, Note_on_c, 9, 36, 0
1, 20940, Note_on_c, 2, 43, 0
1, 20940, Note_on_c, 0, 43, 0
1, 20940, Note_on_c, 0, 55, 100
1, 20940, Note_on_c, 1, 67, 100
1, 20940, Note_on_c, 2, 43, 100
1, 20940, Note_on_c, 9, 36, 100
1, 20940, Note_on_c, 9, 46, 100
1, 20970, Note_on_c, 9, 36, 0
1, 20970, Note_on_c, 1, 67, 0
1, 20970, Note_on_c, 0, 70, 0
1, 20970, Note_on_c, 0, 74, 0
1, 20970, Note_on_c, 2, 43, 0
1, 20970, Note_on_c, 0, 74, 100
1, 20970, Note_on_c, 0, 67, 100
1, 20970, Note_on_c, 1, 65, 100
1, 20970, Note_on_c, 2, 43, 100
1, 20970, Note_on_c, 9, 36, 100
1, 21000, Note_on_c, 9, 36, 0
1, 21000, Note_on_c, 1, 65, 0
1, 21000, Note_on_c, 9, 46, 0
1, 21000, Note_on_c, 0, 55, 0
1, 21000, Note_on_c, 2, 43, 0
1, 21000, Note_on_c, 0, 43, 100
1, 21000, Note_on_c, 1, 62, 100
1, 21000, Note_on_c, 2, 43, 100
1, 21000, Note_on_c, 3, 77, 100
1, 21000, Note_on_c, 9, 36, 100
1, 21000, Note_on_c, 9, 40, 100
1, 21000, Note_on_c, 9, 46, 100
1, 21020, Note_on_c, 3, 77, 0
1, 21020, Note_on_c, 3, 79, 100
1, 21030, Note_on_c, 0, 67, 0
1, 21030, Note_on_c, 0, 74, 0
1, 21030, Note_on_c, 1, 62, 0
1, 21030, Note_on_c, 0, 65, 100
1, 21030, Note_on_c, 1, 65, 100
1, 21040, Note_on_c, 3, 79, 0
1, 21040, Note_on_c, 3, 79, 100
1, 21060, Note_on_c, 3, 79, 0
1, 21060, Note_on_c, 1, 65, 0
1, 21060, Note_on_c, 0, 43, 0
1, 21060, Note_on_c, 9, 46, 0
1, 21060, Note_on_c, 2, 43, 0
1, 21060, Note_on_c, 0, 65, 0
1, 21060, Note_on_c, 0, 62, 100
1, 21060, Note_on_c, 0, 55, 100
1, 21060, Note_on_c, 1, 67, 100
1, 21060, Note_on_c, 3, 79, 100
1, 21060, Note_on_c, 9, 46, 100
1, 21090, Note_on_c, 0, 62, 0
1, 21120, Note_on_c, 9, 36, 0
1, 21120, Note_on_c, 1, 67, 0
1, 21120, Note_on_c, 0, 55, 0
1, 21120, Note_on_c, 9, 40, 0
1, 21120, Note_on_c, 9, 46, 0
1, 21120, Note_on_c, 0, 43, 100
1, 21120, Note_on_c, 2, 43, 100
1, 21120, Note_on_c, 9, 36, 100
1, 21120, Note_on_c, 9, 46, 100
1, 21180, Note_on_c, 9, 46, 0
1, 21180, Note_on_c, 2, 43, 0
1, 21180, Note_on_c, 3, 79, 0
1, 21180, Note_on_c, 0, 43, 0
1, 21180, Note_on_c, 9, 36, 0
1, 21180, Note_on_c, 0, 67, 100
1, 21180, Note_on_c, 0, 55, 100
1, 21180, Note_on_c, 1, 69, 100
1, 21180, Note_on_c, 1, 73, 100
1, 21180, Note_on_c, 3, 79, 100
1, 21180, Note_on_c, 9, 36, 100
1, 21180, Note_on_c, 9, 46, 100
1, 21240, Note_on_c, 9, 46, 0
1, 21240, Note_on_c, 3, 79, 0
1, 21240, Note_on_c, 0, 55, 0
1, 21240, Note_on_c, 1, 69, 0
1, 21240, Note_on_c, 0, 67, 0
1, 21240, Note_on_c, 9, 36, 0
1, 21240, Note_on_c, 1, 73, 0
1, 21240, Note_on_c, 0, 65, 100
1, 21240, Note_on_c, 0, 43, 100
1, 21240, Note_on_c, 1, 70, 100
1, 21240, Note_on_c, 1, 74, 100
1, 21240, Note_on_c, 2, 43, 100
1, 21240, Note_on_c, 9, 36, 100
1, 21240, Note_on_c, 9, 38, 100
1, 21240, Note_on_c, 9, 46, 100
1, 21300, Note_on_c, 9, 46, 0
1, 21300, Note_on_c, 0, 65, 0
1, 21300, Note_on_c, 2, 43, 0
1, 21300, Note_on_c, 1, 74, 0
1, 21300, Note_on_c, 1, 70, 0
1, 21300, Note_on_c, 0, 43, 0
1, 21300, Note_on_c, 0, 67, 100
1, 21300, Note_on_c, 0, 55, 100
1, 21300, Note_on_c, 9, 46, 100
1, 21360, Note_on_c, 9, 46, 0
1, 21360, Note_on_c, 0, 67, 0
1, 21360, Note_on_c, 9, 36, 0
1, 21360, Note_on_c, 9, 38, 0
1, 21360, Note_on_c, 0, 55, 0
1, 21360, Note_on_c, 0, 74, 100
1, 21360, Note_on_c, 0, 69, 100
1, 21360, Note_on_c, 0, 43, 100
1, 21360, Note_on_c, 1, 69, 100
1, 21360, Note_on_c, 2, 43, 100
1, 21360, Note_on_c, 9, 36, 100
1, 21360, Note_on_c, 9, 46, 100
1, 21390, Note_on_c, 1, 69, 0
1, 21390, Note_on_c, 0, 69, 0
1, 21390, Note_on_c, 0, 70, 100
1, 21390, Note_on_c, 1, 70, 100
1, 21420, Note_on_c, 1, 70, 0
1, 21420, Note_on_c, 9, 46, 0
1, 21420, Note_on_c, 9, 36, 0
1, 21420, Note_on_c, 2, 43, 0
1, 21420, Note_on_c, 0, 43, 0
1, 21420, Note_on_c, 0, 55, 100
1, 21420, Note_on_c, 1, 67, 100
1, 21420, Note_on_c, 2, 43, 100
1, 21420, Note_on_c, 9, 36, 100
1, 21420, Note_on_c, 9, 46, 100
1, 21450, Note_on_c, 9, 36, 0
1, 21450, Note_on_c, 1, 67, 0
1, 21450, Note_on_c, 0, 70, 0
1, 21450, Note_on_c, 0, 74, 0
1, 21450, Note_on_c, 2, 43, 0
1, 21450, Note_on_c, 0, 74, 100
1, 21450, Note_on_c, 0, 67, 100
1, 21450, Note_on_c, 1, 65, 100
1, 21450, Note_on_c, 2, 43, 100
1, 21450, Note_on_c, 9, 36, 100
1, 21480, Note_on_c, 9, 36, 0
1, 21480, Note_on_c, 1, 65, 0
1, 21480, Note_on_c, 9, 46, 0
1, 21480, Note_on_c, 0, 55, 0
1, 21480, Note_on_c, 2, 43, 0
1, 21480, Note_on_c, 0, 43, 100
1, 21480, Note_on_c, 1, 62, 100
1, 21480, Note_on_c, 2, 43, 100
1, 21480, Note_on_c, 3, 77, 100
1, 21480, Note_on_c, 9, 36, 100
1, 21480, Note_on_c, 9, 40, 100
1, 21480, Note_on_c, 9, 46, 100
1, 21500, Note_on_c, 3, 77, 0
1, 21500, Note_on_c, 3, 79, 100
1, 21510, Note_on_c, 0, 67, 0
1, 21510, Note_on_c, 0, 74, 0
1, 21510, Note_on_c, 1, 62, 0
1, 21510, Note_on_c, 0, 65, 100
1, 21510, Note_on_c, 1, 65, 100
1, 21520, Note_on_c, 3, 79, 0
1, 21520, Note_on_c, 3, 79, 100
1, 21540, Note_on_c, 3, 79, 0
1, 21540, Note_on_c, 1, 65, 0
1, 21540, Note_on_c, 0, 43, 0
1, 21540, Note_on_c, 9, 46, 0
1, 21540, Note_on_c, 2, 43, 0
1, 21540, Note_on_c, 0, 65, 0
1, 21540, Note_on_c, 0, 62, 100
1, 21540, Note_on_c, 0, 55, 100
1, 21540, Note_on_c, 1, 67, 100
1, 21540, Note_on_c, 3, 79, 100
1, 21540, Note_on_c, 9, 46, 100
1, 21570, Note_on_c, 0, 62, 0
1, 21600, Note_on_c, 3, 79, 0
1, 21600, Note_on_c, 9, 36, 0
1, 21600, Note_on_c, 0, 55, 0
1, 21600, Note_on_c, 9, 40, 0
1, 21600, Note_on_c, 9, 46, 0
1, 21600, Note_on_c, 1, 67, 0
1, 21600, Note_on_c, 0, 46, 100
1, 21600, Note_on_c, 0, 65, 100
1, 21600, Note_on_c, 0, 74, 100
1, 21600, Note_on_c, 0, 70, 100
1, 21600, Note_on_c, 1, 74, 100
1, 21600, Note_on_c, 2, 46, 100
1, 21600, Note_on_c, 5, 74, 100
1, 21600, Note_on_c, 9, 36, 100
1, 21600, Note_on_c, 9, 49, 100
1, 21630, Note_on_c, 5, 74, 0
1, 21630, Note_on_c, 1, 74, 0
1, 21630, Note_on_c, 1, 74, 100
1, 21630, Note_on_c, 5, 74, 100
1, 21660, Note_on_c, 9, 49, 0
1, 21660, Note_on_c, 9, 36, 0
1, 21660, Note_on_c, 9, 36, 100
1, 21660, Note_on_c, 9, 46, 100
1, 21690, Note_on_c, 1, 82, 100
1, 21690, Note_on_c, 5, 82, 100
1, 21720, Note_on_c, 9, 46, 0
1, 21720, Note_on_c, 9, 36, 0
1, 21720, Note_on_c, 9, 38, 100
1, 21720, Note_on_c, 9, 46, 100
1, 21750, Note_on_c, 1, 82, 0
1, 21750, Note_on_c, 5, 82, 0
1, 21750, Note_on_c, 1, 82, 100
1, 21750, Note_on_c, 5, 82, 100
1, 21780, Note_on_c, 5, 82, 0
1, 21780, Note_on_c, 9, 46, 0
1, 21780, Note_on_c, 1, 82, 0
1, 21780, Note_on_c, 0, 46, 0
1, 21780, Note_on_c, 0, 46, 100
1, 21780, Note_on_c, 1, 74, 100
1, 21780, Note_on_c, 5, 74, 100
1, 21780, Note_on_c, 9, 46, 100
1, 21810, Note_on_c, 9, 38, 0
1, 21810, Note_on_c, 9, 36, 100
1, 21840, Note_on_c, 9, 36, 0
1, 21840, Note_on_c, 5, 74, 0
1, 21840, Note_on_c, 0, 70, 0
1, 21840, Note_on_c, 5, 74, 0
1, 21840, Note_on_c, 1, 74, 0
1, 21840, Note_on_c, 2, 46, 0
1, 21840, Note_on_c, 0, 74, 0
1, 21840, Note_on_c, 9, 46, 0
1, 21840, Note_on_c, 0, 46, 0
1, 21840, Note_on_c, 0, 65, 0
1, 21840, Note_on_c, 1, 74, 0
1, 21840, Note_on_c, 0, 48, 100
1, 21840, Note_on_c, 0, 76, 100
1, 21840, Note_on_c, 0, 72, 100
1, 21840, Note_on_c, 0, 67, 100
1, 21840, Note_on_c, 1, 74, 100
1, 21840, Note_on_c, 2, 48, 100
1, 21840, Note_on_c, 5, 74, 100
1, 21840, Note_on_c, 9, 36, 100
1, 21840, Note_on_c, 9, 46, 100
1, 21870, Note_on_c, 5, 74, 0
1, 21870, Note_on_c, 1, 74, 0
1, 21870, Note_on_c, 1, 76, 100
1, 21870, Note_on_c, 5, 76, 100
1, 21900, Note_on_c, 9, 46, 0
1, 21900, Note_on_c, 9, 36, 0
1, 21900, Note_on_c, 9, 36, 100
1, 21900, Note_on_c, 9, 46, 100
1, 21930, Note_on_c, 1, 84, 100
1, 21930, Note_on_c, 5, 84, 100
1, 21960, Note_on_c, 9, 46, 0
1, 21960, Note_on_c, 9, 36, 0
1, 21960, Note_on_c, 1, 76, 0
1, 21960, Note_on_c, 5, 76, 0
1, 21960, Note_on_c, 1, 76, 100
1, 21960, Note_on_c, 5, 76, 100
1, 21960, Note_on_c, 9, 46, 100
1, 21990, Note_on_c, 1, 84, 0
1, 21990, Note_on_c, 5, 84, 0
1, 21990, Note_on_c, 1, 84, 100
1, 21990, Note_on_c, 5, 84, 100
1, 21990, Note_on_c, 9, 38, 100
1, 22005, Note_on_c, 9, 38, 0
1, 22005, Note_on_c, 9, 38, 100
1, 22020, Note_on_c, 9, 38, 0
1, 22020, Note_on_c, 1, 84, 0
1, 22020, Note_on_c, 0, 48, 0
1, 22020, Note_on_c, 5, 84, 0
1, 22020, Note_on_c, 0, 48, 100
1, 22020, Note_on_c, 1, 76, 100
1, 22020, Note_on_c, 5, 76, 100
1, 22020, Note_on_c, 9, 38, 100
1, 22035, Note_on_c, 9, 38, 0
1, 22035, Note_on_c, 9, 38, 100
1, 22050, Note_on_c, 9, 38, 0
1, 22050, Note_on_c, 9, 38, 100
1, 22065, Note_on_c, 9, 38, 0
1, 22065, Note_on_c, 9, 38, 100
1, 22080, Note_on_c, 9, 38, 0
1, 22080, Note_on_c, 0, 48, 0
1, 22080, Note_on_c, 9, 46, 0
1, 22080, Note_on_c, 5, 76, 0
1, 22080, Note_on_c, 0, 76, 0
1, 22080, Note_on_c, 2, 48, 0
1, 22080, Note_on_c, 0, 72, 0
1, 22080, Note_on_c, 1, 76, 0
1, 22080, Note_on_c, 0, 67, 0
1, 22080, Note_on_c, 1, 76, 0
1, 22080, Note_on_c, 5, 76, 0
1, 22080, Note_on_c, 0, 43, 100
1, 22080, Note_on_c, 2, 43, 100
1, 22080, Note_on_c, 9, 36, 100
1, 22080, Note_on_c, 9, 49, 100
1, 22140, Note_on_c, 9, 49, 0
1, 22140, Note_on_c, 0, 43, 0
1, 22140, Note_on_c, 2, 43, 0
1, 22140, Note_on_c, 0, 67, 100
1, 22140, Note_on_c, 0, 55, 100
1, 22140, Note_on_c, 1, 86, 100
1, 22140, Note_on_c, 1, 81, 100
1, 22140, Note_on_c, 5, 86, 100
1, 22140, Note_on_c, 5, 81, 100
1, 22140, Note_on_c, 9, 46, 100
1, 22200, Note_on_c, 9, 46, 0
1, 22200, Note_on_c, 9, 36, 0
1, 22200, Note_on_c, 1, 81, 0
1, 22200, Note_on_c, 0, 67, 0
1, 22200, Note_on_c, 0, 55, 0
1, 22200, Note_on_c, 1, 86, 0
1, 22200, Note_on_c, 5, 86, 0
1, 22200, Note_on_c, 5, 81, 0
1, 22200, Note_on_c, 0, 65, 100
1, 22200, Note_on_c, 0, 43, 100
1, 22200, Note_on_c, 1, 86, 100
1, 22200, Note_on_c, 1, 82, 100
1, 22200, Note_on_c, 2, 43, 100
1, 22200, Note_on_c, 5, 86, 100
1, 22200, Note_on_c, 5, 82, 100
1, 22200, Note_on_c, 9, 36, 100
1, 22200, Note_on_c, 9, 38, 100
1, 22200, Note_on_c, 9, 46, 100
1, 22260, Note_on_c, 9, 46, 0
1, 22260, Note_on_c, 1, 86, 0
1, 22260, Note_on_c, 5, 82, 0
1, 22260, Note_on_c, 0, 65, 0
1, 22260, Note_on_c, 2, 43, 0
1, 22260, Note_on_c, 0, 43, 0
1, 22260, Note_on_c, 1, 82, 0
1, 22260, Note_on_c, 5, 86, 0
1, 22260, Note_on_c, 0, 67, 100
1, 22260, Note_on_c, 0, 55, 100
1, 22260, Note_on_c, 9, 46, 100
1, 22320, Note_on_c, 9, 46, 0
1, 22320, Note_on_c, 0, 67, 0
1, 22320, Note_on_c, 9, 36, 0
1, 22320, Note_on_c, 9, 38, 0
1, 22320, Note_on_c, 0, 55, 0
1, 22320, Note_on_c, 0, 74, 100
1, 22320, Note_on_c, 0, 69, 100
1, 22320, Note_on_c, 0, 43, 100
1, 22320, Note_on_c, 1, 81, 100
1, 22320, Note_on_c, 2, 43, 100
1, 22320, Note_on_c, 5, 81, 100
1, 22320, Note_on_c, 9, 36, 100
1, 22320, Note_on_c, 9, 46, 100
1, 22350, Note_on_c, 5, 81, 0
1, 22350, Note_on_c, 0, 69, 0
1, 22350, Note_on_c, 1, 81, 0
1, 22350, Note_on_c, 0, 70, 100
1, 22350, Note_on_c, 1, 82, 100
1, 22350, Note_on_c, 5, 82, 100
1, 22380, Note_on_c, 5, 82, 0
1, 22380, Note_on_c, 1, 82, 0
1, 22380, Note_on_c, 9, 36, 0
1, 22380, Note_on_c, 9, 46, 0
1, 22380, Note_on_c, 2, 43, 0
1, 22380, Note_on_c, 0, 43, 0
1, 22380, Note_on_c, 0, 55, 100
1, 22380, Note_on_c, 1, 79, 100
1, 22380, Note_on_c, 5, 79, 100
1, 22380, Note_on_c, 9, 36, 100
1, 22380, Note_on_c, 9, 46, 100
1, 22410, Note_on_c, 9, 36, 0
1, 22410, Note_on_c, 1, 79, 0
1, 22410, Note_on_c, 0, 70, 0
1, 22410, Note_on_c, 0, 74, 0
1, 22410, Note_on_c, 5, 79, 0
1, 22410, Note_on_c, 0, 74, 100
1, 22410, Note_on_c, 0, 67, 100
1, 22410, Note_on_c, 1, 77, 100
1, 22410, Note_on_c, 5, 77, 100
1, 22410, Note_on_c, 9, 36, 100
1, 22440, Note_on_c, 9, 36, 0
1, 22440, Note_on_c, 1, 77, 0
1, 22440, Note_on_c, 9, 46, 0
1, 22440, Note_on_c, 0, 55, 0
1, 22440, Note_on_c, 5, 77, 0
1, 22440, Note_on_c, 0, 43, 100
1, 22440, Note_on_c, 1, 74, 100
1, 22440, Note_on_c, 2, 43, 100
1, 22440, Note_on_c, 5, 74, 100
1, 22440, Note_on_c, 9, 36, 100
1, 22440, Note_on_c, 9, 40, 100
1, 22440, Note_on_c, 9, 46, 100
1, 22470, Note_on_c, 5, 74, 0
1, 22470, Note_on_c, 0, 67, 0
1, 22470, Note_on_c, 0, 74, 0
1, 22470, Note_on_c, 1, 74, 0
1, 22470, Note_on_c, 0, 65, 100
1, 22470, Note_on_c, 1, 77, 100
1, 22470, Note_on_c, 5, 77, 100
1, 22500, Note_on_c, 5, 77, 0
1, 22500, Note_on_c, 1, 77, 0
1, 22500, Note_on_c, 9, 46, 0
1, 22500, Note_on_c, 0, 43, 0
1, 22500, Note_on_c, 2, 43, 0
1, 22500, Note_on_c, 0, 65, 0
1, 22500, Note_on_c, 0, 62, 100
1, 22500, Note_on_c, 0, 55, 100
1, 22500, Note_on_c, 1, 79, 100
1, 22500, Note_on_c, 5, 79, 100
1, 22500, Note_on_c, 9, 46, 100
1, 22530, Note_on_c, 0, 62, 0
1, 22560, Note_on_c, 5, 79, 0
1, 22560, Note_on_c, 9, 40, 0
1, 22560, Note_on_c, 0, 55, 0
1, 22560, Note_on_c, 9, 36, 0
1, 22560, Note_on_c, 9, 46, 0
1, 22560, Note_on_c, 1, 79, 0
1, 22560, Note_on_c, 0, 43, 100
1, 22560, Note_on_c, 2, 43, 100
1, 22560, Note_on_c, 9, 36, 100
1, 22560, Note_on_c, 9, 46, 100
1, 22620, Note_on_c, 9, 46, 0
1, 22620, Note_on_c, 0, 43, 0
1, 22620, Note_on_c, 2, 43, 0
1, 22620, Note_on_c, 9, 36, 0
1, 22620, Note_on_c, 0, 67, 100
1, 22620, Note_on_c, 0, 55, 100
1, 22620, Note_on_c, 1, 86, 100
1, 22620, Note_on_c, 1, 81, 100
1, 22620, Note_on_c, 5, 86, 100
1, 22620, Note_on_c, 5, 81, 100
1, 22620, Note_on_c, 9, 36, 100
1, 22620, Note_on_c, 9, 46, 100
1, 22680, Note_on_c, 9, 46, 0
1, 22680, Note_on_c, 0, 67, 0
1, 22680, Note_on_c, 5, 86, 0
1, 22680, Note_on_c, 0, 55, 0
1, 22680, Note_on_c, 1, 86, 0
1, 22680, Note_on_c, 1, 81, 0
1, 22680, Note_on_c, 5, 81, 0
1, 22680, Note_on_c, 9, 36, 0
1, 22680, Note_on_c, 0, 65, 100
1, 22680, Note_on_c, 0, 43, 100
1, 22680, Note_on_c, 1, 86, 100
1, 22680, Note_on_c, 1, 82, 100
1, 22680, Note_on_c, 2, 43, 100
1, 22680, Note_on_c, 5, 86, 100
1, 22680, Note_on_c, 5, 82, 100
1, 22680, Note_on_c, 9, 36, 100
1, 22680, Note_on_c, 9, 38, 100
1, 22680, Note_on_c, 9, 46, 100
1, 22740, Note_on_c, 9, 46, 0
1, 22740, Note_on_c, 1, 86, 0
1, 22740, Note_on_c, 5, 82, 0
1, 22740, Note_on_c, 0, 65, 0
1, 22740, Note_on_c, 2, 43, 0
1, 22740, Note_on_c, 0, 43, 0
1, 22740, Note_on_c, 1, 82, 0
1, 22740, Note_on_c, 5, 86, 0
1, 22740, Note_on_c, 0, 67, 100
1, 22740, Note_on_c, 0, 55, 100
1, 22740, Note_on_c, 9, 46, 100
1, 22800, Note_on_c, 9, 46, 0
1, 22800, Note_on_c, 0, 67, 0
1, 22800, Note_on_c, 9, 36, 0
1, 22800, Note_on_c, 9, 38, 0
1, 22800, Note_on_c, 0, 55, 0
1, 22800, Note_on_c, 0, 74, 100
1, 22800, Note_on_c, 0, 69, 100
1, 22800, Note_on_c, 0, 43, 100
1, 22800, Note_on_c, 1, 81, 100
1, 22800, Note_on_c, 2, 43, 100
1, 22800, Note_on_c, 5, 81, 100
1, 22800, Note_on_c, 9, 36, 100
1, 22800, Note_on_c, 9, 46, 100
1, 22830, Note_on_c, 5, 81, 0
1, 22830, Note_on_c, 0, 69, 0
1, 22830, Note_on_c, 1, 81, 0
1, 22830, Note_on_c, 0, 70, 100
1, 22830, Note_on_c, 1, 82, 100
1, 22830, Note_on_c, 5, 82, 100
1, 22860, Note_on_c, 5, 82, 0
1, 22860, Note_on_c, 1, 82, 0
1, 22860, Note_on_c, 9, 36, 0
1, 22860, Note_on_c, 9, 46, 0
1, 22860, Note_on_c, 2, 43, 0
1, 22860, Note_on_c, 0, 43, 0
1, 22860, Note_on_c, 0, 55, 100
1, 22860, Note_on_c, 1, 79, 100
1, 22860, Note_on_c, 5, 79, 100
1, 22860, Note_on_c, 9, 36, 100
1, 22860, Note_on_c, 9, 46, 100
1, 22890, Note_on_c, 9, 36, 0
1, 22890, Note_on_c, 1, 79, 0
1, 22890, Note_on_c, 0, 70, 0
1, 22890, Note_on_c, 0, 74, 0
1, 22890, Note_on_c, 5, 79, 0
1, 22890, Note_on_c, 0, 74, 100
1, 22890, Note_on_c, 0, 65, 100
1, 22890, Note_on_c, 1, 77, 100
1, 22890, Note_on_c, 5, 77, 100
1, 22890, Note_on_c, 9, 36, 100
1, 22920, Note_on_c, 9, 36, 0
1, 22920, Note_on_c, 1, 77, 0
1, 22920, Note_on_c, 9, 46, 0
1, 22920, Note_on_c, 0, 55, 0
1, 22920, Note_on_c, 5, 77, 0
1, 22920, Note_on_c, 0, 43, 100
1, 22920, Note_on_c, 1, 74, 100
1, 22920, Note_on_c, 2, 43, 100
1, 22920, Note_on_c, 5, 74, 100
1, 22920, Note_on_c, 9, 36, 100
1, 22920, Note_on_c, 9, 40, 100
1, 22920, Note_on_c, 9, 46, 100
1, 22950, Note_on_c, 5, 74, 0
1, 22950, Note_on_c, 0, 65, 0
1, 22950, Note_on_c, 0, 74, 0
1, 22950, Note_on_c, 1, 74, 0
1, 22950, Note_on_c, 0, 72, 100
1, 22950, Note_on_c, 0, 65, 100
1, 22950, Note_on_c, 1, 77, 100
1, 22950, Note_on_c, 5, 77, 100
1, 22980, Note_on_c, 5, 77, 0
1, 22980, Note_on_c, 2, 43, 0
1, 22980, Note_on_c, 1, 77, 0
1, 22980, Note_on_c, 0, 72, 0
1, 22980, Note_on_c, 0, 43, 0
1, 22980, Note_on_c, 9, 46, 0
1, 22980, Note_on_c, 0, 70, 100
1, 22980, Note_on_c, 0, 55, 100
1, 22980, Note_on_c, 1, 79, 100
1, 22980, Note_on_c, 5, 79, 100
1, 22980, Note_on_c, 9, 46, 100
1, 23010, Note_on_c, 0, 70, 0
1, 23010, Note_on_c, 0, 65, 0
1, 23010, Note_on_c, 0, 70, 100
1, 23010, Note_on_c, 0, 65, 100
1, 23040, Note_on_c, 0, 65, 0
1, 23040, Note_on_c, 9, 46, 0
1, 23040, Note_on_c, 5, 79, 0
1, 23040, Note_on_c, 9, 36, 0
1, 23040, Note_on_c, 0, 55, 0
1, 23040, Note_on_c, 9, 40, 0
1, 23040, Note_on_c, 1, 79, 0
1, 23040, Note_on_c, 0, 70, 0
1, 23040, Note_on_c, 0, 43, 100
1, 23040, Note_on_c, 2, 43, 100
1, 23040, Note_on_c, 3, 84, 100
1, 23040, Note_on_c, 9, 36, 100
1, 23040, Note_on_c, 9, 46, 100
1, 23100, Note_on_c, 9, 46, 0
1, 23100, Note_on_c, 3, 84, 0
1, 23100, Note_on_c, 0, 43, 0
1, 23100, Note_on_c, 2, 43, 0
1, 23100, Note_on_c, 9, 36, 0
1, 23100, Note_on_c, 0, 67, 100
1, 23100, Note_on_c, 0, 55, 100
1, 23100, Note_on_c, 1, 69, 100
1, 23100, Note_on_c, 3, 84, 100
1, 23100, Note_on_c, 9, 36, 100
1, 23100, Note_on_c, 9, 46, 100
1, 23130, Note_on_c, 3, 84, 0
1, 23130, Note_on_c, 3, 82, 100
1, 23160, Note_on_c, 0, 55, 0
1, 23160, Note_on_c, 9, 36, 0
1, 23160, Note_on_c, 1, 69, 0
1, 23160, Note_on_c, 0, 67, 0
1, 23160, Note_on_c, 9, 46, 0
1, 23160, Note_on_c, 0, 65, 100
1, 23160, Note_on_c, 0, 43, 100
1, 23160, Note_on_c, 1, 70, 100
1, 23160, Note_on_c, 2, 43, 100
1, 23160, Note_on_c, 9, 36, 100
1, 23160, Note_on_c, 9, 38, 100
1, 23160, Note_on_c, 9, 46, 100
1, 23220, Note_on_c, 9, 46, 0
1, 23220, Note_on_c, 3, 82, 0
1, 23220, Note_on_c, 2, 43, 0
1, 23220, Note_on_c, 1, 70, 0
1, 23220, Note_on_c, 0, 43, 0
1, 23220, Note_on_c, 0, 65, 0
1, 23220, Note_on_c, 0, 67, 100
1, 23220, Note_on_c, 0, 55, 100
1, 23220, Note_on_c, 3, 79, 100
1, 23220, Note_on_c, 9, 46, 100
1, 23280, Note_on_c, 9, 46, 0
1, 23280, Note_on_c, 9, 38, 0
1, 23280, Note_on_c, 0, 67, 0
1, 23280, Note_on_c, 9, 36, 0
1, 23280, Note_on_c, 3, 79, 0
1, 23280, Note_on_c, 0, 55, 0
1, 23280, Note_on_c, 0, 74, 100
1, 23280, Note_on_c, 0, 69, 100
1, 23280, Note_on_c, 0, 43, 100
1, 23280, Note_on_c, 1, 69, 100
1, 23280, Note_on_c, 2, 43, 100
1, 23280, Note_on_c, 3, 79, 100
1, 23280, Note_on_c, 5, 84, 100
1, 23280, Note_on_c, 9, 36, 100
1, 23280, Note_on_c, 9, 46, 100
1, 23310, Note_on_c, 1, 69, 0
1, 23310, Note_on_c, 0, 69, 0
1, 23310, Note_on_c, 0, 70, 100
1, 23310, Note_on_c, 1, 70, 100
1, 23340, Note_on_c, 1, 70, 0
1, 23340, Note_on_c, 9, 36, 0
1, 23340, Note_on_c, 9, 46, 0
1, 23340, Note_on_c, 2, 43, 0
1, 23340, Note_on_c, 0, 43, 0
1, 23340, Note_on_c, 3, 79, 0
1, 23340, Note_on_c, 0, 55, 100
1, 23340, Note_on_c, 1, 67, 100
1, 23340, Note_on_c, 3, 79, 100
1, 23340, Note_on_c, 9, 36, 100
1, 23340, Note_on_c, 9, 46, 100
1, 23370, Note_on_c, 9, 36, 0
1, 23370, Note_on_c, 0, 70, 0
1, 23370, Note_on_c, 0, 74, 0
1, 23370, Note_on_c, 1, 67, 0
1, 23370, Note_on_c, 0, 74, 100
1, 23370, Note_on_c, 0, 67, 100
1, 23370, Note_on_c, 1, 65, 100
1, 23370, Note_on_c, 9, 36, 100
1, 23400, Note_on_c, 9, 36, 0
1, 23400, Note_on_c, 9, 46, 0
1, 23400, Note_on_c, 3, 79, 0
1, 23400, Note_on_c, 1, 65, 0
1, 23400, Note_on_c, 5, 84, 0
1, 23400, Note_on_c, 0, 55, 0
1, 23400, Note_on_c, 0, 43, 100
1, 23400, Note_on_c, 1, 62, 100
1, 23400, Note_on_c, 2, 43, 100
1, 23400, Note_on_c, 5, 82, 100
1, 23400, Note_on_c, 9, 36, 100
1, 23400, Note_on_c, 9, 40, 100
1, 23400, Note_on_c, 9, 46, 100
1, 23430, Note_on_c, 5, 82, 0
1, 23430, Note_on_c, 0, 67, 0
1, 23430, Note_on_c, 0, 74, 0
1, 23430, Note_on_c, 1, 62, 0
1, 23430, Note_on_c, 0, 65, 100
1, 23430, Note_on_c, 1, 65, 100
1, 23430, Note_on_c, 5, 81, 100
1, 23460, Note_on_c, 5, 81, 0
1, 23460, Note_on_c, 1, 65, 0
1, 23460, Note_on_c, 9, 46, 0
1, 23460, Note_on_c, 0, 43, 0
1, 23460, Note_on_c, 2, 43, 0
1, 23460, Note_on_c, 0, 65, 0
1, 23460, Note_on_c, 0, 62, 100
1, 23460, Note_on_c, 0, 55, 100
1, 23460, Note_on_c, 1, 67, 100
1, 23460, Note_on_c, 5, 79, 100
1, 23460, Note_on_c, 9, 46, 100
1, 23490, Note_on_c, 0, 62, 0
1, 23520, Note_on_c, 9, 40, 0
1, 23520, Note_on_c, 1, 67, 0
1, 23520, Note_on_c, 0, 55, 0
1, 23520, Note_on_c, 9, 36, 0
1, 23520, Note_on_c, 9, 46, 0
1, 23520, Note_on_c, 0, 43, 100
1, 23520, Note_on_c, 2, 43, 100
1, 23520, Note_on_c, 3, 77, 100
1, 23520, Note_on_c, 9, 36, 100
1, 23520, Note_on_c, 9, 46, 100
1, 23580, Note_on_c, 9, 46, 0
1, 23580, Note_on_c, 0, 43, 0
1, 23580, Note_on_c, 2, 43, 0
1, 23580, Note_on_c, 5, 79, 0
1, 23580, Note_on_c, 9, 36, 0
1, 23580, Note_on_c, 3, 77, 0
1, 23580, Note_on_c, 0, 67, 100
1, 23580, Note_on_c, 0, 55, 100
1, 23580, Note_on_c, 1, 69, 100
1, 23580, Note_on_c, 1, 73, 100
1, 23580, Note_on_c, 3, 79, 100
1, 23580, Note_on_c, 9, 36, 100
1, 23580, Note_on_c, 9, 46, 100
1, 23610, Note_on_c, 3, 79, 0
1, 23610, Note_on_c, 3, 79, 100
1, 23640, Note_on_c, 9, 36, 0
1, 23640, Note_on_c, 1, 73, 0
1, 23640, Note_on_c, 0, 55, 0
1, 23640, Note_on_c, 1, 69, 0
1, 23640, Note_on_c, 0, 67, 0
1, 23640, Note_on_c, 9, 46, 0
1, 23640, Note_on_c, 0, 65, 100
1, 23640, Note_on_c, 0, 43, 100
1, 23640, Note_on_c, 1, 70, 100
1, 23640, Note_on_c, 1, 74, 100
1, 23640, Note_on_c, 2, 43, 100
1, 23640, Note_on_c, 9, 36, 100
1, 23640, Note_on_c, 9, 38, 100
1, 23640, Note_on_c, 9, 46, 100
1, 23700, Note_on_c, 9, 46, 0
1, 23700, Note_on_c, 3, 79, 0
1, 23700, Note_on_c, 2, 43, 0
1, 23700, Note_on_c, 1, 70, 0
1, 23700, Note_on_c, 0, 65, 0
1, 23700, Note_on_c, 0, 43, 0
1, 23700, Note_on_c, 1, 74, 0
1, 23700, Note_on_c, 0, 67, 100
1, 23700, Note_on_c, 0, 55, 100
1, 23700, Note_on_c, 3, 79, 100
1, 23700, Note_on_c, 5, 81, 100
1, 23700, Note_on_c, 9, 46, 100
1, 23730, Note_on_c, 3, 79, 0
1, 23730, Note_on_c, 3, 82, 100
1, 23760, Note_on_c, 5, 81, 0
1, 23760, Note_on_c, 0, 55, 0
1, 23760, Note_on_c, 9, 38, 0
1, 23760, Note_on_c, 0, 67, 0
1, 23760, Note_on_c, 9, 36, 0
1, 23760, Note_on_c, 9, 46, 0
1, 23760, Note_on_c, 0, 74, 100
1, 23760, Note_on_c, 0, 69, 100
1, 23760, Note_on_c, 0, 43, 100
1, 23760, Note_on_c, 1, 69, 100
1, 23760, Note_on_c, 2, 43, 100
1, 23760, Note_on_c, 5, 82, 100
1, 23760, Note_on_c, 9, 36, 100
1, 23760, Note_on_c, 9, 46, 100
1, 23790, Note_on_c, 1, 69, 0
1, 23790, Note_on_c, 0, 69, 0
1, 23790, Note_on_c, 0, 70, 100
1, 23790, Note_on_c, 1, 70, 100
1, 23820, Note_on_c, 1, 70, 0
1, 23820, Note_on_c, 9, 36, 0
1, 23820, Note_on_c, 9, 46, 0
1, 23820, Note_on_c, 2, 43, 0
1, 23820, Note_on_c, 0, 43, 0
1, 23820, Note_on_c, 5, 82, 0
1, 23820, Note_on_c, 0, 55, 100
1, 23820, Note_on_c, 1, 67, 100
1, 23820, Note_on_c, 5, 79, 100
1, 23820, Note_on_c, 9, 36, 100
1, 23820, Note_on_c, 9, 46, 100
1, 23850, Note_on_c, 9, 36, 0
1, 23850, Note_on_c, 0, 70, 0
1, 23850, Note_on_c, 0, 74, 0
1, 23850, Note_on_c, 1, 67, 0
1, 23850, Note_on_c, 0, 74, 100
1, 23850, Note_on_c, 0, 67, 100
1, 23850, Note_on_c, 1, 65, 100
1, 23850, Note_on_c, 9, 36, 100
1, 23880, Note_on_c, 9, 36, 0
1, 23880, Note_on_c, 9, 46, 0
1, 23880, Note_on_c, 3, 82, 0
1, 23880, Note_on_c, 1, 65, 0
1, 23880, Note_on_c, 5, 79, 0
1, 23880, Note_on_c, 0, 55, 0
1, 23880, Note_on_c, 0, 43, 100
1, 23880, Note_on_c, 1, 62, 100
1, 23880, Note_on_c, 2, 43, 100
1, 23880, Note_on_c, 5, 77, 100
1, 23880, Note_on_c, 9, 36, 100
1, 23880, Note_on_c, 9, 40, 100
1, 23880, Note_on_c, 9, 46, 100
1, 23910, Note_on_c, 1, 62, 0
1, 23910, Note_on_c, 0, 67, 0
1, 23910, Note_on_c, 0, 74, 0
1, 23910, Note_on_c, 0, 65, 100
1, 23910, Note_on_c, 1, 65, 100
1, 23940, Note_on_c, 1, 65, 0
1, 23940, Note_on_c, 0, 65, 0
1, 23940, Note_on_c, 5, 77, 0
1, 23940, Note_on_c, 0, 43, 0
1, 23940, Note_on_c, 2, 43, 0
1, 23940, Note_on_c, 9, 46, 0
1, 23940, Note_on_c, 0, 62, 100
1, 23940, Note_on_c, 0, 55, 100
1, 23940, Note_on_c, 1, 67, 100
1, 23940, Note_on_c, 5, 79, 100
1, 23940, Note_on_c, 9, 46, 100
1, 23970, Note_on_c, 0, 62, 0
1, 24000, Note_on_c, 9, 40, 0
1, 24000, Note_on_c, 1, 67, 0
1, 24000, Note_on_c, 0, 55, 0
1, 24000, Note_on_c, 9, 36, 0
1, 24000, Note_on_c, 9, 46, 0
1, 24000, Note_on_c, 0, 43, 100
1, 24000, Note_on_c, 2, 43, 100
1, 24000, Note_on_c, 3, 82, 100
1, 24000, Note_on_c, 9, 36, 100
1, 24000, Note_on_c, 9, 46, 100
1, 24060, Note_on_c, 9, 46, 0
1, 24060, Note_on_c, 0, 43, 0
1, 24060, Note_on_c, 2, 43, 0
1, 24060, Note_on_c, 3, 82, 0
1, 24060, Note_on_c, 9, 36, 0
1, 24060, Note_on_c, 0, 67, 100
1, 24060, Note_on_c, 0, 55, 100
1, 24060, Note_on_c, 1, 69, 100
1, 24060, Note_on_c, 1, 73, 100
1, 24060, Note_on_c, 3, 82, 100
1, 24060, Note_on_c, 9, 36, 100
1, 24060, Note_on_c, 9, 46, 100
1, 24120, Note_on_c, 9, 46, 0
1, 24120, Note_on_c, 5, 79, 0
1, 24120, Note_on_c, 1, 73, 0
1, 24120, Note_on_c, 0, 67, 0
1, 24120, Note_on_c, 0, 55, 0
1, 24120, Note_on_c, 1, 69, 0
1, 24120, Note_on_c, 3, 82, 0
1, 24120, Note_on_c, 9, 36, 0
1, 24120, Note_on_c, 0, 65, 100
1, 24120, Note_on_c, 0, 43, 100
1, 24120, Note_on_c, 1, 70, 100
1, 24120, Note_on_c, 1, 74, 100
1, 24120, Note_on_c, 2, 43, 100
1, 24120, Note_on_c, 3, 82, 100
1, 24120, Note_on_c, 9, 36, 100
1, 24120, Note_on_c, 9, 38, 100
1, 24120, Note_on_c, 9, 46, 100
1, 24180, Note_on_c, 9, 46, 0
1, 24180, Note_on_c, 0, 65, 0
1, 24180, Note_on_c, 3, 82, 0
1, 24180, Note_on_c, 1, 74, 0
1, 24180, Note_on_c, 0, 43, 0
1, 24180, Note_on_c, 1, 70, 0
1, 24180, Note_on_c, 2, 43, 0
1, 24180, Note_on_c, 0, 67, 100
1, 24180, Note_on_c, 0, 55, 100
1, 24180, Note_on_c, 3, 82, 100
1, 24180, Note_on_c, 9, 46, 100
1, 24240, Note_on_c, 9, 46, 0
1, 24240, Note_on_c, 9, 38, 0
1, 24240, Note_on_c, 0, 67, 0
1, 24240, Note_on_c, 9, 36, 0
1, 24240, Note_on_c, 3, 82, 0
1, 24240, Note_on_c, 0, 55, 0
1, 24240, Note_on_c, 0, 74, 100
1, 24240, Note_on_c, 0, 69, 100
1, 24240, Note_on_c, 0, 43, 100
1, 24240, Note_on_c, 1, 69, 100
1, 24240, Note_on_c, 2, 43, 100
1, 24240, Note_on_c, 3, 82, 100
1, 24240, Note_on_c, 9, 36, 100
1, 24240, Note_on_c, 9, 46, 100
1, 24270, Note_on_c, 1, 69, 0
1, 24270, Note_on_c, 0, 69, 0
1, 24270, Note_on_c, 0, 70, 100
1, 24270, Note_on_c, 1, 70, 100
1, 24300, Note_on_c, 1, 70, 0
1, 24300, Note_on_c, 3, 82, 0
1, 24300, Note_on_c, 9, 46, 0
1, 24300, Note_on_c, 0, 43, 0
1, 24300, Note_on_c, 2, 43, 0
1, 24300, Note_on_c, 9, 36, 0
1, 24300, Note_on_c, 0, 55, 100
1, 24300, Note_on_c, 1, 67, 100
1, 24300, Note_on_c, 3, 82, 100
1, 24300, Note_on_c, 9, 36, 100
1, 24300, Note_on_c, 9, 46, 100
1, 24330, Note_on_c, 9, 36, 0
1, 24330, Note_on_c, 1, 67, 0
1, 24330, Note_on_c, 0, 70, 0
1, 24330, Note_on_c, 0, 74, 0
1, 24330, Note_on_c, 3, 82, 0
1, 24330, Note_on_c, 0, 74, 100
1, 24330, Note_on_c, 0, 67, 100
1, 24330, Note_on_c, 1, 65, 100
1, 24330, Note_on_c, 3, 84, 100
1, 24330, Note_on_c, 9, 36, 100
1, 24360, Note_on_c, 9, 36, 0
1, 24360, Note_on_c, 9, 46, 0
1, 24360, Note_on_c, 0, 55, 0
1, 24360, Note_on_c, 1, 65, 0
1, 24360, Note_on_c, 0, 43, 100
1, 24360, Note_on_c, 1, 62, 100
1, 24360, Note_on_c, 2, 43, 100
1, 24360, Note_on_c, 9, 36, 100
1, 24360, Note_on_c, 9, 40, 100
1, 24360, Note_on_c, 9, 46, 100
1, 24390, Note_on_c, 1, 62, 0
1, 24390, Note_on_c, 0, 67, 0
1, 24390, Note_on_c, 0, 74, 0
1, 24390, Note_on_c, 0, 65, 100
1, 24390, Note_on_c, 1, 65, 100
1, 24390, Note_on_c, 5, 79, 100
1, 24420, Note_on_c, 1, 65, 0
1, 24420, Note_on_c, 0, 65, 0
1, 24420, Note_on_c, 0, 43, 0
1, 24420, Note_on_c, 2, 43, 0
1, 24420, Note_on_c, 9, 46, 0
1, 24420, Note_on_c, 0, 62, 100
1, 24420, Note_on_c, 0, 55, 100
1, 24420, Note_on_c, 1, 67, 100
1, 24420, Note_on_c, 9, 46, 100
1, 24450, Note_on_c, 0, 62, 0
1, 24450, Note_on_c, 3, 84, 0
1, 24450, Note_on_c, 3, 81, 100
1, 24480, Note_on_c, 3, 81, 0
1, 24480, Note_on_c, 1, 67, 0
1, 24480, Note_on_c, 9, 40, 0
1, 24480, Note_on_c, 9, 36, 0
1, 24480, Note_on_c, 9, 46, 0
1, 24480, Note_on_c, 0, 55, 0
1, 24480, Note_on_c, 0, 43, 100
1, 24480, Note_on_c, 2, 43, 100
1, 24480, Note_on_c, 3, 82, 100
1, 24480, Note_on_c, 9, 36, 100
1, 24480, Note_on_c, 9, 46, 100
1, 24510, Note_on_c, 3, 82, 0
1, 24510, Note_on_c, 5, 79, 0
1, 24510, Note_on_c, 3, 82, 100
1, 24510, Note_on_c, 5, 76, 100
1, 24540, Note_on_c, 5, 76, 0
1, 24540, Note_on_c, 9, 46, 0
1, 24540, Note_on_c, 2, 43, 0
1, 24540, Note_on_c, 0, 43, 0
1, 24540, Note_on_c, 3, 82, 0
1, 24540, Note_on_c, 9, 36, 0
1, 24540, Note_on_c, 0, 67, 100
1, 24540, Note_on_c, 0, 55, 100
1, 24540, Note_on_c, 1, 69, 100
1, 24540, Note_on_c, 1, 73, 100
1, 24540, Note_on_c, 3, 82, 100
1, 24540, Note_on_c, 5, 74, 100
1, 24540, Note_on_c, 9, 36, 100
1, 24540, Note_on_c, 9, 46, 100
1, 24570, Note_on_c, 5, 74, 0
1, 24570, Note_on_c, 3, 82, 0
1, 24570, Note_on_c, 3, 82, 100
1, 24570, Note_on_c, 5, 76, 100
1, 24600, Note_on_c, 5, 76, 0
1, 24600, Note_on_c, 1, 73, 0
1, 24600, Note_on_c, 0, 67, 0
1, 24600, Note_on_c, 0, 55, 0
1, 24600, Note_on_c, 1, 69, 0
1, 24600, Note_on_c, 9, 46, 0
1, 24600, Note_on_c, 9, 36, 0
1, 24600, Note_on_c, 3, 82, 0
1, 24600, Note_on_c, 0, 65, 100
1, 24600, Note_on_c, 0, 43, 100
1, 24600, Note_on_c, 1, 70, 100
1, 24600, Note_on_c, 1, 74, 100
1, 24600, Note_on_c, 2, 43, 100
1, 24600, Note_on_c, 3, 81, 100
1, 24600, Note_on_c, 5, 79, 100
1, 24600, Note_on_c, 9, 36, 100
1, 24600, Note_on_c, 9, 38, 100
1, 24600, Note_on_c, 9, 46, 100
1, 24630, Note_on_c, 5, 79, 0
1, 24630, Note_on_c, 5, 76, 100
1, 24660, Note_on_c, 5, 76, 0
1, 24660, Note_on_c, 1, 74, 0
1, 24660, Note_on_c, 1, 70, 0
1, 24660, Note_on_c, 0, 65, 0
1, 24660, Note_on_c, 2, 43, 0
1, 24660, Note_on_c, 0, 43, 0
1, 24660, Note_on_c, 9, 46, 0
1, 24660, Note_on_c, 3, 81, 0
1, 24660, Note_on_c, 0, 67, 100
1, 24660, Note_on_c, 0, 55, 100
1, 24660, Note_on_c, 3, 79, 100
1, 24660, Note_on_c, 5, 74, 100
1, 24660, Note_on_c, 9, 46, 100
1, 24690, Note_on_c, 5, 74, 0
1, 24690, Note_on_c, 3, 79, 0
1, 24690, Note_on_c, 3, 79, 100
1, 24690, Note_on_c, 5, 72, 100
1, 24720, Note_on_c, 5, 72, 0
1, 24720, Note_on_c, 9, 46, 0
1, 24720, Note_on_c, 0, 55, 0
1, 24720, Note_on_c, 0, 67, 0
1, 24720, Note_on_c, 9, 36, 0
1, 24720, Note_on_c, 9, 38, 0
1, 24720, Note_on_c, 0, 74, 100
1, 24720, Note_on_c, 0, 69, 100
1, 24720, Note_on_c, 0, 43, 100
1, 24720, Note_on_c, 1, 69, 100
1, 24720, Note_on_c, 2, 43, 100
1, 24720, Note_on_c, 5, 70, 100
1, 24720, Note_on_c, 9, 36, 100
1, 24720, Note_on_c, 9, 46, 100
1, 24750, Note_on_c, 5, 70, 0
1, 24750, Note_on_c, 0, 69, 0
1, 24750, Note_on_c, 1, 69, 0
1, 24750, Note_on_c, 0, 70, 100
1, 24750, Note_on_c, 1, 70, 100
1, 24750, Note_on_c, 5, 72, 100
1, 24780, Note_on_c, 5, 72, 0
1, 24780, Note_on_c, 9, 36, 0
1, 24780, Note_on_c, 9, 46, 0
1, 24780, Note_on_c, 1, 70, 0
1, 24780, Note_on_c, 2, 43, 0
1, 24780, Note_on_c, 0, 43, 0
1, 24780, Note_on_c, 3, 79, 0
1, 24780, Note_on_c, 0, 55, 100
1, 24780, Note_on_c, 1, 67, 100
1, 24780, Note_on_c, 5, 70, 100
1, 24780, Note_on_c, 9, 36, 100
1, 24780, Note_on_c, 9, 46, 100
1, 24810, Note_on_c, 9, 36, 0
1, 24810, Note_on_c, 1, 67, 0
1, 24810, Note_on_c, 0, 74, 0
1, 24810, Note_on_c, 0, 70, 0
1, 24810, Note_on_c, 5, 70, 0
1, 24810, Note_on_c, 0, 74, 100
1, 24810, Note_on_c, 0, 67, 100
1, 24810, Note_on_c, 1, 65, 100
1, 24810, Note_on_c, 5, 73, 100
1, 24810, Note_on_c, 9, 36, 100
1, 24840, Note_on_c, 9, 36, 0
1, 24840, Note_on_c, 1, 65, 0
1, 24840, Note_on_c, 9, 46, 0
1, 24840, Note_on_c, 0, 55, 0
1, 24840, Note_on_c, 5, 73, 0
1, 24840, Note_on_c, 0, 43, 100
1, 24840, Note_on_c, 1, 62, 100
1, 24840, Note_on_c, 2, 43, 100
1, 24840, Note_on_c, 3, 77, 100
1, 24840, Note_on_c, 5, 72, 100
1, 24840, Note_on_c, 9, 36, 100
1, 24840, Note_on_c, 9, 40, 100
1, 24840, Note_on_c, 9, 46, 100
1, 24860, Note_on_c, 3, 77, 0
1, 24860, Note_on_c, 3, 79, 100
1, 24870, Note_on_c, 0, 67, 0
1, 24870, Note_on_c, 0, 74, 0
1, 24870, Note_on_c, 5, 72, 0
1, 24870, Note_on_c, 1, 62, 0
1, 24870, Note_on_c, 0, 65, 100
1, 24870, Note_on_c, 1, 65, 100
1, 24870, Note_on_c, 5, 70, 100
1, 24880, Note_on_c, 3, 79, 0
1, 24880, Note_on_c, 3, 79, 100
1, 24900, Note_on_c, 3, 79, 0
1, 24900, Note_on_c, 1, 65, 0
1, 24900, Note_on_c, 2, 43, 0
1, 24900, Note_on_c, 0, 43, 0
1, 24900, Note_on_c, 5, 70, 0
1, 24900, Note_on_c, 9, 46, 0
1, 24900, Note_on_c, 0, 65, 0
1, 24900, Note_on_c, 0, 62, 100
1, 24900, Note_on_c, 0, 55, 100
1, 24900, Note_on_c, 1, 67, 100
1, 24900, Note_on_c, 3, 79, 100
1, 24900, Note_on_c, 5, 67, 100
1, 24900, Note_on_c, 9, 46, 100
1, 24930, Note_on_c, 5, 67, 0
1, 24930, Note_on_c, 0, 62, 0
1, 24930, Note_on_c, 5, 67, 100
1, 24960, Note_on_c, 5, 67, 0
1, 24960, Note_on_c, 9, 36, 0
1, 24960, Note_on_c, 9, 46, 0
1, 24960, Note_on_c, 0, 55, 0
1, 24960, Note_on_c, 1, 67, 0
1, 24960, Note_on_c, 9, 40, 0
1, 24960, Note_on_c, 0, 43, 100
1, 24960, Note_on_c, 2, 43, 100
1, 24960, Note_on_c, 5, 67, 100
1, 24960, Note_on_c, 9, 36, 100
1, 24960, Note_on_c, 9, 46, 100
1, 25020, Note_on_c, 9, 46, 0
1, 25020, Note_on_c, 0, 43, 0
1, 25020, Note_on_c, 3, 79, 0
1, 25020, Note_on_c, 2, 43, 0
1, 25020, Note_on_c, 9, 36, 0
1, 25020, Note_on_c, 0, 67, 100
1, 25020, Note_on_c, 0, 55, 100
1, 25020, Note_on_c, 1, 69, 100
1, 25020, Note_on_c, 1, 73, 100
1, 25020, Note_on_c, 3, 82, 100
1, 25020, Note_on_c, 9, 36, 100
1, 25020, Note_on_c, 9, 46, 100
1, 25080, Note_on_c, 9, 46, 0
1, 25080, Note_on_c, 9, 36, 0
1, 25080, Note_on_c, 0, 67, 0
1, 25080, Note_on_c, 1, 69, 0
1, 25080, Note_on_c, 0, 55, 0
1, 25080, Note_on_c, 1, 73, 0
1, 25080, Note_on_c, 0, 65, 100
1, 25080, Note_on_c, 0, 43, 100
1, 25080, Note_on_c, 1, 70, 100
1, 25080, Note_on_c, 1, 74, 100
1, 25080, Note_on_c, 2, 43, 100
1, 25080, Note_on_c, 9, 36, 100
1, 25080, Note_on_c, 9, 38, 100
1, 25080, Note_on_c, 9, 46, 100
1, 25140, Note_on_c, 9, 46, 0
1, 25140, Note_on_c, 0, 65, 0
1, 25140, Note_on_c, 2, 43, 0
1, 25140, Note_on_c, 0, 43, 0
1, 25140, Note_on_c, 1, 70, 0
1, 25140, Note_on_c, 3, 82, 0
1, 25140, Note_on_c, 1, 74, 0
1, 25140, Note_on_c, 0, 67, 100
1, 25140, Note_on_c, 0, 55, 100
1, 25140, Note_on_c, 3, 84, 100
1, 25140, Note_on_c, 9, 46, 100
1, 25200, Note_on_c, 9, 46, 0
1, 25200, Note_on_c, 9, 36, 0
1, 25200, Note_on_c, 0, 67, 0
1, 25200, Note_on_c, 9, 38, 0
1, 25200, Note_on_c, 5, 67, 0
1, 25200, Note_on_c, 0, 55, 0
1, 25200, Note_on_c, 0, 74, 100
1, 25200, Note_on_c, 0, 69, 100
1, 25200, Note_on_c, 0, 43, 100
1, 25200, Note_on_c, 1, 69, 100
1, 25200, Note_on_c, 2, 43, 100
1, 25200, Note_on_c, 9, 36, 100
1, 25200, Note_on_c, 9, 46, 100
1, 25230, Note_on_c, 1, 69, 0
1, 25230, Note_on_c, 0, 69, 0
1, 25230, Note_on_c, 0, 70, 100
1, 25230, Note_on_c, 1, 70, 100
1, 25260, Note_on_c, 1, 70, 0
1, 25260, Note_on_c, 2, 43, 0
1, 25260, Note_on_c, 9, 46, 0
1, 25260, Note_on_c, 3, 84, 0
1, 25260, Note_on_c, 0, 43, 0
1, 25260, Note_on_c, 9, 36, 0
1, 25260, Note_on_c, 0, 55, 100
1, 25260, Note_on_c, 1, 67, 100
1, 25260, Note_on_c, 9, 36, 100
1, 25260, Note_on_c, 9, 46, 100
1, 25290, Note_on_c, 9, 36, 0
1, 25290, Note_on_c, 1, 67, 0
1, 25290, Note_on_c, 0, 74, 0
1, 25290, Note_on_c, 0, 70, 0
1, 25290, Note_on_c, 0, 74, 100
1, 25290, Note_on_c, 0, 67, 100
1, 25290, Note_on_c, 1, 65, 100
1, 25290, Note_on_c, 9, 36, 100
1, 25320, Note_on_c, 9, 36, 0
1, 25320, Note_on_c, 9, 46, 0
1, 25320, Note_on_c, 0, 55, 0
1, 25320, Note_on_c, 1, 65, 0
1, 25320, Note_on_c, 0, 43, 100
1, 25320, Note_on_c, 1, 62, 100
1, 25320, Note_on_c, 2, 43, 100
1, 25320, Note_on_c, 3, 82, 100
1, 25320, Note_on_c, 9, 36, 100
1, 25320, Note_on_c, 9, 40, 100
1, 25320, Note_on_c, 9, 46, 100
1, 25340, Note_on_c, 3, 82, 0
1, 25340, Note_on_c, 3, 82, 100
1, 25350, Note_on_c, 0, 67, 0
1, 25350, Note_on_c, 0, 74, 0
1, 25350, Note_on_c, 1, 62, 0
1, 25350, Note_on_c, 0, 65, 100
1, 25350, Note_on_c, 1, 65, 100
1, 25360, Note_on_c, 3, 82, 0
1, 25360, Note_on_c, 3, 82, 100
1, 25380, Note_on_c, 3, 82, 0
1, 25380, Note_on_c, 1, 65, 0
1, 25380, Note_on_c, 0, 43, 0
1, 25380, Note_on_c, 9, 46, 0
1, 25380, Note_on_c, 2, 43, 0
1, 25380, Note_on_c, 0, 65, 0
1, 25380, Note_on_c, 0, 62, 100
1, 25380, Note_on_c, 0, 55, 100
1, 25380, Note_on_c, 1, 67, 100
1, 25380, Note_on_c, 3, 82, 100
1, 25380, Note_on_c, 9, 46, 100
1, 25410, Note_on_c, 0, 62, 0
1, 25440, Note_on_c, 9, 36, 0
1, 25440, Note_on_c, 1, 67, 0
1, 25440, Note_on_c, 0, 55, 0
1, 25440, Note_on_c, 9, 40, 0
1, 25440, Note_on_c, 9, 46, 0
1, 25440, Note_on_c, 0, 43, 100
1, 25440, Note_on_c, 2, 43, 100
1, 25440, Note_on_c, 9, 36, 100
1, 25440, Note_on_c, 9, 46, 100
1, 25500, Note_on_c, 9, 46, 0
1, 25500, Note_on_c, 2, 43, 0
1, 25500, Note_on_c, 3, 82, 0
1, 25500, Note_on_c, 0, 43, 0
1, 25500, Note_on_c, 9, 36, 0
1, 25500, Note_on_c, 0, 67, 100
1, 25500, Note_on_c, 0, 55, 100
1, 25500, Note_on_c, 1, 69, 100
1, 25500, Note_on_c, 1, 73, 100
1, 25500, Note_on_c, 3, 79, 100
1, 25500, Note_on_c, 9, 36, 100
1, 25500, Note_on_c, 9, 46, 100
1, 25560, Note_on_c, 9, 46, 0
1, 25560, Note_on_c, 1, 73, 0
1, 25560, Note_on_c, 0, 55, 0
1, 25560, Note_on_c, 1, 69, 0
1, 25560, Note_on_c, 0, 67, 0
1, 25560, Note_on_c, 9, 36, 0
1, 25560, Note_on_c, 0, 65, 100
1, 25560, Note_on_c, 0, 43, 100
1, 25560, Note_on_c, 1, 70, 100
1, 25560, Note_on_c, 1, 74, 100
1, 25560, Note_on_c, 2, 43, 100
1, 25560, Note_on_c, 9, 36, 100
1, 25560, Note_on_c, 9, 38, 100
1, 25560, Note_on_c, 9, 46, 100
1, 25620, Note_on_c, 9, 46, 0
1, 25620, Note_on_c, 3, 79, 0
1, 25620, Note_on_c, 2, 43, 0
1, 25620, Note_on_c, 1, 70, 0
1, 25620, Note_on_c, 0, 65, 0
1, 25620, Note_on_c, 0, 43, 0
1, 25620, Note_on_c, 1, 74, 0
1, 25620, Note_on_c, 0, 67, 100
1, 25620, Note_on_c, 0, 55, 100
1, 25620, Note_on_c, 9, 46, 100
1, 25680, Note_on_c, 9, 46, 0
1, 25680, Note_on_c, 0, 67, 0
1, 25680, Note_on_c, 9, 36, 0
1, 25680, Note_on_c, 9, 38, 0
1, 25680, Note_on_c, 0, 55, 0
1, 25680, Note_on_c, 0, 74, 100
1, 25680, Note_on_c, 0, 69, 100
1, 25680, Note_on_c, 0, 43, 100
1, 25680, Note_on_c, 1, 69, 100
1, 25680, Note_on_c, 2, 43, 100
1, 25680, Note_on_c, 9, 36, 100
1, 25680, Note_on_c, 9, 46, 100
1, 25710, Note_on_c, 1, 69, 0
1, 25710, Note_on_c, 0, 69, 0
1, 25710, Note_on_c, 0, 70, 100
1, 25710, Note_on_c, 1, 70, 100
1, 25740, Note_on_c, 1, 70, 0
1, 25740, Note_on_c, 9, 46, 0
1, 25740, Note_on_c, 9, 36, 0
1, 25740, Note_on_c, 2, 43, 0
1, 25740, Note_on_c, 0, 43, 0
1, 25740, Note_on_c, 0, 55, 100
1, 25740, Note_on_c, 1, 67, 100
1, 25740, Note_on_c, 9, 36, 100
1, 25740, Note_on_c, 9, 46, 100
1, 25770, Note_on_c, 9, 36, 0
1, 25770, Note_on_c, 1, 67, 0
1, 25770, Note_on_c, 0, 74, 0
1, 25770, Note_on_c, 0, 70, 0
1, 25770, Note_on_c, 0, 74, 100
1, 25770, Note_on_c, 0, 67, 100
1, 25770, Note_on_c, 1, 65, 100
1, 25770, Note_on_c, 9, 36, 100
1, 25800, Note_on_c, 9, 36, 0
1, 25800, Note_on_c, 9, 46, 0
1, 25800, Note_on_c, 0, 55, 0
1, 25800, Note_on_c, 1, 65, 0
1, 25800, Note_on_c, 0, 43, 100
1, 25800, Note_on_c, 1, 62, 100
1, 25800, Note_on_c, 2, 43, 100
1, 25800, Note_on_c, 3, 77, 100
1, 25800, Note_on_c, 9, 36, 100
1, 25800, Note_on_c, 9, 40, 100
1, 25800, Note_on_c, 9, 46, 100
1, 25820, Note_on_c, 3, 77, 0
1, 25820, Note_on_c, 3, 79, 100
1, 25830, Note_on_c, 0, 67, 0
1, 25830, Note_on_c, 0, 74, 0
1, 25830, Note_on_c, 1, 62, 0
1, 25830, Note_on_c, 0, 65, 100
1, 25830, Note_on_c, 1, 65, 100
1, 25840, Note_on_c, 3, 79, 0
1, 25840, Note_on_c, 3, 79, 100
1, 25860, Note_on_c, 3, 79, 0
1, 25860, Note_on_c, 1, 65, 0
1, 25860, Note_on_c, 0, 43, 0
1, 25860, Note_on_c, 9, 46, 0
1, 25860, Note_on_c, 2, 43, 0
1, 25860, Note_on_c, 0, 65, 0
1, 25860, Note_on_c, 0, 62, 100
1, 25860, Note_on_c, 0, 55, 100
1, 25860, Note_on_c, 1, 67, 100
1, 25860, Note_on_c, 3, 79, 100
1, 25860, Note_on_c, 9, 46, 100
1, 25890, Note_on_c, 0, 62, 0
1, 25920, Note_on_c, 3, 79, 0
1, 25920, Note_on_c, 9, 36, 0
1, 25920, Note_on_c, 0, 55, 0
1, 25920, Note_on_c, 9, 40, 0
1, 25920, Note_on_c, 9, 46, 0
1, 25920, Note_on_c, 1, 67, 0
1, 25920, Note_on_c, 0, 46, 100
1, 25920, Note_on_c, 0, 65, 100
1, 25920, Note_on_c, 0, 74, 100
1, 25920, Note_on_c, 0, 70, 100
1, 25920, Note_on_c, 1, 74, 100
1, 25920, Note_on_c, 2, 46, 100
1, 25920, Note_on_c, 5, 74, 100
1, 25920, Note_on_c, 9, 36, 100
1, 25920, Note_on_c, 9, 49, 100
1, 25950, Note_on_c, 5, 74, 0
1, 25950, Note_on_c, 1, 74, 0
1, 25950, Note_on_c, 1, 74, 100
1, 25950, Note_on_c, 5, 74, 100
1, 25980, Note_on_c, 9, 49, 0
1, 25980, Note_on_c, 9, 36, 0
1, 25980, Note_on_c, 9, 36, 100
1, 25980, Note_on_c, 9, 51, 100
1, 26010, Note_on_c, 1, 82, 100
1, 26010, Note_on_c, 5, 82, 100
1, 26040, Note_on_c, 9, 51, 0
1, 26040, Note_on_c, 9, 36, 0
1, 26040, Note_on_c, 0, 46, 0
1, 26040, Note_on_c, 0, 46, 100
1, 26040, Note_on_c, 9, 38, 100
1, 26040, Note_on_c, 9, 51, 100
1, 26070, Note_on_c, 1, 82, 0
1, 26070, Note_on_c, 5, 82, 0
1, 26070, Note_on_c, 1, 82, 100
1, 26070, Note_on_c, 5, 82, 100
1, 26100, Note_on_c, 5, 82, 0
1, 26100, Note_on_c, 1, 82, 0
1, 26100, Note_on_c, 9, 51, 0
1, 26100, Note_on_c, 1, 74, 100
1, 26100, Note_on_c, 5, 74, 100
1, 26100, Note_on_c, 9, 51, 100
1, 26130, Note_on_c, 9, 38, 0
1, 26130, Note_on_c, 9, 36, 100
1, 26160, Note_on_c, 9, 36, 0
1, 26160, Note_on_c, 5, 74, 0
1, 26160, Note_on_c, 1, 74, 0
1, 26160, Note_on_c, 0, 46, 0
1, 26160, Note_on_c, 5, 74, 0
1, 26160, Note_on_c, 2, 46, 0
1, 26160, Note_on_c, 0, 74, 0
1, 26160, Note_on_c, 9, 51, 0
1, 26160, Note_on_c, 0, 70, 0
1, 26160, Note_on_c, 0, 65, 0
1, 26160, Note_on_c, 1, 74, 0
1, 26160, Note_on_c, 0, 48, 100
1, 26160, Note_on_c, 0, 76, 100
1, 26160, Note_on_c, 0, 72, 100
1, 26160, Note_on_c, 0, 67, 100
1, 26160, Note_on_c, 1, 74, 100
1, 26160, Note_on_c, 2, 48, 100
1, 26160, Note_on_c, 5, 74, 100
1, 26160, Note_on_c, 9, 36, 100
1, 26160, Note_on_c, 9, 49, 100
1, 26190, Note_on_c, 5, 74, 0
1, 26190, Note_on_c, 1, 74, 0
1, 26190, Note_on_c, 1, 76, 100
1, 26190, Note_on_c, 5, 76, 100
1, 26220, Note_on_c, 9, 49, 0
1, 26220, Note_on_c, 9, 36, 0
1, 26220, Note_on_c, 9, 36, 100
1, 26220, Note_on_c, 9, 51, 100
1, 26250, Note_on_c, 1, 84, 100
1, 26250, Note_on_c, 5, 84, 100
1, 26280, Note_on_c, 9, 51, 0
1, 26280, Note_on_c, 9, 36, 0
1, 26280, Note_on_c, 1, 76, 0
1, 26280, Note_on_c, 5, 76, 0
1, 26280, Note_on_c, 0, 48, 0
1, 26280, Note_on_c, 0, 48, 100
1, 26280, Note_on_c, 1, 76, 100
1, 26280, Note_on_c, 5, 76, 100
1, 26280, Note_on_c, 9, 38, 100
1, 26280, Note_on_c, 9, 51, 100
1, 26310, Note_on_c, 1, 84, 0
1, 26310, Note_on_c, 5, 84, 0
1, 26310, Note_on_c, 1, 84, 100
1, 26310, Note_on_c, 5, 84, 100
1, 26340, Note_on_c, 5, 84, 0
1, 26340, Note_on_c, 1, 84, 0
1, 26340, Note_on_c, 9, 51, 0
1, 26340, Note_on_c, 0, 48, 0
1, 26340, Note_on_c, 0, 50, 100
1, 26340, Note_on_c, 1, 76, 100
1, 26340, Note_on_c, 5, 76, 100
1, 26340, Note_on_c, 9, 51, 100
1, 26370, Note_on_c, 0, 50, 0
1, 26370, Note_on_c, 9, 38, 0
1, 26370, Note_on_c, 0, 51, 100
1, 26370, Note_on_c, 9, 36, 100
1, 26400, Note_on_c, 9, 36, 0
1, 26400, Note_on_c, 5, 76, 0
1, 26400, Note_on_c, 9, 51, 0
1, 26400, Note_on_c, 0, 67, 0
1, 26400, Note_on_c, 5, 76, 0
1, 26400, Note_on_c, 0, 76, 0
1, 26400, Note_on_c, 0, 72, 0
1, 26400, Note_on_c, 2, 48, 0
1, 26400, Note_on_c, 1, 76, 0
1, 26400, Note_on_c, 1, 76, 0
1, 26400, Note_on_c, 0, 51, 0
1, 26400, Note_on_c, 0, 51, 100
1, 26400, Note_on_c, 0, 67, 100
1, 26400, Note_on_c, 0, 70, 100
1, 26400, Note_on_c, 0, 75, 100
1, 26400, Note_on_c, 1, 77, 100
1, 26400, Note_on_c, 2, 51, 100
1, 26400, Note_on_c, 5, 77, 100
1, 26400, Note_on_c, 9, 42, 100
1, 26400, Note_on_c, 9, 49, 100
1, 26430, Note_on_c, 5, 77, 0
1, 26430, Note_on_c, 1, 77, 0
1, 26430, Note_on_c, 1, 79, 100
1, 26430, Note_on_c, 5, 79, 100
1, 26460, Note_on_c, 9, 49, 0
1, 26460, Note_on_c, 9, 42, 0
1, 26460, Note_on_c, 9, 42, 100
1, 26460, Note_on_c, 9, 51, 100
1, 26490, Note_on_c, 1, 87, 100
1, 26490, Note_on_c, 5, 87, 100
1, 26520, Note_on_c, 9, 51, 0
1, 26520, Note_on_c, 9, 42, 0
1, 26520, Note_on_c, 9, 38, 100
1, 26520, Note_on_c, 9, 51, 100
1, 26550, Note_on_c, 1, 87, 0
1, 26550, Note_on_c, 5, 87, 0
1, 26550, Note_on_c, 1, 87, 100
1, 26550, Note_on_c, 5, 87, 100
1, 26580, Note_on_c, 5, 87, 0
1, 26580, Note_on_c, 1, 87, 0
1, 26580, Note_on_c, 9, 51, 0
1, 26580, Note_on_c, 1, 79, 100
1, 26580, Note_on_c, 5, 79, 100
1, 26580, Note_on_c, 9, 51, 100
1, 26610, Note_on_c, 9, 38, 0
1, 26610, Note_on_c, 9, 38, 100
1, 26640, Note_on_c, 9, 38, 0
1, 26640, Note_on_c, 5, 79, 0
1, 26640, Note_on_c, 0, 70, 0
1, 26640, Note_on_c, 0, 51, 0
1, 26640, Note_on_c, 5, 79, 0
1, 26640, Note_on_c, 2, 51, 0
1, 26640, Note_on_c, 0, 67, 0
1, 26640, Note_on_c, 9, 51, 0
1, 26640, Note_on_c, 1, 79, 0
1, 26640, Note_on_c, 0, 75, 0
1, 26640, Note_on_c, 1, 79, 0
1, 26640, Note_on_c, 0, 53, 100
1, 26640, Note_on_c, 0, 75, 100
1, 26640, Note_on_c, 0, 69, 100
1, 26640, Note_on_c, 0, 65, 100
1, 26640, Note_on_c, 1, 79, 100
1, 26640, Note_on_c, 2, 53, 100
1, 26640, Note_on_c, 5, 79, 100
1, 26640, Note_on_c, 9, 38, 100
1, 26670, Note_on_c, 9, 38, 0
1, 26670, Note_on_c, 5, 79, 0
1, 26670, Note_on_c, 1, 79, 0
1, 26670, Note_on_c, 1, 81, 100
1, 26670, Note_on_c, 5, 81, 100
1, 26670, Note_on_c, 9, 38, 100
1, 26700, Note_on_c, 9, 38, 0
1, 26700, Note_on_c, 2, 53, 0
1, 26700, Note_on_c, 2, 53, 100
1, 26700, Note_on_c, 9, 38, 100
1, 26730, Note_on_c, 0, 53, 0
1, 26730, Note_on_c, 0, 53, 100
1, 26730, Note_on_c, 1, 89, 100
1, 26730, Note_on_c, 5, 89, 100
1, 26760, Note_on_c, 9, 38, 0
1, 26760, Note_on_c, 9, 38, 100
1, 26790, Note_on_c, 5, 89, 0
1, 26790, Note_on_c, 0, 53, 0
1, 26790, Note_on_c, 1, 89, 0
1, 26790, Note_on_c, 0, 53, 100
1, 26790, Note_on_c, 1, 89, 100
1, 26790, Note_on_c, 5, 89, 100
1, 26820, Note_on_c, 5, 89, 0
1, 26820, Note_on_c, 1, 89, 0
1, 26820, Note_on_c, 9, 38, 0
1, 26820, Note_on_c, 0, 53, 0
1, 26820, Note_on_c, 2, 53, 0
1, 26820, Note_on_c, 0, 53, 100
1, 26820, Note_on_c, 1, 81, 100
1, 26820, Note_on_c, 2, 41, 100
1, 26820, Note_on_c, 5, 81, 100
1, 26820, Note_on_c, 9, 40, 100
1, 26850, Note_on_c, 9, 40, 0
1, 26850, Note_on_c, 9, 38, 100
1, 26880, Note_on_c, 9, 38, 0
1, 26880, Note_on_c, 2, 41, 0
1, 26880, Note_on_c, 0, 65, 0
1, 26880, Note_on_c, 0, 75, 0
1, 26880, Note_on_c, 0, 69, 0
1, 26880, Note_on_c, 5, 81, 0
1, 26880, Note_on_c, 5, 81, 0
1, 26880, Note_on_c, 1, 81, 0
1, 26880, Note_on_c, 0, 53, 0
1, 26880, Note_on_c, 1, 81, 0
1, 26880, Note_on_c, 0, 43, 100
1, 26880, Note_on_c, 2, 43, 100
1, 26880, Note_on_c, 9, 36, 100
1, 26880, Note_on_c, 9, 49, 100
1, 26940, Note_on_c, 9, 49, 0
1, 26940, Note_on_c, 0, 43, 0
1, 26940, Note_on_c, 2, 43, 0
1, 26940, Note_on_c, 9, 36, 0
1, 26940, Note_on_c, 0, 67, 100
1, 26940, Note_on_c, 0, 55, 100
1, 26940, Note_on_c, 1, 86, 100
1, 26940, Note_on_c, 1, 81, 100
1, 26940, Note_on_c, 3, 82, 100
1, 26940, Note_on_c, 5, 86, 100
1, 26940, Note_on_c, 5, 81, 100
1, 26940, Note_on_c, 9, 36, 100
1, 26940, Note_on_c, 9, 46, 100
1, 27000, Note_on_c, 9, 46, 0
1, 27000, Note_on_c, 1, 81, 0
1, 27000, Note_on_c, 0, 67, 0
1, 27000, Note_on_c, 3, 82, 0
1, 27000, Note_on_c, 0, 55, 0
1, 27000, Note_on_c, 1, 86, 0
1, 27000, Note_on_c, 5, 81, 0
1, 27000, Note_on_c, 5, 86, 0
1, 27000, Note_on_c, 9, 36, 0
1, 27000, Note_on_c, 0, 65, 100
1, 27000, Note_on_c, 0, 43, 100
1, 27000, Note_on_c, 1, 86, 100
1, 27000, Note_on_c, 1, 82, 100
1, 27000, Note_on_c, 2, 43, 100
1, 27000, Note_on_c, 3, 82, 100
1, 27000, Note_on_c, 5, 86, 100
1, 27000, Note_on_c, 5, 82, 100
1, 27000, Note_on_c, 9, 40, 100
1, 27000, Note_on_c, 9, 36, 100
1, 27000, Note_on_c, 9, 46, 100
1, 27060, Note_on_c, 9, 46, 0
1, 27060, Note_on_c, 1, 86, 0
1, 27060, Note_on_c, 5, 82, 0
1, 27060, Note_on_c, 1, 82, 0
1, 27060, Note_on_c, 0, 65, 0
1, 27060, Note_on_c, 2, 43, 0
1, 27060, Note_on_c, 0, 43, 0
1, 27060, Note_on_c, 5, 86, 0
1, 27060, Note_on_c, 3, 82, 0
1, 27060, Note_on_c, 0, 67, 100
1, 27060, Note_on_c, 0, 55, 100
1, 27060, Note_on_c, 3, 82, 100
1, 27060, Note_on_c, 9, 46, 100
1, 27120, Note_on_c, 9, 46, 0
1, 27120, Note_on_c, 9, 40, 0
1, 27120, Note_on_c, 0, 67, 0
1, 27120, Note_on_c, 9, 36, 0
1, 27120, Note_on_c, 3, 82, 0
1, 27120, Note_on_c, 0, 55, 0
1, 27120, Note_on_c, 0, 74, 100
1, 27120, Note_on_c, 0, 69, 100
1, 27120, Note_on_c, 0, 43, 100
1, 27120, Note_on_c, 1, 81, 100
1, 27120, Note_on_c, 2, 43, 100
1, 27120, Note_on_c, 3, 82, 100
1, 27120, Note_on_c, 5, 81, 100
1, 27120, Note_on_c, 9, 36, 100
1, 27120, Note_on_c, 9, 46, 100
1, 27150, Note_on_c, 5, 81, 0
1, 27150, Note_on_c, 0, 69, 0
1, 27150, Note_on_c, 1, 81, 0
1, 27150, Note_on_c, 0, 70, 100
1, 27150, Note_on_c, 1, 82, 100
1, 27150, Note_on_c, 5, 82, 100
1, 27180, Note_on_c, 5, 82, 0
1, 27180, Note_on_c, 9, 46, 0
1, 27180, Note_on_c, 1, 82, 0
1, 27180, Note_on_c, 9, 36, 0
1, 27180, Note_on_c, 2, 43, 0
1, 27180, Note_on_c, 0, 43, 0
1, 27180, Note_on_c, 0, 55, 100
1, 27180, Note_on_c, 1, 79, 100
1, 27180, Note_on_c, 5, 79, 100
1, 27180, Note_on_c, 9, 36, 100
1, 27180, Note_on_c, 9, 46, 100
1, 27210, Note_on_c, 9, 36, 0
1, 27210, Note_on_c, 0, 74, 0
1, 27210, Note_on_c, 1, 79, 0
1, 27210, Note_on_c, 0, 70, 0
1, 27210, Note_on_c, 3, 82, 0
1, 27210, Note_on_c, 5, 79, 0
1, 27210, Note_on_c, 0, 74, 100
1, 27210, Note_on_c, 0, 67, 100
1, 27210, Note_on_c, 1, 77, 100
1, 27210, Note_on_c, 3, 77, 100
1, 27210, Note_on_c, 5, 77, 100
1, 27210, Note_on_c, 9, 36, 100
1, 27240, Note_on_c, 9, 36, 0
1, 27240, Note_on_c, 5, 77, 0
1, 27240, Note_on_c, 9, 46, 0
1, 27240, Note_on_c, 0, 55, 0
1, 27240, Note_on_c, 1, 77, 0
1, 27240, Note_on_c, 0, 43, 100
1, 27240, Note_on_c, 1, 74, 100
1, 27240, Note_on_c, 2, 43, 100
1, 27240, Note_on_c, 5, 74, 100
1, 27240, Note_on_c, 9, 36, 100
1, 27240, Note_on_c, 9, 38, 100
1, 27240, Note_on_c, 9, 46, 100
1, 27270, Note_on_c, 5, 74, 0
1, 27270, Note_on_c, 0, 67, 0
1, 27270, Note_on_c, 0, 74, 0
1, 27270, Note_on_c, 1, 74, 0
1, 27270, Note_on_c, 3, 77, 0
1, 27270, Note_on_c, 0, 65, 100
1, 27270, Note_on_c, 1, 77, 100
1, 27270, Note_on_c, 3, 79, 100
1, 27270, Note_on_c, 5, 77, 100
1, 27300, Note_on_c, 5, 77, 0
1, 27300, Note_on_c, 9, 46, 0
1, 27300, Note_on_c, 3, 79, 0
1, 27300, Note_on_c, 0, 43, 0
1, 27300, Note_on_c, 2, 43, 0
1, 27300, Note_on_c, 1, 77, 0
1, 27300, Note_on_c, 0, 65, 0
1, 27300, Note_on_c, 0, 62, 100
1, 27300, Note_on_c, 0, 55, 100
1, 27300, Note_on_c, 1, 79, 100
1, 27300, Note_on_c, 3, 79, 100
1, 27300, Note_on_c, 5, 79, 100
1, 27300, Note_on_c, 9, 46, 100
1, 27330, Note_on_c, 0, 62, 0
1, 27360, Note_on_c, 9, 36, 0
1, 27360, Note_on_c, 3, 79, 0
1, 27360, Note_on_c, 9, 38, 0
1, 27360, Note_on_c, 0, 55, 0
1, 27360, Note_on_c, 1, 79, 0
1, 27360, Note_on_c, 5, 79, 0
1, 27360, Note_on_c, 9, 46, 0
1, 27360, Note_on_c, 0, 43, 100
1, 27360, Note_on_c, 2, 43, 100
1, 27360, Note_on_c, 9, 36, 100
1, 27360, Note_on_c, 9, 46, 100
1, 27420, Note_on_c, 9, 46, 0
1, 27420, Note_on_c, 0, 43, 0
1, 27420, Note_on_c, 2, 43, 0
1, 27420, Note_on_c, 9, 36, 0
1, 27420, Note_on_c, 0, 67, 100
1, 27420, Note_on_c, 0, 55, 100
1, 27420, Note_on_c, 1, 86, 100
1, 27420, Note_on_c, 1, 81, 100
1, 27420, Note_on_c, 3, 82, 100
1, 27420, Note_on_c, 5, 86, 100
1, 27420, Note_on_c, 5, 81, 100
1, 27420, Note_on_c, 9, 36, 100
1, 27420, Note_on_c, 9, 46, 100
1, 27480, Note_on_c, 9, 46, 0
1, 27480, Note_on_c, 1, 81, 0
1, 27480, Note_on_c, 0, 67, 0
1, 27480, Note_on_c, 3, 82, 0
1, 27480, Note_on_c, 0, 55, 0
1, 27480, Note_on_c, 1, 86, 0
1, 27480, Note_on_c, 5, 81, 0
1, 27480, Note_on_c, 5, 86, 0
1, 27480, Note_on_c, 9, 36, 0
1, 27480, Note_on_c, 0, 65, 100
1, 27480, Note_on_c, 0, 43, 100
1, 27480, Note_on_c, 1, 86, 100
1, 27480, Note_on_c, 1, 82, 100
1, 27480, Note_on_c, 2, 43, 100
1, 27480, Note_on_c, 3, 82, 100
1, 27480, Note_on_c, 5, 86, 100
1, 27480, Note_on_c, 5, 82, 100
1, 27480, Note_on_c, 9, 40, 100
1, 27480, Note_on_c, 9, 36, 100
1, 27480, Note_on_c, 9, 46, 100
1, 27540, Note_on_c, 9, 46, 0
1, 27540, Note_on_c, 1, 86, 0
1, 27540, Note_on_c, 5, 82, 0
1, 27540, Note_on_c, 1, 82, 0
1, 27540, Note_on_c, 0, 65, 0
1, 27540, Note_on_c, 2, 43, 0
1, 27540, Note_on_c, 0, 43, 0
1, 27540, Note_on_c, 5, 86, 0
1, 27540, Note_on_c, 3, 82, 0
1, 27540, Note_on_c, 0, 67, 100
1, 27540, Note_on_c, 0, 55, 100
1, 27540, Note_on_c, 3, 82, 100
1, 27540, Note_on_c, 9, 46, 100
1, 27600, Note_on_c, 9, 46, 0
1, 27600, Note_on_c, 9, 40, 0
1, 27600, Note_on_c, 0, 67, 0
1, 27600, Note_on_c, 9, 36, 0
1, 27600, Note_on_c, 3, 82, 0
1, 27600, Note_on_c, 0, 55, 0
1, 27600, Note_on_c, 0, 74, 100
1, 27600, Note_on_c, 0, 69, 100
1, 27600, Note_on_c, 0, 43, 100
1, 27600, Note_on_c, 1, 81, 100
1, 27600, Note_on_c, 2, 43, 100
1, 27600, Note_on_c, 3, 82, 100
1, 27600, Note_on_c, 5, 81, 100
1, 27600, Note_on_c, 9, 36, 100
1, 27600, Note_on_c, 9, 46, 100
1, 27630, Note_on_c, 5, 81, 0
1, 27630, Note_on_c, 0, 69, 0
1, 27630, Note_on_c, 1, 81, 0
1, 27630, Note_on_c, 0, 70, 100
1, 27630, Note_on_c, 1, 82, 100
1, 27630, Note_on_c, 5, 82, 100
1, 27660, Note_on_c, 5, 82, 0
1, 27660, Note_on_c, 2, 43, 0
1, 27660, Note_on_c, 1, 82, 0
1, 27660, Note_on_c, 9, 46, 0
1, 27660, Note_on_c, 0, 43, 0
1, 27660, Note_on_c, 0, 55, 100
1, 27660, Note_on_c, 1, 79, 100
1, 27660, Note_on_c, 5, 79, 100
1, 27660, Note_on_c, 9, 46, 100
1, 27690, Note_on_c, 5, 79, 0
1, 27690, Note_on_c, 0, 70, 0
1, 27690, Note_on_c, 0, 74, 0
1, 27690, Note_on_c, 3, 82, 0
1, 27690, Note_on_c, 9, 36, 0
1, 27690, Note_on_c, 1, 79, 0
1, 27690, Note_on_c, 0, 74, 100
1, 27690, Note_on_c, 0, 67, 100
1, 27690, Note_on_c, 1, 77, 100
1, 27690, Note_on_c, 3, 77, 100
1, 27690, Note_on_c, 5, 77, 100
1, 27690, Note_on_c, 9, 38, 100
1, 27720, Note_on_c, 9, 38, 0
1, 27720, Note_on_c, 5, 77, 0
1, 27720, Note_on_c, 9, 46, 0
1, 27720, Note_on_c, 0, 55, 0
1, 27720, Note_on_c, 1, 77, 0
1, 27720, Note_on_c, 0, 43, 100
1, 27720, Note_on_c, 1, 74, 100
1, 27720, Note_on_c, 2, 43, 100
1, 27720, Note_on_c, 5, 74, 100
1, 27720, Note_on_c, 9, 36, 100
1, 27720, Note_on_c, 9, 40, 100
1, 27720, Note_on_c, 9, 46, 100
1, 27750, Note_on_c, 9, 40, 0
1, 27750, Note_on_c, 9, 36, 0
1, 27750, Note_on_c, 5, 74, 0
1, 27750, Note_on_c, 0, 67, 0
1, 27750, Note_on_c, 3, 77, 0
1, 27750, Note_on_c, 0, 74, 0
1, 27750, Note_on_c, 1, 74, 0
1, 27750, Note_on_c, 0, 65, 100
1, 27750, Note_on_c, 1, 77, 100
1, 27750, Note_on_c, 3, 79, 100
1, 27750, Note_on_c, 5, 77, 100
1, 27750, Note_on_c, 9, 40, 100
1, 27780, Note_on_c, 9, 40, 0
1, 27780, Note_on_c, 2, 43, 0
1, 27780, Note_on_c, 1, 77, 0
1, 27780, Note_on_c, 5, 77, 0
1, 27780, Note_on_c, 0, 43, 0
1, 27780, Note_on_c, 0, 65, 0
1, 27780, Note_on_c, 3, 79, 0
1, 27780, Note_on_c, 0, 62, 100
1, 27780, Note_on_c, 0, 55, 100
1, 27780, Note_on_c, 1, 79, 100
1, 27780, Note_on_c, 3, 79, 100
1, 27780, Note_on_c, 5, 79, 100
1, 27780, Note_on_c, 9, 40, 100
1, 27810, Note_on_c, 9, 40, 0
1, 27810, Note_on_c, 0, 62, 0
1, 27810, Note_on_c, 9, 40, 100
1, 27840, Note_on_c, 9, 40, 0
1, 27840, Note_on_c, 5, 79, 0
1, 27840, Note_on_c, 1, 79, 0
1, 27840, Note_on_c, 9, 46, 0
1, 27840, Note_on_c, 0, 55, 0
1, 27840, Note_on_c, 3, 79, 0
1, 27840, Note_on_c, 0, 43, 100
1, 27840, Note_on_c, 0, 67, 100
1, 27840, Note_on_c, 0, 74, 100
1, 27840, Note_on_c, 1, 67, 100
1, 27840, Note_on_c, 1, 74, 100
1, 27840, Note_on_c, 2, 43, 100
1, 27840, Note_on_c, 4, 67, 100
1, 27840, Note_on_c, 4, 74, 100
1, 27840, Note_on_c, 4, 77, 100
1, 27840, Note_on_c, 5, 67, 100
1, 27840, Note_on_c, 5, 74, 100
1, 27840, Note_on_c, 9, 49, 100
1, 27840, Note_on_c, 9, 36, 100
1, 27840, Note_on_c, 9, 40, 100
1, 27960, Note_on_c, 9, 40, 0
1, 27960, Note_on_c, 4, 74, 0
1, 27960, Note_on_c, 4, 67, 0
1, 27960, Note_on_c, 9, 36, 0
1, 27960, Note_on_c, 4, 77, 0
1, 27960, Note_on_c, 9, 49, 0
1, 27960, Note_on_c, 4, 77, 100
1, 27960, Note_on_c, 4, 74, 100
1, 27960, Note_on_c, 4, 67, 100
1, 28020, Note_on_c, 4, 67, 0
1, 28020, Note_on_c, 4, 74, 0
1, 28020, Note_on_c, 4, 77, 0
1, 28020, Note_on_c, 4, 67, 100
1, 28050, Note_on_c, 4, 67, 0
1, 28050, Note_on_c, 4, 77, 100
1, 28050, Note_on_c, 4, 74, 100
1, 28050, Note_on_c, 4, 67, 100
1, 28110, Note_on_c, 4, 67, 0
1, 28110, Note_on_c, 4, 74, 0
1, 28110, Note_on_c, 4, 77, 0
1, 28110, Note_on_c, 4, 67, 100
1, 28110, Note_on_c, 4, 72, 100
1, 28110, Note_on_c, 4, 76, 100
1, 28140, Note_on_c, 4, 76, 0
1, 28140, Note_on_c, 4, 72, 0
1, 28140, Note_on_c, 4, 67, 0
1, 28140, Note_on_c, 4, 76, 100
1, 28140, Note_on_c, 4, 72, 100
1, 28140, Note_on_c, 4, 67, 100
1, 28200, Note_on_c, 4, 67, 0
1, 28200, Note_on_c, 4, 72, 0
1, 28200, Note_on_c, 4, 76, 0
1, 28200, Note_on_c, 4, 76, 100
1, 28200, Note_on_c, 4, 67, 100
1, 28200, Note_on_c, 4, 72, 100
1, 28260, Note_on_c, 4, 72, 0
1, 28260, Note_on_c, 4, 67, 0
1, 28260, Note_on_c, 4, 76, 0
1, 28260, Note_on_c, 4, 76, 100
1, 28260, Note_on_c, 4, 67, 100
1, 28260, Note_on_c, 4, 72, 100
1, 28320, Note_on_c, 4, 72, 0
1, 28320, Note_on_c, 4, 67, 0
1, 28320, Note_on_c, 4, 76, 0
1, 28320, Note_on_c, 4, 69, 100
1, 28350, Note_on_c, 4, 69, 0
1, 28350, Note_on_c, 4, 77, 100
1, 28350, Note_on_c, 4, 74, 100
1, 28350, Note_on_c, 4, 69, 100
1, 28410, Note_on_c, 4, 69, 0
1, 28410, Note_on_c, 4, 74, 0
1, 28410, Note_on_c, 4, 77, 0
1, 28410, Note_on_c, 4, 69, 100
1, 28440, Note_on_c, 4, 69, 0
1, 28440, Note_on_c, 4, 77, 100
1, 28440, Note_on_c, 4, 74, 100
1, 28440, Note_on_c, 4, 69, 100
1, 28500, Note_on_c, 4, 69, 0
1, 28500, Note_on_c, 4, 74, 0
1, 28500, Note_on_c, 4, 77, 0
1, 28500, Note_on_c, 4, 69, 100
1, 28530, Note_on_c, 4, 69, 0
1, 28530, Note_on_c, 4, 77, 100
1, 28530, Note_on_c, 4, 74, 100
1, 28530, Note_on_c, 4, 69, 100
1, 28560, Note_on_c, 3, 84, 100
1, 28590, Note_on_c, 4, 69, 0
1, 28590, Note_on_c, 4, 74, 0
1, 28590, Note_on_c, 4, 77, 0
1, 28590, Note_on_c, 4, 67, 100
1, 28590, Note_on_c, 4, 72, 100
1, 28590, Note_on_c, 4, 76, 100
1, 28620, Note_on_c, 4, 76, 0
1, 28620, Note_on_c, 4, 67, 0
1, 28620, Note_on_c, 4, 72, 0
1, 28620, Note_on_c, 4, 76, 100
1, 28620, Note_on_c, 4, 72, 100
1, 28620, Note_on_c, 4, 67, 100
1, 28680, Note_on_c, 4, 67, 0
1, 28680, Note_on_c, 4, 76, 0
1, 28680, Note_on_c, 4, 72, 0
1, 28680, Note_on_c, 4, 76, 100
1, 28680, Note_on_c, 4, 67, 100
1, 28680, Note_on_c, 4, 72, 100
1, 28710, Note_on_c, 2, 43, 0
1, 28710, Note_on_c, 2, 52, 100
1, 28710, Note_on_c, 9, 36, 100
1, 28710, Note_on_c, 9, 40, 100
1, 28740, Note_on_c, 2, 52, 0
1, 28740, Note_on_c, 4, 76, 0
1, 28740, Note_on_c, 4, 67, 0
1, 28740, Note_on_c, 4, 72, 0
1, 28740, Note_on_c, 2, 53, 100
1, 28740, Note_on_c, 4, 76, 100
1, 28740, Note_on_c, 4, 67, 100
1, 28740, Note_on_c, 4, 72, 100
1, 28770, Note_on_c, 2, 53, 0
1, 28770, Note_on_c, 2, 54, 100
1, 28800, Note_on_c, 2, 54, 0
1, 28800, Note_on_c, 4, 67, 0
1, 28800, Note_on_c, 5, 74, 0
1, 28800, Note_on_c, 9, 36, 0
1, 28800, Note_on_c, 1, 67, 0
1, 28800, Note_on_c, 0, 74, 0
1, 28800, Note_on_c, 1, 74, 0
1, 28800, Note_on_c, 0, 67, 0
1, 28800, Note_on_c, 4, 72, 0
1, 28800, Note_on_c, 4, 76, 0
1, 28800, Note_on_c, 5, 67, 0
1, 28800, Note_on_c, 0, 43, 0
1, 28800, Note_on_c, 9, 40, 0
1, 28800, Note_on_c, 0, 74, 100
1, 28800, Note_on_c, 0, 67, 100
1, 28800, Note_on_c, 0, 43, 100
1, 28800, Note_on_c, 1, 74, 100
1, 28800, Note_on_c, 1, 67, 100
1, 28800, Note_on_c, 2, 55, 100
1, 28800, Note_on_c, 4, 67, 100
1, 28800, Note_on_c, 4, 74, 100
1, 28800, Note_on_c, 4, 77, 100
1, 28800, Note_on_c, 5, 74, 100
1, 28800, Note_on_c, 5, 67, 100
1, 28800, Note_on_c, 9, 36, 100
1, 28800, Note_on_c, 9, 49, 100
1, 28920, Note_on_c, 9, 49, 0
1, 28920, Note_on_c, 4, 74, 0
1, 28920, Note_on_c, 3, 84, 0
1, 28920, Note_on_c, 4, 67, 0
1, 28920, Note_on_c, 9, 36, 0
1, 28920, Note_on_c, 4, 77, 0
1, 28920, Note_on_c, 3, 82, 100
1, 28920, Note_on_c, 4, 77, 100
1, 28920, Note_on_c, 4, 74, 100
1, 28920, Note_on_c, 4, 67, 100
1, 28920, Note_on_c, 9, 42, 100
1, 28980, Note_on_c, 4, 67, 0
1, 28980, Note_on_c, 4, 77, 0
1, 28980, Note_on_c, 4, 74, 0
1, 28980, Note_on_c, 4, 67, 100
1, 29010, Note_on_c, 4, 67, 0
1, 29010, Note_on_c, 4, 77, 100
1, 29010, Note_on_c, 4, 74, 100
1, 29010, Note_on_c, 4, 67, 100
1, 29040, Note_on_c, 3, 82, 0
1, 29040, Note_on_c, 9, 42, 0
1, 29040, Note_on_c, 3, 82, 100
1, 29040, Note_on_c, 9, 42, 100
1, 29070, Note_on_c, 4, 77, 0
1, 29070, Note_on_c, 4, 74, 0
1, 29070, Note_on_c, 4, 67, 0
1, 29070, Note_on_c, 4, 67, 100
1, 29070, Note_on_c, 4, 72, 100
1, 29070, Note_on_c, 4, 76, 100
1, 29100, Note_on_c, 4, 76, 0
1, 29100, Note_on_c, 4, 72, 0
1, 29100, Note_on_c, 4, 67, 0
1, 29100, Note_on_c, 4, 76, 100
1, 29100, Note_on_c, 4, 72, 100
1, 29100, Note_on_c, 4, 67, 100
1, 29160, Note_on_c, 4, 67, 0
1, 29160, Note_on_c, 9, 42, 0
1, 29160, Note_on_c, 4, 72, 0
1, 29160, Note_on_c, 4, 76, 0
1, 29160, Note_on_c, 4, 76, 100
1, 29160, Note_on_c, 4, 67, 100
1, 29160, Note_on_c, 4, 72, 100
1, 29160, Note_on_c, 9, 42, 100
1, 29220, Note_on_c, 4, 72, 0
1, 29220, Note_on_c, 4, 76, 0
1, 29220, Note_on_c, 4, 67, 0
1, 29220, Note_on_c, 4, 76, 100
1, 29220, Note_on_c, 4, 67, 100
1, 29220, Note_on_c, 4, 72, 100
1, 29280, Note_on_c, 4, 72, 0
1, 29280, Note_on_c, 9, 42, 0
1, 29280, Note_on_c, 4, 67, 0
1, 29280, Note_on_c, 4, 76, 0
1, 29280, Note_on_c, 4, 69, 100
1, 29280, Note_on_c, 9, 40, 100
1, 29280, Note_on_c, 9, 42, 100
1, 29310, Note_on_c, 9, 40, 0
1, 29310, Note_on_c, 4, 69, 0
1, 29310, Note_on_c, 4, 77, 100
1, 29310, Note_on_c, 4, 74, 100
1, 29310, Note_on_c, 4, 69, 100
1, 29310, Note_on_c, 9, 40, 100
1, 29340, Note_on_c, 9, 40, 0
1, 29340, Note_on_c, 9, 38, 100
1, 29370, Note_on_c, 4, 69, 0
1, 29370, Note_on_c, 4, 77, 0
1, 29370, Note_on_c, 4, 74, 0
1, 29370, Note_on_c, 4, 69, 100
1, 29400, Note_on_c, 4, 69, 0
1, 29400, Note_on_c, 3, 82, 0
1, 29400, Note_on_c, 9, 42, 0
1, 29400, Note_on_c, 9, 38, 0
1, 29400, Note_on_c, 3, 79, 100
1, 29400, Note_on_c, 4, 77, 100
1, 29400, Note_on_c, 4, 74, 100
1, 29400, Note_on_c, 4, 69, 100
1, 29400, Note_on_c, 9, 40, 100
1, 29400, Note_on_c, 9, 42, 100
1, 29460, Note_on_c, 4, 69, 0
1, 29460, Note_on_c, 4, 77, 0
1, 29460, Note_on_c, 4, 74, 0
1, 29460, Note_on_c, 4, 69, 100
1, 29490, Note_on_c, 4, 69, 0
1, 29490, Note_on_c, 9, 40, 0
1, 29490, Note_on_c, 4, 77, 100
1, 29490, Note_on_c, 4, 74, 100
1, 29490, Note_on_c, 4, 69, 100
1, 29490, Note_on_c, 9, 38, 100
1, 29520, Note_on_c, 9, 42, 0
1, 29520, Note_on_c, 9, 42, 100
1, 29550, Note_on_c, 4, 77, 0
1, 29550, Note_on_c, 9, 38, 0
1, 29550, Note_on_c, 4, 74, 0
1, 29550, Note_on_c, 4, 69, 0
1, 29550, Note_on_c, 4, 67, 100
1, 29550, Note_on_c, 4, 72, 100
1, 29550, Note_on_c, 4, 76, 100
1, 29550, Note_on_c, 9, 40, 100
1, 29580, Note_on_c, 9, 40, 0
1, 29580, Note_on_c, 3, 79, 0
1, 29580, Note_on_c, 4, 76, 0
1, 29580, Note_on_c, 4, 67, 0
1, 29580, Note_on_c, 4, 72, 0
1, 29580, Note_on_c, 3, 70, 100
1, 29580, Note_on_c, 4, 76, 100
1, 29580, Note_on_c, 4, 72, 100
1, 29580, Note_on_c, 4, 67, 100
1, 29580, Note_on_c, 9, 40, 100
1, 29610, Note_on_c, 9, 40, 0
1, 29610, Note_on_c, 9, 40, 100
1, 29640, Note_on_c, 9, 40, 0
1, 29640, Note_on_c, 4, 72, 0
1, 29640, Note_on_c, 9, 42, 0
1, 29640, Note_on_c, 2, 55, 0
1, 29640, Note_on_c, 3, 70, 0
1, 29640, Note_on_c, 4, 76, 0
1, 29640, Note_on_c, 4, 67, 0
1, 29640, Note_on_c, 3, 72, 100
1, 29640, Note_on_c, 4, 76, 100
1, 29640, Note_on_c, 4, 67, 100
1, 29640, Note_on_c, 4, 72, 100
1, 29640, Note_on_c, 9, 43, 100
1, 29640, Note_on_c, 9, 42, 100
1, 29670, Note_on_c, 9, 43, 0
1, 29670, Note_on_c, 9, 43, 100
1, 29700, Note_on_c, 9, 43, 0
1, 29700, Note_on_c, 4, 76, 0
1, 29700, Note_on_c, 3, 72, 0
1, 29700, Note_on_c, 4, 67, 0
1, 29700, Note_on_c, 4, 72, 0
1, 29700, Note_on_c, 2, 41, 100
1, 29700, Note_on_c, 3, 82, 100
1, 29700, Note_on_c, 4, 76, 100
1, 29700, Note_on_c, 4, 67, 100
1, 29700, Note_on_c, 4, 72, 100
1, 29700, Note_on_c, 9, 41, 100
1, 29730, Note_on_c, 9, 41, 0
1, 29730, Note_on_c, 2, 41, 0
1, 29730, Note_on_c, 2, 42, 100
1, 29730, Note_on_c, 9, 41, 100
1, 29760, Note_on_c, 9, 41, 0
1, 29760, Note_on_c, 4, 72, 0
1, 29760, Note_on_c, 4, 67, 0
1, 29760, Note_on_c, 0, 67, 0
1, 29760, Note_on_c, 5, 74, 0
1, 29760, Note_on_c, 9, 42, 0
1, 29760, Note_on_c, 0, 74, 0
1, 29760, Note_on_c, 1, 67, 0
1, 29760, Note_on_c, 5, 67, 0
1, 29760, Note_on_c, 1, 74, 0
1, 29760, Note_on_c, 3, 82, 0
1, 29760, Note_on_c, 0, 43, 0
1, 29760, Note_on_c, 2, 42, 0
1, 29760, Note_on_c, 4, 76, 0
1, 29760, Note_on_c, 0, 43, 100
1, 29760, Note_on_c, 2, 43, 100
1, 29760, Note_on_c, 3, 79, 100
1, 29760, Note_on_c, 5, 82, 100
1, 29760, Note_on_c, 9, 36, 100
1, 29760, Note_on_c, 9, 49, 100
1, 29820, Note_on_c, 9, 49, 0
1, 29820, Note_on_c, 5, 82, 0
1, 29820, Note_on_c, 2, 43, 0
1, 29820, Note_on_c, 0, 43, 0
1, 29820, Note_on_c, 9, 36, 0
1, 29820, Note_on_c, 0, 67, 100
1, 29820, Note_on_c, 0, 55, 100
1, 29820, Note_on_c, 1, 69, 100
1, 29820, Note_on_c, 1, 73, 100
1, 29820, Note_on_c, 5, 77, 100
1, 29820, Note_on_c, 9, 36, 100
1, 29820, Note_on_c, 9, 46, 100
1, 29880, Note_on_c, 9, 46, 0
1, 29880, Note_on_c, 3, 79, 0
1, 29880, Note_on_c, 1, 73, 0
1, 29880, Note_on_c, 0, 67, 0
1, 29880, Note_on_c, 0, 55, 0
1, 29880, Note_on_c, 1, 69, 0
1, 29880, Note_on_c, 5, 77, 0
1, 29880, Note_on_c, 9, 36, 0
1, 29880, Note_on_c, 0, 65, 100
1, 29880, Note_on_c, 0, 43, 100
1, 29880, Note_on_c, 1, 70, 100
1, 29880, Note_on_c, 1, 74, 100
1, 29880, Note_on_c, 2, 43, 100
1, 29880, Note_on_c, 4, 67, 100
1, 29880, Note_on_c, 4, 74, 100
1, 29880, Note_on_c, 4, 77, 100
1, 29880, Note_on_c, 5, 77, 100
1, 29880, Note_on_c, 9, 40, 100
1, 29880, Note_on_c, 9, 36, 100
1, 29880, Note_on_c, 9, 46, 100
1, 29940, Note_on_c, 9, 46, 0
1, 29940, Note_on_c, 2, 43, 0
1, 29940, Note_on_c, 1, 74, 0
1, 29940, Note_on_c, 0, 65, 0
1, 29940, Note_on_c, 1, 70, 0
1, 29940, Note_on_c, 5, 77, 0
1, 29940, Note_on_c, 0, 43, 0
1, 29940, Note_on_c, 0, 67, 100
1, 29940, Note_on_c, 0, 55, 100
1, 29940, Note_on_c, 5, 77, 100
1, 29940, Note_on_c, 9, 46, 100
1, 29970, Note_on_c, 5, 77, 0
1, 29970, Note_on_c, 4, 67, 0
1, 29970, Note_on_c, 4, 77, 0
1, 29970, Note_on_c, 4, 74, 0
1, 29970, Note_on_c, 4, 79, 100
1, 29970, Note_on_c, 4, 72, 100
1, 29970, Note_on_c, 4, 67, 100
1, 29970, Note_on_c, 5, 77, 100
1, 30000, Note_on_c, 5, 77, 0
1, 30000, Note_on_c, 9, 46, 0
1, 30000, Note_on_c, 0, 67, 0
1, 30000, Note_on_c, 9, 36, 0
1, 30000, Note_on_c, 9, 40, 0
1, 30000, Note_on_c, 0, 55, 0
1, 30000, Note_on_c, 0, 74, 100
1, 30000, Note_on_c, 0, 69, 100
1, 30000, Note_on_c, 0, 43, 100
1, 30000, Note_on_c, 1, 69, 100
1, 30000, Note_on_c, 2, 43, 100
1, 30000, Note_on_c, 5, 77, 100
1, 30000, Note_on_c, 9, 36, 100
1, 30000, Note_on_c, 9, 46, 100
1, 30030, Note_on_c, 5, 77, 0
1, 30030, Note_on_c, 1, 69, 0
1, 30030, Note_on_c, 4, 67, 0
1, 30030, Note_on_c, 4, 79, 0
1, 30030, Note_on_c, 0, 69, 0
1, 30030, Note_on_c, 4, 72, 0
1, 30030, Note_on_c, 0, 70, 100
1, 30030, Note_on_c, 1, 70, 100
1, 30030, Note_on_c, 4, 70, 100
1, 30030, Note_on_c, 4, 67, 100
1, 30030, Note_on_c, 5, 77, 100
1, 30060, Note_on_c, 5, 77, 0
1, 30060, Note_on_c, 9, 36, 0
1, 30060, Note_on_c, 1, 70, 0
1, 30060, Note_on_c, 9, 46, 0
1, 30060, Note_on_c, 0, 43, 0
1, 30060, Note_on_c, 2, 43, 0
1, 30060, Note_on_c, 0, 55, 100
1, 30060, Note_on_c, 1, 67, 100
1, 30060, Note_on_c, 2, 43, 100
1, 30060, Note_on_c, 5, 77, 100
1, 30060, Note_on_c, 9, 36, 100
1, 30060, Note_on_c, 9, 46, 100
1, 30090, Note_on_c, 9, 36, 0
1, 30090, Note_on_c, 5, 77, 0
1, 30090, Note_on_c, 0, 74, 0
1, 30090, Note_on_c, 2, 43, 0
1, 30090, Note_on_c, 4, 70, 0
1, 30090, Note_on_c, 0, 70, 0
1, 30090, Note_on_c, 4, 67, 0
1, 30090, Note_on_c, 1, 67, 0
1, 30090, Note_on_c, 0, 74, 100
1, 30090, Note_on_c, 0, 67, 100
1, 30090, Note_on_c, 1, 65, 100
1, 30090, Note_on_c, 2, 43, 100
1, 30090, Note_on_c, 5, 77, 100
1, 30090, Note_on_c, 9, 36, 100
1, 30120, Note_on_c, 9, 36, 0
1, 30120, Note_on_c, 5, 77, 0
1, 30120, Note_on_c, 1, 65, 0
1, 30120, Note_on_c, 0, 55, 0
1, 30120, Note_on_c, 9, 46, 0
1, 30120, Note_on_c, 2, 43, 0
1, 30120, Note_on_c, 0, 43, 100
1, 30120, Note_on_c, 1, 62, 100
1, 30120, Note_on_c, 2, 43, 100
1, 30120, Note_on_c, 5, 77, 100
1, 30120, Note_on_c, 9, 36, 100
1, 30120, Note_on_c, 9, 38, 100
1, 30120, Note_on_c, 9, 46, 100
1, 30150, Note_on_c, 5, 77, 0
1, 30150, Note_on_c, 0, 67, 0
1, 30150, Note_on_c, 0, 74, 0
1, 30150, Note_on_c, 1, 62, 0
1, 30150, Note_on_c, 0, 65, 100
1, 30150, Note_on_c, 1, 65, 100
1, 30150, Note_on_c, 5, 77, 100
1, 30180, Note_on_c, 5, 77, 0
1, 30180, Note_on_c, 1, 65, 0
1, 30180, Note_on_c, 9, 46, 0
1, 30180, Note_on_c, 0, 43, 0
1, 30180, Note_on_c, 2, 43, 0
1, 30180, Note_on_c, 0, 65, 0
1, 30180, Note_on_c, 0, 62, 100
1, 30180, Note_on_c, 0, 55, 100
1, 30180, Note_on_c, 1, 67, 100
1, 30180, Note_on_c, 5, 77, 100
1, 30180, Note_on_c, 9, 46, 100
1, 30210, Note_on_c, 5, 77, 0
1, 30210, Note_on_c, 0, 62, 0
1, 30210, Note_on_c, 5, 77, 100
1, 30240, Note_on_c, 5, 77, 0
1, 30240, Note_on_c, 9, 46, 0
1, 30240, Note_on_c, 0, 55, 0
1, 30240, Note_on_c, 9, 36, 0
1, 30240, Note_on_c, 9, 38, 0
1, 30240, Note_on_c, 1, 67, 0
1, 30240, Note_on_c, 0, 43, 100
1, 30240, Note_on_c, 2, 43, 100
1, 30240, Note_on_c, 4, 67, 100
1, 30240, Note_on_c, 4, 65, 100
1, 30240, Note_on_c, 5, 77, 100
1, 30240, Note_on_c, 9, 36, 100
1, 30240, Note_on_c, 9, 46, 100
1, 30270, Note_on_c, 5, 77, 0
1, 30270, Note_on_c, 4, 65, 0
1, 30270, Note_on_c, 4, 67, 0
1, 30270, Note_on_c, 4, 70, 100
1, 30270, Note_on_c, 5, 77, 100
1, 30300, Note_on_c, 5, 77, 0
1, 30300, Note_on_c, 9, 46, 0
1, 30300, Note_on_c, 2, 43, 0
1, 30300, Note_on_c, 0, 43, 0
1, 30300, Note_on_c, 9, 36, 0
1, 30300, Note_on_c, 0, 67, 100
1, 30300, Note_on_c, 0, 55, 100
1, 30300, Note_on_c, 1, 69, 100
1, 30300, Note_on_c, 1, 73, 100
1, 30300, Note_on_c, 5, 77, 100
1, 30300, Note_on_c, 9, 36, 100
1, 30300, Note_on_c, 9, 46, 100
1, 30330, Note_on_c, 5, 77, 0
1, 30330, Note_on_c, 4, 70, 0
1, 30330, Note_on_c, 4, 65, 100
1, 30330, Note_on_c, 4, 72, 100
1, 30330, Note_on_c, 5, 77, 100
1, 30360, Note_on_c, 5, 77, 0
1, 30360, Note_on_c, 1, 73, 0
1, 30360, Note_on_c, 9, 36, 0
1, 30360, Note_on_c, 9, 46, 0
1, 30360, Note_on_c, 0, 55, 0
1, 30360, Note_on_c, 1, 69, 0
1, 30360, Note_on_c, 0, 67, 0
1, 30360, Note_on_c, 0, 65, 100
1, 30360, Note_on_c, 0, 43, 100
1, 30360, Note_on_c, 1, 70, 100
1, 30360, Note_on_c, 1, 74, 100
1, 30360, Note_on_c, 2, 43, 100
1, 30360, Note_on_c, 5, 77, 100
1, 30360, Note_on_c, 9, 36, 100
1, 30360, Note_on_c, 9, 38, 100
1, 30360, Note_on_c, 9, 46, 100
1, 30390, Note_on_c, 4, 72, 0
1, 30390, Note_on_c, 4, 65, 0
1, 30390, Note_on_c, 4, 65, 100
1, 30390, Note_on_c, 4, 72, 100
1, 30420, Note_on_c, 1, 70, 0
1, 30420, Note_on_c, 5, 77, 0
1, 30420, Note_on_c, 0, 43, 0
1, 30420, Note_on_c, 9, 46, 0
1, 30420, Note_on_c, 2, 43, 0
1, 30420, Note_on_c, 1, 74, 0
1, 30420, Note_on_c, 0, 65, 0
1, 30420, Note_on_c, 0, 67, 100
1, 30420, Note_on_c, 0, 55, 100
1, 30420, Note_on_c, 5, 77, 100
1, 30420, Note_on_c, 9, 46, 100
1, 30450, Note_on_c, 5, 77, 0
1, 30450, Note_on_c, 4, 72, 0
1, 30450, Note_on_c, 4, 65, 0
1, 30450, Note_on_c, 4, 77, 100
1, 30450, Note_on_c, 4, 74, 100
1, 30450, Note_on_c, 4, 67, 100
1, 30450, Note_on_c, 5, 77, 100
1, 30480, Note_on_c, 9, 38, 0
1, 30480, Note_on_c, 9, 36, 0
1, 30480, Note_on_c, 9, 46, 0
1, 30480, Note_on_c, 0, 67, 0
1, 30480, Note_on_c, 0, 55, 0
1, 30480, Note_on_c, 0, 74, 100
1, 30480, Note_on_c, 0, 69, 100
1, 30480, Note_on_c, 0, 43, 100
1, 30480, Note_on_c, 1, 69, 100
1, 30480, Note_on_c, 2, 43, 100
1, 30480, Note_on_c, 9, 36, 100
1, 30480, Note_on_c, 9, 46, 100
1, 30510, Note_on_c, 1, 69, 0
1, 30510, Note_on_c, 0, 69, 0
1, 30510, Note_on_c, 5, 77, 0
1, 30510, Note_on_c, 0, 70, 100
1, 30510, Note_on_c, 1, 70, 100
1, 30510, Note_on_c, 5, 77, 100
1, 30540, Note_on_c, 5, 77, 0
1, 30540, Note_on_c, 9, 36, 0
1, 30540, Note_on_c, 9, 46, 0
1, 30540, Note_on_c, 1, 70, 0
1, 30540, Note_on_c, 2, 43, 0
1, 30540, Note_on_c, 0, 43, 0
1, 30540, Note_on_c, 4, 74, 0
1, 30540, Note_on_c, 4, 67, 0
1, 30540, Note_on_c, 4, 77, 0
1, 30540, Note_on_c, 0, 55, 100
1, 30540, Note_on_c, 1, 67, 100
1, 30540, Note_on_c, 2, 43, 100
1, 30540, Note_on_c, 5, 77, 100
1, 30540, Note_on_c, 9, 36, 100
1, 30540, Note_on_c, 9, 46, 100
1, 30570, Note_on_c, 9, 36, 0
1, 30570, Note_on_c, 1, 67, 0
1, 30570, Note_on_c, 2, 43, 0
1, 30570, Note_on_c, 0, 74, 0
1, 30570, Note_on_c, 0, 70, 0
1, 30570, Note_on_c, 5, 77, 0
1, 30570, Note_on_c, 0, 74, 100
1, 30570, Note_on_c, 0, 67, 100
1, 30570, Note_on_c, 1, 65, 100
1, 30570, Note_on_c, 2, 43, 100
1, 30570, Note_on_c, 5, 77, 100
1, 30570, Note_on_c, 9, 36, 100
1, 30600, Note_on_c, 9, 36, 0
1, 30600, Note_on_c, 5, 77, 0
1, 30600, Note_on_c, 1, 65, 0
1, 30600, Note_on_c, 9, 46, 0
1, 30600, Note_on_c, 0, 55, 0
1, 30600, Note_on_c, 2, 43, 0
1, 30600, Note_on_c, 0, 43, 100
1, 30600, Note_on_c, 1, 62, 100
1, 30600, Note_on_c, 2, 43, 100
1, 30600, Note_on_c, 5, 77, 100
1, 30600, Note_on_c, 9, 36, 100
1, 30600, Note_on_c, 9, 40, 100
1, 30600, Note_on_c, 9, 46, 100
1, 30630, Note_on_c, 1, 62, 0
1, 30630, Note_on_c, 0, 67, 0
1, 30630, Note_on_c, 0, 74, 0
1, 30630, Note_on_c, 0, 65, 100
1, 30630, Note_on_c, 1, 65, 100
1, 30660, Note_on_c, 1, 65, 0
1, 30660, Note_on_c, 0, 65, 0
1, 30660, Note_on_c, 5, 77, 0
1, 30660, Note_on_c, 0, 43, 0
1, 30660, Note_on_c, 2, 43, 0
1, 30660, Note_on_c, 9, 46, 0
1, 30660, Note_on_c, 0, 62, 100
1, 30660, Note_on_c, 0, 55, 100
1, 30660, Note_on_c, 1, 67, 100
1, 30660, Note_on_c, 5, 82, 100
1, 30660, Note_on_c, 9, 46, 100
1, 30690, Note_on_c, 5, 82, 0
1, 30690, Note_on_c, 0, 62, 0
1, 30690, Note_on_c, 5, 84, 100
1, 30720, Note_on_c, 5, 84, 0
1, 30720, Note_on_c, 9, 46, 0
1, 30720, Note_on_c, 0, 55, 0
1, 30720, Note_on_c, 9, 36, 0
1, 30720, Note_on_c, 9, 40, 0
1, 30720, Note_on_c, 1, 67, 0
1, 30720, Note_on_c, 0, 43, 100
1, 30720, Note_on_c, 2, 43, 100
1, 30720, Note_on_c, 5, 82, 100
1, 30720, Note_on_c, 9, 36, 100
1, 30720, Note_on_c, 9, 46, 100
1, 30750, Note_on_c, 5, 82, 0
1, 30750, Note_on_c, 5, 77, 100
1, 30780, Note_on_c, 9, 36, 0
1, 30780, Note_on_c, 9, 46, 0
1, 30780, Note_on_c, 0, 43, 0
1, 30780, Note_on_c, 2, 43, 0
1, 30780, Note_on_c, 0, 67, 100
1, 30780, Note_on_c, 0, 55, 100
1, 30780, Note_on_c, 1, 69, 100
1, 30780, Note_on_c, 1, 73, 100
1, 30780, Note_on_c, 9, 36, 100
1, 30780, Note_on_c, 9, 46, 100
1, 30810, Note_on_c, 5, 77, 0
1, 30810, Note_on_c, 5, 77, 100
1, 30840, Note_on_c, 5, 77, 0
1, 30840, Note_on_c, 9, 46, 0
1, 30840, Note_on_c, 0, 55, 0
1, 30840, Note_on_c, 1, 69, 0
1, 30840, Note_on_c, 0, 67, 0
1, 30840, Note_on_c, 9, 36, 0
1, 30840, Note_on_c, 1, 73, 0
1, 30840, Note_on_c, 0, 65, 100
1, 30840, Note_on_c, 0, 43, 100
1, 30840, Note_on_c, 1, 70, 100
1, 30840, Note_on_c, 1, 74, 100
1, 30840, Note_on_c, 2, 43, 100
1, 30840, Note_on_c, 4, 67, 100
1, 30840, Note_on_c, 4, 74, 100
1, 30840, Note_on_c, 4, 77, 100
1, 30840, Note_on_c, 5, 77, 100
1, 30840, Note_on_c, 9, 36, 100
1, 30840, Note_on_c, 9, 38, 100
1, 30840, Note_on_c, 9, 46, 100
1, 30900, Note_on_c, 9, 46, 0
1, 30900, Note_on_c, 2, 43, 0
1, 30900, Note_on_c, 1, 74, 0
1, 30900, Note_on_c, 0, 65, 0
1, 30900, Note_on_c, 1, 70, 0
1, 30900, Note_on_c, 5, 77, 0
1, 30900, Note_on_c, 0, 43, 0
1, 30900, Note_on_c, 0, 67, 100
1, 30900, Note_on_c, 0, 55, 100
1, 30900, Note_on_c, 5, 77, 100
1, 30900, Note_on_c, 9, 46, 100
1, 30930, Note_on_c, 5, 77, 0
1, 30930, Note_on_c, 4, 67, 0
1, 30930, Note_on_c, 4, 77, 0
1, 30930, Note_on_c, 4, 74, 0
1, 30930, Note_on_c, 4, 72, 100
1, 30930, Note_on_c, 4, 67, 100
1, 30930, Note_on_c, 5, 77, 100
1, 30960, Note_on_c, 0, 67, 0
1, 30960, Note_on_c, 9, 38, 0
1, 30960, Note_on_c, 9, 46, 0
1, 30960, Note_on_c, 9, 36, 0
1, 30960, Note_on_c, 0, 55, 0
1, 30960, Note_on_c, 0, 74, 100
1, 30960, Note_on_c, 0, 69, 100
1, 30960, Note_on_c, 0, 43, 100
1, 30960, Note_on_c, 1, 69, 100
1, 30960, Note_on_c, 2, 43, 100
1, 30960, Note_on_c, 9, 36, 100
1, 30960, Note_on_c, 9, 46, 100
1, 30990, Note_on_c, 1, 69, 0
1, 30990, Note_on_c, 5, 77, 0
1, 30990, Note_on_c, 4, 72, 0
1, 30990, Note_on_c, 0, 69, 0
1, 30990, Note_on_c, 4, 67, 0
1, 30990, Note_on_c, 0, 70, 100
1, 30990, Note_on_c, 1, 70, 100
1, 30990, Note_on_c, 4, 70, 100
1, 30990, Note_on_c, 4, 67, 100
1, 30990, Note_on_c, 5, 77, 100
1, 31020, Note_on_c, 1, 70, 0
1, 31020, Note_on_c, 9, 36, 0
1, 31020, Note_on_c, 9, 46, 0
1, 31020, Note_on_c, 2, 43, 0
1, 31020, Note_on_c, 0, 43, 0
1, 31020, Note_on_c, 0, 55, 100
1, 31020, Note_on_c, 1, 67, 100
1, 31020, Note_on_c, 2, 43, 100
1, 31020, Note_on_c, 9, 36, 100
1, 31020, Note_on_c, 9, 46, 100
1, 31050, Note_on_c, 9, 36, 0
1, 31050, Note_on_c, 2, 43, 0
1, 31050, Note_on_c, 4, 70, 0
1, 31050, Note_on_c, 1, 67, 0
1, 31050, Note_on_c, 0, 74, 0
1, 31050, Note_on_c, 4, 67, 0
1, 31050, Note_on_c, 5, 77, 0
1, 31050, Note_on_c, 0, 70, 0
1, 31050, Note_on_c, 0, 74, 100
1, 31050, Note_on_c, 0, 67, 100
1, 31050, Note_on_c, 1, 65, 100
1, 31050, Note_on_c, 2, 43, 100
1, 31050, Note_on_c, 5, 77, 100
1, 31050, Note_on_c, 9, 36, 100
1, 31080, Note_on_c, 9, 36, 0
1, 31080, Note_on_c, 5, 77, 0
1, 31080, Note_on_c, 1, 65, 0
1, 31080, Note_on_c, 9, 46, 0
1, 31080, Note_on_c, 0, 55, 0
1, 31080, Note_on_c, 2, 43, 0
1, 31080, Note_on_c, 0, 43, 100
1, 31080, Note_on_c, 1, 62, 100
1, 31080, Note_on_c, 2, 43, 100
1, 31080, Note_on_c, 5, 77, 100
1, 31080, Note_on_c, 9, 36, 100
1, 31080, Note_on_c, 9, 40, 100
1, 31080, Note_on_c, 9, 46, 100
1, 31110, Note_on_c, 1, 62, 0
1, 31110, Note_on_c, 0, 67, 0
1, 31110, Note_on_c, 0, 74, 0
1, 31110, Note_on_c, 0, 65, 100
1, 31110, Note_on_c, 1, 65, 100
1, 31140, Note_on_c, 1, 65, 0
1, 31140, Note_on_c, 0, 65, 0
1, 31140, Note_on_c, 5, 77, 0
1, 31140, Note_on_c, 0, 43, 0
1, 31140, Note_on_c, 2, 43, 0
1, 31140, Note_on_c, 9, 46, 0
1, 31140, Note_on_c, 0, 62, 100
1, 31140, Note_on_c, 0, 55, 100
1, 31140, Note_on_c, 1, 67, 100
1, 31140, Note_on_c, 5, 77, 100
1, 31140, Note_on_c, 9, 46, 100
1, 31160, Note_on_c, 5, 77, 0
1, 31160, Note_on_c, 5, 82, 100
1, 31170, Note_on_c, 0, 62, 0
1, 31170, Note_on_c, 4, 67, 100
1, 31170, Note_on_c, 4, 72, 100
1, 31180, Note_on_c, 5, 82, 0
1, 31180, Note_on_c, 5, 84, 100
1, 31200, Note_on_c, 5, 84, 0
1, 31200, Note_on_c, 1, 67, 0
1, 31200, Note_on_c, 9, 36, 0
1, 31200, Note_on_c, 9, 40, 0
1, 31200, Note_on_c, 0, 55, 0
1, 31200, Note_on_c, 9, 46, 0
1, 31200, Note_on_c, 0, 43, 100
1, 31200, Note_on_c, 2, 43, 100
1, 31200, Note_on_c, 5, 74, 100
1, 31200, Note_on_c, 9, 36, 100
1, 31200, Note_on_c, 9, 46, 100
1, 31230, Note_on_c, 5, 74, 0
1, 31230, Note_on_c, 4, 72, 0
1, 31230, Note_on_c, 4, 67, 0
1, 31230, Note_on_c, 4, 67, 100
1, 31230, Note_on_c, 4, 72, 100
1, 31230, Note_on_c, 5, 77, 100
1, 31260, Note_on_c, 5, 77, 0
1, 31260, Note_on_c, 9, 46, 0
1, 31260, Note_on_c, 0, 43, 0
1, 31260, Note_on_c, 2, 43, 0
1, 31260, Note_on_c, 9, 36, 0
1, 31260, Note_on_c, 0, 67, 100
1, 31260, Note_on_c, 0, 55, 100
1, 31260, Note_on_c, 1, 69, 100
1, 31260, Note_on_c, 1, 73, 100
1, 31260, Note_on_c, 5, 77, 100
1, 31260, Note_on_c, 9, 36, 100
1, 31260, Note_on_c, 9, 46, 100
1, 31290, Note_on_c, 4, 72, 0
1, 31290, Note_on_c, 4, 67, 0
1, 31290, Note_on_c, 4, 74, 100
1, 31300, Note_on_c, 5, 77, 0
1, 31300, Note_on_c, 5, 82, 100
1, 31320, Note_on_c, 5, 82, 0
1, 31320, Note_on_c, 9, 36, 0
1, 31320, Note_on_c, 1, 73, 0
1, 31320, Note_on_c, 0, 67, 0
1, 31320, Note_on_c, 1, 69, 0
1, 31320, Note_on_c, 4, 74, 0
1, 31320, Note_on_c, 0, 55, 0
1, 31320, Note_on_c, 9, 46, 0
1, 31320, Note_on_c, 0, 65, 100
1, 31320, Note_on_c, 0, 43, 100
1, 31320, Note_on_c, 1, 70, 100
1, 31320, Note_on_c, 1, 74, 100
1, 31320, Note_on_c, 2, 43, 100
1, 31320, Note_on_c, 4, 67, 100
1, 31320, Note_on_c, 4, 72, 100
1, 31320, Note_on_c, 5, 77, 100
1, 31320, Note_on_c, 9, 36, 100
1, 31320, Note_on_c, 9, 38, 100
1, 31320, Note_on_c, 9, 46, 100
1, 31350, Note_on_c, 4, 72, 0
1, 31350, Note_on_c, 4, 67, 0
1, 31350, Note_on_c, 4, 70, 100
1, 31380, Note_on_c, 4, 70, 0
1, 31380, Note_on_c, 5, 77, 0
1, 31380, Note_on_c, 9, 46, 0
1, 31380, Note_on_c, 0, 65, 0
1, 31380, Note_on_c, 2, 43, 0
1, 31380, Note_on_c, 0, 43, 0
1, 31380, Note_on_c, 1, 74, 0
1, 31380, Note_on_c, 1, 70, 0
1, 31380, Note_on_c, 0, 67, 100
1, 31380, Note_on_c, 0, 55, 100
1, 31380, Note_on_c, 4, 67, 100
1, 31380, Note_on_c, 5, 74, 100
1, 31380, Note_on_c, 9, 46, 100
1, 31410, Note_on_c, 5, 74, 0
1, 31410, Note_on_c, 4, 67, 0
1, 31410, Note_on_c, 4, 67, 100
1, 31410, Note_on_c, 5, 77, 100
1, 31410, Note_on_c, 5, 82, 100
1, 31440, Note_on_c, 5, 82, 0
1, 31440, Note_on_c, 9, 38, 0
1, 31440, Note_on_c, 9, 36, 0
1, 31440, Note_on_c, 0, 55, 0
1, 31440, Note_on_c, 0, 67, 0
1, 31440, Note_on_c, 9, 46, 0
1, 31440, Note_on_c, 0, 74, 100
1, 31440, Note_on_c, 0, 69, 100
1, 31440, Note_on_c, 0, 43, 100
1, 31440, Note_on_c, 1, 69, 100
1, 31440, Note_on_c, 2, 43, 100
1, 31440, Note_on_c, 9, 36, 100
1, 31440, Note_on_c, 9, 46, 100
1, 31470, Note_on_c, 1, 69, 0
1, 31470, Note_on_c, 5, 77, 0
1, 31470, Note_on_c, 4, 67, 0
1, 31470, Note_on_c, 0, 69, 0
1, 31470, Note_on_c, 0, 70, 100
1, 31470, Note_on_c, 1, 70, 100
1, 31470, Note_on_c, 5, 77, 100
1, 31500, Note_on_c, 1, 70, 0
1, 31500, Note_on_c, 9, 46, 0
1, 31500, Note_on_c, 2, 43, 0
1, 31500, Note_on_c, 0, 43, 0
1, 31500, Note_on_c, 9, 36, 0
1, 31500, Note_on_c, 0, 55, 100
1, 31500, Note_on_c, 1, 67, 100
1, 31500, Note_on_c, 2, 43, 100
1, 31500, Note_on_c, 4, 67, 100
1, 31500, Note_on_c, 4, 70, 100
1, 31500, Note_on_c, 9, 36, 100
1, 31500, Note_on_c, 9, 46, 100
1, 31530, Note_on_c, 9, 36, 0
1, 31530, Note_on_c, 2, 43, 0
1, 31530, Note_on_c, 5, 77, 0
1, 31530, Note_on_c, 0, 70, 0
1, 31530, Note_on_c, 1, 67, 0
1, 31530, Note_on_c, 0, 74, 0
1, 31530, Note_on_c, 0, 74, 100
1, 31530, Note_on_c, 0, 67, 100
1, 31530, Note_on_c, 1, 65, 100
1, 31530, Note_on_c, 2, 43, 100
1, 31530, Note_on_c, 5, 77, 100
1, 31530, Note_on_c, 9, 36, 100
1, 31560, Note_on_c, 9, 36, 0
1, 31560, Note_on_c, 5, 77, 0
1, 31560, Note_on_c, 0, 55, 0
1, 31560, Note_on_c, 1, 65, 0
1, 31560, Note_on_c, 4, 67, 0
1, 31560, Note_on_c, 9, 46, 0
1, 31560, Note_on_c, 2, 43, 0
1, 31560, Note_on_c, 4, 70, 0
1, 31560, Note_on_c, 0, 43, 100
1, 31560, Note_on_c, 1, 62, 100
1, 31560, Note_on_c, 2, 43, 100
1, 31560, Note_on_c, 4, 67, 100
1, 31560, Note_on_c, 4, 72, 100
1, 31560, Note_on_c, 5, 77, 100
1, 31560, Note_on_c, 9, 36, 100
1, 31560, Note_on_c, 9, 40, 100
1, 31560, Note_on_c, 9, 46, 100
1, 31580, Note_on_c, 5, 77, 0
1, 31580, Note_on_c, 5, 82, 100
1, 31590, Note_on_c, 4, 72, 0
1, 31590, Note_on_c, 0, 74, 0
1, 31590, Note_on_c, 0, 67, 0
1, 31590, Note_on_c, 4, 67, 0
1, 31590, Note_on_c, 1, 62, 0
1, 31590, Note_on_c, 0, 65, 100
1, 31590, Note_on_c, 1, 65, 100
1, 31590, Note_on_c, 4, 70, 100
1, 31600, Note_on_c, 5, 82, 0
1, 31600, Note_on_c, 5, 77, 100
1, 31620, Note_on_c, 9, 46, 0
1, 31620, Note_on_c, 4, 70, 0
1, 31620, Note_on_c, 1, 65, 0
1, 31620, Note_on_c, 2, 43, 0
1, 31620, Note_on_c, 0, 43, 0
1, 31620, Note_on_c, 0, 65, 0
1, 31620, Note_on_c, 0, 62, 100
1, 31620, Note_on_c, 0, 55, 100
1, 31620, Note_on_c, 1, 67, 100
1, 31620, Note_on_c, 4, 67, 100
1, 31620, Note_on_c, 9, 46, 100
1, 31640, Note_on_c, 5, 77, 0
1, 31640, Note_on_c, 5, 82, 100
1, 31650, Note_on_c, 0, 62, 0
1, 31650, Note_on_c, 4, 67, 0
1, 31650, Note_on_c, 4, 67, 100
1, 31650, Note_on_c, 4, 73, 100
1, 31660, Note_on_c, 5, 82, 0
1, 31660, Note_on_c, 5, 84, 100
1, 31680, Note_on_c, 5, 84, 0
1, 31680, Note_on_c, 1, 67, 0
1, 31680, Note_on_c, 9, 46, 0
1, 31680, Note_on_c, 9, 40, 0
1, 31680, Note_on_c, 0, 55, 0
1, 31680, Note_on_c, 4, 73, 0
1, 31680, Note_on_c, 4, 67, 0
1, 31680, Note_on_c, 9, 36, 0
1, 31680, Note_on_c, 0, 43, 100
1, 31680, Note_on_c, 2, 43, 100
1, 31680, Note_on_c, 5, 82, 100
1, 31680, Note_on_c, 9, 36, 100
1, 31680, Note_on_c, 9, 49, 100
1, 31740, Note_on_c, 9, 49, 0
1, 31740, Note_on_c, 5, 82, 0
1, 31740, Note_on_c, 0, 43, 0
1, 31740, Note_on_c, 2, 43, 0
1, 31740, Note_on_c, 9, 36, 0
1, 31740, Note_on_c, 0, 67, 100
1, 31740, Note_on_c, 0, 55, 100
1, 31740, Note_on_c, 1, 69, 100
1, 31740, Note_on_c, 1, 73, 100
1, 31740, Note_on_c, 5, 77, 100
1, 31740, Note_on_c, 9, 36, 100
1, 31740, Note_on_c, 9, 46, 100
1, 31800, Note_on_c, 9, 46, 0
1, 31800, Note_on_c, 5, 77, 0
1, 31800, Note_on_c, 0, 55, 0
1, 31800, Note_on_c, 1, 69, 0
1, 31800, Note_on_c, 0, 67, 0
1, 31800, Note_on_c, 9, 36, 0
1, 31800, Note_on_c, 1, 73, 0
1, 31800, Note_on_c, 0, 65, 100
1, 31800, Note_on_c, 0, 43, 100
1, 31800, Note_on_c, 1, 70, 100
1, 31800, Note_on_c, 1, 74, 100
1, 31800, Note_on_c, 2, 43, 100
1, 31800, Note_on_c, 4, 67, 100
1, 31800, Note_on_c, 4, 74, 100
1, 31800, Note_on_c, 4, 77, 100
1, 31800, Note_on_c, 5, 77, 100
1, 31800, Note_on_c, 9, 40, 100
1, 31800, Note_on_c, 9, 36, 100
1, 31800, Note_on_c, 9, 46, 100
1, 31860, Note_on_c, 9, 46, 0
1, 31860, Note_on_c, 2, 43, 0
1, 31860, Note_on_c, 1, 74, 0
1, 31860, Note_on_c, 0, 65, 0
1, 31860, Note_on_c, 1, 70, 0
1, 31860, Note_on_c, 5, 77, 0
1, 31860, Note_on_c, 0, 43, 0
1, 31860, Note_on_c, 0, 67, 100
1, 31860, Note_on_c, 0, 55, 100
1, 31860, Note_on_c, 5, 77, 100
1, 31860, Note_on_c, 9, 46, 100
1, 31890, Note_on_c, 5, 77, 0
1, 31890, Note_on_c, 4, 67, 0
1, 31890, Note_on_c, 4, 77, 0
1, 31890, Note_on_c, 4, 74, 0
1, 31890, Note_on_c, 4, 79, 100
1, 31890, Note_on_c, 4, 72, 100
1, 31890, Note_on_c, 4, 67, 100
1, 31890, Note_on_c, 5, 77, 100
1, 31920, Note_on_c, 5, 77, 0
1, 31920, Note_on_c, 9, 46, 0
1, 31920, Note_on_c, 0, 67, 0
1, 31920, Note_on_c, 9, 36, 0
1, 31920, Note_on_c, 9, 40, 0
1, 31920, Note_on_c, 0, 55, 0
1, 31920, Note_on_c, 0, 74, 100
1, 31920, Note_on_c, 0, 69, 100
1, 31920, Note_on_c, 0, 43, 100
1, 31920, Note_on_c, 1, 69, 100
1, 31920, Note_on_c, 2, 43, 100
1, 31920, Note_on_c, 5, 77, 100
1, 31920, Note_on_c, 9, 36, 100
1, 31920, Note_on_c, 9, 46, 100
1, 31950, Note_on_c, 5, 77, 0
1, 31950, Note_on_c, 1, 69, 0
1, 31950, Note_on_c, 4, 67, 0
1, 31950, Note_on_c, 4, 79, 0
1, 31950, Note_on_c, 0, 69, 0
1, 31950, Note_on_c, 4, 72, 0
1, 31950, Note_on_c, 0, 70, 100
1, 31950, Note_on_c, 1, 70, 100
1, 31950, Note_on_c, 4, 70, 100
1, 31950, Note_on_c, 4, 67, 100
1, 31950, Note_on_c, 5, 77, 100
1, 31980, Note_on_c, 5, 77, 0
1, 31980, Note_on_c, 9, 36, 0
1, 31980, Note_on_c, 1, 70, 0
1, 31980, Note_on_c, 9, 46, 0
1, 31980, Note_on_c, 0, 43, 0
1, 31980, Note_on_c, 2, 43, 0
1, 31980, Note_on_c, 0, 55, 100
1, 31980, Note_on_c, 1, 67, 100
1, 31980, Note_on_c, 2, 43, 100
1, 31980, Note_on_c, 5, 77, 100
1, 31980, Note_on_c, 9, 36, 100
1, 31980, Note_on_c, 9, 46, 100
1, 32010, Note_on_c, 9, 36, 0
1, 32010, Note_on_c, 5, 77, 0
1, 32010, Note_on_c, 0, 74, 0
1, 32010, Note_on_c, 2, 43, 0
1, 32010, Note_on_c, 4, 70, 0
1, 32010, Note_on_c, 0, 70, 0
1, 32010, Note_on_c, 4, 67, 0
1, 32010, Note_on_c, 1, 67, 0
1, 32010, Note_on_c, 0, 74, 100
1, 32010, Note_on_c, 0, 67, 100
1, 32010, Note_on_c, 1, 65, 100
1, 32010, Note_on_c, 2, 43, 100
1, 32010, Note_on_c, 5, 77, 100
1, 32010, Note_on_c, 9, 36, 100
1, 32040, Note_on_c, 9, 36, 0
1, 32040, Note_on_c, 5, 77, 0
1, 32040, Note_on_c, 1, 65, 0
1, 32040, Note_on_c, 0, 55, 0
1, 32040, Note_on_c, 9, 46, 0
1, 32040, Note_on_c, 2, 43, 0
1, 32040, Note_on_c, 0, 43, 100
1, 32040, Note_on_c, 1, 62, 100
1, 32040, Note_on_c, 2, 43, 100
1, 32040, Note_on_c, 5, 77, 100
1, 32040, Note_on_c, 9, 36, 100
1, 32040, Note_on_c, 9, 38, 100
1, 32040, Note_on_c, 9, 46, 100
1, 32070, Note_on_c, 5, 77, 0
1, 32070, Note_on_c, 0, 67, 0
1, 32070, Note_on_c, 0, 74, 0
1, 32070, Note_on_c, 1, 62, 0
1, 32070, Note_on_c, 0, 65, 100
1, 32070, Note_on_c, 1, 65, 100
1, 32070, Note_on_c, 5, 77, 100
1, 32100, Note_on_c, 5, 77, 0
1, 32100, Note_on_c, 1, 65, 0
1, 32100, Note_on_c, 9, 46, 0
1, 32100, Note_on_c, 0, 43, 0
1, 32100, Note_on_c, 2, 43, 0
1, 32100, Note_on_c, 0, 65, 0
1, 32100, Note_on_c, 0, 62, 100
1, 32100, Note_on_c, 0, 55, 100
1, 32100, Note_on_c, 1, 67, 100
1, 32100, Note_on_c, 5, 77, 100
1, 32100, Note_on_c, 9, 46, 100
1, 32130, Note_on_c, 5, 77, 0
1, 32130, Note_on_c, 0, 62, 0
1, 32130, Note_on_c, 5, 77, 100
1, 32160, Note_on_c, 5, 77, 0
1, 32160, Note_on_c, 9, 46, 0
1, 32160, Note_on_c, 0, 55, 0
1, 32160, Note_on_c, 9, 36, 0
1, 32160, Note_on_c, 9, 38, 0
1, 32160, Note_on_c, 1, 67, 0
1, 32160, Note_on_c, 0, 43, 100
1, 32160, Note_on_c, 2, 43, 100
1, 32160, Note_on_c, 4, 67, 100
1, 32160, Note_on_c, 4, 65, 100
1, 32160, Note_on_c, 5, 77, 100
1, 32160, Note_on_c, 9, 36, 100
1, 32160, Note_on_c, 9, 46, 100
1, 32190, Note_on_c, 5, 77, 0
1, 32190, Note_on_c, 4, 65, 0
1, 32190, Note_on_c, 4, 67, 0
1, 32190, Note_on_c, 4, 70, 100
1, 32190, Note_on_c, 5, 77, 100
1, 32220, Note_on_c, 5, 77, 0
1, 32220, Note_on_c, 9, 46, 0
1, 32220, Note_on_c, 2, 43, 0
1, 32220, Note_on_c, 0, 43, 0
1, 32220, Note_on_c, 9, 36, 0
1, 32220, Note_on_c, 0, 67, 100
1, 32220, Note_on_c, 0, 55, 100
1, 32220, Note_on_c, 1, 69, 100
1, 32220, Note_on_c, 1, 73, 100
1, 32220, Note_on_c, 5, 77, 100
1, 32220, Note_on_c, 9, 36, 100
1, 32220, Note_on_c, 9, 46, 100
1, 32250, Note_on_c, 5, 77, 0
1, 32250, Note_on_c, 4, 70, 0
1, 32250, Note_on_c, 4, 65, 100
1, 32250, Note_on_c, 4, 72, 100
1, 32250, Note_on_c, 5, 77, 100
1, 32280, Note_on_c, 5, 77, 0
1, 32280, Note_on_c, 1, 73, 0
1, 32280, Note_on_c, 9, 36, 0
1, 32280, Note_on_c, 9, 46, 0
1, 32280, Note_on_c, 0, 55, 0
1, 32280, Note_on_c, 1, 69, 0
1, 32280, Note_on_c, 0, 67, 0
1, 32280, Note_on_c, 0, 65, 100
1, 32280, Note_on_c, 0, 43, 100
1, 32280, Note_on_c, 1, 70, 100
1, 32280, Note_on_c, 1, 74, 100
1, 32280, Note_on_c, 2, 43, 100
1, 32280, Note_on_c, 5, 77, 100
1, 32280, Note_on_c, 9, 36, 100
1, 32280, Note_on_c, 9, 38, 100
1, 32280, Note_on_c, 9, 46, 100
1, 32310, Note_on_c, 4, 72, 0
1, 32310, Note_on_c, 4, 65, 0
1, 32310, Note_on_c, 4, 65, 100
1, 32310, Note_on_c, 4, 72, 100
1, 32340, Note_on_c, 1, 70, 0
1, 32340, Note_on_c, 5, 77, 0
1, 32340, Note_on_c, 0, 43, 0
1, 32340, Note_on_c, 9, 46, 0
1, 32340, Note_on_c, 2, 43, 0
1, 32340, Note_on_c, 1, 74, 0
1, 32340, Note_on_c, 0, 65, 0
1, 32340, Note_on_c, 0, 67, 100
1, 32340, Note_on_c, 0, 55, 100
1, 32340, Note_on_c, 5, 77, 100
1, 32340, Note_on_c, 9, 46, 100
1, 32370, Note_on_c, 5, 77, 0
1, 32370, Note_on_c, 4, 72, 0
1, 32370, Note_on_c, 4, 65, 0
1, 32370, Note_on_c, 4, 77, 100
1, 32370, Note_on_c, 4, 74, 100
1, 32370, Note_on_c, 4, 67, 100
1, 32370, Note_on_c, 5, 77, 100
1, 32400, Note_on_c, 9, 38, 0
1, 32400, Note_on_c, 9, 36, 0
1, 32400, Note_on_c, 9, 46, 0
1, 32400, Note_on_c, 0, 67, 0
1, 32400, Note_on_c, 0, 55, 0
1, 32400, Note_on_c, 0, 74, 100
1, 32400, Note_on_c, 0, 69, 100
1, 32400, Note_on_c, 0, 43, 100
1, 32400, Note_on_c, 1, 69, 100
1, 32400, Note_on_c, 2, 43, 100
1, 32400, Note_on_c, 9, 36, 100
1, 32400, Note_on_c, 9, 46, 100
1, 32430, Note_on_c, 1, 69, 0
1, 32430, Note_on_c, 0, 69, 0
1, 32430, Note_on_c, 5, 77, 0
1, 32430, Note_on_c, 0, 70, 100
1, 32430, Note_on_c, 1, 70, 100
1, 32430, Note_on_c, 5, 77, 100
1, 32460, Note_on_c, 5, 77, 0
1, 32460, Note_on_c, 9, 36, 0
1, 32460, Note_on_c, 9, 46, 0
1, 32460, Note_on_c, 1, 70, 0
1, 32460, Note_on_c, 2, 43, 0
1, 32460, Note_on_c, 0, 43, 0
1, 32460, Note_on_c, 4, 74, 0
1, 32460, Note_on_c, 4, 67, 0
1, 32460, Note_on_c, 4, 77, 0
1, 32460, Note_on_c, 0, 55, 100
1, 32460, Note_on_c, 1, 67, 100
1, 32460, Note_on_c, 2, 43, 100
1, 32460, Note_on_c, 5, 77, 100
1, 32460, Note_on_c, 9, 36, 100
1, 32460, Note_on_c, 9, 46, 100
1, 32490, Note_on_c, 9, 36, 0
1, 32490, Note_on_c, 1, 67, 0
1, 32490, Note_on_c, 2, 43, 0
1, 32490, Note_on_c, 0, 74, 0
1, 32490, Note_on_c, 0, 70, 0
1, 32490, Note_on_c, 5, 77, 0
1, 32490, Note_on_c, 0, 74, 100
1, 32490, Note_on_c, 0, 67, 100
1, 32490, Note_on_c, 1, 65, 100
1, 32490, Note_on_c, 2, 43, 100
1, 32490, Note_on_c, 5, 77, 100
1, 32490, Note_on_c, 9, 36, 100
1, 32520, Note_on_c, 9, 36, 0
1, 32520, Note_on_c, 5, 77, 0
1, 32520, Note_on_c, 1, 65, 0
1, 32520, Note_on_c, 9, 46, 0
1, 32520, Note_on_c, 0, 55, 0
1, 32520, Note_on_c, 2, 43, 0
1, 32520, Note_on_c, 0, 43, 100
1, 32520, Note_on_c, 1, 62, 100
1, 32520, Note_on_c, 2, 43, 100
1, 32520, Note_on_c, 5, 77, 100
1, 32520, Note_on_c, 9, 36, 100
1, 32520, Note_on_c, 9, 40, 100
1, 32520, Note_on_c, 9, 46, 100
1, 32550, Note_on_c, 1, 62, 0
1, 32550, Note_on_c, 0, 67, 0
1, 32550, Note_on_c, 0, 74, 0
1, 32550, Note_on_c, 0, 65, 100
1, 32550, Note_on_c, 1, 65, 100
1, 32580, Note_on_c, 1, 65, 0
1, 32580, Note_on_c, 0, 65, 0
1, 32580, Note_on_c, 5, 77, 0
1, 32580, Note_on_c, 0, 43, 0
1, 32580, Note_on_c, 2, 43, 0
1, 32580, Note_on_c, 9, 46, 0
1, 32580, Note_on_c, 0, 62, 100
1, 32580, Note_on_c, 0, 55, 100
1, 32580, Note_on_c, 1, 67, 100
1, 32580, Note_on_c, 5, 82, 100
1, 32580, Note_on_c, 9, 46, 100
1, 32610, Note_on_c, 5, 82, 0
1, 32610, Note_on_c, 0, 62, 0
1, 32610, Note_on_c, 5, 84, 100
1, 32640, Note_on_c, 5, 84, 0
1, 32640, Note_on_c, 9, 46, 0
1, 32640, Note_on_c, 0, 55, 0
1, 32640, Note_on_c, 9, 36, 0
1, 32640, Note_on_c, 9, 40, 0
1, 32640, Note_on_c, 1, 67, 0
1, 32640, Note_on_c, 0, 43, 100
1, 32640, Note_on_c, 2, 43, 100
1, 32640, Note_on_c, 5, 82, 100
1, 32640, Note_on_c, 9, 36, 100
1, 32640, Note_on_c, 9, 46, 100
1, 32670, Note_on_c, 5, 82, 0
1, 32670, Note_on_c, 5, 77, 100
1, 32700, Note_on_c, 9, 36, 0
1, 32700, Note_on_c, 9, 46, 0
1, 32700, Note_on_c, 0, 43, 0
1, 32700, Note_on_c, 2, 43, 0
1, 32700, Note_on_c, 0, 67, 100
1, 32700, Note_on_c, 0, 55, 100
1, 32700, Note_on_c, 1, 69, 100
1, 32700, Note_on_c, 1, 73, 100
1, 32700, Note_on_c, 9, 36, 100
1, 32700, Note_on_c, 9, 46, 100
1, 32730, Note_on_c, 5, 77, 0
1, 32730, Note_on_c, 5, 77, 100
1, 32760, Note_on_c, 5, 77, 0
1, 32760, Note_on_c, 9, 46, 0
1, 32760, Note_on_c, 0, 55, 0
1, 32760, Note_on_c, 1, 69, 0
1, 32760, Note_on_c, 0, 67, 0
1, 32760, Note_on_c, 9, 36, 0
1, 32760, Note_on_c, 1, 73, 0
1, 32760, Note_on_c, 0, 65, 100
1, 32760, Note_on_c, 0, 43, 100
1, 32760, Note_on_c, 1, 70, 100
1, 32760, Note_on_c, 1, 74, 100
1, 32760, Note_on_c, 2, 43, 100
1, 32760, Note_on_c, 4, 67, 100
1, 32760, Note_on_c, 4, 74, 100
1, 32760, Note_on_c, 4, 77, 100
1, 32760, Note_on_c, 5, 77, 100
1, 32760, Note_on_c, 9, 36, 100
1, 32760, Note_on_c, 9, 38, 100
1, 32760, Note_on_c, 9, 46, 100
1, 32820, Note_on_c, 9, 46, 0
1, 32820, Note_on_c, 2, 43, 0
1, 32820, Note_on_c, 1, 74, 0
1, 32820, Note_on_c, 0, 65, 0
1, 32820, Note_on_c, 1, 70, 0
1, 32820, Note_on_c, 5, 77, 0
1, 32820, Note_on_c, 0, 43, 0
1, 32820, Note_on_c, 0, 67, 100
1, 32820, Note_on_c, 0, 55, 100
1, 32820, Note_on_c, 5, 77, 100
1, 32820, Note_on_c, 9, 46, 100
1, 32850, Note_on_c, 5, 77, 0
1, 32850, Note_on_c, 4, 67, 0
1, 32850, Note_on_c, 4, 77, 0
1, 32850, Note_on_c, 4, 74, 0
1, 32850, Note_on_c, 4, 72, 100
1, 32850, Note_on_c, 4, 67, 100
1, 32850, Note_on_c, 5, 77, 100
1, 32880, Note_on_c, 0, 67, 0
1, 32880, Note_on_c, 9, 38, 0
1, 32880, Note_on_c, 9, 46, 0
1, 32880, Note_on_c, 9, 36, 0
1, 32880, Note_on_c, 0, 55, 0
1, 32880, Note_on_c, 0, 74, 100
1, 32880, Note_on_c, 0, 69, 100
1, 32880, Note_on_c, 0, 43, 100
1, 32880, Note_on_c, 1, 69, 100
1, 32880, Note_on_c, 2, 43, 100
1, 32880, Note_on_c, 9, 36, 100
1, 32880, Note_on_c, 9, 46, 100
1, 32910, Note_on_c, 1, 69, 0
1, 32910, Note_on_c, 5, 77, 0
1, 32910, Note_on_c, 4, 72, 0
1, 32910, Note_on_c, 0, 69, 0
1, 32910, Note_on_c, 4, 67, 0
1, 32910, Note_on_c, 0, 70, 100
1, 32910, Note_on_c, 1, 70, 100
1, 32910, Note_on_c, 4, 70, 100
1, 32910, Note_on_c, 4, 67, 100
1, 32910, Note_on_c, 5, 77, 100
1, 32940, Note_on_c, 1, 70, 0
1, 32940, Note_on_c, 9, 36, 0
1, 32940, Note_on_c, 9, 46, 0
1, 32940, Note_on_c, 2, 43, 0
1, 32940, Note_on_c, 0, 43, 0
1, 32940, Note_on_c, 0, 55, 100
1, 32940, Note_on_c, 1, 67, 100
1, 32940, Note_on_c, 2, 43, 100
1, 32940, Note_on_c, 9, 36, 100
1, 32940, Note_on_c, 9, 46, 100
1, 32970, Note_on_c, 9, 36, 0
1, 32970, Note_on_c, 2, 43, 0
1, 32970, Note_on_c, 4, 70, 0
1, 32970, Note_on_c, 1, 67, 0
1, 32970, Note_on_c, 0, 74, 0
1, 32970, Note_on_c, 4, 67, 0
1, 32970, Note_on_c, 5, 77, 0
1, 32970, Note_on_c, 0, 70, 0
1, 32970, Note_on_c, 0, 74, 100
1, 32970, Note_on_c, 0, 67, 100
1, 32970, Note_on_c, 1, 65, 100
1, 32970, Note_on_c, 2, 43, 100
1, 32970, Note_on_c, 5, 77, 100
1, 32970, Note_on_c, 9, 36, 100
1, 33000, Note_on_c, 9, 36, 0
1, 33000, Note_on_c, 5, 77, 0
1, 33000, Note_on_c, 1, 65, 0
1, 33000, Note_on_c, 9, 46, 0
1, 33000, Note_on_c, 0, 55, 0
1, 33000, Note_on_c, 2, 43, 0
1, 33000, Note_on_c, 0, 43, 100
1, 33000, Note_on_c, 1, 62, 100
1, 33000, Note_on_c, 2, 43, 100
1, 33000, Note_on_c, 5, 77, 100
1, 33000, Note_on_c, 9, 36, 100
1, 33000, Note_on_c, 9, 40, 100
1, 33000, Note_on_c, 9, 46, 100
1, 33030, Note_on_c, 1, 62, 0
1, 33030, Note_on_c, 0, 67, 0
1, 33030, Note_on_c, 0, 74, 0
1, 33030, Note_on_c, 0, 65, 100
1, 33030, Note_on_c, 1, 65, 100
1, 33060, Note_on_c, 1, 65, 0
1, 33060, Note_on_c, 0, 65, 0
1, 33060, Note_on_c, 5, 77, 0
1, 33060, Note_on_c, 0, 43, 0
1, 33060, Note_on_c, 2, 43, 0
1, 33060, Note_on_c, 9, 46, 0
1, 33060, Note_on_c, 0, 62, 100
1, 33060, Note_on_c, 0, 55, 100
1, 33060, Note_on_c, 1, 67, 100
1, 33060, Note_on_c, 5, 77, 100
1, 33060, Note_on_c, 9, 46, 100
1, 33080, Note_on_c, 5, 77, 0
1, 33080, Note_on_c, 5, 82, 100
1, 33090, Note_on_c, 0, 62, 0
1, 33090, Note_on_c, 4, 67, 100
1, 33090, Note_on_c, 4, 72, 100
1, 33100, Note_on_c, 5, 82, 0
1, 33100, Note_on_c, 5, 84, 100
1, 33120, Note_on_c, 5, 84, 0
1, 33120, Note_on_c, 1, 67, 0
1, 33120, Note_on_c, 9, 36, 0
1, 33120, Note_on_c, 9, 40, 0
1, 33120, Note_on_c, 0, 55, 0
1, 33120, Note_on_c, 9, 46, 0
1, 33120, Note_on_c, 0, 43, 100
1, 33120, Note_on_c, 2, 43, 100
1, 33120, Note_on_c, 5, 74, 100
1, 33120, Note_on_c, 9, 36, 100
1, 33120, Note_on_c, 9, 46, 100
1, 33150, Note_on_c, 5, 74, 0
1, 33150, Note_on_c, 4, 72, 0
1, 33150, Note_on_c, 4, 67, 0
1, 33150, Note_on_c, 4, 67, 100
1, 33150, Note_on_c, 4, 72, 100
1, 33150, Note_on_c, 5, 77, 100
1, 33180, Note_on_c, 5, 77, 0
1, 33180, Note_on_c, 9, 46, 0
1, 33180, Note_on_c, 0, 43, 0
1, 33180, Note_on_c, 2, 43, 0
1, 33180, Note_on_c, 9, 36, 0
1, 33180, Note_on_c, 0, 67, 100
1, 33180, Note_on_c, 0, 55, 100
1, 33180, Note_on_c, 1, 69, 100
1, 33180, Note_on_c, 1, 73, 100
1, 33180, Note_on_c, 5, 77, 100
1, 33180, Note_on_c, 9, 36, 100
1, 33180, Note_on_c, 9, 46, 100
1, 33210, Note_on_c, 4, 72, 0
1, 33210, Note_on_c, 4, 67, 0
1, 33210, Note_on_c, 4, 74, 100
1, 33220, Note_on_c, 5, 77, 0
1, 33220, Note_on_c, 5, 82, 100
1, 33240, Note_on_c, 5, 82, 0
1, 33240, Note_on_c, 9, 36, 0
1, 33240, Note_on_c, 1, 73, 0
1, 33240, Note_on_c, 0, 67, 0
1, 33240, Note_on_c, 1, 69, 0
1, 33240, Note_on_c, 4, 74, 0
1, 33240, Note_on_c, 0, 55, 0
1, 33240, Note_on_c, 9, 46, 0
1, 33240, Note_on_c, 0, 65, 100
1, 33240, Note_on_c, 0, 43, 100
1, 33240, Note_on_c, 1, 70, 100
1, 33240, Note_on_c, 1, 74, 100
1, 33240, Note_on_c, 2, 43, 100
1, 33240, Note_on_c, 4, 67, 100
1, 33240, Note_on_c, 4, 72, 100
1, 33240, Note_on_c, 5, 77, 100
1, 33240, Note_on_c, 9, 36, 100
1, 33240, Note_on_c, 9, 38, 100
1, 33240, Note_on_c, 9, 46, 100
1, 33270, Note_on_c, 4, 72, 0
1, 33270, Note_on_c, 4, 67, 0
1, 33270, Note_on_c, 4, 70, 100
1, 33300, Note_on_c, 4, 70, 0
1, 33300, Note_on_c, 5, 77, 0
1, 33300, Note_on_c, 9, 46, 0
1, 33300, Note_on_c, 0, 65, 0
1, 33300, Note_on_c, 2, 43, 0
1, 33300, Note_on_c, 0, 43, 0
1, 33300, Note_on_c, 1, 74, 0
1, 33300, Note_on_c, 1, 70, 0
1, 33300, Note_on_c, 0, 67, 100
1, 33300, Note_on_c, 0, 55, 100
1, 33300, Note_on_c, 4, 67, 100
1, 33300, Note_on_c, 5, 74, 100
1, 33300, Note_on_c, 9, 46, 100
1, 33330, Note_on_c, 5, 74, 0
1, 33330, Note_on_c, 4, 67, 0
1, 33330, Note_on_c, 4, 67, 100
1, 33330, Note_on_c, 5, 77, 100
1, 33330, Note_on_c, 5, 82, 100
1, 33360, Note_on_c, 5, 82, 0
1, 33360, Note_on_c, 9, 38, 0
1, 33360, Note_on_c, 9, 36, 0
1, 33360, Note_on_c, 0, 55, 0
1, 33360, Note_on_c, 0, 67, 0
1, 33360, Note_on_c, 9, 46, 0
1, 33360, Note_on_c, 0, 74, 100
1, 33360, Note_on_c, 0, 69, 100
1, 33360, Note_on_c, 0, 43, 100
1, 33360, Note_on_c, 1, 69, 100
1, 33360, Note_on_c, 2, 43, 100
1, 33360, Note_on_c, 9, 36, 100
1, 33360, Note_on_c, 9, 46, 100
1, 33390, Note_on_c, 1, 69, 0
1, 33390, Note_on_c, 5, 77, 0
1, 33390, Note_on_c, 4, 67, 0
1, 33390, Note_on_c, 0, 69, 0
1, 33390, Note_on_c, 0, 70, 100
1, 33390, Note_on_c, 1, 70, 100
1, 33390, Note_on_c, 5, 77, 100
1, 33420, Note_on_c, 1, 70, 0
1, 33420, Note_on_c, 9, 46, 0
1, 33420, Note_on_c, 2, 43, 0
1, 33420, Note_on_c, 0, 43, 0
1, 33420, Note_on_c, 9, 36, 0
1, 33420, Note_on_c, 0, 55, 100
1, 33420, Note_on_c, 1, 67, 100
1, 33420, Note_on_c, 2, 43, 100
1, 33420, Note_on_c, 4, 67, 100
1, 33420, Note_on_c, 4, 70, 100
1, 33420, Note_on_c, 9, 36, 100
1, 33420, Note_on_c, 9, 46, 100
1, 33450, Note_on_c, 9, 36, 0
1, 33450, Note_on_c, 2, 43, 0
1, 33450, Note_on_c, 5, 77, 0
1, 33450, Note_on_c, 0, 70, 0
1, 33450, Note_on_c, 1, 67, 0
1, 33450, Note_on_c, 0, 74, 0
1, 33450, Note_on_c, 0, 74, 100
1, 33450, Note_on_c, 0, 67, 100
1, 33450, Note_on_c, 1, 65, 100
1, 33450, Note_on_c, 2, 43, 100
1, 33450, Note_on_c, 5, 77, 100
1, 33450, Note_on_c, 9, 36, 100
1, 33480, Note_on_c, 9, 36, 0
1, 33480, Note_on_c, 5, 77, 0
1, 33480, Note_on_c, 0, 55, 0
1, 33480, Note_on_c, 1, 65, 0
1, 33480, Note_on_c, 4, 67, 0
1, 33480, Note_on_c, 9, 46, 0
1, 33480, Note_on_c, 2, 43, 0
1, 33480, Note_on_c, 4, 70, 0
1, 33480, Note_on_c, 0, 43, 100
1, 33480, Note_on_c, 1, 62, 100
1, 33480, Note_on_c, 2, 43, 100
1, 33480, Note_on_c, 4, 67, 100
1, 33480, Note_on_c, 4, 72, 100
1, 33480, Note_on_c, 5, 77, 100
1, 33480, Note_on_c, 9, 36, 100
1, 33480, Note_on_c, 9, 40, 100
1, 33480, Note_on_c, 9, 46, 100
1, 33500, Note_on_c, 5, 77, 0
1, 33500, Note_on_c, 5, 82, 100
1, 33510, Note_on_c, 4, 72, 0
1, 33510, Note_on_c, 0, 74, 0
1, 33510, Note_on_c, 0, 67, 0
1, 33510, Note_on_c, 4, 67, 0
1, 33510, Note_on_c, 1, 62, 0
1, 33510, Note_on_c, 0, 65, 100
1, 33510, Note_on_c, 1, 65, 100
1, 33510, Note_on_c, 4, 70, 100
1, 33520, Note_on_c, 5, 82, 0
1, 33520, Note_on_c, 5, 77, 100
1, 33540, Note_on_c, 9, 46, 0
1, 33540, Note_on_c, 4, 70, 0
1, 33540, Note_on_c, 1, 65, 0
1, 33540, Note_on_c, 2, 43, 0
1, 33540, Note_on_c, 0, 43, 0
1, 33540, Note_on_c, 0, 65, 0
1, 33540, Note_on_c, 0, 62, 100
1, 33540, Note_on_c, 0, 55, 100
1, 33540, Note_on_c, 1, 67, 100
1, 33540, Note_on_c, 4, 67, 100
1, 33540, Note_on_c, 9, 46, 100
1, 33560, Note_on_c, 5, 77, 0
1, 33560, Note_on_c, 5, 82, 100
1, 33570, Note_on_c, 0, 62, 0
1, 33570, Note_on_c, 4, 67, 0
1, 33570, Note_on_c, 4, 67, 100
1, 33570, Note_on_c, 4, 73, 100
1, 33580, Note_on_c, 5, 82, 0
1, 33580, Note_on_c, 5, 84, 100
1, 33600, Note_on_c, 5, 84, 0
1, 33600, Note_on_c, 1, 67, 0
1, 33600, Note_on_c, 9, 46, 0
1, 33600, Note_on_c, 9, 40, 0
1, 33600, Note_on_c, 0, 55, 0
1, 33600, Note_on_c, 4, 73, 0
1, 33600, Note_on_c, 4, 67, 0
1, 33600, Note_on_c, 9, 36, 0
1, 33600, Note_on_c, 0, 43, 100
1, 33600, Note_on_c, 2, 43, 100
1, 33600, Note_on_c, 5, 82, 100
1, 33600, Note_on_c, 9, 36, 100
1, 33600, Note_on_c, 9, 49, 100
1, 33660, Note_on_c, 9, 49, 0
1, 33660, Note_on_c, 5, 82, 0
1, 33660, Note_on_c, 0, 43, 0
1, 33660, Note_on_c, 2, 43, 0
1, 33660, Note_on_c, 9, 36, 0
1, 33660, Note_on_c, 0, 67, 100
1, 33660, Note_on_c, 0, 55, 100
1, 33660, Note_on_c, 1, 69, 100
1, 33660, Note_on_c, 1, 73, 100
1, 33660, Note_on_c, 5, 77, 100
1, 33660, Note_on_c, 9, 36, 100
1, 33660, Note_on_c, 9, 46, 100
1, 33720, Note_on_c, 9, 46, 0
1, 33720, Note_on_c, 5, 77, 0
1, 33720, Note_on_c, 0, 55, 0
1, 33720, Note_on_c, 1, 69, 0
1, 33720, Note_on_c, 0, 67, 0
1, 33720, Note_on_c, 9, 36, 0
1, 33720, Note_on_c, 1, 73, 0
1, 33720, Note_on_c, 0, 65, 100
1, 33720, Note_on_c, 0, 43, 100
1, 33720, Note_on_c, 1, 70, 100
1, 33720, Note_on_c, 1, 74, 100
1, 33720, Note_on_c, 2, 43, 100
1, 33720, Note_on_c, 4, 67, 100
1, 33720, Note_on_c, 4, 74, 100
1, 33720, Note_on_c, 4, 77, 100
1, 33720, Note_on_c, 5, 77, 100
1, 33720, Note_on_c, 9, 40, 100
1, 33720, Note_on_c, 9, 36, 100
1, 33720, Note_on_c, 9, 46, 100
1, 33780, Note_on_c, 9, 46, 0
1, 33780, Note_on_c, 2, 43, 0
1, 33780, Note_on_c, 1, 74, 0
1, 33780, Note_on_c, 0, 65, 0
1, 33780, Note_on_c, 1, 70, 0
1, 33780, Note_on_c, 5, 77, 0
1, 33780, Note_on_c, 0, 43, 0
1, 33780, Note_on_c, 0, 67, 100
1, 33780, Note_on_c, 0, 55, 100
1, 33780, Note_on_c, 5, 77, 100
1, 33780, Note_on_c, 9, 46, 100
1, 33810, Note_on_c, 5, 77, 0
1, 33810, Note_on_c, 4, 67, 0
1, 33810, Note_on_c, 4, 77, 0
1, 33810, Note_on_c, 4, 74, 0
1, 33810, Note_on_c, 4, 79, 100
1, 33810, Note_on_c, 4, 72, 100
1, 33810, Note_on_c, 4, 67, 100
1, 33810, Note_on_c, 5, 77, 100
1, 33840, Note_on_c, 5, 77, 0
1, 33840, Note_on_c, 9, 46, 0
1, 33840, Note_on_c, 0, 67, 0
1, 33840, Note_on_c, 9, 36, 0
1, 33840, Note_on_c, 9, 40, 0
1, 33840, Note_on_c, 0, 55, 0
1, 33840, Note_on_c, 0, 74, 100
1, 33840, Note_on_c, 0, 69, 100
1, 33840, Note_on_c, 0, 43, 100
1, 33840, Note_on_c, 1, 69, 100
1, 33840, Note_on_c, 2, 43, 100
1, 33840, Note_on_c, 5, 77, 100
1, 33840, Note_on_c, 9, 36, 100
1, 33840, Note_on_c, 9, 46, 100
1, 33870, Note_on_c, 5, 77, 0
1, 33870, Note_on_c, 1, 69, 0
1, 33870, Note_on_c, 4, 67, 0
1, 33870, Note_on_c, 4, 79, 0
1, 33870, Note_on_c, 0, 69, 0
1, 33870, Note_on_c, 4, 72, 0
1, 33870, Note_on_c, 0, 70, 100
1, 33870, Note_on_c, 1, 70, 100
1, 33870, Note_on_c, 4, 70, 100
1, 33870, Note_on_c, 4, 67, 100
1, 33870, Note_on_c, 5, 77, 100
1, 33900, Note_on_c, 5, 77, 0
1, 33900, Note_on_c, 9, 36, 0
1, 33900, Note_on_c, 1, 70, 0
1, 33900, Note_on_c, 9, 46, 0
1, 33900, Note_on_c, 0, 43, 0
1, 33900, Note_on_c, 2, 43, 0
1, 33900, Note_on_c, 0, 55, 100
1, 33900, Note_on_c, 1, 67, 100
1, 33900, Note_on_c, 2, 43, 100
1, 33900, Note_on_c, 5, 77, 100
1, 33900, Note_on_c, 9, 36, 100
1, 33900, Note_on_c, 9, 46, 100
1, 33930, Note_on_c, 9, 36, 0
1, 33930, Note_on_c, 5, 77, 0
1, 33930, Note_on_c, 0, 74, 0
1, 33930, Note_on_c, 2, 43, 0
1, 33930, Note_on_c, 4, 70, 0
1, 33930, Note_on_c, 0, 70, 0
1, 33930, Note_on_c, 4, 67, 0
1, 33930, Note_on_c, 1, 67, 0
1, 33930, Note_on_c, 0, 74, 100
1, 33930, Note_on_c, 0, 67, 100
1, 33930, Note_on_c, 1, 65, 100
1, 33930, Note_on_c, 2, 43, 100
1, 33930, Note_on_c, 5, 77, 100
1, 33930, Note_on_c, 9, 36, 100
1, 33960, Note_on_c, 9, 36, 0
1, 33960, Note_on_c, 5, 77, 0
1, 33960, Note_on_c, 1, 65, 0
1, 33960, Note_on_c, 0, 55, 0
1, 33960, Note_on_c, 9, 46, 0
1, 33960, Note_on_c, 2, 43, 0
1, 33960, Note_on_c, 0, 43, 100
1, 33960, Note_on_c, 1, 62, 100
1, 33960, Note_on_c, 2, 43, 100
1, 33960, Note_on_c, 5, 77, 100
1, 33960, Note_on_c, 9, 36, 100
1, 33960, Note_on_c, 9, 38, 100
1, 33960, Note_on_c, 9, 46, 100
1, 33990, Note_on_c, 5, 77, 0
1, 33990, Note_on_c, 0, 67, 0
1, 33990, Note_on_c, 0, 74, 0
1, 33990, Note_on_c, 1, 62, 0
1, 33990, Note_on_c, 0, 65, 100
1, 33990, Note_on_c, 1, 65, 100
1, 33990, Note_on_c, 5, 77, 100
1, 34020, Note_on_c, 5, 77, 0
1, 34020, Note_on_c, 1, 65, 0
1, 34020, Note_on_c, 9, 46, 0
1, 34020, Note_on_c, 0, 43, 0
1, 34020, Note_on_c, 2, 43, 0
1, 34020, Note_on_c, 0, 65, 0
1, 34020, Note_on_c, 0, 62, 100
1, 34020, Note_on_c, 0, 55, 100
1, 34020, Note_on_c, 1, 67, 100
1, 34020, Note_on_c, 5, 77, 100
1, 34020, Note_on_c, 9, 46, 100
1, 34050, Note_on_c, 5, 77, 0
1, 34050, Note_on_c, 0, 62, 0
1, 34050, Note_on_c, 5, 77, 100
1, 34080, Note_on_c, 5, 77, 0
1, 34080, Note_on_c, 9, 46, 0
1, 34080, Note_on_c, 0, 55, 0
1, 34080, Note_on_c, 9, 36, 0
1, 34080, Note_on_c, 9, 38, 0
1, 34080, Note_on_c, 1, 67, 0
1, 34080, Note_on_c, 0, 43, 100
1, 34080, Note_on_c, 2, 43, 100
1, 34080, Note_on_c, 4, 67, 100
1, 34080, Note_on_c, 4, 65, 100
1, 34080, Note_on_c, 5, 77, 100
1, 34080, Note_on_c, 9, 36, 100
1, 34080, Note_on_c, 9, 46, 100
1, 34110, Note_on_c, 5, 77, 0
1, 34110, Note_on_c, 4, 65, 0
1, 34110, Note_on_c, 4, 67, 0
1, 34110, Note_on_c, 4, 70, 100
1, 34110, Note_on_c, 5, 77, 100
1, 34140, Note_on_c, 5, 77, 0
1, 34140, Note_on_c, 9, 46, 0
1, 34140, Note_on_c, 2, 43, 0
1, 34140, Note_on_c, 0, 43, 0
1, 34140, Note_on_c, 9, 36, 0
1, 34140, Note_on_c, 0, 67, 100
1, 34140, Note_on_c, 0, 55, 100
1, 34140, Note_on_c, 1, 69, 100
1, 34140, Note_on_c, 1, 73, 100
1, 34140, Note_on_c, 5, 77, 100
1, 34140, Note_on_c, 9, 36, 100
1, 34140, Note_on_c, 9, 46, 100
1, 34170, Note_on_c, 5, 77, 0
1, 34170, Note_on_c, 4, 70, 0
1, 34170, Note_on_c, 4, 65, 100
1, 34170, Note_on_c, 4, 72, 100
1, 34170, Note_on_c, 5, 77, 100
1, 34200, Note_on_c, 5, 77, 0
1, 34200, Note_on_c, 1, 73, 0
1, 34200, Note_on_c, 9, 36, 0
1, 34200, Note_on_c, 9, 46, 0
1, 34200, Note_on_c, 0, 55, 0
1, 34200, Note_on_c, 1, 69, 0
1, 34200, Note_on_c, 0, 67, 0
1, 34200, Note_on_c, 0, 65, 100
1, 34200, Note_on_c, 0, 43, 100
1, 34200, Note_on_c, 1, 70, 100
1, 34200, Note_on_c, 1, 74, 100
1, 34200, Note_on_c, 2, 43, 100
1, 34200, Note_on_c, 5, 77, 100
1, 34200, Note_on_c, 9, 36, 100
1, 34200, Note_on_c, 9, 38, 100
1, 34200, Note_on_c, 9, 46, 100
1, 34230, Note_on_c, 4, 72, 0
1, 34230, Note_on_c, 4, 65, 0
1, 34230, Note_on_c, 4, 65, 100
1, 34230, Note_on_c, 4, 72, 100
1, 34260, Note_on_c, 1, 70, 0
1, 34260, Note_on_c, 5, 77, 0
1, 34260, Note_on_c, 0, 43, 0
1, 34260, Note_on_c, 9, 46, 0
1, 34260, Note_on_c, 2, 43, 0
1, 34260, Note_on_c, 1, 74, 0
1, 34260, Note_on_c, 0, 65, 0
1, 34260, Note_on_c, 0, 67, 100
1, 34260, Note_on_c, 0, 55, 100
1, 34260, Note_on_c, 5, 77, 100
1, 34260, Note_on_c, 9, 46, 100
1, 34290, Note_on_c, 5, 77, 0
1, 34290, Note_on_c, 4, 72, 0
1, 34290, Note_on_c, 4, 65, 0
1, 34290, Note_on_c, 4, 77, 100
1, 34290, Note_on_c, 4, 74, 100
1, 34290, Note_on_c, 4, 67, 100
1, 34290, Note_on_c, 5, 77, 100
1, 34320, Note_on_c, 9, 38, 0
1, 34320, Note_on_c, 9, 36, 0
1, 34320, Note_on_c, 9, 46, 0
1, 34320, Note_on_c, 0, 67, 0
1, 34320, Note_on_c, 0, 55, 0
1, 34320, Note_on_c, 0, 74, 100
1, 34320, Note_on_c, 0, 69, 100
1, 34320, Note_on_c, 0, 43, 100
1, 34320, Note_on_c, 1, 69, 100
1, 34320, Note_on_c, 2, 43, 100
1, 34320, Note_on_c, 9, 36, 100
1, 34320, Note_on_c, 9, 46, 100
1, 34350, Note_on_c, 1, 69, 0
1, 34350, Note_on_c, 0, 69, 0
1, 34350, Note_on_c, 5, 77, 0
1, 34350, Note_on_c, 0, 70, 100
1, 34350, Note_on_c, 1, 70, 100
1, 34350, Note_on_c, 5, 77, 100
1, 34380, Note_on_c, 5, 77, 0
1, 34380, Note_on_c, 9, 36, 0
1, 34380, Note_on_c, 9, 46, 0
1, 34380, Note_on_c, 1, 70, 0
1, 34380, Note_on_c, 2, 43, 0
1, 34380, Note_on_c, 0, 43, 0
1, 34380, Note_on_c, 4, 74, 0
1, 34380, Note_on_c, 4, 67, 0
1, 34380, Note_on_c, 4, 77, 0
1, 34380, Note_on_c, 0, 55, 100
1, 34380, Note_on_c, 1, 67, 100
1, 34380, Note_on_c, 2, 43, 100
1, 34380, Note_on_c, 5, 77, 100
1, 34380, Note_on_c, 9, 36, 100
1, 34380, Note_on_c, 9, 46, 100
1, 34410, Note_on_c, 9, 36, 0
1, 34410, Note_on_c, 1, 67, 0
1, 34410, Note_on_c, 2, 43, 0
1, 34410, Note_on_c, 0, 74, 0
1, 34410, Note_on_c, 0, 70, 0
1, 34410, Note_on_c, 5, 77, 0
1, 34410, Note_on_c, 0, 74, 100
1, 34410, Note_on_c, 0, 67, 100
1, 34410, Note_on_c, 1, 65, 100
1, 34410, Note_on_c, 2, 43, 100
1, 34410, Note_on_c, 5, 77, 100
1, 34410, Note_on_c, 9, 36, 100
1, 34440, Note_on_c, 9, 36, 0
1, 34440, Note_on_c, 5, 77, 0
1, 34440, Note_on_c, 1, 65, 0
1, 34440, Note_on_c, 9, 46, 0
1, 34440, Note_on_c, 0, 55, 0
1, 34440, Note_on_c, 2, 43, 0
1, 34440, Note_on_c, 0, 43, 100
1, 34440, Note_on_c, 1, 62, 100
1, 34440, Note_on_c, 2, 43, 100
1, 34440, Note_on_c, 5, 77, 100
1, 34440, Note_on_c, 9, 36, 100
1, 34440, Note_on_c, 9, 40, 100
1, 34440, Note_on_c, 9, 46, 100
1, 34470, Note_on_c, 1, 62, 0
1, 34470, Note_on_c, 0, 67, 0
1, 34470, Note_on_c, 0, 74, 0
1, 34470, Note_on_c, 0, 65, 100
1, 34470, Note_on_c, 1, 65, 100
1, 34500, Note_on_c, 1, 65, 0
1, 34500, Note_on_c, 0, 65, 0
1, 34500, Note_on_c, 5, 77, 0
1, 34500, Note_on_c, 0, 43, 0
1, 34500, Note_on_c, 2, 43, 0
1, 34500, Note_on_c, 9, 46, 0
1, 34500, Note_on_c, 0, 62, 100
1, 34500, Note_on_c, 0, 55, 100
1, 34500, Note_on_c, 1, 67, 100
1, 34500, Note_on_c, 5, 82, 100
1, 34500, Note_on_c, 9, 46, 100
1, 34530, Note_on_c, 5, 82, 0
1, 34530, Note_on_c, 0, 62, 0
1, 34530, Note_on_c, 5, 84, 100
1, 34560, Note_on_c, 5, 84, 0
1, 34560, Note_on_c, 9, 46, 0
1, 34560, Note_on_c, 0, 55, 0
1, 34560, Note_on_c, 9, 36, 0
1, 34560, Note_on_c, 9, 40, 0
1, 34560, Note_on_c, 1, 67, 0
1, 34560, Note_on_c, 0, 43, 100
1, 34560, Note_on_c, 2, 43, 100
1, 34560, Note_on_c, 5, 82, 100
1, 34560, Note_on_c, 9, 36, 100
1, 34560, Note_on_c, 9, 46, 100
1, 34590, Note_on_c, 5, 82, 0
1, 34590, Note_on_c, 5, 77, 100
1, 34620, Note_on_c, 9, 36, 0
1, 34620, Note_on_c, 9, 46, 0
1, 34620, Note_on_c, 0, 43, 0
1, 34620, Note_on_c, 2, 43, 0
1, 34620, Note_on_c, 0, 67, 100
1, 34620, Note_on_c, 0, 55, 100
1, 34620, Note_on_c, 1, 69, 100
1, 34620, Note_on_c, 1, 73, 100
1, 34620, Note_on_c, 9, 36, 100
1, 34620, Note_on_c, 9, 46, 100
1, 34650, Note_on_c, 5, 77, 0
1, 34650, Note_on_c, 5, 77, 100
1, 34680, Note_on_c, 5, 77, 0
1, 34680, Note_on_c, 9, 46, 0
1, 34680, Note_on_c, 0, 55, 0
1, 34680, Note_on_c, 1, 69, 0
1, 34680, Note_on_c, 0, 67, 0
1, 34680, Note_on_c, 9, 36, 0
1, 34680, Note_on_c, 1, 73, 0
1, 34680, Note_on_c, 0, 65, 100
1, 34680, Note_on_c, 0, 43, 100
1, 34680, Note_on_c, 1, 70, 100
1, 34680, Note_on_c, 1, 74, 100
1, 34680, Note_on_c, 2, 43, 100
1, 34680, Note_on_c, 4, 67, 100
1, 34680, Note_on_c, 4, 74, 100
1, 34680, Note_on_c, 4, 77, 100
1, 34680, Note_on_c, 5, 77, 100
1, 34680, Note_on_c, 9, 36, 100
1, 34680, Note_on_c, 9, 38, 100
1, 34680, Note_on_c, 9, 46, 100
1, 34740, Note_on_c, 9, 46, 0
1, 34740, Note_on_c, 2, 43, 0
1, 34740, Note_on_c, 1, 74, 0
1, 34740, Note_on_c, 0, 65, 0
1, 34740, Note_on_c, 1, 70, 0
1, 34740, Note_on_c, 5, 77, 0
1, 34740, Note_on_c, 0, 43, 0
1, 34740, Note_on_c, 0, 67, 100
1, 34740, Note_on_c, 0, 55, 100
1, 34740, Note_on_c, 5, 77, 100
1, 34740, Note_on_c, 9, 46, 100
1, 34770, Note_on_c, 5, 77, 0
1, 34770, Note_on_c, 4, 67, 0
1, 34770, Note_on_c, 4, 77, 0
1, 34770, Note_on_c, 4, 74, 0
1, 34770, Note_on_c, 4, 72, 100
1, 34770, Note_on_c, 4, 67, 100
1, 34770, Note_on_c, 5, 77, 100
1, 34800, Note_on_c, 0, 67, 0
1, 34800, Note_on_c, 9, 38, 0
1, 34800, Note_on_c, 9, 46, 0
1, 34800, Note_on_c, 9, 36, 0
1, 34800, Note_on_c, 0, 55, 0
1, 34800, Note_on_c, 0, 74, 100
1, 34800, Note_on_c, 0, 69, 100
1, 34800, Note_on_c, 0, 43, 100
1, 34800, Note_on_c, 1, 69, 100
1, 34800, Note_on_c, 2, 43, 100
1, 34800, Note_on_c, 9, 36, 100
1, 34800, Note_on_c, 9, 46, 100
1, 34830, Note_on_c, 1, 69, 0
1, 34830, Note_on_c, 5, 77, 0
1, 34830, Note_on_c, 4, 72, 0
1, 34830, Note_on_c, 0, 69, 0
1, 34830, Note_on_c, 4, 67, 0
1, 34830, Note_on_c, 0, 70, 100
1, 34830, Note_on_c, 1, 70, 100
1, 34830, Note_on_c, 4, 70, 100
1, 34830, Note_on_c, 4, 67, 100
1, 34830, Note_on_c, 5, 77, 100
1, 34860, Note_on_c, 1, 70, 0
1, 34860, Note_on_c, 9, 36, 0
1, 34860, Note_on_c, 9, 46, 0
1, 34860, Note_on_c, 2, 43, 0
1, 34860, Note_on_c, 0, 43, 0
1, 34860, Note_on_c, 0, 55, 100
1, 34860, Note_on_c, 1, 67, 100
1, 34860, Note_on_c, 2, 43, 100
1, 34860, Note_on_c, 9, 36, 100
1, 34860, Note_on_c, 9, 46, 100
1, 34890, Note_on_c, 9, 36, 0
1, 34890, Note_on_c, 2, 43, 0
1, 34890, Note_on_c, 4, 70, 0
1, 34890, Note_on_c, 1, 67, 0
1, 34890, Note_on_c, 0, 74, 0
1, 34890, Note_on_c, 4, 67, 0
1, 34890, Note_on_c, 5, 77, 0
1, 34890, Note_on_c, 0, 70, 0
1, 34890, Note_on_c, 0, 74, 100
1, 34890, Note_on_c, 0, 67, 100
1, 34890, Note_on_c, 1, 65, 100
1, 34890, Note_on_c, 2, 43, 100
1, 34890, Note_on_c, 5, 77, 100
1, 34890, Note_on_c, 9, 36, 100
1, 34920, Note_on_c, 9, 36, 0
1, 34920, Note_on_c, 5, 77, 0
1, 34920, Note_on_c, 1, 65, 0
1, 34920, Note_on_c, 9, 46, 0
1, 34920, Note_on_c, 0, 55, 0
1, 34920, Note_on_c, 2, 43, 0
1, 34920, Note_on_c, 0, 43, 100
1, 34920, Note_on_c, 1, 62, 100
1, 34920, Note_on_c, 2, 43, 100
1, 34920, Note_on_c, 5, 77, 100
1, 34920, Note_on_c, 9, 36, 100
1, 34920, Note_on_c, 9, 40, 100
1, 34920, Note_on_c, 9, 46, 100
1, 34950, Note_on_c, 1, 62, 0
1, 34950, Note_on_c, 0, 67, 0
1, 34950, Note_on_c, 0, 74, 0
1, 34950, Note_on_c, 0, 65, 100
1, 34950, Note_on_c, 1, 65, 100
1, 34980, Note_on_c, 1, 65, 0
1, 34980, Note_on_c, 0, 65, 0
1, 34980, Note_on_c, 5, 77, 0
1, 34980, Note_on_c, 0, 43, 0
1, 34980, Note_on_c, 2, 43, 0
1, 34980, Note_on_c, 9, 46, 0
1, 34980, Note_on_c, 0, 62, 100
1, 34980, Note_on_c, 0, 55, 100
1, 34980, Note_on_c, 1, 67, 100
1, 34980, Note_on_c, 5, 77, 100
1, 34980, Note_on_c, 9, 46, 100
1, 35000, Note_on_c, 5, 77, 0
1, 35000, Note_on_c, 5, 82, 100
1, 35010, Note_on_c, 0, 62, 0
1, 35010, Note_on_c, 4, 67, 100
1, 35010, Note_on_c, 4, 72, 100
1, 35020, Note_on_c, 5, 82, 0
1, 35020, Note_on_c, 5, 84, 100
1, 35040, Note_on_c, 5, 84, 0
1, 35040, Note_on_c, 1, 67, 0
1, 35040, Note_on_c, 9, 36, 0
1, 35040, Note_on_c, 9, 40, 0
1, 35040, Note_on_c, 0, 55, 0
1, 35040, Note_on_c, 9, 46, 0
1, 35040, Note_on_c, 0, 43, 100
1, 35040, Note_on_c, 2, 43, 100
1, 35040, Note_on_c, 5, 74, 100
1, 35040, Note_on_c, 9, 36, 100
1, 35040, Note_on_c, 9, 46, 100
1, 35070, Note_on_c, 5, 74, 0
1, 35070, Note_on_c, 4, 72, 0
1, 35070, Note_on_c, 4, 67, 0
1, 35070, Note_on_c, 4, 67, 100
1, 35070, Note_on_c, 4, 72, 100
1, 35070, Note_on_c, 5, 77, 100
1, 35100, Note_on_c, 5, 77, 0
1, 35100, Note_on_c, 9, 46, 0
1, 35100, Note_on_c, 0, 43, 0
1, 35100, Note_on_c, 2, 43, 0
1, 35100, Note_on_c, 9, 36, 0
1, 35100, Note_on_c, 0, 67, 100
1, 35100, Note_on_c, 0, 55, 100
1, 35100, Note_on_c, 1, 69, 100
1, 35100, Note_on_c, 1, 73, 100
1, 35100, Note_on_c, 5, 77, 100
1, 35100, Note_on_c, 9, 36, 100
1, 35100, Note_on_c, 9, 46, 100
1, 35130, Note_on_c, 4, 72, 0
1, 35130, Note_on_c, 4, 67, 0
1, 35130, Note_on_c, 4, 74, 100
1, 35140, Note_on_c, 5, 77, 0
1, 35140, Note_on_c, 5, 82, 100
1, 35160, Note_on_c, 5, 82, 0
1, 35160, Note_on_c, 9, 36, 0
1, 35160, Note_on_c, 1, 73, 0
1, 35160, Note_on_c, 0, 67, 0
1, 35160, Note_on_c, 1, 69, 0
1, 35160, Note_on_c, 4, 74, 0
1, 35160, Note_on_c, 0, 55, 0
1, 35160, Note_on_c, 9, 46, 0
1, 35160, Note_on_c, 0, 65, 100
1, 35160, Note_on_c, 0, 43, 100
1, 35160, Note_on_c, 1, 70, 100
1, 35160, Note_on_c, 1, 74, 100
1, 35160, Note_on_c, 2, 43, 100
1, 35160, Note_on_c, 4, 67, 100
1, 35160, Note_on_c, 4, 72, 100
1, 35160, Note_on_c, 5, 77, 100
1, 35160, Note_on_c, 9, 36, 100
1, 35160, Note_on_c, 9, 38, 100
1, 35160, Note_on_c, 9, 46, 100
1, 35190, Note_on_c, 4, 72, 0
1, 35190, Note_on_c, 4, 67, 0
1, 35190, Note_on_c, 4, 70, 100
1, 35220, Note_on_c, 4, 70, 0
1, 35220, Note_on_c, 5, 77, 0
1, 35220, Note_on_c, 9, 46, 0
1, 35220, Note_on_c, 0, 65, 0
1, 35220, Note_on_c, 2, 43, 0
1, 35220, Note_on_c, 0, 43, 0
1, 35220, Note_on_c, 1, 74, 0
1, 35220, Note_on_c, 1, 70, 0
1, 35220, Note_on_c, 0, 67, 100
1, 35220, Note_on_c, 0, 55, 100
1, 35220, Note_on_c, 4, 67, 100
1, 35220, Note_on_c, 5, 74, 100
1, 35220, Note_on_c, 9, 46, 100
1, 35250, Note_on_c, 5, 74, 0
1, 35250, Note_on_c, 4, 67, 0
1, 35250, Note_on_c, 4, 67, 100
1, 35250, Note_on_c, 5, 77, 100
1, 35250, Note_on_c, 5, 82, 100
1, 35280, Note_on_c, 5, 82, 0
1, 35280, Note_on_c, 9, 38, 0
1, 35280, Note_on_c, 9, 36, 0
1, 35280, Note_on_c, 0, 55, 0
1, 35280, Note_on_c, 0, 67, 0
1, 35280, Note_on_c, 9, 46, 0
1, 35280, Note_on_c, 0, 74, 100
1, 35280, Note_on_c, 0, 69, 100
1, 35280, Note_on_c, 0, 43, 100
1, 35280, Note_on_c, 1, 69, 100
1, 35280, Note_on_c, 2, 43, 100
1, 35280, Note_on_c, 9, 36, 100
1, 35280, Note_on_c, 9, 46, 100
1, 35310, Note_on_c, 1, 69, 0
1, 35310, Note_on_c, 5, 77, 0
1, 35310, Note_on_c, 4, 67, 0
1, 35310, Note_on_c, 0, 69, 0
1, 35310, Note_on_c, 0, 70, 100
1, 35310, Note_on_c, 1, 70, 100
1, 35310, Note_on_c, 5, 77, 100
1, 35340, Note_on_c, 1, 70, 0
1, 35340, Note_on_c, 9, 46, 0
1, 35340, Note_on_c, 2, 43, 0
1, 35340, Note_on_c, 0, 43, 0
1, 35340, Note_on_c, 9, 36, 0
1, 35340, Note_on_c, 0, 55, 100
1, 35340, Note_on_c, 1, 67, 100
1, 35340, Note_on_c, 2, 43, 100
1, 35340, Note_on_c, 4, 67, 100
1, 35340, Note_on_c, 4, 70, 100
1, 35340, Note_on_c, 9, 36, 100
1, 35340, Note_on_c, 9, 46, 100
1, 35370, Note_on_c, 9, 36, 0
1, 35370, Note_on_c, 2, 43, 0
1, 35370, Note_on_c, 5, 77, 0
1, 35370, Note_on_c, 0, 70, 0
1, 35370, Note_on_c, 1, 67, 0
1, 35370, Note_on_c, 0, 74, 0
1, 35370, Note_on_c, 0, 74, 100
1, 35370, Note_on_c, 0, 67, 100
1, 35370, Note_on_c, 1, 65, 100
1, 35370, Note_on_c, 2, 43, 100
1, 35370, Note_on_c, 5, 77, 100
1, 35370, Note_on_c, 9, 36, 100
1, 35400, Note_on_c, 9, 36, 0
1, 35400, Note_on_c, 5, 77, 0
1, 35400, Note_on_c, 0, 55, 0
1, 35400, Note_on_c, 1, 65, 0
1, 35400, Note_on_c, 4, 67, 0
1, 35400, Note_on_c, 9, 46, 0
1, 35400, Note_on_c, 2, 43, 0
1, 35400, Note_on_c, 4, 70, 0
1, 35400, Note_on_c, 0, 43, 100
1, 35400, Note_on_c, 1, 62, 100
1, 35400, Note_on_c, 2, 43, 100
1, 35400, Note_on_c, 4, 67, 100
1, 35400, Note_on_c, 4, 72, 100
1, 35400, Note_on_c, 5, 77, 100
1, 35400, Note_on_c, 9, 36, 100
1, 35400, Note_on_c, 9, 40, 100
1, 35400, Note_on_c, 9, 46, 100
1, 35420, Note_on_c, 5, 77, 0
1, 35420, Note_on_c, 5, 82, 100
1, 35430, Note_on_c, 4, 72, 0
1, 35430, Note_on_c, 0, 74, 0
1, 35430, Note_on_c, 0, 67, 0
1, 35430, Note_on_c, 4, 67, 0
1, 35430, Note_on_c, 1, 62, 0
1, 35430, Note_on_c, 0, 65, 100
1, 35430, Note_on_c, 1, 65, 100
1, 35430, Note_on_c, 4, 70, 100
1, 35440, Note_on_c, 5, 82, 0
1, 35440, Note_on_c, 5, 77, 100
1, 35460, Note_on_c, 9, 46, 0
1, 35460, Note_on_c, 4, 70, 0
1, 35460, Note_on_c, 1, 65, 0
1, 35460, Note_on_c, 2, 43, 0
1, 35460, Note_on_c, 0, 43, 0
1, 35460, Note_on_c, 0, 65, 0
1, 35460, Note_on_c, 0, 62, 100
1, 35460, Note_on_c, 0, 55, 100
1, 35460, Note_on_c, 1, 67, 100
1, 35460, Note_on_c, 4, 67, 100
1, 35460, Note_on_c, 9, 46, 100
1, 35480, Note_on_c, 5, 77, 0
1, 35480, Note_on_c, 5, 82, 100
1, 35490, Note_on_c, 0, 62, 0
1, 35490, Note_on_c, 4, 67, 0
1, 35490, Note_on_c, 4, 67, 100
1, 35490, Note_on_c, 4, 73, 100
1, 35500, Note_on_c, 5, 82, 0
1, 35500, Note_on_c, 5, 84, 100
1, 35520, Note_on_c, 5, 84, 0
1, 35520, Note_on_c, 1, 67, 0
1, 35520, Note_on_c, 9, 46, 0
1, 35520, Note_on_c, 9, 40, 0
1, 35520, Note_on_c, 0, 55, 0
1, 35520, Note_on_c, 4, 73, 0
1, 35520, Note_on_c, 4, 67, 0
1, 35520, Note_on_c, 9, 36, 0
1, 35520, Note_on_c, 0, 43, 100
1, 35520, Note_on_c, 2, 43, 100
1, 35520, Note_on_c, 5, 82, 100
1, 35520, Note_on_c, 9, 36, 100
1, 35520, Note_on_c, 9, 49, 100
1, 35580, Note_on_c, 9, 49, 0
1, 35580, Note_on_c, 5, 82, 0
1, 35580, Note_on_c, 0, 43, 0
1, 35580, Note_on_c, 2, 43, 0
1, 35580, Note_on_c, 9, 36, 0
1, 35580, Note_on_c, 0, 67, 100
1, 35580, Note_on_c, 0, 55, 100
1, 35580, Note_on_c, 1, 69, 100
1, 35580, Note_on_c, 1, 73, 100
1, 35580, Note_on_c, 5, 77, 100
1, 35580, Note_on_c, 9, 36, 100
1, 35580, Note_on_c, 9, 46, 100
1, 35640, Note_on_c, 9, 46, 0
1, 35640, Note_on_c, 5, 77, 0
1, 35640, Note_on_c, 0, 55, 0
1, 35640, Note_on_c, 1, 69, 0
1, 35640, Note_on_c, 0, 67, 0
1, 35640, Note_on_c, 9, 36, 0
1, 35640, Note_on_c, 1, 73, 0
1, 35640, Note_on_c, 0, 65, 100
1, 35640, Note_on_c, 0, 43, 100
1, 35640, Note_on_c, 1, 70, 100
1, 35640, Note_on_c, 1, 74, 100
1, 35640, Note_on_c, 2, 43, 100
1, 35640, Note_on_c, 4, 67, 100
1, 35640, Note_on_c, 4, 74, 100
1, 35640, Note_on_c, 4, 77, 100
1, 35640, Note_on_c, 5, 77, 100
1, 35640, Note_on_c, 9, 40, 100
1, 35640, Note_on_c, 9, 36, 100
1, 35640, Note_on_c, 9, 46, 100
1, 35700, Note_on_c, 9, 46, 0
1, 35700, Note_on_c, 2, 43, 0
1, 35700, Note_on_c, 1, 74, 0
1, 35700, Note_on_c, 0, 65, 0
1, 35700, Note_on_c, 1, 70, 0
1, 35700, Note_on_c, 5, 77, 0
1, 35700, Note_on_c, 0, 43, 0
1, 35700, Note_on_c, 0, 67, 100
1, 35700, Note_on_c, 0, 55, 100
1, 35700, Note_on_c, 5, 77, 100
1, 35700, Note_on_c, 9, 46, 100
1, 35730, Note_on_c, 5, 77, 0
1, 35730, Note_on_c, 4, 67, 0
1, 35730, Note_on_c, 4, 77, 0
1, 35730, Note_on_c, 4, 74, 0
1, 35730, Note_on_c, 4, 79, 100
1, 35730, Note_on_c, 4, 72, 100
1, 35730, Note_on_c, 4, 67, 100
1, 35730, Note_on_c, 5, 77, 100
1, 35760, Note_on_c, 5, 77, 0
1, 35760, Note_on_c, 9, 46, 0
1, 35760, Note_on_c, 0, 67, 0
1, 35760, Note_on_c, 9, 36, 0
1, 35760, Note_on_c, 9, 40, 0
1, 35760, Note_on_c, 0, 55, 0
1, 35760, Note_on_c, 0, 74, 100
1, 35760, Note_on_c, 0, 69, 100
1, 35760, Note_on_c, 0, 43, 100
1, 35760, Note_on_c, 1, 69, 100
1, 35760, Note_on_c, 2, 43, 100
1, 35760, Note_on_c, 5, 77, 100
1, 35760, Note_on_c, 9, 36, 100
1, 35760, Note_on_c, 9, 46, 100
1, 35790, Note_on_c, 5, 77, 0
1, 35790, Note_on_c, 1, 69, 0
1, 35790, Note_on_c, 4, 67, 0
1, 35790, Note_on_c, 4, 79, 0
1, 35790, Note_on_c, 0, 69, 0
1, 35790, Note_on_c, 4, 72, 0
1, 35790, Note_on_c, 0, 70, 100
1, 35790, Note_on_c, 1, 70, 100
1, 35790, Note_on_c, 4, 70, 100
1, 35790, Note_on_c, 4, 67, 100
1, 35790, Note_on_c, 5, 77, 100
1, 35820, Note_on_c, 5, 77, 0
1, 35820, Note_on_c, 9, 36, 0
1, 35820, Note_on_c, 1, 70, 0
1, 35820, Note_on_c, 9, 46, 0
1, 35820, Note_on_c, 0, 43, 0
1, 35820, Note_on_c, 2, 43, 0
1, 35820, Note_on_c, 0, 55, 100
1, 35820, Note_on_c, 1, 67, 100
1, 35820, Note_on_c, 2, 43, 100
1, 35820, Note_on_c, 5, 77, 100
1, 35820, Note_on_c, 9, 36, 100
1, 35820, Note_on_c, 9, 46, 100
1, 35850, Note_on_c, 9, 36, 0
1, 35850, Note_on_c, 5, 77, 0
1, 35850, Note_on_c, 0, 74, 0
1, 35850, Note_on_c, 2, 43, 0
1, 35850, Note_on_c, 4, 70, 0
1, 35850, Note_on_c, 0, 70, 0
1, 35850, Note_on_c, 4, 67, 0
1, 35850, Note_on_c, 1, 67, 0
1, 35850, Note_on_c, 0, 74, 100
1, 35850, Note_on_c, 0, 67, 100
1, 35850, Note_on_c, 1, 65, 100
1, 35850, Note_on_c, 2, 43, 100
1, 35850, Note_on_c, 5, 77, 100
1, 35850, Note_on_c, 9, 36, 100
1, 35880, Note_on_c, 9, 36, 0
1, 35880, Note_on_c, 5, 77, 0
1, 35880, Note_on_c, 1, 65, 0
1, 35880, Note_on_c, 0, 55, 0
1, 35880, Note_on_c, 9, 46, 0
1, 35880, Note_on_c, 2, 43, 0
1, 35880, Note_on_c, 0, 43, 100
1, 35880, Note_on_c, 1, 62, 100
1, 35880, Note_on_c, 2, 43, 100
1, 35880, Note_on_c, 5, 77, 100
1, 35880, Note_on_c, 9, 36, 100
1, 35880, Note_on_c, 9, 38, 100
1, 35880, Note_on_c, 9, 46, 100
1, 35910, Note_on_c, 5, 77, 0
1, 35910, Note_on_c, 0, 67, 0
1, 35910, Note_on_c, 0, 74, 0
1, 35910, Note_on_c, 1, 62, 0
1, 35910, Note_on_c, 0, 65, 100
1, 35910, Note_on_c, 1, 65, 100
1, 35910, Note_on_c, 5, 77, 100
1, 35940, Note_on_c, 5, 77, 0
1, 35940, Note_on_c, 1, 65, 0
1, 35940, Note_on_c, 9, 46, 0
1, 35940, Note_on_c, 0, 43, 0
1, 35940, Note_on_c, 2, 43, 0
1, 35940, Note_on_c, 0, 65, 0
1, 35940, Note_on_c, 0, 62, 100
1, 35940, Note_on_c, 0, 55, 100
1, 35940, Note_on_c, 1, 67, 100
1, 35940, Note_on_c, 5, 77, 100
1, 35940, Note_on_c, 9, 46, 100
1, 35970, Note_on_c, 5, 77, 0
1, 35970, Note_on_c, 0, 62, 0
1, 35970, Note_on_c, 5, 77, 100
1, 36000, Note_on_c, 5, 77, 0
1, 36000, Note_on_c, 9, 46, 0
1, 36000, Note_on_c, 0, 55, 0
1, 36000, Note_on_c, 9, 36, 0
1, 36000, Note_on_c, 9, 38, 0
1, 36000, Note_on_c, 1, 67, 0
1, 36000, Note_on_c, 0, 43, 100
1, 36000, Note_on_c, 2, 43, 100
1, 36000, Note_on_c, 4, 67, 100
1, 36000, Note_on_c, 4, 65, 100
1, 36000, Note_on_c, 5, 77, 100
1, 36000, Note_on_c, 9, 36, 100
1, 36000, Note_on_c, 9, 46, 100
1, 36030, Note_on_c, 5, 77, 0
1, 36030, Note_on_c, 4, 65, 0
1, 36030, Note_on_c, 4, 67, 0
1, 36030, Note_on_c, 4, 70, 100
1, 36030, Note_on_c, 5, 77, 100
1, 36060, Note_on_c, 5, 77, 0
1, 36060, Note_on_c, 9, 46, 0
1, 36060, Note_on_c, 2, 43, 0
1, 36060, Note_on_c, 0, 43, 0
1, 36060, Note_on_c, 9, 36, 0
1, 36060, Note_on_c, 0, 67, 100
1, 36060, Note_on_c, 0, 55, 100
1, 36060, Note_on_c, 1, 69, 100
1, 36060, Note_on_c, 1, 73, 100
1, 36060, Note_on_c, 5, 77, 100
1, 36060, Note_on_c, 9, 36, 100
1, 36060, Note_on_c, 9, 46, 100
1, 36090, Note_on_c, 5, 77, 0
1, 36090, Note_on_c, 4, 70, 0
1, 36090, Note_on_c, 4, 65, 100
1, 36090, Note_on_c, 4, 72, 100
1, 36090, Note_on_c, 5, 77, 100
1, 36120, Note_on_c, 5, 77, 0
1, 36120, Note_on_c, 1, 73, 0
1, 36120, Note_on_c, 9, 36, 0
1, 36120, Note_on_c, 9, 46, 0
1, 36120, Note_on_c, 0, 55, 0
1, 36120, Note_on_c, 1, 69, 0
1, 36120, Note_on_c, 0, 67, 0
1, 36120, Note_on_c, 0, 65, 100
1, 36120, Note_on_c, 0, 43, 100
1, 36120, Note_on_c, 1, 70, 100
1, 36120, Note_on_c, 1, 74, 100
1, 36120, Note_on_c, 2, 43, 100
1, 36120, Note_on_c, 5, 77, 100
1, 36120, Note_on_c, 9, 36, 100
1, 36120, Note_on_c, 9, 38, 100
1, 36120, Note_on_c, 9, 46, 100
1, 36150, Note_on_c, 4, 72, 0
1, 36150, Note_on_c, 4, 65, 0
1, 36150, Note_on_c, 4, 65, 100
1, 36150, Note_on_c, 4, 72, 100
1, 36180, Note_on_c, 1, 70, 0
1, 36180, Note_on_c, 5, 77, 0
1, 36180, Note_on_c, 0, 43, 0
1, 36180, Note_on_c, 9, 46, 0
1, 36180, Note_on_c, 2, 43, 0
1, 36180, Note_on_c, 1, 74, 0
1, 36180, Note_on_c, 0, 65, 0
1, 36180, Note_on_c, 0, 67, 100
1, 36180, Note_on_c, 0, 55, 100
1, 36180, Note_on_c, 5, 77, 100
1, 36180, Note_on_c, 9, 46, 100
1, 36210, Note_on_c, 5, 77, 0
1, 36210, Note_on_c, 4, 72, 0
1, 36210, Note_on_c, 4, 65, 0
1, 36210, Note_on_c, 4, 77, 100
1, 36210, Note_on_c, 4, 74, 100
1, 36210, Note_on_c, 4, 67, 100
1, 36210, Note_on_c, 5, 77, 100
1, 36240, Note_on_c, 9, 38, 0
1, 36240, Note_on_c, 9, 36, 0
1, 36240, Note_on_c, 9, 46, 0
1, 36240, Note_on_c, 0, 67, 0
1, 36240, Note_on_c, 0, 55, 0
1, 36240, Note_on_c, 0, 74, 100
1, 36240, Note_on_c, 0, 69, 100
1, 36240, Note_on_c, 0, 43, 100
1, 36240, Note_on_c, 1, 69, 100
1, 36240, Note_on_c, 2, 43, 100
1, 36240, Note_on_c, 9, 36, 100
1, 36240, Note_on_c, 9, 46, 100
1, 36270, Note_on_c, 1, 69, 0
1, 36270, Note_on_c, 0, 69, 0
1, 36270, Note_on_c, 5, 77, 0
1, 36270, Note_on_c, 0, 70, 100
1, 36270, Note_on_c, 1, 70, 100
1, 36270, Note_on_c, 5, 77, 100
1, 36300, Note_on_c, 5, 77, 0
1, 36300, Note_on_c, 9, 36, 0
1, 36300, Note_on_c, 9, 46, 0
1, 36300, Note_on_c, 1, 70, 0
1, 36300, Note_on_c, 2, 43, 0
1, 36300, Note_on_c, 0, 43, 0
1, 36300, Note_on_c, 4, 74, 0
1, 36300, Note_on_c, 4, 67, 0
1, 36300, Note_on_c, 4, 77, 0
1, 36300, Note_on_c, 0, 55, 100
1, 36300, Note_on_c, 1, 67, 100
1, 36300, Note_on_c, 2, 43, 100
1, 36300, Note_on_c, 5, 77, 100
1, 36300, Note_on_c, 9, 36, 100
1, 36300, Note_on_c, 9, 46, 100
1, 36330, Note_on_c, 9, 36, 0
1, 36330, Note_on_c, 1, 67, 0
1, 36330, Note_on_c, 2, 43, 0
1, 36330, Note_on_c, 0, 74, 0
1, 36330, Note_on_c, 0, 70, 0
1, 36330, Note_on_c, 5, 77, 0
1, 36330, Note_on_c, 0, 74, 100
1, 36330, Note_on_c, 0, 67, 100
1, 36330, Note_on_c, 1, 65, 100
1, 36330, Note_on_c, 2, 43, 100
1, 36330, Note_on_c, 5, 77, 100
1, 36330, Note_on_c, 9, 36, 100
1, 36360, Note_on_c, 9, 36, 0
1, 36360, Note_on_c, 5, 77, 0
1, 36360, Note_on_c, 1, 65, 0
1, 36360, Note_on_c, 9, 46, 0
1, 36360, Note_on_c, 0, 55, 0
1, 36360, Note_on_c, 2, 43, 0
1, 36360, Note_on_c, 0, 43, 100
1, 36360, Note_on_c, 1, 62, 100
1, 36360, Note_on_c, 2, 43, 100
1, 36360, Note_on_c, 5, 77, 100
1, 36360, Note_on_c, 9, 36, 100
1, 36360, Note_on_c, 9, 40, 100
1, 36360, Note_on_c, 9, 46, 100
1, 36390, Note_on_c, 1, 62, 0
1, 36390, Note_on_c, 0, 67, 0
1, 36390, Note_on_c, 0, 74, 0
1, 36390, Note_on_c, 0, 65, 100
1, 36390, Note_on_c, 1, 65, 100
1, 36420, Note_on_c, 1, 65, 0
1, 36420, Note_on_c, 0, 65, 0
1, 36420, Note_on_c, 5, 77, 0
1, 36420, Note_on_c, 0, 43, 0
1, 36420, Note_on_c, 2, 43, 0
1, 36420, Note_on_c, 9, 46, 0
1, 36420, Note_on_c, 0, 62, 100
1, 36420, Note_on_c, 0, 55, 100
1, 36420, Note_on_c, 1, 67, 100
1, 36420, Note_on_c, 5, 82, 100
1, 36420, Note_on_c, 9, 46, 100
1, 36450, Note_on_c, 5, 82, 0
1, 36450, Note_on_c, 0, 62, 0
1, 36450, Note_on_c, 5, 84, 100
1, 36480, Note_on_c, 5, 84, 0
1, 36480, Note_on_c, 9, 46, 0
1, 36480, Note_on_c, 0, 55, 0
1, 36480, Note_on_c, 9, 36, 0
1, 36480, Note_on_c, 9, 40, 0
1, 36480, Note_on_c, 1, 67, 0
1, 36480, Note_on_c, 0, 43, 100
1, 36480, Note_on_c, 2, 43, 100
1, 36480, Note_on_c, 5, 82, 100
1, 36480, Note_on_c, 9, 36, 100
1, 36480, Note_on_c, 9, 46, 100
1, 36510, Note_on_c, 5, 82, 0
1, 36510, Note_on_c, 5, 77, 100
1, 36540, Note_on_c, 9, 36, 0
1, 36540, Note_on_c, 9, 46, 0
1, 36540, Note_on_c, 0, 43, 0
1, 36540, Note_on_c, 2, 43, 0
1, 36540, Note_on_c, 0, 67, 100
1, 36540, Note_on_c, 0, 55, 100
1, 36540, Note_on_c, 1, 69, 100
1, 36540, Note_on_c, 1, 73, 100
1, 36540, Note_on_c, 9, 36, 100
1, 36540, Note_on_c, 9, 46, 100
1, 36570, Note_on_c, 5, 77, 0
1, 36570, Note_on_c, 5, 77, 100
1, 36600, Note_on_c, 5, 77, 0
1, 36600, Note_on_c, 9, 46, 0
1, 36600, Note_on_c, 0, 55, 0
1, 36600, Note_on_c, 1, 69, 0
1, 36600, Note_on_c, 0, 67, 0
1, 36600, Note_on_c, 9, 36, 0
1, 36600, Note_on_c, 1, 73, 0
1, 36600, Note_on_c, 0, 65, 100
1, 36600, Note_on_c, 0, 43, 100
1, 36600, Note_on_c, 1, 70, 100
1, 36600, Note_on_c, 1, 74, 100
1, 36600, Note_on_c, 2, 43, 100
1, 36600, Note_on_c, 4, 67, 100
1, 36600, Note_on_c, 4, 74, 100
1, 36600, Note_on_c, 4, 77, 100
1, 36600, Note_on_c, 5, 77, 100
1, 36600, Note_on_c, 9, 36, 100
1, 36600, Note_on_c, 9, 38, 100
1, 36600, Note_on_c, 9, 46, 100
1, 36660, Note_on_c, 9, 46, 0
1, 36660, Note_on_c, 2, 43, 0
1, 36660, Note_on_c, 1, 74, 0
1, 36660, Note_on_c, 0, 65, 0
1, 36660, Note_on_c, 1, 70, 0
1, 36660, Note_on_c, 5, 77, 0
1, 36660, Note_on_c, 0, 43, 0
1, 36660, Note_on_c, 0, 67, 100
1, 36660, Note_on_c, 0, 55, 100
1, 36660, Note_on_c, 5, 77, 100
1, 36660, Note_on_c, 9, 46, 100
1, 36690, Note_on_c, 5, 77, 0
1, 36690, Note_on_c, 4, 67, 0
1, 36690, Note_on_c, 4, 77, 0
1, 36690, Note_on_c, 4, 74, 0
1, 36690, Note_on_c, 4, 72, 100
1, 36690, Note_on_c, 4, 67, 100
1, 36690, Note_on_c, 5, 77, 100
1, 36720, Note_on_c, 0, 67, 0
1, 36720, Note_on_c, 9, 38, 0
1, 36720, Note_on_c, 9, 46, 0
1, 36720, Note_on_c, 9, 36, 0
1, 36720, Note_on_c, 0, 55, 0
1, 36720, Note_on_c, 0, 74, 100
1, 36720, Note_on_c, 0, 69, 100
1, 36720, Note_on_c, 0, 43, 100
1, 36720, Note_on_c, 1, 69, 100
1, 36720, Note_on_c, 2, 43, 100
1, 36720, Note_on_c, 9, 36, 100
1, 36720, Note_on_c, 9, 46, 100
1, 36750, Note_on_c, 1, 69, 0
1, 36750, Note_on_c, 5, 77, 0
1, 36750, Note_on_c, 4, 72, 0
1, 36750, Note_on_c, 0, 69, 0
1, 36750, Note_on_c, 4, 67, 0
1, 36750, Note_on_c, 0, 70, 100
1, 36750, Note_on_c, 1, 70, 100
1, 36750, Note_on_c, 4, 70, 100
1, 36750, Note_on_c, 4, 67, 100
1, 36750, Note_on_c, 5, 77, 100
1, 36780, Note_on_c, 1, 70, 0
1, 36780, Note_on_c, 9, 36, 0
1, 36780, Note_on_c, 9, 46, 0
1, 36780, Note_on_c, 2, 43, 0
1, 36780, Note_on_c, 0, 43, 0
1, 36780, Note_on_c, 0, 55, 100
1, 36780, Note_on_c, 1, 67, 100
1, 36780, Note_on_c, 2, 43, 100
1, 36780, Note_on_c, 9, 36, 100
1, 36780, Note_on_c, 9, 46, 100
1, 36810, Note_on_c, 9, 36, 0
1, 36810, Note_on_c, 2, 43, 0
1, 36810, Note_on_c, 4, 70, 0
1, 36810, Note_on_c, 1, 67, 0
1, 36810, Note_on_c, 0, 74, 0
1, 36810, Note_on_c, 4, 67, 0
1, 36810, Note_on_c, 5, 77, 0
1, 36810, Note_on_c, 0, 70, 0
1, 36810, Note_on_c, 0, 74, 100
1, 36810, Note_on_c, 0, 67, 100
1, 36810, Note_on_c, 1, 65, 100
1, 36810, Note_on_c, 2, 43, 100
1, 36810, Note_on_c, 5, 77, 100
1, 36810, Note_on_c, 9, 36, 100
1, 36840, Note_on_c, 9, 36, 0
1, 36840, Note_on_c, 5, 77, 0
1, 36840, Note_on_c, 1, 65, 0
1, 36840, Note_on_c, 9, 46, 0
1, 36840, Note_on_c, 0, 55, 0
1, 36840, Note_on_c, 2, 43, 0
1, 36840, Note_on_c, 0, 43, 100
1, 36840, Note_on_c, 1, 62, 100
1, 36840, Note_on_c, 2, 43, 100
1, 36840, Note_on_c, 5, 77, 100
1, 36840, Note_on_c, 9, 36, 100
1, 36840, Note_on_c, 9, 40, 100
1, 36840, Note_on_c, 9, 46, 100
1, 36870, Note_on_c, 1, 62, 0
1, 36870, Note_on_c, 0, 67, 0
1, 36870, Note_on_c, 0, 74, 0
1, 36870, Note_on_c, 0, 65, 100
1, 36870, Note_on_c, 1, 65, 100
1, 36900, Note_on_c, 1, 65, 0
1, 36900, Note_on_c, 0, 65, 0
1, 36900, Note_on_c, 5, 77, 0
1, 36900, Note_on_c, 0, 43, 0
1, 36900, Note_on_c, 2, 43, 0
1, 36900, Note_on_c, 9, 46, 0
1, 36900, Note_on_c, 0, 62, 100
1, 36900, Note_on_c, 0, 55, 100
1, 36900, Note_on_c, 1, 67, 100
1, 36900, Note_on_c, 5, 77, 100
1, 36900, Note_on_c, 9, 46, 100
1, 36920, Note_on_c, 5, 77, 0
1, 36920, Note_on_c, 5, 82, 100
1, 36930, Note_on_c, 0, 62, 0
1, 36930, Note_on_c, 4, 67, 100
1, 36930, Note_on_c, 4, 72, 100
1, 36940, Note_on_c, 5, 82, 0
1, 36940, Note_on_c, 5, 84, 100
1, 36960, Note_on_c, 5, 84, 0
1, 36960, Note_on_c, 1, 67, 0
1, 36960, Note_on_c, 9, 36, 0
1, 36960, Note_on_c, 9, 40, 0
1, 36960, Note_on_c, 0, 55, 0
1, 36960, Note_on_c, 9, 46, 0
1, 36960, Note_on_c, 0, 43, 100
1, 36960, Note_on_c, 2, 43, 100
1, 36960, Note_on_c, 5, 74, 100
1, 36960, Note_on_c, 9, 36, 100
1, 36960, Note_on_c, 9, 46, 100
1, 36990, Note_on_c, 5, 74, 0
1, 36990, Note_on_c, 4, 72, 0
1, 36990, Note_on_c, 4, 67, 0
1, 36990, Note_on_c, 4, 67, 100
1, 36990, Note_on_c, 4, 72, 100
1, 36990, Note_on_c, 5, 77, 100
1, 37020, Note_on_c, 5, 77, 0
1, 37020, Note_on_c, 9, 46, 0
1, 37020, Note_on_c, 0, 43, 0
1, 37020, Note_on_c, 2, 43, 0
1, 37020, Note_on_c, 9, 36, 0
1, 37020, Note_on_c, 0, 67, 100
1, 37020, Note_on_c, 0, 55, 100
1, 37020, Note_on_c, 1, 69, 100
1, 37020, Note_on_c, 1, 73, 100
1, 37020, Note_on_c, 5, 77, 100
1, 37020, Note_on_c, 9, 36, 100
1, 37020, Note_on_c, 9, 46, 100
1, 37050, Note_on_c, 4, 72, 0
1, 37050, Note_on_c, 4, 67, 0
1, 37050, Note_on_c, 4, 74, 100
1, 37060, Note_on_c, 5, 77, 0
1, 37060, Note_on_c, 5, 82, 100
1, 37080, Note_on_c, 5, 82, 0
1, 37080, Note_on_c, 9, 36, 0
1, 37080, Note_on_c, 1, 73, 0
1, 37080, Note_on_c, 0, 67, 0
1, 37080, Note_on_c, 1, 69, 0
1, 37080, Note_on_c, 4, 74, 0
1, 37080, Note_on_c, 0, 55, 0
1, 37080, Note_on_c, 9, 46, 0
1, 37080, Note_on_c, 0, 65, 100
1, 37080, Note_on_c, 0, 43, 100
1, 37080, Note_on_c, 1, 70, 100
1, 37080, Note_on_c, 1, 74, 100
1, 37080, Note_on_c, 2, 43, 100
1, 37080, Note_on_c, 4, 67, 100
1, 37080, Note_on_c, 4, 72, 100
1, 37080, Note_on_c, 5, 77, 100
1, 37080, Note_on_c, 9, 36, 100
1, 37080, Note_on_c, 9, 38, 100
1, 37080, Note_on_c, 9, 46, 100
1, 37110, Note_on_c, 4, 72, 0
1, 37110, Note_on_c, 4, 67, 0
1, 37110, Note_on_c, 4, 70, 100
1, 37140, Note_on_c, 4, 70, 0
1, 37140, Note_on_c, 5, 77, 0
1, 37140, Note_on_c, 9, 46, 0
1, 37140, Note_on_c, 0, 65, 0
1, 37140, Note_on_c, 2, 43, 0
1, 37140, Note_on_c, 0, 43, 0
1, 37140, Note_on_c, 1, 74, 0
1, 37140, Note_on_c, 1, 70, 0
1, 37140, Note_on_c, 0, 67, 100
1, 37140, Note_on_c, 0, 55, 100
1, 37140, Note_on_c, 4, 67, 100
1, 37140, Note_on_c, 5, 74, 100
1, 37140, Note_on_c, 9, 46, 100
1, 37170, Note_on_c, 5, 74, 0
1, 37170, Note_on_c, 4, 67, 0
1, 37170, Note_on_c, 4, 67, 100
1, 37170, Note_on_c, 5, 77, 100
1, 37170, Note_on_c, 5, 82, 100
1, 37200, Note_on_c, 5, 82, 0
1, 37200, Note_on_c, 9, 38, 0
1, 37200, Note_on_c, 9, 36, 0
1, 37200, Note_on_c, 0, 55, 0
1, 37200, Note_on_c, 0, 67, 0
1, 37200, Note_on_c, 9, 46, 0
1, 37200, Note_on_c, 0, 74, 100
1, 37200, Note_on_c, 0, 69, 100
1, 37200, Note_on_c, 0, 43, 100
1, 37200, Note_on_c, 1, 69, 100
1, 37200, Note_on_c, 2, 43, 100
1, 37200, Note_on_c, 9, 36, 100
1, 37200, Note_on_c, 9, 46, 100
1, 37230, Note_on_c, 1, 69, 0
1, 37230, Note_on_c, 5, 77, 0
1, 37230, Note_on_c, 4, 67, 0
1, 37230, Note_on_c, 0, 69, 0
1, 37230, Note_on_c, 0, 70, 100
1, 37230, Note_on_c, 1, 70, 100
1, 37230, Note_on_c, 5, 77, 100
1, 37260, Note_on_c, 1, 70, 0
1, 37260, Note_on_c, 9, 46, 0
1, 37260, Note_on_c, 2, 43, 0
1, 37260, Note_on_c, 0, 43, 0
1, 37260, Note_on_c, 9, 36, 0
1, 37260, Note_on_c, 0, 55, 100
1, 37260, Note_on_c, 1, 67, 100
1, 37260, Note_on_c, 2, 43, 100
1, 37260, Note_on_c, 4, 67, 100
1, 37260, Note_on_c, 4, 70, 100
1, 37260, Note_on_c, 9, 36, 100
1, 37260, Note_on_c, 9, 46, 100
1, 37290, Note_on_c, 9, 36, 0
1, 37290, Note_on_c, 2, 43, 0
1, 37290, Note_on_c, 5, 77, 0
1, 37290, Note_on_c, 0, 70, 0
1, 37290, Note_on_c, 1, 67, 0
1, 37290, Note_on_c, 0, 74, 0
1, 37290, Note_on_c, 0, 74, 100
1, 37290, Note_on_c, 0, 67, 100
1, 37290, Note_on_c, 1, 65, 100
1, 37290, Note_on_c, 2, 43, 100
1, 37290, Note_on_c, 5, 77, 100
1, 37290, Note_on_c, 9, 36, 100
1, 37320, Note_on_c, 9, 36, 0
1, 37320, Note_on_c, 5, 77, 0
1, 37320, Note_on_c, 0, 55, 0
1, 37320, Note_on_c, 1, 65, 0
1, 37320, Note_on_c, 4, 67, 0
1, 37320, Note_on_c, 9, 46, 0
1, 37320, Note_on_c, 2, 43, 0
1, 37320, Note_on_c, 4, 70, 0
1, 37320, Note_on_c, 0, 43, 100
1, 37320, Note_on_c, 1, 62, 100
1, 37320, Note_on_c, 2, 43, 100
1, 37320, Note_on_c, 4, 67, 100
1, 37320, Note_on_c, 4, 72, 100
1, 37320, Note_on_c, 5, 77, 100
1, 37320, Note_on_c, 9, 36, 100
1, 37320, Note_on_c, 9, 40, 100
1, 37320, Note_on_c, 9, 46, 100
1, 37340, Note_on_c, 5, 77, 0
1, 37340, Note_on_c, 5, 82, 100
1, 37350, Note_on_c, 4, 72, 0
1, 37350, Note_on_c, 0, 74, 0
1, 37350, Note_on_c, 0, 67, 0
1, 37350, Note_on_c, 4, 67, 0
1, 37350, Note_on_c, 1, 62, 0
1, 37350, Note_on_c, 0, 65, 100
1, 37350, Note_on_c, 1, 65, 100
1, 37350, Note_on_c, 4, 70, 100
1, 37360, Note_on_c, 5, 82, 0
1, 37360, Note_on_c, 5, 77, 100
1, 37380, Note_on_c, 9, 46, 0
1, 37380, Note_on_c, 4, 70, 0
1, 37380, Note_on_c, 1, 65, 0
1, 37380, Note_on_c, 2, 43, 0
1, 37380, Note_on_c, 0, 43, 0
1, 37380, Note_on_c, 0, 65, 0
1, 37380, Note_on_c, 0, 62, 100
1, 37380, Note_on_c, 0, 55, 100
1, 37380, Note_on_c, 1, 67, 100
1, 37380, Note_on_c, 4, 67, 100
1, 37380, Note_on_c, 9, 46, 100
1, 37400, Note_on_c, 5, 77, 0
1, 37400, Note_on_c, 5, 82, 100
1, 37410, Note_on_c, 0, 62, 0
1, 37410, Note_on_c, 4, 67, 0
1, 37410, Note_on_c, 4, 67, 100
1, 37410, Note_on_c, 4, 73, 100
1, 37420, Note_on_c, 5, 82, 0
1, 37420, Note_on_c, 5, 84, 100
1, 37440, Note_on_c, 5, 84, 0
1, 37440, Note_on_c, 1, 67, 0
1, 37440, Note_on_c, 9, 46, 0
1, 37440, Note_on_c, 9, 40, 0
1, 37440, Note_on_c, 0, 55, 0
1, 37440, Note_on_c, 4, 73, 0
1, 37440, Note_on_c, 4, 67, 0
1, 37440, Note_on_c, 9, 36, 0
1, 37440, Note_on_c, 0, 43, 100
1, 37440, Note_on_c, 2, 43, 100
1, 37440, Note_on_c, 5, 82, 100
1, 37440, Note_on_c, 9, 36, 100
1, 37440, Note_on_c, 9, 49, 100
1, 37500, Note_on_c, 9, 49, 0
1, 37500, Note_on_c, 5, 82, 0
1, 37500, Note_on_c, 0, 43, 0
1, 37500, Note_on_c, 2, 43, 0
1, 37500, Note_on_c, 9, 36, 0
1, 37500, Note_on_c, 0, 67, 100
1, 37500, Note_on_c, 0, 55, 100
1, 37500, Note_on_c, 1, 69, 100
1, 37500, Note_on_c, 1, 73, 100
1, 37500, Note_on_c, 5, 77, 100
1, 37500, Note_on_c, 9, 36, 100
1, 37500, Note_on_c, 9, 46, 100
1, 37560, Note_on_c, 9, 46, 0
1, 37560, Note_on_c, 5, 77, 0
1, 37560, Note_on_c, 0, 55, 0
1, 37560, Note_on_c, 1, 69, 0
1, 37560, Note_on_c, 0, 67, 0
1, 37560, Note_on_c, 9, 36, 0
1, 37560, Note_on_c, 1, 73, 0
1, 37560, Note_on_c, 0, 65, 100
1, 37560, Note_on_c, 0, 43, 100
1, 37560, Note_on_c, 1, 70, 100
1, 37560, Note_on_c, 1, 74, 100
1, 37560, Note_on_c, 2, 43, 100
1, 37560, Note_on_c, 4, 67, 100
1, 37560, Note_on_c, 4, 74, 100
1, 37560, Note_on_c, 4, 77, 100
1, 37560, Note_on_c, 5, 77, 100
1, 37560, Note_on_c, 9, 40, 100
1, 37560, Note_on_c, 9, 36, 100
1, 37560, Note_on_c, 9, 46, 100
1, 37620, Note_on_c, 9, 46, 0
1, 37620, Note_on_c, 2, 43, 0
1, 37620, Note_on_c, 1, 74, 0
1, 37620, Note_on_c, 0, 65, 0
1, 37620, Note_on_c, 1, 70, 0
1, 37620, Note_on_c, 5, 77, 0
1, 37620, Note_on_c, 0, 43, 0
1, 37620, Note_on_c, 0, 67, 100
1, 37620, Note_on_c, 0, 55, 100
1, 37620, Note_on_c, 5, 77, 100
1, 37620, Note_on_c, 9, 46, 100
1, 37650, Note_on_c, 5, 77, 0
1, 37650, Note_on_c, 4, 67, 0
1, 37650, Note_on_c, 4, 77, 0
1, 37650, Note_on_c, 4, 74, 0
1, 37650, Note_on_c, 4, 79, 100
1, 37650, Note_on_c, 4, 72, 100
1, 37650, Note_on_c, 4, 67, 100
1, 37650, Note_on_c, 5, 77, 100
1, 37680, Note_on_c, 5, 77, 0
1, 37680, Note_on_c, 9, 46, 0
1, 37680, Note_on_c, 0, 67, 0
1, 37680, Note_on_c, 9, 36, 0
1, 37680, Note_on_c, 9, 40, 0
1, 37680, Note_on_c, 0, 55, 0
1, 37680, Note_on_c, 0, 74, 100
1, 37680, Note_on_c, 0, 69, 100
1, 37680, Note_on_c, 0, 43, 100
1, 37680, Note_on_c, 1, 69, 100
1, 37680, Note_on_c, 2, 43, 100
1, 37680, Note_on_c, 5, 77, 100
1, 37680, Note_on_c, 9, 36, 100
1, 37680, Note_on_c, 9, 46, 100
1, 37710, Note_on_c, 5, 77, 0
1, 37710, Note_on_c, 1, 69, 0
1, 37710, Note_on_c, 4, 67, 0
1, 37710, Note_on_c, 4, 79, 0
1, 37710, Note_on_c, 0, 69, 0
1, 37710, Note_on_c, 4, 72, 0
1, 37710, Note_on_c, 0, 70, 100
1, 37710, Note_on_c, 1, 70, 100
1, 37710, Note_on_c, 4, 70, 100
1, 37710, Note_on_c, 4, 67, 100
1, 37710, Note_on_c, 5, 77, 100
1, 37740, Note_on_c, 5, 77, 0
1, 37740, Note_on_c, 9, 36, 0
1, 37740, Note_on_c, 1, 70, 0
1, 37740, Note_on_c, 9, 46, 0
1, 37740, Note_on_c, 0, 43, 0
1, 37740, Note_on_c, 2, 43, 0
1, 37740, Note_on_c, 0, 55, 100
1, 37740, Note_on_c, 1, 67, 100
1, 37740, Note_on_c, 2, 43, 100
1, 37740, Note_on_c, 5, 77, 100
1, 37740, Note_on_c, 9, 36, 100
1, 37740, Note_on_c, 9, 46, 100
1, 37770, Note_on_c, 9, 36, 0
1, 37770, Note_on_c, 5, 77, 0
1, 37770, Note_on_c, 0, 74, 0
1, 37770, Note_on_c, 2, 43, 0
1, 37770, Note_on_c, 4, 70, 0
1, 37770, Note_on_c, 0, 70, 0
1, 37770, Note_on_c, 4, 67, 0
1, 37770, Note_on_c, 1, 67, 0
1, 37770, Note_on_c, 0, 74, 100
1, 37770, Note_on_c, 0, 67, 100
1, 37770, Note_on_c, 1, 65, 100
1, 37770, Note_on_c, 2, 43, 100
1, 37770, Note_on_c, 5, 77, 100
1, 37770, Note_on_c, 9, 36, 100
1, 37800, Note_on_c, 9, 36, 0
1, 37800, Note_on_c, 5, 77, 0
1, 37800, Note_on_c, 1, 65, 0
1, 37800, Note_on_c, 0, 55, 0
1, 37800, Note_on_c, 9, 46, 0
1, 37800, Note_on_c, 2, 43, 0
1, 37800, Note_on_c, 0, 43, 100
1, 37800, Note_on_c, 1, 62, 100
1, 37800, Note_on_c, 2, 43, 100
1, 37800, Note_on_c, 5, 77, 100
1, 37800, Note_on_c, 9, 36, 100
1, 37800, Note_on_c, 9, 38, 100
1, 37800, Note_on_c, 9, 46, 100
1, 37830, Note_on_c, 5, 77, 0
1, 37830, Note_on_c, 0, 67, 0
1, 37830, Note_on_c, 0, 74, 0
1, 37830, Note_on_c, 1, 62, 0
1, 37830, Note_on_c, 0, 65, 100
1, 37830, Note_on_c, 1, 65, 100
1, 37830, Note_on_c, 5, 77, 100
1, 37860, Note_on_c, 5, 77, 0
1, 37860, Note_on_c, 1, 65, 0
1, 37860, Note_on_c, 9, 46, 0
1, 37860, Note_on_c, 0, 43, 0
1, 37860, Note_on_c, 2, 43, 0
1, 37860, Note_on_c, 0, 65, 0
1, 37860, Note_on_c, 0, 62, 100
1, 37860, Note_on_c, 0, 55, 100
1, 37860, Note_on_c, 1, 67, 100
1, 37860, Note_on_c, 5, 77, 100
1, 37860, Note_on_c, 9, 46, 100
1, 37890, Note_on_c, 5, 77, 0
1, 37890, Note_on_c, 0, 62, 0
1, 37890, Note_on_c, 5, 77, 100
1, 37920, Note_on_c, 5, 77, 0
1, 37920, Note_on_c, 9, 46, 0
1, 37920, Note_on_c, 0, 55, 0
1, 37920, Note_on_c, 9, 36, 0
1, 37920, Note_on_c, 9, 38, 0
1, 37920, Note_on_c, 1, 67, 0
1, 37920, Note_on_c, 0, 43, 100
1, 37920, Note_on_c, 2, 43, 100
1, 37920, Note_on_c, 4, 67, 100
1, 37920, Note_on_c, 4, 65, 100
1, 37920, Note_on_c, 5, 77, 100
1, 37920, Note_on_c, 9, 36, 100
1, 37920, Note_on_c, 9, 46, 100
1, 37950, Note_on_c, 5, 77, 0
1, 37950, Note_on_c, 4, 65, 0
1, 37950, Note_on_c, 4, 67, 0
1, 37950, Note_on_c, 4, 70, 100
1, 37950, Note_on_c, 5, 77, 100
1, 37980, Note_on_c, 5, 77, 0
1, 37980, Note_on_c, 9, 46, 0
1, 37980, Note_on_c, 2, 43, 0
1, 37980, Note_on_c, 0, 43, 0
1, 37980, Note_on_c, 9, 36, 0
1, 37980, Note_on_c, 0, 67, 100
1, 37980, Note_on_c, 0, 55, 100
1, 37980, Note_on_c, 1, 69, 100
1, 37980, Note_on_c, 1, 73, 100
1, 37980, Note_on_c, 5, 77, 100
1, 37980, Note_on_c, 9, 36, 100
1, 37980, Note_on_c, 9, 46, 100
1, 38010, Note_on_c, 5, 77, 0
1, 38010, Note_on_c, 4, 70, 0
1, 38010, Note_on_c, 4, 65, 100
1, 38010, Note_on_c, 4, 72, 100
1, 38010, Note_on_c, 5, 77, 100
1, 38040, Note_on_c, 5, 77, 0
1, 38040, Note_on_c, 1, 73, 0
1, 38040, Note_on_c, 9, 36, 0
1, 38040, Note_on_c, 9, 46, 0
1, 38040, Note_on_c, 0, 55, 0
1, 38040, Note_on_c, 1, 69, 0
1, 38040, Note_on_c, 0, 67, 0
1, 38040, Note_on_c, 0, 65, 100
1, 38040, Note_on_c, 0, 43, 100
1, 38040, Note_on_c, 1, 70, 100
1, 38040, Note_on_c, 1, 74, 100
1, 38040, Note_on_c, 2, 43, 100
1, 38040, Note_on_c, 5, 77, 100
1, 38040, Note_on_c, 9, 36, 100
1, 38040, Note_on_c, 9, 38, 100
1, 38040, Note_on_c, 9, 46, 100
1, 38070, Note_on_c, 4, 72, 0
1, 38070, Note_on_c, 4, 65, 0
1, 38070, Note_on_c, 4, 65, 100
1, 38070, Note_on_c, 4, 72, 100
1, 38100, Note_on_c, 1, 70, 0
1, 38100, Note_on_c, 5, 77, 0
1, 38100, Note_on_c, 0, 43, 0
1, 38100, Note_on_c, 9, 46, 0
1, 38100, Note_on_c, 2, 43, 0
1, 38100, Note_on_c, 1, 74, 0
1, 38100, Note_on_c, 0, 65, 0
1, 38100, Note_on_c, 0, 67, 100
1, 38100, Note_on_c, 0, 55, 100
1, 38100, Note_on_c, 5, 77, 100
1, 38100, Note_on_c, 9, 46, 100
1, 38130, Note_on_c, 5, 77, 0
1, 38130, Note_on_c, 4, 72, 0
1, 38130, Note_on_c, 4, 65, 0
1, 38130, Note_on_c, 4, 77, 100
1, 38130, Note_on_c, 4, 74, 100
1, 38130, Note_on_c, 4, 67, 100
1, 38130, Note_on_c, 5, 77, 100
1, 38160, Note_on_c, 9, 38, 0
1, 38160, Note_on_c, 9, 36, 0
1, 38160, Note_on_c, 9, 46, 0
1, 38160, Note_on_c, 0, 67, 0
1, 38160, Note_on_c, 0, 55, 0
1, 38160, Note_on_c, 0, 74, 100
1, 38160, Note_on_c, 0, 69, 100
1, 38160, Note_on_c, 0, 43, 100
1, 38160, Note_on_c, 1, 69, 100
1, 38160, Note_on_c, 2, 43, 100
1, 38160, Note_on_c, 9, 36, 100
1, 38160, Note_on_c, 9, 46, 100
1, 38190, Note_on_c, 1, 69, 0
1, 38190, Note_on_c, 0, 69, 0
1, 38190, Note_on_c, 5, 77, 0
1, 38190, Note_on_c, 0, 70, 100
1, 38190, Note_on_c, 1, 70, 100
1, 38190, Note_on_c, 5, 77, 100
1, 38220, Note_on_c, 5, 77, 0
1, 38220, Note_on_c, 9, 36, 0
1, 38220, Note_on_c, 9, 46, 0
1, 38220, Note_on_c, 1, 70, 0
1, 38220, Note_on_c, 2, 43, 0
1, 38220, Note_on_c, 0, 43, 0
1, 38220, Note_on_c, 4, 74, 0
1, 38220, Note_on_c, 4, 67, 0
1, 38220, Note_on_c, 4, 77, 0
1, 38220, Note_on_c, 0, 55, 100
1, 38220, Note_on_c, 1, 67, 100
1, 38220, Note_on_c, 2, 43, 100
1, 38220, Note_on_c, 5, 77, 100
1, 38220, Note_on_c, 9, 36, 100
1, 38220, Note_on_c, 9, 46, 100
1, 38250, Note_on_c, 9, 36, 0
1, 38250, Note_on_c, 1, 67, 0
1, 38250, Note_on_c, 2, 43, 0
1, 38250, Note_on_c, 0, 74, 0
1, 38250, Note_on_c, 0, 70, 0
1, 38250, Note_on_c, 5, 77, 0
1, 38250, Note_on_c, 0, 74, 100
1, 38250, Note_on_c, 0, 67, 100
1, 38250, Note_on_c, 1, 65, 100
1, 38250, Note_on_c, 2, 43, 100
1, 38250, Note_on_c, 5, 77, 100
1, 38250, Note_on_c, 9, 36, 100
1, 38280, Note_on_c, 9, 36, 0
1, 38280, Note_on_c, 5, 77, 0
1, 38280, Note_on_c, 1, 65, 0
1, 38280, Note_on_c, 9, 46, 0
1, 38280, Note_on_c, 0, 55, 0
1, 38280, Note_on_c, 2, 43, 0
1, 38280, Note_on_c, 0, 43, 100
1, 38280, Note_on_c, 1, 62, 100
1, 38280, Note_on_c, 2, 43, 100
1, 38280, Note_on_c, 5, 77, 100
1, 38280, Note_on_c, 9, 36, 100
1, 38280, Note_on_c, 9, 40, 100
1, 38280, Note_on_c, 9, 46, 100
1, 38310, Note_on_c, 1, 62, 0
1, 38310, Note_on_c, 0, 67, 0
1, 38310, Note_on_c, 0, 74, 0
1, 38310, Note_on_c, 0, 65, 100
1, 38310, Note_on_c, 1, 65, 100
1, 38340, Note_on_c, 1, 65, 0
1, 38340, Note_on_c, 0, 65, 0
1, 38340, Note_on_c, 5, 77, 0
1, 38340, Note_on_c, 0, 43, 0
1, 38340, Note_on_c, 2, 43, 0
1, 38340, Note_on_c, 9, 46, 0
1, 38340, Note_on_c, 0, 62, 100
1, 38340, Note_on_c, 0, 55, 100
1, 38340, Note_on_c, 1, 67, 100
1, 38340, Note_on_c, 5, 82, 100
1, 38340, Note_on_c, 9, 46, 100
1, 38370, Note_on_c, 5, 82, 0
1, 38370, Note_on_c, 0, 62, 0
1, 38370, Note_on_c, 5, 84, 100
1, 38400, Note_on_c, 5, 84, 0
1, 38400, Note_on_c, 9, 46, 0
1, 38400, Note_on_c, 0, 55, 0
1, 38400, Note_on_c, 9, 36, 0
1, 38400, Note_on_c, 9, 40, 0
1, 38400, Note_on_c, 1, 67, 0
1, 38400, Note_on_c, 0, 43, 100
1, 38400, Note_on_c, 2, 43, 100
1, 38400, Note_on_c, 5, 82, 100
1, 38400, Note_on_c, 9, 36, 100
1, 38400, Note_on_c, 9, 46, 100
1, 38430, Note_on_c, 5, 82, 0
1, 38430, Note_on_c, 5, 77, 100
1, 38460, Note_on_c, 9, 36, 0
1, 38460, Note_on_c, 9, 46, 0
1, 38460, Note_on_c, 0, 43, 0
1, 38460, Note_on_c, 2, 43, 0
1, 38460, Note_on_c, 0, 67, 100
1, 38460, Note_on_c, 0, 55, 100
1, 38460, Note_on_c, 1, 69, 100
1, 38460, Note_on_c, 1, 73, 100
1, 38460, Note_on_c, 9, 36, 100
1, 38460, Note_on_c, 9, 46, 100
1, 38490, Note_on_c, 5, 77, 0
1, 38490, Note_on_c, 5, 77, 100
1, 38520, Note_on_c, 5, 77, 0
1, 38520, Note_on_c, 9, 46, 0
1, 38520, Note_on_c, 0, 55, 0
1, 38520, Note_on_c, 1, 69, 0
1, 38520, Note_on_c, 0, 67, 0
1, 38520, Note_on_c, 9, 36, 0
1, 38520, Note_on_c, 1, 73, 0
1, 38520, Note_on_c, 0, 65, 100
1, 38520, Note_on_c, 0, 43, 100
1, 38520, Note_on_c, 1, 70, 100
1, 38520, Note_on_c, 1, 74, 100
1, 38520, Note_on_c, 2, 43, 100
1, 38520, Note_on_c, 4, 67, 100
1, 38520, Note_on_c, 4, 74, 100
1, 38520, Note_on_c, 4, 77, 100
1, 38520, Note_on_c, 5, 77, 100
1, 38520, Note_on_c, 9, 36, 100
1, 38520, Note_on_c, 9, 38, 100
1, 38520, Note_on_c, 9, 46, 100
1, 38580, Note_on_c, 9, 46, 0
1, 38580, Note_on_c, 2, 43, 0
1, 38580, Note_on_c, 1, 74, 0
1, 38580, Note_on_c, 0, 65, 0
1, 38580, Note_on_c, 1, 70, 0
1, 38580, Note_on_c, 5, 77, 0
1, 38580, Note_on_c, 0, 43, 0
1, 38580, Note_on_c, 0, 67, 100
1, 38580, Note_on_c, 0, 55, 100
1, 38580, Note_on_c, 5, 77, 100
1, 38580, Note_on_c, 9, 46, 100
1, 38610, Note_on_c, 5, 77, 0
1, 38610, Note_on_c, 4, 67, 0
1, 38610, Note_on_c, 4, 77, 0
1, 38610, Note_on_c, 4, 74, 0
1, 38610, Note_on_c, 4, 72, 100
1, 38610, Note_on_c, 4, 67, 100
1, 38610, Note_on_c, 5, 77, 100
1, 38640, Note_on_c, 0, 67, 0
1, 38640, Note_on_c, 9, 38, 0
1, 38640, Note_on_c, 9, 46, 0
1, 38640, Note_on_c, 9, 36, 0
1, 38640, Note_on_c, 0, 55, 0
1, 38640, Note_on_c, 0, 74, 100
1, 38640, Note_on_c, 0, 69, 100
1, 38640, Note_on_c, 0, 43, 100
1, 38640, Note_on_c, 1, 69, 100
1, 38640, Note_on_c, 2, 43, 100
1, 38640, Note_on_c, 9, 36, 100
1, 38640, Note_on_c, 9, 46, 100
1, 38670, Note_on_c, 1, 69, 0
1, 38670, Note_on_c, 5, 77, 0
1, 38670, Note_on_c, 4, 72, 0
1, 38670, Note_on_c, 0, 69, 0
1, 38670, Note_on_c, 4, 67, 0
1, 38670, Note_on_c, 0, 70, 100
1, 38670, Note_on_c, 1, 70, 100
1, 38670, Note_on_c, 4, 70, 100
1, 38670, Note_on_c, 4, 67, 100
1, 38670, Note_on_c, 5, 77, 100
1, 38700, Note_on_c, 1, 70, 0
1, 38700, Note_on_c, 9, 36, 0
1, 38700, Note_on_c, 9, 46, 0
1, 38700, Note_on_c, 2, 43, 0
1, 38700, Note_on_c, 0, 43, 0
1, 38700, Note_on_c, 0, 55, 100
1, 38700, Note_on_c, 1, 67, 100
1, 38700, Note_on_c, 2, 43, 100
1, 38700, Note_on_c, 9, 36, 100
1, 38700, Note_on_c, 9, 46, 100
1, 38730, Note_on_c, 9, 36, 0
1, 38730, Note_on_c, 2, 43, 0
1, 38730, Note_on_c, 4, 70, 0
1, 38730, Note_on_c, 1, 67, 0
1, 38730, Note_on_c, 0, 74, 0
1, 38730, Note_on_c, 4, 67, 0
1, 38730, Note_on_c, 5, 77, 0
1, 38730, Note_on_c, 0, 70, 0
1, 38730, Note_on_c, 0, 74, 100
1, 38730, Note_on_c, 0, 67, 100
1, 38730, Note_on_c, 1, 65, 100
1, 38730, Note_on_c, 2, 43, 100
1, 38730, Note_on_c, 5, 77, 100
1, 38730, Note_on_c, 9, 36, 100
1, 38760, Note_on_c, 9, 36, 0
1, 38760, Note_on_c, 5, 77, 0
1, 38760, Note_on_c, 1, 65, 0
1, 38760, Note_on_c, 9, 46, 0
1, 38760, Note_on_c, 0, 55, 0
1, 38760, Note_on_c, 2, 43, 0
1, 38760, Note_on_c, 0, 43, 100
1, 38760, Note_on_c, 1, 62, 100
1, 38760, Note_on_c, 2, 43, 100
1, 38760, Note_on_c, 5, 77, 100
1, 38760, Note_on_c, 9, 36, 100
1, 38760, Note_on_c, 9, 40, 100
1, 38760, Note_on_c, 9, 46, 100
1, 38790, Note_on_c, 1, 62, 0
1, 38790, Note_on_c, 0, 67, 0
1, 38790, Note_on_c, 0, 74, 0
1, 38790, Note_on_c, 0, 65, 100
1, 38790, Note_on_c, 1, 65, 100
1, 38820, Note_on_c, 1, 65, 0
1, 38820, Note_on_c, 0, 65, 0
1, 38820, Note_on_c, 5, 77, 0
1, 38820, Note_on_c, 0, 43, 0
1, 38820, Note_on_c, 2, 43, 0
1, 38820, Note_on_c, 9, 46, 0
1, 38820, Note_on_c, 0, 62, 100
1, 38820, Note_on_c, 0, 55, 100
1, 38820, Note_on_c, 1, 67, 100
1, 38820, Note_on_c, 5, 77, 100
1, 38820, Note_on_c, 9, 46, 100
1, 38840, Note_on_c, 5, 77, 0
1, 38840, Note_on_c, 5, 82, 100
1, 38850, Note_on_c, 0, 62, 0
1, 38850, Note_on_c, 4, 67, 100
1, 38850, Note_on_c, 4, 72, 100
1, 38860, Note_on_c, 5, 82, 0
1, 38860, Note_on_c, 5, 84, 100
1, 38880, Note_on_c, 5, 84, 0
1, 38880, Note_on_c, 1, 67, 0
1, 38880, Note_on_c, 9, 36, 0
1, 38880, Note_on_c, 9, 40, 0
1, 38880, Note_on_c, 0, 55, 0
1, 38880, Note_on_c, 9, 46, 0
1, 38880, Note_on_c, 0, 43, 100
1, 38880, Note_on_c, 2, 43, 100
1, 38880, Note_on_c, 5, 74, 100
1, 38880, Note_on_c, 9, 36, 100
1, 38880, Note_on_c, 9, 46, 100
1, 38910, Note_on_c, 5, 74, 0
1, 38910, Note_on_c, 4, 72, 0
1, 38910, Note_on_c, 4, 67, 0
1, 38910, Note_on_c, 4, 67, 100
1, 38910, Note_on_c, 4, 72, 100
1, 38910, Note_on_c, 5, 77, 100
1, 38940, Note_on_c, 5, 77, 0
1, 38940, Note_on_c, 9, 46, 0
1, 38940, Note_on_c, 0, 43, 0
1, 38940, Note_on_c, 2, 43, 0
1, 38940, Note_on_c, 9, 36, 0
1, 38940, Note_on_c, 0, 67, 100
1, 38940, Note_on_c, 0, 55, 100
1, 38940, Note_on_c, 1, 69, 100
1, 38940, Note_on_c, 1, 73, 100
1, 38940, Note_on_c, 5, 77, 100
1, 38940, Note_on_c, 9, 36, 100
1, 38940, Note_on_c, 9, 46, 100
1, 38970, Note_on_c, 4, 72, 0
1, 38970, Note_on_c, 4, 67, 0
1, 38970, Note_on_c, 4, 74, 100
1, 38980, Note_on_c, 5, 77, 0
1, 38980, Note_on_c, 5, 82, 100
1, 39000, Note_on_c, 5, 82, 0
1, 39000, Note_on_c, 9, 36, 0
1, 39000, Note_on_c, 1, 73, 0
1, 39000, Note_on_c, 0, 67, 0
1, 39000, Note_on_c, 1, 69, 0
1, 39000, Note_on_c, 4, 74, 0
1, 39000, Note_on_c, 0, 55, 0
1, 39000, Note_on_c, 9, 46, 0
1, 39000, Note_on_c, 0, 65, 100
1, 39000, Note_on_c, 0, 43, 100
1, 39000, Note_on_c, 1, 70, 100
1, 39000, Note_on_c, 1, 74, 100
1, 39000, Note_on_c, 2, 43, 100
1, 39000, Note_on_c, 4, 67, 100
1, 39000, Note_on_c, 4, 72, 100
1, 39000, Note_on_c, 5, 77, 100
1, 39000, Note_on_c, 9, 36, 100
1, 39000, Note_on_c, 9, 38, 100
1, 39000, Note_on_c, 9, 46, 100
1, 39030, Note_on_c, 4, 72, 0
1, 39030, Note_on_c, 4, 67, 0
1, 39030, Note_on_c, 4, 70, 100
1, 39060, Note_on_c, 4, 70, 0
1, 39060, Note_on_c, 5, 77, 0
1, 39060, Note_on_c, 9, 46, 0
1, 39060, Note_on_c, 0, 65, 0
1, 39060, Note_on_c, 2, 43, 0
1, 39060, Note_on_c, 0, 43, 0
1, 39060, Note_on_c, 1, 74, 0
1, 39060, Note_on_c, 1, 70, 0
1, 39060, Note_on_c, 0, 67, 100
1, 39060, Note_on_c, 0, 55, 100
1, 39060, Note_on_c, 4, 67, 100
1, 39060, Note_on_c, 5, 74, 100
1, 39060, Note_on_c, 9, 46, 100
1, 39090, Note_on_c, 5, 74, 0
1, 39090, Note_on_c, 4, 67, 0
1, 39090, Note_on_c, 4, 67, 100
1, 39090, Note_on_c, 5, 77, 100
1, 39090, Note_on_c, 5, 82, 100
1, 39120, Note_on_c, 5, 82, 0
1, 39120, Note_on_c, 9, 38, 0
1, 39120, Note_on_c, 9, 36, 0
1, 39120, Note_on_c, 0, 55, 0
1, 39120, Note_on_c, 0, 67, 0
1, 39120, Note_on_c, 9, 46, 0
1, 39120, Note_on_c, 0, 74, 100
1, 39120, Note_on_c, 0, 69, 100
1, 39120, Note_on_c, 0, 43, 100
1, 39120, Note_on_c, 1, 69, 100
1, 39120, Note_on_c, 2, 43, 100
1, 39120, Note_on_c, 9, 36, 100
1, 39120, Note_on_c, 9, 46, 100
1, 39150, Note_on_c, 1, 69, 0
1, 39150, Note_on_c, 5, 77, 0
1, 39150, Note_on_c, 4, 67, 0
1, 39150, Note_on_c, 0, 69, 0
1, 39150, Note_on_c, 0, 70, 100
1, 39150, Note_on_c, 1, 70, 100
1, 39150, Note_on_c, 5, 77, 100
1, 39180, Note_on_c, 1, 70, 0
1, 39180, Note_on_c, 9, 46, 0
1, 39180, Note_on_c, 2, 43, 0
1, 39180, Note_on_c, 0, 43, 0
1, 39180, Note_on_c, 9, 36, 0
1, 39180, Note_on_c, 0, 55, 100
1, 39180, Note_on_c, 1, 67, 100
1, 39180, Note_on_c, 2, 43, 100
1, 39180, Note_on_c, 4, 67, 100
1, 39180, Note_on_c, 4, 70, 100
1, 39180, Note_on_c, 9, 36, 100
1, 39180, Note_on_c, 9, 46, 100
1, 39210, Note_on_c, 9, 36, 0
1, 39210, Note_on_c, 2, 43, 0
1, 39210, Note_on_c, 5, 77, 0
1, 39210, Note_on_c, 0, 70, 0
1, 39210, Note_on_c, 1, 67, 0
1, 39210, Note_on_c, 0, 74, 0
1, 39210, Note_on_c, 0, 74, 100
1, 39210, Note_on_c, 0, 67, 100
1, 39210, Note_on_c, 1, 65, 100
1, 39210, Note_on_c, 2, 43, 100
1, 39210, Note_on_c, 5, 77, 100
1, 39210, Note_on_c, 9, 36, 100
1, 39240, Note_on_c, 9, 36, 0
1, 39240, Note_on_c, 5, 77, 0
1, 39240, Note_on_c, 0, 55, 0
1, 39240, Note_on_c, 1, 65, 0
1, 39240, Note_on_c, 4, 67, 0
1, 39240, Note_on_c, 9, 46, 0
1, 39240, Note_on_c, 2, 43, 0
1, 39240, Note_on_c, 4, 70, 0
1, 39240, Note_on_c, 0, 43, 100
1, 39240, Note_on_c, 1, 62, 100
1, 39240, Note_on_c, 2, 43, 100
1, 39240, Note_on_c, 4, 67, 100
1, 39240, Note_on_c, 4, 72, 100
1, 39240, Note_on_c, 5, 77, 100
1, 39240, Note_on_c, 9, 36, 100
1, 39240, Note_on_c, 9, 40, 100
1, 39240, Note_on_c, 9, 46, 100
1, 39260, Note_on_c, 5, 77, 0
1, 39260, Note_on_c, 5, 82, 100
1, 39270, Note_on_c, 4, 72, 0
1, 39270, Note_on_c, 0, 74, 0
1, 39270, Note_on_c, 0, 67, 0
1, 39270, Note_on_c, 4, 67, 0
1, 39270, Note_on_c, 1, 62, 0
1, 39270, Note_on_c, 0, 65, 100
1, 39270, Note_on_c, 1, 65, 100
1, 39270, Note_on_c, 4, 70, 100
1, 39280, Note_on_c, 5, 82, 0
1, 39280, Note_on_c, 5, 77, 100
1, 39300, Note_on_c, 9, 46, 0
1, 39300, Note_on_c, 4, 70, 0
1, 39300, Note_on_c, 1, 65, 0
1, 39300, Note_on_c, 2, 43, 0
1, 39300, Note_on_c, 0, 43, 0
1, 39300, Note_on_c, 0, 65, 0
1, 39300, Note_on_c, 0, 62, 100
1, 39300, Note_on_c, 0, 55, 100
1, 39300, Note_on_c, 1, 67, 100
1, 39300, Note_on_c, 4, 67, 100
1, 39300, Note_on_c, 9, 46, 100
1, 39320, Note_on_c, 5, 77, 0
1, 39320, Note_on_c, 5, 82, 100
1, 39330, Note_on_c, 0, 62, 0
1, 39330, Note_on_c, 4, 67, 0
1, 39330, Note_on_c, 4, 67, 100
1, 39330, Note_on_c, 4, 73, 100
1, 39340, Note_on_c, 5, 82, 0
1, 39340, Note_on_c, 5, 84, 100
1, 39360, Note_on_c, 5, 84, 0
1, 39360, Note_on_c, 1, 67, 0
1, 39360, Note_on_c, 9, 46, 0
1, 39360, Note_on_c, 9, 40, 0
1, 39360, Note_on_c, 0, 55, 0
1, 39360, Note_on_c, 4, 73, 0
1, 39360, Note_on_c, 4, 67, 0
1, 39360, Note_on_c, 9, 36, 0
1, 39360, Note_on_c, 0, 43, 100
1, 39360, Note_on_c, 2, 43, 100
1, 39360, Note_on_c, 5, 77, 100
1, 39360, Note_on_c, 9, 36, 100
1, 39360, Note_on_c, 9, 46, 100
1, 39390, Note_on_c, 5, 77, 0
1, 39390, Note_on_c, 5, 77, 100
1, 39420, Note_on_c, 9, 36, 0
1, 39420, Note_on_c, 9, 46, 0
1, 39420, Note_on_c, 0, 43, 0
1, 39420, Note_on_c, 2, 43, 0
1, 39420, Note_on_c, 0, 67, 100
1, 39420, Note_on_c, 0, 55, 100
1, 39420, Note_on_c, 1, 69, 100
1, 39420, Note_on_c, 1, 73, 100
1, 39420, Note_on_c, 9, 36, 100
1, 39420, Note_on_c, 9, 46, 100
1, 39450, Note_on_c, 5, 77, 0
1, 39450, Note_on_c, 5, 77, 100
1, 39480, Note_on_c, 5, 77, 0
1, 39480, Note_on_c, 9, 46, 0
1, 39480, Note_on_c, 0, 55, 0
1, 39480, Note_on_c, 1, 69, 0
1, 39480, Note_on_c, 0, 67, 0
1, 39480, Note_on_c, 9, 36, 0
1, 39480, Note_on_c, 1, 73, 0
1, 39480, Note_on_c, 0, 65, 100
1, 39480, Note_on_c, 0, 43, 100
1, 39480, Note_on_c, 1, 70, 100
1, 39480, Note_on_c, 1, 74, 100
1, 39480, Note_on_c, 2, 43, 100
1, 39480, Note_on_c, 5, 77, 100
1, 39480, Note_on_c, 9, 36, 100
1, 39480, Note_on_c, 9, 38, 100
1, 39480, Note_on_c, 9, 46, 100
1, 39540, Note_on_c, 9, 46, 0
1, 39540, Note_on_c, 0, 65, 0
1, 39540, Note_on_c, 5, 77, 0
1, 39540, Note_on_c, 1, 74, 0
1, 39540, Note_on_c, 0, 43, 0
1, 39540, Note_on_c, 1, 70, 0
1, 39540, Note_on_c, 2, 43, 0
1, 39540, Note_on_c, 0, 67, 100
1, 39540, Note_on_c, 0, 55, 100
1, 39540, Note_on_c, 5, 77, 100
1, 39540, Note_on_c, 9, 46, 100
1, 39570, Note_on_c, 5, 77, 0
1, 39570, Note_on_c, 5, 77, 100
1, 39600, Note_on_c, 9, 38, 0
1, 39600, Note_on_c, 0, 55, 0
1, 39600, Note_on_c, 0, 67, 0
1, 39600, Note_on_c, 9, 36, 0
1, 39600, Note_on_c, 9, 46, 0
1, 39600, Note_on_c, 0, 74, 100
1, 39600, Note_on_c, 0, 69, 100
1, 39600, Note_on_c, 0, 43, 100
1, 39600, Note_on_c, 1, 69, 100
1, 39600, Note_on_c, 2, 43, 100
1, 39600, Note_on_c, 9, 36, 100
1, 39600, Note_on_c, 9, 46, 100
1, 39630, Note_on_c, 1, 69, 0
1, 39630, Note_on_c, 0, 69, 0
1, 39630, Note_on_c, 5, 77, 0
1, 39630, Note_on_c, 0, 70, 100
1, 39630, Note_on_c, 1, 70, 100
1, 39630, Note_on_c, 5, 77, 100
1, 39660, Note_on_c, 1, 70, 0
1, 39660, Note_on_c, 9, 46, 0
1, 39660, Note_on_c, 9, 36, 0
1, 39660, Note_on_c, 0, 43, 0
1, 39660, Note_on_c, 2, 43, 0
1, 39660, Note_on_c, 0, 55, 100
1, 39660, Note_on_c, 1, 67, 100
1, 39660, Note_on_c, 2, 43, 100
1, 39660, Note_on_c, 9, 36, 100
1, 39660, Note_on_c, 9, 46, 100
1, 39690, Note_on_c, 9, 36, 0
1, 39690, Note_on_c, 5, 77, 0
1, 39690, Note_on_c, 1, 67, 0
1, 39690, Note_on_c, 0, 74, 0
1, 39690, Note_on_c, 0, 70, 0
1, 39690, Note_on_c, 2, 43, 0
1, 39690, Note_on_c, 0, 74, 100
1, 39690, Note_on_c, 0, 67, 100
1, 39690, Note_on_c, 1, 65, 100
1, 39690, Note_on_c, 2, 43, 100
1, 39690, Note_on_c, 5, 77, 100
1, 39690, Note_on_c, 9, 36, 100
1, 39720, Note_on_c, 9, 36, 0
1, 39720, Note_on_c, 5, 77, 0
1, 39720, Note_on_c, 1, 65, 0
1, 39720, Note_on_c, 9, 46, 0
1, 39720, Note_on_c, 0, 55, 0
1, 39720, Note_on_c, 2, 43, 0
1, 39720, Note_on_c, 0, 43, 100
1, 39720, Note_on_c, 1, 62, 100
1, 39720, Note_on_c, 2, 43, 100
1, 39720, Note_on_c, 5, 77, 100
1, 39720, Note_on_c, 9, 36, 100
1, 39720, Note_on_c, 9, 40, 100
1, 39720, Note_on_c, 9, 46, 100
1, 39750, Note_on_c, 1, 62, 0
1, 39750, Note_on_c, 0, 67, 0
1, 39750, Note_on_c, 0, 74, 0
1, 39750, Note_on_c, 0, 65, 100
1, 39750, Note_on_c, 1, 65, 100
1, 39780, Note_on_c, 1, 65, 0
1, 39780, Note_on_c, 0, 65, 0
1, 39780, Note_on_c, 0, 43, 0
1, 39780, Note_on_c, 2, 43, 0
1, 39780, Note_on_c, 9, 46, 0
1, 39780, Note_on_c, 0, 62, 100
1, 39780, Note_on_c, 0, 55, 100
1, 39780, Note_on_c, 1, 67, 100
1, 39780, Note_on_c, 9, 46, 100
1, 39810, Note_on_c, 0, 62, 0
1, 39840, Note_on_c, 1, 67, 0
1, 39840, Note_on_c, 9, 36, 0
1, 39840, Note_on_c, 9, 40, 0
1, 39840, Note_on_c, 5, 77, 0
1, 39840, Note_on_c, 9, 46, 0
1, 39840, Note_on_c, 0, 55, 0
1, 39840, Note_on_c, 0, 43, 100
1, 39840, Note_on_c, 2, 43, 100
1, 39840, Note_on_c, 5, 77, 100
1, 39840, Note_on_c, 9, 36, 100
1, 39840, Note_on_c, 9, 46, 100
1, 39870, Note_on_c, 5, 77, 0
1, 39870, Note_on_c, 5, 77, 100
1, 39900, Note_on_c, 9, 36, 0
1, 39900, Note_on_c, 9, 46, 0
1, 39900, Note_on_c, 0, 43, 0
1, 39900, Note_on_c, 2, 43, 0
1, 39900, Note_on_c, 0, 67, 100
1, 39900, Note_on_c, 0, 55, 100
1, 39900, Note_on_c, 1, 69, 100
1, 39900, Note_on_c, 1, 73, 100
1, 39900, Note_on_c, 9, 36, 100
1, 39900, Note_on_c, 9, 46, 100
1, 39930, Note_on_c, 5, 77, 0
1, 39930, Note_on_c, 5, 77, 100
1, 39960, Note_on_c, 5, 77, 0
1, 39960, Note_on_c, 9, 46, 0
1, 39960, Note_on_c, 0, 55, 0
1, 39960, Note_on_c, 1, 69, 0
1, 39960, Note_on_c, 0, 67, 0
1, 39960, Note_on_c, 9, 36, 0
1, 39960, Note_on_c, 1, 73, 0
1, 39960, Note_on_c, 0, 65, 100
1, 39960, Note_on_c, 0, 43, 100
1, 39960, Note_on_c, 1, 70, 100
1, 39960, Note_on_c, 1, 74, 100
1, 39960, Note_on_c, 2, 43, 100
1, 39960, Note_on_c, 5, 77, 100
1, 39960, Note_on_c, 9, 38, 100
1, 39960, Note_on_c, 9, 46, 100
1, 40020, Note_on_c, 9, 46, 0
1, 40020, Note_on_c, 0, 65, 0
1, 40020, Note_on_c, 5, 77, 0
1, 40020, Note_on_c, 0, 43, 0
1, 40020, Note_on_c, 1, 70, 0
1, 40020, Note_on_c, 1, 74, 0
1, 40020, Note_on_c, 2, 43, 0
1, 40020, Note_on_c, 0, 67, 100
1, 40020, Note_on_c, 0, 55, 100
1, 40020, Note_on_c, 5, 77, 100
1, 40020, Note_on_c, 9, 46, 100
1, 40050, Note_on_c, 5, 77, 0
1, 40050, Note_on_c, 5, 77, 100
1, 40080, Note_on_c, 0, 55, 0
1, 40080, Note_on_c, 9, 46, 0
1, 40080, Note_on_c, 9, 38, 0
1, 40080, Note_on_c, 0, 67, 0
1, 40080, Note_on_c, 0, 74, 100
1, 40080, Note_on_c, 0, 69, 100
1, 40080, Note_on_c, 0, 43, 100
1, 40080, Note_on_c, 1, 69, 100
1, 40080, Note_on_c, 2, 43, 100
1, 40080, Note_on_c, 9, 36, 100
1, 40080, Note_on_c, 9, 46, 100
1, 40110, Note_on_c, 1, 69, 0
1, 40110, Note_on_c, 0, 69, 0
1, 40110, Note_on_c, 5, 77, 0
1, 40110, Note_on_c, 0, 70, 100
1, 40110, Note_on_c, 1, 70, 100
1, 40110, Note_on_c, 5, 77, 100
1, 40140, Note_on_c, 1, 70, 0
1, 40140, Note_on_c, 0, 43, 0
1, 40140, Note_on_c, 9, 36, 0
1, 40140, Note_on_c, 2, 43, 0
1, 40140, Note_on_c, 0, 55, 100
1, 40140, Note_on_c, 1, 67, 100
1, 40140, Note_on_c, 2, 43, 100
1, 40140, Note_on_c, 9, 36, 100
1, 40170, Note_on_c, 9, 36, 0
1, 40170, Note_on_c, 2, 43, 0
1, 40170, Note_on_c, 0, 74, 0
1, 40170, Note_on_c, 0, 70, 0
1, 40170, Note_on_c, 5, 77, 0
1, 40170, Note_on_c, 1, 67, 0
1, 40170, Note_on_c, 0, 74, 100
1, 40170, Note_on_c, 0, 67, 100
1, 40170, Note_on_c, 1, 65, 100
1, 40170, Note_on_c, 2, 43, 100
1, 40170, Note_on_c, 5, 77, 100
1, 40170, Note_on_c, 9, 36, 100
1, 40200, Note_on_c, 9, 36, 0
1, 40200, Note_on_c, 5, 77, 0
1, 40200, Note_on_c, 1, 65, 0
1, 40200, Note_on_c, 9, 46, 0
1, 40200, Note_on_c, 0, 55, 0
1, 40200, Note_on_c, 2, 43, 0
1, 40200, Note_on_c, 0, 43, 100
1, 40200, Note_on_c, 1, 62, 100
1, 40200, Note_on_c, 2, 43, 100
1, 40200, Note_on_c, 5, 77, 100
1, 40200, Note_on_c, 9, 36, 100
1, 40200, Note_on_c, 9, 40, 100
1, 40230, Note_on_c, 9, 40, 0
1, 40230, Note_on_c, 0, 74, 0
1, 40230, Note_on_c, 9, 36, 0
1, 40230, Note_on_c, 0, 67, 0
1, 40230, Note_on_c, 1, 62, 0
1, 40230, Note_on_c, 0, 65, 100
1, 40230, Note_on_c, 1, 65, 100
1, 40230, Note_on_c, 9, 40, 100
1, 40260, Note_on_c, 9, 40, 0
1, 40260, Note_on_c, 2, 43, 0
1, 40260, Note_on_c, 0, 43, 0
1, 40260, Note_on_c, 0, 65, 0
1, 40260, Note_on_c, 1, 65, 0
1, 40260, Note_on_c, 0, 62, 100
1, 40260, Note_on_c, 0, 55, 100
1, 40260, Note_on_c, 1, 67, 100
1, 40260, Note_on_c, 9, 38, 100
1, 40290, Note_on_c, 9, 38, 0
1, 40290, Note_on_c, 0, 62, 0
1, 40290, Note_on_c, 9, 40, 100
1, 40320, Note_on_c, 9, 40, 0
1, 40320, Note_on_c, 1, 67, 0
1, 40320, Note_on_c, 0, 55, 0
1, 40320, Note_on_c, 5, 77, 0
1, 40320, Note_on_c, 0, 43, 100
1, 40320, Note_on_c, 0, 74, 100
1, 40320, Note_on_c, 0, 67, 100
1, 40320, Note_on_c, 1, 67, 100
1, 40320, Note_on_c, 1, 74, 100
1, 40320, Note_on_c, 2, 43, 100
1, 40320, Note_on_c, 4, 67, 100
1, 40320, Note_on_c, 4, 74, 100
1, 40320, Note_on_c, 4, 77, 100
1, 40320, Note_on_c, 5, 79, 100
1, 40320, Note_on_c, 5, 74, 100
1, 40320, Note_on_c, 9, 49, 100
1, 40320, Note_on_c, 9, 40, 100
1, 40320, Note_on_c, 9, 36, 100
1, 40440, Note_on_c, 9, 36, 0
1, 40440, Note_on_c, 4, 74, 0
1, 40440, Note_on_c, 4, 67, 0
1, 40440, Note_on_c, 9, 40, 0
1, 40440, Note_on_c, 4, 77, 0
1, 40440, Note_on_c, 9, 49, 0
1, 40440, Note_on_c, 4, 77, 100
1, 40440, Note_on_c, 4, 74, 100
1, 40440, Note_on_c, 4, 67, 100
1, 40500, Note_on_c, 4, 67, 0
1, 40500, Note_on_c, 4, 74, 0
1, 40500, Note_on_c, 4, 77, 0
1, 40500, Note_on_c, 4, 67, 100
1, 40530, Note_on_c, 4, 67, 0
1, 40530, Note_on_c, 4, 77, 100
1, 40530, Note_on_c, 4, 74, 100
1, 40530, Note_on_c, 4, 67, 100
1, 40590, Note_on_c, 4, 67, 0
1, 40590, Note_on_c, 4, 74, 0
1, 40590, Note_on_c, 4, 77, 0
1, 40590, Note_on_c, 4, 67, 100
1, 40590, Note_on_c, 4, 72, 100
1, 40590, Note_on_c, 4, 76, 100
1, 40620, Note_on_c, 4, 76, 0
1, 40620, Note_on_c, 4, 72, 0
1, 40620, Note_on_c, 4, 67, 0
1, 40620, Note_on_c, 4, 76, 100
1, 40620, Note_on_c, 4, 72, 100
1, 40620, Note_on_c, 4, 67, 100
1, 40680, Note_on_c, 4, 67, 0
1, 40680, Note_on_c, 4, 72, 0
1, 40680, Note_on_c, 4, 76, 0
1, 40680, Note_on_c, 3, 86, 100
1, 40680, Note_on_c, 4, 76, 100
1, 40680, Note_on_c, 4, 67, 100
1, 40680, Note_on_c, 4, 72, 100
1, 40680, Note_on_c, 9, 38, 100
1, 40710, Note_on_c, 9, 38, 0
1, 40710, Note_on_c, 9, 38, 100
1, 40740, Note_on_c, 9, 38, 0
1, 40740, Note_on_c, 4, 67, 0
1, 40740, Note_on_c, 4, 76, 0
1, 40740, Note_on_c, 4, 72, 0
1, 40740, Note_on_c, 4, 76, 100
1, 40740, Note_on_c, 4, 67, 100
1, 40740, Note_on_c, 4, 72, 100
1, 40740, Note_on_c, 9, 38, 100
1, 40770, Note_on_c, 9, 38, 0
1, 40770, Note_on_c, 9, 38, 100
1, 40800, Note_on_c, 9, 38, 0
1, 40800, Note_on_c, 4, 67, 0
1, 40800, Note_on_c, 4, 76, 0
1, 40800, Note_on_c, 4, 72, 0
1, 40800, Note_on_c, 4, 69, 100
1, 40800, Note_on_c, 9, 49, 100
1, 40800, Note_on_c, 9, 36, 100
1, 40830, Note_on_c, 4, 69, 0
1, 40830, Note_on_c, 4, 77, 100
1, 40830, Note_on_c, 4, 74, 100
1, 40830, Note_on_c, 4, 69, 100
1, 40890, Note_on_c, 4, 69, 0
1, 40890, Note_on_c, 4, 74, 0
1, 40890, Note_on_c, 4, 77, 0
1, 40890, Note_on_c, 4, 69, 100
1, 40920, Note_on_c, 4, 69, 0
1, 40920, Note_on_c, 9, 49, 0
1, 40920, Note_on_c, 3, 86, 0
1, 40920, Note_on_c, 9, 36, 0
1, 40920, Note_on_c, 3, 84, 100
1, 40920, Note_on_c, 4, 77, 100
1, 40920, Note_on_c, 4, 74, 100
1, 40920, Note_on_c, 4, 69, 100
1, 40920, Note_on_c, 9, 42, 100
1, 40980, Note_on_c, 4, 69, 0
1, 40980, Note_on_c, 4, 77, 0
1, 40980, Note_on_c, 4, 74, 0
1, 40980, Note_on_c, 4, 69, 100
1, 41010, Note_on_c, 4, 69, 0
1, 41010, Note_on_c, 4, 77, 100
1, 41010, Note_on_c, 4, 74, 100
1, 41010, Note_on_c, 4, 69, 100
1, 41040, Note_on_c, 9, 42, 0
1, 41040, Note_on_c, 9, 42, 100
1, 41070, Note_on_c, 4, 77, 0
1, 41070, Note_on_c, 4, 69, 0
1, 41070, Note_on_c, 4, 74, 0
1, 41070, Note_on_c, 4, 67, 100
1, 41070, Note_on_c, 4, 72, 100
1, 41070, Note_on_c, 4, 76, 100
1, 41100, Note_on_c, 4, 76, 0
1, 41100, Note_on_c, 4, 72, 0
1, 41100, Note_on_c, 4, 67, 0
1, 41100, Note_on_c, 4, 76, 100
1, 41100, Note_on_c, 4, 72, 100
1, 41100, Note_on_c, 4, 67, 100
1, 41160, Note_on_c, 4, 67, 0
1, 41160, Note_on_c, 9, 42, 0
1, 41160, Note_on_c, 4, 72, 0
1, 41160, Note_on_c, 4, 76, 0
1, 41160, Note_on_c, 4, 76, 100
1, 41160, Note_on_c, 4, 67, 100
1, 41160, Note_on_c, 4, 72, 100
1, 41160, Note_on_c, 9, 42, 100
1, 41220, Note_on_c, 4, 72, 0
1, 41220, Note_on_c, 4, 76, 0
1, 41220, Note_on_c, 2, 43, 0
1, 41220, Note_on_c, 4, 67, 0
1, 41220, Note_on_c, 2, 50, 100
1, 41220, Note_on_c, 4, 76, 100
1, 41220, Note_on_c, 4, 67, 100
1, 41220, Note_on_c, 4, 72, 100
1, 41250, Note_on_c, 2, 50, 0
1, 41250, Note_on_c, 2, 53, 100
1, 41280, Note_on_c, 2, 53, 0
1, 41280, Note_on_c, 4, 67, 0
1, 41280, Note_on_c, 9, 42, 0
1, 41280, Note_on_c, 5, 74, 0
1, 41280, Note_on_c, 1, 67, 0
1, 41280, Note_on_c, 4, 76, 0
1, 41280, Note_on_c, 1, 74, 0
1, 41280, Note_on_c, 5, 79, 0
1, 41280, Note_on_c, 4, 72, 0
1, 41280, Note_on_c, 0, 74, 0
1, 41280, Note_on_c, 0, 43, 0
1, 41280, Note_on_c, 0, 67, 0
1, 41280, Note_on_c, 0, 43, 100
1, 41280, Note_on_c, 0, 67, 100
1, 41280, Note_on_c, 0, 74, 100
1, 41280, Note_on_c, 1, 74, 100
1, 41280, Note_on_c, 1, 67, 100
1, 41280, Note_on_c, 2, 55, 100
1, 41280, Note_on_c, 4, 67, 100
1, 41280, Note_on_c, 4, 74, 100
1, 41280, Note_on_c, 4, 77, 100
1, 41280, Note_on_c, 9, 40, 100
1, 41280, Note_on_c, 9, 42, 100
1, 41370, Note_on_c, 9, 40, 0
1, 41370, Note_on_c, 9, 40, 100
1, 41400, Note_on_c, 9, 40, 0
1, 41400, Note_on_c, 3, 84, 0
1, 41400, Note_on_c, 4, 74, 0
1, 41400, Note_on_c, 4, 67, 0
1, 41400, Note_on_c, 4, 77, 0
1, 41400, Note_on_c, 9, 42, 0
1, 41400, Note_on_c, 3, 82, 100
1, 41400, Note_on_c, 4, 77, 100
1, 41400, Note_on_c, 4, 74, 100
1, 41400, Note_on_c, 4, 67, 100
1, 41400, Note_on_c, 9, 38, 100
1, 41400, Note_on_c, 9, 42, 100
1, 41440, Note_on_c, 3, 82, 0
1, 41440, Note_on_c, 3, 84, 100
1, 41460, Note_on_c, 4, 67, 0
1, 41460, Note_on_c, 4, 77, 0
1, 41460, Note_on_c, 4, 74, 0
1, 41460, Note_on_c, 4, 67, 100
1, 41480, Note_on_c, 3, 84, 0
1, 41480, Note_on_c, 3, 82, 100
1, 41490, Note_on_c, 4, 67, 0
1, 41490, Note_on_c, 9, 38, 0
1, 41490, Note_on_c, 4, 77, 100
1, 41490, Note_on_c, 4, 74, 100
1, 41490, Note_on_c, 4, 67, 100
1, 41490, Note_on_c, 9, 43, 100
1, 41520, Note_on_c, 3, 82, 0
1, 41520, Note_on_c, 9, 42, 0
1, 41520, Note_on_c, 3, 84, 100
1, 41520, Note_on_c, 9, 42, 100
1, 41550, Note_on_c, 3, 84, 0
1, 41550, Note_on_c, 4, 77, 0
1, 41550, Note_on_c, 4, 67, 0
1, 41550, Note_on_c, 4, 74, 0
1, 41550, Note_on_c, 9, 43, 0
1, 41550, Note_on_c, 3, 82, 100
1, 41550, Note_on_c, 4, 67, 100
1, 41550, Note_on_c, 4, 72, 100
1, 41550, Note_on_c, 4, 76, 100
1, 41550, Note_on_c, 9, 43, 100
1, 41580, Note_on_c, 9, 43, 0
1, 41580, Note_on_c, 4, 72, 0
1, 41580, Note_on_c, 4, 67, 0
1, 41580, Note_on_c, 3, 82, 0
1, 41580, Note_on_c, 4, 76, 0
1, 41580, Note_on_c, 3, 84, 100
1, 41580, Note_on_c, 4, 76, 100
1, 41580, Note_on_c, 4, 72, 100
1, 41580, Note_on_c, 4, 67, 100
1, 41580, Note_on_c, 9, 43, 100
1, 41610, Note_on_c, 3, 84, 0
1, 41610, Note_on_c, 3, 82, 100
1, 41640, Note_on_c, 4, 67, 0
1, 41640, Note_on_c, 9, 42, 0
1, 41640, Note_on_c, 4, 72, 0
1, 41640, Note_on_c, 4, 76, 0
1, 41640, Note_on_c, 9, 43, 0
1, 41640, Note_on_c, 4, 76, 100
1, 41640, Note_on_c, 4, 67, 100
1, 41640, Note_on_c, 4, 72, 100
1, 41640, Note_on_c, 9, 43, 100
1, 41640, Note_on_c, 9, 42, 100
1, 41670, Note_on_c, 9, 43, 0
1, 41670, Note_on_c, 3, 82, 0
1, 41670, Note_on_c, 3, 79, 100
1, 41670, Note_on_c, 9, 43, 100
1, 41700, Note_on_c, 9, 43, 0
1, 41700, Note_on_c, 4, 76, 0
1, 41700, Note_on_c, 4, 72, 0
1, 41700, Note_on_c, 4, 67, 0
1, 41700, Note_on_c, 4, 76, 100
1, 41700, Note_on_c, 4, 67, 100
1, 41700, Note_on_c, 4, 72, 100
1, 41700, Note_on_c, 9, 43, 100
1, 41760, Note_on_c, 9, 43, 0
1, 41760, Note_on_c, 4, 67, 0
1, 41760, Note_on_c, 4, 76, 0
1, 41760, Note_on_c, 9, 42, 0
1, 41760, Note_on_c, 4, 72, 0
1, 41760, Note_on_c, 4, 69, 100
1, 41760, Note_on_c, 9, 38, 100
1, 41760, Note_on_c, 9, 42, 100
1, 41790, Note_on_c, 9, 38, 0
1, 41790, Note_on_c, 4, 69, 0
1, 41790, Note_on_c, 4, 77, 100
1, 41790, Note_on_c, 4, 74, 100
1, 41790, Note_on_c, 4, 69, 100
1, 41790, Note_on_c, 9, 38, 100
1, 41820, Note_on_c, 3, 79, 0
1, 41820, Note_on_c, 3, 77, 100
1, 41850, Note_on_c, 4, 69, 0
1, 41850, Note_on_c, 4, 74, 0
1, 41850, Note_on_c, 4, 77, 0
1, 41850, Note_on_c, 9, 38, 0
1, 41850, Note_on_c, 4, 69, 100
1, 41850, Note_on_c, 9, 38, 100
1, 41880, Note_on_c, 9, 38, 0
1, 41880, Note_on_c, 4, 69, 0
1, 41880, Note_on_c, 9, 42, 0
1, 41880, Note_on_c, 3, 77, 0
1, 41880, Note_on_c, 3, 77, 100
1, 41880, Note_on_c, 4, 77, 100
1, 41880, Note_on_c, 4, 74, 100
1, 41880, Note_on_c, 4, 69, 100
1, 41880, Note_on_c, 9, 38, 100
1, 41880, Note_on_c, 9, 42, 100
1, 41910, Note_on_c, 9, 38, 0
1, 41910, Note_on_c, 9, 38, 100
1, 41940, Note_on_c, 9, 38, 0
1, 41940, Note_on_c, 3, 77, 0
1, 41940, Note_on_c, 4, 74, 0
1, 41940, Note_on_c, 4, 77, 0
1, 41940, Note_on_c, 4, 69, 0
1, 41940, Note_on_c, 3, 77, 100
1, 41940, Note_on_c, 4, 69, 100
1, 41940, Note_on_c, 9, 38, 100
1, 41960, Note_on_c, 9, 38, 0
1, 41960, Note_on_c, 9, 38, 100
1, 41970, Note_on_c, 4, 69, 0
1, 41970, Note_on_c, 3, 77, 0
1, 41970, Note_on_c, 3, 77, 100
1, 41970, Note_on_c, 4, 77, 100
1, 41970, Note_on_c, 4, 74, 100
1, 41970, Note_on_c, 4, 69, 100
1, 41980, Note_on_c, 9, 38, 0
1, 41980, Note_on_c, 9, 38, 100
1, 42000, Note_on_c, 9, 38, 0
1, 42000, Note_on_c, 9, 42, 0
1, 42000, Note_on_c, 3, 77, 0
1, 42000, Note_on_c, 3, 82, 100
1, 42000, Note_on_c, 9, 38, 100
1, 42000, Note_on_c, 9, 42, 100
1, 42020, Note_on_c, 9, 38, 0
1, 42020, Note_on_c, 9, 38, 100
1, 42030, Note_on_c, 4, 74, 0
1, 42030, Note_on_c, 4, 77, 0
1, 42030, Note_on_c, 4, 69, 0
1, 42030, Note_on_c, 4, 67, 100
1, 42030, Note_on_c, 4, 72, 100
1, 42030, Note_on_c, 4, 76, 100
1, 42040, Note_on_c, 9, 38, 0
1, 42040, Note_on_c, 9, 38, 100
1, 42060, Note_on_c, 9, 38, 0
1, 42060, Note_on_c, 4, 67, 0
1, 42060, Note_on_c, 4, 72, 0
1, 42060, Note_on_c, 4, 76, 0
1, 42060, Note_on_c, 4, 76, 100
1, 42060, Note_on_c, 4, 72, 100
1, 42060, Note_on_c, 4, 67, 100
1, 42060, Note_on_c, 9, 43, 100
1, 42080, Note_on_c, 9, 43, 0
1, 42080, Note_on_c, 9, 43, 100
1, 42090, Note_on_c, 2, 55, 0
1, 42090, Note_on_c, 2, 55, 100
1, 42100, Note_on_c, 9, 43, 0
1, 42100, Note_on_c, 9, 43, 100
1, 42120, Note_on_c, 9, 43, 0
1, 42120, Note_on_c, 9, 42, 0
1, 42120, Note_on_c, 4, 72, 0
1, 42120, Note_on_c, 4, 76, 0
1, 42120, Note_on_c, 4, 67, 0
1, 42120, Note_on_c, 2, 55, 0
1, 42120, Note_on_c, 2, 55, 100
1, 42120, Note_on_c, 4, 76, 100
1, 42120, Note_on_c, 4, 67, 100
1, 42120, Note_on_c, 4, 72, 100
1, 42120, Note_on_c, 9, 41, 100
1, 42120, Note_on_c, 9, 42, 100
1, 42140, Note_on_c, 9, 41, 0
1, 42140, Note_on_c, 9, 41, 100
1, 42160, Note_on_c, 9, 41, 0
1, 42160, Note_on_c, 9, 41, 100
1, 42180, Note_on_c, 9, 41, 0
1, 42180, Note_on_c, 4, 76, 0
1, 42180, Note_on_c, 4, 67, 0
1, 42180, Note_on_c, 4, 72, 0
1, 42180, Note_on_c, 4, 76, 100
1, 42180, Note_on_c, 4, 67, 100
1, 42180, Note_on_c, 4, 72, 100
1, 42180, Note_on_c, 9, 41, 100
1, 42200, Note_on_c, 9, 41, 0
1, 42200, Note_on_c, 9, 41, 100
1, 42220, Note_on_c, 9, 41, 0
1, 42220, Note_on_c, 9, 41, 100
1, 42240, Note_on_c, 9, 41, 0
1, 42240, Note_on_c, 4, 72, 0
1, 42240, Note_on_c, 1, 67, 0
1, 42240, Note_on_c, 1, 74, 0
1, 42240, Note_on_c, 2, 55, 0
1, 42240, Note_on_c, 3, 82, 0
1, 42240, Note_on_c, 0, 74, 0
1, 42240, Note_on_c, 0, 43, 0
1, 42240, Note_on_c, 4, 76, 0
1, 42240, Note_on_c, 9, 42, 0
1, 42240, Note_on_c, 0, 67, 0
1, 42240, Note_on_c, 4, 67, 0
1, 42240, Note_on_c, 0, 43, 100
1, 42240, Note_on_c, 2, 43, 100
1, 42240, Note_on_c, 9, 36, 100
1, 42240, Note_on_c, 9, 49, 100
1, 42300, Note_on_c, 9, 49, 0
1, 42300, Note_on_c, 0, 43, 0
1, 42300, Note_on_c, 2, 43, 0
1, 42300, Note_on_c, 0, 67, 100
1, 42300, Note_on_c, 0, 55, 100
1, 42300, Note_on_c, 1, 69, 100
1, 42300, Note_on_c, 1, 73, 100
1, 42300, Note_on_c, 9, 46, 100
1, 42360, Note_on_c, 9, 46, 0
1, 42360, Note_on_c, 0, 67, 0
1, 42360, Note_on_c, 0, 55, 0
1, 42360, Note_on_c, 9, 36, 0
1, 42360, Note_on_c, 1, 73, 0
1, 42360, Note_on_c, 1, 69, 0
1, 42360, Note_on_c, 0, 65, 100
1, 42360, Note_on_c, 0, 43, 100
1, 42360, Note_on_c, 1, 70, 100
1, 42360, Note_on_c, 1, 74, 100
1, 42360, Note_on_c, 2, 43, 100
1, 42360, Note_on_c, 9, 40, 100
1, 42360, Note_on_c, 9, 36, 100
1, 42360, Note_on_c, 9, 46, 100
1, 42420, Note_on_c, 9, 46, 0
1, 42420, Note_on_c, 0, 65, 0
1, 42420, Note_on_c, 2, 43, 0
1, 42420, Note_on_c, 1, 74, 0
1, 42420, Note_on_c, 1, 70, 0
1, 42420, Note_on_c, 0, 43, 0
1, 42420, Note_on_c, 0, 67, 100
1, 42420, Note_on_c, 0, 55, 100
1, 42420, Note_on_c, 9, 46, 100
1, 42480, Note_on_c, 9, 46, 0
1, 42480, Note_on_c, 0, 67, 0
1, 42480, Note_on_c, 9, 40, 0
1, 42480, Note_on_c, 9, 36, 0
1, 42480, Note_on_c, 0, 55, 0
1, 42480, Note_on_c, 0, 74, 100
1, 42480, Note_on_c, 0, 69, 100
1, 42480, Note_on_c, 0, 43, 100
1, 42480, Note_on_c, 1, 69, 100
1, 42480, Note_on_c, 2, 43, 100
1, 42480, Note_on_c, 9, 36, 100
1, 42480, Note_on_c, 9, 46, 100
1, 42510, Note_on_c, 1, 69, 0
1, 42510, Note_on_c, 0, 69, 0
1, 42510, Note_on_c, 0, 70, 100
1, 42510, Note_on_c, 1, 70, 100
1, 42540, Note_on_c, 1, 70, 0
1, 42540, Note_on_c, 9, 46, 0
1, 42540, Note_on_c, 9, 36, 0
1, 42540, Note_on_c, 2, 43, 0
1, 42540, Note_on_c, 0, 43, 0
1, 42540, Note_on_c, 0, 55, 100
1, 42540, Note_on_c, 1, 67, 100
1, 42540, Note_on_c, 9, 36, 100
1, 42540, Note_on_c, 9, 46, 100
1, 42570, Note_on_c, 9, 36, 0
1, 42570, Note_on_c, 1, 67, 0
1, 42570, Note_on_c, 0, 74, 0
1, 42570, Note_on_c, 0, 70, 0
1, 42570, Note_on_c, 0, 74, 100
1, 42570, Note_on_c, 0, 67, 100
1, 42570, Note_on_c, 1, 65, 100
1, 42570, Note_on_c, 9, 36, 100
1, 42600, Note_on_c, 9, 36, 0
1, 42600, Note_on_c, 9, 46, 0
1, 42600, Note_on_c, 0, 55, 0
1, 42600, Note_on_c, 1, 65, 0
1, 42600, Note_on_c, 0, 43, 100
1, 42600, Note_on_c, 1, 62, 100
1, 42600, Note_on_c, 2, 43, 100
1, 42600, Note_on_c, 9, 36, 100
1, 42600, Note_on_c, 9, 38, 100
1, 42600, Note_on_c, 9, 46, 100
1, 42630, Note_on_c, 1, 62, 0
1, 42630, Note_on_c, 0, 67, 0
1, 42630, Note_on_c, 0, 74, 0
1, 42630, Note_on_c, 0, 65, 100
1, 42630, Note_on_c, 1, 65, 100
1, 42660, Note_on_c, 1, 65, 0
1, 42660, Note_on_c, 9, 46, 0
1, 42660, Note_on_c, 0, 43, 0
1, 42660, Note_on_c, 2, 43, 0
1, 42660, Note_on_c, 0, 65, 0
1, 42660, Note_on_c, 0, 62, 100
1, 42660, Note_on_c, 0, 55, 100
1, 42660, Note_on_c, 1, 67, 100
1, 42660, Note_on_c, 9, 46, 100
1, 42690, Note_on_c, 0, 62, 0
1, 42720, Note_on_c, 9, 38, 0
1, 42720, Note_on_c, 0, 55, 0
1, 42720, Note_on_c, 9, 36, 0
1, 42720, Note_on_c, 9, 46, 0
1, 42720, Note_on_c, 1, 67, 0
1, 42720, Note_on_c, 0, 43, 100
1, 42720, Note_on_c, 2, 43, 100
1, 42720, Note_on_c, 9, 36, 100
1, 42720, Note_on_c, 9, 46, 100
1, 42780, Note_on_c, 9, 46, 0
1, 42780, Note_on_c, 0, 43, 0
1, 42780, Note_on_c, 2, 43, 0
1, 42780, Note_on_c, 9, 36, 0
1, 42780, Note_on_c, 0, 67, 100
1, 42780, Note_on_c, 0, 55, 100
1, 42780, Note_on_c, 1, 69, 100
1, 42780, Note_on_c, 1, 73, 100
1, 42780, Note_on_c, 9, 36, 100
1, 42780, Note_on_c, 9, 46, 100
1, 42840, Note_on_c, 9, 46, 0
1, 42840, Note_on_c, 0, 55, 0
1, 42840, Note_on_c, 1, 69, 0
1, 42840, Note_on_c, 0, 67, 0
1, 42840, Note_on_c, 9, 36, 0
1, 42840, Note_on_c, 1, 73, 0
1, 42840, Note_on_c, 0, 65, 100
1, 42840, Note_on_c, 0, 43, 100
1, 42840, Note_on_c, 1, 70, 100
1, 42840, Note_on_c, 1, 74, 100
1, 42840, Note_on_c, 2, 43, 100
1, 42840, Note_on_c, 9, 36, 100
1, 42840, Note_on_c, 9, 38, 100
1, 42840, Note_on_c, 9, 46, 100
1, 42900, Note_on_c, 9, 46, 0
1, 42900, Note_on_c, 0, 65, 0
1, 42900, Note_on_c, 2, 43, 0
1, 42900, Note_on_c, 1, 74, 0
1, 42900, Note_on_c, 1, 70, 0
1, 42900, Note_on_c, 0, 43, 0
1, 42900, Note_on_c, 0, 67, 100
1, 42900, Note_on_c, 0, 55, 100
1, 42900, Note_on_c, 9, 46, 100
1, 42960, Note_on_c, 9, 46, 0
1, 42960, Note_on_c, 0, 67, 0
1, 42960, Note_on_c, 9, 36, 0
1, 42960, Note_on_c, 9, 38, 0
1, 42960, Note_on_c, 0, 55, 0
1, 42960, Note_on_c, 0, 74, 100
1, 42960, Note_on_c, 0, 69, 100
1, 42960, Note_on_c, 0, 43, 100
1, 42960, Note_on_c, 1, 69, 100
1, 42960, Note_on_c, 2, 43, 100
1, 42960, Note_on_c, 9, 36, 100
1, 42960, Note_on_c, 9, 46, 100
1, 42990, Note_on_c, 1, 69, 0
1, 42990, Note_on_c, 0, 69, 0
1, 42990, Note_on_c, 0, 70, 100
1, 42990, Note_on_c, 1, 70, 100
1, 43020, Note_on_c, 1, 70, 0
1, 43020, Note_on_c, 9, 46, 0
1, 43020, Note_on_c, 9, 36, 0
1, 43020, Note_on_c, 2, 43, 0
1, 43020, Note_on_c, 0, 43, 0
1, 43020, Note_on_c, 0, 55, 100
1, 43020, Note_on_c, 1, 67, 100
1, 43020, Note_on_c, 9, 36, 100
1, 43020, Note_on_c, 9, 46, 100
1, 43050, Note_on_c, 9, 36, 0
1, 43050, Note_on_c, 1, 67, 0
1, 43050, Note_on_c, 0, 74, 0
1, 43050, Note_on_c, 0, 70, 0
1, 43050, Note_on_c, 0, 74, 100
1, 43050, Note_on_c, 0, 67, 100
1, 43050, Note_on_c, 1, 65, 100
1, 43050, Note_on_c, 9, 36, 100
1, 43080, Note_on_c, 9, 36, 0
1, 43080, Note_on_c, 9, 46, 0
1, 43080, Note_on_c, 0, 55, 0
1, 43080, Note_on_c, 1, 65, 0
1, 43080, Note_on_c, 0, 43, 100
1, 43080, Note_on_c, 1, 62, 100
1, 43080, Note_on_c, 2, 43, 100
1, 43080, Note_on_c, 9, 36, 100
1, 43080, Note_on_c, 9, 40, 100
1, 43080, Note_on_c, 9, 46, 100
1, 43110, Note_on_c, 1, 62, 0
1, 43110, Note_on_c, 0, 67, 0
1, 43110, Note_on_c, 0, 74, 0
1, 43110, Note_on_c, 0, 65, 100
1, 43110, Note_on_c, 1, 65, 100
1, 43140, Note_on_c, 1, 65, 0
1, 43140, Note_on_c, 9, 46, 0
1, 43140, Note_on_c, 0, 43, 0
1, 43140, Note_on_c, 2, 43, 0
1, 43140, Note_on_c, 0, 65, 0
1, 43140, Note_on_c, 0, 62, 100
1, 43140, Note_on_c, 0, 55, 100
1, 43140, Note_on_c, 1, 67, 100
1, 43140, Note_on_c, 9, 46, 100
1, 43170, Note_on_c, 0, 62, 0
1, 43200, Note_on_c, 9, 40, 0
1, 43200, Note_on_c, 0, 55, 0
1, 43200, Note_on_c, 9, 36, 0
1, 43200, Note_on_c, 9, 46, 0
1, 43200, Note_on_c, 1, 67, 0
1, 43200, Note_on_c, 0, 43, 100
1, 43200, Note_on_c, 2, 43, 100
1, 43200, Note_on_c, 3, 77, 100
1, 43200, Note_on_c, 9, 36, 100
1, 43200, Note_on_c, 9, 49, 100
1, 43260, Note_on_c, 9, 49, 0
1, 43260, Note_on_c, 3, 77, 0
1, 43260, Note_on_c, 0, 43, 0
1, 43260, Note_on_c, 2, 43, 0
1, 43260, Note_on_c, 9, 36, 0
1, 43260, Note_on_c, 0, 67, 100
1, 43260, Note_on_c, 0, 55, 100
1, 43260, Note_on_c, 1, 70, 100
1, 43260, Note_on_c, 1, 74, 100
1, 43260, Note_on_c, 3, 79, 100
1, 43260, Note_on_c, 9, 36, 100
1, 43260, Note_on_c, 9, 46, 100
1, 43320, Note_on_c, 9, 46, 0
1, 43320, Note_on_c, 3, 79, 0
1, 43320, Note_on_c, 0, 55, 0
1, 43320, Note_on_c, 1, 70, 0
1, 43320, Note_on_c, 0, 67, 0
1, 43320, Note_on_c, 9, 36, 0
1, 43320, Note_on_c, 1, 74, 0
1, 43320, Note_on_c, 0, 65, 100
1, 43320, Note_on_c, 0, 43, 100
1, 43320, Note_on_c, 1, 69, 100
1, 43320, Note_on_c, 1, 73, 100
1, 43320, Note_on_c, 2, 43, 100
1, 43320, Note_on_c, 3, 79, 100
1, 43320, Note_on_c, 9, 36, 100
1, 43320, Note_on_c, 9, 38, 100
1, 43320, Note_on_c, 9, 46, 100
1, 43380, Note_on_c, 9, 46, 0
1, 43380, Note_on_c, 0, 65, 0
1, 43380, Note_on_c, 3, 79, 0
1, 43380, Note_on_c, 1, 73, 0
1, 43380, Note_on_c, 0, 43, 0
1, 43380, Note_on_c, 1, 69, 0
1, 43380, Note_on_c, 2, 43, 0
1, 43380, Note_on_c, 0, 67, 100
1, 43380, Note_on_c, 0, 55, 100
1, 43380, Note_on_c, 1, 74, 100
1, 43380, Note_on_c, 1, 70, 100
1, 43380, Note_on_c, 3, 79, 100
1, 43380, Note_on_c, 9, 46, 100
1, 43440, Note_on_c, 9, 46, 0
1, 43440, Note_on_c, 9, 36, 0
1, 43440, Note_on_c, 1, 70, 0
1, 43440, Note_on_c, 9, 38, 0
1, 43440, Note_on_c, 0, 67, 0
1, 43440, Note_on_c, 0, 55, 0
1, 43440, Note_on_c, 1, 74, 0
1, 43440, Note_on_c, 0, 74, 100
1, 43440, Note_on_c, 0, 69, 100
1, 43440, Note_on_c, 0, 43, 100
1, 43440, Note_on_c, 1, 69, 100
1, 43440, Note_on_c, 2, 43, 100
1, 43440, Note_on_c, 9, 36, 100
1, 43440, Note_on_c, 9, 46, 100
1, 43470, Note_on_c, 1, 69, 0
1, 43470, Note_on_c, 0, 69, 0
1, 43470, Note_on_c, 0, 70, 100
1, 43470, Note_on_c, 1, 70, 100
1, 43500, Note_on_c, 1, 70, 0
1, 43500, Note_on_c, 2, 43, 0
1, 43500, Note_on_c, 9, 46, 0
1, 43500, Note_on_c, 0, 43, 0
1, 43500, Note_on_c, 9, 36, 0
1, 43500, Note_on_c, 0, 55, 100
1, 43500, Note_on_c, 1, 67, 100
1, 43500, Note_on_c, 2, 43, 100
1, 43500, Note_on_c, 5, 72, 100
1, 43500, Note_on_c, 9, 36, 100
1, 43500, Note_on_c, 9, 46, 100
1, 43530, Note_on_c, 9, 36, 0
1, 43530, Note_on_c, 2, 43, 0
1, 43530, Note_on_c, 0, 74, 0
1, 43530, Note_on_c, 1, 67, 0
1, 43530, Note_on_c, 0, 70, 0
1, 43530, Note_on_c, 0, 74, 100
1, 43530, Note_on_c, 0, 67, 100
1, 43530, Note_on_c, 1, 65, 100
1, 43530, Note_on_c, 2, 43, 100
1, 43530, Note_on_c, 9, 36, 100
1, 43560, Note_on_c, 9, 36, 0
1, 43560, Note_on_c, 3, 79, 0
1, 43560, Note_on_c, 9, 46, 0
1, 43560, Note_on_c, 2, 43, 0
1, 43560, Note_on_c, 1, 65, 0
1, 43560, Note_on_c, 0, 55, 0
1, 43560, Note_on_c, 0, 43, 100
1, 43560, Note_on_c, 1, 62, 100
1, 43560, Note_on_c, 2, 43, 100
1, 43560, Note_on_c, 9, 36, 100
1, 43560, Note_on_c, 9, 40, 100
1, 43560, Note_on_c, 9, 46, 100
1, 43590, Note_on_c, 1, 62, 0
1, 43590, Note_on_c, 0, 67, 0
1, 43590, Note_on_c, 0, 74, 0
1, 43590, Note_on_c, 0, 65, 100
1, 43590, Note_on_c, 1, 65, 100
1, 43620, Note_on_c, 1, 65, 0
1, 43620, Note_on_c, 0, 65, 0
1, 43620, Note_on_c, 2, 43, 0
1, 43620, Note_on_c, 0, 43, 0
1, 43620, Note_on_c, 9, 46, 0
1, 43620, Note_on_c, 0, 62, 100
1, 43620, Note_on_c, 0, 55, 100
1, 43620, Note_on_c, 1, 67, 100
1, 43620, Note_on_c, 9, 46, 100
1, 43650, Note_on_c, 0, 62, 0
1, 43680, Note_on_c, 1, 67, 0
1, 43680, Note_on_c, 9, 36, 0
1, 43680, Note_on_c, 9, 40, 0
1, 43680, Note_on_c, 5, 72, 0
1, 43680, Note_on_c, 9, 46, 0
1, 43680, Note_on_c, 0, 55, 0
1, 43680, Note_on_c, 0, 43, 100
1, 43680, Note_on_c, 2, 43, 100
1, 43680, Note_on_c, 3, 79, 100
1, 43680, Note_on_c, 5, 70, 100
1, 43680, Note_on_c, 9, 36, 100
1, 43680, Note_on_c, 9, 46, 100
1, 43740, Note_on_c, 9, 46, 0
1, 43740, Note_on_c, 2, 43, 0
1, 43740, Note_on_c, 0, 43, 0
1, 43740, Note_on_c, 5, 70, 0
1, 43740, Note_on_c, 0, 67, 100
1, 43740, Note_on_c, 0, 55, 100
1, 43740, Note_on_c, 1, 70, 100
1, 43740, Note_on_c, 1, 74, 100
1, 43740, Note_on_c, 5, 67, 100
1, 43740, Note_on_c, 9, 46, 100
1, 43800, Note_on_c, 9, 46, 0
1, 43800, Note_on_c, 9, 36, 0
1, 43800, Note_on_c, 1, 70, 0
1, 43800, Note_on_c, 3, 79, 0
1, 43800, Note_on_c, 0, 67, 0
1, 43800, Note_on_c, 0, 55, 0
1, 43800, Note_on_c, 1, 74, 0
1, 43800, Note_on_c, 5, 67, 0
1, 43800, Note_on_c, 0, 65, 100
1, 43800, Note_on_c, 0, 43, 100
1, 43800, Note_on_c, 1, 69, 100
1, 43800, Note_on_c, 1, 73, 100
1, 43800, Note_on_c, 2, 43, 100
1, 43800, Note_on_c, 3, 79, 100
1, 43800, Note_on_c, 9, 36, 100
1, 43800, Note_on_c, 9, 38, 100
1, 43800, Note_on_c, 9, 46, 100
1, 43860, Note_on_c, 9, 46, 0
1, 43860, Note_on_c, 0, 65, 0
1, 43860, Note_on_c, 2, 43, 0
1, 43860, Note_on_c, 1, 73, 0
1, 43860, Note_on_c, 1, 69, 0
1, 43860, Note_on_c, 0, 43, 0
1, 43860, Note_on_c, 0, 67, 100
1, 43860, Note_on_c, 0, 55, 100
1, 43860, Note_on_c, 1, 74, 100
1, 43860, Note_on_c, 1, 70, 100
1, 43860, Note_on_c, 9, 46, 100
1, 43920, Note_on_c, 9, 46, 0
1, 43920, Note_on_c, 3, 79, 0
1, 43920, Note_on_c, 0, 55, 0
1, 43920, Note_on_c, 9, 36, 0
1, 43920, Note_on_c, 9, 38, 0
1, 43920, Note_on_c, 0, 67, 0
1, 43920, Note_on_c, 1, 74, 0
1, 43920, Note_on_c, 1, 70, 0
1, 43920, Note_on_c, 0, 74, 100
1, 43920, Note_on_c, 0, 69, 100
1, 43920, Note_on_c, 0, 43, 100
1, 43920, Note_on_c, 1, 69, 100
1, 43920, Note_on_c, 2, 43, 100
1, 43920, Note_on_c, 3, 79, 100
1, 43920, Note_on_c, 9, 36, 100
1, 43920, Note_on_c, 9, 46, 100
1, 43950, Note_on_c, 1, 69, 0
1, 43950, Note_on_c, 0, 69, 0
1, 43950, Note_on_c, 0, 70, 100
1, 43950, Note_on_c, 1, 70, 100
1, 43980, Note_on_c, 1, 70, 0
1, 43980, Note_on_c, 3, 79, 0
1, 43980, Note_on_c, 9, 46, 0
1, 43980, Note_on_c, 0, 43, 0
1, 43980, Note_on_c, 2, 43, 0
1, 43980, Note_on_c, 9, 36, 0
1, 43980, Note_on_c, 0, 55, 100
1, 43980, Note_on_c, 1, 67, 100
1, 43980, Note_on_c, 2, 43, 100
1, 43980, Note_on_c, 3, 74, 100
1, 43980, Note_on_c, 5, 70, 100
1, 43980, Note_on_c, 9, 36, 100
1, 43980, Note_on_c, 9, 46, 100
1, 44010, Note_on_c, 9, 36, 0
1, 44010, Note_on_c, 2, 43, 0
1, 44010, Note_on_c, 1, 67, 0
1, 44010, Note_on_c, 0, 70, 0
1, 44010, Note_on_c, 0, 74, 0
1, 44010, Note_on_c, 0, 74, 100
1, 44010, Note_on_c, 0, 67, 100
1, 44010, Note_on_c, 1, 65, 100
1, 44010, Note_on_c, 2, 43, 100
1, 44010, Note_on_c, 9, 36, 100
1, 44040, Note_on_c, 9, 36, 0
1, 44040, Note_on_c, 0, 55, 0
1, 44040, Note_on_c, 9, 46, 0
1, 44040, Note_on_c, 5, 70, 0
1, 44040, Note_on_c, 2, 43, 0
1, 44040, Note_on_c, 1, 65, 0
1, 44040, Note_on_c, 3, 74, 0
1, 44040, Note_on_c, 0, 43, 100
1, 44040, Note_on_c, 1, 62, 100
1, 44040, Note_on_c, 2, 43, 100
1, 44040, Note_on_c, 5, 72, 100
1, 44040, Note_on_c, 9, 36, 100
1, 44040, Note_on_c, 9, 40, 100
1, 44040, Note_on_c, 9, 46, 100
1, 44070, Note_on_c, 1, 62, 0
1, 44070, Note_on_c, 0, 67, 0
1, 44070, Note_on_c, 0, 74, 0
1, 44070, Note_on_c, 0, 65, 100
1, 44070, Note_on_c, 1, 65, 100
1, 44100, Note_on_c, 1, 65, 0
1, 44100, Note_on_c, 0, 65, 0
1, 44100, Note_on_c, 0, 43, 0
1, 44100, Note_on_c, 2, 43, 0
1, 44100, Note_on_c, 9, 46, 0
1, 44100, Note_on_c, 0, 62, 100
1, 44100, Note_on_c, 0, 55, 100
1, 44100, Note_on_c, 1, 67, 100
1, 44100, Note_on_c, 9, 46, 100
1, 44130, Note_on_c, 0, 62, 0
1, 44130, Note_on_c, 3, 77, 100
1, 44160, Note_on_c, 3, 77, 0
1, 44160, Note_on_c, 9, 46, 0
1, 44160, Note_on_c, 9, 36, 0
1, 44160, Note_on_c, 9, 40, 0
1, 44160, Note_on_c, 5, 72, 0
1, 44160, Note_on_c, 1, 67, 0
1, 44160, Note_on_c, 0, 55, 0
1, 44160, Note_on_c, 0, 43, 100
1, 44160, Note_on_c, 2, 43, 100
1, 44160, Note_on_c, 3, 79, 100
1, 44160, Note_on_c, 5, 72, 100
1, 44160, Note_on_c, 9, 36, 100
1, 44160, Note_on_c, 9, 46, 100
1, 44220, Note_on_c, 9, 46, 0
1, 44220, Note_on_c, 2, 43, 0
1, 44220, Note_on_c, 3, 79, 0
1, 44220, Note_on_c, 0, 43, 0
1, 44220, Note_on_c, 9, 36, 0
1, 44220, Note_on_c, 5, 72, 0
1, 44220, Note_on_c, 0, 67, 100
1, 44220, Note_on_c, 0, 55, 100
1, 44220, Note_on_c, 1, 70, 100
1, 44220, Note_on_c, 1, 74, 100
1, 44220, Note_on_c, 3, 79, 100
1, 44220, Note_on_c, 9, 36, 100
1, 44220, Note_on_c, 9, 46, 100
1, 44280, Note_on_c, 9, 46, 0
1, 44280, Note_on_c, 3, 79, 0
1, 44280, Note_on_c, 0, 55, 0
1, 44280, Note_on_c, 1, 70, 0
1, 44280, Note_on_c, 0, 67, 0
1, 44280, Note_on_c, 9, 36, 0
1, 44280, Note_on_c, 1, 74, 0
1, 44280, Note_on_c, 0, 65, 100
1, 44280, Note_on_c, 0, 43, 100
1, 44280, Note_on_c, 1, 69, 100
1, 44280, Note_on_c, 1, 73, 100
1, 44280, Note_on_c, 2, 43, 100
1, 44280, Note_on_c, 3, 79, 100
1, 44280, Note_on_c, 9, 36, 100
1, 44280, Note_on_c, 9, 38, 100
1, 44280, Note_on_c, 9, 46, 100
1, 44340, Note_on_c, 9, 46, 0
1, 44340, Note_on_c, 0, 65, 0
1, 44340, Note_on_c, 3, 79, 0
1, 44340, Note_on_c, 1, 73, 0
1, 44340, Note_on_c, 0, 43, 0
1, 44340, Note_on_c, 1, 69, 0
1, 44340, Note_on_c, 2, 43, 0
1, 44340, Note_on_c, 0, 67, 100
1, 44340, Note_on_c, 0, 55, 100
1, 44340, Note_on_c, 1, 74, 100
1, 44340, Note_on_c, 1, 70, 100
1, 44340, Note_on_c, 3, 79, 100
1, 44340, Note_on_c, 9, 46, 100
1, 44370, Note_on_c, 3, 79, 0
1, 44370, Note_on_c, 3, 82, 100
1, 44400, Note_on_c, 9, 36, 0
1, 44400, Note_on_c, 9, 46, 0
1, 44400, Note_on_c, 1, 74, 0
1, 44400, Note_on_c, 9, 38, 0
1, 44400, Note_on_c, 0, 67, 0
1, 44400, Note_on_c, 0, 55, 0
1, 44400, Note_on_c, 1, 70, 0
1, 44400, Note_on_c, 0, 74, 100
1, 44400, Note_on_c, 0, 69, 100
1, 44400, Note_on_c, 0, 43, 100
1, 44400, Note_on_c, 1, 69, 100
1, 44400, Note_on_c, 2, 43, 100
1, 44400, Note_on_c, 9, 36, 100
1, 44400, Note_on_c, 9, 46, 100
1, 44430, Note_on_c, 1, 69, 0
1, 44430, Note_on_c, 0, 69, 0
1, 44430, Note_on_c, 0, 70, 100
1, 44430, Note_on_c, 1, 70, 100
1, 44460, Note_on_c, 1, 70, 0
1, 44460, Note_on_c, 2, 43, 0
1, 44460, Note_on_c, 9, 46, 0
1, 44460, Note_on_c, 3, 82, 0
1, 44460, Note_on_c, 0, 43, 0
1, 44460, Note_on_c, 9, 36, 0
1, 44460, Note_on_c, 0, 55, 100
1, 44460, Note_on_c, 1, 67, 100
1, 44460, Note_on_c, 2, 43, 100
1, 44460, Note_on_c, 3, 79, 100
1, 44460, Note_on_c, 9, 36, 100
1, 44460, Note_on_c, 9, 46, 100
1, 44490, Note_on_c, 9, 36, 0
1, 44490, Note_on_c, 1, 67, 0
1, 44490, Note_on_c, 0, 70, 0
1, 44490, Note_on_c, 0, 74, 0
1, 44490, Note_on_c, 2, 43, 0
1, 44490, Note_on_c, 0, 74, 100
1, 44490, Note_on_c, 0, 67, 100
1, 44490, Note_on_c, 1, 65, 100
1, 44490, Note_on_c, 2, 43, 100
1, 44490, Note_on_c, 9, 36, 100
1, 44520, Note_on_c, 9, 36, 0
1, 44520, Note_on_c, 2, 43, 0
1, 44520, Note_on_c, 9, 46, 0
1, 44520, Note_on_c, 3, 79, 0
1, 44520, Note_on_c, 0, 55, 0
1, 44520, Note_on_c, 1, 65, 0
1, 44520, Note_on_c, 0, 43, 100
1, 44520, Note_on_c, 1, 62, 100
1, 44520, Note_on_c, 2, 43, 100
1, 44520, Note_on_c, 3, 79, 100
1, 44520, Note_on_c, 9, 36, 100
1, 44520, Note_on_c, 9, 40, 100
1, 44520, Note_on_c, 9, 46, 100
1, 44550, Note_on_c, 1, 62, 0
1, 44550, Note_on_c, 0, 74, 0
1, 44550, Note_on_c, 0, 67, 0
1, 44550, Note_on_c, 0, 65, 100
1, 44550, Note_on_c, 1, 65, 100
1, 44580, Note_on_c, 1, 65, 0
1, 44580, Note_on_c, 0, 65, 0
1, 44580, Note_on_c, 0, 43, 0
1, 44580, Note_on_c, 2, 43, 0
1, 44580, Note_on_c, 9, 46, 0
1, 44580, Note_on_c, 0, 62, 100
1, 44580, Note_on_c, 0, 55, 100
1, 44580, Note_on_c, 1, 67, 100
1, 44580, Note_on_c, 9, 46, 100
1, 44610, Note_on_c, 0, 62, 0
1, 44640, Note_on_c, 1, 67, 0
1, 44640, Note_on_c, 9, 36, 0
1, 44640, Note_on_c, 9, 40, 0
1, 44640, Note_on_c, 3, 79, 0
1, 44640, Note_on_c, 9, 46, 0
1, 44640, Note_on_c, 0, 55, 0
1, 44640, Note_on_c, 0, 43, 100
1, 44640, Note_on_c, 2, 43, 100
1, 44640, Note_on_c, 3, 77, 100
1, 44640, Note_on_c, 9, 36, 100
1, 44640, Note_on_c, 9, 42, 100
1, 44670, Note_on_c, 3, 77, 0
1, 44670, Note_on_c, 3, 79, 100
1, 44700, Note_on_c, 3, 79, 0
1, 44700, Note_on_c, 9, 42, 0
1, 44700, Note_on_c, 0, 43, 0
1, 44700, Note_on_c, 2, 43, 0
1, 44700, Note_on_c, 9, 36, 0
1, 44700, Note_on_c, 0, 67, 100
1, 44700, Note_on_c, 0, 55, 100
1, 44700, Note_on_c, 1, 70, 100
1, 44700, Note_on_c, 1, 74, 100
1, 44700, Note_on_c, 3, 79, 100
1, 44700, Note_on_c, 9, 36, 100
1, 44700, Note_on_c, 9, 46, 100
1, 44730, Note_on_c, 3, 79, 0
1, 44730, Note_on_c, 3, 79, 100
1, 44760, Note_on_c, 9, 36, 0
1, 44760, Note_on_c, 1, 74, 0
1, 44760, Note_on_c, 0, 55, 0
1, 44760, Note_on_c, 1, 70, 0
1, 44760, Note_on_c, 0, 67, 0
1, 44760, Note_on_c, 9, 46, 0
1, 44760, Note_on_c, 0, 65, 100
1, 44760, Note_on_c, 0, 43, 100
1, 44760, Note_on_c, 1, 69, 100
1, 44760, Note_on_c, 1, 73, 100
1, 44760, Note_on_c, 2, 43, 100
1, 44760, Note_on_c, 9, 36, 100
1, 44760, Note_on_c, 9, 38, 100
1, 44760, Note_on_c, 9, 46, 100
1, 44790, Note_on_c, 3, 79, 0
1, 44790, Note_on_c, 3, 79, 100
1, 44820, Note_on_c, 0, 65, 0
1, 44820, Note_on_c, 9, 46, 0
1, 44820, Note_on_c, 1, 73, 0
1, 44820, Note_on_c, 1, 69, 0
1, 44820, Note_on_c, 0, 43, 0
1, 44820, Note_on_c, 2, 43, 0
1, 44820, Note_on_c, 0, 67, 100
1, 44820, Note_on_c, 0, 55, 100
1, 44820, Note_on_c, 1, 74, 100
1, 44820, Note_on_c, 1, 70, 100
1, 44820, Note_on_c, 9, 46, 100
1, 44880, Note_on_c, 9, 46, 0
1, 44880, Note_on_c, 9, 36, 0
1, 44880, Note_on_c, 0, 55, 0
1, 44880, Note_on_c, 9, 38, 0
1, 44880, Note_on_c, 3, 79, 0
1, 44880, Note_on_c, 0, 67, 0
1, 44880, Note_on_c, 1, 74, 0
1, 44880, Note_on_c, 1, 70, 0
1, 44880, Note_on_c, 0, 74, 100
1, 44880, Note_on_c, 0, 69, 100
1, 44880, Note_on_c, 0, 43, 100
1, 44880, Note_on_c, 1, 69, 100
1, 44880, Note_on_c, 2, 43, 100
1, 44880, Note_on_c, 3, 79, 100
1, 44880, Note_on_c, 5, 72, 100
1, 44880, Note_on_c, 9, 36, 100
1, 44880, Note_on_c, 9, 46, 100
1, 44910, Note_on_c, 5, 72, 0
1, 44910, Note_on_c, 0, 69, 0
1, 44910, Note_on_c, 1, 69, 0
1, 44910, Note_on_c, 0, 70, 100
1, 44910, Note_on_c, 1, 70, 100
1, 44910, Note_on_c, 5, 70, 100
1, 44940, Note_on_c, 5, 70, 0
1, 44940, Note_on_c, 9, 46, 0
1, 44940, Note_on_c, 1, 70, 0
1, 44940, Note_on_c, 9, 36, 0
1, 44940, Note_on_c, 2, 43, 0
1, 44940, Note_on_c, 0, 43, 0
1, 44940, Note_on_c, 0, 55, 100
1, 44940, Note_on_c, 1, 67, 100
1, 44940, Note_on_c, 2, 43, 100
1, 44940, Note_on_c, 5, 72, 100
1, 44940, Note_on_c, 9, 36, 100
1, 44940, Note_on_c, 9, 46, 100
1, 44970, Note_on_c, 9, 36, 0
1, 44970, Note_on_c, 5, 72, 0
1, 44970, Note_on_c, 0, 74, 0
1, 44970, Note_on_c, 1, 67, 0
1, 44970, Note_on_c, 0, 70, 0
1, 44970, Note_on_c, 2, 43, 0
1, 44970, Note_on_c, 0, 74, 100
1, 44970, Note_on_c, 0, 67, 100
1, 44970, Note_on_c, 1, 65, 100
1, 44970, Note_on_c, 2, 43, 100
1, 44970, Note_on_c, 5, 74, 100
1, 44970, Note_on_c, 9, 36, 100
1, 45000, Note_on_c, 9, 36, 0
1, 45000, Note_on_c, 3, 79, 0
1, 45000, Note_on_c, 5, 74, 0
1, 45000, Note_on_c, 9, 46, 0
1, 45000, Note_on_c, 0, 55, 0
1, 45000, Note_on_c, 2, 43, 0
1, 45000, Note_on_c, 1, 65, 0
1, 45000, Note_on_c, 0, 43, 100
1, 45000, Note_on_c, 1, 62, 100
1, 45000, Note_on_c, 2, 43, 100
1, 45000, Note_on_c, 3, 77, 100
1, 45000, Note_on_c, 5, 72, 100
1, 45000, Note_on_c, 9, 36, 100
1, 45000, Note_on_c, 9, 40, 100
1, 45000, Note_on_c, 9, 46, 100
1, 45020, Note_on_c, 3, 77, 0
1, 45020, Note_on_c, 3, 79, 100
1, 45030, Note_on_c, 0, 74, 0
1, 45030, Note_on_c, 0, 67, 0
1, 45030, Note_on_c, 1, 62, 0
1, 45030, Note_on_c, 0, 65, 100
1, 45030, Note_on_c, 1, 65, 100
1, 45040, Note_on_c, 3, 79, 0
1, 45040, Note_on_c, 3, 79, 100
1, 45060, Note_on_c, 3, 79, 0
1, 45060, Note_on_c, 0, 65, 0
1, 45060, Note_on_c, 2, 43, 0
1, 45060, Note_on_c, 5, 72, 0
1, 45060, Note_on_c, 1, 65, 0
1, 45060, Note_on_c, 9, 46, 0
1, 45060, Note_on_c, 0, 43, 0
1, 45060, Note_on_c, 0, 62, 100
1, 45060, Note_on_c, 0, 55, 100
1, 45060, Note_on_c, 1, 67, 100
1, 45060, Note_on_c, 3, 79, 100
1, 45060, Note_on_c, 5, 70, 100
1, 45060, Note_on_c, 9, 46, 100
1, 45090, Note_on_c, 0, 62, 0
1, 45120, Note_on_c, 9, 40, 0
1, 45120, Note_on_c, 3, 79, 0
1, 45120, Note_on_c, 9, 36, 0
1, 45120, Note_on_c, 0, 55, 0
1, 45120, Note_on_c, 1, 67, 0
1, 45120, Note_on_c, 5, 70, 0
1, 45120, Note_on_c, 9, 46, 0
1, 45120, Note_on_c, 0, 43, 100
1, 45120, Note_on_c, 2, 43, 100
1, 45120, Note_on_c, 3, 82, 100
1, 45120, Note_on_c, 9, 36, 100
1, 45120, Note_on_c, 9, 49, 100
1, 45180, Note_on_c, 9, 49, 0
1, 45180, Note_on_c, 2, 43, 0
1, 45180, Note_on_c, 0, 43, 0
1, 45180, Note_on_c, 9, 36, 0
1, 45180, Note_on_c, 0, 67, 100
1, 45180, Note_on_c, 0, 55, 100
1, 45180, Note_on_c, 1, 70, 100
1, 45180, Note_on_c, 1, 74, 100
1, 45180, Note_on_c, 9, 36, 100
1, 45180, Note_on_c, 9, 46, 100
1, 45240, Note_on_c, 9, 46, 0
1, 45240, Note_on_c, 1, 74, 0
1, 45240, Note_on_c, 0, 67, 0
1, 45240, Note_on_c, 0, 55, 0
1, 45240, Note_on_c, 3, 82, 0
1, 45240, Note_on_c, 9, 36, 0
1, 45240, Note_on_c, 1, 70, 0
1, 45240, Note_on_c, 0, 65, 100
1, 45240, Note_on_c, 0, 43, 100
1, 45240, Note_on_c, 1, 69, 100
1, 45240, Note_on_c, 1, 73, 100
1, 45240, Note_on_c, 2, 43, 100
1, 45240, Note_on_c, 9, 36, 100
1, 45240, Note_on_c, 9, 38, 100
1, 45240, Note_on_c, 9, 46, 100
1, 45300, Note_on_c, 9, 46, 0
1, 45300, Note_on_c, 0, 65, 0
1, 45300, Note_on_c, 2, 43, 0
1, 45300, Note_on_c, 1, 73, 0
1, 45300, Note_on_c, 1, 69, 0
1, 45300, Note_on_c, 0, 43, 0
1, 45300, Note_on_c, 0, 67, 100
1, 45300, Note_on_c, 0, 55, 100
1, 45300, Note_on_c, 1, 74, 100
1, 45300, Note_on_c, 1, 70, 100
1, 45300, Note_on_c, 9, 46, 100
1, 45360, Note_on_c, 9, 46, 0
1, 45360, Note_on_c, 1, 74, 0
1, 45360, Note_on_c, 9, 38, 0
1, 45360, Note_on_c, 0, 67, 0
1, 45360, Note_on_c, 9, 36, 0
1, 45360, Note_on_c, 1, 70, 0
1, 45360, Note_on_c, 0, 55, 0
1, 45360, Note_on_c, 0, 74, 100
1, 45360, Note_on_c, 0, 69, 100
1, 45360, Note_on_c, 0, 43, 100
1, 45360, Note_on_c, 1, 69, 100
1, 45360, Note_on_c, 2, 43, 100
1, 45360, Note_on_c, 9, 36, 100
1, 45360, Note_on_c, 9, 46, 100
1, 45390, Note_on_c, 1, 69, 0
1, 45390, Note_on_c, 0, 69, 0
1, 45390, Note_on_c, 0, 70, 100
1, 45390, Note_on_c, 1, 70, 100
1, 45420, Note_on_c, 1, 70, 0
1, 45420, Note_on_c, 9, 46, 0
1, 45420, Note_on_c, 9, 36, 0
1, 45420, Note_on_c, 2, 43, 0
1, 45420, Note_on_c, 0, 43, 0
1, 45420, Note_on_c, 0, 55, 100
1, 45420, Note_on_c, 1, 67, 100
1, 45420, Note_on_c, 2, 43, 100
1, 45420, Note_on_c, 9, 36, 100
1, 45420, Note_on_c, 9, 46, 100
1, 45450, Note_on_c, 9, 36, 0
1, 45450, Note_on_c, 1, 67, 0
1, 45450, Note_on_c, 0, 70, 0
1, 45450, Note_on_c, 0, 74, 0
1, 45450, Note_on_c, 2, 43, 0
1, 45450, Note_on_c, 0, 74, 100
1, 45450, Note_on_c, 0, 67, 100
1, 45450, Note_on_c, 1, 65, 100
1, 45450, Note_on_c, 2, 43, 100
1, 45450, Note_on_c, 9, 36, 100
1, 45480, Note_on_c, 9, 36, 0
1, 45480, Note_on_c, 1, 65, 0
1, 45480, Note_on_c, 9, 46, 0
1, 45480, Note_on_c, 0, 55, 0
1, 45480, Note_on_c, 2, 43, 0
1, 45480, Note_on_c, 0, 43, 100
1, 45480, Note_on_c, 1, 62, 100
1, 45480, Note_on_c, 2, 43, 100
1, 45480, Note_on_c, 3, 77, 100
1, 45480, Note_on_c, 9, 36, 100
1, 45480, Note_on_c, 9, 40, 100
1, 45480, Note_on_c, 9, 46, 100
1, 45500, Note_on_c, 3, 77, 0
1, 45500, Note_on_c, 3, 79, 100
1, 45510, Note_on_c, 0, 67, 0
1, 45510, Note_on_c, 0, 74, 0
1, 45510, Note_on_c, 1, 62, 0
1, 45510, Note_on_c, 0, 65, 100
1, 45510, Note_on_c, 1, 65, 100
1, 45520, Note_on_c, 3, 79, 0
1, 45520, Note_on_c, 3, 79, 100
1, 45540, Note_on_c, 3, 79, 0
1, 45540, Note_on_c, 1, 65, 0
1, 45540, Note_on_c, 0, 43, 0
1, 45540, Note_on_c, 9, 46, 0
1, 45540, Note_on_c, 2, 43, 0
1, 45540, Note_on_c, 0, 65, 0
1, 45540, Note_on_c, 0, 62, 100
1, 45540, Note_on_c, 0, 55, 100
1, 45540, Note_on_c, 1, 67, 100
1, 45540, Note_on_c, 3, 79, 100
1, 45540, Note_on_c, 9, 46, 100
1, 45570, Note_on_c, 0, 62, 0
1, 45600, Note_on_c, 3, 79, 0
1, 45600, Note_on_c, 9, 36, 0
1, 45600, Note_on_c, 0, 55, 0
1, 45600, Note_on_c, 9, 40, 0
1, 45600, Note_on_c, 9, 46, 0
1, 45600, Note_on_c, 1, 67, 0
1, 45600, Note_on_c, 0, 43, 100
1, 45600, Note_on_c, 2, 43, 100
1, 45600, Note_on_c, 3, 79, 100
1, 45600, Note_on_c, 9, 36, 100
1, 45600, Note_on_c, 9, 46, 100
1, 45660, Note_on_c, 9, 46, 0
1, 45660, Note_on_c, 2, 43, 0
1, 45660, Note_on_c, 0, 43, 0
1, 45660, Note_on_c, 9, 36, 0
1, 45660, Note_on_c, 0, 67, 100
1, 45660, Note_on_c, 0, 55, 100
1, 45660, Note_on_c, 1, 70, 100
1, 45660, Note_on_c, 1, 74, 100
1, 45660, Note_on_c, 9, 36, 100
1, 45660, Note_on_c, 9, 46, 100
1, 45720, Note_on_c, 9, 46, 0
1, 45720, Note_on_c, 1, 74, 0
1, 45720, Note_on_c, 0, 67, 0
1, 45720, Note_on_c, 0, 55, 0
1, 45720, Note_on_c, 3, 79, 0
1, 45720, Note_on_c, 9, 36, 0
1, 45720, Note_on_c, 1, 70, 0
1, 45720, Note_on_c, 0, 65, 100
1, 45720, Note_on_c, 0, 43, 100
1, 45720, Note_on_c, 1, 69, 100
1, 45720, Note_on_c, 1, 73, 100
1, 45720, Note_on_c, 2, 43, 100
1, 45720, Note_on_c, 9, 36, 100
1, 45720, Note_on_c, 9, 38, 100
1, 45720, Note_on_c, 9, 46, 100
1, 45780, Note_on_c, 9, 46, 0
1, 45780, Note_on_c, 0, 65, 0
1, 45780, Note_on_c, 2, 43, 0
1, 45780, Note_on_c, 1, 73, 0
1, 45780, Note_on_c, 1, 69, 0
1, 45780, Note_on_c, 0, 43, 0
1, 45780, Note_on_c, 0, 67, 100
1, 45780, Note_on_c, 0, 55, 100
1, 45780, Note_on_c, 1, 74, 100
1, 45780, Note_on_c, 1, 70, 100
1, 45780, Note_on_c, 9, 46, 100
1, 45840, Note_on_c, 9, 46, 0
1, 45840, Note_on_c, 1, 74, 0
1, 45840, Note_on_c, 9, 38, 0
1, 45840, Note_on_c, 0, 67, 0
1, 45840, Note_on_c, 9, 36, 0
1, 45840, Note_on_c, 1, 70, 0
1, 45840, Note_on_c, 0, 55, 0
1, 45840, Note_on_c, 0, 74, 100
1, 45840, Note_on_c, 0, 69, 100
1, 45840, Note_on_c, 0, 43, 100
1, 45840, Note_on_c, 1, 69, 100
1, 45840, Note_on_c, 2, 43, 100
1, 45840, Note_on_c, 9, 36, 100
1, 45840, Note_on_c, 9, 46, 100
1, 45870, Note_on_c, 1, 69, 0
1, 45870, Note_on_c, 0, 69, 0
1, 45870, Note_on_c, 0, 70, 100
1, 45870, Note_on_c, 1, 70, 100
1, 45900, Note_on_c, 1, 70, 0
1, 45900, Note_on_c, 9, 46, 0
1, 45900, Note_on_c, 9, 36, 0
1, 45900, Note_on_c, 2, 43, 0
1, 45900, Note_on_c, 0, 43, 0
1, 45900, Note_on_c, 0, 55, 100
1, 45900, Note_on_c, 1, 67, 100
1, 45900, Note_on_c, 2, 43, 100
1, 45900, Note_on_c, 9, 36, 100
1, 45900, Note_on_c, 9, 46, 100
1, 45930, Note_on_c, 9, 36, 0
1, 45930, Note_on_c, 1, 67, 0
1, 45930, Note_on_c, 0, 70, 0
1, 45930, Note_on_c, 0, 74, 0
1, 45930, Note_on_c, 2, 43, 0
1, 45930, Note_on_c, 0, 74, 100
1, 45930, Note_on_c, 0, 67, 100
1, 45930, Note_on_c, 1, 65, 100
1, 45930, Note_on_c, 2, 43, 100
1, 45930, Note_on_c, 9, 36, 100
1, 45960, Note_on_c, 9, 36, 0
1, 45960, Note_on_c, 1, 65, 0
1, 45960, Note_on_c, 9, 46, 0
1, 45960, Note_on_c, 0, 55, 0
1, 45960, Note_on_c, 2, 43, 0
1, 45960, Note_on_c, 0, 43, 100
1, 45960, Note_on_c, 1, 62, 100
1, 45960, Note_on_c, 2, 43, 100
1, 45960, Note_on_c, 3, 77, 100
1, 45960, Note_on_c, 9, 36, 100
1, 45960, Note_on_c, 9, 40, 100
1, 45960, Note_on_c, 9, 46, 100
1, 45980, Note_on_c, 3, 77, 0
1, 45980, Note_on_c, 3, 79, 100
1, 45990, Note_on_c, 0, 67, 0
1, 45990, Note_on_c, 0, 74, 0
1, 45990, Note_on_c, 1, 62, 0
1, 45990, Note_on_c, 0, 65, 100
1, 45990, Note_on_c, 1, 65, 100
1, 46000, Note_on_c, 3, 79, 0
1, 46000, Note_on_c, 3, 79, 100
1, 46020, Note_on_c, 3, 79, 0
1, 46020, Note_on_c, 1, 65, 0
1, 46020, Note_on_c, 0, 43, 0
1, 46020, Note_on_c, 9, 46, 0
1, 46020, Note_on_c, 2, 43, 0
1, 46020, Note_on_c, 0, 65, 0
1, 46020, Note_on_c, 0, 62, 100
1, 46020, Note_on_c, 0, 55, 100
1, 46020, Note_on_c, 1, 67, 100
1, 46020, Note_on_c, 3, 79, 100
1, 46020, Note_on_c, 9, 46, 100
1, 46050, Note_on_c, 0, 62, 0
1, 46080, Note_on_c, 3, 79, 0
1, 46080, Note_on_c, 9, 36, 0
1, 46080, Note_on_c, 0, 55, 0
1, 46080, Note_on_c, 9, 40, 0
1, 46080, Note_on_c, 9, 46, 0
1, 46080, Note_on_c, 1, 67, 0
1, 46080, Note_on_c, 0, 46, 100
1, 46080, Note_on_c, 0, 65, 100
1, 46080, Note_on_c, 0, 74, 100
1, 46080, Note_on_c, 0, 70, 100
1, 46080, Note_on_c, 1, 74, 100
1, 46080, Note_on_c, 2, 46, 100
1, 46080, Note_on_c, 5, 74, 100
1, 46080, Note_on_c, 9, 36, 100
1, 46080, Note_on_c, 9, 49, 100
1, 46110, Note_on_c, 5, 74, 0
1, 46110, Note_on_c, 1, 74, 0
1, 46110, Note_on_c, 1, 74, 100
1, 46110, Note_on_c, 5, 74, 100
1, 46140, Note_on_c, 9, 49, 0
1, 46140, Note_on_c, 9, 36, 0
1, 46140, Note_on_c, 9, 36, 100
1, 46140, Note_on_c, 9, 46, 100
1, 46170, Note_on_c, 1, 82, 100
1, 46170, Note_on_c, 5, 82, 100
1, 46200, Note_on_c, 9, 46, 0
1, 46200, Note_on_c, 9, 36, 0
1, 46200, Note_on_c, 9, 40, 100
1, 46200, Note_on_c, 9, 46, 100
1, 46230, Note_on_c, 1, 82, 0
1, 46230, Note_on_c, 5, 82, 0
1, 46230, Note_on_c, 1, 82, 100
1, 46230, Note_on_c, 5, 82, 100
1, 46260, Note_on_c, 5, 82, 0
1, 46260, Note_on_c, 0, 46, 0
1, 46260, Note_on_c, 9, 46, 0
1, 46260, Note_on_c, 1, 82, 0
1, 46260, Note_on_c, 9, 40, 0
1, 46260, Note_on_c, 0, 46, 100
1, 46260, Note_on_c, 1, 74, 100
1, 46260, Note_on_c, 5, 74, 100
1, 46260, Note_on_c, 9, 36, 100
1, 46260, Note_on_c, 9, 46, 100
1, 46320, Note_on_c, 9, 46, 0
1, 46320, Note_on_c, 1, 74, 0
1, 46320, Note_on_c, 1, 74, 0
1, 46320, Note_on_c, 5, 74, 0
1, 46320, Note_on_c, 0, 70, 0
1, 46320, Note_on_c, 0, 65, 0
1, 46320, Note_on_c, 0, 74, 0
1, 46320, Note_on_c, 5, 74, 0
1, 46320, Note_on_c, 0, 46, 0
1, 46320, Note_on_c, 2, 46, 0
1, 46320, Note_on_c, 9, 36, 0
1, 46320, Note_on_c, 0, 48, 100
1, 46320, Note_on_c, 0, 76, 100
1, 46320, Note_on_c, 0, 72, 100
1, 46320, Note_on_c, 0, 67, 100
1, 46320, Note_on_c, 1, 74, 100
1, 46320, Note_on_c, 2, 48, 100
1, 46320, Note_on_c, 5, 74, 100
1, 46320, Note_on_c, 9, 36, 100
1, 46320, Note_on_c, 9, 49, 100
1, 46350, Note_on_c, 5, 74, 0
1, 46350, Note_on_c, 1, 74, 0
1, 46350, Note_on_c, 1, 76, 100
1, 46350, Note_on_c, 5, 76, 100
1, 46380, Note_on_c, 9, 49, 0
1, 46380, Note_on_c, 9, 36, 0
1, 46380, Note_on_c, 9, 36, 100
1, 46380, Note_on_c, 9, 46, 100
1, 46410, Note_on_c, 1, 84, 100
1, 46410, Note_on_c, 5, 84, 100
1, 46440, Note_on_c, 9, 46, 0
1, 46440, Note_on_c, 9, 36, 0
1, 46440, Note_on_c, 1, 76, 0
1, 46440, Note_on_c, 5, 76, 0
1, 46440, Note_on_c, 1, 76, 100
1, 46440, Note_on_c, 5, 76, 100
1, 46440, Note_on_c, 9, 46, 100
1, 46470, Note_on_c, 1, 84, 0
1, 46470, Note_on_c, 5, 84, 0
1, 46470, Note_on_c, 1, 84, 100
1, 46470, Note_on_c, 5, 84, 100
1, 46470, Note_on_c, 9, 40, 100
1, 46500, Note_on_c, 9, 40, 0
1, 46500, Note_on_c, 9, 46, 0
1, 46500, Note_on_c, 5, 84, 0
1, 46500, Note_on_c, 1, 84, 0
1, 46500, Note_on_c, 0, 48, 0
1, 46500, Note_on_c, 2, 48, 0
1, 46500, Note_on_c, 0, 48, 100
1, 46500, Note_on_c, 1, 76, 100
1, 46500, Note_on_c, 2, 43, 100
1, 46500, Note_on_c, 5, 76, 100
1, 46500, Note_on_c, 9, 40, 100
1, 46530, Note_on_c, 9, 40, 0
1, 46530, Note_on_c, 9, 38, 100
1, 46560, Note_on_c, 9, 38, 0
1, 46560, Note_on_c, 2, 43, 0
1, 46560, Note_on_c, 5, 76, 0
1, 46560, Note_on_c, 1, 76, 0
1, 46560, Note_on_c, 0, 72, 0
1, 46560, Note_on_c, 0, 67, 0
1, 46560, Note_on_c, 5, 76, 0
1, 46560, Note_on_c, 1, 76, 0
1, 46560, Note_on_c, 0, 48, 0
1, 46560, Note_on_c, 0, 76, 0
1, 46560, Note_on_c, 0, 43, 100
1, 46560, Note_on_c, 2, 43, 100
1, 46560, Note_on_c, 9, 36, 100
1, 46560, Note_on_c, 9, 46, 100
1, 46620, Note_on_c, 9, 46, 0
1, 46620, Note_on_c, 0, 43, 0
1, 46620, Note_on_c, 2, 43, 0
1, 46620, Note_on_c, 9, 36, 0
1, 46620, Note_on_c, 0, 67, 100
1, 46620, Note_on_c, 0, 55, 100
1, 46620, Note_on_c, 1, 86, 100
1, 46620, Note_on_c, 1, 81, 100
1, 46620, Note_on_c, 5, 86, 100
1, 46620, Note_on_c, 5, 81, 100
1, 46620, Note_on_c, 9, 36, 100
1, 46620, Note_on_c, 9, 46, 100
1, 46680, Note_on_c, 9, 46, 0
1, 46680, Note_on_c, 0, 67, 0
1, 46680, Note_on_c, 5, 86, 0
1, 46680, Note_on_c, 0, 55, 0
1, 46680, Note_on_c, 1, 86, 0
1, 46680, Note_on_c, 1, 81, 0
1, 46680, Note_on_c, 5, 81, 0
1, 46680, Note_on_c, 9, 36, 0
1, 46680, Note_on_c, 0, 65, 100
1, 46680, Note_on_c, 0, 43, 100
1, 46680, Note_on_c, 1, 86, 100
1, 46680, Note_on_c, 1, 82, 100
1, 46680, Note_on_c, 2, 43, 100
1, 46680, Note_on_c, 5, 86, 100
1, 46680, Note_on_c, 5, 82, 100
1, 46680, Note_on_c, 9, 36, 100
1, 46680, Note_on_c, 9, 38, 100
1, 46680, Note_on_c, 9, 46, 100
1, 46740, Note_on_c, 9, 46, 0
1, 46740, Note_on_c, 1, 86, 0
1, 46740, Note_on_c, 5, 82, 0
1, 46740, Note_on_c, 0, 65, 0
1, 46740, Note_on_c, 2, 43, 0
1, 46740, Note_on_c, 0, 43, 0
1, 46740, Note_on_c, 1, 82, 0
1, 46740, Note_on_c, 5, 86, 0
1, 46740, Note_on_c, 0, 67, 100
1, 46740, Note_on_c, 0, 55, 100
1, 46740, Note_on_c, 9, 46, 100
1, 46800, Note_on_c, 9, 46, 0
1, 46800, Note_on_c, 0, 67, 0
1, 46800, Note_on_c, 9, 36, 0
1, 46800, Note_on_c, 9, 38, 0
1, 46800, Note_on_c, 0, 55, 0
1, 46800, Note_on_c, 0, 74, 100
1, 46800, Note_on_c, 0, 69, 100
1, 46800, Note_on_c, 0, 43, 100
1, 46800, Note_on_c, 1, 81, 100
1, 46800, Note_on_c, 2, 43, 100
1, 46800, Note_on_c, 5, 81, 100
1, 46800, Note_on_c, 9, 36, 100
1, 46800, Note_on_c, 9, 46, 100
1, 46830, Note_on_c, 5, 81, 0
1, 46830, Note_on_c, 0, 69, 0
1, 46830, Note_on_c, 1, 81, 0
1, 46830, Note_on_c, 0, 70, 100
1, 46830, Note_on_c, 1, 82, 100
1, 46830, Note_on_c, 5, 82, 100
1, 46860, Note_on_c, 5, 82, 0
1, 46860, Note_on_c, 1, 82, 0
1, 46860, Note_on_c, 9, 36, 0
1, 46860, Note_on_c, 9, 46, 0
1, 46860, Note_on_c, 2, 43, 0
1, 46860, Note_on_c, 0, 43, 0
1, 46860, Note_on_c, 0, 55, 100
1, 46860, Note_on_c, 1, 79, 100
1, 46860, Note_on_c, 5, 79, 100
1, 46860, Note_on_c, 9, 36, 100
1, 46860, Note_on_c, 9, 46, 100
1, 46890, Note_on_c, 9, 36, 0
1, 46890, Note_on_c, 1, 79, 0
1, 46890, Note_on_c, 0, 70, 0
1, 46890, Note_on_c, 0, 74, 0
1, 46890, Note_on_c, 5, 79, 0
1, 46890, Note_on_c, 0, 74, 100
1, 46890, Note_on_c, 0, 67, 100
1, 46890, Note_on_c, 1, 77, 100
1, 46890, Note_on_c, 5, 77, 100
1, 46890, Note_on_c, 9, 36, 100
1, 46920, Note_on_c, 9, 36, 0
1, 46920, Note_on_c, 1, 77, 0
1, 46920, Note_on_c, 9, 46, 0
1, 46920, Note_on_c, 0, 55, 0
1, 46920, Note_on_c, 5, 77, 0
1, 46920, Note_on_c, 0, 43, 100
1, 46920, Note_on_c, 1, 74, 100
1, 46920, Note_on_c, 2, 43, 100
1, 46920, Note_on_c, 5, 74, 100
1, 46920, Note_on_c, 9, 36, 100
1, 46920, Note_on_c, 9, 40, 100
1, 46920, Note_on_c, 9, 46, 100
1, 46950, Note_on_c, 5, 74, 0
1, 46950, Note_on_c, 0, 67, 0
1, 46950, Note_on_c, 0, 74, 0
1, 46950, Note_on_c, 1, 74, 0
1, 46950, Note_on_c, 0, 65, 100
1, 46950, Note_on_c, 1, 77, 100
1, 46950, Note_on_c, 5, 77, 100
1, 46980, Note_on_c, 5, 77, 0
1, 46980, Note_on_c, 1, 77, 0
1, 46980, Note_on_c, 9, 46, 0
1, 46980, Note_on_c, 0, 43, 0
1, 46980, Note_on_c, 2, 43, 0
1, 46980, Note_on_c, 0, 65, 0
1, 46980, Note_on_c, 0, 62, 100
1, 46980, Note_on_c, 0, 55, 100
1, 46980, Note_on_c, 1, 79, 100
1, 46980, Note_on_c, 5, 79, 100
1, 46980, Note_on_c, 9, 46, 100
1, 47010, Note_on_c, 0, 62, 0
1, 47040, Note_on_c, 5, 79, 0
1, 47040, Note_on_c, 9, 40, 0
1, 47040, Note_on_c, 0, 55, 0
1, 47040, Note_on_c, 9, 36, 0
1, 47040, Note_on_c, 9, 46, 0
1, 47040, Note_on_c, 1, 79, 0
1, 47040, Note_on_c, 0, 43, 100
1, 47040, Note_on_c, 2, 43, 100
1, 47040, Note_on_c, 9, 36, 100
1, 47040, Note_on_c, 9, 46, 100
1, 47100, Note_on_c, 9, 46, 0
1, 47100, Note_on_c, 0, 43, 0
1, 47100, Note_on_c, 2, 43, 0
1, 47100, Note_on_c, 9, 36, 0
1, 47100, Note_on_c, 0, 67, 100
1, 47100, Note_on_c, 0, 55, 100
1, 47100, Note_on_c, 1, 86, 100
1, 47100, Note_on_c, 1, 81, 100
1, 47100, Note_on_c, 5, 86, 100
1, 47100, Note_on_c, 5, 81, 100
1, 47100, Note_on_c, 9, 36, 100
1, 47100, Note_on_c, 9, 46, 100
1, 47160, Note_on_c, 9, 46, 0
1, 47160, Note_on_c, 0, 67, 0
1, 47160, Note_on_c, 5, 86, 0
1, 47160, Note_on_c, 0, 55, 0
1, 47160, Note_on_c, 1, 86, 0
1, 47160, Note_on_c, 1, 81, 0
1, 47160, Note_on_c, 5, 81, 0
1, 47160, Note_on_c, 9, 36, 0
1, 47160, Note_on_c, 0, 65, 100
1, 47160, Note_on_c, 0, 43, 100
1, 47160, Note_on_c, 1, 86, 100
1, 47160, Note_on_c, 1, 82, 100
1, 47160, Note_on_c, 2, 43, 100
1, 47160, Note_on_c, 5, 86, 100
1, 47160, Note_on_c, 5, 82, 100
1, 47160, Note_on_c, 9, 36, 100
1, 47160, Note_on_c, 9, 38, 100
1, 47160, Note_on_c, 9, 46, 100
1, 47220, Note_on_c, 9, 46, 0
1, 47220, Note_on_c, 1, 86, 0
1, 47220, Note_on_c, 5, 82, 0
1, 47220, Note_on_c, 0, 65, 0
1, 47220, Note_on_c, 2, 43, 0
1, 47220, Note_on_c, 0, 43, 0
1, 47220, Note_on_c, 1, 82, 0
1, 47220, Note_on_c, 5, 86, 0
1, 47220, Note_on_c, 0, 67, 100
1, 47220, Note_on_c, 0, 55, 100
1, 47220, Note_on_c, 9, 46, 100
1, 47280, Note_on_c, 9, 46, 0
1, 47280, Note_on_c, 0, 67, 0
1, 47280, Note_on_c, 9, 36, 0
1, 47280, Note_on_c, 9, 38, 0
1, 47280, Note_on_c, 0, 55, 0
1, 47280, Note_on_c, 0, 74, 100
1, 47280, Note_on_c, 0, 69, 100
1, 47280, Note_on_c, 0, 43, 100
1, 47280, Note_on_c, 1, 81, 100
1, 47280, Note_on_c, 2, 43, 100
1, 47280, Note_on_c, 5, 81, 100
1, 47280, Note_on_c, 9, 36, 100
1, 47280, Note_on_c, 9, 46, 100
1, 47310, Note_on_c, 5, 81, 0
1, 47310, Note_on_c, 0, 69, 0
1, 47310, Note_on_c, 1, 81, 0
1, 47310, Note_on_c, 0, 70, 100
1, 47310, Note_on_c, 1, 82, 100
1, 47310, Note_on_c, 5, 82, 100
1, 47340, Note_on_c, 5, 82, 0
1, 47340, Note_on_c, 1, 82, 0
1, 47340, Note_on_c, 9, 36, 0
1, 47340, Note_on_c, 9, 46, 0
1, 47340, Note_on_c, 2, 43, 0
1, 47340, Note_on_c, 0, 43, 0
1, 47340, Note_on_c, 0, 55, 100
1, 47340, Note_on_c, 1, 79, 100
1, 47340, Note_on_c, 5, 79, 100
1, 47340, Note_on_c, 9, 36, 100
1, 47340, Note_on_c, 9, 46, 100
1, 47370, Note_on_c, 9, 36, 0
1, 47370, Note_on_c, 1, 79, 0
1, 47370, Note_on_c, 0, 70, 0
1, 47370, Note_on_c, 0, 74, 0
1, 47370, Note_on_c, 5, 79, 0
1, 47370, Note_on_c, 0, 74, 100
1, 47370, Note_on_c, 0, 67, 100
1, 47370, Note_on_c, 1, 77, 100
1, 47370, Note_on_c, 5, 77, 100
1, 47370, Note_on_c, 9, 36, 100
1, 47400, Note_on_c, 9, 36, 0
1, 47400, Note_on_c, 1, 77, 0
1, 47400, Note_on_c, 9, 46, 0
1, 47400, Note_on_c, 0, 55, 0
1, 47400, Note_on_c, 5, 77, 0
1, 47400, Note_on_c, 0, 43, 100
1, 47400, Note_on_c, 1, 74, 100
1, 47400, Note_on_c, 2, 43, 100
1, 47400, Note_on_c, 3, 82, 100
1, 47400, Note_on_c, 5, 74, 100
1, 47400, Note_on_c, 9, 36, 100
1, 47400, Note_on_c, 9, 40, 100
1, 47400, Note_on_c, 9, 46, 100
1, 47430, Note_on_c, 5, 74, 0
1, 47430, Note_on_c, 0, 67, 0
1, 47430, Note_on_c, 0, 74, 0
1, 47430, Note_on_c, 1, 74, 0
1, 47430, Note_on_c, 0, 65, 100
1, 47430, Note_on_c, 1, 77, 100
1, 47430, Note_on_c, 5, 77, 100
1, 47460, Note_on_c, 5, 77, 0
1, 47460, Note_on_c, 9, 46, 0
1, 47460, Note_on_c, 1, 77, 0
1, 47460, Note_on_c, 0, 43, 0
1, 47460, Note_on_c, 0, 65, 0
1, 47460, Note_on_c, 2, 43, 0
1, 47460, Note_on_c, 0, 62, 100
1, 47460, Note_on_c, 0, 55, 100
1, 47460, Note_on_c, 1, 79, 100
1, 47460, Note_on_c, 5, 79, 100
1, 47460, Note_on_c, 9, 46, 100
1, 47490, Note_on_c, 0, 62, 0
1, 47520, Note_on_c, 3, 82, 0
1, 47520, Note_on_c, 1, 79, 0
1, 47520, Note_on_c, 9, 36, 0
1, 47520, Note_on_c, 9, 40, 0
1, 47520, Note_on_c, 0, 55, 0
1, 47520, Note_on_c, 5, 79, 0
1, 47520, Note_on_c, 9, 46, 0
1, 47520, Note_on_c, 0, 43, 100
1, 47520, Note_on_c, 2, 43, 100
1, 47520, Note_on_c, 3, 77, 100
1, 47520, Note_on_c, 9, 36, 100
1, 47520, Note_on_c, 9, 46, 100
1, 47550, Note_on_c, 3, 77, 0
1, 47550, Note_on_c, 3, 79, 100
1, 47580, Note_on_c, 9, 36, 0
1, 47580, Note_on_c, 9, 46, 0
1, 47580, Note_on_c, 0, 43, 0
1, 47580, Note_on_c, 2, 43, 0
1, 47580, Note_on_c, 0, 67, 100
1, 47580, Note_on_c, 0, 55, 100
1, 47580, Note_on_c, 1, 69, 100
1, 47580, Note_on_c, 9, 36, 100
1, 47580, Note_on_c, 9, 46, 100
1, 47610, Note_on_c, 3, 79, 0
1, 47610, Note_on_c, 3, 79, 100
1, 47640, Note_on_c, 0, 55, 0
1, 47640, Note_on_c, 9, 36, 0
1, 47640, Note_on_c, 1, 69, 0
1, 47640, Note_on_c, 0, 67, 0
1, 47640, Note_on_c, 9, 46, 0
1, 47640, Note_on_c, 0, 65, 100
1, 47640, Note_on_c, 0, 43, 100
1, 47640, Note_on_c, 1, 70, 100
1, 47640, Note_on_c, 2, 43, 100
1, 47640, Note_on_c, 9, 36, 100
1, 47640, Note_on_c, 9, 38, 100
1, 47640, Note_on_c, 9, 46, 100
1, 47700, Note_on_c, 9, 46, 0
1, 47700, Note_on_c, 3, 79, 0
1, 47700, Note_on_c, 2, 43, 0
1, 47700, Note_on_c, 1, 70, 0
1, 47700, Note_on_c, 0, 43, 0
1, 47700, Note_on_c, 0, 65, 0
1, 47700, Note_on_c, 0, 67, 100
1, 47700, Note_on_c, 0, 55, 100
1, 47700, Note_on_c, 3, 79, 100
1, 47700, Note_on_c, 9, 46, 100
1, 47760, Note_on_c, 9, 46, 0
1, 47760, Note_on_c, 9, 38, 0
1, 47760, Note_on_c, 0, 67, 0
1, 47760, Note_on_c, 9, 36, 0
1, 47760, Note_on_c, 0, 55, 0
1, 47760, Note_on_c, 0, 74, 100
1, 47760, Note_on_c, 0, 69, 100
1, 47760, Note_on_c, 0, 43, 100
1, 47760, Note_on_c, 1, 69, 100
1, 47760, Note_on_c, 2, 43, 100
1, 47760, Note_on_c, 9, 36, 100
1, 47760, Note_on_c, 9, 46, 100
1, 47790, Note_on_c, 1, 69, 0
1, 47790, Note_on_c, 0, 69, 0
1, 47790, Note_on_c, 0, 70, 100
1, 47790, Note_on_c, 1, 70, 100
1, 47790, Note_on_c, 5, 73, 100
1, 47820, Note_on_c, 5, 73, 0
1, 47820, Note_on_c, 9, 46, 0
1, 47820, Note_on_c, 1, 70, 0
1, 47820, Note_on_c, 2, 43, 0
1, 47820, Note_on_c, 3, 79, 0
1, 47820, Note_on_c, 0, 43, 0
1, 47820, Note_on_c, 9, 36, 0
1, 47820, Note_on_c, 0, 55, 100
1, 47820, Note_on_c, 1, 67, 100
1, 47820, Note_on_c, 2, 43, 100
1, 47820, Note_on_c, 3, 79, 100
1, 47820, Note_on_c, 5, 72, 100
1, 47820, Note_on_c, 9, 36, 100
1, 47820, Note_on_c, 9, 46, 100
1, 47850, Note_on_c, 9, 36, 0
1, 47850, Note_on_c, 5, 72, 0
1, 47850, Note_on_c, 1, 67, 0
1, 47850, Note_on_c, 2, 43, 0
1, 47850, Note_on_c, 0, 70, 0
1, 47850, Note_on_c, 0, 74, 0
1, 47850, Note_on_c, 3, 79, 0
1, 47850, Note_on_c, 0, 74, 100
1, 47850, Note_on_c, 0, 67, 100
1, 47850, Note_on_c, 1, 65, 100
1, 47850, Note_on_c, 2, 43, 100
1, 47850, Note_on_c, 3, 74, 100
1, 47850, Note_on_c, 5, 70, 100
1, 47850, Note_on_c, 9, 36, 100
1, 47880, Note_on_c, 9, 36, 0
1, 47880, Note_on_c, 9, 46, 0
1, 47880, Note_on_c, 5, 70, 0
1, 47880, Note_on_c, 2, 43, 0
1, 47880, Note_on_c, 0, 55, 0
1, 47880, Note_on_c, 1, 65, 0
1, 47880, Note_on_c, 0, 43, 100
1, 47880, Note_on_c, 1, 62, 100
1, 47880, Note_on_c, 2, 43, 100
1, 47880, Note_on_c, 5, 72, 100
1, 47880, Note_on_c, 9, 36, 100
1, 47880, Note_on_c, 9, 40, 100
1, 47880, Note_on_c, 9, 46, 100
1, 47910, Note_on_c, 5, 72, 0
1, 47910, Note_on_c, 0, 67, 0
1, 47910, Note_on_c, 0, 74, 0
1, 47910, Note_on_c, 1, 62, 0
1, 47910, Note_on_c, 0, 65, 100
1, 47910, Note_on_c, 1, 65, 100
1, 47910, Note_on_c, 5, 70, 100
1, 47940, Note_on_c, 5, 70, 0
1, 47940, Note_on_c, 9, 46, 0
1, 47940, Note_on_c, 1, 65, 0
1, 47940, Note_on_c, 2, 43, 0
1, 47940, Note_on_c, 0, 65, 0
1, 47940, Note_on_c, 0, 43, 0
1, 47940, Note_on_c, 0, 62, 100
1, 47940, Note_on_c, 0, 55, 100
1, 47940, Note_on_c, 1, 67, 100
1, 47940, Note_on_c, 5, 67, 100
1, 47940, Note_on_c, 9, 46, 100
1, 47970, Note_on_c, 0, 62, 0
1, 48000, Note_on_c, 3, 74, 0
1, 48000, Note_on_c, 1, 67, 0
1, 48000, Note_on_c, 9, 36, 0
1, 48000, Note_on_c, 9, 40, 0
1, 48000, Note_on_c, 0, 55, 0
1, 48000, Note_on_c, 5, 67, 0
1, 48000, Note_on_c, 9, 46, 0
1, 48000, Note_on_c, 0, 43, 100
1, 48000, Note_on_c, 2, 43, 100
1, 48000, Note_on_c, 3, 77, 100
1, 48000, Note_on_c, 9, 36, 100
1, 48000, Note_on_c, 9, 46, 100
1, 48060, Note_on_c, 9, 46, 0
1, 48060, Note_on_c, 3, 77, 0
1, 48060, Note_on_c, 0, 43, 0
1, 48060, Note_on_c, 2, 43, 0
1, 48060, Note_on_c, 9, 36, 0
1, 48060, Note_on_c, 0, 67, 100
1, 48060, Note_on_c, 0, 55, 100
1, 48060, Note_on_c, 1, 69, 100
1, 48060, Note_on_c, 1, 73, 100
1, 48060, Note_on_c, 3, 79, 100
1, 48060, Note_on_c, 9, 36, 100
1, 48060, Note_on_c, 9, 46, 100
1, 48090, Note_on_c, 3, 79, 0
1, 48090, Note_on_c, 3, 79, 100
1, 48120, Note_on_c, 9, 36, 0
1, 48120, Note_on_c, 1, 73, 0
1, 48120, Note_on_c, 0, 55, 0
1, 48120, Note_on_c, 1, 69, 0
1, 48120, Note_on_c, 0, 67, 0
1, 48120, Note_on_c, 9, 46, 0
1, 48120, Note_on_c, 0, 65, 100
1, 48120, Note_on_c, 0, 43, 100
1, 48120, Note_on_c, 1, 70, 100
1, 48120, Note_on_c, 1, 74, 100
1, 48120, Note_on_c, 2, 43, 100
1, 48120, Note_on_c, 9, 36, 100
1, 48120, Note_on_c, 9, 38, 100
1, 48120, Note_on_c, 9, 46, 100
1, 48180, Note_on_c, 9, 46, 0
1, 48180, Note_on_c, 3, 79, 0
1, 48180, Note_on_c, 2, 43, 0
1, 48180, Note_on_c, 1, 70, 0
1, 48180, Note_on_c, 0, 65, 0
1, 48180, Note_on_c, 0, 43, 0
1, 48180, Note_on_c, 1, 74, 0
1, 48180, Note_on_c, 0, 67, 100
1, 48180, Note_on_c, 0, 55, 100
1, 48180, Note_on_c, 3, 79, 100
1, 48180, Note_on_c, 9, 46, 100
1, 48240, Note_on_c, 9, 46, 0
1, 48240, Note_on_c, 9, 38, 0
1, 48240, Note_on_c, 0, 67, 0
1, 48240, Note_on_c, 9, 36, 0
1, 48240, Note_on_c, 3, 79, 0
1, 48240, Note_on_c, 0, 55, 0
1, 48240, Note_on_c, 0, 74, 100
1, 48240, Note_on_c, 0, 69, 100
1, 48240, Note_on_c, 0, 43, 100
1, 48240, Note_on_c, 1, 69, 100
1, 48240, Note_on_c, 2, 43, 100
1, 48240, Note_on_c, 3, 82, 100
1, 48240, Note_on_c, 9, 36, 100
1, 48240, Note_on_c, 9, 46, 100
1, 48270, Note_on_c, 1, 69, 0
1, 48270, Note_on_c, 0, 69, 0
1, 48270, Note_on_c, 0, 70, 100
1, 48270, Note_on_c, 1, 70, 100
1, 48300, Note_on_c, 1, 70, 0
1, 48300, Note_on_c, 0, 43, 0
1, 48300, Note_on_c, 9, 46, 0
1, 48300, Note_on_c, 2, 43, 0
1, 48300, Note_on_c, 9, 36, 0
1, 48300, Note_on_c, 0, 55, 100
1, 48300, Note_on_c, 1, 67, 100
1, 48300, Note_on_c, 2, 43, 100
1, 48300, Note_on_c, 5, 85, 100
1, 48300, Note_on_c, 9, 36, 100
1, 48300, Note_on_c, 9, 46, 100
1, 48330, Note_on_c, 9, 36, 0
1, 48330, Note_on_c, 2, 43, 0
1, 48330, Note_on_c, 0, 74, 0
1, 48330, Note_on_c, 1, 67, 0
1, 48330, Note_on_c, 0, 70, 0
1, 48330, Note_on_c, 0, 74, 100
1, 48330, Note_on_c, 0, 67, 100
1, 48330, Note_on_c, 1, 65, 100
1, 48330, Note_on_c, 2, 43, 100
1, 48330, Note_on_c, 9, 36, 100
1, 48360, Note_on_c, 9, 36, 0
1, 48360, Note_on_c, 3, 82, 0
1, 48360, Note_on_c, 9, 46, 0
1, 48360, Note_on_c, 5, 85, 0
1, 48360, Note_on_c, 2, 43, 0
1, 48360, Note_on_c, 1, 65, 0
1, 48360, Note_on_c, 0, 55, 0
1, 48360, Note_on_c, 0, 43, 100
1, 48360, Note_on_c, 1, 62, 100
1, 48360, Note_on_c, 2, 43, 100
1, 48360, Note_on_c, 5, 84, 100
1, 48360, Note_on_c, 9, 36, 100
1, 48360, Note_on_c, 9, 40, 100
1, 48360, Note_on_c, 9, 46, 100
1, 48390, Note_on_c, 1, 62, 0
1, 48390, Note_on_c, 0, 67, 0
1, 48390, Note_on_c, 0, 74, 0
1, 48390, Note_on_c, 0, 65, 100
1, 48390, Note_on_c, 1, 65, 100
1, 48420, Note_on_c, 1, 65, 0
1, 48420, Note_on_c, 0, 65, 0
1, 48420, Note_on_c, 5, 84, 0
1, 48420, Note_on_c, 0, 43, 0
1, 48420, Note_on_c, 2, 43, 0
1, 48420, Note_on_c, 9, 46, 0
1, 48420, Note_on_c, 0, 62, 100
1, 48420, Note_on_c, 0, 55, 100
1, 48420, Note_on_c, 1, 67, 100
1, 48420, Note_on_c, 5, 84, 100
1, 48420, Note_on_c, 5, 81, 100
1, 48420, Note_on_c, 9, 46, 100
1, 48440, Note_on_c, 5, 81, 0
1, 48440, Note_on_c, 5, 84, 0
1, 48440, Note_on_c, 5, 79, 100
1, 48450, Note_on_c, 0, 62, 0
1, 48460, Note_on_c, 5, 79, 0
1, 48460, Note_on_c, 5, 79, 100
1, 48480, Note_on_c, 5, 79, 0
1, 48480, Note_on_c, 9, 36, 0
1, 48480, Note_on_c, 0, 55, 0
1, 48480, Note_on_c, 1, 67, 0
1, 48480, Note_on_c, 9, 40, 0
1, 48480, Note_on_c, 9, 46, 0
1, 48480, Note_on_c, 0, 43, 100
1, 48480, Note_on_c, 2, 43, 100
1, 48480, Note_on_c, 3, 77, 100
1, 48480, Note_on_c, 5, 79, 100
1, 48480, Note_on_c, 9, 36, 100
1, 48480, Note_on_c, 9, 46, 100
1, 48510, Note_on_c, 3, 77, 0
1, 48510, Note_on_c, 3, 79, 100
1, 48540, Note_on_c, 2, 43, 0
1, 48540, Note_on_c, 9, 36, 0
1, 48540, Note_on_c, 0, 43, 0
1, 48540, Note_on_c, 9, 46, 0
1, 48540, Note_on_c, 0, 67, 100
1, 48540, Note_on_c, 0, 55, 100
1, 48540, Note_on_c, 1, 69, 100
1, 48540, Note_on_c, 1, 73, 100
1, 48540, Note_on_c, 9, 36, 100
1, 48540, Note_on_c, 9, 46, 100
1, 48570, Note_on_c, 3, 79, 0
1, 48570, Note_on_c, 3, 79, 100
1, 48600, Note_on_c, 5, 79, 0
1, 48600, Note_on_c, 9, 46, 0
1, 48600, Note_on_c, 1, 73, 0
1, 48600, Note_on_c, 0, 67, 0
1, 48600, Note_on_c, 0, 55, 0
1, 48600, Note_on_c, 1, 69, 0
1, 48600, Note_on_c, 9, 36, 0
1, 48600, Note_on_c, 0, 65, 100
1, 48600, Note_on_c, 0, 43, 100
1, 48600, Note_on_c, 1, 70, 100
1, 48600, Note_on_c, 1, 74, 100
1, 48600, Note_on_c, 2, 43, 100
1, 48600, Note_on_c, 9, 36, 100
1, 48600, Note_on_c, 9, 38, 100
1, 48600, Note_on_c, 9, 46, 100
1, 48630, Note_on_c, 3, 79, 0
1, 48630, Note_on_c, 3, 79, 100
1, 48660, Note_on_c, 0, 65, 0
1, 48660, Note_on_c, 9, 46, 0
1, 48660, Note_on_c, 1, 74, 0
1, 48660, Note_on_c, 1, 70, 0
1, 48660, Note_on_c, 0, 43, 0
1, 48660, Note_on_c, 2, 43, 0
1, 48660, Note_on_c, 0, 67, 100
1, 48660, Note_on_c, 0, 55, 100
1, 48660, Note_on_c, 9, 46, 100
1, 48690, Note_on_c, 3, 79, 0
1, 48720, Note_on_c, 9, 38, 0
1, 48720, Note_on_c, 0, 67, 0
1, 48720, Note_on_c, 9, 36, 0
1, 48720, Note_on_c, 9, 46, 0
1, 48720, Note_on_c, 0, 55, 0
1, 48720, Note_on_c, 0, 74, 100
1, 48720, Note_on_c, 0, 69, 100
1, 48720, Note_on_c, 0, 43, 100
1, 48720, Note_on_c, 1, 69, 100
1, 48720, Note_on_c, 2, 43, 100
1, 48720, Note_on_c, 3, 82, 100
1, 48720, Note_on_c, 9, 36, 100
1, 48720, Note_on_c, 9, 46, 100
1, 48750, Note_on_c, 1, 69, 0
1, 48750, Note_on_c, 0, 69, 0
1, 48750, Note_on_c, 0, 70, 100
1, 48750, Note_on_c, 1, 70, 100
1, 48780, Note_on_c, 1, 70, 0
1, 48780, Note_on_c, 3, 82, 0
1, 48780, Note_on_c, 9, 46, 0
1, 48780, Note_on_c, 0, 43, 0
1, 48780, Note_on_c, 2, 43, 0
1, 48780, Note_on_c, 9, 36, 0
1, 48780, Note_on_c, 0, 55, 100
1, 48780, Note_on_c, 1, 67, 100
1, 48780, Note_on_c, 2, 43, 100
1, 48780, Note_on_c, 3, 79, 100
1, 48780, Note_on_c, 9, 36, 100
1, 48780, Note_on_c, 9, 46, 100
1, 48810, Note_on_c, 9, 36, 0
1, 48810, Note_on_c, 1, 67, 0
1, 48810, Note_on_c, 2, 43, 0
1, 48810, Note_on_c, 0, 70, 0
1, 48810, Note_on_c, 0, 74, 0
1, 48810, Note_on_c, 3, 79, 0
1, 48810, Note_on_c, 0, 74, 100
1, 48810, Note_on_c, 0, 67, 100
1, 48810, Note_on_c, 1, 65, 100
1, 48810, Note_on_c, 2, 43, 100
1, 48810, Note_on_c, 3, 79, 100
1, 48810, Note_on_c, 9, 36, 100
1, 48840, Note_on_c, 9, 36, 0
1, 48840, Note_on_c, 2, 43, 0
1, 48840, Note_on_c, 9, 46, 0
1, 48840, Note_on_c, 0, 55, 0
1, 48840, Note_on_c, 1, 65, 0
1, 48840, Note_on_c, 0, 43, 100
1, 48840, Note_on_c, 1, 62, 100
1, 48840, Note_on_c, 2, 43, 100
1, 48840, Note_on_c, 5, 84, 100
1, 48840, Note_on_c, 9, 36, 100
1, 48840, Note_on_c, 9, 40, 100
1, 48840, Note_on_c, 9, 46, 100
1, 48870, Note_on_c, 1, 62, 0
1, 48870, Note_on_c, 0, 67, 0
1, 48870, Note_on_c, 0, 74, 0
1, 48870, Note_on_c, 0, 65, 100
1, 48870, Note_on_c, 1, 65, 100
1, 48900, Note_on_c, 1, 65, 0
1, 48900, Note_on_c, 9, 46, 0
1, 48900, Note_on_c, 0, 65, 0
1, 48900, Note_on_c, 0, 43, 0
1, 48900, Note_on_c, 2, 43, 0
1, 48900, Note_on_c, 0, 62, 100
1, 48900, Note_on_c, 0, 55, 100
1, 48900, Note_on_c, 1, 67, 100
1, 48900, Note_on_c, 9, 46, 100
1, 48930, Note_on_c, 0, 62, 0
1, 48930, Note_on_c, 5, 84, 0
1, 48930, Note_on_c, 5, 85, 100
1, 48960, Note_on_c, 5, 85, 0
1, 48960, Note_on_c, 1, 67, 0
1, 48960, Note_on_c, 3, 79, 0
1, 48960, Note_on_c, 9, 36, 0
1, 48960, Note_on_c, 9, 46, 0
1, 48960, Note_on_c, 0, 55, 0
1, 48960, Note_on_c, 9, 40, 0
1, 48960, Note_on_c, 0, 43, 100
1, 48960, Note_on_c, 2, 43, 100
1, 48960, Note_on_c, 3, 82, 100
1, 48960, Note_on_c, 5, 84, 100
1, 48960, Note_on_c, 9, 36, 100
1, 48960, Note_on_c, 9, 46, 100
1, 48990, Note_on_c, 3, 82, 0
1, 48990, Note_on_c, 3, 82, 100
1, 49020, Note_on_c, 3, 82, 0
1, 49020, Note_on_c, 9, 46, 0
1, 49020, Note_on_c, 5, 84, 0
1, 49020, Note_on_c, 0, 43, 0
1, 49020, Note_on_c, 2, 43, 0
1, 49020, Note_on_c, 9, 36, 0
1, 49020, Note_on_c, 0, 67, 100
1, 49020, Note_on_c, 0, 55, 100
1, 49020, Note_on_c, 1, 69, 100
1, 49020, Note_on_c, 1, 73, 100
1, 49020, Note_on_c, 3, 82, 100
1, 49020, Note_on_c, 5, 84, 100
1, 49020, Note_on_c, 9, 36, 100
1, 49020, Note_on_c, 9, 46, 100
1, 49050, Note_on_c, 3, 82, 0
1, 49050, Note_on_c, 3, 82, 100
1, 49060, Note_on_c, 5, 84, 0
1, 49060, Note_on_c, 5, 82, 100
1, 49080, Note_on_c, 5, 82, 0
1, 49080, Note_on_c, 9, 46, 0
1, 49080, Note_on_c, 9, 36, 0
1, 49080, Note_on_c, 0, 55, 0
1, 49080, Note_on_c, 1, 69, 0
1, 49080, Note_on_c, 3, 82, 0
1, 49080, Note_on_c, 0, 67, 0
1, 49080, Note_on_c, 1, 73, 0
1, 49080, Note_on_c, 0, 65, 100
1, 49080, Note_on_c, 0, 43, 100
1, 49080, Note_on_c, 1, 70, 100
1, 49080, Note_on_c, 1, 74, 100
1, 49080, Note_on_c, 2, 43, 100
1, 49080, Note_on_c, 3, 82, 100
1, 49080, Note_on_c, 5, 84, 100
1, 49080, Note_on_c, 9, 36, 100
1, 49080, Note_on_c, 9, 38, 100
1, 49080, Note_on_c, 9, 46, 100
1, 49110, Note_on_c, 3, 82, 0
1, 49110, Note_on_c, 3, 79, 100
1, 49140, Note_on_c, 1, 70, 0
1, 49140, Note_on_c, 9, 46, 0
1, 49140, Note_on_c, 0, 65, 0
1, 49140, Note_on_c, 1, 74, 0
1, 49140, Note_on_c, 2, 43, 0
1, 49140, Note_on_c, 0, 43, 0
1, 49140, Note_on_c, 5, 84, 0
1, 49140, Note_on_c, 0, 67, 100
1, 49140, Note_on_c, 0, 55, 100
1, 49140, Note_on_c, 5, 84, 100
1, 49140, Note_on_c, 9, 46, 100
1, 49170, Note_on_c, 3, 79, 0
1, 49170, Note_on_c, 3, 79, 100
1, 49180, Note_on_c, 5, 84, 0
1, 49185, Note_on_c, 5, 82, 100
1, 49200, Note_on_c, 0, 55, 0
1, 49200, Note_on_c, 9, 36, 0
1, 49200, Note_on_c, 9, 38, 0
1, 49200, Note_on_c, 0, 67, 0
1, 49200, Note_on_c, 9, 46, 0
1, 49200, Note_on_c, 0, 74, 100
1, 49200, Note_on_c, 0, 69, 100
1, 49200, Note_on_c, 0, 43, 100
1, 49200, Note_on_c, 1, 69, 100
1, 49200, Note_on_c, 2, 43, 100
1, 49200, Note_on_c, 5, 84, 100
1, 49200, Note_on_c, 9, 36, 100
1, 49200, Note_on_c, 9, 46, 100
1, 49205, Note_on_c, 5, 82, 0
1, 49230, Note_on_c, 5, 84, 0
1, 49230, Note_on_c, 0, 69, 0
1, 49230, Note_on_c, 1, 69, 0
1, 49230, Note_on_c, 0, 70, 100
1, 49230, Note_on_c, 1, 70, 100
1, 49230, Note_on_c, 5, 85, 100
1, 49260, Note_on_c, 5, 85, 0
1, 49260, Note_on_c, 0, 43, 0
1, 49260, Note_on_c, 1, 70, 0
1, 49260, Note_on_c, 9, 36, 0
1, 49260, Note_on_c, 9, 46, 0
1, 49260, Note_on_c, 2, 43, 0
1, 49260, Note_on_c, 0, 55, 100
1, 49260, Note_on_c, 1, 67, 100
1, 49260, Note_on_c, 2, 43, 100
1, 49260, Note_on_c, 5, 84, 100
1, 49260, Note_on_c, 9, 36, 100
1, 49260, Note_on_c, 9, 46, 100
1, 49290, Note_on_c, 9, 36, 0
1, 49290, Note_on_c, 5, 84, 0
1, 49290, Note_on_c, 0, 74, 0
1, 49290, Note_on_c, 1, 67, 0
1, 49290, Note_on_c, 0, 70, 0
1, 49290, Note_on_c, 2, 43, 0
1, 49290, Note_on_c, 0, 74, 100
1, 49290, Note_on_c, 0, 67, 100
1, 49290, Note_on_c, 1, 65, 100
1, 49290, Note_on_c, 2, 43, 100
1, 49290, Note_on_c, 5, 82, 100
1, 49290, Note_on_c, 9, 36, 100
1, 49320, Note_on_c, 9, 36, 0
1, 49320, Note_on_c, 3, 79, 0
1, 49320, Note_on_c, 5, 82, 0
1, 49320, Note_on_c, 9, 46, 0
1, 49320, Note_on_c, 0, 55, 0
1, 49320, Note_on_c, 2, 43, 0
1, 49320, Note_on_c, 1, 65, 0
1, 49320, Note_on_c, 0, 43, 100
1, 49320, Note_on_c, 1, 62, 100
1, 49320, Note_on_c, 2, 43, 100
1, 49320, Note_on_c, 3, 77, 100
1, 49320, Note_on_c, 5, 84, 100
1, 49320, Note_on_c, 9, 36, 100
1, 49320, Note_on_c, 9, 40, 100
1, 49320, Note_on_c, 9, 46, 100
1, 49340, Note_on_c, 3, 77, 0
1, 49340, Note_on_c, 3, 79, 100
1, 49350, Note_on_c, 0, 74, 0
1, 49350, Note_on_c, 0, 67, 0
1, 49350, Note_on_c, 5, 84, 0
1, 49350, Note_on_c, 1, 62, 0
1, 49350, Note_on_c, 0, 65, 100
1, 49350, Note_on_c, 1, 65, 100
1, 49350, Note_on_c, 5, 82, 100
1, 49360, Note_on_c, 3, 79, 0
1, 49360, Note_on_c, 3, 79, 100
1, 49380, Note_on_c, 3, 79, 0
1, 49380, Note_on_c, 1, 65, 0
1, 49380, Note_on_c, 2, 43, 0
1, 49380, Note_on_c, 0, 43, 0
1, 49380, Note_on_c, 5, 82, 0
1, 49380, Note_on_c, 9, 46, 0
1, 49380, Note_on_c, 0, 65, 0
1, 49380, Note_on_c, 0, 62, 100
1, 49380, Note_on_c, 0, 55, 100
1, 49380, Note_on_c, 1, 67, 100
1, 49380, Note_on_c, 3, 79, 100
1, 49380, Note_on_c, 5, 79, 100
1, 49380, Note_on_c, 9, 46, 100
1, 49410, Note_on_c, 5, 79, 0
1, 49410, Note_on_c, 0, 62, 0
1, 49410, Note_on_c, 5, 77, 100
1, 49440, Note_on_c, 5, 77, 0
1, 49440, Note_on_c, 9, 36, 0
1, 49440, Note_on_c, 9, 40, 0
1, 49440, Note_on_c, 0, 55, 0
1, 49440, Note_on_c, 1, 67, 0
1, 49440, Note_on_c, 3, 79, 0
1, 49440, Note_on_c, 9, 46, 0
1, 49440, Note_on_c, 0, 43, 100
1, 49440, Note_on_c, 2, 43, 100
1, 49440, Note_on_c, 3, 82, 100
1, 49440, Note_on_c, 5, 79, 100
1, 49440, Note_on_c, 9, 36, 100
1, 49440, Note_on_c, 9, 46, 100
1, 49500, Note_on_c, 9, 46, 0
1, 49500, Note_on_c, 2, 43, 0
1, 49500, Note_on_c, 0, 43, 0
1, 49500, Note_on_c, 9, 36, 0
1, 49500, Note_on_c, 0, 67, 100
1, 49500, Note_on_c, 0, 55, 100
1, 49500, Note_on_c, 1, 69, 100
1, 49500, Note_on_c, 1, 73, 100
1, 49500, Note_on_c, 9, 36, 100
1, 49500, Note_on_c, 9, 46, 100
1, 49560, Note_on_c, 9, 46, 0
1, 49560, Note_on_c, 3, 82, 0
1, 49560, Note_on_c, 1, 69, 0
1, 49560, Note_on_c, 5, 79, 0
1, 49560, Note_on_c, 0, 67, 0
1, 49560, Note_on_c, 0, 55, 0
1, 49560, Note_on_c, 1, 73, 0
1, 49560, Note_on_c, 9, 36, 0
1, 49560, Note_on_c, 0, 65, 100
1, 49560, Note_on_c, 0, 43, 100
1, 49560, Note_on_c, 1, 70, 100
1, 49560, Note_on_c, 1, 74, 100
1, 49560, Note_on_c, 2, 43, 100
1, 49560, Note_on_c, 9, 36, 100
1, 49560, Note_on_c, 9, 38, 100
1, 49560, Note_on_c, 9, 46, 100
1, 49620, Note_on_c, 9, 46, 0
1, 49620, Note_on_c, 0, 65, 0
1, 49620, Note_on_c, 2, 43, 0
1, 49620, Note_on_c, 1, 74, 0
1, 49620, Note_on_c, 1, 70, 0
1, 49620, Note_on_c, 0, 43, 0
1, 49620, Note_on_c, 0, 67, 100
1, 49620, Note_on_c, 0, 55, 100
1, 49620, Note_on_c, 9, 46, 100
1, 49680, Note_on_c, 9, 46, 0
1, 49680, Note_on_c, 0, 67, 0
1, 49680, Note_on_c, 9, 36, 0
1, 49680, Note_on_c, 9, 38, 0
1, 49680, Note_on_c, 0, 55, 0
1, 49680, Note_on_c, 0, 74, 100
1, 49680, Note_on_c, 0, 69, 100
1, 49680, Note_on_c, 0, 43, 100
1, 49680, Note_on_c, 1, 69, 100
1, 49680, Note_on_c, 2, 43, 100
1, 49680, Note_on_c, 9, 36, 100
1, 49680, Note_on_c, 9, 46, 100
1, 49710, Note_on_c, 1, 69, 0
1, 49710, Note_on_c, 0, 69, 0
1, 49710, Note_on_c, 0, 70, 100
1, 49710, Note_on_c, 1, 70, 100
1, 49740, Note_on_c, 1, 70, 0
1, 49740, Note_on_c, 9, 46, 0
1, 49740, Note_on_c, 9, 36, 0
1, 49740, Note_on_c, 2, 43, 0
1, 49740, Note_on_c, 0, 43, 0
1, 49740, Note_on_c, 0, 55, 100
1, 49740, Note_on_c, 1, 67, 100
1, 49740, Note_on_c, 2, 43, 100
1, 49740, Note_on_c, 9, 36, 100
1, 49740, Note_on_c, 9, 46, 100
1, 49770, Note_on_c, 9, 36, 0
1, 49770, Note_on_c, 1, 67, 0
1, 49770, Note_on_c, 0, 70, 0
1, 49770, Note_on_c, 0, 74, 0
1, 49770, Note_on_c, 2, 43, 0
1, 49770, Note_on_c, 0, 74, 100
1, 49770, Note_on_c, 0, 67, 100
1, 49770, Note_on_c, 1, 65, 100
1, 49770, Note_on_c, 2, 43, 100
1, 49770, Note_on_c, 9, 36, 100
1, 49800, Note_on_c, 9, 36, 0
1, 49800, Note_on_c, 1, 65, 0
1, 49800, Note_on_c, 9, 46, 0
1, 49800, Note_on_c, 0, 55, 0
1, 49800, Note_on_c, 2, 43, 0
1, 49800, Note_on_c, 0, 43, 100
1, 49800, Note_on_c, 1, 62, 100
1, 49800, Note_on_c, 2, 43, 100
1, 49800, Note_on_c, 3, 77, 100
1, 49800, Note_on_c, 9, 36, 100
1, 49800, Note_on_c, 9, 40, 100
1, 49800, Note_on_c, 9, 46, 100
1, 49820, Note_on_c, 3, 77, 0
1, 49820, Note_on_c, 3, 79, 100
1, 49830, Note_on_c, 0, 67, 0
1, 49830, Note_on_c, 0, 74, 0
1, 49830, Note_on_c, 1, 62, 0
1, 49830, Note_on_c, 0, 65, 100
1, 49830, Note_on_c, 1, 65, 100
1, 49840, Note_on_c, 3, 79, 0
1, 49840, Note_on_c, 3, 79, 100
1, 49860, Note_on_c, 3, 79, 0
1, 49860, Note_on_c, 1, 65, 0
1, 49860, Note_on_c, 0, 43, 0
1, 49860, Note_on_c, 9, 46, 0
1, 49860, Note_on_c, 2, 43, 0
1, 49860, Note_on_c, 0, 65, 0
1, 49860, Note_on_c, 0, 62, 100
1, 49860, Note_on_c, 0, 55, 100
1, 49860, Note_on_c, 1, 67, 100
1, 49860, Note_on_c, 3, 79, 100
1, 49860, Note_on_c, 9, 46, 100
1, 49890, Note_on_c, 0, 62, 0
1, 49920, Note_on_c, 9, 36, 0
1, 49920, Note_on_c, 1, 67, 0
1, 49920, Note_on_c, 0, 55, 0
1, 49920, Note_on_c, 9, 40, 0
1, 49920, Note_on_c, 9, 46, 0
1, 49920, Note_on_c, 0, 43, 100
1, 49920, Note_on_c, 2, 43, 100
1, 49920, Note_on_c, 9, 36, 100
1, 49920, Note_on_c, 9, 46, 100
1, 49980, Note_on_c, 9, 46, 0
1, 49980, Note_on_c, 2, 43, 0
1, 49980, Note_on_c, 3, 79, 0
1, 49980, Note_on_c, 0, 43, 0
1, 49980, Note_on_c, 9, 36, 0
1, 49980, Note_on_c, 0, 67, 100
1, 49980, Note_on_c, 0, 55, 100
1, 49980, Note_on_c, 1, 69, 100
1, 49980, Note_on_c, 1, 73, 100
1, 49980, Note_on_c, 3, 79, 100
1, 49980, Note_on_c, 9, 36, 100
1, 49980, Note_on_c, 9, 46, 100
1, 50040, Note_on_c, 9, 46, 0
1, 50040, Note_on_c, 1, 73, 0
1, 50040, Note_on_c, 0, 55, 0
1, 50040, Note_on_c, 1, 69, 0
1, 50040, Note_on_c, 0, 67, 0
1, 50040, Note_on_c, 9, 36, 0
1, 50040, Note_on_c, 0, 65, 100
1, 50040, Note_on_c, 0, 43, 100
1, 50040, Note_on_c, 1, 70, 100
1, 50040, Note_on_c, 1, 74, 100
1, 50040, Note_on_c, 2, 43, 100
1, 50040, Note_on_c, 9, 36, 100
1, 50040, Note_on_c, 9, 38, 100
1, 50040, Note_on_c, 9, 46, 100
1, 50100, Note_on_c, 9, 46, 0
1, 50100, Note_on_c, 3, 79, 0
1, 50100, Note_on_c, 2, 43, 0
1, 50100, Note_on_c, 1, 70, 0
1, 50100, Note_on_c, 0, 65, 0
1, 50100, Note_on_c, 0, 43, 0
1, 50100, Note_on_c, 1, 74, 0
1, 50100, Note_on_c, 0, 67, 100
1, 50100, Note_on_c, 0, 55, 100
1, 50100, Note_on_c, 9, 46, 100
1, 50160, Note_on_c, 9, 46, 0
1, 50160, Note_on_c, 0, 67, 0
1, 50160, Note_on_c, 9, 36, 0
1, 50160, Note_on_c, 9, 38, 0
1, 50160, Note_on_c, 0, 55, 0
1, 50160, Note_on_c, 0, 74, 100
1, 50160, Note_on_c, 0, 69, 100
1, 50160, Note_on_c, 0, 43, 100
1, 50160, Note_on_c, 1, 69, 100
1, 50160, Note_on_c, 2, 43, 100
1, 50160, Note_on_c, 3, 79, 100
1, 50160, Note_on_c, 9, 36, 100
1, 50160, Note_on_c, 9, 46, 100
1, 50190, Note_on_c, 1, 69, 0
1, 50190, Note_on_c, 0, 69, 0
1, 50190, Note_on_c, 0, 70, 100
1, 50190, Note_on_c, 1, 70, 100
1, 50220, Note_on_c, 1, 70, 0
1, 50220, Note_on_c, 0, 43, 0
1, 50220, Note_on_c, 9, 46, 0
1, 50220, Note_on_c, 2, 43, 0
1, 50220, Note_on_c, 9, 36, 0
1, 50220, Note_on_c, 0, 55, 100
1, 50220, Note_on_c, 1, 67, 100
1, 50220, Note_on_c, 2, 43, 100
1, 50220, Note_on_c, 9, 36, 100
1, 50220, Note_on_c, 9, 46, 100
1, 50250, Note_on_c, 9, 36, 0
1, 50250, Note_on_c, 0, 74, 0
1, 50250, Note_on_c, 1, 67, 0
1, 50250, Note_on_c, 0, 70, 0
1, 50250, Note_on_c, 2, 43, 0
1, 50250, Note_on_c, 0, 74, 100
1, 50250, Note_on_c, 0, 67, 100
1, 50250, Note_on_c, 1, 65, 100
1, 50250, Note_on_c, 2, 43, 100
1, 50250, Note_on_c, 9, 36, 100
1, 50280, Note_on_c, 9, 36, 0
1, 50280, Note_on_c, 2, 43, 0
1, 50280, Note_on_c, 9, 46, 0
1, 50280, Note_on_c, 0, 55, 0
1, 50280, Note_on_c, 3, 79, 0
1, 50280, Note_on_c, 1, 65, 0
1, 50280, Note_on_c, 0, 43, 100
1, 50280, Note_on_c, 1, 62, 100
1, 50280, Note_on_c, 2, 43, 100
1, 50280, Note_on_c, 3, 77, 100
1, 50280, Note_on_c, 9, 36, 100
1, 50280, Note_on_c, 9, 40, 100
1, 50280, Note_on_c, 9, 46, 100
1, 50300, Note_on_c, 3, 77, 0
1, 50300, Note_on_c, 3, 79, 100
1, 50310, Note_on_c, 0, 74, 0
1, 50310, Note_on_c, 0, 67, 0
1, 50310, Note_on_c, 1, 62, 0
1, 50310, Note_on_c, 0, 65, 100
1, 50310, Note_on_c, 1, 65, 100
1, 50320, Note_on_c, 3, 79, 0
1, 50320, Note_on_c, 3, 79, 100
1, 50340, Note_on_c, 3, 79, 0
1, 50340, Note_on_c, 1, 65, 0
1, 50340, Note_on_c, 0, 43, 0
1, 50340, Note_on_c, 9, 46, 0
1, 50340, Note_on_c, 2, 43, 0
1, 50340, Note_on_c, 0, 65, 0
1, 50340, Note_on_c, 0, 62, 100
1, 50340, Note_on_c, 0, 55, 100
1, 50340, Note_on_c, 1, 67, 100
1, 50340, Note_on_c, 3, 79, 100
1, 50340, Note_on_c, 9, 46, 100
1, 50370, Note_on_c, 0, 62, 0
1, 50400, Note_on_c, 3, 79, 0
1, 50400, Note_on_c, 9, 36, 0
1, 50400, Note_on_c, 0, 55, 0
1, 50400, Note_on_c, 9, 40, 0
1, 50400, Note_on_c, 9, 46, 0
1, 50400, Note_on_c, 1, 67, 0
1, 50400, Note_on_c, 0, 46, 100
1, 50400, Note_on_c, 0, 65, 100
1, 50400, Note_on_c, 0, 74, 100
1, 50400, Note_on_c, 0, 70, 100
1, 50400, Note_on_c, 1, 74, 100
1, 50400, Note_on_c, 2, 46, 100
1, 50400, Note_on_c, 5, 74, 100
1, 50400, Note_on_c, 9, 36, 100
1, 50400, Note_on_c, 9, 49, 100
1, 50430, Note_on_c, 5, 74, 0
1, 50430, Note_on_c, 1, 74, 0
1, 50430, Note_on_c, 1, 74, 100
1, 50430, Note_on_c, 5, 74, 100
1, 50460, Note_on_c, 9, 49, 0
1, 50460, Note_on_c, 9, 36, 0
1, 50460, Note_on_c, 9, 36, 100
1, 50460, Note_on_c, 9, 46, 100
1, 50490, Note_on_c, 1, 82, 100
1, 50490, Note_on_c, 5, 82, 100
1, 50520, Note_on_c, 9, 46, 0
1, 50520, Note_on_c, 9, 36, 0
1, 50520, Note_on_c, 9, 40, 100
1, 50520, Note_on_c, 9, 46, 100
1, 50550, Note_on_c, 1, 82, 0
1, 50550, Note_on_c, 5, 82, 0
1, 50550, Note_on_c, 1, 82, 100
1, 50550, Note_on_c, 5, 82, 100
1, 50580, Note_on_c, 5, 82, 0
1, 50580, Note_on_c, 0, 46, 0
1, 50580, Note_on_c, 9, 46, 0
1, 50580, Note_on_c, 1, 82, 0
1, 50580, Note_on_c, 9, 40, 0
1, 50580, Note_on_c, 0, 46, 100
1, 50580, Note_on_c, 1, 74, 100
1, 50580, Note_on_c, 5, 74, 100
1, 50580, Note_on_c, 9, 36, 100
1, 50580, Note_on_c, 9, 46, 100
1, 50640, Note_on_c, 9, 46, 0
1, 50640, Note_on_c, 1, 74, 0
1, 50640, Note_on_c, 1, 74, 0
1, 50640, Note_on_c, 5, 74, 0
1, 50640, Note_on_c, 0, 70, 0
1, 50640, Note_on_c, 0, 65, 0
1, 50640, Note_on_c, 0, 74, 0
1, 50640, Note_on_c, 5, 74, 0
1, 50640, Note_on_c, 0, 46, 0
1, 50640, Note_on_c, 2, 46, 0
1, 50640, Note_on_c, 9, 36, 0
1, 50640, Note_on_c, 0, 48, 100
1, 50640, Note_on_c, 0, 76, 100
1, 50640, Note_on_c, 0, 72, 100
1, 50640, Note_on_c, 0, 67, 100
1, 50640, Note_on_c, 1, 74, 100
1, 50640, Note_on_c, 2, 48, 100
1, 50640, Note_on_c, 5, 74, 100
1, 50640, Note_on_c, 9, 36, 100
1, 50640, Note_on_c, 9, 49, 100
1, 50670, Note_on_c, 5, 74, 0
1, 50670, Note_on_c, 1, 74, 0
1, 50670, Note_on_c, 1, 76, 100
1, 50670, Note_on_c, 5, 76, 100
1, 50700, Note_on_c, 9, 49, 0
1, 50700, Note_on_c, 9, 36, 0
1, 50700, Note_on_c, 9, 36, 100
1, 50700, Note_on_c, 9, 46, 100
1, 50730, Note_on_c, 1, 84, 100
1, 50730, Note_on_c, 5, 84, 100
1, 50760, Note_on_c, 9, 46, 0
1, 50760, Note_on_c, 9, 36, 0
1, 50760, Note_on_c, 1, 76, 0
1, 50760, Note_on_c, 5, 76, 0
1, 50760, Note_on_c, 1, 76, 100
1, 50760, Note_on_c, 5, 76, 100
1, 50760, Note_on_c, 9, 46, 100
1, 50790, Note_on_c, 1, 84, 0
1, 50790, Note_on_c, 5, 84, 0
1, 50790, Note_on_c, 1, 84, 100
1, 50790, Note_on_c, 5, 84, 100
1, 50790, Note_on_c, 9, 40, 100
1, 50820, Note_on_c, 9, 40, 0
1, 50820, Note_on_c, 9, 46, 0
1, 50820, Note_on_c, 5, 84, 0
1, 50820, Note_on_c, 1, 84, 0
1, 50820, Note_on_c, 0, 48, 0
1, 50820, Note_on_c, 0, 48, 100
1, 50820, Note_on_c, 1, 76, 100
1, 50820, Note_on_c, 5, 76, 100
1, 50820, Note_on_c, 9, 40, 100
1, 50850, Note_on_c, 9, 40, 0
1, 50850, Note_on_c, 9, 38, 100
1, 50880, Note_on_c, 9, 38, 0
1, 50880, Note_on_c, 1, 76, 0
1, 50880, Note_on_c, 5, 76, 0
1, 50880, Note_on_c, 1, 76, 0
1, 50880, Note_on_c, 0, 67, 0
1, 50880, Note_on_c, 0, 72, 0
1, 50880, Note_on_c, 5, 76, 0
1, 50880, Note_on_c, 0, 48, 0
1, 50880, Note_on_c, 2, 48, 0
1, 50880, Note_on_c, 0, 76, 0
1, 50880, Note_on_c, 0, 43, 100
1, 50880, Note_on_c, 2, 43, 100
1, 50880, Note_on_c, 9, 36, 100
1, 50880, Note_on_c, 9, 46, 100
1, 50940, Note_on_c, 9, 46, 0
1, 50940, Note_on_c, 0, 43, 0
1, 50940, Note_on_c, 2, 43, 0
1, 50940, Note_on_c, 9, 36, 0
1, 50940, Note_on_c, 0, 67, 100
1, 50940, Note_on_c, 0, 55, 100
1, 50940, Note_on_c, 1, 86, 100
1, 50940, Note_on_c, 1, 81, 100
1, 50940, Note_on_c, 5, 86, 100
1, 50940, Note_on_c, 5, 81, 100
1, 50940, Note_on_c, 9, 36, 100
1, 50940, Note_on_c, 9, 46, 100
1, 51000, Note_on_c, 9, 46, 0
1, 51000, Note_on_c, 0, 67, 0
1, 51000, Note_on_c, 5, 86, 0
1, 51000, Note_on_c, 0, 55, 0
1, 51000, Note_on_c, 1, 86, 0
1, 51000, Note_on_c, 1, 81, 0
1, 51000, Note_on_c, 5, 81, 0
1, 51000, Note_on_c, 9, 36, 0
1, 51000, Note_on_c, 0, 65, 100
1, 51000, Note_on_c, 0, 43, 100
1, 51000, Note_on_c, 1, 86, 100
1, 51000, Note_on_c, 1, 82, 100
1, 51000, Note_on_c, 2, 43, 100
1, 51000, Note_on_c, 5, 86, 100
1, 51000, Note_on_c, 5, 82, 100
1, 51000, Note_on_c, 9, 36, 100
1, 51000, Note_on_c, 9, 38, 100
1, 51000, Note_on_c, 9, 46, 100
1, 51060, Note_on_c, 9, 46, 0
1, 51060, Note_on_c, 1, 86, 0
1, 51060, Note_on_c, 5, 82, 0
1, 51060, Note_on_c, 0, 65, 0
1, 51060, Note_on_c, 2, 43, 0
1, 51060, Note_on_c, 0, 43, 0
1, 51060, Note_on_c, 1, 82, 0
1, 51060, Note_on_c, 5, 86, 0
1, 51060, Note_on_c, 0, 67, 100
1, 51060, Note_on_c, 0, 55, 100
1, 51060, Note_on_c, 9, 46, 100
1, 51120, Note_on_c, 9, 46, 0
1, 51120, Note_on_c, 0, 67, 0
1, 51120, Note_on_c, 9, 36, 0
1, 51120, Note_on_c, 9, 38, 0
1, 51120, Note_on_c, 0, 55, 0
1, 51120, Note_on_c, 0, 74, 100
1, 51120, Note_on_c, 0, 69, 100
1, 51120, Note_on_c, 0, 43, 100
1, 51120, Note_on_c, 1, 81, 100
1, 51120, Note_on_c, 2, 43, 100
1, 51120, Note_on_c, 5, 81, 100
1, 51120, Note_on_c, 9, 36, 100
1, 51120, Note_on_c, 9, 46, 100
1, 51150, Note_on_c, 5, 81, 0
1, 51150, Note_on_c, 0, 69, 0
1, 51150, Note_on_c, 1, 81, 0
1, 51150, Note_on_c, 0, 70, 100
1, 51150, Note_on_c, 1, 82, 100
1, 51150, Note_on_c, 5, 82, 100
1, 51180, Note_on_c, 5, 82, 0
1, 51180, Note_on_c, 1, 82, 0
1, 51180, Note_on_c, 9, 36, 0
1, 51180, Note_on_c, 9, 46, 0
1, 51180, Note_on_c, 2, 43, 0
1, 51180, Note_on_c, 0, 43, 0
1, 51180, Note_on_c, 0, 55, 100
1, 51180, Note_on_c, 1, 79, 100
1, 51180, Note_on_c, 5, 79, 100
1, 51180, Note_on_c, 9, 36, 100
1, 51180, Note_on_c, 9, 46, 100
1, 51210, Note_on_c, 9, 36, 0
1, 51210, Note_on_c, 1, 79, 0
1, 51210, Note_on_c, 0, 70, 0
1, 51210, Note_on_c, 0, 74, 0
1, 51210, Note_on_c, 5, 79, 0
1, 51210, Note_on_c, 0, 74, 100
1, 51210, Note_on_c, 0, 67, 100
1, 51210, Note_on_c, 1, 77, 100
1, 51210, Note_on_c, 5, 77, 100
1, 51210, Note_on_c, 9, 36, 100
1, 51240, Note_on_c, 9, 36, 0
1, 51240, Note_on_c, 1, 77, 0
1, 51240, Note_on_c, 9, 46, 0
1, 51240, Note_on_c, 0, 55, 0
1, 51240, Note_on_c, 5, 77, 0
1, 51240, Note_on_c, 0, 43, 100
1, 51240, Note_on_c, 1, 74, 100
1, 51240, Note_on_c, 2, 43, 100
1, 51240, Note_on_c, 5, 74, 100
1, 51240, Note_on_c, 9, 36, 100
1, 51240, Note_on_c, 9, 40, 100
1, 51240, Note_on_c, 9, 46, 100
1, 51270, Note_on_c, 5, 74, 0
1, 51270, Note_on_c, 0, 67, 0
1, 51270, Note_on_c, 0, 74, 0
1, 51270, Note_on_c, 1, 74, 0
1, 51270, Note_on_c, 0, 65, 100
1, 51270, Note_on_c, 1, 77, 100
1, 51270, Note_on_c, 5, 77, 100
1, 51300, Note_on_c, 5, 77, 0
1, 51300, Note_on_c, 1, 77, 0
1, 51300, Note_on_c, 9, 46, 0
1, 51300, Note_on_c, 0, 43, 0
1, 51300, Note_on_c, 2, 43, 0
1, 51300, Note_on_c, 0, 65, 0
1, 51300, Note_on_c, 0, 62, 100
1, 51300, Note_on_c, 0, 55, 100
1, 51300, Note_on_c, 1, 79, 100
1, 51300, Note_on_c, 5, 79, 100
1, 51300, Note_on_c, 9, 46, 100
1, 51330, Note_on_c, 0, 62, 0
1, 51360, Note_on_c, 5, 79, 0
1, 51360, Note_on_c, 9, 40, 0
1, 51360, Note_on_c, 0, 55, 0
1, 51360, Note_on_c, 9, 36, 0
1, 51360, Note_on_c, 9, 46, 0
1, 51360, Note_on_c, 1, 79, 0
1, 51360, Note_on_c, 0, 43, 100
1, 51360, Note_on_c, 2, 43, 100
1, 51360, Note_on_c, 9, 36, 100
1, 51360, Note_on_c, 9, 46, 100
1, 51420, Note_on_c, 9, 46, 0
1, 51420, Note_on_c, 0, 43, 0
1, 51420, Note_on_c, 2, 43, 0
1, 51420, Note_on_c, 9, 36, 0
1, 51420, Note_on_c, 0, 67, 100
1, 51420, Note_on_c, 0, 55, 100
1, 51420, Note_on_c, 1, 86, 100
1, 51420, Note_on_c, 1, 81, 100
1, 51420, Note_on_c, 5, 86, 100
1, 51420, Note_on_c, 5, 81, 100
1, 51420, Note_on_c, 9, 36, 100
1, 51420, Note_on_c, 9, 46, 100
1, 51480, Note_on_c, 9, 46, 0
1, 51480, Note_on_c, 0, 67, 0
1, 51480, Note_on_c, 5, 86, 0
1, 51480, Note_on_c, 0, 55, 0
1, 51480, Note_on_c, 1, 86, 0
1, 51480, Note_on_c, 1, 81, 0
1, 51480, Note_on_c, 5, 81, 0
1, 51480, Note_on_c, 9, 36, 0
1, 51480, Note_on_c, 0, 65, 100
1, 51480, Note_on_c, 0, 43, 100
1, 51480, Note_on_c, 1, 86, 100
1, 51480, Note_on_c, 1, 82, 100
1, 51480, Note_on_c, 2, 43, 100
1, 51480, Note_on_c, 5, 86, 100
1, 51480, Note_on_c, 5, 82, 100
1, 51480, Note_on_c, 9, 36, 100
1, 51480, Note_on_c, 9, 38, 100
1, 51480, Note_on_c, 9, 46, 100
1, 51540, Note_on_c, 9, 46, 0
1, 51540, Note_on_c, 1, 86, 0
1, 51540, Note_on_c, 5, 82, 0
1, 51540, Note_on_c, 0, 65, 0
1, 51540, Note_on_c, 2, 43, 0
1, 51540, Note_on_c, 0, 43, 0
1, 51540, Note_on_c, 1, 82, 0
1, 51540, Note_on_c, 5, 86, 0
1, 51540, Note_on_c, 0, 67, 100
1, 51540, Note_on_c, 0, 55, 100
1, 51540, Note_on_c, 9, 46, 100
1, 51600, Note_on_c, 9, 46, 0
1, 51600, Note_on_c, 0, 67, 0
1, 51600, Note_on_c, 9, 36, 0
1, 51600, Note_on_c, 9, 38, 0
1, 51600, Note_on_c, 0, 55, 0
1, 51600, Note_on_c, 0, 74, 100
1, 51600, Note_on_c, 0, 69, 100
1, 51600, Note_on_c, 0, 43, 100
1, 51600, Note_on_c, 1, 81, 100
1, 51600, Note_on_c, 2, 43, 100
1, 51600, Note_on_c, 5, 81, 100
1, 51600, Note_on_c, 9, 36, 100
1, 51600, Note_on_c, 9, 46, 100
1, 51630, Note_on_c, 5, 81, 0
1, 51630, Note_on_c, 0, 69, 0
1, 51630, Note_on_c, 1, 81, 0
1, 51630, Note_on_c, 0, 70, 100
1, 51630, Note_on_c, 1, 82, 100
1, 51630, Note_on_c, 5, 82, 100
1, 51660, Note_on_c, 5, 82, 0
1, 51660, Note_on_c, 1, 82, 0
1, 51660, Note_on_c, 9, 36, 0
1, 51660, Note_on_c, 9, 46, 0
1, 51660, Note_on_c, 2, 43, 0
1, 51660, Note_on_c, 0, 43, 0
1, 51660, Note_on_c, 0, 55, 100
1, 51660, Note_on_c, 1, 79, 100
1, 51660, Note_on_c, 5, 79, 100
1, 51660, Note_on_c, 9, 36, 100
1, 51660, Note_on_c, 9, 46, 100
1, 51690, Note_on_c, 9, 36, 0
1, 51690, Note_on_c, 1, 79, 0
1, 51690, Note_on_c, 0, 70, 0
1, 51690, Note_on_c, 0, 74, 0
1, 51690, Note_on_c, 5, 79, 0
1, 51690, Note_on_c, 0, 74, 100
1, 51690, Note_on_c, 0, 67, 100
1, 51690, Note_on_c, 1, 77, 100
1, 51690, Note_on_c, 5, 77, 100
1, 51690, Note_on_c, 9, 36, 100
1, 51720, Note_on_c, 9, 36, 0
1, 51720, Note_on_c, 1, 77, 0
1, 51720, Note_on_c, 9, 46, 0
1, 51720, Note_on_c, 0, 55, 0
1, 51720, Note_on_c, 5, 77, 0
1, 51720, Note_on_c, 0, 43, 100
1, 51720, Note_on_c, 1, 74, 100
1, 51720, Note_on_c, 2, 43, 100
1, 51720, Note_on_c, 5, 74, 100
1, 51720, Note_on_c, 9, 36, 100
1, 51720, Note_on_c, 9, 40, 100
1, 51720, Note_on_c, 9, 46, 100
1, 51750, Note_on_c, 5, 74, 0
1, 51750, Note_on_c, 0, 67, 0
1, 51750, Note_on_c, 0, 74, 0
1, 51750, Note_on_c, 1, 74, 0
1, 51750, Note_on_c, 0, 65, 100
1, 51750, Note_on_c, 1, 77, 100
1, 51750, Note_on_c, 5, 77, 100
1, 51780, Note_on_c, 5, 77, 0
1, 51780, Note_on_c, 1, 77, 0
1, 51780, Note_on_c, 9, 46, 0
1, 51780, Note_on_c, 0, 43, 0
1, 51780, Note_on_c, 2, 43, 0
1, 51780, Note_on_c, 0, 65, 0
1, 51780, Note_on_c, 0, 62, 100
1, 51780, Note_on_c, 0, 55, 100
1, 51780, Note_on_c, 1, 79, 100
1, 51780, Note_on_c, 5, 79, 100
1, 51780, Note_on_c, 9, 46, 100
1, 51810, Note_on_c, 0, 62, 0
1, 51840, Note_on_c, 5, 79, 0
1, 51840, Note_on_c, 9, 40, 0
1, 51840, Note_on_c, 0, 55, 0
1, 51840, Note_on_c, 9, 36, 0
1, 51840, Note_on_c, 9, 46, 0
1, 51840, Note_on_c, 1, 79, 0
1, 51840, Note_on_c, 0, 43, 100
1, 51840, Note_on_c, 2, 43, 100
1, 51840, Note_on_c, 3, 77, 100
1, 51840, Note_on_c, 9, 36, 100
1, 51840, Note_on_c, 9, 46, 100
1, 51900, Note_on_c, 9, 46, 0
1, 51900, Note_on_c, 3, 77, 0
1, 51900, Note_on_c, 0, 43, 0
1, 51900, Note_on_c, 2, 43, 0
1, 51900, Note_on_c, 9, 36, 0
1, 51900, Note_on_c, 0, 67, 100
1, 51900, Note_on_c, 0, 55, 100
1, 51900, Note_on_c, 1, 69, 100
1, 51900, Note_on_c, 3, 79, 100
1, 51900, Note_on_c, 9, 36, 100
1, 51900, Note_on_c, 9, 46, 100
1, 51960, Note_on_c, 9, 46, 0
1, 51960, Note_on_c, 0, 55, 0
1, 51960, Note_on_c, 1, 69, 0
1, 51960, Note_on_c, 0, 67, 0
1, 51960, Note_on_c, 9, 36, 0
1, 51960, Note_on_c, 3, 79, 0
1, 51960, Note_on_c, 0, 65, 100
1, 51960, Note_on_c, 0, 43, 100
1, 51960, Note_on_c, 1, 70, 100
1, 51960, Note_on_c, 2, 43, 100
1, 51960, Note_on_c, 3, 79, 100
1, 51960, Note_on_c, 9, 36, 100
1, 51960, Note_on_c, 9, 38, 100
1, 51960, Note_on_c, 9, 46, 100
1, 52020, Note_on_c, 9, 46, 0
1, 52020, Note_on_c, 0, 65, 0
1, 52020, Note_on_c, 3, 79, 0
1, 52020, Note_on_c, 2, 43, 0
1, 52020, Note_on_c, 1, 70, 0
1, 52020, Note_on_c, 0, 43, 0
1, 52020, Note_on_c, 0, 67, 100
1, 52020, Note_on_c, 0, 55, 100
1, 52020, Note_on_c, 3, 79, 100
1, 52020, Note_on_c, 9, 46, 100
1, 52050, Note_on_c, 3, 79, 0
1, 52050, Note_on_c, 3, 79, 100
1, 52080, Note_on_c, 3, 79, 0
1, 52080, Note_on_c, 9, 46, 0
1, 52080, Note_on_c, 0, 67, 0
1, 52080, Note_on_c, 9, 36, 0
1, 52080, Note_on_c, 9, 38, 0
1, 52080, Note_on_c, 0, 55, 0
1, 52080, Note_on_c, 0, 74, 100
1, 52080, Note_on_c, 0, 69, 100
1, 52080, Note_on_c, 0, 43, 100
1, 52080, Note_on_c, 1, 69, 100
1, 52080, Note_on_c, 2, 43, 100
1, 52080, Note_on_c, 3, 79, 100
1, 52080, Note_on_c, 9, 36, 100
1, 52080, Note_on_c, 9, 46, 100
1, 52110, Note_on_c, 1, 69, 0
1, 52110, Note_on_c, 0, 69, 0
1, 52110, Note_on_c, 0, 70, 100
1, 52110, Note_on_c, 1, 70, 100
1, 52140, Note_on_c, 1, 70, 0
1, 52140, Note_on_c, 0, 43, 0
1, 52140, Note_on_c, 9, 46, 0
1, 52140, Note_on_c, 2, 43, 0
1, 52140, Note_on_c, 9, 36, 0
1, 52140, Note_on_c, 0, 55, 100
1, 52140, Note_on_c, 1, 67, 100
1, 52140, Note_on_c, 2, 43, 100
1, 52140, Note_on_c, 5, 77, 100
1, 52140, Note_on_c, 9, 36, 100
1, 52140, Note_on_c, 9, 46, 100
1, 52170, Note_on_c, 9, 36, 0
1, 52170, Note_on_c, 2, 43, 0
1, 52170, Note_on_c, 0, 74, 0
1, 52170, Note_on_c, 1, 67, 0
1, 52170, Note_on_c, 0, 70, 0
1, 52170, Note_on_c, 0, 74, 100
1, 52170, Note_on_c, 0, 67, 100
1, 52170, Note_on_c, 1, 65, 100
1, 52170, Note_on_c, 2, 43, 100
1, 52170, Note_on_c, 9, 36, 100
1, 52200, Note_on_c, 9, 36, 0
1, 52200, Note_on_c, 3, 79, 0
1, 52200, Note_on_c, 9, 46, 0
1, 52200, Note_on_c, 5, 77, 0
1, 52200, Note_on_c, 2, 43, 0
1, 52200, Note_on_c, 1, 65, 0
1, 52200, Note_on_c, 0, 55, 0
1, 52200, Note_on_c, 0, 43, 100
1, 52200, Note_on_c, 1, 62, 100
1, 52200, Note_on_c, 2, 43, 100
1, 52200, Note_on_c, 5, 84, 100
1, 52200, Note_on_c, 9, 36, 100
1, 52200, Note_on_c, 9, 40, 100
1, 52200, Note_on_c, 9, 46, 100
1, 52230, Note_on_c, 1, 62, 0
1, 52230, Note_on_c, 0, 67, 0
1, 52230, Note_on_c, 0, 74, 0
1, 52230, Note_on_c, 0, 65, 100
1, 52230, Note_on_c, 1, 65, 100
1, 52260, Note_on_c, 1, 65, 0
1, 52260, Note_on_c, 0, 65, 0
1, 52260, Note_on_c, 5, 84, 0
1, 52260, Note_on_c, 0, 43, 0
1, 52260, Note_on_c, 2, 43, 0
1, 52260, Note_on_c, 9, 46, 0
1, 52260, Note_on_c, 0, 62, 100
1, 52260, Note_on_c, 0, 55, 100
1, 52260, Note_on_c, 1, 67, 100
1, 52260, Note_on_c, 5, 85, 100
1, 52260, Note_on_c, 9, 46, 100
1, 52290, Note_on_c, 0, 62, 0
1, 52320, Note_on_c, 5, 85, 0
1, 52320, Note_on_c, 9, 40, 0
1, 52320, Note_on_c, 0, 55, 0
1, 52320, Note_on_c, 9, 36, 0
1, 52320, Note_on_c, 9, 46, 0
1, 52320, Note_on_c, 1, 67, 0
1, 52320, Note_on_c, 0, 43, 100
1, 52320, Note_on_c, 2, 43, 100
1, 52320, Note_on_c, 3, 77, 100
1, 52320, Note_on_c, 5, 86, 100
1, 52320, Note_on_c, 9, 36, 100
1, 52320, Note_on_c, 9, 46, 100
1, 52380, Note_on_c, 9, 46, 0
1, 52380, Note_on_c, 2, 43, 0
1, 52380, Note_on_c, 0, 43, 0
1, 52380, Note_on_c, 3, 77, 0
1, 52380, Note_on_c, 9, 36, 0
1, 52380, Note_on_c, 0, 67, 100
1, 52380, Note_on_c, 0, 55, 100
1, 52380, Note_on_c, 1, 69, 100
1, 52380, Note_on_c, 1, 73, 100
1, 52380, Note_on_c, 3, 79, 100
1, 52380, Note_on_c, 9, 36, 100
1, 52380, Note_on_c, 9, 46, 100
1, 52410, Note_on_c, 3, 79, 0
1, 52410, Note_on_c, 3, 79, 100
1, 52440, Note_on_c, 9, 46, 0
1, 52440, Note_on_c, 1, 69, 0
1, 52440, Note_on_c, 1, 73, 0
1, 52440, Note_on_c, 0, 67, 0
1, 52440, Note_on_c, 0, 55, 0
1, 52440, Note_on_c, 9, 36, 0
1, 52440, Note_on_c, 0, 65, 100
1, 52440, Note_on_c, 0, 43, 100
1, 52440, Note_on_c, 1, 70, 100
1, 52440, Note_on_c, 1, 74, 100
1, 52440, Note_on_c, 2, 43, 100
1, 52440, Note_on_c, 9, 36, 100
1, 52440, Note_on_c, 9, 38, 100
1, 52440, Note_on_c, 9, 46, 100
1, 52500, Note_on_c, 9, 46, 0
1, 52500, Note_on_c, 0, 65, 0
1, 52500, Note_on_c, 2, 43, 0
1, 52500, Note_on_c, 0, 43, 0
1, 52500, Note_on_c, 1, 70, 0
1, 52500, Note_on_c, 3, 79, 0
1, 52500, Note_on_c, 1, 74, 0
1, 52500, Note_on_c, 0, 67, 100
1, 52500, Note_on_c, 0, 55, 100
1, 52500, Note_on_c, 3, 79, 100
1, 52500, Note_on_c, 9, 46, 100
1, 52530, Note_on_c, 3, 79, 0
1, 52530, Note_on_c, 3, 82, 100
1, 52560, Note_on_c, 0, 55, 0
1, 52560, Note_on_c, 0, 67, 0
1, 52560, Note_on_c, 9, 36, 0
1, 52560, Note_on_c, 9, 38, 0
1, 52560, Note_on_c, 9, 46, 0
1, 52560, Note_on_c, 0, 74, 100
1, 52560, Note_on_c, 0, 69, 100
1, 52560, Note_on_c, 0, 43, 100
1, 52560, Note_on_c, 1, 69, 100
1, 52560, Note_on_c, 2, 43, 100
1, 52560, Note_on_c, 9, 36, 100
1, 52560, Note_on_c, 9, 46, 100
1, 52590, Note_on_c, 1, 69, 0
1, 52590, Note_on_c, 0, 69, 0
1, 52590, Note_on_c, 0, 70, 100
1, 52590, Note_on_c, 1, 70, 100
1, 52620, Note_on_c, 1, 70, 0
1, 52620, Note_on_c, 9, 46, 0
1, 52620, Note_on_c, 9, 36, 0
1, 52620, Note_on_c, 2, 43, 0
1, 52620, Note_on_c, 0, 43, 0
1, 52620, Note_on_c, 0, 55, 100
1, 52620, Note_on_c, 1, 67, 100
1, 52620, Note_on_c, 2, 43, 100
1, 52620, Note_on_c, 9, 36, 100
1, 52620, Note_on_c, 9, 46, 100
1, 52650, Note_on_c, 9, 36, 0
1, 52650, Note_on_c, 2, 43, 0
1, 52650, Note_on_c, 0, 70, 0
1, 52650, Note_on_c, 0, 74, 0
1, 52650, Note_on_c, 1, 67, 0
1, 52650, Note_on_c, 0, 74, 100
1, 52650, Note_on_c, 0, 67, 100
1, 52650, Note_on_c, 1, 65, 100
1, 52650, Note_on_c, 2, 43, 100
1, 52650, Note_on_c, 9, 36, 100
1, 52680, Note_on_c, 9, 36, 0
1, 52680, Note_on_c, 9, 46, 0
1, 52680, Note_on_c, 2, 43, 0
1, 52680, Note_on_c, 3, 82, 0
1, 52680, Note_on_c, 1, 65, 0
1, 52680, Note_on_c, 0, 55, 0
1, 52680, Note_on_c, 0, 43, 100
1, 52680, Note_on_c, 1, 62, 100
1, 52680, Note_on_c, 2, 43, 100
1, 52680, Note_on_c, 9, 36, 100
1, 52680, Note_on_c, 9, 40, 100
1, 52680, Note_on_c, 9, 46, 100
1, 52710, Note_on_c, 1, 62, 0
1, 52710, Note_on_c, 0, 67, 0
1, 52710, Note_on_c, 0, 74, 0
1, 52710, Note_on_c, 0, 65, 100
1, 52710, Note_on_c, 1, 65, 100
1, 52740, Note_on_c, 1, 65, 0
1, 52740, Note_on_c, 0, 65, 0
1, 52740, Note_on_c, 2, 43, 0
1, 52740, Note_on_c, 9, 46, 0
1, 52740, Note_on_c, 0, 43, 0
1, 52740, Note_on_c, 5, 86, 0
1, 52740, Note_on_c, 0, 62, 100
1, 52740, Note_on_c, 0, 55, 100
1, 52740, Note_on_c, 1, 67, 100
1, 52740, Note_on_c, 5, 86, 100
1, 52740, Note_on_c, 9, 46, 100
1, 52770, Note_on_c, 5, 86, 0
1, 52770, Note_on_c, 0, 62, 0
1, 52770, Note_on_c, 5, 86, 100
1, 52800, Note_on_c, 5, 86, 0
1, 52800, Note_on_c, 9, 46, 0
1, 52800, Note_on_c, 0, 55, 0
1, 52800, Note_on_c, 9, 40, 0
1, 52800, Note_on_c, 9, 36, 0
1, 52800, Note_on_c, 1, 67, 0
1, 52800, Note_on_c, 0, 43, 100
1, 52800, Note_on_c, 2, 43, 100
1, 52800, Note_on_c, 3, 77, 100
1, 52800, Note_on_c, 5, 86, 100
1, 52800, Note_on_c, 9, 36, 100
1, 52800, Note_on_c, 9, 46, 100
1, 52830, Note_on_c, 5, 86, 0
1, 52830, Note_on_c, 5, 86, 100
1, 52860, Note_on_c, 5, 86, 0
1, 52860, Note_on_c, 9, 46, 0
1, 52860, Note_on_c, 3, 77, 0
1, 52860, Note_on_c, 0, 43, 0
1, 52860, Note_on_c, 2, 43, 0
1, 52860, Note_on_c, 9, 36, 0
1, 52860, Note_on_c, 0, 67, 100
1, 52860, Note_on_c, 0, 55, 100
1, 52860, Note_on_c, 1, 69, 100
1, 52860, Note_on_c, 1, 73, 100
1, 52860, Note_on_c, 3, 79, 100
1, 52860, Note_on_c, 5, 86, 100
1, 52860, Note_on_c, 9, 36, 100
1, 52860, Note_on_c, 9, 46, 100
1, 52890, Note_on_c, 3, 79, 0
1, 52890, Note_on_c, 3, 82, 100
1, 52920, Note_on_c, 0, 67, 0
1, 52920, Note_on_c, 9, 46, 0
1, 52920, Note_on_c, 5, 86, 0
1, 52920, Note_on_c, 0, 55, 0
1, 52920, Note_on_c, 1, 69, 0
1, 52920, Note_on_c, 1, 73, 0
1, 52920, Note_on_c, 9, 36, 0
1, 52920, Note_on_c, 0, 65, 100
1, 52920, Note_on_c, 0, 43, 100
1, 52920, Note_on_c, 1, 70, 100
1, 52920, Note_on_c, 1, 74, 100
1, 52920, Note_on_c, 2, 43, 100
1, 52920, Note_on_c, 5, 86, 100
1, 52920, Note_on_c, 9, 36, 100
1, 52920, Note_on_c, 9, 38, 100
1, 52920, Note_on_c, 9, 46, 100
1, 52980, Note_on_c, 9, 46, 0
1, 52980, Note_on_c, 0, 43, 0
1, 52980, Note_on_c, 5, 86, 0
1, 52980, Note_on_c, 3, 82, 0
1, 52980, Note_on_c, 1, 74, 0
1, 52980, Note_on_c, 0, 65, 0
1, 52980, Note_on_c, 1, 70, 0
1, 52980, Note_on_c, 2, 43, 0
1, 52980, Note_on_c, 0, 67, 100
1, 52980, Note_on_c, 0, 55, 100
1, 52980, Note_on_c, 3, 77, 100
1, 52980, Note_on_c, 5, 86, 100
1, 52980, Note_on_c, 9, 46, 100
1, 53010, Note_on_c, 5, 86, 0
1, 53010, Note_on_c, 5, 86, 100
1, 53040, Note_on_c, 5, 86, 0
1, 53040, Note_on_c, 9, 46, 0
1, 53040, Note_on_c, 9, 38, 0
1, 53040, Note_on_c, 0, 67, 0
1, 53040, Note_on_c, 9, 36, 0
1, 53040, Note_on_c, 3, 77, 0
1, 53040, Note_on_c, 0, 55, 0
1, 53040, Note_on_c, 0, 74, 100
1, 53040, Note_on_c, 0, 69, 100
1, 53040, Note_on_c, 0, 43, 100
1, 53040, Note_on_c, 1, 69, 100
1, 53040, Note_on_c, 2, 43, 100
1, 53040, Note_on_c, 3, 82, 100
1, 53040, Note_on_c, 5, 86, 100
1, 53040, Note_on_c, 9, 36, 100
1, 53040, Note_on_c, 9, 46, 100
1, 53070, Note_on_c, 3, 82, 0
1, 53070, Note_on_c, 0, 69, 0
1, 53070, Note_on_c, 1, 69, 0
1, 53070, Note_on_c, 0, 70, 100
1, 53070, Note_on_c, 1, 70, 100
1, 53070, Note_on_c, 3, 82, 100
1, 53100, Note_on_c, 1, 70, 0
1, 53100, Note_on_c, 5, 86, 0
1, 53100, Note_on_c, 9, 36, 0
1, 53100, Note_on_c, 9, 46, 0
1, 53100, Note_on_c, 2, 43, 0
1, 53100, Note_on_c, 0, 43, 0
1, 53100, Note_on_c, 0, 55, 100
1, 53100, Note_on_c, 1, 67, 100
1, 53100, Note_on_c, 2, 43, 100
1, 53100, Note_on_c, 5, 86, 100
1, 53100, Note_on_c, 9, 36, 100
1, 53100, Note_on_c, 9, 46, 100
1, 53130, Note_on_c, 9, 36, 0
1, 53130, Note_on_c, 2, 43, 0
1, 53130, Note_on_c, 3, 82, 0
1, 53130, Note_on_c, 0, 74, 0
1, 53130, Note_on_c, 0, 70, 0
1, 53130, Note_on_c, 1, 67, 0
1, 53130, Note_on_c, 0, 74, 100
1, 53130, Note_on_c, 0, 67, 100
1, 53130, Note_on_c, 1, 65, 100
1, 53130, Note_on_c, 2, 43, 100
1, 53130, Note_on_c, 3, 82, 100
1, 53130, Note_on_c, 9, 36, 100
1, 53160, Note_on_c, 9, 36, 0
1, 53160, Note_on_c, 2, 43, 0
1, 53160, Note_on_c, 5, 86, 0
1, 53160, Note_on_c, 9, 46, 0
1, 53160, Note_on_c, 0, 55, 0
1, 53160, Note_on_c, 1, 65, 0
1, 53160, Note_on_c, 0, 43, 100
1, 53160, Note_on_c, 1, 62, 100
1, 53160, Note_on_c, 2, 43, 100
1, 53160, Note_on_c, 5, 86, 100
1, 53160, Note_on_c, 9, 36, 100
1, 53160, Note_on_c, 9, 40, 100
1, 53160, Note_on_c, 9, 46, 100
1, 53190, Note_on_c, 5, 86, 0
1, 53190, Note_on_c, 0, 74, 0
1, 53190, Note_on_c, 1, 62, 0
1, 53190, Note_on_c, 0, 67, 0
1, 53190, Note_on_c, 0, 65, 100
1, 53190, Note_on_c, 1, 65, 100
1, 53190, Note_on_c, 5, 86, 100
1, 53220, Note_on_c, 5, 86, 0
1, 53220, Note_on_c, 3, 82, 0
1, 53220, Note_on_c, 1, 65, 0
1, 53220, Note_on_c, 2, 43, 0
1, 53220, Note_on_c, 0, 65, 0
1, 53220, Note_on_c, 9, 46, 0
1, 53220, Note_on_c, 0, 43, 0
1, 53220, Note_on_c, 0, 62, 100
1, 53220, Note_on_c, 0, 55, 100
1, 53220, Note_on_c, 1, 67, 100
1, 53220, Note_on_c, 5, 86, 100
1, 53220, Note_on_c, 9, 46, 100
1, 53250, Note_on_c, 5, 86, 0
1, 53250, Note_on_c, 0, 62, 0
1, 53250, Note_on_c, 5, 86, 100
1, 53280, Note_on_c, 5, 86, 0
1, 53280, Note_on_c, 9, 46, 0
1, 53280, Note_on_c, 0, 55, 0
1, 53280, Note_on_c, 9, 36, 0
1, 53280, Note_on_c, 9, 40, 0
1, 53280, Note_on_c, 1, 67, 0
1, 53280, Note_on_c, 0, 43, 100
1, 53280, Note_on_c, 2, 43, 100
1, 53280, Note_on_c, 3, 77, 100
1, 53280, Note_on_c, 5, 86, 100
1, 53280, Note_on_c, 9, 36, 100
1, 53280, Note_on_c, 9, 46, 100
1, 53310, Note_on_c, 5, 86, 0
1, 53310, Note_on_c, 3, 77, 0
1, 53310, Note_on_c, 3, 79, 100
1, 53310, Note_on_c, 5, 86, 100
1, 53340, Note_on_c, 5, 86, 0
1, 53340, Note_on_c, 9, 46, 0
1, 53340, Note_on_c, 2, 43, 0
1, 53340, Note_on_c, 0, 43, 0
1, 53340, Note_on_c, 3, 79, 0
1, 53340, Note_on_c, 9, 36, 0
1, 53340, Note_on_c, 0, 67, 100
1, 53340, Note_on_c, 0, 55, 100
1, 53340, Note_on_c, 1, 69, 100
1, 53340, Note_on_c, 1, 73, 100
1, 53340, Note_on_c, 3, 79, 100
1, 53340, Note_on_c, 5, 86, 100
1, 53340, Note_on_c, 9, 36, 100
1, 53340, Note_on_c, 9, 46, 100
1, 53370, Note_on_c, 5, 86, 0
1, 53370, Note_on_c, 3, 79, 0
1, 53370, Note_on_c, 3, 79, 100
1, 53370, Note_on_c, 5, 86, 100
1, 53400, Note_on_c, 5, 86, 0
1, 53400, Note_on_c, 1, 73, 0
1, 53400, Note_on_c, 0, 67, 0
1, 53400, Note_on_c, 0, 55, 0
1, 53400, Note_on_c, 1, 69, 0
1, 53400, Note_on_c, 9, 46, 0
1, 53400, Note_on_c, 9, 36, 0
1, 53400, Note_on_c, 3, 79, 0
1, 53400, Note_on_c, 0, 65, 100
1, 53400, Note_on_c, 0, 43, 100
1, 53400, Note_on_c, 1, 70, 100
1, 53400, Note_on_c, 1, 74, 100
1, 53400, Note_on_c, 2, 43, 100
1, 53400, Note_on_c, 3, 82, 100
1, 53400, Note_on_c, 5, 86, 100
1, 53400, Note_on_c, 9, 36, 100
1, 53400, Note_on_c, 9, 38, 100
1, 53400, Note_on_c, 9, 46, 100
1, 53430, Note_on_c, 5, 86, 0
1, 53430, Note_on_c, 3, 82, 0
1, 53430, Note_on_c, 3, 82, 100
1, 53430, Note_on_c, 5, 86, 100
1, 53460, Note_on_c, 5, 86, 0
1, 53460, Note_on_c, 1, 74, 0
1, 53460, Note_on_c, 9, 46, 0
1, 53460, Note_on_c, 0, 65, 0
1, 53460, Note_on_c, 2, 43, 0
1, 53460, Note_on_c, 0, 43, 0
1, 53460, Note_on_c, 1, 70, 0
1, 53460, Note_on_c, 0, 67, 100
1, 53460, Note_on_c, 0, 55, 100
1, 53460, Note_on_c, 5, 86, 100
1, 53460, Note_on_c, 9, 46, 100
1, 53490, Note_on_c, 5, 86, 0
1, 53490, Note_on_c, 3, 82, 0
1, 53490, Note_on_c, 3, 82, 100
1, 53490, Note_on_c, 5, 86, 100
1, 53520, Note_on_c, 5, 86, 0
1, 53520, Note_on_c, 9, 46, 0
1, 53520, Note_on_c, 0, 55, 0
1, 53520, Note_on_c, 0, 67, 0
1, 53520, Note_on_c, 9, 36, 0
1, 53520, Note_on_c, 9, 38, 0
1, 53520, Note_on_c, 0, 74, 100
1, 53520, Note_on_c, 0, 69, 100
1, 53520, Note_on_c, 0, 43, 100
1, 53520, Note_on_c, 1, 69, 100
1, 53520, Note_on_c, 2, 43, 100
1, 53520, Note_on_c, 5, 84, 100
1, 53520, Note_on_c, 9, 36, 100
1, 53520, Note_on_c, 9, 46, 100
1, 53550, Note_on_c, 5, 84, 0
1, 53550, Note_on_c, 0, 69, 0
1, 53550, Note_on_c, 1, 69, 0
1, 53550, Note_on_c, 0, 70, 100
1, 53550, Note_on_c, 1, 70, 100
1, 53550, Note_on_c, 5, 84, 100
1, 53580, Note_on_c, 5, 84, 0
1, 53580, Note_on_c, 9, 36, 0
1, 53580, Note_on_c, 9, 46, 0
1, 53580, Note_on_c, 1, 70, 0
1, 53580, Note_on_c, 2, 43, 0
1, 53580, Note_on_c, 0, 43, 0
1, 53580, Note_on_c, 3, 82, 0
1, 53580, Note_on_c, 0, 55, 100
1, 53580, Note_on_c, 1, 67, 100
1, 53580, Note_on_c, 2, 43, 100
1, 53580, Note_on_c, 5, 84, 100
1, 53580, Note_on_c, 9, 36, 100
1, 53580, Note_on_c, 9, 46, 100
1, 53610, Note_on_c, 9, 36, 0
1, 53610, Note_on_c, 1, 67, 0
1, 53610, Note_on_c, 2, 43, 0
1, 53610, Note_on_c, 0, 74, 0
1, 53610, Note_on_c, 0, 70, 0
1, 53610, Note_on_c, 5, 84, 0
1, 53610, Note_on_c, 0, 74, 100
1, 53610, Note_on_c, 0, 67, 100
1, 53610, Note_on_c, 1, 65, 100
1, 53610, Note_on_c, 2, 43, 100
1, 53610, Note_on_c, 5, 84, 100
1, 53610, Note_on_c, 9, 36, 100
1, 53640, Note_on_c, 9, 36, 0
1, 53640, Note_on_c, 5, 84, 0
1, 53640, Note_on_c, 1, 65, 0
1, 53640, Note_on_c, 9, 46, 0
1, 53640, Note_on_c, 0, 55, 0
1, 53640, Note_on_c, 2, 43, 0
1, 53640, Note_on_c, 0, 43, 100
1, 53640, Note_on_c, 1, 62, 100
1, 53640, Note_on_c, 2, 43, 100
1, 53640, Note_on_c, 3, 77, 100
1, 53640, Note_on_c, 5, 82, 100
1, 53640, Note_on_c, 9, 36, 100
1, 53640, Note_on_c, 9, 40, 100
1, 53640, Note_on_c, 9, 46, 100
1, 53660, Note_on_c, 3, 77, 0
1, 53660, Note_on_c, 3, 79, 100
1, 53670, Note_on_c, 0, 67, 0
1, 53670, Note_on_c, 0, 74, 0
1, 53670, Note_on_c, 5, 82, 0
1, 53670, Note_on_c, 1, 62, 0
1, 53670, Note_on_c, 0, 65, 100
1, 53670, Note_on_c, 1, 65, 100
1, 53670, Note_on_c, 5, 84, 100
1, 53680, Note_on_c, 3, 79, 0
1, 53680, Note_on_c, 3, 79, 100
1, 53700, Note_on_c, 3, 79, 0
1, 53700, Note_on_c, 1, 65, 0
1, 53700, Note_on_c, 2, 43, 0
1, 53700, Note_on_c, 0, 43, 0
1, 53700, Note_on_c, 5, 84, 0
1, 53700, Note_on_c, 9, 46, 0
1, 53700, Note_on_c, 0, 65, 0
1, 53700, Note_on_c, 0, 62, 100
1, 53700, Note_on_c, 0, 55, 100
1, 53700, Note_on_c, 1, 67, 100
1, 53700, Note_on_c, 3, 79, 100
1, 53700, Note_on_c, 5, 82, 100
1, 53700, Note_on_c, 9, 46, 100
1, 53730, Note_on_c, 0, 62, 0
1, 53760, Note_on_c, 9, 36, 0
1, 53760, Note_on_c, 3, 79, 0
1, 53760, Note_on_c, 9, 40, 0
1, 53760, Note_on_c, 0, 55, 0
1, 53760, Note_on_c, 1, 67, 0
1, 53760, Note_on_c, 5, 82, 0
1, 53760, Note_on_c, 9, 46, 0
1, 53760, Note_on_c, 0, 43, 100
1, 53760, Note_on_c, 2, 43, 100
1, 53760, Note_on_c, 5, 82, 100
1, 53760, Note_on_c, 9, 36, 100
1, 53760, Note_on_c, 9, 46, 100
1, 53820, Note_on_c, 9, 46, 0
1, 53820, Note_on_c, 5, 82, 0
1, 53820, Note_on_c, 0, 43, 0
1, 53820, Note_on_c, 2, 43, 0
1, 53820, Note_on_c, 9, 36, 0
1, 53820, Note_on_c, 0, 67, 100
1, 53820, Note_on_c, 0, 55, 100
1, 53820, Note_on_c, 1, 69, 100
1, 53820, Note_on_c, 1, 73, 100
1, 53820, Note_on_c, 3, 82, 100
1, 53820, Note_on_c, 5, 79, 100
1, 53820, Note_on_c, 9, 36, 100
1, 53820, Note_on_c, 9, 46, 100
1, 53850, Note_on_c, 3, 82, 0
1, 53850, Note_on_c, 3, 84, 100
1, 53880, Note_on_c, 3, 84, 0
1, 53880, Note_on_c, 1, 73, 0
1, 53880, Note_on_c, 0, 55, 0
1, 53880, Note_on_c, 0, 67, 0
1, 53880, Note_on_c, 1, 69, 0
1, 53880, Note_on_c, 9, 46, 0
1, 53880, Note_on_c, 9, 36, 0
1, 53880, Note_on_c, 0, 65, 100
1, 53880, Note_on_c, 0, 43, 100
1, 53880, Note_on_c, 1, 70, 100
1, 53880, Note_on_c, 1, 74, 100
1, 53880, Note_on_c, 2, 43, 100
1, 53880, Note_on_c, 3, 82, 100
1, 53880, Note_on_c, 9, 36, 100
1, 53880, Note_on_c, 9, 38, 100
1, 53880, Note_on_c, 9, 46, 100
1, 53940, Note_on_c, 9, 46, 0
1, 53940, Note_on_c, 0, 43, 0
1, 53940, Note_on_c, 2, 43, 0
1, 53940, Note_on_c, 1, 70, 0
1, 53940, Note_on_c, 1, 74, 0
1, 53940, Note_on_c, 0, 65, 0
1, 53940, Note_on_c, 0, 67, 100
1, 53940, Note_on_c, 0, 55, 100
1, 53940, Note_on_c, 9, 46, 100
1, 54000, Note_on_c, 9, 46, 0
1, 54000, Note_on_c, 0, 67, 0
1, 54000, Note_on_c, 3, 82, 0
1, 54000, Note_on_c, 9, 38, 0
1, 54000, Note_on_c, 9, 36, 0
1, 54000, Note_on_c, 0, 55, 0
1, 54000, Note_on_c, 0, 74, 100
1, 54000, Note_on_c, 0, 69, 100
1, 54000, Note_on_c, 0, 43, 100
1, 54000, Note_on_c, 1, 69, 100
1, 54000, Note_on_c, 2, 43, 100
1, 54000, Note_on_c, 9, 36, 100
1, 54000, Note_on_c, 9, 46, 100
1, 54030, Note_on_c, 1, 69, 0
1, 54030, Note_on_c, 0, 69, 0
1, 54030, Note_on_c, 0, 70, 100
1, 54030, Note_on_c, 1, 70, 100
1, 54060, Note_on_c, 1, 70, 0
1, 54060, Note_on_c, 2, 43, 0
1, 54060, Note_on_c, 9, 46, 0
1, 54060, Note_on_c, 5, 79, 0
1, 54060, Note_on_c, 0, 43, 0
1, 54060, Note_on_c, 9, 36, 0
1, 54060, Note_on_c, 0, 55, 100
1, 54060, Note_on_c, 1, 67, 100
1, 54060, Note_on_c, 2, 43, 100
1, 54060, Note_on_c, 5, 79, 100
1, 54060, Note_on_c, 9, 36, 100
1, 54060, Note_on_c, 9, 46, 100
1, 54080, Note_on_c, 5, 79, 0
1, 54080, Note_on_c, 5, 78, 100
1, 54090, Note_on_c, 1, 67, 0
1, 54090, Note_on_c, 0, 70, 0
1, 54090, Note_on_c, 2, 43, 0
1, 54090, Note_on_c, 0, 74, 0
1, 54090, Note_on_c, 9, 36, 0
1, 54090, Note_on_c, 0, 74, 100
1, 54090, Note_on_c, 0, 67, 100
1, 54090, Note_on_c, 1, 65, 100
1, 54090, Note_on_c, 2, 43, 100
1, 54090, Note_on_c, 9, 36, 100
1, 54100, Note_on_c, 5, 78, 0
1, 54100, Note_on_c, 5, 77, 100
1, 54120, Note_on_c, 5, 77, 0
1, 54120, Note_on_c, 9, 36, 0
1, 54120, Note_on_c, 1, 65, 0
1, 54120, Note_on_c, 9, 46, 0
1, 54120, Note_on_c, 0, 55, 0
1, 54120, Note_on_c, 2, 43, 0
1, 54120, Note_on_c, 0, 43, 100
1, 54120, Note_on_c, 1, 62, 100
1, 54120, Note_on_c, 2, 43, 100
1, 54120, Note_on_c, 3, 77, 100
1, 54120, Note_on_c, 5, 74, 100
1, 54120, Note_on_c, 9, 36, 100
1, 54120, Note_on_c, 9, 40, 100
1, 54120, Note_on_c, 9, 46, 100
1, 54135, Note_on_c, 5, 74, 0
1, 54140, Note_on_c, 3, 77, 0
1, 54140, Note_on_c, 3, 79, 100
1, 54150, Note_on_c, 0, 74, 0
1, 54150, Note_on_c, 0, 67, 0
1, 54150, Note_on_c, 1, 62, 0
1, 54150, Note_on_c, 0, 65, 100
1, 54150, Note_on_c, 1, 65, 100
1, 54160, Note_on_c, 3, 79, 0
1, 54160, Note_on_c, 3, 79, 100
1, 54180, Note_on_c, 3, 79, 0
1, 54180, Note_on_c, 1, 65, 0
1, 54180, Note_on_c, 0, 43, 0
1, 54180, Note_on_c, 2, 43, 0
1, 54180, Note_on_c, 9, 46, 0
1, 54180, Note_on_c, 0, 65, 0
1, 54180, Note_on_c, 0, 62, 100
1, 54180, Note_on_c, 0, 55, 100
1, 54180, Note_on_c, 1, 67, 100
1, 54180, Note_on_c, 3, 79, 100
1, 54180, Note_on_c, 9, 46, 100
1, 54210, Note_on_c, 0, 62, 0
1, 54240, Note_on_c, 9, 40, 0
1, 54240, Note_on_c, 1, 67, 0
1, 54240, Note_on_c, 0, 55, 0
1, 54240, Note_on_c, 9, 36, 0
1, 54240, Note_on_c, 9, 46, 0
1, 54240, Note_on_c, 0, 43, 100
1, 54240, Note_on_c, 2, 43, 100
1, 54240, Note_on_c, 9, 36, 100
1, 54240, Note_on_c, 9, 46, 100
1, 54300, Note_on_c, 9, 46, 0
1, 54300, Note_on_c, 2, 43, 0
1, 54300, Note_on_c, 3, 79, 0
1, 54300, Note_on_c, 0, 43, 0
1, 54300, Note_on_c, 9, 36, 0
1, 54300, Note_on_c, 0, 67, 100
1, 54300, Note_on_c, 0, 55, 100
1, 54300, Note_on_c, 1, 69, 100
1, 54300, Note_on_c, 1, 73, 100
1, 54300, Note_on_c, 3, 82, 100
1, 54300, Note_on_c, 9, 36, 100
1, 54300, Note_on_c, 9, 46, 100
1, 54330, Note_on_c, 3, 82, 0
1, 54330, Note_on_c, 3, 84, 100
1, 54360, Note_on_c, 3, 84, 0
1, 54360, Note_on_c, 9, 46, 0
1, 54360, Note_on_c, 0, 55, 0
1, 54360, Note_on_c, 1, 69, 0
1, 54360, Note_on_c, 0, 67, 0
1, 54360, Note_on_c, 9, 36, 0
1, 54360, Note_on_c, 1, 73, 0
1, 54360, Note_on_c, 0, 65, 100
1, 54360, Note_on_c, 0, 43, 100
1, 54360, Note_on_c, 1, 70, 100
1, 54360, Note_on_c, 1, 74, 100
1, 54360, Note_on_c, 2, 43, 100
1, 54360, Note_on_c, 3, 82, 100
1, 54360, Note_on_c, 9, 36, 100
1, 54360, Note_on_c, 9, 38, 100
1, 54360, Note_on_c, 9, 46, 100
1, 54420, Note_on_c, 9, 46, 0
1, 54420, Note_on_c, 0, 65, 0
1, 54420, Note_on_c, 2, 43, 0
1, 54420, Note_on_c, 1, 74, 0
1, 54420, Note_on_c, 1, 70, 0
1, 54420, Note_on_c, 0, 43, 0
1, 54420, Note_on_c, 0, 67, 100
1, 54420, Note_on_c, 0, 55, 100
1, 54420, Note_on_c, 9, 46, 100
1, 54480, Note_on_c, 9, 46, 0
1, 54480, Note_on_c, 9, 36, 0
1, 54480, Note_on_c, 9, 38, 0
1, 54480, Note_on_c, 3, 82, 0
1, 54480, Note_on_c, 0, 55, 0
1, 54480, Note_on_c, 0, 67, 0
1, 54480, Note_on_c, 0, 74, 100
1, 54480, Note_on_c, 0, 69, 100
1, 54480, Note_on_c, 0, 43, 100
1, 54480, Note_on_c, 1, 69, 100
1, 54480, Note_on_c, 2, 43, 100
1, 54480, Note_on_c, 9, 36, 100
1, 54480, Note_on_c, 9, 46, 100
1, 54510, Note_on_c, 1, 69, 0
1, 54510, Note_on_c, 0, 69, 0
1, 54510, Note_on_c, 0, 70, 100
1, 54510, Note_on_c, 1, 70, 100
1, 54540, Note_on_c, 1, 70, 0
1, 54540, Note_on_c, 9, 46, 0
1, 54540, Note_on_c, 9, 36, 0
1, 54540, Note_on_c, 2, 43, 0
1, 54540, Note_on_c, 0, 43, 0
1, 54540, Note_on_c, 0, 55, 100
1, 54540, Note_on_c, 1, 67, 100
1, 54540, Note_on_c, 2, 43, 100
1, 54540, Note_on_c, 9, 36, 100
1, 54540, Note_on_c, 9, 46, 100
1, 54570, Note_on_c, 9, 36, 0
1, 54570, Note_on_c, 1, 67, 0
1, 54570, Note_on_c, 0, 70, 0
1, 54570, Note_on_c, 0, 74, 0
1, 54570, Note_on_c, 2, 43, 0
1, 54570, Note_on_c, 0, 74, 100
1, 54570, Note_on_c, 0, 67, 100
1, 54570, Note_on_c, 1, 65, 100
1, 54570, Note_on_c, 2, 43, 100
1, 54570, Note_on_c, 9, 36, 100
1, 54600, Note_on_c, 9, 36, 0
1, 54600, Note_on_c, 1, 65, 0
1, 54600, Note_on_c, 9, 46, 0
1, 54600, Note_on_c, 0, 55, 0
1, 54600, Note_on_c, 2, 43, 0
1, 54600, Note_on_c, 0, 43, 100
1, 54600, Note_on_c, 1, 62, 100
1, 54600, Note_on_c, 2, 43, 100
1, 54600, Note_on_c, 3, 77, 100
1, 54600, Note_on_c, 9, 36, 100
1, 54600, Note_on_c, 9, 40, 100
1, 54600, Note_on_c, 9, 46, 100
1, 54620, Note_on_c, 3, 77, 0
1, 54620, Note_on_c, 3, 79, 100
1, 54630, Note_on_c, 0, 67, 0
1, 54630, Note_on_c, 0, 74, 0
1, 54630, Note_on_c, 1, 62, 0
1, 54630, Note_on_c, 0, 65, 100
1, 54630, Note_on_c, 1, 65, 100
1, 54640, Note_on_c, 3, 79, 0
1, 54640, Note_on_c, 3, 79, 100
1, 54660, Note_on_c, 3, 79, 0
1, 54660, Note_on_c, 1, 65, 0
1, 54660, Note_on_c, 0, 43, 0
1, 54660, Note_on_c, 9, 46, 0
1, 54660, Note_on_c, 2, 43, 0
1, 54660, Note_on_c, 0, 65, 0
1, 54660, Note_on_c, 0, 62, 100
1, 54660, Note_on_c, 0, 55, 100
1, 54660, Note_on_c, 1, 67, 100
1, 54660, Note_on_c, 3, 79, 100
1, 54660, Note_on_c, 9, 46, 100
1, 54690, Note_on_c, 0, 62, 0
1, 54720, Note_on_c, 3, 79, 0
1, 54720, Note_on_c, 9, 36, 0
1, 54720, Note_on_c, 0, 55, 0
1, 54720, Note_on_c, 9, 40, 0
1, 54720, Note_on_c, 9, 46, 0
1, 54720, Note_on_c, 1, 67, 0
1, 54720, Note_on_c, 0, 46, 100
1, 54720, Note_on_c, 0, 65, 100
1, 54720, Note_on_c, 0, 74, 100
1, 54720, Note_on_c, 0, 70, 100
1, 54720, Note_on_c, 1, 74, 100
1, 54720, Note_on_c, 2, 46, 100
1, 54720, Note_on_c, 5, 74, 100
1, 54720, Note_on_c, 9, 36, 100
1, 54720, Note_on_c, 9, 49, 100
1, 54750, Note_on_c, 5, 74, 0
1, 54750, Note_on_c, 1, 74, 0
1, 54750, Note_on_c, 1, 74, 100
1, 54750, Note_on_c, 5, 74, 100
1, 54780, Note_on_c, 9, 49, 0
1, 54780, Note_on_c, 9, 36, 0
1, 54780, Note_on_c, 9, 36, 100
1, 54780, Note_on_c, 9, 46, 100
1, 54810, Note_on_c, 1, 82, 100
1, 54810, Note_on_c, 5, 82, 100
1, 54840, Note_on_c, 9, 46, 0
1, 54840, Note_on_c, 9, 36, 0
1, 54840, Note_on_c, 9, 40, 100
1, 54840, Note_on_c, 9, 46, 100
1, 54870, Note_on_c, 1, 82, 0
1, 54870, Note_on_c, 5, 82, 0
1, 54870, Note_on_c, 1, 82, 100
1, 54870, Note_on_c, 5, 82, 100
1, 54900, Note_on_c, 5, 82, 0
1, 54900, Note_on_c, 9, 46, 0
1, 54900, Note_on_c, 1, 82, 0
1, 54900, Note_on_c, 0, 46, 0
1, 54900, Note_on_c, 0, 46, 100
1, 54900, Note_on_c, 1, 74, 100
1, 54900, Note_on_c, 5, 74, 100
1, 54900, Note_on_c, 9, 46, 100
1, 54930, Note_on_c, 9, 40, 0
1, 54930, Note_on_c, 9, 38, 100
1, 54960, Note_on_c, 9, 38, 0
1, 54960, Note_on_c, 5, 74, 0
1, 54960, Note_on_c, 0, 70, 0
1, 54960, Note_on_c, 5, 74, 0
1, 54960, Note_on_c, 1, 74, 0
1, 54960, Note_on_c, 2, 46, 0
1, 54960, Note_on_c, 0, 74, 0
1, 54960, Note_on_c, 9, 46, 0
1, 54960, Note_on_c, 0, 46, 0
1, 54960, Note_on_c, 0, 65, 0
1, 54960, Note_on_c, 1, 74, 0
1, 54960, Note_on_c, 0, 48, 100
1, 54960, Note_on_c, 0, 76, 100
1, 54960, Note_on_c, 0, 72, 100
1, 54960, Note_on_c, 0, 67, 100
1, 54960, Note_on_c, 1, 74, 100
1, 54960, Note_on_c, 2, 48, 100
1, 54960, Note_on_c, 5, 74, 100
1, 54960, Note_on_c, 9, 36, 100
1, 54960, Note_on_c, 9, 49, 100
1, 54990, Note_on_c, 5, 74, 0
1, 54990, Note_on_c, 1, 74, 0
1, 54990, Note_on_c, 1, 76, 100
1, 54990, Note_on_c, 5, 76, 100
1, 55020, Note_on_c, 9, 49, 0
1, 55020, Note_on_c, 9, 36, 0
1, 55020, Note_on_c, 9, 36, 100
1, 55020, Note_on_c, 9, 42, 100
1, 55050, Note_on_c, 1, 84, 100
1, 55050, Note_on_c, 5, 84, 100
1, 55080, Note_on_c, 9, 42, 0
1, 55080, Note_on_c, 9, 36, 0
1, 55080, Note_on_c, 1, 76, 0
1, 55080, Note_on_c, 5, 76, 0
1, 55080, Note_on_c, 1, 76, 100
1, 55080, Note_on_c, 5, 76, 100
1, 55080, Note_on_c, 9, 38, 100
1, 55080, Note_on_c, 9, 42, 100
1, 55110, Note_on_c, 1, 84, 0
1, 55110, Note_on_c, 5, 84, 0
1, 55110, Note_on_c, 1, 84, 100
1, 55110, Note_on_c, 5, 84, 100
1, 55140, Note_on_c, 5, 84, 0
1, 55140, Note_on_c, 1, 84, 0
1, 55140, Note_on_c, 9, 42, 0
1, 55140, Note_on_c, 0, 48, 0
1, 55140, Note_on_c, 0, 48, 100
1, 55140, Note_on_c, 1, 76, 100
1, 55140, Note_on_c, 5, 76, 100
1, 55140, Note_on_c, 9, 42, 100
1, 55170, Note_on_c, 9, 38, 0
1, 55170, Note_on_c, 9, 38, 100
1, 55200, Note_on_c, 9, 38, 0
1, 55200, Note_on_c, 5, 76, 0
1, 55200, Note_on_c, 0, 76, 0
1, 55200, Note_on_c, 0, 67, 0
1, 55200, Note_on_c, 5, 76, 0
1, 55200, Note_on_c, 2, 48, 0
1, 55200, Note_on_c, 0, 72, 0
1, 55200, Note_on_c, 9, 42, 0
1, 55200, Note_on_c, 0, 48, 0
1, 55200, Note_on_c, 1, 76, 0
1, 55200, Note_on_c, 1, 76, 0
1, 55200, Note_on_c, 0, 51, 100
1, 55200, Note_on_c, 0, 67, 100
1, 55200, Note_on_c, 0, 70, 100
1, 55200, Note_on_c, 0, 75, 100
1, 55200, Note_on_c, 1, 77, 100
1, 55200, Note_on_c, 2, 51, 100
1, 55200, Note_on_c, 5, 77, 100
1, 55200, Note_on_c, 9, 36, 100
1, 55200, Note_on_c, 9, 49, 100
1, 55230, Note_on_c, 5, 77, 0
1, 55230, Note_on_c, 1, 77, 0
1, 55230, Note_on_c, 1, 79, 100
1, 55230, Note_on_c, 5, 79, 100
1, 55260, Note_on_c, 9, 49, 0
1, 55260, Note_on_c, 9, 36, 0
1, 55260, Note_on_c, 9, 36, 100
1, 55260, Note_on_c, 9, 42, 100
1, 55290, Note_on_c, 1, 87, 100
1, 55290, Note_on_c, 5, 87, 100
1, 55320, Note_on_c, 9, 42, 0
1, 55320, Note_on_c, 9, 36, 0
1, 55320, Note_on_c, 9, 40, 100
1, 55320, Note_on_c, 9, 42, 100
1, 55350, Note_on_c, 1, 87, 0
1, 55350, Note_on_c, 5, 87, 0
1, 55350, Note_on_c, 1, 87, 100
1, 55350, Note_on_c, 5, 87, 100
1, 55380, Note_on_c, 5, 87, 0
1, 55380, Note_on_c, 1, 87, 0
1, 55380, Note_on_c, 9, 42, 0
1, 55380, Note_on_c, 1, 79, 100
1, 55380, Note_on_c, 5, 79, 100
1, 55380, Note_on_c, 9, 42, 100
1, 55410, Note_on_c, 9, 40, 0
1, 55410, Note_on_c, 9, 40, 100
1, 55440, Note_on_c, 9, 40, 0
1, 55440, Note_on_c, 5, 79, 0
1, 55440, Note_on_c, 0, 70, 0
1, 55440, Note_on_c, 0, 51, 0
1, 55440, Note_on_c, 5, 79, 0
1, 55440, Note_on_c, 2, 51, 0
1, 55440, Note_on_c, 0, 67, 0
1, 55440, Note_on_c, 9, 42, 0
1, 55440, Note_on_c, 1, 79, 0
1, 55440, Note_on_c, 0, 75, 0
1, 55440, Note_on_c, 1, 79, 0
1, 55440, Note_on_c, 0, 53, 100
1, 55440, Note_on_c, 0, 75, 100
1, 55440, Note_on_c, 0, 69, 100
1, 55440, Note_on_c, 0, 65, 100
1, 55440, Note_on_c, 1, 79, 100
1, 55440, Note_on_c, 2, 53, 100
1, 55440, Note_on_c, 5, 79, 100
1, 55440, Note_on_c, 9, 36, 100
1, 55440, Note_on_c, 9, 38, 100
1, 55440, Note_on_c, 9, 49, 100
1, 55470, Note_on_c, 9, 38, 0
1, 55470, Note_on_c, 9, 36, 0
1, 55470, Note_on_c, 5, 79, 0
1, 55470, Note_on_c, 1, 79, 0
1, 55470, Note_on_c, 1, 81, 100
1, 55470, Note_on_c, 5, 81, 100
1, 55470, Note_on_c, 9, 40, 100
1, 55500, Note_on_c, 9, 40, 0
1, 55500, Note_on_c, 9, 49, 0
1, 55500, Note_on_c, 2, 53, 0
1, 55500, Note_on_c, 2, 53, 100
1, 55500, Note_on_c, 9, 38, 100
1, 55500, Note_on_c, 9, 42, 100
1, 55530, Note_on_c, 0, 53, 0
1, 55530, Note_on_c, 0, 53, 100
1, 55530, Note_on_c, 1, 89, 100
1, 55530, Note_on_c, 5, 89, 100
1, 55560, Note_on_c, 9, 42, 0
1, 55560, Note_on_c, 9, 38, 0
1, 55560, Note_on_c, 9, 38, 100
1, 55560, Note_on_c, 9, 42, 100
1, 55590, Note_on_c, 1, 89, 0
1, 55590, Note_on_c, 0, 53, 0
1, 55590, Note_on_c, 5, 89, 0
1, 55590, Note_on_c, 0, 53, 100
1, 55590, Note_on_c, 1, 89, 100
1, 55590, Note_on_c, 5, 89, 100
1, 55620, Note_on_c, 5, 89, 0
1, 55620, Note_on_c, 9, 38, 0
1, 55620, Note_on_c, 1, 89, 0
1, 55620, Note_on_c, 9, 42, 0
1, 55620, Note_on_c, 0, 53, 0
1, 55620, Note_on_c, 2, 53, 0
1, 55620, Note_on_c, 0, 53, 100
1, 55620, Note_on_c, 1, 81, 100
1, 55620, Note_on_c, 2, 41, 100
1, 55620, Note_on_c, 5, 81, 100
1, 55620, Note_on_c, 9, 38, 100
1, 55620, Note_on_c, 9, 42, 100
1, 55650, Note_on_c, 9, 38, 0
1, 55650, Note_on_c, 9, 40, 100
1, 55680, Note_on_c, 9, 40, 0
1, 55680, Note_on_c, 5, 81, 0
1, 55680, Note_on_c, 0, 65, 0
1, 55680, Note_on_c, 5, 81, 0
1, 55680, Note_on_c, 1, 81, 0
1, 55680, Note_on_c, 0, 69, 0
1, 55680, Note_on_c, 0, 75, 0
1, 55680, Note_on_c, 9, 42, 0
1, 55680, Note_on_c, 1, 81, 0
1, 55680, Note_on_c, 0, 53, 0
1, 55680, Note_on_c, 2, 41, 0
1, 55680, Note_on_c, 0, 43, 100
1, 55680, Note_on_c, 2, 43, 100
1, 55680, Note_on_c, 9, 36, 100
1, 55680, Note_on_c, 9, 49, 100
1, 55740, Note_on_c, 9, 49, 0
1, 55740, Note_on_c, 0, 43, 0
1, 55740, Note_on_c, 2, 43, 0
1, 55740, Note_on_c, 9, 36, 0
1, 55740, Note_on_c, 0, 67, 100
1, 55740, Note_on_c, 0, 55, 100
1, 55740, Note_on_c, 1, 86, 100
1, 55740, Note_on_c, 1, 81, 100
1, 55740, Note_on_c, 5, 86, 100
1, 55740, Note_on_c, 5, 81, 100
1, 55740, Note_on_c, 9, 36, 100
1, 55740, Note_on_c, 9, 46, 100
1, 55800, Note_on_c, 9, 46, 0
1, 55800, Note_on_c, 0, 67, 0
1, 55800, Note_on_c, 5, 86, 0
1, 55800, Note_on_c, 0, 55, 0
1, 55800, Note_on_c, 1, 86, 0
1, 55800, Note_on_c, 1, 81, 0
1, 55800, Note_on_c, 5, 81, 0
1, 55800, Note_on_c, 9, 36, 0
1, 55800, Note_on_c, 0, 65, 100
1, 55800, Note_on_c, 0, 43, 100
1, 55800, Note_on_c, 1, 86, 100
1, 55800, Note_on_c, 1, 82, 100
1, 55800, Note_on_c, 2, 43, 100
1, 55800, Note_on_c, 5, 86, 100
1, 55800, Note_on_c, 5, 82, 100
1, 55800, Note_on_c, 9, 40, 100
1, 55800, Note_on_c, 9, 36, 100
1, 55800, Note_on_c, 9, 46, 100
1, 55860, Note_on_c, 9, 46, 0
1, 55860, Note_on_c, 1, 86, 0
1, 55860, Note_on_c, 5, 82, 0
1, 55860, Note_on_c, 0, 65, 0
1, 55860, Note_on_c, 2, 43, 0
1, 55860, Note_on_c, 0, 43, 0
1, 55860, Note_on_c, 1, 82, 0
1, 55860, Note_on_c, 5, 86, 0
1, 55860, Note_on_c, 0, 67, 100
1, 55860, Note_on_c, 0, 55, 100
1, 55860, Note_on_c, 9, 46, 100
1, 55920, Note_on_c, 9, 46, 0
1, 55920, Note_on_c, 0, 67, 0
1, 55920, Note_on_c, 9, 40, 0
1, 55920, Note_on_c, 9, 36, 0
1, 55920, Note_on_c, 0, 55, 0
1, 55920, Note_on_c, 0, 74, 100
1, 55920, Note_on_c, 0, 69, 100
1, 55920, Note_on_c, 0, 43, 100
1, 55920, Note_on_c, 1, 81, 100
1, 55920, Note_on_c, 2, 43, 100
1, 55920, Note_on_c, 5, 81, 100
1, 55920, Note_on_c, 9, 36, 100
1, 55920, Note_on_c, 9, 46, 100
1, 55950, Note_on_c, 5, 81, 0
1, 55950, Note_on_c, 0, 69, 0
1, 55950, Note_on_c, 1, 81, 0
1, 55950, Note_on_c, 0, 70, 100
1, 55950, Note_on_c, 1, 82, 100
1, 55950, Note_on_c, 5, 82, 100
1, 55980, Note_on_c, 5, 82, 0
1, 55980, Note_on_c, 1, 82, 0
1, 55980, Note_on_c, 9, 36, 0
1, 55980, Note_on_c, 9, 46, 0
1, 55980, Note_on_c, 2, 43, 0
1, 55980, Note_on_c, 0, 43, 0
1, 55980, Note_on_c, 0, 55, 100
1, 55980, Note_on_c, 1, 79, 100
1, 55980, Note_on_c, 5, 79, 100
1, 55980, Note_on_c, 9, 36, 100
1, 55980, Note_on_c, 9, 46, 100
1, 56010, Note_on_c, 9, 36, 0
1, 56010, Note_on_c, 1, 79, 0
1, 56010, Note_on_c, 0, 70, 0
1, 56010, Note_on_c, 0, 74, 0
1, 56010, Note_on_c, 5, 79, 0
1, 56010, Note_on_c, 0, 74, 100
1, 56010, Note_on_c, 0, 67, 100
1, 56010, Note_on_c, 1, 77, 100
1, 56010, Note_on_c, 5, 77, 100
1, 56010, Note_on_c, 9, 36, 100
1, 56040, Note_on_c, 9, 36, 0
1, 56040, Note_on_c, 1, 77, 0
1, 56040, Note_on_c, 9, 46, 0
1, 56040, Note_on_c, 0, 55, 0
1, 56040, Note_on_c, 5, 77, 0
1, 56040, Note_on_c, 0, 43, 100
1, 56040, Note_on_c, 1, 74, 100
1, 56040, Note_on_c, 2, 43, 100
1, 56040, Note_on_c, 5, 74, 100
1, 56040, Note_on_c, 9, 36, 100
1, 56040, Note_on_c, 9, 38, 100
1, 56040, Note_on_c, 9, 46, 100
1, 56070, Note_on_c, 5, 74, 0
1, 56070, Note_on_c, 0, 67, 0
1, 56070, Note_on_c, 0, 74, 0
1, 56070, Note_on_c, 1, 74, 0
1, 56070, Note_on_c, 0, 65, 100
1, 56070, Note_on_c, 1, 77, 100
1, 56070, Note_on_c, 5, 77, 100
1, 56100, Note_on_c, 5, 77, 0
1, 56100, Note_on_c, 1, 77, 0
1, 56100, Note_on_c, 9, 46, 0
1, 56100, Note_on_c, 0, 43, 0
1, 56100, Note_on_c, 2, 43, 0
1, 56100, Note_on_c, 0, 65, 0
1, 56100, Note_on_c, 0, 62, 100
1, 56100, Note_on_c, 0, 55, 100
1, 56100, Note_on_c, 1, 79, 100
1, 56100, Note_on_c, 5, 79, 100
1, 56100, Note_on_c, 9, 46, 100
1, 56130, Note_on_c, 0, 62, 0
1, 56160, Note_on_c, 5, 79, 0
1, 56160, Note_on_c, 9, 38, 0
1, 56160, Note_on_c, 0, 55, 0
1, 56160, Note_on_c, 9, 36, 0
1, 56160, Note_on_c, 9, 46, 0
1, 56160, Note_on_c, 1, 79, 0
1, 56160, Note_on_c, 0, 43, 100
1, 56160, Note_on_c, 2, 43, 100
1, 56160, Note_on_c, 9, 36, 100
1, 56160, Note_on_c, 9, 46, 100
1, 56220, Note_on_c, 9, 46, 0
1, 56220, Note_on_c, 0, 43, 0
1, 56220, Note_on_c, 2, 43, 0
1, 56220, Note_on_c, 9, 36, 0
1, 56220, Note_on_c, 0, 67, 100
1, 56220, Note_on_c, 0, 55, 100
1, 56220, Note_on_c, 1, 86, 100
1, 56220, Note_on_c, 1, 81, 100
1, 56220, Note_on_c, 5, 86, 100
1, 56220, Note_on_c, 5, 81, 100
1, 56220, Note_on_c, 9, 36, 100
1, 56220, Note_on_c, 9, 46, 100
1, 56280, Note_on_c, 9, 46, 0
1, 56280, Note_on_c, 0, 67, 0
1, 56280, Note_on_c, 5, 86, 0
1, 56280, Note_on_c, 0, 55, 0
1, 56280, Note_on_c, 1, 86, 0
1, 56280, Note_on_c, 1, 81, 0
1, 56280, Note_on_c, 5, 81, 0
1, 56280, Note_on_c, 9, 36, 0
1, 56280, Note_on_c, 0, 65, 100
1, 56280, Note_on_c, 0, 43, 100
1, 56280, Note_on_c, 1, 86, 100
1, 56280, Note_on_c, 1, 82, 100
1, 56280, Note_on_c, 2, 43, 100
1, 56280, Note_on_c, 5, 86, 100
1, 56280, Note_on_c, 5, 82, 100
1, 56280, Note_on_c, 9, 36, 100
1, 56280, Note_on_c, 9, 38, 100
1, 56280, Note_on_c, 9, 46, 100
1, 56340, Note_on_c, 9, 46, 0
1, 56340, Note_on_c, 1, 86, 0
1, 56340, Note_on_c, 5, 82, 0
1, 56340, Note_on_c, 0, 65, 0
1, 56340, Note_on_c, 2, 43, 0
1, 56340, Note_on_c, 0, 43, 0
1, 56340, Note_on_c, 1, 82, 0
1, 56340, Note_on_c, 5, 86, 0
1, 56340, Note_on_c, 0, 67, 100
1, 56340, Note_on_c, 0, 55, 100
1, 56340, Note_on_c, 9, 46, 100
1, 56400, Note_on_c, 9, 46, 0
1, 56400, Note_on_c, 0, 67, 0
1, 56400, Note_on_c, 9, 36, 0
1, 56400, Note_on_c, 9, 38, 0
1, 56400, Note_on_c, 0, 55, 0
1, 56400, Note_on_c, 0, 74, 100
1, 56400, Note_on_c, 0, 69, 100
1, 56400, Note_on_c, 0, 43, 100
1, 56400, Note_on_c, 1, 81, 100
1, 56400, Note_on_c, 2, 43, 100
1, 56400, Note_on_c, 5, 81, 100
1, 56400, Note_on_c, 9, 36, 100
1, 56400, Note_on_c, 9, 46, 100
1, 56430, Note_on_c, 5, 81, 0
1, 56430, Note_on_c, 0, 69, 0
1, 56430, Note_on_c, 1, 81, 0
1, 56430, Note_on_c, 0, 70, 100
1, 56430, Note_on_c, 1, 82, 100
1, 56430, Note_on_c, 5, 82, 100
1, 56460, Note_on_c, 5, 82, 0
1, 56460, Note_on_c, 1, 82, 0
1, 56460, Note_on_c, 9, 36, 0
1, 56460, Note_on_c, 9, 46, 0
1, 56460, Note_on_c, 2, 43, 0
1, 56460, Note_on_c, 0, 43, 0
1, 56460, Note_on_c, 0, 55, 100
1, 56460, Note_on_c, 1, 79, 100
1, 56460, Note_on_c, 5, 79, 100
1, 56460, Note_on_c, 9, 36, 100
1, 56460, Note_on_c, 9, 46, 100
1, 56490, Note_on_c, 9, 36, 0
1, 56490, Note_on_c, 1, 79, 0
1, 56490, Note_on_c, 0, 70, 0
1, 56490, Note_on_c, 0, 74, 0
1, 56490, Note_on_c, 5, 79, 0
1, 56490, Note_on_c, 0, 74, 100
1, 56490, Note_on_c, 0, 65, 100
1, 56490, Note_on_c, 1, 77, 100
1, 56490, Note_on_c, 5, 77, 100
1, 56490, Note_on_c, 9, 36, 100
1, 56520, Note_on_c, 9, 36, 0
1, 56520, Note_on_c, 1, 77, 0
1, 56520, Note_on_c, 9, 46, 0
1, 56520, Note_on_c, 0, 55, 0
1, 56520, Note_on_c, 5, 77, 0
1, 56520, Note_on_c, 0, 43, 100
1, 56520, Note_on_c, 1, 74, 100
1, 56520, Note_on_c, 2, 43, 100
1, 56520, Note_on_c, 3, 82, 100
1, 56520, Note_on_c, 5, 74, 100
1, 56520, Note_on_c, 9, 36, 100
1, 56520, Note_on_c, 9, 40, 100
1, 56520, Note_on_c, 9, 46, 100
1, 56550, Note_on_c, 5, 74, 0
1, 56550, Note_on_c, 0, 65, 0
1, 56550, Note_on_c, 0, 74, 0
1, 56550, Note_on_c, 1, 74, 0
1, 56550, Note_on_c, 0, 72, 100
1, 56550, Note_on_c, 0, 65, 100
1, 56550, Note_on_c, 1, 77, 100
1, 56550, Note_on_c, 5, 77, 100
1, 56580, Note_on_c, 5, 77, 0
1, 56580, Note_on_c, 1, 77, 0
1, 56580, Note_on_c, 9, 46, 0
1, 56580, Note_on_c, 0, 72, 0
1, 56580, Note_on_c, 0, 43, 0
1, 56580, Note_on_c, 2, 43, 0
1, 56580, Note_on_c, 0, 70, 100
1, 56580, Note_on_c, 0, 55, 100
1, 56580, Note_on_c, 1, 79, 100
1, 56580, Note_on_c, 5, 79, 100
1, 56580, Note_on_c, 9, 46, 100
1, 56610, Note_on_c, 0, 70, 0
1, 56610, Note_on_c, 0, 65, 0
1, 56610, Note_on_c, 0, 70, 100
1, 56610, Note_on_c, 0, 65, 100
1, 56640, Note_on_c, 0, 65, 0
1, 56640, Note_on_c, 5, 79, 0
1, 56640, Note_on_c, 9, 46, 0
1, 56640, Note_on_c, 0, 55, 0
1, 56640, Note_on_c, 3, 82, 0
1, 56640, Note_on_c, 9, 36, 0
1, 56640, Note_on_c, 9, 40, 0
1, 56640, Note_on_c, 1, 79, 0
1, 56640, Note_on_c, 0, 70, 0
1, 56640, Note_on_c, 0, 43, 100
1, 56640, Note_on_c, 2, 43, 100
1, 56640, Note_on_c, 9, 36, 100
1, 56640, Note_on_c, 9, 49, 100
1, 56700, Note_on_c, 9, 49, 0
1, 56700, Note_on_c, 0, 43, 0
1, 56700, Note_on_c, 2, 43, 0
1, 56700, Note_on_c, 9, 36, 0
1, 56700, Note_on_c, 0, 67, 100
1, 56700, Note_on_c, 0, 55, 100
1, 56700, Note_on_c, 1, 69, 100
1, 56700, Note_on_c, 1, 73, 100
1, 56700, Note_on_c, 3, 82, 100
1, 56700, Note_on_c, 5, 69, 100
1, 56700, Note_on_c, 5, 73, 100
1, 56700, Note_on_c, 9, 36, 100
1, 56700, Note_on_c, 9, 46, 100
1, 56760, Note_on_c, 9, 46, 0
1, 56760, Note_on_c, 1, 73, 0
1, 56760, Note_on_c, 0, 67, 0
1, 56760, Note_on_c, 3, 82, 0
1, 56760, Note_on_c, 0, 55, 0
1, 56760, Note_on_c, 1, 69, 0
1, 56760, Note_on_c, 5, 73, 0
1, 56760, Note_on_c, 5, 69, 0
1, 56760, Note_on_c, 9, 36, 0
1, 56760, Note_on_c, 0, 65, 100
1, 56760, Note_on_c, 0, 43, 100
1, 56760, Note_on_c, 1, 70, 100
1, 56760, Note_on_c, 1, 74, 100
1, 56760, Note_on_c, 2, 43, 100
1, 56760, Note_on_c, 3, 82, 100
1, 56760, Note_on_c, 5, 74, 100
1, 56760, Note_on_c, 5, 70, 100
1, 56760, Note_on_c, 9, 40, 100
1, 56760, Note_on_c, 9, 36, 100
1, 56760, Note_on_c, 9, 46, 100
1, 56820, Note_on_c, 9, 46, 0
1, 56820, Note_on_c, 1, 70, 0
1, 56820, Note_on_c, 5, 70, 0
1, 56820, Note_on_c, 1, 74, 0
1, 56820, Note_on_c, 0, 65, 0
1, 56820, Note_on_c, 2, 43, 0
1, 56820, Note_on_c, 0, 43, 0
1, 56820, Note_on_c, 5, 74, 0
1, 56820, Note_on_c, 3, 82, 0
1, 56820, Note_on_c, 0, 67, 100
1, 56820, Note_on_c, 0, 55, 100
1, 56820, Note_on_c, 3, 82, 100
1, 56820, Note_on_c, 9, 46, 100
1, 56880, Note_on_c, 9, 46, 0
1, 56880, Note_on_c, 9, 40, 0
1, 56880, Note_on_c, 0, 67, 0
1, 56880, Note_on_c, 9, 36, 0
1, 56880, Note_on_c, 3, 82, 0
1, 56880, Note_on_c, 0, 55, 0
1, 56880, Note_on_c, 0, 74, 100
1, 56880, Note_on_c, 0, 69, 100
1, 56880, Note_on_c, 0, 43, 100
1, 56880, Note_on_c, 1, 69, 100
1, 56880, Note_on_c, 2, 43, 100
1, 56880, Note_on_c, 3, 82, 100
1, 56880, Note_on_c, 5, 69, 100
1, 56880, Note_on_c, 9, 36, 100
1, 56880, Note_on_c, 9, 46, 100
1, 56910, Note_on_c, 5, 69, 0
1, 56910, Note_on_c, 0, 69, 0
1, 56910, Note_on_c, 1, 69, 0
1, 56910, Note_on_c, 0, 70, 100
1, 56910, Note_on_c, 1, 70, 100
1, 56910, Note_on_c, 5, 72, 100
1, 56940, Note_on_c, 5, 72, 0
1, 56940, Note_on_c, 9, 46, 0
1, 56940, Note_on_c, 1, 70, 0
1, 56940, Note_on_c, 9, 36, 0
1, 56940, Note_on_c, 2, 43, 0
1, 56940, Note_on_c, 0, 43, 0
1, 56940, Note_on_c, 0, 55, 100
1, 56940, Note_on_c, 1, 67, 100
1, 56940, Note_on_c, 5, 67, 100
1, 56940, Note_on_c, 9, 36, 100
1, 56940, Note_on_c, 9, 46, 100
1, 56970, Note_on_c, 9, 36, 0
1, 56970, Note_on_c, 0, 74, 0
1, 56970, Note_on_c, 1, 67, 0
1, 56970, Note_on_c, 0, 70, 0
1, 56970, Note_on_c, 3, 82, 0
1, 56970, Note_on_c, 5, 67, 0
1, 56970, Note_on_c, 0, 74, 100
1, 56970, Note_on_c, 0, 67, 100
1, 56970, Note_on_c, 1, 65, 100
1, 56970, Note_on_c, 3, 79, 100
1, 56970, Note_on_c, 5, 65, 100
1, 56970, Note_on_c, 9, 36, 100
1, 57000, Note_on_c, 9, 36, 0
1, 57000, Note_on_c, 5, 65, 0
1, 57000, Note_on_c, 9, 46, 0
1, 57000, Note_on_c, 0, 55, 0
1, 57000, Note_on_c, 1, 65, 0
1, 57000, Note_on_c, 0, 43, 100
1, 57000, Note_on_c, 1, 62, 100
1, 57000, Note_on_c, 2, 43, 100
1, 57000, Note_on_c, 5, 62, 100
1, 57000, Note_on_c, 9, 36, 100
1, 57000, Note_on_c, 9, 38, 100
1, 57000, Note_on_c, 9, 46, 100
1, 57030, Note_on_c, 5, 62, 0
1, 57030, Note_on_c, 0, 67, 0
1, 57030, Note_on_c, 0, 74, 0
1, 57030, Note_on_c, 1, 62, 0
1, 57030, Note_on_c, 3, 79, 0
1, 57030, Note_on_c, 0, 65, 100
1, 57030, Note_on_c, 1, 65, 100
1, 57030, Note_on_c, 3, 79, 100
1, 57030, Note_on_c, 5, 65, 100
1, 57060, Note_on_c, 5, 65, 0
1, 57060, Note_on_c, 9, 46, 0
1, 57060, Note_on_c, 3, 79, 0
1, 57060, Note_on_c, 0, 43, 0
1, 57060, Note_on_c, 2, 43, 0
1, 57060, Note_on_c, 1, 65, 0
1, 57060, Note_on_c, 0, 65, 0
1, 57060, Note_on_c, 0, 62, 100
1, 57060, Note_on_c, 0, 55, 100
1, 57060, Note_on_c, 1, 67, 100
1, 57060, Note_on_c, 3, 79, 100
1, 57060, Note_on_c, 5, 67, 100
1, 57060, Note_on_c, 9, 46, 100
1, 57090, Note_on_c, 0, 62, 0
1, 57120, Note_on_c, 9, 36, 0
1, 57120, Note_on_c, 3, 79, 0
1, 57120, Note_on_c, 9, 38, 0
1, 57120, Note_on_c, 0, 55, 0
1, 57120, Note_on_c, 1, 67, 0
1, 57120, Note_on_c, 5, 67, 0
1, 57120, Note_on_c, 9, 46, 0
1, 57120, Note_on_c, 0, 43, 100
1, 57120, Note_on_c, 2, 43, 100
1, 57120, Note_on_c, 3, 79, 100
1, 57120, Note_on_c, 9, 36, 100
1, 57120, Note_on_c, 9, 46, 100
1, 57180, Note_on_c, 9, 46, 0
1, 57180, Note_on_c, 2, 43, 0
1, 57180, Note_on_c, 0, 43, 0
1, 57180, Note_on_c, 9, 36, 0
1, 57180, Note_on_c, 0, 67, 100
1, 57180, Note_on_c, 0, 55, 100
1, 57180, Note_on_c, 1, 69, 100
1, 57180, Note_on_c, 1, 73, 100
1, 57180, Note_on_c, 5, 69, 100
1, 57180, Note_on_c, 5, 73, 100
1, 57180, Note_on_c, 9, 36, 100
1, 57180, Note_on_c, 9, 46, 100
1, 57240, Note_on_c, 9, 46, 0
1, 57240, Note_on_c, 1, 69, 0
1, 57240, Note_on_c, 3, 79, 0
1, 57240, Note_on_c, 1, 73, 0
1, 57240, Note_on_c, 0, 67, 0
1, 57240, Note_on_c, 0, 55, 0
1, 57240, Note_on_c, 5, 73, 0
1, 57240, Note_on_c, 5, 69, 0
1, 57240, Note_on_c, 9, 36, 0
1, 57240, Note_on_c, 0, 65, 100
1, 57240, Note_on_c, 0, 43, 100
1, 57240, Note_on_c, 1, 70, 100
1, 57240, Note_on_c, 1, 74, 100
1, 57240, Note_on_c, 2, 43, 100
1, 57240, Note_on_c, 5, 74, 100
1, 57240, Note_on_c, 5, 70, 100
1, 57240, Note_on_c, 9, 36, 100
1, 57240, Note_on_c, 9, 38, 100
1, 57240, Note_on_c, 9, 46, 100
1, 57300, Note_on_c, 9, 46, 0
1, 57300, Note_on_c, 1, 70, 0
1, 57300, Note_on_c, 5, 70, 0
1, 57300, Note_on_c, 0, 65, 0
1, 57300, Note_on_c, 2, 43, 0
1, 57300, Note_on_c, 0, 43, 0
1, 57300, Note_on_c, 1, 74, 0
1, 57300, Note_on_c, 5, 74, 0
1, 57300, Note_on_c, 0, 67, 100
1, 57300, Note_on_c, 0, 55, 100
1, 57300, Note_on_c, 9, 46, 100
1, 57360, Note_on_c, 9, 46, 0
1, 57360, Note_on_c, 0, 67, 0
1, 57360, Note_on_c, 9, 36, 0
1, 57360, Note_on_c, 9, 38, 0
1, 57360, Note_on_c, 0, 55, 0
1, 57360, Note_on_c, 0, 74, 100
1, 57360, Note_on_c, 0, 69, 100
1, 57360, Note_on_c, 0, 43, 100
1, 57360, Note_on_c, 1, 69, 100
1, 57360, Note_on_c, 2, 43, 100
1, 57360, Note_on_c, 5, 69, 100
1, 57360, Note_on_c, 9, 36, 100
1, 57360, Note_on_c, 9, 46, 100
1, 57390, Note_on_c, 5, 69, 0
1, 57390, Note_on_c, 0, 69, 0
1, 57390, Note_on_c, 1, 69, 0
1, 57390, Note_on_c, 0, 70, 100
1, 57390, Note_on_c, 1, 70, 100
1, 57390, Note_on_c, 5, 72, 100
1, 57420, Note_on_c, 5, 72, 0
1, 57420, Note_on_c, 1, 70, 0
1, 57420, Note_on_c, 9, 36, 0
1, 57420, Note_on_c, 9, 46, 0
1, 57420, Note_on_c, 2, 43, 0
1, 57420, Note_on_c, 0, 43, 0
1, 57420, Note_on_c, 0, 55, 100
1, 57420, Note_on_c, 1, 67, 100
1, 57420, Note_on_c, 5, 67, 100
1, 57420, Note_on_c, 9, 36, 100
1, 57420, Note_on_c, 9, 46, 100
1, 57450, Note_on_c, 9, 36, 0
1, 57450, Note_on_c, 1, 67, 0
1, 57450, Note_on_c, 0, 70, 0
1, 57450, Note_on_c, 0, 74, 0
1, 57450, Note_on_c, 5, 67, 0
1, 57450, Note_on_c, 0, 74, 100
1, 57450, Note_on_c, 0, 65, 100
1, 57450, Note_on_c, 1, 65, 100
1, 57450, Note_on_c, 5, 65, 100
1, 57450, Note_on_c, 9, 36, 100
1, 57480, Note_on_c, 9, 36, 0
1, 57480, Note_on_c, 1, 65, 0
1, 57480, Note_on_c, 9, 46, 0
1, 57480, Note_on_c, 0, 55, 0
1, 57480, Note_on_c, 5, 65, 0
1, 57480, Note_on_c, 0, 43, 100
1, 57480, Note_on_c, 1, 62, 100
1, 57480, Note_on_c, 2, 43, 100
1, 57480, Note_on_c, 5, 62, 100
1, 57480, Note_on_c, 9, 36, 100
1, 57480, Note_on_c, 9, 40, 100
1, 57480, Note_on_c, 9, 46, 100
1, 57510, Note_on_c, 5, 62, 0
1, 57510, Note_on_c, 0, 65, 0
1, 57510, Note_on_c, 0, 74, 0
1, 57510, Note_on_c, 1, 62, 0
1, 57510, Note_on_c, 0, 72, 100
1, 57510, Note_on_c, 0, 65, 100
1, 57510, Note_on_c, 1, 65, 100
1, 57510, Note_on_c, 5, 65, 100
1, 57540, Note_on_c, 5, 65, 0
1, 57540, Note_on_c, 2, 43, 0
1, 57540, Note_on_c, 1, 65, 0
1, 57540, Note_on_c, 0, 72, 0
1, 57540, Note_on_c, 0, 43, 0
1, 57540, Note_on_c, 9, 46, 0
1, 57540, Note_on_c, 0, 70, 100
1, 57540, Note_on_c, 0, 55, 100
1, 57540, Note_on_c, 1, 67, 100
1, 57540, Note_on_c, 5, 67, 100
1, 57540, Note_on_c, 9, 46, 100
1, 57570, Note_on_c, 0, 70, 0
1, 57570, Note_on_c, 0, 65, 0
1, 57570, Note_on_c, 0, 70, 100
1, 57570, Note_on_c, 0, 65, 100
1, 57600, Note_on_c, 0, 65, 0
1, 57600, Note_on_c, 9, 46, 0
1, 57600, Note_on_c, 5, 67, 0
1, 57600, Note_on_c, 9, 36, 0
1, 57600, Note_on_c, 0, 55, 0
1, 57600, Note_on_c, 9, 40, 0
1, 57600, Note_on_c, 1, 67, 0
1, 57600, Note_on_c, 0, 70, 0
1, 57600, Note_on_c, 0, 43, 100
1, 57600, Note_on_c, 2, 43, 100
1, 57600, Note_on_c, 9, 36, 100
1, 57600, Note_on_c, 9, 46, 100
1, 57660, Note_on_c, 9, 46, 0
1, 57660, Note_on_c, 0, 43, 0
1, 57660, Note_on_c, 2, 43, 0
1, 57660, Note_on_c, 9, 36, 0
1, 57660, Note_on_c, 0, 67, 100
1, 57660, Note_on_c, 0, 55, 100
1, 57660, Note_on_c, 1, 69, 100
1, 57660, Note_on_c, 1, 73, 100
1, 57660, Note_on_c, 3, 82, 100
1, 57660, Note_on_c, 5, 69, 100
1, 57660, Note_on_c, 5, 73, 100
1, 57660, Note_on_c, 9, 36, 100
1, 57660, Note_on_c, 9, 46, 100
1, 57720, Note_on_c, 9, 46, 0
1, 57720, Note_on_c, 1, 73, 0
1, 57720, Note_on_c, 0, 67, 0
1, 57720, Note_on_c, 3, 82, 0
1, 57720, Note_on_c, 0, 55, 0
1, 57720, Note_on_c, 1, 69, 0
1, 57720, Note_on_c, 5, 73, 0
1, 57720, Note_on_c, 5, 69, 0
1, 57720, Note_on_c, 9, 36, 0
1, 57720, Note_on_c, 0, 65, 100
1, 57720, Note_on_c, 0, 43, 100
1, 57720, Note_on_c, 1, 70, 100
1, 57720, Note_on_c, 1, 74, 100
1, 57720, Note_on_c, 2, 43, 100
1, 57720, Note_on_c, 3, 82, 100
1, 57720, Note_on_c, 5, 74, 100
1, 57720, Note_on_c, 5, 70, 100
1, 57720, Note_on_c, 9, 36, 100
1, 57720, Note_on_c, 9, 38, 100
1, 57720, Note_on_c, 9, 46, 100
1, 57780, Note_on_c, 9, 46, 0
1, 57780, Note_on_c, 1, 70, 0
1, 57780, Note_on_c, 5, 70, 0
1, 57780, Note_on_c, 1, 74, 0
1, 57780, Note_on_c, 0, 65, 0
1, 57780, Note_on_c, 2, 43, 0
1, 57780, Note_on_c, 0, 43, 0
1, 57780, Note_on_c, 5, 74, 0
1, 57780, Note_on_c, 3, 82, 0
1, 57780, Note_on_c, 0, 67, 100
1, 57780, Note_on_c, 0, 55, 100
1, 57780, Note_on_c, 3, 82, 100
1, 57780, Note_on_c, 9, 46, 100
1, 57840, Note_on_c, 9, 46, 0
1, 57840, Note_on_c, 9, 36, 0
1, 57840, Note_on_c, 0, 67, 0
1, 57840, Note_on_c, 9, 38, 0
1, 57840, Note_on_c, 3, 82, 0
1, 57840, Note_on_c, 0, 55, 0
1, 57840, Note_on_c, 0, 74, 100
1, 57840, Note_on_c, 0, 69, 100
1, 57840, Note_on_c, 0, 43, 100
1, 57840, Note_on_c, 1, 69, 100
1, 57840, Note_on_c, 2, 43, 100
1, 57840, Note_on_c, 3, 82, 100
1, 57840, Note_on_c, 5, 69, 100
1, 57840, Note_on_c, 9, 36, 100
1, 57840, Note_on_c, 9, 46, 100
1, 57870, Note_on_c, 5, 69, 0
1, 57870, Note_on_c, 0, 69, 0
1, 57870, Note_on_c, 1, 69, 0
1, 57870, Note_on_c, 0, 70, 100
1, 57870, Note_on_c, 1, 70, 100
1, 57870, Note_on_c, 5, 72, 100
1, 57900, Note_on_c, 5, 72, 0
1, 57900, Note_on_c, 9, 46, 0
1, 57900, Note_on_c, 1, 70, 0
1, 57900, Note_on_c, 9, 36, 0
1, 57900, Note_on_c, 2, 43, 0
1, 57900, Note_on_c, 0, 43, 0
1, 57900, Note_on_c, 0, 55, 100
1, 57900, Note_on_c, 1, 67, 100
1, 57900, Note_on_c, 5, 67, 100
1, 57900, Note_on_c, 9, 36, 100
1, 57900, Note_on_c, 9, 46, 100
1, 57930, Note_on_c, 9, 36, 0
1, 57930, Note_on_c, 0, 74, 0
1, 57930, Note_on_c, 1, 67, 0
1, 57930, Note_on_c, 0, 70, 0
1, 57930, Note_on_c, 3, 82, 0
1, 57930, Note_on_c, 5, 67, 0
1, 57930, Note_on_c, 0, 74, 100
1, 57930, Note_on_c, 0, 67, 100
1, 57930, Note_on_c, 1, 65, 100
1, 57930, Note_on_c, 3, 79, 100
1, 57930, Note_on_c, 5, 65, 100
1, 57930, Note_on_c, 9, 36, 100
1, 57960, Note_on_c, 9, 36, 0
1, 57960, Note_on_c, 5, 65, 0
1, 57960, Note_on_c, 9, 46, 0
1, 57960, Note_on_c, 0, 55, 0
1, 57960, Note_on_c, 1, 65, 0
1, 57960, Note_on_c, 0, 43, 100
1, 57960, Note_on_c, 1, 62, 100
1, 57960, Note_on_c, 2, 43, 100
1, 57960, Note_on_c, 5, 62, 100
1, 57960, Note_on_c, 9, 36, 100
1, 57960, Note_on_c, 9, 40, 100
1, 57960, Note_on_c, 9, 46, 100
1, 57990, Note_on_c, 5, 62, 0
1, 57990, Note_on_c, 0, 67, 0
1, 57990, Note_on_c, 0, 74, 0
1, 57990, Note_on_c, 1, 62, 0
1, 57990, Note_on_c, 3, 79, 0
1, 57990, Note_on_c, 0, 65, 100
1, 57990, Note_on_c, 1, 65, 100
1, 57990, Note_on_c, 3, 79, 100
1, 57990, Note_on_c, 5, 65, 100
1, 58020, Note_on_c, 5, 65, 0
1, 58020, Note_on_c, 9, 46, 0
1, 58020, Note_on_c, 3, 79, 0
1, 58020, Note_on_c, 0, 43, 0
1, 58020, Note_on_c, 2, 43, 0
1, 58020, Note_on_c, 1, 65, 0
1, 58020, Note_on_c, 0, 65, 0
1, 58020, Note_on_c, 0, 62, 100
1, 58020, Note_on_c, 0, 55, 100
1, 58020, Note_on_c, 1, 67, 100
1, 58020, Note_on_c, 3, 79, 100
1, 58020, Note_on_c, 5, 67, 100
1, 58020, Note_on_c, 9, 46, 100
1, 58050, Note_on_c, 0, 62, 0
1, 58080, Note_on_c, 9, 36, 0
1, 58080, Note_on_c, 3, 79, 0
1, 58080, Note_on_c, 9, 40, 0
1, 58080, Note_on_c, 0, 55, 0
1, 58080, Note_on_c, 1, 67, 0
1, 58080, Note_on_c, 5, 67, 0
1, 58080, Note_on_c, 9, 46, 0
1, 58080, Note_on_c, 0, 43, 100
1, 58080, Note_on_c, 2, 43, 100
1, 58080, Note_on_c, 3, 79, 100
1, 58080, Note_on_c, 9, 36, 100
1, 58080, Note_on_c, 9, 46, 100
1, 58140, Note_on_c, 9, 46, 0
1, 58140, Note_on_c, 2, 43, 0
1, 58140, Note_on_c, 0, 43, 0
1, 58140, Note_on_c, 9, 36, 0
1, 58140, Note_on_c, 0, 67, 100
1, 58140, Note_on_c, 0, 55, 100
1, 58140, Note_on_c, 1, 69, 100
1, 58140, Note_on_c, 1, 73, 100
1, 58140, Note_on_c, 5, 69, 100
1, 58140, Note_on_c, 5, 73, 100
1, 58140, Note_on_c, 9, 36, 100
1, 58140, Note_on_c, 9, 46, 100
1, 58200, Note_on_c, 9, 46, 0
1, 58200, Note_on_c, 1, 69, 0
1, 58200, Note_on_c, 3, 79, 0
1, 58200, Note_on_c, 1, 73, 0
1, 58200, Note_on_c, 0, 67, 0
1, 58200, Note_on_c, 0, 55, 0
1, 58200, Note_on_c, 5, 73, 0
1, 58200, Note_on_c, 5, 69, 0
1, 58200, Note_on_c, 9, 36, 0
1, 58200, Note_on_c, 0, 65, 100
1, 58200, Note_on_c, 0, 43, 100
1, 58200, Note_on_c, 1, 70, 100
1, 58200, Note_on_c, 1, 74, 100
1, 58200, Note_on_c, 2, 43, 100
1, 58200, Note_on_c, 5, 74, 100
1, 58200, Note_on_c, 5, 70, 100
1, 58200, Note_on_c, 9, 36, 100
1, 58200, Note_on_c, 9, 38, 100
1, 58200, Note_on_c, 9, 46, 100
1, 58260, Note_on_c, 9, 46, 0
1, 58260, Note_on_c, 1, 70, 0
1, 58260, Note_on_c, 5, 70, 0
1, 58260, Note_on_c, 0, 65, 0
1, 58260, Note_on_c, 2, 43, 0
1, 58260, Note_on_c, 0, 43, 0
1, 58260, Note_on_c, 1, 74, 0
1, 58260, Note_on_c, 5, 74, 0
1, 58260, Note_on_c, 0, 67, 100
1, 58260, Note_on_c, 0, 55, 100
1, 58260, Note_on_c, 9, 46, 100
1, 58320, Note_on_c, 9, 46, 0
1, 58320, Note_on_c, 0, 67, 0
1, 58320, Note_on_c, 9, 36, 0
1, 58320, Note_on_c, 9, 38, 0
1, 58320, Note_on_c, 0, 55, 0
1, 58320, Note_on_c, 0, 74, 100
1, 58320, Note_on_c, 0, 69, 100
1, 58320, Note_on_c, 0, 43, 100
1, 58320, Note_on_c, 1, 69, 100
1, 58320, Note_on_c, 2, 43, 100
1, 58320, Note_on_c, 5, 69, 100
1, 58320, Note_on_c, 9, 36, 100
1, 58320, Note_on_c, 9, 46, 100
1, 58350, Note_on_c, 5, 69, 0
1, 58350, Note_on_c, 0, 69, 0
1, 58350, Note_on_c, 1, 69, 0
1, 58350, Note_on_c, 0, 70, 100
1, 58350, Note_on_c, 1, 70, 100
1, 58350, Note_on_c, 5, 72, 100
1, 58380, Note_on_c, 5, 72, 0
1, 58380, Note_on_c, 1, 70, 0
1, 58380, Note_on_c, 9, 36, 0
1, 58380, Note_on_c, 9, 46, 0
1, 58380, Note_on_c, 2, 43, 0
1, 58380, Note_on_c, 0, 43, 0
1, 58380, Note_on_c, 0, 55, 100
1, 58380, Note_on_c, 1, 67, 100
1, 58380, Note_on_c, 5, 67, 100
1, 58380, Note_on_c, 9, 36, 100
1, 58380, Note_on_c, 9, 46, 100
1, 58410, Note_on_c, 9, 36, 0
1, 58410, Note_on_c, 1, 67, 0
1, 58410, Note_on_c, 0, 70, 0
1, 58410, Note_on_c, 0, 74, 0
1, 58410, Note_on_c, 5, 67, 0
1, 58410, Note_on_c, 0, 74, 100
1, 58410, Note_on_c, 0, 65, 100
1, 58410, Note_on_c, 1, 65, 100
1, 58410, Note_on_c, 5, 65, 100
1, 58410, Note_on_c, 9, 36, 100
1, 58440, Note_on_c, 9, 36, 0
1, 58440, Note_on_c, 1, 65, 0
1, 58440, Note_on_c, 9, 46, 0
1, 58440, Note_on_c, 0, 55, 0
1, 58440, Note_on_c, 5, 65, 0
1, 58440, Note_on_c, 0, 43, 100
1, 58440, Note_on_c, 1, 62, 100
1, 58440, Note_on_c, 2, 43, 100
1, 58440, Note_on_c, 5, 62, 100
1, 58440, Note_on_c, 9, 36, 100
1, 58440, Note_on_c, 9, 40, 100
1, 58440, Note_on_c, 9, 46, 100
1, 58470, Note_on_c, 5, 62, 0
1, 58470, Note_on_c, 0, 65, 0
1, 58470, Note_on_c, 0, 74, 0
1, 58470, Note_on_c, 1, 62, 0
1, 58470, Note_on_c, 0, 72, 100
1, 58470, Note_on_c, 0, 65, 100
1, 58470, Note_on_c, 1, 65, 100
1, 58470, Note_on_c, 5, 65, 100
1, 58500, Note_on_c, 5, 65, 0
1, 58500, Note_on_c, 2, 43, 0
1, 58500, Note_on_c, 1, 65, 0
1, 58500, Note_on_c, 0, 72, 0
1, 58500, Note_on_c, 0, 43, 0
1, 58500, Note_on_c, 9, 46, 0
1, 58500, Note_on_c, 0, 70, 100
1, 58500, Note_on_c, 0, 55, 100
1, 58500, Note_on_c, 1, 67, 100
1, 58500, Note_on_c, 5, 67, 100
1, 58500, Note_on_c, 9, 46, 100
1, 58530, Note_on_c, 0, 70, 0
1, 58530, Note_on_c, 0, 65, 0
1, 58530, Note_on_c, 0, 70, 100
1, 58530, Note_on_c, 0, 65, 100
1, 58560, Note_on_c, 0, 65, 0
1, 58560, Note_on_c, 9, 46, 0
1, 58560, Note_on_c, 5, 67, 0
1, 58560, Note_on_c, 9, 36, 0
1, 58560, Note_on_c, 0, 55, 0
1, 58560, Note_on_c, 9, 40, 0
1, 58560, Note_on_c, 1, 67, 0
1, 58560, Note_on_c, 0, 70, 0
1, 58560, Note_on_c, 0, 43, 100
1, 58560, Note_on_c, 2, 43, 100
1, 58560, Note_on_c, 9, 36, 100
1, 58560, Note_on_c, 9, 49, 100
1, 58620, Note_on_c, 9, 49, 0
1, 58620, Note_on_c, 0, 43, 0
1, 58620, Note_on_c, 2, 43, 0
1, 58620, Note_on_c, 9, 36, 0
1, 58620, Note_on_c, 0, 67, 100
1, 58620, Note_on_c, 0, 55, 100
1, 58620, Note_on_c, 1, 69, 100
1, 58620, Note_on_c, 1, 73, 100
1, 58620, Note_on_c, 3, 82, 100
1, 58620, Note_on_c, 5, 69, 100
1, 58620, Note_on_c, 5, 73, 100
1, 58620, Note_on_c, 9, 36, 100
1, 58620, Note_on_c, 9, 46, 100
1, 58680, Note_on_c, 9, 46, 0
1, 58680, Note_on_c, 1, 73, 0
1, 58680, Note_on_c, 0, 67, 0
1, 58680, Note_on_c, 3, 82, 0
1, 58680, Note_on_c, 0, 55, 0
1, 58680, Note_on_c, 1, 69, 0
1, 58680, Note_on_c, 5, 73, 0
1, 58680, Note_on_c, 5, 69, 0
1, 58680, Note_on_c, 9, 36, 0
1, 58680, Note_on_c, 0, 65, 100
1, 58680, Note_on_c, 0, 43, 100
1, 58680, Note_on_c, 1, 70, 100
1, 58680, Note_on_c, 1, 74, 100
1, 58680, Note_on_c, 2, 43, 100
1, 58680, Note_on_c, 3, 82, 100
1, 58680, Note_on_c, 5, 74, 100
1, 58680, Note_on_c, 5, 70, 100
1, 58680, Note_on_c, 9, 40, 100
1, 58680, Note_on_c, 9, 36, 100
1, 58680, Note_on_c, 9, 46, 100
1, 58740, Note_on_c, 9, 46, 0
1, 58740, Note_on_c, 1, 70, 0
1, 58740, Note_on_c, 5, 70, 0
1, 58740, Note_on_c, 1, 74, 0
1, 58740, Note_on_c, 0, 65, 0
1, 58740, Note_on_c, 2, 43, 0
1, 58740, Note_on_c, 0, 43, 0
1, 58740, Note_on_c, 5, 74, 0
1, 58740, Note_on_c, 3, 82, 0
1, 58740, Note_on_c, 0, 67, 100
1, 58740, Note_on_c, 0, 55, 100
1, 58740, Note_on_c, 3, 82, 100
1, 58740, Note_on_c, 9, 46, 100
1, 58800, Note_on_c, 9, 46, 0
1, 58800, Note_on_c, 9, 40, 0
1, 58800, Note_on_c, 0, 67, 0
1, 58800, Note_on_c, 9, 36, 0
1, 58800, Note_on_c, 3, 82, 0
1, 58800, Note_on_c, 0, 55, 0
1, 58800, Note_on_c, 0, 74, 100
1, 58800, Note_on_c, 0, 69, 100
1, 58800, Note_on_c, 0, 43, 100
1, 58800, Note_on_c, 1, 69, 100
1, 58800, Note_on_c, 2, 43, 100
1, 58800, Note_on_c, 3, 82, 100
1, 58800, Note_on_c, 5, 69, 100
1, 58800, Note_on_c, 9, 36, 100
1, 58800, Note_on_c, 9, 46, 100
1, 58830, Note_on_c, 5, 69, 0
1, 58830, Note_on_c, 0, 69, 0
1, 58830, Note_on_c, 1, 69, 0
1, 58830, Note_on_c, 0, 70, 100
1, 58830, Note_on_c, 1, 70, 100
1, 58830, Note_on_c, 5, 72, 100
1, 58860, Note_on_c, 5, 72, 0
1, 58860, Note_on_c, 9, 46, 0
1, 58860, Note_on_c, 1, 70, 0
1, 58860, Note_on_c, 9, 36, 0
1, 58860, Note_on_c, 2, 43, 0
1, 58860, Note_on_c, 0, 43, 0
1, 58860, Note_on_c, 0, 55, 100
1, 58860, Note_on_c, 1, 67, 100
1, 58860, Note_on_c, 5, 67, 100
1, 58860, Note_on_c, 9, 36, 100
1, 58860, Note_on_c, 9, 46, 100
1, 58890, Note_on_c, 9, 36, 0
1, 58890, Note_on_c, 0, 74, 0
1, 58890, Note_on_c, 1, 67, 0
1, 58890, Note_on_c, 0, 70, 0
1, 58890, Note_on_c, 3, 82, 0
1, 58890, Note_on_c, 5, 67, 0
1, 58890, Note_on_c, 0, 74, 100
1, 58890, Note_on_c, 0, 67, 100
1, 58890, Note_on_c, 1, 65, 100
1, 58890, Note_on_c, 3, 79, 100
1, 58890, Note_on_c, 5, 65, 100
1, 58890, Note_on_c, 9, 36, 100
1, 58920, Note_on_c, 9, 36, 0
1, 58920, Note_on_c, 5, 65, 0
1, 58920, Note_on_c, 9, 46, 0
1, 58920, Note_on_c, 0, 55, 0
1, 58920, Note_on_c, 1, 65, 0
1, 58920, Note_on_c, 0, 43, 100
1, 58920, Note_on_c, 1, 62, 100
1, 58920, Note_on_c, 2, 43, 100
1, 58920, Note_on_c, 5, 62, 100
1, 58920, Note_on_c, 9, 36, 100
1, 58920, Note_on_c, 9, 38, 100
1, 58920, Note_on_c, 9, 46, 100
1, 58950, Note_on_c, 5, 62, 0
1, 58950, Note_on_c, 0, 67, 0
1, 58950, Note_on_c, 0, 74, 0
1, 58950, Note_on_c, 1, 62, 0
1, 58950, Note_on_c, 3, 79, 0
1, 58950, Note_on_c, 0, 65, 100
1, 58950, Note_on_c, 1, 65, 100
1, 58950, Note_on_c, 3, 79, 100
1, 58950, Note_on_c, 5, 65, 100
1, 58980, Note_on_c, 5, 65, 0
1, 58980, Note_on_c, 9, 46, 0
1, 58980, Note_on_c, 3, 79, 0
1, 58980, Note_on_c, 0, 43, 0
1, 58980, Note_on_c, 2, 43, 0
1, 58980, Note_on_c, 1, 65, 0
1, 58980, Note_on_c, 0, 65, 0
1, 58980, Note_on_c, 0, 62, 100
1, 58980, Note_on_c, 0, 55, 100
1, 58980, Note_on_c, 1, 67, 100
1, 58980, Note_on_c, 3, 79, 100
1, 58980, Note_on_c, 5, 67, 100
1, 58980, Note_on_c, 9, 46, 100
1, 59010, Note_on_c, 0, 62, 0
1, 59040, Note_on_c, 9, 36, 0
1, 59040, Note_on_c, 3, 79, 0
1, 59040, Note_on_c, 9, 38, 0
1, 59040, Note_on_c, 0, 55, 0
1, 59040, Note_on_c, 1, 67, 0
1, 59040, Note_on_c, 5, 67, 0
1, 59040, Note_on_c, 9, 46, 0
1, 59040, Note_on_c, 0, 43, 100
1, 59040, Note_on_c, 2, 43, 100
1, 59040, Note_on_c, 3, 79, 100
1, 59040, Note_on_c, 9, 36, 100
1, 59040, Note_on_c, 9, 46, 100
1, 59100, Note_on_c, 9, 46, 0
1, 59100, Note_on_c, 2, 43, 0
1, 59100, Note_on_c, 0, 43, 0
1, 59100, Note_on_c, 9, 36, 0
1, 59100, Note_on_c, 0, 67, 100
1, 59100, Note_on_c, 0, 55, 100
1, 59100, Note_on_c, 1, 69, 100
1, 59100, Note_on_c, 1, 73, 100
1, 59100, Note_on_c, 5, 69, 100
1, 59100, Note_on_c, 5, 73, 100
1, 59100, Note_on_c, 9, 36, 100
1, 59100, Note_on_c, 9, 46, 100
1, 59160, Note_on_c, 9, 46, 0
1, 59160, Note_on_c, 1, 69, 0
1, 59160, Note_on_c, 3, 79, 0
1, 59160, Note_on_c, 1, 73, 0
1, 59160, Note_on_c, 0, 67, 0
1, 59160, Note_on_c, 0, 55, 0
1, 59160, Note_on_c, 5, 73, 0
1, 59160, Note_on_c, 5, 69, 0
1, 59160, Note_on_c, 9, 36, 0
1, 59160, Note_on_c, 0, 65, 100
1, 59160, Note_on_c, 0, 43, 100
1, 59160, Note_on_c, 1, 70, 100
1, 59160, Note_on_c, 1, 74, 100
1, 59160, Note_on_c, 2, 43, 100
1, 59160, Note_on_c, 5, 74, 100
1, 59160, Note_on_c, 5, 70, 100
1, 59160, Note_on_c, 9, 36, 100
1, 59160, Note_on_c, 9, 38, 100
1, 59160, Note_on_c, 9, 46, 100
1, 59220, Note_on_c, 9, 46, 0
1, 59220, Note_on_c, 1, 70, 0
1, 59220, Note_on_c, 5, 70, 0
1, 59220, Note_on_c, 0, 65, 0
1, 59220, Note_on_c, 2, 43, 0
1, 59220, Note_on_c, 0, 43, 0
1, 59220, Note_on_c, 1, 74, 0
1, 59220, Note_on_c, 5, 74, 0
1, 59220, Note_on_c, 0, 67, 100
1, 59220, Note_on_c, 0, 55, 100
1, 59220, Note_on_c, 9, 46, 100
1, 59280, Note_on_c, 9, 46, 0
1, 59280, Note_on_c, 0, 67, 0
1, 59280, Note_on_c, 9, 36, 0
1, 59280, Note_on_c, 9, 38, 0
1, 59280, Note_on_c, 0, 55, 0
1, 59280, Note_on_c, 0, 74, 100
1, 59280, Note_on_c, 0, 69, 100
1, 59280, Note_on_c, 0, 43, 100
1, 59280, Note_on_c, 1, 69, 100
1, 59280, Note_on_c, 2, 43, 100
1, 59280, Note_on_c, 5, 69, 100
1, 59280, Note_on_c, 9, 36, 100
1, 59280, Note_on_c, 9, 46, 100
1, 59310, Note_on_c, 5, 69, 0
1, 59310, Note_on_c, 0, 69, 0
1, 59310, Note_on_c, 1, 69, 0
1, 59310, Note_on_c, 0, 70, 100
1, 59310, Note_on_c, 1, 70, 100
1, 59310, Note_on_c, 5, 72, 100
1, 59340, Note_on_c, 5, 72, 0
1, 59340, Note_on_c, 1, 70, 0
1, 59340, Note_on_c, 9, 36, 0
1, 59340, Note_on_c, 9, 46, 0
1, 59340, Note_on_c, 2, 43, 0
1, 59340, Note_on_c, 0, 43, 0
1, 59340, Note_on_c, 0, 55, 100
1, 59340, Note_on_c, 1, 67, 100
1, 59340, Note_on_c, 5, 67, 100
1, 59340, Note_on_c, 9, 36, 100
1, 59340, Note_on_c, 9, 46, 100
1, 59370, Note_on_c, 9, 36, 0
1, 59370, Note_on_c, 1, 67, 0
1, 59370, Note_on_c, 0, 70, 0
1, 59370, Note_on_c, 0, 74, 0
1, 59370, Note_on_c, 5, 67, 0
1, 59370, Note_on_c, 0, 74, 100
1, 59370, Note_on_c, 0, 65, 100
1, 59370, Note_on_c, 1, 65, 100
1, 59370, Note_on_c, 5, 65, 100
1, 59370, Note_on_c, 9, 36, 100
1, 59400, Note_on_c, 9, 36, 0
1, 59400, Note_on_c, 1, 65, 0
1, 59400, Note_on_c, 9, 46, 0
1, 59400, Note_on_c, 0, 55, 0
1, 59400, Note_on_c, 5, 65, 0
1, 59400, Note_on_c, 0, 43, 100
1, 59400, Note_on_c, 1, 62, 100
1, 59400, Note_on_c, 2, 43, 100
1, 59400, Note_on_c, 5, 62, 100
1, 59400, Note_on_c, 9, 36, 100
1, 59400, Note_on_c, 9, 40, 100
1, 59400, Note_on_c, 9, 46, 100
1, 59430, Note_on_c, 5, 62, 0
1, 59430, Note_on_c, 0, 65, 0
1, 59430, Note_on_c, 0, 74, 0
1, 59430, Note_on_c, 1, 62, 0
1, 59430, Note_on_c, 0, 72, 100
1, 59430, Note_on_c, 0, 65, 100
1, 59430, Note_on_c, 1, 65, 100
1, 59430, Note_on_c, 5, 65, 100
1, 59460, Note_on_c, 5, 65, 0
1, 59460, Note_on_c, 2, 43, 0
1, 59460, Note_on_c, 1, 65, 0
1, 59460, Note_on_c, 0, 72, 0
1, 59460, Note_on_c, 0, 43, 0
1, 59460, Note_on_c, 9, 46, 0
1, 59460, Note_on_c, 0, 70, 100
1, 59460, Note_on_c, 0, 55, 100
1, 59460, Note_on_c, 1, 67, 100
1, 59460, Note_on_c, 5, 67, 100
1, 59460, Note_on_c, 9, 46, 100
1, 59490, Note_on_c, 0, 70, 0
1, 59490, Note_on_c, 0, 65, 0
1, 59490, Note_on_c, 0, 70, 100
1, 59490, Note_on_c, 0, 65, 100
1, 59520, Note_on_c, 0, 65, 0
1, 59520, Note_on_c, 9, 46, 0
1, 59520, Note_on_c, 5, 67, 0
1, 59520, Note_on_c, 9, 36, 0
1, 59520, Note_on_c, 0, 55, 0
1, 59520, Note_on_c, 9, 40, 0
1, 59520, Note_on_c, 1, 67, 0
1, 59520, Note_on_c, 0, 70, 0
1, 59520, Note_on_c, 0, 43, 100
1, 59520, Note_on_c, 2, 43, 100
1, 59520, Note_on_c, 9, 36, 100
1, 59520, Note_on_c, 9, 46, 100
1, 59580, Note_on_c, 9, 46, 0
1, 59580, Note_on_c, 0, 43, 0
1, 59580, Note_on_c, 2, 43, 0
1, 59580, Note_on_c, 9, 36, 0
1, 59580, Note_on_c, 0, 67, 100
1, 59580, Note_on_c, 0, 55, 100
1, 59580, Note_on_c, 1, 69, 100
1, 59580, Note_on_c, 1, 73, 100
1, 59580, Note_on_c, 3, 82, 100
1, 59580, Note_on_c, 5, 69, 100
1, 59580, Note_on_c, 5, 73, 100
1, 59580, Note_on_c, 9, 36, 100
1, 59580, Note_on_c, 9, 46, 100
1, 59640, Note_on_c, 9, 46, 0
1, 59640, Note_on_c, 1, 73, 0
1, 59640, Note_on_c, 0, 67, 0
1, 59640, Note_on_c, 3, 82, 0
1, 59640, Note_on_c, 0, 55, 0
1, 59640, Note_on_c, 1, 69, 0
1, 59640, Note_on_c, 5, 73, 0
1, 59640, Note_on_c, 5, 69, 0
1, 59640, Note_on_c, 9, 36, 0
1, 59640, Note_on_c, 0, 65, 100
1, 59640, Note_on_c, 0, 43, 100
1, 59640, Note_on_c, 1, 70, 100
1, 59640, Note_on_c, 1, 74, 100
1, 59640, Note_on_c, 2, 43, 100
1, 59640, Note_on_c, 3, 82, 100
1, 59640, Note_on_c, 5, 74, 100
1, 59640, Note_on_c, 5, 70, 100
1, 59640, Note_on_c, 9, 36, 100
1, 59640, Note_on_c, 9, 38, 100
1, 59640, Note_on_c, 9, 46, 100
1, 59700, Note_on_c, 9, 46, 0
1, 59700, Note_on_c, 1, 70, 0
1, 59700, Note_on_c, 5, 70, 0
1, 59700, Note_on_c, 1, 74, 0
1, 59700, Note_on_c, 0, 65, 0
1, 59700, Note_on_c, 2, 43, 0
1, 59700, Note_on_c, 0, 43, 0
1, 59700, Note_on_c, 5, 74, 0
1, 59700, Note_on_c, 3, 82, 0
1, 59700, Note_on_c, 0, 67, 100
1, 59700, Note_on_c, 0, 55, 100
1, 59700, Note_on_c, 3, 82, 100
1, 59700, Note_on_c, 9, 46, 100
1, 59760, Note_on_c, 9, 46, 0
1, 59760, Note_on_c, 9, 36, 0
1, 59760, Note_on_c, 0, 67, 0
1, 59760, Note_on_c, 9, 38, 0
1, 59760, Note_on_c, 3, 82, 0
1, 59760, Note_on_c, 0, 55, 0
1, 59760, Note_on_c, 0, 74, 100
1, 59760, Note_on_c, 0, 69, 100
1, 59760, Note_on_c, 0, 43, 100
1, 59760, Note_on_c, 1, 69, 100
1, 59760, Note_on_c, 2, 43, 100
1, 59760, Note_on_c, 3, 82, 100
1, 59760, Note_on_c, 5, 69, 100
1, 59760, Note_on_c, 9, 36, 100
1, 59760, Note_on_c, 9, 46, 100
1, 59790, Note_on_c, 5, 69, 0
1, 59790, Note_on_c, 0, 69, 0
1, 59790, Note_on_c, 1, 69, 0
1, 59790, Note_on_c, 0, 70, 100
1, 59790, Note_on_c, 1, 70, 100
1, 59790, Note_on_c, 5, 72, 100
1, 59820, Note_on_c, 5, 72, 0
1, 59820, Note_on_c, 9, 46, 0
1, 59820, Note_on_c, 1, 70, 0
1, 59820, Note_on_c, 9, 36, 0
1, 59820, Note_on_c, 2, 43, 0
1, 59820, Note_on_c, 0, 43, 0
1, 59820, Note_on_c, 0, 55, 100
1, 59820, Note_on_c, 1, 67, 100
1, 59820, Note_on_c, 5, 67, 100
1, 59820, Note_on_c, 9, 36, 100
1, 59820, Note_on_c, 9, 46, 100
1, 59850, Note_on_c, 9, 36, 0
1, 59850, Note_on_c, 0, 74, 0
1, 59850, Note_on_c, 1, 67, 0
1, 59850, Note_on_c, 0, 70, 0
1, 59850, Note_on_c, 3, 82, 0
1, 59850, Note_on_c, 5, 67, 0
1, 59850, Note_on_c, 0, 74, 100
1, 59850, Note_on_c, 0, 67, 100
1, 59850, Note_on_c, 1, 65, 100
1, 59850, Note_on_c, 3, 79, 100
1, 59850, Note_on_c, 5, 65, 100
1, 59850, Note_on_c, 9, 36, 100
1, 59880, Note_on_c, 9, 36, 0
1, 59880, Note_on_c, 5, 65, 0
1, 59880, Note_on_c, 9, 46, 0
1, 59880, Note_on_c, 0, 55, 0
1, 59880, Note_on_c, 1, 65, 0
1, 59880, Note_on_c, 0, 43, 100
1, 59880, Note_on_c, 1, 62, 100
1, 59880, Note_on_c, 2, 43, 100
1, 59880, Note_on_c, 5, 62, 100
1, 59880, Note_on_c, 9, 36, 100
1, 59880, Note_on_c, 9, 40, 100
1, 59880, Note_on_c, 9, 46, 100
1, 59910, Note_on_c, 5, 62, 0
1, 59910, Note_on_c, 0, 67, 0
1, 59910, Note_on_c, 0, 74, 0
1, 59910, Note_on_c, 1, 62, 0
1, 59910, Note_on_c, 3, 79, 0
1, 59910, Note_on_c, 0, 65, 100
1, 59910, Note_on_c, 1, 65, 100
1, 59910, Note_on_c, 3, 79, 100
1, 59910, Note_on_c, 5, 65, 100
1, 59940, Note_on_c, 5, 65, 0
1, 59940, Note_on_c, 9, 46, 0
1, 59940, Note_on_c, 3, 79, 0
1, 59940, Note_on_c, 0, 43, 0
1, 59940, Note_on_c, 2, 43, 0
1, 59940, Note_on_c, 1, 65, 0
1, 59940, Note_on_c, 0, 65, 0
1, 59940, Note_on_c, 0, 62, 100
1, 59940, Note_on_c, 0, 55, 100
1, 59940, Note_on_c, 1, 67, 100
1, 59940, Note_on_c, 3, 79, 100
1, 59940, Note_on_c, 5, 67, 100
1, 59940, Note_on_c, 9, 46, 100
1, 59970, Note_on_c, 0, 62, 0
1, 60000, Note_on_c, 9, 36, 0
1, 60000, Note_on_c, 3, 79, 0
1, 60000, Note_on_c, 9, 40, 0
1, 60000, Note_on_c, 0, 55, 0
1, 60000, Note_on_c, 1, 67, 0
1, 60000, Note_on_c, 5, 67, 0
1, 60000, Note_on_c, 9, 46, 0
1, 60000, Note_on_c, 0, 43, 100
1, 60000, Note_on_c, 2, 43, 100
1, 60000, Note_on_c, 3, 79, 100
1, 60000, Note_on_c, 9, 36, 100
1, 60000, Note_on_c, 9, 46, 100
1, 60060, Note_on_c, 9, 46, 0
1, 60060, Note_on_c, 2, 43, 0
1, 60060, Note_on_c, 0, 43, 0
1, 60060, Note_on_c, 9, 36, 0
1, 60060, Note_on_c, 0, 67, 100
1, 60060, Note_on_c, 0, 55, 100
1, 60060, Note_on_c, 1, 69, 100
1, 60060, Note_on_c, 1, 73, 100
1, 60060, Note_on_c, 5, 69, 100
1, 60060, Note_on_c, 5, 73, 100
1, 60060, Note_on_c, 9, 36, 100
1, 60060, Note_on_c, 9, 46, 100
1, 60120, Note_on_c, 9, 46, 0
1, 60120, Note_on_c, 1, 69, 0
1, 60120, Note_on_c, 3, 79, 0
1, 60120, Note_on_c, 1, 73, 0
1, 60120, Note_on_c, 0, 67, 0
1, 60120, Note_on_c, 0, 55, 0
1, 60120, Note_on_c, 5, 73, 0
1, 60120, Note_on_c, 5, 69, 0
1, 60120, Note_on_c, 9, 36, 0
1, 60120, Note_on_c, 0, 65, 100
1, 60120, Note_on_c, 0, 43, 100
1, 60120, Note_on_c, 1, 70, 100
1, 60120, Note_on_c, 1, 74, 100
1, 60120, Note_on_c, 2, 43, 100
1, 60120, Note_on_c, 5, 74, 100
1, 60120, Note_on_c, 5, 70, 100
1, 60120, Note_on_c, 9, 36, 100
1, 60120, Note_on_c, 9, 38, 100
1, 60120, Note_on_c, 9, 46, 100
1, 60180, Note_on_c, 9, 46, 0
1, 60180, Note_on_c, 1, 70, 0
1, 60180, Note_on_c, 5, 70, 0
1, 60180, Note_on_c, 0, 65, 0
1, 60180, Note_on_c, 2, 43, 0
1, 60180, Note_on_c, 0, 43, 0
1, 60180, Note_on_c, 1, 74, 0
1, 60180, Note_on_c, 5, 74, 0
1, 60180, Note_on_c, 0, 67, 100
1, 60180, Note_on_c, 0, 55, 100
1, 60180, Note_on_c, 9, 46, 100
1, 60240, Note_on_c, 9, 46, 0
1, 60240, Note_on_c, 0, 67, 0
1, 60240, Note_on_c, 9, 36, 0
1, 60240, Note_on_c, 9, 38, 0
1, 60240, Note_on_c, 0, 55, 0
1, 60240, Note_on_c, 0, 74, 100
1, 60240, Note_on_c, 0, 69, 100
1, 60240, Note_on_c, 0, 43, 100
1, 60240, Note_on_c, 1, 69, 100
1, 60240, Note_on_c, 2, 43, 100
1, 60240, Note_on_c, 5, 69, 100
1, 60240, Note_on_c, 9, 36, 100
1, 60240, Note_on_c, 9, 46, 100
1, 60270, Note_on_c, 5, 69, 0
1, 60270, Note_on_c, 0, 69, 0
1, 60270, Note_on_c, 1, 69, 0
1, 60270, Note_on_c, 0, 70, 100
1, 60270, Note_on_c, 1, 70, 100
1, 60270, Note_on_c, 5, 72, 100
1, 60300, Note_on_c, 5, 72, 0
1, 60300, Note_on_c, 1, 70, 0
1, 60300, Note_on_c, 9, 36, 0
1, 60300, Note_on_c, 9, 46, 0
1, 60300, Note_on_c, 2, 43, 0
1, 60300, Note_on_c, 0, 43, 0
1, 60300, Note_on_c, 0, 55, 100
1, 60300, Note_on_c, 1, 67, 100
1, 60300, Note_on_c, 5, 67, 100
1, 60300, Note_on_c, 9, 36, 100
1, 60300, Note_on_c, 9, 46, 100
1, 60330, Note_on_c, 9, 36, 0
1, 60330, Note_on_c, 1, 67, 0
1, 60330, Note_on_c, 0, 70, 0
1, 60330, Note_on_c, 0, 74, 0
1, 60330, Note_on_c, 5, 67, 0
1, 60330, Note_on_c, 0, 74, 100
1, 60330, Note_on_c, 0, 65, 100
1, 60330, Note_on_c, 1, 65, 100
1, 60330, Note_on_c, 5, 65, 100
1, 60330, Note_on_c, 9, 36, 100
1, 60360, Note_on_c, 9, 36, 0
1, 60360, Note_on_c, 1, 65, 0
1, 60360, Note_on_c, 9, 46, 0
1, 60360, Note_on_c, 0, 55, 0
1, 60360, Note_on_c, 5, 65, 0
1, 60360, Note_on_c, 0, 43, 100
1, 60360, Note_on_c, 1, 62, 100
1, 60360, Note_on_c, 2, 43, 100
1, 60360, Note_on_c, 5, 62, 100
1, 60360, Note_on_c, 9, 36, 100
1, 60360, Note_on_c, 9, 40, 100
1, 60360, Note_on_c, 9, 46, 100
1, 60390, Note_on_c, 5, 62, 0
1, 60390, Note_on_c, 0, 65, 0
1, 60390, Note_on_c, 0, 74, 0
1, 60390, Note_on_c, 1, 62, 0
1, 60390, Note_on_c, 0, 72, 100
1, 60390, Note_on_c, 0, 65, 100
1, 60390, Note_on_c, 1, 65, 100
1, 60390, Note_on_c, 5, 65, 100
1, 60420, Note_on_c, 5, 65, 0
1, 60420, Note_on_c, 2, 43, 0
1, 60420, Note_on_c, 1, 65, 0
1, 60420, Note_on_c, 0, 72, 0
1, 60420, Note_on_c, 0, 43, 0
1, 60420, Note_on_c, 9, 46, 0
1, 60420, Note_on_c, 0, 70, 100
1, 60420, Note_on_c, 0, 55, 100
1, 60420, Note_on_c, 1, 67, 100
1, 60420, Note_on_c, 5, 67, 100
1, 60420, Note_on_c, 9, 46, 100
1, 60450, Note_on_c, 0, 70, 0
1, 60450, Note_on_c, 0, 65, 0
1, 60450, Note_on_c, 0, 70, 100
1, 60450, Note_on_c, 0, 65, 100
1, 60480, Note_on_c, 0, 65, 0
1, 60480, Note_on_c, 9, 46, 0
1, 60480, Note_on_c, 5, 67, 0
1, 60480, Note_on_c, 9, 36, 0
1, 60480, Note_on_c, 0, 55, 0
1, 60480, Note_on_c, 9, 40, 0
1, 60480, Note_on_c, 1, 67, 0
1, 60480, Note_on_c, 0, 70, 0
1, 60480, Note_on_c, 0, 43, 100
1, 60480, Note_on_c, 2, 43, 100
1, 60480, Note_on_c, 9, 36, 100
1, 60480, Note_on_c, 9, 49, 100
1, 60540, Note_on_c, 9, 49, 0
1, 60540, Note_on_c, 0, 43, 0
1, 60540, Note_on_c, 2, 43, 0
1, 60540, Note_on_c, 9, 36, 0
1, 60540, Note_on_c, 0, 67, 100
1, 60540, Note_on_c, 0, 55, 100
1, 60540, Note_on_c, 1, 69, 100
1, 60540, Note_on_c, 1, 73, 100
1, 60540, Note_on_c, 3, 82, 100
1, 60540, Note_on_c, 5, 69, 100
1, 60540, Note_on_c, 5, 73, 100
1, 60540, Note_on_c, 9, 36, 100
1, 60540, Note_on_c, 9, 46, 100
1, 60600, Note_on_c, 9, 46, 0
1, 60600, Note_on_c, 1, 73, 0
1, 60600, Note_on_c, 0, 67, 0
1, 60600, Note_on_c, 3, 82, 0
1, 60600, Note_on_c, 0, 55, 0
1, 60600, Note_on_c, 1, 69, 0
1, 60600, Note_on_c, 5, 73, 0
1, 60600, Note_on_c, 5, 69, 0
1, 60600, Note_on_c, 9, 36, 0
1, 60600, Note_on_c, 0, 65, 100
1, 60600, Note_on_c, 0, 43, 100
1, 60600, Note_on_c, 1, 70, 100
1, 60600, Note_on_c, 1, 74, 100
1, 60600, Note_on_c, 2, 43, 100
1, 60600, Note_on_c, 3, 82, 100
1, 60600, Note_on_c, 5, 74, 100
1, 60600, Note_on_c, 5, 70, 100
1, 60600, Note_on_c, 9, 40, 100
1, 60600, Note_on_c, 9, 36, 100
1, 60600, Note_on_c, 9, 46, 100
1, 60660, Note_on_c, 9, 46, 0
1, 60660, Note_on_c, 1, 70, 0
1, 60660, Note_on_c, 5, 70, 0
1, 60660, Note_on_c, 1, 74, 0
1, 60660, Note_on_c, 0, 65, 0
1, 60660, Note_on_c, 2, 43, 0
1, 60660, Note_on_c, 0, 43, 0
1, 60660, Note_on_c, 5, 74, 0
1, 60660, Note_on_c, 3, 82, 0
1, 60660, Note_on_c, 0, 67, 100
1, 60660, Note_on_c, 0, 55, 100
1, 60660, Note_on_c, 3, 82, 100
1, 60660, Note_on_c, 9, 46, 100
1, 60720, Note_on_c, 9, 46, 0
1, 60720, Note_on_c, 9, 40, 0
1, 60720, Note_on_c, 0, 67, 0
1, 60720, Note_on_c, 9, 36, 0
1, 60720, Note_on_c, 3, 82, 0
1, 60720, Note_on_c, 0, 55, 0
1, 60720, Note_on_c, 0, 74, 100
1, 60720, Note_on_c, 0, 69, 100
1, 60720, Note_on_c, 0, 43, 100
1, 60720, Note_on_c, 1, 69, 100
1, 60720, Note_on_c, 2, 43, 100
1, 60720, Note_on_c, 3, 82, 100
1, 60720, Note_on_c, 5, 69, 100
1, 60720, Note_on_c, 9, 36, 100
1, 60720, Note_on_c, 9, 46, 100
1, 60750, Note_on_c, 5, 69, 0
1, 60750, Note_on_c, 0, 69, 0
1, 60750, Note_on_c, 1, 69, 0
1, 60750, Note_on_c, 0, 70, 100
1, 60750, Note_on_c, 1, 70, 100
1, 60750, Note_on_c, 5, 72, 100
1, 60780, Note_on_c, 5, 72, 0
1, 60780, Note_on_c, 9, 46, 0
1, 60780, Note_on_c, 1, 70, 0
1, 60780, Note_on_c, 9, 36, 0
1, 60780, Note_on_c, 2, 43, 0
1, 60780, Note_on_c, 0, 43, 0
1, 60780, Note_on_c, 0, 55, 100
1, 60780, Note_on_c, 1, 67, 100
1, 60780, Note_on_c, 5, 67, 100
1, 60780, Note_on_c, 9, 36, 100
1, 60780, Note_on_c, 9, 46, 100
1, 60810, Note_on_c, 9, 36, 0
1, 60810, Note_on_c, 0, 74, 0
1, 60810, Note_on_c, 1, 67, 0
1, 60810, Note_on_c, 0, 70, 0
1, 60810, Note_on_c, 3, 82, 0
1, 60810, Note_on_c, 5, 67, 0
1, 60810, Note_on_c, 0, 74, 100
1, 60810, Note_on_c, 0, 67, 100
1, 60810, Note_on_c, 1, 65, 100
1, 60810, Note_on_c, 3, 79, 100
1, 60810, Note_on_c, 5, 65, 100
1, 60810, Note_on_c, 9, 36, 100
1, 60840, Note_on_c, 9, 36, 0
1, 60840, Note_on_c, 5, 65, 0
1, 60840, Note_on_c, 9, 46, 0
1, 60840, Note_on_c, 0, 55, 0
1, 60840, Note_on_c, 1, 65, 0
1, 60840, Note_on_c, 0, 43, 100
1, 60840, Note_on_c, 1, 62, 100
1, 60840, Note_on_c, 2, 43, 100
1, 60840, Note_on_c, 5, 62, 100
1, 60840, Note_on_c, 9, 36, 100
1, 60840, Note_on_c, 9, 38, 100
1, 60840, Note_on_c, 9, 46, 100
1, 60870, Note_on_c, 5, 62, 0
1, 60870, Note_on_c, 0, 67, 0
1, 60870, Note_on_c, 0, 74, 0
1, 60870, Note_on_c, 1, 62, 0
1, 60870, Note_on_c, 3, 79, 0
1, 60870, Note_on_c, 0, 65, 100
1, 60870, Note_on_c, 1, 65, 100
1, 60870, Note_on_c, 3, 79, 100
1, 60870, Note_on_c, 5, 65, 100
1, 60900, Note_on_c, 5, 65, 0
1, 60900, Note_on_c, 9, 46, 0
1, 60900, Note_on_c, 3, 79, 0
1, 60900, Note_on_c, 0, 43, 0
1, 60900, Note_on_c, 2, 43, 0
1, 60900, Note_on_c, 1, 65, 0
1, 60900, Note_on_c, 0, 65, 0
1, 60900, Note_on_c, 0, 62, 100
1, 60900, Note_on_c, 0, 55, 100
1, 60900, Note_on_c, 1, 67, 100
1, 60900, Note_on_c, 3, 79, 100
1, 60900, Note_on_c, 5, 67, 100
1, 60900, Note_on_c, 9, 46, 100
1, 60930, Note_on_c, 0, 62, 0
1, 60960, Note_on_c, 9, 36, 0
1, 60960, Note_on_c, 3, 79, 0
1, 60960, Note_on_c, 9, 38, 0
1, 60960, Note_on_c, 0, 55, 0
1, 60960, Note_on_c, 1, 67, 0
1, 60960, Note_on_c, 5, 67, 0
1, 60960, Note_on_c, 9, 46, 0
1, 60960, Note_on_c, 0, 43, 100
1, 60960, Note_on_c, 2, 43, 100
1, 60960, Note_on_c, 3, 79, 100
1, 60960, Note_on_c, 9, 36, 100
1, 60960, Note_on_c, 9, 46, 100
1, 61020, Note_on_c, 9, 46, 0
1, 61020, Note_on_c, 2, 43, 0
1, 61020, Note_on_c, 0, 43, 0
1, 61020, Note_on_c, 9, 36, 0
1, 61020, Note_on_c, 0, 67, 100
1, 61020, Note_on_c, 0, 55, 100
1, 61020, Note_on_c, 1, 69, 100
1, 61020, Note_on_c, 1, 73, 100
1, 61020, Note_on_c, 5, 69, 100
1, 61020, Note_on_c, 5, 73, 100
1, 61020, Note_on_c, 9, 36, 100
1, 61020, Note_on_c, 9, 46, 100
1, 61080, Note_on_c, 9, 46, 0
1, 61080, Note_on_c, 1, 69, 0
1, 61080, Note_on_c, 3, 79, 0
1, 61080, Note_on_c, 1, 73, 0
1, 61080, Note_on_c, 0, 67, 0
1, 61080, Note_on_c, 0, 55, 0
1, 61080, Note_on_c, 5, 73, 0
1, 61080, Note_on_c, 5, 69, 0
1, 61080, Note_on_c, 9, 36, 0
1, 61080, Note_on_c, 0, 65, 100
1, 61080, Note_on_c, 0, 43, 100
1, 61080, Note_on_c, 1, 70, 100
1, 61080, Note_on_c, 1, 74, 100
1, 61080, Note_on_c, 2, 43, 100
1, 61080, Note_on_c, 5, 74, 100
1, 61080, Note_on_c, 5, 70, 100
1, 61080, Note_on_c, 9, 36, 100
1, 61080, Note_on_c, 9, 38, 100
1, 61080, Note_on_c, 9, 46, 100
1, 61140, Note_on_c, 9, 46, 0
1, 61140, Note_on_c, 1, 70, 0
1, 61140, Note_on_c, 5, 70, 0
1, 61140, Note_on_c, 0, 65, 0
1, 61140, Note_on_c, 2, 43, 0
1, 61140, Note_on_c, 0, 43, 0
1, 61140, Note_on_c, 1, 74, 0
1, 61140, Note_on_c, 5, 74, 0
1, 61140, Note_on_c, 0, 67, 100
1, 61140, Note_on_c, 0, 55, 100
1, 61140, Note_on_c, 9, 46, 100
1, 61200, Note_on_c, 9, 46, 0
1, 61200, Note_on_c, 0, 67, 0
1, 61200, Note_on_c, 9, 36, 0
1, 61200, Note_on_c, 9, 38, 0
1, 61200, Note_on_c, 0, 55, 0
1, 61200, Note_on_c, 0, 74, 100
1, 61200, Note_on_c, 0, 69, 100
1, 61200, Note_on_c, 0, 43, 100
1, 61200, Note_on_c, 1, 69, 100
1, 61200, Note_on_c, 2, 43, 100
1, 61200, Note_on_c, 5, 69, 100
1, 61200, Note_on_c, 9, 36, 100
1, 61200, Note_on_c, 9, 46, 100
1, 61230, Note_on_c, 5, 69, 0
1, 61230, Note_on_c, 0, 69, 0
1, 61230, Note_on_c, 1, 69, 0
1, 61230, Note_on_c, 0, 70, 100
1, 61230, Note_on_c, 1, 70, 100
1, 61230, Note_on_c, 5, 72, 100
1, 61260, Note_on_c, 5, 72, 0
1, 61260, Note_on_c, 1, 70, 0
1, 61260, Note_on_c, 9, 36, 0
1, 61260, Note_on_c, 9, 46, 0
1, 61260, Note_on_c, 2, 43, 0
1, 61260, Note_on_c, 0, 43, 0
1, 61260, Note_on_c, 0, 55, 100
1, 61260, Note_on_c, 1, 67, 100
1, 61260, Note_on_c, 5, 67, 100
1, 61260, Note_on_c, 9, 36, 100
1, 61260, Note_on_c, 9, 46, 100
1, 61290, Note_on_c, 9, 36, 0
1, 61290, Note_on_c, 1, 67, 0
1, 61290, Note_on_c, 0, 70, 0
1, 61290, Note_on_c, 0, 74, 0
1, 61290, Note_on_c, 5, 67, 0
1, 61290, Note_on_c, 0, 74, 100
1, 61290, Note_on_c, 0, 65, 100
1, 61290, Note_on_c, 1, 65, 100
1, 61290, Note_on_c, 5, 65, 100
1, 61290, Note_on_c, 9, 36, 100
1, 61320, Note_on_c, 9, 36, 0
1, 61320, Note_on_c, 1, 65, 0
1, 61320, Note_on_c, 9, 46, 0
1, 61320, Note_on_c, 0, 55, 0
1, 61320, Note_on_c, 5, 65, 0
1, 61320, Note_on_c, 0, 43, 100
1, 61320, Note_on_c, 1, 62, 100
1, 61320, Note_on_c, 2, 43, 100
1, 61320, Note_on_c, 5, 62, 100
1, 61320, Note_on_c, 9, 36, 100
1, 61320, Note_on_c, 9, 40, 100
1, 61320, Note_on_c, 9, 46, 100
1, 61350, Note_on_c, 5, 62, 0
1, 61350, Note_on_c, 0, 65, 0
1, 61350, Note_on_c, 0, 74, 0
1, 61350, Note_on_c, 1, 62, 0
1, 61350, Note_on_c, 0, 72, 100
1, 61350, Note_on_c, 0, 65, 100
1, 61350, Note_on_c, 1, 65, 100
1, 61350, Note_on_c, 5, 65, 100
1, 61380, Note_on_c, 5, 65, 0
1, 61380, Note_on_c, 2, 43, 0
1, 61380, Note_on_c, 1, 65, 0
1, 61380, Note_on_c, 0, 72, 0
1, 61380, Note_on_c, 0, 43, 0
1, 61380, Note_on_c, 9, 46, 0
1, 61380, Note_on_c, 0, 70, 100
1, 61380, Note_on_c, 0, 55, 100
1, 61380, Note_on_c, 1, 67, 100
1, 61380, Note_on_c, 5, 67, 100
1, 61380, Note_on_c, 9, 46, 100
1, 61410, Note_on_c, 0, 70, 0
1, 61410, Note_on_c, 0, 65, 0
1, 61410, Note_on_c, 0, 70, 100
1, 61410, Note_on_c, 0, 65, 100
1, 61440, Note_on_c, 0, 65, 0
1, 61440, Note_on_c, 9, 46, 0
1, 61440, Note_on_c, 5, 67, 0
1, 61440, Note_on_c, 9, 36, 0
1, 61440, Note_on_c, 0, 55, 0
1, 61440, Note_on_c, 9, 40, 0
1, 61440, Note_on_c, 1, 67, 0
1, 61440, Note_on_c, 0, 70, 0
1, 61440, Note_on_c, 0, 43, 100
1, 61440, Note_on_c, 2, 43, 100
1, 61440, Note_on_c, 9, 36, 100
1, 61440, Note_on_c, 9, 46, 100
1, 61500, Note_on_c, 9, 46, 0
1, 61500, Note_on_c, 0, 43, 0
1, 61500, Note_on_c, 2, 43, 0
1, 61500, Note_on_c, 9, 36, 0
1, 61500, Note_on_c, 0, 67, 100
1, 61500, Note_on_c, 0, 55, 100
1, 61500, Note_on_c, 1, 69, 100
1, 61500, Note_on_c, 1, 73, 100
1, 61500, Note_on_c, 3, 82, 100
1, 61500, Note_on_c, 5, 69, 100
1, 61500, Note_on_c, 5, 73, 100
1, 61500, Note_on_c, 9, 36, 100
1, 61500, Note_on_c, 9, 46, 100
1, 61560, Note_on_c, 9, 46, 0
1, 61560, Note_on_c, 1, 73, 0
1, 61560, Note_on_c, 0, 67, 0
1, 61560, Note_on_c, 3, 82, 0
1, 61560, Note_on_c, 0, 55, 0
1, 61560, Note_on_c, 1, 69, 0
1, 61560, Note_on_c, 5, 73, 0
1, 61560, Note_on_c, 5, 69, 0
1, 61560, Note_on_c, 9, 36, 0
1, 61560, Note_on_c, 0, 65, 100
1, 61560, Note_on_c, 0, 43, 100
1, 61560, Note_on_c, 1, 70, 100
1, 61560, Note_on_c, 1, 74, 100
1, 61560, Note_on_c, 2, 43, 100
1, 61560, Note_on_c, 3, 82, 100
1, 61560, Note_on_c, 5, 74, 100
1, 61560, Note_on_c, 5, 70, 100
1, 61560, Note_on_c, 9, 36, 100
1, 61560, Note_on_c, 9, 38, 100
1, 61560, Note_on_c, 9, 46, 100
1, 61620, Note_on_c, 9, 46, 0
1, 61620, Note_on_c, 1, 70, 0
1, 61620, Note_on_c, 5, 70, 0
1, 61620, Note_on_c, 1, 74, 0
1, 61620, Note_on_c, 0, 65, 0
1, 61620, Note_on_c, 2, 43, 0
1, 61620, Note_on_c, 0, 43, 0
1, 61620, Note_on_c, 5, 74, 0
1, 61620, Note_on_c, 3, 82, 0
1, 61620, Note_on_c, 0, 67, 100
1, 61620, Note_on_c, 0, 55, 100
1, 61620, Note_on_c, 3, 82, 100
1, 61620, Note_on_c, 9, 46, 100
1, 61680, Note_on_c, 9, 46, 0
1, 61680, Note_on_c, 9, 36, 0
1, 61680, Note_on_c, 0, 67, 0
1, 61680, Note_on_c, 9, 38, 0
1, 61680, Note_on_c, 3, 82, 0
1, 61680, Note_on_c, 0, 55, 0
1, 61680, Note_on_c, 0, 74, 100
1, 61680, Note_on_c, 0, 69, 100
1, 61680, Note_on_c, 0, 43, 100
1, 61680, Note_on_c, 1, 69, 100
1, 61680, Note_on_c, 2, 43, 100
1, 61680, Note_on_c, 3, 82, 100
1, 61680, Note_on_c, 5, 69, 100
1, 61680, Note_on_c, 9, 36, 100
1, 61680, Note_on_c, 9, 46, 100
1, 61710, Note_on_c, 5, 69, 0
1, 61710, Note_on_c, 0, 69, 0
1, 61710, Note_on_c, 1, 69, 0
1, 61710, Note_on_c, 0, 70, 100
1, 61710, Note_on_c, 1, 70, 100
1, 61710, Note_on_c, 5, 72, 100
1, 61740, Note_on_c, 5, 72, 0
1, 61740, Note_on_c, 9, 46, 0
1, 61740, Note_on_c, 1, 70, 0
1, 61740, Note_on_c, 9, 36, 0
1, 61740, Note_on_c, 2, 43, 0
1, 61740, Note_on_c, 0, 43, 0
1, 61740, Note_on_c, 0, 55, 100
1, 61740, Note_on_c, 1, 67, 100
1, 61740, Note_on_c, 5, 67, 100
1, 61740, Note_on_c, 9, 36, 100
1, 61740, Note_on_c, 9, 46, 100
1, 61770, Note_on_c, 9, 36, 0
1, 61770, Note_on_c, 0, 74, 0
1, 61770, Note_on_c, 1, 67, 0
1, 61770, Note_on_c, 0, 70, 0
1, 61770, Note_on_c, 3, 82, 0
1, 61770, Note_on_c, 5, 67, 0
1, 61770, Note_on_c, 0, 74, 100
1, 61770, Note_on_c, 0, 67, 100
1, 61770, Note_on_c, 1, 65, 100
1, 61770, Note_on_c, 3, 79, 100
1, 61770, Note_on_c, 5, 65, 100
1, 61770, Note_on_c, 9, 36, 100
1, 61800, Note_on_c, 9, 36, 0
1, 61800, Note_on_c, 5, 65, 0
1, 61800, Note_on_c, 9, 46, 0
1, 61800, Note_on_c, 0, 55, 0
1, 61800, Note_on_c, 1, 65, 0
1, 61800, Note_on_c, 0, 43, 100
1, 61800, Note_on_c, 1, 62, 100
1, 61800, Note_on_c, 2, 43, 100
1, 61800, Note_on_c, 5, 62, 100
1, 61800, Note_on_c, 9, 36, 100
1, 61800, Note_on_c, 9, 40, 100
1, 61800, Note_on_c, 9, 46, 100
1, 61830, Note_on_c, 5, 62, 0
1, 61830, Note_on_c, 0, 67, 0
1, 61830, Note_on_c, 0, 74, 0
1, 61830, Note_on_c, 1, 62, 0
1, 61830, Note_on_c, 3, 79, 0
1, 61830, Note_on_c, 0, 65, 100
1, 61830, Note_on_c, 1, 65, 100
1, 61830, Note_on_c, 3, 79, 100
1, 61830, Note_on_c, 5, 65, 100
1, 61860, Note_on_c, 5, 65, 0
1, 61860, Note_on_c, 9, 46, 0
1, 61860, Note_on_c, 3, 79, 0
1, 61860, Note_on_c, 0, 43, 0
1, 61860, Note_on_c, 2, 43, 0
1, 61860, Note_on_c, 1, 65, 0
1, 61860, Note_on_c, 0, 65, 0
1, 61860, Note_on_c, 0, 62, 100
1, 61860, Note_on_c, 0, 55, 100
1, 61860, Note_on_c, 1, 67, 100
1, 61860, Note_on_c, 3, 79, 100
1, 61860, Note_on_c, 5, 67, 100
1, 61860, Note_on_c, 9, 46, 100
1, 61890, Note_on_c, 0, 62, 0
1, 61920, Note_on_c, 9, 36, 0
1, 61920, Note_on_c, 3, 79, 0
1, 61920, Note_on_c, 9, 40, 0
1, 61920, Note_on_c, 0, 55, 0
1, 61920, Note_on_c, 1, 67, 0
1, 61920, Note_on_c, 5, 67, 0
1, 61920, Note_on_c, 9, 46, 0
1, 61920, Note_on_c, 0, 43, 100
1, 61920, Note_on_c, 2, 43, 100
1, 61920, Note_on_c, 3, 79, 100
1, 61920, Note_on_c, 9, 36, 100
1, 61920, Note_on_c, 9, 46, 100
1, 61980, Note_on_c, 9, 46, 0
1, 61980, Note_on_c, 2, 43, 0
1, 61980, Note_on_c, 0, 43, 0
1, 61980, Note_on_c, 9, 36, 0
1, 61980, Note_on_c, 0, 67, 100
1, 61980, Note_on_c, 0, 55, 100
1, 61980, Note_on_c, 1, 69, 100
1, 61980, Note_on_c, 1, 73, 100
1, 61980, Note_on_c, 5, 69, 100
1, 61980, Note_on_c, 5, 73, 100
1, 61980, Note_on_c, 9, 36, 100
1, 61980, Note_on_c, 9, 46, 100
1, 62040, Note_on_c, 9, 46, 0
1, 62040, Note_on_c, 1, 69, 0
1, 62040, Note_on_c, 3, 79, 0
1, 62040, Note_on_c, 1, 73, 0
1, 62040, Note_on_c, 0, 67, 0
1, 62040, Note_on_c, 0, 55, 0
1, 62040, Note_on_c, 5, 73, 0
1, 62040, Note_on_c, 5, 69, 0
1, 62040, Note_on_c, 9, 36, 0
1, 62040, Note_on_c, 0, 65, 100
1, 62040, Note_on_c, 0, 43, 100
1, 62040, Note_on_c, 1, 70, 100
1, 62040, Note_on_c, 1, 74, 100
1, 62040, Note_on_c, 2, 43, 100
1, 62040, Note_on_c, 5, 74, 100
1, 62040, Note_on_c, 5, 70, 100
1, 62040, Note_on_c, 9, 36, 100
1, 62040, Note_on_c, 9, 38, 100
1, 62040, Note_on_c, 9, 46, 100
1, 62100, Note_on_c, 9, 46, 0
1, 62100, Note_on_c, 1, 70, 0
1, 62100, Note_on_c, 5, 70, 0
1, 62100, Note_on_c, 0, 65, 0
1, 62100, Note_on_c, 2, 43, 0
1, 62100, Note_on_c, 0, 43, 0
1, 62100, Note_on_c, 1, 74, 0
1, 62100, Note_on_c, 5, 74, 0
1, 62100, Note_on_c, 0, 67, 100
1, 62100, Note_on_c, 0, 55, 100
1, 62100, Note_on_c, 9, 46, 100
1, 62160, Note_on_c, 9, 46, 0
1, 62160, Note_on_c, 0, 67, 0
1, 62160, Note_on_c, 9, 36, 0
1, 62160, Note_on_c, 9, 38, 0
1, 62160, Note_on_c, 0, 55, 0
1, 62160, Note_on_c, 0, 74, 100
1, 62160, Note_on_c, 0, 69, 100
1, 62160, Note_on_c, 0, 43, 100
1, 62160, Note_on_c, 1, 69, 100
1, 62160, Note_on_c, 2, 43, 100
1, 62160, Note_on_c, 5, 69, 100
1, 62160, Note_on_c, 9, 36, 100
1, 62160, Note_on_c, 9, 46, 100
1, 62190, Note_on_c, 5, 69, 0
1, 62190, Note_on_c, 0, 69, 0
1, 62190, Note_on_c, 1, 69, 0
1, 62190, Note_on_c, 0, 70, 100
1, 62190, Note_on_c, 1, 70, 100
1, 62190, Note_on_c, 5, 72, 100
1, 62220, Note_on_c, 5, 72, 0
1, 62220, Note_on_c, 1, 70, 0
1, 62220, Note_on_c, 9, 36, 0
1, 62220, Note_on_c, 9, 46, 0
1, 62220, Note_on_c, 2, 43, 0
1, 62220, Note_on_c, 0, 43, 0
1, 62220, Note_on_c, 0, 55, 100
1, 62220, Note_on_c, 1, 67, 100
1, 62220, Note_on_c, 5, 67, 100
1, 62220, Note_on_c, 9, 36, 100
1, 62220, Note_on_c, 9, 46, 100
1, 62250, Note_on_c, 9, 36, 0
1, 62250, Note_on_c, 1, 67, 0
1, 62250, Note_on_c, 0, 70, 0
1, 62250, Note_on_c, 0, 74, 0
1, 62250, Note_on_c, 5, 67, 0
1, 62250, Note_on_c, 0, 74, 100
1, 62250, Note_on_c, 0, 65, 100
1, 62250, Note_on_c, 1, 65, 100
1, 62250, Note_on_c, 5, 65, 100
1, 62250, Note_on_c, 9, 36, 100
1, 62280, Note_on_c, 9, 36, 0
1, 62280, Note_on_c, 1, 65, 0
1, 62280, Note_on_c, 9, 46, 0
1, 62280, Note_on_c, 0, 55, 0
1, 62280, Note_on_c, 5, 65, 0
1, 62280, Note_on_c, 0, 43, 100
1, 62280, Note_on_c, 1, 62, 100
1, 62280, Note_on_c, 2, 43, 100
1, 62280, Note_on_c, 5, 62, 100
1, 62280, Note_on_c, 9, 36, 100
1, 62280, Note_on_c, 9, 40, 100
1, 62280, Note_on_c, 9, 46, 100
1, 62310, Note_on_c, 5, 62, 0
1, 62310, Note_on_c, 0, 65, 0
1, 62310, Note_on_c, 0, 74, 0
1, 62310, Note_on_c, 1, 62, 0
1, 62310, Note_on_c, 0, 72, 100
1, 62310, Note_on_c, 0, 65, 100
1, 62310, Note_on_c, 1, 65, 100
1, 62310, Note_on_c, 5, 65, 100
1, 62340, Note_on_c, 5, 65, 0
1, 62340, Note_on_c, 2, 43, 0
1, 62340, Note_on_c, 1, 65, 0
1, 62340, Note_on_c, 0, 72, 0
1, 62340, Note_on_c, 0, 43, 0
1, 62340, Note_on_c, 9, 46, 0
1, 62340, Note_on_c, 0, 70, 100
1, 62340, Note_on_c, 0, 55, 100
1, 62340, Note_on_c, 1, 67, 100
1, 62340, Note_on_c, 5, 67, 100
1, 62340, Note_on_c, 9, 46, 100
1, 62370, Note_on_c, 0, 70, 0
1, 62370, Note_on_c, 0, 65, 0
1, 62370, Note_on_c, 0, 70, 100
1, 62370, Note_on_c, 0, 65, 100
1, 62400, Note_on_c, 0, 65, 0
1, 62400, Note_on_c, 9, 46, 0
1, 62400, Note_on_c, 5, 67, 0
1, 62400, Note_on_c, 9, 36, 0
1, 62400, Note_on_c, 0, 55, 0
1, 62400, Note_on_c, 9, 40, 0
1, 62400, Note_on_c, 1, 67, 0
1, 62400, Note_on_c, 0, 70, 0
1, 62400, Note_on_c, 0, 43, 100
1, 62400, Note_on_c, 2, 43, 100
1, 62400, Note_on_c, 9, 36, 100
1, 62400, Note_on_c, 9, 49, 100
1, 62460, Note_on_c, 9, 49, 0
1, 62460, Note_on_c, 0, 43, 0
1, 62460, Note_on_c, 2, 43, 0
1, 62460, Note_on_c, 9, 36, 0
1, 62460, Note_on_c, 0, 67, 100
1, 62460, Note_on_c, 0, 55, 100
1, 62460, Note_on_c, 1, 69, 100
1, 62460, Note_on_c, 1, 73, 100
1, 62460, Note_on_c, 3, 82, 100
1, 62460, Note_on_c, 5, 69, 100
1, 62460, Note_on_c, 5, 73, 100
1, 62460, Note_on_c, 9, 36, 100
1, 62460, Note_on_c, 9, 46, 100
1, 62520, Note_on_c, 9, 46, 0
1, 62520, Note_on_c, 1, 73, 0
1, 62520, Note_on_c, 0, 67, 0
1, 62520, Note_on_c, 3, 82, 0
1, 62520, Note_on_c, 0, 55, 0
1, 62520, Note_on_c, 1, 69, 0
1, 62520, Note_on_c, 5, 73, 0
1, 62520, Note_on_c, 5, 69, 0
1, 62520, Note_on_c, 9, 36, 0
1, 62520, Note_on_c, 0, 65, 100
1, 62520, Note_on_c, 0, 43, 100
1, 62520, Note_on_c, 1, 70, 100
1, 62520, Note_on_c, 1, 74, 100
1, 62520, Note_on_c, 2, 43, 100
1, 62520, Note_on_c, 3, 82, 100
1, 62520, Note_on_c, 5, 74, 100
1, 62520, Note_on_c, 5, 70, 100
1, 62520, Note_on_c, 9, 40, 100
1, 62520, Note_on_c, 9, 36, 100
1, 62520, Note_on_c, 9, 46, 100
1, 62580, Note_on_c, 9, 46, 0
1, 62580, Note_on_c, 1, 70, 0
1, 62580, Note_on_c, 5, 70, 0
1, 62580, Note_on_c, 1, 74, 0
1, 62580, Note_on_c, 0, 65, 0
1, 62580, Note_on_c, 2, 43, 0
1, 62580, Note_on_c, 0, 43, 0
1, 62580, Note_on_c, 5, 74, 0
1, 62580, Note_on_c, 3, 82, 0
1, 62580, Note_on_c, 0, 67, 100
1, 62580, Note_on_c, 0, 55, 100
1, 62580, Note_on_c, 3, 82, 100
1, 62580, Note_on_c, 9, 46, 100
1, 62640, Note_on_c, 9, 46, 0
1, 62640, Note_on_c, 9, 40, 0
1, 62640, Note_on_c, 0, 67, 0
1, 62640, Note_on_c, 9, 36, 0
1, 62640, Note_on_c, 3, 82, 0
1, 62640, Note_on_c, 0, 55, 0
1, 62640, Note_on_c, 0, 74, 100
1, 62640, Note_on_c, 0, 69, 100
1, 62640, Note_on_c, 0, 43, 100
1, 62640, Note_on_c, 1, 69, 100
1, 62640, Note_on_c, 2, 43, 100
1, 62640, Note_on_c, 3, 82, 100
1, 62640, Note_on_c, 5, 69, 100
1, 62640, Note_on_c, 9, 36, 100
1, 62640, Note_on_c, 9, 46, 100
1, 62670, Note_on_c, 5, 69, 0
1, 62670, Note_on_c, 0, 69, 0
1, 62670, Note_on_c, 1, 69, 0
1, 62670, Note_on_c, 0, 70, 100
1, 62670, Note_on_c, 1, 70, 100
1, 62670, Note_on_c, 5, 72, 100
1, 62700, Note_on_c, 5, 72, 0
1, 62700, Note_on_c, 9, 46, 0
1, 62700, Note_on_c, 1, 70, 0
1, 62700, Note_on_c, 9, 36, 0
1, 62700, Note_on_c, 2, 43, 0
1, 62700, Note_on_c, 0, 43, 0
1, 62700, Note_on_c, 0, 55, 100
1, 62700, Note_on_c, 1, 67, 100
1, 62700, Note_on_c, 5, 67, 100
1, 62700, Note_on_c, 9, 36, 100
1, 62700, Note_on_c, 9, 46, 100
1, 62730, Note_on_c, 9, 36, 0
1, 62730, Note_on_c, 0, 74, 0
1, 62730, Note_on_c, 1, 67, 0
1, 62730, Note_on_c, 0, 70, 0
1, 62730, Note_on_c, 3, 82, 0
1, 62730, Note_on_c, 5, 67, 0
1, 62730, Note_on_c, 0, 74, 100
1, 62730, Note_on_c, 0, 67, 100
1, 62730, Note_on_c, 1, 65, 100
1, 62730, Note_on_c, 3, 79, 100
1, 62730, Note_on_c, 5, 65, 100
1, 62730, Note_on_c, 9, 36, 100
1, 62760, Note_on_c, 9, 36, 0
1, 62760, Note_on_c, 5, 65, 0
1, 62760, Note_on_c, 9, 46, 0
1, 62760, Note_on_c, 0, 55, 0
1, 62760, Note_on_c, 1, 65, 0
1, 62760, Note_on_c, 0, 43, 100
1, 62760, Note_on_c, 1, 62, 100
1, 62760, Note_on_c, 2, 43, 100
1, 62760, Note_on_c, 5, 62, 100
1, 62760, Note_on_c, 9, 36, 100
1, 62760, Note_on_c, 9, 38, 100
1, 62760, Note_on_c, 9, 46, 100
1, 62790, Note_on_c, 5, 62, 0
1, 62790, Note_on_c, 0, 67, 0
1, 62790, Note_on_c, 0, 74, 0
1, 62790, Note_on_c, 1, 62, 0
1, 62790, Note_on_c, 3, 79, 0
1, 62790, Note_on_c, 0, 65, 100
1, 62790, Note_on_c, 1, 65, 100
1, 62790, Note_on_c, 3, 79, 100
1, 62790, Note_on_c, 5, 65, 100
1, 62820, Note_on_c, 5, 65, 0
1, 62820, Note_on_c, 9, 46, 0
1, 62820, Note_on_c, 3, 79, 0
1, 62820, Note_on_c, 0, 43, 0
1, 62820, Note_on_c, 2, 43, 0
1, 62820, Note_on_c, 1, 65, 0
1, 62820, Note_on_c, 0, 65, 0
1, 62820, Note_on_c, 0, 62, 100
1, 62820, Note_on_c, 0, 55, 100
1, 62820, Note_on_c, 1, 67, 100
1, 62820, Note_on_c, 3, 79, 100
1, 62820, Note_on_c, 5, 67, 100
1, 62820, Note_on_c, 9, 46, 100
1, 62850, Note_on_c, 0, 62, 0
1, 62880, Note_on_c, 9, 36, 0
1, 62880, Note_on_c, 3, 79, 0
1, 62880, Note_on_c, 9, 38, 0
1, 62880, Note_on_c, 0, 55, 0
1, 62880, Note_on_c, 1, 67, 0
1, 62880, Note_on_c, 5, 67, 0
1, 62880, Note_on_c, 9, 46, 0
1, 62880, Note_on_c, 0, 43, 100
1, 62880, Note_on_c, 2, 43, 100
1, 62880, Note_on_c, 3, 79, 100
1, 62880, Note_on_c, 9, 36, 100
1, 62880, Note_on_c, 9, 46, 100
1, 62940, Note_on_c, 9, 46, 0
1, 62940, Note_on_c, 2, 43, 0
1, 62940, Note_on_c, 0, 43, 0
1, 62940, Note_on_c, 9, 36, 0
1, 62940, Note_on_c, 0, 67, 100
1, 62940, Note_on_c, 0, 55, 100
1, 62940, Note_on_c, 1, 69, 100
1, 62940, Note_on_c, 1, 73, 100
1, 62940, Note_on_c, 5, 69, 100
1, 62940, Note_on_c, 5, 73, 100
1, 62940, Note_on_c, 9, 36, 100
1, 62940, Note_on_c, 9, 46, 100
1, 63000, Note_on_c, 9, 46, 0
1, 63000, Note_on_c, 1, 69, 0
1, 63000, Note_on_c, 3, 79, 0
1, 63000, Note_on_c, 1, 73, 0
1, 63000, Note_on_c, 0, 67, 0
1, 63000, Note_on_c, 0, 55, 0
1, 63000, Note_on_c, 5, 73, 0
1, 63000, Note_on_c, 5, 69, 0
1, 63000, Note_on_c, 9, 36, 0
1, 63000, Note_on_c, 0, 65, 100
1, 63000, Note_on_c, 0, 43, 100
1, 63000, Note_on_c, 1, 70, 100
1, 63000, Note_on_c, 1, 74, 100
1, 63000, Note_on_c, 2, 43, 100
1, 63000, Note_on_c, 5, 74, 100
1, 63000, Note_on_c, 5, 70, 100
1, 63000, Note_on_c, 9, 36, 100
1, 63000, Note_on_c, 9, 38, 100
1, 63000, Note_on_c, 9, 46, 100
1, 63060, Note_on_c, 9, 46, 0
1, 63060, Note_on_c, 1, 70, 0
1, 63060, Note_on_c, 5, 70, 0
1, 63060, Note_on_c, 0, 65, 0
1, 63060, Note_on_c, 2, 43, 0
1, 63060, Note_on_c, 0, 43, 0
1, 63060, Note_on_c, 1, 74, 0
1, 63060, Note_on_c, 5, 74, 0
1, 63060, Note_on_c, 0, 67, 100
1, 63060, Note_on_c, 0, 55, 100
1, 63060, Note_on_c, 9, 46, 100
1, 63120, Note_on_c, 9, 46, 0
1, 63120, Note_on_c, 0, 67, 0
1, 63120, Note_on_c, 9, 36, 0
1, 63120, Note_on_c, 9, 38, 0
1, 63120, Note_on_c, 0, 55, 0
1, 63120, Note_on_c, 0, 74, 100
1, 63120, Note_on_c, 0, 69, 100
1, 63120, Note_on_c, 0, 43, 100
1, 63120, Note_on_c, 1, 69, 100
1, 63120, Note_on_c, 2, 43, 100
1, 63120, Note_on_c, 5, 69, 100
1, 63120, Note_on_c, 9, 36, 100
1, 63120, Note_on_c, 9, 46, 100
1, 63150, Note_on_c, 5, 69, 0
1, 63150, Note_on_c, 0, 69, 0
1, 63150, Note_on_c, 1, 69, 0
1, 63150, Note_on_c, 0, 70, 100
1, 63150, Note_on_c, 1, 70, 100
1, 63150, Note_on_c, 5, 72, 100
1, 63180, Note_on_c, 5, 72, 0
1, 63180, Note_on_c, 1, 70, 0
1, 63180, Note_on_c, 9, 36, 0
1, 63180, Note_on_c, 9, 46, 0
1, 63180, Note_on_c, 2, 43, 0
1, 63180, Note_on_c, 0, 43, 0
1, 63180, Note_on_c, 0, 55, 100
1, 63180, Note_on_c, 1, 67, 100
1, 63180, Note_on_c, 5, 67, 100
1, 63180, Note_on_c, 9, 36, 100
1, 63180, Note_on_c, 9, 46, 100
1, 63210, Note_on_c, 9, 36, 0
1, 63210, Note_on_c, 1, 67, 0
1, 63210, Note_on_c, 0, 70, 0
1, 63210, Note_on_c, 0, 74, 0
1, 63210, Note_on_c, 5, 67, 0
1, 63210, Note_on_c, 0, 74, 100
1, 63210, Note_on_c, 0, 65, 100
1, 63210, Note_on_c, 1, 65, 100
1, 63210, Note_on_c, 5, 65, 100
1, 63210, Note_on_c, 9, 36, 100
1, 63240, Note_on_c, 9, 36, 0
1, 63240, Note_on_c, 1, 65, 0
1, 63240, Note_on_c, 9, 46, 0
1, 63240, Note_on_c, 0, 55, 0
1, 63240, Note_on_c, 5, 65, 0
1, 63240, Note_on_c, 0, 43, 100
1, 63240, Note_on_c, 1, 62, 100
1, 63240, Note_on_c, 2, 43, 100
1, 63240, Note_on_c, 5, 62, 100
1, 63240, Note_on_c, 9, 36, 100
1, 63240, Note_on_c, 9, 40, 100
1, 63240, Note_on_c, 9, 46, 100
1, 63270, Note_on_c, 5, 62, 0
1, 63270, Note_on_c, 0, 65, 0
1, 63270, Note_on_c, 0, 74, 0
1, 63270, Note_on_c, 1, 62, 0
1, 63270, Note_on_c, 0, 72, 100
1, 63270, Note_on_c, 0, 65, 100
1, 63270, Note_on_c, 1, 65, 100
1, 63270, Note_on_c, 5, 65, 100
1, 63300, Note_on_c, 5, 65, 0
1, 63300, Note_on_c, 2, 43, 0
1, 63300, Note_on_c, 1, 65, 0
1, 63300, Note_on_c, 0, 72, 0
1, 63300, Note_on_c, 0, 43, 0
1, 63300, Note_on_c, 9, 46, 0
1, 63300, Note_on_c, 0, 70, 100
1, 63300, Note_on_c, 0, 55, 100
1, 63300, Note_on_c, 1, 67, 100
1, 63300, Note_on_c, 5, 67, 100
1, 63300, Note_on_c, 9, 46, 100
1, 63330, Note_on_c, 0, 70, 0
1, 63330, Note_on_c, 0, 65, 0
1, 63330, Note_on_c, 0, 70, 100
1, 63330, Note_on_c, 0, 65, 100
1, 63360, Note_on_c, 0, 65, 0
1, 63360, Note_on_c, 9, 46, 0
1, 63360, Note_on_c, 5, 67, 0
1, 63360, Note_on_c, 9, 36, 0
1, 63360, Note_on_c, 0, 55, 0
1, 63360, Note_on_c, 9, 40, 0
1, 63360, Note_on_c, 1, 67, 0
1, 63360, Note_on_c, 0, 70, 0
1, 63360, Note_on_c, 0, 43, 100
1, 63360, Note_on_c, 2, 43, 100
1, 63360, Note_on_c, 9, 36, 100
1, 63360, Note_on_c, 9, 46, 100
1, 63420, Note_on_c, 9, 46, 0
1, 63420, Note_on_c, 0, 43, 0
1, 63420, Note_on_c, 2, 43, 0
1, 63420, Note_on_c, 9, 36, 0
1, 63420, Note_on_c, 0, 67, 100
1, 63420, Note_on_c, 0, 55, 100
1, 63420, Note_on_c, 1, 69, 100
1, 63420, Note_on_c, 1, 73, 100
1, 63420, Note_on_c, 3, 82, 100
1, 63420, Note_on_c, 5, 69, 100
1, 63420, Note_on_c, 5, 73, 100
1, 63420, Note_on_c, 9, 36, 100
1, 63420, Note_on_c, 9, 46, 100
1, 63480, Note_on_c, 9, 46, 0
1, 63480, Note_on_c, 1, 73, 0
1, 63480, Note_on_c, 0, 67, 0
1, 63480, Note_on_c, 3, 82, 0
1, 63480, Note_on_c, 0, 55, 0
1, 63480, Note_on_c, 1, 69, 0
1, 63480, Note_on_c, 5, 73, 0
1, 63480, Note_on_c, 5, 69, 0
1, 63480, Note_on_c, 9, 36, 0
1, 63480, Note_on_c, 0, 65, 100
1, 63480, Note_on_c, 0, 43, 100
1, 63480, Note_on_c, 1, 70, 100
1, 63480, Note_on_c, 1, 74, 100
1, 63480, Note_on_c, 2, 43, 100
1, 63480, Note_on_c, 3, 82, 100
1, 63480, Note_on_c, 5, 74, 100
1, 63480, Note_on_c, 5, 70, 100
1, 63480, Note_on_c, 9, 36, 100
1, 63480, Note_on_c, 9, 38, 100
1, 63480, Note_on_c, 9, 46, 100
1, 63540, Note_on_c, 9, 46, 0
1, 63540, Note_on_c, 1, 70, 0
1, 63540, Note_on_c, 5, 70, 0
1, 63540, Note_on_c, 1, 74, 0
1, 63540, Note_on_c, 0, 65, 0
1, 63540, Note_on_c, 2, 43, 0
1, 63540, Note_on_c, 0, 43, 0
1, 63540, Note_on_c, 5, 74, 0
1, 63540, Note_on_c, 3, 82, 0
1, 63540, Note_on_c, 0, 67, 100
1, 63540, Note_on_c, 0, 55, 100
1, 63540, Note_on_c, 3, 82, 100
1, 63540, Note_on_c, 9, 46, 100
1, 63600, Note_on_c, 9, 46, 0
1, 63600, Note_on_c, 9, 36, 0
1, 63600, Note_on_c, 0, 67, 0
1, 63600, Note_on_c, 9, 38, 0
1, 63600, Note_on_c, 3, 82, 0
1, 63600, Note_on_c, 0, 55, 0
1, 63600, Note_on_c, 0, 74, 100
1, 63600, Note_on_c, 0, 69, 100
1, 63600, Note_on_c, 0, 43, 100
1, 63600, Note_on_c, 1, 69, 100
1, 63600, Note_on_c, 2, 43, 100
1, 63600, Note_on_c, 3, 82, 100
1, 63600, Note_on_c, 5, 69, 100
1, 63600, Note_on_c, 9, 36, 100
1, 63600, Note_on_c, 9, 46, 100
1, 63630, Note_on_c, 5, 69, 0
1, 63630, Note_on_c, 0, 69, 0
1, 63630, Note_on_c, 1, 69, 0
1, 63630, Note_on_c, 0, 70, 100
1, 63630, Note_on_c, 1, 70, 100
1, 63630, Note_on_c, 5, 72, 100
1, 63660, Note_on_c, 5, 72, 0
1, 63660, Note_on_c, 9, 46, 0
1, 63660, Note_on_c, 1, 70, 0
1, 63660, Note_on_c, 9, 36, 0
1, 63660, Note_on_c, 2, 43, 0
1, 63660, Note_on_c, 0, 43, 0
1, 63660, Note_on_c, 0, 55, 100
1, 63660, Note_on_c, 1, 67, 100
1, 63660, Note_on_c, 5, 67, 100
1, 63660, Note_on_c, 9, 36, 100
1, 63660, Note_on_c, 9, 46, 100
1, 63690, Note_on_c, 9, 36, 0
1, 63690, Note_on_c, 0, 74, 0
1, 63690, Note_on_c, 1, 67, 0
1, 63690, Note_on_c, 0, 70, 0
1, 63690, Note_on_c, 3, 82, 0
1, 63690, Note_on_c, 5, 67, 0
1, 63690, Note_on_c, 0, 74, 100
1, 63690, Note_on_c, 0, 67, 100
1, 63690, Note_on_c, 1, 65, 100
1, 63690, Note_on_c, 3, 79, 100
1, 63690, Note_on_c, 5, 65, 100
1, 63690, Note_on_c, 9, 36, 100
1, 63720, Note_on_c, 9, 36, 0
1, 63720, Note_on_c, 5, 65, 0
1, 63720, Note_on_c, 9, 46, 0
1, 63720, Note_on_c, 0, 55, 0
1, 63720, Note_on_c, 1, 65, 0
1, 63720, Note_on_c, 0, 43, 100
1, 63720, Note_on_c, 1, 62, 100
1, 63720, Note_on_c, 2, 43, 100
1, 63720, Note_on_c, 5, 62, 100
1, 63720, Note_on_c, 9, 36, 100
1, 63720, Note_on_c, 9, 40, 100
1, 63720, Note_on_c, 9, 46, 100
1, 63750, Note_on_c, 5, 62, 0
1, 63750, Note_on_c, 0, 67, 0
1, 63750, Note_on_c, 0, 74, 0
1, 63750, Note_on_c, 1, 62, 0
1, 63750, Note_on_c, 3, 79, 0
1, 63750, Note_on_c, 0, 65, 100
1, 63750, Note_on_c, 1, 65, 100
1, 63750, Note_on_c, 3, 79, 100
1, 63750, Note_on_c, 5, 65, 100
1, 63780, Note_on_c, 5, 65, 0
1, 63780, Note_on_c, 9, 46, 0
1, 63780, Note_on_c, 3, 79, 0
1, 63780, Note_on_c, 0, 43, 0
1, 63780, Note_on_c, 2, 43, 0
1, 63780, Note_on_c, 1, 65, 0
1, 63780, Note_on_c, 0, 65, 0
1, 63780, Note_on_c, 0, 62, 100
1, 63780, Note_on_c, 0, 55, 100
1, 63780, Note_on_c, 1, 67, 100
1, 63780, Note_on_c, 3, 79, 100
1, 63780, Note_on_c, 5, 67, 100
1, 63780, Note_on_c, 9, 46, 100
1, 63810, Note_on_c, 0, 62, 0
1, 63840, Note_on_c, 9, 36, 0
1, 63840, Note_on_c, 3, 79, 0
1, 63840, Note_on_c, 9, 40, 0
1, 63840, Note_on_c, 0, 55, 0
1, 63840, Note_on_c, 1, 67, 0
1, 63840, Note_on_c, 5, 67, 0
1, 63840, Note_on_c, 9, 46, 0
1, 63840, Note_on_c, 0, 43, 100
1, 63840, Note_on_c, 2, 43, 100
1, 63840, Note_on_c, 3, 79, 100
1, 63840, Note_on_c, 9, 36, 100
1, 63840, Note_on_c, 9, 46, 100
1, 63900, Note_on_c, 9, 46, 0
1, 63900, Note_on_c, 2, 43, 0
1, 63900, Note_on_c, 0, 43, 0
1, 63900, Note_on_c, 9, 36, 0
1, 63900, Note_on_c, 0, 67, 100
1, 63900, Note_on_c, 0, 55, 100
1, 63900, Note_on_c, 1, 69, 100
1, 63900, Note_on_c, 1, 73, 100
1, 63900, Note_on_c, 5, 69, 100
1, 63900, Note_on_c, 5, 73, 100
1, 63900, Note_on_c, 9, 36, 100
1, 63900, Note_on_c, 9, 46, 100
1, 63960, Note_on_c, 9, 46, 0
1, 63960, Note_on_c, 1, 69, 0
1, 63960, Note_on_c, 3, 79, 0
1, 63960, Note_on_c, 1, 73, 0
1, 63960, Note_on_c, 0, 67, 0
1, 63960, Note_on_c, 0, 55, 0
1, 63960, Note_on_c, 5, 73, 0
1, 63960, Note_on_c, 5, 69, 0
1, 63960, Note_on_c, 9, 36, 0
1, 63960, Note_on_c, 0, 65, 100
1, 63960, Note_on_c, 0, 43, 100
1, 63960, Note_on_c, 1, 70, 100
1, 63960, Note_on_c, 1, 74, 100
1, 63960, Note_on_c, 2, 43, 100
1, 63960, Note_on_c, 5, 74, 100
1, 63960, Note_on_c, 5, 70, 100
1, 63960, Note_on_c, 9, 36, 100
1, 63960, Note_on_c, 9, 38, 100
1, 63960, Note_on_c, 9, 46, 100
1, 64020, Note_on_c, 9, 46, 0
1, 64020, Note_on_c, 1, 70, 0
1, 64020, Note_on_c, 5, 70, 0
1, 64020, Note_on_c, 0, 65, 0
1, 64020, Note_on_c, 2, 43, 0
1, 64020, Note_on_c, 0, 43, 0
1, 64020, Note_on_c, 1, 74, 0
1, 64020, Note_on_c, 5, 74, 0
1, 64020, Note_on_c, 0, 67, 100
1, 64020, Note_on_c, 0, 55, 100
1, 64020, Note_on_c, 9, 46, 100
1, 64080, Note_on_c, 9, 46, 0
1, 64080, Note_on_c, 0, 67, 0
1, 64080, Note_on_c, 9, 36, 0
1, 64080, Note_on_c, 9, 38, 0
1, 64080, Note_on_c, 0, 55, 0
1, 64080, Note_on_c, 0, 74, 100
1, 64080, Note_on_c, 0, 69, 100
1, 64080, Note_on_c, 0, 43, 100
1, 64080, Note_on_c, 1, 69, 100
1, 64080, Note_on_c, 2, 43, 100
1, 64080, Note_on_c, 5, 69, 100
1, 64080, Note_on_c, 9, 36, 100
1, 64080, Note_on_c, 9, 46, 100
1, 64110, Note_on_c, 5, 69, 0
1, 64110, Note_on_c, 0, 69, 0
1, 64110, Note_on_c, 1, 69, 0
1, 64110, Note_on_c, 0, 70, 100
1, 64110, Note_on_c, 1, 70, 100
1, 64110, Note_on_c, 5, 72, 100
1, 64140, Note_on_c, 5, 72, 0
1, 64140, Note_on_c, 1, 70, 0
1, 64140, Note_on_c, 9, 36, 0
1, 64140, Note_on_c, 9, 46, 0
1, 64140, Note_on_c, 2, 43, 0
1, 64140, Note_on_c, 0, 43, 0
1, 64140, Note_on_c, 0, 55, 100
1, 64140, Note_on_c, 1, 67, 100
1, 64140, Note_on_c, 5, 67, 100
1, 64140, Note_on_c, 9, 36, 100
1, 64140, Note_on_c, 9, 46, 100
1, 64170, Note_on_c, 9, 36, 0
1, 64170, Note_on_c, 1, 67, 0
1, 64170, Note_on_c, 0, 70, 0
1, 64170, Note_on_c, 0, 74, 0
1, 64170, Note_on_c, 5, 67, 0
1, 64170, Note_on_c, 0, 74, 100
1, 64170, Note_on_c, 0, 65, 100
1, 64170, Note_on_c, 1, 65, 100
1, 64170, Note_on_c, 5, 65, 100
1, 64170, Note_on_c, 9, 36, 100
1, 64200, Note_on_c, 9, 36, 0
1, 64200, Note_on_c, 1, 65, 0
1, 64200, Note_on_c, 9, 46, 0
1, 64200, Note_on_c, 0, 55, 0
1, 64200, Note_on_c, 5, 65, 0
1, 64200, Note_on_c, 0, 43, 100
1, 64200, Note_on_c, 1, 62, 100
1, 64200, Note_on_c, 2, 43, 100
1, 64200, Note_on_c, 5, 62, 100
1, 64200, Note_on_c, 9, 36, 100
1, 64200, Note_on_c, 9, 40, 100
1, 64200, Note_on_c, 9, 46, 100
1, 64230, Note_on_c, 5, 62, 0
1, 64230, Note_on_c, 0, 65, 0
1, 64230, Note_on_c, 0, 74, 0
1, 64230, Note_on_c, 1, 62, 0
1, 64230, Note_on_c, 0, 72, 100
1, 64230, Note_on_c, 0, 65, 100
1, 64230, Note_on_c, 1, 65, 100
1, 64230, Note_on_c, 5, 65, 100
1, 64260, Note_on_c, 5, 65, 0
1, 64260, Note_on_c, 2, 43, 0
1, 64260, Note_on_c, 1, 65, 0
1, 64260, Note_on_c, 0, 72, 0
1, 64260, Note_on_c, 0, 43, 0
1, 64260, Note_on_c, 9, 46, 0
1, 64260, Note_on_c, 0, 70, 100
1, 64260, Note_on_c, 0, 55, 100
1, 64260, Note_on_c, 1, 67, 100
1, 64260, Note_on_c, 5, 67, 100
1, 64260, Note_on_c, 9, 46, 100
1, 64290, Note_on_c, 0, 70, 0
1, 64290, Note_on_c, 0, 65, 0
1, 64290, Note_on_c, 0, 70, 100
1, 64290, Note_on_c, 0, 65, 100
1, 64320, Note_on_c, 0, 65, 0
1, 64320, Note_on_c, 9, 46, 0
1, 64320, Note_on_c, 5, 67, 0
1, 64320, Note_on_c, 9, 36, 0
1, 64320, Note_on_c, 0, 55, 0
1, 64320, Note_on_c, 9, 40, 0
1, 64320, Note_on_c, 1, 67, 0
1, 64320, Note_on_c, 0, 70, 0
1, 64320, Note_on_c, 0, 43, 100
1, 64320, Note_on_c, 2, 43, 100
1, 64320, Note_on_c, 9, 36, 100
1, 64320, Note_on_c, 9, 49, 100
1, 64380, Note_on_c, 9, 49, 0
1, 64380, Note_on_c, 0, 43, 0
1, 64380, Note_on_c, 2, 43, 0
1, 64380, Note_on_c, 9, 36, 0
1, 64380, Note_on_c, 0, 67, 100
1, 64380, Note_on_c, 0, 55, 100
1, 64380, Note_on_c, 1, 69, 100
1, 64380, Note_on_c, 1, 73, 100
1, 64380, Note_on_c, 3, 82, 100
1, 64380, Note_on_c, 5, 69, 100
1, 64380, Note_on_c, 5, 73, 100
1, 64380, Note_on_c, 9, 36, 100
1, 64380, Note_on_c, 9, 46, 100
1, 64440, Note_on_c, 9, 46, 0
1, 64440, Note_on_c, 1, 73, 0
1, 64440, Note_on_c, 0, 67, 0
1, 64440, Note_on_c, 3, 82, 0
1, 64440, Note_on_c, 0, 55, 0
1, 64440, Note_on_c, 1, 69, 0
1, 64440, Note_on_c, 5, 73, 0
1, 64440, Note_on_c, 5, 69, 0
1, 64440, Note_on_c, 9, 36, 0
1, 64440, Note_on_c, 0, 65, 100
1, 64440, Note_on_c, 0, 43, 100
1, 64440, Note_on_c, 1, 70, 100
1, 64440, Note_on_c, 1, 74, 100
1, 64440, Note_on_c, 2, 43, 100
1, 64440, Note_on_c, 3, 82, 100
1, 64440, Note_on_c, 5, 74, 100
1, 64440, Note_on_c, 5, 70, 100
1, 64440, Note_on_c, 9, 40, 100
1, 64440, Note_on_c, 9, 36, 100
1, 64440, Note_on_c, 9, 46, 100
1, 64500, Note_on_c, 9, 46, 0
1, 64500, Note_on_c, 1, 70, 0
1, 64500, Note_on_c, 5, 70, 0
1, 64500, Note_on_c, 1, 74, 0
1, 64500, Note_on_c, 0, 65, 0
1, 64500, Note_on_c, 2, 43, 0
1, 64500, Note_on_c, 0, 43, 0
1, 64500, Note_on_c, 5, 74, 0
1, 64500, Note_on_c, 3, 82, 0
1, 64500, Note_on_c, 0, 67, 100
1, 64500, Note_on_c, 0, 55, 100
1, 64500, Note_on_c, 3, 82, 100
1, 64500, Note_on_c, 9, 46, 100
1, 64560, Note_on_c, 9, 46, 0
1, 64560, Note_on_c, 9, 40, 0
1, 64560, Note_on_c, 0, 67, 0
1, 64560, Note_on_c, 9, 36, 0
1, 64560, Note_on_c, 3, 82, 0
1, 64560, Note_on_c, 0, 55, 0
1, 64560, Note_on_c, 0, 74, 100
1, 64560, Note_on_c, 0, 69, 100
1, 64560, Note_on_c, 0, 43, 100
1, 64560, Note_on_c, 1, 69, 100
1, 64560, Note_on_c, 2, 43, 100
1, 64560, Note_on_c, 3, 82, 100
1, 64560, Note_on_c, 5, 69, 100
1, 64560, Note_on_c, 9, 36, 100
1, 64560, Note_on_c, 9, 46, 100
1, 64590, Note_on_c, 5, 69, 0
1, 64590, Note_on_c, 0, 69, 0
1, 64590, Note_on_c, 1, 69, 0
1, 64590, Note_on_c, 0, 70, 100
1, 64590, Note_on_c, 1, 70, 100
1, 64590, Note_on_c, 5, 72, 100
1, 64620, Note_on_c, 5, 72, 0
1, 64620, Note_on_c, 9, 46, 0
1, 64620, Note_on_c, 1, 70, 0
1, 64620, Note_on_c, 9, 36, 0
1, 64620, Note_on_c, 2, 43, 0
1, 64620, Note_on_c, 0, 43, 0
1, 64620, Note_on_c, 0, 55, 100
1, 64620, Note_on_c, 1, 67, 100
1, 64620, Note_on_c, 5, 67, 100
1, 64620, Note_on_c, 9, 36, 100
1, 64620, Note_on_c, 9, 46, 100
1, 64650, Note_on_c, 9, 36, 0
1, 64650, Note_on_c, 0, 74, 0
1, 64650, Note_on_c, 1, 67, 0
1, 64650, Note_on_c, 0, 70, 0
1, 64650, Note_on_c, 3, 82, 0
1, 64650, Note_on_c, 5, 67, 0
1, 64650, Note_on_c, 0, 74, 100
1, 64650, Note_on_c, 0, 67, 100
1, 64650, Note_on_c, 1, 65, 100
1, 64650, Note_on_c, 3, 79, 100
1, 64650, Note_on_c, 5, 65, 100
1, 64650, Note_on_c, 9, 36, 100
1, 64680, Note_on_c, 9, 36, 0
1, 64680, Note_on_c, 5, 65, 0
1, 64680, Note_on_c, 9, 46, 0
1, 64680, Note_on_c, 0, 55, 0
1, 64680, Note_on_c, 1, 65, 0
1, 64680, Note_on_c, 0, 43, 100
1, 64680, Note_on_c, 1, 62, 100
1, 64680, Note_on_c, 2, 43, 100
1, 64680, Note_on_c, 5, 62, 100
1, 64680, Note_on_c, 9, 36, 100
1, 64680, Note_on_c, 9, 38, 100
1, 64680, Note_on_c, 9, 46, 100
1, 64710, Note_on_c, 5, 62, 0
1, 64710, Note_on_c, 0, 67, 0
1, 64710, Note_on_c, 0, 74, 0
1, 64710, Note_on_c, 1, 62, 0
1, 64710, Note_on_c, 3, 79, 0
1, 64710, Note_on_c, 0, 65, 100
1, 64710, Note_on_c, 1, 65, 100
1, 64710, Note_on_c, 3, 79, 100
1, 64710, Note_on_c, 5, 65, 100
1, 64740, Note_on_c, 5, 65, 0
1, 64740, Note_on_c, 9, 46, 0
1, 64740, Note_on_c, 3, 79, 0
1, 64740, Note_on_c, 0, 43, 0
1, 64740, Note_on_c, 2, 43, 0
1, 64740, Note_on_c, 1, 65, 0
1, 64740, Note_on_c, 0, 65, 0
1, 64740, Note_on_c, 0, 62, 100
1, 64740, Note_on_c, 0, 55, 100
1, 64740, Note_on_c, 1, 67, 100
1, 64740, Note_on_c, 3, 79, 100
1, 64740, Note_on_c, 5, 67, 100
1, 64740, Note_on_c, 9, 46, 100
1, 64770, Note_on_c, 0, 62, 0
1, 64800, Note_on_c, 9, 36, 0
1, 64800, Note_on_c, 3, 79, 0
1, 64800, Note_on_c, 9, 38, 0
1, 64800, Note_on_c, 0, 55, 0
1, 64800, Note_on_c, 1, 67, 0
1, 64800, Note_on_c, 5, 67, 0
1, 64800, Note_on_c, 9, 46, 0
1, 64800, Note_on_c, 0, 43, 100
1, 64800, Note_on_c, 2, 43, 100
1, 64800, Note_on_c, 3, 79, 100
1, 64800, Note_on_c, 9, 36, 100
1, 64800, Note_on_c, 9, 46, 100
1, 64860, Note_on_c, 9, 46, 0
1, 64860, Note_on_c, 2, 43, 0
1, 64860, Note_on_c, 0, 43, 0
1, 64860, Note_on_c, 9, 36, 0
1, 64860, Note_on_c, 0, 67, 100
1, 64860, Note_on_c, 0, 55, 100
1, 64860, Note_on_c, 1, 69, 100
1, 64860, Note_on_c, 1, 73, 100
1, 64860, Note_on_c, 5, 69, 100
1, 64860, Note_on_c, 5, 73, 100
1, 64860, Note_on_c, 9, 36, 100
1, 64860, Note_on_c, 9, 46, 100
1, 64920, Note_on_c, 9, 46, 0
1, 64920, Note_on_c, 1, 69, 0
1, 64920, Note_on_c, 3, 79, 0
1, 64920, Note_on_c, 1, 73, 0
1, 64920, Note_on_c, 0, 67, 0
1, 64920, Note_on_c, 0, 55, 0
1, 64920, Note_on_c, 5, 73, 0
1, 64920, Note_on_c, 5, 69, 0
1, 64920, Note_on_c, 9, 36, 0
1, 64920, Note_on_c, 0, 65, 100
1, 64920, Note_on_c, 0, 43, 100
1, 64920, Note_on_c, 1, 70, 100
1, 64920, Note_on_c, 1, 74, 100
1, 64920, Note_on_c, 2, 43, 100
1, 64920, Note_on_c, 5, 74, 100
1, 64920, Note_on_c, 5, 70, 100
1, 64920, Note_on_c, 9, 36, 100
1, 64920, Note_on_c, 9, 38, 100
1, 64920, Note_on_c, 9, 46, 100
1, 64980, Note_on_c, 9, 46, 0
1, 64980, Note_on_c, 1, 70, 0
1, 64980, Note_on_c, 5, 70, 0
1, 64980, Note_on_c, 0, 65, 0
1, 64980, Note_on_c, 2, 43, 0
1, 64980, Note_on_c, 0, 43, 0
1, 64980, Note_on_c, 1, 74, 0
1, 64980, Note_on_c, 5, 74, 0
1, 64980, Note_on_c, 0, 67, 100
1, 64980, Note_on_c, 0, 55, 100
1, 64980, Note_on_c, 9, 46, 100
1, 65040, Note_on_c, 9, 46, 0
1, 65040, Note_on_c, 0, 67, 0
1, 65040, Note_on_c, 9, 36, 0
1, 65040, Note_on_c, 9, 38, 0
1, 65040, Note_on_c, 0, 55, 0
1, 65040, Note_on_c, 0, 74, 100
1, 65040, Note_on_c, 0, 69, 100
1, 65040, Note_on_c, 0, 43, 100
1, 65040, Note_on_c, 1, 69, 100
1, 65040, Note_on_c, 2, 43, 100
1, 65040, Note_on_c, 5, 69, 100
1, 65040, Note_on_c, 9, 36, 100
1, 65040, Note_on_c, 9, 46, 100
1, 65070, Note_on_c, 5, 69, 0
1, 65070, Note_on_c, 0, 69, 0
1, 65070, Note_on_c, 1, 69, 0
1, 65070, Note_on_c, 0, 70, 100
1, 65070, Note_on_c, 1, 70, 100
1, 65070, Note_on_c, 5, 72, 100
1, 65100, Note_on_c, 5, 72, 0
1, 65100, Note_on_c, 1, 70, 0
1, 65100, Note_on_c, 9, 36, 0
1, 65100, Note_on_c, 9, 46, 0
1, 65100, Note_on_c, 2, 43, 0
1, 65100, Note_on_c, 0, 43, 0
1, 65100, Note_on_c, 0, 55, 100
1, 65100, Note_on_c, 1, 67, 100
1, 65100, Note_on_c, 5, 67, 100
1, 65100, Note_on_c, 9, 36, 100
1, 65100, Note_on_c, 9, 46, 100
1, 65130, Note_on_c, 9, 36, 0
1, 65130, Note_on_c, 1, 67, 0
1, 65130, Note_on_c, 0, 70, 0
1, 65130, Note_on_c, 0, 74, 0
1, 65130, Note_on_c, 5, 67, 0
1, 65130, Note_on_c, 0, 74, 100
1, 65130, Note_on_c, 0, 65, 100
1, 65130, Note_on_c, 1, 65, 100
1, 65130, Note_on_c, 5, 65, 100
1, 65130, Note_on_c, 9, 36, 100
1, 65160, Note_on_c, 9, 36, 0
1, 65160, Note_on_c, 1, 65, 0
1, 65160, Note_on_c, 9, 46, 0
1, 65160, Note_on_c, 0, 55, 0
1, 65160, Note_on_c, 5, 65, 0
1, 65160, Note_on_c, 0, 43, 100
1, 65160, Note_on_c, 1, 62, 100
1, 65160, Note_on_c, 2, 43, 100
1, 65160, Note_on_c, 5, 62, 100
1, 65160, Note_on_c, 9, 36, 100
1, 65160, Note_on_c, 9, 40, 100
1, 65160, Note_on_c, 9, 46, 100
1, 65190, Note_on_c, 5, 62, 0
1, 65190, Note_on_c, 0, 65, 0
1, 65190, Note_on_c, 0, 74, 0
1, 65190, Note_on_c, 1, 62, 0
1, 65190, Note_on_c, 0, 72, 100
1, 65190, Note_on_c, 0, 65, 100
1, 65190, Note_on_c, 1, 65, 100
1, 65190, Note_on_c, 5, 65, 100
1, 65220, Note_on_c, 5, 65, 0
1, 65220, Note_on_c, 2, 43, 0
1, 65220, Note_on_c, 1, 65, 0
1, 65220, Note_on_c, 0, 72, 0
1, 65220, Note_on_c, 0, 43, 0
1, 65220, Note_on_c, 9, 46, 0
1, 65220, Note_on_c, 0, 70, 100
1, 65220, Note_on_c, 0, 55, 100
1, 65220, Note_on_c, 1, 67, 100
1, 65220, Note_on_c, 5, 67, 100
1, 65220, Note_on_c, 9, 46, 100
1, 65250, Note_on_c, 0, 70, 0
1, 65250, Note_on_c, 0, 65, 0
1, 65250, Note_on_c, 0, 70, 100
1, 65250, Note_on_c, 0, 65, 100
1, 65280, Note_on_c, 0, 65, 0
1, 65280, Note_on_c, 9, 46, 0
1, 65280, Note_on_c, 5, 67, 0
1, 65280, Note_on_c, 9, 36, 0
1, 65280, Note_on_c, 0, 55, 0
1, 65280, Note_on_c, 9, 40, 0
1, 65280, Note_on_c, 1, 67, 0
1, 65280, Note_on_c, 0, 70, 0
1, 65280, Note_on_c, 0, 43, 100
1, 65280, Note_on_c, 2, 43, 100
1, 65280, Note_on_c, 9, 36, 100
1, 65280, Note_on_c, 9, 46, 100
1, 65340, Note_on_c, 9, 46, 0
1, 65340, Note_on_c, 0, 43, 0
1, 65340, Note_on_c, 2, 43, 0
1, 65340, Note_on_c, 9, 36, 0
1, 65340, Note_on_c, 0, 67, 100
1, 65340, Note_on_c, 0, 55, 100
1, 65340, Note_on_c, 1, 69, 100
1, 65340, Note_on_c, 1, 73, 100
1, 65340, Note_on_c, 3, 82, 100
1, 65340, Note_on_c, 5, 69, 100
1, 65340, Note_on_c, 5, 73, 100
1, 65340, Note_on_c, 9, 36, 100
1, 65340, Note_on_c, 9, 46, 100
1, 65400, Note_on_c, 9, 46, 0
1, 65400, Note_on_c, 1, 73, 0
1, 65400, Note_on_c, 0, 67, 0
1, 65400, Note_on_c, 3, 82, 0
1, 65400, Note_on_c, 0, 55, 0
1, 65400, Note_on_c, 1, 69, 0
1, 65400, Note_on_c, 5, 73, 0
1, 65400, Note_on_c, 5, 69, 0
1, 65400, Note_on_c, 9, 36, 0
1, 65400, Note_on_c, 0, 65, 100
1, 65400, Note_on_c, 0, 43, 100
1, 65400, Note_on_c, 1, 70, 100
1, 65400, Note_on_c, 1, 74, 100
1, 65400, Note_on_c, 2, 43, 100
1, 65400, Note_on_c, 3, 82, 100
1, 65400, Note_on_c, 5, 74, 100
1, 65400, Note_on_c, 5, 70, 100
1, 65400, Note_on_c, 9, 36, 100
1, 65400, Note_on_c, 9, 38, 100
1, 65400, Note_on_c, 9, 46, 100
1, 65460, Note_on_c, 9, 46, 0
1, 65460, Note_on_c, 1, 70, 0
1, 65460, Note_on_c, 5, 70, 0
1, 65460, Note_on_c, 1, 74, 0
1, 65460, Note_on_c, 0, 65, 0
1, 65460, Note_on_c, 2, 43, 0
1, 65460, Note_on_c, 0, 43, 0
1, 65460, Note_on_c, 5, 74, 0
1, 65460, Note_on_c, 3, 82, 0
1, 65460, Note_on_c, 0, 67, 100
1, 65460, Note_on_c, 0, 55, 100
1, 65460, Note_on_c, 3, 82, 100
1, 65460, Note_on_c, 9, 46, 100
1, 65520, Note_on_c, 9, 46, 0
1, 65520, Note_on_c, 9, 36, 0
1, 65520, Note_on_c, 0, 67, 0
1, 65520, Note_on_c, 9, 38, 0
1, 65520, Note_on_c, 3, 82, 0
1, 65520, Note_on_c, 0, 55, 0
1, 65520, Note_on_c, 0, 74, 100
1, 65520, Note_on_c, 0, 69, 100
1, 65520, Note_on_c, 0, 43, 100
1, 65520, Note_on_c, 1, 69, 100
1, 65520, Note_on_c, 2, 43, 100
1, 65520, Note_on_c, 3, 82, 100
1, 65520, Note_on_c, 5, 69, 100
1, 65520, Note_on_c, 9, 36, 100
1, 65520, Note_on_c, 9, 46, 100
1, 65550, Note_on_c, 5, 69, 0
1, 65550, Note_on_c, 0, 69, 0
1, 65550, Note_on_c, 1, 69, 0
1, 65550, Note_on_c, 0, 70, 100
1, 65550, Note_on_c, 1, 70, 100
1, 65550, Note_on_c, 5, 72, 100
1, 65580, Note_on_c, 5, 72, 0
1, 65580, Note_on_c, 9, 46, 0
1, 65580, Note_on_c, 1, 70, 0
1, 65580, Note_on_c, 9, 36, 0
1, 65580, Note_on_c, 2, 43, 0
1, 65580, Note_on_c, 0, 43, 0
1, 65580, Note_on_c, 0, 55, 100
1, 65580, Note_on_c, 1, 67, 100
1, 65580, Note_on_c, 5, 67, 100
1, 65580, Note_on_c, 9, 36, 100
1, 65580, Note_on_c, 9, 46, 100
1, 65610, Note_on_c, 9, 36, 0
1, 65610, Note_on_c, 0, 74, 0
1, 65610, Note_on_c, 1, 67, 0
1, 65610, Note_on_c, 0, 70, 0
1, 65610, Note_on_c, 3, 82, 0
1, 65610, Note_on_c, 5, 67, 0
1, 65610, Note_on_c, 0, 74, 100
1, 65610, Note_on_c, 0, 67, 100
1, 65610, Note_on_c, 1, 65, 100
1, 65610, Note_on_c, 3, 79, 100
1, 65610, Note_on_c, 5, 65, 100
1, 65610, Note_on_c, 9, 36, 100
1, 65640, Note_on_c, 9, 36, 0
1, 65640, Note_on_c, 5, 65, 0
1, 65640, Note_on_c, 9, 46, 0
1, 65640, Note_on_c, 0, 55, 0
1, 65640, Note_on_c, 1, 65, 0
1, 65640, Note_on_c, 0, 43, 100
1, 65640, Note_on_c, 1, 62, 100
1, 65640, Note_on_c, 2, 43, 100
1, 65640, Note_on_c, 5, 62, 100
1, 65640, Note_on_c, 9, 36, 100
1, 65640, Note_on_c, 9, 40, 100
1, 65640, Note_on_c, 9, 46, 100
1, 65670, Note_on_c, 5, 62, 0
1, 65670, Note_on_c, 0, 67, 0
1, 65670, Note_on_c, 0, 74, 0
1, 65670, Note_on_c, 1, 62, 0
1, 65670, Note_on_c, 3, 79, 0
1, 65670, Note_on_c, 0, 65, 100
1, 65670, Note_on_c, 1, 65, 100
1, 65670, Note_on_c, 3, 79, 100
1, 65670, Note_on_c, 5, 65, 100
1, 65700, Note_on_c, 5, 65, 0
1, 65700, Note_on_c, 9, 46, 0
1, 65700, Note_on_c, 3, 79, 0
1, 65700, Note_on_c, 0, 43, 0
1, 65700, Note_on_c, 2, 43, 0
1, 65700, Note_on_c, 1, 65, 0
1, 65700, Note_on_c, 0, 65, 0
1, 65700, Note_on_c, 0, 62, 100
1, 65700, Note_on_c, 0, 55, 100
1, 65700, Note_on_c, 1, 67, 100
1, 65700, Note_on_c, 3, 79, 100
1, 65700, Note_on_c, 5, 67, 100
1, 65700, Note_on_c, 9, 46, 100
1, 65730, Note_on_c, 0, 62, 0
1, 65760, Note_on_c, 9, 36, 0
1, 65760, Note_on_c, 3, 79, 0
1, 65760, Note_on_c, 9, 40, 0
1, 65760, Note_on_c, 0, 55, 0
1, 65760, Note_on_c, 1, 67, 0
1, 65760, Note_on_c, 5, 67, 0
1, 65760, Note_on_c, 9, 46, 0
1, 65760, Note_on_c, 0, 43, 100
1, 65760, Note_on_c, 2, 43, 100
1, 65760, Note_on_c, 3, 79, 100
1, 65760, Note_on_c, 9, 36, 100
1, 65760, Note_on_c, 9, 46, 100
1, 65820, Note_on_c, 9, 46, 0
1, 65820, Note_on_c, 2, 43, 0
1, 65820, Note_on_c, 0, 43, 0
1, 65820, Note_on_c, 9, 36, 0
1, 65820, Note_on_c, 0, 67, 100
1, 65820, Note_on_c, 0, 55, 100
1, 65820, Note_on_c, 1, 69, 100
1, 65820, Note_on_c, 1, 73, 100
1, 65820, Note_on_c, 5, 69, 100
1, 65820, Note_on_c, 5, 73, 100
1, 65820, Note_on_c, 9, 36, 100
1, 65820, Note_on_c, 9, 46, 100
1, 65880, Note_on_c, 9, 46, 0
1, 65880, Note_on_c, 1, 69, 0
1, 65880, Note_on_c, 3, 79, 0
1, 65880, Note_on_c, 1, 73, 0
1, 65880, Note_on_c, 0, 67, 0
1, 65880, Note_on_c, 0, 55, 0
1, 65880, Note_on_c, 5, 73, 0
1, 65880, Note_on_c, 5, 69, 0
1, 65880, Note_on_c, 9, 36, 0
1, 65880, Note_on_c, 0, 65, 100
1, 65880, Note_on_c, 0, 43, 100
1, 65880, Note_on_c, 1, 70, 100
1, 65880, Note_on_c, 1, 74, 100
1, 65880, Note_on_c, 2, 43, 100
1, 65880, Note_on_c, 5, 74, 100
1, 65880, Note_on_c, 5, 70, 100
1, 65880, Note_on_c, 9, 36, 100
1, 65880, Note_on_c, 9, 38, 100
1, 65880, Note_on_c, 9, 46, 100
1, 65940, Note_on_c, 9, 46, 0
1, 65940, Note_on_c, 1, 70, 0
1, 65940, Note_on_c, 5, 70, 0
1, 65940, Note_on_c, 0, 65, 0
1, 65940, Note_on_c, 2, 43, 0
1, 65940, Note_on_c, 0, 43, 0
1, 65940, Note_on_c, 1, 74, 0
1, 65940, Note_on_c, 5, 74, 0
1, 65940, Note_on_c, 0, 67, 100
1, 65940, Note_on_c, 0, 55, 100
1, 65940, Note_on_c, 9, 46, 100
1, 66000, Note_on_c, 9, 46, 0
1, 66000, Note_on_c, 0, 67, 0
1, 66000, Note_on_c, 9, 36, 0
1, 66000, Note_on_c, 9, 38, 0
1, 66000, Note_on_c, 0, 55, 0
1, 66000, Note_on_c, 0, 74, 100
1, 66000, Note_on_c, 0, 69, 100
1, 66000, Note_on_c, 0, 43, 100
1, 66000, Note_on_c, 1, 69, 100
1, 66000, Note_on_c, 2, 43, 100
1, 66000, Note_on_c, 5, 69, 100
1, 66000, Note_on_c, 9, 36, 100
1, 66000, Note_on_c, 9, 46, 100
1, 66030, Note_on_c, 5, 69, 0
1, 66030, Note_on_c, 0, 69, 0
1, 66030, Note_on_c, 1, 69, 0
1, 66030, Note_on_c, 0, 70, 100
1, 66030, Note_on_c, 1, 70, 100
1, 66030, Note_on_c, 5, 72, 100
1, 66060, Note_on_c, 5, 72, 0
1, 66060, Note_on_c, 1, 70, 0
1, 66060, Note_on_c, 9, 36, 0
1, 66060, Note_on_c, 9, 46, 0
1, 66060, Note_on_c, 2, 43, 0
1, 66060, Note_on_c, 0, 43, 0
1, 66060, Note_on_c, 0, 55, 100
1, 66060, Note_on_c, 1, 67, 100
1, 66060, Note_on_c, 5, 67, 100
1, 66060, Note_on_c, 9, 36, 100
1, 66060, Note_on_c, 9, 46, 100
1, 66090, Note_on_c, 9, 36, 0
1, 66090, Note_on_c, 1, 67, 0
1, 66090, Note_on_c, 0, 70, 0
1, 66090, Note_on_c, 0, 74, 0
1, 66090, Note_on_c, 5, 67, 0
1, 66090, Note_on_c, 0, 74, 100
1, 66090, Note_on_c, 0, 65, 100
1, 66090, Note_on_c, 1, 65, 100
1, 66090, Note_on_c, 5, 65, 100
1, 66090, Note_on_c, 9, 36, 100
1, 66120, Note_on_c, 9, 36, 0
1, 66120, Note_on_c, 1, 65, 0
1, 66120, Note_on_c, 9, 46, 0
1, 66120, Note_on_c, 0, 55, 0
1, 66120, Note_on_c, 5, 65, 0
1, 66120, Note_on_c, 0, 43, 100
1, 66120, Note_on_c, 1, 62, 100
1, 66120, Note_on_c, 2, 43, 100
1, 66120, Note_on_c, 5, 62, 100
1, 66120, Note_on_c, 9, 36, 100
1, 66120, Note_on_c, 9, 40, 100
1, 66120, Note_on_c, 9, 46, 100
1, 66150, Note_on_c, 5, 62, 0
1, 66150, Note_on_c, 0, 65, 0
1, 66150, Note_on_c, 0, 74, 0
1, 66150, Note_on_c, 1, 62, 0
1, 66150, Note_on_c, 0, 72, 100
1, 66150, Note_on_c, 0, 65, 100
1, 66150, Note_on_c, 1, 65, 100
1, 66150, Note_on_c, 5, 65, 100
1, 66180, Note_on_c, 5, 65, 0
1, 66180, Note_on_c, 2, 43, 0
1, 66180, Note_on_c, 1, 65, 0
1, 66180, Note_on_c, 0, 72, 0
1, 66180, Note_on_c, 0, 43, 0
1, 66180, Note_on_c, 9, 46, 0
1, 66180, Note_on_c, 0, 70, 100
1, 66180, Note_on_c, 0, 55, 100
1, 66180, Note_on_c, 1, 67, 100
1, 66180, Note_on_c, 5, 67, 100
1, 66180, Note_on_c, 9, 46, 100
1, 66210, Note_on_c, 0, 70, 0
1, 66210, Note_on_c, 0, 65, 0
1, 66210, Note_on_c, 0, 70, 100
1, 66210, Note_on_c, 0, 65, 100
1, 66240, Note_on_c, 0, 65, 0
1, 66240, Note_on_c, 9, 46, 0
1, 66240, Note_on_c, 5, 67, 0
1, 66240, Note_on_c, 9, 36, 0
1, 66240, Note_on_c, 0, 55, 0
1, 66240, Note_on_c, 9, 40, 0
1, 66240, Note_on_c, 1, 67, 0
1, 66240, Note_on_c, 0, 70, 0
1, 66240, Note_on_c, 0, 43, 100
1, 66240, Note_on_c, 2, 43, 100
1, 66240, Note_on_c, 9, 36, 100
1, 66240, Note_on_c, 9, 49, 100
1, 66300, Note_on_c, 9, 49, 0
1, 66300, Note_on_c, 0, 43, 0
1, 66300, Note_on_c, 2, 43, 0
1, 66300, Note_on_c, 9, 36, 0
1, 66300, Note_on_c, 0, 67, 100
1, 66300, Note_on_c, 0, 55, 100
1, 66300, Note_on_c, 1, 69, 100
1, 66300, Note_on_c, 1, 73, 100
1, 66300, Note_on_c, 3, 82, 100
1, 66300, Note_on_c, 5, 69, 100
1, 66300, Note_on_c, 5, 73, 100
1, 66300, Note_on_c, 9, 36, 100
1, 66300, Note_on_c, 9, 46, 100
1, 66360, Note_on_c, 9, 46, 0
1, 66360, Note_on_c, 1, 73, 0
1, 66360, Note_on_c, 0, 67, 0
1, 66360, Note_on_c, 3, 82, 0
1, 66360, Note_on_c, 0, 55, 0
1, 66360, Note_on_c, 1, 69, 0
1, 66360, Note_on_c, 5, 73, 0
1, 66360, Note_on_c, 5, 69, 0
1, 66360, Note_on_c, 9, 36, 0
1, 66360, Note_on_c, 0, 65, 100
1, 66360, Note_on_c, 0, 43, 100
1, 66360, Note_on_c, 1, 70, 100
1, 66360, Note_on_c, 1, 74, 100
1, 66360, Note_on_c, 2, 43, 100
1, 66360, Note_on_c, 3, 82, 100
1, 66360, Note_on_c, 5, 74, 100
1, 66360, Note_on_c, 5, 70, 100
1, 66360, Note_on_c, 9, 40, 100
1, 66360, Note_on_c, 9, 36, 100
1, 66360, Note_on_c, 9, 46, 100
1, 66420, Note_on_c, 9, 46, 0
1, 66420, Note_on_c, 1, 70, 0
1, 66420, Note_on_c, 5, 70, 0
1, 66420, Note_on_c, 1, 74, 0
1, 66420, Note_on_c, 0, 65, 0
1, 66420, Note_on_c, 2, 43, 0
1, 66420, Note_on_c, 0, 43, 0
1, 66420, Note_on_c, 5, 74, 0
1, 66420, Note_on_c, 3, 82, 0
1, 66420, Note_on_c, 0, 67, 100
1, 66420, Note_on_c, 0, 55, 100
1, 66420, Note_on_c, 3, 82, 100
1, 66420, Note_on_c, 9, 46, 100
1, 66480, Note_on_c, 9, 46, 0
1, 66480, Note_on_c, 9, 40, 0
1, 66480, Note_on_c, 0, 67, 0
1, 66480, Note_on_c, 9, 36, 0
1, 66480, Note_on_c, 3, 82, 0
1, 66480, Note_on_c, 0, 55, 0
1, 66480, Note_on_c, 0, 74, 100
1, 66480, Note_on_c, 0, 69, 100
1, 66480, Note_on_c, 0, 43, 100
1, 66480, Note_on_c, 1, 69, 100
1, 66480, Note_on_c, 2, 43, 100
1, 66480, Note_on_c, 3, 82, 100
1, 66480, Note_on_c, 5, 69, 100
1, 66480, Note_on_c, 9, 36, 100
1, 66480, Note_on_c, 9, 46, 100
1, 66510, Note_on_c, 5, 69, 0
1, 66510, Note_on_c, 0, 69, 0
1, 66510, Note_on_c, 1, 69, 0
1, 66510, Note_on_c, 0, 70, 100
1, 66510, Note_on_c, 1, 70, 100
1, 66510, Note_on_c, 5, 72, 100
1, 66540, Note_on_c, 5, 72, 0
1, 66540, Note_on_c, 9, 46, 0
1, 66540, Note_on_c, 1, 70, 0
1, 66540, Note_on_c, 9, 36, 0
1, 66540, Note_on_c, 2, 43, 0
1, 66540, Note_on_c, 0, 43, 0
1, 66540, Note_on_c, 0, 55, 100
1, 66540, Note_on_c, 1, 67, 100
1, 66540, Note_on_c, 5, 67, 100
1, 66540, Note_on_c, 9, 36, 100
1, 66540, Note_on_c, 9, 46, 100
1, 66570, Note_on_c, 9, 36, 0
1, 66570, Note_on_c, 0, 74, 0
1, 66570, Note_on_c, 1, 67, 0
1, 66570, Note_on_c, 0, 70, 0
1, 66570, Note_on_c, 3, 82, 0
1, 66570, Note_on_c, 5, 67, 0
1, 66570, Note_on_c, 0, 74, 100
1, 66570, Note_on_c, 0, 67, 100
1, 66570, Note_on_c, 1, 65, 100
1, 66570, Note_on_c, 3, 79, 100
1, 66570, Note_on_c, 5, 65, 100
1, 66570, Note_on_c, 9, 36, 100
1, 66600, Note_on_c, 9, 36, 0
1, 66600, Note_on_c, 5, 65, 0
1, 66600, Note_on_c, 9, 46, 0
1, 66600, Note_on_c, 0, 55, 0
1, 66600, Note_on_c, 1, 65, 0
1, 66600, Note_on_c, 0, 43, 100
1, 66600, Note_on_c, 1, 62, 100
1, 66600, Note_on_c, 2, 43, 100
1, 66600, Note_on_c, 5, 62, 100
1, 66600, Note_on_c, 9, 36, 100
1, 66600, Note_on_c, 9, 38, 100
1, 66600, Note_on_c, 9, 46, 100
1, 66630, Note_on_c, 5, 62, 0
1, 66630, Note_on_c, 0, 67, 0
1, 66630, Note_on_c, 0, 74, 0
1, 66630, Note_on_c, 1, 62, 0
1, 66630, Note_on_c, 3, 79, 0
1, 66630, Note_on_c, 0, 65, 100
1, 66630, Note_on_c, 1, 65, 100
1, 66630, Note_on_c, 3, 79, 100
1, 66630, Note_on_c, 5, 65, 100
1, 66660, Note_on_c, 5, 65, 0
1, 66660, Note_on_c, 9, 46, 0
1, 66660, Note_on_c, 3, 79, 0
1, 66660, Note_on_c, 0, 43, 0
1, 66660, Note_on_c, 2, 43, 0
1, 66660, Note_on_c, 1, 65, 0
1, 66660, Note_on_c, 0, 65, 0
1, 66660, Note_on_c, 0, 62, 100
1, 66660, Note_on_c, 0, 55, 100
1, 66660, Note_on_c, 1, 67, 100
1, 66660, Note_on_c, 3, 79, 100
1, 66660, Note_on_c, 5, 67, 100
1, 66660, Note_on_c, 9, 46, 100
1, 66690, Note_on_c, 0, 62, 0
1, 66720, Note_on_c, 9, 36, 0
1, 66720, Note_on_c, 3, 79, 0
1, 66720, Note_on_c, 9, 38, 0
1, 66720, Note_on_c, 0, 55, 0
1, 66720, Note_on_c, 1, 67, 0
1, 66720, Note_on_c, 5, 67, 0
1, 66720, Note_on_c, 9, 46, 0
1, 66720, Note_on_c, 0, 43, 100
1, 66720, Note_on_c, 2, 43, 100
1, 66720, Note_on_c, 3, 79, 100
1, 66720, Note_on_c, 9, 36, 100
1, 66720, Note_on_c, 9, 46, 100
1, 66780, Note_on_c, 9, 46, 0
1, 66780, Note_on_c, 2, 43, 0
1, 66780, Note_on_c, 0, 43, 0
1, 66780, Note_on_c, 9, 36, 0
1, 66780, Note_on_c, 0, 67, 100
1, 66780, Note_on_c, 0, 55, 100
1, 66780, Note_on_c, 1, 69, 100
1, 66780, Note_on_c, 1, 73, 100
1, 66780, Note_on_c, 5, 69, 100
1, 66780, Note_on_c, 5, 73, 100
1, 66780, Note_on_c, 9, 36, 100
1, 66780, Note_on_c, 9, 46, 100
1, 66840, Note_on_c, 9, 46, 0
1, 66840, Note_on_c, 1, 69, 0
1, 66840, Note_on_c, 3, 79, 0
1, 66840, Note_on_c, 1, 73, 0
1, 66840, Note_on_c, 0, 67, 0
1, 66840, Note_on_c, 0, 55, 0
1, 66840, Note_on_c, 5, 73, 0
1, 66840, Note_on_c, 5, 69, 0
1, 66840, Note_on_c, 9, 36, 0
1, 66840, Note_on_c, 0, 65, 100
1, 66840, Note_on_c, 0, 43, 100
1, 66840, Note_on_c, 1, 70, 100
1, 66840, Note_on_c, 1, 74, 100
1, 66840, Note_on_c, 2, 43, 100
1, 66840, Note_on_c, 5, 74, 100
1, 66840, Note_on_c, 5, 70, 100
1, 66840, Note_on_c, 9, 36, 100
1, 66840, Note_on_c, 9, 38, 100
1, 66840, Note_on_c, 9, 46, 100
1, 66900, Note_on_c, 9, 46, 0
1, 66900, Note_on_c, 1, 70, 0
1, 66900, Note_on_c, 5, 70, 0
1, 66900, Note_on_c, 0, 65, 0
1, 66900, Note_on_c, 2, 43, 0
1, 66900, Note_on_c, 0, 43, 0
1, 66900, Note_on_c, 1, 74, 0
1, 66900, Note_on_c, 5, 74, 0
1, 66900, Note_on_c, 0, 67, 100
1, 66900, Note_on_c, 0, 55, 100
1, 66900, Note_on_c, 9, 46, 100
1, 66960, Note_on_c, 9, 46, 0
1, 66960, Note_on_c, 0, 67, 0
1, 66960, Note_on_c, 9, 36, 0
1, 66960, Note_on_c, 9, 38, 0
1, 66960, Note_on_c, 0, 55, 0
1, 66960, Note_on_c, 0, 74, 100
1, 66960, Note_on_c, 0, 69, 100
1, 66960, Note_on_c, 0, 43, 100
1, 66960, Note_on_c, 1, 69, 100
1, 66960, Note_on_c, 2, 43, 100
1, 66960, Note_on_c, 5, 69, 100
1, 66960, Note_on_c, 9, 36, 100
1, 66960, Note_on_c, 9, 46, 100
1, 66990, Note_on_c, 5, 69, 0
1, 66990, Note_on_c, 0, 69, 0
1, 66990, Note_on_c, 1, 69, 0
1, 66990, Note_on_c, 0, 70, 100
1, 66990, Note_on_c, 1, 70, 100
1, 66990, Note_on_c, 5, 72, 100
1, 67020, Note_on_c, 5, 72, 0
1, 67020, Note_on_c, 1, 70, 0
1, 67020, Note_on_c, 9, 36, 0
1, 67020, Note_on_c, 9, 46, 0
1, 67020, Note_on_c, 2, 43, 0
1, 67020, Note_on_c, 0, 43, 0
1, 67020, Note_on_c, 0, 55, 100
1, 67020, Note_on_c, 1, 67, 100
1, 67020, Note_on_c, 5, 67, 100
1, 67020, Note_on_c, 9, 36, 100
1, 67020, Note_on_c, 9, 46, 100
1, 67050, Note_on_c, 9, 36, 0
1, 67050, Note_on_c, 1, 67, 0
1, 67050, Note_on_c, 0, 70, 0
1, 67050, Note_on_c, 0, 74, 0
1, 67050, Note_on_c, 5, 67, 0
1, 67050, Note_on_c, 0, 74, 100
1, 67050, Note_on_c, 0, 65, 100
1, 67050, Note_on_c, 1, 65, 100
1, 67050, Note_on_c, 5, 65, 100
1, 67050, Note_on_c, 9, 36, 100
1, 67080, Note_on_c, 9, 36, 0
1, 67080, Note_on_c, 1, 65, 0
1, 67080, Note_on_c, 9, 46, 0
1, 67080, Note_on_c, 0, 55, 0
1, 67080, Note_on_c, 5, 65, 0
1, 67080, Note_on_c, 0, 43, 100
1, 67080, Note_on_c, 1, 62, 100
1, 67080, Note_on_c, 2, 43, 100
1, 67080, Note_on_c, 5, 62, 100
1, 67080, Note_on_c, 9, 36, 100
1, 67080, Note_on_c, 9, 40, 100
1, 67080, Note_on_c, 9, 46, 100
1, 67110, Note_on_c, 5, 62, 0
1, 67110, Note_on_c, 0, 65, 0
1, 67110, Note_on_c, 0, 74, 0
1, 67110, Note_on_c, 1, 62, 0
1, 67110, Note_on_c, 0, 72, 100
1, 67110, Note_on_c, 0, 65, 100
1, 67110, Note_on_c, 1, 65, 100
1, 67110, Note_on_c, 5, 65, 100
1, 67140, Note_on_c, 5, 65, 0
1, 67140, Note_on_c, 2, 43, 0
1, 67140, Note_on_c, 1, 65, 0
1, 67140, Note_on_c, 0, 72, 0
1, 67140, Note_on_c, 0, 43, 0
1, 67140, Note_on_c, 9, 46, 0
1, 67140, Note_on_c, 0, 70, 100
1, 67140, Note_on_c, 0, 55, 100
1, 67140, Note_on_c, 1, 67, 100
1, 67140, Note_on_c, 5, 67, 100
1, 67140, Note_on_c, 9, 46, 100
1, 67170, Note_on_c, 0, 70, 0
1, 67170, Note_on_c, 0, 65, 0
1, 67170, Note_on_c, 0, 70, 100
1, 67170, Note_on_c, 0, 65, 100
1, 67200, Note_on_c, 0, 65, 0
1, 67200, Note_on_c, 9, 46, 0
1, 67200, Note_on_c, 5, 67, 0
1, 67200, Note_on_c, 9, 36, 0
1, 67200, Note_on_c, 0, 55, 0
1, 67200, Note_on_c, 9, 40, 0
1, 67200, Note_on_c, 1, 67, 0
1, 67200, Note_on_c, 0, 70, 0
1, 67200, Note_on_c, 0, 43, 100
1, 67200, Note_on_c, 2, 43, 100
1, 67200, Note_on_c, 9, 36, 100
1, 67200, Note_on_c, 9, 46, 100
1, 67260, Note_on_c, 9, 46, 0
1, 67260, Note_on_c, 0, 43, 0
1, 67260, Note_on_c, 2, 43, 0
1, 67260, Note_on_c, 9, 36, 0
1, 67260, Note_on_c, 0, 67, 100
1, 67260, Note_on_c, 0, 55, 100
1, 67260, Note_on_c, 1, 69, 100
1, 67260, Note_on_c, 1, 73, 100
1, 67260, Note_on_c, 3, 82, 100
1, 67260, Note_on_c, 5, 69, 100
1, 67260, Note_on_c, 5, 73, 100
1, 67260, Note_on_c, 9, 36, 100
1, 67260, Note_on_c, 9, 46, 100
1, 67320, Note_on_c, 9, 46, 0
1, 67320, Note_on_c, 1, 73, 0
1, 67320, Note_on_c, 0, 67, 0
1, 67320, Note_on_c, 3, 82, 0
1, 67320, Note_on_c, 0, 55, 0
1, 67320, Note_on_c, 1, 69, 0
1, 67320, Note_on_c, 5, 73, 0
1, 67320, Note_on_c, 5, 69, 0
1, 67320, Note_on_c, 9, 36, 0
1, 67320, Note_on_c, 0, 65, 100
1, 67320, Note_on_c, 0, 43, 100
1, 67320, Note_on_c, 1, 70, 100
1, 67320, Note_on_c, 1, 74, 100
1, 67320, Note_on_c, 2, 43, 100
1, 67320, Note_on_c, 3, 82, 100
1, 67320, Note_on_c, 5, 74, 100
1, 67320, Note_on_c, 5, 70, 100
1, 67320, Note_on_c, 9, 36, 100
1, 67320, Note_on_c, 9, 38, 100
1, 67320, Note_on_c, 9, 46, 100
1, 67380, Note_on_c, 9, 46, 0
1, 67380, Note_on_c, 1, 70, 0
1, 67380, Note_on_c, 5, 70, 0
1, 67380, Note_on_c, 1, 74, 0
1, 67380, Note_on_c, 0, 65, 0
1, 67380, Note_on_c, 2, 43, 0
1, 67380, Note_on_c, 0, 43, 0
1, 67380, Note_on_c, 5, 74, 0
1, 67380, Note_on_c, 3, 82, 0
1, 67380, Note_on_c, 0, 67, 100
1, 67380, Note_on_c, 0, 55, 100
1, 67380, Note_on_c, 3, 82, 100
1, 67380, Note_on_c, 9, 46, 100
1, 67440, Note_on_c, 9, 46, 0
1, 67440, Note_on_c, 9, 36, 0
1, 67440, Note_on_c, 0, 67, 0
1, 67440, Note_on_c, 9, 38, 0
1, 67440, Note_on_c, 3, 82, 0
1, 67440, Note_on_c, 0, 55, 0
1, 67440, Note_on_c, 0, 74, 100
1, 67440, Note_on_c, 0, 69, 100
1, 67440, Note_on_c, 0, 43, 100
1, 67440, Note_on_c, 1, 69, 100
1, 67440, Note_on_c, 2, 43, 100
1, 67440, Note_on_c, 3, 82, 100
1, 67440, Note_on_c, 5, 69, 100
1, 67440, Note_on_c, 9, 36, 100
1, 67440, Note_on_c, 9, 46, 100
1, 67470, Note_on_c, 5, 69, 0
1, 67470, Note_on_c, 0, 69, 0
1, 67470, Note_on_c, 1, 69, 0
1, 67470, Note_on_c, 0, 70, 100
1, 67470, Note_on_c, 1, 70, 100
1, 67470, Note_on_c, 5, 72, 100
1, 67500, Note_on_c, 5, 72, 0
1, 67500, Note_on_c, 9, 46, 0
1, 67500, Note_on_c, 1, 70, 0
1, 67500, Note_on_c, 9, 36, 0
1, 67500, Note_on_c, 2, 43, 0
1, 67500, Note_on_c, 0, 43, 0
1, 67500, Note_on_c, 0, 55, 100
1, 67500, Note_on_c, 1, 67, 100
1, 67500, Note_on_c, 5, 67, 100
1, 67500, Note_on_c, 9, 36, 100
1, 67500, Note_on_c, 9, 46, 100
1, 67530, Note_on_c, 9, 36, 0
1, 67530, Note_on_c, 0, 74, 0
1, 67530, Note_on_c, 1, 67, 0
1, 67530, Note_on_c, 0, 70, 0
1, 67530, Note_on_c, 3, 82, 0
1, 67530, Note_on_c, 5, 67, 0
1, 67530, Note_on_c, 0, 74, 100
1, 67530, Note_on_c, 0, 67, 100
1, 67530, Note_on_c, 1, 65, 100
1, 67530, Note_on_c, 3, 79, 100
1, 67530, Note_on_c, 5, 65, 100
1, 67530, Note_on_c, 9, 36, 100
1, 67560, Note_on_c, 9, 36, 0
1, 67560, Note_on_c, 5, 65, 0
1, 67560, Note_on_c, 9, 46, 0
1, 67560, Note_on_c, 0, 55, 0
1, 67560, Note_on_c, 1, 65, 0
1, 67560, Note_on_c, 0, 43, 100
1, 67560, Note_on_c, 1, 62, 100
1, 67560, Note_on_c, 2, 43, 100
1, 67560, Note_on_c, 5, 62, 100
1, 67560, Note_on_c, 9, 36, 100
1, 67560, Note_on_c, 9, 40, 100
1, 67560, Note_on_c, 9, 46, 100
1, 67590, Note_on_c, 5, 62, 0
1, 67590, Note_on_c, 0, 67, 0
1, 67590, Note_on_c, 0, 74, 0
1, 67590, Note_on_c, 1, 62, 0
1, 67590, Note_on_c, 3, 79, 0
1, 67590, Note_on_c, 0, 65, 100
1, 67590, Note_on_c, 1, 65, 100
1, 67590, Note_on_c, 3, 79, 100
1, 67590, Note_on_c, 5, 65, 100
1, 67620, Note_on_c, 5, 65, 0
1, 67620, Note_on_c, 9, 46, 0
1, 67620, Note_on_c, 3, 79, 0
1, 67620, Note_on_c, 0, 43, 0
1, 67620, Note_on_c, 2, 43, 0
1, 67620, Note_on_c, 1, 65, 0
1, 67620, Note_on_c, 0, 65, 0
1, 67620, Note_on_c, 0, 62, 100
1, 67620, Note_on_c, 0, 55, 100
1, 67620, Note_on_c, 1, 67, 100
1, 67620, Note_on_c, 3, 79, 100
1, 67620, Note_on_c, 5, 67, 100
1, 67620, Note_on_c, 9, 46, 100
1, 67650, Note_on_c, 0, 62, 0
1, 67680, Note_on_c, 9, 36, 0
1, 67680, Note_on_c, 3, 79, 0
1, 67680, Note_on_c, 9, 40, 0
1, 67680, Note_on_c, 0, 55, 0
1, 67680, Note_on_c, 1, 67, 0
1, 67680, Note_on_c, 5, 67, 0
1, 67680, Note_on_c, 9, 46, 0
1, 67680, Note_on_c, 0, 43, 100
1, 67680, Note_on_c, 2, 43, 100
1, 67680, Note_on_c, 3, 79, 100
1, 67680, Note_on_c, 9, 36, 100
1, 67680, Note_on_c, 9, 46, 100
1, 67740, Note_on_c, 9, 46, 0
1, 67740, Note_on_c, 2, 43, 0
1, 67740, Note_on_c, 0, 43, 0
1, 67740, Note_on_c, 9, 36, 0
1, 67740, Note_on_c, 0, 67, 100
1, 67740, Note_on_c, 0, 55, 100
1, 67740, Note_on_c, 1, 69, 100
1, 67740, Note_on_c, 1, 73, 100
1, 67740, Note_on_c, 5, 69, 100
1, 67740, Note_on_c, 5, 73, 100
1, 67740, Note_on_c, 9, 36, 100
1, 67740, Note_on_c, 9, 46, 100
1, 67800, Note_on_c, 9, 46, 0
1, 67800, Note_on_c, 1, 69, 0
1, 67800, Note_on_c, 3, 79, 0
1, 67800, Note_on_c, 1, 73, 0
1, 67800, Note_on_c, 0, 67, 0
1, 67800, Note_on_c, 0, 55, 0
1, 67800, Note_on_c, 5, 73, 0
1, 67800, Note_on_c, 5, 69, 0
1, 67800, Note_on_c, 9, 36, 0
1, 67800, Note_on_c, 0, 65, 100
1, 67800, Note_on_c, 0, 43, 100
1, 67800, Note_on_c, 1, 70, 100
1, 67800, Note_on_c, 1, 74, 100
1, 67800, Note_on_c, 2, 43, 100
1, 67800, Note_on_c, 5, 74, 100
1, 67800, Note_on_c, 5, 70, 100
1, 67800, Note_on_c, 9, 36, 100
1, 67800, Note_on_c, 9, 38, 100
1, 67800, Note_on_c, 9, 46, 100
1, 67860, Note_on_c, 9, 46, 0
1, 67860, Note_on_c, 1, 70, 0
1, 67860, Note_on_c, 5, 70, 0
1, 67860, Note_on_c, 0, 65, 0
1, 67860, Note_on_c, 2, 43, 0
1, 67860, Note_on_c, 0, 43, 0
1, 67860, Note_on_c, 1, 74, 0
1, 67860, Note_on_c, 5, 74, 0
1, 67860, Note_on_c, 0, 67, 100
1, 67860, Note_on_c, 0, 55, 100
1, 67860, Note_on_c, 9, 46, 100
1, 67920, Note_on_c, 9, 46, 0
1, 67920, Note_on_c, 0, 67, 0
1, 67920, Note_on_c, 9, 36, 0
1, 67920, Note_on_c, 9, 38, 0
1, 67920, Note_on_c, 0, 55, 0
1, 67920, Note_on_c, 0, 74, 100
1, 67920, Note_on_c, 0, 69, 100
1, 67920, Note_on_c, 0, 43, 100
1, 67920, Note_on_c, 1, 69, 100
1, 67920, Note_on_c, 2, 43, 100
1, 67920, Note_on_c, 5, 69, 100
1, 67920, Note_on_c, 9, 36, 100
1, 67920, Note_on_c, 9, 46, 100
1, 67950, Note_on_c, 5, 69, 0
1, 67950, Note_on_c, 0, 69, 0
1, 67950, Note_on_c, 1, 69, 0
1, 67950, Note_on_c, 0, 70, 100
1, 67950, Note_on_c, 1, 70, 100
1, 67950, Note_on_c, 5, 72, 100
1, 67980, Note_on_c, 5, 72, 0
1, 67980, Note_on_c, 1, 70, 0
1, 67980, Note_on_c, 9, 36, 0
1, 67980, Note_on_c, 9, 46, 0
1, 67980, Note_on_c, 2, 43, 0
1, 67980, Note_on_c, 0, 43, 0
1, 67980, Note_on_c, 0, 55, 100
1, 67980, Note_on_c, 1, 67, 100
1, 67980, Note_on_c, 5, 67, 100
1, 67980, Note_on_c, 9, 36, 100
1, 67980, Note_on_c, 9, 46, 100
1, 68010, Note_on_c, 9, 36, 0
1, 68010, Note_on_c, 1, 67, 0
1, 68010, Note_on_c, 0, 70, 0
1, 68010, Note_on_c, 0, 74, 0
1, 68010, Note_on_c, 5, 67, 0
1, 68010, Note_on_c, 0, 74, 100
1, 68010, Note_on_c, 0, 65, 100
1, 68010, Note_on_c, 1, 65, 100
1, 68010, Note_on_c, 5, 65, 100
1, 68010, Note_on_c, 9, 36, 100
1, 68040, Note_on_c, 9, 36, 0
1, 68040, Note_on_c, 1, 65, 0
1, 68040, Note_on_c, 9, 46, 0
1, 68040, Note_on_c, 0, 55, 0
1, 68040, Note_on_c, 5, 65, 0
1, 68040, Note_on_c, 0, 43, 100
1, 68040, Note_on_c, 1, 62, 100
1, 68040, Note_on_c, 2, 43, 100
1, 68040, Note_on_c, 5, 62, 100
1, 68040, Note_on_c, 9, 36, 100
1, 68040, Note_on_c, 9, 40, 100
1, 68040, Note_on_c, 9, 46, 100
1, 68070, Note_on_c, 5, 62, 0
1, 68070, Note_on_c, 0, 65, 0
1, 68070, Note_on_c, 0, 74, 0
1, 68070, Note_on_c, 1, 62, 0
1, 68070, Note_on_c, 0, 72, 100
1, 68070, Note_on_c, 0, 65, 100
1, 68070, Note_on_c, 1, 65, 100
1, 68070, Note_on_c, 5, 65, 100
1, 68100, Note_on_c, 5, 65, 0
1, 68100, Note_on_c, 2, 43, 0
1, 68100, Note_on_c, 1, 65, 0
1, 68100, Note_on_c, 0, 72, 0
1, 68100, Note_on_c, 0, 43, 0
1, 68100, Note_on_c, 9, 46, 0
1, 68100, Note_on_c, 0, 70, 100
1, 68100, Note_on_c, 0, 55, 100
1, 68100, Note_on_c, 1, 67, 100
1, 68100, Note_on_c, 5, 67, 100
1, 68100, Note_on_c, 9, 46, 100
1, 68130, Note_on_c, 0, 70, 0
1, 68130, Note_on_c, 0, 65, 0
1, 68130, Note_on_c, 0, 70, 100
1, 68130, Note_on_c, 0, 65, 100
1, 68160, Note_on_c, 0, 65, 0
1, 68160, Note_on_c, 9, 46, 0
1, 68160, Note_on_c, 5, 67, 0
1, 68160, Note_on_c, 9, 36, 0
1, 68160, Note_on_c, 0, 55, 0
1, 68160, Note_on_c, 9, 40, 0
1, 68160, Note_on_c, 1, 67, 0
1, 68160, Note_on_c, 0, 70, 0
1, 68160, Note_on_c, 0, 43, 100
1, 68160, Note_on_c, 2, 43, 100
1, 68160, Note_on_c, 9, 36, 100
1, 68160, Note_on_c, 9, 49, 100
1, 68220, Note_on_c, 9, 49, 0
1, 68220, Note_on_c, 0, 43, 0
1, 68220, Note_on_c, 2, 43, 0
1, 68220, Note_on_c, 9, 36, 0
1, 68220, Note_on_c, 0, 67, 100
1, 68220, Note_on_c, 0, 55, 100
1, 68220, Note_on_c, 1, 69, 100
1, 68220, Note_on_c, 1, 73, 100
1, 68220, Note_on_c, 3, 82, 100
1, 68220, Note_on_c, 5, 69, 100
1, 68220, Note_on_c, 5, 73, 100
1, 68220, Note_on_c, 9, 36, 100
1, 68220, Note_on_c, 9, 46, 100
1, 68280, Note_on_c, 9, 46, 0
1, 68280, Note_on_c, 1, 73, 0
1, 68280, Note_on_c, 0, 67, 0
1, 68280, Note_on_c, 3, 82, 0
1, 68280, Note_on_c, 0, 55, 0
1, 68280, Note_on_c, 1, 69, 0
1, 68280, Note_on_c, 5, 73, 0
1, 68280, Note_on_c, 5, 69, 0
1, 68280, Note_on_c, 9, 36, 0
1, 68280, Note_on_c, 0, 65, 100
1, 68280, Note_on_c, 0, 43, 100
1, 68280, Note_on_c, 1, 70, 100
1, 68280, Note_on_c, 1, 74, 100
1, 68280, Note_on_c, 2, 43, 100
1, 68280, Note_on_c, 3, 82, 100
1, 68280, Note_on_c, 5, 74, 100
1, 68280, Note_on_c, 5, 70, 100
1, 68280, Note_on_c, 9, 40, 100
1, 68280, Note_on_c, 9, 36, 100
1, 68280, Note_on_c, 9, 46, 100
1, 68340, Note_on_c, 9, 46, 0
1, 68340, Note_on_c, 1, 70, 0
1, 68340, Note_on_c, 5, 70, 0
1, 68340, Note_on_c, 1, 74, 0
1, 68340, Note_on_c, 0, 65, 0
1, 68340, Note_on_c, 2, 43, 0
1, 68340, Note_on_c, 0, 43, 0
1, 68340, Note_on_c, 5, 74, 0
1, 68340, Note_on_c, 3, 82, 0
1, 68340, Note_on_c, 0, 67, 100
1, 68340, Note_on_c, 0, 55, 100
1, 68340, Note_on_c, 3, 82, 100
1, 68340, Note_on_c, 9, 46, 100
1, 68400, Note_on_c, 9, 46, 0
1, 68400, Note_on_c, 9, 40, 0
1, 68400, Note_on_c, 0, 67, 0
1, 68400, Note_on_c, 9, 36, 0
1, 68400, Note_on_c, 3, 82, 0
1, 68400, Note_on_c, 0, 55, 0
1, 68400, Note_on_c, 0, 74, 100
1, 68400, Note_on_c, 0, 69, 100
1, 68400, Note_on_c, 0, 43, 100
1, 68400, Note_on_c, 1, 69, 100
1, 68400, Note_on_c, 2, 43, 100
1, 68400, Note_on_c, 3, 82, 100
1, 68400, Note_on_c, 5, 69, 100
1, 68400, Note_on_c, 9, 36, 100
1, 68400, Note_on_c, 9, 46, 100
1, 68430, Note_on_c, 5, 69, 0
1, 68430, Note_on_c, 0, 69, 0
1, 68430, Note_on_c, 1, 69, 0
1, 68430, Note_on_c, 0, 70, 100
1, 68430, Note_on_c, 1, 70, 100
1, 68430, Note_on_c, 5, 72, 100
1, 68460, Note_on_c, 5, 72, 0
1, 68460, Note_on_c, 9, 46, 0
1, 68460, Note_on_c, 1, 70, 0
1, 68460, Note_on_c, 9, 36, 0
1, 68460, Note_on_c, 2, 43, 0
1, 68460, Note_on_c, 0, 43, 0
1, 68460, Note_on_c, 0, 55, 100
1, 68460, Note_on_c, 1, 67, 100
1, 68460, Note_on_c, 5, 67, 100
1, 68460, Note_on_c, 9, 36, 100
1, 68460, Note_on_c, 9, 46, 100
1, 68490, Note_on_c, 9, 36, 0
1, 68490, Note_on_c, 0, 74, 0
1, 68490, Note_on_c, 1, 67, 0
1, 68490, Note_on_c, 0, 70, 0
1, 68490, Note_on_c, 3, 82, 0
1, 68490, Note_on_c, 5, 67, 0
1, 68490, Note_on_c, 0, 74, 100
1, 68490, Note_on_c, 0, 67, 100
1, 68490, Note_on_c, 1, 65, 100
1, 68490, Note_on_c, 3, 79, 100
1, 68490, Note_on_c, 5, 65, 100
1, 68490, Note_on_c, 9, 36, 100
1, 68520, Note_on_c, 9, 36, 0
1, 68520, Note_on_c, 5, 65, 0
1, 68520, Note_on_c, 9, 46, 0
1, 68520, Note_on_c, 0, 55, 0
1, 68520, Note_on_c, 1, 65, 0
1, 68520, Note_on_c, 0, 43, 100
1, 68520, Note_on_c, 1, 62, 100
1, 68520, Note_on_c, 2, 43, 100
1, 68520, Note_on_c, 5, 62, 100
1, 68520, Note_on_c, 9, 36, 100
1, 68520, Note_on_c, 9, 38, 100
1, 68520, Note_on_c, 9, 46, 100
1, 68550, Note_on_c, 5, 62, 0
1, 68550, Note_on_c, 0, 67, 0
1, 68550, Note_on_c, 0, 74, 0
1, 68550, Note_on_c, 1, 62, 0
1, 68550, Note_on_c, 3, 79, 0
1, 68550, Note_on_c, 0, 65, 100
1, 68550, Note_on_c, 1, 65, 100
1, 68550, Note_on_c, 3, 79, 100
1, 68550, Note_on_c, 5, 65, 100
1, 68580, Note_on_c, 5, 65, 0
1, 68580, Note_on_c, 9, 46, 0
1, 68580, Note_on_c, 3, 79, 0
1, 68580, Note_on_c, 0, 43, 0
1, 68580, Note_on_c, 2, 43, 0
1, 68580, Note_on_c, 1, 65, 0
1, 68580, Note_on_c, 0, 65, 0
1, 68580, Note_on_c, 0, 62, 100
1, 68580, Note_on_c, 0, 55, 100
1, 68580, Note_on_c, 1, 67, 100
1, 68580, Note_on_c, 3, 79, 100
1, 68580, Note_on_c, 5, 67, 100
1, 68580, Note_on_c, 9, 46, 100
1, 68610, Note_on_c, 0, 62, 0
1, 68640, Note_on_c, 9, 36, 0
1, 68640, Note_on_c, 3, 79, 0
1, 68640, Note_on_c, 9, 38, 0
1, 68640, Note_on_c, 0, 55, 0
1, 68640, Note_on_c, 1, 67, 0
1, 68640, Note_on_c, 5, 67, 0
1, 68640, Note_on_c, 9, 46, 0
1, 68640, Note_on_c, 0, 43, 100
1, 68640, Note_on_c, 2, 43, 100
1, 68640, Note_on_c, 3, 79, 100
1, 68640, Note_on_c, 9, 36, 100
1, 68640, Note_on_c, 9, 46, 100
1, 68700, Note_on_c, 9, 46, 0
1, 68700, Note_on_c, 2, 43, 0
1, 68700, Note_on_c, 0, 43, 0
1, 68700, Note_on_c, 9, 36, 0
1, 68700, Note_on_c, 0, 67, 100
1, 68700, Note_on_c, 0, 55, 100
1, 68700, Note_on_c, 1, 69, 100
1, 68700, Note_on_c, 1, 73, 100
1, 68700, Note_on_c, 5, 69, 100
1, 68700, Note_on_c, 5, 73, 100
1, 68700, Note_on_c, 9, 36, 100
1, 68700, Note_on_c, 9, 46, 100
1, 68760, Note_on_c, 9, 46, 0
1, 68760, Note_on_c, 1, 69, 0
1, 68760, Note_on_c, 3, 79, 0
1, 68760, Note_on_c, 1, 73, 0
1, 68760, Note_on_c, 0, 67, 0
1, 68760, Note_on_c, 0, 55, 0
1, 68760, Note_on_c, 5, 73, 0
1, 68760, Note_on_c, 5, 69, 0
1, 68760, Note_on_c, 9, 36, 0
1, 68760, Note_on_c, 0, 65, 100
1, 68760, Note_on_c, 0, 43, 100
1, 68760, Note_on_c, 1, 70, 100
1, 68760, Note_on_c, 1, 74, 100
1, 68760, Note_on_c, 2, 43, 100
1, 68760, Note_on_c, 5, 74, 100
1, 68760, Note_on_c, 5, 70, 100
1, 68760, Note_on_c, 9, 36, 100
1, 68760, Note_on_c, 9, 38, 100
1, 68760, Note_on_c, 9, 46, 100
1, 68820, Note_on_c, 9, 46, 0
1, 68820, Note_on_c, 1, 70, 0
1, 68820, Note_on_c, 5, 70, 0
1, 68820, Note_on_c, 0, 65, 0
1, 68820, Note_on_c, 2, 43, 0
1, 68820, Note_on_c, 0, 43, 0
1, 68820, Note_on_c, 1, 74, 0
1, 68820, Note_on_c, 5, 74, 0
1, 68820, Note_on_c, 0, 67, 100
1, 68820, Note_on_c, 0, 55, 100
1, 68820, Note_on_c, 9, 46, 100
1, 68880, Note_on_c, 9, 46, 0
1, 68880, Note_on_c, 0, 67, 0
1, 68880, Note_on_c, 9, 36, 0
1, 68880, Note_on_c, 9, 38, 0
1, 68880, Note_on_c, 0, 55, 0
1, 68880, Note_on_c, 0, 74, 100
1, 68880, Note_on_c, 0, 69, 100
1, 68880, Note_on_c, 0, 43, 100
1, 68880, Note_on_c, 1, 69, 100
1, 68880, Note_on_c, 2, 43, 100
1, 68880, Note_on_c, 5, 69, 100
1, 68880, Note_on_c, 9, 36, 100
1, 68880, Note_on_c, 9, 46, 100
1, 68910, Note_on_c, 5, 69, 0
1, 68910, Note_on_c, 0, 69, 0
1, 68910, Note_on_c, 1, 69, 0
1, 68910, Note_on_c, 0, 70, 100
1, 68910, Note_on_c, 1, 70, 100
1, 68910, Note_on_c, 5, 72, 100
1, 68940, Note_on_c, 5, 72, 0
1, 68940, Note_on_c, 1, 70, 0
1, 68940, Note_on_c, 9, 36, 0
1, 68940, Note_on_c, 9, 46, 0
1, 68940, Note_on_c, 2, 43, 0
1, 68940, Note_on_c, 0, 43, 0
1, 68940, Note_on_c, 0, 55, 100
1, 68940, Note_on_c, 1, 67, 100
1, 68940, Note_on_c, 5, 67, 100
1, 68940, Note_on_c, 9, 36, 100
1, 68940, Note_on_c, 9, 46, 100
1, 68970, Note_on_c, 9, 36, 0
1, 68970, Note_on_c, 1, 67, 0
1, 68970, Note_on_c, 0, 70, 0
1, 68970, Note_on_c, 0, 74, 0
1, 68970, Note_on_c, 5, 67, 0
1, 68970, Note_on_c, 0, 74, 100
1, 68970, Note_on_c, 0, 65, 100
1, 68970, Note_on_c, 1, 65, 100
1, 68970, Note_on_c, 5, 65, 100
1, 68970, Note_on_c, 9, 36, 100
1, 69000, Note_on_c, 9, 36, 0
1, 69000, Note_on_c, 1, 65, 0
1, 69000, Note_on_c, 9, 46, 0
1, 69000, Note_on_c, 0, 55, 0
1, 69000, Note_on_c, 5, 65, 0
1, 69000, Note_on_c, 0, 43, 100
1, 69000, Note_on_c, 1, 62, 100
1, 69000, Note_on_c, 2, 43, 100
1, 69000, Note_on_c, 5, 62, 100
1, 69000, Note_on_c, 9, 36, 100
1, 69000, Note_on_c, 9, 40, 100
1, 69000, Note_on_c, 9, 46, 100
1, 69030, Note_on_c, 5, 62, 0
1, 69030, Note_on_c, 0, 65, 0
1, 69030, Note_on_c, 0, 74, 0
1, 69030, Note_on_c, 1, 62, 0
1, 69030, Note_on_c, 0, 72, 100
1, 69030, Note_on_c, 0, 65, 100
1, 69030, Note_on_c, 1, 65, 100
1, 69030, Note_on_c, 5, 65, 100
1, 69060, Note_on_c, 5, 65, 0
1, 69060, Note_on_c, 2, 43, 0
1, 69060, Note_on_c, 1, 65, 0
1, 69060, Note_on_c, 0, 72, 0
1, 69060, Note_on_c, 0, 43, 0
1, 69060, Note_on_c, 9, 46, 0
1, 69060, Note_on_c, 0, 70, 100
1, 69060, Note_on_c, 0, 55, 100
1, 69060, Note_on_c, 1, 67, 100
1, 69060, Note_on_c, 5, 67, 100
1, 69060, Note_on_c, 9, 46, 100
1, 69090, Note_on_c, 0, 70, 0
1, 69090, Note_on_c, 0, 65, 0
1, 69090, Note_on_c, 0, 70, 100
1, 69090, Note_on_c, 0, 65, 100
1, 69120, Note_on_c, 0, 65, 0
1, 69120, Note_on_c, 9, 46, 0
1, 69120, Note_on_c, 5, 67, 0
1, 69120, Note_on_c, 9, 36, 0
1, 69120, Note_on_c, 0, 55, 0
1, 69120, Note_on_c, 9, 40, 0
1, 69120, Note_on_c, 1, 67, 0
1, 69120, Note_on_c, 0, 70, 0
1, 69120, Note_on_c, 0, 43, 100
1, 69120, Note_on_c, 2, 43, 100
1, 69120, Note_on_c, 9, 36, 100
1, 69120, Note_on_c, 9, 46, 100
1, 69180, Note_on_c, 9, 46, 0
1, 69180, Note_on_c, 0, 43, 0
1, 69180, Note_on_c, 2, 43, 0
1, 69180, Note_on_c, 9, 36, 0
1, 69180, Note_on_c, 0, 67, 100
1, 69180, Note_on_c, 0, 55, 100
1, 69180, Note_on_c, 1, 69, 100
1, 69180, Note_on_c, 1, 73, 100
1, 69180, Note_on_c, 3, 82, 100
1, 69180, Note_on_c, 5, 69, 100
1, 69180, Note_on_c, 5, 73, 100
1, 69180, Note_on_c, 9, 36, 100
1, 69180, Note_on_c, 9, 46, 100
1, 69240, Note_on_c, 9, 46, 0
1, 69240, Note_on_c, 1, 73, 0
1, 69240, Note_on_c, 0, 67, 0
1, 69240, Note_on_c, 3, 82, 0
1, 69240, Note_on_c, 0, 55, 0
1, 69240, Note_on_c, 1, 69, 0
1, 69240, Note_on_c, 5, 73, 0
1, 69240, Note_on_c, 5, 69, 0
1, 69240, Note_on_c, 9, 36, 0
1, 69240, Note_on_c, 0, 65, 100
1, 69240, Note_on_c, 0, 43, 100
1, 69240, Note_on_c, 1, 70, 100
1, 69240, Note_on_c, 1, 74, 100
1, 69240, Note_on_c, 2, 43, 100
1, 69240, Note_on_c, 3, 82, 100
1, 69240, Note_on_c, 5, 74, 100
1, 69240, Note_on_c, 5, 70, 100
1, 69240, Note_on_c, 9, 36, 100
1, 69240, Note_on_c, 9, 38, 100
1, 69240, Note_on_c, 9, 46, 100
1, 69300, Note_on_c, 9, 46, 0
1, 69300, Note_on_c, 1, 70, 0
1, 69300, Note_on_c, 5, 70, 0
1, 69300, Note_on_c, 1, 74, 0
1, 69300, Note_on_c, 0, 65, 0
1, 69300, Note_on_c, 2, 43, 0
1, 69300, Note_on_c, 0, 43, 0
1, 69300, Note_on_c, 5, 74, 0
1, 69300, Note_on_c, 3, 82, 0
1, 69300, Note_on_c, 0, 67, 100
1, 69300, Note_on_c, 0, 55, 100
1, 69300, Note_on_c, 3, 82, 100
1, 69300, Note_on_c, 9, 46, 100
1, 69360, Note_on_c, 9, 46, 0
1, 69360, Note_on_c, 9, 36, 0
1, 69360, Note_on_c, 0, 67, 0
1, 69360, Note_on_c, 9, 38, 0
1, 69360, Note_on_c, 3, 82, 0
1, 69360, Note_on_c, 0, 55, 0
1, 69360, Note_on_c, 0, 74, 100
1, 69360, Note_on_c, 0, 69, 100
1, 69360, Note_on_c, 0, 43, 100
1, 69360, Note_on_c, 1, 69, 100
1, 69360, Note_on_c, 2, 43, 100
1, 69360, Note_on_c, 3, 82, 100
1, 69360, Note_on_c, 5, 69, 100
1, 69360, Note_on_c, 9, 36, 100
1, 69360, Note_on_c, 9, 46, 100
1, 69390, Note_on_c, 5, 69, 0
1, 69390, Note_on_c, 0, 69, 0
1, 69390, Note_on_c, 1, 69, 0
1, 69390, Note_on_c, 0, 70, 100
1, 69390, Note_on_c, 1, 70, 100
1, 69390, Note_on_c, 5, 72, 100
1, 69420, Note_on_c, 5, 72, 0
1, 69420, Note_on_c, 9, 46, 0
1, 69420, Note_on_c, 1, 70, 0
1, 69420, Note_on_c, 9, 36, 0
1, 69420, Note_on_c, 2, 43, 0
1, 69420, Note_on_c, 0, 43, 0
1, 69420, Note_on_c, 0, 55, 100
1, 69420, Note_on_c, 1, 67, 100
1, 69420, Note_on_c, 5, 67, 100
1, 69420, Note_on_c, 9, 36, 100
1, 69420, Note_on_c, 9, 46, 100
1, 69450, Note_on_c, 9, 36, 0
1, 69450, Note_on_c, 0, 74, 0
1, 69450, Note_on_c, 1, 67, 0
1, 69450, Note_on_c, 0, 70, 0
1, 69450, Note_on_c, 3, 82, 0
1, 69450, Note_on_c, 5, 67, 0
1, 69450, Note_on_c, 0, 74, 100
1, 69450, Note_on_c, 0, 67, 100
1, 69450, Note_on_c, 1, 65, 100
1, 69450, Note_on_c, 3, 79, 100
1, 69450, Note_on_c, 5, 65, 100
1, 69450, Note_on_c, 9, 36, 100
1, 69480, Note_on_c, 9, 36, 0
1, 69480, Note_on_c, 5, 65, 0
1, 69480, Note_on_c, 9, 46, 0
1, 69480, Note_on_c, 0, 55, 0
1, 69480, Note_on_c, 1, 65, 0
1, 69480, Note_on_c, 0, 43, 100
1, 69480, Note_on_c, 1, 62, 100
1, 69480, Note_on_c, 2, 43, 100
1, 69480, Note_on_c, 5, 62, 100
1, 69480, Note_on_c, 9, 36, 100
1, 69480, Note_on_c, 9, 40, 100
1, 69480, Note_on_c, 9, 46, 100
1, 69510, Note_on_c, 5, 62, 0
1, 69510, Note_on_c, 0, 67, 0
1, 69510, Note_on_c, 0, 74, 0
1, 69510, Note_on_c, 1, 62, 0
1, 69510, Note_on_c, 3, 79, 0
1, 69510, Note_on_c, 0, 65, 100
1, 69510, Note_on_c, 1, 65, 100
1, 69510, Note_on_c, 3, 79, 100
1, 69510, Note_on_c, 5, 65, 100
1, 69540, Note_on_c, 5, 65, 0
1, 69540, Note_on_c, 9, 46, 0
1, 69540, Note_on_c, 3, 79, 0
1, 69540, Note_on_c, 0, 43, 0
1, 69540, Note_on_c, 2, 43, 0
1, 69540, Note_on_c, 1, 65, 0
1, 69540, Note_on_c, 0, 65, 0
1, 69540, Note_on_c, 0, 62, 100
1, 69540, Note_on_c, 0, 55, 100
1, 69540, Note_on_c, 1, 67, 100
1, 69540, Note_on_c, 3, 79, 100
1, 69540, Note_on_c, 5, 67, 100
1, 69540, Note_on_c, 9, 46, 100
1, 69570, Note_on_c, 0, 62, 0
1, 69600, Note_on_c, 9, 36, 0
1, 69600, Note_on_c, 3, 79, 0
1, 69600, Note_on_c, 9, 40, 0
1, 69600, Note_on_c, 0, 55, 0
1, 69600, Note_on_c, 1, 67, 0
1, 69600, Note_on_c, 5, 67, 0
1, 69600, Note_on_c, 9, 46, 0
1, 69600, Note_on_c, 0, 43, 100
1, 69600, Note_on_c, 2, 43, 100
1, 69600, Note_on_c, 3, 79, 100
1, 69600, Note_on_c, 9, 36, 100
1, 69600, Note_on_c, 9, 46, 100
1, 69660, Note_on_c, 9, 46, 0
1, 69660, Note_on_c, 2, 43, 0
1, 69660, Note_on_c, 0, 43, 0
1, 69660, Note_on_c, 9, 36, 0
1, 69660, Note_on_c, 0, 67, 100
1, 69660, Note_on_c, 0, 55, 100
1, 69660, Note_on_c, 1, 69, 100
1, 69660, Note_on_c, 1, 73, 100
1, 69660, Note_on_c, 5, 69, 100
1, 69660, Note_on_c, 5, 73, 100
1, 69660, Note_on_c, 9, 36, 100
1, 69660, Note_on_c, 9, 46, 100
1, 69720, Note_on_c, 9, 46, 0
1, 69720, Note_on_c, 1, 69, 0
1, 69720, Note_on_c, 3, 79, 0
1, 69720, Note_on_c, 1, 73, 0
1, 69720, Note_on_c, 0, 67, 0
1, 69720, Note_on_c, 0, 55, 0
1, 69720, Note_on_c, 5, 73, 0
1, 69720, Note_on_c, 5, 69, 0
1, 69720, Note_on_c, 9, 36, 0
1, 69720, Note_on_c, 0, 65, 100
1, 69720, Note_on_c, 0, 43, 100
1, 69720, Note_on_c, 1, 70, 100
1, 69720, Note_on_c, 1, 74, 100
1, 69720, Note_on_c, 2, 43, 100
1, 69720, Note_on_c, 5, 74, 100
1, 69720, Note_on_c, 5, 70, 100
1, 69720, Note_on_c, 9, 36, 100
1, 69720, Note_on_c, 9, 38, 100
1, 69720, Note_on_c, 9, 46, 100
1, 69780, Note_on_c, 9, 46, 0
1, 69780, Note_on_c, 1, 70, 0
1, 69780, Note_on_c, 5, 70, 0
1, 69780, Note_on_c, 0, 65, 0
1, 69780, Note_on_c, 2, 43, 0
1, 69780, Note_on_c, 0, 43, 0
1, 69780, Note_on_c, 1, 74, 0
1, 69780, Note_on_c, 5, 74, 0
1, 69780, Note_on_c, 0, 67, 100
1, 69780, Note_on_c, 0, 55, 100
1, 69780, Note_on_c, 9, 46, 100
1, 69840, Note_on_c, 9, 46, 0
1, 69840, Note_on_c, 0, 67, 0
1, 69840, Note_on_c, 9, 36, 0
1, 69840, Note_on_c, 9, 38, 0
1, 69840, Note_on_c, 0, 55, 0
1, 69840, Note_on_c, 0, 74, 100
1, 69840, Note_on_c, 0, 69, 100
1, 69840, Note_on_c, 0, 43, 100
1, 69840, Note_on_c, 1, 69, 100
1, 69840, Note_on_c, 2, 43, 100
1, 69840, Note_on_c, 5, 69, 100
1, 69840, Note_on_c, 9, 36, 100
1, 69840, Note_on_c, 9, 46, 100
1, 69870, Note_on_c, 5, 69, 0
1, 69870, Note_on_c, 0, 69, 0
1, 69870, Note_on_c, 1, 69, 0
1, 69870, Note_on_c, 0, 70, 100
1, 69870, Note_on_c, 1, 70, 100
1, 69870, Note_on_c, 5, 72, 100
1, 69900, Note_on_c, 5, 72, 0
1, 69900, Note_on_c, 1, 70, 0
1, 69900, Note_on_c, 9, 36, 0
1, 69900, Note_on_c, 9, 46, 0
1, 69900, Note_on_c, 2, 43, 0
1, 69900, Note_on_c, 0, 43, 0
1, 69900, Note_on_c, 0, 55, 100
1, 69900, Note_on_c, 1, 67, 100
1, 69900, Note_on_c, 5, 67, 100
1, 69900, Note_on_c, 9, 36, 100
1, 69900, Note_on_c, 9, 46, 100
1, 69930, Note_on_c, 9, 36, 0
1, 69930, Note_on_c, 1, 67, 0
1, 69930, Note_on_c, 0, 70, 0
1, 69930, Note_on_c, 0, 74, 0
1, 69930, Note_on_c, 5, 67, 0
1, 69930, Note_on_c, 0, 74, 100
1, 69930, Note_on_c, 0, 65, 100
1, 69930, Note_on_c, 1, 65, 100
1, 69930, Note_on_c, 5, 65, 100
1, 69930, Note_on_c, 9, 36, 100
1, 69960, Note_on_c, 9, 36, 0
1, 69960, Note_on_c, 1, 65, 0
1, 69960, Note_on_c, 9, 46, 0
1, 69960, Note_on_c, 0, 55, 0
1, 69960, Note_on_c, 5, 65, 0
1, 69960, Note_on_c, 0, 43, 100
1, 69960, Note_on_c, 1, 62, 100
1, 69960, Note_on_c, 2, 43, 100
1, 69960, Note_on_c, 5, 62, 100
1, 69960, Note_on_c, 9, 36, 100
1, 69960, Note_on_c, 9, 40, 100
1, 69960, Note_on_c, 9, 46, 100
1, 69990, Note_on_c, 5, 62, 0
1, 69990, Note_on_c, 0, 65, 0
1, 69990, Note_on_c, 0, 74, 0
1, 69990, Note_on_c, 1, 62, 0
1, 69990, Note_on_c, 0, 72, 100
1, 69990, Note_on_c, 0, 65, 100
1, 69990, Note_on_c, 1, 65, 100
1, 69990, Note_on_c, 5, 65, 100
1, 70020, Note_on_c, 5, 65, 0
1, 70020, Note_on_c, 2, 43, 0
1, 70020, Note_on_c, 1, 65, 0
1, 70020, Note_on_c, 0, 72, 0
1, 70020, Note_on_c, 0, 43, 0
1, 70020, Note_on_c, 9, 46, 0
1, 70020, Note_on_c, 0, 70, 100
1, 70020, Note_on_c, 0, 55, 100
1, 70020, Note_on_c, 1, 67, 100
1, 70020, Note_on_c, 5, 67, 100
1, 70020, Note_on_c, 9, 46, 100
1, 70050, Note_on_c, 0, 70, 0
1, 70050, Note_on_c, 0, 65, 0
1, 70050, Note_on_c, 0, 70, 100
1, 70050, Note_on_c, 0, 65, 100
1, 70080, Note_on_c, 0, 65, 0
1, 70080, Note_on_c, 9, 46, 0
1, 70080, Note_on_c, 5, 67, 0
1, 70080, Note_on_c, 9, 36, 0
1, 70080, Note_on_c, 0, 55, 0
1, 70080, Note_on_c, 9, 40, 0
1, 70080, Note_on_c, 1, 67, 0
1, 70080, Note_on_c, 0, 70, 0
1, 70080, Note_on_c, 0, 43, 100
1, 70080, Note_on_c, 2, 43, 100
1, 70080, Note_on_c, 9, 36, 100
1, 70080, Note_on_c, 9, 49, 100
1, 70140, Note_on_c, 9, 49, 0
1, 70140, Note_on_c, 0, 43, 0
1, 70140, Note_on_c, 2, 43, 0
1, 70140, Note_on_c, 9, 36, 0
1, 70140, Note_on_c, 0, 67, 100
1, 70140, Note_on_c, 0, 55, 100
1, 70140, Note_on_c, 1, 69, 100
1, 70140, Note_on_c, 1, 73, 100
1, 70140, Note_on_c, 3, 82, 100
1, 70140, Note_on_c, 5, 69, 100
1, 70140, Note_on_c, 5, 73, 100
1, 70140, Note_on_c, 9, 36, 100
1, 70140, Note_on_c, 9, 46, 100
1, 70200, Note_on_c, 9, 46, 0
1, 70200, Note_on_c, 1, 73, 0
1, 70200, Note_on_c, 0, 67, 0
1, 70200, Note_on_c, 3, 82, 0
1, 70200, Note_on_c, 0, 55, 0
1, 70200, Note_on_c, 1, 69, 0
1, 70200, Note_on_c, 5, 73, 0
1, 70200, Note_on_c, 5, 69, 0
1, 70200, Note_on_c, 9, 36, 0
1, 70200, Note_on_c, 0, 65, 100
1, 70200, Note_on_c, 0, 43, 100
1, 70200, Note_on_c, 1, 70, 100
1, 70200, Note_on_c, 1, 74, 100
1, 70200, Note_on_c, 2, 43, 100
1, 70200, Note_on_c, 3, 82, 100
1, 70200, Note_on_c, 5, 74, 100
1, 70200, Note_on_c, 5, 70, 100
1, 70200, Note_on_c, 9, 40, 100
1, 70200, Note_on_c, 9, 36, 100
1, 70200, Note_on_c, 9, 46, 100
1, 70260, Note_on_c, 9, 46, 0
1, 70260, Note_on_c, 1, 70, 0
1, 70260, Note_on_c, 5, 70, 0
1, 70260, Note_on_c, 1, 74, 0
1, 70260, Note_on_c, 0, 65, 0
1, 70260, Note_on_c, 2, 43, 0
1, 70260, Note_on_c, 0, 43, 0
1, 70260, Note_on_c, 5, 74, 0
1, 70260, Note_on_c, 3, 82, 0
1, 70260, Note_on_c, 0, 67, 100
1, 70260, Note_on_c, 0, 55, 100
1, 70260, Note_on_c, 3, 82, 100
1, 70260, Note_on_c, 9, 46, 100
1, 70320, Note_on_c, 9, 46, 0
1, 70320, Note_on_c, 9, 40, 0
1, 70320, Note_on_c, 0, 67, 0
1, 70320, Note_on_c, 9, 36, 0
1, 70320, Note_on_c, 3, 82, 0
1, 70320, Note_on_c, 0, 55, 0
1, 70320, Note_on_c, 0, 74, 100
1, 70320, Note_on_c, 0, 69, 100
1, 70320, Note_on_c, 0, 43, 100
1, 70320, Note_on_c, 1, 69, 100
1, 70320, Note_on_c, 2, 43, 100
1, 70320, Note_on_c, 3, 82, 100
1, 70320, Note_on_c, 5, 69, 100
1, 70320, Note_on_c, 9, 36, 100
1, 70320, Note_on_c, 9, 46, 100
1, 70350, Note_on_c, 5, 69, 0
1, 70350, Note_on_c, 0, 69, 0
1, 70350, Note_on_c, 1, 69, 0
1, 70350, Note_on_c, 0, 70, 100
1, 70350, Note_on_c, 1, 70, 100
1, 70350, Note_on_c, 5, 72, 100
1, 70380, Note_on_c, 5, 72, 0
1, 70380, Note_on_c, 9, 46, 0
1, 70380, Note_on_c, 1, 70, 0
1, 70380, Note_on_c, 9, 36, 0
1, 70380, Note_on_c, 2, 43, 0
1, 70380, Note_on_c, 0, 43, 0
1, 70380, Note_on_c, 0, 55, 100
1, 70380, Note_on_c, 1, 67, 100
1, 70380, Note_on_c, 5, 67, 100
1, 70380, Note_on_c, 9, 36, 100
1, 70380, Note_on_c, 9, 46, 100
1, 70410, Note_on_c, 9, 36, 0
1, 70410, Note_on_c, 0, 74, 0
1, 70410, Note_on_c, 1, 67, 0
1, 70410, Note_on_c, 0, 70, 0
1, 70410, Note_on_c, 3, 82, 0
1, 70410, Note_on_c, 5, 67, 0
1, 70410, Note_on_c, 0, 74, 100
1, 70410, Note_on_c, 0, 67, 100
1, 70410, Note_on_c, 1, 65, 100
1, 70410, Note_on_c, 3, 79, 100
1, 70410, Note_on_c, 5, 65, 100
1, 70410, Note_on_c, 9, 36, 100
1, 70440, Note_on_c, 9, 36, 0
1, 70440, Note_on_c, 5, 65, 0
1, 70440, Note_on_c, 9, 46, 0
1, 70440, Note_on_c, 0, 55, 0
1, 70440, Note_on_c, 1, 65, 0
1, 70440, Note_on_c, 0, 43, 100
1, 70440, Note_on_c, 1, 62, 100
1, 70440, Note_on_c, 2, 43, 100
1, 70440, Note_on_c, 5, 62, 100
1, 70440, Note_on_c, 9, 36, 100
1, 70440, Note_on_c, 9, 38, 100
1, 70440, Note_on_c, 9, 46, 100
1, 70470, Note_on_c, 5, 62, 0
1, 70470, Note_on_c, 0, 67, 0
1, 70470, Note_on_c, 0, 74, 0
1, 70470, Note_on_c, 1, 62, 0
1, 70470, Note_on_c, 3, 79, 0
1, 70470, Note_on_c, 0, 65, 100
1, 70470, Note_on_c, 1, 65, 100
1, 70470, Note_on_c, 3, 79, 100
1, 70470, Note_on_c, 5, 65, 100
1, 70500, Note_on_c, 5, 65, 0
1, 70500, Note_on_c, 9, 46, 0
1, 70500, Note_on_c, 3, 79, 0
1, 70500, Note_on_c, 0, 43, 0
1, 70500, Note_on_c, 2, 43, 0
1, 70500, Note_on_c, 1, 65, 0
1, 70500, Note_on_c, 0, 65, 0
1, 70500, Note_on_c, 0, 62, 100
1, 70500, Note_on_c, 0, 55, 100
1, 70500, Note_on_c, 1, 67, 100
1, 70500, Note_on_c, 3, 79, 100
1, 70500, Note_on_c, 5, 67, 100
1, 70500, Note_on_c, 9, 46, 100
1, 70530, Note_on_c, 0, 62, 0
1, 70560, Note_on_c, 9, 36, 0
1, 70560, Note_on_c, 3, 79, 0
1, 70560, Note_on_c, 9, 38, 0
1, 70560, Note_on_c, 0, 55, 0
1, 70560, Note_on_c, 1, 67, 0
1, 70560, Note_on_c, 5, 67, 0
1, 70560, Note_on_c, 9, 46, 0
1, 70560, Note_on_c, 0, 43, 100
1, 70560, Note_on_c, 2, 43, 100
1, 70560, Note_on_c, 3, 79, 100
1, 70560, Note_on_c, 9, 36, 100
1, 70560, Note_on_c, 9, 46, 100
1, 70620, Note_on_c, 9, 46, 0
1, 70620, Note_on_c, 2, 43, 0
1, 70620, Note_on_c, 0, 43, 0
1, 70620, Note_on_c, 9, 36, 0
1, 70620, Note_on_c, 0, 67, 100
1, 70620, Note_on_c, 0, 55, 100
1, 70620, Note_on_c, 1, 69, 100
1, 70620, Note_on_c, 1, 73, 100
1, 70620, Note_on_c, 5, 69, 100
1, 70620, Note_on_c, 5, 73, 100
1, 70620, Note_on_c, 9, 36, 100
1, 70620, Note_on_c, 9, 46, 100
1, 70680, Note_on_c, 9, 46, 0
1, 70680, Note_on_c, 1, 69, 0
1, 70680, Note_on_c, 3, 79, 0
1, 70680, Note_on_c, 1, 73, 0
1, 70680, Note_on_c, 0, 67, 0
1, 70680, Note_on_c, 0, 55, 0
1, 70680, Note_on_c, 5, 73, 0
1, 70680, Note_on_c, 5, 69, 0
1, 70680, Note_on_c, 9, 36, 0
1, 70680, Note_on_c, 0, 65, 100
1, 70680, Note_on_c, 0, 43, 100
1, 70680, Note_on_c, 1, 70, 100
1, 70680, Note_on_c, 1, 74, 100
1, 70680, Note_on_c, 2, 43, 100
1, 70680, Note_on_c, 5, 74, 100
1, 70680, Note_on_c, 5, 70, 100
1, 70680, Note_on_c, 9, 36, 100
1, 70680, Note_on_c, 9, 38, 100
1, 70680, Note_on_c, 9, 46, 100
1, 70740, Note_on_c, 9, 46, 0
1, 70740, Note_on_c, 1, 70, 0
1, 70740, Note_on_c, 5, 70, 0
1, 70740, Note_on_c, 0, 65, 0
1, 70740, Note_on_c, 2, 43, 0
1, 70740, Note_on_c, 0, 43, 0
1, 70740, Note_on_c, 1, 74, 0
1, 70740, Note_on_c, 5, 74, 0
1, 70740, Note_on_c, 0, 67, 100
1, 70740, Note_on_c, 0, 55, 100
1, 70740, Note_on_c, 9, 46, 100
1, 70800, Note_on_c, 9, 46, 0
1, 70800, Note_on_c, 0, 67, 0
1, 70800, Note_on_c, 9, 36, 0
1, 70800, Note_on_c, 9, 38, 0
1, 70800, Note_on_c, 0, 55, 0
1, 70800, Note_on_c, 0, 74, 100
1, 70800, Note_on_c, 0, 69, 100
1, 70800, Note_on_c, 0, 43, 100
1, 70800, Note_on_c, 1, 69, 100
1, 70800, Note_on_c, 2, 43, 100
1, 70800, Note_on_c, 5, 69, 100
1, 70800, Note_on_c, 9, 36, 100
1, 70800, Note_on_c, 9, 46, 100
1, 70830, Note_on_c, 5, 69, 0
1, 70830, Note_on_c, 0, 69, 0
1, 70830, Note_on_c, 1, 69, 0
1, 70830, Note_on_c, 0, 70, 100
1, 70830, Note_on_c, 1, 70, 100
1, 70830, Note_on_c, 5, 72, 100
1, 70860, Note_on_c, 5, 72, 0
1, 70860, Note_on_c, 1, 70, 0
1, 70860, Note_on_c, 9, 36, 0
1, 70860, Note_on_c, 9, 46, 0
1, 70860, Note_on_c, 2, 43, 0
1, 70860, Note_on_c, 0, 43, 0
1, 70860, Note_on_c, 0, 55, 100
1, 70860, Note_on_c, 1, 67, 100
1, 70860, Note_on_c, 5, 67, 100
1, 70860, Note_on_c, 9, 36, 100
1, 70860, Note_on_c, 9, 46, 100
1, 70890, Note_on_c, 9, 36, 0
1, 70890, Note_on_c, 1, 67, 0
1, 70890, Note_on_c, 0, 70, 0
1, 70890, Note_on_c, 0, 74, 0
1, 70890, Note_on_c, 5, 67, 0
1, 70890, Note_on_c, 0, 74, 100
1, 70890, Note_on_c, 0, 65, 100
1, 70890, Note_on_c, 1, 65, 100
1, 70890, Note_on_c, 5, 65, 100
1, 70890, Note_on_c, 9, 36, 100
1, 70920, Note_on_c, 9, 36, 0
1, 70920, Note_on_c, 1, 65, 0
1, 70920, Note_on_c, 9, 46, 0
1, 70920, Note_on_c, 0, 55, 0
1, 70920, Note_on_c, 5, 65, 0
1, 70920, Note_on_c, 0, 43, 100
1, 70920, Note_on_c, 1, 62, 100
1, 70920, Note_on_c, 2, 43, 100
1, 70920, Note_on_c, 5, 62, 100
1, 70920, Note_on_c, 9, 36, 100
1, 70920, Note_on_c, 9, 40, 100
1, 70920, Note_on_c, 9, 46, 100
1, 70950, Note_on_c, 5, 62, 0
1, 70950, Note_on_c, 0, 65, 0
1, 70950, Note_on_c, 0, 74, 0
1, 70950, Note_on_c, 1, 62, 0
1, 70950, Note_on_c, 0, 72, 100
1, 70950, Note_on_c, 0, 65, 100
1, 70950, Note_on_c, 1, 65, 100
1, 70950, Note_on_c, 5, 65, 100
1, 70980, Note_on_c, 5, 65, 0
1, 70980, Note_on_c, 2, 43, 0
1, 70980, Note_on_c, 1, 65, 0
1, 70980, Note_on_c, 0, 72, 0
1, 70980, Note_on_c, 0, 43, 0
1, 70980, Note_on_c, 9, 46, 0
1, 70980, Note_on_c, 0, 70, 100
1, 70980, Note_on_c, 0, 55, 100
1, 70980, Note_on_c, 1, 67, 100
1, 70980, Note_on_c, 5, 67, 100
1, 70980, Note_on_c, 9, 46, 100
1, 71010, Note_on_c, 0, 70, 0
1, 71010, Note_on_c, 0, 65, 0
1, 71010, Note_on_c, 0, 70, 100
1, 71010, Note_on_c, 0, 65, 100
1, 71040, Note_on_c, 0, 65, 0
1, 71040, Note_on_c, 9, 46, 0
1, 71040, Note_on_c, 5, 67, 0
1, 71040, Note_on_c, 9, 36, 0
1, 71040, Note_on_c, 0, 55, 0
1, 71040, Note_on_c, 9, 40, 0
1, 71040, Note_on_c, 1, 67, 0
1, 71040, Note_on_c, 0, 70, 0
1, 71040, Note_on_c, 0, 43, 100
1, 71040, Note_on_c, 2, 43, 100
1, 71040, Note_on_c, 9, 36, 100
1, 71040, Note_on_c, 9, 46, 100
1, 71100, Note_on_c, 9, 46, 0
1, 71100, Note_on_c, 0, 43, 0
1, 71100, Note_on_c, 2, 43, 0
1, 71100, Note_on_c, 9, 36, 0
1, 71100, Note_on_c, 0, 67, 100
1, 71100, Note_on_c, 0, 55, 100
1, 71100, Note_on_c, 1, 69, 100
1, 71100, Note_on_c, 1, 73, 100
1, 71100, Note_on_c, 3, 82, 100
1, 71100, Note_on_c, 5, 69, 100
1, 71100, Note_on_c, 5, 73, 100
1, 71100, Note_on_c, 9, 36, 100
1, 71100, Note_on_c, 9, 46, 100
1, 71160, Note_on_c, 9, 46, 0
1, 71160, Note_on_c, 1, 73, 0
1, 71160, Note_on_c, 0, 67, 0
1, 71160, Note_on_c, 3, 82, 0
1, 71160, Note_on_c, 0, 55, 0
1, 71160, Note_on_c, 1, 69, 0
1, 71160, Note_on_c, 5, 73, 0
1, 71160, Note_on_c, 5, 69, 0
1, 71160, Note_on_c, 9, 36, 0
1, 71160, Note_on_c, 0, 65, 100
1, 71160, Note_on_c, 0, 43, 100
1, 71160, Note_on_c, 1, 70, 100
1, 71160, Note_on_c, 1, 74, 100
1, 71160, Note_on_c, 2, 43, 100
1, 71160, Note_on_c, 3, 82, 100
1, 71160, Note_on_c, 5, 74, 100
1, 71160, Note_on_c, 5, 70, 100
1, 71160, Note_on_c, 9, 36, 100
1, 71160, Note_on_c, 9, 38, 100
1, 71160, Note_on_c, 9, 46, 100
1, 71220, Note_on_c, 9, 46, 0
1, 71220, Note_on_c, 1, 70, 0
1, 71220, Note_on_c, 5, 70, 0
1, 71220, Note_on_c, 1, 74, 0
1, 71220, Note_on_c, 0, 65, 0
1, 71220, Note_on_c, 2, 43, 0
1, 71220, Note_on_c, 0, 43, 0
1, 71220, Note_on_c, 5, 74, 0
1, 71220, Note_on_c, 3, 82, 0
1, 71220, Note_on_c, 0, 67, 100
1, 71220, Note_on_c, 0, 55, 100
1, 71220, Note_on_c, 3, 82, 100
1, 71220, Note_on_c, 9, 46, 100
1, 71280, Note_on_c, 9, 46, 0
1, 71280, Note_on_c, 9, 36, 0
1, 71280, Note_on_c, 0, 67, 0
1, 71280, Note_on_c, 9, 38, 0
1, 71280, Note_on_c, 3, 82, 0
1, 71280, Note_on_c, 0, 55, 0
1, 71280, Note_on_c, 0, 74, 100
1, 71280, Note_on_c, 0, 69, 100
1, 71280, Note_on_c, 0, 43, 100
1, 71280, Note_on_c, 1, 69, 100
1, 71280, Note_on_c, 2, 43, 100
1, 71280, Note_on_c, 3, 82, 100
1, 71280, Note_on_c, 5, 69, 100
1, 71280, Note_on_c, 9, 36, 100
1, 71280, Note_on_c, 9, 46, 100
1, 71310, Note_on_c, 5, 69, 0
1, 71310, Note_on_c, 0, 69, 0
1, 71310, Note_on_c, 1, 69, 0
1, 71310, Note_on_c, 0, 70, 100
1, 71310, Note_on_c, 1, 70, 100
1, 71310, Note_on_c, 5, 72, 100
1, 71340, Note_on_c, 5, 72, 0
1, 71340, Note_on_c, 9, 46, 0
1, 71340, Note_on_c, 1, 70, 0
1, 71340, Note_on_c, 9, 36, 0
1, 71340, Note_on_c, 2, 43, 0
1, 71340, Note_on_c, 0, 43, 0
1, 71340, Note_on_c, 0, 55, 100
1, 71340, Note_on_c, 1, 67, 100
1, 71340, Note_on_c, 5, 67, 100
1, 71340, Note_on_c, 9, 36, 100
1, 71340, Note_on_c, 9, 46, 100
1, 71370, Note_on_c, 9, 36, 0
1, 71370, Note_on_c, 0, 74, 0
1, 71370, Note_on_c, 1, 67, 0
1, 71370, Note_on_c, 0, 70, 0
1, 71370, Note_on_c, 3, 82, 0
1, 71370, Note_on_c, 5, 67, 0
1, 71370, Note_on_c, 0, 74, 100
1, 71370, Note_on_c, 0, 67, 100
1, 71370, Note_on_c, 1, 65, 100
1, 71370, Note_on_c, 3, 79, 100
1, 71370, Note_on_c, 5, 65, 100
1, 71370, Note_on_c, 9, 36, 100
1, 71400, Note_on_c, 9, 36, 0
1, 71400, Note_on_c, 5, 65, 0
1, 71400, Note_on_c, 9, 46, 0
1, 71400, Note_on_c, 0, 55, 0
1, 71400, Note_on_c, 1, 65, 0
1, 71400, Note_on_c, 0, 43, 100
1, 71400, Note_on_c, 1, 62, 100
1, 71400, Note_on_c, 2, 43, 100
1, 71400, Note_on_c, 5, 62, 100
1, 71400, Note_on_c, 9, 36, 100
1, 71400, Note_on_c, 9, 40, 100
1, 71400, Note_on_c, 9, 46, 100
1, 71430, Note_on_c, 5, 62, 0
1, 71430, Note_on_c, 0, 67, 0
1, 71430, Note_on_c, 0, 74, 0
1, 71430, Note_on_c, 1, 62, 0
1, 71430, Note_on_c, 3, 79, 0
1, 71430, Note_on_c, 0, 65, 100
1, 71430, Note_on_c, 1, 65, 100
1, 71430, Note_on_c, 3, 79, 100
1, 71430, Note_on_c, 5, 65, 100
1, 71460, Note_on_c, 5, 65, 0
1, 71460, Note_on_c, 9, 46, 0
1, 71460, Note_on_c, 3, 79, 0
1, 71460, Note_on_c, 0, 43, 0
1, 71460, Note_on_c, 2, 43, 0
1, 71460, Note_on_c, 1, 65, 0
1, 71460, Note_on_c, 0, 65, 0
1, 71460, Note_on_c, 0, 62, 100
1, 71460, Note_on_c, 0, 55, 100
1, 71460, Note_on_c, 1, 67, 100
1, 71460, Note_on_c, 3, 79, 100
1, 71460, Note_on_c, 5, 67, 100
1, 71460, Note_on_c, 9, 46, 100
1, 71490, Note_on_c, 0, 62, 0
1, 71520, Note_on_c, 9, 36, 0
1, 71520, Note_on_c, 3, 79, 0
1, 71520, Note_on_c, 9, 40, 0
1, 71520, Note_on_c, 0, 55, 0
1, 71520, Note_on_c, 1, 67, 0
1, 71520, Note_on_c, 5, 67, 0
1, 71520, Note_on_c, 9, 46, 0
1, 71520, Note_on_c, 0, 43, 100
1, 71520, Note_on_c, 2, 43, 100
1, 71520, Note_on_c, 3, 79, 100
1, 71520, Note_on_c, 9, 36, 100
1, 71520, Note_on_c, 9, 46, 100
1, 71580, Note_on_c, 9, 46, 0
1, 71580, Note_on_c, 2, 43, 0
1, 71580, Note_on_c, 0, 43, 0
1, 71580, Note_on_c, 9, 36, 0
1, 71580, Note_on_c, 0, 67, 100
1, 71580, Note_on_c, 0, 55, 100
1, 71580, Note_on_c, 1, 69, 100
1, 71580, Note_on_c, 1, 73, 100
1, 71580, Note_on_c, 5, 69, 100
1, 71580, Note_on_c, 5, 73, 100
1, 71580, Note_on_c, 9, 36, 100
1, 71580, Note_on_c, 9, 46, 100
1, 71640, Note_on_c, 9, 46, 0
1, 71640, Note_on_c, 1, 69, 0
1, 71640, Note_on_c, 3, 79, 0
1, 71640, Note_on_c, 1, 73, 0
1, 71640, Note_on_c, 0, 67, 0
1, 71640, Note_on_c, 0, 55, 0
1, 71640, Note_on_c, 5, 73, 0
1, 71640, Note_on_c, 5, 69, 0
1, 71640, Note_on_c, 9, 36, 0
1, 71640, Note_on_c, 0, 65, 100
1, 71640, Note_on_c, 0, 43, 100
1, 71640, Note_on_c, 1, 70, 100
1, 71640, Note_on_c, 1, 74, 100
1, 71640, Note_on_c, 2, 43, 100
1, 71640, Note_on_c, 5, 74, 100
1, 71640, Note_on_c, 5, 70, 100
1, 71640, Note_on_c, 9, 36, 100
1, 71640, Note_on_c, 9, 38, 100
1, 71640, Note_on_c, 9, 46, 100
1, 71700, Note_on_c, 9, 46, 0
1, 71700, Note_on_c, 1, 70, 0
1, 71700, Note_on_c, 5, 70, 0
1, 71700, Note_on_c, 0, 65, 0
1, 71700, Note_on_c, 2, 43, 0
1, 71700, Note_on_c, 0, 43, 0
1, 71700, Note_on_c, 1, 74, 0
1, 71700, Note_on_c, 5, 74, 0
1, 71700, Note_on_c, 0, 67, 100
1, 71700, Note_on_c, 0, 55, 100
1, 71700, Note_on_c, 9, 46, 100
1, 71760, Note_on_c, 9, 46, 0
1, 71760, Note_on_c, 0, 67, 0
1, 71760, Note_on_c, 9, 36, 0
1, 71760, Note_on_c, 9, 38, 0
1, 71760, Note_on_c, 0, 55, 0
1, 71760, Note_on_c, 0, 74, 100
1, 71760, Note_on_c, 0, 69, 100
1, 71760, Note_on_c, 0, 43, 100
1, 71760, Note_on_c, 1, 69, 100
1, 71760, Note_on_c, 2, 43, 100
1, 71760, Note_on_c, 5, 69, 100
1, 71760, Note_on_c, 9, 36, 100
1, 71760, Note_on_c, 9, 46, 100
1, 71790, Note_on_c, 5, 69, 0
1, 71790, Note_on_c, 0, 69, 0
1, 71790, Note_on_c, 1, 69, 0
1, 71790, Note_on_c, 0, 70, 100
1, 71790, Note_on_c, 1, 70, 100
1, 71790, Note_on_c, 5, 72, 100
1, 71820, Note_on_c, 5, 72, 0
1, 71820, Note_on_c, 1, 70, 0
1, 71820, Note_on_c, 9, 36, 0
1, 71820, Note_on_c, 9, 46, 0
1, 71820, Note_on_c, 2, 43, 0
1, 71820, Note_on_c, 0, 43, 0
1, 71820, Note_on_c, 0, 55, 100
1, 71820, Note_on_c, 1, 67, 100
1, 71820, Note_on_c, 5, 67, 100
1, 71820, Note_on_c, 9, 36, 100
1, 71820, Note_on_c, 9, 46, 100
1, 71850, Note_on_c, 9, 36, 0
1, 71850, Note_on_c, 1, 67, 0
1, 71850, Note_on_c, 0, 70, 0
1, 71850, Note_on_c, 0, 74, 0
1, 71850, Note_on_c, 5, 67, 0
1, 71850, Note_on_c, 0, 74, 100
1, 71850, Note_on_c, 0, 65, 100
1, 71850, Note_on_c, 1, 65, 100
1, 71850, Note_on_c, 5, 65, 100
1, 71850, Note_on_c, 9, 36, 100
1, 71880, Note_on_c, 9, 36, 0
1, 71880, Note_on_c, 1, 65, 0
1, 71880, Note_on_c, 9, 46, 0
1, 71880, Note_on_c, 0, 55, 0
1, 71880, Note_on_c, 5, 65, 0
1, 71880, Note_on_c, 0, 43, 100
1, 71880, Note_on_c, 1, 62, 100
1, 71880, Note_on_c, 2, 43, 100
1, 71880, Note_on_c, 5, 62, 100
1, 71880, Note_on_c, 9, 36, 100
1, 71880, Note_on_c, 9, 40, 100
1, 71880, Note_on_c, 9, 46, 100
1, 71910, Note_on_c, 5, 62, 0
1, 71910, Note_on_c, 0, 65, 0
1, 71910, Note_on_c, 0, 74, 0
1, 71910, Note_on_c, 1, 62, 0
1, 71910, Note_on_c, 0, 72, 100
1, 71910, Note_on_c, 0, 65, 100
1, 71910, Note_on_c, 1, 65, 100
1, 71910, Note_on_c, 5, 65, 100
1, 71940, Note_on_c, 5, 65, 0
1, 71940, Note_on_c, 2, 43, 0
1, 71940, Note_on_c, 1, 65, 0
1, 71940, Note_on_c, 0, 72, 0
1, 71940, Note_on_c, 0, 43, 0
1, 71940, Note_on_c, 9, 46, 0
1, 71940, Note_on_c, 0, 70, 100
1, 71940, Note_on_c, 0, 55, 100
1, 71940, Note_on_c, 1, 67, 100
1, 71940, Note_on_c, 5, 67, 100
1, 71940, Note_on_c, 9, 46, 100
1, 71970, Note_on_c, 0, 70, 0
1, 71970, Note_on_c, 0, 65, 0
1, 71970, Note_on_c, 0, 70, 100
1, 71970, Note_on_c, 0, 65, 100
1, 72000, Note_on_c, 0, 65, 0
1, 72000, Note_on_c, 9, 46, 0
1, 72000, Note_on_c, 5, 67, 0
1, 72000, Note_on_c, 9, 36, 0
1, 72000, Note_on_c, 0, 55, 0
1, 72000, Note_on_c, 9, 40, 0
1, 72000, Note_on_c, 1, 67, 0
1, 72000, Note_on_c, 0, 70, 0
1, 72000, Note_on_c, 0, 67, 100
1, 72000, Note_on_c, 0, 74, 100
1, 72000, Note_on_c, 1, 67, 100
1, 72000, Note_on_c, 1, 74, 100
1, 72000, Note_on_c, 2, 43, 100
1, 72000, Note_on_c, 5, 67, 100
1, 72000, Note_on_c, 5, 74, 100
1, 72000, Note_on_c, 9, 36, 100
1, 72000, Note_on_c, 9, 49, 100
1, 72480, Note_on_c, 9, 49, 0
1, 72480, Note_on_c, 1, 74, 0
1, 72480, Note_on_c, 0, 67, 0
1, 72480, Note_on_c, 2, 43, 0
1, 72480, Note_on_c, 0, 74, 0
1, 72480, Note_on_c, 1, 67, 0
1, 72480, Note_on_c, 5, 74, 0
1, 72480, Note_on_c, 5, 67, 0
1, 72480, Note_on_c, 9, 36, 0
1, 72480, End_track
0, 0, End_of_file
