0, 0, Header, 1, 22, 120
1, 0, Start_track
1, 0, Sequencer_specific, 3, 0, 0, 65
1, 0, SMPTE_offset, 96, 0, 3, 0, 0
1, 0, MIDI_port, 0
1, 0, Tempo, 300000
1, 0, Time_signature, 4, 2, 48, 8
1, 0, Key_signature, 0, "major"
1, 480, Tempo, 845070
1, 35988, Tempo, 461538
1, 36466, Tempo, 845070
1, 36466, End_track
2, 0, Start_track
2, 0, Title_t, "When the Levee Breaks - Led Zeppelin"
2, 0, MIDI_port, 0
2, 0, End_track
3, 0, Start_track
3, 0, Title_t, " "
3, 0, Instrument_name_t, "SysEx - Roland GS, SCx-55x"
3, 0, MIDI_port, 0
3, 0, System_exclusive, 10, 65, 16, 66, 18, 64, 0, 127, 0, 65, 247
3, 10, System_exclusive, 10, 65, 16, 66, 18, 64, 1, 48, 3, 12, 247
3, 20, System_exclusive, 10, 65, 16, 66, 18, 64, 1, 50, 2, 11, 247
3, 30, System_exclusive, 10, 65, 16, 66, 18, 64, 1, 51, 65, 75, 247
3, 40, System_exclusive, 10, 65, 16, 66, 18, 64, 1, 52, 74, 65, 247
3, 50, System_exclusive, 10, 65, 16, 66, 18, 64, 1, 59, 11, 121, 247
3, 60, System_exclusive, 10, 65, 16, 66, 18, 64, 1, 60, 63, 68, 247
3, 70, System_exclusive, 10, 65, 16, 66, 18, 64, 1, 61, 4, 126, 247
3, 80, System_exclusive, 10, 65, 16, 66, 18, 64, 16, 20, 2, 26, 247
3, 90, System_exclusive, 10, 65, 16, 66, 18, 64, 16, 34, 48, 94, 247
3, 100, System_exclusive, 10, 65, 16, 66, 18, 64, 16, 51, 65, 60, 247
3, 110, System_exclusive, 10, 65, 16, 66, 18, 64, 18, 26, 59, 89, 247
3, 120, System_exclusive, 10, 65, 16, 66, 18, 64, 18, 49, 66, 59, 247
3, 130, System_exclusive, 10, 65, 16, 66, 18, 64, 18, 52, 63, 59, 247
3, 140, System_exclusive, 10, 65, 16, 66, 18, 64, 18, 53, 70, 51, 247
3, 150, System_exclusive, 10, 65, 16, 66, 18, 64, 18, 54, 73, 47, 247
3, 160, System_exclusive, 10, 65, 16, 66, 18, 64, 19, 27, 69, 77, 247
3, 170, System_exclusive, 10, 65, 16, 66, 18, 64, 19, 48, 65, 60, 247
3, 180, System_exclusive, 10, 65, 16, 66, 18, 64, 19, 49, 67, 57, 247
3, 190, System_exclusive, 10, 65, 16, 66, 18, 64, 19, 52, 65, 56, 247
3, 200, System_exclusive, 10, 65, 16, 66, 18, 64, 19, 53, 66, 54, 247
3, 210, System_exclusive, 10, 65, 16, 66, 18, 64, 19, 54, 68, 51, 247
3, 220, System_exclusive, 10, 65, 16, 66, 18, 64, 19, 55, 66, 52, 247
3, 230, System_exclusive, 10, 65, 16, 66, 18, 64, 20, 20, 2, 22, 247
3, 240, System_exclusive, 10, 65, 16, 66, 18, 64, 20, 27, 73, 72, 247
3, 250, System_exclusive, 10, 65, 16, 66, 18, 64, 20, 49, 65, 58, 247
3, 260, System_exclusive, 10, 65, 16, 66, 18, 64, 20, 51, 65, 56, 247
3, 270, System_exclusive, 10, 65, 16, 66, 18, 64, 20, 52, 63, 57, 247
3, 280, System_exclusive, 10, 65, 16, 66, 18, 64, 20, 53, 78, 41, 247
3, 290, System_exclusive, 10, 65, 16, 66, 18, 64, 20, 54, 88, 30, 247
3, 300, System_exclusive, 10, 65, 16, 66, 18, 64, 20, 55, 70, 47, 247
3, 310, System_exclusive, 10, 65, 16, 66, 18, 64, 21, 34, 70, 67, 247
3, 320, System_exclusive, 10, 65, 16, 66, 18, 64, 21, 52, 63, 56, 247
3, 330, System_exclusive, 10, 65, 16, 66, 18, 64, 21, 53, 67, 51, 247
3, 340, System_exclusive, 10, 65, 16, 66, 18, 64, 21, 54, 63, 54, 247
3, 350, System_exclusive, 10, 65, 16, 66, 18, 64, 22, 49, 66, 55, 247
3, 360, System_exclusive, 10, 65, 16, 66, 18, 64, 22, 53, 71, 46, 247
3, 370, System_exclusive, 10, 65, 16, 66, 18, 64, 22, 54, 69, 47, 247
3, 380, System_exclusive, 10, 65, 16, 66, 18, 64, 22, 55, 65, 50, 247
3, 380, End_track
4, 0, Start_track
4, 0, Title_t, "Vocal"
4, 0, Instrument_name_t, "Fretless Bass"
4, 0, MIDI_port, 0
4, 480, Control_c, 1, 7, 108
4, 480, Control_c, 1, 93, 53
4, 480, Control_c, 1, 91, 86
4, 480, Control_c, 1, 10, 47
4, 480, Control_c, 1, 32, 0
4, 480, Control_c, 1, 0, 0
4, 480, Program_c, 1, 35
4, 480, Control_c, 1, 65, 127
4, 480, Control_c, 1, 5, 20
4, 12900, Note_on_c, 1, 75, 100
4, 12930, Note_on_c, 1, 75, 0
4, 12930, Note_on_c, 1, 72, 100
4, 12960, Note_on_c, 1, 72, 0
4, 12960, Note_on_c, 1, 77, 100
4, 12990, Note_on_c, 1, 77, 0
4, 12990, Note_on_c, 1, 77, 100
4, 13050, Note_on_c, 1, 77, 0
4, 13050, Note_on_c, 1, 79, 100
4, 13199, Note_on_c, 1, 79, 0
4, 13200, Note_on_c, 1, 77, 100
4, 13230, Note_on_c, 1, 77, 0
4, 13230, Note_on_c, 1, 77, 100
4, 13290, Note_on_c, 1, 77, 0
4, 13290, Note_on_c, 1, 77, 100
4, 13380, Note_on_c, 1, 77, 0
4, 13380, Note_on_c, 1, 72, 100
4, 13410, Note_on_c, 1, 72, 0
4, 13410, Note_on_c, 1, 72, 100
4, 13679, Note_on_c, 1, 72, 0
4, 13860, Note_on_c, 1, 75, 100
4, 13890, Note_on_c, 1, 75, 0
4, 13890, Note_on_c, 1, 75, 100
4, 13920, Note_on_c, 1, 75, 0
4, 13920, Note_on_c, 1, 77, 100
4, 13950, Note_on_c, 1, 77, 0
4, 13950, Note_on_c, 1, 77, 100
4, 14010, Note_on_c, 1, 77, 0
4, 14010, Note_on_c, 1, 80, 100
4, 14070, Note_on_c, 1, 80, 0
4, 14070, Note_on_c, 1, 77, 100
4, 14160, Note_on_c, 1, 77, 0
4, 14160, Note_on_c, 1, 77, 100
4, 14190, Note_on_c, 1, 77, 0
4, 14190, Note_on_c, 1, 77, 100
4, 14250, Note_on_c, 1, 77, 0
4, 14250, Note_on_c, 1, 77, 100
4, 14340, Note_on_c, 1, 77, 0
4, 14340, Note_on_c, 1, 72, 100
4, 14370, Note_on_c, 1, 72, 0
4, 14370, Note_on_c, 1, 72, 100
4, 14639, Note_on_c, 1, 72, 0
4, 14820, Note_on_c, 1, 68, 100
4, 14850, Note_on_c, 1, 68, 0
4, 14850, Note_on_c, 1, 70, 100
4, 14880, Note_on_c, 1, 70, 0
4, 14880, Note_on_c, 1, 72, 100
4, 14910, Note_on_c, 1, 72, 0
4, 14910, Note_on_c, 1, 72, 100
4, 14970, Note_on_c, 1, 72, 0
4, 14970, Note_on_c, 1, 72, 100
4, 15119, Note_on_c, 1, 72, 0
4, 15120, Note_on_c, 1, 68, 100
4, 15150, Note_on_c, 1, 68, 0
4, 15150, Note_on_c, 1, 72, 100
4, 15210, Note_on_c, 1, 72, 0
4, 15210, Note_on_c, 1, 68, 100
4, 15300, Note_on_c, 1, 68, 0
4, 15300, Note_on_c, 1, 65, 100
4, 15330, Note_on_c, 1, 65, 0
4, 15330, Note_on_c, 1, 65, 100
4, 15719, Note_on_c, 1, 65, 0
4, 16320, Note_on_c, 1, 77, 100
4, 16350, Note_on_c, 1, 77, 0
4, 16350, Note_on_c, 1, 77, 100
4, 16380, Note_on_c, 1, 77, 0
4, 16380, Note_on_c, 1, 75, 100
4, 16410, Note_on_c, 1, 75, 0
4, 16410, Note_on_c, 1, 77, 100
4, 16440, Note_on_c, 1, 77, 0
4, 16440, Note_on_c, 1, 80, 100
4, 16470, Note_on_c, 1, 80, 0
4, 16470, Note_on_c, 1, 77, 100
4, 16560, Note_on_c, 1, 77, 0
4, 16560, Note_on_c, 1, 77, 100
4, 16590, Note_on_c, 1, 77, 0
4, 16590, Note_on_c, 1, 75, 100
4, 16620, Note_on_c, 1, 75, 0
4, 16620, Note_on_c, 1, 77, 100
4, 16650, Note_on_c, 1, 77, 0
4, 16650, Note_on_c, 1, 80, 100
4, 16708, Note_on_c, 1, 75, 100
4, 16710, Note_on_c, 1, 80, 0
4, 16768, Note_on_c, 1, 75, 0
4, 16772, Note_on_c, 1, 77, 100
4, 17040, Note_on_c, 1, 68, 100
4, 17041, Note_on_c, 1, 77, 0
4, 17070, Note_on_c, 1, 68, 0
4, 17070, Note_on_c, 1, 65, 100
4, 17279, Note_on_c, 1, 65, 0
4, 17280, Note_on_c, 1, 77, 100
4, 17310, Note_on_c, 1, 77, 0
4, 17310, Note_on_c, 1, 77, 100
4, 17340, Note_on_c, 1, 77, 0
4, 17340, Note_on_c, 1, 75, 100
4, 17370, Note_on_c, 1, 75, 0
4, 17370, Note_on_c, 1, 77, 100
4, 17400, Note_on_c, 1, 77, 0
4, 17400, Note_on_c, 1, 80, 100
4, 17520, Note_on_c, 1, 80, 0
4, 17520, Note_on_c, 1, 77, 100
4, 17550, Note_on_c, 1, 77, 0
4, 17550, Note_on_c, 1, 75, 100
4, 17580, Note_on_c, 1, 75, 0
4, 17580, Note_on_c, 1, 77, 100
4, 17610, Note_on_c, 1, 77, 0
4, 17612, Note_on_c, 1, 80, 100
4, 17668, Note_on_c, 1, 80, 100
4, 17672, Note_on_c, 1, 80, 0
4, 17728, Note_on_c, 1, 80, 0
4, 17730, Note_on_c, 1, 77, 100
4, 17999, Note_on_c, 1, 77, 0
4, 18210, Note_on_c, 1, 68, 100
4, 18240, Note_on_c, 1, 68, 0
4, 18240, Note_on_c, 1, 72, 100
4, 18270, Note_on_c, 1, 72, 0
4, 18270, Note_on_c, 1, 72, 100
4, 18300, Note_on_c, 1, 72, 0
4, 18300, Note_on_c, 1, 70, 100
4, 18330, Note_on_c, 1, 70, 0
4, 18330, Note_on_c, 1, 72, 100
4, 18390, Note_on_c, 1, 72, 0
4, 18390, Note_on_c, 1, 70, 100
4, 18420, Note_on_c, 1, 70, 0
4, 18420, Note_on_c, 1, 72, 100
4, 18450, Note_on_c, 1, 72, 0
4, 18450, Note_on_c, 1, 70, 100
4, 18480, Note_on_c, 1, 70, 0
4, 18480, Note_on_c, 1, 77, 100
4, 18531, Note_on_c, 1, 70, 100
4, 18540, Note_on_c, 1, 77, 0
4, 18620, Note_on_c, 1, 65, 100
4, 18621, Note_on_c, 1, 70, 0
4, 18650, Note_on_c, 1, 65, 0
4, 18660, Note_on_c, 1, 65, 100
4, 18690, Note_on_c, 1, 65, 0
4, 18690, Note_on_c, 1, 65, 100
4, 18899, Note_on_c, 1, 65, 0
4, 18900, Note_on_c, 1, 68, 100
4, 18930, Note_on_c, 1, 68, 0
4, 18930, Note_on_c, 1, 65, 100
4, 19015, Note_on_c, 1, 68, 100
4, 19020, Note_on_c, 1, 65, 0
4, 19045, Note_on_c, 1, 68, 0
4, 19050, Note_on_c, 1, 65, 100
4, 19136, Note_on_c, 1, 68, 100
4, 19140, Note_on_c, 1, 65, 0
4, 19166, Note_on_c, 1, 68, 0
4, 19170, Note_on_c, 1, 65, 100
4, 19289, Note_on_c, 1, 65, 0
4, 19290, Note_on_c, 1, 65, 100
4, 19439, Note_on_c, 1, 65, 0
4, 19530, Note_on_c, 1, 80, 100
4, 19560, Note_on_c, 1, 80, 0
4, 19560, Note_on_c, 1, 77, 100
4, 19680, Note_on_c, 1, 77, 0
4, 23460, Note_on_c, 1, 84, 100
4, 23490, Note_on_c, 1, 84, 0
4, 23490, Note_on_c, 1, 82, 100
4, 23520, Note_on_c, 1, 82, 0
4, 23520, Note_on_c, 1, 84, 100
4, 23550, Note_on_c, 1, 84, 0
4, 23550, Note_on_c, 1, 84, 100
4, 23580, Note_on_c, 1, 84, 0
4, 23580, Note_on_c, 1, 87, 100
4, 23640, Note_on_c, 1, 87, 0
4, 23640, Note_on_c, 1, 82, 100
4, 23700, Note_on_c, 1, 82, 0
4, 23700, Note_on_c, 1, 84, 100
4, 23730, Note_on_c, 1, 84, 0
4, 23730, Note_on_c, 1, 82, 100
4, 23760, Note_on_c, 1, 82, 0
4, 23760, Note_on_c, 1, 82, 100
4, 23790, Note_on_c, 1, 82, 0
4, 23790, Note_on_c, 1, 82, 100
4, 23820, Note_on_c, 1, 82, 0
4, 23820, Note_on_c, 1, 82, 100
4, 23850, Note_on_c, 1, 82, 0
4, 23850, Note_on_c, 1, 82, 100
4, 23880, Note_on_c, 1, 82, 0
4, 23880, Note_on_c, 1, 84, 100
4, 23907, Note_on_c, 1, 84, 100
4, 23910, Note_on_c, 1, 84, 0
4, 23967, Note_on_c, 1, 84, 0
4, 23970, Note_on_c, 1, 82, 100
4, 24000, Note_on_c, 1, 82, 0
4, 24000, Note_on_c, 1, 82, 100
4, 24030, Note_on_c, 1, 82, 0
4, 24030, Note_on_c, 1, 77, 100
4, 24120, Note_on_c, 1, 77, 0
4, 24120, Note_on_c, 1, 84, 100
4, 24150, Note_on_c, 1, 84, 0
4, 24150, Note_on_c, 1, 87, 100
4, 24180, Note_on_c, 1, 87, 0
4, 24180, Note_on_c, 1, 84, 100
4, 24210, Note_on_c, 1, 84, 0
4, 24212, Note_on_c, 1, 82, 100
4, 24270, Note_on_c, 1, 81, 100
4, 24272, Note_on_c, 1, 82, 0
4, 24360, Note_on_c, 1, 81, 0
4, 24420, Note_on_c, 1, 84, 100
4, 24450, Note_on_c, 1, 84, 0
4, 24450, Note_on_c, 1, 84, 100
4, 24480, Note_on_c, 1, 84, 0
4, 24480, Note_on_c, 1, 84, 100
4, 24510, Note_on_c, 1, 84, 0
4, 24510, Note_on_c, 1, 84, 100
4, 24538, Note_on_c, 1, 87, 100
4, 24540, Note_on_c, 1, 84, 0
4, 24598, Note_on_c, 1, 87, 0
4, 24600, Note_on_c, 1, 84, 100
4, 24660, Note_on_c, 1, 84, 0
4, 24660, Note_on_c, 1, 84, 100
4, 24690, Note_on_c, 1, 84, 0
4, 24690, Note_on_c, 1, 82, 100
4, 24720, Note_on_c, 1, 82, 0
4, 24720, Note_on_c, 1, 84, 100
4, 24750, Note_on_c, 1, 84, 0
4, 24752, Note_on_c, 1, 82, 100
4, 24810, Note_on_c, 1, 82, 100
4, 24812, Note_on_c, 1, 82, 0
4, 24840, Note_on_c, 1, 82, 0
4, 24840, Note_on_c, 1, 84, 100
4, 24900, Note_on_c, 1, 84, 0
4, 24900, Note_on_c, 1, 82, 100
4, 24930, Note_on_c, 1, 82, 0
4, 24930, Note_on_c, 1, 82, 100
4, 24960, Note_on_c, 1, 82, 0
4, 24960, Note_on_c, 1, 82, 100
4, 25020, Note_on_c, 1, 82, 0
4, 25020, Note_on_c, 1, 82, 100
4, 25050, Note_on_c, 1, 82, 0
4, 25050, Note_on_c, 1, 77, 100
4, 25110, Note_on_c, 1, 77, 0
4, 25110, Note_on_c, 1, 82, 100
4, 25140, Note_on_c, 1, 82, 0
4, 25140, Note_on_c, 1, 82, 100
4, 25200, Note_on_c, 1, 82, 0
4, 25200, Note_on_c, 1, 81, 100
4, 25320, Note_on_c, 1, 81, 0
4, 25440, Note_on_c, 1, 84, 100
4, 25530, Note_on_c, 1, 84, 0
4, 25530, Note_on_c, 1, 82, 100
4, 25560, Note_on_c, 1, 82, 0
4, 25560, Note_on_c, 1, 81, 100
4, 25680, Note_on_c, 1, 81, 0
4, 25680, Note_on_c, 1, 84, 100
4, 25770, Note_on_c, 1, 84, 0
4, 25770, Note_on_c, 1, 82, 100
4, 25800, Note_on_c, 1, 82, 0
4, 25800, Note_on_c, 1, 81, 100
4, 25920, Note_on_c, 1, 81, 0
4, 25920, Note_on_c, 1, 84, 100
4, 26010, Note_on_c, 1, 84, 0
4, 26010, Note_on_c, 1, 82, 100
4, 26040, Note_on_c, 1, 82, 0
4, 26040, Note_on_c, 1, 81, 100
4, 26160, Note_on_c, 1, 81, 0
4, 26160, Note_on_c, 1, 75, 100
4, 26220, Note_on_c, 1, 75, 0
4, 26220, Note_on_c, 1, 77, 100
4, 26400, Note_on_c, 1, 77, 0
4, 36480, Note_on_c, 1, 77, 100
4, 36540, Note_on_c, 1, 77, 0
4, 36540, Note_on_c, 1, 75, 100
4, 36600, Note_on_c, 1, 75, 0
4, 36600, Note_on_c, 1, 80, 100
4, 36660, Note_on_c, 1, 80, 0
4, 36660, Note_on_c, 1, 75, 100
4, 36720, Note_on_c, 1, 75, 0
4, 36720, Note_on_c, 1, 75, 100
4, 36780, Note_on_c, 1, 75, 0
4, 36780, Note_on_c, 1, 75, 100
4, 36810, Note_on_c, 1, 75, 0
4, 36810, Note_on_c, 1, 80, 100
4, 36870, Note_on_c, 1, 80, 0
4, 36870, Note_on_c, 1, 75, 100
4, 36900, Note_on_c, 1, 75, 0
4, 36900, Note_on_c, 1, 77, 100
4, 36960, Note_on_c, 1, 77, 0
4, 36960, Note_on_c, 1, 77, 100
4, 37200, Note_on_c, 1, 77, 0
4, 37290, Note_on_c, 1, 77, 100
4, 37370, Note_on_c, 1, 76, 100
4, 37379, Note_on_c, 1, 77, 0
4, 37379, Note_on_c, 1, 76, 0
4, 37380, Note_on_c, 1, 75, 100
4, 37389, Note_on_c, 1, 75, 0
4, 37390, Note_on_c, 1, 74, 100
4, 37399, Note_on_c, 1, 74, 0
4, 37400, Note_on_c, 1, 73, 100
4, 37409, Note_on_c, 1, 73, 0
4, 37410, Note_on_c, 1, 72, 100
4, 37419, Note_on_c, 1, 72, 0
4, 37420, Note_on_c, 1, 71, 100
4, 37429, Note_on_c, 1, 71, 0
4, 37440, Note_on_c, 1, 77, 100
4, 37500, Note_on_c, 1, 77, 0
4, 37500, Note_on_c, 1, 77, 100
4, 37530, Note_on_c, 1, 77, 0
4, 37530, Note_on_c, 1, 80, 100
4, 37590, Note_on_c, 1, 80, 0
4, 37590, Note_on_c, 1, 75, 100
4, 37680, Note_on_c, 1, 75, 0
4, 37680, Note_on_c, 1, 77, 100
4, 37740, Note_on_c, 1, 77, 0
4, 37740, Note_on_c, 1, 77, 100
4, 37770, Note_on_c, 1, 77, 0
4, 37770, Note_on_c, 1, 80, 100
4, 37830, Note_on_c, 1, 80, 0
4, 37830, Note_on_c, 1, 77, 100
4, 37860, Note_on_c, 1, 77, 0
4, 37860, Note_on_c, 1, 77, 100
4, 37920, Note_on_c, 1, 77, 0
4, 37920, Note_on_c, 1, 77, 100
4, 38160, Note_on_c, 1, 77, 0
4, 38310, Note_on_c, 1, 65, 100
4, 38340, Note_on_c, 1, 65, 0
4, 38340, Note_on_c, 1, 68, 100
4, 38370, Note_on_c, 1, 68, 0
4, 38370, Note_on_c, 1, 70, 100
4, 38400, Note_on_c, 1, 70, 0
4, 38400, Note_on_c, 1, 72, 100
4, 38430, Note_on_c, 1, 72, 0
4, 38430, Note_on_c, 1, 72, 100
4, 38490, Note_on_c, 1, 72, 0
4, 38490, Note_on_c, 1, 77, 100
4, 38580, Note_on_c, 1, 77, 0
4, 38640, Note_on_c, 1, 72, 100
4, 38670, Note_on_c, 1, 72, 0
4, 38670, Note_on_c, 1, 72, 100
4, 38700, Note_on_c, 1, 72, 0
4, 38700, Note_on_c, 1, 72, 100
4, 38730, Note_on_c, 1, 72, 0
4, 38730, Note_on_c, 1, 70, 100
4, 38820, Note_on_c, 1, 70, 0
4, 38820, Note_on_c, 1, 68, 100
4, 38850, Note_on_c, 1, 68, 0
4, 38850, Note_on_c, 1, 65, 100
4, 39119, Note_on_c, 1, 65, 0
4, 39150, Note_on_c, 1, 68, 100
4, 39180, Note_on_c, 1, 68, 0
4, 39182, Note_on_c, 1, 80, 100
4, 39300, Note_on_c, 1, 77, 100
4, 39302, Note_on_c, 1, 80, 0
4, 39360, Note_on_c, 1, 77, 0
4, 40320, Note_on_c, 1, 77, 100
4, 40350, Note_on_c, 1, 77, 0
4, 40350, Note_on_c, 1, 77, 100
4, 40410, Note_on_c, 1, 77, 0
4, 40410, Note_on_c, 1, 80, 100
4, 40559, Note_on_c, 1, 80, 0
4, 40560, Note_on_c, 1, 77, 100
4, 40590, Note_on_c, 1, 77, 0
4, 40590, Note_on_c, 1, 77, 100
4, 40620, Note_on_c, 1, 77, 0
4, 40620, Note_on_c, 1, 75, 100
4, 40650, Note_on_c, 1, 75, 0
4, 40653, Note_on_c, 1, 80, 100
4, 40710, Note_on_c, 1, 77, 100
4, 40713, Note_on_c, 1, 80, 0
4, 40770, Note_on_c, 1, 77, 0
4, 40770, Note_on_c, 1, 77, 100
4, 41039, Note_on_c, 1, 77, 0
4, 41280, Note_on_c, 1, 84, 100
4, 41320, Note_on_c, 1, 84, 0
4, 41320, Note_on_c, 1, 82, 100
4, 41360, Note_on_c, 1, 82, 0
4, 41360, Note_on_c, 1, 80, 100
4, 41400, Note_on_c, 1, 80, 0
4, 41400, Note_on_c, 1, 77, 100
4, 41520, Note_on_c, 1, 77, 0
4, 41520, Note_on_c, 1, 75, 100
4, 41550, Note_on_c, 1, 75, 0
4, 41550, Note_on_c, 1, 75, 100
4, 41580, Note_on_c, 1, 75, 0
4, 41580, Note_on_c, 1, 77, 100
4, 41610, Note_on_c, 1, 77, 0
4, 41613, Note_on_c, 1, 80, 100
4, 41670, Note_on_c, 1, 77, 100
4, 41673, Note_on_c, 1, 80, 0
4, 41730, Note_on_c, 1, 77, 0
4, 41730, Note_on_c, 1, 77, 100
4, 41879, Note_on_c, 1, 77, 0
4, 42180, Note_on_c, 1, 82, 100
4, 42210, Note_on_c, 1, 82, 0
4, 42210, Note_on_c, 1, 82, 100
4, 42240, Note_on_c, 1, 82, 0
4, 42240, Note_on_c, 1, 84, 100
4, 42270, Note_on_c, 1, 84, 0
4, 42270, Note_on_c, 1, 84, 100
4, 42330, Note_on_c, 1, 84, 0
4, 42330, Note_on_c, 1, 84, 100
4, 42390, Note_on_c, 1, 84, 0
4, 42390, Note_on_c, 1, 84, 100
4, 42480, Note_on_c, 1, 84, 0
4, 42480, Note_on_c, 1, 84, 100
4, 42540, Note_on_c, 1, 84, 0
4, 42540, Note_on_c, 1, 84, 100
4, 42600, Note_on_c, 1, 84, 0
4, 42600, Note_on_c, 1, 82, 100
4, 42660, Note_on_c, 1, 82, 0
4, 42660, Note_on_c, 1, 80, 100
4, 42720, Note_on_c, 1, 80, 0
4, 42720, Note_on_c, 1, 77, 100
4, 42960, Note_on_c, 1, 77, 0
4, 43052, Note_on_c, 1, 82, 100
4, 43110, Note_on_c, 1, 75, 100
4, 43112, Note_on_c, 1, 82, 0
4, 43200, Note_on_c, 1, 75, 0
4, 47040, Note_on_c, 1, 77, 100
4, 47130, Note_on_c, 1, 77, 0
4, 47130, Note_on_c, 1, 75, 100
4, 47160, Note_on_c, 1, 75, 0
4, 47160, Note_on_c, 1, 72, 100
4, 47280, Note_on_c, 1, 72, 0
4, 47280, Note_on_c, 1, 77, 100
4, 47370, Note_on_c, 1, 77, 0
4, 47370, Note_on_c, 1, 75, 100
4, 47400, Note_on_c, 1, 75, 0
4, 47400, Note_on_c, 1, 72, 100
4, 47520, Note_on_c, 1, 72, 0
4, 47520, Note_on_c, 1, 77, 100
4, 47610, Note_on_c, 1, 77, 0
4, 47610, Note_on_c, 1, 76, 100
4, 47640, Note_on_c, 1, 76, 0
4, 47640, Note_on_c, 1, 72, 100
4, 47700, Note_on_c, 1, 72, 0
4, 47700, Note_on_c, 1, 77, 100
4, 47880, Note_on_c, 1, 77, 0
4, 48000, Note_on_c, 1, 77, 100
4, 48090, Note_on_c, 1, 77, 0
4, 48090, Note_on_c, 1, 75, 100
4, 48120, Note_on_c, 1, 75, 0
4, 48120, Note_on_c, 1, 72, 100
4, 48240, Note_on_c, 1, 72, 0
4, 48240, Note_on_c, 1, 77, 100
4, 48330, Note_on_c, 1, 77, 0
4, 48330, Note_on_c, 1, 75, 100
4, 48360, Note_on_c, 1, 75, 0
4, 48360, Note_on_c, 1, 72, 100
4, 48480, Note_on_c, 1, 72, 0
4, 48480, Note_on_c, 1, 77, 100
4, 48570, Note_on_c, 1, 77, 0
4, 48570, Note_on_c, 1, 76, 100
4, 48600, Note_on_c, 1, 76, 0
4, 48600, Note_on_c, 1, 72, 100
4, 48660, Note_on_c, 1, 72, 0
4, 48660, Note_on_c, 1, 77, 100
4, 48840, Note_on_c, 1, 77, 0
4, 49620, Note_on_c, 1, 82, 100
4, 49689, Note_on_c, 1, 82, 0
4, 49690, Note_on_c, 1, 81, 100
4, 49699, Note_on_c, 1, 81, 0
4, 49710, Note_on_c, 1, 79, 100
4, 49719, Note_on_c, 1, 79, 0
4, 49730, Note_on_c, 1, 77, 100
4, 49739, Note_on_c, 1, 77, 0
4, 49740, Note_on_c, 1, 76, 100
4, 49749, Note_on_c, 1, 76, 0
4, 49750, Note_on_c, 1, 75, 100
4, 49759, Note_on_c, 1, 75, 0
4, 49760, Note_on_c, 1, 74, 100
4, 49769, Note_on_c, 1, 74, 0
4, 49770, Note_on_c, 1, 73, 100
4, 49779, Note_on_c, 1, 73, 0
4, 49780, Note_on_c, 1, 72, 100
4, 49789, Note_on_c, 1, 72, 0
4, 49790, Note_on_c, 1, 71, 100
4, 49799, Note_on_c, 1, 71, 0
4, 51300, Note_on_c, 1, 79, 100
4, 51360, Note_on_c, 1, 79, 0
4, 51760, Note_on_c, 1, 87, 100
4, 51800, Note_on_c, 1, 87, 0
4, 51800, Note_on_c, 1, 84, 100
4, 51840, Note_on_c, 1, 84, 0
4, 51840, Note_on_c, 1, 87, 100
4, 51870, Note_on_c, 1, 87, 0
4, 51870, Note_on_c, 1, 84, 100
4, 51930, Note_on_c, 1, 84, 0
4, 51930, Note_on_c, 1, 82, 100
4, 51960, Note_on_c, 1, 82, 0
4, 51960, Note_on_c, 1, 80, 100
4, 52080, Note_on_c, 1, 80, 0
4, 52320, Note_on_c, 1, 87, 110
4, 52360, Note_on_c, 1, 87, 0
4, 52360, Note_on_c, 1, 84, 110
4, 52400, Note_on_c, 1, 84, 0
4, 52400, Note_on_c, 1, 87, 110
4, 52440, Note_on_c, 1, 87, 0
4, 52440, Note_on_c, 1, 84, 110
4, 52500, Note_on_c, 1, 84, 0
4, 52500, Note_on_c, 1, 82, 100
4, 52560, Note_on_c, 1, 82, 0
4, 52560, Note_on_c, 1, 80, 100
4, 52800, Note_on_c, 1, 80, 0
4, 53220, Note_on_c, 1, 84, 100
4, 53280, Note_on_c, 1, 84, 0
4, 53680, Note_on_c, 1, 87, 100
4, 53720, Note_on_c, 1, 87, 0
4, 53720, Note_on_c, 1, 84, 100
4, 53760, Note_on_c, 1, 84, 0
4, 53760, Note_on_c, 1, 87, 80
4, 53790, Note_on_c, 1, 87, 0
4, 53790, Note_on_c, 1, 84, 80
4, 53850, Note_on_c, 1, 84, 0
4, 53850, Note_on_c, 1, 82, 80
4, 53880, Note_on_c, 1, 82, 0
4, 53880, Note_on_c, 1, 80, 100
4, 54000, Note_on_c, 1, 80, 0
4, 54240, Note_on_c, 1, 87, 100
4, 54280, Note_on_c, 1, 87, 0
4, 54280, Note_on_c, 1, 84, 100
4, 54320, Note_on_c, 1, 84, 0
4, 54320, Note_on_c, 1, 87, 100
4, 54360, Note_on_c, 1, 87, 0
4, 54360, Note_on_c, 1, 84, 110
4, 54420, Note_on_c, 1, 84, 0
4, 54420, Note_on_c, 1, 82, 100
4, 54480, Note_on_c, 1, 82, 0
4, 54480, Note_on_c, 1, 80, 100
4, 54720, Note_on_c, 1, 80, 0
4, 55140, Note_on_c, 1, 84, 100
4, 55200, Note_on_c, 1, 84, 0
4, 55600, Note_on_c, 1, 87, 100
4, 55640, Note_on_c, 1, 87, 0
4, 55640, Note_on_c, 1, 84, 100
4, 55680, Note_on_c, 1, 84, 0
4, 55680, Note_on_c, 1, 87, 100
4, 55710, Note_on_c, 1, 87, 0
4, 55710, Note_on_c, 1, 84, 100
4, 55770, Note_on_c, 1, 84, 0
4, 55770, Note_on_c, 1, 82, 100
4, 55800, Note_on_c, 1, 82, 0
4, 55800, Note_on_c, 1, 80, 100
4, 55920, Note_on_c, 1, 80, 0
4, 56160, Note_on_c, 1, 87, 100
4, 56200, Note_on_c, 1, 87, 0
4, 56200, Note_on_c, 1, 84, 100
4, 56240, Note_on_c, 1, 84, 0
4, 56240, Note_on_c, 1, 87, 100
4, 56280, Note_on_c, 1, 87, 0
4, 56280, Note_on_c, 1, 84, 100
4, 56340, Note_on_c, 1, 84, 0
4, 56340, Note_on_c, 1, 82, 100
4, 56400, Note_on_c, 1, 82, 0
4, 56400, Note_on_c, 1, 80, 100
4, 56640, Note_on_c, 1, 80, 0
4, 57060, Note_on_c, 1, 84, 100
4, 57120, Note_on_c, 1, 84, 0
4, 57520, Note_on_c, 1, 87, 100
4, 57560, Note_on_c, 1, 87, 0
4, 57560, Note_on_c, 1, 84, 100
4, 57600, Note_on_c, 1, 84, 0
4, 57600, Note_on_c, 1, 87, 100
4, 57630, Note_on_c, 1, 87, 0
4, 57630, Note_on_c, 1, 84, 100
4, 57690, Note_on_c, 1, 84, 0
4, 57690, Note_on_c, 1, 82, 100
4, 57720, Note_on_c, 1, 82, 0
4, 57720, Note_on_c, 1, 80, 100
4, 57840, Note_on_c, 1, 80, 0
4, 58080, Note_on_c, 1, 87, 100
4, 58120, Note_on_c, 1, 87, 0
4, 58120, Note_on_c, 1, 84, 100
4, 58160, Note_on_c, 1, 84, 0
4, 58160, Note_on_c, 1, 87, 100
4, 58200, Note_on_c, 1, 87, 0
4, 58200, Note_on_c, 1, 84, 100
4, 58260, Note_on_c, 1, 84, 0
4, 58260, Note_on_c, 1, 82, 100
4, 58320, Note_on_c, 1, 82, 0
4, 58320, Note_on_c, 1, 80, 100
4, 58560, Note_on_c, 1, 80, 0
4, 58980, Note_on_c, 1, 84, 100
4, 59040, Note_on_c, 1, 84, 0
4, 59440, Note_on_c, 1, 87, 100
4, 59480, Note_on_c, 1, 87, 0
4, 59480, Note_on_c, 1, 84, 100
4, 59520, Note_on_c, 1, 84, 0
4, 59520, Note_on_c, 1, 87, 100
4, 59550, Note_on_c, 1, 87, 0
4, 59550, Note_on_c, 1, 84, 100
4, 59610, Note_on_c, 1, 84, 0
4, 59610, Note_on_c, 1, 82, 100
4, 59640, Note_on_c, 1, 82, 0
4, 59640, Note_on_c, 1, 80, 100
4, 59760, Note_on_c, 1, 80, 0
4, 60000, Note_on_c, 1, 87, 100
4, 60040, Note_on_c, 1, 87, 0
4, 60040, Note_on_c, 1, 84, 100
4, 60080, Note_on_c, 1, 84, 0
4, 60080, Note_on_c, 1, 87, 100
4, 60120, Note_on_c, 1, 87, 0
4, 60120, Note_on_c, 1, 84, 100
4, 60180, Note_on_c, 1, 84, 0
4, 60180, Note_on_c, 1, 82, 100
4, 60240, Note_on_c, 1, 82, 0
4, 60240, Note_on_c, 1, 80, 100
4, 60480, Note_on_c, 1, 80, 0
4, 60900, Note_on_c, 1, 84, 100
4, 60960, Note_on_c, 1, 84, 0
4, 61360, Note_on_c, 1, 87, 100
4, 61400, Note_on_c, 1, 87, 0
4, 61400, Note_on_c, 1, 84, 100
4, 61440, Note_on_c, 1, 84, 0
4, 61440, Note_on_c, 1, 87, 100
4, 61470, Note_on_c, 1, 87, 0
4, 61470, Note_on_c, 1, 84, 100
4, 61530, Note_on_c, 1, 84, 0
4, 61530, Note_on_c, 1, 82, 100
4, 61560, Note_on_c, 1, 82, 0
4, 61560, Note_on_c, 1, 80, 100
4, 61680, Note_on_c, 1, 80, 0
4, 61920, Note_on_c, 1, 87, 100
4, 61960, Note_on_c, 1, 87, 0
4, 61960, Note_on_c, 1, 84, 100
4, 62000, Note_on_c, 1, 84, 0
4, 62000, Note_on_c, 1, 87, 100
4, 62040, Note_on_c, 1, 87, 0
4, 62040, Note_on_c, 1, 84, 100
4, 62100, Note_on_c, 1, 84, 0
4, 62100, Note_on_c, 1, 82, 90
4, 62160, Note_on_c, 1, 82, 0
4, 62160, Note_on_c, 1, 80, 80
4, 62400, Note_on_c, 1, 80, 0
4, 62400, Note_on_c, 1, 77, 100
4, 62669, Note_on_c, 1, 77, 0
4, 62670, Note_on_c, 1, 72, 100
4, 62700, Note_on_c, 1, 72, 0
4, 62700, Note_on_c, 1, 82, 100
4, 62730, Note_on_c, 1, 82, 0
4, 62730, Note_on_c, 1, 79, 100
4, 62790, Note_on_c, 1, 79, 0
4, 62790, Note_on_c, 1, 72, 100
4, 62820, Note_on_c, 1, 72, 0
4, 62820, Note_on_c, 1, 82, 100
4, 62880, Note_on_c, 1, 82, 0
4, 62880, Note_on_c, 1, 77, 100
4, 63360, Note_on_c, 1, 77, 0
4, 63360, End_track
5, 0, Start_track
5, 0, Title_t, "Harmonica"
5, 0, Instrument_name_t, "Harmonica"
5, 0, MIDI_port, 0
5, 480, Control_c, 2, 7, 120
5, 480, Control_c, 2, 93, 25
5, 480, Control_c, 2, 91, 120
5, 480, Control_c, 2, 10, 105
5, 480, Control_c, 2, 32, 0
5, 480, Control_c, 2, 0, 0
5, 480, Program_c, 2, 22
5, 480, Control_c, 2, 1, 15
5, 1860, Note_on_c, 2, 65, 100
5, 1880, Note_on_c, 2, 65, 0
5, 1880, Note_on_c, 2, 68, 100
5, 1900, Note_on_c, 2, 68, 0
5, 1900, Note_on_c, 2, 72, 100
5, 1920, Note_on_c, 2, 72, 0
5, 1920, Note_on_c, 2, 75, 100
5, 2400, Note_on_c, 2, 75, 0
5, 2400, Note_on_c, 2, 65, 100
5, 2420, Note_on_c, 2, 65, 0
5, 2420, Note_on_c, 2, 68, 100
5, 2440, Note_on_c, 2, 68, 0
5, 2440, Note_on_c, 2, 72, 100
5, 2460, Note_on_c, 2, 72, 0
5, 2460, Note_on_c, 2, 75, 100
5, 2879, Note_on_c, 2, 75, 0
5, 2880, Note_on_c, 2, 65, 100
5, 2900, Note_on_c, 2, 65, 0
5, 2900, Note_on_c, 2, 68, 100
5, 2920, Note_on_c, 2, 68, 0
5, 2920, Note_on_c, 2, 72, 100
5, 2940, Note_on_c, 2, 72, 0
5, 2940, Note_on_c, 2, 75, 100
5, 3359, Note_on_c, 2, 75, 0
5, 3360, Note_on_c, 2, 65, 100
5, 3380, Note_on_c, 2, 65, 0
5, 3380, Note_on_c, 2, 68, 100
5, 3400, Note_on_c, 2, 68, 0
5, 3400, Note_on_c, 2, 72, 100
5, 3420, Note_on_c, 2, 72, 0
5, 3420, Note_on_c, 2, 75, 100
5, 3480, Note_on_c, 2, 75, 0
5, 3480, Note_on_c, 2, 75, 100
5, 3600, Note_on_c, 2, 75, 0
5, 3600, Note_on_c, 2, 75, 100
5, 3630, Note_on_c, 2, 75, 0
5, 3630, Note_on_c, 2, 75, 100
5, 3660, Note_on_c, 2, 75, 0
5, 3660, Note_on_c, 2, 75, 100
5, 3690, Note_on_c, 2, 75, 0
5, 3690, Note_on_c, 2, 68, 100
5, 3750, Note_on_c, 2, 68, 0
5, 3750, Note_on_c, 2, 68, 100
5, 3780, Note_on_c, 2, 68, 0
5, 3780, Note_on_c, 2, 68, 100
5, 3810, Note_on_c, 2, 68, 0
5, 3810, Note_on_c, 2, 65, 100
5, 3900, Note_on_c, 2, 65, 0
5, 4020, Note_on_c, 2, 68, 100
5, 4559, Note_on_c, 2, 68, 0
5, 4560, Note_on_c, 2, 72, 100
5, 4680, Note_on_c, 2, 72, 0
5, 4680, Note_on_c, 2, 65, 100
5, 4740, Note_on_c, 2, 65, 0
5, 4740, Note_on_c, 2, 65, 100
5, 4800, Note_on_c, 2, 65, 0
5, 4800, Note_on_c, 2, 68, 100
5, 4830, Note_on_c, 2, 68, 0
5, 4830, Note_on_c, 2, 65, 100
5, 4860, Note_on_c, 2, 65, 0
5, 4860, Note_on_c, 2, 60, 100
5, 4920, Note_on_c, 2, 60, 0
5, 5190, Note_on_c, 2, 60, 100
5, 5220, Note_on_c, 2, 60, 0
5, 5220, Note_on_c, 2, 62, 100
5, 5280, Note_on_c, 2, 62, 0
5, 5280, Note_on_c, 2, 68, 100
5, 6000, Note_on_c, 2, 68, 0
5, 6000, Note_on_c, 2, 65, 100
5, 6060, Note_on_c, 2, 65, 0
5, 6150, Note_on_c, 2, 65, 100
5, 6180, Note_on_c, 2, 65, 0
5, 6180, Note_on_c, 2, 65, 100
5, 6240, Note_on_c, 2, 65, 0
5, 6240, Note_on_c, 2, 68, 100
5, 6270, Note_on_c, 2, 68, 0
5, 6270, Note_on_c, 2, 65, 100
5, 6300, Note_on_c, 2, 65, 0
5, 6635, Note_on_c, 2, 60, 100
5, 6690, Note_on_c, 2, 65, 100
5, 6695, Note_on_c, 2, 60, 0
5, 6720, Note_on_c, 2, 65, 0
5, 6840, Note_on_c, 2, 79, 100
5, 6880, Note_on_c, 2, 79, 0
5, 6880, Note_on_c, 2, 79, 100
5, 6920, Note_on_c, 2, 79, 0
5, 6920, Note_on_c, 2, 79, 100
5, 6960, Note_on_c, 2, 79, 0
5, 6960, Note_on_c, 2, 79, 100
5, 6990, Note_on_c, 2, 79, 0
5, 6990, Note_on_c, 2, 79, 100
5, 7050, Note_on_c, 2, 79, 0
5, 7050, Note_on_c, 2, 78, 100
5, 7433, Note_on_c, 2, 79, 100
5, 7439, Note_on_c, 2, 78, 0
5, 7613, Note_on_c, 2, 79, 0
5, 7623, Note_on_c, 2, 78, 100
5, 7680, Note_on_c, 2, 79, 100
5, 7683, Note_on_c, 2, 78, 0
5, 7710, Note_on_c, 2, 79, 0
5, 7710, Note_on_c, 2, 77, 100
5, 7735, Note_on_c, 2, 75, 100
5, 7740, Note_on_c, 2, 77, 0
5, 7765, Note_on_c, 2, 75, 0
5, 7772, Note_on_c, 2, 74, 100
5, 7802, Note_on_c, 2, 74, 0
5, 7830, Note_on_c, 2, 72, 100
5, 7860, Note_on_c, 2, 72, 0
5, 7860, Note_on_c, 2, 70, 100
5, 7890, Note_on_c, 2, 70, 0
5, 7890, Note_on_c, 2, 75, 100
5, 7920, Note_on_c, 2, 75, 0
5, 7920, Note_on_c, 2, 74, 100
5, 7949, Note_on_c, 2, 72, 100
5, 7950, Note_on_c, 2, 74, 0
5, 8009, Note_on_c, 2, 72, 0
5, 8010, Note_on_c, 2, 70, 100
5, 8040, Note_on_c, 2, 70, 0
5, 8040, Note_on_c, 2, 72, 100
5, 8070, Note_on_c, 2, 72, 0
5, 8070, Note_on_c, 2, 75, 100
5, 8100, Note_on_c, 2, 75, 0
5, 8100, Note_on_c, 2, 74, 100
5, 8130, Note_on_c, 2, 74, 0
5, 8133, Note_on_c, 2, 72, 100
5, 8190, Note_on_c, 2, 70, 100
5, 8193, Note_on_c, 2, 72, 0
5, 8220, Note_on_c, 2, 70, 0
5, 8220, Note_on_c, 2, 72, 100
5, 8250, Note_on_c, 2, 72, 0
5, 8250, Note_on_c, 2, 75, 100
5, 8280, Note_on_c, 2, 75, 0
5, 8280, Note_on_c, 2, 74, 100
5, 8310, Note_on_c, 2, 74, 0
5, 8310, Note_on_c, 2, 75, 100
5, 8340, Note_on_c, 2, 75, 0
5, 8340, Note_on_c, 2, 74, 100
5, 8370, Note_on_c, 2, 74, 0
5, 8370, Note_on_c, 2, 75, 100
5, 8400, Note_on_c, 2, 75, 0
5, 8520, Note_on_c, 2, 74, 100
5, 8550, Note_on_c, 2, 74, 0
5, 8550, Note_on_c, 2, 75, 100
5, 8580, Note_on_c, 2, 75, 0
5, 8580, Note_on_c, 2, 74, 100
5, 8610, Note_on_c, 2, 74, 0
5, 8610, Note_on_c, 2, 75, 100
5, 8640, Note_on_c, 2, 75, 0
5, 8640, Note_on_c, 2, 75, 100
5, 9120, Note_on_c, 2, 75, 0
5, 9120, Note_on_c, 2, 77, 100
5, 10139, Note_on_c, 2, 77, 0
5, 27540, Note_on_c, 2, 63, 100
5, 28379, Note_on_c, 2, 63, 0
5, 28380, Note_on_c, 2, 65, 100
5, 28560, Note_on_c, 2, 65, 0
5, 28710, Note_on_c, 2, 60, 100
5, 28800, Note_on_c, 2, 60, 0
5, 28800, Note_on_c, 2, 58, 90
5, 29280, Note_on_c, 2, 58, 0
5, 29280, Note_on_c, 2, 60, 100
5, 29760, Note_on_c, 2, 60, 0
5, 29850, Note_on_c, 2, 70, 100
5, 29850, Note_on_c, 2, 74, 100
5, 29880, Note_on_c, 2, 70, 0
5, 29880, Note_on_c, 2, 74, 0
5, 29880, Note_on_c, 2, 68, 100
5, 29880, Note_on_c, 2, 60, 100
5, 30179, Note_on_c, 2, 68, 0
5, 30179, Note_on_c, 2, 60, 0
5, 30180, Note_on_c, 2, 68, 100
5, 30210, Note_on_c, 2, 68, 0
5, 30210, Note_on_c, 2, 68, 100
5, 30240, Note_on_c, 2, 68, 0
5, 30240, Note_on_c, 2, 69, 100
5, 30266, Note_on_c, 2, 70, 100
5, 30270, Note_on_c, 2, 69, 0
5, 30296, Note_on_c, 2, 70, 0
5, 30300, Note_on_c, 2, 71, 100
5, 30330, Note_on_c, 2, 71, 0
5, 30330, Note_on_c, 2, 74, 100
5, 30360, Note_on_c, 2, 74, 0
5, 30360, Note_on_c, 2, 75, 100
5, 30390, Note_on_c, 2, 75, 0
5, 30390, Note_on_c, 2, 75, 100
5, 30420, Note_on_c, 2, 75, 0
5, 30420, Note_on_c, 2, 74, 100
5, 30450, Note_on_c, 2, 74, 0
5, 30450, Note_on_c, 2, 72, 100
5, 30480, Note_on_c, 2, 72, 0
5, 30480, Note_on_c, 2, 72, 100
5, 30540, Note_on_c, 2, 72, 0
5, 30540, Note_on_c, 2, 68, 100
5, 30568, Note_on_c, 2, 68, 100
5, 30570, Note_on_c, 2, 68, 0
5, 30628, Note_on_c, 2, 68, 0
5, 30630, Note_on_c, 2, 65, 100
5, 30660, Note_on_c, 2, 65, 0
5, 30660, Note_on_c, 2, 65, 100
5, 30720, Note_on_c, 2, 65, 0
5, 30720, Note_on_c, 2, 68, 100
5, 30748, Note_on_c, 2, 68, 100
5, 30750, Note_on_c, 2, 68, 0
5, 30808, Note_on_c, 2, 68, 0
5, 30810, Note_on_c, 2, 65, 100
5, 30892, Note_on_c, 2, 63, 100
5, 30900, Note_on_c, 2, 65, 0
5, 30931, Note_on_c, 2, 63, 0
5, 30958, Note_on_c, 2, 68, 100
5, 30988, Note_on_c, 2, 68, 0
5, 30991, Note_on_c, 2, 68, 90
5, 31045, Note_on_c, 2, 65, 90
5, 31051, Note_on_c, 2, 68, 0
5, 31075, Note_on_c, 2, 65, 0
5, 31085, Note_on_c, 2, 65, 100
5, 31140, Note_on_c, 2, 68, 100
5, 31145, Note_on_c, 2, 65, 0
5, 31170, Note_on_c, 2, 68, 0
5, 31170, Note_on_c, 2, 68, 100
5, 31230, Note_on_c, 2, 68, 0
5, 31230, Note_on_c, 2, 65, 100
5, 31260, Note_on_c, 2, 65, 0
5, 31260, Note_on_c, 2, 65, 100
5, 31320, Note_on_c, 2, 65, 0
5, 31320, Note_on_c, 2, 65, 100
5, 31350, Note_on_c, 2, 65, 0
5, 31350, Note_on_c, 2, 65, 100
5, 31380, Note_on_c, 2, 65, 0
5, 31380, Note_on_c, 2, 65, 100
5, 31410, Note_on_c, 2, 65, 0
5, 31410, Note_on_c, 2, 63, 100
5, 31440, Note_on_c, 2, 63, 0
5, 31470, Note_on_c, 2, 65, 100
5, 31500, Note_on_c, 2, 65, 0
5, 31500, Note_on_c, 2, 65, 100
5, 31530, Note_on_c, 2, 65, 0
5, 31530, Note_on_c, 2, 68, 100
5, 31560, Note_on_c, 2, 68, 0
5, 31590, Note_on_c, 2, 65, 100
5, 31620, Note_on_c, 2, 65, 0
5, 31620, Note_on_c, 2, 65, 100
5, 31650, Note_on_c, 2, 65, 0
5, 31650, Note_on_c, 2, 68, 100
5, 31680, Note_on_c, 2, 68, 0
5, 31710, Note_on_c, 2, 65, 100
5, 31740, Note_on_c, 2, 65, 0
5, 31740, Note_on_c, 2, 65, 100
5, 31770, Note_on_c, 2, 65, 0
5, 31770, Note_on_c, 2, 68, 100
5, 31800, Note_on_c, 2, 68, 0
5, 31800, Note_on_c, 2, 65, 100
5, 31830, Note_on_c, 2, 65, 0
5, 31830, Note_on_c, 2, 65, 100
5, 31860, Note_on_c, 2, 65, 0
5, 31860, Note_on_c, 2, 65, 100
5, 31890, Note_on_c, 2, 65, 0
5, 31890, Note_on_c, 2, 68, 100
5, 31920, Note_on_c, 2, 68, 0
5, 31920, Note_on_c, 2, 68, 100
5, 31950, Note_on_c, 2, 68, 0
5, 31950, Note_on_c, 2, 70, 100
5, 31980, Note_on_c, 2, 70, 0
5, 31980, Note_on_c, 2, 65, 100
5, 32010, Note_on_c, 2, 65, 0
5, 32010, Note_on_c, 2, 68, 100
5, 32040, Note_on_c, 2, 68, 0
5, 32040, Note_on_c, 2, 70, 100
5, 32070, Note_on_c, 2, 70, 0
5, 32070, Note_on_c, 2, 68, 100
5, 32100, Note_on_c, 2, 68, 0
5, 32100, Note_on_c, 2, 65, 100
5, 32130, Note_on_c, 2, 65, 0
5, 32130, Note_on_c, 2, 68, 100
5, 32160, Note_on_c, 2, 68, 0
5, 32160, Note_on_c, 2, 70, 100
5, 32190, Note_on_c, 2, 70, 0
5, 32190, Note_on_c, 2, 65, 100
5, 32218, Note_on_c, 2, 68, 100
5, 32220, Note_on_c, 2, 65, 0
5, 32248, Note_on_c, 2, 68, 0
5, 32250, Note_on_c, 2, 70, 100
5, 32276, Note_on_c, 2, 65, 100
5, 32280, Note_on_c, 2, 70, 0
5, 32306, Note_on_c, 2, 65, 0
5, 32316, Note_on_c, 2, 68, 68
5, 32338, Note_on_c, 2, 70, 105
5, 32346, Note_on_c, 2, 68, 0
5, 32365, Note_on_c, 2, 70, 0
5, 32370, Note_on_c, 2, 65, 100
5, 32400, Note_on_c, 2, 65, 0
5, 32400, Note_on_c, 2, 68, 100
5, 32428, Note_on_c, 2, 70, 100
5, 32430, Note_on_c, 2, 68, 0
5, 32488, Note_on_c, 2, 70, 0
5, 32490, Note_on_c, 2, 68, 100
5, 32520, Note_on_c, 2, 68, 0
5, 32520, Note_on_c, 2, 70, 100
5, 32550, Note_on_c, 2, 70, 0
5, 32550, Note_on_c, 2, 68, 100
5, 32580, Note_on_c, 2, 68, 0
5, 32580, Note_on_c, 2, 68, 100
5, 32610, Note_on_c, 2, 68, 0
5, 32610, Note_on_c, 2, 70, 100
5, 32640, Note_on_c, 2, 70, 0
5, 32640, Note_on_c, 2, 72, 100
5, 32640, Note_on_c, 2, 77, 100
5, 32819, Note_on_c, 2, 72, 0
5, 32819, Note_on_c, 2, 77, 0
5, 32820, Note_on_c, 2, 72, 100
5, 32820, Note_on_c, 2, 76, 100
5, 32850, Note_on_c, 2, 72, 0
5, 32850, Note_on_c, 2, 76, 0
5, 32850, Note_on_c, 2, 74, 100
5, 32850, Note_on_c, 2, 77, 100
5, 32880, Note_on_c, 2, 74, 0
5, 32880, Note_on_c, 2, 77, 0
5, 32910, Note_on_c, 2, 79, 100
5, 33119, Note_on_c, 2, 79, 0
5, 33120, Note_on_c, 2, 77, 100
5, 33146, Note_on_c, 2, 72, 95
5, 33150, Note_on_c, 2, 77, 0
5, 33176, Note_on_c, 2, 72, 0
5, 33180, Note_on_c, 2, 72, 100
5, 33240, Note_on_c, 2, 72, 0
5, 33270, Note_on_c, 2, 79, 100
5, 33360, Note_on_c, 2, 79, 0
5, 33360, Note_on_c, 2, 82, 100
5, 33390, Note_on_c, 2, 82, 0
5, 33390, Note_on_c, 2, 82, 100
5, 33420, Note_on_c, 2, 82, 0
5, 33420, Note_on_c, 2, 79, 100
5, 33435, Note_on_c, 2, 79, 0
5, 33435, Note_on_c, 2, 76, 100
5, 33450, Note_on_c, 2, 76, 0
5, 33450, Note_on_c, 2, 72, 100
5, 33480, Note_on_c, 2, 72, 0
5, 33510, Note_on_c, 2, 79, 100
5, 33600, Note_on_c, 2, 79, 0
5, 33600, Note_on_c, 2, 79, 100
5, 33630, Note_on_c, 2, 79, 0
5, 33630, Note_on_c, 2, 77, 100
5, 33660, Note_on_c, 2, 77, 0
5, 33660, Note_on_c, 2, 77, 100
5, 33690, Note_on_c, 2, 77, 0
5, 33690, Note_on_c, 2, 72, 100
5, 33720, Note_on_c, 2, 72, 0
5, 33750, Note_on_c, 2, 72, 100
5, 33780, Note_on_c, 2, 72, 0
5, 33780, Note_on_c, 2, 72, 100
5, 33810, Note_on_c, 2, 72, 0
5, 33810, Note_on_c, 2, 74, 100
5, 33840, Note_on_c, 2, 74, 0
5, 33840, Note_on_c, 2, 75, 100
5, 33870, Note_on_c, 2, 75, 0
5, 33870, Note_on_c, 2, 75, 100
5, 33900, Note_on_c, 2, 75, 0
5, 33900, Note_on_c, 2, 77, 100
5, 33960, Note_on_c, 2, 77, 0
5, 33960, Note_on_c, 2, 77, 100
5, 34020, Note_on_c, 2, 77, 0
5, 34020, Note_on_c, 2, 77, 100
5, 34080, Note_on_c, 2, 77, 0
5, 34080, Note_on_c, 2, 77, 100
5, 34320, Note_on_c, 2, 77, 0
5, 34320, Note_on_c, 2, 75, 100
5, 34350, Note_on_c, 2, 75, 0
5, 34350, Note_on_c, 2, 74, 100
5, 34380, Note_on_c, 2, 74, 0
5, 34380, Note_on_c, 2, 72, 100
5, 34410, Note_on_c, 2, 72, 0
5, 34410, Note_on_c, 2, 70, 100
5, 34440, Note_on_c, 2, 70, 0
5, 34440, Note_on_c, 2, 70, 100
5, 34470, Note_on_c, 2, 70, 0
5, 34470, Note_on_c, 2, 70, 100
5, 34500, Note_on_c, 2, 70, 0
5, 34500, Note_on_c, 2, 72, 100
5, 34530, Note_on_c, 2, 72, 0
5, 34530, Note_on_c, 2, 75, 100
5, 34560, Note_on_c, 2, 75, 0
5, 34560, Note_on_c, 2, 74, 100
5, 34590, Note_on_c, 2, 74, 0
5, 34590, Note_on_c, 2, 70, 100
5, 34620, Note_on_c, 2, 70, 0
5, 34620, Note_on_c, 2, 72, 100
5, 34680, Note_on_c, 2, 72, 0
5, 34680, Note_on_c, 2, 70, 100
5, 34740, Note_on_c, 2, 70, 0
5, 39360, Note_on_c, 2, 77, 100
5, 39420, Note_on_c, 2, 77, 0
5, 39420, Note_on_c, 2, 75, 100
5, 39450, Note_on_c, 2, 75, 0
5, 39450, Note_on_c, 2, 74, 100
5, 39480, Note_on_c, 2, 74, 0
5, 39480, Note_on_c, 2, 72, 100
5, 39540, Note_on_c, 2, 72, 0
5, 39540, Note_on_c, 2, 70, 100
5, 39600, Note_on_c, 2, 70, 0
5, 39600, Note_on_c, 2, 69, 100
5, 39720, Note_on_c, 2, 69, 0
5, 39870, Note_on_c, 2, 68, 100
5, 39930, Note_on_c, 2, 68, 0
5, 39930, Note_on_c, 2, 68, 100
5, 39990, Note_on_c, 2, 68, 0
5, 39990, Note_on_c, 2, 68, 100
5, 40050, Note_on_c, 2, 68, 0
5, 40050, Note_on_c, 2, 68, 100
5, 40080, Note_on_c, 2, 68, 0
5, 40080, Note_on_c, 2, 68, 100
5, 40140, Note_on_c, 2, 68, 0
5, 40140, Note_on_c, 2, 68, 100
5, 40200, Note_on_c, 2, 68, 0
5, 40200, Note_on_c, 2, 68, 100
5, 40230, Note_on_c, 2, 68, 0
5, 40230, Note_on_c, 2, 67, 100
5, 40290, Note_on_c, 2, 67, 0
5, 40290, Note_on_c, 2, 67, 100
5, 40320, Note_on_c, 2, 67, 0
5, 43260, Note_on_c, 2, 77, 100
5, 43290, Note_on_c, 2, 77, 0
5, 43290, Note_on_c, 2, 77, 100
5, 43320, Note_on_c, 2, 77, 0
5, 43320, Note_on_c, 2, 76, 100
5, 43380, Note_on_c, 2, 76, 0
5, 43380, Note_on_c, 2, 75, 100
5, 43410, Note_on_c, 2, 75, 0
5, 43410, Note_on_c, 2, 74, 100
5, 43440, Note_on_c, 2, 74, 0
5, 43440, Note_on_c, 2, 72, 100
5, 43470, Note_on_c, 2, 72, 0
5, 43470, Note_on_c, 2, 70, 100
5, 43530, Note_on_c, 2, 70, 0
5, 43530, Note_on_c, 2, 69, 100
5, 43620, Note_on_c, 2, 69, 0
5, 43680, Note_on_c, 2, 72, 100
5, 43710, Note_on_c, 2, 72, 0
5, 43710, Note_on_c, 2, 75, 100
5, 44159, Note_on_c, 2, 75, 0
5, 44160, Note_on_c, 2, 68, 100
5, 44190, Note_on_c, 2, 68, 0
5, 44190, Note_on_c, 2, 65, 100
5, 44220, Note_on_c, 2, 65, 0
5, 44220, End_track
6, 0, Start_track
6, 0, Title_t, "Guitar 1"
6, 0, Instrument_name_t, "Overdrive Gtr"
6, 0, MIDI_port, 0
6, 480, Control_c, 3, 7, 106
6, 480, Control_c, 3, 93, 20
6, 480, Control_c, 3, 91, 70
6, 480, Control_c, 3, 10, 32
6, 480, Control_c, 3, 32, 0
6, 480, Control_c, 3, 0, 0
6, 480, Program_c, 3, 29
6, 480, Control_c, 3, 11, 127
6, 1920, Note_on_c, 3, 56, 127
6, 1949, Note_on_c, 3, 56, 0
6, 1950, Note_on_c, 3, 53, 127
6, 1979, Note_on_c, 3, 53, 0
6, 1980, Note_on_c, 3, 53, 90
6, 2009, Note_on_c, 3, 53, 0
6, 2010, Note_on_c, 3, 53, 80
6, 2040, Note_on_c, 3, 53, 80
6, 2040, Note_on_c, 3, 44, 70
6, 2044, Note_on_c, 3, 53, 0
6, 2109, Note_on_c, 3, 44, 0
6, 2119, Note_on_c, 3, 53, 0
6, 2160, Note_on_c, 3, 56, 127
6, 2189, Note_on_c, 3, 56, 0
6, 2190, Note_on_c, 3, 53, 127
6, 2219, Note_on_c, 3, 53, 0
6, 2220, Note_on_c, 3, 53, 127
6, 2248, Note_on_c, 3, 63, 127
6, 2249, Note_on_c, 3, 53, 0
6, 2277, Note_on_c, 3, 63, 0
6, 2280, Note_on_c, 3, 60, 127
6, 2280, Note_on_c, 3, 67, 127
6, 2309, Note_on_c, 3, 60, 0
6, 2309, Note_on_c, 3, 67, 0
6, 2340, Note_on_c, 3, 65, 127
6, 2340, Note_on_c, 3, 70, 127
6, 2369, Note_on_c, 3, 65, 0
6, 2369, Note_on_c, 3, 70, 0
6, 2400, Note_on_c, 3, 56, 127
6, 2429, Note_on_c, 3, 56, 0
6, 2430, Note_on_c, 3, 53, 127
6, 2459, Note_on_c, 3, 53, 0
6, 2460, Note_on_c, 3, 53, 100
6, 2489, Note_on_c, 3, 53, 0
6, 2490, Note_on_c, 3, 53, 110
6, 2519, Note_on_c, 3, 53, 0
6, 2520, Note_on_c, 3, 53, 100
6, 2520, Note_on_c, 3, 44, 60
6, 2534, Note_on_c, 3, 44, 0
6, 2589, Note_on_c, 3, 53, 0
6, 2640, Note_on_c, 3, 56, 127
6, 2669, Note_on_c, 3, 56, 0
6, 2670, Note_on_c, 3, 53, 127
6, 2699, Note_on_c, 3, 53, 0
6, 2700, Note_on_c, 3, 53, 127
6, 2729, Note_on_c, 3, 53, 0
6, 2730, Note_on_c, 3, 63, 127
6, 2759, Note_on_c, 3, 63, 0
6, 2760, Note_on_c, 3, 60, 127
6, 2760, Note_on_c, 3, 67, 127
6, 2789, Note_on_c, 3, 60, 0
6, 2789, Note_on_c, 3, 67, 0
6, 2820, Note_on_c, 3, 65, 127
6, 2820, Note_on_c, 3, 70, 127
6, 2849, Note_on_c, 3, 65, 0
6, 2849, Note_on_c, 3, 70, 0
6, 2880, Note_on_c, 3, 56, 127
6, 2909, Note_on_c, 3, 56, 0
6, 2910, Note_on_c, 3, 53, 127
6, 2939, Note_on_c, 3, 53, 0
6, 2940, Note_on_c, 3, 53, 127
6, 2967, Note_on_c, 3, 53, 115
6, 2969, Note_on_c, 3, 53, 0
6, 2996, Note_on_c, 3, 53, 0
6, 3000, Note_on_c, 3, 53, 110
6, 3000, Note_on_c, 3, 44, 70
6, 3059, Note_on_c, 3, 44, 0
6, 3079, Note_on_c, 3, 53, 0
6, 3120, Note_on_c, 3, 56, 127
6, 3149, Note_on_c, 3, 56, 0
6, 3150, Note_on_c, 3, 53, 127
6, 3179, Note_on_c, 3, 53, 0
6, 3180, Note_on_c, 3, 53, 127
6, 3209, Note_on_c, 3, 53, 0
6, 3210, Note_on_c, 3, 63, 127
6, 3239, Note_on_c, 3, 63, 0
6, 3240, Note_on_c, 3, 60, 127
6, 3240, Note_on_c, 3, 67, 127
6, 3269, Note_on_c, 3, 60, 0
6, 3269, Note_on_c, 3, 67, 0
6, 3300, Note_on_c, 3, 65, 127
6, 3300, Note_on_c, 3, 70, 127
6, 3329, Note_on_c, 3, 65, 0
6, 3329, Note_on_c, 3, 70, 0
6, 3360, Note_on_c, 3, 56, 127
6, 3389, Note_on_c, 3, 56, 0
6, 3390, Note_on_c, 3, 53, 127
6, 3419, Note_on_c, 3, 53, 0
6, 3420, Note_on_c, 3, 53, 127
6, 3449, Note_on_c, 3, 53, 0
6, 3450, Note_on_c, 3, 60, 127
6, 3479, Note_on_c, 3, 60, 0
6, 3600, Note_on_c, 3, 56, 127
6, 3629, Note_on_c, 3, 56, 0
6, 3630, Note_on_c, 3, 53, 127
6, 3659, Note_on_c, 3, 53, 0
6, 3660, Note_on_c, 3, 53, 127
6, 3689, Note_on_c, 3, 53, 0
6, 3690, Note_on_c, 3, 63, 127
6, 3719, Note_on_c, 3, 63, 0
6, 3720, Note_on_c, 3, 60, 127
6, 3720, Note_on_c, 3, 67, 127
6, 3749, Note_on_c, 3, 60, 0
6, 3749, Note_on_c, 3, 67, 0
6, 3780, Note_on_c, 3, 65, 127
6, 3780, Note_on_c, 3, 70, 127
6, 3809, Note_on_c, 3, 65, 0
6, 3809, Note_on_c, 3, 70, 0
6, 3840, Note_on_c, 3, 56, 127
6, 3869, Note_on_c, 3, 56, 0
6, 3870, Note_on_c, 3, 53, 127
6, 3899, Note_on_c, 3, 53, 0
6, 3900, Note_on_c, 3, 53, 127
6, 3929, Note_on_c, 3, 53, 0
6, 3930, Note_on_c, 3, 60, 127
6, 3959, Note_on_c, 3, 60, 0
6, 4080, Note_on_c, 3, 56, 127
6, 4109, Note_on_c, 3, 56, 0
6, 4110, Note_on_c, 3, 53, 127
6, 4139, Note_on_c, 3, 53, 0
6, 4140, Note_on_c, 3, 53, 127
6, 4169, Note_on_c, 3, 53, 0
6, 4170, Note_on_c, 3, 63, 127
6, 4199, Note_on_c, 3, 63, 0
6, 4200, Note_on_c, 3, 60, 127
6, 4200, Note_on_c, 3, 67, 127
6, 4229, Note_on_c, 3, 60, 0
6, 4229, Note_on_c, 3, 67, 0
6, 4260, Note_on_c, 3, 65, 127
6, 4260, Note_on_c, 3, 70, 127
6, 4289, Note_on_c, 3, 65, 0
6, 4289, Note_on_c, 3, 70, 0
6, 4320, Note_on_c, 3, 56, 127
6, 4349, Note_on_c, 3, 56, 0
6, 4350, Note_on_c, 3, 53, 127
6, 4379, Note_on_c, 3, 53, 0
6, 4380, Note_on_c, 3, 53, 127
6, 4409, Note_on_c, 3, 53, 0
6, 4410, Note_on_c, 3, 60, 127
6, 4439, Note_on_c, 3, 60, 0
6, 4560, Note_on_c, 3, 56, 127
6, 4589, Note_on_c, 3, 56, 0
6, 4590, Note_on_c, 3, 53, 127
6, 4619, Note_on_c, 3, 53, 0
6, 4620, Note_on_c, 3, 53, 127
6, 4649, Note_on_c, 3, 53, 0
6, 4650, Note_on_c, 3, 63, 127
6, 4679, Note_on_c, 3, 63, 0
6, 4680, Note_on_c, 3, 60, 127
6, 4680, Note_on_c, 3, 67, 127
6, 4709, Note_on_c, 3, 60, 0
6, 4709, Note_on_c, 3, 67, 0
6, 4740, Note_on_c, 3, 65, 127
6, 4740, Note_on_c, 3, 70, 127
6, 4769, Note_on_c, 3, 65, 0
6, 4769, Note_on_c, 3, 70, 0
6, 4800, Note_on_c, 3, 56, 127
6, 4829, Note_on_c, 3, 56, 0
6, 4830, Note_on_c, 3, 53, 127
6, 4859, Note_on_c, 3, 53, 0
6, 4860, Note_on_c, 3, 53, 127
6, 4889, Note_on_c, 3, 53, 0
6, 4890, Note_on_c, 3, 60, 127
6, 4919, Note_on_c, 3, 60, 0
6, 5040, Note_on_c, 3, 56, 127
6, 5069, Note_on_c, 3, 56, 0
6, 5070, Note_on_c, 3, 53, 127
6, 5099, Note_on_c, 3, 53, 0
6, 5100, Note_on_c, 3, 53, 127
6, 5129, Note_on_c, 3, 53, 0
6, 5130, Note_on_c, 3, 63, 127
6, 5159, Note_on_c, 3, 63, 0
6, 5160, Note_on_c, 3, 60, 127
6, 5160, Note_on_c, 3, 67, 127
6, 5189, Note_on_c, 3, 60, 0
6, 5189, Note_on_c, 3, 67, 0
6, 5220, Note_on_c, 3, 65, 127
6, 5220, Note_on_c, 3, 70, 127
6, 5249, Note_on_c, 3, 65, 0
6, 5249, Note_on_c, 3, 70, 0
6, 5280, Note_on_c, 3, 56, 127
6, 5309, Note_on_c, 3, 56, 0
6, 5310, Note_on_c, 3, 53, 127
6, 5339, Note_on_c, 3, 53, 0
6, 5340, Note_on_c, 3, 53, 127
6, 5369, Note_on_c, 3, 53, 0
6, 5370, Note_on_c, 3, 60, 127
6, 5399, Note_on_c, 3, 60, 0
6, 5520, Note_on_c, 3, 56, 127
6, 5549, Note_on_c, 3, 56, 0
6, 5550, Note_on_c, 3, 53, 127
6, 5579, Note_on_c, 3, 53, 0
6, 5580, Note_on_c, 3, 53, 127
6, 5609, Note_on_c, 3, 53, 0
6, 5610, Note_on_c, 3, 63, 127
6, 5639, Note_on_c, 3, 63, 0
6, 5640, Note_on_c, 3, 60, 127
6, 5640, Note_on_c, 3, 67, 127
6, 5669, Note_on_c, 3, 60, 0
6, 5669, Note_on_c, 3, 67, 0
6, 5700, Note_on_c, 3, 65, 127
6, 5700, Note_on_c, 3, 70, 127
6, 5729, Note_on_c, 3, 65, 0
6, 5729, Note_on_c, 3, 70, 0
6, 5760, Note_on_c, 3, 56, 127
6, 5789, Note_on_c, 3, 56, 0
6, 5790, Note_on_c, 3, 53, 127
6, 5819, Note_on_c, 3, 53, 0
6, 5820, Note_on_c, 3, 53, 127
6, 5849, Note_on_c, 3, 53, 0
6, 5850, Note_on_c, 3, 60, 127
6, 5879, Note_on_c, 3, 60, 0
6, 6000, Note_on_c, 3, 56, 127
6, 6029, Note_on_c, 3, 56, 0
6, 6030, Note_on_c, 3, 53, 127
6, 6059, Note_on_c, 3, 53, 0
6, 6060, Note_on_c, 3, 53, 127
6, 6089, Note_on_c, 3, 53, 0
6, 6090, Note_on_c, 3, 63, 127
6, 6119, Note_on_c, 3, 63, 0
6, 6120, Note_on_c, 3, 60, 127
6, 6120, Note_on_c, 3, 67, 127
6, 6149, Note_on_c, 3, 60, 0
6, 6149, Note_on_c, 3, 67, 0
6, 6180, Note_on_c, 3, 65, 127
6, 6180, Note_on_c, 3, 70, 127
6, 6209, Note_on_c, 3, 65, 0
6, 6209, Note_on_c, 3, 70, 0
6, 6240, Note_on_c, 3, 56, 127
6, 6269, Note_on_c, 3, 56, 0
6, 6270, Note_on_c, 3, 53, 127
6, 6299, Note_on_c, 3, 53, 0
6, 6300, Note_on_c, 3, 53, 127
6, 6329, Note_on_c, 3, 53, 0
6, 6330, Note_on_c, 3, 60, 127
6, 6359, Note_on_c, 3, 60, 0
6, 6480, Note_on_c, 3, 56, 127
6, 6509, Note_on_c, 3, 56, 0
6, 6510, Note_on_c, 3, 53, 127
6, 6539, Note_on_c, 3, 53, 0
6, 6540, Note_on_c, 3, 53, 127
6, 6569, Note_on_c, 3, 53, 0
6, 6570, Note_on_c, 3, 63, 127
6, 6599, Note_on_c, 3, 63, 0
6, 6600, Note_on_c, 3, 60, 127
6, 6600, Note_on_c, 3, 67, 127
6, 6629, Note_on_c, 3, 60, 0
6, 6629, Note_on_c, 3, 67, 0
6, 6660, Note_on_c, 3, 65, 127
6, 6660, Note_on_c, 3, 70, 127
6, 6689, Note_on_c, 3, 65, 0
6, 6689, Note_on_c, 3, 70, 0
6, 6720, Note_on_c, 3, 56, 127
6, 6749, Note_on_c, 3, 56, 0
6, 6750, Note_on_c, 3, 53, 127
6, 6779, Note_on_c, 3, 53, 0
6, 6780, Note_on_c, 3, 53, 127
6, 6809, Note_on_c, 3, 53, 0
6, 6810, Note_on_c, 3, 60, 127
6, 6839, Note_on_c, 3, 60, 0
6, 6960, Note_on_c, 3, 56, 127
6, 6989, Note_on_c, 3, 56, 0
6, 6990, Note_on_c, 3, 53, 127
6, 7019, Note_on_c, 3, 53, 0
6, 7020, Note_on_c, 3, 53, 127
6, 7049, Note_on_c, 3, 53, 0
6, 7050, Note_on_c, 3, 63, 127
6, 7079, Note_on_c, 3, 63, 0
6, 7080, Note_on_c, 3, 60, 127
6, 7080, Note_on_c, 3, 67, 127
6, 7109, Note_on_c, 3, 60, 0
6, 7109, Note_on_c, 3, 67, 0
6, 7140, Note_on_c, 3, 65, 127
6, 7140, Note_on_c, 3, 70, 127
6, 7169, Note_on_c, 3, 65, 0
6, 7169, Note_on_c, 3, 70, 0
6, 7200, Note_on_c, 3, 56, 127
6, 7229, Note_on_c, 3, 56, 0
6, 7230, Note_on_c, 3, 53, 127
6, 7259, Note_on_c, 3, 53, 0
6, 7260, Note_on_c, 3, 53, 127
6, 7289, Note_on_c, 3, 53, 0
6, 7290, Note_on_c, 3, 60, 127
6, 7319, Note_on_c, 3, 60, 0
6, 7440, Note_on_c, 3, 56, 127
6, 7469, Note_on_c, 3, 56, 0
6, 7470, Note_on_c, 3, 53, 127
6, 7499, Note_on_c, 3, 53, 0
6, 7500, Note_on_c, 3, 53, 127
6, 7529, Note_on_c, 3, 53, 0
6, 7530, Note_on_c, 3, 63, 127
6, 7559, Note_on_c, 3, 63, 0
6, 7560, Note_on_c, 3, 60, 127
6, 7560, Note_on_c, 3, 67, 127
6, 7589, Note_on_c, 3, 60, 0
6, 7589, Note_on_c, 3, 67, 0
6, 7620, Note_on_c, 3, 65, 127
6, 7620, Note_on_c, 3, 70, 127
6, 7649, Note_on_c, 3, 65, 0
6, 7649, Note_on_c, 3, 70, 0
6, 7680, Note_on_c, 3, 56, 127
6, 7709, Note_on_c, 3, 56, 0
6, 7710, Note_on_c, 3, 53, 127
6, 7739, Note_on_c, 3, 53, 0
6, 7740, Note_on_c, 3, 53, 127
6, 7769, Note_on_c, 3, 53, 0
6, 7770, Note_on_c, 3, 60, 127
6, 7799, Note_on_c, 3, 60, 0
6, 7920, Note_on_c, 3, 56, 127
6, 7949, Note_on_c, 3, 56, 0
6, 7950, Note_on_c, 3, 53, 127
6, 7979, Note_on_c, 3, 53, 0
6, 7980, Note_on_c, 3, 53, 127
6, 8009, Note_on_c, 3, 53, 0
6, 8010, Note_on_c, 3, 63, 127
6, 8039, Note_on_c, 3, 63, 0
6, 8040, Note_on_c, 3, 60, 127
6, 8040, Note_on_c, 3, 67, 127
6, 8069, Note_on_c, 3, 60, 0
6, 8069, Note_on_c, 3, 67, 0
6, 8100, Note_on_c, 3, 65, 127
6, 8100, Note_on_c, 3, 70, 127
6, 8129, Note_on_c, 3, 65, 0
6, 8129, Note_on_c, 3, 70, 0
6, 8160, Note_on_c, 3, 56, 127
6, 8189, Note_on_c, 3, 56, 0
6, 8190, Note_on_c, 3, 53, 127
6, 8219, Note_on_c, 3, 53, 0
6, 8220, Note_on_c, 3, 53, 127
6, 8249, Note_on_c, 3, 53, 0
6, 8250, Note_on_c, 3, 60, 127
6, 8279, Note_on_c, 3, 60, 0
6, 8400, Note_on_c, 3, 56, 127
6, 8429, Note_on_c, 3, 56, 0
6, 8430, Note_on_c, 3, 53, 127
6, 8459, Note_on_c, 3, 53, 0
6, 8460, Note_on_c, 3, 53, 127
6, 8489, Note_on_c, 3, 53, 0
6, 8490, Note_on_c, 3, 63, 127
6, 8519, Note_on_c, 3, 63, 0
6, 8520, Note_on_c, 3, 60, 127
6, 8520, Note_on_c, 3, 67, 127
6, 8549, Note_on_c, 3, 60, 0
6, 8549, Note_on_c, 3, 67, 0
6, 8580, Note_on_c, 3, 65, 127
6, 8580, Note_on_c, 3, 70, 127
6, 8609, Note_on_c, 3, 65, 0
6, 8609, Note_on_c, 3, 70, 0
6, 8640, Note_on_c, 3, 56, 127
6, 8669, Note_on_c, 3, 56, 0
6, 8670, Note_on_c, 3, 53, 127
6, 8699, Note_on_c, 3, 53, 0
6, 8700, Note_on_c, 3, 53, 127
6, 8729, Note_on_c, 3, 53, 0
6, 8730, Note_on_c, 3, 60, 127
6, 8759, Note_on_c, 3, 60, 0
6, 8880, Note_on_c, 3, 56, 127
6, 8909, Note_on_c, 3, 56, 0
6, 8910, Note_on_c, 3, 53, 127
6, 8939, Note_on_c, 3, 53, 0
6, 8940, Note_on_c, 3, 53, 127
6, 8969, Note_on_c, 3, 53, 0
6, 8970, Note_on_c, 3, 63, 127
6, 8999, Note_on_c, 3, 63, 0
6, 9000, Note_on_c, 3, 60, 127
6, 9000, Note_on_c, 3, 67, 127
6, 9029, Note_on_c, 3, 60, 0
6, 9029, Note_on_c, 3, 67, 0
6, 9060, Note_on_c, 3, 65, 127
6, 9060, Note_on_c, 3, 70, 127
6, 9089, Note_on_c, 3, 65, 0
6, 9089, Note_on_c, 3, 70, 0
6, 9120, Note_on_c, 3, 56, 127
6, 9149, Note_on_c, 3, 56, 0
6, 9150, Note_on_c, 3, 53, 127
6, 9179, Note_on_c, 3, 53, 0
6, 9180, Note_on_c, 3, 53, 127
6, 9209, Note_on_c, 3, 53, 0
6, 9210, Note_on_c, 3, 60, 127
6, 9239, Note_on_c, 3, 60, 0
6, 9360, Note_on_c, 3, 56, 127
6, 9389, Note_on_c, 3, 56, 0
6, 9390, Note_on_c, 3, 53, 127
6, 9419, Note_on_c, 3, 53, 0
6, 9420, Note_on_c, 3, 53, 127
6, 9449, Note_on_c, 3, 53, 0
6, 9450, Note_on_c, 3, 63, 127
6, 9479, Note_on_c, 3, 63, 0
6, 9480, Note_on_c, 3, 60, 127
6, 9480, Note_on_c, 3, 67, 127
6, 9509, Note_on_c, 3, 60, 0
6, 9509, Note_on_c, 3, 67, 0
6, 9540, Note_on_c, 3, 65, 127
6, 9540, Note_on_c, 3, 70, 127
6, 9569, Note_on_c, 3, 65, 0
6, 9569, Note_on_c, 3, 70, 0
6, 9600, Note_on_c, 3, 56, 127
6, 9629, Note_on_c, 3, 56, 0
6, 9630, Note_on_c, 3, 53, 127
6, 9659, Note_on_c, 3, 53, 0
6, 9660, Note_on_c, 3, 53, 127
6, 9689, Note_on_c, 3, 53, 0
6, 9690, Note_on_c, 3, 60, 127
6, 9719, Note_on_c, 3, 60, 0
6, 9840, Note_on_c, 3, 56, 127
6, 9869, Note_on_c, 3, 56, 0
6, 9870, Note_on_c, 3, 53, 127
6, 9899, Note_on_c, 3, 53, 0
6, 9900, Note_on_c, 3, 53, 127
6, 9929, Note_on_c, 3, 53, 0
6, 9930, Note_on_c, 3, 63, 127
6, 9959, Note_on_c, 3, 63, 0
6, 9960, Note_on_c, 3, 60, 127
6, 9960, Note_on_c, 3, 67, 127
6, 9989, Note_on_c, 3, 60, 0
6, 9989, Note_on_c, 3, 67, 0
6, 10020, Note_on_c, 3, 65, 127
6, 10020, Note_on_c, 3, 70, 127
6, 10049, Note_on_c, 3, 65, 0
6, 10049, Note_on_c, 3, 70, 0
6, 10080, Note_on_c, 3, 56, 127
6, 10109, Note_on_c, 3, 56, 0
6, 10110, Note_on_c, 3, 53, 127
6, 10139, Note_on_c, 3, 53, 0
6, 10140, Note_on_c, 3, 53, 127
6, 10169, Note_on_c, 3, 53, 0
6, 10170, Note_on_c, 3, 60, 127
6, 10199, Note_on_c, 3, 60, 0
6, 10320, Note_on_c, 3, 56, 127
6, 10349, Note_on_c, 3, 56, 0
6, 10350, Note_on_c, 3, 53, 127
6, 10379, Note_on_c, 3, 53, 0
6, 10380, Note_on_c, 3, 53, 127
6, 10409, Note_on_c, 3, 53, 0
6, 10410, Note_on_c, 3, 63, 127
6, 10439, Note_on_c, 3, 63, 0
6, 10440, Note_on_c, 3, 60, 127
6, 10440, Note_on_c, 3, 67, 127
6, 10469, Note_on_c, 3, 60, 0
6, 10469, Note_on_c, 3, 67, 0
6, 10500, Note_on_c, 3, 65, 127
6, 10500, Note_on_c, 3, 70, 127
6, 10529, Note_on_c, 3, 65, 0
6, 10529, Note_on_c, 3, 70, 0
6, 10560, Note_on_c, 3, 61, 127
6, 10560, Note_on_c, 3, 68, 127
6, 10560, Note_on_c, 3, 73, 127
6, 10589, Note_on_c, 3, 61, 0
6, 10589, Note_on_c, 3, 68, 0
6, 10589, Note_on_c, 3, 73, 0
6, 10590, Note_on_c, 3, 61, 127
6, 10590, Note_on_c, 3, 68, 127
6, 10590, Note_on_c, 3, 73, 127
6, 10619, Note_on_c, 3, 61, 0
6, 10619, Note_on_c, 3, 68, 0
6, 10619, Note_on_c, 3, 73, 0
6, 10620, Note_on_c, 3, 61, 127
6, 10620, Note_on_c, 3, 68, 127
6, 10620, Note_on_c, 3, 73, 127
6, 10649, Note_on_c, 3, 61, 0
6, 10649, Note_on_c, 3, 68, 0
6, 10649, Note_on_c, 3, 73, 0
6, 10650, Note_on_c, 3, 61, 127
6, 10650, Note_on_c, 3, 68, 127
6, 10650, Note_on_c, 3, 73, 127
6, 10679, Note_on_c, 3, 61, 0
6, 10679, Note_on_c, 3, 68, 0
6, 10679, Note_on_c, 3, 73, 0
6, 10680, Note_on_c, 3, 68, 127
6, 10680, Note_on_c, 3, 73, 127
6, 10680, Note_on_c, 3, 61, 127
6, 10737, Note_on_c, 3, 68, 0
6, 10737, Note_on_c, 3, 73, 0
6, 10737, Note_on_c, 3, 61, 0
6, 10740, Note_on_c, 3, 61, 127
6, 10740, Note_on_c, 3, 73, 127
6, 10740, Note_on_c, 3, 68, 127
6, 10769, Note_on_c, 3, 61, 0
6, 10769, Note_on_c, 3, 73, 0
6, 10769, Note_on_c, 3, 68, 0
6, 10770, Note_on_c, 3, 61, 127
6, 10770, Note_on_c, 3, 73, 127
6, 10770, Note_on_c, 3, 68, 127
6, 10799, Note_on_c, 3, 61, 0
6, 10799, Note_on_c, 3, 73, 0
6, 10799, Note_on_c, 3, 68, 0
6, 10800, Note_on_c, 3, 68, 127
6, 10800, Note_on_c, 3, 74, 127
6, 10800, Note_on_c, 3, 62, 127
6, 10829, Note_on_c, 3, 68, 0
6, 10829, Note_on_c, 3, 74, 0
6, 10829, Note_on_c, 3, 62, 0
6, 10830, Note_on_c, 3, 75, 127
6, 10830, Note_on_c, 3, 63, 127
6, 10830, Note_on_c, 3, 70, 127
6, 10859, Note_on_c, 3, 75, 0
6, 10859, Note_on_c, 3, 63, 0
6, 10859, Note_on_c, 3, 70, 0
6, 10860, Note_on_c, 3, 63, 127
6, 10860, Note_on_c, 3, 75, 127
6, 10860, Note_on_c, 3, 70, 127
6, 10889, Note_on_c, 3, 63, 0
6, 10889, Note_on_c, 3, 75, 0
6, 10889, Note_on_c, 3, 70, 0
6, 10890, Note_on_c, 3, 63, 127
6, 10890, Note_on_c, 3, 75, 127
6, 10890, Note_on_c, 3, 70, 127
6, 10919, Note_on_c, 3, 63, 0
6, 10919, Note_on_c, 3, 75, 0
6, 10919, Note_on_c, 3, 70, 0
6, 10920, Note_on_c, 3, 63, 127
6, 10920, Note_on_c, 3, 75, 127
6, 10920, Note_on_c, 3, 70, 127
6, 11034, Note_on_c, 3, 63, 0
6, 11034, Note_on_c, 3, 75, 0
6, 11034, Note_on_c, 3, 70, 0
6, 11040, Note_on_c, 3, 65, 127
6, 11069, Note_on_c, 3, 65, 0
6, 11070, Note_on_c, 3, 56, 127
6, 11070, Note_on_c, 3, 63, 127
6, 11156, Note_on_c, 3, 56, 0
6, 11156, Note_on_c, 3, 63, 0
6, 11160, Note_on_c, 3, 65, 127
6, 11189, Note_on_c, 3, 65, 0
6, 11190, Note_on_c, 3, 53, 127
6, 11190, Note_on_c, 3, 60, 127
6, 11276, Note_on_c, 3, 53, 0
6, 11276, Note_on_c, 3, 60, 0
6, 11280, Note_on_c, 3, 65, 127
6, 11309, Note_on_c, 3, 65, 0
6, 11310, Note_on_c, 3, 56, 127
6, 11310, Note_on_c, 3, 63, 127
6, 11396, Note_on_c, 3, 56, 0
6, 11396, Note_on_c, 3, 63, 0
6, 11400, Note_on_c, 3, 65, 127
6, 11429, Note_on_c, 3, 65, 0
6, 11430, Note_on_c, 3, 53, 127
6, 11430, Note_on_c, 3, 60, 127
6, 11516, Note_on_c, 3, 53, 0
6, 11516, Note_on_c, 3, 60, 0
6, 11520, Note_on_c, 3, 61, 127
6, 11520, Note_on_c, 3, 68, 127
6, 11520, Note_on_c, 3, 73, 127
6, 11549, Note_on_c, 3, 61, 0
6, 11549, Note_on_c, 3, 68, 0
6, 11549, Note_on_c, 3, 73, 0
6, 11550, Note_on_c, 3, 61, 127
6, 11550, Note_on_c, 3, 68, 127
6, 11550, Note_on_c, 3, 73, 127
6, 11579, Note_on_c, 3, 61, 0
6, 11579, Note_on_c, 3, 68, 0
6, 11579, Note_on_c, 3, 73, 0
6, 11580, Note_on_c, 3, 61, 127
6, 11580, Note_on_c, 3, 68, 127
6, 11580, Note_on_c, 3, 73, 127
6, 11609, Note_on_c, 3, 61, 0
6, 11609, Note_on_c, 3, 68, 0
6, 11609, Note_on_c, 3, 73, 0
6, 11610, Note_on_c, 3, 61, 127
6, 11610, Note_on_c, 3, 68, 127
6, 11610, Note_on_c, 3, 73, 127
6, 11639, Note_on_c, 3, 61, 0
6, 11639, Note_on_c, 3, 68, 0
6, 11639, Note_on_c, 3, 73, 0
6, 11640, Note_on_c, 3, 68, 127
6, 11640, Note_on_c, 3, 73, 127
6, 11640, Note_on_c, 3, 61, 127
6, 11697, Note_on_c, 3, 68, 0
6, 11697, Note_on_c, 3, 73, 0
6, 11697, Note_on_c, 3, 61, 0
6, 11700, Note_on_c, 3, 61, 127
6, 11700, Note_on_c, 3, 73, 127
6, 11700, Note_on_c, 3, 68, 127
6, 11729, Note_on_c, 3, 61, 0
6, 11729, Note_on_c, 3, 73, 0
6, 11729, Note_on_c, 3, 68, 0
6, 11730, Note_on_c, 3, 61, 127
6, 11730, Note_on_c, 3, 73, 127
6, 11730, Note_on_c, 3, 68, 127
6, 11759, Note_on_c, 3, 61, 0
6, 11759, Note_on_c, 3, 73, 0
6, 11759, Note_on_c, 3, 68, 0
6, 11760, Note_on_c, 3, 68, 127
6, 11760, Note_on_c, 3, 74, 127
6, 11760, Note_on_c, 3, 62, 127
6, 11789, Note_on_c, 3, 68, 0
6, 11789, Note_on_c, 3, 74, 0
6, 11789, Note_on_c, 3, 62, 0
6, 11790, Note_on_c, 3, 75, 127
6, 11790, Note_on_c, 3, 63, 127
6, 11790, Note_on_c, 3, 70, 127
6, 11819, Note_on_c, 3, 75, 0
6, 11819, Note_on_c, 3, 63, 0
6, 11819, Note_on_c, 3, 70, 0
6, 11820, Note_on_c, 3, 63, 127
6, 11820, Note_on_c, 3, 75, 127
6, 11820, Note_on_c, 3, 70, 127
6, 11849, Note_on_c, 3, 63, 0
6, 11849, Note_on_c, 3, 75, 0
6, 11849, Note_on_c, 3, 70, 0
6, 11850, Note_on_c, 3, 63, 127
6, 11850, Note_on_c, 3, 75, 127
6, 11850, Note_on_c, 3, 70, 127
6, 11879, Note_on_c, 3, 63, 0
6, 11879, Note_on_c, 3, 75, 0
6, 11879, Note_on_c, 3, 70, 0
6, 11880, Note_on_c, 3, 63, 127
6, 11880, Note_on_c, 3, 75, 127
6, 11880, Note_on_c, 3, 70, 127
6, 11994, Note_on_c, 3, 63, 0
6, 11994, Note_on_c, 3, 75, 0
6, 11994, Note_on_c, 3, 70, 0
6, 12000, Note_on_c, 3, 65, 127
6, 12029, Note_on_c, 3, 65, 0
6, 12030, Note_on_c, 3, 56, 127
6, 12030, Note_on_c, 3, 63, 127
6, 12116, Note_on_c, 3, 56, 0
6, 12116, Note_on_c, 3, 63, 0
6, 12120, Note_on_c, 3, 65, 127
6, 12149, Note_on_c, 3, 65, 0
6, 12150, Note_on_c, 3, 53, 127
6, 12150, Note_on_c, 3, 60, 127
6, 12236, Note_on_c, 3, 53, 0
6, 12236, Note_on_c, 3, 60, 0
6, 12240, Note_on_c, 3, 65, 127
6, 12269, Note_on_c, 3, 65, 0
6, 12270, Note_on_c, 3, 56, 127
6, 12270, Note_on_c, 3, 63, 127
6, 12356, Note_on_c, 3, 56, 0
6, 12356, Note_on_c, 3, 63, 0
6, 12360, Note_on_c, 3, 65, 127
6, 12389, Note_on_c, 3, 65, 0
6, 12390, Note_on_c, 3, 53, 127
6, 12390, Note_on_c, 3, 60, 127
6, 12480, Control_c, 3, 7, 99
6, 12485, Control_c, 3, 7, 98
6, 12491, Control_c, 3, 7, 97
6, 12497, Control_c, 3, 7, 96
6, 12502, Control_c, 3, 7, 95
6, 12508, Control_c, 3, 7, 94
6, 12514, Control_c, 3, 7, 93
6, 12518, Control_c, 3, 7, 92
6, 12524, Control_c, 3, 7, 91
6, 12530, Control_c, 3, 7, 90
6, 12535, Control_c, 3, 7, 89
6, 12541, Control_c, 3, 7, 88
6, 12547, Control_c, 3, 7, 87
6, 12551, Control_c, 3, 7, 86
6, 12557, Control_c, 3, 7, 85
6, 12562, Control_c, 3, 7, 84
6, 12568, Control_c, 3, 7, 83
6, 12574, Control_c, 3, 7, 82
6, 12580, Control_c, 3, 7, 81
6, 12584, Control_c, 3, 7, 80
6, 12590, Control_c, 3, 7, 79
6, 12595, Control_c, 3, 7, 78
6, 12601, Control_c, 3, 7, 77
6, 12607, Control_c, 3, 7, 76
6, 12612, Control_c, 3, 7, 75
6, 12617, Control_c, 3, 7, 74
6, 12622, Control_c, 3, 7, 73
6, 12628, Control_c, 3, 7, 72
6, 12634, Control_c, 3, 7, 71
6, 12640, Control_c, 3, 7, 70
6, 12645, Control_c, 3, 7, 69
6, 12650, Control_c, 3, 7, 68
6, 12655, Control_c, 3, 7, 67
6, 12661, Control_c, 3, 7, 66
6, 12667, Control_c, 3, 7, 65
6, 12672, Control_c, 3, 7, 64
6, 12678, Control_c, 3, 7, 63
6, 12682, Control_c, 3, 7, 62
6, 12688, Control_c, 3, 7, 61
6, 12694, Control_c, 3, 7, 60
6, 12700, Control_c, 3, 7, 59
6, 12705, Control_c, 3, 7, 58
6, 12711, Control_c, 3, 7, 57
6, 12715, Control_c, 3, 7, 56
6, 12721, Control_c, 3, 7, 55
6, 12727, Control_c, 3, 7, 54
6, 12732, Control_c, 3, 7, 53
6, 12738, Control_c, 3, 7, 52
6, 12744, Control_c, 3, 7, 51
6, 12748, Control_c, 3, 7, 50
6, 12754, Control_c, 3, 7, 49
6, 12760, Control_c, 3, 7, 48
6, 12765, Control_c, 3, 7, 47
6, 12771, Control_c, 3, 7, 46
6, 12777, Control_c, 3, 7, 45
6, 12781, Control_c, 3, 7, 44
6, 12787, Control_c, 3, 7, 43
6, 12792, Control_c, 3, 7, 42
6, 12798, Control_c, 3, 7, 41
6, 12804, Control_c, 3, 7, 40
6, 12810, Control_c, 3, 7, 39
6, 12814, Control_c, 3, 7, 38
6, 12820, Control_c, 3, 7, 37
6, 12825, Control_c, 3, 7, 36
6, 12831, Control_c, 3, 7, 35
6, 12837, Control_c, 3, 7, 34
6, 12842, Control_c, 3, 7, 33
6, 12847, Control_c, 3, 7, 32
6, 12852, Control_c, 3, 7, 31
6, 12858, Control_c, 3, 7, 30
6, 12864, Control_c, 3, 7, 29
6, 12870, Control_c, 3, 7, 28
6, 12875, Control_c, 3, 7, 27
6, 12880, Control_c, 3, 7, 26
6, 12885, Control_c, 3, 7, 25
6, 12891, Control_c, 3, 7, 24
6, 12897, Control_c, 3, 7, 23
6, 12902, Control_c, 3, 7, 22
6, 12908, Control_c, 3, 7, 21
6, 12912, Control_c, 3, 7, 20
6, 12931, Note_on_c, 3, 53, 0
6, 12931, Note_on_c, 3, 60, 0
6, 12960, Note_on_c, 3, 56, 127
6, 12960, Control_c, 3, 7, 94
6, 12989, Note_on_c, 3, 56, 0
6, 12990, Note_on_c, 3, 53, 127
6, 13019, Note_on_c, 3, 53, 0
6, 13020, Note_on_c, 3, 53, 127
6, 13049, Note_on_c, 3, 53, 0
6, 13050, Note_on_c, 3, 60, 127
6, 13079, Note_on_c, 3, 60, 0
6, 13080, Note_on_c, 3, 60, 127
6, 13080, Note_on_c, 3, 67, 127
6, 13137, Note_on_c, 3, 60, 0
6, 13137, Note_on_c, 3, 67, 0
6, 13140, Note_on_c, 3, 60, 127
6, 13140, Note_on_c, 3, 67, 127
6, 13169, Note_on_c, 3, 60, 0
6, 13169, Note_on_c, 3, 67, 0
6, 13170, Note_on_c, 3, 60, 127
6, 13170, Note_on_c, 3, 67, 127
6, 13199, Note_on_c, 3, 60, 0
6, 13199, Note_on_c, 3, 67, 0
6, 13200, Note_on_c, 3, 56, 127
6, 13229, Note_on_c, 3, 56, 0
6, 13230, Note_on_c, 3, 53, 127
6, 13259, Note_on_c, 3, 53, 0
6, 13260, Note_on_c, 3, 53, 127
6, 13289, Note_on_c, 3, 53, 0
6, 13290, Note_on_c, 3, 60, 127
6, 13319, Note_on_c, 3, 60, 0
6, 13320, Note_on_c, 3, 60, 127
6, 13320, Note_on_c, 3, 65, 127
6, 13377, Note_on_c, 3, 60, 0
6, 13377, Note_on_c, 3, 65, 0
6, 13380, Note_on_c, 3, 60, 127
6, 13380, Note_on_c, 3, 65, 127
6, 13409, Note_on_c, 3, 60, 0
6, 13409, Note_on_c, 3, 65, 0
6, 13410, Note_on_c, 3, 60, 127
6, 13410, Note_on_c, 3, 65, 127
6, 13439, Note_on_c, 3, 60, 0
6, 13439, Note_on_c, 3, 65, 0
6, 13440, Note_on_c, 3, 56, 127
6, 13469, Note_on_c, 3, 56, 0
6, 13470, Note_on_c, 3, 53, 127
6, 13499, Note_on_c, 3, 53, 0
6, 13500, Note_on_c, 3, 53, 127
6, 13529, Note_on_c, 3, 53, 0
6, 13530, Note_on_c, 3, 60, 127
6, 13559, Note_on_c, 3, 60, 0
6, 13560, Note_on_c, 3, 60, 127
6, 13560, Note_on_c, 3, 65, 127
6, 13617, Note_on_c, 3, 60, 0
6, 13617, Note_on_c, 3, 65, 0
6, 13620, Note_on_c, 3, 60, 127
6, 13620, Note_on_c, 3, 65, 127
6, 13649, Note_on_c, 3, 60, 0
6, 13649, Note_on_c, 3, 65, 0
6, 13650, Note_on_c, 3, 60, 127
6, 13650, Note_on_c, 3, 65, 127
6, 13679, Note_on_c, 3, 60, 0
6, 13679, Note_on_c, 3, 65, 0
6, 13680, Note_on_c, 3, 56, 127
6, 13709, Note_on_c, 3, 56, 0
6, 13710, Note_on_c, 3, 53, 127
6, 13739, Note_on_c, 3, 53, 0
6, 13740, Note_on_c, 3, 53, 127
6, 13769, Note_on_c, 3, 53, 0
6, 13770, Note_on_c, 3, 60, 127
6, 13799, Note_on_c, 3, 60, 0
6, 13800, Note_on_c, 3, 60, 127
6, 13800, Note_on_c, 3, 65, 127
6, 13857, Note_on_c, 3, 60, 0
6, 13857, Note_on_c, 3, 65, 0
6, 13860, Note_on_c, 3, 65, 127
6, 13860, Note_on_c, 3, 70, 127
6, 13889, Note_on_c, 3, 65, 0
6, 13889, Note_on_c, 3, 70, 0
6, 13890, Note_on_c, 3, 65, 127
6, 13890, Note_on_c, 3, 70, 127
6, 13919, Note_on_c, 3, 65, 0
6, 13919, Note_on_c, 3, 70, 0
6, 13920, Note_on_c, 3, 56, 127
6, 13949, Note_on_c, 3, 56, 0
6, 13950, Note_on_c, 3, 53, 127
6, 13979, Note_on_c, 3, 53, 0
6, 13980, Note_on_c, 3, 53, 127
6, 14009, Note_on_c, 3, 53, 0
6, 14010, Note_on_c, 3, 60, 127
6, 14039, Note_on_c, 3, 60, 0
6, 14040, Note_on_c, 3, 60, 127
6, 14040, Note_on_c, 3, 67, 127
6, 14097, Note_on_c, 3, 60, 0
6, 14097, Note_on_c, 3, 67, 0
6, 14100, Note_on_c, 3, 60, 127
6, 14100, Note_on_c, 3, 67, 127
6, 14129, Note_on_c, 3, 60, 0
6, 14129, Note_on_c, 3, 67, 0
6, 14130, Note_on_c, 3, 60, 127
6, 14130, Note_on_c, 3, 67, 127
6, 14159, Note_on_c, 3, 60, 0
6, 14159, Note_on_c, 3, 67, 0
6, 14160, Note_on_c, 3, 56, 127
6, 14189, Note_on_c, 3, 56, 0
6, 14190, Note_on_c, 3, 53, 127
6, 14219, Note_on_c, 3, 53, 0
6, 14220, Note_on_c, 3, 53, 127
6, 14249, Note_on_c, 3, 53, 0
6, 14250, Note_on_c, 3, 60, 127
6, 14279, Note_on_c, 3, 60, 0
6, 14280, Note_on_c, 3, 60, 127
6, 14280, Note_on_c, 3, 65, 127
6, 14337, Note_on_c, 3, 60, 0
6, 14337, Note_on_c, 3, 65, 0
6, 14340, Note_on_c, 3, 60, 127
6, 14340, Note_on_c, 3, 65, 127
6, 14369, Note_on_c, 3, 60, 0
6, 14369, Note_on_c, 3, 65, 0
6, 14370, Note_on_c, 3, 60, 127
6, 14370, Note_on_c, 3, 65, 127
6, 14399, Note_on_c, 3, 60, 0
6, 14399, Note_on_c, 3, 65, 0
6, 14400, Note_on_c, 3, 56, 127
6, 14429, Note_on_c, 3, 56, 0
6, 14430, Note_on_c, 3, 53, 127
6, 14459, Note_on_c, 3, 53, 0
6, 14460, Note_on_c, 3, 53, 127
6, 14489, Note_on_c, 3, 53, 0
6, 14490, Note_on_c, 3, 60, 127
6, 14519, Note_on_c, 3, 60, 0
6, 14520, Note_on_c, 3, 60, 127
6, 14520, Note_on_c, 3, 65, 127
6, 14577, Note_on_c, 3, 60, 0
6, 14577, Note_on_c, 3, 65, 0
6, 14580, Note_on_c, 3, 60, 127
6, 14580, Note_on_c, 3, 65, 127
6, 14609, Note_on_c, 3, 60, 0
6, 14609, Note_on_c, 3, 65, 0
6, 14610, Note_on_c, 3, 60, 127
6, 14610, Note_on_c, 3, 65, 127
6, 14639, Note_on_c, 3, 60, 0
6, 14639, Note_on_c, 3, 65, 0
6, 14640, Note_on_c, 3, 56, 127
6, 14669, Note_on_c, 3, 56, 0
6, 14670, Note_on_c, 3, 53, 127
6, 14699, Note_on_c, 3, 53, 0
6, 14700, Note_on_c, 3, 53, 127
6, 14729, Note_on_c, 3, 53, 0
6, 14730, Note_on_c, 3, 60, 127
6, 14759, Note_on_c, 3, 60, 0
6, 14760, Note_on_c, 3, 60, 127
6, 14760, Note_on_c, 3, 65, 127
6, 14817, Note_on_c, 3, 60, 0
6, 14817, Note_on_c, 3, 65, 0
6, 14820, Note_on_c, 3, 65, 127
6, 14820, Note_on_c, 3, 70, 127
6, 14849, Note_on_c, 3, 65, 0
6, 14849, Note_on_c, 3, 70, 0
6, 14850, Note_on_c, 3, 65, 127
6, 14850, Note_on_c, 3, 70, 127
6, 14879, Note_on_c, 3, 65, 0
6, 14879, Note_on_c, 3, 70, 0
6, 14880, Note_on_c, 3, 56, 127
6, 14909, Note_on_c, 3, 56, 0
6, 14910, Note_on_c, 3, 53, 127
6, 14939, Note_on_c, 3, 53, 0
6, 14940, Note_on_c, 3, 53, 127
6, 14969, Note_on_c, 3, 53, 0
6, 14970, Note_on_c, 3, 60, 127
6, 14999, Note_on_c, 3, 60, 0
6, 15000, Note_on_c, 3, 60, 127
6, 15000, Note_on_c, 3, 67, 127
6, 15057, Note_on_c, 3, 60, 0
6, 15057, Note_on_c, 3, 67, 0
6, 15060, Note_on_c, 3, 60, 127
6, 15060, Note_on_c, 3, 67, 127
6, 15089, Note_on_c, 3, 60, 0
6, 15089, Note_on_c, 3, 67, 0
6, 15090, Note_on_c, 3, 60, 127
6, 15090, Note_on_c, 3, 67, 127
6, 15119, Note_on_c, 3, 60, 0
6, 15119, Note_on_c, 3, 67, 0
6, 15120, Note_on_c, 3, 56, 127
6, 15149, Note_on_c, 3, 56, 0
6, 15150, Note_on_c, 3, 53, 127
6, 15179, Note_on_c, 3, 53, 0
6, 15180, Note_on_c, 3, 53, 127
6, 15209, Note_on_c, 3, 53, 0
6, 15210, Note_on_c, 3, 60, 127
6, 15239, Note_on_c, 3, 60, 0
6, 15240, Note_on_c, 3, 60, 127
6, 15240, Note_on_c, 3, 65, 127
6, 15297, Note_on_c, 3, 60, 0
6, 15297, Note_on_c, 3, 65, 0
6, 15300, Note_on_c, 3, 60, 127
6, 15300, Note_on_c, 3, 65, 127
6, 15329, Note_on_c, 3, 60, 0
6, 15329, Note_on_c, 3, 65, 0
6, 15330, Note_on_c, 3, 60, 127
6, 15330, Note_on_c, 3, 65, 127
6, 15359, Note_on_c, 3, 60, 0
6, 15359, Note_on_c, 3, 65, 0
6, 15360, Note_on_c, 3, 56, 127
6, 15389, Note_on_c, 3, 56, 0
6, 15390, Note_on_c, 3, 53, 127
6, 15419, Note_on_c, 3, 53, 0
6, 15420, Note_on_c, 3, 53, 127
6, 15449, Note_on_c, 3, 53, 0
6, 15450, Note_on_c, 3, 60, 127
6, 15479, Note_on_c, 3, 60, 0
6, 15480, Note_on_c, 3, 60, 127
6, 15480, Note_on_c, 3, 65, 127
6, 15537, Note_on_c, 3, 60, 0
6, 15537, Note_on_c, 3, 65, 0
6, 15540, Note_on_c, 3, 60, 127
6, 15540, Note_on_c, 3, 65, 127
6, 15569, Note_on_c, 3, 60, 0
6, 15569, Note_on_c, 3, 65, 0
6, 15570, Note_on_c, 3, 60, 127
6, 15570, Note_on_c, 3, 65, 127
6, 15599, Note_on_c, 3, 60, 0
6, 15599, Note_on_c, 3, 65, 0
6, 15600, Note_on_c, 3, 56, 127
6, 15629, Note_on_c, 3, 56, 0
6, 15630, Note_on_c, 3, 53, 127
6, 15659, Note_on_c, 3, 53, 0
6, 15660, Note_on_c, 3, 53, 127
6, 15689, Note_on_c, 3, 53, 0
6, 15690, Note_on_c, 3, 60, 127
6, 15719, Note_on_c, 3, 60, 0
6, 15720, Note_on_c, 3, 60, 127
6, 15720, Note_on_c, 3, 65, 127
6, 15777, Note_on_c, 3, 60, 0
6, 15777, Note_on_c, 3, 65, 0
6, 15780, Note_on_c, 3, 65, 127
6, 15780, Note_on_c, 3, 70, 127
6, 15809, Note_on_c, 3, 65, 0
6, 15809, Note_on_c, 3, 70, 0
6, 15810, Note_on_c, 3, 65, 127
6, 15810, Note_on_c, 3, 70, 127
6, 15839, Note_on_c, 3, 65, 0
6, 15839, Note_on_c, 3, 70, 0
6, 15840, Note_on_c, 3, 56, 127
6, 15869, Note_on_c, 3, 56, 0
6, 15870, Note_on_c, 3, 53, 127
6, 15899, Note_on_c, 3, 53, 0
6, 15900, Note_on_c, 3, 53, 127
6, 15929, Note_on_c, 3, 53, 0
6, 15930, Note_on_c, 3, 60, 127
6, 15959, Note_on_c, 3, 60, 0
6, 15960, Note_on_c, 3, 60, 127
6, 15960, Note_on_c, 3, 65, 127
6, 16017, Note_on_c, 3, 60, 0
6, 16017, Note_on_c, 3, 65, 0
6, 16020, Note_on_c, 3, 60, 127
6, 16020, Note_on_c, 3, 65, 127
6, 16049, Note_on_c, 3, 60, 0
6, 16049, Note_on_c, 3, 65, 0
6, 16050, Note_on_c, 3, 60, 127
6, 16050, Note_on_c, 3, 65, 127
6, 16079, Note_on_c, 3, 60, 0
6, 16079, Note_on_c, 3, 65, 0
6, 16080, Note_on_c, 3, 56, 127
6, 16109, Note_on_c, 3, 56, 0
6, 16110, Note_on_c, 3, 53, 127
6, 16139, Note_on_c, 3, 53, 0
6, 16140, Note_on_c, 3, 53, 127
6, 16169, Note_on_c, 3, 53, 0
6, 16170, Note_on_c, 3, 60, 127
6, 16199, Note_on_c, 3, 60, 0
6, 16200, Note_on_c, 3, 60, 127
6, 16200, Note_on_c, 3, 65, 127
6, 16257, Note_on_c, 3, 60, 0
6, 16257, Note_on_c, 3, 65, 0
6, 16260, Note_on_c, 3, 65, 127
6, 16260, Note_on_c, 3, 70, 127
6, 16289, Note_on_c, 3, 65, 0
6, 16289, Note_on_c, 3, 70, 0
6, 16290, Note_on_c, 3, 65, 127
6, 16290, Note_on_c, 3, 70, 127
6, 16319, Note_on_c, 3, 65, 0
6, 16319, Note_on_c, 3, 70, 0
6, 16320, Note_on_c, 3, 56, 127
6, 16349, Note_on_c, 3, 56, 0
6, 16350, Note_on_c, 3, 53, 127
6, 16379, Note_on_c, 3, 53, 0
6, 16380, Note_on_c, 3, 53, 127
6, 16409, Note_on_c, 3, 53, 0
6, 16410, Note_on_c, 3, 60, 127
6, 16439, Note_on_c, 3, 60, 0
6, 16440, Note_on_c, 3, 60, 127
6, 16440, Note_on_c, 3, 65, 127
6, 16497, Note_on_c, 3, 60, 0
6, 16497, Note_on_c, 3, 65, 0
6, 16500, Note_on_c, 3, 60, 127
6, 16500, Note_on_c, 3, 65, 127
6, 16529, Note_on_c, 3, 60, 0
6, 16529, Note_on_c, 3, 65, 0
6, 16530, Note_on_c, 3, 60, 127
6, 16530, Note_on_c, 3, 65, 127
6, 16559, Note_on_c, 3, 60, 0
6, 16559, Note_on_c, 3, 65, 0
6, 16560, Note_on_c, 3, 56, 127
6, 16589, Note_on_c, 3, 56, 0
6, 16590, Note_on_c, 3, 53, 127
6, 16619, Note_on_c, 3, 53, 0
6, 16620, Note_on_c, 3, 53, 127
6, 16649, Note_on_c, 3, 53, 0
6, 16650, Note_on_c, 3, 60, 127
6, 16679, Note_on_c, 3, 60, 0
6, 16680, Note_on_c, 3, 60, 127
6, 16680, Note_on_c, 3, 65, 127
6, 16737, Note_on_c, 3, 60, 0
6, 16737, Note_on_c, 3, 65, 0
6, 16740, Note_on_c, 3, 65, 127
6, 16740, Note_on_c, 3, 60, 127
6, 16769, Note_on_c, 3, 65, 0
6, 16769, Note_on_c, 3, 60, 0
6, 16770, Note_on_c, 3, 65, 127
6, 16770, Note_on_c, 3, 60, 127
6, 16799, Note_on_c, 3, 65, 0
6, 16799, Note_on_c, 3, 60, 0
6, 16800, Note_on_c, 3, 56, 127
6, 16829, Note_on_c, 3, 56, 0
6, 16830, Note_on_c, 3, 53, 127
6, 16859, Note_on_c, 3, 53, 0
6, 16860, Note_on_c, 3, 53, 127
6, 16889, Note_on_c, 3, 53, 0
6, 16890, Note_on_c, 3, 60, 127
6, 16919, Note_on_c, 3, 60, 0
6, 16920, Note_on_c, 3, 60, 127
6, 16920, Note_on_c, 3, 65, 127
6, 16977, Note_on_c, 3, 60, 0
6, 16977, Note_on_c, 3, 65, 0
6, 16980, Note_on_c, 3, 60, 127
6, 16980, Note_on_c, 3, 65, 127
6, 17009, Note_on_c, 3, 60, 0
6, 17009, Note_on_c, 3, 65, 0
6, 17010, Note_on_c, 3, 60, 127
6, 17010, Note_on_c, 3, 65, 127
6, 17039, Note_on_c, 3, 60, 0
6, 17039, Note_on_c, 3, 65, 0
6, 17040, Note_on_c, 3, 56, 127
6, 17069, Note_on_c, 3, 56, 0
6, 17070, Note_on_c, 3, 53, 127
6, 17099, Note_on_c, 3, 53, 0
6, 17100, Note_on_c, 3, 53, 127
6, 17129, Note_on_c, 3, 53, 0
6, 17130, Note_on_c, 3, 60, 127
6, 17159, Note_on_c, 3, 60, 0
6, 17160, Note_on_c, 3, 60, 127
6, 17160, Note_on_c, 3, 65, 127
6, 17217, Note_on_c, 3, 60, 0
6, 17217, Note_on_c, 3, 65, 0
6, 17220, Note_on_c, 3, 65, 127
6, 17220, Note_on_c, 3, 70, 127
6, 17249, Note_on_c, 3, 65, 0
6, 17249, Note_on_c, 3, 70, 0
6, 17250, Note_on_c, 3, 65, 127
6, 17250, Note_on_c, 3, 70, 127
6, 17279, Note_on_c, 3, 65, 0
6, 17279, Note_on_c, 3, 70, 0
6, 17280, Note_on_c, 3, 56, 127
6, 17309, Note_on_c, 3, 56, 0
6, 17310, Note_on_c, 3, 53, 127
6, 17339, Note_on_c, 3, 53, 0
6, 17340, Note_on_c, 3, 53, 127
6, 17369, Note_on_c, 3, 53, 0
6, 17370, Note_on_c, 3, 60, 127
6, 17399, Note_on_c, 3, 60, 0
6, 17400, Note_on_c, 3, 60, 127
6, 17400, Note_on_c, 3, 65, 127
6, 17457, Note_on_c, 3, 60, 0
6, 17457, Note_on_c, 3, 65, 0
6, 17460, Note_on_c, 3, 60, 127
6, 17460, Note_on_c, 3, 65, 127
6, 17489, Note_on_c, 3, 60, 0
6, 17489, Note_on_c, 3, 65, 0
6, 17490, Note_on_c, 3, 60, 127
6, 17490, Note_on_c, 3, 65, 127
6, 17519, Note_on_c, 3, 60, 0
6, 17519, Note_on_c, 3, 65, 0
6, 17520, Note_on_c, 3, 56, 127
6, 17549, Note_on_c, 3, 56, 0
6, 17550, Note_on_c, 3, 53, 127
6, 17579, Note_on_c, 3, 53, 0
6, 17580, Note_on_c, 3, 53, 127
6, 17609, Note_on_c, 3, 53, 0
6, 17610, Note_on_c, 3, 60, 127
6, 17639, Note_on_c, 3, 60, 0
6, 17640, Note_on_c, 3, 60, 127
6, 17640, Note_on_c, 3, 65, 127
6, 17697, Note_on_c, 3, 60, 0
6, 17697, Note_on_c, 3, 65, 0
6, 17700, Note_on_c, 3, 65, 127
6, 17700, Note_on_c, 3, 60, 127
6, 17729, Note_on_c, 3, 65, 0
6, 17729, Note_on_c, 3, 60, 0
6, 17730, Note_on_c, 3, 65, 127
6, 17730, Note_on_c, 3, 60, 127
6, 17759, Note_on_c, 3, 65, 0
6, 17759, Note_on_c, 3, 60, 0
6, 17760, Note_on_c, 3, 56, 127
6, 17789, Note_on_c, 3, 56, 0
6, 17790, Note_on_c, 3, 53, 127
6, 17819, Note_on_c, 3, 53, 0
6, 17820, Note_on_c, 3, 53, 127
6, 17849, Note_on_c, 3, 53, 0
6, 17850, Note_on_c, 3, 60, 127
6, 17879, Note_on_c, 3, 60, 0
6, 17880, Note_on_c, 3, 60, 127
6, 17880, Note_on_c, 3, 65, 127
6, 17937, Note_on_c, 3, 60, 0
6, 17937, Note_on_c, 3, 65, 0
6, 17940, Note_on_c, 3, 60, 127
6, 17940, Note_on_c, 3, 65, 127
6, 17969, Note_on_c, 3, 60, 0
6, 17969, Note_on_c, 3, 65, 0
6, 17970, Note_on_c, 3, 60, 127
6, 17970, Note_on_c, 3, 65, 127
6, 17999, Note_on_c, 3, 60, 0
6, 17999, Note_on_c, 3, 65, 0
6, 18000, Note_on_c, 3, 56, 127
6, 18029, Note_on_c, 3, 56, 0
6, 18030, Note_on_c, 3, 53, 127
6, 18059, Note_on_c, 3, 53, 0
6, 18060, Note_on_c, 3, 53, 127
6, 18089, Note_on_c, 3, 53, 0
6, 18090, Note_on_c, 3, 60, 127
6, 18119, Note_on_c, 3, 60, 0
6, 18120, Note_on_c, 3, 60, 127
6, 18120, Note_on_c, 3, 65, 127
6, 18177, Note_on_c, 3, 60, 0
6, 18177, Note_on_c, 3, 65, 0
6, 18180, Note_on_c, 3, 65, 127
6, 18180, Note_on_c, 3, 70, 127
6, 18209, Note_on_c, 3, 65, 0
6, 18209, Note_on_c, 3, 70, 0
6, 18210, Note_on_c, 3, 65, 127
6, 18210, Note_on_c, 3, 70, 127
6, 18239, Note_on_c, 3, 65, 0
6, 18239, Note_on_c, 3, 70, 0
6, 18240, Note_on_c, 3, 56, 127
6, 18269, Note_on_c, 3, 56, 0
6, 18270, Note_on_c, 3, 53, 127
6, 18299, Note_on_c, 3, 53, 0
6, 18300, Note_on_c, 3, 53, 127
6, 18329, Note_on_c, 3, 53, 0
6, 18330, Note_on_c, 3, 60, 127
6, 18359, Note_on_c, 3, 60, 0
6, 18360, Note_on_c, 3, 60, 127
6, 18360, Note_on_c, 3, 65, 127
6, 18417, Note_on_c, 3, 60, 0
6, 18417, Note_on_c, 3, 65, 0
6, 18420, Note_on_c, 3, 60, 127
6, 18420, Note_on_c, 3, 65, 127
6, 18449, Note_on_c, 3, 60, 0
6, 18449, Note_on_c, 3, 65, 0
6, 18450, Note_on_c, 3, 60, 127
6, 18450, Note_on_c, 3, 65, 127
6, 18479, Note_on_c, 3, 60, 0
6, 18479, Note_on_c, 3, 65, 0
6, 18480, Note_on_c, 3, 56, 127
6, 18509, Note_on_c, 3, 56, 0
6, 18510, Note_on_c, 3, 53, 127
6, 18539, Note_on_c, 3, 53, 0
6, 18540, Note_on_c, 3, 53, 127
6, 18569, Note_on_c, 3, 53, 0
6, 18570, Note_on_c, 3, 60, 127
6, 18599, Note_on_c, 3, 60, 0
6, 18600, Note_on_c, 3, 60, 127
6, 18600, Note_on_c, 3, 65, 127
6, 18657, Note_on_c, 3, 60, 0
6, 18657, Note_on_c, 3, 65, 0
6, 18660, Note_on_c, 3, 65, 127
6, 18660, Note_on_c, 3, 60, 127
6, 18689, Note_on_c, 3, 65, 0
6, 18689, Note_on_c, 3, 60, 0
6, 18690, Note_on_c, 3, 65, 127
6, 18690, Note_on_c, 3, 60, 127
6, 18719, Note_on_c, 3, 65, 0
6, 18719, Note_on_c, 3, 60, 0
6, 18720, Note_on_c, 3, 56, 127
6, 18749, Note_on_c, 3, 56, 0
6, 18750, Note_on_c, 3, 53, 127
6, 18779, Note_on_c, 3, 53, 0
6, 18780, Note_on_c, 3, 53, 127
6, 18809, Note_on_c, 3, 53, 0
6, 18810, Note_on_c, 3, 60, 127
6, 18839, Note_on_c, 3, 60, 0
6, 18840, Note_on_c, 3, 60, 127
6, 18840, Note_on_c, 3, 65, 127
6, 18897, Note_on_c, 3, 60, 0
6, 18897, Note_on_c, 3, 65, 0
6, 18900, Note_on_c, 3, 60, 127
6, 18900, Note_on_c, 3, 65, 127
6, 18929, Note_on_c, 3, 60, 0
6, 18929, Note_on_c, 3, 65, 0
6, 18930, Note_on_c, 3, 60, 127
6, 18930, Note_on_c, 3, 65, 127
6, 18959, Note_on_c, 3, 60, 0
6, 18959, Note_on_c, 3, 65, 0
6, 18960, Note_on_c, 3, 56, 127
6, 18989, Note_on_c, 3, 56, 0
6, 18990, Note_on_c, 3, 53, 127
6, 19019, Note_on_c, 3, 53, 0
6, 19020, Note_on_c, 3, 53, 127
6, 19049, Note_on_c, 3, 53, 0
6, 19050, Note_on_c, 3, 60, 127
6, 19079, Note_on_c, 3, 60, 0
6, 19080, Note_on_c, 3, 60, 127
6, 19080, Note_on_c, 3, 65, 127
6, 19137, Note_on_c, 3, 60, 0
6, 19137, Note_on_c, 3, 65, 0
6, 19140, Note_on_c, 3, 65, 127
6, 19140, Note_on_c, 3, 70, 127
6, 19169, Note_on_c, 3, 65, 0
6, 19169, Note_on_c, 3, 70, 0
6, 19170, Note_on_c, 3, 65, 127
6, 19170, Note_on_c, 3, 70, 127
6, 19199, Note_on_c, 3, 65, 0
6, 19199, Note_on_c, 3, 70, 0
6, 19200, Note_on_c, 3, 56, 127
6, 19229, Note_on_c, 3, 56, 0
6, 19230, Note_on_c, 3, 53, 127
6, 19259, Note_on_c, 3, 53, 0
6, 19260, Note_on_c, 3, 53, 127
6, 19289, Note_on_c, 3, 53, 0
6, 19290, Note_on_c, 3, 60, 127
6, 19319, Note_on_c, 3, 60, 0
6, 19320, Note_on_c, 3, 60, 127
6, 19320, Note_on_c, 3, 65, 127
6, 19377, Note_on_c, 3, 60, 0
6, 19377, Note_on_c, 3, 65, 0
6, 19380, Note_on_c, 3, 60, 127
6, 19380, Note_on_c, 3, 65, 127
6, 19409, Note_on_c, 3, 60, 0
6, 19409, Note_on_c, 3, 65, 0
6, 19410, Note_on_c, 3, 60, 127
6, 19410, Note_on_c, 3, 65, 127
6, 19439, Note_on_c, 3, 60, 0
6, 19439, Note_on_c, 3, 65, 0
6, 19440, Note_on_c, 3, 56, 127
6, 19469, Note_on_c, 3, 56, 0
6, 19470, Note_on_c, 3, 53, 127
6, 19499, Note_on_c, 3, 53, 0
6, 19500, Note_on_c, 3, 53, 127
6, 19529, Note_on_c, 3, 53, 0
6, 19530, Note_on_c, 3, 60, 127
6, 19559, Note_on_c, 3, 60, 0
6, 19560, Note_on_c, 3, 60, 127
6, 19560, Note_on_c, 3, 65, 127
6, 19617, Note_on_c, 3, 60, 0
6, 19617, Note_on_c, 3, 65, 0
6, 19620, Note_on_c, 3, 65, 127
6, 19620, Note_on_c, 3, 70, 127
6, 19649, Note_on_c, 3, 65, 0
6, 19649, Note_on_c, 3, 70, 0
6, 19650, Note_on_c, 3, 65, 127
6, 19650, Note_on_c, 3, 70, 127
6, 19679, Note_on_c, 3, 65, 0
6, 19679, Note_on_c, 3, 70, 0
6, 19680, Note_on_c, 3, 49, 127
6, 19680, Note_on_c, 3, 56, 127
6, 19680, Note_on_c, 3, 61, 127
6, 19709, Note_on_c, 3, 49, 0
6, 19709, Note_on_c, 3, 56, 0
6, 19709, Note_on_c, 3, 61, 0
6, 19710, Note_on_c, 3, 49, 127
6, 19710, Note_on_c, 3, 56, 127
6, 19710, Note_on_c, 3, 61, 127
6, 19739, Note_on_c, 3, 49, 0
6, 19739, Note_on_c, 3, 56, 0
6, 19739, Note_on_c, 3, 61, 0
6, 19740, Note_on_c, 3, 49, 127
6, 19740, Note_on_c, 3, 56, 127
6, 19740, Note_on_c, 3, 61, 127
6, 19769, Note_on_c, 3, 49, 0
6, 19769, Note_on_c, 3, 56, 0
6, 19769, Note_on_c, 3, 61, 0
6, 19770, Note_on_c, 3, 49, 127
6, 19770, Note_on_c, 3, 56, 127
6, 19770, Note_on_c, 3, 61, 127
6, 19799, Note_on_c, 3, 49, 0
6, 19799, Note_on_c, 3, 56, 0
6, 19799, Note_on_c, 3, 61, 0
6, 19800, Note_on_c, 3, 56, 127
6, 19800, Note_on_c, 3, 61, 127
6, 19800, Note_on_c, 3, 49, 127
6, 19857, Note_on_c, 3, 56, 0
6, 19857, Note_on_c, 3, 61, 0
6, 19857, Note_on_c, 3, 49, 0
6, 19860, Note_on_c, 3, 49, 127
6, 19860, Note_on_c, 3, 61, 127
6, 19860, Note_on_c, 3, 56, 127
6, 19889, Note_on_c, 3, 49, 0
6, 19889, Note_on_c, 3, 61, 0
6, 19889, Note_on_c, 3, 56, 0
6, 19890, Note_on_c, 3, 49, 127
6, 19890, Note_on_c, 3, 61, 127
6, 19890, Note_on_c, 3, 56, 127
6, 19919, Note_on_c, 3, 49, 0
6, 19919, Note_on_c, 3, 61, 0
6, 19919, Note_on_c, 3, 56, 0
6, 19920, Note_on_c, 3, 56, 127
6, 19920, Note_on_c, 3, 62, 127
6, 19920, Note_on_c, 3, 50, 127
6, 19949, Note_on_c, 3, 56, 0
6, 19949, Note_on_c, 3, 62, 0
6, 19949, Note_on_c, 3, 50, 0
6, 19950, Note_on_c, 3, 63, 127
6, 19950, Note_on_c, 3, 51, 127
6, 19950, Note_on_c, 3, 58, 127
6, 19979, Note_on_c, 3, 63, 0
6, 19979, Note_on_c, 3, 51, 0
6, 19979, Note_on_c, 3, 58, 0
6, 19980, Note_on_c, 3, 51, 127
6, 19980, Note_on_c, 3, 63, 127
6, 19980, Note_on_c, 3, 58, 127
6, 20009, Note_on_c, 3, 51, 0
6, 20009, Note_on_c, 3, 63, 0
6, 20009, Note_on_c, 3, 58, 0
6, 20010, Note_on_c, 3, 51, 127
6, 20010, Note_on_c, 3, 63, 127
6, 20010, Note_on_c, 3, 58, 127
6, 20039, Note_on_c, 3, 51, 0
6, 20039, Note_on_c, 3, 63, 0
6, 20039, Note_on_c, 3, 58, 0
6, 20040, Note_on_c, 3, 51, 127
6, 20040, Note_on_c, 3, 63, 127
6, 20040, Note_on_c, 3, 58, 127
6, 20154, Note_on_c, 3, 51, 0
6, 20154, Note_on_c, 3, 63, 0
6, 20154, Note_on_c, 3, 58, 0
6, 20160, Note_on_c, 3, 53, 127
6, 20189, Note_on_c, 3, 53, 0
6, 20190, Note_on_c, 3, 44, 127
6, 20190, Note_on_c, 3, 51, 127
6, 20276, Note_on_c, 3, 44, 0
6, 20276, Note_on_c, 3, 51, 0
6, 20280, Note_on_c, 3, 53, 127
6, 20309, Note_on_c, 3, 53, 0
6, 20310, Note_on_c, 3, 41, 127
6, 20310, Note_on_c, 3, 48, 127
6, 20396, Note_on_c, 3, 41, 0
6, 20396, Note_on_c, 3, 48, 0
6, 20400, Note_on_c, 3, 53, 127
6, 20429, Note_on_c, 3, 53, 0
6, 20430, Note_on_c, 3, 44, 127
6, 20430, Note_on_c, 3, 51, 127
6, 20516, Note_on_c, 3, 44, 0
6, 20516, Note_on_c, 3, 51, 0
6, 20520, Note_on_c, 3, 53, 127
6, 20549, Note_on_c, 3, 53, 0
6, 20550, Note_on_c, 3, 41, 127
6, 20550, Note_on_c, 3, 48, 127
6, 20636, Note_on_c, 3, 41, 0
6, 20636, Note_on_c, 3, 48, 0
6, 20640, Note_on_c, 3, 49, 127
6, 20640, Note_on_c, 3, 56, 127
6, 20640, Note_on_c, 3, 61, 127
6, 20669, Note_on_c, 3, 49, 0
6, 20669, Note_on_c, 3, 56, 0
6, 20669, Note_on_c, 3, 61, 0
6, 20670, Note_on_c, 3, 49, 127
6, 20670, Note_on_c, 3, 56, 127
6, 20670, Note_on_c, 3, 61, 127
6, 20699, Note_on_c, 3, 49, 0
6, 20699, Note_on_c, 3, 56, 0
6, 20699, Note_on_c, 3, 61, 0
6, 20700, Note_on_c, 3, 49, 127
6, 20700, Note_on_c, 3, 56, 127
6, 20700, Note_on_c, 3, 61, 127
6, 20729, Note_on_c, 3, 49, 0
6, 20729, Note_on_c, 3, 56, 0
6, 20729, Note_on_c, 3, 61, 0
6, 20730, Note_on_c, 3, 49, 127
6, 20730, Note_on_c, 3, 56, 127
6, 20730, Note_on_c, 3, 61, 127
6, 20759, Note_on_c, 3, 49, 0
6, 20759, Note_on_c, 3, 56, 0
6, 20759, Note_on_c, 3, 61, 0
6, 20760, Note_on_c, 3, 56, 127
6, 20760, Note_on_c, 3, 61, 127
6, 20760, Note_on_c, 3, 49, 127
6, 20817, Note_on_c, 3, 56, 0
6, 20817, Note_on_c, 3, 61, 0
6, 20817, Note_on_c, 3, 49, 0
6, 20820, Note_on_c, 3, 49, 127
6, 20820, Note_on_c, 3, 61, 127
6, 20820, Note_on_c, 3, 56, 127
6, 20849, Note_on_c, 3, 49, 0
6, 20849, Note_on_c, 3, 61, 0
6, 20849, Note_on_c, 3, 56, 0
6, 20850, Note_on_c, 3, 49, 127
6, 20850, Note_on_c, 3, 61, 127
6, 20850, Note_on_c, 3, 56, 127
6, 20879, Note_on_c, 3, 49, 0
6, 20879, Note_on_c, 3, 61, 0
6, 20879, Note_on_c, 3, 56, 0
6, 20880, Note_on_c, 3, 56, 127
6, 20880, Note_on_c, 3, 62, 127
6, 20880, Note_on_c, 3, 50, 127
6, 20909, Note_on_c, 3, 56, 0
6, 20909, Note_on_c, 3, 62, 0
6, 20909, Note_on_c, 3, 50, 0
6, 20910, Note_on_c, 3, 63, 127
6, 20910, Note_on_c, 3, 51, 127
6, 20910, Note_on_c, 3, 58, 127
6, 20939, Note_on_c, 3, 63, 0
6, 20939, Note_on_c, 3, 51, 0
6, 20939, Note_on_c, 3, 58, 0
6, 20940, Note_on_c, 3, 51, 127
6, 20940, Note_on_c, 3, 63, 127
6, 20940, Note_on_c, 3, 58, 127
6, 20969, Note_on_c, 3, 51, 0
6, 20969, Note_on_c, 3, 63, 0
6, 20969, Note_on_c, 3, 58, 0
6, 20970, Note_on_c, 3, 51, 127
6, 20970, Note_on_c, 3, 63, 127
6, 20970, Note_on_c, 3, 58, 127
6, 20999, Note_on_c, 3, 51, 0
6, 20999, Note_on_c, 3, 63, 0
6, 20999, Note_on_c, 3, 58, 0
6, 21000, Note_on_c, 3, 51, 127
6, 21000, Note_on_c, 3, 63, 127
6, 21000, Note_on_c, 3, 58, 127
6, 21114, Note_on_c, 3, 51, 0
6, 21114, Note_on_c, 3, 63, 0
6, 21114, Note_on_c, 3, 58, 0
6, 21120, Note_on_c, 3, 53, 127
6, 21149, Note_on_c, 3, 53, 0
6, 21150, Note_on_c, 3, 44, 127
6, 21150, Note_on_c, 3, 51, 127
6, 21236, Note_on_c, 3, 44, 0
6, 21236, Note_on_c, 3, 51, 0
6, 21240, Note_on_c, 3, 53, 127
6, 21269, Note_on_c, 3, 53, 0
6, 21270, Note_on_c, 3, 41, 127
6, 21270, Note_on_c, 3, 48, 127
6, 21356, Note_on_c, 3, 41, 0
6, 21356, Note_on_c, 3, 48, 0
6, 21360, Note_on_c, 3, 53, 127
6, 21389, Note_on_c, 3, 53, 0
6, 21390, Note_on_c, 3, 44, 127
6, 21390, Note_on_c, 3, 51, 127
6, 21476, Note_on_c, 3, 44, 0
6, 21476, Note_on_c, 3, 51, 0
6, 21480, Note_on_c, 3, 53, 127
6, 21509, Note_on_c, 3, 53, 0
6, 21510, Note_on_c, 3, 41, 127
6, 21510, Note_on_c, 3, 48, 127
6, 21596, Note_on_c, 3, 41, 0
6, 21596, Note_on_c, 3, 48, 0
6, 21600, Note_on_c, 3, 53, 127
6, 21600, Note_on_c, 3, 60, 127
6, 21686, Note_on_c, 3, 53, 0
6, 21686, Note_on_c, 3, 60, 0
6, 21690, Note_on_c, 3, 69, 127
6, 21690, Note_on_c, 3, 72, 127
6, 21719, Note_on_c, 3, 69, 0
6, 21719, Note_on_c, 3, 72, 0
6, 21720, Note_on_c, 3, 69, 127
6, 21720, Note_on_c, 3, 72, 127
6, 21834, Note_on_c, 3, 69, 0
6, 21834, Note_on_c, 3, 72, 0
6, 21840, Note_on_c, 3, 53, 127
6, 21840, Note_on_c, 3, 60, 127
6, 21926, Note_on_c, 3, 53, 0
6, 21926, Note_on_c, 3, 60, 0
6, 21930, Note_on_c, 3, 64, 127
6, 21930, Note_on_c, 3, 67, 127
6, 21959, Note_on_c, 3, 64, 0
6, 21959, Note_on_c, 3, 67, 0
6, 21960, Note_on_c, 3, 64, 127
6, 21960, Note_on_c, 3, 67, 127
6, 22074, Note_on_c, 3, 64, 0
6, 22074, Note_on_c, 3, 67, 0
6, 22080, Note_on_c, 3, 53, 127
6, 22080, Note_on_c, 3, 60, 127
6, 22166, Note_on_c, 3, 53, 0
6, 22166, Note_on_c, 3, 60, 0
6, 22170, Note_on_c, 3, 53, 127
6, 22170, Note_on_c, 3, 62, 127
6, 22170, Note_on_c, 3, 65, 127
6, 22199, Note_on_c, 3, 53, 0
6, 22199, Note_on_c, 3, 62, 0
6, 22199, Note_on_c, 3, 65, 0
6, 22200, Note_on_c, 3, 53, 127
6, 22200, Note_on_c, 3, 62, 127
6, 22200, Note_on_c, 3, 65, 127
6, 22257, Note_on_c, 3, 53, 0
6, 22257, Note_on_c, 3, 62, 0
6, 22257, Note_on_c, 3, 65, 0
6, 22260, Note_on_c, 3, 53, 127
6, 22260, Note_on_c, 3, 64, 127
6, 22260, Note_on_c, 3, 67, 127
6, 22317, Note_on_c, 3, 53, 0
6, 22317, Note_on_c, 3, 64, 0
6, 22317, Note_on_c, 3, 67, 0
6, 22320, Note_on_c, 3, 53, 127
6, 22320, Note_on_c, 3, 67, 127
6, 22320, Note_on_c, 3, 70, 127
6, 22377, Note_on_c, 3, 53, 0
6, 22377, Note_on_c, 3, 67, 0
6, 22377, Note_on_c, 3, 70, 0
6, 22380, Note_on_c, 3, 53, 127
6, 22380, Note_on_c, 3, 69, 127
6, 22380, Note_on_c, 3, 72, 127
6, 22551, Note_on_c, 3, 53, 0
6, 22551, Note_on_c, 3, 69, 0
6, 22551, Note_on_c, 3, 72, 0
6, 22560, Note_on_c, 3, 53, 127
6, 22560, Note_on_c, 3, 60, 127
6, 22646, Note_on_c, 3, 53, 0
6, 22646, Note_on_c, 3, 60, 0
6, 22650, Note_on_c, 3, 69, 127
6, 22650, Note_on_c, 3, 72, 127
6, 22679, Note_on_c, 3, 69, 0
6, 22679, Note_on_c, 3, 72, 0
6, 22680, Note_on_c, 3, 69, 127
6, 22680, Note_on_c, 3, 72, 127
6, 22794, Note_on_c, 3, 69, 0
6, 22794, Note_on_c, 3, 72, 0
6, 22800, Note_on_c, 3, 53, 127
6, 22800, Note_on_c, 3, 60, 127
6, 22886, Note_on_c, 3, 53, 0
6, 22886, Note_on_c, 3, 60, 0
6, 22890, Note_on_c, 3, 64, 127
6, 22890, Note_on_c, 3, 67, 127
6, 22919, Note_on_c, 3, 64, 0
6, 22919, Note_on_c, 3, 67, 0
6, 22920, Note_on_c, 3, 64, 127
6, 22920, Note_on_c, 3, 67, 127
6, 23034, Note_on_c, 3, 64, 0
6, 23034, Note_on_c, 3, 67, 0
6, 23040, Note_on_c, 3, 53, 127
6, 23040, Note_on_c, 3, 60, 127
6, 23126, Note_on_c, 3, 53, 0
6, 23126, Note_on_c, 3, 60, 0
6, 23130, Note_on_c, 3, 53, 127
6, 23130, Note_on_c, 3, 62, 127
6, 23130, Note_on_c, 3, 65, 127
6, 23159, Note_on_c, 3, 53, 0
6, 23159, Note_on_c, 3, 62, 0
6, 23159, Note_on_c, 3, 65, 0
6, 23160, Note_on_c, 3, 53, 127
6, 23160, Note_on_c, 3, 62, 127
6, 23160, Note_on_c, 3, 65, 127
6, 23217, Note_on_c, 3, 53, 0
6, 23217, Note_on_c, 3, 62, 0
6, 23217, Note_on_c, 3, 65, 0
6, 23220, Note_on_c, 3, 53, 127
6, 23220, Note_on_c, 3, 64, 127
6, 23220, Note_on_c, 3, 67, 127
6, 23277, Note_on_c, 3, 53, 0
6, 23277, Note_on_c, 3, 64, 0
6, 23277, Note_on_c, 3, 67, 0
6, 23280, Note_on_c, 3, 53, 127
6, 23280, Note_on_c, 3, 67, 127
6, 23280, Note_on_c, 3, 70, 127
6, 23337, Note_on_c, 3, 53, 0
6, 23337, Note_on_c, 3, 67, 0
6, 23337, Note_on_c, 3, 70, 0
6, 23340, Note_on_c, 3, 53, 127
6, 23340, Note_on_c, 3, 69, 127
6, 23340, Note_on_c, 3, 72, 127
6, 23511, Note_on_c, 3, 53, 0
6, 23511, Note_on_c, 3, 69, 0
6, 23511, Note_on_c, 3, 72, 0
6, 23520, Note_on_c, 3, 53, 127
6, 23520, Note_on_c, 3, 60, 127
6, 23606, Note_on_c, 3, 53, 0
6, 23606, Note_on_c, 3, 60, 0
6, 23610, Note_on_c, 3, 69, 127
6, 23610, Note_on_c, 3, 72, 127
6, 23639, Note_on_c, 3, 69, 0
6, 23639, Note_on_c, 3, 72, 0
6, 23640, Note_on_c, 3, 69, 127
6, 23640, Note_on_c, 3, 72, 127
6, 23754, Note_on_c, 3, 69, 0
6, 23754, Note_on_c, 3, 72, 0
6, 23760, Note_on_c, 3, 53, 127
6, 23760, Note_on_c, 3, 60, 127
6, 23846, Note_on_c, 3, 53, 0
6, 23846, Note_on_c, 3, 60, 0
6, 23850, Note_on_c, 3, 64, 127
6, 23850, Note_on_c, 3, 67, 127
6, 23879, Note_on_c, 3, 64, 0
6, 23879, Note_on_c, 3, 67, 0
6, 23880, Note_on_c, 3, 64, 127
6, 23880, Note_on_c, 3, 67, 127
6, 23994, Note_on_c, 3, 64, 0
6, 23994, Note_on_c, 3, 67, 0
6, 24000, Note_on_c, 3, 53, 127
6, 24000, Note_on_c, 3, 60, 127
6, 24086, Note_on_c, 3, 53, 0
6, 24086, Note_on_c, 3, 60, 0
6, 24090, Note_on_c, 3, 53, 127
6, 24090, Note_on_c, 3, 62, 127
6, 24090, Note_on_c, 3, 65, 127
6, 24119, Note_on_c, 3, 53, 0
6, 24119, Note_on_c, 3, 62, 0
6, 24119, Note_on_c, 3, 65, 0
6, 24120, Note_on_c, 3, 53, 127
6, 24120, Note_on_c, 3, 62, 127
6, 24120, Note_on_c, 3, 65, 127
6, 24177, Note_on_c, 3, 53, 0
6, 24177, Note_on_c, 3, 62, 0
6, 24177, Note_on_c, 3, 65, 0
6, 24180, Note_on_c, 3, 53, 127
6, 24180, Note_on_c, 3, 64, 127
6, 24180, Note_on_c, 3, 67, 127
6, 24237, Note_on_c, 3, 53, 0
6, 24237, Note_on_c, 3, 64, 0
6, 24237, Note_on_c, 3, 67, 0
6, 24240, Note_on_c, 3, 53, 127
6, 24240, Note_on_c, 3, 67, 127
6, 24240, Note_on_c, 3, 70, 127
6, 24297, Note_on_c, 3, 53, 0
6, 24297, Note_on_c, 3, 67, 0
6, 24297, Note_on_c, 3, 70, 0
6, 24300, Note_on_c, 3, 53, 127
6, 24300, Note_on_c, 3, 69, 127
6, 24300, Note_on_c, 3, 72, 127
6, 24471, Note_on_c, 3, 53, 0
6, 24471, Note_on_c, 3, 69, 0
6, 24471, Note_on_c, 3, 72, 0
6, 24480, Note_on_c, 3, 53, 127
6, 24480, Note_on_c, 3, 60, 127
6, 24566, Note_on_c, 3, 53, 0
6, 24566, Note_on_c, 3, 60, 0
6, 24570, Note_on_c, 3, 69, 127
6, 24570, Note_on_c, 3, 72, 127
6, 24599, Note_on_c, 3, 69, 0
6, 24599, Note_on_c, 3, 72, 0
6, 24600, Note_on_c, 3, 69, 127
6, 24600, Note_on_c, 3, 72, 127
6, 24714, Note_on_c, 3, 69, 0
6, 24714, Note_on_c, 3, 72, 0
6, 24720, Note_on_c, 3, 53, 127
6, 24720, Note_on_c, 3, 60, 127
6, 24806, Note_on_c, 3, 53, 0
6, 24806, Note_on_c, 3, 60, 0
6, 24810, Note_on_c, 3, 64, 127
6, 24810, Note_on_c, 3, 67, 127
6, 24839, Note_on_c, 3, 64, 0
6, 24839, Note_on_c, 3, 67, 0
6, 24840, Note_on_c, 3, 64, 127
6, 24840, Note_on_c, 3, 67, 127
6, 24954, Note_on_c, 3, 64, 0
6, 24954, Note_on_c, 3, 67, 0
6, 24960, Note_on_c, 3, 53, 127
6, 24960, Note_on_c, 3, 60, 127
6, 25046, Note_on_c, 3, 53, 0
6, 25046, Note_on_c, 3, 60, 0
6, 25050, Note_on_c, 3, 53, 127
6, 25050, Note_on_c, 3, 62, 127
6, 25050, Note_on_c, 3, 65, 127
6, 25079, Note_on_c, 3, 53, 0
6, 25079, Note_on_c, 3, 62, 0
6, 25079, Note_on_c, 3, 65, 0
6, 25080, Note_on_c, 3, 53, 127
6, 25080, Note_on_c, 3, 62, 127
6, 25080, Note_on_c, 3, 65, 127
6, 25137, Note_on_c, 3, 53, 0
6, 25137, Note_on_c, 3, 62, 0
6, 25137, Note_on_c, 3, 65, 0
6, 25140, Note_on_c, 3, 53, 127
6, 25140, Note_on_c, 3, 64, 127
6, 25140, Note_on_c, 3, 67, 127
6, 25197, Note_on_c, 3, 53, 0
6, 25197, Note_on_c, 3, 64, 0
6, 25197, Note_on_c, 3, 67, 0
6, 25200, Note_on_c, 3, 53, 127
6, 25200, Note_on_c, 3, 67, 127
6, 25200, Note_on_c, 3, 70, 127
6, 25257, Note_on_c, 3, 53, 0
6, 25257, Note_on_c, 3, 67, 0
6, 25257, Note_on_c, 3, 70, 0
6, 25260, Note_on_c, 3, 53, 127
6, 25260, Note_on_c, 3, 69, 127
6, 25260, Note_on_c, 3, 72, 127
6, 25431, Note_on_c, 3, 53, 0
6, 25431, Note_on_c, 3, 69, 0
6, 25431, Note_on_c, 3, 72, 0
6, 25440, Note_on_c, 3, 53, 127
6, 25440, Note_on_c, 3, 60, 127
6, 25526, Note_on_c, 3, 53, 0
6, 25526, Note_on_c, 3, 60, 0
6, 25530, Note_on_c, 3, 69, 127
6, 25530, Note_on_c, 3, 72, 127
6, 25559, Note_on_c, 3, 69, 0
6, 25559, Note_on_c, 3, 72, 0
6, 25560, Note_on_c, 3, 69, 127
6, 25560, Note_on_c, 3, 72, 127
6, 25674, Note_on_c, 3, 69, 0
6, 25674, Note_on_c, 3, 72, 0
6, 25680, Note_on_c, 3, 53, 127
6, 25680, Note_on_c, 3, 60, 127
6, 25766, Note_on_c, 3, 53, 0
6, 25766, Note_on_c, 3, 60, 0
6, 25770, Note_on_c, 3, 64, 127
6, 25770, Note_on_c, 3, 67, 127
6, 25799, Note_on_c, 3, 64, 0
6, 25799, Note_on_c, 3, 67, 0
6, 25800, Note_on_c, 3, 64, 127
6, 25800, Note_on_c, 3, 67, 127
6, 25914, Note_on_c, 3, 64, 0
6, 25914, Note_on_c, 3, 67, 0
6, 25920, Note_on_c, 3, 53, 127
6, 25920, Note_on_c, 3, 60, 127
6, 26006, Note_on_c, 3, 53, 0
6, 26006, Note_on_c, 3, 60, 0
6, 26010, Note_on_c, 3, 53, 127
6, 26010, Note_on_c, 3, 62, 127
6, 26010, Note_on_c, 3, 65, 127
6, 26039, Note_on_c, 3, 53, 0
6, 26039, Note_on_c, 3, 62, 0
6, 26039, Note_on_c, 3, 65, 0
6, 26040, Note_on_c, 3, 53, 127
6, 26040, Note_on_c, 3, 62, 127
6, 26040, Note_on_c, 3, 65, 127
6, 26097, Note_on_c, 3, 53, 0
6, 26097, Note_on_c, 3, 62, 0
6, 26097, Note_on_c, 3, 65, 0
6, 26100, Note_on_c, 3, 53, 127
6, 26100, Note_on_c, 3, 64, 127
6, 26100, Note_on_c, 3, 67, 127
6, 26157, Note_on_c, 3, 53, 0
6, 26157, Note_on_c, 3, 64, 0
6, 26157, Note_on_c, 3, 67, 0
6, 26160, Note_on_c, 3, 53, 127
6, 26160, Note_on_c, 3, 67, 127
6, 26160, Note_on_c, 3, 70, 127
6, 26217, Note_on_c, 3, 53, 0
6, 26217, Note_on_c, 3, 67, 0
6, 26217, Note_on_c, 3, 70, 0
6, 26220, Note_on_c, 3, 53, 127
6, 26220, Note_on_c, 3, 69, 127
6, 26220, Note_on_c, 3, 72, 127
6, 26391, Note_on_c, 3, 53, 0
6, 26391, Note_on_c, 3, 69, 0
6, 26391, Note_on_c, 3, 72, 0
6, 26400, Note_on_c, 3, 53, 127
6, 26400, Note_on_c, 3, 60, 127
6, 26486, Note_on_c, 3, 53, 0
6, 26486, Note_on_c, 3, 60, 0
6, 26490, Note_on_c, 3, 69, 127
6, 26490, Note_on_c, 3, 72, 127
6, 26519, Note_on_c, 3, 69, 0
6, 26519, Note_on_c, 3, 72, 0
6, 26520, Note_on_c, 3, 69, 127
6, 26520, Note_on_c, 3, 72, 127
6, 26634, Note_on_c, 3, 69, 0
6, 26634, Note_on_c, 3, 72, 0
6, 26640, Note_on_c, 3, 53, 127
6, 26640, Note_on_c, 3, 60, 127
6, 26726, Note_on_c, 3, 53, 0
6, 26726, Note_on_c, 3, 60, 0
6, 26730, Note_on_c, 3, 64, 127
6, 26730, Note_on_c, 3, 67, 127
6, 26759, Note_on_c, 3, 64, 0
6, 26759, Note_on_c, 3, 67, 0
6, 26760, Note_on_c, 3, 64, 127
6, 26760, Note_on_c, 3, 67, 127
6, 26874, Note_on_c, 3, 64, 0
6, 26874, Note_on_c, 3, 67, 0
6, 26880, Note_on_c, 3, 53, 127
6, 26880, Note_on_c, 3, 60, 127
6, 26966, Note_on_c, 3, 53, 0
6, 26966, Note_on_c, 3, 60, 0
6, 26970, Note_on_c, 3, 53, 127
6, 26970, Note_on_c, 3, 62, 127
6, 26970, Note_on_c, 3, 65, 127
6, 26999, Note_on_c, 3, 53, 0
6, 26999, Note_on_c, 3, 62, 0
6, 26999, Note_on_c, 3, 65, 0
6, 27000, Note_on_c, 3, 53, 127
6, 27000, Note_on_c, 3, 62, 127
6, 27000, Note_on_c, 3, 65, 127
6, 27057, Note_on_c, 3, 53, 0
6, 27057, Note_on_c, 3, 62, 0
6, 27057, Note_on_c, 3, 65, 0
6, 27060, Note_on_c, 3, 53, 127
6, 27060, Note_on_c, 3, 64, 127
6, 27060, Note_on_c, 3, 67, 127
6, 27117, Note_on_c, 3, 53, 0
6, 27117, Note_on_c, 3, 64, 0
6, 27117, Note_on_c, 3, 67, 0
6, 27120, Note_on_c, 3, 53, 127
6, 27120, Note_on_c, 3, 67, 127
6, 27120, Note_on_c, 3, 70, 127
6, 27177, Note_on_c, 3, 53, 0
6, 27177, Note_on_c, 3, 67, 0
6, 27177, Note_on_c, 3, 70, 0
6, 27180, Note_on_c, 3, 53, 127
6, 27180, Note_on_c, 3, 69, 127
6, 27180, Note_on_c, 3, 72, 127
6, 27351, Note_on_c, 3, 53, 0
6, 27351, Note_on_c, 3, 69, 0
6, 27351, Note_on_c, 3, 72, 0
6, 27360, Note_on_c, 3, 56, 127
6, 27389, Note_on_c, 3, 56, 0
6, 27390, Note_on_c, 3, 53, 127
6, 27419, Note_on_c, 3, 53, 0
6, 27420, Note_on_c, 3, 53, 127
6, 27449, Note_on_c, 3, 53, 0
6, 27450, Note_on_c, 3, 60, 127
6, 27479, Note_on_c, 3, 60, 0
6, 27480, Note_on_c, 3, 60, 127
6, 27480, Note_on_c, 3, 67, 127
6, 27537, Note_on_c, 3, 60, 0
6, 27537, Note_on_c, 3, 67, 0
6, 27540, Note_on_c, 3, 60, 127
6, 27540, Note_on_c, 3, 67, 127
6, 27569, Note_on_c, 3, 60, 0
6, 27569, Note_on_c, 3, 67, 0
6, 27570, Note_on_c, 3, 60, 127
6, 27570, Note_on_c, 3, 67, 127
6, 27599, Note_on_c, 3, 60, 0
6, 27599, Note_on_c, 3, 67, 0
6, 27600, Note_on_c, 3, 56, 127
6, 27629, Note_on_c, 3, 56, 0
6, 27630, Note_on_c, 3, 53, 127
6, 27659, Note_on_c, 3, 53, 0
6, 27660, Note_on_c, 3, 53, 127
6, 27689, Note_on_c, 3, 53, 0
6, 27690, Note_on_c, 3, 60, 127
6, 27719, Note_on_c, 3, 60, 0
6, 27720, Note_on_c, 3, 60, 127
6, 27720, Note_on_c, 3, 65, 127
6, 27777, Note_on_c, 3, 60, 0
6, 27777, Note_on_c, 3, 65, 0
6, 27780, Note_on_c, 3, 60, 127
6, 27780, Note_on_c, 3, 65, 127
6, 27809, Note_on_c, 3, 60, 0
6, 27809, Note_on_c, 3, 65, 0
6, 27810, Note_on_c, 3, 60, 127
6, 27810, Note_on_c, 3, 65, 127
6, 27839, Note_on_c, 3, 60, 0
6, 27839, Note_on_c, 3, 65, 0
6, 27840, Note_on_c, 3, 56, 127
6, 27869, Note_on_c, 3, 56, 0
6, 27870, Note_on_c, 3, 53, 127
6, 27899, Note_on_c, 3, 53, 0
6, 27900, Note_on_c, 3, 53, 127
6, 27929, Note_on_c, 3, 53, 0
6, 27930, Note_on_c, 3, 60, 127
6, 27959, Note_on_c, 3, 60, 0
6, 27960, Note_on_c, 3, 60, 127
6, 27960, Note_on_c, 3, 65, 127
6, 28017, Note_on_c, 3, 60, 0
6, 28017, Note_on_c, 3, 65, 0
6, 28020, Note_on_c, 3, 60, 127
6, 28020, Note_on_c, 3, 65, 127
6, 28049, Note_on_c, 3, 60, 0
6, 28049, Note_on_c, 3, 65, 0
6, 28050, Note_on_c, 3, 60, 127
6, 28050, Note_on_c, 3, 65, 127
6, 28079, Note_on_c, 3, 60, 0
6, 28079, Note_on_c, 3, 65, 0
6, 28080, Note_on_c, 3, 56, 127
6, 28109, Note_on_c, 3, 56, 0
6, 28110, Note_on_c, 3, 53, 127
6, 28139, Note_on_c, 3, 53, 0
6, 28140, Note_on_c, 3, 53, 127
6, 28169, Note_on_c, 3, 53, 0
6, 28170, Note_on_c, 3, 60, 127
6, 28199, Note_on_c, 3, 60, 0
6, 28200, Note_on_c, 3, 60, 127
6, 28200, Note_on_c, 3, 65, 127
6, 28257, Note_on_c, 3, 60, 0
6, 28257, Note_on_c, 3, 65, 0
6, 28260, Note_on_c, 3, 65, 127
6, 28260, Note_on_c, 3, 70, 127
6, 28289, Note_on_c, 3, 65, 0
6, 28289, Note_on_c, 3, 70, 0
6, 28290, Note_on_c, 3, 65, 127
6, 28290, Note_on_c, 3, 70, 127
6, 28319, Note_on_c, 3, 65, 0
6, 28319, Note_on_c, 3, 70, 0
6, 28320, Note_on_c, 3, 56, 127
6, 28349, Note_on_c, 3, 56, 0
6, 28350, Note_on_c, 3, 53, 127
6, 28379, Note_on_c, 3, 53, 0
6, 28380, Note_on_c, 3, 53, 127
6, 28409, Note_on_c, 3, 53, 0
6, 28410, Note_on_c, 3, 60, 127
6, 28439, Note_on_c, 3, 60, 0
6, 28440, Note_on_c, 3, 60, 127
6, 28440, Note_on_c, 3, 67, 127
6, 28497, Note_on_c, 3, 60, 0
6, 28497, Note_on_c, 3, 67, 0
6, 28500, Note_on_c, 3, 60, 127
6, 28500, Note_on_c, 3, 67, 127
6, 28529, Note_on_c, 3, 60, 0
6, 28529, Note_on_c, 3, 67, 0
6, 28530, Note_on_c, 3, 60, 127
6, 28530, Note_on_c, 3, 67, 127
6, 28559, Note_on_c, 3, 60, 0
6, 28559, Note_on_c, 3, 67, 0
6, 28560, Note_on_c, 3, 56, 127
6, 28589, Note_on_c, 3, 56, 0
6, 28590, Note_on_c, 3, 53, 127
6, 28619, Note_on_c, 3, 53, 0
6, 28620, Note_on_c, 3, 53, 127
6, 28649, Note_on_c, 3, 53, 0
6, 28650, Note_on_c, 3, 60, 127
6, 28679, Note_on_c, 3, 60, 0
6, 28680, Note_on_c, 3, 60, 127
6, 28680, Note_on_c, 3, 65, 127
6, 28737, Note_on_c, 3, 60, 0
6, 28737, Note_on_c, 3, 65, 0
6, 28740, Note_on_c, 3, 60, 127
6, 28740, Note_on_c, 3, 65, 127
6, 28769, Note_on_c, 3, 60, 0
6, 28769, Note_on_c, 3, 65, 0
6, 28770, Note_on_c, 3, 60, 127
6, 28770, Note_on_c, 3, 65, 127
6, 28799, Note_on_c, 3, 60, 0
6, 28799, Note_on_c, 3, 65, 0
6, 28800, Note_on_c, 3, 56, 127
6, 28829, Note_on_c, 3, 56, 0
6, 28830, Note_on_c, 3, 53, 127
6, 28859, Note_on_c, 3, 53, 0
6, 28860, Note_on_c, 3, 53, 127
6, 28889, Note_on_c, 3, 53, 0
6, 28890, Note_on_c, 3, 60, 127
6, 28919, Note_on_c, 3, 60, 0
6, 28920, Note_on_c, 3, 60, 127
6, 28920, Note_on_c, 3, 65, 127
6, 28977, Note_on_c, 3, 60, 0
6, 28977, Note_on_c, 3, 65, 0
6, 28980, Note_on_c, 3, 60, 127
6, 28980, Note_on_c, 3, 65, 127
6, 29009, Note_on_c, 3, 60, 0
6, 29009, Note_on_c, 3, 65, 0
6, 29010, Note_on_c, 3, 60, 127
6, 29010, Note_on_c, 3, 65, 127
6, 29039, Note_on_c, 3, 60, 0
6, 29039, Note_on_c, 3, 65, 0
6, 29040, Note_on_c, 3, 56, 127
6, 29069, Note_on_c, 3, 56, 0
6, 29070, Note_on_c, 3, 53, 127
6, 29099, Note_on_c, 3, 53, 0
6, 29100, Note_on_c, 3, 53, 127
6, 29129, Note_on_c, 3, 53, 0
6, 29130, Note_on_c, 3, 60, 127
6, 29159, Note_on_c, 3, 60, 0
6, 29160, Note_on_c, 3, 60, 127
6, 29160, Note_on_c, 3, 65, 127
6, 29217, Note_on_c, 3, 60, 0
6, 29217, Note_on_c, 3, 65, 0
6, 29220, Note_on_c, 3, 65, 127
6, 29220, Note_on_c, 3, 70, 127
6, 29249, Note_on_c, 3, 65, 0
6, 29249, Note_on_c, 3, 70, 0
6, 29250, Note_on_c, 3, 65, 127
6, 29250, Note_on_c, 3, 70, 127
6, 29279, Note_on_c, 3, 65, 0
6, 29279, Note_on_c, 3, 70, 0
6, 29280, Note_on_c, 3, 56, 127
6, 29309, Note_on_c, 3, 56, 0
6, 29310, Note_on_c, 3, 53, 127
6, 29339, Note_on_c, 3, 53, 0
6, 29340, Note_on_c, 3, 53, 127
6, 29369, Note_on_c, 3, 53, 0
6, 29370, Note_on_c, 3, 60, 127
6, 29399, Note_on_c, 3, 60, 0
6, 29400, Note_on_c, 3, 60, 127
6, 29400, Note_on_c, 3, 67, 127
6, 29457, Note_on_c, 3, 60, 0
6, 29457, Note_on_c, 3, 67, 0
6, 29460, Note_on_c, 3, 60, 127
6, 29460, Note_on_c, 3, 67, 127
6, 29489, Note_on_c, 3, 60, 0
6, 29489, Note_on_c, 3, 67, 0
6, 29490, Note_on_c, 3, 60, 127
6, 29490, Note_on_c, 3, 67, 127
6, 29519, Note_on_c, 3, 60, 0
6, 29519, Note_on_c, 3, 67, 0
6, 29520, Note_on_c, 3, 56, 127
6, 29549, Note_on_c, 3, 56, 0
6, 29550, Note_on_c, 3, 53, 127
6, 29579, Note_on_c, 3, 53, 0
6, 29580, Note_on_c, 3, 53, 127
6, 29609, Note_on_c, 3, 53, 0
6, 29610, Note_on_c, 3, 60, 127
6, 29639, Note_on_c, 3, 60, 0
6, 29640, Note_on_c, 3, 60, 127
6, 29640, Note_on_c, 3, 65, 127
6, 29697, Note_on_c, 3, 60, 0
6, 29697, Note_on_c, 3, 65, 0
6, 29700, Note_on_c, 3, 60, 127
6, 29700, Note_on_c, 3, 65, 127
6, 29729, Note_on_c, 3, 60, 0
6, 29729, Note_on_c, 3, 65, 0
6, 29730, Note_on_c, 3, 60, 127
6, 29730, Note_on_c, 3, 65, 127
6, 29759, Note_on_c, 3, 60, 0
6, 29759, Note_on_c, 3, 65, 0
6, 29760, Note_on_c, 3, 56, 127
6, 29789, Note_on_c, 3, 56, 0
6, 29790, Note_on_c, 3, 53, 127
6, 29819, Note_on_c, 3, 53, 0
6, 29820, Note_on_c, 3, 53, 127
6, 29849, Note_on_c, 3, 53, 0
6, 29850, Note_on_c, 3, 60, 127
6, 29879, Note_on_c, 3, 60, 0
6, 29880, Note_on_c, 3, 60, 127
6, 29880, Note_on_c, 3, 65, 127
6, 29937, Note_on_c, 3, 60, 0
6, 29937, Note_on_c, 3, 65, 0
6, 29940, Note_on_c, 3, 60, 127
6, 29940, Note_on_c, 3, 65, 127
6, 29969, Note_on_c, 3, 60, 0
6, 29969, Note_on_c, 3, 65, 0
6, 29970, Note_on_c, 3, 60, 127
6, 29970, Note_on_c, 3, 65, 127
6, 29999, Note_on_c, 3, 60, 0
6, 29999, Note_on_c, 3, 65, 0
6, 30000, Note_on_c, 3, 56, 127
6, 30029, Note_on_c, 3, 56, 0
6, 30030, Note_on_c, 3, 53, 127
6, 30059, Note_on_c, 3, 53, 0
6, 30060, Note_on_c, 3, 53, 127
6, 30089, Note_on_c, 3, 53, 0
6, 30090, Note_on_c, 3, 60, 127
6, 30119, Note_on_c, 3, 60, 0
6, 30120, Note_on_c, 3, 60, 127
6, 30120, Note_on_c, 3, 65, 127
6, 30177, Note_on_c, 3, 60, 0
6, 30177, Note_on_c, 3, 65, 0
6, 30180, Note_on_c, 3, 65, 127
6, 30180, Note_on_c, 3, 70, 127
6, 30209, Note_on_c, 3, 65, 0
6, 30209, Note_on_c, 3, 70, 0
6, 30210, Note_on_c, 3, 65, 127
6, 30210, Note_on_c, 3, 70, 127
6, 30239, Note_on_c, 3, 65, 0
6, 30239, Note_on_c, 3, 70, 0
6, 30240, Note_on_c, 3, 56, 127
6, 30269, Note_on_c, 3, 56, 0
6, 30270, Note_on_c, 3, 53, 127
6, 30299, Note_on_c, 3, 53, 0
6, 30300, Note_on_c, 3, 53, 127
6, 30329, Note_on_c, 3, 53, 0
6, 30330, Note_on_c, 3, 60, 127
6, 30359, Note_on_c, 3, 60, 0
6, 30360, Note_on_c, 3, 60, 127
6, 30360, Note_on_c, 3, 65, 127
6, 30417, Note_on_c, 3, 60, 0
6, 30417, Note_on_c, 3, 65, 0
6, 30420, Note_on_c, 3, 60, 127
6, 30420, Note_on_c, 3, 65, 127
6, 30449, Note_on_c, 3, 60, 0
6, 30449, Note_on_c, 3, 65, 0
6, 30450, Note_on_c, 3, 60, 127
6, 30450, Note_on_c, 3, 65, 127
6, 30479, Note_on_c, 3, 60, 0
6, 30479, Note_on_c, 3, 65, 0
6, 30480, Note_on_c, 3, 56, 127
6, 30509, Note_on_c, 3, 56, 0
6, 30510, Note_on_c, 3, 53, 127
6, 30539, Note_on_c, 3, 53, 0
6, 30540, Note_on_c, 3, 53, 127
6, 30569, Note_on_c, 3, 53, 0
6, 30570, Note_on_c, 3, 60, 127
6, 30599, Note_on_c, 3, 60, 0
6, 30600, Note_on_c, 3, 60, 127
6, 30600, Note_on_c, 3, 65, 127
6, 30657, Note_on_c, 3, 60, 0
6, 30657, Note_on_c, 3, 65, 0
6, 30660, Note_on_c, 3, 65, 127
6, 30660, Note_on_c, 3, 70, 127
6, 30689, Note_on_c, 3, 65, 0
6, 30689, Note_on_c, 3, 70, 0
6, 30690, Note_on_c, 3, 65, 127
6, 30690, Note_on_c, 3, 70, 127
6, 30719, Note_on_c, 3, 65, 0
6, 30719, Note_on_c, 3, 70, 0
6, 30720, Note_on_c, 3, 56, 127
6, 30749, Note_on_c, 3, 56, 0
6, 30750, Note_on_c, 3, 53, 127
6, 30779, Note_on_c, 3, 53, 0
6, 30780, Note_on_c, 3, 53, 127
6, 30809, Note_on_c, 3, 53, 0
6, 30810, Note_on_c, 3, 60, 127
6, 30839, Note_on_c, 3, 60, 0
6, 30840, Note_on_c, 3, 60, 127
6, 30840, Note_on_c, 3, 65, 127
6, 30897, Note_on_c, 3, 60, 0
6, 30897, Note_on_c, 3, 65, 0
6, 30900, Note_on_c, 3, 60, 127
6, 30900, Note_on_c, 3, 65, 127
6, 30929, Note_on_c, 3, 60, 0
6, 30929, Note_on_c, 3, 65, 0
6, 30930, Note_on_c, 3, 60, 127
6, 30930, Note_on_c, 3, 65, 127
6, 30959, Note_on_c, 3, 60, 0
6, 30959, Note_on_c, 3, 65, 0
6, 30960, Note_on_c, 3, 56, 127
6, 30989, Note_on_c, 3, 56, 0
6, 30990, Note_on_c, 3, 53, 127
6, 31019, Note_on_c, 3, 53, 0
6, 31020, Note_on_c, 3, 53, 127
6, 31049, Note_on_c, 3, 53, 0
6, 31050, Note_on_c, 3, 60, 127
6, 31079, Note_on_c, 3, 60, 0
6, 31080, Note_on_c, 3, 60, 127
6, 31080, Note_on_c, 3, 65, 127
6, 31137, Note_on_c, 3, 60, 0
6, 31137, Note_on_c, 3, 65, 0
6, 31140, Note_on_c, 3, 65, 127
6, 31140, Note_on_c, 3, 60, 127
6, 31169, Note_on_c, 3, 65, 0
6, 31169, Note_on_c, 3, 60, 0
6, 31170, Note_on_c, 3, 65, 127
6, 31170, Note_on_c, 3, 60, 127
6, 31199, Note_on_c, 3, 65, 0
6, 31199, Note_on_c, 3, 60, 0
6, 31200, Note_on_c, 3, 56, 127
6, 31229, Note_on_c, 3, 56, 0
6, 31230, Note_on_c, 3, 53, 127
6, 31259, Note_on_c, 3, 53, 0
6, 31260, Note_on_c, 3, 53, 127
6, 31289, Note_on_c, 3, 53, 0
6, 31290, Note_on_c, 3, 60, 127
6, 31319, Note_on_c, 3, 60, 0
6, 31320, Note_on_c, 3, 60, 127
6, 31320, Note_on_c, 3, 65, 127
6, 31377, Note_on_c, 3, 60, 0
6, 31377, Note_on_c, 3, 65, 0
6, 31380, Note_on_c, 3, 60, 127
6, 31380, Note_on_c, 3, 65, 127
6, 31409, Note_on_c, 3, 60, 0
6, 31409, Note_on_c, 3, 65, 0
6, 31410, Note_on_c, 3, 60, 127
6, 31410, Note_on_c, 3, 65, 127
6, 31439, Note_on_c, 3, 60, 0
6, 31439, Note_on_c, 3, 65, 0
6, 31440, Note_on_c, 3, 56, 127
6, 31469, Note_on_c, 3, 56, 0
6, 31470, Note_on_c, 3, 53, 127
6, 31499, Note_on_c, 3, 53, 0
6, 31500, Note_on_c, 3, 53, 127
6, 31529, Note_on_c, 3, 53, 0
6, 31530, Note_on_c, 3, 60, 127
6, 31559, Note_on_c, 3, 60, 0
6, 31560, Note_on_c, 3, 60, 127
6, 31560, Note_on_c, 3, 65, 127
6, 31617, Note_on_c, 3, 60, 0
6, 31617, Note_on_c, 3, 65, 0
6, 31620, Note_on_c, 3, 65, 127
6, 31620, Note_on_c, 3, 70, 127
6, 31649, Note_on_c, 3, 65, 0
6, 31649, Note_on_c, 3, 70, 0
6, 31650, Note_on_c, 3, 65, 127
6, 31650, Note_on_c, 3, 70, 127
6, 31679, Note_on_c, 3, 65, 0
6, 31679, Note_on_c, 3, 70, 0
6, 31680, Note_on_c, 3, 56, 127
6, 31709, Note_on_c, 3, 56, 0
6, 31710, Note_on_c, 3, 53, 127
6, 31739, Note_on_c, 3, 53, 0
6, 31740, Note_on_c, 3, 53, 127
6, 31769, Note_on_c, 3, 53, 0
6, 31770, Note_on_c, 3, 60, 127
6, 31799, Note_on_c, 3, 60, 0
6, 31800, Note_on_c, 3, 60, 127
6, 31800, Note_on_c, 3, 65, 127
6, 31857, Note_on_c, 3, 60, 0
6, 31857, Note_on_c, 3, 65, 0
6, 31860, Note_on_c, 3, 60, 127
6, 31860, Note_on_c, 3, 65, 127
6, 31889, Note_on_c, 3, 60, 0
6, 31889, Note_on_c, 3, 65, 0
6, 31890, Note_on_c, 3, 60, 127
6, 31890, Note_on_c, 3, 65, 127
6, 31919, Note_on_c, 3, 60, 0
6, 31919, Note_on_c, 3, 65, 0
6, 31920, Note_on_c, 3, 56, 127
6, 31949, Note_on_c, 3, 56, 0
6, 31950, Note_on_c, 3, 53, 127
6, 31979, Note_on_c, 3, 53, 0
6, 31980, Note_on_c, 3, 53, 127
6, 32009, Note_on_c, 3, 53, 0
6, 32010, Note_on_c, 3, 60, 127
6, 32039, Note_on_c, 3, 60, 0
6, 32040, Note_on_c, 3, 60, 127
6, 32040, Note_on_c, 3, 65, 127
6, 32097, Note_on_c, 3, 60, 0
6, 32097, Note_on_c, 3, 65, 0
6, 32100, Note_on_c, 3, 65, 127
6, 32100, Note_on_c, 3, 60, 127
6, 32129, Note_on_c, 3, 65, 0
6, 32129, Note_on_c, 3, 60, 0
6, 32130, Note_on_c, 3, 65, 127
6, 32130, Note_on_c, 3, 60, 127
6, 32159, Note_on_c, 3, 65, 0
6, 32159, Note_on_c, 3, 60, 0
6, 32160, Note_on_c, 3, 56, 127
6, 32189, Note_on_c, 3, 56, 0
6, 32190, Note_on_c, 3, 53, 127
6, 32219, Note_on_c, 3, 53, 0
6, 32220, Note_on_c, 3, 53, 127
6, 32249, Note_on_c, 3, 53, 0
6, 32250, Note_on_c, 3, 60, 127
6, 32279, Note_on_c, 3, 60, 0
6, 32280, Note_on_c, 3, 60, 127
6, 32280, Note_on_c, 3, 65, 127
6, 32337, Note_on_c, 3, 60, 0
6, 32337, Note_on_c, 3, 65, 0
6, 32340, Note_on_c, 3, 60, 127
6, 32340, Note_on_c, 3, 65, 127
6, 32369, Note_on_c, 3, 60, 0
6, 32369, Note_on_c, 3, 65, 0
6, 32370, Note_on_c, 3, 60, 127
6, 32370, Note_on_c, 3, 65, 127
6, 32399, Note_on_c, 3, 60, 0
6, 32399, Note_on_c, 3, 65, 0
6, 32400, Note_on_c, 3, 56, 127
6, 32429, Note_on_c, 3, 56, 0
6, 32430, Note_on_c, 3, 53, 127
6, 32459, Note_on_c, 3, 53, 0
6, 32460, Note_on_c, 3, 53, 127
6, 32489, Note_on_c, 3, 53, 0
6, 32490, Note_on_c, 3, 60, 127
6, 32519, Note_on_c, 3, 60, 0
6, 32520, Note_on_c, 3, 60, 127
6, 32520, Note_on_c, 3, 65, 127
6, 32577, Note_on_c, 3, 60, 0
6, 32577, Note_on_c, 3, 65, 0
6, 32580, Note_on_c, 3, 65, 127
6, 32580, Note_on_c, 3, 70, 127
6, 32609, Note_on_c, 3, 65, 0
6, 32609, Note_on_c, 3, 70, 0
6, 32610, Note_on_c, 3, 65, 127
6, 32610, Note_on_c, 3, 70, 127
6, 32639, Note_on_c, 3, 65, 0
6, 32639, Note_on_c, 3, 70, 0
6, 32640, Note_on_c, 3, 56, 127
6, 32669, Note_on_c, 3, 56, 0
6, 32670, Note_on_c, 3, 53, 127
6, 32699, Note_on_c, 3, 53, 0
6, 32700, Note_on_c, 3, 53, 127
6, 32729, Note_on_c, 3, 53, 0
6, 32730, Note_on_c, 3, 60, 127
6, 32759, Note_on_c, 3, 60, 0
6, 32760, Note_on_c, 3, 60, 127
6, 32760, Note_on_c, 3, 65, 127
6, 32817, Note_on_c, 3, 60, 0
6, 32817, Note_on_c, 3, 65, 0
6, 32820, Note_on_c, 3, 60, 127
6, 32820, Note_on_c, 3, 65, 127
6, 32849, Note_on_c, 3, 60, 0
6, 32849, Note_on_c, 3, 65, 0
6, 32850, Note_on_c, 3, 60, 127
6, 32850, Note_on_c, 3, 65, 127
6, 32879, Note_on_c, 3, 60, 0
6, 32879, Note_on_c, 3, 65, 0
6, 32880, Note_on_c, 3, 56, 127
6, 32909, Note_on_c, 3, 56, 0
6, 32910, Note_on_c, 3, 53, 127
6, 32939, Note_on_c, 3, 53, 0
6, 32940, Note_on_c, 3, 53, 127
6, 32969, Note_on_c, 3, 53, 0
6, 32970, Note_on_c, 3, 60, 127
6, 32999, Note_on_c, 3, 60, 0
6, 33000, Note_on_c, 3, 60, 127
6, 33000, Note_on_c, 3, 65, 127
6, 33057, Note_on_c, 3, 60, 0
6, 33057, Note_on_c, 3, 65, 0
6, 33060, Note_on_c, 3, 65, 127
6, 33060, Note_on_c, 3, 60, 127
6, 33089, Note_on_c, 3, 65, 0
6, 33089, Note_on_c, 3, 60, 0
6, 33090, Note_on_c, 3, 65, 127
6, 33090, Note_on_c, 3, 60, 127
6, 33119, Note_on_c, 3, 65, 0
6, 33119, Note_on_c, 3, 60, 0
6, 33120, Note_on_c, 3, 56, 127
6, 33149, Note_on_c, 3, 56, 0
6, 33150, Note_on_c, 3, 53, 127
6, 33179, Note_on_c, 3, 53, 0
6, 33180, Note_on_c, 3, 53, 127
6, 33209, Note_on_c, 3, 53, 0
6, 33210, Note_on_c, 3, 60, 127
6, 33239, Note_on_c, 3, 60, 0
6, 33240, Note_on_c, 3, 60, 127
6, 33240, Note_on_c, 3, 65, 127
6, 33297, Note_on_c, 3, 60, 0
6, 33297, Note_on_c, 3, 65, 0
6, 33300, Note_on_c, 3, 60, 127
6, 33300, Note_on_c, 3, 65, 127
6, 33329, Note_on_c, 3, 60, 0
6, 33329, Note_on_c, 3, 65, 0
6, 33330, Note_on_c, 3, 60, 127
6, 33330, Note_on_c, 3, 65, 127
6, 33359, Note_on_c, 3, 60, 0
6, 33359, Note_on_c, 3, 65, 0
6, 33360, Note_on_c, 3, 56, 127
6, 33389, Note_on_c, 3, 56, 0
6, 33390, Note_on_c, 3, 53, 127
6, 33419, Note_on_c, 3, 53, 0
6, 33420, Note_on_c, 3, 53, 127
6, 33449, Note_on_c, 3, 53, 0
6, 33450, Note_on_c, 3, 60, 127
6, 33479, Note_on_c, 3, 60, 0
6, 33480, Note_on_c, 3, 60, 127
6, 33480, Note_on_c, 3, 65, 127
6, 33537, Note_on_c, 3, 60, 0
6, 33537, Note_on_c, 3, 65, 0
6, 33540, Note_on_c, 3, 65, 127
6, 33540, Note_on_c, 3, 70, 127
6, 33569, Note_on_c, 3, 65, 0
6, 33569, Note_on_c, 3, 70, 0
6, 33570, Note_on_c, 3, 65, 127
6, 33570, Note_on_c, 3, 70, 127
6, 33599, Note_on_c, 3, 65, 0
6, 33599, Note_on_c, 3, 70, 0
6, 33600, Note_on_c, 3, 56, 127
6, 33629, Note_on_c, 3, 56, 0
6, 33630, Note_on_c, 3, 53, 127
6, 33659, Note_on_c, 3, 53, 0
6, 33660, Note_on_c, 3, 53, 127
6, 33689, Note_on_c, 3, 53, 0
6, 33690, Note_on_c, 3, 60, 127
6, 33719, Note_on_c, 3, 60, 0
6, 33720, Note_on_c, 3, 60, 127
6, 33720, Note_on_c, 3, 65, 127
6, 33777, Note_on_c, 3, 60, 0
6, 33777, Note_on_c, 3, 65, 0
6, 33780, Note_on_c, 3, 60, 127
6, 33780, Note_on_c, 3, 65, 127
6, 33809, Note_on_c, 3, 60, 0
6, 33809, Note_on_c, 3, 65, 0
6, 33810, Note_on_c, 3, 60, 127
6, 33810, Note_on_c, 3, 65, 127
6, 33839, Note_on_c, 3, 60, 0
6, 33839, Note_on_c, 3, 65, 0
6, 33840, Note_on_c, 3, 56, 127
6, 33869, Note_on_c, 3, 56, 0
6, 33870, Note_on_c, 3, 53, 127
6, 33899, Note_on_c, 3, 53, 0
6, 33900, Note_on_c, 3, 53, 127
6, 33929, Note_on_c, 3, 53, 0
6, 33930, Note_on_c, 3, 60, 127
6, 33959, Note_on_c, 3, 60, 0
6, 33960, Note_on_c, 3, 60, 127
6, 33960, Note_on_c, 3, 65, 127
6, 34017, Note_on_c, 3, 60, 0
6, 34017, Note_on_c, 3, 65, 0
6, 34020, Note_on_c, 3, 65, 127
6, 34020, Note_on_c, 3, 70, 127
6, 34049, Note_on_c, 3, 65, 0
6, 34049, Note_on_c, 3, 70, 0
6, 34050, Note_on_c, 3, 65, 127
6, 34050, Note_on_c, 3, 70, 127
6, 34079, Note_on_c, 3, 65, 0
6, 34079, Note_on_c, 3, 70, 0
6, 34080, Note_on_c, 3, 49, 127
6, 34080, Note_on_c, 3, 56, 127
6, 34080, Note_on_c, 3, 61, 127
6, 34109, Note_on_c, 3, 49, 0
6, 34109, Note_on_c, 3, 56, 0
6, 34109, Note_on_c, 3, 61, 0
6, 34110, Note_on_c, 3, 49, 127
6, 34110, Note_on_c, 3, 56, 127
6, 34110, Note_on_c, 3, 61, 127
6, 34139, Note_on_c, 3, 49, 0
6, 34139, Note_on_c, 3, 56, 0
6, 34139, Note_on_c, 3, 61, 0
6, 34140, Note_on_c, 3, 49, 127
6, 34140, Note_on_c, 3, 56, 127
6, 34140, Note_on_c, 3, 61, 127
6, 34169, Note_on_c, 3, 49, 0
6, 34169, Note_on_c, 3, 56, 0
6, 34169, Note_on_c, 3, 61, 0
6, 34170, Note_on_c, 3, 49, 127
6, 34170, Note_on_c, 3, 56, 127
6, 34170, Note_on_c, 3, 61, 127
6, 34199, Note_on_c, 3, 49, 0
6, 34199, Note_on_c, 3, 56, 0
6, 34199, Note_on_c, 3, 61, 0
6, 34200, Note_on_c, 3, 56, 127
6, 34200, Note_on_c, 3, 61, 127
6, 34200, Note_on_c, 3, 49, 127
6, 34257, Note_on_c, 3, 56, 0
6, 34257, Note_on_c, 3, 61, 0
6, 34257, Note_on_c, 3, 49, 0
6, 34260, Note_on_c, 3, 49, 127
6, 34260, Note_on_c, 3, 61, 127
6, 34260, Note_on_c, 3, 56, 127
6, 34289, Note_on_c, 3, 49, 0
6, 34289, Note_on_c, 3, 61, 0
6, 34289, Note_on_c, 3, 56, 0
6, 34290, Note_on_c, 3, 49, 127
6, 34290, Note_on_c, 3, 61, 127
6, 34290, Note_on_c, 3, 56, 127
6, 34319, Note_on_c, 3, 49, 0
6, 34319, Note_on_c, 3, 61, 0
6, 34319, Note_on_c, 3, 56, 0
6, 34320, Note_on_c, 3, 56, 127
6, 34320, Note_on_c, 3, 62, 127
6, 34320, Note_on_c, 3, 50, 127
6, 34349, Note_on_c, 3, 56, 0
6, 34349, Note_on_c, 3, 62, 0
6, 34349, Note_on_c, 3, 50, 0
6, 34350, Note_on_c, 3, 63, 127
6, 34350, Note_on_c, 3, 51, 127
6, 34350, Note_on_c, 3, 58, 127
6, 34379, Note_on_c, 3, 63, 0
6, 34379, Note_on_c, 3, 51, 0
6, 34379, Note_on_c, 3, 58, 0
6, 34380, Note_on_c, 3, 51, 127
6, 34380, Note_on_c, 3, 63, 127
6, 34380, Note_on_c, 3, 58, 127
6, 34409, Note_on_c, 3, 51, 0
6, 34409, Note_on_c, 3, 63, 0
6, 34409, Note_on_c, 3, 58, 0
6, 34410, Note_on_c, 3, 51, 127
6, 34410, Note_on_c, 3, 63, 127
6, 34410, Note_on_c, 3, 58, 127
6, 34439, Note_on_c, 3, 51, 0
6, 34439, Note_on_c, 3, 63, 0
6, 34439, Note_on_c, 3, 58, 0
6, 34440, Note_on_c, 3, 51, 127
6, 34440, Note_on_c, 3, 63, 127
6, 34440, Note_on_c, 3, 58, 127
6, 34554, Note_on_c, 3, 51, 0
6, 34554, Note_on_c, 3, 63, 0
6, 34554, Note_on_c, 3, 58, 0
6, 34560, Note_on_c, 3, 53, 127
6, 34589, Note_on_c, 3, 53, 0
6, 34590, Note_on_c, 3, 44, 127
6, 34590, Note_on_c, 3, 51, 127
6, 34676, Note_on_c, 3, 44, 0
6, 34676, Note_on_c, 3, 51, 0
6, 34680, Note_on_c, 3, 53, 127
6, 34709, Note_on_c, 3, 53, 0
6, 34710, Note_on_c, 3, 41, 127
6, 34710, Note_on_c, 3, 48, 127
6, 34796, Note_on_c, 3, 41, 0
6, 34796, Note_on_c, 3, 48, 0
6, 34800, Note_on_c, 3, 53, 127
6, 34829, Note_on_c, 3, 53, 0
6, 34830, Note_on_c, 3, 44, 127
6, 34830, Note_on_c, 3, 51, 127
6, 34916, Note_on_c, 3, 44, 0
6, 34916, Note_on_c, 3, 51, 0
6, 34920, Note_on_c, 3, 53, 127
6, 34949, Note_on_c, 3, 53, 0
6, 34950, Note_on_c, 3, 41, 127
6, 34950, Note_on_c, 3, 48, 127
6, 35036, Note_on_c, 3, 41, 0
6, 35036, Note_on_c, 3, 48, 0
6, 35040, Note_on_c, 3, 49, 127
6, 35040, Note_on_c, 3, 56, 127
6, 35040, Note_on_c, 3, 61, 127
6, 35069, Note_on_c, 3, 49, 0
6, 35069, Note_on_c, 3, 56, 0
6, 35069, Note_on_c, 3, 61, 0
6, 35070, Note_on_c, 3, 49, 127
6, 35070, Note_on_c, 3, 56, 127
6, 35070, Note_on_c, 3, 61, 127
6, 35099, Note_on_c, 3, 49, 0
6, 35099, Note_on_c, 3, 56, 0
6, 35099, Note_on_c, 3, 61, 0
6, 35100, Note_on_c, 3, 49, 127
6, 35100, Note_on_c, 3, 56, 127
6, 35100, Note_on_c, 3, 61, 127
6, 35129, Note_on_c, 3, 49, 0
6, 35129, Note_on_c, 3, 56, 0
6, 35129, Note_on_c, 3, 61, 0
6, 35130, Note_on_c, 3, 49, 127
6, 35130, Note_on_c, 3, 56, 127
6, 35130, Note_on_c, 3, 61, 127
6, 35159, Note_on_c, 3, 49, 0
6, 35159, Note_on_c, 3, 56, 0
6, 35159, Note_on_c, 3, 61, 0
6, 35160, Note_on_c, 3, 56, 127
6, 35160, Note_on_c, 3, 61, 127
6, 35160, Note_on_c, 3, 49, 127
6, 35217, Note_on_c, 3, 56, 0
6, 35217, Note_on_c, 3, 61, 0
6, 35217, Note_on_c, 3, 49, 0
6, 35220, Note_on_c, 3, 49, 127
6, 35220, Note_on_c, 3, 61, 127
6, 35220, Note_on_c, 3, 56, 127
6, 35249, Note_on_c, 3, 49, 0
6, 35249, Note_on_c, 3, 61, 0
6, 35249, Note_on_c, 3, 56, 0
6, 35250, Note_on_c, 3, 49, 127
6, 35250, Note_on_c, 3, 61, 127
6, 35250, Note_on_c, 3, 56, 127
6, 35279, Note_on_c, 3, 49, 0
6, 35279, Note_on_c, 3, 61, 0
6, 35279, Note_on_c, 3, 56, 0
6, 35280, Note_on_c, 3, 56, 127
6, 35280, Note_on_c, 3, 62, 127
6, 35280, Note_on_c, 3, 50, 127
6, 35309, Note_on_c, 3, 56, 0
6, 35309, Note_on_c, 3, 62, 0
6, 35309, Note_on_c, 3, 50, 0
6, 35310, Note_on_c, 3, 63, 127
6, 35310, Note_on_c, 3, 51, 127
6, 35310, Note_on_c, 3, 58, 127
6, 35339, Note_on_c, 3, 63, 0
6, 35339, Note_on_c, 3, 51, 0
6, 35339, Note_on_c, 3, 58, 0
6, 35340, Note_on_c, 3, 51, 127
6, 35340, Note_on_c, 3, 63, 127
6, 35340, Note_on_c, 3, 58, 127
6, 35369, Note_on_c, 3, 51, 0
6, 35369, Note_on_c, 3, 63, 0
6, 35369, Note_on_c, 3, 58, 0
6, 35370, Note_on_c, 3, 51, 127
6, 35370, Note_on_c, 3, 63, 127
6, 35370, Note_on_c, 3, 58, 127
6, 35399, Note_on_c, 3, 51, 0
6, 35399, Note_on_c, 3, 63, 0
6, 35399, Note_on_c, 3, 58, 0
6, 35400, Note_on_c, 3, 51, 127
6, 35400, Note_on_c, 3, 63, 127
6, 35400, Note_on_c, 3, 58, 127
6, 35514, Note_on_c, 3, 51, 0
6, 35514, Note_on_c, 3, 63, 0
6, 35514, Note_on_c, 3, 58, 0
6, 35520, Note_on_c, 3, 53, 127
6, 35549, Note_on_c, 3, 53, 0
6, 35550, Note_on_c, 3, 44, 127
6, 35550, Note_on_c, 3, 51, 127
6, 35636, Note_on_c, 3, 44, 0
6, 35636, Note_on_c, 3, 51, 0
6, 35640, Note_on_c, 3, 53, 127
6, 35669, Note_on_c, 3, 53, 0
6, 35670, Note_on_c, 3, 41, 127
6, 35670, Note_on_c, 3, 48, 127
6, 35756, Note_on_c, 3, 41, 0
6, 35756, Note_on_c, 3, 48, 0
6, 35760, Note_on_c, 3, 53, 127
6, 35789, Note_on_c, 3, 53, 0
6, 35790, Note_on_c, 3, 44, 127
6, 35790, Note_on_c, 3, 51, 127
6, 35876, Note_on_c, 3, 44, 0
6, 35876, Note_on_c, 3, 51, 0
6, 35880, Note_on_c, 3, 53, 127
6, 35909, Note_on_c, 3, 53, 0
6, 35910, Note_on_c, 3, 41, 127
6, 35910, Note_on_c, 3, 48, 127
6, 35996, Note_on_c, 3, 41, 0
6, 35996, Note_on_c, 3, 48, 0
6, 36480, Note_on_c, 3, 56, 127
6, 36509, Note_on_c, 3, 56, 0
6, 36510, Note_on_c, 3, 53, 127
6, 36539, Note_on_c, 3, 53, 0
6, 36540, Note_on_c, 3, 53, 127
6, 36569, Note_on_c, 3, 53, 0
6, 36570, Note_on_c, 3, 60, 127
6, 36599, Note_on_c, 3, 60, 0
6, 36600, Note_on_c, 3, 60, 127
6, 36600, Note_on_c, 3, 67, 127
6, 36657, Note_on_c, 3, 60, 0
6, 36657, Note_on_c, 3, 67, 0
6, 36660, Note_on_c, 3, 60, 127
6, 36660, Note_on_c, 3, 67, 127
6, 36689, Note_on_c, 3, 60, 0
6, 36689, Note_on_c, 3, 67, 0
6, 36690, Note_on_c, 3, 60, 127
6, 36690, Note_on_c, 3, 67, 127
6, 36719, Note_on_c, 3, 60, 0
6, 36719, Note_on_c, 3, 67, 0
6, 36720, Note_on_c, 3, 56, 127
6, 36749, Note_on_c, 3, 56, 0
6, 36750, Note_on_c, 3, 53, 127
6, 36779, Note_on_c, 3, 53, 0
6, 36780, Note_on_c, 3, 53, 127
6, 36809, Note_on_c, 3, 53, 0
6, 36810, Note_on_c, 3, 60, 127
6, 36839, Note_on_c, 3, 60, 0
6, 36840, Note_on_c, 3, 60, 127
6, 36840, Note_on_c, 3, 65, 127
6, 36897, Note_on_c, 3, 60, 0
6, 36897, Note_on_c, 3, 65, 0
6, 36900, Note_on_c, 3, 60, 127
6, 36900, Note_on_c, 3, 65, 127
6, 36929, Note_on_c, 3, 60, 0
6, 36929, Note_on_c, 3, 65, 0
6, 36930, Note_on_c, 3, 60, 127
6, 36930, Note_on_c, 3, 65, 127
6, 36959, Note_on_c, 3, 60, 0
6, 36959, Note_on_c, 3, 65, 0
6, 36960, Note_on_c, 3, 56, 127
6, 36989, Note_on_c, 3, 56, 0
6, 36990, Note_on_c, 3, 53, 127
6, 37019, Note_on_c, 3, 53, 0
6, 37020, Note_on_c, 3, 53, 127
6, 37049, Note_on_c, 3, 53, 0
6, 37050, Note_on_c, 3, 60, 127
6, 37079, Note_on_c, 3, 60, 0
6, 37080, Note_on_c, 3, 60, 127
6, 37080, Note_on_c, 3, 65, 127
6, 37137, Note_on_c, 3, 60, 0
6, 37137, Note_on_c, 3, 65, 0
6, 37140, Note_on_c, 3, 60, 127
6, 37140, Note_on_c, 3, 65, 127
6, 37169, Note_on_c, 3, 60, 0
6, 37169, Note_on_c, 3, 65, 0
6, 37170, Note_on_c, 3, 60, 127
6, 37170, Note_on_c, 3, 65, 127
6, 37199, Note_on_c, 3, 60, 0
6, 37199, Note_on_c, 3, 65, 0
6, 37200, Note_on_c, 3, 56, 127
6, 37229, Note_on_c, 3, 56, 0
6, 37230, Note_on_c, 3, 53, 127
6, 37259, Note_on_c, 3, 53, 0
6, 37260, Note_on_c, 3, 53, 127
6, 37289, Note_on_c, 3, 53, 0
6, 37290, Note_on_c, 3, 60, 127
6, 37319, Note_on_c, 3, 60, 0
6, 37320, Note_on_c, 3, 60, 127
6, 37320, Note_on_c, 3, 65, 127
6, 37377, Note_on_c, 3, 60, 0
6, 37377, Note_on_c, 3, 65, 0
6, 37380, Note_on_c, 3, 65, 127
6, 37380, Note_on_c, 3, 70, 127
6, 37409, Note_on_c, 3, 65, 0
6, 37409, Note_on_c, 3, 70, 0
6, 37410, Note_on_c, 3, 65, 127
6, 37410, Note_on_c, 3, 70, 127
6, 37439, Note_on_c, 3, 65, 0
6, 37439, Note_on_c, 3, 70, 0
6, 37440, Note_on_c, 3, 56, 127
6, 37469, Note_on_c, 3, 56, 0
6, 37470, Note_on_c, 3, 53, 127
6, 37499, Note_on_c, 3, 53, 0
6, 37500, Note_on_c, 3, 53, 127
6, 37529, Note_on_c, 3, 53, 0
6, 37530, Note_on_c, 3, 60, 127
6, 37559, Note_on_c, 3, 60, 0
6, 37560, Note_on_c, 3, 60, 127
6, 37560, Note_on_c, 3, 67, 127
6, 37617, Note_on_c, 3, 60, 0
6, 37617, Note_on_c, 3, 67, 0
6, 37620, Note_on_c, 3, 60, 127
6, 37620, Note_on_c, 3, 67, 127
6, 37649, Note_on_c, 3, 60, 0
6, 37649, Note_on_c, 3, 67, 0
6, 37650, Note_on_c, 3, 60, 127
6, 37650, Note_on_c, 3, 67, 127
6, 37679, Note_on_c, 3, 60, 0
6, 37679, Note_on_c, 3, 67, 0
6, 37680, Note_on_c, 3, 56, 127
6, 37709, Note_on_c, 3, 56, 0
6, 37710, Note_on_c, 3, 53, 127
6, 37739, Note_on_c, 3, 53, 0
6, 37740, Note_on_c, 3, 53, 127
6, 37769, Note_on_c, 3, 53, 0
6, 37770, Note_on_c, 3, 60, 127
6, 37799, Note_on_c, 3, 60, 0
6, 37800, Note_on_c, 3, 60, 127
6, 37800, Note_on_c, 3, 65, 127
6, 37857, Note_on_c, 3, 60, 0
6, 37857, Note_on_c, 3, 65, 0
6, 37860, Note_on_c, 3, 60, 127
6, 37860, Note_on_c, 3, 65, 127
6, 37889, Note_on_c, 3, 60, 0
6, 37889, Note_on_c, 3, 65, 0
6, 37890, Note_on_c, 3, 60, 127
6, 37890, Note_on_c, 3, 65, 127
6, 37919, Note_on_c, 3, 60, 0
6, 37919, Note_on_c, 3, 65, 0
6, 37920, Note_on_c, 3, 56, 127
6, 37949, Note_on_c, 3, 56, 0
6, 37950, Note_on_c, 3, 53, 127
6, 37979, Note_on_c, 3, 53, 0
6, 37980, Note_on_c, 3, 53, 127
6, 38009, Note_on_c, 3, 53, 0
6, 38010, Note_on_c, 3, 60, 127
6, 38039, Note_on_c, 3, 60, 0
6, 38040, Note_on_c, 3, 60, 127
6, 38040, Note_on_c, 3, 65, 127
6, 38097, Note_on_c, 3, 60, 0
6, 38097, Note_on_c, 3, 65, 0
6, 38100, Note_on_c, 3, 60, 127
6, 38100, Note_on_c, 3, 65, 127
6, 38129, Note_on_c, 3, 60, 0
6, 38129, Note_on_c, 3, 65, 0
6, 38130, Note_on_c, 3, 60, 127
6, 38130, Note_on_c, 3, 65, 127
6, 38159, Note_on_c, 3, 60, 0
6, 38159, Note_on_c, 3, 65, 0
6, 38160, Note_on_c, 3, 56, 127
6, 38189, Note_on_c, 3, 56, 0
6, 38190, Note_on_c, 3, 53, 127
6, 38219, Note_on_c, 3, 53, 0
6, 38220, Note_on_c, 3, 53, 127
6, 38249, Note_on_c, 3, 53, 0
6, 38250, Note_on_c, 3, 60, 127
6, 38279, Note_on_c, 3, 60, 0
6, 38280, Note_on_c, 3, 60, 127
6, 38280, Note_on_c, 3, 65, 127
6, 38337, Note_on_c, 3, 60, 0
6, 38337, Note_on_c, 3, 65, 0
6, 38340, Note_on_c, 3, 65, 127
6, 38340, Note_on_c, 3, 70, 127
6, 38369, Note_on_c, 3, 65, 0
6, 38369, Note_on_c, 3, 70, 0
6, 38370, Note_on_c, 3, 65, 127
6, 38370, Note_on_c, 3, 70, 127
6, 38399, Note_on_c, 3, 65, 0
6, 38399, Note_on_c, 3, 70, 0
6, 38400, Note_on_c, 3, 56, 127
6, 38429, Note_on_c, 3, 56, 0
6, 38430, Note_on_c, 3, 53, 127
6, 38459, Note_on_c, 3, 53, 0
6, 38460, Note_on_c, 3, 53, 127
6, 38489, Note_on_c, 3, 53, 0
6, 38490, Note_on_c, 3, 60, 127
6, 38519, Note_on_c, 3, 60, 0
6, 38520, Note_on_c, 3, 60, 127
6, 38520, Note_on_c, 3, 67, 127
6, 38577, Note_on_c, 3, 60, 0
6, 38577, Note_on_c, 3, 67, 0
6, 38580, Note_on_c, 3, 60, 127
6, 38580, Note_on_c, 3, 67, 127
6, 38609, Note_on_c, 3, 60, 0
6, 38609, Note_on_c, 3, 67, 0
6, 38610, Note_on_c, 3, 60, 127
6, 38610, Note_on_c, 3, 67, 127
6, 38639, Note_on_c, 3, 60, 0
6, 38639, Note_on_c, 3, 67, 0
6, 38640, Note_on_c, 3, 56, 127
6, 38669, Note_on_c, 3, 56, 0
6, 38670, Note_on_c, 3, 53, 127
6, 38699, Note_on_c, 3, 53, 0
6, 38700, Note_on_c, 3, 53, 127
6, 38729, Note_on_c, 3, 53, 0
6, 38730, Note_on_c, 3, 60, 127
6, 38759, Note_on_c, 3, 60, 0
6, 38760, Note_on_c, 3, 60, 127
6, 38760, Note_on_c, 3, 65, 127
6, 38817, Note_on_c, 3, 60, 0
6, 38817, Note_on_c, 3, 65, 0
6, 38820, Note_on_c, 3, 60, 127
6, 38820, Note_on_c, 3, 65, 127
6, 38849, Note_on_c, 3, 60, 0
6, 38849, Note_on_c, 3, 65, 0
6, 38850, Note_on_c, 3, 60, 127
6, 38850, Note_on_c, 3, 65, 127
6, 38879, Note_on_c, 3, 60, 0
6, 38879, Note_on_c, 3, 65, 0
6, 38880, Note_on_c, 3, 56, 127
6, 38909, Note_on_c, 3, 56, 0
6, 38910, Note_on_c, 3, 53, 127
6, 38939, Note_on_c, 3, 53, 0
6, 38940, Note_on_c, 3, 53, 127
6, 38969, Note_on_c, 3, 53, 0
6, 38970, Note_on_c, 3, 60, 127
6, 38999, Note_on_c, 3, 60, 0
6, 39000, Note_on_c, 3, 60, 127
6, 39000, Note_on_c, 3, 65, 127
6, 39057, Note_on_c, 3, 60, 0
6, 39057, Note_on_c, 3, 65, 0
6, 39060, Note_on_c, 3, 60, 127
6, 39060, Note_on_c, 3, 65, 127
6, 39089, Note_on_c, 3, 60, 0
6, 39089, Note_on_c, 3, 65, 0
6, 39090, Note_on_c, 3, 60, 127
6, 39090, Note_on_c, 3, 65, 127
6, 39119, Note_on_c, 3, 60, 0
6, 39119, Note_on_c, 3, 65, 0
6, 39120, Note_on_c, 3, 56, 127
6, 39149, Note_on_c, 3, 56, 0
6, 39150, Note_on_c, 3, 53, 127
6, 39179, Note_on_c, 3, 53, 0
6, 39180, Note_on_c, 3, 53, 127
6, 39209, Note_on_c, 3, 53, 0
6, 39210, Note_on_c, 3, 60, 127
6, 39239, Note_on_c, 3, 60, 0
6, 39240, Note_on_c, 3, 60, 127
6, 39240, Note_on_c, 3, 65, 127
6, 39297, Note_on_c, 3, 60, 0
6, 39297, Note_on_c, 3, 65, 0
6, 39300, Note_on_c, 3, 65, 127
6, 39300, Note_on_c, 3, 70, 127
6, 39329, Note_on_c, 3, 65, 0
6, 39329, Note_on_c, 3, 70, 0
6, 39330, Note_on_c, 3, 65, 127
6, 39330, Note_on_c, 3, 70, 127
6, 39359, Note_on_c, 3, 65, 0
6, 39359, Note_on_c, 3, 70, 0
6, 39360, Note_on_c, 3, 56, 127
6, 39389, Note_on_c, 3, 56, 0
6, 39390, Note_on_c, 3, 53, 127
6, 39419, Note_on_c, 3, 53, 0
6, 39420, Note_on_c, 3, 53, 127
6, 39449, Note_on_c, 3, 53, 0
6, 39450, Note_on_c, 3, 60, 127
6, 39479, Note_on_c, 3, 60, 0
6, 39480, Note_on_c, 3, 60, 127
6, 39480, Note_on_c, 3, 65, 127
6, 39537, Note_on_c, 3, 60, 0
6, 39537, Note_on_c, 3, 65, 0
6, 39540, Note_on_c, 3, 60, 127
6, 39540, Note_on_c, 3, 65, 127
6, 39569, Note_on_c, 3, 60, 0
6, 39569, Note_on_c, 3, 65, 0
6, 39570, Note_on_c, 3, 60, 127
6, 39570, Note_on_c, 3, 65, 127
6, 39599, Note_on_c, 3, 60, 0
6, 39599, Note_on_c, 3, 65, 0
6, 39600, Note_on_c, 3, 56, 127
6, 39629, Note_on_c, 3, 56, 0
6, 39630, Note_on_c, 3, 53, 127
6, 39659, Note_on_c, 3, 53, 0
6, 39660, Note_on_c, 3, 53, 127
6, 39689, Note_on_c, 3, 53, 0
6, 39690, Note_on_c, 3, 60, 127
6, 39719, Note_on_c, 3, 60, 0
6, 39720, Note_on_c, 3, 60, 127
6, 39720, Note_on_c, 3, 65, 127
6, 39777, Note_on_c, 3, 60, 0
6, 39777, Note_on_c, 3, 65, 0
6, 39780, Note_on_c, 3, 65, 127
6, 39780, Note_on_c, 3, 70, 127
6, 39809, Note_on_c, 3, 65, 0
6, 39809, Note_on_c, 3, 70, 0
6, 39810, Note_on_c, 3, 65, 127
6, 39810, Note_on_c, 3, 70, 127
6, 39839, Note_on_c, 3, 65, 0
6, 39839, Note_on_c, 3, 70, 0
6, 39840, Note_on_c, 3, 56, 127
6, 39869, Note_on_c, 3, 56, 0
6, 39870, Note_on_c, 3, 53, 127
6, 39899, Note_on_c, 3, 53, 0
6, 39900, Note_on_c, 3, 53, 127
6, 39929, Note_on_c, 3, 53, 0
6, 39930, Note_on_c, 3, 60, 127
6, 39959, Note_on_c, 3, 60, 0
6, 39960, Note_on_c, 3, 60, 127
6, 39960, Note_on_c, 3, 65, 127
6, 40017, Note_on_c, 3, 60, 0
6, 40017, Note_on_c, 3, 65, 0
6, 40020, Note_on_c, 3, 60, 127
6, 40020, Note_on_c, 3, 65, 127
6, 40049, Note_on_c, 3, 60, 0
6, 40049, Note_on_c, 3, 65, 0
6, 40050, Note_on_c, 3, 60, 127
6, 40050, Note_on_c, 3, 65, 127
6, 40079, Note_on_c, 3, 60, 0
6, 40079, Note_on_c, 3, 65, 0
6, 40080, Note_on_c, 3, 56, 127
6, 40109, Note_on_c, 3, 56, 0
6, 40110, Note_on_c, 3, 53, 127
6, 40139, Note_on_c, 3, 53, 0
6, 40140, Note_on_c, 3, 53, 127
6, 40169, Note_on_c, 3, 53, 0
6, 40170, Note_on_c, 3, 60, 127
6, 40199, Note_on_c, 3, 60, 0
6, 40200, Note_on_c, 3, 60, 127
6, 40200, Note_on_c, 3, 65, 127
6, 40257, Note_on_c, 3, 60, 0
6, 40257, Note_on_c, 3, 65, 0
6, 40260, Note_on_c, 3, 65, 127
6, 40260, Note_on_c, 3, 60, 127
6, 40289, Note_on_c, 3, 65, 0
6, 40289, Note_on_c, 3, 60, 0
6, 40290, Note_on_c, 3, 65, 127
6, 40290, Note_on_c, 3, 60, 127
6, 40319, Note_on_c, 3, 65, 0
6, 40319, Note_on_c, 3, 60, 0
6, 40320, Note_on_c, 3, 56, 127
6, 40349, Note_on_c, 3, 56, 0
6, 40350, Note_on_c, 3, 53, 127
6, 40379, Note_on_c, 3, 53, 0
6, 40380, Note_on_c, 3, 53, 127
6, 40409, Note_on_c, 3, 53, 0
6, 40410, Note_on_c, 3, 60, 127
6, 40439, Note_on_c, 3, 60, 0
6, 40440, Note_on_c, 3, 60, 127
6, 40440, Note_on_c, 3, 65, 127
6, 40497, Note_on_c, 3, 60, 0
6, 40497, Note_on_c, 3, 65, 0
6, 40500, Note_on_c, 3, 60, 127
6, 40500, Note_on_c, 3, 65, 127
6, 40529, Note_on_c, 3, 60, 0
6, 40529, Note_on_c, 3, 65, 0
6, 40530, Note_on_c, 3, 60, 127
6, 40530, Note_on_c, 3, 65, 127
6, 40559, Note_on_c, 3, 60, 0
6, 40559, Note_on_c, 3, 65, 0
6, 40560, Note_on_c, 3, 56, 127
6, 40589, Note_on_c, 3, 56, 0
6, 40590, Note_on_c, 3, 53, 127
6, 40619, Note_on_c, 3, 53, 0
6, 40620, Note_on_c, 3, 53, 127
6, 40649, Note_on_c, 3, 53, 0
6, 40650, Note_on_c, 3, 60, 127
6, 40679, Note_on_c, 3, 60, 0
6, 40680, Note_on_c, 3, 60, 127
6, 40680, Note_on_c, 3, 65, 127
6, 40737, Note_on_c, 3, 60, 0
6, 40737, Note_on_c, 3, 65, 0
6, 40740, Note_on_c, 3, 65, 127
6, 40740, Note_on_c, 3, 70, 127
6, 40769, Note_on_c, 3, 65, 0
6, 40769, Note_on_c, 3, 70, 0
6, 40770, Note_on_c, 3, 65, 127
6, 40770, Note_on_c, 3, 70, 127
6, 40799, Note_on_c, 3, 65, 0
6, 40799, Note_on_c, 3, 70, 0
6, 40800, Note_on_c, 3, 56, 127
6, 40829, Note_on_c, 3, 56, 0
6, 40830, Note_on_c, 3, 53, 127
6, 40859, Note_on_c, 3, 53, 0
6, 40860, Note_on_c, 3, 53, 127
6, 40889, Note_on_c, 3, 53, 0
6, 40890, Note_on_c, 3, 60, 127
6, 40919, Note_on_c, 3, 60, 0
6, 40920, Note_on_c, 3, 60, 127
6, 40920, Note_on_c, 3, 65, 127
6, 40977, Note_on_c, 3, 60, 0
6, 40977, Note_on_c, 3, 65, 0
6, 40980, Note_on_c, 3, 60, 127
6, 40980, Note_on_c, 3, 65, 127
6, 41009, Note_on_c, 3, 60, 0
6, 41009, Note_on_c, 3, 65, 0
6, 41010, Note_on_c, 3, 60, 127
6, 41010, Note_on_c, 3, 65, 127
6, 41039, Note_on_c, 3, 60, 0
6, 41039, Note_on_c, 3, 65, 0
6, 41040, Note_on_c, 3, 56, 127
6, 41069, Note_on_c, 3, 56, 0
6, 41070, Note_on_c, 3, 53, 127
6, 41099, Note_on_c, 3, 53, 0
6, 41100, Note_on_c, 3, 53, 127
6, 41129, Note_on_c, 3, 53, 0
6, 41130, Note_on_c, 3, 60, 127
6, 41159, Note_on_c, 3, 60, 0
6, 41160, Note_on_c, 3, 60, 127
6, 41160, Note_on_c, 3, 65, 127
6, 41217, Note_on_c, 3, 60, 0
6, 41217, Note_on_c, 3, 65, 0
6, 41220, Note_on_c, 3, 65, 127
6, 41220, Note_on_c, 3, 60, 127
6, 41249, Note_on_c, 3, 65, 0
6, 41249, Note_on_c, 3, 60, 0
6, 41250, Note_on_c, 3, 65, 127
6, 41250, Note_on_c, 3, 60, 127
6, 41279, Note_on_c, 3, 65, 0
6, 41279, Note_on_c, 3, 60, 0
6, 41280, Note_on_c, 3, 56, 127
6, 41309, Note_on_c, 3, 56, 0
6, 41310, Note_on_c, 3, 53, 127
6, 41339, Note_on_c, 3, 53, 0
6, 41340, Note_on_c, 3, 53, 127
6, 41369, Note_on_c, 3, 53, 0
6, 41370, Note_on_c, 3, 60, 127
6, 41399, Note_on_c, 3, 60, 0
6, 41400, Note_on_c, 3, 60, 127
6, 41400, Note_on_c, 3, 65, 127
6, 41457, Note_on_c, 3, 60, 0
6, 41457, Note_on_c, 3, 65, 0
6, 41460, Note_on_c, 3, 60, 127
6, 41460, Note_on_c, 3, 65, 127
6, 41489, Note_on_c, 3, 60, 0
6, 41489, Note_on_c, 3, 65, 0
6, 41490, Note_on_c, 3, 60, 127
6, 41490, Note_on_c, 3, 65, 127
6, 41519, Note_on_c, 3, 60, 0
6, 41519, Note_on_c, 3, 65, 0
6, 41520, Note_on_c, 3, 56, 127
6, 41549, Note_on_c, 3, 56, 0
6, 41550, Note_on_c, 3, 53, 127
6, 41579, Note_on_c, 3, 53, 0
6, 41580, Note_on_c, 3, 53, 127
6, 41609, Note_on_c, 3, 53, 0
6, 41610, Note_on_c, 3, 60, 127
6, 41639, Note_on_c, 3, 60, 0
6, 41640, Note_on_c, 3, 60, 127
6, 41640, Note_on_c, 3, 65, 127
6, 41697, Note_on_c, 3, 60, 0
6, 41697, Note_on_c, 3, 65, 0
6, 41700, Note_on_c, 3, 65, 127
6, 41700, Note_on_c, 3, 70, 127
6, 41729, Note_on_c, 3, 65, 0
6, 41729, Note_on_c, 3, 70, 0
6, 41730, Note_on_c, 3, 65, 127
6, 41730, Note_on_c, 3, 70, 127
6, 41759, Note_on_c, 3, 65, 0
6, 41759, Note_on_c, 3, 70, 0
6, 41760, Note_on_c, 3, 56, 127
6, 41789, Note_on_c, 3, 56, 0
6, 41790, Note_on_c, 3, 53, 127
6, 41819, Note_on_c, 3, 53, 0
6, 41820, Note_on_c, 3, 53, 127
6, 41849, Note_on_c, 3, 53, 0
6, 41850, Note_on_c, 3, 60, 127
6, 41879, Note_on_c, 3, 60, 0
6, 41880, Note_on_c, 3, 60, 127
6, 41880, Note_on_c, 3, 65, 127
6, 41937, Note_on_c, 3, 60, 0
6, 41937, Note_on_c, 3, 65, 0
6, 41940, Note_on_c, 3, 60, 127
6, 41940, Note_on_c, 3, 65, 127
6, 41969, Note_on_c, 3, 60, 0
6, 41969, Note_on_c, 3, 65, 0
6, 41970, Note_on_c, 3, 60, 127
6, 41970, Note_on_c, 3, 65, 127
6, 41999, Note_on_c, 3, 60, 0
6, 41999, Note_on_c, 3, 65, 0
6, 42000, Note_on_c, 3, 56, 127
6, 42029, Note_on_c, 3, 56, 0
6, 42030, Note_on_c, 3, 53, 127
6, 42059, Note_on_c, 3, 53, 0
6, 42060, Note_on_c, 3, 53, 127
6, 42089, Note_on_c, 3, 53, 0
6, 42090, Note_on_c, 3, 60, 127
6, 42119, Note_on_c, 3, 60, 0
6, 42120, Note_on_c, 3, 60, 127
6, 42120, Note_on_c, 3, 65, 127
6, 42177, Note_on_c, 3, 60, 0
6, 42177, Note_on_c, 3, 65, 0
6, 42180, Note_on_c, 3, 65, 127
6, 42180, Note_on_c, 3, 60, 127
6, 42209, Note_on_c, 3, 65, 0
6, 42209, Note_on_c, 3, 60, 0
6, 42210, Note_on_c, 3, 65, 127
6, 42210, Note_on_c, 3, 60, 127
6, 42239, Note_on_c, 3, 65, 0
6, 42239, Note_on_c, 3, 60, 0
6, 42240, Note_on_c, 3, 56, 127
6, 42269, Note_on_c, 3, 56, 0
6, 42270, Note_on_c, 3, 53, 127
6, 42299, Note_on_c, 3, 53, 0
6, 42300, Note_on_c, 3, 53, 127
6, 42329, Note_on_c, 3, 53, 0
6, 42330, Note_on_c, 3, 60, 127
6, 42359, Note_on_c, 3, 60, 0
6, 42360, Note_on_c, 3, 60, 127
6, 42360, Note_on_c, 3, 65, 127
6, 42417, Note_on_c, 3, 60, 0
6, 42417, Note_on_c, 3, 65, 0
6, 42420, Note_on_c, 3, 60, 127
6, 42420, Note_on_c, 3, 65, 127
6, 42449, Note_on_c, 3, 60, 0
6, 42449, Note_on_c, 3, 65, 0
6, 42450, Note_on_c, 3, 60, 127
6, 42450, Note_on_c, 3, 65, 127
6, 42479, Note_on_c, 3, 60, 0
6, 42479, Note_on_c, 3, 65, 0
6, 42480, Note_on_c, 3, 56, 127
6, 42509, Note_on_c, 3, 56, 0
6, 42510, Note_on_c, 3, 53, 127
6, 42539, Note_on_c, 3, 53, 0
6, 42540, Note_on_c, 3, 53, 127
6, 42569, Note_on_c, 3, 53, 0
6, 42570, Note_on_c, 3, 60, 127
6, 42599, Note_on_c, 3, 60, 0
6, 42600, Note_on_c, 3, 60, 127
6, 42600, Note_on_c, 3, 65, 127
6, 42657, Note_on_c, 3, 60, 0
6, 42657, Note_on_c, 3, 65, 0
6, 42660, Note_on_c, 3, 65, 127
6, 42660, Note_on_c, 3, 70, 127
6, 42689, Note_on_c, 3, 65, 0
6, 42689, Note_on_c, 3, 70, 0
6, 42690, Note_on_c, 3, 65, 127
6, 42690, Note_on_c, 3, 70, 127
6, 42719, Note_on_c, 3, 65, 0
6, 42719, Note_on_c, 3, 70, 0
6, 42720, Note_on_c, 3, 56, 127
6, 42749, Note_on_c, 3, 56, 0
6, 42750, Note_on_c, 3, 53, 127
6, 42779, Note_on_c, 3, 53, 0
6, 42780, Note_on_c, 3, 53, 127
6, 42809, Note_on_c, 3, 53, 0
6, 42810, Note_on_c, 3, 60, 127
6, 42839, Note_on_c, 3, 60, 0
6, 42840, Note_on_c, 3, 60, 127
6, 42840, Note_on_c, 3, 65, 127
6, 42897, Note_on_c, 3, 60, 0
6, 42897, Note_on_c, 3, 65, 0
6, 42900, Note_on_c, 3, 60, 127
6, 42900, Note_on_c, 3, 65, 127
6, 42929, Note_on_c, 3, 60, 0
6, 42929, Note_on_c, 3, 65, 0
6, 42930, Note_on_c, 3, 60, 127
6, 42930, Note_on_c, 3, 65, 127
6, 42959, Note_on_c, 3, 60, 0
6, 42959, Note_on_c, 3, 65, 0
6, 42960, Note_on_c, 3, 56, 127
6, 42989, Note_on_c, 3, 56, 0
6, 42990, Note_on_c, 3, 53, 127
6, 43019, Note_on_c, 3, 53, 0
6, 43020, Note_on_c, 3, 53, 127
6, 43049, Note_on_c, 3, 53, 0
6, 43050, Note_on_c, 3, 60, 127
6, 43079, Note_on_c, 3, 60, 0
6, 43080, Note_on_c, 3, 60, 127
6, 43080, Note_on_c, 3, 65, 127
6, 43137, Note_on_c, 3, 60, 0
6, 43137, Note_on_c, 3, 65, 0
6, 43140, Note_on_c, 3, 65, 127
6, 43140, Note_on_c, 3, 70, 127
6, 43169, Note_on_c, 3, 65, 0
6, 43169, Note_on_c, 3, 70, 0
6, 43170, Note_on_c, 3, 65, 127
6, 43170, Note_on_c, 3, 70, 127
6, 43199, Note_on_c, 3, 65, 0
6, 43199, Note_on_c, 3, 70, 0
6, 43200, Note_on_c, 3, 49, 127
6, 43200, Note_on_c, 3, 56, 127
6, 43200, Note_on_c, 3, 61, 127
6, 43229, Note_on_c, 3, 49, 0
6, 43229, Note_on_c, 3, 56, 0
6, 43229, Note_on_c, 3, 61, 0
6, 43230, Note_on_c, 3, 49, 127
6, 43230, Note_on_c, 3, 56, 127
6, 43230, Note_on_c, 3, 61, 127
6, 43259, Note_on_c, 3, 49, 0
6, 43259, Note_on_c, 3, 56, 0
6, 43259, Note_on_c, 3, 61, 0
6, 43260, Note_on_c, 3, 49, 127
6, 43260, Note_on_c, 3, 56, 127
6, 43260, Note_on_c, 3, 61, 127
6, 43289, Note_on_c, 3, 49, 0
6, 43289, Note_on_c, 3, 56, 0
6, 43289, Note_on_c, 3, 61, 0
6, 43290, Note_on_c, 3, 49, 127
6, 43290, Note_on_c, 3, 56, 127
6, 43290, Note_on_c, 3, 61, 127
6, 43319, Note_on_c, 3, 49, 0
6, 43319, Note_on_c, 3, 56, 0
6, 43319, Note_on_c, 3, 61, 0
6, 43320, Note_on_c, 3, 56, 127
6, 43320, Note_on_c, 3, 61, 127
6, 43320, Note_on_c, 3, 49, 127
6, 43377, Note_on_c, 3, 56, 0
6, 43377, Note_on_c, 3, 61, 0
6, 43377, Note_on_c, 3, 49, 0
6, 43380, Note_on_c, 3, 49, 127
6, 43380, Note_on_c, 3, 61, 127
6, 43380, Note_on_c, 3, 56, 127
6, 43409, Note_on_c, 3, 49, 0
6, 43409, Note_on_c, 3, 61, 0
6, 43409, Note_on_c, 3, 56, 0
6, 43410, Note_on_c, 3, 49, 127
6, 43410, Note_on_c, 3, 61, 127
6, 43410, Note_on_c, 3, 56, 127
6, 43439, Note_on_c, 3, 49, 0
6, 43439, Note_on_c, 3, 61, 0
6, 43439, Note_on_c, 3, 56, 0
6, 43440, Note_on_c, 3, 56, 127
6, 43440, Note_on_c, 3, 62, 127
6, 43440, Note_on_c, 3, 50, 127
6, 43469, Note_on_c, 3, 56, 0
6, 43469, Note_on_c, 3, 62, 0
6, 43469, Note_on_c, 3, 50, 0
6, 43470, Note_on_c, 3, 63, 127
6, 43470, Note_on_c, 3, 51, 127
6, 43470, Note_on_c, 3, 58, 127
6, 43499, Note_on_c, 3, 63, 0
6, 43499, Note_on_c, 3, 51, 0
6, 43499, Note_on_c, 3, 58, 0
6, 43500, Note_on_c, 3, 51, 127
6, 43500, Note_on_c, 3, 63, 127
6, 43500, Note_on_c, 3, 58, 127
6, 43529, Note_on_c, 3, 51, 0
6, 43529, Note_on_c, 3, 63, 0
6, 43529, Note_on_c, 3, 58, 0
6, 43530, Note_on_c, 3, 51, 127
6, 43530, Note_on_c, 3, 63, 127
6, 43530, Note_on_c, 3, 58, 127
6, 43559, Note_on_c, 3, 51, 0
6, 43559, Note_on_c, 3, 63, 0
6, 43559, Note_on_c, 3, 58, 0
6, 43560, Note_on_c, 3, 51, 127
6, 43560, Note_on_c, 3, 63, 127
6, 43560, Note_on_c, 3, 58, 127
6, 43674, Note_on_c, 3, 51, 0
6, 43674, Note_on_c, 3, 63, 0
6, 43674, Note_on_c, 3, 58, 0
6, 43680, Note_on_c, 3, 53, 127
6, 43709, Note_on_c, 3, 53, 0
6, 43710, Note_on_c, 3, 44, 127
6, 43710, Note_on_c, 3, 51, 127
6, 43796, Note_on_c, 3, 44, 0
6, 43796, Note_on_c, 3, 51, 0
6, 43800, Note_on_c, 3, 53, 127
6, 43829, Note_on_c, 3, 53, 0
6, 43830, Note_on_c, 3, 41, 127
6, 43830, Note_on_c, 3, 48, 127
6, 43916, Note_on_c, 3, 41, 0
6, 43916, Note_on_c, 3, 48, 0
6, 43920, Note_on_c, 3, 53, 127
6, 43949, Note_on_c, 3, 53, 0
6, 43950, Note_on_c, 3, 44, 127
6, 43950, Note_on_c, 3, 51, 127
6, 44036, Note_on_c, 3, 44, 0
6, 44036, Note_on_c, 3, 51, 0
6, 44040, Note_on_c, 3, 53, 127
6, 44069, Note_on_c, 3, 53, 0
6, 44070, Note_on_c, 3, 41, 127
6, 44070, Note_on_c, 3, 48, 127
6, 44156, Note_on_c, 3, 41, 0
6, 44156, Note_on_c, 3, 48, 0
6, 44160, Note_on_c, 3, 49, 127
6, 44160, Note_on_c, 3, 56, 127
6, 44160, Note_on_c, 3, 61, 127
6, 44189, Note_on_c, 3, 49, 0
6, 44189, Note_on_c, 3, 56, 0
6, 44189, Note_on_c, 3, 61, 0
6, 44190, Note_on_c, 3, 49, 127
6, 44190, Note_on_c, 3, 56, 127
6, 44190, Note_on_c, 3, 61, 127
6, 44219, Note_on_c, 3, 49, 0
6, 44219, Note_on_c, 3, 56, 0
6, 44219, Note_on_c, 3, 61, 0
6, 44220, Note_on_c, 3, 49, 127
6, 44220, Note_on_c, 3, 56, 127
6, 44220, Note_on_c, 3, 61, 127
6, 44249, Note_on_c, 3, 49, 0
6, 44249, Note_on_c, 3, 56, 0
6, 44249, Note_on_c, 3, 61, 0
6, 44250, Note_on_c, 3, 49, 127
6, 44250, Note_on_c, 3, 56, 127
6, 44250, Note_on_c, 3, 61, 127
6, 44279, Note_on_c, 3, 49, 0
6, 44279, Note_on_c, 3, 56, 0
6, 44279, Note_on_c, 3, 61, 0
6, 44280, Note_on_c, 3, 56, 127
6, 44280, Note_on_c, 3, 61, 127
6, 44280, Note_on_c, 3, 49, 127
6, 44337, Note_on_c, 3, 56, 0
6, 44337, Note_on_c, 3, 61, 0
6, 44337, Note_on_c, 3, 49, 0
6, 44340, Note_on_c, 3, 49, 127
6, 44340, Note_on_c, 3, 61, 127
6, 44340, Note_on_c, 3, 56, 127
6, 44369, Note_on_c, 3, 49, 0
6, 44369, Note_on_c, 3, 61, 0
6, 44369, Note_on_c, 3, 56, 0
6, 44370, Note_on_c, 3, 49, 127
6, 44370, Note_on_c, 3, 61, 127
6, 44370, Note_on_c, 3, 56, 127
6, 44399, Note_on_c, 3, 49, 0
6, 44399, Note_on_c, 3, 61, 0
6, 44399, Note_on_c, 3, 56, 0
6, 44400, Note_on_c, 3, 56, 127
6, 44400, Note_on_c, 3, 62, 127
6, 44400, Note_on_c, 3, 50, 127
6, 44429, Note_on_c, 3, 56, 0
6, 44429, Note_on_c, 3, 62, 0
6, 44429, Note_on_c, 3, 50, 0
6, 44430, Note_on_c, 3, 63, 127
6, 44430, Note_on_c, 3, 51, 127
6, 44430, Note_on_c, 3, 58, 127
6, 44459, Note_on_c, 3, 63, 0
6, 44459, Note_on_c, 3, 51, 0
6, 44459, Note_on_c, 3, 58, 0
6, 44460, Note_on_c, 3, 51, 127
6, 44460, Note_on_c, 3, 63, 127
6, 44460, Note_on_c, 3, 58, 127
6, 44489, Note_on_c, 3, 51, 0
6, 44489, Note_on_c, 3, 63, 0
6, 44489, Note_on_c, 3, 58, 0
6, 44490, Note_on_c, 3, 51, 127
6, 44490, Note_on_c, 3, 63, 127
6, 44490, Note_on_c, 3, 58, 127
6, 44519, Note_on_c, 3, 51, 0
6, 44519, Note_on_c, 3, 63, 0
6, 44519, Note_on_c, 3, 58, 0
6, 44520, Note_on_c, 3, 51, 127
6, 44520, Note_on_c, 3, 63, 127
6, 44520, Note_on_c, 3, 58, 127
6, 44634, Note_on_c, 3, 51, 0
6, 44634, Note_on_c, 3, 63, 0
6, 44634, Note_on_c, 3, 58, 0
6, 44640, Note_on_c, 3, 53, 127
6, 44669, Note_on_c, 3, 53, 0
6, 44670, Note_on_c, 3, 44, 127
6, 44670, Note_on_c, 3, 51, 127
6, 44756, Note_on_c, 3, 44, 0
6, 44756, Note_on_c, 3, 51, 0
6, 44760, Note_on_c, 3, 53, 127
6, 44789, Note_on_c, 3, 53, 0
6, 44790, Note_on_c, 3, 41, 127
6, 44790, Note_on_c, 3, 48, 127
6, 44876, Note_on_c, 3, 41, 0
6, 44876, Note_on_c, 3, 48, 0
6, 44880, Note_on_c, 3, 53, 127
6, 44909, Note_on_c, 3, 53, 0
6, 44910, Note_on_c, 3, 44, 127
6, 44910, Note_on_c, 3, 51, 127
6, 44996, Note_on_c, 3, 44, 0
6, 44996, Note_on_c, 3, 51, 0
6, 45000, Note_on_c, 3, 53, 127
6, 45029, Note_on_c, 3, 53, 0
6, 45030, Note_on_c, 3, 41, 127
6, 45030, Note_on_c, 3, 48, 127
6, 45116, Note_on_c, 3, 41, 0
6, 45116, Note_on_c, 3, 48, 0
6, 45120, Note_on_c, 3, 53, 127
6, 45120, Note_on_c, 3, 60, 127
6, 45206, Note_on_c, 3, 53, 0
6, 45206, Note_on_c, 3, 60, 0
6, 45210, Note_on_c, 3, 69, 127
6, 45210, Note_on_c, 3, 72, 127
6, 45239, Note_on_c, 3, 69, 0
6, 45239, Note_on_c, 3, 72, 0
6, 45240, Note_on_c, 3, 69, 127
6, 45240, Note_on_c, 3, 72, 127
6, 45354, Note_on_c, 3, 69, 0
6, 45354, Note_on_c, 3, 72, 0
6, 45360, Note_on_c, 3, 53, 127
6, 45360, Note_on_c, 3, 60, 127
6, 45446, Note_on_c, 3, 53, 0
6, 45446, Note_on_c, 3, 60, 0
6, 45450, Note_on_c, 3, 64, 127
6, 45450, Note_on_c, 3, 67, 127
6, 45479, Note_on_c, 3, 64, 0
6, 45479, Note_on_c, 3, 67, 0
6, 45480, Note_on_c, 3, 64, 127
6, 45480, Note_on_c, 3, 67, 127
6, 45594, Note_on_c, 3, 64, 0
6, 45594, Note_on_c, 3, 67, 0
6, 45600, Note_on_c, 3, 53, 127
6, 45600, Note_on_c, 3, 60, 127
6, 45686, Note_on_c, 3, 53, 0
6, 45686, Note_on_c, 3, 60, 0
6, 45690, Note_on_c, 3, 53, 127
6, 45690, Note_on_c, 3, 62, 127
6, 45690, Note_on_c, 3, 65, 127
6, 45719, Note_on_c, 3, 53, 0
6, 45719, Note_on_c, 3, 62, 0
6, 45719, Note_on_c, 3, 65, 0
6, 45720, Note_on_c, 3, 53, 127
6, 45720, Note_on_c, 3, 62, 127
6, 45720, Note_on_c, 3, 65, 127
6, 45777, Note_on_c, 3, 53, 0
6, 45777, Note_on_c, 3, 62, 0
6, 45777, Note_on_c, 3, 65, 0
6, 45780, Note_on_c, 3, 53, 127
6, 45780, Note_on_c, 3, 64, 127
6, 45780, Note_on_c, 3, 67, 127
6, 45837, Note_on_c, 3, 53, 0
6, 45837, Note_on_c, 3, 64, 0
6, 45837, Note_on_c, 3, 67, 0
6, 45840, Note_on_c, 3, 53, 127
6, 45840, Note_on_c, 3, 67, 127
6, 45840, Note_on_c, 3, 70, 127
6, 45897, Note_on_c, 3, 53, 0
6, 45897, Note_on_c, 3, 67, 0
6, 45897, Note_on_c, 3, 70, 0
6, 45900, Note_on_c, 3, 53, 127
6, 45900, Note_on_c, 3, 69, 127
6, 45900, Note_on_c, 3, 72, 127
6, 46071, Note_on_c, 3, 53, 0
6, 46071, Note_on_c, 3, 69, 0
6, 46071, Note_on_c, 3, 72, 0
6, 46080, Note_on_c, 3, 53, 127
6, 46080, Note_on_c, 3, 60, 127
6, 46166, Note_on_c, 3, 53, 0
6, 46166, Note_on_c, 3, 60, 0
6, 46170, Note_on_c, 3, 69, 127
6, 46170, Note_on_c, 3, 72, 127
6, 46199, Note_on_c, 3, 69, 0
6, 46199, Note_on_c, 3, 72, 0
6, 46200, Note_on_c, 3, 69, 127
6, 46200, Note_on_c, 3, 72, 127
6, 46314, Note_on_c, 3, 69, 0
6, 46314, Note_on_c, 3, 72, 0
6, 46320, Note_on_c, 3, 53, 127
6, 46320, Note_on_c, 3, 60, 127
6, 46406, Note_on_c, 3, 53, 0
6, 46406, Note_on_c, 3, 60, 0
6, 46410, Note_on_c, 3, 64, 127
6, 46410, Note_on_c, 3, 67, 127
6, 46439, Note_on_c, 3, 64, 0
6, 46439, Note_on_c, 3, 67, 0
6, 46440, Note_on_c, 3, 64, 127
6, 46440, Note_on_c, 3, 67, 127
6, 46554, Note_on_c, 3, 64, 0
6, 46554, Note_on_c, 3, 67, 0
6, 46560, Note_on_c, 3, 53, 127
6, 46560, Note_on_c, 3, 60, 127
6, 46646, Note_on_c, 3, 53, 0
6, 46646, Note_on_c, 3, 60, 0
6, 46650, Note_on_c, 3, 53, 127
6, 46650, Note_on_c, 3, 62, 127
6, 46650, Note_on_c, 3, 65, 127
6, 46679, Note_on_c, 3, 53, 0
6, 46679, Note_on_c, 3, 62, 0
6, 46679, Note_on_c, 3, 65, 0
6, 46680, Note_on_c, 3, 53, 127
6, 46680, Note_on_c, 3, 62, 127
6, 46680, Note_on_c, 3, 65, 127
6, 46737, Note_on_c, 3, 53, 0
6, 46737, Note_on_c, 3, 62, 0
6, 46737, Note_on_c, 3, 65, 0
6, 46740, Note_on_c, 3, 53, 127
6, 46740, Note_on_c, 3, 64, 127
6, 46740, Note_on_c, 3, 67, 127
6, 46797, Note_on_c, 3, 53, 0
6, 46797, Note_on_c, 3, 64, 0
6, 46797, Note_on_c, 3, 67, 0
6, 46800, Note_on_c, 3, 53, 127
6, 46800, Note_on_c, 3, 67, 127
6, 46800, Note_on_c, 3, 70, 127
6, 46857, Note_on_c, 3, 53, 0
6, 46857, Note_on_c, 3, 67, 0
6, 46857, Note_on_c, 3, 70, 0
6, 46860, Note_on_c, 3, 53, 127
6, 46860, Note_on_c, 3, 69, 127
6, 46860, Note_on_c, 3, 72, 127
6, 47031, Note_on_c, 3, 53, 0
6, 47031, Note_on_c, 3, 69, 0
6, 47031, Note_on_c, 3, 72, 0
6, 47040, Note_on_c, 3, 53, 127
6, 47040, Note_on_c, 3, 60, 127
6, 47126, Note_on_c, 3, 53, 0
6, 47126, Note_on_c, 3, 60, 0
6, 47130, Note_on_c, 3, 69, 127
6, 47130, Note_on_c, 3, 72, 127
6, 47159, Note_on_c, 3, 69, 0
6, 47159, Note_on_c, 3, 72, 0
6, 47160, Note_on_c, 3, 69, 127
6, 47160, Note_on_c, 3, 72, 127
6, 47274, Note_on_c, 3, 69, 0
6, 47274, Note_on_c, 3, 72, 0
6, 47280, Note_on_c, 3, 53, 127
6, 47280, Note_on_c, 3, 60, 127
6, 47366, Note_on_c, 3, 53, 0
6, 47366, Note_on_c, 3, 60, 0
6, 47370, Note_on_c, 3, 64, 127
6, 47370, Note_on_c, 3, 67, 127
6, 47399, Note_on_c, 3, 64, 0
6, 47399, Note_on_c, 3, 67, 0
6, 47400, Note_on_c, 3, 64, 127
6, 47400, Note_on_c, 3, 67, 127
6, 47514, Note_on_c, 3, 64, 0
6, 47514, Note_on_c, 3, 67, 0
6, 47520, Note_on_c, 3, 53, 127
6, 47520, Note_on_c, 3, 60, 127
6, 47606, Note_on_c, 3, 53, 0
6, 47606, Note_on_c, 3, 60, 0
6, 47610, Note_on_c, 3, 53, 127
6, 47610, Note_on_c, 3, 62, 127
6, 47610, Note_on_c, 3, 65, 127
6, 47639, Note_on_c, 3, 53, 0
6, 47639, Note_on_c, 3, 62, 0
6, 47639, Note_on_c, 3, 65, 0
6, 47640, Note_on_c, 3, 53, 127
6, 47640, Note_on_c, 3, 62, 127
6, 47640, Note_on_c, 3, 65, 127
6, 47697, Note_on_c, 3, 53, 0
6, 47697, Note_on_c, 3, 62, 0
6, 47697, Note_on_c, 3, 65, 0
6, 47700, Note_on_c, 3, 53, 127
6, 47700, Note_on_c, 3, 64, 127
6, 47700, Note_on_c, 3, 67, 127
6, 47757, Note_on_c, 3, 53, 0
6, 47757, Note_on_c, 3, 64, 0
6, 47757, Note_on_c, 3, 67, 0
6, 47760, Note_on_c, 3, 53, 127
6, 47760, Note_on_c, 3, 67, 127
6, 47760, Note_on_c, 3, 70, 127
6, 47817, Note_on_c, 3, 53, 0
6, 47817, Note_on_c, 3, 67, 0
6, 47817, Note_on_c, 3, 70, 0
6, 47820, Note_on_c, 3, 53, 127
6, 47820, Note_on_c, 3, 69, 127
6, 47820, Note_on_c, 3, 72, 127
6, 47991, Note_on_c, 3, 53, 0
6, 47991, Note_on_c, 3, 69, 0
6, 47991, Note_on_c, 3, 72, 0
6, 48000, Note_on_c, 3, 53, 127
6, 48000, Note_on_c, 3, 60, 127
6, 48086, Note_on_c, 3, 53, 0
6, 48086, Note_on_c, 3, 60, 0
6, 48090, Note_on_c, 3, 69, 127
6, 48090, Note_on_c, 3, 72, 127
6, 48119, Note_on_c, 3, 69, 0
6, 48119, Note_on_c, 3, 72, 0
6, 48120, Note_on_c, 3, 69, 127
6, 48120, Note_on_c, 3, 72, 127
6, 48234, Note_on_c, 3, 69, 0
6, 48234, Note_on_c, 3, 72, 0
6, 48240, Note_on_c, 3, 53, 127
6, 48240, Note_on_c, 3, 60, 127
6, 48326, Note_on_c, 3, 53, 0
6, 48326, Note_on_c, 3, 60, 0
6, 48330, Note_on_c, 3, 64, 127
6, 48330, Note_on_c, 3, 67, 127
6, 48359, Note_on_c, 3, 64, 0
6, 48359, Note_on_c, 3, 67, 0
6, 48360, Note_on_c, 3, 64, 127
6, 48360, Note_on_c, 3, 67, 127
6, 48474, Note_on_c, 3, 64, 0
6, 48474, Note_on_c, 3, 67, 0
6, 48480, Note_on_c, 3, 53, 127
6, 48480, Note_on_c, 3, 60, 127
6, 48566, Note_on_c, 3, 53, 0
6, 48566, Note_on_c, 3, 60, 0
6, 48570, Note_on_c, 3, 53, 127
6, 48570, Note_on_c, 3, 62, 127
6, 48570, Note_on_c, 3, 65, 127
6, 48599, Note_on_c, 3, 53, 0
6, 48599, Note_on_c, 3, 62, 0
6, 48599, Note_on_c, 3, 65, 0
6, 48600, Note_on_c, 3, 53, 127
6, 48600, Note_on_c, 3, 62, 127
6, 48600, Note_on_c, 3, 65, 127
6, 48657, Note_on_c, 3, 53, 0
6, 48657, Note_on_c, 3, 62, 0
6, 48657, Note_on_c, 3, 65, 0
6, 48660, Note_on_c, 3, 53, 127
6, 48660, Note_on_c, 3, 64, 127
6, 48660, Note_on_c, 3, 67, 127
6, 48717, Note_on_c, 3, 53, 0
6, 48717, Note_on_c, 3, 64, 0
6, 48717, Note_on_c, 3, 67, 0
6, 48720, Note_on_c, 3, 53, 127
6, 48720, Note_on_c, 3, 67, 127
6, 48720, Note_on_c, 3, 70, 127
6, 48777, Note_on_c, 3, 53, 0
6, 48777, Note_on_c, 3, 67, 0
6, 48777, Note_on_c, 3, 70, 0
6, 48780, Note_on_c, 3, 53, 127
6, 48780, Note_on_c, 3, 69, 127
6, 48780, Note_on_c, 3, 72, 127
6, 48951, Note_on_c, 3, 53, 0
6, 48951, Note_on_c, 3, 69, 0
6, 48951, Note_on_c, 3, 72, 0
6, 48960, Note_on_c, 3, 53, 127
6, 48960, Note_on_c, 3, 60, 127
6, 49046, Note_on_c, 3, 53, 0
6, 49046, Note_on_c, 3, 60, 0
6, 49050, Note_on_c, 3, 69, 127
6, 49050, Note_on_c, 3, 72, 127
6, 49079, Note_on_c, 3, 69, 0
6, 49079, Note_on_c, 3, 72, 0
6, 49080, Note_on_c, 3, 69, 127
6, 49080, Note_on_c, 3, 72, 127
6, 49194, Note_on_c, 3, 69, 0
6, 49194, Note_on_c, 3, 72, 0
6, 49200, Note_on_c, 3, 53, 127
6, 49200, Note_on_c, 3, 60, 127
6, 49286, Note_on_c, 3, 53, 0
6, 49286, Note_on_c, 3, 60, 0
6, 49290, Note_on_c, 3, 64, 127
6, 49290, Note_on_c, 3, 67, 127
6, 49319, Note_on_c, 3, 64, 0
6, 49319, Note_on_c, 3, 67, 0
6, 49320, Note_on_c, 3, 64, 127
6, 49320, Note_on_c, 3, 67, 127
6, 49434, Note_on_c, 3, 64, 0
6, 49434, Note_on_c, 3, 67, 0
6, 49440, Note_on_c, 3, 53, 127
6, 49440, Note_on_c, 3, 60, 127
6, 49526, Note_on_c, 3, 53, 0
6, 49526, Note_on_c, 3, 60, 0
6, 49530, Note_on_c, 3, 53, 127
6, 49530, Note_on_c, 3, 62, 127
6, 49530, Note_on_c, 3, 65, 127
6, 49559, Note_on_c, 3, 53, 0
6, 49559, Note_on_c, 3, 62, 0
6, 49559, Note_on_c, 3, 65, 0
6, 49560, Note_on_c, 3, 53, 127
6, 49560, Note_on_c, 3, 62, 127
6, 49560, Note_on_c, 3, 65, 127
6, 49617, Note_on_c, 3, 53, 0
6, 49617, Note_on_c, 3, 62, 0
6, 49617, Note_on_c, 3, 65, 0
6, 49620, Note_on_c, 3, 53, 127
6, 49620, Note_on_c, 3, 64, 127
6, 49620, Note_on_c, 3, 67, 127
6, 49677, Note_on_c, 3, 53, 0
6, 49677, Note_on_c, 3, 64, 0
6, 49677, Note_on_c, 3, 67, 0
6, 49680, Note_on_c, 3, 53, 127
6, 49680, Note_on_c, 3, 67, 127
6, 49680, Note_on_c, 3, 70, 127
6, 49737, Note_on_c, 3, 53, 0
6, 49737, Note_on_c, 3, 67, 0
6, 49737, Note_on_c, 3, 70, 0
6, 49740, Note_on_c, 3, 53, 127
6, 49740, Note_on_c, 3, 69, 127
6, 49740, Note_on_c, 3, 72, 127
6, 49911, Note_on_c, 3, 53, 0
6, 49911, Note_on_c, 3, 69, 0
6, 49911, Note_on_c, 3, 72, 0
6, 49920, Note_on_c, 3, 53, 127
6, 49920, Note_on_c, 3, 60, 127
6, 50006, Note_on_c, 3, 53, 0
6, 50006, Note_on_c, 3, 60, 0
6, 50010, Note_on_c, 3, 69, 127
6, 50010, Note_on_c, 3, 72, 127
6, 50039, Note_on_c, 3, 69, 0
6, 50039, Note_on_c, 3, 72, 0
6, 50040, Note_on_c, 3, 69, 127
6, 50040, Note_on_c, 3, 72, 127
6, 50154, Note_on_c, 3, 69, 0
6, 50154, Note_on_c, 3, 72, 0
6, 50160, Note_on_c, 3, 53, 127
6, 50160, Note_on_c, 3, 60, 127
6, 50246, Note_on_c, 3, 53, 0
6, 50246, Note_on_c, 3, 60, 0
6, 50250, Note_on_c, 3, 64, 127
6, 50250, Note_on_c, 3, 67, 127
6, 50279, Note_on_c, 3, 64, 0
6, 50279, Note_on_c, 3, 67, 0
6, 50280, Note_on_c, 3, 64, 127
6, 50280, Note_on_c, 3, 67, 127
6, 50394, Note_on_c, 3, 64, 0
6, 50394, Note_on_c, 3, 67, 0
6, 50400, Note_on_c, 3, 53, 127
6, 50400, Note_on_c, 3, 60, 127
6, 50486, Note_on_c, 3, 53, 0
6, 50486, Note_on_c, 3, 60, 0
6, 50490, Note_on_c, 3, 53, 127
6, 50490, Note_on_c, 3, 62, 127
6, 50490, Note_on_c, 3, 65, 127
6, 50519, Note_on_c, 3, 53, 0
6, 50519, Note_on_c, 3, 62, 0
6, 50519, Note_on_c, 3, 65, 0
6, 50520, Note_on_c, 3, 53, 127
6, 50520, Note_on_c, 3, 62, 127
6, 50520, Note_on_c, 3, 65, 127
6, 50577, Note_on_c, 3, 53, 0
6, 50577, Note_on_c, 3, 62, 0
6, 50577, Note_on_c, 3, 65, 0
6, 50580, Note_on_c, 3, 53, 127
6, 50580, Note_on_c, 3, 64, 127
6, 50580, Note_on_c, 3, 67, 127
6, 50637, Note_on_c, 3, 53, 0
6, 50637, Note_on_c, 3, 64, 0
6, 50637, Note_on_c, 3, 67, 0
6, 50640, Note_on_c, 3, 53, 127
6, 50640, Note_on_c, 3, 67, 127
6, 50640, Note_on_c, 3, 70, 127
6, 50697, Note_on_c, 3, 53, 0
6, 50697, Note_on_c, 3, 67, 0
6, 50697, Note_on_c, 3, 70, 0
6, 50700, Note_on_c, 3, 53, 127
6, 50700, Note_on_c, 3, 69, 127
6, 50700, Note_on_c, 3, 72, 127
6, 50871, Note_on_c, 3, 53, 0
6, 50871, Note_on_c, 3, 69, 0
6, 50871, Note_on_c, 3, 72, 0
6, 50880, Note_on_c, 3, 56, 127
6, 50909, Note_on_c, 3, 56, 0
6, 50910, Note_on_c, 3, 53, 127
6, 50939, Note_on_c, 3, 53, 0
6, 50940, Note_on_c, 3, 53, 127
6, 50969, Note_on_c, 3, 53, 0
6, 50970, Note_on_c, 3, 60, 127
6, 50999, Note_on_c, 3, 60, 0
6, 51000, Note_on_c, 3, 60, 127
6, 51000, Note_on_c, 3, 65, 127
6, 51057, Note_on_c, 3, 60, 0
6, 51057, Note_on_c, 3, 65, 0
6, 51060, Note_on_c, 3, 60, 127
6, 51060, Note_on_c, 3, 65, 127
6, 51089, Note_on_c, 3, 60, 0
6, 51089, Note_on_c, 3, 65, 0
6, 51090, Note_on_c, 3, 60, 127
6, 51090, Note_on_c, 3, 65, 127
6, 51119, Note_on_c, 3, 60, 0
6, 51119, Note_on_c, 3, 65, 0
6, 51120, Note_on_c, 3, 56, 127
6, 51149, Note_on_c, 3, 56, 0
6, 51150, Note_on_c, 3, 53, 127
6, 51179, Note_on_c, 3, 53, 0
6, 51180, Note_on_c, 3, 53, 127
6, 51209, Note_on_c, 3, 53, 0
6, 51210, Note_on_c, 3, 60, 127
6, 51239, Note_on_c, 3, 60, 0
6, 51240, Note_on_c, 3, 60, 127
6, 51240, Note_on_c, 3, 65, 127
6, 51297, Note_on_c, 3, 60, 0
6, 51297, Note_on_c, 3, 65, 0
6, 51300, Note_on_c, 3, 65, 127
6, 51300, Note_on_c, 3, 70, 127
6, 51329, Note_on_c, 3, 65, 0
6, 51329, Note_on_c, 3, 70, 0
6, 51330, Note_on_c, 3, 65, 127
6, 51330, Note_on_c, 3, 70, 127
6, 51359, Note_on_c, 3, 65, 0
6, 51359, Note_on_c, 3, 70, 0
6, 51360, Note_on_c, 3, 56, 127
6, 51389, Note_on_c, 3, 56, 0
6, 51390, Note_on_c, 3, 53, 127
6, 51419, Note_on_c, 3, 53, 0
6, 51420, Note_on_c, 3, 53, 127
6, 51449, Note_on_c, 3, 53, 0
6, 51450, Note_on_c, 3, 60, 127
6, 51479, Note_on_c, 3, 60, 0
6, 51480, Note_on_c, 3, 60, 127
6, 51480, Note_on_c, 3, 65, 127
6, 51537, Note_on_c, 3, 60, 0
6, 51537, Note_on_c, 3, 65, 0
6, 51540, Note_on_c, 3, 60, 127
6, 51540, Note_on_c, 3, 65, 127
6, 51569, Note_on_c, 3, 60, 0
6, 51569, Note_on_c, 3, 65, 0
6, 51570, Note_on_c, 3, 60, 127
6, 51570, Note_on_c, 3, 65, 127
6, 51599, Note_on_c, 3, 60, 0
6, 51599, Note_on_c, 3, 65, 0
6, 51600, Note_on_c, 3, 56, 127
6, 51629, Note_on_c, 3, 56, 0
6, 51630, Note_on_c, 3, 53, 127
6, 51659, Note_on_c, 3, 53, 0
6, 51660, Note_on_c, 3, 53, 127
6, 51689, Note_on_c, 3, 53, 0
6, 51690, Note_on_c, 3, 60, 127
6, 51719, Note_on_c, 3, 60, 0
6, 51720, Note_on_c, 3, 60, 127
6, 51720, Note_on_c, 3, 65, 127
6, 51777, Note_on_c, 3, 60, 0
6, 51777, Note_on_c, 3, 65, 0
6, 51780, Note_on_c, 3, 65, 127
6, 51780, Note_on_c, 3, 60, 127
6, 51809, Note_on_c, 3, 65, 0
6, 51809, Note_on_c, 3, 60, 0
6, 51810, Note_on_c, 3, 65, 127
6, 51810, Note_on_c, 3, 60, 127
6, 51839, Note_on_c, 3, 65, 0
6, 51839, Note_on_c, 3, 60, 0
6, 51840, Note_on_c, 3, 56, 127
6, 51869, Note_on_c, 3, 56, 0
6, 51870, Note_on_c, 3, 53, 127
6, 51899, Note_on_c, 3, 53, 0
6, 51900, Note_on_c, 3, 53, 127
6, 51929, Note_on_c, 3, 53, 0
6, 51930, Note_on_c, 3, 60, 127
6, 51959, Note_on_c, 3, 60, 0
6, 51960, Note_on_c, 3, 60, 127
6, 51960, Note_on_c, 3, 65, 127
6, 52017, Note_on_c, 3, 60, 0
6, 52017, Note_on_c, 3, 65, 0
6, 52020, Note_on_c, 3, 60, 127
6, 52020, Note_on_c, 3, 65, 127
6, 52049, Note_on_c, 3, 60, 0
6, 52049, Note_on_c, 3, 65, 0
6, 52050, Note_on_c, 3, 60, 127
6, 52050, Note_on_c, 3, 65, 127
6, 52079, Note_on_c, 3, 60, 0
6, 52079, Note_on_c, 3, 65, 0
6, 52080, Note_on_c, 3, 56, 127
6, 52109, Note_on_c, 3, 56, 0
6, 52110, Note_on_c, 3, 53, 127
6, 52139, Note_on_c, 3, 53, 0
6, 52140, Note_on_c, 3, 53, 127
6, 52169, Note_on_c, 3, 53, 0
6, 52170, Note_on_c, 3, 60, 127
6, 52199, Note_on_c, 3, 60, 0
6, 52200, Note_on_c, 3, 60, 127
6, 52200, Note_on_c, 3, 65, 127
6, 52257, Note_on_c, 3, 60, 0
6, 52257, Note_on_c, 3, 65, 0
6, 52260, Note_on_c, 3, 65, 127
6, 52260, Note_on_c, 3, 70, 127
6, 52289, Note_on_c, 3, 65, 0
6, 52289, Note_on_c, 3, 70, 0
6, 52290, Note_on_c, 3, 65, 127
6, 52290, Note_on_c, 3, 70, 127
6, 52319, Note_on_c, 3, 65, 0
6, 52319, Note_on_c, 3, 70, 0
6, 52320, Note_on_c, 3, 56, 127
6, 52349, Note_on_c, 3, 56, 0
6, 52350, Note_on_c, 3, 53, 127
6, 52379, Note_on_c, 3, 53, 0
6, 52380, Note_on_c, 3, 53, 127
6, 52409, Note_on_c, 3, 53, 0
6, 52410, Note_on_c, 3, 60, 127
6, 52439, Note_on_c, 3, 60, 0
6, 52440, Note_on_c, 3, 60, 127
6, 52440, Note_on_c, 3, 65, 127
6, 52497, Note_on_c, 3, 60, 0
6, 52497, Note_on_c, 3, 65, 0
6, 52500, Note_on_c, 3, 60, 127
6, 52500, Note_on_c, 3, 65, 127
6, 52529, Note_on_c, 3, 60, 0
6, 52529, Note_on_c, 3, 65, 0
6, 52530, Note_on_c, 3, 60, 127
6, 52530, Note_on_c, 3, 65, 127
6, 52559, Note_on_c, 3, 60, 0
6, 52559, Note_on_c, 3, 65, 0
6, 52560, Note_on_c, 3, 56, 127
6, 52589, Note_on_c, 3, 56, 0
6, 52590, Note_on_c, 3, 53, 127
6, 52619, Note_on_c, 3, 53, 0
6, 52620, Note_on_c, 3, 53, 127
6, 52649, Note_on_c, 3, 53, 0
6, 52650, Note_on_c, 3, 60, 127
6, 52679, Note_on_c, 3, 60, 0
6, 52680, Note_on_c, 3, 60, 127
6, 52680, Note_on_c, 3, 65, 127
6, 52737, Note_on_c, 3, 60, 0
6, 52737, Note_on_c, 3, 65, 0
6, 52740, Note_on_c, 3, 65, 127
6, 52740, Note_on_c, 3, 60, 127
6, 52769, Note_on_c, 3, 65, 0
6, 52769, Note_on_c, 3, 60, 0
6, 52770, Note_on_c, 3, 65, 127
6, 52770, Note_on_c, 3, 60, 127
6, 52799, Note_on_c, 3, 65, 0
6, 52799, Note_on_c, 3, 60, 0
6, 52800, Note_on_c, 3, 56, 127
6, 52829, Note_on_c, 3, 56, 0
6, 52830, Note_on_c, 3, 53, 127
6, 52859, Note_on_c, 3, 53, 0
6, 52860, Note_on_c, 3, 53, 127
6, 52889, Note_on_c, 3, 53, 0
6, 52890, Note_on_c, 3, 60, 127
6, 52919, Note_on_c, 3, 60, 0
6, 52920, Note_on_c, 3, 60, 127
6, 52920, Note_on_c, 3, 65, 127
6, 52977, Note_on_c, 3, 60, 0
6, 52977, Note_on_c, 3, 65, 0
6, 52980, Note_on_c, 3, 60, 127
6, 52980, Note_on_c, 3, 65, 127
6, 53009, Note_on_c, 3, 60, 0
6, 53009, Note_on_c, 3, 65, 0
6, 53010, Note_on_c, 3, 60, 127
6, 53010, Note_on_c, 3, 65, 127
6, 53039, Note_on_c, 3, 60, 0
6, 53039, Note_on_c, 3, 65, 0
6, 53040, Note_on_c, 3, 56, 127
6, 53069, Note_on_c, 3, 56, 0
6, 53070, Note_on_c, 3, 53, 127
6, 53099, Note_on_c, 3, 53, 0
6, 53100, Note_on_c, 3, 53, 127
6, 53129, Note_on_c, 3, 53, 0
6, 53130, Note_on_c, 3, 60, 127
6, 53159, Note_on_c, 3, 60, 0
6, 53160, Note_on_c, 3, 60, 127
6, 53160, Note_on_c, 3, 65, 127
6, 53217, Note_on_c, 3, 60, 0
6, 53217, Note_on_c, 3, 65, 0
6, 53220, Note_on_c, 3, 65, 127
6, 53220, Note_on_c, 3, 70, 127
6, 53249, Note_on_c, 3, 65, 0
6, 53249, Note_on_c, 3, 70, 0
6, 53250, Note_on_c, 3, 65, 127
6, 53250, Note_on_c, 3, 70, 127
6, 53279, Note_on_c, 3, 65, 0
6, 53279, Note_on_c, 3, 70, 0
6, 53280, Note_on_c, 3, 56, 127
6, 53309, Note_on_c, 3, 56, 0
6, 53310, Note_on_c, 3, 53, 127
6, 53339, Note_on_c, 3, 53, 0
6, 53340, Note_on_c, 3, 53, 127
6, 53369, Note_on_c, 3, 53, 0
6, 53370, Note_on_c, 3, 60, 127
6, 53399, Note_on_c, 3, 60, 0
6, 53400, Note_on_c, 3, 60, 127
6, 53400, Note_on_c, 3, 65, 127
6, 53457, Note_on_c, 3, 60, 0
6, 53457, Note_on_c, 3, 65, 0
6, 53460, Note_on_c, 3, 60, 127
6, 53460, Note_on_c, 3, 65, 127
6, 53489, Note_on_c, 3, 60, 0
6, 53489, Note_on_c, 3, 65, 0
6, 53490, Note_on_c, 3, 60, 127
6, 53490, Note_on_c, 3, 65, 127
6, 53519, Note_on_c, 3, 60, 0
6, 53519, Note_on_c, 3, 65, 0
6, 53520, Note_on_c, 3, 56, 127
6, 53549, Note_on_c, 3, 56, 0
6, 53550, Note_on_c, 3, 53, 127
6, 53579, Note_on_c, 3, 53, 0
6, 53580, Note_on_c, 3, 53, 127
6, 53609, Note_on_c, 3, 53, 0
6, 53610, Note_on_c, 3, 60, 127
6, 53639, Note_on_c, 3, 60, 0
6, 53640, Note_on_c, 3, 60, 127
6, 53640, Note_on_c, 3, 65, 127
6, 53697, Note_on_c, 3, 60, 0
6, 53697, Note_on_c, 3, 65, 0
6, 53700, Note_on_c, 3, 65, 127
6, 53700, Note_on_c, 3, 60, 127
6, 53729, Note_on_c, 3, 65, 0
6, 53729, Note_on_c, 3, 60, 0
6, 53730, Note_on_c, 3, 65, 127
6, 53730, Note_on_c, 3, 60, 127
6, 53759, Note_on_c, 3, 65, 0
6, 53759, Note_on_c, 3, 60, 0
6, 53760, Note_on_c, 3, 56, 127
6, 53789, Note_on_c, 3, 56, 0
6, 53790, Note_on_c, 3, 53, 127
6, 53819, Note_on_c, 3, 53, 0
6, 53820, Note_on_c, 3, 53, 127
6, 53849, Note_on_c, 3, 53, 0
6, 53850, Note_on_c, 3, 60, 127
6, 53879, Note_on_c, 3, 60, 0
6, 53880, Note_on_c, 3, 60, 127
6, 53880, Note_on_c, 3, 65, 127
6, 53937, Note_on_c, 3, 60, 0
6, 53937, Note_on_c, 3, 65, 0
6, 53940, Note_on_c, 3, 60, 127
6, 53940, Note_on_c, 3, 65, 127
6, 53969, Note_on_c, 3, 60, 0
6, 53969, Note_on_c, 3, 65, 0
6, 53970, Note_on_c, 3, 60, 127
6, 53970, Note_on_c, 3, 65, 127
6, 53999, Note_on_c, 3, 60, 0
6, 53999, Note_on_c, 3, 65, 0
6, 54000, Note_on_c, 3, 56, 127
6, 54029, Note_on_c, 3, 56, 0
6, 54030, Note_on_c, 3, 53, 127
6, 54059, Note_on_c, 3, 53, 0
6, 54060, Note_on_c, 3, 53, 127
6, 54089, Note_on_c, 3, 53, 0
6, 54090, Note_on_c, 3, 60, 127
6, 54119, Note_on_c, 3, 60, 0
6, 54120, Note_on_c, 3, 60, 127
6, 54120, Note_on_c, 3, 65, 127
6, 54177, Note_on_c, 3, 60, 0
6, 54177, Note_on_c, 3, 65, 0
6, 54180, Note_on_c, 3, 65, 127
6, 54180, Note_on_c, 3, 70, 127
6, 54209, Note_on_c, 3, 65, 0
6, 54209, Note_on_c, 3, 70, 0
6, 54210, Note_on_c, 3, 65, 127
6, 54210, Note_on_c, 3, 70, 127
6, 54239, Note_on_c, 3, 65, 0
6, 54239, Note_on_c, 3, 70, 0
6, 54240, Note_on_c, 3, 56, 127
6, 54269, Note_on_c, 3, 56, 0
6, 54270, Note_on_c, 3, 53, 127
6, 54299, Note_on_c, 3, 53, 0
6, 54300, Note_on_c, 3, 53, 127
6, 54329, Note_on_c, 3, 53, 0
6, 54330, Note_on_c, 3, 60, 127
6, 54359, Note_on_c, 3, 60, 0
6, 54360, Note_on_c, 3, 60, 127
6, 54360, Note_on_c, 3, 65, 127
6, 54417, Note_on_c, 3, 60, 0
6, 54417, Note_on_c, 3, 65, 0
6, 54420, Note_on_c, 3, 60, 127
6, 54420, Note_on_c, 3, 65, 127
6, 54449, Note_on_c, 3, 60, 0
6, 54449, Note_on_c, 3, 65, 0
6, 54450, Note_on_c, 3, 60, 127
6, 54450, Note_on_c, 3, 65, 127
6, 54479, Note_on_c, 3, 60, 0
6, 54479, Note_on_c, 3, 65, 0
6, 54480, Note_on_c, 3, 56, 127
6, 54509, Note_on_c, 3, 56, 0
6, 54510, Note_on_c, 3, 53, 127
6, 54539, Note_on_c, 3, 53, 0
6, 54540, Note_on_c, 3, 53, 127
6, 54569, Note_on_c, 3, 53, 0
6, 54570, Note_on_c, 3, 60, 127
6, 54599, Note_on_c, 3, 60, 0
6, 54600, Note_on_c, 3, 60, 127
6, 54600, Note_on_c, 3, 65, 127
6, 54657, Note_on_c, 3, 60, 0
6, 54657, Note_on_c, 3, 65, 0
6, 54660, Note_on_c, 3, 65, 127
6, 54660, Note_on_c, 3, 60, 127
6, 54689, Note_on_c, 3, 65, 0
6, 54689, Note_on_c, 3, 60, 0
6, 54690, Note_on_c, 3, 65, 127
6, 54690, Note_on_c, 3, 60, 127
6, 54719, Note_on_c, 3, 65, 0
6, 54719, Note_on_c, 3, 60, 0
6, 54720, Note_on_c, 3, 56, 127
6, 54749, Note_on_c, 3, 56, 0
6, 54750, Note_on_c, 3, 53, 127
6, 54779, Note_on_c, 3, 53, 0
6, 54780, Note_on_c, 3, 53, 127
6, 54809, Note_on_c, 3, 53, 0
6, 54810, Note_on_c, 3, 60, 127
6, 54839, Note_on_c, 3, 60, 0
6, 54840, Note_on_c, 3, 60, 127
6, 54840, Note_on_c, 3, 65, 127
6, 54897, Note_on_c, 3, 60, 0
6, 54897, Note_on_c, 3, 65, 0
6, 54900, Note_on_c, 3, 60, 127
6, 54900, Note_on_c, 3, 65, 127
6, 54929, Note_on_c, 3, 60, 0
6, 54929, Note_on_c, 3, 65, 0
6, 54930, Note_on_c, 3, 60, 127
6, 54930, Note_on_c, 3, 65, 127
6, 54959, Note_on_c, 3, 60, 0
6, 54959, Note_on_c, 3, 65, 0
6, 54960, Note_on_c, 3, 56, 127
6, 54989, Note_on_c, 3, 56, 0
6, 54990, Note_on_c, 3, 53, 127
6, 55019, Note_on_c, 3, 53, 0
6, 55020, Note_on_c, 3, 53, 127
6, 55049, Note_on_c, 3, 53, 0
6, 55050, Note_on_c, 3, 60, 127
6, 55079, Note_on_c, 3, 60, 0
6, 55080, Note_on_c, 3, 60, 127
6, 55080, Note_on_c, 3, 65, 127
6, 55137, Note_on_c, 3, 60, 0
6, 55137, Note_on_c, 3, 65, 0
6, 55140, Note_on_c, 3, 65, 127
6, 55140, Note_on_c, 3, 70, 127
6, 55169, Note_on_c, 3, 65, 0
6, 55169, Note_on_c, 3, 70, 0
6, 55170, Note_on_c, 3, 65, 127
6, 55170, Note_on_c, 3, 70, 127
6, 55199, Note_on_c, 3, 65, 0
6, 55199, Note_on_c, 3, 70, 0
6, 55200, Note_on_c, 3, 56, 127
6, 55229, Note_on_c, 3, 56, 0
6, 55230, Note_on_c, 3, 53, 127
6, 55259, Note_on_c, 3, 53, 0
6, 55260, Note_on_c, 3, 53, 127
6, 55289, Note_on_c, 3, 53, 0
6, 55290, Note_on_c, 3, 60, 127
6, 55319, Note_on_c, 3, 60, 0
6, 55320, Note_on_c, 3, 60, 127
6, 55320, Note_on_c, 3, 65, 127
6, 55377, Note_on_c, 3, 60, 0
6, 55377, Note_on_c, 3, 65, 0
6, 55380, Note_on_c, 3, 60, 127
6, 55380, Note_on_c, 3, 65, 127
6, 55409, Note_on_c, 3, 60, 0
6, 55409, Note_on_c, 3, 65, 0
6, 55410, Note_on_c, 3, 60, 127
6, 55410, Note_on_c, 3, 65, 127
6, 55439, Note_on_c, 3, 60, 0
6, 55439, Note_on_c, 3, 65, 0
6, 55440, Note_on_c, 3, 56, 127
6, 55469, Note_on_c, 3, 56, 0
6, 55470, Note_on_c, 3, 53, 127
6, 55499, Note_on_c, 3, 53, 0
6, 55500, Note_on_c, 3, 53, 127
6, 55529, Note_on_c, 3, 53, 0
6, 55530, Note_on_c, 3, 60, 127
6, 55559, Note_on_c, 3, 60, 0
6, 55560, Note_on_c, 3, 60, 127
6, 55560, Note_on_c, 3, 65, 127
6, 55617, Note_on_c, 3, 60, 0
6, 55617, Note_on_c, 3, 65, 0
6, 55620, Note_on_c, 3, 65, 127
6, 55620, Note_on_c, 3, 60, 127
6, 55649, Note_on_c, 3, 65, 0
6, 55649, Note_on_c, 3, 60, 0
6, 55650, Note_on_c, 3, 65, 127
6, 55650, Note_on_c, 3, 60, 127
6, 55679, Note_on_c, 3, 65, 0
6, 55679, Note_on_c, 3, 60, 0
6, 55680, Note_on_c, 3, 56, 127
6, 55709, Note_on_c, 3, 56, 0
6, 55710, Note_on_c, 3, 53, 127
6, 55739, Note_on_c, 3, 53, 0
6, 55740, Note_on_c, 3, 53, 127
6, 55769, Note_on_c, 3, 53, 0
6, 55770, Note_on_c, 3, 60, 127
6, 55799, Note_on_c, 3, 60, 0
6, 55800, Note_on_c, 3, 60, 127
6, 55800, Note_on_c, 3, 65, 127
6, 55857, Note_on_c, 3, 60, 0
6, 55857, Note_on_c, 3, 65, 0
6, 55860, Note_on_c, 3, 60, 127
6, 55860, Note_on_c, 3, 65, 127
6, 55889, Note_on_c, 3, 60, 0
6, 55889, Note_on_c, 3, 65, 0
6, 55890, Note_on_c, 3, 60, 127
6, 55890, Note_on_c, 3, 65, 127
6, 55919, Note_on_c, 3, 60, 0
6, 55919, Note_on_c, 3, 65, 0
6, 55920, Note_on_c, 3, 56, 127
6, 55949, Note_on_c, 3, 56, 0
6, 55950, Note_on_c, 3, 53, 127
6, 55979, Note_on_c, 3, 53, 0
6, 55980, Note_on_c, 3, 53, 127
6, 56009, Note_on_c, 3, 53, 0
6, 56010, Note_on_c, 3, 60, 127
6, 56039, Note_on_c, 3, 60, 0
6, 56040, Note_on_c, 3, 60, 127
6, 56040, Note_on_c, 3, 65, 127
6, 56097, Note_on_c, 3, 60, 0
6, 56097, Note_on_c, 3, 65, 0
6, 56100, Note_on_c, 3, 65, 127
6, 56100, Note_on_c, 3, 70, 127
6, 56129, Note_on_c, 3, 65, 0
6, 56129, Note_on_c, 3, 70, 0
6, 56130, Note_on_c, 3, 65, 127
6, 56130, Note_on_c, 3, 70, 127
6, 56159, Note_on_c, 3, 65, 0
6, 56159, Note_on_c, 3, 70, 0
6, 56160, Note_on_c, 3, 56, 127
6, 56189, Note_on_c, 3, 56, 0
6, 56190, Note_on_c, 3, 53, 127
6, 56219, Note_on_c, 3, 53, 0
6, 56220, Note_on_c, 3, 53, 127
6, 56249, Note_on_c, 3, 53, 0
6, 56250, Note_on_c, 3, 60, 127
6, 56279, Note_on_c, 3, 60, 0
6, 56280, Note_on_c, 3, 60, 127
6, 56280, Note_on_c, 3, 65, 127
6, 56337, Note_on_c, 3, 60, 0
6, 56337, Note_on_c, 3, 65, 0
6, 56340, Note_on_c, 3, 60, 127
6, 56340, Note_on_c, 3, 65, 127
6, 56369, Note_on_c, 3, 60, 0
6, 56369, Note_on_c, 3, 65, 0
6, 56370, Note_on_c, 3, 60, 127
6, 56370, Note_on_c, 3, 65, 127
6, 56399, Note_on_c, 3, 60, 0
6, 56399, Note_on_c, 3, 65, 0
6, 56400, Note_on_c, 3, 56, 127
6, 56429, Note_on_c, 3, 56, 0
6, 56430, Note_on_c, 3, 53, 127
6, 56459, Note_on_c, 3, 53, 0
6, 56460, Note_on_c, 3, 53, 127
6, 56489, Note_on_c, 3, 53, 0
6, 56490, Note_on_c, 3, 60, 127
6, 56519, Note_on_c, 3, 60, 0
6, 56520, Note_on_c, 3, 60, 127
6, 56520, Note_on_c, 3, 65, 127
6, 56577, Note_on_c, 3, 60, 0
6, 56577, Note_on_c, 3, 65, 0
6, 56580, Note_on_c, 3, 65, 127
6, 56580, Note_on_c, 3, 60, 127
6, 56609, Note_on_c, 3, 65, 0
6, 56609, Note_on_c, 3, 60, 0
6, 56610, Note_on_c, 3, 65, 127
6, 56610, Note_on_c, 3, 60, 127
6, 56639, Note_on_c, 3, 65, 0
6, 56639, Note_on_c, 3, 60, 0
6, 56640, Note_on_c, 3, 56, 127
6, 56669, Note_on_c, 3, 56, 0
6, 56670, Note_on_c, 3, 53, 127
6, 56699, Note_on_c, 3, 53, 0
6, 56700, Note_on_c, 3, 53, 127
6, 56729, Note_on_c, 3, 53, 0
6, 56730, Note_on_c, 3, 60, 127
6, 56759, Note_on_c, 3, 60, 0
6, 56760, Note_on_c, 3, 60, 127
6, 56760, Note_on_c, 3, 65, 127
6, 56817, Note_on_c, 3, 60, 0
6, 56817, Note_on_c, 3, 65, 0
6, 56820, Note_on_c, 3, 60, 127
6, 56820, Note_on_c, 3, 65, 127
6, 56849, Note_on_c, 3, 60, 0
6, 56849, Note_on_c, 3, 65, 0
6, 56850, Note_on_c, 3, 60, 127
6, 56850, Note_on_c, 3, 65, 127
6, 56879, Note_on_c, 3, 60, 0
6, 56879, Note_on_c, 3, 65, 0
6, 56880, Note_on_c, 3, 56, 127
6, 56909, Note_on_c, 3, 56, 0
6, 56910, Note_on_c, 3, 53, 127
6, 56939, Note_on_c, 3, 53, 0
6, 56940, Note_on_c, 3, 53, 127
6, 56969, Note_on_c, 3, 53, 0
6, 56970, Note_on_c, 3, 60, 127
6, 56999, Note_on_c, 3, 60, 0
6, 57000, Note_on_c, 3, 60, 127
6, 57000, Note_on_c, 3, 65, 127
6, 57057, Note_on_c, 3, 60, 0
6, 57057, Note_on_c, 3, 65, 0
6, 57060, Note_on_c, 3, 65, 127
6, 57060, Note_on_c, 3, 70, 127
6, 57089, Note_on_c, 3, 65, 0
6, 57089, Note_on_c, 3, 70, 0
6, 57090, Note_on_c, 3, 65, 127
6, 57090, Note_on_c, 3, 70, 127
6, 57119, Note_on_c, 3, 65, 0
6, 57119, Note_on_c, 3, 70, 0
6, 57120, Note_on_c, 3, 56, 127
6, 57149, Note_on_c, 3, 56, 0
6, 57150, Note_on_c, 3, 53, 127
6, 57179, Note_on_c, 3, 53, 0
6, 57180, Note_on_c, 3, 53, 127
6, 57209, Note_on_c, 3, 53, 0
6, 57210, Note_on_c, 3, 60, 127
6, 57239, Note_on_c, 3, 60, 0
6, 57240, Note_on_c, 3, 60, 127
6, 57240, Note_on_c, 3, 65, 127
6, 57297, Note_on_c, 3, 60, 0
6, 57297, Note_on_c, 3, 65, 0
6, 57300, Note_on_c, 3, 60, 127
6, 57300, Note_on_c, 3, 65, 127
6, 57329, Note_on_c, 3, 60, 0
6, 57329, Note_on_c, 3, 65, 0
6, 57330, Note_on_c, 3, 60, 127
6, 57330, Note_on_c, 3, 65, 127
6, 57359, Note_on_c, 3, 60, 0
6, 57359, Note_on_c, 3, 65, 0
6, 57360, Note_on_c, 3, 56, 127
6, 57389, Note_on_c, 3, 56, 0
6, 57390, Note_on_c, 3, 53, 127
6, 57419, Note_on_c, 3, 53, 0
6, 57420, Note_on_c, 3, 53, 127
6, 57449, Note_on_c, 3, 53, 0
6, 57450, Note_on_c, 3, 60, 127
6, 57479, Note_on_c, 3, 60, 0
6, 57480, Note_on_c, 3, 60, 127
6, 57480, Note_on_c, 3, 65, 127
6, 57537, Note_on_c, 3, 60, 0
6, 57537, Note_on_c, 3, 65, 0
6, 57540, Note_on_c, 3, 65, 127
6, 57540, Note_on_c, 3, 60, 127
6, 57569, Note_on_c, 3, 65, 0
6, 57569, Note_on_c, 3, 60, 0
6, 57570, Note_on_c, 3, 65, 127
6, 57570, Note_on_c, 3, 60, 127
6, 57599, Note_on_c, 3, 65, 0
6, 57599, Note_on_c, 3, 60, 0
6, 57600, Note_on_c, 3, 56, 127
6, 57629, Note_on_c, 3, 56, 0
6, 57630, Note_on_c, 3, 53, 127
6, 57659, Note_on_c, 3, 53, 0
6, 57660, Note_on_c, 3, 53, 127
6, 57689, Note_on_c, 3, 53, 0
6, 57690, Note_on_c, 3, 60, 127
6, 57719, Note_on_c, 3, 60, 0
6, 57720, Note_on_c, 3, 60, 127
6, 57720, Note_on_c, 3, 65, 127
6, 57777, Note_on_c, 3, 60, 0
6, 57777, Note_on_c, 3, 65, 0
6, 57780, Note_on_c, 3, 60, 127
6, 57780, Note_on_c, 3, 65, 127
6, 57809, Note_on_c, 3, 60, 0
6, 57809, Note_on_c, 3, 65, 0
6, 57810, Note_on_c, 3, 60, 127
6, 57810, Note_on_c, 3, 65, 127
6, 57839, Note_on_c, 3, 60, 0
6, 57839, Note_on_c, 3, 65, 0
6, 57840, Note_on_c, 3, 56, 127
6, 57869, Note_on_c, 3, 56, 0
6, 57870, Note_on_c, 3, 53, 127
6, 57899, Note_on_c, 3, 53, 0
6, 57900, Note_on_c, 3, 53, 127
6, 57929, Note_on_c, 3, 53, 0
6, 57930, Note_on_c, 3, 60, 127
6, 57959, Note_on_c, 3, 60, 0
6, 57960, Note_on_c, 3, 60, 127
6, 57960, Note_on_c, 3, 65, 127
6, 58017, Note_on_c, 3, 60, 0
6, 58017, Note_on_c, 3, 65, 0
6, 58020, Note_on_c, 3, 65, 127
6, 58020, Note_on_c, 3, 70, 127
6, 58049, Note_on_c, 3, 65, 0
6, 58049, Note_on_c, 3, 70, 0
6, 58050, Note_on_c, 3, 65, 127
6, 58050, Note_on_c, 3, 70, 127
6, 58079, Note_on_c, 3, 65, 0
6, 58079, Note_on_c, 3, 70, 0
6, 58080, Note_on_c, 3, 56, 127
6, 58109, Note_on_c, 3, 56, 0
6, 58110, Note_on_c, 3, 53, 127
6, 58139, Note_on_c, 3, 53, 0
6, 58140, Note_on_c, 3, 53, 127
6, 58169, Note_on_c, 3, 53, 0
6, 58170, Note_on_c, 3, 60, 127
6, 58199, Note_on_c, 3, 60, 0
6, 58200, Note_on_c, 3, 60, 127
6, 58200, Note_on_c, 3, 65, 127
6, 58257, Note_on_c, 3, 60, 0
6, 58257, Note_on_c, 3, 65, 0
6, 58260, Note_on_c, 3, 60, 127
6, 58260, Note_on_c, 3, 65, 127
6, 58289, Note_on_c, 3, 60, 0
6, 58289, Note_on_c, 3, 65, 0
6, 58290, Note_on_c, 3, 60, 127
6, 58290, Note_on_c, 3, 65, 127
6, 58319, Note_on_c, 3, 60, 0
6, 58319, Note_on_c, 3, 65, 0
6, 58320, Note_on_c, 3, 56, 127
6, 58349, Note_on_c, 3, 56, 0
6, 58350, Note_on_c, 3, 53, 127
6, 58379, Note_on_c, 3, 53, 0
6, 58380, Note_on_c, 3, 53, 127
6, 58409, Note_on_c, 3, 53, 0
6, 58410, Note_on_c, 3, 60, 127
6, 58439, Note_on_c, 3, 60, 0
6, 58440, Note_on_c, 3, 60, 127
6, 58440, Note_on_c, 3, 65, 127
6, 58497, Note_on_c, 3, 60, 0
6, 58497, Note_on_c, 3, 65, 0
6, 58500, Note_on_c, 3, 65, 127
6, 58500, Note_on_c, 3, 60, 127
6, 58529, Note_on_c, 3, 65, 0
6, 58529, Note_on_c, 3, 60, 0
6, 58530, Note_on_c, 3, 65, 127
6, 58530, Note_on_c, 3, 60, 127
6, 58559, Note_on_c, 3, 65, 0
6, 58559, Note_on_c, 3, 60, 0
6, 58560, Note_on_c, 3, 56, 127
6, 58589, Note_on_c, 3, 56, 0
6, 58590, Note_on_c, 3, 53, 127
6, 58619, Note_on_c, 3, 53, 0
6, 58620, Note_on_c, 3, 53, 127
6, 58649, Note_on_c, 3, 53, 0
6, 58650, Note_on_c, 3, 60, 127
6, 58679, Note_on_c, 3, 60, 0
6, 58680, Note_on_c, 3, 60, 127
6, 58680, Note_on_c, 3, 65, 127
6, 58737, Note_on_c, 3, 60, 0
6, 58737, Note_on_c, 3, 65, 0
6, 58740, Note_on_c, 3, 60, 127
6, 58740, Note_on_c, 3, 65, 127
6, 58769, Note_on_c, 3, 60, 0
6, 58769, Note_on_c, 3, 65, 0
6, 58770, Note_on_c, 3, 60, 127
6, 58770, Note_on_c, 3, 65, 127
6, 58799, Note_on_c, 3, 60, 0
6, 58799, Note_on_c, 3, 65, 0
6, 58800, Note_on_c, 3, 56, 127
6, 58829, Note_on_c, 3, 56, 0
6, 58830, Note_on_c, 3, 53, 127
6, 58859, Note_on_c, 3, 53, 0
6, 58860, Note_on_c, 3, 53, 127
6, 58889, Note_on_c, 3, 53, 0
6, 58890, Note_on_c, 3, 60, 127
6, 58919, Note_on_c, 3, 60, 0
6, 58920, Note_on_c, 3, 60, 127
6, 58920, Note_on_c, 3, 65, 127
6, 58977, Note_on_c, 3, 60, 0
6, 58977, Note_on_c, 3, 65, 0
6, 58980, Note_on_c, 3, 65, 127
6, 58980, Note_on_c, 3, 70, 127
6, 59009, Note_on_c, 3, 65, 0
6, 59009, Note_on_c, 3, 70, 0
6, 59010, Note_on_c, 3, 65, 127
6, 59010, Note_on_c, 3, 70, 127
6, 59039, Note_on_c, 3, 65, 0
6, 59039, Note_on_c, 3, 70, 0
6, 59040, Note_on_c, 3, 56, 127
6, 59069, Note_on_c, 3, 56, 0
6, 59070, Note_on_c, 3, 53, 127
6, 59099, Note_on_c, 3, 53, 0
6, 59100, Note_on_c, 3, 53, 127
6, 59129, Note_on_c, 3, 53, 0
6, 59130, Note_on_c, 3, 60, 127
6, 59159, Note_on_c, 3, 60, 0
6, 59160, Note_on_c, 3, 60, 127
6, 59160, Note_on_c, 3, 65, 127
6, 59217, Note_on_c, 3, 60, 0
6, 59217, Note_on_c, 3, 65, 0
6, 59220, Note_on_c, 3, 60, 127
6, 59220, Note_on_c, 3, 65, 127
6, 59249, Note_on_c, 3, 60, 0
6, 59249, Note_on_c, 3, 65, 0
6, 59250, Note_on_c, 3, 60, 127
6, 59250, Note_on_c, 3, 65, 127
6, 59279, Note_on_c, 3, 60, 0
6, 59279, Note_on_c, 3, 65, 0
6, 59280, Note_on_c, 3, 56, 127
6, 59309, Note_on_c, 3, 56, 0
6, 59310, Note_on_c, 3, 53, 127
6, 59339, Note_on_c, 3, 53, 0
6, 59340, Note_on_c, 3, 53, 127
6, 59369, Note_on_c, 3, 53, 0
6, 59370, Note_on_c, 3, 60, 127
6, 59399, Note_on_c, 3, 60, 0
6, 59400, Note_on_c, 3, 60, 127
6, 59400, Note_on_c, 3, 65, 127
6, 59457, Note_on_c, 3, 60, 0
6, 59457, Note_on_c, 3, 65, 0
6, 59460, Note_on_c, 3, 65, 127
6, 59460, Note_on_c, 3, 60, 127
6, 59489, Note_on_c, 3, 65, 0
6, 59489, Note_on_c, 3, 60, 0
6, 59490, Note_on_c, 3, 65, 127
6, 59490, Note_on_c, 3, 60, 127
6, 59519, Note_on_c, 3, 65, 0
6, 59519, Note_on_c, 3, 60, 0
6, 59520, Note_on_c, 3, 56, 127
6, 59549, Note_on_c, 3, 56, 0
6, 59550, Note_on_c, 3, 53, 127
6, 59579, Note_on_c, 3, 53, 0
6, 59580, Note_on_c, 3, 53, 127
6, 59609, Note_on_c, 3, 53, 0
6, 59610, Note_on_c, 3, 60, 127
6, 59639, Note_on_c, 3, 60, 0
6, 59640, Note_on_c, 3, 60, 127
6, 59640, Note_on_c, 3, 65, 127
6, 59697, Note_on_c, 3, 60, 0
6, 59697, Note_on_c, 3, 65, 0
6, 59700, Note_on_c, 3, 60, 127
6, 59700, Note_on_c, 3, 65, 127
6, 59729, Note_on_c, 3, 60, 0
6, 59729, Note_on_c, 3, 65, 0
6, 59730, Note_on_c, 3, 60, 127
6, 59730, Note_on_c, 3, 65, 127
6, 59759, Note_on_c, 3, 60, 0
6, 59759, Note_on_c, 3, 65, 0
6, 59760, Note_on_c, 3, 56, 127
6, 59789, Note_on_c, 3, 56, 0
6, 59790, Note_on_c, 3, 53, 127
6, 59819, Note_on_c, 3, 53, 0
6, 59820, Note_on_c, 3, 53, 127
6, 59849, Note_on_c, 3, 53, 0
6, 59850, Note_on_c, 3, 60, 127
6, 59879, Note_on_c, 3, 60, 0
6, 59880, Note_on_c, 3, 60, 127
6, 59880, Note_on_c, 3, 65, 127
6, 59937, Note_on_c, 3, 60, 0
6, 59937, Note_on_c, 3, 65, 0
6, 59940, Note_on_c, 3, 65, 127
6, 59940, Note_on_c, 3, 70, 127
6, 59969, Note_on_c, 3, 65, 0
6, 59969, Note_on_c, 3, 70, 0
6, 59970, Note_on_c, 3, 65, 127
6, 59970, Note_on_c, 3, 70, 127
6, 59999, Note_on_c, 3, 65, 0
6, 59999, Note_on_c, 3, 70, 0
6, 60000, Note_on_c, 3, 56, 127
6, 60029, Note_on_c, 3, 56, 0
6, 60030, Note_on_c, 3, 53, 127
6, 60059, Note_on_c, 3, 53, 0
6, 60060, Note_on_c, 3, 53, 127
6, 60089, Note_on_c, 3, 53, 0
6, 60090, Note_on_c, 3, 60, 127
6, 60119, Note_on_c, 3, 60, 0
6, 60120, Note_on_c, 3, 60, 127
6, 60120, Note_on_c, 3, 65, 127
6, 60177, Note_on_c, 3, 60, 0
6, 60177, Note_on_c, 3, 65, 0
6, 60180, Note_on_c, 3, 60, 127
6, 60180, Note_on_c, 3, 65, 127
6, 60209, Note_on_c, 3, 60, 0
6, 60209, Note_on_c, 3, 65, 0
6, 60210, Note_on_c, 3, 60, 127
6, 60210, Note_on_c, 3, 65, 127
6, 60239, Note_on_c, 3, 60, 0
6, 60239, Note_on_c, 3, 65, 0
6, 60240, Note_on_c, 3, 56, 127
6, 60269, Note_on_c, 3, 56, 0
6, 60270, Note_on_c, 3, 53, 127
6, 60299, Note_on_c, 3, 53, 0
6, 60300, Note_on_c, 3, 53, 127
6, 60329, Note_on_c, 3, 53, 0
6, 60330, Note_on_c, 3, 60, 127
6, 60359, Note_on_c, 3, 60, 0
6, 60360, Note_on_c, 3, 60, 127
6, 60360, Note_on_c, 3, 65, 127
6, 60417, Note_on_c, 3, 60, 0
6, 60417, Note_on_c, 3, 65, 0
6, 60420, Note_on_c, 3, 65, 127
6, 60420, Note_on_c, 3, 60, 127
6, 60449, Note_on_c, 3, 65, 0
6, 60449, Note_on_c, 3, 60, 0
6, 60450, Note_on_c, 3, 65, 127
6, 60450, Note_on_c, 3, 60, 127
6, 60479, Note_on_c, 3, 65, 0
6, 60479, Note_on_c, 3, 60, 0
6, 60480, Note_on_c, 3, 56, 127
6, 60509, Note_on_c, 3, 56, 0
6, 60510, Note_on_c, 3, 53, 127
6, 60539, Note_on_c, 3, 53, 0
6, 60540, Note_on_c, 3, 53, 127
6, 60569, Note_on_c, 3, 53, 0
6, 60570, Note_on_c, 3, 60, 127
6, 60599, Note_on_c, 3, 60, 0
6, 60600, Note_on_c, 3, 60, 127
6, 60600, Note_on_c, 3, 65, 127
6, 60657, Note_on_c, 3, 60, 0
6, 60657, Note_on_c, 3, 65, 0
6, 60660, Note_on_c, 3, 60, 127
6, 60660, Note_on_c, 3, 65, 127
6, 60689, Note_on_c, 3, 60, 0
6, 60689, Note_on_c, 3, 65, 0
6, 60690, Note_on_c, 3, 60, 127
6, 60690, Note_on_c, 3, 65, 127
6, 60719, Note_on_c, 3, 60, 0
6, 60719, Note_on_c, 3, 65, 0
6, 60720, Note_on_c, 3, 56, 127
6, 60749, Note_on_c, 3, 56, 0
6, 60750, Note_on_c, 3, 53, 127
6, 60779, Note_on_c, 3, 53, 0
6, 60780, Note_on_c, 3, 53, 127
6, 60809, Note_on_c, 3, 53, 0
6, 60810, Note_on_c, 3, 60, 127
6, 60839, Note_on_c, 3, 60, 0
6, 60840, Note_on_c, 3, 60, 127
6, 60840, Note_on_c, 3, 65, 127
6, 60897, Note_on_c, 3, 60, 0
6, 60897, Note_on_c, 3, 65, 0
6, 60900, Note_on_c, 3, 65, 127
6, 60900, Note_on_c, 3, 70, 127
6, 60929, Note_on_c, 3, 65, 0
6, 60929, Note_on_c, 3, 70, 0
6, 60930, Note_on_c, 3, 65, 127
6, 60930, Note_on_c, 3, 70, 127
6, 60959, Note_on_c, 3, 65, 0
6, 60959, Note_on_c, 3, 70, 0
6, 60960, Note_on_c, 3, 56, 127
6, 60989, Note_on_c, 3, 56, 0
6, 60990, Note_on_c, 3, 53, 127
6, 61019, Note_on_c, 3, 53, 0
6, 61020, Note_on_c, 3, 53, 127
6, 61049, Note_on_c, 3, 53, 0
6, 61050, Note_on_c, 3, 60, 127
6, 61079, Note_on_c, 3, 60, 0
6, 61080, Note_on_c, 3, 60, 127
6, 61080, Note_on_c, 3, 65, 127
6, 61137, Note_on_c, 3, 60, 0
6, 61137, Note_on_c, 3, 65, 0
6, 61140, Note_on_c, 3, 60, 127
6, 61140, Note_on_c, 3, 65, 127
6, 61169, Note_on_c, 3, 60, 0
6, 61169, Note_on_c, 3, 65, 0
6, 61170, Note_on_c, 3, 60, 127
6, 61170, Note_on_c, 3, 65, 127
6, 61199, Note_on_c, 3, 60, 0
6, 61199, Note_on_c, 3, 65, 0
6, 61200, Note_on_c, 3, 56, 127
6, 61229, Note_on_c, 3, 56, 0
6, 61230, Note_on_c, 3, 53, 127
6, 61259, Note_on_c, 3, 53, 0
6, 61260, Note_on_c, 3, 53, 127
6, 61289, Note_on_c, 3, 53, 0
6, 61290, Note_on_c, 3, 60, 127
6, 61319, Note_on_c, 3, 60, 0
6, 61320, Note_on_c, 3, 60, 127
6, 61320, Note_on_c, 3, 65, 127
6, 61377, Note_on_c, 3, 60, 0
6, 61377, Note_on_c, 3, 65, 0
6, 61380, Note_on_c, 3, 65, 127
6, 61380, Note_on_c, 3, 60, 127
6, 61409, Note_on_c, 3, 65, 0
6, 61409, Note_on_c, 3, 60, 0
6, 61410, Note_on_c, 3, 65, 127
6, 61410, Note_on_c, 3, 60, 127
6, 61439, Note_on_c, 3, 65, 0
6, 61439, Note_on_c, 3, 60, 0
6, 61440, Note_on_c, 3, 56, 127
6, 61469, Note_on_c, 3, 56, 0
6, 61470, Note_on_c, 3, 53, 127
6, 61499, Note_on_c, 3, 53, 0
6, 61500, Note_on_c, 3, 53, 127
6, 61529, Note_on_c, 3, 53, 0
6, 61530, Note_on_c, 3, 60, 127
6, 61559, Note_on_c, 3, 60, 0
6, 61560, Note_on_c, 3, 60, 127
6, 61560, Note_on_c, 3, 65, 127
6, 61617, Note_on_c, 3, 60, 0
6, 61617, Note_on_c, 3, 65, 0
6, 61620, Note_on_c, 3, 60, 127
6, 61620, Note_on_c, 3, 65, 127
6, 61649, Note_on_c, 3, 60, 0
6, 61649, Note_on_c, 3, 65, 0
6, 61650, Note_on_c, 3, 60, 127
6, 61650, Note_on_c, 3, 65, 127
6, 61679, Note_on_c, 3, 60, 0
6, 61679, Note_on_c, 3, 65, 0
6, 61680, Note_on_c, 3, 56, 127
6, 61709, Note_on_c, 3, 56, 0
6, 61710, Note_on_c, 3, 53, 127
6, 61739, Note_on_c, 3, 53, 0
6, 61740, Note_on_c, 3, 53, 127
6, 61769, Note_on_c, 3, 53, 0
6, 61770, Note_on_c, 3, 60, 127
6, 61799, Note_on_c, 3, 60, 0
6, 61800, Note_on_c, 3, 60, 127
6, 61800, Note_on_c, 3, 65, 127
6, 61857, Note_on_c, 3, 60, 0
6, 61857, Note_on_c, 3, 65, 0
6, 61860, Note_on_c, 3, 65, 127
6, 61860, Note_on_c, 3, 70, 127
6, 61889, Note_on_c, 3, 65, 0
6, 61889, Note_on_c, 3, 70, 0
6, 61890, Note_on_c, 3, 65, 127
6, 61890, Note_on_c, 3, 70, 127
6, 61919, Note_on_c, 3, 65, 0
6, 61919, Note_on_c, 3, 70, 0
6, 61920, Note_on_c, 3, 56, 127
6, 61949, Note_on_c, 3, 56, 0
6, 61950, Note_on_c, 3, 53, 127
6, 61979, Note_on_c, 3, 53, 0
6, 61980, Note_on_c, 3, 53, 127
6, 62009, Note_on_c, 3, 53, 0
6, 62010, Note_on_c, 3, 60, 127
6, 62039, Note_on_c, 3, 60, 0
6, 62040, Note_on_c, 3, 60, 127
6, 62040, Note_on_c, 3, 65, 127
6, 62097, Note_on_c, 3, 60, 0
6, 62097, Note_on_c, 3, 65, 0
6, 62100, Note_on_c, 3, 60, 127
6, 62100, Note_on_c, 3, 65, 127
6, 62129, Note_on_c, 3, 60, 0
6, 62129, Note_on_c, 3, 65, 0
6, 62130, Note_on_c, 3, 60, 127
6, 62130, Note_on_c, 3, 65, 127
6, 62159, Note_on_c, 3, 60, 0
6, 62159, Note_on_c, 3, 65, 0
6, 62160, Note_on_c, 3, 56, 127
6, 62189, Note_on_c, 3, 56, 0
6, 62190, Note_on_c, 3, 53, 127
6, 62219, Note_on_c, 3, 53, 0
6, 62220, Note_on_c, 3, 53, 127
6, 62249, Note_on_c, 3, 53, 0
6, 62250, Note_on_c, 3, 60, 127
6, 62279, Note_on_c, 3, 60, 0
6, 62280, Note_on_c, 3, 60, 127
6, 62280, Note_on_c, 3, 65, 127
6, 62337, Note_on_c, 3, 60, 0
6, 62337, Note_on_c, 3, 65, 0
6, 62340, Note_on_c, 3, 65, 127
6, 62340, Note_on_c, 3, 60, 127
6, 62369, Note_on_c, 3, 65, 0
6, 62369, Note_on_c, 3, 60, 0
6, 62370, Note_on_c, 3, 65, 127
6, 62370, Note_on_c, 3, 60, 127
6, 62399, Note_on_c, 3, 65, 0
6, 62399, Note_on_c, 3, 60, 0
6, 62400, Note_on_c, 3, 56, 127
6, 62429, Note_on_c, 3, 56, 0
6, 62430, Note_on_c, 3, 53, 127
6, 62459, Note_on_c, 3, 53, 0
6, 62460, Note_on_c, 3, 53, 127
6, 62489, Note_on_c, 3, 53, 0
6, 62490, Note_on_c, 3, 60, 127
6, 62519, Note_on_c, 3, 60, 0
6, 62520, Note_on_c, 3, 60, 127
6, 62520, Note_on_c, 3, 65, 127
6, 62577, Note_on_c, 3, 60, 0
6, 62577, Note_on_c, 3, 65, 0
6, 62580, Note_on_c, 3, 60, 127
6, 62580, Note_on_c, 3, 65, 127
6, 62609, Note_on_c, 3, 60, 0
6, 62609, Note_on_c, 3, 65, 0
6, 62610, Note_on_c, 3, 60, 127
6, 62610, Note_on_c, 3, 65, 127
6, 62639, Note_on_c, 3, 60, 0
6, 62639, Note_on_c, 3, 65, 0
6, 62640, Note_on_c, 3, 56, 127
6, 62669, Note_on_c, 3, 56, 0
6, 62670, Note_on_c, 3, 53, 127
6, 62699, Note_on_c, 3, 53, 0
6, 62700, Note_on_c, 3, 53, 127
6, 62729, Note_on_c, 3, 53, 0
6, 62730, Note_on_c, 3, 60, 127
6, 62759, Note_on_c, 3, 60, 0
6, 62760, Note_on_c, 3, 60, 127
6, 62760, Note_on_c, 3, 65, 127
6, 62817, Note_on_c, 3, 60, 0
6, 62817, Note_on_c, 3, 65, 0
6, 62820, Note_on_c, 3, 65, 127
6, 62820, Note_on_c, 3, 60, 127
6, 62849, Note_on_c, 3, 65, 0
6, 62849, Note_on_c, 3, 60, 0
6, 62850, Note_on_c, 3, 65, 127
6, 62850, Note_on_c, 3, 60, 127
6, 62879, Note_on_c, 3, 65, 0
6, 62879, Note_on_c, 3, 60, 0
6, 62880, Note_on_c, 3, 65, 127
6, 62909, Note_on_c, 3, 65, 0
6, 62910, Note_on_c, 3, 68, 127
6, 62910, Note_on_c, 3, 75, 127
6, 63337, Note_on_c, 3, 68, 0
6, 63337, Note_on_c, 3, 75, 0
6, 63360, Note_on_c, 3, 72, 127
6, 63378, Note_on_c, 3, 72, 0
6, 63380, Note_on_c, 3, 65, 127
6, 63390, Note_on_c, 3, 60, 127
6, 63398, Note_on_c, 3, 65, 0
6, 63408, Note_on_c, 3, 60, 0
6, 63410, Note_on_c, 3, 72, 127
6, 63428, Note_on_c, 3, 72, 0
6, 63430, Note_on_c, 3, 65, 127
6, 63440, Note_on_c, 3, 60, 127
6, 63448, Note_on_c, 3, 65, 0
6, 63458, Note_on_c, 3, 60, 0
6, 63460, Note_on_c, 3, 68, 127
6, 63488, Note_on_c, 3, 68, 0
6, 63488, End_track
7, 0, Start_track
7, 0, Title_t, "Guitar 2"
7, 0, Instrument_name_t, "Overdrive Gtr"
7, 0, MIDI_port, 0
7, 480, Control_c, 4, 7, 115
7, 480, Control_c, 4, 93, 20
7, 480, Control_c, 4, 91, 92
7, 480, Control_c, 4, 10, 102
7, 480, Control_c, 4, 32, 0
7, 480, Control_c, 4, 0, 0
7, 480, Program_c, 4, 29
7, 480, Control_c, 4, 5, 20
7, 480, Control_c, 4, 65, 127
7, 22560, Note_on_c, 4, 60, 127
7, 22589, Note_on_c, 4, 60, 0
7, 22590, Note_on_c, 4, 58, 127
7, 22619, Note_on_c, 4, 58, 0
7, 22620, Note_on_c, 4, 57, 127
7, 22649, Note_on_c, 4, 57, 0
7, 22650, Note_on_c, 4, 60, 127
7, 22792, Note_on_c, 4, 60, 0
7, 22800, Note_on_c, 4, 55, 127
7, 22829, Note_on_c, 4, 55, 0
7, 22830, Note_on_c, 4, 53, 127
7, 22859, Note_on_c, 4, 53, 0
7, 22860, Note_on_c, 4, 52, 127
7, 22889, Note_on_c, 4, 52, 0
7, 22890, Note_on_c, 4, 55, 127
7, 23032, Note_on_c, 4, 55, 0
7, 23040, Note_on_c, 4, 53, 127
7, 23069, Note_on_c, 4, 53, 0
7, 23070, Note_on_c, 4, 51, 127
7, 23099, Note_on_c, 4, 51, 0
7, 23100, Note_on_c, 4, 50, 127
7, 23129, Note_on_c, 4, 50, 0
7, 23130, Note_on_c, 4, 53, 127
7, 23215, Note_on_c, 4, 53, 0
7, 23220, Note_on_c, 4, 55, 127
7, 23277, Note_on_c, 4, 55, 0
7, 23280, Note_on_c, 4, 58, 127
7, 23337, Note_on_c, 4, 58, 0
7, 23340, Note_on_c, 4, 60, 127
7, 23511, Note_on_c, 4, 60, 0
7, 23520, Note_on_c, 4, 60, 127
7, 23549, Note_on_c, 4, 60, 0
7, 23550, Note_on_c, 4, 58, 127
7, 23579, Note_on_c, 4, 58, 0
7, 23580, Note_on_c, 4, 57, 127
7, 23609, Note_on_c, 4, 57, 0
7, 23610, Note_on_c, 4, 60, 127
7, 23752, Note_on_c, 4, 60, 0
7, 23760, Note_on_c, 4, 55, 127
7, 23789, Note_on_c, 4, 55, 0
7, 23790, Note_on_c, 4, 53, 127
7, 23819, Note_on_c, 4, 53, 0
7, 23820, Note_on_c, 4, 52, 127
7, 23849, Note_on_c, 4, 52, 0
7, 23850, Note_on_c, 4, 55, 127
7, 23992, Note_on_c, 4, 55, 0
7, 24000, Note_on_c, 4, 53, 127
7, 24029, Note_on_c, 4, 53, 0
7, 24030, Note_on_c, 4, 51, 127
7, 24059, Note_on_c, 4, 51, 0
7, 24060, Note_on_c, 4, 50, 127
7, 24089, Note_on_c, 4, 50, 0
7, 24090, Note_on_c, 4, 53, 127
7, 24175, Note_on_c, 4, 53, 0
7, 24180, Note_on_c, 4, 55, 127
7, 24237, Note_on_c, 4, 55, 0
7, 24240, Note_on_c, 4, 58, 127
7, 24297, Note_on_c, 4, 58, 0
7, 24300, Note_on_c, 4, 60, 127
7, 24471, Note_on_c, 4, 60, 0
7, 24480, Note_on_c, 4, 60, 127
7, 24509, Note_on_c, 4, 60, 0
7, 24510, Note_on_c, 4, 58, 127
7, 24539, Note_on_c, 4, 58, 0
7, 24540, Note_on_c, 4, 57, 127
7, 24569, Note_on_c, 4, 57, 0
7, 24570, Note_on_c, 4, 60, 127
7, 24712, Note_on_c, 4, 60, 0
7, 24720, Note_on_c, 4, 55, 127
7, 24749, Note_on_c, 4, 55, 0
7, 24750, Note_on_c, 4, 53, 127
7, 24779, Note_on_c, 4, 53, 0
7, 24780, Note_on_c, 4, 52, 127
7, 24809, Note_on_c, 4, 52, 0
7, 24810, Note_on_c, 4, 55, 127
7, 24952, Note_on_c, 4, 55, 0
7, 24960, Note_on_c, 4, 53, 127
7, 24989, Note_on_c, 4, 53, 0
7, 24990, Note_on_c, 4, 51, 127
7, 25019, Note_on_c, 4, 51, 0
7, 25020, Note_on_c, 4, 50, 127
7, 25049, Note_on_c, 4, 50, 0
7, 25050, Note_on_c, 4, 53, 127
7, 25135, Note_on_c, 4, 53, 0
7, 25140, Note_on_c, 4, 55, 127
7, 25197, Note_on_c, 4, 55, 0
7, 25200, Note_on_c, 4, 58, 127
7, 25257, Note_on_c, 4, 58, 0
7, 25260, Note_on_c, 4, 60, 127
7, 25431, Note_on_c, 4, 60, 0
7, 25440, Note_on_c, 4, 60, 127
7, 25469, Note_on_c, 4, 60, 0
7, 25470, Note_on_c, 4, 58, 127
7, 25499, Note_on_c, 4, 58, 0
7, 25500, Note_on_c, 4, 57, 127
7, 25529, Note_on_c, 4, 57, 0
7, 25530, Note_on_c, 4, 65, 127
7, 25672, Note_on_c, 4, 65, 0
7, 25680, Note_on_c, 4, 60, 127
7, 25709, Note_on_c, 4, 60, 0
7, 25710, Note_on_c, 4, 58, 127
7, 25739, Note_on_c, 4, 58, 0
7, 25740, Note_on_c, 4, 57, 127
7, 25769, Note_on_c, 4, 57, 0
7, 25770, Note_on_c, 4, 55, 127
7, 25912, Note_on_c, 4, 55, 0
7, 25920, Note_on_c, 4, 60, 127
7, 25949, Note_on_c, 4, 60, 0
7, 25950, Note_on_c, 4, 58, 127
7, 25979, Note_on_c, 4, 58, 0
7, 25980, Note_on_c, 4, 57, 127
7, 26009, Note_on_c, 4, 57, 0
7, 26010, Note_on_c, 4, 65, 127
7, 26095, Note_on_c, 4, 65, 0
7, 26100, Note_on_c, 4, 63, 127
7, 26157, Note_on_c, 4, 63, 0
7, 26160, Note_on_c, 4, 63, 127
7, 26217, Note_on_c, 4, 63, 0
7, 26220, Note_on_c, 4, 65, 127
7, 26391, Note_on_c, 4, 65, 0
7, 26400, Note_on_c, 4, 60, 127
7, 26429, Note_on_c, 4, 60, 0
7, 26430, Note_on_c, 4, 58, 127
7, 26459, Note_on_c, 4, 58, 0
7, 26460, Note_on_c, 4, 57, 127
7, 26489, Note_on_c, 4, 57, 0
7, 26490, Note_on_c, 4, 65, 127
7, 26632, Note_on_c, 4, 65, 0
7, 26640, Note_on_c, 4, 60, 127
7, 26669, Note_on_c, 4, 60, 0
7, 26670, Note_on_c, 4, 58, 127
7, 26699, Note_on_c, 4, 58, 0
7, 26700, Note_on_c, 4, 57, 127
7, 26729, Note_on_c, 4, 57, 0
7, 26730, Note_on_c, 4, 55, 127
7, 26872, Note_on_c, 4, 55, 0
7, 26880, Note_on_c, 4, 60, 127
7, 26909, Note_on_c, 4, 60, 0
7, 26910, Note_on_c, 4, 58, 127
7, 26939, Note_on_c, 4, 58, 0
7, 26940, Note_on_c, 4, 57, 127
7, 26969, Note_on_c, 4, 57, 0
7, 26970, Note_on_c, 4, 65, 127
7, 27055, Note_on_c, 4, 65, 0
7, 27060, Note_on_c, 4, 63, 127
7, 27117, Note_on_c, 4, 63, 0
7, 27120, Note_on_c, 4, 63, 127
7, 27177, Note_on_c, 4, 63, 0
7, 27180, Note_on_c, 4, 65, 127
7, 27351, Note_on_c, 4, 65, 0
7, 45120, Note_on_c, 4, 72, 127
7, 45149, Note_on_c, 4, 72, 0
7, 45150, Note_on_c, 4, 70, 127
7, 45179, Note_on_c, 4, 70, 0
7, 45180, Note_on_c, 4, 69, 127
7, 45209, Note_on_c, 4, 69, 0
7, 45210, Note_on_c, 4, 72, 127
7, 45352, Note_on_c, 4, 72, 0
7, 45360, Note_on_c, 4, 67, 127
7, 45389, Note_on_c, 4, 67, 0
7, 45390, Note_on_c, 4, 65, 127
7, 45419, Note_on_c, 4, 65, 0
7, 45420, Note_on_c, 4, 64, 127
7, 45449, Note_on_c, 4, 64, 0
7, 45450, Note_on_c, 4, 67, 127
7, 45592, Note_on_c, 4, 67, 0
7, 45600, Note_on_c, 4, 65, 127
7, 45629, Note_on_c, 4, 65, 0
7, 45630, Note_on_c, 4, 63, 127
7, 45659, Note_on_c, 4, 63, 0
7, 45660, Note_on_c, 4, 62, 127
7, 45689, Note_on_c, 4, 62, 0
7, 45690, Note_on_c, 4, 65, 127
7, 45775, Note_on_c, 4, 65, 0
7, 45780, Note_on_c, 4, 67, 127
7, 45837, Note_on_c, 4, 67, 0
7, 45840, Note_on_c, 4, 70, 127
7, 45897, Note_on_c, 4, 70, 0
7, 45900, Note_on_c, 4, 72, 127
7, 46071, Note_on_c, 4, 72, 0
7, 46080, Note_on_c, 4, 72, 127
7, 46109, Note_on_c, 4, 72, 0
7, 46110, Note_on_c, 4, 70, 127
7, 46139, Note_on_c, 4, 70, 0
7, 46140, Note_on_c, 4, 69, 127
7, 46169, Note_on_c, 4, 69, 0
7, 46170, Note_on_c, 4, 72, 127
7, 46312, Note_on_c, 4, 72, 0
7, 46320, Note_on_c, 4, 67, 127
7, 46349, Note_on_c, 4, 67, 0
7, 46350, Note_on_c, 4, 65, 127
7, 46379, Note_on_c, 4, 65, 0
7, 46380, Note_on_c, 4, 64, 127
7, 46409, Note_on_c, 4, 64, 0
7, 46410, Note_on_c, 4, 67, 127
7, 46552, Note_on_c, 4, 67, 0
7, 46560, Note_on_c, 4, 65, 127
7, 46589, Note_on_c, 4, 65, 0
7, 46590, Note_on_c, 4, 63, 127
7, 46619, Note_on_c, 4, 63, 0
7, 46620, Note_on_c, 4, 62, 127
7, 46649, Note_on_c, 4, 62, 0
7, 46650, Note_on_c, 4, 65, 127
7, 46735, Note_on_c, 4, 65, 0
7, 46740, Note_on_c, 4, 67, 127
7, 46797, Note_on_c, 4, 67, 0
7, 46800, Note_on_c, 4, 70, 127
7, 46857, Note_on_c, 4, 70, 0
7, 46860, Note_on_c, 4, 72, 127
7, 47031, Note_on_c, 4, 72, 0
7, 47040, Note_on_c, 4, 72, 127
7, 47069, Note_on_c, 4, 72, 0
7, 47070, Note_on_c, 4, 70, 127
7, 47099, Note_on_c, 4, 70, 0
7, 47100, Note_on_c, 4, 69, 127
7, 47129, Note_on_c, 4, 69, 0
7, 47130, Note_on_c, 4, 77, 127
7, 47272, Note_on_c, 4, 77, 0
7, 47280, Note_on_c, 4, 72, 127
7, 47309, Note_on_c, 4, 72, 0
7, 47310, Note_on_c, 4, 70, 127
7, 47339, Note_on_c, 4, 70, 0
7, 47340, Note_on_c, 4, 69, 127
7, 47369, Note_on_c, 4, 69, 0
7, 47370, Note_on_c, 4, 67, 127
7, 47512, Note_on_c, 4, 67, 0
7, 47520, Note_on_c, 4, 72, 127
7, 47549, Note_on_c, 4, 72, 0
7, 47550, Note_on_c, 4, 70, 127
7, 47579, Note_on_c, 4, 70, 0
7, 47580, Note_on_c, 4, 69, 127
7, 47609, Note_on_c, 4, 69, 0
7, 47610, Note_on_c, 4, 77, 127
7, 47695, Note_on_c, 4, 77, 0
7, 47700, Note_on_c, 4, 75, 127
7, 47757, Note_on_c, 4, 75, 0
7, 47760, Note_on_c, 4, 75, 127
7, 47817, Note_on_c, 4, 75, 0
7, 47820, Note_on_c, 4, 77, 127
7, 47991, Note_on_c, 4, 77, 0
7, 48000, Note_on_c, 4, 72, 127
7, 48029, Note_on_c, 4, 72, 0
7, 48030, Note_on_c, 4, 70, 127
7, 48059, Note_on_c, 4, 70, 0
7, 48060, Note_on_c, 4, 69, 127
7, 48089, Note_on_c, 4, 69, 0
7, 48090, Note_on_c, 4, 77, 127
7, 48232, Note_on_c, 4, 77, 0
7, 48240, Note_on_c, 4, 72, 127
7, 48269, Note_on_c, 4, 72, 0
7, 48270, Note_on_c, 4, 70, 127
7, 48299, Note_on_c, 4, 70, 0
7, 48300, Note_on_c, 4, 69, 127
7, 48329, Note_on_c, 4, 69, 0
7, 48330, Note_on_c, 4, 67, 127
7, 48472, Note_on_c, 4, 67, 0
7, 48480, Note_on_c, 4, 72, 127
7, 48509, Note_on_c, 4, 72, 0
7, 48510, Note_on_c, 4, 70, 127
7, 48539, Note_on_c, 4, 70, 0
7, 48540, Note_on_c, 4, 69, 127
7, 48569, Note_on_c, 4, 69, 0
7, 48570, Note_on_c, 4, 77, 127
7, 48655, Note_on_c, 4, 77, 0
7, 48660, Note_on_c, 4, 75, 127
7, 48717, Note_on_c, 4, 75, 0
7, 48720, Note_on_c, 4, 75, 127
7, 48777, Note_on_c, 4, 75, 0
7, 48780, Note_on_c, 4, 77, 127
7, 48951, Note_on_c, 4, 77, 0
7, 48960, Note_on_c, 4, 72, 127
7, 48989, Note_on_c, 4, 72, 0
7, 48990, Note_on_c, 4, 70, 127
7, 49019, Note_on_c, 4, 70, 0
7, 49020, Note_on_c, 4, 69, 127
7, 49049, Note_on_c, 4, 69, 0
7, 49050, Note_on_c, 4, 72, 127
7, 49079, Note_on_c, 4, 72, 0
7, 49080, Note_on_c, 4, 70, 127
7, 49109, Note_on_c, 4, 70, 0
7, 49110, Note_on_c, 4, 69, 127
7, 49139, Note_on_c, 4, 69, 0
7, 49140, Note_on_c, 4, 72, 127
7, 49226, Note_on_c, 4, 72, 0
7, 49230, Note_on_c, 4, 77, 127
7, 49259, Note_on_c, 4, 77, 0
7, 49260, Note_on_c, 4, 75, 127
7, 49317, Note_on_c, 4, 75, 0
7, 49320, Note_on_c, 4, 77, 127
7, 49434, Note_on_c, 4, 77, 0
7, 49440, Note_on_c, 4, 72, 127
7, 49469, Note_on_c, 4, 72, 0
7, 49470, Note_on_c, 4, 70, 127
7, 49499, Note_on_c, 4, 70, 0
7, 49500, Note_on_c, 4, 69, 127
7, 49529, Note_on_c, 4, 69, 0
7, 49530, Note_on_c, 4, 72, 127
7, 49559, Note_on_c, 4, 72, 0
7, 49560, Note_on_c, 4, 70, 127
7, 49589, Note_on_c, 4, 70, 0
7, 49590, Note_on_c, 4, 69, 127
7, 49619, Note_on_c, 4, 69, 0
7, 49620, Note_on_c, 4, 72, 127
7, 49706, Note_on_c, 4, 72, 0
7, 49710, Note_on_c, 4, 77, 127
7, 49739, Note_on_c, 4, 77, 0
7, 49740, Note_on_c, 4, 75, 127
7, 49797, Note_on_c, 4, 75, 0
7, 49800, Note_on_c, 4, 77, 127
7, 49914, Note_on_c, 4, 77, 0
7, 49920, Note_on_c, 4, 72, 127
7, 49949, Note_on_c, 4, 72, 0
7, 49950, Note_on_c, 4, 70, 127
7, 49979, Note_on_c, 4, 70, 0
7, 49980, Note_on_c, 4, 69, 127
7, 50009, Note_on_c, 4, 69, 0
7, 50010, Note_on_c, 4, 77, 127
7, 50039, Note_on_c, 4, 77, 0
7, 50040, Note_on_c, 4, 77, 127
7, 50154, Note_on_c, 4, 77, 0
7, 50160, Note_on_c, 4, 72, 127
7, 50189, Note_on_c, 4, 72, 0
7, 50190, Note_on_c, 4, 70, 127
7, 50219, Note_on_c, 4, 70, 0
7, 50220, Note_on_c, 4, 69, 127
7, 50249, Note_on_c, 4, 69, 0
7, 50250, Note_on_c, 4, 67, 127
7, 50336, Note_on_c, 4, 67, 0
7, 50340, Note_on_c, 4, 69, 127
7, 50397, Note_on_c, 4, 69, 0
7, 50400, Note_on_c, 4, 72, 127
7, 50429, Note_on_c, 4, 72, 0
7, 50430, Note_on_c, 4, 70, 127
7, 50459, Note_on_c, 4, 70, 0
7, 50460, Note_on_c, 4, 69, 127
7, 50489, Note_on_c, 4, 69, 0
7, 50490, Note_on_c, 4, 77, 127
7, 50576, Note_on_c, 4, 77, 0
7, 50580, Note_on_c, 4, 75, 127
7, 50637, Note_on_c, 4, 75, 0
7, 50640, Note_on_c, 4, 75, 127
7, 50697, Note_on_c, 4, 75, 0
7, 50700, Note_on_c, 4, 77, 127
7, 50871, Note_on_c, 4, 77, 0
7, 62400, Note_on_c, 4, 63, 127
7, 62425, Note_on_c, 4, 60, 127
7, 62429, Note_on_c, 4, 63, 0
7, 62482, Note_on_c, 4, 60, 0
7, 62490, Note_on_c, 4, 72, 127
7, 62519, Note_on_c, 4, 72, 0
7, 62520, Note_on_c, 4, 70, 127
7, 62577, Note_on_c, 4, 70, 0
7, 62580, Note_on_c, 4, 72, 127
7, 62637, Note_on_c, 4, 72, 0
7, 62640, Note_on_c, 4, 63, 127
7, 62669, Note_on_c, 4, 63, 0
7, 62670, Note_on_c, 4, 60, 127
7, 62699, Note_on_c, 4, 60, 0
7, 62700, Note_on_c, 4, 60, 127
7, 62729, Note_on_c, 4, 60, 0
7, 62730, Note_on_c, 4, 63, 127
7, 62759, Note_on_c, 4, 63, 0
7, 62760, Note_on_c, 4, 60, 127
7, 62817, Note_on_c, 4, 60, 0
7, 62820, Note_on_c, 4, 65, 127
7, 62877, Note_on_c, 4, 65, 0
7, 62880, Note_on_c, 4, 63, 127
7, 62909, Note_on_c, 4, 63, 0
7, 62910, Note_on_c, 4, 60, 127
7, 62967, Note_on_c, 4, 60, 0
7, 62970, Note_on_c, 4, 72, 127
7, 62999, Note_on_c, 4, 72, 0
7, 63000, Note_on_c, 4, 70, 127
7, 63057, Note_on_c, 4, 70, 0
7, 63060, Note_on_c, 4, 75, 127
7, 63120, Pitch_bend_c, 4, 8192
7, 63128, Pitch_bend_c, 4, 8064
7, 63134, Pitch_bend_c, 4, 7936
7, 63140, Pitch_bend_c, 4, 7808
7, 63148, Pitch_bend_c, 4, 7680
7, 63154, Pitch_bend_c, 4, 7552
7, 63160, Pitch_bend_c, 4, 7424
7, 63166, Pitch_bend_c, 4, 7296
7, 63174, Pitch_bend_c, 4, 7168
7, 63180, Pitch_bend_c, 4, 7040
7, 63186, Pitch_bend_c, 4, 6912
7, 63194, Pitch_bend_c, 4, 6784
7, 63200, Pitch_bend_c, 4, 6656
7, 63206, Pitch_bend_c, 4, 6528
7, 63212, Pitch_bend_c, 4, 6400
7, 63220, Pitch_bend_c, 4, 6272
7, 63226, Pitch_bend_c, 4, 6144
7, 63232, Pitch_bend_c, 4, 6016
7, 63238, Pitch_bend_c, 4, 5888
7, 63246, Pitch_bend_c, 4, 5760
7, 63252, Pitch_bend_c, 4, 5632
7, 63258, Pitch_bend_c, 4, 5504
7, 63266, Pitch_bend_c, 4, 5376
7, 63272, Pitch_bend_c, 4, 5248
7, 63278, Pitch_bend_c, 4, 5120
7, 63284, Pitch_bend_c, 4, 4992
7, 63292, Pitch_bend_c, 4, 4864
7, 63298, Pitch_bend_c, 4, 4736
7, 63304, Pitch_bend_c, 4, 4608
7, 63312, Pitch_bend_c, 4, 4480
7, 63318, Pitch_bend_c, 4, 4352
7, 63324, Pitch_bend_c, 4, 4224
7, 63330, Pitch_bend_c, 4, 4096
7, 63338, Pitch_bend_c, 4, 3968
7, 63344, Note_on_c, 4, 75, 0
7, 63344, Pitch_bend_c, 4, 3840
7, 63350, Pitch_bend_c, 4, 3712
7, 63356, Pitch_bend_c, 4, 3584
7, 63356, End_track
8, 0, Start_track
8, 0, Title_t, "Bass Guitar"
8, 0, Instrument_name_t, "Fingered Bass"
8, 0, MIDI_port, 0
8, 480, Control_c, 5, 7, 115
8, 480, Control_c, 5, 93, 0
8, 480, Control_c, 5, 91, 41
8, 480, Control_c, 5, 32, 0
8, 480, Control_c, 5, 0, 0
8, 480, Program_c, 5, 33
8, 1920, Note_on_c, 5, 32, 100
8, 1950, Note_on_c, 5, 32, 0
8, 1950, Note_on_c, 5, 29, 100
8, 1980, Note_on_c, 5, 29, 0
8, 2010, Note_on_c, 5, 28, 110
8, 2040, Note_on_c, 5, 29, 110
8, 2070, Note_on_c, 5, 28, 0
8, 2100, Note_on_c, 5, 29, 0
8, 2100, Note_on_c, 5, 29, 100
8, 2160, Note_on_c, 5, 29, 0
8, 2160, Note_on_c, 5, 32, 100
8, 2190, Note_on_c, 5, 32, 0
8, 2190, Note_on_c, 5, 29, 100
8, 2220, Note_on_c, 5, 29, 0
8, 2220, Note_on_c, 5, 29, 100
8, 2280, Note_on_c, 5, 29, 0
8, 2280, Note_on_c, 5, 29, 100
8, 2340, Note_on_c, 5, 29, 0
8, 2340, Note_on_c, 5, 34, 100
8, 2400, Note_on_c, 5, 34, 0
8, 2400, Note_on_c, 5, 32, 100
8, 2430, Note_on_c, 5, 32, 0
8, 2430, Note_on_c, 5, 29, 100
8, 2460, Note_on_c, 5, 29, 0
8, 2460, Note_on_c, 5, 29, 100
8, 2520, Note_on_c, 5, 29, 0
8, 2520, Note_on_c, 5, 29, 110
8, 2580, Note_on_c, 5, 29, 0
8, 2580, Note_on_c, 5, 29, 100
8, 2640, Note_on_c, 5, 29, 0
8, 2640, Note_on_c, 5, 32, 100
8, 2670, Note_on_c, 5, 32, 0
8, 2670, Note_on_c, 5, 29, 100
8, 2700, Note_on_c, 5, 29, 0
8, 2700, Note_on_c, 5, 29, 100
8, 2730, Note_on_c, 5, 29, 0
8, 2730, Note_on_c, 5, 32, 100
8, 2760, Note_on_c, 5, 32, 0
8, 2760, Note_on_c, 5, 29, 100
8, 2790, Note_on_c, 5, 29, 0
8, 2790, Note_on_c, 5, 29, 100
8, 2820, Note_on_c, 5, 29, 0
8, 2820, Note_on_c, 5, 34, 100
8, 2880, Note_on_c, 5, 34, 0
8, 2880, Note_on_c, 5, 32, 100
8, 2910, Note_on_c, 5, 32, 0
8, 2910, Note_on_c, 5, 29, 100
8, 2940, Note_on_c, 5, 29, 0
8, 2940, Note_on_c, 5, 29, 100
8, 3000, Note_on_c, 5, 29, 0
8, 3000, Note_on_c, 5, 29, 100
8, 3060, Note_on_c, 5, 29, 0
8, 3060, Note_on_c, 5, 29, 100
8, 3120, Note_on_c, 5, 29, 0
8, 3120, Note_on_c, 5, 32, 100
8, 3150, Note_on_c, 5, 32, 0
8, 3150, Note_on_c, 5, 29, 100
8, 3180, Note_on_c, 5, 29, 0
8, 3180, Note_on_c, 5, 29, 100
8, 3240, Note_on_c, 5, 29, 0
8, 3240, Note_on_c, 5, 29, 100
8, 3300, Note_on_c, 5, 29, 0
8, 3300, Note_on_c, 5, 34, 100
8, 3360, Note_on_c, 5, 34, 0
8, 3360, Note_on_c, 5, 32, 100
8, 3390, Note_on_c, 5, 32, 0
8, 3390, Note_on_c, 5, 29, 100
8, 3420, Note_on_c, 5, 29, 0
8, 3420, Note_on_c, 5, 29, 100
8, 3480, Note_on_c, 5, 29, 0
8, 3480, Note_on_c, 5, 29, 100
8, 3540, Note_on_c, 5, 29, 0
8, 3540, Note_on_c, 5, 29, 100
8, 3600, Note_on_c, 5, 29, 0
8, 3600, Note_on_c, 5, 32, 100
8, 3630, Note_on_c, 5, 32, 0
8, 3630, Note_on_c, 5, 29, 100
8, 3660, Note_on_c, 5, 29, 0
8, 3660, Note_on_c, 5, 29, 100
8, 3690, Note_on_c, 5, 29, 0
8, 3690, Note_on_c, 5, 32, 100
8, 3720, Note_on_c, 5, 32, 0
8, 3720, Note_on_c, 5, 29, 100
8, 3750, Note_on_c, 5, 29, 0
8, 3750, Note_on_c, 5, 29, 100
8, 3780, Note_on_c, 5, 29, 0
8, 3780, Note_on_c, 5, 34, 100
8, 3840, Note_on_c, 5, 34, 0
8, 3840, Note_on_c, 5, 32, 100
8, 3870, Note_on_c, 5, 32, 0
8, 3870, Note_on_c, 5, 29, 100
8, 3900, Note_on_c, 5, 29, 0
8, 3900, Note_on_c, 5, 29, 100
8, 3960, Note_on_c, 5, 29, 0
8, 3960, Note_on_c, 5, 29, 100
8, 4020, Note_on_c, 5, 29, 0
8, 4020, Note_on_c, 5, 28, 100
8, 4080, Note_on_c, 5, 28, 0
8, 4080, Note_on_c, 5, 29, 100
8, 4140, Note_on_c, 5, 29, 0
8, 4140, Note_on_c, 5, 29, 100
8, 4200, Note_on_c, 5, 29, 0
8, 4200, Note_on_c, 5, 29, 100
8, 4260, Note_on_c, 5, 29, 0
8, 4260, Note_on_c, 5, 28, 100
8, 4320, Note_on_c, 5, 28, 0
8, 4320, Note_on_c, 5, 29, 100
8, 4380, Note_on_c, 5, 29, 0
8, 4380, Note_on_c, 5, 29, 100
8, 4440, Note_on_c, 5, 29, 0
8, 4440, Note_on_c, 5, 29, 100
8, 4500, Note_on_c, 5, 29, 0
8, 4500, Note_on_c, 5, 29, 100
8, 4560, Note_on_c, 5, 29, 0
8, 4560, Note_on_c, 5, 32, 100
8, 4590, Note_on_c, 5, 32, 0
8, 4590, Note_on_c, 5, 29, 100
8, 4620, Note_on_c, 5, 29, 0
8, 4620, Note_on_c, 5, 29, 100
8, 4650, Note_on_c, 5, 29, 0
8, 4650, Note_on_c, 5, 32, 100
8, 4680, Note_on_c, 5, 32, 0
8, 4680, Note_on_c, 5, 29, 100
8, 4710, Note_on_c, 5, 29, 0
8, 4710, Note_on_c, 5, 29, 100
8, 4740, Note_on_c, 5, 29, 0
8, 4740, Note_on_c, 5, 34, 100
8, 4800, Note_on_c, 5, 34, 0
8, 4800, Note_on_c, 5, 32, 100
8, 4830, Note_on_c, 5, 32, 0
8, 4830, Note_on_c, 5, 29, 100
8, 4860, Note_on_c, 5, 29, 0
8, 4860, Note_on_c, 5, 29, 100
8, 4920, Note_on_c, 5, 29, 0
8, 4920, Note_on_c, 5, 29, 100
8, 4980, Note_on_c, 5, 29, 0
8, 4980, Note_on_c, 5, 28, 100
8, 5040, Note_on_c, 5, 28, 0
8, 5040, Note_on_c, 5, 29, 100
8, 5100, Note_on_c, 5, 29, 0
8, 5100, Note_on_c, 5, 29, 100
8, 5160, Note_on_c, 5, 29, 0
8, 5160, Note_on_c, 5, 29, 100
8, 5220, Note_on_c, 5, 29, 0
8, 5220, Note_on_c, 5, 28, 100
8, 5280, Note_on_c, 5, 28, 0
8, 5280, Note_on_c, 5, 29, 100
8, 5340, Note_on_c, 5, 29, 0
8, 5340, Note_on_c, 5, 29, 100
8, 5400, Note_on_c, 5, 29, 0
8, 5400, Note_on_c, 5, 29, 100
8, 5460, Note_on_c, 5, 29, 0
8, 5460, Note_on_c, 5, 29, 100
8, 5520, Note_on_c, 5, 29, 0
8, 5520, Note_on_c, 5, 32, 100
8, 5550, Note_on_c, 5, 32, 0
8, 5550, Note_on_c, 5, 29, 100
8, 5580, Note_on_c, 5, 29, 0
8, 5580, Note_on_c, 5, 29, 100
8, 5610, Note_on_c, 5, 29, 0
8, 5610, Note_on_c, 5, 32, 100
8, 5640, Note_on_c, 5, 32, 0
8, 5640, Note_on_c, 5, 29, 100
8, 5670, Note_on_c, 5, 29, 0
8, 5670, Note_on_c, 5, 29, 100
8, 5700, Note_on_c, 5, 29, 0
8, 5700, Note_on_c, 5, 34, 100
8, 5760, Note_on_c, 5, 34, 0
8, 5760, Note_on_c, 5, 32, 100
8, 5790, Note_on_c, 5, 32, 0
8, 5790, Note_on_c, 5, 29, 100
8, 5820, Note_on_c, 5, 29, 0
8, 5820, Note_on_c, 5, 29, 100
8, 5880, Note_on_c, 5, 29, 0
8, 5880, Note_on_c, 5, 29, 100
8, 5940, Note_on_c, 5, 29, 0
8, 5940, Note_on_c, 5, 28, 100
8, 6000, Note_on_c, 5, 28, 0
8, 6000, Note_on_c, 5, 29, 100
8, 6060, Note_on_c, 5, 29, 0
8, 6060, Note_on_c, 5, 29, 100
8, 6120, Note_on_c, 5, 29, 0
8, 6120, Note_on_c, 5, 29, 100
8, 6180, Note_on_c, 5, 29, 0
8, 6180, Note_on_c, 5, 28, 100
8, 6240, Note_on_c, 5, 28, 0
8, 6240, Note_on_c, 5, 29, 100
8, 6300, Note_on_c, 5, 29, 0
8, 6300, Note_on_c, 5, 29, 100
8, 6360, Note_on_c, 5, 29, 0
8, 6360, Note_on_c, 5, 29, 100
8, 6420, Note_on_c, 5, 29, 0
8, 6420, Note_on_c, 5, 29, 100
8, 6480, Note_on_c, 5, 29, 0
8, 6480, Note_on_c, 5, 32, 100
8, 6510, Note_on_c, 5, 32, 0
8, 6510, Note_on_c, 5, 29, 100
8, 6540, Note_on_c, 5, 29, 0
8, 6540, Note_on_c, 5, 29, 100
8, 6570, Note_on_c, 5, 29, 0
8, 6570, Note_on_c, 5, 32, 100
8, 6600, Note_on_c, 5, 32, 0
8, 6600, Note_on_c, 5, 29, 100
8, 6630, Note_on_c, 5, 29, 0
8, 6630, Note_on_c, 5, 29, 100
8, 6660, Note_on_c, 5, 29, 0
8, 6660, Note_on_c, 5, 34, 100
8, 6720, Note_on_c, 5, 34, 0
8, 6720, Note_on_c, 5, 32, 100
8, 6750, Note_on_c, 5, 32, 0
8, 6750, Note_on_c, 5, 29, 100
8, 6780, Note_on_c, 5, 29, 0
8, 6780, Note_on_c, 5, 29, 100
8, 6840, Note_on_c, 5, 29, 0
8, 6840, Note_on_c, 5, 29, 100
8, 6900, Note_on_c, 5, 29, 0
8, 6900, Note_on_c, 5, 29, 100
8, 6960, Note_on_c, 5, 29, 0
8, 6960, Note_on_c, 5, 32, 100
8, 6990, Note_on_c, 5, 32, 0
8, 6990, Note_on_c, 5, 29, 100
8, 7020, Note_on_c, 5, 29, 0
8, 7020, Note_on_c, 5, 29, 100
8, 7050, Note_on_c, 5, 29, 0
8, 7050, Note_on_c, 5, 32, 100
8, 7080, Note_on_c, 5, 32, 0
8, 7080, Note_on_c, 5, 29, 100
8, 7110, Note_on_c, 5, 29, 0
8, 7110, Note_on_c, 5, 29, 100
8, 7140, Note_on_c, 5, 29, 0
8, 7140, Note_on_c, 5, 34, 100
8, 7200, Note_on_c, 5, 34, 0
8, 7200, Note_on_c, 5, 32, 100
8, 7230, Note_on_c, 5, 32, 0
8, 7230, Note_on_c, 5, 29, 100
8, 7260, Note_on_c, 5, 29, 0
8, 7260, Note_on_c, 5, 29, 100
8, 7320, Note_on_c, 5, 29, 0
8, 7320, Note_on_c, 5, 29, 100
8, 7380, Note_on_c, 5, 29, 0
8, 7380, Note_on_c, 5, 28, 100
8, 7440, Note_on_c, 5, 28, 0
8, 7440, Note_on_c, 5, 29, 100
8, 7500, Note_on_c, 5, 29, 0
8, 7500, Note_on_c, 5, 29, 100
8, 7560, Note_on_c, 5, 29, 0
8, 7560, Note_on_c, 5, 29, 100
8, 7620, Note_on_c, 5, 29, 0
8, 7620, Note_on_c, 5, 28, 100
8, 7680, Note_on_c, 5, 28, 0
8, 7680, Note_on_c, 5, 29, 100
8, 7740, Note_on_c, 5, 29, 0
8, 7740, Note_on_c, 5, 29, 100
8, 7800, Note_on_c, 5, 29, 0
8, 7800, Note_on_c, 5, 29, 100
8, 7860, Note_on_c, 5, 29, 0
8, 7860, Note_on_c, 5, 29, 100
8, 7920, Note_on_c, 5, 29, 0
8, 7920, Note_on_c, 5, 32, 100
8, 7950, Note_on_c, 5, 32, 0
8, 7950, Note_on_c, 5, 29, 100
8, 7980, Note_on_c, 5, 29, 0
8, 7980, Note_on_c, 5, 29, 100
8, 8010, Note_on_c, 5, 29, 0
8, 8010, Note_on_c, 5, 32, 100
8, 8040, Note_on_c, 5, 32, 0
8, 8040, Note_on_c, 5, 29, 100
8, 8070, Note_on_c, 5, 29, 0
8, 8070, Note_on_c, 5, 29, 100
8, 8100, Note_on_c, 5, 29, 0
8, 8100, Note_on_c, 5, 34, 100
8, 8160, Note_on_c, 5, 34, 0
8, 8160, Note_on_c, 5, 32, 100
8, 8190, Note_on_c, 5, 32, 0
8, 8190, Note_on_c, 5, 29, 100
8, 8220, Note_on_c, 5, 29, 0
8, 8220, Note_on_c, 5, 29, 100
8, 8280, Note_on_c, 5, 29, 0
8, 8280, Note_on_c, 5, 29, 100
8, 8340, Note_on_c, 5, 29, 0
8, 8340, Note_on_c, 5, 28, 100
8, 8400, Note_on_c, 5, 28, 0
8, 8400, Note_on_c, 5, 29, 100
8, 8460, Note_on_c, 5, 29, 0
8, 8460, Note_on_c, 5, 29, 100
8, 8520, Note_on_c, 5, 29, 0
8, 8520, Note_on_c, 5, 29, 100
8, 8580, Note_on_c, 5, 29, 0
8, 8580, Note_on_c, 5, 28, 100
8, 8640, Note_on_c, 5, 28, 0
8, 8640, Note_on_c, 5, 32, 100
8, 8670, Note_on_c, 5, 32, 0
8, 8670, Note_on_c, 5, 29, 100
8, 8700, Note_on_c, 5, 29, 0
8, 8700, Note_on_c, 5, 29, 100
8, 8760, Note_on_c, 5, 29, 0
8, 8760, Note_on_c, 5, 29, 100
8, 8820, Note_on_c, 5, 29, 0
8, 8820, Note_on_c, 5, 28, 100
8, 8880, Note_on_c, 5, 28, 0
8, 8880, Note_on_c, 5, 29, 100
8, 8940, Note_on_c, 5, 29, 0
8, 8940, Note_on_c, 5, 29, 100
8, 9000, Note_on_c, 5, 29, 0
8, 9000, Note_on_c, 5, 29, 100
8, 9060, Note_on_c, 5, 29, 0
8, 9060, Note_on_c, 5, 28, 100
8, 9120, Note_on_c, 5, 28, 0
8, 9120, Note_on_c, 5, 32, 100
8, 9150, Note_on_c, 5, 32, 0
8, 9150, Note_on_c, 5, 29, 100
8, 9180, Note_on_c, 5, 29, 0
8, 9180, Note_on_c, 5, 29, 100
8, 9240, Note_on_c, 5, 29, 0
8, 9240, Note_on_c, 5, 29, 100
8, 9300, Note_on_c, 5, 29, 0
8, 9300, Note_on_c, 5, 28, 100
8, 9360, Note_on_c, 5, 28, 0
8, 9360, Note_on_c, 5, 29, 100
8, 9420, Note_on_c, 5, 29, 0
8, 9420, Note_on_c, 5, 29, 100
8, 9480, Note_on_c, 5, 29, 0
8, 9480, Note_on_c, 5, 29, 100
8, 9540, Note_on_c, 5, 29, 0
8, 9540, Note_on_c, 5, 28, 100
8, 9600, Note_on_c, 5, 28, 0
8, 9600, Note_on_c, 5, 29, 100
8, 9660, Note_on_c, 5, 29, 0
8, 9660, Note_on_c, 5, 29, 100
8, 9720, Note_on_c, 5, 29, 0
8, 9720, Note_on_c, 5, 29, 100
8, 9780, Note_on_c, 5, 29, 0
8, 9780, Note_on_c, 5, 29, 100
8, 9840, Note_on_c, 5, 29, 0
8, 9840, Note_on_c, 5, 32, 100
8, 9870, Note_on_c, 5, 32, 0
8, 9870, Note_on_c, 5, 29, 100
8, 9900, Note_on_c, 5, 29, 0
8, 9900, Note_on_c, 5, 29, 100
8, 9930, Note_on_c, 5, 29, 0
8, 9930, Note_on_c, 5, 32, 100
8, 9960, Note_on_c, 5, 32, 0
8, 9960, Note_on_c, 5, 29, 100
8, 9990, Note_on_c, 5, 29, 0
8, 9990, Note_on_c, 5, 29, 100
8, 10020, Note_on_c, 5, 29, 0
8, 10020, Note_on_c, 5, 34, 100
8, 10080, Note_on_c, 5, 34, 0
8, 10080, Note_on_c, 5, 29, 100
8, 10140, Note_on_c, 5, 29, 0
8, 10140, Note_on_c, 5, 29, 100
8, 10200, Note_on_c, 5, 29, 0
8, 10200, Note_on_c, 5, 29, 100
8, 10260, Note_on_c, 5, 29, 0
8, 10260, Note_on_c, 5, 29, 100
8, 10320, Note_on_c, 5, 29, 0
8, 10320, Note_on_c, 5, 32, 100
8, 10350, Note_on_c, 5, 32, 0
8, 10350, Note_on_c, 5, 29, 100
8, 10380, Note_on_c, 5, 29, 0
8, 10380, Note_on_c, 5, 29, 100
8, 10410, Note_on_c, 5, 29, 0
8, 10410, Note_on_c, 5, 32, 100
8, 10440, Note_on_c, 5, 32, 0
8, 10440, Note_on_c, 5, 29, 100
8, 10470, Note_on_c, 5, 29, 0
8, 10470, Note_on_c, 5, 29, 100
8, 10500, Note_on_c, 5, 29, 0
8, 10500, Note_on_c, 5, 34, 100
8, 10560, Note_on_c, 5, 34, 0
8, 10560, Note_on_c, 5, 32, 100
8, 10590, Note_on_c, 5, 32, 0
8, 10590, Note_on_c, 5, 32, 100
8, 10620, Note_on_c, 5, 32, 0
8, 10620, Note_on_c, 5, 32, 100
8, 10650, Note_on_c, 5, 32, 0
8, 10650, Note_on_c, 5, 32, 100
8, 10680, Note_on_c, 5, 32, 0
8, 10680, Note_on_c, 5, 32, 100
8, 10710, Note_on_c, 5, 32, 0
8, 10740, Note_on_c, 5, 34, 100
8, 10770, Note_on_c, 5, 34, 0
8, 10770, Note_on_c, 5, 34, 100
8, 10800, Note_on_c, 5, 34, 0
8, 10800, Note_on_c, 5, 34, 100
8, 10830, Note_on_c, 5, 34, 0
8, 10830, Note_on_c, 5, 34, 100
8, 10860, Note_on_c, 5, 34, 0
8, 10860, Note_on_c, 5, 34, 100
8, 10890, Note_on_c, 5, 34, 0
8, 10890, Note_on_c, 5, 34, 100
8, 10920, Note_on_c, 5, 34, 0
8, 10920, Note_on_c, 5, 37, 100
8, 10950, Note_on_c, 5, 37, 0
8, 10950, Note_on_c, 5, 37, 100
8, 11010, Note_on_c, 5, 37, 0
8, 11010, Note_on_c, 5, 39, 100
8, 11040, Note_on_c, 5, 39, 0
8, 11040, Note_on_c, 5, 27, 100
8, 11070, Note_on_c, 5, 27, 0
8, 11070, Note_on_c, 5, 32, 100
8, 11160, Note_on_c, 5, 32, 0
8, 11160, Note_on_c, 5, 27, 100
8, 11190, Note_on_c, 5, 27, 0
8, 11190, Note_on_c, 5, 29, 100
8, 11280, Note_on_c, 5, 29, 0
8, 11280, Note_on_c, 5, 27, 100
8, 11310, Note_on_c, 5, 27, 0
8, 11310, Note_on_c, 5, 32, 100
8, 11400, Note_on_c, 5, 32, 0
8, 11400, Note_on_c, 5, 27, 100
8, 11430, Note_on_c, 5, 27, 0
8, 11430, Note_on_c, 5, 29, 100
8, 11460, Note_on_c, 5, 29, 0
8, 11460, Note_on_c, 5, 34, 100
8, 11490, Note_on_c, 5, 34, 0
8, 11490, Note_on_c, 5, 32, 100
8, 11520, Note_on_c, 5, 32, 0
8, 11520, Note_on_c, 5, 32, 100
8, 11550, Note_on_c, 5, 32, 0
8, 11550, Note_on_c, 5, 32, 100
8, 11580, Note_on_c, 5, 32, 0
8, 11580, Note_on_c, 5, 32, 100
8, 11610, Note_on_c, 5, 32, 0
8, 11610, Note_on_c, 5, 32, 100
8, 11640, Note_on_c, 5, 32, 0
8, 11640, Note_on_c, 5, 37, 100
8, 11668, Note_on_c, 5, 32, 100
8, 11670, Note_on_c, 5, 37, 0
8, 11728, Note_on_c, 5, 32, 0
8, 11730, Note_on_c, 5, 34, 100
8, 11760, Note_on_c, 5, 34, 0
8, 11760, Note_on_c, 5, 34, 100
8, 11790, Note_on_c, 5, 34, 0
8, 11790, Note_on_c, 5, 34, 100
8, 11820, Note_on_c, 5, 34, 0
8, 11820, Note_on_c, 5, 34, 100
8, 11850, Note_on_c, 5, 34, 0
8, 11850, Note_on_c, 5, 34, 100
8, 11880, Note_on_c, 5, 34, 0
8, 11910, Note_on_c, 5, 34, 100
8, 11940, Note_on_c, 5, 34, 0
8, 11940, Note_on_c, 5, 36, 100
8, 11970, Note_on_c, 5, 36, 0
8, 11970, Note_on_c, 5, 39, 100
8, 12000, Note_on_c, 5, 39, 0
8, 12000, Note_on_c, 5, 27, 100
8, 12030, Note_on_c, 5, 27, 0
8, 12030, Note_on_c, 5, 32, 100
8, 12120, Note_on_c, 5, 32, 0
8, 12120, Note_on_c, 5, 27, 100
8, 12150, Note_on_c, 5, 27, 0
8, 12150, Note_on_c, 5, 29, 100
8, 12240, Note_on_c, 5, 29, 0
8, 12240, Note_on_c, 5, 27, 100
8, 12270, Note_on_c, 5, 27, 0
8, 12270, Note_on_c, 5, 32, 100
8, 12360, Note_on_c, 5, 32, 0
8, 12360, Note_on_c, 5, 27, 100
8, 12390, Note_on_c, 5, 27, 0
8, 12390, Note_on_c, 5, 29, 100
8, 12959, Note_on_c, 5, 29, 0
8, 12960, Note_on_c, 5, 32, 100
8, 12990, Note_on_c, 5, 32, 0
8, 12990, Note_on_c, 5, 29, 100
8, 13020, Note_on_c, 5, 29, 0
8, 13020, Note_on_c, 5, 29, 100
8, 13080, Note_on_c, 5, 29, 0
8, 13080, Note_on_c, 5, 29, 100
8, 13140, Note_on_c, 5, 29, 0
8, 13140, Note_on_c, 5, 29, 100
8, 13200, Note_on_c, 5, 29, 0
8, 13200, Note_on_c, 5, 32, 100
8, 13230, Note_on_c, 5, 32, 0
8, 13230, Note_on_c, 5, 29, 100
8, 13260, Note_on_c, 5, 29, 0
8, 13260, Note_on_c, 5, 29, 100
8, 13320, Note_on_c, 5, 29, 0
8, 13320, Note_on_c, 5, 29, 100
8, 13380, Note_on_c, 5, 29, 0
8, 13380, Note_on_c, 5, 34, 100
8, 13440, Note_on_c, 5, 34, 0
8, 13440, Note_on_c, 5, 32, 100
8, 13470, Note_on_c, 5, 32, 0
8, 13470, Note_on_c, 5, 29, 100
8, 13500, Note_on_c, 5, 29, 0
8, 13500, Note_on_c, 5, 29, 100
8, 13560, Note_on_c, 5, 29, 0
8, 13560, Note_on_c, 5, 29, 100
8, 13620, Note_on_c, 5, 29, 0
8, 13620, Note_on_c, 5, 29, 100
8, 13680, Note_on_c, 5, 29, 0
8, 13680, Note_on_c, 5, 32, 100
8, 13710, Note_on_c, 5, 32, 0
8, 13710, Note_on_c, 5, 29, 100
8, 13740, Note_on_c, 5, 29, 0
8, 13740, Note_on_c, 5, 29, 100
8, 13770, Note_on_c, 5, 29, 0
8, 13770, Note_on_c, 5, 32, 100
8, 13800, Note_on_c, 5, 32, 0
8, 13800, Note_on_c, 5, 29, 100
8, 13830, Note_on_c, 5, 29, 0
8, 13830, Note_on_c, 5, 29, 100
8, 13860, Note_on_c, 5, 29, 0
8, 13860, Note_on_c, 5, 34, 100
8, 13920, Note_on_c, 5, 34, 0
8, 13920, Note_on_c, 5, 32, 100
8, 13950, Note_on_c, 5, 32, 0
8, 13950, Note_on_c, 5, 29, 100
8, 13980, Note_on_c, 5, 29, 0
8, 13980, Note_on_c, 5, 29, 100
8, 14040, Note_on_c, 5, 29, 0
8, 14040, Note_on_c, 5, 29, 100
8, 14100, Note_on_c, 5, 29, 0
8, 14100, Note_on_c, 5, 29, 100
8, 14160, Note_on_c, 5, 29, 0
8, 14160, Note_on_c, 5, 32, 100
8, 14190, Note_on_c, 5, 32, 0
8, 14190, Note_on_c, 5, 29, 100
8, 14220, Note_on_c, 5, 29, 0
8, 14220, Note_on_c, 5, 29, 100
8, 14280, Note_on_c, 5, 29, 0
8, 14280, Note_on_c, 5, 29, 100
8, 14340, Note_on_c, 5, 29, 0
8, 14340, Note_on_c, 5, 34, 100
8, 14400, Note_on_c, 5, 34, 0
8, 14400, Note_on_c, 5, 32, 100
8, 14430, Note_on_c, 5, 32, 0
8, 14430, Note_on_c, 5, 29, 100
8, 14460, Note_on_c, 5, 29, 0
8, 14460, Note_on_c, 5, 29, 100
8, 14520, Note_on_c, 5, 29, 0
8, 14520, Note_on_c, 5, 29, 100
8, 14580, Note_on_c, 5, 29, 0
8, 14580, Note_on_c, 5, 29, 100
8, 14640, Note_on_c, 5, 29, 0
8, 14640, Note_on_c, 5, 32, 100
8, 14670, Note_on_c, 5, 32, 0
8, 14670, Note_on_c, 5, 29, 100
8, 14700, Note_on_c, 5, 29, 0
8, 14700, Note_on_c, 5, 29, 100
8, 14730, Note_on_c, 5, 29, 0
8, 14730, Note_on_c, 5, 32, 100
8, 14760, Note_on_c, 5, 32, 0
8, 14760, Note_on_c, 5, 29, 100
8, 14790, Note_on_c, 5, 29, 0
8, 14790, Note_on_c, 5, 29, 100
8, 14820, Note_on_c, 5, 29, 0
8, 14820, Note_on_c, 5, 34, 100
8, 14880, Note_on_c, 5, 34, 0
8, 14880, Note_on_c, 5, 32, 100
8, 14910, Note_on_c, 5, 32, 0
8, 14910, Note_on_c, 5, 29, 100
8, 14940, Note_on_c, 5, 29, 0
8, 14940, Note_on_c, 5, 29, 100
8, 15000, Note_on_c, 5, 29, 0
8, 15000, Note_on_c, 5, 29, 100
8, 15060, Note_on_c, 5, 29, 0
8, 15060, Note_on_c, 5, 28, 100
8, 15120, Note_on_c, 5, 28, 0
8, 15120, Note_on_c, 5, 29, 100
8, 15180, Note_on_c, 5, 29, 0
8, 15180, Note_on_c, 5, 29, 100
8, 15240, Note_on_c, 5, 29, 0
8, 15240, Note_on_c, 5, 29, 100
8, 15300, Note_on_c, 5, 29, 0
8, 15300, Note_on_c, 5, 28, 100
8, 15360, Note_on_c, 5, 28, 0
8, 15360, Note_on_c, 5, 29, 100
8, 15420, Note_on_c, 5, 29, 0
8, 15420, Note_on_c, 5, 29, 100
8, 15480, Note_on_c, 5, 29, 0
8, 15480, Note_on_c, 5, 29, 100
8, 15540, Note_on_c, 5, 29, 0
8, 15540, Note_on_c, 5, 29, 100
8, 15600, Note_on_c, 5, 29, 0
8, 15600, Note_on_c, 5, 32, 100
8, 15630, Note_on_c, 5, 32, 0
8, 15630, Note_on_c, 5, 29, 100
8, 15660, Note_on_c, 5, 29, 0
8, 15660, Note_on_c, 5, 29, 100
8, 15690, Note_on_c, 5, 29, 0
8, 15690, Note_on_c, 5, 32, 100
8, 15720, Note_on_c, 5, 32, 0
8, 15720, Note_on_c, 5, 29, 100
8, 15750, Note_on_c, 5, 29, 0
8, 15750, Note_on_c, 5, 29, 100
8, 15780, Note_on_c, 5, 29, 0
8, 15780, Note_on_c, 5, 34, 100
8, 15840, Note_on_c, 5, 34, 0
8, 15840, Note_on_c, 5, 32, 100
8, 15870, Note_on_c, 5, 32, 0
8, 15870, Note_on_c, 5, 29, 100
8, 15900, Note_on_c, 5, 29, 0
8, 15900, Note_on_c, 5, 29, 100
8, 15960, Note_on_c, 5, 29, 0
8, 15960, Note_on_c, 5, 29, 100
8, 16020, Note_on_c, 5, 29, 0
8, 16020, Note_on_c, 5, 28, 100
8, 16080, Note_on_c, 5, 28, 0
8, 16080, Note_on_c, 5, 29, 100
8, 16140, Note_on_c, 5, 29, 0
8, 16140, Note_on_c, 5, 29, 100
8, 16200, Note_on_c, 5, 29, 0
8, 16200, Note_on_c, 5, 29, 100
8, 16260, Note_on_c, 5, 29, 0
8, 16260, Note_on_c, 5, 28, 100
8, 16320, Note_on_c, 5, 28, 0
8, 16320, Note_on_c, 5, 29, 100
8, 16380, Note_on_c, 5, 29, 0
8, 16380, Note_on_c, 5, 29, 100
8, 16440, Note_on_c, 5, 29, 0
8, 16440, Note_on_c, 5, 29, 100
8, 16500, Note_on_c, 5, 29, 0
8, 16500, Note_on_c, 5, 29, 100
8, 16560, Note_on_c, 5, 29, 0
8, 16560, Note_on_c, 5, 32, 100
8, 16590, Note_on_c, 5, 32, 0
8, 16590, Note_on_c, 5, 29, 100
8, 16620, Note_on_c, 5, 29, 0
8, 16620, Note_on_c, 5, 29, 100
8, 16650, Note_on_c, 5, 29, 0
8, 16650, Note_on_c, 5, 32, 100
8, 16680, Note_on_c, 5, 32, 0
8, 16680, Note_on_c, 5, 29, 100
8, 16710, Note_on_c, 5, 29, 0
8, 16710, Note_on_c, 5, 29, 100
8, 16740, Note_on_c, 5, 29, 0
8, 16740, Note_on_c, 5, 34, 100
8, 16800, Note_on_c, 5, 34, 0
8, 16800, Note_on_c, 5, 32, 100
8, 16830, Note_on_c, 5, 32, 0
8, 16830, Note_on_c, 5, 29, 100
8, 16860, Note_on_c, 5, 29, 0
8, 16860, Note_on_c, 5, 29, 100
8, 16920, Note_on_c, 5, 29, 0
8, 16920, Note_on_c, 5, 29, 100
8, 16980, Note_on_c, 5, 29, 0
8, 16980, Note_on_c, 5, 28, 100
8, 17040, Note_on_c, 5, 28, 0
8, 17040, Note_on_c, 5, 29, 100
8, 17100, Note_on_c, 5, 29, 0
8, 17100, Note_on_c, 5, 29, 100
8, 17160, Note_on_c, 5, 29, 0
8, 17160, Note_on_c, 5, 29, 100
8, 17220, Note_on_c, 5, 29, 0
8, 17220, Note_on_c, 5, 28, 100
8, 17280, Note_on_c, 5, 28, 0
8, 17280, Note_on_c, 5, 29, 100
8, 17340, Note_on_c, 5, 29, 0
8, 17340, Note_on_c, 5, 29, 100
8, 17400, Note_on_c, 5, 29, 0
8, 17400, Note_on_c, 5, 29, 100
8, 17460, Note_on_c, 5, 29, 0
8, 17460, Note_on_c, 5, 29, 100
8, 17520, Note_on_c, 5, 29, 0
8, 17520, Note_on_c, 5, 32, 100
8, 17550, Note_on_c, 5, 32, 0
8, 17550, Note_on_c, 5, 29, 100
8, 17580, Note_on_c, 5, 29, 0
8, 17580, Note_on_c, 5, 29, 100
8, 17610, Note_on_c, 5, 29, 0
8, 17610, Note_on_c, 5, 32, 100
8, 17640, Note_on_c, 5, 32, 0
8, 17640, Note_on_c, 5, 29, 100
8, 17670, Note_on_c, 5, 29, 0
8, 17670, Note_on_c, 5, 29, 100
8, 17700, Note_on_c, 5, 29, 0
8, 17700, Note_on_c, 5, 34, 100
8, 17760, Note_on_c, 5, 34, 0
8, 17760, Note_on_c, 5, 32, 100
8, 17790, Note_on_c, 5, 32, 0
8, 17790, Note_on_c, 5, 29, 100
8, 17820, Note_on_c, 5, 29, 0
8, 17820, Note_on_c, 5, 29, 100
8, 17880, Note_on_c, 5, 29, 0
8, 17880, Note_on_c, 5, 29, 100
8, 17940, Note_on_c, 5, 29, 0
8, 17940, Note_on_c, 5, 29, 100
8, 18000, Note_on_c, 5, 29, 0
8, 18000, Note_on_c, 5, 32, 100
8, 18030, Note_on_c, 5, 32, 0
8, 18030, Note_on_c, 5, 29, 100
8, 18060, Note_on_c, 5, 29, 0
8, 18060, Note_on_c, 5, 29, 100
8, 18090, Note_on_c, 5, 29, 0
8, 18090, Note_on_c, 5, 32, 100
8, 18120, Note_on_c, 5, 32, 0
8, 18120, Note_on_c, 5, 29, 100
8, 18150, Note_on_c, 5, 29, 0
8, 18150, Note_on_c, 5, 29, 100
8, 18180, Note_on_c, 5, 29, 0
8, 18180, Note_on_c, 5, 34, 100
8, 18240, Note_on_c, 5, 34, 0
8, 18240, Note_on_c, 5, 32, 100
8, 18270, Note_on_c, 5, 32, 0
8, 18270, Note_on_c, 5, 29, 100
8, 18300, Note_on_c, 5, 29, 0
8, 18300, Note_on_c, 5, 29, 100
8, 18360, Note_on_c, 5, 29, 0
8, 18360, Note_on_c, 5, 29, 100
8, 18420, Note_on_c, 5, 29, 0
8, 18420, Note_on_c, 5, 28, 100
8, 18480, Note_on_c, 5, 28, 0
8, 18480, Note_on_c, 5, 29, 100
8, 18540, Note_on_c, 5, 29, 0
8, 18540, Note_on_c, 5, 29, 100
8, 18600, Note_on_c, 5, 29, 0
8, 18600, Note_on_c, 5, 29, 100
8, 18660, Note_on_c, 5, 29, 0
8, 18660, Note_on_c, 5, 28, 100
8, 18720, Note_on_c, 5, 28, 0
8, 18720, Note_on_c, 5, 29, 100
8, 18780, Note_on_c, 5, 29, 0
8, 18780, Note_on_c, 5, 29, 100
8, 18840, Note_on_c, 5, 29, 0
8, 18840, Note_on_c, 5, 29, 100
8, 18900, Note_on_c, 5, 29, 0
8, 18900, Note_on_c, 5, 29, 100
8, 18960, Note_on_c, 5, 29, 0
8, 18960, Note_on_c, 5, 32, 100
8, 18990, Note_on_c, 5, 32, 0
8, 18990, Note_on_c, 5, 29, 100
8, 19020, Note_on_c, 5, 29, 0
8, 19020, Note_on_c, 5, 29, 100
8, 19050, Note_on_c, 5, 29, 0
8, 19050, Note_on_c, 5, 32, 100
8, 19080, Note_on_c, 5, 32, 0
8, 19080, Note_on_c, 5, 29, 100
8, 19110, Note_on_c, 5, 29, 0
8, 19110, Note_on_c, 5, 29, 100
8, 19140, Note_on_c, 5, 29, 0
8, 19140, Note_on_c, 5, 34, 100
8, 19200, Note_on_c, 5, 34, 0
8, 19200, Note_on_c, 5, 32, 100
8, 19230, Note_on_c, 5, 32, 0
8, 19230, Note_on_c, 5, 29, 100
8, 19260, Note_on_c, 5, 29, 0
8, 19260, Note_on_c, 5, 29, 100
8, 19320, Note_on_c, 5, 29, 0
8, 19320, Note_on_c, 5, 29, 100
8, 19380, Note_on_c, 5, 29, 0
8, 19380, Note_on_c, 5, 28, 100
8, 19440, Note_on_c, 5, 28, 0
8, 19440, Note_on_c, 5, 29, 100
8, 19500, Note_on_c, 5, 29, 0
8, 19500, Note_on_c, 5, 29, 100
8, 19560, Note_on_c, 5, 29, 0
8, 19560, Note_on_c, 5, 29, 100
8, 19620, Note_on_c, 5, 29, 0
8, 19620, Note_on_c, 5, 28, 100
8, 19680, Note_on_c, 5, 28, 0
8, 19680, Note_on_c, 5, 32, 100
8, 19740, Note_on_c, 5, 32, 0
8, 19740, Note_on_c, 5, 32, 100
8, 19800, Note_on_c, 5, 32, 0
8, 19890, Note_on_c, 5, 34, 100
8, 19920, Note_on_c, 5, 34, 0
8, 19920, Note_on_c, 5, 34, 100
8, 19950, Note_on_c, 5, 34, 0
8, 19950, Note_on_c, 5, 34, 100
8, 19980, Note_on_c, 5, 34, 0
8, 19980, Note_on_c, 5, 34, 100
8, 20010, Note_on_c, 5, 34, 0
8, 20010, Note_on_c, 5, 34, 100
8, 20040, Note_on_c, 5, 34, 0
8, 20040, Note_on_c, 5, 37, 100
8, 20070, Note_on_c, 5, 37, 0
8, 20070, Note_on_c, 5, 37, 100
8, 20130, Note_on_c, 5, 37, 0
8, 20130, Note_on_c, 5, 39, 100
8, 20160, Note_on_c, 5, 39, 0
8, 20160, Note_on_c, 5, 27, 100
8, 20190, Note_on_c, 5, 27, 0
8, 20190, Note_on_c, 5, 32, 100
8, 20280, Note_on_c, 5, 32, 0
8, 20280, Note_on_c, 5, 27, 100
8, 20310, Note_on_c, 5, 27, 0
8, 20310, Note_on_c, 5, 29, 100
8, 20400, Note_on_c, 5, 29, 0
8, 20400, Note_on_c, 5, 27, 100
8, 20430, Note_on_c, 5, 27, 0
8, 20430, Note_on_c, 5, 32, 100
8, 20520, Note_on_c, 5, 32, 0
8, 20520, Note_on_c, 5, 27, 100
8, 20550, Note_on_c, 5, 27, 0
8, 20550, Note_on_c, 5, 29, 100
8, 20580, Note_on_c, 5, 29, 0
8, 20580, Note_on_c, 5, 34, 100
8, 20610, Note_on_c, 5, 34, 0
8, 20610, Note_on_c, 5, 32, 100
8, 20640, Note_on_c, 5, 32, 0
8, 20640, Note_on_c, 5, 32, 100
8, 20670, Note_on_c, 5, 32, 0
8, 20670, Note_on_c, 5, 32, 100
8, 20700, Note_on_c, 5, 32, 0
8, 20700, Note_on_c, 5, 32, 100
8, 20730, Note_on_c, 5, 32, 0
8, 20730, Note_on_c, 5, 32, 100
8, 20760, Note_on_c, 5, 32, 0
8, 20760, Note_on_c, 5, 37, 100
8, 20788, Note_on_c, 5, 32, 100
8, 20790, Note_on_c, 5, 37, 0
8, 20848, Note_on_c, 5, 32, 0
8, 20850, Note_on_c, 5, 34, 100
8, 20880, Note_on_c, 5, 34, 0
8, 20880, Note_on_c, 5, 34, 100
8, 20910, Note_on_c, 5, 34, 0
8, 20910, Note_on_c, 5, 34, 100
8, 20940, Note_on_c, 5, 34, 0
8, 20940, Note_on_c, 5, 34, 100
8, 20970, Note_on_c, 5, 34, 0
8, 20970, Note_on_c, 5, 34, 100
8, 21000, Note_on_c, 5, 34, 0
8, 21030, Note_on_c, 5, 34, 100
8, 21060, Note_on_c, 5, 34, 0
8, 21060, Note_on_c, 5, 36, 100
8, 21090, Note_on_c, 5, 36, 0
8, 21090, Note_on_c, 5, 39, 100
8, 21120, Note_on_c, 5, 39, 0
8, 21120, Note_on_c, 5, 27, 100
8, 21150, Note_on_c, 5, 27, 0
8, 21150, Note_on_c, 5, 32, 100
8, 21240, Note_on_c, 5, 32, 0
8, 21240, Note_on_c, 5, 27, 100
8, 21270, Note_on_c, 5, 27, 0
8, 21270, Note_on_c, 5, 29, 100
8, 21360, Note_on_c, 5, 29, 0
8, 21360, Note_on_c, 5, 27, 100
8, 21390, Note_on_c, 5, 27, 0
8, 21390, Note_on_c, 5, 32, 100
8, 21480, Note_on_c, 5, 32, 0
8, 21480, Note_on_c, 5, 27, 100
8, 21510, Note_on_c, 5, 27, 0
8, 21510, Note_on_c, 5, 29, 100
8, 22559, Note_on_c, 5, 29, 0
8, 22560, Note_on_c, 5, 41, 100
8, 22650, Note_on_c, 5, 41, 0
8, 22650, Note_on_c, 5, 41, 100
8, 22680, Note_on_c, 5, 41, 0
8, 22680, Note_on_c, 5, 41, 100
8, 22800, Note_on_c, 5, 41, 0
8, 22800, Note_on_c, 5, 36, 100
8, 23040, Note_on_c, 5, 36, 0
8, 23040, Note_on_c, 5, 34, 100
8, 23130, Note_on_c, 5, 34, 0
8, 23130, Note_on_c, 5, 34, 100
8, 23160, Note_on_c, 5, 34, 0
8, 23160, Note_on_c, 5, 34, 100
8, 23220, Note_on_c, 5, 34, 0
8, 23220, Note_on_c, 5, 36, 100
8, 23280, Note_on_c, 5, 36, 0
8, 23280, Note_on_c, 5, 39, 100
8, 23340, Note_on_c, 5, 39, 0
8, 23340, Note_on_c, 5, 41, 100
8, 23430, Note_on_c, 5, 41, 0
8, 23430, Note_on_c, 5, 41, 100
8, 23460, Note_on_c, 5, 41, 0
8, 23460, Note_on_c, 5, 41, 100
8, 23490, Note_on_c, 5, 41, 0
8, 23490, Note_on_c, 5, 39, 100
8, 23520, Note_on_c, 5, 39, 0
8, 23520, Note_on_c, 5, 41, 100
8, 23550, Note_on_c, 5, 41, 0
8, 23550, Note_on_c, 5, 41, 100
8, 23580, Note_on_c, 5, 41, 0
8, 23580, Note_on_c, 5, 41, 100
8, 23610, Note_on_c, 5, 41, 0
8, 23610, Note_on_c, 5, 41, 100
8, 23640, Note_on_c, 5, 41, 0
8, 23640, Note_on_c, 5, 41, 100
8, 23700, Note_on_c, 5, 41, 0
8, 23700, Note_on_c, 5, 41, 100
8, 23760, Note_on_c, 5, 41, 0
8, 23760, Note_on_c, 5, 36, 100
8, 23790, Note_on_c, 5, 36, 0
8, 23790, Note_on_c, 5, 36, 100
8, 23820, Note_on_c, 5, 36, 0
8, 23820, Note_on_c, 5, 36, 100
8, 23850, Note_on_c, 5, 36, 0
8, 23850, Note_on_c, 5, 36, 100
8, 23880, Note_on_c, 5, 36, 0
8, 23880, Note_on_c, 5, 36, 100
8, 23940, Note_on_c, 5, 36, 0
8, 23940, Note_on_c, 5, 36, 100
8, 23970, Note_on_c, 5, 36, 0
8, 23970, Note_on_c, 5, 39, 100
8, 24000, Note_on_c, 5, 39, 0
8, 24000, Note_on_c, 5, 41, 100
8, 24060, Note_on_c, 5, 41, 0
8, 24060, Note_on_c, 5, 34, 100
8, 24090, Note_on_c, 5, 34, 0
8, 24090, Note_on_c, 5, 34, 100
8, 24120, Note_on_c, 5, 34, 0
8, 24120, Note_on_c, 5, 41, 100
8, 24180, Note_on_c, 5, 41, 0
8, 24180, Note_on_c, 5, 36, 100
8, 24240, Note_on_c, 5, 36, 0
8, 24240, Note_on_c, 5, 39, 100
8, 24300, Note_on_c, 5, 39, 0
8, 24300, Note_on_c, 5, 36, 100
8, 24330, Note_on_c, 5, 36, 0
8, 24330, Note_on_c, 5, 36, 100
8, 24360, Note_on_c, 5, 36, 0
8, 24360, Note_on_c, 5, 36, 100
8, 24390, Note_on_c, 5, 36, 0
8, 24390, Note_on_c, 5, 36, 100
8, 24420, Note_on_c, 5, 36, 0
8, 24420, Note_on_c, 5, 39, 100
8, 24480, Note_on_c, 5, 39, 0
8, 24480, Note_on_c, 5, 41, 100
8, 24510, Note_on_c, 5, 41, 0
8, 24510, Note_on_c, 5, 41, 100
8, 24540, Note_on_c, 5, 41, 0
8, 24540, Note_on_c, 5, 41, 100
8, 24570, Note_on_c, 5, 41, 0
8, 24570, Note_on_c, 5, 41, 100
8, 24600, Note_on_c, 5, 41, 0
8, 24600, Note_on_c, 5, 41, 100
8, 24660, Note_on_c, 5, 41, 0
8, 24660, Note_on_c, 5, 41, 100
8, 24720, Note_on_c, 5, 41, 0
8, 24720, Note_on_c, 5, 36, 100
8, 24750, Note_on_c, 5, 36, 0
8, 24750, Note_on_c, 5, 36, 100
8, 24780, Note_on_c, 5, 36, 0
8, 24780, Note_on_c, 5, 36, 100
8, 24810, Note_on_c, 5, 36, 0
8, 24810, Note_on_c, 5, 36, 100
8, 24840, Note_on_c, 5, 36, 0
8, 24840, Note_on_c, 5, 36, 100
8, 24930, Note_on_c, 5, 36, 0
8, 24930, Note_on_c, 5, 39, 100
8, 24960, Note_on_c, 5, 39, 0
8, 24960, Note_on_c, 5, 34, 100
8, 24990, Note_on_c, 5, 34, 0
8, 24990, Note_on_c, 5, 34, 100
8, 25020, Note_on_c, 5, 34, 0
8, 25020, Note_on_c, 5, 34, 100
8, 25050, Note_on_c, 5, 34, 0
8, 25050, Note_on_c, 5, 34, 100
8, 25080, Note_on_c, 5, 34, 0
8, 25080, Note_on_c, 5, 34, 100
8, 25140, Note_on_c, 5, 34, 0
8, 25140, Note_on_c, 5, 36, 100
8, 25200, Note_on_c, 5, 36, 0
8, 25200, Note_on_c, 5, 34, 100
8, 25258, Note_on_c, 5, 36, 100
8, 25260, Note_on_c, 5, 34, 0
8, 25378, Note_on_c, 5, 36, 0
8, 25380, Note_on_c, 5, 39, 100
8, 25440, Note_on_c, 5, 39, 0
8, 25440, Note_on_c, 5, 41, 100
8, 25470, Note_on_c, 5, 41, 0
8, 25470, Note_on_c, 5, 36, 100
8, 25500, Note_on_c, 5, 36, 0
8, 25500, Note_on_c, 5, 36, 100
8, 25530, Note_on_c, 5, 36, 0
8, 25530, Note_on_c, 5, 36, 100
8, 25560, Note_on_c, 5, 36, 0
8, 25560, Note_on_c, 5, 36, 100
8, 25620, Note_on_c, 5, 36, 0
8, 25620, Note_on_c, 5, 41, 100
8, 25680, Note_on_c, 5, 41, 0
8, 25680, Note_on_c, 5, 36, 100
8, 25710, Note_on_c, 5, 36, 0
8, 25710, Note_on_c, 5, 36, 100
8, 25740, Note_on_c, 5, 36, 0
8, 25740, Note_on_c, 5, 36, 100
8, 25770, Note_on_c, 5, 36, 0
8, 25770, Note_on_c, 5, 36, 100
8, 25800, Note_on_c, 5, 36, 0
8, 25800, Note_on_c, 5, 36, 100
8, 25920, Note_on_c, 5, 36, 0
8, 25920, Note_on_c, 5, 34, 100
8, 25950, Note_on_c, 5, 34, 0
8, 25950, Note_on_c, 5, 34, 100
8, 25980, Note_on_c, 5, 34, 0
8, 25980, Note_on_c, 5, 34, 100
8, 26010, Note_on_c, 5, 34, 0
8, 26010, Note_on_c, 5, 34, 100
8, 26040, Note_on_c, 5, 34, 0
8, 26040, Note_on_c, 5, 34, 100
8, 26100, Note_on_c, 5, 34, 0
8, 26100, Note_on_c, 5, 36, 100
8, 26160, Note_on_c, 5, 36, 0
8, 26160, Note_on_c, 5, 39, 100
8, 26220, Note_on_c, 5, 39, 0
8, 26220, Note_on_c, 5, 36, 100
8, 26310, Note_on_c, 5, 36, 0
8, 26310, Note_on_c, 5, 34, 100
8, 26340, Note_on_c, 5, 34, 0
8, 26340, Note_on_c, 5, 36, 100
8, 26370, Note_on_c, 5, 36, 0
8, 26370, Note_on_c, 5, 36, 100
8, 26400, Note_on_c, 5, 36, 0
8, 26400, Note_on_c, 5, 36, 100
8, 26430, Note_on_c, 5, 36, 0
8, 26430, Note_on_c, 5, 36, 100
8, 26460, Note_on_c, 5, 36, 0
8, 26460, Note_on_c, 5, 41, 100
8, 26520, Note_on_c, 5, 41, 0
8, 26520, Note_on_c, 5, 36, 100
8, 26580, Note_on_c, 5, 36, 0
8, 26640, Note_on_c, 5, 36, 100
8, 26670, Note_on_c, 5, 36, 0
8, 26670, Note_on_c, 5, 36, 100
8, 26700, Note_on_c, 5, 36, 0
8, 26700, Note_on_c, 5, 36, 100
8, 26760, Note_on_c, 5, 36, 0
8, 26760, Note_on_c, 5, 36, 100
8, 26880, Note_on_c, 5, 36, 0
8, 26880, Note_on_c, 5, 34, 100
8, 26910, Note_on_c, 5, 34, 0
8, 26910, Note_on_c, 5, 34, 100
8, 26940, Note_on_c, 5, 34, 0
8, 26940, Note_on_c, 5, 34, 100
8, 26970, Note_on_c, 5, 34, 0
8, 26970, Note_on_c, 5, 34, 100
8, 27000, Note_on_c, 5, 34, 0
8, 27000, Note_on_c, 5, 34, 100
8, 27060, Note_on_c, 5, 34, 0
8, 27060, Note_on_c, 5, 36, 100
8, 27120, Note_on_c, 5, 36, 0
8, 27120, Note_on_c, 5, 39, 100
8, 27180, Note_on_c, 5, 39, 0
8, 27180, Note_on_c, 5, 36, 100
8, 27329, Note_on_c, 5, 36, 0
8, 27330, Note_on_c, 5, 40, 100
8, 27360, Note_on_c, 5, 40, 0
8, 27360, Note_on_c, 5, 32, 100
8, 27390, Note_on_c, 5, 32, 0
8, 27390, Note_on_c, 5, 29, 100
8, 27420, Note_on_c, 5, 29, 0
8, 27420, Note_on_c, 5, 29, 100
8, 27450, Note_on_c, 5, 29, 0
8, 27450, Note_on_c, 5, 29, 100
8, 27480, Note_on_c, 5, 29, 0
8, 27480, Note_on_c, 5, 29, 100
8, 27540, Note_on_c, 5, 29, 0
8, 27540, Note_on_c, 5, 28, 100
8, 27600, Note_on_c, 5, 28, 0
8, 27600, Note_on_c, 5, 29, 100
8, 27660, Note_on_c, 5, 29, 0
8, 27660, Note_on_c, 5, 29, 100
8, 27720, Note_on_c, 5, 29, 0
8, 27720, Note_on_c, 5, 29, 100
8, 27780, Note_on_c, 5, 29, 0
8, 27780, Note_on_c, 5, 28, 100
8, 27840, Note_on_c, 5, 28, 0
8, 27840, Note_on_c, 5, 29, 100
8, 27900, Note_on_c, 5, 29, 0
8, 27900, Note_on_c, 5, 29, 100
8, 27960, Note_on_c, 5, 29, 0
8, 27960, Note_on_c, 5, 29, 100
8, 28020, Note_on_c, 5, 29, 0
8, 28020, Note_on_c, 5, 29, 100
8, 28080, Note_on_c, 5, 29, 0
8, 28080, Note_on_c, 5, 32, 100
8, 28110, Note_on_c, 5, 32, 0
8, 28110, Note_on_c, 5, 29, 100
8, 28140, Note_on_c, 5, 29, 0
8, 28140, Note_on_c, 5, 29, 100
8, 28170, Note_on_c, 5, 29, 0
8, 28170, Note_on_c, 5, 32, 100
8, 28200, Note_on_c, 5, 32, 0
8, 28200, Note_on_c, 5, 29, 100
8, 28230, Note_on_c, 5, 29, 0
8, 28230, Note_on_c, 5, 29, 100
8, 28260, Note_on_c, 5, 29, 0
8, 28260, Note_on_c, 5, 34, 100
8, 28320, Note_on_c, 5, 34, 0
8, 28320, Note_on_c, 5, 32, 100
8, 28350, Note_on_c, 5, 32, 0
8, 28350, Note_on_c, 5, 29, 100
8, 28380, Note_on_c, 5, 29, 0
8, 28380, Note_on_c, 5, 29, 100
8, 28410, Note_on_c, 5, 29, 0
8, 28410, Note_on_c, 5, 29, 100
8, 28440, Note_on_c, 5, 29, 0
8, 28440, Note_on_c, 5, 29, 100
8, 28500, Note_on_c, 5, 29, 0
8, 28500, Note_on_c, 5, 28, 100
8, 28560, Note_on_c, 5, 28, 0
8, 28560, Note_on_c, 5, 29, 100
8, 28620, Note_on_c, 5, 29, 0
8, 28620, Note_on_c, 5, 29, 100
8, 28680, Note_on_c, 5, 29, 0
8, 28680, Note_on_c, 5, 29, 100
8, 28740, Note_on_c, 5, 29, 0
8, 28740, Note_on_c, 5, 28, 100
8, 28800, Note_on_c, 5, 28, 0
8, 28800, Note_on_c, 5, 29, 100
8, 28860, Note_on_c, 5, 29, 0
8, 28860, Note_on_c, 5, 29, 100
8, 28920, Note_on_c, 5, 29, 0
8, 28920, Note_on_c, 5, 29, 100
8, 28980, Note_on_c, 5, 29, 0
8, 28980, Note_on_c, 5, 29, 100
8, 29040, Note_on_c, 5, 29, 0
8, 29040, Note_on_c, 5, 32, 100
8, 29070, Note_on_c, 5, 32, 0
8, 29070, Note_on_c, 5, 29, 100
8, 29100, Note_on_c, 5, 29, 0
8, 29100, Note_on_c, 5, 29, 100
8, 29130, Note_on_c, 5, 29, 0
8, 29130, Note_on_c, 5, 32, 100
8, 29160, Note_on_c, 5, 32, 0
8, 29160, Note_on_c, 5, 29, 100
8, 29190, Note_on_c, 5, 29, 0
8, 29190, Note_on_c, 5, 29, 100
8, 29220, Note_on_c, 5, 29, 0
8, 29220, Note_on_c, 5, 34, 100
8, 29280, Note_on_c, 5, 34, 0
8, 29280, Note_on_c, 5, 32, 100
8, 29310, Note_on_c, 5, 32, 0
8, 29310, Note_on_c, 5, 29, 100
8, 29340, Note_on_c, 5, 29, 0
8, 29340, Note_on_c, 5, 29, 100
8, 29370, Note_on_c, 5, 29, 0
8, 29370, Note_on_c, 5, 29, 100
8, 29400, Note_on_c, 5, 29, 0
8, 29400, Note_on_c, 5, 29, 100
8, 29460, Note_on_c, 5, 29, 0
8, 29460, Note_on_c, 5, 28, 100
8, 29520, Note_on_c, 5, 28, 0
8, 29520, Note_on_c, 5, 29, 100
8, 29580, Note_on_c, 5, 29, 0
8, 29580, Note_on_c, 5, 29, 100
8, 29640, Note_on_c, 5, 29, 0
8, 29640, Note_on_c, 5, 29, 100
8, 29700, Note_on_c, 5, 29, 0
8, 29700, Note_on_c, 5, 28, 100
8, 29760, Note_on_c, 5, 28, 0
8, 29760, Note_on_c, 5, 29, 100
8, 29820, Note_on_c, 5, 29, 0
8, 29820, Note_on_c, 5, 29, 100
8, 29880, Note_on_c, 5, 29, 0
8, 29880, Note_on_c, 5, 29, 100
8, 29940, Note_on_c, 5, 29, 0
8, 29940, Note_on_c, 5, 29, 100
8, 30000, Note_on_c, 5, 29, 0
8, 30000, Note_on_c, 5, 32, 100
8, 30030, Note_on_c, 5, 32, 0
8, 30030, Note_on_c, 5, 29, 100
8, 30060, Note_on_c, 5, 29, 0
8, 30060, Note_on_c, 5, 29, 100
8, 30090, Note_on_c, 5, 29, 0
8, 30090, Note_on_c, 5, 32, 100
8, 30120, Note_on_c, 5, 32, 0
8, 30120, Note_on_c, 5, 29, 100
8, 30150, Note_on_c, 5, 29, 0
8, 30150, Note_on_c, 5, 29, 100
8, 30180, Note_on_c, 5, 29, 0
8, 30180, Note_on_c, 5, 34, 100
8, 30240, Note_on_c, 5, 34, 0
8, 30240, Note_on_c, 5, 32, 100
8, 30270, Note_on_c, 5, 32, 0
8, 30270, Note_on_c, 5, 29, 100
8, 30300, Note_on_c, 5, 29, 0
8, 30300, Note_on_c, 5, 29, 100
8, 30360, Note_on_c, 5, 29, 0
8, 30360, Note_on_c, 5, 29, 100
8, 30420, Note_on_c, 5, 29, 0
8, 30420, Note_on_c, 5, 29, 100
8, 30480, Note_on_c, 5, 29, 0
8, 30480, Note_on_c, 5, 32, 100
8, 30510, Note_on_c, 5, 32, 0
8, 30510, Note_on_c, 5, 29, 100
8, 30540, Note_on_c, 5, 29, 0
8, 30540, Note_on_c, 5, 29, 100
8, 30570, Note_on_c, 5, 29, 0
8, 30570, Note_on_c, 5, 32, 100
8, 30600, Note_on_c, 5, 32, 0
8, 30600, Note_on_c, 5, 29, 100
8, 30630, Note_on_c, 5, 29, 0
8, 30630, Note_on_c, 5, 29, 100
8, 30660, Note_on_c, 5, 29, 0
8, 30660, Note_on_c, 5, 32, 100
8, 30720, Note_on_c, 5, 32, 0
8, 30720, Note_on_c, 5, 32, 100
8, 30750, Note_on_c, 5, 32, 0
8, 30750, Note_on_c, 5, 29, 100
8, 30780, Note_on_c, 5, 29, 0
8, 30780, Note_on_c, 5, 29, 100
8, 30840, Note_on_c, 5, 29, 0
8, 30840, Note_on_c, 5, 29, 100
8, 30900, Note_on_c, 5, 29, 0
8, 30900, Note_on_c, 5, 28, 100
8, 30960, Note_on_c, 5, 28, 0
8, 30960, Note_on_c, 5, 29, 100
8, 31020, Note_on_c, 5, 29, 0
8, 31020, Note_on_c, 5, 29, 100
8, 31080, Note_on_c, 5, 29, 0
8, 31080, Note_on_c, 5, 29, 100
8, 31140, Note_on_c, 5, 29, 0
8, 31140, Note_on_c, 5, 28, 100
8, 31200, Note_on_c, 5, 28, 0
8, 31200, Note_on_c, 5, 29, 100
8, 31260, Note_on_c, 5, 29, 0
8, 31260, Note_on_c, 5, 29, 100
8, 31320, Note_on_c, 5, 29, 0
8, 31320, Note_on_c, 5, 29, 100
8, 31380, Note_on_c, 5, 29, 0
8, 31380, Note_on_c, 5, 29, 100
8, 31440, Note_on_c, 5, 29, 0
8, 31440, Note_on_c, 5, 32, 100
8, 31470, Note_on_c, 5, 32, 0
8, 31470, Note_on_c, 5, 29, 100
8, 31500, Note_on_c, 5, 29, 0
8, 31500, Note_on_c, 5, 29, 100
8, 31530, Note_on_c, 5, 29, 0
8, 31530, Note_on_c, 5, 32, 100
8, 31560, Note_on_c, 5, 32, 0
8, 31560, Note_on_c, 5, 29, 100
8, 31590, Note_on_c, 5, 29, 0
8, 31590, Note_on_c, 5, 29, 100
8, 31620, Note_on_c, 5, 29, 0
8, 31620, Note_on_c, 5, 34, 100
8, 31680, Note_on_c, 5, 34, 0
8, 31680, Note_on_c, 5, 32, 100
8, 31710, Note_on_c, 5, 32, 0
8, 31710, Note_on_c, 5, 29, 100
8, 31740, Note_on_c, 5, 29, 0
8, 31740, Note_on_c, 5, 29, 100
8, 31800, Note_on_c, 5, 29, 0
8, 31800, Note_on_c, 5, 29, 100
8, 31860, Note_on_c, 5, 29, 0
8, 31860, Note_on_c, 5, 28, 100
8, 31920, Note_on_c, 5, 28, 0
8, 31920, Note_on_c, 5, 29, 100
8, 31980, Note_on_c, 5, 29, 0
8, 31980, Note_on_c, 5, 29, 100
8, 32040, Note_on_c, 5, 29, 0
8, 32040, Note_on_c, 5, 29, 100
8, 32100, Note_on_c, 5, 29, 0
8, 32100, Note_on_c, 5, 28, 100
8, 32160, Note_on_c, 5, 28, 0
8, 32160, Note_on_c, 5, 32, 100
8, 32190, Note_on_c, 5, 32, 0
8, 32190, Note_on_c, 5, 29, 100
8, 32220, Note_on_c, 5, 29, 0
8, 32220, Note_on_c, 5, 29, 100
8, 32280, Note_on_c, 5, 29, 0
8, 32280, Note_on_c, 5, 29, 100
8, 32340, Note_on_c, 5, 29, 0
8, 32340, Note_on_c, 5, 28, 100
8, 32400, Note_on_c, 5, 28, 0
8, 32400, Note_on_c, 5, 29, 100
8, 32460, Note_on_c, 5, 29, 0
8, 32460, Note_on_c, 5, 29, 100
8, 32520, Note_on_c, 5, 29, 0
8, 32520, Note_on_c, 5, 29, 100
8, 32580, Note_on_c, 5, 29, 0
8, 32580, Note_on_c, 5, 28, 100
8, 32640, Note_on_c, 5, 28, 0
8, 32640, Note_on_c, 5, 32, 100
8, 32670, Note_on_c, 5, 32, 0
8, 32670, Note_on_c, 5, 29, 100
8, 32700, Note_on_c, 5, 29, 0
8, 32700, Note_on_c, 5, 29, 100
8, 32760, Note_on_c, 5, 29, 0
8, 32760, Note_on_c, 5, 29, 100
8, 32820, Note_on_c, 5, 29, 0
8, 32820, Note_on_c, 5, 28, 100
8, 32880, Note_on_c, 5, 28, 0
8, 32880, Note_on_c, 5, 29, 100
8, 32940, Note_on_c, 5, 29, 0
8, 32940, Note_on_c, 5, 29, 100
8, 33000, Note_on_c, 5, 29, 0
8, 33000, Note_on_c, 5, 29, 100
8, 33060, Note_on_c, 5, 29, 0
8, 33060, Note_on_c, 5, 28, 100
8, 33120, Note_on_c, 5, 28, 0
8, 33120, Note_on_c, 5, 29, 100
8, 33180, Note_on_c, 5, 29, 0
8, 33180, Note_on_c, 5, 29, 100
8, 33240, Note_on_c, 5, 29, 0
8, 33240, Note_on_c, 5, 29, 100
8, 33300, Note_on_c, 5, 29, 0
8, 33300, Note_on_c, 5, 29, 100
8, 33360, Note_on_c, 5, 29, 0
8, 33360, Note_on_c, 5, 32, 100
8, 33390, Note_on_c, 5, 32, 0
8, 33390, Note_on_c, 5, 29, 100
8, 33420, Note_on_c, 5, 29, 0
8, 33420, Note_on_c, 5, 29, 100
8, 33450, Note_on_c, 5, 29, 0
8, 33450, Note_on_c, 5, 32, 100
8, 33480, Note_on_c, 5, 32, 0
8, 33480, Note_on_c, 5, 29, 100
8, 33510, Note_on_c, 5, 29, 0
8, 33510, Note_on_c, 5, 29, 100
8, 33540, Note_on_c, 5, 29, 0
8, 33540, Note_on_c, 5, 34, 100
8, 33600, Note_on_c, 5, 34, 0
8, 33600, Note_on_c, 5, 32, 100
8, 33630, Note_on_c, 5, 32, 0
8, 33630, Note_on_c, 5, 29, 100
8, 33660, Note_on_c, 5, 29, 0
8, 33660, Note_on_c, 5, 29, 100
8, 33720, Note_on_c, 5, 29, 0
8, 33720, Note_on_c, 5, 29, 100
8, 33780, Note_on_c, 5, 29, 0
8, 33780, Note_on_c, 5, 29, 100
8, 33840, Note_on_c, 5, 29, 0
8, 33840, Note_on_c, 5, 32, 100
8, 33870, Note_on_c, 5, 32, 0
8, 33870, Note_on_c, 5, 29, 100
8, 33900, Note_on_c, 5, 29, 0
8, 33900, Note_on_c, 5, 29, 100
8, 33930, Note_on_c, 5, 29, 0
8, 33930, Note_on_c, 5, 32, 100
8, 33960, Note_on_c, 5, 32, 0
8, 33960, Note_on_c, 5, 29, 100
8, 33990, Note_on_c, 5, 29, 0
8, 33990, Note_on_c, 5, 29, 100
8, 34020, Note_on_c, 5, 29, 0
8, 34020, Note_on_c, 5, 28, 100
8, 34080, Note_on_c, 5, 28, 0
8, 34080, Note_on_c, 5, 32, 100
8, 34140, Note_on_c, 5, 32, 0
8, 34140, Note_on_c, 5, 32, 100
8, 34200, Note_on_c, 5, 32, 0
8, 34260, Note_on_c, 5, 32, 100
8, 34290, Note_on_c, 5, 32, 0
8, 34290, Note_on_c, 5, 32, 100
8, 34320, Note_on_c, 5, 32, 0
8, 34320, Note_on_c, 5, 34, 100
8, 34350, Note_on_c, 5, 34, 0
8, 34350, Note_on_c, 5, 34, 100
8, 34380, Note_on_c, 5, 34, 0
8, 34380, Note_on_c, 5, 22, 100
8, 34410, Note_on_c, 5, 22, 0
8, 34410, Note_on_c, 5, 22, 100
8, 34440, Note_on_c, 5, 22, 0
8, 34440, Note_on_c, 5, 22, 100
8, 34500, Note_on_c, 5, 22, 0
8, 34500, Note_on_c, 5, 22, 100
8, 34530, Note_on_c, 5, 22, 0
8, 34530, Note_on_c, 5, 24, 100
8, 34560, Note_on_c, 5, 24, 0
8, 34560, Note_on_c, 5, 27, 100
8, 34590, Note_on_c, 5, 27, 0
8, 34590, Note_on_c, 5, 27, 100
8, 34620, Note_on_c, 5, 27, 0
8, 34680, Note_on_c, 5, 27, 100
8, 34710, Note_on_c, 5, 27, 0
8, 34710, Note_on_c, 5, 29, 100
8, 34800, Note_on_c, 5, 29, 0
8, 34800, Note_on_c, 5, 27, 100
8, 34830, Note_on_c, 5, 27, 0
8, 34830, Note_on_c, 5, 32, 100
8, 34920, Note_on_c, 5, 32, 0
8, 34920, Note_on_c, 5, 27, 100
8, 34950, Note_on_c, 5, 27, 0
8, 34950, Note_on_c, 5, 29, 100
8, 34980, Note_on_c, 5, 29, 0
8, 34980, Note_on_c, 5, 34, 100
8, 35010, Note_on_c, 5, 34, 0
8, 35010, Note_on_c, 5, 32, 100
8, 35040, Note_on_c, 5, 32, 0
8, 35040, Note_on_c, 5, 32, 100
8, 35070, Note_on_c, 5, 32, 0
8, 35070, Note_on_c, 5, 32, 100
8, 35100, Note_on_c, 5, 32, 0
8, 35100, Note_on_c, 5, 32, 100
8, 35130, Note_on_c, 5, 32, 0
8, 35130, Note_on_c, 5, 32, 100
8, 35160, Note_on_c, 5, 32, 0
8, 35160, Note_on_c, 5, 37, 100
8, 35188, Note_on_c, 5, 32, 100
8, 35190, Note_on_c, 5, 37, 0
8, 35248, Note_on_c, 5, 32, 0
8, 35250, Note_on_c, 5, 34, 100
8, 35280, Note_on_c, 5, 34, 0
8, 35280, Note_on_c, 5, 34, 100
8, 35310, Note_on_c, 5, 34, 0
8, 35310, Note_on_c, 5, 34, 100
8, 35340, Note_on_c, 5, 34, 0
8, 35340, Note_on_c, 5, 34, 100
8, 35370, Note_on_c, 5, 34, 0
8, 35370, Note_on_c, 5, 34, 100
8, 35400, Note_on_c, 5, 34, 0
8, 35430, Note_on_c, 5, 34, 100
8, 35460, Note_on_c, 5, 34, 0
8, 35460, Note_on_c, 5, 36, 100
8, 35490, Note_on_c, 5, 36, 0
8, 35490, Note_on_c, 5, 39, 100
8, 35520, Note_on_c, 5, 39, 0
8, 35520, Note_on_c, 5, 27, 100
8, 35550, Note_on_c, 5, 27, 0
8, 35550, Note_on_c, 5, 32, 100
8, 35640, Note_on_c, 5, 32, 0
8, 35640, Note_on_c, 5, 27, 100
8, 35670, Note_on_c, 5, 27, 0
8, 35670, Note_on_c, 5, 29, 100
8, 35760, Note_on_c, 5, 29, 0
8, 35760, Note_on_c, 5, 27, 100
8, 35790, Note_on_c, 5, 27, 0
8, 35790, Note_on_c, 5, 32, 100
8, 35880, Note_on_c, 5, 32, 0
8, 35880, Note_on_c, 5, 27, 100
8, 35910, Note_on_c, 5, 27, 0
8, 35910, Note_on_c, 5, 29, 100
8, 36029, Note_on_c, 5, 29, 0
8, 36480, Note_on_c, 5, 32, 100
8, 36510, Note_on_c, 5, 32, 0
8, 36510, Note_on_c, 5, 29, 100
8, 36540, Note_on_c, 5, 29, 0
8, 36540, Note_on_c, 5, 29, 100
8, 36600, Note_on_c, 5, 29, 0
8, 36600, Note_on_c, 5, 29, 100
8, 36660, Note_on_c, 5, 29, 0
8, 36660, Note_on_c, 5, 29, 100
8, 36720, Note_on_c, 5, 29, 0
8, 36720, Note_on_c, 5, 32, 100
8, 36750, Note_on_c, 5, 32, 0
8, 36750, Note_on_c, 5, 29, 100
8, 36780, Note_on_c, 5, 29, 0
8, 36780, Note_on_c, 5, 29, 100
8, 36840, Note_on_c, 5, 29, 0
8, 36840, Note_on_c, 5, 29, 100
8, 36900, Note_on_c, 5, 29, 0
8, 36900, Note_on_c, 5, 34, 100
8, 36960, Note_on_c, 5, 34, 0
8, 36960, Note_on_c, 5, 32, 100
8, 36990, Note_on_c, 5, 32, 0
8, 36990, Note_on_c, 5, 29, 100
8, 37020, Note_on_c, 5, 29, 0
8, 37020, Note_on_c, 5, 29, 100
8, 37080, Note_on_c, 5, 29, 0
8, 37080, Note_on_c, 5, 29, 100
8, 37140, Note_on_c, 5, 29, 0
8, 37140, Note_on_c, 5, 29, 100
8, 37200, Note_on_c, 5, 29, 0
8, 37200, Note_on_c, 5, 32, 100
8, 37230, Note_on_c, 5, 32, 0
8, 37230, Note_on_c, 5, 29, 100
8, 37260, Note_on_c, 5, 29, 0
8, 37260, Note_on_c, 5, 29, 100
8, 37290, Note_on_c, 5, 29, 0
8, 37290, Note_on_c, 5, 32, 100
8, 37320, Note_on_c, 5, 32, 0
8, 37320, Note_on_c, 5, 29, 100
8, 37350, Note_on_c, 5, 29, 0
8, 37350, Note_on_c, 5, 29, 100
8, 37380, Note_on_c, 5, 29, 0
8, 37380, Note_on_c, 5, 34, 100
8, 37440, Note_on_c, 5, 34, 0
8, 37440, Note_on_c, 5, 32, 100
8, 37470, Note_on_c, 5, 32, 0
8, 37470, Note_on_c, 5, 29, 100
8, 37500, Note_on_c, 5, 29, 0
8, 37500, Note_on_c, 5, 29, 100
8, 37560, Note_on_c, 5, 29, 0
8, 37560, Note_on_c, 5, 29, 100
8, 37620, Note_on_c, 5, 29, 0
8, 37620, Note_on_c, 5, 29, 100
8, 37680, Note_on_c, 5, 29, 0
8, 37680, Note_on_c, 5, 32, 100
8, 37710, Note_on_c, 5, 32, 0
8, 37710, Note_on_c, 5, 29, 100
8, 37740, Note_on_c, 5, 29, 0
8, 37740, Note_on_c, 5, 29, 100
8, 37800, Note_on_c, 5, 29, 0
8, 37800, Note_on_c, 5, 29, 100
8, 37860, Note_on_c, 5, 29, 0
8, 37860, Note_on_c, 5, 34, 100
8, 37920, Note_on_c, 5, 34, 0
8, 37920, Note_on_c, 5, 32, 100
8, 37950, Note_on_c, 5, 32, 0
8, 37950, Note_on_c, 5, 29, 100
8, 37980, Note_on_c, 5, 29, 0
8, 37980, Note_on_c, 5, 29, 100
8, 38040, Note_on_c, 5, 29, 0
8, 38040, Note_on_c, 5, 29, 100
8, 38100, Note_on_c, 5, 29, 0
8, 38100, Note_on_c, 5, 29, 100
8, 38160, Note_on_c, 5, 29, 0
8, 38160, Note_on_c, 5, 32, 100
8, 38190, Note_on_c, 5, 32, 0
8, 38190, Note_on_c, 5, 29, 100
8, 38220, Note_on_c, 5, 29, 0
8, 38220, Note_on_c, 5, 29, 100
8, 38250, Note_on_c, 5, 29, 0
8, 38250, Note_on_c, 5, 32, 100
8, 38280, Note_on_c, 5, 32, 0
8, 38280, Note_on_c, 5, 29, 100
8, 38310, Note_on_c, 5, 29, 0
8, 38310, Note_on_c, 5, 29, 100
8, 38340, Note_on_c, 5, 29, 0
8, 38340, Note_on_c, 5, 34, 100
8, 38400, Note_on_c, 5, 34, 0
8, 38400, Note_on_c, 5, 32, 100
8, 38430, Note_on_c, 5, 32, 0
8, 38430, Note_on_c, 5, 29, 100
8, 38460, Note_on_c, 5, 29, 0
8, 38460, Note_on_c, 5, 29, 100
8, 38520, Note_on_c, 5, 29, 0
8, 38520, Note_on_c, 5, 29, 100
8, 38580, Note_on_c, 5, 29, 0
8, 38580, Note_on_c, 5, 28, 100
8, 38640, Note_on_c, 5, 28, 0
8, 38640, Note_on_c, 5, 29, 100
8, 38700, Note_on_c, 5, 29, 0
8, 38700, Note_on_c, 5, 29, 100
8, 38760, Note_on_c, 5, 29, 0
8, 38760, Note_on_c, 5, 29, 100
8, 38820, Note_on_c, 5, 29, 0
8, 38820, Note_on_c, 5, 28, 100
8, 38880, Note_on_c, 5, 28, 0
8, 38880, Note_on_c, 5, 29, 100
8, 38940, Note_on_c, 5, 29, 0
8, 38940, Note_on_c, 5, 29, 100
8, 39000, Note_on_c, 5, 29, 0
8, 39000, Note_on_c, 5, 29, 100
8, 39060, Note_on_c, 5, 29, 0
8, 39060, Note_on_c, 5, 29, 100
8, 39120, Note_on_c, 5, 29, 0
8, 39120, Note_on_c, 5, 32, 100
8, 39150, Note_on_c, 5, 32, 0
8, 39150, Note_on_c, 5, 29, 100
8, 39180, Note_on_c, 5, 29, 0
8, 39180, Note_on_c, 5, 29, 100
8, 39210, Note_on_c, 5, 29, 0
8, 39210, Note_on_c, 5, 32, 100
8, 39240, Note_on_c, 5, 32, 0
8, 39240, Note_on_c, 5, 29, 100
8, 39270, Note_on_c, 5, 29, 0
8, 39270, Note_on_c, 5, 29, 100
8, 39300, Note_on_c, 5, 29, 0
8, 39300, Note_on_c, 5, 34, 100
8, 39360, Note_on_c, 5, 34, 0
8, 39360, Note_on_c, 5, 32, 100
8, 39390, Note_on_c, 5, 32, 0
8, 39390, Note_on_c, 5, 29, 100
8, 39420, Note_on_c, 5, 29, 0
8, 39420, Note_on_c, 5, 29, 100
8, 39480, Note_on_c, 5, 29, 0
8, 39480, Note_on_c, 5, 29, 100
8, 39540, Note_on_c, 5, 29, 0
8, 39540, Note_on_c, 5, 28, 100
8, 39600, Note_on_c, 5, 28, 0
8, 39600, Note_on_c, 5, 29, 100
8, 39660, Note_on_c, 5, 29, 0
8, 39660, Note_on_c, 5, 29, 100
8, 39720, Note_on_c, 5, 29, 0
8, 39720, Note_on_c, 5, 29, 100
8, 39780, Note_on_c, 5, 29, 0
8, 39780, Note_on_c, 5, 28, 100
8, 39840, Note_on_c, 5, 28, 0
8, 39840, Note_on_c, 5, 29, 100
8, 39900, Note_on_c, 5, 29, 0
8, 39900, Note_on_c, 5, 29, 100
8, 39960, Note_on_c, 5, 29, 0
8, 39960, Note_on_c, 5, 29, 100
8, 40020, Note_on_c, 5, 29, 0
8, 40020, Note_on_c, 5, 29, 100
8, 40080, Note_on_c, 5, 29, 0
8, 40080, Note_on_c, 5, 32, 100
8, 40110, Note_on_c, 5, 32, 0
8, 40110, Note_on_c, 5, 29, 100
8, 40140, Note_on_c, 5, 29, 0
8, 40140, Note_on_c, 5, 29, 100
8, 40170, Note_on_c, 5, 29, 0
8, 40170, Note_on_c, 5, 32, 100
8, 40200, Note_on_c, 5, 32, 0
8, 40200, Note_on_c, 5, 29, 100
8, 40230, Note_on_c, 5, 29, 0
8, 40230, Note_on_c, 5, 29, 100
8, 40260, Note_on_c, 5, 29, 0
8, 40260, Note_on_c, 5, 34, 100
8, 40320, Note_on_c, 5, 34, 0
8, 40320, Note_on_c, 5, 32, 100
8, 40350, Note_on_c, 5, 32, 0
8, 40350, Note_on_c, 5, 29, 100
8, 40380, Note_on_c, 5, 29, 0
8, 40380, Note_on_c, 5, 29, 100
8, 40440, Note_on_c, 5, 29, 0
8, 40440, Note_on_c, 5, 29, 100
8, 40500, Note_on_c, 5, 29, 0
8, 40500, Note_on_c, 5, 28, 100
8, 40560, Note_on_c, 5, 28, 0
8, 40560, Note_on_c, 5, 29, 100
8, 40620, Note_on_c, 5, 29, 0
8, 40620, Note_on_c, 5, 29, 100
8, 40680, Note_on_c, 5, 29, 0
8, 40680, Note_on_c, 5, 29, 100
8, 40740, Note_on_c, 5, 29, 0
8, 40740, Note_on_c, 5, 28, 100
8, 40800, Note_on_c, 5, 28, 0
8, 40800, Note_on_c, 5, 29, 100
8, 40860, Note_on_c, 5, 29, 0
8, 40860, Note_on_c, 5, 29, 100
8, 40920, Note_on_c, 5, 29, 0
8, 40920, Note_on_c, 5, 29, 100
8, 40980, Note_on_c, 5, 29, 0
8, 40980, Note_on_c, 5, 29, 100
8, 41040, Note_on_c, 5, 29, 0
8, 41040, Note_on_c, 5, 32, 100
8, 41070, Note_on_c, 5, 32, 0
8, 41070, Note_on_c, 5, 29, 100
8, 41100, Note_on_c, 5, 29, 0
8, 41100, Note_on_c, 5, 29, 100
8, 41130, Note_on_c, 5, 29, 0
8, 41130, Note_on_c, 5, 32, 100
8, 41160, Note_on_c, 5, 32, 0
8, 41160, Note_on_c, 5, 29, 100
8, 41190, Note_on_c, 5, 29, 0
8, 41190, Note_on_c, 5, 29, 100
8, 41220, Note_on_c, 5, 29, 0
8, 41220, Note_on_c, 5, 34, 100
8, 41280, Note_on_c, 5, 34, 0
8, 41280, Note_on_c, 5, 32, 100
8, 41310, Note_on_c, 5, 32, 0
8, 41310, Note_on_c, 5, 29, 100
8, 41340, Note_on_c, 5, 29, 0
8, 41340, Note_on_c, 5, 29, 100
8, 41400, Note_on_c, 5, 29, 0
8, 41400, Note_on_c, 5, 29, 100
8, 41460, Note_on_c, 5, 29, 0
8, 41460, Note_on_c, 5, 29, 100
8, 41520, Note_on_c, 5, 29, 0
8, 41520, Note_on_c, 5, 32, 100
8, 41550, Note_on_c, 5, 32, 0
8, 41550, Note_on_c, 5, 29, 100
8, 41580, Note_on_c, 5, 29, 0
8, 41580, Note_on_c, 5, 29, 100
8, 41610, Note_on_c, 5, 29, 0
8, 41610, Note_on_c, 5, 32, 100
8, 41640, Note_on_c, 5, 32, 0
8, 41640, Note_on_c, 5, 29, 100
8, 41670, Note_on_c, 5, 29, 0
8, 41670, Note_on_c, 5, 29, 100
8, 41700, Note_on_c, 5, 29, 0
8, 41700, Note_on_c, 5, 34, 100
8, 41760, Note_on_c, 5, 34, 0
8, 41760, Note_on_c, 5, 32, 100
8, 41790, Note_on_c, 5, 32, 0
8, 41790, Note_on_c, 5, 29, 100
8, 41820, Note_on_c, 5, 29, 0
8, 41820, Note_on_c, 5, 29, 100
8, 41880, Note_on_c, 5, 29, 0
8, 41880, Note_on_c, 5, 29, 100
8, 41940, Note_on_c, 5, 29, 0
8, 41940, Note_on_c, 5, 28, 100
8, 42000, Note_on_c, 5, 28, 0
8, 42000, Note_on_c, 5, 29, 100
8, 42060, Note_on_c, 5, 29, 0
8, 42060, Note_on_c, 5, 29, 100
8, 42120, Note_on_c, 5, 29, 0
8, 42120, Note_on_c, 5, 29, 100
8, 42180, Note_on_c, 5, 29, 0
8, 42180, Note_on_c, 5, 28, 100
8, 42240, Note_on_c, 5, 28, 0
8, 42240, Note_on_c, 5, 29, 100
8, 42300, Note_on_c, 5, 29, 0
8, 42300, Note_on_c, 5, 29, 100
8, 42360, Note_on_c, 5, 29, 0
8, 42360, Note_on_c, 5, 29, 100
8, 42420, Note_on_c, 5, 29, 0
8, 42420, Note_on_c, 5, 29, 100
8, 42480, Note_on_c, 5, 29, 0
8, 42480, Note_on_c, 5, 32, 100
8, 42510, Note_on_c, 5, 32, 0
8, 42510, Note_on_c, 5, 29, 100
8, 42540, Note_on_c, 5, 29, 0
8, 42540, Note_on_c, 5, 29, 100
8, 42570, Note_on_c, 5, 29, 0
8, 42570, Note_on_c, 5, 32, 100
8, 42600, Note_on_c, 5, 32, 0
8, 42600, Note_on_c, 5, 29, 100
8, 42630, Note_on_c, 5, 29, 0
8, 42630, Note_on_c, 5, 29, 100
8, 42660, Note_on_c, 5, 29, 0
8, 42660, Note_on_c, 5, 34, 100
8, 42720, Note_on_c, 5, 34, 0
8, 42720, Note_on_c, 5, 32, 100
8, 42750, Note_on_c, 5, 32, 0
8, 42750, Note_on_c, 5, 29, 100
8, 42780, Note_on_c, 5, 29, 0
8, 42780, Note_on_c, 5, 29, 100
8, 42840, Note_on_c, 5, 29, 0
8, 42840, Note_on_c, 5, 29, 100
8, 42900, Note_on_c, 5, 29, 0
8, 42900, Note_on_c, 5, 28, 100
8, 42960, Note_on_c, 5, 28, 0
8, 42960, Note_on_c, 5, 29, 100
8, 43020, Note_on_c, 5, 29, 0
8, 43020, Note_on_c, 5, 29, 100
8, 43080, Note_on_c, 5, 29, 0
8, 43080, Note_on_c, 5, 29, 100
8, 43140, Note_on_c, 5, 29, 0
8, 43140, Note_on_c, 5, 28, 100
8, 43200, Note_on_c, 5, 28, 0
8, 43200, Note_on_c, 5, 32, 100
8, 43260, Note_on_c, 5, 32, 0
8, 43260, Note_on_c, 5, 32, 100
8, 43320, Note_on_c, 5, 32, 0
8, 43410, Note_on_c, 5, 34, 100
8, 43440, Note_on_c, 5, 34, 0
8, 43440, Note_on_c, 5, 34, 100
8, 43470, Note_on_c, 5, 34, 0
8, 43470, Note_on_c, 5, 34, 100
8, 43500, Note_on_c, 5, 34, 0
8, 43500, Note_on_c, 5, 34, 100
8, 43530, Note_on_c, 5, 34, 0
8, 43530, Note_on_c, 5, 34, 100
8, 43560, Note_on_c, 5, 34, 0
8, 43560, Note_on_c, 5, 37, 100
8, 43590, Note_on_c, 5, 37, 0
8, 43590, Note_on_c, 5, 37, 100
8, 43650, Note_on_c, 5, 37, 0
8, 43650, Note_on_c, 5, 39, 100
8, 43680, Note_on_c, 5, 39, 0
8, 43680, Note_on_c, 5, 27, 100
8, 43710, Note_on_c, 5, 27, 0
8, 43710, Note_on_c, 5, 32, 100
8, 43800, Note_on_c, 5, 32, 0
8, 43800, Note_on_c, 5, 27, 100
8, 43830, Note_on_c, 5, 27, 0
8, 43830, Note_on_c, 5, 29, 100
8, 43920, Note_on_c, 5, 29, 0
8, 43920, Note_on_c, 5, 27, 100
8, 43950, Note_on_c, 5, 27, 0
8, 43950, Note_on_c, 5, 32, 100
8, 44040, Note_on_c, 5, 32, 0
8, 44040, Note_on_c, 5, 27, 100
8, 44070, Note_on_c, 5, 27, 0
8, 44070, Note_on_c, 5, 29, 100
8, 44100, Note_on_c, 5, 29, 0
8, 44100, Note_on_c, 5, 34, 100
8, 44130, Note_on_c, 5, 34, 0
8, 44130, Note_on_c, 5, 32, 100
8, 44160, Note_on_c, 5, 32, 0
8, 44160, Note_on_c, 5, 32, 100
8, 44190, Note_on_c, 5, 32, 0
8, 44190, Note_on_c, 5, 32, 100
8, 44220, Note_on_c, 5, 32, 0
8, 44220, Note_on_c, 5, 32, 100
8, 44250, Note_on_c, 5, 32, 0
8, 44250, Note_on_c, 5, 32, 100
8, 44280, Note_on_c, 5, 32, 0
8, 44280, Note_on_c, 5, 37, 100
8, 44308, Note_on_c, 5, 32, 100
8, 44310, Note_on_c, 5, 37, 0
8, 44368, Note_on_c, 5, 32, 0
8, 44370, Note_on_c, 5, 34, 100
8, 44400, Note_on_c, 5, 34, 0
8, 44400, Note_on_c, 5, 34, 100
8, 44430, Note_on_c, 5, 34, 0
8, 44430, Note_on_c, 5, 34, 100
8, 44460, Note_on_c, 5, 34, 0
8, 44460, Note_on_c, 5, 34, 100
8, 44490, Note_on_c, 5, 34, 0
8, 44490, Note_on_c, 5, 34, 100
8, 44520, Note_on_c, 5, 34, 0
8, 44550, Note_on_c, 5, 34, 100
8, 44580, Note_on_c, 5, 34, 0
8, 44580, Note_on_c, 5, 36, 100
8, 44610, Note_on_c, 5, 36, 0
8, 44610, Note_on_c, 5, 39, 100
8, 44640, Note_on_c, 5, 39, 0
8, 44640, Note_on_c, 5, 27, 100
8, 44670, Note_on_c, 5, 27, 0
8, 44670, Note_on_c, 5, 32, 100
8, 44760, Note_on_c, 5, 32, 0
8, 44760, Note_on_c, 5, 27, 100
8, 44790, Note_on_c, 5, 27, 0
8, 44790, Note_on_c, 5, 29, 100
8, 44880, Note_on_c, 5, 29, 0
8, 44880, Note_on_c, 5, 27, 100
8, 44910, Note_on_c, 5, 27, 0
8, 44910, Note_on_c, 5, 32, 100
8, 45000, Note_on_c, 5, 32, 0
8, 45000, Note_on_c, 5, 27, 100
8, 45030, Note_on_c, 5, 27, 0
8, 45030, Note_on_c, 5, 29, 100
8, 45120, Note_on_c, 5, 29, 0
8, 45120, Note_on_c, 5, 45, 100
8, 45150, Note_on_c, 5, 45, 0
8, 45150, Note_on_c, 5, 41, 100
8, 45180, Note_on_c, 5, 41, 0
8, 45180, Note_on_c, 5, 41, 100
8, 45210, Note_on_c, 5, 41, 0
8, 45210, Note_on_c, 5, 41, 100
8, 45240, Note_on_c, 5, 41, 0
8, 45240, Note_on_c, 5, 41, 100
8, 45330, Note_on_c, 5, 41, 0
8, 45330, Note_on_c, 5, 41, 100
8, 45360, Note_on_c, 5, 41, 0
8, 45360, Note_on_c, 5, 41, 100
8, 45390, Note_on_c, 5, 41, 0
8, 45390, Note_on_c, 5, 41, 100
8, 45420, Note_on_c, 5, 41, 0
8, 45420, Note_on_c, 5, 41, 100
8, 45450, Note_on_c, 5, 41, 0
8, 45450, Note_on_c, 5, 41, 100
8, 45480, Note_on_c, 5, 41, 0
8, 45480, Note_on_c, 5, 41, 100
8, 45570, Note_on_c, 5, 41, 0
8, 45570, Note_on_c, 5, 41, 100
8, 45600, Note_on_c, 5, 41, 0
8, 45600, Note_on_c, 5, 41, 100
8, 45660, Note_on_c, 5, 41, 0
8, 45660, Note_on_c, 5, 41, 100
8, 45690, Note_on_c, 5, 41, 0
8, 45690, Note_on_c, 5, 41, 100
8, 45720, Note_on_c, 5, 41, 0
8, 45720, Note_on_c, 5, 41, 100
8, 46080, Note_on_c, 5, 41, 0
8, 46080, Note_on_c, 5, 41, 100
8, 46110, Note_on_c, 5, 41, 0
8, 46110, Note_on_c, 5, 41, 100
8, 46140, Note_on_c, 5, 41, 0
8, 46140, Note_on_c, 5, 41, 100
8, 46170, Note_on_c, 5, 41, 0
8, 46170, Note_on_c, 5, 41, 100
8, 46200, Note_on_c, 5, 41, 0
8, 46200, Note_on_c, 5, 41, 100
8, 46260, Note_on_c, 5, 41, 0
8, 46260, Note_on_c, 5, 41, 100
8, 46320, Note_on_c, 5, 41, 0
8, 46320, Note_on_c, 5, 36, 100
8, 46350, Note_on_c, 5, 36, 0
8, 46350, Note_on_c, 5, 36, 100
8, 46380, Note_on_c, 5, 36, 0
8, 46380, Note_on_c, 5, 36, 100
8, 46410, Note_on_c, 5, 36, 0
8, 46410, Note_on_c, 5, 36, 100
8, 46440, Note_on_c, 5, 36, 0
8, 46440, Note_on_c, 5, 36, 100
8, 46500, Note_on_c, 5, 36, 0
8, 46500, Note_on_c, 5, 36, 100
8, 46560, Note_on_c, 5, 36, 0
8, 46560, Note_on_c, 5, 34, 100
8, 46620, Note_on_c, 5, 34, 0
8, 46620, Note_on_c, 5, 34, 100
8, 46650, Note_on_c, 5, 34, 0
8, 46650, Note_on_c, 5, 34, 100
8, 46680, Note_on_c, 5, 34, 0
8, 46680, Note_on_c, 5, 34, 100
8, 46740, Note_on_c, 5, 34, 0
8, 46740, Note_on_c, 5, 36, 100
8, 46800, Note_on_c, 5, 36, 0
8, 46800, Note_on_c, 5, 39, 100
8, 46860, Note_on_c, 5, 39, 0
8, 46860, Note_on_c, 5, 41, 100
8, 46950, Note_on_c, 5, 41, 0
8, 46950, Note_on_c, 5, 39, 100
8, 46980, Note_on_c, 5, 39, 0
8, 46980, Note_on_c, 5, 36, 100
8, 47010, Note_on_c, 5, 36, 0
8, 47010, Note_on_c, 5, 39, 100
8, 47040, Note_on_c, 5, 39, 0
8, 47040, Note_on_c, 5, 36, 100
8, 47070, Note_on_c, 5, 36, 0
8, 47070, Note_on_c, 5, 36, 100
8, 47100, Note_on_c, 5, 36, 0
8, 47100, Note_on_c, 5, 36, 100
8, 47130, Note_on_c, 5, 36, 0
8, 47130, Note_on_c, 5, 36, 100
8, 47160, Note_on_c, 5, 36, 0
8, 47160, Note_on_c, 5, 36, 100
8, 47280, Note_on_c, 5, 36, 0
8, 47280, Note_on_c, 5, 36, 100
8, 47310, Note_on_c, 5, 36, 0
8, 47310, Note_on_c, 5, 36, 100
8, 47340, Note_on_c, 5, 36, 0
8, 47340, Note_on_c, 5, 36, 100
8, 47370, Note_on_c, 5, 36, 0
8, 47370, Note_on_c, 5, 36, 100
8, 47400, Note_on_c, 5, 36, 0
8, 47400, Note_on_c, 5, 36, 100
8, 47520, Note_on_c, 5, 36, 0
8, 47520, Note_on_c, 5, 34, 100
8, 47550, Note_on_c, 5, 34, 0
8, 47550, Note_on_c, 5, 34, 100
8, 47580, Note_on_c, 5, 34, 0
8, 47580, Note_on_c, 5, 34, 100
8, 47610, Note_on_c, 5, 34, 0
8, 47610, Note_on_c, 5, 34, 100
8, 47640, Note_on_c, 5, 34, 0
8, 47640, Note_on_c, 5, 34, 100
8, 47700, Note_on_c, 5, 34, 0
8, 47700, Note_on_c, 5, 36, 100
8, 47760, Note_on_c, 5, 36, 0
8, 47760, Note_on_c, 5, 39, 100
8, 47820, Note_on_c, 5, 39, 0
8, 47820, Note_on_c, 5, 36, 100
8, 48000, Note_on_c, 5, 36, 0
8, 48000, Note_on_c, 5, 36, 100
8, 48030, Note_on_c, 5, 36, 0
8, 48030, Note_on_c, 5, 36, 100
8, 48060, Note_on_c, 5, 36, 0
8, 48060, Note_on_c, 5, 36, 100
8, 48090, Note_on_c, 5, 36, 0
8, 48090, Note_on_c, 5, 36, 100
8, 48120, Note_on_c, 5, 36, 0
8, 48120, Note_on_c, 5, 36, 100
8, 48240, Note_on_c, 5, 36, 0
8, 48240, Note_on_c, 5, 36, 100
8, 48270, Note_on_c, 5, 36, 0
8, 48270, Note_on_c, 5, 36, 100
8, 48300, Note_on_c, 5, 36, 0
8, 48300, Note_on_c, 5, 36, 100
8, 48330, Note_on_c, 5, 36, 0
8, 48330, Note_on_c, 5, 36, 100
8, 48360, Note_on_c, 5, 36, 0
8, 48360, Note_on_c, 5, 36, 100
8, 48480, Note_on_c, 5, 36, 0
8, 48480, Note_on_c, 5, 34, 100
8, 48510, Note_on_c, 5, 34, 0
8, 48510, Note_on_c, 5, 34, 100
8, 48540, Note_on_c, 5, 34, 0
8, 48540, Note_on_c, 5, 34, 100
8, 48570, Note_on_c, 5, 34, 0
8, 48570, Note_on_c, 5, 34, 100
8, 48600, Note_on_c, 5, 34, 0
8, 48600, Note_on_c, 5, 34, 100
8, 48660, Note_on_c, 5, 34, 0
8, 48660, Note_on_c, 5, 36, 100
8, 48720, Note_on_c, 5, 36, 0
8, 48720, Note_on_c, 5, 39, 100
8, 48780, Note_on_c, 5, 39, 0
8, 48780, Note_on_c, 5, 36, 100
8, 48870, Note_on_c, 5, 36, 0
8, 48870, Note_on_c, 5, 34, 100
8, 48900, Note_on_c, 5, 34, 0
8, 48900, Note_on_c, 5, 34, 100
8, 48930, Note_on_c, 5, 34, 0
8, 48930, Note_on_c, 5, 35, 100
8, 48960, Note_on_c, 5, 35, 0
8, 48960, Note_on_c, 5, 36, 100
8, 48990, Note_on_c, 5, 36, 0
8, 48990, Note_on_c, 5, 36, 100
8, 49020, Note_on_c, 5, 36, 0
8, 49020, Note_on_c, 5, 36, 100
8, 49050, Note_on_c, 5, 36, 0
8, 49050, Note_on_c, 5, 36, 100
8, 49080, Note_on_c, 5, 36, 0
8, 49080, Note_on_c, 5, 36, 100
8, 49200, Note_on_c, 5, 36, 0
8, 49200, Note_on_c, 5, 36, 100
8, 49230, Note_on_c, 5, 36, 0
8, 49230, Note_on_c, 5, 36, 100
8, 49260, Note_on_c, 5, 36, 0
8, 49260, Note_on_c, 5, 36, 100
8, 49290, Note_on_c, 5, 36, 0
8, 49290, Note_on_c, 5, 36, 100
8, 49320, Note_on_c, 5, 36, 0
8, 49320, Note_on_c, 5, 36, 100
8, 49440, Note_on_c, 5, 36, 0
8, 49440, Note_on_c, 5, 34, 100
8, 49470, Note_on_c, 5, 34, 0
8, 49470, Note_on_c, 5, 34, 100
8, 49500, Note_on_c, 5, 34, 0
8, 49500, Note_on_c, 5, 34, 100
8, 49530, Note_on_c, 5, 34, 0
8, 49530, Note_on_c, 5, 34, 100
8, 49560, Note_on_c, 5, 34, 0
8, 49560, Note_on_c, 5, 34, 100
8, 49620, Note_on_c, 5, 34, 0
8, 49620, Note_on_c, 5, 36, 100
8, 49680, Note_on_c, 5, 36, 0
8, 49680, Note_on_c, 5, 34, 100
8, 49740, Note_on_c, 5, 34, 0
8, 49740, Note_on_c, 5, 36, 100
8, 49920, Note_on_c, 5, 36, 0
8, 49920, Note_on_c, 5, 36, 100
8, 49950, Note_on_c, 5, 36, 0
8, 49950, Note_on_c, 5, 36, 100
8, 49980, Note_on_c, 5, 36, 0
8, 49980, Note_on_c, 5, 36, 100
8, 50010, Note_on_c, 5, 36, 0
8, 50010, Note_on_c, 5, 36, 100
8, 50040, Note_on_c, 5, 36, 0
8, 50040, Note_on_c, 5, 36, 100
8, 50160, Note_on_c, 5, 36, 0
8, 50160, Note_on_c, 5, 36, 100
8, 50190, Note_on_c, 5, 36, 0
8, 50190, Note_on_c, 5, 36, 100
8, 50220, Note_on_c, 5, 36, 0
8, 50220, Note_on_c, 5, 36, 100
8, 50250, Note_on_c, 5, 36, 0
8, 50250, Note_on_c, 5, 36, 100
8, 50280, Note_on_c, 5, 36, 0
8, 50280, Note_on_c, 5, 36, 100
8, 50400, Note_on_c, 5, 36, 0
8, 50400, Note_on_c, 5, 34, 100
8, 50430, Note_on_c, 5, 34, 0
8, 50430, Note_on_c, 5, 34, 100
8, 50460, Note_on_c, 5, 34, 0
8, 50460, Note_on_c, 5, 34, 100
8, 50490, Note_on_c, 5, 34, 0
8, 50490, Note_on_c, 5, 34, 100
8, 50520, Note_on_c, 5, 34, 0
8, 50520, Note_on_c, 5, 34, 100
8, 50580, Note_on_c, 5, 34, 0
8, 50580, Note_on_c, 5, 36, 100
8, 50640, Note_on_c, 5, 36, 0
8, 50640, Note_on_c, 5, 34, 100
8, 50700, Note_on_c, 5, 34, 0
8, 50700, Note_on_c, 5, 36, 100
8, 50880, Note_on_c, 5, 36, 0
8, 50880, Note_on_c, 5, 32, 100
8, 50910, Note_on_c, 5, 32, 0
8, 50910, Note_on_c, 5, 29, 100
8, 50940, Note_on_c, 5, 29, 0
8, 50940, Note_on_c, 5, 29, 100
8, 50970, Note_on_c, 5, 29, 0
8, 50970, Note_on_c, 5, 29, 100
8, 51000, Note_on_c, 5, 29, 0
8, 51000, Note_on_c, 5, 29, 100
8, 51060, Note_on_c, 5, 29, 0
8, 51060, Note_on_c, 5, 29, 100
8, 51090, Note_on_c, 5, 29, 0
8, 51090, Note_on_c, 5, 29, 100
8, 51120, Note_on_c, 5, 29, 0
8, 51120, Note_on_c, 5, 32, 100
8, 51150, Note_on_c, 5, 32, 0
8, 51150, Note_on_c, 5, 29, 100
8, 51180, Note_on_c, 5, 29, 0
8, 51180, Note_on_c, 5, 29, 100
8, 51210, Note_on_c, 5, 29, 0
8, 51210, Note_on_c, 5, 29, 100
8, 51240, Note_on_c, 5, 29, 0
8, 51240, Note_on_c, 5, 29, 100
8, 51300, Note_on_c, 5, 29, 0
8, 51300, Note_on_c, 5, 29, 100
8, 51330, Note_on_c, 5, 29, 0
8, 51330, Note_on_c, 5, 29, 100
8, 51360, Note_on_c, 5, 29, 0
8, 51360, Note_on_c, 5, 32, 100
8, 51390, Note_on_c, 5, 32, 0
8, 51390, Note_on_c, 5, 29, 100
8, 51420, Note_on_c, 5, 29, 0
8, 51420, Note_on_c, 5, 29, 100
8, 51450, Note_on_c, 5, 29, 0
8, 51450, Note_on_c, 5, 29, 100
8, 51480, Note_on_c, 5, 29, 0
8, 51480, Note_on_c, 5, 29, 100
8, 51540, Note_on_c, 5, 29, 0
8, 51540, Note_on_c, 5, 29, 100
8, 51570, Note_on_c, 5, 29, 0
8, 51570, Note_on_c, 5, 29, 100
8, 51600, Note_on_c, 5, 29, 0
8, 51600, Note_on_c, 5, 32, 100
8, 51630, Note_on_c, 5, 32, 0
8, 51630, Note_on_c, 5, 29, 100
8, 51660, Note_on_c, 5, 29, 0
8, 51660, Note_on_c, 5, 29, 100
8, 51690, Note_on_c, 5, 29, 0
8, 51690, Note_on_c, 5, 32, 100
8, 51720, Note_on_c, 5, 32, 0
8, 51720, Note_on_c, 5, 29, 100
8, 51750, Note_on_c, 5, 29, 0
8, 51750, Note_on_c, 5, 29, 100
8, 51780, Note_on_c, 5, 29, 0
8, 51780, Note_on_c, 5, 34, 100
8, 51840, Note_on_c, 5, 34, 0
8, 51840, Note_on_c, 5, 32, 100
8, 51870, Note_on_c, 5, 32, 0
8, 51870, Note_on_c, 5, 29, 100
8, 51900, Note_on_c, 5, 29, 0
8, 51900, Note_on_c, 5, 29, 100
8, 51930, Note_on_c, 5, 29, 0
8, 51930, Note_on_c, 5, 29, 100
8, 51960, Note_on_c, 5, 29, 0
8, 51960, Note_on_c, 5, 29, 100
8, 52020, Note_on_c, 5, 29, 0
8, 52020, Note_on_c, 5, 29, 100
8, 52050, Note_on_c, 5, 29, 0
8, 52050, Note_on_c, 5, 29, 100
8, 52080, Note_on_c, 5, 29, 0
8, 52080, Note_on_c, 5, 32, 100
8, 52110, Note_on_c, 5, 32, 0
8, 52110, Note_on_c, 5, 29, 100
8, 52140, Note_on_c, 5, 29, 0
8, 52140, Note_on_c, 5, 29, 100
8, 52170, Note_on_c, 5, 29, 0
8, 52170, Note_on_c, 5, 29, 100
8, 52200, Note_on_c, 5, 29, 0
8, 52200, Note_on_c, 5, 29, 100
8, 52260, Note_on_c, 5, 29, 0
8, 52260, Note_on_c, 5, 29, 100
8, 52290, Note_on_c, 5, 29, 0
8, 52290, Note_on_c, 5, 29, 100
8, 52320, Note_on_c, 5, 29, 0
8, 52320, Note_on_c, 5, 32, 100
8, 52350, Note_on_c, 5, 32, 0
8, 52350, Note_on_c, 5, 29, 100
8, 52380, Note_on_c, 5, 29, 0
8, 52380, Note_on_c, 5, 29, 100
8, 52410, Note_on_c, 5, 29, 0
8, 52410, Note_on_c, 5, 29, 100
8, 52440, Note_on_c, 5, 29, 0
8, 52440, Note_on_c, 5, 29, 100
8, 52500, Note_on_c, 5, 29, 0
8, 52500, Note_on_c, 5, 29, 100
8, 52530, Note_on_c, 5, 29, 0
8, 52530, Note_on_c, 5, 29, 100
8, 52560, Note_on_c, 5, 29, 0
8, 52560, Note_on_c, 5, 32, 100
8, 52590, Note_on_c, 5, 32, 0
8, 52590, Note_on_c, 5, 29, 100
8, 52620, Note_on_c, 5, 29, 0
8, 52620, Note_on_c, 5, 29, 100
8, 52650, Note_on_c, 5, 29, 0
8, 52650, Note_on_c, 5, 32, 100
8, 52680, Note_on_c, 5, 32, 0
8, 52680, Note_on_c, 5, 29, 100
8, 52710, Note_on_c, 5, 29, 0
8, 52710, Note_on_c, 5, 29, 100
8, 52740, Note_on_c, 5, 29, 0
8, 52740, Note_on_c, 5, 34, 100
8, 52800, Note_on_c, 5, 34, 0
8, 52800, Note_on_c, 5, 32, 100
8, 52830, Note_on_c, 5, 32, 0
8, 52830, Note_on_c, 5, 29, 100
8, 52860, Note_on_c, 5, 29, 0
8, 52860, Note_on_c, 5, 29, 100
8, 52890, Note_on_c, 5, 29, 0
8, 52890, Note_on_c, 5, 29, 100
8, 52920, Note_on_c, 5, 29, 0
8, 52920, Note_on_c, 5, 29, 100
8, 52980, Note_on_c, 5, 29, 0
8, 52980, Note_on_c, 5, 29, 100
8, 53010, Note_on_c, 5, 29, 0
8, 53010, Note_on_c, 5, 29, 100
8, 53040, Note_on_c, 5, 29, 0
8, 53040, Note_on_c, 5, 32, 100
8, 53070, Note_on_c, 5, 32, 0
8, 53070, Note_on_c, 5, 29, 100
8, 53100, Note_on_c, 5, 29, 0
8, 53100, Note_on_c, 5, 29, 100
8, 53130, Note_on_c, 5, 29, 0
8, 53130, Note_on_c, 5, 29, 100
8, 53160, Note_on_c, 5, 29, 0
8, 53160, Note_on_c, 5, 29, 100
8, 53220, Note_on_c, 5, 29, 0
8, 53220, Note_on_c, 5, 29, 100
8, 53250, Note_on_c, 5, 29, 0
8, 53250, Note_on_c, 5, 29, 100
8, 53280, Note_on_c, 5, 29, 0
8, 53280, Note_on_c, 5, 32, 100
8, 53310, Note_on_c, 5, 32, 0
8, 53310, Note_on_c, 5, 29, 100
8, 53340, Note_on_c, 5, 29, 0
8, 53340, Note_on_c, 5, 29, 100
8, 53370, Note_on_c, 5, 29, 0
8, 53370, Note_on_c, 5, 29, 100
8, 53400, Note_on_c, 5, 29, 0
8, 53400, Note_on_c, 5, 29, 100
8, 53460, Note_on_c, 5, 29, 0
8, 53460, Note_on_c, 5, 29, 100
8, 53490, Note_on_c, 5, 29, 0
8, 53490, Note_on_c, 5, 29, 100
8, 53520, Note_on_c, 5, 29, 0
8, 53520, Note_on_c, 5, 32, 100
8, 53550, Note_on_c, 5, 32, 0
8, 53550, Note_on_c, 5, 29, 100
8, 53580, Note_on_c, 5, 29, 0
8, 53580, Note_on_c, 5, 29, 100
8, 53610, Note_on_c, 5, 29, 0
8, 53610, Note_on_c, 5, 32, 100
8, 53640, Note_on_c, 5, 32, 0
8, 53640, Note_on_c, 5, 29, 100
8, 53670, Note_on_c, 5, 29, 0
8, 53670, Note_on_c, 5, 29, 100
8, 53700, Note_on_c, 5, 29, 0
8, 53700, Note_on_c, 5, 34, 100
8, 53760, Note_on_c, 5, 34, 0
8, 53760, Note_on_c, 5, 32, 100
8, 53790, Note_on_c, 5, 32, 0
8, 53790, Note_on_c, 5, 29, 100
8, 53820, Note_on_c, 5, 29, 0
8, 53820, Note_on_c, 5, 29, 100
8, 53850, Note_on_c, 5, 29, 0
8, 53850, Note_on_c, 5, 29, 100
8, 53880, Note_on_c, 5, 29, 0
8, 53880, Note_on_c, 5, 29, 100
8, 53940, Note_on_c, 5, 29, 0
8, 53940, Note_on_c, 5, 29, 100
8, 53970, Note_on_c, 5, 29, 0
8, 53970, Note_on_c, 5, 29, 100
8, 54000, Note_on_c, 5, 29, 0
8, 54000, Note_on_c, 5, 32, 100
8, 54030, Note_on_c, 5, 32, 0
8, 54030, Note_on_c, 5, 29, 100
8, 54060, Note_on_c, 5, 29, 0
8, 54060, Note_on_c, 5, 29, 100
8, 54090, Note_on_c, 5, 29, 0
8, 54090, Note_on_c, 5, 29, 100
8, 54120, Note_on_c, 5, 29, 0
8, 54120, Note_on_c, 5, 29, 100
8, 54180, Note_on_c, 5, 29, 0
8, 54180, Note_on_c, 5, 29, 100
8, 54210, Note_on_c, 5, 29, 0
8, 54210, Note_on_c, 5, 29, 100
8, 54240, Note_on_c, 5, 29, 0
8, 54240, Note_on_c, 5, 32, 100
8, 54270, Note_on_c, 5, 32, 0
8, 54270, Note_on_c, 5, 29, 100
8, 54300, Note_on_c, 5, 29, 0
8, 54300, Note_on_c, 5, 29, 100
8, 54330, Note_on_c, 5, 29, 0
8, 54330, Note_on_c, 5, 29, 100
8, 54360, Note_on_c, 5, 29, 0
8, 54360, Note_on_c, 5, 29, 100
8, 54420, Note_on_c, 5, 29, 0
8, 54420, Note_on_c, 5, 29, 100
8, 54450, Note_on_c, 5, 29, 0
8, 54450, Note_on_c, 5, 29, 100
8, 54480, Note_on_c, 5, 29, 0
8, 54480, Note_on_c, 5, 32, 100
8, 54510, Note_on_c, 5, 32, 0
8, 54510, Note_on_c, 5, 29, 100
8, 54540, Note_on_c, 5, 29, 0
8, 54540, Note_on_c, 5, 29, 100
8, 54570, Note_on_c, 5, 29, 0
8, 54570, Note_on_c, 5, 32, 100
8, 54600, Note_on_c, 5, 32, 0
8, 54600, Note_on_c, 5, 29, 100
8, 54630, Note_on_c, 5, 29, 0
8, 54630, Note_on_c, 5, 29, 100
8, 54660, Note_on_c, 5, 29, 0
8, 54660, Note_on_c, 5, 34, 100
8, 54720, Note_on_c, 5, 34, 0
8, 54720, Note_on_c, 5, 32, 100
8, 54750, Note_on_c, 5, 32, 0
8, 54750, Note_on_c, 5, 29, 100
8, 54780, Note_on_c, 5, 29, 0
8, 54780, Note_on_c, 5, 29, 100
8, 54810, Note_on_c, 5, 29, 0
8, 54810, Note_on_c, 5, 29, 100
8, 54840, Note_on_c, 5, 29, 0
8, 54840, Note_on_c, 5, 29, 100
8, 54900, Note_on_c, 5, 29, 0
8, 54900, Note_on_c, 5, 29, 100
8, 54930, Note_on_c, 5, 29, 0
8, 54930, Note_on_c, 5, 29, 100
8, 54960, Note_on_c, 5, 29, 0
8, 54960, Note_on_c, 5, 32, 100
8, 54990, Note_on_c, 5, 32, 0
8, 54990, Note_on_c, 5, 29, 100
8, 55020, Note_on_c, 5, 29, 0
8, 55020, Note_on_c, 5, 29, 100
8, 55050, Note_on_c, 5, 29, 0
8, 55050, Note_on_c, 5, 29, 100
8, 55080, Note_on_c, 5, 29, 0
8, 55080, Note_on_c, 5, 29, 100
8, 55140, Note_on_c, 5, 29, 0
8, 55140, Note_on_c, 5, 29, 100
8, 55170, Note_on_c, 5, 29, 0
8, 55170, Note_on_c, 5, 29, 100
8, 55200, Note_on_c, 5, 29, 0
8, 55200, Note_on_c, 5, 32, 100
8, 55230, Note_on_c, 5, 32, 0
8, 55230, Note_on_c, 5, 29, 100
8, 55260, Note_on_c, 5, 29, 0
8, 55260, Note_on_c, 5, 29, 100
8, 55290, Note_on_c, 5, 29, 0
8, 55290, Note_on_c, 5, 29, 100
8, 55320, Note_on_c, 5, 29, 0
8, 55320, Note_on_c, 5, 29, 100
8, 55380, Note_on_c, 5, 29, 0
8, 55380, Note_on_c, 5, 29, 100
8, 55410, Note_on_c, 5, 29, 0
8, 55410, Note_on_c, 5, 29, 100
8, 55440, Note_on_c, 5, 29, 0
8, 55440, Note_on_c, 5, 32, 100
8, 55470, Note_on_c, 5, 32, 0
8, 55470, Note_on_c, 5, 29, 100
8, 55500, Note_on_c, 5, 29, 0
8, 55500, Note_on_c, 5, 29, 100
8, 55530, Note_on_c, 5, 29, 0
8, 55530, Note_on_c, 5, 32, 100
8, 55560, Note_on_c, 5, 32, 0
8, 55560, Note_on_c, 5, 29, 100
8, 55590, Note_on_c, 5, 29, 0
8, 55590, Note_on_c, 5, 29, 100
8, 55620, Note_on_c, 5, 29, 0
8, 55620, Note_on_c, 5, 34, 100
8, 55680, Note_on_c, 5, 34, 0
8, 55680, Note_on_c, 5, 32, 100
8, 55710, Note_on_c, 5, 32, 0
8, 55710, Note_on_c, 5, 29, 100
8, 55740, Note_on_c, 5, 29, 0
8, 55740, Note_on_c, 5, 29, 100
8, 55770, Note_on_c, 5, 29, 0
8, 55770, Note_on_c, 5, 29, 100
8, 55800, Note_on_c, 5, 29, 0
8, 55800, Note_on_c, 5, 29, 100
8, 55860, Note_on_c, 5, 29, 0
8, 55860, Note_on_c, 5, 29, 100
8, 55890, Note_on_c, 5, 29, 0
8, 55890, Note_on_c, 5, 29, 100
8, 55920, Note_on_c, 5, 29, 0
8, 55920, Note_on_c, 5, 32, 100
8, 55950, Note_on_c, 5, 32, 0
8, 55950, Note_on_c, 5, 29, 100
8, 55980, Note_on_c, 5, 29, 0
8, 55980, Note_on_c, 5, 29, 100
8, 56010, Note_on_c, 5, 29, 0
8, 56010, Note_on_c, 5, 29, 100
8, 56040, Note_on_c, 5, 29, 0
8, 56040, Note_on_c, 5, 29, 100
8, 56100, Note_on_c, 5, 29, 0
8, 56100, Note_on_c, 5, 29, 100
8, 56130, Note_on_c, 5, 29, 0
8, 56130, Note_on_c, 5, 29, 100
8, 56160, Note_on_c, 5, 29, 0
8, 56160, Note_on_c, 5, 32, 100
8, 56190, Note_on_c, 5, 32, 0
8, 56190, Note_on_c, 5, 29, 100
8, 56220, Note_on_c, 5, 29, 0
8, 56220, Note_on_c, 5, 29, 100
8, 56250, Note_on_c, 5, 29, 0
8, 56250, Note_on_c, 5, 29, 100
8, 56280, Note_on_c, 5, 29, 0
8, 56280, Note_on_c, 5, 29, 100
8, 56340, Note_on_c, 5, 29, 0
8, 56340, Note_on_c, 5, 29, 100
8, 56370, Note_on_c, 5, 29, 0
8, 56370, Note_on_c, 5, 29, 100
8, 56400, Note_on_c, 5, 29, 0
8, 56400, Note_on_c, 5, 32, 100
8, 56430, Note_on_c, 5, 32, 0
8, 56430, Note_on_c, 5, 29, 100
8, 56460, Note_on_c, 5, 29, 0
8, 56460, Note_on_c, 5, 29, 100
8, 56490, Note_on_c, 5, 29, 0
8, 56490, Note_on_c, 5, 32, 100
8, 56520, Note_on_c, 5, 32, 0
8, 56520, Note_on_c, 5, 29, 100
8, 56550, Note_on_c, 5, 29, 0
8, 56550, Note_on_c, 5, 29, 100
8, 56580, Note_on_c, 5, 29, 0
8, 56580, Note_on_c, 5, 34, 100
8, 56640, Note_on_c, 5, 34, 0
8, 56640, Note_on_c, 5, 32, 100
8, 56670, Note_on_c, 5, 32, 0
8, 56670, Note_on_c, 5, 29, 100
8, 56700, Note_on_c, 5, 29, 0
8, 56700, Note_on_c, 5, 29, 100
8, 56730, Note_on_c, 5, 29, 0
8, 56730, Note_on_c, 5, 29, 100
8, 56760, Note_on_c, 5, 29, 0
8, 56760, Note_on_c, 5, 29, 100
8, 56820, Note_on_c, 5, 29, 0
8, 56820, Note_on_c, 5, 29, 100
8, 56850, Note_on_c, 5, 29, 0
8, 56850, Note_on_c, 5, 29, 100
8, 56880, Note_on_c, 5, 29, 0
8, 56880, Note_on_c, 5, 32, 100
8, 56910, Note_on_c, 5, 32, 0
8, 56910, Note_on_c, 5, 29, 100
8, 56940, Note_on_c, 5, 29, 0
8, 56940, Note_on_c, 5, 29, 100
8, 56970, Note_on_c, 5, 29, 0
8, 56970, Note_on_c, 5, 29, 100
8, 57000, Note_on_c, 5, 29, 0
8, 57000, Note_on_c, 5, 29, 100
8, 57060, Note_on_c, 5, 29, 0
8, 57060, Note_on_c, 5, 29, 100
8, 57090, Note_on_c, 5, 29, 0
8, 57090, Note_on_c, 5, 29, 100
8, 57120, Note_on_c, 5, 29, 0
8, 57120, Note_on_c, 5, 32, 100
8, 57150, Note_on_c, 5, 32, 0
8, 57150, Note_on_c, 5, 29, 100
8, 57180, Note_on_c, 5, 29, 0
8, 57180, Note_on_c, 5, 29, 100
8, 57210, Note_on_c, 5, 29, 0
8, 57210, Note_on_c, 5, 29, 100
8, 57240, Note_on_c, 5, 29, 0
8, 57240, Note_on_c, 5, 29, 100
8, 57300, Note_on_c, 5, 29, 0
8, 57300, Note_on_c, 5, 29, 100
8, 57330, Note_on_c, 5, 29, 0
8, 57330, Note_on_c, 5, 29, 100
8, 57360, Note_on_c, 5, 29, 0
8, 57360, Note_on_c, 5, 32, 100
8, 57390, Note_on_c, 5, 32, 0
8, 57390, Note_on_c, 5, 29, 100
8, 57420, Note_on_c, 5, 29, 0
8, 57420, Note_on_c, 5, 29, 100
8, 57450, Note_on_c, 5, 29, 0
8, 57450, Note_on_c, 5, 32, 100
8, 57480, Note_on_c, 5, 32, 0
8, 57480, Note_on_c, 5, 29, 100
8, 57510, Note_on_c, 5, 29, 0
8, 57510, Note_on_c, 5, 29, 100
8, 57540, Note_on_c, 5, 29, 0
8, 57540, Note_on_c, 5, 34, 100
8, 57600, Note_on_c, 5, 34, 0
8, 57600, Note_on_c, 5, 32, 100
8, 57630, Note_on_c, 5, 32, 0
8, 57630, Note_on_c, 5, 29, 100
8, 57660, Note_on_c, 5, 29, 0
8, 57660, Note_on_c, 5, 29, 100
8, 57690, Note_on_c, 5, 29, 0
8, 57690, Note_on_c, 5, 29, 100
8, 57720, Note_on_c, 5, 29, 0
8, 57720, Note_on_c, 5, 29, 100
8, 57780, Note_on_c, 5, 29, 0
8, 57780, Note_on_c, 5, 29, 100
8, 57810, Note_on_c, 5, 29, 0
8, 57810, Note_on_c, 5, 29, 100
8, 57840, Note_on_c, 5, 29, 0
8, 57840, Note_on_c, 5, 32, 100
8, 57870, Note_on_c, 5, 32, 0
8, 57870, Note_on_c, 5, 29, 100
8, 57900, Note_on_c, 5, 29, 0
8, 57900, Note_on_c, 5, 29, 100
8, 57930, Note_on_c, 5, 29, 0
8, 57930, Note_on_c, 5, 29, 100
8, 57960, Note_on_c, 5, 29, 0
8, 57960, Note_on_c, 5, 29, 100
8, 58020, Note_on_c, 5, 29, 0
8, 58020, Note_on_c, 5, 29, 100
8, 58050, Note_on_c, 5, 29, 0
8, 58050, Note_on_c, 5, 29, 100
8, 58080, Note_on_c, 5, 29, 0
8, 58080, Note_on_c, 5, 32, 100
8, 58110, Note_on_c, 5, 32, 0
8, 58110, Note_on_c, 5, 29, 100
8, 58140, Note_on_c, 5, 29, 0
8, 58140, Note_on_c, 5, 29, 100
8, 58170, Note_on_c, 5, 29, 0
8, 58170, Note_on_c, 5, 29, 100
8, 58200, Note_on_c, 5, 29, 0
8, 58200, Note_on_c, 5, 29, 100
8, 58260, Note_on_c, 5, 29, 0
8, 58260, Note_on_c, 5, 29, 100
8, 58290, Note_on_c, 5, 29, 0
8, 58290, Note_on_c, 5, 29, 100
8, 58320, Note_on_c, 5, 29, 0
8, 58320, Note_on_c, 5, 32, 100
8, 58350, Note_on_c, 5, 32, 0
8, 58350, Note_on_c, 5, 29, 100
8, 58380, Note_on_c, 5, 29, 0
8, 58380, Note_on_c, 5, 29, 100
8, 58410, Note_on_c, 5, 29, 0
8, 58410, Note_on_c, 5, 32, 100
8, 58440, Note_on_c, 5, 32, 0
8, 58440, Note_on_c, 5, 29, 100
8, 58470, Note_on_c, 5, 29, 0
8, 58470, Note_on_c, 5, 29, 100
8, 58500, Note_on_c, 5, 29, 0
8, 58500, Note_on_c, 5, 34, 100
8, 58560, Note_on_c, 5, 34, 0
8, 58560, Note_on_c, 5, 32, 100
8, 58590, Note_on_c, 5, 32, 0
8, 58590, Note_on_c, 5, 29, 100
8, 58620, Note_on_c, 5, 29, 0
8, 58620, Note_on_c, 5, 29, 100
8, 58650, Note_on_c, 5, 29, 0
8, 58650, Note_on_c, 5, 29, 100
8, 58680, Note_on_c, 5, 29, 0
8, 58680, Note_on_c, 5, 29, 100
8, 58740, Note_on_c, 5, 29, 0
8, 58740, Note_on_c, 5, 29, 100
8, 58770, Note_on_c, 5, 29, 0
8, 58770, Note_on_c, 5, 29, 100
8, 58800, Note_on_c, 5, 29, 0
8, 58800, Note_on_c, 5, 32, 100
8, 58830, Note_on_c, 5, 32, 0
8, 58830, Note_on_c, 5, 29, 100
8, 58860, Note_on_c, 5, 29, 0
8, 58860, Note_on_c, 5, 29, 100
8, 58890, Note_on_c, 5, 29, 0
8, 58890, Note_on_c, 5, 29, 100
8, 58920, Note_on_c, 5, 29, 0
8, 58920, Note_on_c, 5, 29, 100
8, 58980, Note_on_c, 5, 29, 0
8, 58980, Note_on_c, 5, 29, 100
8, 59010, Note_on_c, 5, 29, 0
8, 59010, Note_on_c, 5, 29, 100
8, 59040, Note_on_c, 5, 29, 0
8, 59040, Note_on_c, 5, 32, 100
8, 59070, Note_on_c, 5, 32, 0
8, 59070, Note_on_c, 5, 29, 100
8, 59100, Note_on_c, 5, 29, 0
8, 59100, Note_on_c, 5, 29, 100
8, 59130, Note_on_c, 5, 29, 0
8, 59130, Note_on_c, 5, 29, 100
8, 59160, Note_on_c, 5, 29, 0
8, 59160, Note_on_c, 5, 29, 100
8, 59220, Note_on_c, 5, 29, 0
8, 59220, Note_on_c, 5, 29, 100
8, 59250, Note_on_c, 5, 29, 0
8, 59250, Note_on_c, 5, 29, 100
8, 59280, Note_on_c, 5, 29, 0
8, 59280, Note_on_c, 5, 32, 100
8, 59310, Note_on_c, 5, 32, 0
8, 59310, Note_on_c, 5, 29, 100
8, 59340, Note_on_c, 5, 29, 0
8, 59340, Note_on_c, 5, 29, 100
8, 59370, Note_on_c, 5, 29, 0
8, 59370, Note_on_c, 5, 32, 100
8, 59400, Note_on_c, 5, 32, 0
8, 59400, Note_on_c, 5, 29, 100
8, 59430, Note_on_c, 5, 29, 0
8, 59430, Note_on_c, 5, 29, 100
8, 59460, Note_on_c, 5, 29, 0
8, 59460, Note_on_c, 5, 34, 100
8, 59520, Note_on_c, 5, 34, 0
8, 59520, Note_on_c, 5, 32, 100
8, 59550, Note_on_c, 5, 32, 0
8, 59550, Note_on_c, 5, 29, 100
8, 59580, Note_on_c, 5, 29, 0
8, 59580, Note_on_c, 5, 29, 100
8, 59610, Note_on_c, 5, 29, 0
8, 59610, Note_on_c, 5, 29, 100
8, 59640, Note_on_c, 5, 29, 0
8, 59640, Note_on_c, 5, 29, 100
8, 59700, Note_on_c, 5, 29, 0
8, 59700, Note_on_c, 5, 29, 100
8, 59730, Note_on_c, 5, 29, 0
8, 59730, Note_on_c, 5, 29, 100
8, 59760, Note_on_c, 5, 29, 0
8, 59760, Note_on_c, 5, 32, 100
8, 59790, Note_on_c, 5, 32, 0
8, 59790, Note_on_c, 5, 29, 100
8, 59820, Note_on_c, 5, 29, 0
8, 59820, Note_on_c, 5, 29, 100
8, 59850, Note_on_c, 5, 29, 0
8, 59850, Note_on_c, 5, 29, 100
8, 59880, Note_on_c, 5, 29, 0
8, 59880, Note_on_c, 5, 29, 100
8, 59940, Note_on_c, 5, 29, 0
8, 59940, Note_on_c, 5, 29, 100
8, 59970, Note_on_c, 5, 29, 0
8, 59970, Note_on_c, 5, 29, 100
8, 60000, Note_on_c, 5, 29, 0
8, 60000, Note_on_c, 5, 32, 100
8, 60030, Note_on_c, 5, 32, 0
8, 60030, Note_on_c, 5, 29, 100
8, 60060, Note_on_c, 5, 29, 0
8, 60060, Note_on_c, 5, 29, 100
8, 60090, Note_on_c, 5, 29, 0
8, 60090, Note_on_c, 5, 29, 100
8, 60120, Note_on_c, 5, 29, 0
8, 60120, Note_on_c, 5, 29, 100
8, 60180, Note_on_c, 5, 29, 0
8, 60180, Note_on_c, 5, 29, 100
8, 60210, Note_on_c, 5, 29, 0
8, 60210, Note_on_c, 5, 29, 100
8, 60240, Note_on_c, 5, 29, 0
8, 60240, Note_on_c, 5, 32, 100
8, 60270, Note_on_c, 5, 32, 0
8, 60270, Note_on_c, 5, 29, 100
8, 60300, Note_on_c, 5, 29, 0
8, 60300, Note_on_c, 5, 29, 100
8, 60330, Note_on_c, 5, 29, 0
8, 60330, Note_on_c, 5, 32, 100
8, 60360, Note_on_c, 5, 32, 0
8, 60360, Note_on_c, 5, 29, 100
8, 60390, Note_on_c, 5, 29, 0
8, 60390, Note_on_c, 5, 29, 100
8, 60420, Note_on_c, 5, 29, 0
8, 60420, Note_on_c, 5, 34, 100
8, 60480, Note_on_c, 5, 34, 0
8, 60480, Note_on_c, 5, 32, 100
8, 60510, Note_on_c, 5, 32, 0
8, 60510, Note_on_c, 5, 29, 100
8, 60540, Note_on_c, 5, 29, 0
8, 60540, Note_on_c, 5, 29, 100
8, 60570, Note_on_c, 5, 29, 0
8, 60570, Note_on_c, 5, 29, 100
8, 60600, Note_on_c, 5, 29, 0
8, 60600, Note_on_c, 5, 29, 100
8, 60660, Note_on_c, 5, 29, 0
8, 60660, Note_on_c, 5, 29, 100
8, 60690, Note_on_c, 5, 29, 0
8, 60690, Note_on_c, 5, 29, 100
8, 60720, Note_on_c, 5, 29, 0
8, 60720, Note_on_c, 5, 32, 100
8, 60750, Note_on_c, 5, 32, 0
8, 60750, Note_on_c, 5, 29, 100
8, 60780, Note_on_c, 5, 29, 0
8, 60780, Note_on_c, 5, 29, 100
8, 60810, Note_on_c, 5, 29, 0
8, 60810, Note_on_c, 5, 29, 100
8, 60840, Note_on_c, 5, 29, 0
8, 60840, Note_on_c, 5, 29, 100
8, 60900, Note_on_c, 5, 29, 0
8, 60900, Note_on_c, 5, 29, 100
8, 60930, Note_on_c, 5, 29, 0
8, 60930, Note_on_c, 5, 29, 100
8, 60960, Note_on_c, 5, 29, 0
8, 60960, Note_on_c, 5, 32, 100
8, 60990, Note_on_c, 5, 32, 0
8, 60990, Note_on_c, 5, 29, 100
8, 61020, Note_on_c, 5, 29, 0
8, 61020, Note_on_c, 5, 29, 100
8, 61050, Note_on_c, 5, 29, 0
8, 61050, Note_on_c, 5, 29, 100
8, 61080, Note_on_c, 5, 29, 0
8, 61080, Note_on_c, 5, 29, 100
8, 61140, Note_on_c, 5, 29, 0
8, 61140, Note_on_c, 5, 29, 100
8, 61170, Note_on_c, 5, 29, 0
8, 61170, Note_on_c, 5, 29, 100
8, 61200, Note_on_c, 5, 29, 0
8, 61200, Note_on_c, 5, 32, 100
8, 61230, Note_on_c, 5, 32, 0
8, 61230, Note_on_c, 5, 29, 100
8, 61260, Note_on_c, 5, 29, 0
8, 61260, Note_on_c, 5, 29, 100
8, 61290, Note_on_c, 5, 29, 0
8, 61290, Note_on_c, 5, 32, 100
8, 61320, Note_on_c, 5, 32, 0
8, 61320, Note_on_c, 5, 29, 100
8, 61350, Note_on_c, 5, 29, 0
8, 61350, Note_on_c, 5, 29, 100
8, 61380, Note_on_c, 5, 29, 0
8, 61380, Note_on_c, 5, 34, 100
8, 61440, Note_on_c, 5, 34, 0
8, 61440, Note_on_c, 5, 32, 100
8, 61470, Note_on_c, 5, 32, 0
8, 61470, Note_on_c, 5, 29, 100
8, 61500, Note_on_c, 5, 29, 0
8, 61500, Note_on_c, 5, 29, 100
8, 61530, Note_on_c, 5, 29, 0
8, 61530, Note_on_c, 5, 29, 100
8, 61560, Note_on_c, 5, 29, 0
8, 61560, Note_on_c, 5, 29, 100
8, 61620, Note_on_c, 5, 29, 0
8, 61620, Note_on_c, 5, 29, 100
8, 61650, Note_on_c, 5, 29, 0
8, 61650, Note_on_c, 5, 29, 100
8, 61680, Note_on_c, 5, 29, 0
8, 61680, Note_on_c, 5, 32, 100
8, 61710, Note_on_c, 5, 32, 0
8, 61710, Note_on_c, 5, 29, 100
8, 61740, Note_on_c, 5, 29, 0
8, 61740, Note_on_c, 5, 29, 100
8, 61770, Note_on_c, 5, 29, 0
8, 61770, Note_on_c, 5, 29, 100
8, 61800, Note_on_c, 5, 29, 0
8, 61800, Note_on_c, 5, 29, 100
8, 61860, Note_on_c, 5, 29, 0
8, 61860, Note_on_c, 5, 29, 100
8, 61890, Note_on_c, 5, 29, 0
8, 61890, Note_on_c, 5, 29, 100
8, 61920, Note_on_c, 5, 29, 0
8, 61920, Note_on_c, 5, 32, 100
8, 61950, Note_on_c, 5, 32, 0
8, 61950, Note_on_c, 5, 29, 100
8, 61980, Note_on_c, 5, 29, 0
8, 61980, Note_on_c, 5, 29, 100
8, 62010, Note_on_c, 5, 29, 0
8, 62010, Note_on_c, 5, 29, 100
8, 62040, Note_on_c, 5, 29, 0
8, 62040, Note_on_c, 5, 29, 100
8, 62100, Note_on_c, 5, 29, 0
8, 62100, Note_on_c, 5, 29, 100
8, 62130, Note_on_c, 5, 29, 0
8, 62130, Note_on_c, 5, 29, 100
8, 62160, Note_on_c, 5, 29, 0
8, 62160, Note_on_c, 5, 32, 100
8, 62190, Note_on_c, 5, 32, 0
8, 62190, Note_on_c, 5, 29, 100
8, 62220, Note_on_c, 5, 29, 0
8, 62220, Note_on_c, 5, 29, 100
8, 62250, Note_on_c, 5, 29, 0
8, 62250, Note_on_c, 5, 32, 100
8, 62280, Note_on_c, 5, 32, 0
8, 62280, Note_on_c, 5, 29, 100
8, 62310, Note_on_c, 5, 29, 0
8, 62310, Note_on_c, 5, 29, 100
8, 62340, Note_on_c, 5, 29, 0
8, 62340, Note_on_c, 5, 34, 100
8, 62400, Note_on_c, 5, 34, 0
8, 62400, Note_on_c, 5, 20, 100
8, 62430, Note_on_c, 5, 20, 0
8, 62430, Note_on_c, 5, 17, 100
8, 62460, Note_on_c, 5, 17, 0
8, 62460, Note_on_c, 5, 17, 100
8, 62490, Note_on_c, 5, 17, 0
8, 62490, Note_on_c, 5, 17, 100
8, 62520, Note_on_c, 5, 17, 0
8, 62520, Note_on_c, 5, 17, 100
8, 62580, Note_on_c, 5, 17, 0
8, 62580, Note_on_c, 5, 17, 100
8, 62640, Note_on_c, 5, 17, 0
8, 62640, Note_on_c, 5, 20, 100
8, 62670, Note_on_c, 5, 20, 0
8, 62670, Note_on_c, 5, 17, 100
8, 62700, Note_on_c, 5, 17, 0
8, 62700, Note_on_c, 5, 17, 100
8, 62730, Note_on_c, 5, 17, 0
8, 62730, Note_on_c, 5, 20, 100
8, 62760, Note_on_c, 5, 20, 0
8, 62760, Note_on_c, 5, 17, 100
8, 62820, Note_on_c, 5, 17, 0
8, 62820, Note_on_c, 5, 22, 100
8, 62880, Note_on_c, 5, 22, 0
8, 62880, Note_on_c, 5, 17, 100
8, 63360, Note_on_c, 5, 17, 0
8, 63360, End_track
9, 0, Start_track
9, 0, Title_t, "Drums"
9, 0, Instrument_name_t, "Power Set"
9, 0, MIDI_port, 0
9, 480, Control_c, 9, 7, 115
9, 480, Control_c, 9, 93, 0
9, 480, Control_c, 9, 91, 76
9, 480, Program_c, 9, 16
9, 960, Note_on_c, 9, 42, 100
9, 960, Note_on_c, 9, 36, 100
9, 1019, Note_on_c, 9, 42, 0
9, 1020, Note_on_c, 9, 42, 100
9, 1079, Note_on_c, 9, 36, 0
9, 1079, Note_on_c, 9, 42, 0
9, 1080, Note_on_c, 9, 42, 100
9, 1080, Note_on_c, 9, 38, 100
9, 1139, Note_on_c, 9, 42, 0
9, 1139, Note_on_c, 9, 38, 0
9, 1140, Note_on_c, 9, 42, 100
9, 1170, Note_on_c, 9, 36, 100
9, 1199, Note_on_c, 9, 42, 0
9, 1200, Note_on_c, 9, 42, 100
9, 1259, Note_on_c, 9, 36, 0
9, 1259, Note_on_c, 9, 42, 0
9, 1260, Note_on_c, 9, 36, 100
9, 1260, Note_on_c, 9, 42, 100
9, 1289, Note_on_c, 9, 36, 0
9, 1290, Note_on_c, 9, 36, 100
9, 1319, Note_on_c, 9, 42, 0
9, 1319, Note_on_c, 9, 36, 0
9, 1320, Note_on_c, 9, 42, 100
9, 1320, Note_on_c, 9, 38, 100
9, 1379, Note_on_c, 9, 42, 0
9, 1379, Note_on_c, 9, 38, 0
9, 1380, Note_on_c, 9, 42, 100
9, 1439, Note_on_c, 9, 42, 0
9, 1440, Note_on_c, 9, 42, 100
9, 1440, Note_on_c, 9, 36, 100
9, 1499, Note_on_c, 9, 42, 0
9, 1500, Note_on_c, 9, 42, 100
9, 1559, Note_on_c, 9, 36, 0
9, 1559, Note_on_c, 9, 42, 0
9, 1560, Note_on_c, 9, 42, 100
9, 1560, Note_on_c, 9, 38, 100
9, 1619, Note_on_c, 9, 42, 0
9, 1619, Note_on_c, 9, 38, 0
9, 1620, Note_on_c, 9, 42, 100
9, 1650, Note_on_c, 9, 36, 100
9, 1679, Note_on_c, 9, 42, 0
9, 1680, Note_on_c, 9, 42, 100
9, 1739, Note_on_c, 9, 36, 0
9, 1739, Note_on_c, 9, 42, 0
9, 1740, Note_on_c, 9, 36, 100
9, 1740, Note_on_c, 9, 42, 100
9, 1769, Note_on_c, 9, 36, 0
9, 1770, Note_on_c, 9, 36, 100
9, 1799, Note_on_c, 9, 42, 0
9, 1799, Note_on_c, 9, 36, 0
9, 1800, Note_on_c, 9, 42, 100
9, 1800, Note_on_c, 9, 38, 100
9, 1859, Note_on_c, 9, 42, 0
9, 1859, Note_on_c, 9, 38, 0
9, 1860, Note_on_c, 9, 42, 100
9, 1919, Note_on_c, 9, 42, 0
9, 1920, Note_on_c, 9, 42, 100
9, 1920, Note_on_c, 9, 36, 100
9, 1979, Note_on_c, 9, 42, 0
9, 1980, Note_on_c, 9, 42, 100
9, 2039, Note_on_c, 9, 36, 0
9, 2039, Note_on_c, 9, 42, 0
9, 2040, Note_on_c, 9, 42, 100
9, 2040, Note_on_c, 9, 38, 100
9, 2099, Note_on_c, 9, 42, 0
9, 2099, Note_on_c, 9, 38, 0
9, 2100, Note_on_c, 9, 42, 100
9, 2130, Note_on_c, 9, 36, 100
9, 2159, Note_on_c, 9, 42, 0
9, 2160, Note_on_c, 9, 42, 100
9, 2219, Note_on_c, 9, 36, 0
9, 2219, Note_on_c, 9, 42, 0
9, 2220, Note_on_c, 9, 36, 100
9, 2220, Note_on_c, 9, 42, 100
9, 2279, Note_on_c, 9, 36, 0
9, 2279, Note_on_c, 9, 42, 0
9, 2280, Note_on_c, 9, 42, 100
9, 2280, Note_on_c, 9, 38, 100
9, 2339, Note_on_c, 9, 42, 0
9, 2339, Note_on_c, 9, 38, 0
9, 2340, Note_on_c, 9, 42, 100
9, 2399, Note_on_c, 9, 42, 0
9, 2400, Note_on_c, 9, 42, 100
9, 2400, Note_on_c, 9, 36, 100
9, 2459, Note_on_c, 9, 42, 0
9, 2460, Note_on_c, 9, 42, 100
9, 2519, Note_on_c, 9, 36, 0
9, 2519, Note_on_c, 9, 42, 0
9, 2520, Note_on_c, 9, 42, 100
9, 2520, Note_on_c, 9, 38, 100
9, 2579, Note_on_c, 9, 42, 0
9, 2579, Note_on_c, 9, 38, 0
9, 2580, Note_on_c, 9, 42, 100
9, 2610, Note_on_c, 9, 36, 100
9, 2639, Note_on_c, 9, 42, 0
9, 2640, Note_on_c, 9, 42, 100
9, 2699, Note_on_c, 9, 36, 0
9, 2699, Note_on_c, 9, 42, 0
9, 2700, Note_on_c, 9, 36, 100
9, 2700, Note_on_c, 9, 42, 100
9, 2759, Note_on_c, 9, 36, 0
9, 2759, Note_on_c, 9, 42, 0
9, 2760, Note_on_c, 9, 42, 100
9, 2760, Note_on_c, 9, 38, 100
9, 2819, Note_on_c, 9, 42, 0
9, 2819, Note_on_c, 9, 38, 0
9, 2820, Note_on_c, 9, 42, 100
9, 2879, Note_on_c, 9, 42, 0
9, 2880, Note_on_c, 9, 42, 100
9, 2880, Note_on_c, 9, 36, 100
9, 2939, Note_on_c, 9, 42, 0
9, 2940, Note_on_c, 9, 42, 100
9, 2999, Note_on_c, 9, 36, 0
9, 2999, Note_on_c, 9, 42, 0
9, 3000, Note_on_c, 9, 42, 100
9, 3000, Note_on_c, 9, 38, 100
9, 3059, Note_on_c, 9, 42, 0
9, 3059, Note_on_c, 9, 38, 0
9, 3060, Note_on_c, 9, 42, 100
9, 3090, Note_on_c, 9, 36, 100
9, 3119, Note_on_c, 9, 42, 0
9, 3120, Note_on_c, 9, 42, 100
9, 3179, Note_on_c, 9, 36, 0
9, 3179, Note_on_c, 9, 42, 0
9, 3180, Note_on_c, 9, 36, 100
9, 3180, Note_on_c, 9, 42, 100
9, 3239, Note_on_c, 9, 36, 0
9, 3239, Note_on_c, 9, 42, 0
9, 3240, Note_on_c, 9, 42, 100
9, 3240, Note_on_c, 9, 38, 100
9, 3299, Note_on_c, 9, 42, 0
9, 3299, Note_on_c, 9, 38, 0
9, 3300, Note_on_c, 9, 42, 100
9, 3359, Note_on_c, 9, 42, 0
9, 3360, Note_on_c, 9, 42, 100
9, 3360, Note_on_c, 9, 36, 100
9, 3419, Note_on_c, 9, 42, 0
9, 3420, Note_on_c, 9, 42, 100
9, 3479, Note_on_c, 9, 36, 0
9, 3479, Note_on_c, 9, 42, 0
9, 3480, Note_on_c, 9, 42, 100
9, 3480, Note_on_c, 9, 38, 100
9, 3539, Note_on_c, 9, 42, 0
9, 3539, Note_on_c, 9, 38, 0
9, 3540, Note_on_c, 9, 42, 100
9, 3570, Note_on_c, 9, 36, 100
9, 3599, Note_on_c, 9, 42, 0
9, 3600, Note_on_c, 9, 42, 100
9, 3659, Note_on_c, 9, 36, 0
9, 3659, Note_on_c, 9, 42, 0
9, 3660, Note_on_c, 9, 36, 100
9, 3660, Note_on_c, 9, 42, 100
9, 3689, Note_on_c, 9, 36, 0
9, 3690, Note_on_c, 9, 36, 100
9, 3719, Note_on_c, 9, 42, 0
9, 3719, Note_on_c, 9, 36, 0
9, 3720, Note_on_c, 9, 42, 100
9, 3720, Note_on_c, 9, 38, 100
9, 3779, Note_on_c, 9, 42, 0
9, 3779, Note_on_c, 9, 38, 0
9, 3780, Note_on_c, 9, 42, 100
9, 3839, Note_on_c, 9, 42, 0
9, 3840, Note_on_c, 9, 42, 100
9, 3840, Note_on_c, 9, 36, 100
9, 3899, Note_on_c, 9, 42, 0
9, 3900, Note_on_c, 9, 42, 100
9, 3959, Note_on_c, 9, 36, 0
9, 3959, Note_on_c, 9, 42, 0
9, 3960, Note_on_c, 9, 42, 100
9, 3960, Note_on_c, 9, 38, 100
9, 4019, Note_on_c, 9, 42, 0
9, 4019, Note_on_c, 9, 38, 0
9, 4020, Note_on_c, 9, 42, 100
9, 4050, Note_on_c, 9, 36, 100
9, 4079, Note_on_c, 9, 42, 0
9, 4080, Note_on_c, 9, 42, 100
9, 4139, Note_on_c, 9, 36, 0
9, 4139, Note_on_c, 9, 42, 0
9, 4140, Note_on_c, 9, 36, 100
9, 4140, Note_on_c, 9, 42, 100
9, 4169, Note_on_c, 9, 36, 0
9, 4170, Note_on_c, 9, 36, 100
9, 4199, Note_on_c, 9, 42, 0
9, 4199, Note_on_c, 9, 36, 0
9, 4200, Note_on_c, 9, 42, 100
9, 4200, Note_on_c, 9, 38, 100
9, 4259, Note_on_c, 9, 42, 0
9, 4259, Note_on_c, 9, 38, 0
9, 4260, Note_on_c, 9, 42, 100
9, 4319, Note_on_c, 9, 42, 0
9, 4320, Note_on_c, 9, 42, 100
9, 4320, Note_on_c, 9, 36, 100
9, 4379, Note_on_c, 9, 42, 0
9, 4380, Note_on_c, 9, 42, 100
9, 4439, Note_on_c, 9, 36, 0
9, 4439, Note_on_c, 9, 42, 0
9, 4440, Note_on_c, 9, 42, 100
9, 4440, Note_on_c, 9, 38, 100
9, 4499, Note_on_c, 9, 42, 0
9, 4499, Note_on_c, 9, 38, 0
9, 4500, Note_on_c, 9, 42, 100
9, 4530, Note_on_c, 9, 36, 100
9, 4559, Note_on_c, 9, 42, 0
9, 4560, Note_on_c, 9, 42, 100
9, 4619, Note_on_c, 9, 36, 0
9, 4619, Note_on_c, 9, 42, 0
9, 4620, Note_on_c, 9, 36, 100
9, 4620, Note_on_c, 9, 42, 100
9, 4679, Note_on_c, 9, 36, 0
9, 4679, Note_on_c, 9, 42, 0
9, 4680, Note_on_c, 9, 42, 100
9, 4680, Note_on_c, 9, 38, 100
9, 4739, Note_on_c, 9, 42, 0
9, 4739, Note_on_c, 9, 38, 0
9, 4740, Note_on_c, 9, 42, 100
9, 4799, Note_on_c, 9, 42, 0
9, 4800, Note_on_c, 9, 42, 100
9, 4800, Note_on_c, 9, 36, 100
9, 4859, Note_on_c, 9, 42, 0
9, 4860, Note_on_c, 9, 42, 100
9, 4919, Note_on_c, 9, 36, 0
9, 4919, Note_on_c, 9, 42, 0
9, 4920, Note_on_c, 9, 42, 100
9, 4920, Note_on_c, 9, 38, 100
9, 4979, Note_on_c, 9, 42, 0
9, 4979, Note_on_c, 9, 38, 0
9, 4980, Note_on_c, 9, 42, 100
9, 5010, Note_on_c, 9, 36, 100
9, 5039, Note_on_c, 9, 42, 0
9, 5040, Note_on_c, 9, 42, 100
9, 5099, Note_on_c, 9, 36, 0
9, 5099, Note_on_c, 9, 42, 0
9, 5100, Note_on_c, 9, 36, 100
9, 5100, Note_on_c, 9, 42, 100
9, 5159, Note_on_c, 9, 36, 0
9, 5159, Note_on_c, 9, 42, 0
9, 5160, Note_on_c, 9, 42, 100
9, 5160, Note_on_c, 9, 38, 100
9, 5219, Note_on_c, 9, 42, 0
9, 5219, Note_on_c, 9, 38, 0
9, 5220, Note_on_c, 9, 42, 100
9, 5279, Note_on_c, 9, 42, 0
9, 5280, Note_on_c, 9, 42, 100
9, 5280, Note_on_c, 9, 36, 100
9, 5339, Note_on_c, 9, 42, 0
9, 5340, Note_on_c, 9, 42, 100
9, 5399, Note_on_c, 9, 36, 0
9, 5399, Note_on_c, 9, 42, 0
9, 5400, Note_on_c, 9, 42, 100
9, 5400, Note_on_c, 9, 38, 100
9, 5459, Note_on_c, 9, 42, 0
9, 5459, Note_on_c, 9, 38, 0
9, 5460, Note_on_c, 9, 42, 100
9, 5490, Note_on_c, 9, 36, 100
9, 5519, Note_on_c, 9, 42, 0
9, 5520, Note_on_c, 9, 42, 100
9, 5579, Note_on_c, 9, 36, 0
9, 5579, Note_on_c, 9, 42, 0
9, 5580, Note_on_c, 9, 36, 100
9, 5580, Note_on_c, 9, 42, 100
9, 5639, Note_on_c, 9, 36, 0
9, 5639, Note_on_c, 9, 42, 0
9, 5640, Note_on_c, 9, 42, 100
9, 5640, Note_on_c, 9, 38, 100
9, 5699, Note_on_c, 9, 42, 0
9, 5699, Note_on_c, 9, 38, 0
9, 5700, Note_on_c, 9, 42, 100
9, 5759, Note_on_c, 9, 42, 0
9, 5760, Note_on_c, 9, 42, 100
9, 5760, Note_on_c, 9, 36, 100
9, 5819, Note_on_c, 9, 42, 0
9, 5820, Note_on_c, 9, 42, 100
9, 5879, Note_on_c, 9, 36, 0
9, 5879, Note_on_c, 9, 42, 0
9, 5880, Note_on_c, 9, 42, 100
9, 5880, Note_on_c, 9, 38, 100
9, 5939, Note_on_c, 9, 42, 0
9, 5939, Note_on_c, 9, 38, 0
9, 5940, Note_on_c, 9, 42, 100
9, 5970, Note_on_c, 9, 36, 100
9, 5999, Note_on_c, 9, 42, 0
9, 6000, Note_on_c, 9, 42, 100
9, 6059, Note_on_c, 9, 36, 0
9, 6059, Note_on_c, 9, 42, 0
9, 6060, Note_on_c, 9, 36, 100
9, 6060, Note_on_c, 9, 42, 100
9, 6119, Note_on_c, 9, 36, 0
9, 6119, Note_on_c, 9, 42, 0
9, 6120, Note_on_c, 9, 42, 100
9, 6120, Note_on_c, 9, 38, 100
9, 6179, Note_on_c, 9, 42, 0
9, 6179, Note_on_c, 9, 38, 0
9, 6180, Note_on_c, 9, 42, 100
9, 6239, Note_on_c, 9, 42, 0
9, 6240, Note_on_c, 9, 42, 100
9, 6240, Note_on_c, 9, 36, 100
9, 6299, Note_on_c, 9, 42, 0
9, 6300, Note_on_c, 9, 42, 100
9, 6359, Note_on_c, 9, 36, 0
9, 6359, Note_on_c, 9, 42, 0
9, 6360, Note_on_c, 9, 42, 100
9, 6360, Note_on_c, 9, 38, 100
9, 6419, Note_on_c, 9, 42, 0
9, 6419, Note_on_c, 9, 38, 0
9, 6420, Note_on_c, 9, 42, 100
9, 6450, Note_on_c, 9, 36, 100
9, 6479, Note_on_c, 9, 42, 0
9, 6480, Note_on_c, 9, 42, 100
9, 6539, Note_on_c, 9, 36, 0
9, 6539, Note_on_c, 9, 42, 0
9, 6540, Note_on_c, 9, 36, 100
9, 6540, Note_on_c, 9, 42, 100
9, 6599, Note_on_c, 9, 36, 0
9, 6599, Note_on_c, 9, 42, 0
9, 6600, Note_on_c, 9, 42, 100
9, 6600, Note_on_c, 9, 38, 100
9, 6659, Note_on_c, 9, 42, 0
9, 6659, Note_on_c, 9, 38, 0
9, 6660, Note_on_c, 9, 42, 100
9, 6719, Note_on_c, 9, 42, 0
9, 6720, Note_on_c, 9, 42, 100
9, 6720, Note_on_c, 9, 36, 100
9, 6779, Note_on_c, 9, 42, 0
9, 6780, Note_on_c, 9, 42, 100
9, 6839, Note_on_c, 9, 36, 0
9, 6839, Note_on_c, 9, 42, 0
9, 6840, Note_on_c, 9, 42, 100
9, 6840, Note_on_c, 9, 38, 100
9, 6899, Note_on_c, 9, 42, 0
9, 6899, Note_on_c, 9, 38, 0
9, 6900, Note_on_c, 9, 42, 100
9, 6930, Note_on_c, 9, 36, 100
9, 6959, Note_on_c, 9, 42, 0
9, 6960, Note_on_c, 9, 42, 100
9, 7019, Note_on_c, 9, 36, 0
9, 7019, Note_on_c, 9, 42, 0
9, 7020, Note_on_c, 9, 36, 100
9, 7020, Note_on_c, 9, 42, 100
9, 7079, Note_on_c, 9, 36, 0
9, 7079, Note_on_c, 9, 42, 0
9, 7080, Note_on_c, 9, 42, 100
9, 7080, Note_on_c, 9, 38, 100
9, 7139, Note_on_c, 9, 42, 0
9, 7139, Note_on_c, 9, 38, 0
9, 7140, Note_on_c, 9, 42, 100
9, 7199, Note_on_c, 9, 42, 0
9, 7200, Note_on_c, 9, 42, 100
9, 7200, Note_on_c, 9, 36, 100
9, 7259, Note_on_c, 9, 42, 0
9, 7260, Note_on_c, 9, 42, 100
9, 7319, Note_on_c, 9, 36, 0
9, 7319, Note_on_c, 9, 42, 0
9, 7320, Note_on_c, 9, 42, 100
9, 7320, Note_on_c, 9, 38, 100
9, 7379, Note_on_c, 9, 42, 0
9, 7379, Note_on_c, 9, 38, 0
9, 7380, Note_on_c, 9, 42, 100
9, 7410, Note_on_c, 9, 36, 100
9, 7439, Note_on_c, 9, 42, 0
9, 7440, Note_on_c, 9, 42, 100
9, 7499, Note_on_c, 9, 36, 0
9, 7499, Note_on_c, 9, 42, 0
9, 7500, Note_on_c, 9, 36, 100
9, 7500, Note_on_c, 9, 42, 100
9, 7559, Note_on_c, 9, 36, 0
9, 7559, Note_on_c, 9, 42, 0
9, 7560, Note_on_c, 9, 42, 100
9, 7560, Note_on_c, 9, 38, 100
9, 7619, Note_on_c, 9, 42, 0
9, 7619, Note_on_c, 9, 38, 0
9, 7620, Note_on_c, 9, 42, 100
9, 7679, Note_on_c, 9, 42, 0
9, 7680, Note_on_c, 9, 42, 100
9, 7680, Note_on_c, 9, 36, 100
9, 7739, Note_on_c, 9, 42, 0
9, 7740, Note_on_c, 9, 42, 100
9, 7799, Note_on_c, 9, 36, 0
9, 7799, Note_on_c, 9, 42, 0
9, 7800, Note_on_c, 9, 42, 100
9, 7800, Note_on_c, 9, 38, 100
9, 7859, Note_on_c, 9, 42, 0
9, 7859, Note_on_c, 9, 38, 0
9, 7860, Note_on_c, 9, 42, 100
9, 7890, Note_on_c, 9, 36, 100
9, 7919, Note_on_c, 9, 42, 0
9, 7920, Note_on_c, 9, 42, 100
9, 7979, Note_on_c, 9, 36, 0
9, 7979, Note_on_c, 9, 42, 0
9, 7980, Note_on_c, 9, 36, 100
9, 7980, Note_on_c, 9, 42, 100
9, 8039, Note_on_c, 9, 36, 0
9, 8039, Note_on_c, 9, 42, 0
9, 8040, Note_on_c, 9, 42, 100
9, 8040, Note_on_c, 9, 38, 100
9, 8099, Note_on_c, 9, 42, 0
9, 8099, Note_on_c, 9, 38, 0
9, 8100, Note_on_c, 9, 42, 100
9, 8159, Note_on_c, 9, 42, 0
9, 8160, Note_on_c, 9, 42, 100
9, 8160, Note_on_c, 9, 36, 100
9, 8219, Note_on_c, 9, 42, 0
9, 8220, Note_on_c, 9, 42, 100
9, 8279, Note_on_c, 9, 36, 0
9, 8279, Note_on_c, 9, 42, 0
9, 8280, Note_on_c, 9, 42, 100
9, 8280, Note_on_c, 9, 38, 100
9, 8339, Note_on_c, 9, 42, 0
9, 8339, Note_on_c, 9, 38, 0
9, 8340, Note_on_c, 9, 42, 100
9, 8370, Note_on_c, 9, 36, 100
9, 8399, Note_on_c, 9, 42, 0
9, 8400, Note_on_c, 9, 42, 100
9, 8459, Note_on_c, 9, 36, 0
9, 8459, Note_on_c, 9, 42, 0
9, 8460, Note_on_c, 9, 36, 100
9, 8460, Note_on_c, 9, 42, 100
9, 8519, Note_on_c, 9, 36, 0
9, 8519, Note_on_c, 9, 42, 0
9, 8520, Note_on_c, 9, 42, 100
9, 8520, Note_on_c, 9, 38, 100
9, 8579, Note_on_c, 9, 42, 0
9, 8579, Note_on_c, 9, 38, 0
9, 8580, Note_on_c, 9, 42, 100
9, 8639, Note_on_c, 9, 42, 0
9, 8640, Note_on_c, 9, 42, 100
9, 8640, Note_on_c, 9, 36, 100
9, 8699, Note_on_c, 9, 42, 0
9, 8700, Note_on_c, 9, 42, 100
9, 8759, Note_on_c, 9, 36, 0
9, 8759, Note_on_c, 9, 42, 0
9, 8760, Note_on_c, 9, 42, 100
9, 8760, Note_on_c, 9, 38, 100
9, 8819, Note_on_c, 9, 42, 0
9, 8819, Note_on_c, 9, 38, 0
9, 8820, Note_on_c, 9, 42, 100
9, 8850, Note_on_c, 9, 36, 100
9, 8879, Note_on_c, 9, 42, 0
9, 8880, Note_on_c, 9, 42, 100
9, 8939, Note_on_c, 9, 36, 0
9, 8939, Note_on_c, 9, 42, 0
9, 8940, Note_on_c, 9, 36, 100
9, 8940, Note_on_c, 9, 42, 100
9, 8999, Note_on_c, 9, 36, 0
9, 8999, Note_on_c, 9, 42, 0
9, 9000, Note_on_c, 9, 42, 100
9, 9000, Note_on_c, 9, 38, 100
9, 9059, Note_on_c, 9, 42, 0
9, 9059, Note_on_c, 9, 38, 0
9, 9060, Note_on_c, 9, 42, 100
9, 9119, Note_on_c, 9, 42, 0
9, 9120, Note_on_c, 9, 42, 100
9, 9120, Note_on_c, 9, 36, 100
9, 9179, Note_on_c, 9, 42, 0
9, 9180, Note_on_c, 9, 42, 100
9, 9239, Note_on_c, 9, 36, 0
9, 9239, Note_on_c, 9, 42, 0
9, 9240, Note_on_c, 9, 42, 100
9, 9240, Note_on_c, 9, 38, 100
9, 9299, Note_on_c, 9, 42, 0
9, 9299, Note_on_c, 9, 38, 0
9, 9300, Note_on_c, 9, 42, 100
9, 9330, Note_on_c, 9, 36, 100
9, 9359, Note_on_c, 9, 42, 0
9, 9360, Note_on_c, 9, 42, 100
9, 9419, Note_on_c, 9, 36, 0
9, 9419, Note_on_c, 9, 42, 0
9, 9420, Note_on_c, 9, 36, 100
9, 9420, Note_on_c, 9, 42, 100
9, 9479, Note_on_c, 9, 36, 0
9, 9479, Note_on_c, 9, 42, 0
9, 9480, Note_on_c, 9, 42, 100
9, 9480, Note_on_c, 9, 38, 100
9, 9539, Note_on_c, 9, 42, 0
9, 9539, Note_on_c, 9, 38, 0
9, 9540, Note_on_c, 9, 42, 100
9, 9599, Note_on_c, 9, 42, 0
9, 9600, Note_on_c, 9, 36, 100
9, 9600, Note_on_c, 9, 42, 100
9, 9659, Note_on_c, 9, 42, 0
9, 9660, Note_on_c, 9, 42, 100
9, 9719, Note_on_c, 9, 36, 0
9, 9719, Note_on_c, 9, 42, 0
9, 9720, Note_on_c, 9, 42, 100
9, 9720, Note_on_c, 9, 38, 100
9, 9779, Note_on_c, 9, 42, 0
9, 9779, Note_on_c, 9, 38, 0
9, 9780, Note_on_c, 9, 42, 100
9, 9810, Note_on_c, 9, 36, 100
9, 9839, Note_on_c, 9, 42, 0
9, 9840, Note_on_c, 9, 42, 100
9, 9899, Note_on_c, 9, 36, 0
9, 9899, Note_on_c, 9, 42, 0
9, 9900, Note_on_c, 9, 36, 100
9, 9900, Note_on_c, 9, 42, 100
9, 9959, Note_on_c, 9, 36, 0
9, 9959, Note_on_c, 9, 42, 0
9, 9960, Note_on_c, 9, 38, 100
9, 9960, Note_on_c, 9, 42, 100
9, 10019, Note_on_c, 9, 38, 0
9, 10019, Note_on_c, 9, 42, 0
9, 10020, Note_on_c, 9, 42, 100
9, 10079, Note_on_c, 9, 42, 0
9, 10080, Note_on_c, 9, 42, 100
9, 10080, Note_on_c, 9, 36, 100
9, 10139, Note_on_c, 9, 42, 0
9, 10140, Note_on_c, 9, 42, 100
9, 10199, Note_on_c, 9, 36, 0
9, 10199, Note_on_c, 9, 42, 0
9, 10200, Note_on_c, 9, 42, 100
9, 10200, Note_on_c, 9, 38, 100
9, 10259, Note_on_c, 9, 42, 0
9, 10259, Note_on_c, 9, 38, 0
9, 10260, Note_on_c, 9, 42, 100
9, 10290, Note_on_c, 9, 36, 100
9, 10319, Note_on_c, 9, 42, 0
9, 10320, Note_on_c, 9, 42, 100
9, 10349, Note_on_c, 9, 42, 0
9, 10350, Note_on_c, 9, 38, 100
9, 10379, Note_on_c, 9, 36, 0
9, 10379, Note_on_c, 9, 38, 0
9, 10380, Note_on_c, 9, 42, 100
9, 10380, Note_on_c, 9, 36, 100
9, 10409, Note_on_c, 9, 36, 0
9, 10410, Note_on_c, 9, 36, 100
9, 10439, Note_on_c, 9, 42, 0
9, 10439, Note_on_c, 9, 36, 0
9, 10440, Note_on_c, 9, 38, 100
9, 10440, Note_on_c, 9, 42, 100
9, 10499, Note_on_c, 9, 38, 0
9, 10499, Note_on_c, 9, 42, 0
9, 10500, Note_on_c, 9, 42, 100
9, 10500, Note_on_c, 9, 38, 100
9, 10529, Note_on_c, 9, 38, 0
9, 10530, Note_on_c, 9, 38, 100
9, 10559, Note_on_c, 9, 42, 0
9, 10559, Note_on_c, 9, 38, 0
9, 10560, Note_on_c, 9, 57, 100
9, 10560, Note_on_c, 9, 36, 100
9, 10679, Note_on_c, 9, 57, 0
9, 10679, Note_on_c, 9, 36, 0
9, 10680, Note_on_c, 9, 38, 100
9, 10680, Note_on_c, 9, 42, 100
9, 10739, Note_on_c, 9, 38, 0
9, 10739, Note_on_c, 9, 42, 0
9, 10740, Note_on_c, 9, 42, 100
9, 10770, Note_on_c, 9, 36, 100
9, 10799, Note_on_c, 9, 42, 0
9, 10800, Note_on_c, 9, 42, 100
9, 10859, Note_on_c, 9, 36, 0
9, 10859, Note_on_c, 9, 42, 0
9, 10860, Note_on_c, 9, 42, 100
9, 10860, Note_on_c, 9, 36, 100
9, 10889, Note_on_c, 9, 36, 0
9, 10890, Note_on_c, 9, 36, 100
9, 10919, Note_on_c, 9, 42, 0
9, 10919, Note_on_c, 9, 36, 0
9, 10920, Note_on_c, 9, 42, 100
9, 10920, Note_on_c, 9, 38, 100
9, 10979, Note_on_c, 9, 42, 0
9, 10979, Note_on_c, 9, 38, 0
9, 10980, Note_on_c, 9, 42, 100
9, 11010, Note_on_c, 9, 36, 100
9, 11039, Note_on_c, 9, 42, 0
9, 11039, Note_on_c, 9, 36, 0
9, 11040, Note_on_c, 9, 38, 100
9, 11069, Note_on_c, 9, 38, 0
9, 11070, Note_on_c, 9, 57, 100
9, 11070, Note_on_c, 9, 36, 100
9, 11129, Note_on_c, 9, 36, 0
9, 11130, Note_on_c, 9, 36, 100
9, 11159, Note_on_c, 9, 57, 0
9, 11159, Note_on_c, 9, 36, 0
9, 11160, Note_on_c, 9, 38, 100
9, 11189, Note_on_c, 9, 38, 0
9, 11190, Note_on_c, 9, 57, 100
9, 11190, Note_on_c, 9, 36, 100
9, 11249, Note_on_c, 9, 36, 0
9, 11250, Note_on_c, 9, 36, 100
9, 11279, Note_on_c, 9, 57, 0
9, 11279, Note_on_c, 9, 36, 0
9, 11280, Note_on_c, 9, 38, 100
9, 11309, Note_on_c, 9, 38, 0
9, 11310, Note_on_c, 9, 57, 100
9, 11310, Note_on_c, 9, 36, 100
9, 11369, Note_on_c, 9, 36, 0
9, 11370, Note_on_c, 9, 36, 100
9, 11399, Note_on_c, 9, 57, 0
9, 11399, Note_on_c, 9, 36, 0
9, 11400, Note_on_c, 9, 38, 100
9, 11429, Note_on_c, 9, 38, 0
9, 11430, Note_on_c, 9, 57, 100
9, 11430, Note_on_c, 9, 36, 100
9, 11490, Note_on_c, 9, 38, 100
9, 11519, Note_on_c, 9, 57, 0
9, 11519, Note_on_c, 9, 36, 0
9, 11519, Note_on_c, 9, 38, 0
9, 11520, Note_on_c, 9, 57, 100
9, 11520, Note_on_c, 9, 36, 100
9, 11639, Note_on_c, 9, 57, 0
9, 11639, Note_on_c, 9, 36, 0
9, 11640, Note_on_c, 9, 42, 100
9, 11640, Note_on_c, 9, 38, 100
9, 11699, Note_on_c, 9, 42, 0
9, 11699, Note_on_c, 9, 38, 0
9, 11700, Note_on_c, 9, 42, 100
9, 11730, Note_on_c, 9, 36, 100
9, 11759, Note_on_c, 9, 42, 0
9, 11760, Note_on_c, 9, 42, 100
9, 11819, Note_on_c, 9, 36, 0
9, 11819, Note_on_c, 9, 42, 0
9, 11820, Note_on_c, 9, 36, 100
9, 11820, Note_on_c, 9, 42, 100
9, 11849, Note_on_c, 9, 36, 0
9, 11850, Note_on_c, 9, 36, 100
9, 11879, Note_on_c, 9, 42, 0
9, 11879, Note_on_c, 9, 36, 0
9, 11880, Note_on_c, 9, 42, 100
9, 11880, Note_on_c, 9, 38, 100
9, 11939, Note_on_c, 9, 42, 0
9, 11939, Note_on_c, 9, 38, 0
9, 11940, Note_on_c, 9, 42, 100
9, 11999, Note_on_c, 9, 42, 0
9, 12000, Note_on_c, 9, 38, 100
9, 12029, Note_on_c, 9, 38, 0
9, 12030, Note_on_c, 9, 57, 100
9, 12030, Note_on_c, 9, 36, 100
9, 12119, Note_on_c, 9, 57, 0
9, 12119, Note_on_c, 9, 36, 0
9, 12120, Note_on_c, 9, 38, 100
9, 12149, Note_on_c, 9, 38, 0
9, 12150, Note_on_c, 9, 57, 100
9, 12150, Note_on_c, 9, 36, 100
9, 12239, Note_on_c, 9, 57, 0
9, 12239, Note_on_c, 9, 36, 0
9, 12240, Note_on_c, 9, 38, 100
9, 12269, Note_on_c, 9, 38, 0
9, 12270, Note_on_c, 9, 57, 100
9, 12270, Note_on_c, 9, 36, 100
9, 12359, Note_on_c, 9, 57, 0
9, 12359, Note_on_c, 9, 36, 0
9, 12360, Note_on_c, 9, 38, 100
9, 12389, Note_on_c, 9, 38, 0
9, 12390, Note_on_c, 9, 57, 100
9, 12390, Note_on_c, 9, 36, 100
9, 12479, Note_on_c, 9, 36, 0
9, 12959, Note_on_c, 9, 57, 0
9, 12960, Note_on_c, 9, 42, 100
9, 12960, Note_on_c, 9, 36, 100
9, 13019, Note_on_c, 9, 42, 0
9, 13020, Note_on_c, 9, 42, 100
9, 13079, Note_on_c, 9, 36, 0
9, 13079, Note_on_c, 9, 42, 0
9, 13080, Note_on_c, 9, 42, 100
9, 13080, Note_on_c, 9, 38, 100
9, 13139, Note_on_c, 9, 42, 0
9, 13139, Note_on_c, 9, 38, 0
9, 13140, Note_on_c, 9, 42, 100
9, 13170, Note_on_c, 9, 36, 100
9, 13199, Note_on_c, 9, 42, 0
9, 13200, Note_on_c, 9, 42, 100
9, 13259, Note_on_c, 9, 36, 0
9, 13259, Note_on_c, 9, 42, 0
9, 13260, Note_on_c, 9, 36, 100
9, 13260, Note_on_c, 9, 42, 100
9, 13319, Note_on_c, 9, 36, 0
9, 13319, Note_on_c, 9, 42, 0
9, 13320, Note_on_c, 9, 42, 100
9, 13320, Note_on_c, 9, 38, 100
9, 13379, Note_on_c, 9, 42, 0
9, 13379, Note_on_c, 9, 38, 0
9, 13380, Note_on_c, 9, 42, 100
9, 13439, Note_on_c, 9, 42, 0
9, 13440, Note_on_c, 9, 42, 100
9, 13440, Note_on_c, 9, 36, 100
9, 13499, Note_on_c, 9, 42, 0
9, 13500, Note_on_c, 9, 42, 100
9, 13559, Note_on_c, 9, 36, 0
9, 13559, Note_on_c, 9, 42, 0
9, 13560, Note_on_c, 9, 42, 100
9, 13560, Note_on_c, 9, 38, 100
9, 13619, Note_on_c, 9, 42, 0
9, 13619, Note_on_c, 9, 38, 0
9, 13620, Note_on_c, 9, 42, 100
9, 13650, Note_on_c, 9, 36, 100
9, 13679, Note_on_c, 9, 42, 0
9, 13680, Note_on_c, 9, 42, 100
9, 13739, Note_on_c, 9, 36, 0
9, 13739, Note_on_c, 9, 42, 0
9, 13740, Note_on_c, 9, 36, 100
9, 13740, Note_on_c, 9, 42, 100
9, 13799, Note_on_c, 9, 36, 0
9, 13799, Note_on_c, 9, 42, 0
9, 13800, Note_on_c, 9, 42, 100
9, 13800, Note_on_c, 9, 38, 100
9, 13859, Note_on_c, 9, 42, 0
9, 13859, Note_on_c, 9, 38, 0
9, 13860, Note_on_c, 9, 42, 100
9, 13919, Note_on_c, 9, 42, 0
9, 13920, Note_on_c, 9, 42, 100
9, 13920, Note_on_c, 9, 36, 100
9, 13979, Note_on_c, 9, 42, 0
9, 13980, Note_on_c, 9, 42, 100
9, 14039, Note_on_c, 9, 36, 0
9, 14039, Note_on_c, 9, 42, 0
9, 14040, Note_on_c, 9, 42, 100
9, 14040, Note_on_c, 9, 38, 100
9, 14099, Note_on_c, 9, 42, 0
9, 14099, Note_on_c, 9, 38, 0
9, 14100, Note_on_c, 9, 42, 100
9, 14130, Note_on_c, 9, 36, 100
9, 14159, Note_on_c, 9, 42, 0
9, 14160, Note_on_c, 9, 42, 100
9, 14219, Note_on_c, 9, 36, 0
9, 14219, Note_on_c, 9, 42, 0
9, 14220, Note_on_c, 9, 36, 100
9, 14220, Note_on_c, 9, 42, 100
9, 14279, Note_on_c, 9, 36, 0
9, 14279, Note_on_c, 9, 42, 0
9, 14280, Note_on_c, 9, 42, 100
9, 14280, Note_on_c, 9, 38, 100
9, 14339, Note_on_c, 9, 42, 0
9, 14339, Note_on_c, 9, 38, 0
9, 14340, Note_on_c, 9, 42, 100
9, 14399, Note_on_c, 9, 42, 0
9, 14400, Note_on_c, 9, 42, 100
9, 14400, Note_on_c, 9, 36, 100
9, 14459, Note_on_c, 9, 42, 0
9, 14460, Note_on_c, 9, 42, 100
9, 14519, Note_on_c, 9, 36, 0
9, 14519, Note_on_c, 9, 42, 0
9, 14520, Note_on_c, 9, 42, 100
9, 14520, Note_on_c, 9, 38, 100
9, 14579, Note_on_c, 9, 42, 0
9, 14579, Note_on_c, 9, 38, 0
9, 14580, Note_on_c, 9, 42, 100
9, 14610, Note_on_c, 9, 36, 100
9, 14639, Note_on_c, 9, 42, 0
9, 14640, Note_on_c, 9, 42, 100
9, 14699, Note_on_c, 9, 36, 0
9, 14699, Note_on_c, 9, 42, 0
9, 14700, Note_on_c, 9, 36, 100
9, 14700, Note_on_c, 9, 42, 100
9, 14729, Note_on_c, 9, 36, 0
9, 14730, Note_on_c, 9, 36, 100
9, 14759, Note_on_c, 9, 42, 0
9, 14759, Note_on_c, 9, 36, 0
9, 14760, Note_on_c, 9, 42, 100
9, 14760, Note_on_c, 9, 38, 100
9, 14819, Note_on_c, 9, 42, 0
9, 14819, Note_on_c, 9, 38, 0
9, 14820, Note_on_c, 9, 42, 100
9, 14879, Note_on_c, 9, 42, 0
9, 14880, Note_on_c, 9, 42, 100
9, 14880, Note_on_c, 9, 36, 100
9, 14939, Note_on_c, 9, 42, 0
9, 14940, Note_on_c, 9, 42, 100
9, 14999, Note_on_c, 9, 36, 0
9, 14999, Note_on_c, 9, 42, 0
9, 15000, Note_on_c, 9, 42, 100
9, 15000, Note_on_c, 9, 38, 100
9, 15059, Note_on_c, 9, 42, 0
9, 15059, Note_on_c, 9, 38, 0
9, 15060, Note_on_c, 9, 42, 100
9, 15090, Note_on_c, 9, 36, 100
9, 15119, Note_on_c, 9, 42, 0
9, 15120, Note_on_c, 9, 42, 100
9, 15179, Note_on_c, 9, 36, 0
9, 15179, Note_on_c, 9, 42, 0
9, 15180, Note_on_c, 9, 36, 100
9, 15180, Note_on_c, 9, 42, 100
9, 15209, Note_on_c, 9, 36, 0
9, 15210, Note_on_c, 9, 36, 100
9, 15239, Note_on_c, 9, 42, 0
9, 15239, Note_on_c, 9, 36, 0
9, 15240, Note_on_c, 9, 42, 100
9, 15240, Note_on_c, 9, 38, 100
9, 15299, Note_on_c, 9, 42, 0
9, 15299, Note_on_c, 9, 38, 0
9, 15300, Note_on_c, 9, 42, 100
9, 15359, Note_on_c, 9, 42, 0
9, 15360, Note_on_c, 9, 42, 100
9, 15360, Note_on_c, 9, 36, 100
9, 15419, Note_on_c, 9, 42, 0
9, 15420, Note_on_c, 9, 42, 100
9, 15479, Note_on_c, 9, 36, 0
9, 15479, Note_on_c, 9, 42, 0
9, 15480, Note_on_c, 9, 42, 100
9, 15480, Note_on_c, 9, 38, 100
9, 15539, Note_on_c, 9, 42, 0
9, 15539, Note_on_c, 9, 38, 0
9, 15540, Note_on_c, 9, 42, 100
9, 15570, Note_on_c, 9, 36, 100
9, 15599, Note_on_c, 9, 42, 0
9, 15600, Note_on_c, 9, 42, 100
9, 15659, Note_on_c, 9, 36, 0
9, 15659, Note_on_c, 9, 42, 0
9, 15660, Note_on_c, 9, 36, 100
9, 15660, Note_on_c, 9, 42, 100
9, 15719, Note_on_c, 9, 36, 0
9, 15719, Note_on_c, 9, 42, 0
9, 15720, Note_on_c, 9, 42, 100
9, 15720, Note_on_c, 9, 38, 100
9, 15779, Note_on_c, 9, 42, 0
9, 15779, Note_on_c, 9, 38, 0
9, 15780, Note_on_c, 9, 42, 100
9, 15839, Note_on_c, 9, 42, 0
9, 15840, Note_on_c, 9, 42, 100
9, 15840, Note_on_c, 9, 36, 100
9, 15899, Note_on_c, 9, 42, 0
9, 15900, Note_on_c, 9, 42, 100
9, 15959, Note_on_c, 9, 36, 0
9, 15959, Note_on_c, 9, 42, 0
9, 15960, Note_on_c, 9, 42, 100
9, 15960, Note_on_c, 9, 38, 100
9, 16019, Note_on_c, 9, 42, 0
9, 16019, Note_on_c, 9, 38, 0
9, 16020, Note_on_c, 9, 42, 100
9, 16050, Note_on_c, 9, 36, 100
9, 16079, Note_on_c, 9, 42, 0
9, 16080, Note_on_c, 9, 42, 100
9, 16139, Note_on_c, 9, 36, 0
9, 16139, Note_on_c, 9, 42, 0
9, 16140, Note_on_c, 9, 36, 100
9, 16140, Note_on_c, 9, 42, 100
9, 16199, Note_on_c, 9, 36, 0
9, 16199, Note_on_c, 9, 42, 0
9, 16200, Note_on_c, 9, 42, 100
9, 16200, Note_on_c, 9, 38, 100
9, 16259, Note_on_c, 9, 42, 0
9, 16259, Note_on_c, 9, 38, 0
9, 16260, Note_on_c, 9, 42, 100
9, 16319, Note_on_c, 9, 42, 0
9, 16320, Note_on_c, 9, 42, 100
9, 16320, Note_on_c, 9, 36, 100
9, 16379, Note_on_c, 9, 42, 0
9, 16380, Note_on_c, 9, 42, 100
9, 16439, Note_on_c, 9, 36, 0
9, 16439, Note_on_c, 9, 42, 0
9, 16440, Note_on_c, 9, 42, 100
9, 16440, Note_on_c, 9, 38, 100
9, 16499, Note_on_c, 9, 42, 0
9, 16499, Note_on_c, 9, 38, 0
9, 16500, Note_on_c, 9, 42, 100
9, 16530, Note_on_c, 9, 36, 100
9, 16559, Note_on_c, 9, 42, 0
9, 16560, Note_on_c, 9, 42, 100
9, 16619, Note_on_c, 9, 36, 0
9, 16619, Note_on_c, 9, 42, 0
9, 16620, Note_on_c, 9, 36, 100
9, 16620, Note_on_c, 9, 42, 100
9, 16679, Note_on_c, 9, 36, 0
9, 16679, Note_on_c, 9, 42, 0
9, 16680, Note_on_c, 9, 42, 100
9, 16680, Note_on_c, 9, 38, 100
9, 16739, Note_on_c, 9, 42, 0
9, 16739, Note_on_c, 9, 38, 0
9, 16740, Note_on_c, 9, 42, 100
9, 16799, Note_on_c, 9, 42, 0
9, 16800, Note_on_c, 9, 42, 100
9, 16800, Note_on_c, 9, 36, 100
9, 16859, Note_on_c, 9, 42, 0
9, 16860, Note_on_c, 9, 42, 100
9, 16919, Note_on_c, 9, 36, 0
9, 16919, Note_on_c, 9, 42, 0
9, 16920, Note_on_c, 9, 42, 100
9, 16920, Note_on_c, 9, 38, 100
9, 16979, Note_on_c, 9, 42, 0
9, 16979, Note_on_c, 9, 38, 0
9, 16980, Note_on_c, 9, 42, 100
9, 17010, Note_on_c, 9, 36, 100
9, 17039, Note_on_c, 9, 42, 0
9, 17040, Note_on_c, 9, 42, 100
9, 17099, Note_on_c, 9, 36, 0
9, 17099, Note_on_c, 9, 42, 0
9, 17100, Note_on_c, 9, 36, 100
9, 17100, Note_on_c, 9, 42, 100
9, 17159, Note_on_c, 9, 36, 0
9, 17159, Note_on_c, 9, 42, 0
9, 17160, Note_on_c, 9, 42, 100
9, 17160, Note_on_c, 9, 38, 100
9, 17219, Note_on_c, 9, 42, 0
9, 17219, Note_on_c, 9, 38, 0
9, 17220, Note_on_c, 9, 42, 100
9, 17279, Note_on_c, 9, 42, 0
9, 17280, Note_on_c, 9, 42, 100
9, 17280, Note_on_c, 9, 36, 100
9, 17339, Note_on_c, 9, 42, 0
9, 17340, Note_on_c, 9, 42, 100
9, 17399, Note_on_c, 9, 36, 0
9, 17399, Note_on_c, 9, 42, 0
9, 17400, Note_on_c, 9, 42, 100
9, 17400, Note_on_c, 9, 38, 100
9, 17459, Note_on_c, 9, 42, 0
9, 17459, Note_on_c, 9, 38, 0
9, 17460, Note_on_c, 9, 42, 100
9, 17490, Note_on_c, 9, 36, 100
9, 17519, Note_on_c, 9, 42, 0
9, 17520, Note_on_c, 9, 42, 100
9, 17579, Note_on_c, 9, 36, 0
9, 17579, Note_on_c, 9, 42, 0
9, 17580, Note_on_c, 9, 36, 100
9, 17580, Note_on_c, 9, 42, 100
9, 17639, Note_on_c, 9, 36, 0
9, 17639, Note_on_c, 9, 42, 0
9, 17640, Note_on_c, 9, 42, 100
9, 17640, Note_on_c, 9, 38, 100
9, 17699, Note_on_c, 9, 42, 0
9, 17699, Note_on_c, 9, 38, 0
9, 17700, Note_on_c, 9, 42, 100
9, 17759, Note_on_c, 9, 42, 0
9, 17760, Note_on_c, 9, 42, 100
9, 17760, Note_on_c, 9, 36, 100
9, 17819, Note_on_c, 9, 42, 0
9, 17820, Note_on_c, 9, 42, 100
9, 17879, Note_on_c, 9, 36, 0
9, 17879, Note_on_c, 9, 42, 0
9, 17880, Note_on_c, 9, 42, 100
9, 17880, Note_on_c, 9, 38, 100
9, 17939, Note_on_c, 9, 42, 0
9, 17939, Note_on_c, 9, 38, 0
9, 17940, Note_on_c, 9, 42, 100
9, 17970, Note_on_c, 9, 36, 100
9, 17999, Note_on_c, 9, 42, 0
9, 18000, Note_on_c, 9, 42, 100
9, 18059, Note_on_c, 9, 36, 0
9, 18059, Note_on_c, 9, 42, 0
9, 18060, Note_on_c, 9, 36, 100
9, 18060, Note_on_c, 9, 42, 100
9, 18119, Note_on_c, 9, 36, 0
9, 18119, Note_on_c, 9, 42, 0
9, 18120, Note_on_c, 9, 42, 100
9, 18120, Note_on_c, 9, 38, 100
9, 18179, Note_on_c, 9, 42, 0
9, 18179, Note_on_c, 9, 38, 0
9, 18180, Note_on_c, 9, 42, 100
9, 18239, Note_on_c, 9, 42, 0
9, 18240, Note_on_c, 9, 42, 100
9, 18240, Note_on_c, 9, 36, 100
9, 18299, Note_on_c, 9, 42, 0
9, 18300, Note_on_c, 9, 42, 100
9, 18359, Note_on_c, 9, 36, 0
9, 18359, Note_on_c, 9, 42, 0
9, 18360, Note_on_c, 9, 42, 100
9, 18360, Note_on_c, 9, 38, 100
9, 18419, Note_on_c, 9, 42, 0
9, 18419, Note_on_c, 9, 38, 0
9, 18420, Note_on_c, 9, 42, 100
9, 18450, Note_on_c, 9, 36, 100
9, 18479, Note_on_c, 9, 42, 0
9, 18480, Note_on_c, 9, 42, 100
9, 18539, Note_on_c, 9, 36, 0
9, 18539, Note_on_c, 9, 42, 0
9, 18540, Note_on_c, 9, 36, 100
9, 18540, Note_on_c, 9, 42, 100
9, 18599, Note_on_c, 9, 36, 0
9, 18599, Note_on_c, 9, 42, 0
9, 18600, Note_on_c, 9, 42, 100
9, 18600, Note_on_c, 9, 38, 100
9, 18659, Note_on_c, 9, 42, 0
9, 18659, Note_on_c, 9, 38, 0
9, 18660, Note_on_c, 9, 42, 100
9, 18719, Note_on_c, 9, 42, 0
9, 18720, Note_on_c, 9, 42, 100
9, 18720, Note_on_c, 9, 36, 100
9, 18779, Note_on_c, 9, 42, 0
9, 18780, Note_on_c, 9, 42, 100
9, 18839, Note_on_c, 9, 36, 0
9, 18839, Note_on_c, 9, 42, 0
9, 18840, Note_on_c, 9, 42, 100
9, 18840, Note_on_c, 9, 38, 100
9, 18899, Note_on_c, 9, 42, 0
9, 18899, Note_on_c, 9, 38, 0
9, 18900, Note_on_c, 9, 42, 100
9, 18930, Note_on_c, 9, 36, 100
9, 18959, Note_on_c, 9, 42, 0
9, 18960, Note_on_c, 9, 42, 100
9, 19019, Note_on_c, 9, 36, 0
9, 19019, Note_on_c, 9, 42, 0
9, 19020, Note_on_c, 9, 36, 100
9, 19020, Note_on_c, 9, 42, 100
9, 19079, Note_on_c, 9, 36, 0
9, 19079, Note_on_c, 9, 42, 0
9, 19080, Note_on_c, 9, 42, 100
9, 19080, Note_on_c, 9, 38, 100
9, 19139, Note_on_c, 9, 42, 0
9, 19139, Note_on_c, 9, 38, 0
9, 19140, Note_on_c, 9, 42, 100
9, 19199, Note_on_c, 9, 42, 0
9, 19200, Note_on_c, 9, 42, 100
9, 19200, Note_on_c, 9, 36, 100
9, 19259, Note_on_c, 9, 42, 0
9, 19260, Note_on_c, 9, 42, 100
9, 19319, Note_on_c, 9, 36, 0
9, 19319, Note_on_c, 9, 42, 0
9, 19320, Note_on_c, 9, 42, 100
9, 19320, Note_on_c, 9, 38, 100
9, 19379, Note_on_c, 9, 42, 0
9, 19379, Note_on_c, 9, 38, 0
9, 19380, Note_on_c, 9, 42, 100
9, 19410, Note_on_c, 9, 36, 100
9, 19439, Note_on_c, 9, 42, 0
9, 19440, Note_on_c, 9, 42, 100
9, 19499, Note_on_c, 9, 36, 0
9, 19499, Note_on_c, 9, 42, 0
9, 19500, Note_on_c, 9, 36, 100
9, 19500, Note_on_c, 9, 42, 100
9, 19559, Note_on_c, 9, 36, 0
9, 19559, Note_on_c, 9, 42, 0
9, 19560, Note_on_c, 9, 42, 100
9, 19560, Note_on_c, 9, 38, 100
9, 19619, Note_on_c, 9, 42, 0
9, 19619, Note_on_c, 9, 38, 0
9, 19620, Note_on_c, 9, 42, 100
9, 19679, Note_on_c, 9, 42, 0
9, 19680, Note_on_c, 9, 57, 100
9, 19680, Note_on_c, 9, 36, 100
9, 19799, Note_on_c, 9, 57, 0
9, 19799, Note_on_c, 9, 36, 0
9, 19800, Note_on_c, 9, 38, 100
9, 19800, Note_on_c, 9, 42, 100
9, 19859, Note_on_c, 9, 38, 0
9, 19859, Note_on_c, 9, 42, 0
9, 19860, Note_on_c, 9, 42, 100
9, 19890, Note_on_c, 9, 36, 100
9, 19919, Note_on_c, 9, 42, 0
9, 19920, Note_on_c, 9, 42, 100
9, 19979, Note_on_c, 9, 36, 0
9, 19979, Note_on_c, 9, 42, 0
9, 19980, Note_on_c, 9, 42, 100
9, 19980, Note_on_c, 9, 36, 100
9, 20009, Note_on_c, 9, 36, 0
9, 20010, Note_on_c, 9, 36, 100
9, 20039, Note_on_c, 9, 42, 0
9, 20039, Note_on_c, 9, 36, 0
9, 20040, Note_on_c, 9, 42, 100
9, 20040, Note_on_c, 9, 38, 100
9, 20099, Note_on_c, 9, 42, 0
9, 20099, Note_on_c, 9, 38, 0
9, 20100, Note_on_c, 9, 42, 100
9, 20130, Note_on_c, 9, 36, 100
9, 20159, Note_on_c, 9, 42, 0
9, 20159, Note_on_c, 9, 36, 0
9, 20160, Note_on_c, 9, 38, 100
9, 20189, Note_on_c, 9, 38, 0
9, 20190, Note_on_c, 9, 57, 100
9, 20190, Note_on_c, 9, 36, 100
9, 20249, Note_on_c, 9, 36, 0
9, 20250, Note_on_c, 9, 36, 100
9, 20279, Note_on_c, 9, 57, 0
9, 20279, Note_on_c, 9, 36, 0
9, 20280, Note_on_c, 9, 38, 100
9, 20309, Note_on_c, 9, 38, 0
9, 20310, Note_on_c, 9, 57, 100
9, 20310, Note_on_c, 9, 36, 100
9, 20369, Note_on_c, 9, 36, 0
9, 20370, Note_on_c, 9, 36, 100
9, 20399, Note_on_c, 9, 57, 0
9, 20399, Note_on_c, 9, 36, 0
9, 20400, Note_on_c, 9, 38, 100
9, 20429, Note_on_c, 9, 38, 0
9, 20430, Note_on_c, 9, 57, 100
9, 20430, Note_on_c, 9, 36, 100
9, 20489, Note_on_c, 9, 36, 0
9, 20490, Note_on_c, 9, 36, 100
9, 20519, Note_on_c, 9, 57, 0
9, 20519, Note_on_c, 9, 36, 0
9, 20520, Note_on_c, 9, 38, 100
9, 20549, Note_on_c, 9, 38, 0
9, 20550, Note_on_c, 9, 57, 100
9, 20550, Note_on_c, 9, 36, 100
9, 20610, Note_on_c, 9, 38, 100
9, 20639, Note_on_c, 9, 57, 0
9, 20639, Note_on_c, 9, 36, 0
9, 20639, Note_on_c, 9, 38, 0
9, 20640, Note_on_c, 9, 36, 100
9, 20640, Note_on_c, 9, 57, 100
9, 20759, Note_on_c, 9, 36, 0
9, 20759, Note_on_c, 9, 57, 0
9, 20760, Note_on_c, 9, 42, 100
9, 20760, Note_on_c, 9, 38, 100
9, 20819, Note_on_c, 9, 42, 0
9, 20819, Note_on_c, 9, 38, 0
9, 20820, Note_on_c, 9, 42, 100
9, 20850, Note_on_c, 9, 36, 100
9, 20879, Note_on_c, 9, 42, 0
9, 20880, Note_on_c, 9, 42, 100
9, 20939, Note_on_c, 9, 36, 0
9, 20939, Note_on_c, 9, 42, 0
9, 20940, Note_on_c, 9, 36, 100
9, 20940, Note_on_c, 9, 42, 100
9, 20969, Note_on_c, 9, 36, 0
9, 20970, Note_on_c, 9, 36, 100
9, 20999, Note_on_c, 9, 42, 0
9, 20999, Note_on_c, 9, 36, 0
9, 21000, Note_on_c, 9, 42, 100
9, 21000, Note_on_c, 9, 38, 100
9, 21059, Note_on_c, 9, 42, 0
9, 21059, Note_on_c, 9, 38, 0
9, 21060, Note_on_c, 9, 42, 100
9, 21119, Note_on_c, 9, 42, 0
9, 21120, Note_on_c, 9, 38, 100
9, 21149, Note_on_c, 9, 38, 0
9, 21150, Note_on_c, 9, 57, 100
9, 21150, Note_on_c, 9, 36, 100
9, 21239, Note_on_c, 9, 57, 0
9, 21239, Note_on_c, 9, 36, 0
9, 21240, Note_on_c, 9, 38, 100
9, 21269, Note_on_c, 9, 38, 0
9, 21270, Note_on_c, 9, 57, 100
9, 21270, Note_on_c, 9, 36, 100
9, 21359, Note_on_c, 9, 57, 0
9, 21359, Note_on_c, 9, 36, 0
9, 21360, Note_on_c, 9, 38, 100
9, 21389, Note_on_c, 9, 38, 0
9, 21390, Note_on_c, 9, 57, 100
9, 21390, Note_on_c, 9, 36, 100
9, 21479, Note_on_c, 9, 57, 0
9, 21479, Note_on_c, 9, 36, 0
9, 21480, Note_on_c, 9, 38, 100
9, 21509, Note_on_c, 9, 38, 0
9, 21510, Note_on_c, 9, 57, 100
9, 21510, Note_on_c, 9, 36, 100
9, 21599, Note_on_c, 9, 36, 0
9, 22079, Note_on_c, 9, 57, 0
9, 22560, Note_on_c, 9, 49, 100
9, 22560, Note_on_c, 9, 36, 100
9, 22679, Note_on_c, 9, 36, 0
9, 22799, Note_on_c, 9, 49, 0
9, 22800, Note_on_c, 9, 49, 100
9, 22800, Note_on_c, 9, 36, 100
9, 22919, Note_on_c, 9, 36, 0
9, 23039, Note_on_c, 9, 49, 0
9, 23040, Note_on_c, 9, 57, 100
9, 23040, Note_on_c, 9, 36, 100
9, 23219, Note_on_c, 9, 57, 0
9, 23219, Note_on_c, 9, 36, 0
9, 23220, Note_on_c, 9, 36, 100
9, 23220, Note_on_c, 9, 57, 100
9, 23279, Note_on_c, 9, 36, 0
9, 23279, Note_on_c, 9, 57, 0
9, 23280, Note_on_c, 9, 36, 100
9, 23280, Note_on_c, 9, 57, 100
9, 23339, Note_on_c, 9, 36, 0
9, 23339, Note_on_c, 9, 57, 0
9, 23340, Note_on_c, 9, 36, 100
9, 23340, Note_on_c, 9, 57, 100
9, 23399, Note_on_c, 9, 36, 0
9, 23399, Note_on_c, 9, 57, 0
9, 23400, Note_on_c, 9, 38, 100
9, 23400, Note_on_c, 9, 57, 100
9, 23459, Note_on_c, 9, 38, 0
9, 23459, Note_on_c, 9, 57, 0
9, 23460, Note_on_c, 9, 38, 100
9, 23460, Note_on_c, 9, 57, 100
9, 23519, Note_on_c, 9, 38, 0
9, 23519, Note_on_c, 9, 57, 0
9, 23520, Note_on_c, 9, 42, 100
9, 23520, Note_on_c, 9, 36, 100
9, 23579, Note_on_c, 9, 42, 0
9, 23579, Note_on_c, 9, 36, 0
9, 23580, Note_on_c, 9, 42, 100
9, 23580, Note_on_c, 9, 36, 100
9, 23609, Note_on_c, 9, 36, 0
9, 23610, Note_on_c, 9, 36, 100
9, 23639, Note_on_c, 9, 42, 0
9, 23639, Note_on_c, 9, 36, 0
9, 23640, Note_on_c, 9, 42, 100
9, 23640, Note_on_c, 9, 38, 100
9, 23699, Note_on_c, 9, 42, 0
9, 23699, Note_on_c, 9, 38, 0
9, 23700, Note_on_c, 9, 42, 100
9, 23730, Note_on_c, 9, 36, 100
9, 23759, Note_on_c, 9, 42, 0
9, 23759, Note_on_c, 9, 36, 0
9, 23760, Note_on_c, 9, 42, 100
9, 23760, Note_on_c, 9, 36, 100
9, 23789, Note_on_c, 9, 36, 0
9, 23790, Note_on_c, 9, 36, 100
9, 23819, Note_on_c, 9, 42, 0
9, 23819, Note_on_c, 9, 36, 0
9, 23820, Note_on_c, 9, 42, 100
9, 23820, Note_on_c, 9, 36, 100
9, 23849, Note_on_c, 9, 36, 0
9, 23850, Note_on_c, 9, 36, 100
9, 23879, Note_on_c, 9, 42, 0
9, 23879, Note_on_c, 9, 36, 0
9, 23880, Note_on_c, 9, 42, 100
9, 23880, Note_on_c, 9, 38, 100
9, 23910, Note_on_c, 9, 36, 100
9, 23939, Note_on_c, 9, 42, 0
9, 23939, Note_on_c, 9, 38, 0
9, 23939, Note_on_c, 9, 36, 0
9, 23940, Note_on_c, 9, 42, 100
9, 23940, Note_on_c, 9, 36, 100
9, 23969, Note_on_c, 9, 36, 0
9, 23970, Note_on_c, 9, 36, 100
9, 23999, Note_on_c, 9, 42, 0
9, 23999, Note_on_c, 9, 36, 0
9, 24000, Note_on_c, 9, 42, 100
9, 24000, Note_on_c, 9, 36, 100
9, 24059, Note_on_c, 9, 42, 0
9, 24059, Note_on_c, 9, 36, 0
9, 24060, Note_on_c, 9, 42, 100
9, 24060, Note_on_c, 9, 36, 100
9, 24089, Note_on_c, 9, 36, 0
9, 24090, Note_on_c, 9, 36, 100
9, 24119, Note_on_c, 9, 42, 0
9, 24119, Note_on_c, 9, 36, 0
9, 24120, Note_on_c, 9, 42, 100
9, 24120, Note_on_c, 9, 38, 100
9, 24179, Note_on_c, 9, 42, 0
9, 24179, Note_on_c, 9, 38, 0
9, 24180, Note_on_c, 9, 42, 100
9, 24210, Note_on_c, 9, 36, 100
9, 24239, Note_on_c, 9, 42, 0
9, 24239, Note_on_c, 9, 36, 0
9, 24240, Note_on_c, 9, 42, 100
9, 24240, Note_on_c, 9, 36, 100
9, 24269, Note_on_c, 9, 36, 0
9, 24270, Note_on_c, 9, 36, 100
9, 24299, Note_on_c, 9, 42, 0
9, 24299, Note_on_c, 9, 36, 0
9, 24300, Note_on_c, 9, 42, 100
9, 24300, Note_on_c, 9, 36, 100
9, 24329, Note_on_c, 9, 36, 0
9, 24330, Note_on_c, 9, 36, 100
9, 24359, Note_on_c, 9, 42, 0
9, 24359, Note_on_c, 9, 36, 0
9, 24360, Note_on_c, 9, 42, 100
9, 24360, Note_on_c, 9, 38, 100
9, 24390, Note_on_c, 9, 36, 100
9, 24419, Note_on_c, 9, 42, 0
9, 24419, Note_on_c, 9, 38, 0
9, 24419, Note_on_c, 9, 36, 0
9, 24420, Note_on_c, 9, 42, 100
9, 24420, Note_on_c, 9, 36, 100
9, 24449, Note_on_c, 9, 36, 0
9, 24450, Note_on_c, 9, 36, 100
9, 24479, Note_on_c, 9, 42, 0
9, 24479, Note_on_c, 9, 36, 0
9, 24480, Note_on_c, 9, 49, 100
9, 24480, Note_on_c, 9, 36, 100
9, 24539, Note_on_c, 9, 36, 0
9, 24540, Note_on_c, 9, 36, 100
9, 24569, Note_on_c, 9, 36, 0
9, 24570, Note_on_c, 9, 36, 100
9, 24599, Note_on_c, 9, 49, 0
9, 24599, Note_on_c, 9, 36, 0
9, 24600, Note_on_c, 9, 42, 100
9, 24600, Note_on_c, 9, 38, 100
9, 24659, Note_on_c, 9, 42, 0
9, 24659, Note_on_c, 9, 38, 0
9, 24660, Note_on_c, 9, 42, 100
9, 24690, Note_on_c, 9, 36, 100
9, 24719, Note_on_c, 9, 42, 0
9, 24719, Note_on_c, 9, 36, 0
9, 24720, Note_on_c, 9, 42, 100
9, 24720, Note_on_c, 9, 36, 100
9, 24749, Note_on_c, 9, 36, 0
9, 24750, Note_on_c, 9, 36, 100
9, 24779, Note_on_c, 9, 42, 0
9, 24779, Note_on_c, 9, 36, 0
9, 24780, Note_on_c, 9, 42, 100
9, 24780, Note_on_c, 9, 36, 100
9, 24809, Note_on_c, 9, 36, 0
9, 24810, Note_on_c, 9, 36, 100
9, 24839, Note_on_c, 9, 42, 0
9, 24839, Note_on_c, 9, 36, 0
9, 24840, Note_on_c, 9, 42, 100
9, 24840, Note_on_c, 9, 38, 100
9, 24870, Note_on_c, 9, 36, 100
9, 24899, Note_on_c, 9, 42, 0
9, 24899, Note_on_c, 9, 38, 0
9, 24899, Note_on_c, 9, 36, 0
9, 24900, Note_on_c, 9, 42, 100
9, 24900, Note_on_c, 9, 36, 100
9, 24929, Note_on_c, 9, 36, 0
9, 24930, Note_on_c, 9, 36, 100
9, 24959, Note_on_c, 9, 42, 0
9, 24959, Note_on_c, 9, 36, 0
9, 24960, Note_on_c, 9, 36, 100
9, 24960, Note_on_c, 9, 42, 100
9, 25019, Note_on_c, 9, 36, 0
9, 25019, Note_on_c, 9, 42, 0
9, 25020, Note_on_c, 9, 42, 100
9, 25020, Note_on_c, 9, 36, 100
9, 25049, Note_on_c, 9, 36, 0
9, 25050, Note_on_c, 9, 36, 100
9, 25079, Note_on_c, 9, 42, 0
9, 25079, Note_on_c, 9, 36, 0
9, 25080, Note_on_c, 9, 42, 100
9, 25080, Note_on_c, 9, 38, 100
9, 25139, Note_on_c, 9, 42, 0
9, 25139, Note_on_c, 9, 38, 0
9, 25140, Note_on_c, 9, 42, 100
9, 25170, Note_on_c, 9, 36, 100
9, 25199, Note_on_c, 9, 42, 0
9, 25199, Note_on_c, 9, 36, 0
9, 25200, Note_on_c, 9, 42, 100
9, 25200, Note_on_c, 9, 36, 100
9, 25229, Note_on_c, 9, 36, 0
9, 25230, Note_on_c, 9, 36, 100
9, 25259, Note_on_c, 9, 42, 0
9, 25259, Note_on_c, 9, 36, 0
9, 25260, Note_on_c, 9, 42, 100
9, 25260, Note_on_c, 9, 36, 100
9, 25289, Note_on_c, 9, 36, 0
9, 25290, Note_on_c, 9, 36, 100
9, 25319, Note_on_c, 9, 42, 0
9, 25319, Note_on_c, 9, 36, 0
9, 25320, Note_on_c, 9, 38, 100
9, 25350, Note_on_c, 9, 36, 100
9, 25379, Note_on_c, 9, 38, 0
9, 25379, Note_on_c, 9, 36, 0
9, 25380, Note_on_c, 9, 45, 100
9, 25380, Note_on_c, 9, 36, 100
9, 25409, Note_on_c, 9, 45, 0
9, 25409, Note_on_c, 9, 36, 0
9, 25410, Note_on_c, 9, 45, 100
9, 25410, Note_on_c, 9, 36, 100
9, 25439, Note_on_c, 9, 45, 0
9, 25439, Note_on_c, 9, 36, 0
9, 25440, Note_on_c, 9, 49, 100
9, 25440, Note_on_c, 9, 36, 100
9, 25499, Note_on_c, 9, 36, 0
9, 25500, Note_on_c, 9, 36, 100
9, 25529, Note_on_c, 9, 36, 0
9, 25530, Note_on_c, 9, 36, 100
9, 25559, Note_on_c, 9, 49, 0
9, 25559, Note_on_c, 9, 36, 0
9, 25560, Note_on_c, 9, 38, 100
9, 25560, Note_on_c, 9, 42, 100
9, 25619, Note_on_c, 9, 38, 0
9, 25619, Note_on_c, 9, 42, 0
9, 25620, Note_on_c, 9, 42, 100
9, 25650, Note_on_c, 9, 36, 100
9, 25679, Note_on_c, 9, 42, 0
9, 25679, Note_on_c, 9, 36, 0
9, 25680, Note_on_c, 9, 42, 100
9, 25680, Note_on_c, 9, 36, 100
9, 25709, Note_on_c, 9, 36, 0
9, 25710, Note_on_c, 9, 36, 100
9, 25739, Note_on_c, 9, 42, 0
9, 25739, Note_on_c, 9, 36, 0
9, 25740, Note_on_c, 9, 42, 100
9, 25740, Note_on_c, 9, 36, 100
9, 25769, Note_on_c, 9, 36, 0
9, 25770, Note_on_c, 9, 36, 100
9, 25799, Note_on_c, 9, 42, 0
9, 25799, Note_on_c, 9, 36, 0
9, 25800, Note_on_c, 9, 38, 100
9, 25800, Note_on_c, 9, 42, 100
9, 25859, Note_on_c, 9, 38, 0
9, 25859, Note_on_c, 9, 42, 0
9, 25860, Note_on_c, 9, 42, 100
9, 25890, Note_on_c, 9, 36, 100
9, 25919, Note_on_c, 9, 42, 0
9, 25919, Note_on_c, 9, 36, 0
9, 25920, Note_on_c, 9, 42, 100
9, 25920, Note_on_c, 9, 36, 100
9, 25979, Note_on_c, 9, 42, 0
9, 25979, Note_on_c, 9, 36, 0
9, 25980, Note_on_c, 9, 42, 100
9, 25980, Note_on_c, 9, 36, 100
9, 26009, Note_on_c, 9, 36, 0
9, 26010, Note_on_c, 9, 36, 100
9, 26039, Note_on_c, 9, 42, 0
9, 26039, Note_on_c, 9, 36, 0
9, 26040, Note_on_c, 9, 42, 100
9, 26040, Note_on_c, 9, 38, 100
9, 26099, Note_on_c, 9, 42, 0
9, 26099, Note_on_c, 9, 38, 0
9, 26100, Note_on_c, 9, 42, 100
9, 26129, Note_on_c, 9, 42, 0
9, 26130, Note_on_c, 9, 36, 100
9, 26145, Note_on_c, 9, 38, 100
9, 26159, Note_on_c, 9, 36, 0
9, 26159, Note_on_c, 9, 38, 0
9, 26160, Note_on_c, 9, 38, 100
9, 26189, Note_on_c, 9, 38, 0
9, 26190, Note_on_c, 9, 38, 100
9, 26219, Note_on_c, 9, 38, 0
9, 26220, Note_on_c, 9, 38, 100
9, 26249, Note_on_c, 9, 38, 0
9, 26250, Note_on_c, 9, 38, 100
9, 26279, Note_on_c, 9, 38, 0
9, 26280, Note_on_c, 9, 38, 100
9, 26309, Note_on_c, 9, 38, 0
9, 26310, Note_on_c, 9, 43, 100
9, 26339, Note_on_c, 9, 43, 0
9, 26340, Note_on_c, 9, 41, 100
9, 26369, Note_on_c, 9, 41, 0
9, 26370, Note_on_c, 9, 41, 100
9, 26399, Note_on_c, 9, 41, 0
9, 26400, Note_on_c, 9, 49, 100
9, 26400, Note_on_c, 9, 36, 100
9, 26459, Note_on_c, 9, 36, 0
9, 26460, Note_on_c, 9, 36, 100
9, 26489, Note_on_c, 9, 36, 0
9, 26490, Note_on_c, 9, 36, 100
9, 26519, Note_on_c, 9, 49, 0
9, 26519, Note_on_c, 9, 36, 0
9, 26520, Note_on_c, 9, 38, 100
9, 26520, Note_on_c, 9, 42, 100
9, 26579, Note_on_c, 9, 38, 0
9, 26579, Note_on_c, 9, 42, 0
9, 26580, Note_on_c, 9, 42, 100
9, 26610, Note_on_c, 9, 36, 100
9, 26639, Note_on_c, 9, 42, 0
9, 26639, Note_on_c, 9, 36, 0
9, 26640, Note_on_c, 9, 42, 100
9, 26640, Note_on_c, 9, 36, 100
9, 26669, Note_on_c, 9, 36, 0
9, 26670, Note_on_c, 9, 36, 100
9, 26699, Note_on_c, 9, 42, 0
9, 26699, Note_on_c, 9, 36, 0
9, 26700, Note_on_c, 9, 42, 100
9, 26700, Note_on_c, 9, 36, 100
9, 26729, Note_on_c, 9, 36, 0
9, 26730, Note_on_c, 9, 36, 100
9, 26759, Note_on_c, 9, 42, 0
9, 26759, Note_on_c, 9, 36, 0
9, 26760, Note_on_c, 9, 38, 100
9, 26760, Note_on_c, 9, 42, 100
9, 26819, Note_on_c, 9, 38, 0
9, 26819, Note_on_c, 9, 42, 0
9, 26820, Note_on_c, 9, 42, 100
9, 26850, Note_on_c, 9, 36, 100
9, 26879, Note_on_c, 9, 42, 0
9, 26879, Note_on_c, 9, 36, 0
9, 26880, Note_on_c, 9, 42, 100
9, 26880, Note_on_c, 9, 36, 100
9, 26939, Note_on_c, 9, 42, 0
9, 26940, Note_on_c, 9, 42, 100
9, 26969, Note_on_c, 9, 36, 0
9, 26970, Note_on_c, 9, 36, 100
9, 26999, Note_on_c, 9, 42, 0
9, 26999, Note_on_c, 9, 36, 0
9, 27000, Note_on_c, 9, 42, 100
9, 27059, Note_on_c, 9, 42, 0
9, 27060, Note_on_c, 9, 42, 100
9, 27119, Note_on_c, 9, 42, 0
9, 27120, Note_on_c, 9, 42, 100
9, 27120, Note_on_c, 9, 36, 100
9, 27179, Note_on_c, 9, 42, 0
9, 27179, Note_on_c, 9, 36, 0
9, 27180, Note_on_c, 9, 42, 100
9, 27180, Note_on_c, 9, 36, 100
9, 27209, Note_on_c, 9, 42, 0
9, 27210, Note_on_c, 9, 38, 100
9, 27239, Note_on_c, 9, 36, 0
9, 27239, Note_on_c, 9, 38, 0
9, 27240, Note_on_c, 9, 42, 100
9, 27270, Note_on_c, 9, 36, 100
9, 27299, Note_on_c, 9, 42, 0
9, 27300, Note_on_c, 9, 38, 100
9, 27329, Note_on_c, 9, 38, 0
9, 27330, Note_on_c, 9, 38, 100
9, 27359, Note_on_c, 9, 36, 0
9, 27359, Note_on_c, 9, 38, 0
9, 27360, Note_on_c, 9, 42, 100
9, 27360, Note_on_c, 9, 36, 100
9, 27419, Note_on_c, 9, 42, 0
9, 27420, Note_on_c, 9, 42, 100
9, 27479, Note_on_c, 9, 36, 0
9, 27479, Note_on_c, 9, 42, 0
9, 27480, Note_on_c, 9, 42, 100
9, 27480, Note_on_c, 9, 38, 100
9, 27539, Note_on_c, 9, 42, 0
9, 27539, Note_on_c, 9, 38, 0
9, 27540, Note_on_c, 9, 42, 100
9, 27570, Note_on_c, 9, 36, 100
9, 27599, Note_on_c, 9, 42, 0
9, 27600, Note_on_c, 9, 42, 100
9, 27659, Note_on_c, 9, 36, 0
9, 27659, Note_on_c, 9, 42, 0
9, 27660, Note_on_c, 9, 36, 100
9, 27660, Note_on_c, 9, 42, 100
9, 27719, Note_on_c, 9, 36, 0
9, 27719, Note_on_c, 9, 42, 0
9, 27720, Note_on_c, 9, 42, 100
9, 27720, Note_on_c, 9, 38, 100
9, 27779, Note_on_c, 9, 42, 0
9, 27779, Note_on_c, 9, 38, 0
9, 27780, Note_on_c, 9, 42, 100
9, 27839, Note_on_c, 9, 42, 0
9, 27840, Note_on_c, 9, 42, 100
9, 27840, Note_on_c, 9, 36, 100
9, 27899, Note_on_c, 9, 42, 0
9, 27900, Note_on_c, 9, 42, 100
9, 27959, Note_on_c, 9, 36, 0
9, 27959, Note_on_c, 9, 42, 0
9, 27960, Note_on_c, 9, 42, 100
9, 27960, Note_on_c, 9, 38, 100
9, 28019, Note_on_c, 9, 42, 0
9, 28019, Note_on_c, 9, 38, 0
9, 28020, Note_on_c, 9, 42, 100
9, 28050, Note_on_c, 9, 36, 100
9, 28079, Note_on_c, 9, 42, 0
9, 28080, Note_on_c, 9, 42, 100
9, 28139, Note_on_c, 9, 36, 0
9, 28139, Note_on_c, 9, 42, 0
9, 28140, Note_on_c, 9, 36, 100
9, 28140, Note_on_c, 9, 42, 100
9, 28199, Note_on_c, 9, 36, 0
9, 28199, Note_on_c, 9, 42, 0
9, 28200, Note_on_c, 9, 42, 100
9, 28200, Note_on_c, 9, 38, 100
9, 28259, Note_on_c, 9, 42, 0
9, 28259, Note_on_c, 9, 38, 0
9, 28260, Note_on_c, 9, 42, 100
9, 28319, Note_on_c, 9, 42, 0
9, 28320, Note_on_c, 9, 42, 100
9, 28320, Note_on_c, 9, 36, 100
9, 28379, Note_on_c, 9, 42, 0
9, 28380, Note_on_c, 9, 42, 100
9, 28439, Note_on_c, 9, 36, 0
9, 28439, Note_on_c, 9, 42, 0
9, 28440, Note_on_c, 9, 42, 100
9, 28440, Note_on_c, 9, 38, 100
9, 28499, Note_on_c, 9, 42, 0
9, 28499, Note_on_c, 9, 38, 0
9, 28500, Note_on_c, 9, 42, 100
9, 28530, Note_on_c, 9, 36, 100
9, 28559, Note_on_c, 9, 42, 0
9, 28560, Note_on_c, 9, 42, 100
9, 28619, Note_on_c, 9, 36, 0
9, 28619, Note_on_c, 9, 42, 0
9, 28620, Note_on_c, 9, 36, 100
9, 28620, Note_on_c, 9, 42, 100
9, 28679, Note_on_c, 9, 36, 0
9, 28679, Note_on_c, 9, 42, 0
9, 28680, Note_on_c, 9, 42, 100
9, 28680, Note_on_c, 9, 38, 100
9, 28739, Note_on_c, 9, 42, 0
9, 28739, Note_on_c, 9, 38, 0
9, 28740, Note_on_c, 9, 42, 100
9, 28799, Note_on_c, 9, 42, 0
9, 28800, Note_on_c, 9, 42, 100
9, 28800, Note_on_c, 9, 36, 100
9, 28859, Note_on_c, 9, 42, 0
9, 28860, Note_on_c, 9, 42, 100
9, 28919, Note_on_c, 9, 36, 0
9, 28919, Note_on_c, 9, 42, 0
9, 28920, Note_on_c, 9, 42, 100
9, 28920, Note_on_c, 9, 38, 100
9, 28979, Note_on_c, 9, 42, 0
9, 28979, Note_on_c, 9, 38, 0
9, 28980, Note_on_c, 9, 42, 100
9, 29010, Note_on_c, 9, 36, 100
9, 29039, Note_on_c, 9, 42, 0
9, 29040, Note_on_c, 9, 42, 100
9, 29099, Note_on_c, 9, 36, 0
9, 29099, Note_on_c, 9, 42, 0
9, 29100, Note_on_c, 9, 36, 100
9, 29100, Note_on_c, 9, 42, 100
9, 29129, Note_on_c, 9, 36, 0
9, 29130, Note_on_c, 9, 36, 100
9, 29159, Note_on_c, 9, 42, 0
9, 29159, Note_on_c, 9, 36, 0
9, 29160, Note_on_c, 9, 42, 100
9, 29160, Note_on_c, 9, 38, 100
9, 29219, Note_on_c, 9, 42, 0
9, 29219, Note_on_c, 9, 38, 0
9, 29220, Note_on_c, 9, 42, 100
9, 29279, Note_on_c, 9, 42, 0
9, 29280, Note_on_c, 9, 42, 100
9, 29280, Note_on_c, 9, 36, 100
9, 29339, Note_on_c, 9, 42, 0
9, 29340, Note_on_c, 9, 42, 100
9, 29399, Note_on_c, 9, 36, 0
9, 29399, Note_on_c, 9, 42, 0
9, 29400, Note_on_c, 9, 42, 100
9, 29400, Note_on_c, 9, 38, 100
9, 29459, Note_on_c, 9, 42, 0
9, 29459, Note_on_c, 9, 38, 0
9, 29460, Note_on_c, 9, 42, 100
9, 29490, Note_on_c, 9, 36, 100
9, 29519, Note_on_c, 9, 42, 0
9, 29520, Note_on_c, 9, 42, 100
9, 29579, Note_on_c, 9, 36, 0
9, 29579, Note_on_c, 9, 42, 0
9, 29580, Note_on_c, 9, 36, 100
9, 29580, Note_on_c, 9, 42, 100
9, 29609, Note_on_c, 9, 36, 0
9, 29610, Note_on_c, 9, 36, 100
9, 29639, Note_on_c, 9, 42, 0
9, 29639, Note_on_c, 9, 36, 0
9, 29640, Note_on_c, 9, 42, 100
9, 29640, Note_on_c, 9, 38, 100
9, 29699, Note_on_c, 9, 42, 0
9, 29699, Note_on_c, 9, 38, 0
9, 29700, Note_on_c, 9, 42, 100
9, 29759, Note_on_c, 9, 42, 0
9, 29760, Note_on_c, 9, 42, 100
9, 29760, Note_on_c, 9, 36, 100
9, 29819, Note_on_c, 9, 42, 0
9, 29820, Note_on_c, 9, 42, 100
9, 29879, Note_on_c, 9, 36, 0
9, 29879, Note_on_c, 9, 42, 0
9, 29880, Note_on_c, 9, 42, 100
9, 29880, Note_on_c, 9, 38, 100
9, 29939, Note_on_c, 9, 42, 0
9, 29939, Note_on_c, 9, 38, 0
9, 29940, Note_on_c, 9, 42, 100
9, 29970, Note_on_c, 9, 36, 100
9, 29999, Note_on_c, 9, 42, 0
9, 30000, Note_on_c, 9, 42, 100
9, 30059, Note_on_c, 9, 36, 0
9, 30059, Note_on_c, 9, 42, 0
9, 30060, Note_on_c, 9, 36, 100
9, 30060, Note_on_c, 9, 42, 100
9, 30119, Note_on_c, 9, 36, 0
9, 30119, Note_on_c, 9, 42, 0
9, 30120, Note_on_c, 9, 42, 100
9, 30120, Note_on_c, 9, 38, 100
9, 30179, Note_on_c, 9, 42, 0
9, 30179, Note_on_c, 9, 38, 0
9, 30180, Note_on_c, 9, 42, 100
9, 30239, Note_on_c, 9, 42, 0
9, 30240, Note_on_c, 9, 42, 100
9, 30240, Note_on_c, 9, 36, 100
9, 30299, Note_on_c, 9, 42, 0
9, 30300, Note_on_c, 9, 42, 100
9, 30359, Note_on_c, 9, 36, 0
9, 30359, Note_on_c, 9, 42, 0
9, 30360, Note_on_c, 9, 42, 100
9, 30360, Note_on_c, 9, 38, 100
9, 30419, Note_on_c, 9, 42, 0
9, 30419, Note_on_c, 9, 38, 0
9, 30420, Note_on_c, 9, 42, 100
9, 30450, Note_on_c, 9, 36, 100
9, 30479, Note_on_c, 9, 42, 0
9, 30480, Note_on_c, 9, 42, 100
9, 30539, Note_on_c, 9, 36, 0
9, 30539, Note_on_c, 9, 42, 0
9, 30540, Note_on_c, 9, 36, 100
9, 30540, Note_on_c, 9, 42, 100
9, 30599, Note_on_c, 9, 36, 0
9, 30599, Note_on_c, 9, 42, 0
9, 30600, Note_on_c, 9, 42, 100
9, 30600, Note_on_c, 9, 38, 100
9, 30659, Note_on_c, 9, 42, 0
9, 30659, Note_on_c, 9, 38, 0
9, 30660, Note_on_c, 9, 42, 100
9, 30719, Note_on_c, 9, 42, 0
9, 30720, Note_on_c, 9, 42, 100
9, 30720, Note_on_c, 9, 36, 100
9, 30779, Note_on_c, 9, 42, 0
9, 30780, Note_on_c, 9, 42, 100
9, 30839, Note_on_c, 9, 36, 0
9, 30839, Note_on_c, 9, 42, 0
9, 30840, Note_on_c, 9, 42, 100
9, 30840, Note_on_c, 9, 38, 100
9, 30899, Note_on_c, 9, 42, 0
9, 30899, Note_on_c, 9, 38, 0
9, 30900, Note_on_c, 9, 42, 100
9, 30930, Note_on_c, 9, 36, 100
9, 30959, Note_on_c, 9, 42, 0
9, 30960, Note_on_c, 9, 42, 100
9, 31019, Note_on_c, 9, 36, 0
9, 31019, Note_on_c, 9, 42, 0
9, 31020, Note_on_c, 9, 36, 100
9, 31020, Note_on_c, 9, 42, 100
9, 31079, Note_on_c, 9, 36, 0
9, 31079, Note_on_c, 9, 42, 0
9, 31080, Note_on_c, 9, 42, 100
9, 31080, Note_on_c, 9, 38, 100
9, 31139, Note_on_c, 9, 42, 0
9, 31139, Note_on_c, 9, 38, 0
9, 31140, Note_on_c, 9, 42, 100
9, 31199, Note_on_c, 9, 42, 0
9, 31200, Note_on_c, 9, 42, 100
9, 31200, Note_on_c, 9, 36, 100
9, 31259, Note_on_c, 9, 42, 0
9, 31260, Note_on_c, 9, 42, 100
9, 31319, Note_on_c, 9, 36, 0
9, 31319, Note_on_c, 9, 42, 0
9, 31320, Note_on_c, 9, 42, 100
9, 31320, Note_on_c, 9, 38, 100
9, 31379, Note_on_c, 9, 42, 0
9, 31379, Note_on_c, 9, 38, 0
9, 31380, Note_on_c, 9, 42, 100
9, 31410, Note_on_c, 9, 36, 100
9, 31439, Note_on_c, 9, 42, 0
9, 31440, Note_on_c, 9, 42, 100
9, 31499, Note_on_c, 9, 36, 0
9, 31499, Note_on_c, 9, 42, 0
9, 31500, Note_on_c, 9, 36, 100
9, 31500, Note_on_c, 9, 42, 100
9, 31559, Note_on_c, 9, 36, 0
9, 31559, Note_on_c, 9, 42, 0
9, 31560, Note_on_c, 9, 42, 100
9, 31560, Note_on_c, 9, 38, 100
9, 31619, Note_on_c, 9, 42, 0
9, 31619, Note_on_c, 9, 38, 0
9, 31620, Note_on_c, 9, 42, 100
9, 31679, Note_on_c, 9, 42, 0
9, 31680, Note_on_c, 9, 42, 100
9, 31680, Note_on_c, 9, 36, 100
9, 31739, Note_on_c, 9, 42, 0
9, 31740, Note_on_c, 9, 42, 100
9, 31799, Note_on_c, 9, 36, 0
9, 31799, Note_on_c, 9, 42, 0
9, 31800, Note_on_c, 9, 42, 100
9, 31800, Note_on_c, 9, 38, 100
9, 31859, Note_on_c, 9, 42, 0
9, 31859, Note_on_c, 9, 38, 0
9, 31860, Note_on_c, 9, 42, 100
9, 31890, Note_on_c, 9, 36, 100
9, 31919, Note_on_c, 9, 42, 0
9, 31920, Note_on_c, 9, 42, 100
9, 31979, Note_on_c, 9, 36, 0
9, 31979, Note_on_c, 9, 42, 0
9, 31980, Note_on_c, 9, 36, 100
9, 31980, Note_on_c, 9, 42, 100
9, 32039, Note_on_c, 9, 36, 0
9, 32039, Note_on_c, 9, 42, 0
9, 32040, Note_on_c, 9, 42, 100
9, 32040, Note_on_c, 9, 38, 100
9, 32099, Note_on_c, 9, 42, 0
9, 32099, Note_on_c, 9, 38, 0
9, 32100, Note_on_c, 9, 42, 100
9, 32159, Note_on_c, 9, 42, 0
9, 32160, Note_on_c, 9, 42, 100
9, 32160, Note_on_c, 9, 36, 100
9, 32219, Note_on_c, 9, 42, 0
9, 32220, Note_on_c, 9, 42, 100
9, 32279, Note_on_c, 9, 36, 0
9, 32279, Note_on_c, 9, 42, 0
9, 32280, Note_on_c, 9, 42, 100
9, 32280, Note_on_c, 9, 38, 100
9, 32339, Note_on_c, 9, 42, 0
9, 32339, Note_on_c, 9, 38, 0
9, 32340, Note_on_c, 9, 42, 100
9, 32370, Note_on_c, 9, 36, 100
9, 32399, Note_on_c, 9, 42, 0
9, 32400, Note_on_c, 9, 42, 100
9, 32459, Note_on_c, 9, 36, 0
9, 32459, Note_on_c, 9, 42, 0
9, 32460, Note_on_c, 9, 36, 100
9, 32460, Note_on_c, 9, 42, 100
9, 32519, Note_on_c, 9, 36, 0
9, 32519, Note_on_c, 9, 42, 0
9, 32520, Note_on_c, 9, 42, 100
9, 32520, Note_on_c, 9, 38, 100
9, 32579, Note_on_c, 9, 42, 0
9, 32579, Note_on_c, 9, 38, 0
9, 32580, Note_on_c, 9, 42, 100
9, 32639, Note_on_c, 9, 42, 0
9, 32640, Note_on_c, 9, 42, 100
9, 32640, Note_on_c, 9, 36, 100
9, 32699, Note_on_c, 9, 42, 0
9, 32700, Note_on_c, 9, 42, 100
9, 32759, Note_on_c, 9, 36, 0
9, 32759, Note_on_c, 9, 42, 0
9, 32760, Note_on_c, 9, 42, 100
9, 32760, Note_on_c, 9, 38, 100
9, 32819, Note_on_c, 9, 42, 0
9, 32819, Note_on_c, 9, 38, 0
9, 32820, Note_on_c, 9, 42, 100
9, 32850, Note_on_c, 9, 36, 100
9, 32879, Note_on_c, 9, 42, 0
9, 32880, Note_on_c, 9, 42, 100
9, 32939, Note_on_c, 9, 36, 0
9, 32939, Note_on_c, 9, 42, 0
9, 32940, Note_on_c, 9, 36, 100
9, 32940, Note_on_c, 9, 42, 100
9, 32999, Note_on_c, 9, 36, 0
9, 32999, Note_on_c, 9, 42, 0
9, 33000, Note_on_c, 9, 42, 100
9, 33000, Note_on_c, 9, 38, 100
9, 33059, Note_on_c, 9, 42, 0
9, 33059, Note_on_c, 9, 38, 0
9, 33060, Note_on_c, 9, 42, 100
9, 33119, Note_on_c, 9, 42, 0
9, 33120, Note_on_c, 9, 42, 100
9, 33120, Note_on_c, 9, 36, 100
9, 33179, Note_on_c, 9, 42, 0
9, 33180, Note_on_c, 9, 42, 100
9, 33239, Note_on_c, 9, 36, 0
9, 33239, Note_on_c, 9, 42, 0
9, 33240, Note_on_c, 9, 42, 100
9, 33240, Note_on_c, 9, 38, 100
9, 33299, Note_on_c, 9, 42, 0
9, 33299, Note_on_c, 9, 38, 0
9, 33300, Note_on_c, 9, 42, 100
9, 33330, Note_on_c, 9, 36, 100
9, 33359, Note_on_c, 9, 42, 0
9, 33360, Note_on_c, 9, 42, 100
9, 33419, Note_on_c, 9, 36, 0
9, 33419, Note_on_c, 9, 42, 0
9, 33420, Note_on_c, 9, 36, 100
9, 33420, Note_on_c, 9, 42, 100
9, 33479, Note_on_c, 9, 36, 0
9, 33479, Note_on_c, 9, 42, 0
9, 33480, Note_on_c, 9, 42, 100
9, 33480, Note_on_c, 9, 38, 100
9, 33539, Note_on_c, 9, 42, 0
9, 33539, Note_on_c, 9, 38, 0
9, 33540, Note_on_c, 9, 42, 100
9, 33599, Note_on_c, 9, 42, 0
9, 33600, Note_on_c, 9, 42, 100
9, 33600, Note_on_c, 9, 36, 100
9, 33659, Note_on_c, 9, 42, 0
9, 33660, Note_on_c, 9, 42, 100
9, 33719, Note_on_c, 9, 36, 0
9, 33719, Note_on_c, 9, 42, 0
9, 33720, Note_on_c, 9, 42, 100
9, 33720, Note_on_c, 9, 38, 100
9, 33779, Note_on_c, 9, 42, 0
9, 33779, Note_on_c, 9, 38, 0
9, 33780, Note_on_c, 9, 42, 100
9, 33810, Note_on_c, 9, 36, 100
9, 33839, Note_on_c, 9, 42, 0
9, 33840, Note_on_c, 9, 42, 100
9, 33899, Note_on_c, 9, 36, 0
9, 33899, Note_on_c, 9, 42, 0
9, 33900, Note_on_c, 9, 36, 100
9, 33900, Note_on_c, 9, 42, 100
9, 33959, Note_on_c, 9, 36, 0
9, 33959, Note_on_c, 9, 42, 0
9, 33960, Note_on_c, 9, 42, 100
9, 33960, Note_on_c, 9, 38, 100
9, 34019, Note_on_c, 9, 42, 0
9, 34019, Note_on_c, 9, 38, 0
9, 34020, Note_on_c, 9, 42, 100
9, 34079, Note_on_c, 9, 42, 0
9, 34080, Note_on_c, 9, 57, 100
9, 34080, Note_on_c, 9, 36, 100
9, 34199, Note_on_c, 9, 57, 0
9, 34199, Note_on_c, 9, 36, 0
9, 34200, Note_on_c, 9, 38, 100
9, 34200, Note_on_c, 9, 42, 100
9, 34259, Note_on_c, 9, 38, 0
9, 34259, Note_on_c, 9, 42, 0
9, 34260, Note_on_c, 9, 42, 100
9, 34290, Note_on_c, 9, 36, 100
9, 34319, Note_on_c, 9, 42, 0
9, 34320, Note_on_c, 9, 42, 100
9, 34379, Note_on_c, 9, 36, 0
9, 34379, Note_on_c, 9, 42, 0
9, 34380, Note_on_c, 9, 42, 100
9, 34380, Note_on_c, 9, 36, 100
9, 34409, Note_on_c, 9, 36, 0
9, 34410, Note_on_c, 9, 36, 100
9, 34439, Note_on_c, 9, 42, 0
9, 34439, Note_on_c, 9, 36, 0
9, 34440, Note_on_c, 9, 42, 100
9, 34440, Note_on_c, 9, 38, 100
9, 34499, Note_on_c, 9, 42, 0
9, 34499, Note_on_c, 9, 38, 0
9, 34500, Note_on_c, 9, 42, 100
9, 34530, Note_on_c, 9, 36, 100
9, 34559, Note_on_c, 9, 42, 0
9, 34559, Note_on_c, 9, 36, 0
9, 34560, Note_on_c, 9, 38, 100
9, 34589, Note_on_c, 9, 38, 0
9, 34590, Note_on_c, 9, 57, 100
9, 34590, Note_on_c, 9, 36, 100
9, 34649, Note_on_c, 9, 36, 0
9, 34650, Note_on_c, 9, 36, 100
9, 34679, Note_on_c, 9, 57, 0
9, 34679, Note_on_c, 9, 36, 0
9, 34680, Note_on_c, 9, 38, 100
9, 34709, Note_on_c, 9, 38, 0
9, 34710, Note_on_c, 9, 57, 100
9, 34710, Note_on_c, 9, 36, 100
9, 34769, Note_on_c, 9, 36, 0
9, 34770, Note_on_c, 9, 36, 100
9, 34799, Note_on_c, 9, 57, 0
9, 34799, Note_on_c, 9, 36, 0
9, 34800, Note_on_c, 9, 38, 100
9, 34829, Note_on_c, 9, 38, 0
9, 34830, Note_on_c, 9, 57, 100
9, 34830, Note_on_c, 9, 36, 100
9, 34889, Note_on_c, 9, 36, 0
9, 34890, Note_on_c, 9, 36, 100
9, 34919, Note_on_c, 9, 57, 0
9, 34919, Note_on_c, 9, 36, 0
9, 34920, Note_on_c, 9, 38, 100
9, 34949, Note_on_c, 9, 38, 0
9, 34950, Note_on_c, 9, 57, 100
9, 34950, Note_on_c, 9, 36, 100
9, 35010, Note_on_c, 9, 38, 100
9, 35039, Note_on_c, 9, 57, 0
9, 35039, Note_on_c, 9, 36, 0
9, 35039, Note_on_c, 9, 38, 0
9, 35040, Note_on_c, 9, 36, 100
9, 35040, Note_on_c, 9, 57, 100
9, 35159, Note_on_c, 9, 36, 0
9, 35159, Note_on_c, 9, 57, 0
9, 35160, Note_on_c, 9, 42, 100
9, 35160, Note_on_c, 9, 38, 100
9, 35219, Note_on_c, 9, 42, 0
9, 35219, Note_on_c, 9, 38, 0
9, 35220, Note_on_c, 9, 42, 100
9, 35250, Note_on_c, 9, 36, 100
9, 35279, Note_on_c, 9, 42, 0
9, 35280, Note_on_c, 9, 42, 100
9, 35339, Note_on_c, 9, 36, 0
9, 35339, Note_on_c, 9, 42, 0
9, 35340, Note_on_c, 9, 36, 100
9, 35340, Note_on_c, 9, 42, 100
9, 35369, Note_on_c, 9, 36, 0
9, 35370, Note_on_c, 9, 36, 100
9, 35399, Note_on_c, 9, 42, 0
9, 35399, Note_on_c, 9, 36, 0
9, 35400, Note_on_c, 9, 42, 100
9, 35400, Note_on_c, 9, 38, 100
9, 35459, Note_on_c, 9, 42, 0
9, 35459, Note_on_c, 9, 38, 0
9, 35460, Note_on_c, 9, 42, 100
9, 35519, Note_on_c, 9, 42, 0
9, 35520, Note_on_c, 9, 38, 100
9, 35549, Note_on_c, 9, 38, 0
9, 35550, Note_on_c, 9, 57, 100
9, 35550, Note_on_c, 9, 36, 100
9, 35639, Note_on_c, 9, 57, 0
9, 35639, Note_on_c, 9, 36, 0
9, 35640, Note_on_c, 9, 38, 100
9, 35669, Note_on_c, 9, 38, 0
9, 35670, Note_on_c, 9, 57, 100
9, 35670, Note_on_c, 9, 36, 100
9, 35759, Note_on_c, 9, 57, 0
9, 35759, Note_on_c, 9, 36, 0
9, 35760, Note_on_c, 9, 38, 100
9, 35789, Note_on_c, 9, 38, 0
9, 35790, Note_on_c, 9, 57, 100
9, 35790, Note_on_c, 9, 36, 100
9, 35879, Note_on_c, 9, 57, 0
9, 35879, Note_on_c, 9, 36, 0
9, 35880, Note_on_c, 9, 38, 100
9, 35909, Note_on_c, 9, 38, 0
9, 35910, Note_on_c, 9, 57, 100
9, 35910, Note_on_c, 9, 36, 100
9, 35999, Note_on_c, 9, 36, 0
9, 36479, Note_on_c, 9, 57, 0
9, 36480, Note_on_c, 9, 42, 100
9, 36480, Note_on_c, 9, 36, 100
9, 36539, Note_on_c, 9, 42, 0
9, 36540, Note_on_c, 9, 42, 100
9, 36599, Note_on_c, 9, 36, 0
9, 36599, Note_on_c, 9, 42, 0
9, 36600, Note_on_c, 9, 42, 100
9, 36600, Note_on_c, 9, 38, 100
9, 36659, Note_on_c, 9, 42, 0
9, 36659, Note_on_c, 9, 38, 0
9, 36660, Note_on_c, 9, 42, 100
9, 36690, Note_on_c, 9, 36, 100
9, 36719, Note_on_c, 9, 42, 0
9, 36720, Note_on_c, 9, 42, 100
9, 36779, Note_on_c, 9, 36, 0
9, 36779, Note_on_c, 9, 42, 0
9, 36780, Note_on_c, 9, 36, 100
9, 36780, Note_on_c, 9, 42, 100
9, 36839, Note_on_c, 9, 36, 0
9, 36839, Note_on_c, 9, 42, 0
9, 36840, Note_on_c, 9, 42, 100
9, 36840, Note_on_c, 9, 38, 100
9, 36899, Note_on_c, 9, 42, 0
9, 36899, Note_on_c, 9, 38, 0
9, 36900, Note_on_c, 9, 42, 100
9, 36959, Note_on_c, 9, 42, 0
9, 36960, Note_on_c, 9, 42, 100
9, 36960, Note_on_c, 9, 36, 100
9, 37019, Note_on_c, 9, 42, 0
9, 37020, Note_on_c, 9, 42, 100
9, 37079, Note_on_c, 9, 36, 0
9, 37079, Note_on_c, 9, 42, 0
9, 37080, Note_on_c, 9, 42, 100
9, 37080, Note_on_c, 9, 38, 100
9, 37139, Note_on_c, 9, 42, 0
9, 37139, Note_on_c, 9, 38, 0
9, 37140, Note_on_c, 9, 42, 100
9, 37170, Note_on_c, 9, 36, 100
9, 37199, Note_on_c, 9, 42, 0
9, 37200, Note_on_c, 9, 42, 100
9, 37259, Note_on_c, 9, 36, 0
9, 37259, Note_on_c, 9, 42, 0
9, 37260, Note_on_c, 9, 36, 100
9, 37260, Note_on_c, 9, 42, 100
9, 37319, Note_on_c, 9, 36, 0
9, 37319, Note_on_c, 9, 42, 0
9, 37320, Note_on_c, 9, 42, 100
9, 37320, Note_on_c, 9, 38, 100
9, 37379, Note_on_c, 9, 42, 0
9, 37379, Note_on_c, 9, 38, 0
9, 37380, Note_on_c, 9, 42, 100
9, 37439, Note_on_c, 9, 42, 0
9, 37440, Note_on_c, 9, 42, 100
9, 37440, Note_on_c, 9, 36, 100
9, 37499, Note_on_c, 9, 42, 0
9, 37500, Note_on_c, 9, 42, 100
9, 37559, Note_on_c, 9, 36, 0
9, 37559, Note_on_c, 9, 42, 0
9, 37560, Note_on_c, 9, 42, 100
9, 37560, Note_on_c, 9, 38, 100
9, 37619, Note_on_c, 9, 42, 0
9, 37619, Note_on_c, 9, 38, 0
9, 37620, Note_on_c, 9, 42, 100
9, 37650, Note_on_c, 9, 36, 100
9, 37679, Note_on_c, 9, 42, 0
9, 37680, Note_on_c, 9, 42, 100
9, 37739, Note_on_c, 9, 36, 0
9, 37739, Note_on_c, 9, 42, 0
9, 37740, Note_on_c, 9, 36, 100
9, 37740, Note_on_c, 9, 42, 100
9, 37799, Note_on_c, 9, 36, 0
9, 37799, Note_on_c, 9, 42, 0
9, 37800, Note_on_c, 9, 42, 100
9, 37800, Note_on_c, 9, 38, 100
9, 37859, Note_on_c, 9, 42, 0
9, 37859, Note_on_c, 9, 38, 0
9, 37860, Note_on_c, 9, 42, 100
9, 37919, Note_on_c, 9, 42, 0
9, 37920, Note_on_c, 9, 42, 100
9, 37920, Note_on_c, 9, 36, 100
9, 37979, Note_on_c, 9, 42, 0
9, 37980, Note_on_c, 9, 42, 100
9, 38039, Note_on_c, 9, 36, 0
9, 38039, Note_on_c, 9, 42, 0
9, 38040, Note_on_c, 9, 42, 100
9, 38040, Note_on_c, 9, 38, 100
9, 38099, Note_on_c, 9, 42, 0
9, 38099, Note_on_c, 9, 38, 0
9, 38100, Note_on_c, 9, 42, 100
9, 38130, Note_on_c, 9, 36, 100
9, 38159, Note_on_c, 9, 42, 0
9, 38160, Note_on_c, 9, 42, 100
9, 38219, Note_on_c, 9, 36, 0
9, 38219, Note_on_c, 9, 42, 0
9, 38220, Note_on_c, 9, 36, 100
9, 38220, Note_on_c, 9, 42, 100
9, 38249, Note_on_c, 9, 36, 0
9, 38250, Note_on_c, 9, 36, 100
9, 38279, Note_on_c, 9, 42, 0
9, 38279, Note_on_c, 9, 36, 0
9, 38280, Note_on_c, 9, 42, 100
9, 38280, Note_on_c, 9, 38, 100
9, 38339, Note_on_c, 9, 42, 0
9, 38339, Note_on_c, 9, 38, 0
9, 38340, Note_on_c, 9, 42, 100
9, 38399, Note_on_c, 9, 42, 0
9, 38400, Note_on_c, 9, 42, 100
9, 38400, Note_on_c, 9, 36, 100
9, 38459, Note_on_c, 9, 42, 0
9, 38460, Note_on_c, 9, 42, 100
9, 38519, Note_on_c, 9, 36, 0
9, 38519, Note_on_c, 9, 42, 0
9, 38520, Note_on_c, 9, 42, 100
9, 38520, Note_on_c, 9, 38, 100
9, 38579, Note_on_c, 9, 42, 0
9, 38579, Note_on_c, 9, 38, 0
9, 38580, Note_on_c, 9, 42, 100
9, 38610, Note_on_c, 9, 36, 100
9, 38639, Note_on_c, 9, 42, 0
9, 38640, Note_on_c, 9, 42, 100
9, 38699, Note_on_c, 9, 36, 0
9, 38699, Note_on_c, 9, 42, 0
9, 38700, Note_on_c, 9, 36, 100
9, 38700, Note_on_c, 9, 42, 100
9, 38729, Note_on_c, 9, 36, 0
9, 38730, Note_on_c, 9, 36, 100
9, 38759, Note_on_c, 9, 42, 0
9, 38759, Note_on_c, 9, 36, 0
9, 38760, Note_on_c, 9, 42, 100
9, 38760, Note_on_c, 9, 38, 100
9, 38819, Note_on_c, 9, 42, 0
9, 38819, Note_on_c, 9, 38, 0
9, 38820, Note_on_c, 9, 42, 100
9, 38879, Note_on_c, 9, 42, 0
9, 38880, Note_on_c, 9, 42, 100
9, 38880, Note_on_c, 9, 36, 100
9, 38939, Note_on_c, 9, 42, 0
9, 38940, Note_on_c, 9, 42, 100
9, 38999, Note_on_c, 9, 36, 0
9, 38999, Note_on_c, 9, 42, 0
9, 39000, Note_on_c, 9, 42, 100
9, 39000, Note_on_c, 9, 38, 100
9, 39059, Note_on_c, 9, 42, 0
9, 39059, Note_on_c, 9, 38, 0
9, 39060, Note_on_c, 9, 42, 100
9, 39090, Note_on_c, 9, 36, 100
9, 39119, Note_on_c, 9, 42, 0
9, 39120, Note_on_c, 9, 42, 100
9, 39179, Note_on_c, 9, 36, 0
9, 39179, Note_on_c, 9, 42, 0
9, 39180, Note_on_c, 9, 36, 100
9, 39180, Note_on_c, 9, 42, 100
9, 39239, Note_on_c, 9, 36, 0
9, 39239, Note_on_c, 9, 42, 0
9, 39240, Note_on_c, 9, 42, 100
9, 39240, Note_on_c, 9, 38, 100
9, 39299, Note_on_c, 9, 42, 0
9, 39299, Note_on_c, 9, 38, 0
9, 39300, Note_on_c, 9, 42, 100
9, 39359, Note_on_c, 9, 42, 0
9, 39360, Note_on_c, 9, 42, 100
9, 39360, Note_on_c, 9, 36, 100
9, 39419, Note_on_c, 9, 42, 0
9, 39420, Note_on_c, 9, 42, 100
9, 39479, Note_on_c, 9, 36, 0
9, 39479, Note_on_c, 9, 42, 0
9, 39480, Note_on_c, 9, 42, 100
9, 39480, Note_on_c, 9, 38, 100
9, 39539, Note_on_c, 9, 42, 0
9, 39539, Note_on_c, 9, 38, 0
9, 39540, Note_on_c, 9, 42, 100
9, 39570, Note_on_c, 9, 36, 100
9, 39599, Note_on_c, 9, 42, 0
9, 39600, Note_on_c, 9, 42, 100
9, 39659, Note_on_c, 9, 36, 0
9, 39659, Note_on_c, 9, 42, 0
9, 39660, Note_on_c, 9, 36, 100
9, 39660, Note_on_c, 9, 42, 100
9, 39719, Note_on_c, 9, 36, 0
9, 39719, Note_on_c, 9, 42, 0
9, 39720, Note_on_c, 9, 42, 100
9, 39720, Note_on_c, 9, 38, 100
9, 39779, Note_on_c, 9, 42, 0
9, 39779, Note_on_c, 9, 38, 0
9, 39780, Note_on_c, 9, 42, 100
9, 39839, Note_on_c, 9, 42, 0
9, 39840, Note_on_c, 9, 42, 100
9, 39840, Note_on_c, 9, 36, 100
9, 39899, Note_on_c, 9, 42, 0
9, 39900, Note_on_c, 9, 42, 100
9, 39959, Note_on_c, 9, 36, 0
9, 39959, Note_on_c, 9, 42, 0
9, 39960, Note_on_c, 9, 42, 100
9, 39960, Note_on_c, 9, 38, 100
9, 40019, Note_on_c, 9, 42, 0
9, 40019, Note_on_c, 9, 38, 0
9, 40020, Note_on_c, 9, 42, 100
9, 40050, Note_on_c, 9, 36, 100
9, 40079, Note_on_c, 9, 42, 0
9, 40080, Note_on_c, 9, 42, 100
9, 40139, Note_on_c, 9, 36, 0
9, 40139, Note_on_c, 9, 42, 0
9, 40140, Note_on_c, 9, 36, 100
9, 40140, Note_on_c, 9, 42, 100
9, 40199, Note_on_c, 9, 36, 0
9, 40199, Note_on_c, 9, 42, 0
9, 40200, Note_on_c, 9, 42, 100
9, 40200, Note_on_c, 9, 38, 100
9, 40259, Note_on_c, 9, 42, 0
9, 40259, Note_on_c, 9, 38, 0
9, 40260, Note_on_c, 9, 42, 100
9, 40319, Note_on_c, 9, 42, 0
9, 40320, Note_on_c, 9, 42, 100
9, 40320, Note_on_c, 9, 36, 100
9, 40379, Note_on_c, 9, 42, 0
9, 40380, Note_on_c, 9, 42, 100
9, 40439, Note_on_c, 9, 36, 0
9, 40439, Note_on_c, 9, 42, 0
9, 40440, Note_on_c, 9, 42, 100
9, 40440, Note_on_c, 9, 38, 100
9, 40499, Note_on_c, 9, 42, 0
9, 40499, Note_on_c, 9, 38, 0
9, 40500, Note_on_c, 9, 42, 100
9, 40530, Note_on_c, 9, 36, 100
9, 40559, Note_on_c, 9, 42, 0
9, 40560, Note_on_c, 9, 42, 100
9, 40619, Note_on_c, 9, 36, 0
9, 40619, Note_on_c, 9, 42, 0
9, 40620, Note_on_c, 9, 36, 100
9, 40620, Note_on_c, 9, 42, 100
9, 40679, Note_on_c, 9, 36, 0
9, 40679, Note_on_c, 9, 42, 0
9, 40680, Note_on_c, 9, 42, 100
9, 40680, Note_on_c, 9, 38, 100
9, 40739, Note_on_c, 9, 42, 0
9, 40739, Note_on_c, 9, 38, 0
9, 40740, Note_on_c, 9, 42, 100
9, 40799, Note_on_c, 9, 42, 0
9, 40800, Note_on_c, 9, 42, 100
9, 40800, Note_on_c, 9, 36, 100
9, 40859, Note_on_c, 9, 42, 0
9, 40860, Note_on_c, 9, 42, 100
9, 40919, Note_on_c, 9, 36, 0
9, 40919, Note_on_c, 9, 42, 0
9, 40920, Note_on_c, 9, 42, 100
9, 40920, Note_on_c, 9, 38, 100
9, 40979, Note_on_c, 9, 42, 0
9, 40979, Note_on_c, 9, 38, 0
9, 40980, Note_on_c, 9, 42, 100
9, 41010, Note_on_c, 9, 36, 100
9, 41039, Note_on_c, 9, 42, 0
9, 41040, Note_on_c, 9, 42, 100
9, 41099, Note_on_c, 9, 36, 0
9, 41099, Note_on_c, 9, 42, 0
9, 41100, Note_on_c, 9, 36, 100
9, 41100, Note_on_c, 9, 42, 100
9, 41159, Note_on_c, 9, 36, 0
9, 41159, Note_on_c, 9, 42, 0
9, 41160, Note_on_c, 9, 42, 100
9, 41160, Note_on_c, 9, 38, 100
9, 41219, Note_on_c, 9, 42, 0
9, 41219, Note_on_c, 9, 38, 0
9, 41220, Note_on_c, 9, 42, 100
9, 41279, Note_on_c, 9, 42, 0
9, 41280, Note_on_c, 9, 42, 100
9, 41280, Note_on_c, 9, 36, 100
9, 41339, Note_on_c, 9, 42, 0
9, 41340, Note_on_c, 9, 42, 100
9, 41399, Note_on_c, 9, 36, 0
9, 41399, Note_on_c, 9, 42, 0
9, 41400, Note_on_c, 9, 42, 100
9, 41400, Note_on_c, 9, 38, 100
9, 41459, Note_on_c, 9, 42, 0
9, 41459, Note_on_c, 9, 38, 0
9, 41460, Note_on_c, 9, 42, 100
9, 41490, Note_on_c, 9, 36, 100
9, 41519, Note_on_c, 9, 42, 0
9, 41520, Note_on_c, 9, 42, 100
9, 41579, Note_on_c, 9, 36, 0
9, 41579, Note_on_c, 9, 42, 0
9, 41580, Note_on_c, 9, 36, 100
9, 41580, Note_on_c, 9, 42, 100
9, 41639, Note_on_c, 9, 36, 0
9, 41639, Note_on_c, 9, 42, 0
9, 41640, Note_on_c, 9, 42, 100
9, 41640, Note_on_c, 9, 38, 100
9, 41699, Note_on_c, 9, 42, 0
9, 41699, Note_on_c, 9, 38, 0
9, 41700, Note_on_c, 9, 42, 100
9, 41759, Note_on_c, 9, 42, 0
9, 41760, Note_on_c, 9, 42, 100
9, 41760, Note_on_c, 9, 36, 100
9, 41819, Note_on_c, 9, 42, 0
9, 41820, Note_on_c, 9, 42, 100
9, 41879, Note_on_c, 9, 36, 0
9, 41879, Note_on_c, 9, 42, 0
9, 41880, Note_on_c, 9, 42, 100
9, 41880, Note_on_c, 9, 38, 100
9, 41939, Note_on_c, 9, 42, 0
9, 41939, Note_on_c, 9, 38, 0
9, 41940, Note_on_c, 9, 42, 100
9, 41970, Note_on_c, 9, 36, 100
9, 41999, Note_on_c, 9, 42, 0
9, 42000, Note_on_c, 9, 42, 100
9, 42059, Note_on_c, 9, 36, 0
9, 42059, Note_on_c, 9, 42, 0
9, 42060, Note_on_c, 9, 36, 100
9, 42060, Note_on_c, 9, 42, 100
9, 42119, Note_on_c, 9, 36, 0
9, 42119, Note_on_c, 9, 42, 0
9, 42120, Note_on_c, 9, 42, 100
9, 42120, Note_on_c, 9, 38, 100
9, 42179, Note_on_c, 9, 42, 0
9, 42179, Note_on_c, 9, 38, 0
9, 42180, Note_on_c, 9, 42, 100
9, 42239, Note_on_c, 9, 42, 0
9, 42240, Note_on_c, 9, 42, 100
9, 42240, Note_on_c, 9, 36, 100
9, 42299, Note_on_c, 9, 42, 0
9, 42300, Note_on_c, 9, 42, 100
9, 42359, Note_on_c, 9, 36, 0
9, 42359, Note_on_c, 9, 42, 0
9, 42360, Note_on_c, 9, 42, 100
9, 42360, Note_on_c, 9, 38, 100
9, 42419, Note_on_c, 9, 42, 0
9, 42419, Note_on_c, 9, 38, 0
9, 42420, Note_on_c, 9, 42, 100
9, 42450, Note_on_c, 9, 36, 100
9, 42479, Note_on_c, 9, 42, 0
9, 42480, Note_on_c, 9, 42, 100
9, 42539, Note_on_c, 9, 36, 0
9, 42539, Note_on_c, 9, 42, 0
9, 42540, Note_on_c, 9, 36, 100
9, 42540, Note_on_c, 9, 42, 100
9, 42599, Note_on_c, 9, 36, 0
9, 42599, Note_on_c, 9, 42, 0
9, 42600, Note_on_c, 9, 42, 100
9, 42600, Note_on_c, 9, 38, 100
9, 42659, Note_on_c, 9, 42, 0
9, 42659, Note_on_c, 9, 38, 0
9, 42660, Note_on_c, 9, 42, 100
9, 42719, Note_on_c, 9, 42, 0
9, 42720, Note_on_c, 9, 42, 100
9, 42720, Note_on_c, 9, 36, 100
9, 42779, Note_on_c, 9, 42, 0
9, 42780, Note_on_c, 9, 42, 100
9, 42839, Note_on_c, 9, 36, 0
9, 42839, Note_on_c, 9, 42, 0
9, 42840, Note_on_c, 9, 42, 100
9, 42840, Note_on_c, 9, 38, 100
9, 42899, Note_on_c, 9, 42, 0
9, 42899, Note_on_c, 9, 38, 0
9, 42900, Note_on_c, 9, 42, 100
9, 42930, Note_on_c, 9, 36, 100
9, 42959, Note_on_c, 9, 42, 0
9, 42960, Note_on_c, 9, 42, 100
9, 43019, Note_on_c, 9, 36, 0
9, 43019, Note_on_c, 9, 42, 0
9, 43020, Note_on_c, 9, 36, 100
9, 43020, Note_on_c, 9, 42, 100
9, 43079, Note_on_c, 9, 36, 0
9, 43079, Note_on_c, 9, 42, 0
9, 43080, Note_on_c, 9, 42, 100
9, 43080, Note_on_c, 9, 38, 100
9, 43139, Note_on_c, 9, 42, 0
9, 43139, Note_on_c, 9, 38, 0
9, 43140, Note_on_c, 9, 42, 100
9, 43199, Note_on_c, 9, 42, 0
9, 43200, Note_on_c, 9, 57, 100
9, 43200, Note_on_c, 9, 36, 100
9, 43319, Note_on_c, 9, 57, 0
9, 43319, Note_on_c, 9, 36, 0
9, 43320, Note_on_c, 9, 38, 100
9, 43320, Note_on_c, 9, 42, 100
9, 43379, Note_on_c, 9, 38, 0
9, 43379, Note_on_c, 9, 42, 0
9, 43380, Note_on_c, 9, 42, 100
9, 43410, Note_on_c, 9, 36, 100
9, 43439, Note_on_c, 9, 42, 0
9, 43440, Note_on_c, 9, 42, 100
9, 43499, Note_on_c, 9, 36, 0
9, 43499, Note_on_c, 9, 42, 0
9, 43500, Note_on_c, 9, 42, 100
9, 43500, Note_on_c, 9, 36, 100
9, 43529, Note_on_c, 9, 36, 0
9, 43530, Note_on_c, 9, 36, 100
9, 43559, Note_on_c, 9, 42, 0
9, 43559, Note_on_c, 9, 36, 0
9, 43560, Note_on_c, 9, 42, 100
9, 43560, Note_on_c, 9, 38, 100
9, 43619, Note_on_c, 9, 42, 0
9, 43619, Note_on_c, 9, 38, 0
9, 43620, Note_on_c, 9, 42, 100
9, 43650, Note_on_c, 9, 36, 100
9, 43679, Note_on_c, 9, 42, 0
9, 43679, Note_on_c, 9, 36, 0
9, 43680, Note_on_c, 9, 38, 100
9, 43709, Note_on_c, 9, 38, 0
9, 43710, Note_on_c, 9, 57, 100
9, 43710, Note_on_c, 9, 36, 100
9, 43769, Note_on_c, 9, 36, 0
9, 43770, Note_on_c, 9, 36, 100
9, 43799, Note_on_c, 9, 57, 0
9, 43799, Note_on_c, 9, 36, 0
9, 43800, Note_on_c, 9, 38, 100
9, 43829, Note_on_c, 9, 38, 0
9, 43830, Note_on_c, 9, 57, 100
9, 43830, Note_on_c, 9, 36, 100
9, 43889, Note_on_c, 9, 36, 0
9, 43890, Note_on_c, 9, 36, 100
9, 43919, Note_on_c, 9, 57, 0
9, 43919, Note_on_c, 9, 36, 0
9, 43920, Note_on_c, 9, 38, 100
9, 43949, Note_on_c, 9, 38, 0
9, 43950, Note_on_c, 9, 57, 100
9, 43950, Note_on_c, 9, 36, 100
9, 44009, Note_on_c, 9, 36, 0
9, 44010, Note_on_c, 9, 36, 100
9, 44039, Note_on_c, 9, 57, 0
9, 44039, Note_on_c, 9, 36, 0
9, 44040, Note_on_c, 9, 38, 100
9, 44069, Note_on_c, 9, 38, 0
9, 44070, Note_on_c, 9, 57, 100
9, 44070, Note_on_c, 9, 36, 100
9, 44130, Note_on_c, 9, 38, 100
9, 44159, Note_on_c, 9, 57, 0
9, 44159, Note_on_c, 9, 36, 0
9, 44159, Note_on_c, 9, 38, 0
9, 44160, Note_on_c, 9, 36, 100
9, 44160, Note_on_c, 9, 57, 100
9, 44279, Note_on_c, 9, 36, 0
9, 44279, Note_on_c, 9, 57, 0
9, 44280, Note_on_c, 9, 42, 100
9, 44280, Note_on_c, 9, 38, 100
9, 44339, Note_on_c, 9, 42, 0
9, 44339, Note_on_c, 9, 38, 0
9, 44340, Note_on_c, 9, 42, 100
9, 44370, Note_on_c, 9, 36, 100
9, 44399, Note_on_c, 9, 42, 0
9, 44400, Note_on_c, 9, 42, 100
9, 44459, Note_on_c, 9, 36, 0
9, 44459, Note_on_c, 9, 42, 0
9, 44460, Note_on_c, 9, 36, 100
9, 44460, Note_on_c, 9, 42, 100
9, 44489, Note_on_c, 9, 36, 0
9, 44490, Note_on_c, 9, 36, 100
9, 44519, Note_on_c, 9, 42, 0
9, 44519, Note_on_c, 9, 36, 0
9, 44520, Note_on_c, 9, 42, 100
9, 44520, Note_on_c, 9, 38, 100
9, 44579, Note_on_c, 9, 42, 0
9, 44579, Note_on_c, 9, 38, 0
9, 44580, Note_on_c, 9, 42, 100
9, 44639, Note_on_c, 9, 42, 0
9, 44640, Note_on_c, 9, 38, 100
9, 44669, Note_on_c, 9, 38, 0
9, 44670, Note_on_c, 9, 57, 100
9, 44670, Note_on_c, 9, 36, 100
9, 44759, Note_on_c, 9, 57, 0
9, 44759, Note_on_c, 9, 36, 0
9, 44760, Note_on_c, 9, 38, 100
9, 44789, Note_on_c, 9, 38, 0
9, 44790, Note_on_c, 9, 57, 100
9, 44790, Note_on_c, 9, 36, 100
9, 44879, Note_on_c, 9, 57, 0
9, 44879, Note_on_c, 9, 36, 0
9, 44880, Note_on_c, 9, 38, 100
9, 44909, Note_on_c, 9, 38, 0
9, 44910, Note_on_c, 9, 57, 100
9, 44910, Note_on_c, 9, 36, 100
9, 44999, Note_on_c, 9, 57, 0
9, 44999, Note_on_c, 9, 36, 0
9, 45000, Note_on_c, 9, 38, 100
9, 45029, Note_on_c, 9, 38, 0
9, 45030, Note_on_c, 9, 36, 100
9, 45030, Note_on_c, 9, 57, 100
9, 45090, Note_on_c, 9, 38, 100
9, 45119, Note_on_c, 9, 36, 0
9, 45119, Note_on_c, 9, 57, 0
9, 45119, Note_on_c, 9, 38, 0
9, 45120, Note_on_c, 9, 36, 100
9, 45120, Note_on_c, 9, 49, 100
9, 45179, Note_on_c, 9, 36, 0
9, 45180, Note_on_c, 9, 36, 100
9, 45209, Note_on_c, 9, 36, 0
9, 45210, Note_on_c, 9, 36, 100
9, 45239, Note_on_c, 9, 49, 0
9, 45239, Note_on_c, 9, 36, 0
9, 45240, Note_on_c, 9, 38, 100
9, 45240, Note_on_c, 9, 42, 100
9, 45299, Note_on_c, 9, 38, 0
9, 45299, Note_on_c, 9, 42, 0
9, 45300, Note_on_c, 9, 42, 100
9, 45330, Note_on_c, 9, 36, 100
9, 45359, Note_on_c, 9, 42, 0
9, 45359, Note_on_c, 9, 36, 0
9, 45360, Note_on_c, 9, 42, 100
9, 45360, Note_on_c, 9, 36, 100
9, 45389, Note_on_c, 9, 36, 0
9, 45390, Note_on_c, 9, 36, 100
9, 45419, Note_on_c, 9, 42, 0
9, 45419, Note_on_c, 9, 36, 0
9, 45420, Note_on_c, 9, 42, 100
9, 45420, Note_on_c, 9, 36, 100
9, 45449, Note_on_c, 9, 36, 0
9, 45450, Note_on_c, 9, 36, 100
9, 45479, Note_on_c, 9, 42, 0
9, 45479, Note_on_c, 9, 36, 0
9, 45480, Note_on_c, 9, 42, 100
9, 45480, Note_on_c, 9, 38, 100
9, 45539, Note_on_c, 9, 42, 0
9, 45539, Note_on_c, 9, 38, 0
9, 45540, Note_on_c, 9, 42, 100
9, 45570, Note_on_c, 9, 36, 100
9, 45599, Note_on_c, 9, 42, 0
9, 45599, Note_on_c, 9, 36, 0
9, 45600, Note_on_c, 9, 42, 100
9, 45600, Note_on_c, 9, 36, 100
9, 45659, Note_on_c, 9, 42, 0
9, 45659, Note_on_c, 9, 36, 0
9, 45660, Note_on_c, 9, 42, 100
9, 45660, Note_on_c, 9, 36, 100
9, 45689, Note_on_c, 9, 36, 0
9, 45690, Note_on_c, 9, 36, 100
9, 45719, Note_on_c, 9, 42, 0
9, 45719, Note_on_c, 9, 36, 0
9, 45720, Note_on_c, 9, 38, 100
9, 45779, Note_on_c, 9, 38, 0
9, 45780, Note_on_c, 9, 38, 100
9, 45794, Note_on_c, 9, 38, 0
9, 45795, Note_on_c, 9, 38, 100
9, 45809, Note_on_c, 9, 38, 0
9, 45810, Note_on_c, 9, 38, 100
9, 45824, Note_on_c, 9, 38, 0
9, 45825, Note_on_c, 9, 38, 100
9, 45839, Note_on_c, 9, 38, 0
9, 45840, Note_on_c, 9, 38, 100
9, 45854, Note_on_c, 9, 38, 0
9, 45855, Note_on_c, 9, 38, 100
9, 45869, Note_on_c, 9, 38, 0
9, 45870, Note_on_c, 9, 38, 100
9, 45884, Note_on_c, 9, 38, 0
9, 45885, Note_on_c, 9, 38, 100
9, 45899, Note_on_c, 9, 38, 0
9, 45900, Note_on_c, 9, 38, 100
9, 45914, Note_on_c, 9, 38, 0
9, 45915, Note_on_c, 9, 38, 100
9, 45929, Note_on_c, 9, 38, 0
9, 45930, Note_on_c, 9, 47, 100
9, 45944, Note_on_c, 9, 47, 0
9, 45945, Note_on_c, 9, 47, 100
9, 45959, Note_on_c, 9, 47, 0
9, 45960, Note_on_c, 9, 47, 100
9, 45974, Note_on_c, 9, 47, 0
9, 45975, Note_on_c, 9, 47, 100
9, 45989, Note_on_c, 9, 47, 0
9, 45990, Note_on_c, 9, 47, 100
9, 46004, Note_on_c, 9, 47, 0
9, 46005, Note_on_c, 9, 47, 100
9, 46019, Note_on_c, 9, 47, 0
9, 46020, Note_on_c, 9, 43, 100
9, 46034, Note_on_c, 9, 43, 0
9, 46035, Note_on_c, 9, 43, 100
9, 46049, Note_on_c, 9, 43, 0
9, 46050, Note_on_c, 9, 43, 100
9, 46064, Note_on_c, 9, 43, 0
9, 46065, Note_on_c, 9, 43, 100
9, 46079, Note_on_c, 9, 43, 0
9, 46080, Note_on_c, 9, 49, 100
9, 46080, Note_on_c, 9, 36, 100
9, 46169, Note_on_c, 9, 36, 0
9, 46170, Note_on_c, 9, 36, 100
9, 46199, Note_on_c, 9, 49, 0
9, 46199, Note_on_c, 9, 36, 0
9, 46200, Note_on_c, 9, 38, 100
9, 46200, Note_on_c, 9, 42, 100
9, 46259, Note_on_c, 9, 38, 0
9, 46259, Note_on_c, 9, 42, 0
9, 46260, Note_on_c, 9, 42, 100
9, 46290, Note_on_c, 9, 36, 100
9, 46319, Note_on_c, 9, 42, 0
9, 46319, Note_on_c, 9, 36, 0
9, 46320, Note_on_c, 9, 42, 100
9, 46320, Note_on_c, 9, 36, 100
9, 46379, Note_on_c, 9, 42, 0
9, 46379, Note_on_c, 9, 36, 0
9, 46380, Note_on_c, 9, 36, 100
9, 46380, Note_on_c, 9, 42, 100
9, 46409, Note_on_c, 9, 36, 0
9, 46410, Note_on_c, 9, 36, 100
9, 46439, Note_on_c, 9, 42, 0
9, 46439, Note_on_c, 9, 36, 0
9, 46440, Note_on_c, 9, 38, 100
9, 46440, Note_on_c, 9, 42, 100
9, 46499, Note_on_c, 9, 38, 0
9, 46499, Note_on_c, 9, 42, 0
9, 46500, Note_on_c, 9, 42, 100
9, 46530, Note_on_c, 9, 36, 100
9, 46559, Note_on_c, 9, 42, 0
9, 46559, Note_on_c, 9, 36, 0
9, 46560, Note_on_c, 9, 57, 100
9, 46560, Note_on_c, 9, 36, 100
9, 46619, Note_on_c, 9, 36, 0
9, 46620, Note_on_c, 9, 36, 100
9, 46649, Note_on_c, 9, 36, 0
9, 46650, Note_on_c, 9, 36, 100
9, 46679, Note_on_c, 9, 36, 0
9, 46680, Note_on_c, 9, 38, 100
9, 46739, Note_on_c, 9, 57, 0
9, 46739, Note_on_c, 9, 38, 0
9, 46740, Note_on_c, 9, 42, 100
9, 46770, Note_on_c, 9, 36, 100
9, 46799, Note_on_c, 9, 42, 0
9, 46799, Note_on_c, 9, 36, 0
9, 46800, Note_on_c, 9, 42, 100
9, 46800, Note_on_c, 9, 36, 100
9, 46830, Note_on_c, 9, 38, 100
9, 46859, Note_on_c, 9, 42, 0
9, 46859, Note_on_c, 9, 38, 0
9, 46860, Note_on_c, 9, 42, 100
9, 46860, Note_on_c, 9, 38, 100
9, 46889, Note_on_c, 9, 36, 0
9, 46890, Note_on_c, 9, 36, 100
9, 46919, Note_on_c, 9, 42, 0
9, 46919, Note_on_c, 9, 38, 0
9, 46919, Note_on_c, 9, 36, 0
9, 46920, Note_on_c, 9, 42, 100
9, 46920, Note_on_c, 9, 45, 100
9, 46979, Note_on_c, 9, 42, 0
9, 46979, Note_on_c, 9, 45, 0
9, 46980, Note_on_c, 9, 42, 100
9, 46980, Note_on_c, 9, 43, 100
9, 47039, Note_on_c, 9, 42, 0
9, 47039, Note_on_c, 9, 43, 0
9, 47040, Note_on_c, 9, 49, 100
9, 47040, Note_on_c, 9, 36, 100
9, 47099, Note_on_c, 9, 49, 0
9, 47100, Note_on_c, 9, 42, 100
9, 47129, Note_on_c, 9, 36, 0
9, 47130, Note_on_c, 9, 36, 100
9, 47159, Note_on_c, 9, 42, 0
9, 47159, Note_on_c, 9, 36, 0
9, 47160, Note_on_c, 9, 42, 100
9, 47160, Note_on_c, 9, 38, 100
9, 47219, Note_on_c, 9, 42, 0
9, 47219, Note_on_c, 9, 38, 0
9, 47220, Note_on_c, 9, 42, 100
9, 47250, Note_on_c, 9, 36, 100
9, 47279, Note_on_c, 9, 42, 0
9, 47280, Note_on_c, 9, 42, 100
9, 47339, Note_on_c, 9, 36, 0
9, 47339, Note_on_c, 9, 42, 0
9, 47340, Note_on_c, 9, 42, 100
9, 47340, Note_on_c, 9, 36, 100
9, 47369, Note_on_c, 9, 36, 0
9, 47370, Note_on_c, 9, 36, 100
9, 47399, Note_on_c, 9, 42, 0
9, 47399, Note_on_c, 9, 36, 0
9, 47400, Note_on_c, 9, 42, 100
9, 47400, Note_on_c, 9, 38, 100
9, 47459, Note_on_c, 9, 42, 0
9, 47459, Note_on_c, 9, 38, 0
9, 47460, Note_on_c, 9, 42, 100
9, 47490, Note_on_c, 9, 36, 100
9, 47519, Note_on_c, 9, 42, 0
9, 47519, Note_on_c, 9, 36, 0
9, 47520, Note_on_c, 9, 42, 100
9, 47520, Note_on_c, 9, 36, 100
9, 47579, Note_on_c, 9, 42, 0
9, 47579, Note_on_c, 9, 36, 0
9, 47580, Note_on_c, 9, 42, 100
9, 47580, Note_on_c, 9, 36, 100
9, 47609, Note_on_c, 9, 36, 0
9, 47610, Note_on_c, 9, 36, 100
9, 47639, Note_on_c, 9, 42, 0
9, 47639, Note_on_c, 9, 36, 0
9, 47640, Note_on_c, 9, 42, 100
9, 47640, Note_on_c, 9, 38, 100
9, 47699, Note_on_c, 9, 42, 0
9, 47699, Note_on_c, 9, 38, 0
9, 47700, Note_on_c, 9, 42, 100
9, 47720, Note_on_c, 9, 36, 100
9, 47739, Note_on_c, 9, 36, 0
9, 47740, Note_on_c, 9, 36, 100
9, 47759, Note_on_c, 9, 42, 0
9, 47759, Note_on_c, 9, 36, 0
9, 47760, Note_on_c, 9, 42, 100
9, 47780, Note_on_c, 9, 36, 100
9, 47799, Note_on_c, 9, 36, 0
9, 47800, Note_on_c, 9, 36, 100
9, 47819, Note_on_c, 9, 42, 0
9, 47819, Note_on_c, 9, 36, 0
9, 47820, Note_on_c, 9, 42, 100
9, 47840, Note_on_c, 9, 36, 100
9, 47859, Note_on_c, 9, 36, 0
9, 47860, Note_on_c, 9, 36, 100
9, 47879, Note_on_c, 9, 42, 0
9, 47879, Note_on_c, 9, 36, 0
9, 47880, Note_on_c, 9, 38, 100
9, 47880, Note_on_c, 9, 42, 100
9, 47900, Note_on_c, 9, 36, 100
9, 47919, Note_on_c, 9, 36, 0
9, 47920, Note_on_c, 9, 36, 100
9, 47939, Note_on_c, 9, 38, 0
9, 47939, Note_on_c, 9, 42, 0
9, 47939, Note_on_c, 9, 36, 0
9, 47940, Note_on_c, 9, 38, 100
9, 47940, Note_on_c, 9, 42, 100
9, 47960, Note_on_c, 9, 36, 100
9, 47979, Note_on_c, 9, 36, 0
9, 47980, Note_on_c, 9, 36, 100
9, 47999, Note_on_c, 9, 38, 0
9, 47999, Note_on_c, 9, 42, 0
9, 47999, Note_on_c, 9, 36, 0
9, 48000, Note_on_c, 9, 49, 100
9, 48000, Note_on_c, 9, 36, 100
9, 48089, Note_on_c, 9, 36, 0
9, 48090, Note_on_c, 9, 36, 100
9, 48119, Note_on_c, 9, 49, 0
9, 48119, Note_on_c, 9, 36, 0
9, 48120, Note_on_c, 9, 42, 100
9, 48120, Note_on_c, 9, 38, 100
9, 48179, Note_on_c, 9, 42, 0
9, 48179, Note_on_c, 9, 38, 0
9, 48180, Note_on_c, 9, 42, 100
9, 48210, Note_on_c, 9, 36, 100
9, 48239, Note_on_c, 9, 42, 0
9, 48240, Note_on_c, 9, 42, 100
9, 48299, Note_on_c, 9, 36, 0
9, 48299, Note_on_c, 9, 42, 0
9, 48300, Note_on_c, 9, 42, 100
9, 48300, Note_on_c, 9, 36, 100
9, 48329, Note_on_c, 9, 36, 0
9, 48330, Note_on_c, 9, 36, 100
9, 48359, Note_on_c, 9, 42, 0
9, 48359, Note_on_c, 9, 36, 0
9, 48360, Note_on_c, 9, 42, 100
9, 48360, Note_on_c, 9, 38, 100
9, 48419, Note_on_c, 9, 42, 0
9, 48419, Note_on_c, 9, 38, 0
9, 48420, Note_on_c, 9, 42, 100
9, 48450, Note_on_c, 9, 36, 100
9, 48479, Note_on_c, 9, 42, 0
9, 48479, Note_on_c, 9, 36, 0
9, 48480, Note_on_c, 9, 36, 100
9, 48480, Note_on_c, 9, 42, 100
9, 48539, Note_on_c, 9, 36, 0
9, 48539, Note_on_c, 9, 42, 0
9, 48540, Note_on_c, 9, 36, 100
9, 48540, Note_on_c, 9, 42, 100
9, 48599, Note_on_c, 9, 36, 0
9, 48599, Note_on_c, 9, 42, 0
9, 48600, Note_on_c, 9, 42, 100
9, 48600, Note_on_c, 9, 38, 100
9, 48659, Note_on_c, 9, 42, 0
9, 48659, Note_on_c, 9, 38, 0
9, 48660, Note_on_c, 9, 42, 100
9, 48719, Note_on_c, 9, 42, 0
9, 48720, Note_on_c, 9, 42, 100
9, 48720, Note_on_c, 9, 36, 100
9, 48749, Note_on_c, 9, 42, 0
9, 48750, Note_on_c, 9, 38, 100
9, 48779, Note_on_c, 9, 36, 0
9, 48779, Note_on_c, 9, 38, 0
9, 48780, Note_on_c, 9, 36, 100
9, 48780, Note_on_c, 9, 42, 100
9, 48809, Note_on_c, 9, 36, 0
9, 48810, Note_on_c, 9, 36, 100
9, 48839, Note_on_c, 9, 42, 0
9, 48839, Note_on_c, 9, 36, 0
9, 48840, Note_on_c, 9, 42, 100
9, 48840, Note_on_c, 9, 38, 100
9, 48899, Note_on_c, 9, 42, 0
9, 48899, Note_on_c, 9, 38, 0
9, 48900, Note_on_c, 9, 42, 100
9, 48900, Note_on_c, 9, 38, 100
9, 48959, Note_on_c, 9, 42, 0
9, 48959, Note_on_c, 9, 38, 0
9, 48960, Note_on_c, 9, 49, 100
9, 48960, Note_on_c, 9, 36, 100
9, 49049, Note_on_c, 9, 36, 0
9, 49050, Note_on_c, 9, 36, 100
9, 49079, Note_on_c, 9, 49, 0
9, 49079, Note_on_c, 9, 36, 0
9, 49080, Note_on_c, 9, 38, 100
9, 49080, Note_on_c, 9, 42, 100
9, 49139, Note_on_c, 9, 38, 0
9, 49139, Note_on_c, 9, 42, 0
9, 49140, Note_on_c, 9, 42, 100
9, 49170, Note_on_c, 9, 36, 100
9, 49199, Note_on_c, 9, 42, 0
9, 49199, Note_on_c, 9, 36, 0
9, 49200, Note_on_c, 9, 42, 100
9, 49200, Note_on_c, 9, 36, 100
9, 49259, Note_on_c, 9, 42, 0
9, 49260, Note_on_c, 9, 42, 100
9, 49289, Note_on_c, 9, 36, 0
9, 49290, Note_on_c, 9, 36, 100
9, 49319, Note_on_c, 9, 42, 0
9, 49319, Note_on_c, 9, 36, 0
9, 49320, Note_on_c, 9, 38, 100
9, 49320, Note_on_c, 9, 42, 100
9, 49379, Note_on_c, 9, 38, 0
9, 49379, Note_on_c, 9, 42, 0
9, 49380, Note_on_c, 9, 42, 100
9, 49410, Note_on_c, 9, 36, 100
9, 49439, Note_on_c, 9, 42, 0
9, 49440, Note_on_c, 9, 42, 100
9, 49499, Note_on_c, 9, 36, 0
9, 49499, Note_on_c, 9, 42, 0
9, 49500, Note_on_c, 9, 36, 100
9, 49500, Note_on_c, 9, 42, 100
9, 49559, Note_on_c, 9, 36, 0
9, 49559, Note_on_c, 9, 42, 0
9, 49560, Note_on_c, 9, 38, 100
9, 49560, Note_on_c, 9, 42, 100
9, 49619, Note_on_c, 9, 38, 0
9, 49619, Note_on_c, 9, 42, 0
9, 49620, Note_on_c, 9, 38, 100
9, 49620, Note_on_c, 9, 42, 100
9, 49679, Note_on_c, 9, 38, 0
9, 49679, Note_on_c, 9, 42, 0
9, 49680, Note_on_c, 9, 36, 100
9, 49680, Note_on_c, 9, 42, 100
9, 49739, Note_on_c, 9, 36, 0
9, 49739, Note_on_c, 9, 42, 0
9, 49740, Note_on_c, 9, 36, 100
9, 49740, Note_on_c, 9, 42, 100
9, 49799, Note_on_c, 9, 36, 0
9, 49799, Note_on_c, 9, 42, 0
9, 49800, Note_on_c, 9, 42, 100
9, 49800, Note_on_c, 9, 38, 100
9, 49859, Note_on_c, 9, 42, 0
9, 49859, Note_on_c, 9, 38, 0
9, 49860, Note_on_c, 9, 42, 100
9, 49860, Note_on_c, 9, 38, 100
9, 49889, Note_on_c, 9, 38, 0
9, 49890, Note_on_c, 9, 38, 100
9, 49919, Note_on_c, 9, 42, 0
9, 49919, Note_on_c, 9, 38, 0
9, 49920, Note_on_c, 9, 36, 100
9, 49920, Note_on_c, 9, 42, 100
9, 49979, Note_on_c, 9, 42, 0
9, 49980, Note_on_c, 9, 42, 100
9, 50039, Note_on_c, 9, 36, 0
9, 50039, Note_on_c, 9, 42, 0
9, 50040, Note_on_c, 9, 38, 100
9, 50040, Note_on_c, 9, 42, 100
9, 50099, Note_on_c, 9, 38, 0
9, 50099, Note_on_c, 9, 42, 0
9, 50100, Note_on_c, 9, 42, 100
9, 50130, Note_on_c, 9, 36, 100
9, 50159, Note_on_c, 9, 42, 0
9, 50159, Note_on_c, 9, 36, 0
9, 50160, Note_on_c, 9, 36, 100
9, 50160, Note_on_c, 9, 42, 100
9, 50219, Note_on_c, 9, 42, 0
9, 50220, Note_on_c, 9, 42, 100
9, 50279, Note_on_c, 9, 36, 0
9, 50279, Note_on_c, 9, 42, 0
9, 50280, Note_on_c, 9, 38, 100
9, 50280, Note_on_c, 9, 42, 100
9, 50339, Note_on_c, 9, 38, 0
9, 50339, Note_on_c, 9, 42, 0
9, 50340, Note_on_c, 9, 42, 100
9, 50370, Note_on_c, 9, 36, 100
9, 50399, Note_on_c, 9, 42, 0
9, 50399, Note_on_c, 9, 36, 0
9, 50400, Note_on_c, 9, 42, 100
9, 50400, Note_on_c, 9, 36, 100
9, 50459, Note_on_c, 9, 42, 0
9, 50460, Note_on_c, 9, 42, 100
9, 50489, Note_on_c, 9, 36, 0
9, 50490, Note_on_c, 9, 36, 100
9, 50519, Note_on_c, 9, 42, 0
9, 50519, Note_on_c, 9, 36, 0
9, 50520, Note_on_c, 9, 38, 100
9, 50520, Note_on_c, 9, 42, 100
9, 50579, Note_on_c, 9, 38, 0
9, 50579, Note_on_c, 9, 42, 0
9, 50580, Note_on_c, 9, 42, 100
9, 50639, Note_on_c, 9, 42, 0
9, 50640, Note_on_c, 9, 42, 100
9, 50640, Note_on_c, 9, 36, 100
9, 50669, Note_on_c, 9, 42, 0
9, 50670, Note_on_c, 9, 38, 100
9, 50699, Note_on_c, 9, 36, 0
9, 50699, Note_on_c, 9, 38, 0
9, 50700, Note_on_c, 9, 42, 100
9, 50700, Note_on_c, 9, 36, 100
9, 50759, Note_on_c, 9, 42, 0
9, 50759, Note_on_c, 9, 36, 0
9, 50760, Note_on_c, 9, 38, 100
9, 50760, Note_on_c, 9, 42, 100
9, 50790, Note_on_c, 9, 36, 100
9, 50819, Note_on_c, 9, 38, 0
9, 50819, Note_on_c, 9, 42, 0
9, 50820, Note_on_c, 9, 38, 100
9, 50820, Note_on_c, 9, 42, 100
9, 50879, Note_on_c, 9, 36, 0
9, 50879, Note_on_c, 9, 38, 0
9, 50879, Note_on_c, 9, 42, 0
9, 50880, Note_on_c, 9, 42, 100
9, 50880, Note_on_c, 9, 36, 100
9, 50939, Note_on_c, 9, 42, 0
9, 50940, Note_on_c, 9, 42, 100
9, 50999, Note_on_c, 9, 36, 0
9, 50999, Note_on_c, 9, 42, 0
9, 51000, Note_on_c, 9, 42, 100
9, 51000, Note_on_c, 9, 38, 100
9, 51059, Note_on_c, 9, 42, 0
9, 51059, Note_on_c, 9, 38, 0
9, 51060, Note_on_c, 9, 42, 100
9, 51090, Note_on_c, 9, 36, 100
9, 51119, Note_on_c, 9, 42, 0
9, 51120, Note_on_c, 9, 42, 100
9, 51179, Note_on_c, 9, 36, 0
9, 51179, Note_on_c, 9, 42, 0
9, 51180, Note_on_c, 9, 42, 100
9, 51180, Note_on_c, 9, 36, 100
9, 51209, Note_on_c, 9, 36, 0
9, 51210, Note_on_c, 9, 36, 100
9, 51239, Note_on_c, 9, 42, 0
9, 51239, Note_on_c, 9, 36, 0
9, 51240, Note_on_c, 9, 42, 100
9, 51240, Note_on_c, 9, 38, 100
9, 51299, Note_on_c, 9, 42, 0
9, 51299, Note_on_c, 9, 38, 0
9, 51300, Note_on_c, 9, 42, 100
9, 51359, Note_on_c, 9, 42, 0
9, 51360, Note_on_c, 9, 42, 100
9, 51360, Note_on_c, 9, 36, 100
9, 51419, Note_on_c, 9, 42, 0
9, 51420, Note_on_c, 9, 42, 100
9, 51479, Note_on_c, 9, 36, 0
9, 51479, Note_on_c, 9, 42, 0
9, 51480, Note_on_c, 9, 42, 100
9, 51480, Note_on_c, 9, 38, 100
9, 51539, Note_on_c, 9, 42, 0
9, 51539, Note_on_c, 9, 38, 0
9, 51540, Note_on_c, 9, 42, 100
9, 51570, Note_on_c, 9, 36, 100
9, 51599, Note_on_c, 9, 42, 0
9, 51600, Note_on_c, 9, 42, 100
9, 51659, Note_on_c, 9, 36, 0
9, 51659, Note_on_c, 9, 42, 0
9, 51660, Note_on_c, 9, 42, 100
9, 51660, Note_on_c, 9, 36, 100
9, 51689, Note_on_c, 9, 36, 0
9, 51690, Note_on_c, 9, 36, 100
9, 51719, Note_on_c, 9, 42, 0
9, 51719, Note_on_c, 9, 36, 0
9, 51720, Note_on_c, 9, 42, 100
9, 51720, Note_on_c, 9, 38, 100
9, 51779, Note_on_c, 9, 42, 0
9, 51779, Note_on_c, 9, 38, 0
9, 51780, Note_on_c, 9, 42, 100
9, 51839, Note_on_c, 9, 42, 0
9, 51840, Note_on_c, 9, 42, 100
9, 51840, Note_on_c, 9, 36, 100
9, 51899, Note_on_c, 9, 42, 0
9, 51900, Note_on_c, 9, 42, 100
9, 51959, Note_on_c, 9, 36, 0
9, 51959, Note_on_c, 9, 42, 0
9, 51960, Note_on_c, 9, 42, 100
9, 51960, Note_on_c, 9, 38, 100
9, 52019, Note_on_c, 9, 42, 0
9, 52019, Note_on_c, 9, 38, 0
9, 52020, Note_on_c, 9, 42, 100
9, 52050, Note_on_c, 9, 36, 100
9, 52079, Note_on_c, 9, 42, 0
9, 52080, Note_on_c, 9, 42, 100
9, 52139, Note_on_c, 9, 36, 0
9, 52139, Note_on_c, 9, 42, 0
9, 52140, Note_on_c, 9, 42, 100
9, 52140, Note_on_c, 9, 36, 100
9, 52169, Note_on_c, 9, 36, 0
9, 52170, Note_on_c, 9, 36, 100
9, 52199, Note_on_c, 9, 42, 0
9, 52199, Note_on_c, 9, 36, 0
9, 52200, Note_on_c, 9, 42, 100
9, 52200, Note_on_c, 9, 38, 100
9, 52259, Note_on_c, 9, 42, 0
9, 52259, Note_on_c, 9, 38, 0
9, 52260, Note_on_c, 9, 42, 100
9, 52319, Note_on_c, 9, 42, 0
9, 52320, Note_on_c, 9, 42, 100
9, 52320, Note_on_c, 9, 36, 100
9, 52379, Note_on_c, 9, 42, 0
9, 52380, Note_on_c, 9, 42, 100
9, 52439, Note_on_c, 9, 36, 0
9, 52439, Note_on_c, 9, 42, 0
9, 52440, Note_on_c, 9, 42, 100
9, 52440, Note_on_c, 9, 38, 100
9, 52499, Note_on_c, 9, 42, 0
9, 52499, Note_on_c, 9, 38, 0
9, 52500, Note_on_c, 9, 42, 100
9, 52530, Note_on_c, 9, 36, 100
9, 52559, Note_on_c, 9, 42, 0
9, 52560, Note_on_c, 9, 42, 100
9, 52619, Note_on_c, 9, 36, 0
9, 52619, Note_on_c, 9, 42, 0
9, 52620, Note_on_c, 9, 42, 100
9, 52620, Note_on_c, 9, 36, 100
9, 52649, Note_on_c, 9, 36, 0
9, 52650, Note_on_c, 9, 36, 100
9, 52679, Note_on_c, 9, 42, 0
9, 52679, Note_on_c, 9, 36, 0
9, 52680, Note_on_c, 9, 42, 100
9, 52680, Note_on_c, 9, 38, 100
9, 52739, Note_on_c, 9, 42, 0
9, 52739, Note_on_c, 9, 38, 0
9, 52740, Note_on_c, 9, 42, 100
9, 52799, Note_on_c, 9, 42, 0
9, 52800, Note_on_c, 9, 42, 100
9, 52800, Note_on_c, 9, 36, 100
9, 52859, Note_on_c, 9, 42, 0
9, 52860, Note_on_c, 9, 42, 100
9, 52919, Note_on_c, 9, 36, 0
9, 52919, Note_on_c, 9, 42, 0
9, 52920, Note_on_c, 9, 42, 100
9, 52920, Note_on_c, 9, 38, 100
9, 52979, Note_on_c, 9, 42, 0
9, 52979, Note_on_c, 9, 38, 0
9, 52980, Note_on_c, 9, 42, 100
9, 53010, Note_on_c, 9, 36, 100
9, 53039, Note_on_c, 9, 42, 0
9, 53040, Note_on_c, 9, 42, 100
9, 53099, Note_on_c, 9, 36, 0
9, 53099, Note_on_c, 9, 42, 0
9, 53100, Note_on_c, 9, 42, 100
9, 53100, Note_on_c, 9, 36, 100
9, 53129, Note_on_c, 9, 36, 0
9, 53130, Note_on_c, 9, 36, 100
9, 53159, Note_on_c, 9, 42, 0
9, 53159, Note_on_c, 9, 36, 0
9, 53160, Note_on_c, 9, 42, 100
9, 53160, Note_on_c, 9, 38, 100
9, 53219, Note_on_c, 9, 42, 0
9, 53219, Note_on_c, 9, 38, 0
9, 53220, Note_on_c, 9, 42, 100
9, 53279, Note_on_c, 9, 42, 0
9, 53280, Note_on_c, 9, 42, 100
9, 53280, Note_on_c, 9, 36, 100
9, 53339, Note_on_c, 9, 42, 0
9, 53340, Note_on_c, 9, 42, 100
9, 53399, Note_on_c, 9, 36, 0
9, 53399, Note_on_c, 9, 42, 0
9, 53400, Note_on_c, 9, 42, 100
9, 53400, Note_on_c, 9, 38, 100
9, 53459, Note_on_c, 9, 42, 0
9, 53459, Note_on_c, 9, 38, 0
9, 53460, Note_on_c, 9, 42, 100
9, 53490, Note_on_c, 9, 36, 100
9, 53519, Note_on_c, 9, 42, 0
9, 53520, Note_on_c, 9, 42, 100
9, 53579, Note_on_c, 9, 36, 0
9, 53579, Note_on_c, 9, 42, 0
9, 53580, Note_on_c, 9, 42, 100
9, 53580, Note_on_c, 9, 36, 100
9, 53609, Note_on_c, 9, 36, 0
9, 53610, Note_on_c, 9, 36, 100
9, 53639, Note_on_c, 9, 42, 0
9, 53639, Note_on_c, 9, 36, 0
9, 53640, Note_on_c, 9, 42, 100
9, 53640, Note_on_c, 9, 38, 100
9, 53699, Note_on_c, 9, 42, 0
9, 53699, Note_on_c, 9, 38, 0
9, 53700, Note_on_c, 9, 42, 100
9, 53759, Note_on_c, 9, 42, 0
9, 53760, Note_on_c, 9, 42, 100
9, 53760, Note_on_c, 9, 36, 100
9, 53819, Note_on_c, 9, 42, 0
9, 53820, Note_on_c, 9, 42, 100
9, 53879, Note_on_c, 9, 36, 0
9, 53879, Note_on_c, 9, 42, 0
9, 53880, Note_on_c, 9, 42, 100
9, 53880, Note_on_c, 9, 38, 100
9, 53939, Note_on_c, 9, 42, 0
9, 53939, Note_on_c, 9, 38, 0
9, 53940, Note_on_c, 9, 42, 100
9, 53970, Note_on_c, 9, 36, 100
9, 53999, Note_on_c, 9, 42, 0
9, 54000, Note_on_c, 9, 42, 100
9, 54059, Note_on_c, 9, 36, 0
9, 54059, Note_on_c, 9, 42, 0
9, 54060, Note_on_c, 9, 42, 100
9, 54060, Note_on_c, 9, 36, 100
9, 54089, Note_on_c, 9, 36, 0
9, 54090, Note_on_c, 9, 36, 100
9, 54119, Note_on_c, 9, 42, 0
9, 54119, Note_on_c, 9, 36, 0
9, 54120, Note_on_c, 9, 42, 100
9, 54120, Note_on_c, 9, 38, 100
9, 54179, Note_on_c, 9, 42, 0
9, 54179, Note_on_c, 9, 38, 0
9, 54180, Note_on_c, 9, 42, 100
9, 54239, Note_on_c, 9, 42, 0
9, 54240, Note_on_c, 9, 42, 100
9, 54240, Note_on_c, 9, 36, 100
9, 54299, Note_on_c, 9, 42, 0
9, 54300, Note_on_c, 9, 42, 100
9, 54359, Note_on_c, 9, 36, 0
9, 54359, Note_on_c, 9, 42, 0
9, 54360, Note_on_c, 9, 42, 100
9, 54360, Note_on_c, 9, 38, 100
9, 54419, Note_on_c, 9, 42, 0
9, 54419, Note_on_c, 9, 38, 0
9, 54420, Note_on_c, 9, 42, 100
9, 54450, Note_on_c, 9, 36, 100
9, 54479, Note_on_c, 9, 42, 0
9, 54480, Note_on_c, 9, 42, 100
9, 54539, Note_on_c, 9, 36, 0
9, 54539, Note_on_c, 9, 42, 0
9, 54540, Note_on_c, 9, 42, 100
9, 54540, Note_on_c, 9, 36, 100
9, 54569, Note_on_c, 9, 36, 0
9, 54570, Note_on_c, 9, 36, 100
9, 54599, Note_on_c, 9, 42, 0
9, 54599, Note_on_c, 9, 36, 0
9, 54600, Note_on_c, 9, 42, 100
9, 54600, Note_on_c, 9, 38, 100
9, 54659, Note_on_c, 9, 42, 0
9, 54659, Note_on_c, 9, 38, 0
9, 54660, Note_on_c, 9, 42, 100
9, 54719, Note_on_c, 9, 42, 0
9, 54720, Note_on_c, 9, 42, 100
9, 54720, Note_on_c, 9, 36, 100
9, 54779, Note_on_c, 9, 42, 0
9, 54780, Note_on_c, 9, 42, 100
9, 54839, Note_on_c, 9, 36, 0
9, 54839, Note_on_c, 9, 42, 0
9, 54840, Note_on_c, 9, 42, 100
9, 54840, Note_on_c, 9, 38, 100
9, 54899, Note_on_c, 9, 42, 0
9, 54899, Note_on_c, 9, 38, 0
9, 54900, Note_on_c, 9, 42, 100
9, 54930, Note_on_c, 9, 36, 100
9, 54959, Note_on_c, 9, 42, 0
9, 54960, Note_on_c, 9, 42, 100
9, 55019, Note_on_c, 9, 36, 0
9, 55019, Note_on_c, 9, 42, 0
9, 55020, Note_on_c, 9, 42, 100
9, 55020, Note_on_c, 9, 36, 100
9, 55049, Note_on_c, 9, 36, 0
9, 55050, Note_on_c, 9, 36, 100
9, 55079, Note_on_c, 9, 42, 0
9, 55079, Note_on_c, 9, 36, 0
9, 55080, Note_on_c, 9, 42, 100
9, 55080, Note_on_c, 9, 38, 100
9, 55139, Note_on_c, 9, 42, 0
9, 55139, Note_on_c, 9, 38, 0
9, 55140, Note_on_c, 9, 42, 100
9, 55199, Note_on_c, 9, 42, 0
9, 55200, Note_on_c, 9, 42, 100
9, 55200, Note_on_c, 9, 36, 100
9, 55259, Note_on_c, 9, 42, 0
9, 55260, Note_on_c, 9, 42, 100
9, 55319, Note_on_c, 9, 36, 0
9, 55319, Note_on_c, 9, 42, 0
9, 55320, Note_on_c, 9, 42, 100
9, 55320, Note_on_c, 9, 38, 100
9, 55379, Note_on_c, 9, 42, 0
9, 55379, Note_on_c, 9, 38, 0
9, 55380, Note_on_c, 9, 42, 100
9, 55410, Note_on_c, 9, 36, 100
9, 55439, Note_on_c, 9, 42, 0
9, 55440, Note_on_c, 9, 42, 100
9, 55499, Note_on_c, 9, 36, 0
9, 55499, Note_on_c, 9, 42, 0
9, 55500, Note_on_c, 9, 42, 100
9, 55500, Note_on_c, 9, 36, 100
9, 55529, Note_on_c, 9, 36, 0
9, 55530, Note_on_c, 9, 36, 100
9, 55559, Note_on_c, 9, 42, 0
9, 55559, Note_on_c, 9, 36, 0
9, 55560, Note_on_c, 9, 42, 100
9, 55560, Note_on_c, 9, 38, 100
9, 55619, Note_on_c, 9, 42, 0
9, 55619, Note_on_c, 9, 38, 0
9, 55620, Note_on_c, 9, 42, 100
9, 55679, Note_on_c, 9, 42, 0
9, 55680, Note_on_c, 9, 42, 100
9, 55680, Note_on_c, 9, 36, 100
9, 55739, Note_on_c, 9, 42, 0
9, 55740, Note_on_c, 9, 42, 100
9, 55799, Note_on_c, 9, 36, 0
9, 55799, Note_on_c, 9, 42, 0
9, 55800, Note_on_c, 9, 42, 100
9, 55800, Note_on_c, 9, 38, 100
9, 55859, Note_on_c, 9, 42, 0
9, 55859, Note_on_c, 9, 38, 0
9, 55860, Note_on_c, 9, 42, 100
9, 55890, Note_on_c, 9, 36, 100
9, 55919, Note_on_c, 9, 42, 0
9, 55920, Note_on_c, 9, 42, 100
9, 55979, Note_on_c, 9, 36, 0
9, 55979, Note_on_c, 9, 42, 0
9, 55980, Note_on_c, 9, 42, 100
9, 55980, Note_on_c, 9, 36, 100
9, 56009, Note_on_c, 9, 36, 0
9, 56010, Note_on_c, 9, 36, 100
9, 56039, Note_on_c, 9, 42, 0
9, 56039, Note_on_c, 9, 36, 0
9, 56040, Note_on_c, 9, 42, 100
9, 56040, Note_on_c, 9, 38, 100
9, 56099, Note_on_c, 9, 42, 0
9, 56099, Note_on_c, 9, 38, 0
9, 56100, Note_on_c, 9, 42, 100
9, 56159, Note_on_c, 9, 42, 0
9, 56160, Note_on_c, 9, 42, 100
9, 56160, Note_on_c, 9, 36, 100
9, 56219, Note_on_c, 9, 42, 0
9, 56220, Note_on_c, 9, 42, 100
9, 56279, Note_on_c, 9, 36, 0
9, 56279, Note_on_c, 9, 42, 0
9, 56280, Note_on_c, 9, 42, 100
9, 56280, Note_on_c, 9, 38, 100
9, 56339, Note_on_c, 9, 42, 0
9, 56339, Note_on_c, 9, 38, 0
9, 56340, Note_on_c, 9, 42, 100
9, 56370, Note_on_c, 9, 36, 100
9, 56399, Note_on_c, 9, 42, 0
9, 56400, Note_on_c, 9, 42, 100
9, 56459, Note_on_c, 9, 36, 0
9, 56459, Note_on_c, 9, 42, 0
9, 56460, Note_on_c, 9, 42, 100
9, 56460, Note_on_c, 9, 36, 100
9, 56489, Note_on_c, 9, 36, 0
9, 56490, Note_on_c, 9, 36, 100
9, 56519, Note_on_c, 9, 42, 0
9, 56519, Note_on_c, 9, 36, 0
9, 56520, Note_on_c, 9, 42, 100
9, 56520, Note_on_c, 9, 38, 100
9, 56579, Note_on_c, 9, 42, 0
9, 56579, Note_on_c, 9, 38, 0
9, 56580, Note_on_c, 9, 42, 100
9, 56639, Note_on_c, 9, 42, 0
9, 56640, Note_on_c, 9, 42, 100
9, 56640, Note_on_c, 9, 36, 100
9, 56699, Note_on_c, 9, 42, 0
9, 56700, Note_on_c, 9, 42, 100
9, 56759, Note_on_c, 9, 36, 0
9, 56759, Note_on_c, 9, 42, 0
9, 56760, Note_on_c, 9, 42, 100
9, 56760, Note_on_c, 9, 38, 100
9, 56819, Note_on_c, 9, 42, 0
9, 56819, Note_on_c, 9, 38, 0
9, 56820, Note_on_c, 9, 42, 100
9, 56850, Note_on_c, 9, 36, 100
9, 56879, Note_on_c, 9, 42, 0
9, 56880, Note_on_c, 9, 42, 100
9, 56939, Note_on_c, 9, 36, 0
9, 56939, Note_on_c, 9, 42, 0
9, 56940, Note_on_c, 9, 42, 100
9, 56940, Note_on_c, 9, 36, 100
9, 56969, Note_on_c, 9, 36, 0
9, 56970, Note_on_c, 9, 36, 100
9, 56999, Note_on_c, 9, 42, 0
9, 56999, Note_on_c, 9, 36, 0
9, 57000, Note_on_c, 9, 42, 100
9, 57000, Note_on_c, 9, 38, 100
9, 57059, Note_on_c, 9, 42, 0
9, 57059, Note_on_c, 9, 38, 0
9, 57060, Note_on_c, 9, 42, 100
9, 57119, Note_on_c, 9, 42, 0
9, 57120, Note_on_c, 9, 42, 100
9, 57120, Note_on_c, 9, 36, 100
9, 57179, Note_on_c, 9, 42, 0
9, 57180, Note_on_c, 9, 42, 100
9, 57239, Note_on_c, 9, 36, 0
9, 57239, Note_on_c, 9, 42, 0
9, 57240, Note_on_c, 9, 42, 100
9, 57240, Note_on_c, 9, 38, 100
9, 57299, Note_on_c, 9, 42, 0
9, 57299, Note_on_c, 9, 38, 0
9, 57300, Note_on_c, 9, 42, 100
9, 57330, Note_on_c, 9, 36, 100
9, 57359, Note_on_c, 9, 42, 0
9, 57360, Note_on_c, 9, 42, 100
9, 57419, Note_on_c, 9, 36, 0
9, 57419, Note_on_c, 9, 42, 0
9, 57420, Note_on_c, 9, 42, 100
9, 57420, Note_on_c, 9, 36, 100
9, 57449, Note_on_c, 9, 36, 0
9, 57450, Note_on_c, 9, 36, 100
9, 57479, Note_on_c, 9, 42, 0
9, 57479, Note_on_c, 9, 36, 0
9, 57480, Note_on_c, 9, 42, 100
9, 57480, Note_on_c, 9, 38, 100
9, 57539, Note_on_c, 9, 42, 0
9, 57539, Note_on_c, 9, 38, 0
9, 57540, Note_on_c, 9, 42, 100
9, 57599, Note_on_c, 9, 42, 0
9, 57600, Note_on_c, 9, 42, 100
9, 57600, Note_on_c, 9, 36, 100
9, 57659, Note_on_c, 9, 42, 0
9, 57660, Note_on_c, 9, 42, 100
9, 57719, Note_on_c, 9, 36, 0
9, 57719, Note_on_c, 9, 42, 0
9, 57720, Note_on_c, 9, 42, 100
9, 57720, Note_on_c, 9, 38, 100
9, 57779, Note_on_c, 9, 42, 0
9, 57779, Note_on_c, 9, 38, 0
9, 57780, Note_on_c, 9, 42, 100
9, 57810, Note_on_c, 9, 36, 100
9, 57839, Note_on_c, 9, 42, 0
9, 57840, Note_on_c, 9, 42, 100
9, 57899, Note_on_c, 9, 36, 0
9, 57899, Note_on_c, 9, 42, 0
9, 57900, Note_on_c, 9, 42, 100
9, 57900, Note_on_c, 9, 36, 100
9, 57929, Note_on_c, 9, 36, 0
9, 57930, Note_on_c, 9, 36, 100
9, 57959, Note_on_c, 9, 42, 0
9, 57959, Note_on_c, 9, 36, 0
9, 57960, Note_on_c, 9, 42, 100
9, 57960, Note_on_c, 9, 38, 100
9, 58019, Note_on_c, 9, 42, 0
9, 58019, Note_on_c, 9, 38, 0
9, 58020, Note_on_c, 9, 42, 100
9, 58079, Note_on_c, 9, 42, 0
9, 58080, Note_on_c, 9, 42, 100
9, 58080, Note_on_c, 9, 36, 100
9, 58139, Note_on_c, 9, 42, 0
9, 58140, Note_on_c, 9, 42, 100
9, 58199, Note_on_c, 9, 36, 0
9, 58199, Note_on_c, 9, 42, 0
9, 58200, Note_on_c, 9, 42, 100
9, 58200, Note_on_c, 9, 38, 100
9, 58259, Note_on_c, 9, 42, 0
9, 58259, Note_on_c, 9, 38, 0
9, 58260, Note_on_c, 9, 42, 100
9, 58290, Note_on_c, 9, 36, 100
9, 58319, Note_on_c, 9, 42, 0
9, 58320, Note_on_c, 9, 42, 100
9, 58379, Note_on_c, 9, 36, 0
9, 58379, Note_on_c, 9, 42, 0
9, 58380, Note_on_c, 9, 42, 100
9, 58380, Note_on_c, 9, 36, 100
9, 58409, Note_on_c, 9, 36, 0
9, 58410, Note_on_c, 9, 36, 100
9, 58439, Note_on_c, 9, 42, 0
9, 58439, Note_on_c, 9, 36, 0
9, 58440, Note_on_c, 9, 42, 100
9, 58440, Note_on_c, 9, 38, 100
9, 58499, Note_on_c, 9, 42, 0
9, 58499, Note_on_c, 9, 38, 0
9, 58500, Note_on_c, 9, 42, 100
9, 58559, Note_on_c, 9, 42, 0
9, 58560, Note_on_c, 9, 42, 100
9, 58560, Note_on_c, 9, 36, 100
9, 58619, Note_on_c, 9, 42, 0
9, 58620, Note_on_c, 9, 42, 100
9, 58679, Note_on_c, 9, 36, 0
9, 58679, Note_on_c, 9, 42, 0
9, 58680, Note_on_c, 9, 42, 100
9, 58680, Note_on_c, 9, 38, 100
9, 58739, Note_on_c, 9, 42, 0
9, 58739, Note_on_c, 9, 38, 0
9, 58740, Note_on_c, 9, 42, 100
9, 58770, Note_on_c, 9, 36, 100
9, 58799, Note_on_c, 9, 42, 0
9, 58800, Note_on_c, 9, 42, 100
9, 58859, Note_on_c, 9, 36, 0
9, 58859, Note_on_c, 9, 42, 0
9, 58860, Note_on_c, 9, 42, 100
9, 58860, Note_on_c, 9, 36, 100
9, 58889, Note_on_c, 9, 36, 0
9, 58890, Note_on_c, 9, 36, 100
9, 58919, Note_on_c, 9, 42, 0
9, 58919, Note_on_c, 9, 36, 0
9, 58920, Note_on_c, 9, 42, 100
9, 58920, Note_on_c, 9, 38, 100
9, 58979, Note_on_c, 9, 42, 0
9, 58979, Note_on_c, 9, 38, 0
9, 58980, Note_on_c, 9, 42, 100
9, 59039, Note_on_c, 9, 42, 0
9, 59040, Note_on_c, 9, 42, 100
9, 59040, Note_on_c, 9, 36, 100
9, 59099, Note_on_c, 9, 42, 0
9, 59100, Note_on_c, 9, 42, 100
9, 59159, Note_on_c, 9, 36, 0
9, 59159, Note_on_c, 9, 42, 0
9, 59160, Note_on_c, 9, 42, 100
9, 59160, Note_on_c, 9, 38, 100
9, 59219, Note_on_c, 9, 42, 0
9, 59219, Note_on_c, 9, 38, 0
9, 59220, Note_on_c, 9, 42, 100
9, 59250, Note_on_c, 9, 36, 100
9, 59279, Note_on_c, 9, 42, 0
9, 59280, Note_on_c, 9, 42, 100
9, 59339, Note_on_c, 9, 36, 0
9, 59339, Note_on_c, 9, 42, 0
9, 59340, Note_on_c, 9, 42, 100
9, 59340, Note_on_c, 9, 36, 100
9, 59369, Note_on_c, 9, 36, 0
9, 59370, Note_on_c, 9, 36, 100
9, 59399, Note_on_c, 9, 42, 0
9, 59399, Note_on_c, 9, 36, 0
9, 59400, Note_on_c, 9, 42, 100
9, 59400, Note_on_c, 9, 38, 100
9, 59459, Note_on_c, 9, 42, 0
9, 59459, Note_on_c, 9, 38, 0
9, 59460, Note_on_c, 9, 42, 100
9, 59519, Note_on_c, 9, 42, 0
9, 59520, Note_on_c, 9, 42, 100
9, 59520, Note_on_c, 9, 36, 100
9, 59579, Note_on_c, 9, 42, 0
9, 59580, Note_on_c, 9, 42, 100
9, 59639, Note_on_c, 9, 36, 0
9, 59639, Note_on_c, 9, 42, 0
9, 59640, Note_on_c, 9, 42, 100
9, 59640, Note_on_c, 9, 38, 100
9, 59699, Note_on_c, 9, 42, 0
9, 59699, Note_on_c, 9, 38, 0
9, 59700, Note_on_c, 9, 42, 100
9, 59730, Note_on_c, 9, 36, 100
9, 59759, Note_on_c, 9, 42, 0
9, 59760, Note_on_c, 9, 42, 100
9, 59819, Note_on_c, 9, 36, 0
9, 59819, Note_on_c, 9, 42, 0
9, 59820, Note_on_c, 9, 42, 100
9, 59820, Note_on_c, 9, 36, 100
9, 59849, Note_on_c, 9, 36, 0
9, 59850, Note_on_c, 9, 36, 100
9, 59879, Note_on_c, 9, 42, 0
9, 59879, Note_on_c, 9, 36, 0
9, 59880, Note_on_c, 9, 42, 100
9, 59880, Note_on_c, 9, 38, 100
9, 59939, Note_on_c, 9, 42, 0
9, 59939, Note_on_c, 9, 38, 0
9, 59940, Note_on_c, 9, 42, 100
9, 59999, Note_on_c, 9, 42, 0
9, 60000, Note_on_c, 9, 42, 100
9, 60000, Note_on_c, 9, 36, 100
9, 60059, Note_on_c, 9, 42, 0
9, 60060, Note_on_c, 9, 42, 100
9, 60119, Note_on_c, 9, 36, 0
9, 60119, Note_on_c, 9, 42, 0
9, 60120, Note_on_c, 9, 42, 100
9, 60120, Note_on_c, 9, 38, 100
9, 60179, Note_on_c, 9, 42, 0
9, 60179, Note_on_c, 9, 38, 0
9, 60180, Note_on_c, 9, 42, 100
9, 60210, Note_on_c, 9, 36, 100
9, 60239, Note_on_c, 9, 42, 0
9, 60240, Note_on_c, 9, 42, 100
9, 60299, Note_on_c, 9, 36, 0
9, 60299, Note_on_c, 9, 42, 0
9, 60300, Note_on_c, 9, 42, 100
9, 60300, Note_on_c, 9, 36, 100
9, 60329, Note_on_c, 9, 36, 0
9, 60330, Note_on_c, 9, 36, 100
9, 60359, Note_on_c, 9, 42, 0
9, 60359, Note_on_c, 9, 36, 0
9, 60360, Note_on_c, 9, 42, 100
9, 60360, Note_on_c, 9, 38, 100
9, 60419, Note_on_c, 9, 42, 0
9, 60419, Note_on_c, 9, 38, 0
9, 60420, Note_on_c, 9, 42, 100
9, 60479, Note_on_c, 9, 42, 0
9, 60480, Note_on_c, 9, 42, 100
9, 60480, Note_on_c, 9, 36, 100
9, 60539, Note_on_c, 9, 42, 0
9, 60540, Note_on_c, 9, 42, 100
9, 60599, Note_on_c, 9, 36, 0
9, 60599, Note_on_c, 9, 42, 0
9, 60600, Note_on_c, 9, 42, 100
9, 60600, Note_on_c, 9, 38, 100
9, 60659, Note_on_c, 9, 42, 0
9, 60659, Note_on_c, 9, 38, 0
9, 60660, Note_on_c, 9, 42, 100
9, 60690, Note_on_c, 9, 36, 100
9, 60719, Note_on_c, 9, 42, 0
9, 60720, Note_on_c, 9, 42, 100
9, 60779, Note_on_c, 9, 36, 0
9, 60779, Note_on_c, 9, 42, 0
9, 60780, Note_on_c, 9, 42, 100
9, 60780, Note_on_c, 9, 36, 100
9, 60809, Note_on_c, 9, 36, 0
9, 60810, Note_on_c, 9, 36, 100
9, 60839, Note_on_c, 9, 42, 0
9, 60839, Note_on_c, 9, 36, 0
9, 60840, Note_on_c, 9, 42, 100
9, 60840, Note_on_c, 9, 38, 100
9, 60899, Note_on_c, 9, 42, 0
9, 60899, Note_on_c, 9, 38, 0
9, 60900, Note_on_c, 9, 42, 100
9, 60959, Note_on_c, 9, 42, 0
9, 60960, Note_on_c, 9, 42, 100
9, 60960, Note_on_c, 9, 36, 100
9, 61019, Note_on_c, 9, 42, 0
9, 61020, Note_on_c, 9, 42, 100
9, 61079, Note_on_c, 9, 36, 0
9, 61079, Note_on_c, 9, 42, 0
9, 61080, Note_on_c, 9, 42, 100
9, 61080, Note_on_c, 9, 38, 100
9, 61139, Note_on_c, 9, 42, 0
9, 61139, Note_on_c, 9, 38, 0
9, 61140, Note_on_c, 9, 42, 100
9, 61170, Note_on_c, 9, 36, 100
9, 61199, Note_on_c, 9, 42, 0
9, 61200, Note_on_c, 9, 42, 100
9, 61259, Note_on_c, 9, 36, 0
9, 61259, Note_on_c, 9, 42, 0
9, 61260, Note_on_c, 9, 42, 100
9, 61260, Note_on_c, 9, 36, 100
9, 61289, Note_on_c, 9, 36, 0
9, 61290, Note_on_c, 9, 36, 100
9, 61319, Note_on_c, 9, 42, 0
9, 61319, Note_on_c, 9, 36, 0
9, 61320, Note_on_c, 9, 42, 100
9, 61320, Note_on_c, 9, 38, 100
9, 61379, Note_on_c, 9, 42, 0
9, 61379, Note_on_c, 9, 38, 0
9, 61380, Note_on_c, 9, 42, 100
9, 61439, Note_on_c, 9, 42, 0
9, 61440, Note_on_c, 9, 42, 100
9, 61440, Note_on_c, 9, 36, 100
9, 61499, Note_on_c, 9, 42, 0
9, 61500, Note_on_c, 9, 42, 100
9, 61559, Note_on_c, 9, 36, 0
9, 61559, Note_on_c, 9, 42, 0
9, 61560, Note_on_c, 9, 42, 100
9, 61560, Note_on_c, 9, 38, 100
9, 61619, Note_on_c, 9, 42, 0
9, 61619, Note_on_c, 9, 38, 0
9, 61620, Note_on_c, 9, 42, 100
9, 61650, Note_on_c, 9, 36, 100
9, 61679, Note_on_c, 9, 42, 0
9, 61680, Note_on_c, 9, 42, 100
9, 61739, Note_on_c, 9, 36, 0
9, 61739, Note_on_c, 9, 42, 0
9, 61740, Note_on_c, 9, 42, 100
9, 61740, Note_on_c, 9, 36, 100
9, 61769, Note_on_c, 9, 36, 0
9, 61770, Note_on_c, 9, 36, 100
9, 61799, Note_on_c, 9, 42, 0
9, 61799, Note_on_c, 9, 36, 0
9, 61800, Note_on_c, 9, 42, 100
9, 61800, Note_on_c, 9, 38, 100
9, 61859, Note_on_c, 9, 42, 0
9, 61859, Note_on_c, 9, 38, 0
9, 61860, Note_on_c, 9, 42, 100
9, 61919, Note_on_c, 9, 42, 0
9, 61920, Note_on_c, 9, 42, 100
9, 61920, Note_on_c, 9, 36, 100
9, 61979, Note_on_c, 9, 42, 0
9, 61980, Note_on_c, 9, 42, 100
9, 62039, Note_on_c, 9, 36, 0
9, 62039, Note_on_c, 9, 42, 0
9, 62040, Note_on_c, 9, 42, 100
9, 62040, Note_on_c, 9, 38, 100
9, 62099, Note_on_c, 9, 42, 0
9, 62099, Note_on_c, 9, 38, 0
9, 62100, Note_on_c, 9, 42, 100
9, 62130, Note_on_c, 9, 36, 100
9, 62159, Note_on_c, 9, 42, 0
9, 62160, Note_on_c, 9, 42, 100
9, 62219, Note_on_c, 9, 36, 0
9, 62219, Note_on_c, 9, 42, 0
9, 62220, Note_on_c, 9, 42, 100
9, 62220, Note_on_c, 9, 36, 100
9, 62249, Note_on_c, 9, 36, 0
9, 62250, Note_on_c, 9, 36, 100
9, 62279, Note_on_c, 9, 42, 0
9, 62279, Note_on_c, 9, 36, 0
9, 62280, Note_on_c, 9, 42, 100
9, 62280, Note_on_c, 9, 38, 100
9, 62339, Note_on_c, 9, 42, 0
9, 62339, Note_on_c, 9, 38, 0
9, 62340, Note_on_c, 9, 42, 100
9, 62399, Note_on_c, 9, 42, 0
9, 62400, Note_on_c, 9, 42, 100
9, 62400, Note_on_c, 9, 36, 100
9, 62459, Note_on_c, 9, 42, 0
9, 62460, Note_on_c, 9, 42, 100
9, 62519, Note_on_c, 9, 36, 0
9, 62519, Note_on_c, 9, 42, 0
9, 62520, Note_on_c, 9, 42, 100
9, 62520, Note_on_c, 9, 38, 100
9, 62579, Note_on_c, 9, 42, 0
9, 62579, Note_on_c, 9, 38, 0
9, 62580, Note_on_c, 9, 42, 100
9, 62610, Note_on_c, 9, 36, 100
9, 62639, Note_on_c, 9, 42, 0
9, 62640, Note_on_c, 9, 42, 100
9, 62699, Note_on_c, 9, 36, 0
9, 62699, Note_on_c, 9, 42, 0
9, 62700, Note_on_c, 9, 42, 100
9, 62700, Note_on_c, 9, 36, 100
9, 62729, Note_on_c, 9, 36, 0
9, 62730, Note_on_c, 9, 36, 100
9, 62759, Note_on_c, 9, 42, 0
9, 62759, Note_on_c, 9, 36, 0
9, 62760, Note_on_c, 9, 38, 100
9, 62760, Note_on_c, 9, 42, 100
9, 62819, Note_on_c, 9, 38, 0
9, 62819, Note_on_c, 9, 42, 0
9, 62820, Note_on_c, 9, 42, 100
9, 62879, Note_on_c, 9, 42, 0
9, 62880, Note_on_c, 9, 42, 100
9, 62880, Note_on_c, 9, 36, 100
9, 62939, Note_on_c, 9, 42, 0
9, 62940, Note_on_c, 9, 42, 100
9, 62999, Note_on_c, 9, 36, 0
9, 62999, Note_on_c, 9, 42, 0
9, 63000, Note_on_c, 9, 38, 100
9, 63000, Note_on_c, 9, 42, 100
9, 63059, Note_on_c, 9, 38, 0
9, 63059, Note_on_c, 9, 42, 0
9, 63059, End_track
10, 0, Start_track
10, 0, MIDI_port, 0
10, 0, End_track
11, 0, Start_track
11, 0, Title_t, "======================================"
11, 0, MIDI_port, 0
11, 0, Control_c, 0, 32, 0
11, 0, Control_c, 0, 0, 0
11, 0, Program_c, 0, 0
11, 0, End_track
12, 0, Start_track
12, 0, Title_t, "Sequenced by: Unknown"
12, 0, MIDI_port, 0
12, 0, Control_c, 0, 32, 0
12, 0, Control_c, 0, 0, 0
12, 0, Program_c, 0, 0
12, 0, End_track
13, 0, Start_track
13, 0, Title_t, "For: GS"
13, 0, MIDI_port, 0
13, 0, Control_c, 0, 32, 0
13, 0, Control_c, 0, 0, 0
13, 0, Program_c, 0, 0
13, 0, End_track
14, 0, Start_track
14, 0, MIDI_port, 0
14, 0, Control_c, 0, 32, 0
14, 0, Control_c, 0, 0, 0
14, 0, Program_c, 0, 0
14, 0, End_track
15, 0, Start_track
15, 0, Title_t, "Song: When the Levee Breaks"
15, 0, MIDI_port, 0
15, 0, Control_c, 0, 32, 0
15, 0, Control_c, 0, 0, 0
15, 0, Program_c, 0, 0
15, 0, End_track
16, 0, Start_track
16, 0, Title_t, "Group: Led Zeppelin"
16, 0, MIDI_port, 0
16, 0, Control_c, 0, 32, 0
16, 0, Control_c, 0, 0, 0
16, 0, Program_c, 0, 0
16, 0, End_track
17, 0, Start_track
17, 0, Title_t, "Album: Led Zeppelin 4"
17, 0, MIDI_port, 0
17, 0, Control_c, 0, 32, 0
17, 0, Control_c, 0, 0, 0
17, 0, Program_c, 0, 0
17, 0, End_track
18, 0, Start_track
18, 0, Title_t, "Release: 1971"
18, 0, MIDI_port, 0
18, 0, Control_c, 0, 32, 0
18, 0, Control_c, 0, 0, 0
18, 0, Program_c, 0, 0
18, 0, End_track
19, 0, Start_track
19, 0, MIDI_port, 0
19, 0, Control_c, 0, 32, 0
19, 0, Control_c, 0, 0, 0
19, 0, Program_c, 0, 0
19, 0, End_track
20, 0, Start_track
20, 0, Title_t, "Rearranged: Mark Johnson"
20, 0, MIDI_port, 0
20, 0, Control_c, 0, 32, 0
20, 0, Control_c, 0, 0, 0
20, 0, Program_c, 0, 0
20, 0, End_track
21, 0, Start_track
21, 0, Title_t, "For: GS/Roland"
21, 0, MIDI_port, 0
21, 0, Control_c, 0, 32, 0
21, 0, Control_c, 0, 0, 0
21, 0, Program_c, 0, 0
21, 0, End_track
22, 0, Start_track
22, 0, Title_t, "E-mail: 102334.12@compuserve.com"
22, 0, MIDI_port, 0
22, 0, Control_c, 0, 32, 0
22, 0, Control_c, 0, 0, 0
22, 0, Program_c, 0, 0
22, 0, End_track
0, 0, End_of_file
