0, 0, Header, 0, 1, 96
1, 0, Start_track
1, 0, Title_t, "White Room"
1, 0, Title_t, "Cream"
1, 0, Text_t, "www.ifni.com"
1, 0, MIDI_port, 0
1, 0, System_exclusive, 5, 126, 127, 9, 1, 247
1, 0, MIDI_port, 0
1, 0, Time_signature, 4, 2, 24, 8
1, 0, Key_signature, 0, "major"
1, 0, Tempo, 576923
1, 0, Marker_t, "IFNI MIDI MUSIC"
1, 103, Program_c, 1, 33
1, 104, Control_c, 1, 7, 105
1, 104, Control_c, 1, 10, 64
1, 104, Control_c, 1, 11, 127
1, 105, Control_c, 1, 91, 40
1, 105, Control_c, 1, 93, 0
1, 108, Program_c, 2, 1
1, 109, Control_c, 2, 7, 100
1, 109, Control_c, 2, 10, 64
1, 109, Control_c, 2, 11, 127
1, 110, Control_c, 2, 91, 40
1, 110, Control_c, 2, 93, 25
1, 113, Program_c, 3, 81
1, 114, Control_c, 3, 7, 100
1, 114, Control_c, 3, 10, 64
1, 114, Control_c, 3, 11, 127
1, 115, Control_c, 3, 91, 70
1, 115, Control_c, 3, 93, 60
1, 118, Program_c, 4, 29
1, 119, Control_c, 4, 7, 90
1, 119, Control_c, 4, 10, 64
1, 119, Control_c, 4, 11, 127
1, 120, Control_c, 4, 91, 80
1, 120, Control_c, 4, 93, 50
1, 123, Program_c, 5, 17
1, 124, Control_c, 5, 7, 100
1, 124, Control_c, 5, 10, 64
1, 124, Control_c, 5, 11, 127
1, 125, Control_c, 5, 91, 75
1, 125, Control_c, 5, 93, 40
1, 128, Program_c, 6, 52
1, 129, Control_c, 6, 7, 100
1, 129, Control_c, 6, 10, 64
1, 129, Control_c, 6, 11, 127
1, 130, Control_c, 6, 91, 90
1, 130, Control_c, 6, 93, 35
1, 133, Program_c, 7, 30
1, 134, Control_c, 7, 7, 90
1, 134, Control_c, 7, 10, 64
1, 134, Control_c, 7, 11, 127
1, 135, Control_c, 7, 91, 100
1, 135, Control_c, 7, 93, 50
1, 138, Program_c, 8, 27
1, 139, Control_c, 8, 7, 70
1, 139, Control_c, 8, 10, 64
1, 139, Control_c, 8, 11, 127
1, 140, Control_c, 8, 91, 80
1, 140, Control_c, 8, 93, 65
1, 144, Control_c, 9, 7, 105
1, 144, Control_c, 9, 11, 127
1, 145, Control_c, 9, 91, 85
1, 145, Control_c, 9, 93, 25
1, 384, Note_on_c, 9, 42, 68
1, 386, Note_on_c, 9, 42, 0
1, 480, Note_on_c, 9, 42, 54
1, 482, Note_on_c, 9, 42, 0
1, 576, Note_on_c, 9, 42, 66
1, 578, Note_on_c, 9, 42, 0
1, 672, Note_on_c, 9, 42, 68
1, 674, Note_on_c, 9, 42, 0
1, 768, Note_on_c, 9, 42, 72
1, 770, Note_on_c, 9, 42, 0
1, 864, Note_on_c, 9, 42, 68
1, 866, Note_on_c, 9, 42, 0
1, 960, Note_on_c, 9, 42, 62
1, 962, Note_on_c, 9, 42, 0
1, 1056, Note_on_c, 9, 40, 105
1, 1058, Note_on_c, 9, 40, 0
1, 1152, Note_on_c, 1, 31, 104
1, 1152, Note_on_c, 4, 43, 84
1, 1152, Note_on_c, 4, 50, 84
1, 1152, Note_on_c, 4, 55, 92
1, 1152, Note_on_c, 6, 62, 66
1, 1152, Note_on_c, 6, 70, 56
1, 1152, Note_on_c, 6, 67, 68
1, 1152, Note_on_c, 8, 43, 84
1, 1152, Note_on_c, 8, 50, 84
1, 1152, Note_on_c, 8, 55, 92
1, 1152, Note_on_c, 9, 35, 75
1, 1152, Note_on_c, 9, 40, 76
1, 1152, Note_on_c, 9, 43, 75
1, 1152, Note_on_c, 9, 52, 88
1, 1154, Note_on_c, 9, 52, 0
1, 1154, Note_on_c, 9, 43, 0
1, 1154, Note_on_c, 9, 35, 0
1, 1154, Note_on_c, 9, 40, 0
1, 1203, Note_on_c, 1, 31, 0
1, 1248, Note_on_c, 1, 31, 96
1, 1248, Note_on_c, 9, 40, 63
1, 1248, Note_on_c, 9, 43, 75
1, 1250, Note_on_c, 9, 43, 0
1, 1250, Note_on_c, 9, 40, 0
1, 1268, Note_on_c, 1, 31, 0
1, 1280, Note_on_c, 1, 31, 82
1, 1280, Note_on_c, 9, 40, 57
1, 1280, Note_on_c, 9, 43, 45
1, 1282, Note_on_c, 9, 43, 0
1, 1282, Note_on_c, 9, 40, 0
1, 1292, Note_on_c, 1, 31, 0
1, 1312, Note_on_c, 1, 31, 104
1, 1312, Note_on_c, 9, 40, 48
1, 1312, Note_on_c, 9, 43, 58
1, 1314, Note_on_c, 9, 43, 0
1, 1314, Note_on_c, 9, 40, 0
1, 1335, Note_on_c, 1, 31, 0
1, 1344, Note_on_c, 1, 31, 88
1, 1344, Note_on_c, 9, 40, 76
1, 1344, Note_on_c, 9, 43, 75
1, 1346, Note_on_c, 9, 43, 0
1, 1346, Note_on_c, 9, 40, 0
1, 1389, Note_on_c, 1, 31, 0
1, 1440, Note_on_c, 1, 31, 108
1, 1440, Note_on_c, 9, 40, 76
1, 1440, Note_on_c, 9, 43, 75
1, 1442, Note_on_c, 9, 43, 0
1, 1442, Note_on_c, 9, 40, 0
1, 1459, Note_on_c, 1, 31, 0
1, 1488, Note_on_c, 1, 31, 76
1, 1488, Note_on_c, 9, 40, 68
1, 1488, Note_on_c, 9, 43, 57
1, 1490, Note_on_c, 9, 43, 0
1, 1490, Note_on_c, 9, 40, 0
1, 1509, Note_on_c, 1, 31, 0
1, 1536, Note_on_c, 1, 31, 112
1, 1536, Note_on_c, 9, 35, 75
1, 1536, Note_on_c, 9, 40, 76
1, 1536, Note_on_c, 9, 43, 75
1, 1538, Note_on_c, 9, 43, 0
1, 1538, Note_on_c, 9, 40, 0
1, 1538, Note_on_c, 9, 35, 0
1, 1573, Note_on_c, 1, 31, 0
1, 1584, Note_on_c, 9, 41, 35
1, 1586, Note_on_c, 9, 41, 0
1, 1605, Note_on_c, 6, 62, 0
1, 1611, Note_on_c, 4, 55, 0
1, 1611, Note_on_c, 8, 55, 0
1, 1611, Note_on_c, 6, 70, 0
1, 1613, Note_on_c, 4, 43, 0
1, 1613, Note_on_c, 8, 43, 0
1, 1632, Note_on_c, 1, 29, 108
1, 1632, Note_on_c, 4, 41, 62
1, 1632, Note_on_c, 4, 48, 66
1, 1632, Note_on_c, 4, 53, 88
1, 1632, Note_on_c, 6, 69, 68
1, 1632, Note_on_c, 6, 65, 84
1, 1632, Note_on_c, 6, 60, 72
1, 1632, Note_on_c, 8, 48, 66
1, 1632, Note_on_c, 8, 53, 88
1, 1632, Note_on_c, 8, 41, 62
1, 1632, Note_on_c, 9, 35, 75
1, 1632, Note_on_c, 9, 40, 76
1, 1632, Note_on_c, 9, 43, 75
1, 1632, Note_on_c, 9, 52, 97
1, 1633, Note_on_c, 4, 50, 0
1, 1633, Note_on_c, 8, 50, 0
1, 1633, Note_on_c, 6, 67, 0
1, 1634, Note_on_c, 9, 52, 0
1, 1634, Note_on_c, 9, 43, 0
1, 1634, Note_on_c, 9, 40, 0
1, 1634, Note_on_c, 9, 35, 0
1, 1670, Note_on_c, 1, 29, 0
1, 1728, Note_on_c, 1, 29, 108
1, 1728, Note_on_c, 9, 40, 60
1, 1728, Note_on_c, 9, 43, 75
1, 1730, Note_on_c, 9, 43, 0
1, 1730, Note_on_c, 9, 40, 0
1, 1747, Note_on_c, 1, 29, 0
1, 1760, Note_on_c, 1, 29, 104
1, 1760, Note_on_c, 9, 40, 63
1, 1760, Note_on_c, 9, 43, 55
1, 1762, Note_on_c, 9, 43, 0
1, 1762, Note_on_c, 9, 40, 0
1, 1771, Note_on_c, 1, 29, 0
1, 1792, Note_on_c, 1, 29, 108
1, 1792, Note_on_c, 9, 40, 66
1, 1792, Note_on_c, 9, 43, 55
1, 1794, Note_on_c, 9, 43, 0
1, 1794, Note_on_c, 9, 40, 0
1, 1811, Note_on_c, 1, 29, 0
1, 1824, Note_on_c, 1, 29, 104
1, 1824, Note_on_c, 9, 40, 69
1, 1824, Note_on_c, 9, 43, 75
1, 1826, Note_on_c, 9, 43, 0
1, 1826, Note_on_c, 9, 40, 0
1, 1869, Note_on_c, 1, 29, 0
1, 1920, Note_on_c, 1, 29, 100
1, 1920, Note_on_c, 9, 40, 76
1, 1920, Note_on_c, 9, 43, 75
1, 1922, Note_on_c, 9, 43, 0
1, 1922, Note_on_c, 9, 40, 0
1, 1946, Note_on_c, 1, 29, 0
1, 1968, Note_on_c, 1, 29, 92
1, 1968, Note_on_c, 9, 40, 71
1, 1968, Note_on_c, 9, 43, 58
1, 1970, Note_on_c, 9, 43, 0
1, 1970, Note_on_c, 9, 40, 0
1, 1989, Note_on_c, 1, 29, 0
1, 2016, Note_on_c, 1, 29, 108
1, 2016, Note_on_c, 9, 35, 75
1, 2016, Note_on_c, 9, 40, 76
1, 2016, Note_on_c, 9, 43, 75
1, 2018, Note_on_c, 9, 43, 0
1, 2018, Note_on_c, 9, 40, 0
1, 2018, Note_on_c, 9, 35, 0
1, 2052, Note_on_c, 1, 29, 0
1, 2064, Note_on_c, 9, 41, 35
1, 2066, Note_on_c, 9, 41, 0
1, 2089, Note_on_c, 6, 60, 0
1, 2091, Note_on_c, 6, 69, 0
1, 2093, Note_on_c, 6, 65, 0
1, 2112, Note_on_c, 1, 38, 100
1, 2112, Note_on_c, 4, 50, 92
1, 2112, Note_on_c, 4, 57, 92
1, 2112, Note_on_c, 4, 62, 88
1, 2112, Note_on_c, 6, 62, 66
1, 2112, Note_on_c, 6, 65, 68
1, 2112, Note_on_c, 6, 69, 62
1, 2112, Note_on_c, 8, 62, 88
1, 2112, Note_on_c, 8, 57, 92
1, 2112, Note_on_c, 8, 50, 92
1, 2112, Note_on_c, 9, 35, 75
1, 2112, Note_on_c, 9, 40, 76
1, 2112, Note_on_c, 9, 43, 75
1, 2112, Note_on_c, 9, 52, 97
1, 2114, Note_on_c, 9, 52, 0
1, 2114, Note_on_c, 9, 43, 0
1, 2114, Note_on_c, 9, 35, 0
1, 2114, Note_on_c, 9, 40, 0
1, 2122, Note_on_c, 4, 41, 0
1, 2122, Note_on_c, 8, 53, 0
1, 2122, Note_on_c, 4, 53, 0
1, 2122, Note_on_c, 8, 48, 0
1, 2122, Note_on_c, 8, 41, 0
1, 2122, Note_on_c, 4, 48, 0
1, 2164, Note_on_c, 1, 38, 0
1, 2208, Note_on_c, 1, 38, 100
1, 2208, Note_on_c, 9, 40, 53
1, 2208, Note_on_c, 9, 43, 75
1, 2210, Note_on_c, 9, 43, 0
1, 2210, Note_on_c, 9, 40, 0
1, 2226, Note_on_c, 1, 38, 0
1, 2240, Note_on_c, 1, 38, 96
1, 2240, Note_on_c, 9, 40, 61
1, 2240, Note_on_c, 9, 43, 47
1, 2242, Note_on_c, 9, 43, 0
1, 2242, Note_on_c, 9, 40, 0
1, 2252, Note_on_c, 1, 38, 0
1, 2272, Note_on_c, 1, 38, 104
1, 2272, Note_on_c, 9, 40, 68
1, 2272, Note_on_c, 9, 43, 57
1, 2274, Note_on_c, 9, 43, 0
1, 2274, Note_on_c, 9, 40, 0
1, 2293, Note_on_c, 1, 38, 0
1, 2304, Note_on_c, 1, 38, 104
1, 2304, Note_on_c, 9, 40, 75
1, 2304, Note_on_c, 9, 43, 75
1, 2306, Note_on_c, 9, 43, 0
1, 2306, Note_on_c, 9, 40, 0
1, 2351, Note_on_c, 1, 38, 0
1, 2400, Note_on_c, 1, 38, 96
1, 2400, Note_on_c, 9, 40, 76
1, 2400, Note_on_c, 9, 43, 75
1, 2402, Note_on_c, 9, 43, 0
1, 2402, Note_on_c, 9, 40, 0
1, 2426, Note_on_c, 1, 38, 0
1, 2448, Note_on_c, 1, 38, 78
1, 2448, Note_on_c, 9, 40, 57
1, 2448, Note_on_c, 9, 43, 60
1, 2450, Note_on_c, 9, 43, 0
1, 2450, Note_on_c, 9, 40, 0
1, 2474, Note_on_c, 1, 38, 0
1, 2496, Note_on_c, 1, 38, 108
1, 2496, Note_on_c, 9, 35, 75
1, 2496, Note_on_c, 9, 40, 75
1, 2496, Note_on_c, 9, 43, 75
1, 2498, Note_on_c, 9, 43, 0
1, 2498, Note_on_c, 9, 40, 0
1, 2498, Note_on_c, 9, 35, 0
1, 2544, Note_on_c, 9, 41, 55
1, 2545, Note_on_c, 1, 38, 0
1, 2546, Note_on_c, 9, 41, 0
1, 2558, Note_on_c, 6, 62, 0
1, 2585, Note_on_c, 8, 57, 0
1, 2585, Note_on_c, 4, 57, 0
1, 2587, Note_on_c, 6, 65, 0
1, 2589, Note_on_c, 4, 62, 0
1, 2589, Note_on_c, 8, 62, 0
1, 2590, Note_on_c, 6, 69, 0
1, 2592, Note_on_c, 1, 36, 100
1, 2592, Note_on_c, 4, 48, 80
1, 2592, Note_on_c, 4, 55, 84
1, 2592, Note_on_c, 4, 60, 84
1, 2592, Note_on_c, 6, 67, 66
1, 2592, Note_on_c, 6, 64, 72
1, 2592, Note_on_c, 6, 60, 64
1, 2592, Note_on_c, 8, 55, 84
1, 2592, Note_on_c, 8, 60, 84
1, 2592, Note_on_c, 8, 48, 80
1, 2592, Note_on_c, 9, 35, 75
1, 2592, Note_on_c, 9, 40, 76
1, 2592, Note_on_c, 9, 43, 75
1, 2592, Note_on_c, 9, 49, 54
1, 2594, Note_on_c, 9, 49, 0
1, 2594, Note_on_c, 9, 43, 0
1, 2594, Note_on_c, 9, 40, 0
1, 2594, Note_on_c, 9, 35, 0
1, 2597, Note_on_c, 4, 50, 0
1, 2597, Note_on_c, 8, 50, 0
1, 2642, Note_on_c, 1, 36, 0
1, 2688, Note_on_c, 1, 36, 84
1, 2688, Note_on_c, 9, 40, 76
1, 2688, Note_on_c, 9, 43, 75
1, 2690, Note_on_c, 9, 43, 0
1, 2690, Note_on_c, 9, 40, 0
1, 2704, Note_on_c, 1, 36, 0
1, 2720, Note_on_c, 1, 36, 84
1, 2720, Note_on_c, 9, 40, 59
1, 2720, Note_on_c, 9, 43, 55
1, 2722, Note_on_c, 9, 43, 0
1, 2722, Note_on_c, 9, 40, 0
1, 2734, Note_on_c, 1, 36, 0
1, 2752, Note_on_c, 1, 36, 104
1, 2752, Note_on_c, 9, 40, 70
1, 2752, Note_on_c, 9, 43, 58
1, 2754, Note_on_c, 9, 43, 0
1, 2754, Note_on_c, 9, 40, 0
1, 2767, Note_on_c, 1, 36, 0
1, 2784, Note_on_c, 1, 36, 88
1, 2784, Note_on_c, 9, 40, 80
1, 2784, Note_on_c, 9, 43, 75
1, 2786, Note_on_c, 9, 43, 0
1, 2786, Note_on_c, 9, 40, 0
1, 2834, Note_on_c, 1, 36, 0
1, 2880, Note_on_c, 1, 36, 104
1, 2880, Note_on_c, 9, 40, 105
1, 2880, Note_on_c, 9, 43, 75
1, 2882, Note_on_c, 9, 43, 0
1, 2882, Note_on_c, 9, 40, 0
1, 2904, Note_on_c, 9, 35, 58
1, 2906, Note_on_c, 9, 35, 0
1, 2906, Note_on_c, 1, 36, 0
1, 2928, Note_on_c, 1, 36, 82
1, 2928, Note_on_c, 9, 45, 75
1, 2928, Note_on_c, 9, 47, 75
1, 2930, Note_on_c, 9, 47, 0
1, 2930, Note_on_c, 9, 45, 0
1, 2952, Note_on_c, 1, 36, 0
1, 2952, Note_on_c, 9, 35, 58
1, 2954, Note_on_c, 9, 35, 0
1, 2976, Note_on_c, 1, 36, 100
1, 2976, Note_on_c, 9, 40, 105
1, 2976, Note_on_c, 9, 43, 75
1, 2978, Note_on_c, 9, 43, 0
1, 2978, Note_on_c, 9, 40, 0
1, 3000, Note_on_c, 9, 35, 58
1, 3002, Note_on_c, 9, 35, 0
1, 3024, Note_on_c, 9, 41, 75
1, 3024, Note_on_c, 9, 43, 75
1, 3026, Note_on_c, 9, 43, 0
1, 3026, Note_on_c, 9, 41, 0
1, 3033, Note_on_c, 1, 36, 0
1, 3048, Note_on_c, 8, 55, 0
1, 3048, Note_on_c, 4, 55, 0
1, 3048, Note_on_c, 9, 35, 58
1, 3049, Note_on_c, 6, 67, 0
1, 3050, Note_on_c, 9, 35, 0
1, 3052, Note_on_c, 6, 60, 0
1, 3060, Note_on_c, 6, 64, 0
1, 3072, Note_on_c, 8, 48, 0
1, 3072, Note_on_c, 4, 48, 0
1, 3072, Note_on_c, 1, 31, 108
1, 3072, Note_on_c, 4, 43, 76
1, 3072, Note_on_c, 4, 50, 88
1, 3072, Note_on_c, 4, 55, 92
1, 3072, Note_on_c, 6, 62, 62
1, 3072, Note_on_c, 6, 67, 66
1, 3072, Note_on_c, 6, 70, 68
1, 3072, Note_on_c, 8, 55, 92
1, 3072, Note_on_c, 8, 50, 88
1, 3072, Note_on_c, 8, 43, 76
1, 3072, Note_on_c, 9, 43, 75
1, 3072, Note_on_c, 9, 57, 92
1, 3073, Note_on_c, 8, 60, 0
1, 3073, Note_on_c, 4, 60, 0
1, 3074, Note_on_c, 9, 57, 0
1, 3074, Note_on_c, 9, 43, 0
1, 3126, Note_on_c, 1, 31, 0
1, 3168, Note_on_c, 1, 31, 100
1, 3168, Note_on_c, 9, 40, 76
1, 3168, Note_on_c, 9, 43, 75
1, 3170, Note_on_c, 9, 43, 0
1, 3170, Note_on_c, 9, 40, 0
1, 3187, Note_on_c, 1, 31, 0
1, 3200, Note_on_c, 1, 31, 86
1, 3200, Note_on_c, 9, 40, 53
1, 3200, Note_on_c, 9, 43, 53
1, 3202, Note_on_c, 9, 43, 0
1, 3202, Note_on_c, 9, 40, 0
1, 3212, Note_on_c, 1, 31, 0
1, 3232, Note_on_c, 1, 31, 104
1, 3232, Note_on_c, 9, 40, 58
1, 3232, Note_on_c, 9, 43, 55
1, 3234, Note_on_c, 9, 43, 0
1, 3234, Note_on_c, 9, 40, 0
1, 3251, Note_on_c, 1, 31, 0
1, 3264, Note_on_c, 1, 31, 100
1, 3264, Note_on_c, 9, 40, 73
1, 3264, Note_on_c, 9, 43, 75
1, 3266, Note_on_c, 9, 43, 0
1, 3266, Note_on_c, 9, 40, 0
1, 3304, Note_on_c, 1, 31, 0
1, 3360, Note_on_c, 1, 31, 92
1, 3360, Note_on_c, 9, 40, 76
1, 3360, Note_on_c, 9, 43, 75
1, 3362, Note_on_c, 9, 43, 0
1, 3362, Note_on_c, 9, 40, 0
1, 3379, Note_on_c, 1, 31, 0
1, 3408, Note_on_c, 1, 31, 86
1, 3408, Note_on_c, 9, 40, 58
1, 3408, Note_on_c, 9, 43, 60
1, 3410, Note_on_c, 9, 43, 0
1, 3410, Note_on_c, 9, 40, 0
1, 3425, Note_on_c, 1, 31, 0
1, 3456, Note_on_c, 1, 31, 100
1, 3456, Note_on_c, 9, 40, 76
1, 3456, Note_on_c, 9, 43, 75
1, 3458, Note_on_c, 9, 43, 0
1, 3458, Note_on_c, 9, 40, 0
1, 3503, Note_on_c, 1, 31, 0
1, 3504, Note_on_c, 9, 41, 25
1, 3506, Note_on_c, 9, 41, 0
1, 3526, Note_on_c, 6, 62, 0
1, 3529, Note_on_c, 6, 70, 0
1, 3531, Note_on_c, 8, 55, 0
1, 3531, Note_on_c, 4, 55, 0
1, 3532, Note_on_c, 4, 50, 0
1, 3532, Note_on_c, 8, 50, 0
1, 3546, Note_on_c, 6, 67, 0
1, 3548, Note_on_c, 8, 43, 0
1, 3548, Note_on_c, 4, 43, 0
1, 3552, Note_on_c, 1, 29, 100
1, 3552, Note_on_c, 4, 41, 80
1, 3552, Note_on_c, 4, 48, 88
1, 3552, Note_on_c, 4, 53, 88
1, 3552, Note_on_c, 6, 69, 66
1, 3552, Note_on_c, 6, 60, 68
1, 3552, Note_on_c, 6, 65, 76
1, 3552, Note_on_c, 8, 53, 88
1, 3552, Note_on_c, 8, 48, 88
1, 3552, Note_on_c, 8, 41, 80
1, 3552, Note_on_c, 9, 40, 76
1, 3552, Note_on_c, 9, 43, 75
1, 3552, Note_on_c, 9, 52, 80
1, 3554, Note_on_c, 9, 52, 0
1, 3554, Note_on_c, 9, 43, 0
1, 3554, Note_on_c, 9, 40, 0
1, 3600, Note_on_c, 1, 29, 0
1, 3648, Note_on_c, 1, 29, 86
1, 3648, Note_on_c, 9, 40, 76
1, 3648, Note_on_c, 9, 43, 75
1, 3650, Note_on_c, 9, 43, 0
1, 3650, Note_on_c, 9, 40, 0
1, 3667, Note_on_c, 1, 29, 0
1, 3680, Note_on_c, 1, 29, 92
1, 3680, Note_on_c, 9, 40, 57
1, 3680, Note_on_c, 9, 43, 53
1, 3682, Note_on_c, 9, 43, 0
1, 3682, Note_on_c, 9, 40, 0
1, 3696, Note_on_c, 1, 29, 0
1, 3712, Note_on_c, 1, 29, 104
1, 3712, Note_on_c, 9, 40, 65
1, 3712, Note_on_c, 9, 43, 58
1, 3714, Note_on_c, 9, 43, 0
1, 3714, Note_on_c, 9, 40, 0
1, 3733, Note_on_c, 1, 29, 0
1, 3744, Note_on_c, 1, 29, 88
1, 3744, Note_on_c, 9, 40, 79
1, 3744, Note_on_c, 9, 43, 75
1, 3746, Note_on_c, 9, 43, 0
1, 3746, Note_on_c, 9, 40, 0
1, 3794, Note_on_c, 1, 29, 0
1, 3840, Note_on_c, 1, 29, 92
1, 3840, Note_on_c, 9, 40, 76
1, 3840, Note_on_c, 9, 43, 75
1, 3842, Note_on_c, 9, 43, 0
1, 3842, Note_on_c, 9, 40, 0
1, 3864, Note_on_c, 1, 29, 0
1, 3888, Note_on_c, 1, 29, 84
1, 3888, Note_on_c, 9, 40, 57
1, 3888, Note_on_c, 9, 43, 62
1, 3890, Note_on_c, 9, 43, 0
1, 3890, Note_on_c, 9, 40, 0
1, 3909, Note_on_c, 1, 29, 0
1, 3936, Note_on_c, 1, 29, 104
1, 3936, Note_on_c, 9, 40, 76
1, 3936, Note_on_c, 9, 43, 75
1, 3938, Note_on_c, 9, 43, 0
1, 3938, Note_on_c, 9, 40, 0
1, 3960, Note_on_c, 9, 35, 61
1, 3962, Note_on_c, 9, 35, 0
1, 3999, Note_on_c, 1, 29, 0
1, 4008, Note_on_c, 9, 35, 61
1, 4010, Note_on_c, 9, 35, 0
1, 4015, Note_on_c, 6, 60, 0
1, 4018, Note_on_c, 6, 69, 0
1, 4021, Note_on_c, 6, 65, 0
1, 4032, Note_on_c, 1, 38, 108
1, 4032, Note_on_c, 4, 50, 88
1, 4032, Note_on_c, 4, 57, 88
1, 4032, Note_on_c, 4, 62, 92
1, 4032, Note_on_c, 6, 62, 56
1, 4032, Note_on_c, 6, 69, 76
1, 4032, Note_on_c, 6, 65, 66
1, 4032, Note_on_c, 8, 62, 92
1, 4032, Note_on_c, 8, 50, 88
1, 4032, Note_on_c, 8, 57, 88
1, 4032, Note_on_c, 9, 40, 76
1, 4032, Note_on_c, 9, 43, 75
1, 4032, Note_on_c, 9, 49, 56
1, 4034, Note_on_c, 9, 49, 0
1, 4034, Note_on_c, 9, 43, 0
1, 4034, Note_on_c, 9, 40, 0
1, 4035, Note_on_c, 8, 53, 0
1, 4035, Note_on_c, 8, 48, 0
1, 4035, Note_on_c, 4, 53, 0
1, 4035, Note_on_c, 8, 41, 0
1, 4035, Note_on_c, 4, 41, 0
1, 4035, Note_on_c, 4, 48, 0
1, 4080, Note_on_c, 1, 38, 0
1, 4128, Note_on_c, 1, 38, 82
1, 4128, Note_on_c, 9, 40, 76
1, 4128, Note_on_c, 9, 43, 75
1, 4130, Note_on_c, 9, 43, 0
1, 4130, Note_on_c, 9, 40, 0
1, 4146, Note_on_c, 1, 38, 0
1, 4160, Note_on_c, 1, 38, 68
1, 4160, Note_on_c, 9, 40, 56
1, 4160, Note_on_c, 9, 43, 57
1, 4162, Note_on_c, 9, 43, 0
1, 4162, Note_on_c, 9, 40, 0
1, 4174, Note_on_c, 1, 38, 0
1, 4192, Note_on_c, 1, 38, 96
1, 4192, Note_on_c, 9, 40, 67
1, 4192, Note_on_c, 9, 43, 64
1, 4194, Note_on_c, 9, 43, 0
1, 4194, Note_on_c, 9, 40, 0
1, 4210, Note_on_c, 1, 38, 0
1, 4224, Note_on_c, 1, 38, 86
1, 4224, Note_on_c, 9, 40, 77
1, 4224, Note_on_c, 9, 43, 75
1, 4226, Note_on_c, 9, 43, 0
1, 4226, Note_on_c, 9, 40, 0
1, 4274, Note_on_c, 1, 38, 0
1, 4320, Note_on_c, 1, 38, 96
1, 4320, Note_on_c, 9, 40, 76
1, 4320, Note_on_c, 9, 43, 75
1, 4322, Note_on_c, 9, 43, 0
1, 4322, Note_on_c, 9, 40, 0
1, 4343, Note_on_c, 1, 38, 0
1, 4368, Note_on_c, 1, 38, 88
1, 4368, Note_on_c, 9, 40, 76
1, 4368, Note_on_c, 9, 43, 60
1, 4370, Note_on_c, 9, 43, 0
1, 4370, Note_on_c, 9, 40, 0
1, 4384, Note_on_c, 1, 38, 0
1, 4416, Note_on_c, 1, 38, 104
1, 4416, Note_on_c, 9, 40, 76
1, 4416, Note_on_c, 9, 43, 75
1, 4418, Note_on_c, 9, 43, 0
1, 4418, Note_on_c, 9, 40, 0
1, 4440, Note_on_c, 9, 35, 58
1, 4442, Note_on_c, 9, 35, 0
1, 4452, Note_on_c, 1, 38, 0
1, 4483, Note_on_c, 6, 62, 0
1, 4488, Note_on_c, 9, 35, 51
1, 4490, Note_on_c, 9, 35, 0
1, 4496, Note_on_c, 6, 69, 0
1, 4498, Note_on_c, 8, 62, 0
1, 4498, Note_on_c, 4, 62, 0
1, 4498, Note_on_c, 6, 65, 0
1, 4511, Note_on_c, 4, 57, 0
1, 4511, Note_on_c, 4, 50, 0
1, 4511, Note_on_c, 8, 50, 0
1, 4511, Note_on_c, 8, 57, 0
1, 4512, Note_on_c, 1, 36, 86
1, 4512, Note_on_c, 4, 48, 92
1, 4512, Note_on_c, 4, 55, 84
1, 4512, Note_on_c, 4, 60, 76
1, 4512, Note_on_c, 6, 60, 62
1, 4512, Note_on_c, 6, 64, 80
1, 4512, Note_on_c, 6, 67, 72
1, 4512, Note_on_c, 8, 60, 76
1, 4512, Note_on_c, 8, 55, 84
1, 4512, Note_on_c, 8, 48, 92
1, 4512, Note_on_c, 9, 40, 76
1, 4512, Note_on_c, 9, 43, 75
1, 4512, Note_on_c, 9, 57, 79
1, 4514, Note_on_c, 9, 57, 0
1, 4514, Note_on_c, 9, 43, 0
1, 4514, Note_on_c, 9, 40, 0
1, 4570, Note_on_c, 1, 36, 0
1, 4608, Note_on_c, 1, 36, 92
1, 4608, Note_on_c, 9, 40, 76
1, 4608, Note_on_c, 9, 43, 75
1, 4610, Note_on_c, 9, 43, 0
1, 4610, Note_on_c, 9, 40, 0
1, 4629, Note_on_c, 1, 36, 0
1, 4640, Note_on_c, 1, 36, 78
1, 4640, Note_on_c, 9, 40, 58
1, 4640, Note_on_c, 9, 43, 57
1, 4642, Note_on_c, 9, 43, 0
1, 4642, Note_on_c, 9, 40, 0
1, 4655, Note_on_c, 1, 36, 0
1, 4672, Note_on_c, 1, 36, 84
1, 4672, Note_on_c, 9, 40, 64
1, 4672, Note_on_c, 9, 43, 60
1, 4674, Note_on_c, 9, 43, 0
1, 4674, Note_on_c, 9, 40, 0
1, 4691, Note_on_c, 1, 36, 0
1, 4704, Note_on_c, 1, 36, 92
1, 4704, Note_on_c, 9, 40, 69
1, 4704, Note_on_c, 9, 43, 75
1, 4706, Note_on_c, 9, 43, 0
1, 4706, Note_on_c, 9, 40, 0
1, 4744, Note_on_c, 1, 36, 0
1, 4800, Note_on_c, 1, 36, 100
1, 4800, Note_on_c, 9, 40, 76
1, 4800, Note_on_c, 9, 43, 75
1, 4802, Note_on_c, 9, 43, 0
1, 4802, Note_on_c, 9, 40, 0
1, 4824, Note_on_c, 1, 36, 0
1, 4848, Note_on_c, 1, 36, 64
1, 4848, Note_on_c, 9, 40, 76
1, 4848, Note_on_c, 9, 43, 55
1, 4850, Note_on_c, 9, 43, 0
1, 4850, Note_on_c, 9, 40, 0
1, 4869, Note_on_c, 1, 36, 0
1, 4896, Note_on_c, 1, 36, 84
1, 4896, Note_on_c, 9, 40, 76
1, 4896, Note_on_c, 9, 43, 75
1, 4898, Note_on_c, 9, 43, 0
1, 4898, Note_on_c, 9, 40, 0
1, 4920, Note_on_c, 9, 35, 75
1, 4922, Note_on_c, 9, 35, 0
1, 4941, Note_on_c, 1, 36, 0
1, 4968, Note_on_c, 9, 35, 75
1, 4970, Note_on_c, 9, 35, 0
1, 4977, Note_on_c, 6, 67, 0
1, 4977, Note_on_c, 6, 64, 0
1, 4981, Note_on_c, 6, 60, 0
1, 4990, Note_on_c, 8, 55, 0
1, 4990, Note_on_c, 4, 55, 0
1, 4992, Note_on_c, 4, 60, 0
1, 4992, Note_on_c, 8, 60, 0
1, 4992, Note_on_c, 1, 33, 104
1, 4992, Note_on_c, 4, 45, 80
1, 4992, Note_on_c, 4, 52, 88
1, 4992, Note_on_c, 4, 57, 102
1, 4992, Note_on_c, 6, 62, 68
1, 4992, Note_on_c, 6, 60, 64
1, 4992, Note_on_c, 6, 67, 72
1, 4992, Note_on_c, 8, 52, 88
1, 4992, Note_on_c, 8, 57, 102
1, 4992, Note_on_c, 8, 45, 80
1, 4992, Note_on_c, 9, 44, 75
1, 4992, Note_on_c, 9, 49, 70
1, 4993, Note_on_c, 4, 48, 0
1, 4993, Note_on_c, 8, 48, 0
1, 4994, Note_on_c, 9, 49, 0
1, 4994, Note_on_c, 9, 44, 0
1, 5088, Note_on_c, 9, 44, 75
1, 5090, Note_on_c, 9, 44, 0
1, 5182, Note_on_c, 6, 67, 0
1, 5182, Note_on_c, 6, 60, 0
1, 5182, Note_on_c, 6, 62, 0
1, 5184, Note_on_c, 9, 40, 105
1, 5184, Note_on_c, 9, 44, 75
1, 5186, Note_on_c, 9, 44, 0
1, 5186, Note_on_c, 9, 40, 0
1, 5190, Note_on_c, 9, 40, 101
1, 5192, Note_on_c, 9, 40, 0
1, 5215, Note_on_c, 8, 52, 0
1, 5215, Note_on_c, 4, 52, 0
1, 5217, Note_on_c, 8, 57, 0
1, 5217, Note_on_c, 4, 57, 0
1, 5221, Note_on_c, 8, 45, 0
1, 5221, Note_on_c, 4, 45, 0
1, 5232, Note_on_c, 3, 77, 106
1, 5241, Note_on_c, 1, 33, 0
1, 5261, Note_on_c, 3, 77, 0
1, 5280, Note_on_c, 9, 44, 75
1, 5282, Note_on_c, 9, 44, 0
1, 5304, Note_on_c, 3, 76, 116
1, 5325, Note_on_c, 3, 76, 0
1, 5376, Note_on_c, 1, 38, 104
1, 5376, Note_on_c, 3, 76, 121
1, 5376, Note_on_c, 4, 50, 97
1, 5376, Note_on_c, 5, 62, 66
1, 5376, Note_on_c, 8, 50, 97
1, 5376, Note_on_c, 9, 35, 75
1, 5376, Note_on_c, 9, 46, 51
1, 5376, Note_on_c, 9, 49, 62
1, 5378, Note_on_c, 9, 49, 0
1, 5378, Note_on_c, 9, 46, 0
1, 5378, Note_on_c, 9, 35, 0
1, 5424, Note_on_c, 4, 57, 92
1, 5424, Note_on_c, 5, 69, 64
1, 5424, Note_on_c, 8, 57, 92
1, 5424, Note_on_c, 9, 35, 64
1, 5424, Note_on_c, 9, 46, 51
1, 5424, Note_on_c, 9, 51, 57
1, 5426, Note_on_c, 9, 51, 0
1, 5426, Note_on_c, 9, 46, 0
1, 5426, Note_on_c, 9, 35, 0
1, 5429, Note_on_c, 3, 76, 0
1, 5448, Note_on_c, 3, 74, 106
1, 5449, Note_on_c, 1, 38, 0
1, 5468, Note_on_c, 3, 74, 0
1, 5472, Note_on_c, 1, 38, 84
1, 5472, Note_on_c, 4, 62, 84
1, 5472, Note_on_c, 5, 74, 88
1, 5472, Note_on_c, 8, 62, 84
1, 5472, Note_on_c, 9, 40, 105
1, 5472, Note_on_c, 9, 46, 51
1, 5472, Note_on_c, 9, 57, 75
1, 5474, Note_on_c, 9, 57, 0
1, 5474, Note_on_c, 9, 46, 0
1, 5474, Note_on_c, 9, 40, 0
1, 5498, Note_on_c, 1, 38, 0
1, 5520, Note_on_c, 1, 33, 86
1, 5520, Note_on_c, 9, 46, 51
1, 5520, Note_on_c, 9, 51, 39
1, 5522, Note_on_c, 9, 51, 0
1, 5522, Note_on_c, 9, 46, 0
1, 5540, Note_on_c, 1, 33, 0
1, 5544, Note_on_c, 1, 35, 108
1, 5547, Note_on_c, 5, 62, 0
1, 5557, Note_on_c, 8, 50, 0
1, 5557, Note_on_c, 4, 50, 0
1, 5561, Note_on_c, 5, 74, 0
1, 5564, Note_on_c, 1, 35, 0
1, 5568, Note_on_c, 1, 36, 104
1, 5568, Note_on_c, 4, 48, 80
1, 5568, Note_on_c, 5, 60, 80
1, 5568, Note_on_c, 8, 48, 80
1, 5568, Note_on_c, 9, 35, 75
1, 5568, Note_on_c, 9, 46, 51
1, 5568, Note_on_c, 9, 51, 61
1, 5570, Note_on_c, 9, 51, 0
1, 5570, Note_on_c, 9, 35, 0
1, 5570, Note_on_c, 5, 69, 0
1, 5570, Note_on_c, 9, 46, 0
1, 5606, Note_on_c, 4, 57, 0
1, 5606, Note_on_c, 8, 57, 0
1, 5616, Note_on_c, 3, 72, 121
1, 5616, Note_on_c, 4, 55, 68
1, 5616, Note_on_c, 5, 67, 72
1, 5616, Note_on_c, 8, 55, 68
1, 5616, Note_on_c, 9, 35, 59
1, 5616, Note_on_c, 9, 46, 51
1, 5616, Note_on_c, 9, 51, 55
1, 5618, Note_on_c, 9, 51, 0
1, 5618, Note_on_c, 9, 46, 0
1, 5618, Note_on_c, 9, 35, 0
1, 5635, Note_on_c, 8, 62, 0
1, 5635, Note_on_c, 4, 62, 0
1, 5664, Note_on_c, 4, 62, 88
1, 5664, Note_on_c, 5, 74, 84
1, 5664, Note_on_c, 8, 62, 88
1, 5664, Note_on_c, 9, 40, 105
1, 5664, Note_on_c, 9, 46, 51
1, 5664, Note_on_c, 9, 51, 49
1, 5666, Note_on_c, 9, 51, 0
1, 5666, Note_on_c, 9, 46, 0
1, 5666, Note_on_c, 9, 40, 0
1, 5681, Note_on_c, 3, 72, 0
1, 5688, Note_on_c, 3, 71, 106
1, 5712, Note_on_c, 3, 69, 102
1, 5712, Note_on_c, 9, 46, 51
1, 5712, Note_on_c, 9, 51, 57
1, 5714, Note_on_c, 9, 51, 0
1, 5714, Note_on_c, 9, 46, 0
1, 5721, Note_on_c, 3, 71, 0
1, 5738, Note_on_c, 1, 36, 0
1, 5746, Note_on_c, 3, 69, 0
1, 5760, Note_on_c, 1, 35, 88
1, 5760, Note_on_c, 3, 67, 102
1, 5760, Note_on_c, 4, 47, 88
1, 5760, Note_on_c, 5, 59, 62
1, 5760, Note_on_c, 8, 47, 88
1, 5760, Note_on_c, 9, 35, 75
1, 5760, Note_on_c, 9, 46, 51
1, 5760, Note_on_c, 9, 51, 59
1, 5762, Note_on_c, 9, 51, 0
1, 5762, Note_on_c, 9, 46, 0
1, 5762, Note_on_c, 9, 35, 0
1, 5762, Note_on_c, 8, 48, 0
1, 5762, Note_on_c, 8, 62, 0
1, 5762, Note_on_c, 5, 60, 0
1, 5762, Note_on_c, 4, 48, 0
1, 5762, Note_on_c, 4, 62, 0
1, 5769, Note_on_c, 4, 55, 0
1, 5769, Note_on_c, 8, 55, 0
1, 5785, Note_on_c, 5, 67, 0
1, 5794, Control_c, 3, 1, 2
1, 5795, Note_on_c, 1, 35, 0
1, 5795, Control_c, 3, 1, 4
1, 5796, Control_c, 3, 1, 6
1, 5797, Control_c, 3, 1, 10
1, 5798, Control_c, 3, 1, 13
1, 5799, Control_c, 3, 1, 17
1, 5800, Control_c, 3, 1, 20
1, 5801, Control_c, 3, 1, 23
1, 5802, Control_c, 3, 1, 26
1, 5803, Control_c, 3, 1, 28
1, 5804, Control_c, 3, 1, 30
1, 5805, Control_c, 3, 1, 32
1, 5806, Control_c, 3, 1, 34
1, 5807, Control_c, 3, 1, 35
1, 5808, Note_on_c, 5, 74, 0
1, 5808, Note_on_c, 1, 33, 92
1, 5808, Control_c, 3, 1, 37
1, 5808, Note_on_c, 4, 55, 76
1, 5808, Note_on_c, 5, 67, 66
1, 5808, Note_on_c, 8, 55, 76
1, 5808, Note_on_c, 9, 35, 61
1, 5808, Note_on_c, 9, 46, 51
1, 5808, Note_on_c, 9, 51, 61
1, 5809, Control_c, 3, 1, 39
1, 5810, Note_on_c, 9, 51, 0
1, 5810, Note_on_c, 9, 46, 0
1, 5810, Note_on_c, 9, 35, 0
1, 5810, Control_c, 3, 1, 40
1, 5811, Control_c, 3, 1, 41
1, 5812, Control_c, 3, 1, 42
1, 5813, Control_c, 3, 1, 43
1, 5815, Control_c, 3, 1, 44
1, 5818, Control_c, 3, 1, 43
1, 5819, Control_c, 3, 1, 41
1, 5820, Control_c, 3, 1, 39
1, 5821, Control_c, 3, 1, 36
1, 5823, Control_c, 3, 1, 32
1, 5824, Control_c, 3, 1, 28
1, 5825, Control_c, 3, 1, 22
1, 5826, Control_c, 3, 1, 16
1, 5827, Control_c, 3, 1, 0
1, 5827, Control_c, 3, 1, 8
1, 5828, Note_on_c, 3, 67, 0
1, 5843, Note_on_c, 1, 33, 0
1, 5856, Note_on_c, 1, 31, 100
1, 5856, Note_on_c, 4, 62, 97
1, 5856, Note_on_c, 5, 74, 62
1, 5856, Note_on_c, 8, 62, 97
1, 5856, Note_on_c, 9, 40, 105
1, 5856, Note_on_c, 9, 46, 51
1, 5856, Note_on_c, 9, 51, 59
1, 5857, Note_on_c, 5, 67, 0
1, 5858, Note_on_c, 9, 40, 0
1, 5858, Note_on_c, 9, 51, 0
1, 5858, Note_on_c, 9, 46, 0
1, 5904, Note_on_c, 1, 33, 96
1, 5904, Note_on_c, 9, 46, 51
1, 5904, Note_on_c, 9, 51, 83
1, 5905, Note_on_c, 1, 31, 0
1, 5906, Note_on_c, 9, 46, 0
1, 5906, Note_on_c, 9, 51, 0
1, 5923, Note_on_c, 8, 55, 0
1, 5923, Note_on_c, 4, 55, 0
1, 5935, Note_on_c, 5, 74, 0
1, 5945, Note_on_c, 1, 33, 0
1, 5947, Note_on_c, 5, 59, 0
1, 5949, Note_on_c, 4, 47, 0
1, 5949, Note_on_c, 8, 47, 0
1, 5952, Note_on_c, 1, 34, 96
1, 5952, Note_on_c, 4, 46, 66
1, 5952, Note_on_c, 4, 53, 84
1, 5952, Note_on_c, 4, 58, 107
1, 5952, Note_on_c, 5, 82, 66
1, 5952, Note_on_c, 5, 77, 64
1, 5952, Note_on_c, 5, 74, 46
1, 5952, Note_on_c, 8, 58, 107
1, 5952, Note_on_c, 8, 53, 84
1, 5952, Note_on_c, 8, 46, 66
1, 5952, Note_on_c, 9, 35, 75
1, 5952, Note_on_c, 9, 46, 51
1, 5952, Note_on_c, 9, 49, 82
1, 5953, Note_on_c, 8, 62, 0
1, 5953, Note_on_c, 4, 62, 0
1, 5954, Note_on_c, 9, 35, 0
1, 5954, Note_on_c, 9, 49, 0
1, 5954, Note_on_c, 9, 46, 0
1, 6000, Note_on_c, 3, 65, 116
1, 6000, Note_on_c, 9, 35, 61
1, 6000, Note_on_c, 9, 46, 51
1, 6000, Note_on_c, 9, 51, 49
1, 6002, Note_on_c, 9, 51, 0
1, 6002, Note_on_c, 9, 46, 0
1, 6002, Note_on_c, 9, 35, 0
1, 6026, Note_on_c, 5, 77, 0
1, 6042, Note_on_c, 3, 65, 0
1, 6044, Note_on_c, 8, 58, 0
1, 6044, Note_on_c, 4, 58, 0
1, 6046, Note_on_c, 5, 74, 0
1, 6048, Note_on_c, 1, 36, 86
1, 6048, Note_on_c, 4, 48, 88
1, 6048, Note_on_c, 4, 55, 92
1, 6048, Note_on_c, 4, 60, 88
1, 6048, Note_on_c, 5, 79, 35
1, 6048, Note_on_c, 5, 76, 72
1, 6048, Note_on_c, 5, 84, 66
1, 6048, Note_on_c, 8, 48, 88
1, 6048, Note_on_c, 8, 55, 92
1, 6048, Note_on_c, 8, 60, 88
1, 6048, Note_on_c, 9, 40, 105
1, 6048, Note_on_c, 9, 46, 51
1, 6048, Note_on_c, 9, 57, 75
1, 6049, Note_on_c, 1, 34, 0
1, 6050, Note_on_c, 5, 82, 0
1, 6050, Note_on_c, 9, 57, 0
1, 6050, Note_on_c, 9, 46, 0
1, 6050, Note_on_c, 9, 40, 0
1, 6052, Note_on_c, 8, 53, 0
1, 6052, Note_on_c, 4, 53, 0
1, 6058, Note_on_c, 4, 46, 0
1, 6058, Note_on_c, 8, 46, 0
1, 6072, Note_on_c, 3, 64, 116
1, 6096, Note_on_c, 9, 46, 51
1, 6096, Note_on_c, 9, 51, 59
1, 6098, Note_on_c, 9, 51, 0
1, 6098, Note_on_c, 9, 46, 0
1, 6118, Note_on_c, 3, 64, 0
1, 6120, Note_on_c, 9, 40, 90
1, 6122, Note_on_c, 9, 40, 0
1, 6134, Note_on_c, 1, 36, 0
1, 6136, Note_on_c, 5, 79, 0
1, 6136, Note_on_c, 5, 76, 0
1, 6141, Note_on_c, 5, 84, 0
1, 6144, Note_on_c, 8, 60, 0
1, 6144, Note_on_c, 4, 60, 0
1, 6144, Note_on_c, 1, 38, 76
1, 6144, Note_on_c, 3, 62, 106
1, 6144, Note_on_c, 4, 50, 102
1, 6144, Note_on_c, 8, 50, 102
1, 6144, Note_on_c, 9, 35, 75
1, 6144, Note_on_c, 9, 46, 51
1, 6144, Note_on_c, 9, 49, 78
1, 6145, Note_on_c, 8, 55, 0
1, 6145, Note_on_c, 4, 55, 0
1, 6146, Note_on_c, 9, 49, 0
1, 6146, Note_on_c, 9, 46, 0
1, 6146, Note_on_c, 9, 35, 0
1, 6148, Note_on_c, 4, 48, 0
1, 6148, Note_on_c, 8, 48, 0
1, 6153, Pitch_bend_c, 3, 8322
1, 6155, Pitch_bend_c, 3, 8712
1, 6156, Pitch_bend_c, 3, 9232
1, 6157, Pitch_bend_c, 3, 9622
1, 6158, Pitch_bend_c, 3, 11052
1, 6158, Pitch_bend_c, 3, 10272
1, 6159, Pitch_bend_c, 3, 11832
1, 6161, Pitch_bend_c, 3, 12612
1, 6162, Pitch_bend_c, 3, 13132
1, 6163, Pitch_bend_c, 3, 13652
1, 6164, Pitch_bend_c, 3, 14172
1, 6165, Pitch_bend_c, 3, 14562
1, 6166, Note_on_c, 1, 38, 0
1, 6166, Pitch_bend_c, 3, 14952
1, 6167, Pitch_bend_c, 3, 15472
1, 6168, Pitch_bend_c, 3, 15732
1, 6169, Pitch_bend_c, 3, 15992
1, 6170, Pitch_bend_c, 3, 16382
1, 6192, Note_on_c, 1, 38, 86
1, 6192, Note_on_c, 4, 57, 92
1, 6192, Note_on_c, 8, 57, 92
1, 6192, Note_on_c, 9, 35, 56
1, 6192, Note_on_c, 9, 46, 51
1, 6192, Note_on_c, 9, 51, 55
1, 6194, Note_on_c, 9, 51, 0
1, 6194, Note_on_c, 9, 46, 0
1, 6194, Note_on_c, 9, 35, 0
1, 6211, Note_on_c, 1, 38, 0
1, 6211, Pitch_bend_c, 3, 16122
1, 6212, Pitch_bend_c, 3, 15342
1, 6213, Pitch_bend_c, 3, 14432
1, 6214, Pitch_bend_c, 3, 12612
1, 6215, Pitch_bend_c, 3, 8842
1, 6216, Pitch_bend_c, 3, 8192
1, 6240, Note_on_c, 1, 38, 100
1, 6240, Note_on_c, 4, 62, 92
1, 6240, Note_on_c, 5, 84, 84
1, 6240, Note_on_c, 8, 62, 92
1, 6240, Note_on_c, 9, 40, 105
1, 6240, Note_on_c, 9, 46, 51
1, 6240, Note_on_c, 9, 51, 75
1, 6242, Note_on_c, 9, 51, 0
1, 6242, Note_on_c, 9, 40, 0
1, 6242, Note_on_c, 9, 46, 0
1, 6264, Note_on_c, 5, 83, 64
1, 6269, Note_on_c, 5, 84, 0
1, 6278, Control_c, 3, 1, 3
1, 6279, Control_c, 3, 1, 6
1, 6280, Control_c, 3, 1, 12
1, 6281, Control_c, 3, 1, 17
1, 6282, Control_c, 3, 1, 22
1, 6283, Note_on_c, 1, 38, 0
1, 6283, Control_c, 3, 1, 26
1, 6284, Control_c, 3, 1, 31
1, 6285, Control_c, 3, 1, 35
1, 6286, Control_c, 3, 1, 38
1, 6287, Control_c, 3, 1, 41
1, 6288, Note_on_c, 1, 33, 86
1, 6288, Control_c, 3, 1, 44
1, 6288, Note_on_c, 5, 81, 72
1, 6288, Note_on_c, 9, 46, 51
1, 6288, Note_on_c, 9, 51, 59
1, 6289, Control_c, 3, 1, 46
1, 6290, Note_on_c, 9, 51, 0
1, 6290, Note_on_c, 9, 46, 0
1, 6290, Control_c, 3, 1, 48
1, 6291, Control_c, 3, 1, 49
1, 6292, Control_c, 3, 1, 51
1, 6293, Control_c, 3, 1, 53
1, 6294, Control_c, 3, 1, 55
1, 6295, Note_on_c, 5, 83, 0
1, 6295, Control_c, 3, 1, 56
1, 6296, Control_c, 3, 1, 58
1, 6297, Control_c, 3, 1, 59
1, 6298, Control_c, 3, 1, 61
1, 6299, Control_c, 3, 1, 62
1, 6300, Control_c, 3, 1, 64
1, 6301, Control_c, 3, 1, 66
1, 6302, Control_c, 3, 1, 68
1, 6303, Control_c, 3, 1, 69
1, 6304, Control_c, 3, 1, 71
1, 6305, Control_c, 3, 1, 72
1, 6306, Control_c, 3, 1, 73
1, 6307, Control_c, 3, 1, 74
1, 6308, Control_c, 3, 1, 75
1, 6310, Control_c, 3, 1, 76
1, 6312, Note_on_c, 1, 35, 78
1, 6312, Note_on_c, 9, 40, 90
1, 6314, Note_on_c, 9, 40, 0
1, 6316, Control_c, 3, 1, 75
1, 6317, Control_c, 3, 1, 73
1, 6318, Control_c, 3, 1, 72
1, 6319, Note_on_c, 1, 33, 0
1, 6319, Control_c, 3, 1, 69
1, 6320, Control_c, 3, 1, 67
1, 6321, Note_on_c, 3, 62, 0
1, 6321, Control_c, 3, 1, 63
1, 6322, Note_on_c, 8, 50, 0
1, 6322, Note_on_c, 4, 50, 0
1, 6322, Control_c, 3, 1, 60
1, 6323, Control_c, 3, 1, 58
1, 6324, Control_c, 3, 1, 53
1, 6325, Control_c, 3, 1, 49
1, 6326, Control_c, 3, 1, 43
1, 6327, Control_c, 3, 1, 35
1, 6328, Control_c, 3, 1, 28
1, 6329, Control_c, 3, 1, 20
1, 6330, Control_c, 3, 1, 7
1, 6331, Control_c, 3, 1, 0
1, 6336, Note_on_c, 1, 36, 104
1, 6336, Note_on_c, 4, 48, 84
1, 6336, Note_on_c, 8, 48, 84
1, 6336, Note_on_c, 9, 35, 75
1, 6336, Note_on_c, 9, 46, 51
1, 6336, Note_on_c, 9, 51, 63
1, 6337, Note_on_c, 1, 35, 0
1, 6338, Note_on_c, 9, 46, 0
1, 6338, Note_on_c, 9, 35, 0
1, 6338, Note_on_c, 9, 51, 0
1, 6349, Note_on_c, 8, 57, 0
1, 6349, Note_on_c, 4, 57, 0
1, 6355, Note_on_c, 4, 62, 0
1, 6355, Note_on_c, 8, 62, 0
1, 6363, Note_on_c, 8, 48, 0
1, 6363, Note_on_c, 4, 48, 0
1, 6364, Note_on_c, 1, 36, 0
1, 6382, Note_on_c, 5, 81, 0
1, 6384, Note_on_c, 1, 36, 104
1, 6384, Note_on_c, 4, 48, 97
1, 6384, Note_on_c, 5, 84, 66
1, 6384, Note_on_c, 8, 48, 97
1, 6384, Note_on_c, 9, 35, 56
1, 6384, Note_on_c, 9, 46, 51
1, 6384, Note_on_c, 9, 51, 61
1, 6386, Note_on_c, 9, 51, 0
1, 6386, Note_on_c, 9, 35, 0
1, 6386, Note_on_c, 9, 46, 0
1, 6426, Note_on_c, 5, 84, 0
1, 6432, Note_on_c, 4, 55, 88
1, 6432, Note_on_c, 4, 62, 88
1, 6432, Note_on_c, 5, 86, 88
1, 6432, Note_on_c, 8, 55, 88
1, 6432, Note_on_c, 8, 62, 88
1, 6432, Note_on_c, 9, 40, 105
1, 6432, Note_on_c, 9, 46, 51
1, 6432, Note_on_c, 9, 51, 67
1, 6434, Note_on_c, 9, 51, 0
1, 6434, Note_on_c, 9, 46, 0
1, 6434, Note_on_c, 9, 40, 0
1, 6456, Note_on_c, 1, 35, 88
1, 6460, Note_on_c, 1, 36, 0
1, 6474, Note_on_c, 1, 35, 0
1, 6480, Note_on_c, 1, 33, 96
1, 6480, Note_on_c, 9, 46, 51
1, 6480, Note_on_c, 9, 51, 57
1, 6482, Note_on_c, 9, 51, 0
1, 6482, Note_on_c, 9, 46, 0
1, 6525, Note_on_c, 8, 48, 0
1, 6525, Note_on_c, 4, 48, 0
1, 6526, Note_on_c, 1, 33, 0
1, 6528, Note_on_c, 1, 31, 100
1, 6528, Note_on_c, 4, 47, 88
1, 6528, Note_on_c, 4, 48, 36
1, 6528, Note_on_c, 5, 79, 64
1, 6528, Note_on_c, 8, 48, 36
1, 6528, Note_on_c, 8, 47, 88
1, 6528, Note_on_c, 9, 35, 75
1, 6528, Note_on_c, 9, 46, 51
1, 6528, Note_on_c, 9, 51, 63
1, 6529, Note_on_c, 8, 48, 0
1, 6529, Note_on_c, 4, 48, 0
1, 6530, Note_on_c, 9, 51, 0
1, 6530, Note_on_c, 9, 35, 0
1, 6530, Note_on_c, 9, 46, 0
1, 6533, Note_on_c, 5, 86, 0
1, 6536, Note_on_c, 8, 55, 0
1, 6536, Note_on_c, 4, 55, 0
1, 6543, Note_on_c, 4, 62, 0
1, 6543, Note_on_c, 8, 62, 0
1, 6560, Note_on_c, 1, 31, 0
1, 6576, Note_on_c, 1, 31, 108
1, 6576, Note_on_c, 4, 55, 84
1, 6576, Note_on_c, 8, 55, 84
1, 6576, Note_on_c, 9, 35, 54
1, 6576, Note_on_c, 9, 46, 51
1, 6576, Note_on_c, 9, 51, 61
1, 6578, Note_on_c, 9, 51, 0
1, 6578, Note_on_c, 9, 46, 0
1, 6578, Note_on_c, 9, 35, 0
1, 6624, Note_on_c, 4, 62, 97
1, 6624, Note_on_c, 8, 62, 97
1, 6624, Note_on_c, 9, 40, 105
1, 6624, Note_on_c, 9, 46, 51
1, 6624, Note_on_c, 9, 51, 63
1, 6626, Note_on_c, 9, 51, 0
1, 6626, Note_on_c, 9, 46, 0
1, 6626, Note_on_c, 9, 40, 0
1, 6672, Note_on_c, 9, 46, 51
1, 6672, Note_on_c, 9, 51, 63
1, 6674, Note_on_c, 9, 51, 0
1, 6674, Note_on_c, 9, 46, 0
1, 6689, Note_on_c, 1, 31, 0
1, 6715, Note_on_c, 8, 62, 0
1, 6715, Note_on_c, 8, 55, 0
1, 6715, Note_on_c, 4, 55, 0
1, 6715, Note_on_c, 4, 62, 0
1, 6716, Note_on_c, 5, 79, 0
1, 6718, Note_on_c, 8, 47, 0
1, 6718, Note_on_c, 4, 47, 0
1, 6720, Note_on_c, 1, 34, 88
1, 6720, Note_on_c, 4, 46, 84
1, 6720, Note_on_c, 4, 53, 80
1, 6720, Note_on_c, 4, 58, 97
1, 6720, Note_on_c, 5, 77, 66
1, 6720, Note_on_c, 5, 74, 50
1, 6720, Note_on_c, 5, 82, 64
1, 6720, Note_on_c, 8, 53, 80
1, 6720, Note_on_c, 8, 58, 97
1, 6720, Note_on_c, 8, 46, 84
1, 6720, Note_on_c, 9, 35, 75
1, 6720, Note_on_c, 9, 46, 51
1, 6720, Note_on_c, 9, 49, 82
1, 6722, Note_on_c, 9, 49, 0
1, 6722, Note_on_c, 9, 46, 0
1, 6722, Note_on_c, 9, 35, 0
1, 6768, Note_on_c, 1, 41, 96
1, 6768, Note_on_c, 3, 77, 121
1, 6768, Note_on_c, 9, 35, 54
1, 6768, Note_on_c, 9, 46, 51
1, 6768, Note_on_c, 9, 51, 67
1, 6770, Note_on_c, 9, 51, 0
1, 6770, Note_on_c, 9, 46, 0
1, 6770, Note_on_c, 9, 35, 0
1, 6771, Note_on_c, 1, 34, 0
1, 6789, Note_on_c, 5, 74, 0
1, 6796, Note_on_c, 1, 41, 0
1, 6807, Note_on_c, 5, 82, 0
1, 6808, Note_on_c, 3, 77, 0
1, 6811, Note_on_c, 5, 77, 0
1, 6812, Note_on_c, 8, 58, 0
1, 6812, Note_on_c, 4, 58, 0
1, 6816, Note_on_c, 1, 36, 86
1, 6816, Note_on_c, 3, 76, 116
1, 6816, Note_on_c, 4, 48, 84
1, 6816, Note_on_c, 4, 55, 84
1, 6816, Note_on_c, 4, 60, 80
1, 6816, Note_on_c, 5, 79, 58
1, 6816, Note_on_c, 5, 76, 66
1, 6816, Note_on_c, 5, 84, 64
1, 6816, Note_on_c, 8, 60, 80
1, 6816, Note_on_c, 8, 55, 84
1, 6816, Note_on_c, 8, 48, 84
1, 6816, Note_on_c, 9, 40, 105
1, 6816, Note_on_c, 9, 46, 51
1, 6816, Note_on_c, 9, 57, 67
1, 6818, Note_on_c, 9, 57, 0
1, 6818, Note_on_c, 9, 46, 0
1, 6818, Note_on_c, 9, 40, 0
1, 6819, Note_on_c, 4, 53, 0
1, 6819, Note_on_c, 8, 53, 0
1, 6825, Note_on_c, 4, 46, 0
1, 6825, Note_on_c, 8, 46, 0
1, 6845, Note_on_c, 3, 76, 0
1, 6864, Note_on_c, 3, 74, 126
1, 6864, Note_on_c, 9, 45, 75
1, 6864, Note_on_c, 9, 46, 51
1, 6864, Note_on_c, 9, 51, 55
1, 6866, Note_on_c, 9, 51, 0
1, 6866, Note_on_c, 9, 46, 0
1, 6866, Note_on_c, 9, 45, 0
1, 6870, Pitch_bend_c, 3, 8452
1, 6871, Pitch_bend_c, 3, 9232
1, 6872, Pitch_bend_c, 3, 10012
1, 6873, Pitch_bend_c, 3, 10922
1, 6874, Pitch_bend_c, 3, 11962
1, 6875, Pitch_bend_c, 3, 13002
1, 6876, Pitch_bend_c, 3, 13912
1, 6877, Pitch_bend_c, 3, 14692
1, 6878, Pitch_bend_c, 3, 15212
1, 6879, Pitch_bend_c, 3, 15732
1, 6880, Pitch_bend_c, 3, 16122
1, 6881, Pitch_bend_c, 3, 16382
1, 6888, Note_on_c, 9, 43, 75
1, 6890, Note_on_c, 9, 43, 0
1, 6895, Note_on_c, 5, 76, 0
1, 6908, Note_on_c, 5, 79, 0
1, 6911, Note_on_c, 5, 84, 0
1, 6912, Note_on_c, 1, 38, 96
1, 6912, Note_on_c, 4, 50, 97
1, 6912, Note_on_c, 5, 74, 60
1, 6912, Note_on_c, 8, 50, 97
1, 6912, Note_on_c, 9, 35, 75
1, 6912, Note_on_c, 9, 46, 51
1, 6912, Note_on_c, 9, 51, 79
1, 6914, Note_on_c, 9, 51, 0
1, 6914, Note_on_c, 4, 60, 0
1, 6914, Note_on_c, 8, 60, 0
1, 6914, Note_on_c, 9, 46, 0
1, 6914, Note_on_c, 9, 35, 0
1, 6915, Note_on_c, 1, 36, 0
1, 6919, Note_on_c, 8, 48, 0
1, 6919, Note_on_c, 4, 48, 0
1, 6921, Note_on_c, 4, 55, 0
1, 6921, Note_on_c, 8, 55, 0
1, 6947, Pitch_bend_c, 3, 15212
1, 6948, Pitch_bend_c, 3, 13132
1, 6949, Pitch_bend_c, 3, 11052
1, 6950, Pitch_bend_c, 3, 8192
1, 6951, Pitch_bend_c, 3, 8192
1, 6952, Pitch_bend_c, 3, 8064
1, 6953, Pitch_bend_c, 3, 8192
1, 6960, Note_on_c, 5, 74, 0
1, 6960, Note_on_c, 4, 57, 88
1, 6960, Note_on_c, 5, 81, 68
1, 6960, Note_on_c, 8, 57, 88
1, 6960, Note_on_c, 9, 35, 64
1, 6960, Note_on_c, 9, 46, 51
1, 6960, Note_on_c, 9, 51, 55
1, 6962, Note_on_c, 9, 51, 0
1, 6962, Note_on_c, 9, 46, 0
1, 6962, Note_on_c, 9, 35, 0
1, 6979, Note_on_c, 1, 38, 0
1, 6989, Control_c, 3, 1, 4
1, 6990, Control_c, 3, 1, 9
1, 6991, Control_c, 3, 1, 16
1, 6992, Control_c, 3, 1, 23
1, 6993, Control_c, 3, 1, 30
1, 6994, Control_c, 3, 1, 36
1, 6995, Control_c, 3, 1, 42
1, 6996, Control_c, 3, 1, 46
1, 6997, Control_c, 3, 1, 50
1, 6998, Control_c, 3, 1, 53
1, 6999, Control_c, 3, 1, 55
1, 7000, Control_c, 3, 1, 58
1, 7001, Control_c, 3, 1, 60
1, 7002, Control_c, 3, 1, 63
1, 7003, Control_c, 3, 1, 66
1, 7004, Control_c, 3, 1, 69
1, 7005, Control_c, 3, 1, 72
1, 7006, Control_c, 3, 1, 76
1, 7007, Control_c, 3, 1, 79
1, 7008, Note_on_c, 1, 38, 108
1, 7008, Control_c, 3, 1, 83
1, 7008, Note_on_c, 4, 62, 88
1, 7008, Note_on_c, 5, 84, 76
1, 7008, Note_on_c, 8, 62, 88
1, 7008, Note_on_c, 9, 40, 105
1, 7008, Note_on_c, 9, 46, 51
1, 7008, Note_on_c, 9, 49, 82
1, 7009, Control_c, 3, 1, 86
1, 7010, Note_on_c, 9, 49, 0
1, 7010, Note_on_c, 9, 46, 0
1, 7010, Note_on_c, 9, 40, 0
1, 7010, Control_c, 3, 1, 89
1, 7012, Control_c, 3, 1, 92
1, 7013, Control_c, 3, 1, 94
1, 7014, Control_c, 3, 1, 95
1, 7015, Control_c, 3, 1, 97
1, 7016, Control_c, 3, 1, 99
1, 7017, Control_c, 3, 1, 100
1, 7018, Note_on_c, 5, 81, 0
1, 7018, Control_c, 3, 1, 101
1, 7019, Control_c, 3, 1, 102
1, 7020, Control_c, 3, 1, 103
1, 7025, Control_c, 3, 1, 102
1, 7026, Control_c, 3, 1, 100
1, 7027, Control_c, 3, 1, 99
1, 7028, Note_on_c, 3, 74, 0
1, 7028, Control_c, 3, 1, 96
1, 7030, Control_c, 3, 1, 94
1, 7031, Control_c, 3, 1, 92
1, 7032, Control_c, 3, 1, 89
1, 7032, Note_on_c, 5, 83, 62
1, 7033, Control_c, 3, 1, 86
1, 7034, Control_c, 3, 1, 82
1, 7035, Control_c, 3, 1, 76
1, 7036, Control_c, 3, 1, 70
1, 7037, Control_c, 3, 1, 64
1, 7038, Control_c, 3, 1, 60
1, 7039, Control_c, 3, 1, 55
1, 7040, Control_c, 3, 1, 48
1, 7041, Control_c, 3, 1, 40
1, 7042, Control_c, 3, 1, 33
1, 7043, Control_c, 3, 1, 23
1, 7044, Note_on_c, 5, 84, 0
1, 7044, Control_c, 3, 1, 11
1, 7045, Control_c, 3, 1, 0
1, 7056, Note_on_c, 5, 81, 76
1, 7056, Note_on_c, 9, 46, 51
1, 7056, Note_on_c, 9, 51, 57
1, 7058, Note_on_c, 9, 51, 0
1, 7058, Note_on_c, 9, 46, 0
1, 7067, Note_on_c, 5, 83, 0
1, 7080, Note_on_c, 5, 81, 0
1, 7080, Note_on_c, 5, 79, 62
1, 7080, Note_on_c, 9, 40, 90
1, 7082, Note_on_c, 9, 40, 0
1, 7088, Note_on_c, 1, 38, 0
1, 7093, Note_on_c, 4, 50, 0
1, 7093, Note_on_c, 8, 50, 0
1, 7104, Note_on_c, 1, 36, 104
1, 7104, Note_on_c, 4, 48, 97
1, 7104, Note_on_c, 8, 48, 97
1, 7104, Note_on_c, 9, 35, 75
1, 7104, Note_on_c, 9, 46, 51
1, 7104, Note_on_c, 9, 51, 43
1, 7106, Note_on_c, 9, 51, 0
1, 7106, Note_on_c, 9, 46, 0
1, 7106, Note_on_c, 9, 35, 0
1, 7119, Note_on_c, 1, 36, 0
1, 7135, Note_on_c, 4, 57, 0
1, 7135, Note_on_c, 8, 57, 0
1, 7145, Note_on_c, 8, 62, 0
1, 7145, Note_on_c, 4, 62, 0
1, 7152, Note_on_c, 1, 36, 100
1, 7152, Note_on_c, 3, 72, 126
1, 7152, Note_on_c, 4, 55, 92
1, 7152, Note_on_c, 8, 55, 92
1, 7152, Note_on_c, 9, 35, 59
1, 7152, Note_on_c, 9, 46, 51
1, 7152, Note_on_c, 9, 51, 47
1, 7154, Note_on_c, 9, 51, 0
1, 7154, Note_on_c, 9, 46, 0
1, 7154, Note_on_c, 9, 35, 0
1, 7200, Note_on_c, 3, 71, 116
1, 7200, Note_on_c, 4, 62, 92
1, 7200, Note_on_c, 8, 62, 92
1, 7200, Note_on_c, 9, 40, 105
1, 7200, Note_on_c, 9, 46, 51
1, 7200, Note_on_c, 9, 51, 61
1, 7201, Note_on_c, 3, 72, 0
1, 7202, Note_on_c, 9, 40, 0
1, 7202, Note_on_c, 9, 51, 0
1, 7202, Note_on_c, 9, 46, 0
1, 7204, Note_on_c, 1, 36, 0
1, 7238, Note_on_c, 3, 71, 0
1, 7248, Note_on_c, 1, 35, 82
1, 7248, Note_on_c, 3, 69, 111
1, 7248, Note_on_c, 9, 46, 51
1, 7248, Note_on_c, 9, 51, 53
1, 7250, Note_on_c, 9, 51, 0
1, 7250, Note_on_c, 9, 46, 0
1, 7272, Note_on_c, 1, 33, 92
1, 7272, Note_on_c, 5, 86, 72
1, 7273, Note_on_c, 1, 35, 0
1, 7277, Note_on_c, 5, 79, 0
1, 7294, Note_on_c, 3, 69, 0
1, 7295, Note_on_c, 5, 86, 0
1, 7296, Note_on_c, 1, 33, 0
1, 7296, Note_on_c, 1, 31, 100
1, 7296, Note_on_c, 3, 67, 94
1, 7296, Note_on_c, 4, 47, 84
1, 7296, Note_on_c, 5, 71, 58
1, 7296, Note_on_c, 5, 79, 42
1, 7296, Note_on_c, 5, 74, 56
1, 7296, Note_on_c, 8, 47, 84
1, 7296, Note_on_c, 9, 35, 75
1, 7296, Note_on_c, 9, 46, 51
1, 7296, Note_on_c, 9, 51, 34
1, 7298, Note_on_c, 9, 51, 0
1, 7298, Note_on_c, 9, 46, 0
1, 7298, Note_on_c, 4, 48, 0
1, 7298, Note_on_c, 9, 35, 0
1, 7298, Note_on_c, 8, 48, 0
1, 7308, Note_on_c, 8, 55, 0
1, 7308, Note_on_c, 4, 55, 0
1, 7309, Note_on_c, 8, 62, 0
1, 7309, Note_on_c, 4, 62, 0
1, 7316, Control_c, 3, 1, 3
1, 7317, Control_c, 3, 1, 8
1, 7318, Control_c, 3, 1, 14
1, 7319, Control_c, 3, 1, 20
1, 7320, Control_c, 3, 1, 26
1, 7321, Control_c, 3, 1, 31
1, 7322, Control_c, 3, 1, 36
1, 7323, Note_on_c, 1, 31, 0
1, 7323, Control_c, 3, 1, 44
1, 7323, Control_c, 3, 1, 40
1, 7325, Control_c, 3, 1, 47
1, 7326, Control_c, 3, 1, 50
1, 7327, Control_c, 3, 1, 53
1, 7328, Control_c, 3, 1, 55
1, 7329, Control_c, 3, 1, 57
1, 7330, Control_c, 3, 1, 59
1, 7331, Control_c, 3, 1, 61
1, 7332, Control_c, 3, 1, 63
1, 7333, Control_c, 3, 1, 65
1, 7334, Control_c, 3, 1, 67
1, 7335, Control_c, 3, 1, 68
1, 7336, Control_c, 3, 1, 70
1, 7337, Control_c, 3, 1, 72
1, 7338, Control_c, 3, 1, 74
1, 7339, Control_c, 3, 1, 75
1, 7340, Control_c, 3, 1, 76
1, 7342, Control_c, 3, 1, 77
1, 7344, Note_on_c, 1, 31, 96
1, 7344, Note_on_c, 4, 55, 88
1, 7344, Note_on_c, 8, 55, 88
1, 7344, Note_on_c, 9, 35, 61
1, 7344, Note_on_c, 9, 46, 51
1, 7344, Note_on_c, 9, 51, 61
1, 7346, Note_on_c, 9, 51, 0
1, 7346, Note_on_c, 9, 35, 0
1, 7346, Note_on_c, 9, 46, 0
1, 7347, Control_c, 3, 1, 76
1, 7348, Control_c, 3, 1, 75
1, 7349, Control_c, 3, 1, 74
1, 7350, Control_c, 3, 1, 72
1, 7351, Control_c, 3, 1, 70
1, 7352, Control_c, 3, 1, 67
1, 7353, Control_c, 3, 1, 64
1, 7354, Control_c, 3, 1, 60
1, 7355, Control_c, 3, 1, 57
1, 7356, Control_c, 3, 1, 52
1, 7357, Control_c, 3, 1, 47
1, 7359, Control_c, 3, 1, 42
1, 7360, Control_c, 3, 1, 36
1, 7361, Control_c, 3, 1, 30
1, 7362, Note_on_c, 3, 67, 0
1, 7362, Control_c, 3, 1, 23
1, 7363, Control_c, 3, 1, 16
1, 7364, Control_c, 3, 1, 7
1, 7365, Control_c, 3, 1, 0
1, 7392, Note_on_c, 4, 62, 88
1, 7392, Note_on_c, 8, 62, 88
1, 7392, Note_on_c, 9, 40, 105
1, 7392, Note_on_c, 9, 46, 51
1, 7392, Note_on_c, 9, 51, 59
1, 7394, Note_on_c, 9, 51, 0
1, 7394, Note_on_c, 9, 46, 0
1, 7394, Note_on_c, 9, 40, 0
1, 7440, Note_on_c, 9, 46, 51
1, 7440, Note_on_c, 9, 51, 55
1, 7442, Note_on_c, 9, 51, 0
1, 7442, Note_on_c, 9, 46, 0
1, 7471, Note_on_c, 1, 31, 0
1, 7474, Note_on_c, 5, 74, 0
1, 7477, Note_on_c, 4, 55, 0
1, 7477, Note_on_c, 8, 55, 0
1, 7479, Note_on_c, 5, 71, 0
1, 7485, Note_on_c, 4, 62, 0
1, 7485, Note_on_c, 8, 62, 0
1, 7487, Note_on_c, 5, 79, 0
1, 7488, Note_on_c, 1, 34, 88
1, 7488, Note_on_c, 4, 46, 84
1, 7488, Note_on_c, 4, 53, 72
1, 7488, Note_on_c, 4, 58, 88
1, 7488, Note_on_c, 5, 77, 76
1, 7488, Note_on_c, 5, 82, 66
1, 7488, Note_on_c, 5, 74, 56
1, 7488, Note_on_c, 8, 53, 72
1, 7488, Note_on_c, 8, 58, 88
1, 7488, Note_on_c, 8, 46, 84
1, 7488, Note_on_c, 9, 35, 75
1, 7488, Note_on_c, 9, 46, 51
1, 7488, Note_on_c, 9, 49, 78
1, 7490, Note_on_c, 9, 49, 0
1, 7490, Note_on_c, 9, 46, 0
1, 7490, Note_on_c, 9, 35, 0
1, 7491, Note_on_c, 4, 47, 0
1, 7491, Note_on_c, 8, 47, 0
1, 7536, Note_on_c, 3, 65, 116
1, 7536, Note_on_c, 9, 35, 61
1, 7536, Note_on_c, 9, 46, 51
1, 7536, Note_on_c, 9, 51, 59
1, 7538, Note_on_c, 9, 51, 0
1, 7538, Note_on_c, 9, 46, 0
1, 7538, Note_on_c, 9, 35, 0
1, 7546, Note_on_c, 5, 74, 0
1, 7577, Note_on_c, 8, 58, 0
1, 7577, Note_on_c, 4, 58, 0
1, 7582, Note_on_c, 3, 65, 0
1, 7584, Note_on_c, 5, 82, 0
1, 7584, Note_on_c, 1, 36, 86
1, 7584, Note_on_c, 3, 64, 106
1, 7584, Note_on_c, 4, 48, 84
1, 7584, Note_on_c, 4, 55, 88
1, 7584, Note_on_c, 4, 60, 80
1, 7584, Note_on_c, 5, 79, 58
1, 7584, Note_on_c, 5, 84, 54
1, 7584, Note_on_c, 5, 76, 68
1, 7584, Note_on_c, 8, 55, 88
1, 7584, Note_on_c, 8, 60, 80
1, 7584, Note_on_c, 8, 48, 84
1, 7584, Note_on_c, 9, 40, 105
1, 7584, Note_on_c, 9, 46, 51
1, 7584, Note_on_c, 9, 57, 71
1, 7586, Note_on_c, 9, 57, 0
1, 7586, Note_on_c, 9, 46, 0
1, 7586, Note_on_c, 9, 40, 0
1, 7587, Note_on_c, 8, 53, 0
1, 7587, Note_on_c, 4, 53, 0
1, 7588, Note_on_c, 1, 34, 0
1, 7589, Note_on_c, 4, 46, 0
1, 7589, Note_on_c, 8, 46, 0
1, 7590, Note_on_c, 5, 77, 0
1, 7620, Note_on_c, 3, 64, 0
1, 7632, Note_on_c, 3, 62, 121
1, 7632, Note_on_c, 9, 46, 51
1, 7632, Note_on_c, 9, 51, 55
1, 7634, Note_on_c, 9, 51, 0
1, 7634, Note_on_c, 9, 46, 0
1, 7639, Pitch_bend_c, 3, 8842
1, 7639, Pitch_bend_c, 3, 8322
1, 7640, Pitch_bend_c, 3, 9492
1, 7642, Pitch_bend_c, 3, 10142
1, 7643, Pitch_bend_c, 3, 11182
1, 7644, Pitch_bend_c, 3, 13262
1, 7644, Pitch_bend_c, 3, 12222
1, 7645, Pitch_bend_c, 3, 14172
1, 7646, Pitch_bend_c, 3, 15082
1, 7647, Pitch_bend_c, 3, 15732
1, 7649, Pitch_bend_c, 3, 16382
1, 7656, Note_on_c, 9, 40, 90
1, 7658, Note_on_c, 9, 40, 0
1, 7659, Note_on_c, 5, 76, 0
1, 7676, Note_on_c, 5, 84, 0
1, 7678, Note_on_c, 5, 79, 0
1, 7678, Note_on_c, 1, 36, 0
1, 7680, Note_on_c, 1, 38, 88
1, 7680, Pitch_bend_c, 3, 15992
1, 7680, Note_on_c, 4, 50, 97
1, 7680, Note_on_c, 5, 74, 72
1, 7680, Note_on_c, 8, 50, 97
1, 7680, Note_on_c, 9, 35, 75
1, 7680, Note_on_c, 9, 46, 51
1, 7680, Note_on_c, 9, 51, 49
1, 7682, Note_on_c, 9, 51, 0
1, 7682, Note_on_c, 9, 46, 0
1, 7682, Note_on_c, 9, 35, 0
1, 7682, Pitch_bend_c, 3, 15212
1, 7683, Pitch_bend_c, 3, 14562
1, 7684, Pitch_bend_c, 3, 13522
1, 7685, Pitch_bend_c, 3, 11702
1, 7686, Note_on_c, 4, 55, 0
1, 7686, Note_on_c, 8, 55, 0
1, 7686, Pitch_bend_c, 3, 8192
1, 7692, Note_on_c, 8, 60, 0
1, 7692, Note_on_c, 4, 60, 0
1, 7695, Note_on_c, 4, 48, 0
1, 7695, Note_on_c, 8, 48, 0
1, 7700, Note_on_c, 1, 38, 0
1, 7704, Note_on_c, 1, 33, 88
1, 7725, Control_c, 3, 1, 2
1, 7726, Note_on_c, 1, 33, 0
1, 7726, Control_c, 3, 1, 6
1, 7727, Control_c, 3, 1, 14
1, 7728, Note_on_c, 1, 38, 88
1, 7728, Control_c, 3, 1, 21
1, 7728, Note_on_c, 4, 57, 76
1, 7728, Note_on_c, 8, 57, 76
1, 7728, Note_on_c, 9, 35, 56
1, 7728, Note_on_c, 9, 46, 51
1, 7728, Note_on_c, 9, 51, 57
1, 7729, Control_c, 3, 1, 29
1, 7730, Note_on_c, 9, 51, 0
1, 7730, Note_on_c, 9, 46, 0
1, 7730, Note_on_c, 9, 35, 0
1, 7730, Control_c, 3, 1, 35
1, 7731, Control_c, 3, 1, 39
1, 7732, Control_c, 3, 1, 43
1, 7733, Control_c, 3, 1, 47
1, 7734, Control_c, 3, 1, 51
1, 7735, Control_c, 3, 1, 55
1, 7736, Control_c, 3, 1, 59
1, 7737, Control_c, 3, 1, 64
1, 7738, Control_c, 3, 1, 68
1, 7739, Control_c, 3, 1, 72
1, 7740, Control_c, 3, 1, 76
1, 7741, Control_c, 3, 1, 80
1, 7742, Control_c, 3, 1, 84
1, 7743, Control_c, 3, 1, 88
1, 7744, Control_c, 3, 1, 92
1, 7745, Control_c, 3, 1, 95
1, 7746, Control_c, 3, 1, 99
1, 7747, Control_c, 3, 1, 103
1, 7748, Note_on_c, 1, 38, 0
1, 7748, Control_c, 3, 1, 105
1, 7749, Control_c, 3, 1, 108
1, 7750, Control_c, 3, 1, 111
1, 7751, Control_c, 3, 1, 112
1, 7752, Control_c, 3, 1, 113
1, 7753, Control_c, 3, 1, 114
1, 7757, Control_c, 3, 1, 115
1, 7760, Control_c, 3, 1, 114
1, 7762, Control_c, 3, 1, 113
1, 7764, Control_c, 3, 1, 112
1, 7766, Control_c, 3, 1, 111
1, 7767, Control_c, 3, 1, 110
1, 7769, Control_c, 3, 1, 108
1, 7770, Control_c, 3, 1, 107
1, 7771, Control_c, 3, 1, 105
1, 7773, Control_c, 3, 1, 104
1, 7774, Control_c, 3, 1, 102
1, 7775, Control_c, 3, 1, 100
1, 7776, Note_on_c, 1, 38, 86
1, 7776, Control_c, 3, 1, 97
1, 7776, Note_on_c, 4, 62, 97
1, 7776, Note_on_c, 5, 84, 80
1, 7776, Note_on_c, 8, 62, 97
1, 7776, Note_on_c, 9, 40, 105
1, 7776, Note_on_c, 9, 46, 51
1, 7776, Note_on_c, 9, 49, 82
1, 7777, Control_c, 3, 1, 95
1, 7778, Note_on_c, 9, 49, 0
1, 7778, Note_on_c, 9, 46, 0
1, 7778, Note_on_c, 9, 40, 0
1, 7778, Control_c, 3, 1, 91
1, 7779, Control_c, 3, 1, 87
1, 7780, Control_c, 3, 1, 83
1, 7781, Control_c, 3, 1, 78
1, 7782, Control_c, 3, 1, 71
1, 7783, Control_c, 3, 1, 66
1, 7784, Control_c, 3, 1, 60
1, 7785, Note_on_c, 5, 74, 0
1, 7785, Control_c, 3, 1, 54
1, 7786, Control_c, 3, 1, 46
1, 7787, Control_c, 3, 1, 37
1, 7788, Control_c, 3, 1, 27
1, 7789, Control_c, 3, 1, 16
1, 7790, Control_c, 3, 1, 1
1, 7791, Note_on_c, 3, 62, 0
1, 7791, Control_c, 3, 1, 0
1, 7800, Note_on_c, 5, 83, 56
1, 7806, Note_on_c, 5, 84, 0
1, 7823, Note_on_c, 1, 38, 0
1, 7824, Note_on_c, 1, 33, 88
1, 7824, Note_on_c, 5, 81, 76
1, 7824, Note_on_c, 9, 46, 51
1, 7824, Note_on_c, 9, 51, 55
1, 7826, Note_on_c, 9, 51, 0
1, 7826, Note_on_c, 9, 46, 0
1, 7833, Note_on_c, 5, 83, 0
1, 7848, Note_on_c, 5, 79, 68
1, 7848, Note_on_c, 9, 40, 90
1, 7850, Note_on_c, 9, 40, 0
1, 7851, Note_on_c, 5, 81, 0
1, 7863, Note_on_c, 1, 33, 0
1, 7872, Note_on_c, 4, 48, 97
1, 7872, Note_on_c, 8, 48, 97
1, 7872, Note_on_c, 9, 35, 75
1, 7872, Note_on_c, 9, 46, 51
1, 7872, Note_on_c, 9, 51, 59
1, 7874, Note_on_c, 9, 51, 0
1, 7874, Note_on_c, 9, 35, 0
1, 7874, Note_on_c, 9, 46, 0
1, 7875, Note_on_c, 4, 50, 0
1, 7875, Note_on_c, 8, 50, 0
1, 7890, Note_on_c, 4, 57, 0
1, 7890, Note_on_c, 8, 57, 0
1, 7907, Note_on_c, 4, 62, 0
1, 7907, Note_on_c, 8, 62, 0
1, 7920, Note_on_c, 1, 29, 108
1, 7920, Note_on_c, 4, 55, 92
1, 7920, Note_on_c, 8, 55, 92
1, 7920, Note_on_c, 9, 35, 56
1, 7920, Note_on_c, 9, 46, 51
1, 7920, Note_on_c, 9, 51, 57
1, 7922, Note_on_c, 9, 51, 0
1, 7922, Note_on_c, 9, 46, 0
1, 7922, Note_on_c, 9, 35, 0
1, 7968, Note_on_c, 1, 31, 84
1, 7968, Note_on_c, 4, 62, 88
1, 7968, Note_on_c, 8, 62, 88
1, 7968, Note_on_c, 9, 40, 105
1, 7968, Note_on_c, 9, 46, 51
1, 7968, Note_on_c, 9, 51, 61
1, 7970, Note_on_c, 9, 51, 0
1, 7970, Note_on_c, 9, 40, 0
1, 7970, Note_on_c, 9, 46, 0
1, 7978, Note_on_c, 1, 29, 0
1, 8016, Note_on_c, 1, 33, 96
1, 8016, Note_on_c, 9, 46, 51
1, 8016, Note_on_c, 9, 51, 57
1, 8017, Note_on_c, 1, 31, 0
1, 8018, Note_on_c, 9, 51, 0
1, 8018, Note_on_c, 9, 46, 0
1, 8053, Note_on_c, 1, 33, 0
1, 8055, Note_on_c, 8, 48, 0
1, 8055, Note_on_c, 4, 48, 0
1, 8064, Note_on_c, 1, 31, 86
1, 8064, Note_on_c, 4, 47, 97
1, 8064, Note_on_c, 5, 74, 60
1, 8064, Note_on_c, 5, 71, 66
1, 8064, Note_on_c, 8, 47, 97
1, 8064, Note_on_c, 9, 35, 75
1, 8064, Note_on_c, 9, 46, 51
1, 8064, Note_on_c, 9, 51, 57
1, 8066, Note_on_c, 9, 51, 0
1, 8066, Note_on_c, 9, 46, 0
1, 8066, Note_on_c, 9, 35, 0
1, 8074, Note_on_c, 4, 62, 0
1, 8074, Note_on_c, 8, 55, 0
1, 8074, Note_on_c, 4, 55, 0
1, 8074, Note_on_c, 8, 62, 0
1, 8079, Note_on_c, 1, 31, 0
1, 8112, Note_on_c, 1, 31, 96
1, 8112, Note_on_c, 4, 55, 88
1, 8112, Note_on_c, 8, 55, 88
1, 8112, Note_on_c, 9, 35, 54
1, 8112, Note_on_c, 9, 46, 51
1, 8112, Note_on_c, 9, 51, 55
1, 8114, Note_on_c, 9, 51, 0
1, 8114, Note_on_c, 9, 46, 0
1, 8114, Note_on_c, 9, 35, 0
1, 8160, Note_on_c, 4, 62, 97
1, 8160, Note_on_c, 8, 62, 97
1, 8160, Note_on_c, 9, 40, 105
1, 8160, Note_on_c, 9, 46, 51
1, 8160, Note_on_c, 9, 51, 57
1, 8162, Note_on_c, 9, 51, 0
1, 8162, Note_on_c, 9, 46, 0
1, 8162, Note_on_c, 9, 40, 0
1, 8208, Note_on_c, 9, 46, 51
1, 8208, Note_on_c, 9, 51, 53
1, 8210, Note_on_c, 9, 51, 0
1, 8210, Note_on_c, 9, 46, 0
1, 8232, Note_on_c, 9, 35, 51
1, 8234, Note_on_c, 9, 35, 0
1, 8238, Note_on_c, 5, 74, 0
1, 8247, Note_on_c, 5, 71, 0
1, 8251, Note_on_c, 5, 79, 0
1, 8252, Note_on_c, 4, 47, 0
1, 8252, Note_on_c, 8, 47, 0
1, 8252, Note_on_c, 1, 31, 0
1, 8256, Note_on_c, 1, 34, 88
1, 8256, Note_on_c, 4, 46, 84
1, 8256, Note_on_c, 4, 53, 68
1, 8256, Note_on_c, 4, 58, 84
1, 8256, Note_on_c, 5, 77, 84
1, 8256, Note_on_c, 5, 82, 66
1, 8256, Note_on_c, 5, 74, 60
1, 8256, Note_on_c, 8, 58, 84
1, 8256, Note_on_c, 8, 53, 68
1, 8256, Note_on_c, 8, 46, 84
1, 8256, Note_on_c, 9, 40, 105
1, 8256, Note_on_c, 9, 46, 51
1, 8256, Note_on_c, 9, 51, 57
1, 8257, Note_on_c, 4, 55, 0
1, 8257, Note_on_c, 8, 55, 0
1, 8258, Note_on_c, 8, 62, 0
1, 8258, Note_on_c, 9, 51, 0
1, 8258, Note_on_c, 9, 46, 0
1, 8258, Note_on_c, 9, 40, 0
1, 8258, Note_on_c, 4, 62, 0
1, 8304, Note_on_c, 3, 77, 116
1, 8304, Note_on_c, 9, 35, 54
1, 8304, Note_on_c, 9, 46, 51
1, 8304, Note_on_c, 9, 51, 55
1, 8306, Note_on_c, 9, 51, 0
1, 8306, Note_on_c, 9, 46, 0
1, 8306, Note_on_c, 9, 35, 0
1, 8315, Note_on_c, 5, 74, 0
1, 8345, Note_on_c, 3, 77, 0
1, 8347, Note_on_c, 4, 58, 0
1, 8347, Note_on_c, 8, 58, 0
1, 8350, Note_on_c, 4, 53, 0
1, 8350, Note_on_c, 1, 34, 0
1, 8350, Note_on_c, 8, 53, 0
1, 8352, Note_on_c, 1, 36, 104
1, 8352, Note_on_c, 3, 76, 116
1, 8352, Note_on_c, 4, 48, 92
1, 8352, Note_on_c, 4, 55, 84
1, 8352, Note_on_c, 4, 60, 84
1, 8352, Note_on_c, 5, 79, 52
1, 8352, Note_on_c, 5, 76, 66
1, 8352, Note_on_c, 5, 84, 64
1, 8352, Note_on_c, 8, 55, 84
1, 8352, Note_on_c, 8, 60, 84
1, 8352, Note_on_c, 8, 48, 92
1, 8352, Note_on_c, 9, 40, 105
1, 8352, Note_on_c, 9, 46, 51
1, 8352, Note_on_c, 9, 51, 59
1, 8354, Note_on_c, 9, 51, 0
1, 8354, Note_on_c, 9, 46, 0
1, 8354, Note_on_c, 9, 40, 0
1, 8355, Note_on_c, 5, 82, 0
1, 8360, Note_on_c, 5, 77, 0
1, 8363, Note_on_c, 8, 46, 0
1, 8363, Note_on_c, 4, 46, 0
1, 8376, Note_on_c, 9, 35, 41
1, 8378, Note_on_c, 9, 35, 0
1, 8380, Note_on_c, 3, 76, 0
1, 8398, Pitch_bend_c, 3, 8322
1, 8399, Pitch_bend_c, 3, 8972
1, 8400, Note_on_c, 3, 74, 106
1, 8400, Pitch_bend_c, 3, 9492
1, 8400, Note_on_c, 9, 35, 51
1, 8400, Note_on_c, 9, 46, 51
1, 8400, Note_on_c, 9, 51, 57
1, 8401, Pitch_bend_c, 3, 10012
1, 8402, Note_on_c, 9, 51, 0
1, 8402, Note_on_c, 9, 46, 0
1, 8402, Note_on_c, 9, 35, 0
1, 8402, Pitch_bend_c, 3, 10532
1, 8403, Pitch_bend_c, 3, 11312
1, 8404, Pitch_bend_c, 3, 11832
1, 8405, Pitch_bend_c, 3, 12352
1, 8406, Pitch_bend_c, 3, 13002
1, 8408, Pitch_bend_c, 3, 13522
1, 8409, Pitch_bend_c, 3, 14042
1, 8410, Pitch_bend_c, 3, 14562
1, 8411, Pitch_bend_c, 3, 14952
1, 8412, Pitch_bend_c, 3, 15472
1, 8413, Pitch_bend_c, 3, 15862
1, 8414, Pitch_bend_c, 3, 16382
1, 8430, Note_on_c, 5, 76, 0
1, 8440, Note_on_c, 1, 36, 0
1, 8441, Note_on_c, 5, 79, 0
1, 8444, Note_on_c, 5, 84, 0
1, 8447, Note_on_c, 4, 48, 0
1, 8447, Note_on_c, 8, 48, 0
1, 8448, Note_on_c, 1, 38, 86
1, 8448, Note_on_c, 4, 50, 97
1, 8448, Note_on_c, 5, 74, 80
1, 8448, Note_on_c, 8, 50, 97
1, 8448, Note_on_c, 9, 35, 75
1, 8448, Note_on_c, 9, 46, 51
1, 8448, Note_on_c, 9, 49, 78
1, 8450, Note_on_c, 9, 49, 0
1, 8450, Note_on_c, 9, 35, 0
1, 8450, Note_on_c, 9, 46, 0
1, 8466, Note_on_c, 4, 60, 0
1, 8466, Note_on_c, 8, 60, 0
1, 8471, Note_on_c, 8, 50, 0
1, 8471, Note_on_c, 4, 50, 0
1, 8478, Note_on_c, 4, 55, 0
1, 8478, Note_on_c, 8, 55, 0
1, 8496, Pitch_bend_c, 3, 12612
1, 8496, Pitch_bend_c, 3, 15082
1, 8496, Note_on_c, 4, 50, 102
1, 8496, Note_on_c, 8, 50, 102
1, 8496, Note_on_c, 9, 35, 64
1, 8496, Note_on_c, 9, 46, 51
1, 8496, Note_on_c, 9, 51, 49
1, 8498, Note_on_c, 9, 51, 0
1, 8498, Note_on_c, 9, 46, 0
1, 8498, Note_on_c, 9, 35, 0
1, 8498, Pitch_bend_c, 3, 8192
1, 8500, Note_on_c, 1, 38, 0
1, 8500, Pitch_bend_c, 3, 7936
1, 8501, Pitch_bend_c, 3, 7936
1, 8502, Pitch_bend_c, 3, 8192
1, 8524, Note_on_c, 5, 74, 0
1, 8530, Control_c, 3, 1, 4
1, 8531, Control_c, 3, 1, 9
1, 8532, Control_c, 3, 1, 17
1, 8533, Control_c, 3, 1, 24
1, 8534, Control_c, 3, 1, 31
1, 8535, Control_c, 3, 1, 37
1, 8536, Control_c, 3, 1, 42
1, 8537, Control_c, 3, 1, 47
1, 8538, Control_c, 3, 1, 51
1, 8539, Control_c, 3, 1, 55
1, 8540, Control_c, 3, 1, 60
1, 8541, Control_c, 3, 1, 64
1, 8542, Control_c, 3, 1, 69
1, 8543, Control_c, 3, 1, 74
1, 8544, Note_on_c, 1, 38, 100
1, 8544, Control_c, 3, 1, 79
1, 8544, Note_on_c, 4, 55, 102
1, 8544, Note_on_c, 5, 84, 92
1, 8544, Note_on_c, 8, 55, 102
1, 8544, Note_on_c, 9, 40, 105
1, 8544, Note_on_c, 9, 46, 51
1, 8544, Note_on_c, 9, 49, 82
1, 8545, Control_c, 3, 1, 83
1, 8546, Note_on_c, 9, 49, 0
1, 8546, Note_on_c, 9, 46, 0
1, 8546, Note_on_c, 9, 40, 0
1, 8546, Control_c, 3, 1, 87
1, 8548, Control_c, 3, 1, 95
1, 8548, Control_c, 3, 1, 91
1, 8550, Control_c, 3, 1, 99
1, 8551, Control_c, 3, 1, 103
1, 8552, Control_c, 3, 1, 106
1, 8553, Control_c, 3, 1, 110
1, 8554, Control_c, 3, 1, 113
1, 8555, Control_c, 3, 1, 115
1, 8556, Control_c, 3, 1, 117
1, 8557, Control_c, 3, 1, 118
1, 8558, Control_c, 3, 1, 119
1, 8559, Control_c, 3, 1, 120
1, 8567, Control_c, 3, 1, 118
1, 8568, Note_on_c, 5, 83, 68
1, 8569, Control_c, 3, 1, 117
1, 8571, Control_c, 3, 1, 115
1, 8573, Control_c, 3, 1, 114
1, 8574, Control_c, 3, 1, 112
1, 8575, Control_c, 3, 1, 111
1, 8576, Control_c, 3, 1, 108
1, 8577, Control_c, 3, 1, 105
1, 8578, Note_on_c, 3, 74, 0
1, 8578, Control_c, 3, 1, 103
1, 8579, Note_on_c, 8, 50, 0
1, 8579, Note_on_c, 4, 50, 0
1, 8579, Control_c, 3, 1, 98
1, 8580, Note_on_c, 1, 38, 0
1, 8580, Control_c, 3, 1, 93
1, 8581, Control_c, 3, 1, 88
1, 8582, Note_on_c, 5, 84, 0
1, 8582, Control_c, 3, 1, 81
1, 8583, Control_c, 3, 1, 74
1, 8584, Control_c, 3, 1, 67
1, 8585, Note_on_c, 8, 55, 0
1, 8585, Note_on_c, 4, 55, 0
1, 8585, Control_c, 3, 1, 61
1, 8586, Control_c, 3, 1, 53
1, 8587, Control_c, 3, 1, 47
1, 8588, Control_c, 3, 1, 40
1, 8589, Control_c, 3, 1, 31
1, 8590, Control_c, 3, 1, 20
1, 8591, Control_c, 3, 1, 4
1, 8592, Control_c, 3, 1, 0
1, 8592, Note_on_c, 4, 62, 88
1, 8592, Note_on_c, 5, 81, 76
1, 8592, Note_on_c, 8, 62, 88
1, 8592, Note_on_c, 9, 46, 51
1, 8592, Note_on_c, 9, 51, 47
1, 8594, Note_on_c, 9, 51, 0
1, 8594, Note_on_c, 9, 46, 0
1, 8598, Note_on_c, 5, 83, 0
1, 8613, Note_on_c, 5, 81, 0
1, 8616, Note_on_c, 1, 38, 92
1, 8616, Note_on_c, 5, 79, 68
1, 8616, Note_on_c, 9, 40, 90
1, 8618, Note_on_c, 9, 40, 0
1, 8630, Note_on_c, 1, 38, 0
1, 8640, Note_on_c, 1, 36, 88
1, 8640, Note_on_c, 4, 48, 88
1, 8640, Note_on_c, 8, 48, 88
1, 8640, Note_on_c, 9, 35, 75
1, 8640, Note_on_c, 9, 46, 51
1, 8640, Note_on_c, 9, 51, 51
1, 8642, Note_on_c, 9, 51, 0
1, 8642, Note_on_c, 9, 46, 0
1, 8642, Note_on_c, 9, 35, 0
1, 8667, Note_on_c, 1, 36, 0
1, 8688, Note_on_c, 1, 36, 86
1, 8688, Note_on_c, 3, 72, 116
1, 8688, Note_on_c, 9, 35, 59
1, 8688, Note_on_c, 9, 46, 51
1, 8688, Note_on_c, 9, 51, 30
1, 8690, Note_on_c, 9, 51, 0
1, 8690, Note_on_c, 9, 46, 0
1, 8690, Note_on_c, 9, 35, 0
1, 8709, Note_on_c, 8, 62, 0
1, 8709, Note_on_c, 4, 62, 0
1, 8727, Note_on_c, 3, 72, 0
1, 8736, Note_on_c, 3, 71, 121
1, 8736, Note_on_c, 4, 55, 92
1, 8736, Note_on_c, 4, 62, 88
1, 8736, Note_on_c, 8, 55, 92
1, 8736, Note_on_c, 8, 62, 88
1, 8736, Note_on_c, 9, 40, 105
1, 8736, Note_on_c, 9, 46, 51
1, 8736, Note_on_c, 9, 51, 43
1, 8738, Note_on_c, 9, 51, 0
1, 8738, Note_on_c, 9, 40, 0
1, 8738, Note_on_c, 9, 46, 0
1, 8779, Note_on_c, 3, 71, 0
1, 8784, Note_on_c, 3, 69, 116
1, 8784, Note_on_c, 9, 46, 51
1, 8784, Note_on_c, 9, 51, 37
1, 8786, Note_on_c, 9, 51, 0
1, 8786, Note_on_c, 9, 46, 0
1, 8808, Note_on_c, 5, 86, 76
1, 8817, Note_on_c, 5, 79, 0
1, 8824, Note_on_c, 4, 48, 0
1, 8824, Note_on_c, 8, 48, 0
1, 8826, Note_on_c, 5, 86, 0
1, 8827, Note_on_c, 1, 36, 0
1, 8832, Note_on_c, 1, 31, 92
1, 8832, Note_on_c, 3, 67, 99
1, 8832, Note_on_c, 4, 47, 92
1, 8832, Note_on_c, 5, 79, 50
1, 8832, Note_on_c, 5, 74, 62
1, 8832, Note_on_c, 8, 47, 92
1, 8832, Note_on_c, 9, 35, 75
1, 8832, Note_on_c, 9, 46, 51
1, 8832, Note_on_c, 9, 51, 47
1, 8834, Note_on_c, 9, 51, 0
1, 8834, Note_on_c, 9, 46, 0
1, 8834, Note_on_c, 3, 69, 0
1, 8834, Note_on_c, 9, 35, 0
1, 8839, Note_on_c, 8, 62, 0
1, 8839, Note_on_c, 4, 62, 0
1, 8860, Control_c, 3, 1, 2
1, 8861, Control_c, 3, 1, 5
1, 8862, Control_c, 3, 1, 9
1, 8863, Control_c, 3, 1, 14
1, 8864, Note_on_c, 4, 47, 0
1, 8864, Note_on_c, 8, 47, 0
1, 8864, Control_c, 3, 1, 19
1, 8865, Control_c, 3, 1, 24
1, 8866, Control_c, 3, 1, 29
1, 8867, Control_c, 3, 1, 33
1, 8868, Note_on_c, 8, 55, 0
1, 8868, Note_on_c, 4, 55, 0
1, 8868, Control_c, 3, 1, 36
1, 8869, Control_c, 3, 1, 39
1, 8870, Control_c, 3, 1, 43
1, 8871, Control_c, 3, 1, 45
1, 8872, Control_c, 3, 1, 48
1, 8873, Control_c, 3, 1, 50
1, 8874, Control_c, 3, 1, 53
1, 8875, Control_c, 3, 1, 55
1, 8876, Control_c, 3, 1, 57
1, 8877, Control_c, 3, 1, 59
1, 8878, Control_c, 3, 1, 62
1, 8879, Control_c, 3, 1, 64
1, 8880, Control_c, 3, 1, 66
1, 8880, Note_on_c, 4, 47, 92
1, 8880, Note_on_c, 8, 47, 92
1, 8880, Note_on_c, 9, 35, 61
1, 8880, Note_on_c, 9, 46, 51
1, 8880, Note_on_c, 9, 51, 45
1, 8881, Control_c, 3, 1, 68
1, 8882, Note_on_c, 9, 51, 0
1, 8882, Note_on_c, 9, 46, 0
1, 8882, Note_on_c, 9, 35, 0
1, 8883, Control_c, 3, 1, 72
1, 8883, Control_c, 3, 1, 70
1, 8884, Control_c, 3, 1, 73
1, 8886, Control_c, 3, 1, 74
1, 8887, Control_c, 3, 1, 75
1, 8889, Control_c, 3, 1, 76
1, 8893, Control_c, 3, 1, 77
1, 8896, Control_c, 3, 1, 78
1, 8904, Control_c, 3, 1, 77
1, 8905, Control_c, 3, 1, 76
1, 8906, Note_on_c, 3, 67, 0
1, 8906, Control_c, 3, 1, 74
1, 8907, Control_c, 3, 1, 72
1, 8908, Control_c, 3, 1, 69
1, 8909, Control_c, 3, 1, 67
1, 8910, Control_c, 3, 1, 63
1, 8911, Control_c, 3, 1, 60
1, 8912, Control_c, 3, 1, 55
1, 8913, Control_c, 3, 1, 50
1, 8914, Control_c, 3, 1, 45
1, 8915, Control_c, 3, 1, 40
1, 8916, Control_c, 3, 1, 34
1, 8917, Control_c, 3, 1, 28
1, 8918, Control_c, 3, 1, 20
1, 8919, Control_c, 3, 1, 13
1, 8920, Control_c, 3, 1, 3
1, 8921, Control_c, 3, 1, 0
1, 8928, Note_on_c, 4, 55, 102
1, 8928, Note_on_c, 4, 62, 97
1, 8928, Note_on_c, 8, 62, 97
1, 8928, Note_on_c, 8, 55, 102
1, 8928, Note_on_c, 9, 40, 105
1, 8928, Note_on_c, 9, 46, 51
1, 8928, Note_on_c, 9, 51, 45
1, 8930, Note_on_c, 9, 51, 0
1, 8930, Note_on_c, 9, 40, 0
1, 8930, Note_on_c, 9, 46, 0
1, 8976, Note_on_c, 9, 46, 51
1, 8976, Note_on_c, 9, 51, 59
1, 8978, Note_on_c, 9, 51, 0
1, 8978, Note_on_c, 9, 46, 0
1, 9009, Note_on_c, 5, 74, 0
1, 9016, Note_on_c, 1, 31, 0
1, 9018, Note_on_c, 5, 79, 0
1, 9024, Note_on_c, 1, 34, 104
1, 9024, Note_on_c, 4, 46, 97
1, 9024, Note_on_c, 5, 82, 68
1, 9024, Note_on_c, 5, 77, 80
1, 9024, Note_on_c, 5, 74, 62
1, 9024, Note_on_c, 8, 46, 97
1, 9024, Note_on_c, 9, 35, 75
1, 9024, Note_on_c, 9, 46, 51
1, 9024, Note_on_c, 9, 49, 74
1, 9026, Note_on_c, 9, 49, 0
1, 9026, Note_on_c, 8, 62, 0
1, 9026, Note_on_c, 9, 46, 0
1, 9026, Note_on_c, 4, 62, 0
1, 9026, Note_on_c, 9, 35, 0
1, 9027, Note_on_c, 8, 55, 0
1, 9027, Note_on_c, 4, 55, 0
1, 9031, Note_on_c, 8, 47, 0
1, 9031, Note_on_c, 4, 47, 0
1, 9072, Note_on_c, 3, 65, 111
1, 9072, Note_on_c, 9, 35, 61
1, 9072, Note_on_c, 9, 46, 51
1, 9072, Note_on_c, 9, 51, 47
1, 9074, Note_on_c, 9, 51, 0
1, 9074, Note_on_c, 9, 46, 0
1, 9074, Note_on_c, 9, 35, 0
1, 9090, Note_on_c, 5, 74, 0
1, 9111, Note_on_c, 3, 65, 0
1, 9115, Note_on_c, 5, 82, 0
1, 9116, Note_on_c, 1, 34, 0
1, 9118, Note_on_c, 5, 77, 0
1, 9120, Note_on_c, 1, 36, 80
1, 9120, Note_on_c, 3, 64, 121
1, 9120, Note_on_c, 4, 48, 88
1, 9120, Note_on_c, 4, 55, 66
1, 9120, Note_on_c, 4, 60, 66
1, 9120, Note_on_c, 5, 79, 58
1, 9120, Note_on_c, 5, 76, 64
1, 9120, Note_on_c, 5, 84, 60
1, 9120, Note_on_c, 8, 60, 66
1, 9120, Note_on_c, 8, 55, 66
1, 9120, Note_on_c, 8, 48, 88
1, 9120, Note_on_c, 9, 40, 105
1, 9120, Note_on_c, 9, 46, 51
1, 9120, Note_on_c, 9, 57, 63
1, 9122, Note_on_c, 9, 57, 0
1, 9122, Note_on_c, 9, 46, 0
1, 9122, Note_on_c, 9, 40, 0
1, 9124, Note_on_c, 4, 46, 0
1, 9124, Note_on_c, 8, 46, 0
1, 9155, Note_on_c, 3, 64, 0
1, 9168, Note_on_c, 3, 62, 116
1, 9168, Note_on_c, 9, 46, 51
1, 9168, Note_on_c, 9, 51, 51
1, 9170, Note_on_c, 9, 51, 0
1, 9170, Note_on_c, 9, 46, 0
1, 9174, Pitch_bend_c, 3, 8192
1, 9175, Pitch_bend_c, 3, 8712
1, 9176, Pitch_bend_c, 3, 9102
1, 9177, Pitch_bend_c, 3, 9492
1, 9178, Pitch_bend_c, 3, 9882
1, 9179, Pitch_bend_c, 3, 10272
1, 9180, Pitch_bend_c, 3, 10662
1, 9181, Pitch_bend_c, 3, 11312
1, 9182, Pitch_bend_c, 3, 11832
1, 9183, Pitch_bend_c, 3, 12352
1, 9184, Pitch_bend_c, 3, 13002
1, 9185, Pitch_bend_c, 3, 13652
1, 9186, Pitch_bend_c, 3, 14432
1, 9187, Pitch_bend_c, 3, 15082
1, 9188, Pitch_bend_c, 3, 15992
1, 9189, Pitch_bend_c, 3, 16382
1, 9192, Note_on_c, 9, 40, 90
1, 9194, Note_on_c, 9, 40, 0
1, 9198, Note_on_c, 5, 79, 0
1, 9205, Note_on_c, 5, 76, 0
1, 9205, Note_on_c, 5, 84, 0
1, 9210, Note_on_c, 1, 36, 0
1, 9216, Note_on_c, 1, 38, 82
1, 9216, Note_on_c, 4, 50, 102
1, 9216, Note_on_c, 8, 50, 102
1, 9216, Note_on_c, 9, 35, 75
1, 9216, Note_on_c, 9, 46, 51
1, 9216, Note_on_c, 9, 49, 78
1, 9217, Note_on_c, 4, 55, 0
1, 9217, Note_on_c, 8, 55, 0
1, 9218, Note_on_c, 9, 35, 0
1, 9218, Note_on_c, 9, 46, 0
1, 9218, Note_on_c, 9, 49, 0
1, 9219, Note_on_c, 8, 60, 0
1, 9219, Note_on_c, 4, 60, 0
1, 9225, Pitch_bend_c, 3, 15602
1, 9226, Pitch_bend_c, 3, 14562
1, 9227, Pitch_bend_c, 3, 12872
1, 9228, Note_on_c, 8, 48, 0
1, 9228, Note_on_c, 4, 48, 0
1, 9228, Pitch_bend_c, 3, 10922
1, 9229, Pitch_bend_c, 3, 8192
1, 9231, Pitch_bend_c, 3, 8192
1, 9242, Note_on_c, 4, 50, 0
1, 9242, Note_on_c, 8, 50, 0
1, 9262, Control_c, 3, 1, 1
1, 9263, Control_c, 3, 1, 4
1, 9264, Control_c, 3, 1, 11
1, 9264, Note_on_c, 4, 50, 92
1, 9264, Note_on_c, 5, 81, 66
1, 9264, Note_on_c, 8, 50, 92
1, 9264, Note_on_c, 9, 35, 56
1, 9264, Note_on_c, 9, 46, 51
1, 9264, Note_on_c, 9, 51, 53
1, 9265, Control_c, 3, 1, 18
1, 9266, Note_on_c, 9, 51, 0
1, 9266, Note_on_c, 9, 46, 0
1, 9266, Note_on_c, 9, 35, 0
1, 9266, Control_c, 3, 1, 28
1, 9267, Control_c, 3, 1, 36
1, 9268, Control_c, 3, 1, 42
1, 9269, Control_c, 3, 1, 47
1, 9270, Control_c, 3, 1, 51
1, 9271, Control_c, 3, 1, 55
1, 9272, Control_c, 3, 1, 58
1, 9273, Control_c, 3, 1, 62
1, 9274, Control_c, 3, 1, 66
1, 9275, Control_c, 3, 1, 70
1, 9276, Control_c, 3, 1, 74
1, 9277, Control_c, 3, 1, 77
1, 9278, Control_c, 3, 1, 80
1, 9279, Control_c, 3, 1, 84
1, 9280, Note_on_c, 5, 81, 0
1, 9280, Control_c, 3, 1, 88
1, 9281, Control_c, 3, 1, 91
1, 9282, Control_c, 3, 1, 95
1, 9283, Control_c, 3, 1, 99
1, 9284, Control_c, 3, 1, 102
1, 9285, Control_c, 3, 1, 105
1, 9286, Control_c, 3, 1, 107
1, 9287, Control_c, 3, 1, 109
1, 9288, Control_c, 3, 1, 110
1, 9289, Note_on_c, 1, 38, 0
1, 9290, Control_c, 3, 1, 111
1, 9291, Control_c, 3, 1, 112
1, 9293, Control_c, 3, 1, 113
1, 9297, Control_c, 3, 1, 112
1, 9298, Control_c, 3, 1, 111
1, 9299, Control_c, 3, 1, 108
1, 9301, Control_c, 3, 1, 106
1, 9302, Control_c, 3, 1, 103
1, 9303, Control_c, 3, 1, 98
1, 9304, Control_c, 3, 1, 94
1, 9305, Control_c, 3, 1, 89
1, 9306, Control_c, 3, 1, 83
1, 9307, Control_c, 3, 1, 76
1, 9308, Control_c, 3, 1, 60
1, 9308, Control_c, 3, 1, 68
1, 9309, Note_on_c, 3, 62, 0
1, 9309, Control_c, 3, 1, 55
1, 9310, Control_c, 3, 1, 45
1, 9312, Note_on_c, 1, 38, 88
1, 9312, Control_c, 3, 1, 32
1, 9312, Note_on_c, 4, 55, 48
1, 9312, Note_on_c, 4, 57, 97
1, 9312, Note_on_c, 4, 62, 92
1, 9312, Note_on_c, 5, 84, 68
1, 9312, Note_on_c, 8, 55, 48
1, 9312, Note_on_c, 8, 62, 92
1, 9312, Note_on_c, 8, 57, 97
1, 9312, Note_on_c, 9, 40, 105
1, 9312, Note_on_c, 9, 46, 51
1, 9312, Note_on_c, 9, 51, 53
1, 9313, Control_c, 3, 1, 17
1, 9314, Note_on_c, 9, 51, 0
1, 9314, Note_on_c, 9, 46, 0
1, 9314, Note_on_c, 9, 40, 0
1, 9314, Control_c, 3, 1, 1
1, 9315, Note_on_c, 8, 55, 0
1, 9315, Note_on_c, 4, 55, 0
1, 9315, Control_c, 3, 1, 0
1, 9325, Note_on_c, 4, 50, 0
1, 9325, Note_on_c, 8, 50, 0
1, 9336, Note_on_c, 5, 83, 66
1, 9347, Note_on_c, 5, 84, 0
1, 9360, Note_on_c, 5, 81, 84
1, 9360, Note_on_c, 9, 46, 51
1, 9360, Note_on_c, 9, 51, 39
1, 9362, Note_on_c, 9, 51, 0
1, 9362, Note_on_c, 9, 46, 0
1, 9369, Note_on_c, 5, 83, 0
1, 9384, Note_on_c, 5, 79, 84
1, 9385, Note_on_c, 5, 81, 0
1, 9408, Note_on_c, 1, 36, 92
1, 9408, Note_on_c, 4, 48, 102
1, 9408, Note_on_c, 8, 48, 102
1, 9408, Note_on_c, 9, 35, 75
1, 9408, Note_on_c, 9, 46, 51
1, 9408, Note_on_c, 9, 51, 61
1, 9410, Note_on_c, 9, 51, 0
1, 9410, Note_on_c, 9, 35, 0
1, 9410, Note_on_c, 1, 38, 0
1, 9410, Note_on_c, 9, 46, 0
1, 9432, Note_on_c, 1, 36, 0
1, 9436, Note_on_c, 8, 48, 0
1, 9436, Note_on_c, 4, 48, 0
1, 9436, Note_on_c, 8, 57, 0
1, 9436, Note_on_c, 4, 57, 0
1, 9443, Note_on_c, 8, 62, 0
1, 9443, Note_on_c, 4, 62, 0
1, 9456, Note_on_c, 1, 36, 88
1, 9456, Note_on_c, 4, 48, 102
1, 9456, Note_on_c, 8, 48, 102
1, 9456, Note_on_c, 9, 35, 56
1, 9456, Note_on_c, 9, 46, 51
1, 9456, Note_on_c, 9, 51, 57
1, 9458, Note_on_c, 9, 51, 0
1, 9458, Note_on_c, 9, 35, 0
1, 9458, Note_on_c, 9, 46, 0
1, 9487, Note_on_c, 5, 79, 0
1, 9504, Note_on_c, 4, 55, 92
1, 9504, Note_on_c, 4, 62, 88
1, 9504, Note_on_c, 5, 79, 60
1, 9504, Note_on_c, 8, 55, 92
1, 9504, Note_on_c, 8, 62, 88
1, 9504, Note_on_c, 9, 40, 105
1, 9504, Note_on_c, 9, 46, 51
1, 9504, Note_on_c, 9, 51, 67
1, 9506, Note_on_c, 9, 51, 0
1, 9506, Note_on_c, 9, 46, 0
1, 9506, Note_on_c, 9, 40, 0
1, 9528, Note_on_c, 5, 81, 64
1, 9529, Note_on_c, 5, 79, 0
1, 9552, Note_on_c, 1, 38, 100
1, 9552, Note_on_c, 5, 79, 50
1, 9552, Note_on_c, 9, 46, 51
1, 9552, Note_on_c, 9, 51, 37
1, 9554, Note_on_c, 9, 51, 0
1, 9554, Note_on_c, 5, 81, 0
1, 9554, Note_on_c, 9, 46, 0
1, 9557, Note_on_c, 1, 36, 0
1, 9575, Note_on_c, 4, 48, 0
1, 9575, Note_on_c, 8, 48, 0
1, 9596, Note_on_c, 5, 79, 0
1, 9597, Note_on_c, 1, 38, 0
1, 9599, Note_on_c, 8, 62, 0
1, 9599, Note_on_c, 4, 55, 0
1, 9599, Note_on_c, 8, 55, 0
1, 9599, Note_on_c, 4, 62, 0
1, 9600, Note_on_c, 1, 43, 96
1, 9600, Note_on_c, 4, 47, 92
1, 9600, Note_on_c, 8, 47, 92
1, 9600, Note_on_c, 9, 35, 75
1, 9600, Note_on_c, 9, 46, 51
1, 9600, Note_on_c, 9, 51, 63
1, 9602, Note_on_c, 9, 51, 0
1, 9602, Note_on_c, 9, 35, 0
1, 9602, Note_on_c, 9, 46, 0
1, 9637, Note_on_c, 1, 43, 0
1, 9648, Note_on_c, 4, 55, 92
1, 9648, Note_on_c, 8, 55, 92
1, 9648, Note_on_c, 9, 35, 54
1, 9648, Note_on_c, 9, 46, 51
1, 9648, Note_on_c, 9, 51, 71
1, 9650, Note_on_c, 9, 51, 0
1, 9650, Note_on_c, 9, 35, 0
1, 9650, Note_on_c, 9, 46, 0
1, 9672, Note_on_c, 1, 43, 88
1, 9696, Note_on_c, 4, 62, 88
1, 9696, Note_on_c, 8, 62, 88
1, 9696, Note_on_c, 9, 40, 105
1, 9696, Note_on_c, 9, 46, 51
1, 9696, Note_on_c, 9, 51, 59
1, 9698, Note_on_c, 9, 51, 0
1, 9698, Note_on_c, 9, 46, 0
1, 9698, Note_on_c, 9, 40, 0
1, 9720, Note_on_c, 5, 77, 76
1, 9743, Note_on_c, 5, 77, 0
1, 9744, Note_on_c, 1, 38, 96
1, 9744, Note_on_c, 5, 79, 60
1, 9744, Note_on_c, 9, 46, 51
1, 9744, Note_on_c, 9, 49, 70
1, 9744, Note_on_c, 9, 51, 49
1, 9746, Note_on_c, 9, 51, 0
1, 9746, Note_on_c, 9, 46, 0
1, 9746, Note_on_c, 9, 49, 0
1, 9747, Note_on_c, 1, 43, 0
1, 9768, Note_on_c, 5, 77, 76
1, 9777, Note_on_c, 5, 79, 0
1, 9784, Note_on_c, 4, 55, 0
1, 9784, Note_on_c, 1, 38, 0
1, 9784, Note_on_c, 8, 55, 0
1, 9789, Note_on_c, 4, 47, 0
1, 9789, Note_on_c, 8, 47, 0
1, 9792, Note_on_c, 1, 34, 86
1, 9792, Note_on_c, 4, 46, 88
1, 9792, Note_on_c, 4, 53, 76
1, 9792, Note_on_c, 4, 58, 92
1, 9792, Note_on_c, 5, 82, 72
1, 9792, Note_on_c, 5, 74, 50
1, 9792, Note_on_c, 8, 58, 92
1, 9792, Note_on_c, 8, 53, 76
1, 9792, Note_on_c, 8, 46, 88
1, 9792, Note_on_c, 9, 35, 75
1, 9792, Note_on_c, 9, 46, 51
1, 9792, Note_on_c, 9, 51, 43
1, 9793, Note_on_c, 8, 62, 0
1, 9793, Note_on_c, 4, 62, 0
1, 9794, Note_on_c, 9, 35, 0
1, 9794, Note_on_c, 9, 51, 0
1, 9794, Note_on_c, 9, 46, 0
1, 9840, Note_on_c, 3, 77, 116
1, 9840, Note_on_c, 9, 35, 54
1, 9840, Note_on_c, 9, 46, 51
1, 9840, Note_on_c, 9, 51, 63
1, 9842, Note_on_c, 9, 51, 0
1, 9842, Note_on_c, 9, 46, 0
1, 9842, Note_on_c, 9, 35, 0
1, 9877, Note_on_c, 5, 74, 0
1, 9878, Note_on_c, 3, 77, 0
1, 9883, Note_on_c, 8, 58, 0
1, 9883, Note_on_c, 4, 58, 0
1, 9884, Note_on_c, 4, 53, 0
1, 9884, Note_on_c, 1, 34, 0
1, 9884, Note_on_c, 8, 53, 0
1, 9886, Note_on_c, 5, 82, 0
1, 9888, Note_on_c, 1, 33, 84
1, 9888, Note_on_c, 3, 76, 121
1, 9888, Note_on_c, 4, 48, 80
1, 9888, Note_on_c, 4, 55, 80
1, 9888, Note_on_c, 4, 60, 84
1, 9888, Note_on_c, 5, 76, 72
1, 9888, Note_on_c, 5, 79, 60
1, 9888, Note_on_c, 5, 84, 62
1, 9888, Note_on_c, 8, 60, 84
1, 9888, Note_on_c, 8, 55, 80
1, 9888, Note_on_c, 8, 48, 80
1, 9888, Note_on_c, 9, 40, 105
1, 9888, Note_on_c, 9, 46, 51
1, 9888, Note_on_c, 9, 57, 75
1, 9890, Note_on_c, 9, 57, 0
1, 9890, Note_on_c, 9, 46, 0
1, 9890, Note_on_c, 9, 40, 0
1, 9896, Note_on_c, 8, 46, 0
1, 9896, Note_on_c, 5, 77, 0
1, 9896, Note_on_c, 4, 46, 0
1, 9936, Note_on_c, 9, 45, 75
1, 9936, Note_on_c, 9, 46, 51
1, 9936, Note_on_c, 9, 51, 55
1, 9938, Note_on_c, 9, 51, 0
1, 9938, Note_on_c, 9, 46, 0
1, 9938, Note_on_c, 9, 45, 0
1, 9960, Note_on_c, 9, 43, 75
1, 9962, Note_on_c, 9, 43, 0
1, 9964, Note_on_c, 5, 76, 0
1, 9973, Note_on_c, 3, 76, 0
1, 9980, Note_on_c, 1, 33, 0
1, 9982, Note_on_c, 5, 84, 0
1, 9982, Note_on_c, 5, 79, 0
1, 9984, Note_on_c, 1, 38, 86
1, 9984, Note_on_c, 3, 74, 126
1, 9984, Note_on_c, 4, 50, 102
1, 9984, Note_on_c, 8, 50, 102
1, 9984, Note_on_c, 9, 35, 75
1, 9984, Note_on_c, 9, 46, 51
1, 9984, Note_on_c, 9, 51, 47
1, 9986, Note_on_c, 9, 51, 0
1, 9986, Note_on_c, 8, 60, 0
1, 9986, Note_on_c, 4, 60, 0
1, 9986, Note_on_c, 9, 46, 0
1, 9986, Note_on_c, 9, 35, 0
1, 9990, Pitch_bend_c, 3, 8322
1, 9991, Pitch_bend_c, 3, 8712
1, 9992, Note_on_c, 8, 55, 0
1, 9992, Note_on_c, 4, 55, 0
1, 9992, Pitch_bend_c, 3, 8972
1, 9993, Pitch_bend_c, 3, 9232
1, 9994, Pitch_bend_c, 3, 9492
1, 9995, Note_on_c, 4, 48, 0
1, 9995, Note_on_c, 8, 48, 0
1, 9995, Pitch_bend_c, 3, 9752
1, 9996, Pitch_bend_c, 3, 10012
1, 9997, Pitch_bend_c, 3, 10402
1, 9998, Pitch_bend_c, 3, 10792
1, 9999, Pitch_bend_c, 3, 11312
1, 10000, Pitch_bend_c, 3, 11832
1, 10001, Pitch_bend_c, 3, 12482
1, 10002, Pitch_bend_c, 3, 13132
1, 10003, Pitch_bend_c, 3, 14042
1, 10004, Pitch_bend_c, 3, 15082
1, 10005, Pitch_bend_c, 3, 16382
1, 10025, Pitch_bend_c, 3, 15732
1, 10026, Pitch_bend_c, 3, 14432
1, 10027, Pitch_bend_c, 3, 12222
1, 10028, Pitch_bend_c, 3, 8192
1, 10030, Pitch_bend_c, 3, 8064
1, 10031, Note_on_c, 1, 38, 0
1, 10032, Note_on_c, 1, 26, 104
1, 10032, Note_on_c, 4, 57, 88
1, 10032, Note_on_c, 5, 74, 66
1, 10032, Note_on_c, 8, 57, 88
1, 10032, Note_on_c, 9, 35, 64
1, 10032, Note_on_c, 9, 46, 51
1, 10032, Note_on_c, 9, 51, 47
1, 10034, Note_on_c, 9, 51, 0
1, 10034, Note_on_c, 9, 46, 0
1, 10034, Note_on_c, 9, 35, 0
1, 10063, Control_c, 3, 1, 3
1, 10064, Control_c, 3, 1, 6
1, 10065, Control_c, 3, 1, 11
1, 10066, Control_c, 3, 1, 16
1, 10067, Control_c, 3, 1, 21
1, 10068, Control_c, 3, 1, 26
1, 10069, Control_c, 3, 1, 30
1, 10070, Control_c, 3, 1, 34
1, 10071, Control_c, 3, 1, 37
1, 10072, Control_c, 3, 1, 41
1, 10073, Control_c, 3, 1, 44
1, 10074, Control_c, 3, 1, 47
1, 10075, Control_c, 3, 1, 49
1, 10076, Control_c, 3, 1, 53
1, 10077, Control_c, 3, 1, 56
1, 10078, Control_c, 3, 1, 60
1, 10079, Control_c, 3, 1, 64
1, 10080, Note_on_c, 4, 62, 102
1, 10080, Note_on_c, 5, 84, 72
1, 10080, Note_on_c, 8, 62, 102
1, 10080, Note_on_c, 9, 40, 105
1, 10080, Note_on_c, 9, 46, 51
1, 10080, Note_on_c, 9, 51, 67
1, 10081, Control_c, 3, 1, 68
1, 10082, Note_on_c, 9, 51, 0
1, 10082, Note_on_c, 9, 46, 0
1, 10082, Note_on_c, 9, 40, 0
1, 10082, Control_c, 3, 1, 72
1, 10083, Control_c, 3, 1, 75
1, 10084, Control_c, 3, 1, 78
1, 10085, Control_c, 3, 1, 80
1, 10086, Control_c, 3, 1, 83
1, 10087, Control_c, 3, 1, 85
1, 10088, Control_c, 3, 1, 86
1, 10089, Control_c, 3, 1, 88
1, 10090, Control_c, 3, 1, 89
1, 10091, Control_c, 3, 1, 91
1, 10092, Control_c, 3, 1, 92
1, 10093, Control_c, 3, 1, 94
1, 10094, Control_c, 3, 1, 96
1, 10095, Note_on_c, 1, 26, 0
1, 10095, Control_c, 3, 1, 98
1, 10096, Control_c, 3, 1, 100
1, 10097, Control_c, 3, 1, 103
1, 10098, Control_c, 3, 1, 105
1, 10099, Control_c, 3, 1, 106
1, 10100, Control_c, 3, 1, 107
1, 10102, Control_c, 3, 1, 108
1, 10103, Note_on_c, 5, 74, 0
1, 10104, Control_c, 3, 1, 109
1, 10104, Note_on_c, 5, 83, 68
1, 10112, Control_c, 3, 1, 108
1, 10113, Note_on_c, 5, 84, 0
1, 10113, Control_c, 3, 1, 107
1, 10114, Control_c, 3, 1, 106
1, 10115, Control_c, 3, 1, 105
1, 10116, Control_c, 3, 1, 104
1, 10117, Control_c, 3, 1, 101
1, 10118, Control_c, 3, 1, 99
1, 10119, Control_c, 3, 1, 96
1, 10120, Control_c, 3, 1, 93
1, 10121, Control_c, 3, 1, 89
1, 10122, Control_c, 3, 1, 86
1, 10123, Control_c, 3, 1, 81
1, 10124, Control_c, 3, 1, 77
1, 10125, Control_c, 3, 1, 71
1, 10126, Control_c, 3, 1, 66
1, 10127, Note_on_c, 3, 74, 0
1, 10127, Control_c, 3, 1, 60
1, 10128, Note_on_c, 1, 24, 108
1, 10128, Control_c, 3, 1, 47
1, 10128, Control_c, 3, 1, 54
1, 10128, Note_on_c, 5, 81, 84
1, 10128, Note_on_c, 9, 46, 51
1, 10128, Note_on_c, 9, 51, 26
1, 10130, Note_on_c, 9, 51, 0
1, 10130, Note_on_c, 9, 46, 0
1, 10130, Control_c, 3, 1, 41
1, 10131, Control_c, 3, 1, 35
1, 10132, Control_c, 3, 1, 30
1, 10133, Control_c, 3, 1, 24
1, 10134, Control_c, 3, 1, 17
1, 10135, Note_on_c, 5, 83, 0
1, 10135, Control_c, 3, 1, 11
1, 10136, Control_c, 3, 1, 2
1, 10137, Control_c, 3, 1, 0
1, 10149, Note_on_c, 5, 81, 0
1, 10152, Note_on_c, 5, 79, 72
1, 10152, Note_on_c, 9, 40, 90
1, 10154, Note_on_c, 9, 40, 0
1, 10172, Note_on_c, 4, 50, 0
1, 10172, Note_on_c, 8, 50, 0
1, 10176, Note_on_c, 4, 48, 102
1, 10176, Note_on_c, 8, 48, 102
1, 10176, Note_on_c, 9, 35, 75
1, 10176, Note_on_c, 9, 46, 51
1, 10176, Note_on_c, 9, 51, 53
1, 10178, Note_on_c, 9, 51, 0
1, 10178, Note_on_c, 9, 46, 0
1, 10178, Note_on_c, 9, 35, 0
1, 10188, Note_on_c, 1, 24, 0
1, 10203, Note_on_c, 4, 57, 0
1, 10203, Note_on_c, 8, 57, 0
1, 10222, Note_on_c, 4, 62, 0
1, 10222, Note_on_c, 8, 62, 0
1, 10224, Note_on_c, 1, 24, 86
1, 10224, Note_on_c, 3, 72, 116
1, 10224, Note_on_c, 4, 55, 92
1, 10224, Note_on_c, 8, 55, 92
1, 10224, Note_on_c, 9, 35, 59
1, 10224, Note_on_c, 9, 46, 51
1, 10224, Note_on_c, 9, 51, 45
1, 10226, Note_on_c, 9, 51, 0
1, 10226, Note_on_c, 9, 46, 0
1, 10226, Note_on_c, 9, 35, 0
1, 10272, Note_on_c, 3, 71, 111
1, 10272, Note_on_c, 4, 62, 97
1, 10272, Note_on_c, 8, 62, 97
1, 10272, Note_on_c, 9, 40, 105
1, 10272, Note_on_c, 9, 46, 51
1, 10272, Note_on_c, 9, 49, 74
1, 10274, Note_on_c, 9, 49, 0
1, 10274, Note_on_c, 9, 46, 0
1, 10274, Note_on_c, 9, 40, 0
1, 10275, Note_on_c, 3, 72, 0
1, 10279, Note_on_c, 1, 24, 0
1, 10320, Note_on_c, 1, 26, 104
1, 10320, Note_on_c, 3, 69, 102
1, 10320, Note_on_c, 9, 46, 51
1, 10320, Note_on_c, 9, 51, 41
1, 10322, Note_on_c, 9, 51, 0
1, 10322, Note_on_c, 3, 71, 0
1, 10322, Note_on_c, 9, 46, 0
1, 10344, Note_on_c, 5, 86, 66
1, 10347, Note_on_c, 5, 79, 0
1, 10362, Note_on_c, 3, 69, 0
1, 10363, Note_on_c, 5, 86, 0
1, 10368, Note_on_c, 1, 26, 0
1, 10368, Note_on_c, 1, 31, 104
1, 10368, Note_on_c, 3, 67, 106
1, 10368, Note_on_c, 4, 47, 92
1, 10368, Note_on_c, 5, 79, 52
1, 10368, Note_on_c, 5, 74, 46
1, 10368, Note_on_c, 8, 47, 92
1, 10368, Note_on_c, 9, 35, 75
1, 10368, Note_on_c, 9, 46, 51
1, 10368, Note_on_c, 9, 49, 42
1, 10370, Note_on_c, 9, 49, 0
1, 10370, Note_on_c, 9, 46, 0
1, 10370, Note_on_c, 9, 35, 0
1, 10374, Control_c, 3, 1, 2
1, 10375, Control_c, 3, 1, 4
1, 10376, Control_c, 3, 1, 7
1, 10377, Control_c, 3, 1, 11
1, 10378, Note_on_c, 4, 48, 0
1, 10378, Note_on_c, 8, 48, 0
1, 10378, Control_c, 3, 1, 14
1, 10379, Control_c, 3, 1, 18
1, 10380, Control_c, 3, 1, 21
1, 10381, Control_c, 3, 1, 27
1, 10381, Control_c, 3, 1, 24
1, 10384, Control_c, 3, 1, 29
1, 10385, Control_c, 3, 1, 31
1, 10386, Note_on_c, 8, 55, 0
1, 10386, Note_on_c, 4, 55, 0
1, 10386, Control_c, 3, 1, 33
1, 10387, Control_c, 3, 1, 35
1, 10388, Control_c, 3, 1, 36
1, 10389, Control_c, 3, 1, 37
1, 10390, Control_c, 3, 1, 39
1, 10391, Control_c, 3, 1, 40
1, 10392, Control_c, 3, 1, 42
1, 10393, Control_c, 3, 1, 44
1, 10394, Control_c, 3, 1, 45
1, 10395, Control_c, 3, 1, 47
1, 10396, Control_c, 3, 1, 48
1, 10397, Control_c, 3, 1, 49
1, 10398, Control_c, 3, 1, 50
1, 10399, Control_c, 3, 1, 51
1, 10401, Control_c, 3, 1, 53
1, 10403, Control_c, 3, 1, 54
1, 10405, Control_c, 3, 1, 55
1, 10407, Control_c, 3, 1, 56
1, 10410, Control_c, 3, 1, 57
1, 10412, Control_c, 3, 1, 58
1, 10413, Control_c, 3, 1, 59
1, 10414, Control_c, 3, 1, 60
1, 10416, Note_on_c, 4, 55, 80
1, 10416, Note_on_c, 8, 55, 80
1, 10416, Note_on_c, 9, 35, 61
1, 10416, Note_on_c, 9, 46, 51
1, 10416, Note_on_c, 9, 51, 26
1, 10417, Control_c, 3, 1, 61
1, 10418, Note_on_c, 9, 51, 0
1, 10418, Note_on_c, 9, 46, 0
1, 10418, Note_on_c, 9, 35, 0
1, 10419, Note_on_c, 8, 62, 0
1, 10419, Note_on_c, 4, 62, 0
1, 10420, Control_c, 3, 1, 62
1, 10434, Control_c, 3, 1, 60
1, 10436, Control_c, 3, 1, 59
1, 10437, Control_c, 3, 1, 58
1, 10438, Control_c, 3, 1, 56
1, 10439, Control_c, 3, 1, 54
1, 10440, Control_c, 3, 1, 51
1, 10441, Control_c, 3, 1, 48
1, 10442, Control_c, 3, 1, 45
1, 10443, Control_c, 3, 1, 42
1, 10444, Control_c, 3, 1, 39
1, 10445, Control_c, 3, 1, 36
1, 10446, Control_c, 3, 1, 32
1, 10447, Control_c, 3, 1, 28
1, 10449, Note_on_c, 3, 67, 0
1, 10449, Control_c, 3, 1, 23
1, 10450, Control_c, 3, 1, 19
1, 10451, Control_c, 3, 1, 14
1, 10452, Control_c, 3, 1, 5
1, 10452, Control_c, 3, 1, 10
1, 10453, Control_c, 3, 1, 2
1, 10454, Control_c, 3, 1, 0
1, 10464, Note_on_c, 4, 62, 102
1, 10464, Note_on_c, 5, 71, 50
1, 10464, Note_on_c, 8, 62, 102
1, 10464, Note_on_c, 9, 40, 105
1, 10464, Note_on_c, 9, 46, 51
1, 10464, Note_on_c, 9, 57, 75
1, 10466, Note_on_c, 9, 57, 0
1, 10466, Note_on_c, 9, 46, 0
1, 10466, Note_on_c, 9, 40, 0
1, 10471, Note_on_c, 1, 31, 0
1, 10512, Note_on_c, 1, 31, 82
1, 10512, Note_on_c, 9, 46, 51
1, 10512, Note_on_c, 9, 51, 49
1, 10514, Note_on_c, 9, 51, 0
1, 10514, Note_on_c, 9, 46, 0
1, 10523, Note_on_c, 5, 71, 0
1, 10536, Note_on_c, 1, 33, 86
1, 10540, Note_on_c, 1, 31, 0
1, 10554, Note_on_c, 8, 55, 0
1, 10554, Note_on_c, 4, 55, 0
1, 10555, Note_on_c, 5, 74, 0
1, 10555, Note_on_c, 5, 79, 0
1, 10556, Note_on_c, 8, 47, 0
1, 10556, Note_on_c, 4, 47, 0
1, 10560, Note_on_c, 1, 34, 92
1, 10560, Note_on_c, 4, 46, 88
1, 10560, Note_on_c, 4, 53, 66
1, 10560, Note_on_c, 4, 55, 66
1, 10560, Note_on_c, 4, 58, 97
1, 10560, Note_on_c, 5, 77, 68
1, 10560, Note_on_c, 5, 70, 72
1, 10560, Note_on_c, 5, 74, 60
1, 10560, Note_on_c, 8, 53, 66
1, 10560, Note_on_c, 8, 58, 97
1, 10560, Note_on_c, 8, 55, 66
1, 10560, Note_on_c, 8, 46, 88
1, 10560, Note_on_c, 9, 35, 75
1, 10560, Note_on_c, 9, 46, 51
1, 10560, Note_on_c, 9, 51, 53
1, 10562, Note_on_c, 9, 51, 0
1, 10562, Note_on_c, 9, 46, 0
1, 10562, Note_on_c, 9, 35, 0
1, 10563, Note_on_c, 1, 33, 0
1, 10566, Note_on_c, 8, 62, 0
1, 10566, Note_on_c, 4, 62, 0
1, 10566, Note_on_c, 8, 55, 0
1, 10566, Note_on_c, 4, 55, 0
1, 10608, Note_on_c, 3, 65, 121
1, 10608, Note_on_c, 9, 35, 61
1, 10608, Note_on_c, 9, 46, 51
1, 10608, Note_on_c, 9, 51, 55
1, 10610, Note_on_c, 9, 51, 0
1, 10610, Note_on_c, 9, 46, 0
1, 10610, Note_on_c, 9, 35, 0
1, 10625, Note_on_c, 5, 74, 0
1, 10628, Note_on_c, 5, 70, 0
1, 10648, Note_on_c, 4, 58, 0
1, 10648, Note_on_c, 8, 58, 0
1, 10652, Note_on_c, 5, 77, 0
1, 10653, Note_on_c, 1, 34, 0
1, 10656, Note_on_c, 1, 36, 88
1, 10656, Note_on_c, 4, 48, 97
1, 10656, Note_on_c, 4, 55, 92
1, 10656, Note_on_c, 4, 60, 92
1, 10656, Note_on_c, 5, 79, 60
1, 10656, Note_on_c, 5, 76, 64
1, 10656, Note_on_c, 5, 72, 64
1, 10656, Note_on_c, 8, 60, 92
1, 10656, Note_on_c, 8, 48, 97
1, 10656, Note_on_c, 8, 55, 92
1, 10656, Note_on_c, 9, 40, 105
1, 10656, Note_on_c, 9, 46, 51
1, 10656, Note_on_c, 9, 51, 59
1, 10658, Note_on_c, 9, 51, 0
1, 10658, Note_on_c, 9, 46, 0
1, 10658, Note_on_c, 9, 40, 0
1, 10658, Note_on_c, 8, 53, 0
1, 10658, Note_on_c, 4, 53, 0
1, 10667, Note_on_c, 4, 46, 0
1, 10667, Note_on_c, 8, 46, 0
1, 10671, Note_on_c, 3, 65, 0
1, 10680, Note_on_c, 3, 64, 121
1, 10704, Note_on_c, 1, 36, 0
1, 10704, Note_on_c, 1, 43, 76
1, 10704, Note_on_c, 9, 46, 51
1, 10704, Note_on_c, 9, 51, 32
1, 10706, Note_on_c, 9, 51, 0
1, 10706, Note_on_c, 9, 46, 0
1, 10728, Note_on_c, 9, 40, 90
1, 10730, Note_on_c, 9, 40, 0
1, 10737, Note_on_c, 5, 76, 0
1, 10738, Note_on_c, 5, 72, 0
1, 10739, Note_on_c, 5, 79, 0
1, 10742, Note_on_c, 3, 64, 0
1, 10746, Note_on_c, 1, 43, 0
1, 10752, Note_on_c, 1, 38, 82
1, 10752, Note_on_c, 3, 62, 116
1, 10752, Note_on_c, 4, 50, 107
1, 10752, Note_on_c, 8, 50, 107
1, 10752, Note_on_c, 9, 35, 75
1, 10752, Note_on_c, 9, 46, 51
1, 10752, Note_on_c, 9, 51, 61
1, 10754, Note_on_c, 9, 51, 0
1, 10754, Note_on_c, 9, 46, 0
1, 10754, Note_on_c, 9, 35, 0
1, 10756, Pitch_bend_c, 3, 8322
1, 10757, Pitch_bend_c, 3, 8972
1, 10758, Note_on_c, 8, 48, 0
1, 10758, Note_on_c, 8, 60, 0
1, 10758, Note_on_c, 4, 60, 0
1, 10758, Note_on_c, 4, 48, 0
1, 10758, Pitch_bend_c, 3, 9492
1, 10759, Pitch_bend_c, 3, 10012
1, 10760, Pitch_bend_c, 3, 10532
1, 10761, Pitch_bend_c, 3, 11312
1, 10762, Pitch_bend_c, 3, 11962
1, 10763, Pitch_bend_c, 3, 12742
1, 10764, Pitch_bend_c, 3, 13522
1, 10765, Pitch_bend_c, 3, 14302
1, 10766, Pitch_bend_c, 3, 15212
1, 10767, Pitch_bend_c, 3, 16382
1, 10777, Note_on_c, 8, 55, 0
1, 10777, Note_on_c, 4, 55, 0
1, 10800, Note_on_c, 4, 57, 80
1, 10800, Note_on_c, 8, 57, 80
1, 10800, Note_on_c, 9, 35, 56
1, 10800, Note_on_c, 9, 46, 51
1, 10800, Note_on_c, 9, 51, 51
1, 10802, Note_on_c, 9, 51, 0
1, 10802, Note_on_c, 9, 46, 0
1, 10802, Note_on_c, 9, 35, 0
1, 10811, Note_on_c, 1, 38, 0
1, 10812, Pitch_bend_c, 3, 15212
1, 10813, Pitch_bend_c, 3, 13132
1, 10814, Pitch_bend_c, 3, 8582
1, 10815, Pitch_bend_c, 3, 8192
1, 10816, Pitch_bend_c, 3, 8064
1, 10817, Pitch_bend_c, 3, 7936
1, 10818, Pitch_bend_c, 3, 8192
1, 10848, Note_on_c, 1, 38, 92
1, 10848, Note_on_c, 4, 62, 92
1, 10848, Note_on_c, 5, 84, 72
1, 10848, Note_on_c, 8, 62, 92
1, 10848, Note_on_c, 9, 40, 105
1, 10848, Note_on_c, 9, 46, 51
1, 10848, Note_on_c, 9, 51, 59
1, 10850, Note_on_c, 9, 51, 0
1, 10850, Note_on_c, 9, 40, 0
1, 10850, Note_on_c, 9, 46, 0
1, 10859, Control_c, 3, 1, 1
1, 10860, Control_c, 3, 1, 2
1, 10861, Control_c, 3, 1, 4
1, 10862, Control_c, 3, 1, 7
1, 10863, Control_c, 3, 1, 10
1, 10864, Control_c, 3, 1, 14
1, 10865, Control_c, 3, 1, 18
1, 10866, Control_c, 3, 1, 21
1, 10867, Control_c, 3, 1, 25
1, 10868, Control_c, 3, 1, 28
1, 10869, Control_c, 3, 1, 31
1, 10870, Control_c, 3, 1, 33
1, 10871, Control_c, 3, 1, 35
1, 10872, Control_c, 3, 1, 36
1, 10872, Note_on_c, 5, 83, 66
1, 10873, Control_c, 3, 1, 38
1, 10874, Control_c, 3, 1, 40
1, 10875, Control_c, 3, 1, 41
1, 10876, Control_c, 3, 1, 42
1, 10877, Note_on_c, 5, 84, 0
1, 10877, Control_c, 3, 1, 44
1, 10878, Control_c, 3, 1, 46
1, 10879, Control_c, 3, 1, 47
1, 10880, Control_c, 3, 1, 49
1, 10881, Control_c, 3, 1, 51
1, 10882, Control_c, 3, 1, 53
1, 10883, Control_c, 3, 1, 56
1, 10884, Control_c, 3, 1, 58
1, 10885, Control_c, 3, 1, 61
1, 10886, Control_c, 3, 1, 64
1, 10887, Control_c, 3, 1, 66
1, 10888, Control_c, 3, 1, 68
1, 10889, Control_c, 3, 1, 70
1, 10890, Control_c, 3, 1, 72
1, 10891, Control_c, 3, 1, 73
1, 10892, Control_c, 3, 1, 74
1, 10893, Control_c, 3, 1, 75
1, 10894, Note_on_c, 1, 38, 0
1, 10894, Control_c, 3, 1, 76
1, 10896, Control_c, 3, 1, 77
1, 10896, Note_on_c, 5, 81, 76
1, 10896, Note_on_c, 9, 46, 51
1, 10896, Note_on_c, 9, 51, 55
1, 10897, Control_c, 3, 1, 78
1, 10898, Note_on_c, 9, 51, 0
1, 10898, Note_on_c, 9, 46, 0
1, 10899, Control_c, 3, 1, 79
1, 10901, Control_c, 3, 1, 80
1, 10908, Note_on_c, 5, 83, 0
1, 10911, Control_c, 3, 1, 79
1, 10912, Control_c, 3, 1, 78
1, 10913, Control_c, 3, 1, 77
1, 10914, Control_c, 3, 1, 75
1, 10915, Control_c, 3, 1, 74
1, 10916, Control_c, 3, 1, 71
1, 10917, Control_c, 3, 1, 69
1, 10918, Control_c, 3, 1, 65
1, 10919, Control_c, 3, 1, 61
1, 10920, Note_on_c, 1, 38, 84
1, 10920, Control_c, 3, 1, 58
1, 10920, Note_on_c, 5, 79, 56
1, 10920, Note_on_c, 9, 40, 90
1, 10921, Control_c, 3, 1, 54
1, 10922, Note_on_c, 9, 40, 0
1, 10922, Control_c, 3, 1, 50
1, 10923, Note_on_c, 3, 62, 0
1, 10923, Control_c, 3, 1, 46
1, 10924, Control_c, 3, 1, 41
1, 10925, Control_c, 3, 1, 36
1, 10926, Note_on_c, 5, 81, 0
1, 10926, Control_c, 3, 1, 30
1, 10927, Control_c, 3, 1, 24
1, 10928, Control_c, 3, 1, 18
1, 10929, Control_c, 3, 1, 9
1, 10930, Control_c, 3, 1, 1
1, 10932, Control_c, 3, 1, 0
1, 10935, Note_on_c, 1, 38, 0
1, 10943, Note_on_c, 8, 50, 0
1, 10943, Note_on_c, 4, 50, 0
1, 10944, Note_on_c, 1, 41, 84
1, 10944, Note_on_c, 4, 48, 88
1, 10944, Note_on_c, 5, 74, 44
1, 10944, Note_on_c, 8, 48, 88
1, 10944, Note_on_c, 9, 35, 75
1, 10944, Note_on_c, 9, 46, 51
1, 10944, Note_on_c, 9, 51, 53
1, 10946, Note_on_c, 9, 51, 0
1, 10946, Note_on_c, 9, 35, 0
1, 10946, Note_on_c, 9, 46, 0
1, 10972, Note_on_c, 4, 57, 0
1, 10972, Note_on_c, 8, 57, 0
1, 10992, Note_on_c, 1, 48, 92
1, 10992, Note_on_c, 4, 55, 92
1, 10992, Note_on_c, 8, 55, 92
1, 10992, Note_on_c, 9, 35, 56
1, 10992, Note_on_c, 9, 46, 51
1, 10992, Note_on_c, 9, 51, 55
1, 10993, Note_on_c, 8, 62, 0
1, 10993, Note_on_c, 4, 62, 0
1, 10994, Note_on_c, 9, 35, 0
1, 10994, Note_on_c, 9, 51, 0
1, 10994, Note_on_c, 9, 46, 0
1, 10996, Note_on_c, 1, 41, 0
1, 11040, Note_on_c, 1, 53, 108
1, 11040, Note_on_c, 4, 62, 97
1, 11040, Note_on_c, 8, 62, 97
1, 11040, Note_on_c, 9, 40, 105
1, 11040, Note_on_c, 9, 46, 51
1, 11040, Note_on_c, 9, 49, 82
1, 11041, Note_on_c, 1, 48, 0
1, 11042, Note_on_c, 9, 40, 0
1, 11042, Note_on_c, 9, 49, 0
1, 11042, Note_on_c, 9, 46, 0
1, 11088, Note_on_c, 9, 46, 51
1, 11088, Note_on_c, 9, 57, 49
1, 11090, Note_on_c, 9, 57, 0
1, 11090, Note_on_c, 9, 46, 0
1, 11108, Note_on_c, 5, 79, 0
1, 11126, Note_on_c, 5, 74, 0
1, 11135, Note_on_c, 1, 53, 0
1, 11136, Note_on_c, 1, 50, 100
1, 11136, Note_on_c, 4, 47, 88
1, 11136, Note_on_c, 8, 47, 88
1, 11136, Note_on_c, 9, 35, 75
1, 11136, Note_on_c, 9, 46, 51
1, 11136, Note_on_c, 9, 51, 28
1, 11138, Note_on_c, 9, 51, 0
1, 11138, Note_on_c, 9, 35, 0
1, 11138, Note_on_c, 9, 46, 0
1, 11140, Note_on_c, 4, 48, 0
1, 11140, Note_on_c, 8, 48, 0
1, 11156, Note_on_c, 8, 55, 0
1, 11156, Note_on_c, 4, 55, 0
1, 11168, Note_on_c, 1, 50, 0
1, 11181, Note_on_c, 8, 62, 0
1, 11181, Note_on_c, 4, 62, 0
1, 11184, Note_on_c, 1, 50, 88
1, 11184, Note_on_c, 4, 55, 80
1, 11184, Note_on_c, 5, 83, 92
1, 11184, Note_on_c, 8, 55, 80
1, 11184, Note_on_c, 9, 35, 54
1, 11184, Note_on_c, 9, 46, 51
1, 11184, Note_on_c, 9, 51, 55
1, 11186, Note_on_c, 9, 51, 0
1, 11186, Note_on_c, 9, 46, 0
1, 11186, Note_on_c, 9, 35, 0
1, 11208, Note_on_c, 5, 84, 72
1, 11212, Note_on_c, 5, 83, 0
1, 11221, Note_on_c, 5, 84, 0
1, 11232, Note_on_c, 1, 47, 92
1, 11232, Note_on_c, 4, 62, 92
1, 11232, Note_on_c, 5, 86, 84
1, 11232, Note_on_c, 8, 62, 92
1, 11232, Note_on_c, 9, 40, 105
1, 11232, Note_on_c, 9, 46, 51
1, 11232, Note_on_c, 9, 51, 32
1, 11233, Note_on_c, 1, 50, 0
1, 11234, Note_on_c, 9, 46, 0
1, 11234, Note_on_c, 9, 40, 0
1, 11234, Note_on_c, 9, 51, 0
1, 11279, Note_on_c, 1, 47, 0
1, 11280, Note_on_c, 1, 43, 84
1, 11280, Note_on_c, 9, 35, 75
1, 11280, Note_on_c, 9, 46, 51
1, 11280, Note_on_c, 9, 51, 47
1, 11282, Note_on_c, 9, 51, 0
1, 11282, Note_on_c, 9, 46, 0
1, 11282, Note_on_c, 9, 35, 0
1, 11328, Note_on_c, 1, 34, 86
1, 11328, Note_on_c, 4, 53, 76
1, 11328, Note_on_c, 4, 58, 92
1, 11328, Note_on_c, 8, 53, 76
1, 11328, Note_on_c, 8, 58, 92
1, 11328, Note_on_c, 9, 40, 105
1, 11328, Note_on_c, 9, 46, 51
1, 11328, Note_on_c, 9, 51, 26
1, 11330, Note_on_c, 9, 51, 0
1, 11330, Note_on_c, 9, 46, 0
1, 11330, Note_on_c, 9, 40, 0
1, 11331, Note_on_c, 1, 43, 0
1, 11332, Note_on_c, 8, 55, 0
1, 11332, Note_on_c, 4, 55, 0
1, 11343, Note_on_c, 4, 47, 0
1, 11343, Note_on_c, 8, 47, 0
1, 11344, Note_on_c, 9, 40, 90
1, 11346, Note_on_c, 9, 40, 0
1, 11360, Note_on_c, 1, 34, 0
1, 11360, Note_on_c, 9, 40, 95
1, 11362, Note_on_c, 9, 40, 0
1, 11376, Note_on_c, 1, 34, 86
1, 11376, Note_on_c, 9, 40, 108
1, 11376, Note_on_c, 9, 46, 51
1, 11378, Note_on_c, 9, 46, 0
1, 11378, Note_on_c, 9, 40, 0
1, 11392, Note_on_c, 9, 40, 90
1, 11394, Note_on_c, 9, 40, 0
1, 11404, Note_on_c, 1, 34, 0
1, 11408, Note_on_c, 9, 40, 95
1, 11410, Note_on_c, 9, 40, 0
1, 11424, Note_on_c, 1, 34, 72
1, 11424, Note_on_c, 9, 40, 105
1, 11424, Note_on_c, 9, 46, 51
1, 11426, Note_on_c, 9, 46, 0
1, 11426, Note_on_c, 9, 40, 0
1, 11440, Note_on_c, 9, 48, 67
1, 11442, Note_on_c, 9, 48, 0
1, 11454, Note_on_c, 1, 34, 0
1, 11456, Note_on_c, 9, 47, 65
1, 11458, Note_on_c, 9, 47, 0
1, 11472, Note_on_c, 1, 34, 84
1, 11472, Note_on_c, 3, 76, 99
1, 11472, Note_on_c, 9, 45, 83
1, 11472, Note_on_c, 9, 46, 51
1, 11474, Note_on_c, 9, 46, 0
1, 11474, Note_on_c, 9, 45, 0
1, 11488, Note_on_c, 9, 43, 54
1, 11490, Note_on_c, 9, 43, 0
1, 11499, Note_on_c, 4, 53, 0
1, 11499, Note_on_c, 8, 53, 0
1, 11504, Note_on_c, 9, 41, 50
1, 11506, Note_on_c, 9, 41, 0
1, 11520, Note_on_c, 1, 36, 76
1, 11520, Note_on_c, 4, 55, 68
1, 11520, Note_on_c, 4, 60, 68
1, 11520, Note_on_c, 4, 64, 66
1, 11520, Note_on_c, 5, 79, 35
1, 11520, Note_on_c, 5, 84, 54
1, 11520, Note_on_c, 5, 88, 58
1, 11520, Note_on_c, 9, 49, 80
1, 11520, Note_on_c, 9, 35, 75
1, 11522, Note_on_c, 9, 35, 0
1, 11522, Note_on_c, 9, 49, 0
1, 11529, Note_on_c, 8, 58, 0
1, 11529, Note_on_c, 8, 62, 0
1, 11529, Note_on_c, 4, 58, 0
1, 11529, Note_on_c, 4, 62, 0
1, 11530, Note_on_c, 1, 34, 0
1, 11531, Note_on_c, 5, 86, 0
1, 11553, Note_on_c, 3, 76, 0
1, 11559, Control_c, 4, 11, 119
1, 11561, Control_c, 4, 11, 104
1, 11565, Control_c, 4, 11, 99
1, 11568, Note_on_c, 3, 76, 111
1, 11568, Note_on_c, 9, 35, 56
1, 11570, Note_on_c, 9, 35, 0
1, 11570, Control_c, 4, 11, 108
1, 11574, Control_c, 4, 11, 124
1, 11578, Control_c, 4, 11, 127
1, 11593, Control_c, 4, 11, 117
1, 11597, Control_c, 4, 11, 112
1, 11603, Control_c, 4, 11, 116
1, 11605, Control_c, 4, 11, 127
1, 11614, Control_c, 3, 1, 1
1, 11615, Control_c, 3, 1, 3
1, 11616, Control_c, 3, 1, 4
1, 11616, Note_on_c, 9, 40, 105
1, 11616, Note_on_c, 9, 51, 57
1, 11617, Control_c, 3, 1, 6
1, 11618, Note_on_c, 9, 51, 0
1, 11618, Note_on_c, 9, 40, 0
1, 11618, Control_c, 3, 1, 8
1, 11619, Control_c, 3, 1, 10
1, 11620, Control_c, 3, 1, 12
1, 11621, Control_c, 3, 1, 15
1, 11622, Control_c, 3, 1, 17
1, 11623, Control_c, 3, 1, 20
1, 11624, Control_c, 3, 1, 22
1, 11625, Control_c, 3, 1, 24
1, 11626, Control_c, 3, 1, 26
1, 11627, Control_c, 3, 1, 27
1, 11628, Control_c, 3, 1, 29
1, 11629, Control_c, 3, 1, 30
1, 11629, Control_c, 4, 11, 121
1, 11631, Control_c, 3, 1, 32
1, 11632, Control_c, 3, 1, 33
1, 11632, Control_c, 4, 11, 119
1, 11633, Control_c, 3, 1, 34
1, 11634, Control_c, 3, 1, 35
1, 11636, Control_c, 3, 1, 36
1, 11637, Control_c, 3, 1, 38
1, 11637, Control_c, 4, 11, 126
1, 11638, Control_c, 3, 1, 39
1, 11639, Control_c, 3, 1, 40
1, 11642, Control_c, 4, 11, 127
1, 11648, Control_c, 4, 11, 123
1, 11651, Control_c, 4, 11, 113
1, 11652, Control_c, 3, 1, 41
1, 11655, Control_c, 4, 11, 112
1, 11657, Control_c, 3, 1, 42
1, 11660, Control_c, 3, 1, 43
1, 11660, Control_c, 4, 11, 123
1, 11664, Note_on_c, 1, 52, 84
1, 11664, Control_c, 4, 11, 127
1, 11664, Note_on_c, 9, 35, 75
1, 11664, Note_on_c, 9, 51, 47
1, 11665, Control_c, 3, 1, 44
1, 11666, Note_on_c, 9, 51, 0
1, 11666, Note_on_c, 9, 35, 0
1, 11670, Control_c, 3, 1, 45
1, 11678, Control_c, 4, 11, 117
1, 11682, Control_c, 3, 1, 46
1, 11682, Control_c, 4, 11, 114
1, 11686, Control_c, 3, 1, 47
1, 11688, Control_c, 4, 11, 119
1, 11688, Note_on_c, 9, 51, 26
1, 11690, Note_on_c, 9, 51, 0
1, 11691, Control_c, 3, 1, 48
1, 11691, Control_c, 4, 11, 123
1, 11698, Control_c, 4, 11, 120
1, 11700, Control_c, 4, 11, 116
1, 11706, Control_c, 4, 11, 122
1, 11709, Control_c, 4, 11, 127
1, 11712, Note_on_c, 9, 51, 43
1, 11714, Note_on_c, 9, 51, 0
1, 11718, Control_c, 3, 1, 47
1, 11721, Control_c, 3, 1, 46
1, 11724, Control_c, 3, 1, 45
1, 11726, Control_c, 3, 1, 44
1, 11727, Control_c, 3, 1, 43
1, 11727, Control_c, 4, 11, 114
1, 11728, Control_c, 3, 1, 41
1, 11729, Control_c, 3, 1, 40
1, 11730, Control_c, 3, 1, 38
1, 11731, Control_c, 3, 1, 36
1, 11731, Control_c, 4, 11, 88
1, 11732, Control_c, 3, 1, 33
1, 11733, Control_c, 3, 1, 30
1, 11734, Control_c, 3, 1, 27
1, 11735, Control_c, 3, 1, 24
1, 11736, Control_c, 3, 1, 20
1, 11737, Control_c, 3, 1, 16
1, 11737, Control_c, 4, 11, 84
1, 11738, Control_c, 3, 1, 12
1, 11739, Control_c, 3, 1, 9
1, 11740, Control_c, 3, 1, 5
1, 11741, Control_c, 3, 1, 1
1, 11741, Control_c, 4, 11, 101
1, 11742, Control_c, 3, 1, 0
1, 11745, Control_c, 4, 11, 127
1, 11749, Note_on_c, 3, 76, 0
1, 11756, Note_on_c, 1, 52, 0
1, 11760, Note_on_c, 1, 53, 96
1, 11760, Note_on_c, 3, 77, 102
1, 11760, Note_on_c, 9, 35, 50
1, 11760, Note_on_c, 9, 51, 45
1, 11762, Note_on_c, 9, 51, 0
1, 11762, Note_on_c, 9, 35, 0
1, 11763, Control_c, 4, 11, 102
1, 11768, Control_c, 4, 11, 92
1, 11774, Control_c, 4, 11, 102
1, 11777, Control_c, 4, 11, 127
1, 11784, Note_on_c, 9, 51, 32
1, 11786, Note_on_c, 9, 51, 0
1, 11796, Control_c, 4, 11, 107
1, 11799, Control_c, 4, 11, 78
1, 11803, Control_c, 4, 11, 84
1, 11808, Control_c, 4, 11, 111
1, 11808, Note_on_c, 9, 40, 105
1, 11808, Note_on_c, 9, 51, 61
1, 11810, Note_on_c, 9, 51, 0
1, 11810, Note_on_c, 9, 40, 0
1, 11813, Control_c, 4, 11, 127
1, 11827, Control_c, 4, 11, 112
1, 11829, Note_on_c, 3, 77, 0
1, 11831, Control_c, 4, 11, 88
1, 11832, Note_on_c, 1, 52, 84
1, 11832, Note_on_c, 3, 79, 86
1, 11835, Control_c, 4, 11, 67
1, 11840, Control_c, 4, 11, 89
1, 11844, Control_c, 4, 11, 127
1, 11845, Note_on_c, 1, 53, 0
1, 11856, Note_on_c, 9, 51, 59
1, 11858, Note_on_c, 9, 51, 0
1, 11866, Control_c, 4, 11, 126
1, 11870, Control_c, 4, 11, 127
1, 11880, Note_on_c, 9, 35, 44
1, 11882, Note_on_c, 9, 35, 0
1, 11897, Note_on_c, 1, 36, 0
1, 11904, Note_on_c, 4, 64, 0
1, 11904, Note_on_c, 5, 84, 0
1, 11904, Note_on_c, 1, 50, 86
1, 11904, Note_on_c, 3, 74, 98
1, 11904, Note_on_c, 4, 59, 72
1, 11904, Note_on_c, 4, 62, 64
1, 11904, Note_on_c, 5, 83, 46
1, 11904, Note_on_c, 5, 86, 50
1, 11904, Note_on_c, 9, 35, 75
1, 11904, Note_on_c, 9, 51, 79
1, 11906, Note_on_c, 9, 51, 0
1, 11906, Note_on_c, 9, 35, 0
1, 11906, Note_on_c, 4, 60, 0
1, 11909, Note_on_c, 5, 88, 0
1, 11910, Note_on_c, 3, 79, 0
1, 11915, Control_c, 4, 11, 124
1, 11916, Note_on_c, 1, 52, 0
1, 11916, Control_c, 4, 11, 102
1, 11921, Control_c, 4, 11, 78
1, 11925, Control_c, 4, 11, 67
1, 11930, Control_c, 4, 11, 84
1, 11934, Control_c, 4, 11, 123
1, 11939, Control_c, 4, 11, 127
1, 11952, Note_on_c, 9, 35, 44
1, 11952, Note_on_c, 9, 51, 57
1, 11954, Note_on_c, 9, 51, 0
1, 11954, Note_on_c, 9, 35, 0
1, 11955, Control_c, 4, 11, 116
1, 11956, Control_c, 3, 1, 1
1, 11957, Control_c, 3, 1, 2
1, 11957, Control_c, 4, 11, 87
1, 11958, Control_c, 3, 1, 3
1, 11960, Control_c, 3, 1, 4
1, 11961, Control_c, 3, 1, 6
1, 11961, Control_c, 4, 11, 81
1, 11963, Control_c, 3, 1, 7
1, 11964, Control_c, 3, 1, 9
1, 11965, Control_c, 3, 1, 10
1, 11965, Control_c, 4, 11, 115
1, 11966, Control_c, 3, 1, 11
1, 11968, Control_c, 3, 1, 12
1, 11969, Control_c, 3, 1, 13
1, 11970, Control_c, 3, 1, 14
1, 11971, Note_on_c, 1, 50, 0
1, 11971, Control_c, 3, 1, 15
1, 11971, Control_c, 4, 11, 127
1, 11972, Control_c, 3, 1, 16
1, 11973, Control_c, 3, 1, 17
1, 11974, Control_c, 3, 1, 18
1, 11976, Note_on_c, 1, 47, 86
1, 11976, Control_c, 3, 1, 20
1, 11976, Note_on_c, 9, 51, 16
1, 11977, Control_c, 3, 1, 21
1, 11978, Note_on_c, 9, 51, 0
1, 11979, Control_c, 3, 1, 22
1, 11980, Control_c, 3, 1, 23
1, 11981, Control_c, 3, 1, 24
1, 11982, Control_c, 3, 1, 26
1, 11984, Control_c, 3, 1, 27
1, 11986, Control_c, 3, 1, 28
1, 11986, Control_c, 4, 11, 118
1, 11987, Control_c, 3, 1, 30
1, 11988, Control_c, 4, 11, 84
1, 11989, Control_c, 3, 1, 31
1, 11991, Control_c, 3, 1, 32
1, 11992, Control_c, 3, 1, 33
1, 11993, Control_c, 4, 11, 58
1, 11995, Control_c, 3, 1, 34
1, 11997, Control_c, 3, 1, 35
1, 11998, Control_c, 4, 11, 73
1, 12000, Control_c, 3, 1, 36
1, 12000, Note_on_c, 9, 40, 105
1, 12000, Note_on_c, 9, 51, 45
1, 12002, Note_on_c, 9, 51, 0
1, 12002, Note_on_c, 9, 40, 0
1, 12002, Control_c, 4, 11, 111
1, 12003, Control_c, 3, 1, 37
1, 12006, Control_c, 3, 1, 38
1, 12006, Control_c, 4, 11, 127
1, 12008, Control_c, 3, 1, 39
1, 12012, Control_c, 3, 1, 40
1, 12016, Control_c, 3, 1, 41
1, 12018, Control_c, 3, 1, 42
1, 12019, Control_c, 4, 11, 123
1, 12020, Control_c, 3, 1, 43
1, 12020, Control_c, 4, 11, 104
1, 12023, Control_c, 3, 1, 44
1, 12024, Control_c, 4, 11, 73
1, 12026, Control_c, 3, 1, 45
1, 12028, Control_c, 3, 1, 46
1, 12029, Control_c, 4, 11, 58
1, 12031, Control_c, 3, 1, 47
1, 12033, Control_c, 4, 11, 74
1, 12034, Control_c, 3, 1, 48
1, 12038, Control_c, 3, 1, 49
1, 12038, Control_c, 4, 11, 110
1, 12042, Control_c, 4, 11, 127
1, 12044, Control_c, 3, 1, 50
1, 12048, Note_on_c, 1, 43, 60
1, 12048, Note_on_c, 9, 35, 67
1, 12048, Note_on_c, 9, 51, 61
1, 12050, Note_on_c, 9, 51, 0
1, 12050, Note_on_c, 9, 35, 0
1, 12056, Note_on_c, 1, 47, 0
1, 12057, Control_c, 3, 1, 51
1, 12058, Control_c, 4, 11, 113
1, 12061, Control_c, 4, 11, 86
1, 12062, Control_c, 3, 1, 52
1, 12065, Control_c, 4, 11, 77
1, 12069, Control_c, 3, 1, 53
1, 12069, Control_c, 4, 11, 103
1, 12072, Note_on_c, 9, 51, 33
1, 12074, Note_on_c, 9, 51, 0
1, 12074, Control_c, 4, 11, 127
1, 12079, Control_c, 3, 1, 54
1, 12088, Control_c, 3, 1, 55
1, 12089, Control_c, 4, 11, 119
1, 12091, Control_c, 4, 11, 79
1, 12096, Control_c, 4, 11, 41
1, 12096, Note_on_c, 9, 51, 59
1, 12098, Note_on_c, 9, 51, 0
1, 12101, Control_c, 4, 11, 57
1, 12106, Control_c, 3, 1, 54
1, 12106, Control_c, 4, 11, 94
1, 12107, Control_c, 3, 1, 53
1, 12108, Control_c, 3, 1, 52
1, 12109, Control_c, 3, 1, 50
1, 12110, Control_c, 3, 1, 49
1, 12110, Control_c, 4, 11, 121
1, 12111, Control_c, 3, 1, 48
1, 12112, Control_c, 3, 1, 45
1, 12113, Control_c, 3, 1, 43
1, 12114, Control_c, 3, 1, 41
1, 12114, Control_c, 4, 11, 124
1, 12115, Control_c, 3, 1, 38
1, 12116, Control_c, 3, 1, 35
1, 12117, Control_c, 3, 1, 31
1, 12118, Control_c, 3, 1, 28
1, 12119, Control_c, 3, 1, 23
1, 12119, Control_c, 4, 11, 115
1, 12120, Control_c, 3, 1, 12
1, 12120, Control_c, 3, 1, 19
1, 12122, Control_c, 3, 1, 2
1, 12123, Control_c, 3, 1, 0
1, 12123, Control_c, 4, 11, 101
1, 12126, Note_on_c, 3, 74, 0
1, 12127, Control_c, 4, 11, 95
1, 12138, Control_c, 4, 11, 92
1, 12144, Note_on_c, 3, 74, 106
1, 12144, Control_c, 4, 11, 94
1, 12144, Note_on_c, 9, 35, 44
1, 12144, Note_on_c, 9, 51, 63
1, 12145, Control_c, 4, 11, 113
1, 12146, Note_on_c, 9, 51, 0
1, 12146, Note_on_c, 9, 35, 0
1, 12151, Control_c, 4, 11, 127
1, 12160, Control_c, 4, 11, 112
1, 12164, Control_c, 4, 11, 88
1, 12168, Control_c, 4, 11, 44
1, 12168, Note_on_c, 9, 51, 26
1, 12170, Note_on_c, 9, 51, 0
1, 12173, Control_c, 4, 11, 39
1, 12177, Control_c, 4, 11, 62
1, 12181, Control_c, 4, 11, 108
1, 12187, Control_c, 4, 11, 127
1, 12192, Note_on_c, 9, 40, 105
1, 12192, Note_on_c, 9, 51, 55
1, 12194, Note_on_c, 9, 51, 0
1, 12194, Note_on_c, 9, 40, 0
1, 12216, Note_on_c, 1, 38, 86
1, 12216, Note_on_c, 3, 76, 102
1, 12217, Note_on_c, 1, 43, 0
1, 12220, Note_on_c, 3, 74, 0
1, 12240, Note_on_c, 9, 51, 75
1, 12242, Note_on_c, 9, 51, 0
1, 12263, Note_on_c, 4, 55, 0
1, 12264, Note_on_c, 4, 62, 0
1, 12264, Note_on_c, 9, 35, 35
1, 12264, Note_on_c, 9, 51, 35
1, 12266, Note_on_c, 9, 51, 0
1, 12266, Note_on_c, 9, 35, 0
1, 12272, Note_on_c, 5, 86, 0
1, 12276, Note_on_c, 4, 59, 0
1, 12287, Note_on_c, 3, 76, 0
1, 12287, Control_c, 4, 11, 117
1, 12288, Note_on_c, 1, 34, 76
1, 12288, Note_on_c, 3, 77, 98
1, 12288, Note_on_c, 4, 53, 76
1, 12288, Note_on_c, 4, 58, 92
1, 12288, Note_on_c, 4, 62, 88
1, 12288, Note_on_c, 5, 82, 52
1, 12288, Note_on_c, 5, 77, 44
1, 12288, Note_on_c, 5, 86, 54
1, 12288, Note_on_c, 9, 35, 75
1, 12288, Note_on_c, 9, 51, 53
1, 12290, Note_on_c, 9, 51, 0
1, 12290, Note_on_c, 9, 35, 0
1, 12290, Control_c, 4, 11, 76
1, 12291, Note_on_c, 1, 38, 0
1, 12295, Control_c, 4, 11, 58
1, 12298, Note_on_c, 5, 79, 0
1, 12300, Control_c, 4, 11, 65
1, 12301, Note_on_c, 5, 83, 0
1, 12303, Control_c, 4, 11, 90
1, 12308, Control_c, 4, 11, 112
1, 12312, Control_c, 4, 11, 127
1, 12325, Control_c, 4, 11, 102
1, 12330, Control_c, 4, 11, 56
1, 12335, Control_c, 4, 11, 30
1, 12336, Note_on_c, 9, 35, 50
1, 12336, Note_on_c, 9, 51, 71
1, 12338, Note_on_c, 9, 51, 0
1, 12338, Note_on_c, 9, 35, 0
1, 12339, Control_c, 4, 11, 57
1, 12344, Control_c, 4, 11, 104
1, 12348, Control_c, 4, 11, 127
1, 12360, Note_on_c, 9, 51, 51
1, 12361, Control_c, 4, 11, 126
1, 12362, Note_on_c, 9, 51, 0
1, 12362, Control_c, 3, 1, 1
1, 12362, Control_c, 4, 11, 104
1, 12363, Control_c, 3, 1, 2
1, 12364, Control_c, 3, 1, 3
1, 12365, Control_c, 3, 1, 4
1, 12366, Control_c, 3, 1, 5
1, 12366, Control_c, 4, 11, 77
1, 12367, Control_c, 3, 1, 6
1, 12368, Control_c, 3, 1, 7
1, 12369, Control_c, 3, 1, 8
1, 12370, Control_c, 3, 1, 9
1, 12370, Control_c, 4, 11, 76
1, 12371, Control_c, 3, 1, 10
1, 12373, Control_c, 3, 1, 12
1, 12374, Control_c, 3, 1, 13
1, 12375, Control_c, 3, 1, 14
1, 12375, Control_c, 4, 11, 100
1, 12377, Control_c, 3, 1, 15
1, 12378, Control_c, 3, 1, 16
1, 12379, Control_c, 3, 1, 17
1, 12380, Control_c, 3, 1, 18
1, 12380, Control_c, 4, 11, 127
1, 12382, Control_c, 3, 1, 19
1, 12383, Control_c, 3, 1, 20
1, 12384, Note_on_c, 9, 40, 105
1, 12384, Note_on_c, 9, 51, 67
1, 12385, Control_c, 3, 1, 21
1, 12386, Note_on_c, 9, 51, 0
1, 12386, Note_on_c, 9, 40, 0
1, 12387, Control_c, 3, 1, 22
1, 12389, Control_c, 3, 1, 24
1, 12391, Control_c, 3, 1, 25
1, 12392, Control_c, 3, 1, 26
1, 12393, Control_c, 4, 11, 126
1, 12394, Control_c, 3, 1, 27
1, 12394, Control_c, 4, 11, 111
1, 12396, Control_c, 3, 1, 28
1, 12398, Control_c, 3, 1, 29
1, 12398, Control_c, 4, 11, 89
1, 12400, Control_c, 3, 1, 30
1, 12402, Control_c, 4, 11, 84
1, 12403, Control_c, 3, 1, 31
1, 12405, Control_c, 3, 1, 32
1, 12407, Control_c, 3, 1, 33
1, 12407, Control_c, 4, 11, 103
1, 12409, Control_c, 3, 1, 34
1, 12411, Control_c, 3, 1, 35
1, 12411, Control_c, 4, 11, 123
1, 12413, Control_c, 3, 1, 36
1, 12414, Control_c, 3, 1, 37
1, 12415, Control_c, 4, 11, 127
1, 12416, Control_c, 3, 1, 38
1, 12417, Control_c, 3, 1, 39
1, 12420, Control_c, 3, 1, 40
1, 12421, Control_c, 4, 11, 119
1, 12422, Control_c, 3, 1, 41
1, 12425, Control_c, 3, 1, 42
1, 12425, Control_c, 4, 11, 105
1, 12427, Control_c, 3, 1, 43
1, 12429, Control_c, 4, 11, 73
1, 12430, Control_c, 3, 1, 44
1, 12432, Note_on_c, 1, 50, 86
1, 12432, Control_c, 3, 1, 45
1, 12432, Note_on_c, 9, 35, 56
1, 12432, Note_on_c, 9, 51, 63
1, 12434, Note_on_c, 9, 51, 0
1, 12434, Note_on_c, 9, 35, 0
1, 12434, Control_c, 4, 11, 46
1, 12436, Control_c, 3, 1, 46
1, 12439, Control_c, 4, 11, 60
1, 12440, Control_c, 3, 1, 47
1, 12443, Control_c, 4, 11, 85
1, 12446, Control_c, 3, 1, 48
1, 12447, Control_c, 4, 11, 108
1, 12452, Control_c, 4, 11, 115
1, 12456, Note_on_c, 9, 51, 51
1, 12457, Control_c, 4, 11, 105
1, 12458, Note_on_c, 9, 51, 0
1, 12461, Control_c, 4, 11, 85
1, 12464, Control_c, 3, 1, 47
1, 12465, Control_c, 3, 1, 45
1, 12465, Control_c, 4, 11, 52
1, 12467, Control_c, 3, 1, 44
1, 12468, Control_c, 3, 1, 42
1, 12469, Control_c, 3, 1, 41
1, 12470, Control_c, 3, 1, 39
1, 12470, Control_c, 4, 11, 50
1, 12471, Control_c, 3, 1, 37
1, 12472, Control_c, 3, 1, 35
1, 12473, Control_c, 3, 1, 33
1, 12474, Control_c, 3, 1, 31
1, 12474, Control_c, 4, 11, 73
1, 12475, Control_c, 3, 1, 29
1, 12476, Control_c, 3, 1, 27
1, 12477, Control_c, 3, 1, 24
1, 12478, Control_c, 3, 1, 21
1, 12478, Control_c, 4, 11, 118
1, 12479, Control_c, 3, 1, 18
1, 12480, Control_c, 3, 1, 15
1, 12480, Note_on_c, 9, 51, 57
1, 12481, Control_c, 3, 1, 11
1, 12482, Note_on_c, 9, 51, 0
1, 12482, Control_c, 3, 1, 7
1, 12483, Control_c, 3, 1, 3
1, 12483, Control_c, 4, 11, 127
1, 12484, Control_c, 3, 1, 0
1, 12491, Control_c, 4, 11, 123
1, 12493, Control_c, 4, 11, 106
1, 12497, Control_c, 4, 11, 77
1, 12501, Control_c, 4, 11, 56
1, 12506, Control_c, 4, 11, 79
1, 12510, Control_c, 4, 11, 121
1, 12514, Control_c, 4, 11, 127
1, 12527, Control_c, 4, 11, 125
1, 12528, Note_on_c, 3, 77, 0
1, 12528, Note_on_c, 3, 79, 86
1, 12528, Control_c, 4, 11, 93
1, 12528, Note_on_c, 9, 35, 39
1, 12528, Note_on_c, 9, 51, 67
1, 12530, Note_on_c, 9, 51, 0
1, 12530, Note_on_c, 9, 35, 0
1, 12532, Control_c, 4, 11, 69
1, 12538, Control_c, 4, 11, 84
1, 12542, Control_c, 4, 11, 113
1, 12546, Control_c, 4, 11, 127
1, 12552, Note_on_c, 9, 51, 41
1, 12554, Note_on_c, 9, 51, 0
1, 12557, Control_c, 4, 11, 115
1, 12560, Control_c, 4, 11, 75
1, 12564, Control_c, 4, 11, 48
1, 12569, Control_c, 4, 11, 65
1, 12573, Control_c, 4, 11, 98
1, 12576, Note_on_c, 9, 40, 105
1, 12576, Note_on_c, 9, 51, 61
1, 12577, Control_c, 4, 11, 127
1, 12578, Note_on_c, 9, 51, 0
1, 12578, Note_on_c, 9, 40, 0
1, 12591, Control_c, 4, 11, 107
1, 12596, Control_c, 4, 11, 84
1, 12600, Note_on_c, 3, 77, 94
1, 12600, Control_c, 4, 11, 77
1, 12605, Control_c, 4, 11, 88
1, 12607, Note_on_c, 3, 79, 0
1, 12609, Control_c, 4, 11, 121
1, 12614, Control_c, 4, 11, 127
1, 12623, Note_on_c, 3, 77, 0
1, 12624, Note_on_c, 3, 76, 106
1, 12624, Note_on_c, 9, 51, 63
1, 12626, Note_on_c, 9, 51, 0
1, 12632, Control_c, 4, 11, 103
1, 12636, Control_c, 4, 11, 72
1, 12640, Note_on_c, 5, 77, 0
1, 12640, Control_c, 4, 11, 77
1, 12645, Control_c, 4, 11, 96
1, 12648, Note_on_c, 9, 35, 33
1, 12648, Note_on_c, 9, 51, 47
1, 12649, Control_c, 4, 11, 127
1, 12650, Note_on_c, 9, 51, 0
1, 12650, Note_on_c, 9, 35, 0
1, 12653, Note_on_c, 4, 53, 0
1, 12660, Note_on_c, 1, 34, 0
1, 12665, Note_on_c, 5, 82, 0
1, 12670, Control_c, 4, 11, 121
1, 12672, Note_on_c, 1, 57, 88
1, 12672, Note_on_c, 4, 55, 68
1, 12672, Note_on_c, 4, 61, 68
1, 12672, Note_on_c, 4, 64, 72
1, 12672, Note_on_c, 5, 85, 42
1, 12672, Note_on_c, 5, 76, 28
1, 12672, Note_on_c, 5, 81, 46
1, 12672, Note_on_c, 9, 35, 75
1, 12672, Note_on_c, 9, 51, 59
1, 12673, Note_on_c, 1, 50, 0
1, 12673, Control_c, 4, 11, 79
1, 12674, Note_on_c, 9, 51, 0
1, 12674, Note_on_c, 9, 35, 0
1, 12677, Note_on_c, 4, 62, 0
1, 12677, Note_on_c, 4, 58, 0
1, 12677, Control_c, 4, 11, 64
1, 12678, Note_on_c, 5, 86, 0
1, 12682, Control_c, 4, 11, 76
1, 12686, Control_c, 4, 11, 94
1, 12690, Control_c, 4, 11, 126
1, 12695, Control_c, 4, 11, 127
1, 12707, Control_c, 4, 11, 126
1, 12708, Control_c, 4, 11, 100
1, 12712, Control_c, 4, 11, 60
1, 12718, Control_c, 4, 11, 61
1, 12720, Control_c, 3, 1, 1
1, 12720, Note_on_c, 9, 35, 48
1, 12721, Control_c, 3, 1, 2
1, 12722, Note_on_c, 9, 35, 0
1, 12722, Control_c, 4, 11, 98
1, 12723, Control_c, 3, 1, 3
1, 12726, Control_c, 3, 1, 4
1, 12727, Control_c, 4, 11, 127
1, 12728, Control_c, 3, 1, 5
1, 12731, Control_c, 3, 1, 6
1, 12733, Control_c, 3, 1, 7
1, 12735, Control_c, 3, 1, 8
1, 12736, Control_c, 3, 1, 9
1, 12737, Control_c, 3, 1, 10
1, 12739, Control_c, 3, 1, 11
1, 12740, Control_c, 3, 1, 12
1, 12741, Control_c, 4, 11, 107
1, 12742, Control_c, 3, 1, 14
1, 12744, Control_c, 3, 1, 15
1, 12744, Control_c, 4, 11, 63
1, 12744, Note_on_c, 9, 51, 61
1, 12746, Note_on_c, 9, 51, 0
1, 12746, Control_c, 3, 1, 16
1, 12747, Control_c, 3, 1, 17
1, 12749, Control_c, 4, 11, 63
1, 12750, Control_c, 3, 1, 18
1, 12752, Control_c, 3, 1, 19
1, 12753, Control_c, 4, 11, 89
1, 12754, Control_c, 3, 1, 20
1, 12757, Control_c, 3, 1, 21
1, 12757, Control_c, 4, 11, 127
1, 12760, Control_c, 3, 1, 22
1, 12762, Control_c, 3, 1, 23
1, 12764, Control_c, 3, 1, 24
1, 12766, Control_c, 3, 1, 25
1, 12768, Control_c, 3, 1, 26
1, 12768, Note_on_c, 9, 40, 105
1, 12768, Note_on_c, 9, 51, 59
1, 12770, Note_on_c, 9, 51, 0
1, 12770, Note_on_c, 9, 40, 0
1, 12770, Control_c, 3, 1, 27
1, 12772, Control_c, 3, 1, 28
1, 12773, Control_c, 3, 1, 29
1, 12774, Control_c, 4, 11, 126
1, 12775, Control_c, 3, 1, 30
1, 12775, Control_c, 4, 11, 94
1, 12778, Control_c, 3, 1, 31
1, 12780, Control_c, 3, 1, 32
1, 12780, Control_c, 4, 11, 85
1, 12781, Control_c, 3, 1, 33
1, 12784, Control_c, 3, 1, 34
1, 12785, Control_c, 4, 11, 100
1, 12787, Control_c, 3, 1, 35
1, 12790, Control_c, 4, 11, 127
1, 12791, Control_c, 3, 1, 36
1, 12794, Control_c, 3, 1, 37
1, 12798, Control_c, 3, 1, 38
1, 12801, Control_c, 3, 1, 39
1, 12805, Control_c, 4, 11, 110
1, 12806, Control_c, 3, 1, 40
1, 12808, Note_on_c, 5, 85, 0
1, 12808, Control_c, 4, 11, 69
1, 12810, Control_c, 3, 1, 41
1, 12812, Control_c, 4, 11, 50
1, 12813, Control_c, 3, 1, 42
1, 12816, Note_on_c, 5, 85, 64
1, 12816, Note_on_c, 9, 35, 75
1, 12816, Note_on_c, 9, 57, 63
1, 12817, Control_c, 3, 1, 43
1, 12817, Control_c, 4, 11, 69
1, 12818, Note_on_c, 9, 57, 0
1, 12818, Note_on_c, 9, 35, 0
1, 12821, Control_c, 4, 11, 98
1, 12823, Control_c, 3, 1, 44
1, 12825, Control_c, 4, 11, 125
1, 12828, Control_c, 3, 1, 45
1, 12829, Control_c, 4, 11, 127
1, 12832, Control_c, 3, 1, 46
1, 12835, Control_c, 3, 1, 47
1, 12838, Control_c, 3, 1, 48
1, 12838, Control_c, 4, 11, 100
1, 12843, Control_c, 3, 1, 49
1, 12843, Control_c, 4, 11, 76
1, 12848, Control_c, 4, 11, 67
1, 12849, Control_c, 3, 1, 50
1, 12853, Control_c, 4, 11, 81
1, 12856, Control_c, 3, 1, 51
1, 12857, Control_c, 4, 11, 107
1, 12861, Control_c, 4, 11, 127
1, 12865, Control_c, 3, 1, 52
1, 12873, Control_c, 4, 11, 122
1, 12874, Control_c, 3, 1, 53
1, 12875, Control_c, 4, 11, 86
1, 12879, Control_c, 4, 11, 51
1, 12883, Control_c, 3, 1, 54
1, 12884, Control_c, 4, 11, 51
1, 12888, Note_on_c, 1, 55, 63
1, 12889, Control_c, 3, 1, 55
1, 12889, Control_c, 4, 11, 77
1, 12892, Note_on_c, 1, 57, 0
1, 12893, Control_c, 4, 11, 107
1, 12897, Control_c, 4, 11, 122
1, 12902, Note_on_c, 1, 55, 0
1, 12903, Control_c, 4, 11, 113
1, 12905, Note_on_c, 5, 85, 0
1, 12906, Control_c, 4, 11, 89
1, 12910, Control_c, 4, 11, 47
1, 12911, Control_c, 3, 1, 56
1, 12912, Note_on_c, 1, 57, 86
1, 12912, Note_on_c, 5, 83, 68
1, 12912, Note_on_c, 5, 86, 68
1, 12912, Note_on_c, 9, 35, 48
1, 12912, Note_on_c, 9, 51, 59
1, 12914, Note_on_c, 9, 51, 0
1, 12914, Note_on_c, 9, 35, 0
1, 12915, Note_on_c, 5, 81, 0
1, 12915, Control_c, 4, 11, 43
1, 12920, Control_c, 4, 11, 75
1, 12925, Control_c, 4, 11, 111
1, 12929, Control_c, 4, 11, 127
1, 12941, Control_c, 4, 11, 126
1, 12942, Control_c, 4, 11, 98
1, 12947, Control_c, 4, 11, 66
1, 12951, Control_c, 4, 11, 62
1, 12956, Control_c, 4, 11, 81
1, 12960, Note_on_c, 9, 40, 105
1, 12960, Note_on_c, 9, 57, 79
1, 12961, Control_c, 4, 11, 105
1, 12962, Note_on_c, 9, 57, 0
1, 12962, Note_on_c, 9, 40, 0
1, 12965, Control_c, 4, 11, 124
1, 12967, Control_c, 3, 1, 55
1, 12969, Control_c, 3, 1, 54
1, 12969, Control_c, 4, 11, 127
1, 12970, Control_c, 3, 1, 53
1, 12971, Control_c, 3, 1, 52
1, 12972, Control_c, 3, 1, 51
1, 12973, Note_on_c, 5, 86, 0
1, 12973, Control_c, 3, 1, 49
1, 12974, Control_c, 3, 1, 48
1, 12975, Control_c, 3, 1, 46
1, 12975, Control_c, 4, 11, 119
1, 12976, Control_c, 3, 1, 44
1, 12977, Control_c, 3, 1, 41
1, 12978, Control_c, 3, 1, 38
1, 12978, Control_c, 4, 11, 80
1, 12979, Control_c, 3, 1, 35
1, 12980, Control_c, 3, 1, 31
1, 12981, Control_c, 3, 1, 26
1, 12982, Control_c, 3, 1, 21
1, 12983, Control_c, 3, 1, 15
1, 12983, Control_c, 4, 11, 36
1, 12984, Control_c, 3, 1, 8
1, 12984, Note_on_c, 5, 86, 48
1, 12984, Note_on_c, 5, 88, 39
1, 12984, Note_on_c, 5, 85, 50
1, 12985, Control_c, 3, 1, 0
1, 12987, Note_on_c, 3, 76, 0
1, 12987, Control_c, 4, 11, 24
1, 12992, Note_on_c, 5, 83, 0
1, 12992, Control_c, 4, 11, 46
1, 12996, Control_c, 4, 11, 90
1, 13001, Control_c, 4, 11, 115
1, 13005, Control_c, 4, 11, 116
1, 13008, Note_on_c, 9, 51, 51
1, 13009, Note_on_c, 5, 86, 0
1, 13010, Note_on_c, 9, 51, 0
1, 13010, Control_c, 4, 11, 104
1, 13014, Control_c, 4, 11, 78
1, 13019, Control_c, 4, 11, 62
1, 13024, Control_c, 4, 11, 68
1, 13027, Control_c, 4, 11, 89
1, 13032, Note_on_c, 4, 64, 0
1, 13032, Note_on_c, 9, 40, 90
1, 13033, Control_c, 4, 11, 112
1, 13034, Note_on_c, 9, 40, 0
1, 13037, Note_on_c, 5, 76, 0
1, 13037, Control_c, 4, 11, 127
1, 13039, Note_on_c, 5, 88, 0
1, 13040, Note_on_c, 4, 55, 0
1, 13044, Control_c, 4, 11, 123
1, 13046, Control_c, 4, 11, 102
1, 13047, Note_on_c, 1, 57, 0
1, 13050, Control_c, 4, 11, 55
1, 13052, Note_on_c, 5, 85, 0
1, 13055, Control_c, 4, 11, 41
1, 13056, Note_on_c, 1, 36, 86
1, 13056, Note_on_c, 3, 76, 106
1, 13056, Note_on_c, 4, 48, 84
1, 13056, Note_on_c, 4, 55, 66
1, 13056, Note_on_c, 4, 60, 68
1, 13056, Note_on_c, 4, 64, 84
1, 13056, Note_on_c, 5, 79, 30
1, 13056, Note_on_c, 5, 84, 58
1, 13056, Note_on_c, 5, 88, 54
1, 13056, Note_on_c, 9, 35, 75
1, 13056, Note_on_c, 9, 51, 79
1, 13058, Note_on_c, 9, 51, 0
1, 13058, Note_on_c, 9, 35, 0
1, 13061, Control_c, 4, 11, 47
1, 13063, Control_c, 4, 11, 79
1, 13069, Control_c, 4, 11, 106
1, 13073, Control_c, 4, 11, 116
1, 13075, Note_on_c, 4, 61, 0
1, 13078, Control_c, 4, 11, 105
1, 13082, Control_c, 4, 11, 85
1, 13086, Control_c, 4, 11, 58
1, 13090, Control_c, 4, 11, 51
1, 13095, Control_c, 4, 11, 77
1, 13099, Control_c, 4, 11, 122
1, 13104, Note_on_c, 9, 35, 50
1, 13104, Note_on_c, 9, 51, 55
1, 13105, Control_c, 4, 11, 127
1, 13106, Note_on_c, 9, 51, 0
1, 13106, Note_on_c, 9, 35, 0
1, 13115, Control_c, 4, 11, 109
1, 13118, Control_c, 4, 11, 68
1, 13122, Control_c, 4, 11, 36
1, 13127, Control_c, 4, 11, 50
1, 13131, Control_c, 4, 11, 92
1, 13135, Control_c, 4, 11, 124
1, 13140, Control_c, 3, 1, 1
1, 13140, Control_c, 4, 11, 127
1, 13142, Control_c, 3, 1, 2
1, 13144, Control_c, 3, 1, 4
1, 13145, Control_c, 4, 11, 117
1, 13146, Control_c, 3, 1, 5
1, 13148, Control_c, 3, 1, 6
1, 13149, Control_c, 4, 11, 91
1, 13150, Control_c, 3, 1, 7
1, 13152, Note_on_c, 1, 43, 74
1, 13152, Control_c, 3, 1, 8
1, 13152, Note_on_c, 9, 40, 105
1, 13152, Note_on_c, 9, 51, 67
1, 13153, Control_c, 3, 1, 9
1, 13154, Note_on_c, 9, 51, 0
1, 13154, Note_on_c, 9, 40, 0
1, 13154, Control_c, 3, 1, 10
1, 13154, Control_c, 4, 11, 63
1, 13156, Control_c, 3, 1, 11
1, 13158, Control_c, 3, 1, 12
1, 13158, Control_c, 4, 11, 54
1, 13160, Control_c, 3, 1, 13
1, 13162, Control_c, 3, 1, 14
1, 13163, Control_c, 4, 11, 76
1, 13165, Control_c, 3, 1, 15
1, 13167, Control_c, 4, 11, 101
1, 13169, Control_c, 3, 1, 16
1, 13171, Control_c, 3, 1, 17
1, 13171, Control_c, 4, 11, 121
1, 13174, Control_c, 3, 1, 18
1, 13176, Control_c, 3, 1, 19
1, 13177, Control_c, 4, 11, 122
1, 13179, Control_c, 3, 1, 20
1, 13183, Control_c, 3, 1, 21
1, 13183, Control_c, 4, 11, 114
1, 13186, Control_c, 3, 1, 22
1, 13186, Control_c, 4, 11, 94
1, 13188, Control_c, 3, 1, 23
1, 13190, Control_c, 3, 1, 24
1, 13190, Control_c, 4, 11, 62
1, 13191, Control_c, 3, 1, 25
1, 13193, Control_c, 3, 1, 26
1, 13194, Control_c, 4, 11, 45
1, 13196, Control_c, 3, 1, 27
1, 13197, Note_on_c, 1, 43, 0
1, 13199, Control_c, 4, 11, 60
1, 13200, Note_on_c, 1, 52, 88
1, 13200, Control_c, 3, 1, 28
1, 13200, Note_on_c, 9, 35, 56
1, 13200, Note_on_c, 9, 51, 45
1, 13202, Note_on_c, 9, 51, 0
1, 13202, Note_on_c, 9, 35, 0
1, 13203, Control_c, 3, 1, 29
1, 13203, Control_c, 4, 11, 85
1, 13206, Control_c, 3, 1, 30
1, 13207, Control_c, 4, 11, 115
1, 13211, Control_c, 3, 1, 31
1, 13213, Control_c, 3, 1, 32
1, 13213, Control_c, 4, 11, 123
1, 13215, Control_c, 3, 1, 33
1, 13218, Control_c, 4, 11, 113
1, 13221, Control_c, 3, 1, 34
1, 13222, Control_c, 4, 11, 92
1, 13224, Note_on_c, 9, 51, 47
1, 13226, Note_on_c, 9, 51, 0
1, 13226, Control_c, 4, 11, 61
1, 13230, Control_c, 4, 11, 11
1, 13233, Control_c, 3, 1, 33
1, 13234, Control_c, 3, 1, 32
1, 13235, Control_c, 3, 1, 31
1, 13236, Control_c, 3, 1, 30
1, 13236, Control_c, 4, 11, 22
1, 13237, Control_c, 3, 1, 28
1, 13238, Control_c, 3, 1, 27
1, 13239, Control_c, 3, 1, 26
1, 13239, Control_c, 4, 11, 62
1, 13240, Control_c, 3, 1, 24
1, 13241, Control_c, 3, 1, 21
1, 13242, Control_c, 3, 1, 19
1, 13243, Control_c, 3, 1, 16
1, 13243, Control_c, 4, 11, 115
1, 13244, Control_c, 3, 1, 14
1, 13245, Control_c, 3, 1, 10
1, 13246, Control_c, 3, 1, 5
1, 13247, Control_c, 3, 1, 1
1, 13248, Control_c, 3, 1, 0
1, 13248, Control_c, 4, 11, 127
1, 13248, Note_on_c, 9, 49, 54
1, 13250, Note_on_c, 9, 49, 0
1, 13256, Control_c, 4, 11, 123
1, 13258, Control_c, 4, 11, 109
1, 13262, Control_c, 4, 11, 85
1, 13266, Control_c, 4, 11, 45
1, 13271, Control_c, 4, 11, 45
1, 13275, Control_c, 4, 11, 65
1, 13279, Control_c, 4, 11, 103
1, 13281, Note_on_c, 1, 52, 0
1, 13285, Control_c, 4, 11, 125
1, 13289, Control_c, 4, 11, 127
1, 13296, Note_on_c, 1, 53, 86
1, 13296, Note_on_c, 3, 77, 102
1, 13296, Control_c, 4, 11, 120
1, 13296, Note_on_c, 9, 35, 39
1, 13296, Note_on_c, 9, 51, 67
1, 13298, Note_on_c, 9, 51, 0
1, 13298, Note_on_c, 9, 35, 0
1, 13298, Control_c, 4, 11, 96
1, 13302, Control_c, 4, 11, 45
1, 13307, Note_on_c, 3, 76, 0
1, 13307, Control_c, 4, 11, 28
1, 13311, Control_c, 4, 11, 42
1, 13315, Control_c, 4, 11, 90
1, 13320, Note_on_c, 9, 51, 41
1, 13321, Control_c, 4, 11, 116
1, 13322, Note_on_c, 9, 51, 0
1, 13325, Control_c, 4, 11, 122
1, 13331, Control_c, 4, 11, 114
1, 13334, Control_c, 4, 11, 95
1, 13338, Control_c, 4, 11, 57
1, 13343, Control_c, 4, 11, 37
1, 13344, Note_on_c, 9, 40, 105
1, 13344, Note_on_c, 9, 51, 57
1, 13346, Note_on_c, 9, 51, 0
1, 13346, Note_on_c, 9, 40, 0
1, 13347, Control_c, 4, 11, 47
1, 13348, Note_on_c, 3, 77, 0
1, 13351, Control_c, 4, 11, 85
1, 13357, Control_c, 4, 11, 115
1, 13361, Control_c, 4, 11, 127
1, 13365, Note_on_c, 1, 53, 0
1, 13367, Control_c, 4, 11, 123
1, 13368, Note_on_c, 1, 52, 84
1, 13368, Note_on_c, 3, 77, 98
1, 13370, Control_c, 4, 11, 110
1, 13374, Control_c, 4, 11, 89
1, 13379, Control_c, 4, 11, 67
1, 13383, Control_c, 4, 11, 63
1, 13388, Control_c, 4, 11, 83
1, 13391, Pitch_bend_c, 3, 8192
1, 13392, Pitch_bend_c, 3, 8842
1, 13392, Note_on_c, 9, 51, 67
1, 13393, Pitch_bend_c, 3, 9622
1, 13393, Control_c, 4, 11, 108
1, 13394, Note_on_c, 9, 51, 0
1, 13394, Pitch_bend_c, 3, 10272
1, 13395, Pitch_bend_c, 3, 11312
1, 13396, Pitch_bend_c, 3, 13262
1, 13396, Pitch_bend_c, 3, 12352
1, 13397, Control_c, 4, 11, 126
1, 13398, Pitch_bend_c, 3, 14172
1, 13399, Pitch_bend_c, 3, 15082
1, 13400, Pitch_bend_c, 3, 15732
1, 13401, Pitch_bend_c, 3, 16382
1, 13401, Control_c, 4, 11, 125
1, 13406, Control_c, 4, 11, 107
1, 13410, Control_c, 4, 11, 78
1, 13412, Note_on_c, 5, 84, 0
1, 13414, Control_c, 4, 11, 33
1, 13416, Note_on_c, 9, 35, 33
1, 13416, Note_on_c, 9, 51, 41
1, 13418, Note_on_c, 9, 51, 0
1, 13418, Note_on_c, 9, 35, 0
1, 13419, Control_c, 4, 11, 34
1, 13423, Note_on_c, 4, 55, 0
1, 13424, Control_c, 4, 11, 55
1, 13428, Control_c, 4, 11, 96
1, 13430, Note_on_c, 4, 64, 0
1, 13431, Note_on_c, 1, 36, 0
1, 13432, Note_on_c, 1, 52, 0
1, 13433, Control_c, 4, 11, 119
1, 13437, Control_c, 4, 11, 122
1, 13438, Note_on_c, 5, 88, 0
1, 13438, Note_on_c, 4, 48, 0
1, 13439, Note_on_c, 3, 77, 0
1, 13440, Note_on_c, 1, 31, 76
1, 13440, Note_on_c, 3, 74, 94
1, 13440, Note_on_c, 4, 47, 84
1, 13440, Note_on_c, 4, 55, 76
1, 13440, Note_on_c, 4, 62, 80
1, 13440, Note_on_c, 5, 83, 50
1, 13440, Note_on_c, 5, 86, 36
1, 13440, Note_on_c, 5, 91, 39
1, 13440, Note_on_c, 9, 35, 75
1, 13440, Note_on_c, 9, 51, 61
1, 13442, Note_on_c, 9, 51, 0
1, 13442, Note_on_c, 4, 60, 0
1, 13442, Note_on_c, 9, 35, 0
1, 13442, Control_c, 4, 11, 111
1, 13446, Control_c, 4, 11, 89
1, 13449, Pitch_bend_c, 3, 15602
1, 13450, Pitch_bend_c, 3, 13392
1, 13450, Control_c, 4, 11, 44
1, 13451, Pitch_bend_c, 3, 10922
1, 13452, Pitch_bend_c, 3, 8192
1, 13453, Pitch_bend_c, 3, 8064
1, 13454, Pitch_bend_c, 3, 7936
1, 13455, Pitch_bend_c, 3, 8192
1, 13456, Control_c, 4, 11, 11
1, 13462, Control_c, 4, 11, 24
1, 13465, Control_c, 4, 11, 60
1, 13469, Control_c, 4, 11, 99
1, 13473, Control_c, 4, 11, 115
1, 13479, Control_c, 4, 11, 110
1, 13482, Control_c, 4, 11, 94
1, 13486, Control_c, 4, 11, 71
1, 13488, Note_on_c, 9, 35, 48
1, 13488, Note_on_c, 9, 51, 61
1, 13490, Note_on_c, 9, 51, 0
1, 13490, Note_on_c, 9, 35, 0
1, 13492, Control_c, 4, 11, 45
1, 13496, Control_c, 4, 11, 35
1, 13500, Control_c, 4, 11, 59
1, 13501, Control_c, 3, 1, 1
1, 13502, Control_c, 3, 1, 3
1, 13503, Control_c, 3, 1, 5
1, 13504, Control_c, 3, 1, 7
1, 13505, Control_c, 3, 1, 11
1, 13505, Control_c, 3, 1, 9
1, 13505, Control_c, 4, 11, 93
1, 13507, Control_c, 3, 1, 14
1, 13508, Control_c, 3, 1, 17
1, 13509, Control_c, 3, 1, 20
1, 13509, Control_c, 4, 11, 120
1, 13510, Control_c, 3, 1, 22
1, 13511, Control_c, 3, 1, 26
1, 13512, Control_c, 3, 1, 29
1, 13512, Note_on_c, 9, 51, 47
1, 13513, Control_c, 3, 1, 32
1, 13513, Control_c, 4, 11, 123
1, 13514, Note_on_c, 9, 51, 0
1, 13515, Control_c, 3, 1, 35
1, 13516, Control_c, 3, 1, 37
1, 13517, Control_c, 3, 1, 40
1, 13518, Control_c, 3, 1, 42
1, 13518, Control_c, 4, 11, 113
1, 13519, Control_c, 3, 1, 44
1, 13520, Control_c, 3, 1, 45
1, 13521, Control_c, 3, 1, 46
1, 13522, Control_c, 3, 1, 47
1, 13523, Control_c, 3, 1, 48
1, 13523, Control_c, 4, 11, 87
1, 13525, Control_c, 3, 1, 49
1, 13527, Control_c, 3, 1, 51
1, 13528, Control_c, 4, 11, 59
1, 13529, Control_c, 3, 1, 52
1, 13530, Control_c, 3, 1, 53
1, 13531, Control_c, 3, 1, 55
1, 13532, Control_c, 3, 1, 56
1, 13532, Control_c, 4, 11, 45
1, 13534, Control_c, 3, 1, 57
1, 13535, Control_c, 3, 1, 58
1, 13536, Control_c, 3, 1, 59
1, 13536, Control_c, 4, 11, 70
1, 13536, Note_on_c, 9, 40, 105
1, 13536, Note_on_c, 9, 51, 59
1, 13537, Control_c, 3, 1, 60
1, 13538, Note_on_c, 9, 51, 0
1, 13538, Note_on_c, 9, 40, 0
1, 13540, Control_c, 3, 1, 61
1, 13541, Control_c, 3, 1, 62
1, 13541, Control_c, 4, 11, 100
1, 13544, Control_c, 3, 1, 63
1, 13545, Control_c, 4, 11, 123
1, 13547, Control_c, 3, 1, 64
1, 13549, Control_c, 3, 1, 65
1, 13549, Control_c, 4, 11, 125
1, 13550, Control_c, 3, 1, 66
1, 13551, Control_c, 3, 1, 67
1, 13554, Control_c, 3, 1, 68
1, 13554, Control_c, 4, 11, 115
1, 13557, Control_c, 3, 1, 69
1, 13559, Control_c, 3, 1, 70
1, 13559, Control_c, 4, 11, 95
1, 13563, Control_c, 3, 1, 71
1, 13563, Control_c, 4, 11, 61
1, 13567, Control_c, 3, 1, 72
1, 13568, Control_c, 4, 11, 64
1, 13572, Control_c, 4, 11, 89
1, 13577, Control_c, 4, 11, 112
1, 13581, Control_c, 4, 11, 126
1, 13584, Note_on_c, 9, 35, 75
1, 13584, Note_on_c, 9, 51, 63
1, 13585, Control_c, 4, 11, 123
1, 13586, Note_on_c, 9, 51, 0
1, 13586, Note_on_c, 9, 35, 0
1, 13588, Control_c, 3, 1, 73
1, 13591, Control_c, 4, 11, 108
1, 13595, Control_c, 4, 11, 84
1, 13599, Control_c, 4, 11, 49
1, 13604, Control_c, 4, 11, 53
1, 13608, Control_c, 4, 11, 74
1, 13608, Note_on_c, 9, 51, 39
1, 13610, Note_on_c, 9, 51, 0
1, 13612, Control_c, 4, 11, 110
1, 13618, Control_c, 4, 11, 127
1, 13629, Control_c, 3, 1, 72
1, 13629, Control_c, 4, 11, 122
1, 13631, Control_c, 4, 11, 108
1, 13632, Note_on_c, 9, 51, 59
1, 13634, Note_on_c, 9, 51, 0
1, 13635, Control_c, 4, 11, 92
1, 13640, Control_c, 4, 11, 86
1, 13642, Control_c, 3, 1, 71
1, 13644, Control_c, 3, 1, 70
1, 13646, Control_c, 3, 1, 69
1, 13646, Control_c, 4, 11, 91
1, 13648, Control_c, 3, 1, 68
1, 13649, Control_c, 4, 11, 107
1, 13650, Control_c, 3, 1, 67
1, 13651, Control_c, 3, 1, 65
1, 13652, Control_c, 3, 1, 64
1, 13653, Control_c, 3, 1, 63
1, 13653, Control_c, 4, 11, 123
1, 13654, Note_on_c, 3, 74, 0
1, 13654, Control_c, 3, 1, 62
1, 13655, Control_c, 3, 1, 60
1, 13656, Control_c, 3, 1, 59
1, 13657, Control_c, 3, 1, 57
1, 13657, Control_c, 4, 11, 127
1, 13658, Control_c, 3, 1, 55
1, 13659, Control_c, 3, 1, 52
1, 13660, Control_c, 3, 1, 49
1, 13661, Control_c, 3, 1, 45
1, 13662, Control_c, 3, 1, 41
1, 13663, Control_c, 3, 1, 37
1, 13664, Control_c, 3, 1, 31
1, 13665, Control_c, 3, 1, 27
1, 13665, Control_c, 4, 11, 122
1, 13666, Control_c, 3, 1, 22
1, 13667, Control_c, 3, 1, 16
1, 13667, Control_c, 4, 11, 105
1, 13668, Control_c, 3, 1, 10
1, 13669, Control_c, 3, 1, 2
1, 13670, Control_c, 3, 1, 0
1, 13671, Control_c, 4, 11, 73
1, 13676, Control_c, 4, 11, 60
1, 13680, Note_on_c, 1, 38, 96
1, 13680, Note_on_c, 3, 74, 102
1, 13680, Note_on_c, 9, 35, 48
1, 13680, Note_on_c, 9, 51, 63
1, 13681, Control_c, 4, 11, 73
1, 13682, Note_on_c, 9, 51, 0
1, 13682, Note_on_c, 9, 35, 0
1, 13684, Note_on_c, 1, 31, 0
1, 13685, Control_c, 4, 11, 97
1, 13689, Control_c, 4, 11, 123
1, 13693, Control_c, 4, 11, 127
1, 13703, Control_c, 4, 11, 111
1, 13707, Control_c, 4, 11, 80
1, 13712, Control_c, 4, 11, 44
1, 13717, Control_c, 4, 11, 43
1, 13721, Control_c, 4, 11, 63
1, 13725, Control_c, 4, 11, 94
1, 13728, Note_on_c, 9, 40, 105
1, 13728, Note_on_c, 9, 49, 82
1, 13729, Control_c, 4, 11, 125
1, 13730, Note_on_c, 9, 49, 0
1, 13730, Note_on_c, 9, 40, 0
1, 13734, Control_c, 4, 11, 127
1, 13739, Control_c, 4, 11, 115
1, 13744, Control_c, 4, 11, 92
1, 13748, Control_c, 4, 11, 65
1, 13750, Note_on_c, 3, 74, 0
1, 13751, Note_on_c, 1, 38, 0
1, 13752, Note_on_c, 1, 36, 86
1, 13752, Note_on_c, 3, 76, 106
1, 13752, Control_c, 4, 11, 49
1, 13757, Control_c, 4, 11, 72
1, 13761, Control_c, 4, 11, 106
1, 13765, Control_c, 4, 11, 127
1, 13776, Note_on_c, 9, 51, 83
1, 13778, Note_on_c, 9, 51, 0
1, 13790, Note_on_c, 5, 91, 0
1, 13792, Note_on_c, 5, 79, 0
1, 13800, Note_on_c, 9, 40, 90
1, 13800, Note_on_c, 9, 51, 53
1, 13802, Note_on_c, 9, 51, 0
1, 13802, Note_on_c, 9, 40, 0
1, 13803, Note_on_c, 5, 83, 0
1, 13809, Note_on_c, 4, 55, 0
1, 13810, Note_on_c, 4, 62, 0
1, 13822, Note_on_c, 1, 36, 0
1, 13824, Note_on_c, 1, 34, 88
1, 13824, Note_on_c, 3, 77, 111
1, 13824, Note_on_c, 4, 53, 70
1, 13824, Note_on_c, 4, 58, 92
1, 13824, Note_on_c, 4, 62, 97
1, 13824, Note_on_c, 5, 89, 72
1, 13824, Note_on_c, 5, 82, 62
1, 13824, Note_on_c, 5, 77, 64
1, 13824, Note_on_c, 7, 53, 70
1, 13824, Note_on_c, 7, 58, 92
1, 13824, Note_on_c, 7, 62, 97
1, 13824, Note_on_c, 9, 35, 75
1, 13824, Note_on_c, 9, 40, 90
1, 13824, Note_on_c, 9, 51, 61
1, 13825, Note_on_c, 4, 47, 0
1, 13826, Note_on_c, 9, 51, 0
1, 13826, Note_on_c, 9, 40, 0
1, 13826, Note_on_c, 9, 35, 0
1, 13833, Note_on_c, 3, 76, 0
1, 13843, Note_on_c, 1, 34, 0
1, 13872, Note_on_c, 1, 34, 86
1, 13872, Note_on_c, 9, 35, 56
1, 13872, Note_on_c, 9, 51, 67
1, 13874, Note_on_c, 9, 51, 0
1, 13874, Note_on_c, 9, 35, 0
1, 13885, Note_on_c, 1, 34, 0
1, 13896, Note_on_c, 1, 34, 88
1, 13896, Note_on_c, 9, 51, 55
1, 13898, Note_on_c, 9, 51, 0
1, 13909, Note_on_c, 1, 34, 0
1, 13918, Note_on_c, 4, 58, 0
1, 13918, Note_on_c, 4, 53, 0
1, 13918, Note_on_c, 4, 62, 0
1, 13918, Note_on_c, 7, 58, 0
1, 13918, Note_on_c, 7, 53, 0
1, 13918, Note_on_c, 7, 62, 0
1, 13920, Note_on_c, 1, 34, 88
1, 13920, Note_on_c, 4, 53, 70
1, 13920, Note_on_c, 4, 58, 78
1, 13920, Note_on_c, 4, 62, 82
1, 13920, Note_on_c, 7, 53, 70
1, 13920, Note_on_c, 7, 58, 78
1, 13920, Note_on_c, 7, 62, 82
1, 13920, Note_on_c, 9, 40, 90
1, 13920, Note_on_c, 9, 51, 79
1, 13922, Note_on_c, 9, 51, 0
1, 13922, Note_on_c, 9, 40, 0
1, 13954, Note_on_c, 1, 34, 0
1, 13968, Note_on_c, 1, 34, 96
1, 13968, Note_on_c, 9, 51, 71
1, 13970, Note_on_c, 9, 51, 0
1, 13979, Note_on_c, 1, 34, 0
1, 13979, Note_on_c, 3, 77, 0
1, 13992, Note_on_c, 1, 34, 84
1, 13992, Note_on_c, 9, 35, 46
1, 13992, Note_on_c, 9, 51, 59
1, 13994, Note_on_c, 9, 51, 0
1, 13994, Note_on_c, 9, 35, 0
1, 14004, Note_on_c, 1, 34, 0
1, 14014, Note_on_c, 7, 53, 0
1, 14014, Note_on_c, 4, 62, 0
1, 14014, Note_on_c, 4, 58, 0
1, 14014, Note_on_c, 7, 58, 0
1, 14014, Note_on_c, 4, 53, 0
1, 14014, Note_on_c, 7, 62, 0
1, 14016, Note_on_c, 1, 34, 86
1, 14016, Note_on_c, 3, 77, 121
1, 14016, Note_on_c, 4, 53, 70
1, 14016, Note_on_c, 4, 58, 78
1, 14016, Note_on_c, 4, 62, 82
1, 14016, Note_on_c, 7, 53, 70
1, 14016, Note_on_c, 7, 58, 78
1, 14016, Note_on_c, 7, 62, 82
1, 14016, Note_on_c, 9, 35, 75
1, 14016, Note_on_c, 9, 40, 90
1, 14016, Note_on_c, 9, 51, 67
1, 14018, Note_on_c, 9, 51, 0
1, 14018, Note_on_c, 9, 40, 0
1, 14018, Note_on_c, 9, 35, 0
1, 14048, Note_on_c, 1, 34, 0
1, 14064, Note_on_c, 1, 34, 70
1, 14064, Note_on_c, 9, 35, 54
1, 14064, Note_on_c, 9, 51, 75
1, 14066, Note_on_c, 9, 51, 0
1, 14066, Note_on_c, 9, 35, 0
1, 14076, Note_on_c, 1, 34, 0
1, 14088, Note_on_c, 1, 34, 86
1, 14088, Note_on_c, 9, 51, 61
1, 14090, Note_on_c, 9, 51, 0
1, 14104, Note_on_c, 1, 34, 0
1, 14110, Note_on_c, 7, 58, 0
1, 14110, Note_on_c, 4, 62, 0
1, 14110, Note_on_c, 4, 58, 0
1, 14110, Note_on_c, 7, 53, 0
1, 14110, Note_on_c, 4, 53, 0
1, 14110, Note_on_c, 7, 62, 0
1, 14112, Note_on_c, 1, 34, 88
1, 14112, Note_on_c, 4, 53, 58
1, 14112, Note_on_c, 4, 58, 74
1, 14112, Note_on_c, 4, 62, 82
1, 14112, Note_on_c, 7, 53, 58
1, 14112, Note_on_c, 7, 58, 74
1, 14112, Note_on_c, 7, 62, 82
1, 14112, Note_on_c, 9, 40, 90
1, 14112, Note_on_c, 9, 51, 71
1, 14114, Note_on_c, 9, 51, 0
1, 14114, Note_on_c, 9, 40, 0
1, 14139, Note_on_c, 1, 34, 0
1, 14160, Note_on_c, 1, 34, 55
1, 14160, Note_on_c, 9, 51, 67
1, 14162, Note_on_c, 9, 51, 0
1, 14174, Note_on_c, 5, 89, 0
1, 14184, Note_on_c, 1, 34, 0
1, 14184, Note_on_c, 1, 35, 96
1, 14184, Note_on_c, 9, 35, 46
1, 14184, Note_on_c, 9, 51, 57
1, 14186, Note_on_c, 9, 51, 0
1, 14186, Note_on_c, 9, 35, 0
1, 14192, Note_on_c, 5, 82, 0
1, 14192, Note_on_c, 4, 53, 0
1, 14192, Note_on_c, 7, 53, 0
1, 14197, Note_on_c, 5, 77, 0
1, 14206, Note_on_c, 1, 35, 0
1, 14208, Note_on_c, 1, 36, 88
1, 14208, Note_on_c, 3, 76, 121
1, 14208, Note_on_c, 4, 48, 74
1, 14208, Note_on_c, 4, 55, 74
1, 14208, Note_on_c, 4, 60, 74
1, 14208, Note_on_c, 5, 76, 44
1, 14208, Note_on_c, 5, 84, 52
1, 14208, Note_on_c, 5, 88, 64
1, 14208, Note_on_c, 5, 79, 48
1, 14208, Note_on_c, 7, 48, 74
1, 14208, Note_on_c, 7, 55, 74
1, 14208, Note_on_c, 7, 60, 74
1, 14208, Note_on_c, 9, 35, 75
1, 14208, Note_on_c, 9, 40, 90
1, 14208, Note_on_c, 9, 51, 75
1, 14209, Note_on_c, 3, 77, 0
1, 14209, Note_on_c, 4, 58, 0
1, 14209, Note_on_c, 7, 58, 0
1, 14210, Note_on_c, 9, 35, 0
1, 14210, Note_on_c, 9, 51, 0
1, 14210, Note_on_c, 9, 40, 0
1, 14211, Note_on_c, 4, 62, 0
1, 14211, Note_on_c, 7, 62, 0
1, 14215, Note_on_c, 5, 86, 0
1, 14240, Note_on_c, 1, 36, 0
1, 14256, Note_on_c, 1, 36, 86
1, 14256, Note_on_c, 9, 35, 54
1, 14256, Note_on_c, 9, 51, 79
1, 14258, Note_on_c, 9, 51, 0
1, 14258, Note_on_c, 9, 35, 0
1, 14275, Note_on_c, 1, 36, 0
1, 14280, Note_on_c, 9, 51, 57
1, 14282, Note_on_c, 9, 51, 0
1, 14302, Note_on_c, 7, 55, 0
1, 14302, Note_on_c, 4, 60, 0
1, 14302, Note_on_c, 4, 48, 0
1, 14302, Note_on_c, 7, 60, 0
1, 14302, Note_on_c, 7, 48, 0
1, 14302, Note_on_c, 4, 55, 0
1, 14304, Note_on_c, 1, 36, 88
1, 14304, Note_on_c, 4, 48, 78
1, 14304, Note_on_c, 4, 55, 62
1, 14304, Note_on_c, 4, 60, 78
1, 14304, Note_on_c, 7, 48, 78
1, 14304, Note_on_c, 7, 55, 62
1, 14304, Note_on_c, 7, 60, 78
1, 14304, Note_on_c, 9, 40, 90
1, 14304, Note_on_c, 9, 51, 63
1, 14306, Note_on_c, 9, 51, 0
1, 14306, Note_on_c, 9, 40, 0
1, 14328, Note_on_c, 1, 36, 0
1, 14352, Note_on_c, 1, 36, 82
1, 14352, Note_on_c, 9, 51, 79
1, 14354, Note_on_c, 9, 51, 0
1, 14367, Note_on_c, 4, 55, 0
1, 14374, Note_on_c, 1, 36, 0
1, 14375, Note_on_c, 7, 48, 0
1, 14375, Note_on_c, 4, 60, 0
1, 14375, Note_on_c, 7, 55, 0
1, 14375, Note_on_c, 7, 60, 0
1, 14375, Note_on_c, 4, 48, 0
1, 14376, Note_on_c, 1, 36, 84
1, 14376, Note_on_c, 9, 35, 52
1, 14376, Note_on_c, 9, 51, 59
1, 14378, Note_on_c, 9, 51, 0
1, 14378, Note_on_c, 9, 35, 0
1, 14398, Note_on_c, 1, 36, 0
1, 14400, Note_on_c, 1, 33, 84
1, 14400, Note_on_c, 4, 48, 70
1, 14400, Note_on_c, 4, 60, 74
1, 14400, Note_on_c, 4, 55, 62
1, 14400, Note_on_c, 7, 48, 70
1, 14400, Note_on_c, 7, 60, 74
1, 14400, Note_on_c, 7, 55, 58
1, 14400, Note_on_c, 9, 35, 75
1, 14400, Note_on_c, 9, 40, 90
1, 14400, Note_on_c, 9, 51, 83
1, 14402, Note_on_c, 9, 51, 0
1, 14402, Note_on_c, 9, 40, 0
1, 14402, Note_on_c, 9, 35, 0
1, 14424, Note_on_c, 1, 33, 0
1, 14424, Note_on_c, 3, 74, 106
1, 14428, Note_on_c, 3, 76, 0
1, 14442, Note_on_c, 3, 74, 0
1, 14446, Note_on_c, 4, 55, 0
1, 14446, Note_on_c, 7, 60, 0
1, 14446, Note_on_c, 4, 60, 0
1, 14446, Note_on_c, 7, 48, 0
1, 14446, Note_on_c, 4, 48, 0
1, 14446, Note_on_c, 7, 55, 0
1, 14448, Note_on_c, 1, 33, 100
1, 14448, Note_on_c, 3, 72, 106
1, 14448, Note_on_c, 4, 48, 74
1, 14448, Note_on_c, 4, 55, 62
1, 14448, Note_on_c, 4, 60, 74
1, 14448, Note_on_c, 7, 48, 74
1, 14448, Note_on_c, 7, 55, 62
1, 14448, Note_on_c, 7, 60, 74
1, 14448, Note_on_c, 9, 35, 60
1, 14448, Note_on_c, 9, 51, 75
1, 14450, Note_on_c, 9, 51, 0
1, 14450, Note_on_c, 9, 35, 0
1, 14468, Note_on_c, 1, 33, 0
1, 14472, Note_on_c, 9, 51, 49
1, 14474, Note_on_c, 9, 51, 0
1, 14494, Note_on_c, 7, 60, 0
1, 14494, Note_on_c, 4, 60, 0
1, 14494, Note_on_c, 4, 55, 0
1, 14494, Note_on_c, 7, 48, 0
1, 14494, Note_on_c, 7, 55, 0
1, 14494, Note_on_c, 4, 48, 0
1, 14496, Note_on_c, 1, 33, 100
1, 14496, Note_on_c, 4, 48, 70
1, 14496, Note_on_c, 4, 55, 66
1, 14496, Note_on_c, 4, 60, 74
1, 14496, Note_on_c, 7, 48, 70
1, 14496, Note_on_c, 7, 55, 66
1, 14496, Note_on_c, 7, 60, 74
1, 14496, Note_on_c, 9, 40, 90
1, 14496, Note_on_c, 9, 51, 79
1, 14498, Note_on_c, 9, 51, 0
1, 14498, Note_on_c, 9, 40, 0
1, 14517, Note_on_c, 3, 72, 0
1, 14520, Note_on_c, 3, 72, 98
1, 14542, Note_on_c, 7, 55, 0
1, 14542, Note_on_c, 4, 55, 0
1, 14542, Note_on_c, 7, 48, 0
1, 14542, Note_on_c, 4, 60, 0
1, 14542, Note_on_c, 4, 48, 0
1, 14542, Note_on_c, 7, 60, 0
1, 14544, Note_on_c, 3, 74, 121
1, 14544, Note_on_c, 4, 48, 74
1, 14544, Note_on_c, 4, 55, 58
1, 14544, Note_on_c, 4, 60, 74
1, 14544, Note_on_c, 7, 48, 74
1, 14544, Note_on_c, 7, 55, 58
1, 14544, Note_on_c, 7, 60, 74
1, 14544, Note_on_c, 9, 51, 75
1, 14545, Note_on_c, 3, 72, 0
1, 14546, Note_on_c, 9, 51, 0
1, 14547, Note_on_c, 1, 33, 0
1, 14563, Note_on_c, 5, 88, 0
1, 14568, Note_on_c, 9, 35, 52
1, 14568, Note_on_c, 9, 51, 61
1, 14570, Note_on_c, 9, 51, 0
1, 14570, Note_on_c, 5, 76, 0
1, 14570, Note_on_c, 9, 35, 0
1, 14584, Note_on_c, 4, 60, 0
1, 14584, Note_on_c, 7, 60, 0
1, 14585, Note_on_c, 4, 55, 0
1, 14585, Note_on_c, 7, 55, 0
1, 14587, Note_on_c, 5, 84, 0
1, 14588, Control_c, 3, 1, 2
1, 14589, Control_c, 3, 1, 4
1, 14590, Control_c, 3, 1, 6
1, 14591, Control_c, 3, 1, 9
1, 14592, Note_on_c, 1, 38, 92
1, 14592, Control_c, 3, 1, 12
1, 14592, Note_on_c, 4, 50, 87
1, 14592, Note_on_c, 4, 57, 78
1, 14592, Note_on_c, 4, 62, 78
1, 14592, Note_on_c, 5, 81, 80
1, 14592, Note_on_c, 5, 86, 92
1, 14592, Note_on_c, 5, 74, 64
1, 14592, Note_on_c, 7, 50, 87
1, 14592, Note_on_c, 7, 57, 78
1, 14592, Note_on_c, 7, 62, 78
1, 14592, Note_on_c, 9, 35, 75
1, 14592, Note_on_c, 9, 40, 90
1, 14592, Note_on_c, 9, 49, 78
1, 14593, Control_c, 3, 1, 14
1, 14594, Note_on_c, 9, 49, 0
1, 14594, Note_on_c, 9, 40, 0
1, 14594, Note_on_c, 9, 35, 0
1, 14594, Control_c, 3, 1, 16
1, 14595, Note_on_c, 4, 48, 0
1, 14595, Note_on_c, 7, 48, 0
1, 14595, Control_c, 3, 1, 18
1, 14596, Control_c, 3, 1, 20
1, 14597, Control_c, 3, 1, 22
1, 14598, Control_c, 3, 1, 25
1, 14599, Control_c, 3, 1, 26
1, 14600, Control_c, 3, 1, 28
1, 14601, Control_c, 3, 1, 29
1, 14602, Control_c, 3, 1, 30
1, 14603, Note_on_c, 5, 79, 0
1, 14603, Control_c, 3, 1, 32
1, 14604, Control_c, 3, 1, 33
1, 14606, Control_c, 3, 1, 34
1, 14607, Control_c, 3, 1, 35
1, 14609, Control_c, 3, 1, 36
1, 14611, Control_c, 3, 1, 37
1, 14612, Control_c, 3, 1, 38
1, 14614, Control_c, 3, 1, 39
1, 14616, Control_c, 3, 1, 40
1, 14618, Note_on_c, 1, 38, 0
1, 14619, Control_c, 3, 1, 41
1, 14623, Control_c, 3, 1, 42
1, 14626, Control_c, 3, 1, 43
1, 14629, Control_c, 3, 1, 44
1, 14633, Control_c, 3, 1, 45
1, 14638, Note_on_c, 4, 50, 0
1, 14638, Note_on_c, 4, 62, 0
1, 14638, Note_on_c, 7, 50, 0
1, 14638, Note_on_c, 4, 57, 0
1, 14638, Note_on_c, 7, 62, 0
1, 14638, Note_on_c, 7, 57, 0
1, 14638, Control_c, 3, 1, 46
1, 14640, Note_on_c, 1, 38, 84
1, 14640, Note_on_c, 4, 50, 58
1, 14640, Note_on_c, 4, 57, 78
1, 14640, Note_on_c, 4, 62, 74
1, 14640, Note_on_c, 7, 50, 58
1, 14640, Note_on_c, 7, 57, 78
1, 14640, Note_on_c, 7, 62, 74
1, 14640, Note_on_c, 9, 35, 52
1, 14640, Note_on_c, 9, 51, 63
1, 14642, Note_on_c, 9, 51, 0
1, 14642, Note_on_c, 9, 35, 0
1, 14649, Note_on_c, 1, 38, 0
1, 14649, Control_c, 3, 1, 47
1, 14658, Control_c, 3, 1, 48
1, 14664, Note_on_c, 1, 38, 78
1, 14664, Note_on_c, 9, 51, 47
1, 14666, Note_on_c, 9, 51, 0
1, 14679, Note_on_c, 1, 38, 0
1, 14681, Control_c, 3, 1, 49
1, 14686, Note_on_c, 7, 57, 0
1, 14686, Note_on_c, 7, 50, 0
1, 14686, Note_on_c, 4, 62, 0
1, 14686, Note_on_c, 7, 62, 0
1, 14686, Note_on_c, 4, 50, 0
1, 14686, Note_on_c, 4, 57, 0
1, 14688, Note_on_c, 1, 36, 92
1, 14688, Note_on_c, 4, 50, 74
1, 14688, Note_on_c, 4, 57, 82
1, 14688, Note_on_c, 4, 62, 74
1, 14688, Note_on_c, 7, 50, 74
1, 14688, Note_on_c, 7, 57, 82
1, 14688, Note_on_c, 7, 62, 74
1, 14688, Note_on_c, 9, 40, 90
1, 14688, Note_on_c, 9, 51, 57
1, 14690, Note_on_c, 9, 51, 0
1, 14690, Note_on_c, 9, 40, 0
1, 14691, Control_c, 3, 1, 50
1, 14705, Control_c, 3, 1, 51
1, 14707, Note_on_c, 1, 36, 0
1, 14734, Note_on_c, 7, 50, 0
1, 14734, Note_on_c, 7, 62, 0
1, 14734, Note_on_c, 4, 62, 0
1, 14734, Note_on_c, 7, 57, 0
1, 14734, Note_on_c, 4, 50, 0
1, 14734, Note_on_c, 4, 57, 0
1, 14736, Note_on_c, 1, 36, 74
1, 14736, Note_on_c, 4, 50, 70
1, 14736, Note_on_c, 4, 57, 78
1, 14736, Note_on_c, 4, 62, 74
1, 14736, Note_on_c, 7, 50, 70
1, 14736, Note_on_c, 7, 57, 78
1, 14736, Note_on_c, 7, 62, 74
1, 14736, Note_on_c, 9, 51, 79
1, 14738, Note_on_c, 9, 51, 0
1, 14744, Note_on_c, 1, 36, 0
1, 14760, Note_on_c, 1, 36, 84
1, 14760, Note_on_c, 9, 35, 44
1, 14760, Note_on_c, 9, 51, 51
1, 14762, Note_on_c, 9, 51, 0
1, 14762, Note_on_c, 9, 35, 0
1, 14779, Note_on_c, 1, 36, 0
1, 14782, Note_on_c, 7, 57, 0
1, 14782, Note_on_c, 7, 50, 0
1, 14782, Note_on_c, 4, 62, 0
1, 14782, Note_on_c, 7, 62, 0
1, 14782, Note_on_c, 4, 50, 0
1, 14782, Note_on_c, 4, 57, 0
1, 14784, Note_on_c, 1, 35, 104
1, 14784, Note_on_c, 4, 50, 78
1, 14784, Note_on_c, 4, 57, 78
1, 14784, Note_on_c, 4, 62, 78
1, 14784, Note_on_c, 7, 50, 78
1, 14784, Note_on_c, 7, 57, 78
1, 14784, Note_on_c, 7, 62, 78
1, 14784, Note_on_c, 9, 35, 75
1, 14784, Note_on_c, 9, 40, 90
1, 14784, Note_on_c, 9, 51, 51
1, 14786, Note_on_c, 9, 51, 0
1, 14786, Note_on_c, 9, 40, 0
1, 14786, Note_on_c, 9, 35, 0
1, 14805, Note_on_c, 1, 35, 0
1, 14830, Note_on_c, 7, 50, 0
1, 14830, Note_on_c, 7, 62, 0
1, 14830, Note_on_c, 4, 62, 0
1, 14830, Note_on_c, 7, 57, 0
1, 14830, Note_on_c, 4, 50, 0
1, 14830, Note_on_c, 4, 57, 0
1, 14832, Note_on_c, 1, 35, 84
1, 14832, Note_on_c, 4, 50, 78
1, 14832, Note_on_c, 4, 57, 74
1, 14832, Note_on_c, 4, 62, 74
1, 14832, Note_on_c, 7, 50, 78
1, 14832, Note_on_c, 7, 57, 74
1, 14832, Note_on_c, 7, 62, 74
1, 14832, Note_on_c, 9, 35, 48
1, 14832, Note_on_c, 9, 51, 63
1, 14834, Note_on_c, 9, 51, 0
1, 14834, Note_on_c, 9, 35, 0
1, 14839, Note_on_c, 1, 35, 0
1, 14856, Note_on_c, 1, 35, 86
1, 14856, Note_on_c, 9, 51, 57
1, 14858, Note_on_c, 9, 51, 0
1, 14869, Control_c, 3, 1, 50
1, 14873, Note_on_c, 1, 35, 0
1, 14878, Note_on_c, 7, 57, 0
1, 14878, Note_on_c, 7, 50, 0
1, 14878, Note_on_c, 4, 62, 0
1, 14878, Note_on_c, 7, 62, 0
1, 14878, Note_on_c, 4, 50, 0
1, 14878, Note_on_c, 4, 57, 0
1, 14880, Note_on_c, 1, 33, 82
1, 14880, Note_on_c, 4, 50, 87
1, 14880, Note_on_c, 4, 57, 82
1, 14880, Note_on_c, 4, 62, 78
1, 14880, Note_on_c, 7, 50, 87
1, 14880, Note_on_c, 7, 57, 82
1, 14880, Note_on_c, 7, 62, 78
1, 14880, Note_on_c, 9, 40, 90
1, 14880, Note_on_c, 9, 57, 63
1, 14882, Note_on_c, 9, 57, 0
1, 14882, Note_on_c, 9, 40, 0
1, 14889, Control_c, 3, 1, 49
1, 14897, Note_on_c, 1, 33, 0
1, 14897, Control_c, 3, 1, 48
1, 14902, Control_c, 3, 1, 47
1, 14904, Control_c, 3, 1, 46
1, 14906, Control_c, 3, 1, 45
1, 14908, Control_c, 3, 1, 44
1, 14909, Control_c, 3, 1, 43
1, 14910, Control_c, 3, 1, 42
1, 14911, Control_c, 3, 1, 40
1, 14912, Control_c, 3, 1, 39
1, 14913, Control_c, 3, 1, 37
1, 14914, Control_c, 3, 1, 35
1, 14915, Control_c, 3, 1, 33
1, 14916, Control_c, 3, 1, 31
1, 14917, Control_c, 3, 1, 28
1, 14918, Control_c, 3, 1, 26
1, 14919, Control_c, 3, 1, 22
1, 14920, Control_c, 3, 1, 19
1, 14921, Control_c, 3, 1, 16
1, 14922, Control_c, 3, 1, 12
1, 14923, Control_c, 3, 1, 9
1, 14924, Control_c, 3, 1, 4
1, 14925, Control_c, 3, 1, 1
1, 14926, Note_on_c, 7, 50, 0
1, 14926, Note_on_c, 7, 62, 0
1, 14926, Note_on_c, 4, 62, 0
1, 14926, Note_on_c, 7, 57, 0
1, 14926, Note_on_c, 4, 50, 0
1, 14926, Note_on_c, 4, 57, 0
1, 14926, Control_c, 3, 1, 0
1, 14928, Note_on_c, 1, 33, 84
1, 14928, Note_on_c, 4, 50, 66
1, 14928, Note_on_c, 4, 57, 78
1, 14928, Note_on_c, 4, 62, 82
1, 14928, Note_on_c, 7, 50, 66
1, 14928, Note_on_c, 7, 57, 78
1, 14928, Note_on_c, 7, 62, 82
1, 14928, Note_on_c, 9, 49, 74
1, 14930, Note_on_c, 9, 49, 0
1, 14937, Note_on_c, 1, 33, 0
1, 14952, Note_on_c, 1, 33, 88
1, 14974, Note_on_c, 1, 33, 0
1, 14974, Note_on_c, 7, 57, 0
1, 14974, Note_on_c, 7, 50, 0
1, 14974, Note_on_c, 4, 62, 0
1, 14974, Note_on_c, 7, 62, 0
1, 14974, Note_on_c, 4, 50, 0
1, 14974, Note_on_c, 4, 57, 0
1, 14976, Note_on_c, 1, 38, 76
1, 14976, Note_on_c, 4, 50, 78
1, 14976, Note_on_c, 4, 57, 78
1, 14976, Note_on_c, 4, 62, 87
1, 14976, Note_on_c, 7, 50, 78
1, 14976, Note_on_c, 7, 57, 78
1, 14976, Note_on_c, 7, 62, 87
1, 14976, Note_on_c, 9, 35, 75
1, 14976, Note_on_c, 9, 40, 109
1, 14976, Note_on_c, 9, 51, 67
1, 14978, Note_on_c, 9, 51, 0
1, 14978, Note_on_c, 9, 40, 0
1, 14978, Note_on_c, 9, 35, 0
1, 14992, Note_on_c, 9, 40, 90
1, 14994, Note_on_c, 9, 40, 0
1, 14994, Note_on_c, 1, 38, 0
1, 15008, Note_on_c, 9, 40, 79
1, 15010, Note_on_c, 9, 40, 0
1, 15022, Note_on_c, 7, 57, 0
1, 15022, Note_on_c, 7, 50, 0
1, 15022, Note_on_c, 4, 62, 0
1, 15022, Note_on_c, 7, 62, 0
1, 15022, Note_on_c, 4, 50, 0
1, 15022, Note_on_c, 4, 57, 0
1, 15024, Note_on_c, 1, 38, 88
1, 15024, Note_on_c, 4, 50, 82
1, 15024, Note_on_c, 4, 57, 78
1, 15024, Note_on_c, 4, 62, 74
1, 15024, Note_on_c, 7, 50, 82
1, 15024, Note_on_c, 7, 57, 78
1, 15024, Note_on_c, 7, 62, 74
1, 15024, Note_on_c, 9, 40, 105
1, 15024, Note_on_c, 9, 51, 63
1, 15026, Note_on_c, 9, 51, 0
1, 15026, Note_on_c, 9, 40, 0
1, 15040, Note_on_c, 9, 40, 92
1, 15042, Note_on_c, 9, 40, 0
1, 15056, Note_on_c, 9, 40, 96
1, 15058, Note_on_c, 9, 40, 0
1, 15059, Note_on_c, 1, 38, 0
1, 15070, Note_on_c, 7, 50, 0
1, 15070, Note_on_c, 7, 62, 0
1, 15070, Note_on_c, 4, 62, 0
1, 15070, Note_on_c, 7, 57, 0
1, 15070, Note_on_c, 4, 50, 0
1, 15070, Note_on_c, 4, 57, 0
1, 15072, Note_on_c, 1, 30, 100
1, 15072, Note_on_c, 4, 50, 82
1, 15072, Note_on_c, 4, 57, 78
1, 15072, Note_on_c, 4, 62, 78
1, 15072, Note_on_c, 7, 50, 82
1, 15072, Note_on_c, 7, 57, 78
1, 15072, Note_on_c, 7, 62, 78
1, 15072, Note_on_c, 9, 40, 105
1, 15074, Note_on_c, 9, 40, 0
1, 15088, Note_on_c, 9, 48, 75
1, 15090, Note_on_c, 9, 48, 0
1, 15091, Note_on_c, 1, 30, 0
1, 15100, Note_on_c, 3, 74, 0
1, 15104, Note_on_c, 9, 47, 75
1, 15106, Note_on_c, 9, 47, 0
1, 15118, Note_on_c, 7, 62, 0
1, 15118, Note_on_c, 7, 57, 0
1, 15118, Note_on_c, 4, 62, 0
1, 15118, Note_on_c, 4, 50, 0
1, 15118, Note_on_c, 7, 50, 0
1, 15118, Note_on_c, 4, 57, 0
1, 15120, Note_on_c, 1, 30, 86
1, 15120, Note_on_c, 4, 50, 78
1, 15120, Note_on_c, 4, 57, 87
1, 15120, Note_on_c, 4, 62, 78
1, 15120, Note_on_c, 7, 50, 78
1, 15120, Note_on_c, 7, 57, 87
1, 15120, Note_on_c, 7, 62, 78
1, 15120, Note_on_c, 9, 45, 81
1, 15122, Note_on_c, 9, 45, 0
1, 15136, Note_on_c, 9, 43, 58
1, 15138, Note_on_c, 9, 43, 0
1, 15144, Note_on_c, 9, 35, 75
1, 15146, Note_on_c, 9, 35, 0
1, 15163, Note_on_c, 1, 30, 0
1, 15166, Note_on_c, 7, 57, 0
1, 15166, Note_on_c, 7, 50, 0
1, 15166, Note_on_c, 4, 50, 0
1, 15166, Note_on_c, 4, 57, 0
1, 15166, Note_on_c, 7, 62, 0
1, 15166, Note_on_c, 4, 62, 0
1, 15168, Note_on_c, 1, 26, 100
1, 15168, Note_on_c, 4, 50, 102
1, 15168, Note_on_c, 4, 57, 102
1, 15168, Note_on_c, 4, 62, 107
1, 15168, Note_on_c, 7, 50, 102
1, 15168, Note_on_c, 7, 57, 102
1, 15168, Note_on_c, 7, 62, 107
1, 15168, Note_on_c, 9, 40, 115
1, 15169, Note_on_c, 5, 86, 0
1, 15169, Note_on_c, 5, 81, 0
1, 15170, Note_on_c, 9, 40, 0
1, 15171, Note_on_c, 5, 74, 0
1, 15174, Note_on_c, 9, 40, 101
1, 15176, Note_on_c, 9, 40, 0
1, 15207, Note_on_c, 7, 50, 0
1, 15207, Note_on_c, 4, 50, 0
1, 15208, Note_on_c, 7, 62, 0
1, 15208, Note_on_c, 4, 62, 0
1, 15209, Note_on_c, 7, 57, 0
1, 15209, Note_on_c, 4, 57, 0
1, 15216, Note_on_c, 3, 77, 121
1, 15216, Note_on_c, 9, 44, 75
1, 15217, Note_on_c, 1, 26, 0
1, 15218, Note_on_c, 9, 44, 0
1, 15252, Note_on_c, 3, 77, 0
1, 15264, Note_on_c, 9, 44, 75
1, 15266, Note_on_c, 9, 44, 0
1, 15288, Note_on_c, 3, 76, 121
1, 15312, Note_on_c, 9, 44, 75
1, 15314, Note_on_c, 9, 44, 0
1, 15314, Note_on_c, 3, 76, 0
1, 15360, Note_on_c, 1, 26, 104
1, 15360, Note_on_c, 3, 74, 126
1, 15360, Note_on_c, 4, 50, 107
1, 15360, Note_on_c, 5, 62, 68
1, 15360, Note_on_c, 8, 50, 107
1, 15360, Note_on_c, 9, 35, 75
1, 15360, Note_on_c, 9, 46, 51
1, 15360, Note_on_c, 9, 51, 79
1, 15362, Note_on_c, 9, 51, 0
1, 15362, Note_on_c, 9, 46, 0
1, 15362, Note_on_c, 9, 35, 0
1, 15362, Pitch_bend_c, 3, 8582
1, 15363, Pitch_bend_c, 3, 8972
1, 15364, Pitch_bend_c, 3, 9362
1, 15365, Pitch_bend_c, 3, 9752
1, 15366, Pitch_bend_c, 3, 10142
1, 15367, Pitch_bend_c, 3, 10532
1, 15368, Pitch_bend_c, 3, 11182
1, 15369, Pitch_bend_c, 3, 11702
1, 15370, Pitch_bend_c, 3, 12092
1, 15371, Pitch_bend_c, 3, 12612
1, 15372, Pitch_bend_c, 3, 13002
1, 15373, Pitch_bend_c, 3, 13392
1, 15374, Pitch_bend_c, 3, 13652
1, 15375, Pitch_bend_c, 3, 13912
1, 15376, Pitch_bend_c, 3, 14172
1, 15377, Pitch_bend_c, 3, 14432
1, 15378, Pitch_bend_c, 3, 14562
1, 15379, Pitch_bend_c, 3, 14822
1, 15380, Pitch_bend_c, 3, 15082
1, 15381, Pitch_bend_c, 3, 15472
1, 15382, Pitch_bend_c, 3, 15602
1, 15383, Pitch_bend_c, 3, 15732
1, 15384, Pitch_bend_c, 3, 16122
1, 15385, Pitch_bend_c, 3, 16382
1, 15399, Pitch_bend_c, 3, 16252
1, 15401, Pitch_bend_c, 3, 15602
1, 15402, Pitch_bend_c, 3, 14952
1, 15403, Pitch_bend_c, 3, 14302
1, 15404, Pitch_bend_c, 3, 13522
1, 15405, Pitch_bend_c, 3, 12612
1, 15406, Pitch_bend_c, 3, 11052
1, 15407, Pitch_bend_c, 3, 8192
1, 15408, Note_on_c, 4, 57, 80
1, 15408, Note_on_c, 5, 69, 60
1, 15408, Note_on_c, 8, 57, 80
1, 15408, Note_on_c, 9, 35, 64
1, 15408, Note_on_c, 9, 46, 51
1, 15408, Note_on_c, 9, 51, 49
1, 15410, Note_on_c, 9, 51, 0
1, 15410, Note_on_c, 9, 46, 0
1, 15410, Note_on_c, 9, 35, 0
1, 15443, Note_on_c, 1, 26, 0
1, 15444, Control_c, 3, 1, 4
1, 15444, Control_c, 3, 1, 1
1, 15445, Control_c, 3, 1, 7
1, 15446, Control_c, 3, 1, 11
1, 15448, Control_c, 3, 1, 15
1, 15449, Control_c, 3, 1, 19
1, 15450, Control_c, 3, 1, 22
1, 15451, Control_c, 3, 1, 26
1, 15452, Control_c, 3, 1, 29
1, 15453, Control_c, 3, 1, 32
1, 15454, Control_c, 3, 1, 35
1, 15455, Control_c, 3, 1, 38
1, 15456, Note_on_c, 1, 30, 100
1, 15456, Control_c, 3, 1, 40
1, 15456, Note_on_c, 4, 62, 88
1, 15456, Note_on_c, 5, 74, 76
1, 15456, Note_on_c, 8, 62, 88
1, 15456, Note_on_c, 9, 40, 105
1, 15456, Note_on_c, 9, 46, 51
1, 15456, Note_on_c, 9, 49, 78
1, 15457, Control_c, 3, 1, 43
1, 15458, Note_on_c, 9, 49, 0
1, 15458, Note_on_c, 9, 46, 0
1, 15458, Note_on_c, 9, 40, 0
1, 15458, Control_c, 3, 1, 46
1, 15459, Control_c, 3, 1, 48
1, 15460, Control_c, 3, 1, 50
1, 15461, Control_c, 3, 1, 52
1, 15462, Control_c, 3, 1, 55
1, 15463, Control_c, 3, 1, 56
1, 15464, Control_c, 3, 1, 58
1, 15465, Control_c, 3, 1, 59
1, 15466, Control_c, 3, 1, 60
1, 15467, Control_c, 3, 1, 62
1, 15468, Control_c, 3, 1, 63
1, 15469, Control_c, 3, 1, 64
1, 15470, Control_c, 3, 1, 66
1, 15471, Control_c, 3, 1, 67
1, 15473, Control_c, 3, 1, 69
1, 15474, Control_c, 3, 1, 70
1, 15475, Control_c, 3, 1, 71
1, 15476, Control_c, 3, 1, 72
1, 15477, Control_c, 3, 1, 73
1, 15478, Control_c, 3, 1, 75
1, 15479, Control_c, 3, 1, 76
1, 15480, Control_c, 3, 1, 77
1, 15481, Control_c, 3, 1, 78
1, 15482, Control_c, 3, 1, 79
1, 15483, Control_c, 3, 1, 80
1, 15485, Control_c, 3, 1, 81
1, 15487, Control_c, 3, 1, 82
1, 15489, Control_c, 3, 1, 83
1, 15491, Control_c, 3, 1, 84
1, 15494, Control_c, 3, 1, 85
1, 15499, Control_c, 3, 1, 86
1, 15504, Control_c, 3, 1, 87
1, 15504, Note_on_c, 9, 46, 51
1, 15504, Note_on_c, 9, 51, 47
1, 15506, Note_on_c, 9, 51, 0
1, 15506, Note_on_c, 9, 46, 0
1, 15510, Note_on_c, 1, 30, 0
1, 15519, Control_c, 3, 1, 86
1, 15523, Control_c, 3, 1, 85
1, 15524, Control_c, 3, 1, 84
1, 15527, Control_c, 3, 1, 82
1, 15528, Note_on_c, 1, 38, 66
1, 15529, Control_c, 3, 1, 81
1, 15530, Note_on_c, 8, 50, 0
1, 15530, Note_on_c, 4, 50, 0
1, 15531, Control_c, 3, 1, 80
1, 15532, Control_c, 3, 1, 79
1, 15533, Control_c, 3, 1, 77
1, 15534, Control_c, 3, 1, 75
1, 15535, Control_c, 3, 1, 72
1, 15536, Control_c, 3, 1, 68
1, 15537, Note_on_c, 1, 38, 0
1, 15537, Control_c, 3, 1, 64
1, 15538, Control_c, 3, 1, 60
1, 15539, Control_c, 3, 1, 57
1, 15540, Control_c, 3, 1, 53
1, 15542, Control_c, 3, 1, 48
1, 15543, Control_c, 3, 1, 44
1, 15544, Note_on_c, 5, 62, 0
1, 15544, Control_c, 3, 1, 39
1, 15545, Control_c, 3, 1, 27
1, 15545, Control_c, 3, 1, 34
1, 15547, Control_c, 3, 1, 21
1, 15548, Note_on_c, 3, 74, 0
1, 15548, Control_c, 3, 1, 15
1, 15549, Control_c, 3, 1, 9
1, 15550, Control_c, 3, 1, 2
1, 15551, Control_c, 3, 1, 0
1, 15552, Note_on_c, 1, 24, 96
1, 15552, Note_on_c, 4, 48, 102
1, 15552, Note_on_c, 5, 60, 68
1, 15552, Note_on_c, 8, 48, 102
1, 15552, Note_on_c, 9, 35, 75
1, 15552, Note_on_c, 9, 46, 51
1, 15552, Note_on_c, 9, 51, 57
1, 15554, Note_on_c, 9, 51, 0
1, 15554, Note_on_c, 9, 46, 0
1, 15554, Note_on_c, 9, 35, 0
1, 15581, Note_on_c, 5, 69, 0
1, 15583, Note_on_c, 4, 57, 0
1, 15583, Note_on_c, 8, 57, 0
1, 15591, Note_on_c, 4, 62, 0
1, 15591, Note_on_c, 8, 62, 0
1, 15600, Note_on_c, 3, 72, 121
1, 15600, Note_on_c, 4, 55, 88
1, 15600, Note_on_c, 5, 67, 62
1, 15600, Note_on_c, 8, 55, 88
1, 15600, Note_on_c, 9, 35, 59
1, 15600, Note_on_c, 9, 46, 51
1, 15600, Note_on_c, 9, 51, 59
1, 15602, Note_on_c, 9, 51, 0
1, 15602, Note_on_c, 9, 35, 0
1, 15602, Note_on_c, 9, 46, 0
1, 15619, Note_on_c, 5, 74, 0
1, 15646, Note_on_c, 3, 72, 0
1, 15648, Note_on_c, 3, 71, 98
1, 15648, Note_on_c, 4, 62, 97
1, 15648, Note_on_c, 5, 74, 68
1, 15648, Note_on_c, 8, 62, 97
1, 15648, Note_on_c, 9, 40, 105
1, 15648, Note_on_c, 9, 46, 51
1, 15648, Note_on_c, 9, 51, 53
1, 15650, Note_on_c, 9, 51, 0
1, 15650, Note_on_c, 9, 46, 0
1, 15650, Note_on_c, 9, 40, 0
1, 15680, Note_on_c, 1, 24, 0
1, 15691, Note_on_c, 3, 71, 0
1, 15696, Note_on_c, 1, 26, 100
1, 15696, Note_on_c, 3, 69, 82
1, 15696, Note_on_c, 9, 46, 51
1, 15696, Note_on_c, 9, 51, 43
1, 15698, Note_on_c, 9, 51, 0
1, 15698, Note_on_c, 9, 46, 0
1, 15739, Note_on_c, 8, 48, 0
1, 15739, Note_on_c, 4, 48, 0
1, 15741, Note_on_c, 3, 69, 0
1, 15742, Note_on_c, 1, 26, 0
1, 15744, Note_on_c, 1, 31, 100
1, 15744, Note_on_c, 3, 67, 98
1, 15744, Control_c, 3, 1, 2
1, 15744, Control_c, 3, 1, 1
1, 15744, Note_on_c, 4, 47, 88
1, 15744, Note_on_c, 5, 59, 68
1, 15744, Note_on_c, 8, 47, 88
1, 15744, Note_on_c, 9, 35, 75
1, 15744, Note_on_c, 9, 46, 51
1, 15744, Note_on_c, 9, 51, 45
1, 15745, Control_c, 3, 1, 4
1, 15746, Note_on_c, 9, 51, 0
1, 15746, Note_on_c, 9, 46, 0
1, 15746, Note_on_c, 9, 35, 0
1, 15747, Control_c, 3, 1, 6
1, 15748, Note_on_c, 5, 60, 0
1, 15748, Control_c, 3, 1, 9
1, 15749, Control_c, 3, 1, 11
1, 15750, Control_c, 3, 1, 15
1, 15751, Control_c, 3, 1, 18
1, 15752, Control_c, 3, 1, 21
1, 15753, Note_on_c, 4, 62, 0
1, 15753, Note_on_c, 8, 62, 0
1, 15753, Note_on_c, 8, 55, 0
1, 15753, Note_on_c, 4, 55, 0
1, 15753, Control_c, 3, 1, 25
1, 15754, Control_c, 3, 1, 28
1, 15755, Control_c, 3, 1, 32
1, 15756, Control_c, 3, 1, 35
1, 15757, Control_c, 3, 1, 37
1, 15758, Control_c, 3, 1, 40
1, 15759, Control_c, 3, 1, 41
1, 15760, Control_c, 3, 1, 43
1, 15761, Control_c, 3, 1, 44
1, 15762, Control_c, 3, 1, 45
1, 15763, Control_c, 3, 1, 46
1, 15764, Control_c, 3, 1, 47
1, 15765, Control_c, 3, 1, 48
1, 15767, Control_c, 3, 1, 49
1, 15769, Control_c, 3, 1, 51
1, 15770, Control_c, 3, 1, 52
1, 15771, Control_c, 3, 1, 54
1, 15772, Control_c, 3, 1, 56
1, 15774, Control_c, 3, 1, 57
1, 15777, Control_c, 3, 1, 58
1, 15780, Control_c, 3, 1, 59
1, 15789, Control_c, 3, 1, 58
1, 15792, Control_c, 3, 1, 57
1, 15792, Note_on_c, 4, 55, 88
1, 15792, Note_on_c, 8, 55, 88
1, 15792, Note_on_c, 9, 35, 61
1, 15792, Note_on_c, 9, 46, 51
1, 15792, Note_on_c, 9, 51, 41
1, 15794, Note_on_c, 9, 51, 0
1, 15794, Note_on_c, 9, 35, 0
1, 15794, Note_on_c, 9, 46, 0
1, 15794, Control_c, 3, 1, 56
1, 15796, Control_c, 3, 1, 55
1, 15797, Control_c, 3, 1, 54
1, 15798, Control_c, 3, 1, 52
1, 15799, Control_c, 3, 1, 51
1, 15800, Control_c, 3, 1, 49
1, 15801, Control_c, 3, 1, 48
1, 15802, Control_c, 3, 1, 46
1, 15803, Control_c, 3, 1, 43
1, 15804, Control_c, 3, 1, 41
1, 15805, Control_c, 3, 1, 38
1, 15806, Control_c, 3, 1, 34
1, 15808, Control_c, 3, 1, 26
1, 15808, Control_c, 3, 1, 30
1, 15810, Control_c, 3, 1, 20
1, 15811, Control_c, 3, 1, 13
1, 15812, Control_c, 3, 1, 5
1, 15813, Control_c, 3, 1, 0
1, 15822, Note_on_c, 3, 67, 0
1, 15840, Note_on_c, 4, 62, 97
1, 15840, Note_on_c, 8, 62, 97
1, 15840, Note_on_c, 9, 40, 105
1, 15840, Note_on_c, 9, 46, 51
1, 15840, Note_on_c, 9, 51, 63
1, 15842, Note_on_c, 9, 51, 0
1, 15842, Note_on_c, 9, 46, 0
1, 15842, Note_on_c, 9, 40, 0
1, 15868, Note_on_c, 5, 67, 0
1, 15888, Note_on_c, 9, 46, 51
1, 15888, Note_on_c, 9, 51, 63
1, 15890, Note_on_c, 9, 51, 0
1, 15890, Note_on_c, 9, 46, 0
1, 15913, Note_on_c, 4, 55, 0
1, 15913, Note_on_c, 8, 55, 0
1, 15927, Note_on_c, 5, 74, 0
1, 15929, Note_on_c, 5, 59, 0
1, 15931, Note_on_c, 1, 31, 0
1, 15934, Note_on_c, 8, 62, 0
1, 15934, Note_on_c, 4, 47, 0
1, 15934, Note_on_c, 4, 62, 0
1, 15934, Note_on_c, 8, 47, 0
1, 15936, Note_on_c, 1, 34, 86
1, 15936, Note_on_c, 4, 46, 88
1, 15936, Note_on_c, 4, 53, 80
1, 15936, Note_on_c, 4, 58, 97
1, 15936, Note_on_c, 5, 77, 80
1, 15936, Note_on_c, 5, 82, 66
1, 15936, Note_on_c, 5, 74, 52
1, 15936, Note_on_c, 8, 58, 97
1, 15936, Note_on_c, 8, 53, 80
1, 15936, Note_on_c, 8, 46, 88
1, 15936, Note_on_c, 9, 35, 75
1, 15936, Note_on_c, 9, 46, 51
1, 15936, Note_on_c, 9, 49, 74
1, 15938, Note_on_c, 9, 49, 0
1, 15938, Note_on_c, 9, 46, 0
1, 15938, Note_on_c, 9, 35, 0
1, 15984, Note_on_c, 3, 67, 121
1, 15984, Note_on_c, 9, 35, 61
1, 15984, Note_on_c, 9, 46, 51
1, 15984, Note_on_c, 9, 51, 49
1, 15986, Note_on_c, 9, 51, 0
1, 15986, Note_on_c, 9, 46, 0
1, 15986, Note_on_c, 9, 35, 0
1, 16007, Note_on_c, 5, 77, 0
1, 16007, Note_on_c, 5, 82, 0
1, 16021, Note_on_c, 4, 58, 0
1, 16021, Note_on_c, 8, 58, 0
1, 16026, Note_on_c, 5, 74, 0
1, 16032, Note_on_c, 8, 53, 0
1, 16032, Note_on_c, 4, 53, 0
1, 16032, Note_on_c, 1, 33, 92
1, 16032, Note_on_c, 4, 48, 102
1, 16032, Note_on_c, 4, 55, 92
1, 16032, Note_on_c, 4, 60, 97
1, 16032, Note_on_c, 5, 79, 37
1, 16032, Note_on_c, 5, 76, 66
1, 16032, Note_on_c, 5, 84, 80
1, 16032, Note_on_c, 8, 55, 92
1, 16032, Note_on_c, 8, 60, 97
1, 16032, Note_on_c, 8, 48, 102
1, 16032, Note_on_c, 9, 40, 105
1, 16032, Note_on_c, 9, 46, 51
1, 16032, Note_on_c, 9, 57, 67
1, 16034, Note_on_c, 9, 57, 0
1, 16034, Note_on_c, 9, 46, 0
1, 16034, Note_on_c, 9, 40, 0
1, 16038, Note_on_c, 4, 46, 0
1, 16038, Note_on_c, 8, 46, 0
1, 16038, Note_on_c, 1, 34, 0
1, 16048, Note_on_c, 3, 67, 0
1, 16056, Note_on_c, 3, 69, 102
1, 16080, Note_on_c, 9, 46, 51
1, 16080, Note_on_c, 9, 51, 17
1, 16082, Note_on_c, 9, 51, 0
1, 16082, Note_on_c, 9, 46, 0
1, 16104, Note_on_c, 9, 40, 90
1, 16106, Note_on_c, 9, 40, 0
1, 16117, Note_on_c, 1, 33, 0
1, 16117, Note_on_c, 5, 76, 0
1, 16120, Note_on_c, 5, 79, 0
1, 16121, Note_on_c, 5, 84, 0
1, 16128, Note_on_c, 1, 38, 100
1, 16128, Note_on_c, 3, 64, 102
1, 16128, Note_on_c, 4, 50, 102
1, 16128, Note_on_c, 8, 50, 102
1, 16128, Note_on_c, 9, 35, 75
1, 16128, Note_on_c, 9, 46, 51
1, 16128, Note_on_c, 9, 51, 75
1, 16129, Note_on_c, 3, 69, 0
1, 16130, Note_on_c, 9, 51, 0
1, 16130, Note_on_c, 9, 35, 0
1, 16130, Note_on_c, 9, 46, 0
1, 16133, Note_on_c, 4, 60, 0
1, 16133, Note_on_c, 8, 60, 0
1, 16134, Note_on_c, 8, 48, 0
1, 16134, Note_on_c, 4, 48, 0
1, 16135, Note_on_c, 8, 55, 0
1, 16135, Note_on_c, 4, 55, 0
1, 16139, Pitch_bend_c, 3, 8192
1, 16140, Pitch_bend_c, 3, 8582
1, 16141, Pitch_bend_c, 3, 8972
1, 16141, Pitch_bend_c, 3, 8842
1, 16143, Pitch_bend_c, 3, 9232
1, 16144, Pitch_bend_c, 3, 9492
1, 16146, Pitch_bend_c, 3, 9622
1, 16147, Pitch_bend_c, 3, 9882
1, 16148, Pitch_bend_c, 3, 10012
1, 16149, Pitch_bend_c, 3, 10272
1, 16150, Pitch_bend_c, 3, 10402
1, 16151, Pitch_bend_c, 3, 10662
1, 16152, Pitch_bend_c, 3, 10792
1, 16153, Pitch_bend_c, 3, 11052
1, 16154, Pitch_bend_c, 3, 11312
1, 16155, Pitch_bend_c, 3, 11442
1, 16156, Pitch_bend_c, 3, 11702
1, 16157, Pitch_bend_c, 3, 11832
1, 16158, Pitch_bend_c, 3, 11962
1, 16159, Pitch_bend_c, 3, 12092
1, 16160, Pitch_bend_c, 3, 12092
1, 16161, Pitch_bend_c, 3, 12222
1, 16162, Pitch_bend_c, 3, 12352
1, 16163, Pitch_bend_c, 3, 12352
1, 16164, Pitch_bend_c, 3, 12482
1, 16165, Pitch_bend_c, 3, 12482
1, 16166, Pitch_bend_c, 3, 12612
1, 16167, Pitch_bend_c, 3, 12612
1, 16168, Pitch_bend_c, 3, 12612
1, 16169, Pitch_bend_c, 3, 12742
1, 16170, Pitch_bend_c, 3, 12742
1, 16171, Pitch_bend_c, 3, 12742
1, 16172, Pitch_bend_c, 3, 12872
1, 16173, Pitch_bend_c, 3, 12872
1, 16174, Pitch_bend_c, 3, 12872
1, 16175, Pitch_bend_c, 3, 13002
1, 16176, Pitch_bend_c, 3, 13002
1, 16176, Note_on_c, 4, 57, 92
1, 16176, Note_on_c, 8, 57, 92
1, 16176, Note_on_c, 9, 35, 56
1, 16176, Note_on_c, 9, 46, 51
1, 16176, Note_on_c, 9, 51, 41
1, 16177, Pitch_bend_c, 3, 13132
1, 16178, Note_on_c, 9, 51, 0
1, 16178, Note_on_c, 9, 46, 0
1, 16178, Note_on_c, 9, 35, 0
1, 16178, Pitch_bend_c, 3, 13132
1, 16179, Pitch_bend_c, 3, 13132
1, 16180, Pitch_bend_c, 3, 13132
1, 16185, Pitch_bend_c, 3, 12872
1, 16187, Pitch_bend_c, 3, 12482
1, 16188, Pitch_bend_c, 3, 12222
1, 16189, Pitch_bend_c, 3, 11962
1, 16191, Pitch_bend_c, 3, 11442
1, 16193, Pitch_bend_c, 3, 10922
1, 16194, Pitch_bend_c, 3, 10662
1, 16196, Pitch_bend_c, 3, 10402
1, 16198, Pitch_bend_c, 3, 10142
1, 16201, Pitch_bend_c, 3, 9882
1, 16204, Pitch_bend_c, 3, 9622
1, 16207, Pitch_bend_c, 3, 9232
1, 16209, Pitch_bend_c, 3, 8972
1, 16211, Pitch_bend_c, 3, 8452
1, 16212, Pitch_bend_c, 3, 8192
1, 16224, Note_on_c, 4, 62, 97
1, 16224, Note_on_c, 5, 84, 88
1, 16224, Note_on_c, 8, 62, 97
1, 16224, Note_on_c, 9, 40, 105
1, 16224, Note_on_c, 9, 46, 51
1, 16224, Note_on_c, 9, 51, 83
1, 16226, Note_on_c, 9, 51, 0
1, 16226, Note_on_c, 9, 40, 0
1, 16226, Note_on_c, 9, 46, 0
1, 16229, Note_on_c, 3, 64, 0
1, 16248, Note_on_c, 5, 83, 72
1, 16249, Note_on_c, 1, 38, 0
1, 16255, Note_on_c, 5, 84, 0
1, 16272, Note_on_c, 1, 40, 74
1, 16272, Note_on_c, 5, 81, 80
1, 16272, Note_on_c, 9, 46, 51
1, 16272, Note_on_c, 9, 51, 41
1, 16274, Note_on_c, 9, 51, 0
1, 16274, Note_on_c, 9, 46, 0
1, 16276, Note_on_c, 5, 83, 0
1, 16290, Note_on_c, 1, 40, 0
1, 16291, Note_on_c, 5, 81, 0
1, 16296, Note_on_c, 1, 38, 78
1, 16296, Note_on_c, 5, 79, 72
1, 16296, Note_on_c, 9, 40, 90
1, 16298, Note_on_c, 9, 40, 0
1, 16304, Note_on_c, 1, 38, 0
1, 16317, Note_on_c, 8, 50, 0
1, 16317, Note_on_c, 4, 50, 0
1, 16320, Note_on_c, 1, 36, 86
1, 16320, Note_on_c, 4, 48, 102
1, 16320, Note_on_c, 8, 48, 102
1, 16320, Note_on_c, 9, 35, 75
1, 16320, Note_on_c, 9, 46, 51
1, 16320, Note_on_c, 9, 51, 47
1, 16322, Note_on_c, 9, 51, 0
1, 16322, Note_on_c, 9, 46, 0
1, 16322, Note_on_c, 9, 35, 0
1, 16333, Note_on_c, 4, 57, 0
1, 16333, Note_on_c, 8, 57, 0
1, 16342, Note_on_c, 1, 36, 0
1, 16363, Note_on_c, 8, 62, 0
1, 16363, Note_on_c, 4, 62, 0
1, 16368, Note_on_c, 1, 36, 88
1, 16368, Note_on_c, 4, 55, 88
1, 16368, Note_on_c, 8, 55, 88
1, 16368, Note_on_c, 9, 35, 56
1, 16368, Note_on_c, 9, 46, 51
1, 16368, Note_on_c, 9, 51, 63
1, 16370, Note_on_c, 9, 51, 0
1, 16370, Note_on_c, 9, 46, 0
1, 16370, Note_on_c, 9, 35, 0
1, 16414, Note_on_c, 1, 36, 0
1, 16416, Note_on_c, 4, 62, 92
1, 16416, Note_on_c, 8, 62, 92
1, 16416, Note_on_c, 9, 40, 105
1, 16416, Note_on_c, 9, 46, 51
1, 16416, Note_on_c, 9, 49, 66
1, 16418, Note_on_c, 9, 49, 0
1, 16418, Note_on_c, 9, 46, 0
1, 16418, Note_on_c, 9, 40, 0
1, 16440, Note_on_c, 1, 36, 76
1, 16464, Note_on_c, 9, 46, 51
1, 16464, Note_on_c, 9, 51, 41
1, 16466, Note_on_c, 9, 51, 0
1, 16466, Note_on_c, 9, 46, 0
1, 16486, Note_on_c, 1, 36, 0
1, 16511, Note_on_c, 8, 48, 0
1, 16511, Note_on_c, 4, 48, 0
1, 16512, Note_on_c, 1, 35, 88
1, 16512, Note_on_c, 4, 47, 88
1, 16512, Note_on_c, 5, 71, 64
1, 16512, Note_on_c, 5, 74, 54
1, 16512, Note_on_c, 8, 47, 88
1, 16512, Note_on_c, 9, 35, 75
1, 16512, Note_on_c, 9, 46, 51
1, 16512, Note_on_c, 9, 51, 59
1, 16514, Note_on_c, 9, 51, 0
1, 16514, Note_on_c, 9, 46, 0
1, 16514, Note_on_c, 9, 35, 0
1, 16526, Note_on_c, 8, 55, 0
1, 16526, Note_on_c, 4, 55, 0
1, 16533, Note_on_c, 1, 35, 0
1, 16560, Note_on_c, 1, 35, 84
1, 16560, Note_on_c, 4, 55, 84
1, 16560, Note_on_c, 8, 55, 84
1, 16560, Note_on_c, 9, 35, 54
1, 16560, Note_on_c, 9, 46, 51
1, 16560, Note_on_c, 9, 51, 53
1, 16561, Note_on_c, 4, 62, 0
1, 16561, Note_on_c, 8, 62, 0
1, 16562, Note_on_c, 9, 35, 0
1, 16562, Note_on_c, 9, 46, 0
1, 16562, Note_on_c, 9, 51, 0
1, 16608, Note_on_c, 4, 62, 97
1, 16608, Note_on_c, 8, 62, 97
1, 16608, Note_on_c, 9, 40, 105
1, 16608, Note_on_c, 9, 46, 51
1, 16608, Note_on_c, 9, 51, 67
1, 16610, Note_on_c, 9, 51, 0
1, 16610, Note_on_c, 9, 46, 0
1, 16610, Note_on_c, 9, 40, 0
1, 16656, Note_on_c, 9, 46, 51
1, 16656, Note_on_c, 9, 51, 43
1, 16658, Note_on_c, 9, 51, 0
1, 16658, Note_on_c, 9, 46, 0
1, 16663, Note_on_c, 5, 71, 0
1, 16690, Note_on_c, 4, 55, 0
1, 16690, Note_on_c, 8, 55, 0
1, 16695, Note_on_c, 8, 47, 0
1, 16695, Note_on_c, 4, 47, 0
1, 16696, Note_on_c, 1, 35, 0
1, 16698, Note_on_c, 8, 62, 0
1, 16698, Note_on_c, 4, 62, 0
1, 16699, Note_on_c, 5, 79, 0
1, 16704, Note_on_c, 1, 34, 100
1, 16704, Note_on_c, 4, 46, 84
1, 16704, Note_on_c, 4, 53, 72
1, 16704, Note_on_c, 4, 58, 97
1, 16704, Note_on_c, 5, 70, 54
1, 16704, Note_on_c, 5, 77, 64
1, 16704, Note_on_c, 8, 58, 97
1, 16704, Note_on_c, 8, 53, 72
1, 16704, Note_on_c, 8, 46, 84
1, 16704, Note_on_c, 9, 35, 75
1, 16704, Note_on_c, 9, 46, 51
1, 16704, Note_on_c, 9, 51, 67
1, 16706, Note_on_c, 9, 51, 0
1, 16706, Note_on_c, 9, 46, 0
1, 16706, Note_on_c, 9, 35, 0
1, 16752, Note_on_c, 3, 77, 116
1, 16752, Note_on_c, 9, 35, 54
1, 16752, Note_on_c, 9, 46, 51
1, 16752, Note_on_c, 9, 49, 78
1, 16754, Note_on_c, 9, 49, 0
1, 16754, Note_on_c, 9, 46, 0
1, 16754, Note_on_c, 9, 35, 0
1, 16780, Note_on_c, 4, 58, 0
1, 16780, Note_on_c, 8, 58, 0
1, 16783, Note_on_c, 8, 53, 0
1, 16783, Note_on_c, 4, 53, 0
1, 16784, Note_on_c, 5, 70, 0
1, 16799, Note_on_c, 4, 46, 0
1, 16799, Note_on_c, 8, 46, 0
1, 16800, Note_on_c, 5, 77, 0
1, 16800, Note_on_c, 1, 36, 104
1, 16800, Note_on_c, 3, 76, 121
1, 16800, Note_on_c, 4, 48, 92
1, 16800, Note_on_c, 4, 55, 97
1, 16800, Note_on_c, 4, 60, 97
1, 16800, Note_on_c, 5, 72, 60
1, 16800, Note_on_c, 5, 79, 56
1, 16800, Note_on_c, 5, 76, 64
1, 16800, Note_on_c, 8, 60, 97
1, 16800, Note_on_c, 8, 55, 97
1, 16800, Note_on_c, 8, 48, 92
1, 16800, Note_on_c, 9, 40, 105
1, 16800, Note_on_c, 9, 46, 51
1, 16800, Note_on_c, 9, 51, 39
1, 16802, Note_on_c, 9, 51, 0
1, 16802, Note_on_c, 9, 46, 0
1, 16802, Note_on_c, 9, 40, 0
1, 16805, Note_on_c, 3, 77, 0
1, 16806, Note_on_c, 1, 34, 0
1, 16806, Note_on_c, 5, 74, 0
1, 16827, Note_on_c, 3, 76, 0
1, 16848, Note_on_c, 3, 74, 126
1, 16848, Note_on_c, 9, 45, 75
1, 16848, Note_on_c, 9, 46, 51
1, 16848, Note_on_c, 9, 57, 71
1, 16850, Note_on_c, 9, 57, 0
1, 16850, Note_on_c, 9, 46, 0
1, 16850, Note_on_c, 9, 45, 0
1, 16857, Pitch_bend_c, 3, 8322
1, 16858, Pitch_bend_c, 3, 8712
1, 16859, Pitch_bend_c, 3, 9102
1, 16860, Pitch_bend_c, 3, 9622
1, 16861, Pitch_bend_c, 3, 10012
1, 16862, Pitch_bend_c, 3, 10532
1, 16863, Pitch_bend_c, 3, 11182
1, 16864, Pitch_bend_c, 3, 11702
1, 16865, Pitch_bend_c, 3, 12222
1, 16866, Pitch_bend_c, 3, 12742
1, 16867, Pitch_bend_c, 3, 13132
1, 16868, Pitch_bend_c, 3, 13652
1, 16869, Pitch_bend_c, 3, 14042
1, 16870, Pitch_bend_c, 3, 14432
1, 16871, Pitch_bend_c, 3, 14822
1, 16872, Pitch_bend_c, 3, 15342
1, 16872, Note_on_c, 9, 43, 75
1, 16873, Pitch_bend_c, 3, 15732
1, 16874, Note_on_c, 9, 43, 0
1, 16874, Pitch_bend_c, 3, 16122
1, 16875, Pitch_bend_c, 3, 16382
1, 16892, Note_on_c, 5, 72, 0
1, 16894, Note_on_c, 4, 48, 0
1, 16894, Note_on_c, 8, 48, 0
1, 16895, Note_on_c, 5, 76, 0
1, 16896, Note_on_c, 1, 38, 84
1, 16896, Note_on_c, 4, 50, 97
1, 16896, Note_on_c, 5, 74, 72
1, 16896, Note_on_c, 8, 50, 97
1, 16896, Note_on_c, 9, 35, 75
1, 16896, Note_on_c, 9, 46, 51
1, 16896, Note_on_c, 9, 49, 82
1, 16896, Note_on_c, 9, 51, 75
1, 16898, Note_on_c, 9, 51, 0
1, 16898, Note_on_c, 9, 35, 0
1, 16898, Note_on_c, 9, 49, 0
1, 16898, Note_on_c, 5, 79, 0
1, 16898, Note_on_c, 9, 46, 0
1, 16898, Pitch_bend_c, 3, 16252
1, 16899, Pitch_bend_c, 3, 15082
1, 16900, Pitch_bend_c, 3, 13782
1, 16901, Note_on_c, 1, 36, 0
1, 16901, Pitch_bend_c, 3, 11832
1, 16902, Pitch_bend_c, 3, 8192
1, 16904, Pitch_bend_c, 3, 8192
1, 16907, Note_on_c, 4, 50, 0
1, 16907, Note_on_c, 8, 50, 0
1, 16910, Note_on_c, 4, 60, 0
1, 16910, Note_on_c, 8, 60, 0
1, 16918, Note_on_c, 8, 55, 0
1, 16918, Note_on_c, 4, 55, 0
1, 16919, Note_on_c, 1, 38, 0
1, 16920, Note_on_c, 4, 50, 88
1, 16920, Note_on_c, 8, 50, 88
1, 16940, Control_c, 3, 1, 3
1, 16941, Control_c, 3, 1, 7
1, 16942, Control_c, 3, 1, 12
1, 16943, Control_c, 3, 1, 17
1, 16944, Note_on_c, 1, 38, 76
1, 16944, Control_c, 3, 1, 24
1, 16944, Note_on_c, 4, 57, 97
1, 16944, Note_on_c, 8, 57, 97
1, 16944, Note_on_c, 9, 35, 64
1, 16944, Note_on_c, 9, 46, 51
1, 16944, Note_on_c, 9, 51, 34
1, 16945, Control_c, 3, 1, 30
1, 16946, Note_on_c, 9, 51, 0
1, 16946, Note_on_c, 9, 46, 0
1, 16946, Note_on_c, 9, 35, 0
1, 16946, Control_c, 3, 1, 35
1, 16947, Control_c, 3, 1, 40
1, 16948, Control_c, 3, 1, 44
1, 16949, Control_c, 3, 1, 47
1, 16950, Control_c, 3, 1, 50
1, 16951, Control_c, 3, 1, 53
1, 16952, Control_c, 3, 1, 56
1, 16953, Control_c, 3, 1, 57
1, 16955, Control_c, 3, 1, 59
1, 16956, Control_c, 3, 1, 61
1, 16957, Control_c, 3, 1, 63
1, 16958, Control_c, 3, 1, 65
1, 16959, Control_c, 3, 1, 67
1, 16960, Control_c, 3, 1, 69
1, 16961, Control_c, 3, 1, 71
1, 16962, Control_c, 3, 1, 73
1, 16963, Control_c, 3, 1, 75
1, 16964, Control_c, 3, 1, 77
1, 16965, Control_c, 3, 1, 79
1, 16966, Control_c, 3, 1, 80
1, 16967, Control_c, 3, 1, 81
1, 16968, Control_c, 3, 1, 82
1, 16970, Control_c, 3, 1, 83
1, 16971, Control_c, 3, 1, 84
1, 16974, Control_c, 3, 1, 85
1, 16979, Control_c, 3, 1, 86
1, 16988, Control_c, 3, 1, 85
1, 16990, Note_on_c, 1, 38, 0
1, 16990, Control_c, 3, 1, 84
1, 16991, Control_c, 3, 1, 83
1, 16992, Note_on_c, 1, 45, 104
1, 16992, Control_c, 3, 1, 81
1, 16992, Note_on_c, 4, 62, 97
1, 16992, Note_on_c, 8, 62, 97
1, 16992, Note_on_c, 9, 40, 105
1, 16992, Note_on_c, 9, 46, 51
1, 16992, Note_on_c, 9, 49, 56
1, 16993, Control_c, 3, 1, 79
1, 16994, Note_on_c, 9, 49, 0
1, 16994, Note_on_c, 9, 40, 0
1, 16994, Note_on_c, 9, 46, 0
1, 16994, Control_c, 3, 1, 76
1, 16995, Control_c, 3, 1, 72
1, 16996, Control_c, 3, 1, 69
1, 16997, Note_on_c, 3, 74, 0
1, 16998, Control_c, 3, 1, 65
1, 16999, Control_c, 3, 1, 62
1, 17000, Control_c, 3, 1, 58
1, 17001, Control_c, 3, 1, 53
1, 17002, Control_c, 3, 1, 44
1, 17003, Control_c, 3, 1, 37
1, 17004, Control_c, 3, 1, 30
1, 17005, Control_c, 3, 1, 20
1, 17006, Control_c, 3, 1, 12
1, 17007, Control_c, 3, 1, 1
1, 17008, Control_c, 3, 1, 0
1, 17033, Note_on_c, 1, 45, 0
1, 17040, Note_on_c, 1, 42, 108
1, 17040, Note_on_c, 9, 46, 51
1, 17040, Note_on_c, 9, 51, 57
1, 17042, Note_on_c, 9, 51, 0
1, 17042, Note_on_c, 9, 46, 0
1, 17055, Note_on_c, 1, 42, 0
1, 17064, Note_on_c, 1, 38, 88
1, 17064, Note_on_c, 9, 40, 90
1, 17066, Note_on_c, 9, 40, 0
1, 17074, Note_on_c, 8, 50, 0
1, 17074, Note_on_c, 4, 50, 0
1, 17081, Note_on_c, 1, 38, 0
1, 17088, Note_on_c, 1, 36, 84
1, 17088, Note_on_c, 4, 48, 102
1, 17088, Note_on_c, 8, 48, 102
1, 17088, Note_on_c, 9, 35, 75
1, 17088, Note_on_c, 9, 46, 51
1, 17088, Note_on_c, 9, 51, 63
1, 17090, Note_on_c, 9, 51, 0
1, 17090, Note_on_c, 9, 46, 0
1, 17090, Note_on_c, 9, 35, 0
1, 17118, Note_on_c, 1, 36, 0
1, 17130, Note_on_c, 8, 57, 0
1, 17130, Note_on_c, 4, 57, 0
1, 17136, Note_on_c, 1, 36, 100
1, 17136, Note_on_c, 3, 72, 111
1, 17136, Note_on_c, 4, 55, 88
1, 17136, Note_on_c, 8, 55, 88
1, 17136, Note_on_c, 9, 35, 59
1, 17136, Note_on_c, 9, 46, 51
1, 17138, Note_on_c, 9, 46, 0
1, 17138, Note_on_c, 9, 35, 0
1, 17140, Note_on_c, 8, 62, 0
1, 17140, Note_on_c, 4, 62, 0
1, 17181, Note_on_c, 1, 36, 0
1, 17184, Note_on_c, 3, 71, 102
1, 17184, Note_on_c, 4, 62, 92
1, 17184, Note_on_c, 8, 62, 92
1, 17184, Note_on_c, 9, 40, 105
1, 17184, Note_on_c, 9, 46, 51
1, 17184, Note_on_c, 9, 51, 71
1, 17186, Note_on_c, 9, 51, 0
1, 17186, Note_on_c, 9, 40, 0
1, 17186, Note_on_c, 9, 46, 0
1, 17189, Note_on_c, 3, 72, 0
1, 17208, Note_on_c, 1, 36, 88
1, 17222, Note_on_c, 3, 71, 0
1, 17232, Note_on_c, 3, 69, 102
1, 17232, Note_on_c, 9, 46, 51
1, 17232, Note_on_c, 9, 51, 57
1, 17234, Note_on_c, 9, 51, 0
1, 17234, Note_on_c, 9, 46, 0
1, 17276, Note_on_c, 1, 36, 0
1, 17276, Note_on_c, 3, 69, 0
1, 17280, Note_on_c, 1, 35, 96
1, 17280, Note_on_c, 3, 67, 102
1, 17280, Note_on_c, 4, 47, 92
1, 17280, Note_on_c, 8, 47, 92
1, 17280, Note_on_c, 9, 35, 75
1, 17280, Note_on_c, 9, 46, 51
1, 17280, Note_on_c, 9, 51, 55
1, 17282, Note_on_c, 9, 51, 0
1, 17282, Note_on_c, 9, 46, 0
1, 17282, Note_on_c, 9, 35, 0
1, 17284, Note_on_c, 4, 48, 0
1, 17284, Note_on_c, 8, 48, 0
1, 17292, Note_on_c, 8, 55, 0
1, 17292, Note_on_c, 4, 55, 0
1, 17318, Note_on_c, 3, 67, 0
1, 17325, Note_on_c, 1, 35, 0
1, 17328, Note_on_c, 4, 62, 0
1, 17328, Note_on_c, 8, 62, 0
1, 17328, Note_on_c, 1, 33, 88
1, 17328, Note_on_c, 3, 67, 98
1, 17328, Note_on_c, 4, 55, 84
1, 17328, Note_on_c, 8, 55, 84
1, 17328, Note_on_c, 9, 35, 61
1, 17328, Note_on_c, 9, 46, 51
1, 17328, Note_on_c, 9, 51, 55
1, 17330, Note_on_c, 9, 51, 0
1, 17330, Note_on_c, 9, 46, 0
1, 17330, Note_on_c, 9, 35, 0
1, 17372, Note_on_c, 1, 33, 0
1, 17376, Note_on_c, 1, 31, 86
1, 17376, Note_on_c, 4, 62, 97
1, 17376, Note_on_c, 8, 62, 97
1, 17376, Note_on_c, 9, 40, 105
1, 17376, Note_on_c, 9, 46, 51
1, 17376, Note_on_c, 9, 51, 33
1, 17378, Note_on_c, 9, 51, 0
1, 17378, Note_on_c, 9, 40, 0
1, 17378, Note_on_c, 9, 46, 0
1, 17404, Note_on_c, 3, 67, 0
1, 17424, Note_on_c, 9, 46, 51
1, 17424, Note_on_c, 9, 51, 59
1, 17426, Note_on_c, 9, 51, 0
1, 17426, Note_on_c, 9, 46, 0
1, 17456, Note_on_c, 4, 55, 0
1, 17456, Note_on_c, 8, 55, 0
1, 17462, Note_on_c, 4, 47, 0
1, 17462, Note_on_c, 8, 47, 0
1, 17472, Note_on_c, 1, 34, 108
1, 17472, Note_on_c, 4, 46, 80
1, 17472, Note_on_c, 4, 53, 66
1, 17472, Note_on_c, 4, 58, 97
1, 17472, Note_on_c, 5, 70, 46
1, 17472, Note_on_c, 5, 77, 72
1, 17472, Note_on_c, 8, 58, 97
1, 17472, Note_on_c, 8, 53, 66
1, 17472, Note_on_c, 8, 46, 80
1, 17472, Note_on_c, 9, 35, 75
1, 17472, Note_on_c, 9, 46, 51
1, 17472, Note_on_c, 9, 49, 66
1, 17474, Note_on_c, 9, 49, 0
1, 17474, Note_on_c, 9, 46, 0
1, 17474, Note_on_c, 9, 35, 0
1, 17476, Note_on_c, 8, 62, 0
1, 17476, Note_on_c, 4, 62, 0
1, 17478, Note_on_c, 1, 31, 0
1, 17520, Note_on_c, 3, 65, 121
1, 17520, Note_on_c, 9, 35, 61
1, 17520, Note_on_c, 9, 46, 51
1, 17520, Note_on_c, 9, 51, 49
1, 17522, Note_on_c, 9, 51, 0
1, 17522, Note_on_c, 9, 46, 0
1, 17522, Note_on_c, 9, 35, 0
1, 17551, Note_on_c, 5, 77, 0
1, 17556, Note_on_c, 5, 70, 0
1, 17559, Note_on_c, 1, 34, 0
1, 17560, Note_on_c, 8, 58, 0
1, 17560, Note_on_c, 4, 58, 0
1, 17566, Note_on_c, 8, 53, 0
1, 17566, Note_on_c, 4, 53, 0
1, 17568, Note_on_c, 1, 36, 88
1, 17568, Note_on_c, 4, 48, 88
1, 17568, Note_on_c, 4, 55, 92
1, 17568, Note_on_c, 4, 60, 84
1, 17568, Note_on_c, 5, 72, 58
1, 17568, Note_on_c, 5, 76, 62
1, 17568, Note_on_c, 5, 79, 56
1, 17568, Note_on_c, 8, 55, 92
1, 17568, Note_on_c, 8, 60, 84
1, 17568, Note_on_c, 8, 48, 88
1, 17568, Note_on_c, 9, 40, 105
1, 17568, Note_on_c, 9, 46, 51
1, 17568, Note_on_c, 9, 57, 67
1, 17570, Note_on_c, 9, 57, 0
1, 17570, Note_on_c, 9, 46, 0
1, 17570, Note_on_c, 9, 40, 0
1, 17575, Note_on_c, 5, 74, 0
1, 17577, Note_on_c, 4, 46, 0
1, 17577, Note_on_c, 8, 46, 0
1, 17584, Note_on_c, 3, 65, 0
1, 17592, Note_on_c, 3, 64, 111
1, 17616, Note_on_c, 9, 46, 51
1, 17618, Note_on_c, 9, 46, 0
1, 17633, Note_on_c, 3, 64, 0
1, 17640, Note_on_c, 3, 62, 98
1, 17640, Note_on_c, 9, 40, 90
1, 17642, Note_on_c, 9, 40, 0
1, 17646, Pitch_bend_c, 3, 8322
1, 17647, Pitch_bend_c, 3, 8712
1, 17648, Pitch_bend_c, 3, 9102
1, 17649, Pitch_bend_c, 3, 9362
1, 17650, Pitch_bend_c, 3, 9752
1, 17651, Note_on_c, 5, 72, 0
1, 17651, Pitch_bend_c, 3, 10012
1, 17652, Pitch_bend_c, 3, 10532
1, 17653, Pitch_bend_c, 3, 11052
1, 17654, Pitch_bend_c, 3, 11572
1, 17655, Pitch_bend_c, 3, 12092
1, 17656, Pitch_bend_c, 3, 12612
1, 17657, Pitch_bend_c, 3, 13132
1, 17659, Pitch_bend_c, 3, 13652
1, 17660, Pitch_bend_c, 3, 14172
1, 17661, Pitch_bend_c, 3, 14692
1, 17662, Note_on_c, 5, 76, 0
1, 17662, Pitch_bend_c, 3, 15212
1, 17663, Pitch_bend_c, 3, 15732
1, 17664, Note_on_c, 1, 38, 100
1, 17664, Pitch_bend_c, 3, 15992
1, 17664, Note_on_c, 4, 50, 102
1, 17664, Note_on_c, 5, 74, 58
1, 17664, Note_on_c, 8, 50, 102
1, 17664, Note_on_c, 9, 35, 75
1, 17664, Note_on_c, 9, 46, 51
1, 17664, Note_on_c, 9, 51, 83
1, 17665, Pitch_bend_c, 3, 16382
1, 17666, Note_on_c, 9, 51, 0
1, 17666, Note_on_c, 9, 46, 0
1, 17666, Note_on_c, 9, 35, 0
1, 17668, Note_on_c, 5, 79, 0
1, 17671, Note_on_c, 1, 36, 0
1, 17675, Note_on_c, 8, 48, 0
1, 17675, Note_on_c, 4, 48, 0
1, 17677, Note_on_c, 4, 60, 0
1, 17677, Note_on_c, 8, 55, 0
1, 17677, Note_on_c, 4, 55, 0
1, 17677, Note_on_c, 8, 60, 0
1, 17695, Pitch_bend_c, 3, 15862
1, 17696, Note_on_c, 1, 38, 0
1, 17696, Pitch_bend_c, 3, 15082
1, 17697, Pitch_bend_c, 3, 14432
1, 17698, Pitch_bend_c, 3, 13782
1, 17699, Pitch_bend_c, 3, 12872
1, 17700, Pitch_bend_c, 3, 11442
1, 17701, Pitch_bend_c, 3, 8192
1, 17712, Note_on_c, 1, 40, 86
1, 17712, Note_on_c, 4, 57, 92
1, 17712, Note_on_c, 8, 57, 92
1, 17712, Note_on_c, 9, 35, 56
1, 17712, Note_on_c, 9, 46, 51
1, 17712, Note_on_c, 9, 51, 35
1, 17714, Note_on_c, 9, 51, 0
1, 17714, Note_on_c, 9, 46, 0
1, 17714, Note_on_c, 9, 35, 0
1, 17734, Note_on_c, 1, 40, 0
1, 17736, Note_on_c, 1, 42, 84
1, 17739, Control_c, 3, 1, 2
1, 17740, Control_c, 3, 1, 5
1, 17741, Control_c, 3, 1, 9
1, 17742, Control_c, 3, 1, 14
1, 17743, Control_c, 3, 1, 18
1, 17744, Control_c, 3, 1, 21
1, 17745, Control_c, 3, 1, 25
1, 17746, Control_c, 3, 1, 28
1, 17747, Control_c, 3, 1, 31
1, 17748, Control_c, 3, 1, 35
1, 17749, Control_c, 3, 1, 38
1, 17750, Control_c, 3, 1, 41
1, 17751, Control_c, 3, 1, 44
1, 17752, Control_c, 3, 1, 47
1, 17753, Control_c, 3, 1, 49
1, 17754, Control_c, 3, 1, 51
1, 17755, Control_c, 3, 1, 54
1, 17756, Control_c, 3, 1, 56
1, 17757, Control_c, 3, 1, 57
1, 17758, Note_on_c, 1, 42, 0
1, 17758, Control_c, 3, 1, 58
1, 17759, Control_c, 3, 1, 59
1, 17760, Note_on_c, 1, 40, 96
1, 17760, Control_c, 3, 1, 63
1, 17760, Control_c, 3, 1, 61
1, 17760, Note_on_c, 4, 62, 97
1, 17760, Note_on_c, 5, 84, 88
1, 17760, Note_on_c, 8, 62, 97
1, 17760, Note_on_c, 9, 40, 105
1, 17760, Note_on_c, 9, 46, 51
1, 17760, Note_on_c, 9, 51, 71
1, 17762, Note_on_c, 9, 51, 0
1, 17762, Note_on_c, 9, 46, 0
1, 17762, Note_on_c, 9, 40, 0
1, 17762, Control_c, 3, 1, 64
1, 17763, Control_c, 3, 1, 67
1, 17764, Control_c, 3, 1, 68
1, 17765, Control_c, 3, 1, 70
1, 17766, Control_c, 3, 1, 72
1, 17767, Control_c, 3, 1, 74
1, 17768, Control_c, 3, 1, 76
1, 17769, Control_c, 3, 1, 78
1, 17770, Control_c, 3, 1, 79
1, 17771, Control_c, 3, 1, 81
1, 17773, Control_c, 3, 1, 82
1, 17775, Control_c, 3, 1, 83
1, 17782, Note_on_c, 1, 40, 0
1, 17784, Note_on_c, 1, 42, 100
1, 17784, Note_on_c, 5, 83, 72
1, 17785, Control_c, 3, 1, 84
1, 17792, Note_on_c, 5, 84, 0
1, 17792, Control_c, 3, 1, 85
1, 17793, Note_on_c, 5, 74, 0
1, 17803, Control_c, 3, 1, 84
1, 17807, Control_c, 3, 1, 83
1, 17808, Note_on_c, 1, 40, 88
1, 17808, Note_on_c, 5, 81, 80
1, 17808, Note_on_c, 9, 46, 51
1, 17808, Note_on_c, 9, 51, 43
1, 17809, Control_c, 3, 1, 82
1, 17810, Note_on_c, 9, 51, 0
1, 17810, Note_on_c, 9, 46, 0
1, 17811, Note_on_c, 1, 42, 0
1, 17812, Control_c, 3, 1, 80
1, 17814, Control_c, 3, 1, 79
1, 17816, Control_c, 3, 1, 78
1, 17817, Control_c, 3, 1, 77
1, 17819, Note_on_c, 5, 83, 0
1, 17819, Control_c, 3, 1, 75
1, 17820, Control_c, 3, 1, 74
1, 17821, Control_c, 3, 1, 73
1, 17823, Control_c, 3, 1, 72
1, 17826, Control_c, 3, 1, 71
1, 17827, Control_c, 3, 1, 70
1, 17829, Control_c, 3, 1, 69
1, 17831, Note_on_c, 5, 81, 0
1, 17831, Note_on_c, 3, 62, 0
1, 17831, Control_c, 3, 1, 68
1, 17832, Note_on_c, 1, 40, 0
1, 17832, Note_on_c, 1, 38, 96
1, 17832, Control_c, 3, 1, 67
1, 17832, Note_on_c, 5, 79, 76
1, 17832, Note_on_c, 9, 40, 90
1, 17833, Control_c, 3, 1, 65
1, 17834, Note_on_c, 9, 40, 0
1, 17834, Control_c, 3, 1, 63
1, 17835, Control_c, 3, 1, 61
1, 17836, Control_c, 3, 1, 60
1, 17837, Control_c, 3, 1, 58
1, 17838, Control_c, 3, 1, 56
1, 17839, Control_c, 3, 1, 53
1, 17840, Control_c, 3, 1, 50
1, 17841, Control_c, 3, 1, 47
1, 17842, Control_c, 3, 1, 44
1, 17843, Control_c, 3, 1, 41
1, 17844, Control_c, 3, 1, 37
1, 17845, Control_c, 3, 1, 34
1, 17846, Control_c, 3, 1, 30
1, 17847, Control_c, 3, 1, 26
1, 17848, Control_c, 3, 1, 22
1, 17849, Control_c, 3, 1, 17
1, 17851, Control_c, 3, 1, 12
1, 17852, Control_c, 3, 1, 6
1, 17853, Control_c, 3, 1, 0
1, 17854, Note_on_c, 1, 38, 0
1, 17856, Note_on_c, 4, 50, 0
1, 17856, Note_on_c, 8, 50, 0
1, 17856, Note_on_c, 1, 36, 82
1, 17856, Note_on_c, 4, 48, 102
1, 17856, Note_on_c, 8, 48, 102
1, 17856, Note_on_c, 9, 35, 75
1, 17856, Note_on_c, 9, 46, 51
1, 17856, Note_on_c, 9, 51, 47
1, 17858, Note_on_c, 9, 51, 0
1, 17858, Note_on_c, 9, 46, 0
1, 17858, Note_on_c, 9, 35, 0
1, 17879, Note_on_c, 8, 57, 0
1, 17879, Note_on_c, 4, 57, 0
1, 17890, Note_on_c, 1, 36, 0
1, 17904, Note_on_c, 1, 36, 104
1, 17904, Note_on_c, 4, 55, 92
1, 17904, Note_on_c, 8, 55, 92
1, 17904, Note_on_c, 9, 35, 56
1, 17904, Note_on_c, 9, 46, 51
1, 17904, Note_on_c, 9, 51, 49
1, 17906, Note_on_c, 9, 51, 0
1, 17906, Note_on_c, 9, 46, 0
1, 17906, Note_on_c, 9, 35, 0
1, 17909, Note_on_c, 8, 62, 0
1, 17909, Note_on_c, 4, 62, 0
1, 17952, Note_on_c, 4, 62, 88
1, 17952, Note_on_c, 8, 62, 88
1, 17952, Note_on_c, 9, 40, 105
1, 17952, Note_on_c, 9, 46, 51
1, 17952, Note_on_c, 9, 51, 67
1, 17954, Note_on_c, 9, 51, 0
1, 17954, Note_on_c, 9, 46, 0
1, 17954, Note_on_c, 9, 40, 0
1, 18000, Note_on_c, 9, 46, 51
1, 18000, Note_on_c, 9, 51, 55
1, 18002, Note_on_c, 9, 51, 0
1, 18002, Note_on_c, 9, 46, 0
1, 18022, Note_on_c, 1, 36, 0
1, 18048, Note_on_c, 1, 35, 92
1, 18048, Note_on_c, 4, 47, 84
1, 18048, Note_on_c, 8, 47, 84
1, 18048, Note_on_c, 9, 35, 75
1, 18048, Note_on_c, 9, 46, 51
1, 18048, Note_on_c, 9, 51, 71
1, 18050, Note_on_c, 9, 51, 0
1, 18050, Note_on_c, 9, 46, 0
1, 18050, Note_on_c, 9, 35, 0
1, 18052, Note_on_c, 5, 79, 0
1, 18055, Note_on_c, 8, 48, 0
1, 18055, Note_on_c, 4, 48, 0
1, 18068, Note_on_c, 8, 55, 0
1, 18068, Note_on_c, 4, 55, 0
1, 18093, Note_on_c, 1, 35, 0
1, 18096, Note_on_c, 1, 33, 88
1, 18096, Note_on_c, 4, 55, 84
1, 18096, Note_on_c, 5, 83, 92
1, 18096, Note_on_c, 8, 55, 84
1, 18096, Note_on_c, 9, 35, 54
1, 18096, Note_on_c, 9, 46, 51
1, 18096, Note_on_c, 9, 51, 61
1, 18098, Note_on_c, 9, 51, 0
1, 18098, Note_on_c, 9, 46, 0
1, 18098, Note_on_c, 9, 35, 0
1, 18101, Note_on_c, 8, 62, 0
1, 18101, Note_on_c, 4, 62, 0
1, 18108, Note_on_c, 5, 83, 0
1, 18120, Note_on_c, 5, 84, 72
1, 18130, Note_on_c, 5, 84, 0
1, 18144, Note_on_c, 1, 31, 86
1, 18144, Note_on_c, 4, 62, 92
1, 18144, Note_on_c, 5, 86, 84
1, 18144, Note_on_c, 8, 62, 92
1, 18144, Note_on_c, 9, 40, 105
1, 18144, Note_on_c, 9, 46, 51
1, 18144, Note_on_c, 9, 49, 54
1, 18145, Note_on_c, 1, 33, 0
1, 18146, Note_on_c, 9, 46, 0
1, 18146, Note_on_c, 9, 40, 0
1, 18146, Note_on_c, 9, 49, 0
1, 18192, Note_on_c, 1, 33, 100
1, 18192, Note_on_c, 9, 46, 51
1, 18192, Note_on_c, 9, 51, 47
1, 18194, Note_on_c, 9, 51, 0
1, 18194, Note_on_c, 9, 46, 0
1, 18200, Note_on_c, 1, 31, 0
1, 18216, Note_on_c, 9, 35, 51
1, 18218, Note_on_c, 9, 35, 0
1, 18228, Note_on_c, 4, 55, 0
1, 18228, Note_on_c, 8, 55, 0
1, 18236, Note_on_c, 1, 33, 0
1, 18238, Note_on_c, 8, 47, 0
1, 18238, Note_on_c, 4, 47, 0
1, 18239, Note_on_c, 8, 62, 0
1, 18239, Note_on_c, 4, 62, 0
1, 18240, Note_on_c, 1, 34, 92
1, 18240, Note_on_c, 4, 46, 80
1, 18240, Note_on_c, 4, 53, 84
1, 18240, Note_on_c, 4, 58, 88
1, 18240, Note_on_c, 5, 77, 68
1, 18240, Note_on_c, 5, 82, 76
1, 18240, Note_on_c, 8, 58, 88
1, 18240, Note_on_c, 8, 53, 84
1, 18240, Note_on_c, 8, 46, 80
1, 18240, Note_on_c, 9, 40, 105
1, 18240, Note_on_c, 9, 46, 51
1, 18240, Note_on_c, 9, 49, 82
1, 18242, Note_on_c, 9, 49, 0
1, 18242, Note_on_c, 9, 46, 0
1, 18242, Note_on_c, 9, 40, 0
1, 18264, Note_on_c, 3, 71, 82
1, 18267, Pitch_bend_c, 3, 8064
1, 18268, Pitch_bend_c, 3, 7680
1, 18269, Pitch_bend_c, 3, 6912
1, 18270, Pitch_bend_c, 3, 6016
1, 18271, Pitch_bend_c, 3, 5248
1, 18272, Pitch_bend_c, 3, 4608
1, 18273, Pitch_bend_c, 3, 4096
1, 18274, Pitch_bend_c, 3, 3712
1, 18275, Pitch_bend_c, 3, 3328
1, 18276, Pitch_bend_c, 3, 3072
1, 18277, Pitch_bend_c, 3, 2944
1, 18278, Pitch_bend_c, 3, 2944
1, 18279, Pitch_bend_c, 3, 2944
1, 18280, Note_on_c, 3, 71, 0
1, 18281, Note_on_c, 1, 34, 0
1, 18282, Pitch_bend_c, 3, 3328
1, 18283, Pitch_bend_c, 3, 3584
1, 18284, Pitch_bend_c, 3, 3840
1, 18285, Pitch_bend_c, 3, 4096
1, 18286, Pitch_bend_c, 3, 4352
1, 18287, Pitch_bend_c, 3, 4608
1, 18288, Note_on_c, 1, 38, 96
1, 18288, Note_on_c, 3, 81, 121
1, 18288, Note_on_c, 9, 35, 54
1, 18288, Note_on_c, 9, 46, 51
1, 18288, Note_on_c, 9, 51, 57
1, 18289, Pitch_bend_c, 3, 4992
1, 18290, Note_on_c, 9, 51, 0
1, 18290, Note_on_c, 9, 46, 0
1, 18290, Note_on_c, 9, 35, 0
1, 18292, Pitch_bend_c, 3, 5248
1, 18294, Pitch_bend_c, 3, 5632
1, 18297, Pitch_bend_c, 3, 5888
1, 18297, Pitch_bend_c, 3, 5888
1, 18301, Note_on_c, 5, 77, 0
1, 18302, Pitch_bend_c, 3, 8192
1, 18329, Note_on_c, 1, 38, 0
1, 18331, Note_on_c, 5, 82, 0
1, 18336, Note_on_c, 8, 58, 0
1, 18336, Note_on_c, 4, 58, 0
1, 18336, Note_on_c, 1, 33, 96
1, 18336, Note_on_c, 4, 48, 92
1, 18336, Note_on_c, 4, 55, 84
1, 18336, Note_on_c, 4, 60, 80
1, 18336, Note_on_c, 5, 88, 66
1, 18336, Note_on_c, 5, 79, 52
1, 18336, Note_on_c, 5, 84, 66
1, 18336, Note_on_c, 8, 60, 80
1, 18336, Note_on_c, 8, 55, 84
1, 18336, Note_on_c, 8, 48, 92
1, 18336, Note_on_c, 9, 40, 105
1, 18336, Note_on_c, 9, 46, 51
1, 18336, Note_on_c, 9, 57, 83
1, 18338, Note_on_c, 9, 57, 0
1, 18338, Note_on_c, 9, 46, 0
1, 18338, Note_on_c, 9, 40, 0
1, 18340, Note_on_c, 3, 81, 0
1, 18342, Note_on_c, 4, 53, 0
1, 18342, Note_on_c, 5, 86, 0
1, 18342, Note_on_c, 8, 53, 0
1, 18347, Note_on_c, 8, 46, 0
1, 18347, Note_on_c, 4, 46, 0
1, 18360, Note_on_c, 3, 79, 111
1, 18360, Note_on_c, 9, 35, 41
1, 18362, Note_on_c, 9, 35, 0
1, 18384, Note_on_c, 9, 35, 51
1, 18384, Note_on_c, 9, 46, 51
1, 18384, Note_on_c, 9, 51, 59
1, 18386, Note_on_c, 9, 51, 0
1, 18386, Note_on_c, 9, 46, 0
1, 18386, Note_on_c, 9, 35, 0
1, 18406, Note_on_c, 1, 33, 0
1, 18418, Note_on_c, 3, 79, 0
1, 18430, Note_on_c, 4, 60, 0
1, 18430, Note_on_c, 8, 60, 0
1, 18431, Note_on_c, 5, 84, 0
1, 18432, Note_on_c, 5, 88, 0
1, 18432, Note_on_c, 1, 26, 100
1, 18432, Note_on_c, 3, 79, 102
1, 18432, Note_on_c, 4, 50, 102
1, 18432, Note_on_c, 5, 62, 84
1, 18432, Note_on_c, 8, 50, 102
1, 18432, Note_on_c, 9, 35, 75
1, 18432, Note_on_c, 9, 46, 51
1, 18432, Note_on_c, 9, 49, 70
1, 18434, Note_on_c, 9, 49, 0
1, 18434, Note_on_c, 9, 46, 0
1, 18434, Note_on_c, 9, 35, 0
1, 18435, Note_on_c, 4, 55, 0
1, 18435, Note_on_c, 8, 55, 0
1, 18436, Note_on_c, 5, 79, 0
1, 18439, Note_on_c, 8, 48, 0
1, 18439, Note_on_c, 4, 48, 0
1, 18451, Pitch_bend_c, 3, 8322
1, 18452, Pitch_bend_c, 3, 8582
1, 18453, Pitch_bend_c, 3, 8712
1, 18454, Pitch_bend_c, 3, 8842
1, 18455, Pitch_bend_c, 3, 8842
1, 18456, Pitch_bend_c, 3, 8842
1, 18457, Pitch_bend_c, 3, 8842
1, 18462, Pitch_bend_c, 3, 8322
1, 18463, Pitch_bend_c, 3, 8192
1, 18479, Note_on_c, 3, 79, 0
1, 18480, Note_on_c, 3, 74, 94
1, 18480, Note_on_c, 4, 57, 66
1, 18480, Note_on_c, 5, 69, 64
1, 18480, Note_on_c, 8, 57, 66
1, 18480, Note_on_c, 9, 35, 64
1, 18480, Note_on_c, 9, 46, 51
1, 18480, Note_on_c, 9, 51, 34
1, 18482, Note_on_c, 9, 51, 0
1, 18482, Note_on_c, 9, 46, 0
1, 18482, Note_on_c, 9, 35, 0
1, 18526, Note_on_c, 1, 26, 0
1, 18528, Note_on_c, 1, 38, 88
1, 18528, Note_on_c, 4, 62, 97
1, 18528, Note_on_c, 5, 74, 84
1, 18528, Note_on_c, 8, 62, 97
1, 18528, Note_on_c, 9, 40, 105
1, 18528, Note_on_c, 9, 46, 51
1, 18528, Note_on_c, 9, 57, 71
1, 18530, Note_on_c, 9, 57, 0
1, 18530, Note_on_c, 9, 46, 0
1, 18530, Note_on_c, 9, 40, 0
1, 18576, Note_on_c, 9, 46, 51
1, 18576, Note_on_c, 9, 51, 45
1, 18578, Note_on_c, 9, 51, 0
1, 18578, Note_on_c, 9, 46, 0
1, 18600, Note_on_c, 9, 40, 90
1, 18602, Note_on_c, 9, 40, 0
1, 18603, Note_on_c, 5, 62, 0
1, 18607, Note_on_c, 3, 74, 0
1, 18621, Note_on_c, 8, 50, 0
1, 18621, Note_on_c, 4, 50, 0
1, 18622, Note_on_c, 1, 38, 0
1, 18624, Note_on_c, 1, 29, 86
1, 18624, Note_on_c, 4, 48, 97
1, 18624, Note_on_c, 5, 60, 66
1, 18624, Note_on_c, 8, 48, 97
1, 18624, Note_on_c, 9, 35, 75
1, 18624, Note_on_c, 9, 46, 51
1, 18624, Note_on_c, 9, 52, 84
1, 18626, Note_on_c, 9, 52, 0
1, 18626, Note_on_c, 9, 46, 0
1, 18626, Note_on_c, 9, 35, 0
1, 18632, Note_on_c, 5, 69, 0
1, 18667, Note_on_c, 5, 74, 0
1, 18672, Note_on_c, 8, 57, 0
1, 18672, Note_on_c, 4, 57, 0
1, 18672, Note_on_c, 3, 72, 111
1, 18672, Note_on_c, 4, 55, 92
1, 18672, Note_on_c, 5, 67, 50
1, 18672, Note_on_c, 8, 55, 92
1, 18672, Note_on_c, 9, 35, 59
1, 18672, Note_on_c, 9, 46, 51
1, 18672, Note_on_c, 9, 51, 59
1, 18673, Note_on_c, 8, 62, 0
1, 18673, Note_on_c, 4, 62, 0
1, 18674, Note_on_c, 9, 35, 0
1, 18674, Note_on_c, 9, 46, 0
1, 18674, Note_on_c, 9, 51, 0
1, 18715, Note_on_c, 3, 72, 0
1, 18720, Note_on_c, 3, 71, 102
1, 18720, Note_on_c, 4, 62, 97
1, 18720, Note_on_c, 5, 74, 76
1, 18720, Note_on_c, 8, 62, 97
1, 18720, Note_on_c, 9, 40, 105
1, 18720, Note_on_c, 9, 46, 51
1, 18720, Note_on_c, 9, 51, 57
1, 18722, Note_on_c, 9, 51, 0
1, 18722, Note_on_c, 9, 46, 0
1, 18722, Note_on_c, 9, 40, 0
1, 18768, Note_on_c, 3, 69, 106
1, 18768, Note_on_c, 9, 46, 51
1, 18768, Note_on_c, 9, 51, 30
1, 18770, Note_on_c, 9, 51, 0
1, 18770, Note_on_c, 9, 46, 0
1, 18772, Note_on_c, 3, 71, 0
1, 18805, Note_on_c, 5, 60, 0
1, 18809, Note_on_c, 1, 29, 0
1, 18816, Note_on_c, 1, 31, 96
1, 18816, Note_on_c, 4, 47, 92
1, 18816, Note_on_c, 5, 71, 68
1, 18816, Note_on_c, 8, 47, 92
1, 18816, Note_on_c, 9, 35, 75
1, 18816, Note_on_c, 9, 46, 51
1, 18816, Note_on_c, 9, 51, 63
1, 18818, Note_on_c, 9, 51, 0
1, 18818, Note_on_c, 9, 46, 0
1, 18818, Note_on_c, 9, 35, 0
1, 18825, Note_on_c, 8, 48, 0
1, 18825, Note_on_c, 4, 48, 0
1, 18831, Note_on_c, 4, 55, 0
1, 18831, Note_on_c, 8, 55, 0
1, 18860, Note_on_c, 3, 69, 0
1, 18863, Note_on_c, 1, 31, 0
1, 18864, Note_on_c, 1, 38, 104
1, 18864, Note_on_c, 3, 67, 98
1, 18864, Note_on_c, 4, 55, 88
1, 18864, Note_on_c, 8, 55, 88
1, 18864, Note_on_c, 9, 35, 61
1, 18864, Note_on_c, 9, 46, 51
1, 18864, Note_on_c, 9, 51, 41
1, 18866, Note_on_c, 9, 51, 0
1, 18866, Note_on_c, 9, 46, 0
1, 18866, Note_on_c, 9, 35, 0
1, 18867, Note_on_c, 8, 62, 0
1, 18867, Note_on_c, 4, 62, 0
1, 18912, Note_on_c, 4, 62, 92
1, 18912, Note_on_c, 8, 62, 92
1, 18912, Note_on_c, 9, 40, 105
1, 18912, Note_on_c, 9, 46, 51
1, 18912, Note_on_c, 9, 51, 59
1, 18914, Note_on_c, 9, 51, 0
1, 18914, Note_on_c, 9, 46, 0
1, 18914, Note_on_c, 9, 40, 0
1, 18926, Note_on_c, 1, 38, 0
1, 18938, Note_on_c, 3, 67, 0
1, 18960, Note_on_c, 1, 36, 100
1, 18960, Note_on_c, 9, 46, 51
1, 18960, Note_on_c, 9, 51, 49
1, 18962, Note_on_c, 9, 51, 0
1, 18962, Note_on_c, 9, 46, 0
1, 18994, Note_on_c, 5, 67, 0
1, 18994, Note_on_c, 8, 55, 0
1, 18994, Note_on_c, 4, 55, 0
1, 18996, Note_on_c, 5, 71, 0
1, 19003, Note_on_c, 5, 74, 0
1, 19003, Note_on_c, 1, 36, 0
1, 19004, Note_on_c, 4, 47, 0
1, 19004, Note_on_c, 8, 47, 0
1, 19008, Note_on_c, 4, 62, 0
1, 19008, Note_on_c, 8, 62, 0
1, 19008, Note_on_c, 1, 34, 92
1, 19008, Note_on_c, 4, 46, 84
1, 19008, Note_on_c, 4, 53, 76
1, 19008, Note_on_c, 4, 58, 92
1, 19008, Note_on_c, 5, 70, 56
1, 19008, Note_on_c, 5, 74, 66
1, 19008, Note_on_c, 5, 65, 68
1, 19008, Note_on_c, 8, 53, 76
1, 19008, Note_on_c, 8, 58, 92
1, 19008, Note_on_c, 8, 46, 84
1, 19008, Note_on_c, 9, 35, 75
1, 19008, Note_on_c, 9, 46, 51
1, 19008, Note_on_c, 9, 49, 66
1, 19010, Note_on_c, 9, 49, 0
1, 19010, Note_on_c, 9, 46, 0
1, 19010, Note_on_c, 9, 35, 0
1, 19056, Note_on_c, 3, 65, 121
1, 19056, Note_on_c, 9, 35, 61
1, 19056, Note_on_c, 9, 46, 51
1, 19056, Note_on_c, 9, 51, 49
1, 19058, Note_on_c, 9, 51, 0
1, 19058, Note_on_c, 9, 46, 0
1, 19058, Note_on_c, 9, 35, 0
1, 19087, Note_on_c, 5, 65, 0
1, 19104, Note_on_c, 5, 70, 0
1, 19104, Note_on_c, 1, 33, 92
1, 19104, Note_on_c, 3, 67, 102
1, 19104, Note_on_c, 4, 48, 88
1, 19104, Note_on_c, 4, 55, 88
1, 19104, Note_on_c, 4, 60, 84
1, 19104, Note_on_c, 5, 67, 60
1, 19104, Note_on_c, 5, 72, 72
1, 19104, Note_on_c, 5, 76, 68
1, 19104, Note_on_c, 8, 60, 84
1, 19104, Note_on_c, 8, 55, 88
1, 19104, Note_on_c, 8, 48, 88
1, 19104, Note_on_c, 9, 40, 105
1, 19104, Note_on_c, 9, 46, 51
1, 19104, Note_on_c, 9, 57, 63
1, 19106, Note_on_c, 9, 57, 0
1, 19106, Note_on_c, 9, 46, 0
1, 19106, Note_on_c, 9, 40, 0
1, 19108, Note_on_c, 8, 58, 0
1, 19108, Note_on_c, 4, 58, 0
1, 19110, Note_on_c, 5, 74, 0
1, 19112, Note_on_c, 3, 65, 0
1, 19113, Note_on_c, 4, 53, 0
1, 19113, Note_on_c, 8, 53, 0
1, 19119, Note_on_c, 8, 46, 0
1, 19119, Note_on_c, 4, 46, 0
1, 19121, Note_on_c, 1, 34, 0
1, 19138, Note_on_c, 3, 67, 0
1, 19140, Note_on_c, 5, 67, 0
1, 19144, Note_on_c, 5, 76, 0
1, 19146, Note_on_c, 5, 72, 0
1, 19152, Note_on_c, 3, 67, 111
1, 19152, Note_on_c, 9, 46, 51
1, 19152, Note_on_c, 9, 51, 63
1, 19154, Note_on_c, 9, 51, 0
1, 19154, Note_on_c, 9, 46, 0
1, 19176, Note_on_c, 9, 40, 90
1, 19178, Note_on_c, 9, 40, 0
1, 19190, Note_on_c, 1, 33, 0
1, 19198, Note_on_c, 8, 60, 0
1, 19198, Note_on_c, 4, 60, 0
1, 19200, Note_on_c, 1, 38, 88
1, 19200, Note_on_c, 4, 50, 97
1, 19200, Note_on_c, 8, 50, 97
1, 19200, Note_on_c, 9, 35, 75
1, 19200, Note_on_c, 9, 46, 51
1, 19200, Note_on_c, 9, 51, 71
1, 19202, Note_on_c, 9, 51, 0
1, 19202, Note_on_c, 9, 46, 0
1, 19202, Note_on_c, 9, 35, 0
1, 19203, Note_on_c, 4, 48, 0
1, 19203, Note_on_c, 8, 48, 0
1, 19211, Note_on_c, 8, 55, 0
1, 19211, Note_on_c, 4, 55, 0
1, 19248, Note_on_c, 1, 55, 96
1, 19248, Note_on_c, 3, 65, 121
1, 19248, Note_on_c, 4, 57, 92
1, 19248, Note_on_c, 8, 57, 92
1, 19248, Note_on_c, 9, 35, 56
1, 19248, Note_on_c, 9, 46, 51
1, 19248, Note_on_c, 9, 51, 57
1, 19250, Note_on_c, 9, 51, 0
1, 19250, Note_on_c, 9, 46, 0
1, 19250, Note_on_c, 9, 35, 0
1, 19252, Note_on_c, 3, 67, 0
1, 19268, Pitch_bend_c, 3, 8192
1, 19269, Pitch_bend_c, 3, 8452
1, 19270, Pitch_bend_c, 3, 8712
1, 19271, Pitch_bend_c, 3, 8842
1, 19272, Pitch_bend_c, 3, 9102
1, 19273, Pitch_bend_c, 3, 9232
1, 19274, Pitch_bend_c, 3, 9362
1, 19275, Pitch_bend_c, 3, 9492
1, 19276, Pitch_bend_c, 3, 9622
1, 19277, Pitch_bend_c, 3, 9752
1, 19278, Pitch_bend_c, 3, 9882
1, 19279, Pitch_bend_c, 3, 9882
1, 19280, Pitch_bend_c, 3, 10012
1, 19281, Pitch_bend_c, 3, 10142
1, 19282, Pitch_bend_c, 3, 10272
1, 19283, Pitch_bend_c, 3, 10402
1, 19284, Pitch_bend_c, 3, 10532
1, 19285, Pitch_bend_c, 3, 10662
1, 19286, Pitch_bend_c, 3, 10792
1, 19287, Pitch_bend_c, 3, 10792
1, 19288, Pitch_bend_c, 3, 10922
1, 19289, Pitch_bend_c, 3, 11052
1, 19290, Pitch_bend_c, 3, 11182
1, 19291, Note_on_c, 1, 55, 0
1, 19291, Pitch_bend_c, 3, 11312
1, 19292, Pitch_bend_c, 3, 11312
1, 19293, Pitch_bend_c, 3, 11442
1, 19294, Pitch_bend_c, 3, 11442
1, 19295, Pitch_bend_c, 3, 11442
1, 19296, Note_on_c, 1, 54, 86
1, 19296, Pitch_bend_c, 3, 11572
1, 19296, Note_on_c, 4, 62, 88
1, 19296, Note_on_c, 8, 62, 88
1, 19296, Note_on_c, 9, 40, 105
1, 19296, Note_on_c, 9, 46, 51
1, 19296, Note_on_c, 9, 49, 66
1, 19297, Pitch_bend_c, 3, 11572
1, 19298, Note_on_c, 9, 49, 0
1, 19298, Note_on_c, 9, 40, 0
1, 19298, Note_on_c, 9, 46, 0
1, 19298, Pitch_bend_c, 3, 11572
1, 19299, Pitch_bend_c, 3, 11702
1, 19300, Pitch_bend_c, 3, 11702
1, 19301, Pitch_bend_c, 3, 11702
1, 19302, Pitch_bend_c, 3, 11702
1, 19303, Pitch_bend_c, 3, 11702
1, 19305, Pitch_bend_c, 3, 11832
1, 19306, Pitch_bend_c, 3, 11832
1, 19307, Pitch_bend_c, 3, 11832
1, 19308, Pitch_bend_c, 3, 11832
1, 19309, Pitch_bend_c, 3, 11832
1, 19310, Pitch_bend_c, 3, 11832
1, 19311, Pitch_bend_c, 3, 11962
1, 19312, Pitch_bend_c, 3, 11962
1, 19313, Pitch_bend_c, 3, 11962
1, 19314, Pitch_bend_c, 3, 11962
1, 19315, Pitch_bend_c, 3, 12092
1, 19316, Pitch_bend_c, 3, 12092
1, 19317, Pitch_bend_c, 3, 12222
1, 19318, Pitch_bend_c, 3, 12352
1, 19319, Pitch_bend_c, 3, 12352
1, 19320, Pitch_bend_c, 3, 12482
1, 19321, Pitch_bend_c, 3, 12612
1, 19322, Pitch_bend_c, 3, 12742
1, 19323, Pitch_bend_c, 3, 12742
1, 19324, Pitch_bend_c, 3, 12872
1, 19325, Pitch_bend_c, 3, 12872
1, 19326, Pitch_bend_c, 3, 13002
1, 19327, Pitch_bend_c, 3, 13002
1, 19328, Pitch_bend_c, 3, 13132
1, 19329, Pitch_bend_c, 3, 13132
1, 19330, Pitch_bend_c, 3, 13132
1, 19331, Pitch_bend_c, 3, 13262
1, 19332, Pitch_bend_c, 3, 13262
1, 19333, Pitch_bend_c, 3, 13262
1, 19334, Pitch_bend_c, 3, 13262
1, 19335, Pitch_bend_c, 3, 13262
1, 19336, Pitch_bend_c, 3, 13262
1, 19337, Pitch_bend_c, 3, 13262
1, 19344, Pitch_bend_c, 3, 13002
1, 19344, Note_on_c, 9, 46, 51
1, 19344, Note_on_c, 9, 51, 41
1, 19346, Note_on_c, 9, 51, 0
1, 19346, Note_on_c, 9, 46, 0
1, 19347, Pitch_bend_c, 3, 12742
1, 19349, Pitch_bend_c, 3, 12482
1, 19351, Pitch_bend_c, 3, 12092
1, 19353, Pitch_bend_c, 3, 11832
1, 19355, Pitch_bend_c, 3, 11572
1, 19357, Pitch_bend_c, 3, 11312
1, 19358, Pitch_bend_c, 3, 11052
1, 19359, Pitch_bend_c, 3, 10792
1, 19360, Pitch_bend_c, 3, 10402
1, 19361, Pitch_bend_c, 3, 10142
1, 19362, Note_on_c, 3, 65, 0
1, 19363, Pitch_bend_c, 3, 9752
1, 19364, Pitch_bend_c, 3, 9492
1, 19365, Pitch_bend_c, 3, 9232
1, 19366, Pitch_bend_c, 3, 8192
1, 19376, Note_on_c, 1, 54, 0
1, 19386, Note_on_c, 1, 38, 0
1, 19392, Note_on_c, 1, 36, 104
1, 19392, Note_on_c, 4, 48, 102
1, 19392, Note_on_c, 8, 48, 102
1, 19392, Note_on_c, 9, 35, 75
1, 19392, Note_on_c, 9, 46, 51
1, 19392, Note_on_c, 9, 51, 57
1, 19394, Note_on_c, 9, 51, 0
1, 19394, Note_on_c, 9, 35, 0
1, 19394, Note_on_c, 9, 46, 0
1, 19398, Note_on_c, 8, 50, 0
1, 19398, Note_on_c, 4, 50, 0
1, 19406, Note_on_c, 4, 57, 0
1, 19406, Note_on_c, 8, 57, 0
1, 19440, Note_on_c, 4, 55, 102
1, 19440, Note_on_c, 8, 55, 102
1, 19440, Note_on_c, 9, 35, 56
1, 19440, Note_on_c, 9, 46, 51
1, 19440, Note_on_c, 9, 51, 59
1, 19442, Note_on_c, 9, 51, 0
1, 19442, Note_on_c, 9, 46, 0
1, 19442, Note_on_c, 9, 35, 0
1, 19443, Note_on_c, 4, 62, 0
1, 19443, Note_on_c, 8, 62, 0
1, 19488, Note_on_c, 4, 62, 97
1, 19488, Note_on_c, 8, 62, 97
1, 19488, Note_on_c, 9, 40, 105
1, 19488, Note_on_c, 9, 46, 51
1, 19488, Note_on_c, 9, 51, 79
1, 19490, Note_on_c, 9, 51, 0
1, 19490, Note_on_c, 9, 46, 0
1, 19490, Note_on_c, 9, 40, 0
1, 19503, Note_on_c, 1, 36, 0
1, 19536, Note_on_c, 1, 36, 96
1, 19536, Note_on_c, 9, 46, 51
1, 19536, Note_on_c, 9, 51, 61
1, 19538, Note_on_c, 9, 51, 0
1, 19538, Note_on_c, 9, 46, 0
1, 19583, Note_on_c, 1, 36, 0
1, 19584, Note_on_c, 1, 35, 86
1, 19584, Note_on_c, 4, 47, 92
1, 19584, Note_on_c, 5, 84, 92
1, 19584, Note_on_c, 8, 47, 92
1, 19584, Note_on_c, 9, 35, 75
1, 19584, Note_on_c, 9, 46, 51
1, 19584, Note_on_c, 9, 51, 67
1, 19586, Note_on_c, 9, 51, 0
1, 19586, Note_on_c, 9, 46, 0
1, 19586, Note_on_c, 9, 35, 0
1, 19589, Note_on_c, 8, 48, 0
1, 19589, Note_on_c, 4, 48, 0
1, 19596, Note_on_c, 8, 55, 0
1, 19596, Note_on_c, 4, 55, 0
1, 19632, Note_on_c, 1, 50, 100
1, 19632, Note_on_c, 4, 55, 88
1, 19632, Note_on_c, 8, 55, 88
1, 19632, Note_on_c, 9, 35, 54
1, 19632, Note_on_c, 9, 46, 51
1, 19632, Note_on_c, 9, 51, 55
1, 19634, Note_on_c, 9, 51, 0
1, 19634, Note_on_c, 9, 35, 0
1, 19634, Note_on_c, 9, 46, 0
1, 19638, Note_on_c, 8, 62, 0
1, 19638, Note_on_c, 4, 62, 0
1, 19641, Note_on_c, 5, 84, 0
1, 19656, Note_on_c, 5, 74, 80
1, 19680, Note_on_c, 4, 62, 92
1, 19680, Note_on_c, 8, 62, 92
1, 19680, Note_on_c, 9, 40, 105
1, 19680, Note_on_c, 9, 46, 51
1, 19680, Note_on_c, 9, 51, 57
1, 19682, Note_on_c, 9, 51, 0
1, 19682, Note_on_c, 9, 40, 0
1, 19682, Note_on_c, 9, 46, 0
1, 19722, Note_on_c, 1, 50, 0
1, 19728, Note_on_c, 1, 52, 92
1, 19728, Note_on_c, 5, 76, 92
1, 19728, Note_on_c, 9, 46, 51
1, 19728, Note_on_c, 9, 51, 61
1, 19730, Note_on_c, 9, 51, 0
1, 19730, Note_on_c, 9, 46, 0
1, 19734, Note_on_c, 5, 74, 0
1, 19765, Note_on_c, 1, 35, 0
1, 19771, Note_on_c, 8, 55, 0
1, 19771, Note_on_c, 4, 55, 0
1, 19774, Note_on_c, 1, 52, 0
1, 19774, Note_on_c, 4, 47, 0
1, 19774, Note_on_c, 8, 47, 0
1, 19776, Note_on_c, 1, 34, 100
1, 19776, Note_on_c, 4, 46, 88
1, 19776, Note_on_c, 4, 53, 68
1, 19776, Note_on_c, 4, 58, 92
1, 19776, Note_on_c, 5, 77, 88
1, 19776, Note_on_c, 8, 53, 68
1, 19776, Note_on_c, 8, 58, 92
1, 19776, Note_on_c, 8, 46, 88
1, 19776, Note_on_c, 9, 35, 75
1, 19776, Note_on_c, 9, 46, 51
1, 19776, Note_on_c, 9, 51, 83
1, 19778, Note_on_c, 9, 51, 0
1, 19778, Note_on_c, 9, 46, 0
1, 19778, Note_on_c, 9, 35, 0
1, 19783, Note_on_c, 5, 76, 0
1, 19824, Note_on_c, 3, 70, 102
1, 19824, Note_on_c, 9, 35, 54
1, 19824, Note_on_c, 9, 46, 51
1, 19824, Note_on_c, 9, 51, 59
1, 19826, Note_on_c, 9, 51, 0
1, 19826, Note_on_c, 9, 46, 0
1, 19826, Note_on_c, 9, 35, 0
1, 19866, Note_on_c, 3, 70, 0
1, 19867, Note_on_c, 5, 77, 0
1, 19869, Note_on_c, 4, 62, 0
1, 19869, Note_on_c, 8, 62, 0
1, 19870, Note_on_c, 1, 34, 0
1, 19870, Note_on_c, 8, 58, 0
1, 19870, Note_on_c, 4, 58, 0
1, 19872, Note_on_c, 1, 36, 84
1, 19872, Note_on_c, 3, 74, 90
1, 19872, Note_on_c, 4, 48, 88
1, 19872, Note_on_c, 4, 55, 88
1, 19872, Note_on_c, 4, 60, 84
1, 19872, Note_on_c, 5, 79, 66
1, 19872, Note_on_c, 8, 60, 84
1, 19872, Note_on_c, 8, 55, 88
1, 19872, Note_on_c, 8, 48, 88
1, 19872, Note_on_c, 9, 40, 105
1, 19872, Note_on_c, 9, 46, 51
1, 19872, Note_on_c, 9, 57, 75
1, 19874, Note_on_c, 9, 57, 0
1, 19874, Note_on_c, 9, 46, 0
1, 19874, Note_on_c, 9, 40, 0
1, 19878, Note_on_c, 4, 53, 0
1, 19878, Note_on_c, 8, 53, 0
1, 19883, Note_on_c, 8, 46, 0
1, 19883, Note_on_c, 4, 46, 0
1, 19911, Note_on_c, 3, 74, 0
1, 19920, Note_on_c, 3, 77, 116
1, 19920, Note_on_c, 9, 45, 75
1, 19920, Note_on_c, 9, 46, 51
1, 19920, Note_on_c, 9, 51, 55
1, 19922, Note_on_c, 9, 51, 0
1, 19922, Note_on_c, 9, 45, 0
1, 19922, Note_on_c, 9, 46, 0
1, 19944, Note_on_c, 9, 43, 75
1, 19946, Note_on_c, 9, 43, 0
1, 19961, Note_on_c, 1, 36, 0
1, 19968, Note_on_c, 1, 38, 86
1, 19968, Note_on_c, 4, 50, 97
1, 19968, Note_on_c, 5, 62, 84
1, 19968, Note_on_c, 8, 50, 97
1, 19968, Note_on_c, 9, 35, 75
1, 19968, Note_on_c, 9, 46, 51
1, 19968, Note_on_c, 9, 49, 78
1, 19969, Note_on_c, 8, 48, 0
1, 19969, Note_on_c, 4, 48, 0
1, 19970, Note_on_c, 9, 46, 0
1, 19970, Note_on_c, 9, 35, 0
1, 19970, Note_on_c, 9, 49, 0
1, 19971, Note_on_c, 5, 79, 0
1, 19992, Note_on_c, 3, 74, 98
1, 19996, Note_on_c, 1, 38, 0
1, 19996, Note_on_c, 4, 60, 0
1, 19996, Note_on_c, 8, 60, 0
1, 19997, Note_on_c, 4, 55, 0
1, 19997, Note_on_c, 8, 55, 0
1, 20002, Note_on_c, 3, 77, 0
1, 20012, Note_on_c, 3, 74, 0
1, 20016, Note_on_c, 1, 38, 86
1, 20016, Note_on_c, 3, 77, 111
1, 20016, Note_on_c, 4, 57, 76
1, 20016, Note_on_c, 5, 69, 64
1, 20016, Note_on_c, 8, 57, 76
1, 20016, Note_on_c, 9, 35, 64
1, 20016, Note_on_c, 9, 46, 51
1, 20016, Note_on_c, 9, 51, 1
1, 20018, Note_on_c, 9, 51, 0
1, 20018, Note_on_c, 9, 46, 0
1, 20018, Note_on_c, 9, 35, 0
1, 20034, Control_c, 3, 1, 2
1, 20035, Control_c, 3, 1, 4
1, 20036, Control_c, 3, 1, 7
1, 20037, Control_c, 3, 1, 10
1, 20038, Control_c, 3, 1, 14
1, 20039, Control_c, 3, 1, 18
1, 20040, Control_c, 3, 1, 21
1, 20041, Control_c, 3, 1, 25
1, 20042, Control_c, 3, 1, 29
1, 20043, Control_c, 3, 1, 32
1, 20044, Control_c, 3, 1, 34
1, 20045, Control_c, 3, 1, 37
1, 20046, Control_c, 3, 1, 39
1, 20047, Control_c, 3, 1, 41
1, 20048, Control_c, 3, 1, 43
1, 20049, Control_c, 3, 1, 45
1, 20050, Control_c, 3, 1, 47
1, 20051, Control_c, 3, 1, 48
1, 20052, Control_c, 3, 1, 50
1, 20053, Control_c, 3, 1, 51
1, 20054, Control_c, 3, 1, 53
1, 20055, Control_c, 3, 1, 55
1, 20056, Control_c, 3, 1, 56
1, 20057, Control_c, 3, 1, 57
1, 20058, Control_c, 3, 1, 58
1, 20059, Control_c, 3, 1, 60
1, 20060, Control_c, 3, 1, 61
1, 20061, Control_c, 3, 1, 62
1, 20062, Control_c, 3, 1, 63
1, 20063, Control_c, 3, 1, 65
1, 20064, Note_on_c, 1, 38, 0
1, 20064, Note_on_c, 1, 40, 88
1, 20064, Control_c, 3, 1, 66
1, 20064, Note_on_c, 4, 62, 102
1, 20064, Note_on_c, 5, 74, 80
1, 20064, Note_on_c, 8, 62, 102
1, 20064, Note_on_c, 9, 40, 105
1, 20064, Note_on_c, 9, 46, 51
1, 20064, Note_on_c, 9, 49, 74
1, 20065, Control_c, 3, 1, 67
1, 20066, Note_on_c, 9, 49, 0
1, 20066, Note_on_c, 9, 46, 0
1, 20066, Note_on_c, 9, 40, 0
1, 20067, Control_c, 3, 1, 68
1, 20068, Control_c, 3, 1, 69
1, 20069, Control_c, 3, 1, 70
1, 20070, Control_c, 3, 1, 71
1, 20072, Control_c, 3, 1, 72
1, 20076, Control_c, 3, 1, 73
1, 20080, Control_c, 3, 1, 72
1, 20081, Control_c, 3, 1, 71
1, 20082, Control_c, 3, 1, 70
1, 20083, Control_c, 3, 1, 68
1, 20084, Control_c, 3, 1, 66
1, 20085, Control_c, 3, 1, 63
1, 20086, Note_on_c, 3, 77, 0
1, 20086, Control_c, 3, 1, 59
1, 20087, Control_c, 3, 1, 56
1, 20088, Note_on_c, 1, 42, 104
1, 20088, Control_c, 3, 1, 50
1, 20089, Note_on_c, 1, 40, 0
1, 20089, Control_c, 3, 1, 45
1, 20090, Control_c, 3, 1, 40
1, 20091, Control_c, 3, 1, 32
1, 20092, Control_c, 3, 1, 23
1, 20093, Control_c, 3, 1, 13
1, 20094, Control_c, 3, 1, 3
1, 20096, Control_c, 3, 1, 0
1, 20111, Note_on_c, 1, 42, 0
1, 20112, Note_on_c, 1, 45, 84
1, 20112, Note_on_c, 9, 46, 51
1, 20112, Note_on_c, 9, 51, 55
1, 20114, Note_on_c, 9, 51, 0
1, 20114, Note_on_c, 9, 46, 0
1, 20136, Note_on_c, 1, 47, 86
1, 20136, Note_on_c, 9, 40, 90
1, 20138, Note_on_c, 9, 40, 0
1, 20145, Note_on_c, 1, 45, 0
1, 20147, Note_on_c, 4, 50, 0
1, 20147, Note_on_c, 5, 62, 0
1, 20147, Note_on_c, 8, 50, 0
1, 20155, Note_on_c, 5, 69, 0
1, 20158, Note_on_c, 1, 47, 0
1, 20160, Note_on_c, 1, 48, 92
1, 20160, Note_on_c, 4, 48, 102
1, 20160, Note_on_c, 5, 60, 66
1, 20160, Note_on_c, 8, 48, 102
1, 20160, Note_on_c, 9, 35, 75
1, 20160, Note_on_c, 9, 46, 51
1, 20160, Note_on_c, 9, 51, 57
1, 20162, Note_on_c, 9, 51, 0
1, 20162, Note_on_c, 9, 35, 0
1, 20162, Note_on_c, 9, 46, 0
1, 20167, Note_on_c, 5, 74, 0
1, 20191, Note_on_c, 1, 48, 0
1, 20205, Note_on_c, 4, 57, 0
1, 20205, Note_on_c, 8, 57, 0
1, 20208, Note_on_c, 1, 48, 96
1, 20208, Note_on_c, 3, 72, 116
1, 20208, Note_on_c, 4, 55, 84
1, 20208, Note_on_c, 5, 67, 62
1, 20208, Note_on_c, 8, 55, 84
1, 20208, Note_on_c, 9, 35, 59
1, 20208, Note_on_c, 9, 46, 51
1, 20208, Note_on_c, 9, 51, 59
1, 20210, Note_on_c, 9, 51, 0
1, 20210, Note_on_c, 8, 62, 0
1, 20210, Note_on_c, 4, 62, 0
1, 20210, Note_on_c, 9, 46, 0
1, 20210, Note_on_c, 9, 35, 0
1, 20256, Note_on_c, 3, 71, 106
1, 20256, Note_on_c, 4, 62, 102
1, 20256, Note_on_c, 5, 74, 76
1, 20256, Note_on_c, 8, 62, 102
1, 20256, Note_on_c, 9, 40, 105
1, 20256, Note_on_c, 9, 46, 51
1, 20256, Note_on_c, 9, 51, 67
1, 20258, Note_on_c, 9, 51, 0
1, 20258, Note_on_c, 9, 46, 0
1, 20258, Note_on_c, 9, 40, 0
1, 20259, Note_on_c, 3, 72, 0
1, 20267, Note_on_c, 1, 48, 0
1, 20298, Note_on_c, 3, 71, 0
1, 20304, Note_on_c, 1, 47, 86
1, 20304, Note_on_c, 3, 69, 98
1, 20304, Note_on_c, 9, 46, 51
1, 20304, Note_on_c, 9, 51, 49
1, 20306, Note_on_c, 9, 51, 0
1, 20306, Note_on_c, 9, 46, 0
1, 20327, Note_on_c, 8, 55, 0
1, 20328, Note_on_c, 1, 45, 84
1, 20335, Note_on_c, 1, 47, 0
1, 20348, Note_on_c, 5, 60, 0
1, 20352, Note_on_c, 1, 43, 104
1, 20352, Note_on_c, 4, 47, 88
1, 20352, Note_on_c, 8, 47, 88
1, 20352, Note_on_c, 9, 35, 75
1, 20352, Note_on_c, 9, 46, 51
1, 20352, Note_on_c, 9, 51, 67
1, 20354, Note_on_c, 9, 51, 0
1, 20354, Note_on_c, 9, 46, 0
1, 20354, Note_on_c, 9, 35, 0
1, 20355, Note_on_c, 8, 48, 0
1, 20355, Note_on_c, 4, 48, 0
1, 20355, Note_on_c, 1, 45, 0
1, 20373, Note_on_c, 1, 43, 0
1, 20376, Note_on_c, 1, 38, 86
1, 20378, Note_on_c, 4, 55, 0
1, 20395, Note_on_c, 3, 69, 0
1, 20400, Note_on_c, 1, 36, 88
1, 20400, Note_on_c, 3, 67, 121
1, 20400, Note_on_c, 4, 55, 84
1, 20400, Note_on_c, 8, 55, 84
1, 20400, Note_on_c, 9, 35, 61
1, 20400, Note_on_c, 9, 46, 51
1, 20400, Note_on_c, 9, 51, 57
1, 20402, Note_on_c, 9, 51, 0
1, 20402, Note_on_c, 9, 46, 0
1, 20402, Note_on_c, 9, 35, 0
1, 20406, Note_on_c, 8, 62, 0
1, 20406, Note_on_c, 4, 62, 0
1, 20407, Note_on_c, 1, 38, 0
1, 20414, Control_c, 3, 1, 1
1, 20415, Control_c, 3, 1, 3
1, 20416, Control_c, 3, 1, 5
1, 20417, Control_c, 3, 1, 9
1, 20418, Control_c, 3, 1, 13
1, 20419, Control_c, 3, 1, 17
1, 20420, Control_c, 3, 1, 19
1, 20421, Control_c, 3, 1, 22
1, 20422, Control_c, 3, 1, 26
1, 20423, Control_c, 3, 1, 29
1, 20424, Control_c, 3, 1, 32
1, 20425, Control_c, 3, 1, 34
1, 20426, Control_c, 3, 1, 37
1, 20427, Control_c, 3, 1, 40
1, 20428, Control_c, 3, 1, 42
1, 20429, Control_c, 3, 1, 44
1, 20430, Control_c, 3, 1, 45
1, 20431, Control_c, 3, 1, 47
1, 20432, Control_c, 3, 1, 48
1, 20433, Control_c, 3, 1, 49
1, 20434, Control_c, 3, 1, 50
1, 20435, Control_c, 3, 1, 52
1, 20436, Control_c, 3, 1, 53
1, 20437, Control_c, 3, 1, 54
1, 20438, Control_c, 3, 1, 56
1, 20440, Control_c, 3, 1, 57
1, 20441, Note_on_c, 1, 36, 0
1, 20441, Control_c, 3, 1, 58
1, 20442, Control_c, 3, 1, 59
1, 20444, Control_c, 3, 1, 61
1, 20445, Control_c, 3, 1, 62
1, 20446, Control_c, 3, 1, 63
1, 20447, Control_c, 3, 1, 64
1, 20448, Note_on_c, 1, 35, 86
1, 20448, Control_c, 3, 1, 65
1, 20448, Note_on_c, 4, 62, 97
1, 20448, Note_on_c, 8, 62, 97
1, 20448, Note_on_c, 9, 40, 105
1, 20448, Note_on_c, 9, 46, 51
1, 20448, Note_on_c, 9, 51, 71
1, 20449, Control_c, 3, 1, 66
1, 20450, Note_on_c, 9, 51, 0
1, 20450, Note_on_c, 9, 46, 0
1, 20450, Note_on_c, 9, 40, 0
1, 20451, Control_c, 3, 1, 67
1, 20453, Control_c, 3, 1, 69
1, 20454, Control_c, 3, 1, 70
1, 20455, Control_c, 3, 1, 71
1, 20456, Control_c, 3, 1, 72
1, 20458, Control_c, 3, 1, 73
1, 20460, Control_c, 3, 1, 74
1, 20462, Control_c, 3, 1, 75
1, 20465, Control_c, 3, 1, 76
1, 20474, Control_c, 3, 1, 75
1, 20475, Control_c, 3, 1, 74
1, 20476, Control_c, 3, 1, 73
1, 20477, Control_c, 3, 1, 71
1, 20478, Control_c, 3, 1, 69
1, 20479, Control_c, 3, 1, 67
1, 20480, Control_c, 3, 1, 64
1, 20481, Control_c, 3, 1, 61
1, 20482, Control_c, 3, 1, 58
1, 20483, Control_c, 3, 1, 55
1, 20484, Control_c, 3, 1, 51
1, 20485, Control_c, 3, 1, 48
1, 20486, Control_c, 3, 1, 41
1, 20487, Control_c, 3, 1, 36
1, 20488, Control_c, 3, 1, 29
1, 20490, Note_on_c, 1, 35, 0
1, 20490, Control_c, 3, 1, 5
1, 20490, Control_c, 3, 1, 19
1, 20492, Note_on_c, 3, 67, 0
1, 20492, Control_c, 3, 1, 0
1, 20496, Note_on_c, 1, 31, 86
1, 20496, Note_on_c, 9, 46, 51
1, 20496, Note_on_c, 9, 51, 61
1, 20498, Note_on_c, 9, 51, 0
1, 20498, Note_on_c, 9, 46, 0
1, 20521, Note_on_c, 5, 67, 0
1, 20531, Note_on_c, 5, 74, 0
1, 20536, Note_on_c, 4, 55, 0
1, 20536, Note_on_c, 8, 55, 0
1, 20544, Note_on_c, 1, 34, 88
1, 20544, Note_on_c, 4, 46, 84
1, 20544, Note_on_c, 4, 53, 80
1, 20544, Note_on_c, 4, 58, 88
1, 20544, Note_on_c, 5, 65, 37
1, 20544, Note_on_c, 5, 70, 54
1, 20544, Note_on_c, 5, 74, 50
1, 20544, Note_on_c, 5, 58, 56
1, 20544, Note_on_c, 8, 53, 80
1, 20544, Note_on_c, 8, 58, 88
1, 20544, Note_on_c, 8, 46, 84
1, 20544, Note_on_c, 9, 35, 75
1, 20544, Note_on_c, 9, 46, 51
1, 20544, Note_on_c, 9, 51, 67
1, 20545, Note_on_c, 4, 47, 0
1, 20545, Note_on_c, 8, 47, 0
1, 20546, Note_on_c, 9, 51, 0
1, 20546, Note_on_c, 9, 46, 0
1, 20546, Note_on_c, 9, 35, 0
1, 20546, Note_on_c, 1, 31, 0
1, 20592, Note_on_c, 3, 65, 102
1, 20592, Note_on_c, 9, 35, 61
1, 20592, Note_on_c, 9, 46, 51
1, 20592, Note_on_c, 9, 51, 63
1, 20594, Note_on_c, 9, 51, 0
1, 20594, Note_on_c, 9, 46, 0
1, 20594, Note_on_c, 9, 35, 0
1, 20614, Note_on_c, 5, 65, 0
1, 20626, Note_on_c, 8, 62, 0
1, 20626, Note_on_c, 4, 62, 0
1, 20627, Note_on_c, 4, 53, 0
1, 20627, Note_on_c, 8, 53, 0
1, 20634, Note_on_c, 5, 70, 0
1, 20639, Note_on_c, 5, 74, 0
1, 20640, Note_on_c, 5, 58, 0
1, 20640, Note_on_c, 1, 33, 96
1, 20640, Note_on_c, 3, 64, 121
1, 20640, Note_on_c, 4, 48, 88
1, 20640, Note_on_c, 4, 55, 80
1, 20640, Note_on_c, 4, 60, 84
1, 20640, Note_on_c, 4, 64, 84
1, 20640, Note_on_c, 5, 67, 68
1, 20640, Note_on_c, 5, 72, 68
1, 20640, Note_on_c, 5, 76, 66
1, 20640, Note_on_c, 5, 60, 54
1, 20640, Note_on_c, 8, 55, 80
1, 20640, Note_on_c, 8, 64, 84
1, 20640, Note_on_c, 8, 60, 84
1, 20640, Note_on_c, 8, 48, 88
1, 20640, Note_on_c, 9, 40, 105
1, 20640, Note_on_c, 9, 46, 51
1, 20640, Note_on_c, 9, 57, 79
1, 20642, Note_on_c, 9, 57, 0
1, 20642, Note_on_c, 9, 46, 0
1, 20642, Note_on_c, 9, 40, 0
1, 20644, Note_on_c, 8, 46, 0
1, 20644, Note_on_c, 4, 46, 0
1, 20647, Note_on_c, 1, 34, 0
1, 20647, Note_on_c, 8, 58, 0
1, 20647, Note_on_c, 4, 58, 0
1, 20650, Note_on_c, 3, 65, 0
1, 20675, Note_on_c, 5, 67, 0
1, 20676, Note_on_c, 3, 64, 0
1, 20682, Note_on_c, 5, 72, 0
1, 20684, Note_on_c, 5, 76, 0
1, 20688, Note_on_c, 3, 62, 121
1, 20688, Note_on_c, 9, 46, 51
1, 20688, Note_on_c, 9, 51, 59
1, 20689, Pitch_bend_c, 3, 8322
1, 20690, Note_on_c, 9, 51, 0
1, 20690, Note_on_c, 9, 46, 0
1, 20690, Pitch_bend_c, 3, 8842
1, 20691, Pitch_bend_c, 3, 9362
1, 20692, Pitch_bend_c, 3, 9882
1, 20693, Pitch_bend_c, 3, 10402
1, 20694, Pitch_bend_c, 3, 11052
1, 20695, Pitch_bend_c, 3, 11702
1, 20696, Pitch_bend_c, 3, 12222
1, 20697, Pitch_bend_c, 3, 12742
1, 20698, Pitch_bend_c, 3, 13262
1, 20699, Pitch_bend_c, 3, 13652
1, 20700, Pitch_bend_c, 3, 14042
1, 20701, Pitch_bend_c, 3, 14432
1, 20702, Pitch_bend_c, 3, 14822
1, 20703, Pitch_bend_c, 3, 15212
1, 20704, Pitch_bend_c, 3, 15602
1, 20705, Pitch_bend_c, 3, 15862
1, 20706, Pitch_bend_c, 3, 16382
1, 20712, Note_on_c, 9, 40, 90
1, 20714, Note_on_c, 9, 40, 0
1, 20720, Note_on_c, 5, 60, 0
1, 20732, Note_on_c, 1, 33, 0
1, 20736, Note_on_c, 1, 26, 104
1, 20736, Note_on_c, 4, 50, 107
1, 20736, Note_on_c, 5, 81, 84
1, 20736, Note_on_c, 8, 50, 107
1, 20736, Note_on_c, 9, 35, 75
1, 20736, Note_on_c, 9, 46, 51
1, 20736, Note_on_c, 9, 51, 57
1, 20738, Note_on_c, 9, 51, 0
1, 20738, Note_on_c, 9, 46, 0
1, 20738, Note_on_c, 9, 35, 0
1, 20739, Note_on_c, 4, 64, 0
1, 20739, Note_on_c, 8, 64, 0
1, 20740, Note_on_c, 8, 60, 0
1, 20740, Note_on_c, 4, 60, 0
1, 20740, Pitch_bend_c, 3, 15732
1, 20741, Note_on_c, 8, 55, 0
1, 20741, Note_on_c, 4, 55, 0
1, 20741, Pitch_bend_c, 3, 15082
1, 20742, Pitch_bend_c, 3, 14432
1, 20743, Pitch_bend_c, 3, 13652
1, 20744, Pitch_bend_c, 3, 12352
1, 20745, Pitch_bend_c, 3, 10532
1, 20746, Pitch_bend_c, 3, 8192
1, 20748, Note_on_c, 4, 48, 0
1, 20748, Note_on_c, 8, 48, 0
1, 20763, Note_on_c, 1, 26, 0
1, 20776, Control_c, 3, 1, 1
1, 20777, Control_c, 3, 1, 4
1, 20778, Control_c, 3, 1, 7
1, 20779, Control_c, 3, 1, 13
1, 20780, Control_c, 3, 1, 18
1, 20781, Control_c, 3, 1, 24
1, 20782, Control_c, 3, 1, 28
1, 20783, Control_c, 3, 1, 35
1, 20783, Control_c, 3, 1, 32
1, 20784, Note_on_c, 1, 26, 96
1, 20784, Note_on_c, 4, 57, 80
1, 20784, Note_on_c, 8, 57, 80
1, 20784, Note_on_c, 9, 35, 56
1, 20784, Note_on_c, 9, 46, 51
1, 20784, Note_on_c, 9, 51, 61
1, 20785, Control_c, 3, 1, 38
1, 20786, Note_on_c, 9, 51, 0
1, 20786, Note_on_c, 9, 46, 0
1, 20786, Note_on_c, 9, 35, 0
1, 20786, Control_c, 3, 1, 41
1, 20787, Control_c, 3, 1, 44
1, 20788, Control_c, 3, 1, 46
1, 20790, Control_c, 3, 1, 49
1, 20791, Control_c, 3, 1, 51
1, 20792, Control_c, 3, 1, 54
1, 20793, Control_c, 3, 1, 56
1, 20794, Control_c, 3, 1, 58
1, 20795, Control_c, 3, 1, 60
1, 20796, Control_c, 3, 1, 62
1, 20797, Control_c, 3, 1, 64
1, 20798, Control_c, 3, 1, 67
1, 20799, Control_c, 3, 1, 68
1, 20800, Control_c, 3, 1, 70
1, 20801, Control_c, 3, 1, 72
1, 20802, Control_c, 3, 1, 73
1, 20803, Control_c, 3, 1, 75
1, 20804, Control_c, 3, 1, 77
1, 20805, Control_c, 3, 1, 79
1, 20806, Control_c, 3, 1, 80
1, 20807, Control_c, 3, 1, 82
1, 20808, Control_c, 3, 1, 84
1, 20809, Control_c, 3, 1, 85
1, 20810, Control_c, 3, 1, 86
1, 20811, Control_c, 3, 1, 87
1, 20812, Note_on_c, 1, 26, 0
1, 20812, Control_c, 3, 1, 88
1, 20814, Control_c, 3, 1, 89
1, 20816, Control_c, 3, 1, 90
1, 20818, Control_c, 3, 1, 91
1, 20820, Control_c, 3, 1, 92
1, 20823, Control_c, 3, 1, 93
1, 20826, Control_c, 3, 1, 94
1, 20832, Note_on_c, 1, 26, 108
1, 20832, Note_on_c, 4, 62, 97
1, 20832, Note_on_c, 8, 62, 97
1, 20832, Note_on_c, 9, 40, 105
1, 20832, Note_on_c, 9, 46, 51
1, 20832, Note_on_c, 9, 49, 74
1, 20834, Note_on_c, 9, 49, 0
1, 20834, Note_on_c, 9, 40, 0
1, 20834, Note_on_c, 9, 46, 0
1, 20837, Control_c, 3, 1, 93
1, 20840, Control_c, 3, 1, 91
1, 20840, Control_c, 3, 1, 92
1, 20842, Control_c, 3, 1, 90
1, 20843, Control_c, 3, 1, 88
1, 20845, Note_on_c, 5, 81, 0
1, 20845, Control_c, 3, 1, 87
1, 20846, Control_c, 3, 1, 86
1, 20847, Control_c, 3, 1, 84
1, 20848, Control_c, 3, 1, 83
1, 20849, Control_c, 3, 1, 82
1, 20850, Control_c, 3, 1, 80
1, 20851, Control_c, 3, 1, 79
1, 20852, Control_c, 3, 1, 76
1, 20852, Control_c, 3, 1, 77
1, 20854, Control_c, 3, 1, 74
1, 20855, Control_c, 3, 1, 72
1, 20856, Control_c, 3, 1, 71
1, 20856, Note_on_c, 5, 81, 62
1, 20857, Control_c, 3, 1, 69
1, 20858, Control_c, 3, 1, 67
1, 20859, Control_c, 3, 1, 64
1, 20860, Control_c, 3, 1, 61
1, 20861, Control_c, 3, 1, 59
1, 20862, Control_c, 3, 1, 56
1, 20863, Control_c, 3, 1, 54
1, 20864, Control_c, 3, 1, 51
1, 20865, Control_c, 3, 1, 48
1, 20866, Control_c, 3, 1, 45
1, 20867, Control_c, 3, 1, 41
1, 20868, Control_c, 3, 1, 38
1, 20869, Control_c, 3, 1, 35
1, 20870, Control_c, 3, 1, 31
1, 20871, Control_c, 3, 1, 26
1, 20872, Control_c, 3, 1, 21
1, 20873, Control_c, 3, 1, 15
1, 20874, Control_c, 3, 1, 8
1, 20875, Control_c, 3, 1, 1
1, 20876, Control_c, 3, 1, 0
1, 20880, Note_on_c, 5, 81, 0
1, 20880, Note_on_c, 5, 83, 72
1, 20880, Note_on_c, 9, 46, 51
1, 20880, Note_on_c, 9, 51, 49
1, 20881, Note_on_c, 1, 26, 0
1, 20882, Note_on_c, 9, 51, 0
1, 20882, Note_on_c, 9, 46, 0
1, 20888, Note_on_c, 3, 62, 0
1, 20904, Note_on_c, 1, 26, 82
1, 20904, Note_on_c, 5, 81, 76
1, 20904, Note_on_c, 9, 40, 90
1, 20906, Note_on_c, 9, 40, 0
1, 20909, Note_on_c, 5, 83, 0
1, 20926, Note_on_c, 5, 81, 0
1, 20928, Note_on_c, 1, 28, 104
1, 20928, Note_on_c, 4, 48, 97
1, 20928, Note_on_c, 5, 79, 76
1, 20928, Note_on_c, 8, 48, 97
1, 20928, Note_on_c, 9, 35, 75
1, 20928, Note_on_c, 9, 46, 51
1, 20928, Note_on_c, 9, 51, 71
1, 20929, Note_on_c, 8, 50, 0
1, 20929, Note_on_c, 1, 26, 0
1, 20929, Note_on_c, 4, 50, 0
1, 20930, Note_on_c, 9, 35, 0
1, 20930, Note_on_c, 9, 46, 0
1, 20930, Note_on_c, 9, 51, 0
1, 20959, Note_on_c, 1, 28, 0
1, 20976, Note_on_c, 1, 28, 104
1, 20976, Note_on_c, 4, 55, 92
1, 20976, Note_on_c, 8, 55, 92
1, 20976, Note_on_c, 9, 35, 56
1, 20976, Note_on_c, 9, 46, 51
1, 20976, Note_on_c, 9, 51, 63
1, 20978, Note_on_c, 9, 51, 0
1, 20978, Note_on_c, 9, 46, 0
1, 20978, Note_on_c, 9, 35, 0
1, 20980, Note_on_c, 8, 57, 0
1, 20980, Note_on_c, 4, 57, 0
1, 20981, Note_on_c, 8, 62, 0
1, 20981, Note_on_c, 4, 62, 0
1, 20987, Note_on_c, 5, 79, 0
1, 21000, Note_on_c, 5, 79, 58
1, 21000, Note_on_c, 5, 81, 62
1, 21015, Note_on_c, 5, 81, 0
1, 21024, Note_on_c, 4, 62, 97
1, 21024, Note_on_c, 8, 62, 97
1, 21024, Note_on_c, 9, 40, 105
1, 21024, Note_on_c, 9, 46, 51
1, 21024, Note_on_c, 9, 51, 63
1, 21026, Note_on_c, 9, 51, 0
1, 21026, Note_on_c, 9, 46, 0
1, 21026, Note_on_c, 9, 40, 0
1, 21060, Note_on_c, 5, 79, 0
1, 21072, Note_on_c, 5, 81, 64
1, 21072, Note_on_c, 9, 46, 51
1, 21072, Note_on_c, 9, 51, 71
1, 21074, Note_on_c, 9, 51, 0
1, 21074, Note_on_c, 9, 46, 0
1, 21096, Note_on_c, 5, 79, 66
1, 21097, Note_on_c, 5, 81, 0
1, 21110, Note_on_c, 5, 79, 0
1, 21120, Note_on_c, 1, 28, 0
1, 21120, Note_on_c, 1, 29, 92
1, 21120, Note_on_c, 4, 47, 84
1, 21120, Note_on_c, 5, 79, 72
1, 21120, Note_on_c, 8, 47, 84
1, 21120, Note_on_c, 9, 35, 75
1, 21120, Note_on_c, 9, 46, 51
1, 21120, Note_on_c, 9, 51, 47
1, 21122, Note_on_c, 9, 51, 0
1, 21122, Note_on_c, 9, 46, 0
1, 21122, Note_on_c, 9, 35, 0
1, 21125, Note_on_c, 4, 48, 0
1, 21125, Note_on_c, 8, 48, 0
1, 21133, Note_on_c, 4, 55, 0
1, 21133, Note_on_c, 8, 55, 0
1, 21152, Note_on_c, 1, 29, 0
1, 21166, Note_on_c, 4, 62, 0
1, 21166, Note_on_c, 8, 62, 0
1, 21168, Note_on_c, 1, 29, 86
1, 21168, Note_on_c, 4, 55, 92
1, 21168, Note_on_c, 5, 83, 66
1, 21168, Note_on_c, 8, 55, 92
1, 21168, Note_on_c, 9, 35, 54
1, 21168, Note_on_c, 9, 46, 51
1, 21168, Note_on_c, 9, 49, 82
1, 21170, Note_on_c, 9, 49, 0
1, 21170, Note_on_c, 9, 46, 0
1, 21170, Note_on_c, 9, 35, 0
1, 21171, Note_on_c, 5, 79, 0
1, 21192, Note_on_c, 5, 84, 72
1, 21199, Note_on_c, 5, 83, 0
1, 21209, Note_on_c, 5, 84, 0
1, 21216, Note_on_c, 1, 31, 84
1, 21216, Note_on_c, 4, 62, 97
1, 21216, Note_on_c, 5, 86, 102
1, 21216, Note_on_c, 8, 62, 97
1, 21216, Note_on_c, 9, 40, 105
1, 21216, Note_on_c, 9, 46, 51
1, 21216, Note_on_c, 9, 51, 59
1, 21218, Note_on_c, 9, 51, 0
1, 21218, Note_on_c, 9, 40, 0
1, 21218, Note_on_c, 9, 46, 0
1, 21219, Note_on_c, 4, 47, 0
1, 21219, Note_on_c, 1, 29, 0
1, 21219, Note_on_c, 8, 47, 0
1, 21261, Note_on_c, 1, 31, 0
1, 21264, Note_on_c, 1, 33, 88
1, 21264, Note_on_c, 9, 35, 75
1, 21264, Note_on_c, 9, 46, 51
1, 21264, Note_on_c, 9, 49, 78
1, 21266, Note_on_c, 9, 49, 0
1, 21266, Note_on_c, 9, 46, 0
1, 21266, Note_on_c, 9, 35, 0
1, 21312, Note_on_c, 1, 34, 92
1, 21312, Note_on_c, 4, 53, 72
1, 21312, Note_on_c, 4, 58, 80
1, 21312, Note_on_c, 5, 82, 84
1, 21312, Note_on_c, 5, 77, 56
1, 21312, Note_on_c, 8, 58, 80
1, 21312, Note_on_c, 8, 53, 72
1, 21312, Note_on_c, 9, 40, 105
1, 21312, Note_on_c, 9, 46, 51
1, 21312, Note_on_c, 9, 51, 7
1, 21313, Note_on_c, 1, 33, 0
1, 21314, Note_on_c, 9, 51, 0
1, 21314, Note_on_c, 9, 46, 0
1, 21314, Note_on_c, 9, 40, 0
1, 21324, Note_on_c, 4, 55, 0
1, 21324, Note_on_c, 8, 55, 0
1, 21345, Note_on_c, 1, 34, 0
1, 21360, Note_on_c, 1, 34, 88
1, 21360, Note_on_c, 9, 35, 75
1, 21360, Note_on_c, 9, 46, 51
1, 21362, Note_on_c, 9, 46, 0
1, 21362, Note_on_c, 9, 35, 0
1, 21408, Note_on_c, 9, 40, 105
1, 21408, Note_on_c, 9, 46, 51
1, 21410, Note_on_c, 9, 46, 0
1, 21410, Note_on_c, 9, 40, 0
1, 21424, Note_on_c, 1, 34, 0
1, 21432, Note_on_c, 9, 48, 75
1, 21434, Note_on_c, 9, 48, 0
1, 21456, Note_on_c, 3, 76, 116
1, 21456, Note_on_c, 9, 45, 75
1, 21456, Note_on_c, 9, 46, 51
1, 21458, Note_on_c, 9, 46, 0
1, 21458, Note_on_c, 9, 45, 0
1, 21474, Note_on_c, 4, 53, 0
1, 21474, Note_on_c, 8, 53, 0
1, 21480, Note_on_c, 9, 43, 75
1, 21482, Note_on_c, 9, 43, 0
1, 21482, Note_on_c, 5, 77, 0
1, 21504, Note_on_c, 1, 36, 88
1, 21504, Note_on_c, 4, 55, 62
1, 21504, Note_on_c, 4, 60, 66
1, 21504, Note_on_c, 4, 64, 64
1, 21504, Note_on_c, 5, 79, 32
1, 21504, Note_on_c, 5, 84, 50
1, 21504, Note_on_c, 5, 88, 62
1, 21504, Note_on_c, 9, 35, 75
1, 21504, Note_on_c, 9, 49, 78
1, 21506, Note_on_c, 9, 49, 0
1, 21506, Note_on_c, 9, 35, 0
1, 21506, Note_on_c, 4, 58, 0
1, 21506, Note_on_c, 8, 58, 0
1, 21507, Note_on_c, 5, 86, 0
1, 21510, Note_on_c, 4, 62, 0
1, 21510, Note_on_c, 8, 62, 0
1, 21511, Note_on_c, 5, 82, 0
1, 21534, Note_on_c, 3, 76, 0
1, 21551, Control_c, 4, 11, 122
1, 21552, Note_on_c, 3, 76, 94
1, 21552, Note_on_c, 9, 35, 56
1, 21552, Note_on_c, 9, 51, 75
1, 21554, Note_on_c, 9, 51, 0
1, 21554, Note_on_c, 9, 35, 0
1, 21556, Control_c, 4, 11, 119
1, 21560, Control_c, 4, 11, 116
1, 21564, Control_c, 4, 11, 112
1, 21571, Control_c, 4, 11, 116
1, 21573, Control_c, 4, 11, 127
1, 21576, Note_on_c, 9, 51, 43
1, 21578, Note_on_c, 9, 51, 0
1, 21597, Control_c, 4, 11, 116
1, 21600, Control_c, 4, 11, 90
1, 21600, Note_on_c, 9, 40, 105
1, 21600, Note_on_c, 9, 51, 59
1, 21602, Note_on_c, 9, 51, 0
1, 21602, Note_on_c, 9, 40, 0
1, 21605, Control_c, 4, 11, 85
1, 21611, Control_c, 4, 11, 87
1, 21613, Control_c, 4, 11, 104
1, 21618, Control_c, 4, 11, 119
1, 21621, Note_on_c, 1, 36, 0
1, 21623, Control_c, 4, 11, 117
1, 21628, Control_c, 4, 11, 100
1, 21632, Control_c, 4, 11, 77
1, 21636, Control_c, 4, 11, 63
1, 21642, Control_c, 4, 11, 72
1, 21645, Control_c, 4, 11, 94
1, 21648, Note_on_c, 1, 36, 84
1, 21648, Note_on_c, 9, 35, 75
1, 21648, Note_on_c, 9, 51, 71
1, 21649, Control_c, 4, 11, 127
1, 21650, Note_on_c, 9, 51, 0
1, 21650, Note_on_c, 9, 35, 0
1, 21652, Control_c, 3, 1, 1
1, 21653, Control_c, 3, 1, 2
1, 21654, Control_c, 3, 1, 4
1, 21655, Control_c, 3, 1, 5
1, 21656, Control_c, 3, 1, 7
1, 21657, Control_c, 3, 1, 10
1, 21658, Control_c, 3, 1, 11
1, 21659, Control_c, 3, 1, 13
1, 21660, Control_c, 3, 1, 16
1, 21661, Control_c, 3, 1, 18
1, 21662, Control_c, 3, 1, 20
1, 21663, Control_c, 3, 1, 22
1, 21665, Control_c, 3, 1, 24
1, 21665, Control_c, 4, 11, 121
1, 21666, Control_c, 3, 1, 26
1, 21667, Control_c, 3, 1, 28
1, 21667, Control_c, 4, 11, 89
1, 21668, Control_c, 3, 1, 29
1, 21669, Control_c, 3, 1, 31
1, 21670, Control_c, 3, 1, 33
1, 21671, Control_c, 3, 1, 34
1, 21672, Control_c, 3, 1, 35
1, 21672, Note_on_c, 9, 51, 59
1, 21673, Control_c, 3, 1, 36
1, 21673, Control_c, 4, 11, 73
1, 21674, Note_on_c, 9, 51, 0
1, 21674, Control_c, 3, 1, 38
1, 21675, Control_c, 3, 1, 39
1, 21676, Control_c, 3, 1, 40
1, 21678, Control_c, 3, 1, 42
1, 21679, Control_c, 3, 1, 43
1, 21679, Control_c, 4, 11, 80
1, 21681, Control_c, 3, 1, 44
1, 21681, Control_c, 4, 11, 114
1, 21683, Control_c, 3, 1, 45
1, 21686, Control_c, 3, 1, 46
1, 21686, Control_c, 4, 11, 127
1, 21688, Control_c, 3, 1, 47
1, 21693, Control_c, 3, 1, 48
1, 21696, Note_on_c, 9, 51, 37
1, 21698, Note_on_c, 9, 51, 0
1, 21700, Control_c, 4, 11, 101
1, 21704, Control_c, 3, 1, 47
1, 21704, Control_c, 4, 11, 74
1, 21706, Control_c, 3, 1, 46
1, 21708, Control_c, 3, 1, 45
1, 21708, Control_c, 4, 11, 69
1, 21709, Control_c, 3, 1, 44
1, 21710, Control_c, 3, 1, 43
1, 21711, Control_c, 3, 1, 42
1, 21712, Control_c, 3, 1, 41
1, 21712, Control_c, 4, 11, 90
1, 21713, Control_c, 3, 1, 39
1, 21714, Control_c, 3, 1, 37
1, 21715, Control_c, 3, 1, 35
1, 21716, Control_c, 3, 1, 34
1, 21717, Control_c, 3, 1, 31
1, 21718, Control_c, 3, 1, 28
1, 21718, Control_c, 4, 11, 116
1, 21719, Control_c, 3, 1, 26
1, 21720, Control_c, 3, 1, 22
1, 21721, Control_c, 3, 1, 19
1, 21722, Control_c, 3, 1, 15
1, 21722, Control_c, 4, 11, 127
1, 21723, Control_c, 3, 1, 10
1, 21724, Control_c, 3, 1, 5
1, 21725, Control_c, 3, 1, 1
1, 21726, Control_c, 3, 1, 0
1, 21728, Control_c, 4, 11, 121
1, 21731, Control_c, 4, 11, 94
1, 21735, Note_on_c, 3, 76, 0
1, 21735, Control_c, 4, 11, 61
1, 21740, Control_c, 4, 11, 56
1, 21744, Note_on_c, 1, 38, 92
1, 21744, Note_on_c, 3, 77, 106
1, 21744, Control_c, 4, 11, 71
1, 21744, Note_on_c, 9, 35, 50
1, 21744, Note_on_c, 9, 51, 63
1, 21746, Note_on_c, 9, 51, 0
1, 21746, Note_on_c, 9, 35, 0
1, 21747, Note_on_c, 1, 36, 0
1, 21748, Control_c, 4, 11, 107
1, 21753, Control_c, 4, 11, 127
1, 21763, Control_c, 4, 11, 118
1, 21767, Control_c, 4, 11, 89
1, 21768, Note_on_c, 9, 51, 47
1, 21770, Note_on_c, 9, 51, 0
1, 21771, Control_c, 4, 11, 62
1, 21776, Control_c, 4, 11, 62
1, 21780, Control_c, 4, 11, 86
1, 21784, Control_c, 4, 11, 122
1, 21789, Control_c, 4, 11, 127
1, 21792, Note_on_c, 9, 40, 105
1, 21792, Note_on_c, 9, 51, 71
1, 21794, Note_on_c, 9, 51, 0
1, 21794, Note_on_c, 9, 40, 0
1, 21800, Note_on_c, 3, 77, 0
1, 21801, Control_c, 4, 11, 123
1, 21802, Control_c, 4, 11, 91
1, 21808, Control_c, 4, 11, 72
1, 21812, Control_c, 4, 11, 75
1, 21816, Note_on_c, 1, 38, 0
1, 21816, Note_on_c, 1, 36, 96
1, 21816, Note_on_c, 3, 77, 94
1, 21816, Control_c, 4, 11, 105
1, 21817, Pitch_bend_c, 3, 8582
1, 21818, Pitch_bend_c, 3, 9102
1, 21819, Pitch_bend_c, 3, 9492
1, 21820, Pitch_bend_c, 3, 9882
1, 21821, Pitch_bend_c, 3, 10142
1, 21821, Control_c, 4, 11, 127
1, 21822, Pitch_bend_c, 3, 10402
1, 21823, Pitch_bend_c, 3, 10792
1, 21824, Pitch_bend_c, 3, 11182
1, 21825, Pitch_bend_c, 3, 11442
1, 21826, Pitch_bend_c, 3, 11832
1, 21827, Pitch_bend_c, 3, 12222
1, 21828, Pitch_bend_c, 3, 12612
1, 21829, Pitch_bend_c, 3, 13002
1, 21830, Pitch_bend_c, 3, 13392
1, 21831, Pitch_bend_c, 3, 13782
1, 21832, Pitch_bend_c, 3, 14302
1, 21833, Pitch_bend_c, 3, 14822
1, 21834, Pitch_bend_c, 3, 15472
1, 21835, Pitch_bend_c, 3, 16122
1, 21836, Pitch_bend_c, 3, 16382
1, 21838, Control_c, 4, 11, 123
1, 21839, Control_c, 4, 11, 92
1, 21840, Note_on_c, 9, 51, 57
1, 21842, Note_on_c, 9, 51, 0
1, 21843, Control_c, 4, 11, 83
1, 21847, Control_c, 4, 11, 99
1, 21853, Control_c, 4, 11, 122
1, 21857, Control_c, 4, 11, 127
1, 21864, Note_on_c, 9, 35, 44
1, 21864, Note_on_c, 9, 51, 31
1, 21866, Note_on_c, 9, 51, 0
1, 21866, Note_on_c, 9, 35, 0
1, 21881, Note_on_c, 4, 64, 0
1, 21885, Note_on_c, 4, 60, 0
1, 21887, Pitch_bend_c, 3, 15602
1, 21888, Note_on_c, 1, 35, 84
1, 21888, Note_on_c, 3, 74, 80
1, 21888, Pitch_bend_c, 3, 13912
1, 21888, Note_on_c, 5, 83, 56
1, 21888, Note_on_c, 5, 86, 58
1, 21888, Note_on_c, 9, 35, 75
1, 21888, Note_on_c, 9, 51, 59
1, 21889, Pitch_bend_c, 3, 11702
1, 21890, Note_on_c, 9, 51, 0
1, 21890, Note_on_c, 4, 55, 0
1, 21890, Note_on_c, 9, 35, 0
1, 21890, Pitch_bend_c, 3, 8192
1, 21892, Note_on_c, 3, 77, 0
1, 21892, Pitch_bend_c, 3, 8064
1, 21893, Note_on_c, 1, 36, 0
1, 21893, Pitch_bend_c, 3, 8192
1, 21895, Note_on_c, 5, 84, 0
1, 21899, Note_on_c, 5, 88, 0
1, 21907, Control_c, 4, 11, 103
1, 21911, Control_c, 4, 11, 73
1, 21915, Control_c, 4, 11, 49
1, 21919, Control_c, 4, 11, 53
1, 21924, Control_c, 4, 11, 75
1, 21929, Control_c, 4, 11, 114
1, 21934, Control_c, 4, 11, 127
1, 21936, Note_on_c, 4, 55, 88
1, 21936, Note_on_c, 9, 35, 44
1, 21936, Note_on_c, 9, 51, 71
1, 21937, Control_c, 3, 1, 1
1, 21938, Note_on_c, 9, 51, 0
1, 21938, Note_on_c, 9, 35, 0
1, 21938, Control_c, 3, 1, 2
1, 21939, Control_c, 3, 1, 3
1, 21940, Control_c, 3, 1, 5
1, 21941, Control_c, 3, 1, 6
1, 21942, Control_c, 3, 1, 9
1, 21943, Control_c, 3, 1, 11
1, 21944, Control_c, 3, 1, 14
1, 21945, Control_c, 3, 1, 16
1, 21946, Control_c, 3, 1, 19
1, 21947, Control_c, 3, 1, 20
1, 21948, Control_c, 3, 1, 23
1, 21949, Control_c, 3, 1, 25
1, 21950, Control_c, 3, 1, 27
1, 21951, Control_c, 3, 1, 29
1, 21952, Control_c, 3, 1, 30
1, 21952, Control_c, 4, 11, 105
1, 21953, Control_c, 3, 1, 31
1, 21954, Control_c, 3, 1, 33
1, 21955, Control_c, 3, 1, 34
1, 21956, Control_c, 3, 1, 35
1, 21956, Control_c, 4, 11, 84
1, 21957, Control_c, 3, 1, 36
1, 21958, Control_c, 3, 1, 37
1, 21959, Control_c, 3, 1, 39
1, 21960, Note_on_c, 9, 51, 39
1, 21961, Control_c, 3, 1, 40
1, 21962, Note_on_c, 9, 51, 0
1, 21962, Control_c, 4, 11, 96
1, 21964, Control_c, 3, 1, 41
1, 21965, Control_c, 4, 11, 122
1, 21966, Control_c, 3, 1, 42
1, 21968, Control_c, 3, 1, 43
1, 21969, Control_c, 4, 11, 127
1, 21971, Control_c, 3, 1, 44
1, 21974, Control_c, 3, 1, 45
1, 21974, Control_c, 4, 11, 116
1, 21976, Control_c, 3, 1, 47
1, 21977, Control_c, 3, 1, 48
1, 21978, Control_c, 4, 11, 92
1, 21979, Control_c, 3, 1, 49
1, 21981, Control_c, 3, 1, 50
1, 21982, Control_c, 4, 11, 80
1, 21984, Note_on_c, 4, 59, 68
1, 21984, Note_on_c, 9, 40, 105
1, 21984, Note_on_c, 9, 51, 53
1, 21985, Control_c, 3, 1, 51
1, 21986, Note_on_c, 9, 51, 0
1, 21986, Note_on_c, 9, 40, 0
1, 21990, Note_on_c, 4, 55, 0
1, 21990, Control_c, 4, 11, 83
1, 21992, Control_c, 3, 1, 52
1, 21992, Control_c, 4, 11, 95
1, 21995, Control_c, 3, 1, 53
1, 21996, Control_c, 4, 11, 113
1, 21998, Control_c, 3, 1, 54
1, 22000, Control_c, 3, 1, 55
1, 22001, Control_c, 3, 1, 56
1, 22001, Control_c, 4, 11, 118
1, 22004, Control_c, 3, 1, 57
1, 22007, Control_c, 3, 1, 58
1, 22007, Control_c, 4, 11, 111
1, 22009, Control_c, 3, 1, 59
1, 22011, Control_c, 3, 1, 60
1, 22011, Control_c, 4, 11, 97
1, 22013, Control_c, 3, 1, 61
1, 22014, Control_c, 4, 11, 74
1, 22015, Control_c, 3, 1, 62
1, 22019, Control_c, 3, 1, 63
1, 22019, Control_c, 4, 11, 61
1, 22024, Control_c, 4, 11, 81
1, 22028, Control_c, 4, 11, 114
1, 22032, Note_on_c, 1, 31, 88
1, 22032, Note_on_c, 4, 62, 66
1, 22032, Control_c, 4, 11, 127
1, 22032, Note_on_c, 9, 35, 67
1, 22032, Note_on_c, 9, 51, 59
1, 22033, Note_on_c, 1, 35, 0
1, 22033, Note_on_c, 4, 59, 0
1, 22033, Control_c, 3, 1, 61
1, 22034, Note_on_c, 9, 51, 0
1, 22034, Note_on_c, 9, 35, 0
1, 22034, Control_c, 3, 1, 60
1, 22035, Control_c, 3, 1, 59
1, 22036, Control_c, 3, 1, 58
1, 22037, Control_c, 3, 1, 57
1, 22038, Control_c, 3, 1, 56
1, 22039, Control_c, 3, 1, 55
1, 22040, Control_c, 3, 1, 54
1, 22041, Control_c, 3, 1, 53
1, 22042, Control_c, 3, 1, 51
1, 22043, Control_c, 3, 1, 50
1, 22045, Control_c, 3, 1, 49
1, 22047, Control_c, 3, 1, 48
1, 22048, Control_c, 4, 11, 118
1, 22050, Control_c, 4, 11, 87
1, 22052, Control_c, 3, 1, 47
1, 22054, Control_c, 3, 1, 46
1, 22055, Control_c, 4, 11, 86
1, 22056, Control_c, 3, 1, 45
1, 22056, Note_on_c, 9, 51, 59
1, 22058, Note_on_c, 9, 51, 0
1, 22058, Control_c, 3, 1, 44
1, 22059, Control_c, 4, 11, 98
1, 22060, Control_c, 3, 1, 43
1, 22062, Control_c, 3, 1, 42
1, 22064, Control_c, 3, 1, 41
1, 22064, Control_c, 4, 11, 114
1, 22067, Control_c, 3, 1, 40
1, 22068, Control_c, 4, 11, 124
1, 22072, Control_c, 3, 1, 39
1, 22072, Control_c, 4, 11, 127
1, 22073, Control_c, 3, 1, 38
1, 22075, Control_c, 3, 1, 36
1, 22077, Control_c, 3, 1, 35
1, 22078, Control_c, 3, 1, 34
1, 22079, Control_c, 3, 1, 33
1, 22080, Control_c, 3, 1, 31
1, 22080, Note_on_c, 9, 51, 55
1, 22081, Control_c, 3, 1, 29
1, 22082, Note_on_c, 9, 51, 0
1, 22082, Control_c, 3, 1, 27
1, 22082, Control_c, 4, 11, 110
1, 22083, Control_c, 3, 1, 25
1, 22084, Control_c, 3, 1, 22
1, 22085, Control_c, 3, 1, 19
1, 22086, Control_c, 3, 1, 17
1, 22087, Control_c, 3, 1, 14
1, 22087, Control_c, 4, 11, 90
1, 22088, Control_c, 3, 1, 10
1, 22089, Control_c, 3, 1, 7
1, 22090, Control_c, 3, 1, 3
1, 22091, Control_c, 3, 1, 0
1, 22091, Control_c, 4, 11, 89
1, 22095, Control_c, 4, 11, 113
1, 22100, Control_c, 4, 11, 127
1, 22103, Note_on_c, 3, 74, 0
1, 22122, Control_c, 4, 11, 99
1, 22127, Control_c, 4, 11, 92
1, 22128, Note_on_c, 3, 74, 111
1, 22128, Note_on_c, 9, 35, 44
1, 22128, Note_on_c, 9, 51, 67
1, 22130, Note_on_c, 9, 51, 0
1, 22130, Note_on_c, 9, 35, 0
1, 22131, Control_c, 4, 11, 114
1, 22136, Control_c, 4, 11, 127
1, 22152, Note_on_c, 9, 51, 43
1, 22154, Note_on_c, 9, 51, 0
1, 22159, Control_c, 4, 11, 108
1, 22163, Control_c, 4, 11, 96
1, 22168, Control_c, 4, 11, 109
1, 22172, Control_c, 4, 11, 127
1, 22176, Note_on_c, 9, 40, 105
1, 22176, Note_on_c, 9, 51, 67
1, 22178, Note_on_c, 9, 51, 0
1, 22178, Note_on_c, 9, 40, 0
1, 22195, Control_c, 4, 11, 114
1, 22199, Control_c, 4, 11, 96
1, 22200, Note_on_c, 3, 76, 111
1, 22204, Control_c, 4, 11, 111
1, 22207, Note_on_c, 3, 74, 0
1, 22208, Control_c, 4, 11, 127
1, 22221, Note_on_c, 1, 31, 0
1, 22224, Note_on_c, 1, 33, 84
1, 22224, Note_on_c, 9, 51, 67
1, 22226, Note_on_c, 9, 51, 0
1, 22248, Note_on_c, 9, 35, 35
1, 22248, Note_on_c, 9, 51, 45
1, 22250, Note_on_c, 9, 51, 0
1, 22250, Note_on_c, 9, 35, 0
1, 22272, Note_on_c, 5, 83, 0
1, 22272, Note_on_c, 1, 34, 96
1, 22272, Note_on_c, 3, 77, 102
1, 22272, Note_on_c, 5, 77, 62
1, 22272, Note_on_c, 5, 82, 56
1, 22272, Note_on_c, 9, 35, 75
1, 22272, Note_on_c, 9, 51, 63
1, 22273, Note_on_c, 3, 76, 0
1, 22274, Note_on_c, 5, 79, 0
1, 22274, Note_on_c, 9, 51, 0
1, 22274, Note_on_c, 9, 35, 0
1, 22274, Note_on_c, 1, 33, 0
1, 22275, Note_on_c, 4, 62, 0
1, 22307, Control_c, 4, 11, 96
1, 22312, Control_c, 4, 11, 84
1, 22317, Control_c, 4, 11, 95
1, 22320, Note_on_c, 4, 53, 72
1, 22320, Control_c, 4, 11, 127
1, 22320, Note_on_c, 9, 35, 50
1, 22320, Note_on_c, 9, 51, 59
1, 22322, Note_on_c, 9, 51, 0
1, 22322, Note_on_c, 9, 35, 0
1, 22341, Control_c, 4, 11, 116
1, 22343, Control_c, 4, 11, 84
1, 22344, Note_on_c, 9, 51, 37
1, 22346, Note_on_c, 9, 51, 0
1, 22347, Control_c, 4, 11, 77
1, 22352, Control_c, 4, 11, 102
1, 22356, Control_c, 4, 11, 127
1, 22368, Note_on_c, 4, 58, 84
1, 22368, Note_on_c, 9, 40, 105
1, 22368, Note_on_c, 9, 51, 57
1, 22370, Note_on_c, 9, 51, 0
1, 22370, Note_on_c, 9, 40, 0
1, 22370, Note_on_c, 4, 53, 0
1, 22373, Control_c, 4, 11, 122
1, 22374, Control_c, 4, 11, 88
1, 22379, Control_c, 4, 11, 64
1, 22385, Control_c, 4, 11, 74
1, 22388, Control_c, 4, 11, 100
1, 22392, Control_c, 4, 11, 127
1, 22408, Control_c, 4, 11, 120
1, 22410, Control_c, 4, 11, 97
1, 22412, Note_on_c, 1, 34, 0
1, 22415, Control_c, 4, 11, 86
1, 22416, Note_on_c, 1, 36, 86
1, 22416, Note_on_c, 9, 35, 56
1, 22416, Note_on_c, 9, 51, 67
1, 22418, Note_on_c, 9, 51, 0
1, 22418, Note_on_c, 9, 35, 0
1, 22419, Control_c, 4, 11, 84
1, 22424, Control_c, 4, 11, 104
1, 22429, Control_c, 4, 11, 127
1, 22440, Note_on_c, 9, 51, 32
1, 22442, Note_on_c, 9, 51, 0
1, 22450, Control_c, 4, 11, 123
1, 22451, Control_c, 4, 11, 92
1, 22455, Control_c, 4, 11, 73
1, 22460, Control_c, 4, 11, 87
1, 22464, Note_on_c, 4, 62, 80
1, 22464, Control_c, 4, 11, 119
1, 22464, Note_on_c, 9, 51, 63
1, 22466, Note_on_c, 9, 51, 0
1, 22469, Control_c, 4, 11, 127
1, 22473, Note_on_c, 4, 58, 0
1, 22484, Control_c, 4, 11, 109
1, 22487, Control_c, 4, 11, 78
1, 22491, Control_c, 4, 11, 70
1, 22496, Control_c, 4, 11, 82
1, 22501, Control_c, 4, 11, 108
1, 22505, Control_c, 4, 11, 127
1, 22512, Note_on_c, 3, 79, 100
1, 22512, Note_on_c, 9, 35, 39
1, 22512, Note_on_c, 9, 51, 63
1, 22514, Note_on_c, 9, 51, 0
1, 22514, Note_on_c, 9, 35, 0
1, 22521, Control_c, 4, 11, 121
1, 22523, Control_c, 4, 11, 88
1, 22524, Note_on_c, 3, 77, 0
1, 22527, Control_c, 4, 11, 74
1, 22532, Control_c, 4, 11, 94
1, 22536, Control_c, 4, 11, 127
1, 22536, Note_on_c, 9, 51, 49
1, 22538, Note_on_c, 9, 51, 0
1, 22552, Control_c, 4, 11, 119
1, 22554, Control_c, 4, 11, 77
1, 22559, Note_on_c, 4, 62, 0
1, 22559, Control_c, 4, 11, 68
1, 22560, Note_on_c, 1, 38, 96
1, 22560, Note_on_c, 4, 65, 76
1, 22560, Note_on_c, 9, 40, 105
1, 22560, Note_on_c, 9, 51, 63
1, 22562, Note_on_c, 9, 51, 0
1, 22562, Note_on_c, 9, 40, 0
1, 22562, Note_on_c, 1, 36, 0
1, 22563, Control_c, 4, 11, 86
1, 22567, Control_c, 4, 11, 122
1, 22573, Control_c, 4, 11, 127
1, 22584, Note_on_c, 3, 77, 98
1, 22593, Note_on_c, 3, 79, 0
1, 22595, Control_c, 4, 11, 123
1, 22599, Control_c, 4, 11, 127
1, 22601, Note_on_c, 1, 38, 0
1, 22605, Note_on_c, 3, 77, 0
1, 22608, Note_on_c, 1, 46, 86
1, 22608, Note_on_c, 3, 76, 106
1, 22608, Note_on_c, 9, 51, 67
1, 22610, Note_on_c, 9, 51, 0
1, 22631, Note_on_c, 4, 65, 0
1, 22632, Note_on_c, 9, 35, 33
1, 22632, Note_on_c, 9, 51, 53
1, 22634, Note_on_c, 9, 51, 0
1, 22634, Note_on_c, 9, 35, 0
1, 22641, Note_on_c, 5, 77, 0
1, 22648, Note_on_c, 5, 82, 0
1, 22655, Note_on_c, 1, 46, 0
1, 22656, Note_on_c, 1, 45, 100
1, 22656, Note_on_c, 5, 76, 38
1, 22656, Note_on_c, 5, 81, 50
1, 22656, Note_on_c, 5, 85, 39
1, 22656, Note_on_c, 5, 79, 31
1, 22656, Note_on_c, 9, 35, 75
1, 22656, Note_on_c, 9, 51, 53
1, 22658, Note_on_c, 9, 51, 0
1, 22658, Note_on_c, 9, 35, 0
1, 22666, Note_on_c, 5, 86, 0
1, 22676, Note_on_c, 1, 45, 0
1, 22680, Note_on_c, 3, 74, 76
1, 22692, Note_on_c, 3, 76, 0
1, 22704, Note_on_c, 1, 33, 86
1, 22704, Note_on_c, 3, 73, 82
1, 22704, Note_on_c, 4, 52, 68
1, 22704, Note_on_c, 9, 35, 48
1, 22704, Note_on_c, 9, 51, 59
1, 22706, Note_on_c, 9, 51, 0
1, 22706, Note_on_c, 9, 35, 0
1, 22707, Note_on_c, 3, 74, 0
1, 22710, Note_on_c, 1, 33, 0
1, 22728, Note_on_c, 1, 33, 104
1, 22728, Note_on_c, 9, 35, 41
1, 22728, Note_on_c, 9, 51, 47
1, 22730, Note_on_c, 9, 51, 0
1, 22730, Note_on_c, 9, 35, 0
1, 22740, Note_on_c, 1, 33, 0
1, 22752, Note_on_c, 4, 57, 66
1, 22752, Note_on_c, 9, 40, 105
1, 22752, Note_on_c, 9, 51, 51
1, 22754, Note_on_c, 9, 51, 0
1, 22754, Note_on_c, 9, 40, 0
1, 22800, Note_on_c, 1, 47, 100
1, 22800, Note_on_c, 4, 59, 66
1, 22800, Note_on_c, 9, 35, 75
1, 22800, Note_on_c, 9, 57, 61
1, 22802, Note_on_c, 9, 57, 0
1, 22802, Note_on_c, 9, 35, 0
1, 22811, Pitch_bend_c, 1, 8842
1, 22813, Pitch_bend_c, 1, 10662
1, 22817, Pitch_bend_c, 1, 12482
1, 22819, Control_c, 4, 11, 104
1, 22820, Pitch_bend_c, 1, 15472
1, 22822, Note_on_c, 1, 47, 0
1, 22824, Pitch_bend_c, 1, 16382
1, 22825, Control_c, 4, 11, 93
1, 22830, Control_c, 4, 11, 100
1, 22833, Control_c, 4, 11, 116
1, 22838, Control_c, 4, 11, 124
1, 22842, Control_c, 4, 11, 127
1, 22845, Pitch_bend_c, 1, 10532
1, 22848, Pitch_bend_c, 1, 8192
1, 22848, Note_on_c, 9, 40, 105
1, 22848, Note_on_c, 9, 49, 48
1, 22850, Note_on_c, 9, 49, 0
1, 22850, Note_on_c, 9, 40, 0
1, 22868, Control_c, 4, 11, 126
1, 22869, Control_c, 4, 11, 111
1, 22872, Note_on_c, 9, 35, 58
1, 22874, Note_on_c, 9, 35, 0
1, 22874, Control_c, 4, 11, 105
1, 22879, Control_c, 4, 11, 117
1, 22883, Control_c, 4, 11, 127
1, 22896, Note_on_c, 1, 45, 86
1, 22896, Note_on_c, 9, 51, 55
1, 22897, Note_on_c, 3, 73, 0
1, 22898, Note_on_c, 9, 51, 0
1, 22905, Control_c, 4, 11, 96
1, 22910, Control_c, 4, 11, 85
1, 22915, Control_c, 4, 11, 94
1, 22919, Control_c, 4, 11, 120
1, 22924, Control_c, 4, 11, 127
1, 22938, Control_c, 4, 11, 103
1, 22942, Control_c, 4, 11, 86
1, 22944, Note_on_c, 9, 40, 105
1, 22944, Note_on_c, 9, 51, 83
1, 22946, Note_on_c, 9, 51, 0
1, 22946, Note_on_c, 9, 40, 0
1, 22947, Control_c, 4, 11, 92
1, 22950, Control_c, 4, 11, 120
1, 22955, Control_c, 4, 11, 127
1, 22971, Control_c, 4, 11, 121
1, 22973, Control_c, 4, 11, 93
1, 22977, Control_c, 4, 11, 85
1, 22982, Control_c, 4, 11, 104
1, 22987, Control_c, 4, 11, 123
1, 22991, Control_c, 4, 11, 127
1, 22992, Note_on_c, 9, 40, 90
1, 22992, Note_on_c, 9, 49, 44
1, 22994, Note_on_c, 9, 49, 0
1, 22994, Note_on_c, 9, 40, 0
1, 23016, Note_on_c, 9, 40, 90
1, 23018, Note_on_c, 9, 40, 0
1, 23026, Note_on_c, 5, 76, 0
1, 23027, Note_on_c, 4, 52, 0
1, 23029, Note_on_c, 1, 45, 0
1, 23030, Note_on_c, 4, 57, 0
1, 23031, Note_on_c, 5, 79, 0
1, 23032, Note_on_c, 4, 59, 0
1, 23032, Note_on_c, 5, 85, 0
1, 23032, Note_on_c, 5, 81, 0
1, 23040, Note_on_c, 1, 36, 100
1, 23040, Note_on_c, 3, 76, 106
1, 23040, Note_on_c, 5, 88, 66
1, 23040, Note_on_c, 5, 79, 52
1, 23040, Note_on_c, 5, 84, 66
1, 23040, Note_on_c, 9, 35, 75
1, 23040, Note_on_c, 9, 51, 71
1, 23042, Note_on_c, 9, 51, 0
1, 23042, Note_on_c, 9, 35, 0
1, 23056, Control_c, 4, 11, 119
1, 23058, Control_c, 4, 11, 90
1, 23063, Control_c, 4, 11, 78
1, 23070, Control_c, 4, 11, 80
1, 23071, Control_c, 4, 11, 96
1, 23077, Control_c, 4, 11, 117
1, 23081, Control_c, 4, 11, 127
1, 23088, Note_on_c, 4, 55, 80
1, 23088, Note_on_c, 9, 35, 50
1, 23088, Note_on_c, 9, 51, 63
1, 23089, Control_c, 3, 1, 1
1, 23090, Note_on_c, 9, 51, 0
1, 23090, Note_on_c, 9, 35, 0
1, 23090, Control_c, 3, 1, 2
1, 23092, Control_c, 3, 1, 3
1, 23094, Control_c, 3, 1, 5
1, 23096, Control_c, 3, 1, 6
1, 23098, Control_c, 3, 1, 8
1, 23099, Control_c, 3, 1, 9
1, 23100, Control_c, 3, 1, 10
1, 23101, Control_c, 4, 11, 110
1, 23102, Control_c, 3, 1, 12
1, 23103, Control_c, 3, 1, 13
1, 23104, Control_c, 3, 1, 14
1, 23104, Control_c, 4, 11, 89
1, 23105, Control_c, 3, 1, 15
1, 23106, Control_c, 3, 1, 16
1, 23107, Control_c, 3, 1, 17
1, 23108, Control_c, 3, 1, 18
1, 23109, Control_c, 3, 1, 19
1, 23110, Control_c, 4, 11, 94
1, 23111, Control_c, 3, 1, 20
1, 23112, Control_c, 3, 1, 21
1, 23112, Control_c, 4, 11, 119
1, 23112, Note_on_c, 9, 35, 37
1, 23112, Note_on_c, 9, 51, 47
1, 23113, Control_c, 3, 1, 22
1, 23114, Note_on_c, 9, 51, 0
1, 23114, Note_on_c, 9, 35, 0
1, 23115, Control_c, 3, 1, 23
1, 23116, Control_c, 3, 1, 24
1, 23117, Control_c, 4, 11, 127
1, 23119, Control_c, 3, 1, 25
1, 23122, Control_c, 3, 1, 26
1, 23126, Control_c, 3, 1, 27
1, 23128, Control_c, 3, 1, 28
1, 23130, Note_on_c, 1, 36, 0
1, 23130, Control_c, 3, 1, 29
1, 23132, Control_c, 3, 1, 30
1, 23132, Control_c, 4, 11, 110
1, 23135, Control_c, 4, 11, 75
1, 23136, Note_on_c, 1, 43, 78
1, 23136, Note_on_c, 4, 60, 66
1, 23136, Note_on_c, 9, 40, 105
1, 23136, Note_on_c, 9, 51, 51
1, 23137, Control_c, 3, 1, 31
1, 23138, Note_on_c, 9, 51, 0
1, 23138, Note_on_c, 9, 40, 0
1, 23139, Control_c, 4, 11, 73
1, 23142, Control_c, 3, 1, 32
1, 23144, Control_c, 4, 11, 94
1, 23147, Control_c, 3, 1, 33
1, 23148, Control_c, 4, 11, 119
1, 23153, Control_c, 4, 11, 127
1, 23160, Control_c, 3, 1, 34
1, 23160, Note_on_c, 9, 40, 90
1, 23162, Note_on_c, 9, 40, 0
1, 23169, Control_c, 3, 1, 35
1, 23170, Control_c, 4, 11, 98
1, 23172, Note_on_c, 1, 50, 82
1, 23176, Control_c, 4, 11, 80
1, 23177, Control_c, 3, 1, 36
1, 23182, Control_c, 4, 11, 88
1, 23184, Note_on_c, 1, 52, 86
1, 23184, Note_on_c, 4, 64, 88
1, 23184, Note_on_c, 9, 35, 56
1, 23184, Note_on_c, 9, 49, 70
1, 23185, Control_c, 4, 11, 104
1, 23186, Note_on_c, 9, 49, 0
1, 23186, Note_on_c, 9, 35, 0
1, 23188, Note_on_c, 1, 50, 0
1, 23188, Note_on_c, 1, 43, 0
1, 23188, Note_on_c, 4, 55, 0
1, 23189, Note_on_c, 4, 60, 0
1, 23189, Control_c, 4, 11, 117
1, 23193, Control_c, 4, 11, 127
1, 23208, Control_c, 3, 1, 37
1, 23213, Control_c, 3, 1, 36
1, 23214, Control_c, 4, 11, 118
1, 23215, Control_c, 3, 1, 35
1, 23216, Control_c, 4, 11, 84
1, 23218, Control_c, 3, 1, 34
1, 23219, Control_c, 3, 1, 33
1, 23220, Control_c, 4, 11, 68
1, 23221, Control_c, 3, 1, 32
1, 23222, Control_c, 3, 1, 31
1, 23223, Control_c, 3, 1, 29
1, 23224, Control_c, 3, 1, 28
1, 23225, Control_c, 3, 1, 26
1, 23225, Control_c, 4, 11, 84
1, 23226, Control_c, 3, 1, 24
1, 23228, Control_c, 3, 1, 21
1, 23229, Control_c, 3, 1, 19
1, 23230, Control_c, 3, 1, 16
1, 23230, Control_c, 4, 11, 122
1, 23231, Control_c, 3, 1, 13
1, 23232, Control_c, 3, 1, 9
1, 23232, Note_on_c, 4, 60, 66
1, 23232, Note_on_c, 9, 51, 57
1, 23233, Control_c, 3, 1, 5
1, 23234, Note_on_c, 9, 51, 0
1, 23234, Control_c, 3, 1, 2
1, 23234, Control_c, 4, 11, 127
1, 23235, Control_c, 3, 1, 0
1, 23250, Control_c, 4, 11, 124
1, 23251, Control_c, 4, 11, 83
1, 23256, Note_on_c, 3, 74, 90
1, 23256, Note_on_c, 9, 40, 80
1, 23257, Control_c, 4, 11, 74
1, 23258, Note_on_c, 9, 40, 0
1, 23258, Note_on_c, 3, 76, 0
1, 23261, Control_c, 4, 11, 95
1, 23265, Control_c, 4, 11, 127
1, 23275, Note_on_c, 3, 74, 0
1, 23280, Note_on_c, 1, 53, 88
1, 23280, Note_on_c, 3, 72, 111
1, 23280, Note_on_c, 4, 55, 64
1, 23280, Note_on_c, 9, 35, 39
1, 23280, Note_on_c, 9, 51, 49
1, 23282, Note_on_c, 9, 51, 0
1, 23282, Note_on_c, 9, 35, 0
1, 23283, Control_c, 4, 11, 93
1, 23285, Note_on_c, 1, 52, 0
1, 23288, Control_c, 4, 11, 79
1, 23293, Control_c, 4, 11, 85
1, 23296, Control_c, 4, 11, 115
1, 23301, Control_c, 4, 11, 127
1, 23304, Note_on_c, 9, 51, 28
1, 23306, Note_on_c, 9, 51, 0
1, 23311, Control_c, 4, 11, 114
1, 23314, Control_c, 4, 11, 84
1, 23320, Control_c, 4, 11, 80
1, 23324, Control_c, 4, 11, 97
1, 23328, Control_c, 4, 11, 127
1, 23328, Note_on_c, 9, 40, 105
1, 23328, Note_on_c, 9, 51, 51
1, 23330, Note_on_c, 9, 51, 0
1, 23330, Note_on_c, 9, 40, 0
1, 23346, Control_c, 4, 11, 103
1, 23350, Note_on_c, 3, 72, 0
1, 23350, Note_on_c, 1, 53, 0
1, 23351, Control_c, 4, 11, 86
1, 23352, Note_on_c, 3, 74, 90
1, 23357, Control_c, 4, 11, 92
1, 23359, Control_c, 4, 11, 122
1, 23364, Note_on_c, 1, 52, 84
1, 23365, Control_c, 4, 11, 127
1, 23376, Note_on_c, 9, 51, 67
1, 23378, Note_on_c, 9, 51, 0
1, 23384, Control_c, 4, 11, 121
1, 23386, Control_c, 4, 11, 88
1, 23392, Control_c, 4, 11, 86
1, 23396, Control_c, 4, 11, 102
1, 23398, Note_on_c, 3, 74, 0
1, 23400, Control_c, 4, 11, 127
1, 23400, Note_on_c, 9, 35, 33
1, 23400, Note_on_c, 9, 51, 39
1, 23402, Note_on_c, 9, 51, 0
1, 23402, Note_on_c, 9, 35, 0
1, 23416, Note_on_c, 5, 79, 0
1, 23420, Control_c, 4, 11, 114
1, 23423, Control_c, 4, 11, 99
1, 23424, Note_on_c, 1, 50, 100
1, 23424, Note_on_c, 3, 74, 90
1, 23424, Note_on_c, 5, 83, 62
1, 23424, Note_on_c, 5, 86, 58
1, 23424, Note_on_c, 5, 79, 33
1, 23424, Note_on_c, 9, 35, 75
1, 23424, Note_on_c, 9, 51, 67
1, 23426, Note_on_c, 9, 51, 0
1, 23426, Note_on_c, 9, 35, 0
1, 23427, Control_c, 4, 11, 95
1, 23428, Note_on_c, 1, 52, 0
1, 23434, Control_c, 4, 11, 98
1, 23436, Control_c, 4, 11, 112
1, 23439, Note_on_c, 5, 84, 0
1, 23440, Control_c, 4, 11, 127
1, 23441, Note_on_c, 5, 88, 0
1, 23450, Note_on_c, 4, 55, 0
1, 23458, Control_c, 4, 11, 109
1, 23463, Control_c, 4, 11, 105
1, 23464, Note_on_c, 4, 60, 0
1, 23465, Note_on_c, 4, 64, 0
1, 23467, Control_c, 4, 11, 123
1, 23472, Note_on_c, 4, 55, 88
1, 23472, Note_on_c, 9, 35, 48
1, 23472, Note_on_c, 9, 51, 63
1, 23473, Control_c, 4, 11, 127
1, 23474, Note_on_c, 9, 51, 0
1, 23474, Note_on_c, 9, 35, 0
1, 23493, Control_c, 4, 11, 123
1, 23494, Control_c, 4, 11, 91
1, 23496, Note_on_c, 9, 51, 43
1, 23498, Note_on_c, 9, 51, 0
1, 23500, Control_c, 4, 11, 84
1, 23504, Control_c, 4, 11, 93
1, 23505, Control_c, 3, 1, 1
1, 23507, Control_c, 3, 1, 2
1, 23508, Control_c, 4, 11, 120
1, 23511, Control_c, 3, 1, 3
1, 23513, Control_c, 3, 1, 4
1, 23513, Control_c, 4, 11, 127
1, 23515, Control_c, 3, 1, 5
1, 23517, Control_c, 3, 1, 6
1, 23519, Control_c, 3, 1, 8
1, 23520, Control_c, 3, 1, 9
1, 23520, Note_on_c, 4, 59, 72
1, 23520, Note_on_c, 9, 40, 105
1, 23520, Note_on_c, 9, 51, 59
1, 23521, Control_c, 3, 1, 10
1, 23522, Note_on_c, 9, 51, 0
1, 23522, Note_on_c, 9, 40, 0
1, 23523, Control_c, 3, 1, 11
1, 23524, Control_c, 3, 1, 13
1, 23524, Control_c, 4, 11, 122
1, 23525, Control_c, 3, 1, 14
1, 23526, Control_c, 3, 1, 15
1, 23526, Control_c, 4, 11, 88
1, 23527, Control_c, 3, 1, 16
1, 23528, Control_c, 3, 1, 18
1, 23529, Control_c, 3, 1, 19
1, 23530, Control_c, 3, 1, 21
1, 23531, Control_c, 3, 1, 22
1, 23531, Control_c, 4, 11, 72
1, 23532, Control_c, 3, 1, 25
1, 23534, Control_c, 3, 1, 28
1, 23534, Control_c, 3, 1, 26
1, 23536, Control_c, 3, 1, 29
1, 23536, Control_c, 4, 11, 81
1, 23538, Control_c, 3, 1, 30
1, 23539, Control_c, 4, 11, 113
1, 23541, Control_c, 3, 1, 31
1, 23544, Note_on_c, 4, 60, 66
1, 23545, Control_c, 3, 1, 32
1, 23545, Control_c, 4, 11, 127
1, 23548, Control_c, 3, 1, 33
1, 23551, Note_on_c, 4, 59, 0
1, 23552, Control_c, 3, 1, 34
1, 23555, Control_c, 3, 1, 35
1, 23559, Control_c, 3, 1, 36
1, 23561, Control_c, 4, 11, 122
1, 23562, Control_c, 3, 1, 37
1, 23563, Control_c, 4, 11, 94
1, 23565, Control_c, 3, 1, 38
1, 23567, Control_c, 4, 11, 76
1, 23568, Note_on_c, 1, 50, 0
1, 23568, Note_on_c, 1, 47, 88
1, 23568, Note_on_c, 4, 62, 88
1, 23568, Note_on_c, 9, 35, 75
1, 23568, Note_on_c, 9, 51, 59
1, 23569, Control_c, 3, 1, 39
1, 23570, Note_on_c, 9, 51, 0
1, 23570, Note_on_c, 9, 35, 0
1, 23572, Control_c, 4, 11, 93
1, 23573, Note_on_c, 4, 60, 0
1, 23574, Control_c, 3, 1, 40
1, 23576, Control_c, 4, 11, 126
1, 23579, Control_c, 3, 1, 41
1, 23580, Control_c, 4, 11, 127
1, 23587, Control_c, 3, 1, 42
1, 23592, Note_on_c, 9, 51, 51
1, 23594, Note_on_c, 9, 51, 0
1, 23595, Control_c, 3, 1, 43
1, 23597, Control_c, 4, 11, 124
1, 23598, Control_c, 4, 11, 92
1, 23603, Control_c, 4, 11, 86
1, 23607, Control_c, 4, 11, 97
1, 23611, Control_c, 4, 11, 122
1, 23614, Note_on_c, 3, 74, 0
1, 23616, Note_on_c, 4, 59, 64
1, 23616, Note_on_c, 9, 51, 57
1, 23617, Control_c, 4, 11, 127
1, 23618, Note_on_c, 9, 51, 0
1, 23619, Note_on_c, 4, 55, 0
1, 23632, Control_c, 3, 1, 42
1, 23633, Control_c, 3, 1, 41
1, 23635, Control_c, 3, 1, 40
1, 23636, Control_c, 4, 11, 105
1, 23637, Control_c, 3, 1, 39
1, 23638, Control_c, 3, 1, 37
1, 23639, Control_c, 3, 1, 36
1, 23640, Control_c, 3, 1, 35
1, 23640, Control_c, 4, 11, 80
1, 23641, Control_c, 3, 1, 33
1, 23642, Control_c, 3, 1, 31
1, 23643, Control_c, 3, 1, 28
1, 23644, Control_c, 3, 1, 25
1, 23644, Control_c, 4, 11, 76
1, 23645, Control_c, 3, 1, 21
1, 23646, Control_c, 3, 1, 18
1, 23647, Control_c, 3, 1, 14
1, 23648, Control_c, 3, 1, 10
1, 23648, Control_c, 4, 11, 92
1, 23649, Control_c, 3, 1, 5
1, 23650, Control_c, 3, 1, 2
1, 23651, Control_c, 3, 1, 0
1, 23652, Control_c, 4, 11, 125
1, 23657, Control_c, 4, 11, 127
1, 23664, Note_on_c, 1, 43, 70
1, 23664, Note_on_c, 3, 74, 111
1, 23664, Note_on_c, 4, 55, 60
1, 23664, Note_on_c, 9, 35, 48
1, 23664, Note_on_c, 9, 51, 45
1, 23666, Note_on_c, 9, 51, 0
1, 23666, Note_on_c, 9, 35, 0
1, 23668, Note_on_c, 1, 47, 0
1, 23671, Control_c, 4, 11, 111
1, 23675, Control_c, 4, 11, 86
1, 23679, Control_c, 4, 11, 82
1, 23684, Control_c, 4, 11, 100
1, 23688, Control_c, 4, 11, 122
1, 23688, Note_on_c, 9, 51, 39
1, 23690, Note_on_c, 9, 51, 0
1, 23693, Control_c, 4, 11, 127
1, 23704, Control_c, 4, 11, 111
1, 23707, Control_c, 4, 11, 82
1, 23711, Control_c, 4, 11, 70
1, 23712, Note_on_c, 9, 40, 105
1, 23712, Note_on_c, 9, 49, 34
1, 23714, Note_on_c, 9, 49, 0
1, 23714, Note_on_c, 9, 40, 0
1, 23715, Control_c, 4, 11, 83
1, 23720, Control_c, 4, 11, 95
1, 23724, Control_c, 4, 11, 98
1, 23728, Note_on_c, 3, 74, 0
1, 23729, Control_c, 4, 11, 101
1, 23736, Note_on_c, 3, 76, 106
1, 23736, Control_c, 4, 11, 100
1, 23737, Control_c, 4, 11, 88
1, 23743, Control_c, 4, 11, 82
1, 23748, Control_c, 4, 11, 91
1, 23751, Control_c, 4, 11, 110
1, 23756, Control_c, 4, 11, 124
1, 23760, Note_on_c, 1, 38, 78
1, 23760, Control_c, 4, 11, 127
1, 23760, Note_on_c, 9, 51, 67
1, 23762, Note_on_c, 9, 51, 0
1, 23773, Note_on_c, 1, 43, 0
1, 23784, Note_on_c, 9, 40, 90
1, 23784, Note_on_c, 9, 51, 41
1, 23786, Note_on_c, 9, 51, 0
1, 23786, Note_on_c, 9, 40, 0
1, 23786, Note_on_c, 4, 55, 0
1, 23789, Note_on_c, 4, 59, 0
1, 23799, Note_on_c, 1, 38, 0
1, 23799, Note_on_c, 4, 62, 0
1, 23806, Note_on_c, 5, 83, 0
1, 23806, Note_on_c, 5, 79, 0
1, 23808, Note_on_c, 1, 34, 88
1, 23808, Note_on_c, 3, 77, 106
1, 23808, Note_on_c, 4, 53, 52
1, 23808, Note_on_c, 4, 58, 56
1, 23808, Note_on_c, 4, 62, 64
1, 23808, Note_on_c, 5, 77, 54
1, 23808, Note_on_c, 5, 82, 56
1, 23808, Note_on_c, 7, 53, 52
1, 23808, Note_on_c, 7, 58, 56
1, 23808, Note_on_c, 7, 62, 64
1, 23808, Note_on_c, 9, 35, 75
1, 23808, Note_on_c, 9, 40, 90
1, 23808, Note_on_c, 9, 51, 59
1, 23810, Note_on_c, 9, 51, 0
1, 23810, Note_on_c, 3, 76, 0
1, 23810, Note_on_c, 9, 40, 0
1, 23810, Note_on_c, 9, 35, 0
1, 23855, Note_on_c, 1, 34, 0
1, 23856, Note_on_c, 1, 34, 76
1, 23856, Note_on_c, 9, 35, 56
1, 23856, Note_on_c, 9, 51, 63
1, 23858, Note_on_c, 9, 51, 0
1, 23858, Note_on_c, 9, 35, 0
1, 23876, Note_on_c, 1, 34, 0
1, 23880, Note_on_c, 9, 51, 45
1, 23882, Note_on_c, 9, 51, 0
1, 23902, Note_on_c, 7, 58, 0
1, 23902, Note_on_c, 7, 53, 0
1, 23902, Note_on_c, 4, 53, 0
1, 23902, Note_on_c, 7, 62, 0
1, 23902, Note_on_c, 4, 62, 0
1, 23902, Note_on_c, 4, 58, 0
1, 23904, Note_on_c, 1, 34, 92
1, 23904, Note_on_c, 4, 53, 64
1, 23904, Note_on_c, 4, 58, 66
1, 23904, Note_on_c, 4, 62, 72
1, 23904, Note_on_c, 7, 53, 64
1, 23904, Note_on_c, 7, 58, 66
1, 23904, Note_on_c, 7, 62, 72
1, 23904, Note_on_c, 9, 40, 90
1, 23904, Note_on_c, 9, 51, 57
1, 23906, Note_on_c, 9, 51, 0
1, 23906, Note_on_c, 9, 40, 0
1, 23921, Note_on_c, 1, 34, 0
1, 23928, Note_on_c, 1, 34, 59
1, 23945, Note_on_c, 1, 34, 0
1, 23952, Note_on_c, 1, 34, 68
1, 23952, Note_on_c, 9, 51, 63
1, 23954, Note_on_c, 9, 51, 0
1, 23973, Note_on_c, 1, 34, 0
1, 23976, Note_on_c, 1, 34, 70
1, 23976, Note_on_c, 9, 35, 46
1, 23976, Note_on_c, 9, 51, 55
1, 23978, Note_on_c, 9, 51, 0
1, 23978, Note_on_c, 9, 35, 0
1, 23987, Note_on_c, 1, 34, 0
1, 23995, Note_on_c, 3, 77, 0
1, 23998, Note_on_c, 7, 62, 0
1, 23998, Note_on_c, 7, 53, 0
1, 23998, Note_on_c, 4, 62, 0
1, 23998, Note_on_c, 4, 53, 0
1, 23998, Note_on_c, 7, 58, 0
1, 23998, Note_on_c, 4, 58, 0
1, 24000, Note_on_c, 1, 34, 96
1, 24000, Note_on_c, 3, 77, 121
1, 24000, Note_on_c, 4, 53, 68
1, 24000, Note_on_c, 4, 58, 66
1, 24000, Note_on_c, 4, 62, 72
1, 24000, Note_on_c, 7, 53, 68
1, 24000, Note_on_c, 7, 58, 66
1, 24000, Note_on_c, 7, 62, 72
1, 24000, Note_on_c, 9, 35, 75
1, 24000, Note_on_c, 9, 40, 90
1, 24000, Note_on_c, 9, 51, 67
1, 24002, Note_on_c, 9, 51, 0
1, 24002, Note_on_c, 9, 40, 0
1, 24002, Note_on_c, 9, 35, 0
1, 24014, Note_on_c, 1, 34, 0
1, 24024, Note_on_c, 1, 34, 82
1, 24032, Note_on_c, 1, 34, 0
1, 24046, Note_on_c, 7, 58, 0
1, 24046, Note_on_c, 7, 53, 0
1, 24046, Note_on_c, 4, 62, 0
1, 24046, Note_on_c, 7, 62, 0
1, 24046, Note_on_c, 4, 53, 0
1, 24046, Note_on_c, 4, 58, 0
1, 24048, Note_on_c, 1, 34, 100
1, 24048, Note_on_c, 4, 53, 66
1, 24048, Note_on_c, 4, 58, 84
1, 24048, Note_on_c, 4, 62, 76
1, 24048, Note_on_c, 7, 53, 66
1, 24048, Note_on_c, 7, 58, 84
1, 24048, Note_on_c, 7, 62, 76
1, 24048, Note_on_c, 9, 35, 54
1, 24048, Note_on_c, 9, 51, 61
1, 24050, Note_on_c, 9, 51, 0
1, 24050, Note_on_c, 9, 35, 0
1, 24063, Note_on_c, 1, 34, 0
1, 24072, Note_on_c, 1, 34, 88
1, 24072, Note_on_c, 9, 51, 41
1, 24074, Note_on_c, 9, 51, 0
1, 24075, Control_c, 3, 1, 1
1, 24077, Control_c, 3, 1, 2
1, 24079, Control_c, 3, 1, 4
1, 24081, Control_c, 3, 1, 5
1, 24083, Control_c, 3, 1, 6
1, 24084, Note_on_c, 1, 34, 0
1, 24085, Control_c, 3, 1, 7
1, 24087, Control_c, 3, 1, 8
1, 24088, Control_c, 3, 1, 9
1, 24089, Control_c, 3, 1, 10
1, 24091, Control_c, 3, 1, 11
1, 24094, Note_on_c, 7, 58, 0
1, 24094, Note_on_c, 7, 53, 0
1, 24094, Note_on_c, 4, 62, 0
1, 24094, Note_on_c, 7, 62, 0
1, 24094, Note_on_c, 4, 53, 0
1, 24094, Note_on_c, 4, 58, 0
1, 24096, Note_on_c, 1, 34, 104
1, 24096, Note_on_c, 4, 53, 66
1, 24096, Note_on_c, 4, 58, 76
1, 24096, Note_on_c, 4, 62, 84
1, 24096, Note_on_c, 7, 53, 66
1, 24096, Note_on_c, 7, 58, 76
1, 24096, Note_on_c, 7, 62, 84
1, 24096, Note_on_c, 9, 40, 90
1, 24096, Note_on_c, 9, 51, 61
1, 24098, Note_on_c, 9, 51, 0
1, 24098, Note_on_c, 9, 40, 0
1, 24104, Control_c, 3, 1, 12
1, 24107, Control_c, 3, 1, 13
1, 24109, Control_c, 3, 1, 14
1, 24111, Control_c, 3, 1, 15
1, 24112, Control_c, 3, 1, 16
1, 24113, Control_c, 3, 1, 17
1, 24114, Control_c, 3, 1, 18
1, 24115, Note_on_c, 1, 34, 0
1, 24116, Control_c, 3, 1, 20
1, 24119, Control_c, 3, 1, 21
1, 24120, Note_on_c, 1, 34, 96
1, 24120, Note_on_c, 9, 35, 52
1, 24121, Control_c, 3, 1, 22
1, 24122, Note_on_c, 9, 35, 0
1, 24123, Control_c, 3, 1, 23
1, 24125, Control_c, 3, 1, 24
1, 24127, Control_c, 3, 1, 25
1, 24129, Control_c, 3, 1, 26
1, 24131, Control_c, 3, 1, 27
1, 24133, Note_on_c, 1, 34, 0
1, 24133, Control_c, 3, 1, 28
1, 24137, Control_c, 3, 1, 29
1, 24144, Note_on_c, 1, 34, 86
1, 24144, Note_on_c, 9, 51, 79
1, 24146, Note_on_c, 9, 51, 0
1, 24147, Control_c, 3, 1, 28
1, 24149, Control_c, 3, 1, 27
1, 24150, Control_c, 3, 1, 26
1, 24151, Control_c, 3, 1, 25
1, 24152, Control_c, 3, 1, 23
1, 24153, Control_c, 3, 1, 21
1, 24154, Control_c, 3, 1, 19
1, 24155, Control_c, 3, 1, 17
1, 24156, Control_c, 3, 1, 14
1, 24157, Control_c, 3, 1, 10
1, 24158, Control_c, 3, 1, 5
1, 24159, Control_c, 3, 1, 1
1, 24160, Control_c, 3, 1, 0
1, 24162, Note_on_c, 7, 53, 0
1, 24162, Note_on_c, 4, 53, 0
1, 24168, Note_on_c, 9, 35, 46
1, 24168, Note_on_c, 9, 51, 35
1, 24169, Note_on_c, 5, 77, 0
1, 24170, Note_on_c, 9, 51, 0
1, 24170, Note_on_c, 9, 35, 0
1, 24176, Note_on_c, 1, 34, 0
1, 24179, Note_on_c, 3, 77, 0
1, 24190, Note_on_c, 5, 86, 0
1, 24192, Note_on_c, 1, 36, 104
1, 24192, Note_on_c, 3, 76, 121
1, 24192, Note_on_c, 4, 55, 60
1, 24192, Note_on_c, 4, 60, 66
1, 24192, Note_on_c, 4, 64, 60
1, 24192, Note_on_c, 5, 79, 44
1, 24192, Note_on_c, 5, 84, 48
1, 24192, Note_on_c, 5, 88, 50
1, 24192, Note_on_c, 7, 55, 60
1, 24192, Note_on_c, 7, 60, 66
1, 24192, Note_on_c, 7, 64, 60
1, 24192, Note_on_c, 9, 35, 75
1, 24192, Note_on_c, 9, 40, 90
1, 24192, Note_on_c, 9, 51, 67
1, 24194, Note_on_c, 9, 51, 0
1, 24194, Note_on_c, 9, 40, 0
1, 24194, Note_on_c, 9, 35, 0
1, 24196, Note_on_c, 7, 58, 0
1, 24196, Note_on_c, 4, 58, 0
1, 24199, Note_on_c, 5, 82, 0
1, 24200, Note_on_c, 7, 62, 0
1, 24200, Note_on_c, 4, 62, 0
1, 24213, Note_on_c, 1, 36, 0
1, 24213, Pitch_bend_c, 3, 8452
1, 24214, Pitch_bend_c, 3, 8972
1, 24215, Pitch_bend_c, 3, 9622
1, 24216, Pitch_bend_c, 3, 10272
1, 24217, Pitch_bend_c, 3, 10922
1, 24218, Pitch_bend_c, 3, 11702
1, 24219, Pitch_bend_c, 3, 12222
1, 24220, Pitch_bend_c, 3, 12612
1, 24221, Pitch_bend_c, 3, 12872
1, 24222, Pitch_bend_c, 3, 13132
1, 24223, Pitch_bend_c, 3, 13392
1, 24224, Pitch_bend_c, 3, 13522
1, 24225, Pitch_bend_c, 3, 13652
1, 24226, Pitch_bend_c, 3, 13782
1, 24228, Pitch_bend_c, 3, 13392
1, 24229, Pitch_bend_c, 3, 13132
1, 24230, Pitch_bend_c, 3, 12872
1, 24231, Pitch_bend_c, 3, 12612
1, 24232, Pitch_bend_c, 3, 12222
1, 24233, Pitch_bend_c, 3, 11702
1, 24234, Pitch_bend_c, 3, 10532
1, 24235, Pitch_bend_c, 3, 8192
1, 24238, Note_on_c, 7, 55, 0
1, 24238, Note_on_c, 7, 64, 0
1, 24238, Note_on_c, 4, 60, 0
1, 24238, Note_on_c, 4, 64, 0
1, 24238, Note_on_c, 7, 60, 0
1, 24238, Note_on_c, 4, 55, 0
1, 24240, Note_on_c, 1, 36, 88
1, 24240, Note_on_c, 4, 55, 64
1, 24240, Note_on_c, 4, 60, 66
1, 24240, Note_on_c, 4, 64, 72
1, 24240, Note_on_c, 7, 55, 64
1, 24240, Note_on_c, 7, 60, 66
1, 24240, Note_on_c, 7, 64, 72
1, 24240, Note_on_c, 9, 35, 54
1, 24240, Note_on_c, 9, 51, 61
1, 24242, Note_on_c, 9, 51, 0
1, 24242, Note_on_c, 9, 35, 0
1, 24260, Note_on_c, 1, 36, 0
1, 24264, Note_on_c, 9, 51, 49
1, 24266, Note_on_c, 9, 51, 0
1, 24276, Control_c, 3, 1, 2
1, 24277, Control_c, 3, 1, 3
1, 24278, Control_c, 3, 1, 5
1, 24279, Control_c, 3, 1, 8
1, 24280, Control_c, 3, 1, 11
1, 24281, Control_c, 3, 1, 13
1, 24282, Control_c, 3, 1, 16
1, 24283, Control_c, 3, 1, 18
1, 24284, Control_c, 3, 1, 21
1, 24285, Control_c, 3, 1, 24
1, 24286, Note_on_c, 7, 60, 0
1, 24286, Note_on_c, 7, 55, 0
1, 24286, Note_on_c, 4, 64, 0
1, 24286, Note_on_c, 7, 64, 0
1, 24286, Note_on_c, 4, 55, 0
1, 24286, Note_on_c, 4, 60, 0
1, 24286, Control_c, 3, 1, 26
1, 24287, Control_c, 3, 1, 29
1, 24288, Note_on_c, 1, 36, 104
1, 24288, Control_c, 3, 1, 32
1, 24288, Note_on_c, 4, 55, 76
1, 24288, Note_on_c, 4, 60, 66
1, 24288, Note_on_c, 4, 64, 68
1, 24288, Note_on_c, 7, 55, 76
1, 24288, Note_on_c, 7, 60, 66
1, 24288, Note_on_c, 7, 64, 68
1, 24288, Note_on_c, 9, 40, 90
1, 24288, Note_on_c, 9, 51, 67
1, 24289, Control_c, 3, 1, 34
1, 24290, Note_on_c, 9, 51, 0
1, 24290, Note_on_c, 9, 40, 0
1, 24290, Control_c, 3, 1, 35
1, 24292, Control_c, 3, 1, 37
1, 24294, Control_c, 3, 1, 38
1, 24296, Control_c, 3, 1, 39
1, 24301, Control_c, 3, 1, 40
1, 24304, Control_c, 3, 1, 41
1, 24306, Control_c, 3, 1, 42
1, 24307, Control_c, 3, 1, 43
1, 24309, Control_c, 3, 1, 45
1, 24313, Control_c, 3, 1, 46
1, 24315, Control_c, 3, 1, 47
1, 24318, Control_c, 3, 1, 48
1, 24323, Control_c, 3, 1, 49
1, 24324, Note_on_c, 1, 36, 0
1, 24334, Note_on_c, 7, 55, 0
1, 24334, Note_on_c, 7, 64, 0
1, 24334, Note_on_c, 4, 64, 0
1, 24334, Note_on_c, 7, 60, 0
1, 24334, Note_on_c, 4, 55, 0
1, 24334, Note_on_c, 4, 60, 0
1, 24336, Note_on_c, 1, 36, 80
1, 24336, Note_on_c, 4, 55, 64
1, 24336, Note_on_c, 4, 60, 76
1, 24336, Note_on_c, 4, 64, 72
1, 24336, Note_on_c, 7, 55, 64
1, 24336, Note_on_c, 7, 60, 76
1, 24336, Note_on_c, 7, 64, 72
1, 24336, Note_on_c, 9, 51, 71
1, 24338, Note_on_c, 9, 51, 0
1, 24338, Control_c, 3, 1, 50
1, 24343, Control_c, 3, 1, 51
1, 24346, Control_c, 3, 1, 52
1, 24348, Control_c, 3, 1, 53
1, 24350, Control_c, 3, 1, 54
1, 24352, Control_c, 3, 1, 55
1, 24353, Control_c, 3, 1, 56
1, 24355, Control_c, 3, 1, 57
1, 24357, Control_c, 3, 1, 58
1, 24358, Control_c, 3, 1, 59
1, 24359, Note_on_c, 1, 36, 0
1, 24359, Control_c, 3, 1, 60
1, 24360, Note_on_c, 1, 32, 86
1, 24360, Control_c, 3, 1, 61
1, 24360, Note_on_c, 9, 35, 52
1, 24360, Note_on_c, 9, 51, 47
1, 24361, Control_c, 3, 1, 62
1, 24362, Note_on_c, 9, 51, 0
1, 24362, Note_on_c, 9, 35, 0
1, 24363, Control_c, 3, 1, 63
1, 24365, Control_c, 3, 1, 64
1, 24367, Control_c, 3, 1, 66
1, 24369, Control_c, 3, 1, 67
1, 24377, Control_c, 3, 1, 68
1, 24380, Note_on_c, 1, 32, 0
1, 24382, Note_on_c, 7, 60, 0
1, 24382, Note_on_c, 7, 55, 0
1, 24382, Note_on_c, 4, 64, 0
1, 24382, Note_on_c, 7, 64, 0
1, 24382, Note_on_c, 4, 55, 0
1, 24382, Note_on_c, 4, 60, 0
1, 24384, Note_on_c, 1, 33, 80
1, 24384, Note_on_c, 4, 55, 68
1, 24384, Note_on_c, 4, 60, 72
1, 24384, Note_on_c, 4, 64, 80
1, 24384, Note_on_c, 7, 55, 68
1, 24384, Note_on_c, 7, 60, 72
1, 24384, Note_on_c, 7, 64, 80
1, 24384, Note_on_c, 9, 35, 75
1, 24384, Note_on_c, 9, 40, 90
1, 24384, Note_on_c, 9, 51, 63
1, 24386, Note_on_c, 9, 51, 0
1, 24386, Note_on_c, 9, 40, 0
1, 24386, Note_on_c, 9, 35, 0
1, 24388, Control_c, 3, 1, 67
1, 24389, Control_c, 3, 1, 66
1, 24390, Control_c, 3, 1, 64
1, 24391, Control_c, 3, 1, 60
1, 24391, Control_c, 3, 1, 62
1, 24391, Control_c, 3, 1, 63
1, 24395, Control_c, 3, 1, 59
1, 24396, Control_c, 3, 1, 56
1, 24397, Control_c, 3, 1, 53
1, 24398, Control_c, 3, 1, 50
1, 24399, Control_c, 3, 1, 46
1, 24400, Control_c, 3, 1, 42
1, 24401, Control_c, 3, 1, 38
1, 24402, Control_c, 3, 1, 34
1, 24403, Control_c, 3, 1, 31
1, 24404, Note_on_c, 1, 33, 0
1, 24404, Control_c, 3, 1, 26
1, 24405, Control_c, 3, 1, 22
1, 24406, Control_c, 3, 1, 17
1, 24407, Control_c, 3, 1, 12
1, 24408, Control_c, 3, 1, 7
1, 24409, Control_c, 3, 1, 2
1, 24410, Control_c, 3, 1, 0
1, 24430, Note_on_c, 7, 55, 0
1, 24430, Note_on_c, 7, 64, 0
1, 24430, Note_on_c, 4, 64, 0
1, 24430, Note_on_c, 7, 60, 0
1, 24430, Note_on_c, 4, 55, 0
1, 24430, Note_on_c, 4, 60, 0
1, 24432, Note_on_c, 1, 33, 92
1, 24432, Note_on_c, 4, 55, 66
1, 24432, Note_on_c, 4, 60, 72
1, 24432, Note_on_c, 4, 64, 80
1, 24432, Note_on_c, 7, 55, 66
1, 24432, Note_on_c, 7, 60, 72
1, 24432, Note_on_c, 7, 64, 80
1, 24432, Note_on_c, 9, 35, 60
1, 24432, Note_on_c, 9, 51, 75
1, 24434, Note_on_c, 9, 51, 0
1, 24434, Note_on_c, 9, 35, 0
1, 24452, Note_on_c, 1, 33, 0
1, 24456, Note_on_c, 9, 51, 49
1, 24458, Note_on_c, 9, 51, 0
1, 24478, Note_on_c, 7, 60, 0
1, 24478, Note_on_c, 7, 55, 0
1, 24478, Note_on_c, 4, 64, 0
1, 24478, Note_on_c, 7, 64, 0
1, 24478, Note_on_c, 4, 55, 0
1, 24478, Note_on_c, 4, 60, 0
1, 24480, Note_on_c, 1, 33, 92
1, 24480, Note_on_c, 4, 55, 66
1, 24480, Note_on_c, 4, 60, 68
1, 24480, Note_on_c, 4, 64, 84
1, 24480, Note_on_c, 7, 55, 66
1, 24480, Note_on_c, 7, 60, 68
1, 24480, Note_on_c, 7, 64, 84
1, 24480, Note_on_c, 9, 40, 90
1, 24480, Note_on_c, 9, 51, 57
1, 24482, Note_on_c, 9, 51, 0
1, 24482, Note_on_c, 9, 40, 0
1, 24501, Note_on_c, 1, 33, 0
1, 24504, Note_on_c, 3, 74, 116
1, 24504, Note_on_c, 9, 35, 44
1, 24506, Note_on_c, 9, 35, 0
1, 24507, Note_on_c, 3, 76, 0
1, 24522, Note_on_c, 3, 74, 0
1, 24526, Note_on_c, 7, 64, 0
1, 24526, Note_on_c, 7, 55, 0
1, 24526, Note_on_c, 4, 64, 0
1, 24526, Note_on_c, 4, 55, 0
1, 24526, Note_on_c, 7, 60, 0
1, 24526, Note_on_c, 4, 60, 0
1, 24528, Note_on_c, 5, 79, 0
1, 24528, Note_on_c, 1, 33, 64
1, 24528, Note_on_c, 3, 72, 116
1, 24528, Note_on_c, 4, 55, 64
1, 24528, Note_on_c, 4, 60, 68
1, 24528, Note_on_c, 4, 64, 72
1, 24528, Note_on_c, 7, 55, 64
1, 24528, Note_on_c, 7, 60, 68
1, 24528, Note_on_c, 7, 64, 72
1, 24528, Note_on_c, 9, 51, 83
1, 24530, Note_on_c, 9, 51, 0
1, 24552, Note_on_c, 3, 74, 102
1, 24552, Note_on_c, 9, 35, 52
1, 24552, Note_on_c, 9, 51, 37
1, 24554, Note_on_c, 9, 51, 0
1, 24554, Note_on_c, 9, 35, 0
1, 24555, Note_on_c, 5, 88, 0
1, 24558, Note_on_c, 3, 72, 0
1, 24568, Note_on_c, 7, 64, 0
1, 24568, Note_on_c, 4, 64, 0
1, 24571, Note_on_c, 7, 60, 0
1, 24571, Note_on_c, 4, 60, 0
1, 24576, Note_on_c, 1, 38, 100
1, 24576, Note_on_c, 3, 72, 116
1, 24576, Note_on_c, 4, 50, 72
1, 24576, Note_on_c, 4, 57, 76
1, 24576, Note_on_c, 4, 62, 66
1, 24576, Note_on_c, 5, 86, 88
1, 24576, Note_on_c, 5, 81, 66
1, 24576, Note_on_c, 5, 74, 60
1, 24576, Note_on_c, 7, 50, 72
1, 24576, Note_on_c, 7, 57, 76
1, 24576, Note_on_c, 7, 62, 66
1, 24576, Note_on_c, 9, 35, 75
1, 24576, Note_on_c, 9, 40, 90
1, 24576, Note_on_c, 9, 51, 59
1, 24577, Note_on_c, 1, 33, 0
1, 24578, Note_on_c, 7, 55, 0
1, 24578, Note_on_c, 9, 51, 0
1, 24578, Note_on_c, 9, 40, 0
1, 24578, Note_on_c, 9, 35, 0
1, 24578, Note_on_c, 4, 55, 0
1, 24581, Note_on_c, 3, 74, 0
1, 24585, Note_on_c, 5, 84, 0
1, 24592, Note_on_c, 3, 72, 0
1, 24600, Note_on_c, 3, 74, 99
1, 24622, Note_on_c, 7, 57, 0
1, 24622, Note_on_c, 7, 62, 0
1, 24622, Note_on_c, 4, 62, 0
1, 24622, Note_on_c, 4, 57, 0
1, 24622, Note_on_c, 4, 50, 0
1, 24622, Note_on_c, 7, 50, 0
1, 24622, Note_on_c, 1, 38, 0
1, 24624, Note_on_c, 1, 45, 78
1, 24624, Note_on_c, 4, 50, 66
1, 24624, Note_on_c, 4, 57, 68
1, 24624, Note_on_c, 4, 62, 84
1, 24624, Note_on_c, 7, 50, 66
1, 24624, Note_on_c, 7, 57, 68
1, 24624, Note_on_c, 7, 62, 84
1, 24624, Note_on_c, 9, 35, 52
1, 24624, Note_on_c, 9, 51, 61
1, 24626, Note_on_c, 9, 51, 0
1, 24626, Note_on_c, 9, 35, 0
1, 24649, Note_on_c, 1, 45, 0
1, 24670, Note_on_c, 7, 50, 0
1, 24670, Note_on_c, 7, 62, 0
1, 24670, Note_on_c, 4, 62, 0
1, 24670, Note_on_c, 7, 57, 0
1, 24670, Note_on_c, 4, 50, 0
1, 24670, Note_on_c, 4, 57, 0
1, 24672, Note_on_c, 1, 45, 86
1, 24672, Note_on_c, 4, 50, 76
1, 24672, Note_on_c, 4, 57, 84
1, 24672, Note_on_c, 4, 62, 80
1, 24672, Note_on_c, 7, 50, 76
1, 24672, Note_on_c, 7, 57, 84
1, 24672, Note_on_c, 7, 62, 80
1, 24672, Note_on_c, 9, 40, 90
1, 24672, Note_on_c, 9, 51, 61
1, 24674, Note_on_c, 9, 51, 0
1, 24674, Note_on_c, 9, 40, 0
1, 24695, Note_on_c, 1, 45, 0
1, 24704, Control_c, 3, 1, 1
1, 24705, Control_c, 3, 1, 2
1, 24706, Control_c, 3, 1, 3
1, 24707, Control_c, 3, 1, 4
1, 24708, Control_c, 3, 1, 5
1, 24709, Control_c, 3, 1, 6
1, 24710, Control_c, 3, 1, 8
1, 24711, Control_c, 3, 1, 10
1, 24712, Control_c, 3, 1, 11
1, 24713, Control_c, 3, 1, 12
1, 24714, Control_c, 3, 1, 14
1, 24715, Control_c, 3, 1, 15
1, 24716, Control_c, 3, 1, 16
1, 24717, Control_c, 3, 1, 17
1, 24718, Note_on_c, 7, 50, 0
1, 24718, Note_on_c, 7, 62, 0
1, 24718, Note_on_c, 4, 62, 0
1, 24718, Note_on_c, 7, 57, 0
1, 24718, Note_on_c, 4, 50, 0
1, 24718, Note_on_c, 4, 57, 0
1, 24719, Control_c, 3, 1, 18
1, 24720, Note_on_c, 1, 47, 80
1, 24720, Control_c, 3, 1, 19
1, 24720, Note_on_c, 4, 50, 84
1, 24720, Note_on_c, 4, 57, 84
1, 24720, Note_on_c, 4, 62, 84
1, 24720, Note_on_c, 7, 50, 84
1, 24720, Note_on_c, 7, 57, 84
1, 24720, Note_on_c, 7, 62, 84
1, 24720, Note_on_c, 9, 57, 67
1, 24722, Note_on_c, 9, 57, 0
1, 24722, Control_c, 3, 1, 20
1, 24725, Control_c, 3, 1, 21
1, 24727, Control_c, 3, 1, 22
1, 24729, Control_c, 3, 1, 24
1, 24730, Control_c, 3, 1, 25
1, 24731, Control_c, 3, 1, 26
1, 24732, Control_c, 3, 1, 27
1, 24734, Control_c, 3, 1, 28
1, 24735, Control_c, 3, 1, 29
1, 24737, Control_c, 3, 1, 30
1, 24741, Control_c, 3, 1, 31
1, 24744, Note_on_c, 1, 50, 72
1, 24744, Note_on_c, 9, 35, 44
1, 24745, Control_c, 3, 1, 32
1, 24746, Note_on_c, 9, 35, 0
1, 24747, Control_c, 3, 1, 33
1, 24750, Control_c, 3, 1, 34
1, 24752, Note_on_c, 1, 47, 0
1, 24752, Control_c, 3, 1, 35
1, 24754, Control_c, 3, 1, 37
1, 24755, Control_c, 3, 1, 38
1, 24756, Control_c, 3, 1, 39
1, 24757, Control_c, 3, 1, 40
1, 24759, Control_c, 3, 1, 41
1, 24760, Control_c, 3, 1, 42
1, 24762, Control_c, 3, 1, 43
1, 24764, Control_c, 3, 1, 44
1, 24766, Note_on_c, 7, 62, 0
1, 24766, Note_on_c, 7, 50, 0
1, 24766, Note_on_c, 4, 62, 0
1, 24766, Note_on_c, 7, 57, 0
1, 24766, Note_on_c, 4, 57, 0
1, 24766, Note_on_c, 4, 50, 0
1, 24766, Note_on_c, 1, 50, 0
1, 24766, Control_c, 3, 1, 45
1, 24768, Note_on_c, 1, 50, 86
1, 24768, Control_c, 3, 1, 46
1, 24768, Note_on_c, 4, 50, 80
1, 24768, Note_on_c, 4, 57, 84
1, 24768, Note_on_c, 4, 62, 80
1, 24768, Note_on_c, 7, 50, 80
1, 24768, Note_on_c, 7, 57, 84
1, 24768, Note_on_c, 7, 62, 80
1, 24768, Note_on_c, 9, 35, 75
1, 24768, Note_on_c, 9, 40, 90
1, 24769, Control_c, 3, 1, 48
1, 24770, Note_on_c, 9, 40, 0
1, 24770, Note_on_c, 9, 35, 0
1, 24772, Control_c, 3, 1, 49
1, 24774, Control_c, 3, 1, 50
1, 24776, Control_c, 3, 1, 51
1, 24778, Control_c, 3, 1, 52
1, 24780, Control_c, 3, 1, 53
1, 24784, Control_c, 3, 1, 54
1, 24787, Control_c, 3, 1, 55
1, 24790, Note_on_c, 1, 50, 0
1, 24791, Control_c, 3, 1, 56
1, 24792, Note_on_c, 1, 50, 76
1, 24814, Note_on_c, 1, 50, 0
1, 24816, Note_on_c, 1, 47, 80
1, 24816, Note_on_c, 9, 35, 48
1, 24818, Note_on_c, 9, 35, 0
1, 24830, Control_c, 3, 1, 55
1, 24832, Control_c, 3, 1, 54
1, 24833, Control_c, 3, 1, 53
1, 24835, Control_c, 3, 1, 52
1, 24836, Control_c, 3, 1, 51
1, 24838, Control_c, 3, 1, 50
1, 24841, Control_c, 3, 1, 49
1, 24846, Control_c, 3, 1, 48
1, 24848, Control_c, 3, 1, 47
1, 24850, Control_c, 3, 1, 46
1, 24852, Control_c, 3, 1, 45
1, 24853, Control_c, 3, 1, 44
1, 24854, Control_c, 3, 1, 43
1, 24855, Note_on_c, 1, 47, 0
1, 24855, Control_c, 3, 1, 41
1, 24856, Control_c, 3, 1, 40
1, 24857, Control_c, 3, 1, 38
1, 24858, Control_c, 3, 1, 36
1, 24859, Control_c, 3, 1, 33
1, 24860, Control_c, 3, 1, 31
1, 24861, Control_c, 3, 1, 28
1, 24862, Note_on_c, 7, 62, 0
1, 24862, Note_on_c, 7, 57, 0
1, 24862, Note_on_c, 4, 62, 0
1, 24862, Note_on_c, 7, 50, 0
1, 24862, Note_on_c, 4, 50, 0
1, 24862, Note_on_c, 4, 57, 0
1, 24862, Control_c, 3, 1, 23
1, 24863, Control_c, 3, 1, 19
1, 24864, Note_on_c, 1, 45, 82
1, 24864, Control_c, 3, 1, 13
1, 24864, Note_on_c, 4, 50, 88
1, 24864, Note_on_c, 4, 57, 84
1, 24864, Note_on_c, 4, 62, 84
1, 24864, Note_on_c, 7, 50, 88
1, 24864, Note_on_c, 7, 57, 84
1, 24864, Note_on_c, 7, 62, 84
1, 24864, Note_on_c, 9, 35, 75
1, 24865, Control_c, 3, 1, 5
1, 24866, Note_on_c, 9, 35, 0
1, 24866, Control_c, 3, 1, 0
1, 24879, Note_on_c, 3, 74, 0
1, 24888, Note_on_c, 9, 40, 105
1, 24890, Note_on_c, 9, 40, 0
1, 24902, Note_on_c, 5, 86, 0
1, 24902, Note_on_c, 5, 74, 0
1, 24909, Note_on_c, 5, 81, 0
1, 24911, Note_on_c, 1, 45, 0
1, 24912, Note_on_c, 1, 38, 78
1, 24912, Note_on_c, 9, 40, 105
1, 24914, Note_on_c, 9, 40, 0
1, 24938, Note_on_c, 7, 50, 0
1, 24938, Note_on_c, 4, 50, 0
1, 24954, Note_on_c, 4, 62, 0
1, 24954, Note_on_c, 7, 62, 0
1, 24956, Note_on_c, 4, 57, 0
1, 24956, Note_on_c, 7, 57, 0
1, 24960, Note_on_c, 1, 43, 104
1, 24960, Note_on_c, 4, 43, 64
1, 24960, Note_on_c, 4, 50, 97
1, 24960, Note_on_c, 4, 55, 107
1, 24960, Note_on_c, 6, 74, 64
1, 24960, Note_on_c, 6, 70, 72
1, 24960, Note_on_c, 6, 67, 72
1, 24960, Note_on_c, 6, 62, 68
1, 24960, Note_on_c, 7, 43, 64
1, 24960, Note_on_c, 7, 50, 97
1, 24960, Note_on_c, 7, 55, 107
1, 24960, Note_on_c, 9, 35, 75
1, 24960, Note_on_c, 9, 40, 76
1, 24960, Note_on_c, 9, 43, 75
1, 24962, Note_on_c, 9, 43, 0
1, 24962, Note_on_c, 9, 40, 0
1, 24962, Note_on_c, 9, 35, 0
1, 24963, Note_on_c, 1, 38, 0
1, 25056, Note_on_c, 9, 40, 63
1, 25056, Note_on_c, 9, 43, 75
1, 25058, Note_on_c, 9, 43, 0
1, 25058, Note_on_c, 9, 40, 0
1, 25088, Note_on_c, 9, 40, 57
1, 25088, Note_on_c, 9, 43, 45
1, 25090, Note_on_c, 9, 43, 0
1, 25090, Note_on_c, 9, 40, 0
1, 25120, Note_on_c, 9, 40, 48
1, 25120, Note_on_c, 9, 43, 58
1, 25122, Note_on_c, 9, 43, 0
1, 25122, Note_on_c, 9, 40, 0
1, 25152, Note_on_c, 9, 40, 76
1, 25152, Note_on_c, 9, 43, 75
1, 25154, Note_on_c, 9, 43, 0
1, 25154, Note_on_c, 9, 40, 0
1, 25248, Note_on_c, 9, 40, 76
1, 25248, Note_on_c, 9, 43, 75
1, 25250, Note_on_c, 9, 43, 0
1, 25250, Note_on_c, 9, 40, 0
1, 25296, Note_on_c, 9, 40, 68
1, 25296, Note_on_c, 9, 43, 57
1, 25298, Note_on_c, 9, 43, 0
1, 25298, Note_on_c, 9, 40, 0
1, 25344, Note_on_c, 9, 35, 75
1, 25344, Note_on_c, 9, 40, 76
1, 25344, Note_on_c, 9, 43, 75
1, 25346, Note_on_c, 9, 43, 0
1, 25346, Note_on_c, 9, 40, 0
1, 25346, Note_on_c, 9, 35, 0
1, 25392, Note_on_c, 9, 41, 31
1, 25394, Note_on_c, 9, 41, 0
1, 25415, Note_on_c, 6, 67, 0
1, 25415, Note_on_c, 4, 55, 0
1, 25415, Note_on_c, 4, 50, 0
1, 25415, Note_on_c, 6, 70, 0
1, 25415, Note_on_c, 4, 43, 0
1, 25415, Note_on_c, 6, 74, 0
1, 25416, Note_on_c, 6, 62, 0
1, 25439, Note_on_c, 7, 50, 0
1, 25440, Note_on_c, 1, 41, 100
1, 25440, Note_on_c, 4, 41, 68
1, 25440, Note_on_c, 4, 48, 88
1, 25440, Note_on_c, 4, 53, 107
1, 25440, Note_on_c, 6, 65, 58
1, 25440, Note_on_c, 6, 60, 68
1, 25440, Note_on_c, 6, 69, 62
1, 25440, Note_on_c, 6, 72, 66
1, 25440, Note_on_c, 7, 41, 68
1, 25440, Note_on_c, 7, 48, 88
1, 25440, Note_on_c, 7, 53, 107
1, 25440, Note_on_c, 9, 35, 75
1, 25440, Note_on_c, 9, 40, 76
1, 25440, Note_on_c, 9, 43, 75
1, 25440, Note_on_c, 9, 49, 82
1, 25442, Note_on_c, 9, 49, 0
1, 25442, Note_on_c, 9, 43, 0
1, 25442, Note_on_c, 9, 40, 0
1, 25442, Note_on_c, 9, 35, 0
1, 25442, Note_on_c, 1, 43, 0
1, 25444, Note_on_c, 7, 55, 0
1, 25447, Note_on_c, 7, 43, 0
1, 25536, Note_on_c, 9, 40, 60
1, 25536, Note_on_c, 9, 43, 75
1, 25538, Note_on_c, 9, 43, 0
1, 25538, Note_on_c, 9, 40, 0
1, 25568, Note_on_c, 9, 40, 63
1, 25568, Note_on_c, 9, 43, 55
1, 25570, Note_on_c, 9, 43, 0
1, 25570, Note_on_c, 9, 40, 0
1, 25600, Note_on_c, 9, 40, 66
1, 25600, Note_on_c, 9, 43, 55
1, 25602, Note_on_c, 9, 43, 0
1, 25602, Note_on_c, 9, 40, 0
1, 25632, Note_on_c, 9, 40, 69
1, 25632, Note_on_c, 9, 43, 75
1, 25634, Note_on_c, 9, 43, 0
1, 25634, Note_on_c, 9, 40, 0
1, 25728, Note_on_c, 9, 40, 76
1, 25728, Note_on_c, 9, 43, 75
1, 25730, Note_on_c, 9, 43, 0
1, 25730, Note_on_c, 9, 40, 0
1, 25776, Note_on_c, 9, 40, 71
1, 25776, Note_on_c, 9, 43, 58
1, 25778, Note_on_c, 9, 43, 0
1, 25778, Note_on_c, 9, 40, 0
1, 25824, Note_on_c, 9, 35, 75
1, 25824, Note_on_c, 9, 40, 76
1, 25824, Note_on_c, 9, 43, 75
1, 25826, Note_on_c, 9, 43, 0
1, 25826, Note_on_c, 9, 40, 0
1, 25826, Note_on_c, 9, 35, 0
1, 25872, Note_on_c, 9, 41, 31
1, 25874, Note_on_c, 9, 41, 0
1, 25876, Note_on_c, 6, 69, 0
1, 25883, Note_on_c, 6, 65, 0
1, 25895, Note_on_c, 4, 41, 0
1, 25895, Note_on_c, 6, 60, 0
1, 25895, Note_on_c, 6, 72, 0
1, 25895, Note_on_c, 7, 53, 0
1, 25895, Note_on_c, 7, 48, 0
1, 25895, Note_on_c, 7, 41, 0
1, 25895, Note_on_c, 4, 48, 0
1, 25895, Note_on_c, 4, 53, 0
1, 25906, Note_on_c, 1, 41, 0
1, 25920, Note_on_c, 1, 38, 92
1, 25920, Note_on_c, 4, 50, 92
1, 25920, Note_on_c, 4, 57, 84
1, 25920, Note_on_c, 4, 62, 80
1, 25920, Note_on_c, 6, 69, 64
1, 25920, Note_on_c, 6, 62, 66
1, 25920, Note_on_c, 6, 65, 68
1, 25920, Note_on_c, 7, 50, 92
1, 25920, Note_on_c, 7, 57, 84
1, 25920, Note_on_c, 7, 62, 80
1, 25920, Note_on_c, 9, 35, 75
1, 25920, Note_on_c, 9, 40, 76
1, 25920, Note_on_c, 9, 43, 75
1, 25920, Note_on_c, 9, 52, 92
1, 25922, Note_on_c, 9, 52, 0
1, 25922, Note_on_c, 9, 43, 0
1, 25922, Note_on_c, 9, 35, 0
1, 25922, Note_on_c, 9, 40, 0
1, 26016, Note_on_c, 9, 40, 53
1, 26016, Note_on_c, 9, 43, 75
1, 26018, Note_on_c, 9, 43, 0
1, 26018, Note_on_c, 9, 40, 0
1, 26048, Note_on_c, 9, 40, 61
1, 26048, Note_on_c, 9, 43, 47
1, 26050, Note_on_c, 9, 43, 0
1, 26050, Note_on_c, 9, 40, 0
1, 26080, Note_on_c, 9, 40, 68
1, 26080, Note_on_c, 9, 43, 57
1, 26082, Note_on_c, 9, 43, 0
1, 26082, Note_on_c, 9, 40, 0
1, 26112, Note_on_c, 9, 40, 75
1, 26112, Note_on_c, 9, 43, 75
1, 26114, Note_on_c, 9, 43, 0
1, 26114, Note_on_c, 9, 40, 0
1, 26208, Note_on_c, 9, 40, 76
1, 26208, Note_on_c, 9, 43, 75
1, 26210, Note_on_c, 9, 43, 0
1, 26210, Note_on_c, 9, 40, 0
1, 26256, Note_on_c, 9, 40, 57
1, 26256, Note_on_c, 9, 43, 60
1, 26258, Note_on_c, 9, 43, 0
1, 26258, Note_on_c, 9, 40, 0
1, 26304, Note_on_c, 9, 35, 75
1, 26304, Note_on_c, 9, 40, 75
1, 26304, Note_on_c, 9, 43, 75
1, 26306, Note_on_c, 9, 43, 0
1, 26306, Note_on_c, 9, 40, 0
1, 26306, Note_on_c, 9, 35, 0
1, 26352, Note_on_c, 9, 41, 31
1, 26354, Note_on_c, 9, 41, 0
1, 26383, Note_on_c, 6, 62, 0
1, 26387, Note_on_c, 6, 65, 0
1, 26398, Note_on_c, 7, 57, 0
1, 26398, Note_on_c, 4, 57, 0
1, 26400, Note_on_c, 1, 36, 104
1, 26400, Note_on_c, 4, 48, 97
1, 26400, Note_on_c, 4, 55, 84
1, 26400, Note_on_c, 4, 60, 72
1, 26400, Note_on_c, 6, 64, 76
1, 26400, Note_on_c, 6, 67, 68
1, 26400, Note_on_c, 6, 60, 72
1, 26400, Note_on_c, 7, 48, 97
1, 26400, Note_on_c, 7, 55, 84
1, 26400, Note_on_c, 7, 60, 72
1, 26400, Note_on_c, 9, 40, 76
1, 26400, Note_on_c, 9, 43, 75
1, 26400, Note_on_c, 9, 52, 80
1, 26400, Note_on_c, 9, 57, 67
1, 26402, Note_on_c, 9, 57, 0
1, 26402, Note_on_c, 9, 52, 0
1, 26402, Note_on_c, 9, 40, 0
1, 26402, Note_on_c, 9, 43, 0
1, 26403, Note_on_c, 1, 38, 0
1, 26404, Note_on_c, 7, 50, 0
1, 26404, Note_on_c, 4, 50, 0
1, 26405, Note_on_c, 7, 62, 0
1, 26405, Note_on_c, 4, 62, 0
1, 26409, Note_on_c, 6, 69, 0
1, 26424, Note_on_c, 9, 35, 75
1, 26426, Note_on_c, 9, 35, 0
1, 26472, Note_on_c, 9, 35, 60
1, 26474, Note_on_c, 9, 35, 0
1, 26496, Note_on_c, 9, 40, 76
1, 26496, Note_on_c, 9, 43, 75
1, 26498, Note_on_c, 9, 43, 0
1, 26498, Note_on_c, 9, 40, 0
1, 26528, Note_on_c, 9, 40, 59
1, 26528, Note_on_c, 9, 43, 55
1, 26530, Note_on_c, 9, 43, 0
1, 26530, Note_on_c, 9, 40, 0
1, 26560, Note_on_c, 9, 40, 70
1, 26560, Note_on_c, 9, 43, 58
1, 26562, Note_on_c, 9, 43, 0
1, 26562, Note_on_c, 9, 40, 0
1, 26592, Note_on_c, 9, 40, 80
1, 26592, Note_on_c, 9, 43, 75
1, 26594, Note_on_c, 9, 43, 0
1, 26594, Note_on_c, 9, 40, 0
1, 26688, Note_on_c, 1, 40, 104
1, 26688, Note_on_c, 9, 40, 105
1, 26688, Note_on_c, 9, 43, 75
1, 26690, Note_on_c, 9, 43, 0
1, 26690, Note_on_c, 9, 40, 0
1, 26699, Note_on_c, 1, 36, 0
1, 26712, Note_on_c, 9, 35, 58
1, 26714, Note_on_c, 9, 35, 0
1, 26736, Note_on_c, 1, 43, 84
1, 26736, Note_on_c, 9, 45, 75
1, 26736, Note_on_c, 9, 47, 75
1, 26738, Note_on_c, 9, 47, 0
1, 26738, Note_on_c, 9, 45, 0
1, 26760, Note_on_c, 9, 35, 58
1, 26762, Note_on_c, 9, 35, 0
1, 26762, Note_on_c, 1, 40, 0
1, 26775, Note_on_c, 1, 43, 0
1, 26784, Note_on_c, 1, 48, 92
1, 26784, Note_on_c, 9, 43, 75
1, 26784, Note_on_c, 9, 45, 75
1, 26786, Note_on_c, 9, 45, 0
1, 26786, Note_on_c, 9, 43, 0
1, 26808, Note_on_c, 9, 35, 58
1, 26810, Note_on_c, 9, 35, 0
1, 26832, Note_on_c, 1, 46, 104
1, 26832, Note_on_c, 9, 41, 51
1, 26832, Note_on_c, 9, 43, 75
1, 26834, Note_on_c, 9, 43, 0
1, 26834, Note_on_c, 9, 41, 0
1, 26837, Note_on_c, 1, 48, 0
1, 26855, Note_on_c, 6, 64, 0
1, 26856, Note_on_c, 9, 35, 58
1, 26858, Note_on_c, 9, 35, 0
1, 26866, Note_on_c, 4, 55, 0
1, 26866, Note_on_c, 7, 55, 0
1, 26868, Note_on_c, 6, 67, 0
1, 26874, Note_on_c, 1, 46, 0
1, 26875, Note_on_c, 6, 60, 0
1, 26880, Note_on_c, 1, 43, 104
1, 26880, Note_on_c, 4, 43, 76
1, 26880, Note_on_c, 4, 50, 84
1, 26880, Note_on_c, 4, 55, 88
1, 26880, Note_on_c, 6, 70, 76
1, 26880, Note_on_c, 6, 62, 72
1, 26880, Note_on_c, 6, 67, 62
1, 26880, Note_on_c, 6, 74, 68
1, 26880, Note_on_c, 7, 43, 76
1, 26880, Note_on_c, 7, 50, 84
1, 26880, Note_on_c, 7, 55, 88
1, 26880, Note_on_c, 9, 43, 75
1, 26880, Note_on_c, 9, 49, 74
1, 26882, Note_on_c, 9, 49, 0
1, 26882, Note_on_c, 9, 43, 0
1, 26883, Note_on_c, 4, 48, 0
1, 26883, Note_on_c, 7, 48, 0
1, 26888, Note_on_c, 7, 60, 0
1, 26888, Note_on_c, 4, 60, 0
1, 26953, Note_on_c, 1, 43, 0
1, 26976, Note_on_c, 1, 43, 96
1, 26976, Note_on_c, 9, 40, 76
1, 26976, Note_on_c, 9, 43, 75
1, 26978, Note_on_c, 9, 43, 0
1, 26978, Note_on_c, 9, 40, 0
1, 26997, Note_on_c, 1, 43, 0
1, 27008, Note_on_c, 1, 43, 86
1, 27008, Note_on_c, 9, 40, 53
1, 27008, Note_on_c, 9, 43, 53
1, 27010, Note_on_c, 9, 43, 0
1, 27010, Note_on_c, 9, 40, 0
1, 27022, Note_on_c, 1, 43, 0
1, 27040, Note_on_c, 1, 43, 104
1, 27040, Note_on_c, 9, 40, 58
1, 27040, Note_on_c, 9, 43, 55
1, 27042, Note_on_c, 9, 43, 0
1, 27042, Note_on_c, 9, 40, 0
1, 27059, Note_on_c, 1, 43, 0
1, 27072, Note_on_c, 1, 43, 100
1, 27072, Note_on_c, 9, 40, 73
1, 27072, Note_on_c, 9, 43, 75
1, 27074, Note_on_c, 9, 43, 0
1, 27074, Note_on_c, 9, 40, 0
1, 27142, Note_on_c, 1, 43, 0
1, 27168, Note_on_c, 1, 43, 88
1, 27168, Note_on_c, 9, 40, 76
1, 27168, Note_on_c, 9, 43, 75
1, 27170, Note_on_c, 9, 43, 0
1, 27170, Note_on_c, 9, 40, 0
1, 27197, Note_on_c, 1, 43, 0
1, 27216, Note_on_c, 1, 43, 84
1, 27216, Note_on_c, 9, 40, 58
1, 27216, Note_on_c, 9, 43, 60
1, 27218, Note_on_c, 9, 43, 0
1, 27218, Note_on_c, 9, 40, 0
1, 27242, Note_on_c, 1, 43, 0
1, 27264, Note_on_c, 1, 43, 84
1, 27264, Note_on_c, 9, 40, 76
1, 27264, Note_on_c, 9, 43, 75
1, 27266, Note_on_c, 9, 43, 0
1, 27266, Note_on_c, 9, 40, 0
1, 27288, Note_on_c, 9, 35, 56
1, 27290, Note_on_c, 9, 35, 0
1, 27336, Note_on_c, 9, 35, 55
1, 27337, Note_on_c, 6, 62, 0
1, 27338, Note_on_c, 9, 35, 0
1, 27347, Note_on_c, 1, 43, 0
1, 27351, Note_on_c, 6, 70, 0
1, 27358, Note_on_c, 6, 74, 0
1, 27360, Note_on_c, 4, 50, 0
1, 27360, Note_on_c, 7, 50, 0
1, 27360, Note_on_c, 1, 41, 96
1, 27360, Note_on_c, 4, 41, 76
1, 27360, Note_on_c, 4, 48, 84
1, 27360, Note_on_c, 4, 53, 80
1, 27360, Note_on_c, 6, 69, 68
1, 27360, Note_on_c, 6, 60, 68
1, 27360, Note_on_c, 6, 65, 64
1, 27360, Note_on_c, 6, 72, 66
1, 27360, Note_on_c, 7, 41, 76
1, 27360, Note_on_c, 7, 48, 84
1, 27360, Note_on_c, 7, 53, 80
1, 27360, Note_on_c, 9, 40, 76
1, 27360, Note_on_c, 9, 43, 75
1, 27360, Note_on_c, 9, 52, 84
1, 27362, Note_on_c, 9, 52, 0
1, 27362, Note_on_c, 9, 43, 0
1, 27362, Note_on_c, 9, 40, 0
1, 27363, Note_on_c, 7, 43, 0
1, 27363, Note_on_c, 4, 43, 0
1, 27364, Note_on_c, 6, 67, 0
1, 27365, Note_on_c, 7, 55, 0
1, 27365, Note_on_c, 4, 55, 0
1, 27435, Note_on_c, 1, 41, 0
1, 27456, Note_on_c, 1, 41, 100
1, 27456, Note_on_c, 9, 40, 76
1, 27456, Note_on_c, 9, 43, 75
1, 27458, Note_on_c, 9, 43, 0
1, 27458, Note_on_c, 9, 40, 0
1, 27473, Note_on_c, 1, 41, 0
1, 27488, Note_on_c, 1, 41, 86
1, 27488, Note_on_c, 9, 40, 57
1, 27488, Note_on_c, 9, 43, 53
1, 27490, Note_on_c, 9, 43, 0
1, 27490, Note_on_c, 9, 40, 0
1, 27501, Note_on_c, 1, 41, 0
1, 27520, Note_on_c, 1, 41, 104
1, 27520, Note_on_c, 9, 40, 65
1, 27520, Note_on_c, 9, 43, 58
1, 27522, Note_on_c, 9, 43, 0
1, 27522, Note_on_c, 9, 40, 0
1, 27539, Note_on_c, 1, 41, 0
1, 27552, Note_on_c, 1, 41, 88
1, 27552, Note_on_c, 9, 40, 79
1, 27552, Note_on_c, 9, 43, 75
1, 27554, Note_on_c, 9, 43, 0
1, 27554, Note_on_c, 9, 40, 0
1, 27622, Note_on_c, 1, 41, 0
1, 27648, Note_on_c, 1, 41, 104
1, 27648, Note_on_c, 9, 40, 76
1, 27648, Note_on_c, 9, 43, 75
1, 27650, Note_on_c, 9, 43, 0
1, 27650, Note_on_c, 9, 40, 0
1, 27680, Note_on_c, 1, 41, 0
1, 27696, Note_on_c, 1, 41, 82
1, 27696, Note_on_c, 9, 40, 57
1, 27696, Note_on_c, 9, 43, 62
1, 27698, Note_on_c, 9, 43, 0
1, 27698, Note_on_c, 9, 40, 0
1, 27730, Note_on_c, 1, 41, 0
1, 27744, Note_on_c, 1, 41, 104
1, 27744, Note_on_c, 9, 40, 76
1, 27744, Note_on_c, 9, 43, 75
1, 27746, Note_on_c, 9, 43, 0
1, 27746, Note_on_c, 9, 40, 0
1, 27768, Note_on_c, 9, 35, 61
1, 27770, Note_on_c, 9, 35, 0
1, 27810, Note_on_c, 6, 69, 0
1, 27816, Note_on_c, 9, 35, 58
1, 27818, Note_on_c, 9, 35, 0
1, 27820, Note_on_c, 6, 65, 0
1, 27824, Note_on_c, 1, 41, 0
1, 27834, Note_on_c, 4, 41, 0
1, 27834, Note_on_c, 7, 41, 0
1, 27835, Note_on_c, 6, 60, 0
1, 27838, Note_on_c, 4, 48, 0
1, 27838, Note_on_c, 4, 53, 0
1, 27838, Note_on_c, 7, 48, 0
1, 27838, Note_on_c, 7, 53, 0
1, 27840, Note_on_c, 1, 38, 100
1, 27840, Note_on_c, 4, 50, 92
1, 27840, Note_on_c, 4, 57, 72
1, 27840, Note_on_c, 4, 62, 68
1, 27840, Note_on_c, 6, 62, 66
1, 27840, Note_on_c, 6, 69, 66
1, 27840, Note_on_c, 6, 65, 72
1, 27840, Note_on_c, 7, 50, 92
1, 27840, Note_on_c, 7, 57, 72
1, 27840, Note_on_c, 7, 62, 68
1, 27840, Note_on_c, 9, 40, 76
1, 27840, Note_on_c, 9, 43, 75
1, 27840, Note_on_c, 9, 57, 71
1, 27842, Note_on_c, 9, 57, 0
1, 27842, Note_on_c, 9, 43, 0
1, 27842, Note_on_c, 9, 40, 0
1, 27845, Note_on_c, 6, 72, 0
1, 27904, Note_on_c, 1, 38, 0
1, 27936, Note_on_c, 1, 38, 88
1, 27936, Note_on_c, 9, 40, 76
1, 27936, Note_on_c, 9, 43, 75
1, 27938, Note_on_c, 9, 43, 0
1, 27938, Note_on_c, 9, 40, 0
1, 27952, Note_on_c, 1, 38, 0
1, 27968, Note_on_c, 1, 38, 78
1, 27968, Note_on_c, 9, 40, 56
1, 27968, Note_on_c, 9, 43, 57
1, 27970, Note_on_c, 9, 43, 0
1, 27970, Note_on_c, 9, 40, 0
1, 27985, Note_on_c, 1, 38, 0
1, 28000, Note_on_c, 1, 38, 100
1, 28000, Note_on_c, 9, 40, 67
1, 28000, Note_on_c, 9, 43, 64
1, 28002, Note_on_c, 9, 43, 0
1, 28002, Note_on_c, 9, 40, 0
1, 28021, Note_on_c, 1, 38, 0
1, 28032, Note_on_c, 1, 38, 96
1, 28032, Note_on_c, 9, 40, 77
1, 28032, Note_on_c, 9, 43, 75
1, 28034, Note_on_c, 9, 43, 0
1, 28034, Note_on_c, 9, 40, 0
1, 28087, Note_on_c, 1, 38, 0
1, 28128, Note_on_c, 1, 38, 100
1, 28128, Note_on_c, 9, 40, 76
1, 28128, Note_on_c, 9, 43, 75
1, 28130, Note_on_c, 9, 43, 0
1, 28130, Note_on_c, 9, 40, 0
1, 28152, Note_on_c, 1, 38, 0
1, 28176, Note_on_c, 1, 38, 86
1, 28176, Note_on_c, 9, 40, 76
1, 28176, Note_on_c, 9, 43, 60
1, 28178, Note_on_c, 9, 43, 0
1, 28178, Note_on_c, 9, 40, 0
1, 28196, Note_on_c, 1, 38, 0
1, 28224, Note_on_c, 1, 38, 100
1, 28224, Note_on_c, 9, 40, 76
1, 28224, Note_on_c, 9, 43, 75
1, 28226, Note_on_c, 9, 43, 0
1, 28226, Note_on_c, 9, 40, 0
1, 28248, Note_on_c, 9, 35, 58
1, 28250, Note_on_c, 9, 35, 0
1, 28296, Note_on_c, 9, 35, 51
1, 28298, Note_on_c, 9, 35, 0
1, 28304, Note_on_c, 6, 65, 0
1, 28304, Note_on_c, 6, 62, 0
1, 28314, Note_on_c, 1, 38, 0
1, 28319, Note_on_c, 4, 57, 0
1, 28319, Note_on_c, 7, 57, 0
1, 28320, Note_on_c, 1, 36, 78
1, 28320, Note_on_c, 4, 48, 92
1, 28320, Note_on_c, 4, 55, 80
1, 28320, Note_on_c, 4, 60, 68
1, 28320, Note_on_c, 6, 60, 66
1, 28320, Note_on_c, 6, 64, 68
1, 28320, Note_on_c, 6, 67, 72
1, 28320, Note_on_c, 7, 48, 92
1, 28320, Note_on_c, 7, 55, 80
1, 28320, Note_on_c, 7, 60, 68
1, 28320, Note_on_c, 9, 40, 76
1, 28320, Note_on_c, 9, 43, 75
1, 28320, Note_on_c, 9, 52, 80
1, 28322, Note_on_c, 9, 52, 0
1, 28322, Note_on_c, 9, 43, 0
1, 28322, Note_on_c, 9, 40, 0
1, 28323, Note_on_c, 4, 62, 0
1, 28323, Note_on_c, 7, 62, 0
1, 28323, Note_on_c, 6, 69, 0
1, 28325, Note_on_c, 4, 50, 0
1, 28325, Note_on_c, 7, 50, 0
1, 28392, Note_on_c, 1, 36, 0
1, 28416, Note_on_c, 1, 36, 104
1, 28416, Note_on_c, 9, 40, 76
1, 28416, Note_on_c, 9, 43, 75
1, 28418, Note_on_c, 9, 43, 0
1, 28418, Note_on_c, 9, 40, 0
1, 28448, Note_on_c, 9, 40, 58
1, 28448, Note_on_c, 9, 43, 57
1, 28450, Note_on_c, 9, 43, 0
1, 28450, Note_on_c, 9, 40, 0
1, 28480, Note_on_c, 9, 40, 64
1, 28480, Note_on_c, 9, 43, 60
1, 28482, Note_on_c, 9, 43, 0
1, 28482, Note_on_c, 9, 40, 0
1, 28512, Note_on_c, 9, 40, 69
1, 28512, Note_on_c, 9, 43, 75
1, 28514, Note_on_c, 9, 43, 0
1, 28514, Note_on_c, 9, 40, 0
1, 28608, Note_on_c, 9, 40, 76
1, 28608, Note_on_c, 9, 43, 75
1, 28610, Note_on_c, 9, 43, 0
1, 28610, Note_on_c, 9, 40, 0
1, 28656, Note_on_c, 9, 40, 76
1, 28656, Note_on_c, 9, 43, 55
1, 28658, Note_on_c, 9, 43, 0
1, 28658, Note_on_c, 9, 40, 0
1, 28704, Note_on_c, 9, 40, 76
1, 28704, Note_on_c, 9, 43, 75
1, 28706, Note_on_c, 9, 43, 0
1, 28706, Note_on_c, 9, 40, 0
1, 28728, Note_on_c, 9, 35, 75
1, 28730, Note_on_c, 9, 35, 0
1, 28744, Note_on_c, 6, 60, 0
1, 28753, Note_on_c, 6, 64, 0
1, 28757, Note_on_c, 6, 67, 0
1, 28774, Note_on_c, 1, 36, 0
1, 28776, Note_on_c, 9, 35, 75
1, 28778, Note_on_c, 9, 35, 0
1, 28791, Note_on_c, 7, 55, 0
1, 28791, Note_on_c, 4, 55, 0
1, 28800, Note_on_c, 1, 33, 108
1, 28800, Note_on_c, 4, 45, 88
1, 28800, Note_on_c, 4, 57, 97
1, 28800, Note_on_c, 6, 62, 88
1, 28800, Note_on_c, 6, 60, 76
1, 28800, Note_on_c, 6, 67, 88
1, 28800, Note_on_c, 7, 45, 88
1, 28800, Note_on_c, 7, 57, 97
1, 28800, Note_on_c, 9, 44, 75
1, 28800, Note_on_c, 9, 49, 74
1, 28801, Note_on_c, 4, 60, 0
1, 28801, Note_on_c, 7, 60, 0
1, 28802, Note_on_c, 7, 48, 0
1, 28802, Note_on_c, 9, 49, 0
1, 28802, Note_on_c, 4, 48, 0
1, 28802, Note_on_c, 9, 44, 0
1, 28896, Note_on_c, 9, 44, 75
1, 28898, Note_on_c, 9, 44, 0
1, 28990, Note_on_c, 6, 62, 0
1, 28990, Note_on_c, 6, 60, 0
1, 28990, Note_on_c, 6, 67, 0
1, 28992, Note_on_c, 9, 40, 105
1, 28992, Note_on_c, 9, 44, 75
1, 28994, Note_on_c, 9, 44, 0
1, 28994, Note_on_c, 9, 40, 0
1, 28998, Note_on_c, 9, 40, 101
1, 29000, Note_on_c, 9, 40, 0
1, 29005, Note_on_c, 7, 57, 0
1, 29005, Note_on_c, 4, 57, 0
1, 29010, Note_on_c, 7, 45, 0
1, 29010, Note_on_c, 4, 45, 0
1, 29040, Note_on_c, 3, 72, 127
1, 29073, Note_on_c, 3, 72, 0
1, 29088, Note_on_c, 3, 74, 126
1, 29088, Note_on_c, 9, 44, 75
1, 29090, Note_on_c, 9, 44, 0
1, 29127, Note_on_c, 3, 74, 0
1, 29135, Note_on_c, 1, 33, 0
1, 29136, Note_on_c, 3, 77, 121
1, 29184, Note_on_c, 1, 26, 104
1, 29184, Note_on_c, 3, 74, 121
1, 29184, Note_on_c, 4, 50, 112
1, 29184, Note_on_c, 4, 57, 84
1, 29184, Note_on_c, 4, 62, 88
1, 29184, Note_on_c, 5, 62, 76
1, 29184, Note_on_c, 8, 62, 88
1, 29184, Note_on_c, 8, 57, 84
1, 29184, Note_on_c, 8, 50, 112
1, 29184, Note_on_c, 9, 35, 75
1, 29184, Note_on_c, 9, 46, 51
1, 29184, Note_on_c, 9, 49, 58
1, 29186, Note_on_c, 9, 49, 0
1, 29186, Note_on_c, 3, 77, 0
1, 29186, Note_on_c, 9, 46, 0
1, 29186, Note_on_c, 9, 35, 0
1, 29207, Control_c, 3, 1, 1
1, 29208, Control_c, 3, 1, 3
1, 29209, Control_c, 3, 1, 6
1, 29209, Control_c, 3, 1, 4
1, 29212, Control_c, 3, 1, 8
1, 29213, Control_c, 3, 1, 10
1, 29214, Control_c, 3, 1, 11
1, 29215, Control_c, 3, 1, 13
1, 29216, Control_c, 3, 1, 15
1, 29217, Control_c, 3, 1, 16
1, 29218, Control_c, 3, 1, 17
1, 29219, Control_c, 3, 1, 18
1, 29220, Control_c, 3, 1, 19
1, 29221, Control_c, 3, 1, 20
1, 29223, Control_c, 3, 1, 22
1, 29224, Control_c, 3, 1, 23
1, 29225, Control_c, 3, 1, 24
1, 29226, Control_c, 3, 1, 25
1, 29227, Control_c, 3, 1, 26
1, 29228, Control_c, 3, 1, 27
1, 29229, Control_c, 3, 1, 29
1, 29230, Control_c, 3, 1, 30
1, 29231, Control_c, 3, 1, 31
1, 29232, Control_c, 3, 1, 32
1, 29232, Note_on_c, 5, 69, 62
1, 29232, Note_on_c, 9, 35, 64
1, 29232, Note_on_c, 9, 46, 51
1, 29232, Note_on_c, 9, 51, 57
1, 29233, Control_c, 3, 1, 34
1, 29234, Note_on_c, 9, 51, 0
1, 29234, Note_on_c, 9, 46, 0
1, 29234, Note_on_c, 9, 35, 0
1, 29234, Control_c, 3, 1, 35
1, 29235, Control_c, 3, 1, 36
1, 29236, Control_c, 3, 1, 37
1, 29237, Control_c, 3, 1, 39
1, 29238, Control_c, 3, 1, 40
1, 29240, Control_c, 3, 1, 41
1, 29241, Control_c, 3, 1, 42
1, 29242, Control_c, 3, 1, 43
1, 29244, Control_c, 3, 1, 44
1, 29246, Control_c, 3, 1, 45
1, 29247, Control_c, 3, 1, 47
1, 29248, Control_c, 3, 1, 48
1, 29250, Control_c, 3, 1, 49
1, 29252, Control_c, 3, 1, 50
1, 29253, Control_c, 3, 1, 51
1, 29255, Control_c, 3, 1, 52
1, 29256, Note_on_c, 1, 26, 0
1, 29257, Control_c, 3, 1, 53
1, 29258, Control_c, 3, 1, 54
1, 29260, Control_c, 3, 1, 55
1, 29262, Control_c, 3, 1, 56
1, 29266, Control_c, 3, 1, 57
1, 29269, Control_c, 3, 1, 58
1, 29277, Control_c, 3, 1, 57
1, 29279, Control_c, 3, 1, 56
1, 29280, Note_on_c, 1, 38, 100
1, 29280, Control_c, 3, 1, 55
1, 29280, Note_on_c, 5, 74, 80
1, 29280, Note_on_c, 9, 40, 105
1, 29280, Note_on_c, 9, 46, 51
1, 29280, Note_on_c, 9, 57, 71
1, 29281, Control_c, 3, 1, 53
1, 29282, Note_on_c, 9, 57, 0
1, 29282, Note_on_c, 9, 46, 0
1, 29282, Note_on_c, 9, 40, 0
1, 29282, Control_c, 3, 1, 51
1, 29284, Control_c, 3, 1, 44
1, 29284, Control_c, 3, 1, 47
1, 29286, Control_c, 3, 1, 38
1, 29287, Control_c, 3, 1, 29
1, 29288, Control_c, 3, 1, 18
1, 29289, Control_c, 3, 1, 4
1, 29290, Control_c, 3, 1, 0
1, 29301, Note_on_c, 3, 74, 0
1, 29328, Note_on_c, 9, 46, 51
1, 29328, Note_on_c, 9, 51, 37
1, 29329, Note_on_c, 1, 38, 0
1, 29330, Note_on_c, 9, 46, 0
1, 29330, Note_on_c, 9, 51, 0
1, 29352, Note_on_c, 1, 28, 86
1, 29352, Note_on_c, 9, 40, 90
1, 29354, Note_on_c, 9, 40, 0
1, 29359, Note_on_c, 1, 28, 0
1, 29360, Note_on_c, 5, 62, 0
1, 29364, Note_on_c, 4, 50, 0
1, 29364, Note_on_c, 8, 50, 0
1, 29376, Note_on_c, 1, 28, 100
1, 29376, Note_on_c, 4, 48, 102
1, 29376, Note_on_c, 5, 60, 84
1, 29376, Note_on_c, 8, 48, 102
1, 29376, Note_on_c, 9, 35, 75
1, 29376, Note_on_c, 9, 46, 51
1, 29378, Note_on_c, 9, 46, 0
1, 29378, Note_on_c, 9, 35, 0
1, 29386, Note_on_c, 8, 62, 0
1, 29386, Note_on_c, 4, 62, 0
1, 29390, Note_on_c, 8, 57, 0
1, 29390, Note_on_c, 4, 57, 0
1, 29396, Note_on_c, 5, 69, 0
1, 29404, Note_on_c, 1, 28, 0
1, 29424, Note_on_c, 1, 28, 104
1, 29424, Note_on_c, 3, 72, 121
1, 29424, Note_on_c, 4, 55, 80
1, 29424, Note_on_c, 8, 55, 80
1, 29424, Note_on_c, 9, 35, 59
1, 29424, Note_on_c, 9, 46, 51
1, 29424, Note_on_c, 9, 51, 63
1, 29425, Note_on_c, 5, 74, 0
1, 29426, Note_on_c, 9, 35, 0
1, 29426, Note_on_c, 9, 51, 0
1, 29426, Note_on_c, 9, 46, 0
1, 29465, Note_on_c, 3, 72, 0
1, 29472, Note_on_c, 1, 28, 0
1, 29472, Note_on_c, 3, 71, 121
1, 29472, Note_on_c, 4, 62, 88
1, 29472, Note_on_c, 5, 69, 68
1, 29472, Note_on_c, 5, 74, 80
1, 29472, Note_on_c, 8, 62, 88
1, 29472, Note_on_c, 9, 40, 105
1, 29472, Note_on_c, 9, 46, 51
1, 29472, Note_on_c, 9, 57, 63
1, 29474, Note_on_c, 9, 57, 0
1, 29474, Note_on_c, 9, 46, 0
1, 29474, Note_on_c, 9, 40, 0
1, 29496, Note_on_c, 1, 30, 104
1, 29514, Note_on_c, 3, 71, 0
1, 29520, Note_on_c, 3, 69, 106
1, 29520, Note_on_c, 9, 46, 51
1, 29520, Note_on_c, 9, 51, 39
1, 29522, Note_on_c, 9, 51, 0
1, 29522, Note_on_c, 9, 46, 0
1, 29552, Note_on_c, 1, 30, 0
1, 29560, Note_on_c, 5, 60, 0
1, 29564, Note_on_c, 8, 48, 0
1, 29564, Note_on_c, 4, 48, 0
1, 29568, Note_on_c, 1, 31, 96
1, 29568, Note_on_c, 3, 67, 94
1, 29568, Note_on_c, 4, 47, 92
1, 29568, Note_on_c, 5, 59, 72
1, 29568, Note_on_c, 8, 47, 92
1, 29568, Note_on_c, 9, 35, 75
1, 29568, Note_on_c, 9, 46, 51
1, 29569, Note_on_c, 3, 69, 0
1, 29570, Note_on_c, 9, 46, 0
1, 29570, Note_on_c, 9, 35, 0
1, 29579, Note_on_c, 8, 55, 0
1, 29579, Note_on_c, 4, 55, 0
1, 29583, Note_on_c, 8, 62, 0
1, 29583, Note_on_c, 4, 62, 0
1, 29588, Note_on_c, 1, 31, 0
1, 29588, Note_on_c, 5, 69, 0
1, 29607, Control_c, 3, 1, 1
1, 29608, Control_c, 3, 1, 3
1, 29609, Control_c, 3, 1, 5
1, 29610, Control_c, 3, 1, 8
1, 29611, Control_c, 3, 1, 11
1, 29612, Control_c, 3, 1, 15
1, 29613, Control_c, 3, 1, 18
1, 29614, Control_c, 3, 1, 21
1, 29615, Control_c, 3, 1, 24
1, 29616, Note_on_c, 1, 31, 92
1, 29616, Control_c, 3, 1, 27
1, 29616, Note_on_c, 4, 55, 84
1, 29616, Note_on_c, 5, 67, 64
1, 29616, Note_on_c, 8, 55, 84
1, 29616, Note_on_c, 9, 35, 61
1, 29616, Note_on_c, 9, 46, 51
1, 29616, Note_on_c, 9, 51, 61
1, 29617, Control_c, 3, 1, 30
1, 29618, Note_on_c, 9, 51, 0
1, 29618, Note_on_c, 9, 35, 0
1, 29618, Note_on_c, 9, 46, 0
1, 29618, Control_c, 3, 1, 32
1, 29619, Control_c, 3, 1, 34
1, 29620, Control_c, 3, 1, 36
1, 29621, Control_c, 3, 1, 38
1, 29622, Control_c, 3, 1, 39
1, 29623, Control_c, 3, 1, 41
1, 29624, Control_c, 3, 1, 42
1, 29626, Control_c, 3, 1, 44
1, 29627, Control_c, 3, 1, 45
1, 29629, Note_on_c, 5, 74, 0
1, 29629, Control_c, 3, 1, 46
1, 29630, Control_c, 3, 1, 47
1, 29632, Control_c, 3, 1, 48
1, 29634, Control_c, 3, 1, 49
1, 29635, Control_c, 3, 1, 50
1, 29639, Control_c, 3, 1, 51
1, 29645, Note_on_c, 3, 67, 0
1, 29646, Control_c, 3, 1, 50
1, 29647, Control_c, 3, 1, 49
1, 29648, Control_c, 3, 1, 48
1, 29649, Control_c, 3, 1, 45
1, 29650, Control_c, 3, 1, 43
1, 29651, Control_c, 3, 1, 39
1, 29652, Note_on_c, 1, 31, 0
1, 29652, Control_c, 3, 1, 35
1, 29654, Control_c, 3, 1, 29
1, 29655, Control_c, 3, 1, 22
1, 29656, Control_c, 3, 1, 12
1, 29657, Control_c, 3, 1, 1
1, 29658, Control_c, 3, 1, 0
1, 29664, Note_on_c, 1, 33, 100
1, 29664, Note_on_c, 4, 62, 88
1, 29664, Note_on_c, 5, 74, 84
1, 29664, Note_on_c, 8, 62, 88
1, 29664, Note_on_c, 9, 40, 105
1, 29664, Note_on_c, 9, 46, 51
1, 29666, Note_on_c, 9, 46, 0
1, 29666, Note_on_c, 9, 40, 0
1, 29712, Note_on_c, 9, 46, 51
1, 29712, Note_on_c, 9, 51, 57
1, 29714, Note_on_c, 9, 51, 0
1, 29714, Note_on_c, 9, 46, 0
1, 29730, Note_on_c, 4, 55, 0
1, 29730, Note_on_c, 8, 55, 0
1, 29746, Note_on_c, 1, 33, 0
1, 29747, Note_on_c, 4, 47, 0
1, 29747, Note_on_c, 8, 47, 0
1, 29748, Note_on_c, 5, 59, 0
1, 29752, Note_on_c, 5, 67, 0
1, 29754, Note_on_c, 8, 62, 0
1, 29754, Note_on_c, 4, 62, 0
1, 29760, Note_on_c, 1, 34, 104
1, 29760, Note_on_c, 4, 46, 84
1, 29760, Note_on_c, 4, 53, 80
1, 29760, Note_on_c, 4, 58, 97
1, 29760, Note_on_c, 5, 58, 64
1, 29760, Note_on_c, 5, 65, 72
1, 29760, Note_on_c, 5, 70, 64
1, 29760, Note_on_c, 8, 53, 80
1, 29760, Note_on_c, 8, 58, 97
1, 29760, Note_on_c, 8, 46, 84
1, 29760, Note_on_c, 9, 35, 75
1, 29760, Note_on_c, 9, 46, 51
1, 29760, Note_on_c, 9, 52, 72
1, 29762, Note_on_c, 9, 52, 0
1, 29762, Note_on_c, 9, 46, 0
1, 29762, Note_on_c, 9, 35, 0
1, 29808, Note_on_c, 1, 36, 88
1, 29808, Note_on_c, 3, 65, 116
1, 29808, Note_on_c, 9, 35, 61
1, 29808, Note_on_c, 9, 46, 51
1, 29808, Note_on_c, 9, 51, 51
1, 29809, Note_on_c, 1, 34, 0
1, 29810, Note_on_c, 9, 51, 0
1, 29810, Note_on_c, 9, 46, 0
1, 29810, Note_on_c, 9, 35, 0
1, 29839, Note_on_c, 5, 65, 0
1, 29853, Note_on_c, 1, 36, 0
1, 29854, Note_on_c, 8, 58, 0
1, 29854, Note_on_c, 4, 58, 0
1, 29854, Note_on_c, 3, 65, 0
1, 29856, Note_on_c, 3, 64, 116
1, 29856, Note_on_c, 4, 48, 80
1, 29856, Note_on_c, 4, 55, 76
1, 29856, Note_on_c, 4, 60, 84
1, 29856, Note_on_c, 5, 60, 66
1, 29856, Note_on_c, 5, 67, 64
1, 29856, Note_on_c, 5, 72, 66
1, 29856, Note_on_c, 5, 76, 68
1, 29856, Note_on_c, 8, 55, 76
1, 29856, Note_on_c, 8, 60, 84
1, 29856, Note_on_c, 8, 48, 80
1, 29856, Note_on_c, 9, 40, 105
1, 29856, Note_on_c, 9, 46, 51
1, 29856, Note_on_c, 9, 52, 84
1, 29858, Note_on_c, 9, 52, 0
1, 29858, Note_on_c, 9, 46, 0
1, 29858, Note_on_c, 9, 40, 0
1, 29860, Note_on_c, 5, 74, 0
1, 29865, Note_on_c, 8, 53, 0
1, 29865, Note_on_c, 4, 53, 0
1, 29866, Note_on_c, 8, 46, 0
1, 29866, Note_on_c, 4, 46, 0
1, 29868, Note_on_c, 5, 58, 0
1, 29890, Note_on_c, 5, 70, 0
1, 29892, Note_on_c, 3, 64, 0
1, 29904, Note_on_c, 1, 38, 92
1, 29904, Note_on_c, 3, 62, 116
1, 29904, Note_on_c, 9, 46, 51
1, 29904, Note_on_c, 9, 51, 63
1, 29906, Note_on_c, 9, 51, 0
1, 29906, Note_on_c, 9, 46, 0
1, 29916, Pitch_bend_c, 3, 8582
1, 29918, Pitch_bend_c, 3, 9102
1, 29919, Pitch_bend_c, 3, 9752
1, 29920, Pitch_bend_c, 3, 10402
1, 29921, Note_on_c, 1, 38, 0
1, 29921, Pitch_bend_c, 3, 11182
1, 29922, Pitch_bend_c, 3, 11962
1, 29923, Pitch_bend_c, 3, 12612
1, 29924, Pitch_bend_c, 3, 13262
1, 29925, Pitch_bend_c, 3, 13782
1, 29926, Pitch_bend_c, 3, 14172
1, 29927, Pitch_bend_c, 3, 14562
1, 29928, Note_on_c, 1, 40, 88
1, 29928, Pitch_bend_c, 3, 14952
1, 29928, Note_on_c, 9, 40, 90
1, 29929, Pitch_bend_c, 3, 15212
1, 29930, Note_on_c, 9, 40, 0
1, 29930, Pitch_bend_c, 3, 15472
1, 29931, Pitch_bend_c, 3, 15732
1, 29932, Pitch_bend_c, 3, 15862
1, 29933, Pitch_bend_c, 3, 16122
1, 29934, Pitch_bend_c, 3, 16382
1, 29947, Pitch_bend_c, 3, 16122
1, 29948, Pitch_bend_c, 3, 15602
1, 29949, Pitch_bend_c, 3, 15082
1, 29950, Note_on_c, 5, 60, 0
1, 29950, Note_on_c, 1, 40, 0
1, 29950, Note_on_c, 4, 60, 0
1, 29950, Note_on_c, 8, 60, 0
1, 29950, Pitch_bend_c, 3, 14562
1, 29952, Note_on_c, 1, 38, 100
1, 29952, Pitch_bend_c, 3, 13132
1, 29952, Pitch_bend_c, 3, 13782
1, 29952, Note_on_c, 4, 50, 102
1, 29952, Note_on_c, 5, 62, 84
1, 29952, Note_on_c, 8, 50, 102
1, 29952, Note_on_c, 9, 35, 75
1, 29952, Note_on_c, 9, 46, 51
1, 29952, Note_on_c, 9, 49, 74
1, 29953, Pitch_bend_c, 3, 12482
1, 29954, Note_on_c, 9, 49, 0
1, 29954, Note_on_c, 9, 46, 0
1, 29954, Note_on_c, 9, 35, 0
1, 29955, Pitch_bend_c, 3, 11702
1, 29956, Pitch_bend_c, 3, 10532
1, 29957, Pitch_bend_c, 3, 8192
1, 29959, Note_on_c, 5, 76, 0
1, 29960, Note_on_c, 8, 48, 0
1, 29960, Note_on_c, 4, 48, 0
1, 29963, Note_on_c, 5, 72, 0
1, 29963, Note_on_c, 8, 55, 0
1, 29963, Note_on_c, 4, 55, 0
1, 29966, Note_on_c, 5, 67, 0
1, 29973, Note_on_c, 1, 38, 0
1, 29986, Control_c, 3, 1, 1
1, 29987, Control_c, 3, 1, 4
1, 29988, Control_c, 3, 1, 8
1, 29989, Control_c, 3, 1, 14
1, 29990, Control_c, 3, 1, 18
1, 29991, Control_c, 3, 1, 24
1, 29992, Control_c, 3, 1, 30
1, 29993, Control_c, 3, 1, 34
1, 29994, Control_c, 3, 1, 37
1, 29995, Control_c, 3, 1, 41
1, 29996, Control_c, 3, 1, 44
1, 29997, Control_c, 3, 1, 46
1, 29998, Control_c, 3, 1, 49
1, 29999, Control_c, 3, 1, 50
1, 30000, Note_on_c, 1, 40, 92
1, 30000, Control_c, 3, 1, 53
1, 30000, Note_on_c, 4, 57, 88
1, 30000, Note_on_c, 5, 69, 58
1, 30000, Note_on_c, 8, 57, 88
1, 30000, Note_on_c, 9, 35, 56
1, 30000, Note_on_c, 9, 46, 51
1, 30000, Note_on_c, 9, 51, 39
1, 30001, Control_c, 3, 1, 56
1, 30002, Note_on_c, 9, 51, 0
1, 30002, Note_on_c, 9, 46, 0
1, 30002, Note_on_c, 9, 35, 0
1, 30002, Control_c, 3, 1, 58
1, 30003, Control_c, 3, 1, 61
1, 30004, Control_c, 3, 1, 64
1, 30005, Control_c, 3, 1, 67
1, 30006, Control_c, 3, 1, 69
1, 30007, Control_c, 3, 1, 72
1, 30008, Control_c, 3, 1, 74
1, 30009, Control_c, 3, 1, 76
1, 30010, Control_c, 3, 1, 77
1, 30011, Control_c, 3, 1, 78
1, 30012, Control_c, 3, 1, 80
1, 30013, Control_c, 3, 1, 81
1, 30014, Control_c, 3, 1, 82
1, 30016, Control_c, 3, 1, 83
1, 30017, Control_c, 3, 1, 84
1, 30019, Control_c, 3, 1, 85
1, 30021, Control_c, 3, 1, 86
1, 30022, Control_c, 3, 1, 87
1, 30024, Control_c, 3, 1, 88
1, 30028, Control_c, 3, 1, 89
1, 30031, Note_on_c, 1, 40, 0
1, 30047, Control_c, 3, 1, 88
1, 30048, Note_on_c, 1, 42, 86
1, 30048, Control_c, 3, 1, 87
1, 30048, Note_on_c, 4, 62, 88
1, 30048, Note_on_c, 5, 74, 84
1, 30048, Note_on_c, 8, 62, 88
1, 30048, Note_on_c, 9, 40, 105
1, 30048, Note_on_c, 9, 46, 51
1, 30050, Note_on_c, 9, 46, 0
1, 30050, Note_on_c, 9, 40, 0
1, 30051, Control_c, 3, 1, 86
1, 30053, Control_c, 3, 1, 85
1, 30054, Control_c, 3, 1, 84
1, 30057, Control_c, 3, 1, 82
1, 30058, Control_c, 3, 1, 81
1, 30059, Control_c, 3, 1, 79
1, 30060, Control_c, 3, 1, 78
1, 30062, Control_c, 3, 1, 77
1, 30063, Control_c, 3, 1, 76
1, 30064, Control_c, 3, 1, 75
1, 30065, Control_c, 3, 1, 74
1, 30066, Control_c, 3, 1, 72
1, 30068, Control_c, 3, 1, 71
1, 30069, Control_c, 3, 1, 69
1, 30070, Control_c, 3, 1, 68
1, 30072, Control_c, 3, 1, 67
1, 30073, Control_c, 3, 1, 65
1, 30074, Control_c, 3, 1, 63
1, 30075, Control_c, 3, 1, 61
1, 30076, Control_c, 3, 1, 59
1, 30077, Note_on_c, 3, 62, 0
1, 30077, Control_c, 3, 1, 56
1, 30078, Control_c, 3, 1, 52
1, 30079, Control_c, 3, 1, 47
1, 30080, Note_on_c, 1, 42, 0
1, 30080, Control_c, 3, 1, 42
1, 30081, Control_c, 3, 1, 36
1, 30082, Control_c, 3, 1, 28
1, 30083, Control_c, 3, 1, 20
1, 30084, Control_c, 3, 1, 12
1, 30085, Control_c, 3, 1, 2
1, 30086, Control_c, 3, 1, 0
1, 30096, Note_on_c, 9, 46, 51
1, 30096, Note_on_c, 9, 51, 79
1, 30098, Note_on_c, 9, 51, 0
1, 30098, Note_on_c, 9, 46, 0
1, 30120, Note_on_c, 9, 40, 90
1, 30122, Note_on_c, 9, 40, 0
1, 30130, Note_on_c, 4, 50, 0
1, 30130, Note_on_c, 8, 50, 0
1, 30140, Note_on_c, 5, 62, 0
1, 30144, Note_on_c, 1, 43, 108
1, 30144, Note_on_c, 4, 48, 102
1, 30144, Note_on_c, 8, 48, 102
1, 30144, Note_on_c, 9, 35, 75
1, 30144, Note_on_c, 9, 46, 51
1, 30146, Note_on_c, 9, 46, 0
1, 30146, Note_on_c, 9, 35, 0
1, 30155, Note_on_c, 4, 48, 0
1, 30155, Note_on_c, 8, 48, 0
1, 30160, Note_on_c, 8, 57, 0
1, 30160, Note_on_c, 4, 57, 0
1, 30165, Note_on_c, 8, 62, 0
1, 30165, Note_on_c, 4, 62, 0
1, 30168, Note_on_c, 4, 48, 84
1, 30168, Note_on_c, 8, 48, 84
1, 30186, Note_on_c, 1, 43, 0
1, 30192, Note_on_c, 4, 55, 88
1, 30192, Note_on_c, 5, 62, 44
1, 30192, Note_on_c, 8, 55, 88
1, 30192, Note_on_c, 9, 35, 56
1, 30192, Note_on_c, 9, 46, 51
1, 30192, Note_on_c, 9, 51, 79
1, 30194, Note_on_c, 9, 51, 0
1, 30194, Note_on_c, 9, 46, 0
1, 30194, Note_on_c, 9, 35, 0
1, 30216, Note_on_c, 1, 45, 104
1, 30223, Note_on_c, 5, 69, 0
1, 30240, Note_on_c, 4, 62, 97
1, 30240, Note_on_c, 5, 69, 66
1, 30240, Note_on_c, 8, 62, 97
1, 30240, Note_on_c, 9, 40, 105
1, 30240, Note_on_c, 9, 46, 51
1, 30242, Note_on_c, 9, 46, 0
1, 30242, Note_on_c, 9, 40, 0
1, 30288, Note_on_c, 1, 47, 84
1, 30288, Note_on_c, 9, 46, 51
1, 30288, Note_on_c, 9, 51, 75
1, 30290, Note_on_c, 9, 51, 0
1, 30290, Note_on_c, 9, 46, 0
1, 30292, Note_on_c, 1, 45, 0
1, 30317, Note_on_c, 4, 48, 0
1, 30317, Note_on_c, 8, 48, 0
1, 30332, Note_on_c, 1, 47, 0
1, 30336, Note_on_c, 1, 48, 104
1, 30336, Note_on_c, 4, 47, 97
1, 30336, Note_on_c, 5, 59, 74
1, 30336, Note_on_c, 8, 47, 97
1, 30336, Note_on_c, 9, 35, 75
1, 30336, Note_on_c, 9, 46, 51
1, 30336, Note_on_c, 9, 49, 66
1, 30338, Note_on_c, 9, 49, 0
1, 30338, Note_on_c, 9, 46, 0
1, 30338, Note_on_c, 9, 35, 0
1, 30351, Note_on_c, 5, 62, 0
1, 30364, Note_on_c, 8, 47, 0
1, 30364, Note_on_c, 4, 47, 0
1, 30367, Note_on_c, 5, 69, 0
1, 30384, Note_on_c, 1, 50, 86
1, 30384, Note_on_c, 4, 47, 102
1, 30384, Note_on_c, 5, 62, 54
1, 30384, Note_on_c, 8, 47, 102
1, 30384, Note_on_c, 9, 35, 54
1, 30384, Note_on_c, 9, 46, 51
1, 30384, Note_on_c, 9, 51, 71
1, 30386, Note_on_c, 9, 51, 0
1, 30386, Note_on_c, 9, 46, 0
1, 30386, Note_on_c, 4, 55, 0
1, 30386, Note_on_c, 8, 55, 0
1, 30386, Note_on_c, 9, 35, 0
1, 30392, Note_on_c, 8, 62, 0
1, 30392, Note_on_c, 4, 62, 0
1, 30393, Note_on_c, 1, 48, 0
1, 30401, Note_on_c, 1, 50, 0
1, 30414, Note_on_c, 5, 74, 0
1, 30432, Note_on_c, 1, 50, 88
1, 30432, Note_on_c, 1, 52, 84
1, 30432, Note_on_c, 4, 55, 102
1, 30432, Note_on_c, 5, 67, 64
1, 30432, Note_on_c, 5, 74, 72
1, 30432, Note_on_c, 8, 55, 102
1, 30432, Note_on_c, 9, 40, 105
1, 30432, Note_on_c, 9, 46, 51
1, 30434, Note_on_c, 9, 46, 0
1, 30434, Note_on_c, 9, 40, 0
1, 30447, Note_on_c, 1, 50, 0
1, 30480, Note_on_c, 1, 52, 0
1, 30480, Note_on_c, 1, 53, 86
1, 30480, Note_on_c, 4, 62, 84
1, 30480, Note_on_c, 8, 62, 84
1, 30480, Note_on_c, 9, 46, 51
1, 30480, Note_on_c, 9, 51, 67
1, 30482, Note_on_c, 9, 51, 0
1, 30482, Note_on_c, 9, 46, 0
1, 30486, Note_on_c, 5, 62, 0
1, 30514, Note_on_c, 8, 55, 0
1, 30514, Note_on_c, 4, 55, 0
1, 30516, Note_on_c, 5, 59, 0
1, 30516, Note_on_c, 8, 47, 0
1, 30516, Note_on_c, 4, 47, 0
1, 30521, Note_on_c, 5, 67, 0
1, 30525, Note_on_c, 8, 62, 0
1, 30525, Note_on_c, 4, 62, 0
1, 30528, Note_on_c, 1, 52, 84
1, 30528, Note_on_c, 4, 46, 88
1, 30528, Note_on_c, 4, 53, 68
1, 30528, Note_on_c, 4, 58, 97
1, 30528, Note_on_c, 5, 58, 56
1, 30528, Note_on_c, 5, 65, 64
1, 30528, Note_on_c, 5, 70, 66
1, 30528, Note_on_c, 8, 58, 97
1, 30528, Note_on_c, 8, 53, 68
1, 30528, Note_on_c, 8, 46, 88
1, 30528, Note_on_c, 9, 35, 75
1, 30528, Note_on_c, 9, 46, 51
1, 30528, Note_on_c, 9, 57, 75
1, 30530, Note_on_c, 9, 57, 0
1, 30530, Note_on_c, 9, 46, 0
1, 30530, Note_on_c, 9, 35, 0
1, 30537, Note_on_c, 1, 53, 0
1, 30552, Note_on_c, 1, 50, 84
1, 30560, Note_on_c, 1, 52, 0
1, 30575, Note_on_c, 5, 65, 0
1, 30576, Note_on_c, 1, 48, 86
1, 30576, Note_on_c, 3, 72, 121
1, 30576, Note_on_c, 9, 35, 54
1, 30576, Note_on_c, 9, 46, 51
1, 30576, Note_on_c, 9, 51, 55
1, 30578, Note_on_c, 9, 51, 0
1, 30578, Note_on_c, 9, 46, 0
1, 30578, Note_on_c, 9, 35, 0
1, 30579, Note_on_c, 1, 50, 0
1, 30597, Note_on_c, 1, 48, 0
1, 30599, Note_on_c, 5, 74, 0
1, 30599, Note_on_c, 4, 53, 0
1, 30599, Note_on_c, 5, 70, 0
1, 30599, Note_on_c, 4, 58, 0
1, 30600, Note_on_c, 1, 45, 84
1, 30616, Note_on_c, 3, 72, 0
1, 30619, Note_on_c, 8, 58, 0
1, 30623, Note_on_c, 5, 58, 0
1, 30624, Note_on_c, 1, 45, 0
1, 30624, Note_on_c, 8, 53, 0
1, 30624, Note_on_c, 1, 43, 80
1, 30624, Note_on_c, 3, 74, 121
1, 30624, Note_on_c, 4, 48, 84
1, 30624, Note_on_c, 4, 55, 84
1, 30624, Note_on_c, 4, 60, 88
1, 30624, Note_on_c, 5, 67, 64
1, 30624, Note_on_c, 5, 72, 72
1, 30624, Note_on_c, 5, 76, 68
1, 30624, Note_on_c, 8, 60, 88
1, 30624, Note_on_c, 8, 48, 84
1, 30624, Note_on_c, 8, 55, 84
1, 30624, Note_on_c, 9, 40, 105
1, 30624, Note_on_c, 9, 46, 51
1, 30624, Note_on_c, 9, 49, 52
1, 30626, Note_on_c, 9, 49, 0
1, 30626, Note_on_c, 9, 46, 0
1, 30626, Note_on_c, 9, 40, 0
1, 30629, Note_on_c, 8, 46, 0
1, 30629, Note_on_c, 4, 46, 0
1, 30647, Note_on_c, 1, 43, 0
1, 30648, Note_on_c, 1, 41, 84
1, 30662, Note_on_c, 3, 74, 0
1, 30671, Note_on_c, 1, 41, 0
1, 30672, Note_on_c, 1, 38, 86
1, 30672, Note_on_c, 3, 77, 116
1, 30672, Note_on_c, 9, 45, 75
1, 30672, Note_on_c, 9, 46, 51
1, 30672, Note_on_c, 9, 51, 59
1, 30674, Note_on_c, 9, 51, 0
1, 30674, Note_on_c, 9, 46, 0
1, 30674, Note_on_c, 9, 45, 0
1, 30695, Note_on_c, 1, 38, 0
1, 30696, Note_on_c, 1, 36, 82
1, 30696, Note_on_c, 9, 43, 75
1, 30698, Note_on_c, 9, 43, 0
1, 30699, Note_on_c, 5, 76, 0
1, 30706, Note_on_c, 5, 67, 0
1, 30716, Note_on_c, 4, 48, 0
1, 30716, Note_on_c, 8, 48, 0
1, 30718, Note_on_c, 8, 60, 0
1, 30718, Note_on_c, 4, 60, 0
1, 30718, Note_on_c, 5, 72, 0
1, 30719, Note_on_c, 3, 77, 0
1, 30720, Note_on_c, 1, 38, 92
1, 30720, Note_on_c, 3, 74, 121
1, 30720, Note_on_c, 4, 50, 102
1, 30720, Note_on_c, 8, 50, 102
1, 30720, Note_on_c, 9, 35, 75
1, 30720, Note_on_c, 9, 46, 51
1, 30720, Note_on_c, 9, 51, 75
1, 30722, Note_on_c, 9, 51, 0
1, 30722, Note_on_c, 9, 46, 0
1, 30722, Note_on_c, 9, 35, 0
1, 30726, Note_on_c, 1, 36, 0
1, 30728, Note_on_c, 8, 55, 0
1, 30728, Note_on_c, 4, 55, 0
1, 30744, Note_on_c, 3, 77, 116
1, 30748, Note_on_c, 3, 74, 0
1, 30768, Note_on_c, 4, 57, 80
1, 30768, Note_on_c, 5, 62, 52
1, 30768, Note_on_c, 8, 57, 80
1, 30768, Note_on_c, 9, 35, 64
1, 30768, Note_on_c, 9, 46, 51
1, 30768, Note_on_c, 9, 51, 83
1, 30769, Control_c, 3, 1, 2
1, 30770, Note_on_c, 9, 51, 0
1, 30770, Note_on_c, 9, 46, 0
1, 30770, Note_on_c, 9, 35, 0
1, 30770, Control_c, 3, 1, 4
1, 30771, Control_c, 3, 1, 8
1, 30772, Control_c, 3, 1, 11
1, 30773, Control_c, 3, 1, 16
1, 30774, Note_on_c, 1, 38, 0
1, 30774, Control_c, 3, 1, 19
1, 30775, Control_c, 3, 1, 23
1, 30776, Control_c, 3, 1, 26
1, 30777, Control_c, 3, 1, 30
1, 30778, Control_c, 3, 1, 33
1, 30779, Control_c, 3, 1, 35
1, 30780, Control_c, 3, 1, 39
1, 30781, Control_c, 3, 1, 42
1, 30782, Control_c, 3, 1, 44
1, 30783, Control_c, 3, 1, 47
1, 30785, Control_c, 3, 1, 49
1, 30786, Control_c, 3, 1, 51
1, 30787, Control_c, 3, 1, 54
1, 30788, Control_c, 3, 1, 56
1, 30789, Control_c, 3, 1, 57
1, 30790, Control_c, 3, 1, 59
1, 30791, Control_c, 3, 1, 61
1, 30792, Control_c, 3, 1, 62
1, 30793, Control_c, 3, 1, 64
1, 30794, Control_c, 3, 1, 66
1, 30795, Control_c, 3, 1, 68
1, 30796, Control_c, 3, 1, 69
1, 30797, Control_c, 3, 1, 71
1, 30798, Control_c, 3, 1, 72
1, 30799, Control_c, 3, 1, 74
1, 30800, Control_c, 3, 1, 75
1, 30801, Control_c, 3, 1, 76
1, 30802, Control_c, 3, 1, 77
1, 30804, Control_c, 3, 1, 78
1, 30806, Control_c, 3, 1, 79
1, 30808, Control_c, 3, 1, 80
1, 30810, Control_c, 3, 1, 81
1, 30813, Control_c, 3, 1, 82
1, 30816, Note_on_c, 1, 38, 66
1, 30816, Control_c, 3, 1, 83
1, 30816, Note_on_c, 4, 62, 97
1, 30816, Note_on_c, 5, 74, 72
1, 30816, Note_on_c, 8, 62, 97
1, 30816, Note_on_c, 9, 40, 105
1, 30816, Note_on_c, 9, 46, 51
1, 30816, Note_on_c, 9, 49, 74
1, 30818, Note_on_c, 9, 49, 0
1, 30818, Note_on_c, 9, 46, 0
1, 30818, Note_on_c, 9, 40, 0
1, 30822, Control_c, 3, 1, 84
1, 30824, Note_on_c, 1, 38, 0
1, 30825, Control_c, 3, 1, 83
1, 30828, Control_c, 3, 1, 82
1, 30829, Note_on_c, 3, 77, 0
1, 30829, Control_c, 3, 1, 80
1, 30830, Control_c, 3, 1, 78
1, 30831, Control_c, 3, 1, 75
1, 30832, Control_c, 3, 1, 68
1, 30832, Control_c, 3, 1, 72
1, 30834, Control_c, 3, 1, 64
1, 30835, Control_c, 3, 1, 60
1, 30836, Control_c, 3, 1, 56
1, 30837, Control_c, 3, 1, 50
1, 30838, Control_c, 3, 1, 43
1, 30839, Control_c, 3, 1, 36
1, 30840, Note_on_c, 1, 38, 108
1, 30840, Control_c, 3, 1, 28
1, 30841, Control_c, 3, 1, 18
1, 30842, Control_c, 3, 1, 8
1, 30843, Control_c, 3, 1, 1
1, 30844, Control_c, 3, 1, 0
1, 30864, Note_on_c, 9, 46, 51
1, 30864, Note_on_c, 9, 51, 47
1, 30866, Note_on_c, 9, 51, 0
1, 30866, Note_on_c, 9, 46, 0
1, 30888, Note_on_c, 9, 40, 90
1, 30890, Note_on_c, 9, 40, 0
1, 30903, Note_on_c, 1, 38, 0
1, 30904, Note_on_c, 8, 50, 0
1, 30904, Note_on_c, 4, 50, 0
1, 30912, Note_on_c, 1, 36, 88
1, 30912, Note_on_c, 4, 48, 97
1, 30912, Note_on_c, 5, 60, 38
1, 30912, Note_on_c, 8, 48, 97
1, 30912, Note_on_c, 9, 35, 75
1, 30912, Note_on_c, 9, 46, 51
1, 30912, Note_on_c, 9, 51, 53
1, 30914, Note_on_c, 9, 51, 0
1, 30914, Note_on_c, 9, 46, 0
1, 30914, Note_on_c, 9, 35, 0
1, 30931, Note_on_c, 8, 57, 0
1, 30931, Note_on_c, 4, 57, 0
1, 30945, Note_on_c, 1, 36, 0
1, 30960, Note_on_c, 4, 62, 0
1, 30960, Note_on_c, 8, 62, 0
1, 30960, Note_on_c, 1, 36, 88
1, 30960, Note_on_c, 3, 72, 121
1, 30960, Note_on_c, 4, 55, 92
1, 30960, Note_on_c, 8, 55, 92
1, 30960, Note_on_c, 9, 35, 59
1, 30960, Note_on_c, 9, 46, 51
1, 30960, Note_on_c, 9, 51, 59
1, 30962, Note_on_c, 9, 51, 0
1, 30962, Note_on_c, 9, 35, 0
1, 30962, Note_on_c, 9, 46, 0
1, 30975, Note_on_c, 5, 74, 0
1, 31008, Note_on_c, 3, 71, 121
1, 31008, Note_on_c, 4, 62, 88
1, 31008, Note_on_c, 5, 67, 76
1, 31008, Note_on_c, 5, 74, 80
1, 31008, Note_on_c, 8, 62, 88
1, 31008, Note_on_c, 9, 40, 105
1, 31008, Note_on_c, 9, 46, 51
1, 31008, Note_on_c, 9, 51, 71
1, 31010, Note_on_c, 9, 51, 0
1, 31010, Note_on_c, 9, 46, 0
1, 31010, Note_on_c, 9, 40, 0
1, 31011, Note_on_c, 3, 72, 0
1, 31047, Note_on_c, 3, 71, 0
1, 31054, Note_on_c, 1, 36, 0
1, 31056, Note_on_c, 1, 35, 86
1, 31056, Note_on_c, 3, 69, 106
1, 31056, Note_on_c, 9, 46, 51
1, 31056, Note_on_c, 9, 51, 63
1, 31058, Note_on_c, 9, 51, 0
1, 31058, Note_on_c, 9, 46, 0
1, 31073, Note_on_c, 1, 35, 0
1, 31080, Note_on_c, 1, 33, 86
1, 31089, Note_on_c, 5, 60, 0
1, 31098, Note_on_c, 4, 48, 0
1, 31098, Note_on_c, 8, 48, 0
1, 31099, Note_on_c, 1, 33, 0
1, 31102, Note_on_c, 3, 69, 0
1, 31104, Note_on_c, 1, 31, 92
1, 31104, Note_on_c, 3, 67, 78
1, 31104, Note_on_c, 4, 47, 88
1, 31104, Note_on_c, 5, 59, 80
1, 31104, Note_on_c, 8, 47, 88
1, 31104, Note_on_c, 9, 35, 75
1, 31104, Note_on_c, 9, 46, 51
1, 31104, Note_on_c, 9, 51, 61
1, 31106, Note_on_c, 9, 51, 0
1, 31106, Note_on_c, 8, 55, 0
1, 31106, Note_on_c, 9, 46, 0
1, 31106, Note_on_c, 4, 55, 0
1, 31106, Note_on_c, 9, 35, 0
1, 31132, Note_on_c, 8, 62, 0
1, 31132, Note_on_c, 4, 62, 0
1, 31133, Note_on_c, 1, 31, 0
1, 31138, Note_on_c, 3, 67, 0
1, 31152, Note_on_c, 1, 31, 100
1, 31152, Note_on_c, 3, 67, 116
1, 31152, Note_on_c, 4, 55, 88
1, 31152, Note_on_c, 8, 55, 88
1, 31152, Note_on_c, 9, 35, 61
1, 31152, Note_on_c, 9, 46, 51
1, 31152, Note_on_c, 9, 51, 61
1, 31154, Note_on_c, 9, 51, 0
1, 31154, Note_on_c, 9, 46, 0
1, 31154, Note_on_c, 9, 35, 0
1, 31166, Control_c, 3, 1, 1
1, 31167, Control_c, 3, 1, 6
1, 31167, Control_c, 3, 1, 3
1, 31169, Control_c, 3, 1, 9
1, 31170, Control_c, 3, 1, 12
1, 31171, Control_c, 3, 1, 15
1, 31172, Control_c, 3, 1, 18
1, 31173, Control_c, 3, 1, 21
1, 31174, Control_c, 3, 1, 23
1, 31176, Control_c, 3, 1, 26
1, 31177, Control_c, 3, 1, 28
1, 31178, Control_c, 3, 1, 30
1, 31179, Control_c, 3, 1, 31
1, 31180, Control_c, 3, 1, 33
1, 31181, Control_c, 3, 1, 35
1, 31182, Control_c, 3, 1, 37
1, 31183, Control_c, 3, 1, 39
1, 31184, Control_c, 3, 1, 40
1, 31185, Control_c, 3, 1, 41
1, 31186, Control_c, 3, 1, 43
1, 31187, Control_c, 3, 1, 44
1, 31188, Control_c, 3, 1, 45
1, 31190, Control_c, 3, 1, 46
1, 31191, Control_c, 3, 1, 47
1, 31193, Control_c, 3, 1, 48
1, 31195, Control_c, 3, 1, 49
1, 31197, Control_c, 3, 1, 50
1, 31198, Control_c, 3, 1, 51
1, 31200, Control_c, 3, 1, 53
1, 31200, Control_c, 3, 1, 52
1, 31200, Note_on_c, 4, 62, 84
1, 31200, Note_on_c, 8, 62, 84
1, 31200, Note_on_c, 9, 40, 105
1, 31200, Note_on_c, 9, 46, 51
1, 31200, Note_on_c, 9, 51, 67
1, 31202, Note_on_c, 9, 51, 0
1, 31202, Note_on_c, 9, 46, 0
1, 31202, Note_on_c, 9, 40, 0
1, 31203, Control_c, 3, 1, 55
1, 31206, Control_c, 3, 1, 56
1, 31216, Control_c, 3, 1, 55
1, 31217, Control_c, 3, 1, 53
1, 31218, Note_on_c, 1, 31, 0
1, 31218, Control_c, 3, 1, 51
1, 31219, Control_c, 3, 1, 49
1, 31220, Control_c, 3, 1, 48
1, 31222, Control_c, 3, 1, 43
1, 31222, Control_c, 3, 1, 46
1, 31224, Control_c, 3, 1, 41
1, 31225, Control_c, 3, 1, 37
1, 31226, Control_c, 3, 1, 34
1, 31227, Control_c, 3, 1, 31
1, 31228, Control_c, 3, 1, 27
1, 31229, Control_c, 3, 1, 24
1, 31230, Control_c, 3, 1, 20
1, 31231, Control_c, 3, 1, 17
1, 31232, Control_c, 3, 1, 12
1, 31233, Control_c, 3, 1, 8
1, 31234, Control_c, 3, 1, 4
1, 31235, Control_c, 3, 1, 0
1, 31241, Note_on_c, 3, 67, 0
1, 31248, Note_on_c, 1, 31, 84
1, 31248, Note_on_c, 9, 46, 51
1, 31248, Note_on_c, 9, 51, 71
1, 31250, Note_on_c, 9, 51, 0
1, 31250, Note_on_c, 9, 46, 0
1, 31270, Note_on_c, 5, 62, 0
1, 31285, Note_on_c, 4, 55, 0
1, 31285, Note_on_c, 8, 55, 0
1, 31288, Note_on_c, 8, 62, 0
1, 31288, Note_on_c, 4, 62, 0
1, 31291, Note_on_c, 1, 31, 0
1, 31292, Note_on_c, 5, 59, 0
1, 31293, Note_on_c, 8, 47, 0
1, 31293, Note_on_c, 4, 47, 0
1, 31296, Note_on_c, 1, 34, 84
1, 31296, Note_on_c, 4, 46, 68
1, 31296, Note_on_c, 4, 53, 66
1, 31296, Note_on_c, 4, 58, 88
1, 31296, Note_on_c, 5, 58, 42
1, 31296, Note_on_c, 5, 65, 62
1, 31296, Note_on_c, 5, 70, 68
1, 31296, Note_on_c, 8, 53, 66
1, 31296, Note_on_c, 8, 58, 88
1, 31296, Note_on_c, 8, 46, 68
1, 31296, Note_on_c, 9, 35, 75
1, 31296, Note_on_c, 9, 46, 51
1, 31296, Note_on_c, 9, 49, 66
1, 31298, Note_on_c, 9, 49, 0
1, 31298, Note_on_c, 9, 46, 0
1, 31298, Note_on_c, 9, 35, 0
1, 31324, Note_on_c, 5, 67, 0
1, 31344, Note_on_c, 3, 65, 126
1, 31344, Note_on_c, 9, 35, 61
1, 31344, Note_on_c, 9, 46, 51
1, 31344, Note_on_c, 9, 51, 63
1, 31346, Note_on_c, 9, 51, 0
1, 31346, Note_on_c, 9, 46, 0
1, 31346, Note_on_c, 9, 35, 0
1, 31371, Note_on_c, 5, 65, 0
1, 31374, Note_on_c, 5, 74, 0
1, 31387, Note_on_c, 3, 65, 0
1, 31389, Note_on_c, 8, 58, 0
1, 31389, Note_on_c, 4, 58, 0
1, 31391, Note_on_c, 4, 53, 0
1, 31391, Note_on_c, 8, 53, 0
1, 31392, Note_on_c, 1, 36, 84
1, 31392, Note_on_c, 3, 64, 111
1, 31392, Note_on_c, 4, 48, 84
1, 31392, Note_on_c, 4, 55, 88
1, 31392, Note_on_c, 4, 60, 88
1, 31392, Note_on_c, 5, 60, 58
1, 31392, Note_on_c, 5, 67, 64
1, 31392, Note_on_c, 5, 72, 68
1, 31392, Note_on_c, 5, 76, 76
1, 31392, Note_on_c, 8, 55, 88
1, 31392, Note_on_c, 8, 60, 88
1, 31392, Note_on_c, 8, 48, 84
1, 31392, Note_on_c, 9, 40, 105
1, 31392, Note_on_c, 9, 46, 51
1, 31392, Note_on_c, 9, 57, 71
1, 31393, Note_on_c, 5, 58, 0
1, 31394, Note_on_c, 9, 57, 0
1, 31394, Note_on_c, 9, 40, 0
1, 31394, Note_on_c, 9, 46, 0
1, 31397, Note_on_c, 5, 70, 0
1, 31400, Note_on_c, 1, 34, 0
1, 31404, Note_on_c, 4, 46, 0
1, 31404, Note_on_c, 8, 46, 0
1, 31429, Note_on_c, 3, 64, 0
1, 31439, Pitch_bend_c, 3, 8452
1, 31440, Note_on_c, 3, 62, 116
1, 31440, Pitch_bend_c, 3, 8972
1, 31440, Note_on_c, 9, 46, 51
1, 31440, Note_on_c, 9, 51, 63
1, 31441, Pitch_bend_c, 3, 9492
1, 31442, Note_on_c, 9, 51, 0
1, 31442, Note_on_c, 9, 46, 0
1, 31442, Pitch_bend_c, 3, 9882
1, 31443, Pitch_bend_c, 3, 10402
1, 31444, Pitch_bend_c, 3, 10922
1, 31445, Pitch_bend_c, 3, 11442
1, 31446, Pitch_bend_c, 3, 11832
1, 31447, Pitch_bend_c, 3, 12352
1, 31448, Pitch_bend_c, 3, 12872
1, 31449, Pitch_bend_c, 3, 13392
1, 31450, Pitch_bend_c, 3, 13912
1, 31451, Pitch_bend_c, 3, 14432
1, 31452, Pitch_bend_c, 3, 14822
1, 31453, Pitch_bend_c, 3, 15212
1, 31454, Pitch_bend_c, 3, 15602
1, 31455, Pitch_bend_c, 3, 15862
1, 31456, Pitch_bend_c, 3, 16122
1, 31457, Pitch_bend_c, 3, 16382
1, 31459, Note_on_c, 1, 36, 0
1, 31464, Note_on_c, 9, 40, 90
1, 31466, Note_on_c, 9, 40, 0
1, 31479, Note_on_c, 5, 76, 0
1, 31480, Note_on_c, 5, 67, 0
1, 31484, Note_on_c, 5, 72, 0
1, 31488, Note_on_c, 1, 45, 112
1, 31488, Pitch_bend_c, 1, 9088
1, 31488, Pitch_bend_c, 1, 1536
1, 31488, Note_on_c, 4, 50, 102
1, 31488, Note_on_c, 5, 62, 84
1, 31488, Note_on_c, 8, 50, 102
1, 31488, Note_on_c, 9, 35, 75
1, 31488, Note_on_c, 9, 46, 51
1, 31488, Note_on_c, 9, 49, 70
1, 31489, Note_on_c, 8, 48, 0
1, 31489, Note_on_c, 4, 48, 0
1, 31489, Pitch_bend_c, 3, 16252
1, 31490, Note_on_c, 9, 35, 0
1, 31490, Note_on_c, 9, 49, 0
1, 31490, Note_on_c, 9, 46, 0
1, 31490, Pitch_bend_c, 1, 2816
1, 31490, Pitch_bend_c, 3, 15602
1, 31491, Pitch_bend_c, 3, 15082
1, 31492, Note_on_c, 8, 60, 0
1, 31492, Note_on_c, 4, 60, 0
1, 31492, Pitch_bend_c, 3, 14562
1, 31493, Note_on_c, 8, 55, 0
1, 31493, Note_on_c, 4, 55, 0
1, 31493, Pitch_bend_c, 1, 4864
1, 31493, Pitch_bend_c, 3, 13782
1, 31494, Note_on_c, 5, 60, 0
1, 31494, Pitch_bend_c, 3, 12222
1, 31495, Pitch_bend_c, 3, 8452
1, 31496, Pitch_bend_c, 3, 8192
1, 31499, Pitch_bend_c, 1, 8192
1, 31511, Note_on_c, 1, 45, 0
1, 31536, Note_on_c, 1, 50, 112
1, 31536, Note_on_c, 4, 57, 84
1, 31536, Note_on_c, 5, 69, 56
1, 31536, Note_on_c, 8, 57, 84
1, 31536, Note_on_c, 9, 35, 56
1, 31536, Note_on_c, 9, 46, 51
1, 31536, Note_on_c, 9, 51, 47
1, 31538, Note_on_c, 9, 51, 0
1, 31538, Note_on_c, 9, 46, 0
1, 31538, Note_on_c, 9, 35, 0
1, 31538, Control_c, 3, 1, 3
1, 31539, Control_c, 3, 1, 6
1, 31540, Control_c, 3, 1, 10
1, 31541, Control_c, 3, 1, 16
1, 31542, Control_c, 3, 1, 21
1, 31543, Note_on_c, 1, 50, 0
1, 31543, Control_c, 3, 1, 27
1, 31544, Control_c, 3, 1, 32
1, 31545, Control_c, 3, 1, 37
1, 31546, Control_c, 3, 1, 42
1, 31547, Control_c, 3, 1, 46
1, 31548, Control_c, 3, 1, 49
1, 31549, Control_c, 3, 1, 52
1, 31550, Control_c, 3, 1, 55
1, 31551, Control_c, 3, 1, 57
1, 31552, Control_c, 3, 1, 59
1, 31553, Control_c, 3, 1, 62
1, 31554, Control_c, 3, 1, 64
1, 31555, Control_c, 3, 1, 67
1, 31556, Control_c, 3, 1, 68
1, 31557, Control_c, 3, 1, 70
1, 31558, Control_c, 3, 1, 72
1, 31559, Control_c, 3, 1, 75
1, 31560, Control_c, 3, 1, 76
1, 31561, Control_c, 3, 1, 78
1, 31562, Control_c, 3, 1, 80
1, 31563, Control_c, 3, 1, 83
1, 31563, Control_c, 3, 1, 82
1, 31565, Control_c, 3, 1, 85
1, 31566, Control_c, 3, 1, 86
1, 31567, Control_c, 3, 1, 88
1, 31568, Control_c, 3, 1, 89
1, 31569, Control_c, 3, 1, 90
1, 31570, Control_c, 3, 1, 91
1, 31571, Control_c, 3, 1, 92
1, 31572, Control_c, 3, 1, 93
1, 31575, Control_c, 3, 1, 94
1, 31579, Control_c, 3, 1, 95
1, 31584, Note_on_c, 1, 53, 112
1, 31584, Note_on_c, 4, 62, 88
1, 31584, Note_on_c, 5, 74, 72
1, 31584, Note_on_c, 8, 62, 88
1, 31584, Note_on_c, 9, 40, 105
1, 31584, Note_on_c, 9, 46, 51
1, 31584, Note_on_c, 9, 57, 71
1, 31586, Note_on_c, 9, 57, 0
1, 31586, Note_on_c, 9, 46, 0
1, 31586, Note_on_c, 9, 40, 0
1, 31586, Control_c, 3, 1, 94
1, 31589, Control_c, 3, 1, 93
1, 31591, Control_c, 3, 1, 92
1, 31592, Control_c, 3, 1, 91
1, 31593, Control_c, 3, 1, 90
1, 31594, Control_c, 3, 1, 89
1, 31595, Control_c, 3, 1, 87
1, 31596, Control_c, 3, 1, 86
1, 31597, Control_c, 3, 1, 84
1, 31598, Control_c, 3, 1, 82
1, 31599, Control_c, 3, 1, 79
1, 31600, Control_c, 3, 1, 76
1, 31601, Control_c, 3, 1, 72
1, 31602, Control_c, 3, 1, 67
1, 31603, Control_c, 3, 1, 63
1, 31604, Control_c, 3, 1, 59
1, 31605, Control_c, 1, 1, 12
1, 31605, Control_c, 3, 1, 54
1, 31606, Control_c, 3, 1, 48
1, 31607, Control_c, 3, 1, 29
1, 31607, Control_c, 3, 1, 36
1, 31607, Control_c, 3, 1, 43
1, 31608, Control_c, 1, 1, 31
1, 31610, Note_on_c, 3, 62, 0
1, 31611, Control_c, 3, 1, 19
1, 31612, Control_c, 3, 1, 10
1, 31613, Control_c, 1, 1, 48
1, 31613, Control_c, 3, 1, 0
1, 31618, Pitch_bend_c, 1, 8832
1, 31618, Control_c, 1, 1, 60
1, 31620, Pitch_bend_c, 1, 9344
1, 31622, Control_c, 1, 1, 71
1, 31623, Pitch_bend_c, 1, 9600
1, 31626, Pitch_bend_c, 1, 9856
1, 31626, Control_c, 1, 1, 76
1, 31630, Pitch_bend_c, 1, 10112
1, 31632, Note_on_c, 9, 46, 51
1, 31632, Note_on_c, 9, 51, 59
1, 31634, Note_on_c, 9, 51, 0
1, 31634, Note_on_c, 9, 46, 0
1, 31634, Pitch_bend_c, 1, 10240
1, 31636, Control_c, 1, 1, 72
1, 31637, Pitch_bend_c, 1, 10368
1, 31640, Control_c, 1, 1, 64
1, 31640, Pitch_bend_c, 1, 10624
1, 31643, Pitch_bend_c, 1, 11008
1, 31644, Control_c, 1, 1, 51
1, 31647, Pitch_bend_c, 1, 11392
1, 31649, Control_c, 1, 1, 32
1, 31652, Pitch_bend_c, 1, 11776
1, 31653, Control_c, 1, 1, 1
1, 31655, Note_on_c, 1, 53, 0
1, 31655, Pitch_bend_c, 1, 11904
1, 31656, Note_on_c, 9, 40, 90
1, 31658, Note_on_c, 9, 40, 0
1, 31658, Control_c, 1, 1, 0
1, 31674, Pitch_bend_c, 1, 11776
1, 31676, Pitch_bend_c, 1, 10880
1, 31679, Note_on_c, 8, 50, 0
1, 31679, Note_on_c, 4, 50, 0
1, 31679, Pitch_bend_c, 1, 10496
1, 31680, Note_on_c, 1, 45, 112
1, 31680, Note_on_c, 4, 48, 102
1, 31680, Note_on_c, 5, 60, 66
1, 31680, Note_on_c, 8, 48, 102
1, 31680, Note_on_c, 9, 35, 75
1, 31680, Note_on_c, 9, 46, 51
1, 31680, Note_on_c, 9, 51, 57
1, 31682, Note_on_c, 9, 51, 0
1, 31682, Note_on_c, 9, 46, 0
1, 31682, Note_on_c, 9, 35, 0
1, 31684, Note_on_c, 5, 62, 0
1, 31686, Pitch_bend_c, 1, 8192
1, 31697, Note_on_c, 8, 57, 0
1, 31697, Note_on_c, 4, 57, 0
1, 31698, Note_on_c, 1, 45, 0
1, 31727, Note_on_c, 8, 62, 0
1, 31727, Note_on_c, 4, 62, 0
1, 31728, Note_on_c, 1, 50, 112
1, 31728, Note_on_c, 4, 55, 84
1, 31728, Note_on_c, 5, 67, 42
1, 31728, Note_on_c, 8, 55, 84
1, 31728, Note_on_c, 9, 35, 56
1, 31728, Note_on_c, 9, 46, 51
1, 31728, Note_on_c, 9, 51, 59
1, 31730, Note_on_c, 9, 51, 0
1, 31730, Note_on_c, 9, 35, 0
1, 31730, Note_on_c, 9, 46, 0
1, 31752, Note_on_c, 5, 67, 0
1, 31754, Note_on_c, 1, 50, 0
1, 31776, Note_on_c, 1, 53, 112
1, 31776, Note_on_c, 4, 62, 97
1, 31776, Note_on_c, 5, 67, 56
1, 31776, Note_on_c, 8, 62, 97
1, 31776, Note_on_c, 9, 40, 105
1, 31776, Note_on_c, 9, 46, 51
1, 31776, Note_on_c, 9, 51, 63
1, 31778, Note_on_c, 9, 51, 0
1, 31778, Note_on_c, 9, 46, 0
1, 31778, Note_on_c, 9, 40, 0
1, 31781, Pitch_bend_c, 1, 8832
1, 31784, Pitch_bend_c, 1, 9088
1, 31788, Pitch_bend_c, 1, 9344
1, 31792, Pitch_bend_c, 1, 9472
1, 31797, Pitch_bend_c, 1, 9600
1, 31801, Pitch_bend_c, 1, 9984
1, 31809, Pitch_bend_c, 1, 10112
1, 31813, Pitch_bend_c, 1, 10240
1, 31818, Pitch_bend_c, 1, 10368
1, 31823, Pitch_bend_c, 1, 10496
1, 31824, Note_on_c, 9, 46, 51
1, 31824, Note_on_c, 9, 51, 63
1, 31826, Note_on_c, 9, 51, 0
1, 31826, Note_on_c, 9, 46, 0
1, 31826, Pitch_bend_c, 1, 10624
1, 31829, Pitch_bend_c, 1, 11136
1, 31833, Pitch_bend_c, 1, 11520
1, 31844, Pitch_bend_c, 1, 11136
1, 31847, Note_on_c, 1, 53, 0
1, 31847, Pitch_bend_c, 1, 10368
1, 31848, Pitch_bend_c, 1, 8192
1, 31850, Pitch_bend_c, 1, 11904
1, 31853, Pitch_bend_c, 1, 8192
1, 31868, Note_on_c, 5, 60, 0
1, 31872, Note_on_c, 1, 57, 62
1, 31872, Pitch_bend_c, 1, 8330
1, 31872, Note_on_c, 4, 47, 88
1, 31872, Note_on_c, 5, 59, 68
1, 31872, Note_on_c, 8, 47, 88
1, 31872, Note_on_c, 9, 35, 75
1, 31872, Note_on_c, 9, 46, 51
1, 31874, Note_on_c, 9, 46, 0
1, 31874, Note_on_c, 9, 35, 0
1, 31877, Note_on_c, 8, 48, 0
1, 31877, Note_on_c, 4, 48, 0
1, 31878, Note_on_c, 5, 74, 0
1, 31889, Note_on_c, 4, 55, 0
1, 31889, Note_on_c, 8, 55, 0
1, 31896, Note_on_c, 9, 40, 105
1, 31896, Note_on_c, 9, 49, 58
1, 31897, Note_on_c, 1, 57, 0
1, 31897, Note_on_c, 5, 69, 0
1, 31898, Note_on_c, 9, 49, 0
1, 31898, Note_on_c, 9, 40, 0
1, 31920, Note_on_c, 1, 53, 88
1, 31920, Note_on_c, 4, 55, 80
1, 31920, Note_on_c, 5, 71, 84
1, 31920, Note_on_c, 8, 55, 80
1, 31920, Note_on_c, 9, 40, 105
1, 31920, Note_on_c, 9, 46, 51
1, 31920, Note_on_c, 9, 57, 59
1, 31922, Note_on_c, 9, 57, 0
1, 31922, Note_on_c, 9, 46, 0
1, 31922, Note_on_c, 9, 40, 0
1, 31928, Note_on_c, 4, 62, 0
1, 31928, Note_on_c, 8, 62, 0
1, 31944, Note_on_c, 5, 72, 92
1, 31945, Note_on_c, 5, 71, 0
1, 31957, Note_on_c, 5, 72, 0
1, 31959, Note_on_c, 1, 53, 0
1, 31968, Note_on_c, 1, 50, 88
1, 31968, Note_on_c, 4, 62, 88
1, 31968, Note_on_c, 5, 71, 84
1, 31968, Note_on_c, 5, 74, 80
1, 31968, Note_on_c, 8, 62, 88
1, 31968, Note_on_c, 9, 40, 105
1, 31968, Note_on_c, 9, 46, 51
1, 31968, Note_on_c, 9, 52, 76
1, 31970, Note_on_c, 9, 52, 0
1, 31970, Note_on_c, 9, 46, 0
1, 31970, Note_on_c, 9, 40, 0
1, 31992, Note_on_c, 9, 40, 90
1, 31994, Note_on_c, 9, 40, 0
1, 32011, Note_on_c, 1, 50, 0
1, 32016, Note_on_c, 1, 43, 72
1, 32016, Note_on_c, 9, 35, 35
1, 32016, Note_on_c, 9, 46, 51
1, 32018, Note_on_c, 9, 46, 0
1, 32018, Note_on_c, 9, 35, 0
1, 32037, Note_on_c, 5, 59, 0
1, 32043, Note_on_c, 5, 71, 0
1, 32051, Note_on_c, 5, 67, 0
1, 32064, Note_on_c, 1, 41, 86
1, 32064, Note_on_c, 4, 46, 80
1, 32064, Note_on_c, 4, 53, 97
1, 32064, Note_on_c, 4, 58, 97
1, 32064, Note_on_c, 4, 64, 66
1, 32064, Note_on_c, 4, 65, 72
1, 32064, Note_on_c, 5, 58, 58
1, 32064, Note_on_c, 5, 65, 64
1, 32064, Note_on_c, 5, 70, 84
1, 32064, Note_on_c, 8, 58, 97
1, 32064, Note_on_c, 8, 53, 97
1, 32064, Note_on_c, 8, 65, 72
1, 32064, Note_on_c, 8, 46, 80
1, 32064, Note_on_c, 9, 40, 105
1, 32064, Note_on_c, 9, 46, 51
1, 32066, Note_on_c, 9, 46, 0
1, 32066, Note_on_c, 9, 40, 0
1, 32067, Note_on_c, 4, 64, 0
1, 32068, Note_on_c, 8, 47, 0
1, 32068, Note_on_c, 4, 47, 0
1, 32070, Note_on_c, 8, 55, 0
1, 32070, Note_on_c, 4, 62, 0
1, 32070, Note_on_c, 4, 55, 0
1, 32070, Note_on_c, 8, 62, 0
1, 32073, Note_on_c, 1, 43, 0
1, 32112, Note_on_c, 1, 38, 92
1, 32112, Note_on_c, 3, 79, 111
1, 32112, Note_on_c, 9, 40, 90
1, 32112, Note_on_c, 9, 46, 51
1, 32114, Note_on_c, 9, 46, 0
1, 32114, Note_on_c, 9, 40, 0
1, 32116, Note_on_c, 1, 41, 0
1, 32121, Pitch_bend_c, 3, 8192
1, 32122, Pitch_bend_c, 3, 8452
1, 32123, Pitch_bend_c, 3, 8712
1, 32124, Pitch_bend_c, 3, 8972
1, 32125, Pitch_bend_c, 3, 9102
1, 32126, Pitch_bend_c, 3, 9362
1, 32127, Pitch_bend_c, 3, 9492
1, 32128, Pitch_bend_c, 3, 9752
1, 32129, Pitch_bend_c, 3, 10012
1, 32130, Pitch_bend_c, 3, 10272
1, 32131, Pitch_bend_c, 3, 10532
1, 32132, Pitch_bend_c, 3, 10662
1, 32133, Pitch_bend_c, 3, 10922
1, 32134, Pitch_bend_c, 3, 11312
1, 32135, Note_on_c, 8, 58, 0
1, 32135, Note_on_c, 8, 65, 0
1, 32135, Note_on_c, 8, 53, 0
1, 32135, Note_on_c, 8, 46, 0
1, 32135, Pitch_bend_c, 3, 11572
1, 32136, Pitch_bend_c, 3, 11832
1, 32136, Note_on_c, 9, 35, 44
1, 32137, Pitch_bend_c, 3, 12222
1, 32138, Note_on_c, 9, 35, 0
1, 32138, Pitch_bend_c, 3, 12612
1, 32139, Pitch_bend_c, 3, 12872
1, 32140, Pitch_bend_c, 3, 13262
1, 32141, Note_on_c, 5, 65, 0
1, 32141, Pitch_bend_c, 3, 13652
1, 32142, Pitch_bend_c, 3, 13912
1, 32143, Pitch_bend_c, 3, 14302
1, 32144, Pitch_bend_c, 3, 14692
1, 32145, Pitch_bend_c, 3, 14822
1, 32146, Pitch_bend_c, 3, 15082
1, 32147, Note_on_c, 3, 79, 0
1, 32147, Pitch_bend_c, 3, 15082
1, 32148, Note_on_c, 4, 58, 0
1, 32148, Pitch_bend_c, 3, 15212
1, 32150, Note_on_c, 4, 53, 0
1, 32152, Pitch_bend_c, 3, 14952
1, 32153, Pitch_bend_c, 3, 14822
1, 32154, Pitch_bend_c, 3, 14562
1, 32155, Pitch_bend_c, 3, 14172
1, 32156, Pitch_bend_c, 3, 13912
1, 32157, Pitch_bend_c, 3, 13392
1, 32158, Pitch_bend_c, 3, 12482
1, 32159, Pitch_bend_c, 3, 11052
1, 32160, Note_on_c, 1, 33, 96
1, 32160, Note_on_c, 3, 79, 106
1, 32160, Pitch_bend_c, 3, 8192
1, 32160, Note_on_c, 4, 48, 72
1, 32160, Note_on_c, 4, 55, 97
1, 32160, Note_on_c, 4, 60, 76
1, 32160, Note_on_c, 4, 67, 97
1, 32160, Note_on_c, 5, 60, 80
1, 32160, Note_on_c, 5, 67, 64
1, 32160, Note_on_c, 5, 72, 64
1, 32160, Note_on_c, 5, 76, 68
1, 32160, Note_on_c, 8, 67, 97
1, 32160, Note_on_c, 8, 60, 76
1, 32160, Note_on_c, 8, 55, 97
1, 32160, Note_on_c, 9, 40, 105
1, 32160, Note_on_c, 9, 57, 71
1, 32162, Note_on_c, 9, 57, 0
1, 32162, Note_on_c, 9, 40, 0
1, 32162, Note_on_c, 5, 70, 0
1, 32162, Note_on_c, 5, 74, 0
1, 32163, Note_on_c, 5, 58, 0
1, 32163, Note_on_c, 1, 38, 0
1, 32164, Note_on_c, 4, 46, 0
1, 32168, Note_on_c, 4, 65, 0
1, 32184, Note_on_c, 9, 35, 25
1, 32186, Note_on_c, 9, 35, 0
1, 32190, Note_on_c, 3, 79, 0
1, 32208, Note_on_c, 3, 79, 111
1, 32208, Note_on_c, 9, 40, 105
1, 32208, Note_on_c, 9, 46, 51
1, 32208, Note_on_c, 9, 49, 74
1, 32210, Note_on_c, 9, 49, 0
1, 32210, Note_on_c, 9, 46, 0
1, 32210, Note_on_c, 9, 40, 0
1, 32219, Control_c, 3, 1, 2
1, 32220, Control_c, 3, 1, 7
1, 32221, Control_c, 3, 1, 15
1, 32222, Control_c, 3, 1, 20
1, 32223, Control_c, 3, 1, 26
1, 32224, Control_c, 3, 1, 31
1, 32225, Control_c, 3, 1, 35
1, 32226, Control_c, 3, 1, 38
1, 32227, Control_c, 3, 1, 42
1, 32228, Control_c, 3, 1, 46
1, 32229, Control_c, 3, 1, 49
1, 32230, Control_c, 3, 1, 54
1, 32231, Control_c, 3, 1, 58
1, 32232, Control_c, 3, 1, 61
1, 32233, Control_c, 3, 1, 63
1, 32234, Control_c, 3, 1, 66
1, 32235, Control_c, 3, 1, 68
1, 32236, Control_c, 3, 1, 69
1, 32237, Control_c, 3, 1, 71
1, 32238, Control_c, 3, 1, 72
1, 32239, Control_c, 3, 1, 73
1, 32240, Note_on_c, 4, 55, 0
1, 32240, Note_on_c, 8, 55, 0
1, 32240, Control_c, 3, 1, 74
1, 32242, Control_c, 3, 1, 76
1, 32242, Control_c, 3, 1, 75
1, 32244, Control_c, 3, 1, 77
1, 32245, Control_c, 3, 1, 78
1, 32246, Note_on_c, 8, 67, 0
1, 32246, Note_on_c, 4, 48, 0
1, 32246, Note_on_c, 4, 67, 0
1, 32246, Control_c, 3, 1, 79
1, 32247, Control_c, 3, 1, 80
1, 32249, Control_c, 3, 1, 82
1, 32250, Control_c, 3, 1, 83
1, 32251, Note_on_c, 4, 60, 0
1, 32251, Note_on_c, 8, 60, 0
1, 32252, Control_c, 3, 1, 84
1, 32254, Note_on_c, 1, 33, 0
1, 32254, Control_c, 3, 1, 85
1, 32256, Note_on_c, 1, 26, 86
1, 32256, Note_on_c, 4, 50, 102
1, 32256, Note_on_c, 5, 62, 88
1, 32256, Note_on_c, 8, 50, 102
1, 32256, Note_on_c, 9, 35, 75
1, 32256, Note_on_c, 9, 46, 51
1, 32257, Control_c, 3, 1, 86
1, 32258, Note_on_c, 9, 46, 0
1, 32258, Note_on_c, 9, 35, 0
1, 32259, Note_on_c, 5, 76, 0
1, 32259, Note_on_c, 5, 60, 0
1, 32260, Note_on_c, 5, 72, 0
1, 32260, Note_on_c, 5, 67, 0
1, 32264, Control_c, 3, 1, 87
1, 32272, Control_c, 3, 1, 86
1, 32275, Control_c, 3, 1, 85
1, 32277, Control_c, 3, 1, 84
1, 32279, Control_c, 3, 1, 82
1, 32280, Control_c, 3, 1, 81
1, 32281, Control_c, 3, 1, 80
1, 32282, Control_c, 3, 1, 79
1, 32283, Control_c, 3, 1, 78
1, 32284, Control_c, 3, 1, 77
1, 32285, Control_c, 3, 1, 75
1, 32286, Control_c, 3, 1, 74
1, 32287, Control_c, 3, 1, 72
1, 32288, Control_c, 3, 1, 70
1, 32289, Control_c, 3, 1, 68
1, 32290, Control_c, 3, 1, 65
1, 32291, Note_on_c, 1, 26, 0
1, 32291, Control_c, 3, 1, 62
1, 32292, Control_c, 3, 1, 59
1, 32293, Control_c, 3, 1, 54
1, 32294, Control_c, 3, 1, 50
1, 32295, Control_c, 3, 1, 45
1, 32296, Control_c, 3, 1, 40
1, 32297, Control_c, 3, 1, 35
1, 32298, Control_c, 3, 1, 31
1, 32299, Control_c, 3, 1, 26
1, 32300, Control_c, 3, 1, 20
1, 32301, Control_c, 3, 1, 14
1, 32302, Note_on_c, 3, 79, 0
1, 32302, Control_c, 3, 1, 8
1, 32303, Control_c, 3, 1, 1
1, 32304, Note_on_c, 1, 26, 82
1, 32304, Note_on_c, 3, 74, 116
1, 32304, Note_on_c, 4, 57, 64
1, 32304, Note_on_c, 8, 57, 64
1, 32304, Note_on_c, 9, 35, 64
1, 32304, Note_on_c, 9, 46, 51
1, 32305, Control_c, 3, 1, 0
1, 32306, Note_on_c, 9, 46, 0
1, 32306, Note_on_c, 9, 35, 0
1, 32328, Note_on_c, 5, 69, 44
1, 32336, Control_c, 3, 1, 3
1, 32337, Control_c, 3, 1, 6
1, 32338, Control_c, 3, 1, 10
1, 32339, Control_c, 3, 1, 15
1, 32340, Control_c, 3, 1, 19
1, 32341, Control_c, 3, 1, 24
1, 32342, Control_c, 3, 1, 29
1, 32343, Control_c, 3, 1, 33
1, 32344, Control_c, 3, 1, 37
1, 32345, Control_c, 3, 1, 42
1, 32346, Control_c, 3, 1, 46
1, 32347, Control_c, 3, 1, 51
1, 32348, Control_c, 3, 1, 55
1, 32349, Control_c, 3, 1, 60
1, 32350, Control_c, 3, 1, 64
1, 32351, Note_on_c, 1, 26, 0
1, 32351, Control_c, 3, 1, 68
1, 32352, Note_on_c, 1, 38, 104
1, 32352, Control_c, 3, 1, 71
1, 32352, Note_on_c, 4, 62, 97
1, 32352, Note_on_c, 5, 74, 64
1, 32352, Note_on_c, 8, 62, 97
1, 32352, Note_on_c, 9, 40, 105
1, 32352, Note_on_c, 9, 46, 51
1, 32352, Note_on_c, 9, 49, 82
1, 32353, Control_c, 3, 1, 75
1, 32354, Note_on_c, 9, 49, 0
1, 32354, Note_on_c, 9, 46, 0
1, 32354, Note_on_c, 9, 40, 0
1, 32354, Control_c, 3, 1, 78
1, 32355, Control_c, 3, 1, 81
1, 32356, Control_c, 3, 1, 83
1, 32357, Control_c, 3, 1, 85
1, 32358, Control_c, 3, 1, 87
1, 32359, Control_c, 3, 1, 89
1, 32360, Control_c, 3, 1, 90
1, 32361, Control_c, 3, 1, 91
1, 32362, Control_c, 3, 1, 92
1, 32364, Control_c, 3, 1, 93
1, 32365, Control_c, 3, 1, 94
1, 32369, Control_c, 3, 1, 93
1, 32370, Control_c, 3, 1, 92
1, 32371, Control_c, 3, 1, 91
1, 32372, Control_c, 3, 1, 89
1, 32373, Note_on_c, 3, 74, 0
1, 32373, Control_c, 3, 1, 87
1, 32374, Control_c, 3, 1, 84
1, 32375, Control_c, 3, 1, 79
1, 32376, Control_c, 3, 1, 74
1, 32377, Control_c, 3, 1, 68
1, 32378, Control_c, 3, 1, 62
1, 32379, Control_c, 3, 1, 57
1, 32380, Control_c, 3, 1, 51
1, 32382, Control_c, 3, 1, 44
1, 32383, Control_c, 3, 1, 37
1, 32384, Control_c, 3, 1, 28
1, 32385, Control_c, 3, 1, 19
1, 32386, Control_c, 3, 1, 7
1, 32387, Control_c, 3, 1, 1
1, 32388, Control_c, 3, 1, 0
1, 32400, Note_on_c, 9, 46, 51
1, 32402, Note_on_c, 9, 46, 0
1, 32424, Note_on_c, 9, 40, 90
1, 32426, Note_on_c, 9, 40, 0
1, 32433, Note_on_c, 5, 62, 0
1, 32443, Note_on_c, 1, 38, 0
1, 32448, Note_on_c, 1, 28, 84
1, 32448, Note_on_c, 4, 48, 92
1, 32448, Note_on_c, 5, 67, 68
1, 32448, Note_on_c, 8, 48, 92
1, 32448, Note_on_c, 9, 35, 75
1, 32448, Note_on_c, 9, 46, 51
1, 32449, Note_on_c, 4, 50, 0
1, 32449, Note_on_c, 8, 50, 0
1, 32450, Note_on_c, 9, 35, 0
1, 32450, Note_on_c, 9, 46, 0
1, 32463, Note_on_c, 4, 62, 0
1, 32463, Note_on_c, 8, 62, 0
1, 32469, Note_on_c, 8, 57, 0
1, 32469, Note_on_c, 4, 57, 0
1, 32470, Note_on_c, 1, 28, 0
1, 32472, Note_on_c, 9, 52, 50
1, 32474, Note_on_c, 9, 52, 0
1, 32496, Note_on_c, 1, 28, 88
1, 32496, Note_on_c, 4, 55, 80
1, 32496, Note_on_c, 8, 55, 80
1, 32496, Note_on_c, 9, 35, 59
1, 32496, Note_on_c, 9, 46, 51
1, 32498, Note_on_c, 9, 46, 0
1, 32498, Note_on_c, 9, 35, 0
1, 32544, Note_on_c, 3, 72, 126
1, 32544, Note_on_c, 4, 62, 97
1, 32544, Note_on_c, 8, 62, 97
1, 32544, Note_on_c, 9, 40, 105
1, 32544, Note_on_c, 9, 46, 51
1, 32544, Note_on_c, 9, 49, 78
1, 32546, Note_on_c, 9, 49, 0
1, 32546, Note_on_c, 9, 46, 0
1, 32546, Note_on_c, 9, 40, 0
1, 32592, Note_on_c, 1, 30, 100
1, 32592, Note_on_c, 3, 71, 121
1, 32592, Note_on_c, 9, 46, 51
1, 32594, Note_on_c, 9, 46, 0
1, 32598, Note_on_c, 3, 72, 0
1, 32600, Note_on_c, 1, 28, 0
1, 32627, Note_on_c, 3, 71, 0
1, 32635, Note_on_c, 1, 30, 0
1, 32640, Note_on_c, 1, 31, 88
1, 32640, Note_on_c, 3, 69, 116
1, 32640, Note_on_c, 4, 47, 92
1, 32640, Note_on_c, 8, 47, 92
1, 32640, Note_on_c, 9, 35, 75
1, 32640, Note_on_c, 9, 46, 51
1, 32640, Note_on_c, 9, 51, 49
1, 32642, Note_on_c, 9, 51, 0
1, 32642, Note_on_c, 9, 46, 0
1, 32642, Note_on_c, 9, 35, 0
1, 32643, Note_on_c, 8, 48, 0
1, 32643, Note_on_c, 4, 48, 0
1, 32666, Note_on_c, 1, 31, 0
1, 32670, Note_on_c, 8, 55, 0
1, 32670, Note_on_c, 4, 55, 0
1, 32681, Note_on_c, 3, 69, 0
1, 32685, Note_on_c, 8, 62, 0
1, 32685, Note_on_c, 4, 62, 0
1, 32688, Note_on_c, 1, 31, 88
1, 32688, Note_on_c, 3, 67, 106
1, 32688, Note_on_c, 4, 55, 84
1, 32688, Note_on_c, 8, 55, 84
1, 32688, Note_on_c, 9, 35, 61
1, 32688, Note_on_c, 9, 46, 51
1, 32690, Note_on_c, 9, 46, 0
1, 32690, Note_on_c, 9, 35, 0
1, 32736, Note_on_c, 4, 62, 92
1, 32736, Note_on_c, 8, 62, 92
1, 32736, Note_on_c, 9, 40, 105
1, 32736, Note_on_c, 9, 46, 51
1, 32736, Note_on_c, 9, 51, 71
1, 32738, Note_on_c, 9, 51, 0
1, 32738, Note_on_c, 9, 46, 0
1, 32738, Note_on_c, 9, 40, 0
1, 32741, Note_on_c, 3, 67, 0
1, 32776, Note_on_c, 1, 31, 0
1, 32784, Note_on_c, 1, 33, 82
1, 32784, Note_on_c, 9, 46, 51
1, 32784, Note_on_c, 9, 51, 57
1, 32786, Note_on_c, 9, 51, 0
1, 32786, Note_on_c, 9, 46, 0
1, 32813, Note_on_c, 4, 55, 0
1, 32813, Note_on_c, 8, 55, 0
1, 32816, Note_on_c, 5, 69, 0
1, 32818, Note_on_c, 5, 67, 0
1, 32830, Note_on_c, 5, 74, 0
1, 32832, Note_on_c, 4, 62, 0
1, 32832, Note_on_c, 8, 62, 0
1, 32832, Note_on_c, 1, 34, 92
1, 32832, Note_on_c, 4, 46, 80
1, 32832, Note_on_c, 4, 53, 84
1, 32832, Note_on_c, 4, 58, 102
1, 32832, Note_on_c, 5, 58, 58
1, 32832, Note_on_c, 5, 65, 64
1, 32832, Note_on_c, 5, 70, 54
1, 32832, Note_on_c, 5, 74, 68
1, 32832, Note_on_c, 8, 58, 102
1, 32832, Note_on_c, 8, 53, 84
1, 32832, Note_on_c, 8, 46, 80
1, 32832, Note_on_c, 9, 35, 75
1, 32832, Note_on_c, 9, 46, 51
1, 32832, Note_on_c, 9, 49, 78
1, 32834, Note_on_c, 9, 49, 0
1, 32834, Note_on_c, 9, 46, 0
1, 32834, Note_on_c, 9, 35, 0
1, 32834, Note_on_c, 8, 47, 0
1, 32834, Note_on_c, 4, 47, 0
1, 32840, Note_on_c, 1, 33, 0
1, 32880, Note_on_c, 3, 65, 126
1, 32880, Note_on_c, 9, 35, 61
1, 32880, Note_on_c, 9, 46, 51
1, 32880, Note_on_c, 9, 51, 34
1, 32882, Note_on_c, 9, 51, 0
1, 32882, Note_on_c, 9, 46, 0
1, 32882, Note_on_c, 9, 35, 0
1, 32910, Note_on_c, 5, 65, 0
1, 32924, Note_on_c, 8, 58, 0
1, 32924, Note_on_c, 4, 58, 0
1, 32925, Note_on_c, 1, 34, 0
1, 32928, Note_on_c, 1, 36, 84
1, 32928, Note_on_c, 4, 48, 88
1, 32928, Note_on_c, 4, 55, 92
1, 32928, Note_on_c, 4, 60, 84
1, 32928, Note_on_c, 5, 67, 66
1, 32928, Note_on_c, 5, 72, 68
1, 32928, Note_on_c, 5, 76, 64
1, 32928, Note_on_c, 8, 60, 84
1, 32928, Note_on_c, 8, 55, 92
1, 32928, Note_on_c, 8, 48, 88
1, 32928, Note_on_c, 9, 40, 105
1, 32928, Note_on_c, 9, 46, 51
1, 32928, Note_on_c, 9, 49, 74
1, 32930, Note_on_c, 9, 49, 0
1, 32930, Note_on_c, 9, 46, 0
1, 32930, Note_on_c, 9, 40, 0
1, 32930, Note_on_c, 5, 58, 0
1, 32931, Note_on_c, 5, 74, 0
1, 32932, Note_on_c, 8, 53, 0
1, 32932, Note_on_c, 4, 53, 0
1, 32933, Note_on_c, 5, 70, 0
1, 32937, Note_on_c, 8, 46, 0
1, 32937, Note_on_c, 4, 46, 0
1, 32944, Note_on_c, 3, 65, 0
1, 32952, Note_on_c, 3, 67, 121
1, 32976, Note_on_c, 9, 46, 51
1, 32976, Note_on_c, 9, 51, 29
1, 32978, Note_on_c, 9, 51, 0
1, 32978, Note_on_c, 9, 46, 0
1, 32998, Note_on_c, 3, 67, 0
1, 32999, Note_on_c, 5, 72, 0
1, 32999, Note_on_c, 4, 48, 0
1, 32999, Note_on_c, 8, 48, 0
1, 32999, Note_on_c, 8, 60, 0
1, 32999, Note_on_c, 5, 76, 0
1, 32999, Note_on_c, 4, 55, 0
1, 32999, Note_on_c, 5, 67, 0
1, 32999, Note_on_c, 8, 55, 0
1, 32999, Note_on_c, 4, 60, 0
1, 33000, Note_on_c, 9, 40, 90
1, 33002, Note_on_c, 9, 40, 0
1, 33016, Note_on_c, 1, 36, 0
1, 33024, Note_on_c, 1, 38, 108
1, 33024, Note_on_c, 3, 65, 116
1, 33024, Note_on_c, 4, 50, 88
1, 33024, Note_on_c, 5, 62, 80
1, 33024, Note_on_c, 8, 50, 88
1, 33024, Note_on_c, 9, 35, 75
1, 33024, Note_on_c, 9, 46, 51
1, 33024, Note_on_c, 9, 57, 75
1, 33025, Pitch_bend_c, 3, 8322
1, 33026, Note_on_c, 9, 57, 0
1, 33026, Note_on_c, 9, 46, 0
1, 33026, Note_on_c, 9, 35, 0
1, 33026, Pitch_bend_c, 3, 8972
1, 33027, Pitch_bend_c, 3, 9492
1, 33028, Pitch_bend_c, 3, 9882
1, 33029, Pitch_bend_c, 3, 10402
1, 33030, Pitch_bend_c, 3, 11052
1, 33031, Pitch_bend_c, 3, 11572
1, 33032, Pitch_bend_c, 3, 12092
1, 33033, Pitch_bend_c, 3, 12612
1, 33034, Pitch_bend_c, 3, 13002
1, 33035, Pitch_bend_c, 3, 13392
1, 33036, Pitch_bend_c, 3, 13912
1, 33037, Pitch_bend_c, 3, 14432
1, 33038, Pitch_bend_c, 3, 14822
1, 33039, Pitch_bend_c, 3, 15212
1, 33040, Pitch_bend_c, 3, 15602
1, 33041, Pitch_bend_c, 3, 16122
1, 33042, Pitch_bend_c, 3, 16382
1, 33043, Note_on_c, 1, 38, 0
1, 33072, Note_on_c, 1, 38, 100
1, 33072, Note_on_c, 4, 57, 88
1, 33072, Note_on_c, 5, 69, 76
1, 33072, Note_on_c, 8, 57, 88
1, 33072, Note_on_c, 9, 35, 56
1, 33072, Note_on_c, 9, 46, 51
1, 33072, Note_on_c, 9, 51, 26
1, 33074, Note_on_c, 9, 51, 0
1, 33074, Note_on_c, 9, 46, 0
1, 33074, Note_on_c, 9, 35, 0
1, 33085, Pitch_bend_c, 3, 16122
1, 33086, Note_on_c, 3, 65, 0
1, 33086, Pitch_bend_c, 3, 14432
1, 33087, Pitch_bend_c, 3, 12092
1, 33088, Pitch_bend_c, 3, 8192
1, 33090, Pitch_bend_c, 3, 7936
1, 33091, Pitch_bend_c, 3, 8192
1, 33096, Note_on_c, 3, 62, 80
1, 33117, Note_on_c, 1, 38, 0
1, 33120, Note_on_c, 1, 62, 96
1, 33120, Note_on_c, 4, 62, 97
1, 33120, Note_on_c, 5, 74, 84
1, 33120, Note_on_c, 8, 62, 97
1, 33120, Note_on_c, 9, 40, 105
1, 33120, Note_on_c, 9, 46, 51
1, 33120, Note_on_c, 9, 51, 75
1, 33122, Note_on_c, 9, 51, 0
1, 33122, Note_on_c, 9, 46, 0
1, 33122, Note_on_c, 9, 40, 0
1, 33168, Note_on_c, 9, 46, 51
1, 33168, Note_on_c, 9, 51, 26
1, 33170, Note_on_c, 9, 51, 0
1, 33170, Note_on_c, 9, 46, 0
1, 33179, Note_on_c, 1, 62, 0
1, 33199, Note_on_c, 5, 62, 0
1, 33214, Note_on_c, 8, 50, 0
1, 33214, Note_on_c, 4, 50, 0
1, 33216, Note_on_c, 1, 60, 92
1, 33216, Note_on_c, 4, 48, 92
1, 33216, Note_on_c, 5, 60, 84
1, 33216, Note_on_c, 8, 48, 92
1, 33216, Note_on_c, 9, 35, 75
1, 33216, Note_on_c, 9, 46, 51
1, 33216, Note_on_c, 9, 51, 49
1, 33218, Note_on_c, 9, 51, 0
1, 33218, Note_on_c, 9, 46, 0
1, 33218, Note_on_c, 9, 35, 0
1, 33224, Note_on_c, 5, 69, 0
1, 33233, Note_on_c, 8, 57, 0
1, 33233, Note_on_c, 4, 57, 0
1, 33239, Note_on_c, 3, 62, 0
1, 33264, Note_on_c, 1, 57, 82
1, 33264, Note_on_c, 4, 55, 80
1, 33264, Note_on_c, 5, 69, 44
1, 33264, Note_on_c, 8, 55, 80
1, 33264, Note_on_c, 9, 35, 56
1, 33264, Note_on_c, 9, 46, 51
1, 33264, Note_on_c, 9, 51, 63
1, 33265, Note_on_c, 8, 62, 0
1, 33265, Note_on_c, 4, 62, 0
1, 33266, Note_on_c, 1, 60, 0
1, 33266, Note_on_c, 5, 74, 0
1, 33266, Note_on_c, 9, 46, 0
1, 33266, Note_on_c, 9, 35, 0
1, 33266, Note_on_c, 9, 51, 0
1, 33284, Note_on_c, 1, 57, 0
1, 33288, Note_on_c, 1, 55, 86
1, 33306, Note_on_c, 1, 55, 0
1, 33312, Note_on_c, 1, 53, 82
1, 33312, Note_on_c, 4, 62, 92
1, 33312, Note_on_c, 5, 74, 84
1, 33312, Note_on_c, 8, 62, 92
1, 33312, Note_on_c, 9, 40, 105
1, 33312, Note_on_c, 9, 46, 51
1, 33312, Note_on_c, 9, 51, 71
1, 33314, Note_on_c, 9, 51, 0
1, 33314, Note_on_c, 9, 46, 0
1, 33314, Note_on_c, 9, 40, 0
1, 33360, Note_on_c, 1, 56, 88
1, 33360, Note_on_c, 9, 46, 51
1, 33360, Note_on_c, 9, 51, 63
1, 33362, Note_on_c, 9, 51, 0
1, 33362, Note_on_c, 9, 46, 0
1, 33363, Note_on_c, 1, 53, 0
1, 33384, Note_on_c, 1, 55, 76
1, 33389, Note_on_c, 1, 56, 0
1, 33404, Note_on_c, 1, 55, 0
1, 33405, Note_on_c, 8, 48, 0
1, 33405, Note_on_c, 4, 48, 0
1, 33406, Note_on_c, 5, 60, 0
1, 33408, Note_on_c, 1, 53, 88
1, 33408, Note_on_c, 4, 47, 84
1, 33408, Note_on_c, 5, 59, 72
1, 33408, Note_on_c, 8, 47, 84
1, 33408, Note_on_c, 9, 35, 75
1, 33408, Note_on_c, 9, 46, 51
1, 33408, Note_on_c, 9, 51, 75
1, 33410, Note_on_c, 9, 51, 0
1, 33410, Note_on_c, 9, 46, 0
1, 33410, Note_on_c, 9, 35, 0
1, 33418, Note_on_c, 4, 55, 0
1, 33418, Note_on_c, 8, 55, 0
1, 33420, Note_on_c, 5, 69, 0
1, 33428, Note_on_c, 1, 53, 0
1, 33432, Note_on_c, 1, 50, 100
1, 33450, Note_on_c, 1, 50, 0
1, 33456, Note_on_c, 1, 48, 76
1, 33456, Note_on_c, 4, 55, 84
1, 33456, Note_on_c, 5, 67, 58
1, 33456, Note_on_c, 8, 55, 84
1, 33456, Note_on_c, 9, 35, 54
1, 33456, Note_on_c, 9, 46, 51
1, 33456, Note_on_c, 9, 51, 57
1, 33457, Note_on_c, 5, 74, 0
1, 33458, Note_on_c, 9, 35, 0
1, 33458, Note_on_c, 9, 51, 0
1, 33458, Note_on_c, 9, 46, 0
1, 33459, Note_on_c, 4, 62, 0
1, 33459, Note_on_c, 8, 62, 0
1, 33477, Note_on_c, 1, 48, 0
1, 33504, Note_on_c, 1, 53, 104
1, 33504, Note_on_c, 4, 62, 88
1, 33504, Note_on_c, 5, 74, 84
1, 33504, Note_on_c, 8, 62, 88
1, 33504, Note_on_c, 9, 40, 105
1, 33504, Note_on_c, 9, 46, 51
1, 33504, Note_on_c, 9, 51, 79
1, 33506, Note_on_c, 9, 51, 0
1, 33506, Note_on_c, 9, 46, 0
1, 33506, Note_on_c, 9, 40, 0
1, 33546, Note_on_c, 1, 53, 0
1, 33552, Note_on_c, 1, 50, 74
1, 33552, Note_on_c, 9, 46, 51
1, 33552, Note_on_c, 9, 51, 63
1, 33554, Note_on_c, 9, 51, 0
1, 33554, Note_on_c, 9, 46, 0
1, 33573, Note_on_c, 1, 50, 0
1, 33576, Note_on_c, 1, 48, 76
1, 33576, Note_on_c, 9, 35, 51
1, 33578, Note_on_c, 9, 35, 0
1, 33584, Note_on_c, 1, 48, 0
1, 33589, Note_on_c, 5, 59, 0
1, 33591, Note_on_c, 8, 55, 0
1, 33591, Note_on_c, 4, 55, 0
1, 33597, Note_on_c, 4, 62, 0
1, 33597, Note_on_c, 8, 62, 0
1, 33598, Note_on_c, 5, 67, 0
1, 33600, Note_on_c, 1, 44, 117
1, 33600, Note_on_c, 4, 46, 84
1, 33600, Note_on_c, 4, 53, 76
1, 33600, Note_on_c, 4, 58, 92
1, 33600, Note_on_c, 5, 58, 72
1, 33600, Note_on_c, 5, 65, 64
1, 33600, Note_on_c, 5, 70, 48
1, 33600, Note_on_c, 8, 58, 92
1, 33600, Note_on_c, 8, 53, 76
1, 33600, Note_on_c, 8, 46, 84
1, 33600, Note_on_c, 9, 40, 105
1, 33600, Note_on_c, 9, 46, 51
1, 33600, Note_on_c, 9, 51, 71
1, 33601, Note_on_c, 8, 47, 0
1, 33601, Note_on_c, 4, 47, 0
1, 33602, Note_on_c, 9, 51, 0
1, 33602, Note_on_c, 9, 46, 0
1, 33602, Note_on_c, 9, 40, 0
1, 33619, Note_on_c, 1, 44, 0
1, 33624, Note_on_c, 1, 43, 92
1, 33640, Note_on_c, 1, 43, 0
1, 33648, Note_on_c, 1, 41, 76
1, 33648, Note_on_c, 3, 72, 116
1, 33648, Note_on_c, 9, 35, 54
1, 33648, Note_on_c, 9, 46, 51
1, 33648, Note_on_c, 9, 51, 75
1, 33650, Note_on_c, 9, 51, 0
1, 33650, Note_on_c, 9, 46, 0
1, 33650, Note_on_c, 9, 35, 0
1, 33675, Note_on_c, 5, 65, 0
1, 33684, Note_on_c, 8, 58, 0
1, 33684, Note_on_c, 4, 58, 0
1, 33685, Note_on_c, 1, 41, 0
1, 33690, Note_on_c, 5, 74, 0
1, 33692, Note_on_c, 4, 53, 0
1, 33692, Note_on_c, 8, 53, 0
1, 33696, Note_on_c, 5, 70, 0
1, 33696, Note_on_c, 1, 38, 86
1, 33696, Note_on_c, 3, 74, 121
1, 33696, Note_on_c, 4, 48, 76
1, 33696, Note_on_c, 4, 55, 88
1, 33696, Note_on_c, 4, 60, 92
1, 33696, Note_on_c, 5, 60, 80
1, 33696, Note_on_c, 5, 67, 62
1, 33696, Note_on_c, 5, 72, 68
1, 33696, Note_on_c, 5, 76, 88
1, 33696, Note_on_c, 8, 55, 88
1, 33696, Note_on_c, 8, 48, 76
1, 33696, Note_on_c, 8, 60, 92
1, 33696, Note_on_c, 9, 40, 105
1, 33696, Note_on_c, 9, 46, 51
1, 33696, Note_on_c, 9, 51, 67
1, 33698, Note_on_c, 9, 51, 0
1, 33698, Note_on_c, 9, 46, 0
1, 33698, Note_on_c, 9, 40, 0
1, 33700, Note_on_c, 3, 72, 0
1, 33701, Note_on_c, 4, 46, 0
1, 33701, Note_on_c, 8, 46, 0
1, 33701, Note_on_c, 5, 58, 0
1, 33720, Note_on_c, 9, 35, 41
1, 33722, Note_on_c, 9, 35, 0
1, 33734, Note_on_c, 3, 74, 0
1, 33740, Pitch_bend_c, 1, 7680
1, 33744, Pitch_bend_c, 1, 7168
1, 33744, Note_on_c, 3, 77, 116
1, 33744, Note_on_c, 9, 35, 51
1, 33744, Note_on_c, 9, 46, 51
1, 33744, Note_on_c, 9, 51, 75
1, 33746, Note_on_c, 9, 51, 0
1, 33746, Note_on_c, 9, 46, 0
1, 33746, Note_on_c, 9, 35, 0
1, 33747, Pitch_bend_c, 1, 6656
1, 33751, Pitch_bend_c, 1, 6272
1, 33754, Pitch_bend_c, 1, 5120
1, 33757, Control_c, 3, 1, 1
1, 33758, Control_c, 3, 1, 4
1, 33759, Control_c, 3, 1, 9
1, 33760, Control_c, 3, 1, 15
1, 33761, Control_c, 3, 1, 20
1, 33762, Pitch_bend_c, 1, 4352
1, 33762, Control_c, 3, 1, 26
1, 33763, Control_c, 3, 1, 32
1, 33764, Control_c, 3, 1, 38
1, 33765, Pitch_bend_c, 1, 3200
1, 33765, Control_c, 3, 1, 42
1, 33766, Control_c, 3, 1, 46
1, 33767, Control_c, 3, 1, 50
1, 33768, Control_c, 3, 1, 54
1, 33769, Pitch_bend_c, 1, 2304
1, 33769, Control_c, 3, 1, 56
1, 33770, Control_c, 3, 1, 57
1, 33771, Control_c, 3, 1, 58
1, 33772, Pitch_bend_c, 1, 1152
1, 33773, Control_c, 3, 1, 59
1, 33775, Pitch_bend_c, 1, 0
1, 33776, Control_c, 3, 1, 58
1, 33777, Control_c, 3, 1, 57
1, 33778, Control_c, 3, 1, 55
1, 33779, Control_c, 3, 1, 52
1, 33780, Control_c, 3, 1, 48
1, 33781, Control_c, 3, 1, 44
1, 33782, Control_c, 3, 1, 40
1, 33783, Control_c, 3, 1, 34
1, 33784, Control_c, 3, 1, 29
1, 33785, Control_c, 3, 1, 22
1, 33786, Control_c, 3, 1, 16
1, 33787, Control_c, 3, 1, 9
1, 33788, Control_c, 3, 1, 2
1, 33789, Note_on_c, 1, 38, 0
1, 33789, Pitch_bend_c, 1, 3328
1, 33789, Control_c, 3, 1, 0
1, 33790, Note_on_c, 5, 60, 0
1, 33791, Pitch_bend_c, 1, 8192
1, 33792, Note_on_c, 3, 77, 0
1, 33792, Note_on_c, 1, 26, 84
1, 33792, Note_on_c, 3, 74, 116
1, 33792, Note_on_c, 4, 50, 97
1, 33792, Note_on_c, 5, 62, 68
1, 33792, Note_on_c, 8, 50, 97
1, 33792, Note_on_c, 9, 35, 75
1, 33792, Note_on_c, 9, 46, 51
1, 33792, Note_on_c, 9, 49, 36
1, 33793, Pitch_bend_c, 1, 9232
1, 33794, Note_on_c, 9, 49, 0
1, 33794, Note_on_c, 9, 46, 0
1, 33794, Note_on_c, 9, 35, 0
1, 33795, Pitch_bend_c, 1, 8192
1, 33797, Note_on_c, 5, 76, 0
1, 33800, Note_on_c, 5, 72, 0
1, 33802, Note_on_c, 4, 60, 0
1, 33802, Note_on_c, 8, 60, 0
1, 33802, Note_on_c, 4, 48, 0
1, 33802, Note_on_c, 8, 48, 0
1, 33804, Note_on_c, 5, 67, 0
1, 33806, Note_on_c, 4, 55, 0
1, 33806, Note_on_c, 8, 55, 0
1, 33816, Note_on_c, 3, 77, 121
1, 33820, Note_on_c, 3, 74, 0
1, 33831, Control_c, 3, 1, 2
1, 33832, Control_c, 3, 1, 5
1, 33833, Control_c, 3, 1, 7
1, 33834, Control_c, 3, 1, 10
1, 33835, Control_c, 3, 1, 11
1, 33836, Control_c, 3, 1, 13
1, 33837, Control_c, 3, 1, 15
1, 33838, Control_c, 3, 1, 16
1, 33839, Control_c, 3, 1, 18
1, 33840, Control_c, 3, 1, 20
1, 33840, Control_c, 3, 1, 19
1, 33840, Note_on_c, 4, 57, 72
1, 33840, Note_on_c, 5, 69, 60
1, 33840, Note_on_c, 8, 57, 72
1, 33840, Note_on_c, 9, 35, 64
1, 33840, Note_on_c, 9, 46, 51
1, 33840, Note_on_c, 9, 51, 71
1, 33842, Note_on_c, 9, 51, 0
1, 33842, Note_on_c, 9, 46, 0
1, 33842, Note_on_c, 9, 35, 0
1, 33842, Control_c, 3, 1, 21
1, 33843, Control_c, 3, 1, 23
1, 33844, Control_c, 3, 1, 25
1, 33845, Control_c, 3, 1, 27
1, 33846, Control_c, 3, 1, 29
1, 33847, Control_c, 3, 1, 32
1, 33848, Control_c, 3, 1, 35
1, 33849, Control_c, 3, 1, 38
1, 33850, Control_c, 3, 1, 42
1, 33851, Control_c, 3, 1, 45
1, 33852, Control_c, 3, 1, 47
1, 33853, Control_c, 3, 1, 50
1, 33854, Control_c, 3, 1, 52
1, 33855, Control_c, 3, 1, 55
1, 33856, Control_c, 3, 1, 56
1, 33857, Control_c, 3, 1, 58
1, 33858, Control_c, 3, 1, 60
1, 33859, Control_c, 3, 1, 62
1, 33860, Control_c, 3, 1, 63
1, 33861, Control_c, 3, 1, 66
1, 33862, Control_c, 3, 1, 68
1, 33863, Control_c, 3, 1, 70
1, 33864, Control_c, 3, 1, 72
1, 33865, Control_c, 3, 1, 74
1, 33866, Control_c, 3, 1, 76
1, 33868, Note_on_c, 3, 77, 0
1, 33868, Control_c, 3, 1, 77
1, 33870, Control_c, 3, 1, 75
1, 33871, Control_c, 3, 1, 73
1, 33872, Control_c, 3, 1, 69
1, 33873, Control_c, 3, 1, 66
1, 33874, Control_c, 3, 1, 60
1, 33875, Control_c, 3, 1, 54
1, 33876, Control_c, 3, 1, 47
1, 33877, Control_c, 3, 1, 39
1, 33878, Control_c, 3, 1, 28
1, 33879, Control_c, 3, 1, 16
1, 33880, Control_c, 3, 1, 5
1, 33881, Control_c, 3, 1, 0
1, 33888, Note_on_c, 4, 62, 92
1, 33888, Note_on_c, 5, 74, 84
1, 33888, Note_on_c, 8, 62, 92
1, 33888, Note_on_c, 9, 40, 105
1, 33888, Note_on_c, 9, 46, 51
1, 33888, Note_on_c, 9, 49, 42
1, 33890, Note_on_c, 9, 49, 0
1, 33890, Note_on_c, 9, 46, 0
1, 33890, Note_on_c, 9, 40, 0
1, 33910, Note_on_c, 1, 26, 0
1, 33936, Note_on_c, 1, 38, 104
1, 33936, Note_on_c, 9, 46, 51
1, 33936, Note_on_c, 9, 51, 71
1, 33938, Note_on_c, 9, 51, 0
1, 33938, Note_on_c, 9, 46, 0
1, 33960, Note_on_c, 9, 40, 90
1, 33962, Note_on_c, 9, 40, 0
1, 33978, Note_on_c, 5, 62, 0
1, 33979, Note_on_c, 1, 38, 0
1, 33984, Note_on_c, 1, 28, 100
1, 33984, Note_on_c, 4, 48, 88
1, 33984, Note_on_c, 8, 48, 88
1, 33984, Note_on_c, 9, 35, 75
1, 33984, Note_on_c, 9, 46, 51
1, 33984, Note_on_c, 9, 51, 55
1, 33985, Note_on_c, 4, 50, 0
1, 33985, Note_on_c, 8, 50, 0
1, 33986, Note_on_c, 9, 51, 0
1, 33986, Note_on_c, 9, 35, 0
1, 33986, Note_on_c, 9, 46, 0
1, 33989, Note_on_c, 8, 57, 0
1, 33989, Note_on_c, 4, 57, 0
1, 34027, Note_on_c, 8, 62, 0
1, 34027, Note_on_c, 4, 62, 0
1, 34032, Note_on_c, 3, 72, 116
1, 34032, Note_on_c, 4, 55, 84
1, 34032, Note_on_c, 5, 60, 46
1, 34032, Note_on_c, 5, 67, 52
1, 34032, Note_on_c, 8, 55, 84
1, 34032, Note_on_c, 9, 35, 59
1, 34032, Note_on_c, 9, 46, 51
1, 34032, Note_on_c, 9, 51, 67
1, 34034, Note_on_c, 9, 51, 0
1, 34034, Note_on_c, 9, 46, 0
1, 34034, Note_on_c, 9, 35, 0
1, 34041, Note_on_c, 1, 28, 0
1, 34056, Note_on_c, 5, 69, 0
1, 34056, Note_on_c, 1, 29, 96
1, 34059, Note_on_c, 5, 74, 0
1, 34078, Note_on_c, 3, 72, 0
1, 34080, Note_on_c, 3, 71, 111
1, 34080, Note_on_c, 4, 62, 97
1, 34080, Note_on_c, 5, 69, 76
1, 34080, Note_on_c, 5, 74, 84
1, 34080, Note_on_c, 8, 62, 97
1, 34080, Note_on_c, 9, 40, 105
1, 34080, Note_on_c, 9, 46, 51
1, 34080, Note_on_c, 9, 57, 61
1, 34082, Note_on_c, 9, 57, 0
1, 34082, Note_on_c, 9, 46, 0
1, 34082, Note_on_c, 9, 40, 0
1, 34116, Note_on_c, 1, 29, 0
1, 34128, Note_on_c, 1, 30, 96
1, 34128, Note_on_c, 9, 46, 51
1, 34128, Note_on_c, 9, 51, 39
1, 34130, Note_on_c, 9, 51, 0
1, 34130, Note_on_c, 9, 46, 0
1, 34132, Note_on_c, 3, 71, 0
1, 34152, Note_on_c, 3, 69, 121
1, 34164, Note_on_c, 5, 60, 0
1, 34171, Note_on_c, 1, 30, 0
1, 34176, Note_on_c, 1, 31, 100
1, 34176, Note_on_c, 4, 47, 88
1, 34176, Note_on_c, 8, 47, 88
1, 34176, Note_on_c, 9, 35, 75
1, 34176, Note_on_c, 9, 46, 51
1, 34176, Note_on_c, 9, 51, 71
1, 34178, Note_on_c, 9, 51, 0
1, 34178, Note_on_c, 9, 46, 0
1, 34178, Note_on_c, 9, 35, 0
1, 34181, Note_on_c, 8, 48, 0
1, 34181, Note_on_c, 4, 48, 0
1, 34186, Note_on_c, 8, 55, 0
1, 34186, Note_on_c, 4, 55, 0
1, 34208, Note_on_c, 5, 67, 0
1, 34219, Note_on_c, 8, 62, 0
1, 34219, Note_on_c, 4, 62, 0
1, 34224, Note_on_c, 3, 67, 106
1, 34224, Note_on_c, 4, 55, 84
1, 34224, Note_on_c, 5, 67, 46
1, 34224, Note_on_c, 8, 55, 84
1, 34224, Note_on_c, 9, 35, 61
1, 34224, Note_on_c, 9, 46, 51
1, 34224, Note_on_c, 9, 51, 63
1, 34225, Note_on_c, 3, 69, 0
1, 34226, Note_on_c, 9, 35, 0
1, 34226, Note_on_c, 9, 51, 0
1, 34226, Note_on_c, 9, 46, 0
1, 34240, Note_on_c, 1, 31, 0
1, 34253, Note_on_c, 5, 69, 0
1, 34258, Note_on_c, 5, 74, 0
1, 34272, Note_on_c, 1, 33, 100
1, 34272, Note_on_c, 4, 62, 102
1, 34272, Note_on_c, 5, 69, 72
1, 34272, Note_on_c, 5, 74, 76
1, 34272, Note_on_c, 8, 62, 102
1, 34272, Note_on_c, 9, 40, 105
1, 34272, Note_on_c, 9, 46, 51
1, 34272, Note_on_c, 9, 51, 67
1, 34274, Note_on_c, 9, 51, 0
1, 34274, Note_on_c, 9, 46, 0
1, 34274, Note_on_c, 9, 40, 0
1, 34282, Control_c, 3, 1, 3
1, 34283, Control_c, 3, 1, 5
1, 34284, Control_c, 3, 1, 9
1, 34285, Control_c, 3, 1, 13
1, 34286, Control_c, 3, 1, 16
1, 34287, Control_c, 3, 1, 19
1, 34288, Control_c, 3, 1, 22
1, 34289, Control_c, 3, 1, 26
1, 34290, Control_c, 3, 1, 29
1, 34291, Control_c, 3, 1, 31
1, 34292, Control_c, 3, 1, 34
1, 34293, Control_c, 3, 1, 36
1, 34294, Control_c, 3, 1, 38
1, 34295, Control_c, 3, 1, 40
1, 34296, Control_c, 3, 1, 43
1, 34297, Control_c, 3, 1, 45
1, 34298, Note_on_c, 3, 67, 0
1, 34298, Control_c, 3, 1, 47
1, 34299, Control_c, 3, 1, 49
1, 34300, Control_c, 3, 1, 50
1, 34301, Control_c, 3, 1, 53
1, 34302, Control_c, 3, 1, 55
1, 34303, Control_c, 3, 1, 56
1, 34304, Control_c, 3, 1, 57
1, 34306, Control_c, 3, 1, 59
1, 34308, Control_c, 3, 1, 60
1, 34309, Control_c, 3, 1, 61
1, 34311, Control_c, 3, 1, 63
1, 34314, Control_c, 3, 1, 64
1, 34315, Control_c, 3, 1, 65
1, 34316, Control_c, 3, 1, 66
1, 34318, Control_c, 3, 1, 67
1, 34320, Note_on_c, 9, 46, 51
1, 34320, Note_on_c, 9, 51, 63
1, 34322, Note_on_c, 9, 51, 0
1, 34322, Note_on_c, 9, 46, 0
1, 34322, Control_c, 3, 1, 68
1, 34332, Control_c, 3, 1, 67
1, 34334, Control_c, 3, 1, 65
1, 34335, Control_c, 3, 1, 64
1, 34336, Control_c, 3, 1, 63
1, 34337, Control_c, 3, 1, 61
1, 34338, Control_c, 3, 1, 59
1, 34339, Control_c, 3, 1, 57
1, 34340, Control_c, 3, 1, 54
1, 34341, Control_c, 3, 1, 51
1, 34342, Control_c, 3, 1, 48
1, 34343, Control_c, 3, 1, 45
1, 34344, Note_on_c, 5, 69, 0
1, 34344, Control_c, 3, 1, 41
1, 34345, Control_c, 3, 1, 37
1, 34346, Control_c, 3, 1, 33
1, 34347, Control_c, 3, 1, 28
1, 34348, Control_c, 3, 1, 22
1, 34349, Control_c, 3, 1, 17
1, 34350, Control_c, 3, 1, 11
1, 34351, Control_c, 3, 1, 5
1, 34352, Control_c, 3, 1, 0
1, 34358, Note_on_c, 4, 55, 0
1, 34358, Note_on_c, 8, 55, 0
1, 34360, Note_on_c, 1, 33, 0
1, 34368, Note_on_c, 1, 34, 82
1, 34368, Note_on_c, 4, 46, 80
1, 34368, Note_on_c, 4, 53, 76
1, 34368, Note_on_c, 4, 58, 97
1, 34368, Note_on_c, 5, 70, 64
1, 34368, Note_on_c, 5, 77, 84
1, 34368, Note_on_c, 8, 58, 97
1, 34368, Note_on_c, 8, 53, 76
1, 34368, Note_on_c, 8, 46, 80
1, 34368, Note_on_c, 9, 35, 75
1, 34368, Note_on_c, 9, 46, 51
1, 34368, Note_on_c, 9, 52, 66
1, 34369, Note_on_c, 4, 62, 0
1, 34369, Note_on_c, 8, 62, 0
1, 34370, Note_on_c, 9, 52, 0
1, 34370, Note_on_c, 9, 35, 0
1, 34370, Note_on_c, 9, 46, 0
1, 34372, Note_on_c, 4, 47, 0
1, 34372, Note_on_c, 8, 47, 0
1, 34375, Note_on_c, 5, 67, 0
1, 34416, Note_on_c, 1, 38, 96
1, 34416, Note_on_c, 3, 65, 126
1, 34416, Note_on_c, 9, 35, 61
1, 34416, Note_on_c, 9, 46, 51
1, 34416, Note_on_c, 9, 51, 51
1, 34418, Note_on_c, 9, 51, 0
1, 34418, Note_on_c, 9, 46, 0
1, 34418, Note_on_c, 9, 35, 0
1, 34420, Note_on_c, 1, 34, 0
1, 34444, Note_on_c, 5, 77, 0
1, 34451, Note_on_c, 5, 70, 0
1, 34459, Note_on_c, 4, 58, 0
1, 34459, Note_on_c, 8, 58, 0
1, 34464, Note_on_c, 1, 36, 86
1, 34464, Note_on_c, 4, 48, 84
1, 34464, Note_on_c, 4, 55, 84
1, 34464, Note_on_c, 4, 60, 80
1, 34464, Note_on_c, 5, 72, 66
1, 34464, Note_on_c, 5, 76, 72
1, 34464, Note_on_c, 5, 79, 68
1, 34464, Note_on_c, 8, 60, 80
1, 34464, Note_on_c, 8, 55, 84
1, 34464, Note_on_c, 8, 48, 84
1, 34464, Note_on_c, 9, 40, 105
1, 34464, Note_on_c, 9, 46, 51
1, 34464, Note_on_c, 9, 52, 66
1, 34466, Note_on_c, 9, 52, 0
1, 34466, Note_on_c, 9, 46, 0
1, 34466, Note_on_c, 9, 40, 0
1, 34467, Note_on_c, 8, 46, 0
1, 34467, Note_on_c, 4, 46, 0
1, 34467, Note_on_c, 4, 53, 0
1, 34467, Note_on_c, 8, 53, 0
1, 34470, Note_on_c, 5, 74, 0
1, 34474, Note_on_c, 1, 38, 0
1, 34479, Note_on_c, 3, 65, 0
1, 34488, Note_on_c, 3, 64, 116
1, 34512, Note_on_c, 9, 46, 51
1, 34512, Note_on_c, 9, 51, 39
1, 34514, Note_on_c, 9, 51, 0
1, 34514, Note_on_c, 9, 46, 0
1, 34536, Note_on_c, 9, 40, 90
1, 34538, Note_on_c, 9, 40, 0
1, 34551, Note_on_c, 1, 36, 0
1, 34554, Note_on_c, 3, 64, 0
1, 34557, Pitch_bend_c, 3, 8192
1, 34558, Pitch_bend_c, 3, 8842
1, 34559, Pitch_bend_c, 3, 9362
1, 34560, Note_on_c, 1, 38, 86
1, 34560, Note_on_c, 3, 62, 106
1, 34560, Pitch_bend_c, 3, 9882
1, 34560, Note_on_c, 4, 50, 92
1, 34560, Note_on_c, 5, 62, 84
1, 34560, Note_on_c, 8, 50, 92
1, 34560, Note_on_c, 9, 35, 75
1, 34560, Note_on_c, 9, 46, 51
1, 34560, Note_on_c, 9, 49, 34
1, 34561, Pitch_bend_c, 3, 10272
1, 34562, Note_on_c, 9, 49, 0
1, 34562, Note_on_c, 9, 46, 0
1, 34562, Note_on_c, 9, 35, 0
1, 34562, Pitch_bend_c, 3, 10922
1, 34563, Pitch_bend_c, 3, 11442
1, 34564, Note_on_c, 5, 79, 0
1, 34564, Note_on_c, 4, 60, 0
1, 34564, Note_on_c, 8, 60, 0
1, 34565, Note_on_c, 4, 55, 0
1, 34565, Note_on_c, 8, 55, 0
1, 34565, Pitch_bend_c, 3, 12352
1, 34565, Pitch_bend_c, 3, 11832
1, 34566, Pitch_bend_c, 3, 12742
1, 34567, Note_on_c, 8, 48, 0
1, 34567, Note_on_c, 4, 48, 0
1, 34568, Pitch_bend_c, 3, 13262
1, 34569, Pitch_bend_c, 3, 13782
1, 34570, Pitch_bend_c, 3, 14432
1, 34571, Pitch_bend_c, 3, 15082
1, 34572, Pitch_bend_c, 3, 15862
1, 34573, Pitch_bend_c, 3, 16382
1, 34608, Note_on_c, 1, 55, 74
1, 34608, Note_on_c, 4, 57, 84
1, 34608, Note_on_c, 5, 69, 64
1, 34608, Note_on_c, 8, 57, 84
1, 34608, Note_on_c, 9, 35, 56
1, 34608, Note_on_c, 9, 46, 51
1, 34608, Note_on_c, 9, 51, 35
1, 34610, Note_on_c, 9, 51, 0
1, 34610, Note_on_c, 9, 46, 0
1, 34610, Note_on_c, 9, 35, 0
1, 34615, Pitch_bend_c, 3, 16122
1, 34616, Pitch_bend_c, 3, 15212
1, 34617, Pitch_bend_c, 3, 13522
1, 34618, Pitch_bend_c, 3, 11312
1, 34619, Pitch_bend_c, 3, 8192
1, 34621, Pitch_bend_c, 3, 8064
1, 34622, Pitch_bend_c, 3, 8192
1, 34656, Note_on_c, 1, 55, 0
1, 34656, Note_on_c, 1, 54, 78
1, 34656, Note_on_c, 4, 62, 92
1, 34656, Note_on_c, 5, 74, 84
1, 34656, Note_on_c, 8, 62, 92
1, 34656, Note_on_c, 9, 40, 105
1, 34656, Note_on_c, 9, 46, 51
1, 34656, Note_on_c, 9, 57, 67
1, 34658, Note_on_c, 9, 57, 0
1, 34658, Note_on_c, 9, 46, 0
1, 34658, Note_on_c, 9, 40, 0
1, 34660, Note_on_c, 5, 76, 0
1, 34662, Control_c, 3, 1, 1
1, 34663, Control_c, 3, 1, 4
1, 34664, Control_c, 3, 1, 6
1, 34665, Control_c, 3, 1, 9
1, 34666, Note_on_c, 5, 72, 0
1, 34666, Control_c, 3, 1, 12
1, 34667, Control_c, 3, 1, 15
1, 34668, Control_c, 3, 1, 18
1, 34669, Control_c, 3, 1, 21
1, 34670, Control_c, 3, 1, 25
1, 34671, Control_c, 3, 1, 28
1, 34672, Control_c, 3, 1, 31
1, 34673, Control_c, 3, 1, 35
1, 34674, Control_c, 3, 1, 39
1, 34675, Control_c, 3, 1, 42
1, 34676, Control_c, 3, 1, 45
1, 34677, Control_c, 3, 1, 48
1, 34678, Note_on_c, 1, 38, 0
1, 34678, Control_c, 3, 1, 50
1, 34679, Control_c, 3, 1, 52
1, 34680, Control_c, 3, 1, 54
1, 34681, Control_c, 3, 1, 56
1, 34682, Control_c, 3, 1, 57
1, 34683, Control_c, 3, 1, 58
1, 34684, Control_c, 3, 1, 59
1, 34686, Control_c, 3, 1, 61
1, 34687, Control_c, 3, 1, 62
1, 34689, Control_c, 3, 1, 64
1, 34690, Control_c, 3, 1, 66
1, 34691, Control_c, 3, 1, 67
1, 34692, Control_c, 3, 1, 68
1, 34693, Control_c, 3, 1, 69
1, 34694, Control_c, 3, 1, 71
1, 34695, Control_c, 3, 1, 72
1, 34696, Control_c, 3, 1, 74
1, 34697, Control_c, 3, 1, 75
1, 34698, Control_c, 3, 1, 76
1, 34700, Control_c, 3, 1, 77
1, 34701, Control_c, 3, 1, 78
1, 34702, Control_c, 3, 1, 79
1, 34703, Control_c, 3, 1, 80
1, 34704, Note_on_c, 1, 38, 88
1, 34704, Note_on_c, 9, 46, 51
1, 34704, Note_on_c, 9, 51, 41
1, 34705, Control_c, 3, 1, 81
1, 34706, Note_on_c, 9, 51, 0
1, 34706, Note_on_c, 9, 46, 0
1, 34706, Control_c, 3, 1, 82
1, 34708, Control_c, 3, 1, 84
1, 34710, Control_c, 3, 1, 85
1, 34712, Control_c, 3, 1, 86
1, 34714, Control_c, 3, 1, 87
1, 34715, Control_c, 3, 1, 88
1, 34726, Note_on_c, 1, 54, 0
1, 34728, Note_on_c, 9, 40, 90
1, 34730, Note_on_c, 9, 40, 0
1, 34736, Note_on_c, 8, 50, 0
1, 34736, Note_on_c, 4, 50, 0
1, 34743, Note_on_c, 5, 62, 0
1, 34748, Control_c, 3, 1, 87
1, 34750, Note_on_c, 1, 38, 0
1, 34752, Note_on_c, 1, 36, 88
1, 34752, Note_on_c, 4, 48, 92
1, 34752, Note_on_c, 5, 60, 66
1, 34752, Note_on_c, 8, 48, 92
1, 34752, Note_on_c, 9, 35, 75
1, 34752, Note_on_c, 9, 46, 51
1, 34752, Note_on_c, 9, 51, 34
1, 34753, Control_c, 3, 1, 86
1, 34754, Note_on_c, 9, 51, 0
1, 34754, Note_on_c, 9, 46, 0
1, 34754, Note_on_c, 9, 35, 0
1, 34757, Control_c, 3, 1, 85
1, 34760, Control_c, 3, 1, 84
1, 34763, Control_c, 3, 1, 83
1, 34765, Control_c, 3, 1, 82
1, 34768, Control_c, 3, 1, 81
1, 34771, Control_c, 3, 1, 80
1, 34773, Control_c, 3, 1, 79
1, 34774, Note_on_c, 4, 57, 0
1, 34774, Note_on_c, 8, 57, 0
1, 34785, Note_on_c, 5, 69, 0
1, 34787, Control_c, 3, 1, 80
1, 34794, Note_on_c, 8, 62, 0
1, 34794, Note_on_c, 4, 62, 0
1, 34800, Note_on_c, 1, 53, 104
1, 34800, Note_on_c, 4, 55, 88
1, 34800, Note_on_c, 5, 67, 31
1, 34800, Note_on_c, 8, 55, 88
1, 34800, Note_on_c, 9, 35, 56
1, 34800, Note_on_c, 9, 46, 51
1, 34800, Note_on_c, 9, 51, 57
1, 34802, Note_on_c, 9, 51, 0
1, 34802, Note_on_c, 9, 46, 0
1, 34802, Note_on_c, 9, 35, 0
1, 34804, Control_c, 3, 1, 81
1, 34810, Note_on_c, 5, 67, 0
1, 34812, Control_c, 3, 1, 80
1, 34814, Control_c, 3, 1, 78
1, 34815, Control_c, 3, 1, 77
1, 34816, Control_c, 3, 1, 76
1, 34817, Control_c, 3, 1, 74
1, 34818, Control_c, 3, 1, 72
1, 34819, Control_c, 3, 1, 70
1, 34820, Control_c, 3, 1, 68
1, 34821, Control_c, 3, 1, 65
1, 34822, Note_on_c, 3, 62, 0
1, 34822, Control_c, 3, 1, 62
1, 34823, Control_c, 3, 1, 59
1, 34824, Control_c, 3, 1, 57
1, 34825, Control_c, 3, 1, 53
1, 34826, Control_c, 3, 1, 49
1, 34827, Control_c, 3, 1, 46
1, 34828, Control_c, 3, 1, 42
1, 34829, Control_c, 3, 1, 39
1, 34830, Control_c, 3, 1, 35
1, 34831, Control_c, 3, 1, 31
1, 34832, Control_c, 3, 1, 26
1, 34833, Control_c, 3, 1, 20
1, 34834, Control_c, 3, 1, 14
1, 34835, Control_c, 3, 1, 8
1, 34836, Control_c, 3, 1, 2
1, 34837, Control_c, 3, 1, 0
1, 34847, Note_on_c, 1, 53, 0
1, 34848, Note_on_c, 1, 52, 84
1, 34848, Note_on_c, 4, 62, 92
1, 34848, Note_on_c, 5, 69, 76
1, 34848, Note_on_c, 8, 62, 92
1, 34848, Note_on_c, 9, 40, 105
1, 34848, Note_on_c, 9, 46, 51
1, 34848, Note_on_c, 9, 51, 47
1, 34850, Note_on_c, 9, 51, 0
1, 34850, Note_on_c, 9, 46, 0
1, 34850, Note_on_c, 9, 40, 0
1, 34870, Note_on_c, 1, 36, 0
1, 34896, Note_on_c, 1, 36, 84
1, 34896, Note_on_c, 9, 46, 51
1, 34896, Note_on_c, 9, 51, 57
1, 34898, Note_on_c, 9, 51, 0
1, 34898, Note_on_c, 9, 46, 0
1, 34918, Note_on_c, 1, 52, 0
1, 34937, Note_on_c, 1, 36, 0
1, 34942, Note_on_c, 8, 48, 0
1, 34942, Note_on_c, 4, 48, 0
1, 34943, Note_on_c, 5, 60, 0
1, 34944, Note_on_c, 1, 35, 86
1, 34944, Note_on_c, 5, 59, 68
1, 34944, Note_on_c, 5, 67, 46
1, 34944, Note_on_c, 9, 35, 75
1, 34944, Note_on_c, 9, 49, 17
1, 34946, Note_on_c, 9, 49, 0
1, 34946, Note_on_c, 9, 35, 0
1, 34968, Note_on_c, 9, 40, 90
1, 34970, Note_on_c, 9, 40, 0
1, 34980, Note_on_c, 9, 40, 67
1, 34982, Note_on_c, 9, 40, 0
1, 34992, Note_on_c, 1, 52, 86
1, 34992, Note_on_c, 9, 40, 109
1, 34994, Note_on_c, 9, 40, 0
1, 35016, Note_on_c, 9, 35, 75
1, 35016, Note_on_c, 9, 46, 51
1, 35018, Note_on_c, 9, 46, 0
1, 35018, Note_on_c, 9, 35, 0
1, 35036, Note_on_c, 1, 52, 0
1, 35040, Note_on_c, 1, 50, 100
1, 35040, Note_on_c, 9, 42, 49
1, 35042, Note_on_c, 9, 42, 0
1, 35049, Note_on_c, 1, 35, 0
1, 35064, Note_on_c, 9, 35, 75
1, 35064, Note_on_c, 9, 46, 51
1, 35066, Note_on_c, 9, 46, 0
1, 35066, Note_on_c, 9, 35, 0
1, 35088, Note_on_c, 1, 35, 88
1, 35088, Note_on_c, 9, 42, 50
1, 35090, Note_on_c, 9, 42, 0
1, 35110, Note_on_c, 1, 50, 0
1, 35111, Note_on_c, 5, 67, 0
1, 35112, Note_on_c, 9, 35, 75
1, 35112, Note_on_c, 9, 46, 51
1, 35114, Note_on_c, 9, 46, 0
1, 35114, Note_on_c, 9, 35, 0
1, 35123, Note_on_c, 5, 69, 0
1, 35130, Note_on_c, 4, 55, 0
1, 35130, Note_on_c, 8, 55, 0
1, 35131, Note_on_c, 1, 35, 0
1, 35136, Note_on_c, 1, 34, 108
1, 35136, Note_on_c, 4, 53, 76
1, 35136, Note_on_c, 4, 58, 80
1, 35136, Note_on_c, 5, 58, 68
1, 35136, Note_on_c, 5, 65, 76
1, 35136, Note_on_c, 5, 70, 58
1, 35136, Note_on_c, 5, 77, 76
1, 35136, Note_on_c, 8, 53, 76
1, 35136, Note_on_c, 8, 58, 80
1, 35136, Note_on_c, 9, 42, 52
1, 35138, Note_on_c, 9, 42, 0
1, 35141, Note_on_c, 5, 59, 0
1, 35160, Note_on_c, 9, 40, 105
1, 35162, Note_on_c, 9, 40, 0
1, 35184, Note_on_c, 9, 40, 105
1, 35186, Note_on_c, 9, 40, 0
1, 35205, Note_on_c, 1, 34, 0
1, 35208, Note_on_c, 9, 35, 75
1, 35210, Note_on_c, 9, 35, 0
1, 35232, Note_on_c, 1, 34, 100
1, 35232, Note_on_c, 9, 48, 75
1, 35234, Note_on_c, 9, 48, 0
1, 35256, Note_on_c, 9, 47, 75
1, 35258, Note_on_c, 9, 47, 0
1, 35268, Note_on_c, 3, 74, 84
1, 35280, Note_on_c, 3, 76, 106
1, 35280, Note_on_c, 9, 45, 75
1, 35282, Note_on_c, 9, 45, 0
1, 35284, Note_on_c, 3, 74, 0
1, 35296, Note_on_c, 5, 65, 0
1, 35297, Note_on_c, 5, 77, 0
1, 35300, Note_on_c, 5, 70, 0
1, 35301, Note_on_c, 4, 53, 0
1, 35301, Note_on_c, 8, 53, 0
1, 35304, Note_on_c, 9, 43, 75
1, 35306, Note_on_c, 9, 43, 0
1, 35327, Note_on_c, 1, 34, 0
1, 35328, Note_on_c, 5, 58, 0
1, 35328, Note_on_c, 1, 36, 92
1, 35328, Note_on_c, 4, 55, 64
1, 35328, Note_on_c, 4, 60, 64
1, 35328, Note_on_c, 4, 64, 64
1, 35328, Note_on_c, 5, 67, 54
1, 35328, Note_on_c, 5, 72, 62
1, 35328, Note_on_c, 5, 76, 72
1, 35328, Note_on_c, 5, 79, 46
1, 35328, Note_on_c, 8, 60, 64
1, 35328, Note_on_c, 8, 64, 64
1, 35328, Note_on_c, 8, 55, 64
1, 35328, Note_on_c, 9, 35, 75
1, 35328, Note_on_c, 9, 49, 32
1, 35330, Note_on_c, 9, 49, 0
1, 35330, Note_on_c, 9, 35, 0
1, 35331, Note_on_c, 4, 58, 0
1, 35331, Note_on_c, 8, 58, 0
1, 35332, Note_on_c, 4, 62, 0
1, 35332, Note_on_c, 8, 62, 0
1, 35333, Note_on_c, 5, 74, 0
1, 35348, Control_c, 3, 1, 2
1, 35349, Control_c, 3, 1, 3
1, 35350, Control_c, 3, 1, 4
1, 35351, Control_c, 3, 1, 6
1, 35352, Control_c, 3, 1, 8
1, 35353, Control_c, 3, 1, 10
1, 35354, Control_c, 3, 1, 11
1, 35355, Control_c, 3, 1, 13
1, 35356, Control_c, 3, 1, 15
1, 35357, Control_c, 3, 1, 17
1, 35358, Control_c, 3, 1, 19
1, 35359, Control_c, 3, 1, 20
1, 35360, Control_c, 3, 1, 21
1, 35361, Control_c, 3, 1, 23
1, 35362, Control_c, 3, 1, 24
1, 35363, Control_c, 3, 1, 26
1, 35365, Control_c, 3, 1, 27
1, 35367, Control_c, 3, 1, 29
1, 35369, Control_c, 3, 1, 30
1, 35372, Control_c, 3, 1, 31
1, 35375, Control_c, 3, 1, 32
1, 35376, Note_on_c, 9, 35, 56
1, 35376, Note_on_c, 9, 51, 63
1, 35377, Control_c, 3, 1, 33
1, 35378, Note_on_c, 9, 51, 0
1, 35378, Note_on_c, 9, 35, 0
1, 35378, Control_c, 3, 1, 34
1, 35380, Control_c, 3, 1, 35
1, 35381, Control_c, 3, 1, 36
1, 35382, Control_c, 3, 1, 37
1, 35383, Control_c, 3, 1, 38
1, 35384, Control_c, 3, 1, 39
1, 35385, Control_c, 3, 1, 40
1, 35387, Control_c, 3, 1, 41
1, 35388, Control_c, 3, 1, 42
1, 35389, Control_c, 3, 1, 43
1, 35391, Control_c, 3, 1, 44
1, 35394, Control_c, 3, 1, 45
1, 35398, Control_c, 3, 1, 46
1, 35400, Note_on_c, 9, 51, 39
1, 35402, Note_on_c, 9, 51, 0
1, 35403, Control_c, 3, 1, 47
1, 35409, Control_c, 3, 1, 48
1, 35412, Control_c, 3, 1, 49
1, 35417, Control_c, 3, 1, 50
1, 35419, Note_on_c, 1, 36, 0
1, 35422, Control_c, 3, 1, 51
1, 35424, Note_on_c, 1, 43, 82
1, 35424, Note_on_c, 9, 40, 105
1, 35424, Note_on_c, 9, 51, 59
1, 35425, Control_c, 3, 1, 52
1, 35426, Note_on_c, 9, 51, 0
1, 35426, Note_on_c, 9, 40, 0
1, 35429, Control_c, 3, 1, 53
1, 35431, Control_c, 3, 1, 54
1, 35433, Control_c, 3, 1, 55
1, 35436, Control_c, 3, 1, 56
1, 35441, Control_c, 3, 1, 57
1, 35447, Control_c, 3, 1, 58
1, 35453, Control_c, 3, 1, 59
1, 35466, Note_on_c, 1, 43, 0
1, 35472, Note_on_c, 1, 48, 86
1, 35472, Note_on_c, 9, 35, 75
1, 35472, Note_on_c, 9, 51, 59
1, 35474, Note_on_c, 9, 51, 0
1, 35474, Note_on_c, 9, 35, 0
1, 35496, Note_on_c, 9, 51, 53
1, 35498, Note_on_c, 9, 51, 0
1, 35515, Control_c, 3, 1, 58
1, 35520, Note_on_c, 9, 51, 67
1, 35522, Note_on_c, 9, 51, 0
1, 35525, Control_c, 3, 1, 57
1, 35530, Control_c, 3, 1, 56
1, 35532, Control_c, 3, 1, 55
1, 35533, Control_c, 3, 1, 54
1, 35534, Control_c, 3, 1, 53
1, 35536, Control_c, 3, 1, 52
1, 35537, Control_c, 3, 1, 51
1, 35538, Control_c, 3, 1, 50
1, 35539, Control_c, 3, 1, 49
1, 35540, Control_c, 3, 1, 48
1, 35541, Control_c, 3, 1, 46
1, 35542, Control_c, 3, 1, 45
1, 35543, Control_c, 3, 1, 42
1, 35544, Control_c, 3, 1, 40
1, 35545, Control_c, 3, 1, 37
1, 35546, Control_c, 3, 1, 35
1, 35547, Control_c, 3, 1, 32
1, 35548, Control_c, 3, 1, 29
1, 35549, Control_c, 3, 1, 26
1, 35550, Control_c, 3, 1, 22
1, 35551, Control_c, 3, 1, 19
1, 35552, Control_c, 3, 1, 17
1, 35553, Control_c, 3, 1, 13
1, 35554, Control_c, 3, 1, 10
1, 35555, Note_on_c, 3, 76, 0
1, 35555, Control_c, 3, 1, 7
1, 35556, Control_c, 3, 1, 4
1, 35557, Control_c, 3, 1, 1
1, 35558, Control_c, 3, 1, 0
1, 35568, Note_on_c, 1, 47, 80
1, 35568, Note_on_c, 3, 77, 102
1, 35568, Note_on_c, 9, 35, 50
1, 35568, Note_on_c, 9, 51, 61
1, 35570, Note_on_c, 9, 51, 0
1, 35570, Note_on_c, 9, 35, 0
1, 35572, Note_on_c, 1, 48, 0
1, 35592, Note_on_c, 9, 51, 57
1, 35594, Note_on_c, 9, 51, 0
1, 35616, Note_on_c, 9, 40, 105
1, 35616, Note_on_c, 9, 51, 59
1, 35618, Note_on_c, 9, 51, 0
1, 35618, Note_on_c, 9, 40, 0
1, 35639, Note_on_c, 3, 77, 0
1, 35640, Note_on_c, 1, 45, 86
1, 35640, Note_on_c, 3, 79, 72
1, 35642, Note_on_c, 1, 47, 0
1, 35664, Note_on_c, 9, 51, 67
1, 35666, Note_on_c, 9, 51, 0
1, 35688, Note_on_c, 9, 35, 44
1, 35688, Note_on_c, 9, 51, 37
1, 35689, Note_on_c, 4, 60, 0
1, 35689, Note_on_c, 8, 60, 0
1, 35690, Note_on_c, 9, 35, 0
1, 35690, Note_on_c, 9, 51, 0
1, 35701, Note_on_c, 8, 64, 0
1, 35701, Note_on_c, 4, 64, 0
1, 35706, Note_on_c, 8, 55, 0
1, 35706, Note_on_c, 4, 55, 0
1, 35710, Note_on_c, 1, 45, 0
1, 35711, Note_on_c, 5, 76, 0
1, 35712, Note_on_c, 1, 43, 80
1, 35712, Note_on_c, 5, 74, 48
1, 35712, Note_on_c, 9, 35, 75
1, 35712, Note_on_c, 9, 51, 59
1, 35714, Note_on_c, 9, 51, 0
1, 35714, Note_on_c, 9, 35, 0
1, 35714, Note_on_c, 5, 72, 0
1, 35760, Note_on_c, 3, 74, 78
1, 35760, Note_on_c, 4, 59, 88
1, 35760, Note_on_c, 8, 59, 88
1, 35760, Note_on_c, 9, 35, 44
1, 35760, Note_on_c, 9, 51, 71
1, 35762, Note_on_c, 9, 51, 0
1, 35762, Note_on_c, 9, 35, 0
1, 35764, Note_on_c, 3, 79, 0
1, 35784, Note_on_c, 9, 51, 29
1, 35786, Note_on_c, 9, 51, 0
1, 35798, Control_c, 3, 1, 4
1, 35798, Control_c, 3, 1, 2
1, 35799, Control_c, 3, 1, 6
1, 35801, Control_c, 3, 1, 9
1, 35802, Control_c, 3, 1, 12
1, 35803, Control_c, 3, 1, 14
1, 35804, Control_c, 3, 1, 17
1, 35805, Control_c, 3, 1, 20
1, 35806, Note_on_c, 8, 59, 0
1, 35806, Note_on_c, 4, 59, 0
1, 35806, Control_c, 3, 1, 22
1, 35807, Control_c, 3, 1, 25
1, 35808, Control_c, 3, 1, 26
1, 35808, Note_on_c, 4, 62, 72
1, 35808, Note_on_c, 8, 62, 72
1, 35808, Note_on_c, 9, 40, 105
1, 35808, Note_on_c, 9, 51, 63
1, 35809, Control_c, 3, 1, 28
1, 35810, Note_on_c, 9, 51, 0
1, 35810, Note_on_c, 9, 40, 0
1, 35810, Control_c, 3, 1, 29
1, 35811, Control_c, 3, 1, 30
1, 35812, Control_c, 3, 1, 31
1, 35813, Control_c, 3, 1, 32
1, 35814, Control_c, 3, 1, 33
1, 35816, Control_c, 3, 1, 34
1, 35818, Control_c, 3, 1, 35
1, 35821, Control_c, 3, 1, 36
1, 35823, Control_c, 3, 1, 37
1, 35824, Control_c, 3, 1, 38
1, 35826, Control_c, 3, 1, 39
1, 35828, Control_c, 3, 1, 40
1, 35830, Control_c, 3, 1, 41
1, 35832, Control_c, 3, 1, 42
1, 35834, Control_c, 3, 1, 43
1, 35837, Control_c, 3, 1, 44
1, 35841, Control_c, 3, 1, 45
1, 35844, Control_c, 3, 1, 46
1, 35847, Control_c, 3, 1, 47
1, 35850, Control_c, 3, 1, 48
1, 35853, Control_c, 3, 1, 49
1, 35855, Control_c, 3, 1, 50
1, 35856, Note_on_c, 1, 40, 86
1, 35856, Note_on_c, 4, 55, 68
1, 35856, Note_on_c, 8, 55, 68
1, 35856, Note_on_c, 9, 35, 67
1, 35856, Note_on_c, 9, 51, 71
1, 35857, Note_on_c, 8, 62, 0
1, 35857, Note_on_c, 4, 62, 0
1, 35857, Note_on_c, 1, 43, 0
1, 35857, Control_c, 3, 1, 52
1, 35858, Note_on_c, 9, 35, 0
1, 35858, Note_on_c, 9, 51, 0
1, 35859, Control_c, 3, 1, 53
1, 35861, Control_c, 3, 1, 54
1, 35864, Control_c, 3, 1, 55
1, 35873, Control_c, 3, 1, 56
1, 35880, Note_on_c, 9, 51, 61
1, 35882, Note_on_c, 9, 51, 0
1, 35902, Control_c, 3, 1, 55
1, 35903, Control_c, 3, 1, 54
1, 35904, Note_on_c, 5, 59, 54
1, 35904, Note_on_c, 9, 51, 53
1, 35905, Control_c, 3, 1, 52
1, 35906, Note_on_c, 9, 51, 0
1, 35906, Control_c, 3, 1, 51
1, 35907, Control_c, 3, 1, 50
1, 35909, Control_c, 3, 1, 49
1, 35910, Control_c, 3, 1, 48
1, 35912, Control_c, 3, 1, 47
1, 35913, Control_c, 3, 1, 46
1, 35914, Control_c, 3, 1, 45
1, 35915, Control_c, 3, 1, 43
1, 35916, Control_c, 3, 1, 42
1, 35917, Control_c, 3, 1, 40
1, 35918, Control_c, 3, 1, 39
1, 35919, Control_c, 3, 1, 37
1, 35920, Control_c, 3, 1, 35
1, 35921, Control_c, 3, 1, 33
1, 35922, Control_c, 3, 1, 31
1, 35923, Control_c, 3, 1, 28
1, 35924, Control_c, 3, 1, 26
1, 35925, Control_c, 3, 1, 22
1, 35926, Control_c, 3, 1, 19
1, 35927, Control_c, 3, 1, 16
1, 35928, Control_c, 3, 1, 11
1, 35929, Control_c, 3, 1, 7
1, 35930, Control_c, 3, 1, 3
1, 35931, Control_c, 3, 1, 0
1, 35933, Note_on_c, 3, 74, 0
1, 35941, Note_on_c, 1, 40, 0
1, 35952, Note_on_c, 1, 38, 82
1, 35952, Note_on_c, 3, 74, 116
1, 35952, Note_on_c, 9, 35, 44
1, 35952, Note_on_c, 9, 51, 71
1, 35954, Note_on_c, 9, 51, 0
1, 35954, Note_on_c, 9, 35, 0
1, 35976, Note_on_c, 9, 51, 57
1, 35978, Note_on_c, 9, 51, 0
1, 36000, Note_on_c, 9, 40, 105
1, 36000, Note_on_c, 9, 51, 63
1, 36002, Note_on_c, 9, 51, 0
1, 36002, Note_on_c, 9, 40, 0
1, 36018, Note_on_c, 3, 74, 0
1, 36024, Note_on_c, 1, 36, 84
1, 36024, Note_on_c, 3, 76, 111
1, 36032, Note_on_c, 1, 38, 0
1, 36048, Note_on_c, 9, 51, 71
1, 36050, Note_on_c, 9, 51, 0
1, 36072, Note_on_c, 9, 35, 35
1, 36072, Note_on_c, 9, 51, 49
1, 36073, Note_on_c, 4, 55, 0
1, 36073, Note_on_c, 8, 55, 0
1, 36074, Note_on_c, 9, 51, 0
1, 36074, Note_on_c, 9, 35, 0
1, 36077, Note_on_c, 5, 79, 0
1, 36091, Note_on_c, 3, 76, 0
1, 36091, Note_on_c, 5, 67, 0
1, 36093, Note_on_c, 5, 59, 0
1, 36096, Note_on_c, 1, 34, 74
1, 36096, Note_on_c, 3, 77, 106
1, 36096, Note_on_c, 5, 70, 72
1, 36096, Note_on_c, 5, 77, 62
1, 36096, Note_on_c, 9, 35, 75
1, 36096, Note_on_c, 9, 51, 67
1, 36097, Note_on_c, 1, 36, 0
1, 36098, Note_on_c, 9, 51, 0
1, 36098, Note_on_c, 9, 35, 0
1, 36144, Note_on_c, 4, 53, 80
1, 36144, Note_on_c, 8, 53, 80
1, 36144, Note_on_c, 9, 35, 50
1, 36144, Note_on_c, 9, 51, 79
1, 36146, Note_on_c, 9, 51, 0
1, 36146, Note_on_c, 9, 35, 0
1, 36168, Note_on_c, 9, 51, 47
1, 36170, Note_on_c, 9, 51, 0
1, 36187, Note_on_c, 1, 34, 0
1, 36192, Note_on_c, 4, 58, 68
1, 36192, Note_on_c, 8, 58, 68
1, 36192, Note_on_c, 9, 40, 105
1, 36192, Note_on_c, 9, 51, 59
1, 36194, Note_on_c, 9, 51, 0
1, 36194, Note_on_c, 9, 40, 0
1, 36240, Note_on_c, 1, 45, 88
1, 36240, Note_on_c, 4, 62, 72
1, 36240, Note_on_c, 8, 62, 72
1, 36240, Note_on_c, 9, 35, 56
1, 36240, Note_on_c, 9, 51, 67
1, 36242, Note_on_c, 9, 51, 0
1, 36242, Note_on_c, 9, 35, 0
1, 36264, Note_on_c, 9, 51, 51
1, 36266, Note_on_c, 9, 51, 0
1, 36288, Note_on_c, 1, 45, 0
1, 36288, Note_on_c, 9, 51, 57
1, 36290, Note_on_c, 9, 51, 0
1, 36336, Note_on_c, 1, 43, 84
1, 36336, Note_on_c, 3, 79, 86
1, 36336, Note_on_c, 9, 35, 39
1, 36336, Note_on_c, 9, 51, 61
1, 36338, Note_on_c, 9, 51, 0
1, 36338, Note_on_c, 9, 35, 0
1, 36339, Note_on_c, 3, 77, 0
1, 36360, Note_on_c, 9, 51, 49
1, 36362, Note_on_c, 9, 51, 0
1, 36380, Note_on_c, 1, 43, 0
1, 36384, Note_on_c, 1, 46, 84
1, 36384, Note_on_c, 9, 40, 105
1, 36384, Note_on_c, 9, 51, 55
1, 36386, Note_on_c, 9, 51, 0
1, 36386, Note_on_c, 9, 40, 0
1, 36405, Note_on_c, 3, 79, 0
1, 36408, Note_on_c, 3, 77, 98
1, 36432, Note_on_c, 9, 51, 63
1, 36434, Note_on_c, 9, 51, 0
1, 36454, Note_on_c, 4, 62, 0
1, 36454, Note_on_c, 8, 62, 0
1, 36456, Note_on_c, 9, 35, 33
1, 36456, Note_on_c, 9, 51, 53
1, 36457, Note_on_c, 5, 70, 0
1, 36458, Note_on_c, 9, 51, 0
1, 36458, Note_on_c, 9, 35, 0
1, 36467, Note_on_c, 1, 46, 0
1, 36474, Note_on_c, 8, 58, 0
1, 36474, Note_on_c, 4, 58, 0
1, 36478, Note_on_c, 3, 77, 0
1, 36480, Note_on_c, 1, 37, 96
1, 36480, Note_on_c, 3, 76, 86
1, 36480, Note_on_c, 5, 67, 58
1, 36480, Note_on_c, 5, 69, 44
1, 36480, Note_on_c, 5, 73, 54
1, 36480, Note_on_c, 5, 76, 64
1, 36480, Note_on_c, 9, 35, 75
1, 36480, Note_on_c, 9, 51, 57
1, 36482, Note_on_c, 9, 51, 0
1, 36482, Note_on_c, 9, 35, 0
1, 36484, Note_on_c, 4, 53, 0
1, 36484, Note_on_c, 8, 53, 0
1, 36486, Note_on_c, 5, 77, 0
1, 36489, Note_on_c, 5, 74, 0
1, 36528, Note_on_c, 4, 52, 72
1, 36528, Note_on_c, 8, 52, 72
1, 36528, Note_on_c, 9, 35, 54
1, 36528, Note_on_c, 9, 51, 59
1, 36530, Note_on_c, 9, 51, 0
1, 36530, Note_on_c, 9, 35, 0
1, 36552, Note_on_c, 3, 74, 94
1, 36552, Note_on_c, 9, 35, 48
1, 36552, Note_on_c, 9, 51, 53
1, 36554, Note_on_c, 9, 51, 0
1, 36554, Note_on_c, 9, 35, 0
1, 36557, Note_on_c, 3, 76, 0
1, 36576, Note_on_c, 3, 73, 82
1, 36576, Note_on_c, 4, 57, 72
1, 36576, Note_on_c, 8, 57, 72
1, 36576, Note_on_c, 9, 40, 105
1, 36576, Note_on_c, 9, 51, 53
1, 36578, Note_on_c, 9, 51, 0
1, 36578, Note_on_c, 9, 40, 0
1, 36578, Note_on_c, 3, 74, 0
1, 36599, Note_on_c, 1, 37, 0
1, 36623, Note_on_c, 4, 57, 0
1, 36623, Note_on_c, 8, 57, 0
1, 36624, Note_on_c, 1, 37, 84
1, 36624, Note_on_c, 4, 61, 80
1, 36624, Note_on_c, 8, 61, 80
1, 36624, Note_on_c, 9, 35, 75
1, 36624, Note_on_c, 9, 49, 46
1, 36626, Note_on_c, 9, 49, 0
1, 36626, Note_on_c, 9, 35, 0
1, 36643, Note_on_c, 1, 37, 0
1, 36647, Note_on_c, 4, 61, 0
1, 36647, Note_on_c, 8, 61, 0
1, 36648, Note_on_c, 1, 38, 96
1, 36648, Note_on_c, 4, 62, 80
1, 36648, Note_on_c, 8, 62, 80
1, 36666, Note_on_c, 1, 38, 0
1, 36668, Note_on_c, 8, 52, 0
1, 36668, Note_on_c, 4, 52, 0
1, 36668, Control_c, 3, 1, 1
1, 36669, Control_c, 3, 1, 2
1, 36670, Control_c, 3, 1, 4
1, 36671, Control_c, 3, 1, 5
1, 36672, Note_on_c, 1, 37, 78
1, 36672, Control_c, 3, 1, 6
1, 36672, Note_on_c, 4, 61, 88
1, 36672, Note_on_c, 8, 61, 88
1, 36672, Note_on_c, 9, 51, 51
1, 36673, Control_c, 3, 1, 8
1, 36674, Note_on_c, 9, 51, 0
1, 36674, Control_c, 3, 1, 10
1, 36675, Control_c, 3, 1, 11
1, 36676, Note_on_c, 4, 62, 0
1, 36676, Note_on_c, 8, 62, 0
1, 36676, Control_c, 3, 1, 12
1, 36677, Control_c, 3, 1, 13
1, 36678, Control_c, 3, 1, 15
1, 36679, Control_c, 3, 1, 17
1, 36680, Control_c, 3, 1, 19
1, 36681, Control_c, 3, 1, 20
1, 36682, Control_c, 3, 1, 23
1, 36683, Control_c, 3, 1, 25
1, 36684, Control_c, 3, 1, 27
1, 36685, Control_c, 3, 1, 30
1, 36686, Control_c, 3, 1, 32
1, 36687, Control_c, 3, 1, 34
1, 36688, Control_c, 3, 1, 36
1, 36689, Control_c, 3, 1, 38
1, 36690, Control_c, 3, 1, 40
1, 36691, Control_c, 3, 1, 41
1, 36692, Control_c, 3, 1, 43
1, 36693, Control_c, 3, 1, 45
1, 36694, Control_c, 3, 1, 46
1, 36695, Control_c, 3, 1, 47
1, 36696, Control_c, 3, 1, 48
1, 36698, Control_c, 3, 1, 50
1, 36699, Control_c, 3, 1, 51
1, 36701, Control_c, 3, 1, 52
1, 36703, Control_c, 3, 1, 53
1, 36706, Control_c, 3, 1, 54
1, 36710, Control_c, 3, 1, 55
1, 36714, Control_c, 3, 1, 56
1, 36720, Note_on_c, 4, 57, 76
1, 36720, Note_on_c, 8, 57, 76
1, 36720, Note_on_c, 9, 35, 48
1, 36720, Note_on_c, 9, 51, 59
1, 36722, Note_on_c, 9, 51, 0
1, 36722, Note_on_c, 9, 35, 0
1, 36734, Control_c, 3, 1, 55
1, 36736, Control_c, 3, 1, 54
1, 36737, Control_c, 3, 1, 53
1, 36738, Control_c, 3, 1, 52
1, 36739, Control_c, 3, 1, 50
1, 36740, Control_c, 3, 1, 49
1, 36741, Control_c, 3, 1, 48
1, 36742, Control_c, 3, 1, 47
1, 36743, Control_c, 3, 1, 46
1, 36744, Control_c, 3, 1, 45
1, 36744, Note_on_c, 9, 51, 39
1, 36745, Control_c, 3, 1, 43
1, 36746, Note_on_c, 9, 51, 0
1, 36746, Control_c, 3, 1, 42
1, 36747, Control_c, 3, 1, 40
1, 36748, Control_c, 3, 1, 39
1, 36749, Control_c, 3, 1, 37
1, 36750, Control_c, 3, 1, 35
1, 36751, Control_c, 3, 1, 33
1, 36752, Control_c, 3, 1, 31
1, 36753, Control_c, 3, 1, 28
1, 36754, Control_c, 3, 1, 25
1, 36755, Control_c, 3, 1, 22
1, 36756, Control_c, 3, 1, 18
1, 36757, Control_c, 3, 1, 15
1, 36758, Control_c, 3, 1, 11
1, 36759, Control_c, 3, 1, 6
1, 36760, Control_c, 3, 1, 2
1, 36761, Control_c, 3, 1, 0
1, 36768, Note_on_c, 9, 40, 105
1, 36768, Note_on_c, 9, 57, 75
1, 36770, Note_on_c, 9, 57, 0
1, 36770, Note_on_c, 9, 40, 0
1, 36772, Note_on_c, 3, 73, 0
1, 36816, Note_on_c, 9, 40, 105
1, 36816, Note_on_c, 9, 51, 34
1, 36818, Note_on_c, 9, 51, 0
1, 36818, Note_on_c, 9, 40, 0
1, 36840, Note_on_c, 9, 40, 90
1, 36840, Note_on_c, 9, 51, 47
1, 36842, Note_on_c, 9, 51, 0
1, 36842, Note_on_c, 9, 40, 0
1, 36850, Note_on_c, 4, 57, 0
1, 36850, Note_on_c, 8, 57, 0
1, 36851, Note_on_c, 5, 67, 0
1, 36853, Note_on_c, 5, 69, 0
1, 36857, Note_on_c, 8, 61, 0
1, 36857, Note_on_c, 4, 61, 0
1, 36857, Note_on_c, 5, 73, 0
1, 36861, Note_on_c, 1, 37, 0
1, 36864, Note_on_c, 1, 36, 96
1, 36864, Note_on_c, 3, 74, 126
1, 36864, Note_on_c, 4, 60, 80
1, 36864, Note_on_c, 5, 67, 56
1, 36864, Note_on_c, 5, 72, 62
1, 36864, Note_on_c, 8, 60, 80
1, 36864, Note_on_c, 9, 35, 75
1, 36864, Note_on_c, 9, 49, 54
1, 36866, Note_on_c, 9, 49, 0
1, 36866, Note_on_c, 9, 35, 0
1, 36876, Pitch_bend_c, 3, 8322
1, 36877, Pitch_bend_c, 3, 8842
1, 36878, Pitch_bend_c, 3, 9232
1, 36879, Pitch_bend_c, 3, 9752
1, 36880, Pitch_bend_c, 3, 10272
1, 36881, Pitch_bend_c, 3, 10792
1, 36882, Pitch_bend_c, 3, 11442
1, 36883, Pitch_bend_c, 3, 11962
1, 36884, Note_on_c, 1, 36, 0
1, 36884, Pitch_bend_c, 3, 12482
1, 36885, Pitch_bend_c, 3, 12872
1, 36886, Pitch_bend_c, 3, 13262
1, 36887, Pitch_bend_c, 3, 14302
1, 36887, Pitch_bend_c, 3, 13782
1, 36889, Pitch_bend_c, 3, 14822
1, 36891, Pitch_bend_c, 3, 15212
1, 36892, Pitch_bend_c, 3, 15862
1, 36893, Pitch_bend_c, 3, 16382
1, 36909, Note_on_c, 4, 60, 0
1, 36909, Note_on_c, 8, 60, 0
1, 36912, Note_on_c, 1, 36, 64
1, 36912, Note_on_c, 4, 55, 62
1, 36912, Note_on_c, 8, 55, 62
1, 36912, Note_on_c, 9, 35, 50
1, 36912, Note_on_c, 9, 51, 61
1, 36914, Note_on_c, 9, 51, 0
1, 36914, Note_on_c, 9, 35, 0
1, 36920, Note_on_c, 1, 36, 0
1, 36936, Note_on_c, 1, 36, 76
1, 36936, Note_on_c, 9, 51, 35
1, 36938, Note_on_c, 9, 51, 0
1, 36956, Note_on_c, 1, 36, 0
1, 36960, Note_on_c, 1, 24, 92
1, 36960, Note_on_c, 4, 60, 64
1, 36960, Note_on_c, 8, 60, 64
1, 36960, Note_on_c, 9, 40, 105
1, 36960, Note_on_c, 9, 51, 59
1, 36962, Note_on_c, 9, 51, 0
1, 36962, Note_on_c, 9, 40, 0
1, 37005, Note_on_c, 1, 24, 0
1, 37008, Note_on_c, 1, 28, 100
1, 37008, Note_on_c, 4, 64, 72
1, 37008, Note_on_c, 8, 64, 72
1, 37008, Note_on_c, 9, 35, 56
1, 37008, Note_on_c, 9, 51, 75
1, 37010, Note_on_c, 9, 51, 0
1, 37010, Note_on_c, 9, 35, 0
1, 37032, Note_on_c, 9, 51, 39
1, 37034, Note_on_c, 9, 51, 0
1, 37056, Note_on_c, 5, 79, 50
1, 37056, Note_on_c, 9, 51, 53
1, 37058, Note_on_c, 9, 51, 0
1, 37099, Note_on_c, 1, 28, 0
1, 37104, Note_on_c, 1, 29, 82
1, 37104, Note_on_c, 9, 35, 39
1, 37104, Note_on_c, 9, 51, 71
1, 37106, Note_on_c, 9, 51, 0
1, 37106, Note_on_c, 9, 35, 0
1, 37114, Pitch_bend_c, 3, 14952
1, 37115, Pitch_bend_c, 3, 12352
1, 37116, Pitch_bend_c, 3, 8192
1, 37118, Pitch_bend_c, 3, 7808
1, 37119, Pitch_bend_c, 3, 7808
1, 37120, Pitch_bend_c, 3, 8192
1, 37128, Note_on_c, 9, 51, 47
1, 37130, Note_on_c, 9, 51, 0
1, 37152, Note_on_c, 9, 40, 105
1, 37152, Note_on_c, 9, 49, 46
1, 37154, Note_on_c, 9, 49, 0
1, 37154, Note_on_c, 9, 40, 0
1, 37173, Note_on_c, 3, 74, 0
1, 37175, Note_on_c, 1, 29, 0
1, 37176, Note_on_c, 1, 30, 84
1, 37176, Note_on_c, 3, 72, 111
1, 37200, Note_on_c, 9, 51, 83
1, 37202, Note_on_c, 9, 51, 0
1, 37224, Note_on_c, 9, 35, 33
1, 37224, Note_on_c, 9, 51, 47
1, 37226, Note_on_c, 9, 51, 0
1, 37226, Note_on_c, 9, 35, 0
1, 37231, Note_on_c, 5, 72, 0
1, 37234, Note_on_c, 1, 30, 0
1, 37248, Note_on_c, 1, 31, 100
1, 37248, Note_on_c, 3, 74, 98
1, 37248, Note_on_c, 5, 71, 58
1, 37248, Note_on_c, 5, 74, 48
1, 37248, Note_on_c, 9, 35, 75
1, 37248, Note_on_c, 9, 51, 55
1, 37250, Note_on_c, 9, 51, 0
1, 37250, Note_on_c, 9, 35, 0
1, 37252, Note_on_c, 5, 76, 0
1, 37255, Note_on_c, 3, 72, 0
1, 37257, Note_on_c, 8, 60, 0
1, 37257, Note_on_c, 4, 60, 0
1, 37262, Note_on_c, 8, 55, 0
1, 37262, Note_on_c, 4, 55, 0
1, 37263, Note_on_c, 4, 64, 0
1, 37263, Note_on_c, 8, 64, 0
1, 37296, Note_on_c, 4, 50, 97
1, 37296, Note_on_c, 8, 50, 97
1, 37296, Note_on_c, 9, 35, 48
1, 37296, Note_on_c, 9, 51, 67
1, 37298, Note_on_c, 9, 51, 0
1, 37298, Note_on_c, 9, 35, 0
1, 37314, Control_c, 3, 1, 1
1, 37315, Control_c, 3, 1, 3
1, 37316, Control_c, 3, 1, 4
1, 37317, Control_c, 3, 1, 5
1, 37318, Control_c, 3, 1, 7
1, 37320, Control_c, 3, 1, 11
1, 37320, Control_c, 3, 1, 9
1, 37320, Note_on_c, 9, 51, 51
1, 37321, Control_c, 3, 1, 12
1, 37322, Note_on_c, 9, 51, 0
1, 37323, Control_c, 3, 1, 14
1, 37324, Control_c, 3, 1, 15
1, 37325, Control_c, 3, 1, 16
1, 37326, Control_c, 3, 1, 18
1, 37327, Control_c, 3, 1, 19
1, 37328, Control_c, 3, 1, 20
1, 37330, Control_c, 3, 1, 21
1, 37332, Control_c, 3, 1, 22
1, 37334, Control_c, 3, 1, 23
1, 37335, Control_c, 3, 1, 24
1, 37336, Control_c, 3, 1, 25
1, 37338, Control_c, 3, 1, 26
1, 37340, Control_c, 3, 1, 28
1, 37342, Control_c, 3, 1, 29
1, 37343, Control_c, 3, 1, 30
1, 37344, Note_on_c, 4, 55, 62
1, 37344, Note_on_c, 8, 55, 62
1, 37344, Note_on_c, 9, 40, 105
1, 37344, Note_on_c, 9, 51, 71
1, 37345, Control_c, 3, 1, 31
1, 37346, Note_on_c, 9, 51, 0
1, 37346, Note_on_c, 9, 40, 0
1, 37347, Control_c, 3, 1, 32
1, 37348, Control_c, 3, 1, 33
1, 37350, Control_c, 3, 1, 34
1, 37352, Control_c, 3, 1, 35
1, 37356, Control_c, 3, 1, 36
1, 37359, Control_c, 3, 1, 37
1, 37363, Control_c, 3, 1, 38
1, 37365, Control_c, 3, 1, 39
1, 37369, Control_c, 3, 1, 40
1, 37373, Control_c, 3, 1, 41
1, 37376, Control_c, 3, 1, 42
1, 37378, Control_c, 3, 1, 43
1, 37381, Control_c, 3, 1, 44
1, 37385, Control_c, 3, 1, 45
1, 37387, Control_c, 3, 1, 46
1, 37389, Control_c, 3, 1, 47
1, 37391, Control_c, 3, 1, 48
1, 37392, Note_on_c, 1, 52, 80
1, 37392, Note_on_c, 4, 59, 76
1, 37392, Note_on_c, 8, 59, 76
1, 37392, Note_on_c, 9, 35, 75
1, 37392, Note_on_c, 9, 51, 63
1, 37394, Note_on_c, 9, 51, 0
1, 37394, Note_on_c, 9, 35, 0
1, 37394, Control_c, 3, 1, 49
1, 37397, Control_c, 3, 1, 50
1, 37399, Control_c, 3, 1, 51
1, 37401, Control_c, 3, 1, 52
1, 37403, Control_c, 3, 1, 53
1, 37407, Control_c, 3, 1, 54
1, 37414, Control_c, 3, 1, 55
1, 37416, Note_on_c, 9, 51, 47
1, 37418, Note_on_c, 9, 51, 0
1, 37420, Control_c, 3, 1, 56
1, 37427, Control_c, 3, 1, 57
1, 37440, Note_on_c, 4, 62, 72
1, 37440, Note_on_c, 8, 62, 72
1, 37440, Note_on_c, 9, 51, 67
1, 37441, Control_c, 3, 1, 56
1, 37442, Note_on_c, 9, 51, 0
1, 37443, Control_c, 3, 1, 55
1, 37444, Control_c, 3, 1, 54
1, 37445, Control_c, 3, 1, 52
1, 37446, Control_c, 3, 1, 50
1, 37447, Control_c, 3, 1, 48
1, 37448, Control_c, 3, 1, 45
1, 37449, Control_c, 3, 1, 42
1, 37450, Control_c, 3, 1, 38
1, 37451, Control_c, 3, 1, 35
1, 37452, Control_c, 3, 1, 30
1, 37453, Control_c, 3, 1, 26
1, 37454, Control_c, 3, 1, 21
1, 37455, Control_c, 3, 1, 16
1, 37456, Control_c, 3, 1, 11
1, 37457, Control_c, 3, 1, 6
1, 37458, Control_c, 3, 1, 2
1, 37459, Control_c, 3, 1, 0
1, 37463, Note_on_c, 3, 74, 0
1, 37486, Note_on_c, 1, 52, 0
1, 37488, Note_on_c, 1, 50, 84
1, 37488, Note_on_c, 3, 74, 111
1, 37488, Note_on_c, 9, 35, 48
1, 37488, Note_on_c, 9, 51, 71
1, 37490, Note_on_c, 9, 51, 0
1, 37490, Note_on_c, 9, 35, 0
1, 37512, Note_on_c, 9, 51, 45
1, 37514, Note_on_c, 9, 51, 0
1, 37536, Note_on_c, 9, 40, 105
1, 37536, Note_on_c, 9, 51, 61
1, 37538, Note_on_c, 9, 51, 0
1, 37538, Note_on_c, 9, 40, 0
1, 37558, Note_on_c, 3, 74, 0
1, 37560, Note_on_c, 1, 33, 86
1, 37560, Note_on_c, 3, 76, 106
1, 37561, Note_on_c, 1, 50, 0
1, 37567, Note_on_c, 1, 31, 0
1, 37583, Note_on_c, 5, 71, 0
1, 37584, Note_on_c, 9, 51, 55
1, 37586, Note_on_c, 9, 51, 0
1, 37608, Note_on_c, 8, 62, 0
1, 37608, Note_on_c, 4, 62, 0
1, 37608, Note_on_c, 9, 40, 90
1, 37608, Note_on_c, 9, 51, 59
1, 37609, Note_on_c, 4, 59, 0
1, 37609, Note_on_c, 4, 55, 0
1, 37609, Note_on_c, 8, 59, 0
1, 37609, Note_on_c, 8, 55, 0
1, 37610, Note_on_c, 9, 51, 0
1, 37610, Note_on_c, 9, 40, 0
1, 37613, Note_on_c, 5, 79, 0
1, 37619, Note_on_c, 5, 74, 0
1, 37621, Note_on_c, 3, 76, 0
1, 37625, Note_on_c, 8, 50, 0
1, 37625, Note_on_c, 4, 50, 0
1, 37627, Note_on_c, 1, 33, 0
1, 37632, Note_on_c, 1, 34, 84
1, 37632, Note_on_c, 3, 77, 111
1, 37632, Note_on_c, 4, 53, 58
1, 37632, Note_on_c, 4, 58, 84
1, 37632, Note_on_c, 4, 62, 84
1, 37632, Note_on_c, 5, 70, 64
1, 37632, Note_on_c, 5, 74, 54
1, 37632, Note_on_c, 5, 77, 66
1, 37632, Note_on_c, 7, 53, 58
1, 37632, Note_on_c, 7, 58, 84
1, 37632, Note_on_c, 7, 62, 84
1, 37632, Note_on_c, 9, 35, 75
1, 37632, Note_on_c, 9, 40, 90
1, 37632, Note_on_c, 9, 51, 59
1, 37634, Note_on_c, 9, 51, 0
1, 37634, Note_on_c, 9, 40, 0
1, 37634, Note_on_c, 9, 35, 0
1, 37638, Note_on_c, 5, 67, 0
1, 37656, Note_on_c, 1, 34, 0
1, 37680, Note_on_c, 1, 34, 100
1, 37680, Note_on_c, 9, 35, 56
1, 37680, Note_on_c, 9, 51, 67
1, 37682, Note_on_c, 9, 51, 0
1, 37682, Note_on_c, 9, 35, 0
1, 37691, Note_on_c, 1, 34, 0
1, 37704, Note_on_c, 1, 34, 84
1, 37717, Note_on_c, 1, 34, 0
1, 37728, Note_on_c, 1, 34, 86
1, 37728, Note_on_c, 9, 40, 90
1, 37728, Note_on_c, 9, 51, 75
1, 37730, Note_on_c, 9, 51, 0
1, 37730, Note_on_c, 9, 40, 0
1, 37749, Note_on_c, 1, 34, 0
1, 37776, Note_on_c, 1, 34, 84
1, 37776, Note_on_c, 9, 51, 61
1, 37778, Note_on_c, 9, 51, 0
1, 37784, Note_on_c, 1, 34, 0
1, 37800, Note_on_c, 1, 34, 82
1, 37800, Note_on_c, 9, 35, 46
1, 37802, Note_on_c, 9, 35, 0
1, 37816, Note_on_c, 4, 53, 0
1, 37816, Note_on_c, 7, 53, 0
1, 37816, Note_on_c, 1, 34, 0
1, 37818, Note_on_c, 7, 58, 0
1, 37818, Note_on_c, 4, 58, 0
1, 37819, Note_on_c, 4, 62, 0
1, 37819, Note_on_c, 7, 62, 0
1, 37824, Note_on_c, 1, 34, 82
1, 37824, Note_on_c, 4, 53, 66
1, 37824, Note_on_c, 4, 58, 88
1, 37824, Note_on_c, 4, 62, 88
1, 37824, Note_on_c, 7, 53, 66
1, 37824, Note_on_c, 7, 58, 88
1, 37824, Note_on_c, 7, 62, 88
1, 37824, Note_on_c, 9, 35, 75
1, 37824, Note_on_c, 9, 40, 90
1, 37824, Note_on_c, 9, 51, 83
1, 37826, Note_on_c, 9, 51, 0
1, 37826, Note_on_c, 9, 40, 0
1, 37826, Note_on_c, 9, 35, 0
1, 37867, Note_on_c, 1, 34, 0
1, 37872, Note_on_c, 1, 36, 84
1, 37872, Note_on_c, 9, 35, 54
1, 37872, Note_on_c, 9, 51, 57
1, 37874, Note_on_c, 9, 51, 0
1, 37874, Note_on_c, 9, 35, 0
1, 37914, Note_on_c, 1, 36, 0
1, 37920, Note_on_c, 1, 38, 88
1, 37920, Note_on_c, 9, 40, 90
1, 37920, Note_on_c, 9, 51, 79
1, 37922, Note_on_c, 9, 51, 0
1, 37922, Note_on_c, 9, 40, 0
1, 37944, Note_on_c, 9, 35, 52
1, 37946, Note_on_c, 9, 35, 0
1, 37967, Note_on_c, 1, 38, 0
1, 37968, Note_on_c, 1, 34, 92
1, 37968, Note_on_c, 9, 51, 57
1, 37970, Note_on_c, 9, 51, 0
1, 37992, Note_on_c, 9, 35, 46
1, 37994, Note_on_c, 9, 35, 0
1, 37996, Note_on_c, 7, 53, 0
1, 37996, Note_on_c, 4, 53, 0
1, 38005, Note_on_c, 5, 77, 0
1, 38016, Note_on_c, 1, 34, 0
1, 38016, Note_on_c, 5, 70, 0
1, 38016, Note_on_c, 1, 36, 100
1, 38016, Note_on_c, 3, 76, 102
1, 38016, Note_on_c, 4, 48, 102
1, 38016, Note_on_c, 4, 55, 76
1, 38016, Note_on_c, 4, 60, 88
1, 38016, Note_on_c, 5, 72, 68
1, 38016, Note_on_c, 5, 76, 68
1, 38016, Note_on_c, 5, 79, 56
1, 38016, Note_on_c, 7, 48, 102
1, 38016, Note_on_c, 7, 55, 76
1, 38016, Note_on_c, 7, 60, 88
1, 38016, Note_on_c, 9, 35, 75
1, 38016, Note_on_c, 9, 40, 90
1, 38016, Note_on_c, 9, 51, 79
1, 38018, Note_on_c, 9, 51, 0
1, 38018, Note_on_c, 9, 40, 0
1, 38018, Note_on_c, 4, 58, 0
1, 38018, Note_on_c, 9, 35, 0
1, 38018, Note_on_c, 7, 58, 0
1, 38019, Note_on_c, 4, 62, 0
1, 38019, Note_on_c, 7, 62, 0
1, 38025, Note_on_c, 3, 77, 0
1, 38035, Note_on_c, 3, 76, 0
1, 38035, Note_on_c, 5, 74, 0
1, 38035, Note_on_c, 1, 36, 0
1, 38040, Note_on_c, 3, 77, 98
1, 38064, Note_on_c, 1, 36, 82
1, 38064, Note_on_c, 3, 76, 111
1, 38064, Note_on_c, 9, 35, 54
1, 38064, Note_on_c, 9, 51, 53
1, 38066, Note_on_c, 9, 51, 0
1, 38066, Note_on_c, 9, 35, 0
1, 38067, Note_on_c, 3, 77, 0
1, 38083, Note_on_c, 1, 36, 0
1, 38112, Note_on_c, 1, 36, 100
1, 38112, Note_on_c, 9, 40, 90
1, 38112, Note_on_c, 9, 51, 79
1, 38114, Note_on_c, 9, 51, 0
1, 38114, Note_on_c, 9, 40, 0
1, 38154, Note_on_c, 1, 36, 0
1, 38160, Note_on_c, 1, 35, 82
1, 38160, Note_on_c, 9, 51, 61
1, 38162, Note_on_c, 9, 51, 0
1, 38184, Note_on_c, 1, 34, 74
1, 38184, Note_on_c, 9, 35, 52
1, 38186, Note_on_c, 9, 35, 0
1, 38186, Note_on_c, 7, 48, 0
1, 38186, Note_on_c, 4, 48, 0
1, 38187, Note_on_c, 4, 55, 0
1, 38187, Note_on_c, 7, 55, 0
1, 38187, Note_on_c, 1, 35, 0
1, 38191, Note_on_c, 7, 60, 0
1, 38191, Note_on_c, 4, 60, 0
1, 38208, Note_on_c, 1, 33, 96
1, 38208, Note_on_c, 4, 48, 92
1, 38208, Note_on_c, 4, 55, 97
1, 38208, Note_on_c, 4, 60, 102
1, 38208, Note_on_c, 7, 48, 92
1, 38208, Note_on_c, 7, 55, 97
1, 38208, Note_on_c, 7, 60, 102
1, 38208, Note_on_c, 9, 35, 75
1, 38208, Note_on_c, 9, 40, 90
1, 38208, Note_on_c, 9, 51, 79
1, 38210, Note_on_c, 9, 51, 0
1, 38210, Note_on_c, 9, 40, 0
1, 38210, Note_on_c, 9, 35, 0
1, 38218, Note_on_c, 1, 34, 0
1, 38230, Note_on_c, 1, 33, 0
1, 38232, Note_on_c, 3, 74, 106
1, 38233, Note_on_c, 3, 76, 0
1, 38254, Note_on_c, 3, 74, 0
1, 38256, Note_on_c, 1, 33, 92
1, 38256, Note_on_c, 3, 72, 106
1, 38256, Note_on_c, 9, 35, 60
1, 38256, Note_on_c, 9, 51, 61
1, 38258, Note_on_c, 9, 51, 0
1, 38258, Note_on_c, 9, 35, 0
1, 38301, Note_on_c, 1, 33, 0
1, 38304, Note_on_c, 1, 36, 86
1, 38304, Note_on_c, 9, 40, 90
1, 38304, Note_on_c, 9, 51, 79
1, 38306, Note_on_c, 9, 51, 0
1, 38306, Note_on_c, 9, 40, 0
1, 38321, Note_on_c, 3, 72, 0
1, 38328, Note_on_c, 3, 72, 86
1, 38328, Note_on_c, 9, 35, 44
1, 38330, Note_on_c, 9, 35, 0
1, 38351, Note_on_c, 1, 36, 0
1, 38352, Note_on_c, 1, 40, 96
1, 38352, Note_on_c, 3, 74, 111
1, 38352, Note_on_c, 9, 51, 63
1, 38354, Note_on_c, 9, 51, 0
1, 38355, Note_on_c, 3, 72, 0
1, 38376, Note_on_c, 9, 35, 52
1, 38377, Note_on_c, 5, 72, 0
1, 38378, Note_on_c, 9, 35, 0
1, 38383, Note_on_c, 5, 76, 0
1, 38383, Note_on_c, 5, 79, 0
1, 38391, Note_on_c, 4, 60, 0
1, 38391, Note_on_c, 7, 60, 0
1, 38393, Note_on_c, 1, 40, 0
1, 38400, Note_on_c, 1, 38, 104
1, 38400, Note_on_c, 4, 50, 97
1, 38400, Note_on_c, 4, 57, 88
1, 38400, Note_on_c, 4, 62, 88
1, 38400, Note_on_c, 5, 74, 54
1, 38400, Note_on_c, 5, 81, 76
1, 38400, Note_on_c, 5, 86, 88
1, 38400, Note_on_c, 7, 50, 97
1, 38400, Note_on_c, 7, 57, 88
1, 38400, Note_on_c, 7, 62, 88
1, 38400, Note_on_c, 9, 35, 75
1, 38400, Note_on_c, 9, 40, 90
1, 38400, Note_on_c, 9, 49, 48
1, 38402, Note_on_c, 9, 49, 0
1, 38402, Note_on_c, 9, 40, 0
1, 38402, Note_on_c, 9, 35, 0
1, 38406, Note_on_c, 7, 55, 0
1, 38406, Note_on_c, 4, 55, 0
1, 38410, Note_on_c, 4, 48, 0
1, 38410, Note_on_c, 7, 48, 0
1, 38448, Note_on_c, 1, 45, 84
1, 38448, Note_on_c, 9, 35, 52
1, 38448, Note_on_c, 9, 51, 53
1, 38450, Note_on_c, 9, 51, 0
1, 38450, Note_on_c, 9, 35, 0
1, 38465, Note_on_c, 1, 38, 0
1, 38473, Note_on_c, 1, 45, 0
1, 38496, Note_on_c, 1, 45, 100
1, 38496, Note_on_c, 9, 40, 90
1, 38496, Note_on_c, 9, 51, 57
1, 38498, Note_on_c, 9, 51, 0
1, 38498, Note_on_c, 9, 40, 0
1, 38544, Note_on_c, 1, 45, 0
1, 38544, Note_on_c, 1, 48, 84
1, 38544, Note_on_c, 3, 72, 106
1, 38544, Note_on_c, 9, 57, 67
1, 38546, Note_on_c, 9, 57, 0
1, 38551, Note_on_c, 3, 74, 0
1, 38564, Note_on_c, 1, 48, 0
1, 38565, Note_on_c, 3, 72, 0
1, 38568, Note_on_c, 1, 50, 88
1, 38568, Note_on_c, 3, 69, 98
1, 38568, Note_on_c, 9, 35, 44
1, 38570, Note_on_c, 9, 35, 0
1, 38592, Note_on_c, 1, 50, 0
1, 38592, Note_on_c, 1, 48, 84
1, 38592, Note_on_c, 3, 72, 111
1, 38592, Note_on_c, 9, 35, 75
1, 38592, Note_on_c, 9, 40, 90
1, 38594, Note_on_c, 9, 40, 0
1, 38594, Note_on_c, 9, 35, 0
1, 38599, Note_on_c, 3, 69, 0
1, 38611, Note_on_c, 3, 72, 0
1, 38616, Note_on_c, 3, 74, 106
1, 38632, Control_c, 3, 1, 2
1, 38633, Control_c, 3, 1, 3
1, 38634, Control_c, 3, 1, 5
1, 38635, Control_c, 3, 1, 6
1, 38636, Control_c, 3, 1, 9
1, 38637, Note_on_c, 1, 48, 0
1, 38637, Control_c, 3, 1, 11
1, 38638, Control_c, 3, 1, 13
1, 38639, Control_c, 3, 1, 16
1, 38640, Note_on_c, 1, 45, 84
1, 38640, Control_c, 3, 1, 18
1, 38640, Note_on_c, 9, 35, 48
1, 38641, Control_c, 3, 1, 20
1, 38642, Note_on_c, 9, 35, 0
1, 38642, Control_c, 3, 1, 22
1, 38643, Control_c, 3, 1, 25
1, 38644, Control_c, 3, 1, 27
1, 38645, Control_c, 3, 1, 29
1, 38646, Control_c, 3, 1, 31
1, 38647, Control_c, 3, 1, 33
1, 38648, Control_c, 3, 1, 35
1, 38649, Control_c, 3, 1, 36
1, 38650, Control_c, 3, 1, 39
1, 38651, Control_c, 3, 1, 40
1, 38652, Control_c, 3, 1, 42
1, 38653, Control_c, 3, 1, 44
1, 38654, Control_c, 3, 1, 46
1, 38655, Control_c, 3, 1, 48
1, 38656, Control_c, 3, 1, 49
1, 38657, Control_c, 3, 1, 51
1, 38658, Control_c, 3, 1, 53
1, 38659, Control_c, 3, 1, 55
1, 38660, Control_c, 3, 1, 56
1, 38661, Control_c, 3, 1, 57
1, 38662, Control_c, 3, 1, 59
1, 38663, Control_c, 3, 1, 60
1, 38664, Control_c, 3, 1, 62
1, 38665, Control_c, 3, 1, 63
1, 38666, Control_c, 3, 1, 65
1, 38667, Control_c, 3, 1, 66
1, 38668, Control_c, 3, 1, 67
1, 38669, Control_c, 3, 1, 68
1, 38670, Control_c, 3, 1, 69
1, 38671, Control_c, 3, 1, 71
1, 38672, Control_c, 3, 1, 72
1, 38673, Control_c, 3, 1, 73
1, 38674, Control_c, 3, 1, 74
1, 38676, Control_c, 3, 1, 75
1, 38678, Note_on_c, 1, 45, 0
1, 38678, Control_c, 3, 1, 76
1, 38680, Control_c, 3, 1, 78
1, 38684, Control_c, 3, 1, 79
1, 38688, Note_on_c, 1, 38, 86
1, 38688, Note_on_c, 9, 35, 75
1, 38690, Note_on_c, 9, 35, 0
1, 38695, Control_c, 3, 1, 77
1, 38696, Control_c, 3, 1, 76
1, 38697, Control_c, 3, 1, 75
1, 38698, Control_c, 3, 1, 73
1, 38699, Control_c, 3, 1, 71
1, 38700, Control_c, 3, 1, 68
1, 38701, Control_c, 3, 1, 64
1, 38702, Control_c, 3, 1, 60
1, 38703, Control_c, 3, 1, 54
1, 38704, Control_c, 3, 1, 46
1, 38705, Control_c, 3, 1, 37
1, 38706, Control_c, 3, 1, 29
1, 38707, Control_c, 3, 1, 0
1, 38707, Pitch_bend_c, 3, 8192
1, 38712, Note_on_c, 9, 40, 105
1, 38714, Note_on_c, 9, 40, 0
1, 38728, Note_on_c, 1, 38, 0
1, 38736, Note_on_c, 1, 45, 86
1, 38736, Note_on_c, 9, 40, 105
1, 38738, Note_on_c, 9, 40, 0
1, 38739, Note_on_c, 5, 86, 0
1, 38744, Note_on_c, 5, 81, 0
1, 38749, Note_on_c, 5, 74, 0
1, 38753, Note_on_c, 1, 45, 0
1, 38760, Note_on_c, 1, 38, 84
1, 38766, Note_on_c, 7, 50, 0
1, 38766, Note_on_c, 4, 50, 0
1, 38778, Note_on_c, 3, 74, 0
1, 38784, Note_on_c, 7, 62, 0
1, 38784, Note_on_c, 4, 62, 0
1, 38784, Note_on_c, 1, 43, 88
1, 38784, Note_on_c, 4, 43, 76
1, 38784, Note_on_c, 4, 50, 84
1, 38784, Note_on_c, 4, 55, 112
1, 38784, Note_on_c, 6, 70, 80
1, 38784, Note_on_c, 6, 74, 80
1, 38784, Note_on_c, 6, 79, 64
1, 38784, Note_on_c, 7, 43, 76
1, 38784, Note_on_c, 7, 50, 84
1, 38784, Note_on_c, 7, 55, 112
1, 38784, Note_on_c, 9, 35, 75
1, 38784, Note_on_c, 9, 40, 76
1, 38784, Note_on_c, 9, 49, 26
1, 38785, Note_on_c, 1, 38, 0
1, 38786, Note_on_c, 9, 49, 0
1, 38786, Note_on_c, 9, 40, 0
1, 38786, Note_on_c, 9, 35, 0
1, 38787, Note_on_c, 7, 57, 0
1, 38787, Note_on_c, 4, 57, 0
1, 38880, Note_on_c, 9, 40, 63
1, 38880, Note_on_c, 9, 43, 75
1, 38882, Note_on_c, 9, 43, 0
1, 38882, Note_on_c, 9, 40, 0
1, 38912, Note_on_c, 9, 40, 57
1, 38912, Note_on_c, 9, 43, 45
1, 38914, Note_on_c, 9, 43, 0
1, 38914, Note_on_c, 9, 40, 0
1, 38944, Note_on_c, 9, 40, 48
1, 38944, Note_on_c, 9, 43, 58
1, 38946, Note_on_c, 9, 43, 0
1, 38946, Note_on_c, 9, 40, 0
1, 38976, Note_on_c, 9, 40, 76
1, 38976, Note_on_c, 9, 43, 75
1, 38978, Note_on_c, 9, 43, 0
1, 38978, Note_on_c, 9, 40, 0
1, 39072, Note_on_c, 9, 40, 76
1, 39072, Note_on_c, 9, 43, 75
1, 39074, Note_on_c, 9, 43, 0
1, 39074, Note_on_c, 9, 40, 0
1, 39120, Note_on_c, 9, 40, 68
1, 39120, Note_on_c, 9, 43, 57
1, 39122, Note_on_c, 9, 43, 0
1, 39122, Note_on_c, 9, 40, 0
1, 39168, Note_on_c, 9, 35, 75
1, 39168, Note_on_c, 9, 40, 76
1, 39168, Note_on_c, 9, 43, 75
1, 39170, Note_on_c, 9, 43, 0
1, 39170, Note_on_c, 9, 40, 0
1, 39170, Note_on_c, 9, 35, 0
1, 39216, Note_on_c, 9, 41, 41
1, 39218, Note_on_c, 9, 41, 0
1, 39252, Note_on_c, 6, 70, 0
1, 39262, Note_on_c, 6, 74, 0
1, 39264, Note_on_c, 1, 41, 104
1, 39264, Note_on_c, 4, 41, 72
1, 39264, Note_on_c, 4, 48, 88
1, 39264, Note_on_c, 4, 53, 80
1, 39264, Note_on_c, 6, 69, 66
1, 39264, Note_on_c, 6, 72, 76
1, 39264, Note_on_c, 6, 77, 72
1, 39264, Note_on_c, 6, 65, 72
1, 39264, Note_on_c, 7, 41, 72
1, 39264, Note_on_c, 7, 48, 88
1, 39264, Note_on_c, 7, 53, 80
1, 39264, Note_on_c, 9, 35, 75
1, 39264, Note_on_c, 9, 40, 76
1, 39264, Note_on_c, 9, 52, 76
1, 39266, Note_on_c, 9, 52, 0
1, 39266, Note_on_c, 9, 40, 0
1, 39266, Note_on_c, 9, 35, 0
1, 39267, Note_on_c, 6, 79, 0
1, 39267, Note_on_c, 7, 50, 0
1, 39267, Note_on_c, 4, 50, 0
1, 39269, Note_on_c, 1, 43, 0
1, 39273, Note_on_c, 7, 55, 0
1, 39273, Note_on_c, 7, 43, 0
1, 39273, Note_on_c, 4, 43, 0
1, 39273, Note_on_c, 4, 55, 0
1, 39360, Note_on_c, 9, 40, 60
1, 39360, Note_on_c, 9, 43, 75
1, 39362, Note_on_c, 9, 43, 0
1, 39362, Note_on_c, 9, 40, 0
1, 39392, Note_on_c, 9, 40, 63
1, 39392, Note_on_c, 9, 43, 55
1, 39394, Note_on_c, 9, 43, 0
1, 39394, Note_on_c, 9, 40, 0
1, 39424, Note_on_c, 9, 40, 66
1, 39424, Note_on_c, 9, 43, 55
1, 39426, Note_on_c, 9, 43, 0
1, 39426, Note_on_c, 9, 40, 0
1, 39456, Note_on_c, 9, 40, 69
1, 39456, Note_on_c, 9, 43, 75
1, 39458, Note_on_c, 9, 43, 0
1, 39458, Note_on_c, 9, 40, 0
1, 39552, Note_on_c, 9, 40, 76
1, 39552, Note_on_c, 9, 43, 75
1, 39554, Note_on_c, 9, 43, 0
1, 39554, Note_on_c, 9, 40, 0
1, 39600, Note_on_c, 9, 40, 71
1, 39600, Note_on_c, 9, 43, 58
1, 39602, Note_on_c, 9, 43, 0
1, 39602, Note_on_c, 9, 40, 0
1, 39648, Note_on_c, 9, 35, 75
1, 39648, Note_on_c, 9, 40, 76
1, 39648, Note_on_c, 9, 43, 75
1, 39650, Note_on_c, 9, 43, 0
1, 39650, Note_on_c, 9, 40, 0
1, 39650, Note_on_c, 9, 35, 0
1, 39696, Note_on_c, 9, 41, 41
1, 39698, Note_on_c, 9, 41, 0
1, 39727, Note_on_c, 6, 69, 0
1, 39734, Note_on_c, 1, 41, 0
1, 39741, Note_on_c, 4, 48, 0
1, 39741, Note_on_c, 7, 48, 0
1, 39743, Note_on_c, 6, 77, 0
1, 39744, Note_on_c, 7, 41, 0
1, 39744, Note_on_c, 4, 41, 0
1, 39744, Note_on_c, 1, 38, 104
1, 39744, Note_on_c, 4, 50, 102
1, 39744, Note_on_c, 4, 57, 84
1, 39744, Note_on_c, 4, 62, 76
1, 39744, Note_on_c, 6, 69, 68
1, 39744, Note_on_c, 6, 62, 76
1, 39744, Note_on_c, 7, 50, 102
1, 39744, Note_on_c, 7, 57, 84
1, 39744, Note_on_c, 7, 62, 76
1, 39744, Note_on_c, 9, 35, 75
1, 39744, Note_on_c, 9, 40, 76
1, 39744, Note_on_c, 9, 43, 75
1, 39744, Note_on_c, 9, 49, 56
1, 39746, Note_on_c, 9, 49, 0
1, 39746, Note_on_c, 9, 43, 0
1, 39746, Note_on_c, 9, 40, 0
1, 39746, Note_on_c, 9, 35, 0
1, 39748, Note_on_c, 7, 53, 0
1, 39748, Note_on_c, 4, 53, 0
1, 39757, Note_on_c, 6, 72, 0
1, 39840, Note_on_c, 9, 40, 53
1, 39840, Note_on_c, 9, 43, 75
1, 39842, Note_on_c, 9, 43, 0
1, 39842, Note_on_c, 9, 40, 0
1, 39872, Note_on_c, 9, 40, 61
1, 39872, Note_on_c, 9, 43, 47
1, 39874, Note_on_c, 9, 43, 0
1, 39874, Note_on_c, 9, 40, 0
1, 39904, Note_on_c, 9, 40, 68
1, 39904, Note_on_c, 9, 43, 57
1, 39906, Note_on_c, 9, 43, 0
1, 39906, Note_on_c, 9, 40, 0
1, 39936, Note_on_c, 9, 40, 75
1, 39936, Note_on_c, 9, 43, 75
1, 39938, Note_on_c, 9, 43, 0
1, 39938, Note_on_c, 9, 40, 0
1, 40017, Note_on_c, 1, 38, 0
1, 40032, Note_on_c, 1, 38, 96
1, 40032, Note_on_c, 9, 40, 76
1, 40032, Note_on_c, 9, 43, 75
1, 40034, Note_on_c, 9, 43, 0
1, 40034, Note_on_c, 9, 40, 0
1, 40062, Note_on_c, 1, 38, 0
1, 40080, Note_on_c, 1, 38, 84
1, 40080, Note_on_c, 9, 40, 57
1, 40080, Note_on_c, 9, 43, 60
1, 40082, Note_on_c, 9, 43, 0
1, 40082, Note_on_c, 9, 40, 0
1, 40108, Note_on_c, 1, 38, 0
1, 40128, Note_on_c, 1, 38, 88
1, 40128, Note_on_c, 9, 35, 75
1, 40128, Note_on_c, 9, 40, 75
1, 40128, Note_on_c, 9, 43, 75
1, 40130, Note_on_c, 9, 43, 0
1, 40130, Note_on_c, 9, 40, 0
1, 40130, Note_on_c, 9, 35, 0
1, 40176, Note_on_c, 9, 41, 41
1, 40178, Note_on_c, 9, 41, 0
1, 40203, Note_on_c, 6, 65, 0
1, 40210, Note_on_c, 1, 38, 0
1, 40221, Note_on_c, 6, 62, 0
1, 40224, Note_on_c, 1, 36, 96
1, 40224, Note_on_c, 4, 48, 92
1, 40224, Note_on_c, 4, 55, 92
1, 40224, Note_on_c, 4, 60, 80
1, 40224, Note_on_c, 6, 64, 64
1, 40224, Note_on_c, 6, 67, 80
1, 40224, Note_on_c, 6, 60, 68
1, 40224, Note_on_c, 7, 48, 92
1, 40224, Note_on_c, 7, 55, 92
1, 40224, Note_on_c, 7, 60, 80
1, 40224, Note_on_c, 9, 40, 76
1, 40224, Note_on_c, 9, 43, 75
1, 40224, Note_on_c, 9, 52, 64
1, 40225, Note_on_c, 6, 69, 0
1, 40226, Note_on_c, 9, 52, 0
1, 40226, Note_on_c, 9, 40, 0
1, 40226, Note_on_c, 9, 43, 0
1, 40231, Note_on_c, 4, 62, 0
1, 40231, Note_on_c, 7, 62, 0
1, 40232, Note_on_c, 7, 50, 0
1, 40232, Note_on_c, 4, 50, 0
1, 40234, Note_on_c, 7, 57, 0
1, 40234, Note_on_c, 4, 57, 0
1, 40248, Note_on_c, 9, 35, 75
1, 40250, Note_on_c, 9, 35, 0
1, 40296, Note_on_c, 9, 35, 60
1, 40298, Note_on_c, 9, 35, 0
1, 40320, Note_on_c, 9, 40, 76
1, 40320, Note_on_c, 9, 43, 75
1, 40322, Note_on_c, 9, 43, 0
1, 40322, Note_on_c, 9, 40, 0
1, 40352, Note_on_c, 9, 40, 59
1, 40352, Note_on_c, 9, 43, 55
1, 40354, Note_on_c, 9, 43, 0
1, 40354, Note_on_c, 9, 40, 0
1, 40384, Note_on_c, 9, 40, 70
1, 40384, Note_on_c, 9, 43, 58
1, 40386, Note_on_c, 9, 43, 0
1, 40386, Note_on_c, 9, 40, 0
1, 40408, Note_on_c, 1, 36, 0
1, 40416, Note_on_c, 1, 36, 100
1, 40416, Note_on_c, 9, 40, 80
1, 40416, Note_on_c, 9, 43, 75
1, 40418, Note_on_c, 9, 43, 0
1, 40418, Note_on_c, 9, 40, 0
1, 40433, Note_on_c, 1, 36, 0
1, 40440, Note_on_c, 1, 28, 104
1, 40507, Note_on_c, 1, 28, 0
1, 40512, Note_on_c, 1, 29, 108
1, 40512, Note_on_c, 9, 40, 105
1, 40512, Note_on_c, 9, 43, 75
1, 40514, Note_on_c, 9, 43, 0
1, 40514, Note_on_c, 9, 40, 0
1, 40536, Note_on_c, 9, 35, 58
1, 40538, Note_on_c, 9, 35, 0
1, 40560, Note_on_c, 9, 45, 75
1, 40560, Note_on_c, 9, 47, 75
1, 40562, Note_on_c, 9, 47, 0
1, 40562, Note_on_c, 9, 45, 0
1, 40584, Note_on_c, 9, 35, 58
1, 40586, Note_on_c, 9, 35, 0
1, 40607, Note_on_c, 1, 29, 0
1, 40608, Note_on_c, 1, 30, 82
1, 40608, Note_on_c, 9, 43, 75
1, 40608, Note_on_c, 9, 45, 75
1, 40610, Note_on_c, 9, 45, 0
1, 40610, Note_on_c, 9, 43, 0
1, 40632, Note_on_c, 9, 35, 58
1, 40634, Note_on_c, 9, 35, 0
1, 40656, Note_on_c, 9, 41, 75
1, 40656, Note_on_c, 9, 43, 75
1, 40658, Note_on_c, 9, 43, 0
1, 40658, Note_on_c, 9, 41, 0
1, 40680, Note_on_c, 9, 35, 58
1, 40682, Note_on_c, 9, 35, 0
1, 40693, Note_on_c, 6, 67, 0
1, 40703, Note_on_c, 4, 60, 0
1, 40703, Note_on_c, 7, 55, 0
1, 40703, Note_on_c, 7, 60, 0
1, 40703, Note_on_c, 4, 55, 0
1, 40704, Note_on_c, 4, 48, 0
1, 40704, Note_on_c, 7, 48, 0
1, 40704, Note_on_c, 1, 31, 108
1, 40704, Note_on_c, 4, 43, 92
1, 40704, Note_on_c, 4, 50, 84
1, 40704, Note_on_c, 6, 70, 60
1, 40704, Note_on_c, 6, 74, 68
1, 40704, Note_on_c, 6, 79, 44
1, 40704, Note_on_c, 7, 43, 92
1, 40704, Note_on_c, 7, 50, 84
1, 40704, Note_on_c, 9, 57, 63
1, 40705, Note_on_c, 6, 64, 0
1, 40706, Note_on_c, 9, 57, 0
1, 40708, Note_on_c, 6, 60, 0
1, 40709, Note_on_c, 1, 30, 0
1, 40771, Note_on_c, 1, 31, 0
1, 40800, Note_on_c, 1, 31, 86
1, 40800, Note_on_c, 9, 40, 76
1, 40800, Note_on_c, 9, 43, 75
1, 40802, Note_on_c, 9, 43, 0
1, 40802, Note_on_c, 9, 40, 0
1, 40819, Note_on_c, 1, 31, 0
1, 40832, Note_on_c, 1, 31, 86
1, 40832, Note_on_c, 9, 40, 53
1, 40832, Note_on_c, 9, 43, 53
1, 40834, Note_on_c, 9, 43, 0
1, 40834, Note_on_c, 9, 40, 0
1, 40845, Note_on_c, 1, 31, 0
1, 40864, Note_on_c, 1, 31, 108
1, 40864, Note_on_c, 9, 40, 58
1, 40864, Note_on_c, 9, 43, 55
1, 40866, Note_on_c, 9, 43, 0
1, 40866, Note_on_c, 9, 40, 0
1, 40885, Note_on_c, 1, 31, 0
1, 40896, Note_on_c, 1, 31, 104
1, 40896, Note_on_c, 9, 40, 73
1, 40896, Note_on_c, 9, 43, 75
1, 40898, Note_on_c, 9, 43, 0
1, 40898, Note_on_c, 9, 40, 0
1, 40955, Note_on_c, 1, 31, 0
1, 40992, Note_on_c, 1, 31, 108
1, 40992, Note_on_c, 9, 40, 76
1, 40992, Note_on_c, 9, 43, 75
1, 40994, Note_on_c, 9, 43, 0
1, 40994, Note_on_c, 9, 40, 0
1, 41008, Note_on_c, 1, 31, 0
1, 41040, Note_on_c, 1, 31, 96
1, 41040, Note_on_c, 9, 40, 58
1, 41040, Note_on_c, 9, 43, 60
1, 41042, Note_on_c, 9, 43, 0
1, 41042, Note_on_c, 9, 40, 0
1, 41060, Note_on_c, 1, 31, 0
1, 41088, Note_on_c, 1, 31, 104
1, 41088, Note_on_c, 9, 40, 76
1, 41088, Note_on_c, 9, 43, 75
1, 41090, Note_on_c, 9, 43, 0
1, 41090, Note_on_c, 9, 40, 0
1, 41112, Note_on_c, 9, 35, 56
1, 41114, Note_on_c, 9, 35, 0
1, 41141, Note_on_c, 1, 31, 0
1, 41160, Note_on_c, 9, 35, 55
1, 41162, Note_on_c, 9, 35, 0
1, 41172, Note_on_c, 6, 70, 0
1, 41173, Note_on_c, 6, 74, 0
1, 41180, Note_on_c, 7, 50, 0
1, 41180, Note_on_c, 4, 50, 0
1, 41183, Note_on_c, 6, 79, 0
1, 41184, Note_on_c, 1, 29, 100
1, 41184, Note_on_c, 4, 41, 68
1, 41184, Note_on_c, 4, 48, 80
1, 41184, Note_on_c, 4, 53, 92
1, 41184, Note_on_c, 6, 65, 72
1, 41184, Note_on_c, 6, 69, 68
1, 41184, Note_on_c, 6, 77, 84
1, 41184, Note_on_c, 6, 72, 84
1, 41184, Note_on_c, 7, 41, 68
1, 41184, Note_on_c, 7, 48, 80
1, 41184, Note_on_c, 7, 53, 92
1, 41184, Note_on_c, 9, 40, 76
1, 41184, Note_on_c, 9, 43, 75
1, 41184, Note_on_c, 9, 49, 70
1, 41185, Note_on_c, 4, 43, 0
1, 41185, Note_on_c, 7, 43, 0
1, 41186, Note_on_c, 9, 49, 0
1, 41186, Note_on_c, 9, 43, 0
1, 41186, Note_on_c, 9, 40, 0
1, 41240, Note_on_c, 1, 29, 0
1, 41280, Note_on_c, 1, 29, 92
1, 41280, Note_on_c, 9, 40, 76
1, 41280, Note_on_c, 9, 43, 75
1, 41282, Note_on_c, 9, 43, 0
1, 41282, Note_on_c, 9, 40, 0
1, 41297, Note_on_c, 1, 29, 0
1, 41312, Note_on_c, 1, 29, 86
1, 41312, Note_on_c, 9, 40, 57
1, 41312, Note_on_c, 9, 43, 53
1, 41314, Note_on_c, 9, 43, 0
1, 41314, Note_on_c, 9, 40, 0
1, 41324, Note_on_c, 1, 29, 0
1, 41344, Note_on_c, 1, 29, 104
1, 41344, Note_on_c, 9, 40, 65
1, 41344, Note_on_c, 9, 43, 58
1, 41346, Note_on_c, 9, 43, 0
1, 41346, Note_on_c, 9, 40, 0
1, 41373, Note_on_c, 1, 29, 0
1, 41376, Note_on_c, 1, 29, 88
1, 41376, Note_on_c, 9, 40, 79
1, 41376, Note_on_c, 9, 43, 75
1, 41378, Note_on_c, 9, 43, 0
1, 41378, Note_on_c, 9, 40, 0
1, 41438, Note_on_c, 1, 29, 0
1, 41472, Note_on_c, 1, 29, 104
1, 41472, Note_on_c, 9, 40, 76
1, 41472, Note_on_c, 9, 43, 75
1, 41474, Note_on_c, 9, 43, 0
1, 41474, Note_on_c, 9, 40, 0
1, 41494, Note_on_c, 1, 29, 0
1, 41520, Note_on_c, 1, 29, 88
1, 41520, Note_on_c, 9, 40, 57
1, 41520, Note_on_c, 9, 43, 62
1, 41522, Note_on_c, 9, 43, 0
1, 41522, Note_on_c, 9, 40, 0
1, 41540, Note_on_c, 1, 29, 0
1, 41568, Note_on_c, 1, 29, 104
1, 41568, Note_on_c, 9, 40, 76
1, 41568, Note_on_c, 9, 43, 75
1, 41570, Note_on_c, 9, 43, 0
1, 41570, Note_on_c, 9, 40, 0
1, 41592, Note_on_c, 9, 35, 61
1, 41594, Note_on_c, 9, 35, 0
1, 41637, Note_on_c, 6, 69, 0
1, 41640, Note_on_c, 9, 35, 58
1, 41641, Note_on_c, 6, 65, 0
1, 41642, Note_on_c, 9, 35, 0
1, 41643, Note_on_c, 1, 29, 0
1, 41651, Note_on_c, 6, 77, 0
1, 41659, Note_on_c, 6, 72, 0
1, 41664, Note_on_c, 1, 38, 100
1, 41664, Note_on_c, 4, 50, 102
1, 41664, Note_on_c, 4, 57, 88
1, 41664, Note_on_c, 4, 62, 80
1, 41664, Note_on_c, 6, 69, 84
1, 41664, Note_on_c, 6, 65, 66
1, 41664, Note_on_c, 6, 62, 66
1, 41664, Note_on_c, 7, 50, 102
1, 41664, Note_on_c, 7, 57, 88
1, 41664, Note_on_c, 7, 62, 80
1, 41664, Note_on_c, 9, 40, 76
1, 41664, Note_on_c, 9, 43, 75
1, 41664, Note_on_c, 9, 52, 68
1, 41666, Note_on_c, 9, 52, 0
1, 41666, Note_on_c, 9, 43, 0
1, 41666, Note_on_c, 9, 40, 0
1, 41666, Note_on_c, 4, 53, 0
1, 41666, Note_on_c, 7, 53, 0
1, 41669, Note_on_c, 4, 41, 0
1, 41669, Note_on_c, 7, 41, 0
1, 41671, Note_on_c, 4, 48, 0
1, 41671, Note_on_c, 7, 48, 0
1, 41720, Note_on_c, 1, 38, 0
1, 41760, Note_on_c, 1, 38, 62
1, 41760, Note_on_c, 9, 40, 76
1, 41760, Note_on_c, 9, 43, 75
1, 41762, Note_on_c, 9, 43, 0
1, 41762, Note_on_c, 9, 40, 0
1, 41775, Note_on_c, 1, 38, 0
1, 41792, Note_on_c, 1, 38, 88
1, 41792, Note_on_c, 9, 40, 56
1, 41792, Note_on_c, 9, 43, 57
1, 41794, Note_on_c, 9, 43, 0
1, 41794, Note_on_c, 9, 40, 0
1, 41804, Note_on_c, 1, 38, 0
1, 41824, Note_on_c, 1, 38, 88
1, 41824, Note_on_c, 9, 40, 67
1, 41824, Note_on_c, 9, 43, 64
1, 41826, Note_on_c, 9, 43, 0
1, 41826, Note_on_c, 9, 40, 0
1, 41844, Note_on_c, 1, 38, 0
1, 41856, Note_on_c, 1, 38, 100
1, 41856, Note_on_c, 9, 40, 77
1, 41856, Note_on_c, 9, 43, 75
1, 41858, Note_on_c, 9, 43, 0
1, 41858, Note_on_c, 9, 40, 0
1, 41904, Note_on_c, 1, 38, 0
1, 41952, Note_on_c, 1, 38, 96
1, 41952, Note_on_c, 9, 40, 76
1, 41952, Note_on_c, 9, 43, 75
1, 41954, Note_on_c, 9, 43, 0
1, 41954, Note_on_c, 9, 40, 0
1, 41977, Note_on_c, 1, 38, 0
1, 42000, Note_on_c, 1, 38, 78
1, 42000, Note_on_c, 9, 40, 76
1, 42000, Note_on_c, 9, 43, 60
1, 42002, Note_on_c, 9, 43, 0
1, 42002, Note_on_c, 9, 40, 0
1, 42024, Note_on_c, 1, 38, 0
1, 42048, Note_on_c, 1, 38, 100
1, 42048, Note_on_c, 9, 40, 76
1, 42048, Note_on_c, 9, 43, 75
1, 42050, Note_on_c, 9, 43, 0
1, 42050, Note_on_c, 9, 40, 0
1, 42065, Note_on_c, 6, 65, 0
1, 42072, Note_on_c, 9, 35, 58
1, 42074, Note_on_c, 9, 35, 0
1, 42083, Note_on_c, 1, 38, 0
1, 42120, Note_on_c, 9, 35, 51
1, 42122, Note_on_c, 9, 35, 0
1, 42127, Note_on_c, 6, 62, 0
1, 42137, Note_on_c, 4, 57, 0
1, 42137, Note_on_c, 7, 57, 0
1, 42139, Note_on_c, 6, 69, 0
1, 42142, Note_on_c, 7, 62, 0
1, 42142, Note_on_c, 4, 62, 0
1, 42144, Note_on_c, 7, 50, 0
1, 42144, Note_on_c, 4, 50, 0
1, 42144, Note_on_c, 1, 36, 84
1, 42144, Note_on_c, 4, 48, 97
1, 42144, Note_on_c, 4, 55, 80
1, 42144, Note_on_c, 4, 60, 68
1, 42144, Note_on_c, 6, 67, 68
1, 42144, Note_on_c, 6, 60, 72
1, 42144, Note_on_c, 6, 64, 72
1, 42144, Note_on_c, 6, 72, 68
1, 42144, Note_on_c, 7, 48, 97
1, 42144, Note_on_c, 7, 55, 80
1, 42144, Note_on_c, 7, 60, 68
1, 42144, Note_on_c, 9, 40, 76
1, 42144, Note_on_c, 9, 43, 75
1, 42144, Note_on_c, 9, 57, 61
1, 42146, Note_on_c, 9, 57, 0
1, 42146, Note_on_c, 9, 43, 0
1, 42146, Note_on_c, 9, 40, 0
1, 42200, Note_on_c, 1, 36, 0
1, 42240, Note_on_c, 1, 36, 96
1, 42240, Note_on_c, 9, 40, 76
1, 42240, Note_on_c, 9, 43, 75
1, 42242, Note_on_c, 9, 43, 0
1, 42242, Note_on_c, 9, 40, 0
1, 42260, Note_on_c, 1, 36, 0
1, 42272, Note_on_c, 1, 36, 72
1, 42272, Note_on_c, 9, 40, 58
1, 42272, Note_on_c, 9, 43, 57
1, 42274, Note_on_c, 9, 43, 0
1, 42274, Note_on_c, 9, 40, 0
1, 42286, Note_on_c, 1, 36, 0
1, 42304, Note_on_c, 1, 36, 100
1, 42304, Note_on_c, 9, 40, 64
1, 42304, Note_on_c, 9, 43, 60
1, 42306, Note_on_c, 9, 43, 0
1, 42306, Note_on_c, 9, 40, 0
1, 42324, Note_on_c, 1, 36, 0
1, 42336, Note_on_c, 1, 36, 96
1, 42336, Note_on_c, 9, 40, 69
1, 42336, Note_on_c, 9, 43, 75
1, 42338, Note_on_c, 9, 43, 0
1, 42338, Note_on_c, 9, 40, 0
1, 42395, Note_on_c, 1, 36, 0
1, 42432, Note_on_c, 1, 36, 88
1, 42432, Note_on_c, 9, 40, 76
1, 42432, Note_on_c, 9, 43, 75
1, 42434, Note_on_c, 9, 43, 0
1, 42434, Note_on_c, 9, 40, 0
1, 42453, Note_on_c, 1, 36, 0
1, 42480, Note_on_c, 1, 36, 86
1, 42480, Note_on_c, 9, 40, 76
1, 42480, Note_on_c, 9, 43, 55
1, 42482, Note_on_c, 9, 43, 0
1, 42482, Note_on_c, 9, 40, 0
1, 42506, Note_on_c, 1, 36, 0
1, 42528, Note_on_c, 1, 36, 96
1, 42528, Note_on_c, 9, 40, 76
1, 42528, Note_on_c, 9, 43, 75
1, 42530, Note_on_c, 9, 43, 0
1, 42530, Note_on_c, 9, 40, 0
1, 42552, Note_on_c, 9, 35, 75
1, 42554, Note_on_c, 9, 35, 0
1, 42562, Note_on_c, 1, 36, 0
1, 42600, Note_on_c, 9, 35, 75
1, 42602, Note_on_c, 9, 35, 0
1, 42606, Note_on_c, 6, 60, 0
1, 42615, Note_on_c, 6, 64, 0
1, 42618, Note_on_c, 6, 67, 0
1, 42619, Note_on_c, 6, 72, 0
1, 42620, Note_on_c, 7, 60, 0
1, 42620, Note_on_c, 4, 60, 0
1, 42624, Note_on_c, 4, 48, 0
1, 42624, Note_on_c, 7, 48, 0
1, 42624, Note_on_c, 1, 33, 104
1, 42624, Note_on_c, 4, 45, 92
1, 42624, Note_on_c, 4, 52, 88
1, 42624, Note_on_c, 4, 57, 84
1, 42624, Note_on_c, 6, 72, 66
1, 42624, Note_on_c, 6, 67, 66
1, 42624, Note_on_c, 6, 69, 64
1, 42624, Note_on_c, 6, 62, 76
1, 42624, Note_on_c, 6, 64, 80
1, 42624, Note_on_c, 7, 45, 92
1, 42624, Note_on_c, 7, 52, 88
1, 42624, Note_on_c, 7, 57, 84
1, 42624, Note_on_c, 9, 44, 75
1, 42624, Note_on_c, 9, 49, 46
1, 42626, Note_on_c, 9, 49, 0
1, 42626, Note_on_c, 9, 44, 0
1, 42627, Note_on_c, 7, 55, 0
1, 42627, Note_on_c, 4, 55, 0
1, 42816, Note_on_c, 9, 44, 75
1, 42818, Note_on_c, 9, 44, 0
1, 43008, Note_on_c, 9, 44, 75
1, 43010, Note_on_c, 9, 44, 0
1, 43104, Note_on_c, 9, 44, 75
1, 43106, Note_on_c, 9, 44, 0
1, 43200, Note_on_c, 9, 44, 75
1, 43202, Note_on_c, 9, 44, 0
1, 43296, Note_on_c, 9, 44, 75
1, 43298, Note_on_c, 9, 44, 0
1, 43349, Note_on_c, 4, 52, 0
1, 43349, Note_on_c, 7, 52, 0
1, 43353, Note_on_c, 4, 45, 0
1, 43353, Note_on_c, 7, 45, 0
1, 43356, Note_on_c, 4, 57, 0
1, 43356, Note_on_c, 7, 57, 0
1, 43360, Note_on_c, 6, 62, 0
1, 43363, Note_on_c, 6, 64, 0
1, 43364, Note_on_c, 6, 69, 0
1, 43364, Note_on_c, 6, 67, 0
1, 43364, Note_on_c, 6, 72, 0
1, 43392, Note_on_c, 1, 33, 0
1, 43392, Note_on_c, 1, 26, 92
1, 43392, Note_on_c, 4, 72, 117
1, 43392, Control_c, 4, 64, 127
1, 43392, Note_on_c, 7, 72, 127
1, 43392, Control_c, 7, 64, 127
1, 43392, Note_on_c, 9, 35, 75
1, 43392, Note_on_c, 9, 46, 51
1, 43392, Note_on_c, 9, 49, 54
1, 43394, Note_on_c, 9, 49, 0
1, 43394, Note_on_c, 9, 35, 0
1, 43394, Note_on_c, 9, 46, 0
1, 43409, Pitch_bend_c, 4, 8842
1, 43409, Pitch_bend_c, 7, 8842
1, 43411, Pitch_bend_c, 4, 10792
1, 43411, Pitch_bend_c, 7, 10792
1, 43414, Pitch_bend_c, 4, 12482
1, 43414, Pitch_bend_c, 7, 12482
1, 43417, Pitch_bend_c, 4, 13782
1, 43417, Pitch_bend_c, 7, 13782
1, 43421, Pitch_bend_c, 4, 14562
1, 43421, Pitch_bend_c, 7, 14562
1, 43424, Note_on_c, 4, 72, 0
1, 43424, Note_on_c, 7, 72, 0
1, 43424, Pitch_bend_c, 4, 15342
1, 43424, Pitch_bend_c, 7, 15342
1, 43428, Pitch_bend_c, 4, 15732
1, 43428, Pitch_bend_c, 7, 15732
1, 43432, Pitch_bend_c, 4, 16252
1, 43432, Pitch_bend_c, 7, 16252
1, 43435, Pitch_bend_c, 4, 16382
1, 43435, Pitch_bend_c, 7, 16382
1, 43440, Note_on_c, 9, 35, 64
1, 43440, Note_on_c, 9, 46, 51
1, 43440, Note_on_c, 9, 51, 51
1, 43442, Note_on_c, 9, 51, 0
1, 43442, Note_on_c, 9, 46, 0
1, 43442, Note_on_c, 9, 35, 0
1, 43474, Note_on_c, 1, 26, 0
1, 43481, Pitch_bend_c, 4, 14432
1, 43481, Pitch_bend_c, 7, 14432
1, 43484, Pitch_bend_c, 4, 10402
1, 43484, Pitch_bend_c, 7, 10402
1, 43488, Note_on_c, 1, 38, 100
1, 43488, Note_on_c, 2, 62, 84
1, 43488, Note_on_c, 2, 69, 84
1, 43488, Note_on_c, 2, 74, 80
1, 43488, Note_on_c, 4, 72, 117
1, 43488, Pitch_bend_c, 4, 9752
1, 43488, Note_on_c, 6, 74, 54
1, 43488, Note_on_c, 6, 81, 54
1, 43488, Note_on_c, 6, 86, 50
1, 43488, Note_on_c, 7, 72, 127
1, 43488, Pitch_bend_c, 7, 9752
1, 43488, Note_on_c, 9, 40, 105
1, 43488, Note_on_c, 9, 46, 51
1, 43488, Note_on_c, 9, 51, 67
1, 43489, Pitch_bend_c, 4, 8192
1, 43489, Pitch_bend_c, 7, 8192
1, 43490, Note_on_c, 9, 51, 0
1, 43490, Note_on_c, 9, 40, 0
1, 43490, Note_on_c, 9, 46, 0
1, 43495, Control_c, 4, 64, 0
1, 43495, Control_c, 7, 64, 0
1, 43497, Pitch_bend_c, 4, 8582
1, 43497, Pitch_bend_c, 7, 8582
1, 43498, Pitch_bend_c, 4, 10532
1, 43498, Pitch_bend_c, 7, 10532
1, 43502, Pitch_bend_c, 4, 12092
1, 43502, Pitch_bend_c, 7, 12092
1, 43505, Pitch_bend_c, 4, 13522
1, 43505, Pitch_bend_c, 7, 13522
1, 43507, Control_c, 4, 64, 127
1, 43507, Control_c, 7, 64, 127
1, 43508, Pitch_bend_c, 4, 15082
1, 43508, Pitch_bend_c, 7, 15082
1, 43512, Pitch_bend_c, 4, 16252
1, 43512, Pitch_bend_c, 7, 16252
1, 43516, Note_on_c, 1, 38, 0
1, 43516, Pitch_bend_c, 4, 16382
1, 43516, Pitch_bend_c, 7, 16382
1, 43521, Note_on_c, 4, 72, 0
1, 43521, Note_on_c, 7, 72, 0
1, 43536, Note_on_c, 9, 46, 51
1, 43536, Note_on_c, 9, 51, 37
1, 43538, Note_on_c, 9, 51, 0
1, 43538, Note_on_c, 9, 46, 0
1, 43544, Note_on_c, 6, 74, 0
1, 43544, Note_on_c, 2, 62, 0
1, 43560, Note_on_c, 1, 26, 86
1, 43560, Note_on_c, 2, 60, 52
1, 43560, Note_on_c, 2, 62, 46
1, 43560, Note_on_c, 2, 67, 68
1, 43560, Note_on_c, 6, 72, 22
1, 43560, Note_on_c, 6, 74, 16
1, 43560, Note_on_c, 6, 79, 38
1, 43574, Note_on_c, 6, 81, 0
1, 43574, Note_on_c, 2, 69, 0
1, 43577, Note_on_c, 1, 26, 0
1, 43581, Pitch_bend_c, 4, 15992
1, 43581, Pitch_bend_c, 7, 15992
1, 43582, Pitch_bend_c, 4, 12352
1, 43582, Pitch_bend_c, 7, 12352
1, 43584, Note_on_c, 1, 24, 96
1, 43584, Note_on_c, 4, 72, 117
1, 43584, Note_on_c, 7, 72, 127
1, 43584, Note_on_c, 9, 35, 75
1, 43584, Note_on_c, 9, 46, 51
1, 43584, Note_on_c, 9, 51, 51
1, 43585, Pitch_bend_c, 4, 8972
1, 43585, Pitch_bend_c, 7, 8972
1, 43586, Note_on_c, 9, 51, 0
1, 43586, Note_on_c, 9, 46, 0
1, 43586, Note_on_c, 9, 35, 0
1, 43589, Pitch_bend_c, 4, 8842
1, 43589, Pitch_bend_c, 7, 8842
1, 43592, Pitch_bend_c, 4, 10662
1, 43592, Pitch_bend_c, 7, 10662
1, 43596, Pitch_bend_c, 4, 11962
1, 43596, Pitch_bend_c, 7, 11962
1, 43599, Pitch_bend_c, 4, 13002
1, 43599, Pitch_bend_c, 7, 13002
1, 43603, Pitch_bend_c, 4, 13392
1, 43603, Pitch_bend_c, 7, 13392
1, 43604, Note_on_c, 4, 72, 0
1, 43604, Note_on_c, 7, 72, 0
1, 43607, Pitch_bend_c, 4, 13912
1, 43607, Pitch_bend_c, 7, 13912
1, 43610, Pitch_bend_c, 4, 14432
1, 43610, Pitch_bend_c, 7, 14432
1, 43614, Pitch_bend_c, 4, 15212
1, 43614, Pitch_bend_c, 7, 15212
1, 43615, Note_on_c, 1, 24, 0
1, 43617, Pitch_bend_c, 4, 16382
1, 43617, Pitch_bend_c, 7, 16382
1, 43632, Note_on_c, 1, 24, 82
1, 43632, Note_on_c, 9, 35, 59
1, 43632, Note_on_c, 9, 46, 51
1, 43632, Note_on_c, 9, 51, 47
1, 43634, Note_on_c, 9, 51, 0
1, 43634, Note_on_c, 9, 35, 0
1, 43634, Note_on_c, 9, 46, 0
1, 43658, Note_on_c, 6, 72, 0
1, 43658, Note_on_c, 2, 60, 0
1, 43660, Note_on_c, 2, 74, 0
1, 43660, Note_on_c, 2, 62, 0
1, 43660, Note_on_c, 6, 74, 0
1, 43660, Note_on_c, 6, 86, 0
1, 43667, Note_on_c, 6, 79, 0
1, 43667, Note_on_c, 2, 67, 0
1, 43679, Pitch_bend_c, 4, 15992
1, 43679, Pitch_bend_c, 7, 15992
1, 43680, Note_on_c, 2, 67, 72
1, 43680, Note_on_c, 2, 60, 66
1, 43680, Note_on_c, 2, 62, 66
1, 43680, Note_on_c, 2, 74, 80
1, 43680, Note_on_c, 4, 69, 117
1, 43680, Pitch_bend_c, 4, 7424
1, 43680, Note_on_c, 6, 72, 36
1, 43680, Note_on_c, 6, 74, 36
1, 43680, Note_on_c, 6, 79, 42
1, 43680, Note_on_c, 6, 86, 50
1, 43680, Note_on_c, 7, 69, 127
1, 43680, Pitch_bend_c, 7, 7424
1, 43680, Note_on_c, 9, 40, 105
1, 43680, Note_on_c, 9, 46, 51
1, 43680, Note_on_c, 9, 51, 71
1, 43682, Note_on_c, 9, 51, 0
1, 43682, Note_on_c, 9, 46, 0
1, 43682, Note_on_c, 9, 40, 0
1, 43684, Pitch_bend_c, 4, 8192
1, 43684, Pitch_bend_c, 7, 8192
1, 43686, Control_c, 4, 64, 0
1, 43686, Control_c, 7, 64, 0
1, 43728, Note_on_c, 9, 46, 51
1, 43728, Note_on_c, 9, 51, 51
1, 43730, Note_on_c, 9, 51, 0
1, 43730, Note_on_c, 9, 46, 0
1, 43738, Note_on_c, 6, 72, 0
1, 43738, Note_on_c, 2, 60, 0
1, 43739, Note_on_c, 6, 74, 0
1, 43739, Note_on_c, 2, 62, 0
1, 43750, Control_c, 4, 1, 3
1, 43750, Control_c, 7, 1, 3
1, 43752, Note_on_c, 2, 62, 66
1, 43752, Note_on_c, 2, 55, 52
1, 43752, Note_on_c, 6, 67, 22
1, 43752, Note_on_c, 6, 74, 36
1, 43753, Control_c, 4, 1, 7
1, 43753, Control_c, 7, 1, 7
1, 43758, Control_c, 4, 1, 13
1, 43758, Control_c, 7, 1, 13
1, 43763, Control_c, 4, 1, 20
1, 43763, Control_c, 7, 1, 20
1, 43767, Control_c, 4, 1, 27
1, 43767, Control_c, 7, 1, 27
1, 43770, Note_on_c, 1, 24, 0
1, 43771, Control_c, 4, 1, 34
1, 43771, Control_c, 7, 1, 34
1, 43776, Note_on_c, 1, 31, 100
1, 43776, Note_on_c, 2, 47, 66
1, 43776, Control_c, 4, 1, 40
1, 43776, Note_on_c, 6, 59, 36
1, 43776, Control_c, 7, 1, 40
1, 43776, Note_on_c, 9, 35, 75
1, 43776, Note_on_c, 9, 46, 51
1, 43776, Note_on_c, 9, 51, 57
1, 43778, Note_on_c, 9, 51, 0
1, 43778, Note_on_c, 9, 46, 0
1, 43778, Note_on_c, 9, 35, 0
1, 43779, Note_on_c, 2, 55, 0
1, 43779, Note_on_c, 6, 67, 0
1, 43781, Control_c, 4, 1, 47
1, 43781, Control_c, 7, 1, 47
1, 43786, Control_c, 4, 1, 49
1, 43786, Control_c, 7, 1, 49
1, 43794, Control_c, 4, 1, 50
1, 43794, Control_c, 7, 1, 50
1, 43800, Control_c, 4, 1, 51
1, 43800, Control_c, 7, 1, 51
1, 43809, Control_c, 4, 1, 52
1, 43809, Control_c, 7, 1, 52
1, 43821, Control_c, 4, 1, 53
1, 43821, Control_c, 7, 1, 53
1, 43824, Note_on_c, 9, 35, 61
1, 43824, Note_on_c, 9, 46, 51
1, 43824, Note_on_c, 9, 51, 51
1, 43826, Note_on_c, 9, 51, 0
1, 43826, Note_on_c, 9, 46, 0
1, 43826, Note_on_c, 9, 35, 0
1, 43832, Note_on_c, 6, 86, 0
1, 43832, Note_on_c, 2, 74, 0
1, 43833, Note_on_c, 6, 79, 0
1, 43833, Note_on_c, 2, 67, 0
1, 43835, Note_on_c, 2, 62, 0
1, 43835, Note_on_c, 6, 74, 0
1, 43836, Control_c, 4, 1, 55
1, 43836, Control_c, 7, 1, 55
1, 43838, Note_on_c, 1, 31, 0
1, 43854, Control_c, 4, 1, 53
1, 43854, Control_c, 7, 1, 53
1, 43857, Control_c, 4, 1, 39
1, 43857, Control_c, 7, 1, 39
1, 43861, Control_c, 4, 1, 12
1, 43861, Control_c, 7, 1, 12
1, 43866, Control_c, 4, 1, 0
1, 43866, Control_c, 7, 1, 0
1, 43872, Note_on_c, 1, 31, 86
1, 43872, Note_on_c, 2, 67, 88
1, 43872, Note_on_c, 2, 62, 80
1, 43872, Note_on_c, 2, 74, 84
1, 43872, Note_on_c, 6, 74, 50
1, 43872, Note_on_c, 6, 79, 58
1, 43872, Note_on_c, 6, 86, 54
1, 43872, Note_on_c, 9, 40, 105
1, 43872, Note_on_c, 9, 46, 51
1, 43872, Note_on_c, 9, 51, 49
1, 43874, Note_on_c, 9, 51, 0
1, 43874, Note_on_c, 9, 46, 0
1, 43874, Note_on_c, 9, 40, 0
1, 43875, Note_on_c, 7, 69, 0
1, 43875, Note_on_c, 4, 69, 0
1, 43896, Note_on_c, 1, 31, 0
1, 43904, Note_on_c, 4, 74, 117
1, 43904, Note_on_c, 7, 74, 127
1, 43920, Note_on_c, 9, 46, 51
1, 43920, Note_on_c, 9, 51, 47
1, 43922, Note_on_c, 9, 51, 0
1, 43922, Note_on_c, 9, 46, 0
1, 43923, Note_on_c, 7, 74, 0
1, 43923, Note_on_c, 4, 74, 0
1, 43934, Note_on_c, 6, 86, 0
1, 43934, Note_on_c, 2, 74, 0
1, 43936, Note_on_c, 4, 74, 117
1, 43936, Note_on_c, 7, 74, 127
1, 43939, Note_on_c, 2, 67, 0
1, 43939, Note_on_c, 6, 79, 0
1, 43940, Note_on_c, 6, 59, 0
1, 43940, Note_on_c, 2, 47, 0
1, 43944, Note_on_c, 1, 31, 82
1, 43944, Note_on_c, 2, 55, 56
1, 43944, Note_on_c, 6, 67, 26
1, 43955, Note_on_c, 6, 74, 0
1, 43955, Note_on_c, 2, 62, 0
1, 43959, Note_on_c, 4, 74, 0
1, 43959, Note_on_c, 7, 74, 0
1, 43962, Note_on_c, 2, 55, 0
1, 43962, Note_on_c, 6, 67, 0
1, 43968, Note_on_c, 1, 34, 92
1, 43968, Note_on_c, 2, 46, 62
1, 43968, Note_on_c, 4, 72, 117
1, 43968, Note_on_c, 6, 58, 32
1, 43968, Note_on_c, 7, 72, 127
1, 43968, Note_on_c, 9, 35, 75
1, 43968, Note_on_c, 9, 46, 51
1, 43968, Note_on_c, 9, 57, 61
1, 43970, Note_on_c, 9, 57, 0
1, 43970, Note_on_c, 9, 46, 0
1, 43970, Note_on_c, 9, 35, 0
1, 43971, Note_on_c, 1, 31, 0
1, 43973, Pitch_bend_c, 4, 8842
1, 43973, Pitch_bend_c, 7, 8842
1, 43974, Pitch_bend_c, 4, 11442
1, 43974, Pitch_bend_c, 7, 11442
1, 43978, Pitch_bend_c, 4, 14042
1, 43978, Pitch_bend_c, 7, 14042
1, 43981, Pitch_bend_c, 4, 16382
1, 43981, Pitch_bend_c, 7, 16382
1, 43995, Note_on_c, 4, 72, 0
1, 43995, Note_on_c, 7, 72, 0
1, 43999, Pitch_bend_c, 4, 14952
1, 43999, Pitch_bend_c, 7, 14952
1, 44000, Note_on_c, 4, 72, 102
1, 44000, Note_on_c, 7, 72, 112
1, 44002, Pitch_bend_c, 4, 12352
1, 44002, Pitch_bend_c, 7, 12352
1, 44004, Pitch_bend_c, 4, 8192
1, 44004, Pitch_bend_c, 7, 8192
1, 44005, Pitch_bend_c, 4, 8192
1, 44005, Pitch_bend_c, 7, 8192
1, 44016, Note_on_c, 2, 62, 72
1, 44016, Note_on_c, 2, 58, 80
1, 44016, Note_on_c, 2, 57, 76
1, 44016, Note_on_c, 2, 65, 76
1, 44016, Note_on_c, 6, 69, 46
1, 44016, Note_on_c, 6, 70, 50
1, 44016, Note_on_c, 6, 74, 42
1, 44016, Note_on_c, 6, 77, 46
1, 44016, Note_on_c, 9, 35, 61
1, 44016, Note_on_c, 9, 46, 51
1, 44016, Note_on_c, 9, 51, 16
1, 44018, Note_on_c, 9, 51, 0
1, 44018, Note_on_c, 9, 46, 0
1, 44018, Note_on_c, 9, 35, 0
1, 44025, Note_on_c, 4, 72, 0
1, 44025, Note_on_c, 7, 72, 0
1, 44032, Note_on_c, 4, 69, 112
1, 44032, Note_on_c, 7, 69, 122
1, 44049, Note_on_c, 2, 46, 0
1, 44049, Note_on_c, 6, 58, 0
1, 44053, Note_on_c, 4, 69, 0
1, 44053, Note_on_c, 7, 69, 0
1, 44064, Note_on_c, 1, 36, 88
1, 44064, Note_on_c, 2, 48, 76
1, 44064, Note_on_c, 4, 67, 112
1, 44064, Note_on_c, 6, 60, 46
1, 44064, Note_on_c, 7, 67, 122
1, 44064, Note_on_c, 9, 40, 105
1, 44064, Note_on_c, 9, 46, 51
1, 44064, Note_on_c, 9, 49, 54
1, 44066, Note_on_c, 9, 49, 0
1, 44066, Note_on_c, 9, 46, 0
1, 44066, Note_on_c, 9, 40, 0
1, 44068, Note_on_c, 2, 57, 0
1, 44068, Note_on_c, 2, 58, 0
1, 44068, Note_on_c, 6, 69, 0
1, 44068, Note_on_c, 6, 70, 0
1, 44072, Note_on_c, 1, 34, 0
1, 44075, Pitch_bend_c, 4, 8322
1, 44075, Pitch_bend_c, 7, 8322
1, 44076, Pitch_bend_c, 4, 9232
1, 44076, Pitch_bend_c, 7, 9232
1, 44077, Note_on_c, 2, 62, 0
1, 44077, Note_on_c, 6, 74, 0
1, 44079, Pitch_bend_c, 4, 10532
1, 44079, Pitch_bend_c, 7, 10532
1, 44081, Note_on_c, 2, 65, 0
1, 44081, Note_on_c, 6, 77, 0
1, 44083, Pitch_bend_c, 4, 12092
1, 44083, Pitch_bend_c, 7, 12092
1, 44086, Pitch_bend_c, 4, 14302
1, 44086, Pitch_bend_c, 7, 14302
1, 44087, Note_on_c, 7, 67, 0
1, 44087, Note_on_c, 4, 67, 0
1, 44088, Note_on_c, 2, 64, 68
1, 44088, Note_on_c, 2, 55, 66
1, 44088, Note_on_c, 2, 60, 84
1, 44088, Note_on_c, 6, 67, 36
1, 44088, Note_on_c, 6, 72, 54
1, 44088, Note_on_c, 6, 76, 38
1, 44090, Pitch_bend_c, 4, 15602
1, 44090, Pitch_bend_c, 7, 15602
1, 44093, Pitch_bend_c, 4, 16252
1, 44093, Pitch_bend_c, 7, 16252
1, 44096, Note_on_c, 4, 67, 102
1, 44096, Note_on_c, 7, 67, 112
1, 44098, Pitch_bend_c, 4, 15082
1, 44098, Pitch_bend_c, 7, 15082
1, 44100, Pitch_bend_c, 4, 12352
1, 44100, Pitch_bend_c, 7, 12352
1, 44102, Pitch_bend_c, 4, 8192
1, 44102, Pitch_bend_c, 7, 8192
1, 44103, Pitch_bend_c, 4, 8192
1, 44103, Pitch_bend_c, 7, 8192
1, 44112, Note_on_c, 9, 46, 51
1, 44112, Note_on_c, 9, 51, 51
1, 44114, Note_on_c, 9, 51, 0
1, 44114, Note_on_c, 9, 46, 0
1, 44121, Note_on_c, 4, 67, 0
1, 44121, Note_on_c, 7, 67, 0
1, 44128, Note_on_c, 4, 65, 112
1, 44128, Note_on_c, 7, 65, 122
1, 44136, Note_on_c, 9, 40, 90
1, 44138, Note_on_c, 9, 40, 0
1, 44151, Note_on_c, 4, 65, 0
1, 44151, Note_on_c, 7, 65, 0
1, 44154, Note_on_c, 1, 36, 0
1, 44156, Note_on_c, 6, 60, 0
1, 44156, Note_on_c, 2, 48, 0
1, 44159, Note_on_c, 2, 55, 0
1, 44159, Note_on_c, 6, 67, 0
1, 44160, Note_on_c, 1, 26, 92
1, 44160, Note_on_c, 2, 50, 88
1, 44160, Note_on_c, 4, 67, 117
1, 44160, Note_on_c, 6, 62, 58
1, 44160, Note_on_c, 7, 67, 127
1, 44160, Note_on_c, 9, 35, 75
1, 44160, Note_on_c, 9, 46, 51
1, 44160, Note_on_c, 9, 51, 53
1, 44162, Note_on_c, 9, 51, 0
1, 44162, Note_on_c, 9, 35, 0
1, 44162, Note_on_c, 9, 46, 0
1, 44163, Note_on_c, 2, 64, 0
1, 44163, Note_on_c, 6, 76, 0
1, 44165, Note_on_c, 6, 72, 0
1, 44165, Note_on_c, 2, 60, 0
1, 44181, Pitch_bend_c, 4, 9102
1, 44181, Pitch_bend_c, 7, 9102
1, 44184, Pitch_bend_c, 4, 10012
1, 44184, Pitch_bend_c, 7, 10012
1, 44188, Pitch_bend_c, 4, 12612
1, 44188, Pitch_bend_c, 7, 12612
1, 44191, Pitch_bend_c, 4, 16382
1, 44191, Pitch_bend_c, 7, 16382
1, 44208, Note_on_c, 2, 57, 58
1, 44208, Note_on_c, 6, 69, 28
1, 44208, Note_on_c, 9, 35, 56
1, 44208, Note_on_c, 9, 46, 51
1, 44208, Note_on_c, 9, 51, 53
1, 44210, Note_on_c, 9, 51, 0
1, 44210, Note_on_c, 9, 46, 0
1, 44210, Note_on_c, 9, 35, 0
1, 44213, Pitch_bend_c, 4, 12872
1, 44213, Pitch_bend_c, 7, 12872
1, 44214, Pitch_bend_c, 4, 8192
1, 44214, Pitch_bend_c, 7, 8192
1, 44216, Note_on_c, 6, 69, 0
1, 44216, Note_on_c, 2, 57, 0
1, 44216, Pitch_bend_c, 4, 8064
1, 44216, Pitch_bend_c, 7, 8064
1, 44217, Pitch_bend_c, 4, 8192
1, 44217, Pitch_bend_c, 7, 8192
1, 44230, Note_on_c, 4, 67, 0
1, 44230, Note_on_c, 7, 67, 0
1, 44232, Note_on_c, 4, 65, 117
1, 44232, Note_on_c, 7, 65, 127
1, 44247, Note_on_c, 1, 26, 0
1, 44256, Note_on_c, 1, 38, 100
1, 44256, Note_on_c, 2, 62, 92
1, 44256, Note_on_c, 2, 57, 68
1, 44256, Note_on_c, 2, 65, 92
1, 44256, Note_on_c, 4, 62, 112
1, 44256, Note_on_c, 6, 69, 38
1, 44256, Note_on_c, 6, 74, 62
1, 44256, Note_on_c, 6, 77, 62
1, 44256, Note_on_c, 7, 62, 122
1, 44256, Note_on_c, 9, 40, 105
1, 44256, Note_on_c, 9, 46, 51
1, 44256, Note_on_c, 9, 51, 53
1, 44257, Note_on_c, 4, 65, 0
1, 44257, Note_on_c, 7, 65, 0
1, 44258, Note_on_c, 9, 51, 0
1, 44258, Note_on_c, 9, 46, 0
1, 44258, Note_on_c, 9, 40, 0
1, 44272, Control_c, 4, 1, 9
1, 44272, Control_c, 7, 1, 9
1, 44275, Control_c, 4, 1, 33
1, 44275, Control_c, 7, 1, 33
1, 44278, Note_on_c, 1, 38, 0
1, 44280, Control_c, 4, 1, 42
1, 44280, Control_c, 7, 1, 42
1, 44280, Note_on_c, 9, 35, 75
1, 44280, Note_on_c, 9, 57, 71
1, 44282, Note_on_c, 9, 57, 0
1, 44282, Note_on_c, 9, 35, 0
1, 44285, Control_c, 4, 1, 49
1, 44285, Control_c, 7, 1, 49
1, 44289, Control_c, 4, 1, 55
1, 44289, Control_c, 7, 1, 55
1, 44294, Control_c, 4, 1, 57
1, 44294, Control_c, 7, 1, 57
1, 44301, Control_c, 4, 1, 58
1, 44301, Control_c, 7, 1, 58
1, 44304, Control_c, 4, 1, 60
1, 44304, Control_c, 7, 1, 60
1, 44304, Note_on_c, 9, 46, 51
1, 44306, Note_on_c, 9, 46, 0
1, 44308, Control_c, 4, 1, 62
1, 44308, Control_c, 7, 1, 62
1, 44311, Control_c, 4, 1, 66
1, 44311, Control_c, 7, 1, 66
1, 44318, Control_c, 4, 1, 68
1, 44318, Control_c, 7, 1, 68
1, 44322, Control_c, 4, 1, 69
1, 44322, Control_c, 7, 1, 69
1, 44327, Control_c, 4, 1, 70
1, 44327, Control_c, 7, 1, 70
1, 44328, Note_on_c, 1, 26, 82
1, 44337, Note_on_c, 1, 26, 0
1, 44345, Note_on_c, 2, 62, 0
1, 44345, Note_on_c, 6, 74, 0
1, 44349, Note_on_c, 6, 62, 0
1, 44349, Note_on_c, 2, 50, 0
1, 44350, Note_on_c, 6, 69, 0
1, 44350, Note_on_c, 2, 57, 0
1, 44352, Note_on_c, 1, 24, 86
1, 44352, Note_on_c, 2, 48, 80
1, 44352, Note_on_c, 6, 60, 50
1, 44352, Note_on_c, 9, 35, 75
1, 44352, Note_on_c, 9, 46, 51
1, 44352, Note_on_c, 9, 51, 51
1, 44354, Note_on_c, 9, 51, 0
1, 44354, Note_on_c, 9, 46, 0
1, 44354, Note_on_c, 9, 35, 0
1, 44358, Control_c, 4, 1, 72
1, 44358, Control_c, 7, 1, 72
1, 44364, Control_c, 4, 1, 73
1, 44364, Control_c, 7, 1, 73
1, 44366, Note_on_c, 2, 65, 0
1, 44366, Note_on_c, 6, 77, 0
1, 44366, Control_c, 4, 1, 74
1, 44366, Control_c, 7, 1, 74
1, 44379, Note_on_c, 1, 24, 0
1, 44381, Control_c, 4, 1, 73
1, 44381, Control_c, 7, 1, 73
1, 44384, Control_c, 4, 1, 72
1, 44384, Control_c, 7, 1, 72
1, 44391, Control_c, 4, 1, 71
1, 44391, Control_c, 7, 1, 71
1, 44400, Note_on_c, 1, 24, 96
1, 44400, Note_on_c, 9, 35, 56
1, 44400, Note_on_c, 9, 46, 51
1, 44400, Note_on_c, 9, 51, 34
1, 44402, Note_on_c, 9, 51, 0
1, 44402, Note_on_c, 9, 46, 0
1, 44402, Note_on_c, 9, 35, 0
1, 44405, Control_c, 4, 1, 70
1, 44405, Control_c, 7, 1, 70
1, 44408, Control_c, 4, 1, 69
1, 44408, Control_c, 7, 1, 69
1, 44411, Control_c, 4, 1, 67
1, 44411, Control_c, 7, 1, 67
1, 44417, Control_c, 4, 1, 66
1, 44417, Control_c, 7, 1, 66
1, 44420, Control_c, 4, 1, 63
1, 44420, Control_c, 7, 1, 63
1, 44424, Control_c, 4, 1, 59
1, 44424, Control_c, 7, 1, 59
1, 44429, Control_c, 4, 1, 50
1, 44429, Control_c, 7, 1, 50
1, 44433, Control_c, 4, 1, 36
1, 44433, Control_c, 7, 1, 36
1, 44438, Control_c, 4, 1, 12
1, 44438, Control_c, 7, 1, 12
1, 44442, Control_c, 4, 1, 0
1, 44442, Control_c, 7, 1, 0
1, 44448, Note_on_c, 2, 60, 80
1, 44448, Note_on_c, 2, 65, 97
1, 44448, Note_on_c, 2, 67, 92
1, 44448, Note_on_c, 4, 65, 117
1, 44448, Note_on_c, 6, 72, 50
1, 44448, Note_on_c, 6, 77, 67
1, 44448, Note_on_c, 6, 79, 62
1, 44448, Note_on_c, 7, 65, 127
1, 44448, Note_on_c, 9, 40, 105
1, 44448, Note_on_c, 9, 46, 51
1, 44448, Note_on_c, 9, 51, 71
1, 44450, Note_on_c, 9, 51, 0
1, 44450, Note_on_c, 9, 46, 0
1, 44450, Note_on_c, 9, 40, 0
1, 44451, Note_on_c, 4, 62, 0
1, 44451, Note_on_c, 7, 62, 0
1, 44485, Note_on_c, 4, 65, 0
1, 44485, Note_on_c, 7, 65, 0
1, 44496, Note_on_c, 9, 46, 51
1, 44496, Note_on_c, 9, 51, 29
1, 44498, Note_on_c, 9, 51, 0
1, 44498, Note_on_c, 9, 46, 0
1, 44520, Note_on_c, 2, 55, 42
1, 44520, Note_on_c, 6, 67, 12
1, 44528, Note_on_c, 2, 48, 0
1, 44528, Note_on_c, 6, 60, 0
1, 44536, Note_on_c, 2, 55, 0
1, 44536, Note_on_c, 6, 67, 0
1, 44540, Note_on_c, 1, 24, 0
1, 44544, Note_on_c, 1, 31, 100
1, 44544, Note_on_c, 2, 47, 64
1, 44544, Note_on_c, 6, 59, 34
1, 44544, Note_on_c, 9, 35, 75
1, 44544, Note_on_c, 9, 46, 51
1, 44544, Note_on_c, 9, 51, 57
1, 44546, Note_on_c, 9, 51, 0
1, 44546, Note_on_c, 9, 35, 0
1, 44546, Note_on_c, 9, 46, 0
1, 44566, Note_on_c, 6, 72, 0
1, 44566, Note_on_c, 2, 60, 0
1, 44567, Note_on_c, 6, 79, 0
1, 44567, Note_on_c, 2, 67, 0
1, 44572, Note_on_c, 2, 65, 0
1, 44572, Note_on_c, 6, 77, 0
1, 44592, Note_on_c, 2, 55, 64
1, 44592, Note_on_c, 6, 67, 34
1, 44592, Note_on_c, 9, 35, 54
1, 44592, Note_on_c, 9, 46, 51
1, 44592, Note_on_c, 9, 51, 55
1, 44594, Note_on_c, 9, 51, 0
1, 44594, Note_on_c, 9, 46, 0
1, 44594, Note_on_c, 9, 35, 0
1, 44617, Note_on_c, 1, 31, 0
1, 44639, Pitch_bend_c, 4, 6144
1, 44639, Pitch_bend_c, 7, 6144
1, 44640, Note_on_c, 1, 31, 82
1, 44640, Note_on_c, 2, 67, 84
1, 44640, Note_on_c, 2, 62, 72
1, 44640, Note_on_c, 2, 74, 88
1, 44640, Note_on_c, 4, 74, 117
1, 44640, Note_on_c, 6, 74, 42
1, 44640, Note_on_c, 6, 79, 54
1, 44640, Note_on_c, 6, 86, 58
1, 44640, Note_on_c, 7, 74, 127
1, 44640, Note_on_c, 9, 40, 105
1, 44640, Note_on_c, 9, 46, 51
1, 44640, Note_on_c, 9, 51, 57
1, 44642, Note_on_c, 9, 51, 0
1, 44642, Note_on_c, 9, 46, 0
1, 44642, Note_on_c, 9, 40, 0
1, 44643, Note_on_c, 6, 67, 0
1, 44643, Note_on_c, 2, 55, 0
1, 44643, Pitch_bend_c, 4, 2560
1, 44643, Pitch_bend_c, 7, 2560
1, 44646, Pitch_bend_c, 4, 1536
1, 44646, Pitch_bend_c, 7, 1536
1, 44650, Pitch_bend_c, 4, 2944
1, 44650, Pitch_bend_c, 7, 2944
1, 44653, Pitch_bend_c, 4, 6272
1, 44653, Pitch_bend_c, 7, 6272
1, 44657, Pitch_bend_c, 4, 7680
1, 44657, Pitch_bend_c, 7, 7680
1, 44660, Pitch_bend_c, 4, 7936
1, 44660, Pitch_bend_c, 7, 7936
1, 44661, Pitch_bend_c, 4, 8192
1, 44661, Pitch_bend_c, 7, 8192
1, 44688, Note_on_c, 2, 55, 54
1, 44688, Note_on_c, 6, 67, 24
1, 44688, Note_on_c, 9, 46, 51
1, 44688, Note_on_c, 9, 51, 63
1, 44690, Note_on_c, 9, 51, 0
1, 44690, Note_on_c, 9, 46, 0
1, 44694, Note_on_c, 2, 47, 0
1, 44694, Note_on_c, 6, 59, 0
1, 44706, Note_on_c, 6, 79, 0
1, 44706, Note_on_c, 2, 67, 0
1, 44707, Note_on_c, 2, 74, 0
1, 44707, Note_on_c, 6, 86, 0
1, 44711, Note_on_c, 1, 31, 0
1, 44712, Note_on_c, 2, 55, 0
1, 44712, Note_on_c, 6, 67, 0
1, 44712, Note_on_c, 2, 53, 66
1, 44712, Note_on_c, 6, 65, 36
1, 44719, Note_on_c, 6, 74, 0
1, 44719, Note_on_c, 2, 62, 0
1, 44719, Control_c, 4, 1, 4
1, 44719, Control_c, 7, 1, 4
1, 44721, Control_c, 4, 1, 17
1, 44721, Control_c, 7, 1, 17
1, 44725, Control_c, 4, 1, 26
1, 44725, Control_c, 7, 1, 26
1, 44730, Control_c, 4, 1, 32
1, 44730, Control_c, 7, 1, 32
1, 44735, Control_c, 4, 1, 37
1, 44735, Control_c, 7, 1, 37
1, 44736, Note_on_c, 1, 34, 88
1, 44736, Note_on_c, 2, 46, 80
1, 44736, Note_on_c, 6, 58, 50
1, 44736, Note_on_c, 9, 35, 75
1, 44736, Note_on_c, 9, 46, 51
1, 44736, Note_on_c, 9, 49, 62
1, 44738, Note_on_c, 9, 49, 0
1, 44738, Note_on_c, 9, 46, 0
1, 44738, Note_on_c, 9, 35, 0
1, 44739, Control_c, 4, 1, 44
1, 44739, Control_c, 7, 1, 44
1, 44741, Note_on_c, 2, 53, 0
1, 44741, Note_on_c, 6, 65, 0
1, 44744, Control_c, 4, 1, 49
1, 44744, Control_c, 7, 1, 49
1, 44748, Control_c, 4, 1, 57
1, 44748, Control_c, 7, 1, 57
1, 44754, Control_c, 4, 1, 59
1, 44754, Control_c, 7, 1, 59
1, 44758, Control_c, 4, 1, 62
1, 44758, Control_c, 7, 1, 62
1, 44762, Control_c, 4, 1, 64
1, 44762, Control_c, 7, 1, 64
1, 44766, Control_c, 4, 1, 65
1, 44766, Control_c, 7, 1, 65
1, 44772, Control_c, 4, 1, 66
1, 44772, Control_c, 7, 1, 66
1, 44781, Note_on_c, 1, 34, 0
1, 44784, Note_on_c, 1, 41, 100
1, 44784, Note_on_c, 2, 62, 52
1, 44784, Note_on_c, 2, 65, 72
1, 44784, Note_on_c, 2, 57, 52
1, 44784, Note_on_c, 6, 69, 22
1, 44784, Note_on_c, 6, 74, 22
1, 44784, Note_on_c, 6, 77, 42
1, 44784, Note_on_c, 9, 35, 54
1, 44784, Note_on_c, 9, 46, 51
1, 44784, Note_on_c, 9, 51, 57
1, 44786, Note_on_c, 9, 51, 0
1, 44786, Note_on_c, 9, 46, 0
1, 44786, Note_on_c, 9, 35, 0
1, 44790, Control_c, 4, 1, 63
1, 44790, Control_c, 7, 1, 63
1, 44794, Control_c, 4, 1, 57
1, 44794, Control_c, 7, 1, 57
1, 44797, Control_c, 4, 1, 39
1, 44797, Control_c, 7, 1, 39
1, 44802, Control_c, 4, 1, 15
1, 44802, Control_c, 7, 1, 15
1, 44807, Control_c, 4, 1, 0
1, 44807, Control_c, 7, 1, 0
1, 44813, Note_on_c, 6, 58, 0
1, 44813, Note_on_c, 2, 46, 0
1, 44821, Note_on_c, 1, 41, 0
1, 44824, Note_on_c, 7, 74, 0
1, 44824, Note_on_c, 4, 74, 0
1, 44832, Note_on_c, 1, 36, 84
1, 44832, Note_on_c, 2, 48, 68
1, 44832, Note_on_c, 4, 77, 117
1, 44832, Note_on_c, 6, 60, 38
1, 44832, Note_on_c, 7, 77, 127
1, 44832, Note_on_c, 9, 40, 105
1, 44832, Note_on_c, 9, 46, 51
1, 44832, Note_on_c, 9, 57, 71
1, 44834, Note_on_c, 9, 57, 0
1, 44834, Note_on_c, 9, 46, 0
1, 44834, Note_on_c, 9, 40, 0
1, 44836, Note_on_c, 6, 69, 0
1, 44836, Note_on_c, 2, 57, 0
1, 44841, Note_on_c, 6, 74, 0
1, 44841, Note_on_c, 2, 62, 0
1, 44849, Note_on_c, 6, 77, 0
1, 44849, Note_on_c, 2, 65, 0
1, 44856, Note_on_c, 2, 64, 68
1, 44856, Note_on_c, 2, 60, 92
1, 44856, Note_on_c, 2, 55, 64
1, 44856, Note_on_c, 4, 74, 107
1, 44856, Note_on_c, 6, 67, 34
1, 44856, Note_on_c, 6, 72, 62
1, 44856, Note_on_c, 6, 76, 38
1, 44856, Note_on_c, 7, 74, 117
1, 44860, Note_on_c, 4, 77, 0
1, 44860, Note_on_c, 7, 77, 0
1, 44877, Note_on_c, 4, 74, 0
1, 44877, Note_on_c, 7, 74, 0
1, 44880, Note_on_c, 1, 36, 0
1, 44880, Note_on_c, 1, 43, 86
1, 44880, Note_on_c, 4, 79, 117
1, 44880, Note_on_c, 7, 79, 127
1, 44880, Note_on_c, 9, 45, 75
1, 44880, Note_on_c, 9, 46, 51
1, 44880, Note_on_c, 9, 51, 37
1, 44882, Note_on_c, 9, 51, 0
1, 44882, Note_on_c, 9, 46, 0
1, 44882, Note_on_c, 9, 45, 0
1, 44884, Pitch_bend_c, 4, 9102
1, 44884, Pitch_bend_c, 4, 8192
1, 44884, Pitch_bend_c, 7, 9102
1, 44884, Pitch_bend_c, 7, 8192
1, 44888, Pitch_bend_c, 4, 10012
1, 44888, Pitch_bend_c, 7, 10012
1, 44892, Pitch_bend_c, 4, 10662
1, 44892, Pitch_bend_c, 7, 10662
1, 44895, Pitch_bend_c, 4, 11442
1, 44895, Pitch_bend_c, 7, 11442
1, 44898, Note_on_c, 6, 67, 0
1, 44898, Note_on_c, 2, 55, 0
1, 44898, Pitch_bend_c, 4, 12092
1, 44898, Pitch_bend_c, 7, 12092
1, 44900, Note_on_c, 1, 43, 0
1, 44902, Pitch_bend_c, 4, 12742
1, 44902, Pitch_bend_c, 7, 12742
1, 44904, Note_on_c, 9, 43, 75
1, 44905, Pitch_bend_c, 4, 13912
1, 44905, Pitch_bend_c, 7, 13912
1, 44906, Note_on_c, 9, 43, 0
1, 44909, Pitch_bend_c, 4, 15082
1, 44909, Pitch_bend_c, 7, 15082
1, 44912, Pitch_bend_c, 4, 16252
1, 44912, Pitch_bend_c, 7, 16252
1, 44916, Pitch_bend_c, 4, 16382
1, 44916, Pitch_bend_c, 7, 16382
1, 44919, Note_on_c, 6, 60, 0
1, 44919, Note_on_c, 2, 48, 0
1, 44927, Note_on_c, 2, 60, 0
1, 44927, Note_on_c, 6, 72, 0
1, 44928, Note_on_c, 1, 26, 108
1, 44928, Note_on_c, 2, 50, 84
1, 44928, Note_on_c, 6, 62, 54
1, 44928, Note_on_c, 9, 35, 75
1, 44928, Note_on_c, 9, 46, 51
1, 44928, Note_on_c, 9, 51, 71
1, 44929, Note_on_c, 2, 64, 0
1, 44929, Note_on_c, 6, 76, 0
1, 44930, Note_on_c, 9, 46, 0
1, 44930, Note_on_c, 9, 35, 0
1, 44930, Note_on_c, 9, 51, 0
1, 44976, Note_on_c, 2, 57, 35
1, 44976, Note_on_c, 6, 69, 5
1, 44976, Note_on_c, 9, 35, 64
1, 44976, Note_on_c, 9, 46, 51
1, 44976, Note_on_c, 9, 51, 49
1, 44978, Note_on_c, 9, 51, 0
1, 44978, Note_on_c, 9, 46, 0
1, 44978, Note_on_c, 9, 35, 0
1, 45006, Note_on_c, 1, 26, 0
1, 45015, Note_on_c, 2, 57, 0
1, 45015, Note_on_c, 6, 69, 0
1, 45024, Note_on_c, 1, 38, 117
1, 45024, Note_on_c, 2, 69, 92
1, 45024, Note_on_c, 2, 62, 68
1, 45024, Note_on_c, 2, 74, 84
1, 45024, Note_on_c, 6, 74, 38
1, 45024, Note_on_c, 6, 81, 62
1, 45024, Note_on_c, 6, 86, 54
1, 45024, Note_on_c, 9, 40, 105
1, 45024, Note_on_c, 9, 46, 51
1, 45024, Note_on_c, 9, 49, 52
1, 45026, Note_on_c, 9, 49, 0
1, 45026, Note_on_c, 9, 46, 0
1, 45026, Note_on_c, 9, 40, 0
1, 45053, Note_on_c, 1, 38, 0
1, 45072, Note_on_c, 2, 57, 35
1, 45072, Note_on_c, 6, 69, 5
1, 45072, Note_on_c, 9, 46, 51
1, 45072, Note_on_c, 9, 51, 51
1, 45074, Note_on_c, 9, 51, 0
1, 45074, Note_on_c, 9, 46, 0
1, 45078, Note_on_c, 2, 62, 0
1, 45078, Note_on_c, 6, 74, 0
1, 45096, Note_on_c, 1, 23, 96
1, 45096, Note_on_c, 2, 62, 48
1, 45096, Note_on_c, 2, 60, 40
1, 45096, Note_on_c, 2, 67, 66
1, 45096, Note_on_c, 6, 72, 10
1, 45096, Note_on_c, 6, 74, 18
1, 45096, Note_on_c, 6, 79, 36
1, 45096, Note_on_c, 9, 40, 90
1, 45098, Note_on_c, 9, 40, 0
1, 45100, Note_on_c, 6, 81, 0
1, 45100, Note_on_c, 2, 69, 0
1, 45102, Pitch_bend_c, 4, 15602
1, 45102, Pitch_bend_c, 7, 15602
1, 45104, Pitch_bend_c, 4, 14432
1, 45104, Pitch_bend_c, 7, 14432
1, 45105, Note_on_c, 2, 57, 0
1, 45105, Note_on_c, 6, 69, 0
1, 45108, Pitch_bend_c, 4, 13002
1, 45108, Pitch_bend_c, 7, 13002
1, 45111, Note_on_c, 2, 50, 0
1, 45111, Note_on_c, 6, 62, 0
1, 45112, Pitch_bend_c, 4, 10402
1, 45112, Pitch_bend_c, 7, 10402
1, 45115, Pitch_bend_c, 4, 8452
1, 45115, Pitch_bend_c, 7, 8452
1, 45117, Pitch_bend_c, 4, 8192
1, 45117, Pitch_bend_c, 7, 8192
1, 45120, Note_on_c, 1, 24, 108
1, 45120, Note_on_c, 2, 48, 66
1, 45120, Note_on_c, 4, 77, 117
1, 45120, Note_on_c, 6, 60, 36
1, 45120, Note_on_c, 7, 77, 127
1, 45120, Note_on_c, 9, 35, 75
1, 45120, Note_on_c, 9, 46, 51
1, 45120, Note_on_c, 9, 51, 59
1, 45122, Note_on_c, 9, 51, 0
1, 45122, Note_on_c, 1, 23, 0
1, 45122, Note_on_c, 9, 46, 0
1, 45122, Note_on_c, 9, 35, 0
1, 45122, Note_on_c, 7, 79, 0
1, 45122, Note_on_c, 4, 79, 0
1, 45144, Note_on_c, 4, 74, 102
1, 45144, Note_on_c, 7, 74, 112
1, 45149, Note_on_c, 7, 77, 0
1, 45149, Note_on_c, 4, 77, 0
1, 45151, Note_on_c, 2, 48, 0
1, 45151, Note_on_c, 6, 60, 0
1, 45152, Note_on_c, 1, 24, 0
1, 45166, Note_on_c, 4, 74, 0
1, 45166, Note_on_c, 7, 74, 0
1, 45168, Note_on_c, 1, 24, 92
1, 45168, Note_on_c, 2, 48, 56
1, 45168, Note_on_c, 4, 74, 117
1, 45168, Note_on_c, 6, 60, 26
1, 45168, Note_on_c, 7, 74, 127
1, 45168, Note_on_c, 9, 35, 59
1, 45168, Note_on_c, 9, 46, 51
1, 45168, Note_on_c, 9, 51, 59
1, 45170, Note_on_c, 9, 51, 0
1, 45170, Note_on_c, 9, 46, 0
1, 45170, Note_on_c, 9, 35, 0
1, 45193, Note_on_c, 2, 62, 0
1, 45193, Note_on_c, 6, 74, 0
1, 45193, Note_on_c, 2, 60, 0
1, 45193, Note_on_c, 6, 72, 0
1, 45196, Note_on_c, 6, 79, 0
1, 45196, Note_on_c, 2, 67, 0
1, 45216, Note_on_c, 2, 60, 54
1, 45216, Note_on_c, 2, 67, 76
1, 45216, Note_on_c, 2, 62, 54
1, 45216, Note_on_c, 6, 72, 24
1, 45216, Note_on_c, 6, 74, 24
1, 45216, Note_on_c, 6, 79, 46
1, 45216, Note_on_c, 9, 40, 105
1, 45216, Note_on_c, 9, 46, 51
1, 45216, Note_on_c, 9, 51, 47
1, 45218, Note_on_c, 9, 51, 0
1, 45218, Note_on_c, 9, 46, 0
1, 45218, Note_on_c, 9, 40, 0
1, 45235, Control_c, 4, 1, 4
1, 45235, Control_c, 7, 1, 4
1, 45239, Control_c, 4, 1, 7
1, 45239, Control_c, 7, 1, 7
1, 45244, Control_c, 4, 1, 12
1, 45244, Control_c, 7, 1, 12
1, 45248, Control_c, 4, 1, 18
1, 45248, Control_c, 7, 1, 18
1, 45252, Control_c, 4, 1, 25
1, 45252, Control_c, 7, 1, 25
1, 45257, Control_c, 4, 1, 30
1, 45257, Control_c, 7, 1, 30
1, 45261, Control_c, 4, 1, 34
1, 45261, Control_c, 7, 1, 34
1, 45264, Note_on_c, 2, 55, 56
1, 45264, Note_on_c, 6, 67, 26
1, 45264, Note_on_c, 9, 46, 51
1, 45264, Note_on_c, 9, 51, 49
1, 45266, Note_on_c, 9, 51, 0
1, 45266, Note_on_c, 9, 46, 0
1, 45266, Control_c, 4, 1, 37
1, 45266, Control_c, 7, 1, 37
1, 45271, Control_c, 4, 1, 40
1, 45271, Control_c, 7, 1, 40
1, 45274, Control_c, 4, 1, 46
1, 45274, Control_c, 7, 1, 46
1, 45280, Control_c, 4, 1, 48
1, 45280, Control_c, 7, 1, 48
1, 45285, Control_c, 4, 1, 49
1, 45285, Control_c, 7, 1, 49
1, 45288, Control_c, 4, 1, 52
1, 45288, Control_c, 7, 1, 52
1, 45294, Control_c, 4, 1, 55
1, 45294, Control_c, 7, 1, 55
1, 45295, Note_on_c, 6, 60, 0
1, 45295, Note_on_c, 2, 48, 0
1, 45298, Control_c, 4, 1, 57
1, 45298, Control_c, 7, 1, 57
1, 45303, Control_c, 4, 1, 59
1, 45303, Control_c, 7, 1, 59
1, 45306, Note_on_c, 1, 24, 0
1, 45307, Control_c, 4, 1, 61
1, 45307, Control_c, 7, 1, 61
1, 45310, Note_on_c, 2, 55, 0
1, 45310, Note_on_c, 6, 67, 0
1, 45311, Control_c, 4, 1, 63
1, 45311, Control_c, 7, 1, 63
1, 45312, Note_on_c, 1, 31, 108
1, 45312, Note_on_c, 2, 47, 84
1, 45312, Note_on_c, 6, 59, 54
1, 45312, Note_on_c, 9, 35, 75
1, 45312, Note_on_c, 9, 46, 51
1, 45312, Note_on_c, 9, 49, 62
1, 45314, Note_on_c, 9, 49, 0
1, 45314, Note_on_c, 9, 46, 0
1, 45314, Note_on_c, 9, 35, 0
1, 45315, Control_c, 4, 1, 66
1, 45315, Control_c, 7, 1, 66
1, 45316, Note_on_c, 2, 74, 0
1, 45316, Note_on_c, 6, 86, 0
1, 45321, Control_c, 4, 1, 67
1, 45321, Control_c, 7, 1, 67
1, 45322, Note_on_c, 2, 60, 0
1, 45322, Note_on_c, 2, 67, 0
1, 45322, Note_on_c, 6, 72, 0
1, 45322, Note_on_c, 6, 79, 0
1, 45323, Note_on_c, 2, 62, 0
1, 45323, Note_on_c, 6, 74, 0
1, 45327, Note_on_c, 7, 74, 0
1, 45327, Note_on_c, 4, 74, 0
1, 45327, Control_c, 4, 1, 68
1, 45327, Control_c, 7, 1, 68
1, 45330, Control_c, 4, 1, 70
1, 45330, Control_c, 7, 1, 70
1, 45334, Control_c, 4, 1, 71
1, 45334, Control_c, 7, 1, 71
1, 45336, Note_on_c, 1, 31, 0
1, 45338, Control_c, 4, 1, 72
1, 45338, Control_c, 7, 1, 72
1, 45353, Control_c, 4, 1, 70
1, 45353, Control_c, 7, 1, 70
1, 45356, Control_c, 4, 1, 64
1, 45356, Control_c, 7, 1, 64
1, 45360, Note_on_c, 1, 31, 96
1, 45360, Note_on_c, 2, 55, 64
1, 45360, Control_c, 4, 1, 50
1, 45360, Note_on_c, 6, 67, 34
1, 45360, Control_c, 7, 1, 50
1, 45360, Note_on_c, 9, 35, 61
1, 45360, Note_on_c, 9, 46, 51
1, 45360, Note_on_c, 9, 51, 49
1, 45362, Note_on_c, 9, 51, 0
1, 45362, Note_on_c, 9, 46, 0
1, 45362, Note_on_c, 9, 35, 0
1, 45365, Control_c, 4, 1, 29
1, 45365, Control_c, 7, 1, 29
1, 45369, Control_c, 4, 1, 0
1, 45369, Control_c, 7, 1, 0
1, 45406, Note_on_c, 2, 55, 0
1, 45406, Note_on_c, 6, 67, 0
1, 45408, Note_on_c, 2, 67, 97
1, 45408, Note_on_c, 2, 62, 84
1, 45408, Note_on_c, 2, 74, 84
1, 45408, Note_on_c, 4, 72, 117
1, 45408, Note_on_c, 6, 74, 54
1, 45408, Note_on_c, 6, 79, 67
1, 45408, Note_on_c, 6, 86, 54
1, 45408, Note_on_c, 7, 72, 127
1, 45408, Note_on_c, 9, 40, 105
1, 45408, Note_on_c, 9, 46, 51
1, 45408, Note_on_c, 9, 51, 59
1, 45410, Note_on_c, 9, 51, 0
1, 45410, Note_on_c, 9, 46, 0
1, 45410, Note_on_c, 9, 40, 0
1, 45419, Note_on_c, 1, 31, 0
1, 45427, Note_on_c, 7, 72, 0
1, 45427, Note_on_c, 4, 72, 0
1, 45432, Note_on_c, 4, 74, 98
1, 45432, Note_on_c, 7, 74, 108
1, 45451, Note_on_c, 2, 67, 0
1, 45451, Note_on_c, 6, 79, 0
1, 45456, Note_on_c, 1, 31, 82
1, 45456, Note_on_c, 2, 55, 50
1, 45456, Note_on_c, 4, 72, 117
1, 45456, Note_on_c, 6, 67, 20
1, 45456, Note_on_c, 7, 72, 127
1, 45456, Note_on_c, 9, 46, 51
1, 45456, Note_on_c, 9, 51, 57
1, 45457, Note_on_c, 2, 62, 0
1, 45457, Note_on_c, 6, 74, 0
1, 45458, Note_on_c, 9, 51, 0
1, 45458, Note_on_c, 9, 46, 0
1, 45462, Note_on_c, 7, 74, 0
1, 45462, Note_on_c, 4, 74, 0
1, 45467, Note_on_c, 6, 86, 0
1, 45467, Note_on_c, 2, 47, 0
1, 45467, Note_on_c, 6, 59, 0
1, 45467, Note_on_c, 2, 74, 0
1, 45477, Note_on_c, 4, 72, 0
1, 45477, Note_on_c, 7, 72, 0
1, 45480, Note_on_c, 1, 33, 84
1, 45480, Note_on_c, 2, 62, 42
1, 45480, Note_on_c, 2, 60, 46
1, 45480, Note_on_c, 2, 65, 84
1, 45480, Note_on_c, 4, 74, 90
1, 45480, Note_on_c, 6, 72, 16
1, 45480, Note_on_c, 6, 74, 12
1, 45480, Note_on_c, 6, 77, 54
1, 45480, Note_on_c, 7, 74, 100
1, 45481, Note_on_c, 1, 31, 0
1, 45493, Note_on_c, 6, 67, 0
1, 45493, Note_on_c, 2, 55, 0
1, 45498, Note_on_c, 1, 33, 0
1, 45504, Note_on_c, 1, 34, 96
1, 45504, Note_on_c, 2, 46, 54
1, 45504, Note_on_c, 2, 53, 68
1, 45504, Note_on_c, 4, 72, 117
1, 45504, Note_on_c, 6, 58, 24
1, 45504, Note_on_c, 6, 65, 38
1, 45504, Note_on_c, 7, 72, 127
1, 45504, Note_on_c, 9, 35, 75
1, 45504, Note_on_c, 9, 46, 51
1, 45504, Note_on_c, 9, 57, 75
1, 45506, Note_on_c, 9, 57, 0
1, 45506, Note_on_c, 9, 46, 0
1, 45506, Note_on_c, 9, 35, 0
1, 45510, Note_on_c, 4, 74, 0
1, 45510, Note_on_c, 7, 74, 0
1, 45519, Note_on_c, 2, 62, 0
1, 45519, Note_on_c, 6, 74, 0
1, 45520, Note_on_c, 4, 72, 0
1, 45520, Note_on_c, 7, 72, 0
1, 45528, Note_on_c, 2, 60, 0
1, 45528, Note_on_c, 6, 72, 0
1, 45528, Note_on_c, 4, 69, 112
1, 45528, Note_on_c, 7, 69, 122
1, 45544, Note_on_c, 7, 69, 0
1, 45544, Note_on_c, 4, 69, 0
1, 45549, Note_on_c, 2, 65, 0
1, 45549, Note_on_c, 6, 77, 0
1, 45552, Note_on_c, 1, 29, 84
1, 45552, Note_on_c, 2, 60, 64
1, 45552, Note_on_c, 4, 72, 107
1, 45552, Note_on_c, 6, 72, 34
1, 45552, Note_on_c, 7, 72, 117
1, 45552, Note_on_c, 9, 35, 61
1, 45552, Note_on_c, 9, 46, 51
1, 45552, Note_on_c, 9, 51, 51
1, 45554, Note_on_c, 9, 51, 0
1, 45554, Note_on_c, 9, 46, 0
1, 45554, Note_on_c, 9, 35, 0
1, 45557, Note_on_c, 1, 34, 0
1, 45576, Note_on_c, 1, 29, 0
1, 45576, Note_on_c, 1, 34, 92
1, 45576, Note_on_c, 4, 69, 102
1, 45576, Note_on_c, 7, 69, 112
1, 45582, Note_on_c, 4, 72, 0
1, 45582, Note_on_c, 7, 72, 0
1, 45589, Note_on_c, 6, 72, 0
1, 45589, Note_on_c, 2, 60, 0
1, 45592, Note_on_c, 2, 46, 0
1, 45592, Note_on_c, 6, 65, 0
1, 45592, Note_on_c, 2, 53, 0
1, 45592, Note_on_c, 6, 58, 0
1, 45596, Note_on_c, 4, 69, 0
1, 45596, Note_on_c, 7, 69, 0
1, 45598, Note_on_c, 1, 34, 0
1, 45600, Note_on_c, 1, 33, 88
1, 45600, Note_on_c, 2, 48, 72
1, 45600, Note_on_c, 2, 62, 84
1, 45600, Note_on_c, 2, 60, 76
1, 45600, Note_on_c, 2, 67, 88
1, 45600, Note_on_c, 2, 55, 66
1, 45600, Note_on_c, 4, 67, 90
1, 45600, Note_on_c, 6, 60, 42
1, 45600, Note_on_c, 6, 67, 36
1, 45600, Note_on_c, 6, 72, 46
1, 45600, Note_on_c, 6, 74, 54
1, 45600, Note_on_c, 6, 79, 58
1, 45600, Note_on_c, 7, 67, 100
1, 45600, Note_on_c, 9, 40, 105
1, 45600, Note_on_c, 9, 46, 51
1, 45600, Note_on_c, 9, 49, 46
1, 45602, Note_on_c, 9, 49, 0
1, 45602, Note_on_c, 9, 46, 0
1, 45602, Note_on_c, 9, 40, 0
1, 45604, Pitch_bend_c, 4, 8712
1, 45604, Pitch_bend_c, 7, 8712
1, 45605, Pitch_bend_c, 4, 9882
1, 45605, Pitch_bend_c, 7, 9882
1, 45609, Pitch_bend_c, 4, 10792
1, 45609, Pitch_bend_c, 7, 10792
1, 45612, Pitch_bend_c, 4, 12742
1, 45612, Pitch_bend_c, 7, 12742
1, 45616, Pitch_bend_c, 4, 15862
1, 45616, Pitch_bend_c, 7, 15862
1, 45619, Pitch_bend_c, 4, 16382
1, 45619, Pitch_bend_c, 7, 16382
1, 45627, Pitch_bend_c, 4, 13392
1, 45627, Pitch_bend_c, 7, 13392
1, 45630, Pitch_bend_c, 4, 11182
1, 45630, Pitch_bend_c, 7, 11182
1, 45631, Pitch_bend_c, 4, 8192
1, 45631, Pitch_bend_c, 7, 8192
1, 45632, Pitch_bend_c, 4, 8192
1, 45632, Pitch_bend_c, 7, 8192
1, 45636, Note_on_c, 4, 67, 0
1, 45636, Note_on_c, 7, 67, 0
1, 45648, Note_on_c, 1, 33, 0
1, 45648, Note_on_c, 4, 65, 90
1, 45648, Note_on_c, 7, 65, 96
1, 45648, Note_on_c, 9, 46, 51
1, 45648, Note_on_c, 9, 51, 28
1, 45650, Note_on_c, 9, 51, 0
1, 45650, Note_on_c, 9, 46, 0
1, 45655, Note_on_c, 7, 65, 0
1, 45672, Note_on_c, 2, 55, 0
1, 45672, Note_on_c, 6, 67, 0
1, 45672, Note_on_c, 1, 33, 100
1, 45672, Note_on_c, 4, 62, 107
1, 45672, Note_on_c, 7, 62, 117
1, 45672, Note_on_c, 9, 40, 90
1, 45674, Note_on_c, 9, 40, 0
1, 45677, Note_on_c, 4, 65, 0
1, 45689, Note_on_c, 4, 62, 0
1, 45689, Note_on_c, 1, 33, 0
1, 45689, Note_on_c, 7, 62, 0
1, 45691, Note_on_c, 2, 60, 0
1, 45691, Note_on_c, 6, 72, 0
1, 45692, Note_on_c, 6, 74, 0
1, 45692, Note_on_c, 2, 62, 0
1, 45693, Note_on_c, 6, 60, 0
1, 45693, Note_on_c, 2, 48, 0
1, 45696, Note_on_c, 1, 26, 100
1, 45696, Note_on_c, 2, 57, 80
1, 45696, Note_on_c, 2, 50, 84
1, 45696, Note_on_c, 4, 67, 112
1, 45696, Note_on_c, 6, 62, 54
1, 45696, Note_on_c, 6, 69, 50
1, 45696, Note_on_c, 7, 67, 122
1, 45696, Note_on_c, 9, 35, 75
1, 45696, Note_on_c, 9, 46, 51
1, 45696, Note_on_c, 9, 52, 64
1, 45697, Note_on_c, 2, 67, 0
1, 45697, Note_on_c, 6, 79, 0
1, 45698, Note_on_c, 9, 46, 0
1, 45698, Note_on_c, 9, 35, 0
1, 45698, Note_on_c, 9, 52, 0
1, 45718, Pitch_bend_c, 4, 9102
1, 45718, Pitch_bend_c, 7, 9102
1, 45721, Pitch_bend_c, 4, 9752
1, 45721, Pitch_bend_c, 7, 9752
1, 45724, Pitch_bend_c, 4, 9882
1, 45724, Pitch_bend_c, 7, 9882
1, 45728, Pitch_bend_c, 4, 10272
1, 45728, Pitch_bend_c, 7, 10272
1, 45731, Pitch_bend_c, 4, 11832
1, 45731, Pitch_bend_c, 7, 11832
1, 45735, Pitch_bend_c, 4, 12612
1, 45735, Pitch_bend_c, 7, 12612
1, 45738, Pitch_bend_c, 4, 12612
1, 45738, Pitch_bend_c, 7, 12612
1, 45742, Pitch_bend_c, 4, 12092
1, 45742, Pitch_bend_c, 7, 12092
1, 45744, Note_on_c, 2, 62, 68
1, 45744, Note_on_c, 6, 74, 38
1, 45744, Note_on_c, 9, 35, 56
1, 45744, Note_on_c, 9, 46, 51
1, 45744, Note_on_c, 9, 51, 49
1, 45745, Pitch_bend_c, 4, 10142
1, 45745, Pitch_bend_c, 7, 10142
1, 45746, Note_on_c, 9, 51, 0
1, 45746, Note_on_c, 9, 35, 0
1, 45746, Note_on_c, 9, 46, 0
1, 45749, Pitch_bend_c, 4, 9102
1, 45749, Pitch_bend_c, 7, 9102
1, 45750, Pitch_bend_c, 4, 8192
1, 45750, Pitch_bend_c, 7, 8192
1, 45758, Note_on_c, 6, 74, 0
1, 45758, Note_on_c, 2, 62, 0
1, 45766, Note_on_c, 1, 26, 0
1, 45768, Note_on_c, 4, 65, 112
1, 45768, Note_on_c, 7, 65, 122
1, 45773, Note_on_c, 7, 67, 0
1, 45773, Note_on_c, 4, 67, 0
1, 45782, Note_on_c, 7, 65, 0
1, 45782, Note_on_c, 4, 65, 0
1, 45792, Note_on_c, 1, 26, 104
1, 45792, Note_on_c, 2, 62, 72
1, 45792, Note_on_c, 2, 69, 88
1, 45792, Note_on_c, 2, 74, 80
1, 45792, Note_on_c, 4, 62, 86
1, 45792, Note_on_c, 6, 74, 42
1, 45792, Note_on_c, 6, 81, 58
1, 45792, Note_on_c, 6, 86, 50
1, 45792, Note_on_c, 7, 62, 96
1, 45792, Note_on_c, 9, 40, 105
1, 45792, Note_on_c, 9, 46, 51
1, 45792, Note_on_c, 9, 51, 55
1, 45794, Note_on_c, 9, 51, 0
1, 45794, Note_on_c, 9, 46, 0
1, 45794, Note_on_c, 9, 40, 0
1, 45833, Note_on_c, 4, 62, 0
1, 45833, Note_on_c, 7, 62, 0
1, 45837, Note_on_c, 1, 26, 0
1, 45840, Note_on_c, 6, 74, 0
1, 45840, Note_on_c, 2, 62, 0
1, 45840, Note_on_c, 4, 62, 74
1, 45840, Note_on_c, 7, 62, 84
1, 45840, Note_on_c, 9, 46, 51
1, 45840, Note_on_c, 9, 51, 34
1, 45842, Note_on_c, 9, 51, 0
1, 45842, Note_on_c, 9, 46, 0
1, 45855, Note_on_c, 6, 69, 0
1, 45855, Note_on_c, 2, 57, 0
1, 45860, Note_on_c, 6, 81, 0
1, 45860, Note_on_c, 2, 69, 0
1, 45864, Note_on_c, 1, 26, 80
1, 45864, Note_on_c, 2, 67, 80
1, 45864, Note_on_c, 2, 62, 72
1, 45864, Note_on_c, 2, 60, 88
1, 45864, Note_on_c, 6, 72, 58
1, 45864, Note_on_c, 6, 74, 42
1, 45864, Note_on_c, 6, 79, 50
1, 45864, Note_on_c, 9, 40, 90
1, 45865, Note_on_c, 6, 62, 0
1, 45865, Note_on_c, 2, 50, 0
1, 45866, Note_on_c, 9, 40, 0
1, 45872, Note_on_c, 1, 26, 0
1, 45888, Note_on_c, 1, 24, 96
1, 45888, Note_on_c, 2, 55, 44
1, 45888, Note_on_c, 6, 67, 14
1, 45888, Note_on_c, 9, 35, 75
1, 45888, Note_on_c, 9, 46, 51
1, 45888, Note_on_c, 9, 51, 39
1, 45890, Note_on_c, 9, 51, 0
1, 45890, Note_on_c, 9, 46, 0
1, 45890, Note_on_c, 9, 35, 0
1, 45895, Note_on_c, 2, 55, 0
1, 45895, Note_on_c, 6, 67, 0
1, 45910, Note_on_c, 4, 62, 0
1, 45910, Note_on_c, 7, 62, 0
1, 45912, Note_on_c, 4, 62, 117
1, 45912, Note_on_c, 7, 62, 127
1, 45919, Note_on_c, 1, 24, 0
1, 45936, Note_on_c, 1, 24, 96
1, 45936, Note_on_c, 2, 55, 84
1, 45936, Note_on_c, 4, 60, 90
1, 45936, Note_on_c, 6, 67, 54
1, 45936, Note_on_c, 7, 60, 100
1, 45936, Note_on_c, 9, 40, 122
1, 45936, Note_on_c, 9, 51, 51
1, 45938, Note_on_c, 9, 51, 0
1, 45938, Note_on_c, 9, 40, 0
1, 45940, Note_on_c, 2, 67, 0
1, 45940, Note_on_c, 7, 62, 0
1, 45940, Note_on_c, 4, 62, 0
1, 45940, Note_on_c, 6, 79, 0
1, 45950, Note_on_c, 2, 60, 0
1, 45950, Note_on_c, 6, 72, 0
1, 45951, Note_on_c, 6, 86, 0
1, 45951, Note_on_c, 2, 74, 0
1, 45952, Note_on_c, 6, 74, 0
1, 45952, Note_on_c, 2, 62, 0
1, 45952, Note_on_c, 9, 40, 105
1, 45954, Note_on_c, 9, 40, 0
1, 45958, Note_on_c, 4, 60, 0
1, 45958, Note_on_c, 7, 60, 0
1, 45960, Note_on_c, 4, 57, 90
1, 45960, Note_on_c, 7, 57, 100
1, 45968, Note_on_c, 9, 40, 103
1, 45970, Note_on_c, 9, 40, 0
1, 45982, Note_on_c, 4, 57, 0
1, 45982, Note_on_c, 7, 57, 0
1, 45984, Note_on_c, 2, 62, 54
1, 45984, Note_on_c, 2, 60, 54
1, 45984, Note_on_c, 2, 67, 88
1, 45984, Note_on_c, 2, 74, 84
1, 45984, Note_on_c, 4, 55, 107
1, 45984, Note_on_c, 6, 72, 24
1, 45984, Note_on_c, 6, 74, 24
1, 45984, Note_on_c, 6, 79, 58
1, 45984, Note_on_c, 6, 86, 54
1, 45984, Note_on_c, 7, 55, 117
1, 45984, Note_on_c, 9, 40, 122
1, 45984, Note_on_c, 9, 51, 17
1, 45986, Note_on_c, 9, 51, 0
1, 45986, Note_on_c, 9, 40, 0
1, 45991, Note_on_c, 2, 55, 0
1, 45991, Note_on_c, 6, 67, 0
1, 45993, Note_on_c, 1, 24, 0
1, 46000, Note_on_c, 9, 40, 111
1, 46002, Note_on_c, 9, 40, 0
1, 46008, Note_on_c, 4, 53, 98
1, 46008, Note_on_c, 7, 53, 108
1, 46015, Note_on_c, 4, 55, 0
1, 46015, Note_on_c, 7, 55, 0
1, 46016, Note_on_c, 9, 40, 107
1, 46018, Note_on_c, 9, 40, 0
1, 46030, Note_on_c, 4, 53, 0
1, 46030, Note_on_c, 7, 53, 0
1, 46032, Note_on_c, 1, 31, 108
1, 46032, Note_on_c, 2, 55, 58
1, 46032, Note_on_c, 4, 50, 94
1, 46032, Note_on_c, 6, 67, 28
1, 46032, Note_on_c, 7, 50, 104
1, 46032, Note_on_c, 9, 35, 75
1, 46032, Note_on_c, 9, 52, 88
1, 46034, Note_on_c, 9, 52, 0
1, 46034, Note_on_c, 9, 35, 0
1, 46054, Note_on_c, 2, 55, 0
1, 46054, Note_on_c, 6, 67, 0
1, 46055, Note_on_c, 4, 50, 0
1, 46055, Note_on_c, 7, 50, 0
1, 46056, Note_on_c, 4, 53, 102
1, 46056, Note_on_c, 7, 53, 112
1, 46078, Note_on_c, 7, 53, 0
1, 46078, Note_on_c, 4, 53, 0
1, 46080, Note_on_c, 4, 50, 107
1, 46080, Note_on_c, 7, 50, 117
1, 46080, Note_on_c, 9, 40, 122
1, 46082, Note_on_c, 9, 40, 0
1, 46093, Note_on_c, 1, 31, 0
1, 46096, Note_on_c, 9, 40, 105
1, 46098, Note_on_c, 9, 40, 0
1, 46102, Note_on_c, 7, 50, 0
1, 46102, Note_on_c, 4, 50, 0
1, 46104, Note_on_c, 4, 53, 117
1, 46104, Note_on_c, 7, 53, 127
1, 46112, Note_on_c, 9, 40, 98
1, 46114, Note_on_c, 9, 40, 0
1, 46128, Note_on_c, 2, 55, 76
1, 46128, Note_on_c, 4, 55, 107
1, 46128, Note_on_c, 6, 67, 46
1, 46128, Note_on_c, 7, 55, 117
1, 46128, Note_on_c, 9, 40, 122
1, 46130, Note_on_c, 9, 40, 0
1, 46130, Note_on_c, 4, 53, 0
1, 46130, Note_on_c, 7, 53, 0
1, 46135, Note_on_c, 6, 79, 0
1, 46135, Note_on_c, 2, 67, 0
1, 46139, Note_on_c, 2, 62, 0
1, 46139, Note_on_c, 6, 72, 0
1, 46139, Note_on_c, 6, 74, 0
1, 46139, Note_on_c, 2, 60, 0
1, 46143, Note_on_c, 6, 86, 0
1, 46143, Note_on_c, 2, 74, 0
1, 46144, Note_on_c, 9, 40, 105
1, 46146, Note_on_c, 9, 40, 0
1, 46152, Note_on_c, 4, 57, 107
1, 46152, Note_on_c, 7, 57, 117
1, 46154, Note_on_c, 7, 55, 0
1, 46154, Note_on_c, 4, 55, 0
1, 46160, Note_on_c, 9, 40, 103
1, 46162, Note_on_c, 9, 40, 0
1, 46174, Note_on_c, 4, 57, 0
1, 46174, Note_on_c, 7, 57, 0
1, 46176, Note_on_c, 1, 31, 88
1, 46176, Note_on_c, 2, 67, 80
1, 46176, Note_on_c, 2, 74, 88
1, 46176, Note_on_c, 2, 62, 88
1, 46176, Note_on_c, 4, 60, 107
1, 46176, Note_on_c, 6, 74, 58
1, 46176, Note_on_c, 6, 79, 50
1, 46176, Note_on_c, 6, 86, 58
1, 46176, Note_on_c, 7, 60, 117
1, 46176, Note_on_c, 9, 35, 75
1, 46176, Note_on_c, 9, 52, 88
1, 46178, Note_on_c, 9, 52, 0
1, 46178, Note_on_c, 9, 35, 0
1, 46187, Note_on_c, 2, 55, 0
1, 46187, Note_on_c, 6, 67, 0
1, 46198, Note_on_c, 7, 60, 0
1, 46198, Note_on_c, 4, 60, 0
1, 46200, Note_on_c, 4, 57, 94
1, 46200, Note_on_c, 7, 57, 104
1, 46222, Note_on_c, 7, 57, 0
1, 46222, Note_on_c, 4, 57, 0
1, 46222, Note_on_c, 1, 31, 0
1, 46224, Note_on_c, 1, 43, 88
1, 46224, Note_on_c, 2, 55, 60
1, 46224, Note_on_c, 4, 60, 107
1, 46224, Note_on_c, 6, 67, 30
1, 46224, Note_on_c, 7, 60, 117
1, 46224, Note_on_c, 9, 40, 122
1, 46226, Note_on_c, 9, 40, 0
1, 46240, Note_on_c, 9, 40, 105
1, 46242, Note_on_c, 9, 40, 0
1, 46247, Note_on_c, 4, 60, 0
1, 46247, Note_on_c, 7, 60, 0
1, 46248, Note_on_c, 4, 62, 98
1, 46248, Note_on_c, 7, 62, 108
1, 46253, Note_on_c, 2, 74, 0
1, 46253, Note_on_c, 6, 86, 0
1, 46254, Note_on_c, 2, 67, 0
1, 46254, Note_on_c, 6, 79, 0
1, 46256, Note_on_c, 9, 40, 105
1, 46258, Note_on_c, 9, 40, 0
1, 46266, Note_on_c, 6, 74, 0
1, 46266, Note_on_c, 2, 62, 0
1, 46270, Note_on_c, 4, 62, 0
1, 46270, Note_on_c, 7, 62, 0
1, 46272, Note_on_c, 4, 60, 107
1, 46272, Note_on_c, 7, 60, 117
1, 46272, Note_on_c, 9, 40, 117
1, 46273, Note_on_c, 2, 55, 0
1, 46273, Note_on_c, 6, 67, 0
1, 46274, Note_on_c, 9, 40, 0
1, 46288, Note_on_c, 9, 40, 98
1, 46290, Note_on_c, 9, 40, 0
1, 46292, Note_on_c, 1, 43, 0
1, 46296, Note_on_c, 4, 62, 102
1, 46296, Note_on_c, 7, 62, 112
1, 46300, Note_on_c, 7, 60, 0
1, 46300, Note_on_c, 4, 60, 0
1, 46304, Note_on_c, 9, 40, 92
1, 46306, Note_on_c, 9, 40, 0
1, 46318, Note_on_c, 4, 62, 0
1, 46318, Note_on_c, 7, 62, 0
1, 46320, Note_on_c, 1, 34, 108
1, 46320, Note_on_c, 2, 65, 88
1, 46320, Note_on_c, 2, 60, 66
1, 46320, Note_on_c, 2, 46, 72
1, 46320, Note_on_c, 2, 53, 84
1, 46320, Note_on_c, 4, 67, 98
1, 46320, Note_on_c, 6, 58, 42
1, 46320, Note_on_c, 6, 65, 54
1, 46320, Note_on_c, 6, 72, 36
1, 46320, Note_on_c, 6, 77, 58
1, 46320, Note_on_c, 7, 67, 108
1, 46320, Note_on_c, 9, 35, 75
1, 46320, Note_on_c, 9, 49, 82
1, 46322, Note_on_c, 9, 49, 0
1, 46322, Note_on_c, 9, 35, 0
1, 46342, Note_on_c, 4, 67, 0
1, 46342, Note_on_c, 7, 67, 0
1, 46344, Note_on_c, 4, 62, 90
1, 46344, Note_on_c, 7, 62, 100
1, 46368, Note_on_c, 7, 62, 0
1, 46368, Note_on_c, 4, 62, 0
1, 46368, Note_on_c, 4, 65, 112
1, 46368, Note_on_c, 7, 65, 122
1, 46368, Note_on_c, 9, 40, 111
1, 46368, Note_on_c, 9, 57, 67
1, 46370, Note_on_c, 9, 57, 0
1, 46370, Note_on_c, 9, 40, 0
1, 46380, Note_on_c, 2, 60, 0
1, 46380, Note_on_c, 6, 72, 0
1, 46383, Note_on_c, 2, 65, 0
1, 46383, Note_on_c, 6, 77, 0
1, 46384, Note_on_c, 6, 65, 0
1, 46384, Note_on_c, 2, 53, 0
1, 46385, Note_on_c, 1, 34, 0
1, 46387, Note_on_c, 2, 46, 0
1, 46387, Note_on_c, 6, 58, 0
1, 46390, Note_on_c, 7, 65, 0
1, 46390, Note_on_c, 4, 65, 0
1, 46392, Note_on_c, 1, 33, 104
1, 46392, Note_on_c, 2, 62, 80
1, 46392, Note_on_c, 2, 67, 88
1, 46392, Note_on_c, 2, 55, 68
1, 46392, Note_on_c, 2, 60, 72
1, 46392, Note_on_c, 2, 48, 76
1, 46392, Note_on_c, 4, 62, 102
1, 46392, Note_on_c, 6, 60, 46
1, 46392, Note_on_c, 6, 67, 38
1, 46392, Note_on_c, 6, 72, 42
1, 46392, Note_on_c, 6, 74, 50
1, 46392, Note_on_c, 6, 79, 58
1, 46392, Note_on_c, 7, 62, 112
1, 46392, Note_on_c, 9, 35, 75
1, 46394, Note_on_c, 9, 35, 0
1, 46414, Note_on_c, 7, 62, 0
1, 46414, Note_on_c, 4, 62, 0
1, 46416, Note_on_c, 4, 67, 117
1, 46416, Note_on_c, 7, 67, 127
1, 46416, Note_on_c, 9, 40, 111
1, 46416, Note_on_c, 9, 57, 75
1, 46418, Note_on_c, 9, 57, 0
1, 46418, Note_on_c, 9, 40, 0
1, 46438, Note_on_c, 4, 67, 0
1, 46438, Note_on_c, 7, 67, 0
1, 46439, Note_on_c, 2, 67, 0
1, 46439, Note_on_c, 6, 72, 0
1, 46439, Note_on_c, 6, 60, 0
1, 46439, Note_on_c, 2, 60, 0
1, 46439, Note_on_c, 6, 74, 0
1, 46439, Note_on_c, 2, 62, 0
1, 46440, Note_on_c, 4, 62, 86
1, 46440, Note_on_c, 7, 62, 96
1, 46450, Note_on_c, 6, 67, 0
1, 46450, Note_on_c, 2, 55, 0
1, 46458, Note_on_c, 1, 33, 0
1, 46462, Note_on_c, 4, 62, 0
1, 46462, Note_on_c, 7, 62, 0
1, 46464, Note_on_c, 1, 38, 100
1, 46464, Note_on_c, 2, 57, 24
1, 46464, Note_on_c, 4, 69, 112
1, 46464, Note_on_c, 4, 72, 98
1, 46464, Pitch_bend_c, 4, 8064
1, 46464, Note_on_c, 6, 62, 42
1, 46464, Note_on_c, 6, 69, 1
1, 46464, Note_on_c, 7, 69, 122
1, 46464, Note_on_c, 7, 72, 108
1, 46464, Pitch_bend_c, 7, 8064
1, 46464, Note_on_c, 9, 35, 75
1, 46464, Note_on_c, 9, 46, 51
1, 46464, Note_on_c, 9, 53, 74
1, 46466, Note_on_c, 9, 53, 0
1, 46466, Note_on_c, 9, 46, 0
1, 46466, Note_on_c, 9, 35, 0
1, 46466, Pitch_bend_c, 4, 7936
1, 46466, Pitch_bend_c, 7, 7936
1, 46467, Note_on_c, 2, 48, 0
1, 46469, Pitch_bend_c, 4, 7936
1, 46469, Pitch_bend_c, 7, 7936
1, 46472, Note_on_c, 6, 79, 0
1, 46472, Pitch_bend_c, 4, 8192
1, 46472, Pitch_bend_c, 7, 8192
1, 46505, Note_on_c, 1, 38, 0
1, 46510, Note_on_c, 4, 69, 0
1, 46510, Note_on_c, 7, 69, 0
1, 46510, Note_on_c, 7, 72, 0
1, 46510, Note_on_c, 4, 72, 0
1, 46512, Note_on_c, 1, 33, 86
1, 46512, Note_on_c, 2, 62, 56
1, 46512, Note_on_c, 4, 69, 117
1, 46512, Note_on_c, 4, 72, 112
1, 46512, Note_on_c, 6, 74, 26
1, 46512, Note_on_c, 7, 69, 127
1, 46512, Note_on_c, 7, 72, 122
1, 46512, Note_on_c, 9, 35, 64
1, 46512, Note_on_c, 9, 46, 51
1, 46512, Note_on_c, 9, 53, 50
1, 46514, Note_on_c, 9, 53, 0
1, 46514, Note_on_c, 9, 46, 0
1, 46514, Note_on_c, 9, 35, 0
1, 46527, Note_on_c, 6, 74, 0
1, 46527, Note_on_c, 2, 62, 0
1, 46535, Note_on_c, 6, 62, 0
1, 46552, Pitch_bend_c, 4, 7552
1, 46552, Pitch_bend_c, 7, 7552
1, 46554, Pitch_bend_c, 4, 4736
1, 46554, Pitch_bend_c, 7, 4736
1, 46557, Pitch_bend_c, 4, 1920
1, 46557, Pitch_bend_c, 7, 1920
1, 46558, Note_on_c, 7, 69, 0
1, 46558, Note_on_c, 4, 69, 0
1, 46558, Note_on_c, 7, 72, 0
1, 46558, Note_on_c, 4, 72, 0
1, 46560, Note_on_c, 1, 33, 0
1, 46560, Note_on_c, 1, 38, 108
1, 46560, Note_on_c, 2, 69, 88
1, 46560, Note_on_c, 2, 62, 84
1, 46560, Note_on_c, 2, 74, 80
1, 46560, Note_on_c, 4, 69, 117
1, 46560, Note_on_c, 4, 72, 107
1, 46560, Pitch_bend_c, 4, 1664
1, 46560, Note_on_c, 6, 74, 54
1, 46560, Note_on_c, 6, 81, 58
1, 46560, Note_on_c, 6, 86, 50
1, 46560, Note_on_c, 7, 69, 127
1, 46560, Note_on_c, 7, 72, 117
1, 46560, Pitch_bend_c, 7, 1664
1, 46560, Note_on_c, 9, 40, 105
1, 46560, Note_on_c, 9, 46, 51
1, 46560, Note_on_c, 9, 53, 87
1, 46562, Note_on_c, 9, 53, 0
1, 46562, Note_on_c, 9, 46, 0
1, 46562, Note_on_c, 9, 40, 0
1, 46564, Pitch_bend_c, 4, 2944
1, 46564, Pitch_bend_c, 7, 2944
1, 46568, Pitch_bend_c, 4, 5632
1, 46568, Pitch_bend_c, 7, 5632
1, 46572, Pitch_bend_c, 4, 6656
1, 46572, Pitch_bend_c, 7, 6656
1, 46573, Note_on_c, 6, 69, 0
1, 46573, Note_on_c, 2, 57, 0
1, 46575, Pitch_bend_c, 4, 7296
1, 46575, Pitch_bend_c, 7, 7296
1, 46581, Pitch_bend_c, 4, 7552
1, 46581, Pitch_bend_c, 7, 7552
1, 46582, Pitch_bend_c, 4, 7808
1, 46582, Pitch_bend_c, 7, 7808
1, 46584, Pitch_bend_c, 4, 8192
1, 46584, Pitch_bend_c, 7, 8192
1, 46587, Note_on_c, 1, 38, 0
1, 46606, Note_on_c, 4, 69, 0
1, 46606, Note_on_c, 4, 72, 0
1, 46606, Note_on_c, 7, 72, 0
1, 46606, Note_on_c, 7, 69, 0
1, 46608, Note_on_c, 2, 57, 21
1, 46608, Note_on_c, 4, 69, 102
1, 46608, Note_on_c, 4, 72, 94
1, 46608, Note_on_c, 6, 69, 1
1, 46608, Note_on_c, 7, 69, 112
1, 46608, Note_on_c, 7, 72, 104
1, 46608, Note_on_c, 9, 46, 51
1, 46608, Note_on_c, 9, 53, 25
1, 46610, Note_on_c, 9, 53, 0
1, 46610, Note_on_c, 2, 62, 0
1, 46610, Note_on_c, 9, 46, 0
1, 46610, Note_on_c, 6, 74, 0
1, 46626, Note_on_c, 6, 81, 0
1, 46626, Note_on_c, 2, 69, 0
1, 46632, Note_on_c, 1, 38, 86
1, 46632, Note_on_c, 2, 60, 56
1, 46632, Note_on_c, 2, 62, 56
1, 46632, Note_on_c, 2, 67, 66
1, 46632, Note_on_c, 6, 72, 26
1, 46632, Note_on_c, 6, 74, 26
1, 46632, Note_on_c, 6, 79, 36
1, 46632, Note_on_c, 9, 40, 90
1, 46633, Note_on_c, 2, 57, 0
1, 46633, Note_on_c, 6, 69, 0
1, 46634, Note_on_c, 9, 40, 0
1, 46652, Note_on_c, 1, 38, 0
1, 46654, Note_on_c, 4, 69, 0
1, 46654, Note_on_c, 7, 69, 0
1, 46654, Note_on_c, 4, 72, 0
1, 46654, Note_on_c, 7, 72, 0
1, 46656, Note_on_c, 1, 41, 104
1, 46656, Note_on_c, 4, 69, 117
1, 46656, Note_on_c, 4, 72, 107
1, 46656, Note_on_c, 7, 69, 127
1, 46656, Note_on_c, 7, 72, 117
1, 46656, Note_on_c, 9, 35, 75
1, 46656, Note_on_c, 9, 46, 51
1, 46656, Note_on_c, 9, 53, 56
1, 46658, Note_on_c, 9, 53, 0
1, 46658, Note_on_c, 9, 46, 0
1, 46658, Note_on_c, 9, 35, 0
1, 46672, Note_on_c, 1, 41, 0
1, 46680, Note_on_c, 1, 36, 96
1, 46700, Note_on_c, 1, 36, 0
1, 46702, Note_on_c, 4, 69, 0
1, 46702, Note_on_c, 4, 72, 0
1, 46702, Note_on_c, 7, 69, 0
1, 46702, Note_on_c, 7, 72, 0
1, 46704, Note_on_c, 1, 29, 100
1, 46704, Note_on_c, 4, 69, 117
1, 46704, Note_on_c, 4, 72, 107
1, 46704, Note_on_c, 7, 69, 127
1, 46704, Note_on_c, 7, 72, 117
1, 46704, Note_on_c, 9, 35, 59
1, 46704, Note_on_c, 9, 46, 51
1, 46704, Note_on_c, 9, 53, 42
1, 46706, Note_on_c, 9, 53, 0
1, 46706, Note_on_c, 9, 46, 0
1, 46706, Note_on_c, 9, 35, 0
1, 46713, Note_on_c, 2, 74, 0
1, 46713, Note_on_c, 6, 86, 0
1, 46715, Note_on_c, 6, 79, 0
1, 46715, Note_on_c, 2, 67, 0
1, 46716, Note_on_c, 6, 72, 0
1, 46716, Note_on_c, 2, 60, 0
1, 46717, Note_on_c, 6, 74, 0
1, 46717, Note_on_c, 2, 62, 0
1, 46737, Note_on_c, 1, 29, 0
1, 46741, Pitch_bend_c, 4, 7424
1, 46741, Pitch_bend_c, 7, 7424
1, 46743, Pitch_bend_c, 4, 5248
1, 46743, Pitch_bend_c, 7, 5248
1, 46746, Pitch_bend_c, 4, 3456
1, 46746, Pitch_bend_c, 7, 3456
1, 46750, Note_on_c, 7, 69, 0
1, 46750, Note_on_c, 4, 69, 0
1, 46750, Note_on_c, 4, 72, 0
1, 46750, Note_on_c, 7, 72, 0
1, 46750, Pitch_bend_c, 4, 3328
1, 46750, Pitch_bend_c, 7, 3328
1, 46752, Note_on_c, 1, 29, 104
1, 46752, Note_on_c, 2, 60, 72
1, 46752, Note_on_c, 2, 67, 84
1, 46752, Note_on_c, 2, 62, 60
1, 46752, Note_on_c, 2, 74, 80
1, 46752, Note_on_c, 4, 69, 112
1, 46752, Note_on_c, 4, 72, 107
1, 46752, Note_on_c, 6, 72, 42
1, 46752, Note_on_c, 6, 74, 30
1, 46752, Note_on_c, 6, 79, 54
1, 46752, Note_on_c, 6, 86, 50
1, 46752, Note_on_c, 7, 69, 122
1, 46752, Note_on_c, 7, 72, 117
1, 46752, Note_on_c, 9, 40, 105
1, 46752, Note_on_c, 9, 46, 51
1, 46752, Note_on_c, 9, 49, 66
1, 46752, Note_on_c, 9, 53, 74
1, 46754, Note_on_c, 9, 53, 0
1, 46754, Note_on_c, 9, 49, 0
1, 46754, Note_on_c, 9, 46, 0
1, 46754, Note_on_c, 9, 40, 0
1, 46754, Pitch_bend_c, 4, 4352
1, 46754, Pitch_bend_c, 7, 4352
1, 46757, Pitch_bend_c, 4, 6400
1, 46757, Pitch_bend_c, 7, 6400
1, 46761, Pitch_bend_c, 4, 6784
1, 46761, Pitch_bend_c, 7, 6784
1, 46764, Pitch_bend_c, 4, 7424
1, 46764, Pitch_bend_c, 7, 7424
1, 46767, Pitch_bend_c, 4, 7936
1, 46767, Pitch_bend_c, 7, 7936
1, 46771, Pitch_bend_c, 4, 8192
1, 46771, Pitch_bend_c, 7, 8192
1, 46798, Note_on_c, 7, 69, 0
1, 46798, Note_on_c, 4, 72, 0
1, 46798, Note_on_c, 4, 69, 0
1, 46798, Note_on_c, 7, 72, 0
1, 46800, Note_on_c, 4, 69, 112
1, 46800, Note_on_c, 4, 72, 107
1, 46800, Note_on_c, 7, 69, 122
1, 46800, Note_on_c, 7, 72, 117
1, 46800, Note_on_c, 9, 46, 51
1, 46800, Note_on_c, 9, 53, 4
1, 46802, Note_on_c, 9, 53, 0
1, 46802, Note_on_c, 9, 46, 0
1, 46835, Note_on_c, 1, 29, 0
1, 46846, Note_on_c, 4, 72, 0
1, 46846, Note_on_c, 4, 69, 0
1, 46846, Note_on_c, 7, 69, 0
1, 46846, Note_on_c, 7, 72, 0
1, 46846, Pitch_bend_c, 4, 7936
1, 46846, Pitch_bend_c, 7, 7936
1, 46848, Note_on_c, 1, 31, 100
1, 46848, Note_on_c, 2, 55, 66
1, 46848, Note_on_c, 4, 69, 117
1, 46848, Note_on_c, 4, 72, 107
1, 46848, Pitch_bend_c, 4, 7936
1, 46848, Note_on_c, 6, 67, 36
1, 46848, Note_on_c, 7, 69, 127
1, 46848, Note_on_c, 7, 72, 117
1, 46848, Pitch_bend_c, 7, 7936
1, 46848, Note_on_c, 9, 35, 75
1, 46848, Note_on_c, 9, 46, 51
1, 46848, Note_on_c, 9, 53, 50
1, 46850, Note_on_c, 9, 53, 0
1, 46850, Note_on_c, 9, 46, 0
1, 46850, Note_on_c, 9, 35, 0
1, 46852, Pitch_bend_c, 4, 8192
1, 46852, Pitch_bend_c, 7, 8192
1, 46862, Note_on_c, 6, 67, 0
1, 46862, Note_on_c, 2, 55, 0
1, 46876, Note_on_c, 1, 31, 0
1, 46894, Note_on_c, 4, 69, 0
1, 46894, Note_on_c, 7, 69, 0
1, 46894, Note_on_c, 4, 72, 0
1, 46894, Note_on_c, 7, 72, 0
1, 46896, Note_on_c, 1, 31, 96
1, 46896, Note_on_c, 2, 55, 92
1, 46896, Note_on_c, 4, 69, 112
1, 46896, Note_on_c, 4, 72, 102
1, 46896, Note_on_c, 6, 67, 62
1, 46896, Note_on_c, 7, 69, 122
1, 46896, Note_on_c, 7, 72, 112
1, 46896, Note_on_c, 9, 35, 61
1, 46896, Note_on_c, 9, 46, 51
1, 46896, Note_on_c, 9, 53, 48
1, 46898, Note_on_c, 9, 53, 0
1, 46898, Note_on_c, 9, 46, 0
1, 46898, Note_on_c, 9, 35, 0
1, 46903, Note_on_c, 6, 72, 0
1, 46903, Note_on_c, 2, 60, 0
1, 46904, Note_on_c, 2, 62, 0
1, 46904, Note_on_c, 6, 74, 0
1, 46905, Note_on_c, 6, 79, 0
1, 46905, Note_on_c, 2, 67, 0
1, 46911, Note_on_c, 6, 86, 0
1, 46911, Note_on_c, 2, 74, 0
1, 46932, Pitch_bend_c, 4, 6656
1, 46932, Pitch_bend_c, 7, 6656
1, 46935, Pitch_bend_c, 4, 5504
1, 46935, Pitch_bend_c, 7, 5504
1, 46939, Pitch_bend_c, 4, 4992
1, 46939, Pitch_bend_c, 7, 4992
1, 46942, Note_on_c, 7, 72, 0
1, 46942, Note_on_c, 4, 69, 0
1, 46942, Note_on_c, 7, 69, 0
1, 46942, Note_on_c, 4, 72, 0
1, 46942, Pitch_bend_c, 4, 6272
1, 46942, Pitch_bend_c, 7, 6272
1, 46944, Note_on_c, 2, 67, 88
1, 46944, Note_on_c, 2, 74, 84
1, 46944, Note_on_c, 2, 62, 80
1, 46944, Note_on_c, 4, 69, 117
1, 46944, Note_on_c, 4, 72, 98
1, 46944, Note_on_c, 6, 74, 50
1, 46944, Note_on_c, 6, 79, 58
1, 46944, Note_on_c, 6, 86, 54
1, 46944, Note_on_c, 7, 69, 127
1, 46944, Note_on_c, 7, 72, 108
1, 46944, Note_on_c, 9, 40, 105
1, 46944, Note_on_c, 9, 46, 51
1, 46944, Note_on_c, 9, 53, 62
1, 46946, Note_on_c, 9, 53, 0
1, 46946, Note_on_c, 9, 46, 0
1, 46946, Note_on_c, 9, 40, 0
1, 46946, Pitch_bend_c, 4, 7680
1, 46946, Pitch_bend_c, 7, 7680
1, 46949, Pitch_bend_c, 4, 7936
1, 46949, Pitch_bend_c, 7, 7936
1, 46950, Pitch_bend_c, 4, 8192
1, 46950, Pitch_bend_c, 7, 8192
1, 46957, Note_on_c, 6, 67, 0
1, 46957, Note_on_c, 2, 55, 0
1, 46990, Note_on_c, 4, 72, 0
1, 46990, Note_on_c, 7, 69, 0
1, 46990, Note_on_c, 7, 72, 0
1, 46990, Note_on_c, 4, 69, 0
1, 46992, Note_on_c, 2, 55, 64
1, 46992, Note_on_c, 4, 69, 98
1, 46992, Note_on_c, 4, 72, 102
1, 46992, Note_on_c, 6, 67, 34
1, 46992, Note_on_c, 7, 69, 108
1, 46992, Note_on_c, 7, 72, 112
1, 46992, Note_on_c, 9, 46, 51
1, 46992, Note_on_c, 9, 53, 29
1, 46994, Note_on_c, 9, 53, 0
1, 46994, Note_on_c, 9, 46, 0
1, 46996, Note_on_c, 6, 74, 0
1, 46996, Note_on_c, 2, 62, 0
1, 47008, Note_on_c, 2, 55, 0
1, 47008, Note_on_c, 6, 67, 0
1, 47009, Note_on_c, 6, 79, 0
1, 47009, Note_on_c, 2, 67, 0
1, 47011, Note_on_c, 2, 74, 0
1, 47011, Note_on_c, 6, 86, 0
1, 47016, Note_on_c, 2, 62, 80
1, 47016, Note_on_c, 6, 74, 50
1, 47024, Note_on_c, 1, 31, 0
1, 47030, Pitch_bend_c, 4, 5760
1, 47030, Pitch_bend_c, 7, 5760
1, 47033, Note_on_c, 2, 62, 0
1, 47033, Note_on_c, 6, 74, 0
1, 47033, Pitch_bend_c, 4, 3072
1, 47033, Pitch_bend_c, 7, 3072
1, 47037, Pitch_bend_c, 4, 2432
1, 47037, Pitch_bend_c, 7, 2432
1, 47038, Note_on_c, 7, 69, 0
1, 47038, Note_on_c, 4, 72, 0
1, 47038, Note_on_c, 7, 72, 0
1, 47038, Note_on_c, 4, 69, 0
1, 47040, Note_on_c, 1, 34, 108
1, 47040, Note_on_c, 4, 72, 90
1, 47040, Note_on_c, 7, 72, 100
1, 47040, Note_on_c, 9, 35, 75
1, 47040, Note_on_c, 9, 46, 51
1, 47040, Note_on_c, 9, 53, 48
1, 47041, Pitch_bend_c, 4, 3456
1, 47041, Pitch_bend_c, 7, 3456
1, 47042, Note_on_c, 9, 53, 0
1, 47042, Note_on_c, 9, 35, 0
1, 47042, Note_on_c, 9, 46, 0
1, 47044, Pitch_bend_c, 4, 4992
1, 47044, Pitch_bend_c, 7, 4992
1, 47047, Pitch_bend_c, 4, 8192
1, 47047, Pitch_bend_c, 7, 8192
1, 47064, Note_on_c, 2, 46, 64
1, 47064, Note_on_c, 4, 69, 112
1, 47064, Note_on_c, 6, 58, 34
1, 47064, Note_on_c, 7, 69, 122
1, 47071, Note_on_c, 4, 72, 0
1, 47071, Note_on_c, 7, 72, 0
1, 47083, Note_on_c, 4, 69, 0
1, 47083, Note_on_c, 7, 69, 0
1, 47088, Note_on_c, 1, 48, 84
1, 47088, Note_on_c, 2, 61, 107
1, 47088, Note_on_c, 2, 65, 84
1, 47088, Note_on_c, 2, 57, 62
1, 47088, Note_on_c, 4, 67, 117
1, 47088, Note_on_c, 6, 69, 32
1, 47088, Note_on_c, 6, 73, 77
1, 47088, Note_on_c, 6, 77, 54
1, 47088, Note_on_c, 7, 67, 127
1, 47088, Note_on_c, 9, 35, 61
1, 47088, Note_on_c, 9, 46, 51
1, 47088, Note_on_c, 9, 53, 56
1, 47090, Note_on_c, 9, 53, 0
1, 47090, Note_on_c, 9, 46, 0
1, 47090, Note_on_c, 9, 35, 0
1, 47099, Note_on_c, 2, 61, 0
1, 47099, Note_on_c, 6, 73, 0
1, 47106, Note_on_c, 1, 48, 0
1, 47108, Control_c, 4, 1, 8
1, 47108, Control_c, 7, 1, 8
1, 47109, Note_on_c, 1, 34, 0
1, 47111, Control_c, 4, 1, 25
1, 47111, Control_c, 7, 1, 25
1, 47112, Note_on_c, 1, 49, 84
1, 47112, Note_on_c, 2, 62, 56
1, 47112, Note_on_c, 6, 74, 26
1, 47115, Control_c, 4, 1, 34
1, 47115, Control_c, 7, 1, 34
1, 47120, Control_c, 4, 1, 40
1, 47120, Control_c, 7, 1, 40
1, 47124, Control_c, 4, 1, 49
1, 47124, Control_c, 7, 1, 49
1, 47128, Control_c, 4, 1, 55
1, 47128, Control_c, 7, 1, 55
1, 47134, Control_c, 4, 1, 56
1, 47134, Control_c, 7, 1, 56
1, 47136, Note_on_c, 1, 49, 0
1, 47136, Note_on_c, 1, 36, 80
1, 47136, Note_on_c, 1, 50, 96
1, 47136, Note_on_c, 2, 48, 76
1, 47136, Note_on_c, 6, 60, 46
1, 47136, Note_on_c, 9, 40, 105
1, 47136, Note_on_c, 9, 46, 51
1, 47136, Note_on_c, 9, 57, 87
1, 47138, Note_on_c, 9, 57, 0
1, 47138, Note_on_c, 9, 46, 0
1, 47138, Note_on_c, 9, 40, 0
1, 47138, Control_c, 4, 1, 58
1, 47138, Control_c, 7, 1, 58
1, 47141, Note_on_c, 6, 69, 0
1, 47141, Note_on_c, 2, 57, 0
1, 47147, Control_c, 4, 1, 59
1, 47147, Control_c, 7, 1, 59
1, 47150, Note_on_c, 2, 46, 0
1, 47150, Note_on_c, 6, 58, 0
1, 47157, Note_on_c, 2, 65, 0
1, 47157, Note_on_c, 6, 77, 0
1, 47158, Control_c, 4, 1, 60
1, 47158, Control_c, 7, 1, 60
1, 47160, Note_on_c, 2, 60, 92
1, 47160, Note_on_c, 2, 64, 68
1, 47160, Note_on_c, 2, 55, 66
1, 47160, Note_on_c, 6, 67, 36
1, 47160, Note_on_c, 6, 72, 62
1, 47160, Note_on_c, 6, 76, 38
1, 47161, Note_on_c, 6, 74, 0
1, 47161, Note_on_c, 2, 62, 0
1, 47163, Control_c, 4, 1, 59
1, 47163, Control_c, 7, 1, 59
1, 47164, Control_c, 4, 1, 56
1, 47164, Control_c, 7, 1, 56
1, 47169, Control_c, 4, 1, 46
1, 47169, Control_c, 7, 1, 46
1, 47174, Control_c, 4, 1, 29
1, 47174, Control_c, 7, 1, 29
1, 47178, Control_c, 4, 1, 3
1, 47178, Control_c, 7, 1, 3
1, 47182, Control_c, 4, 1, 0
1, 47182, Control_c, 7, 1, 0
1, 47184, Note_on_c, 4, 67, 0
1, 47184, Note_on_c, 7, 67, 0
1, 47184, Note_on_c, 2, 53, 64
1, 47184, Note_on_c, 4, 65, 102
1, 47184, Note_on_c, 6, 65, 34
1, 47184, Note_on_c, 7, 65, 112
1, 47184, Note_on_c, 9, 46, 51
1, 47184, Note_on_c, 9, 53, 36
1, 47186, Note_on_c, 9, 53, 0
1, 47186, Note_on_c, 9, 46, 0
1, 47200, Note_on_c, 1, 36, 0
1, 47205, Note_on_c, 2, 53, 0
1, 47205, Note_on_c, 6, 65, 0
1, 47207, Note_on_c, 2, 48, 0
1, 47207, Note_on_c, 6, 60, 0
1, 47208, Note_on_c, 4, 67, 107
1, 47208, Note_on_c, 7, 67, 117
1, 47208, Note_on_c, 9, 40, 90
1, 47209, Note_on_c, 1, 50, 0
1, 47210, Note_on_c, 9, 40, 0
1, 47214, Note_on_c, 4, 65, 0
1, 47214, Note_on_c, 7, 65, 0
1, 47224, Note_on_c, 6, 67, 0
1, 47224, Note_on_c, 2, 55, 0
1, 47225, Note_on_c, 7, 67, 0
1, 47225, Note_on_c, 4, 67, 0
1, 47231, Note_on_c, 2, 60, 0
1, 47231, Note_on_c, 6, 76, 0
1, 47231, Note_on_c, 6, 72, 0
1, 47231, Note_on_c, 2, 64, 0
1, 47232, Note_on_c, 1, 36, 82
1, 47232, Note_on_c, 2, 50, 88
1, 47232, Note_on_c, 4, 72, 117
1, 47232, Note_on_c, 6, 62, 58
1, 47232, Note_on_c, 7, 72, 127
1, 47232, Note_on_c, 9, 35, 75
1, 47232, Note_on_c, 9, 46, 51
1, 47232, Note_on_c, 9, 53, 56
1, 47234, Note_on_c, 9, 53, 0
1, 47234, Note_on_c, 9, 46, 0
1, 47234, Note_on_c, 9, 35, 0
1, 47254, Note_on_c, 1, 36, 0
1, 47256, Note_on_c, 1, 38, 96
1, 47256, Note_on_c, 4, 69, 117
1, 47256, Note_on_c, 7, 69, 127
1, 47260, Note_on_c, 2, 50, 0
1, 47260, Note_on_c, 6, 62, 0
1, 47264, Note_on_c, 7, 72, 0
1, 47264, Note_on_c, 4, 72, 0
1, 47277, Note_on_c, 1, 38, 0
1, 47280, Note_on_c, 1, 38, 104
1, 47280, Note_on_c, 2, 50, 66
1, 47280, Note_on_c, 6, 62, 36
1, 47280, Note_on_c, 9, 35, 56
1, 47280, Note_on_c, 9, 46, 51
1, 47280, Note_on_c, 9, 53, 36
1, 47282, Note_on_c, 9, 53, 0
1, 47282, Note_on_c, 9, 46, 0
1, 47282, Note_on_c, 9, 35, 0
1, 47302, Note_on_c, 7, 69, 0
1, 47302, Note_on_c, 4, 69, 0
1, 47304, Note_on_c, 4, 67, 86
1, 47304, Note_on_c, 7, 67, 96
1, 47326, Note_on_c, 7, 67, 0
1, 47326, Note_on_c, 4, 67, 0
1, 47328, Note_on_c, 2, 60, 88
1, 47328, Note_on_c, 2, 57, 80
1, 47328, Note_on_c, 2, 65, 84
1, 47328, Note_on_c, 4, 65, 112
1, 47328, Note_on_c, 6, 69, 50
1, 47328, Note_on_c, 6, 72, 58
1, 47328, Note_on_c, 6, 77, 54
1, 47328, Note_on_c, 7, 65, 122
1, 47328, Note_on_c, 9, 40, 105
1, 47328, Note_on_c, 9, 46, 51
1, 47328, Note_on_c, 9, 53, 74
1, 47330, Note_on_c, 9, 53, 0
1, 47330, Note_on_c, 9, 46, 0
1, 47330, Note_on_c, 9, 40, 0
1, 47350, Note_on_c, 4, 65, 0
1, 47350, Note_on_c, 7, 65, 0
1, 47352, Note_on_c, 4, 62, 102
1, 47352, Note_on_c, 7, 62, 112
1, 47356, Note_on_c, 1, 38, 0
1, 47374, Note_on_c, 7, 62, 0
1, 47374, Note_on_c, 4, 62, 0
1, 47376, Note_on_c, 1, 36, 80
1, 47376, Note_on_c, 2, 53, 34
1, 47376, Note_on_c, 4, 67, 117
1, 47376, Note_on_c, 6, 65, 4
1, 47376, Note_on_c, 7, 67, 127
1, 47376, Note_on_c, 9, 46, 51
1, 47376, Note_on_c, 9, 53, 30
1, 47378, Note_on_c, 9, 53, 0
1, 47378, Note_on_c, 9, 46, 0
1, 47380, Note_on_c, 2, 57, 0
1, 47380, Note_on_c, 6, 69, 0
1, 47383, Note_on_c, 2, 53, 0
1, 47383, Note_on_c, 6, 65, 0
1, 47398, Note_on_c, 4, 67, 0
1, 47398, Note_on_c, 7, 67, 0
1, 47400, Note_on_c, 1, 38, 108
1, 47400, Note_on_c, 2, 55, 66
1, 47400, Note_on_c, 4, 62, 102
1, 47400, Note_on_c, 6, 67, 36
1, 47400, Note_on_c, 7, 62, 112
1, 47402, Note_on_c, 6, 62, 0
1, 47402, Note_on_c, 2, 50, 0
1, 47405, Note_on_c, 1, 36, 0
1, 47409, Note_on_c, 6, 77, 0
1, 47409, Note_on_c, 2, 65, 0
1, 47422, Note_on_c, 4, 62, 0
1, 47422, Note_on_c, 7, 62, 0
1, 47424, Note_on_c, 1, 38, 0
1, 47424, Note_on_c, 1, 41, 100
1, 47424, Note_on_c, 4, 62, 117
1, 47424, Note_on_c, 7, 62, 127
1, 47424, Note_on_c, 9, 35, 75
1, 47424, Note_on_c, 9, 46, 51
1, 47424, Note_on_c, 9, 53, 48
1, 47426, Note_on_c, 9, 53, 0
1, 47426, Note_on_c, 9, 46, 0
1, 47426, Note_on_c, 9, 35, 0
1, 47450, Note_on_c, 1, 41, 0
1, 47465, Note_on_c, 6, 72, 0
1, 47465, Note_on_c, 2, 60, 0
1, 47472, Note_on_c, 1, 41, 96
1, 47472, Note_on_c, 2, 48, 72
1, 47472, Note_on_c, 6, 60, 42
1, 47472, Note_on_c, 9, 35, 56
1, 47472, Note_on_c, 9, 46, 51
1, 47472, Note_on_c, 9, 53, 34
1, 47474, Note_on_c, 9, 53, 0
1, 47474, Note_on_c, 9, 46, 0
1, 47474, Note_on_c, 9, 35, 0
1, 47475, Note_on_c, 2, 55, 0
1, 47475, Note_on_c, 6, 67, 0
1, 47507, Control_c, 4, 1, 3
1, 47507, Control_c, 7, 1, 3
1, 47511, Control_c, 4, 1, 10
1, 47511, Control_c, 7, 1, 10
1, 47516, Control_c, 4, 1, 15
1, 47516, Control_c, 7, 1, 15
1, 47520, Note_on_c, 2, 60, 84
1, 47520, Note_on_c, 2, 67, 97
1, 47520, Note_on_c, 2, 62, 92
1, 47520, Control_c, 4, 1, 22
1, 47520, Note_on_c, 6, 72, 54
1, 47520, Note_on_c, 6, 74, 62
1, 47520, Note_on_c, 6, 79, 67
1, 47520, Control_c, 7, 1, 22
1, 47520, Note_on_c, 9, 40, 105
1, 47520, Note_on_c, 9, 46, 51
1, 47520, Note_on_c, 9, 53, 66
1, 47522, Note_on_c, 9, 53, 0
1, 47522, Note_on_c, 9, 46, 0
1, 47522, Note_on_c, 9, 40, 0
1, 47525, Control_c, 4, 1, 30
1, 47525, Control_c, 7, 1, 30
1, 47529, Control_c, 4, 1, 37
1, 47529, Control_c, 7, 1, 37
1, 47533, Control_c, 4, 1, 44
1, 47533, Control_c, 7, 1, 44
1, 47539, Control_c, 4, 1, 47
1, 47539, Control_c, 7, 1, 47
1, 47544, Note_on_c, 1, 41, 0
1, 47544, Control_c, 4, 1, 48
1, 47544, Control_c, 7, 1, 48
1, 47550, Control_c, 4, 1, 49
1, 47550, Control_c, 7, 1, 49
1, 47553, Control_c, 4, 1, 50
1, 47553, Control_c, 7, 1, 50
1, 47559, Control_c, 4, 1, 51
1, 47559, Control_c, 7, 1, 51
1, 47567, Note_on_c, 2, 48, 0
1, 47567, Note_on_c, 6, 60, 0
1, 47568, Note_on_c, 1, 38, 100
1, 47568, Note_on_c, 2, 55, 62
1, 47568, Note_on_c, 6, 67, 32
1, 47568, Note_on_c, 9, 46, 51
1, 47568, Note_on_c, 9, 53, 30
1, 47570, Note_on_c, 9, 53, 0
1, 47570, Note_on_c, 9, 46, 0
1, 47571, Control_c, 4, 1, 49
1, 47571, Control_c, 7, 1, 49
1, 47575, Control_c, 4, 1, 46
1, 47575, Control_c, 7, 1, 46
1, 47579, Control_c, 4, 1, 42
1, 47579, Control_c, 7, 1, 42
1, 47583, Control_c, 4, 1, 39
1, 47583, Control_c, 7, 1, 39
1, 47585, Note_on_c, 2, 55, 0
1, 47585, Note_on_c, 6, 67, 0
1, 47588, Control_c, 4, 1, 36
1, 47588, Control_c, 7, 1, 36
1, 47590, Note_on_c, 1, 38, 0
1, 47592, Note_on_c, 1, 41, 84
1, 47592, Note_on_c, 2, 55, 54
1, 47592, Note_on_c, 6, 67, 24
1, 47594, Control_c, 4, 1, 34
1, 47594, Control_c, 7, 1, 34
1, 47597, Control_c, 4, 1, 27
1, 47597, Control_c, 7, 1, 27
1, 47601, Control_c, 4, 1, 9
1, 47601, Control_c, 7, 1, 9
1, 47606, Control_c, 4, 1, 0
1, 47606, Control_c, 7, 1, 0
1, 47607, Note_on_c, 7, 62, 0
1, 47607, Note_on_c, 4, 62, 0
1, 47611, Note_on_c, 2, 55, 0
1, 47611, Note_on_c, 6, 67, 0
1, 47615, Note_on_c, 1, 41, 0
1, 47616, Note_on_c, 1, 43, 84
1, 47616, Note_on_c, 4, 74, 102
1, 47616, Note_on_c, 7, 74, 112
1, 47616, Note_on_c, 9, 35, 75
1, 47616, Note_on_c, 9, 46, 51
1, 47616, Note_on_c, 9, 53, 52
1, 47618, Note_on_c, 9, 53, 0
1, 47618, Note_on_c, 9, 35, 0
1, 47618, Note_on_c, 9, 46, 0
1, 47632, Note_on_c, 4, 72, 112
1, 47632, Note_on_c, 7, 72, 122
1, 47636, Note_on_c, 7, 74, 0
1, 47636, Note_on_c, 4, 74, 0
1, 47642, Note_on_c, 1, 43, 0
1, 47647, Note_on_c, 4, 72, 0
1, 47647, Note_on_c, 7, 72, 0
1, 47647, Note_on_c, 6, 74, 0
1, 47647, Note_on_c, 2, 62, 0
1, 47648, Note_on_c, 4, 69, 102
1, 47648, Note_on_c, 7, 69, 112
1, 47652, Note_on_c, 6, 72, 0
1, 47652, Note_on_c, 2, 60, 0
1, 47654, Note_on_c, 2, 67, 0
1, 47654, Note_on_c, 6, 79, 0
1, 47662, Note_on_c, 7, 69, 0
1, 47662, Note_on_c, 4, 69, 0
1, 47664, Note_on_c, 1, 43, 88
1, 47664, Note_on_c, 2, 55, 68
1, 47664, Note_on_c, 4, 74, 98
1, 47664, Note_on_c, 6, 67, 38
1, 47664, Note_on_c, 7, 74, 108
1, 47664, Note_on_c, 9, 35, 54
1, 47664, Note_on_c, 9, 46, 51
1, 47664, Note_on_c, 9, 53, 44
1, 47666, Note_on_c, 9, 53, 0
1, 47666, Note_on_c, 9, 46, 0
1, 47666, Note_on_c, 9, 35, 0
1, 47680, Note_on_c, 4, 72, 112
1, 47680, Note_on_c, 7, 72, 122
1, 47685, Note_on_c, 4, 74, 0
1, 47685, Note_on_c, 7, 74, 0
1, 47696, Note_on_c, 4, 72, 0
1, 47696, Note_on_c, 7, 72, 0
1, 47696, Note_on_c, 4, 69, 107
1, 47696, Note_on_c, 7, 69, 117
1, 47710, Note_on_c, 7, 69, 0
1, 47710, Note_on_c, 4, 69, 0
1, 47712, Note_on_c, 2, 57, 72
1, 47712, Note_on_c, 2, 59, 88
1, 47712, Note_on_c, 2, 62, 97
1, 47712, Note_on_c, 2, 67, 88
1, 47712, Note_on_c, 4, 74, 117
1, 47712, Note_on_c, 6, 69, 42
1, 47712, Note_on_c, 6, 71, 58
1, 47712, Note_on_c, 6, 74, 67
1, 47712, Note_on_c, 6, 79, 58
1, 47712, Note_on_c, 7, 74, 127
1, 47712, Note_on_c, 9, 40, 105
1, 47712, Note_on_c, 9, 46, 51
1, 47712, Note_on_c, 9, 53, 54
1, 47714, Note_on_c, 9, 53, 0
1, 47714, Note_on_c, 9, 46, 0
1, 47714, Note_on_c, 9, 40, 0
1, 47727, Note_on_c, 6, 67, 0
1, 47727, Note_on_c, 2, 55, 0
1, 47728, Note_on_c, 4, 72, 117
1, 47728, Note_on_c, 7, 72, 127
1, 47734, Note_on_c, 4, 74, 0
1, 47734, Note_on_c, 7, 74, 0
1, 47743, Note_on_c, 4, 72, 0
1, 47743, Note_on_c, 7, 72, 0
1, 47744, Note_on_c, 4, 69, 102
1, 47744, Note_on_c, 7, 69, 112
1, 47758, Note_on_c, 7, 69, 0
1, 47758, Note_on_c, 4, 69, 0
1, 47758, Note_on_c, 1, 43, 0
1, 47760, Note_on_c, 1, 41, 84
1, 47760, Note_on_c, 2, 55, 54
1, 47760, Note_on_c, 4, 74, 107
1, 47760, Note_on_c, 6, 67, 24
1, 47760, Note_on_c, 7, 74, 117
1, 47760, Note_on_c, 9, 46, 51
1, 47760, Note_on_c, 9, 53, 48
1, 47762, Note_on_c, 9, 53, 0
1, 47762, Note_on_c, 9, 46, 0
1, 47776, Note_on_c, 2, 57, 0
1, 47776, Note_on_c, 6, 69, 0
1, 47776, Note_on_c, 4, 72, 112
1, 47776, Note_on_c, 7, 72, 122
1, 47778, Note_on_c, 1, 41, 0
1, 47781, Note_on_c, 4, 74, 0
1, 47781, Note_on_c, 7, 74, 0
1, 47783, Note_on_c, 2, 67, 0
1, 47783, Note_on_c, 6, 79, 0
1, 47784, Note_on_c, 6, 71, 0
1, 47784, Note_on_c, 2, 59, 0
1, 47784, Note_on_c, 1, 38, 72
1, 47784, Note_on_c, 2, 53, 66
1, 47784, Note_on_c, 6, 65, 36
1, 47791, Note_on_c, 6, 67, 0
1, 47791, Note_on_c, 2, 62, 0
1, 47791, Note_on_c, 6, 74, 0
1, 47791, Note_on_c, 2, 55, 0
1, 47792, Note_on_c, 4, 69, 102
1, 47792, Note_on_c, 7, 69, 112
1, 47793, Note_on_c, 7, 72, 0
1, 47793, Note_on_c, 4, 72, 0
1, 47802, Note_on_c, 6, 65, 0
1, 47802, Note_on_c, 2, 53, 0
1, 47806, Note_on_c, 4, 69, 0
1, 47806, Note_on_c, 7, 69, 0
1, 47808, Note_on_c, 1, 34, 96
1, 47808, Note_on_c, 2, 58, 88
1, 47808, Note_on_c, 2, 62, 97
1, 47808, Note_on_c, 2, 65, 97
1, 47808, Note_on_c, 2, 57, 76
1, 47808, Note_on_c, 4, 74, 112
1, 47808, Note_on_c, 6, 69, 46
1, 47808, Note_on_c, 6, 70, 58
1, 47808, Note_on_c, 6, 74, 67
1, 47808, Note_on_c, 6, 77, 67
1, 47808, Note_on_c, 7, 74, 122
1, 47808, Note_on_c, 9, 35, 75
1, 47808, Note_on_c, 9, 46, 51
1, 47808, Note_on_c, 9, 49, 70
1, 47810, Note_on_c, 9, 49, 0
1, 47810, Note_on_c, 9, 46, 0
1, 47810, Note_on_c, 9, 35, 0
1, 47817, Note_on_c, 1, 38, 0
1, 47824, Note_on_c, 4, 72, 112
1, 47824, Note_on_c, 7, 72, 122
1, 47827, Note_on_c, 4, 74, 0
1, 47827, Note_on_c, 7, 74, 0
1, 47840, Note_on_c, 4, 72, 0
1, 47840, Note_on_c, 7, 72, 0
1, 47840, Note_on_c, 4, 69, 102
1, 47840, Note_on_c, 7, 69, 112
1, 47854, Note_on_c, 7, 69, 0
1, 47854, Note_on_c, 4, 69, 0
1, 47856, Note_on_c, 2, 46, 66
1, 47856, Note_on_c, 4, 74, 107
1, 47856, Note_on_c, 6, 58, 36
1, 47856, Note_on_c, 7, 74, 117
1, 47856, Note_on_c, 9, 35, 54
1, 47856, Note_on_c, 9, 46, 51
1, 47856, Note_on_c, 9, 53, 34
1, 47858, Note_on_c, 9, 53, 0
1, 47858, Note_on_c, 9, 46, 0
1, 47858, Note_on_c, 9, 35, 0
1, 47872, Note_on_c, 4, 72, 112
1, 47872, Note_on_c, 7, 72, 122
1, 47876, Note_on_c, 4, 74, 0
1, 47876, Note_on_c, 7, 74, 0
1, 47885, Note_on_c, 6, 69, 0
1, 47885, Note_on_c, 6, 70, 0
1, 47885, Note_on_c, 2, 58, 0
1, 47885, Note_on_c, 2, 57, 0
1, 47888, Note_on_c, 4, 69, 112
1, 47888, Note_on_c, 7, 69, 122
1, 47889, Note_on_c, 4, 72, 0
1, 47889, Note_on_c, 7, 72, 0
1, 47895, Note_on_c, 2, 62, 0
1, 47895, Note_on_c, 6, 74, 0
1, 47898, Note_on_c, 2, 65, 0
1, 47898, Note_on_c, 6, 77, 0
1, 47902, Note_on_c, 1, 34, 0
1, 47902, Note_on_c, 4, 69, 0
1, 47902, Note_on_c, 7, 69, 0
1, 47904, Note_on_c, 1, 33, 84
1, 47904, Note_on_c, 2, 48, 66
1, 47904, Note_on_c, 2, 64, 84
1, 47904, Note_on_c, 2, 60, 84
1, 47904, Note_on_c, 2, 55, 64
1, 47904, Note_on_c, 4, 72, 117
1, 47904, Note_on_c, 6, 60, 36
1, 47904, Note_on_c, 6, 67, 34
1, 47904, Note_on_c, 6, 72, 54
1, 47904, Note_on_c, 6, 76, 54
1, 47904, Note_on_c, 7, 72, 127
1, 47904, Note_on_c, 9, 40, 105
1, 47904, Note_on_c, 9, 46, 51
1, 47904, Note_on_c, 9, 57, 79
1, 47906, Note_on_c, 9, 57, 0
1, 47906, Note_on_c, 9, 46, 0
1, 47906, Note_on_c, 9, 40, 0
1, 47913, Note_on_c, 6, 58, 0
1, 47913, Note_on_c, 2, 46, 0
1, 47922, Note_on_c, 6, 60, 0
1, 47922, Note_on_c, 2, 48, 0
1, 47928, Note_on_c, 4, 72, 0
1, 47928, Note_on_c, 7, 72, 0
1, 47928, Note_on_c, 4, 74, 98
1, 47928, Note_on_c, 7, 74, 108
1, 47939, Note_on_c, 7, 74, 0
1, 47939, Note_on_c, 4, 74, 0
1, 47952, Note_on_c, 2, 48, 54
1, 47952, Note_on_c, 4, 74, 112
1, 47952, Note_on_c, 6, 60, 24
1, 47952, Note_on_c, 7, 74, 122
1, 47952, Note_on_c, 9, 45, 75
1, 47952, Note_on_c, 9, 46, 51
1, 47952, Note_on_c, 9, 53, 34
1, 47954, Note_on_c, 9, 53, 0
1, 47954, Note_on_c, 9, 46, 0
1, 47954, Note_on_c, 9, 45, 0
1, 47962, Note_on_c, 1, 33, 0
1, 47976, Note_on_c, 1, 33, 84
1, 47976, Note_on_c, 4, 72, 117
1, 47976, Note_on_c, 7, 72, 127
1, 47976, Note_on_c, 9, 43, 75
1, 47978, Note_on_c, 9, 43, 0
1, 47983, Note_on_c, 4, 74, 0
1, 47983, Note_on_c, 7, 74, 0
1, 47987, Note_on_c, 2, 55, 0
1, 47987, Note_on_c, 6, 67, 0
1, 47988, Note_on_c, 2, 48, 0
1, 47988, Note_on_c, 6, 60, 0
1, 47989, Note_on_c, 4, 72, 0
1, 47989, Note_on_c, 7, 72, 0
1, 47993, Note_on_c, 1, 33, 0
1, 47995, Note_on_c, 6, 72, 0
1, 47995, Note_on_c, 2, 60, 0
1, 47996, Note_on_c, 6, 76, 0
1, 47996, Note_on_c, 2, 64, 0
1, 48000, Note_on_c, 1, 38, 100
1, 48000, Note_on_c, 2, 50, 72
1, 48000, Note_on_c, 6, 62, 42
1, 48000, Note_on_c, 9, 35, 75
1, 48000, Note_on_c, 9, 46, 51
1, 48000, Note_on_c, 9, 49, 54
1, 48002, Note_on_c, 9, 49, 0
1, 48002, Note_on_c, 9, 35, 0
1, 48002, Note_on_c, 9, 46, 0
1, 48021, Note_on_c, 1, 38, 0
1, 48022, Pitch_bend_c, 4, 7424
1, 48022, Pitch_bend_c, 7, 7424
1, 48024, Note_on_c, 4, 69, 117
1, 48024, Pitch_bend_c, 4, 4608
1, 48024, Note_on_c, 7, 69, 127
1, 48024, Pitch_bend_c, 7, 4608
1, 48027, Pitch_bend_c, 4, 2432
1, 48027, Pitch_bend_c, 7, 2432
1, 48030, Pitch_bend_c, 4, 1536
1, 48030, Pitch_bend_c, 7, 1536
1, 48035, Pitch_bend_c, 4, 2304
1, 48035, Pitch_bend_c, 7, 2304
1, 48037, Pitch_bend_c, 4, 4992
1, 48037, Pitch_bend_c, 7, 4992
1, 48041, Pitch_bend_c, 4, 7424
1, 48041, Pitch_bend_c, 7, 7424
1, 48044, Note_on_c, 7, 69, 0
1, 48044, Note_on_c, 4, 69, 0
1, 48044, Pitch_bend_c, 4, 8192
1, 48044, Pitch_bend_c, 7, 8192
1, 48048, Note_on_c, 1, 38, 104
1, 48048, Note_on_c, 2, 62, 42
1, 48048, Note_on_c, 4, 72, 102
1, 48048, Note_on_c, 6, 74, 12
1, 48048, Note_on_c, 7, 72, 112
1, 48048, Note_on_c, 9, 35, 64
1, 48048, Note_on_c, 9, 46, 51
1, 48048, Note_on_c, 9, 53, 48
1, 48050, Note_on_c, 9, 53, 0
1, 48050, Note_on_c, 9, 46, 0
1, 48050, Note_on_c, 9, 35, 0
1, 48056, Note_on_c, 6, 74, 0
1, 48056, Note_on_c, 2, 62, 0
1, 48072, Note_on_c, 4, 69, 90
1, 48072, Note_on_c, 7, 69, 100
1, 48073, Note_on_c, 4, 72, 0
1, 48073, Note_on_c, 7, 72, 0
1, 48082, Note_on_c, 4, 69, 0
1, 48082, Note_on_c, 7, 69, 0
1, 48096, Note_on_c, 2, 62, 76
1, 48096, Note_on_c, 2, 69, 97
1, 48096, Note_on_c, 2, 57, 50
1, 48096, Note_on_c, 2, 74, 84
1, 48096, Note_on_c, 4, 67, 114
1, 48096, Note_on_c, 6, 69, 20
1, 48096, Note_on_c, 6, 74, 46
1, 48096, Note_on_c, 6, 81, 67
1, 48096, Note_on_c, 6, 86, 54
1, 48096, Note_on_c, 7, 67, 124
1, 48096, Note_on_c, 9, 40, 105
1, 48096, Note_on_c, 9, 46, 51
1, 48096, Note_on_c, 9, 53, 56
1, 48098, Note_on_c, 9, 53, 0
1, 48098, Note_on_c, 9, 46, 0
1, 48098, Note_on_c, 9, 40, 0
1, 48113, Note_on_c, 4, 67, 0
1, 48113, Note_on_c, 7, 67, 0
1, 48117, Note_on_c, 6, 69, 0
1, 48117, Note_on_c, 2, 57, 0
1, 48120, Note_on_c, 4, 69, 114
1, 48120, Note_on_c, 7, 69, 124
1, 48123, Note_on_c, 7, 69, 0
1, 48123, Note_on_c, 4, 69, 0
1, 48144, Note_on_c, 4, 69, 115
1, 48144, Note_on_c, 7, 69, 125
1, 48144, Note_on_c, 9, 46, 51
1, 48144, Note_on_c, 9, 49, 66
1, 48144, Note_on_c, 9, 53, 76
1, 48145, Note_on_c, 1, 38, 0
1, 48146, Note_on_c, 9, 53, 0
1, 48146, Note_on_c, 9, 46, 0
1, 48146, Note_on_c, 9, 49, 0
1, 48153, Pitch_bend_c, 4, 10662
1, 48153, Pitch_bend_c, 7, 10662
1, 48155, Note_on_c, 6, 74, 0
1, 48155, Note_on_c, 2, 62, 0
1, 48156, Pitch_bend_c, 4, 15082
1, 48156, Pitch_bend_c, 7, 15082
1, 48158, Note_on_c, 4, 69, 0
1, 48158, Note_on_c, 7, 69, 0
1, 48160, Note_on_c, 4, 67, 117
1, 48160, Pitch_bend_c, 4, 15472
1, 48160, Note_on_c, 7, 67, 127
1, 48160, Pitch_bend_c, 7, 15472
1, 48164, Pitch_bend_c, 4, 14042
1, 48164, Pitch_bend_c, 7, 14042
1, 48167, Pitch_bend_c, 4, 11442
1, 48167, Pitch_bend_c, 7, 11442
1, 48168, Note_on_c, 2, 60, 54
1, 48168, Note_on_c, 2, 62, 52
1, 48168, Note_on_c, 2, 67, 66
1, 48168, Note_on_c, 6, 72, 24
1, 48168, Note_on_c, 6, 74, 22
1, 48168, Note_on_c, 6, 79, 36
1, 48168, Note_on_c, 9, 40, 90
1, 48170, Note_on_c, 9, 40, 0
1, 48170, Pitch_bend_c, 4, 8192
1, 48170, Pitch_bend_c, 7, 8192
1, 48172, Note_on_c, 2, 50, 0
1, 48172, Note_on_c, 6, 62, 0
1, 48174, Note_on_c, 7, 67, 0
1, 48174, Note_on_c, 6, 81, 0
1, 48174, Note_on_c, 2, 69, 0
1, 48174, Note_on_c, 4, 67, 0
1, 48176, Note_on_c, 4, 65, 112
1, 48176, Note_on_c, 7, 65, 122
1, 48190, Note_on_c, 7, 65, 0
1, 48190, Note_on_c, 4, 65, 0
1, 48192, Note_on_c, 1, 40, 88
1, 48192, Note_on_c, 2, 55, 68
1, 48192, Note_on_c, 4, 67, 107
1, 48192, Note_on_c, 6, 67, 38
1, 48192, Note_on_c, 7, 67, 117
1, 48192, Note_on_c, 9, 35, 75
1, 48192, Note_on_c, 9, 46, 51
1, 48192, Note_on_c, 9, 53, 54
1, 48194, Note_on_c, 9, 53, 0
1, 48194, Note_on_c, 9, 46, 0
1, 48194, Note_on_c, 9, 35, 0
1, 48214, Note_on_c, 4, 67, 0
1, 48214, Note_on_c, 7, 67, 0
1, 48216, Note_on_c, 4, 67, 102
1, 48216, Note_on_c, 7, 67, 112
1, 48220, Note_on_c, 2, 55, 0
1, 48220, Note_on_c, 6, 67, 0
1, 48231, Note_on_c, 4, 67, 0
1, 48231, Note_on_c, 7, 67, 0
1, 48235, Note_on_c, 1, 40, 0
1, 48240, Note_on_c, 1, 38, 88
1, 48240, Note_on_c, 2, 48, 66
1, 48240, Note_on_c, 4, 65, 98
1, 48240, Note_on_c, 6, 60, 36
1, 48240, Note_on_c, 7, 65, 108
1, 48240, Note_on_c, 9, 35, 59
1, 48240, Note_on_c, 9, 46, 51
1, 48240, Note_on_c, 9, 53, 54
1, 48242, Note_on_c, 9, 53, 0
1, 48242, Note_on_c, 9, 46, 0
1, 48242, Note_on_c, 9, 35, 0
1, 48247, Note_on_c, 6, 72, 0
1, 48247, Note_on_c, 2, 60, 0
1, 48248, Note_on_c, 6, 74, 0
1, 48248, Note_on_c, 6, 79, 0
1, 48248, Note_on_c, 2, 67, 0
1, 48248, Note_on_c, 2, 62, 0
1, 48253, Note_on_c, 2, 74, 0
1, 48253, Note_on_c, 6, 86, 0
1, 48260, Note_on_c, 4, 65, 0
1, 48260, Note_on_c, 7, 65, 0
1, 48264, Note_on_c, 4, 62, 90
1, 48264, Note_on_c, 7, 62, 100
1, 48280, Note_on_c, 1, 38, 0
1, 48288, Note_on_c, 1, 36, 78
1, 48288, Note_on_c, 2, 62, 52
1, 48288, Note_on_c, 2, 60, 64
1, 48288, Note_on_c, 2, 74, 88
1, 48288, Note_on_c, 2, 67, 88
1, 48288, Note_on_c, 4, 69, 102
1, 48288, Note_on_c, 4, 74, 117
1, 48288, Note_on_c, 6, 72, 34
1, 48288, Note_on_c, 6, 74, 22
1, 48288, Note_on_c, 6, 79, 58
1, 48288, Note_on_c, 6, 86, 58
1, 48288, Note_on_c, 7, 69, 112
1, 48288, Note_on_c, 7, 74, 127
1, 48288, Note_on_c, 9, 40, 105
1, 48288, Note_on_c, 9, 46, 51
1, 48288, Note_on_c, 9, 53, 52
1, 48290, Note_on_c, 9, 53, 0
1, 48290, Note_on_c, 9, 46, 0
1, 48290, Note_on_c, 9, 40, 0
1, 48295, Note_on_c, 4, 62, 0
1, 48295, Note_on_c, 7, 62, 0
1, 48310, Note_on_c, 7, 69, 0
1, 48310, Note_on_c, 7, 74, 0
1, 48310, Note_on_c, 4, 74, 0
1, 48310, Note_on_c, 4, 69, 0
1, 48312, Note_on_c, 4, 69, 117
1, 48312, Note_on_c, 4, 74, 117
1, 48312, Note_on_c, 7, 69, 127
1, 48312, Note_on_c, 7, 74, 127
1, 48312, Note_on_c, 9, 57, 80
1, 48314, Note_on_c, 9, 57, 0
1, 48315, Note_on_c, 2, 48, 0
1, 48315, Note_on_c, 6, 60, 0
1, 48334, Note_on_c, 7, 69, 0
1, 48334, Note_on_c, 4, 74, 0
1, 48334, Note_on_c, 4, 69, 0
1, 48334, Note_on_c, 7, 74, 0
1, 48336, Note_on_c, 2, 55, 25
1, 48336, Note_on_c, 4, 69, 102
1, 48336, Note_on_c, 4, 74, 100
1, 48336, Note_on_c, 6, 67, 1
1, 48336, Note_on_c, 7, 69, 112
1, 48336, Note_on_c, 7, 74, 110
1, 48336, Note_on_c, 9, 46, 51
1, 48337, Note_on_c, 2, 62, 0
1, 48337, Note_on_c, 6, 72, 0
1, 48337, Note_on_c, 2, 60, 0
1, 48337, Note_on_c, 6, 74, 0
1, 48338, Note_on_c, 9, 46, 0
1, 48349, Note_on_c, 2, 55, 0
1, 48349, Note_on_c, 6, 67, 0
1, 48349, Control_c, 4, 1, 19
1, 48349, Control_c, 7, 1, 19
1, 48353, Control_c, 4, 1, 42
1, 48353, Control_c, 7, 1, 42
1, 48357, Control_c, 4, 1, 60
1, 48357, Control_c, 7, 1, 60
1, 48360, Note_on_c, 2, 62, 66
1, 48360, Note_on_c, 6, 74, 36
1, 48362, Control_c, 4, 1, 70
1, 48362, Control_c, 7, 1, 70
1, 48366, Control_c, 4, 1, 69
1, 48366, Control_c, 7, 1, 69
1, 48367, Note_on_c, 1, 36, 0
1, 48371, Control_c, 4, 1, 57
1, 48371, Control_c, 7, 1, 57
1, 48375, Note_on_c, 4, 74, 0
1, 48375, Note_on_c, 4, 69, 0
1, 48375, Note_on_c, 7, 69, 0
1, 48375, Note_on_c, 7, 74, 0
1, 48375, Control_c, 4, 1, 25
1, 48375, Control_c, 7, 1, 25
1, 48380, Control_c, 4, 1, 0
1, 48380, Control_c, 7, 1, 0
1, 48384, Note_on_c, 1, 35, 100
1, 48384, Note_on_c, 2, 55, 60
1, 48384, Note_on_c, 2, 47, 64
1, 48384, Note_on_c, 6, 59, 34
1, 48384, Note_on_c, 6, 67, 30
1, 48384, Note_on_c, 9, 35, 75
1, 48384, Note_on_c, 9, 46, 51
1, 48384, Note_on_c, 9, 53, 68
1, 48386, Note_on_c, 9, 53, 0
1, 48386, Note_on_c, 9, 46, 0
1, 48386, Note_on_c, 9, 35, 0
1, 48412, Note_on_c, 2, 55, 0
1, 48412, Note_on_c, 6, 67, 0
1, 48417, Note_on_c, 1, 35, 0
1, 48432, Note_on_c, 1, 33, 82
1, 48432, Note_on_c, 2, 55, 62
1, 48432, Note_on_c, 6, 67, 32
1, 48432, Note_on_c, 9, 35, 61
1, 48432, Note_on_c, 9, 46, 51
1, 48432, Note_on_c, 9, 53, 60
1, 48434, Note_on_c, 9, 53, 0
1, 48434, Note_on_c, 9, 46, 0
1, 48434, Note_on_c, 9, 35, 0
1, 48437, Note_on_c, 6, 79, 0
1, 48437, Note_on_c, 2, 67, 0
1, 48440, Note_on_c, 2, 62, 0
1, 48440, Note_on_c, 6, 86, 0
1, 48440, Note_on_c, 6, 74, 0
1, 48440, Note_on_c, 2, 74, 0
1, 48477, Note_on_c, 1, 33, 0
1, 48478, Note_on_c, 2, 55, 0
1, 48478, Note_on_c, 6, 67, 0
1, 48480, Note_on_c, 1, 31, 86
1, 48480, Note_on_c, 2, 62, 92
1, 48480, Note_on_c, 2, 67, 84
1, 48480, Note_on_c, 2, 74, 84
1, 48480, Note_on_c, 6, 74, 62
1, 48480, Note_on_c, 6, 79, 54
1, 48480, Note_on_c, 6, 86, 54
1, 48480, Note_on_c, 9, 40, 105
1, 48480, Note_on_c, 9, 46, 51
1, 48480, Note_on_c, 9, 53, 80
1, 48482, Note_on_c, 9, 53, 0
1, 48482, Note_on_c, 9, 40, 0
1, 48482, Note_on_c, 9, 46, 0
1, 48512, Note_on_c, 4, 69, 117
1, 48512, Note_on_c, 7, 69, 127
1, 48528, Note_on_c, 2, 55, 52
1, 48528, Note_on_c, 6, 67, 22
1, 48528, Note_on_c, 9, 46, 51
1, 48528, Note_on_c, 9, 53, 50
1, 48530, Note_on_c, 9, 53, 0
1, 48530, Note_on_c, 9, 46, 0
1, 48536, Note_on_c, 2, 67, 0
1, 48536, Note_on_c, 6, 79, 0
1, 48537, Note_on_c, 2, 62, 0
1, 48537, Note_on_c, 6, 74, 0
1, 48539, Note_on_c, 7, 69, 0
1, 48539, Note_on_c, 4, 69, 0
1, 48544, Note_on_c, 4, 77, 117
1, 48544, Note_on_c, 7, 77, 127
1, 48546, Note_on_c, 6, 59, 0
1, 48546, Note_on_c, 2, 47, 0
1, 48552, Note_on_c, 2, 62, 68
1, 48552, Note_on_c, 2, 60, 64
1, 48552, Note_on_c, 6, 72, 34
1, 48552, Note_on_c, 6, 74, 38
1, 48570, Note_on_c, 1, 31, 0
1, 48571, Note_on_c, 4, 77, 0
1, 48571, Note_on_c, 7, 77, 0
1, 48576, Note_on_c, 6, 67, 0
1, 48576, Note_on_c, 2, 55, 0
1, 48576, Note_on_c, 1, 34, 100
1, 48576, Note_on_c, 2, 65, 66
1, 48576, Note_on_c, 2, 46, 60
1, 48576, Note_on_c, 2, 53, 76
1, 48576, Note_on_c, 4, 74, 107
1, 48576, Note_on_c, 6, 58, 30
1, 48576, Note_on_c, 6, 65, 46
1, 48576, Note_on_c, 6, 77, 36
1, 48576, Note_on_c, 7, 74, 117
1, 48576, Note_on_c, 9, 35, 75
1, 48576, Note_on_c, 9, 46, 51
1, 48576, Note_on_c, 9, 53, 88
1, 48578, Note_on_c, 9, 53, 0
1, 48578, Note_on_c, 9, 46, 0
1, 48578, Note_on_c, 9, 35, 0
1, 48601, Note_on_c, 6, 74, 0
1, 48601, Note_on_c, 2, 62, 0
1, 48608, Note_on_c, 4, 77, 112
1, 48608, Note_on_c, 7, 77, 122
1, 48612, Note_on_c, 4, 74, 0
1, 48612, Note_on_c, 7, 74, 0
1, 48624, Note_on_c, 9, 35, 61
1, 48624, Note_on_c, 9, 46, 51
1, 48624, Note_on_c, 9, 53, 58
1, 48626, Note_on_c, 9, 53, 0
1, 48626, Note_on_c, 9, 46, 0
1, 48626, Note_on_c, 9, 35, 0
1, 48630, Note_on_c, 7, 77, 0
1, 48630, Note_on_c, 4, 77, 0
1, 48640, Note_on_c, 4, 79, 102
1, 48640, Note_on_c, 7, 79, 112
1, 48650, Note_on_c, 6, 72, 0
1, 48650, Note_on_c, 2, 60, 0
1, 48651, Note_on_c, 2, 65, 0
1, 48651, Note_on_c, 6, 77, 0
1, 48657, Note_on_c, 2, 53, 0
1, 48657, Note_on_c, 6, 65, 0
1, 48658, Note_on_c, 2, 46, 0
1, 48658, Note_on_c, 6, 58, 0
1, 48669, Note_on_c, 1, 34, 0
1, 48669, Note_on_c, 6, 86, 0
1, 48669, Note_on_c, 2, 74, 0
1, 48672, Note_on_c, 4, 79, 0
1, 48672, Note_on_c, 7, 79, 0
1, 48672, Note_on_c, 1, 33, 82
1, 48672, Note_on_c, 2, 67, 88
1, 48672, Note_on_c, 2, 60, 80
1, 48672, Note_on_c, 2, 48, 66
1, 48672, Note_on_c, 2, 55, 76
1, 48672, Note_on_c, 4, 77, 117
1, 48672, Note_on_c, 6, 60, 36
1, 48672, Note_on_c, 6, 67, 46
1, 48672, Note_on_c, 6, 72, 50
1, 48672, Note_on_c, 6, 79, 58
1, 48672, Note_on_c, 7, 77, 127
1, 48672, Note_on_c, 9, 40, 105
1, 48672, Note_on_c, 9, 46, 51
1, 48672, Note_on_c, 9, 49, 66
1, 48672, Note_on_c, 9, 53, 76
1, 48674, Note_on_c, 9, 53, 0
1, 48674, Note_on_c, 9, 40, 0
1, 48674, Note_on_c, 9, 49, 0
1, 48674, Note_on_c, 9, 46, 0
1, 48688, Note_on_c, 2, 55, 0
1, 48688, Note_on_c, 6, 67, 0
1, 48698, Note_on_c, 7, 77, 0
1, 48698, Note_on_c, 4, 77, 0
1, 48704, Note_on_c, 4, 79, 98
1, 48704, Note_on_c, 7, 79, 108
1, 48720, Note_on_c, 9, 46, 51
1, 48720, Note_on_c, 9, 53, 42
1, 48722, Note_on_c, 9, 53, 0
1, 48722, Note_on_c, 9, 46, 0
1, 48732, Note_on_c, 4, 79, 0
1, 48732, Note_on_c, 7, 79, 0
1, 48736, Note_on_c, 4, 77, 117
1, 48736, Note_on_c, 7, 77, 127
1, 48744, Note_on_c, 9, 40, 90
1, 48746, Note_on_c, 9, 40, 0
1, 48760, Note_on_c, 7, 77, 0
1, 48760, Note_on_c, 4, 77, 0
1, 48762, Note_on_c, 1, 33, 0
1, 48767, Note_on_c, 6, 72, 0
1, 48767, Note_on_c, 2, 60, 0
1, 48768, Note_on_c, 6, 79, 0
1, 48768, Note_on_c, 2, 67, 0
1, 48768, Note_on_c, 1, 38, 92
1, 48768, Note_on_c, 2, 62, 66
1, 48768, Note_on_c, 4, 79, 112
1, 48768, Note_on_c, 6, 74, 36
1, 48768, Note_on_c, 7, 79, 122
1, 48768, Note_on_c, 9, 35, 75
1, 48768, Note_on_c, 9, 46, 51
1, 48768, Note_on_c, 9, 57, 88
1, 48769, Note_on_c, 2, 48, 0
1, 48769, Note_on_c, 6, 60, 0
1, 48770, Note_on_c, 9, 46, 0
1, 48770, Note_on_c, 9, 35, 0
1, 48770, Note_on_c, 9, 57, 0
1, 48783, Pitch_bend_c, 4, 9622
1, 48783, Pitch_bend_c, 7, 9622
1, 48787, Note_on_c, 1, 38, 0
1, 48787, Pitch_bend_c, 4, 12222
1, 48787, Pitch_bend_c, 7, 12222
1, 48790, Pitch_bend_c, 4, 13262
1, 48790, Pitch_bend_c, 7, 13262
1, 48794, Note_on_c, 2, 62, 0
1, 48794, Note_on_c, 6, 74, 0
1, 48795, Pitch_bend_c, 4, 12742
1, 48795, Pitch_bend_c, 7, 12742
1, 48797, Pitch_bend_c, 4, 9752
1, 48797, Pitch_bend_c, 7, 9752
1, 48801, Pitch_bend_c, 4, 8192
1, 48801, Pitch_bend_c, 7, 8192
1, 48807, Note_on_c, 7, 79, 0
1, 48807, Note_on_c, 4, 79, 0
1, 48816, Note_on_c, 1, 38, 104
1, 48816, Note_on_c, 2, 62, 60
1, 48816, Note_on_c, 4, 77, 117
1, 48816, Note_on_c, 6, 74, 30
1, 48816, Note_on_c, 7, 77, 127
1, 48816, Note_on_c, 9, 35, 56
1, 48816, Note_on_c, 9, 46, 51
1, 48816, Note_on_c, 9, 53, 37
1, 48818, Note_on_c, 9, 53, 0
1, 48818, Note_on_c, 9, 46, 0
1, 48818, Note_on_c, 9, 35, 0
1, 48838, Note_on_c, 4, 77, 0
1, 48838, Note_on_c, 7, 77, 0
1, 48840, Note_on_c, 4, 79, 107
1, 48840, Note_on_c, 7, 79, 117
1, 48854, Note_on_c, 2, 62, 0
1, 48854, Note_on_c, 6, 74, 0
1, 48862, Note_on_c, 7, 79, 0
1, 48862, Note_on_c, 4, 79, 0
1, 48864, Note_on_c, 2, 69, 80
1, 48864, Note_on_c, 2, 74, 80
1, 48864, Note_on_c, 2, 62, 68
1, 48864, Note_on_c, 4, 79, 117
1, 48864, Note_on_c, 6, 74, 38
1, 48864, Note_on_c, 6, 81, 50
1, 48864, Note_on_c, 6, 86, 50
1, 48864, Note_on_c, 7, 79, 127
1, 48864, Note_on_c, 9, 40, 105
1, 48864, Note_on_c, 9, 46, 51
1, 48864, Note_on_c, 9, 53, 68
1, 48866, Note_on_c, 9, 53, 0
1, 48866, Note_on_c, 9, 40, 0
1, 48866, Note_on_c, 9, 46, 0
1, 48882, Control_c, 4, 1, 6
1, 48882, Control_c, 7, 1, 6
1, 48884, Control_c, 4, 1, 21
1, 48884, Control_c, 7, 1, 21
1, 48888, Control_c, 4, 1, 35
1, 48888, Control_c, 7, 1, 35
1, 48893, Control_c, 4, 1, 45
1, 48893, Control_c, 7, 1, 45
1, 48897, Control_c, 4, 1, 50
1, 48897, Control_c, 7, 1, 50
1, 48901, Control_c, 4, 1, 56
1, 48901, Control_c, 7, 1, 56
1, 48907, Control_c, 4, 1, 58
1, 48907, Control_c, 7, 1, 58
1, 48910, Control_c, 4, 1, 59
1, 48910, Control_c, 7, 1, 59
1, 48912, Note_on_c, 9, 46, 51
1, 48912, Note_on_c, 9, 53, 56
1, 48914, Note_on_c, 9, 53, 0
1, 48914, Note_on_c, 9, 46, 0
1, 48922, Control_c, 4, 1, 60
1, 48922, Control_c, 7, 1, 60
1, 48925, Control_c, 4, 1, 62
1, 48925, Control_c, 7, 1, 62
1, 48926, Note_on_c, 1, 38, 0
1, 48931, Note_on_c, 2, 62, 0
1, 48931, Note_on_c, 6, 74, 0
1, 48933, Control_c, 4, 1, 63
1, 48933, Control_c, 7, 1, 63
1, 48958, Control_c, 4, 1, 62
1, 48958, Control_c, 7, 1, 62
1, 48960, Note_on_c, 1, 40, 86
1, 48960, Note_on_c, 2, 67, 60
1, 48960, Note_on_c, 2, 62, 52
1, 48960, Note_on_c, 2, 60, 56
1, 48960, Note_on_c, 6, 72, 26
1, 48960, Note_on_c, 6, 74, 22
1, 48960, Note_on_c, 6, 79, 30
1, 48960, Note_on_c, 9, 35, 75
1, 48960, Note_on_c, 9, 46, 51
1, 48960, Note_on_c, 9, 53, 88
1, 48961, Control_c, 4, 1, 60
1, 48961, Control_c, 7, 1, 60
1, 48962, Note_on_c, 9, 53, 0
1, 48962, Note_on_c, 9, 46, 0
1, 48962, Note_on_c, 9, 35, 0
1, 48967, Control_c, 4, 1, 59
1, 48967, Control_c, 7, 1, 59
1, 48969, Control_c, 4, 1, 57
1, 48969, Control_c, 7, 1, 57
1, 48988, Control_c, 4, 1, 56
1, 48988, Control_c, 7, 1, 56
1, 49001, Note_on_c, 1, 40, 0
1, 49008, Note_on_c, 1, 38, 96
1, 49008, Note_on_c, 9, 35, 56
1, 49008, Note_on_c, 9, 46, 51
1, 49008, Note_on_c, 9, 53, 62
1, 49010, Note_on_c, 9, 53, 0
1, 49010, Note_on_c, 9, 46, 0
1, 49010, Note_on_c, 9, 35, 0
1, 49010, Control_c, 4, 1, 49
1, 49010, Control_c, 7, 1, 49
1, 49014, Control_c, 4, 1, 40
1, 49014, Control_c, 7, 1, 40
1, 49018, Control_c, 4, 1, 18
1, 49018, Control_c, 7, 1, 18
1, 49023, Control_c, 4, 1, 0
1, 49023, Control_c, 7, 1, 0
1, 49026, Note_on_c, 1, 38, 0
1, 49032, Note_on_c, 1, 36, 88
1, 49032, Note_on_c, 4, 77, 117
1, 49032, Note_on_c, 7, 77, 127
1, 49038, Note_on_c, 6, 86, 0
1, 49038, Note_on_c, 2, 74, 0
1, 49041, Note_on_c, 6, 81, 0
1, 49041, Note_on_c, 2, 69, 0
1, 49043, Note_on_c, 4, 79, 0
1, 49043, Note_on_c, 7, 79, 0
1, 49044, Note_on_c, 2, 62, 0
1, 49044, Note_on_c, 2, 60, 0
1, 49044, Note_on_c, 6, 72, 0
1, 49044, Note_on_c, 6, 74, 0
1, 49045, Note_on_c, 2, 67, 0
1, 49045, Note_on_c, 6, 79, 0
1, 49045, Note_on_c, 4, 77, 0
1, 49045, Note_on_c, 7, 77, 0
1, 49056, Note_on_c, 2, 62, 64
1, 49056, Note_on_c, 2, 67, 88
1, 49056, Note_on_c, 2, 60, 66
1, 49056, Note_on_c, 2, 74, 80
1, 49056, Note_on_c, 4, 74, 117
1, 49056, Note_on_c, 6, 72, 36
1, 49056, Note_on_c, 6, 74, 34
1, 49056, Note_on_c, 6, 79, 58
1, 49056, Note_on_c, 6, 86, 50
1, 49056, Note_on_c, 7, 74, 127
1, 49056, Note_on_c, 9, 40, 105
1, 49056, Note_on_c, 9, 46, 51
1, 49056, Note_on_c, 9, 53, 97
1, 49058, Note_on_c, 9, 53, 0
1, 49058, Note_on_c, 9, 46, 0
1, 49058, Note_on_c, 9, 40, 0
1, 49077, Note_on_c, 4, 74, 0
1, 49077, Note_on_c, 7, 74, 0
1, 49080, Note_on_c, 4, 72, 117
1, 49080, Note_on_c, 7, 72, 127
1, 49091, Note_on_c, 1, 36, 0
1, 49098, Note_on_c, 7, 72, 0
1, 49098, Note_on_c, 4, 72, 0
1, 49104, Note_on_c, 4, 74, 112
1, 49104, Note_on_c, 7, 74, 122
1, 49104, Note_on_c, 9, 46, 51
1, 49104, Note_on_c, 9, 53, 54
1, 49106, Note_on_c, 9, 53, 0
1, 49106, Note_on_c, 9, 46, 0
1, 49116, Note_on_c, 7, 74, 0
1, 49116, Note_on_c, 4, 74, 0
1, 49128, Note_on_c, 1, 36, 86
1, 49128, Note_on_c, 4, 74, 98
1, 49128, Note_on_c, 7, 74, 108
1, 49147, Note_on_c, 1, 36, 0
1, 49147, Note_on_c, 2, 60, 0
1, 49147, Note_on_c, 6, 72, 0
1, 49148, Note_on_c, 2, 62, 0
1, 49148, Note_on_c, 6, 74, 0
1, 49150, Note_on_c, 4, 74, 0
1, 49150, Note_on_c, 7, 74, 0
1, 49152, Note_on_c, 1, 35, 84
1, 49152, Note_on_c, 4, 72, 117
1, 49152, Note_on_c, 7, 72, 127
1, 49152, Note_on_c, 9, 35, 75
1, 49152, Note_on_c, 9, 46, 51
1, 49152, Note_on_c, 9, 53, 84
1, 49153, Pitch_bend_c, 4, 8712
1, 49153, Pitch_bend_c, 7, 8712
1, 49154, Note_on_c, 9, 53, 0
1, 49154, Note_on_c, 9, 46, 0
1, 49154, Note_on_c, 9, 35, 0
1, 49154, Pitch_bend_c, 4, 10142
1, 49154, Pitch_bend_c, 7, 10142
1, 49157, Pitch_bend_c, 4, 13262
1, 49157, Pitch_bend_c, 7, 13262
1, 49162, Pitch_bend_c, 4, 15992
1, 49162, Pitch_bend_c, 7, 15992
1, 49165, Pitch_bend_c, 4, 16382
1, 49165, Pitch_bend_c, 7, 16382
1, 49171, Note_on_c, 6, 79, 0
1, 49171, Note_on_c, 2, 67, 0
1, 49174, Note_on_c, 4, 72, 0
1, 49174, Note_on_c, 7, 72, 0
1, 49176, Note_on_c, 2, 62, 72
1, 49176, Note_on_c, 4, 72, 98
1, 49176, Note_on_c, 6, 74, 42
1, 49176, Note_on_c, 7, 72, 108
1, 49182, Note_on_c, 2, 74, 0
1, 49182, Note_on_c, 6, 86, 0
1, 49190, Note_on_c, 1, 35, 0
1, 49198, Note_on_c, 4, 72, 0
1, 49198, Note_on_c, 7, 72, 0
1, 49200, Note_on_c, 1, 33, 104
1, 49200, Note_on_c, 2, 60, 50
1, 49200, Note_on_c, 4, 72, 98
1, 49200, Note_on_c, 6, 72, 20
1, 49200, Note_on_c, 7, 72, 108
1, 49200, Note_on_c, 9, 35, 54
1, 49200, Note_on_c, 9, 46, 51
1, 49200, Note_on_c, 9, 53, 52
1, 49202, Note_on_c, 9, 53, 0
1, 49202, Note_on_c, 9, 46, 0
1, 49202, Note_on_c, 9, 35, 0
1, 49208, Note_on_c, 2, 62, 0
1, 49208, Note_on_c, 6, 74, 0
1, 49208, Note_on_c, 6, 72, 0
1, 49208, Note_on_c, 2, 60, 0
1, 49222, Note_on_c, 7, 72, 0
1, 49222, Note_on_c, 4, 72, 0
1, 49224, Note_on_c, 2, 62, 54
1, 49224, Note_on_c, 2, 68, 97
1, 49224, Note_on_c, 2, 74, 80
1, 49224, Note_on_c, 4, 72, 107
1, 49224, Note_on_c, 6, 74, 24
1, 49224, Note_on_c, 6, 80, 67
1, 49224, Note_on_c, 6, 86, 50
1, 49224, Note_on_c, 7, 72, 117
1, 49240, Note_on_c, 6, 80, 0
1, 49240, Note_on_c, 2, 68, 0
1, 49241, Note_on_c, 1, 33, 0
1, 49246, Note_on_c, 7, 72, 0
1, 49246, Note_on_c, 4, 72, 0
1, 49248, Note_on_c, 1, 31, 86
1, 49248, Note_on_c, 2, 60, 44
1, 49248, Note_on_c, 2, 69, 68
1, 49248, Note_on_c, 4, 72, 107
1, 49248, Note_on_c, 6, 72, 14
1, 49248, Note_on_c, 6, 81, 38
1, 49248, Note_on_c, 7, 72, 117
1, 49248, Note_on_c, 9, 40, 105
1, 49248, Note_on_c, 9, 46, 51
1, 49248, Note_on_c, 9, 53, 84
1, 49250, Note_on_c, 9, 53, 0
1, 49250, Note_on_c, 9, 46, 0
1, 49250, Note_on_c, 9, 40, 0
1, 49253, Note_on_c, 6, 74, 0
1, 49253, Note_on_c, 2, 62, 0
1, 49255, Note_on_c, 6, 72, 0
1, 49255, Note_on_c, 2, 60, 0
1, 49262, Note_on_c, 2, 74, 0
1, 49262, Note_on_c, 6, 86, 0
1, 49270, Note_on_c, 2, 69, 0
1, 49270, Note_on_c, 7, 72, 0
1, 49270, Note_on_c, 4, 72, 0
1, 49270, Note_on_c, 6, 81, 0
1, 49272, Note_on_c, 2, 67, 84
1, 49272, Note_on_c, 2, 74, 52
1, 49272, Note_on_c, 4, 72, 102
1, 49272, Note_on_c, 6, 79, 54
1, 49272, Note_on_c, 6, 86, 22
1, 49272, Note_on_c, 7, 72, 112
1, 49273, Note_on_c, 1, 31, 0
1, 49294, Note_on_c, 4, 72, 0
1, 49294, Note_on_c, 7, 72, 0
1, 49296, Note_on_c, 1, 31, 86
1, 49296, Note_on_c, 2, 60, 66
1, 49296, Note_on_c, 4, 72, 107
1, 49296, Note_on_c, 6, 72, 36
1, 49296, Note_on_c, 7, 72, 117
1, 49296, Note_on_c, 9, 46, 51
1, 49296, Note_on_c, 9, 53, 54
1, 49298, Note_on_c, 9, 53, 0
1, 49298, Note_on_c, 9, 46, 0
1, 49306, Note_on_c, 2, 60, 0
1, 49306, Note_on_c, 6, 72, 0
1, 49318, Note_on_c, 2, 67, 0
1, 49318, Note_on_c, 6, 79, 0
1, 49318, Note_on_c, 7, 72, 0
1, 49318, Note_on_c, 4, 72, 0
1, 49320, Note_on_c, 2, 65, 84
1, 49320, Note_on_c, 4, 72, 112
1, 49320, Note_on_c, 6, 77, 54
1, 49320, Note_on_c, 7, 72, 122
1, 49323, Note_on_c, 6, 86, 0
1, 49323, Note_on_c, 2, 74, 0
1, 49334, Pitch_bend_c, 4, 14302
1, 49334, Pitch_bend_c, 7, 14302
1, 49336, Pitch_bend_c, 4, 10792
1, 49336, Pitch_bend_c, 7, 10792
1, 49337, Note_on_c, 1, 31, 0
1, 49342, Note_on_c, 4, 72, 0
1, 49342, Note_on_c, 7, 72, 0
1, 49342, Pitch_bend_c, 4, 11182
1, 49342, Pitch_bend_c, 7, 11182
1, 49343, Pitch_bend_c, 4, 13522
1, 49343, Pitch_bend_c, 7, 13522
1, 49344, Note_on_c, 1, 34, 88
1, 49344, Note_on_c, 2, 62, 72
1, 49344, Note_on_c, 4, 72, 117
1, 49344, Note_on_c, 6, 74, 42
1, 49344, Note_on_c, 7, 72, 127
1, 49344, Note_on_c, 9, 35, 75
1, 49344, Note_on_c, 9, 46, 51
1, 49344, Note_on_c, 9, 53, 88
1, 49345, Note_on_c, 6, 77, 0
1, 49345, Note_on_c, 2, 65, 0
1, 49346, Note_on_c, 9, 46, 0
1, 49346, Note_on_c, 9, 35, 0
1, 49346, Note_on_c, 9, 53, 0
1, 49346, Pitch_bend_c, 4, 16382
1, 49346, Pitch_bend_c, 7, 16382
1, 49365, Note_on_c, 2, 62, 0
1, 49365, Note_on_c, 6, 74, 0
1, 49366, Note_on_c, 7, 72, 0
1, 49366, Note_on_c, 4, 72, 0
1, 49368, Note_on_c, 2, 60, 102
1, 49368, Note_on_c, 4, 72, 102
1, 49368, Note_on_c, 6, 72, 72
1, 49368, Note_on_c, 7, 72, 112
1, 49381, Note_on_c, 6, 72, 0
1, 49381, Note_on_c, 2, 60, 0
1, 49390, Note_on_c, 7, 72, 0
1, 49390, Note_on_c, 4, 72, 0
1, 49392, Note_on_c, 1, 29, 86
1, 49392, Note_on_c, 2, 57, 88
1, 49392, Note_on_c, 4, 72, 112
1, 49392, Note_on_c, 6, 69, 58
1, 49392, Note_on_c, 7, 72, 122
1, 49392, Note_on_c, 9, 35, 54
1, 49392, Note_on_c, 9, 46, 51
1, 49392, Note_on_c, 9, 53, 56
1, 49394, Note_on_c, 9, 53, 0
1, 49394, Note_on_c, 9, 46, 0
1, 49394, Note_on_c, 9, 35, 0
1, 49399, Note_on_c, 1, 34, 0
1, 49404, Pitch_bend_c, 4, 14822
1, 49404, Pitch_bend_c, 7, 14822
1, 49406, Pitch_bend_c, 4, 10012
1, 49406, Pitch_bend_c, 7, 10012
1, 49410, Pitch_bend_c, 4, 9492
1, 49410, Pitch_bend_c, 7, 9492
1, 49411, Pitch_bend_c, 4, 8192
1, 49411, Pitch_bend_c, 7, 8192
1, 49414, Note_on_c, 4, 72, 0
1, 49414, Note_on_c, 7, 72, 0
1, 49415, Pitch_bend_c, 4, 8972
1, 49415, Pitch_bend_c, 7, 8972
1, 49416, Note_on_c, 4, 72, 117
1, 49416, Pitch_bend_c, 4, 11442
1, 49416, Note_on_c, 7, 72, 127
1, 49416, Pitch_bend_c, 7, 11442
1, 49420, Pitch_bend_c, 4, 13652
1, 49420, Pitch_bend_c, 7, 13652
1, 49423, Pitch_bend_c, 4, 16382
1, 49423, Pitch_bend_c, 7, 16382
1, 49431, Note_on_c, 2, 57, 0
1, 49431, Note_on_c, 6, 69, 0
1, 49438, Note_on_c, 7, 72, 0
1, 49438, Note_on_c, 4, 72, 0
1, 49440, Note_on_c, 1, 33, 88
1, 49440, Note_on_c, 2, 56, 97
1, 49440, Note_on_c, 4, 72, 98
1, 49440, Note_on_c, 6, 68, 67
1, 49440, Note_on_c, 7, 72, 108
1, 49440, Note_on_c, 9, 40, 105
1, 49440, Note_on_c, 9, 46, 51
1, 49440, Note_on_c, 9, 53, 64
1, 49442, Note_on_c, 9, 53, 0
1, 49442, Note_on_c, 9, 46, 0
1, 49442, Note_on_c, 9, 40, 0
1, 49442, Note_on_c, 1, 29, 0
1, 49460, Note_on_c, 6, 68, 0
1, 49460, Note_on_c, 2, 56, 0
1, 49462, Note_on_c, 7, 72, 0
1, 49462, Note_on_c, 4, 72, 0
1, 49464, Note_on_c, 2, 55, 76
1, 49464, Note_on_c, 4, 72, 98
1, 49464, Note_on_c, 6, 67, 46
1, 49464, Note_on_c, 7, 72, 108
1, 49464, Note_on_c, 9, 49, 66
1, 49466, Note_on_c, 9, 49, 0
1, 49476, Note_on_c, 1, 33, 0
1, 49484, Note_on_c, 6, 67, 0
1, 49484, Note_on_c, 2, 55, 0
1, 49486, Note_on_c, 4, 72, 0
1, 49486, Note_on_c, 7, 72, 0
1, 49488, Note_on_c, 1, 33, 96
1, 49488, Note_on_c, 2, 53, 80
1, 49488, Note_on_c, 4, 72, 112
1, 49488, Note_on_c, 6, 65, 50
1, 49488, Note_on_c, 7, 72, 122
1, 49488, Note_on_c, 9, 45, 75
1, 49488, Note_on_c, 9, 46, 51
1, 49488, Note_on_c, 9, 57, 66
1, 49490, Note_on_c, 9, 57, 0
1, 49490, Note_on_c, 9, 46, 0
1, 49490, Note_on_c, 9, 45, 0
1, 49510, Note_on_c, 4, 72, 0
1, 49510, Note_on_c, 7, 72, 0
1, 49512, Note_on_c, 4, 72, 94
1, 49512, Note_on_c, 7, 72, 104
1, 49512, Note_on_c, 9, 43, 75
1, 49514, Note_on_c, 9, 43, 0
1, 49519, Note_on_c, 1, 33, 0
1, 49520, Pitch_bend_c, 4, 15082
1, 49520, Pitch_bend_c, 7, 15082
1, 49522, Pitch_bend_c, 4, 13262
1, 49522, Pitch_bend_c, 7, 13262
1, 49525, Pitch_bend_c, 4, 9752
1, 49525, Pitch_bend_c, 7, 9752
1, 49527, Pitch_bend_c, 4, 8192
1, 49527, Pitch_bend_c, 7, 8192
1, 49534, Note_on_c, 4, 72, 0
1, 49534, Note_on_c, 7, 72, 0
1, 49536, Note_on_c, 1, 38, 100
1, 49536, Control_c, 1, 11, 127
1, 49536, Note_on_c, 2, 50, 88
1, 49536, Control_c, 2, 11, 127
1, 49536, Note_on_c, 4, 77, 117
1, 49536, Control_c, 4, 11, 127
1, 49536, Note_on_c, 6, 62, 58
1, 49536, Control_c, 6, 11, 127
1, 49536, Note_on_c, 7, 77, 127
1, 49536, Control_c, 7, 11, 127
1, 49536, Note_on_c, 9, 35, 75
1, 49536, Note_on_c, 9, 46, 51
1, 49536, Note_on_c, 9, 49, 54
1, 49536, Control_c, 9, 11, 127
1, 49538, Note_on_c, 9, 49, 0
1, 49538, Note_on_c, 9, 46, 0
1, 49538, Note_on_c, 6, 65, 0
1, 49538, Note_on_c, 2, 53, 0
1, 49538, Note_on_c, 9, 35, 0
1, 49559, Pitch_bend_c, 4, 8582
1, 49559, Pitch_bend_c, 7, 8582
1, 49560, Control_c, 1, 11, 126
1, 49560, Control_c, 2, 11, 126
1, 49560, Pitch_bend_c, 4, 9362
1, 49560, Control_c, 4, 11, 126
1, 49560, Control_c, 6, 11, 126
1, 49560, Pitch_bend_c, 7, 9362
1, 49560, Control_c, 7, 11, 126
1, 49560, Control_c, 9, 11, 126
1, 49563, Pitch_bend_c, 4, 10142
1, 49563, Pitch_bend_c, 7, 10142
1, 49567, Pitch_bend_c, 4, 10402
1, 49567, Pitch_bend_c, 7, 10402
1, 49570, Pitch_bend_c, 4, 10922
1, 49570, Pitch_bend_c, 7, 10922
1, 49574, Pitch_bend_c, 4, 11572
1, 49574, Pitch_bend_c, 7, 11572
1, 49578, Pitch_bend_c, 4, 11832
1, 49578, Pitch_bend_c, 7, 11832
1, 49581, Pitch_bend_c, 4, 12222
1, 49581, Pitch_bend_c, 7, 12222
1, 49584, Control_c, 1, 11, 125
1, 49584, Control_c, 2, 11, 125
1, 49584, Control_c, 4, 11, 125
1, 49584, Control_c, 6, 11, 125
1, 49584, Control_c, 7, 11, 125
1, 49584, Note_on_c, 9, 35, 64
1, 49584, Note_on_c, 9, 46, 51
1, 49584, Note_on_c, 9, 53, 48
1, 49584, Control_c, 9, 11, 125
1, 49585, Pitch_bend_c, 4, 12742
1, 49585, Pitch_bend_c, 7, 12742
1, 49586, Note_on_c, 9, 53, 0
1, 49586, Note_on_c, 9, 46, 0
1, 49586, Note_on_c, 9, 35, 0
1, 49588, Pitch_bend_c, 4, 13392
1, 49588, Pitch_bend_c, 7, 13392
1, 49592, Pitch_bend_c, 4, 13912
1, 49592, Pitch_bend_c, 7, 13912
1, 49595, Pitch_bend_c, 4, 14562
1, 49595, Pitch_bend_c, 7, 14562
1, 49599, Pitch_bend_c, 4, 14952
1, 49599, Pitch_bend_c, 7, 14952
1, 49602, Pitch_bend_c, 4, 15212
1, 49602, Pitch_bend_c, 7, 15212
1, 49605, Pitch_bend_c, 4, 15992
1, 49605, Pitch_bend_c, 7, 15992
1, 49608, Control_c, 1, 11, 124
1, 49608, Control_c, 2, 11, 124
1, 49608, Control_c, 4, 11, 124
1, 49608, Control_c, 6, 11, 124
1, 49608, Control_c, 7, 11, 124
1, 49608, Control_c, 9, 11, 124
1, 49609, Pitch_bend_c, 4, 16382
1, 49609, Pitch_bend_c, 7, 16382
1, 49629, Note_on_c, 1, 38, 0
1, 49632, Note_on_c, 1, 48, 88
1, 49632, Control_c, 1, 11, 123
1, 49632, Note_on_c, 2, 57, 80
1, 49632, Note_on_c, 2, 62, 92
1, 49632, Note_on_c, 2, 65, 88
1, 49632, Control_c, 2, 11, 123
1, 49632, Control_c, 4, 11, 123
1, 49632, Note_on_c, 6, 69, 50
1, 49632, Note_on_c, 6, 74, 62
1, 49632, Note_on_c, 6, 77, 58
1, 49632, Control_c, 6, 11, 123
1, 49632, Control_c, 7, 11, 123
1, 49632, Note_on_c, 9, 40, 105
1, 49632, Note_on_c, 9, 46, 51
1, 49632, Note_on_c, 9, 53, 56
1, 49632, Control_c, 9, 11, 123
1, 49634, Note_on_c, 9, 53, 0
1, 49634, Note_on_c, 9, 46, 0
1, 49634, Note_on_c, 9, 40, 0
1, 49645, Pitch_bend_c, 1, 9102
1, 49648, Pitch_bend_c, 1, 10012
1, 49651, Pitch_bend_c, 1, 11962
1, 49655, Pitch_bend_c, 1, 13652
1, 49656, Control_c, 1, 11, 122
1, 49656, Control_c, 2, 11, 122
1, 49656, Control_c, 4, 11, 122
1, 49656, Control_c, 6, 11, 122
1, 49656, Control_c, 7, 11, 122
1, 49656, Control_c, 9, 11, 122
1, 49658, Pitch_bend_c, 1, 16382
1, 49663, Pitch_bend_c, 4, 16252
1, 49663, Pitch_bend_c, 7, 16252
1, 49665, Pitch_bend_c, 4, 15992
1, 49665, Pitch_bend_c, 7, 15992
1, 49670, Pitch_bend_c, 4, 15862
1, 49670, Pitch_bend_c, 7, 15862
1, 49672, Pitch_bend_c, 4, 15602
1, 49672, Pitch_bend_c, 7, 15602
1, 49674, Note_on_c, 2, 57, 0
1, 49674, Note_on_c, 6, 69, 0
1, 49676, Pitch_bend_c, 4, 15212
1, 49676, Pitch_bend_c, 7, 15212
1, 49677, Note_on_c, 1, 48, 0
1, 49680, Control_c, 1, 11, 120
1, 49680, Control_c, 2, 11, 120
1, 49680, Pitch_bend_c, 4, 15082
1, 49680, Control_c, 4, 11, 120
1, 49680, Control_c, 6, 11, 120
1, 49680, Pitch_bend_c, 7, 15082
1, 49680, Control_c, 7, 11, 120
1, 49680, Note_on_c, 9, 46, 51
1, 49680, Note_on_c, 9, 49, 66
1, 49680, Note_on_c, 9, 53, 76
1, 49680, Control_c, 9, 11, 120
1, 49681, Pitch_bend_c, 1, 15602
1, 49682, Note_on_c, 9, 53, 0
1, 49682, Note_on_c, 9, 49, 0
1, 49682, Note_on_c, 9, 46, 0
1, 49683, Pitch_bend_c, 1, 14172
1, 49684, Pitch_bend_c, 4, 14822
1, 49684, Pitch_bend_c, 7, 14822
1, 49686, Pitch_bend_c, 1, 8842
1, 49688, Pitch_bend_c, 4, 14692
1, 49688, Pitch_bend_c, 7, 14692
1, 49689, Pitch_bend_c, 1, 8192
1, 49690, Pitch_bend_c, 4, 14172
1, 49690, Pitch_bend_c, 7, 14172
1, 49696, Pitch_bend_c, 4, 13912
1, 49696, Pitch_bend_c, 7, 13912
1, 49698, Note_on_c, 6, 74, 0
1, 49698, Note_on_c, 2, 62, 0
1, 49698, Pitch_bend_c, 4, 13652
1, 49698, Pitch_bend_c, 7, 13652
1, 49699, Note_on_c, 2, 50, 0
1, 49699, Note_on_c, 6, 62, 0
1, 49700, Pitch_bend_c, 4, 13002
1, 49700, Pitch_bend_c, 7, 13002
1, 49704, Control_c, 1, 11, 119
1, 49704, Note_on_c, 2, 55, 62
1, 49704, Note_on_c, 2, 60, 72
1, 49704, Control_c, 2, 11, 119
1, 49704, Control_c, 4, 11, 119
1, 49704, Note_on_c, 6, 67, 32
1, 49704, Note_on_c, 6, 72, 42
1, 49704, Control_c, 6, 11, 119
1, 49704, Control_c, 7, 11, 119
1, 49704, Note_on_c, 9, 40, 90
1, 49704, Control_c, 9, 11, 119
1, 49705, Pitch_bend_c, 4, 12352
1, 49705, Pitch_bend_c, 7, 12352
1, 49706, Note_on_c, 9, 40, 0
1, 49708, Pitch_bend_c, 4, 11572
1, 49708, Pitch_bend_c, 7, 11572
1, 49710, Pitch_bend_c, 4, 9882
1, 49710, Pitch_bend_c, 7, 9882
1, 49714, Pitch_bend_c, 4, 9492
1, 49714, Pitch_bend_c, 7, 9492
1, 49715, Pitch_bend_c, 4, 8192
1, 49715, Pitch_bend_c, 7, 8192
1, 49719, Note_on_c, 7, 77, 0
1, 49719, Note_on_c, 4, 77, 0
1, 49728, Note_on_c, 1, 36, 96
1, 49728, Control_c, 1, 11, 118
1, 49728, Note_on_c, 2, 48, 60
1, 49728, Control_c, 2, 11, 118
1, 49728, Note_on_c, 4, 74, 117
1, 49728, Control_c, 4, 11, 118
1, 49728, Note_on_c, 6, 60, 30
1, 49728, Control_c, 6, 11, 118
1, 49728, Note_on_c, 7, 74, 127
1, 49728, Control_c, 7, 11, 118
1, 49728, Note_on_c, 9, 35, 75
1, 49728, Note_on_c, 9, 46, 51
1, 49728, Note_on_c, 9, 53, 54
1, 49728, Control_c, 9, 11, 118
1, 49730, Note_on_c, 9, 53, 0
1, 49730, Note_on_c, 9, 46, 0
1, 49730, Note_on_c, 9, 35, 0
1, 49747, Note_on_c, 6, 60, 0
1, 49747, Note_on_c, 4, 74, 0
1, 49747, Note_on_c, 2, 48, 0
1, 49747, Note_on_c, 7, 74, 0
1, 49751, Note_on_c, 1, 36, 0
1, 49752, Control_c, 1, 11, 117
1, 49752, Control_c, 2, 11, 117
1, 49752, Note_on_c, 4, 77, 117
1, 49752, Control_c, 4, 11, 117
1, 49752, Control_c, 6, 11, 117
1, 49752, Note_on_c, 7, 77, 127
1, 49752, Control_c, 7, 11, 117
1, 49752, Control_c, 9, 11, 117
1, 49772, Note_on_c, 2, 65, 0
1, 49772, Note_on_c, 6, 77, 0
1, 49776, Note_on_c, 1, 36, 80
1, 49776, Control_c, 1, 11, 116
1, 49776, Note_on_c, 2, 48, 84
1, 49776, Control_c, 2, 11, 116
1, 49776, Note_on_c, 4, 74, 117
1, 49776, Control_c, 4, 11, 116
1, 49776, Note_on_c, 6, 60, 54
1, 49776, Control_c, 6, 11, 116
1, 49776, Note_on_c, 7, 74, 127
1, 49776, Control_c, 7, 11, 116
1, 49776, Note_on_c, 9, 35, 59
1, 49776, Note_on_c, 9, 46, 51
1, 49776, Note_on_c, 9, 53, 54
1, 49776, Control_c, 9, 11, 116
1, 49777, Note_on_c, 6, 72, 0
1, 49777, Note_on_c, 2, 60, 0
1, 49778, Note_on_c, 9, 53, 0
1, 49778, Note_on_c, 9, 35, 0
1, 49778, Note_on_c, 9, 46, 0
1, 49780, Note_on_c, 6, 67, 0
1, 49780, Note_on_c, 2, 55, 0
1, 49781, Note_on_c, 4, 77, 0
1, 49781, Note_on_c, 7, 77, 0
1, 49798, Note_on_c, 4, 74, 0
1, 49798, Note_on_c, 7, 74, 0
1, 49800, Control_c, 1, 11, 114
1, 49800, Control_c, 2, 11, 114
1, 49800, Note_on_c, 4, 72, 117
1, 49800, Control_c, 4, 11, 114
1, 49800, Control_c, 6, 11, 114
1, 49800, Note_on_c, 7, 72, 127
1, 49800, Control_c, 7, 11, 114
1, 49800, Control_c, 9, 11, 114
1, 49822, Note_on_c, 7, 72, 0
1, 49822, Note_on_c, 4, 72, 0
1, 49824, Control_c, 1, 11, 113
1, 49824, Note_on_c, 2, 55, 64
1, 49824, Note_on_c, 2, 65, 84
1, 49824, Note_on_c, 2, 60, 102
1, 49824, Control_c, 2, 11, 113
1, 49824, Note_on_c, 4, 74, 117
1, 49824, Control_c, 4, 11, 113
1, 49824, Note_on_c, 6, 67, 34
1, 49824, Note_on_c, 6, 72, 72
1, 49824, Note_on_c, 6, 77, 54
1, 49824, Control_c, 6, 11, 113
1, 49824, Note_on_c, 7, 74, 127
1, 49824, Control_c, 7, 11, 113
1, 49824, Note_on_c, 9, 40, 105
1, 49824, Note_on_c, 9, 46, 51
1, 49824, Note_on_c, 9, 53, 52
1, 49824, Control_c, 9, 11, 113
1, 49826, Note_on_c, 9, 53, 0
1, 49826, Note_on_c, 9, 46, 0
1, 49826, Note_on_c, 9, 40, 0
1, 49830, Control_c, 4, 1, 10
1, 49830, Control_c, 7, 1, 10
1, 49833, Control_c, 4, 1, 27
1, 49833, Control_c, 7, 1, 27
1, 49837, Control_c, 4, 1, 36
1, 49837, Control_c, 7, 1, 36
1, 49842, Control_c, 4, 1, 40
1, 49842, Control_c, 7, 1, 40
1, 49847, Control_c, 4, 1, 45
1, 49847, Control_c, 7, 1, 45
1, 49848, Control_c, 1, 11, 112
1, 49848, Control_c, 2, 11, 112
1, 49848, Control_c, 4, 11, 112
1, 49848, Control_c, 6, 11, 112
1, 49848, Control_c, 7, 11, 112
1, 49848, Note_on_c, 9, 57, 80
1, 49848, Control_c, 9, 11, 112
1, 49850, Note_on_c, 9, 57, 0
1, 49852, Control_c, 4, 1, 48
1, 49852, Control_c, 7, 1, 48
1, 49855, Control_c, 4, 1, 55
1, 49855, Control_c, 7, 1, 55
1, 49860, Control_c, 4, 1, 59
1, 49860, Control_c, 7, 1, 59
1, 49866, Control_c, 4, 1, 62
1, 49866, Control_c, 7, 1, 62
1, 49869, Control_c, 4, 1, 66
1, 49869, Control_c, 7, 1, 66
1, 49870, Note_on_c, 6, 60, 0
1, 49870, Note_on_c, 2, 48, 0
1, 49872, Note_on_c, 1, 35, 92
1, 49872, Control_c, 1, 11, 111
1, 49872, Note_on_c, 2, 53, 52
1, 49872, Control_c, 2, 11, 111
1, 49872, Control_c, 4, 11, 111
1, 49872, Note_on_c, 6, 65, 22
1, 49872, Control_c, 6, 11, 111
1, 49872, Control_c, 7, 11, 111
1, 49872, Note_on_c, 9, 46, 51
1, 49872, Control_c, 9, 11, 111
1, 49874, Note_on_c, 9, 46, 0
1, 49875, Control_c, 4, 1, 67
1, 49875, Control_c, 7, 1, 67
1, 49878, Control_c, 4, 1, 69
1, 49878, Control_c, 7, 1, 69
1, 49879, Note_on_c, 2, 55, 0
1, 49879, Note_on_c, 6, 67, 0
1, 49881, Note_on_c, 6, 72, 0
1, 49881, Note_on_c, 2, 60, 0
1, 49882, Note_on_c, 1, 36, 0
1, 49886, Control_c, 4, 1, 70
1, 49886, Control_c, 7, 1, 70
1, 49888, Note_on_c, 6, 65, 0
1, 49888, Note_on_c, 2, 53, 0
1, 49890, Control_c, 4, 1, 71
1, 49890, Control_c, 7, 1, 71
1, 49896, Note_on_c, 1, 35, 0
1, 49896, Note_on_c, 1, 33, 76
1, 49896, Control_c, 1, 11, 110
1, 49896, Note_on_c, 2, 60, 64
1, 49896, Note_on_c, 2, 55, 54
1, 49896, Control_c, 2, 11, 110
1, 49896, Control_c, 4, 11, 110
1, 49896, Note_on_c, 6, 67, 24
1, 49896, Note_on_c, 6, 72, 34
1, 49896, Control_c, 6, 11, 110
1, 49896, Control_c, 7, 11, 110
1, 49896, Control_c, 9, 11, 110
1, 49899, Control_c, 4, 1, 72
1, 49899, Control_c, 7, 1, 72
1, 49902, Control_c, 4, 1, 73
1, 49902, Control_c, 7, 1, 73
1, 49905, Control_c, 4, 1, 74
1, 49905, Control_c, 7, 1, 74
1, 49917, Note_on_c, 1, 33, 0
1, 49919, Control_c, 4, 1, 68
1, 49919, Control_c, 7, 1, 68
1, 49920, Note_on_c, 1, 31, 88
1, 49920, Control_c, 1, 11, 108
1, 49920, Note_on_c, 2, 47, 84
1, 49920, Control_c, 2, 11, 108
1, 49920, Control_c, 4, 11, 108
1, 49920, Note_on_c, 6, 59, 54
1, 49920, Control_c, 6, 11, 108
1, 49920, Control_c, 7, 11, 108
1, 49920, Note_on_c, 9, 35, 75
1, 49920, Note_on_c, 9, 46, 51
1, 49920, Note_on_c, 9, 53, 68
1, 49920, Control_c, 9, 11, 108
1, 49922, Note_on_c, 9, 53, 0
1, 49922, Note_on_c, 9, 46, 0
1, 49922, Note_on_c, 9, 35, 0
1, 49923, Control_c, 4, 1, 51
1, 49923, Control_c, 7, 1, 51
1, 49928, Control_c, 4, 1, 30
1, 49928, Control_c, 7, 1, 30
1, 49929, Note_on_c, 2, 55, 0
1, 49929, Note_on_c, 6, 67, 0
1, 49932, Control_c, 4, 1, 8
1, 49932, Control_c, 7, 1, 8
1, 49936, Control_c, 4, 1, 0
1, 49936, Control_c, 7, 1, 0
1, 49941, Note_on_c, 6, 59, 0
1, 49941, Note_on_c, 2, 47, 0
1, 49944, Control_c, 1, 11, 107
1, 49944, Control_c, 2, 11, 107
1, 49944, Control_c, 4, 11, 107
1, 49944, Control_c, 6, 11, 107
1, 49944, Control_c, 7, 11, 107
1, 49944, Control_c, 9, 11, 107
1, 49946, Note_on_c, 2, 65, 0
1, 49946, Note_on_c, 6, 77, 0
1, 49947, Note_on_c, 1, 31, 0
1, 49956, Note_on_c, 6, 72, 0
1, 49956, Note_on_c, 2, 60, 0
1, 49968, Note_on_c, 1, 31, 104
1, 49968, Control_c, 1, 11, 106
1, 49968, Note_on_c, 2, 47, 66
1, 49968, Control_c, 2, 11, 106
1, 49968, Control_c, 4, 11, 106
1, 49968, Note_on_c, 6, 59, 36
1, 49968, Control_c, 6, 11, 106
1, 49968, Control_c, 7, 11, 106
1, 49968, Note_on_c, 9, 35, 61
1, 49968, Note_on_c, 9, 46, 51
1, 49968, Note_on_c, 9, 53, 60
1, 49968, Control_c, 9, 11, 106
1, 49970, Note_on_c, 9, 53, 0
1, 49970, Note_on_c, 9, 46, 0
1, 49970, Note_on_c, 9, 35, 0
1, 49992, Control_c, 1, 11, 105
1, 49992, Control_c, 2, 11, 105
1, 49992, Control_c, 4, 11, 105
1, 49992, Control_c, 6, 11, 105
1, 49992, Control_c, 7, 11, 105
1, 49992, Control_c, 9, 11, 105
1, 50016, Note_on_c, 1, 31, 0
1, 50016, Control_c, 1, 11, 104
1, 50016, Note_on_c, 2, 62, 97
1, 50016, Note_on_c, 2, 67, 88
1, 50016, Note_on_c, 2, 57, 84
1, 50016, Control_c, 2, 11, 104
1, 50016, Control_c, 4, 11, 104
1, 50016, Note_on_c, 6, 69, 54
1, 50016, Note_on_c, 6, 74, 67
1, 50016, Note_on_c, 6, 79, 58
1, 50016, Control_c, 6, 11, 104
1, 50016, Control_c, 7, 11, 104
1, 50016, Note_on_c, 9, 40, 105
1, 50016, Note_on_c, 9, 46, 51
1, 50016, Note_on_c, 9, 53, 80
1, 50016, Control_c, 9, 11, 104
1, 50018, Note_on_c, 9, 53, 0
1, 50018, Note_on_c, 9, 46, 0
1, 50018, Note_on_c, 9, 40, 0
1, 50030, Note_on_c, 7, 74, 0
1, 50030, Note_on_c, 4, 74, 0
1, 50040, Control_c, 1, 11, 102
1, 50040, Control_c, 2, 11, 102
1, 50040, Control_c, 4, 11, 102
1, 50040, Control_c, 6, 11, 102
1, 50040, Control_c, 7, 11, 102
1, 50040, Control_c, 9, 11, 102
1, 50048, Note_on_c, 4, 74, 117
1, 50048, Note_on_c, 7, 74, 127
1, 50064, Note_on_c, 1, 31, 92
1, 50064, Control_c, 1, 11, 101
1, 50064, Note_on_c, 2, 55, 62
1, 50064, Control_c, 2, 11, 101
1, 50064, Control_c, 4, 11, 101
1, 50064, Note_on_c, 6, 67, 32
1, 50064, Control_c, 6, 11, 101
1, 50064, Control_c, 7, 11, 101
1, 50064, Note_on_c, 9, 46, 51
1, 50064, Note_on_c, 9, 53, 50
1, 50064, Control_c, 9, 11, 101
1, 50066, Note_on_c, 9, 53, 0
1, 50066, Note_on_c, 9, 46, 0
1, 50067, Note_on_c, 4, 74, 0
1, 50067, Note_on_c, 7, 74, 0
1, 50072, Note_on_c, 2, 47, 0
1, 50072, Note_on_c, 6, 59, 0
1, 50072, Note_on_c, 6, 79, 0
1, 50072, Note_on_c, 2, 67, 0
1, 50076, Note_on_c, 2, 57, 0
1, 50076, Note_on_c, 6, 69, 0
1, 50077, Note_on_c, 6, 74, 0
1, 50077, Note_on_c, 2, 62, 0
1, 50080, Note_on_c, 4, 76, 117
1, 50080, Note_on_c, 7, 76, 127
1, 50081, Note_on_c, 1, 31, 0
1, 50088, Note_on_c, 1, 29, 84
1, 50088, Control_c, 1, 11, 100
1, 50088, Note_on_c, 2, 58, 66
1, 50088, Note_on_c, 2, 62, 80
1, 50088, Note_on_c, 2, 57, 68
1, 50088, Note_on_c, 2, 65, 80
1, 50088, Control_c, 2, 11, 100
1, 50088, Control_c, 4, 11, 100
1, 50088, Note_on_c, 6, 69, 38
1, 50088, Note_on_c, 6, 70, 36
1, 50088, Note_on_c, 6, 74, 50
1, 50088, Note_on_c, 6, 77, 50
1, 50088, Control_c, 6, 11, 100
1, 50088, Control_c, 7, 11, 100
1, 50088, Control_c, 9, 11, 100
1, 50091, Note_on_c, 6, 67, 0
1, 50091, Note_on_c, 2, 55, 0
1, 50098, Note_on_c, 7, 76, 0
1, 50098, Note_on_c, 4, 76, 0
1, 50110, Note_on_c, 1, 29, 0
1, 50112, Note_on_c, 1, 34, 88
1, 50112, Control_c, 1, 11, 99
1, 50112, Control_c, 2, 11, 99
1, 50112, Note_on_c, 4, 76, 117
1, 50112, Control_c, 4, 11, 99
1, 50112, Control_c, 6, 11, 99
1, 50112, Note_on_c, 7, 76, 127
1, 50112, Control_c, 7, 11, 99
1, 50112, Note_on_c, 9, 35, 75
1, 50112, Note_on_c, 9, 46, 51
1, 50112, Note_on_c, 9, 53, 88
1, 50112, Control_c, 9, 11, 99
1, 50114, Note_on_c, 9, 53, 0
1, 50114, Note_on_c, 9, 46, 0
1, 50114, Note_on_c, 9, 35, 0
1, 50122, Note_on_c, 6, 77, 0
1, 50122, Note_on_c, 6, 69, 0
1, 50122, Note_on_c, 2, 57, 0
1, 50122, Note_on_c, 6, 70, 0
1, 50122, Note_on_c, 2, 58, 0
1, 50122, Note_on_c, 2, 65, 0
1, 50122, Pitch_bend_c, 4, 8712
1, 50122, Pitch_bend_c, 7, 8712
1, 50123, Pitch_bend_c, 4, 10402
1, 50123, Pitch_bend_c, 7, 10402
1, 50127, Pitch_bend_c, 4, 12222
1, 50127, Pitch_bend_c, 7, 12222
1, 50128, Note_on_c, 6, 74, 0
1, 50128, Note_on_c, 2, 62, 0
1, 50130, Pitch_bend_c, 4, 12742
1, 50130, Pitch_bend_c, 7, 12742
1, 50134, Pitch_bend_c, 4, 12352
1, 50134, Pitch_bend_c, 7, 12352
1, 50135, Note_on_c, 7, 76, 0
1, 50135, Note_on_c, 4, 76, 0
1, 50136, Control_c, 1, 11, 98
1, 50136, Note_on_c, 2, 58, 80
1, 50136, Note_on_c, 2, 62, 88
1, 50136, Note_on_c, 2, 57, 68
1, 50136, Note_on_c, 2, 65, 76
1, 50136, Control_c, 2, 11, 98
1, 50136, Control_c, 4, 11, 98
1, 50136, Note_on_c, 6, 69, 38
1, 50136, Note_on_c, 6, 70, 50
1, 50136, Note_on_c, 6, 74, 58
1, 50136, Note_on_c, 6, 77, 46
1, 50136, Control_c, 6, 11, 98
1, 50136, Control_c, 7, 11, 98
1, 50136, Control_c, 9, 11, 98
1, 50138, Pitch_bend_c, 4, 10792
1, 50138, Pitch_bend_c, 7, 10792
1, 50142, Pitch_bend_c, 4, 8192
1, 50142, Pitch_bend_c, 4, 10272
1, 50142, Pitch_bend_c, 7, 8192
1, 50142, Pitch_bend_c, 7, 10272
1, 50144, Note_on_c, 4, 76, 112
1, 50144, Note_on_c, 7, 76, 122
1, 50160, Control_c, 1, 11, 96
1, 50160, Note_on_c, 2, 46, 64
1, 50160, Control_c, 2, 11, 96
1, 50160, Control_c, 4, 11, 96
1, 50160, Note_on_c, 6, 58, 34
1, 50160, Control_c, 6, 11, 96
1, 50160, Control_c, 7, 11, 96
1, 50160, Note_on_c, 9, 35, 61
1, 50160, Note_on_c, 9, 46, 51
1, 50160, Note_on_c, 9, 53, 58
1, 50160, Control_c, 9, 11, 96
1, 50162, Note_on_c, 9, 53, 0
1, 50162, Note_on_c, 9, 46, 0
1, 50162, Note_on_c, 9, 35, 0
1, 50166, Note_on_c, 4, 76, 0
1, 50166, Note_on_c, 7, 76, 0
1, 50176, Note_on_c, 4, 74, 102
1, 50176, Note_on_c, 7, 74, 112
1, 50184, Control_c, 1, 11, 95
1, 50184, Control_c, 2, 11, 95
1, 50184, Control_c, 4, 11, 95
1, 50184, Control_c, 6, 11, 95
1, 50184, Control_c, 7, 11, 95
1, 50184, Control_c, 9, 11, 95
1, 50190, Note_on_c, 6, 69, 0
1, 50190, Note_on_c, 2, 57, 0
1, 50192, Note_on_c, 4, 74, 0
1, 50192, Note_on_c, 7, 74, 0
1, 50195, Note_on_c, 6, 70, 0
1, 50195, Note_on_c, 2, 58, 0
1, 50201, Note_on_c, 6, 77, 0
1, 50201, Note_on_c, 2, 65, 0
1, 50206, Note_on_c, 1, 34, 0
1, 50207, Note_on_c, 2, 46, 0
1, 50207, Note_on_c, 6, 58, 0
1, 50208, Note_on_c, 1, 33, 86
1, 50208, Control_c, 1, 11, 94
1, 50208, Note_on_c, 2, 64, 80
1, 50208, Note_on_c, 2, 55, 64
1, 50208, Note_on_c, 2, 60, 92
1, 50208, Control_c, 2, 11, 94
1, 50208, Note_on_c, 4, 72, 117
1, 50208, Control_c, 4, 11, 94
1, 50208, Note_on_c, 6, 67, 34
1, 50208, Note_on_c, 6, 72, 62
1, 50208, Note_on_c, 6, 76, 50
1, 50208, Control_c, 6, 11, 94
1, 50208, Note_on_c, 7, 72, 127
1, 50208, Control_c, 7, 11, 94
1, 50208, Note_on_c, 9, 40, 105
1, 50208, Note_on_c, 9, 46, 51
1, 50208, Note_on_c, 9, 49, 66
1, 50208, Note_on_c, 9, 53, 76
1, 50208, Control_c, 9, 11, 94
1, 50210, Note_on_c, 9, 53, 0
1, 50210, Note_on_c, 9, 40, 0
1, 50210, Note_on_c, 9, 49, 0
1, 50210, Note_on_c, 9, 46, 0
1, 50216, Note_on_c, 6, 74, 0
1, 50216, Note_on_c, 2, 62, 0
1, 50217, Pitch_bend_c, 4, 8712
1, 50217, Pitch_bend_c, 7, 8712
1, 50218, Pitch_bend_c, 4, 10012
1, 50218, Pitch_bend_c, 7, 10012
1, 50222, Pitch_bend_c, 4, 12742
1, 50222, Pitch_bend_c, 7, 12742
1, 50225, Pitch_bend_c, 4, 15342
1, 50225, Pitch_bend_c, 7, 15342
1, 50229, Pitch_bend_c, 4, 15082
1, 50229, Pitch_bend_c, 7, 15082
1, 50232, Control_c, 1, 11, 93
1, 50232, Control_c, 2, 11, 93
1, 50232, Control_c, 4, 11, 93
1, 50232, Control_c, 6, 11, 93
1, 50232, Control_c, 7, 11, 93
1, 50232, Control_c, 9, 11, 93
1, 50233, Pitch_bend_c, 4, 13652
1, 50233, Pitch_bend_c, 7, 13652
1, 50234, Note_on_c, 7, 72, 0
1, 50234, Note_on_c, 4, 72, 0
1, 50236, Pitch_bend_c, 4, 10662
1, 50236, Pitch_bend_c, 7, 10662
1, 50237, Pitch_bend_c, 4, 8192
1, 50237, Pitch_bend_c, 7, 8192
1, 50240, Note_on_c, 4, 72, 114
1, 50240, Note_on_c, 7, 72, 124
1, 50256, Control_c, 1, 11, 92
1, 50256, Note_on_c, 2, 48, 39
1, 50256, Control_c, 2, 11, 92
1, 50256, Control_c, 4, 11, 92
1, 50256, Note_on_c, 6, 60, 9
1, 50256, Control_c, 6, 11, 92
1, 50256, Control_c, 7, 11, 92
1, 50256, Note_on_c, 9, 46, 51
1, 50256, Note_on_c, 9, 53, 42
1, 50256, Control_c, 9, 11, 92
1, 50257, Note_on_c, 7, 72, 0
1, 50257, Note_on_c, 4, 72, 0
1, 50258, Note_on_c, 9, 53, 0
1, 50258, Note_on_c, 9, 46, 0
1, 50272, Note_on_c, 4, 72, 86
1, 50272, Note_on_c, 7, 72, 96
1, 50280, Control_c, 1, 11, 91
1, 50280, Control_c, 2, 11, 91
1, 50280, Control_c, 4, 11, 91
1, 50280, Control_c, 6, 11, 91
1, 50280, Control_c, 7, 11, 91
1, 50280, Note_on_c, 9, 40, 90
1, 50280, Control_c, 9, 11, 91
1, 50282, Note_on_c, 9, 40, 0
1, 50286, Note_on_c, 2, 48, 0
1, 50286, Note_on_c, 6, 60, 0
1, 50290, Note_on_c, 1, 33, 0
1, 50297, Note_on_c, 6, 67, 0
1, 50297, Note_on_c, 2, 55, 0
1, 50299, Note_on_c, 4, 72, 0
1, 50299, Note_on_c, 7, 72, 0
1, 50304, Note_on_c, 1, 38, 96
1, 50304, Control_c, 1, 11, 89
1, 50304, Note_on_c, 2, 50, 80
1, 50304, Control_c, 2, 11, 89
1, 50304, Note_on_c, 4, 69, 112
1, 50304, Control_c, 4, 11, 89
1, 50304, Note_on_c, 6, 62, 50
1, 50304, Control_c, 6, 11, 89
1, 50304, Note_on_c, 7, 69, 122
1, 50304, Control_c, 7, 11, 89
1, 50304, Note_on_c, 9, 35, 75
1, 50304, Note_on_c, 9, 46, 51
1, 50304, Note_on_c, 9, 57, 88
1, 50304, Control_c, 9, 11, 89
1, 50306, Note_on_c, 9, 57, 0
1, 50306, Note_on_c, 9, 35, 0
1, 50306, Note_on_c, 9, 46, 0
1, 50319, Note_on_c, 6, 72, 0
1, 50319, Note_on_c, 2, 60, 0
1, 50323, Note_on_c, 6, 76, 0
1, 50323, Note_on_c, 2, 64, 0
1, 50328, Note_on_c, 6, 62, 0
1, 50328, Note_on_c, 2, 50, 0
1, 50328, Control_c, 1, 11, 88
1, 50328, Control_c, 2, 11, 88
1, 50328, Control_c, 4, 11, 88
1, 50328, Control_c, 6, 11, 88
1, 50328, Control_c, 7, 11, 88
1, 50328, Control_c, 9, 11, 88
1, 50332, Control_c, 4, 1, 7
1, 50332, Control_c, 7, 1, 7
1, 50337, Control_c, 4, 1, 16
1, 50337, Control_c, 7, 1, 16
1, 50342, Control_c, 4, 1, 24
1, 50342, Control_c, 7, 1, 24
1, 50344, Note_on_c, 1, 38, 0
1, 50346, Control_c, 4, 1, 29
1, 50346, Control_c, 7, 1, 29
1, 50350, Control_c, 4, 1, 33
1, 50350, Control_c, 7, 1, 33
1, 50352, Note_on_c, 1, 33, 62
1, 50352, Control_c, 1, 11, 87
1, 50352, Note_on_c, 2, 50, 72
1, 50352, Control_c, 2, 11, 87
1, 50352, Control_c, 4, 11, 87
1, 50352, Note_on_c, 6, 62, 42
1, 50352, Control_c, 6, 11, 87
1, 50352, Control_c, 7, 11, 87
1, 50352, Note_on_c, 9, 35, 56
1, 50352, Note_on_c, 9, 46, 51
1, 50352, Note_on_c, 9, 53, 37
1, 50352, Control_c, 9, 11, 87
1, 50354, Note_on_c, 9, 53, 0
1, 50354, Note_on_c, 9, 46, 0
1, 50354, Note_on_c, 9, 35, 0
1, 50355, Control_c, 4, 1, 40
1, 50355, Control_c, 7, 1, 40
1, 50360, Control_c, 4, 1, 44
1, 50360, Control_c, 7, 1, 44
1, 50364, Control_c, 4, 1, 46
1, 50364, Control_c, 7, 1, 46
1, 50369, Control_c, 4, 1, 47
1, 50369, Control_c, 7, 1, 47
1, 50374, Control_c, 4, 1, 48
1, 50374, Control_c, 7, 1, 48
1, 50376, Control_c, 1, 11, 86
1, 50376, Control_c, 2, 11, 86
1, 50376, Control_c, 4, 11, 86
1, 50376, Control_c, 6, 11, 86
1, 50376, Control_c, 7, 11, 86
1, 50376, Control_c, 9, 11, 86
1, 50380, Control_c, 4, 1, 49
1, 50380, Control_c, 7, 1, 49
1, 50385, Control_c, 4, 1, 50
1, 50385, Control_c, 7, 1, 50
1, 50389, Note_on_c, 1, 33, 0
1, 50389, Control_c, 4, 1, 52
1, 50389, Control_c, 7, 1, 52
1, 50393, Control_c, 4, 1, 54
1, 50393, Control_c, 7, 1, 54
1, 50397, Control_c, 4, 1, 56
1, 50397, Control_c, 7, 1, 56
1, 50400, Note_on_c, 1, 38, 100
1, 50400, Control_c, 1, 11, 85
1, 50400, Note_on_c, 2, 72, 84
1, 50400, Note_on_c, 2, 69, 92
1, 50400, Note_on_c, 2, 62, 80
1, 50400, Note_on_c, 2, 74, 84
1, 50400, Note_on_c, 2, 60, 68
1, 50400, Note_on_c, 2, 57, 66
1, 50400, Control_c, 2, 11, 85
1, 50400, Control_c, 4, 11, 85
1, 50400, Note_on_c, 6, 69, 36
1, 50400, Note_on_c, 6, 72, 38
1, 50400, Note_on_c, 6, 74, 50
1, 50400, Note_on_c, 6, 81, 62
1, 50400, Note_on_c, 6, 84, 54
1, 50400, Note_on_c, 6, 86, 54
1, 50400, Control_c, 6, 11, 85
1, 50400, Control_c, 7, 11, 85
1, 50400, Note_on_c, 9, 40, 105
1, 50400, Note_on_c, 9, 46, 51
1, 50400, Note_on_c, 9, 53, 68
1, 50400, Control_c, 9, 11, 85
1, 50402, Note_on_c, 9, 53, 0
1, 50402, Note_on_c, 9, 46, 0
1, 50402, Note_on_c, 9, 40, 0
1, 50403, Control_c, 4, 1, 57
1, 50403, Control_c, 7, 1, 57
1, 50409, Control_c, 4, 1, 58
1, 50409, Control_c, 7, 1, 58
1, 50421, Note_on_c, 2, 50, 0
1, 50421, Note_on_c, 6, 62, 0
1, 50423, Note_on_c, 6, 84, 0
1, 50423, Note_on_c, 2, 72, 0
1, 50424, Control_c, 1, 11, 83
1, 50424, Control_c, 2, 11, 83
1, 50424, Control_c, 4, 11, 83
1, 50424, Control_c, 6, 11, 83
1, 50424, Control_c, 7, 11, 83
1, 50424, Control_c, 9, 11, 83
1, 50448, Control_c, 1, 11, 82
1, 50448, Control_c, 2, 11, 82
1, 50448, Control_c, 4, 11, 82
1, 50448, Control_c, 6, 11, 82
1, 50448, Control_c, 7, 11, 82
1, 50448, Note_on_c, 9, 46, 51
1, 50448, Note_on_c, 9, 53, 56
1, 50448, Control_c, 9, 11, 82
1, 50450, Note_on_c, 9, 53, 0
1, 50450, Note_on_c, 9, 46, 0
1, 50455, Note_on_c, 6, 74, 0
1, 50455, Note_on_c, 2, 60, 0
1, 50455, Note_on_c, 6, 72, 0
1, 50455, Note_on_c, 2, 62, 0
1, 50470, Note_on_c, 2, 57, 0
1, 50470, Note_on_c, 6, 69, 0
1, 50470, Control_c, 4, 1, 57
1, 50470, Control_c, 7, 1, 57
1, 50472, Control_c, 1, 11, 81
1, 50472, Note_on_c, 2, 67, 66
1, 50472, Note_on_c, 2, 62, 66
1, 50472, Note_on_c, 2, 60, 72
1, 50472, Control_c, 2, 11, 81
1, 50472, Control_c, 4, 11, 81
1, 50472, Note_on_c, 6, 72, 42
1, 50472, Note_on_c, 6, 74, 36
1, 50472, Note_on_c, 6, 79, 36
1, 50472, Control_c, 6, 11, 81
1, 50472, Control_c, 7, 11, 81
1, 50472, Control_c, 9, 11, 81
1, 50473, Control_c, 4, 1, 55
1, 50473, Control_c, 7, 1, 55
1, 50477, Control_c, 4, 1, 50
1, 50477, Control_c, 7, 1, 50
1, 50481, Control_c, 4, 1, 42
1, 50481, Control_c, 7, 1, 42
1, 50486, Control_c, 4, 1, 30
1, 50486, Control_c, 7, 1, 30
1, 50490, Control_c, 4, 1, 5
1, 50490, Control_c, 7, 1, 5
1, 50492, Note_on_c, 6, 81, 0
1, 50492, Note_on_c, 2, 69, 0
1, 50495, Control_c, 4, 1, 0
1, 50495, Control_c, 7, 1, 0
1, 50496, Note_on_c, 1, 36, 100
1, 50496, Control_c, 1, 11, 80
1, 50496, Note_on_c, 2, 48, 64
1, 50496, Control_c, 2, 11, 80
1, 50496, Control_c, 4, 11, 80
1, 50496, Note_on_c, 6, 60, 34
1, 50496, Control_c, 6, 11, 80
1, 50496, Control_c, 7, 11, 80
1, 50496, Note_on_c, 9, 35, 75
1, 50496, Note_on_c, 9, 46, 51
1, 50496, Note_on_c, 9, 53, 88
1, 50496, Control_c, 9, 11, 80
1, 50497, Note_on_c, 1, 38, 0
1, 50498, Note_on_c, 9, 53, 0
1, 50498, Note_on_c, 9, 46, 0
1, 50498, Note_on_c, 9, 35, 0
1, 50520, Control_c, 1, 11, 79
1, 50520, Control_c, 2, 11, 79
1, 50520, Control_c, 4, 11, 79
1, 50520, Control_c, 6, 11, 79
1, 50520, Control_c, 7, 11, 79
1, 50520, Control_c, 9, 11, 79
1, 50525, Note_on_c, 2, 48, 0
1, 50525, Note_on_c, 6, 60, 0
1, 50539, Note_on_c, 1, 36, 0
1, 50544, Note_on_c, 1, 35, 86
1, 50544, Control_c, 1, 11, 77
1, 50544, Note_on_c, 2, 57, 64
1, 50544, Note_on_c, 2, 48, 64
1, 50544, Control_c, 2, 11, 77
1, 50544, Control_c, 4, 11, 77
1, 50544, Note_on_c, 6, 60, 34
1, 50544, Note_on_c, 6, 69, 34
1, 50544, Control_c, 6, 11, 77
1, 50544, Control_c, 7, 11, 77
1, 50544, Note_on_c, 9, 35, 56
1, 50544, Note_on_c, 9, 46, 51
1, 50544, Note_on_c, 9, 53, 62
1, 50544, Control_c, 9, 11, 77
1, 50546, Note_on_c, 9, 53, 0
1, 50546, Note_on_c, 9, 46, 0
1, 50546, Note_on_c, 9, 35, 0
1, 50546, Note_on_c, 2, 67, 0
1, 50546, Note_on_c, 6, 86, 0
1, 50546, Note_on_c, 6, 79, 0
1, 50546, Note_on_c, 2, 74, 0
1, 50552, Note_on_c, 2, 60, 0
1, 50552, Note_on_c, 6, 72, 0
1, 50553, Note_on_c, 6, 74, 0
1, 50553, Note_on_c, 2, 62, 0
1, 50568, Control_c, 1, 11, 76
1, 50568, Control_c, 2, 11, 76
1, 50568, Control_c, 4, 11, 76
1, 50568, Control_c, 6, 11, 76
1, 50568, Control_c, 7, 11, 76
1, 50568, Control_c, 9, 11, 76
1, 50584, Note_on_c, 4, 69, 0
1, 50584, Note_on_c, 7, 69, 0
1, 50584, Pitch_bend_c, 4, 7168
1, 50584, Pitch_bend_c, 7, 7168
1, 50585, Pitch_bend_c, 4, 2816
1, 50585, Pitch_bend_c, 7, 2816
1, 50587, Note_on_c, 1, 35, 0
1, 50589, Pitch_bend_c, 4, 768
1, 50589, Pitch_bend_c, 7, 768
1, 50592, Note_on_c, 1, 33, 96
1, 50592, Control_c, 1, 11, 75
1, 50592, Note_on_c, 2, 60, 72
1, 50592, Note_on_c, 2, 69, 88
1, 50592, Note_on_c, 2, 62, 68
1, 50592, Note_on_c, 2, 74, 84
1, 50592, Control_c, 2, 11, 75
1, 50592, Note_on_c, 4, 69, 117
1, 50592, Control_c, 4, 11, 75
1, 50592, Note_on_c, 6, 72, 42
1, 50592, Note_on_c, 6, 74, 38
1, 50592, Note_on_c, 6, 81, 58
1, 50592, Note_on_c, 6, 86, 54
1, 50592, Control_c, 6, 11, 75
1, 50592, Note_on_c, 7, 69, 127
1, 50592, Control_c, 7, 11, 75
1, 50592, Note_on_c, 9, 40, 105
1, 50592, Note_on_c, 9, 46, 51
1, 50592, Note_on_c, 9, 53, 97
1, 50592, Control_c, 9, 11, 75
1, 50594, Note_on_c, 9, 53, 0
1, 50594, Note_on_c, 9, 46, 0
1, 50594, Note_on_c, 9, 40, 0
1, 50595, Pitch_bend_c, 4, 1152
1, 50595, Pitch_bend_c, 7, 1152
1, 50596, Pitch_bend_c, 4, 2176
1, 50596, Pitch_bend_c, 7, 2176
1, 50600, Pitch_bend_c, 4, 3840
1, 50600, Pitch_bend_c, 7, 3840
1, 50603, Pitch_bend_c, 4, 6272
1, 50603, Pitch_bend_c, 7, 6272
1, 50607, Pitch_bend_c, 4, 7552
1, 50607, Pitch_bend_c, 7, 7552
1, 50610, Pitch_bend_c, 4, 7936
1, 50610, Pitch_bend_c, 7, 7936
1, 50611, Pitch_bend_c, 4, 8192
1, 50611, Pitch_bend_c, 7, 8192
1, 50613, Note_on_c, 6, 69, 0
1, 50613, Note_on_c, 2, 57, 0
1, 50616, Note_on_c, 4, 69, 0
1, 50616, Note_on_c, 7, 69, 0
1, 50616, Control_c, 1, 11, 74
1, 50616, Control_c, 2, 11, 74
1, 50616, Note_on_c, 4, 72, 107
1, 50616, Control_c, 4, 11, 74
1, 50616, Control_c, 6, 11, 74
1, 50616, Note_on_c, 7, 72, 117
1, 50616, Control_c, 7, 11, 74
1, 50616, Control_c, 9, 11, 74
1, 50634, Note_on_c, 7, 72, 0
1, 50634, Note_on_c, 4, 72, 0
1, 50640, Control_c, 1, 11, 73
1, 50640, Note_on_c, 2, 57, 56
1, 50640, Control_c, 2, 11, 73
1, 50640, Note_on_c, 4, 67, 117
1, 50640, Control_c, 4, 11, 73
1, 50640, Note_on_c, 6, 69, 26
1, 50640, Control_c, 6, 11, 73
1, 50640, Note_on_c, 7, 67, 127
1, 50640, Control_c, 7, 11, 73
1, 50640, Note_on_c, 9, 46, 51
1, 50640, Note_on_c, 9, 53, 54
1, 50640, Control_c, 9, 11, 73
1, 50642, Note_on_c, 9, 53, 0
1, 50642, Note_on_c, 9, 46, 0
1, 50644, Note_on_c, 6, 60, 0
1, 50644, Note_on_c, 2, 48, 0
1, 50648, Note_on_c, 2, 62, 0
1, 50648, Note_on_c, 2, 60, 0
1, 50648, Note_on_c, 6, 72, 0
1, 50648, Note_on_c, 6, 74, 0
1, 50659, Note_on_c, 2, 57, 0
1, 50659, Note_on_c, 6, 69, 0
1, 50659, Pitch_bend_c, 4, 10142
1, 50659, Pitch_bend_c, 7, 10142
1, 50661, Note_on_c, 2, 69, 0
1, 50661, Note_on_c, 6, 81, 0
1, 50663, Pitch_bend_c, 4, 11702
1, 50663, Pitch_bend_c, 7, 11702
1, 50664, Control_c, 1, 11, 71
1, 50664, Note_on_c, 2, 62, 68
1, 50664, Note_on_c, 2, 67, 72
1, 50664, Control_c, 2, 11, 71
1, 50664, Control_c, 4, 11, 71
1, 50664, Note_on_c, 6, 74, 38
1, 50664, Note_on_c, 6, 79, 42
1, 50664, Control_c, 6, 11, 71
1, 50664, Control_c, 7, 11, 71
1, 50664, Control_c, 9, 11, 71
1, 50666, Pitch_bend_c, 4, 12352
1, 50666, Pitch_bend_c, 7, 12352
1, 50671, Pitch_bend_c, 4, 12092
1, 50671, Pitch_bend_c, 7, 12092
1, 50673, Pitch_bend_c, 4, 10402
1, 50673, Pitch_bend_c, 7, 10402
1, 50677, Pitch_bend_c, 4, 9102
1, 50677, Pitch_bend_c, 7, 9102
1, 50680, Pitch_bend_c, 4, 8192
1, 50680, Pitch_bend_c, 7, 8192
1, 50685, Pitch_bend_c, 4, 8582
1, 50685, Pitch_bend_c, 7, 8582
1, 50687, Pitch_bend_c, 4, 9622
1, 50687, Pitch_bend_c, 7, 9622
1, 50688, Note_on_c, 1, 35, 100
1, 50688, Control_c, 1, 11, 70
1, 50688, Note_on_c, 2, 55, 66
1, 50688, Control_c, 2, 11, 70
1, 50688, Control_c, 4, 11, 70
1, 50688, Note_on_c, 6, 67, 36
1, 50688, Control_c, 6, 11, 70
1, 50688, Control_c, 7, 11, 70
1, 50688, Note_on_c, 9, 35, 75
1, 50688, Note_on_c, 9, 46, 51
1, 50688, Note_on_c, 9, 53, 84
1, 50688, Control_c, 9, 11, 70
1, 50689, Note_on_c, 1, 33, 0
1, 50690, Note_on_c, 9, 35, 0
1, 50690, Note_on_c, 9, 53, 0
1, 50690, Note_on_c, 9, 46, 0
1, 50691, Pitch_bend_c, 4, 10142
1, 50691, Pitch_bend_c, 7, 10142
1, 50694, Pitch_bend_c, 4, 9752
1, 50694, Pitch_bend_c, 7, 9752
1, 50698, Pitch_bend_c, 4, 8972
1, 50698, Pitch_bend_c, 7, 8972
1, 50699, Pitch_bend_c, 4, 8192
1, 50699, Pitch_bend_c, 7, 8192
1, 50710, Note_on_c, 7, 67, 0
1, 50710, Note_on_c, 4, 67, 0
1, 50712, Control_c, 1, 11, 69
1, 50712, Control_c, 2, 11, 69
1, 50712, Note_on_c, 4, 65, 94
1, 50712, Control_c, 4, 11, 69
1, 50712, Control_c, 6, 11, 69
1, 50712, Note_on_c, 7, 65, 104
1, 50712, Control_c, 7, 11, 69
1, 50712, Control_c, 9, 11, 69
1, 50717, Note_on_c, 2, 55, 0
1, 50717, Note_on_c, 6, 67, 0
1, 50725, Note_on_c, 1, 35, 0
1, 50728, Note_on_c, 7, 65, 0
1, 50728, Note_on_c, 4, 65, 0
1, 50736, Note_on_c, 1, 33, 86
1, 50736, Control_c, 1, 11, 68
1, 50736, Note_on_c, 2, 55, 76
1, 50736, Control_c, 2, 11, 68
1, 50736, Note_on_c, 4, 62, 108
1, 50736, Control_c, 4, 11, 68
1, 50736, Note_on_c, 6, 67, 46
1, 50736, Control_c, 6, 11, 68
1, 50736, Note_on_c, 7, 62, 118
1, 50736, Control_c, 7, 11, 68
1, 50736, Note_on_c, 9, 35, 54
1, 50736, Note_on_c, 9, 46, 51
1, 50736, Note_on_c, 9, 53, 52
1, 50736, Control_c, 9, 11, 68
1, 50738, Note_on_c, 9, 53, 0
1, 50738, Note_on_c, 9, 46, 0
1, 50738, Note_on_c, 9, 35, 0
1, 50740, Note_on_c, 2, 67, 0
1, 50740, Note_on_c, 6, 79, 0
1, 50744, Note_on_c, 2, 74, 0
1, 50744, Note_on_c, 6, 86, 0
1, 50746, Note_on_c, 6, 74, 0
1, 50746, Note_on_c, 2, 62, 0
1, 50758, Note_on_c, 4, 62, 0
1, 50758, Note_on_c, 7, 62, 0
1, 50760, Control_c, 1, 11, 67
1, 50760, Control_c, 2, 11, 67
1, 50760, Note_on_c, 4, 65, 112
1, 50760, Control_c, 4, 11, 67
1, 50760, Control_c, 6, 11, 67
1, 50760, Note_on_c, 7, 65, 122
1, 50760, Control_c, 7, 11, 67
1, 50760, Control_c, 9, 11, 67
1, 50782, Note_on_c, 7, 65, 0
1, 50782, Note_on_c, 1, 33, 0
1, 50782, Note_on_c, 4, 65, 0
1, 50784, Note_on_c, 1, 31, 88
1, 50784, Control_c, 1, 11, 65
1, 50784, Note_on_c, 2, 62, 84
1, 50784, Note_on_c, 2, 67, 84
1, 50784, Note_on_c, 2, 74, 84
1, 50784, Control_c, 2, 11, 65
1, 50784, Note_on_c, 4, 67, 107
1, 50784, Control_c, 4, 11, 65
1, 50784, Note_on_c, 6, 74, 54
1, 50784, Note_on_c, 6, 79, 54
1, 50784, Note_on_c, 6, 86, 54
1, 50784, Control_c, 6, 11, 65
1, 50784, Note_on_c, 7, 67, 117
1, 50784, Control_c, 7, 11, 65
1, 50784, Note_on_c, 9, 40, 105
1, 50784, Note_on_c, 9, 46, 51
1, 50784, Note_on_c, 9, 53, 84
1, 50784, Control_c, 9, 11, 65
1, 50786, Note_on_c, 9, 53, 0
1, 50786, Note_on_c, 9, 46, 0
1, 50786, Note_on_c, 9, 40, 0
1, 50803, Note_on_c, 2, 55, 0
1, 50803, Note_on_c, 6, 67, 0
1, 50806, Note_on_c, 7, 67, 0
1, 50806, Note_on_c, 4, 67, 0
1, 50808, Control_c, 1, 11, 64
1, 50808, Control_c, 2, 11, 64
1, 50808, Note_on_c, 4, 65, 112
1, 50808, Control_c, 4, 11, 64
1, 50808, Control_c, 6, 11, 64
1, 50808, Note_on_c, 7, 65, 122
1, 50808, Control_c, 7, 11, 64
1, 50808, Control_c, 9, 11, 64
1, 50830, Note_on_c, 7, 65, 0
1, 50830, Note_on_c, 4, 65, 0
1, 50832, Control_c, 1, 11, 63
1, 50832, Note_on_c, 2, 55, 66
1, 50832, Control_c, 2, 11, 63
1, 50832, Note_on_c, 4, 67, 98
1, 50832, Control_c, 4, 11, 63
1, 50832, Note_on_c, 6, 67, 36
1, 50832, Control_c, 6, 11, 63
1, 50832, Note_on_c, 7, 67, 108
1, 50832, Control_c, 7, 11, 63
1, 50832, Note_on_c, 9, 46, 51
1, 50832, Note_on_c, 9, 53, 54
1, 50832, Control_c, 9, 11, 63
1, 50834, Note_on_c, 9, 53, 0
1, 50834, Note_on_c, 9, 46, 0
1, 50836, Note_on_c, 2, 74, 0
1, 50836, Note_on_c, 6, 86, 0
1, 50839, Note_on_c, 6, 79, 0
1, 50839, Note_on_c, 2, 67, 0
1, 50853, Note_on_c, 2, 62, 0
1, 50853, Note_on_c, 6, 74, 0
1, 50854, Note_on_c, 4, 67, 0
1, 50854, Note_on_c, 7, 67, 0
1, 50856, Control_c, 1, 11, 62
1, 50856, Note_on_c, 2, 53, 88
1, 50856, Control_c, 2, 11, 62
1, 50856, Note_on_c, 4, 65, 102
1, 50856, Control_c, 4, 11, 62
1, 50856, Note_on_c, 6, 65, 58
1, 50856, Control_c, 6, 11, 62
1, 50856, Note_on_c, 7, 65, 112
1, 50856, Control_c, 7, 11, 62
1, 50856, Control_c, 9, 11, 62
1, 50859, Note_on_c, 2, 55, 0
1, 50859, Note_on_c, 6, 67, 0
1, 50869, Pitch_bend_c, 4, 7296
1, 50869, Pitch_bend_c, 7, 7296
1, 50872, Pitch_bend_c, 4, 4608
1, 50872, Pitch_bend_c, 7, 4608
1, 50876, Pitch_bend_c, 4, 2432
1, 50876, Pitch_bend_c, 7, 2432
1, 50878, Note_on_c, 4, 65, 0
1, 50878, Note_on_c, 7, 65, 0
1, 50880, Note_on_c, 1, 34, 88
1, 50880, Control_c, 1, 11, 61
1, 50880, Note_on_c, 2, 65, 68
1, 50880, Note_on_c, 2, 60, 58
1, 50880, Note_on_c, 2, 46, 68
1, 50880, Control_c, 2, 11, 61
1, 50880, Note_on_c, 4, 69, 112
1, 50880, Control_c, 4, 11, 61
1, 50880, Pitch_bend_c, 4, 1408
1, 50880, Note_on_c, 6, 58, 38
1, 50880, Note_on_c, 6, 72, 28
1, 50880, Note_on_c, 6, 77, 38
1, 50880, Control_c, 6, 11, 61
1, 50880, Note_on_c, 7, 69, 122
1, 50880, Control_c, 7, 11, 61
1, 50880, Pitch_bend_c, 7, 1408
1, 50880, Note_on_c, 9, 35, 75
1, 50880, Note_on_c, 9, 46, 51
1, 50880, Note_on_c, 9, 53, 88
1, 50880, Control_c, 9, 11, 61
1, 50882, Note_on_c, 9, 53, 0
1, 50882, Note_on_c, 9, 46, 0
1, 50882, Note_on_c, 9, 35, 0
1, 50883, Pitch_bend_c, 4, 1920
1, 50883, Pitch_bend_c, 7, 1920
1, 50887, Pitch_bend_c, 4, 3072
1, 50887, Pitch_bend_c, 7, 3072
1, 50889, Note_on_c, 1, 31, 0
1, 50890, Pitch_bend_c, 4, 5504
1, 50890, Pitch_bend_c, 7, 5504
1, 50894, Pitch_bend_c, 4, 7424
1, 50894, Pitch_bend_c, 7, 7424
1, 50897, Pitch_bend_c, 4, 8192
1, 50897, Pitch_bend_c, 7, 8192
1, 50902, Note_on_c, 4, 69, 0
1, 50902, Note_on_c, 7, 69, 0
1, 50904, Control_c, 1, 11, 60
1, 50904, Control_c, 2, 11, 60
1, 50904, Note_on_c, 4, 72, 107
1, 50904, Control_c, 4, 11, 60
1, 50904, Control_c, 6, 11, 60
1, 50904, Note_on_c, 7, 72, 117
1, 50904, Control_c, 7, 11, 60
1, 50904, Control_c, 9, 11, 60
1, 50926, Note_on_c, 7, 72, 0
1, 50926, Note_on_c, 4, 72, 0
1, 50928, Control_c, 1, 11, 58
1, 50928, Control_c, 2, 11, 58
1, 50928, Note_on_c, 4, 67, 117
1, 50928, Control_c, 4, 11, 58
1, 50928, Control_c, 6, 11, 58
1, 50928, Note_on_c, 7, 67, 127
1, 50928, Control_c, 7, 11, 58
1, 50928, Note_on_c, 9, 35, 54
1, 50928, Note_on_c, 9, 46, 51
1, 50928, Note_on_c, 9, 53, 56
1, 50928, Control_c, 9, 11, 58
1, 50930, Note_on_c, 9, 53, 0
1, 50930, Note_on_c, 9, 46, 0
1, 50930, Note_on_c, 9, 35, 0
1, 50930, Pitch_bend_c, 4, 10142
1, 50930, Pitch_bend_c, 7, 10142
1, 50932, Pitch_bend_c, 4, 13912
1, 50932, Pitch_bend_c, 7, 13912
1, 50935, Pitch_bend_c, 4, 15472
1, 50935, Pitch_bend_c, 7, 15472
1, 50940, Pitch_bend_c, 4, 12742
1, 50940, Pitch_bend_c, 7, 12742
1, 50942, Pitch_bend_c, 4, 11052
1, 50942, Pitch_bend_c, 7, 11052
1, 50943, Pitch_bend_c, 4, 8192
1, 50943, Pitch_bend_c, 7, 8192
1, 50950, Note_on_c, 4, 67, 0
1, 50950, Note_on_c, 7, 67, 0
1, 50952, Control_c, 1, 11, 57
1, 50952, Control_c, 2, 11, 57
1, 50952, Note_on_c, 4, 65, 110
1, 50952, Control_c, 4, 11, 57
1, 50952, Control_c, 6, 11, 57
1, 50952, Note_on_c, 7, 65, 120
1, 50952, Control_c, 7, 11, 57
1, 50952, Control_c, 9, 11, 57
1, 50953, Note_on_c, 6, 72, 0
1, 50953, Note_on_c, 2, 60, 0
1, 50962, Note_on_c, 2, 53, 0
1, 50962, Note_on_c, 6, 58, 0
1, 50962, Note_on_c, 6, 65, 0
1, 50962, Note_on_c, 2, 46, 0
1, 50967, Note_on_c, 2, 65, 0
1, 50967, Note_on_c, 6, 77, 0
1, 50968, Note_on_c, 1, 34, 0
1, 50974, Note_on_c, 7, 65, 0
1, 50974, Note_on_c, 4, 65, 0
1, 50976, Note_on_c, 1, 33, 92
1, 50976, Control_c, 1, 11, 56
1, 50976, Note_on_c, 2, 62, 76
1, 50976, Note_on_c, 2, 60, 76
1, 50976, Note_on_c, 2, 67, 88
1, 50976, Note_on_c, 2, 48, 72
1, 50976, Note_on_c, 2, 55, 64
1, 50976, Control_c, 2, 11, 56
1, 50976, Note_on_c, 4, 62, 74
1, 50976, Note_on_c, 4, 67, 112
1, 50976, Control_c, 4, 11, 56
1, 50976, Note_on_c, 6, 60, 42
1, 50976, Note_on_c, 6, 67, 34
1, 50976, Note_on_c, 6, 72, 46
1, 50976, Note_on_c, 6, 74, 46
1, 50976, Note_on_c, 6, 79, 58
1, 50976, Control_c, 6, 11, 56
1, 50976, Note_on_c, 7, 62, 84
1, 50976, Note_on_c, 7, 67, 122
1, 50976, Control_c, 7, 11, 56
1, 50976, Note_on_c, 9, 40, 105
1, 50976, Note_on_c, 9, 46, 51
1, 50976, Note_on_c, 9, 53, 64
1, 50976, Control_c, 9, 11, 56
1, 50978, Note_on_c, 9, 53, 0
1, 50978, Note_on_c, 9, 46, 0
1, 50978, Note_on_c, 9, 40, 0
1, 50998, Note_on_c, 4, 62, 0
1, 50998, Note_on_c, 7, 67, 0
1, 50998, Note_on_c, 7, 62, 0
1, 50998, Note_on_c, 4, 67, 0
1, 51000, Control_c, 1, 11, 55
1, 51000, Control_c, 2, 11, 55
1, 51000, Note_on_c, 4, 65, 112
1, 51000, Control_c, 4, 11, 55
1, 51000, Control_c, 6, 11, 55
1, 51000, Note_on_c, 7, 65, 122
1, 51000, Control_c, 7, 11, 55
1, 51000, Note_on_c, 9, 49, 66
1, 51000, Control_c, 9, 11, 55
1, 51002, Note_on_c, 9, 49, 0
1, 51022, Note_on_c, 7, 65, 0
1, 51022, Note_on_c, 4, 65, 0
1, 51024, Control_c, 1, 11, 54
1, 51024, Control_c, 2, 11, 54
1, 51024, Note_on_c, 4, 62, 94
1, 51024, Control_c, 4, 11, 54
1, 51024, Control_c, 6, 11, 54
1, 51024, Note_on_c, 7, 62, 104
1, 51024, Control_c, 7, 11, 54
1, 51024, Note_on_c, 9, 45, 75
1, 51024, Note_on_c, 9, 46, 51
1, 51024, Note_on_c, 9, 57, 66
1, 51024, Control_c, 9, 11, 54
1, 51026, Note_on_c, 9, 57, 0
1, 51026, Note_on_c, 9, 46, 0
1, 51026, Note_on_c, 9, 45, 0
1, 51046, Note_on_c, 4, 62, 0
1, 51046, Note_on_c, 7, 62, 0
1, 51048, Control_c, 1, 11, 52
1, 51048, Control_c, 2, 11, 52
1, 51048, Note_on_c, 4, 60, 102
1, 51048, Control_c, 4, 11, 52
1, 51048, Control_c, 6, 11, 52
1, 51048, Note_on_c, 7, 60, 112
1, 51048, Control_c, 7, 11, 52
1, 51048, Note_on_c, 9, 43, 75
1, 51048, Control_c, 9, 11, 52
1, 51050, Note_on_c, 9, 43, 0
1, 51051, Note_on_c, 2, 55, 0
1, 51051, Note_on_c, 6, 67, 0
1, 51060, Note_on_c, 6, 72, 0
1, 51060, Note_on_c, 2, 60, 0
1, 51067, Note_on_c, 2, 67, 0
1, 51067, Note_on_c, 2, 48, 0
1, 51067, Note_on_c, 6, 60, 0
1, 51067, Note_on_c, 6, 79, 0
1, 51070, Note_on_c, 7, 60, 0
1, 51070, Note_on_c, 1, 33, 0
1, 51070, Note_on_c, 4, 60, 0
1, 51070, Note_on_c, 2, 62, 0
1, 51070, Note_on_c, 6, 74, 0
1, 51072, Note_on_c, 1, 26, 100
1, 51072, Control_c, 1, 11, 51
1, 51072, Note_on_c, 2, 50, 72
1, 51072, Control_c, 2, 11, 51
1, 51072, Note_on_c, 4, 62, 107
1, 51072, Control_c, 4, 11, 51
1, 51072, Note_on_c, 6, 62, 42
1, 51072, Control_c, 6, 11, 51
1, 51072, Note_on_c, 7, 62, 117
1, 51072, Control_c, 7, 11, 51
1, 51072, Note_on_c, 9, 35, 75
1, 51072, Note_on_c, 9, 46, 51
1, 51072, Note_on_c, 9, 49, 54
1, 51072, Control_c, 9, 11, 51
1, 51074, Note_on_c, 9, 49, 0
1, 51074, Note_on_c, 9, 46, 0
1, 51074, Note_on_c, 9, 35, 0
1, 51092, Control_c, 4, 1, 2
1, 51092, Control_c, 7, 1, 2
1, 51093, Control_c, 4, 1, 21
1, 51093, Control_c, 7, 1, 21
1, 51096, Control_c, 1, 11, 50
1, 51096, Control_c, 2, 11, 50
1, 51096, Control_c, 4, 11, 50
1, 51096, Control_c, 6, 11, 50
1, 51096, Control_c, 7, 11, 50
1, 51096, Control_c, 9, 11, 50
1, 51098, Control_c, 4, 1, 33
1, 51098, Control_c, 7, 1, 33
1, 51101, Note_on_c, 1, 26, 0
1, 51102, Control_c, 4, 1, 39
1, 51102, Control_c, 7, 1, 39
1, 51106, Control_c, 4, 1, 48
1, 51106, Control_c, 7, 1, 48
1, 51111, Control_c, 4, 1, 52
1, 51111, Control_c, 7, 1, 52
1, 51120, Note_on_c, 1, 26, 88
1, 51120, Control_c, 1, 11, 49
1, 51120, Note_on_c, 2, 57, 52
1, 51120, Control_c, 2, 11, 49
1, 51120, Control_c, 4, 11, 49
1, 51120, Control_c, 4, 1, 53
1, 51120, Note_on_c, 6, 69, 22
1, 51120, Control_c, 6, 11, 49
1, 51120, Control_c, 7, 11, 49
1, 51120, Control_c, 7, 1, 53
1, 51120, Note_on_c, 9, 35, 64
1, 51120, Note_on_c, 9, 46, 51
1, 51120, Note_on_c, 9, 53, 48
1, 51120, Control_c, 9, 11, 49
1, 51122, Note_on_c, 9, 53, 0
1, 51122, Note_on_c, 9, 46, 0
1, 51122, Note_on_c, 9, 35, 0
1, 51123, Control_c, 4, 1, 54
1, 51123, Control_c, 7, 1, 54
1, 51126, Control_c, 4, 1, 55
1, 51126, Control_c, 7, 1, 55
1, 51131, Control_c, 4, 1, 56
1, 51131, Control_c, 7, 1, 56
1, 51144, Control_c, 1, 11, 48
1, 51144, Control_c, 2, 11, 48
1, 51144, Control_c, 4, 11, 48
1, 51144, Control_c, 6, 11, 48
1, 51144, Control_c, 7, 11, 48
1, 51144, Control_c, 9, 11, 48
1, 51146, Note_on_c, 1, 26, 0
1, 51157, Control_c, 4, 1, 54
1, 51157, Control_c, 7, 1, 54
1, 51160, Control_c, 4, 1, 52
1, 51160, Control_c, 7, 1, 52
1, 51165, Control_c, 4, 1, 48
1, 51165, Control_c, 7, 1, 48
1, 51168, Note_on_c, 1, 26, 96
1, 51168, Control_c, 1, 11, 46
1, 51168, Note_on_c, 2, 62, 68
1, 51168, Note_on_c, 2, 69, 92
1, 51168, Note_on_c, 2, 74, 76
1, 51168, Control_c, 2, 11, 46
1, 51168, Control_c, 4, 11, 46
1, 51168, Note_on_c, 6, 74, 38
1, 51168, Note_on_c, 6, 81, 62
1, 51168, Note_on_c, 6, 86, 46
1, 51168, Control_c, 6, 11, 46
1, 51168, Control_c, 7, 11, 46
1, 51168, Note_on_c, 9, 40, 105
1, 51168, Note_on_c, 9, 46, 51
1, 51168, Note_on_c, 9, 53, 56
1, 51168, Control_c, 9, 11, 46
1, 51170, Note_on_c, 9, 53, 0
1, 51170, Note_on_c, 9, 46, 0
1, 51170, Note_on_c, 9, 40, 0
1, 51170, Control_c, 4, 1, 34
1, 51170, Control_c, 7, 1, 34
1, 51174, Control_c, 4, 1, 16
1, 51174, Control_c, 7, 1, 16
1, 51178, Control_c, 4, 1, 0
1, 51178, Control_c, 7, 1, 0
1, 51179, Note_on_c, 6, 69, 0
1, 51179, Note_on_c, 2, 57, 0
1, 51192, Control_c, 1, 11, 45
1, 51192, Control_c, 2, 11, 45
1, 51192, Control_c, 4, 11, 45
1, 51192, Control_c, 6, 11, 45
1, 51192, Control_c, 7, 11, 45
1, 51192, Control_c, 9, 11, 45
1, 51195, Note_on_c, 1, 26, 0
1, 51216, Note_on_c, 1, 26, 96
1, 51216, Control_c, 1, 11, 44
1, 51216, Note_on_c, 2, 57, 39
1, 51216, Control_c, 2, 11, 44
1, 51216, Control_c, 4, 11, 44
1, 51216, Note_on_c, 6, 69, 9
1, 51216, Control_c, 6, 11, 44
1, 51216, Control_c, 7, 11, 44
1, 51216, Note_on_c, 9, 46, 51
1, 51216, Note_on_c, 9, 49, 66
1, 51216, Note_on_c, 9, 53, 76
1, 51216, Control_c, 9, 11, 44
1, 51218, Note_on_c, 9, 53, 0
1, 51218, Note_on_c, 9, 49, 0
1, 51218, Note_on_c, 9, 46, 0
1, 51222, Note_on_c, 2, 62, 0
1, 51222, Note_on_c, 6, 74, 0
1, 51234, Note_on_c, 7, 62, 0
1, 51234, Note_on_c, 4, 62, 0
1, 51238, Note_on_c, 2, 69, 0
1, 51238, Note_on_c, 6, 81, 0
1, 51239, Note_on_c, 2, 50, 0
1, 51239, Note_on_c, 6, 62, 0
1, 51240, Note_on_c, 2, 57, 0
1, 51240, Note_on_c, 6, 69, 0
1, 51240, Control_c, 1, 11, 43
1, 51240, Note_on_c, 2, 62, 64
1, 51240, Note_on_c, 2, 60, 66
1, 51240, Note_on_c, 2, 67, 84
1, 51240, Control_c, 2, 11, 43
1, 51240, Control_c, 4, 11, 43
1, 51240, Note_on_c, 6, 72, 36
1, 51240, Note_on_c, 6, 74, 34
1, 51240, Note_on_c, 6, 79, 54
1, 51240, Control_c, 6, 11, 43
1, 51240, Control_c, 7, 11, 43
1, 51240, Note_on_c, 9, 40, 90
1, 51240, Control_c, 9, 11, 43
1, 51242, Note_on_c, 9, 40, 0
1, 51254, Note_on_c, 1, 26, 0
1, 51260, Pitch_bend_c, 4, 7168
1, 51260, Pitch_bend_c, 7, 7168
1, 51261, Pitch_bend_c, 4, 3712
1, 51261, Pitch_bend_c, 7, 3712
1, 51264, Note_on_c, 1, 28, 88
1, 51264, Control_c, 1, 11, 42
1, 51264, Note_on_c, 2, 55, 48
1, 51264, Control_c, 2, 11, 42
1, 51264, Control_c, 4, 11, 42
1, 51264, Note_on_c, 6, 67, 18
1, 51264, Control_c, 6, 11, 42
1, 51264, Control_c, 7, 11, 42
1, 51264, Note_on_c, 9, 35, 75
1, 51264, Note_on_c, 9, 46, 51
1, 51264, Note_on_c, 9, 53, 54
1, 51264, Control_c, 9, 11, 42
1, 51265, Pitch_bend_c, 4, 2688
1, 51265, Pitch_bend_c, 7, 2688
1, 51266, Note_on_c, 9, 53, 0
1, 51266, Note_on_c, 9, 46, 0
1, 51266, Note_on_c, 9, 35, 0
1, 51268, Pitch_bend_c, 4, 2432
1, 51268, Pitch_bend_c, 7, 2432
1, 51272, Note_on_c, 2, 55, 0
1, 51272, Note_on_c, 6, 67, 0
1, 51272, Pitch_bend_c, 4, 3072
1, 51272, Pitch_bend_c, 7, 3072
1, 51275, Pitch_bend_c, 4, 4992
1, 51275, Pitch_bend_c, 7, 4992
1, 51279, Pitch_bend_c, 4, 5504
1, 51279, Pitch_bend_c, 7, 5504
1, 51281, Pitch_bend_c, 4, 8192
1, 51281, Pitch_bend_c, 7, 8192
1, 51288, Control_c, 1, 11, 40
1, 51288, Control_c, 2, 11, 40
1, 51288, Control_c, 4, 11, 40
1, 51288, Control_c, 6, 11, 40
1, 51288, Control_c, 7, 11, 40
1, 51288, Control_c, 9, 11, 40
1, 51291, Note_on_c, 1, 28, 0
1, 51312, Note_on_c, 1, 28, 88
1, 51312, Control_c, 1, 11, 39
1, 51312, Note_on_c, 2, 55, 66
1, 51312, Control_c, 2, 11, 39
1, 51312, Control_c, 4, 11, 39
1, 51312, Note_on_c, 6, 67, 36
1, 51312, Control_c, 6, 11, 39
1, 51312, Control_c, 7, 11, 39
1, 51312, Note_on_c, 9, 35, 59
1, 51312, Note_on_c, 9, 46, 51
1, 51312, Note_on_c, 9, 53, 54
1, 51312, Control_c, 9, 11, 39
1, 51314, Note_on_c, 9, 53, 0
1, 51314, Note_on_c, 9, 46, 0
1, 51314, Note_on_c, 9, 35, 0
1, 51327, Note_on_c, 2, 55, 0
1, 51327, Note_on_c, 6, 67, 0
1, 51334, Note_on_c, 2, 60, 0
1, 51334, Note_on_c, 6, 72, 0
1, 51335, Note_on_c, 2, 62, 0
1, 51335, Note_on_c, 6, 74, 0
1, 51336, Note_on_c, 1, 28, 0
1, 51336, Control_c, 1, 11, 38
1, 51336, Control_c, 2, 11, 38
1, 51336, Control_c, 4, 11, 38
1, 51336, Control_c, 6, 11, 38
1, 51336, Control_c, 7, 11, 38
1, 51336, Control_c, 9, 11, 38
1, 51339, Note_on_c, 6, 79, 0
1, 51339, Note_on_c, 2, 67, 0
1, 51352, Pitch_bend_c, 4, 3712
1, 51352, Pitch_bend_c, 7, 3712
1, 51354, Note_on_c, 6, 86, 0
1, 51354, Note_on_c, 2, 74, 0
1, 51356, Pitch_bend_c, 4, 640
1, 51356, Pitch_bend_c, 7, 640
1, 51359, Pitch_bend_c, 4, 0
1, 51359, Pitch_bend_c, 7, 0
1, 51360, Note_on_c, 1, 28, 104
1, 51360, Control_c, 1, 11, 37
1, 51360, Note_on_c, 2, 62, 64
1, 51360, Note_on_c, 2, 67, 92
1, 51360, Note_on_c, 2, 60, 68
1, 51360, Note_on_c, 2, 74, 62
1, 51360, Note_on_c, 2, 55, 64
1, 51360, Control_c, 2, 11, 37
1, 51360, Note_on_c, 4, 74, 117
1, 51360, Control_c, 4, 11, 37
1, 51360, Note_on_c, 6, 67, 34
1, 51360, Note_on_c, 6, 72, 38
1, 51360, Note_on_c, 6, 74, 34
1, 51360, Note_on_c, 6, 79, 62
1, 51360, Note_on_c, 6, 86, 32
1, 51360, Control_c, 6, 11, 37
1, 51360, Note_on_c, 7, 74, 127
1, 51360, Control_c, 7, 11, 37
1, 51360, Note_on_c, 9, 40, 105
1, 51360, Note_on_c, 9, 46, 51
1, 51360, Note_on_c, 9, 53, 52
1, 51360, Control_c, 9, 11, 37
1, 51362, Note_on_c, 9, 53, 0
1, 51362, Note_on_c, 9, 46, 0
1, 51362, Note_on_c, 9, 40, 0
1, 51364, Pitch_bend_c, 4, 1024
1, 51364, Pitch_bend_c, 7, 1024
1, 51366, Pitch_bend_c, 4, 3712
1, 51366, Pitch_bend_c, 7, 3712
1, 51370, Pitch_bend_c, 4, 6144
1, 51370, Pitch_bend_c, 7, 6144
1, 51372, Note_on_c, 2, 55, 0
1, 51372, Note_on_c, 6, 67, 0
1, 51373, Pitch_bend_c, 4, 7936
1, 51373, Pitch_bend_c, 7, 7936
1, 51376, Pitch_bend_c, 4, 8192
1, 51376, Pitch_bend_c, 7, 8192
1, 51383, Note_on_c, 1, 28, 0
1, 51384, Control_c, 1, 11, 36
1, 51384, Control_c, 2, 11, 36
1, 51384, Note_on_c, 4, 77, 112
1, 51384, Control_c, 4, 11, 36
1, 51384, Control_c, 6, 11, 36
1, 51384, Note_on_c, 7, 77, 122
1, 51384, Control_c, 7, 11, 36
1, 51384, Note_on_c, 9, 57, 80
1, 51384, Control_c, 9, 11, 36
1, 51386, Note_on_c, 9, 57, 0
1, 51386, Note_on_c, 4, 74, 0
1, 51386, Note_on_c, 7, 74, 0
1, 51400, Note_on_c, 4, 77, 0
1, 51400, Note_on_c, 7, 77, 0
1, 51408, Note_on_c, 1, 28, 96
1, 51408, Control_c, 1, 11, 34
1, 51408, Note_on_c, 2, 55, 58
1, 51408, Control_c, 2, 11, 34
1, 51408, Note_on_c, 4, 79, 102
1, 51408, Control_c, 4, 11, 34
1, 51408, Note_on_c, 6, 67, 28
1, 51408, Control_c, 6, 11, 34
1, 51408, Note_on_c, 7, 79, 112
1, 51408, Control_c, 7, 11, 34
1, 51408, Note_on_c, 9, 46, 51
1, 51408, Control_c, 9, 11, 34
1, 51410, Note_on_c, 9, 46, 0
1, 51416, Pitch_bend_c, 4, 9752
1, 51416, Pitch_bend_c, 7, 9752
1, 51417, Note_on_c, 6, 72, 0
1, 51417, Note_on_c, 2, 60, 0
1, 51418, Note_on_c, 6, 74, 0
1, 51418, Note_on_c, 2, 62, 0
1, 51419, Pitch_bend_c, 4, 11702
1, 51419, Pitch_bend_c, 7, 11702
1, 51421, Note_on_c, 6, 79, 0
1, 51421, Note_on_c, 2, 67, 0
1, 51422, Pitch_bend_c, 4, 14692
1, 51422, Pitch_bend_c, 7, 14692
1, 51426, Pitch_bend_c, 4, 15732
1, 51426, Pitch_bend_c, 7, 15732
1, 51429, Pitch_bend_c, 4, 15992
1, 51429, Pitch_bend_c, 7, 15992
1, 51430, Note_on_c, 2, 55, 0
1, 51430, Note_on_c, 6, 67, 0
1, 51432, Control_c, 1, 11, 33
1, 51432, Note_on_c, 2, 67, 44
1, 51432, Note_on_c, 2, 60, 50
1, 51432, Control_c, 2, 11, 33
1, 51432, Control_c, 4, 11, 33
1, 51432, Note_on_c, 6, 72, 20
1, 51432, Note_on_c, 6, 79, 14
1, 51432, Control_c, 6, 11, 33
1, 51432, Control_c, 7, 11, 33
1, 51432, Control_c, 9, 11, 33
1, 51439, Note_on_c, 6, 79, 0
1, 51439, Note_on_c, 2, 67, 0
1, 51439, Pitch_bend_c, 4, 16122
1, 51439, Pitch_bend_c, 7, 16122
1, 51443, Note_on_c, 1, 28, 0
1, 51443, Pitch_bend_c, 4, 16382
1, 51443, Pitch_bend_c, 7, 16382
1, 51456, Note_on_c, 1, 31, 104
1, 51456, Control_c, 1, 11, 32
1, 51456, Control_c, 2, 11, 32
1, 51456, Control_c, 4, 11, 32
1, 51456, Control_c, 6, 11, 32
1, 51456, Control_c, 7, 11, 32
1, 51456, Note_on_c, 9, 35, 75
1, 51456, Note_on_c, 9, 46, 51
1, 51456, Note_on_c, 9, 53, 68
1, 51456, Control_c, 9, 11, 32
1, 51458, Note_on_c, 9, 53, 0
1, 51458, Note_on_c, 9, 46, 0
1, 51458, Note_on_c, 9, 35, 0
1, 51475, Note_on_c, 6, 72, 0
1, 51475, Note_on_c, 2, 60, 0
1, 51480, Control_c, 1, 11, 31
1, 51480, Control_c, 2, 11, 31
1, 51480, Control_c, 4, 11, 31
1, 51480, Control_c, 6, 11, 31
1, 51480, Control_c, 7, 11, 31
1, 51480, Control_c, 9, 11, 31
1, 51483, Note_on_c, 1, 31, 0
1, 51496, Pitch_bend_c, 4, 15862
1, 51496, Pitch_bend_c, 7, 15862
1, 51500, Pitch_bend_c, 4, 15602
1, 51500, Pitch_bend_c, 7, 15602
1, 51502, Pitch_bend_c, 4, 15212
1, 51502, Pitch_bend_c, 7, 15212
1, 51504, Note_on_c, 1, 31, 86
1, 51504, Control_c, 1, 11, 30
1, 51504, Note_on_c, 2, 55, 88
1, 51504, Control_c, 2, 11, 30
1, 51504, Control_c, 4, 11, 30
1, 51504, Note_on_c, 6, 67, 58
1, 51504, Control_c, 6, 11, 30
1, 51504, Control_c, 7, 11, 30
1, 51504, Note_on_c, 9, 35, 61
1, 51504, Note_on_c, 9, 46, 51
1, 51504, Note_on_c, 9, 53, 60
1, 51504, Control_c, 9, 11, 30
1, 51506, Note_on_c, 9, 53, 0
1, 51506, Note_on_c, 9, 46, 0
1, 51506, Note_on_c, 9, 35, 0
1, 51507, Pitch_bend_c, 4, 15082
1, 51507, Pitch_bend_c, 7, 15082
1, 51511, Pitch_bend_c, 4, 14822
1, 51511, Pitch_bend_c, 7, 14822
1, 51513, Pitch_bend_c, 4, 14432
1, 51513, Pitch_bend_c, 7, 14432
1, 51518, Pitch_bend_c, 4, 14172
1, 51518, Pitch_bend_c, 7, 14172
1, 51522, Pitch_bend_c, 4, 13912
1, 51522, Pitch_bend_c, 7, 13912
1, 51526, Pitch_bend_c, 4, 13652
1, 51526, Pitch_bend_c, 7, 13652
1, 51528, Control_c, 1, 11, 29
1, 51528, Control_c, 2, 11, 29
1, 51528, Pitch_bend_c, 4, 13392
1, 51528, Control_c, 4, 11, 29
1, 51528, Control_c, 6, 11, 29
1, 51528, Pitch_bend_c, 7, 13392
1, 51528, Control_c, 7, 11, 29
1, 51528, Control_c, 9, 11, 29
1, 51531, Note_on_c, 1, 31, 0
1, 51531, Pitch_bend_c, 4, 12872
1, 51531, Pitch_bend_c, 7, 12872
1, 51535, Pitch_bend_c, 4, 12352
1, 51535, Pitch_bend_c, 7, 12352
1, 51538, Pitch_bend_c, 4, 11702
1, 51538, Pitch_bend_c, 7, 11702
1, 51541, Pitch_bend_c, 4, 10142
1, 51541, Pitch_bend_c, 7, 10142
1, 51545, Pitch_bend_c, 4, 8972
1, 51545, Pitch_bend_c, 7, 8972
1, 51547, Note_on_c, 2, 55, 0
1, 51547, Note_on_c, 6, 67, 0
1, 51547, Pitch_bend_c, 4, 8192
1, 51547, Pitch_bend_c, 7, 8192
1, 51550, Note_on_c, 4, 79, 0
1, 51550, Note_on_c, 7, 79, 0
1, 51552, Note_on_c, 1, 31, 86
1, 51552, Control_c, 1, 11, 27
1, 51552, Note_on_c, 2, 60, 88
1, 51552, Note_on_c, 2, 67, 88
1, 51552, Note_on_c, 2, 62, 66
1, 51552, Control_c, 2, 11, 27
1, 51552, Note_on_c, 4, 74, 117
1, 51552, Control_c, 4, 11, 27
1, 51552, Note_on_c, 6, 72, 58
1, 51552, Note_on_c, 6, 74, 36
1, 51552, Note_on_c, 6, 79, 58
1, 51552, Control_c, 6, 11, 27
1, 51552, Note_on_c, 7, 74, 127
1, 51552, Control_c, 7, 11, 27
1, 51552, Note_on_c, 9, 40, 105
1, 51552, Note_on_c, 9, 46, 51
1, 51552, Note_on_c, 9, 53, 80
1, 51552, Control_c, 9, 11, 27
1, 51554, Note_on_c, 9, 53, 0
1, 51554, Note_on_c, 9, 46, 0
1, 51554, Note_on_c, 9, 40, 0
1, 51572, Note_on_c, 4, 74, 0
1, 51572, Note_on_c, 7, 74, 0
1, 51573, Note_on_c, 1, 31, 0
1, 51576, Control_c, 1, 11, 26
1, 51576, Control_c, 2, 11, 26
1, 51576, Note_on_c, 4, 77, 117
1, 51576, Control_c, 4, 11, 26
1, 51576, Control_c, 6, 11, 26
1, 51576, Note_on_c, 7, 77, 127
1, 51576, Control_c, 7, 11, 26
1, 51576, Control_c, 9, 11, 26
1, 51593, Note_on_c, 7, 77, 0
1, 51593, Note_on_c, 4, 77, 0
1, 51597, Note_on_c, 6, 86, 0
1, 51597, Note_on_c, 2, 74, 0
1, 51599, Note_on_c, 2, 67, 0
1, 51599, Note_on_c, 6, 79, 0
1, 51600, Note_on_c, 1, 31, 100
1, 51600, Control_c, 1, 11, 25
1, 51600, Note_on_c, 2, 55, 66
1, 51600, Control_c, 2, 11, 25
1, 51600, Note_on_c, 4, 79, 107
1, 51600, Control_c, 4, 11, 25
1, 51600, Note_on_c, 6, 67, 36
1, 51600, Control_c, 6, 11, 25
1, 51600, Note_on_c, 7, 79, 117
1, 51600, Control_c, 7, 11, 25
1, 51600, Note_on_c, 9, 46, 51
1, 51600, Note_on_c, 9, 53, 50
1, 51600, Control_c, 9, 11, 25
1, 51602, Note_on_c, 9, 53, 0
1, 51602, Note_on_c, 9, 46, 0
1, 51606, Pitch_bend_c, 4, 8842
1, 51606, Pitch_bend_c, 7, 8842
1, 51608, Pitch_bend_c, 4, 9622
1, 51608, Pitch_bend_c, 7, 9622
1, 51611, Pitch_bend_c, 4, 10792
1, 51611, Pitch_bend_c, 7, 10792
1, 51615, Pitch_bend_c, 4, 12222
1, 51615, Pitch_bend_c, 7, 12222
1, 51616, Note_on_c, 6, 74, 0
1, 51616, Note_on_c, 2, 62, 0
1, 51617, Note_on_c, 6, 67, 0
1, 51617, Note_on_c, 2, 55, 0
1, 51618, Pitch_bend_c, 4, 12872
1, 51618, Pitch_bend_c, 7, 12872
1, 51620, Note_on_c, 6, 72, 0
1, 51620, Note_on_c, 2, 60, 0
1, 51621, Pitch_bend_c, 4, 13392
1, 51621, Pitch_bend_c, 7, 13392
1, 51623, Note_on_c, 7, 79, 0
1, 51624, Control_c, 1, 11, 24
1, 51624, Note_on_c, 2, 53, 84
1, 51624, Control_c, 2, 11, 24
1, 51624, Control_c, 4, 11, 24
1, 51624, Note_on_c, 6, 65, 54
1, 51624, Control_c, 6, 11, 24
1, 51624, Control_c, 7, 11, 24
1, 51624, Control_c, 9, 11, 24
1, 51625, Pitch_bend_c, 4, 14042
1, 51625, Pitch_bend_c, 7, 14042
1, 51628, Pitch_bend_c, 4, 14822
1, 51628, Pitch_bend_c, 7, 14822
1, 51631, Note_on_c, 4, 79, 0
1, 51632, Pitch_bend_c, 4, 14952
1, 51632, Pitch_bend_c, 7, 14952
1, 51636, Note_on_c, 1, 31, 0
1, 51636, Pitch_bend_c, 4, 15082
1, 51636, Pitch_bend_c, 7, 15082
1, 51642, Pitch_bend_c, 4, 12742
1, 51642, Pitch_bend_c, 4, 14822
1, 51642, Pitch_bend_c, 7, 12742
1, 51642, Pitch_bend_c, 7, 14822
1, 51646, Pitch_bend_c, 4, 10012
1, 51646, Pitch_bend_c, 7, 10012
1, 51648, Note_on_c, 1, 29, 100
1, 51648, Control_c, 1, 11, 23
1, 51648, Note_on_c, 2, 65, 84
1, 51648, Note_on_c, 2, 60, 80
1, 51648, Note_on_c, 2, 46, 68
1, 51648, Control_c, 2, 11, 23
1, 51648, Note_on_c, 4, 79, 90
1, 51648, Control_c, 4, 11, 23
1, 51648, Note_on_c, 6, 58, 38
1, 51648, Note_on_c, 6, 72, 50
1, 51648, Note_on_c, 6, 77, 54
1, 51648, Control_c, 6, 11, 23
1, 51648, Note_on_c, 7, 79, 100
1, 51648, Control_c, 7, 11, 23
1, 51648, Note_on_c, 9, 35, 75
1, 51648, Note_on_c, 9, 46, 51
1, 51648, Note_on_c, 9, 53, 88
1, 51648, Control_c, 9, 11, 23
1, 51649, Note_on_c, 7, 79, 0
1, 51649, Note_on_c, 4, 79, 0
1, 51649, Pitch_bend_c, 4, 8192
1, 51649, Pitch_bend_c, 7, 8192
1, 51650, Note_on_c, 9, 53, 0
1, 51650, Note_on_c, 9, 35, 0
1, 51650, Note_on_c, 9, 46, 0
1, 51659, Pitch_bend_c, 4, 8712
1, 51659, Pitch_bend_c, 7, 8712
1, 51660, Pitch_bend_c, 4, 9752
1, 51660, Pitch_bend_c, 7, 9752
1, 51664, Pitch_bend_c, 4, 10532
1, 51664, Pitch_bend_c, 7, 10532
1, 51668, Pitch_bend_c, 4, 11832
1, 51668, Pitch_bend_c, 7, 11832
1, 51671, Pitch_bend_c, 4, 13912
1, 51671, Pitch_bend_c, 7, 13912
1, 51672, Control_c, 1, 11, 21
1, 51672, Control_c, 2, 11, 21
1, 51672, Control_c, 4, 11, 21
1, 51672, Control_c, 6, 11, 21
1, 51672, Control_c, 7, 11, 21
1, 51672, Control_c, 9, 11, 21
1, 51674, Note_on_c, 1, 29, 0
1, 51674, Pitch_bend_c, 4, 14432
1, 51674, Pitch_bend_c, 7, 14432
1, 51679, Pitch_bend_c, 4, 14172
1, 51679, Pitch_bend_c, 7, 14172
1, 51681, Pitch_bend_c, 4, 12872
1, 51681, Pitch_bend_c, 7, 12872
1, 51684, Note_on_c, 2, 53, 0
1, 51684, Note_on_c, 6, 65, 0
1, 51685, Pitch_bend_c, 4, 10532
1, 51685, Pitch_bend_c, 7, 10532
1, 51688, Pitch_bend_c, 4, 9492
1, 51688, Pitch_bend_c, 7, 9492
1, 51689, Pitch_bend_c, 4, 8192
1, 51689, Pitch_bend_c, 7, 8192
1, 51696, Note_on_c, 1, 29, 86
1, 51696, Control_c, 1, 11, 20
1, 51696, Note_on_c, 2, 53, 60
1, 51696, Control_c, 2, 11, 20
1, 51696, Note_on_c, 4, 79, 107
1, 51696, Control_c, 4, 11, 20
1, 51696, Note_on_c, 6, 65, 30
1, 51696, Control_c, 6, 11, 20
1, 51696, Note_on_c, 7, 79, 117
1, 51696, Control_c, 7, 11, 20
1, 51696, Note_on_c, 9, 35, 61
1, 51696, Note_on_c, 9, 46, 51
1, 51696, Note_on_c, 9, 53, 58
1, 51696, Control_c, 9, 11, 20
1, 51698, Note_on_c, 9, 53, 0
1, 51698, Note_on_c, 9, 46, 0
1, 51698, Note_on_c, 9, 35, 0
1, 51699, Pitch_bend_c, 4, 9622
1, 51699, Pitch_bend_c, 7, 9622
1, 51702, Pitch_bend_c, 4, 10532
1, 51702, Pitch_bend_c, 7, 10532
1, 51706, Pitch_bend_c, 4, 11182
1, 51706, Pitch_bend_c, 7, 11182
1, 51709, Pitch_bend_c, 4, 11832
1, 51709, Pitch_bend_c, 7, 11832
1, 51713, Pitch_bend_c, 4, 12352
1, 51713, Pitch_bend_c, 7, 12352
1, 51719, Pitch_bend_c, 4, 13132
1, 51719, Pitch_bend_c, 7, 13132
1, 51720, Control_c, 1, 11, 19
1, 51720, Control_c, 2, 11, 19
1, 51720, Pitch_bend_c, 4, 13782
1, 51720, Control_c, 4, 11, 19
1, 51720, Control_c, 6, 11, 19
1, 51720, Pitch_bend_c, 7, 13782
1, 51720, Control_c, 7, 11, 19
1, 51720, Control_c, 9, 11, 19
1, 51721, Note_on_c, 2, 53, 0
1, 51721, Note_on_c, 6, 65, 0
1, 51723, Note_on_c, 6, 58, 0
1, 51723, Note_on_c, 2, 46, 0
1, 51723, Pitch_bend_c, 4, 14042
1, 51723, Pitch_bend_c, 7, 14042
1, 51724, Note_on_c, 6, 72, 0
1, 51724, Note_on_c, 2, 60, 0
1, 51726, Pitch_bend_c, 4, 14562
1, 51726, Pitch_bend_c, 7, 14562
1, 51728, Note_on_c, 6, 77, 0
1, 51728, Note_on_c, 2, 65, 0
1, 51730, Pitch_bend_c, 4, 14822
1, 51730, Pitch_bend_c, 7, 14822
1, 51735, Pitch_bend_c, 4, 14042
1, 51735, Pitch_bend_c, 7, 14042
1, 51737, Note_on_c, 7, 79, 0
1, 51737, Note_on_c, 4, 79, 0
1, 51737, Pitch_bend_c, 4, 12222
1, 51737, Pitch_bend_c, 7, 12222
1, 51741, Pitch_bend_c, 4, 10142
1, 51741, Pitch_bend_c, 7, 10142
1, 51742, Note_on_c, 1, 29, 0
1, 51743, Pitch_bend_c, 4, 8192
1, 51743, Pitch_bend_c, 7, 8192
1, 51744, Note_on_c, 1, 28, 104
1, 51744, Control_c, 1, 11, 18
1, 51744, Note_on_c, 2, 64, 68
1, 51744, Note_on_c, 2, 67, 88
1, 51744, Note_on_c, 2, 62, 88
1, 51744, Note_on_c, 2, 48, 68
1, 51744, Note_on_c, 2, 60, 76
1, 51744, Note_on_c, 2, 55, 68
1, 51744, Control_c, 2, 11, 18
1, 51744, Note_on_c, 4, 79, 112
1, 51744, Control_c, 4, 11, 18
1, 51744, Note_on_c, 6, 60, 38
1, 51744, Note_on_c, 6, 67, 38
1, 51744, Note_on_c, 6, 72, 46
1, 51744, Note_on_c, 6, 74, 58
1, 51744, Note_on_c, 6, 76, 38
1, 51744, Note_on_c, 6, 79, 58
1, 51744, Control_c, 6, 11, 18
1, 51744, Note_on_c, 7, 79, 122
1, 51744, Control_c, 7, 11, 18
1, 51744, Note_on_c, 9, 40, 105
1, 51744, Note_on_c, 9, 46, 51
1, 51744, Note_on_c, 9, 49, 66
1, 51744, Note_on_c, 9, 53, 76
1, 51744, Control_c, 9, 11, 18
1, 51746, Note_on_c, 9, 53, 0
1, 51746, Note_on_c, 9, 49, 0
1, 51746, Note_on_c, 9, 46, 0
1, 51746, Note_on_c, 9, 40, 0
1, 51753, Pitch_bend_c, 4, 8582
1, 51753, Pitch_bend_c, 7, 8582
1, 51755, Pitch_bend_c, 4, 9752
1, 51755, Pitch_bend_c, 7, 9752
1, 51758, Pitch_bend_c, 4, 11052
1, 51758, Pitch_bend_c, 7, 11052
1, 51762, Pitch_bend_c, 4, 12352
1, 51762, Pitch_bend_c, 7, 12352
1, 51765, Pitch_bend_c, 4, 13002
1, 51765, Pitch_bend_c, 7, 13002
1, 51766, Note_on_c, 1, 28, 0
1, 51768, Control_c, 1, 11, 17
1, 51768, Control_c, 2, 11, 17
1, 51768, Control_c, 4, 11, 17
1, 51768, Control_c, 6, 11, 17
1, 51768, Control_c, 7, 11, 17
1, 51768, Control_c, 9, 11, 17
1, 51769, Pitch_bend_c, 4, 13392
1, 51769, Pitch_bend_c, 7, 13392
1, 51772, Pitch_bend_c, 4, 14042
1, 51772, Pitch_bend_c, 7, 14042
1, 51776, Pitch_bend_c, 4, 14562
1, 51776, Pitch_bend_c, 7, 14562
1, 51779, Pitch_bend_c, 4, 14432
1, 51779, Pitch_bend_c, 7, 14432
1, 51783, Note_on_c, 6, 67, 0
1, 51783, Note_on_c, 4, 79, 0
1, 51783, Note_on_c, 7, 79, 0
1, 51783, Note_on_c, 2, 55, 0
1, 51784, Pitch_bend_c, 4, 13522
1, 51784, Pitch_bend_c, 7, 13522
1, 51786, Pitch_bend_c, 4, 11182
1, 51786, Pitch_bend_c, 7, 11182
1, 51789, Pitch_bend_c, 4, 8842
1, 51789, Pitch_bend_c, 7, 8842
1, 51791, Pitch_bend_c, 4, 8192
1, 51791, Pitch_bend_c, 7, 8192
1, 51792, Note_on_c, 1, 28, 100
1, 51792, Control_c, 1, 11, 15
1, 51792, Note_on_c, 2, 55, 52
1, 51792, Control_c, 2, 11, 15
1, 51792, Note_on_c, 4, 79, 94
1, 51792, Control_c, 4, 11, 15
1, 51792, Note_on_c, 6, 67, 22
1, 51792, Control_c, 6, 11, 15
1, 51792, Note_on_c, 7, 79, 104
1, 51792, Control_c, 7, 11, 15
1, 51792, Note_on_c, 9, 46, 51
1, 51792, Note_on_c, 9, 53, 42
1, 51792, Control_c, 9, 11, 15
1, 51794, Note_on_c, 9, 53, 0
1, 51794, Note_on_c, 9, 46, 0
1, 51805, Pitch_bend_c, 4, 8972
1, 51805, Pitch_bend_c, 7, 8972
1, 51807, Pitch_bend_c, 4, 11182
1, 51807, Pitch_bend_c, 7, 11182
1, 51811, Pitch_bend_c, 4, 12352
1, 51811, Pitch_bend_c, 7, 12352
1, 51814, Pitch_bend_c, 4, 13132
1, 51814, Pitch_bend_c, 7, 13132
1, 51816, Note_on_c, 6, 67, 0
1, 51816, Note_on_c, 2, 55, 0
1, 51816, Control_c, 1, 11, 14
1, 51816, Control_c, 2, 11, 14
1, 51816, Control_c, 4, 11, 14
1, 51816, Control_c, 6, 11, 14
1, 51816, Control_c, 7, 11, 14
1, 51816, Note_on_c, 9, 40, 90
1, 51816, Control_c, 9, 11, 14
1, 51817, Pitch_bend_c, 4, 14302
1, 51817, Pitch_bend_c, 7, 14302
1, 51818, Note_on_c, 9, 40, 0
1, 51821, Pitch_bend_c, 4, 15342
1, 51821, Pitch_bend_c, 7, 15342
1, 51824, Pitch_bend_c, 4, 16382
1, 51824, Pitch_bend_c, 7, 16382
1, 51825, Note_on_c, 1, 28, 0
1, 51828, Note_on_c, 6, 60, 0
1, 51828, Note_on_c, 2, 48, 0
1, 51831, Pitch_bend_c, 4, 13912
1, 51831, Pitch_bend_c, 7, 13912
1, 51835, Pitch_bend_c, 4, 12222
1, 51835, Pitch_bend_c, 7, 12222
1, 51836, Pitch_bend_c, 4, 8192
1, 51836, Pitch_bend_c, 7, 8192
1, 51837, Note_on_c, 2, 64, 0
1, 51837, Note_on_c, 6, 76, 0
1, 51838, Pitch_bend_c, 4, 8192
1, 51838, Pitch_bend_c, 7, 8192
1, 51840, Note_on_c, 2, 62, 0
1, 51840, Note_on_c, 6, 74, 0
1, 51840, Note_on_c, 1, 26, 92
1, 51840, Control_c, 1, 11, 12
1, 51840, Note_on_c, 2, 50, 64
1, 51840, Control_c, 2, 11, 12
1, 51840, Note_on_c, 4, 77, 112
1, 51840, Control_c, 4, 11, 12
1, 51840, Note_on_c, 6, 62, 34
1, 51840, Control_c, 6, 11, 12
1, 51840, Note_on_c, 7, 77, 122
1, 51840, Control_c, 7, 11, 12
1, 51840, Note_on_c, 9, 35, 75
1, 51840, Note_on_c, 9, 46, 51
1, 51840, Note_on_c, 9, 57, 88
1, 51840, Control_c, 9, 11, 12
1, 51842, Note_on_c, 9, 57, 0
1, 51842, Note_on_c, 9, 46, 0
1, 51842, Note_on_c, 4, 79, 0
1, 51842, Note_on_c, 7, 79, 0
1, 51842, Note_on_c, 9, 35, 0
1, 51843, Note_on_c, 6, 79, 0
1, 51843, Note_on_c, 2, 67, 0
1, 51843, Note_on_c, 2, 60, 0
1, 51843, Note_on_c, 6, 72, 0
1, 51863, Note_on_c, 2, 50, 0
1, 51863, Note_on_c, 4, 77, 0
1, 51863, Note_on_c, 6, 62, 0
1, 51863, Note_on_c, 7, 77, 0
1, 51864, Note_on_c, 4, 74, 98
1, 51864, Note_on_c, 7, 74, 108
1, 51867, Note_on_c, 1, 26, 0
1, 51876, Note_on_c, 7, 74, 0
1, 51876, Note_on_c, 4, 74, 0
1, 51888, Note_on_c, 1, 26, 88
1, 51888, Control_c, 1, 11, 11
1, 51888, Note_on_c, 2, 50, 62
1, 51888, Control_c, 2, 11, 11
1, 51888, Note_on_c, 4, 74, 94
1, 51888, Control_c, 4, 11, 11
1, 51888, Note_on_c, 6, 62, 32
1, 51888, Control_c, 6, 11, 11
1, 51888, Note_on_c, 7, 74, 104
1, 51888, Control_c, 7, 11, 11
1, 51888, Note_on_c, 9, 35, 56
1, 51888, Note_on_c, 9, 46, 51
1, 51888, Note_on_c, 9, 53, 37
1, 51888, Control_c, 9, 11, 11
1, 51890, Note_on_c, 9, 53, 0
1, 51890, Note_on_c, 9, 46, 0
1, 51890, Note_on_c, 9, 35, 0
1, 51915, Note_on_c, 1, 26, 0
1, 51936, Note_on_c, 1, 26, 86
1, 51936, Note_on_c, 2, 65, 92
1, 51936, Note_on_c, 2, 62, 92
1, 51936, Note_on_c, 2, 57, 68
1, 51936, Note_on_c, 6, 69, 38
1, 51936, Note_on_c, 6, 74, 62
1, 51936, Note_on_c, 6, 77, 62
1, 51936, Note_on_c, 9, 40, 105
1, 51936, Note_on_c, 9, 46, 51
1, 51936, Note_on_c, 9, 53, 68
1, 51938, Note_on_c, 9, 53, 0
1, 51938, Note_on_c, 9, 46, 0
1, 51938, Note_on_c, 9, 40, 0
1, 51960, Control_c, 1, 11, 10
1, 51960, Control_c, 2, 11, 10
1, 51960, Control_c, 4, 11, 10
1, 51960, Control_c, 6, 11, 10
1, 51960, Control_c, 7, 11, 10
1, 51960, Control_c, 9, 11, 10
1, 51962, Note_on_c, 1, 26, 0
1, 51984, Note_on_c, 1, 26, 88
1, 51984, Note_on_c, 9, 46, 51
1, 51984, Note_on_c, 9, 53, 56
1, 51986, Note_on_c, 9, 53, 0
1, 51986, Note_on_c, 9, 46, 0
1, 52006, Note_on_c, 2, 57, 0
1, 52006, Note_on_c, 6, 69, 0
1, 52008, Control_c, 1, 11, 9
1, 52008, Control_c, 2, 11, 9
1, 52008, Control_c, 4, 11, 9
1, 52008, Control_c, 6, 11, 9
1, 52008, Control_c, 7, 11, 9
1, 52008, Control_c, 9, 11, 9
1, 52011, Note_on_c, 1, 26, 0
1, 52032, Note_on_c, 1, 28, 100
1, 52032, Note_on_c, 2, 55, 52
1, 52032, Note_on_c, 6, 67, 22
1, 52032, Note_on_c, 9, 35, 75
1, 52032, Note_on_c, 9, 46, 51
1, 52032, Note_on_c, 9, 53, 88
1, 52034, Note_on_c, 9, 53, 0
1, 52034, Note_on_c, 9, 46, 0
1, 52034, Note_on_c, 9, 35, 0
1, 52037, Note_on_c, 2, 55, 0
1, 52037, Note_on_c, 2, 50, 0
1, 52037, Note_on_c, 6, 62, 0
1, 52037, Note_on_c, 6, 67, 0
1, 52056, Control_c, 1, 11, 8
1, 52056, Control_c, 2, 11, 8
1, 52056, Note_on_c, 4, 81, 117
1, 52056, Control_c, 4, 11, 8
1, 52056, Control_c, 6, 11, 8
1, 52056, Note_on_c, 7, 81, 127
1, 52056, Control_c, 7, 11, 8
1, 52056, Control_c, 9, 11, 8
1, 52057, Note_on_c, 1, 28, 0
1, 52057, Pitch_bend_c, 4, 6016
1, 52057, Pitch_bend_c, 7, 6016
1, 52059, Pitch_bend_c, 4, 1920
1, 52059, Pitch_bend_c, 7, 1920
1, 52060, Note_on_c, 7, 74, 0
1, 52060, Note_on_c, 4, 74, 0
1, 52062, Pitch_bend_c, 4, 128
1, 52062, Pitch_bend_c, 7, 128
1, 52067, Pitch_bend_c, 4, 640
1, 52067, Pitch_bend_c, 7, 640
1, 52070, Pitch_bend_c, 4, 1408
1, 52070, Pitch_bend_c, 7, 1408
1, 52072, Note_on_c, 6, 74, 0
1, 52072, Note_on_c, 2, 62, 0
1, 52073, Note_on_c, 2, 65, 0
1, 52073, Note_on_c, 6, 77, 0
1, 52074, Pitch_bend_c, 4, 2048
1, 52074, Pitch_bend_c, 7, 2048
1, 52077, Pitch_bend_c, 4, 3200
1, 52077, Pitch_bend_c, 7, 3200
1, 52080, Note_on_c, 1, 28, 96
1, 52080, Note_on_c, 2, 55, 76
1, 52080, Pitch_bend_c, 4, 5504
1, 52080, Note_on_c, 6, 67, 46
1, 52080, Pitch_bend_c, 7, 5504
1, 52080, Note_on_c, 9, 35, 56
1, 52080, Note_on_c, 9, 46, 51
1, 52080, Note_on_c, 9, 53, 62
1, 52082, Note_on_c, 9, 53, 0
1, 52082, Note_on_c, 9, 46, 0
1, 52082, Note_on_c, 9, 35, 0
1, 52084, Pitch_bend_c, 4, 7168
1, 52084, Pitch_bend_c, 7, 7168
1, 52087, Pitch_bend_c, 4, 7936
1, 52087, Pitch_bend_c, 7, 7936
1, 52089, Pitch_bend_c, 4, 8192
1, 52089, Pitch_bend_c, 7, 8192
1, 52094, Note_on_c, 4, 81, 0
1, 52094, Note_on_c, 7, 81, 0
1, 52104, Control_c, 1, 11, 7
1, 52104, Control_c, 2, 11, 7
1, 52104, Note_on_c, 4, 84, 112
1, 52104, Control_c, 4, 11, 7
1, 52104, Control_c, 6, 11, 7
1, 52104, Note_on_c, 7, 84, 122
1, 52104, Control_c, 7, 11, 7
1, 52104, Control_c, 9, 11, 7
1, 52107, Note_on_c, 1, 28, 0
1, 52126, Pitch_bend_c, 4, 6016
1, 52126, Pitch_bend_c, 7, 6016
1, 52128, Note_on_c, 1, 28, 100
1, 52128, Note_on_c, 2, 60, 66
1, 52128, Note_on_c, 2, 62, 88
1, 52128, Note_on_c, 2, 67, 88
1, 52128, Note_on_c, 4, 81, 117
1, 52128, Note_on_c, 6, 72, 36
1, 52128, Note_on_c, 6, 74, 58
1, 52128, Note_on_c, 6, 79, 58
1, 52128, Note_on_c, 7, 81, 127
1, 52128, Note_on_c, 9, 40, 105
1, 52128, Note_on_c, 9, 46, 51
1, 52128, Note_on_c, 9, 53, 97
1, 52129, Pitch_bend_c, 4, 2688
1, 52129, Pitch_bend_c, 7, 2688
1, 52130, Note_on_c, 9, 53, 0
1, 52130, Note_on_c, 9, 46, 0
1, 52130, Note_on_c, 9, 40, 0
1, 52132, Note_on_c, 6, 67, 0
1, 52132, Note_on_c, 2, 55, 0
1, 52132, Pitch_bend_c, 4, 1792
1, 52132, Pitch_bend_c, 7, 1792
1, 52133, Note_on_c, 7, 84, 0
1, 52133, Note_on_c, 4, 84, 0
1, 52136, Note_on_c, 6, 72, 0
1, 52136, Note_on_c, 2, 60, 0
1, 52136, Pitch_bend_c, 4, 2816
1, 52136, Pitch_bend_c, 7, 2816
1, 52139, Pitch_bend_c, 4, 4608
1, 52139, Pitch_bend_c, 7, 4608
1, 52143, Pitch_bend_c, 4, 5760
1, 52143, Pitch_bend_c, 7, 5760
1, 52146, Pitch_bend_c, 4, 7168
1, 52146, Pitch_bend_c, 7, 7168
1, 52151, Pitch_bend_c, 4, 7936
1, 52151, Pitch_bend_c, 7, 7936
1, 52152, Control_c, 1, 11, 6
1, 52152, Control_c, 2, 11, 6
1, 52152, Control_c, 4, 11, 6
1, 52152, Control_c, 6, 11, 6
1, 52152, Control_c, 7, 11, 6
1, 52152, Control_c, 9, 11, 6
1, 52153, Note_on_c, 1, 28, 0
1, 52153, Pitch_bend_c, 4, 8192
1, 52153, Pitch_bend_c, 7, 8192
1, 52164, Note_on_c, 4, 81, 0
1, 52164, Note_on_c, 7, 81, 0
1, 52176, Note_on_c, 1, 28, 92
1, 52176, Note_on_c, 2, 55, 66
1, 52176, Note_on_c, 4, 84, 107
1, 52176, Note_on_c, 6, 67, 36
1, 52176, Note_on_c, 7, 84, 117
1, 52176, Note_on_c, 9, 46, 51
1, 52176, Note_on_c, 9, 53, 54
1, 52178, Note_on_c, 9, 53, 0
1, 52178, Note_on_c, 9, 46, 0
1, 52191, Pitch_bend_c, 4, 7552
1, 52191, Pitch_bend_c, 7, 7552
1, 52192, Pitch_bend_c, 4, 4736
1, 52192, Pitch_bend_c, 7, 4736
1, 52196, Pitch_bend_c, 4, 3200
1, 52196, Pitch_bend_c, 7, 3200
1, 52199, Pitch_bend_c, 4, 3072
1, 52199, Pitch_bend_c, 7, 3072
1, 52200, Control_c, 1, 11, 5
1, 52200, Control_c, 2, 11, 5
1, 52200, Note_on_c, 4, 81, 117
1, 52200, Control_c, 4, 11, 5
1, 52200, Control_c, 6, 11, 5
1, 52200, Note_on_c, 7, 81, 127
1, 52200, Control_c, 7, 11, 5
1, 52200, Control_c, 9, 11, 5
1, 52203, Note_on_c, 4, 84, 0
1, 52203, Note_on_c, 7, 84, 0
1, 52203, Pitch_bend_c, 4, 3584
1, 52203, Pitch_bend_c, 7, 3584
1, 52207, Pitch_bend_c, 4, 3840
1, 52207, Pitch_bend_c, 7, 3840
1, 52210, Pitch_bend_c, 4, 4480
1, 52210, Pitch_bend_c, 7, 4480
1, 52213, Note_on_c, 1, 28, 0
1, 52213, Pitch_bend_c, 4, 6144
1, 52213, Pitch_bend_c, 7, 6144
1, 52216, Note_on_c, 6, 67, 0
1, 52216, Note_on_c, 2, 55, 0
1, 52217, Pitch_bend_c, 4, 8064
1, 52217, Pitch_bend_c, 7, 8064
1, 52224, Note_on_c, 1, 31, 100
1, 52224, Note_on_c, 4, 84, 117
1, 52224, Note_on_c, 7, 84, 127
1, 52224, Note_on_c, 9, 35, 75
1, 52224, Note_on_c, 9, 46, 51
1, 52224, Note_on_c, 9, 53, 84
1, 52226, Note_on_c, 9, 53, 0
1, 52226, Note_on_c, 9, 35, 0
1, 52226, Note_on_c, 9, 46, 0
1, 52229, Note_on_c, 6, 74, 0
1, 52229, Note_on_c, 2, 62, 0
1, 52235, Note_on_c, 7, 81, 0
1, 52235, Note_on_c, 4, 81, 0
1, 52238, Note_on_c, 2, 67, 0
1, 52238, Note_on_c, 6, 79, 0
1, 52248, Note_on_c, 4, 81, 102
1, 52248, Note_on_c, 7, 81, 112
1, 52250, Note_on_c, 1, 31, 0
1, 52259, Pitch_bend_c, 4, 6656
1, 52259, Pitch_bend_c, 7, 6656
1, 52262, Pitch_bend_c, 4, 5888
1, 52262, Pitch_bend_c, 7, 5888
1, 52266, Pitch_bend_c, 4, 5760
1, 52266, Pitch_bend_c, 7, 5760
1, 52272, Note_on_c, 1, 31, 84
1, 52272, Control_c, 1, 11, 4
1, 52272, Note_on_c, 2, 55, 80
1, 52272, Control_c, 2, 11, 4
1, 52272, Control_c, 4, 11, 4
1, 52272, Note_on_c, 6, 67, 50
1, 52272, Control_c, 6, 11, 4
1, 52272, Control_c, 7, 11, 4
1, 52272, Note_on_c, 9, 35, 54
1, 52272, Note_on_c, 9, 46, 51
1, 52272, Note_on_c, 9, 53, 52
1, 52272, Control_c, 9, 11, 4
1, 52273, Pitch_bend_c, 4, 8192
1, 52273, Pitch_bend_c, 4, 6016
1, 52273, Pitch_bend_c, 7, 8192
1, 52273, Pitch_bend_c, 7, 6016
1, 52274, Note_on_c, 9, 53, 0
1, 52274, Note_on_c, 9, 46, 0
1, 52274, Note_on_c, 9, 35, 0
1, 52283, Note_on_c, 7, 81, 0
1, 52283, Note_on_c, 4, 81, 0
1, 52294, Note_on_c, 1, 31, 0
1, 52313, Pitch_bend_c, 4, 8064
1, 52313, Pitch_bend_c, 7, 8064
1, 52314, Pitch_bend_c, 4, 5760
1, 52314, Pitch_bend_c, 7, 5760
1, 52318, Pitch_bend_c, 4, 4480
1, 52318, Pitch_bend_c, 7, 4480
1, 52320, Note_on_c, 1, 31, 86
1, 52320, Control_c, 1, 11, 3
1, 52320, Note_on_c, 2, 57, 66
1, 52320, Note_on_c, 2, 62, 76
1, 52320, Note_on_c, 2, 67, 88
1, 52320, Note_on_c, 2, 59, 84
1, 52320, Control_c, 2, 11, 3
1, 52320, Note_on_c, 4, 81, 117
1, 52320, Control_c, 4, 11, 3
1, 52320, Note_on_c, 6, 69, 36
1, 52320, Note_on_c, 6, 71, 54
1, 52320, Note_on_c, 6, 74, 46
1, 52320, Note_on_c, 6, 79, 58
1, 52320, Control_c, 6, 11, 3
1, 52320, Note_on_c, 7, 81, 127
1, 52320, Control_c, 7, 11, 3
1, 52320, Note_on_c, 9, 40, 105
1, 52320, Note_on_c, 9, 46, 51
1, 52320, Note_on_c, 9, 53, 84
1, 52320, Control_c, 9, 11, 3
1, 52321, Pitch_bend_c, 4, 4480
1, 52321, Pitch_bend_c, 7, 4480
1, 52322, Note_on_c, 9, 53, 0
1, 52322, Note_on_c, 9, 46, 0
1, 52322, Note_on_c, 9, 40, 0
1, 52325, Pitch_bend_c, 4, 5632
1, 52325, Pitch_bend_c, 7, 5632
1, 52328, Pitch_bend_c, 4, 7680
1, 52328, Pitch_bend_c, 7, 7680
1, 52332, Pitch_bend_c, 4, 8192
1, 52332, Pitch_bend_c, 7, 8192
1, 52335, Note_on_c, 2, 55, 0
1, 52335, Note_on_c, 6, 67, 0
1, 52342, Note_on_c, 1, 31, 0
1, 52368, Note_on_c, 1, 31, 78
1, 52368, Control_c, 1, 11, 2
1, 52368, Note_on_c, 2, 55, 66
1, 52368, Control_c, 2, 11, 2
1, 52368, Control_c, 4, 11, 2
1, 52368, Note_on_c, 6, 67, 36
1, 52368, Control_c, 6, 11, 2
1, 52368, Control_c, 7, 11, 2
1, 52368, Note_on_c, 9, 46, 51
1, 52368, Note_on_c, 9, 53, 54
1, 52368, Control_c, 9, 11, 2
1, 52370, Note_on_c, 9, 53, 0
1, 52370, Note_on_c, 9, 46, 0
1, 52385, Note_on_c, 6, 69, 0
1, 52385, Note_on_c, 2, 57, 0
1, 52388, Note_on_c, 2, 59, 0
1, 52388, Note_on_c, 6, 71, 0
1, 52389, Note_on_c, 2, 67, 0
1, 52389, Note_on_c, 6, 79, 0
1, 52394, Note_on_c, 6, 74, 0
1, 52394, Note_on_c, 2, 62, 0
1, 52397, Note_on_c, 2, 55, 0
1, 52397, Note_on_c, 6, 67, 0
1, 52409, Note_on_c, 1, 31, 0
1, 52416, Note_on_c, 1, 34, 86
1, 52416, Control_c, 1, 11, 1
1, 52416, Note_on_c, 2, 46, 56
1, 52416, Note_on_c, 2, 65, 84
1, 52416, Note_on_c, 2, 53, 72
1, 52416, Note_on_c, 2, 62, 88
1, 52416, Note_on_c, 2, 58, 84
1, 52416, Note_on_c, 2, 57, 66
1, 52416, Control_c, 2, 11, 1
1, 52416, Control_c, 4, 11, 1
1, 52416, Note_on_c, 6, 58, 26
1, 52416, Note_on_c, 6, 65, 42
1, 52416, Note_on_c, 6, 69, 36
1, 52416, Note_on_c, 6, 70, 54
1, 52416, Note_on_c, 6, 74, 58
1, 52416, Note_on_c, 6, 77, 54
1, 52416, Control_c, 6, 11, 1
1, 52416, Control_c, 7, 11, 1
1, 52416, Note_on_c, 9, 35, 75
1, 52416, Note_on_c, 9, 46, 51
1, 52416, Note_on_c, 9, 53, 88
1, 52416, Control_c, 9, 11, 1
1, 52418, Note_on_c, 9, 53, 0
1, 52418, Note_on_c, 9, 46, 0
1, 52418, Note_on_c, 9, 35, 0
1, 52464, Control_c, 1, 11, 0
1, 52464, Control_c, 2, 11, 0
1, 52464, Control_c, 4, 11, 0
1, 52464, Control_c, 6, 11, 0
1, 52464, Control_c, 7, 11, 0
1, 52464, Note_on_c, 9, 35, 54
1, 52464, Note_on_c, 9, 46, 51
1, 52464, Note_on_c, 9, 53, 56
1, 52464, Control_c, 9, 11, 0
1, 52466, Note_on_c, 9, 53, 0
1, 52466, Note_on_c, 9, 46, 0
1, 52466, Note_on_c, 9, 35, 0
1, 52489, Note_on_c, 6, 69, 0
1, 52489, Note_on_c, 2, 57, 0
1, 52500, Note_on_c, 2, 58, 0
1, 52500, Note_on_c, 6, 70, 0
1, 52503, Note_on_c, 2, 46, 0
1, 52503, Note_on_c, 6, 58, 0
1, 52505, Note_on_c, 2, 53, 0
1, 52505, Note_on_c, 6, 65, 0
1, 52507, Note_on_c, 4, 84, 0
1, 52507, Note_on_c, 7, 84, 0
1, 52512, Note_on_c, 6, 77, 0
1, 52512, Note_on_c, 2, 65, 0
1, 52512, Note_on_c, 1, 36, 96
1, 52512, Note_on_c, 2, 55, 76
1, 52512, Note_on_c, 2, 60, 80
1, 52512, Note_on_c, 2, 64, 64
1, 52512, Note_on_c, 2, 48, 72
1, 52512, Note_on_c, 6, 60, 42
1, 52512, Note_on_c, 6, 67, 46
1, 52512, Note_on_c, 6, 72, 50
1, 52512, Note_on_c, 6, 76, 34
1, 52512, Note_on_c, 9, 40, 105
1, 52512, Note_on_c, 9, 46, 51
1, 52512, Note_on_c, 9, 53, 64
1, 52513, Note_on_c, 6, 74, 0
1, 52513, Note_on_c, 2, 62, 0
1, 52514, Note_on_c, 9, 46, 0
1, 52514, Note_on_c, 9, 40, 0
1, 52516, Note_on_c, 7, 81, 0
1, 52516, Note_on_c, 4, 81, 0
1, 52520, Note_on_c, 1, 34, 0
1, 52558, Note_on_c, 6, 67, 0
1, 52558, Note_on_c, 2, 55, 0
1, 52563, Note_on_c, 2, 48, 0
1, 52563, Note_on_c, 6, 60, 0
1, 52567, Note_on_c, 6, 76, 0
1, 52567, Note_on_c, 2, 64, 0
1, 52568, Note_on_c, 2, 60, 0
1, 52568, Note_on_c, 6, 72, 0
1, 52577, Note_on_c, 1, 36, 0
1, 55871, Note_on_c, 9, 53, 0
1, 55871, End_track
0, 0, End_of_file
